<svg xmlns="http://www.w3.org/2000/svg" width="682.667" height="512" version="1.0" viewBox="0 0 512 384"><path d="M300.9 28.7c-.5 6.4-2.5 11.2-9.2 22.3-7.6 12.8-15 22.1-18.5 23.6-2.5 1-3.2 1.8-2.8 3 .3.8.6 2 .6 2.4 0 .5.9 1.4 2.1 2 1.6.9 2.6.8 4.4-.4 2.7-1.7 3.7-1 2.9 2.1-.6 2-5.7 5.4-10.4 6.8-1.4.4-4.5 1.6-6.9 2.7-2.5 1.1-5.3 1.7-6.7 1.4-3.5-.9-6.8 2.7-6 6.6.3 1.7.6 3.9.6 4.9 0 1.6.8 1.9 5.8 1.9 5.6.1 5.7.1 8.5 4.4 1.5 2.4 4.2 5.1 6.1 6 2.4 1.1 3.6 2.5 4.1 4.5.3 1.5 1.6 3.9 2.7 5.1 2 2.2 2.2 2.2 2.8.5.6-1.6.9-1.3 1.9 1.6.7 1.8 1.5 2.9 1.8 2.2.6-1.6 5.3 3.4 5.3 5.7 0 1.1-1.3 2.9-3 4.2-3.8 2.7-3.7 3.4.1 5.4l3.1 1.6-.4 10.9c-.3 9.7-.6 11.1-2.6 13.1l-2.3 2.3-27.7-.5c-43.8-.7-68.7-.5-81.7.9-10.4 1.1-12.3 1.6-14 3.6-1.1 1.2-4.1 2.8-6.8 3.4-5.9 1.4-14.5 7.6-21.6 15.6-2.9 3.3-8.7 8.9-12.9 12.5s-8.5 8-9.6 9.9c-1.9 3.3-1.9 3.4-.1 4.7 1 .8 1.5 1.4 1.1 1.4-.5 0-.3.6.3 1.4 1 1.2 2.6.6 9.6-3.7 4.6-2.9 12.5-7.5 17.5-10.2 5.1-2.8 10.2-5.9 11.4-7 3.2-2.8 8.4-6.5 9.2-6.5.4 0 .3 13.3-.1 29.6-.6 25.4-.5 29.5.7 28.8.8-.5 8.7-5.8 17.6-11.7 19.1-12.8 34.7-21.1 42.2-22.5 6.4-1.2 57.9-3.6 58.8-2.8 1 1.1-9.1 30.2-13.8 39.6-2.7 5.2-5.4 11.4-6.1 13.8-1.5 5.1-.9 6 5.9 8.3 2.6.9 4.8 2.3 5 3.1.2 1-2.6 3.6-7.5 7.1-4.3 3-9.6 7.1-11.8 9.1-2.1 1.9-5.2 4.1-6.7 4.7-2.8 1.1-3.8 4.2-1.8 5.4.5.3.7 1.2.3 2-1.2 3.4 5.4-.2 13.2-7.1l5.9-5.3 4.2 3.9c2.4 2.2 5.4 4.2 6.8 4.6 1.4.3 2.6 1 2.6 1.4 0 1.8-2.3 7-3.1 7-1.4 0-1.1 2.2.6 4 1.3 1.4 1.3 4.1 0 22.6-.7 11.5-1.7 24.6-2.1 29.1l-.7 8.3h54.2c43.2 0 54.1-.3 54.1-1.3 0-1.7-5.6-24.5-6.8-27.7-.7-1.7-.6-3.6.3-6 1.7-4.4 4-12.2 5.5-18 .6-2.5 2.4-7.7 4.1-11.7 1.7-4.2 2.9-9 2.9-11.6 0-2.9.7-5.3 2-7 6.3-8 6.9-18.7 2-34.2-4-12.5-3.8-17.2 1.5-26.5 2-3.6 4.8-7.7 6.2-9.1 2.2-2.4 2.3-2.9 1.1-4.8-1.3-2.1-6-4.8-10.7-6.1-2.5-.7-2.6-1-2.3-7 .1-3.5.9-10.8 1.8-16.4 4.3-28.5 6.4-43.6 6.4-47.8 0-4.7.1-4.8 4.8-7.2 2.8-1.4 5.4-2.1 6.1-1.7 1.4.9 6.1-.9 6.1-2.3 0-.4-3.6-4.3-8-8.6s-8-8.5-8-9.3 1.2-4.1 2.6-7.3c7.7-17.5 6-26.9-8-44-10.2-12.6-19.6-19.3-33.8-24.3-18.1-6.3-31.9-7.5-42.7-3.7-2.4.9-4.5 1.5-4.7 1.3-.2-.1.5-2.4 1.4-5 1.3-3.5 1.4-5.1.6-6.5-1.1-1.7-7.3-3-7.5-1.5m-11.2 104c-.3 1-.5.4-.5-1.2 0-1.7.2-2.4.5-1.8.2.7.2 2.1 0 3"/></svg>