<svg xmlns="http://www.w3.org/2000/svg" width="682.667" height="512" version="1.0" viewBox="0 0 512 384"><path d="M304.9 31.7c-3.8 9.6-6.3 14.2-14.1 26-4.8 7.2-10.6 14.7-12.9 16.6-2.9 2.5-4 4.2-3.7 5.8.5 3.2 3.3 4.7 5.9 3.1 2.4-1.5 4.3-.4 3.4 1.9-.6 1.6-10.6 6.9-12.8 6.9-.7 0-2.9.9-5 2-2 1.1-5.4 2-7.6 2-5.1 0-6.3 1.6-5.5 7.3.8 5.4 2.6 7.6 4.9 5.7.8-.6 2-.8 2.7-.4.7.5 2.6.7 4.3.5 2.4-.2 3.3.4 4.9 3 1 1.7 2.9 4.1 4.2 5.2s2.6 3.5 3 5.3c.7 3.7 6.4 10.9 6.4 8.1 0-2.3 1.7-2.1 2.5.2.3 1.1 1.7 2.6 3 3.5 3.4 2.2 3.4 6.8 0 9.4-3.1 2.5-3.2 3.9-.1 5.4 2.4 1 2.5 1.4 2 7.7-1.4 19-1.6 19.5-7.1 19.5-11.2-.1-43.3-2.8-53.3-4.6-12.9-2.3-42.5-3.5-56.3-2.3-6.9.5-8.6 1-9 2.4-.3 1.4-1.8 1.9-6 2.4-6.7.7-14.3 4.8-24.7 13.6-4 3.3-10.5 7.8-14.4 10-3.9 2.1-8.4 5.3-9.9 6.9-3 3.1-3 3.5 1 9.1.1.2 3.7-1 8-2.7s11.6-4.5 16.2-6.2c4.6-1.6 12.2-5.1 16.9-7.6 12-6.5 11.5-7.9 10.6 27.5l-.7 28.3 3.6-2.3c1.9-1.3 8.2-5.5 13.9-9.3 12.6-8.5 24.3-14.8 32.5-17.5 5.8-1.9 7.8-2 35.3-1.6 16 .3 29.5.7 30 1 .4.3-.8 4.9-2.7 10.3-2 5.3-5 14.4-6.8 20.2-1.9 5.8-4.7 13.4-6.4 17s-3.1 7.9-3.1 9.6c0 3 .3 3.3 7.8 5.9 4.2 1.5 8.1 3.1 8.5 3.5 1.8 1.6-.7 5.7-5.6 9.3-2.9 2-7.6 5.9-10.5 8.7-2.9 2.7-6.6 5.7-8.2 6.6-3.2 2-4.5 5-2.4 5.8.8.3 1.4 1.2 1.4 2.1 0 3.1 3.2 1.3 10.8-6l7.9-7.4 3.6 3.7 3.6 3.7-1.9 7.5-1.9 7.5 2.1 1.6c1.2.9 1.6 1.8 1 2-1.2.4-2.8 16.1-3.6 36.1L270 384h54c33.7 0 54-.4 54-1 0-.5-1.6-7-3.5-14.5-2.3-9.2-3.2-14.2-2.6-15.3 1.6-3.1 5.1-13.6 6.6-20 .8-3.4 2.4-8 3.5-10.2s2.3-6.8 2.7-10.2c.4-4 1.7-8.5 3.6-12.3 2.6-5.1 3.1-7 3-13.5 0-4.1-.8-10.2-1.6-13.5-.9-3.3-1.7-10.3-1.9-15.5-.3-10.5.7-13.1 8-21.2 3.3-3.7 3.4-3.9 1.8-6.3-.9-1.4-3.8-3.6-6.4-4.8-4.4-2.1-4.7-2.5-5-6.4-.2-2.4 1.3-14.5 3.2-27 1.9-12.6 4-27.7 4.6-33.8.6-6 1.3-11.1 1.5-11.4 1.6-1.6 8.4-3.8 9.2-3 1.2 1.2 6.3-.9 6.3-2.6 0-.6-2.4-3.2-5.3-5.7s-6.5-6.3-8-8.5l-2.8-4.1 3.4-6.9c4.4-8.7 6-16.7 4.6-23.1-2.1-9.8-12.9-24.9-25-34.8-16.9-13.8-47-21.8-62.4-16.6-3.3 1.1-6.1 1.9-6.2 1.8-.2-.1.7-2.6 2-5.5l2.2-5.3-2.4-1.9c-3.2-2.6-5-2.4-6.2.8"/></svg>