<svg xmlns="http://www.w3.org/2000/svg" width="682.667" height="512" version="1.0" viewBox="0 0 512 384"><path d="M317.5 31.8c-.6.4-1.6 2-2.3 3.7-3.9 8.6-24.2 36.8-29.8 41-3.5 2.7-4.4 6.1-2.2 8.3 1.7 1.7 2.2 1.5 5.7-1.4l3.1-2.6v2.4c0 1.3-.7 3.3-1.5 4.5-1.8 2.5-10.7 7.8-15 8.9-1.6.4-4.8 1.5-6.9 2.5-2.2.9-4.5 1.5-5.3 1.2-.7-.3-1.9 0-2.7.6-1.6 1.4-.4 9.8 1.9 12 1.2 1.2 1.7 1.2 4-.3 2-1.3 3-1.5 4-.6.8.6 3.1 1.1 5.2 1 5.6-.3 5.8-.2 3.7 2.1-1.8 2-1.8 2 .9 1.4 1.5-.4 2.7-.6 2.7-.4s-.4 1.9-1 3.7c-.5 1.9-.7 4.7-.3 6.3.5 2.5.7 2.7 1.7 1.3 1-1.3 1.1-.9.8 2.2-.4 3.4-.3 3.7 1.1 2.6 1.2-1 1.6-1 2 0 .3.8.6.5.6-.6.1-1.8.2-1.8 2.1-.1 1.1 1 2 2.4 2 3.2 0 .7.5 1.3 1 1.3.6 0 1 2.1 1 4.8 0 3.7-.5 5-2 6-2 1.2-2 1.4-.4 4.1 1.5 2.5 1.6 3.9.6 11.6-.7 4.9-1.3 9-1.6 9.2-.2.2-3.9-.7-8.2-2.1-4.4-1.4-13.4-3.9-20-5.5-6.7-1.7-14.4-4-17-5.2-9.1-3.9-26.9-10-33.9-11.6-4.1-.9-13.8-1.8-23.5-2-9.1-.3-18.5-.7-21-1-4.9-.5-8.9.3-19.5 4.1-6.9 2.4-7.4 2.5-20.9 1.5-8.6-.7-14.2-.7-14.8-.1s.3 1.9 2.2 3.6c1.7 1.4 2.6 2.6 1.8 2.6q-1.2.15.6 1.5c1.8 1.4 1.8 1.5.2 1.5-3.8 0-.3 1.8 6.6 3.3 13 2.8 24.2 4 34.1 3.5l9.7-.4 1.1 3.3c.6 1.8 1.4 3.3 1.8 3.3s1.1 11.1 1.5 24.7c.7 25.3 1.2 31.3 2.7 31.3.4 0 6.3-4.1 13.1-9 16.4-12 28.3-15.9 38.5-12.7 2.6.9 11.1 2.8 18.8 4.2 12.7 2.4 18.3 3.6 29.8 6.6 2 .5 3.7 1.6 3.7 2.4 0 .7-2.5 6.9-5.6 13.7-11.7 25.7-13.4 30.5-14.3 39.1-.5 4.5-1.2 9-1.6 9.9-.5 1.3.1 2.2 2.1 3.4 4.6 2.7 13.4 14.4 13.4 17.9 0 4.6-2.6 13.1-4.9 16.4-4 5.5-7.3 14.5-8.7 23.1-.7 4.7-1.6 10.4-2 12.7-.5 3.3-.3 4.3.7 4.3.8 0 2.3.3 3.5.6 2.6.7 4-2.4 4.9-10.9.5-4.7 1-5.8 2.3-5.5 2 .4 2 2 .9 24.5l-.8 15.3h109.3l-.6-3.3c-.5-2.7-.2-3.8 1.9-5.7 3.1-2.9 10-20.4 11.4-28.7.5-3.4 1.6-7.4 2.4-9 .8-1.5 1.7-5.2 2-8.2.4-2.9 1.3-6.4 2.1-7.6.9-1.4 2.2-8.4 3.2-18.1 1.7-15.6 1.5-24.5-1.1-57.4-.1-1.9-.6-10.5-1-19-.8-16-.9-14.7 5.3-66.5l.7-6 3.7.3c2 .1 3.9-.2 4.3-.8.3-.5 1.7-.7 3.1-.4 1.3.3 2.4.3 2.4-.1s-2.9-3.8-6.4-7.6c-6.1-6.4-6.5-7.1-6.8-12.1-.3-4.5.3-6.4 3.6-12.6 6.9-13.2 6-22.1-3.4-36.7-6-9.1-18.7-21.8-26.3-26.4-6-3.5-21.7-10.1-30.1-12.6-8.6-2.6-19.7-1.8-29 2.1-1.6.6-1.4-.1 1.2-4.8 3.4-5.9 3.9-8.7 2-10.6-1.4-1.4-2.8-1.5-4.3-.4m-46 295.8c-.9 2.7-2.2 6-3 7.4l-1.4 2.5-.1-2.6c0-2.4 4.8-13.4 5.6-12.6.2.2-.3 2.6-1.1 5.3"/></svg>