<svg xmlns="http://www.w3.org/2000/svg" width="682.667" height="512" version="1.0" viewBox="0 0 512 384"><path d="M344.4 18.2c-5.8 9.5-31.7 32.9-38 34.4-3.9.9-6.4 3.2-6.4 6 0 2.9 4 4.2 8.1 2.7 2.7-1 2.7-1 1.7 1.9-1.4 3.9-5.9 6.5-12.7 7.4-3.1.3-7.5 1.3-9.9 2.1-2.5.8-5.6 1.1-7.6.7-4.7-.8-6.8 2.3-6.4 9.8.3 5 .4 5.3 3 5.3 1.4 0 3 .3 3.4.7.4.5 2.2.8 4 .8 3 0 3.6.5 5.9 5 1.4 2.7 2.5 6.3 2.5 8 0 1.6.4 3 .9 3s.7.8.4 1.9.2 2.1 1.1 2.4c.9.4 1.6.2 1.6-.3 0-.6.5-1 1-1 .6 0 1 1.1 1 2.4 0 1.4 1.1 3.6 2.4 5 2.6 2.9 3.8 3.3 3 1.2-.3-.8-.1-2.3.5-3.3.8-1.5 1-1.1 1.1 2.3 0 4.4-2.3 7.4-7.2 9.3-3.5 1.3-3.6 3.5-.3 6.3 1.6 1.4 2.5 3.2 2.5 5 0 1.6.4 3.7.9 4.7 1 1.9-.5 10.1-1.9 10.1-.4 0-4.3-2-8.6-4.3-4.4-2.4-11.9-6.5-16.9-9.1-6.6-3.4-11.4-6.9-18-13.2-16.4-15.6-26.4-22.1-41.8-27-8.1-2.6-8.8-3.1-9.6-6-1.9-6.7-11.5-17.9-14.5-16.8-.7.3-1.8 1.6-2.5 3-1.3 3-2.1 2.6-5.9-3-3.5-5.1-4.5-9.6-4.3-19.8.1-4.2-.3-7.9-.8-8.2-1.6-1-7.8 5.2-10.3 10.2-1.9 3.9-2.3 6.2-2.2 13.7 0 11.4.9 13 13.2 25.7l9.5 9.8-2.6 12.3c-3.6 16.8-4.7 25.8-4.7 39.7 0 12.2.4 15 2.3 15 .6 0 5.8-2.3 11.7-5.2 6.3-3.1 12.3-5.3 15.2-5.6 6.8-.7 13.9 1.4 20.4 6 3.1 2.1 15.9 9.1 28.3 15.3 12.4 6.3 23.4 12 24.5 12.8 1.8 1.3 1.7 1.7-2.3 9.5-2.2 4.5-5.1 9.9-6.4 11.9-9.8 15.7-14.7 27.1-14.7 34.5 0 4.6 1.9 10.8 4.3 14.2l2 2.8-2.6 5.3c-1.5 2.8-2.7 5.5-2.7 5.8 0 .4 1.4 1.4 3.1 2.3l3.1 1.6-3.4 2.8c-4.2 3.4-10.7 11.9-13.9 18-1.3 2.5-3.6 5.9-5.1 7.6-3.8 4.1-4.4 7.5-1.7 9.2s4.9-.2 9.1-7.5c2.8-5 4.7-7.1 3.4-3.8-.8 2.2 4.9 7.3 9 8.1 3 .6 3.4 1 3.3 3.8-.1 4.4-1.2 7.8-2.4 7.4-.6-.2-1.3 2.8-1.7 6.6s-.9 7.9-1.2 9.1-.3 2.5 0 2.8.5 8.2.4 17.6l-.1 17.1h172.9l1.1-7.8c.6-4.3.9-10.4.5-13.5-.5-4-.2-7.6 1.1-12.5 1.8-6.8 1.8-7.2-.9-31.3-2.5-22.8-3.3-26.5-10.8-55.9-4.4-17.3-8.6-35.3-9.4-40-1.7-10.3-1.8-29.1-.3-46 1.5-17.4 2-19.4 4.7-19.8 2.8-.4 2.8-2.5.1-6.2-2.1-2.7-2.2-3.7-1.6-14.9.5-11.7.6-12.1 4.2-18 6.9-11.2 5.8-24.5-3.8-43.9C411 58.4 399.3 47 380 36.3c-9.3-5.2-15-6.5-25.4-6.1l-9.3.3 3.1-3.7c1.8-2 3.8-4.8 4.6-6.2 1.2-2.3 1.1-2.8-.5-4.6-2.8-3.1-5.2-2.5-8.1 2.2M261 298.4c0 .2-.8 1-1.7 1.7-1.6 1.3-1.7 1.2-.4-.4s2.1-2.1 2.1-1.3"/></svg>