<svg xmlns="http://www.w3.org/2000/svg" width="682.667" height="512" version="1.0" viewBox="0 0 512 384"><path d="M362.5 13.1c-1.2 3.6-6.5 8.8-17 16.4-14 10.2-23.3 15.5-27.2 15.5-2.4 0-3.7.7-4.9 2.5-1.6 2.4-1.6 2.7.1 4.5 1.1 1.2 3.1 2 5.2 2 1.8 0 3.3.3 3.3.6 0 1.7-2.5 4.6-4.8 5.6-3.6 1.4-21.9 1.9-25.9.7-4.7-1.5-6.9.1-8.8 6.6-1.7 6-1.4 7.5 1.4 7.5 1 0 2.4.6 3.1 1.4.6.8 2.3 1.6 3.8 1.8 2.4.3 2.9 1 4.3 6.3.9 3.4 2.4 7.5 3.3 9.2.9 1.8 1.6 4.3 1.6 5.8 0 2.8.9 3.2 2.9 1.2 1.1-1 1.2-.6.6 2-.7 3.7.2 6.3 1.6 4.2.6-1 .9-.6.9 1.3 0 1.8.5 2.8 1.5 2.8.8 0 1.5.9 1.5 2 0 2.2-3 4.4-7.2 5.4-3.5.8-3.6 3-.2 5.8 2.1 1.9 2.4 2.9 1.9 5.4-.3 2.1.2 5 1.4 8.3 1.2 3 1.7 5.3 1.1 5.6-1.2.7.4 1.7-18.2-11.1-12.2-8.4-17.8-13.1-27.8-23.3-14.3-14.7-19.7-18.2-32.7-21.3-4.8-1.2-9.4-2.6-10-3.1-.8-.6-1.3-3.3-1.3-6.7 0-10.4-6.7-25-11.5-25-1.2 0-2.8.7-3.5 1.5-2 2.4-2.6 1.8-3.8-3.3-1.2-5.3-.2-10.4 3-15.2 2.5-3.8 3.3-8.9 1.5-9.6-1.8-.6-8.2 2.5-12.3 6-4.1 3.4-9.1 13.8-10.4 21.7-1.4 8.1-.8 9.7 9.2 25.7 9.5 15.1 10.5 20.3 7.9 39.2-1.9 13.4-.9 35.3 1.8 41.5 2.9 6.7 5 6.2 14.6-3.5 10.2-10.2 12.9-10.4 24-1.5 2.2 1.8 14.2 10.1 26.8 18.4 12.5 8.4 22.7 15.8 22.7 16.4 0 .7-1.3 1.8-3 2.5-3.2 1.5-3.7 3.1-1.9 6.4.9 1.7.3 3.2-3.7 9.7-13.5 21.7-15.2 25-17.2 32.2-1.9 6.9-2 8.1-.8 12.7.8 2.8 2.3 6.3 3.5 7.8s2.1 3 2.1 3.5c0 .4-1.6 3.4-3.5 6.6s-3.5 6.1-3.5 6.6c0 .4 1.1 1.3 2.5 1.9l2.6 1.2-4 4c-2.1 2.3-4.6 5.6-5.5 7.3-.9 1.8-2.1 3.3-2.6 3.3-2 0-.9 3.1 1.5 4.2 3 1.4 5.2-.1 7.3-5.2 1.5-3.7 4.9-8 6.4-8 .4 0-.8 2.5-2.8 5.5-2.3 3.5-3.8 7.1-4.1 9.9-.5 4-.2 4.8 2.5 7.6 3.1 3.1 3.1 3.1 2.3 10.1-.5 3.9-1.6 7.8-2.4 8.7-1.8 2.1-3 30.1-2 45.3l.6 9.9h191.6l.3-3.8c.2-2 0-5.7-.4-8.2-.5-2.8-.1-8.3.9-14.7l1.7-10.2-4.3-21c-2.5-12.8-6.8-29.1-10.7-41.8-14.3-45.6-17.2-56.5-19-71.4-1.6-13.3-1.6-15.1 0-30.8 1.1-10.1 2.3-17.5 3.2-18.9 1.1-1.7 1.2-2.7.3-4.3-.8-1.5-.8-3.8 0-8.2.5-3.4 1.3-9.7 1.7-14 .5-5.8 1.3-8.7 3-11.3 7.2-10.6 8.6-18.5 6-32.6-3.5-18.7-10.3-31.5-23-43.6-15.3-14.5-27-20.9-40.4-22.1l-7.3-.6 3.5-4c4.6-5.1 5.2-7.1 3-9.6-2.4-2.6-7.1-2.5-7.9.2M202 62c.6 1.1.8 2 .6 2-.3 0-1-.9-1.6-2s-.8-2-.6-2c.3 0 1 .9 1.6 2m107.7 46.2c-.3.8-.6.5-.6-.6-.1-1.1.2-1.7.5-1.3.3.3.4 1.2.1 1.9m57.1 218.5c2.7 18.8 5.2 38.2 5.7 42.3.4 4.4.4 4.4-.6 1-5.9-20.8-10.9-39.2-11.4-42-.4-1.9-.9-4.3-1.1-5.3-.4-1.1.2-2 1.8-2.6 4.2-1.7 4.5-1.3 5.6 6.6"/></svg>