<svg xmlns="http://www.w3.org/2000/svg" width="682.667" height="512" version="1.0" viewBox="0 0 512 384"><path d="M377.6 22.5c-.7 2.5-9.1 11.5-10.9 11.5-.5 0-2.6 1.3-4.6 2.9s-5.7 3.7-8.2 4.7c-2.4.9-4.8 2.2-5.4 2.8-1.9 2.2-12 6-17.5 6.6-4.8.4-5.5.8-5.8 2.8-.4 2.6 1.1 4.8 5.1 7.2 2.7 1.7 2.7 1.7.8 3.5-1.8 1.5-2.7 1.6-8.4.6-3.5-.6-8.1-1.1-10.3-1.1-2.1-.1-5-.7-6.4-1.5-3.5-2-8.4-1.9-10.2.2-.8 1-2.1 3.3-2.8 5.2-1.3 3.1-1.2 3.5 1.1 5.2 1.3 1 3.6 2.3 5.1 3 2.3.9 2.8 1.9 3.4 6.7.9 7.2 2 10.2 4.5 12 1.6 1.1 1.9 2.3 1.7 6.9-.2 4.3.1 5.6 1.5 6.4.9.6 1.7 1.9 1.7 3.1 0 1.1.9 2.9 2.1 3.9 3.5 3 2.2 6.1-3.3 7.8-5.3 1.6-6.1 3.6-2.7 6.7 1.5 1.4 1.9 2.6 1.5 4.7-.3 1.6-.1 4.9.5 7.3 1 3.7.9 5-.6 8.1-1 2.1-1.9 4-2.1 4.2-.1.1-4-2.2-8.6-5.2s-10.9-7-14-9c-5.1-3.2-6.5-4.9-12.7-15.5-9.6-16.2-15.5-21.6-27.8-25.6-4-1.3-6.4-3-9.7-6.8-4.2-4.8-4.3-5.1-3-7.7 4.5-8.5-2.9-32.1-10-32.1-1.2 0-2.7.5-3.4 1.2-.9.9-1.2.3-1.2-3 0-4.8 1.8-8.2 6.8-12.9 6.6-6.3.7-10.1-8.8-5.5-9.4 4.4-17.2 17.7-17.4 29.3-.1 4.9.6 6.9 6.1 17.5 4.4 8.6 6.3 13.5 6.7 17.4s1.5 6.8 3.7 9.7l3 4.3-3 8.7c-10.3 29.9-11.1 53.3-1.7 53.3 1.4 0 4.4-2.7 9.1-8.5 3.8-4.7 7.4-8.5 8-8.5 1.5.1 3.7 2 7.3 6.7 4.7 6 13.4 12.6 31.2 23.8 8.5 5.3 16.1 10.3 16.8 11 1.1 1 .5 2.7-3.8 9.6-2.9 4.6-8 12.4-11.4 17.4-8.7 12.6-11.1 17.1-13.1 24.2-2.1 7.4-1.5 13 2 19.9l2.4 4.7-3 4.3-2.9 4.3 4.3 2.3c2.3 1.3 4.2 2.9 4.2 3.5s-1.8 2.5-4.1 4.1c-2.3 1.7-6.2 5.8-8.8 9.2-3.8 4.9-4.5 6.4-3.5 7.6 2.1 2.6 5.8 1.7 7.7-1.8 2.1-3.9 6.6-8.8 8.2-8.8.6 0 .2 1.1-.9 2.6-4 5.1-3.7 15.6.5 20.5 1.2 1.4 1.2 2-.1 4.5-1.3 2.6-1.3 3 .1 4.1.9.7 1.3 1.7.8 2.4-.5.9-.2 1 1.1.6 1.5-.6 1.6-.3 1.1 2-.4 1.6-1.1 5-1.6 7.6s-1.8 7.3-2.9 10.3L259 357l2.5-.6 2.5-.6-.5 14.1-.6 14.1h194.8l.6-13.3c.7-13.1.6-13.4-3.7-33-2.5-10.8-7.5-29-11.2-40.5-19.5-60.6-21.1-69-18.1-98.5 1.1-11 2.3-18 3.3-19.5.8-1.2 1.2-2.7.9-3.2s.6-8 2-16.6c2.3-14.4 2.8-16 5.7-19.2 4.5-5.2 7.8-13.1 8.4-20.4 1.1-12-4-33-10.7-44.5-4.2-7.1-22.4-25.6-30.2-30.7-6-3.9-15.4-7.6-19.4-7.6-2.9 0-2.9-.5 0-4.4 4-5.2 4-6.5.6-9.7-3.9-3.7-7.4-3.8-8.3-.4M221.7 64.8c-.5 2.2-3.7-4.8-3.7-8 .1-1.8.6-1.3 2.1 2 1.1 2.4 1.8 5.1 1.6 6m116 101.4c-.3.8-.6.5-.6-.6-.1-1.1.2-1.7.5-1.3.3.3.4 1.2.1 1.9m33.1 182.9c1.8 11.1 3.1 20.3 2.9 20.5-.6.6-8.6-28.7-9.3-33.9-.7-4.6.2-6.6 2.6-6.7.3 0 2 9.1 3.8 20.1"/></svg>