<svg xmlns="http://www.w3.org/2000/svg" width="682.667" height="512" version="1.0" viewBox="0 0 512 384"><path d="M387.8 25.8c-.9.1-1.9 1.4-2.2 2.7-.6 2.2-10.4 11.5-12.1 11.5-.5 0-1.6.6-2.4 1.4-.9.8-4.4 2.5-7.8 3.9-3.5 1.4-7.5 3.4-9 4.4-5.2 3.6-12.1 5.6-16.9 4.8-4.1-.6-4.5-.4-5.4 2-1.3 3.5.3 6.4 4.1 7.2 3 .6 3.5 1.7 2 4.2-.8 1.3-2.4 1.3-11.2.3-6.1-.7-12.1-2.1-14.6-3.3-6.4-3.1-9.1-2.3-12.2 3.4l-2.6 4.8 3 2.5c1.7 1.3 3.6 2.9 4.3 3.5.6.5 1.2 2.9 1.2 5.2 0 7.3 1.6 11.2 5.6 13.3 2.8 1.5 3.4 2.3 2.8 3.9-1.4 4.4-1.6 8.5-.4 8.5.7 0 1 .7.6 1.5-.3.8 0 1.5.5 1.5.7 0 .9.9.6 2.1s-.3 1.8 0 1.5c.9-.9 3.2 2.6 3.3 4.8 0 1.9 0 1.9 2.1 0 2.2-1.9 2.2-1.9 1 .3-1.4 2.7-3.4 3.9-8.4 4.8-2 .4-4 1.1-4.3 1.6s.7 2.5 2.2 4.4c2.3 3.1 2.5 3.9 1.5 6.1-.7 1.5-.8 3.2-.2 4.2.4.9.6 2.2.4 2.9-.2.6 0 1.4.6 1.7 1.2.8.8 2.1-3.1 10.3l-2.9 6.1-9.5-5c-5.2-2.7-12.2-6.4-15.6-8.1-5.9-3.1-6.3-3.5-12.9-15.1-9.5-16.7-12-19-28.1-26-3.2-1.4-5.8-3-5.8-3.6s-.9-2-1.9-3.1c-1.6-1.8-1.9-3.6-1.9-12.4 0-12.6-2.7-22.7-7.1-26.9-3-2.9-3.8-2.6-3.6 1 .1 1.2-.6 2.6-1.6 3.2-1.6 1-1.9.7-2.5-2.4-.5-2.8-.2-3.9 1.5-5.5 1.1-1.1 2.1-2.3 2.1-2.7s1.4-1.3 3-2c6.2-2.8 6-7.1-.2-7.2-3 0-3.9-1.9-1-2.1q1.8 0 .3-.6c-1-.4-.8-.9 1-1.9 2.3-1.3 2.2-1.3-2.2-1.4-9 0-18.9 9.6-22.5 21.7-.8 2.8-1.6 8.4-1.7 12.5-.1 7.1 0 7.6 6.1 19.6 4.9 9.6 6.2 13.2 6.2 16.7s.8 5.7 3.6 9.9l3.5 5.4-2.1 6.3c-6.7 20.5-11.2 51.9-7.7 54.7 1.3 1.1 2.7 0 9.3-7.7 4.3-5 8.6-9.1 9.5-9.1 1 0 3.5 2.1 5.6 4.7 8.4 10.7 17 16.7 36.9 25.8 6.5 3 12 5.9 12.2 6.5.2.5-3.4 6-8 12.2-10.1 13.6-15.2 21.8-17.4 27.8-2.1 6.1-1.3 18.3 1.7 24.2 2 3.9 2 4.3.5 6.9-2.4 4.1-2 6.6 1.4 8.4 1.7.9 3 2 3 2.5s-3.5 4.4-7.8 8.7-8.6 9.4-9.5 11.3c-1 1.9-2.3 4.3-3 5.3-1.5 2.2.5 3.9 4.3 3.5 1.9-.2 3.2-1.7 5.6-6.2 2.9-5.5 6.5-9.6 8.4-9.6.5 0-.1 2.6-1.2 5.7-1.2 3.7-1.8 7-1.4 9.2.4 2.6-.1 4.7-2.2 8.4-1.9 3.6-2.3 5.1-1.4 5.4.6.3 1.2 1.1 1.2 1.9 0 2.1.9 1.7 3.7-1.6 3-3.6 5.3-3.9 5.3-.7 0 5.8-2.3 19.4-4 24.1-2.8 7.3-2.7 8.8.7 7.5 5-1.9 5.5-.9 5.1 10.1l-.3 10h195.2l.7-5.2c.3-2.9.6-6.9.6-8.8 0-7-8.3-42-15.6-65-16.3-52.1-19.3-66-18.1-84.5.9-12.6 5.3-46.1 7.8-58.9 1.9-9.8 2.5-11.3 6.8-17 6.5-8.5 7.5-12.7 6.8-28.4-.9-23.3-6.8-36.1-24.6-53.9-11.4-11.3-18.3-15.8-28.7-18.8l-7.4-2.1 2.6-2.5c1.4-1.3 3.3-3.7 4.1-5.3 1.3-2.6 1.3-3-.7-5.1-2.3-2.5-4.5-3.3-7.2-2.7M341 171.4c-1.4 1.4-2.4 0-1.6-2.1.6-1.5.8-1.5 1.6-.3.6.9.5 1.9 0 2.4m-70 161.2c0 .8-.4 1.2-1 .9-.5-.3-1-1-1-1.6 0-.5.5-.9 1-.9.6 0 1 .7 1 1.6m99 12.1c.7 4.9 1.6 10.6 2.1 12.8.9 4.3 1.1 7.1.5 6.4-1.1-1.1-6.7-25.1-6.2-26.4q1.95-5.1 3.6 7.2"/></svg>