<svg xmlns="http://www.w3.org/2000/svg" width="682.667" height="512" version="1.0" viewBox="0 0 512 384"><path d="M388.3 27.7c.5 2.4-.3 3.6-4.9 8s-6.9 5.6-14.1 7.9c-4.7 1.6-11.3 4.6-14.7 6.8-5.7 3.8-6.5 4.1-13.3 4H334v3.2c0 3 2.5 6.4 4.8 6.4 1.5 0 1.5.3 0 3.6l-1.2 2.6-9.6-.7c-6.7-.5-10.9-1.4-14.4-3-6.8-3.2-9.2-2.2-13.2 5.7-2.4 4.6-2.4 4.8-.6 6.6 1.4 1.4 2 4.1 2.5 10.9.4 5 .9 9.7 1.2 10.5s2.6 2.4 5.1 3.7c4.1 1.9 4.4 2.4 3.3 3.9-1.1 1.4-1.1 1.5.1.4 2.4-2.1 2.9-1.4 2.7 3.7-.2 2.7.1 4.7.5 4.5.5-.3.8.5.8 1.8.1 2.2.1 2.3 1.6.3 1.3-1.8 1.4-1.7.8 1.4-.7 3.2-.6 3.2 1.5 2 1.1-.8 2.1-1.9 2.1-2.6s.5-1.3 1-1.3c1.9 0 1 4.7-1.4 6.9-1.3 1.2-3.9 2.4-5.9 2.8-5.4.8-6.6 2.8-3.6 5.9 1.8 1.9 2.4 3.8 2.5 7.2.1 2.6.5 8.5.9 13.2.6 6.9.4 9.1-.9 12-4.8 10-6.4 11.4-9.7 8.4-2-1.8-2.1-1.8-3.5.1-.8 1-1.4 2.9-1.4 4.3 0 1.3-.4 2-1 1.7-1.5-.9-24-5.5-27.1-5.5-2.4 0-4.9-3.1-4.9-6s-6.9-15-11.1-19.4c-4.5-4.8-6.7-6.3-14.9-10.1-2.2-.9-4.6-3.3-6.3-6.2-2.4-4-2.6-4.8-1.4-6.2 3-3.4 5-12.1 4.4-19.5-.5-7.6-4.6-18-7.3-19-.9-.3-1.2-1.1-.9-1.6.4-.6-.2-2.7-1.2-4.8-1.4-2.7-1.9-5.3-1.7-10 .4-7.8-.5-7.9-7.7-1.2-3 2.8-6.3 5.3-7.5 5.6-1.1.3-2.8 2.1-3.9 4-1 1.9-2.2 3.4-2.6 3.4-1.3 0-5.9 5.3-5.9 6.7 0 .7-.4 1.3-1 1.3s-1 3.3-1 7.8c0 8.1 1.5 14.2 7 29.2 3.1 8.4 4.3 11 10.1 22.1l2.9 5.5-3.6 8.5c-1.9 4.6-3.9 9.3-4.3 10.4-.5 1.1-1.6 3.7-2.5 5.8-1.6 3.9-6.6 26.7-6.6 30.6 0 1.1.3 2.1.6 2.1.4 0 4.4-3.6 9-8s9-8 9.8-8 2.7 1.4 4.3 3.2c11 12.3 12.7 13.8 20.6 17.7 7.7 3.9 21.9 8.4 26 8.3 1.6-.1 1.6.1-.3 2.6-7.9 10.3-13 18.5-14.5 23.1-2.2 6.8-1.7 16.7 1.3 23.5l2.2 4.8-2.6 3.4-2.6 3.3 3.6 2.2c2 1.1 3.6 2.2 3.6 2.4 0 2.5-5 9.7-9.8 14.1-5.6 5-13.2 16.6-13.2 20 0 .6-.7 1.7-1.5 2.4-2.1 1.7-1.9 3.7.5 5 3.7 2 5.6.3 9.4-8.4 3.3-7.5 7.8-13.7 9-12.5.2.2-2.4 6.2-5.9 13.2-6.1 12.4-6.3 12.9-4.5 14.7 1.7 1.7 1.9 1.7 4.5-1.9 1.4-2 3-4.2 3.5-5 .6-1.1 1.6-.6 4.3 2.2 1.9 2.1 4.1 3.7 4.9 3.7 1.3 0 1.3 1.2.2 9.3-.7 5.2-2 11.3-2.9 13.8-1.9 5.2-3.5 11.2-3.1 11.6.2.2 1.5-.1 3-.6 1.8-.7 3.4-.7 5.1.1 2.1.9 2.5 1.8 2.5 5.5v4.3h200.8l.7-5.8c.5-4.5-.2-9.8-3.5-26.2-4.4-21.9-4.9-23.7-11.5-46-2.4-8-6.9-23.9-10.1-35.5l-5.7-21 .6-25.5c.4-14.9 1.6-36.2 3.1-51.3 2.3-24.3 2.6-26.1 5.1-29.7 9.3-13.4 9.1-38.6-.5-58.5-9.1-18.7-31.1-37.7-48.2-41.5l-5.7-1.3 2.9-3.4c5.5-6.2 3.2-13.3-4.3-13.3-2.7 0-2.9.3-2.4 2.7M227 90.6c0 3-1.6 3.1-2.4.1-1.1-4-.8-5.1.9-3.7.8.7 1.5 2.3 1.5 3.6m2 9.4c0 .5-.2 1-.4 1-.3 0-.8-.5-1.1-1-.3-.6-.1-1 .4-1 .6 0 1.1.4 1.1 1m42.3 244.2c-1 5.3-1.9 5.3-2.9 0-.6-2.8-.4-3.2 1.5-3.2 1.8 0 2 .4 1.4 3.2m102.2 9.7c.9 6.7 1.5 13 1.3 13.9-.4 2.1-5.8-19.3-5.8-23 0-2.1 1.6-4.2 2.7-3.4.1.1.9 5.7 1.8 12.5"/></svg>