<svg xmlns="http://www.w3.org/2000/svg" width="682.667" height="512" version="1.0" viewBox="0 0 512 384"><path d="M124 1.8c0 1 .7 2.8 1.6 4 .9 1.3 1.3 3 1 3.9-.4.9.1 2.5 1.1 3.6 1.2 1.3 1.4 2.1.7 2.4-.9.3-.8 1.5.3 4.3 1.3 3.3 2.1 4 5.4 4.5 2.1.4 4.4.3 5-.1.7-.4 3.7-.8 6.6-.8 5.1-.1 5.3 0 5.3 2.6 0 4.1-1.3 6.8-7.8 15.9-3.3 4.6-6.8 10.3-7.7 12.6-1.6 4.1-1.6 4.2.7 7.5 1.8 2.7 3.1 3.4 6.3 3.6 5.9.4 9.5 2.1 9.5 4.4 0 1.1 1.1 6.3 2.4 11.6 1.5 6.1 2.9 15.7 3.6 25.7.6 8.8 1.2 17.1 1.3 18.5.2 2.1.5 1.8 2-2l1.7-4.5-.4 6.3c-.3 4.8-1 7-2.6 8.7-1.7 1.8-2 2.7-1.1 4.2.5 1.1.8 3.1.5 4.4-.5 1.8-.3 2.1.5.9.9-1.2 1.1-1.2 1.7.3 1 2.7-.2 4.5-4.2 6.2-2 .8-6.6 3.5-10.3 5.9-9.8 6.6-11.8 10.7-13.1 27.2-.6 7.1-1.8 17.3-2.7 22.6-1.8 11-1.6 10.8-12 10.8-4.9 0-6.7.4-8.3 2-2.3 2.3-2.1 3 3.4 13 4 7.4 4.5 11.6 2.1 20.7-.9 3.2-2.9 11.6-4.6 18.7-3.1 13.7-9.9 29.5-35.8 82.9-5.6 11.5-10.1 21-10.1 21.1 0 .2 2.5 2.2 5.5 4.5l5.6 4.1H217c77 0 140-.4 140-.8 0-1.8-3.8-12-6.5-17.2-4.9-9.7-5.4-12-3.7-16.5.8-2.2 2.6-5.4 3.9-7.2l2.3-3.2-6.4-14.3c-10.9-24.4-16.6-38.5-18.6-46-2.1-8.1-3.8-13.4-5.2-16.1-.5-1-.6-2.2-.2-2.8.3-.6-.2-1.9-1.1-2.9-1-1.1-1.5-2.6-1.2-3.3.3-.8-.1-2.7-.9-4.2s-1.2-3-.9-3.4c.6-1.1-2.4-9.3-4.1-11.3-1-1-1.2-1.8-.5-2.2.6-.4.8-1.3.4-2.1-.3-.8.5-3.6 1.8-6.3 1.3-2.8 2.2-6.6 2.3-9.5 0-4-.5-5.2-3.4-8.2-2.2-2.3-5.3-4.1-8.5-5-4.6-1.4-5.1-1.8-6.3-5.7-.8-2.4-1.9-4.9-2.5-5.6-.6-.8-1.2-1.9-1.3-2.6-1.5-7.7-5.1-19.2-7.4-23.3-2.7-4.7-2.9-5.9-2.7-13.7.2-8.4.3-8.6 3-9.5 2.3-.9 2.6-1.3 1.8-2.9-1.3-2.4-4.3-34.4-3.5-36.7.6-1.4.3-1.6-1.4-1.1-1.7.6-2.1.1-2.6-3.1-1-6.1-.4-15.2 1.1-16.4 1.6-1.4 1.7-.5.2 2.4-1.1 2-1 2 1.6-.3 5.1-4.6 7.9-12.3 8.2-22.9.2-10 .9-11.5 5-10.5 1.8.5 3.1-.3 6-3.6 3.6-4 14.3-23 14.3-25.4 0-.6.8-2.3 1.7-3.6 1-1.4 2.5-4.6 3.5-7.2.9-2.7 2.4-5.5 3.2-6.4.9-.8 1.6-2 1.6-2.5S289.7 0 227 0c-98 0-103 .1-103 1.8m164.1 72.3c-.5 1.3-1 1.9-1 1.2-.1-1.5 1-4.5 1.5-4 .3.2 0 1.5-.5 2.8m-122.5 58.5c-.4.9-.9 1.5-1.1 1.2-.3-.3-.3-1.3.1-2.2s.9-1.5 1.1-1.2c.3.3.3 1.3-.1 2.2m1.4 122.6c3.3 13.8 3.6 26.2 1.1 46.5-1.2 9.5-2.1 19-1.9 21.2.1 2.3-.3 4.6-1 5.3-1.4 1.4-1.6 6-.3 7.3.6.6-1.2 4-4.7 8.7-3 4.3-5.6 7.7-5.8 7.5-.1-.1.4-3.7 1.2-7.9 3.1-18 6.6-64.8 6.3-84.1-.2-10.9.2-13.7 2.1-13.7.4 0 1.8 4.2 3 9.2"/></svg>