<svg xmlns="http://www.w3.org/2000/svg" width="682.667" height="512" version="1.0" viewBox="0 0 512 384"><path d="M387.3 2.6c2.6 2.5 4.3 6.1 3.4 7-.2.2-4.2.9-8.8 1.5-18.4 2.2-36.9 8.1-47 15-12.7 8.5-18.3 19.1-22.6 41.8-.8 4.3-.9 4.4-6.3 5.8-3 .8-6.6 2.5-8 3.8-3.7 3.6-14.6 7-17.7 5.6-1.3-.6-3.7-1.1-5.4-1.1-2.7 0-3.3.6-5.5 5.5-1.5 3.2-2.7 8.2-3.1 12.2-.7 8.1.4 9.6 7 9.6 2.3-.1 4.8.4 5.5.9 1.5 1.3 1.6 7 0 8.6-.9.9-.7 1.2.9 1.2 1.2 0 2.5.5 2.8 1 .4.6 1.4.8 2.4.5 2.4-.7 5.8 2.8 8.6 9 2.5 5.7 5.9 8.7 9.4 8.3 1.8-.3 2.9 1 6.1 7.1 4.5 8.7 6.5 11.1 5.4 6.6-.4-1.7-.3-2.7.1-2.3.7.7 5.8 26.2 7 35.4.6 4.4.4 5.5-1.3 7.2-1.5 1.5-2.2 4.4-3.2 12.3-.6 5.7-1.8 14.8-2.6 20.1-.8 5.4-1.4 11.1-1.4 12.7 0 2-1.8 5.1-6.1 10.4-3.9 4.9-6.2 8.9-6.6 11.2-.3 1.9-1 3.8-1.5 4.1s-3.9-2.5-7.6-6.3c-5.3-5.4-8.8-7.8-16.7-11.8-5.5-2.7-10.2-5.1-10.4-5.2s.8-1.7 2.3-3.5c8.4-10.3 14.2-18.8 21.2-30.8 4.3-7.4 9.3-15.6 11.1-18.1 4.1-5.8 4.1-6.9.2-6.9-2.3 0-4.2 1-7 3.9-3.4 3.4-3.9 3.6-4.4 2-.4-1.1.1-3.3.9-5.1.9-1.7 1.3-3.4 1-3.7-.4-.3-.9-.1-1.1.6-1.6 4.4-16.5 24.3-18.2 24.3-.3 0-2.2-2.3-4.1-5.1-4-5.9-8.4-9.9-10.8-9.9-.9 0-2.9.6-4.3 1.4-1.4.7-4.2 1.6-6.1 2-3.3.6-6.8 3.5-10 8.4-1.3 2-1.4 3.2-.3 8.9 1.2 6.2 1.1 6.9-1.1 11.8-5.9 13.5-7.6 20.5-7.2 30.5l.3 9.5 6.3 9.4c3.4 5.1 6.2 9.7 6.2 10.2s-1.5 4.8-3.4 9.7c-7.3 19-14.3 44.4-11.9 42.9.5-.3.7 2.4.5 6.5-.5 10.6 0 11 6.1 5.1 5.5-5.2 12.6-10.9 16.5-13.1 2-1.1 2.7-1.1 4.7.2 1.4.9 3 2.6 3.6 3.8.6 1.3 2 3.2 3 4.4 3.2 3.4 3.9 7.5 2 11.4l-1.6 3.5 14.4 7.7c17.5 9.4 17.8 9.6 16.1 13.8-.7 1.7-1.9 3.4-2.7 3.8-.8.5-1.1 1.5-.7 2.5.6 1.6 8.5 1.7 113.5 1.7H512V221.7l-3.4-11.6c-1.9-6.4-4.6-16.5-6.1-22.5-1.4-5.9-4.1-15.6-6-21.5-1.9-5.8-5.9-19.4-8.9-30.1s-6.6-22.9-8-27c-2-6.1-2.3-8.3-1.6-12 1.2-6.2 1.2-19.7 0-26.1-1-4.9-.9-5.5.9-6.7 2.5-1.7 1.8-3.6-2.5-6.2-1.8-1.2-4.3-4.1-5.5-6.5-4.2-8.4-16.9-21.3-27.9-28.3-5.9-3.8-20.4-10.2-23.3-10.2-1.8 0-2.6-1.4-4.8-8.8L413.7 0h-29z"/></svg>