<svg xmlns="http://www.w3.org/2000/svg" width="682.667" height="512" version="1.0" viewBox="0 0 512 384"><path d="M366.5 1.2c-20.4 11.2-32 28.1-36.5 53-1.5 8.3-2.7 11.1-4.3 10.1-4.7-3-26.1-1.3-35.6 2.8l-5.3 2.2.5 4.6c.5 4.3.3 4.8-4.3 9.8-5 5.4-8.7 13.4-9.8 20.7-.6 4.4.6 5.6 5.6 5.6 3 0 3.2.2 2.2 2.1-2.1 3.8-.5 5.2 5 4.5l5.1-.7 2.4 5.3c1.4 2.9 2.5 6.5 2.5 7.9 0 1.5.9 3.8 2.1 5.3 2 2.5 2.3 2.6 4.4 1.2s2.6-1.3 7.1 1.6c7.5 4.6 9.2 6.6 11 12.7 1.5 5.2 1.5 7.5 0 30.6-.9 13.7-2.1 30.4-2.6 37-1.8 22.8-6 86-6 91.2q0 3.3-2.7 6.3l-2.8 3-5-4.6c-8.6-8-17.7-12.5-32-15.9-3.8-.9-8.1-1.9-9.5-2.2-1.4-.4-3.2-.7-4.2-.7-.9-.1-3.9-3.1-6.7-6.9L242 281l2.5-5.6c2.6-5.8 4.9-15.8 6-25.9 1.8-16 8.6-52.9 10.5-57 1.3-2.6 3-10.8 2.5-11.4-.3-.2-1.4 1.6-2.5 4-2.1 4.3-2.1 4.3-1.5.9.4-1.9.9-4.4 1.2-5.5.5-1.7.4-1.8-1.1-.6-.9.7-1.6 1.9-1.6 2.5 0 .7-.6 2.1-1.4 3.2-1.3 1.7-1.3 1.3-.5-3.1 1.7-8.9-1.1-13.4-5.6-8.9-3.3 3.3-4.8 7.6-10.1 29.9-2.6 10.7-7.1 21.5-8.3 19.9-.3-.5-2.6-2.2-5.1-3.9-3.5-2.3-5.9-3-11.1-3.3-6.3-.4-6.6-.3-9.5 2.9-1.8 2.2-4.7 4-7.9 4.9-4 1.3-5.3 2.2-6.6 5-5.6 11.8-6.9 14.9-6.9 16.8 0 2.4 4.4 6.2 7.1 6.2 1.7 0 1.9.9 1.9 7.9 0 15.3 3.3 40 6.1 45.4.6 1.2 6.2 8.9 12.4 17.2 6.1 8.2 12.8 17.5 14.8 20.5l3.6 5.5-4.4 16.9c-2.5 9.2-4.5 17.2-4.5 17.7s60.1.9 145 .9h145V193.2c0-147.1-.3-191.1-1.2-192-1.6-1.6-141.3-1.7-144.3 0m-11.5 206c4.4 7.7 18.3 22.2 23.3 24.3 2.4 1 5 1.3 7.2.9 2.8-.5 3.4-.3 4 1.5.3 1.1.4 2.5.1 3-1 1.6-9.7 4-16.8 4.7-6.5.5-6.9.4-10.5-2.5-6-5-8.2-4-9.9 4.4l-.8 4-.8-4.5c-.9-5.4-.8-42 .1-42 .3 0 2.2 2.8 4.1 6.2"/></svg>