<svg xmlns="http://www.w3.org/2000/svg" width="682.667" height="512" version="1.0" viewBox="0 0 512 384"><path d="M381.8 3.5C351.2 14 334 30.6 327 56.3c-1.6 5.8-5 22.5-5 24.6 0 .2-.6-.1-1.3-.7-1.7-1.5-18.7-.5-20.3 1.1-.4.4-1.6.7-2.6.7-2.5 0-10.7 4.6-13.5 7.5-1.2 1.3-3.1 2.6-4.1 2.9-6.2 2-18.2 26.4-17 34.7.3 2.3.7 2.4 6.6 2.3 7.1-.1 7.6.6 4.2 6.9-1.1 2.1-1.8 4.3-1.4 4.8.3.6 2.7.8 5.7.4 5.1-.5 5.3-.5 7.9 3.1 1.6 2.1 3.6 6.1 4.5 9.1 2.1 6.7 4.6 9.2 7.3 7.5 1.1-.7 2.7-1.2 3.6-1.2 2.5 0 14.4 6.9 14.4 8.3 0 .7.9 3 2 5.2 1.8 3.5 2 5.9 2 21.5 0 30.9-3.7 61-11 90-2.6 10.2-11.5 39.3-12.6 41.2-.3.4-2.1-1.1-4.1-3.2-8.5-9.6-17.4-13.8-36.6-17.5-6.5-1.2-11.9-2.4-12.1-2.6s-3.6-5.1-7.6-10.9-8.4-11.8-9.9-13.3c-2.5-2.8-2.6-3.2-2.7-17 0-12.7-.4-15.5-3.2-26-1.8-6.6-5.7-17.6-8.8-24.5-7.6-17.1-10-23-13.9-34.2-1.9-5.2-3.4-8.5-3.4-7.3-.1 3-1.7 3-2.5 0-.7-2.1-.7-2.1-1.6-.2l-.8 2-.8-2c-1.3-3.4-4.7-7.5-6.2-7.5-.8 0-2.1.8-2.8 1.7-2.5 3.4-1.5 9.7 4.2 25.9 3 8.8 6.1 18.4 6.8 21.5l1.3 5.5-6.1-1.3c-3.3-.7-7.7-1.3-9.6-1.3-4.9 0-9.9 3.3-10.7 7.1-.4 2.1-1.8 3.8-4.4 5.5-5.2 3.2-6.3 5.4-8.4 15.6-2.5 12.7-1.6 14.7 7.5 16.3 3.3.5 3.7 1 7.1 9.3 14.9 35.4 14.6 34.8 25.1 49.9 12.2 17.4 21.8 32 21.8 33 0 .3.8 1.5 1.7 2.5 1.6 1.7 1.4 2.6-2 14.6-2 7-3.7 13.5-3.7 14.5 0 1.6 7.9 1.7 151 1.7h151V195.9c0-178-.1-188.3-1.7-189.6-1-.8-4-2.5-6.8-3.8l-5-2.5-53.5.1-53.5.1zm-10.9 238.7c4.7 4.5 10.5 9 12.9 10 4 1.8 6.2 4.2 4.9 5.4-.3.3-3.5 1-7.3 1.5l-6.8.9-3.6-3.5c-3.9-3.8-7.4-4.5-8.9-1.8-.5 1-1.6 5.4-2.6 9.8-.9 4.4-1.9 8.7-2.1 9.6-.5 2-3.8 5.9-4.9 5.9-.7 0 .1-36 1.1-50.3l.6-7.7 4.1 6c2.2 3.4 7.9 9.7 12.6 14.2"/></svg>