<svg xmlns="http://www.w3.org/2000/svg" width="682.667" height="512" version="1.0" viewBox="0 0 512 384"><path d="M415 .7c-4.1.8-25.1 6-30.5 7.6-34.8 10.5-53.9 26.2-61.6 50.8-1.6 5-3.3 12.7-3.9 17.2-1.7 13.6-.7 12.4-10.7 12.9-7.5.3-9.8.9-15.3 3.7-3.6 1.8-7.4 4.1-8.5 5.1-1.1.9-3.7 2-5.7 2.4-7.1 1.3-14.2 11.9-18 26.9-1.7 6.7-1.8 8.3-.7 10.3 1.4 2.6 4.8 3.1 9.3 1.4 3.9-1.5 5.1 1.6 2.6 6.6-3 5.7-2.7 6.8 1.8 6.1 2-.2 4.3-.6 5.1-.8 1.9-.5 8.6 8.4 10.8 14.4 2.2 6.1 4.2 7.6 7.6 5.8 2-1.1 3.2-1.1 6.3-.1 7.4 2.4 9.2 3.8 12 9.7 2.7 5.6 2.8 6.4 3.2 26.8.8 38.1-3.8 66.4-16.3 100.9-4.4 12.1-4.8 12.9-8 15-2.5 1.7-2.6 1.7-8.2-4.4-7.1-7.7-16-12.1-29.3-14.5-5.2-.9-11.1-2-13-2.4-3.1-.6-4.4-2.1-12.2-13.6-4.8-7.1-10.4-14.6-12.4-16.6-3.4-3.5-3.7-4.3-4.4-12.3-1.1-11.1-1.6-13.3-5.7-24.1-5.6-14.4-8.7-19.6-21.2-35.4-6.6-8.5-16.3-22.8-19.1-28.5-1.4-2.8-2.9-3.7-8.3-5-2.3-.5-3-.2-4.6 2.5-1.9 3.2-1.9 3.3.1 8.6 2 5.4 5.9 12.9 11 20.8 2.7 4.3 7.8 14.1 7.8 15 0 .3-2.8.5-6.2.5-10.8.1-17.1 3.4-18.2 9.6-.5 2.2-2.2 4.8-4.8 7.3l-4.2 3.8-.3 11.1c-.4 13.7.5 15.4 8.6 15.6 4.9.1 5.5.4 7 3.1.9 1.6 4.5 7.3 8 12.5s7.7 12.1 9.3 15.4c1.7 3.2 7.4 12.2 12.8 20 15.5 22.2 26.2 39.8 25.7 42.1-.2 1.1-2.1 7.4-4.1 14s-3.9 12.8-4.2 13.7c-.5 1.7 7.3 1.8 153.5 1.8H512V201.2l-.1-182.7-7.3-4.2c-8-4.7-18.4-9.2-25.9-11.3-2.6-.7-5-1.7-5.3-2.1-.5-.9-53.7-1-58.4-.2m-47.6 244.6c3.9 3.8 9 8 11.3 9.3 7.3 4.3 6.6 7.4-1.8 7.4-3.4 0-5.1-.5-6.5-2.1-1-1.2-3.1-2.7-4.5-3.5-4.4-2.2-5.7-.2-8.3 12.5-1.9 9.5-2.7 11.7-4.6 13-2.3 1.5-2.3 1.5-1.7-.9.4-1.4 1-13.6 1.3-27.1l.7-24.6 3.5 4.6c1.9 2.5 6.7 7.7 10.6 11.4"/></svg>