<svg xmlns="http://www.w3.org/2000/svg" width="682.667" height="512" version="1.0" viewBox="0 0 512 384"><path d="M367.5 4.3c-38.4 13.6-52.6 31.5-57 71.9-.4 3.7-1.1 5.8-1.9 5.8-2.2 0-11 5-14.5 8.3-5.9 5.6-10.8 13.1-11.6 17.6-.7 4-.9 4.3-3.4 3.6-1.4-.3-5.4-.9-8.9-1.2-5.6-.5-6.6-.3-8.7 1.7-5.8 5.5-9.7 22.9-6 27 2.2 2.4 4.1 2.5 9 .4 3.1-1.3 3.9-1.3 4.6-.2 1.3 1.9 1.1 6.5-.3 8.8-1.8 2.8.2 4.6 3.1 3 1.2-.6 3-.8 4-.5 3 .9 9.5 8.5 13.1 15.3 3.5 6.6 5.4 7.9 9.2 6.2 4.4-2.1 8.8 0 12.2 5.6 2.7 4.6 3 6.2 4.8 25.4 2.1 22.2 1.9 36.2-.6 58-1.9 16.4-5.1 32.7-7.2 35.7-.8 1.4-1.3 2.7-1 3s-.6 1.9-1.9 3.5c-1.4 1.6-2.5 3.5-2.5 4.1 0 .7-2.9 3.2-6.5 5.6l-6.5 4.5-3.3-3.2c-5.4-5.2-18.6-10-32.4-11.8-2.9-.3-5.8-1.4-6.6-2.3s-6-9.3-11.5-18.8c-5.6-9.4-10.6-17.4-11.2-17.8-.7-.4-.7-1.2 0-2.5.5-1 1.7-5.1 2.5-9.1 1.3-6 1.4-9.1.5-17.3-1.4-12.3-2.5-17.8-4.7-21.9-2.4-4.8-6.3-21.9-13.4-59.2-1.1-5.9-4.2-11.5-6.4-11.5-.8 0-2.2 1.1-3.1 2.5s-2 2.2-2.5 1.9-.9.1-.9.8c0 1-.3.9-1-.2-4.2-6.7-2.3 17.7 3.1 38.1.5 2 .9 7.1.9 11.4 0 6.9-.2 7.6-1.7 7-1-.4-4.3-.9-7.4-1.2-6-.6-10.2.9-14.9 5.2-3.1 2.9-12.9 9.5-14 9.5-1.5 0-4.8 6.5-6.4 12.6-2.3 8.9-2.1 9.8 2.2 12 6.7 3.4 8.6 5.4 10.3 10.7.9 2.9 2.9 8.3 4.4 12.2 1.4 3.8 3.8 10.2 5.1 14.1 1.4 4 7.9 16.2 14.7 27.6 6.7 11.3 14.6 25.1 17.6 30.9l5.4 10.4-6.6 17.7c-3.7 9.7-6.7 17.9-6.7 18.2s70 .6 155.5.6H512V21.3l-7.7-5.7c-4.3-3.2-12.2-8-17.5-10.7L477 0l-48.7.1h-48.8zm-13.4 229.3c1.3 1.5 5 4.9 8.2 7.5 3.2 2.7 5.2 4.9 4.4 4.9-.7 0-2.6-1.4-4.2-3-4.6-4.8-6.7-3.8-8.7 4-1 3.8-1.7 5.5-1.8 4-.1-1.4-.5-6.4-.8-11.3-.4-4.8-.4-8.7-.1-8.7s1.6 1.2 3 2.6"/></svg>