<svg xmlns="http://www.w3.org/2000/svg" width="682.667" height="512" version="1.0" viewBox="0 0 512 384"><path d="M363 3.4c-28.5 9.9-42.6 22.7-50.4 45.9-1.8 5.3-4.6 21.4-4.6 26.4 0 2-.5 3.3-1.2 3.3-2.9 0-11.7 5-16.6 9.5-6.7 6-10.7 12-11.1 16.5-.2 1.9-.5 3.7-.7 3.9-.2.3-2.8-.3-5.8-1.2-9.3-3-12.9-2.1-16.6 3.8-3.9 6.3-6.4 19.9-4.2 23.1 2 3 5.1 3.5 9.6 1.5 2.5-1 4.7-1.7 5-1.3 1.1 1 .6 7.8-.6 9-2 2 1.4 4.7 4.1 3.3 4.2-2.3 10.1 2.8 15.4 13.4 1.4 2.7 3.4 5.9 4.6 6.9 1.8 1.7 2.4 1.8 4.5.6 1.5-.8 3.8-1 6-.6 3.1.6 3.9 1.5 7 7.3 3.3 6.1 3.6 7.7 5.2 23.2 2 20.8 1.5 64.4-1 82.1-1.6 11.1-1.8 11.5-5.2 14.4-2.2 1.7-3.1 3.1-2.5 3.6.7.4.2 1.5-1.4 3-1.4 1.3-2.5 3-2.5 3.8 0 1.6-.9 2.4-7.7 7.3l-4.3 3-2.2-2.1c-1.3-1.2-3.5-2.8-5-3.6-4-2.1-18.6-6.1-25.2-6.9-5.6-.7-5.9-.9-9-5.9-1.8-2.8-5.2-8.7-7.6-13.1-2.3-4.4-6-11-8.1-14.6l-3.8-6.6 3.2-7.4c3.1-7.2 3.2-8 3.5-23.7.3-14.1.1-16.6-1.4-18.9s-1.6-4.4-1.1-16.7c.3-7.8 1.3-21.1 2.2-29.6 1.7-15.3 1.6-22.3-.3-24.2-1.4-1.4-5 .8-7.2 4.5-1.5 2.5-2 2.8-2 1.3 0-2 0-2-1.5 0-1.4 1.9-1.4 1.9-1.5-.3 0-3.8-1.9-3.5-3 .6-.5 2.1-1.7 11.2-2.5 20.2-1.6 17-2 20.2-3.6 28.1l-1 4.7-4.1-1.5c-7.8-2.7-14.3-1.8-20.7 2.8-1.3 1-3 1.8-3.8 1.8s-2.9 1.1-4.7 2.5-4.2 2.5-5.4 2.5c-3.9 0-8.1 5.7-11.7 16.1-1.8 5-.8 7.5 3.9 9.4 4.4 1.9 5.2 3 6.6 10 4.6 22.8 9.8 39 16 49.4 2.7 4.6 5 8.5 5 8.7 0 .1 1.9 3.5 4.3 7.6 6.3 10.6 17.7 33.4 17.7 35.3 0 .8-1.2 4.4-2.7 7.8-1.4 3.4-4.7 11.7-7.4 18.4l-4.7 12.3H512V24.3l-4.5-4.2c-5.1-4.7-18.3-13.5-26.2-17.5L476.1 0l-51.8.1h-51.8zm-7.2 236.3c-.6.8-1.8 4.6-2.8 8.6l-1.6 7.2-.8-8c-.4-4.4-.9-10-1.3-12.5l-.5-4.5 4.1 3.9c3.1 3.1 3.8 4.3 2.9 5.3"/></svg>