<svg xmlns="http://www.w3.org/2000/svg" width="682.667" height="512" version="1.0" viewBox="0 0 512 384"><path d="M355.5 3.4c-26.7 10.8-38.4 22.1-45.4 44.1-1.6 4.9-3.4 13-4 17.8s-1.3 9.2-1.6 9.7-2.7 1.6-5.4 2.5c-12.5 4.1-27.2 20.1-23.1 25 1.9 2.3-1.3 3.7-4.6 2.1-1.6-.8-5.3-1.8-8.1-2.2-5-.6-5.4-.5-8.7 2.8-5.5 5.5-9.1 22.1-5.7 26.1 1.7 2.1 6 2.2 10.6.3 1.8-.8 3.6-1.2 3.9-.8 1 1 .6 6.8-.5 7.9-.7.7-.9 1.9-.5 2.8.5 1.3 1.4 1.5 5 1 4.1-.6 4.6-.5 7.7 2.8 1.8 1.9 4.9 6.5 6.8 10.2 4.2 8.1 6 9.5 9.4 7.6 1.5-.8 3.7-1 5.5-.6 2.6.5 3.6 1.8 7.1 8.8 4.4 9.2 5.1 13.2 7.2 43.2 1.2 16.8.6 52.3-1 66.4-.7 6-1 6.7-5 10.1-2.4 2.1-4.1 4.2-3.7 4.8.3.5-.1 1.6-1 2.3-.8.7-2.1 2.7-2.9 4.5-.7 1.7-3.3 4.6-5.8 6.3l-4.5 3.1-5.8-3c-5.3-2.7-16.7-5.9-26.6-7.5-3.6-.5-3.8-.8-14.3-20.5l-10.6-20 4-6.6c5.6-9.3 8.4-21.3 8.6-37.4.1-6.9.8-14.8 1.5-17.5 1.4-5.1 8.8-26.6 13.4-38.8 1.4-3.7 2.6-8.6 2.6-10.7 0-3.6-.3-4-2.5-4-2.6 0-6.4 1.7-7.7 3.5-.4.5-.8 0-.8-1.2 0-1.4-.5-2.1-1.2-1.8-1.8.7-5.8 9.1-10.8 22.5-3.9 10.4-11.7 28.8-12.7 30-.2.2-1.4-.2-2.6-1-5-3.1-11.6-6-13.7-6-1.3 0-3.8 1-5.7 2.1-2 1.2-5.6 2.6-8.1 3.1-2.5.4-5.7 1.6-7.1 2.5-1.4 1-3.4 1.6-4.5 1.4-2.3-.3-7.5 5.3-11.7 12.6-3.7 6.5-3.4 9.5 1.4 11.9 1.7.9 3.4 1.8 3.6 2s.6 3.2.8 6.6c.4 7.2 2.2 25.6 2.9 30.8 1.3 8.7 3.9 16.2 9 25.5 9.5 17.4 25.4 49.8 25.4 51.8 0 1.1-1.9 6-4.1 11.1-5.6 12.2-11.9 27.8-11.9 29.3 0 1 32.1 1.3 157 1.3h157V27.2l-5.2-4.8c-7.7-6.9-14.4-11.7-23.9-17.4l-8.4-5-55.5.1-55.5.1zm-3.7 230.9 3.2 3.3-2 9.4c-1.2 5.2-2.2 9.9-2.4 10.5-.4 1.2-2.3-10.7-3.2-19.8-.4-3.9-.2-6.7.3-6.7s2.3 1.5 4.1 3.3"/></svg>