<svg xmlns="http://www.w3.org/2000/svg" width="682.667" height="512" version="1.0" viewBox="0 0 512 384"><path d="M345.4 2.9c-15.3 6-27.3 15.2-33.8 26-4.4 7.3-9.2 21.3-10.5 31.4-.6 4.3-1.1 8.2-1.1 8.7 0 1-2.7 2.1-6.5 2.6-4.3.5-12.8 5.2-18.2 10-4.1 3.6-4.7 4.5-4.6 8 0 2.1.2 4.8.4 5.9.6 2.9-2.5 3-10.3.4-6.3-2.2-7.1-2.3-9.6-.9-4.3 2.4-8.2 9.9-9.5 17.9-1.8 11.6 1.6 15.3 10.7 11.2l4.6-2 .6 2.6c.4 1.4.2 3.4-.5 4.4-2.5 4.1-1.5 5.2 4.2 4.5 4.9-.5 5.6-.4 7.9 2.2 1.4 1.5 4.2 6 6.2 10s4.3 7.5 5.2 7.9c.8.3 2.7 0 4.2-.6 3.9-1.6 7.9 0 8.8 3.5.4 1.4 2.2 5.8 4.1 9.7 3.1 6.4 3.5 8.3 4.9 23.6 1.8 18.8 3 77.1 1.9 88.6-.6 7.2-.9 7.8-4.6 11.2-2.3 2.1-3.5 3.9-2.9 4.3.7.4.3 1.6-1 3.2-1.1 1.5-2 3-2 3.6 0 1.1-9.6 10.2-10.8 10.2-.4 0-1.2-.4-1.8-1-1.5-1.5-15.2-4.8-23.2-5.5l-7-.7-9.2-16.7c-5.1-9.1-10.6-18.7-12.1-21.3L227 261l4-6.2c5.9-9.1 11.8-31.5 10.7-40.2-.8-5.7 2.8-15.3 13.6-36.6 12.1-23.9 12.2-24.2 5.5-25.5-3.4-.6-4-.4-8 3.7-2.4 2.4-7.2 9.5-10.7 15.8-7.8 14-17 28-18.3 28-.5 0-3-1.7-5.6-3.8-8.4-7-15.3-7.9-20.2-2.7-1.3 1.4-3.3 2.5-4.5 2.5-6.7 0-16.5 7-22.1 15.8-1.9 2.9-3.4 5.7-3.4 6.2 0 2.6 2.6 6.1 5.4 7l3.1 1-.4 13.7c-.3 14.1 1 28.7 3.4 36.5 1.7 5.7 4 10.2 13.1 26 7.1 12.2 21.4 39.9 21.4 41.4 0 .4-2.2 6-4.9 12.4-2.8 6.4-6.4 15.3-8 19.8l-3 8.2H512V39.5l-3.4-5c-7-10.4-20.4-22.1-34.6-30.2L466.5 0h-57l-57 .1zm0 228.8c2.2 2.1 5.1 4.5 6.3 5.3l2.2 1.5-1.8 8c-1.5 6.9-2.1 8.2-4.5 9.3-1.5.8-2.9 1.2-3.1 1-.4-.4-4.5-25.2-4.5-27.3 0-2.2.9-1.9 5.4 2.2"/></svg>