<svg xmlns="http://www.w3.org/2000/svg" width="682.667" height="512" version="1.0" viewBox="0 0 512 384"><path d="M341.3 3.4c-4.6 1.9-10 4.4-12 5.7-16.5 10-25.9 25.2-30.1 49.2l-1.8 10.1-5.5 1.2c-8 1.7-14.6 5.1-19.5 10-4.8 4.8-5.1 5.8-2.9 11.1.8 1.9 1.5 3.7 1.5 3.8 0 .2-1.3.8-3 1.3-2.2.8-3.6.7-5.7-.3-1.5-.8-4.9-1.9-7.4-2.6-4.1-1.1-5-1-7.3.4-4.4 2.9-9.6 15.3-9.6 22.9 0 2.9.6 4.1 2.6 5.5 2.3 1.4 3.1 1.5 6.7.4 6.8-2 8.2-1.9 8.5.8.2 1.3-.1 2.8-.7 3.4s-1.1 2-1.1 3c0 1.7.5 1.9 5.3 1.3 5-.7 5.4-.5 8.4 2.6 1.7 1.8 4.4 6.3 6.1 9.9 3.2 7.1 5.2 8.7 8.4 6.5 3.6-2.5 6.9-.6 8.8 5 1 2.7 2.9 7.4 4.3 10.4 2.2 4.8 2.7 8 4.1 26.7 1.7 22 2.1 56.6.9 81.2-.6 13.2-.8 14.6-3 17.2-1.4 1.6-2.2 3.3-1.8 3.9.3.6-.3 2.3-1.4 3.9-1.2 1.6-2.1 3.3-2.1 3.9 0 .5-2.2 3-4.8 5.5l-4.9 4.5-5.4-1.8c-3-1-10.3-2.3-16.2-2.8-6-.6-11-1.2-11.1-1.4-.2-.2-3-4.8-6.3-10.3-12.8-21.2-17.7-29.1-19.4-31.3-1.8-2.3-1.8-2.5.6-7.1 5.9-11.8 6.8-16.2 7-36.6.3-17.7.5-19.7 3.3-30 1.7-6.1 4.9-16.2 7.1-22.6 2.3-6.4 4.1-12.5 4.1-13.7 0-2-2.4-3.7-4-2.7-.4.3-1-.2-1.4-1-.8-2.2-5-1.8-7.3.7-3 3.3-4.6 6.9-10.2 22.4-6.4 17.7-9.7 25.3-11.6 26-.7.3-2.9-.5-4.7-1.9-4.4-3.3-9.3-5.7-11.5-5.7-4.5 0-9.4 2.2-10.7 4.8-1.1 2.1-2.7 3.1-6.5 4.1-4.6 1.2-10.1 5.5-10.1 8 0 .4-.9 1.9-2.1 3.2s-3.4 5.1-5.1 8.3l-3 5.9 2 2.6c1 1.4 3.3 3 4.9 3.5 2.9.8 3.1 1.1 3.8 7.5 2.4 24.7 6.9 41.7 13.5 51.9 2.2 3.5 4 6.4 4 6.6s1.8 3 3.9 6.2c4.8 7.3 15.4 25.4 20.5 35.1l3.8 7.2-4.2 10.6c-4.3 11.1-9 24.5-9 25.7 0 .5 70 .8 155.5.8H512V46.6l-4.2-7c-7.6-12.8-23.8-27.4-41.1-37L461.9 0H349.5zm8 232.1 3.9 1.6-.7 5c-1.3 9.4-1.8 10.2-6.8 12.3-2.6 1.1-4.9 1.7-5.1 1.5-.6-.6-4.6-25.9-4.6-29 0-2.1.5-1.8 4.8 2.3 2.6 2.6 6.4 5.4 8.5 6.3"/></svg>