<svg xmlns="http://www.w3.org/2000/svg" width="682.667" height="512" version="1.0" viewBox="0 0 512 384"><path d="M122.4 9.1c.3 5.9 1.1 10 2.1 11.6.9 1.3 1.3 2.8 1 3.3s-.1 1.7.4 2.7 1.4 3.7 2 5.9c1.3 5.1 2.7 5.5 13.3 4.7l7.7-.6-.9 3.2c-.5 1.8-3.4 6.3-6.4 10-6 7.5-9.6 13.6-9.6 16.4 0 3.3 2.9 7.5 5.7 8.3 2.6.7 4.7 1.1 9.6 1.6 1 .1 2 1.3 2.2 2.8.3 1.4 1.2 5.6 2.1 9.4s2 11.7 2.5 17.5c.8 10.5 2.4 23.9 3.6 29.6l.6 3 1.2-4 1.3-4 .1 5.2c.1 4.3-.3 5.5-2.1 6.7-2 1.4-2.1 1.9-1.1 5.3.5 2.1 1.4 4.7 1.8 5.7.6 1.4.5 1.7-.3 1.2-.7-.4-1.2-.1-1.2.8s-2.6 2.9-6 4.6c-7 3.5-13.5 9-15.7 13.4-1.1 2.2-1.8 7.7-2.4 19.1-.4 8.8-1.1 18.6-1.5 21.8-.7 6.2-.6 6.1-9 7-4.9.6-9.3 2.5-10.7 4.8-1.1 1.8 0 4.2 5.8 12.4 2.9 4.1 3.9 6.6 3.9 9.3 0 5.5-6.1 39.1-7.4 40.7-1.7 2.2-41 79-41 80.1 0 .5 2.3 2.7 5.1 4.9 4.5 3.6 5 4.4 4.7 7.3l-.4 3.2h269.9l-.5-6.2c-.4-4.3-1.9-9.7-4.8-16.6l-4.3-10.3 3.2-9.7 3.2-9.8-5-10c-8.9-18.2-20.6-45.4-30.6-71.4-1.8-4.7-4.3-10.7-5.4-13.4-2.2-4.9-2.2-5-.3-7.5 4.9-6.8 5.6-16.2 1.6-21.1-3-3.5-8.2-6-12.5-6-3.9 0-6.3-4-8.4-13.9-2.5-11.7-4.4-16.8-8-21.5-3.1-4.1-3.2-4.6-2.7-11.4.4-6.3.7-7.2 2.4-7.2s1.9-.4 1.3-2.8c-.4-1.5-1.5-10.4-2.4-19.8-1.1-11.5-2-16.9-2.7-16.7-1.2.4-2.4-4-2.4-8.9 0-1.8 1.5-4.8 3.9-8.1 5.9-8 7.6-13.5 7.6-25-.1-8.4.1-9.7 1.5-9.1 2.8 1.1 7.5 1.5 8.5.7 1.6-1.2 6.7-9.3 9.4-14.9 1.4-2.7 3.2-6.5 4.2-8.4.9-1.9 2-4.9 2.4-6.7.3-1.7 1.2-3.7 2-4.3 1.2-1 3.1-7.5 2.7-9.3-.1-.4.2-.7.6-.7.5 0 1.7-1.9 2.7-4.3.9-2.3 2.4-5.4 3.2-7l1.4-2.7H121.9zm44 247.9c.1 2.7-.2 4.4-.6 3.7-.9-1.4-1.1-10.3-.2-9.4.4.4.7 2.9.8 5.7m1.6 10c0 .5-.4 1-1 1-.5 0-1-.5-1-1 0-.6.5-1 1-1 .6 0 1 .4 1 1m0 7.4c0 .8-.4 1.8-1 2.1-.5.3-1-.3-1-1.4 0-1.2.5-2.1 1-2.1.6 0 1 .6 1 1.4m0 33.1c.5.6.5 1.7 0 2.5s-.6 3-.3 4.9c.3 2 .5 4.5.5 5.6-.4 13.6-.9 18.4-1.8 19.6-.7.8-2.4 3.2-3.9 5.4l-2.7 4 .6-3.5c1.1-6.4 4.6-34.8 5.3-43.7l.8-8.8.3 6.5c.2 3.5.7 6.9 1.2 7.5"/></svg>