<svg xmlns="http://www.w3.org/2000/svg" width="682.667" height="512" version="1.0" viewBox="0 0 512 384"><path d="M367.5.9c-1.6.5-5.5 1.4-8.5 2.1-38.3 8.7-53.9 23.5-60.7 57.5-1 4.9-2.2 9.3-2.8 9.7-.5.4-2 .5-3.2.2-2.9-.8-12.6 2.1-17.4 5.2-7.2 4.5-7.9 7.7-3.5 16.2L273 95l-3.3 1.4c-6.5 2.7-7.3 2.7-12.8.1-6.7-3.1-9.9-3.2-12.7-.2-5.3 5.7-8.7 19.8-5.8 24.2 2 3 6.7 3.3 12.3 1 4.4-1.8 6.5-.7 4.5 2.5-2.9 4.6-.7 6.4 5.7 4.8 5.3-1.3 6.5-.4 10.6 8.7 4 8.7 5.8 10.5 8.3 8.1 2.3-2 6.2-2.1 6.2-.1 0 .8.4 1.5.9 1.5s1.2 1.9 1.6 4.2c.4 2.4 1.8 7 3.1 10.4 2.2 5.5 2.4 7.5 2.4 22 0 19.3-3.1 60.4-6.5 84.9-3.1 22.8-6.2 42.1-6.9 43.4-.4.6-1.9.6-4.1 0-4.8-1.3-13.5-1.6-22.2-.6l-7.1.8-15.8-20.8c-8.6-11.4-17.2-22.4-18.9-24.3-3.2-3.4-3.2-3.7-2.5-9 1.6-10.5 1.1-18.1-1.9-29.6-3.7-13.8-5.4-17.9-8.1-19.6-2.4-1.4-7.8-12.3-14.1-28.3-2.2-5.5-4.4-10.8-4.9-11.7-.6-1-1-2.6-1-3.6s-1.1-4.2-2.6-7.1c-2.4-5.1-2.6-5.3-5.9-4.7-1.9.4-3.6.2-4-.4-1.1-1.7-4.4-1.1-5.6 1.1-1.5 2.9-.3 9.9 2.8 17.4 4.2 9.8 11.3 30.8 11.3 33.4 0 1.8-.4 2.2-1.7 1.6-1-.5-3.9-1.3-6.6-1.8-4.1-1-5.3-.8-9.1 1-3.9 1.9-4.5 2.7-5.1 6.2-.6 3.4-1.3 4.4-4.1 5.7-3.6 1.7-7.4 5.8-7.4 7.9 0 .7-1.1 3.5-2.4 6.2-1.4 2.6-2.8 7.3-3.1 10.3-.6 4.8-.4 5.9 1.6 8.4 1.9 2.5 2.7 2.7 6.1 2.2 2.5-.4 3.8-.2 3.8.5 0 1.6 10 21.4 15.6 30.8 2.7 4.6 8 12.2 11.8 17 12.1 15 22 28.2 30.6 40.8l8.3 12.2-3.6 12.3c-2 6.8-3.9 13.5-4.3 15l-.6 2.8H512v-3.2c0-1.8-2-11.2-4.5-21l-4.5-17.7 1-20.3c.5-11.2 2.1-34.9 3.4-52.8 5.1-66.9 5.6-92.6 2.5-119.5-2.7-23-2.7-25.8-.1-32.5 1.9-5 2.1-7.5 2.2-27.7 0-12.2-.4-22.4-.9-22.7s-1.2-1.8-1.6-3.3c-1.1-4.6-5.6-13.5-10.5-20.8-11.2-16.6-33.7-32.7-56.7-40.4-5.8-2-8.3-2.1-39-2-18 0-34.1.4-35.8.8m-29.3 232.3c2.1 2.1 5.1 4.1 6.6 4.4 4.6 1.1 5.2 2.2 5.2 9.5 0 6.6-.1 7-2.7 8.1-4.4 1.7-12.6 5.9-15.5 8-1.4 1-2.8 1.8-3.1 1.8-.2 0-.7-5.7-1.1-12.8-.3-7-.9-17.2-1.2-22.7l-.6-10 4.3 5c2.4 2.7 6 6.7 8.1 8.7"/></svg>