<svg xmlns="http://www.w3.org/2000/svg" width="682.667" height="512" version="1.0" viewBox="0 0 512 384"><path d="M342.4 3.9c-21 14.1-30.4 31.7-32.1 59.9l-.6 11.3L304 79c-5.5 3.7-12 10.7-12 12.8 0 .5-4.1 3.5-9 6.6-8.9 5.5-9.1 5.6-13.3 4.5-2.4-.6-6.1-.9-8.2-.7-3.7.3-4.1.6-5.7 4.8-1.9 5.1-2.3 16.4-.7 20.7 1.9 5.1 5.2 5.6 12.5 1.7l4.8-2.6 1.9 2.3c1.4 1.7 1.7 3.2 1.2 5.7l-.6 3.5 3.3-.8c1.8-.4 4.2-.9 5.3-1.2 2.5-.6 8.1 5.4 12.9 13.7 3.2 5.6 4.2 6.1 9.4 4.5 1.5-.5 2.2-.3 2.2.6 0 .8 1 3.2 2.3 5.4 2.2 3.9 2.2 4.7 2.2 36 0 34.7-.6 40-6.5 64.6-4.4 18.1-13.4 43.6-16.6 46.9-1.1 1.1-4 1.5-11.7 1.6-5.6 0-11.8.4-13.8.8-3.6.8-3.7.7-7.5-5.2-5.7-8.7-19.6-29.1-25.4-37.2-2.7-3.9-5-7.2-5-7.5 0-.2 1.8-3.2 3.9-6.5 4.7-7.2 6.6-12.5 8.6-24 1.8-10.3 1.9-16.4.3-19-1.7-2.6.3-10.1 7.8-29.7 10.5-27.4 11.3-30.3 10.2-32.9-1-2.2-1.5-2.4-6.2-1.8-2.8.4-5.7 1.1-6.3 1.6-1.5 1.2-5.2 8.9-9.4 19.6-3.6 8.9-13.8 30-14.8 30.6-.4.3-2.7-.8-5.1-2.4-2.5-1.6-5.6-3.2-7.1-3.5-2.8-.6-10.9 2.1-10.9 3.6 0 .5-1.9.9-4.3.9-2.3 0-5.8.8-7.7 1.9-2.1 1.1-4.7 1.7-6.5 1.4-4.3-.6-7.5 2.3-11.7 10.4-4.1 8.1-3.9 10.5.8 12.8l3.4 1.6v13.2c0 15.1 1.9 29.8 5 37.9 1.1 3.1 4.7 9.3 8 13.9 13.4 19 24.2 35.2 32.9 49.7l9.3 15.4-5.1 13.4c-2.8 7.3-5.1 13.8-5.1 14.4 0 .7 47.4 1 148 1h148V12.1l-7.4-6-7.4-6.1h-149zM363 229.5c3.6 2.5 3.7 2.8 3.3 7.3-.3 2.6-1.3 9.3-2.3 14.9-1.7 9.2-2.1 10.5-5.2 13.2-3.5 3.2-6 3.7-10.2 2.1-2.3-.8-2.6-1.5-2.6-5.4 0-2.5.4-4.7.8-5 .5-.3.7-10 .4-21.6l-.5-21.1 6.2 6.5c3.5 3.5 8 7.6 10.1 9.1"/></svg>