<svg xmlns="http://www.w3.org/2000/svg" width="682.667" height="512" version="1.0" viewBox="0 0 512 384"><path d="M339.5 5.3c-3.6 2.9-9 8.6-12 12.7s-6.1 8.2-6.9 9c-.7.8-1.6 3.1-1.9 5-.4 1.9-1.4 6-2.2 9-.9 3-2.1 11.2-2.7 18.2-1.1 12.3-1.3 12.9-4.2 15.7-1.7 1.6-8.3 5.2-14.6 8.1s-13.6 6.5-16.2 8.2l-4.7 2.9-5.7-1.7-5.6-1.8-2.2 2.5c-3 3.5-4.9 13-4.4 22.2.5 11.5 3.5 13.6 14 9.9l5-1.7 1.9 2.4c1.4 1.8 1.9 3.7 1.7 6.5-.2 3.8 0 4.1 2.2 4 1.4 0 3.7-.4 5.1-.8 3.7-1 7.8 2.7 12.2 11.2 4.6 8.7 5.9 9.9 9.3 8.3 4.8-2.2 5.9-1.5 8.8 5.6l2.8 6.8.6 30c.6 39-1.3 58.3-8.9 89.9l-3.2 12.8-8.1 6.4-8 6.4h-7.7c-4.2 0-9 .3-10.7.6-3.4.7-1.6 2.9-18.2-23-4.1-6.4-10.7-16.6-14.7-22.7l-7.1-11 3.4-5.2c4.8-7.3 6.9-13.4 8.9-26.9 1.6-10.2 1.7-12.4.5-17.2-1.2-4.9-1.1-6.1.5-10.3 3.3-8.9 11.3-28.7 14.9-36.8 4.8-10.8 4.7-12.8-.4-14.5-6.4-2.1-8.1-.2-18.5 20.5-9.5 18.7-14.1 27.4-15.5 28.9-.5.5-2.7-.7-5.1-2.7-5.6-4.8-12.7-7.2-16.3-5.5-1.5.6-3.4 2.5-4.2 4-1.2 2.4-2.1 2.8-5.7 2.8-4.1 0-5.1.5-13 6-4.2 2.9-10.7 13.3-10.7 17.1 0 3 1.6 4.7 5.7 5.8 1.5.5 2.7 1.4 2.5 2.1-.6 2.8 2 31.2 3.7 39.7 2.3 11 4.1 14.8 16.3 33.4 8.3 12.7 17.9 28.9 30.2 51.2 2.4 4.3 3.6 7.7 3.3 9-.3 1.2-2.8 7.2-5.6 13.4s-5.1 11.5-5.1 11.8 65 .5 144.5.5H512V0H346.1zm31.4 220.2 4.3 2.9-.6 6.5c-.3 3.5-1.3 7.4-2.1 8.7-.9 1.4-2.5 7-3.6 12.7-2.1 10.5-3.4 12.7-7.5 12.7-2.9 0-3.2-1.4-3.9-24-.3-10.2-.8-21.7-1.1-25.5l-.6-7 5.3 5.1c3 2.8 7.4 6.3 9.8 7.9"/></svg>