<svg xmlns="http://www.w3.org/2000/svg" width="682.667" height="512" version="1.0" viewBox="0 0 512 384"><path d="M343.4 5.3c-6.8 5.8-10.5 9.9-15.2 16.8-1.7 2.6-3.9 4.9-4.8 5.3-1.1.4-1.4 1.3-1 2.9.3 1.2-.3 5-1.3 8.3-1.1 3.3-2.4 10.4-3.1 15.9-1 8.8-1.6 10.4-4.8 15.1-3.5 5-4.4 5.5-16.1 10.5-6.7 2.9-13.9 6.6-15.9 8.2-2.7 2.1-4.3 2.7-6.2 2.2-1.4-.3-4.4-.8-6.7-1.2l-4.3-.6-2.2 4.9c-2 4.2-2.3 6.6-2.3 17.2 0 12 .1 12.4 2.5 14.4 1.9 1.5 3.3 1.9 6.2 1.4 12.6-2 11.5-2.1 13.3 1.4.9 1.8 1.5 4.8 1.3 6.8-.3 3.4-.1 3.7 2.2 3.6 1.4 0 3.8-.4 5.3-.9 2.4-.6 3.3-.2 6.6 3.2 2 2.2 4.8 6.2 6 8.9 3.7 7.9 4.7 8.6 10.7 7.8l5.2-.6 2.4 5.4c2.2 4.6 2.7 7.9 3.7 23.3 2.2 34.3 1.1 61.3-3.5 89.2-3.6 22.2-3.2 21.4-15.8 30l-10.7 7.3-10.7.4c-5.9.2-12.3.7-14.3 1.1-4.2.8-1.3 4.1-30.4-34.9-11.5-15.4-15.5-21.5-15.2-23 .3-1.2 1.7-5.3 3.1-9.1 2.3-6.4 2.6-8.4 2.6-22.3 0-11.6-.4-16.2-1.6-19-1.1-2.7-1.4-5.4-.9-9.7.8-7.8 3.9-24.3 7-37.1 1.4-5.6 2.5-10.6 2.5-11 0-1.2-7.3-1.1-8.2.1-.4.5-.8-.2-.8-1.6 0-4.1-2.4-5.5-5.6-3.4-3.5 2.2-5 6.2-9.5 24.6-3.4 13.9-7.1 26.5-8.3 27.6-.2.2-2.6-1-5.2-2.7-4.5-2.8-5.3-3-10.9-2.4-7.6.8-9.1 1.7-11.3 6.2-1.4 3-2.4 3.8-5.8 4.5-2.3.4-4.9 1.5-5.8 2.5-4.3 4.5-11.2 16.9-12.3 22.4-.8 3.9 1.8 7.4 6.1 8.2 2.6.5 3.7 1.3 4 2.9.3 1.2 1.4 6.7 2.6 12.3 2.4 11.8 7.1 26.8 10.6 33.7 1.3 2.7 6.6 10.1 11.7 16.5 14 17.5 23.3 30.1 35.4 47.8l10.9 16-3.8 10.5c-2.1 5.7-3.8 10.5-3.8 10.6 0 .2 64.1.3 142.5.3H512V0H349.5zm33 220.6 5.8 4.3-.7 7.1c-.5 4.5-1.4 8.1-2.6 9.7-1.1 1.4-2.2 3.6-2.4 5-.3 1.4-1 4.7-1.5 7.5-1.9 9.2-2.9 11.5-5.5 11.5-2.9 0-3-.5-4.5-27.5-.6-10.5-1.3-21.2-1.7-24l-.6-5 4 3.6c2.2 2 6.5 5.5 9.7 7.8"/></svg>