<svg xmlns="http://www.w3.org/2000/svg" width="682.667" height="512" version="1.0" viewBox="0 0 512 384"><path d="M365.4 5.2c-2.7 2.9-6.7 7.7-8.8 10.6s-5.1 5.9-6.7 6.8c-3 1.5-3.6 3.3-1.9 5 .8.8.3 3.3-1.4 8.5-1.3 4.1-2.7 10.2-3.1 13.6-.7 6-.9 6.5-5.7 10.4-2.9 2.5-6 6.4-7.6 9.5-2.7 5.3-2.9 5.5-14.7 10.9-6.5 3-13.3 6.9-15.1 8.6-3.1 3-3.5 3.1-9.1 2.5-3.2-.4-6.3-.3-6.8.1-3.4 2.5-5.7 24.5-3.6 34.6 1.2 5.3 1.6 5.9 5.4 7.9 3.8 1.9 4.7 2 9.8.9 3.1-.6 6.4-.9 7.2-.5 2.3.8 4.9 7 4.5 10.6-.4 4.3 1.8 5.6 7.4 4.1 4.2-1.1 4.4-1.1 7.6 2 1.8 1.8 4.9 6.2 6.8 9.9 3.9 7.2 7.2 9.5 12.1 8.4 1.6-.4 3.5-.8 4.3-.9 3-.4 6 8.6 7 21.6 3.3 39.8 3.8 58.9 2 81.6-1.3 17.2-1.6 18.4-5.1 20.3-1.7 1-2.7 2.3-2.4 3 .3.8-.6 2.4-2 3.6s-2.5 2.8-2.5 3.6-3.9 3.4-8.7 5.9c-4.9 2.4-12.7 6.7-17.4 9.4l-8.6 5-4.3-2.5c-6-3.6-13.7-3.3-25.4.8l-8.9 3.2-29.6-29.4-29.6-29.3-.8-12.9c-.6-10.3-1.3-14.7-3.8-22-4.2-12.8-10.4-25.3-12.9-26.1-1.1-.4-3.5-3-5.3-5.8-4.1-6.3-18.5-33.5-21.2-39.7-1-2.5-3-6.4-4.4-8.7-2.5-4.1-2.8-4.2-7.9-4.3-4.6 0-5.4.3-6.4 2.5-1.6 3.5-.1 7.8 8.9 26.3 6.8 14 13.9 31.2 12.8 31.2-.2 0-3-.7-6.2-1.5-9.4-2.5-12.9-2.1-17 2-2.9 2.9-3.4 4.1-3.1 6.9.3 3.1.1 3.5-3.5 5.1-4.3 1.9-7.7 6.6-7.7 10.6 0 1.5-.7 4.4-1.6 6.4-.8 2.1-1.6 7.1-1.7 11-.2 6 .1 7.7 1.8 9.5s2.8 2.1 6.7 1.8c3.7-.4 4.8-.1 5.3 1.1 1 2.5 10 17.4 18.2 30.1 6.2 9.5 10.9 15 27.7 32 21.4 21.7 30 31.1 46.7 50.7l10.4 12.3H512V0H370.4zm35.9 224.9c1.2 1.2 4.7 4 7.7 6.2s5.8 4.5 6.2 5.1c1.9 2.8-.2 30.4-2.6 34.1-.9 1.4-1 2.8-.3 4.9s.6 3-.4 3.7c-1.8 1.2-7.6 1.1-8.3 0-.4-.5-1.5-9.6-2.5-20.3-2.9-28.7-3.4-35.8-2.7-35.8.4 0 1.7.9 2.9 2.1"/></svg>