<svg xmlns="http://www.w3.org/2000/svg" width="682.667" height="512" version="1.0" viewBox="0 0 512 384"><path d="M426.4 4.2c-.4 2.4-.8 11.7-.9 20.6l-.1 16.4-3.9 3.2c-2.2 1.8-10.3 7.7-18 13.1s-16 11.4-18.4 13.4l-4.4 3.6-10.1-.3-10.1-.3-3.9 3.7c-6.5 6.2-9.6 19.8-7.6 33.6 2.5 17.1 5.6 19.4 18.4 14.1 7.6-3.1 8.7-2.6 11.7 4.5 1.8 4.2 1.9 5.6.4 11.4-.8 3.2-.3 3.3 5.2 1.4 3.3-1.1 4.4-1.2 7-.1 4.7 2 14.5 12.4 18.3 19.3 4.2 7.6 6.3 8.9 12.4 7.3 7-1.7 13-1.4 15 .8 2.4 2.6 3.2 6.6 5.6 27.6 1.1 9.9 2.5 20.9 3 24.5 2 12.3 3.4 55.6 2.4 72.3l-.9 15.9-11 5.6c-6 3-11.2 5.7-11.4 5.8-.2.2.1 1 .8 1.8 1 1.1.5 1.8-2.6 3.7-2.1 1.3-5.7 4.2-8 6.5-2.3 2.2-6.4 4.9-9 5.9s-11.7 5-20 9.1l-15.3 7.3-7.2-2.6c-8.8-3-14-2.8-27.6 1.3l-9.3 2.8-2.2-2.5c-1.2-1.3-6.7-7.6-12.2-14-12.2-14.1-42.7-48.7-48.4-54.9-2.2-2.5-4.1-4.8-4.1-5.3 0-.4 1.8-4.4 4.1-8.9 5.5-10.9 7-19 7.1-37.8.2-19.7-.5-23.2-4.7-27.3-3.1-3-3.4-3.9-4.4-12.7-1.3-12.7-2-24.7-3.1-54-1-26.9-2.3-34.4-6.3-36-1.8-.7-2.8-.2-5.4 2.6-1.8 1.8-3.3 4.2-3.3 5.3 0 2.5-2.6 4.7-3.3 2.9-.4-1-1.1-.7-2.4.8-1.9 2.1-2.5 2.4-4.6 2.4-1.2 0-1.4 6.4-1.3 35.9.1 19.8-.1 36.1-.4 36.4s-3.5-.2-7.2-1c-6.4-1.4-7.1-1.4-13.6.6-4 1.2-7.8 3.1-9.2 4.6-1.3 1.4-3.3 2.5-4.4 2.5-2.2 0-11 4.2-13.7 6.6-.8.8-3.3 1.4-5.5 1.4-6.5 0-10.5 4.7-14.7 17.4-4.1 12.4-3.9 15.2 1.4 17.8 1.8 1 4.6 1.8 6 1.8 2.6 0 2.8.3 4.4 9.2 2.2 12.6 8.8 37.8 12 46.1 5.1 13.6 8 18.2 19.9 31.2 14.2 15.5 25 28.1 35.9 41.7l10.9 13.8H512v-49.3c0-46.9-.1-50.1-2.5-67.6-1.4-10.1-2.5-20.6-2.5-23.4 0-5 0-5 1.9-2.9 1 1.2 2.1 2.2 2.5 2.2.3 0 .6-54.7.6-121.5V0h-84.7z"/></svg>