<svg xmlns="http://www.w3.org/2000/svg" width="682.667" height="512" version="1.0" viewBox="0 0 512 384"><path d="M446.4 2.5c-.3 1.4-.4 6.2 0 10.5l.6 8-5.1 4c-2.8 2.2-10.5 7.7-17.1 12.2-6.5 4.5-14.7 10.8-18.2 14l-6.4 5.8-5.8-1.5c-11.4-3-16.1-1.7-22.1 6-5.7 7.4-7.8 15.4-7.7 29.5.2 23.9 5 29.4 19.6 22.4l5.8-2.8 2.4 2.3c3.5 3.3 5.2 10.2 3.7 15.2-.7 2.3-1 4.4-.7 4.7.4.3 2.9 0 5.6-.7 4.7-1.2 5.2-1.1 9.4 1.3 5.5 3.2 13.3 11.8 16.5 18 2.9 5.5 6.7 9.6 9 9.6.9 0 3.2-.5 5.1-1 4.6-1.4 11.2-1.4 15.3-.1 4.7 1.6 7 6.1 8.4 16.6 5 37.8 6.5 51.4 7.8 68 1.5 19.3 1.8 53.7.7 63.2l-.7 5.3-14.5 7.1c-12.9 6.4-14.2 7.3-12.6 8.4 1.6 1.3 1.4 1.6-2.5 4.1-2.4 1.5-6.2 4.7-8.4 7.1-2.2 2.3-4.3 4.3-4.7 4.3s-3.5 1.3-7 2.9-8.5 3.9-11.3 5.1c-2.7 1.2-9.4 4.4-14.8 7.1L387 364l-5.3-2.1c-7.1-2.8-14.9-2.6-28 .7l-10.7 2.8-2.8-3c-1.5-1.6-6.8-7.9-11.6-13.9-4.9-6.1-9.4-11.5-10-12-.7-.6-4.5-5.1-8.6-10-4.1-5-10.4-12.4-14-16.5-11.6-13.2-21-24.9-21-25.9 0-.5 1.7-3.6 3.9-6.8 7.5-11.4 10-18.8 13.1-39.2 3.1-21 2.7-26.7-2.7-32.3l-2.6-2.7 1.2-10.3c1.7-14.3 6.5-39.5 10.7-56.8 4.4-17.9 5.4-29.8 3-33.5-2.3-3.5-5.2-3.1-9.7 1.4-2.2 2.1-3.9 3.4-3.9 2.9 0-.6-1.3-.7-3.1-.3-1.7.4-3.8.8-4.6.9-2.8.4-5 6.6-8.2 22.6-4.6 22.4-8 36.5-11.7 48-1.5 4.7-2.7 8.8-2.6 9.2.3 1.2-.4 1-6.8-2.4-7.6-3.9-13.3-4.2-21.2-1-3.1 1.3-5.9 3-6.2 3.8-.4.9-2.1 1.4-5.3 1.4-3.5 0-6.5 1-11.3 3.5-6.6 3.6-9.4 4.3-10.5 2.5-2.6-4.3-11.2 3.9-16.9 16.1-4.9 10.8-5.3 12.2-4.3 16.1.8 3 5.1 5.8 9 5.8 2.9 0 3.3 1.4 3.6 13.2.3 10.9 3.7 35 6.6 46.3 5 19.6 7.8 24.1 28.8 47.8 8.3 9.4 24.2 28.8 30.1 37l5 6.7H512V0h-65z"/></svg>