<svg xmlns="http://www.w3.org/2000/svg" width="682.667" height="512" version="1.0" viewBox="0 0 512 384"><path d="M416.2 1.7c-3.2 1.8-10 12.5-13.6 21.3-4.3 10.8-6.1 35.5-3.6 49.1 1.4 7.5 5.5 11.3 11.6 10.6 2.3-.2 6.7-1.5 9.8-2.7 5.2-2.2 5.7-2.2 7.4-.7 1 .9 2.6 4.2 3.6 7.2 1.8 5.9 1.5 10.2-1.1 14.2-.9 1.3-1.1 2.8-.6 3.6.7 1.3 1.6 1.2 6.6-.4 5.1-1.6 6.2-1.7 8.5-.5 5.9 3.1 17.1 15.6 20 22.3 1.6 3.8 4.6 7.9 7 9.7 2.4 1.9 2.6 1.9 7.8.1 5.9-2 13.7-1.7 20.9.9 2.2.8 5.7 1.7 7.8 2.1l3.7.7V0h-34c-28.3 0-34 .2-34.7 1.4-.7 1.3-1.7 1.3-7.3.1-9-2-15.9-1.9-19.8.2M358.5 96c-7.6 3.7-10.1 7.2-30.7 42-9.4 16-24.6 39.2-27.6 42.2-.6.6-3.8-1.9-8.8-6.8-10.2-10.1-12.5-11.4-19.7-11.4-6.9 0-9.6 1.5-13.4 7.5-2.6 4.1-2.8 4.3-5.3 3-5-2.5-8.5-2.7-14.2-.5-3 1.1-6.7 3.3-8.2 4.9-2.3 2.4-3.4 2.8-6 2.4-2.2-.3-3.9.1-5.7 1.6-3.4 2.6-13.1 15.4-15.9 20.8-1.9 3.7-2 4.7-1 7.8 1.3 3.9 5.9 7.9 10.3 8.9 2.4.6 2.8 1.1 2.4 2.9-3.7 15.8-3.4 59.6.6 76.7 4.5 18.9 7.8 25.1 24.7 45.5 5 6 14.1 17.6 20.2 25.8l11.1 14.7h107.9l-2.8-3.7c-1.6-2.1-5.6-7.2-8.9-11.5-3.3-4.2-8.2-10.5-11-14-17-21.6-41.6-52.4-47.1-59.1-3.6-4.2-6.3-8.1-5.9-8.6.3-.5 3.5-4.9 7-9.7 10.6-14.2 14.8-25 20-51.4 3.3-17 3.3-22.4 0-27.2L328 195l4.4-11.3c4.6-11.5 19.5-42.7 30.6-63.8 10.9-20.7 9-30.6-4.5-23.9M502 331.6c-12.9 7-13.3 7.3-12 8.9 1 1.2.3 2-3.2 4.2-7.7 5-11 7.8-11.9 10.1-.5 1.3-2.7 3-5.1 4.1-9 3.8-14.8 6.6-30.6 14.3l-16.3 8-6-1.2c-7.1-1.5-17.1-.8-27.9 1.9l-7.5 1.9 65.3.1 65.2.1v-28.5c0-15.7-.3-28.5-.7-28.5-.5 0-4.6 2.1-9.3 4.6"/></svg>