<svg xmlns="http://www.w3.org/2000/svg" width="682.667" height="512" version="1.0" viewBox="0 0 512 384"><path d="M456.7 3.7c.8 5.8 3.9 11.7 7.3 13.6 2.4 1.4 4.2 1.7 9.2 1.2 3.4-.4 7-1.1 8-1.6.9-.5 3-.9 4.7-.9 3.6 0 6.2 3.8 8.4 12.3 2.4 9.3 1.8 15.5-2 20.4-5.7 7.1-3.9 8.8 6 5.8 4.9-1.5 4.9-1.4 9.3 1.6l4.4 3V0h-55.9zM263.6 70.9c-5.2 5.4-5.6 9.1-5.6 48 0 33.8-1.3 62.6-3 64.4-.4.5-5.7-1.8-11.8-5.1-16.3-8.8-19.9-9.3-30-4.7-9.5 4.4-9.8 4.9-12.8 20.2-.3 1.5-1.2 2.3-2.5 2.3-5.4 0-16.9 7.7-20.6 13.7-1.2 2-2.4 6.3-2.8 9.7-.4 3.3-1.5 7.2-2.5 8.6-2.4 3.4-5.4 12.6-7.5 22.8-1.7 8.3-1.7 8.3.7 13 3.3 6.7 8.8 8.8 19.1 7 1.5-.2 2.8 2.2 7.1 14.2 12.6 34.4 26.6 64.6 35.4 76.5 2.5 3.3 8.1 9.7 12.6 14.2l8.1 8.3h68.3c41.7 0 68.2-.4 68-.9-.1-.5-6.8-7.6-14.7-15.8-8-8.1-21.4-22-30-30.8-8.5-8.8-18.6-19.2-22.4-23.1l-6.8-7.1.9-4.9c.6-2.7 2.2-10.5 3.5-17.4 1.4-6.9 2.8-15.9 3.2-20 1-10.9-1.5-28-7.6-52.5-3.9-15.7-6.9-22.2-11.9-25.9-4.7-3.5-4.7-3.5-6.1-14.9-2.1-18.7-3-31.9-3.9-60.7-1.2-36-1.9-38.9-9.5-39-1.6 0-3.9-.7-4.9-1.5-3.1-2.4-6.9-1.8-10 1.4"/></svg>