<svg xmlns="http://www.w3.org/2000/svg" width="682.667" height="512" version="1.0" viewBox="0 0 512 384"><path d="M176 76c-4.2 4.2-2 19.6 4.6 31.7 16.1 29.5 39.4 79.3 39.4 84.2 0 .8-.6 1.1-1.6.7-.9-.3-2.8-.9-4.2-1.2-1.5-.3-4.5-1.2-6.7-1.9-6.3-2-16.6-2.8-21-1.6-6.6 1.8-14.7 7.2-17.3 11.6-2 3.4-2.2 5-1.9 11.3l.4 7.2-4.5 2c-6 2.7-12.7 8.3-16 13.4-2 3.1-2.8 6-3.3 12.1-.4 4.4-1.5 10.9-2.4 14.5-.9 3.7-1.7 11.5-1.8 18-.2 13 .9 16.6 6.6 20 3.8 2.4 12 2.6 15.7.5 4.3-2.5 5.3-1.8 9.9 6.6 10.7 20 39.4 62.6 50.9 75.7l2.9 3.2 76.3-.2 76.3-.3-29.3-27c-16.1-14.9-32.2-29.7-35.7-32.9l-6.4-5.9.7-22.6c.5-16.3.3-24.7-.6-30.1-2.2-13.6-12.3-40.8-22.1-60.2-5.5-10.8-10.5-16-16.9-17.9-2.6-.8-5.1-2.5-6.5-4.3-3-4.1-19.5-31.8-22.8-38.2-1.4-2.8-5-9.1-8-14-4.7-7.8-16.7-31.2-18.1-35.4-1.7-4.9-11.9-19.2-14.3-20.1-.9-.3-3.9-.2-6.6.2-2.9.5-5.7.4-6.8-.1-2.9-1.6-6.8-1.1-8.9 1"/></svg>