<svg xmlns="http://www.w3.org/2000/svg" width="682.667" height="512" version="1.0" viewBox="0 0 512 384"><path d="M119.5 89.7c-5 .7-6.8 3.1-6.1 8.1 1.1 8.3 8.8 19.2 21.8 31 21.9 20 50.5 50.5 60.5 64.4l3.2 4.5-13.2-.5c-15.4-.5-21.9.8-28 5.9-5.8 4.8-8 10-7.4 17.6l.5 6.2-5.3 3c-9 5.1-15.4 14-17.4 24.2-2.8 13.8-3.3 19.2-2.9 31.4.4 14.2 1.5 17.7 6.5 21.1 2.7 1.8 4.5 2 23.2 2.6 3 .1 3.8.9 9.1 9 10.5 15.8 37.5 50.5 46.3 59.5l6.1 6.3h154.1l-3-3c-1.7-1.6-9.1-8.2-16.6-14.7-25.1-21.6-52.7-46.2-53.5-47.5-.5-.7-.7-7.2-.6-14.5.5-30.4-2.1-42.2-16.3-72-14.9-31.2-24.2-42.3-35.5-42.3-.9 0-4.2-2.7-7.5-6.1-3.3-3.3-9.6-9.1-14-12.7-4.4-3.7-13.1-11.2-19.4-16.7s-16-13.9-21.7-18.6c-5.6-4.7-15.6-13.6-22.1-19.7-13.6-12.7-19.4-17.4-27.8-22.4-6.7-4.1-8.7-4.7-13-4.1"/></svg>