<svg xmlns="http://www.w3.org/2000/svg" width="682.667" height="512" version="1.0" viewBox="0 0 512 384"><path d="M306.4 33.3c-1.6 1.9-3.5 4.3-4.2 5.3-1 1.5-2.2 1.9-4.8 1.6-2.1-.3-3.4 0-3.4.7 0 .6-1.7 1.1-3.8 1.1h-3.8l-1.3 6.1c-1.1 4.9-1.2 10.1-.5 24.8 1.1 23.2 1.2 84 .1 94.2l-.8 7.6-4-1.8c-6.2-3-15.7-5.2-19.8-4.4-9.9 1.8-17.6 4.8-20.8 8.2-1.8 1.9-3.3 4.3-3.3 5.4 0 1.7-.7 1.9-5.8 1.9-7.2 0-17.6 4.8-24 10.9l-4.2 4.2-6-1.3-5.9-1.2-5.1 5.2c-4.8 5-5.4 6.2-10.1 20.5-5.8 17.7-6.7 22.4-4.9 26.7 2.1 5.2 6.5 7.5 14 7.5h6.6l1.7 10.5c1.8 11 6.7 31.1 11.2 46.5 9.9 33.4 18.5 51.3 31.4 64.8l5.5 5.7h154.1l-32.2-32.1c-17.8-17.6-32.3-32.5-32.3-33.1 0-.5 1.4-3.5 3.1-6.6 9-16.3 11-20.3 12.8-27.2 3.1-11.5 4.1-22.5 4.1-45 0-21.6-1-31.2-3.8-37-.9-1.9-4.7-5.9-8.3-8.8l-6.6-5.2-1.2-10.8c-2.4-20.8-3-33.2-4.1-77.2-1.1-44.6-1.7-53.4-4.6-62.3-3-9.2-9.7-11.6-15-5.4"/></svg>