<svg xmlns="http://www.w3.org/2000/svg" width="682.667" height="512" version="1.0" viewBox="0 0 512 384"><path d="M350.2 41.2c-.7.7-1.2 1.7-1.2 2.3s-.9 2.8-2.1 4.9c-3 5.7-5.5 14.1-8.5 28.5-1.4 6.9-3.9 17.8-5.6 24.1-1.6 6.3-3.3 13.3-3.8 15.6-1.3 5.9-8.7 32.4-12 42.9-1.6 4.9-3.2 10.3-3.7 11.8l-.9 2.9-4.9-4.1c-7.3-6.1-12.4-8.1-20-8.1-11.1 0-21.5 5.3-23.2 11.8-.4 1.9-1 2.2-2.7 1.7-1.1-.3-4.9-.9-8.3-1.2-5.4-.5-6.9-.2-12.6 2.5-3.5 1.6-8.1 4.6-10.1 6.6-2.1 2-4.2 3.6-4.7 3.6s-3.3-1.2-6.3-2.7l-5.4-2.6-4.3 3.6c-2.3 2.1-4.6 3.7-5 3.7-1.6 0-15.9 30.9-17.3 37.2-.7 3.3 1.3 8.5 4.3 11.2 2.9 2.6 9 4.7 11.8 4 2.2-.6 2.3-.3 2.4 5.2 0 6.5.4 11.8 1.9 29.9 2.7 31.2 10.2 61 20.5 81.5 4.3 8.6 5.8 10.7 13.9 19.5l5.9 6.5h156.2l-33.1-33.3-33.2-33.2 7.3-9.5c8.7-11.2 12.5-18.5 15.9-30.2 6-20.8 10.3-59.1 7.6-68.7-.8-3.2-3-6.3-7.5-11.1l-6.4-6.6 2.4-16.4c1.3-9.1 3.6-21.7 5-28 1.5-6.3 4.2-18.7 6-27.5s4.9-21.6 6.8-28.5c5.2-18.5 6.1-23.4 6.1-35 .1-13.1-1.2-16-7.3-16-2.3 0-4.8.8-6.1 1.8-2 1.6-3.1 1.7-8.9.9-3.6-.5-6.9-1.4-7.2-1.8-.3-.5-1-.4-1.7.3"/></svg>