<svg xmlns="http://www.w3.org/2000/svg" width="682.667" height="512" version="1.0" viewBox="0 0 512 384"><path d="M442.5 67.9c-5.9 2.6-16.6 14.6-23.1 25.8-14.3 24.4-56.7 85.5-58.9 84.9-.5-.1-3.8-4.5-7.3-9.7-7.7-11.5-10.4-14.1-17.7-16.8-10-3.7-16.9-.5-22.4 10.3-1.9 3.6-3.5 6.6-3.6 6.6s-3.3-1.6-7.1-3.6c-5.9-3.1-7.6-3.5-11.9-3.2-7.9.7-15.1 4.9-19.7 11.7l-1.7 2.3-5.2-2.5c-3.8-1.9-5.6-2.4-6.9-1.7-4.9 2.6-23.2 27-24.6 32.7-.4 1.3-.4 4.3-.1 6.6.7 5 6 10.3 11.4 11.3 3.4.6 3.5.7 2.9 4.8-6.3 42.3-5.9 73.6 1.4 104.1 5 21.3 11.3 33.9 23.2 46.8l5.3 5.8 75.3-.3 75.3-.3-10.2-11.5c-5.6-6.3-13.2-14.7-16.9-18.5-3.7-3.9-12.9-13.9-20.4-22.3L365.8 316l8.3-9.3c10.1-11.3 15-18.8 19-29.2 7.6-19.4 15.1-49.5 15.3-61.5.1-6.4-.3-8.1-2.6-12-1.4-2.5-3.5-5.4-4.7-6.4-2.7-2.5-2.7-4 .8-12.2 5.4-13.1 31.9-64.7 38.5-74.9 5-7.6 11.3-20.3 13.7-27.3 2.6-7.6 2.5-11.7-.6-14.7-2.9-3-5.6-3.1-11-.6"/></svg>