<svg xmlns="http://www.w3.org/2000/svg" width="682.667" height="512" version="1.0" viewBox="0 0 512 384"><path d="M168 73c-5 1.2-7 4.2-7 10.5 0 10.1 1 12.3 28 61.6 5 9.1 18.5 39 19.5 43.2l.7 2.5-5.9-2.3c-23.1-9.3-39.7-8.1-46.2 3.5-1.9 3.5-2.3 5.5-2.3 12.3l.1 8.2-5.9 1.8c-3.2 1.1-7.7 3.5-10 5.4-5.8 5-8.2 10.2-9.1 20.3-.4 4.7-1.4 11.2-2.3 14.5-1.9 7.1-3.2 23.7-2.2 28.9s5.6 10.1 11.1 11.6c3.8 1.1 5.1 1 9.2-.4 2.7-1 5.5-1.9 6.3-2.2 1.1-.3 2.8 2.2 6 8.8 7.4 15 38.8 64.9 48.9 77.5l4.1 5.3h96.2c82.3 0 96-.2 94.8-1.4-.8-.8-8.7-6.5-17.5-12.7-50-35.2-72.1-50.7-81.1-56.7l-10.2-6.7.5-18c.6-19.6-.2-26.9-4.2-40.7-3.3-11.4-11.1-31.2-17.9-45.1-6.4-13.1-10.7-17.9-18.6-20.5-5.3-1.8-5.8-2.3-14.2-14.3-4.8-6.8-12.5-18.3-17-25.4-4.5-7.2-9.8-15.5-11.9-18.5-3.9-5.7-5.8-9.1-16-27.8-7-12.7-16.7-24.3-20.2-24.1-1.2.1-3.8.5-5.7.9"/></svg>