<svg xmlns="http://www.w3.org/2000/svg" width="682.667" height="512" version="1.0" viewBox="0 0 512 384"><path d="M174.5 113.4c-4.6 7 7.9 26.5 25.1 39.1 4.8 3.6 14.2 11.6 21.2 18.3 5.6 5.1 5.6 5.2.8 7.7-3.1 1.7-5.8 7.5-5.1 11.4 1.6 8.9 4.7 16 9.5 22 2.7 3.4 5 6.5 5 6.8 0 .2-2.2-1.4-4.9-3.6-6.3-5.3-9.8-7.1-13.9-7.1-3.8 0-6.9 1.4-9.5 4.3-4 4.6-3.5 9.6 2.3 24.5 4 10.3 4.2 12.2 1.4 12.2-3 0-9.3 4-11.3 7.3-2.9 4.7-2.7 7.7 1.4 21.2 4.6 15.1 6.7 19.3 12.2 25 7.4 7.4 15.2 10.4 20.1 7.5 1.4-.9 4.5 1.7 19.7 16.7 23.1 22.9 49.6 45.2 64.3 54.1l5.2 3.2h194v-21.5l-12.3-6.3c-6.7-3.4-37.6-19.2-68.7-34.9s-57.1-29-57.7-29.6c-.7-.5-1.3-2.8-1.3-5.1 0-6.4-6.8-37.9-10.7-49.6-4.7-14-16.7-43.9-20.9-52-4-7.8-15-20.5-22.3-26-8.7-6.6-14.2-5.1-15.8 4.3-.9 5.9 1.4 10.3 10.2 19.6l8.2 8.7 1.7 9c.9 4.9 1.6 10.5 1.6 12.4l-.1 3.5-3.7-4.1c-2-2.2-5.6-6.3-7.9-9.1-5-6.1-18.4-16.3-39.8-30.5-8.8-5.9-18.8-12.8-22.1-15.5-3.4-2.6-10.4-7.7-15.5-11.3s-12.5-9.2-16.4-12.5c-22.4-19.3-39.5-27.1-44-20.1"/></svg>