<svg xmlns="http://www.w3.org/2000/svg" width="682.667" height="512" version="1.0" viewBox="0 0 512 384"><path d="M139.8 1.3c.6.7 1.3 3.2 1.5 5.5.3 2.4 1.1 5 1.8 5.9.8.8 1.2 2.9 1 4.5-.1 1.6.3 3.6 1 4.4.6.8 1.3 2.4 1.5 3.7.7 4.9 1.4 7.2 2.7 8.2.8.5 1.4 1.7 1.4 2.5 0 2.6 3.5 9 5.6 10.1 1.2.7 4.3.9 8 .4l5.9-.6-.7 2.8c-.4 1.5-1.1 5.9-1.5 9.8-.4 3.8-1.6 9.1-2.6 11.7-1.6 4-1.7 5.2-.6 6.8.6 1.1 1.2 2.6 1.2 3.5 0 1.3-6.9 27.4-9.9 37.2-.5 1.8-.8 3.3-.6 3.3s2.3-3.2 4.6-7c2.3-3.9 4.2-7 4.4-7 .1 0-.6 4.6-1.7 10.2-4.3 23.2-4.9 27-4.5 28.1.2.6 1-1.1 1.7-3.8l1.4-5 .7 5c.5 2.7 1.1 8.4 1.4 12.5.6 6.8.4 8.1-1.8 12.2-2 3.9-2.6 6.7-3.2 17-1.1 18.3-2.6 26.2-5 26.6-9.7 1.5-12.7 2.5-14.1 4.7-1.5 2.3-1.4 2.8 3.1 10 5.5 8.8 5.5 8.3 1.1 32.8-2.8 15.1-2.2 13.5-25.3 64.7l-12.5 27.5 5.1 4.5 5.1 4.5-3.5 12.5c-1.9 6.9-3.5 12.6-3.5 12.7 0 .2 12.8.3 28.4.3h28.5l2.9-7.7c3.8-9.8 7.9-22.6 9-27.8.6-3 1.3-4 2.7-4 1.3 0 2.1-.8 2.3-2.3.2-1.2 1-2.2 1.9-2.2 1.3 0 1.4-.9.9-5.8-.4-3.1-1.2-7.1-1.7-8.9-.7-2.2-.6-6.1.5-13.5 2.2-15.2 3.8-46.4 3-61.8-.6-12.7-.5-13.7 1.4-16l2.1-2.5 1.5 3.7c.9 2 2.8 7.6 4.3 12.5 2.3 7.7 2.7 10.6 2.7 22.8.1 15.8-.9 37.8-2 41.9-.4 1.9-.2 3.1 1 3.9 1.4 1.1 1.2 1.7-1.5 5.7-4.3 6.3-9.9 17.3-12.6 25-2 5.3-10.3 35.1-10.3 36.6 0 .2 37.6.4 83.5.4s83.5-.3 83.5-.8c0-.4 2.3-1.5 5.1-2.5 7.4-2.7 9.2-6 8.5-16.2-.3-4.4-1.5-11.1-2.6-14.9l-2.2-6.9 3.8-9c3.1-7.6 3.5-9.4 2.7-11.6-.6-1.4-5.2-11.8-10.3-23.1-9.7-21.7-20-47-20-49.3 0-.8-1.3-5.8-3-11.3-3.7-12.3-3.7-13.7-.2-18.3 8.2-10.4 4.9-18.9-7.9-20.6-2.8-.4-5.2-1.2-5.4-1.9-.2-.6-1.1-7.5-1.9-15.4-1.2-10.3-2.2-15.4-3.7-18.5-2.9-5.6-10.7-13.1-17.1-16.3-2.9-1.4-5.5-2.8-5.6-2.9-.2-.2.9-2.4 2.4-5 3.2-5.5 2.5-6.5-4.6-6.5-2.5 0-5.5-.3-6.8-.6-2.1-.6-2.3-1.1-1.6-4.8.8-4.8 2.5-8.6 3.9-8.3 1.3.3 9-13.8 13.1-23.7 2.9-7.1 3.7-8.2 6.6-9.2 5.2-1.7 6.5-5 4.9-12.1-.7-3.2-1.5-7.3-1.6-9-.2-1.8-.6-6.4-1-10.3l-.7-7h3.5c2 0 3.9.4 4.2 1 .8 1.4 9.5 1.3 9.5-.1 0-.6.7-1.7 1.5-2.6.8-.8 1.3-1.8 1-2.3-.3-.4.2-1.3 1-2 .7-.6 1.1-1.8.8-2.6s0-1.4.5-1.4c1.2 0 2.7-3.8 2.4-5.8-.2-.6.2-1.2.7-1.2.6 0 .8-.6.5-1.3-.2-.7.2-2.6 1-4.2.8-1.5 1.2-4 .9-5.5-.3-1.9 0-2.9 1.1-3.3 1.1-.5 1.6-1.9 1.6-4.9 0-2.4.7-5.2 1.5-6.2.8-1.1 1.5-2.8 1.5-3.8 0-1.7-4-1.8-95.1-1.8-76.6 0-94.9.2-94.1 1.3M276 110.6c-1.6 4.8-1.9 5.2-1.4 2.1.5-4 2.4-9 3.1-8.3.2.2-.5 3-1.7 6.2m-107 47.9c-2 2.4-3 1.7-2.4-1.8 1-5.8 1.6-6.4 2.7-3 .7 2.4.6 3.7-.3 4.8m21 51.4c0 .6-.4 1.3-1 1.6-.5.3-1-.1-1-.9 0-.9.5-1.6 1-1.6.6 0 1 .4 1 .9"/></svg>