<svg xmlns="http://www.w3.org/2000/svg" width="682.667" height="512" version="1.0" viewBox="0 0 512 384"><path d="M171 143.8c-2.8 2.8-4 4.8-4 6.8 0 6.7 7.8 16.1 30.7 37.4 5.1 4.7 10.1 9.8 11.3 11.3l2.1 2.8-2.5 3c-3.7 4.4-3.5 9.1.9 15.9 1.9 3 3.5 5.8 3.5 6.2s-1.5.4-3.3.1c-6.2-1-16.1 6.2-17.3 12.4-.5 2.8.3 5.2 5 14.4 3.2 6.1 5.6 11.2 5.4 11.3s-2.9 1-6 1.9c-6.3 1.9-11.8 7.1-11.8 11.1 0 4.7 8 23.9 12.3 29.4 4.4 5.8 32.9 32.6 43.8 41.3 3.5 2.8 7.7 6.2 9.3 7.6 2.5 2.3 25.3 18.8 34.5 25l3.4 2.3H512v-55.3l-9.5.7c-16.5 1.1-34.1 5.5-46.8 11.7-3.3 1.6-6.5 2.9-7.1 2.9s-17.7-7.4-38.1-16.4c-20.3-9-39.1-17.3-41.7-18.4l-4.8-2.1v-6.2c0-12.8-9-44.7-21.2-75.4-11.3-28.4-22.8-48.7-29.3-51.7-5-2.2-15.5 6.8-15.5 13.2 0 3.9 2.3 8.9 6.6 14.5 4.9 6.5 6 9.4 7.4 20.2 1.1 8.9.8 13.3-1 13.3-.5 0-2.8-2.3-5.2-5.1-5.4-6.4-18.1-15.9-37.1-27.5-19.4-11.8-48.4-33.2-66.6-48.8-7.7-6.6-17.9-12.4-23.8-13.3-2.8-.5-3.8 0-7.3 3.5"/></svg>