<svg xmlns="http://www.w3.org/2000/svg" width="682.667" height="512" version="1.0" viewBox="0 0 512 384"><path d="M457.3 1.9c-1.7 1.1-4.8 2.3-6.7 2.7-8.8 1.6-17.8 19.3-19.2 37.9-.6 7.5-.3 8.1 3.8 10.7 1.4 1 2.8 2.8 3 4 .3 2.4 1.5 2.6 10.7 1.7 3-.4 3.8.1 5.8 3 1.3 1.9 2.8 5.1 3.3 7.1 1.1 4.2 4.5 9 6.3 9 .7 0 2.5-1.2 4-2.6 2.7-2.5 3-2.6 7.5-1.3 2.6.7 6.7 2.1 9.1 3.1l4.3 1.8-.6 4.3c-.4 2.3-1 5.3-1.3 6.7-.5 2.2-.2 2.1 2.8-1.4l3.5-3.9 4.3 5.7c2.5 3.1 5.2 6.1 6.2 6.6.9.6 2 2.4 2.4 4 .5 2.3 1 2.8 1.9 2.1s1.6-.7 2.4.1c.9.9 1.2-11 1.2-51V0h-25.7c-23.8 0-26.1.2-29 1.9m-299 169.9c-2 1.3-3.5 6.5-2.8 10.2 1.1 6.5 6.6 23.1 10.5 32 3.4 7.7 3.8 9.5 3.3 14.2-.4 3.6 0 6.5 1 9l1.5 3.6-3.8 4.1c-4.7 4.9-5.6 9.4-3.5 17.1s2 8.2-2.5 12.9c-3.8 4-4 4.5-4 10.4.1 8.2 4.9 28.2 8.3 34 5 8.5 33.4 26.6 71.8 45.8 26.3 13.1 27.1 13.4 38.8 16.5l9.3 2.4H512v-80c0-63.3-.3-80-1.2-80-.7 0-5.5 1.2-10.7 2.6-16.3 4.5-27.8 10.6-32.9 17.4l-2.8 3.9-5-4.6c-5.5-5.2-18.3-15.3-19.3-15.3-.3 0-2.3-1.6-4.3-3.5-3.5-3.1-3.8-3.8-3.8-8.9 0-3.1-.3-5.6-.7-5.6-.5 0-1.9 1.7-3.3 3.7-1.8 2.7-2.6 3.2-2.8 2-.2-.9-.7-1.7-1.1-1.7-.5 0-.8-1.1-.8-2.5-.1-4.1-1.3-4.2-4.3-.5l-2.9 3.5-.7-4.3c-.3-2.3-.9-4.2-1.2-4.2s-1.6 1-2.9 2.2c-2.8 2.6-3.3 2.2-4.4-3.9-2.1-10.9-5.3-9.4-15 6.9-22.8 38.5-34.6 52.6-74.3 89-3.4 3.1-4.2 3.3-8.3 1.7-3.6-1.4-4.3-2.5-4.3-7.9 0-7.9-9.8-38.9-18.4-58.5-.8-1.7-2.6-5.9-4.1-9.5s-3.3-7.6-4-9-2.7-6.8-4.5-12c-3.5-10.5-6.2-15.5-9-17-3.1-1.7-11.7.9-14.6 4.3-3.3 3.9-3.1 8.8.6 18.2 4.8 12 5.3 33.4.9 34.3-.9.1-4.6-2-8.5-4.9-3.8-2.8-7.6-5.4-8.4-5.7-1.9-.8-16.1-9.1-17.8-10.5-1-.8-.8-1.5.9-3.3 5.5-5.9-6.8-15.7-21.6-17.1-6.2-.6-6.9-.9-11-5.2-2.5-2.5-5.8-7.3-7.3-10.6-5.2-10.8-15.2-18.7-19.9-15.7"/></svg>