<svg xmlns="http://www.w3.org/2000/svg" width="682.667" height="512" version="1.0" viewBox="0 0 512 384"><path d="M335.1 3.3c-3.3 5.4-6.7 13.8-8 19.7-1.9 8.6-2.6 28-1.2 34.9 1.5 7.7 1 8.7-8.2 15.5-4 3-9.4 7.7-12.1 10.4-4.2 4.4-5.8 5.3-11.8 6.8-3.8.9-7.2 2.2-7.5 2.9-.7 2 2.6 6.3 5 6.7 1.7.2 2.3 1.1 2.5 4 .4 5 2.2 6.3 6.5 4.7 3.2-1.1 3.7-.9 13.5 5 5.6 3.3 10.6 6.1 11.2 6.1.5 0 1 .4 1 .9 0 .6 1.3.6 3.2-.1 4.4-1.5 6.2.9 5.4 7.4-.5 5.1.2 6 2.2 2.8 1.2-2 1.3-2 3.7-.3 1.3 1 2.5 2.1 2.5 2.5.1 2-7.2 11.6-10.6 14.1l-3.9 2.8 6.8-.3c8.1-.4 8-.7 3.2 10.7-1.7 3.9-1.7 4 .1 2.4 4.2-3.6 4.6-3.4 3.8 1.6-.3 2.6-1.5 7.1-2.5 9.9l-1.8 5.1 3.9-4.5c2.2-2.5 4-4.1 4-3.7 0 .5 1.3-.1 2.9-1.2l2.9-2.1.6 3.5c.4 1.9.4 5.2.1 7.2-.5 3.3-.2 2.9 1.9-2.2 2.6-6.3 3.3-6.5 1.6-.5l-.9 3.5 2-2.8c1.4-1.8 2.7-2.6 3.9-2.2 1.1.3 2 0 2.3-1 .4-.8 1.3-1.2 2.2-.9.9.4 1.5.1 1.5-.7.1-.8 1.2-.1 2.5 1.6l2.5 3v-4c0-2.7.3-3.5.9-2.6.5.7 1.4 1 2 .7.6-.4.9-1.2.5-1.7-.3-.6.3-.5 1.4.2s2.7 2.5 3.6 4.1c2.1 3.4 4.6 3.7 4.6.5 0-4.2 3.5-3 6.1 2.1l2.4 4.7.3-3.3.3-3.3 2 2.2c2.5 2.9 2.4 5.8-.4 9.1-1.9 2.4-4.1 3.2-15.7 5.8-23.2 5.2-29.6 7.9-39.2 16.8-3.5 3.2-11.5 9.3-17.9 13.5C308.1 231 303 237 303 244.5c0 1.4-.4 2.5-.9 2.5-2.3 0-11.8-8.4-26.6-23.4-15.1-15.3-16.7-16.6-27.7-22.6l-11.6-6.5-.9-4.5c-.8-4.2-1-4.5-4.8-5.1-5.1-.9-6.1 0-16.7 15.3-5.2 7.5-8.7 11.7-9.5 11.3-.7-.3-1.9-.8-2.7-1.1-2.7-1-10.7 7.5-14.1 15.1-1.8 3.8-3.5 8.3-3.9 10-.5 1.8-3 5-6.3 7.9-8 7.2-25.6 21.1-35.3 28.1-10.3 7.4-16.7 13.1-15.8 14.1 1 .9 9.2 1 23.9 0l12.7-.9 11.5 6.2c9.2 4.9 12.5 6.1 16.1 6.1 2.4 0 4.8-.5 5.1-1 1.2-2 2.4-.9 4.9 4.5 1.3 3 3.6 6.6 4.9 7.9 3.1 3.1 13.2 6.2 24.8 7.7 8.7 1.1 9.4 1.4 18.6 7.6 5.3 3.5 13.9 10.5 19.2 15.5 9.6 9.1 17.6 14 24.9 15.4 2.6.5 3.2 1.1 3.2 3.1 0 1.3 1.2 4.4 2.6 6.9 5.8 9.8 14.1 13.5 32.2 14.2 12.1.4 12.2.5 12.2 2.8v2.4h169V207.2l-7.2-3c-4-1.7-12.5-4.6-18.8-6.5-15.1-4.6-14.7-4.5-20.7-8.9s-8.4-7.4-7.5-9.6c.5-1.3.6-1.3 1.2.2.5 1.5 1 1.2 3-1.6 1.4-1.8 3.3-3.4 4.3-3.4 2-.2 2 0 .7 4.5l-1 3.4 3-2.8c1.8-1.7 4.3-3 6.1-3.1s3.7-1.1 4.6-2.4c.8-1.1 2.6-3.3 3.9-4.8 2-2.2 2.3-2.3 1.8-.7-.4 1.5 0 1.3 1.9-.9 1.8-2 2.6-2.5 3-1.5s1.3.6 3.2-1.5l2.6-2.8 3.7 2.4c2 1.4 4.7 3 6 3.7 2.2 1.2 2.3 1.1 1.3-.8-1.2-2.1.2-4 1.4-2.1.5.7 1.2.5 2.1-.7 1.1-1.5 1.3-10.7 1.4-49.8 0-29.2-.4-49.4-1-51.5-.7-2.3-.7-3.6 0-3.8.6-.2 1-11 1-29.8V0H337.2z"/></svg>