<svg xmlns="http://www.w3.org/2000/svg" width="682.667" height="512" version="1.0" viewBox="0 0 512 384"><path d="M144 1.3c0 .7.6 2.1 1.4 3.2.7 1.1 1.4 2.3 1.5 2.8.3 2.2 1.4 6.5 2.1 8.2.5 1.1 1.1 3.1 1.4 4.5.8 4.3 4 13.6 5.5 16 .5.8 1.7 3.4 2.7 5.8.9 2.3 2.3 4.7 2.9 5.2 1.9 1.6 8.3 1.8 10.4.4 2.5-1.8 3.1-.9 1.9 3.4-.6 2-.7 5.9-.4 8.7.9 7 .9 6.5-.8 11.3-1.1 2.8-1.3 4.9-.7 5.9 1 1.8-1.8 10.2-9.9 30.1-1.2 3-1.9 5.6-1.6 5.9s2-1.6 3.8-4.1c1.8-2.6 3.4-4.3 3.6-3.8.1.5-1.5 8.2-3.8 17-4 16-5.4 25.6-2.2 15.7l1.6-5 .7 4.5c.4 2.5.8 9 1 14.5l.2 10 1.4-7.7c.8-4.3 1.9-7.6 2.3-7.3.4.2 1 2.4 1.4 4.7.6 3.4.2 5.3-2.2 10.2-1.5 3.4-3.6 8.8-4.6 12.1s-2.3 7.2-2.8 8.7c-.6 1.5-1 3.1-1 3.5s-.4 1.3-.9 1.9-.7 1.9-.3 2.8c.3.9 0 2.3-.7 3.2s-1.8 4.1-2.4 7.2c-1.1 5.4-1.4 5.8-5.8 7.9-5.7 2.8-5.9 4.1-1.2 11.9 1.9 3.2 3.3 6.5 3 7.3-.8 2.5-.9 11-.2 11.8.4.3.2 1.2-.4 1.9-.6.8-.9 2-.6 2.8s-.3 6.5-1.3 12.5c-1.5 8.7-3.5 14.8-8.9 27.8-8.2 19.9-21.4 51.1-24.1 57l-2 4.3 5 3.7c2.8 2.1 5 4.5 5 5.4 0 1-1.6 6.8-3.5 12.9s-3.5 12.3-3.5 13.6v2.4h52l2.5-5.5c3.6-8.2 10.1-28.6 13-40.7 6.1-25.5 10.4-71.4 8.6-91.1-1-9.9-.9-11.5.7-14.6 2.8-5.6 3.9-5 6.6 4.1 6.6 21.8 6.7 23.6 5 46.6-.7 10-1.1 18.9-.8 19.7.4.9 0 2.9-.7 4.7-1.1 2.7-1 3.2.5 4.4 1.7 1.2 1.6 1.6-1.7 7.1-8.2 13.6-11.5 22.2-18.1 46.8-1.9 7.2-3.9 14.2-4.5 15.7L179 384h81.5c49.4 0 81.6-.4 82-.9.3-.5 3-2.1 6-3.5 9.6-4.4 11.6-11.5 7.5-26.4-2.7-9.8-2.6-12.2 1.6-21.3l3.5-7.9-3.1-6.6c-5.6-11.8-16.7-37.7-21.8-50.4-4.2-10.6-12.2-38.9-12.2-43 0-.7 1.8-3.9 4-7.2 4.4-6.7 5.1-10.7 2.1-13.7-2-2-8-4.1-11.7-4.1-1.2 0-2.7-.6-3.3-1.3-.6-.8-1.6-7.2-2.1-14.3-1.6-19.2-2.8-22.6-10.8-30.4-3.7-3.6-8.8-7.6-11.4-8.9-2.7-1.3-4.8-2.7-4.8-3.1s.8-1.8 1.9-3.1c2.6-3.4 3.4-6.6 1.9-7.1-.7-.3-3.8-.6-6.8-.7s-6.7-.4-8.2-.7l-2.7-.5 2.1-5.2c1.1-2.9 3.1-8.3 4.3-12 1.3-3.8 2.8-7.4 3.4-8 .7-.7.5.8-.4 3.3s-1.8 5.8-2 7.5c-.4 2.9-.3 2.9 1.1 1 3.5-4.6 12.7-24.1 13.9-29.3.5-2.6 1.2-3 4.8-3.5 4.9-.7 7.7-3.5 7.7-7.9 0-1.7-1.6-6.6-3.5-11.1-2.7-6.1-3.5-9.4-3.5-13.9V44l3.3.6c1.7.3 4.1 1 5.3 1.6 3.7 1.7 7.7.6 9.3-2.7.8-1.7 1.8-3.8 2.3-4.7.4-1 .8-2.4.8-3.2 0-.7.7-1.9 1.6-2.7.8-.7 1.3-2.1 1.1-3.1-.3-1-.1-1.8.3-1.8s.6-.9.3-2 0-2.7.7-3.5c.6-.7 1-3 .9-5-.2-2.1.2-3.9.9-4.4.7-.4 1.4-2.9 1.5-5.4.1-2.6.5-4.7 1-4.7.4 0 .7-.7.7-1.5C330 .2 319 0 237 0c-74.8 0-93 .2-93 1.3m53 200.2c0 6-.3 7.5-1.5 7.5-.9 0-1.5-.9-1.5-2.5 0-2.9 2-12.5 2.6-12.5.2 0 .4 3.4.4 7.5"/></svg>