<svg xmlns="http://www.w3.org/2000/svg" width="682.667" height="512" version="1.0" viewBox="0 0 512 384"><path d="M434.2 1.5c-1.2.6-4.7 3.4-7.7 6.1s-7.3 6.4-9.5 8.3l-4 3.3-5.2-4.7C397.6 5.4 385.4 1 369.8 1c-9.5 0-51.1 6.4-60.8 9.3-13.9 4.2-26.8 14.5-31.5 25.1-5.3 11.9-7.9 32.4-5.5 42.5 1.5 6.2 1.7 5.9-11.3 16.8-6.5 5.4-9.5 7.3-11.7 7.3-3.7 0-8 1.6-8 3 0 .6 1 2.4 2.2 4 1.7 2.4 1.9 3.4 1.1 5.3-1.5 3.2.6 5.8 4.3 5.6 2.1-.2 5.6 1.5 12.3 6 10 6.5 12.3 7 16.4 3.4 2.5-2.3 2.9-1.3 1.9 5.1-.5 3.1-.6 5.6-.3 5.6.3-.1 1.7-.7 3.1-1.5 5.1-2.9 5.2-1.8.3 6.7-2 3.5-5.1 7.5-6.9 8.8-1.9 1.4-3.4 2.9-3.4 3.4s2.5.6 5.6.2c5.4-.6 5.5-.6 4.8 1.6-.3 1.3-1.5 4.1-2.5 6.2-1.1 2.2-1.9 4.1-1.9 4.3 0 .1 2-.6 4.5-1.7l4.5-1.9v2.2c0 1.2-.7 4.7-1.5 7.7s-1.5 5.6-1.5 5.8c0 1.5 6.8-5 9.1-8.7l3-4.6-.7 7.9c-.7 8.8-1.1 8.7 5.9 2.2l3.1-2.8 2.3 2.8c1.3 1.6 2.3 2.4 2.3 1.9 0-.6.9-1.6 2.1-2.3 1.8-1.2 2.4-1.1 4.5.9l2.4 2.2 2.5-2.3c2.8-2.7 2.6-2.8 5.3 2.5 1.9 3.5 2.1 3.7 2.2 1.5v-2.4l1.6 2.2c1.8 2.6 1.1 5.8-1.6 7.2-1 .6-8.1 2.1-15.7 3.5-21.1 3.9-24.2 5.7-44.2 26-12.1 12.3-16.6 16.3-17.3 15.3-.5-.7-1.3-2.1-1.9-3.1-1.8-3.1-12.4-9.3-20.1-11.7-5.5-1.8-8.8-3.6-13.3-7.5-8.7-7.5-15-11.8-23.5-15.9-9.1-4.5-9.1-4.6-9.9-9.3-.5-2.9-1.2-3.9-3.1-4.3-1.4-.4-3.1-.4-3.9-.2-.8.3-5.1 6.2-9.6 13.1-18.8 28.8-32 42.9-65.5 70-2.5 2-6.5 5.5-9 7.8-3.7 3.5-4.2 4.5-3 5.3 2.3 1.5 7.4 1.2 20-1.1 6.3-1.1 12.9-1.9 14.7-1.6 1.7.3 6.9 2.2 11.5 4.2 5 2.3 10.1 3.8 12.8 3.8l4.5.2 6-11.9c3.4-6.5 6.4-11.8 6.8-11.7s1.1.1 1.6.1 2.2 2.5 3.6 5.5c1.5 3 3.2 5.5 3.7 5.5 2.5 0 4.8-2.3 4.8-4.8 0-3.8 1.1-7.2 2.2-7.2 1.5 0 11.9 10.3 13.6 13.5.8 1.6 1.8 4.6 2.1 6.5.9 4.9 3.8 5.1 12.5.6 3.9-2 8.8-3.9 10.8-4.3 3.4-.5 3.9-.3 4.8 2.1.5 1.5 2.1 4.2 3.4 5.9 5.5 7.3 5.9 9.1 6 25.7.1 15.3.2 15.8 3.1 21.5 3.9 7.6 9.6 11.4 18.2 12.2 9.4.9 14.1-2.6 19.3-14.4 1.3-2.9 2.6-5.3 2.8-5.3.3 0 2.3.5 4.5 1.2l4 1.2-.6 13c-.9 19.3-2.7 26.4-9.3 36.3L270 384h135.4l-3.1-2.7c-2.5-2.2-3.4-4-4.1-8l-.9-5.3 7.1.6c6.5.6 7.6.4 12.6-2.3 8.9-4.7 9.3-5.9 10.2-31.7 1-25.9 1.3-28.2 3.8-29.6 1.1-.6 2-2.1 2-3.4 0-2 .6-2.5 4.5-3 3.9-.6 4.5-1.1 4.5-3.1 0-1.2-1.3-3.7-2.9-5.4-4.7-5-4.6-6.9.4-9.3l4.3-2.1 6.1 2.3c11.3 4.2 38 20.9 54.8 34.3l7.3 5.7v-59.6l-11.7-1.7c-25.5-3.7-27.4-3.6-29.2 1.4-.8 2.4-1.5 3-2.8 2.4-1-.4-5.2-2-9.4-3.6-7.3-2.9-7.7-3.1-8.3-6.7-1-6.5-6.7-22.4-11.2-31.7-3.9-8.2-4.9-9.4-9.6-12.2-5-3-21.9-9.3-25-9.3-6.2 0-26.1-9.9-27.5-13.7-.3-.7 1.1-3 3.1-5l3.6-3.7v3.9c0 2.2.4 3.5.8 3 .4-.6 1.9-1.6 3.5-2.2 2.6-1.2 2.7-1.1 2.7 1.3 0 2.3.2 2.5 1.6 1.3.9-.7 2.6-1.8 3.8-2.4 1.1-.5 4.1-4.1 6.6-7.8l4.4-6.9 1.5 3.1c1.4 2.9 3.1 4.2 3.1 2.2 0-1.8 6.2-2.1 8.9-.5 2.4 1.4 3.1 1.5 5.4.3l2.5-1.4-2.3-5.5c-3.3-7.6-3.2-9 .8-9.1 1.7-.1 4.2-.4 5.5-.7 2.3-.7 2.2-.8-1.3-4.2-5.8-5.5-8.8-12.2-8.2-18.4.9-8.8 1.9-12 5.3-17.1 3.4-5.2 7.4-13.8 7.4-15.8 0-.7-1.8-2.5-4-4.2-4.4-3.2-7.4-7.5-8.2-11.9-.4-2.2-.2-2.6 1.1-2.1.9.4 3.9 1.1 6.6 1.7 2.8.6 5.9 1.4 7 1.8 6.2 2.5 10.5 3.9 10.5 3.5 0-.2 1.4.2 3.1.9 2.6 1.1 3.5 1 7-.7 2.1-1 3.9-2.6 3.9-3.4s.7-4.6 1.7-8.4c1.5-6.4 1.5-7.4 0-13.6-.9-3.6-1.4-7-1.2-7.4.3-.3 2.9-1 6-1.4 3-.3 5.7-1.1 6.1-1.6.3-.5 1.4-.7 2.4-.4s2.1.1 2.5-.5c.3-.5 1.4-1 2.3-1 2.8 0 12.2-4.3 12.2-5.5 0-2.3-4.1-6.4-7-7-1.7-.4-3-1-3-1.3 0-.4-2.3-3.2-5.1-6.2-8.7-9.5-15.7-21.6-16.1-28.3l-.3-3.7-13.5.1c-8.8.1-14.3.5-15.8 1.4"/></svg>