<svg xmlns="http://www.w3.org/2000/svg" width="682.667" height="512" version="1.0" viewBox="0 0 512 384"><path d="M429.6 2.8c-2.8 1.5-6.1 3.7-7.4 4.9-1.4 1.3-2.9 2.3-3.5 2.3-.5 0-3.1 1.9-5.7 4.2-9.9 9.1-12.1 10.8-13.4 10.8-.8 0-2.9-1.4-4.7-3.1C383.3 11.1 369 6.2 352.5 7.4c-10.6.8-38.9 4.9-49.5 7.2-21.1 4.6-33.7 16.6-39.1 37.1-1.6 6.4-2 10.3-1.7 21.3.3 15.7.8 14.6-10.7 24.6-5.9 5.2-7.7 6.2-12 6.8-6.5.8-7.2 1.7-4.6 5.9 1.8 3 2 3.9 1 6.1-1.5 3.2.2 5.6 3.7 5.6 1.3 0 6.5 2.7 11.4 6.1 7.6 5.1 9.5 5.9 12 5.4 1.6-.3 3.4-1.3 4.1-2.1 2.2-2.6 3.2-1.5 2.6 2.9-.3 2.4-.9 5.2-1.3 6.2-.7 1.8-.5 1.8 3-.3 2.1-1.3 4.1-2 4.4-1.7 1.7 1.6-8.3 16.6-13.1 19.6l-3.2 2.1 5.8-.6c7.2-.8 7.7.1 4.3 7.8l-2.5 5.6 3.2-1.6c1.8-.9 4-2.3 5-3.2.9-.8 2-1.2 2.3-.9.7.6-1.1 11.3-2.4 14.5-1.1 3 5.3-2.5 7.3-6.2 1.1-2 2.3-3.6 2.7-3.6.5 0 .8 2.7.8 5.9v5.9l2.5-1.1c1.4-.7 2.5-1.5 2.5-1.8s.6-1.3 1.3-2.3c1.3-1.7 1.5-1.6 3.4 1.4l2.1 3.3 1.8-2.8 1.8-2.8 2.7 3.2c2.6 3.2 2.7 3.2 4.8 1.5 1.2-1 2.1-3 2.2-4.4 0-2 .6-1.4 2.5 2.9 1.9 4.2 2.8 5.1 3.5 4s.9-.8.9 1.1c0 4.2-1.3 5-10.1 6.6-28.9 5.3-30.4 6.1-46.7 23.3l-12.3 13-4.6-2.9c-2.5-1.6-7.8-3.7-11.8-4.5-7-1.6-7.5-1.6-11.7.3l-4.3 1.9-7.5-7c-10.2-9.5-16.2-13.9-25-18.3-11.3-5.6-12.6-6.8-13.4-11.3-.5-3.2-1-4-3.3-4.4-1.6-.3-3.4 0-4.2.6-.7.7-4.5 5.9-8.4 11.7-16.1 24.2-30.7 40.7-50.1 56.7-5 4.2-10.2 8.5-11.6 9.6-1.4 1.2-4.7 3.9-7.5 6.1-5.4 4.1-8.5 7.3-8.5 8.7 0 1.9 7.3 1.9 18.6 0 6.7-1.2 13.7-2.1 15.6-2.1 2 0 7.9 1.8 13.2 4 5.6 2.4 11.2 4 13.5 4 3.8 0 4-.2 6.6-5.8 6.2-13.3 8.8-18.2 9.6-18.2 1 0 4.8 5.9 6.7 10.2.9 2.3 1.5 2.6 3.4 1.9 1.8-.6 2.5-2 3.2-6 .6-2.8 1.4-5 1.9-4.8.5.1 3 2 5.7 4.2 5.6 4.7 9.7 10.5 10.6 15.2.5 2.8 1 3.3 3.4 3.3 1.5 0 6.2-1.6 10.3-3.6 10.3-4.9 14.1-5.3 20.3-2.1 2.7 1.4 6.3 3.9 8.1 5.5l3.2 3-2 11.4c-1.2 6.2-2.2 14.9-2.3 19.3-.2 13.6 5.4 22 17.1 25.5 10 3 15.7-1.3 22.2-16.8 6.8-16.1 8.7-13.7 7.8 9.6-.7 18.4-2.8 27.5-8.8 37.3-2.4 4-5.4 8.6-6.7 10.1l-2.4 2.8h69.6c76.7 0 74.3.2 64.7-6-6.4-4-6.7-4.5-7.6-10.6l-.7-5.2 7.9.2c6.9.1 8.4-.2 12.5-2.7 6.7-3.9 7.5-6.3 8.2-25.2.3-8.8.9-19.7 1.2-24.2.6-7.2.9-8.2 3-9.2 1.3-.6 2.4-1.9 2.4-3 0-1.5.9-2.1 4-2.6 5-.8 5.3-3.4 1-8.5-3.9-4.5-3.8-6.4.5-9 3.1-1.9 3.9-2 7.2-.9 12 3.8 34.4 17.4 56.4 34.1 14.7 11.2 15.4 11.6 21.4 12.7l4.5.8v-65.6l-6.3.6c-4.2.4-12.1-.3-24.8-2.2-10.3-1.4-19.9-2.5-21.5-2.3-2.5.3-4.1 2.1-6 6.6-.4.8-17.8-6.5-18.5-7.8-.4-.8-2-6-3.5-11.5s-4-12.8-5.6-16.2c-1.5-3.4-2.8-6.5-2.8-7.1 0-.5-1.4-2.8-3.1-5.1-3.9-5.5-11.4-9-27.4-13.1-6.6-1.6-13.3-3.5-15-4.2-4.6-1.8-14.5-8.7-14.5-10.1s5.7-6.7 7.1-6.7c.5 0 .9 1.4.9 3.1 0 2.7.2 3 1.5 1.9.8-.7 1.5-1 1.5-.6s1.2-.1 2.7-1.1l2.6-1.7-.5 2.7c-.4 2.3-.3 2.5.9 1.5.9-.7 2.5-1.7 3.6-2.3 1.2-.6 4.1-4.1 6.4-7.9l4.2-6.8 1.6 3.2 1.6 3.1 3.3-1.9c3.1-1.8 3.4-1.9 6.6-.2 2.5 1.3 3.8 1.4 5.5.6l2.3-1.1-2.5-4.8c-3-6-2.8-9.1.7-9.5 7.7-.8 7.7-.9 3.3-5.5-8.5-9-9.7-14.1-5.9-24.7 1.4-3.9 3.9-8.8 5.6-10.8 1.6-2.1 3.6-6 4.5-8.7 1.5-4.9 1.5-5-1-7.2-1.4-1.2-3.1-2.6-3.8-3-3.3-2-8.1-12.3-5.8-12.3.5 0 1.2.4 1.5.9.5.8 5.3 2.3 8.6 2.6 2.5.3 7.4 1.7 8.5 2.5.6.4 3.3 1.5 6 2.4 4.7 1.6 5.2 1.6 8.6-.1 3.2-1.5 3.8-2.4 4.8-7.3 2.2-10 2.3-12.5.8-18.4-1.2-4.2-1.2-5.8-.4-6 .7-.2 4.4-.9 8.2-1.6 3.9-.7 9.9-2.5 13.5-3.9 5.6-2.3 6.5-3 6.8-5.4.3-2.3-.2-3-3.5-4.5-5.9-2.6-21.2-20.9-21.3-25.5 0-.6-.7-2-1.5-3.1-.7-1-1.7-4.4-2.1-7.5s-.8-6.3-1-7.1c-.1-.8-.3-2.1-.3-2.8-.1-.8-2-1.2-6.3-1.2-4.9 0-7.4.6-11.2 2.8"/></svg>