<svg xmlns="http://www.w3.org/2000/svg" width="682.667" height="512" version="1.0" viewBox="0 0 512 384"><path d="M382.5 30c-4.2 2.2-11.5 7-16.1 10.6-4.7 3.6-9.1 6.7-9.8 7s-3.7-1.8-6.6-4.6c-9.5-9.2-19.9-13-36-13-11.9 0-40 2.7-47.2 4.5-17.6 4.4-28 15.3-32.8 34.2-2.2 8.7-2.6 22.2-.9 27.2 1 2.9.8 3.4-2.2 6.9-5.7 6.3-10.9 10.2-13.8 10.2-1.5 0-3.6.6-4.7 1.4-1.7 1.3-1.8 1.8-.7 4.7 1.1 2.7 1 3.6-.2 4.9-1.6 1.8-2 5-.6 5 .4 0 5.2 2.9 10.6 6.5 5.3 3.6 10.2 6.5 10.9 6.5.6 0 2.2-.7 3.4-1.6 3-2.1 4.1-1.1 3.2 3.1-.9 3.8-.1 4.4 2.5 1.9 1.1-1.1 2-1.3 2.6-.7 1.6 1.6-3.9 14-8.2 18.5l-3.8 4 5-.4c5.6-.4 5.8 0 3.4 7.7-.8 2.7-1.2 5.1-.9 5.4.2.3 2.4-1.5 4.9-3.9s4.6-4.2 4.8-3.9c2.4 3 3.7 5.9 3.7 8.6 0 1.8.2 3.3.5 3.3s1.8-1.3 3.3-3l2.9-3 1.1 2.6c.7 1.4 1.2 3.4 1.2 4.5 0 1.5.5 1.9 1.9 1.4 1.3-.4 2.4.1 3.5 1.6l1.5 2.2.7-2.8.7-2.9 2.8 3.3 2.7 3.3 1.7-2.6c1-1.5 1.5-3.7 1.2-5.2-.4-2.2-.3-2.4 1-1.2 2.2 2.2 2.8 8.2 1 10-.9.9-5.4 1.9-11.9 2.7-21.7 2.6-25.7 4.5-37.6 18.4-10.4 12.2-14.4 17.8-16.3 23.1l-1.4 3.8-6-.5c-8.4-.8-19.7-6.8-31.5-16.8-15.8-13.4-21-17-32.6-22.4-11.3-5.4-12.4-6.4-12.4-11.5 0-1.6-.5-3.2-1.1-3.5-2.5-1.6-5.8 1-11.9 9.2-14.7 20-27.9 34.5-40.5 44.7-11.8 9.5-18.4 14.7-22.1 17.2C49 261 35.8 270.7 33 272.9c-2 1.6-2.2 2.3-1.3 3.2 1 1 5.1.7 19.7-1.6l18.4-2.8 11 3.6c17.3 5.9 18.9 5.4 25.5-7.8 1.9-3.9 4.4-8.1 5.5-9.5l2-2.5 2.4 2.2c1.2 1.2 3.2 3.9 4.3 6 3 5.9 3.5 6.4 5.5 5.3 1-.5 1.9-2.6 2.3-5 .3-2.3.8-4.4 1-4.7 1.1-1.1 9.1 4.1 14.7 9.6 4.7 4.7 6 6.5 6 8.9 0 1.7.5 3.4 1 3.7.6.4 5.2-1.4 10.3-3.9 12.8-6.3 16.1-6.7 24-2.8 3.4 1.7 8.5 5.4 11.4 8.2 5.9 5.9 9.5 6.7 14.4 3.1 1.7-1.3 3.2-2.1 3.4-1.9s-.9 4.5-2.5 9.5-3.4 12.1-4 15.8c-1 6.5-1 6.9 1.4 10.6 4.8 7.2 16 11.6 22.6 8.9 3-1.2 6.2-6.7 9-15.3.6-2 1.4-3.7 1.7-3.7 1.4 0-1 23.2-3.2 31.6-2.4 8.8-10.1 24.1-14.7 29-1 1.2-1.8 2.8-1.7 3.5.2.8 0 2.4-.5 3.6-.4 1.2-.2 3.1.4 4.3 1.1 2 1.7 2 62.7 2 54.1 0 61.4-.2 60.3-1.5-1-1.2-.6-2.4 1.9-6.5 3.6-5.9 3.6-5.8 1.5-8.1-.9-1-1.9-3.3-2.3-5.1-.5-2.4-1.6-3.8-4.1-5-4.2-2.1-4.8-3.6-4.9-11l-.1-5.6 6.5-.7c7.7-.9 12.5-3.6 13.7-8 .5-1.7 1.3-10.4 1.9-19.5 1.2-20.2 1.8-23.2 4.7-24.5 1.2-.5 2.2-1.8 2.2-2.7 0-1.1.8-1.8 1.9-1.8 2.6 0 5.1-1 5.1-2 0-.5-1.1-2.1-2.4-3.7-1.4-1.6-2.8-4.1-3.1-5.6-.6-2.4-.3-2.9 3-4.3 3.4-1.4 4.1-1.4 8.8.2 12.6 4.1 31.1 15.3 51.5 31.3 8.2 6.3 11.2 8.1 14.8 8.7 3.3.5 5 .2 6.7-1 7.3-5.4 13.9-9.3 17.6-10.6 3.8-1.2 4.8-1.2 9.7.5 3.1 1 9.7 4.6 14.7 7.9 5.4 3.5 10.8 6.3 13 6.7l3.7.5v-87.5l-2.7 1.2c-4.7 2.1-9.6 4.8-13.9 7.8-6.3 4.3-22.2 12.5-29.5 15.3-3.5 1.3-9.8 2.9-13.9 3.6-6.8 1.1-9 1-23.2-1.4-8.6-1.4-17.7-2.6-20.3-2.6-4.2 0-4.7.2-5.6 3-.6 1.7-1.2 3-1.4 3-1.8 0-18-6.2-18.6-7.1-.4-.6-1-3.4-1.3-6.1-1.4-10-8.4-28.7-12.2-32.5-2.6-2.6-9.9-5.1-22.3-7.8-8.7-1.8-14.5-3.6-19.3-6.2-3.7-1.9-6.8-3.9-6.8-4.2 0-1.5 5.6-5.6 8-5.9 1.3-.2 3-.8 3.7-1.4 1-.8 1.3-.4 1.3 1.6 0 1.4.3 2.6.6 2.6 1.7 0 4.6-2.5 5.6-4.8l1.2-2.7.4 2.7c.2 1.6.6 2.8.8 2.8 2.1 0 4.5-2.8 6.9-8.2 1.5-3.5 3-6.5 3.2-6.8.2-.2 1.4.9 2.7 2.5l2.3 2.9 2.6-2.8c2.5-2.7 2.6-2.7 5.7-1.1 5.4 2.8 6.4 1.3 3-4.2-3.6-5.7-3.9-8.3-.7-8.3 1.2 0 3.2-.3 4.5-.6 2.1-.6 2-.9-2.5-5.3-7.9-7.6-8.2-8.7-4.2-17.7 2.2-5 4.1-7.9 5.5-8.5 2.8-1 3.3-1.9 4.9-8l1.3-4.9-4.8-3.7c-4.3-3.5-9.9-10.3-8.4-10.3 1.4 0 12.8 3.9 18.4 6.3 7.2 3.1 10.5 3.6 12.7 1.8 3.7-3 5.5-15.7 3.4-23-1.3-4.1-1.1-4.3 3.1-4.6 5.9-.4 16.3-2.8 18.6-4.3 3.2-2.1 2.8-4.9-1-7.2-3.9-2.3-10.4-10.4-14.5-18.1-3.4-6.5-4.3-8.9-4.9-14.4-.3-2.2-.6-4.9-.9-6-.2-1.1-.4-2.8-.4-3.8-.1-1.3-1-1.7-4.6-1.7-3.2 0-6.4 1.1-12 4"/></svg>