<svg xmlns="http://www.w3.org/2000/svg" width="682.667" height="512" version="1.0" viewBox="0 0 512 384"><path d="M148 1.5c0 .8.9 3.1 2 5.2 1 2.1 2.1 5.1 2.4 6.6.3 1.6.9 3.4 1.4 4 .5.7 1.3 2.7 1.7 4.5s1.3 4.5 2.1 6 1.4 3.4 1.4 4.3c0 .8.7 2.4 1.5 3.5.8 1 1.5 2.5 1.5 3.3s1.4 3.6 3.1 6.3c3 4.6 3.3 4.8 7.8 4.8h4.6l.2 7.2c.8 23.2.9 22.6-3.7 32.3-9 19.1-9.2 20.1-4.5 15.5l3.4-3.3-4 13.4c-4.7 15.6-6.1 21-5.6 21.6.3.2 1-1 1.7-2.7 2.2-5.2 2.9-3.3 2.8 7-.2 10.8.6 13.8 1.6 6.5 1-6.2 2.6-5.7 2.6.9 0 4.1-1 7.6-4.6 15.7-5.1 11.8-8.4 20.4-8.8 23.4-.2 1.1-.7 2.9-1.3 4s-1.6 4.5-2.2 7.5-1.7 6.7-2.5 8.1c-.7 1.5-1.2 5.4-1.1 9.5.1 3.8-.3 7.4-.8 8.1s-.7 3.7-.5 6.8c.1 3 0 5.5-.4 5.5-.3 0-.5 8.6-.3 19.1l.3 19.1-12 30.2c-6.6 16.5-12.7 31.4-13.5 33-1.5 2.9-1.5 3 3.5 7.7l5.1 4.8-1.3 4.3c-.7 2.4-2.5 7.9-4 12.3-1.4 4.4-2.6 9.9-2.6 12.2v4.3h47.6l4.3-10.2c15.6-36.7 23.3-81.3 21.7-125.7-.5-15.2-.4-17.7 1.1-20.2 1-1.6 2.2-2.8 2.7-2.6 1.4.5 6 15.2 8.1 25.6 1.5 7.4 1.6 10.3.6 26-.7 9.7-1.1 19.2-1 21.1s-.2 4.7-.5 6.1c-.5 1.6-.3 2.9.3 3.3 1.8 1.2 1.3 3.1-2.8 10.3-5.7 9.8-9.5 19.9-14.2 37.4-2.2 8.5-5.1 18.4-6.4 22.1l-2.4 6.8h81c47.6 0 80.9-.4 80.9-.9s1.9-1.5 4.2-2.3c3-.9 5-2.5 7-5.3 4-5.9 4.4-10.8 1.9-23.4l-2.2-10.8 3.5-7.3c2-4 3.6-8.4 3.6-9.6 0-1.3-2.8-8.7-6.3-16.6s-8.5-19.5-11.2-25.8c-2.6-6.3-6.1-14.6-7.6-18.4-1.6-3.8-4.8-14.5-7-23.9l-4.1-17 2-3.6c1.1-2 3-5.4 4.2-7.6 4.1-7.2 1.2-11-9.3-12.2-6.1-.7-6.2-1-7.7-18.4-1.3-15.2-1.6-17-4.1-21.9-2.7-5.3-16.5-17.4-22-19.2-.8-.3-.3-1.8 1.4-4.3 4.2-6.4 4.2-6.4-5.6-6.9-4.9-.3-9.1-.7-9.3-.9-.7-.7 4.5-11.9 6.1-13.1 2.1-1.7 11.3-20.2 13.1-26.5 2.4-8.4 2.5-8.5 7.8-8.6 4.1 0 5.2-.5 7.2-3 1.3-1.7 2.4-3.6 2.4-4.3 0-1.7-3.7-9.7-7.6-16.2-1.8-3-3.6-7.4-4-9.8l-.7-4.4 4.9.7c2.7.4 5.6 1.1 6.4 1.5 3.9 2.1 10-1.9 8.6-5.6-.3-.8.1-1.7 1-2.1.8-.3 1.4-1.3 1.2-2.3-.2-.9.3-2.4 1-3.2.7-.9 1.4-3.3 1.6-5.4.3-2.2.9-5.2 1.5-6.7.8-2 .8-3.4.1-4.8-.8-1.5-.7-2.3.5-3.5 1.5-1.6 2-6 .9-8.8-.6-1.4-9.5-1.6-91-1.6-78.8 0-90.4.2-90.4 1.5m54.9 202.2c.1 3.4-1.5 4.3-3.6 2.2-1-1-.8-2.5 1.3-11.4.7-2.9.8-2.9 1.5 1.5.4 2.5.8 6 .8 7.7m.1 8.7c0 1.1-1.9 1.5-2.5.6-.3-.5.1-1 .9-1 .9 0 1.6.2 1.6.4"/><path d="M167.2 157c0 1.9.2 2.7.5 1.7.2-.9.2-2.5 0-3.5-.3-.9-.5-.1-.5 1.8"/></svg>