<svg xmlns="http://www.w3.org/2000/svg" width="682.667" height="512" version="1.0" viewBox="0 0 512 384"><path d="M244.9 37c-10.4.6-13.6 1.2-18.1 3.2-13.8 6.3-20.9 18-23.8 38.6-.9 6.7-.8 8.7.5 12.6 1.8 5.4 2.1 4.9-5.9 12.7-2.7 2.7-5.3 4.6-5.8 4.3s-2.1-.3-3.5.1c-2.2.5-2.4 1-1.9 3.9.5 2.5.2 3.7-1.4 5.1-1.1 1-2 2.1-2 2.6 0 1.3 17.7 13.9 19.7 13.9 1 0 2.5-.6 3.2-1.3 1-1 1.5-.8 2.7.8.8 1.1 1.2 2.5.9 3.3s.2 1.2 1.3 1c1.4-.2 1.7.4 1.5 3.4-.3 4.6-3.5 11.3-7.6 15.5-3.4 3.6-3 3.9 3.7 3.4l2.8-.3-.7 6.1c-.8 7.2.1 7.7 4.3 2.5l3-3.6 3.1 4.6c3.8 5.4 5.1 5.8 5.1 1.4v-3.2l6.1 6.5c5.5 5.8 6 6.1 5.4 3.4l-.6-3 2.9 3.4c1.7 2.1 3.3 3.1 4 2.7s.9-1.2.6-1.8c-.4-.7-.2-.8.4-.4 1.6 1-.6 4.3-3.3 5-1.1.3-6 1-11 1.6-12.9 1.6-21.7 4.5-26.5 8.9-4.2 3.9-10.2 15-14.1 26.4-2.9 8.1-2.8 8.1-19.4 8.1-16.9 0-22.8-2.5-45-19-10.9-8.1-19.6-13-30.8-17.4-6-2.4-7.7-4.2-7.7-8.4 0-1.4-.8-3-1.9-3.5-2.4-1.3-3.9.3-12.9 13.9-14.8 22.5-30.5 39.5-57.9 63L0 269.1v10.7l8.8-2.8c4.8-1.5 11.8-3.3 15.6-4.1 6.5-1.2 7.4-1.2 15.5 1.1 4.7 1.3 10.9 2.4 13.6 2.4l5 .1 5.5-11.2c6.3-12.9 7.4-14.3 10.5-14.3 2.4 0 4.6 2.3 7.8 8 1.7 3.1 1.8 3.2 3.2 1.4.8-1 1.5-2.9 1.5-4.1.1-5.7 2.5-6.6 8.8-3.4 8.5 4.4 15.2 11.4 15.2 16 0 3.1 2.3 2.5 11.7-2.9 12.5-7.3 19.7-6.9 30.2 1.8 7 5.8 9.1 7 11.4 6.4 1.2-.3 5.8-3.3 10.2-6.7 13.4-10.3 14.2-10.7 17.6-10 2.6.6 3 1 2.5 3.1-.5 2-.1 2.8 2.4 4.2 3.5 2 3.5 1.6 1.9 23.2-1.3 17.4-1 18.3 6.5 22 2.6 1.2 4.6 2.5 4.6 2.8 0 .4-1.1 4.3-2.3 8.7-2 7.1-2.6 8.2-5.6 9.6s-3.3 1.9-3.5 6.8c-.2 3.4-1.1 6.2-2.5 8.1-1.7 2.4-1.9 3.4-1.1 5.5.6 1.5.8 3 .6 3.4-.3.4-.1 1.3.4 2.1.7 1.1 1.2 1.1 2.3.2 3.1-2.6 2.2.6-3.9 13.4l-6.3 13.4h65.5c62 0 65.4-.1 64.6-1.8-.5-.9-2.4-4.7-4.1-8.4s-4.7-9.5-6.6-12.8l-3.5-6.1 3-5.3c3.6-6.4 3.7-7.4.5-10.5-1.4-1.3-2.5-2.9-2.5-3.7s-1.1-2-2.5-2.6c-2.5-1.1-2.5-1.2-2.4-13.2.1-16 1.5-20.8 3.3-12 .4 1.7 2 4.4 3.6 5.9 2.7 2.5 3.3 2.7 9.4 2.3 7.1-.4 11-2.5 13.4-6.9 1.3-2.4 1.1-15.5-.4-33.7-.7-8.3.6-12.2 4-12.2 4.6 0 5.1-1.6 1.8-5.5-3.4-3.7-4-5.5-2-5.5 3.1 0 24.1 13 33.7 20.9 15.9 13.2 19.2 14.4 24.9 9.6 5.3-4.5 14.1-8.5 18.6-8.5 4.3 0 14.3 5.1 20.8 10.5 4.3 3.6 7.2 3.3 9.5-1.1 2.9-5.7 16.2-11.4 26.4-11.4 5 0 6.2 1.8 5.7 8.5-.5 6 .4 7.8 2.2 4.5.6-1.1 1.6-2 2.2-2s3.5-2.2 6.4-5c5.6-5.3 8.4-6.1 12.2-3.4 2.3 1.6 14.2 18.6 14.2 20.3 0 .5.5 1.3 1 1.6.7.4 1-10.2 1-31.2l-.1-31.8-6.7-7.1c-3.7-3.9-9.4-10.6-12.7-15-10.3-13.8-13.7-17.4-17.6-19.5l-3.8-1.9-.7 5c-.4 2.7-1.4 5.6-2.3 6.4s-6.4 3.1-12.1 5.1c-12.3 4.3-14.3 5.3-28.6 14-19.8 12-31.3 16.4-42.9 16.5-2.7 0-10.9-1-18-2.2-13.6-2.3-16.3-2.1-17.2 1.2-.9 3.4-7.3 2.3-7.3-1.2 0-5.4-10.7-31.5-15.2-36.9-2.5-3.1-10.2-6.1-21.7-8.5-15.7-3.3-27-7.6-24.2-9.3.5-.4 1.9-2.7 3-5.1l2.1-4.5v3.4c0 2.8.2 3.2 1.5 2.1.8-.7 1.2-1.7.8-2.4s-.1-.7.8.1c1.2 1 1.8 1 2.7.1.7-.7 1.2-.8 1.2-.3.1.6.7-.1 1.5-1.5l1.3-2.5.7 2.8c.8 3 2.2 3.5 3.1 1.2.5-1.2 1-1.3 2-.4 1.1.9 1.4.5 1.5-2.2.1-3.4.1-3.4 1.2-.9 1 2.1 1.5 2.4 3.5 1.5 1.5-.7 2.1-1.6 1.8-2.8-.5-2 2-8.7 3.2-8.7.4 0 1.3.9 2 2.1 1.1 1.6 1.6 1.8 2.8.9.8-.7 1.4-2.1 1.4-3.1 0-2.3.1-2.3 4.7-.4 2 .8 3.8 1.3 4 1.1.3-.2-.9-2.3-2.6-4.6-3.4-4.7-3.3-6 .7-6 4.7 0 5.5-1.4 1.9-3.4-4.4-2.4-8.3-7.4-6.9-8.8.6-.6.9-1.6.6-2.2-.2-.6.7-2.9 1.9-5.1 1.7-2.9 2.9-3.9 4.3-3.7 2.7.4 5.1-2.4 5.9-6.9.6-3.3.3-3.9-4-8-5.3-5-8.4-9.9-6.3-9.9.7 0 3 .9 5.1 2 2 1.1 3.7 1.8 3.7 1.6s3.5 1.3 7.7 3.4 8.2 3.6 8.9 3.3 1.8-2.1 2.5-4.1c.6-2.1 1.6-4.2 2.1-4.9 1-1.2.5-6.8-1.1-12.1-1.2-4-1.5-3.9 10.9-4.6 5.2-.3 9.6-.5 9.8-.6 1.1-.1-.3-3.6-2.5-5.8-8-7.9-13.4-20.5-13.8-32.6-.2-5.1-.8-8.2-1.6-8.7-1.7-1-9.7-.3-11.3 1-.7.6-1.6.8-1.9.4-.4-.3-1.6.2-2.8 1.3-1.2 1-2.2 1.7-2.3 1.4 0-.3-1.9.6-4.1 2-2.1 1.4-5.3 3.3-7 4.4-1.6 1-3.4 2.4-3.8 3.2S320 54 319 54s-2.2.5-2.5 1c-.4.6-3.4-1.8-6.8-5.3-12.9-13.2-22.5-15.1-64.8-12.7"/></svg>