<svg xmlns="http://www.w3.org/2000/svg" width="682.667" height="512" version="1.0" viewBox="0 0 512 384"><path d="M229 53.4c-14.5 3.1-24 12.8-29 29.4-1.8 6-2.2 9.1-1.8 16.8l.4 9.5-4.3 4c-3 2.7-5.1 3.9-7.3 3.9-2.4 0-3.3.6-4.2 2.7-.7 1.6-2.6 4-4.3 5.4l-3 2.7 7.2 7.1c6.6 6.4 11.3 9 11.3 6.1 0-2.1 1.6-.8 4.4 3.6l2.9 4.6-2.1 4.4c-1.2 2.4-3.7 6.1-5.7 8.2l-3.5 4 3.5.6c1.9.4 3.5.9 3.5 1.1s-.9 2.8-2.1 5.7l-2 5.3 4-3.9c2.2-2.2 4.3-3.8 4.5-3.5.3.3 1.4 2.5 2.4 4.9l2 4.5 1.1-2.8c.6-1.6 1.1-3.8 1.1-5 .1-1.4 1.4.5 3.5 4.9 4 8.3 6.5 11 6.5 7.3.1-2.4.1-2.4 1.6.3 2 3.9 3.4 3.5 3.5-1v-3.7l2 4c1.1 2.3 1.7 3 1.5 1.7-.4-2.3-.4-2.3 1.5-.6 1 .9 1.9 1.3 2 .8 0-.5.5.2 1 1.6.7 1.8 1.2 2.1 1.8 1.1s1-.9 1.5.4c1.5 4-2.5 5.6-19.9 8.1-16.1 2.2-21.7 4.4-25.4 9.7-4.2 6.1-9.1 18.6-11 27.9-1.2 5.4-1.4 5.8-4.9 6.8-5.8 1.6-6.9 1.3-8.1-2.1l-1.1-3.2-8.2.7c-4.6.3-11.7.9-15.9 1.2-13.2 1.1-26.2-2.9-40-12.3-21.3-14.5-26.5-17.6-36-21.3-5.7-2.3-11.2-5-12.1-6.2-1.1-1.2-1.8-3.7-1.8-5.9 0-2.1-.4-3.9-.8-3.9-1.3 0-8.5 8-15.7 17.5-8.6 11.2-12.5 15.7-24.2 27.2L0 242.8l.2 23.8.3 23.7 4.2 1.5c4 1.5 4.4 1.5 6.3-.3 1.2-1.1 4.6-6.1 7.5-11.1 7.6-12.8 9.9-15.4 14-15.4 3.6 0 6.5 2.7 10.6 10 1.2 2.1 2.6 3.7 3 3.5.4-.3 1-2.9 1.4-5.8.9-6.6 1.8-7.7 6.4-7.7 7.5 0 20.1 8.4 22.8 15.1.8 2.2 1.7 3.9 1.9 3.9s3.1-1.8 6.5-4c6.6-4.2 15.6-8 19.2-8s11.8 4.4 17.5 9.4c3 2.5 5.9 4.6 6.5 4.6s7.4-4.2 15.1-9.4c19.5-13 37.2-21.8 41.1-20.3 1.6.7 1.6.9-.3 4.1-2.1 3.5-1.5 5.6 1.6 5.6 1.1 0 1.3.8.9 2.9-.6 2.9 1.5 6.1 4 6.1 1.7 0 2.4 5.8 2.4 20 0 14.3-.2 13.7 6.7 19.2 1.2 1 1.9 2.4 1.6 3.2-.3.9-1.3 5.3-2.2 9.8l-1.7 8.3-5 1.7c-2.7 1-5.8 2.1-6.7 2.4-2.4.8-2.3 4.1.2 5.4 2.7 1.4 4.8 8.5 3.2 11-.9 1.5-.8 2.2.4 3.5 1.4 1.4 1.4 1.8-.5 4.8-1.1 1.7-4 6.8-6.5 11.2l-4.5 8 59.6.3c32.8.1 59.8.1 60-.2.2-.2-1.3-4-3.3-8.5-3.5-7.7-3.6-8.2-2-10 .9-1 2.6-4.2 3.7-7.1l2-5.3-4.3-4.4-4.3-4.4.1-14.2c.4-37.3.9-47.7 2.1-47.7 1.5 0 1.5.2 4.7 18.8 1.3 7.8 3.1 15.4 4 16.7 2.5 3.9 8.3 5.1 14.4 3.1 10.4-3.5 12.7-10.7 9.8-30.5-.9-6.2-1.5-11.5-1.2-11.8.2-.2 4.6 3.4 9.8 8.1 5.1 4.7 10.1 8.6 11 8.6 1 0 5-2.2 9-4.8 8.4-5.6 13.4-7.3 18-6.3 5.1 1.2 11.6 4.9 16.4 9.3 2.4 2.2 4.8 3.7 5.4 3.3.6-.3 1.7-2.2 2.4-4 2.3-5.4 14.8-10.8 23.9-10.3l5.2.3.3 6.9.3 6.9 3.1-4.4c10.4-14.6 13.5-13.7 25.1 7.2 2.9 5.1 5.9 9.7 6.8 10.2 1 .7 4.8-.3 12.7-3.2 6.2-2.2 12.5-4.1 14-4.1 1.6 0 7.9 1.3 14 2.9l11.2 2.8v-6.8c0-3.8-.4-6.9-.8-6.9-1.8 0-30.4-23.8-40.2-33.4-15.8-15.5-20.9-21.6-36.8-44.1-5.6-7.9-9.2-9.9-9.2-5.1 0 5.6-1.6 7.3-8.7 9.6-11.8 3.9-17.8 6.7-31.8 15.1-21.2 12.7-29.7 15-45.9 12.6l-9-1.3-.2-3.9c-.4-6.7-6.2-18-15.2-29.7-5.3-6.8-11.1-9.7-25.6-12.8-12-2.6-21.6-6.6-21.6-8.9 0-2 5.1-10.1 6.2-10.1.5 0 .6 1 .3 2.2-.3 1.3-.2 3.6.3 5.3l.8 3 3.1-4.2c3.1-4.3 4.3-4.6 4.3-.9 0 4.7 1.7 4.9 4.3.6 2.2-3.8 2.6-4 3.6-2.4.9 1.7 1 1.5 1.1-1.1 0-1.7.3-4 .6-5.3.6-2.2.8-2.1 2.3 1.4l1.7 3.7 1.7-3.9 1.8-4 4.1 3.9c2.2 2.1 4.2 3.6 4.4 3.4.3-.2-.5-2.5-1.6-5.1-2.9-6.9-2.8-7.1 3.2-6.8l5.3.3-3.1-2.8c-3.7-3.3-8.4-11.2-8.3-13.9 0-1.1.3-1.4.6-.6.4 1 .8 1 1.9.1s1.8-.8 3.1.2c1.5 1.3 1.6 1.1 1-2-.6-2.8-.2-4.3 1.8-7.3l2.6-3.9 2 2.5c3.6 4.6 6.9 2.3 6.9-4.8 0-2.7-.9-4.6-3.4-7.3-2.8-3.2-6.6-9.2-6.6-10.6 0-.2 3.6 1.3 8 3.4 4.5 2.2 8.5 3.9 9 3.9 1.8 0 4.2-10.1 3.8-15.6-.3-3-.1-5.7.3-5.9.8-.6 10.4-1.7 13.2-1.7.9.1 1.7-.4 1.7-.9 0-.6.5-.7 1-.4 1.4.8 4-1.3 4-3.2 0-.7-1.6-2.9-3.5-4.9-4-4-11-17.2-12-22.8-.4-2.1-.8-6.5-.9-9.9-.1-7.6-1.4-8.2-7.8-3.2-2.6 1.9-5.1 3.5-5.7 3.5s-2 1.3-3.3 3c-1.2 1.6-2.7 3-3.4 3s-2.1 1-3.1 2.3c-1 1.2-2.9 2.7-4.3 3.3-2.3 1-2.7.8-5.8-3.7-5.8-8.6-15.9-14.9-26.4-16.4-4.6-.6-40.6-3.5-42.3-3.4-.5 0-3.5.6-6.5 1.3m4.7 131.8c-.3.7-.5.2-.5-1.2s.2-1.9.5-1.3c.2.7.2 1.9 0 2.5"/></svg>