<svg xmlns="http://www.w3.org/2000/svg" width="682.667" height="512" version="1.0" viewBox="0 0 512 384"><path d="M224.8 51.3c-10.8 4.1-17.1 10-22.4 21-4.3 9-5.7 16.3-5.2 25.9l.5 7.8-4.3 4c-2.6 2.4-5.3 4-6.8 4-2.7 0-5.6 2.4-5.6 4.5 0 .8-1.3 2.1-3 3-1.6.9-3 2.1-3 2.9 0 1.3 14.2 15.6 15.5 15.6.4 0 1.3-.8 2-1.7 1.2-1.6 1.5-1.4 3.4 1.7 3.9 6.4 2.1 13.9-5.3 21.7l-3 3.3h3.8c4.1 0 4.1.2 1 7.9-.8 1.9-1.3 3.6-1.1 3.7.2.2 1.9-1.2 3.7-3.1 1.9-1.9 3.7-3.5 4-3.5.4 0 1.5 2 2.5 4.4 1 2.5 2.2 4.3 2.6 4 .4-.2 1-2.3 1.4-4.5l.7-4.2 2.3 4.5c2.8 5.6 7.4 12.8 8 12.8.3 0 .3-1.1-.1-2.5-.9-3.6.3-3.1 2.5 1.2l2 3.8.1-5.5.1-5.5 1.9 4c1.3 2.9 1.9 3.4 2 2 .1-1.1.4-1.5.6-.8.3.7 1.1 1 1.8.7.8-.3 1.6.5 2 2.1.4 1.4 1 2.3 1.5 2 .5-.2 1.2.2 1.5 1.1 1 2.5-6.5 5-20.4 6.8-16.7 2.3-21.7 4.5-25.7 11.7-4 7.1-8.2 17.8-9.6 24.5l-1.1 5.5-6.4 1.9c-8.5 2.7-10.6 2.6-12-.5L156 237l-17.7.2c-16.1.3-18.5.1-24.8-1.9-8.7-2.8-16.3-7.2-28.5-16.8-11-8.6-19-13.5-30.9-18.8-11.1-4.9-12.3-6.1-11.9-11.1.2-3.1-.1-4.1-1.4-4.4-1.7-.3-1.9-.1-18.6 20.8-5.5 6.9-12.8 15.3-16.1 18.7L0 230v29.5c0 17.9.4 29.5.9 29.5 1.4 0 5.1-5.3 10.2-14.4C15.9 266 21.2 260 24 260c2 0 7.6 6 10.3 11 1.5 2.7 2 3.1 2.8 1.9.5-.7.9-3.2.9-5.5 0-4.5 2.2-7.4 5.7-7.4 3.2 0 14.1 5.9 18.3 9.9 2.5 2.4 4.1 4.9 4.5 7.4.8 4.2 1.6 4.5 5.5 1.7 1.6-1.1 5.9-3.5 9.7-5.2 12-5.7 19.4-4.2 30.3 5.9 3.2 2.9 6.5 5.3 7.4 5.3s6.9-3.5 13.4-7.8c15.5-10.5 24.5-15.6 33.4-19.1 10.4-4.2 14.1-4.7 17.1-2.5l2.4 1.9-3 3.7c-1.7 2.1-2.8 3.9-2.6 4.1s1.6.8 3.1 1.4c1.9.9 2.5 1.7 2.1 3.2-.3 1.3.3 2.5 2.1 3.6l2.6 1.7v17.9c0 19.7 0 19.8 6.8 23.3l2.9 1.5-1.3 7.8c-.7 4.3-1.3 8.3-1.3 8.9-.1 1.3-4.5 3.4-7.2 3.4s-7.9 3.1-7.9 4.6c0 .7 1.5 2.1 3.3 3.1 2.3 1.4 3.7 3.2 4.5 6 1.5 4.9.5 8.6-4.1 15.6-1.8 2.9-4.8 7.8-6.6 10.9l-3.2 5.8H297l-2.5-5.6c-3.1-6.9-3.2-11.9-.4-19.5 2-5.5 2.1-6 .5-8.1-.9-1.3-2.7-3.7-4-5.4-3.6-5.1-5.1-20-3.6-35.9.7-6.9 1-16 .6-20.2-.8-9.5 1.3-9.7 3.2-.2 4.7 24.3 5.5 27.4 8.3 30.1 2.2 2.2 3.7 2.8 7.1 2.8 5.3 0 12.1-3 14.2-6.2 2.8-4.4 2.9-13.3.2-26.3-1.4-6.5-2.4-12-2.2-12.2.1-.1 3.9 3.1 8.4 7.2 4.6 4.1 9.1 7.5 10.2 7.5s4.7-1.8 7.9-4c13.7-9.4 21-8.7 35.4 3.2 2.7 2.2 5 3.9 5.1 3.7.2-.2 1.1-2.1 2.1-4.1 1.1-2.6 3-4.3 5.8-5.7 5.9-2.8 17.2-5.4 20.2-4.7 2.4.6 2.5.9 1.9 6.4-.5 5.7-.5 5.7 1.3 3.4 6-7.8 8.6-10.2 11.3-10.2 3.7 0 5.1 1.8 11.4 15.3 3.1 6.5 6.3 12 7.2 12.4.9.3 6.9-.6 13.3-2.1 13.5-3.2 11.5-3.4 36 4.5 8.4 2.8 15.5 4.8 15.8 4.5 1.4-1.4-2-5.4-12.9-15.2-28.3-25.3-47.9-46.9-59.9-66.2-9.9-16.1-16.5-25.7-17.4-25.7-.5 0-1.3 1.7-1.8 3.7s-1.6 4.3-2.5 5.1-6.7 3.1-12.8 5.1c-6.5 2.1-15 5.9-20.5 9.1-26.8 15.7-36 18.4-53.9 15.7-4.3-.7-4.5-.8-5.1-4.7-1.2-8.2-9.4-22.1-18.2-30.9-5.5-5.5-4.3-5-27.7-12-4.7-1.4-10-3.5-11.8-4.6l-3.3-2 2.7-5c1.5-2.8 3.4-5.6 4.2-6.2 1.3-1.1 1.4-.6.7 3.1-.5 2.9-.4 4.1.3 3.7.6-.3 1.2.2 1.4 1.1.3 1.4 1.1.8 3.2-2.5 3.2-4.7 5.1-5.5 4.4-1.7-.3 1.3-.1 2.2.3 1.9.5-.3.9.7.9 2.3 0 2.7.1 2.6 2.6-1.5 2.7-4.6 4.4-5.4 4.4-2.1 0 1.1.5 1.7 1 1.4.6-.3 1-2.5 1.1-4.8 0-3.5.2-3.8.9-2 1 2.5 3 3.1 3 1 0-.7.6-2.1 1.3-3.1 1.3-1.7 1.5-1.6 4.7 1.3 5.3 4.8 6.2 4.3 3-1.9-1.1-2.2-2-4.4-2-5 0-.5 2.2-1 5-1h5l-3.8-3.8c-2.1-2.1-4.4-5.2-5.1-7-1.2-2.8-1.1-3.5.4-5.9l1.8-2.7 1.9 2.4c2.4 3 3 2.3 1.6-2.2-.9-3.2-.8-4 1.1-6.7 1.2-1.7 2.6-3.1 3-3.1.3 0 1.5 1.3 2.4 3 3.2 5.3 6.7 3.2 6.7-3.8 0-3.3-.7-5.2-2.5-7.4-2.8-3.3-6.9-10.8-6-10.8.8 0 7 4.8 10.8 8.3 1.6 1.5 3.3 2.4 3.7 2 1.8-2 3-8.3 3-15.5v-7.9l3.3.6c15.9 2.8 16.3 2.8 15.9-.5-.2-1.4-1.3-3.4-2.6-4.6-2.3-2-7.4-14.5-9.6-23.3-.7-2.6-.9-6.8-.5-10.2.6-5.2.5-5.8-1.4-6.4-2.8-.9-10 1.2-13.8 4.1-1.7 1.3-3.8 2.4-4.6 2.4s-2.2.9-3.2 2-2.1 1.7-2.6 1.5c-.4-.3-1-.1-1.4.5-1.1 1.8-2.3 1.1-4.8-3.3-3.3-5.6-11.7-13.4-17-15.7-7.7-3.3-25.4-5.8-47.7-6.6-9.1-.3-13.5-.1-16.2.9m8.2 131.9c0 .5-.4.8-1 .8-.5 0-1-1-1-2.3 0-1.8.2-1.9 1-.7.5.8 1 1.8 1 2.2"/></svg>