<svg xmlns="http://www.w3.org/2000/svg" width="682.667" height="512" version="1.0" viewBox="0 0 512 384"><path d="M221.1 48.3c-7 2.8-16 11.7-19.7 19.5-5.3 11.2-7.7 24.6-5.4 30.6.8 2.3.5 2.9-3.5 6.3-3.1 2.5-5.5 3.7-7.7 3.7-2.7.1-3.6.7-4.6 3.1-.8 1.7-2.7 3.8-4.3 4.7-1.6 1-2.9 2.2-2.9 2.7 0 1.4 11.8 15.1 13.6 15.8.8.3 2 .1 2.7-.5.9-.8 2 .2 4.1 4.3l2.9 5.3-1.7 4.7c-1 2.6-3.6 6.5-5.7 8.7-2.2 2.3-3.9 4.3-3.9 4.5 0 .1 1.6.3 3.5.3 4.1 0 4.1.3 1.6 7-1.1 2.7-1.6 5-1.2 5s2.2-1.6 4.1-3.5l3.4-3.6 2.5 5.3 2.4 5.3 1-4.3c1.1-4.6 2.2-5.4 3.2-2.1.4 1.1 2.3 4.8 4.3 8.2 3.2 5.3 3.7 5.8 4.2 3.7l.5-2.3 1.2 2.7c1.7 3.6 3.6 3.4 3.1-.4-.6-4.2.8-4.7 2.1-.7.9 2.5 1.4 2.9 2.1 1.7.5-.8 1-1.1 1-.5 0 .5.4.3 1-.5.7-1.1 1.1-.9 1.9 1.2.5 1.4 1.5 2.9 2.1 3.3 3.4 2.1-4.1 5.1-17.5 7-19.6 2.7-24.5 5.1-28.7 13.7-2.9 5.9-8.4 20.9-9.2 25-.5 2.3-1.7 3-8.8 5.4-4.6 1.5-8.8 2.9-9.5 3.1-.6.3-1.7-.8-2.5-2.4l-1.3-2.8-17-.1c-26.9-.2-31.7-2.2-61.6-26.4-3.5-2.8-12.3-8.1-19.6-11.8-13.9-7-14.3-7.4-14.3-14.5 0-2-.4-3.7-.8-3.7-1.2 0-8.6 8.1-19.4 21-5.3 6.3-11.7 13.5-14.2 16L0 221.4v56.9l5.5-8.9c3.1-4.9 6.7-9.9 8.1-11.2 5.1-4.5 9.8-2 14.4 7.7 1.3 2.8 2.7 5.1 3.1 5.1s1.1-2.1 1.5-4.7c1.3-8.9 1.8-9.6 6.9-9.1 8.1 1 19.5 9.9 21.7 17 .6 2.1 1.5 3.8 1.9 3.8s4-1.7 8.1-3.9c16.1-8.5 23.3-7.7 36.5 4.3 3.3 3.1 6.7 5.6 7.4 5.6s8-4.5 16.2-10.1c16.3-10.9 29.6-17.8 39.3-20.5 6.1-1.6 6.2-1.6 9.3.7 3.9 2.9 3.9 4.2 0 8.7-3.2 3.6-2.8 5.1 1.4 5.2 1 0 1.7.8 1.7 2 0 1 1 2.4 2.1 3.1 2.1 1.1 2.2 1.5 1.6 20-.5 18.9-.5 18.9 1.9 21.8 1.3 1.6 3.8 3.4 5.5 4.1l3.2 1.4-.6 6.9c-.7 8-1.6 9.4-6.6 10.3-4.5.8-9.1 3.4-9.1 5.2 0 .7 1.6 2 3.5 2.8 3.4 1.4 6.5 6.3 6.5 10.2 0 .8-2.2 4.9-4.8 9.1-2.7 4.2-6.3 10.2-8 13.4L175 384h122.1l-.6-2.1c-.4-1.2-1.5-4-2.5-6.2-1.2-2.6-1.5-4.8-1-6.1.4-1.1.3-3.4-.1-5-.6-2-.4-4.4.6-7.3 2.1-6.1 1.9-6.8-1.9-11-2.8-3.1-3.9-5.8-6.1-15.1l-2.8-11.3 1.2-17.7c.7-9.7 1.4-18.4 1.5-19.2s1.2 3.7 2.4 10c3.5 17.5 6.1 25.8 9 28.1 4.4 3.4 13.8 1.9 19.1-3 2.9-2.7 3.1-3.3 3.1-10.3 0-4.7-1.1-11.5-3-19.2-3.2-12.8-3.6-16.1-2-17.1.6-.4 5.1 2.9 10.1 7.2 4.9 4.3 9.7 8.2 10.5 8.6 1.1.6 3.1-.2 6.7-2.6 7.1-4.9 13.5-7.7 17.8-7.7s11.2 3.5 19.3 9.7c3.3 2.5 6.1 4.2 6.3 3.7 2.9-8.4 11.4-12.7 24.8-12.8l7-.1-.2 4.7c-.1 5.5.6 6 3 1.9 2.3-4 8.4-9.1 10.7-9.1 3.6 0 8.8 5.9 13.9 15.9 2.8 5.4 5.8 10.4 6.6 11.1 1.4 1.2 3.5 1 13.6-1 13.7-2.8 16.1-2.5 35 3.6 5.8 1.9 11.1 3.4 11.7 3.4.8 0 1.2-1.8 1.2-4.6 0-3.8-.5-5-2.7-6.8-1.6-1.1-10.4-8.7-19.8-16.7-27.1-23.3-39-36.5-56.2-62.4-6.9-10.4-12.1-16.8-12.4-15.4 0 .2-.6 2.4-1.2 4.9l-1.2 4.5L405 216c-10.2 3.4-16.8 6.5-26.5 12.1-19.8 11.6-24.6 13.3-38 13.4-17.5 0-17.2.2-22.7-11.3-5.9-12-13.6-22.4-19.1-25.6-2.3-1.4-8.4-3.6-13.5-5.1-13-3.6-22.2-7.4-22.2-9.2 0-1.7 2.6-7 5.1-10.2l1.9-2.4.1 3.9c0 2.2.4 4.8.8 5.8.7 1.7 1.2 1.3 4.2-3s3.4-4.6 3.7-2.7c.2 1.3.7 2.3 1.1 2.3s.5 1.5.3 3.2c-.4 2.8-.3 3.1 1 2.1.8-.7 2.3-3.1 3.3-5.3s2.1-4 2.6-4c.4 0 1.4 1.9 2.3 4.2l1.6 4.3-.3-4.3c-.2-2.8.1-4.1.9-3.8.6.2 1.9-1.2 2.8-3.1l1.7-3.6 3.9 3.8c4.1 4 6.3 4.2 3.8.3-.8-1.3-1.9-3.7-2.5-5.4l-1.1-3 5.7.4 5.6.4-3.7-3.5c-3.7-3.5-8.4-11.4-7.4-12.5.3-.3.6-.2.6.3 0 .4.9 0 2-1 1.6-1.5 2.2-1.6 3.5-.5 2.2 1.8 2.7.8 1.5-2.5-1.1-2.8-.8-3.5 3.5-9 1.5-1.9 1.6-1.8 4.4 1.5 2.7 3.3 3.1 3.4 4.6 1.9 3-2.9 2.1-8.2-2.4-15-2.3-3.4-4.1-6.5-4.1-7 0-.9 7 2.7 8 4 .7 1 5.3 4.1 6.1 4.1 1.1 0 3.7-13 3.8-19.1l.1-3.6 6.8.2c12.8.5 15.1-1.4 9.3-8-1.5-1.8-4.3-7.2-6.1-12.1-3-7.8-3.4-10.1-3.4-18.7l-.1-9.7-2.8.4c-1.5.2-3.9 1.2-5.2 2-1.3.9-3.1 1.6-3.8 1.6-.8 0-2.2.9-3.3 2.1-1 1.1-3.2 2.7-4.9 3.5-1.6.8-4.4 2.3-6.2 3.3l-3.2 2-3-4.8c-8.8-13.7-17.2-18-41.9-21.6-22.2-3.2-35.5-3.3-43.1-.2M230 181c0 1.3-.1 1.3-1 0-.5-.8-1-2.2-1-3 0-1.3.1-1.3 1 0 .5.8 1 2.2 1 3"/></svg>