<svg xmlns="http://www.w3.org/2000/svg" width="682.667" height="512" version="1.0" viewBox="0 0 512 384"><path d="M225 46.6c-14.2 3.8-24.2 16-29.2 35.6-1.8 7.1-1.9 8.9-.9 13.3l1.2 5-4.3 3.7c-3.1 2.8-5 3.7-7.2 3.5-2.4-.2-3.3.4-4.3 2.5-.8 1.5-2.8 3.7-4.6 4.9-1.8 1.3-3.4 2.4-3.6 2.5-.6.5 6.6 9.7 10.8 13.8 3.3 3.2 4.3 3.7 5.5 2.7 2.2-1.9 7 7.8 6 12.2-.8 3.7-5.5 11-8.5 13-1.7 1.3-1.8 1.5-.4 2.1.9.3 2.5.6 3.6.6 2.4 0 2.4.7 0 7-1.1 2.7-1.6 5-1.3 5s2.3-1.6 4.3-3.6l3.6-3.5 2.3 5.3 2.3 5.3 1.5-5c.8-2.8 1.7-4.3 2-3.5.8 2.7 8.5 16 9.3 16 .4 0 .5-1 .2-2.3-.3-1.9-.2-1.8 1.2.6 2 3.5 3.5 2.6 3.5-2.1l.1-3.7 1.8 4c1.1 2.2 2 3.5 2 3 .1-1.3 4.1-1.7 4.1-.5 0 .5 1 1.8 2.2 2.9l2.1 2.1-4.5 2c-2.4 1.1-9.1 2.6-14.8 3.5-12.9 1.9-20.1 4-23.5 6.7-3.3 2.6-8.4 12.7-12.4 24.8-1.8 5.2-3.4 9.6-3.5 9.8-.7.6-17.1 6.2-18.3 6.2-.7 0-1.3-.8-1.3-1.9 0-3.8-2.2-4.3-15.7-3.6-22.2 1.1-33.2-2.5-51.2-16.6-5.1-4.1-12.1-9.5-15.5-12.2-3.3-2.6-11.2-7.2-17.4-10.2-12-5.9-13.2-7.1-13.2-14.1 0-1.9-.4-3.4-.9-3.4-1.4 0-8.5 7.4-14.9 15.5-3.1 3.8-9.6 11.1-14.4 16.1L0 220.7v56.7l5-8c10.8-17.6 15.3-18.6 22.4-4.5 1.5 2.8 3 5.1 3.5 5.1s1.3-2.4 1.6-5.4c1.3-9.8 5.4-10.7 16.2-3.7 7.3 4.8 10.7 8.5 12.3 13.3.6 2.1 1.3 3.8 1.5 3.8s2.7-1.4 5.5-3c2.8-1.7 7.9-4 11.3-5.1 10.2-3.4 15.9-1.7 27.3 8.2 3.8 3.2 7.4 5.9 8.1 5.9.6 0 8.2-4.7 16.8-10.5 16.4-11 28-17.2 37.8-20l5.8-1.7 3.9 2.7c3.8 2.6 3.9 2.8 2.5 5.4-.7 1.5-2.1 3.3-2.9 4-2.3 2-1.9 3.8.9 4.5 1.4.4 2.5 1.3 2.5 2.1s.9 2 2 2.7c1.9 1.2 2 2.4 2 20.6 0 11.9.4 20.1 1.1 21.4.6 1.1 2.9 2.8 5.2 3.8l4 1.8-.2 6.9c-.2 7.4-2 10.3-6.6 10.3-2.8 0-8.5 3.1-8.5 4.6 0 1.6 2.2 3.4 4.2 3.4s5.7 6.8 5.8 10.3c0 .9-1.5 3.9-3.4 6.5-3.4 4.9-11.6 19.4-11.6 20.5 0 .4 27.2.7 60.5.7 33.8 0 60.5-.4 60.5-.9s-.9-3-2.1-5.6c-1.3-2.9-1.9-5.9-1.6-7.9.2-1.7 0-4.2-.4-5.4q-.9-2.4.6-7.5c1.9-6.6 2-6.1-1.9-10.5-2.6-2.9-4-6-6.1-13.7-1.5-5.5-2.7-11.4-2.7-13 .2-14.8 1.6-37.4 2.2-37 .4.2 1.1 3.2 1.4 6.6 1 8.2 6 27.3 8 30.4 4.3 6.5 20.4 3.3 23.7-4.8 1.4-3.2.6-12.4-1.6-20.7-3.7-13.6-4.7-19.9-3.2-22 1.2-1.8 1.8-1.5 9.7 5.2 13.4 11.1 12 10.7 19.3 6 7.1-4.6 12.9-7.2 16.2-7.2 3.7 0 11.2 3.7 17.7 8.6 8.1 6.1 8.4 6.2 10.1 2.2 1.8-4.4 4.9-6.3 13.9-8.8 8-2.2 14.8-2.6 16.5-.9.6.6.9 3.1.6 5.7-.3 4.1-.2 4.4.9 2.8 2.9-4.3 7.2-8.8 9.7-10.1 2.2-1.1 3.2-1.1 5.8 0 3.8 1.6 5.8 4.3 12.6 16.5 6.2 11.2 5.8 11.1 21.1 8 11.7-2.3 11.7-2.3 32.7 4.1 5.3 1.6 10.1 2.9 10.8 2.9s1.1-1.9 1.1-4.9v-4.9l-15.2-12.7c-29.4-24.5-48.4-45.2-66.9-73.2-3-4.5-6-8.5-6.7-8.8-2.1-.8-3.2.3-3.2 3.1 0 3.7-3.9 6.9-10.1 8.4-9.6 2.2-18.1 5.9-31.8 13.7-22.6 12.9-35.5 16-51.3 12.5l-5.7-1.3-3.1-6.7c-6.3-13.4-14.9-25.1-20.9-28.1-2-1-7-2.9-11.1-4.1-9.6-2.7-20.2-6.7-22.5-8.3-1.6-1.3-1.6-1.5.4-5.3 3.8-7.1 6.7-9.7 5.5-4.9-.7 2.8.2 7.5 1.5 7.5.5 0 2.1-1.9 3.6-4.2 2.6-4 2.8-4.1 4.2-2.2.8 1.1 1.2 3 .9 4.7-.5 2.5-.4 2.6 1.4 1.7 1.1-.6 2-1.7 2-2.5s.9-2.9 1.9-4.6l1.9-3.1 1.2 3.9c1.7 5.4 3.3 6.7 2.5 2-.5-2.4-.3-3.7.4-3.7.6 0 1.8-1.5 2.7-3.3.9-1.7 1.7-3.3 1.9-3.5.1-.1 2.1 1.6 4.4 3.9 2.4 2.2 4.5 3.9 4.7 3.7s-.8-2.6-2.1-5.3c-1.3-2.8-2.5-5.5-2.5-6 0-.6 2.4-.9 5.7-.7l5.8.3-3.3-2.6c-1.7-1.5-4.4-4.6-5.8-7l-2.5-4.4 2.2-2.5 2.3-2.6 2.2 2.1 2.2 2-1.1-3.9c-.9-3.6-.8-4.2 1.9-7.5 1.6-2.1 3.2-3.7 3.5-3.7s1.1 1.1 1.7 2.5c2.5 5.5 7.2 3.8 7.2-2.5 0-2.7-1.1-5.3-4-9.6-2.2-3.3-4-6.5-4-7.2 0-.8 2.7.6 6.5 3.2 3.6 2.5 7 4.6 7.4 4.6 1.3 0 3.9-12.5 4-19.1l.1-3.7 7.6.4c9.7.4 12.3-.5 11.7-4.1-.3-1.4-1.4-3-2.5-3.6-2.4-1.3-6.2-9.5-8.9-19.7-1.7-6-2-9-1.4-14.5l.6-6.8-3.1.5c-1.7.2-4.2 1.2-5.5 2-1.3.9-3 1.6-3.8 1.6-.7 0-2.4 1.1-3.7 2.5s-3 2.5-3.7 2.5c-.8 0-2.5 1.1-3.9 2.5s-2.9 2.3-3.4 2-1.1-.1-1.5.5c-1 1.6-2.3 1.2-3-1-1.2-3.7-8.3-12.2-13-15.6-6.8-4.8-14.7-7-35.2-9.9-20.6-2.8-26.5-3-34.3-.9m4 132.3c.6 1.1.6 2.2.1 2.5s-1.1-.5-1.3-1.9q-.9-4.5 1.2-.6"/></svg>