<svg xmlns="http://www.w3.org/2000/svg" width="682.667" height="512" version="1.0" viewBox="0 0 512 384"><path d="M223.7 47C213 50.4 205.5 57.4 200 69.2c-4.5 9.7-6.3 18.1-5.6 26l.6 6.8-4.1 2.7c-2.7 1.8-5.2 2.6-7.1 2.4-2.4-.2-3 .3-4.1 2.9-.8 1.7-3 4.2-5 5.6l-3.7 2.5 4.4 5.7c6.9 8.9 10.2 11.8 12 10.3 1.3-1.1 1.9-.4 4 3.8 1.5 2.8 2.6 6.1 2.6 7.4 0 2.8-5.1 10.9-8.7 13.6l-2.4 2 3.5.7c4.1.7 4.3 1.6 1.6 7.8-1 2.5-1.6 4.6-1.3 4.6.4 0 2.4-1.7 4.5-3.7 3.4-3.3 3.8-3.5 4.4-1.7.4 1 1.4 3.5 2.2 5.4l1.5 3.5 1.4-4.9 1.5-4.9 3.6 7c2.1 3.9 4.4 8.1 5.3 9.4l1.7 2.4-.5-3-.4-3 1.9 3.4c1.5 2.7 2 3 2.5 1.6.4-.9.7-3.3.7-5.3l.1-3.7 1.4 4c.8 2.2 1.5 4.1 1.5 4.2 0 .6 3.6-1.1 4.1-2 .4-.5.9.3 1.3 1.7.4 1.5 1 2.4 1.5 2.1 1.1-.6 2.4 2.6 1.4 3.5-2.1 1.9-10 4-20.2 5.5-12.9 1.9-18.5 3.6-21.9 6.8-3.4 3.1-7.8 12.3-11.7 24.1l-3.3 10.1-9.3 3.2-9.4 3.3-1.1-2.6c-.6-1.4-1.7-2.9-2.4-3.4-.7-.4-7.4-.6-14.9-.3-25 .9-30.6-1.5-62.2-27-5.3-4.3-12.6-8.8-19.7-12.3-12-5.8-13.2-7.1-13.2-14 0-1.9-.4-3.4-.8-3.4-1.1 0-8.4 7.8-17.4 18.5-4.2 4.9-10.6 11.9-14.2 15.5L0 220.4v57l5-8.1c5.2-8.4 10.9-15.3 12.8-15.3 2.2 0 7 5.1 9.8 10.4 1.6 3 3.2 5.2 3.6 5s1-2.6 1.4-5.2c.9-6.5 2-8.2 5.1-8.2 6.8 0 21.5 11.2 22.8 17.3.4 1.8.9 3.5 1.1 3.9.2.3 3.7-1.1 7.8-3.2 16-8.3 23.2-7.5 36.6 4.1l8.1 7 2.9-1.8c1.6-1 8.3-5.5 15-10.1 16.4-11.1 34.8-20.2 41.2-20.2 2.3 0 8.8 4.1 8.8 5.6 0 .6-1.4 2.8-3 4.9s-3 4.1-3 4.5 1.3 1 2.9 1.3c1.5.3 3.1 1.4 3.5 2.4.3 1 1.3 2.9 2.1 4.3 1.2 2 1.5 6.3 1.4 20.8-.1 20.1-.2 20 6.3 23.3l3.8 1.9v7c0 6.7-.1 7-3 8.5-1.7.9-3.5 1.3-3.9 1-.5-.3-2.7.5-4.9 1.8-3.2 1.8-3.8 2.6-3.1 3.9.5.9 2 1.9 3.4 2.2 2.6.7 6.5 6.9 6.5 10.3 0 1-1.5 4.1-3.3 6.8-3.4 5-11.7 19.3-11.7 20.1 0 .2 27.2.4 60.5.4 33.8 0 60.5-.4 60.5-.9s-.9-3-2.1-5.6c-1.3-2.9-1.9-5.8-1.5-7.5.3-1.6.1-4.2-.4-5.9-.6-2-.4-4.5.6-7.7 1.8-6.2 1.9-5.8-2.2-10.3-2.7-3.1-4.2-6.3-6.5-14.3-3-10.3-3-10.4-2.3-27.8.8-21.1 1.6-24.3 3.3-13.4 2.3 14.7 6.2 27.6 9.3 30.8 2.6 2.5 3.4 2.8 7.6 2.4 6.2-.6 12-3.5 14.2-7 2.1-3.4 1.8-9.5-1.1-21.3-3.8-16.1-4.5-20.9-3.4-23.3.5-1.2 1.2-2.2 1.5-2.2s5.1 3.6 10.5 8c5.5 4.4 10.9 8 11.9 8 1.1 0 3.3-1.1 5-2.4 5.3-4 13.4-7.6 17.1-7.6 4.6 0 10.5 2.8 18.5 9 3.6 2.7 6.8 4.9 7.2 5 .4 0 1.4-1.6 2.2-3.5s2.9-4.3 4.7-5.4c4.5-2.7 15.6-5.3 21.5-4.9l4.9.3v5.3c0 2.8.1 5.2.1 5.2.1 0 1.3-1.8 2.7-3.9 3.8-5.7 9.1-9.5 12.2-8.7 4.1 1 8.8 6 12.9 13.7 5.5 10.4 8.3 13.9 11 13.9 1.3 0 7-.9 12.6-2.1l10.3-2.1 9.7 2.6c5.4 1.4 12.4 3.5 15.5 4.6 3.2 1.1 6.2 2 6.7 2 .4 0 .8-2.6.8-5.8v-5.8l-9.2-7.5c-35.6-28.7-48.7-42.4-69.1-72-8.1-11.8-11.3-15.7-12.1-14.8-.2.2-.9 2.4-1.7 4.9l-1.4 4.5L405 215c-9.7 3.3-17.1 6.6-26.3 11.9-17.8 10.2-26.1 13.3-36.7 13.8-4.9.3-11.2-.1-15-.9l-6.4-1.4-4.4-8.4c-6-11.6-14.2-22.3-19.4-25.4-2.4-1.3-9-3.8-14.8-5.4-11.5-3.3-19.4-6.5-20.4-8.1-.7-1.1 1.2-4.7 5.3-9.6l2.4-3-.7 4.9c-.5 3.1-.4 4.6.2 4.2.6-.3 1.2.2 1.4 1.1.2 1.3 1.2.4 3.3-3 1.7-2.6 3.3-4.7 3.6-4.7.8 0 1.9 3.8 1.9 6.7 0 3.5 2.3 1.8 4.3-3.2 1.1-2.5 2.2-4.5 2.5-4.5.4 0 1.4 1.7 2.4 3.8 1.5 3.6 1.6 3.6 1.7.9.1-1.5.5-2.7 1-2.7s1.4-1.5 2.2-3.3c.7-1.7 1.4-3.4 1.5-3.6.2-.2 2.2 1.3 4.5 3.3 4.7 4.3 5.8 4.2 3.5-.3-.9-1.7-2.1-4.3-2.6-5.7-1-2.5-1-2.6 3.2-2.4 6.9.4 7.5.2 5-1.6-2.7-1.9-8.2-9.2-8.2-10.8 0-.6.9-2.2 1.9-3.6 1.9-2.4 2-2.4 4.1-.5l2.1 1.9-.7-4.1c-.5-3.6-.2-4.6 2.2-7.6l2.8-3.6 1.8 3c2 3.2 5.5 3.9 6.5 1.2 1.4-3.6.7-8.1-1.9-11.4-2.4-3.3-5.8-9.2-5.8-10.4 0-.8 8.2 4.5 11.3 7.3 1.6 1.6 3 2.2 3.6 1.6 1.2-1.4 2.9-9.1 3.6-16.7.7-6.9.9-7.3 3.5-5.7.9.6 1.7.5 2.1-.2.6-.9 1.1-.9 2.2 0 .8.7 2.2.9 3.2.5 1-.3 3.4-.7 5.4-.7 4.7-.1 5.1-2.4 1.1-6.9-6.3-7.2-11.6-24.5-10.5-34.4.7-6.6.6-6.8-4-6.3-1.1.1-2.3.6-2.6 1.2-.3.5-.8.9-1 .8-.9-.3-6.3 2.2-8.8 4.1-4.2 3.2-9.7 6.6-11.9 7.4-1.7.5-2.4-.1-3.8-2.7-4.4-8.6-12.1-15.3-21.8-19.1-5.8-2.2-41.4-7.7-49.6-7.6-3 0-8.1.8-11.3 1.9m4.6 133.5c.4.8.2 1.7-.3 2-.6.4-1-.3-1-1.4 0-2.5.6-2.7 1.3-.6"/></svg>