<svg xmlns="http://www.w3.org/2000/svg" width="682.667" height="512" version="1.0" viewBox="0 0 512 384"><path d="M224.8 48.5c-11 3-19.9 11.1-25.3 22.8-4.3 9.7-5.7 15.6-5.4 24.6.2 7.4.2 7.5-3.2 10.3-2.7 2.3-4 2.7-6.6 2.2-3.1-.6-3.4-.4-4.8 2.8-.9 2.2-2.5 4-4.4 4.8-5.1 2.1-5 3.5.3 10.5 5.5 7.3 8.7 10.3 10.4 9.8 1.3-.3 2.5 1.3 4.8 6.1l3.2 6.5-3.4 5c-1.9 2.8-4.3 5.5-5.4 6.1-3.1 1.6-2.4 3 1.5 3 4.1 0 4.2.3 1.5 6.5-2.9 6.8-2.5 7.4 2 3l3.9-3.8 2.4 5.4 2.4 5.4 1.4-4.8 1.4-4.8 3.7 7.3c2 4 4.4 8.2 5.2 9.3 1.5 1.9 1.5 1.9 1-.5s-.5-2.4 1-.6c.9 1.1 1.6 2.5 1.6 3 .1 3 2-2.5 2.1-5.9.1-2.2.3-3.2.6-2.2 1.3 5.1 3.4 7.1 5.9 5.5.6-.4 1.6.3 2.3 1.8.6 1.4 1.6 2.2 2.1 1.9.6-.3 1 .1 1 1 0 2.3-7.5 5.2-17.2 6.5-11.9 1.7-19.3 3.6-23.1 5.7-4.1 2.4-9.5 12.4-13.8 25.6-2.4 7.4-3.7 10.1-5.3 10.7-15.2 5.9-16.8 6.2-17.6 3-.8-3.3-3.4-3.8-16.2-3.2-23.4.9-32.3-2.6-56.3-22.8-11.3-9.4-17.1-13.3-28.6-18.7-8-3.9-8.7-4.6-9.1-10.3-.5-7.2-2.5-6.3-12.7 5.7-5.1 5.9-13.5 15.1-18.7 20.4L0 222.7l.2 27.2.3 27.3 5.8-8.6c6.8-10 10.7-13.7 13.7-12.9 2.7.7 6.3 5.4 9 11.7 1.1 2.7 2.3 4.7 2.6 4.4.2-.3 1.1-3.4 1.8-6.9 1.3-6.3 1.3-6.4 4.9-6.7 7.6-.7 20.5 8.8 22.6 16.5.7 2.4 1.3 4.3 1.5 4.3s4.3-1.9 9.1-4.2c15.3-7.3 22.3-6.2 34.9 5.6 6.4 6 8.9 6.7 12.7 3.8 15.1-11.7 40.1-25.8 50-28.2 4.2-1.1 4.8-.9 8.7 1.6 4.2 2.7 4.2 2.8 2.5 5.3-.9 1.4-2.3 3.2-3 3.9-2.1 2.2-1.5 4 1.7 4.7 2 .4 3 1.3 3 2.5 0 1.1.9 2.4 2.1 3 2 1.1 2 1.8 1.7 20.4-.3 21.3-.3 21.3 6.1 24.5l3.4 1.8-.2 6.9c-.2 7.5-2.2 10.7-6 9.7-2.4-.6-8.1 3.2-8.1 5.3 0 .8 1.5 2.1 3.3 2.9 3.2 1.3 6.7 6.6 6.7 10.1 0 .8-1.5 3.8-3.3 6.7s-5 8.2-7.1 12l-3.8 6.7h120.1l-1.9-4.5c-2.3-5.3-2.8-13.1-1.4-23.2.6-4.9.5-5.4-2.8-9.2-4.4-5.1-9.2-20.7-9.2-30.1-.1-10.9 1.6-32.4 2.4-30.9.4.8 1.5 5.7 2.3 10.9 2.2 13 6 24 9.2 26.7 3.3 2.9 8.1 3 14 .2 9-4.2 10.4-10 6.5-25.5-3.8-14.4-5.1-21.6-4.1-22.8.5-.6 1-2 1.2-3 .3-1.6 1.4-1.2 7.3 3.4 3.7 2.9 7.7 6.1 8.7 7.1.9.9 2.9 2.5 4.4 3.5 2.5 1.6 2.7 1.6 7.8-1.8 8.4-5.6 11.3-6.8 16.7-6.8 6 0 11.7 2.7 20.4 9.5l6 4.6 1.8-3.7c.9-2 2.5-4.3 3.5-5 3.4-2.6 14.4-5.4 21.4-5.4h6.9v10.5l2.7-3.5c6.9-8.9 10.5-10.5 16.2-7.6 3.3 1.7 5.9 5.1 12.6 16.4 3.4 5.7 5.7 8.5 7.3 8.9 1.3.3 7.1-.2 12.9-1.2 12.2-2 14.6-1.7 30.3 3 6.3 1.9 11.6 3.5 11.8 3.5.1 0 .2-2.9.2-6.4v-6.4l-9.7-7.8c-33.5-26.8-48.3-41.6-65.2-65.4-9.7-13.7-15.1-20.3-16-19.5-.3.4-1 2.5-1.6 4.8l-1 4.2-9 2.8c-12.6 4-21.2 7.8-31.8 14.1-21.4 12.7-32.7 15.5-51.1 12.3l-6.9-1.2-4-7.5c-7.4-13.9-14.5-22.8-20.8-26.1-2.1-1-7.7-3-12.6-4.4-10.6-3-21.3-7.4-21.3-8.7 0-1.5 2-5 4.8-8.3l2.5-3-.7 4.3c-.4 2.7-.3 4.1.3 3.8.5-.4 1.1.4 1.3 1.6.3 1.9.7 1.6 3.3-2.3 1.6-2.4 3.1-4.6 3.3-4.9.7-.9 2.2 2.6 2.2 5.2 0 2.1.4 2.5 1.9 2.1 1-.3 2.1-1.7 2.4-3.1.3-1.5 1.2-3.6 2-4.6 1.3-1.8 1.5-1.7 2.7 2 1.8 5.5 3.3 6.8 2.4 2-.4-2.5-.3-3.7.3-3.3s1.8-1.1 2.8-3.3l1.7-3.8 4.2 3.9c4.7 4.5 5.6 3.8 2.7-2-3.2-6.1-2.9-6.7 3.1-6.2l5.2.3-3.6-4c-3.7-4.1-6.8-9.2-6.8-11.2 0-.6.4-.9.9-.6s1.4-.1 2.1-.9c1.1-1.4 1.5-1.4 3.3.2 2 1.8 2 1.7 1.4-2.2-.5-3.3-.2-4.6 2-7.8l2.6-3.8 2.7 2.6c3.3 3.2 4.8 3.2 6-.1 1.7-4.3 1.1-6.7-3-12.8-2.2-3.2-4-6.3-4-6.7 0-1 6 2.2 10.7 5.8 1.8 1.4 3.5 2.4 3.7 2.2 1.1-1.4 3.6-10.9 3.6-14 0-2 .3-5 .6-6.6.5-2.7.8-2.8 5.4-2.7 7.7.4 14.4-.9 14.8-2.7.2-.9-1.3-3.5-3.2-5.8-6.4-7.6-11.2-23.8-10.2-34.2l.7-6.8-2.4.5c-3.2.5-13.6 6-16.3 8.5-1.1 1-2.4 1.9-2.9 1.9s-1.8.8-2.9 1.9c-1.2 1-3.2 2.1-4.6 2.4-2.2.5-2.9 0-5.2-4.2-3.2-5.6-10-12.2-15.5-14.9-6.1-3-14.6-4.9-34-7.7-20.3-2.8-23.7-2.9-30.5-1m2.6 134.1c.3.8.2 1.2-.4.9s-1-1-1-1.6c0-1.4.7-1.1 1.4.7"/></svg>