<svg xmlns="http://www.w3.org/2000/svg" width="682.667" height="512" version="1.0" viewBox="0 0 512 384"><path d="M224.4 53.4c-17.9 4.4-30.9 24-30.6 46.3l.1 8.2-3.4 2.1c-1.9 1.2-4.6 2-6.2 1.8-2.1-.2-3 .3-4.1 2.5-.7 1.5-3.1 3.6-5.3 4.7-2.1 1.1-3.9 2.6-3.9 3.3 0 .6 2.4 4.8 5.3 9.2 4.1 6.2 5.8 8 7.6 8 1.9 0 2.7 1 4.3 5 1 2.8 2.6 5.5 3.4 6.2 1.4 1 1.4 1.5 0 4.2-.9 1.7-3.2 4.6-5.1 6.6-1.9 1.9-3.5 3.6-3.5 3.8 0 .3 1.4.7 3 1 3.5.8 3.6 1.7 1 7.6-1.1 2.4-1.8 4.6-1.6 4.8.2.3 2.2-1.2 4.4-3.2l4-3.6 1.7 5.1c.9 2.7 2.1 5 2.6 5s1.2-1.8 1.5-4c.7-4 2.4-6.6 2.4-3.6 0 .9 1.9 5 4.2 9.1 3.2 5.8 4.4 7.2 4.9 5.8.5-1.6.7-1.6 1.3.4 1.5 4.7 3.6 2.1 3-3.7-.3-2.5-.2-2.9.4-1.3.9 2.8 3.8 6.3 5.2 6.3.5 0 1-.8 1-1.8.1-1.2.6-.8 1.6 1.2 1.3 2.2 1.8 2.6 2.5 1.5.5-.9.9-1 .9-.2 0 .6.2 1.8.6 2.6.9 2.3-7.2 5.4-18.7 7.1-12.7 1.9-19.8 3.9-23.3 6.7-3.4 2.6-7.4 10.7-11.6 22.9-1.8 5.2-3.6 10-4.1 10.6-.9 1.1-14.7 6.4-16.6 6.4-.4 0-1.3-1-1.8-2.3-.9-1.9-2-2.3-8-2.8-3.8-.4-10.7-.7-15.2-.8-10.9-.1-17.5-1.6-25.4-5.7-6.2-3.3-16.2-10.7-23.8-17.7-7.7-7-14.3-11.6-24.3-16.7-5.7-2.9-10.5-5.4-10.7-5.6-.1-.1-.6-2.6-1-5.5-1-8.6-1.9-8.1-16.1 8-7 8-19 20.1-24 24.1l-3 2.5v55.8l6.6-9.4C15.2 259.7 16.8 258 20 258s5.9 2.8 9.4 9.7c1.5 2.9 3.1 5.3 3.6 5.3s1.2-1.7 1.5-3.8c1.2-7.1 2.5-9.2 5.7-9.2 3.5 0 7.7 2.1 14 6.9 4.2 3.2 7.2 7.6 9.1 13.3.5 1.5 1.2 1.3 6-1.2 7.1-3.9 16.8-6.3 21.7-5.5 4.8.8 11.6 5.1 18.5 11.6 6.2 5.9 5.3 6 18-3.1 14.9-10.6 32.4-19.9 44.1-23.4 1.4-.4 3.2.3 5.7 2.1 4.2 3.3 4.3 3.7 1.8 6.2-1.1 1.1-2.5 2.9-3.1 4-.9 1.8-.7 2.2 1.5 3.1 1.5.6 3.1 1 3.7 1 .5 0 .8.7.4 1.5-.3.9.5 2.4 2 3.7l2.5 2.2-.3 18.2c-.3 20.3-.1 21 6.9 23.9l3.3 1.4v7.5c0 6.6-.3 7.7-2.2 9-1.2.9-3.5 1.6-5 1.6-3.2 0-8.5 4.1-7.4 5.9.4.6 2.2 1.7 4 2.5 2.4 1 3.7 2.5 5 5.9l1.7 4.6-3.9 5.8c-3.7 5.5-8.2 13.6-8.2 14.8 0 .3 26.1.5 58 .5h58l-1.4-3.5c-.8-1.9-1.5-5.2-1.6-7.2 0-2.1-.1-4.9-.1-6.3s.3-4.8.7-7.7c.6-4.9.4-5.4-2.8-9.5-2-2.4-4.7-8-6.4-12.8-2.9-8.4-2.9-8.7-2.6-28.5.2-10.9.5-20.1.7-20.4 1-.9 1.6.8 3 8.5 2.5 13.4 6.6 26.3 9.3 28.9 4.3 4.3 13.8 2.9 20-2.8 2.8-2.7 3.2-3.7 3.2-8.1 0-2.8-1.6-11.5-3.6-19.4-2.2-8.7-3.3-15-2.8-16 .4-.9.8-2.3.8-3.1.2-3 2.4-1.9 12.1 5.9 5.5 4.3 10.9 7.9 11.9 8 1.1 0 3.3-1.1 5-2.4s5.5-3.6 8.5-5.1c8.4-4.2 14.5-2.7 26.9 6.7 3.5 2.7 6.6 4.8 7.1 4.8.4 0 1.5-1.6 2.4-3.6 1.3-2.6 3.1-4.1 7-5.9 6.9-3.2 19.2-5.1 23-3.6 2.7 1 2.7 1.3 2.2 6.3l-.6 5.3 1.8-2.5c3.4-4.8 9.5-10.9 11.3-11.5 4.6-1.5 12.3 5.6 20.3 18.5 3.8 6.1 5.9 8.6 7.6 8.8 1.3.2 7.1-.6 13.1-1.7l10.7-2.2 10.9 3c6 1.6 12.2 3.4 13.7 4 1.6.6 3.3 1.1 3.8 1.1s.9-3.1.9-6.9v-7l-7.6-5.8c-4.2-3.2-8.1-6.3-8.8-6.8-.6-.6-6.9-5.8-14.1-11.7-20.4-16.8-32.8-30.3-51.2-55.9-7.5-10.4-9.1-11.9-10.4-9.8-.5.8-.9 2.6-.9 4 0 3.4-2.4 5.4-8 6.9-14 3.7-19.3 6-39.5 17.4-14.6 8.2-20.8 10.1-33 9.9-5.5-.1-12.2-.7-14.9-1.5-4.7-1.2-5.1-1.7-8.6-8.2-5.2-9.6-12.5-19.2-17.3-22.7-2.2-1.6-7.3-3.9-11.1-5-12.1-3.5-22.4-7.3-24.8-9-2.1-1.6-2.1-1.8-.5-4 .9-1.3 2.6-3.5 3.7-4.9l2.2-2.5-.6 3.8c-.3 2.2-.1 3.5.5 3.2.5-.4.9.3.9 1.5 0 2.8 1.2 1.9 4.8-3.6 2.9-4.4 3.1-4.4 4.2-2.4.7 1.2.9 3.3.6 4.6-.5 1.9-.3 2.4 1.4 2.4 1.4 0 2-.7 2-2.3 0-1.2.9-3.5 1.9-5.1l1.9-2.9 2 4.4c1.3 2.7 2.1 3.7 2.1 2.5.1-1.6 3.5-9.9 4.7-11.4.1-.2 1.8 1.4 3.7 3.5 2 2.1 3.9 3.5 4.3 3.1s-.3-3-1.5-5.7c-1.1-2.7-2.1-5.1-2.1-5.4 0-.2 2.6-.2 5.8.1l5.7.4-3.8-3.7c-2-2-4.4-5-5.3-6.7-1.8-3.6-2.5-7.8-1.3-7.8.5 0 .9.7.9 1.5 0 1.8 1.7 2 2.3.2.3-.9.7-.9 2 .2 1.5 1.2 1.7 1 1.7-2.5 0-2.6.9-5.3 2.7-7.9 2.6-3.9 2.6-3.9 4.1-1.7 3 4.5 7.2 1.7 7.2-4.8 0-2.1-1.4-4.9-4.1-8.6-2.3-3-4-5.6-3.8-5.8.2-.3 1.9.2 3.7.9 1.8.8 3.5 1.4 3.9 1.4.3-.1.9.3 1.2.8.8 1.1 6.2 4.5 6.5 4.1 1.5-1.7 3.6-11.4 3.6-16 0-3.8.4-6 1.3-6.3.6-.3 4.1-.7 7.7-.9 11.4-.7 15.2-4 9.6-8.3-2.6-2.1-7.5-12.5-10.1-21.7-1.3-4.4-1.6-7.8-1.1-12.8.5-5.8.4-6.8-1-6.8-1.7 0-8.2 2.8-9.9 4.3-.5.4-2.2 1.6-3.6 2.5-8.3 5.4-11.1 7.4-11.6 8.7-.3.8-.9 1.2-1.4.9-.6-.3-1.6-.1-2.3.5-.9.8-2.2-.4-5.2-5-5.1-7.9-13.5-14.3-22.3-16.9-7.5-2.3-40-7-47-6.9-2.5 0-6.9.6-9.7 1.3m2.3 135.8c-.3.7-.5.2-.5-1.2s.2-1.9.5-1.3c.2.7.2 1.9 0 2.5"/></svg>