<svg xmlns="http://www.w3.org/2000/svg" width="682.667" height="512" version="1.0" viewBox="0 0 512 384"><path d="M232 48.1c-7.3 1.2-15.2 5.2-20.1 10.1-9.3 9.4-15.5 30.1-12.8 42.4l1.2 5.5-3.5 3.6c-2.4 2.3-4.9 3.8-7.4 4.2-3 .5-3.9 1.2-4.8 3.7-.6 1.7-2.4 4.2-3.9 5.5l-2.9 2.5 7.6 7.2c7.7 7.3 9.3 8.1 11.3 6.1.8-.8 1.9 0 3.9 3.1l2.8 4.2-2.5 4.5c-1.3 2.5-3.9 5.8-5.6 7.4-1.8 1.5-3.3 3.1-3.3 3.4s1.6.5 3.5.5 3.5.2 3.5.4-.9 2.6-2 5.2-1.8 4.9-1.5 5.2 2-.9 3.8-2.6c1.8-1.8 3.6-3.2 3.9-3.2s.9 1.2 1.3 2.7c.3 1.4 1.3 3.5 2 4.6 1.4 2 1.4 2 2 .1 2.1-6.2 2.1-6.2 5.9 1.3 3.3 6.8 5.6 9.1 5.6 6 0-.6.6-.3 1.2.8s1.3 2.2 1.5 2.5c.8.9 2.3-2.5 2.4-5.5.1-2.5.3-2.6.6-.7.3 1.3 1.6 2.8 3.1 3.4 1.5.7 3.5 2.1 4.5 3.2 1.8 2.1 1.8 2 1.4-2.7-.5-5.5.2-5.2 2.6 1 1.4 3.7 1.5 4.4.2 5.7-2.1 2-6.5 3.3-18 5.1-14.5 2.2-21.7 4.9-25.7 9.3-4.1 4.6-11.9 20.1-15.1 30.2-2.1 6.6-2.7 7.5-5.1 7.8-2.1.3-2.6-.1-2.6-1.7 0-2.6-1.1-2.8-18.4-3.6-22-1.1-29.3-4.2-47.1-20.6-11.7-10.7-19.2-16.2-28.6-21-10-5-10.9-6-10.9-12 0-3.2-.4-4.9-1.2-4.9-.7 0-5.3 4.4-10.3 9.7C33.4 210.6 18.7 224 3.8 234L0 236.5V266l9 4.5c4.9 2.5 9.8 4.5 10.8 4.5 2.4 0 4.4-2.3 12.2-13.8 3.4-5.1 7.1-9.7 8.2-10.3 3-1.6 6.3 1.2 9.5 8.1 1.5 3.3 3.3 6 4 6s1.7-2.5 2.4-6c.6-3.3 1.7-6 2.3-6.1 8.1-.8 21.5 9.4 23 17.5.8 4.4.4 4.4 12.1-.8 13.8-6.2 20.4-4.7 32.6 7 3.6 3.5 7.1 6.4 7.8 6.4.6 0 3.8-1.7 6.9-3.9 3.1-2.1 9.5-6.4 14.2-9.6 8.5-5.8 27.1-15.5 29.7-15.5 2.8 0 2.6 3.1-.6 6.4-3.9 4-3.9 5.4-.1 6.7 1.7.6 3 1.8 3 2.7 0 .8.6 2.3 1.4 3.1 1.1 1.3 1.2 3.3.5 10.1-2.2 19.9-2.3 27.8-.4 30.6 2.4 3.7 9.7 6.7 15.1 6.2l4.4-.3v8.7c0 8.7 0 8.8-2.7 9.4-3.5.8-9.3 4.3-9.3 5.5 0 .4 1.3 1.5 2.9 2.4 3.2 1.6 5.7 7.2 4.8 10.7-.4 1.2-.2 2.9.3 3.8.7 1.3-.4 4.4-4.5 12.1-3 5.7-5.5 10.7-5.5 11.1 0 .5 27.7.8 61.5.8s61.5-.2 61.5-.4-2.5-5.3-5.5-11.2l-5.6-10.8 2.6-5.7c3.7-8.2 3.4-10.3-2.2-15.8-4-3.9-5.2-5.9-7.1-12.4-2.4-8-2.5-9.9-.2-7.2s10.9 2 16.3-1.5c5.1-3.2 6.2-5.6 5.4-12.2-3.2-29.3-3.2-30.6-.9-33.1 1.2-1.3 2.2-2.9 2.2-3.5s1.1-1.4 2.5-1.8c3.2-.8 3.1-1.7-.2-4.8-1.5-1.4-2.5-2.8-2.2-3.1.7-.6 12.3 6.9 23.7 15.3 4.6 3.4 8.7 6.2 9.2 6.2.4 0 3.8-2.1 7.6-4.7 3.7-2.5 8.7-5.2 11-5.9 5.9-1.7 11.5.1 21.3 7 4.3 3 8.2 5.1 8.7 4.8.6-.4 1.6-2.1 2.3-3.8 2.1-5.3 13.9-10.4 24.3-10.4h4.8l-.7 4.5c-.7 5.3.8 6.1 3.1 1.6 1.8-3.3 7.1-8.1 9.1-8.1 3.4 0 8.4 6.4 13.8 17.4 3.4 6.9 6.3 11.7 7.4 12 1 .3 5.4-.1 9.7-.9 11.2-2.2 18.1-1.9 26.6 1 4 1.4 7.5 2.5 7.7 2.5s.3-4.6.3-10.3v-10.2l-10-9c-19.3-17.2-36.8-38.1-51-61-9.4-15.3-12.1-17.2-13.4-10-1 4.9-2.5 6-13.3 9.5-11 3.6-17.1 6.5-29.8 14.3-22.9 13.9-32.3 15.9-55.7 12l-10-1.6-1.5-3.6c-.7-2-3.5-7.8-6-13-6.4-12.7-10.7-15.8-26.2-18.7-10.7-2-20.7-5.3-22.7-7.5-1.3-1.5-1.4-2.3-.4-5.3.6-1.9 1.8-4 2.7-4.8 1.4-1.1 1.5-1 .9 1-.8 2.5.1 8.2 1.3 8.2.5 0 2.1-1.9 3.7-4.1l2.9-4.2 1.1 4.4 1.1 4.4 3.1-4.9c1.8-2.8 3.2-4.4 3.2-3.7s.5.9 1 .6c.6-.3 1-1.9 1-3.6 0-1.6.5-2.9 1-2.9.6 0 1 .8 1 1.9 0 1 .7 2.4 1.5 3.1 1.2 1 1.7.5 3.1-3l1.7-4.1 2.9 3.5c1.6 2 3.6 3.6 4.4 3.6 1.8 0 1.8.1-.6-6-1.1-2.8-2-5.3-2-5.5 0-.3 2.2-.5 4.9-.5 6 0 7.1-1.3 3.2-3.6-2.9-1.7-8.1-9.8-8.1-12.5 0-.8.7-2.2 1.4-3.2 1.2-1.6 1.7-1.6 3.5-.6 2.7 1.8 3.3.9 2-3-.9-2.6-.8-3.6.5-5.7l1.7-2.5 3.1 2.6 3.2 2.7 1.8-2.4c2.7-3.6 2.3-9.1-1-13-3.5-4.1-7.2-9.4-7.2-10.3 0-1.1 5.8 3.6 11.1 8.9l4.8 4.9 1.3-2.9c.7-1.6 1.3-7.2 1.4-12.8 0-5.5.5-10.1 1-10.3s3.4.3 6.4 1.1 5.8 1.2 6.2 1c.5-.3.8-.1.8.4s1.2.9 2.8.8c2.4-.1 2.7-.5 2.5-3.1-.1-1.9-1.3-3.9-3.2-5.5-4.5-3.9-11.4-21.7-11.2-29.3.1-5.9-1.2-10.2-3-9.2-.5.4-.9.2-.9-.4 0-1.1-4.9-.4-6.6 1-.6.5-1.4.6-1.7.3-.4-.4-1.9.2-3.4 1.2s-5.5 3.1-8.8 4.8l-5.9 2.9-1.6-2.2c-6.4-9.3-14.1-15.1-23.3-17.5-8.6-2.2-44.1-3.9-52.7-2.5"/></svg>