<svg xmlns="http://www.w3.org/2000/svg" width="682.667" height="512" version="1.0" viewBox="0 0 512 384"><path d="M227.3 48.5c-14.5 3.9-24.1 16.3-27.9 35.8-1.7 8.6-1.4 13 1 18.8 1.2 2.7-4.8 8.7-10.2 10.2-3.6 1.1-4.8 2-5.3 4-.4 1.5-2 3.7-3.6 5.1l-2.8 2.5 6.5 6.6c7.8 7.9 9.6 9.1 11.6 7.4.8-.6 1.6-1 1.7-.8.2.2 1.5 2.1 3 4.1s2.7 4.2 2.7 4.9c0 1.8-3.9 8-7.4 11.6l-3 3.3h3.8c3.4 0 3.7.2 3 2.2-.3 1.3-1.3 3.6-2.1 5.1-2.1 4.2-.8 4.5 3 .9 1.8-1.8 3.6-3.2 3.9-3.2s1.3 2 2.2 4.5c1 2.5 2.1 4.5 2.6 4.5s1.1-1.9 1.5-4.1l.7-4.1 2.4 4.2c1.3 2.3 2.4 4.6 2.4 5 0 .5 1.4 2.4 3.1 4.2 1.8 1.8 2.9 2.7 2.5 2-1-1.7.9-1.5 2.4.3 1.9 2.3 2.8.9 2.4-3.8-.4-3.8-.3-3.9.7-1.5.6 1.7 2 2.9 3.9 3.3 1.6.4 3.2 1.5 3.5 2.6 1.3 3.9 2.7 1.9 2.2-2.9l-.6-4.7 1.4 4c.7 2.2 1.4 4.8 1.4 5.7.1 2.7-4.8 4.6-17.3 6.7-14.6 2.5-21.7 4.7-25.9 8.2-3.9 3.2-13.7 21.5-16.2 30.4-1 3.3-2.1 7-2.6 8.3-1 2.6-2.9 2.1-2.9-.8 0-2.5-1.9-3-12.3-3-25.6-.1-35.8-4.6-57.6-25.3-7.6-7.2-15.8-13-24.1-17.2-10.2-5.1-10.8-5.8-10.2-11.4.4-4.7.3-4.9-1.7-4.4-2.3.6-2.3.5-18.1 17.5-15.2 16.4-30.4 29.2-46.4 39.3L0 237.4v26.1l10.5 5.2c5.7 2.9 11.4 5.3 12.5 5.3 1.4 0 3.6-2.2 6.8-6.6C38 255.8 44 249 45.9 249c2.5 0 6.3 4.6 8.7 10.4 1.1 2.5 2.4 4.6 3.1 4.6.6 0 1.6-2.3 2.2-5.2 2-9.2 4.5-9.9 13.9-3.8 6.6 4.2 12.2 10.9 12.2 14.6 0 1.3.4 2.5.9 2.8s4.2-1 8.3-2.9c16-7.6 22.2-6.6 35.4 6 3.8 3.5 7.2 6.5 7.7 6.5.4 0 7.3-4.5 15.5-9.9 14.5-9.8 29.5-18.1 32.6-18.1 2.4 0 1.9 1.9-1.4 5-1.6 1.5-3 3.5-3 4.3 0 .9 1.3 1.8 3 2.2 1.8.4 3 1.3 3 2.3 0 .8.6 2.3 1.3 3.1 1 1.2 1.1 3.6.6 10.1-.4 4.7-1.1 13.3-1.5 19.2l-.7 10.7 3.3 3.1c4.1 3.8 10.2 5.6 15.1 4.3l3.7-1 .6 4.5c.3 2.5.6 6.6.6 9.3 0 4.8-.1 4.8-3.9 5.9-2.2.6-5 1.9-6.3 3l-2.3 1.9 3.2 2.9c3.5 3.2 5.5 9.9 3.4 11.1-.9.6-.8 1.1.4 2.1.8.7 1.5 1.9 1.5 2.6s-2.5 6.2-5.5 12.1-5.5 10.9-5.5 11c0 .2 28.1.3 62.5.3h62.6l-6.5-12.7c-5.5-10.9-6.3-13-5.1-14.3 1.8-2 4.5-8.8 4.5-11.2 0-1.2-2.4-4.3-5.4-7.2-4.5-4.3-5.6-6.1-7-11.3-2.1-8.2-2.1-8.3 1.4-7s10.6-.2 14.5-3.1c4.6-3.3 4.9-5.1 3.6-18.9-.6-7-1.1-15.8-1.1-19.5 0-5.9.2-6.7 2.1-7.3 1.2-.4 1.8-1.2 1.5-2.1s.4-1.6 1.9-2c3.1-.8 3.1-1.9 0-5.6-6.4-7.6.7-4.2 19.8 9.4 6.7 4.8 13.1 8.8 14.2 8.8s4.5-1.9 7.5-4.1c6.6-5 10.8-6.9 15.2-6.9 4.3 0 12.8 4 19 9 2.8 2.2 5.5 4 6 4 .4 0 1.3-1.2 1.9-2.7 1.3-3.6 3.7-6.1 7.4-8.1 4.5-2.3 15.2-4.9 18.5-4.4 2.9.4 3 .7 3 5.3 0 2.7.3 4.9.8 4.9.4 0 1.6-1.6 2.7-3.6 2.3-4.2 6.9-8.4 9.4-8.4 3.7 0 7.3 4.5 13.1 16 3.8 7.6 6.6 11.9 7.8 12.2 1.1.3 5.7-.3 10.3-1.3 10.2-2.3 16.8-2.4 23.3-.4 2.7.8 5.3 1.5 5.8 1.5.4 0 .8-4.9.8-10.8v-10.8l-9-7.9c-17.3-15-33.4-33.8-46.6-54.1Q445.15 192 442.9 192c-.5 0-1.3 1.9-2 4.2-.6 2.4-1.5 4.8-2.1 5.5-.5.7-4.9 2.4-9.6 3.9-9.7 2.9-18.7 7.1-28.9 13.7-9.5 6-16.8 10-23.8 12.7-5.2 2.1-7.6 2.4-18 2.3-6.6-.1-15.4-.7-19.5-1.5-8.5-1.5-7.2-.1-14.9-16.9-6.3-13.5-10.9-16.8-29.1-20.3-10.5-2.1-21.1-5.6-21.7-7.3-.8-2 .5-5.8 2.7-8.4l2.1-2.4-.6 3.2c-.4 2.1-.3 3.3.4 3.3.6 0 1.1.8 1.1 1.7.1 1.3.9.9 3.3-1.8 3.7-4.2 5.7-4.1 5.7.4l.1 3.2 2.5-4c1.3-2.2 2.8-3.9 3.3-3.8s1.2-1.3 1.5-3.2c.8-4.1 2.3-4.6 3.2-1 .8 3.4 3.1 3.1 3.9-.5.9-4.3 1.8-4.4 6-.5 4.5 4.3 5.9 3.8 3.5-1.3-3.6-7.6-3.6-8.2.7-8.2 5.9 0 6.7-1.2 3-4.2-1.8-1.4-4.4-4.6-5.7-7.2l-2.5-4.6 2.2-2.2c1.9-1.9 2.4-2 3.9-.7 1.6 1.3 1.7 1.1 1-2.4-.6-3-.3-4.4 1.5-6.8l2.1-3 2.4 2.2c2.3 2.1 2.6 2.2 4.1.7.9-1 1.6-3.5 1.7-6.1.1-3.8-.4-5-4.6-9.6-4.3-4.8-5.7-7.1-4.3-7.1 1.2 0 9.2 5.5 11.9 8.2 1.7 1.5 3.3 2.8 3.7 2.8s1.5-2.3 2.4-5.1c1.7-4.9 1.6-11.3-.1-17.6-.5-1.9-.2-2.1 3.3-1.9 2.1.2 4.5.6 5.3.9.8.4 3.8.8 6.5.9 4.7.3 5 .2 5.3-2.3.2-2-.5-3.4-3.1-5.5-6.5-5.5-12.7-20.8-12.7-31.6 0-6.2-.3-7-2.6-6.7-.4 0-1-.5-1.5-1.2-.6-1-1.1-1-2.3.1-.9.7-1.9 1-2.2.7-.5-.5-4.4 1.3-11.4 5.4-1.4.8-3.7 2.5-5.2 3.8-1.6 1.4-2.8 2.1-2.8 1.7 0-.5-.7-.2-1.6.5-1.5 1.2-1.9 1-3.3-1.1-5.8-9-14.3-14.9-25.2-17.5-8.7-2-47-2-54.6 0"/></svg>