<svg xmlns="http://www.w3.org/2000/svg" width="682.667" height="512" version="1.0" viewBox="0 0 512 384"><path d="M329.7 48.5c-.7.6-1.9 1.4-2.7 1.8-3.6 1.8-6 3.5-11.6 8.2-9.8 8.3-9.2 8.3-16.6 1.1-8.9-8.8-14.4-10.8-30.8-11.3-6.9-.3-19.1 0-27.2.5-12.5.9-15.5 1.4-20.7 3.7-7.1 3.2-15.2 11.2-18.2 18-4.3 9.8-6.1 25.6-3.8 33.9 1 3.8 1 4-3.2 8.2-2.4 2.4-4.8 4.3-5.4 4.3-3.9-.5-5.5.3-6.1 2.8-.4 1.6-1.8 4-3.2 5.6l-2.6 2.7 6.3 6.4c3.5 3.5 7.4 7 8.8 7.7 2.2 1.2 2.7 1.1 3.8-.4 1.1-1.6 1.6-1.2 4.9 3.8 2.8 4.1 3.5 6.1 3 7.8-.9 2.9-4.7 8.9-6.8 10.6-2.6 2.2-1.9 3.2 1.9 2.5 4.1-.7 4.3 0 2 6.6-2.1 5.9-2 5.9 2.8 1.2l4.3-4.2 2.3 4.7c2.1 4.3 2.4 4.6 3.4 2.8.6-1.1 1-3.4.8-5l-.2-3 1.9 3.5c1 1.9 2.2 4.8 2.6 6.4.4 1.8 1 2.5 1.4 1.9.5-.8 1.7.1 3.2 2.4 2.3 3.4 2.5 3.5 3 1.3l.5-2.2 1.4 2.6c2.1 3.8 3 3.2 2.4-1.7-.4-4-.4-4.1 1-1.8 1.2 2.1 1.5 2.2 1.8.8.3-1.5.9-1.3 3.7 1.2 1.7 1.6 3.2 3.5 3.2 4.1 0 1.8-5.9 3.7-19 6-7.4 1.3-15 3.4-18.7 5-5.3 2.4-6.8 3.7-9.9 8.6-4.5 7-10.8 20.4-12.3 26-1 3.6-1.4 4-3.8 3.7-1.6-.2-9.2-.7-17-1.2-12.8-.7-14.7-1.1-20.8-4-7.6-3.5-11.9-6.7-22-16.3-10.5-10-15.8-14.1-24.3-18.8-4.2-2.4-9.1-5.4-10.9-6.7-3-2.1-3.1-2.5-2.1-5.9 1.3-4.7.5-6.6-2.2-5.6-1.2.4-8.5 7.1-16.3 14.8-21.4 21.1-31.1 28.8-53.9 42.8L0 241.2v10.4c0 9.7.1 10.4 2 10.4 2.5 0 11 3.8 18.4 8.4 8.5 5.1 9.5 4.9 15.9-3.7 3-3.9 7.4-9.4 9.7-12 3.8-4.3 4.7-4.8 7.9-4.5 3.3.3 3.8.8 6.9 6.8 4.3 8.3 4.9 8.9 5.7 5.4 2.6-11.3 4.6-12.9 12.2-9.1 7.6 3.9 14.1 10.7 14.9 15.6.4 2.3 1.2 4.1 1.9 4.1s4.8-1.7 9-3.7c6.3-2.9 9-3.7 14-3.7 5.6-.1 6.8.3 11.6 3.6 3 2 7.3 5.8 9.7 8.3 2.3 2.5 5 4.5 6.1 4.5 1 0 3.6-1.2 5.8-2.8 14.1-9.8 22.7-15.3 29.3-18.6 4.1-2.1 6.6-2.9 5.4-1.9-3.7 3.1-3.8 5.3-.4 6.6 2.1.8 3 1.8 3 3.5 0 1.2.7 2.5 1.5 2.8 1.9.8 1.9 4.4-.2 22.2-1.6 14-1.6 14.3.3 16.9 3.5 4.7 7 6.6 12.9 7.1 3.2.3 6 0 6.8-.7 2.3-1.8 2.7-.2 2.7 9.8v9.6l-5 2.4c-5.4 2.6-6 3.9-3.1 6.5 2.4 2.1 3.7 9.1 2.2 11-.8 1-.6 1.8.9 3.1 2.7 2.5 2.6 3.6-1.9 12.3-2.1 4.3-4.1 8.7-4.5 9.9l-.7 2.3H325l-3.7-6.7c-2-3.8-5-9.3-6.8-12.3l-3.1-5.5 2.8-5.4c4.1-7.9 3.8-9.9-2.5-15.3-4.9-4.2-5.5-5.3-7-11.5-1-3.7-1.7-7-1.7-7.3s2-.4 4.4-.2c5.4.5 12.7-2.5 15.1-6.1 1.2-1.8 1.5-4 1.1-8.3-.3-3.3-.8-11.9-1.2-19.2-.7-12.3-.6-13.3 1.2-14.6 1-.8 1.9-2 1.9-2.7s1.1-1.6 2.5-1.9c2.4-.6 3-3.1 1-3.8-1.3-.5-5.3-7.2-4.7-7.8 1.1-1.1 16.3 7.9 34.5 20.5 4.1 2.8 7.7 5.1 8.2 5.1.4 0 3-1.8 5.6-4 13-10.8 21.3-10.8 35.4-.1 3 2.2 5.8 4.1 6.2 4.1s1.4-1.5 2.2-3.3c.7-1.7 2.4-4.2 3.7-5.4 3.1-2.7 12.9-6.1 19.4-6.5l5-.3-.3 5.2c-.3 5.9 1.6 7.3 3.6 2.9 1.8-3.9 8.3-10.6 10.3-10.6 3.4 0 8.5 5.8 13.8 15.9 3.7 7.2 5.9 10.3 7.5 10.7 1.2.3 6.2-.7 11.1-2.2 5.6-1.6 11.4-2.6 15.3-2.6l6.2-.1-.1-11.6v-11.6l-8.1-7c-18.4-16-30-29.1-44.8-50.3-4.7-6.7-9.1-12.4-9.9-12.7-1.7-.7-3.1 1.2-3.1 4.1 0 3.8-3.3 6.3-12.5 9.5-11.1 3.9-16.6 6.6-27.5 13.7-19 12.5-31.3 16.9-44.8 15.9-4.2-.3-12.3-1.1-17.9-1.8l-10.2-1.3-2.7-6.6c-6.9-16.6-11.2-22.6-18.4-25.7-1.9-.8-9.6-2.7-17-4.3-7.4-1.5-15.2-3.5-17.3-4.4-3.3-1.3-3.7-1.9-3.1-3.8.4-1.2 1.9-3.7 3.3-5.5l2.6-3.3.3 2.7c.3 2 .6 2.3 1.3 1.2s.9-.9.9.8c0 3.3 1.7 2.8 3.6-1 1-1.8 1.9-2.7 2.2-1.9.3 1 .7 1 2 0 1.3-1.1 1.4-1 .9 1.4-1 3.8.8 4.4 2.3.8.7-1.7 1.9-3 2.6-3 .9 0 1.4-1.1 1.4-2.8 0-3.7 1-7.2 2.1-7.2.5 0 .9.6.9 1.4s.8 2.4 1.9 3.7l1.9 2.3.7-3.4c1.1-5.2 1.3-5.3 5.6-1.8 2.1 1.7 4.1 2.9 4.4 2.6s-.6-2.5-2-4.9c-3.5-6.1-3.3-6.9 1.8-6.9 5.6 0 6.4-.9 2.7-3.1-5.1-3.2-12.5-14.7-10.6-16.6.3-.3 1.3 0 2.2.8.9.7 2.5 1.4 3.5 1.6 1.6.2 1.8-.1 1.3-2.1-.3-1.5.2-3.9 1.5-6.5 2.1-4.1 3.4-5 4.6-3.1 1.3 2 4.3 1 5.5-1.9 1.7-4.2.6-6.8-6.2-13.9-3.3-3.5-5.8-6.5-5.5-6.8.4-.5 1.6 0 12.2 4.6 9.7 4.3 9.2 4.3 9.9.2 1.7-10.6 1.7-12.2.6-15.6-.7-2.1-1-4-.7-4.2.3-.3 2.9-.7 5.9-.9 10.5-.8 14.8-2 14.8-4 0-.7-2.4-3.7-5.4-6.7-7.7-7.9-12.8-18.5-13.4-28.3-.2-4.1-.7-7.6-1.1-7.7-2.6-.6-6.5-.3-7.4.7m-88.3 130.1c.3.8.2 1.2-.4.9s-1-1-1-1.6c0-1.4.7-1.1 1.4.7"/></svg>