<svg xmlns="http://www.w3.org/2000/svg" width="682.667" height="512" version="1.0" viewBox="0 0 512 384"><path d="M323.7 51.4c-.9.9-1.8 1.6-2.2 1.6-.7 0-3.4 2.9-8 8.5-3.1 3.8-6.2 7.4-10.4 11.9-2.3 2.5-5.1 3.5-5.1 1.7s-10.8-9.2-16.1-11c-11-3.7-13.7-3.6-52.4 1.9-21.1 3-31.6 14.9-34 38.5-.5 5.3-.1 8.7 2.1 19.5.9 4-7.3 12.6-12.6 13.5-3.7.6-4 .9-4 3.8 0 1.7-.7 3.8-1.6 4.8-2.1 2.3-1.2 4.6 2.2 5.9 1.4.6 5.1 2.8 8.2 5 6.4 4.6 7.5 4.8 9.6 1.8l1.5-2.1 2.9 2.9c4.3 4.3 4.7 7.4 1.6 13.6-1.4 2.9-3.6 6.4-4.8 7.7l-2.1 2.4 4.4-.7c4.2-.6 4.3-.6 3.7 1.6-.4 1.3-.9 3.9-1.2 5.8l-.5 3.5 3-3.5c1.7-1.9 3.1-3.8 3.1-4.2 0-2 1.8-.5 3.9 3.2 3.1 5.5 4.6 5.3 4.2-.5-.2-1.7 0-1.7.8-.5.6.8 1.1 4 1.2 7 .1 5.6.2 5.7 1.4.6l.6-2.9 2.5 2.3c1.3 1.3 2.4 2.9 2.4 3.7 0 .7.5 1.3 1 1.3.6 0 1-1.5 1-3.3v-3.2l2.1 3.2c2.7 4.2 4.2 4.2 3.4 0l-.6-3.2 1.6 2.5 1.6 2.5-.4-3.4-.4-3.4 3.3 3.6c1.9 2 3.4 4.4 3.4 5.2 0 2.4-7.6 5.3-20.8 8.1-13.4 2.9-18.6 5-22.4 9-4.7 5.1-11.8 17.7-14 24.8l-2.1 6.9-10.1-.6c-16.6-.8-24.3-5-43.4-23.4-5.6-5.4-13.2-11.7-16.8-13.8-3.6-2.2-8.6-5.4-11.2-7l-4.7-3.1.3-5.2c.2-4.2 0-5.2-1.3-5.2-.9 0-7.3 5.6-14.3 12.4-15.5 15.1-21.1 19.9-32.7 28.1-13.2 9.2-27.2 17.6-44.2 26.5L0 261.2v12.4l11.9-.4 12-.4 8.3 4.4c4.6 2.5 9.7 5.3 11.5 6.4 3.1 1.8 3.2 1.8 5.4-.1 1.2-1.1 4-4.4 6.2-7.4 7.5-10.1 13-15.1 16.6-15.1 3.1 0 3.4.4 6.7 7.5 1.9 4.2 3.9 7.3 4.4 7 .4-.3 1.1-2.4 1.5-4.6 1.8-10.5 8.9-10.3 20.1.3 4.5 4.3 6.5 7.7 6.8 12 .2 1.9 2 1.5 9-1.8 14.7-7 22-5.8 33.2 5.6 3.8 3.9 7.6 7 8.5 7 .8 0 3.9-1.7 6.7-3.7 14.8-10.8 24-16.5 24.7-15.3.3.4.2 1.6-.1 2.5-.4 1 .2 2.5 1.6 4l2.2 2.4-1.6 11.8c-2.6 19.5-2.2 21.7 5.4 26.2 3.9 2.3 12.8 2.9 14.7 1 2.5-2.5 3.3.4 3.3 12.2 0 12.6-.7 15.5-4.3 16.8-1.8.7-2.1 1.6-2.1 8-.1 5-.5 7.4-1.5 8-1.2.8-1.2 1.7-.1 5.8 1.6 5.9 1.6 5.9 3.6 4.2 1.6-1.2 1.7-1.2 1.2.6-.3 1.1-.9 2.8-1.3 3.7-.7 1.7 2.4 1.8 55.5 1.8 44.6 0 56-.3 55.4-1.2-.4-.7-2.5-4.1-4.6-7.5l-3.9-6.2 2.6-5c1.4-2.8 2.5-5.8 2.5-6.6 0-2-8-11.5-9.7-11.5-1.3 0-1.6-.7-3.8-10.3-2-8.9-2-8.7 1.9-8.7 6.1 0 9.7-1.2 13.3-4.6l3.6-3.4-.7-10.7c-.3-6-.9-14.1-1.2-18-.4-4-.3-8.1.2-9 .4-1 .8-2.5.8-3.3.1-.8 1.6-1.8 3.4-2.4 4.2-1.2 4.2-3.9 0-7.7-5-4.8-2.5-5.7 6.4-2.4 9.2 3.5 19.4 8.9 32.8 17.7 5.7 3.7 11.3 6.8 12.3 6.8 1.1 0 4.1-2 6.8-4.4 6.2-5.6 10.6-7.6 16.3-7.6 4.9 0 11.9 2.9 17.2 7.2 6.7 5.4 6.1 5.3 8.3.4 1.2-2.8 3.3-5.3 5.3-6.6 3.9-2.4 15-6 18.4-6 2.1 0 2.4.5 2.5 4.2.1 8.2 1.1 8.6 4.9 2.2 1.9-3.2 4.9-6.6 6.6-7.6 3-1.8 3.2-1.8 5.6.2 1.4 1.1 4.7 6.1 7.3 11.2s5.5 10.1 6.3 11c2.2 2.5 5.3 2.2 15.9-1.4l9.3-3.3v-28.8l-9.5-8.9c-11.1-10.5-19.2-20.3-31.6-38.5-4.9-7.2-9.7-13.4-10.6-13.7-1.9-.8-3.3 1-3.3 4.2 0 3.3-3.9 6.7-10.1 8.7-9.8 3.2-15.4 6.1-28.9 15-22.8 14.9-29.3 17.2-47.5 16.1-6-.3-13.8-.9-17.3-1.2-6.7-.7-9.2.3-9.2 3.7 0 1.5-.7 1.9-3.4 1.9-3.4 0-3.5-.1-6-7.8-1.4-4.2-5-12-7.9-17.2-6.9-12.3-9.4-13.8-29.8-16.9C283 203.9 277 202 277 200c0-1.5 2.2-4.9 4.8-7.6l2.2-2.3.1 2.7.1 2.7 1.1-3 1.2-3 .5 4 .6 4 2.1-4.1c2.8-5.2 5.3-5.4 5.4-.5 0 3.4.3 3 4-4.8l4-8.5 2.1 3.5 2.2 3.4 1-3.7c1-3.4 1.2-3.6 3.1-2.1 1.1.8 3.3 2.1 4.9 3l2.9 1.5-3.1-5.6c-1.8-3.1-3.2-6-3.2-6.6 0-.5 1.8-1 3.9-1 5.1 0 5.9-1.4 2.1-3.6-3.6-2.2-8.8-9.3-10-13.7-.8-2.8-.8-3 .4-1.4 1.4 1.8 5.1 1.4 4-.5-.7-1.1 2.4-9.8 3.5-9.8.4 0 1.2.5 1.9 1.2 1.9 1.9 4.3-1.3 4.9-6.4.5-4 .2-4.7-2.7-7.1-1.7-1.5-3.5-2.7-4-2.7s-2.3-2-4-4.5c-3.3-4.8-2.9-5.2 3-3.5 1.9.5 5.1 1.2 7 1.5s5.1.8 7.1 1.1l3.6.6.7-6.4c.3-3.4.2-7.9-.3-9.8s-1-4.2-1.2-5c-.3-.9.5-1.6 1.9-1.8 1.2-.2 2.2-.8 2.2-1.3s.9-.9 2.1-.9c1.1 0 3.3-.7 4.7-1.5 1.5-.8 3.9-1.9 5.5-2.5 4-1.4 3.7-5.4-.7-7.7-7.9-4.2-19.5-21.2-20.9-30.7-.8-4.9-2-6.2-4-4.2m-46.6 140.9c-.8.8-1.1.7-1.1-.4 0-2 1.3-3.4 1.8-1.9.3.7-.1 1.7-.7 2.3"/></svg>