<svg xmlns="http://www.w3.org/2000/svg" width="682.667" height="512" version="1.0" viewBox="0 0 512 384"><path d="M322.5 54.2c-2 1.1-5 4.1-16.8 16.5l-5.8 6.2-4.7-4.5c-2.5-2.5-7.1-5.7-10.2-7.2-5.1-2.5-6.4-2.7-18-2.7-14.9 0-40.2 3.5-48.6 6.6-8.1 3-16.2 11.2-19.4 19.4-3.1 8.4-4 26.5-1.6 33l1.8 4.5-3.5 4.8c-4.7 6.3-6.5 7.9-10.7 8.9-3 .8-3.5 1.4-3.5 3.9 0 1.6-.6 4-1.3 5.2-.8 1.3-1.2 2.5-1 2.7.2.1 2.8 1.6 5.8 3.3 3 1.6 7.4 4.1 9.8 5.3l4.3 2.4 1.9-2.3c2.1-2.5 3.5-2.9 2.6-.6-.3.9-.2 1.2.5.9 1.7-1.1 4 1.6 3.3 3.8-.4 1.3-.2 1.7.5 1.3 1.9-1.2 1.2 1.6-1.8 8-1.6 3.4-3.6 6.4-4.5 6.7-3.2 1.3-1.7 3 2 2.4l3.6-.6-.6 3.9c-.3 2.1-.9 4.7-1.2 5.7s1.2-.1 3.4-2.4l4-4.3 2.8 4.3c2.9 4.2 2.9 4.2 3.2 1.4.5-4.5 2.2-2 2.3 3.6l.1 5.2 1.2-3.9 1.2-3.9 2.2 3c1.2 1.7 2.2 3.9 2.3 5 0 1 .3 1.3.6.5.2-.6.9-1 1.4-.7.5.4.6-.8.3-2.7-.7-3.5-.3-3.3 3.4 1.6l2.2 2.9v-2.9c0-2.1.3-2.5.9-1.5.7 1.1 1 .6 1.3-1.8l.3-3.2 3.3 4.2c1.7 2.4 3.2 4.6 3.2 5.1 0 1.7-8.8 5.1-19.4 7.5-14.8 3.3-19.8 5.6-25.1 11.5-5.5 6.2-9.1 12.3-12.4 21.8-2.7 7.4-2.8 7.5-6.5 7.8-5.6.5-18.3-2.4-25.1-5.8-4-1.9-10.7-7.2-20.3-16-13.6-12.4-19.6-17-28.5-21.5-5.6-2.9-8.9-6.2-8.3-8.3 1.6-5.4 1.8-7.2.6-7.2-.6 0-8.7 7.3-17.9 16.2-22.4 22-35.5 31.6-67.6 50.3l-14 8.1-.3 5.7-.3 5.7 2.8-.5c1.5-.3 5.5-.9 8.7-1.5 11.4-1.9 13.7-1.5 26.2 5 6.3 3.3 12.2 6 13 6 .7 0 4.5-4.2 8.3-9.3C72.7 258.2 76 257 81.3 269c1.7 3.9 3.4 7 3.8 7s1.2-2.3 1.8-5.2c.7-2.8 1.6-5.8 2.3-6.5 2.4-2.9 8.9-.6 16.3 5.9 5.1 4.5 7.5 8.4 7.5 12.3 0 3 1.2 3.1 5.5.5 4.8-3 14.2-6 18.7-6 6 0 10.4 2.4 18.2 10 4 3.8 7.8 7 8.6 7 .7 0 5.6-3.1 10.9-6.9 9.5-6.8 17.9-12.1 19.4-12.1.4 0 .5 1.1.1 2.5-.4 1.8-.1 3.2 1.2 4.6 2.1 2.3 2.1 6.1-.2 21.2-1.5 10.4-1.3 11.9 2.9 16.4 2.6 2.9 11 5.7 14.5 4.8 1.5-.4 3.5-1.3 4.4-2.2 1.6-1.4 1.8-1.3 2.4 1.1.3 1.5.4 7.9.2 14.3-.4 11.3-.5 11.7-3.3 13.9-2.5 1.9-2.8 2.9-2.9 8.3-.2 4.2-.7 6.6-2 8-1.5 1.7-1.6 2.4-.5 6.3 1.6 5.4 1.5 5.3 3.3 3.9 1.9-1.6 3 .3 1.6 2.8-.5 1.1-1 2.2-1 2.5s25 .6 55.5.6 55.5-.3 55.5-.7-1.8-3.7-4-7.3l-4-6.6 2.7-6.2 2.6-6.2-3.1-3.3c-1.8-1.8-3.2-3.9-3.2-4.5 0-.7-1.3-1.8-3-2.3-1.6-.6-3-1.2-3-1.4s-.7-3.9-1.5-8.2c-2.1-10.7-2.2-10.3 3.1-10.3 4.9 0 10.2-2 12.8-4.9 2.6-2.8 2.9-11.1 1.1-26.1-1.3-10.6-1.5-14.4-.6-15.3.6-.6 1.1-1.8 1.1-2.7s1.3-2 3.3-2.5c4.1-1.3 4.1-3.2-.1-7.4-2.4-2.4-3-3.7-2.3-4.4 2.8-2.8 23.2 6.3 42.1 18.7 6.3 4.2 12 7.6 12.6 7.6s4-2.3 7.5-5.2c7.3-5.8 11.4-7.8 16.1-7.8 4.3.1 10.9 3.1 17.5 8.1 2.9 2.1 5.4 3.9 5.7 3.9s1.4-2 2.4-4.3c2.3-5.1 6-7.7 15.3-10.5 9.6-3 10.3-2.7 10.9 4.4l.5 5.9 1.8-2.5c.9-1.3 1.7-2.9 1.7-3.5s1.4-2.7 3.1-4.8c5.7-7 9.4-4.5 16.7 11.3 2.1 4.7 4.6 9.1 5.5 9.9 1.9 1.5 3 1.3 16-2.6l8.7-2.6v-29l-8.3-8.6c-11.5-12-18.6-21-30.2-38.5-5.5-8.3-10.6-15.1-11.4-15.1s-2.1 2.1-3 4.9l-1.6 5-11.8 4.7c-8.1 3.2-15.3 7-23 12.1-26.7 18-33.5 19.9-62.9 17.4-11.5-1-13.8-.4-13.8 3.5 0 1.5-.7 1.9-3.2 1.9-4.6 0-5.5-.9-7.7-7.2-2.8-8.2-10.9-23.9-13.9-27.1-3.3-3.5-11.8-6.1-24.2-7.6-9.6-1.2-18.5-3.5-19.5-5.2-.7-1.1 1.1-4.6 3.8-7.7 2.7-2.9 3.5-2.8 3 .5l-.4 2.8 1.5-3 1.4-3 .1 2.7c.1 3.8 1.8 3.5 3.8-.7 2-4.3 3.6-4 4.4.6l.6 3.4 2-4.5c1.2-2.5 2.9-6.3 3.8-8.5l1.6-4 2 3.3c2.4 3.7 3.4 3.5 4.3-.8l.6-3 4.1 3c2.3 1.7 4.4 2.9 4.6 2.7s-1-2.8-2.6-5.7c-1.6-3-2.7-5.8-2.5-6.2.3-.4 2.3-.8 4.4-.8 4.8 0 5.7-1.2 2.2-2.8-3.3-1.6-10.2-10-10.2-12.5 0-1.1.9-2.1 2-2.4 1.5-.4 1.9-1.1 1.4-2.5-.5-1.6 1.2-7.8 2.2-7.8.1 0 1.4.4 2.8 1 3.2 1.2 4.5-.9 4.8-7.1.1-3.5-.3-4.6-2.8-6.6-5.7-4.7-7.5-6.7-9-9.5-.8-1.5-1-2.8-.5-2.8 1.4 0 13 3 17.9 4.6 2.3.8 4.4 1.4 4.6 1.4 1.2 0 1.2-12.9 0-16.9-1.9-6.3-1.8-7.1 1.1-7.1 1.4 0 2.5-.5 2.5-1.1s.7-.8 1.6-.5c.8.3 3.5-.3 5.9-1.4s4.8-2 5.4-2c1.6 0 2.3-1.8 1.6-4.1-.4-1.1-2.2-2.7-4.1-3.5-7-2.9-17.4-18.9-20-30.8-1-4.4-2-5.1-4.9-3.4m-44.9 138.5c-1.1 1.1-1.7-.4-.9-2.3.7-1.8.8-1.8 1.1-.1.2 1 .1 2.1-.2 2.4"/></svg>