<svg xmlns="http://www.w3.org/2000/svg" width="682.667" height="512" version="1.0" viewBox="0 0 512 384"><path d="M317.5 58.9c-2.7 2.1-7 6-9.5 8.7s-4.8 4.8-5.2 4.6c-.5-.1-.8.2-.8.8 0 1.9-2.3.9-6.7-3-9.4-8.3-21.4-11.7-34.7-10-39.6 5.1-44.2 6.3-51.8 13-5.2 4.5-10.1 13.3-11.7 20.8-1.6 7.6-1.4 21.2.4 26.2 1.3 3.7 1.3 4.5-.1 7.3-2 4-9.4 11.7-11.2 11.7-.7 0-2.2.5-3.2 1-1.6.9-1.8 1.5-.9 3.7.7 2 .6 3-.7 4.4-1.6 1.8-1.6 2 .1 3.9 1 1.1 2.5 2 3.2 2 .8 0 4.3 1.6 7.7 3.5 7.3 4 8.6 4.2 11.1 1.5s4.9-.8 4.1 3.2c-.3 1.8-.2 2.7.4 2.3 3.3-2-2.6 11.3-6.7 15.1l-2.8 2.7 4.7-.7 4.6-.7-1.3 5.3c-.8 2.8-1.3 5.4-1.1 5.6s1.9-1.5 3.7-3.7c1.8-2.3 3.5-4.1 3.8-4.1s1.7 1.9 3 4.2c2.4 4.2 2.4 4.2 3.4 1.8 1-2.3 1.1-2.1 1.7 2.5.5 4.9.6 4.9 1.4 1.7.4-1.7 1-3.2 1.3-3.2 1.3 0 4.2 4.8 4.3 7 .1 1.4.4 1.9.7 1.2.2-.6.9-.9 1.4-.6.7.4.8-.7.4-3-.9-4.5-.2-4.5 2.5-.1 2.3 3.8 4.1 3.9 3.3.2-.4-1.7-.2-1.9.5-.8.8 1.1 1.1.7 1.4-1.8l.3-3.2 3.3 4.2c1.7 2.4 3.2 4.9 3.2 5.6 0 2-7.5 4.9-21 8.2-14.8 3.6-18.1 5.2-23.1 11-4.5 5.2-12.5 20.4-13.5 25.6l-.6 3.5h-5.7c-7.2 0-17.8-2.3-22.7-4.8-5.9-3.1-13.7-9.3-22.8-18-10.2-9.8-16.3-14.5-23.6-18.2-3.1-1.6-7.1-4-8.7-5.4-2.8-2.3-3-3-2.5-7.1.2-2.5.1-4.5-.4-4.5s-8.8 7.9-18.4 17.6c-22.9 23.1-34.5 32.1-67.5 52.5l-14 8.6-.3 4.7c-.4 5.3-.9 5.1 10.3 3.1 14.7-2.6 17.8-2.2 30 4 6 3 11.6 5.5 12.5 5.5 1 0 5.1-4.8 9.8-11.5 7.9-11 11.3-14.5 13.9-14.5 1.9 0 5.3 4.1 7.5 9.2 1.1 2.7 2.4 4.8 2.8 4.8.5 0 1.1-1.5 1.5-3.3 1.3-6.4 2.6-8.7 5.2-8.7 6.6 0 18.3 9.7 20.4 17 .7 2.5 1.3 4.6 1.4 4.8.1.1 3.7-1.4 8-3.5 15-7.1 22.6-5.6 34.3 6.6l6.3 6.5 3.4-1.9c1.8-1.1 8.5-5.5 14.8-9.8 11.9-8.1 14.6-9.3 12.6-5.6-.9 1.7-.7 2.5 1 4.3 2.5 2.7 2.6 4.5.5 20.8l-1.6 12.7 2.2 3.2c4.6 6.3 16.1 9 20.6 4.8l2.3-2.1.7 3.7c.4 2.1.4 8.3.1 13.9l-.5 10.1-3.8 3.1c-2 1.7-3.2 3.4-2.7 3.7 1.4.9-.2 10.5-2.1 12.6-1.2 1.3-1.3 2.4-.3 6.1 1.4 5.6 1.3 5.5 3.1 4.1 2.2-1.9 2.9.4 1.1 3.9l-1.6 3h56.6c31.1 0 56.5-.2 56.5-.5 0-1.1-3.3-7-6.1-11.2l-2.9-4.1 2.5-5.4c1.4-2.9 2.5-6 2.5-6.8 0-1.6-7.3-9.8-10.2-11.5-1.2-.7-2.2-3.7-3.1-9.3l-1.4-8.2h3.1c5.1 0 10.8-2 13.6-4.9 3.7-3.6 4.6-11.7 2.5-23.1-2.8-16.1-1.8-23.3 3.4-24.5 4-.9 4-3.3.1-6.7-3.4-3-3.9-5.4-1.1-6.3 4.5-1.4 25.3 8.1 43.6 20 5.5 3.6 10.5 6.5 11.2 6.5s3.5-2 6.3-4.5c12.4-11 19.3-11.2 33.6-1 3.4 2.5 6.5 4.5 6.8 4.5.2 0 1-1.6 1.6-3.5s2.4-4.5 4.1-5.9c3.6-3 13.2-6.8 17.9-7l3.5-.1.5 5.5.5 5.5 2-3.4c3.9-6.7 7.6-10.2 10.4-9.9 2.3.3 3.4 2 8.8 13 5.3 10.7 6.7 12.8 8.5 12.8 1.3 0 6.9-1.2 12.5-2.7l10.3-2.8v-30.7l-6.7-6.6c-8.6-8.6-21-25.3-31.1-41.7-8.7-14.2-10.8-15.7-12.7-9.5-.5 1.9-1.3 4-1.7 4.6-.4.7-5.6 3.1-11.5 5.4-10.3 4.1-16 7.3-32.4 18.4-9.9 6.7-17.9 10.2-27.5 12.3-7.8 1.6-8.8 1.6-22.2-.2-7.7-1-14.7-1.5-15.6-1.2-.9.4-2.2 2-2.7 3.7-.9 2.3-1.7 3-3.7 3-5.5 0-6.7-1-8.6-6.3-2.6-7.4-11.4-24.8-13.8-27.4-3.2-3.5-11.7-6.2-25.6-8.2-7-1-14.2-2.5-16-3.5-3.2-1.7-3.2-1.7-1.5-4.4 1-1.5 2-2.9 2.3-3.2.4-.3 1.4-1.6 2.3-3l1.7-2.4.1 2.9.1 3 1.1-3 1.2-3 .5 4 .6 4 1.8-3.7c2.4-4.6 5.6-4.9 5.7-.3v3l2-4c1-2.2 2.7-6 3.7-8.5l1.9-4.5 1.7 3.3c2.1 4 3.3 4.1 4.1.2l.7-3 3.6 2.5c4.4 3 7.4 3.5 5 .7-1.9-2.1-4.8-7.7-4.8-9.2 0-.5 1.8-1 3.9-1 5.3 0 5.7-1.1 1.5-3.9-6.5-4.5-12.3-16.1-7.4-14.8 1.8.5 2 .2 1.5-2.6-.8-4.4 1.4-7.4 4.3-5.8 3.1 1.7 5.2-1 5.2-6.8 0-4.3-.3-5-4.4-8.3-7.8-6.6-10.4-14-3.5-10.2 1.3.7 3.4 1.3 4.6 1.4 1.2 0 2.5.5 2.8 1.1.4.6 1.3.8 2.1.5.7-.3 1.6-.1 1.9.4.4.7 6.2 4 7 4 .1 0 .5-2.7.8-5.9.4-3.8.1-7.8-.8-11.3-2.2-8.7-2.3-8.3.7-8 1.4.1 2.9-.2 3.3-.7.3-.6 1.1-.8 1.8-.5.7.2 3.2-.2 5.6-1.1 2.3-.8 4.7-1.4 5.4-1.2 1.9.4 2-3.3.1-5.4-.9-1-2.5-1.9-3.5-1.9-2.1 0-10.4-10-14.4-17.2-1.4-2.5-3.1-7.5-3.8-11-1.1-5.6-1.6-6.3-3.7-6.5-1.6-.2-4.3 1.2-7.5 3.6m-39.8 131.3c-.3.8-.6.5-.6-.6-.1-1.1.2-1.7.5-1.3.3.3.4 1.2.1 1.9"/></svg>