<svg xmlns="http://www.w3.org/2000/svg" width="682.667" height="512" version="1.0" viewBox="0 0 512 384"><path d="M163.4 1.2c-2.1 1-5.4 7.1-5.4 9.9 0 .8.7 2.7 1.5 4.2s1.9 4.2 2.4 6c1.7 5.5 6.3 16.1 7.7 17.8.8.8 1.4 2.4 1.4 3.5s1.4 3.9 3.1 6.2 2.8 4.2 2.5 4.2c-.4 0 0 1.2.8 2.7 1.7 3.2 7.3 9.3 8.5 9.3.5 0 1.1 2.7 1.4 5.9.4 3.8 2.1 9.1 4.7 14.7 4.7 10.2 5.4 17 2 20.4-1.2 1.2-2 3.4-2 5.2s-.9 8.7-2 15.2c-1.2 7-1.6 12.4-1.1 13s.6 3.2.2 5.8c-.5 2.7-.6 4.8-.4 4.8s-.8 1.8-2.2 4-2.5 4.4-2.5 4.9-.7 1.4-1.5 2.1c-1.7 1.4-10.5 15.6-10.5 17 0 .5-1.1 2.6-2.5 4.6s-2.5 4.4-2.5 5.2-.6 2-1.4 2.6c-1.4 1.2-8.6 17.8-9.1 21.1-.1 1.1-.7 3.2-1.3 4.6-.6 1.5-.8 3-.5 3.3s0 1.3-.8 2.2c-.7.9-1.7 4.4-2.1 7.8-.4 3.3-1 7.4-1.2 9.1-1.9 13.6-2 16.7-1.7 32.7v3.5c-.3 8.6.8 29.3 1.5 29.3.4 0 .5 1.1.2 2.4-.4 1.5-.1 2.6.7 2.9.9.4.9.7 0 1.8-1.4 1.4-1.8 5.3-.5 4.5.5-.3.8 1 .9 2.7.1 8 .3 8.9 1.8 8.3.9-.3 1.5 0 1.5 1 0 .9 1.8 3.2 4 5.3 2.2 2 4 4.2 4 4.8s-1.9 5-4.2 9.8c-4.4 9.2-4.7 11.4-3.3 23.5.5 3.6.8 8 .8 9.8v3.2l17.5-.2 17.5-.3 4.4-8.4c2.4-4.7 6.2-13.5 8.5-19.8 2.3-6.2 4.3-11.2 4.5-11 1 1-6.7 27.3-11.2 38-.7 1.6 3.3 1.7 82.1 1.4 69.9-.2 83.7-.5 87.9-1.7 7.3-2.2 7.7-3.5 7-22-.5-15.4-.5-15.6 2.5-24 1.6-4.7 3-9.7 3-11.2s-3.2-9.4-7.1-17.5c-3.9-8.2-8.7-18.6-10.6-23.3s-4.3-10.3-5.3-12.5c-3.7-8.3-5.3-12.5-11-29.8-3.3-9.8-6-19-5.9-20.5 0-1.5 1.3-5.9 2.9-9.7 3.6-9.1 3-10-6.2-9.2l-6.8.6-1.5-5.2c-.8-2.9-2.4-11-3.5-18.2-1.1-7.1-2.9-14.8-4-17.1-2.8-5.7-9.9-12.4-17.4-16.4l-6.4-3.4 2.5-5c2.1-4.2 2.3-5 1-5.8-1.3-.7-1.3-1.5.4-7 3.4-11.3 5-22 4.8-32-.2-5.4 0-10 .3-10.4.7-.6 4.1-1.2 10.8-1.9 4.9-.4 7-2.4 7-6.4 0-3.9-3.8-9.4-18.8-27.4-1.4-1.6-1.2-1.7 3.4-1.1 2.7.3 6.5.9 8.4 1.3s4.6.5 6 .1c2.1-.5 2.5-1.2 2.6-4.1 0-1.9.4-4.1.8-4.7.4-.7.5-2.1.1-3.1-.3-1.1 0-2.1.8-2.4 1.6-.6 2.1-16.1.6-18.9-.6-1-.5-1.9.1-2.3 1.3-.8 1.3-3-.1-7.8l-1-3.7h-91.4L232 3l-3.5 3-2.3-3-2.3-3-29.2.1c-17.6 0-30 .4-31.3 1.1M196 89c0 .5-.2 1-.4 1-.3 0-.8-.5-1.1-1-.3-.6-.1-1 .4-1 .6 0 1.1.4 1.1 1m25.8 44.2c-.8 3.7-2.6 6.4-3.5 5.4-.4-.4 3.5-9.6 4.1-9.6.2 0 0 1.9-.6 4.2M187 200c0 2.7-.3 5-.7 5-.5 0-1.9.3-3.2.7-2.1.5-2.3.3-1.6-1.8 1.6-5.2 3.4-8.9 4.4-8.9.6 0 1.1 2.2 1.1 5m-9.4 21.9c4.3 4 4.8 7.1 3.7 23.9-1 15-1.3 16.2-5.5 27-3.3 8.5-4.7 11-5.4 10-.6-.7-1-3.6-.8-6.3.1-2.8-.3-5.6-.9-6.3-.8-1-.7-1.6.4-2.2 1.1-.7 1.2-1.3.3-2.8-1.2-1.9-1.2-6.4.1-9.5.4-.9.5-2.6.2-3.7-.3-1 .1-5.4.9-9.6.7-4.3 1.1-8.1.8-8.6-.3-.4.2-1.9 1.1-3.2.9-1.4 1.6-2.7 1.6-3-.4-2.7.1-7.6.7-7.6.5 0 1.7.8 2.8 1.9m45.2 43.1c0 5.2-.5 14.2-1.2 20-.8 6.4-.9 11.2-.4 12.3.6 1.1.6 2.3-.1 3-.6.8-.7 2.7-.1 5.2.7 3.3.5 4.7-1.9 9.5-1.6 3.1-3.4 7.4-4.1 9.4-2.2 6.6-2.2 3-.1-7.6 3.4-16.8 5.1-31.2 5.8-49.8.7-18 2-19.3 2.1-2"/></svg>