<svg xmlns="http://www.w3.org/2000/svg" width="682.667" height="512" version="1.0" viewBox="0 0 512 384"><path d="M323 54.7c0 .5-1.6 1.6-3.6 2.3-2 .8-4.7 2.7-5.9 4.2-1.3 1.6-2.8 2.8-3.4 2.8s-1.5.8-2 1.9c-.6 1-2.2 2.6-3.6 3.5-2.6 1.7-2.7 1.7-7.4-2.7-6.2-5.8-12.9-9.2-21.3-10.6-5.8-1-9.4-.8-27 1.4-22.8 2.9-26.2 3.7-33.1 7.2-10 5-15.7 13.9-18.3 28.6-1.5 8.3-1.2 18.5.7 23.5.6 1.5.8 3.6.4 4.9-.8 3.5-9.9 11.9-13.5 12.6-2.9.6-3.1 1-2.9 4.1.2 1.8-.3 4.1-1.1 5.1-2 2.4-.7 3.8 9.2 8.9 9.7 5.1 11.5 5.5 12.6 2.7s5.2-1 5.2 2.3c0 1.3.6 2.6 1.3 2.9 1.6.5-5 14.5-7.5 15.8-3.2 1.7-2 3 2.3 2.3l4.2-.7-.7 2.9c-.4 1.6-1 4.2-1.2 5.9l-.6 3 2.9-3.4c1.5-1.9 3.3-4.1 3.9-4.9.9-1.2 1.6-.6 3.8 3.2 1.5 2.6 3.1 4.4 3.7 4.1.5-.4.9.6.9 2.2.1 2.8.1 2.8 1.6-.7l1.5-3.4 1.9 2.9c1.1 1.7 2 3.9 2.1 5 0 1.1.3 1.4.6.7.4-1 .8-1 2.1 0 1.4 1.1 1.5 1 .9-.5-.4-1.1-1-3.1-1.3-4.5l-.5-2.7 2 2.5c1.1 1.4 2.7 3.4 3.5 4.5 1.5 2 1.5 2 1.6-.3 0-1.5.4-2.1 1.1-1.6.8.5 1-.3.7-2.5-.2-1.7-.1-3.1.4-3.1 1.4 0 6.7 9.1 6.2 10.5-.7 1.7-12.5 6.1-23.3 8.6-12.8 3-16.9 5.6-23 14.9-5.1 7.7-10.1 18.4-10.1 21.5 0 .9-1 1.9-2.3 2.4-3.1 1.2-19.6-1.3-25-3.7-5.7-2.6-16.4-10.6-24.5-18.4-9.7-9.2-14.2-12.6-25.1-18.8l-9.6-5.5-.3-5.3c-.2-3.6-.7-5.2-1.7-5.2-.8 0-5.8 5.1-11.3 11.2-23 26.2-38.3 38.4-85.4 68.4-3.4 2.2-3.8 2.9-3.8 6.5 0 3.4.3 4 1.6 3.5 3.2-1.2 20-3.6 25.7-3.6 4.9 0 7.2.7 15.7 5 5.5 2.7 11 5 12.3 5 1.8 0 3.9-2.4 10.1-11.4 4.3-6.3 8.9-12.2 10.3-13.1 3.8-2.5 6.6-.5 10 7.1 1.5 3.5 3.1 6.4 3.4 6.4.4 0 1-2.1 1.4-4.7.4-2.7 1.1-5.6 1.6-6.6 3.5-6.4 22.7 6.4 24.4 16.2.4 2.2.8 4.1 1 4.1.1 0 2.3-1.1 4.7-2.5 5.9-3.3 15.3-6.5 19.1-6.5 4.9 0 11.4 3.8 18.4 10.6 3.5 3.5 7 6.4 7.7 6.4s3.3-1.4 5.7-3.2c10.4-7.6 21.4-14.8 22.6-14.8.8 0 1.1.9.7 2.9-.5 2.2-.1 3.2 1.6 4.4l2.2 1.5-1.8 16.2c-1.6 14.4-1.7 16.4-.3 18.8 3.6 6.5 16.7 9.6 21.5 5.1l2.3-2.1.6 3.3c.6 3.1-.9 19.1-2.1 23-.2.9-1.6 2.1-3 2.8-1.9.8-2.5 1.7-2.1 3.1.6 2.4-1.8 10.8-3.7 12.9-1.2 1.3-1.2 2.5-.4 6.3 1 4.3 2.8 6.6 2.8 3.6 0-.8.5-.7 1.6.3 1.4 1.5 1.4 2 0 5.4-.9 2.1-1.6 3.9-1.6 4.1s25.9.4 57.5.4 57.5-.4 57.5-.8c0-.5-2.2-4.6-5-9.2-2.7-4.6-5-8.6-5-8.9 0-.4.9-2.4 2-4.6 2.4-4.8 2.5-7.8.3-9.6-.9-.8-2.2-2.9-3-4.7-.7-1.8-1.7-3.1-2.2-2.8-2 1.2-4.1-2.3-5.1-8.4-1.4-9.2-1.5-9 2.8-9 4.8-.1 11.3-3 14-6.5 2.9-3.7 3-14.2.1-28.9-2-10-2-11.1-.6-14.1 1.1-2.3 2.4-3.4 4.6-3.8 4-.8 3.9-2.1-.4-6.8-1.9-2.2-3.5-4.2-3.5-4.7 0-.4 1.2-1.6 2.7-2.6 2.3-1.7 3.1-1.8 7.7-.6 7.4 1.8 24.4 10.1 37.2 18.1 6.1 3.8 11.6 6.9 12.3 6.9s3.6-2.1 6.5-4.6c11.9-10.8 20.3-10.9 34.2-.4 2.9 2.1 5.5 3.6 5.9 3.2s1.3-2.1 2-3.8 2.8-4.3 4.6-5.6c3.9-2.9 13.9-6.8 17.4-6.8 2.3 0 2.5.4 2.5 5 0 5.9 2 6.8 4 1.8 1.5-3.8 6.8-9.8 8.6-9.8.7 0 2.4 1.5 3.7 3.2 2.1 3.1 3.3 5.6 8.6 18.1 1.1 2.6 2.8 5 3.7 5.4 1.5.6 6.9-.5 19-3.8l3.4-1v-34.1l-4.9-4.9c-8.4-8.3-26.8-34.1-31.7-44.4-.8-1.7-2.8-4.8-4.5-6.8-3.6-4.3-5.3-3.8-6.3 1.7-.4 1.9-1.2 3.9-1.9 4.4-.7.6-6 2.9-11.9 5.2-7.9 3-14.4 6.6-25 13.7-17.4 11.7-24 14.9-34.9 16.9-7.3 1.4-9.8 1.4-18.9.3-5.8-.7-12.5-1.3-15-1.3-4.2-.1-4.6.1-6.2 3.6-2 4.2-1.9 4.2-8.6 2.8l-4.8-1.1-3.6-8.7c-2-4.8-5.4-11.8-7.5-15.7-5.1-9.3-9.9-11.8-26.8-14-12.3-1.7-20.5-3.9-20.5-5.6 0-1.8 2.8-6.4 5.1-8.4l2.2-2-.5 2.2c-.8 3.2 0 2.9 1.4-.5l1.2-2.7.6 4 .5 4 1.9-3.5c2.4-4.5 2.3-4.5 4-3.1.8.6 1.2 2.1.9 3.1-.3 1.1-.1 2 .5 2 .5 0 2.4-3.3 4-7.2 1.7-4 3.5-7.4 4-7.6.5-.1 1.5 1.1 2.2 2.8 1.6 3.9 2.8 3.8 3.6-.4l.6-3.5 4 3c2.3 1.6 4.5 2.9 5 2.9.4 0-.6-2.5-2.3-5.5-1.7-3.1-2.9-5.8-2.6-6.1s2.4-.8 4.6-1.1c4.7-.6 5.1-1.5 1.7-3.1-3.7-1.7-10.9-11.8-10.1-14.3.5-1.4 1.2-1.8 2.6-1.4 2.1.7 2.5-.5.8-2.2-.9-.9-.9-2 .1-4.3 1.1-2.7 1.6-3 4.5-2.4 4.1.7 5.5-1.3 5.5-7.9 0-4-.3-4.6-4.5-7.6-4.7-3.4-9.7-11.1-7.2-11.1.7 0 1.7.4 2.2.9.6.4 3.3 1.6 6 2.6 2.8 1 5.7 2.3 6.5 2.9 3 2.2 6.2 3.7 6.7 3.2 1.4-1.4 1.4-12.7-.1-18.2-2-7.7-2-7.4.7-7.3 5.9.2 17-1 18-2 1.4-1.4-1.7-5.9-4.7-6.7-2.4-.6-4.1-2.6-11.3-13.3-4.1-6.1-5.3-9-7-17.6-.8-3.6-1.2-4-4.1-4.3-1.8-.2-3.2.1-3.2.5M279 186c0 1.1-.4 2-.9 2s-.7-.9-.4-2 .7-2 .9-2 .4.9.4 2"/></svg>