<svg xmlns="http://www.w3.org/2000/svg" width="682.667" height="512" version="1.0" viewBox="0 0 512 384"><path d="M326.6 48.5c-1.5 1.4-3 2.5-3.4 2.5s-3.5 2.6-6.9 5.8c-9.6 8.8-9.2 8.7-14.3 3.6-6.9-7-15.5-10.6-26.5-11.2-8.8-.4-34.6 1.8-45.5 3.9-12 2.4-21.6 9.7-26.1 19.9-4.7 10.3-6.4 28.5-3.4 35.6 1.4 3.3 1.3 3.8-.5 6.4-3.4 4.7-9.7 9.8-13.1 10.5-4.7 1-4.9 1.2-3.8 4.2.7 2 .6 3-.6 4.3-2.3 2.5-1.8 4.9 1.2 6.1 1.4.5 4.7 2.5 7.2 4.3 8 5.8 8.9 6.1 11.7 3.5 1.5-1.4 2.4-1.8 2.4-.9 0 .7.3 1 .7.7 1.1-1.2 3.3 1.5 3.3 4 0 1.4.4 2.1 1 1.8 3.6-2.2-2.2 11.7-6.6 15.9l-2.9 2.8 4.3-.4 4.4-.4-.6 3.1c-.3 1.6-.8 4.1-1.1 5.5-.6 2.2-.1 1.9 3.3-1.7l3.9-4.3 3.2 5.1c1.7 2.8 3.1 5.7 3.1 6.5 0 2.6 1.7 1.4 2.4-1.6.3-1.7.9-3 1.4-3 1.2 0 4.2 5.5 4.3 8.2.1 1.7.2 1.9.6.5.4-1.5.7-1.6 2-.5 1.4 1.1 1.5 1 .9-1-.3-1.2-.9-3.1-1.2-4.2-.8-3 .1-2.4 3 2 2.6 4 5.4 5.5 4.2 2.4-.5-1.4-.4-1.5.9-.4 1.4 1.2 1.5.8.9-3.1l-.7-4.4 3.1 3.8c6.5 8.1 5.4 9.7-9.2 14.2-5 1.5-12 3.7-15.6 4.8-5 1.5-7.5 3-11 6.6-4.8 4.9-11 15.8-13.9 24.4l-1.8 5.2-6.4.3c-15 .8-25.9-3.9-42-18-15.5-13.6-19.3-16.4-29.5-21.9-5-2.7-9.7-5.6-10.4-6.4-.8-.9-.9-2.9-.5-5.5 1.1-6.4-1.3-5.1-12.2 6.7-24.6 26.9-37.3 37-81.2 64.5-8.8 5.6-9.1 5.9-9.1 9.4v3.7l4.8-.7c13.6-1.9 23.7-2.7 26.5-2.1 1.8.4 7.8 3.2 13.3 6.1 5.8 3.1 10.8 5.2 11.7 4.8.9-.3 4.8-5.3 8.8-11C72.6 258.5 76 255 79 255c2.4 0 6.2 4.7 8.4 10.3 1 2.6 2.1 4.7 2.6 4.7s1.1-1.9 1.5-4.3c1-5.9 3-8.7 6.2-8.7 7.4 0 19.8 10 20.9 16.9.4 2.3 1 4.1 1.4 4.1s2.8-1.1 5.2-2.5c5.7-3.2 15.3-6.5 18.7-6.5 4.4 0 12.3 4.4 19.4 10.9 7.9 7.2 6.2 7.5 21.7-3.9 9.5-7 13.8-8.5 13.2-4.6-.2 1 .7 2.9 1.9 4.2 2 2.2 2.1 3 1.5 10.6-.3 4.6-1.1 12-1.8 16.4-1.4 10.7-.8 12.8 4.9 16.4 3.7 2.3 5.8 3 9.9 3 4.8 0 5.5-.3 8.3-3.7l3.1-3.8v4.4c0 2.4-.9 8.3-2.1 13.2-1.7 7.5-2.5 9.2-5 11-1.6 1.1-2.7 2.5-2.4 3 .8 1.2-2.2 10.9-4 12.9-2.1 2.4-1 11.3 1.4 10.5.9-.2 2.2-.1 2.9.4 1 .6.8 2-1.2 6.6-1.4 3.1-2.6 6.1-2.6 6.6s26.4.9 60 .9h60.1l-2.7-4.8c-1.5-2.6-4.5-7.6-6.7-11.1l-3.9-6.4 2.8-5.9 2.8-5.8-2.6-2.8c-1.4-1.5-2.9-3.7-3.3-5-.3-1.2-1.4-2.2-2.5-2.2-2.6 0-2.9-.7-3.6-8.9l-.7-7.1h3.4c4.5-.1 11.4-3.2 13.3-6.2 2.7-4.2 2.9-13.3.7-29.2-1.9-13.9-2-15.1-.4-16.8.9-1 2.6-1.8 3.9-1.8 2.9 0 4-1.8 2.1-3.3-1.8-1.4-5.7-7.8-5.7-9.3 0-.7 1.5-1.9 3.3-2.8 1.7-.9 4.1-2.3 5.2-3 1.8-1.3 3-1.1 10.1 1.3 9.1 3.1 21.8 9.3 34.3 17 4.6 2.8 9 5.1 9.7 5.1s3.6-2.1 6.6-4.6c12.5-10.8 20-11 33.8-.9 2.6 1.9 5.2 3.5 5.6 3.5.5-.1 1.8-2 2.9-4.3 1.7-3.6 3.1-4.8 9.5-7.9 4.1-2.1 9.1-3.9 11-4l3.5-.3.3 5.2c.2 2.9.7 5.3 1.2 5.3.4 0 1.8-2 3-4.5 2-4.2 7.1-9.5 9-9.5 1.8 0 4.5 3.8 7.7 11 7.4 16.8 7.1 16.5 18.4 13l6.9-2.1v-40.1l-5.8-6.7c-8.4-9.4-16.1-20.1-22.6-31.1-9.5-16.2-12.5-18.4-14-10.6-.8 4.4-2.5 5.6-14.4 10.2-6.8 2.6-13.9 6.7-25.1 14.2-18.1 12.2-22.9 14.6-34.7 16.9-7.9 1.5-9.9 1.5-22.2.2-14.8-1.6-17.2-1.2-18.2 3.1-.7 2.9-3 3.4-10.9 2.3-3.1-.5-5.7-1.4-6.1-2.3-.5-.8-3.5-7.2-6.9-14.1-5-10.5-6.6-13-9.5-14.7-5.1-3-12-4.9-23.2-6.2-5.5-.7-11.8-2.1-14.2-3.1l-4.3-1.8 1.8-2.8c2-3 5-6.3 5.8-6.3.3 0 .3 1.2 0 2.7-.4 2.2-.1 1.9 1.4-1.2l1.9-4 .3 4.5.4 4.5 1.9-3.5c2.3-4.4 2-4.2 3.9-3.4 1.2.4 1.5 1.4 1 3.6-1.4 6.8 3 0 7.9-12.2l1-2.5 2 4 2.1 4 1.7-3.8c1.5-3.3 1.8-3.6 3-2.2 1.6 1.9 7 4.9 7 3.9 0-.4-1.2-2.7-2.6-5.1-3.3-5.6-2.7-7.3 2.6-7.3 2.2 0 4-.5 4-1 0-.6-.4-1-1-1-1.7 0-7.9-6.9-10.1-11.2-1.7-3.3-1.8-4.2-.7-4.9.7-.5 1.6-.9 2.1-.9.4 0 .7-.9.7-2 0-1 .7-3.5 1.7-5.4 1.4-3 2-3.4 4.4-2.9 3.3.6 4.9-1.7 4.9-7.5 0-3.6-.5-4.5-5-8.2-4.6-3.9-9.1-10-7.3-10 1.3 0 9.7 3.2 16.1 6.1 3.5 1.6 6.5 2.9 6.7 2.9.3 0 .5-1.1.5-2.4 0-1.4.5-3.7 1-5.1.9-2.5-.3-10.7-2.4-15.6-.6-1.4.2-1.8 4.6-2.4 9.3-1.1 16.8-2.7 16.8-3.5 0-2.4-1.6-4.3-5.1-6.1-2.5-1.2-5.6-4.4-9-9.2-6.2-8.7-7.7-12.1-9.3-20.7-1.1-6.2-1.4-6.5-4.2-6.8-2.1-.2-3.8.5-5.8 2.3m-45.6 133c0 .8-.4 1.5-1 1.5-.5 0-.7-.7-.4-1.5.4-.8.8-1.5 1-1.5s.4.7.4 1.5"/></svg>