<svg xmlns="http://www.w3.org/2000/svg" width="682.667" height="512" version="1.0" viewBox="0 0 512 384"><path d="M331.2 44.7c-1.9.9-3.6 2.2-3.9 3-.3.7-1 1.3-1.7 1.3-.6 0-4.1 2.9-7.8 6.5-3.6 3.6-7.1 6.5-7.7 6.5s-1.1.4-1.1 1c0 .5-2.2-1.3-4.9-4-6.2-6.2-13.6-9.9-23-11.5-6.5-1.2-9.9-1.1-26.5.6-10.5 1.1-22 2.6-25.5 3.4-11.4 2.6-19.6 9.5-24.5 20.7-4.4 10.1-6 27.5-3.1 34.5 1.4 3.3 1.4 3.8-.2 5.7-4.2 4.9-10.9 10.6-12.3 10.5-4.4-.4-5 .1-5 3.6 0 2-.7 4.6-1.6 5.9-1.2 2-1.3 2.6-.2 3.5 2.5 2.1 18.1 12.1 18.9 12.1.4 0 1.4-.9 2.2-2.1l1.5-2.1 2.6 2.3c1.4 1.2 2.6 3.1 2.6 4.1 0 1.1.5 1.6 1 1.3 3.3-2-2.3 11-6.8 15.7l-2.6 2.8h4.2c4.1 0 4.2.1 3.6 2.7-.4 1.6-1.1 3.9-1.6 5.2-1.4 3.8-.3 3.5 3.4-.9 1.9-2.2 3.8-4 4.1-4s1.6 1.8 2.8 4c1.3 2.2 2.6 4 3.1 4 .4 0 .8 1.2.9 2.7 0 1.6.3 2.2.6 1.3.3-.8 1-2.6 1.5-4l.9-2.5 1.9 2.5c1.1 1.4 2 3.2 2 4s1.2 2 2.6 2.7c2.2 1 2.5 1 2-.3-1.1-2.8-1.8-6.4-1.3-6.4.2 0 1.6 1.8 3.1 4 2.9 4.4 4.7 5.2 3.9 1.7-.5-2.1-.5-2.1.9-.4 1.2 1.6 1.3 1.4 1-2.5l-.3-4.3 2.1 2.5c3 3.7 5.2 8 4.7 9.4-.6 1.5-11.3 5.6-23.7 9.1-5.2 1.4-11 3.6-12.8 4.8-5.2 3.4-14.6 19.1-18.5 30.9-.9 2.6-4.8 3.1-14.8 1.9-14.4-1.7-21.3-5.5-40.5-22.6-6-5.3-13.5-10.9-18.3-13.5-4.5-2.5-10.2-5.7-12.7-7.2l-4.5-2.8.7-5c.4-2.8.3-5-.3-5-1.4 0-6.7 4.9-11.3 10.5-19.3 23.3-45.3 43.8-85.2 67.2C.3 262.9 0 263.3 0 267c0 2.2.3 4 .8 4 .4 0 5-.7 10.2-1.5 17.1-2.6 19.1-2.3 32.6 4.6l11.9 6.1 3.2-3.8c1.8-2.2 6.1-7.7 9.6-12.4 7.4-9.9 10.4-11.6 14.1-8.1 1.3 1.3 3.4 4.5 4.5 7.1 2.5 5.9 3.9 6.9 4.6 3.5.3-1.4.8-3.7 1.1-5.2.8-4 2.2-5.3 5.6-5.3 3.3 0 11 3.8 15 7.4 3.6 3.2 6.8 8.6 6.8 11.3 0 1.3.2 2.3.4 2.3s4.3-1.9 9.1-4.2c15.1-7.2 22.1-6.2 33.9 5.2 3.4 3.3 7.1 6 8 6 1 0 3.5-1.3 5.5-2.9 15.6-12.2 23-15.8 21.7-10.7-.5 1.9 0 2.9 2 4.3l2.5 1.9L202 289c-.6 6.9-1.6 14.6-2 17.3-1.4 7.3.8 11 8.3 14.2 7.8 3.2 14.1 1.3 17-5.3l1.1-2.7.4 3c.9 6.9-3.7 23.5-7.4 26.4-1.4 1.1-2.4 2.6-2.3 3.3.4 1.9-2.1 8.9-4.3 11.8-1.4 2-1.6 3.4-1 7 .7 3.8 1.1 4.5 2.9 4.2 3.4-.5 3.5 1.1.3 8.7l-2.9 7.1h121.8l-5-8.7c-2.7-4.7-6-10-7.1-11.6l-2.1-3 2.6-4.7c3.1-5.6 3.3-7.2 1-9.1-.9-.8-2.2-2.9-3-4.6-.8-2.1-2-3.3-3.2-3.3-2.5 0-3.1-1.9-3.1-9.1 0-5.6.1-5.9 2.8-6.4 12.7-2.6 14.4-4.5 15-16.1.3-5.2-.2-13.6-1.3-21.5-1.4-10.4-1.5-13.1-.5-14.4.7-.8 1.6-1.5 2.1-1.5 2.1 0 6.2-2.2 5.2-2.8-1.9-1.2-6.3-8.4-6.3-10.3 0-1.2 1.2-2.4 3.3-3.2 1.7-.8 3.8-2.1 4.6-3 1.9-2.3 4.8-2.1 13.3.9 9.1 3.3 19.9 8.7 31.7 15.9 5.1 3 9.6 5.5 10.2 5.5s3.6-2.2 6.7-4.9 7.1-5.6 8.9-6.5c7-3.5 16.3-1.2 25.7 6.3 2.2 1.7 4.4 3 5 2.8.5-.2 1.4-1.8 1.8-3.5 1.1-4 5.7-7.5 14.1-10.7 9.7-3.6 10.5-3.5 10.9 2.2.4 6 2 6.4 4.3 1.3 2.2-5 7-9.2 9.9-8.8 2.1.3 4.6 4.4 10.9 18.6 3.2 7.1 3.9 7.3 13.7 4.4l6-1.7v-41.6l-7.3-8.7c-4-4.8-10-12.9-13.2-18-13.9-21.7-16.1-24.7-17.5-24.7-.8 0-1.9 1.6-2.5 3.6-1.4 5.1-3.6 7.2-9.7 9.3-8.3 3-20.2 9.2-27.6 14.4-11.3 8.1-23.4 15-30.2 17.3-6 2-8.1 2.1-26.5 1.8l-20-.4-1 3.4-1 3.4-7.1-.6c-7.8-.7-10.4-1.4-10.4-2.9 0-2.2-11-23.7-13.4-26.1-3.2-3.2-12.6-6.2-26.2-8.2-9.9-1.4-17.4-3.7-17.4-5.3 0-.5 1.8-2.8 4-5.2l4-4.4-.5 3.5c-.5 3.2-.5 3.2.6.9.6-1.4 1.5-3.4 2-4.5.7-1.5.8-.8.5 2.2-.5 5.5.9 6.4 3.1 1.9 1.8-3.9 2.1-4 4.2-2.7.9.6 1.1 1.8.7 3.6-1.2 4.7 1 1.8 4.5-6 1.9-4.1 3.7-7.5 4.1-7.5s1.5 1.4 2.3 3c1.8 3.6 3 3.3 3.9-1l.6-3 4.1 3c2.3 1.6 4.6 3 5 3 .5 0-.5-2.2-2.1-4.9-4.1-6.7-4-8.1.9-8.1 5.2 0 5.7-1.1 1.8-4.2-3.7-2.9-8.2-9.1-9.2-12.8-.4-1.4-.4-2.2 0-1.8 1 1 4.7-1.1 4-2.2-.3-.5.4-2.8 1.5-5 1.7-3.4 2.4-3.9 4.4-3.4 3.1.7 4.6-1.8 4.6-8 0-4.1-.4-4.7-3.9-7.3-3.9-2.8-8.1-8-8.1-10 0-.7 1.9-.4 5 .8 2.8 1 5 1.6 5 1.2 0-.3.8.1 1.8 1 .9.8 2 1.6 2.5 1.6.4.1 2.3.8 4.3 1.6s4 1.5 4.5 1.5c.4 0 1.1-2.5 1.5-5.6.6-5.3.4-9.2-1.1-16l-.7-3.2 5.3-.6c8.5-1.1 15.1-2.9 15.6-4.4.6-1.5-3.4-6.2-5.3-6.2-3 0-14.6-17-16.3-24-.5-1.9-1.2-5.6-1.6-8.3-.7-5.3-1.8-5.7-7.3-3M282 180.5c0 .8-.4 1.5-1 1.5-.5 0-.7-.7-.4-1.5.4-.8.8-1.5 1-1.5s.4.7.4 1.5"/></svg>