<svg xmlns="http://www.w3.org/2000/svg" width="682.667" height="512" version="1.0" viewBox="0 0 512 384"><path d="M340.2 41.6c-1.8.8-3.5 2.1-3.8 2.9-.4.8-1 1.5-1.5 1.5-.9 0-12 10.1-15.8 14.3-.9 1-2.7 2.5-4.2 3.2-2.4 1.3-2.7 1.1-6.9-3.1-8.7-8.8-17.7-12.4-30.9-12.4-12.7 0-40.8 2.7-46.8 4.5-12.1 3.6-20.8 13.3-24.3 27-2.3 8.8-2.7 22.3-.8 27.6 1.1 3.3 1.1 3.4-4.6 8.5-4.4 4-6.7 5.4-9.5 5.6-3.3.3-3.6.5-3.6 3.4 0 1.8-.8 4.1-1.9 5.2-1 1.2-1.6 2.6-1.4 3.2.6 1.8 16.2 14 17.9 14 .9 0 1.9-.7 2.3-1.5.9-2.4 2.1-1.8 5.2 2.7 1.6 2.4 3.3 4.6 3.9 5 1.2.9-5 13.4-7.1 14.2-.8.3-1.4 1.2-1.4 2 0 1.1.8 1.3 3.5.9 4.1-.7 4.3.1 2 6.7-.8 2.4-1.4 4.5-1.2 4.7.3.2 2.1-1.5 4.2-3.9 3.5-3.8 3.9-4 4.9-2.4.6 1 2.1 3.3 3.3 5.2 1.2 1.8 2.3 4.3 2.5 5.6.3 1.8.7 1.4 1.7-2.2l1.3-4.4 1.9 2.4c1.1 1.4 2.2 3.8 2.6 5.3.4 1.8.9 2.4 1.3 1.7.6-.9 1.1-.7 1.9.6 1.1 1.7 1.2 1.6.7-.8-.3-1.4-.8-3.4-1.2-4.5-.4-1.4-.1-1.3 1.3.5 1 1.3 2.8 3.5 4 5l2.2 2.7.1-2.5c0-2 .2-2.2 1-1 .6 1 .8.3.4-2.5l-.5-4 3.5 4c3.8 4.3 4.3 5.7 2.4 7.2-2.4 1.8-12.3 5.3-20.8 7.4-9.4 2.2-15.5 5.3-19.4 9.9-2.8 3.4-12.6 22.4-12.6 24.6 0 2.7-4.1 3.7-12.8 3-15.3-1.2-23.2-5.1-40.7-20.2-11.2-9.7-19.7-15.7-29.5-20.8-8.2-4.3-8.3-4.4-7.6-9.3 1.1-8.5-1.4-7-18.3 10.4C65 221.5 50.2 232.8 16 252.8l-15.5 9-.3 4.3-.3 4.2 4.3-.7c2.4-.4 9.1-.9 15-1.3 11.8-.6 14.7.1 24.1 6 8.8 5.5 10.6 6.2 12.5 5.1.9-.6 5-5.3 9-10.5 8.1-10.5 11.7-13.9 14.8-13.9 2.9 0 7.5 5.4 9.8 11.3 1 2.6 2.1 4.5 2.6 4.2.4-.2 1-2.4 1.4-4.7 1.1-6.5 3-8.8 7.4-8.8 6.9 0 21.2 10.7 21.2 15.9 0 1.1.3 2.7.6 3.5.6 1.4 1 1.4 3.9-.4 5.5-3.4 16.3-7 21.1-7 5.9 0 10.9 2.6 19 10l6.6 6 2.9-1.7c1.5-1 6.6-4.4 11.2-7.6 9.5-6.6 13-7.2 13.5-2.4.2 1.5 1.2 3.2 2.4 3.8 2.3 1.2 2.3.8-.9 25.2l-1.7 12.7 3.4 3.5c2.1 2.2 5.5 4.2 8.6 5.2 6.7 2.1 10.2.8 13.4-5q4.65-8.1 1.5 6c-2.2 9.7-4.6 15.2-7.9 18.1-1.5 1.2-2.4 2.6-2.1 3.1.7 1.3-2.1 8.8-4.4 11.7-1.4 1.8-1.9 3.6-1.6 6.2.2 2 .4 4.2.4 4.9.1.6.9.9 1.9.7 3.9-1 4.4 1 1.8 7.1-1.4 3.1-2.6 6.1-2.6 6.6s26.1.9 59.5.9c32.7 0 59.5-.2 59.5-.4 0-.7-8.1-14.9-10.3-17.9l-1.9-2.9 2.6-5.1c3.1-6.2 3.2-6.9.7-9.1-1.1-1-2.2-2.9-2.5-4.2-.4-1.4-1.7-2.9-3-3.4-2.1-.8-2.5-1.6-2.8-7-.3-7 .5-8 6.4-8 3.8 0 9.2-3 10.7-5.9 2.2-4 2.4-16.5.6-30.5-2-15-1.6-16.6 3.6-16.6 3.9 0 4.5-1.7 1.6-4.8-5.8-6.3-6-9.2-.7-11.4 2.1-1 4.7-2.9 5.6-4.3 2-3.1 3.1-3.1 12.9.1 9 2.9 19.2 7.9 31.5 15.3 4.7 2.8 9.3 5.1 10.3 5.1s4.2-2 7-4.5c11.8-10.3 19.7-10.4 32.7-.6 3 2.2 5.7 4.1 6.1 4.1s.9-1.1 1.3-2.3c1.5-6.1 11.5-12.7 21.5-14.3l4.1-.7v3.9c0 3.7 1.4 7.4 2.3 6.4.2-.3 1.6-2.6 3.1-5.2 3.2-5.6 7.7-9.1 10.9-8.6 1.7.2 3.4 2.7 7.7 11.3 3.7 7.3 6.1 11.1 7.4 11.3 1 .2 3.8-.2 6.2-.8l4.4-1.3v-45.9l-4.9-5.7c-6-7-13.2-17.1-20-28.3-8-13.1-10-14.2-11.8-6.8-1 3.9-2.9 5.1-18.8 11.7-5.4 2.2-14.9 7.6-24 13.7-23.1 15.6-29.1 17.1-59.7 15.1-11-.7-11.8-.6-12.4 1.1-1.3 4.3-2.1 4.9-7 5.2-6.3.4-12.5-.9-13.5-2.8-.5-.8-3.1-6.3-5.8-12.2-6.9-14.7-9.2-16.2-33.5-20.2-11.1-1.9-16.1-3.9-15.2-6.2.3-.9.6-2 .6-2.5 0-.6.4-.8.9-.5s1.5-.1 2.2-1c1.2-1.4 1.4-1.4 1.9.2.6 1.5 1 1 2.1-2.1l1.4-4 .5 5 .6 5 2.4-4.7c2.5-5.1 4-4.8 4 .7 0 3.9 1.1 2.6 5.5-6.3 1.9-3.9 3.7-7.2 4-7.2.2 0 1.3 1.7 2.4 3.7l1.9 3.8 1.2-4.2 1.3-4.1 4 2.9c2.2 1.6 4.4 2.9 4.9 2.9.4 0-.5-2.4-2.2-5.3-1.6-3-3-5.9-3-6.5 0-.7 1.6-1.2 3.8-1.2 2.1 0 4.1-.3 4.5-.6.3-.4-1.5-2.7-4.1-5.3-5.2-5.1-8.6-11.1-7.2-12.5.6-.6 1.5-.4 2.4.4 1.3 1 1.7 1 2.1-.1 3.4-9.8 4.2-11.4 6-11.7 3.1-.6 4.5-3.2 4.5-8.4 0-4.2-.3-4.9-2.9-6.3-3.9-2-9.4-8.6-8.1-9.9.6-.6 1.4-.5 2.3.2 1.1 1 10.6 3.4 18 4.6 1.5.3 3.2.8 3.8 1.2.7.4.9-.4.8-2.2-.2-1.6.3-4.8 1.1-7.2 1.2-3.8 1.1-4.9-.2-9.3-1.3-3.8-1.3-4.9-.3-4.9.7 0 1.8-.6 2.4-1.4.7-.8 2-1.2 3-.9s3.3-.3 5-1.1c1.7-.9 3.2-1.5 3.3-1.4.5.4 6.8-3.6 6.8-4.4 0-.4-.9-1.6-2-2.6-12.5-10.8-19.7-23-21.5-36.5-.7-5.2-.6-5.1-5.3-3.1"/></svg>