<svg xmlns="http://www.w3.org/2000/svg" width="682.667" height="512" version="1.0" viewBox="0 0 512 384"><path d="M340.9 45.5c-2 1.3-3.9 3.2-4.3 4.1s-.9 1.4-1.2 1.1c-.9-.8-17.4 16.6-17.4 18.3 0 .6-.4.9-.9.5-.6-.3-1.6.1-2.3.9-1.1 1.2-2.1.6-6.8-3.9-3.1-2.9-7.5-6.2-9.9-7.4-5.3-2.8-14.8-4.7-22.1-4.6-12.4.3-37.9 2.6-43.7 4.1-18.5 4.7-28.3 21.9-27.1 47.5l.6 10.8-4.8 4c-4.1 3.5-7 4.7-11.7 5-.8.1-1.3 1.4-1.3 3.1s-.9 3.9-2 5-2 2.4-2 2.9c0 1.3 13 13.1 15.8 14.4 1.8.8 2.6.7 3.9-.6 1.5-1.5 2-1.2 6 4.8 4.9 7.3 4.9 7.8-1.6 15.9-1.7 2.2-2.9 4.2-2.6 4.5.4.3 2.1.4 4 .2l3.4-.2-1.4 4.8c-2.3 7.5-1.8 8.2 2.4 3.4 3.5-3.9 6.1-4.8 6.1-2 0 .5 1.3 3 3 5.7l2.9 4.7 1.2-3.2c.9-2.6 1.3-3 2.3-2 2 2 3.6 5.4 3.7 7.9.1 1.8.2 1.9.6.5.5-1.8.5-1.8 1.9 0 1.4 1.7 1.5 1.7 1-.2-2-7.8-1.8-8.1 1.5-2.7 3.6 5.6 5.5 6.8 4.5 2.7-.4-1.4-.2-2.5.4-2.5.5 0 1-1.2 1-2.8.1-2.5.1-2.6 1.2-.7.6 1.1 2.2 3.2 3.5 4.7 1.4 1.4 2.2 3.1 1.8 3.7-1.3 2.1-8.4 5.1-19.6 8.1-6.2 1.7-12.8 3.8-14.6 4.7-5.8 2.7-12.1 11.6-18.5 25.8l-2.7 6-6.8.3c-9.2.4-19.6-2.1-27.1-6.5-3.4-2-10.7-7.6-16.2-12.4-14.5-12.7-16.6-14.2-27-19.8-5.2-2.9-10-5.9-10.7-6.8-.8-1-1-3.2-.6-5.9.5-3.8.3-4.4-1.2-4.4-1 0-9 7.1-17.9 15.9-8.9 8.7-17.7 17.2-19.6 18.8-8.9 7.6-36.3 25.1-54.5 34.8C-.1 263.8 0 263.7 0 268.2v4l3.8-.6c2-.3 8.7-.9 14.7-1.2 10.6-.6 11.3-.5 16.2 2 2.9 1.4 8 4.4 11.4 6.6s7 4 8 4 4.1-2.8 6.9-6.3c10.9-13.3 13.2-15.8 16.2-17.3 2.9-1.5 3.2-1.5 5.7.3 1.4 1 4 4.7 5.7 8.1s3.3 6.4 3.6 6.7c.3.4 1.1-1.8 1.8-4.7s2-6.1 2.9-7.2c5.2-5.9 26.1 6.2 26.1 15.2 0 3.3 1.4 3.4 7.7.3 16-7.9 25.6-6.6 37.3 5.3 2.4 2.5 5.3 4.6 6.5 4.6 1.1 0 4.4-1.9 7.4-4.1 13-9.9 20-12.4 19.3-7-.2 1.4.5 3.2 1.9 4.7 2 2.1 2.1 2.9 1.5 9.6-.4 4-1.3 11.3-2.1 16.2-.7 5-1 9.7-.7 10.5 2.1 6.1 13.1 11.3 19.6 9.1 2.4-.8 3.9-2.2 5.2-4.8 2.4-5.1 2.9-2.5 1 5.8-2.5 10.7-5.4 17.6-8.2 19.5-1.4.9-2.3 2.2-2.1 2.8.5 1.5-2.7 9.1-5.1 12.2-1.4 1.8-1.7 3.4-1.3 7.1.5 4 .9 4.8 2.8 4.9 3.5.2 3.8 1.2 2 5-.9 2-1.7 3.8-1.7 4 0 .3 25.7.5 57 .5 36.3 0 57-.4 57-1 0-.5-2-4.3-4.5-8.3l-4.6-7.4 2.5-4.4c3.1-5.3 3.2-7 .7-9.3-1.1-1-2.2-2.9-2.5-4.2-.4-1.4-1.8-2.9-3.2-3.4-2.4-.9-2.5-1.3-2.2-7.7l.3-6.8 5-.6c5.4-.7 10.3-2.8 12.4-5.3 2-2.4 2.6-19.8 1-31.7-1.9-14.6-1.6-15.9 4.4-15.9 3.3 0 3.8-3.1.7-5.3-1.1-.7-2.6-2.9-3.4-4.8l-1.5-3.5 4.3-2.3c2.4-1.2 4.8-3.3 5.5-4.7 1.3-2.9 1.1-2.9 10.2-.1 8.7 2.8 23.3 9.8 33.9 16.1 4.1 2.5 8.6 4.6 9.8 4.6 1.4 0 4.4-1.8 7-4.1 11.5-10.2 19.6-10.2 33.2 0l5.4 4.2 2.3-4.5c2.6-5 6.1-7.5 15-10.5 8.3-2.8 10.3-2.7 10.3.3 0 1.3.3 3.8.6 5.5.5 2.5.9 2.9 2 2 .8-.6 1.4-1.6 1.4-2.1 0-2.2 6.2-9.6 9-10.8 5-2.1 7.3-.3 12.7 10.2 5.2 10 6 10.6 12.9 9.3l3.4-.6v-23.8c0-23-.1-23.9-2.1-25.7-4.2-3.8-13.8-16.1-21.4-27.7-7.1-10.8-10.7-14.8-11.8-13-.2.5-1 2.5-1.7 4.6-.7 2.4-2.2 4.3-4 5.2-2.9 1.5-13.3 5.5-14.7 5.7-1.8.2-9.9 5-22.4 13.3-22.4 14.8-29.5 17.1-48.3 16.1-6.6-.3-14.9-.9-18.2-1.2-6.1-.6-6.1-.6-7.2 2.4-1.6 4.8-4.5 5.5-15.2 3.8l-4.5-.7-5-10.6c-2.7-5.8-5.8-11.7-6.8-13-2.8-3.6-11.3-6.9-21.2-8.3-11.8-1.6-18.9-3.6-21.7-6.1-1.3-1.1-1.7-1.8-1-1.4s1.2 0 1.2-1c0-1.3 4.5-4 6-3.5.3.1 1-1 1.6-2.6 1.1-2.7 1.1-2.6 1.9 2.2l.7 4.9 2.4-4.8c1.4-2.6 2.9-4.7 3.4-4.7.6 0 1 1.9 1 4.2.1 3.8.2 4.1 1.3 2.3.6-1.1 2.3-4.6 3.8-7.8 1.4-3.1 2.9-5.4 3.2-5 .4.3.7-.2.8-1.3 0-1.2.6-.4 1.6 1.8 1.8 4.6 3.1 4.8 4 .8.7-4 1.6-4.4 4.4-2.2 5.4 4.2 6.1 3.5 2.9-2.9-3.3-6.4-2.8-7.8 2.4-6.5 3.9 1 4.1-1.3.4-4.7-4.8-4.4-8.1-9.5-7.4-11.3.3-.9 1.1-1.2 1.8-.8.8.5.9.2.5-.9-.3-1-.2-1.7.3-1.7.6 0 1 .5 1 1.2 0 2.4 1.6-.7 3.3-6.2 1.1-3.8 2.3-5.8 3.9-6.5 2.6-1.1 4.5-6.9 3.4-10.6-.3-1.4-2.5-3.5-5-5.1-2.4-1.4-5-3.6-5.6-4.9-1.2-2.1-1.1-2.2 2.1-1.4 1.9.5 4.8.9 6.4.9 1.7.1 3.5.4 4 .7.6.3 2.4.6 4 .7 1.7.2 3.9.4 5 .6 3.4.5 4.8-2.9 5-13 .2-9.3 1.4-12.8 3.9-11.8 1.2.4 11.5-4.5 14.3-6.8 2.2-1.8 1.5-3.4-5.2-10.2-11.3-11.8-14.1-16.8-16.7-30.4-.5-2.8-1.3-5.2-1.7-5.2-.3 0-2.3 1.1-4.2 2.5"/></svg>