<svg xmlns="http://www.w3.org/2000/svg" width="682.667" height="512" version="1.0" viewBox="0 0 512 384"><path d="M343 49.3c-3.9 2.4-24 22.3-24 23.8 0 .5-.7.9-1.5.9s-1.5.4-1.5 1c0 2-2 .9-6.7-3.8-5.9-5.9-13.6-9.7-22.4-11.2-8-1.4-46.5 1.1-54.3 3.5-13.6 4.1-21.5 13.3-25.2 29.2-1.4 6.1-1.6 20-.3 26.7.6 2.9-8.2 9.8-13.4 10.5-3.7.5-4.2.9-4.2 3.2 0 1.5-.8 3.6-1.7 4.6-1 1.1-1.8 2.6-1.8 3.4s3.3 4.1 7.3 7.4c3.9 3.3 7.4 6.3 7.5 6.7.6 1.4 4.2.8 4.8-.7 1-2.4 2-1.8 5.9 4l3.8 5.5-1.9 4.2c-1 2.4-3.4 5.8-5.3 7.5l-3.5 3.3h9.3l-1.5 5.1c-2.2 7.4-1.1 7.6 4.3.6l2.1-2.8 2.8 5.1c1.5 2.7 3.1 5 3.6 5 .4 0 .8 1 .9 2.2 0 1.8.4 1.5 1.8-1.6l1.7-3.8 1.9 3.8c3.2 6.2 7.2 8.7 5.3 3.3-1.7-4.8-.3-4.4 2.8.8l2.8 4.8.7-3c.4-1.7.8-2.6.9-2 .1.5.5-.2.9-1.8l.6-2.7 2.9 3.6c1.6 2 2.9 4.4 3 5.3.2 2.3-9.1 6.5-18.8 8.6-4.5.9-10.8 3-14.1 4.6-7.3 3.5-12.7 10.1-18.8 23.1l-4.2 8.7-6.1.1c-7.6 0-20.3-3.2-26.1-6.6-2.4-1.4-8.4-6-13.4-10.2-18.7-16.1-21.6-18.3-28.9-22.3-13.2-7.3-13.3-7.4-12.5-13 .6-4.2.4-4.9-1-4.9-.9 0-8.5 6.8-16.8 15.1-22.3 22.2-40 34.8-77.9 55.5C.1 266.4 0 266.5 0 270.1v3.5l10.3-1.3c20.3-2.5 23.6-1.8 38.9 8 3.1 2.1 6.6 3.7 7.6 3.7 1.2 0 3.6-2.2 6.3-5.8 8-10.7 13.1-16.2 16.1-17.8 2.7-1.4 3.2-1.4 5.5.1 1.4.9 3.8 4.6 5.5 8.1 1.6 3.5 3.4 6.4 3.8 6.4.5 0 1.3-2.3 1.9-5.2 1.5-6.7 2.5-7.8 7.5-7.8 7.2 0 19.2 9.6 20.3 16.2.3 2.1.8 3.8 1.1 3.8.4 0 4.3-1.6 8.9-3.5 15.5-6.7 21.6-5.7 33.5 5.4 3.6 3.3 7.1 6.1 7.7 6.1.7 0 6.1-3.4 12.1-7.5 9.9-6.9 11-7.4 13.4-6.4 2.1 1 2.3 1.5 1.5 3.1-.9 1.6-.6 2.5 1.4 4.7 2.4 2.4 2.5 3 1.7 8.6-.5 3.3-1.4 9.6-2 14s-1.3 9-1.6 10.2c-.9 4.7 9 12.3 16.1 12.3 4.6 0 7-1.3 9-4.8 1.6-2.6 1.6-2.6 1.2 3.3-.6 7.7-5 20.4-8.1 23-1.3 1.1-2.9 4-3.5 6.5-.7 2.5-2.3 6.1-3.5 8-1.8 2.7-2.2 4.5-1.9 7.8.4 3 .9 4.2 1.8 3.8.7-.2 2.1.1 3 .8 1.4 1 1.5 1.7.6 3.4-.6 1.1-1.1 2.3-1.1 2.6s25 .6 55.5.6 55.5-.2 55.5-.5-1.8-3.3-3.9-6.6l-4-6.1 2.7-5.4c2.2-4.5 2.4-5.8 1.4-7.2-.7-.9-1.9-3.2-2.7-5-.9-1.8-2.7-3.7-4-4.2-2.3-.9-2.5-1.4-2.5-8.2v-7.3h5.3c6.7-.1 13.2-3.6 14.7-7.8 1.3-3.9 1.3-22.9-.1-31.8-1.4-9.1-.7-11.8 3.2-12.6 4.3-.8 5.6-3.8 2.5-5.8-2.1-1.4-5.5-7.2-4.5-7.8 7-4.6 8.9-6.3 9.5-7.9.3-1.1 1.1-1.7 1.7-1.5.7.2 3.8 1.2 7.1 2.1 7.8 2.3 19.8 7.9 32.8 15.4 5.9 3.4 11.4 6.2 12.3 6.2 1 0 3.8-1.9 6.3-4.1 5.7-5 11.5-7.9 16.2-7.9 4.3 0 12 3.6 18 8.3 4.4 3.5 6 3.9 6 1.2 0-4.8 12.5-12.4 22.9-14.1l4-.6.3 5.8.3 5.9 4-5.9c8.7-12.7 12.7-12.7 19.1.1 2.2 4.5 4.6 8.9 5.4 9.7 1.3 1.6 5.7 2.1 9.8 1l2.2-.6v-47l-5.6-6.1c-3-3.4-9.9-12.5-15.1-20.3-5.3-7.8-10.4-14.6-11.5-15.3-1.6-1-2-.8-2.9 1.6-2.5 6.5-3.6 7.8-7.4 9.2-15.4 5.6-20.5 8-31.1 14.9-23.9 15.7-30.5 18.2-47.5 18.2-6.5 0-15.2-.5-19.3-1-8.3-1.2-11.6-.3-11.6 3s-3.1 4.1-11.1 3c-4-.6-7.5-1.3-7.8-1.5-.2-.3-1.6-3.1-3.1-6.3-7.2-15.9-8.8-18.2-14.3-20.8-2.9-1.3-10.8-3.3-17.6-4.4-9.9-1.7-18.4-4.3-20.9-6.5-.2-.2.6-1.8 1.7-3.6 1.2-1.9 2.1-2.7 2.1-1.9.1 1.2.4 1.1 1.5-.4.7-1 1.8-1.5 2.3-1.2s1.3-.4 1.7-1.7c.7-1.9.9-1.7 1.2 1.5.2 2.1.7 3.8 1.1 3.8s1.8-1.8 3.2-4 2.8-4 3.2-4 .8 1.7 1 3.7l.4 3.8 3.6-7.5c2-4.1 3.7-7.1 3.8-6.5 0 .5.4.4.9-.3.6-1 1.1-.6 1.9 1.7 1.5 4.3 3.1 3.9 3.8-.9l.7-4.1 2.1 1.9c2.7 2.5 6.6 4.5 6.6 3.5 0-.4-.8-2.2-1.9-3.9-3.8-6.2-3.7-7.1 1.4-7.8l4.6-.7-5.4-5.4c-3-2.9-5.9-6.7-6.5-8.4-1.2-3.4-1-3.6 1.8-2.1 1.6.9 2.1.2 4.2-5.3 1.8-4.8 2.9-6.3 4.6-6.5 2.7-.4 4.2-3.7 4.2-9.1 0-3.3-.5-4.1-4.4-6.8-4.6-3.2-8.3-7.9-7.3-9 .4-.3 1.9-.1 3.4.6 1.5.6 5.1 1.3 7.8 1.5 2.8.2 5.7.7 6.5 1s3.1.7 4.9.8l3.5.3 1.4-6.5c.7-3.6 1.1-8.6.8-11.1-.4-3.7-.1-5.1 1.3-6.3 1-.9 2.1-1.3 2.4-.9.7.7 8.3-2.8 13-6 3.2-2.1 3.6-5.4.7-6.5-2.8-1.1-16.5-19.5-18-24.5-.8-2.3-1.6-4.6-1.8-5.1-.3-.5-.6-2.4-.8-4.3-.5-5.8-1.4-6.5-5.4-4m-57 142.8c0 1.1-.4 1.8-1 1.4-.5-.3-.7-1.2-.3-2 .7-2.1 1.3-1.9 1.3.6"/></svg>