<svg xmlns="http://www.w3.org/2000/svg" width="682.667" height="512" version="1.0" viewBox="0 0 512 384"><path d="M348.2 55.2c-1.8.5-3.2 1.3-3.2 1.8 0 .6-.9 1-2 1s-2 .4-2 1c0 .5-.6 1-1.4 1s-3.6 1.8-6.3 4c-2.6 2.3-5.8 4.9-7.1 6-1.2 1.1-2.6 2-3 2-.4.1-1.5.9-2.5 1.7-.9.9-1.8 1.4-2 1.2-6.4-9.2-13.4-14.1-24.4-17-8.1-2.1-10.5-2.2-41.3-.3-17.9 1-24.6 3.2-32.4 10.4-10.4 9.6-15.7 31.1-12 48.1.5 2.3-.4 3.7-5.8 9.2-5 5.2-7.1 6.6-9.9 6.9-3.2.3-3.4.5-3.4 3.8 0 1.9-.5 4.5-1.2 5.6-1 1.8-.9 2.4.6 3.8.9.9 2.1 1.6 2.6 1.6s4.1 2 8.1 4.5c3.9 2.5 7.7 4.5 8.4 4.5.6 0 2-1 2.9-2.2 2.6-3.2 4.2-1.5 3.5 3.5l-.7 4.2 2.1-2.5c1.5-1.7 2.1-2 2.2-1 0 2.8-4.8 11.8-8.5 15.9l-3.7 4.1h4.1c4.7 0 4.9.6 2.6 7-.8 2.4-1.4 4.5-1.2 4.7s2.3-1.7 4.5-4.1l4.1-4.5 3.1 5.3c1.6 3 3 6.2 3.1 7.2.1 2 0 2.1 2.1-3.5.7-1.9 1.1-2.1 2.3-1.1.8.7 1.9 2.7 2.3 4.4.5 1.7 1.4 3.1 2.1 3.1.6 0 1.6.7 2.1 1.5.9 1.3 1 1.3 1 0 0-.8-.4-3-.9-4.8-.5-1.7-.8-3.2-.5-3.2.2 0 1.9 2.4 3.6 5.2l3.3 5.3.6-3c.4-1.7.8-2.6.9-2 .2.5.5-.5.9-2.3l.6-3.3 3.3 5.1c1.9 2.8 3.1 5.8 2.8 6.5-.8 2.2-6.5 4.2-16.9 5.9-11.1 1.9-18 4.1-22.1 6.9-3.8 2.7-13.6 16-17.7 24.2l-3.4 6.6-5-.6c-18-2.4-24.6-6-42.6-23.1-12.1-11.6-19.3-17.1-32.1-24.9-2.9-1.8-3.4-2.6-3.8-7.5-.7-7.7-1-7.6-14.6 8C75 219.2 59.1 232.4 28 252.3c-18 11.5-23.6 15.9-20.9 16.5.9.1 6.2-.4 11.9-1.3 19.1-2.8 22.8-2.1 36 6.4 9.3 6 9.9 5.8 19-7.3 4.1-6 8.3-11.4 9.3-12 2.7-1.7 4.8.2 8.2 7.2 1.6 3.4 3.2 6.2 3.6 6.2s1.3-2.6 2.1-5.8c1.3-5.3 1.6-5.7 4.5-6 3.9-.4 7.4 1.4 13.4 6.7 4.5 3.9 6.1 6.6 7.3 12.3l.6 2.7 7.2-3c15-6.4 22.9-5 33.9 6.3 3.7 3.7 7.5 6.8 8.4 6.8 1 0 6.1-2.8 11.3-6.1 8.3-5.4 9.7-6 11.8-5q2.4 1.05 2.4 3.6c0 1.4.5 3.4 1.2 4.4.9 1.4.8 3.6-.6 9.7-.9 4.4-2.4 11.4-3.3 15.7-2.2 10.7-1.3 14.2 4.8 17.9 2.6 1.7 6.6 3.1 9.7 3.5 4.9.5 5.3.4 8.8-3.1l3.6-3.6-.4 5.7c-.2 3.2-1.5 9.3-2.8 13.6-1.8 6.1-2.8 8-4.9 9-1.4.7-2.5 1.9-2.3 2.6.4 1.9-2.8 10.2-4.9 12.6-1.2 1.4-1.7 3.5-1.6 7 .2 4.2.5 5 2 4.7 2.1-.4 4.9 1.6 4.1 2.9-.3.5 22.6.9 54.1.9 30.1 0 54.5-.3 54.3-.8l-2.2-4.4-1.9-3.7 2.8-5.4 2.9-5.5-2.7-3.2c-1.5-1.7-2.7-4-2.7-5s-1-2-2.4-2.4c-2.6-.6-3.6-3.8-3.6-11.5v-4.6l4.8-.1c5.8-.1 13.6-3.4 15.4-6.6 1-1.7 1.2-7 1.1-21.8l-.3-19.6 2.6-2.7c1.4-1.5 3.5-2.7 4.9-2.7 3.1 0 3.4-3.2.7-5.2-2-1.4-4.2-4.9-4.2-6.7 0-.5.8-1.2 1.9-1.6 1-.3 3.5-2.1 5.4-4 2-1.9 4.1-3.5 4.8-3.5 4.8 0 29 11.4 43.9 20.6 4.9 3 9.6 5.4 10.5 5.4s4.2-2 7.3-4.5c7-5.4 13.2-7.8 18.1-6.9 4.6.9 13.5 5.3 18.5 9.3 4.4 3.5 6.6 3.9 6.6 1.3.1-2.5 4.1-6.7 8.9-9.1 4.5-2.4 14.2-5.1 17.9-5.1 2.3 0 2.4.3 1.9 3.8-.7 5.9 2.3 9.9 3.9 5 1.1-3.6 9.4-11.8 11.9-11.8 3 0 3.9 1.3 8.5 11.5 7.1 16.2 7 16.5 7-21.9 0-31.5-.1-34-1.9-36.4-1-1.5-4.4-7-7.6-12.2-5.4-9-10.9-16-12.7-16-.4 0-1.2 1.8-1.8 4-1.5 5.4-2.8 6.4-12.2 9.5-13.3 4.4-19.2 7.1-31.4 14.6-27.6 16.9-38 19.3-67.4 15.5-10.4-1.3-11.7-1.3-13.2.1-1 .9-1.8 2.4-1.8 3.3 0 2.5-3.6 3.1-10.6 2-3.2-.6-6.2-1-6.5-1-.4 0-2.3-4.2-4.3-9.3-7.3-18.9-9.9-21-30.7-25.1-14.9-2.9-24.6-7.1-22.5-9.5.7-.9 1.6-2.5 2.1-3.6.5-1.3.9-1.6 1.2-.7.4 1 .8 1 1.9.1s1.4-.8 1.5.2c0 .8.9-.4 1.9-2.6l1.9-4v4.7c.1 2.7.4 4.8.9 4.8.4 0 1.6-1.6 2.6-3.5 1.5-2.6 2.2-3.2 3.2-2.4.7.6 1.4 2 1.6 3.2.2 1.6 1.2.3 3.8-5 1.9-3.9 4.1-7.4 4.7-7.7.7-.3 2 .8 2.8 2.5 1.8 3.4 3.1 3.1 4-1.1l.6-2.9 4.1 3c2.3 1.6 4.3 2.7 4.5 2.5.3-.3-.7-2.4-2.1-4.9-3.7-6.3-3.5-7.7 1.3-7.7 5.1 0 5.7-1.1 2.1-3.5-5.3-3.6-11.7-15.8-7.4-14.1 1.3.5 1.5.2 1.1-1.4-.3-1.2.2-3.5 1.1-5.1 1.3-2.3 2.2-2.8 3.9-2.4 2.6.6 5-2.4 6.3-8 .7-3.3.5-3.8-4.6-8.9-4.8-5-7.5-9.8-6.1-11.2.5-.5 8.9 2.6 12.9 4.7 1 .5 2.5.9 3.3.9s1.5.4 1.5.8c0 .8 6.6 3.6 8.4 3.7 1.9 0 2.9-18.1 1.3-23.7-.6-2.2-.4-2.6.7-2.2.8.3 2.1.2 2.8-.2.7-.5 2.9-.9 4.8-1 8.8-.5 15-2.2 15-4 0-.7-1.7-2.7-3.9-4.4-8.2-6.6-15.9-21-16.7-31.2-.7-10.3-.9-10.5-8.2-8.6M288 191.5c0 .8-.4 1.5-1 1.5-.5 0-.7-.7-.4-1.5.4-.8.8-1.5 1-1.5s.4.7.4 1.5"/></svg>