<svg xmlns="http://www.w3.org/2000/svg" width="682.667" height="512" version="1.0" viewBox="0 0 512 384"><path d="M253.5 55c-19 1.1-25.8 3.4-33.7 11.4-5.4 5.5-9.1 12.9-11.3 22.8-1.7 7.8-1.7 20.5-.1 24.2.7 1.5-.5 3.2-6.7 9.1-6.6 6.3-7.9 7.1-10.6 6.7-3.6-.5-5 1.6-3.3 5.2.8 1.8.7 2.7-.6 4-2.2 2.2-.8 4.5 4.3 6.9 2.1 1.1 5.9 3.4 8.3 5.3 5.2 3.9 7.7 4.3 10.1 1.3 1.5-1.8 1.8-1.9 2.9-.6.9 1.1 1 2.2.2 4.2-1.4 3.7-.5 4.3 1.9 1.4l2-2.4.1 2.7c0 3.1-6 14.2-9.5 17.4-3 2.8-2.2 3.5 2.7 2.8 4.4-.8 4.6-.4 1.9 6.6-1.1 2.7-1.5 5-1.1 5 .5 0 2.6-2 4.7-4.4l3.9-4.4 2.2 4.1c1.2 2.3 2.2 5.8 2.3 7.7l.1 3.5 2.2-5 2.3-5 1.7 3.2c.9 1.8 1.6 4.9 1.7 7 0 3.6.1 3.6 1 1.3l1-2.5 2 2.4c2.1 2.6 2.4 1.4.9-3.8-1.4-5.1-.6-4.8 2.9.8 2.9 4.8 5.8 7 4.4 3.4-.5-1.2-.3-1.4.7-.8s1.2-.2.7-4l-.5-4.9 1.9 2.5c5.6 7 6.1 11.6 1.7 13.7-1.5.7-8 2.1-14.5 3.2-14.8 2.5-18.1 3.4-22 6.3-4.4 3.2-11.8 12.6-17.9 22.6l-5.2 8.6-3.8-.3c-5.7-.5-15.2-3.1-19.8-5.4-5.9-3-11.6-7.8-24.6-20.8-7.6-7.5-15.2-13.9-22-18.5l-10.5-7-.3-5.3c-.5-8.3-.9-8.1-17.8 11.3-17 19.5-29.3 29.8-59.9 50-16.6 11-21.5 14.9-20.2 16.1.4.4 4.6.2 9.5-.5 10.9-1.4 20.2-1.4 23.7-.1 1.4.5 6.3 3.5 10.9 6.5s9.1 5.5 9.9 5.5c.9 0 4.5-4.4 8.1-9.8 8.1-12.1 11-15.1 13.3-13.6.9.6 2.8 4.1 4.2 7.8 2.2 6.1 2.6 6.6 3.8 5 .7-.9 1.6-3.4 1.9-5.3.4-2 1.1-4.2 1.7-4.9 1.7-2.2 5.8-1.3 10.9 2.5 6.1 4.4 10.5 10.3 11.4 15 .8 4 .4 4 12.4-.3 13-4.6 19.9-2.3 31.6 10.4l6.1 6.7 5.4-3.4c3-1.9 7.5-4.7 10-6.3 3.9-2.5 5-2.7 7.3-1.8 2.2.8 2.6 1.4 2.1 3.1-.4 1.2-.1 2.7.8 3.7 1.3 1.5 1.1 3.3-1.9 15.2-4.2 16.8-4.4 24-.9 27.6 3.1 3.1 10.1 6.3 13.8 6.4 3.9 0 8.4-2.5 10.2-5.8 1.5-2.6 1.6-2.4 1.2 4.8-.7 10.4-3.9 20.3-7.3 21.8-1.5.8-2.4 1.9-2.2 3 .4 2.3-4.1 12.9-5.7 13.6-.9.3-1.3 2.1-1.2 5.7.2 4.7.4 5.3 2.7 5.7 1.4.3 27.1.7 57.2.9l54.6.3-1-2.8c-.9-2.4-.7-3.5 1.6-7.4 3.1-5.3 3.2-6.9.7-9.2-1.1-1-2.3-3.1-2.6-4.6-.4-1.8-1.4-3-2.9-3.4-2.5-.6-3.6-4.2-3.6-12.2v-4.1l6.3-.5c7.1-.6 12-2.7 13.9-6.1.9-1.5 1.4-8.3 1.5-21.5.3-16.6.6-19.5 2.1-21.1.9-1.1 2.3-2.7 3-3.5.7-.9 2.2-1.6 3.2-1.6 2.4 0 2.7-3.2.4-5.1-.8-.7-2.1-2.4-2.9-3.8-1.2-2.5-1.1-2.7 3.6-6 2.7-1.8 4.9-3.7 4.9-4.2 0-1.8 5.3-.8 14.1 2.6 10 3.9 17.5 7.8 32.6 17.2 5.5 3.5 10.7 6.3 11.5 6.3.7-.1 4.2-2.3 7.7-5 11.9-9 19.2-8.9 33.5.7 4.4 3 8.4 5.5 8.8 5.6s1.5-1.4 2.5-3.3 3.3-4.5 5.2-5.7c3.8-2.6 14.3-6.1 20.9-7l4.2-.6.1 4.9c0 2.7.4 5.8.8 6.9.7 1.7 1.1 1.5 3.3-2.1 1.4-2.2 4.2-5.5 6.3-7.2 3-2.7 4.4-3.2 7.3-3 3.2.3 4 .9 6.2 4.8l2.5 4.5.3-31.4.2-31.3-6.6-10.4c-9.4-14.7-14.3-18.4-14.4-10.7 0 4.2-4 7.1-14.5 10.4-13.4 4.2-17.8 6.3-32.5 15.1-15.5 9.2-20.4 11.5-29.8 13.9-9.1 2.3-20.4 2.4-32.7.4-4.9-.8-11.1-1.5-13.7-1.5-4.5 0-4.7.1-5.8 3.6l-1.2 3.7-6.4-.6c-3.5-.4-7.2-1.1-8.2-1.6s-2.6-3.6-3.6-6.8c-3.2-10-9.2-20.9-12.8-23.1s-11.1-4.4-23.9-6.8c-8.7-1.6-19.9-6.6-19.8-8.7 0-.6.4-2.1.9-3.2.8-1.8.9-1.8 1 .5.2 2.3.3 2.3 1.7-.9 1-2.3 1.7-3.1 2.2-2.2 1.1 1.7 3.4 1 4.8-1.4 1.2-1.9 1.2-1.9 1.3.5.1 1.4.5 3.4.9 4.5.8 1.8 1 1.6 2.6-1.6.9-1.9 2.6-4.1 3.7-4.8 2-1.2 2.1-1.1 1.5 2.8-.7 5.8.9 4.3 5-4.5 1.8-4.1 3.8-7.4 4.3-7.4s1.7 1.4 2.5 3c1.5 2.9 3.5 3.3 3.5.7 0-.7.4-1.8.9-2.6.7-1.1 1.5-.9 4.3 1.3 4.1 3.1 7 3.6 4.6.8-.9-.9-2.5-3.6-3.7-5.9-2.3-4.6-1.8-5.3 4-5.3 1.6 0 2.9-.3 2.9-.6s-2-2.5-4.3-4.9c-4.6-4.6-7.7-10.2-6.1-11.3.5-.4 1.9-2.8 3.1-5.5 1.6-3.3 2.9-4.7 4.3-4.7 2.4 0 4.9-3.6 5.7-8.4.5-3.3.1-4.1-4.5-9-4.4-4.7-7.3-9.9-6.1-11.1.2-.2 2.7.7 5.4 2 2.8 1.3 5.5 2.4 6.2 2.4.6.1 3.6 1.4 6.5 3 9.2 5 9.4 5 11.2-1.3 2-6.7 2-13.6.2-18.1-1.5-3.5-1.5-3.5 1.2-3.6 5.3-.2 9.8-.6 14.7-1.4 2.8-.4 5.6-.7 6.3-.8 2.4-.1 1.1-3.2-3-7.3-5.3-5.1-5.9-5.8-9.8-12.7-4.5-8.1-6-13.6-6.9-26-.1-1.3-1-1.7-4-1.7-4.3 0-11.1 2.5-11.1 4 0 .6-.8 1-1.8 1s-3.6 1.5-5.8 3.3c-4 3.4-7.7 6-12.6 8.9L321 73l-5.8-5.8c-12.5-12.5-21.9-14.4-61.7-12.2m34.6 138.3c-1.3 1.3-1.5-.1-.4-3 .7-1.7.8-1.7 1.1.1.2 1-.1 2.3-.7 2.9"/></svg>