<svg xmlns="http://www.w3.org/2000/svg" width="682.667" height="512" version="1.0" viewBox="0 0 512 384"><path d="M240.3 47c-12.2 1.3-22.3 8.3-27.8 18.9-4.7 9.2-6.7 17.5-7 28.6l-.3 11-4.8 4.3c-8.1 7.4-13.2 10.5-16.3 9.9q-6.6-1.35-3.6 4.2c1.5 3 1.5 3.4 0 5.8-1.5 2.3-1.5 2.6.1 4.4.9 1 2.4 1.9 3.3 1.9s5 2.7 9.1 6 8.1 6 8.9 6 2.5-1 3.8-2.2c2.6-2.4 2.7-2 1.2 3.5-1.3 4.7-.6 5.7 1.9 2.7 2.3-2.8 3.9-2 4.7 2.4.6 2.7 0 4.4-3.1 9.3-2 3.3-5 6.8-6.5 7.9-4.3 2.8-3.5 3.7 2.5 3.1l5.4-.5-1.3 5.1c-.7 2.9-1.6 6.1-2 7.2-.3 1.1 1.6-.4 4.4-3.3l5.1-5.3.1 7.3v7.3l1.6-3.3c1.9-3.7 2.8-4 4.3-1.2.6 1.1 1.5 1.8 2.1 1.5.5-.4.9 1.1 1 3.2 0 3.3.1 3.5.9 1.5 1.3-3.1 3-2.8 6.3 1 2.7 3.1 2.8 3.2 2.3.8-.3-1.4-.9-4.3-1.2-6.5-.4-3.4-.4-3.7.7-2 .7 1.1 2.8 4.5 4.8 7.5l3.6 5.5.5-7.5.6-7.5 1.5 3.5c.9 1.9 1.7 5.4 1.8 7.7.3 6-1.9 7.1-16.5 8.4-13.8 1.2-22.4 3.1-27.1 6-1.9 1.2-5.9 5.3-9.1 9.3-3.1 3.9-6.5 8-7.5 9.1s-3.1 4.1-4.7 6.6c-4.1 6.3-6.6 7.5-12.6 6-11.7-3-18.7-8.5-34.4-27.1-10.7-12.7-14.2-16.1-24.2-23.5l-6.8-5v-5.9c0-4.9-.3-5.7-1.6-5.2-.9.3-1.7.6-1.9.6s-4.1 4.6-8.8 10.2c-17.5 21.3-30.2 32.4-58.9 51.6-7.6 5.1-14.2 10.1-14.8 11.2-1 1.9-.8 2 8.7 2 5.4 0 11.4.5 13.3 1 1.9.6 6.6 3.7 10.3 7 7.7 6.7 10.3 8.4 12.2 7.6.7-.2 4.6-5.2 8.5-11.1 4.2-6.1 7.7-10.2 8.2-9.7.4.4 1.7 3.9 2.8 7.7 2.8 9.7 3 9.7 5.9 1.6 1-2.9 2.3-5.7 2.9-6.3 1.7-1.7 5.2.1 11 5.6 5.8 5.4 9.1 11.2 9.2 15.9 0 2.5.3 2.7 2.3 2.1 1.2-.3 3.6-1.3 5.2-2.2 1.7-.8 6.2-1.7 10.1-2 9.9-.6 14.8 2.1 23.3 12.9 3.5 4.3 7 7.9 7.9 7.9s5.1-2.3 9.3-5.1c4.3-2.8 8.3-4.8 8.9-4.4 1.3.8 1.4.4-3 17.5-2 7.9-3.4 16-3.7 22-.5 8.7-.3 9.7 1.7 12.3 1.2 1.5 3.9 3.6 6 4.7 9.4 4.8 17.2 3.2 20.9-4.3l2.1-4.2v4.5c0 2.5-.7 8.3-1.6 13s-1.8 9.7-2.1 11.3c-.3 1.5-1.5 3.4-2.7 4.2-1.1.9-2.1 2.1-2.1 2.8-.1 1.9-6.1 13.2-7.9 14.6-.9.8-1.6 2.4-1.6 3.7v2.4h125v-2.3c0-1.2-.9-3.6-2-5.2-1.1-1.7-2-3.7-2-4.7 0-.9-1.5-2.5-3.4-3.6-3.3-2-3.4-2.2-3.8-9.1-.1-3.9-.1-7.6 0-8.1.2-.6 2-1 4-1 5.5 0 10.2-1.6 13.3-4.6 2.3-2.2 2.8-3.7 3.4-9.7.7-8.5 3.3-29.3 4-32.3.3-1.3 1.7-2.4 3.7-3 2.5-.8 3.3-1.5 3.3-3.4 0-1.3.7-2.5 1.5-2.8 4.2-1.1 4.2-1.1 1.6-5.6-3.2-5.5-3.2-6-.2-7.4 1.3-.6 4-2.5 5.9-4.2l3.6-3.1 7.3 3.1c10.5 4.5 20.1 9.9 35.5 20.1 7.4 4.9 14.2 8.9 15.1 8.9s4.6-2 8.1-4.5c8.6-6 14.9-8.1 19.8-6.4 6.3 2 12.7 5.6 19.8 10.9 3.6 2.7 6.9 5 7.3 5 .4-.1 1.6-1.9 2.7-4.2 2.3-4.9 6.1-7.1 16.8-9.9 7.4-1.9 15.7-2.3 19.2-1 1.7.7 2 1.7 2 6.9 0 3.3.4 6.4.8 6.8.4.5 2-.7 3.4-2.6 1.5-1.9 4.4-5.2 6.5-7.2l3.8-3.7v-77.6l-4.1-5c-6.5-7.9-8.8-8.1-8.9-.9 0 4.3-3.2 6.8-12 9.3-16.3 4.8-25.6 8.8-40.6 17.3-24.2 13.9-39.6 16.9-63.4 12.3-18.6-3.5-22.2-3.2-23.2 2-.3 1.8-1.1 2-6.3 1.8-3.2-.1-6.4-.8-7-1.5-.7-.7-2-4.7-3-8.8-5.4-23.2-9.2-26.6-35.7-32.5-7.6-1.7-22.8-8.9-22.7-10.8 0-.6 1.1-3.5 2.4-6.2l2.5-5-.5 5.5-.5 5.5 2.9-6c2.4-4.9 3-5.6 3.2-3.5.1 1.4.2 3.3.1 4.2-.3 3.1 1.7 1.9 3.5-2l1.6-3.7 1 4.7c.6 2.7 1.4 4.8 1.7 4.8.4 0 1.3-1.5 2.1-3.3.7-1.7 1.9-4.1 2.7-5.2 1.3-1.8 1.4-1.6.8 2.7-.3 2.7-.2 4.8.3 4.8s2.6-3.6 4.7-8 4.3-7.9 4.8-7.7c.6.2 2 1.8 3.1 3.5 2.5 3.9 3 3.9 4.1.2l.9-3 3.8 2.6c2.1 1.4 4.1 2.4 4.3 2.1.3-.3-.5-2.2-1.9-4.4-4.6-7.5-4.3-9.3 1.7-9.3h2.8l-3.7-4.1c-3.8-4.2-6.5-9.5-6.5-12.5 0-1 .3-1.4.7-1.1 1 1.1 3.3-1.3 3.3-3.4 0-1.1 2-5.9 4.5-10.8s4.5-9.3 4.5-9.8c0-.6-1.6-2.3-3.6-3.8-3.3-2.5-8.2-11-7.1-12.1.2-.3 2.2.2 4.3 1 2.2.7 5.5 2 7.4 2.6 4.9 1.8 7.6 2.8 10.3 4 6.6 2.8 10.1 4 11.6 4 2.7 0 7.1-11.4 7.1-18.2 0-3.1-.4-6.8-.9-8.1-.9-2.4-.9-2.5 2.9-2 3.4.5 14.4-.9 19.3-2.3 2.4-.7 2.1-3.9-.6-6.1-3.4-2.7-10-13-13.1-20.3-1.5-3.6-3.1-7.2-3.5-8s-.6-3.8-.4-6.5c.2-2.8.1-6.5-.2-8.3l-.6-3.2-6 .4c-3.6.2-6.7 1-7.8 2-1 .9-2.1 1.3-2.4.9-.4-.3-1.8.3-3 1.5-1.3 1.2-2.6 1.9-3 1.6-.6-.7-7.6 3.6-10.5 6.3-.7.7-1.8 1.3-2.4 1.3-.5 0-2.3 1.1-4 2.5-1.6 1.4-3.5 2.5-4.3 2.5-.7 0-1.8.6-2.4 1.4-1 1.1-2.2.3-6.9-4.6-6.6-7-11.3-10.2-19.1-13.1-5-1.8-8.2-2.1-29.6-2.3-13.2-.1-27.2.1-31.2.6"/></svg>