<svg xmlns="http://www.w3.org/2000/svg" width="682.667" height="512" version="1.0" viewBox="0 0 512 384"><path d="M259.3 3c-19.2 4.9-28.7 11.7-35.2 25.4-4.1 8.5-5.6 14.5-6.7 25.9-.7 8.2-2.5 10.3-15 17.7-16.3 9.6-17.7 10.1-23.2 8.8-2.8-.6-5.7-.8-6.5-.5-3.4 1.3-4.9 14.5-2.1 18.5 1.9 2.8 3.7 2.8 10.2-.3 3-1.4 5.6-2.5 5.8-2.5s.4 1.1.4 2.5c0 2.9 1.3 3.1 7.2 1.3 3.3-1 4.2-.9 4.9.3 12.1 19.3 23 35.1 23.8 34.3.2-.2 1.3.4 2.4 1.3 1.9 1.7 2 1.7.8-.4-2.4-4.7-3.1-7.2-1.7-6.7 2.5 1 3.6 5.4 4 16.7.3 6.1.3 10.2 0 8.9-.8-3.4-1.7-2.7-4.3 3.6-7.6 17.7-18.7 38.3-22.5 41.7-.6.5-2 2.7-3.1 4.7l-1.9 3.8 2.1 1.9c1.2 1.1 2.9 4.6 3.8 7.8s2.3 6.8 3.1 8.1c1.4 2.1 1.3 2.5-.7 5.3-1.3 1.9-2.7 2.8-3.7 2.5-8.1-2.4-19.4-3.8-45-5.6-14.7-1.1-47.9.1-55.2 1.9-7.8 1.9-8.2 2.7-5.5 11.5 1.7 5.7 3.7 9.1 7.3 12.4 3.8 3.6 1.7 4.7-8.9 4.5-8.1-.2-8.9 0-8.9 1.7 0 1.9 5.3 7 7.2 7 .6 0 2.7 1.8 4.7 3.9 2 2.2 5 4.3 6.6 4.7 2.8.6 8.5 5.6 8.5 7.3 0 .4 1.2 1.8 2.6 3.2 2.4 2.2 3.3 2.4 12.6 2.2 8.7-.1 10.7-.5 15.1-2.8 2.9-1.5 6.9-3.3 9-4l3.7-1.3 2.4 4.2c1.3 2.2 5.2 10.4 8.7 18.1 3.4 7.7 7.3 15.6 8.4 17.5 5.7 9.1 15.7 14.6 24.9 13.7l4.9-.4-.6 7.6c-1 11.9-4.2 26.6-6.6 30-1.2 1.6-4.4 4.6-7.1 6.6-2.8 2-5 4.3-5 5.1 0 1.2 10.1 1.4 68.2 1.4h68.2l-3-3.1c-1.6-1.7-4.5-3.9-6.5-4.9-3-1.6-3.7-2.6-4.7-7-2.3-10-1.6-19.3 2.7-33 2.2-6.9 4.5-15.1 5.2-18.3 1.1-5.2 1.5-5.8 3.3-5.2 3.2 1 10.6 1.8 10.6 1.2 0-.3-1.1-2.9-2.5-5.9-1.4-2.9-2.5-6.7-2.5-8.4v-3.1l6.1-.2c9.5-.2 12.9-2.7 17.7-13.5 1.7-3.8 1.7-3.8 6.2-3.3 18.5 2.2 43.3 17.7 78 48.7 6.3 5.7 13.3 11.1 15.4 12.1 4.6 2 5.6 1.7 12.8-4.3 6.4-5.3 17.2-10.8 21.3-10.8 3.9 0 15.4 5.6 24.1 11.9l5.9 4.2.3-48.2c.1-26.5 0-48.4-.3-48.7-.2-.3-2.2.6-4.2 2-14.1 9.5-28.6 16.8-39.8 19.9-12.9 3.7-25.2 3.1-48-2.2-8.2-1.9-17.1-2.4-19.2-1.1-.6.4-1.5 2-1.8 3.5-.4 1.5-1.1 2.7-1.6 2.7-1.2 0-14.1-5.2-22.2-9-3.7-1.7-9.8-4.4-13.5-6l-6.7-2.9.3-13.3c.2-7.8 0-14.3-.6-15.8-1.7-3.9-6-8.1-15.2-14.9-4.7-3.4-9.2-6.8-10-7.4-.9-.7-3.4-2.4-5.6-4-2.2-1.5-5.3-4-6.9-5.7-2.3-2.5-2.7-3.4-2.1-6.5.8-4 2.4-4.2 4.3-.4.9 1.6 1.3 1.9 1.3.8 0-2.1 3.1-3.4 4.1-1.7.4.7 1.1.9 1.5.5s1.3.1 2.1 1.1c1.2 1.5 1.3.8.7-4.9-.5-5.5-.3-7.2 1.5-10.5l2-3.9.1 10.2c0 10.6.9 12.7 3 7 1.1-3 1.2-3.1 2-1.1 1.2 3.2 2.7 3.7 3.3 1.3.4-1.5 1.1-2 2.1-1.6 1.3.5 1.6-.4 1.6-5.5v-6.1l2.3 2c1.2 1.1 3.1 2.5 4.3 3.1 1.8 1 2.3.8 3.3-1.4.6-1.4 1.1-3.8 1.1-5.5 0-2.1.4-2.8 1.2-2.3 1.8 1.1 8.8 2.2 8.8 1.4 0-.4-1.1-1.5-2.5-2.4-4.2-2.8-9.3-15.4-8-19.6.6-1.9.7-1.9 2.8 0 2.8 2.6 4.3 2.5 10.8-.8 5.6-2.8 9.7-8 7.2-8.9-.7-.3-1.3-1.5-1.3-2.7s-1.8-5.7-3.9-9.9c-4.4-8.7-8.1-18.9-8.1-22.4 0-6.9 6.1-10.9 10.9-7.2 1.3 1 3.2 1.9 4.2 1.9s2.1.5 2.4 1.1c.4.6 1.4.8 2.2.5s2.4.1 3.7.9c1.2.8 2.6 1.2 2.9.9.4-.4 1.4-.1 2.2.6 2.3 1.9 9.4 1.5 13.5-.7 8.8-4.7 25.1-19.3 25.6-23 .2-.9-.8-3-2.2-4.6-1.3-1.5-2.4-2.6-2.4-2.3s-1.5-.9-3.2-2.5c-1.8-1.7-4.4-3.5-5.8-4.1q-2.4-1.05-1.2-1.5c.8-.3 2.1.2 2.9 1 1.4 1.4 2 1.4 5.5 0 2.9-1.2 4.2-1.3 5.1-.4 1.6 1.6 3.7 1.4 5.9-.6 1.1-.9 1.8-1.1 1.8-.5 0 .7.8 1.2 1.9 1.2 2.3 0 3.7-6 2.1-9-.6-1.1-.7-2-.3-2 .4-.1-.2-.9-1.5-1.9-1.2-1.1-1.7-2.1-1.2-2.3 1.2-.4-.6-6.8-1.9-6.8-.4 0-1.6-.7-2.7-1.6-1.6-1.3-1.6-1.5-.1-1 2.3.7 2.2-.7-.3-2.9-1.1-1-1.7-2.2-1.4-2.6.5-.9-2.4-8-3.8-8.9-1.1-.8-1.4-11.8-.5-16.8l.9-4.2h-32.4C368.5 0 362 .3 360 1.5c-1.4.8-5.8 3-9.7 4.9l-7.2 3.5-9.3-4.7-9.3-4.7-27-.2C270.8.1 270.4.1 259.3 3M248 169.9c0 2.9 1.1 3.4 3.8 1.7.8-.5 2.1-.1 3.2.9 1.9 1.8 5.6 1.7 13.1 0 3.3-.9 5.6 3.2 3.4 6.2-.8 1-1.5 2.8-1.5 4 0 3.5-1.5 3.9-19.9 5.6-2.1.2-2.6-.4-3.3-3.8-.5-2.2-1.4-5.7-2-7.7-.8-2.8-.8-4.4.2-6.7 1.6-3.9 3-4 3-.2m-68.2 70.8c.5 1.8-2.3 1.6-3.9-.3-1.1-1.4-1-1.5 1.1-1.2 1.3.1 2.5.9 2.8 1.5"/></svg>