<svg xmlns="http://www.w3.org/2000/svg" width="682.667" height="512" version="1.0" viewBox="0 0 512 384"><path d="M263.5 2.9c-12.9 4.9-18.9 8.3-25.1 14.6-9.3 9.2-13.5 19.1-14.9 34.9-.4 4.4-1.4 9-2.2 10.2-2.2 3.4-13 10.1-27 16.9-7 3.3-7.5 3.4-12.4 2.3-6.3-1.5-7.2-.5-6.6 7.2 1 12.1 6.4 15.6 16.6 11 5.6-2.6 7.1-2.5 10 .6 1.8 1.8 3.1 2.4 4.8 1.9 2.4-.6 2.9.4 2.4 4.9-.1 1.5.2 1.6 1.3.7 1.5-1.2 2.7-.2 3.9 3.2 1.1 3 9.8 14.7 11 14.9.7 0 1.7.2 2.2.2.6.1 4 3.1 7.6 6.6l6.5 6.5.3 9.2c.1 5-.3 11.1-1 13.5-.6 2.4-1.2 5.6-1.3 7.2l-.2 3 3.7-4.2c2-2.3 4.8-5.6 6.1-7.2 1.2-1.6 2.7-3 3.2-3s.6 3 .3 6.6c-.5 6.6-.1 10.4 1.2 10.4.4 0 1.8-1.9 3.1-4.2 2.2-4 2.4-4.1 3.3-2 .6 1.2 1.4 2.2 1.9 2.2.4 0 .8 1 .8 2.2 0 1.8.2 2 .9.9 1-1.5 12.1-2.3 12.1-.8 0 .4-.9 3.7-2.1 7.2-1.7 5.5-2.5 6.6-4.7 7.1-5.7 1.2-11.5 3.7-15.5 6.8-3.6 2.8-4.6 4.3-7 11.6l-2.7 8.5-7.7 5.5c-14 10-18.1 15.7-15.3 21 .9 1.7.8 1.7-2.8 0-2-1-5.7-2.3-8.1-3-2.4-.6-7.2-2.4-10.6-4-6.2-2.8-13.9-4.7-28.5-7-9.8-1.6-68.2-.9-72.2.8-2.4 1-2.8 1.7-2.8 5.4 0 5.8 3.8 13.5 8.8 18 2.3 2.1 4.2 4.1 4.2 4.4 0 .6-5.2.1-13.6-1.1-3-.5-4.3-.3-5.3.9-1.7 2-.3 4 5 6.7 2.1 1 4.1 2.8 4.4 4 .4 1.3 2.8 3.1 5.9 4.5 5.7 2.6 7.5 4.2 9.9 9 2.1 4.2 6 5.4 16.6 5.4 10.1 0 14.7-1.1 21-5.1l4.6-2.8.3 2.9c.4 3.7 5.5 7.9 10.6 8.7 4 .6 4.4.9 8.2 7.8 5.2 9.4 13.7 22.7 16.6 26.1 4.9 5.6 13 8.7 24.1 9.4 1.1 0 .8 7.6-.8 19.6-2.1 16-2.8 17.8-8.3 22-5 3.8-7.3 7-6.5 9.1.4 1 13.5 1.3 68.2 1.3l67.6-.1-3.3-2.9c-2.1-1.9-4.3-3-6.3-3-5.2 0-7.7-2.5-10-10.4-3.2-10.7-3.5-18.6-1-28.1 7-26.1 6.6-25 9.4-24.7 3.2.4 3.1.5 1.2-4.1-1.6-3.8-1.9-8.4-.9-11.1.5-1.2 2.1-1.6 7.3-1.6 4.6 0 7.4-.5 9.1-1.7 3.4-2.3 5-4.5 4.5-6.1-.3-.7.2-1.5 1-1.8s2.2-2.6 3.1-5c1.6-4.1 1.9-4.4 5.3-4.4 6 .1 21.1 3.8 27.7 6.9 13.6 6.4 33.2 21.5 55.4 42.7 23.1 22.1 22.6 21.9 32.9 13.5 15.1-12.2 23.3-14.6 33.2-9.5 2.8 1.4 5.3 2.3 5.5 2.1s.3-19.1.2-42l-.3-41.6-4.5 3c-7.1 4.8-21.9 11.7-29 13.6-9.8 2.7-27.4 2.2-42.5-1-18.7-3.9-19.4-4-22.1-2.2-1.3.8-2.4 2.4-2.4 3.6 0 1.1-.6 2.2-1.3 2.5-.8.3-12.3-4.8-25.6-11.3l-24.2-11.8.5-3.5c.3-1.9.8-6.9 1.2-11.1 1-11.1-.8-14-18.4-30.7-13.3-12.7-17-17.5-14.4-19.1.6-.3 1.4-1.9 1.7-3.4.7-2.6.8-2.6 2.1-1 .9 1.2 1.3 1.3 1.4.5 0-.8.5-1 1.3-.5.6.4 1.7.8 2.2.9.6 0 1.5.2 2.1.2.6.1 1.6 1.2 2.3 2.4.9 1.9 1 1.4.6-3.3-.6-5.7.1-10.9 1.5-10.9.4 0 1.3 2.7 2 5.9 1.7 8 4 9 4 1.8.1-5.2.1-5.2 1.6-2.5 1.3 2.5 4.2 4.8 6 4.8.4 0 .4-2.8.1-6.2s-.2-5.6.3-4.9c1.2 2 2.2-.4 1.4-3.5-.6-2.5-.6-2.6 1.7-1.4 1.3.7 2.6 1.6 2.9 2.1.3.4 1.8 1.1 3.4 1.5 2.6.6 2.7.5 1.7-1.4-1.8-3.4-1.3-4.1 2.7-3.5l3.7.6-2.8-2.2c-1.5-1.3-3.1-3.1-3.7-4.1-.9-1.7-.7-1.7 2.7.1 5.8 3 6.3 2.4 3.1-3.9-3-5.6-3.4-6.8-4.5-12.8-.4-2.7-.2-3.2 2-3.8 3.4-.8 5.2 0 6.5 3 1 1.9 1.9 2.4 5.1 2.4 3.1 0 4.7-.7 7.5-3.4 4.4-4.1 4.5-6.6.6-8.8-1.7-1-3.3-2.5-3.7-3.5-.3-1-1.9-3.7-3.5-6-3.8-5.6-10.8-20.2-10.8-22.5 0-1 1.1-4 2.5-6.7 1.8-3.7 3.1-5 5.2-5.4 1.5-.3 3.4-.1 4 .5.7.6 2.4.8 3.8.6 1.4-.3 2.8-.2 3 .2.7 1.1 8.4 1 9-.1.4-.5 1.5-.9 2.6-.9 1 0 1.9-.5 1.9-1 0-.6.7-1 1.5-1s1.5-.5 1.5-1c0-.6.7-1 1.6-1s2.7-1.1 4-2.5 2.6-2.5 3-2.5 1.4-.7 2.3-1.5c.9-.9 4-3.8 6.9-6.6 2.8-2.7 5.2-5.4 5.2-5.9s.8-1.1 1.8-1.4c1.6-.6 5.2-6.4 5.2-8.5 0-.5-1.2-.9-2.6-.9-1.5 0-3-.6-3.5-1.3-.4-.8-1.2-1.4-1.6-1.5-.4 0-2.1-.6-3.8-1.3-9.4-3.7-8.7-3.2-6.7-4.6 1-.7 3.5-1.3 5.6-1.2 2.4.1 4.3-.5 5-1.5.8-1.1 1.5-1.2 2.8-.5 2.8 1.8 5-.9 4.4-5.7-.2-2.3-.5-4.3-.6-4.6s-.2-.9-.1-1.4c.1-.4-.2-1.3-.7-2-.5-.6-1.2-2.4-1.6-4-.4-1.7-1.6-4.2-2.6-5.7-1.1-1.4-1.6-2.9-1.3-3.3.4-.3 0-1.2-.9-1.9-.9-.6-1.8-2.4-2.2-3.9-1.4-6 .2-5.8-46.6-5.8-27.6 0-43.1.4-43.5 1-.4.7-1.2.7-2.5 0-1.1-.6-14.1-1-33.7-.9l-31.8.1zm-22.6 130.6c.1 1.8 0 1.8-1.5-.3-.9-1.3-1.3-3-.9-4 .6-1.5.8-1.5 1.5.3.5 1.1.9 2.9.9 4"/></svg>