<svg xmlns="http://www.w3.org/2000/svg" width="682.667" height="512" version="1.0" viewBox="0 0 512 384"><path d="M275 4.4c-22.3 8.4-33.1 16.5-39.3 29.8-4 8.4-5.7 15.4-5.7 23.9 0 5.7-.2 6.1-4.4 10.2q-4.35 4.35-18 11.1c-13.3 6.6-13.8 6.8-19.1 6.1l-5.5-.6V88c0 1.8.7 5.7 1.6 8.7 1.2 4.1 2.3 5.9 4.7 7.4 4.2 2.5 6.1 2.4 14.3-.7 6-2.2 6.9-2.3 7.6-1 .5.9 1.3 1.6 1.8 1.6 2.2 0 4.8 3.9 4.3 6.2-.6 2.1-.5 2.2 1 .9.9-.7 1.7-.9 1.7-.4 0 2.3 9.9 16 13.5 18.7 3.1 2.4 3.7 2.6 3.1 1-2.8-6.5-1.7-6.6 3.4-.4 2.9 3.6 5.7 6.4 6.2 6.2 1.3-.4 3.7 2.8 3.8 4.9 0 .9-.7 2.2-1.5 2.9-1.4 1.2-1.3 1.5.5 3.5 2.7 2.9 2.7 11.4 0 17.4-1.5 3.3-1.6 4-.5 3.1 1.8-1.5 1.8-1.1.5 2.7-.8 2.2.3 1.4 5.6-4 3.7-3.7 6.7-6.7 6.9-6.7.1 0-.2 2.6-.6 5.7-.5 3.6-.4 6 .2 6.4.5.3.7 1.3.3 2.2-1.1 3 1.4 1.8 3.6-1.7 2.1-3.5 2.1-3.5 4.1-1.5 1 1 1.9 2.6 1.9 3.5 0 1.3.3 1.4 1.4.5.8-.7 2.5-.9 3.9-.6 1.3.4 4.1 0 6.2-.9s3.9-1.6 4-1.6 0 1.2-.3 2.7c-.5 2.7-.5 2.7 3.1-1 2-2.2 4.1-3.6 4.7-3.2 1.8 1.1 1.1 5.3-1.5 8.1-1.7 1.8-2.5 3.7-2.3 5.3.3 2.3-.2 2.8-4.2 3.9-2.5.8-6.9 2.1-9.9 3-10.1 3-14 7.2-20.1 21.7-1.7 4.1-3.2 5.8-8.7 9.5-9 6-13.1 9.7-14.9 13.2-1.6 3.1-1.6 3.1 3 9.3.9 1.2-2.1 9.5-3.4 9.5-.3 0-2.8-2.5-5.4-5.5-4.9-5.7-10.2-9-19.6-12-3-1-7.3-2.7-9.4-3.7-7.7-3.9-22.4-6.8-38.6-7.8-18.4-1-53.3.3-57.4 2.1-2.6 1.2-2.7 1.6-2.2 5.3 1.1 6.7 4.4 12.9 9.4 17.4l4.7 4.3-8.3-.7c-11.9-.9-14.5 2-5.5 6.3 1.9.9 3.9 2.7 4.4 4 .5 1.4 2.6 3.2 5.1 4.3 4.8 2.1 9.8 6.4 9.8 8.4 0 .7 1.2 2.3 2.6 3.7 2.4 2.2 3.4 2.4 14.7 2.7 10.1.2 12.9-.1 16.2-1.6l4-1.8 3.2 3.4c3.2 3.3 3.3 3.4 10.8 3.1l7.6-.4 3.1 5c11.3 17.8 18 27.5 21.3 30.9 5.2 5.2 13.1 8.6 20.1 8.6h5.6l-.7 10.2c-.7 11.5-3.1 27.3-4.5 29.9-.6.9-2.5 2.7-4.4 3.8-2.9 1.9-5.6 6.2-5.6 9.2 0 .5 30 .9 66.6.9 55.4 0 66.3-.2 65.2-1.3-.7-.8-3-1.6-5-2-4.4-.7-11.2-5.8-12.7-9.6-.6-1.4-2-6.4-3.2-11.1-2.6-10.7-2.2-16.8 2.5-33.3 1.9-6.7 3.7-13.8 4.1-15.7 2.1-11.1 2-11 7.8-11 4.3 0 5.9-.5 8.5-2.8 1.8-1.5 3.4-3.4 3.5-4.3.2-.8 1.3-2.8 2.5-4.3 1.2-1.6 2.2-3.5 2.2-4.3 0-2.4 5.1-3.5 13.5-2.8 22.2 1.8 39.6 13.2 78.7 51.4 8.6 8.4 16.5 15.9 17.5 16.7 3.8 2.8 6.9 1.7 16.4-6 5.9-4.8 11.2-8.2 15.1-9.7 5.9-2.2 7.6-2.1 14.6.7.9.5 1.2-7.8 1.2-39.4v-40l-8.1 4.9c-9.5 5.7-16.5 8.4-26.9 10.6-9.5 2-18.8 1.3-37.9-2.6-8.3-1.8-15.5-2.8-17-2.4-3 .7-5 3-5.1 5.5 0 1-.5 1.8-1.1 1.8-.7 0-6.2-2.6-12.3-5.9-6.1-3.2-17.5-9.1-25.3-13l-14.1-7.1 1.4-5.3c1.9-7 1.8-15.1-.2-19-2.3-4.5-7.5-10.8-17.6-21.3-8.2-8.6-10.8-12.4-10.8-16 0-.8.4-1.3.9-1 .5.4 1.2-.7 1.6-2.4.7-3 2.8-4 4-1.9.4.5 1.4.9 2.3.7 1-.2 2.2.5 2.9 1.7 1.1 1.7 1.2 1.2 1.4-4 .1-5.9.1-5.9 1.1-2.3.6 2.1 1.4 3.8 1.9 3.8s.9-1.7.9-3.8c0-5.7 1.5-7.2 3.4-3.4.9 1.7 3 4 4.7 5.3l3.1 2.2-.6-7.4c-.4-4.1-.9-8.6-1.2-10.2-.7-3.3.3-3.4 4.7-.2 1.9 1.3 4.7 3.2 6.3 4.1 2.7 1.5 2.8 1.5 2.2-.1-.3-.9-.9-2.8-1.2-4.1-.6-2.3-.4-2.4 1.9-1.9 2.9.8 4.4-.9 2.7-3-1.3-1.6 0-2.1 1.6-.6.5.4 2.3 1.3 4.1 1.9l3.1 1-2.2-3.3c-1.3-1.8-2.7-4.6-3.3-6.1-5.8-16.4-5.7-15.6-2.3-14.9 1.6.3 3.8.2 4.9-.4 1.6-.9 2.3-.6 4.1 1.7 3.6 4.5 6.5 4.6 11.1.5 2.1-1.9 3.9-4.3 3.9-5.2 0-1-1.7-2.9-3.7-4.2-2.1-1.3-5.5-4.9-7.5-7.9-5.9-8.8-12.2-21.6-11.5-23.6 1.5-5.1 4.5-12.6 5.4-13.5.5-.5 3.9-1.1 7.4-1.3 6.2-.3 9.3-1.2 13.3-3.8C413.1 74.7 422 67 426 62.6c1.9-2.2 5.6-6 8.1-8.6 7.7-7.7 8.7-11.6 2.8-10.8-2 .3-2.9 0-2.9-.9 0-.8-.6-1.3-1.2-1.2-.7.1-2 0-2.8-.3-4-1.5-10-2.8-12.6-2.8h-2.8l2.3-2.1c1.5-1.4 3.9-2.3 6.4-2.4 2.3-.2 4.3-.9 4.8-1.8.6-.9 1.7-1.3 2.9-1 3.2.8 5.1-2.4 4.4-7.2-.8-5.6-3.4-13.7-5-15.6-.8-.8-1.4-2.3-1.4-3.1 0-.9-1.1-2.3-2.5-3.2C424.4.2 419 0 381.1 0c-26.4 0-43.2.4-43.6 1s-1.5.6-3.1 0c-1.4-.6-12.7-1-25.2-1l-22.7.1z"/></svg>