<svg xmlns="http://www.w3.org/2000/svg" width="682.667" height="512" version="1.0" viewBox="0 0 512 384"><path d="m352.2 7.3-7.1 7.4-9.3.6c-11.8.8-17.6 2.5-31.7 9.5-12.8 6.4-22.1 13.7-29.2 22.9-6.1 8-8.8 15.5-9.8 26.9-.6 6.8-1.4 10.1-3 12.8-1.3 2-2.6 3.6-3.1 3.6s-1.5.6-2.2 1.3c-3.6 3.5-17.9 12.7-19.7 12.7-2.9 0-7.1 2.1-7.1 3.6 0 .7-1 1.4-2.2 1.6-4.3.6-3.5 4.5 1.8 9.5 9.1 8.6 12.9 9.8 20 6.4 4.6-2.3 5.3-2 4.7 1.6-.5 2.8-.5 2.8 1.7-.6 2.4-3.8 2.6-3.8 3.3.6.8 5.1 2.8 8.9 5.8 10.9 1.5 1 2.5 2.2 2.3 2.6q-.45.75.3.6c.4-.1 2.7.7 5 1.9 2.9 1.4 4 1.6 3.6.7-.6-1.6 1.3-1.9 2.2-.4.3.5 1.6 1.5 2.8 2.1 2.1 1.2 2.1 1.2.3-1.5-2.6-4-1.4-4.2 2.8-.6 4.3 3.8 4.5 6.1 1 10.7-1.4 1.8-2.2 3.8-1.8 4.4.3.6 2.6 1.9 4.9 2.9 3.3 1.4 4.5 2.5 5 4.9.3 1.6.2 3.9-.4 5-1.4 2.5-1.4 4.4-.1 3.6.5-.3.5.7-.1 2.5-.6 1.6-1.5 3.3-2 3.6s-.9 1-.9 1.7c0 .6 2.2-1.1 5-3.8 3.6-3.6 5.3-4.6 6.1-3.8s.8 1.6 0 3.1c-1.4 2.7-1.4 4.5.1 3.6.8-.5.9.2.5 2.7l-.7 3.4 3-3.3c2.6-2.8 3.2-3.1 5-2 1.1.7 2 2.1 2 3.2 0 1.8.1 1.8 1.9.2 1.9-1.7 1.9-1.7 1.5.6-.5 2-.1 1.8 2.8-1.5 3.5-3.9 5.8-4.8 5.8-2.1 0 1.4 2.2 4.4 3.3 4.4.2 0 1.2-2.7 2.2-5.9 1-3.3 2.5-6.3 3.3-6.6 1.8-.7 1.9-.6 2.3 2.5.5 4.2-1.2 9.3-3.8 11.3-1.7 1.4-2.3 2.7-2.1 4.6.2 2.2-.5 3.1-4.7 5.8-10.6 6.8-14.6 10.5-19.4 17.9-4.4 6.7-5.6 7.9-11.2 10.5-7.3 3.5-13.9 8.5-13.9 10.5 0 .8 1 3.2 2.2 5.3l2.2 3.8-2.3 3.1c-2.1 2.9-7 5.2-11.3 5.2-1.5 0-1.1.9 1.7 4.9l3.5 4.9-2.7 3.3c-1.5 1.9-3.3 3.7-3.9 4.1-.7.4-2.7 3.1-4.5 5.9l-3.3 5.2-2.4-2.9c-2.2-2.7-6.3-8-24.2-31.6-7.4-9.8-10.3-12.1-19.7-15.5-8.5-3-19.6-8.3-20.4-9.6-1.8-2.6-57.5-3.4-66.4-.9-2.8.8-3 1.2-2.9 5.4.3 6.1 2.6 10.4 8.6 15.8l5 4.6-5.8-.1c-6.9 0-8.3 2-3.5 4.8 1.6 1 3.3 2.6 3.6 3.7.4 1.1 2.1 2.8 3.8 3.7 3.8 1.9 6.8 4.9 8.4 8.5 2 4.4 5.5 5.9 16.2 7.1 10.5 1.1 13.2.9 31.6-3.4l8-1.8 3.2 3.7c3.3 3.7 18.9 26.7 34.2 50.3 9.3 14.4 17.4 22.8 25.6 26.6l5.7 2.5-.7 5.2c-1.3 10.6-2.8 16.2-5.1 19.3-1.3 1.7-2.4 3.4-2.4 3.7s25.1.6 55.9.6h55.8l-2.4-4.9c-2.4-5.2-6-8.4-10.5-9.5-3.1-.7-3.9-2.9-6.4-16.8-1.8-10.5-.9-20.3 3.6-36.2 3.2-11.2 5.2-15.8 8.5-19.1 1.1-1.1 2.7-3.1 3.5-4.3 1.3-2 2.8-2.4 12.6-3.3 14.2-1.3 21.5-.2 31.4 4.8 6.2 3.1 9.9 6.1 21 17.3 7.5 7.4 19 20.2 25.6 28.5 18.8 23.3 22.7 26.5 27.8 23.2 1.3-.9 5-3.9 8.2-6.7 3.3-2.9 8.2-6.6 11.1-8.3l5.2-3.2.1-36.2v-36.2l-7.3 3.4c-13.9 6.4-28.1 6.9-51 1.5-9.8-2.2-13.3-1.7-15.6 2.1l-1.8 2.9-9.3-7c-5.1-3.8-9.5-7.2-9.7-7.4-.9-.9 2.8-6.6 4.2-6.6 1.9 0 3.1-2.7 4.5-10.2.8-4 1.5-5.5 2.4-5.2.8.3 2.3-.7 3.5-2.2l2.1-2.6.9 2.5c1.2 3 2.7 4.1 3.6 2.7.5-.8 1.1-.7 2.1.1 1.1.9 1.4.8 1.4-.2 0-.8 1-.2 2.1 1.3 3.9 5.3 7.8 2.9 13-7.9 2.8-5.7 3.3-6.2 7-6.8 2.1-.4 3.9-1.2 3.9-1.8 0-.7-1.9-3.2-4.1-5.7-12.2-13.4-20.8-26.7-27.4-42.4-5.2-12.4-7.1-16.2-9.3-18.5-2.1-2.1-8.2-10.7-8.2-11.5 0-.3 1-.6 2.2-.6h2.1l-2-2.3c-1.1-1.2-3.1-4.2-4.3-6.6l-2.2-4.4 3.4.7c1.8.4 5.1.9 7.3 1.3 2.2.3 5.1 1.4 6.4 2.5 3.4 2.6 5.6 2.3 8.1-1.2 2.9-4.1 1.9-6.5-3.8-9.3-7.1-3.5-20.2-20.3-20.2-25.8 0-1.1.9-4.5 1.9-7.7 1.1-3.1 2.5-9.8 3.2-14.7.7-5.4 1.8-9.3 2.6-9.8.7-.5 1.1-1.2.8-1.8-.4-.5.1-.9 1-.9.8 0 1.9-.8 2.2-1.8.4-.9 1.8-2.5 3-3.6 1.3-1 2.2-2.1 1.9-2.4s.3-1.1 1.4-1.9 2-2.3 2-3.4.6-1.9 1.3-1.7 1.4-.2 1.7-.7c.5-1.5 2.7-3.5 3.7-3.5.5 0 1.9-1.3 3.1-3l2.2-2.9-2.1-1.2c-1.2-.6-3-.9-4-.6s-2.1.1-2.4-.3c-.6-1-6.9-2.1-14.9-2.6-10.2-.5-20-1.5-20.5-2-.2-.2 1-.4 2.7-.4s4.2-1 5.9-2.4c1.5-1.3 4.3-2.7 6.2-3.1 2-.4 3.5-1.4 3.8-2.6.6-2.1 1.9-2.5 2.5-.8.2.6 1.6-.5 3.2-2.5 1.9-2.5 2.5-4.3 2-5.4-.4-.9-.6-2.1-.5-2.6.4-1.7-3-11.6-4-11.6-.6 0-.7-.5-.4-1 .3-.6-.3-2.2-1.4-3.6-1.2-1.5-2.1-3.3-2.1-4 0-1.2-5.5-1.4-31.3-1.4h-31.4zm64.1 159.9c1.5 1.2 1.5 2.3.6 10.8-1.1 9.7-1.4 11.3-7.5 35.5-5.8 23.5-6.9 26-14.5 33.7-3.3 3.3-4.1 3.7-5.9 2.8-1.9-1-1.9-1.3-.5-4 3.5-6.8 1.1-16.9-8.5-35.6-5.9-11.4-7.1-16.1-5-19.4.5-.8 1-1 1-.4 0 .7.7 1.5 1.6 1.8 1.3.5 1.5.2 1.1-1.4-.6-2.2.8-3.7 1.8-2 .4.6 1 .8 1.5.5s1.3.3 1.9 1.2c.8 1.3.9-.4.5-6.2l-.5-8 3.8 4.1c2.1 2.3 4.9 4.7 6.2 5.4 3.4 1.7 4.2-.2 3.4-7.4-.5-5.1-.4-5.8.9-5.3.9.3 2 .1 2.6-.5.8-.8 1.5-.8 2.4 0 .8.6 2.7 1.6 4.3 2.2 2.4.9 2.8.9 1.8-.1-1.4-1.4-1.8-4-.5-3.8.4.1 1.8.1 3.1 0 2.3-.1 2.3-.2.8-1.9-1-1-1.7-2.2-1.7-2.5 0-1.2 3.5-.8 5.3.5"/></svg>