<svg xmlns="http://www.w3.org/2000/svg" width="682.667" height="512" version="1.0" viewBox="0 0 512 384"><path d="M373.7 8.8 363 17.7l-8.2.7c-17.1 1.4-37.3 11.2-51.6 25-10.2 9.8-16.1 21.7-17.1 34.6-.9 10.7-2.9 13.6-16.9 24.4-4.3 3.2-8.2 5.3-12 6.3-7.3 1.8-9.2 4-9.2 10.8 0 5.8 1.5 7.4 5.1 5.2 1.7-1 2.2-.9 3.1.8.6 1 2.2 3 3.6 4.3 2.1 2.1 3 2.4 7 1.8 7.1-.9 7.9-1.1 9.4-2.4 1.2-.9 1.6-.3 2.7 3.6 1.3 5.2 6 11.6 6.8 9.4.4-1 1-.7 2 .8 1.5 2.2 8 5.6 9.7 5.2.4-.2 1.4.3 2.2.9 2 1.7 1.7.1-.6-2.8-2.5-3.2-2.6-5.1-.2-3.2 3.3 2.7 6.2 4 6.2 2.8 0-.8.5-.7 1.6.2 2.3 1.9 1.1 7.4-2.6 12.1-1.7 2.1-2.9 4.2-2.6 4.7.3.4 2.6 1.6 5.1 2.5 3.1 1.2 4.7 2.5 5.1 4.1.3 1.3 3.2 4.9 6.3 8 4.7 4.7 5.7 6.2 5.3 8.2-.3 1.8-.1 2.4.7 1.9.7-.5 1.1.2 1.1 2.1.1 2.6.1 2.7 1.2.8.6-1.1 1.2-2.1 1.4-2.3.1-.2 1.1.1 2.2.7 1.5.8 2.9.8 4.8.1 2.3-.9 2.6-.8 2.1.9-.9 3.5 1 4.5 2.1 1.1 1-2.7 1.4-3 2.5-1.8.8.7 1.6 1.9 1.8 2.6.7 2.1 4.9-2.5 4.9-5.3q0-4.95 3.3.6c2.3 4.1 2.2 5.1-.9 8-1.7 1.6-2.4 3.1-2.1 4.6.3 1.8-1.1 3.4-7.8 8.5-4.5 3.5-10.5 9.2-13.4 12.8-4.4 5.6-5.8 6.8-9.8 7.9-2.6.6-7.1 2.6-10 4.2-6 3.4-6.5 5.2-3.6 12.7 1 2.8 1.3 4.6.6 5.3-.5.5-3.6 1.4-6.9 2-3.2.7-6.5 1.3-7.1 1.5-.9.2-.5 1.7 1.2 5l2.5 4.7-10 10c-5.9 5.9-10.4 9.7-10.8 9.1-.5-.5-4.5-5.4-9-10.9-4.4-5.5-9.7-11.8-11.7-14-2.1-2.2-8.2-9.3-13.7-15.8-5.5-6.4-11.4-12.4-13.2-13.2-1.7-.8-6.5-2.3-10.7-3.4-4.1-1.1-8.8-2.5-10.3-3.1-3-1.1-57.9-1.2-63.1-.1-4 .8-4.3 3.4-1.2 11 1.9 4.8 2.1 6.1 1.1 6.5-2.2.8-1.6 3.1 1 4.5 1.3.7 2.8 2.3 3.4 3.6.6 1.2 3 3.6 5.4 5.2 3.9 2.7 4.3 3.3 4 6.5-.3 4.3 0 4.5 9.1 6.9 5.2 1.3 7.6 2.5 9.2 4.6 2.1 2.5 2.8 2.7 8.1 2.5 3.2-.1 10.3-1.2 15.8-2.3 5.4-1.1 10.2-1.6 10.6-1.2 2.2 2.4 16.4 24.6 27.4 42.7 6.9 11.4 14.3 23 16.5 25.8 10.1 12.6 23.1 18.3 32.5 14.4 5.1-2.1 5.9-2 5.3.6-.5 2-2.1 15.2-3.2 26.4l-.3 3.4h51.5c46 0 51.4-.2 50.3-1.5-.7-.9-3.3-2-5.7-2.7-5.5-1.3-6.7-3.1-8.9-13.3-3.9-17.8-.6-38.4 10-63.7l1.6-3.6 14.9-.1c13.4-.1 15.5.1 21.5 2.3 8.8 3.2 13.1 6.3 22.7 16.4 8.6 9.1 16.6 19.4 32.4 41.7 5.5 7.7 12.3 16.4 15.3 19.2 4.6 4.6 5.8 5.3 9.3 5.3 2.9 0 5-.8 7.5-2.7l3.4-2.8v-81.1h-8.7c-9.8 0-15.7-1-31.8-5.3-11.4-3-14.6-2.9-17.2.6-1 1.3-1.5 1.3-2.7.4-1.2-1-1-2.5 1.8-10.5 4.1-12 5.9-14.8 9-14 3.3.8 4.4-1.2 6.2-11 .9-4.7 1.9-8.6 2.3-8.6s1.6.7 2.7 1.5c3.4 2.6 4.9 1.7 7.9-4.4 1.5-3.3 3.8-7.2 5.1-8.8l2.2-2.8 9.5 9.5c14.6 14.4 13.7 15.2 13.7-11.3v-22.2l-3.8-2.2c-6.7-3.9-17.7-14.2-29.2-27.4-11.6-13.4-14.8-15.6-17.8-12.5-1.3 1.2-1.6 3.9-1.7 12.3-.1 9.6-.5 11.9-3.8 21.3-1.9 5.8-5.4 16.3-7.7 23.4-5.5 17-7.8 20.5-18.5 27.9-1.4 1.1-3 3-3.6 4.4-.7 1.9-1.4 2.3-2.7 1.8-.9-.5-5.1-2-9.2-3.5l-7.5-2.8.3-5.9c.5-7.8-1.3-17.2-4.8-25.8-7.2-17.6-8.2-20.7-7.6-23.1.5-2 1.1-2.4 2.7-1.9 1.5.5 2.2.2 2.6-1.4.6-2.5 1.1-2.6 3.5-.4 1.7 1.5 1.8 1.5 1.8-.6 0-2.2 0-2.2 3.3.3 3.4 2.6 5.3 3.4 4.3 1.7-.3-.4.5-.7 1.9-.6 1.8.3 2.3-.1 2.2-1.8 0-1.2 0-3.7.1-5.6l.2-3.4 2.3 2.1c1.2 1.1 3.9 2.8 6 3.7 4.5 1.9 4.6 1.6 1.7-8.7-1.1-3.9-1.8-7.3-1.7-7.5.2-.2 3.1.8 6.5 2.2 7.6 3.1 7.8 3.1 5.8 0-1.6-2.4-1.6-2.5.5-2.5 1.5 0 1.9-.4 1.5-1.6-.5-1.3-.1-1.4 2.7-.9l3.2.7-3.2-3.3-3.2-3.4 10.2.3c8.4.2 9.9 0 8.6-1-12-9.9-12.7-10.8-8.9-10.8 2.9 0 2.5-1.5-1-4-8.2-5.9 3.2-4.6 12.2 1.4l2.7 1.8 1.7-3.5c2.5-5.2 1.4-7.8-4.7-10.7-3.9-1.9-6.6-4.3-10.6-9.5-3-3.9-6.4-8.9-7.6-11.2l-2.1-4.2 2.7-7.8c3-8.9 5.1-20.2 4.5-23.8-.3-1.6.2-3.1 1.3-4.1s1.9-2.2 1.9-2.8.9-1.7 2-2.4 2-1.9 2-2.7c0-.9.9-1.5 2.1-1.5s2.3-.8 2.6-2c.3-1.1 1.1-2 1.9-2 .7 0 2.5-1.1 3.9-2.4 2.6-2.4 2.6-2.5.6-3.5-1.1-.6-2.9-1.1-4-1.1-1 0-2.1-.5-2.3-1-.2-.6-1.2-1.2-2.3-1.5-1.1-.2-3.8-.9-6-1.5-3.8-1-12.1-2.8-15.7-3.3-1.9-.4-4.8-2.6-4.8-3.8 0-1.7 3.3-3.9 6.1-3.9 1.6 0 3.8-.9 4.8-1.9 1.1-1.1 2.3-1.5 2.8-1s2-.3 3.7-2c3.1-3.3 3.3-4 1.4-5.2-1-.6-.9-1.1.6-2.2 1.9-1.4 1.9-1.5-.3-2.2-1.7-.5-2-.9-1.1-1.5 2.4-1.5 1.9-5.1-.9-6.2-2.5-.9-2.5-1-.8-2.3 1.8-1.3 1.8-1.4-.1-2.4q-1.95-1.05-1.5-3.3c.3-1.6-.6-3.4-2.6-5.6-1.6-1.7-2.6-3.2-2.1-3.2.4 0 .7-.8.6-1.8-.3-1.6-2.5-1.7-28.3-2l-28-.2z"/></svg>