<svg xmlns="http://www.w3.org/2000/svg" width="682.667" height="512" version="1.0" viewBox="0 0 512 384"><path d="m381.6 8.1-9.8 8.2-7.6.7c-11.3 1.2-16.6 2.7-27.7 8-26.9 12.9-42.7 32.3-43.7 53.8-.3 6.1-4.7 12.1-14.3 19.2-7.4 5.6-10.3 7-17.6 8.4-5.3 1.1-7.2 3.8-7.7 10.6l-.5 6.3 3.7-.6c3.3-.5 3.9-.3 5.9 2.8 3.3 5 5.8 6.1 11.7 4.9 4.3-.9 5-.8 5.1.5 0 1.1.4.9 1.1-.7 1.7-3.5 3.2-2.6 4.5 2.9 1.1 4.7 6.3 11.7 6.3 8.6 0-.7.8-.2 1.8.9 2 2.6 5.8 4.7 9.2 5.2 1.3.2 3.1.9 4 1.5 1.1.9 1 .6-.3-1.3-4-5.8-3.9-6.1 1.3-3 2.8 1.7 4.8 2.5 4.4 1.8s.1-.5 1.1.4c1.7 1.6 1.7 1.9.1 6-1 2.4-2.9 5.5-4.3 6.9l-2.5 2.7 2.3 1.6c1.3.9 3.1 1.6 4 1.6 1.8 0 4.9 3 4.9 4.8 0 .6 2.9 4.2 6.5 7.9 4.1 4.3 6.5 7.7 6.5 9.1 0 1.5.4 2.1 1.1 1.6.8-.5 1 .1.7 2-.5 2.5-.4 2.6 1.3 1 1-.9 2.7-1.4 3.9-1.1 1.1.3 2.3.1 2.6-.4 1-1.7 2.5-.9 3.8 2.2l1.3 3.1 1.1-3.2c1-2.8 1.3-3 2.7-1.7.8.9 1.5 2 1.5 2.5 0 .6 1 .6 2.5-.1 1.9-.9 2.5-2 2.5-4.4 0-4.3 1.3-4.8 3.4-1.2 2 3.4 1.4 6.4-2.1 9.6-1.7 1.6-2.2 2.9-1.8 4.6.5 1.8-.1 2.8-2.6 4.8-8.1 6-14.8 12-18.6 16.6-3.7 4.4-5 5.2-11.8 7.2-4.1 1.2-7.5 2.6-7.5 3.1 0 .6-.8 1-1.8 1-2.5 0-5.2 3.1-5.2 5.8 0 1.2.7 3.7 1.6 5.6s1.4 4 1.1 4.8c-.6 1.8-7.2 3.8-12.1 3.8-3.5 0-3.6.1-3 2.7.4 1.6 1.3 3.7 2 4.8 2 2.8 1.7 3.7-1.8 6.2-1.7 1.2-6.5 5.5-10.6 9.5l-7.4 7.3-2.7-3.5c-3.1-4-27.2-33.3-28.1-34-.3-.3-4-4.6-8.3-9.6-8.4-10-9.7-10.7-24.7-15.1-9.4-2.8-9.9-2.8-34-2.6-13.5.1-28.2.5-32.7.9l-8.3.6v3.1c.1 1.8.8 5 1.7 7.2.8 2.2 1.5 5.2 1.5 6.8-.1 1.8.7 3.2 2.3 4.3 1.3.9 2.7 2.4 3 3.5.3 1 2.5 3.1 4.8 4.7 4 2.7 4.2 3.1 4.2 7.7v5l4 .7c2.2.4 5.7 1 7.8 1.3 2.3.4 4 1.3 4.4 2.3 1.3 3.8 3.6 5.2 8.2 5.2 4.1 0 19.8-2.8 24.9-4.5 1.8-.5 3.1 1 9 9.7 3.8 5.7 12.2 19.3 18.7 30.3 20.2 34.1 23.2 37.9 34.8 43.9 8.7 4.6 13.3 4.7 21.3.6 3.2-1.6 6-3 6.2-3 .6 0 0 9.6-1.3 19-.8 5.8-1.5 11.3-1.5 12.2 0 1.7 2.8 1.8 45.5 1.8 25 0 45.5-.1 45.5-.3 0-.1-1.1-5.2-2.5-11.2-3-13.4-3.1-16.5-.5-29.9 1.8-9.2 8.5-30.9 11-35.7.7-1.3 3.2-1.7 12.4-2.3 22.5-1.3 31.2 1.8 45.6 16.3 10.2 10.2 18.9 21.2 34 43.1 14.9 21.5 13.3 20 21.8 20h7.2v-79h-2.6c-3.5 0-22.5-4.6-29.3-7.1-7.7-2.8-13.8-2.9-15.9-.2-1.4 1.9-2 2-3.4.9-1.6-1.2-1.6-1.6.3-7.6 1.1-3.5 3.1-9 4.6-12.2 2.2-5 2.9-5.8 5.3-5.8 3.9 0 4.9-1.6 6.6-11.1.9-4.6 1.8-8.6 2-8.8s1.5.4 2.8 1.3c3.9 2.5 5.1 2 7.6-3.6 2.8-6.2 6.7-11.8 8.2-11.8.6 0 3.9 3 7.4 6.7l6.4 6.6v-43.9l-7.1-6.3c-3.9-3.5-10.5-10.7-14.7-15.9-10.7-13.3-13.3-15.9-16.5-16.5-3.8-.6-4.5 1.1-4.8 12.3-.2 6.9-.9 11.4-2.6 16.5-1.3 3.8-4.6 14.2-7.3 23-7.3 24.1-8.4 26.1-18.7 33.7-3 2.1-5.8 5-6.3 6.4l-.9 2.4-5.3-2.1c-2.9-1.2-7.3-2.8-9.8-3.6l-4.5-1.5v-10.7c-.1-11.2 0-11-8.1-31.6-2.8-7.3-3.6-12.8-1.9-13.3 2.1-.7 3.5-2.5 3.5-4.5s0-2 2.3.1c3 2.8 4 2.8 3.1 0-.6-1.9-.2-1.8 3.2 1 2.1 1.7 4.1 2.8 4.4 2.4.7-.9 3.2-.9 4.8.1.9.7 1 .3.2-1.5-.7-1.4-.8-3.8-.3-6l.8-3.8 4.5 3c7.5 5 8.4 3.9 5.3-7-.9-3.3-1.4-6.3-1-6.6.3-.4 3.1.4 6.1 1.7 5.7 2.3 7.9 2.1 5.6-.6-1-1.3-.9-1.5.9-1.5 2.4 0 2.7-1 .9-2.9-1.1-1.1-.8-1.2 1.2-.6 1.4.4 3.2 1 4 1.2 1 .3.8-.2-.5-1.4-5.4-5-5.3-5.1 5-4.5 5.2.2 9.5.1 9.5-.4 0-.4-2.6-3.2-5.7-6.1-5.5-5-5.7-5.2-3-5.3 3.5 0 3.4-.4-.5-3.9-1.8-1.6-3.1-3.2-2.8-3.4 1-1.1 10 1.5 13.4 3.8l3.5 2.4 2.1-2.6c3.6-4.6 2.4-8.7-3.2-11-6.9-2.8-20.8-20.8-20.8-27 0-1.1 1.1-4.6 2.4-7.9 3.3-8.2 5.9-20.8 5.3-25.5-.5-3.5-.1-4.3 3.4-7.9 2.1-2.2 3.9-4.6 3.9-5.4 0-.9.7-1.2 2-.9 1.4.4 2 0 2-1.1 0-.9.5-1.6 1.1-1.6.5 0 .7-.5.4-1-.3-.6.5-1 1.9-1 1.6 0 2.7-.7 3.1-2 .4-1.1 1.1-1.7 1.7-1.4.6.4.8-.1.6-1.2-.3-1.4-1.1-1.8-3.3-1.6-1.6.2-3.4-.3-4-1-1.1-1.4-11.9-4.7-17.5-5.3-9.1-1-13-2.7-13-5.6 0-1.7 3.4-3.9 6.1-3.9 1.6 0 3.8-.9 5-2.1 1.5-1.5 2.3-1.8 2.9-.9 1 1.7 6-3.2 6.4-6.2.1-1.3.6-2.9 1-3.6s.1-1.5-.8-1.8-1.3-1.1-.9-1.8c.4-.6.8-2.3.9-3.8.1-2.1-.4-2.9-2.5-3.7-1.7-.6-2-1-.8-1 2.4-.1 2.2-2.7-.3-3.4-1.6-.4-1.9-1.1-1.4-3.4.4-2.1-.1-3.4-1.8-5.3-1.3-1.3-2.3-2.9-2.3-3.5S441.1.4 421.4.2l-30-.2z"/></svg>