<svg xmlns="http://www.w3.org/2000/svg" width="682.667" height="512" version="1.0" viewBox="0 0 512 384"><path d="m390.6 7.4-9 7.3-8.2.6c-18.9 1.3-44.4 14.2-58.3 29.3-9.1 9.9-15 23.2-15.1 33.8 0 5.5-5.2 11.4-15.8 18.3-6.2 4-10 5.7-14 6.3-9.3 1.6-12.6 5.2-12 13.4.3 4 .4 4.1 3.9 3.9 3.1-.2 3.7.2 5.4 3.3 3.1 5.8 8.9 7.6 15.8 4.9 1.2-.5 1.7-.2 1.7 1.1 0 1.6.2 1.6 1.6-.4 2-2.9 3.4-2.8 3.4.2 0 1.3.7 4 1.5 5.9 1.6 4 6.5 9.7 6.5 7.7 0-.8.8-.4 1.9.8 1 1.2 2.1 2.2 2.4 2.2s1.6.4 2.9.9 2.5.8 2.8.8 1.6.5 2.9 1.2c2.6 1.4 2.5 1.1-1.3-4.3-2.1-3.2-1.3-3 4.2 1.1 1.7 1.3 3.6 2.2 4.1 1.8.5-.3 1.2-.1 1.5.4 1.2 1.9-.8 7.2-4.1 11-1.9 2.3-3.2 4.5-2.9 5 .3.4 2 1.4 3.8 2.1 4.4 1.8 6.8 3.9 6.8 6.1 0 1 2.4 4.2 5.4 7.1 6.2 6.1 9 10.3 8.1 11.8-.3.5-.1 1 .4 1 .6 0 1.1 1 1.1 2.2v2.2l1.5-2.1c1.5-2.2 5.5-2.2 5.5 0 0 .6.7.2 1.5-.9 1.3-1.8 1.4-1.8 1.5-.1 0 1 .5 1.5 1 1.2.6-.3 1 .3 1 1.5 0 2.8 1.7 1.7 3.4-2.3 1-2.1 1.5-2.6 1.5-1.4.1 1 .5 1.6 1 1.3s1.1.4 1.4 1.5c.6 2.1.6 2.1 2.5.3 1.1-1.1 2.2-3.2 2.4-4.8.4-3.9 2-4.3 3.6-.8 1.7 3.9.5 8.8-2.5 10.8-2 1.2-2.4 2.2-2.1 4.6.4 2.7-.2 3.4-6.5 8.1-8.4 6.3-12.6 10.2-15.5 14.3-1.8 2.6-3.2 3.3-10 4.7-4.4 1-8.6 2.4-9.2 3.2-.7.8-2.1 1.5-3.1 1.5s-2.6 1.1-3.5 2.5c-1.5 2.3-1.5 2.8.1 6.7.9 2.4 1.9 4.9 2.2 5.6.8 1.8-5.8 4.2-11.7 4.2h-5.2l.8 3.2c.3 1.8 1.3 4.3 2.2 5.6.8 1.2 1.3 2.4 1.1 2.6-9.5 7.1-13.4 10.3-17.7 14.7-4.5 4.4-5.5 5-6.6 3.8-.7-.8-5.5-6.8-10.6-13.4-5.2-6.6-9.6-12.2-10-12.5-.3-.3-4.5-5.5-9.4-11.5-10.7-13.3-17.2-20.2-20.6-22-1.4-.7-7.9-2.7-14.5-4.5-13.7-3.7-15-3.8-51.3-2.5-20.5.7-25.5 1.1-25.9 2.2-.6 1.4 1.1 8.1 3.9 15.5.8 2 2.5 4.8 3.9 6.1 1.3 1.4 3.2 3.6 4.2 5.1 1 1.4 2.5 2.6 3.3 2.6 2.1 0 3.3 4 2.7 8.8-.6 4.6-.5 4.6 9 5.7 5.3.6 6 .9 6.9 3.6 2 5.7 5.1 5.9 25.6 1.7 5.6-1.1 10.4-1.9 10.6-1.7 2 2.2 18 28 26.8 43.2 18.2 31.5 23.4 37.9 36 44.3 8.4 4.2 18.7 2.6 28.8-4.6 1.6-1.1 3.1-1.7 3.3-1.3.4.7-.4 9.7-2.7 29.5l-.4 3.8h45.4c25 0 45.4-.3 45.4-.8-.1-.4-.7-3.4-1.5-6.7s-1.5-8.5-1.5-11.6c0-10.4 4.8-30 11.9-49l2.1-5.5 15.3.1c17 .2 23.9 1.8 32.5 7.7 11.4 7.9 34.3 35.8 49.2 60.1l3.5 5.7H512v-72.7l-7.7-2.1c-4.3-1.1-11.5-3.2-16.1-4.6-7.6-2.4-8.6-2.4-11.2-1.1-1.5.8-3 1.9-3.2 2.5-.2.7-1.3.3-2.8-1l-2.4-2.1 1.8-6.7c1-3.7 3-9.2 4.4-12.2 2.3-4.8 3.1-5.5 5.9-5.8 3.6-.4 4.6-2.2 6.2-12.1.6-3.6 1.4-6.8 1.9-7.3s2 0 3.4 1.2c3.1 2.4 3.4 2.1 7.5-7 4-8.8 5.5-10 9.3-7.1l3 2.2v-42.7l-5.1-5.9c-2.8-3.3-8.1-10.1-11.8-15-3.7-5-7.4-9.5-8.2-10.1-2.2-1.8-6.2-2.4-7.6-1.3-.9.8-2.5.1-6.3-3.1-2.8-2.3-5.5-5.1-6.1-6.1-.8-1.6-.6-1.9 1.8-1.9h2.7l-3.8-3.9-3.9-4 5.6 1.3c3 .7 7.2 2.3 9.3 3.5l3.8 2.3 1.8-2.4c1.1-1.4 1.7-3.6 1.6-5.7-.3-3-1-3.9-5.5-6.5-5.4-3.2-11-9.8-16.4-19.1-3.2-5.5-3.6-9.6-1.5-13.6 4.2-8.2 7.9-24.6 7-31.3-.6-3.9-.4-4.5 1.5-5.1 1.2-.3 1.9-1 1.6-1.5s.8-1.9 2.5-3.2c1.7-1.2 2.8-2.8 2.6-3.5-.3-.8.2-1.3 1.5-1.3 2.2 0 4.9-2.2 4.9-3.9 0-.6.9-1.1 1.9-1.1 1.1 0 2.6-.9 3.4-2s1.7-1.7 2.2-1.2c.4.4.6 0 .3-.8-.3-.9-1.9-1.6-3.9-1.8-1.9-.2-3.8-.9-4.4-1.6-1.1-1.4-12.1-4.6-17.5-5.2-6.4-.6-12.2-2.2-13.7-3.7-1.4-1.3-1.3-1.7.7-3.7 1.9-1.9 3.4-2.4 8.7-2.9.6 0 1.9-.9 2.9-1.8.9-1 2.4-1.7 3.3-1.8 2.4 0 6.4-3.2 5.6-4.4-.3-.6-.1-1.1.6-1.1.8 0 .7-.5-.2-1.7-1.1-1.3-1.1-1.7-.1-2 1.8-.7 1.5-2.3-.5-2.3-1.6-.1-1.7-.2-.2-1.3 2.3-1.7 1.4-7.7-1.2-7.7-1 0-2.1-.5-2.5-1.2-.5-.8 0-.9 1.4-.6 3.3.9 2.8-2-.5-3.3-2-.7-2.4-1.2-1.4-1.8 1.4-.9.6-5.1-1-5.1-.5 0-.9-.6-.9-1.4s-.7-1.7-1.6-2-16-.6-33.7-.6h-32.2zm80.9 167.5c7.3-.2 6.8-.9 6.3 10.6-.5 8.5-1.3 12.8-4.6 23.2-2.3 7.1-5.6 17.5-7.3 23.3-5.1 16.6-8 21.3-17.2 28-2.5 1.7-5 4.3-5.6 5.7-1.3 2.9-2 2.9-13-1.4l-7.3-2.8-.3-10.5c-.3-10.1-.5-11.1-6.4-26.9-5.4-14.6-7.4-21.7-5.4-19.8 1.1 1.2 3.3-1.5 3.3-4.1v-2.6l3 2.9c2.6 2.5 3 2.6 3 1 0-1.8.1-1.8 2.3.1 1.2 1.1 3.1 2.6 4.1 3.4 1.8 1.4 1.9 1.3 1.4-.7l-.6-2.1 3.5 1.9c3.1 1.7 3.3 1.8 2.4.2-.5-1-.6-4.1-.4-7l.5-5.2 4.2 3.3c5.1 4.1 8.6 5.4 8.6 3.2 0-.9-.9-4.8-2-8.7-2.3-8.3-1.5-9.2 4.9-6 5.8 3 9.2 2.6 5.9-.7-.9-.9-.7-1.2 1-1.2 2.5 0 2.8-1 1-2.9-.8-.7.2-.6 2.6.4l4 1.7-3.2-3.6c-1.8-2-3.2-3.8-3.2-4s2.4.1 5.3.6c2.8.4 7 .8 9.2.7"/></svg>