<svg xmlns="http://www.w3.org/2000/svg" width="682.667" height="512" version="1.0" viewBox="0 0 512 384"><path d="M431.6 3.5C427.1 6.7 426 7 419.8 7c-23.4 0-55 13.5-72.7 31.1-9.3 9.3-17.1 23.4-17.1 31 0 3.6-2.1 8.5-5.2 12.1C322.4 84 301.6 96 299 96c-9.2.2-13.4 1-15.5 3-2.5 2.3-4.5 8.1-4.5 12.9 0 2.9.3 3.1 3.4 3.1 3 0 3.5.4 5 4.3.9 2.4 3 5.6 4.6 7.2 2.7 2.6 3.3 2.8 9 2.2 4.3-.5 6-.3 6 .5 0 .6.9.2 2-1 1.2-1.2 2.5-2.2 3-2.2.8 0 3 8.4 3 11.4 0 .6 1.1 2.7 2.5 4.6 2.4 3.3 2.5 3.3 2.5.9 0-2.2.2-2.1 2.1 1.1 2.5 4.4 8.9 8.9 8.9 6.4 0-1.5.2-1.6 1.8-.2 3.7 3.2 4.4 3.1 2.7-.2-1.2-2.3-1.3-3-.3-2.4 10.7 6.3 11.1 7.8 4.4 15-2.5 2.6-4.2 5.2-4 5.8s2.5 2.2 5.1 3.6c3.8 2 4.9 3.2 5.6 6 .4 1.9 1.7 4.2 2.8 5.2 1 .9 1.9 1.9 1.9 2.3s1.6 2.6 3.6 4.8c3.5 4.1 3.6 4.4 2.9 10.2l-.6 6 2.9-2.8c1.9-1.8 3.2-2.5 3.6-1.8.4.6 2 1.1 3.5 1.1 2.5 0 3 .5 3.6 3.6.7 4.2 1.5 3.8 4.8-2.4 1.2-2.3 2.6-4.3 3.1-4.4.4-.2 1.7 2.1 2.8 5.1 1.9 5.1 2.2 5.3 3.5 3.5.8-1 2.6-4.1 4-6.9l2.5-4.9 2.4 4.7c2.1 4 2.3 5.3 1.5 8.8-.5 2.3-1.9 4.8-3.1 5.6-1.6 1.1-2.1 2.4-1.8 4.9.2 3.2-.2 3.6-8.5 9.4-4.9 3.3-9.9 7.2-11.1 8.5-2.1 2.2-3.4 2.5-12.7 3.1-5.7.4-11.8 1.3-13.6 2.1s-3.7 1.2-4.2.9c-1.6-1-5.1 3.1-5.1 5.9 0 1.3.7 4.3 1.6 6.5 2.4 5.8 1.3 6.5-10.1 6.5l-9.4-.1.6 2.6c.3 1.4 1 3.3 1.4 4.2 1.9 3.7 1 5.3-4.8 8.2-8.3 4-17.1 9.4-22.2 13.4-3.6 2.9-4.5 3.3-5.2 2-2.3-4.1-19.7-27.6-34.9-47.3-11.1-14.3-18.4-22.8-20.8-24.2-3.3-1.9-16-6-26.2-8.3-1.9-.4-7.8-1.7-13-2.9-8-1.9-11.5-2.1-23-1.7-22 .8-46.3 2.5-47.2 3.4-1 1 .7 10.3 2.7 14.6.9 1.9 4.4 5.8 7.8 8.8 7.1 6.3 10.1 12.6 9 19.2-.7 4.7.1 5.3 8.5 6.2 4.5.5 6.5 1.1 6.9 2.3 1.4 3.9 3.5 5.1 9 5.1 7.1 0 18.3-1.6 25.6-3.7 3.1-.9 5.9-1.4 6.1-1.2 3.4 4 17.9 26.9 29.6 46.9 18.7 32 23.4 38.7 31.9 45.7 3.1 2.5 8.4 5.9 11.9 7.6 5.6 2.6 7.1 2.9 13 2.4 7.5-.5 11.6-1.8 28.4-8.8 6.5-2.7 12.1-4.9 12.4-4.9.7 0-.2 19.2-1.3 26.8l-.5 4.2h49.6c47.5 0 49.6-.1 49.6-1.8 0-2.8 3.5-16.2 8-30.4l4-12.7 7.3.5c19.6 1.3 29.9 2.6 34.8 4.3 10.3 3.5 17.9 8.9 28.6 20.1l7.3 7.5v-41.3l-4.5-3.6c-2.5-2.1-4.5-4.4-4.5-5.2s1.2-5.1 2.7-9.6c1.8-5.5 3.2-8.2 4.5-8.6 1.7-.4 1.8-3.1 1.8-57.6v-57.3l-2.5-2.3c-3.1-2.9-3.2-5-.3-5 2.2 0 2.2 0-.3-2.8-5.8-6.3-5.8-6.5-1.1-5.7l4.2.7v-12.9c0-12.6-.1-12.9-3.5-19.7-1.9-3.7-3.5-8-3.5-9.4s1.6-5.6 3.5-9.3l3.5-6.8V46.2l-4-1c-2.2-.5-4.9-.8-5.9-.5s-2.1 0-2.5-.5c-1-1.6 2.2-3.5 5.1-2.9 1.5.3 3.7 0 5-.6 2.3-1 2.3-1.1 2.3-20.9V0h-75.5zm70.9 191.9 5 1.3.3 8.7c.2 7.1-.2 10.1-2.3 16.9-1.4 4.5-4.2 14.5-6.1 22.2-6.2 25.1-8 29.2-16.7 37.4-3.2 3.1-6.3 6.6-6.8 7.8l-.8 2.2-7.3-3.4-7.3-3.3-.6-10.9c-.5-8.9-1.2-12.6-4.2-20.8-3.8-10.8-8.8-24.1-10.8-29.1-.7-1.8-.9-4.2-.5-6l.8-2.9 2.4 3c1.3 1.6 2.4 2.4 2.4 1.7 0-.8 1.2 0 2.6 1.7 3.4 4.1 4.6 3.9 3.8-.4-.3-1.9-.4-3.5 0-3.5.3 0 2.2 1.7 4.1 3.7l3.6 3.8-.6-3c-.3-1.7-.8-6.4-1-10.5l-.6-7.4 7.7 7.7c4.2 4.2 8.1 7.7 8.6 7.7.6 0 .9-3.3.7-8.8-.4-8.1-.3-8.7 1.5-8.4 1 .2 2.2-.2 2.6-.8.6-.9 2.1-.4 5.5 1.6l4.8 2.8-.7-2.8c-.5-2-.3-2.6.5-2.1.6.4 1.5.2 1.9-.5.6-.9 1.2-.9 2.9-.1 2.4 1.3 2.8 0 .5-1.9-.8-.8-2-2.2-2.5-3.2-1.2-2.2-.4-2.2 6.6-.4"/></svg>