<svg xmlns="http://www.w3.org/2000/svg" width="682.667" height="512" version="1.0" viewBox="0 0 512 384"><path d="M453.2 2.9c-3.3 2.9-3.5 2.9-16.5 2.9-11 0-14.9.4-22.9 2.5-17.5 4.6-37.5 14.6-49.2 24.5-10.8 9.3-19.5 22.9-21.5 33.6-1.7 9.2-5.7 13.3-19.9 20.3-11.1 5.4-12.1 5.7-19.4 5.8-6.7.1-8.1.5-10.2 2.4-1.4 1.3-2.8 3.6-3.1 5.2-.4 1.6-1.1 3.1-1.6 3.4-.5.4-.9 2.4-.9 4.6 0 3.8.5 4.3 4 4 1-.1 2.2 1.6 3.4 4.9 1 2.9 3 6.5 4.4 8.1 2.3 2.9 2.7 3 9.1 2.6 3.6-.2 7.9-.9 9.5-1.6 3.9-1.6 4.9-.4 5 6.3 0 3.1.3 5.6.7 5.6s1.4 1.7 2.3 3.7l1.7 3.8-.6-5-.5-5 2.6 6c3 6.8 4.3 8.7 5.5 8 .4-.3 1.2.3 1.8 1.2.9 1.5 1 1.2 1.1-1.6v-3.4l3.5 4.7c4.1 5.3 5.2 5.9 3 1.6-.9-1.7-1.3-3.5-.9-4.1.3-.6-.3-2-1.3-3.2-2.3-2.5-3.6-4.7-2.9-4.7.3 0 2.6 2.8 5.2 6.2 3.6 4.8 4.1 5.7 1.8 3.8l-2.9-2.5 2.9 3.2c1.6 1.8 3.3 3 3.7 2.7 1.3-.7 3.1 3.5 2.4 5.6-.3 1.1-2.7 3.8-5.3 6-5.3 4.6-5.4 4.1 2.8 9.3 2.6 1.7 3.6 3.2 4.2 6.2.5 2.2 1.7 4.7 2.8 5.7 1.1.9 2 2.3 2 3.2 0 .8.8 2.1 1.8 2.8s2.6 2.5 3.5 3.9c1.6 2.4 1.6 2.9-.2 8.2-2.2 6.3-1.5 7.2 2.2 2.6 2.1-2.7 2.5-2.8 3.6-1.5.8.9 2.9 1.6 4.7 1.6h3.4l-.6 4.2-.7 4.3 2-2.5c1.1-1.4 2.8-4 3.9-5.8 2.3-4 3.6-3.7 5 1.4 1.2 4.3 2.5 4.7 3.6 1.2.5-1.6.7-1.2.5 1.6l-.3 3.9 2-2.5c1.2-1.4 3.4-4.7 5-7.4l2.9-4.9 2.3 5.4c1.4 3.2 2.4 7.3 2.4 10.2 0 4-.4 5.1-2.7 6.9-2.2 1.7-2.7 2.9-2.6 6 .2 3.8 0 4-5.5 7.2-3.1 1.7-7.7 4.6-10.2 6.3-3.9 2.7-5 3.1-8 2.4-1.9-.4-7.5-1.1-12.4-1.5-7.9-.6-9.1-.5-10.2 1.1-1.1 1.5-1.6 1.6-2.9.5-1.2-1-1.9-.9-4 .4-3.3 2.2-3.9 5.1-2.1 11 .8 2.7 1.3 5.3 1 5.8-.7 1.2-13.2 1-17.7-.3-2.2-.6-4.2-.8-4.5-.5-.3.4.2 3 1.1 5.8s1.4 5.4 1.2 5.9c-.3.4-1.7 1-3.2 1.4-6.6 1.5-26.3 10-31.5 13.5-3.2 2.1-5.8 3.4-5.8 2.9 0-2.2-12.9-20.5-29.5-42-4.5-5.7-11.2-14.5-15-19.4-10.8-14.3-15.9-18.7-23.5-20.9-3.6-1-8.6-2.5-11.2-3.3s-8.7-2.1-13.5-2.8c-4.8-.8-11.9-2.1-15.8-2.9-9.7-2.1-29.6-2.1-33.7 0-2.1 1.1-7.8 1.8-18.2 2.5-8.3.4-15.2.8-15.3.9-.2 0-.3 1.9-.3 4.1 0 8 1.9 12 9.7 19.6 7.7 7.8 8.5 8.8 10.5 14.9 1 2.8 1.1 4.9.4 7.2-1.2 4.2-.1 5.3 6.1 5.9 7.6.7 9 1.2 9.6 3.3 1 4 4.6 4.5 19.5 2.6 7.5-.9 15.7-2.3 18.1-3.1 4-1.2 4.6-1.2 5.8.3 5.8 7.6 18.5 26.9 32.3 49 9.1 14.5 18.8 29.4 21.6 33 6.1 8.1 15.7 16.1 24.4 20.5 10.6 5.3 19.3 4.3 52-6.2 6.9-2.2 12.8-3.7 13.3-3.2.4.4.3 6.5-.3 13.6-.5 7-1 14.3-1 16.1v3.4h104.7l2.2-8.2c1.3-4.6 3.4-11.8 4.8-16.1l2.4-7.8 5.2.5c2.9.4 10.7 1.1 17.5 1.6 16.9 1.4 26.1 4.6 37.2 12.9l5.5 4.1.3-33.1c.1-18.2.1-47.8 0-65.7l-.3-32.7-2.3 10q-7.5 32.25-9.9 36.9c-.9 1.7-4 5.7-6.9 8.9-3 3.2-5.4 6.5-5.4 7.2 0 1.1-1.9.5-7-2.1l-7-3.6v-8c0-9.3-2.1-20.5-5.7-29.7-1.4-3.6-3.7-10-5.3-14.1-1.5-4.1-3.4-9.2-4.3-11.4-1.8-4.1-2.4-11.7-.8-10 .5.5 1.1 1.8 1.3 2.9s.8 2 1.4 2c.5 0 2.4 1.6 4.2 3.5l3.1 3.5.1-4.3v-4.4l2.9 2.4c1.6 1.3 3.4 3.2 4 4.3 1.1 2.1 1.1.6-.5-13.8-.5-4.2-.3-5.7.6-5.7 1.2 0 2.5 1.3 12.4 11.9 2.1 2.2 4.3 4.1 4.8 4.1.7 0 .9-3 .4-8.9-.6-8.6-.6-8.9 1.4-8.4 1.6.4 2 .1 2-2.2v-2.7l3.8 3c2 1.6 4.9 3.7 6.5 4.7l2.8 1.8-1-2.6c-.9-2.3-.7-2.6 2-3.2 3.3-.7 3.4-1.2 1.4-3.9-1.9-2.5-1.9-3.7 0-3 1.3.5 1.5-11.2 1.5-102V0h-27.7l-27.8.1zm-60.5 203.3c-.3.8-.6.5-.6-.6-.1-1.1.2-1.7.5-1.3.3.3.4 1.2.1 1.9"/></svg>