<svg xmlns="http://www.w3.org/2000/svg" width="682.667" height="512" version="1.0" viewBox="0 0 512 384"><path d="M281.7 2.9c-5.7 3.4-9.7 7-9.7 8.7 0 1-1.5 1.2-6.3.7-9.2-.8-17 1.1-21.2 5.3l-3.4 3.4-1.6-3c-3-5.8-20.7-8.6-35.5-5.6-10.5 2.2-25.8 7.4-28.1 9.7-.9.9-1.9 3.3-2.3 5.4-.6 3-.3 4.4 1.3 6.6 1.2 1.6 2.1 3.4 2.1 4.1s1.1 3 2.5 5 2.5 4.1 2.5 4.6 1.3 2.6 3 4.7c1.6 2 2.7 4.1 2.4 4.6s.8 2.6 2.4 4.7c1.6 2 2.7 4.2 2.5 4.8-.5 1.4 7.2 8.4 9.2 8.4 1.1 0 1.5 1.2 1.5 4.7 0 5.2 3.7 16.7 6.5 20.4q1.65 2.25 1.2.6c-.4-.9-.2-1.7.3-1.7 1.6 0 1.2 15-.4 15.6-.9.4-1.2 1.8-.9 4.7.2 2.3 0 9.1-.5 15.2-.7 8.8-.6 11.2.5 11.8.8.5 1.3 2.9 1.3 6.9 0 5.4-.4 6.7-3.8 11.7-2.1 3.1-5.9 8.7-8.5 12.6-2.6 3.8-5.9 8.8-7.4 11-1.6 2.2-2.8 4.5-2.8 5.2s-.8 1.8-1.7 2.5c-2.1 1.6-13.8 24.3-13.8 26.8 0 .9-.7 2.3-1.5 3s-1.5 2.1-1.5 3.1-.4 2.1-1 2.4c-.5.3-1 1.7-1 3s-.5 2.7-1.1 3c-.6.4-.8 1.3-.5 2 .2.7-.2 2.2-1.1 3.4-.8 1.2-1.2 2.8-1 3.5.3.8.2 1.7-.3 2.2s-1.1 2-1.4 3.4-1.3 5.6-2.1 9.4c-.9 3.8-1.4 7.4-1.2 8 .3.6 0 1.9-.5 2.8-.5 1-1 3.9-1.3 6.5-.2 2.7-1 9.1-1.9 14.3-.8 5.2-1.3 9.6-1.1 9.9.3.2 0 1.2-.5 2.2-.7 1.2-.6 1.9.3 2.2s.9.7 0 1.8c-.7.9-1.4 4.5-1.7 8.2-.4 5.4-.2 6.7 1 6.7.8 0 1.4.9 1.4 2 0 2.7 1.2 2.5 4-.5 3.1-3.3 5.5-3.2 7.7.5 2.1 3.6 2.2 3.6 5 .7 3-3.2 3.7-7.4 4.8-30 .2-3.7.7-7.7 1-8.8.4-1.1.2-2.6-.4-3.3-.7-.8-.7-1.6-.1-2.2s1.2-3.2 1.4-6c.2-2.7.6-5.7 1-6.6s.5-2.2.1-2.8-.2-1.7.5-2.5c.6-.7 1-1.9.9-2.7-.1-.7 0-2 .3-2.8 2.6-7 6.2-19.8 6-21.3-.1-.9.2-1.7.7-1.7 1 0 3.6-6.8 3.3-8.6-.1-.6.7-1.9 1.8-2.9 1.8-1.6 2.1-1.7 4.5-.1 3.5 2.3 3.9 5 2.8 18.9l-.9 12.2-10.3 25.5c-5.7 14-10.8 26.6-11.3 28-.8 2-.5 3.6 1.7 8.2l2.7 5.7-2 2.8c-4.7 6.7-6.4 11.4-5.9 16.7.2 2.8 1 6.7 1.7 8.6s1.7 4.7 2.2 6.1c.5 1.5 2.4 3.3 4.5 4.3 3.3 1.6 3.5 1.9 3 5.4-.4 2-.9 6.7-1.3 10.5l-.7 6.7H382v-3.9c0-2.3.8-4.8 2-6.4 1.9-2.4 2.1-3.9 1.9-16.9-.2-11.7.2-15.9 1.9-23.1 1.2-4.8 2.2-10.3 2.2-12.2 0-2.3-3.5-10.6-10.9-25.7-11.5-23.5-18.4-38.7-19.6-42.8-.4-1.4-3.2-8.7-6.1-16.3-3-7.6-5.4-14.3-5.4-15s1.1-4.8 2.5-9.1c1.4-4.4 2.3-8.2 2-8.4-.3-.3-3.5 0-7.1.7-3.6.8-6.7 1.2-6.8 1-.8-.9-4.8-16.6-6.6-26-2.4-12.3-5-18.1-9.9-21.6-2-1.5-3.7-2.8-3.8-2.8s-.7-7.3-1.3-16c-.5-8.8-1.3-18.3-1.6-21-.9-7.2.1-5.4 3.1 6 1.4 5.5 3 10.2 3.4 10.5s1.3 1.4 2 2.5c1.1 1.9 1.2 1.8.7-.5-.3-1.4-1.4-9.5-2.6-18.1-1.1-8.6-2.5-18-3-20.9-.6-2.9-.8-5.5-.5-5.8.2-.3 2.3-.5 4.6-.6 2.8-.1 4.6-.8 5.5-2.1 2.6-3.6 1.6-7.1-4.8-16.5-7.6-11-10.4-15.7-9.8-16.3.3-.3 4.4 0 9.3.6 9.6 1.2 10.4.9 11.1-3.8.2-1.7.6-3.7.9-4.5.6-1.6.8-3.2 1.1-10 .1-2.5.6-5.5 1-6.7.4-1.4.1-3.4-.9-5.4-1.3-2.3-1.4-3.4-.5-3.9 1.3-.8.4-7.6-1.2-8.6-.5-.3-.4-1.2.3-2.1 1-1.1 1-2.2 0-4.9-.7-1.8-.9-3.9-.5-4.5C336 .5 331.7 0 309.5.1h-23zm37.2 244.9c.6 5.7 1.1 11.3 1 12.5-.2 4.6-2.9-9.2-3.4-17.8-.7-11.9.9-8.3 2.4 5.3"/></svg>