<svg xmlns="http://www.w3.org/2000/svg" width="682.667" height="512" version="1.0" viewBox="0 0 512 384"><path d="m471.1 6.1-10.4 6.1-8.4-1.2c-27.9-4-70.8 11.6-88.4 32.1-6.5 7.5-11.4 15.9-12.8 22-1.6 7-6.7 11.5-19.4 17.2-8.7 3.9-9.8 4.1-19.2 4.2-5.7.1-11 .7-12.2 1.3-2.3 1.3-7 10-7.3 13.7-.4 3.7 0 4.4 2.7 4.7 2.4.3 2.9 1.1 4.5 6.4 1 3.5 2.9 7.3 4.5 8.8 2.9 2.9 3.2 2.9 18.3 1.4 2.4-.3 2.5 0 3.1 5.7.3 3.3 1.2 7.6 2.1 9.5l1.6 3.5.2-4 .1-4 1.7 5.3c1.7 5.1 5.8 11.2 7.6 11.2.5 0 .6-1.5.2-3.3-.6-3.1-.5-3.2 1.2-1.1.9 1.1 2.5 3.1 3.5 4.5 1.7 2.3 1.7 1.6 0-2.9-.6-1.5-.3-1.4 1.7.3l2.3 2-1.8-2.7c-.9-1.5-2.2-2.5-2.8-2.1q-.9.45-.3-.6c.4-.6.2-1.9-.5-2.7-.6-.8-1-1.7-.7-2 .6-.5 6.8 8.7 6.8 10.1 0 .4 1.1 1.8 2.5 3.1s2.5 2.8 2.5 3.3-2.5 3.1-5.5 5.7-5.5 5.4-5.5 6c0 .7 2 2.5 4.4 3.9 4.2 2.5 5.6 4.6 5.6 9.1 0 1.1.9 2.9 2 3.9s2 2.8 2 4.1.6 2.7 1.4 3.1 2.6 3.2 3.9 6.1c2.4 5.1 2.4 5.6 1 8.9-1.7 4.3-1.2 5.2 1.6 2.4 1.3-1.3 3.4-2.1 5.5-2.1 1.9 0 4.2-.3 5.2-.7 1.5-.6 1.7-.1 1.1 5-.3 3.1-.4 5.7-.2 5.7.1 0 2-2.7 4.1-6 2.2-3.3 4.2-6 4.5-6 .4 0 1 1.2 1.3 2.7 1.2 5 2.8 8.3 4.1 8.3.7 0 3.2-3 5.5-6.6s4.4-6.3 4.8-5.9c1.8 1.7 4.2 10.6 4.2 15.4 0 4.6-.4 5.9-2.7 8.3-2.1 2.2-2.7 3.8-2.7 6.7.1 3.5-.2 4-3.5 5.6-2 .9-5.7 3-8.3 4.7l-4.7 2.9-8.3-1.4c-16.1-2.9-17.8-3-19.3-1.1-1.1 1.5-1.5 1.6-2.8.5-3.5-2.8-8.3 1.6-7.3 6.7.2 1.5.7 4.4 1.1 6.4l.6 3.8h-6.9c-3.8 0-8.9-.7-11.2-1.5-2.4-.8-4.5-1.3-4.8-1.1-.2.3.2 2.8.9 5.5.8 3.2.9 5.5.3 6-.5.5-5.1 2.1-10.3 3.6-11.6 3.2-25.2 8.6-28.7 11.4l-2.7 2.1-3.6-6.1c-4.6-7.9-17.5-24.9-39.3-51.8-19-23.5-19.5-24-33.3-27.8-10.2-2.8-23.9-7.5-29-10.1-10.4-5.2-37.1-7.1-46.3-3.2-3.2 1.3-8.9 2.2-17.4 2.8-6.9.5-13.1 1.3-13.7 1.6-1.5 1-1.4 4.9.5 11.3 1.6 5.4 4.1 8.6 13.5 17 4.1 3.6 6.4 9.7 6.4 16.8v5l6.3.8c4.6.5 6.9 1.4 8.5 3.1 4.1 4.2 12.7 6.1 28.2 6.1 7.7 0 15.1-.4 16.6-.8 2.3-.8 3.1-.1 10.5 10 4.5 5.9 14.9 20.9 23.2 33.3s17.6 25.5 20.7 29.3c5.9 7.1 17 16 25.8 20.5 8 4.1 17.5 3.8 46.5-1.7 12.7-2.4 23.5-4.1 23.9-3.8.9 1 .9 31-.1 37.9l-.7 5.8h106l1.6-5.7c6-21.2 6.5-22.5 8.8-22 1.2.3 7.8 1.1 14.7 1.7 20.5 1.9 31.5 6.7 44.3 19.5l5.7 5.7v-22.4c0-21.2-.1-22.4-2-23.6-2.5-1.6-2.5-4.7 0-9.7 2-3.9 2-5.9 2-165.7V0h-15.2l-15.3.1zm38.3 208.5c.8.3 1.2 1.2.9 2-.4 1.1-.9 1.2-1.9.3-.8-.6-1.4-1.5-1.4-2 0-1.1.3-1.1 2.4-.3m-4.2 11.4c.6 0 .5-.6-.2-1.5-1.5-1.8-1.4-2 2.2-2.9 2.5-.6 2.6-.5 1.9 2.2-.5 1.5-1.1 6.8-1.5 11.7-.4 5-1.6 12.8-2.7 17.5s-3.1 13.8-4.5 20.3c-4 18.7-5.9 24.1-10.8 29.6-2.4 2.7-4.6 5.5-4.8 6.2-.3.8-2.7-.2-7.4-3l-6.9-4.2-.1-11.2c-.1-12.4-1.4-18.4-8.7-39.9-4.5-13.1-4.8-17.1-.9-11.8 3.1 4.1 4.6 3.9 3.8-.5-.4-1.9-.3-3.5.2-3.5 1 0 5.5 4.7 7.1 7.5 1 1.7 1.1 1.2.7-3-.3-2.8-.8-7.8-1.2-11.3-.8-8.5.6-8.2 8.6 1.8 4.9 6.2 7.8 9 9.2 9 .6 0 .9-3.3.7-8.5-.4-8.3-.3-8.5 1.9-8.5 1.5 0 2.2-.6 2.2-2 0-1.8.6-1.5 5.1 2 2.8 2.2 5.5 4 6.1 4"/></svg>