<svg xmlns="http://www.w3.org/2000/svg" width="682.667" height="512" version="1.0" viewBox="0 0 512 384"><path d="m480 7.1-13.5 7L459 13c-20.8-2.9-45.8 1.8-67.4 12.7-17.8 9-32.4 24.1-36.2 37.4-2.5 8.9-9.7 14-28.1 19.9-6.2 2-7.9 2.2-13.2 1.3-8.9-1.4-11.9-.1-15.4 6.6-1.5 2.9-2.8 6.7-3 8.5-.2 2.7.1 3.1 2.5 3.4 2.1.3 2.9 1 3.4 3 1.6 7.4 3.8 12.4 6.2 14.3 2.5 1.9 3.5 2 11.6 1.4l8.9-.7-.5 5.6c-.3 3.1-.1 5.6.4 5.6.4 0 .8.9.8 2 0 2.2 1.5 2.7 2.6.9.3-.6 1.4 1.3 2.4 4.2s2.5 5.8 3.2 6.4c.8.5 2 1.9 2.6 3 1 1.8 1.1 1.5 1.2-2v-4l2.5 3.8c3 4.3 3.8 4.7 2.5 1.1-.6-1.4-.7-3-.4-3.5.3-.6-.1-2.1-1-3.4s-1.6-3-1.6-3.7c0-1.8 5.3 7.3 5.3 9.2 0 .8 1.3 2.6 2.8 3.9 1.6 1.3 2.9 3.2 2.9 4.1 0 2.2-3.9 6.4-7.9 8.4-4.5 2.4-4.2 3.2 3.7 9.3 1.4 1.1 2.5 3.3 2.9 5.8.3 2.2 1.2 4.7 2 5.6.7.9 1.5 2.5 1.7 3.6s1.5 3.6 2.9 5.7c1.4 2 2.8 5 3.2 6.6s1 3.2 1.5 3.5.3 2.3-.5 4.5c-1.6 4.5-1.1 4.9 2 2 1.3-1.2 4.2-2.3 7.2-2.7l5-.5-.5 5.1c-.2 2.8-.2 5.1.2 5.1.3 0 2.2-2.5 4.2-5.5 1.9-3.1 3.9-5.3 4.4-5 .4.3 1.1 2.3 1.5 4.5.4 2.4 1.4 4.4 2.5 5 1.6.9 2.5.1 6.1-5.1 3.4-5 4.3-5.9 5.4-4.8 2.2 2.4 3.5 8 3.5 14.7 0 5.7-.3 6.8-2.6 8.9-2.1 1.9-2.5 3.1-2.2 5.9.4 3.4.2 3.7-4.6 6.1-2.8 1.4-6.3 3.4-7.8 4.5-2.3 1.6-3.4 1.7-8.5.8-19.8-3.4-21.5-3.5-22.9-1.5-1.4 1.8-1.4 1.8-2.8-.1s-1.5-1.9-4.3.2c-2.3 1.8-2.8 2.9-2.8 6.5 0 2.4.3 5.9.7 7.6l.8 3.3h-5.4c-2.9 0-8.1-.9-11.5-2.1-3.5-1.1-6.5-1.9-6.6-1.7-.2.2.1 2.4.7 5 .6 2.5.8 5.3.5 6.1s-3.7 2.2-7.9 3.2c-10.9 2.7-26.8 8.3-31 11l-3.7 2.4-3.2-5.2c-4.9-8-11.4-16.4-45-57.7-10-12.3-15.7-17.8-20.2-19.4-2.3-.8-7.1-2.4-10.7-3.6-15.9-5.4-23.8-8.2-27.5-10-8-3.8-15.3-5-31-5-11.9 0-15.5.3-17.2 1.5-1.4 1-6.3 1.9-13.5 2.5-6.2.5-12.8 1.2-14.7 1.6l-3.4.5.7 5.5c.9 7.8 3.6 12.4 11.1 19.1 7.6 6.8 11 13.6 9.9 20.3-.8 4.6 1.1 6 7.9 6 3.7 0 4.8.5 6.1 2.5.9 1.4 2.3 2.5 3 2.5.8 0 3.7 1.2 6.6 2.7 4.7 2.4 6.4 2.7 19 3.1 11.4.4 14.4.2 17.1-1.2 1.7-.9 3.3-1.6 3.5-1.6.7 0 14.8 18.9 27.4 37 24.1 34.4 27.5 38.4 40 47.5 14.8 10.6 21 11.5 50.5 7 9.4-1.4 20.3-3 24.3-3.6 4-.7 7.6-.8 8-.4.4.3.7 11 .6 23.6l-.1 22.9h105.4l1.2-5.3c.6-2.8 2.3-8.9 3.7-13.5 2.4-8.1 2.6-8.3 5.2-7.8 1.5.3 6.3.8 10.7 1.2 21.4 1.7 32 6 44.4 18.1 4.1 4 7.8 7.3 8.3 7.3.4 0 .8-9.8.8-21.8v-21.9l-2.5-2.3c-1.4-1.3-2.5-3-2.5-3.7 0-.8 1.1-3.5 2.5-6.1l2.5-4.7V0h-9.2l-9.3.1zm29 212.4c0 .8-.4 1.5-.9 1.5s-1.1-.7-1.5-1.5c-.3-.9 0-1.5.9-1.5.8 0 1.5.7 1.5 1.5m-5.8 9.5c.6 0 .8-.9.5-2.1-.4-1.5-.2-1.9.9-1.5.8.3 1.4.1 1.4-.5s.5-.7 1.1-.4c.6.4.8 1.4.5 2.2s-1.3 7.2-2.1 14.1c-.8 7-2.2 15.6-3.1 19.2-.8 3.6-2.6 11.9-4 18.5-3.5 17.3-5.7 23.2-10.9 28.7l-4.3 4.8-6.6-4.3-6.6-4.4-.3-13.9c-.3-11.8-.7-15.1-2.9-21.9-1.4-4.4-3.7-11.6-5.1-16s-2.8-8.9-3.2-10c-.5-1.4 0-1.1 1.9 1l2.5 3 .1-2.5c.1-5 1.5-5.4 4.9-1.5l3.2 3.7-.4-10.1c-.2-5.6 0-10.1.5-10.1 1.2 0 4.4 3.4 10 10.8 2.7 3.4 5.2 6.2 5.7 6.2 1.7 0 2.3-3.9 1.6-10.6-.7-6.5-.7-6.6 1.6-6.2 2 .2 2.4-.1 2.4-2.3-.1-2.7 0-2.6 4.8 1.7 2.7 2.4 5.4 4.4 5.9 4.4"/></svg>