<svg xmlns="http://www.w3.org/2000/svg" width="682.667" height="512" version="1.0" viewBox="0 0 512 384"><path d="M499.3 5.5c-6.1 2.4-13 5.3-15.4 6.5-3.8 2-4.8 2.1-9.8 1.1-13.6-2.7-19.2-3.1-27.9-2.1-32.3 3.9-54.8 13.6-70.2 30.4-5.9 6.4-8.8 10.8-10.6 15.9-2.2 6.2-8.6 10.5-20.9 14-9.2 2.6-10.8 2.8-20.8 2.1-12.7-.7-13.3-.4-17.8 9.1-4 8.3-3.8 10.2.8 9.6 1.3-.2 1.4.3 3.3 10.1 1.8 9.2 3.4 10.5 13.9 11.3 8.4.7 9 .9 9.6 3.2.3 1.3.3 2.8 0 3.4-.9 1.3.4 6.9 1.6 6.9.5 0 .9-1 1-2.3.1-2.1.1-2.1.9.3.4 1.4 1.3 4.3 1.9 6.6.6 2.2 2.2 5.4 3.6 7l2.5 2.9v-2.8c0-3.6 1.4-3.4 3 .3 1.4 3.4 3.1 4.1 2.3 1-.4-1.4 0-2 1.1-2 .9 0 1.5.3 1.4.7-.3 1.4 2.5 6.3 3.2 5.8.5-.3 1.1.3 1.4 1.2.8 2-2.2 5.2-7.4 8.1-1.9 1-3.6 2.6-3.8 3.4-.2.9 1.5 3.3 3.7 5.4 3.5 3.2 4.1 4.3 4.1 7.9 0 2.9.6 4.7 2 6 1.1 1 2 3.1 2 4.7 0 1.5.4 2.8 1 2.8.5 0 1.7 2.6 2.6 5.8.9 3.1 2.2 6.7 3 7.9 1 1.7 1.1 2.9.4 4.9-1.5 4-.3 4.2 3 .6 2.3-2.6 3.7-3.2 7-3.2h4l-.5 6c-.3 3.3-.4 6-.1 6s2.4-2.8 4.8-6.3l4.3-6.2 1.4 6.4c1.1 5.5 1.5 6.2 2.6 4.8.6-.9 1.4-1.4 1.7-1.1s2.1-1.5 3.9-4 3.6-4.6 4-4.6c1.8 0 3.1 4.6 3.9 13.2.8 8.8.8 9.2-1.7 12.4-1.7 2.4-2.4 4.3-2.1 6.2.4 2.6-.1 3.2-5.3 5.9l-5.6 3-6.8-1.4c-3.8-.8-7.4-1.2-8.1-.9s-4.3 0-7.9-.5c-5.8-1-6.9-.9-8.6.7-1.8 1.7-2 1.7-3.3-.1s-1.5-1.8-4-.2c-3.3 2.2-4.1 5.5-2.9 11.8.6 2.7.7 5.2.2 5.4-1.2.8-14.7-1.4-18.6-3-2-.8-3.8-1.3-4.1-1.1-.2.3.1 2.1.8 4 2.4 7.3 2.1 7.5-14.1 11.7-8 2-17.5 4.9-21 6.4-3.5 1.4-7.1 2.9-8 3.2-1.1.3-2.9-1.4-5.9-5.9-2.4-3.5-6.4-8.8-8.9-11.8-9.7-11.6-26.8-30.9-36.3-41.1-5.4-5.9-10.7-11.8-11.9-13.3-2.9-3.7-9.4-7.2-16.9-9.1-3.6-.9-7.2-2.3-8-3-2.7-2.3-7.3-4.2-15.3-6.4-4.3-1.2-8.8-2.8-10.1-3.6-4.9-3.2-17.5-5.5-30.3-5.5-10.7 0-13.1.3-18.1 2.4-4 1.6-8.6 2.5-15.7 3-5.5.3-11.3 1-13 1.5-2.7.7-3 1.2-2.8 4.4.1 2 1.3 6.2 2.5 9.4 1.8 4.5 3.6 6.8 8.4 10.7 4.8 4 6.9 6.6 9.2 11.6 2.1 4.6 2.7 7 2.1 8.2-.5.9-.9 2.6-.9 3.7 0 2.2 1.3 2.7 9.1 3.4 3 .3 5.4 1.2 6.8 2.6 1.1 1.1 2.6 2.1 3.2 2.1.5 0 2.7 1.4 4.8 3 4.5 3.7 11.3 5 25.6 5 8.1 0 10.8-.4 14-2 2.2-1.1 4-2 4.1-2 .5 0 22.7 27.6 34.6 43 7.4 9.6 16.4 20.5 19.9 24.1 12 12.3 27.8 21.1 38.9 21.7 5.4.3 36.5-2.7 56.5-5.4l4.8-.7-.5 28.1-.6 28.2h104.6l1.1-3.3c.5-1.7 2.2-7.8 3.7-13.5 1.5-5.6 3.2-10.9 3.8-11.7 1-1.2 2.9-1.2 15.1.1 7.7.8 16.3 2.1 19 2.9 9.1 2.6 21.3 12.1 29.3 22.9l2.2 2.9v-24c0-23.9 0-24-2.4-26.2l-2.3-2.2 2.1-4.2 2.1-4.2.3-161.3c.1-88.6-.1-161.2-.5-161.2-.5 0-5.8 2-12 4.5M349.9 131.6c1.7 3.7.8 3.9-1.3.4-.9-1.7-1.3-3-.8-3s1.4 1.2 2.1 2.6M509 223.5c0 1.5-2.1 1.2-3-.5-1.1-2-1-2.1.9-1 1.2.6 2.1 1.3 2.1 1.5m-13.2 2.7c.7.9 2.7 2.7 4.4 3.9 3.1 2.2 3.1 2.2 2.6.2-.4-1.7-.1-2.1 1.9-2.1 2.3 0 2.4.3 1.9 3.2-.4 1.7-1.4 8-2.2 14.1-1.4 10.1-2.5 15.7-8.6 43.5-2.4 10.9-4.4 15.3-8.6 19.4l-3 2.8-6.9-5.5-6.9-5.5.4-10c.5-12-.7-19.5-5.3-33.8-1.9-5.9-3.5-12.3-3.5-14.2v-3.5l2.1 1.9c1.2 1 2.9 3.1 3.8 4.5 1.5 2.5 1.6 2.2 1.6-7.2 0-5.3.3-10 .7-10.4 1.1-1.1 4.4 1.6 7.3 6.3 4.1 6.4 7.5 10.3 8.6 9.6.5-.3.9-2.7.9-5.3 0-8.1.9-10.9 3.2-10.3 1.8.4 2 .1 1.6-2.6-.4-2.8-.2-3 1.1-1.9.9.6 2.2 2 2.9 2.9"/></svg>