<svg xmlns="http://www.w3.org/2000/svg" width="682.667" height="512" version="1.0" viewBox="0 0 512 384"><path d="M283.5 1.7c-5.6 3-9.5 6.5-9.5 8.5 0 1.6-.5 1.9-2.2 1.4-5.9-1.7-8.2-1.7-15.2-.1-6.1 1.3-8.2 2.3-10.8 5l-3.2 3.4-1.4-2.8c-1.5-3.1-3.9-4.4-11.2-6.1-11.6-2.5-26.8-.3-43.8 6.5-8.6 3.5-9 3.8-10 7.5-1.1 4.5-.5 9 1.4 9.7.8.3 1.4 1.1 1.4 1.8s1.1 2.8 2.4 4.8c1.3 1.9 2.7 4.6 3.1 5.8.4 1.3 1.6 3.3 2.6 4.5 1.1 1.1 2.1 3 2.4 4.2.2 1.2 1.3 3.2 2.5 4.4 1.1 1.2 2.4 3.4 2.7 4.8.9 3.7 5.7 8 8.8 8 2.6 0 2.7.2 2.3 4.2-.7 7 4.1 21.2 6.8 20.1.8-.3 1.4 0 1.4.6s-.4 1.1-.9 1.1c-.6 0-.3 1.2.5 2.7 1.9 3.7 1.8 10.2-.1 10.9-1.2.5-1.5 2.8-1.5 12.3 0 6.4-.4 13.2-.9 15.3-.7 3.1-.6 3.7.9 4.1s1.9 1.8 2.2 7.3c.4 8.6-.2 9.9-17.4 35.1-1.5 2.3-2.8 4.6-2.8 5.3 0 .6-1.3 2.8-2.9 4.8-3.6 4.4-13.3 23.1-12.6 24.2.3.4-.2 1.3-1 2-1.5 1.2-4.1 7.9-3.7 9.4.2.5-.4 1.6-1.1 2.5-1.3 1.4-2.3 4.6-3.1 9.3-.1.9-.7 2.2-1.2 3-1.5 1.9-5.6 18.7-4.9 19.8.3.5.1 1.9-.5 3.1-.7 1.1-1.3 3.7-1.5 5.8-.2 2-.5 4.3-.8 5.1-1.3 3.5-3.5 17.2-3.1 18.5.3.7.1 1.6-.5 2-.6.3-1.1 1.3-1.1 2.1 0 .9.5 1.2 1.1.8.6-.3.3.5-.6 2-1.1 1.6-1.5 3.5-1.1 5 .3 1.4.3 2.7-.2 3-1.2.7-1.4 6.6-.2 6.6.5 0 1 1.1 1 2.5 0 3.2.4 3.1 4.3-.5 4.1-3.8 5.3-3.8 7.8.5 2.2 3.7 3.9 4.5 3.9 2 0-.8.6-1.5 1.4-1.5 2 0 2.6-1.2 3.1-5.7.2-2.1.5-3.8.6-3.8s.3-1.8.4-4c.2-2.2.6-6 1-8.5.3-2.5.8-6.6 1-9.2s.6-5.2 1-5.8c.3-.6.4-2.4 0-4-.4-1.9-.3-3 .4-3s1.1-2.2 1.1-5.4c0-3 .5-5.8 1.1-6.2.6-.3.8-1.6.5-2.7-.3-1.2-.2-2.6.3-3.1.4-.6 1.8-4.5 3-8.6s2.9-9.3 3.8-11.5c.8-2.2 1.6-4.7 1.7-5.5s1-2.7 2-4.3c1-1.5 1.8-3.8 1.9-5.2 0-1.3.8-3.2 1.9-4.1 1.7-1.6 2-1.6 3.5-.1s1.5 2.9.5 14.4c-1.3 14.2-1.8 16-15.2 49.4-4.4 10.8-8 20.3-8 21 0 .8 1.1 3.7 2.4 6.5 2.1 4.5 2.2 5.2.9 7-3.1 4.1-7.3 13.5-7.3 16.4 0 1.7 1.4 6.4 3.1 10.5 2.8 6.6 3.6 7.5 7 8.9l3.9 1.6v25h195v-5.6c0-3.8.5-6.1 1.6-7.2 1.5-1.4 1.6-3.4 1.1-15.4-.5-12.4-.3-14.8 1.9-23.8 1.3-5.6 2.4-11.4 2.4-13 0-1.7-4-11.1-9.3-21.7-11.9-24.3-19.9-41.9-23-51.3-1.4-4.1-3.9-10.9-5.6-15.2-3.6-8.9-3.8-13.3-1.1-21.3 1.1-3.2 2-6.3 2-6.8 0-.6-1.9-.7-4.7-.3-10.2 1.5-9.4 2-12-6.9-1.3-4.4-3-12.1-3.8-17.2-1.8-10.6-3.2-14.3-7.4-19.7-1.7-2.1-3.1-4.4-3.1-5 0-.7-.9-8.2-1.9-16.7-3.6-28.1-3.6-26.7.5-15.7 2 5.3 4.2 9.9 5.1 10.2 1 .4 1.3.1.8-1.3-1.7-5.6-8-39.3-7.4-39.7.5-.2 2.4-.5 4.4-.6 2.4-.1 4.1-.8 5.1-2.2 2.8-4 1.7-6.8-7.6-20.6-5.3-7.9-7.7-13-6.1-13 .3 0 2.2.5 4.1 1 1.9.6 5.7 1.1 8.4 1.1 5.6.2 8.1-1.9 7.1-5.9-.3-1.3-.1-2.2.6-2.2s.9-.9.5-2.5c-.4-1.4-.2-2.5.4-2.5 1.5 0 1.1-27.1-.3-28.9-.9-1.1-.9-1.5.1-1.8 1.5-.6 1.6-3.7.1-6.5-.8-1.5-.8-2.2.1-2.8s.7-1.1-.8-1.9C334.8.4 325.9 0 310.3 0c-19.9.1-24.3.3-26.8 1.7m-55.5 123c0 1.6-.5 3.5-1 4.3-.7 1.1-.9.3-.8-2.7.3-4.7 1.8-6 1.8-1.6m90.9 112.5c1.5 10.2 3.4 29.9 2.8 30.5-.6.5-3.1-10.3-4.6-19.7-1.3-7.9-1.4-18-.2-18 .4 0 1.3 3.3 2 7.2"/></svg>