<svg xmlns="http://www.w3.org/2000/svg" width="682.667" height="512" version="1.0" viewBox="0 0 512 384"><path d="M500 4.7c-6.3 2.4-12.4 4.7-13.5 4.9-1.1.3-6-.4-10.8-1.5-10.4-2.5-19.8-2.6-32.7-.6-20.7 3.4-37.6 9.4-49.4 17.9-8.5 6-18.9 17.3-21.7 23.5-3.7 8.3-9.3 11.7-24.6 15.2-9.5 2.1-10.7 2.2-17 .9-12.4-2.6-14.8-1.5-19.5 8.7-3.4 7.5-3.6 10.3-.8 10.3 2.4 0 2.4.1 4 9.8 1.8 10.8 3.5 12.5 14.1 13.2l8.4.5.1 4c.2 6.8.4 7.5 1.4 7.5.6 0 1-.8 1-1.8 0-3.3 1.8 1 2.5 6.1.4 2.7 1.5 5.7 2.5 6.7s2 2.4 2.3 3.1c.3.8.8-.1 1.3-2l.7-3.4 1.9 3.7c1.8 3.5 4.3 5.2 3.2 2.1-1-2.5 1-1.7 2.8 1.3 1 1.5 2.3 3.4 3 4.4 1.6 2.2 0 4.1-6.3 6.9-6.1 2.8-6.3 4.8-.9 9.6 3.5 3.1 4 4.2 4 7.8 0 2.7.7 5.1 2 6.8 1.1 1.4 1.7 3.2 1.4 4-.3.9.1 2.6.9 3.9.9 1.3 2.2 4.7 3.1 7.7.9 2.9 2.1 6 2.7 6.7.8 1 .8 2.2 0 4.5-1.6 4.6-1.5 4.7 2.7.7 2.8-2.7 4.7-3.7 7.7-3.9 4.4-.4 4.3-.8 3.1 7.8-.4 2.9-.4 5.3-.2 5.3.3 0 2.4-2.8 4.7-6.2 3.6-5.3 4.3-5.9 5-4.2.4 1 .8 2.7.8 3.6.1.9.6 2.9 1.1 4.3l1 2.7 2.9-3.4c1.6-1.8 3.8-4.4 4.9-5.7l1.9-2.5 1.8 2.7c1.1 1.7 2.1 6.1 2.7 11.8.9 8.9.8 9.1-1.8 12.1-1.9 2.4-2.4 3.9-2 6 .5 2.5.1 3-3.6 4.9s-4.7 2-9.8 1c-7.9-1.6-27.8-1.2-28.4.6-.7 1.8-2.6 1.7-2.6-.2 0-2-3-1.9-5.9.1-2.2 1.6-2.3 2.1-1.8 9.2l.6 7.4-4.2-.6c-2.3-.4-6-.8-8.2-1-2.2-.1-5.5-1-7.3-2l-3.3-1.7.7 6.4.6 6.3-8.8 1.9c-10 2-29.3 7.9-33.9 10.2-2.9 1.5-3 1.5-5.5-1.8-12.4-16.4-58.1-65.6-67-72.2-1.9-1.4-6.4-3.3-10-4.2s-8.5-3-11-4.6c-2.4-1.6-6.9-3.7-10-4.5-5.4-1.5-12.6-4-20.5-7.2-3-1.2-8.4-1.7-21.8-2-16.1-.3-18.4-.2-22.5 1.6-3 1.3-8.3 2.2-14.7 2.7-5.5.3-11.5 1.1-13.2 1.6-3.9 1.2-4.2 3.5-1.7 12 1.3 4.6 2.8 6.6 9.8 13.4 6.6 6.4 8.6 9 10 13.1 1.2 3.8 1.4 5.8.7 7.7-1.6 4.1.8 5.7 8.4 5.7 5.4 0 6.6.3 7.5 2 .8 1.4 2.1 2 4.5 2 2.8 0 3.5.4 3.5 2 0 1.3 1.4 2.7 4.3 4.2 3.6 1.9 6.2 2.3 17.8 2.6 12.2.4 14.1.2 18.4-1.7 2.6-1.2 5.1-2.1 5.4-2.1.9 0 19 20.8 35.6 41 16.7 20.1 23.9 27.2 35.5 34.5 16.9 10.6 18.9 10.9 57 7 13.5-1.4 25.4-2.5 26.5-2.5 1.9 0 2 .6 1.9 18.3 0 10-.4 24.2-.8 31.4l-.9 13.3h104.2l1.5-5.3c.8-2.8 2.9-10.4 4.6-16.7 1.8-6.3 3.5-11.9 3.9-12.3 1.2-1.2 29 1.4 35.2 3.3 8 2.4 15.9 8.1 22.6 16l5.8 6.9.3-23.6c.1-14.4-.1-24-.7-24.6-.7-.7-.7-1.7-.1-2.8s.9-61.9.8-163.3L511.5.2zM353.4 127l.7 2.5-1.5-2.5c-.9-1.4-1.5-3.2-1.5-4 0-1.3.1-1.3.8 0 .5.8 1.2 2.6 1.5 4m147.8 101.1c1.6.9 1.9.7 1.6-.8-.2-1.3.2-1.7 1.7-1.5 3.5.5 4.6 1.2 4 2.2-.3.5-1.4 6.7-2.5 13.8-2.5 16.9-9.7 50.6-12 55.7-.9 2.2-2.9 5.1-4.3 6.4l-2.6 2.4-5.8-4.4c-10.5-7.9-10.1-7.2-8.9-13.5 1.4-7.8-.5-21.3-5-36-5.3-17.3-5.2-16.4-1.5-13l3.1 3v-5.5c0-3 .3-7 .6-9.1l.6-3.6 3 1.8c1.7 1 4.2 3.8 5.6 6.2 2.9 5 5.2 7.8 6.3 7.8 1.2 0 2.3-4.1 2.3-9.5.1-4.6.3-5 2.4-4.8 1.9.2 2.2-.2 2.2-3.5v-3.7l3.6 4.3c2 2.3 4.5 4.7 5.6 5.3m8.8-5.6c0 2.5-1.7 2.5-2.9-.1-1.5-3.4-1.4-3.6.9-2.4 1.1.6 2 1.7 2 2.5"/></svg>