<svg xmlns="http://www.w3.org/2000/svg" width="682.667" height="512" version="1.0" viewBox="0 0 512 384"><path d="M414.4 3.6c-8.1 4.9-11.9 7.8-18.2 14.3-5.9 6.2-10.6 12.4-11.6 15.7-1.4 4.4-7.6 7.3-20.7 9.8-12.3 2.4-12.4 2.4-18.4.5-3.3-1-7.4-1.9-9-1.9-4.8 0-10 5-14.1 13.7l-3.7 7.6 2.6 1.9c2.3 1.6 2.7 2.8 3.3 9.9 1.1 13.1 3.2 15 17.8 16.5l5.8.6-.5 3.4c-.5 2.6-.2 3.6 1.3 4.4 1.1.6 2.3 3.1 3 6.2.7 2.9 1.8 5.7 2.4 6.3.7.5 1.5 1.7 1.9 2.5q.6 1.8.6-.3c.1-2.4 2.1-2.1 2.1.4 0 1.1.5 1.7 1 1.4.6-.3 1-1.7 1-3.1 0-1.3.5-2.4 1-2.4.6 0 1 .8 1 1.8s1.6 4.1 3.5 6.8 3.5 5.5 3.5 6.2-1.9 2.1-4.2 3.1c-2.4 1.1-5.1 2.9-6.1 4.1-1.9 2.2-1.8 2.3 2.2 6.4 3.4 3.5 4.1 4.9 4.3 8.6.1 3 .8 5.1 2.2 6.5 1.2 1.2 2.2 3.5 2.2 5.5.2 4.8 3.6 15.7 5.6 17.6 1.4 1.4 1.4 2 .2 5-1.9 4.6.1 4.6 4.6-.1 2.6-2.6 4.2-3.5 6.8-3.5 3.1 0 3.3.2 2.8 2.7-.4 1.6-.8 4.4-1.1 6.4-.6 5 1.8 4.7 5.7-.7 3.2-4.5 4.8-4.8 4.8-1.1 0 2.7 1.9 6.2 2 3.7.1-1.2.3-1.2 1.4.3 1.2 1.6 1.4 1.5 2.6-1.3.7-1.6 1.6-2.8 2-2.5.4.2 1.5-.4 2.5-1.5s2.2-2 2.6-2c1.3 0 3.1 6.9 3.9 15.3.7 7.8.6 8.3-1.8 10.9-1.7 1.9-2.3 3.4-2 5.2.9 4.3-1.1 5-10.5 3.4-10.6-1.8-17.3-1.6-21.6.5-1.9.9-4.4 1.7-5.6 1.7-1.1 0-2.7.6-3.4 1.2-1.1 1-1.4 1-1.8 0-.8-2-4.4-1.4-8 1.4-2.9 2.2-3.3 3.1-3.3 7 0 4.2-.1 4.4-2.5 3.8-1.8-.4-2.7-.1-3.1 1.1-.4.9-1.3 1.4-2.2 1-.8-.3-1.8-.1-2.2.5-.5.8-1.8.7-4.5-.4-4.7-2-5.9-2-5.1-.1.3.8 0 1.4-.7 1.2-.8-.1-1.2 1.4-1.2 4.7v4.9l-13 3.3c-7.1 1.7-15.7 4.2-19 5.4-13.4 5-13 5-17.2 0-6.7-7.9-28.4-28.9-46.7-45.4-23.5-21.2-26.3-23.4-31.7-25-2.6-.8-6.8-3-9.5-4.9-7.4-5.3-12.5-7.5-21.9-9.7-4.7-1.1-9.6-2.6-10.8-3.4-3.8-2.5-13.7-4.5-28.9-5.7-15-1.3-22.8-.6-26.9 2.5-2.5 1.7-3.2 5.1-1.4 6.6 2.2 1.8 1.8 2.9-1.2 3.6-1.6.3-4.8 1.2-7.3 2s-6.4 1.9-8.7 2.4c-4.9 1.2-5.3 2.5-2.9 10.4 2 6.5 5.5 11.2 12 16.5 6.5 5.1 10.1 12.7 9 18.7-1 5.7.4 6.4 12.3 6.4 7.1 0 10.2.3 9.8 1.1-1.1 1.7 2.3 4.6 7 5.9 3 .8 9 1.1 18.2.8 12.5-.4 14.3-.7 19.1-3.2 2.9-1.5 5.8-2.4 6.3-2 .6.4 7.9 7.7 16.2 16.3 35.2 36.4 45.8 46.4 54.6 51.5 4.6 2.7 11.6 6.3 15.5 8 6.4 2.7 8.1 3 16.6 2.8 5.2-.1 20.3-1.2 33.5-2.6 13.2-1.3 24.2-2.2 24.4-2 .7.7.1 33.8-.9 52.4-.6 9.1-1 18.4-1 20.7v4.3h53.4c50.1 0 53.5-.1 54-1.8.3-.9 2.1-8.5 4.1-16.7 2-8.3 4.6-18.3 5.7-22.3l2.2-7.3 17 .6c17.9.7 22.2 1.5 23.1 4.5.8 2.5 7.4 8.2 8.6 7.5.5-.4.9-14.7.9-35.3-.1-30.2-.3-34.2-1.4-31-.8 2.1-2.1 4.9-3 6.4l-1.7 2.5-3.7-2.1c-11.4-6.7-15.1-9.6-14.6-11 .4-.8.9-4.4 1.1-8 .7-8.2-1.7-20.5-6.2-33.1-1.9-5.1-3.1-9.7-2.8-10.2s.9-.4 1.3.3 1-1.1 1.4-4.2c1-7.8 1.7-8.4 5.4-5.3 1.8 1.5 3.2 3.2 3.2 3.9 0 2.2 3.3 4.3 6.5 4.2s4.1-2.1 4.4-9.8c.1-2.7.5-3.6 1.4-3.2.8.3 2-.2 2.7-1.1 1.2-1.4 1.5-1.3 3.7.6l2.3 2.2V0h-91.6z"/></svg>