<svg xmlns="http://www.w3.org/2000/svg" width="682.667" height="512" version="1.0" viewBox="0 0 512 384"><path d="M407.4 8.2c-4.4 4.6-8.7 9.9-9.6 11.8-3.5 7.5-6.8 9.2-21.9 11.5-11 1.7-12 1.7-17.6.2-7-2-11-2.1-14-.4-3.5 2-8.8 8.7-11.8 15.2-1.5 3.3-3 6.3-3.2 6.7-.2.5.7 1.3 2 1.9 2.2 1 2.5 2 3.4 10.6 1.5 14 2.9 15.4 17.6 16.9 6.3.6 7.9 2.2 5.8 5.5-.9 1.5-.8 1.9.4 1.9 2 0 4.2 3.7 5 8.5.8 5.4 2 7.4 3.6 5.8s3.9-.5 4 2.1c0 2.1 0 2.1 1.1-.2.6-1.2 1.4-2.2 1.8-2.2 1.1 0 2.1 3 1.4 4.1-.3.5 0 .9.6.9s1.3.8 1.7 1.7c.3 1 1.3 2.6 2.1 3.5 1.4 1.6 1.3 2-.3 3.8-1 1.1-2.3 2-3 2s-2.6 1.3-4.3 3l-3.1 3 4.4 4.7c4.1 4.4 4.4 5.1 3.9 8.8-.5 3.4-.2 4.4 2 6.4 1.8 1.7 2.4 3.1 2 4.6-.3 1.3.1 3.6.9 5.1.8 1.6 1.8 4.8 2.2 7.1s1.5 5.3 2.5 6.6c1.9 2.3 1.9 2.5-.1 6.1-1.9 3.6-1.9 3.7-.1 2.7 1.1-.6 2.1-.8 2.4-.6.2.3 2-1.1 3.8-3 2.2-2.3 4.3-3.5 6-3.5 3.6 0 3.9.6 3 4.3-.4 1.8-1.1 4.5-1.5 6.2l-.6 2.9 2.2-1.9 2.2-2-.8 2.3c-.5 1.8.3 1.3 3.3-1.9l4-4.3.7 3.4.7 3.4 1.3-2.5 1.3-2.4.7 2.8c.7 2.5 2.5 3.9 2.5 1.8 0-.5.5-2.2 1.1-3.8.8-2.2 1.2-2.4 2-1.3.8 1.3 1.1 1.2 2.4-.4.7-1 1.8-1.5 2.4-1.2 1.6 1 3 7.4 3.6 15.6.4 6.9.3 7.6-2 10.1-1.9 1.9-2.5 3.5-2.3 6 .3 3.9.5 3.9-10.4 2-9.2-1.6-17.4-.9-22.1 1.9-2 1.2-4.6 2-5.7 1.7s-2.4.1-3 .9c-.9 1-1.6 1-2.9.2-3.9-2.4-12.1 2.8-12.1 7.7 0 3.2-3.6 6.8-6.1 6.2-1.2-.3-1.9 0-1.9.9 0 1.7-1.4 1.7-6.5-.1-2.2-.8-4.1-1.5-4.2-1.5-.2 0-.3.9-.3 2s-.7 2-1.5 2c-1.1 0-1.5 1.2-1.5 4.5 0 4.9.3 4.7-12.5 7.5-2.7.6-11.3 3.2-18.9 5.8l-13.9 4.6-7.1-7.6c-8-8.5-20.8-20.2-46.5-42.3-21.8-18.7-27.4-23-32-24.4-2-.6-6.1-2.9-9.1-5.2-6.9-5.2-11.7-7.3-22.5-9.8-4.7-1.2-10.2-2.9-12.3-4-4.6-2.3-15-4.6-31.1-6.7-18.8-2.5-29.1-.5-29.1 5.4 0 3.6 1.6 5.2 5.5 5.3h3l-2.5 1.1c-1.4.5-6.4 1.8-11.2 2.8s-9.2 2.1-9.9 2.5c-.7.5-.9 2.3-.6 5 .6 3.8.4 4.3-1.9 5.4-2.2 1-2.5 1.5-1.9 4.4 2 9.2 4.6 13.6 12 20.4 8.5 7.9 12 14.4 11 20.3-1.2 7.1-1.6 7 32 7.3l30 .2 6-3.2 5.9-3.3 3.6 3.2c1.9 1.8 14.5 14.2 28 27.5 31.8 31.4 38.2 36.5 56 44.3 12.4 5.5 14.5 5.6 43 2.6 14-1.4 27.9-2.9 30.8-3.2l5.2-.7-.5 11.4c-.2 6.3-.7 21.7-1 34.4-.3 12.6-.8 26-1.2 29.7l-.6 6.8h112l1.3-6.2c1.5-8.1 7.5-33.4 9.5-40.2l1.5-5.2 13.8-1.2c7.5-.7 15.4-1.2 17.5-1.2h3.7v-52.6l-4-2.3c-3.6-2-3.8-2.4-3-4.7 2.6-6.7-.7-26.2-6.9-41.3-1.7-4.1-3.1-8.3-3.1-9.4 0-2 0-2.1 1.5-.1 1.3 1.8 1.4 1.6 1.5-2.4 0-6.1 1.5-8.6 4.1-7.1 1.2.6 2.7 2.6 3.5 4.5 1.6 3.8 3.3 4.4 4.1 1.4.3-1.1.9-1.7 1.4-1.4s.9-44.8.9-107V0h-96.7zM125.3 164.7c-.7.2-1.9.2-2.5 0-.7-.3-.2-.5 1.2-.5s1.9.2 1.3.5"/></svg>