<svg xmlns="http://www.w3.org/2000/svg" width="682.667" height="512" version="1.0" viewBox="0 0 512 384"><path d="M508 .5c0 1 3 6.5 3.5 6.5.3 0 .5-1.6.5-3.5 0-2.8-.4-3.5-2-3.5-1.1 0-2 .2-2 .5m2 14.4c0 1.1.5 2.3 1 2.6.6.4 1-.5 1-1.9s-.4-2.6-1-2.6c-.5 0-1 .9-1 1.9m-337.4 38c-1.4 1.5-1.7 3-1.3 5.6.3 1.9.2 3.5-.4 3.5-.5 0-.9.6-.9 1.4s-.5 1.6-1.1 1.8c-3.4 1.1 3.9 6.3 14.5 10.1l3.9 1.4-6.7 1.7c-6.7 1.7-17.1 3.1-49.1 6.6-19.9 2.2-24 3.1-27.9 6.1-2.2 1.8-2.5 2.6-2.3 6.9.2 2.9-.1 5.1-.7 5.4-.7.3-.3 1.1.8 2 2 1.6 1.9 1.6-.2 3.6-2.3 2.2-2.8 4.5-1.2 5.5.6.4.6 1.5-.1 3.2-.6 1.7-.6 3 .1 3.9 1.1 1.2 2.3 1.6 10.3 2.9 3.5.6 3.7.8 3.7 4.5 0 2.1-.4 4.2-1 4.5-1.7 1.1 1.3 4.4 5.5 6.1 2.2.9 7.7 1.9 12.3 2.2l8.2.5v4.3c0 2.3-.5 4.4-1.2 4.6-2 .7.2 2.8 5.5 5.3 3.9 1.7 7.9 2.5 15.9 3l10.6.8-2.5 6.1c-1.4 3.3-2.9 6.8-3.3 7.7-1 1.9.6 3.9 2.9 3.9.9 0 4.3 1.4 7.5 3 3.2 1.7 6.7 3 7.7 3 1.1 0 1.9.6 1.9 1.4 0 1.9 8.2 5.6 13.9 6.3 2.5.2 11.9 0 20.9-.5l16.2-1.1 10.3-5.3c5.6-3 12.8-7.1 15.9-9.1l5.7-3.8 4.9 2.5c2.8 1.4 7.2 4 9.8 5.8 2.7 1.8 8.5 5.5 13 8.3 11.1 6.8 15.9 10 22.7 15.1 3.1 2.4 5.9 4.4 6.2 4.4s4.2 2.7 8.7 6c4.6 3.2 9.7 6.8 11.3 8 1.7 1.1 5.7 4 9 6.3 21.7 15.6 32.3 21.6 49.5 28.2 20.3 7.9 29.4 8.2 62.9 2.1 10.7-2 19.7-3.4 19.9-3.1.6.6-1.7 109.3-2.5 120.2l-.6 8.3H512V137.9l-2.2 1.2c-1.3.7-4 2.7-6.1 4.5-2 1.9-4.1 3.4-4.6 3.4-2 0-5.2 6.1-5.8 11l-.6 5-5.1-.6c-2.8-.4-6-1.1-7.1-1.7s-2.8-1-3.8-.8c-1 .1-2.5-.3-3.2-.9-1.2-1-1.7-.4-2.7 3.3-.6 2.5-1.5 4.4-2 4.1-.4-.3-.8.2-.8 1.1 0 1.2-.6 1.5-2 1-1.8-.6-2-.2-2 3.8v4.4l-7.2 2.2c-4 1.3-10.8 3.4-15.1 4.7-6.5 2.1-8.2 2.3-9.5 1.2-1-.7-4.2-3.3-7.2-5.8-8-6.7-20.5-15.5-37-26-17.1-11-77.2-48.5-81.5-51-1.6-.9-5.5-3.3-8.5-5.2-11.1-7.1-15.6-9-29.9-12.9-8-2.2-18-5.6-22.1-7.4-4.1-1.9-10.9-4.3-15-5.4-10.7-2.8-14.5-4.3-26.1-10-10.6-5.1-20.6-8.7-26.9-9.7-2.8-.5-3.9-.1-5.4 1.5m7.5 181.2c-23.5.9-45.9 3.4-48 5.4-1.2 1.2-1.1 2.7.7 10.4 3.5 14.7 6.5 19.6 17.9 28.3 7.5 5.7 9.4 8.5 9.8 14 .2 2.4.6 5 .9 5.8s.7 3.5.8 6c.3 3.9.7 4.7 3.3 6 6.6 3.2 36 2.2 45-1.6 4.6-1.9 5.7-4.1 4.3-9-.8-2.9-.7-5.2.2-8.9 1.9-7.6 3.2-9.6 12.3-18.7 9.2-9.2 11.4-13.7 12.4-25.3.5-5.7.4-6.1-2-7.4-1.4-.7-2.7-2.1-3-3.1-.8-3-13.4-3.5-54.6-1.9"/></svg>