<svg xmlns="http://www.w3.org/2000/svg" width="682.667" height="512" version="1.0" viewBox="0 0 512 384"><path d="M196.3 1.2c.2.7-.3 1.8-1.2 2.5-1.4 1-1.3 1.5 1.4 4.3 1.7 1.8 4.1 3.7 5.5 4.3 2.4 1 2.4 1-1.5 1.8-5 1-20.2 2.5-45.5 4.3-21.4 1.6-27.1 2.6-33.1 5.6-3.2 1.7-3.9 2.6-3.9 4.9 0 2 .9 3.6 2.7 5.1 2.7 2.1 2.7 2.1.5 2.7-2.7.7-2.7 1.2-.4 2.9 1.6 1.3 1.6 1.4-.5 2-2.5.7-3 2-1.2 2.6.7.2-.3 1.8-2 3.6-3.5 3.5-3.2 5.6 1.1 8.6 2 1.4 1.8 2.1-.4 1.7-1.3-.2-.9 2.7.5 3.3.8.3.7.8-.6 1.6-2.8 1.8-1.2 2.7 6.3 4 7.4 1.2 7.5 1.4 7.3 7.7-.1.7.6 1.3 1.4 1.3 1.2 0 1.3.3.4 1.3-.6.8-.8 1.7-.4 2 .3.4 0 1.3-.6 2.1-.7.8-1 2-.6 2.5 1 1.7 13.3 4.9 20.5 5.5 3.6.3 6.6.5 6.8.5.1.1.2 1.5.2 3.2 0 1.9.7 3.7 1.8 4.5 1.6 1.3 1.6 1.3-.2 1.4-1.5 0-1.6.3-.7 1.4 1 1.1.8 1.7-.6 2.5-1.5.9-1.6 1.2-.3 2 4 2.7 15.3 5 27 5.6 6.9.3 15.9 1.4 20 2.4l7.5 1.7-8.5 2.8c-13.2 4.3-18.6 8-17.5 11.7.4 1.2-.3 2.4-2 3.5-2.2 1.4-2.5 2.2-2.1 5.5.2 2.2 0 3.9-.5 3.9-.6 0-.7.4-.4 1 .3.5 1.3 1 2.2 1s4.3 1.3 7.7 2.9c3.4 1.5 7.3 3.1 8.9 3.5 1.5.3 2.7 1.3 2.7 2.2s2.4 2.6 5.8 4.2c6.9 3.2 14.1 3.7 35.2 2.5 16.7-1 18.5-1.7 38.3-13.5l11.7-7 12.3 6.8c19 10.6 30.5 17.6 53.7 32.9 38.3 25.3 41.6 26.9 68.5 35 4 1.2 9.9 1.9 17.5 2 8.4.2 12.6.7 15.5 2 2.1.9 8.3 3 13.7 4.6 10 3 20.4 3.7 31.2 2.3l4.6-.7V139l-2.9.6c-2.5.5-4.6-.7-15.9-9.2-15.3-11.6-46.9-30.9-81.2-49.6-17.4-9.5-49.9-27.4-62-34.1-21.6-12-30.6-16.2-40.5-19.2-15-4.4-20.6-6.5-30.3-11.1-5.1-2.4-13-5.3-17.5-6.4s-11.8-3.8-16.4-6l-8.2-4h-20.6c-16.1 0-20.6.3-20.2 1.2M195 275.1c-27 1.5-48.7 5.6-52.3 9.7-1.1 1.3-1.2 3.4-.7 9.7 1.4 15.1 7.1 26.2 16.8 33.1 12.9 9.2 15.5 13.6 15.6 26.9.1 3.8.5 7.6 1 8.4 1.9 2.9 10 5.4 19.3 5.9 15.8.8 33.1-3.1 37.3-8.5 2.4-3 2.5-5.4.5-9.2-1.3-2.6-1.2-3.5 1.5-11.2 1.7-5.1 3.7-9.1 5.2-10.2 7.2-5.8 14.3-13.6 16.4-18.1 5.2-11.5 6.7-22.6 3.5-26.7-1-1.3-2.1-3.4-2.5-4.5-.5-1.6-2-2.4-6.4-3.3-16.2-3.2-27.8-3.6-55.2-2"/></svg>