<svg xmlns="http://www.w3.org/2000/svg" width="682.667" height="512" version="1.0" viewBox="0 0 512 384"><path d="M146.8 1.2c-3.4 1.2-3.6 2.4-.6 3.4l2.1.6-2.4 1.9c-1.3.9-2.2 1.9-1.9 2.1 4.5 2.9 17.7 5.8 26.8 5.8 5.4 0 5.5.1 3.4 1.6-1.2.8-2.2 2.6-2.2 4 0 2.5 3.1 6.4 5.3 6.4.6.1.2.9-1.1 2l-2.2 1.9 2.1.6 2.2.7-2.4 1.9c-1.9 1.4-2.1 1.9-.9 2.2.8.3 3.1 1.1 5 1.8 1.9.6 11.2 1.5 20.5 1.9 16 .7 20.3 1.3 38 5.7 3.3.8 10.7 1.8 16.5 2 15.4.8 16.6 2.5 6.1 9.1-15.3 9.5-31.3 16.1-53.9 22.1-5.4 1.5-11.5 6.7-10.9 9.3.4 1.3-.3 2.3-2.4 3.3-3.2 1.7-3.7 3.6-1.3 5.9 1.1 1.1 1.2 1.6.3 1.6-1 0-1 .3-.2 1.1.6.6.9 1.7.6 2.5s.8 1.5 3.3 2c2.1.4 6.4 2 9.5 3.5 3.2 1.6 6.2 2.9 6.8 2.9s1.5.9 2.2 2.1c.6 1.1 3.6 3.3 6.7 4.7 5.5 2.6 6.3 2.7 27.5 3l21.7.3 12.4-6.1c10.9-5.4 24-13 27.2-15.9.6-.5 1.5-.6 2-.1.5.4 8.4 4.6 17.6 9.4 9.2 4.7 20.3 10.7 24.5 13.2 4.3 2.6 9.2 5.4 10.8 6.4 1.7.9 9.3 5.6 17 10.3 29.8 18.3 39.9 24.1 47.6 27.4 4.4 1.9 8.6 3.6 9.2 3.7.7.2 1.9.6 2.7.9s7.3 2 14.5 3.8c11.6 2.9 13.9 3.1 22.7 2.6 9.4-.6 16.7-1.7 27.3-4.2l5-1.1.3-67.2.2-67.1-18.2-9.2c-10.1-5.1-27.2-13.4-38.2-18.6L435.7 0 292.6.1c-93.1 0-144.1.4-145.8 1.1M189 313.5c-14.2 1.5-33.7 5.8-39.9 8.8-5.1 2.5-9.1 8.2-9.1 13.2 0 4.7 2.8 15.1 5.5 20.9 2.9 6.1 9.6 13.2 17.6 18.7 3.1 2.1 6.6 5 7.7 6.4l2 2.5h67.9l1.7-4.3c1.1-2.9 3.2-5.5 6.5-8 14.2-10.9 21.1-24.3 21.1-41.3 0-8.7-1.7-11.4-8.7-13.9-12.4-4.3-47.4-5.7-72.3-3"/></svg>