<svg xmlns="http://www.w3.org/2000/svg" width="682.667" height="512" version="1.0" viewBox="0 0 512 384"><path d="M268 3.2c-8.5 5.6-27.5 14.5-38.7 18.2-6.2 2-11.9 3.6-12.7 3.6-5.9 0-15.9 5.9-16.8 10-.2.8-1.5 2-3 2.7-3.3 1.4-3.5 3.3-.7 5.9 1.1 1 1.8 2.6 1.6 3.5-.3.9-.1 2.3.4 3 .5.8.3 1.6-.3 2-.7.4 1.5 1.5 4.8 2.4 8.5 2.3 13.4 4.6 14.5 6.7.6 1 3.8 3.2 7.2 4.9 6 3 6.9 3.1 25.2 4 13 .7 20.6.6 24-.1 6-1.3 24.3-10.3 34.5-17.1 4.1-2.7 8.1-5.2 8.8-5.5 1.7-.8 58.8 27.6 62.9 31.3.7.6 2.3 1.5 3.6 1.9 1.2.4 2.4 1 2.7 1.4.3.3 7.5 4.6 16 9.5 39 22.2 42.5 23.7 65.7 28.9 16.8 3.8 20.7 4.1 33.2 2.1l11.1-1.8V0h-44.1c-36.2 0-43.8.2-42.7 1.3.7.7 9.1 5.8 18.6 11.3 9.5 5.4 20 11.5 23.5 13.5 24.8 14.3 30.7 17.7 34.8 19.7 7.6 3.6 7.7 4.5 1.2 7.2l-5.7 2.4-7.5-4.1c-4.2-2.2-13-7.1-19.6-10.8-6.6-3.8-23.5-12.3-37.5-19-14-6.8-29.7-14.3-34.9-16.9L388.6 0l-58 .1-58.1.1zM190.4 329c-31.7 3.1-55.2 10.3-57 17.6-1.7 6.8 2.9 25 8.4 32.9l2.8 4 56.6.3 56.6.2 3.5-4c4.9-5.4 8-11.9 10.6-21.9 4.8-19.1 2.4-22.9-17.2-27.2-7.3-1.6-13.9-2.1-32.2-2.4-12.6-.2-27.1 0-32.1.5"/></svg>