<svg xmlns="http://www.w3.org/2000/svg" width="682.667" height="512" version="1.0" viewBox="0 0 512 384"><path d="m273.5 263.5-3.7 2.6-27.7-.7c-27.9-.6-71.3.7-84.5 2.6-10.6 1.6-12 2.6-12.4 8.5-.2 2.7-.7 5.4-1.2 6.1-2.2 2.6 3.5 23.8 8.2 30.7 3.2 4.7 7.7 9.7 11.8 13 1.9 1.6 6 5.3 9.2 8.3 5.2 5.1 5.9 6.3 8.9 15.6 3.1 9.8 3.2 10.4 2.1 18.2-1.2 9.5-.6 11.1 4.6 12.6 14 4.1 62.8 3.3 72-1.3 1.7-.8 3.1-3 4.5-6.9 2-5.5 2-6 .4-11-1.6-5.1-1.5-5.5.7-12.3 3.5-10.5 4.9-12.8 12.8-19.7 3.9-3.5 8.9-8.1 11.1-10.3 7.6-7.8 15.7-29.6 15.7-42.3 0-7.1-.7-7.8-9.6-9.2-3.9-.7-6.6-1.8-9-4-4.4-3.8-8.7-3.9-13.9-.5"/></svg>