<svg xmlns="http://www.w3.org/2000/svg" width="682.667" height="512" version="1.0" viewBox="0 0 512 384"><path d="M285.5 234.2c-1.1.6-2.9 1.9-4 2.9-1.9 1.7-3.1 1.8-17.5.8-17.9-1.3-73.3-.6-85.5 1.1-13.3 1.8-22.5 4.1-25.1 6.4-3.3 2.8-4.9 13.2-3.3 22 2.6 15.1 6.5 23.2 15 31.2 3 2.8 8.4 7.9 12.2 11.4 3.7 3.5 6.7 7.1 6.7 8s.4 2 .9 2.5c1.7 1.7 4.5 12.8 4.5 18 .1 2.7-.3 7.3-.7 10.2-.7 5-.6 5.3 2 7 2.5 1.6 5.8 1.8 37.8 1.8 38.1 0 40.6-.3 41.3-5.4.2-1.4 1-3.4 1.8-4.6 1.2-1.9 1.2-2.9-.2-7.6-1.4-4.6-1.5-6.1-.4-10.4 2.3-8.9 5.8-15.4 10.7-19.8 15.2-13.6 19.1-17.9 22.1-24.5 3.9-8.6 7.2-20.7 7.9-29.8.5-6.8.5-7.1-2.2-9.2-1.5-1.2-3.4-2.2-4.1-2.2s-2.3-1.5-3.5-3.3c-4.9-7.1-11-9.5-16.4-6.5"/></svg>