<svg xmlns="http://www.w3.org/2000/svg" width="682.667" height="512" version="1.0" viewBox="0 0 512 384"><path d="M213 132c-12.9 2-26.3 5.9-31.5 9-4.2 2.6-9.2 8-10.4 11.3-1.8 4.7-1.3 20.5.8 28.9 3.5 13.5 8.7 21 22.8 32.9 5.2 4.4 7.6 8.6 9.8 17.1 1.5 5.6 1.6 7.4.6 11-1.2 4.2-1 12.5.3 14.6s11.3 5 23.5 6.7c13.4 1.9 37.2 1.6 46.1-.5 5.4-1.3 9-4.4 9.1-7.9 0-1.4.4-3.4.8-4.5.4-1 .3-4-.3-6.6-.8-4-.6-5.7 1.4-11.1 3.2-8.7 5-11.1 13.3-17.3 13.5-10 17.2-14.8 22.2-27.9 1.4-3.7 3.6-8.4 5-10.5 5-7.6 9.2-24.2 8-32-.7-4.9-4.9-10.3-9.5-12.2-4-1.6-10.3.6-14.9 5.4l-3.2 3.3-8.2-2.9c-21.4-7.6-60.6-10.7-85.7-6.8m111.2 16.6c1 1.7 1.6 3.8 1.3 4.7-.5 1.1-1.5.5-4.5-2.6-2.6-2.9-3.5-4.4-2.7-4.9 2.1-1.4 4-.4 5.9 2.8"/></svg>