<svg xmlns="http://www.w3.org/2000/svg" width="682.667" height="512" version="1.0" viewBox="0 0 512 384"><path d="M211.5 111.5c-17.5 3.3-30.7 9.2-35.3 15.9-2.3 3.4-4.2 12-4.2 19.1 0 2.2 1.1 8.5 2.5 14 3.7 14.7 8.6 22.1 22.1 33.3 3.7 3 5.8 5.7 7.3 9.4q4.65 11.85 3 16.8c-.6 1.5-.9 5.6-.7 9.1l.3 6.4 5.1 2.7c2.8 1.5 8.7 3.5 13 4.4 10.9 2.1 36.2 3 44.9 1.5 7.5-1.3 13.9-4.2 14.8-6.5 1.3-3.2 1.7-11.2.9-14.1-.7-2.3-.3-4.5 1.4-9 3.9-10.4 4.6-11.4 12.8-17.4 13.4-9.9 18-15.2 22.5-26.1 1.3-3 3.4-6.6 4.6-8 7.1-7.6 12.7-22.1 12.9-33.4 0-6.2-3-11.8-7.6-14.2-5.3-2.8-12.7-.4-19.6 6.3-1.1 1-2 1-5-.3-6.7-2.9-18.5-6.5-28.2-8.6-12.9-2.7-55.3-3.5-67.5-1.3m117 16.5c2.2 2.5 2.2 10.9-.1 14.9l-1.4 2.6.2-3c.2-3.3-1.2-6.5-4.9-10.9-2.4-2.8-2.4-3.1-.7-4.3 2.5-1.8 4.8-1.6 6.9.7"/></svg>