<svg xmlns="http://www.w3.org/2000/svg" width="682.667" height="512" version="1.0" viewBox="0 0 512 384"><path d="M283.1 2.9c-1.7 1.6-3.1 3.6-3.1 4.5 0 1.5-.2 1.5-3.2 0-5.4-2.8-18.7-.1-24.1 4.9-2.5 2.4-3.2 2.6-3.9 1.3-2.6-4.7-7.1-6.3-19.3-7.2-9.3-.7-20.6 1.5-34.4 6.9-6.4 2.4-8.6 3.8-9.3 5.7-.6 1.4-1.4 3.2-1.8 4.1-.9 1.8-.2 6.9 1 6.9.4 0 1.7 1.7 2.7 3.7 1.1 2.1 5 9.6 8.7 16.8 8.1 15.7 10.7 18.7 15.5 18.3l3.5-.3-.3 5.9c-.3 5.9 3 16.6 5.1 16.6.5 0 .7.4.4.9-.4.5-.1 1.1.5 1.3.7.2 1.4 3 1.7 6.3.4 4.4.1 6.1-1 6.9s-1.7 4.2-2.2 12.6c-.4 6.3-.9 13.4-1.3 15.7-.4 3.3-.2 4.3.9 4.3 1 0 1.7 2.2 2.5 7.6 1 7.1 1 7.8-1.3 11.8-1.3 2.3-2.8 6.6-3.4 9.6-1.2 5.7-2.9 9.8-6.8 16.2-1.2 2.1-2 3.8-1.7 3.8.4 0-1.4 2.5-3.9 5.6-2.7 3.3-4.6 6.6-4.6 8s-1.3 5.2-2.9 8.5c-1.7 3.2-2.8 5.9-2.6 5.9s-.7 2-2.1 4.6c-1.3 2.5-2.4 5.4-2.4 6.4s-.4 2.1-.8 2.4-1.4 2.8-2.2 5.5c-.7 2.8-1.7 5.1-2.1 5.1s-2.1 4.6-3.8 10.2c-1.8 5.7-3.8 12.4-4.7 14.9-.8 2.5-1.4 5-1.3 5.5s-.5 2.6-1.4 4.6c-1 2.1-1.7 4.4-1.7 5.2 0 .9-.7 3.3-1.5 5.3-.8 2.1-1.6 5.1-1.8 6.8-.2 1.6-.8 3.9-1.5 5.1-.6 1.1-1.3 3.4-1.6 5s-.8 4.1-1.2 5.6c-.3 1.6-.1 2.8.5 2.8.5 0 1.1 1.1 1.3 2.6l.3 2.5 3.3-2.5c3.9-2.9 5.6-2.6 7.2 1.4.7 1.6 1.8 3.1 2.6 3.4 1.2.5 1.1 1.2-.6 4.5-1.1 2.2-2 5.9-2 8.1 0 3.6.7 4.8 5.1 9.5 3.2 3.4 6.6 5.9 9.2 6.8 4.6 1.5 4.1.3 7.2 17.2.9 4.9 2.4 11.4 3.2 14.3l1.7 5.2h93.3c88.2 0 93.3-.1 93.2-1.8 0-.9-.6-5-1.3-9-1.1-6-1.1-7.4 0-8.3 1.9-1.6 1.8-13.3-.1-23.4-1.9-9.5-1.4-13 2.7-21.2l3.2-6.2-6.7-13.8c-13.7-28.5-23-50.2-26.3-61-1.9-6.2-4.3-13.5-5.4-16.3-2.6-6.7-2.5-11.3.5-18.9 1.3-3.5 2.2-6.8 1.8-7.3-.5-1-4.2-.7-10.9.7l-3 .7-2.2-9.4c-1.2-5.1-2.6-12.7-3.2-16.8-1.4-9.9-2.7-14-5.6-17-1.3-1.4-3.5-6.4-5-11.5-3.8-12.8-4-15-1-9.3 3.7 6.7 4.8 6.8 2.5.1-3.2-9.3-7-23.5-6.5-24 .3-.3 1.5 1.5 2.8 4.1 1.2 2.5 2.6 4.6 3 4.6 1 0 1-.3-.2-3.5-.6-1.5-2.2-8.3-3.5-15.1-1.4-6.8-2.8-13-3.1-13.7-.6-1.8 1.8-2.8 7-3.2 2.7-.2 4.6-1 5.8-2.5 3.3-4.1 2.5-6.5-6.9-19.8-2.9-4.1-5.3-8.4-5.3-9.7 0-2.1.2-2.2 5.7-1.3 6.6 1 11.8.7 11.8-.7 0-.6.4-1.6.9-2.4s.4-1.6-.5-2.2c-1.1-.6-1-.9.4-1.5 1-.3 1.7-1.4 1.6-2.3-.2-.9.3-3.4.9-5.5.8-2.7.8-4.4.1-5.2-.7-.9-.6-1.9.3-3.3 1-1.6 1-2.8.1-5-.6-1.8-.7-3.3-.1-3.9.5-.5.5-2.5 0-5-.6-2.6-.6-4.4 0-5s.8-2.6.4-4.6l-.7-3.6h-57.7zm-49.5 132.7-1.5 2.9-.1-3.6c0-2 .3-5.8.7-8.5l.7-4.9.9 5.6c.7 4.5.6 6.3-.7 8.5m-2.2 6.1c.4.9 0 2.3-.9 3.2-1.3 1.4-1.5 1.2-1.5-1.7 0-3.4 1.4-4.3 2.4-1.5m90.2 3.1c-1.2 1.1-3.6-.9-3.6-3l.1-2.3 2 2.4c1.1 1.3 1.7 2.6 1.5 2.9m5.9 3.2c.3.5.1 1-.4 1-.6 0-1.1-.5-1.1-1 0-.6.2-1 .4-1 .3 0 .8.4 1.1 1m-6.1 75.2c.3 1.3 1.7 14.7 3.1 29.8s3 30.2 3.5 33.5c1.3 7.8 1.3 8-.6 6.5-2.6-2.3-3.7-5-2.4-6.5.8-1 .7-2.1-.5-4.5-.9-1.7-1.3-3.5-1-4s-.1-4.5-1-8.7c-4.4-21.1-5.7-36.2-3.9-45.2.8-3.6 1.9-4 2.8-.9"/></svg>