<svg xmlns="http://www.w3.org/2000/svg" width="682.667" height="512" version="1.0" viewBox="0 0 512 384"><path d="M214 93c-21.2 3.7-34.1 10.4-37.6 19.5-1.4 3.7-1.6 6.8-1.2 17.2.6 14.3 2.9 22.2 9 31.1 3.1 4.5 4.7 6.2 14.8 15.7 5.1 4.9 6.6 7.6 8.5 16 1.4 5.9 1.4 6.8 0 9.6-2.5 4.7-1.1 13.2 2.6 16.3 11.7 9.9 64.6 11.9 73.1 2.9 2.1-2.2 2.3-3.5 2.4-12.1 0-8.6.4-10.4 3.1-16.3 2.7-5.8 3.9-7.2 11.4-12.7 4.6-3.4 9.8-7.4 11.6-8.9 3.2-2.8 9.5-12.2 10.7-15.8.3-1.1 3.4-4.9 6.8-8.5 7-7.5 11.1-15.3 13.4-26.1 2-9 .8-14.7-3.8-19-5.6-5.3-12.3-4.6-20.8 2.1l-3.9 3.1-4.8-2.4c-12-5.9-24.5-9.5-42.4-12.1-14.5-2.2-39.3-2-52.9.4m119.6 19.5c2 3.1 1.4 9.7-1.6 15.4-2.9 5.7-3.5 5.6-3.6-.8 0-4.4-.6-6.5-2.9-10-2.8-4.2-2.9-4.4-1-5.7 3.1-2.3 7.2-1.7 9.1 1.1"/></svg>