<svg xmlns="http://www.w3.org/2000/svg" width="682.667" height="512" version="1.0" viewBox="0 0 512 384"><path d="M215.9 61.5c-21 3.5-33.6 10.4-37.1 20.4-1.7 4.9-1.4 22 .5 30.2 2.8 11.6 6.3 17.6 16 27.3 11 11 11.3 11.6 13.1 20 1.3 6.3 1.3 7.1-.5 11.2-2 4.4-1.9 9.5.3 13.6 1.6 3.3 9.6 6.9 20.9 9.5 9.5 2.3 13.8 2.7 25.9 2.7 21.3.1 28.9-2.8 30.5-11.5.4-2 .2-5.3-.4-7.4-.9-3.5-.7-4.5 3-12.1 3.7-7.9 4.3-8.6 11.2-13 10.5-6.8 16.1-11.8 19.6-17.3 1.8-2.7 4.8-6 6.9-7.3 15.7-10.5 24.2-24.1 24.2-39 0-6.8-.1-7.1-3.9-10.9-3.4-3.5-4.4-3.9-8.7-3.9-3.6 0-6.3.8-10.1 3-2.8 1.6-5.4 3.4-5.8 4s-1.9.1-3.8-1.4c-10.7-8-31.1-14.9-53.9-18.1-12.4-1.8-37.4-1.8-47.9 0m125 25.6c1 1.7 1.7 4 1.4 5.2-1.8 8.1-3.7 11.6-8.8 16.7l-5.5 5.4 1-3.4c1.5-5.3 1.2-16.7-.5-20-1.5-2.9-1.5-3 1.7-5 4.9-3 8.5-2.6 10.7 1.1"/></svg>