<svg xmlns="http://www.w3.org/2000/svg" width="682.667" height="512" version="1.0" viewBox="0 0 512 384"><path d="M219.5 47.5c-13.1 1.9-24.9 5.6-30.7 9.7-9.5 6.8-11.3 11.5-10.5 26.7 1.2 21.3 5 29.5 20.7 45.1 5.2 5.1 6.9 7.7 8 11.5 1.8 6.1 1.8 13.6 0 19.1-1.1 3.4-1.1 4.7.1 8.5 1.3 4 2 4.7 7.7 7.5 9.9 4.9 25 7.8 41.7 7.8 16 .1 21.3-1.1 25.8-5.5 2.9-2.9 3-3.2 2.4-10-.5-6.5-.3-7.5 3-15 3.6-7.9 3.6-8 12.2-13.1 5-3 11.4-8.1 15.2-12 3.7-3.8 9.5-8.7 12.9-10.9 7.9-5.1 16.5-13.2 19.5-18.4 2.9-4.8 6.5-15.9 6.5-19.8 0-4.1-3.6-10.5-7.3-12.7-5.5-3.4-13-2.2-19.9 3.1-2.1 1.7-3.9 2.5-4.3 1.9-.3-.6-3.4-2.9-6.8-5.2-20.4-13.9-66.2-22.6-96.2-18.3m124.4 29.6c3.4 5.6-.5 15.8-9.1 23.3-5.6 4.9-7.4 5.7-6.3 2.9 2.5-6.8 3.1-18.7 1-23.5-.9-2.3 4.7-5.8 9.3-5.8 2.5 0 3.6.6 5.1 3.1"/></svg>