<svg xmlns="http://www.w3.org/2000/svg" width="682.667" height="512" version="1.0" viewBox="0 0 512 384"><path d="M211 36.9c-16.4 3.3-26.3 8.6-30.3 16.4-5.6 11-.9 40.6 8.3 52.5 1.2 1.5 5.5 6.2 9.5 10.4 7 7.3 7.4 8 9.1 15.4 1.4 6.6 1.5 8.3.4 10.8-.7 1.7-1.5 5.7-1.8 8.9-.4 5.5-.2 5.9 3 9 6.6 6.2 29.4 11.7 48.5 11.7 13.4 0 19.9-1.4 23.6-5.2 2.9-2.8 3-3.2 2.4-10.1-.5-7-.4-7.5 3.6-15.2 4.1-7.7 4.5-8.2 12.7-13.1 4.7-2.8 10.8-7.2 13.6-9.7s7.7-6 11-7.8c11.3-6.2 21.2-14.1 24.9-20C353 85.4 356 75.8 356 70c0-4.7-.4-5.5-4.4-9.8-4.2-4.4-4.8-4.7-9.3-4.6-5 .1-10.2 2.2-14 5.7l-2.2 2-4.5-4.1c-10.6-9.8-34.9-18.7-61.7-22.6-14.2-2.1-37.7-2-48.9.3m133.6 28.9c1.8 1.2 3.4 4.9 3.4 7.9 0 4.9-4.4 12.6-10 17.6-4.7 4.2-11 8.5-11 7.4 0-.2 1-3 2.1-6.3 1.6-4.2 2.2-8.5 2.3-14.9l.2-9 3.4-1.7c3.6-1.9 7.7-2.3 9.6-1"/></svg>