<svg xmlns="http://www.w3.org/2000/svg" width="682.667" height="512" version="1.0" viewBox="0 0 512 384"><path d="M216.5 16c-15.1 1.6-27 5.7-32.5 11.2-7.1 7.1-7.9 25.1-1.8 43.9 2.3 7.2 6.1 13 15.5 23.8 6.3 7.1 6.9 8.5 9 20.1 1 5 .9 5.9-1.3 9.6-5.6 9.5-.8 16.9 14.1 21.9 14.4 4.8 36.5 7.5 50 6 5.7-.6 7.3-1.2 9.8-3.7 2.9-2.8 3-3.2 2.4-9.7-.5-6.4-.4-7.1 3-13.2 3.4-6.2 11.2-14.9 13.2-14.9.6 0 4.1-1.9 7.8-4.3 3.8-2.4 9.3-5.1 12.3-6.1 6.6-2.1 19.8-8.7 25.4-12.6 8-5.5 13-12.3 16.1-21.9 2.2-6.7 1.5-12.1-2-16.6-5.4-7.2-12.6-8.3-22-3.6l-5.8 3-1.9-2.4c-4.5-5.8-21.5-15.6-35.3-20.3-22.8-7.9-55.8-12.3-76-10.2M350 54c5 5 2.7 14.5-5.4 22.5-4.6 4.5-19.1 13.3-20.2 12.3-.6-.7 7.6-17.8 8.5-17.8.4 0 1.3-1.2 2-2.6 1-2.2.9-3-.4-4.4-1.7-1.9-1.9-4.3-.5-7 2.6-4.8 12.4-6.6 16-3"/></svg>