<svg xmlns="http://www.w3.org/2000/svg" width="682.667" height="512" version="1.0" viewBox="0 0 512 384"><path d="M208.5 9.1c-9.6 1.4-19 4.8-23.4 8.5-6.2 5.3-7.5 10.1-6.8 24.2.9 19 4 26.7 16.2 41.3 4.7 5.5 8.7 11.1 9 12.2.3 1.2 1.1 5.7 1.8 9.9 1.3 7.4 1.2 7.8-1 11.8-2.9 5.1-2.9 9.9-.1 13.5 4.3 5.5 20.3 10.9 41.3 14 18.2 2.7 28.4 1.7 33.2-3.1 2.3-2.3 2.5-3 1.9-8.7-.6-5.8-.4-6.6 3-13 2.3-4.3 4.5-7.2 6-7.7 1.3-.5 2.5-1.4 2.5-2 .1-.5.2-1.4.3-2 0-.5 1.9-1.9 4.1-3.1s5.4-2.9 7-3.9c1.7-1 7.3-3 12.5-4.5 12-3.3 26-10 33.3-15.9 10.2-8.4 15.6-24 11.3-32.5-2.6-5-8.2-9.1-12.5-9.1-4.4 0-11.7 2.3-14.1 4.5-1.4 1.3-2.3.8-8.1-4.8-14.2-13.8-44.8-25.2-78.9-29.3-12.7-1.5-29.2-1.6-38.5-.3M350.1 48c2.2 1.2 4.9 6 4.9 8.7 0 3.5-5.7 13.9-9.5 17.2s-22.1 12.8-23 11.9 8.7-18.3 10.3-18.7c3.6-.8 5.6-6.6 2.7-7.7-.8-.4-1.5-1.9-1.5-3.5 0-5.6 10.6-10.8 16.1-7.9"/></svg>