<svg xmlns="http://www.w3.org/2000/svg" width="682.667" height="512" version="1.0" viewBox="0 0 512 384"><path d="M202.2 4c-11 2.2-18.8 6.3-21.7 11.1-1.6 2.8-2.1 5.6-2.4 15.3-.5 19.4 3.1 30.5 14.6 44.3 9.2 11 9.3 11.1 11.2 22l1.7 9.8-3 5.8-3 5.9 1.9 3.6c2.4 4.5 8.9 8.2 20 11.7 18.9 5.8 45.3 8.3 53 5 4.3-1.7 5.4-4.4 4.8-11.5-.4-4.8-.1-6.2 2.9-11.5 2.3-4.1 4.3-6.4 6.5-7.4s3.3-2.2 3.5-4c.4-3.8 6.7-6.8 21.1-10.1 25.6-5.9 41.4-15.5 47.4-28.7C367.8 49.8 362 37 347.8 37c-3.9 0-6.8.7-10.1 2.4l-4.6 2.5-2.8-3.7c-3.6-4.8-5.4-6.3-14.1-11.8C289 9.1 231.7-2.2 202.2 4M354 47.8c2.7 3.3 2.5 8.5-.4 14.8-2.8 6-8.9 11.5-17.4 15.5-6.5 3.1-17.2 7.1-17.2 6.4 0-.2 1.7-2.8 3.8-5.8 2-2.9 4.8-7.6 6.1-10.4 1.8-4 2.7-5 4.3-4.5 3.9 1 6.4-5.9 2.8-7.8-2.7-1.5-2.5-2.4 1.3-6.6 2.3-2.5 4.5-3.9 7.3-4.3 5.1-.9 7-.4 9.4 2.7"/></svg>