<svg xmlns="http://www.w3.org/2000/svg" width="682.667" height="512" version="1.0" viewBox="0 0 512 384"><path d="M182 2.7c-3.9 3.5-4.9 7.9-5 21.4 0 18.6 2.5 26.1 14.4 42.2 3.6 4.8 6.7 9.6 7.1 10.6.3 1 1.1 6.7 1.9 12.7l1.3 10.8-2.8 4.6c-4 6.6-4.3 8.3-1.8 11.4s7.1 5.3 19.9 9.4c19.2 6.1 38.7 10.2 48.7 10.2 5.5 0 6.4-.3 8.3-2.8 1.9-2.3 2.1-3.6 1.7-8-.5-4.9-.3-5.8 3.4-11.5 4.9-7.5 4.8-7.5 5.9-5.7.7 1.1 1.5 1.2 3.7.4 1.5-.5 2.9-1.5 2.9-2.2.1-.6.2-1.8.3-2.6.2-2.4 7.6-4.5 19.8-5.7 21.9-2.1 39.5-8.1 47.5-16.1 2.2-2.2 5.4-6.9 7-10.5 2.5-5.3 3-7.3 2.6-11.8-.5-6.3-4.2-12.5-9.1-15.6-3.9-2.4-13.3-2.3-18.5.3l-3.2 1.7-2-3.8c-7.1-13.9-43.3-31.2-84-40C243.7.2 239.1 0 213.8 0H185zm173.9 48.7c1.5.8 3.5 2.9 4.4 4.7 1.3 2.8 1.3 3.8.2 7.6-3 9.9-10.4 16.3-23.8 20.8-6.8 2.2-25.7 5.8-26.5 5-.2-.1 1.2-1.2 3-2.3 4.8-3 11-9.8 15.3-16.9l3.8-6.3 2.3 2.5c2.7 3 3.2 3 5.6.8 2.3-2.1 2.3-4.5-.2-6.8-1.9-1.7-1.9-1.8 0-4.5 2.2-3.1 7.4-5.9 10.8-6 1.3 0 3.6.7 5.1 1.4"/></svg>