<svg xmlns="http://www.w3.org/2000/svg" width="682.667" height="512" version="1.0" viewBox="0 0 512 384"><path d="M188.6 8.1c-8.9 2.1-11.4 6.6-12.3 22.3-1 17.6 2.4 29.2 13 44.4 8.2 11.6 8.8 13.1 9.7 25.6.6 8.6.5 11.4-.5 12.6-3.7 4.3-5.7 11.9-3.7 14.5 3.1 4.4 34.3 14.5 63.6 20.5 14.2 2.9 16.2 1.6 16.5-11.2.1-3.7.9-5.9 4.3-10.7 4.2-6.1 5.8-7.4 5.8-4.6 0 .8.7 1.5 1.6 1.5 2.7 0 5.4-2 5.4-4.1 0-3.2 5.7-4.8 20.7-5.9 31.9-2.1 47.7-9 55.2-24.2 9.8-19.5-5.2-39.2-23.6-30.9l-4.2 2-1.1-3.3c-4.6-14.2-49.9-34.8-97.6-44.5-24.5-5-42.7-6.4-52.8-4m169.3 59.4c1.6.8 3.6 3.1 4.6 5.1 1.7 3.6 1.7 3.8-.6 8.6-4.3 9.3-11.2 14.4-23.8 17.8-7.4 2-19.3 4-24.2 4h-3.1l5.5-4.3c5.8-4.5 11.1-10.3 14.7-16.3l2.3-3.6 2.8 3.1c3.3 3.6 4 3.8 6.4 1.1 1.7-1.8 1.7-2.3.3-5.9-1.5-3.7-1.4-4 .6-6.5 3.7-4.4 9.5-5.7 14.5-3.1"/></svg>