<svg xmlns="http://www.w3.org/2000/svg" width="682.667" height="512" version="1.0" viewBox="0 0 512 384"><path d="M179.8 70.7c-2.4.6-3.7 5.3-4.7 17.9-1 12.9.4 25.2 3.8 32.9 1.2 2.6 4.5 8.5 7.5 12.9 8.7 13.2 9.6 15.5 10.3 26.6.6 9.4.5 10.1-1.9 13.7-3.3 5-4.5 13.6-2.3 16.9 6 9.2 70.2 27.7 78.3 22.5 1.6-1 3.1-7.1 3.2-12.3 0-3.7.3-4.3 8.7-15.4l2.2-2.9v3.3c.1 3 .3 3.3 2.9 3 1.9-.2 3.1-1.2 4.1-3.6 2-4.3 4.6-4.9 26.1-5.6 32.4-1 47-7.5 54.7-24.3 2.2-4.9 2.5-6.5 2-12.8-.8-11-5.1-17.8-12.6-20.4-4.9-1.6-9.7-1.4-14.1.8-4.1 2-5 1.8-5-.9 0-1.6-3.9-6-5.3-6-.3 0-4.3-1.8-8.9-3.9-20.9-10-79.1-28.8-113.8-37-23.7-5.6-30.6-6.6-35.2-5.4m182.7 66.7c1.3.8 2.8 3.1 3.5 5 1.1 3.3.9 3.9-2.5 9.1-4.2 6.3-7 8.6-14.4 11.5-5.5 2.1-19.4 4.6-30 5.3-6.2.3-6.4.3-4.1-1.2 6.6-4.3 11-8.3 15.9-14.5 4.7-5.8 5.6-6.5 6.4-4.9 1.3 2.5 4.9 6.3 5.9 6.3.4 0 1.4-1 2.3-2.3 1.2-1.9 1.3-2.9.3-5.4-3.1-8.3 8.3-14.4 16.7-8.9"/></svg>