<svg xmlns="http://www.w3.org/2000/svg" width="682.667" height="512" version="1.0" viewBox="0 0 512 384"><path d="M178 94.5c-3 3.6-4.7 28.3-2.6 38.7 1.9 9.7 4.2 14.9 11 25.2 8.2 12.4 9.3 15.1 10.1 24.8.7 8 .5 9.1-1.5 12.5s-4.9 12.6-5 16c-.2 6.5 23.8 17.9 52.5 24.9 14.6 3.6 23.2 4.1 27.1 1.6 2.9-1.9 3.2-2.6 3.9-9.4s1.1-7.8 6.1-14.7c5.2-7 5.4-7.2 5.4-4.2 0 1.8.6 3.4 1.4 3.7 2.2.8 5.3-1.2 6-4 .3-1.3 1.4-2.7 2.3-3.1 1-.5 10.6-1.1 21.3-1.6 35.3-1.3 49-6.9 57-23.4 4.3-8.8 2.7-23.9-3.3-30.4-4.6-5-13.2-6.4-21.2-3.6-4 1.4-5.4.9-5.5-2.1 0-1.1-15.1-8.4-17.3-8.4-.7 0-3.9-1.1-7.2-2.4-3.3-1.4-11.6-4.2-18.5-6.4-31.1-9.9-37.7-12-40.5-12.7-3.4-.9-3.5-1-5.5-1.8-2.6-1-24.1-7.5-35.5-10.7-6-1.7-13.9-3.9-17.5-4.9-6.6-1.9-14.3-3.7-19.2-4.5-1.5-.3-3.2.1-3.8.9m186.1 68.4c3.6 3.7 3.7 6.5.1 12.2-6 9.3-12.5 12.3-34.7 16-6.5 1.1-17.1 2-14.2 1.2.9-.2 1.7-.8 1.7-1.2s2.1-2.2 4.6-4c2.5-1.9 6.8-6.3 9.7-9.8l5.1-6.5 2.9 3.6c3.4 4.2 3.9 4.3 6.6 1.5 1.8-2 1.9-2.4.6-4.3-2.2-3.1-1.8-5.4 1.4-8.7 2.5-2.5 3.7-2.9 8.1-2.9s5.6.4 8.1 2.9m-36.8 33.8c-1.3.2-3.5.2-5 0-1.6-.2-.5-.4 2.2-.4 2.8 0 4 .2 2.8.4"/></svg>