<svg xmlns="http://www.w3.org/2000/svg" width="682.667" height="512" version="1.0" viewBox="0 0 512 384"><path d="M287.2 1.2c-.7.7-1.2 1.9-1.2 2.7 0 1.3-1.6 1.6-9.7 1.6-11.9 0-14.8.7-18.4 4.6l-2.9 3.1-1.1-2.5c-1.3-3-4-4.2-12.7-5.8-11.4-2.1-24.9-.1-41.2 6.2-6.7 2.6-8.1 3.5-8.6 5.7-.4 1.5-1.1 3.2-1.6 3.9-.6.7-.5 1.4.2 1.8.6.4.9 1.3.6 2-.3.8.2 1.9 1 2.5.8.7 1.4 2.1 1.4 3.1s.5 2.1 1 2.4c.6.4 2.5 3.7 4.2 7.3 2.8 6.1 5.1 10.8 9.2 18.6.7 1.5 2.6 4 4 5.7 2.7 3 5.1 3.2 9.7.8 1.4-.7 1.5-.3.6 3.7s-.7 5.6 1.3 11.8c1.3 3.9 3.2 8.3 4.2 9.8 1.6 2.3 1.8 3.8 1.2 8.8-.4 4.1-1.1 6-2 6s-1.4 1.3-1.4 3.7c-.1 6.6-1.8 23.7-2.5 25.5-.5 1.4-.2 1.8 1.3 1.8 1.7 0 2 .9 2.6 8 .6 6.9.5 8.7-1.2 12.3-1.1 2.3-2.5 7.6-3.2 11.7-1.4 9.8-5.4 17.6-9.3 18.4-3.7.7-8.7 5.8-8.7 8.8 0 1.3.7 3.6 1.5 5.2 1.9 3.6 1.9 6.1 0 9-.9 1.3-1.5 2.8-1.3 3.2.1.5-.8 2.9-2 5.3-1.2 2.5-2.2 5.3-2.2 6.2 0 1-.4 2.1-1 2.4-.5.3-1 1.7-1 3s-.5 2.7-1.1 3c-.5.4-.8 1.2-.6 1.8.2.7-.1 1.9-.7 2.7-1.1 1.4-4.4 10.8-8.1 23.5-1 3.3-2.2 6.9-2.6 8-2.2 5-5.6 16.5-5.1 16.9.2.3-.1 1.2-.8 2.1s-1 1.8-.6 2.2c.3.3 0 1.3-.8 2.2-.7.9-1.6 3.2-1.9 5.1s-.8 4.5-1.1 5.7c-.3 1.3-.1 2.5.4 2.8.4.3.6 1.4.3 2.5-.7 2.6 1 2.6 4.7-.2 1.6-1.2 3.3-1.9 3.6-1.5.4.4-.9 4.2-2.9 8.5-4 8.5-4.5 12.7-2.2 17.2 1.6 3.2 8.2 7 15.1 8.9l4 1.1 2.8 11.2c1.5 6.2 3.9 14 5.2 17.3 2.3 5.6 2.4 6.2.9 9.7L205 384h93.5c54 0 93.5-.4 93.5-.9s-.9-5.2-2-10.6c-1.4-6.8-1.7-10.2-1-11.5 1.5-2.8 1.2-15.7-.5-24.7-2.3-12-2.1-14.5 2-19.3 1.9-2.3 3.5-4.8 3.5-5.6s-2.3-6.5-5.1-12.7c-12.5-27.2-23.3-52.8-24.9-58.7-.6-2.5-2.7-10-4.7-16.8l-3.5-12.3 3.1-7.7c1.7-4.2 3.1-8 3.1-8.4s-3.3-.8-7.2-1l-7.3-.3-1.2-5.5c-.7-3-2-10.9-2.9-17.5-2.2-16.8-3.9-19.6-15.2-26.2-5.4-3.1-6.2-4-6.1-6.8 0-1.9.1-1.9 1.6.2 1.9 2.8 3.7 3 3 .3-.7-2.8 0-2.5 1.7.7 2.5 4.6 1.8 1-1.5-8.2-1.7-4.7-2.9-8.8-2.7-9.1.3-.2 1.7 1.8 3.2 4.6 1.5 2.7 2.9 5 3.1 5 .1 0-1-3.3-2.6-7.3-1.5-3.9-2.8-8.1-2.8-9.2 0-1.7.2-1.7 1 .4 1.8 4.5 2.1 1.3.9-10.4-1-9.2-1-12.9 0-17.5 1.3-6.3 1.9-6.8 7.9-7.2 2.6-.2 3.9-1 5.2-3.3 1.1-1.6 1.9-3.3 1.9-3.7s-2.9-5.1-6.6-10.4c-3.6-5.3-6.7-10.9-7-12.4l-.6-2.7 8 .5c7.5.4 8.1.3 9.2-1.8.6-1.2.9-2.8.6-3.5-.3-.8 0-1.7.5-2.1.6-.3.9-1.5.6-2.5s.1-2.4.9-3c1-.8 1.3-2.5 1-5.1-.3-2.2 0-4.8.7-5.9 1-1.6.9-2.5-.4-4.8-1.4-2.4-1.4-2.9-.2-3.7s1.3-1.7.5-4.8c-.8-2.7-.8-4.3 0-5.6.9-1.4.9-2.2-.1-3.4-1.2-1.4-5.2-1.6-31-1.6-21.8 0-30 .3-30.9 1.2m-49.1 132.1c-.8.8-1.1.5-1.1-.9 0-2.7 1.4-4.1 1.8-1.9.2.9-.1 2.2-.7 2.8m-1.8 5.1c.3.8-.3 3.1-1.4 5.2-2 4.1-2.5 2.7-1.3-3.5.7-3.3 1.8-4 2.7-1.7m87.7 80.7c.4 1.3 1 8.7 1.4 16.4.7 14.5 3 41.1 4.4 51.5.5 3.2.6 5.7.3 5.5-.4-.2-2.1-2.3-3.9-4.8-2.7-3.8-3-4.7-1.7-5.7s1.2-1.6-.2-4.4c-.9-1.7-1.6-4.1-1.4-5.2.1-1.2-1-9.5-2.5-18.5-2.5-15.1-2.6-17.1-1.5-24.9 1.6-11.1 2.1-13.2 3.4-12.7.6.2 1.4 1.4 1.7 2.8"/></svg>