<svg xmlns="http://www.w3.org/2000/svg" width="682.667" height="512" version="1.0" viewBox="0 0 512 384"><path d="M178.2 119.3c-1.7 2-3.1 10.2-3.8 22.5-1.1 17.8 1.8 27.7 12.8 44 7.7 11.4 8.8 14.4 8.8 24.4 0 7.5-.3 9.2-2.3 12.2-3.1 4.5-4.3 14.5-2.2 18.6 5.2 10 45.8 25 67.5 25 11.4-.1 14-2.3 14-11.9 0-4.6.5-5.8 5.5-12.6 3.1-4.1 5.8-7.5 6.2-7.5.3 0 .3 1.1.1 2.5-.5 2.3-.2 2.5 3.2 2.5 3.3 0 3.8-.3 4.3-2.9.3-1.6 1.4-3.2 2.4-3.6s11.3-1.1 22.8-1.5c35.6-1.3 48.5-6.8 56.2-23.8 2.3-4.9 2.5-6.2 1.9-13.4-1-12.1-5.6-19.3-12.9-20.5-2.8-.4-3.8-.2-4.3 1.1-.8 2-3.3 2.1-4 .1-.7-1.7-4.6-2-7.5-.5-1.6.9-2.1.7-2.8-1.3-1-2.6-1.3-2.7-18.6-8.8-6.6-2.2-13.6-4.7-15.5-5.4-1.9-.8-12.3-4.1-23-7.5s-24.9-7.9-31.5-10c-16.4-5.2-26.6-8.4-35.5-11-4.1-1.2-10.2-3.1-13.5-4.1-13.3-4.1-19.1-5.8-21.5-6.2-1.4-.2-3.2-.7-4.1-1.1s-2.1-.1-2.7.7M360 178c0 .5-1.8 1-4 1s-4-.5-4-1c0-.6 1.8-1 4-1s4 .4 4 1m4.7 11.4c1.3 1.5 2.3 3.8 2.3 5.2 0 3.4-4 9.4-9.5 14.1-3.8 3.3-6 4.3-11.7 5.3-3.8.7-7.1 1.7-7.4 2.2-.3.4-2.5.8-4.9.8s-4.7.4-5 1 .2.8 1.2.5.5.1-1.2.8c-2 .9-4.9 1.2-8.9.8l-6-.6 4.2-2.8c4.9-3.2 14.5-12.8 16.9-16.8 1.8-3 3.3-3.8 3.3-1.7 0 1.6 4 5.8 5.5 5.8.7 0 2-.9 2.9-1.9 1.7-1.8 1.7-2.2.2-4.3-2.3-3.3-2-4.7 2.1-8.5 3.4-3.3 4-3.5 8.7-3 3.8.3 5.5 1.1 7.3 3.1M334 222.2c-5.9 1.2-23.7 2.2-22.8 1.2.8-.7 15.4-2.1 23.3-2.1h4z"/></svg>