<svg xmlns="http://www.w3.org/2000/svg" width="682.667" height="512" version="1.0" viewBox="0 0 512 384"><path d="M0 192v192h197.2l-5.8-5.2c-6.7-6.2-10.4-13.2-10.4-19.9 0-3.7.7-5.5 3.8-9.7l3.9-5.1-.2-10.4c-.2-11.4-.5-12.2-7.5-21.2-6.9-8.7-13.5-20.2-15.5-26.5-2.6-8.5-3-23.6-1.1-36.8.9-6.2 1.9-11.8 2.2-12.6.3-.7 2.4-2.4 4.7-3.7 3.8-2.2 5.3-2.4 15.7-2.3 11.4.1 35.4 3.7 46.6 6.9l5.2 1.5.4 20.7c.2 12.2.8 21.6 1.4 22.7.8 1.3 1-1.5.6-10.7-.5-12.5 1.2-32.2 2.9-33.3 1.3-.8 39.4 12.8 53.4 19.1 2.8 1.2 8.9 3.9 13.7 6 4.8 2 8.6 4.2 8.5 4.8s.7 1.3 1.8 1.5c2.7.6 21.5 12.5 29.6 18.7 3.7 2.8 8.1 6.8 9.8 8.7 3.1 3.5 3.4 3.6 8.5 3.1 18.5-1.9 32.8 17.7 24.6 34-3 6-13.5 16.1-19.2 18.6-11 4.7-17.9 5.5-44 5.3-13.6-.1-25.9.3-27.2.8-1.4.5-2.6 1.9-2.8 3.2-.3 2.1-.8 2.3-6.2 2.3h-5.9l-5.3 6c-4.4 5-5.4 6.6-5.4 9.7v3.8h234V0H0z"/><path d="M369.5 313.4c-1.6.7-4 2.5-5.3 3.8l-2.2 2.5 2 2.5c2.7 3.5 2.6 4.2-1.2 7.2l-3.3 2.5-2.2-2.1-2.3-2.1-9.2 8.9-9.3 8.9 5 .3c6.8.4 22-2.5 27.5-5.3 10.6-5.4 17.6-17.8 14-24.5-.6-1.1-2.7-2.4-4.8-3-4.6-1.2-5-1.2-8.7.4"/></svg>