<svg xmlns="http://www.w3.org/2000/svg" width="682.667" height="512" version="1.0" viewBox="0 0 512 384"><path d="M0 192v192h195.2l-4.4-3.3c-5.5-4.2-10.8-12-10.8-16.1 0-1.7-.7-4-1.5-5-.8-1.1-1.5-4.1-1.5-6.7 0-3.7.7-5.8 3.4-9.7l3.4-5-1-9.4-.9-9.3-8.5-8.4c-9.7-9.7-17.1-21.1-20.4-31.6-1.2-3.9-2.5-12-3-18.5-.5-6.3-1.5-13.3-2.3-15.5-1.9-5.4-4.1-17.4-3.3-18.2.3-.4 11.3-.7 24.4-.8 13-.1 27.2-.7 31.4-1.3 4.3-.6 8.4-.9 9.2-.6.7.3 3 4.4 5 9.2 6.4 15.4 11.4 22.7 24 34.9 7 6.9 12.7 13.3 14.7 16.7 1.7 3.1 3.4 5.6 3.8 5.6s-.1-3.3-1.2-7.3c-4.3-16.1-2.6-53.7 2.4-53.7.7 0 8.4 3.2 17.3 7.1 15.9 7 47.8 19.9 49.4 19.9.4 0 1.7.7 2.9 1.5l2.1 1.5-2.4 8.2c-3.5 12.6-8.5 24.8-10.6 25.9-3.1 1.7-18.7 4.7-29.7 5.9-5.8.5-10.6 1.2-10.9 1.4-.2.3 1.6 1.4 4.1 2.5 5.6 2.6 10.7 2.6 21.7.2 11.5-2.6 12.1-2.1 6.4 5.4-2.9 3.7-3.4 4.9-2.3 5.6 2.7 1.7 4.7.9 9.1-3.8 5.5-6 10.2-13.8 17.4-28.7 3.1-6.4 5.9-11.6 6.4-11.6.8 0 20.6 14.8 28.3 21.2 3.7 3.1 5 3.8 6.1 2.9 2.3-1.9 4.8-.2 4.4 3-.4 2.4.3 3.5 4.1 6.7 3.2 2.7 6 4.1 9.1 4.6 13.1 2 22.5 12 22.2 23.8-.1 6.4-3 11.4-10.6 18.5-10 9.4-14.2 10.7-34.6 10.7-15.2 0-17.6-.2-30.8-3.3-16.3-3.8-20.7-3.7-22.3.6-.9 2.4-1.3 2.5-5.4 2-4.2-.6-4.8-.4-11.7 4.9-6.1 4.6-7.5 6.2-8.4 9.7-.7 2.3-1.5 5-1.9 5.9-.7 1.7 5 1.8 111.9 1.8H512V0H0z"/><path d="M173.1 271.6c6.3 6.6 43.3 36.4 45.2 36.4.4 0 .1-1-.6-2.3-.8-1.2-3.4-7-5.7-12.9l-4.4-10.7-8.1-2.5c-4.5-1.4-13.1-4.6-19-7l-10.8-4.5zm214.4 51.5c-1.1.6-2.9 2.2-3.9 3.6-1.5 2.1-1.7 2.9-.8 4.4.7 1 1.2 2.2 1.2 2.7 0 1.4-6 4.3-7.8 3.8-1.1-.4-3.4.8-6.5 3.3-2.6 2.2-6.4 5-8.3 6.2s-3.3 2.3-3.1 2.6c1.1 1 18.6.2 23.4-1.1 6-1.6 11.5-5.5 15.5-11 2.2-3 2.8-5 2.8-8.8 0-4.3-.3-5-2.6-5.8-3.2-1.2-7.3-1.2-9.9.1M243 347.9c0 1.1 1 2.7 2.3 3.6 2 1.4 2.2 1.4 2.5 0 .4-1.7-2.4-5.5-4-5.5-.4 0-.8.9-.8 1.9m27 33.6c0 2 .5 2.5 2.5 2.5 2.6 0 2.6 0 .8-2.5-2.3-3.1-3.3-3.1-3.3 0"/></svg>