<svg xmlns="http://www.w3.org/2000/svg" width="682.667" height="512" version="1.0" viewBox="0 0 512 384"><path d="M0 192v192h194.1l-5.9-5.5c-6-5.5-10-12.9-8.8-16.1.3-.9-.2-2.7-1.3-4-1-1.3-2.2-4-2.5-6-.6-3-.2-4.5 2.8-9.6 3.8-6.3 4.2-9.1 2.7-19.6-.6-4.5-1.3-5.7-5.2-8.9-18.9-15.7-27.6-31.8-29.5-54.3-.5-6-1.3-9.3-2.7-11.3-2.8-4-7.3-13.6-8.1-17.3-1-4.4 1.7-5.4 11.4-4.1 9 1.3 27.5-.3 40.6-3.3 4.9-1.2 9.9-1.9 11-1.6 1.3.4 4.4 3.9 7.7 8.8 9.5 14.3 12.3 16.9 26.1 23.8 14.3 7.3 22.8 13.9 20.9 16.2-.7.8-1.1 2.4-.8 3.6.3 1.8-.2 2.2-3.1 2.8-1.9.3-4.7.4-6.4.2-2.4-.4-2.7-.2-1.8.9 1.5 1.8 19.8 14.6 20.3 14.1.2-.2-1-5.3-2.6-11.3-2.6-9.6-3-12.7-2.9-23.7 0-12.5 2-28.2 3.8-30 .5-.5 5 1.2 10.8 4 12.4 6.1 31 14.1 47.8 20.3 7 2.6 13 5 13.3 5.3.6.6-3.4 14.8-6.5 22.6-3.3 8.5-5.6 11.6-8.9 12.4-11.5 2.6-20.8 3.8-33.1 4.3-7.9.3-13.9 1-13.5 1.4s3.7 2.4 7.3 4.4l6.5 3.7 13.5-2.1c7.4-1.2 14.1-2.1 14.8-2.1 2.4 0 1.2 2.8-3.4 7.9-2.6 2.9-4.5 5.3-4.3 5.5s1.8 1.1 3.5 1.9l3.1 1.6 6-6.2c7.1-7.2 13-16.1 20.1-30.4 2.8-5.6 5.5-10.4 6-10.7.4-.2 3 1.3 5.7 3.5 9.2 7.2 20 15.9 23.2 18.5l3.3 2.6 1.8-2.1c1.1-1.5 2.3-2 3.5-1.6 2 .8 2.3 4.5.5 6.3-1.9 1.9 8.5 12 13.2 12.8 7.1 1.2 10.5 2.8 15.3 7.3 5.7 5.3 7.7 9.3 7.7 15.3-.1 11.8-13.5 25.7-27.8 28.8-10.8 2.3-30.2.8-46.2-3.4-16.4-4.3-22.3-4.6-24.5-1.2-1.2 1.8-2.7 2.5-6.6 2.8-3.7.4-6.5 1.6-11.4 4.9-5.6 3.8-6.7 5.1-8.1 9.4-.9 2.7-2 5.4-2.5 6-.5.5-.9 1.3-.9 1.7s50.2.8 111.5.8H512V0H0z"/><path d="M170 269.6c8.2 8.4 53 43.7 53 41.8 0-.3-2.6-7.2-5.9-15.3-3.2-8-6.4-16.3-7-18.3-1.3-3.9-1.5-4-11.6-5.3-7-.9-25-5.2-29.2-7-2-.8-3.8-1.5-4.1-1.5-.4 0 1.8 2.5 4.8 5.6m220.4 57.1c-4 4.3-4.6 5.9-2.8 7.3 1.3 1.1.9 1.6-2.6 3.7-2.2 1.3-4.5 2.1-5 1.8-.6-.4-3.2 1.1-5.9 3.2s-6.4 4.6-8.2 5.6c-3.1 1.7-3.2 2-1.5 2.9 3 1.7 18.4.4 23.8-2 5.3-2.3 12.3-8.3 14.4-12.3 2.2-4.3 1.8-9.5-.8-11.3-3.6-2.5-8.5-2-11.4 1.1M242 344.4c0 .8-.2 2-.5 2.8-.3.7 1.2 2.5 3.5 4.1l4 2.8v-2.5c0-2.4-4.3-8.6-6.1-8.6-.5 0-.9.6-.9 1.4m29.2 26.8c-.7.7-1.2 3.8-1.2 7v5.8h4.6c5 0 5 0 .1-6.2-2-2.5-2.7-4.2-2.2-5.7.7-2.4.4-2.6-1.3-.9"/></svg>