<svg xmlns="http://www.w3.org/2000/svg" width="682.667" height="512" version="1.0" viewBox="0 0 512 384"><path d="M0 192v192h97.3c85.2-.1 97-.2 95.2-1.5-8.4-6.1-14-14.8-13.1-20.3.4-2.9.1-3.8-1.9-5.4-2.5-2-4.1-7.3-3.1-10.5.3-1 2.1-4.3 4-7.2 2.9-4.4 3.3-5.8 2.5-7.8-.5-1.3-.9-4.9-.9-7.9V318l-5.6-4.3c-9.9-7.4-12.8-10.3-18.7-19-7.1-10.3-11.2-21.4-12.8-35l-1.2-9.8-6.3-6.4c-3.5-3.5-7-7.8-7.9-9.5l-1.6-3.1 3.4-1.4c2.6-1.1 4.3-1.2 6.8-.5 4.9 1.4 11 1.2 12.8-.4 2.2-2 7.7-2.5 7.3-.7-.5 2.1 7.5.7 19.2-3.5 5.6-2 11.2-3.6 12.6-3.6 1.6 0 3.7 1.4 6 4 4.6 5.2 13.2 11.8 18.7 14.3 2.6 1.2 9.2 2.6 16.2 3.4 7.6.9 13.5 2.2 16.5 3.6 5.5 2.5 6.2 3.5 4.4 5.6-.7.9-1.1 2.6-1 3.8.4 2.7-1.9 3.6-14.1 5.5-4.3.7-7.6 1.6-7.5 1.9.2.4 4 4.1 8.6 8.4 9.2 8.6 28.5 23.3 37.8 29 7.2 4.3 9 4.4 26.9 2.2 6.6-.8 12.3-1.5 12.8-1.5 2 0 .1 3.5-4.8 8.8-3 3.3-5.5 6.2-5.5 6.4 0 .3 1.8 1.3 3.9 2.3l4 1.8 3.9-3.1c8.7-6.9 14.8-14.9 25.2-33.1 3.6-6.3 7-11.6 7.5-11.8.6-.2 7.5 5.1 15.4 11.8l14.3 12.2 2.9-3.3c2.4-2.6 3.2-3 4.4-2 2 1.7 1.9 3.7-.5 6.9l-1.9 2.8 6.1 5.8c6.5 6 7.5 6.6 15.1 8.6 6.2 1.6 14.2 8.6 15.7 13.7 2.6 9.6.6 16.8-6.8 24.1-6.5 6.4-14 10.4-22.9 12.1-8.1 1.6-24.9-.1-37-3.7-25.5-7.5-27.3-7.8-29.9-3.8-1 1.5-2.6 2.5-4 2.5-1.3 0-4.1.9-6.1 2-2.1 1.1-4.3 2-4.9 2s-3.2 1.1-5.7 2.5c-3.8 2.2-4.8 3.4-6.2 7.5-.9 2.7-2.5 6-3.6 7.4l-2 2.6H512V0H0zm277.1 39.6c17.5 8.6 29.2 13.7 42.4 18.3 6.7 2.3 12.7 4.6 13.5 5.1 1.2.7.9 2.6-1.9 11.7-4.8 15.6-7.4 20.9-11.4 22.3-6.2 2.2-23.4 4-38.4 4h-15.2l-1.6-5.8c-.9-3.1-2.4-8-3.3-10.7-1.3-3.9-1.7-8.8-1.7-22.5 0-19.4 1.4-28 4.5-28 1 0 6.9 2.5 13.1 5.6"/><path d="M160.9 260.8c1.7 3.1 16.4 16.7 25.6 23.8 21.2 16.3 41.5 31 41.5 29.9 0-.3-.8-2.2-1.9-4.3-2.4-4.8-14.1-37.7-14.1-39.7 0-.9-.6-3-1.4-4.8l-1.3-3.3-6.4.6c-8.9.9-32.5-.6-38.2-2.4-4.4-1.4-4.7-1.4-3.8.2m233.4 68.9c-2.3 2.6-3.2 4.4-2.9 5.9.4 1.6-.2 2.4-3.2 3.9-2 1-4.1 1.8-4.6 1.6-.4-.1-2.4 1-4.4 2.5-1.9 1.5-5.8 4-8.5 5.5l-5 2.7 4.7.7c12.6 1.9 24.5-1.6 31.9-9.4 5.8-6.1 6.9-14.3 2.1-16.2-4.4-1.6-6.5-1-10.1 2.8m-153.8 13.5c-.8 4.5-.4 5.1 5.8 8.7l3.7 2.3v-3c0-1.9-1.2-4.5-3.2-7-4.6-5.7-5.5-5.8-6.3-1m29.7 27.1c-.6.7-.8 3.7-.5 7.5l.6 6.2h15l-4-4.3c-2.1-2.3-4.8-5.7-5.8-7.5-2.1-3.4-3.6-4-5.3-1.9"/></svg>