<svg xmlns="http://www.w3.org/2000/svg" width="682.667" height="512" version="1.0" viewBox="0 0 512 384"><path d="M0 192v192l97.3-.1c75.6 0 96.8-.3 95.3-1.2-5-3.1-9.8-8.4-12.1-13.4-2.2-4.6-2.5-5.9-1.6-8.5 1-2.7.8-3.3-1.9-5.8-4.3-4-4.2-10.8 0-17.2l3-4.5-1.2-8.2-1.1-8.3-7.1-5.3c-3.9-2.9-9-7.2-11.3-9.6-4.3-4.6-11.7-15.8-14.6-22-2-4.4-5.3-18.2-6.2-26.2-.6-5.1-1-5.9-3.7-7.3-6.1-3.2-14.8-9.9-14.5-11.4.5-2.8 4.6-4 9-2.4 6.5 2.3 8.9 1.8 13.2-2.6 2.8-2.9 4.7-4 6.8-4 2.7 0 2.9.2 2.5 3-.4 2.5-.2 3 1.1 2.4.9-.3 3.5-1.2 5.8-1.9s7.4-3.1 11.4-5.4l7.2-4.2 8.8 4.5c14.8 7.4 22.4 8.1 36.9 3.2 13.5-4.6 26.8-2.4 19.9 3.4-1.5 1.2-1.9 1.9-1 2 .7 0 1.1.6.8 1.4s-.1 1.6.6 1.9c.7.2.2.9-1.2 1.6-3.7 2-18.2 7.1-20.2 7.1-1 0-2.1.5-2.4 1-1.8 3 21.6 28.1 39.5 42.4 18.2 14.6 16.1 13.6 28.9 13.6 6 0 14.4-.5 18.6-1.1 11.1-1.7 11.4-.6 2.5 8.5l-7.2 7.5 5.2 2.6c2.9 1.4 5.4 2.5 5.6 2.3 13.4-12 26.7-28.5 34.9-43.6 1.5-2.9 3.4-5.2 4.1-5.2 1.5 0 9.8 6.8 19.9 16.3 3.9 3.7 7.5 6.6 8.1 6.7.6 0 2.3-1.8 3.8-4 2.8-4.3 3.5-4.7 5.4-2.8s1.4 4.1-1.7 7.8l-2.8 3.5 8.3 7.4c6 5.4 9.5 7.8 12.6 8.6 7.9 2 16.2 9.7 17.4 16.1.8 4.5-.1 11.6-2.1 15.4-1.7 3.4-9.1 10.5-13.8 13.4-6.2 3.7-10.9 4.8-21.5 4.7-13.3 0-19.6-1.2-37.4-7.2-17.1-5.7-19.9-6-21.8-2.4-.7 1.4-2.1 2.5-3.1 2.5s-4 1.4-6.6 3c-2.6 1.7-6.1 3-7.7 3-5 0-7.7 2.1-9.8 7.5-2.6 6.7-5.8 10-9.1 9.1-1.3-.3-4.4-3-6.8-6s-5.2-5.5-6.1-5.6c-.9 0-2-.4-2.3-1-.9-1.5-4.2-1.2-4.9.5-.3.8-.3 4.4.1 8l.6 6.5H512V0H0zm276.6 36.4c12.6 6.9 31.5 15.2 46.8 20.4 6.5 2.3 12.1 4.4 12.4 4.7 1 1-3.9 17.1-7.6 24.5l-3.7 7.5-5.5 1.3c-5.7 1.4-44.1 2.9-48.2 1.9-1.7-.5-2.6-1.8-3.4-4.9-.6-2.4-2.3-8.4-3.8-13.3-2.6-8.4-2.7-9.8-2.2-21 .8-14.6 3-26.5 5-26.5.2 0 4.8 2.4 10.2 5.4"/><path d="M201.5 250.6c-19.4 5.1-35.4 6.5-44.1 3.9-6.4-1.9-7.5-1.9-4.3.3 1.4.9 6.1 5.4 10.3 9.9 8.7 9.2 18 16.9 40.1 32.8 16.4 11.9 26.3 18.5 27.7 18.5.5 0 .2-1.2-.6-2.8-2.9-5.7-13.5-39.2-16.1-51.2-1.5-6.9-3-12.8-3.3-13.1-.4-.3-4.7.4-9.7 1.7m196.3 81.8c-2.7 3.2-3.4 4.6-2.6 5.4.9.9-.1 1.7-3.8 3.4-2.7 1.3-8.5 4.3-12.8 6.7-7.3 4.1-7.7 4.5-5.5 5.4 4.3 1.6 18.9.3 23.7-2.2 4.8-2.4 10.3-7.4 12.1-10.8 1.9-3.6 1.4-10.1-.8-11.3-3.8-2-6.5-1.1-10.3 3.4M239.3 340l-.3 7.7 5.9 3.2c3.2 1.7 6.1 3.1 6.3 3.1 1.7 0-2.5-9.6-6.6-15-2.6-3.6-4.9-6.6-4.9-6.6-.1-.1-.3 3.3-.4 7.6"/></svg>