<svg xmlns="http://www.w3.org/2000/svg" width="682.667" height="512" version="1.0" viewBox="0 0 512 384"><path d="M0 192v192l97.3-.1c75.6 0 96.8-.3 95.3-1.2-4.8-3-11-9.6-12.7-13.5-2.3-5.3-2.4-7.4-.4-11.2 1.4-2.6 1.4-3 .1-3-2.6 0-6.5-4.4-7.1-8-.5-2.9 0-4.8 2.8-10 3.4-6.4 3.4-6.6 2.4-13.4-1.1-6.7-1.1-6.8-6.6-10.9-14.4-10.4-15.4-11.4-21.8-21-8.1-12-11.9-21.7-13.9-35-.8-5.6-1.8-10.4-2.2-10.7s-4.6-1.8-9.4-3.4c-4.9-1.5-8.8-3.1-8.8-3.6s.9-1.5 2.1-2.3c1.8-1.3 2.6-1.3 6.8.1 5.4 1.7 9.9 1 10.8-1.6.3-.9 2.1-3.6 4-6 2.7-3.3 4.1-4.2 6.5-4.2h3.1l-.7 5-.7 4.9 4.8-2.1c2.6-1.1 7.4-4.1 10.6-6.5 5.3-4.1 6.1-4.4 10-3.9 16.2 2.4 25.7 1.5 32.7-2.9 2-1.3 6.5-4.8 10-7.9 5.9-5.1 12.8-8.6 17.1-8.6 2.3 0 3.3 2.9 1.6 4.9-2.7 3.2-3.2 4.5-1.2 3.7 1.5-.5 1.6-.4.5.9-1 1.2-.9 1.5.5 1.5 4.3 0-8.2 8.9-22.5 16-4.7 2.3-11.4 5.9-15 8.1-13.8 8.1-28.7 12.4-41.7 11.8l-5.8-.2.2 4.7c.1 2.7.5 5.2 1 5.7s.7-.6.5-2.6c-.6-5 1.3-4.5 6.7 1.7 9.1 10.3 18.5 18.3 40.1 33.7 9.9 7.1 34.3 23.1 36 23.6 2.7.9 5.4 12.2 5.2 22.1l-.2 8.2 8 4.1c4.4 2.3 8 4 8 3.8 0-.3-.7-1.8-1.5-3.3-.8-1.6-1.5-3.7-1.5-4.7 0-.9-1.8-4.3-4-7.5-10-14.7-22.5-49.1-27.6-76.2-3.8-19.8-4-22.5-1.8-23.4 1.1-.4 2-.2 2.3.5.2.6 3 5.1 6.3 10 6.8 10.2 24 29 34.3 37.5 3.9 3.2 7.2 6.1 7.5 6.4 7.4 7.6 12.2 8.6 31.7 6.5 7.8-.8 14.7-1.6 15.4-1.7.7-.2 1.4.4 1.6 1.3.3 1.1-2.6 4.4-7.6 9-5.4 4.9-7.7 7.7-7.1 8.4.5.6 3.2 2.2 5.9 3.5l5 2.3 7.7-6.8c4.2-3.8 9-8.2 10.6-9.8 3.2-3.2 14.9-19.4 19.7-27.4 1.7-2.8 3.7-5.3 4.4-5.6.7-.2 6.6 4.4 13.2 10.4s12.6 10.9 13.3 10.9c.6 0 2.2-1.2 3.5-2.7 5-5.9 5.7-6.5 7.3-5.2 2.3 1.9 1.6 4.4-2.5 9.1l-3.9 4.4 9.5 8.4c6.3 5.7 11 8.9 13.7 9.7 5.5 1.6 14.1 9.3 15.6 14 .7 2 1 5.7.7 8.5-1.2 9.6-8 17.7-19.7 23.2-5.9 2.8-7.4 3.1-16.5 3.1-12.5-.1-21.7-2.2-38.1-8.6-13.4-5.2-20.5-6.3-22.2-3.3-.5.8-1.8 2.1-3 2.7-1.2.7-3.9 2.4-6 4-2.4 1.7-6.2 3.2-9.9 3.8-6 1.1-6.1 1.1-8.1 5.9-2.3 5.4-6 8.5-9.1 7.5-1.1-.3-4.1-3-6.7-6-4.1-4.6-5.1-5.3-7.4-4.8-1.7.3-3.7-.1-5.3-1.1-2.1-1.4-2.7-1.5-3.9-.3-1.1 1.1-1.2 2.9-.4 9.1l1 7.6H512V0H0zm277.2 33.6c16.5 9.3 42.3 20.5 54 23.4 7.1 1.8 7.5 2.7 4.9 11.7-1.2 4.1-3.6 10.7-5.3 14.4-3.5 7.9-3.6 7.9-18.9 9.9-8.1 1.1-38.2.1-39.5-1.3-.3-.3-2.3-5.6-4.5-11.8-3.5-10.2-3.9-12.4-3.9-21s2.2-25.8 3.6-28c.9-1.6 3.1-1 9.6 2.7"/><path d="M402.1 334.9c-2.2 2.6-3.8 5-3.6 5.3.3.3-1.4 1.3-3.7 2.3-2.4 1-5 2.4-5.8 3.1-.8.6-4.6 2.8-8.4 4.7l-6.9 3.5 5.7.7c12.8 1.6 22-1.2 29.5-8.9 4.2-4.3 5.6-12 2.6-14.3-3.2-2.2-5.2-1.5-9.4 3.6"/></svg>