<svg xmlns="http://www.w3.org/2000/svg" width="682.667" height="512" version="1.0" viewBox="0 0 512 384"><path d="M0 192v192h97.5c53.6 0 97.5-.2 97.5-.5 0-.2-1.7-1.3-3.8-2.4-2.1-1-5.8-4.1-8.4-6.9-6-6.3-6.9-11.2-3.9-19.2 1.2-3 2.1-5.8 2.1-6.2s-2-1.3-4.5-1.9c-5.1-1.3-8.5-4.8-8.5-8.8 0-1.4 1.4-5.5 3-8.9 2.9-6.1 2.9-6.6 1.6-10.5-1-2.9-2.4-4.8-4.7-6.1-10-5.7-20.9-13-23.6-15.9-11.6-12.3-20.7-28.3-24.2-42.6-3.9-15.7-2.4-24.5 5.1-31.2 2.4-2.2 3.2-4 4.2-10.3 1.4-7.8 2.8-10.6 5.3-10.6 2.8 0 9.6-4.2 14.3-9 5.2-5.3 6.8-9 9.9-23.4 1.7-7.9 1.7-9.4.5-12.9-1.6-4.6-1.8-14.5-.4-16.7.9-1.3 1.4-1.1 3.5 1.3 1.4 1.5 2.5 3.6 2.5 4.5 0 1.5.2 1.5 1 .2.7-1.1 1-.3 1.1 3 .1 3 .3 3.6.6 1.7.8-5.2 2.2-2.7 1.9 3.4-.4 5.7-1.5 9.3-1.7 5.3-.1-1.4-.3-1.3-.8.6-.5 1.6-.2 3.3.8 4.9.8 1.3 1.6 2.9 1.7 3.5s1.4 5.6 2.8 11.1 2.6 11.1 2.6 12.5c0 5.6-5.1 22.3-9 29.7-4.7 9-6 10.7-11.4 14.8-3.7 2.8-4.5 3-13.3 3-6.3 0-9.3.4-9.3 1.1 0 2.5 4.4 15.2 7.1 20.7 3.1 6 8.8 13.1 12.2 14.9 1.4.7.7-.8-2.2-5-5.7-8.1-9.5-22.3-5.5-20.8.9.3 1.7.6 1.9.6s1.8 2 3.5 4.5c3.6 5.3 15.9 15.7 28.5 24.2 16.3 10.9 36.4 23.3 44 27.1 7.5 3.6 7.6 3.7 9.2 9.2.8 3 1.9 5.9 2.4 6.4.5.6.9 5.2.9 10.3v9.3l7.1 3.5c6.6 3.4 17.3 6.4 18.5 5.3.3-.3-.9-2.6-2.5-5-1.8-2.6-3.4-6.7-3.9-9.9-.5-3-2.5-10.6-4.5-17-4.6-15-9.2-40-11.2-61.1-1.6-16.1-1.4-21.5.6-20.3.5.4.9.1.9-.5 0-1.9 1.7-.2 2.4 2.3 2 8.2 25.5 43.6 34.5 52.2l3.2 3 20.7.3c11.4.2 21.1.7 21.5 1.2 1 .9-7.8 8.9-15.7 14.3l-6 4 5.4 5c3 2.7 7.1 6 9.1 7.4l3.8 2.5 6.4-6.9 6.5-6.8-3.9-1.3c-4.1-1.4-4.7-2.7-2.6-5.6 1-1.4 1.7-1.5 4-.7 9 3.4 14.5-.5 33.7-23.4 6.2-7.4 10-10.3 10-7.8 0 .5 2.2 3.1 4.9 6 5.3 5.7 9 7 16.4 5.9 3.4-.5 5.4-1.7 9.2-5.6 4.6-4.7 5-4.9 6.7-3.3 1 .9 1.8 2.3 1.8 3.1 0 .9-3.8 5.3-8.5 9.8l-8.6 8.1 10.3 9.8c5.7 5.3 12.3 11.1 14.8 12.8 6.9 4.6 14.9 13.5 15.6 17.4 1.5 7.8-3.2 18.7-10.2 23.5-7.5 5.4-15.1 8.1-22.4 8.1-9.2 0-23.8-5.1-34.9-12.1-4.7-3-10.4-6.6-12.7-7.9l-4.1-2.3-6.8 6.5c-15.3 14.8-27.1 17.2-47.2 9.5-7.8-3-8.2-3-11.8-1.6-2.1.9-4.3 1.6-4.9 1.6-.7 0-3.3-2.1-5.9-4.6s-5.1-4.2-5.7-3.9c-.5.3-1 2.3-1 4.3 0 3.3.5 6.2 2.5 15 .4 1.6-.2 3-2.1 4.7l-2.7 2.5H512V0H0zm288.2 27.5c16 11 36.4 20.4 51 23.4 3.1.7 5.9 1.9 6.2 2.7.6 1.7-4.7 17.5-7.5 22.1-1.8 2.9-2.6 3.2-8.4 3.8-9.1 1-17.7.1-37.5-4l-7.5-1.5-2.9-5.3c-7.3-13.2-7.1-12.6-7.1-23.2.1-12.2 2.6-23.5 5.2-23.5.3 0 4.1 2.5 8.5 5.5"/><path d="M416.2 341.9c-2.3 2.2-8.1 5.8-12.9 8.1-7.4 3.6-9.6 4.3-14.6 4.2-3.3-.1-7.3-.4-9.1-.7-5.3-1.1-.9 1.2 7.7 4 4.3 1.4 9.7 2.5 12 2.5 7.3-.1 18.2-6.2 21.2-12 1.5-3 2.1-10 .8-10-.5.1-2.7 1.8-5.1 3.9"/></svg>