<svg xmlns="http://www.w3.org/2000/svg" width="682.667" height="512" version="1.0" viewBox="0 0 512 384"><path d="M0 192v192h196.5l-5.4-3c-8.6-4.7-14.1-12.2-14.1-19 0-1.6.8-5.2 1.9-7.9 2.3-6 1.1-8.5-4.3-9.5-4.2-.8-7.6-4.7-7.6-8.8 0-1.6 1.3-5.5 3-8.7 2.9-5.8 2.9-6 1.4-9.9-1.2-3-2.5-4.3-5.3-5.4-8-3.2-22.1-13-27.6-19.1-15.5-17.7-22.1-31-24.5-49.9l-1-8.1 3.3-6.1c2.3-4.1 4.3-6.4 6-7 1.5-.6 2.9-.7 3.2-.4s1 4.8 1.6 9.9c1.8 17.8 8.6 33 18.2 41.1 3.3 2.7 6.2 4.7 6.4 4.4.3-.3-1-2.4-3-4.8-4.6-5.7-6.4-9.5-8.1-16.8-1.3-5.3-1.3-6 .1-6 .8 0 2.7 1.4 4.2 3.2 1.4 1.7 5.5 6 9 9.5 9 9.1 45.4 32.9 66.1 43.3 7.5 3.8 8 4.2 9 8.2.6 2.4 1.7 5.6 2.5 7.3.9 2 1.3 5.2 1.1 9.5-.5 8.8.3 10.3 6.6 12.9 2.9 1.3 6 2.9 6.8 3.6 1.7 1.5 13.6 4.2 14.6 3.3.3-.4-1-3.3-3.1-6.6-3-4.9-3.6-6.8-3.5-10.8.1-2.7-1-8.9-2.4-13.9-6.6-23-12.2-77.5-8.4-81.3 1.6-1.6 2.8-1.5 2.8.3 0 4.7 25.6 47.2 31.9 52.9 2.5 2.2 13.4 3.6 29.9 3.6 11.4 0 14.2.3 14.2 1.4 0 1.9-7.2 8.3-15.3 13.5-3.7 2.4-6.6 4.7-6.5 5 .5 1.2 13.4 12.8 16.2 14.6l2.7 1.8 8.8-9 8.8-9-5.8-1.7-5.9-1.6 1.5-2.9 1.5-2.9 5.2 1.4c5.1 1.3 5.5 1.3 11.3-1.5 4.9-2.2 8.2-5.1 17.5-15l11.5-12.3 4 4.5c3.2 3.6 5 4.7 9.3 5.7 8.8 2 13.4 1 19.2-4.4 2.7-2.5 5.3-4.6 5.8-4.6 1.3 0 3.2 2.3 3.2 3.9-.1 2.8-8 10.3-19.9 18.8-1.5 1.1 23 23 30.7 27.6 1.9 1.1 3.8 2.9 4.3 4.1s2.1 3.6 3.5 5.5c3.4 4.7 3.9 7.7 2.5 13-2 7.7-5.8 12.9-12.2 17.1-8.2 5.3-17.2 7.6-24.3 6.2-10.3-2.1-21.2-7.1-32-14.8-13.7-9.6-17.7-11.3-16.9-7.1 1 5.2-18 18.7-28.3 20.3-6.1.9-15.2-1-25.2-5.3-7.7-3.3-8.6-3.5-12.3-2.4-5.2 1.6-6.7 1-11.2-4.4-2.1-2.5-4.4-4.5-5.1-4.5-2.2 0-2.5 4.9-.8 13.6.8 4.4 1.3 8.8.9 9.7-.3.9-2.3 2.5-4.4 3.6l-3.8 2 125.8.1H512V0H0zm144.6-53.4c1.9 1.5 3.4 2.3 3.4 1.8 0-1.8 3.9 6.5 5 10.7.6 2.4 3 7.5 5.2 11.2 11.6 19.8 14.1 31.7 10.3 49.7-3 14.1-5.1 15.6-21.3 14.7-5.9-.3-11.9-1-13.4-1.6L131 224v-11.8c0-6.6-.3-14.6-.6-17.8l-.6-5.9 3.8-2.2c5.3-3.1 7.5-5.1 10.7-9.8 2.3-3.4 2.7-5 2.7-11.1 0-5.8-.4-7.7-2.4-10.6-2.7-4-6.6-13.9-6.6-16.8 0-2.8 2.5-2.5 6.6.6m166.9 92.1c9.5 4.8 21.5 9.2 29.9 11 6 1.3 6.4 2.8 3.1 12.8-1.5 4.8-3.8 9.9-5.1 11.4-2.2 2.5-2.5 2.6-13.1 2.4-7.9-.1-14.4-1-24.2-3.2-7.3-1.7-13.4-3.1-13.5-3.1s-2.6-3.5-5.4-7.8c-7-10.5-8-15.5-5.9-28 .8-5.1 2.2-10.4 3.1-11.7l1.6-2.4 9.8 6.8c5.3 3.8 14.2 9.1 19.7 11.8"/><path d="M420.1 343.1c-4.8 4-15.8 9.6-21.4 10.8-4.3 1-11.3.2-21.7-2.5l-2.5-.6 2.4 1.8c4.2 3 16.2 7.4 22.1 8.1 4.8.5 6.6.1 11.9-2.2 7.1-3.2 11.7-7.9 12.7-12.9.9-5.2.2-5.7-3.5-2.5"/></svg>