<svg xmlns="http://www.w3.org/2000/svg" width="682.667" height="512" version="1.0" viewBox="0 0 512 384"><path d="M0 192v192h197.4l-6.3-3.2c-6.9-3.6-12.1-9.2-14-15.1-1.1-3.2-1-4.6.8-10.3 2.7-8.1 1.7-11-4.4-13.1-7.9-2.6-9.3-7.4-4.9-16.9 4.1-8.9 3.1-10.7-9.2-16.9-5.5-2.8-12.3-6.5-15.1-8.3-5.5-3.5-18.1-18.3-24-28.1-4.9-8.2-9.2-20.2-10.4-29.1-1-7.6-1-8.1 1.7-14.1 2.2-4.8 3.5-6.5 6.1-7.5 1.8-.8 3.4-1.4 3.6-1.4s.7 3.4 1.1 7.7c.9 9.6 5.4 24 10.1 31.8 3.9 6.6 9.9 12.5 15.8 15.6l3.8 2-4.7-5.8c-5.5-6.7-8.2-12.3-9-18.7-.8-5.3.3-5.9 3.7-1.9 8.3 9.3 17.9 17.6 28.9 24.8 17.6 11.5 33.9 21.1 45.4 27l9.8 5 2.4 6.5c1.6 4.2 2.6 9.4 2.9 14.9.3 4.7.8 8.8 1.2 9.2.5.4 3.2 1.7 6 2.8 2.9 1.1 6.1 2.9 7.2 4 1.9 1.9 10.5 3.6 14.9 2.9 2-.3 1.9-.6-2-6.3-3.9-5.8-4-6.2-3.5-12.1.4-3.9.1-8-.9-11.5-4.5-16.6-9.4-76.7-6.6-80.8 1.3-1.9 4.2-.7 4.2 1.7 0 6.5 26.2 50.5 30.7 51.7 4.5 1.1 21.1 2.5 30.5 2.5 5.3 0 9.9.4 10.2.8.8 1.3-6.1 7.4-15.2 13.4l-8.3 5.5 9.7 9.2c5.3 5.1 9.9 9.1 10.4 8.9.4-.2 5.7-5.1 11.8-11l11-10.6-4.6-1.1c-2.6-.7-5.9-1.6-7.4-2.2-2.6-1.1-2.7-1.2-1.3-4l1.5-2.8 5.2 1.6c4.3 1.2 5.9 1.3 9.3.3 6.1-1.8 12.9-6.6 19.4-13.6 3.2-3.5 7-7.3 8.4-8.4l2.5-2 2.9 2.3c1.5 1.3 4.2 2.7 5.8 3.1 1.7.4 5.3 1.4 8.1 2.2 6.8 2.1 11.4.8 18.2-5.2 4.3-3.8 5.5-4.4 6.7-3.4.8.7 1.5 2.2 1.5 3.3 0 2.8-9.1 11.4-17.3 16.3l-6.6 4 8.2 8c9.8 9.6 18.7 17.2 24.2 20.6 4.4 2.8 7.1 5.5 6.2 6.4-.3.3.6 2.2 1.9 4.1 6.9 10.3-2 27.6-17.2 33.3-3.6 1.3-7.9 2-12.4 2-11.8 0-22.7-5.2-39.1-18.5-4.8-3.9-9.2-6.6-11.3-7-4.5-.9-6.2.1-4.3 2.3 3.7 4.4 2 7-9.1 14.5-14.6 9.9-24.9 10-45.7.7-5.9-2.7-7.6-3-12.1-2.4l-5.2.6-4.2-5.3c-2.3-3-5.4-5.9-6.9-6.6l-2.6-1.1.3 4.1c.1 2.3 1 7.9 1.9 12.4 1.9 9.7 1.6 10.3-6.2 13.9l-5 2.4H512V0H0zm132-52.2c1.4.9 5 4.2 8 7.2 3.1 3 8.7 8.2 12.4 11.4 10.9 9.5 16 19.2 19 36.7 1.3 7.3 1.2 8.4-.2 11-1.2 2-2.5 2.9-4.2 2.8-7.2-.1-27.1-2.6-27.9-3.5-1-1-7.3-19.9-9.7-29L128 171l5.1-4.9c2.8-2.7 4.9-5.6 4.7-6.4-.1-.8-3.1-3.7-6.5-6.5-6.2-5.2-12.8-13.4-11.6-14.6 1.4-1.3 9.9-.5 12.3 1.2m161.7 77.6c15.1 11 36.3 20.8 50 23.1 2.4.4 4.6 1.1 4.9 1.6.7 1.2-3.1 14-5.7 19-1.5 3-2.5 3.7-5.7 4.3-5.6.8-17.7-.8-32.5-4.6l-12.8-3.2-5-6.4c-6.3-8-7.9-11.7-7.9-18.5 0-9.2 2.8-21.7 5-21.7.5 0 4.9 2.9 9.7 6.4"/><path d="M423.1 344.3c-2.3 2.9-11.5 7.6-18 9.2-6.7 1.8-10.3 1.4-23.1-2.5-3.5-1.1-6.6-1.8-6.8-1.5-.8.8 11.1 7.7 17.4 10.1 7.4 2.8 12.4 3 18.5.9 8.4-3 14.6-10 13.7-15.8-.3-1.9-.4-1.9-1.7-.4"/></svg>