<svg xmlns="http://www.w3.org/2000/svg" width="682.667" height="512" version="1.0" viewBox="0 0 512 384"><path d="M292 1.9c-.5 1.1-1 2.7-1 3.6 0 1.3-.5 1.5-2.2.8-1.3-.4-5.9-.8-10.3-.8-8.4.1-12.5 1.5-16.4 5.7l-2 2.1-1.2-2.5c-.6-1.4-2.1-3-3.4-3.6-4.9-2.3-14.8-3.5-23.8-2.9-14.4.8-37.2 8.9-34.1 12 .4.4.2 1.2-.4 2-1.4 1.7-1.1 5.8.5 7.5.7.7 1.3 2.2 1.3 3.1 0 1 .7 2.4 1.5 3.1s1.5 1.7 1.5 2.3.9 3.1 2.1 5.6c1.1 2.5 2.6 5.9 3.3 7.6 3.4 7.8 4.7 10.1 8.4 15.3 2.6 3.6 6.3 4.2 9.6 1.7 1.1-.8 2.2-1.5 2.6-1.5.3 0 .6 3.5.7 7.7 0 4.3.2 9.8.3 12.2.1 4.6 2.5 9 4.9 9.1 2 0 1 10.9-1.2 12.5-1 .7-1.7 2.6-1.7 4.8 0 3.3-1.3 14.9-2.6 22.4-.3 2.4-.1 3.3.9 3.3.9 0 1.6 1.6 2.1 4.6 1 7.5.7 10.5-1.3 14.8-1.1 2.3-2.9 9-4.1 15-1.1 5.9-2.2 11.2-2.5 11.6-.2.4-2.7 1-5.4 1.4-10 1.3-12.8 8-7.1 17l3.1 4.8-2.9 7.6c-1.6 4.3-3.5 9.5-4.2 11.7-2.6 8.7-21 51.1-27 62.5-.6 1.1.1 3 2.1 6 3.5 5.1 3.4 5.9-1.6 17-4.4 9.9-5.1 13.9-3.1 17.9 2.2 4.1 5.6 6.2 13.5 8.2l6.5 1.6 3.1 10.4c1.7 5.7 4.5 13.5 6.3 17.3l3.2 6.9-2 5.4c-1.1 2.9-2 5.8-2 6.3 0 .6 28.6 1 77.6 1h77.6l-.6-2.8-.6-2.7 1.5 2.7 1.6 2.8H378c8.3 0 15-.3 15-.8 0-.4-1.3-5.9-2.9-12.2-1.7-6.9-2.5-11.9-2-12.6 2-2.5 2-10.4 0-22.7-2.8-17.3-2.8-17.4 2-22.3l4.1-4.1-2-3.9c-1.1-2.2-7.4-16.6-14-32.1-10.4-24.1-12.7-30.5-16.2-44.6-2.2-9.1-4-17.2-4-18.1s1.6-4.8 3.6-8.7c4.3-8.6 3.8-9.5-4.6-9.1-3.2.1-6.1-.2-6.5-.8-.9-1.5-3.2-15.7-4-25-.4-4.7-1.2-9.6-1.7-11-1.3-3.4-5.3-7.5-10.8-11-4-2.5-4.8-3.7-5.9-8-.7-2.8-1-5.4-.7-5.7s-.1-1.1-.9-1.7c-.7-.6-1.6-2.9-2-5.1l-.6-4 2.1 3.7c2.6 4.8 3.4 4.9 1.4.2-1-2.3-1.2-4-.5-4.7.5-.7 1.2-5.9 1.6-11.7.7-10.9 4-27 5.8-28.1.5-.4 2.7-1 4.8-1.3 3.9-.6 5.9-2.8 5.9-6.4 0-1.1-2.5-5.4-5.5-9.7-3-4.2-5.9-9.3-6.4-11.4l-.8-3.7 6.1.8c9.5 1.3 11.3.4 10.8-5.5-.1-.9.3-1.7.9-1.7s.9-.8.8-1.8c-.2-.9.2-2.6.8-3.7s.9-3.4.7-5c-.2-1.7.2-4.1.8-5.3 1-1.9.9-2.9-.4-5.2s-1.4-3-.2-4.1c.9-1 1.1-2.4.5-5.1-.5-2.2-.5-4 .1-4.6s.8-2.2.4-3.6L353 0h-30c-28.6 0-30 .1-31 1.9m-51 136.3c0 1.3-.7 3.2-1.5 4.2-1.6 2.2-1.8 1.5-.9-3.3.7-3.6 2.4-4.2 2.4-.9m87 1.9c0 .6-.4.7-1 .4-.5-.3-1-1.1-1-1.6 0-.6.5-.7 1-.4.6.3 1 1.1 1 1.6m-2 84.4c.1 12.8 1.8 43.3 3.1 54.8.6 5.4.9 10 .7 10.3-.3.2-2-1.7-3.8-4.2-2.6-3.6-3.1-5-2.3-6.3.8-1.1.7-2.4-.4-4.4-.8-1.6-1.2-3.5-.9-4.2.2-.7-.1-5.1-.9-9.7-.8-5.2-1-10.2-.5-13.3.4-2.8.8-10 .9-16 .1-6.1.4-12.9.7-15.3.6-3.8.8-4.1 2-2.5.9 1.2 1.4 4.9 1.4 10.8"/></svg>