<svg xmlns="http://www.w3.org/2000/svg" width="682.667" height="512" version="1.0" viewBox="0 0 512 384"><path d="M0 192v192l100.8-.1h100.7l-5.9-2c-10.7-3.6-16.9-8.9-19.1-16.1-1.2-4.1-1.2-5.4.2-10.2 1.5-5.3 1.5-5.7-.7-11.3-2.9-7.1-3.7-8.3-6.2-8.3-1.1 0-3.3-1.4-5-3-3.4-3.5-3.3-4.8.8-13.9 2.2-5 2.3-5.5.8-7.2-.8-.9-3.9-2.3-6.7-2.9-5.9-1.4-22.2-9.4-28.4-14-5.1-3.7-21.9-23.5-26-30.5s-7-14.9-8.3-22.4c-1-5.8-.9-6.8 1.5-13.6 2-5.5 3.3-7.6 5.3-8.5 2.2-1 2.8-.9 3.9.6.7 1 1.3 2.9 1.3 4.2 0 4.1 3.8 15.2 7.8 22.9 5.1 9.8 11.9 17.5 19.5 21.7 5.9 3.3 11.7 5.9 11.7 5.3 0-.2-2.3-2.8-5.1-5.8-5.7-6-8-10-10.2-17.7-2.3-7.5-.5-6.9 10 3.7 4.8 4.8 12.6 11.3 17.3 14.4 13.6 8.8 42.7 24.8 52.5 28.8 6.2 2.5 9.4 4.5 10.2 6.1 3.8 7.3 5.3 11.9 5.3 15.9 0 2.4.3 6.1.6 8.1.6 3.4 1.1 3.9 4.8 4.9 6 1.5 9 3.2 9.4 5.2.3 1.3-.4 1.7-3.5 1.8-3.7.1-3.7.2 1.7 1.5 3 .8 8.8 1.5 12.8 1.5 6.5.1 7.4.4 8.2 2.3 1.2 3.1 6 23.8 6 25.8 0 2.3-7.7 6.7-17.5 10l-8 2.7h134.8l134.7.1V0H0zm143.5-81.6c10.5 2.5 17 6.2 21.7 12.1 2.3 3 5 7.6 6.1 10.2 2.3 5.9 3.2 14.4 1.6 15.3-.6.4-3.4.1-6.3-.6-5.7-1.5-20-2-26.1-.9-2.2.4-11 3.4-19.5 6.6-16.5 6.1-24.7 8.5-25.7 7.5-.3-.3.8-4.3 2.5-8.8 6.8-17.9 11.4-33.7 10.7-36.8-1.2-5.5.2-6 15.4-6 8.2 0 16 .6 19.6 1.4m155.1 102.1c4.1 3.6 8.4 7.1 9.7 7.8 1.2.8 4.9 3 8.3 5 7.6 4.6 20.3 9.3 29 10.8 4 .7 6.8 1.7 7.1 2.6.7 1.8-2.3 13-4.3 16-1 1.6-2.4 2.3-4.7 2.3-4.9 0-17.7-2.7-24.3-5.1-6.3-2.2-18.6-7.9-19.4-8.8-.3-.4-2.5-2.2-5-4-6.6-5-8.1-7.5-8.7-14.1-.7-7.6 1.9-19 4.4-19 .3 0 3.8 2.9 7.9 6.5m-26.1 39.4c2 5.3 6.3 15.1 9.7 21.8l6.2 12.2 5.1 1.2c2.7.6 11 1.6 18.4 2.3 8.3.7 13.6 1.5 13.8 2.2.5 1.6-6.7 7.2-14.9 11.8-3.7 2-6.9 4-7.2 4.4-.6 1 7.3 11.5 14.7 19.6l5.3 6 10-9c5.4-4.9 11-9.9 12.4-11.2s5.1-4.4 8.3-6.9c3.1-2.5 5.7-4.9 5.7-5.2 0-.4-4-1.8-8.9-3.1-10.6-2.8-14.2-5-12.5-7.7 1.3-2 3-2 11.7-.3 5 1.1 6.5 1 10.5-.5 5.5-2.1 15.3-8.8 20.1-13.9 3.9-4 5.1-4.3 8.5-2.1 3.8 2.5 16.7 6.5 21.1 6.5 3.5 0 5.5-.9 11-4.9s7.2-4.8 8.7-4c2.9 1.6 2.1 4.2-2.9 9-5.4 5.2-12.5 9.4-22.8 13.4-3.8 1.5-7.2 2.9-7.4 3.1-1.2 1.1 20.3 23.9 28.9 30.5 2.5 1.9 7.1 5.1 10.3 6.9 6.1 3.7 6.6 4.4 4.1 7.1-1.4 1.6-1.4 2 0 4.8 2.1 3.9 2 5.9-.4 12.4-3.9 10.4-17.5 19.7-28.7 19.7-9.7 0-26.5-11.2-38.4-25.6-5.2-6.3-9.1-8.6-11-6.7-.6.6-4 .8-7.9.5-6.5-.4-6.9-.3-8.5 2.2-2.1 3.1-2.2 3 5.8 7.6 4.9 2.8 6.3 4.2 6.5 6.3.3 2.2-.5 3.1-5 6-12.5 7.8-23.9 10.3-34.3 7.2-6.3-1.8-24.9-10.8-26-12.5-.3-.5-2.8-1-5.6-1H282l-4.6-7.2c-2.6-3.9-6.2-8.5-8.1-10.2s-5.5-5.7-7.9-8.9c-5.5-7.3-5.8-11.7-1.5-19l2.8-4.8-.5-26.2c-.5-30.5.7-47.4 3.5-49.5 1.6-1.2 1.9-.9 2.6 2.4.4 2 2.3 8 4.2 13.3"/><path d="M380.9 345.7c2.5 4.8 12.3 14.1 17.5 16.7 4.9 2.5 6.4 2.8 11.6 2.3 7-.6 13.3-3.9 16-8.3 3-4.7 2.5-5.3-3.2-3.3-2.9 1-7.2 1.8-9.4 1.9-3.8 0-20.3-5.2-29.7-9.4-3.6-1.6-3.8-1.6-2.8.1"/></svg>