<svg xmlns="http://www.w3.org/2000/svg" width="682.667" height="512" version="1.0" viewBox="0 0 512 384"><path d="M0 192v192l101.8-.1c98.5 0 101.5-.1 95.7-1.8-12.4-3.6-19.5-9.2-21.6-17.2-1-3.9-1-5.4.5-9.7 1.1-3.7 1.3-5.7.6-6.9-.5-1-2.1-4.4-3.4-7.6-1.8-4.2-3.2-6-5.3-6.8-6.8-2.6-8-7.2-4.1-16.1 2.8-6.5 1.9-7.9-5.8-9.5-3.2-.6-10.8-3.5-16.9-6.4-9.9-4.8-12-6.2-21.2-15.3-17.6-17.3-24.2-28.1-28.1-46.1-1.1-5.3 2.8-17.8 6.4-20.2 3-1.9 5.4-1.1 5.4 2.1 0 3.4 3.7 15.1 6.7 21.1 4.7 9.4 13.1 19.3 19.7 23.1 6.5 3.8 15.6 7.8 15.6 6.8 0-.4-2.7-3.5-5.9-7-5.7-6.1-10.1-14.5-10.1-19.5 0-2.9 2.1-1.5 12.5 8.8 9.6 9.5 14.7 12.9 42.5 28 14.4 7.9 32.4 16.3 34.8 16.3.6 0 1.6 1.7 2.2 3.8.7 2 2 5 3 6.7 1.1 1.8 2 6.1 2.3 10.9.6 8.8 1 9.2 7.7 10.2 4.9.7 7 1.9 7 4 0 .9-1.9 1.4-6.7 1.6l-6.8.3 7 1.9c3.9 1 10.8 2 15.5 2.3s9 1 9.6 1.5c.7.4 1.4 2.3 1.8 4.1.3 1.7 1.8 7.6 3.2 12.9 3.2 11.3 3.1 11.4-5.5 15.8-5.1 2.5-16.8 6.2-23.1 7.3-1.4.2 59.9.5 136.3.6l138.7.1V0H0zM141.3 87.8c4.2 1.8 7.5 4.4 11.7 9 8 8.7 16.4 24.2 14.2 26.4-.4.4-4.6 1.9-9.4 3.3-12.4 3.5-21.6 8.5-33 17.9-5.4 4.5-12.2 10-15.1 12.4-7.2 5.9-11.4 8.3-12 6.9-.2-.7 0-13 .5-27.5.9-23.5.8-27-.7-33.3-.9-3.8-1.4-7.6-1.1-8.4.7-2 10.1-6.2 19.1-8.5 8.9-2.4 17.8-1.8 25.8 1.8m160 123.9c12.3 11.5 30.2 20.5 46.3 23.5l6.6 1.2-.5 4.7c-.7 6-3.1 11.7-5.3 12.6-3.2 1.2-18.2-1.7-27.6-5.3-10-3.8-16.2-7.3-24.7-13.7-6-4.6-8.1-8.5-8.1-15 0-6 2.7-14.7 4.5-14.7.9 0 4.8 3 8.8 6.7M274 239.4c0 3.2 8.9 27.7 13.3 36.6 4.9 9.9 5.3 10.2 21.3 11.9 16.8 1.9 18.4 2.2 18.4 3.4-.1 1.6-7.3 6.8-14.7 10.6-3.4 1.7-6.5 3.5-6.8 4.1-.4.6 1 3.6 3 6.7 4.6 6.9 15.5 20.3 16.6 20.3.4 0 3.1-2.2 6.1-4.8 7.2-6.5 25.3-22 30.6-26.2 2.3-1.8 3.9-3.7 3.5-4-.5-.4-4-1.5-8-2.5-7.8-2-15.5-5.4-16-7-.2-.6.3-1.9 1.1-3 1.3-1.8 1.5-1.8 7.2 0 3.3 1.1 7.6 1.9 9.7 1.8 5-.1 14.9-5.2 23-11.9 6.5-5.4 8.5-6.2 10.2-4.5 2.1 2 17.8 7.1 22 7.1 3.6 0 5.6-.9 11-4.6 7.2-4.9 9.8-5.3 10.3-1.4.8 5.2-12.6 14.3-29.6 20-5.5 1.9-8.6 3.4-8.4 4.2.2.7 1.5 2.9 3 4.8 9.9 13.2 27.2 29.1 37.4 34.5 6.1 3.2 6.6 4.7 3.1 8.7-1 1.1-1.1 1.8-.4 2.3.6.3 1.1 2.8 1.1 5.6 0 18.7-24.1 32.7-40.5 23.6-8.2-4.5-19.6-14.9-26-23.6-5.3-7.2-6.3-8.1-8.5-7.5-2.9.7-5.1.7-10.6 0-3.8-.5-4.2-.3-7.7 3.9-2 2.4-3.7 4.6-3.7 4.9 0 .2 2.6 1.9 5.7 3.7 12.5 7.2 12.5 9.3-.4 15.6-9.7 4.8-9.9 4.8-19.8 4.8-9.6 0-10.3-.1-18.5-4.1-4.7-2.2-11.6-6-15.4-8.3-4.3-2.6-7.6-3.9-8.7-3.6-3.1 1-5.7-1.2-10-8.7-2.3-3.9-6.7-9.6-9.9-12.7-3.1-3.1-6.9-7.8-8.4-10.4-3.5-5.9-3.1-8.9 2.1-16.6l3.6-5.5.8-23c1.1-32.5 2.4-45.4 4.6-47.6 2-1.9 3.3-.9 3.3 2.4"/><path d="M387.6 350.7c6.3 8.6 8.2 10.4 13.6 13.3 8 4.3 21.2.9 25.8-6.4 1.2-2.1 2-3.9 1.8-4.1s-2.7.3-5.6 1.1c-5.1 1.5-5.6 1.5-14.5-1-5.1-1.5-13-4.4-17.5-6.6-4.6-2.2-8.6-4-8.8-4s2.1 3.5 5.2 7.7"/></svg>