<svg xmlns="http://www.w3.org/2000/svg" width="682.667" height="512" version="1.0" viewBox="0 0 512 384"><path d="M0 192v192l103.8-.1c57-.1 102.8-.3 101.7-.5-10.7-2.1-13.6-2.9-17.6-4.9-10-5.1-14.3-13.5-11.9-23.3 1.1-4.6.9-5.1-2.9-13.5-3.3-7.2-4.6-9-7.5-10.4-5.5-2.6-6.2-5.6-3.1-13.7 1.4-3.8 2.2-7.3 1.8-7.7s-4.2-1.5-8.3-2.3c-4.7-1-12-3.8-19.6-7.6-11.1-5.4-13-6.7-21.4-15.2-15.6-15.9-22.8-26.9-26-39.8l-1.9-7.5 2.3-7.9c3.4-11.9 8.4-14.2 10.5-4.9 2.4 11 9 23.7 17 32.4 4.6 5.1 7.3 7 14.6 10.5 14.4 6.7 14.8 6.7 7.6-1.2-7-7.7-8.2-9.6-10.4-17-1.5-5-1.5-5.1.4-4.7 1.9.5 3.7 2.2 8.3 7.9 3.7 4.6 15.8 13.4 27.6 20.2 16.7 9.6 41.4 21.8 48.1 23.8 5.4 1.7 6.3 2.3 7.5 5.4.8 1.9 2.3 5.3 3.4 7.5 1.1 2.3 2.1 7 2.3 10.9.3 4.2 1 7.2 1.8 7.7.8.4 3.7 1.1 6.6 1.5 4.9.6 7.1 2.3 5.8 4.4-.3.4-4.9.6-10.2.4-9.7-.4-9.8-.4-5.8 1.1 6.7 2.6 23.7 5.7 29.5 5.3l5.5-.3 1.2 4c.7 2.2 2.7 8.4 4.4 13.8 3 9.6 3.1 9.9 1.3 11.9-3.9 4.2-18.2 9.8-31.6 12.2-6.3 1.2 12.8 1.4 135 1.5l142.2.1V0H0zM121.5 66.2c11.5 5.8 28.5 21.3 33 30.2l2 3.8-2.5 1.6c-1.4.8-7.2 6.3-13 12.2-7.8 8-12.2 13.4-17 21.5-17 28.1-20.2 31.6-21.6 23.5-3.7-21-14.6-63.4-20.1-77.6-.6-1.7 8.9-10.9 16.2-15.7 5.7-3.6 6.3-3.8 11.5-3.2 3 .4 8.2 2.1 11.5 3.7m181.4 144c9 8.6 19.5 15.3 30.6 19.5 7.7 2.9 9.7 3.5 17.8 4.8 3.3.5 3.7.9 3.7 3.6 0 4.3-2 11.7-3.5 12.9-1.8 1.5-18.3-1.4-27.6-4.8-9.6-3.6-23.2-11.8-28.3-17-2.5-2.7-4.1-5.4-4.6-8-1.2-6.8 1.1-18.2 3.8-18.2.2 0 3.9 3.3 8.1 7.2m-18.3 47.3c2.5 7.7 5.9 16.9 7.7 20.5l3.3 6.5 6.4 1.2c3.6.6 10.8 1.6 15.9 2.2 5.2.6 9.9 1.5 10.4 2 1.3 1.3-5.9 6.4-15.1 10.7-6.8 3.3-7.1 3.6-6 5.7 3.3 6.3 9.5 15.6 14 21.2l5 6.3 9.2-7.6c27.5-22.8 36.6-30.7 36.6-31.5 0-.5-.7-.7-1.4-.4-1.6.6-17.7-4.3-22.6-6.8-3.9-2-4.3-2.9-2.2-5.4l1.7-2.1 6.3 2c3.5 1.1 8 2 9.9 2 4.6 0 14.2-4.7 22.3-10.9 3.6-2.8 7-5 7.5-5.1.6 0 2.8.9 5 2 6.4 3.2 17 7 19.4 7s7.6-2.5 14.8-7c4.2-2.7 4.8-2.8 6.4-1.4 5.9 5.3-11.7 17-34.6 22.8l-8.4 2.1 5.2 7.1c11.7 15.9 26.5 30 38.4 36.5 6.7 3.6 7.8 5.8 4.2 8.3-1.7 1.1-2 2-1.4 4.5 1.1 5-.4 10.6-4.5 17-3.2 4.9-4.9 6.4-10.2 9-7.4 3.7-15 4.9-20.2 3.1-7.9-2.6-21.4-15-29.7-27.3-3.3-4.8-6.1-8.7-6.4-8.7-.2 0-1.5.5-2.9 1.1-2 .9-3.2.8-6-.5-4.7-2.2-5.1-2.1-8.2 1.9-1.5 2-4.4 4.6-6.6 5.9l-3.9 2.3 4.8 3.5c2.6 1.9 6.2 4.3 8 5.3 4.1 2.4 6.1 5.9 4.4 7.9-.7.8-4.5 2.8-8.4 4.4-17.4 7.2-26.9 6.6-44.2-3-6-3.4-12.4-7.2-14.1-8.5-1.7-1.2-4.4-2.3-6-2.3s-3.4-.4-4-.8c-1.1-.7-5.2-7.6-8.5-14.3-1-2-3.3-4.8-5.2-6.2-1.9-1.5-5.6-5.4-8.1-8.8-6.1-8-6.2-11.4-.6-19.2 2.2-3 4-6.4 4-7.5 0-1 .7-4.1 1.5-6.8.9-2.7 2.4-13.9 3.5-24.9 2.7-28.5 3.6-33.7 5.7-35.3 1.6-1.2 1.9-.9 2.6 2.5.5 2.1 2.9 10.1 5.3 17.8"/><path d="M386 342.6c0 1.3 8.3 14.4 11.5 18.1 2 2.4 5.3 4.7 8.1 5.8 4.6 1.8 4.8 1.8 11.6-.4 5.6-1.8 7.3-2.9 9.3-5.9 1.4-2 2.5-4 2.5-4.3 0-.4-2.7-.5-5.9-.2-6.9.6-15.1-2-28.8-9.3-4.6-2.4-8.3-4.1-8.3-3.8"/></svg>