<svg xmlns="http://www.w3.org/2000/svg" width="682.667" height="512" version="1.0" viewBox="0 0 512 384"><path d="M0 192v192h512V0H0zM90 48.6c12 3.5 38.5 19.2 47.6 28.1 2.5 2.4 4.1 4.3 3.7 4.3-.5 0-1.3.9-1.8 1.9-12.2 24.1-14.7 30.6-17.5 46.6-3.2 18.3-5 23.9-7.6 25.2-2.9 1.3-3.2.9-13-18.7-3.7-7.4-11.2-21.4-16.7-31S73.1 84 71.2 79.6c-3.2-7.4-3.4-8.3-2.2-11.5C71.4 61.3 81.6 47 84 47c.4 0 3 .7 6 1.6m215 160.7c4.1 4.1 11.1 9.6 15.5 12.4 8.2 5.1 22.4 10.6 30.8 11.8 2.6.4 5 1.1 5.3 1.6.6 1.1-1.3 10.8-2.5 12.8-.8 1.2-2.3 1.2-10.2.1-11.7-1.6-24.3-6.4-35.1-13.4-13.1-8.4-17.8-15.2-16.4-23.7.8-4.8 2.6-8.9 4-8.9.6 0 4.4 3.3 8.6 7.3M94.4 220.7c.2 1 .8 3.4 1.1 5.3 1 4.9 6.7 16.2 11.9 23.5 7.8 10.9 15.5 16.4 28.1 20 3.3 1 6.5 2 7.2 2.2.7.3-1.9-2.7-5.6-6.5-5-5.1-7.4-8.5-9-12.6-4.1-11-2.5-11.2 7.2-1.3 4 4.1 9 8.8 11.3 10.5 10.1 7.7 52.6 29.6 64.5 33.3l6.7 2 3.2 6.6c2.3 4.7 3.5 8.8 4 13.8.4 4 1 7.7 1.4 8.4.4.6 2.9 1.1 5.6 1.1 4.6 0 8 1.7 8 4 0 .5-5.7 1.1-12.7 1.2l-12.8.3 11 2.9c8.4 2.2 13.6 3 22 3.2l11 .2 1.6 4.9c.9 2.6 3.1 9.1 4.8 14.3l3.2 9.4-2.3 1.8c-6.5 5-22.1 10.9-33.8 12.8-9.5 1.5-27.5 1.2-34.8-.5-17-4-24.9-13.9-21.4-26.7.9-3.3.6-4.5-3-12-2.8-5.9-5.5-9.6-9.1-13l-5.1-4.7 1.2-4.8c.7-2.6 2-6.1 2.8-7.7s1.1-3.3.7-3.6c-.5-.4-4.1-1.2-8.2-1.9-9.3-1.5-26.3-8.7-34.7-14.6-6.3-4.5-20.7-19.4-26.4-27.3-3.8-5.3-7.4-12.9-9.6-20.5-1.6-5.5-1.6-6.2.1-13.8 1.4-6 2.5-8.5 4.3-10 3.1-2.4 4.9-2.4 5.6-.2m190.9 20.8c1 6.8 7.1 27.3 10.5 35.1 3.5 8 2.8 7.6 21 10.1 8.4 1.1 12.2 2 12.2 2.9 0 1.7-3.9 4.3-13 8.9-4.1 2.1-7.6 3.9-7.8 4-.6.5 10.1 18.8 14.6 25.2l4.5 6.2 7.6-5.9c4.2-3.3 11.4-9.1 16.1-13 4.7-3.8 12.8-10.5 18-14.7l9.4-7.7-3.9-.8c-10-2.1-25.4-8.1-26.9-10.6-.2-.4.3-1.8 1.2-3l1.7-2.2 7.5 2.6c5.3 1.8 8.6 2.4 11.3 1.9 4.8-.7 15.8-6.2 22-10.9 4.6-3.5 8-4.5 9.1-2.7.3.5 4.8 2.6 9.8 4.6 11.3 4.5 14.1 4.3 24-1.6 5.4-3.2 7.5-3.9 8.7-3.2 2.9 1.8 2.3 4.2-2.1 8.3-7.2 6.7-22.6 12.9-37.2 14.9-3.7.6-7 1.2-7.3 1.5-.3.2 1.9 4 4.8 8.3 10.8 16.1 28.3 33 40.7 39.2 3.4 1.7 6.2 3.5 6.2 4s-1.1 2.3-2.5 3.9c-2 2.4-2.5 4.1-2.5 8.3 0 4.1-.7 6.6-3 10.5-8.2 14.5-24.6 19.5-36.6 11.4-8.7-5.9-17.7-15.9-23.3-25.8-5.1-9-6.3-10.3-7.6-8.2-1 1.6-3.3 1.2-6.4-1.1l-2.8-2.1-5.1 5.1c-4.6 4.6-5.6 5.1-9.4 5.1-2.4 0-5.6-.7-7.2-1.5-1.5-.8-3.1-1.5-3.4-1.5-1.6 0 12.9 13.6 17.8 16.7 3 2 5.6 3.6 5.7 3.7.1 0 .4 1.3.8 2.9.7 2.6.4 2.9-5.8 5.7-10.9 4.9-18.7 6.5-26 5.1-3.4-.7-7.5-1.7-9.2-2.3-4.4-1.7-19.2-10.6-25.2-15.1-2.9-2.1-5.7-3.6-6.3-3.2q-3.45 2.1-8.4-7.2c-2-3.7-4.1-8.1-4.6-9.9-.7-2-2.5-4.1-4.5-5.2-3.8-2.3-11.1-11.1-13.2-16-1.6-3.8-.5-7.2 4.6-14.2 1.7-2.4 3.1-5 3.1-5.8 0-1.8 4.7-17.4 6.6-22.2.8-1.9 1.8-6.7 2.3-10.5 2.2-17.2 4.4-30.1 5.3-31.3 2-2.4 3.5-1.2 4.1 3.3"/><path d="M391.1 347.2c4.6 9.2 9.4 16 13 18.7 6.2 4.6 18.9 1.8 23.7-5.2 1.2-1.8 2.2-3.6 2.2-3.9 0-.4-2.9-.4-6.4-.1-5.3.4-7 .2-9.3-1.4-1.5-1-4.1-2.5-5.8-3.2-1.6-.7-6.7-3.5-11.2-6.2s-8.5-4.9-8.8-4.9.9 2.8 2.6 6.2"/></svg>