<svg xmlns="http://www.w3.org/2000/svg" width="682.667" height="512" version="1.0" viewBox="0 0 512 384"><path d="M0 192v192h512V0H0zM71 42.5c6.7 2.4 34 14.1 44.1 18.9 8.3 3.9 8.4 4.2 6.8 13.4-.8 4.2-1.4 13.8-1.4 21.2.1 11.5.5 15 2.8 23.5 3 10.9 3.6 19.5 1.4 19.5-.8 0-1.8 1-2.4 2.2-.9 2.2-1.6 1.7-11.4-8.3-17.8-18.1-45.1-48.5-49.6-55.4-6.7-10.1-7.5-12.9-5.6-21.7 2.1-10.2 5.1-17.1 7.2-16.2.9.3 4.5 1.6 8.1 2.9m234.8 165.3c11.7 12 29.5 21.7 45.2 24.6l6.5 1.2-.2 5.4c-.4 7.9-1.1 8.3-11.9 6.5-5-.8-12.9-2.9-17.5-4.6-9.1-3.5-23.3-12.5-28.9-18.3-3.1-3.3-3.5-4.3-3.8-10.5-.4-6.7.8-11.1 2.9-11.1.6 0 4 3.1 7.7 6.8M89.1 221.1c.4.8 1.4 3.5 2.2 6.1 3.5 11.6 17.1 30 26.1 35.3 3.7 2.2 14.8 6.2 22 7.9 2.5.6 2.1 0-3.1-4.8-5.6-5.2-10.4-12.8-11.9-18.9-1.1-4.6 1.6-3.2 10.6 5.6 10.6 10.2 15.6 13.6 37.3 24.6 19.7 10 34.8 16.7 40 17.6 4.1.8 4.8 1.5 6.7 6.5.7 1.9 1.9 4.2 2.6 5.1.8.8 1.6 4.7 2 8.6s1 7.7 1.4 8.4c.5.7 3.3 1.4 6.4 1.7 5.9.5 9.2 2.6 6.5 4.3-.8.5-7.9.9-15.9 1-14.3.1-14.4.1-9.5 1.5 12.4 3.6 28.4 6.4 36.6 6.4h8.6l4.7 13.2c2.5 7.3 4.6 13.8 4.6 14.4 0 1.8-9 7.2-17.3 10.4-25.6 9.8-58.1 8.6-70-2.8-4-3.8-5.9-11.1-4.5-17.1 1.1-4.7 1-5-3.8-14.1-2.7-5.2-6.8-11.3-9.1-13.7-2.4-2.4-4.3-5.1-4.3-6.1 0-1.1.9-4.5 2-7.7s2-5.9 2-6.1-1.7-.6-3.7-.9c-12.2-1.9-16.4-3.1-26.3-7.5-13.5-5.9-17.7-9-30.6-22.2-12.8-13-17.9-20.6-20.9-30.8l-2.3-8 1.9-8.2c2.4-10.2 6.5-14.6 9-9.7m205.5 37.8c1.9 7.3 4.5 15.7 5.8 18.7 2.8 6.1 4.1 6.6 19.1 8.5 5 .6 9.4 1.5 9.9 2 1.9 1.8-5.1 6.7-14.8 10.4-2.5 1-4.6 1.9-4.6 2.2 0 .2 2.7 5.6 6 12.1 11.1 21.7 28.7 44.4 41.8 53.8 5.3 3.8 6.3 5 6 7.1-.3 2.2-1.5 3-7.6 5.5-8.9 3.5-17.8 4.5-26.6 2.8-5.2-1-9-2.7-17.8-8.1-6.1-3.9-12.6-8.3-14.5-9.9-1.8-1.6-4.6-3.2-6.1-3.6-1.5-.3-3.3-.7-3.9-1-1.4-.4-7.7-13.2-8.9-17.8-.4-1.6-2-3.6-3.8-4.6-4.1-2.4-7.8-6.3-12.2-12.7-4.5-6.4-4.2-9.5 1.6-17.3 2.2-3 4-6 4-6.8 0-2.1 6.2-21.5 7.3-23 .5-.6 1.7-1.2 2.7-1.2 1.4 0 1.9-1.1 2.4-4.8.7-4.6 2.5-15.1 4.8-26.5.6-3.3 1.8-6.2 2.7-6.7 1.3-.7 1.8-.2 2.5 3.3.5 2.3 2.4 10.2 4.2 17.6M415.2 270c5 2.2 9.9 4 10.8 4s5.5-2 10.3-4.5 9.4-4.5 10.2-4.5c.7 0 1.7 1 2.1 2.2 1 3.2-7.6 10.9-15.3 13.8-8.4 3.2-19.9 6-26.8 6.6-7.8.7-10.5 1.3-10.5 2.2 0 .5 2.6 4.9 5.8 9.8 11.5 18 25.5 32.2 39.9 40.3 3.7 2.1 6.9 4.6 7.1 5.5s-.9 2.7-2.5 4c-2.4 2.1-2.8 3-2.5 6.1.6 4.8-4.5 15.1-9.8 19.8-4.3 4-12 6.7-18.8 6.7-9.5 0-23.5-12.9-31.7-29.2-4.9-9.7-5.4-10.3-8.1-10.1-1.7.2-4-.5-5.4-1.6l-2.5-2-4.7 4.5c-3.8 3.6-5.4 4.4-8.4 4.4-5 0-11.6-3.3-16.8-8.4-7.7-7.5-7.8-6.6 2.6-14.5 5.1-3.8 12.9-9.9 17.3-13.5s12.4-10.1 17.9-14.3l9.8-7.8-5.3-.7c-10.7-1.4-28.9-9.1-28.9-12.2 0-2.2 3.8-5 5.2-3.9.7.6 4.2 2.1 7.8 3.3 5.8 2.1 6.9 2.2 11.5 1 5.9-1.5 11.8-4.4 20-9.9 5.6-3.8 6.1-3.9 8.2-2.6 1.3.9 6.4 3.3 11.5 5.5"/><path d="M392.3 342.4c5.7 14.9 11.7 24.7 16.2 26.8 1.9.8 3.9.8 8-.1 6-1.4 10.7-4.7 13.1-9.3l1.5-2.9-6.8.6c-6.6.6-6.9.5-10.3-2.5-4.7-4.1-22.4-14.4-21.7-12.6"/></svg>