<svg xmlns="http://www.w3.org/2000/svg" width="682.667" height="512" version="1.0" viewBox="0 0 512 384"><path d="M0 192v192h330.5l-5.7-2.4c-5.9-2.4-19.3-11.4-26.7-17.8-2.4-2.1-5.4-3.8-6.6-3.8s-2.9-.8-3.7-1.8c-2-2.1-5.2-9.9-7.3-17.5-1.4-4.9-2-5.7-4-5.7-2.5 0-6.6-3.6-12.7-11.3-4.8-6.2-4.9-9.6-.5-16.2 4.8-7.1 5.2-8.1 8.7-19.5 3.8-12.2 5.6-14.8 9-13 1.2.6 2.6.8 3 .3.4-.4 2-7.1 3.4-14.8 3.8-19.7 4.3-21.2 6.6-21.8 1.7-.4 2 0 2 2.6 0 3.9 5.3 27 8 35.3l2.1 6.1 8.2 1.7c4.5.9 9.4 1.6 10.9 1.6 11 0 5.9 5.7-10.9 12.1-2.2.8-2.2 1 4.1 14.1 11.3 23.9 29.9 49.9 41 57.3 4 2.6 6.6 6 6.6 8.5 0 .5-3.5 2-7.7 3.4l-7.8 2.5 80.8.1H512V0H0zM55.9 42.5c6.8 3.4 24.3 9 34.1 11 6.9 1.3 13.2 3 14.7 4 .2.1 1 3.9 1.8 8.6 3.2 16.9 6.7 24.5 16.5 34.9 2.9 3 6.3 7.6 7.6 10.2 2.4 4.7 2.3 8.4-.2 7.4-.8-.3-1.4.5-1.6 2.4l-.3 2.8-8.4-3.9C96.3 108.6 63.9 87.1 53 75.3c-9.1-10-11.1-14.5-11.8-26.6l-.5-10 5.3.7c2.9.4 7.4 1.8 9.9 3.1m266.9 177c9.3 5.9 19.9 10.3 28.4 11.7l6.8 1.2v5.7c0 3.2-.3 6-.7 6.2-.5.3-4.8-.1-9.8-.9-20.9-3.3-45-17.8-50.2-30.1-1.7-4.1-1-10.5 1.5-13 1.5-1.4 2.2-.9 9.2 6.5 4.2 4.6 10.6 10.1 14.8 12.7m-237.2 5.1c3.9 13.3 17.9 31.6 29 37.6 3.9 2 22.4 7.8 25.2 7.8.3 0-2.2-2.5-5.6-5.6-4.3-3.9-7.1-7.4-9.2-11.9-5.5-11.4-3.5-12.5 5.4-3.1 3.4 3.6 9.2 8.8 13 11.6 8.8 6.5 48.9 26.3 62.1 30.6 10 3.2 10 3.2 12.4 8.1 1.3 2.6 2.7 5 3.1 5.3s1.1 3.4 1.5 7c1 10 .8 9.7 7.6 10.2 5.5.4 7.8 1.6 7.9 3.9 0 1.1-8.7 2.2-23 2.9-7.4.4-12.1.7-10.5.8 1.7.1 4.6.7 6.5 1.2 1.9.6 9.1 2.2 16 3.6 9.8 2 14.3 2.5 20.8 2.1 9.6-.6 8.2-2.1 14.6 15.2 3.7 9.7 4.4 12.6 3.5 13.8-2 2.3-13.2 8.2-20.5 10.7-13 4.4-23.6 5.9-37.9 5.4-11.5-.4-13.7-.8-19-3.2-11.5-5.2-16.1-13.1-13.6-23.3 1-3.7.9-4.8-.2-6.2-.8-.9-2.4-3.5-3.6-5.9-2.9-5.8-10.6-17.6-12.5-19.1-2.1-1.8-2-5 .3-11.1 2.3-5.9 2.7-5.6-8.5-6.9-8.7-1.1-19.1-4.8-31.6-11.3-5.6-2.9-10.7-6.8-18.7-14.5-14.8-14-20.3-21.5-23.6-32.1l-2.6-8.3 1.6-8.2c1-4.5 2.4-9 3.3-10 2.6-2.9 5.5-1.7 6.8 2.9m322 37.5c1.1 1.8 19.3 9.9 22.3 9.9 1.5 0 6.7-2 11.6-4.5 8.3-4.1 9-4.3 10.7-2.8 2.4 2.2 2.3 2.5-1.9 6.7-8.5 8.3-30 14.6-49.5 14.6-2.6 0-4.9.4-5.2.9-1 1.5 12.4 22.6 20.1 31.6 8.1 9.7 18.4 18.3 28.6 23.9 3.7 2 6.7 4.1 6.7 4.6s-1.4 2.2-3.1 3.8c-2.4 2.2-3.4 4.2-4 8-1 6.9-3.2 11.1-8.2 16.1-5.6 5.8-9 7.3-16.8 7.9-7.8.5-10.2-.5-18.2-7.8-6.9-6.3-11.1-12.8-15.8-24.4-3.2-7.9-3.9-9.1-5.8-8.8-1.2.2-3.3-.4-4.7-1.3-1.8-1.2-2.9-1.3-4.4-.5-1.1.6-2 1.4-2 1.8s-1.4 1.6-3.1 2.6c-3.9 2.3-10.5 1.6-15.8-1.6-4.6-2.9-13.1-10.7-13.1-12.2 0-.6 5.5-5.2 12.3-10.1 6.7-4.9 14.5-11 17.2-13.5 2.8-2.5 9.6-7.9 15.3-12 5.6-4.1 10.2-7.7 10.2-8.1 0-.3-2.8-.9-6.3-1.2-9.8-.9-30.7-9.5-30.7-12.7 0-.4.9-1.5 2-2.5 1.9-1.8 2.2-1.7 8.8.8 9.9 3.9 15.1 3.6 24.8-1.3 4.4-2.1 9.5-5 11.4-6.4 3.9-2.8 5.5-3.1 6.6-1.5"/><path d="M395 341.3c0 1.8 6.3 17.5 8.6 21.4 3.8 6.5 5.9 8.3 9.8 8.3 7.1 0 13.3-3.6 16.3-9.4 1.9-3.6.4-5.7-2.7-3.8-1.1.6-3.1 1.2-4.6 1.2-3.4 0-8.4-3-8.4-5 0-1-3.2-3.4-7.7-6-4.3-2.3-8.6-5-9.5-5.8-1-.8-1.8-1.2-1.8-.9"/></svg>