<svg xmlns="http://www.w3.org/2000/svg" width="682.667" height="512" version="1.0" viewBox="0 0 512 384"><path d="M0 192v192h162.2c89.2 0 161.8-.4 161.2-.8-.5-.5-3.8-3.1-7.4-5.7-3.6-2.7-9.2-7.5-12.5-10.7-3.5-3.2-7.8-6.3-10-7-4-1.3-4-1.3-6.8-11.3-2.1-7.6-2.7-11.4-2.4-15.8l.5-5.7-3 2.5c-1.6 1.4-3.5 2.5-4.1 2.5-1.8 0-14.3-13.5-15.7-17-1.7-4.1-.7-7 4.5-13.5 2.5-3 4.3-5.5 4.1-5.5-1.1 0 7.6-22.5 9.1-23.5 1.3-1 2.8-.7 7.6 1.2 7 2.8 6.8 3 9.2-7.1 3.5-14.4 6.6-24 8.3-25.2 1.5-1.1 1.8-.1 3.4 10.9 2.3 15.8 4.7 27.9 6 29.4.5.7 4.3 1.8 8.5 2.5 4.1.7 8.2 1.8 9.1 2.4 1.4 1 1 1.6-3.2 4.2-2.6 1.7-6.2 3.4-7.8 3.7-3.7.9-3.7.9 4.4 21 10.2 25.5 25.1 49.5 36.9 59.5 3.4 2.8 4.9 4.9 4.9 6.6v2.4h43.2l-5.6-5.1c-6.9-6.3-11.5-15.2-14.7-28.3-1.5-6.2-2.8-9.6-3.6-9.6s-2.5-.7-3.8-1.6c-2.3-1.5-2.6-1.4-5.5.6-6.1 4.4-17.4.7-27.2-8.8-2.7-2.6-4.8-4.9-4.8-5.2 0-.4 5-4 11.2-8.1 6.2-4 12.8-9 14.8-11 3.6-3.7 24-17.9 25.7-17.9.6 0 1.7 1.7 2.5 3.9 3.2 8 12.9 23.1 20.5 31.7 7.1 8 8.5 9.1 14.8 11.5s7 2.9 6.7 5.1.5 2.8 5.7 5.2c3.3 1.5 6.3 3.1 6.6 3.7.6.9-2.5 4.3-7.3 8.1-1.3 1.1-2.2 2.9-2.2 4.5-.1 5.7-7.5 16.8-13.5 20.1-1.5.9 8.5 1.1 39.8 1.2H512V0H0zM25.5 52.6c9.2 6.2 25.6 8.1 40.5 4.8 4.7-1.1 7.4-1.3 7.9-.7C75.5 59.3 87 66.2 92.6 68c6.8 2 6.9 2 19.9-2 7.5-2.4 9.8-2.7 13.5-2 2.5.5 4.8.9 5.3 1 1.8.1.4 3.7-2 5.2-1.6 1-2.3 1.8-1.7 1.8s1 1 .9 2.2c-.2 3.2-6.2 4.6-26 6.1-24.2 1.8-35.3 1.4-45.8-1.7-4.9-1.5-10.7-3.6-13-4.7-8.9-4.5-25.9-17-28.1-20.7-.5-.9-.3-1.7.5-2.3 2.4-1.5 5.5-1 9.4 1.7M305 197.8c0 .4 2.8 3.8 6.3 7.5 5.7 6.2 6.5 6.7 10.3 6.7 3.7 0 5.2.8 13.9 8 9.4 7.7 11.2 8.6 21 10.7 3.5.7 4 1.2 4.7 4.7.6 2.5.5 4.2-.2 4.6-1.9 1.2-17-1.8-25.6-5.1-12.6-4.8-26.8-15.6-33.7-25.9-2.1-3.1-2.2-6.9-.1-9.8 1.5-2.2 3.4-3 3.4-1.4M76 226.1c3.6 9.8 16.6 25.8 26.4 32.3 5.8 3.8 12.2 6 21.6 7.6 3.6.6 7.8 1.3 9.4 1.6 2.6.6 2.2 0-3.6-5.5-4.6-4.3-7.3-7.8-9.2-12.2-1.5-3.3-2.6-6.3-2.3-6.5 1.1-1.1 5.5 1.8 8.9 5.9 6.2 7.5 15.5 13.6 35.3 23.2 21.8 10.6 34.6 15.9 44 18.2 6 1.5 6.7 1.9 8.1 5.2.8 1.9 2.2 4.3 3.1 5.3s2.1 4.8 2.7 8.5c1.2 7.4 1.9 8 9.8 8.2 2.6.1 4 .7 4.8 2.1.9 1.7.6 2-3.1 3-6.1 1.7-19.9 3-31.9 3-11.8.1-11.6 1.1.5 2.9 4.4.7 12.5 2.1 17.9 3.2 6.2 1.3 14.7 2.1 23 2.2l13 .2 5.8 13c3.2 7.1 5.8 13.5 5.8 14.2 0 1.7-10 8-17.9 11.3-33.3 13.7-67.7 11-73.2-5.7-.6-1.9-.9-5.9-.8-9.1.3-6.4-.8-9-8.5-20.5-3.1-4.6-4.6-7.9-4.6-10 0-2.5-.7-3.6-3-4.9-2.5-1.4-3-2.4-3-5.3 0-2 .6-5.1 1.4-7s1.2-3.6.8-3.9c-.4-.2-4.9-.7-10-1.1-7.3-.5-11.8-1.6-21.2-5-20.2-7.5-25.4-10.9-43.6-29-10.9-10.8-11.2-11.2-13.9-19.4-2.5-7.6-2.7-9.3-2.1-17.5.5-7.3 1-9.4 2.8-11.3 3.1-3.3 4.9-2.5 6.8 2.8m340.1 32.6c.8.9 5.8 3.7 11.1 6.3l9.7 4.8 5.3-1.8c2.9-1 8-2.9 11.2-4.4 4.5-2 6.2-2.3 7.2-1.5 2.6 2.2 1.4 4.8-3.9 8.8-10.4 7.6-25.4 10.5-50.8 9.9-15.9-.4-18-.7-24.3-3.1-8.6-3.4-15.9-7.4-18.5-10.1-1.9-2.1-1.9-2.1-.1-4.4l1.9-2.3 3.9 2c7.3 3.7 14.5 6.1 17.1 5.5 6.8-1.4 13.2-3.8 19.6-7.3 8-4.5 8.8-4.7 10.6-2.4"/><path d="M402 344.2c0 3.6 4.5 19.1 6.8 23.3l2.7 5h5.7c5 0 6.1-.4 8.8-3 5.2-4.9 7.8-11.5 4.6-11.5-.8 0-1.8.9-2.1 2-.9 2.7-5 2.6-9.2-.3-2.8-1.8-3.3-2.7-2.9-5 .3-1.5.2-2.7-.2-2.7s-3.8-2-7.5-4.4-6.7-3.9-6.7-3.4"/></svg>