<svg xmlns="http://www.w3.org/2000/svg" width="682.667" height="512" version="1.0" viewBox="0 0 512 384"><path d="M300.5 1.2c-3.6 1.9-7.5 6.1-7.5 8 0 2.1-1.1 2.3-2.9.5-1.5-1.5-12-1.4-18 .2-2.4.7-5.5 2.4-6.9 3.8-1.9 1.9-2.7 2.2-3.3 1.1-.5-.7-.9-1.7-.9-2.1 0-2.2-9.7-4.9-18.9-5.4-10.5-.6-19.8.8-32.6 5-5.9 2-7.1 2.8-7.3 4.8-.2 1.3-.8 2.8-1.3 3.3-1.1 1.2-1.2 5.1 0 7.4 2.2 4.5 4.1 9 5.1 12.4.6 2.1 1.6 3.8 2.1 3.8.6 0 .7.5.4 1-.4.6.2 2.6 1.3 4.4s2.3 4.8 2.7 6.5c.4 1.8 1.3 3.5 2.1 3.8s1.4 1 1.4 1.6 1.2 2.8 2.6 4.9c2.3 3.2 3.1 3.7 5.3 3.2 1.4-.4 3.4-1.4 4.4-2.2.9-.8 2-1.3 2.3-.9.9.8.8 13.4-.1 19-.8 5.4.6 8 5.2 9.2 2.4.6 2.5.8 1.8 6.3-.3 3.1-1.2 6.1-1.9 6.7s-1.9 7-2.9 15.4c-1.5 12.3-1.5 14.5-.3 15.5.8.6 1.6 3.6 1.8 7 .4 4.9.1 6.9-1.8 10.5-1.3 2.6-3.1 8.4-4 13.1-2.4 12.2-2.7 12.8-7.1 13.5-9.7 1.6-13.2 5.4-11.3 12.4.5 2.1 1.9 5 3.1 6.4l2 2.6-4.7 11.8c-7.9 19.8-17.3 41.1-24.6 55.7l-7 13.9 2.8 5.6c3 6.3 3.2 5.3-3 19.6-5.7 13.4-1.7 20.5 13.1 23l4.2.7 3.1 10c3.6 11.6 7.1 19.8 9.9 23.4 1.9 2.5 1.9 2.5-.4 9.4l-2.4 7h153.1l-.6-3.5c-.9-4.4-.3-4.4 2.3 0l2 3.5h14.6c13.1 0 14.5-.2 14.5-1.8 0-.9-1.4-6.8-3-13.1-2.4-9.3-2.8-11.7-1.8-12.9 1.8-2.1 1.4-15.4-1-28.4l-1.9-10.7 3.9-3.8c2.1-2 3.8-4.5 3.8-5.4s-2.3-6.6-5.1-12.5c-2.8-6-7.7-16.9-11-24.2-3.2-7.3-7.2-15.8-8.8-19-3.2-6.5-9.7-36.7-8.7-40.8.4-1.3 2-4.7 3.7-7.4 1.7-2.8 2.8-5.7 2.5-6.5-.8-2.2-5.4-3.7-10-3.3-3.9.2-4.1.1-4.8-3.2-.4-1.9-1.2-9.6-1.8-17-.7-7.9-1.8-14.9-2.7-16.8-1.6-3.3-7.1-8-13.2-11.4-4-2.2-5.3-5.5-3.4-8.5 1-1.4 1.1-2.3.3-2.8-.6-.3-.8-1.1-.5-1.6s-.1-.6-.9-.3c-1.6.6-3.6-3-3.6-6.4.1-1.3.4-1.1 1.4.7 1.2 2.2 1.5 1.3 3-9.5.9-6.6 2.6-15.7 3.7-20.4s1.9-9.3 1.9-10.2c0-2.5 2.8-4.8 6.1-4.8 3.5 0 6.9-3.1 6.9-6.4 0-1.3-2.5-5.9-5.6-10.2-4.7-6.6-7.4-11.2-7.4-12.9 0-.6 8.7.2 9.8.9 2 1.2 6.1-1.3 6.8-4.1.4-1.5 1.1-3.3 1.6-4s.7-1.7.3-2.3-.1-1.7.5-2.5c.8-1 1.3-7.7 1.5-21l.3-19.5h-26.2c-17.1.1-26.8.4-28.1 1.2m25.7 243.4c.3 15.3 1.1 31.3 1.7 35.4 1.6 11.6 1.5 11.9-2.5 6.6-2.9-3.8-3.3-5-2.4-6.1s1-2.2.2-4.2c-1.6-4-2.2-16.9-1.1-22.8.6-2.8 1.1-10.2 1.3-16.7.2-6.4.6-12 .9-12.5s.2-2.6-.3-4.7c-.6-2.7-.5-3.6.3-3.3.9.3 1.4 8.6 1.9 28.3"/></svg>