<svg xmlns="http://www.w3.org/2000/svg" width="682.667" height="512" version="1.0" viewBox="0 0 512 384"><path d="M0 192v192l98.3-.1c83.4 0 97.6-.2 93.9-1.4-6.8-2.1-12.4-6.2-14.9-10.9-.9-1.8-1.5-5.5-1.5-10 0-6.6-.3-7.6-4-13.6-2.3-3.6-5.7-8.5-7.5-11-3-3.8-3.4-5-2.9-8.2.5-3.1.3-3.8-1.4-4.3-3.2-1-5.3-6.1-4.6-11l.7-4.2-4.7-.7c-2.6-.3-6.4-.6-8.4-.6-5.1 0-32.4-9.4-38.5-13.3-6.3-4-23.4-18.7-30.1-25.8-3.8-4.1-5.9-7.6-8.4-13.9-3-7.9-3.2-9.1-2.8-17.8.4-7.9.8-9.6 2.7-11.3 3-2.9 4.7-1.9 7.5 4.6 3.3 7.2 6.4 11.5 15.5 20.6 11.6 11.5 15.7 13.2 43.1 17.5l3.5.5-6.1-5.8C124 258.2 118 249.1 118 246c0-2.5 3.6-.6 7.9 4.1 9.8 10.8 22.4 18.2 53.1 31.2 13 5.5 19.5 7.7 32.8 11.3.7.2 2 1.8 3 3.5.9 1.7 2.6 4.3 3.7 5.7s2.5 5.3 3 8.7l1 6 6.2.3c4.9.2 6.5.7 7.3 2.1.7 1.3.6 2.2-.3 2.9-3.5 2.9-23.8 5.5-41.7 5.4-14.4-.1-13 .5 8.4 3.9 32.8 5.2 41.8 5.9 46.9 4 3.8-1.5 6.4-.3 8 3.7.8 2.1 3.7 8.2 6.3 13.7 2.7 5.5 5 10.3 5.2 10.7.6 1.2-11.7 8.8-19.6 12.2-6.9 3-19.6 6.8-26.2 7.9-1.4.2 20.5.5 48.5.5l51 .1-5.5-4.7c-3-2.5-8-7.2-11-10.4-3-3.1-6.8-6-8.3-6.4-3.7-.9-5.1-3.3-7.2-12.7-1.7-7.5-1.7-9.4 0-23.2l.6-5-3.1 4.8c-1.7 2.6-3.7 5.1-4.6 5.4-2.6 1-6.5-1.9-13.1-9.6-5.5-6.5-6.3-7.9-6.3-11.5 0-3.5.7-4.9 4-8.6 2.1-2.4 4.8-6.9 5.9-9.9 4.9-13.7 7-18.6 8.4-19.5 1-.7 3.9-.1 9.3 1.9 4.4 1.5 8.4 3 9 3.2.7.3 1.7-1.1 2.2-2.9 7.2-23.9 9.4-29.6 11.2-30.1s2 0 2 4.1c0 4.7 3.4 29.8 4.5 33.3.4 1.1 2.2 2.3 4.8 2.9 2.3.6 5.6 1.4 7.2 1.8 4.5 1.2 3.6 3.4-2.4 6.4-3 1.5-5.5 2.9-5.7 3.1-.6.6 2.4 10.6 7.6 24.7 9.1 25 20.2 45 31.8 57.2l5.5 5.8h40.2l-3.4-3.2c-4.8-4.5-8.6-13.6-11-26.4-1.8-9.3-2.5-11.2-4.8-13.1-2.4-2-2.9-2-4.3-.8-2.8 2.6-10.1 1.8-16.9-1.7-6.1-3.1-16.7-13-15.7-14.6.3-.5 4.7-3.4 9.8-6.5s11.1-7.6 13.3-9.9c5-5.3 21.7-16 23.8-15.2.8.3 1.7 1.7 2 3.2.9 4.1 13 24.6 18.1 30.6 4.2 4.9 5.4 5.6 16.3 9.7 12.5 4.7 12.8 5 10.9 10.6-.6 1.9 0 2.6 4.3 4.8 2.8 1.4 5.1 3.2 5.1 4s-2.2 3.1-5 5.1c-2.7 2-5 4.1-5 4.7 0 3.4-2.5 9.2-5.5 13.2-1.9 2.5-3.5 4.7-3.5 5s16.7.5 37 .5h37V0H0zM112.4 25.6c.3.8.1 2.4-.4 3.5-.6 1-.7 1.9-.2 1.9.4 0 .8.9.9 1.9.2 1.9-8.6 10.9-11 11.4-.6.1-2.1 2.2-3.3 4.7-4.9 10.2-15.5 20-27.8 25.6C64.8 77.2 44 82 38.2 82 28.9 82 11 73.1 11 68.6c0-1.9 1.6-3 9.6-6.4 5.2-2.3 10.2-4.2 11-4.2.9 0 3.8.7 6.5 1.6 3.6 1.2 7.4 1.5 13.8 1.2 8-.4 9.6-.8 17.7-4.9 14.8-7.5 26.1-15.5 30-21.3 3-4.6 9.6-10.6 11.5-10.6.4 0 1 .7 1.3 1.6m200.2 177.7c2.7 3.4 5.9 6.3 7 6.4 13.2 1.3 13.6 1.4 16.8 4.8 6.8 7.2 17.1 15.4 20 16 1.7.4 3.9.9 4.8 1.1 1.9.6 5.5 7.1 4.4 8.1-1.4 1.5-18.1-1.9-26.4-5.4-16.3-6.7-35.2-23.7-35.2-31.7 0-2.9 1.5-5.7 3-5.5.3 0 2.8 2.8 5.6 6.2m111.1 56.6c2.3 1.5 7.6 4.5 11.7 6.6l7.5 3.7 7.3-2.2c4-1.2 9.1-3.1 11.2-4.1 3.6-1.7 4.2-1.8 6.3-.3 3.7 2.4 2.6 5.3-3.7 9.7-8.2 5.6-18 7.8-37 8.4-24.3.7-39.6-3-52.8-12.9-5.9-4.4-7-6.1-5.2-8.3 1-1.2 1.7-1.2 5.3.7 10.7 5.6 14.6 6.7 20.4 5.8 5.1-.9 17.2-5.7 21.8-8.7 2.5-1.7 2.3-1.7 7.2 1.6"/><path d="M408.6 353.9c1.5 9.3 2.9 14.4 5.2 19.1 1.6 3.2 2.1 3.5 6 3.4 3.3-.1 5-.8 7.3-3 3.3-3.1 7.5-10.4 6-10.4-.5 0-1.1.7-1.5 1.5-.8 2.2-3.3 1.8-8.4-1.1-4.1-2.4-4.3-2.8-3.8-6 .6-3 .4-3.5-2.6-5-1.8-.9-4.7-2.7-6.4-4l-3.1-2.4z"/></svg>