<svg xmlns="http://www.w3.org/2000/svg" width="682.667" height="512" version="1.0" viewBox="0 0 512 384"><path d="M0 192v192h188.3l-2-2.3c-3.6-3.9-4.4-6.6-4.2-13.6.2-6.6 0-7.3-4.1-13.8-2.3-3.7-5.8-8.7-7.7-11.1-2.9-3.5-3.4-4.9-2.9-7.3.5-2.5 0-3.6-2.9-6.6-2.7-2.8-3.5-4.4-3.5-7.4v-3.7l-7.2-.7c-7.6-.8-29.5-7.8-37.8-12.1-5.4-2.7-11-7.1-22.8-17.9-12.7-11.6-17.1-17.1-20.5-25.5-2.6-6.5-2.9-8.5-2.8-16.7.2-10.6.4-11.4 3.1-13.1 2.9-1.8 5.5.2 8.1 6.3 4 9.2 14.7 21.5 24.2 27.9 6 3.9 12.8 6 24 7.6 12.8 1.7 12.8 1.7 6.1-4.4-5.9-5.3-13.1-16.7-11.8-18.8.8-1.3 5.2 1.8 10.2 7.3 4.9 5.4 14.8 12.3 25.4 17.5 13.9 6.8 39.5 17.3 48.4 19.9 11.7 3.3 12.7 3.9 15.2 9.1 1.2 2.4 2.6 4.4 3.1 4.4s1.3 2.1 1.6 4.7c1.1 8.1 1.9 9.3 6.5 9.3 5.4 0 9.9 2.4 10 5.2 0 1.7-11.4 3.8-25.8 4.8-8.7.6-18.6 1.4-22.2 1.7l-6.5.6 4.5.9c2.5.4 9.5 1.5 15.5 2.3 6.1.8 15.5 2.2 21 3.1 6.7 1.1 13.2 1.4 19.7 1 10.8-.6 14.2.4 15.6 4.4.5 1.4 3.3 7.6 6.3 13.9l5.3 11.4-2.9 2.3c-1.7 1.3-5.6 3.8-8.7 5.4-3.2 1.7-5.8 3.3-5.8 3.6 0 .2 13.8.4 30.7.4h30.6l-6.8-6.9c-3.8-3.9-7.9-7.1-9.4-7.4-6-1.2-10.1-15.9-8.1-29.3.6-4.4 1.4-9 1.7-10.4.4-1.8-.5-1-3.1 2.7-5.8 8.4-8.1 8-17.7-2.9-6.4-7.4-8.9-11.1-8.9-13.3 0-2.3 3-7.8 5-9.2 1.8-1.3 3.2-4.3 8.5-18.3 5.1-13.2 4.8-13 14.2-9.2 4.3 1.7 9 3.3 10.4 3.7 2.9.7 2.3 2 10-23.5 1.2-4.1 2.4-6.7 2.7-5.8.4 2.2 2.1 2.3 2.8.3 1.3-3.2 2.1-1.2 2.7 5.9.9 10.3 3.8 27.9 4.9 29.2.5.7 2.5 1.5 4.5 1.9 4.3.8 7.3 2.5 7.3 4.2 0 .7-2 2.4-4.6 3.9-5.4 3.2-5.4 2.2 1.3 22.4 4.9 14.8 19.6 45.6 26.5 55.7l4.3 6.2h20.2l20.1.1-2.8-5.3c-2.8-5.3-5.3-14.1-6.6-23.2-.3-2.8-1.3-5.8-2.2-6.8-1.4-1.6-1.7-1.6-4-.1-3.5 2.3-11 1.2-17.5-2.5-5.3-3-16.7-13.4-16.7-15.2 0-.5 2.1-2.2 4.6-3.7 8.4-4.9 17.9-12.3 18.7-14.5.7-1.9 10.5-9.7 12.2-9.7.3 0 2.3-1.2 4.5-2.6 5.1-3.4 8.1-2.4 10.1 3.3 2.4 6.7 11.2 21.3 16.9 28.2 5.3 6.2 6.1 6.8 15 10.1 10.7 4 16 6.6 16 8 0 .5-.4 2-1 3.4-.9 2.3-.6 2.8 3.6 5.2 2.9 1.7 4.4 3.2 4.2 4.3-.2.8-2.7 3.3-5.6 5.5-3.9 2.9-5.2 4.5-5.2 6.5-.1 1.4-.7 3.7-1.5 5.1s-1.4 2.8-1.5 3.2c0 .5 13.7.8 30.5.8H512V0H0zM103.4 21.5c-.3 1.1-2.2 4.4-4.1 7.4-2.4 3.6-4.5 9-6.3 16-3.9 14.6-5.9 18.8-12.6 26C61.1 91.8 46 95.5 27 84c-10.8-6.5-10.8-6.7-.6-16.9l8.6-8.6h10.8c16.3 0 18.9-1.2 33.2-15.4 8.8-8.7 11.9-12.5 12.5-15 .8-3.8 3.8-9.5 6.3-12.4 1.6-1.8 1.7-1.8 3.9 1 1.4 1.8 2.1 3.5 1.7 4.8M318 208.2l5.8 6.2 6.7.4 6.7.4 8.2 7.7c10.1 9.5 13.2 11.8 17.6 12.6 5.1.9 9 4.9 9 9 0 1.9-.9 1.9-12.2-.4-20.1-4-40.6-17.8-49.8-33.4-2.3-3.9-1.9-8.7.7-8.7.8 0 4.1 2.8 7.3 6.2m115.5 60.2c1.7 1.2 6.1 3.7 9.9 5.5 6.7 3.3 7.1 3.4 12 2.1 2.8-.7 7.8-2.3 11-3.6 6.4-2.6 8.6-2.9 8.6-1.5 0 .5 1 1.1 2.3 1.3 1.5.2 2.3 1.1 2.5 2.9.2 2.1-.7 3.3-5.1 6.7-8.3 6.2-13.8 7.4-37.9 7.9-16.9.4-22.2.2-28.2-1.1-9.9-2.3-22.3-8.4-28.2-14-4.4-4.3-4.7-4.8-3.2-6.3s2-1.4 5.9.6c6.6 3.5 14.1 6.1 17.4 6.1 3.9 0 13.3-3 21.5-6.7 3.6-1.7 7-2.8 7.5-2.5.6.3 2.4 1.5 4 2.6"/><path d="M416.7 361.7c2.5 16.4 4.5 20.3 10.1 20.3 3.1 0 4.5-.7 7.7-4l3.9-4-3.6-1.4c-5.3-2.2-9.6-7-9.1-9.8.3-1.8-.2-2.7-2.4-3.8-1.5-.8-4-2.4-5.4-3.7l-2.6-2.3z"/></svg>