<svg xmlns="http://www.w3.org/2000/svg" width="682.667" height="512" version="1.0" viewBox="0 0 512 384"><path d="M0 192v192h107c104 0 107-.1 107-1.9 0-2.8-2.3-4.2-9.5-5.7-8.5-1.8-32.7-11.6-38.5-15.6-4.5-3.1-21.8-18.4-27.5-24.3-7.6-7.8-11.8-13.6-15.7-21.5-4-8.3-4.1-8.8-4.6-20.7-.4-11.5-.3-12.2 1.7-13.2 1.7-.9 2.1-.9 2.1.2 0 2.1 3.5 4.8 5.3 4.1 1.3-.5 2.2.5 3.7 4.2 4.5 10.4 15.7 23.1 24.2 27.5 3.2 1.6 8.3 3.2 14.3 4.4 1.1.2 6 .6 10.8 1l8.8.6-11.4-11.3c-8.2-8.1-12.3-12.8-14.1-16.7-1.4-3-2.4-5.7-2.1-5.9.7-.8 5.7 2.8 12 8.8 3.3 3.1 8.1 7.1 10.6 8.8 4.1 2.8 19.3 10.4 29.4 14.7 2.2.9 5.8 2.5 8 3.5 7.9 3.4 20.2 7.9 26.5 9.6 3.6 1 7.4 2.5 8.5 3.4 1.1 1 3 2.3 4.3 2.9 1.2.6 3.3 3.4 4.7 6 1.3 2.7 2.9 5.1 3.5 5.3.7.2 1.8 3.9 2.7 8.3.8 4.4 2 8.3 2.6 8.7.7.4 3.6.8 6.5.8 7.8 0 12.3 3 6.7 4.4-1.9.5-54.6 4.6-58.7 4.6-.4 0-.2 1.1.4 2.5l1.1 2.5h103.2l-9.6-9.8c-16.2-16.6-16.9-18.9-8-28.5 2-2.1 3.9-5.3 4.2-7 1.1-5.4 6.9-21.1 8.3-22.5 1.1-1.2 3-.8 11.2 2.3 13.5 5.1 21.2 7.5 24.8 7.8 2.9.2 3 0 5.3-7.7 2.4-8.4 3.3-10.2 3.3-6.8 0 2.9 1.1 5.3 2.1 4.6.5-.3.9.2.9 1 0 2.6 1.7 1.8 2.4-1.1.4-1.6 1.4-4.8 2.3-7.1l1.6-4.4 2.9 16.9c2.8 16.9 7.2 34.6 13 52.5l3.2 9.8h14l-3-3.3c-1.6-1.7-3.5-3.8-4.3-4.4-.8-.7-1.3-1.4-1-1.6.2-.2 3.1-2.2 6.4-4.5 3.3-2.2 8-6.1 10.4-8.7 4.2-4.3 4.4-4.8 3.4-7.5s-.8-3.3 2-6.3c1.8-1.8 5.2-4.9 7.7-6.7 2.5-1.9 5.2-4.1 5.9-4.9 1.3-1.2 1.8-1 3.7 1.2 1.4 1.7 2.6 2.2 3.5 1.7 1.5-1 3.9.5 3.9 2.4 0 1.2 1.3 3.7 7.2 14.5 3.8 6.9 13.1 19.2 18.7 24.7l3.3 3.4H512v-35.9l-10.2.6c-14.5.8-27.9-1.8-43.3-8.5-6.6-2.8-12.5-7.1-19.8-14.6-4.4-4.4-4.7-5-3.3-6.4s2-1.3 6.8 1.2c2.9 1.6 10 4.4 15.8 6.3 12.1 4 14.2 3.9 28.6-.9l9.1-3 4.9 3c3.7 2.2 5.7 2.9 8.2 2.5l3.2-.5V0H0zM81.9 34.6c1.2.9 3.9 4.2 5.8 7.3 2 3.1 6.4 9 9.7 13.1 9.2 11.2 10.2 12.9 12.7 21 2.8 9 3.4 27.7 1 31.9l-1.4 2.5-2.6-3.3c-1.7-2.1-3.4-3.2-4.7-3-1 .2-4.8-1.1-8.4-2.8s-9-4.2-12.1-5.6c-6.4-2.8-6.1-2-8.4-19.2-.9-6.6-1.7-12.4-1.8-12.8-.1-.5 1.9-1.6 4.4-2.6 2.6-1 5.7-2.7 6.9-3.8l2.1-2.1-2.7-2.8c-2.6-2.8-7.4-11.8-7.4-14 0-.6.7-1.7 1.5-2.4s1.2-1.6.9-2.1c-.9-1.5 2-1 4.5.7M347 233.5c.7.8 1.9 1.5 2.6 1.5.8 0 1.4.4 1.4.8 0 .5 2.1 3.2 4.8 6 4.5 5 4.9 5.2 12.1 6.2 6.4.9 8.1 1.6 11.8 4.8 12.1 10.4 15.9 13.2 17.6 13.2 1 0 3 .9 4.4 2s3.1 2 3.8 2c1.4 0 6.5 7.6 6.5 9.7 0 1.1-.7 1.3-2.7.9-1.6-.3-5.7-1-9.3-1.6-8.9-1.6-23.3-7.8-31.1-13.4-13.3-9.7-25.9-23.9-25.9-29.3 0-4.4 1.7-5.6 4-2.8"/><path d="M352.2 362.2c-3.7 3.6-7.6 8.6-9.3 12-1.6 3.2-3.8 6.7-4.9 7.8-2 2-2 2 5.8 2h7.8l3.4-12.3c1.8-6.7 3.7-13 4.2-14 1.6-3.2-.6-1.7-7 4.5"/></svg>