<svg xmlns="http://www.w3.org/2000/svg" width="682.667" height="512" version="1.0" viewBox="0 0 512 384"><path d="M0 192v192h126.1c112.1 0 126-.2 125.5-1.5-.5-1.4-.2-1.4 2.4 0 2.5 1.3 18.6 1.5 130.5 1.5H512V0H0zM166.6 73c8.6 1.6 10.8 2.7 15.6 7.9 5.4 5.8 10.3 15.7 12 23.9 1.4 7.2.8 8.1-5.2 8.2-5.6 0-20.9 3.5-27.7 6.3-3.4 1.4-11.2 5.5-17.2 9.1-10.5 6.3-18.9 10.6-23.8 12.1-2.8.8-3-1.2-.8-7.4 1.2-3.6 1.2-4.1-.1-4.1-.9 0-1.4-.7-1.2-1.8s-.3-1.6-1.4-1.4c-1 .2-1.8 0-1.8-.3 0-.6 9.6-25.9 11-29 1.2-2.7 5.6-16.3 6.4-19.8.4-1.6 1.6-3.2 2.9-3.7 3.1-1.2 24.1-1.2 31.3 0m260.9 232.1c.4.6 1.5 1.3 2.4 1.7 1 .4 4.6 4 8 7.9 3.4 4 7.1 7.7 8.2 8.3s5.7 1.9 10.3 2.9c7.5 1.7 9.2 2.5 15.4 7.5 3.9 3.1 8 5.6 9 5.6 1.1 0 3.4 1.3 5.2 3 1.8 1.6 4 3 4.9 3 1 0 3.2 2.2 4.9 4.9 1.8 2.7 3.9 5.1 4.7 5.5 1.6.6 2.1 4.6.6 4.6-.5 0-5.1-.9-10.2-1.9-22.9-4.8-43.3-18.1-61.5-40.2-4.3-5.3-5.5-7.6-6.1-11.4-.6-4.6-.5-4.7 1.5-3.6 1.1.6 2.4 1.6 2.7 2.2"/></svg>