<svg xmlns="http://www.w3.org/2000/svg" width="682.667" height="512" version="1.0" viewBox="0 0 512 384"><path d="M317.5 2.4c-13.7 4.4-22.5 10-22.5 14.3 0 1.1-.5 1.3-1.7.7-1-.4-4.9-1-8.7-1.2-7.4-.4-14.3 1.5-17.7 4.9-1.8 1.8-1.9 1.8-3.3-1-2.3-4.4-10.4-6.2-26.4-6-13.5.1-27.7 2.9-30.6 5.9-2.6 2.8-3.5 9.6-1.9 14.2.8 2.4 1.9 4.7 2.4 5.2.5.6.9 1.9.9 3 0 1.2.7 3.4 1.5 5 .8 1.5 1.5 3.7 1.5 4.8s.7 3.2 1.5 4.6c.8 1.5 1.9 3.8 2.5 5.2.9 2.2 2.1 4.2 6.9 12 .8 1.2 1.6 1.3 5.3.2 7.2-2.1 7.3-2.1 7.1 1.8-.2 1.9-1.3 6.9-2.4 11.1-2.2 7.5-2.2 7.7-.3 10.2 1.5 1.9 2.7 2.5 5.1 2.3l3.3-.2-.6 4c-.3 2.3-1 5.7-1.5 7.6-1.7 7.2-4 31.2-3 32.3.5.7 1.2 3.8 1.6 6.9.6 4.9.4 6.1-1.4 8.6-1.1 1.6-3 6.5-4.1 10.8-4.1 15.9-3.9 15.4-6.3 15.4-3.8 0-9.8 2.1-11.8 4.1-2.3 2.3-2.6 9.2-.4 12.9.8 1.4 1.7 3.1 2.1 3.8.8 1.6-11.2 28.4-25.3 56.5L177.7 285l2.2 5.6c1.1 3.1 2.1 6.3 2.1 7.3 0 .9-1.6 5.6-3.6 10.5-2.7 6.7-3.4 9.6-2.9 12.2 1 5.4 4.2 8.4 11.4 10.2l6.3 1.7 4.2 12c4.8 13.5 6.6 17.4 10.8 22.7l2.9 3.7-2.1 5.7c-1.1 3.2-2 6.2-2 6.6s33.5.8 74.4.8h74.5l-2-7.1c-1.1-3.9-1.8-7.3-1.6-7.6.3-.2 2.4 3 4.7 7.2l4.4 7.5h30.4l-1-4.3c-.5-2.3-2-8.2-3.4-13.1-2.1-7.6-2.3-9.3-1.3-11.8 1.5-3.6.6-21.2-1.5-30.7l-1.4-6.5 3.2-4c1.8-2.3 3.6-4.7 4-5.4s-5.5-13.5-14.3-30.8c-14.5-28.5-15.1-30-16.6-39.3-.8-5.3-2-11.7-2.6-14.3-1-4.4-.9-5.1 1.6-9.5 4.9-8.5 5.5-10 4.9-11.6-.7-1.9-5.6-3.7-10-3.7-2.2 0-3.4-.6-3.8-1.8-.3-.9-1-8.6-1.5-17-1.1-16.3-1.7-18.4-7-23-1.4-1.2-4.3-3.1-6.3-4.2-4.6-2.5-6.1-5-5.3-9.3.4-2.1.1-3.9-.9-5.2-.9-1.2-1.5-1.5-1.6-.7 0 .7-.4 1-1 .7-.5-.3-1-2.1-.9-3.8.1-3 .1-3.1.8-.7.7 2.2.9 1.7 1.9-3 .7-3 1.6-8.9 2.2-13s1.9-11.1 2.9-15.5c1.1-4.4 2.2-9.2 2.5-10.7.5-2.4 3.7-4.6 5.9-4 .5.1 2.2-.7 3.8-1.8 4.9-3.6 4.1-7.1-4.2-17.6-2.7-3.4-4.9-6.6-4.9-7.2 0-1.3 5.6-2.1 7.2-1 3.8 2.3 8.1-.2 8.1-4.7 0-1.4.4-2.5.9-2.5s.8-.8.7-1.8c-.1-.9.4-3.1 1.1-4.7.8-2 1.3-9 1.4-21.7l.1-18.7-2.9-3-3-3.1-12.5.1c-10.2 0-14 .5-19.6 2.3m8 271.6c.4 5.7 1 12.6 1.4 15.2.5 2.7.7 4.8.6 4.8s-1.7-1.8-3.5-4.1c-2.4-3.1-2.9-4.3-2-4.9.9-.5 1-1.7.5-3.6-.8-3.2-.9-8.6-.1-14.9.3-2.2.5-4.5.6-5 0-.6.4-.3.9.5s1.2 6.2 1.6 12"/></svg>