<svg xmlns="http://www.w3.org/2000/svg" width="682.667" height="512" version="1.0" viewBox="0 0 512 384"><path d="M0 192v192h502.9l-2.9-4.8c-3.2-5.1-4.9-11.2-3.2-11.2.6 0 2.4 1.1 4 2.5 1.7 1.4 3.4 2.5 3.8 2.6.5 0 2.4 1.8 4.2 4.1l3.2 4V0H0zM190.5 89.6c11.4 8.3 29.6 23.1 31.2 25.3 1.2 1.9 1 3.1-2.1 11.3-6.3 17.2-7.5 26.1-6.7 49.8.2 6.2-.1 12.9-.9 16.5l-1.2 5.9-4.4-4.8c-2.4-2.6-4.4-5.2-4.4-5.8 0-.5-.6-.8-1.4-.5s-1.7-.1-2-1c-.5-1.2-.9-1.3-2-.4-1.4 1.2-1.8.6-14-23.3-14.9-29.3-21.2-48.2-18.6-56.1 1.8-5.4 5.7-12.2 10.6-18.6 5.2-6.7 4.1-6.9 15.9 1.7"/></svg>