<svg xmlns="http://www.w3.org/2000/svg" width="682.667" height="512" version="1.0" viewBox="0 0 512 384"><path d="M0 192v192h512V0H0zm299.6-32.4c.8 3.1-3.3 9.1-13.1 19.3-4.6 4.7-11.6 12.9-15.5 18.3-7.4 10-11.9 13.7-23.6 19.6-6.7 3.4-14.5 5.8-22.6 7.2-10.6 1.7-18.7-2.5-22.9-11.9-2.2-5-1.9-5.5 3.9-6.6 1.9-.3 5.8-1.7 8.6-3s6.5-2.7 8.1-3.1c1.7-.4 3.5-1.1 4.2-1.6s3.2-.2 6.6 1c7.8 2.6 15.5 1.6 24-3.1 8.3-4.7 11.6-8.1 19.4-20.2 7-10.7 12-16.6 16.8-19.6 2.8-1.8 3.1-1.8 4.3-.1.7.9 1.5 2.7 1.8 3.8"/></svg>