<svg xmlns="http://www.w3.org/2000/svg" width="682.667" height="512" version="1.0" viewBox="0 0 512 384"><path d="M335.9 5.4c-.2.2-3.2.7-6.7 1-13.9 1.5-30.8 8.9-33.2 14.5-1.2 3-1.3 3-4.1 1.6-5.2-2.7-17.8-1.3-23.3 2.7-2.3 1.7-3 1.8-3.7.7-.5-.8-.9-1.7-.9-2 0-1-5.1-3.1-11-4.5-8.1-2-21.7-1.7-33.3.7-10.5 2.1-11.7 2.6-12.1 5.2-.1.8-.8 2.2-1.5 3.1-1.6 1.9-.6 11 1.5 13.1.8.7 1.4 2.9 1.4 4.8s.6 4 1.4 4.6c.8.7 1.2 2.1.9 3.1-.3 1.1.2 3.1 1 4.4.9 1.3 1.8 3.6 2 5 .2 1.5 1 3.5 1.8 4.5.7.9 2.3 3.5 3.4 5.7q3.45 6.6 9 3c6.4-4.2 8.3.8 4.5 11.9-2.4 7-2.5 9.8-.5 12.9 1.2 1.8 2.4 2.3 4.6 2.2 1.7-.1 3.2.1 3.4.4s-.7 7.6-2 16c-2.9 18.2-2.8 17.3-1.4 16.5.7-.5.8.7.3 4-.5 3.4-.3 4.9.6 5.5.7.4 1.4 2.9 1.7 5.5.3 4.1 0 5.1-2.8 8.3-3.9 4.4-5.2 7.5-8 18.5-2.3 9.4-1.5 8.6-11.1 10.2-7.3 1.2-9.7 8-5.7 16.2l2.1 4.4-10.1 21.7c-5.6 11.9-14 28.6-18.7 37-9.3 16.7-9.2 16-5.6 26.4 1.3 3.7 1.4 5.1.4 7-2.9 5.7-5.2 13.2-5.2 16.8 0 5.3 3.8 9.4 10.5 11.3l5 1.4 3.2 9.4c4.1 11.8 10.4 24.7 13.6 27.7l2.5 2.3-1.8 4.7c-1 2.6-2.1 5.7-2.4 6.9l-.7 2.3h73.5c69.4 0 73.6-.1 73.6-1.8 0-.9-1.1-5.3-2.5-9.7s-2.5-8.2-2.5-8.4c0-.8 4.2 5.3 9 12.8l4.4 7.1h14.8c13.1 0 14.8-.2 14.8-1.7 0-.9-1.6-7.4-3.5-14.5-3.3-11.6-3.4-13-2-14.4 2.1-2.1 2-10.6-.5-24.4l-1.9-11.3 3.5-5.8 3.6-5.8-5.2-9.8c-2.9-5.4-9.9-18.1-15.5-28.3l-10.2-18.5-1.7-11.5c-.9-6.3-1.9-12.6-2.2-14-.4-1.8.7-4.5 3.5-9.2 2.3-3.7 4.1-7.1 4.1-7.6 0-1.9-3.7-4.1-8.4-4.9-6.1-1-6.1-1-6.9-19.6-.6-14.8-1.2-16.5-6.6-21.4-1.4-1.3-4.3-3.2-6.3-4.3-4.7-2.5-6.1-5.1-5.2-9.5.5-2.8.3-3.5-1-3.5-.9 0-1.6-.8-1.6-1.8 0-1.5.2-1.5 1.1-.2.8 1.1.9.7.5-1.8-.3-1.7-.2-3.2.3-3.2s1.4-5.3 2.1-11.8c1.1-11.5 4.5-31 5.5-32 .3-.3 1.3-.6 2.3-.7 2.7-.3 5.6-1.7 6.9-3.4 2.4-3.1 1.4-6.8-3.7-13.6-2.7-3.6-5.3-7.7-5.6-9.2-.7-2.7-.6-2.8 9.3-.9 3.1.6 6.2-3.9 6.8-9.9 0-.6.6-1.9 1.3-3.1.6-1.2 1.4-6.1 1.7-11 1.8-28 1.8-27.8-3.3-33.5-2.3-2.6-3.2-2.9-8.7-2.9-3.4 0-6.4.2-6.6.4m-12.2 274.3c-.3 1-.5.4-.5-1.2 0-1.7.2-2.4.5-1.8.2.7.2 2.1 0 3m1.7 11.8.7 7-2-3c-2.1-3-2.6-7-1.4-11.4.9-3.5 1.9-.8 2.7 7.4"/></svg>