<svg xmlns="http://www.w3.org/2000/svg" width="682.667" height="512" version="1.0" viewBox="0 0 512 384"><path d="M0 192v192h512V0H0zm304-55.3c0 1 1.1 4.2 2.5 7.1 2.4 5.1 2.5 6.2 2.4 22.5-.1 9.5-.4 21.7-.8 27.2l-.6 10-7.9.7c-14.8 1.4-34 6.8-43.1 12.4-3.3 1.9-8.8 5.8-12.4 8.7-12.7 10.1-14.8 11.5-22.8 15.6-10.2 5.2-10.7 5.2-9.9.1.5-3.1.3-4.2-.9-4.6-.8-.4-1.5-1.2-1.5-1.9 0-1.8 8.8-19.4 15.8-31.7 3.3-5.7 9.4-17 13.6-25.2 9.3-18 13.6-24.5 20.8-31.3 4.4-4.1 6.9-5.5 12.4-7.2 7.7-2.3 17.8-3.8 26.7-4 4.8-.1 5.7.2 5.7 1.6"/></svg>