<svg xmlns="http://www.w3.org/2000/svg" width="682.667" height="512" version="1.0" viewBox="0 0 512 384"><path d="M0 192v192h512V0H0zm292.9-53.3c1.6 3.5 4.4 10.7 6.1 16 1.8 5.4 3.4 10.5 3.7 11.3.4.8.7 1.9.8 2.5.2.5 1.3 4.2 2.5 8.2s1.9 7.6 1.6 8.1-3.6 2.4-7.3 4.2c-10.7 5.3-27.1 16.7-33.1 23-2.6 2.8-19.2 27.6-19.2 28.8 0 1.6-14.8 16.4-15.8 15.8-.6-.3-1.3-2-1.7-3.7s-1.3-3.3-2-3.5c-.7-.3-1.6-1.2-1.9-2.1-.7-1.8.8-15.4 3.5-31.3 1-6.3 3-20.1 4.3-30.6 3.7-29.1 7.9-40.7 17.6-48.1 4.6-3.5 21.8-12.8 27-14.6 2.3-.7 10.6 8.8 13.9 16"/></svg>