<svg xmlns="http://www.w3.org/2000/svg" width="682.667" height="512" version="1.0" viewBox="0 0 512 384"><path d="M320.1 10.1C307.4 12.6 294 19.2 294 23c0 2.4-.8 2.5-3.4.5-4.1-3.1-19.9-1.3-24.3 2.7-2.1 2-2.1 2-2.8-.1-1.3-4.3-13.8-8.1-26.9-8.1-12.7 0-31.9 5.1-30 8.1.3.6-.1 1.8-.9 2.7-2 2.4-2.8 5-1.7 5.7.6.4 1 1.7 1 3s.6 3 1.3 3.7c.6.7 1.2 2.8 1.2 4.6-.1 1.8.5 3.8 1.2 4.4s1.3 2.1 1.3 3.5c0 3.6 3.1 12.7 4.7 13.6.7.5 1.1 1.2.8 1.7s.4 2.5 1.6 4.4c2.4 4.1 5.2 4.6 11.2 2.1 3.3-1.4 3.6-1.3 4.1.3 1.2 4.1.8 12.1-.9 17.5-2.2 6.7-1.7 8.3 3.6 10.8 5.3 2.6 5.8 5.1 3.7 18.7-2.1 14.4-2.2 15.5 0 11.5 1.7-3.2 1.7-3.1 1.7 8v11.3l-4.3 3.9c-5.5 4.9-7.6 9-9.6 18.8-1.9 9.2-3 11.6-5.4 11.5-3.9-.3-9 1.4-11.2 3.7-1.9 2-2.2 3.2-1.8 6.9.3 2.4 1.5 5.7 2.6 7.4l2.1 2.9-2.4 4.9c-1.4 2.7-6.1 12.7-10.4 22.2-4.4 9.5-11.6 23.7-16 31.6-4.5 7.8-8.1 15.1-8.1 16.3 0 1.1.9 4.8 2 8.2l2.1 6.2-3.1 7.9c-1.6 4.4-3 9.2-3 10.7 0 4.7 3.3 8.9 8.7 10.8 2.6 1 5.3 2.3 5.9 2.9s2.1 4.7 3.4 9.1c2.7 8.9 8.8 22.7 11.8 26.4 2 2.4 2 2.5-.4 9.2-1.3 3.8-2.4 7.3-2.4 7.9 0 .7 24.4 1 74 1 40.7 0 74-.3 74-.7 0-1-6-21.1-7.6-25.6-1.8-4.7-1.2-4.7 1.7 0 1.2 2.1 5.3 8.9 9.2 15.1l6.9 11.2h14.9c8.2 0 14.9-.1 14.9-.3 0-.1-1.8-6.9-4-15-3.8-14-3.9-14.9-2.3-17.3 1.9-3 1.5-13.4-1.3-26.5l-1.7-8.5 3.1-4.7c3.8-5.5 3.9-7.5.9-13-2.5-4.4-13.5-24.6-19.4-35.7-2-3.6-4.5-8-5.6-9.9-1.7-2.9-6.5-26-6.7-32.2 0-1 1.5-3.9 3.3-6.7 1.9-2.7 3.6-5.6 4-6.5 1-2.7-1.7-4.9-7.3-5.8-2.9-.5-5.7-1.2-6.2-1.7s-1.3-7.7-1.7-16c-1-17.1-1.9-19.5-9.1-24.7-9.1-6.6-9-6.5-9-10 0-3.7 1.6-5.6 2.3-2.8.3 1 .3-1.4 0-5.2-.3-4.4-.1-6.5.5-5.7 1.1 1.7 2.2-10.9 2.2-26.8 0-6.3.4-12 .8-12.6s2-1.5 3.6-2.1c1.7-.5 3.8-2.1 4.9-3.5 1.9-2.5 1.9-2.6-.3-6.9-1.3-2.4-3.1-5.6-4.1-7s-2.2-4.5-2.8-6.7c-1-4.7-1.3-4.5 8-4.2 4.6.1 4.7 0 6-3.7.8-2.1 1.4-4.3 1.4-4.9s.5-1.8 1.2-2.5c1.1-1.5 2.4-8.2 2.4-13.4 0-1.7.3-3.7.6-4.5s.7-3.1.8-5c.2-1.9.6-6.1.9-9.2.4-4.6.2-6-1.2-7.4-.9-1-1.7-2.2-1.7-2.7s-.9-1.5-1.9-2.3c-2.3-1.6-21.9-1.8-29.5-.3m4.5 288.4c.9 5-.1 5.4-1.4.5-.5-2.2-.6-4-.1-4 .4 0 1.1 1.6 1.5 3.5"/></svg>