<svg xmlns="http://www.w3.org/2000/svg" width="682.667" height="512" version="1.0" viewBox="0 0 512 384"><path d="M0 192v192h512V0H0zm215.5-58.6c1.9 2.9 15 7.1 25 8.1 7.2.7 22.7 3.1 25.6 4.1 1.2.3 2.4 3.4 3.9 9.7 1.3 5.1 3.1 10.4 4.1 11.9 1.1 1.4 1.9 3 1.9 3.4s.7 1.5 1.6 2.5c1.7 1.9 2.8 5.7 4.4 15.7 1.6 9.5 5.7 16.5 16.1 27.7 11.2 12.1 18 21.1 17.3 23-.7 1.6-5.6 3.5-9.5 3.5-1.5 0-3.1.4-3.4 1s-1.8-.1-3.3-1.5-3.1-2.5-3.6-2.5c-.4 0-4.7-2.5-9.5-5.5-4.7-3-11.6-6.4-15.4-7.5-17.3-5.3-45.5-19.5-52.7-26.6-6.8-6.5-11.4-16.3-11.6-24.4-.1-5-.9-8.3-3.6-14.6-4-9-4.6-11.5-5-19.3l-.2-5.4 7.5-2.7c9.2-3.5 8.5-3.5 10.4-.6"/></svg>