<svg xmlns="http://www.w3.org/2000/svg" width="682.667" height="512" version="1.0" viewBox="0 0 512 384"><path d="M0 192v192h512V0H0zm248.3-36.9c4.7 4.2 7 5.4 12.8 6.9 3.8 1 7.7 2.4 8.6 3.2 3.8 3.1 6.6 6.3 8.4 9.8 2.2 4.1 10.8 10.6 16.1 12 1.8.5 5.6 1.2 8.3 1.5 16.2 1.8 32.5 5.3 32.6 6.9.4 3.4-.7 5.6-4.9 9.8l-4.6 4.8h-16.3c-14.6 0-16.5.2-19.7 2.1-9.1 5.3-21 8-51.1 11.3-3.7.4-11.8-1.5-16.8-3.9-5.7-2.7-14.3-10.9-16-15.4-1-2.3-2.8-4.5-4.4-5.4-13.2-6.9-19.5-11.2-23.3-16.2-2.6-3.4-3.9-5.9-3.4-6.7.4-.7 2.6-3.8 4.8-6.8s4.1-5.7 4.2-5.8c.1-.2 1.9.4 3.9 1.4 3.3 1.5 4.6 1.6 13.8.5 5.6-.7 10.9-1.8 11.7-2.5 3-2.5 12.2-7.7 17.8-10 8.8-3.7 10.9-3.4 17.5 2.5"/></svg>