<svg xmlns="http://www.w3.org/2000/svg" width="682.667" height="512" version="1.0" viewBox="0 0 512 384"><path d="M0 192v192h512V0H0zm241.5-31.5c5.1 1.9 7 2.1 12.5 1.4 5.6-.6 7-.5 11 1.6 2.5 1.3 5.9 3.6 7.5 5.3 1.7 1.6 5.6 3.9 8.8 5.2 4.9 1.9 6.9 2.2 13.5 1.7 4.2-.4 10-1.1 12.7-1.7 2.8-.6 6.1-1.2 7.5-1.4s6.1-.9 10.4-1.6c7.4-1.2 8-1.2 9.3.6 1.8 2.5.7 6.8-3.5 13.9-1.3 2.1-3 3.3-5.8 3.9-2.1.4-4.8 1.2-5.9 1.6-3 1.3-14.6 4.7-18.2 5.5-1.8.3-4.3 1.9-5.5 3.5-3.6 4.5-15.6 13.9-21.7 16.9-14.7 7.4-27 12.1-32.7 12.5-11.6.7-22.9-3.5-29-10.8-3.4-4.1-4.3-4.5-10.3-5.5-17.6-2.9-19.5-3.5-24.6-7.3-2.7-2.1-5.3-3.8-5.7-3.8-1.8 0-1-2.7 4.6-14.8.7-1.7 1.6-2.2 3.1-1.9 1.1.3 3 .8 4.3 1.1s3.1.1 4-.4c1.9-1 14.8-6 15.5-6 .3 0 4-3.7 8.3-8.1 4.4-4.5 10.2-9.7 12.9-11.5 5.6-3.8 6.5-3.8 17 .1"/></svg>