<svg xmlns="http://www.w3.org/2000/svg" width="682.667" height="512" version="1.0" viewBox="0 0 512 384"><path d="M0 192v192h512V0H0zm327.3-42.8c1.6 2.7 1.5 7.6-.3 13.4-.9 3.2-2.1 4.5-5.6 6.3-2.4 1.3-4.4 2.8-4.4 3.2 0 .5-.6.9-1.4.9s-2.1.6-2.8 1.3-4.8 3.4-9 6c-6.8 4.2-7.8 5.2-7.8 7.7 0 7.7-10.2 20.8-28.1 36.2-9.9 8.6-14.6 10.3-27.4 10.3-10.7 0-16.4-1.7-21.3-6.4-2.2-2.1-2.5-2.2-12.5-1.1-5.6.6-11.7 1.5-13.5 2-2.4.6-5.4.4-10-.8-3.7-.9-6.9-1.8-7.2-2-.6-.5 0-13 .9-17.3 0-.4 2.5-1 5.3-1.3 2.9-.4 5.5-1.1 5.8-1.5.8-1.1 13.1-9.1 14-9.1.5 0 3.2-4.7 6.1-10.4 5.9-11.9 11.3-19.1 14.8-20.1 1.4-.3 5.8-.3 9.8.1 5.8.5 7.8.3 9.1-.8 5.1-4.4 9.6-6 14.6-5.3 5.6.7 8.3 1.9 10.6 4.7 1.3 1.7 3 2 10 2.1 7.1.2 9.3-.2 13-2.1 7.1-3.6 13.4-7.2 15.1-8.8.8-.8 2.3-1.4 3.1-1.4.9 0 2.1-.7 2.8-1.5s1.8-1.5 2.4-1.6c.6 0 2.7-1.1 4.6-2.4q6.75-4.5 9.3-.3"/></svg>