<svg xmlns="http://www.w3.org/2000/svg" width="682.667" height="512" version="1.0" viewBox="0 0 512 384"><path d="M0 192v192h512V0H0zm312.8-64c1.3 1.1 2.2 2.5 2 3.2-.3.7.1 1.9.8 2.5.8.8 1.2 3.4 1 6.9-.2 4.7-.7 6-3.2 8.4-1.6 1.5-4.7 4.9-6.9 7.4-2.2 2.6-4.7 5.5-5.5 6.5-6.7 7.6-7.3 9-7.5 18.5-.3 10.5-2.1 15.8-9 26.6-2.2 3.6-5.3 8.7-6.9 11.3-3.6 6.3-8.2 11.4-12.6 14.2-9.3 5.8-23.9 7.4-32.7 3.5l-4.7-2.1-5.1 2.2c-10.2 4.3-14 6.2-17.7 8.7-2.6 1.6-4.2 2.2-4.9 1.5-.6-.6-2.9-.6-6.5.1-6.6 1.2-6.8 1-8.4-8.3-.8-4.6-.8-6.7-.1-6.9.6-.2 1.1-1 1.1-1.8s.9-1.4 1.9-1.4c1.1 0 2.2-.4 2.6-1 .3-.5 1.1-.7 1.8-.4.7.2 3-1.9 5.2-4.8s5.5-6.8 7.3-8.7c2.1-2.4 3.2-4.5 3.2-6.6 0-4.9 3.7-18.7 6.4-24.1s4-6.4 12.9-9.4c4.5-1.5 6.9-3.1 10.7-7.3 4.5-5 5.5-5.5 10.3-6.1 6-.8 8.7-.1 8.7 2.1 0 1.2.9 1.4 4.8.9 11.3-1.6 14.9-3.5 23.3-12 4.3-4.4 7.9-8.6 7.9-9.2s1.2-1.6 2.6-2.2c1.4-.7 2.2-1.7 1.9-2.2-.3-.6.2-1.3 1.1-1.7 2.2-.8 6.1-5.1 6.9-7.5.5-1.4 1.9-2.2 4.5-2.7.3 0 1.6.8 2.8 1.9"/></svg>