<svg xmlns="http://www.w3.org/2000/svg" width="682.667" height="512" version="1.0" viewBox="0 0 512 384"><path d="M0 192v192h512V0H0zm270.9-87c.3.8 1.5 1.7 2.6 1.8 1.1.2 2 .5 2 .5 0 .1.9 2 2.1 4.2 2.3 4.4 2.3 5.5.1 23-.9 6.6-1.9 14-2.2 16.5-.5 4.3-.4 4.6 2.7 6.5 4.2 2.6 9.4 9.5 10.8 14.3 1.8 6.1 3 18.9 3.1 32.1 0 11.5-.1 12.6-2.7 17.8-3.3 6.4-12.2 15.1-18.8 18.3-2.5 1.2-7.1 2.3-10.1 2.5-5.4.3-8.5 1.7-8.5 3.7 0 .6-1.3 3-3 5.5-1.6 2.4-3 4.9-3 5.5s-.6 1.9-1.4 2.7c-.7.9-2.1 4-3.1 6.9-1.4 4.3-2 5.2-3.5 4.7-1.3-.4-2.4.2-3.7 2-4.5 6.4-5.2 7.1-6.2 5.6-.5-.7-1.4-1-2-.7-.6.4-1.1.2-1.1-.4 0-.7-1.6-2.7-3.5-4.6-2.1-2-3.3-3.9-2.9-4.6.5-.8.2-.9-.9-.5-2.1.8-2 0 .4-3.8 1-1.7 2.2-3.7 2.6-4.5.3-.8 1-1.8 1.5-2.1.4-.3 1-1.8 1.2-3.5.2-1.6 1.5-6.8 2.9-11.5l2.4-8.6-3.8-7.9c-2.2-4.3-4.5-11.1-5.3-15-1.5-8.3-.9-11.2 4.2-18.6 3-4.3 3.2-5.2 3.2-13.2 0-5.6.4-8.9 1.3-9.5 8.6-7.2 9.8-7.5 11.4-3.4l1 2.8 7.4-7.5c6.2-6.2 7.7-8.3 8.7-12.5 1.3-5.2 2.1-11.7 2.6-19.7.2-2.6.9-5.4 1.5-6.2.9-1 .9-1.6.1-2.1-.6-.4-.8-1.6-.4-2.8s.6-4.8.6-7.9c-.1-3.5.3-5.6.9-5.3.5.4.9 0 .9-.7 0-2 7.1-1.8 7.9.2"/></svg>