<svg xmlns="http://www.w3.org/2000/svg" width="682.667" height="512" version="1.0" viewBox="0 0 512 384"><path d="M310 12.9c-12.1 3.5-18 6.8-18 10.2 0 2.4-.8 2.4-3.3.1-3-2.7-18.1-2.3-23.1.6-3.2 1.9-3.8 2-4.3.6-.8-2.1-6.7-4.9-13.1-6.3-15.1-3.2-44.3 1.5-43.4 7 .1.9-.4 2.2-1.2 2.8-1.6 1.4-1.3 9.8.4 11.5.6.6 1 2.5 1 4.3s.6 3.8 1.3 4.5c.8.6 1.1 2.2.9 3.5s.1 3 .7 3.7c.7.8 1.4 2.9 1.6 4.7.3 1.7 1.2 4.1 2.2 5.1 1 1.1 1.7 2.3 1.7 2.7-.2 1.1.9 3.6 2.4 5.3 1.6 1.9 6.2 2.4 7.7.9.6-.5 2.1-1.1 3.5-1.3 2.4-.3 2.5 0 3.2 6.2.4 4.4.2 8.1-.8 11.4-.8 2.7-1.4 5.9-1.4 7 .1 2.4 3.6 7 4.8 6.2 1.3-.8 2.6.6 5 5.7 2.3 5.1 2.7 10.3 1.3 21.2-.5 3.3-.7 6.2-.5 6.4s1-1.2 1.8-3c1.4-3.2 1.5-3 1 6.1-.4 7-.9 9.8-2.1 10.5-10.8 7-13.6 11.4-16.4 25-1 5.3-2.2 10.1-2.5 10.6s-1.9.9-3.5.9c-4.1 0-9.5 2.4-10.8 4.8-1.7 3.2-1.3 6.4 1.4 11.8l2.5 4.9-4.6 11c-7.2 17-15.3 33.8-23.7 48.8-4.2 7.5-7.7 14.4-7.7 15.2s.9 3.8 2 6.7c2.5 6.5 2.5 7.8 0 15.2-4.1 12.1-2 19.1 6.4 21.9 3.4 1.2 4.2 2 5.3 5.8 4.9 15.6 6.9 21.1 9.9 26.6l3.3 6.2-2.9 8.7c-1.7 4.8-2.8 8.9-2.7 9.1.2.2 34.1.2 75.4.1l75-.3-6.8-21.4c-7.5-23.6-9.3-30.9-5.6-22.1 4.6 10.6 9.8 20.2 17.4 32.1l7.7 11.9h27.8l-.6-4.5c-.4-2.5-2.2-9.7-4-16-2.8-9.6-3.1-11.7-2-12.6 2.1-1.7 1.8-13.9-.6-25.9l-2.1-10.2 3.6-5.3 3.7-5.3-10.8-20.8c-5.9-11.5-12.5-24.1-14.7-27.9-3.2-5.7-4.3-9.3-6.3-20-1.3-7.2-2.7-13.8-3-14.7-.6-2 1.7-7.9 4.6-11.5 2.6-3.3 2.6-6.9 0-8.3-1.1-.6-4.3-1.4-7-1.7-3.7-.4-5-1-5-2.2-.1-.9-.7-8.2-1.4-16.3-1.5-16.8-2.7-19.4-11.2-24.4-3.7-2.2-4.3-3-3.7-4.8.4-1.1.7-3.1.8-4.4 0-2.9 1.2-2.9 1.9 0 .2 1.3.3-.1.2-3-.2-2.8.1-5.2.6-5.2s.4-.9-.2-1.9c-.5-1.1-1-3.2-.9-4.8l.1-2.8 1.4 3.4c.8 1.8 1.7 3.1 1.9 2.9.3-.3.1-5.2-.4-10.9-.6-5.7-1.2-14.5-1.5-19.6l-.6-9.2 2.7-1.3c4.2-2 5-5.7 2.5-10.9-2.4-5.1-5.3-16-4.5-17.2.3-.4 3-.7 6.1-.5l5.6.3 2-4c4.2-8.8 4.7-10.2 5-16.3.3-3.5.9-6.9 1.4-7.5 1-1.2 2.2-8.1 2.2-12.4 0-1.2.5-2.5 1-2.8 1.1-.7.3-3.3-1.7-5.6-.7-.9-1.1-1.8-.8-2.1s-.7-1.3-2.2-2.3c-4.2-2.8-29.4-3.2-38.3-.6M244 147c0 1.1-.4 2-1 2-.5 0-1-.9-1-2s.5-2 1-2c.6 0 1 .9 1 2m70.4 93.9c-.3 7-.7 14.2-.8 16.1s-.4 4-.8 4.5c-.3.6-.5 2.6-.5 4.5.1 1.9-.3 3.6-.9 3.8-.5.1-1.5-5.3-2.2-12-1.3-12.9-.9-17.7 2.5-29 1.4-4.9 1.6-5.1 2.5-2.9.5 1.4.6 8.1.2 15m9.8 67.6c.3 1.3.2 2.2-.2 2-1.1-.7-2-4.5-1-4.5.4 0 1 1.1 1.2 2.5"/></svg>