<svg xmlns="http://www.w3.org/2000/svg" width="682.667" height="512" version="1.0" viewBox="0 0 512 384"><path d="M0 192v192h512V0H0zm201-71c1.1.6 2.1.6 2.4.1 1-1.5 4.4 0 6.1 2.6 1 1.4 5.8 6.9 10.9 12.2s11.1 11.6 13.3 14.1l4.1 4.5 4.9-2.4c2.6-1.3 7.3-2.5 10.3-2.8 8.5-.7 15.4 2.7 35.6 17.9 7.4 5.5 9.6 7.8 11.9 12.3 6.7 13.3 4.3 33.2-5.2 43.2-1.8 2-3.3 4-3.3 4.5s1.4 3.5 3 6.8c1.7 3.3 3 6.6 3 7.4 0 .9.8 2.3 1.9 3.3 1 1 2.1 2.9 2.4 4.3.4 1.4 2.2 4.4 4.1 6.6 3.5 4 3.8 5.8 1 4.7-1.6-.6-2 3.7-.5 6.5.4.9 1.1 3 1.5 4.5.6 2.5.5 2.8-1.4 2.2-1.5-.5-1.8-.3-1.4.8.3.8.1 1.8-.4 2.1-.6.3-1.3-.2-1.6-1.1-.6-1.4-.9-1.5-1.6-.3-.7 1.1-1.1 1.1-2.4.1-1.1-.9-1.6-1-1.6-.2 0 1.9-1.6 1.2-2.8-1.2-1-2.1-1.1-2.1-1.1.6-.1 3.3-2.1 2.7-2.2-.6 0-2.1-.1-2.1-.8-.2l-.8 2-.6-2c-.3-1.1-.9-3.5-1.2-5.3-.4-1.8-1.3-3.6-2.1-3.9-1-.4-1.1-1-.4-2.4.8-1.4.6-2-1-2.9-1.1-.6-2-1.6-2-2.3s-.6-2.3-1.4-3.7c-8.7-16.1-9.3-17-12.5-17-3.5 0-12.5-2.7-17.4-5.2-6.3-3.2-11-8.2-14.5-15.4-3.1-6.4-3.8-7.1-9.3-9.8-3.3-1.6-7.1-3.8-8.5-4.9-2.3-1.8-2.5-2.4-1.8-7.6.8-7 1.7-8.1 4.6-5.4 1.3 1.1 3.1 2.3 4.1 2.6 1.6.6 1.7-.2 1.4-10.2-.3-11.5-1.5-14.7-7.8-20.9-1.3-1.3-4.9-4.7-8-7.7s-6.3-5.5-7.2-5.5-1.7-1-1.9-2.3c-.2-1.6-1.1-2.3-3.1-2.5-1.5-.2-2.5-.7-2.2-1.2.7-1.1-6-5.6-9.7-6.5-1.6-.4-2.5-1.1-2.2-1.7.3-.5 1.3-.7 2.3-.4.9.4.5-.3-.9-1.4l-2.5-2h2.4c2.4 0 2.4 0 .5-2.1l-1.9-2.2 3 .7q3.15.75 1.5-.3c-2.2-1.5-.2-2.7 2-1.3 2.7 1.7 4.6 1.6 3.1-.1-.8-1.1-.4-1.3 2.2-1 2.5.4 2.9.2 1.7-.6-1.9-1.4-.5-1.4 2-.1"/></svg>