<svg xmlns="http://www.w3.org/2000/svg" width="682.667" height="512" version="1.0" viewBox="0 0 512 384"><path d="M307.5 12.9c-9.8 2.1-16.3 5.3-17.5 8.7l-1 2.5-2.6-2c-3.8-3-17.2-3-22.9-.1-2.4 1.2-4.1 1.6-4.3 1-.8-2.4-3.7-4.1-10.5-6.2-9.5-3-21.8-3-34.2 0-9.2 2.3-12.8 4.4-11.8 6.8.3.8-.2 1.6-1 2-.9.3-1.3 1.2-1 2s-.1 1.4-.8 1.4c-1 0-1 .3-.1 1.2.7.7 1.2 2.4 1.2 3.9s.4 3 .8 3.3c.5.3.9 2 1 3.7 0 1.7.6 3.7 1.1 4.2.6.6 1.1 2.6 1.1 4.3 0 1.8.5 3.6 1 3.9.6.4.8 1 .5 1.5s.2 2.6 1.1 4.7c1 2.1 1.8 4 1.9 4.3s.8 2 1.5 3.8c1.5 4 4.4 4.8 10.1 2.9 3.3-1.1 4.6-1.2 5.1-.4 1.3 2 .9 12.3-.7 16.7-2.8 8.1-1.1 14 4.1 14 1.4 0 2.9 2.2 5.9 8.8 3.5 7.6 4 9.7 4.2 16.7.2 9.7.1 9.3 1.4 7.5.8-1.2 1-1.2.7.5-.2 1.2-1.2 2.1-2.6 2.3-2.2.3-3 2.6-1.2 3.7.5.3 1.4 1.4 2 2.5.8 1.6.2 2.2-4.3 4.8-10.8 6.1-15.4 13.7-17.3 28.2-1.1 8.7-1.6 9.5-7.5 10.8-2.9.7-6.1 2-7.1 2.9-2.5 2.2-2.4 9 .2 12.3 1.1 1.4 2 3.7 2 5.1 0 6.2-14.1 38.7-27.6 63.1l-6.7 12.2 2.5 7.7 2.6 7.7-2.5 8.4c-3.6 12.6-2.5 16.4 6.2 20.4 3.1 1.5 4.1 2.7 4.8 5.4 2.3 9.2 7.1 23.8 8.8 26.8l1.9 3.3-3.5 10.6c-1.9 5.9-3.5 10.8-3.5 11s34.4.3 76.5.3 76.5-.2 76.5-.5c0-.4-3.2-9.9-7.1-21.3-6.2-18.3-12.4-38.7-15-49.2-.4-1.9-1.5-5.2-2.4-7.2-1.9-4.7-1.9-5.8 0-5.8 2 0 3 2.4 5.9 14 5.1 20.6 13.5 39 26.6 58.8l7.4 11.2H384l-.6-2.8c-.3-1.5-2-7.9-3.6-14.2-3.9-14.9-4.2-16.6-2.9-17.4 1.8-1.2 1.3-14.4-1.1-25.7l-2.2-10.7 3.2-4.3c1.8-2.4 3.2-4.9 3.2-5.6s-6.3-14.1-13.9-29.7c-13.8-28.3-13.9-28.6-17-43.3l-3.1-14.8 3.6-7.2c4.2-8.4 3.7-10.3-2.5-10.3-8.5 0-8.4.1-10.1-18.9-1.4-14.9-2.2-17.3-7.7-21.9l-4.5-3.9.8-4.9.8-4.9 1.3 4c1.2 3.8 1.3 3.7.7-3.3-.4-4.3-.2-7.2.4-7.2.5 0 .3-2.2-.4-5.2-1.9-7.3-1.6-9.1.7-3.9 1.1 2.4 2.2 4.2 2.4 3.9.3-.3-.4-5.9-1.5-12.4-3.3-19.6-3.6-24.1-1.5-26.3 1.5-1.8 1.6-2.8.5-11.1-.7-5.1-1.6-10.6-2.1-12.3-1.2-4.1-.3-4.7 4.9-3.7 3.7.6 4.6.5 6.3-1.4 1.1-1.1 2.2-3.2 2.6-4.6.3-1.4 1-3.1 1.6-3.8 1-1.3 2.7-7.8 3.1-12.2.2-1.4.5-3.2.9-4 1.1-2.6 3.1-10.5 2.9-11.3-.1-.4.2-1.6.7-2.5.6-1.2.5-2.8-.4-4.7-.7-1.7-1.5-3.8-1.8-4.7-.7-2.1-5.5-3.4-17.2-4.8-11.5-1.3-13.4-1.2-23 .9m8.1 227.5c-.5 21.1-.7 24.8-1.8 27.6-.4.8-.7 2.2-.7 3-.1 3.7-2.5 18-3 18-.3 0-1.6-1.6-2.9-3.6-1.9-2.8-2.1-3.8-1.1-5 .9-1.1.9-2.1.1-3.9-.6-1.4-.9-3.1-.6-3.9.3-.7-.2-7.8-1.1-15.7-1.2-11.2-1.3-15.5-.4-19.9 1.1-5.7 3.9-15.4 5.9-20.5l1.2-3 2.5 2.9 2.5 2.9z"/></svg>