<svg xmlns="http://www.w3.org/2000/svg" width="682.667" height="512" version="1.0" viewBox="0 0 512 384"><path d="M0 192v192h512V0H0zM286 80.5c0 .3-.7 2.2-1.5 4.2-2.1 5-1.1 5.4 1.4.5 1.1-2.3 2.5-4.3 3.1-4.7 1.7-1 1.1 2.3-1.1 6.8l-2.1 4.2 4.1-4.5c4.2-4.7 5.6-3.9 2 1.2-2.9 4-2 4.3 1.8.8 4.4-4.1 4.8-3.7 1.7 1.5-1.4 2.5-2.4 4.8-2.2 5.1.3.2 2.2-1.4 4.2-3.6 4.7-5.3 5.4-5.1 1.6.4-3.9 5.8-3.8 6.4.5 3.2 4.7-3.6 4.4-2.4-.5 2.5-2.2 2.2-4 4.3-4 4.6 0 .4-1 1.8-2.2 3.1-1.6 1.7-1.9 2.6-1 2.9.6.3 1.2 1.2 1.2 2 0 1.2-.3 1.3-1.4.4-2.1-1.7-4 1.2-3.2 5 .3 1.8.2 2.8-.4 2.4-1.3-.8-3.9 3.5-5.6 9.1-.8 2.6-2 5.7-2.7 6.8-.8 1.2-2.1 4.9-3.1 8.4l-1.7 6.2 3.5 6.8c4 7.7 5.6 13 5.6 18.6 0 2.1.5 6.7 1.2 10.2 1 5.4.9 6.9-.5 10.5-1.6 4-1.6 4.3.3 6.9 2.2 3 8 16.7 8 18.7 0 .7-1 1.8-2.2 2.4-1.3.6-3.3 2.1-4.5 3.2-1.3 1.1-3.4 2.1-4.7 2.3-2.4.2-2.5-.1-3.2-6.7-.4-3.8-1-6.9-1.5-6.9s-1.5 1.2-2.3 2.7c-.8 1.6-3.7 4.5-6.4 6.6-5.9 4.4-6.2 5.7-6.1 23.2.1 14.1 1 21.1 2.7 20.7 1.7-.3 1.5 1.3-.3 2.8-2.4 2-1.8 4.9 1 5.6 2.7.7 3.4 2.4 1 2.4-.8 0-1.5.2-1.5.5 0 1.8 4.5 11.4 6.2 13.2 1.2 1.3 1.8 2.6 1.4 3-.4.5-1.9-.6-3.3-2.2-1.4-1.7-2.3-2.6-2.1-2 .3.5 1.3 2.7 2.2 4.8 2.4 5.2 1.4 5.7-2 1-4.3-5.9-4.7-6.1-2.9-1.6.9 2.3 1.5 5 1.3 6-.3 1.5-.7 1.2-2.1-1.2-1.4-2.7-1.6-2.8-1.7-.8 0 3.9-1.7 3.4-3.4-1.1-.9-2.5-2.4-5-3.3-5.8-1.5-1.1-1.6-1.1-.9.7.5 1.1 1 3.1 1.3 4.5.3 1.8-.3 1.2-2-1.9-2.5-4.6-4.5-4.3-2.7.4 1.2 3.2 1.2 3.5.1 3.5-.4 0-1.4-2-2.1-4.4-.9-3.3-1.6-4.3-2.7-3.9-1.2.5-1.4.1-.8-1.5.5-1.6.2-2.2-.9-2.2-1.8 0-2.2-3.5-.6-4.5 1.2-.7 1.1.2 1.3-27l.2-22-9-.5c-8-.5-9.5-.9-13.6-3.8-7.2-4.9-9.4-11-15.9-44.7-2.1-10.9.7-19.1 9.8-28.4 12.9-13.1 27-19.3 38.9-17.1 3.1.5 5.7 1 5.8 1s1-2.6 1.9-5.8c.9-3.1 3.1-9.5 4.8-14.1 2.4-6.7 2.8-8.5 1.7-9.2s-1.1-1.1.3-2.1c2.3-1.9 3.9-10.5 2.8-15.3-1.2-5.2-1.2-6.5 0-6.5.6 0 1 .8 1 1.9 0 1 .6 2.4 1.4 3 1.2 1 1.8.8 3-1.1.9-1.3 2.1-3.9 2.7-5.8.7-1.9 1.6-4.1 2.2-4.8.9-1.2 2.7-1.7 2.7-.7"/><path d="M249.1 273.6c0 1.1.3 1.4.6.6.3-.7.2-1.6-.1-1.9-.3-.4-.6.2-.5 1.3"/></svg>