<svg xmlns="http://www.w3.org/2000/svg" width="682.667" height="512" version="1.0" viewBox="0 0 512 384"><path d="M0 192v192h512V0H0zm333.1-91.8c-1.8 5-.4 4.4 2.3-1.1 1.5-2.8 3.1-5.1 3.7-5.1 1.1 0 .5 2.9-1.7 7.2s-1.6 4.6 1.1.5c1.4-2 3-3.7 3.5-3.7 1.4 0 1.3.5-1.5 6-1.4 2.7-2.5 5.4-2.5 6 0 2.1 1.6.8 3.9-3.2 2.7-4.8 4.1-3.7 1.6 1.2-2.2 4.2-2.7 7.2-1.3 6.8.7-.3 1.9-1.9 2.7-3.6.9-1.7 1.9-3.2 2.4-3.2 1.1 0 .8 1.7-.6 3.2-.7.7-2.3 3-3.5 5.1-2.1 3.7-2.2 3.8-.2 3.2 2.8-.9 2.6 1.3-.2 2.5-1.3.5-1.7.9-1 .9 3 .2.7 2.8-5 5.6-3.7 1.8-6.7 4-7.7 5.7-.9 1.5-2.3 2.8-3.1 2.8-1.5 0-4.9 2.9-10.2 8.6-1.5 1.6-6.2 6-10.6 9.9-4.3 3.8-8.5 8.1-9.4 9.5-1.5 2.4-1.3 2.7 5.2 9.5 7.3 7.6 9 11.3 9 19.7 0 6.3-2.7 12.2-11.2 24.2-19.4 27.5-21.5 29.2-37.7 30.1-8.5.5-11.5.2-19.9-1.8-14.8-3.7-23.5-10.1-29-21.5-1.9-3.9-3.1-4-9.6-.3-2.8 1.6-8.2 4.2-12 5.7-4.3 1.7-7 3.4-7.4 4.6-.3 1.2-1.4 1.8-3.4 1.8-2.3 0-4.5 1.5-10 7-6.7 6.6-9.8 8.4-7 4 1.6-2.7 1.5-5-.3-5-.8 0-4.4 1.1-8.1 2.5-7.3 2.7-8.4 3-8.4 1.6 0-.5 1.9-1.8 4.3-3l4.2-2.1-6 .6c-6.8.8-6.7-.2.3-2.8l4.7-1.8-4.7.3c-6.2.3-6.2-1.5-.1-3l4.8-1.1-4.5-.2c-2.5-.1-4.8-.2-5.2-.1-.5 0-.8-.3-.8-.8 0-.6 2-1.3 4.5-1.7 5.9-.8 5.3-2.9-.7-2.9-2.6 0-4.9-.3-5.4-.8-.4-.4.4-.7 1.7-.7 4.2 0 7-1.2 6.5-2.6-.3-.9.2-1.4 1.7-1.3 1.2 0 3.6-.3 5.2-.6 1.7-.3 4-.8 5.2-1.1 1.5-.3 2-.9 1.7-1.9-.8-1.9 1-1.9 2.6 0 1.8 2.2 3.6 1.8 6-1.2 1.5-1.9 2.4-2.3 3.1-1.6 1.2 1.2 6.8-.3 11.1-3 1.3-.9 4.3-2.1 6.8-2.8 5.4-1.5 18-8.7 18-10.3 0-3.2 5.5-12.1 11.3-18.2 4.3-4.6 6.7-8.1 7.2-10.4 1.4-6.7 4.3-10.8 9.7-13.9 4-2.3 5.8-4.2 8.2-8.8l3.1-5.8h6.5c4.2 0 7.1.5 8.2 1.4 1.6 1.4 1.5 1.8-1.8 5.8-2 2.4-3.5 4.5-3.3 4.7 1.9 1.4 7.8 4.6 8.5 4.6.5 0 1.8-1.4 2.9-3 1.5-2.2 2.8-3 5.1-3 4.7 0 15.7-8.1 26.9-19.8 8.7-9.1 9.8-10.5 8.7-12.2-1-1.7-.9-1.9 1.8-1.5 4 .5 5.7-1.7 4.1-5.2-1.1-2.3-1-2.5.8-2 1.6.4 2.5-.5 4.4-4.7 1.4-2.8 2.8-7.2 3.2-9.9.8-5.9 2.5-6.2 2.6-.5 0 2.4.3 3.6.6 2.8s1.3-3.1 2.1-5c1.4-3.2 1.6-3.3 1.9-1.2.3 1.3 0 3.7-.6 5.4M146.8 223.7c-1 .2-2.6.2-3.5 0-1-.3-.2-.5 1.7-.5s2.7.2 1.8.5"/><path d="M170.5 224c-.3.6.1.7.9.4 1.8-.7 2.1-1.4.7-1.4-.6 0-1.3.4-1.6 1"/></svg>