<svg xmlns="http://www.w3.org/2000/svg" width="682.667" height="512" version="1.0" viewBox="0 0 512 384"><path d="M0 192v192h512V0H0zM268 65.1c0 1 .5 2.1 1 2.4.6.4 1-.7 1-2.6 0-4.8 1.8-2.4 3 4.1 1.6 8.2 3.3 8.9 2.6 1-.7-6.8.2-6.2 2.3 1.7 1.3 4.6 3 5.7 3.2 2 .1-1.9.2-1.8.9.6.5 1.6.6 3.6.3 4.5-.5 1.4-.3 1.5.8.4 2-1.9 3.1-1.4 2.4.9-.5 1.3-.3 1.9.3 1.5 1.9-1.1 2 2 .1 4.5-1 1.3-1.9 3-1.9 3.7 0 .8-.8 2.7-1.7 4.3-1.3 2.2-1.5 3.5-.7 5.6.7 2.2.6 3.1-.8 4.5-1 1-1.8 2.8-1.8 4 0 3-4 27-4.6 28s-.7 11.8-.1 12.4c.2.2 4.1 1 8.6 1.8 12.2 2.1 17.6 6.7 21 17.4 1.7 5.7 2.1 10 2.5 28.2.3 16.7.1 22.1-1 24.1-.7 1.5-1 2.9-.7 3.3 1.2 1.1-14.6 15.4-20.2 18.3-3.1 1.5-7 3.5-8.8 4.5-4.7 2.4-15.1 4.1-21.2 3.5-2.9-.3-7.6-1.5-10.4-2.7-2.8-1.3-5.3-2.1-5.5-1.9-.1.2-3.3 6.1-6.9 13.1-3.9 7.6-6.2 13-5.6 13.3.6.4 0 1.7-1.4 3.1-3 2.9-4.7 9.2-4.7 16.8 0 3.1-.4 5.6-1 5.6-.5 0-1-.4-1-.9s-.5-2.2-1-3.7c-1-2.6-1.1-2.6-3.2-.8-1.1 1.1-3.6 4.2-5.4 7.1-5.5 8.5-7.7 7.9-2.8-.7l2.5-4.5-5 5c-5.9 5.7-6.7 4.4-1.5-2.6 4.4-6 3.3-6.4-2-.7-4.7 5.2-6.3 3.5-1.7-1.8 1.7-1.9 3.1-3.7 3.1-4s-2.3 1-5 3c-5.8 4.2-6.4 3.6-1.5-1.6 1.9-2 3.5-3.9 3.5-4.2 0-1.7-3.5-.2-6.9 2.9-5.5 5-6.3 4.3-1.1-1 4.7-4.7 4.8-7.2.2-3.9-6 4.4-5.3 3.3 2.3-4 4.4-4.1 8.4-7.6 8.9-7.6s.1-1-1-2.2l-1.9-2.1 3.2.6c2.9.6 3.3.4 3.9-1.8.3-1.4.4-3.5.1-4.6-.3-1.3-.1-1.9.6-1.6 2.4.9 4.7-1.5 7.7-7.8 1.7-3.5 4.2-7.7 5.5-9.3 1.4-1.6 3.4-5.4 4.6-8.5l2.1-5.5-2.1-5.6c-2.4-6.6-2.6-14.2-.7-26.1 1-5.9 1.1-9.5.4-13.8-.8-4.2-.7-6.6.1-8.3.9-2 .6-4.3-1.1-11.1-2.1-8.5-2.1-8.7-.2-10 5.4-3.8 9.3-6.1 11.8-6.7l2.7-.7-.7 6.2c-.6 5.7-.5 6.2 1 5.6 1-.4 3.5-1 5.7-1.3 4.6-.8 6.3-2.6 6.5-6.7.1-2 1.1-3.9 2.8-5.2 1.4-1.1 2.6-2.8 2.6-3.7s.4-1.9.9-2.2c1.2-.8 4.5-15.4 4.3-19.1-.1-1.7.5-6.7 1.3-11 1.3-7.8 1.3-8.1-.7-9.8l-2-1.7 2.6-2.1c3.3-2.6 3.3-4.5-.1-6.3-2.5-1.3-2.6-1.5-1-2.2 1.6-.6 1.8-1.4 1.2-5.3-.3-2.5-1.8-7-3.2-9.9-3.1-6.5-2.5-7.7 1.2-2.5l2.7 3.8-.7-3.5c-.4-1.9-.9-4.6-1.2-6-.7-3.4 1.4-1.4 3.8 3.7l1.8 3.8-.5-6.5c-.5-6-.4-6.4 1-4.6.9 1.1 1.6 2.8 1.6 3.7m14 4.1c0 .5-.4.8-1 .8-.5 0-1-1-1-2.3 0-1.8.2-1.9 1-.7.5.8 1 1.8 1 2.2"/><path d="M277.5 95.9c-.3.5-.1 1.2.5 1.6.5.3 1-.1 1-.9 0-1.8-.6-2.1-1.5-.7"/></svg>