<svg xmlns="http://www.w3.org/2000/svg" width="682.667" height="512" version="1.0" viewBox="0 0 512 384"><path d="M0 192v192h512V0H0zm172.1-95.2c1.3 1 3.9 2.6 5.7 3.5 3.1 1.5 3.2 1.5 3.2-.6.1-2.1.1-2.1 1.1-.3.8 1.3 1.3 1.5 1.9.6 1-1.6 4 1.5 4 4.1 0 1 .5 1.9 1.1 1.9.5 0 1.6 1.5 2.4 3.3 1.6 3.8 3.1 5.3 5.9 5.8 1.2.3 2 1.3 2.1 2.7.1 1.3 1.3 3 2.6 3.9s7.7 6.9 14.2 13.4c15.7 15.5 15.3 15.3 21.2 9.5 3.4-3.2 6.4-5 10.4-6.2 11.6-3.3 19.2-.1 50.7 21.8 3.4 2.4 7.4 5.7 8.8 7.5 7.8 9.4 8.1 36.3.6 51.3-2.6 5.2-9.1 12.3-13.6 14.8-1.8 1-1.7 1.6 3.3 11.4 2.9 5.7 5.7 11.6 6.3 13.1.6 1.6 1.9 3.1 3 3.4 1.3.3 2 1.4 2 2.8 0 2.9 6.2 10.6 12 14.6 4.2 3.1 4.3 5.2.1 3-1.1-.6-2.4-1.1-3-1.1-1.9 0-1.1 5.3 1.4 10.5 2.6 5.1 3.3 9.1 1.5 8-.6-.4-2-2.4-3.1-4.7-2.6-5.2-3.3-4.4-1.3 1.5 2.7 7.9 1.2 8.9-2.4 1.7-1.9-3.7-3-5.3-2.7-3.6 1.8 8.8 1.8 8.9.5 8.4-.8-.2-2.2-2.6-3.2-5.4l-1.8-4.9.6 7c.5 6.7.5 6.9-1 4.2-.8-1.5-1.8-4.3-2.2-6.2-1-5.7-2.4-2.9-1.8 3.8.6 6.8-1 6.4-2.1-.5-.9-5.3-2.5-5.8-2.5-.8 0 2.5-.4 3.9-1 3.5-.5-.3-1-2.2-1-4.2s-.5-6.4-1.2-9.9c-.9-5.1-1.5-6.4-3-6.4-2.2 0-2.3-.9-.2-2.5 2.3-1.6.9-5.3-2.2-6.1-2.7-.7-3-1.7-1-3.6 1.1-1 1-1.7-.5-4.3-1.1-1.6-1.9-3.8-1.9-4.8 0-.9-.3-1.7-.8-1.7-.8 0-2.5-3.8-3.7-8-.4-1.4-1.9-4.6-3.3-7.3-2.7-5-2.3-4.8-14.5-7.8-8.6-2.1-20.7-11.4-28.7-22.1-3.5-4.7-5.7-6.1-11.5-7.3-1.6-.3-6.2-1.7-10.2-3.2l-7.2-2.5v-7.2c0-4.4.6-7.8 1.4-9 1.3-1.7 1.6-1.8 3.8-.3 1.3.9 3.1 2.2 3.8 3 .8.7 2.4 1.9 3.6 2.5 2.8 1.6 3.3.1 3.3-10.1-.1-5.6-.5-8.8-1.5-10.1-.8-1.1-1.5-3-1.5-4.3 0-3.2-7.1-13.2-12.8-17.9-2.6-2.1-7.5-6.5-10.9-9.7-6.2-6-8.8-7.2-11-5.4-1 .7-1.3.1-1.3-2.7 0-3-.4-3.7-2.5-4.2-1.4-.3-3.1-.1-3.9.5-.9.8-1.6.8-2 .2-.4-.5-.2-1.2.4-1.6 1.4-.9 1.2-2.5-.3-2.5-.7 0-3.1-.9-5.2-2-2.2-1.1-5.8-2.3-8-2.6-6.6-.9-7.3-1.8-2-2.4l5-.5-5.2-1.8c-8.9-3.1-6.3-5 3-2.2 6 1.8 5.4.6-1.2-2.4-5.7-2.7-7.8-5.5-3.3-4.5 1.5.4 4.2 1.6 6 2.6 1.8 1.1 3.5 1.8 3.7 1.6.3-.2-1.3-1.5-3.5-2.9-3.9-2.4-5.9-4.9-3.9-4.9.5 0 3.2 1.1 5.9 2.5 5.3 2.7 7 3.1 7 1.5 0-.5-1.1-1.2-2.5-1.6-1.4-.3-2.5-1-2.5-1.4 0-.5-.9-1.2-2-1.5s-2-1-2-1.5 2.3.2 5.2 1.5c5.5 2.5 8.6 2.3 5-.4l-4.4-3.3c-1.3-.9-1.8-1.7-1.2-1.8.6 0 2.2.8 3.5 1.8"/><path d="M191 114.9c0 .5.5 1.3 1 1.6.6.3 1 .2 1-.4 0-.5-.4-1.3-1-1.6-.5-.3-1-.2-1 .4"/></svg>