<svg xmlns="http://www.w3.org/2000/svg" width="682.667" height="512" version="1.0" viewBox="0 0 512 384"><path d="M0 192v192h237l-.2-9.9-.2-10-4-.6c-6-.9-19.6-6.5-19.6-8 0-.8-1.7-1.9-3.7-2.5-2.1-.7-4.2-1.6-4.7-2-.5-.5-1.4-.6-2.1-.3-1.8.6-4-.6-17.4-9.5-13.9-9.3-20.7-17.3-23.7-28.2-2.1-7.2-1.7-22.7.6-27.8 1-2.3 2.3-4.2 2.8-4.2s1.5-1.3 2.2-3c1-2.4 7.4-9 11.5-11.8.6-.4 2.6-1.9 4.5-3.3 3.1-2.3 8.1-5.3 19-11.2 2.3-1.2 6-5.4 10.5-11.9 3.8-5.5 8.5-11.5 10.2-13.5 3.8-4.1 4.4-8.3 1.3-8.3-1.1 0-2-.7-2-1.5s-.3-1.5-.7-1.5c-1.2 0-9.3 4.2-16 8.4-3.4 2.1-6.9 3.6-7.9 3.4-1.1-.2-2.4-2-3.2-4.3-3.2-9.1-3.6-9.8-6.7-11.1-2.1-.8-3.9-2.7-5-5l-1.8-3.8-3.1 3.9c-1.7 2.2-6.1 7.4-9.7 11.5s-8.3 10-10.6 13c-2.2 3-10.9 12.5-19.3 21l-15.2 15.4 3.7 3.2 3.7 3.1-6.3 1.7c-3.5 1-8 2.9-10 4.2-3.7 2.6-8.8 9.6-11.4 15.8-1.6 3.8-3.2 4.6-4.1 2.1-1-2.4-6.4-3.4-17.9-3.1-10 .2-11.5.5-17 3.3-6 3.1-9.7 6.4-13 11.5-.9 1.6-2.5 2.8-3.4 2.8s-2.2.5-2.7 1c-.8.8-1.9.8-3.8 0l-2.7-1 2.8-5.2c3.3-6 13.3-15 22.7-20.4 5.6-3.2 6.2-3.9 5-5.2-1.1-1-1.2-1.8-.4-2.7.8-1 .6-1.5-1-2-2.3-.7-2.3-2.4.1-3.6.8-.4 4.2-1.6 7.7-2.6 8.1-2.3 13.1-6.7 12.9-11.4-.2-4.2 1.3-4.6 5.2-1.4 3.5 3 3.6 3 4.9-5.7.6-3.7.5-6.1-.1-6.7s-.8-1.3-.5-1.7c.8-.7 5.8 2.5 5.8 3.7 0 2.1 2.7.6 5-2.9 1.4-2 3.9-5.3 5.7-7.2 1.7-1.9 4.5-5.4 6.2-7.7 5-7 7.2-9.4 15.3-17.3 6.7-6.5 12.6-13.1 17.8-19.6.8-1 3.3-4.1 5.5-6.8 2.1-2.6 4.1-6 4.3-7.4s1.6-4.2 3.2-6.2c2.4-3 2.8-4.3 2.5-8.8-.2-4.6.1-5.7 2.3-7.9 1.4-1.4 4.6-3.5 7.1-4.6 2.5-1 7.3-3.2 10.6-4.7 9.9-4.6 12.8-5.7 17.8-6.4 3.9-.6 5-1.2 5.8-3.3 1.1-3-.5-5.8-2-3.4-1.4 2.1-2.6-.7-2.6-5.9 0-2.8-.4-4.4-1.1-4.3-.8.1-1-1.2-.7-4 .7-5.7-2.3-16.1-4.4-15.3-1.1.4-1.3.2-.9-.9.7-1.9-.3-4.7-1.5-3.9-.5.3-.9-.7-.9-2.3l-.1-2.8-1.8 2.2C195 97 194 98 193.7 98c-1 0 2.3-18 4.3-23.3l2.2-5.7-5.1-6.1c-4.2-5-5.1-6.8-5.1-10 0-4.4 1.8-5.9 7.3-5.9 4.3 0 14.7-5.3 20.1-10.3 2.2-2.1 7.2-5.3 11-7.2 6.4-3.3 7.5-3.5 16.6-3.5 9.3 0 10 .2 17.8 4 4.4 2.2 9.3 4 10.9 4s5 1.3 7.5 2.9c4.5 2.9 4.5 2.9 5.2 9.9.7 6.7.8 7.1 3.4 7.4 2 .2 2.6.8 2.4 2.3-1.1 8.8 2.2 47.2 4.3 49.3.1.2 2.2-.6 4.5-1.8 6.4-3.3 13.7-3.7 18.7-1.1 2.3 1.1 4.4 2.5 4.7 3 .4.5 2.8 1.7 5.4 2.5 4.3 1.5 5.9 1.5 16.7.1 6.6-.8 14.8-1.5 18.2-1.5 5.1 0 6.3-.3 6.8-1.9.3-1 1.3-2.5 2.3-3.4 1.9-1.7 8.9-2.9 9.7-1.7.8 1.3 13.5-.1 19.9-2.1 6.3-2.1 9.9-2.7 21.9-3.6 4.2-.3 7.7-.2 7.7.3s-1.9 2-4.3 3.3c-14.9 8.3-17.4 12.2-6.4 10 6.1-1.3 7.3-.9 6.3 1.6-.6 1.7-13.1 7.9-18.1 9-5.1 1.2-13.9 4.8-15.2 6.3-1 1.2-1.8 1.3-4.1.3-2.6-1.1-3.1-.9-6.7 2.4-3.8 3.4-7.5 4.6-7.5 2.4 0-.7-1-.9-2.5-.5-1.9.5-2.8.1-4-1.8-1.6-2.3-1.7-2.4-6.8-1-2.9.7-9.6 1.7-14.9 2.3-9.2.9-13.8 2.2-13.8 4 0 1.1-13.7 9.6-18.7 11.6-2.9 1.2-6.3 1.6-10.9 1.3l-6.7-.3.6 10.1c.4 5.6 1.2 11.5 1.9 13 .8 1.9 1.2 8.1 1.2 17.1v14.2l2.5.5c1.4.3 6.2.8 10.6 1.1 15.3 1.1 15.9 1.7 9.5 8.4-2.3 2.4-4.3 5.6-4.7 7.2-.3 1.9-1.2 2.9-2.3 2.9-1 0-2 .9-2.3 2-.4 1.4-1.4 2-3.3 2-3.7 0-2.5.9 2 1.5 4.9.7 15.4 4.3 18.6 6.4 1.4.9 5.6 3.2 9.3 5 6.7 3.2 16.7 11.9 16.7 14.5 0 .7 1.1 2.9 2.4 4.9 3.1 4.5 4 8.8 2.8 12.9-.6 1.8-1.8 7.3-2.7 12.2-.9 5.3-2.8 11.3-4.6 14.5-1.6 3.1-2.9 6.2-2.9 6.9 0 1.7-4.4 12.2-8.7 20.7-3.5 6.9-9 13.8-10.3 13-1-.6-3.3 4.1-2.6 5.3.8 1.4-11.1 11.2-12.8 10.6-.8-.3-1.6.4-2 1.9-.3 1.4-2.2 3.5-4.3 4.7-3.5 2.1-4.9 2.5-9.5 2.9-.9 0-2.9 1.2-4.5 2.4-3.8 3.2-7.9 4.2-9 2.2-.8-1.4-1.3-1.4-4.2.1-1.8.9-4.7 1.4-6.6 1.2l-3.5-.4.5 4.6c.2 2.5.7 6.2 1.1 8.3l.6 3.7H512V0H0z"/><path d="M284.1 109.9c-.9 1.6-.8 1.8.9 1.4 1.1-.3 2-1.2 2-1.9 0-2-1.8-1.7-2.9.5m-65.7.8c.4.8.2 1.3-.8 1.3-3.1 0-5.3 14.2-2.7 17.4 1 1.2 2 1.2 7.2-.6 3.2-1.1 5.9-2.4 5.9-2.9 0-.6-1.6-3.3-3.5-6.2-1.9-2.8-3.5-5.7-3.5-6.3s-.8-1.8-1.7-2.5c-1.1-1-1.4-1-.9-.2m-5.3 73.8c-1.9 4.2-4.6 8.5-6 9.7l-2.6 2.1 9.5-.8c5.2-.4 9.6-.8 9.8-.9.1-.2-1.1-3.5-2.8-7.4-1.6-3.9-3-7.8-3-8.6 0-3.3-1.6-1.3-4.9 5.9"/></svg>