<svg xmlns="http://www.w3.org/2000/svg" width="682.667" height="512" version="1.0" viewBox="0 0 512 384"><path d="M207.9 9.4c-7 1.6-7.3 1.8-9.8 6.6-1.9 3.7-2 4.6-.9 11.8.6 4.2 1.5 8.1 1.9 8.6s.2 1.7-.4 2.7c-.8 1.3-.8 2.4 0 4.1.6 1.3 1.1 3.4 1.1 4.7.1 1.3.9 4 1.8 6 1 2 1.8 4.4 1.9 5.3.1 1 .4 2 .6 2.2 1.3 1.2 6.5.8 13.2-1 3-.9 2 3.4-2.5 10.5-5.8 9.2-7 12.8-5.2 16.3.9 1.7 2.3 2.9 3.7 2.9 2.8.2 5.8.5 7.4.7.6.1 1.5 1.6 1.8 3.4.4 1.8 2.1 6.4 3.7 10.2 5.1 12 9.6 24.5 9 25.1-.3.3-3 .5-6 .5h-5.4l2.6 4.5 2.6 4.4-4.1 2.1c-5.9 3-12.9 9.8-15 14.5-1 2.2-2.5 9.5-3.3 16.3-.8 6.7-1.7 12.6-2 13.1-.3.4-2.9 1.1-5.8 1.4-3.2.4-6 1.4-7.2 2.6-1.9 2-1.9 2 1.2 7.9 1.8 3.3 3.2 7 3.2 8.2 0 3.4-6.5 25-10 33.1-1.7 4.1-7.3 16.1-12.3 26.8l-9.1 19.3 2.7 8.2c2.7 8 2.7 8.2 1.2 15.3-1.4 6.7-1.4 7.5.5 13.5 1.5 4.9 2.6 6.8 4.5 7.6 1.3.6 2.7 2.2 2.9 3.4.3 1.3 1.2 6.1 2.1 10.8.9 4.6 2 9.1 2.4 9.8.4.8-1.1 7.7-3.6 15.9-2.4 8-4.2 14.8-4 15s36.2.2 80 .1l79.6-.3-11-27.5c-7.2-17.8-12.7-33.3-15.6-44-4.5-16.2-9.1-28.1-13.3-34-1.7-2.4-1.9-3.3-1-5 .6-1.1.8-3.1.4-4.3s-.6-4.9-.5-8.2-.3-10.5-.8-16c-1-11.1 0-18 4.4-32 2-6.4 2.5-10.1 2.5-18.5 0-11.2.8-18 2-18 .4 0 1.7 4.3 3 9.6 2.1 9.1 2.1 9.6.4 11.5-.9 1-1.4 2.2-1.1 2.5.3.4-.4 1.4-1.6 2.4l-2.2 1.8 4.1 4.4 4.1 4.4.6 27c.4 14.8 1.1 31.5 1.7 36.9 3.7 34.5 13.6 61.3 34.7 93.3L353 384h18l.2-4.3c.2-7-.3-9.7-3.6-21.4-2.7-9.3-3-11.3-1.8-11.8 2.5-.9 1.1-19.2-2.2-29.3l-2.7-8.4 3.8-3.3 3.8-3.3-1.9-5.3c-1-3-4-10.6-6.6-16.9-10.1-24.7-16.9-44.1-19.9-56.6-1.7-7.2-3.1-14-3.1-15.1s1.1-4.6 2.5-7.7c3.4-7.8 3.3-8.4-1.7-8.8l-4.2-.3-2.3-6.5c-1.2-3.6-2.3-7.1-2.3-7.8 0-.8-.6-2.8-1.4-4.5-.7-1.8-2.1-6.2-3.1-9.9-.9-3.7-2.3-7.2-3.1-7.9-1.7-1.4-1.8-7.8-.3-13.3.8-2.9 1.3-3.6 2-2.5 1.4 2.1.3-7-2.1-17.1-2.5-10.9-2.5-11 .5-7 3.6 4.9 3.1 2-2-11-4.5-11.4-4.5-11.5-2.8-15 2.1-4.3 2.8-13.4 1.5-18.2l-1-3.6 3.7.5c3.3.5 4 .1 6.4-3 1.5-2 2.7-4.2 2.7-4.9 0-.8.4-1.8.9-2.4.5-.5 1.8-3.8 3.1-7.4 1.2-3.6 3.2-9.2 4.5-12.5 1.2-3.3 2.6-6.9 3-8 1.3-3.4 1.2-5.5-.2-6.6-.7-.6-1.1-1.5-.8-1.9 1-1.6-3.4-4-11.5-6.2-17.2-4.7-39.8-2.2-44.6 4.9l-2.1 3.1-2.7-2.6c-2.4-2.4-3.5-2.7-11.1-3.1-6.6-.2-9.1.1-11 1.3-3 1.9-3.5 2-3.5.3 0-2.3-4.5-5.7-10.6-7.9-7.3-2.6-26.8-3.4-35.5-1.4"/><path d="M324.1 143.6c0 1.1.3 1.4.6.6.3-.7.2-1.6-.1-1.9-.3-.4-.6.2-.5 1.3"/></svg>