<svg xmlns="http://www.w3.org/2000/svg" width="682.667" height="512" version="1.0" viewBox="0 0 512 384"><path d="M0 192v192l101.6-.2 101.6-.3 2.4-4.3c4.9-8.7 8.4-23 10-41.2.3-4.1 1.7-12.6 3-18.9s2.3-11.6 2.1-11.7c-.2-.2-1.8 2.5-3.7 5.9-9.3 17-33 46.3-33 40.7 0-.6.5-2.1 1.2-3.3 1-2 1-2.1-.9-.7-10.8 7.9-19.3 13-30.8 18.6-7.5 3.6-14.1 6.4-14.7 6.2s3.4-3.9 9-8.2 10.2-8 10.2-8.3c0-.2-.4-.1-1 .2s-.7-.1-.4-.9c.3-.9 1-1.6 1.5-1.6.6 0 2-.9 3.2-2.1 2.3-2.2 8.9-5.4 13.4-6.6 2-.4 2.4-.3 1.8.7-.6.9-.4 1.1.4.6.7-.5 1-1.1.7-1.4s2.9-4.2 7.2-8.6c4.2-4.5 8.9-9.7 10.4-11.6l2.6-3.5-2.5-7.4c-3.3-9.9-3.3-15.7.1-26.1 4.9-15 4.5-14.5 12.8-16.9 13.3-4 12.3-3.4 12.2-7.7-.4-10.5-1.7-19.5-3-20.9-.8-.8-2-4-2.6-7.1-.9-4.5-2-6.6-5-9.6-3.4-3.4-3.8-4.3-3.8-9 0-2.9 1.4-10.3 3.1-16.3 3.2-11.6 5.2-26 4.2-30.8-.4-1.7-.1-3.2.6-3.6.8-.5.6-2.4-.9-7-1.1-3.5-2-7-2-7.7 0-2.2-1.7-1.6-2.4.8-.6 2.2-.7 2.2-2-.7l-1.3-3-1.2 2.3c-1.6 3-1.9 2.6-3-3.2-.6-3.4-.5-6.8.6-11.8.9-4.6 1.1-7.9.5-9.7-1-3-.9-6.5.2-13.4.8-4.7.7-5-2.8-8.6l-3.7-3.8.7-6.7c.8-7.7 2.2-9.1 8.2-8 3.1.6 3.5.5 2.6-.7-.6-.8-1.4-3.3-1.7-5.5-.4-3.9-.2-4.5 4.2-8.7 5.7-5.6 8.7-6.6 12.3-3.8 3.7 2.9 5.3 2.6 7.8-1.4 2.7-4.4 7-6.8 10.7-5.9 6.8 1.5 9.1 2.6 10.2 5.1l1.2 2.6 2.7-2.7c1.6-1.4 3.8-2.6 5-2.6 2.3 0 5.8 3.2 6.8 6.2.6 2.1 2.6 2.3 5.3.7 2.4-1.6 6.7-.4 9.7 2.6 2.2 2.2 2.4 3.2 2.2 9.6-.2 5.8 0 7.3 1.5 8.3.9.7 1.7 2 1.7 2.9 0 .8.5 1.7 1 1.9.6.2-.2 2.6-1.7 5.4l-2.7 5.2 1.7 5.6c1 3.1 2.2 8 2.7 10.9.4 2.8 1.2 6.5 1.6 8.2l.7 3-2.7-2.4-2.6-2.4v4.4c0 2.5.6 6.9 1.4 9.9.7 3 1.6 7 2 8.9.6 3.4.6 3.4-1.4 1.6s-2-1.8-2 1.8c0 4.7-2.1 4.5-3.6-.3l-1.1-3.5-1.4 4-1.3 4-.6-3.5-.6-3.5-.9 3c-.5 1.6-1.4 3.5-2.1 4.2-2.1 2.2-.5 9.3 2.8 12.1 1.6 1.3 4 4.5 5.5 7.1 1.4 2.5 3.9 5.9 5.4 7.6 1.5 1.6 4.2 6.4 5.9 10.5 1.8 4.1 3.9 9.1 4.7 11.1 1.6 3.9 5.4 6.4 7 4.8.5-.5 2.6-.2 5.2.8 3.3 1.3 4.7 1.4 6.1.5 2.6-1.6 9 1 9 3.7 0 1 .9 3 2 4.4 2.3 2.9 2 5.6-1.1 11.9-2.2 4.4-2.4 7.6-.5 10.1 1.5 1.9 1 5.7-.7 5.7-.6 0-1.9.7-2.9 1.7-2.2 1.9-2.8 1.5-3.7-2.9l-.7-3.2-2.2 3.8c-3.1 5.2-4.7 3.6-3-2.8 1.1-4 1-4.8-.2-5.6-1.1-.7-1.9-.1-3.2 2.4-2.1 4-4.4 6.1-5.3 4.7-.3-.6-.1-2 .5-3.1 1.1-2.1-.3-2.9-1.5-.9-.4.5-1.1 9.2-1.6 19.2-.8 15-1.2 18.4-2.6 19.4-1.5 1.2-1.4 2.1 1 12 1.4 6 3.1 14.2 3.7 18.3.7 4.1 3 12.9 5.1 19.5 3.8 11.7 4.1 12.2 11.4 20 4.1 4.4 7.5 8.4 7.5 8.8s1.1 2 2.5 3.5 2.5 3.2 2.5 3.8.9 1.9 2 2.9 2 2.3 2 2.9c0 .7.9 2 2.1 3 1.3 1.1 1.9 2.5 1.6 3.7-.5 1.9 1.1 1.9 85.9 1.9H512V0H0z"/><path d="M226.9 166c-.5 3-3.5 3.9-4.2 1.3-.4-1.5-.5-1.5-.6-.2 0 .9.6 2.2 1.4 2.9 1.9 1.6 2 7 .1 7-.8 0-1.6-.5-1.8-1.2-.8-2.2-2.8.4-2.8 3.6v3.3l4.7-4.4c2.6-2.3 5.1-4.3 5.5-4.3 1.2 0 .9-4.2-.6-7.5l-1.3-3z"/></svg>