<svg xmlns="http://www.w3.org/2000/svg" width="682.667" height="512" version="1.0" viewBox="0 0 512 384"><path d="M0 192v192h79.8c78.6 0 79.9 0 81.7-2 1-1.1 2.3-2 3-2 .6 0 2-.8 3.1-1.8 2.1-1.8 5.1-3.7 9.7-6 4.5-2.3 15.5-13.1 19.8-19.4 2.2-3.1 5.4-9 7.2-13 3.1-6.8 3.2-7.6 2.1-11.3-.7-2.2-1.3-6.8-1.3-10.2-.1-5.2.4-7.2 3.5-13 1.9-3.7 4.6-9.9 5.9-13.6 1.2-3.8 3.2-7.5 4.3-8.3 1.5-1 15.3-3.3 20.5-3.4.4 0 .7-.4.7-.9s-2.6-1.9-5.7-3.1c-7.5-3-8.1-3.5-9.3-8.1-.8-3-.8-5.3.3-9.4 1.3-5 1.2-5.7-.4-8.2-1-1.5-3.7-3.7-6-4.8-7.5-3.6-9-9.2-6.8-25.2 1.3-9.3 3.5-14.7 7.7-18.8 3.1-2.9 4.1-6.8 2.3-8-.5-.3-1.2-2-1.6-3.8-.8-3.9-5.5-16.7-6.1-16.7-.3 0-.4.6-.3 1.2.6 5.1-1.5 6.6-2.6 1.8-.7-3.1-2-4-2.7-1.8-.3.7-1 .8-1.7.3-.9-.5-1.1-1.9-.8-4.1.4-2 .1-3.4-.6-3.7-.9-.3-.9-1.1.1-3.2 1.8-3.8 2.8-18 1.2-17-1.2.8-.5-4.8 1.2-9.4.7-2.1.3-3-2.7-6.1-3.3-3.4-4.6-7-2.6-7 .6 0 1.1-1.9 1.3-4.2l.3-4.3 5.4-1c4.8-.9 5.2-1.2 3.8-2.4-2.8-2.3-2.1-6.7 1.9-11.1 4.6-5.1 7.4-5.8 11.3-3.1 1.6 1.2 3.4 2.1 3.9 2.1.6 0 2.1-1.9 3.4-4.2 3.2-5.8 6.9-7.6 12.2-5.7 3.8 1.4 4.8 2.4 6.1 6.3.5 1.8.8 1.7 3.4-.8 3.8-3.7 6.9-3.2 10 1.7 2.4 3.6 2.6 3.7 7 3.1 3.8-.5 5.1-.2 7.5 1.7 2.8 2.2 2.8 2.3 2.2 10.4-.6 7.3-.5 8.4 1.4 10.7l2 2.6-2.4 4.3c-1.8 3.1-2.2 4.7-1.5 6 1.3 2.5 4.2 18 3.4 18.7-.3.3-1.2-.3-2.1-1.4-1.4-1.8-1.5-1.5-1.1 3.7.3 3.1 1.2 7 2 8.5.8 1.6 1.8 4 2.2 5.2.6 2.2.5 2.3-1.4 1.3-1.2-.7-2.1-1-2.1-.9 0 .2.4 1.8.9 3.6 1.1 3.9.7 4-2.3.7l-2.4-2.5-.7 3.7c-.7 3.7-.8 3.7-1.7 1.3s-1-2.3-3.3 3c-1.3 3-2.4 6-2.5 6.7 0 .6-.5 2.4-1.1 4-.8 2.2-1.2 2.4-1.9 1.3-.8-1.3-1-1.2-1 .2 0 .9.7 2.4 1.6 3.2 5.4 5.5 20.8 25 23.3 29.7 4.9 9 6.4 20.8 5.6 42l-.7 17.5 2.7 1.8c3 2 3.1 2 4.3-1.4.5-1.3 1.8-2.4 2.9-2.5 1.8-.1 1.9.1 1 1.6-.9 1.4-.7 2.8 1.1 6.3 2.3 4.8 2.7 5 11.7 6 6 .7 9.6 3.6 7.5 6.1-1.1 1.3-.9 2 1.3 4.3 2.9 3 3.4 6.1 1.6 9-.9 1.5-.5 2.8 2.5 7.5 5.3 8.2 4.7 15.9-1.6 21.8-5.3 4.9-11.7 7-16.2 5.3-1.4-.5-1.4-.8.1-3 1.2-1.9 1.3-2.7.3-3.8-.9-1.2-.8-2 .2-3.8.7-1.3 1.3-2.8 1.4-3.3 0-.6.6-2.3 1.3-3.9 1.5-3.8.8-5.6-2.2-5.6-1.4 0-3.6-.9-5-2s-3.3-2-4.4-2c-3.1-.1-5.1-2.5-5.5-6.6-.2-3-.7-4-2.3-4.2-2.1-.3-2.1 0-1.7 21.3.5 22-.4 32.3-3.4 40.9-.8 2.3-1.2 5.1-.9 6.3l.5 2.3h218V0H0z"/><path d="M268.8 184c-.7 2.4-.3 3.8.8 2.8.3-.4.4-1.7.2-3l-.3-2.3zm-42.8 6.4c0 .3.5 1.7 1 3.2.8 1.9 1.4 2.4 2.1 1.7.8-.8.7-1.7 0-3.2-1-1.8-3.1-3-3.1-1.7m5.1 2.2c0 1.1.3 1.4.6.6.3-.7.2-1.6-.1-1.9-.3-.4-.6.2-.5 1.3m-14.6 138.7c-.4 1.8-1.5 4.1-2.5 5.2s-3.4 6-5.4 11c-4.3 10.6-11 22.7-17.2 30.7L187 384h31v-19.3c0-16.8 1-29.7 2.5-34.7.3-1-.2-1.6-1.4-1.7-1.5-.1-2.2.7-2.6 3"/></svg>