<svg xmlns="http://www.w3.org/2000/svg" width="682.667" height="512" version="1.0" viewBox="0 0 512 384"><path d="M0 192v192h186.7l4.4-6c7.4-10.2 12.7-20.3 15.4-29.8 2.5-8.8 2.6-9.3 1.1-14.3-.9-2.9-1.6-8.1-1.6-11.5 0-5.1.6-7.3 3.2-12 1.7-3.3 4.3-9.3 5.7-13.4 3.1-8.9 5.1-10.4 16.4-12.2 4.2-.6 7.7-1.5 7.7-1.9 0-.5-4.5-3.1-10.1-6-7.1-3.6-10.3-5.9-11-7.6-1.8-4.7-.9-9.1 3.1-17l4-7.7-1.8-2.6c-5.2-6.9-9.8-20.4-8.8-25.4.4-1.7 2.7-5.7 5.1-8.9 3.5-4.4 4.4-6.3 3.9-8.1-.3-1.4-1.2-2.7-2.1-3-.9-.4-1.3-1.6-1.2-3.4.2-1.5-.8-5.6-2.1-9.2l-2.4-6.4-.9 3.4-1 3.5-1.7-4c-1.6-3.7-1.7-3.8-2.4-1.7-1.1 3.5-3.4.5-2.8-3.7.3-2.1 0-3.6-.9-4.1-1-.7-1-1.1.1-2.4.7-.9 1.4-4 1.5-6.9.2-2.8.6-7 1-9.2.6-3.7.5-3.9-.9-2.1-2 2.5-2 .9 0-6l1.6-5.5-3.1-3.5c-3.2-3.6-3.9-5.8-2.1-6.9.6-.3 1-2.2 1-4.1 0-3.7.3-3.9 6.3-4.9 3.8-.6 5-2.8 2.2-3.9-2.9-1.1-1.6-5.2 3-9.5 4.9-4.6 8.2-5.2 11-2.1 2.7 3 4.3 2.4 6.5-2.4 1.9-3.9 5.2-6.6 8.3-6.6.7 0 2.9.5 4.9 1 2.9.9 3.8 1.7 4.3 4.1l.7 3.1 3.2-3.1c1.8-1.7 3.9-3.1 4.8-3.1 1.7 0 6.8 5.4 6.8 7.2 0 .5 1.7.9 3.8.8 5.6-.3 5.8-.2 9.2 2.7l3.2 2.7-.7 8.2c-.6 7.7-.5 8.4 1.4 9.6 2.7 1.6 2.6 2-.5 6.8-1.4 2.1-2.3 4.3-2 4.8.4.7 4.6 18.8 4.6 20.1 0 .2-.9-.4-2-1.4-2-1.8-2-1.7-2 2.6 0 2.6 1.1 6.6 2.5 9.7 2.8 6 3.1 7.2 1.3 5.4-2-2-2.7-1.3-1.8 1.8 1 3.5-.3 4-2.2 1-1.5-2.3-3.3-2.7-2.5-.6.3.8-.1 2.2-.8 3.3-1 1.2-1.4 1.4-1.5.4 0-2.5-2.6.7-4.1 5.1l-1.3 4.3-.4-3.3c-.2-1.8-.8-3-1.3-2.7-1.2.8-1.2 6.5.1 6.5 1.6 0 1.1 5.8-.6 6.8-1.3.7.3 3.2 9.5 14.1 15.4 18.6 18 24.7 18.5 45.1l.3 10.5 6.5 6.9c4.8 5.1 6.8 6.7 7.9 6 .8-.5 2.6-.9 4.1-1 2.4-.1 2.7.2 3.3 4.8.9 6.7 3.2 8.8 9.3 8.8 5.5 0 8.8 2.5 7.8 5.7-.4 1.3.2 2.7 1.9 4.3 2.7 2.6 3.1 4.6 1.4 8.3-.9 1.9-.5 3.1 2.5 7.6 3.8 5.6 4.1 7.2 2.6 13.6-.8 3.6-3.3 6.6-9.7 11.5-1.1.9-8.5 2.9-10.7 3-.4 0-.5-1.2-.2-2.7.4-1.4.3-2.9-.3-3.2-.6-.4.2-3.4 2-7.4 3.3-7.4 3.2-11.5-.1-9.7-1.3.7-2.7.4-5.4-1.5-2-1.4-4.3-2.5-5.1-2.5-1.6 0-2.1-1.5-3-9-.4-3-1.3-5.8-1.9-6.2s-3.9-.8-7.3-.8c-6.6 0-7.2-.4-4.8-3.6 1.9-2.5 1.9-4.8 0-6.4-1.2-1-1.5-.9-1.5.5 0 .9-1 2.5-2.2 3.5l-2.2 1.7 2.2 9.6c4.2 18.4 5.4 59.6 1.9 69.5l-1.5 4.2H512V0H0z"/><path d="M227 196.5c0 1.8.5 2.5 2 2.5 2.3 0 2.4-.4 1-3.1-1.5-2.7-3-2.4-3 .6m36.5-.5c.3.5.8 1 1.1 1 .2 0 .4-.5.4-1 0-.6-.5-1-1.1-1-.5 0-.7.4-.4 1m-47.9 145.7c-1.4 4.3-3.9 13.4-5.6 20.3-1.6 6.9-3.6 14.6-4.4 17.3l-1.5 4.7h9.6l.7-12.7c.3-7.1 1.5-18.2 2.5-24.8s1.7-12.1 1.6-12.3c-.2-.2-1.5 3.2-2.9 7.5"/></svg>