<svg xmlns="http://www.w3.org/2000/svg" width="682.667" height="512" version="1.0" viewBox="0 0 512 384"><path d="M0 192v192h101c55.6 0 101-.3 101-.8 0-.4 1.6-9.8 3.5-20.9l3.5-20.1-2.6-5.7c-1.6-3.4-2.9-8.3-3.2-12-.4-5.6-.1-6.9 2.2-11.2 1.5-2.6 3.6-7.9 4.6-11.8 2.8-9.9 5.1-11.5 21-14.7 3.6-.7 6.8-1.2 7.1-1.1 1.1.3 3.2-5.5 2.4-6.7-.3-.6-4.6-3.7-9.4-6.9-12.3-8.3-13.1-10.9-7.5-22.8l2.5-5.2-3.5-4.9c-4.8-6.6-8.6-15-8.6-19 0-3.4 1.8-7.7 5.4-12.5 2.3-3.2 2.3-7.5-.2-9.3-1.1-.8-1.3-2-.9-4.2.5-2.2-.1-4.7-1.8-8.4-2.1-4.4-2.5-4.8-2.5-2.6 0 4-1.9 4.4-3.2.7l-1.1-3.2-1.2 2.9-1.2 2.9-.8-5c-.4-2.8-1.2-5.6-1.7-6.2-.7-.9-.7-2.2 0-4 1.6-4.2 2.5-19.6 1.2-18.8-1.2.7-.5-4.9 1.2-9.4.7-1.9.3-3-2.2-5.7-3.1-3.6-3.8-5.4-1.9-5.4.7 0 .9-1.2.5-3.4-.6-2.9-.3-3.7 2-5.5 1.5-1.2 3.7-2.1 5-2.1 3.3 0 3.9-1.8 1.4-4.5-2.8-3-2.1-5.3 3-9.9 4.5-4.1 7.1-4.5 10.7-1.6 3.7 2.9 5 2.5 7.3-1.9 3.5-6.9 7.7-8.5 14.5-5.7 2.7 1.2 3.5 2.1 3.5 4 0 3.3 1.5 3.3 3.6.1 3.2-4.9 7.6-4.2 10.9 1.9 1.8 3.4 2 3.4 6.6 2.9 4.4-.5 5.1-.3 8 2.6 2.8 2.8 3.1 3.6 2.5 6.9-2 10.6-2 11.2.4 13.7l2.3 2.4-2.8 4.3c-2.2 3.3-2.5 4.5-1.7 5.9.6.9 1.6 4.8 2.3 8.6.6 3.7 1.6 7.6 2.1 8.5 1.1 2.3 0 2.3-2.4.1-1.7-1.5-1.8-1.4-1.8 3.3 0 3.4.9 6.9 3 11.1 2.8 6.1 2.8 7.7.1 5-1.1-1-1.2-.6-.6 2 .8 4-1.6 4.7-3.2 1-1.1-2.2-1.1-2.2-1.8.5s-2.5 3.9-2.5 1.7c0-.5-.4-.8-.9-.4-.5.3-1.5 3.1-2.1 6.3-.6 3.1-1.6 7.4-2.2 9.4-1.1 3.6-1 3.7 6.7 12.5 13.8 15.6 18.4 24.8 20 39.8.6 5.7 1 6.3 7.1 12.6 5.4 5.4 7 6.5 9.5 6.3 1.7-.1 3.8-.9 4.8-1.9 1.8-1.5 1.9-1.4 2.6 2.2.4 2.1 1.1 4.4 1.7 5 .6.7.7 2 .4 2.9-1.1 3 1.2 4.4 6 3.7 5.3-.7 8.4 1.4 8.4 5.7 0 1.5.8 3.5 1.9 4.4 2.2 2 3.5 7.4 2.1 9.1-.6.8.2 2.8 2.7 6.5 3.3 5 3.5 5.6 2.9 10.9-.4 3-1.3 6.6-2.2 7.8-2.3 3.6-9 7.5-13.7 8l-4.3.5-.2-4.3c-.2-2.3-.5-4.5-.7-4.9s.4-2 1.4-3.6c4-6.6 4.5-12.6.8-9.5-.9.7-2.2.5-4.4-.9-1.7-1-4-1.6-5.1-1.3-2.2.5-2.3.4-4.4-9.1l-1.3-5.8-6.4.5-6.3.5.6-3.7c.6-3.8-1-8.1-3.1-8.9-1-.3-1.3 1.7-1.3 7.7 0 6.4-.3 8.1-1.4 8.1-2.5 0-2.7 3.5-.6 11.1 1.1 4.1 2.6 12.4 3.5 18.6.8 6.1 2.6 17.6 4.1 25.5 2 11.2 2.5 15.9 2 21.5l-.7 7.3H512V0H0z"/><path d="M227.4 197.8c-.6.4-1.3 1.5-1.7 2.5-.6 1.5-.3 1.7 1.6 1.1 2.9-.9 3-1 2-2.8-.4-.8-1.3-1.2-1.9-.8"/></svg>