<svg xmlns="http://www.w3.org/2000/svg" width="682.667" height="512" version="1.0" viewBox="0 0 512 384"><path d="M207.5 7.7c-4.3.9-7.5 2.6-7.5 4 0 .7-.9 2.4-2 3.6-1.6 1.6-1.9 2.9-1.4 5.2.4 1.6.8 5.5 1 8.5.1 3 .3 5.5.4 5.5s.3 3.3.5 7.3.8 7.9 1.5 8.7c.6.8.9 1.9.6 2.4-.4.5-.1 1.3.6 1.8.7.4 1.3 1.9 1.3 3.3 0 2.4.2 2.5 6.3 2.3 3.5-.2 7.2-.8 8.3-1.4 1.9-1 2-.8 1.4 1.2-.4 1.3-3.2 5.5-6.1 9.3-6.8 9-8.1 12.5-5.8 16 .9 1.5 2.6 2.6 3.8 2.7 1.1.1 2.8.2 3.6.3.8.2 2.5.3 3.7.4 1.7.2 2.3 1.2 3.3 5.4.7 2.9 1.8 6.4 2.5 7.8s1.8 5.2 2.5 8.5 2.3 8.7 3.6 11.9c2.7 6.6 2.3 7.6-3.2 7.6-4.2 0-4.6.7-2.3 4.3 1 1.8 1.9 3.5 1.9 3.9 0 .3-2 1.8-4.4 3.2-12.6 7.4-15 11.5-17.7 29.8-1.1 7.8-2.6 14.6-3.2 15-.7.4-2.9.8-5 .8-4.5 0-7.7 1.5-7.7 3.5 0 .8 1.4 4.3 3.1 7.8l3 6.4-2.5 7.9c-1.4 4.3-3.3 10.6-4.2 13.9-1.9 6.8-6 16.4-17.7 41.3l-8.1 17.4 2.6 8.1c2.3 7.2 2.6 9.4 2.1 17.7-.6 11.7.4 17.1 3.5 18.5 2.6 1.1 2.6 1.1 4.7 12.9.9 5 2.1 9.8 2.6 10.8.7 1.4.5 3.6-.9 8.1-2.2 7.1-6.2 21.2-6.2 22.1 0 .3 36 .6 80 .6s80-.4 80-.9c0-.8-6.4-16.5-16.5-40.1-5.4-12.8-6.9-17.4-12.5-38.2-1.8-6.5-5.3-16-7.9-21.2-3.7-7.6-4.4-9.9-3.7-11.6.7-1.4.6-2.8-.1-3.9-.6-1-.8-2.4-.3-3.2.4-.8.3-6.4-.2-12.4-1.3-15.9-.6-26.4 2.7-36.5 2-6.2 3-12.1 3.7-21.5 1.6-23 2.2-23.8 5.4-8.3 1.7 8.2 1.7 8.8.1 10.6-.9 1-1.4 2.2-1 2.6s0 1.2-1 1.7c-2.4 1.4-2.2 2 1.8 7l3.5 4.4v18.7c0 65.4 7.9 94 39.3 142.1l7 10.7h7.7c8.8 0 9-.2 9-7.8 0-4.9-2.8-17.6-5.5-25.1-1.4-3.9-1.4-4.6 0-6.1 2.8-3.1 2-16.6-1.7-27.7l-3.2-9.6 3.7-3.1c2-1.7 3.7-3.4 3.7-3.8s-3.6-10.1-8-21.5c-14.7-38.1-16-41.7-17.5-50.7-.8-4.9-1.2-9.3-.9-9.7.3-.5.2-1.5-.2-2.1-.5-.7-.8-3.1-.7-5.3s-.3-4.5-.8-5.1c-.7-.8-.3-3.2 1.1-7 1.1-3.2 2-6.1 2-6.5s-1.3-.9-3-1.2c-2.4-.5-3.1-1.3-4.1-4.9-.6-2.4-1.6-5.2-2.2-6.3s-1.2-3.1-1.3-4.4c-.2-1.3-.8-2.9-1.3-3.4-.6-.6-1.1-1.7-1.1-2.5s-1.8-5.3-4-10c-3.5-7.5-4.1-9.5-3.9-14.7.1-3.3.4-6.8.7-7.9.5-1.7.6-1.6 1.8.5 2 3.7 1.7 1-1.6-12.3-3.5-14.3-3.6-14.7-1-11.7 2.8 3.5 2.5 1.9-2.1-8.8l-4.1-9.6 2.4-4.6c1.9-3.7 2.3-6.1 2.3-12.9V70h2.9c1.6 0 3.5-.8 4.3-1.8 2.4-3 11.3-23.1 11.3-25.5 0-.5.9-2.8 1.9-5.1 3.6-7.7 4.3-10.9 2.7-13.4-.4-.8-.6-1.6-.2-1.9 2.5-2.5-13.4-7.2-27.1-8-14.8-.9-26.3 1.9-28.9 6.9l-1.5 3-2.4-2.6c-2.9-3.2-6.2-4.1-14.7-4.1-5.1 0-7.2.4-8.5 1.7-1.6 1.7-1.8 1.6-2.9-1.2-1.5-3.4-8.1-7.1-17.1-9.4-5.7-1.5-23.7-2.1-28.8-.9"/></svg>