<svg xmlns="http://www.w3.org/2000/svg" width="682.667" height="512" version="1.0" viewBox="0 0 512 384"><path d="M0 192v192h94.5c57.6 0 94.5-.4 94.5-.9s4-10 8.9-20.9c11.3-25.3 10.8-23.7 7.6-26.4-3.8-3.4-7.5-14.7-7.5-23.3 0-6.4 1.3-17.5 2.6-21.7 1-3.3 8.2-5.1 21.4-5.4 6.9-.1 13.7-.7 15.2-1.3 3.8-1.4 4.6-6.6 2.3-14-2.9-9.3-6.4-15.3-18.9-32.1-2.6-3.6-6.2-9.2-7.8-12.4-2.7-5.3-3-6.7-2.6-13.2.2-5.6.9-8 2.6-10.3 1.5-2.1 2-3.9 1.7-5.4-.4-1.5-.1-2.8.9-3.6 2-1.7 2.1-4.1.1-4.1-.9 0-1.9-1.7-2.6-4.5-1.3-5-1.6-5.3-3.5-2.8-1.3 1.7-1.3 1.7-1.4-.2 0-2.1-3.4-5.8-4.4-4.8-.6.7-.4-3 1.4-20.2.6-6.1 1.5-12.2 2-13.6.7-2.3.3-3.2-3.1-6.5-4.1-4-4.8-5.8-2.6-6.7.9-.3 1.2-1.6.9-3.6-.6-4.1 1-5.7 6.3-6.5s6.1-1.7 3.5-4.1c-3-2.8-2.4-5 2.6-9.4 5.3-4.7 7.3-5 11.6-1.9 3.6 2.5 5.8 1.7 7-2.8.4-1.7 1.8-4 3.2-5.3 1.9-1.8 3.3-2.2 7.7-1.9 5.1.3 5.5.5 7 3.8l1.7 3.5 1.2-2.6c2.8-6.1 7.6-5.9 12.5.5 2.3 3 3 3.3 6.3 2.9 3.2-.4 4.3 0 7 2.5 3.5 3.3 3.8 5.2 2.1 13.2-1 4.7-.9 5.3 1 7.4 2.1 2.3 2.1 2.4.5 5.9-1.6 3.4-1.6 3.9.4 10.2 1.2 3.6 2.2 7.4 2.2 8.6 0 1.1.7 3.5 1.4 5.4.8 1.9 1.1 3.5.7 3.5-1.2 0-4.1-3.5-4.1-5 0-.7-.3-1-.7-.7-.3.4-.7 3.7-.9 7.4-.2 5.4.2 7.9 2.2 12.2 1.3 2.9 2.4 5.5 2.4 5.7 0 .3-1.2-.3-2.6-1.2l-2.6-1.7.7 3.9c.7 4.1 0 3.8-3.2-1.3-1.1-1.7-1.1-1.7-1.8.2-2 5.9-2.5 6.7-3.9 5.6-1-.9-1.6-.2-2.9 2.9l-1.5 3.9 4.2 2.5c2.4 1.4 5.4 4.1 6.7 6 3.3 4.9 6.9 5.9 6.9 2 0-2.2 3.5-1.7 6.8 1.1 1.9 1.5 3.6 2.3 4.7 1.9 2.7-1.1 6.5 3.3 5.8 6.7-.6 3-.8 2.8 7.4 4.5 2.2.4 9.3 10.1 9.3 12.6 0 .6-.9 2.1-2 3.3l-2.1 2.2 4.1 6.9c3.4 5.7 4 7.5 3.5 10.4-.9 4.7-3.1 8.8-6.5 11.9-4.1 3.7-5.6 8-3.4 9.6 1.2.8 1.7 2.6 1.7 5.8-.1 2.8.4 5.1 1.3 5.8.8.6 1.4 1.9 1.4 2.9s2 3.1 4.8 4.9c2.7 1.7 5.7 4.6 6.7 6.5 1.7 3.1 1.7 3.5.2 5-2.1 2.2-2.8 2-5.3-1.2-1.2-1.5-2.5-2.4-2.9-2.1-.9 1 4.9 12.2 8.5 16.2 3 3.4 3.9 6.7 2 6.7-.5 0-1 .7-1 1.5 0 .9-.9 1.5-2.3 1.5-1.5 0-2.8.8-3.3 2.1-1 2.1-1 2.1-4.1-.5-3.7-3.1-4.9-3.3-5.6-.6-.8 2.9-2.4 2.4-4.9-1.5-2.6-4-4.3-4.4-5.1-1.3-.6 2.1-.7 2.1-2.7.3-1.9-1.8-2-1.8-2 .1 0 1 1.6 9.3 3.5 18.4 2 9.1 4.1 22 4.7 28.7l1.1 12.3H512V0H0z"/></svg>