<svg xmlns="http://www.w3.org/2000/svg" width="682.667" height="512" version="1.0" viewBox="0 0 512 384"><path d="M0 192v192h185.7l8.2-14.2c7.8-13.4 8.5-15 12-29.1l3.8-14.9-2.3-2.3c-1.2-1.2-3-4.6-3.8-7.6-.9-2.9-3.1-9.3-5-14.3-4.2-11.3-6-19.7-5.1-24.3l.6-3.6 10.2.6c5.6.4 12.6 1.1 15.6 1.7 4.2.8 5.7.7 6.3-.2 2-3.3 0-23.3-3.4-33.3-3.1-9.1-6.9-15.7-8.7-15.2-.9.3-4.2 1.5-7.3 2.6-7.5 2.7-16.2 2.8-20.5.1-1.8-1-5-3.7-7.2-6-3.6-3.7-4.2-4-9.4-4-9.2 0-12.4-4.2-10.3-13.6 1.4-6.3 6.4-8.7 20.6-10 5.8-.5 8.5-1.3 12.1-3.5 2.5-1.6 5.9-3.2 7.6-3.5 1.9-.4 3.3-1.4 3.6-2.5.7-2.4 4.1-2.5 6.4 0 2.6 2.7 5.8 4.1 9.1 4.1 3.8 0 5.2-1.7 4.4-5.5l-.5-3-1.3 3.5-1.2 3.5-.1-4.3c-.1-5.1-2-13-3.3-13.8-.5-.3-1.6 0-2.4.7-2.2 1.8-2.7.6-2.7-7.1 0-3.8-.4-7-.8-7-.5 0-.9.4-.9 1 0 .5-.5 1-1.1 1-1.1 0-.5-8.6 1.3-15.4 1-3.9.9-4-4.1-8.6s-6-6.3-4.2-7.4c.4-.3 1.1-2 1.5-3.7.5-2.8.9-3.1 3.3-2.7 1.6.3 3.7.9 4.8 1.4 1.8.7 1.8.6-.3-2-2.6-3.3-2.2-4.3 4.2-10.5l4.6-4.5 3.1 2.3c3.4 2.5 3.4 2.5 5.7-2.1 1.7-3.2 1.8-3.3 9.1-3.6 6.1-.2 7.5 0 8.6 1.5.7 1 1.5 1.6 1.7 1.3s1.2-1.7 2.1-3.3c2.3-3.6 5.2-3.4 9.4.8l3.4 3.4 2.9-2 2.8-2.1 4.5 2c4.9 2.2 6.7 4.5 6.7 8.7 0 3.9 1.8 6.7 4.3 6.5 1.2-.1 2.5-.2 2.9-.1s-.4 2.5-1.7 5.4c-2.3 4.9-2.3 5.5-1 9.3s3.2 15.6 4 24.4c.2 1.9 1 5.5 1.9 7.9 2 5.4 2 5.7-.1 4-1.5-1.3-1.6-1.1-.9 1.5.6 2.3.4 2.7-.8 2.3-.8-.3-1.7-.1-2 .6-.2.7-.8.2-1.2-1.1-.5-1.8-.9-2-1.5-1s-1.1.9-2.3-.7c-1.3-1.8-1.5-1.8-3 1.9-.9 2.1-1.6 5.1-1.6 6.7 0 2.3-.5 2.9-2.1 2.9-1.7 0-2 .5-1.7 3.2.3 3.2.5 3.3 5.3 3.8 5.7.6 10.3 3.6 24.8 15.8 11.6 9.8 13 12 12.3 19.6-.3 4.3 0 6.6 1.1 8.2.8 1.3 1.2 2.8.8 3.4s1.5 5 4.2 9.8c10.9 19.3 10.7 23.3-1 33.4-5.4 4.7-5.5 4.8-4.4 7.9 1.1 2.9 1 3.3-1.3 4.8-1.3.9-3.6 2.8-5.1 4.2-1.5 1.5-4.2 2.9-6.1 3.3-2 .4-4.8 2.1-6.8 4.1-1.9 1.9-4 3.5-4.7 3.5-1.8 0-1.6 1 .7 6.4 1.8 3.9 4.5 12.8 14.6 48.6.8 3 2.7 8.8 4.1 12.7l2.5 7.3H512V0H0z"/><path d="M228.6 185.2c-.7 1.8-1.1 3.6-.9 4 .2.5 2.4.8 4.8.8 3.9 0 4.5-.3 5.1-2.5.3-1.4.3-3.3-.1-4.2-.6-1.6-.8-1.6-1.6.4-1 2.8-2.6 2.9-3.4.3-.9-2.9-2.3-2.5-3.9 1.2m37.6-1c-1.7 1.7-1.5 3.2.9 5.4l2.1 1.9-.7-4c-.9-4.8-.9-4.7-2.3-3.3m28.4 71c-.3 1.8-1 5.8-1.5 8.8-.7 4-.6 5.7.2 6.2 2.6 1.7 5.4.6 8.6-3.3l3.3-4-3.6-5.5c-4.2-6.2-6.3-6.9-7-2.2"/></svg>