<svg xmlns="http://www.w3.org/2000/svg" width="682.667" height="512" version="1.0" viewBox="0 0 512 384"><path d="M0 192v192h93.8c88.2 0 94-.1 95.5-1.8 2.2-2.5 7.1-16.4 11.8-33.5 2.2-8.2 5.1-17.9 6.5-21.8 2.3-6.4 2.4-7.3 1.3-13.1-1.8-9.6-4.8-19.7-7.5-24.9-3.3-6.2-4.3-15.1-2-17.4 1.4-1.4 2.5-1.5 8.9-.5 3.9.6 8.7 1.5 10.5 2.1 2.5.8 3.6.8 4.9-.2 1.4-1.2 1.5-3.2 1-14.2-.6-13.2-1.4-15.7-4.8-15.7-1.1 0-1.9-.6-1.9-1.4s-.7-1.7-1.6-2c-2.1-.8-.8-2.6 1.9-2.6 2-.1 1.8-.4-1.3-3-2.9-2.4-3.2-3-1.8-3.5.9-.4 2.6-.1 3.8.5 2 1.1 2.1 1 1.5-1.2-1.4-4.7-2.6-4.9-9-1.9-12.2 5.7-19.5 6.3-24.8 2.1-1.4-1.1-3.5-2-4.7-2-1.3 0-2.7-1.1-3.8-3-1.7-2.9-1.8-3-10.2-3-4.8 0-9.6-.6-11-1.3-2.2-1.1-2.5-2-2.8-7.9-.3-6.2-.1-6.7 2.7-9.1 1.7-1.4 5.4-3 8.3-3.6s8.2-1.6 11.8-2.3c5.5-1.1 6.5-1.6 7-3.8.4-1.6 1.6-2.8 3.5-3.5 1.7-.5 3.6-1.8 4.3-2.7.8-1.1 2.6-1.8 4.5-1.8 2.6 0 3.7.7 5.1 3.1 1.6 2.7 2.1 2.9 4.9 2.3 1.8-.4 5.7-1 8.7-1.3l5.5-.6.3-6.5c.2-3.6 0-8.1-.3-10-.6-2.9-.8-3.1-1.6-1.7-1.5 2.6-2.9 2-2.9-1.3 0-1.7-.4-3-1-3-.5 0-1-2.1-1-4.7 0-4.3-.1-4.5-1.5-2.7s-1.4 1.8-1.4-1.1c0-1.7.4-6.4.9-10.5l1-7.4-3.6-3.7c-3.1-3.2-3.5-4.1-3.2-8 .3-4.2.5-4.4 3.6-4.7 3.2-.3 3.3-.5 1.8-2.1-1.5-1.7-1.3-2.2 2.5-6.9 4.4-5.7 6.3-6.2 10.2-3.2 1.4 1.1 2.7 2 3 2s.8-1.6 1.1-3.5c.7-3.8 1.1-4 10.8-4.9 3.3-.4 5.9-.2 6.3.4 1 1.6 1.9 1.2 3.7-2 2.2-3.9 5.5-3.9 9.3 0 3.2 3.4 4.7 3.7 6.5 1.5.7-.8 2.2-1.5 3.4-1.5 3.3.1 11.5 6.6 12.2 9.7.4 1.6 1.3 3.8 2 5 1.2 1.9 1.7 2.1 4.4 1.1 1.7-.6 3.3-.8 3.6-.5s-.5 2.7-1.8 5.3c-2.4 4.9-2.4 4.9-.5 9.8 1.1 3 2.2 9.9 2.7 17.5.5 6.9 1.4 14.2 2 16.1 1.3 4.4 1.3 5.3 0 4.5-.6-.4-1 .5-1 2.1 0 1.5-.3 2.4-.7 2.1-.3-.4-1.2-.2-1.9.3-1.4 1.2-4.4-1.2-4.4-3.6 0-3.2-1.9-.9-5.3 6.3-3 6.6-3.6 7.3-3.6 4.8-.2-4.5-2.1-1-2.1 3.7v3.8h5.8c3.2 0 6.6.6 7.7 1.4 1.1.7 3.6 1.7 5.5 2.1 3.5.8 9.6 6.4 19.1 17.7 6.3 7.6 6.8 10 4.3 24-.4 2.7.2 5.9 2.6 12.8 3.7 10.6 4.7 19.3 2.8 23-.7 1.3-3.6 4.1-6.3 6.2-5.8 4.4-6.6 5.8-3.3 5.8 4.6 0 5.4 1.4 3.3 6-2.2 4.8-6.1 8.5-13.6 12.8-3 1.7-6.7 4.4-8.3 6l-2.8 3 7.7 23.4c9.3 28.4 8.9 27.2 14.1 38.5l4.3 9.3H512V0H0z"/><path d="M234.1 181.8c-.7 1.2-1.6 2-2.1 1.7s-1.1.4-1.4 1.5c-1.9 6.5-2.2 6 3.8 6 4.5 0 5.7-.4 6.6-2 1.5-2.7.3-6.5-1.5-5-1.3 1.1-2.8-.1-3.7-3-.4-1.1-.8-1-1.7.8m-11.4 5.3c-.7 2.7-.1 3.7 1.4 2.2.7-.7.8-1.7.2-2.8-.9-1.5-1.1-1.5-1.6.6m69 68.1c-.3 1.8-.9 5.5-1.3 8.2-.6 4.5-.5 4.7 1.2 3.8 1.1-.6 3-2.2 4.3-3.6l2.5-2.6-2.2-4.5c-2.6-5.3-3.8-5.7-4.5-1.3"/></svg>