<svg xmlns="http://www.w3.org/2000/svg" width="682.667" height="512" version="1.0" viewBox="0 0 512 384"><path d="M0 192v192h184.6l5.2-12.4c2.8-6.8 8.3-21.6 12.2-32.8s8.6-23.7 10.6-27.8c4.1-8.7 4-11.8-.8-21.4-2.3-4.5-6.5-20-5.5-20.1.1 0 1.2-.6 2.5-1.3 1.9-1 3.2-1 7.4.3 2.8.8 5.4 1.2 5.7.9s.8-6.9.9-14.6l.4-14.1-2.3 1.7c-3.5 2.4-8 2-11.8-1.1l-3.3-2.7 3.9-1.2c3.2-1 3.4-1.2 1.2-1.3-1.4-.1-3.4-1-4.4-2.1-1.5-1.7-2.6-1.9-7.1-1.4-4.3.6-5.9.3-8.9-1.5-2-1.1-4.7-2.1-6-2.1-1.6 0-3.3-1.1-4.7-3.1l-2.3-3.1-10.2.7-10.2.7-3.1-3c-4-4-4.2-9.7-.4-14.1 2.5-3 12.7-7.1 17.5-7.1 1.2 0 2.4-1.2 3.3-3.4s2.3-3.6 4.2-4c1.5-.4 4.1-1.8 5.7-3.2 3.7-3.2 7-3.1 9.2.2 1.5 2.4 2.1 2.6 5.8 1.9 5.1-.9 16.6-1 17.4-.1.3.3 0 1.2-.7 2.1-2.1 2.5-.4 2.9 5.2 1.3l5.3-1.5.3-4.4.2-4.4-2 2.3-1.9 2.3.6-4.9c.8-6.7-.3-12.3-2.2-11.5-1.1.4-1.5-.2-1.5-2.4 0-1.6-.7-3.9-1.6-5.1-.8-1.2-1.2-2.7-.9-3.2.3-.6.3-1.9 0-3.1-.7-1.9-.7-2-2.1-.2-1.2 1.6-1.3 1.3-1.3-3.2 0-2.8.4-7.5.8-10.6.6-5 .4-6-1.6-8.3-1.2-1.4-2.5-4.3-2.9-6.3-.6-3.1-.3-3.9 1.7-5.5 1.8-1.6 2-2.1.9-2.8s-.6-1.9 2.6-5.7c4.8-5.6 6.5-6.2 10-3.4 2.8 2.2 4.7 2 3.7-.4-.9-2.4 1.7-4.5 5.6-4.5 2-.1 4.7-.7 6.1-1.5 2.2-1.2 2.7-1.1 4.2.2 1.6 1.4 1.9 1.2 3.4-2.1 2.1-4.4 3.9-4.5 9.2-.6 4.8 3.4 5.5 3.6 7.2 1.5 1.9-2.3 3.3-1.9 10.2 2.6 4.9 3.1 6.6 4.9 7.9 8.2 1.7 4.2 1.7 4.2 6.3 3.9 2.5-.2 4.6 0 4.6.3s-.9 2.4-2.1 4.7c-1.6 3.2-1.9 4.5-1 6.2 2.6 5.2 3.3 9 4.1 23.1.5 8.2 1.2 16.5 1.6 18.4.6 2.7.4 3.2-.6 2.6s-1.2-.3-.8 1.3c.7 2.6-1 3-2 .4-.5-1.3-.8-1.1-1.3 1.3l-.6 3-1-2.5c-.6-1.4-1.4-3.4-1.8-4.5-.5-1.6-1.4-.6-4.5 5.5-2.2 4.1-3.9 6.8-4 6 0-.9-1.2-.2-2.9 2-3.5 4.1-2.8 5 4.4 5 4.7 0 11.1 1.6 18.2 4.6 3.8 1.6 13 13.3 16.7 21.4 3.4 7.3 3.3 11-.8 19.4-3.2 6.4-3.4 7.5-2.6 11.6 1.3 6.2 1.1 15.7-.4 20.5-.9 3.2-2.4 4.9-7.6 8.5l-6.5 4.5 12.2 1.1c6.7.7 12.7 1.4 13.2 1.5 1.6.6-3.1 10-6.5 13.1-1.6 1.5-5.2 4.5-8.1 6.7-4.1 3.2-6 5.7-9.6 13.2l-4.5 9.1 5.4 15.7c3.1 8.6 7.8 20.1 10.6 25.6s5.6 11 6.2 12.2l1.1 2.3H512V0H0z"/><path d="M238.6 181.8c-.6 1.7-1.1 2-2.5 1.2-1.5-.8-2.1-.3-3.4 3l-1.5 4h6.8c5.4 0 6.9-.3 7.4-1.7.4-.9 0-2.3-.9-3.2-1.3-1.3-1.5-1.3-1.5-.1-.1.8-.9 0-1.9-1.9-1.7-3.3-1.9-3.3-2.5-1.3M210 229.5c-2.2 1.2-2.3 1.4-.7 2 2.3.9 4.7-.1 4.7-2 0-1.8-.8-1.8-4 0"/></svg>