<svg xmlns="http://www.w3.org/2000/svg" width="682.667" height="512" version="1.0" viewBox="0 0 512 384"><path d="M0 192v192h167.8l2.7-3.3c1.5-1.7 4.8-5.5 7.4-8.2 2.6-2.8 6.1-6.8 7.9-9 3.6-4.6 12.5-23.8 18.7-40.6 2.3-6.3 6.3-15.1 8.9-19.4 2.5-4.4 4.2-8.2 3.8-8.6s-4.6-1.2-9.3-1.8c-10.7-1.4-20-3.8-21.7-5.5-2.3-2.3.3-5.9 3.5-5.1 2.2.5 2.4.3 1.8-1.2-3.5-8.4.4-9.2 5.4-1.1 2 3.4 2.7 3.8 6.5 3.8 2.3 0 4.6-.4 5.2-1 .5-.5 2.7-1.6 4.9-2.3 4.9-1.7 5.2-2.7 5.5-19.7.1-6.9.5-14.9.9-17.8.8-5.4-.3-6.8-2.9-3.7-1.7 2-7.5 1.9-11.1-.2-3.3-2-3.6-2.8-1.2-3.7 1.2-.5.8-1.1-2.1-2.6-2.9-1.4-4.4-1.6-6.3-.9-3.5 1.3-4.1 1.2-6.7-1.6l-2.4-2.6-11.5 2.9c-11.1 2.8-11.7 2.9-14.4 1.2-4-2.4-5.3-4.3-6-8.4-.7-4.7 2.7-9.3 10.1-13.5 5.3-3.1 5.4-3.2 4.3-6-1.2-3.2.2-6.1 3.1-6.1.8 0 3.2-1.6 5.3-3.5 4.4-4 6.8-4.4 9.4-1.5 1.8 1.9 1.8 2 4.9.1 3.3-2 15.6-3.4 15.3-1.7-.6 2.8 11.7 3.3 19.1.7 6.5-2.3 6.8-2.5 7.7-7.9.8-4.8.2-5.4-1.8-1.5-1.4 2.5-1.4 2.4-1.5-3 0-7-1-11.7-2.4-11.7-.7 0-.6-.5.2-1.5 1.8-2.1.3-5.8-2.1-5.2-1.6.4-1.9.1-1.4-1.3.3-1.1.1-2.9-.6-4.1-.9-1.7-1.3-1.9-2-.8-1.6 2.6-.1-17.9 1.6-21.1 1.5-3 1.5-3.2-.6-4.9s-2.1-1.9-.7-4.8c1.5-2.9 1.4-3.2-.9-5.5l-2.4-2.5 3.8-3.7c4.9-4.7 7.4-5.4 11.2-2.7 1.6 1.2 3.1 2.1 3.3 2.1s.2-1.5 0-3.4c-.4-3.4-.3-3.4 5.1-5 7-2 8.7-2 10.3.1 1.1 1.6 1.3 1.5 2-1.2 1.5-6.6 4.6-7.2 10.3-2 4.2 3.8 5.2 4.1 8 2.3 1.6-1 2.6-.5 6.7 3.1 2.7 2.4 6.3 4.9 8 5.6 2.3.9 3.3 2.1 3.8 4.5 1 5.2 2 5.9 6.7 4.8 2.2-.6 4.2-.8 4.5-.5.4.3-.4 2.2-1.6 4.3-2.2 3.5-2.2 3.8-.7 8.8 2.5 8.3 3 11.5 3.2 23.1.1 6 .6 13.2 1 15.9.8 4.6.7 4.8-1.3 4.1-1.6-.5-2.2-.2-2.2.9 0 2.1-2 2-3.6-.2-1.1-1.5-1.4-1.2-2.5 3-.8 3-1.9 4.8-3.1 5.1-1 .3-1.8.2-1.8-.3 0-.4-.9-1-2-1.3s-2 0-2 .5c0 .6-.6.6-1.5-.2-1.2-1-1.5-.7-2.1 1.4-.3 1.4-1 2.3-1.5 2s-.9.3-.9 1.3c0 2.4 4.1 4.1 14.1 5.7 7.1 1.1 8.6 1.7 11 4.3 4.7 5.3 7.2 13.6 7.3 23.9.1 8.2-.1 9.4-2.6 13.1-1.5 2.3-4.2 4.7-6.5 5.7-2.1 1-4.8 2.2-6 2.8-2.8 1.4-14 23.7-15.3 30.7-1.6 8.3-1.4 8.9 2.3 9.5 1.7.2 9.1 1.4 16.2 2.5 7.2 1.1 15.6 2.3 18.9 2.7l5.9.7-.6 5.6c-.3 3.8-1.5 7.4-3.6 11.1-1.8 3-4.5 8.4-6.1 12-5.3 11.6-7.6 15.5-9.6 15.7-1.4.2-3.7-2.4-8.8-10.2-3.9-5.7-7.2-10.3-7.4-10-.3.3 7.4 27.2 11.8 40.5 2.1 6.7 5.9 14.3 11.2 22.7l4 6.3H512V0H0z"/><path d="M240.1 182.5c-1.3 2.5-2.2 4.7-2 4.9s3.2.6 6.5.9c4.9.5 6.5.3 7.4-.9 1.1-1.2.9-1.9-1.1-4l-2.4-2.6-.5 2.3c-.5 2-.7 1.9-2.5-1.5-1.1-2-2.2-3.6-2.5-3.6s-1.6 2-2.9 4.5"/></svg>