<svg xmlns="http://www.w3.org/2000/svg" width="682.667" height="512" version="1.0" viewBox="0 0 512 384"><path d="M0 192v192h171.2l-.6-3.4c-.6-3.3-.4-3.7 5.1-7.9 8.5-6.5 14-12.9 15.3-17.7.6-2.4 1.5-5 2-5.9 1.4-2.8 7.7-19.3 10.5-27.6 3.3-9.6 7.2-18.5 10.8-24.1 3-4.9 2.7-8.4-.8-8.4-1.2 0-3.3-.9-4.7-1.9-2-1.6-4.7-2.1-14.9-2.6-16.9-.8-22.4-2.4-21.7-6.1.2-1.3 1.3-2 3.5-2.2l3.1-.3-1.4-3.4c-2.9-7-1.1-7.3 5-1 4 4.1 4.6 4.4 8.2 3.8 4-.7 14.2-5.5 15.9-7.6.6-.7 2.2-2 3.8-3 1.5-1 2.7-2.4 2.7-3.2 0-.7.9-2 2-2.8 1.7-1.2 2.1-2.8 2.4-10.9l.5-9.5-5.1-2.1c-3.4-1.4-4.7-2.5-4.2-3.3.5-.9.2-1-1.2-.4-4.2 1.8-6.9 1.7-8.7-.3s-1.9-2-11.9 2.4c-12.5 5.4-15.8 5.6-20.4 1-5.6-5.6-4.5-9.6 6-21 4.1-4.5 4.2-4.9 2.1-6.6-2.6-2.1-1.9-5.9 1.4-7.3 1.5-.7 4-2.7 5.5-4.5 3-3.5 4.5-3.9 7.6-2 1.6 1 2.3.9 4.5-1.2 1.6-1.5 5.3-3.1 9.1-4.1 6.1-1.5 6.4-1.5 7 .3.3 1 .2 2.2-.1 2.8-.8 1.3 7.4 1.3 13 0 7.3-1.7 14.9-4 15.8-4.9.4-.4 1.1-3.4 1.4-6.5.7-6.3-.8-7.6-2.8-2.4-1.2 3.3-1.2 3.3-2.1-3.7-.5-3.9-1.3-7.4-1.8-7.9s-.6-2.1-.3-3.6c.6-3.3-1.3-7.4-3.2-6.6-1 .3-1.5-.6-1.7-3.2-.2-2.4-.8-3.6-1.6-3.4-1 .2-1.2-1.3-.7-7 .4-4 1.2-8.9 1.8-10.8 1.2-3.8 1.1-7-.4-8.5-1.4-1.4-1.1-4.7.7-6.6 1.5-1.7 1.5-2-.1-4.6l-1.8-2.7 4.1-3.8c4.7-4.4 8.4-4.9 11.8-1.7l2.2 2 .6-3.4c.4-1.9 1.3-4 2-4.7 2-1.6 13.7-.2 15.3 1.9 1 1.4 1.3 1.2 2.4-1.2.7-1.5 2.4-3 3.8-3.4 2.1-.5 3.1.1 6.1 3.6l3.7 4.3 4.1-1.3c4.5-1.3 3.7-1.6 12 5.1 2.9 2.4 4.2 4.2 4.2 6 0 5.5 1.1 7 5.1 7.6 4.4.7 4.5 1 2.4 4.1-1.3 1.9-1.3 2.8 0 7.9.8 3.2 1.5 9.9 1.5 14.9 0 8.5 1.1 18.2 2.6 23.3.6 2.1.4 2.2-2 1.6-2.2-.5-2.6-.3-2.6 1.7-.1 2.2-.2 2.3-1.4.6-.7-.9-1.6-1.7-1.9-1.7s-1.1 2.5-1.7 5.4c-.8 4.1-1.5 5.4-2.6 4.9-.8-.3-1.4-1.2-1.4-2 0-1.3-.3-1.3-1.5-.3-1 .9-1.5.9-1.5.1 0-2.1-2-1.1-2.1 1.1-.1 1.8-.3 1.7-.8-.7l-.7-3-.8 3.3c-.4 1.8-1.4 3.6-2.2 3.9-3.3 1.2-.9 3 6.4 4.8 5.2 1.3 8.6 2.8 10.4 4.5 2.9 3 5.4 10.1 6.4 18.9 1.3 12.1-4.8 23.3-14.2 25.6-3.8 1-4 1.2-7.3 10-6.4 17.3-9.1 32-6.1 33.5.8.5 4.5 1.5 8.1 2.3 3.7.9 12.4 3.7 19.5 6.4 10.9 4.1 12.9 5.1 13.2 7.1.9 6.5-9.4 26.7-18.1 35.4l-3.5 3.6 2.4 3.5c1.3 2 2.4 3.9 2.4 4.2 0 .4 1.3 2.5 2.9 4.8 4.3 6.3 8.7 15.7 9.5 20.2.4 2.2 1.2 6.1 1.8 8.7l1 4.8H512V0H0z"/><path d="M245.1 177.7c-.6 1.6-1.6 3.6-2.3 4.5-1.7 2.4-.6 3.1 5.5 3.6 4 .3 5.6 0 6.6-1.2 1.1-1.3 1.1-1.9 0-3.2-1.2-1.5-1.4-1.4-1.9.7s-.8 1.9-3.3-2.4c-1.5-2.6-2.9-4.7-3.1-4.7s-.9 1.2-1.5 2.7"/></svg>