<svg xmlns="http://www.w3.org/2000/svg" width="682.667" height="512" version="1.0" viewBox="0 0 512 384"><path d="M0 192v192h183l-.6-2.8c-.5-2.2.5-4.4 4.6-10.6 2.8-4.3 4.9-8.4 4.6-9.1-.6-1.6 1-12.3 2.4-17 .5-1.7 2.8-9.1 5-16.5 6.2-20.6 7-22.8 11.6-32.1 2.4-4.8 4-8.9 3.7-9.2-.3-.4 0-4.9.7-10.2 1-7.6 1-9.8 0-11-1.7-2.1-3.7-1.9-4.5.4-.3 1-1.9 2.4-3.6 3.1-2.6 1.1-3.2 1-5.2-.8-1.8-1.7-3-2-5.9-1.5-3.1.4-4.3.1-6.9-2.2-2.4-1.9-4-2.5-5.9-2.1-1.5.2-8.3.8-15.1 1.2-11.5.6-12.6.5-14.9-1.4-2-1.6-2.2-2.2-1.2-3.5.7-.8 2.4-1.8 3.8-2.1l2.5-.7-2.5-3c-1.4-1.7-2.6-3.4-2.6-3.8 0-2.1 1.7-1.7 6.4 1.5 4.2 3 5.7 3.5 8.6 3 2.6-.4 13.7-5.2 16.8-7.2.2-.2-1.7-2.2-4.2-4.7-2.5-2.4-4.6-5.1-4.6-6 0-1.9 8.6-21.6 10.1-23.2 1.6-1.6 1-2.4-2.6-3.9s-4.5-3.7-2.2-5.5c.6-.6 3.1-2.6 5.3-4.5 2.3-2 4.6-3.6 5.2-3.6s2.6-1.8 4.4-4.1c4.1-5.2 13.8-10.2 15.7-8.1.8.7 1 2.4.7 3.8-.5 2-.2 2.6 2.1 3.5 3.5 1.3 8.6.6 19.1-2.8l8.2-2.7v-8.7c0-8.9-1.3-12.4-2.5-6.9-.8 3.9-2.5 4.9-2.5 1.5 0-1.5-.4-2.4-1-2s-1-1.3-1-4.2c0-2.7-.4-5.3-1-5.9s-.6-2.1-.1-4.1c.8-2.7.6-3.6-1.5-5.8-1.3-1.4-2.4-3.2-2.4-4 0-.7-.3-2.1-.6-2.9-.5-1.4-.9-1.4-2.2-.4-1.3 1.1-1.5 1-.8-1.2.4-1.4 1.1-5.5 1.5-9.1.5-3.6 1.5-7.9 2.3-9.5 1.2-2.5 1.2-3.4-.1-6.7-1.6-4.3-.4-8.7 2.5-8.7 1.2 0 1.4-.5.8-1.8-2-4.7 1.4-10.6 7.8-13.3 2.6-1 3.2-.9 5.5 1.2 2.4 2.3 2.6 2.3 3.7.5 3.4-5.7 4.7-6.6 6.9-5.4 1.2.6 4.2 1.7 6.7 2.3 3.8 1 4.4 1.5 4.2 3.3-.4 2.9 1.3 2.8 5-.3 1.6-1.4 3.3-2.5 3.8-2.5 1.3 0 5 5 5 6.8 0 1.2 1.1 1.3 6.8.8 6.6-.7 6.8-.6 9.7 2.4 2.4 2.4 3.2 4.5 4 9.7.9 6.1 1.2 6.7 4 7.6 4 1.3 4 1.3 2.2 4-1.4 2.2-1.4 2.8 0 6.8 1.5 4.3 1.5 5.9.1 32.4-.1 1.1.3 4 .7 6.4l.8 4.3-2.7-1.7c-2.6-1.7-2.6-1.7-2.6.6-.1 2.3-.1 2.3-1.4.6s-1.5-1.5-2.7 2c-.6 2-2 5.1-3 6.8l-1.9 3-.1-4c-.1-2.2-.3-3.2-.6-2.3-.7 2.8-2.3 2.1-2.4-1v-2.7l-1.1 2.5c-.6 1.4-1 3.1-.9 3.9.2.9-.3 1.2-1.3.8-1.2-.5-1.6 0-1.6 2.3s.3 2.8 1.6 2.3c1-.3 2.2 0 2.8.8s2 1.9 3.1 2.5 2.9 2.6 4 4.5c2.7 4.6 2.8 19 .1 26.8-1.9 5.5-8.3 13.1-11.1 13.1-1.9 0-2.8 2.2-7 18.7-4.2 16.2-4.6 24-1.2 27 1.2 1.2 5.1 3.1 8.7 4.3 8.4 2.8 20.8 9.2 28.1 14.7 9.1 6.6 8.4 8.9-7.7 24.6l-11.8 11.5 2.8 6.5c4.1 9.7 11.7 21.5 17.8 27.5 2.9 2.9 9.3 7.9 14.2 11.2l8.8 6H512V0H0z"/><path d="M234.1 146.6c0 1.1.3 1.4.6.6.3-.7.2-1.6-.1-1.9-.3-.4-.6.2-.5 1.3m11.5 29.4c.4 3 .8 5.8 1 6.2.6.9 9.2-2.1 10-3.4.4-.5-.3-2-1.5-3.1l-2.1-2.1v2.4c-.1 2.2-.3 2.1-2.1-1.3-1.6-3-2.3-3.6-3.4-2.7-1 .8-1.5.8-1.9-.2-.3-.7-.3 1.2 0 4.2m36.4 3.7c0 .6-.3 1.8-.6 2.7-.4 1.1-.1 1.6 1 1.6.9 0 1.6-.6 1.6-1.3 0-1.6-2-4.6-2-3m-75.9 54.4c-5.3 3.5-6.3 4.5-3.7 3.5 1.2-.4 2.6 0 3.8 1 1 1 2 1.5 2.1 1.3 2.9-3.7 4.7-7.1 4.2-7.9-.9-1.5-1.5-1.3-6.4 2.1M307.8 377l2.5 7h7c4 0 6.7-.4 6.2-.8-.6-.5-4-3-7.6-5.5-3.7-2.6-7.2-5.4-7.9-6.2-2.6-3.1-2.6-1.3-.2 5.5"/></svg>