<svg xmlns="http://www.w3.org/2000/svg" width="682.667" height="512" version="1.0" viewBox="0 0 512 384"><path d="M0 192v192h185l-.6-2.4c-.4-1.8.6-4.9 3.6-10.8 2.6-5.3 4-9.2 3.7-10.7-.7-3.6 1.1-15.3 3.7-24 1.3-4.2 3.9-13.1 6-19.8 3.7-12.5 7.4-21.5 10.9-26.6 1.2-1.8 1.7-3.6 1.3-5.2-.3-1.3-.2-4.4.3-6.7.5-2.4 1.3-7.3 1.6-11.1l.7-6.7h-2.8c-1.6 0-4.2-.9-5.8-1.9-2.5-1.7-3.1-1.7-4.3-.5-2.4 2.3-6.1 2.8-7.9.9-1.3-1.2-2.6-1.5-5.6-1-3.4.6-4.4.3-6.6-1.8l-2.7-2.6-14.5 1.4c-18.1 1.8-17 1.8-20-.6l-2.5-2.1 2.3-1.8c1.2-1 2.8-2 3.5-2.3.8-.3.5-1.2-1-2.9-1.3-1.3-2.3-3.2-2.3-4.1 0-1.9.2-1.8 8.9 3.4 3.2 1.9 3.6 1.9 6.7.4 1.9-.9 5.1-2.2 7.1-2.9 9.7-3.4 10.3-4.1 15.9-18.9 5.2-13.7 5.3-14.8 1.5-15.4-.8-.1-2.1-.8-2.9-1.7-1.3-1.2-1.3-1.8-.2-3 .7-.9 1.8-1.6 2.4-1.6 1.8-.1 9.3-7.2 12.4-11.8 1.6-2.5 5-5.5 7.8-7.2 4.3-2.4 5.2-2.6 6.8-1.4 1.3.9 1.7 2 1.2 3.8-.5 2.1-.3 2.6 1.1 2.6 1 .1 3.5.7 5.6 1.5 3.6 1.2 4.4 1.1 12.7-1.8l8.8-3.1.1-8.2c.1-4.4-.2-9.2-.7-10.5-.9-2.2-1-2.2-2.1 1.4-1.6 4.6-3.3 5.9-2.5 1.7.4-1.7.2-3-.3-3-.6 0-1.4-2.1-1.7-4.8-1-6.8-1-7.5-.3-9.8.5-1.5 0-2.8-1.8-4.8-1.4-1.5-2.5-3.7-2.5-5 0-3-1-3.9-2.8-2.3-1.3 1-1.4.9-.8-1.3.4-1.4 1-4.8 1.2-7.5.3-2.8 1.5-7.4 2.6-10.4 1.8-4.5 1.9-5.8 1-8.5-1.6-4.3-1.6-4.3 1.4-7.1 2.1-1.9 2.4-2.7 1.5-4.4-2-3.7.9-8.1 7.7-11.5 3.2-1.6 3.3-1.6 5.8 1.1 2.7 3 2.8 2.9 6-3 1.7-3.1 2.2-3.2 6.6-1.3 1.8.8 4.8 2 6.6 2.6 2.5 1 3.1 1.7 2.7 3.1-.8 2.6 1.7 2.5 4-.1 1-1.1 2.6-2 3.6-2 2 0 5.9 4.5 5.9 6.7 0 1.2.9 1.4 3.8 1 2-.3 4.7-.8 5.8-1.2 1.7-.5 3.2.2 6.3 3 3.6 3.3 4.1 4.3 4.1 8.1 0 6.2 1.4 9 5 10.3 3.2 1.1 3.2 1.1 1.5 3.7-1.3 2.1-1.4 3.1-.6 5.6 1.4 4 1.4 22.9 0 30-.8 3.8-.8 7-.1 10.2.5 2.5.6 4.6.1 4.6s-.9-.5-.9-1.2c0-.6-.3-.8-.7-.4-.4.3-1.3-.4-2-1.6-1.4-2.2-1.4-2.2-1 .9.4 3.7 0 4.1-1.8 1.6-1.2-1.6-1.4-1.3-2.4 2.2-.6 2.2-2 5.3-3.1 7l-2 3-.1-4c-.1-3.9-.2-3.9-.9-1-.7 2.8-.8 2.8-.9.5-.1-1.4-.5-3.1-1-3.9-.7-1-1.1-.5-1.6 1.8-.4 1.7-1.1 2.9-1.6 2.5-.5-.3-.9.6-.9 2 0 1.9.5 2.6 2 2.6 1.1 0 2.3.7 2.7 1.6.3.9 1.6 2.6 2.9 3.9 2.9 2.9 3.8 7.9 3.1 17.3-.7 9.1-5.1 18.9-10 22.3-1.8 1.3-3.3 2.3-3.5 2.5-.8.5-8.1 31.8-8.6 36.6-.5 5.2-.3 5.8 2.5 8.8 1.8 1.9 5.5 4 8.8 5.1 12.7 4.3 35.1 17.8 35.1 21.1 0 3.6-2.9 7.4-14.5 19.3l-11.7 11.9 1.7 5.4c5.8 18.6 14.7 31.2 29.7 42.1l5.7 4.1H512V0H0z"/><path d="M247 170.1c0 .5-.4.7-1 .4-1.3-.8-1.3 4.4.1 8.3l1 3 3.7-1.5c6.1-2.5 6.7-3.6 3.8-6.9l-2.5-2.9-.1 2.5c-.1 2.4-.2 2.4-1.7-.8-1.6-3.1-3.3-4.3-3.3-2.1m34.7 9.3c-.4 1-.5 2.1-.2 2.4.9.9 1.7-.6 1.3-2.5-.3-1.7-.4-1.7-1.1.1M310 382.5c0 .9.9 1.5 2.1 1.5 1.8 0 1.9-.2.5-1.5-.8-.8-1.7-1.5-2-1.5s-.6.7-.6 1.5"/></svg>