<svg xmlns="http://www.w3.org/2000/svg" width="682.667" height="512" version="1.0" viewBox="0 0 512 384"><path d="M0 192v192h189.3l-2.1-2.2c-4.1-4.4-4.6-7.7-2.1-13.3 1.3-2.7 3.1-6.2 4.1-7.7 1.5-2.2 1.7-3.8 1.2-9.4-.4-3.8-.2-8.2.5-10.3 6.4-21.3 15.9-48.9 18.6-54 2.7-5 3.2-6.7 2.3-8.1-.8-1.3-.7-3.4.6-8.6 1.1-4.1 2-12.7 2.3-21.3.6-14.3.6-14.3-1.5-13.2-1.1.6-2.4 2-2.7 3.1-.8 2.5-7.4 6-11.4 6-3.8 0-10.1-5.3-10.1-8.5 0-2.7-5.5-8.7-7.8-8.4-.9.1-2.5-.2-3.5-.6-1.2-.5-3.2-.2-5.3.9-4.4 2.1-4 2.1-7.3-1.5l-2.9-3.1-9.3 1.1c-5.2.7-12.4 1.9-16.1 2.7-5.5 1.3-7 1.3-8.7.2-2.5-1.5-2.6-2.6-.5-4.9 1.5-1.6 1.4-2-1.1-5.3-3.1-4.1-2.3-4.5 4.6-2.1l4.4 1.6 9-4.5c4.9-2.4 10.7-5.1 12.8-6 3.8-1.5 6-5.2 6.6-10.9.1-.4 3.2-.7 6.9-.7 6 0 7.5.4 11.3 3 4.9 3.3 5.9 3.6 5.9 1.7 0-.6 1.9-2 4.1-3 3.2-1.5 4.6-3.1 7.1-8 1.7-3.4 4.2-7.6 5.7-9.2 1.4-1.7 3.3-4.1 4.2-5.4 1.5-2.4 1.6-2.4 4.2-.6 1.5.9 2.7 2.3 2.7 3 0 .8 2.9 1.4 9.3 1.9 5 .4 10.2.9 11.3 1.2 2.1.5 2.1.3 2.2-12.8l.1-13.3-2.2 4-2.2 4-.5-8c-.3-4.4-.2-9 .2-10.3 1.1-3.2 1-7.4-.3-9.2-.8-1.2-1-.9-.6 1.2.5 3-.7 3.8-1.7 1.2-.3-.8-.9-1.3-1.4-1-.4.2-.8-1.1-.8-2.9 0-4.1-.9-5.2-2.8-3.6-1.3 1.1-1.3.6 0-3.5.8-2.6 1.4-6.2 1.4-8.1 0-4 1.9-8.9 4.7-12 1.3-1.5 1.9-3.2 1.5-4.8-.3-1.8.2-3.3 1.8-4.9 2.1-2.3 2.1-2.5.5-5.6-2.2-4.2-1.3-7.6 2.8-10 4.2-2.6 8.2-2.6 10.1.1 1.8 2.6 3 1.9 5.2-2.6 1.8-3.9 2.8-4.1 9.9-1.6 4.1 1.5 5.1 2.2 5.3 4.4.2 1.5.6 2.7.8 2.7.3 0 2.1-1.2 4.1-2.7 4.1-3.2 6-2.5 7.7 2.7 1.1 3.4 1.2 3.5 6.6 3.5 6.8 0 9.2 1.3 12.5 6.9 1.9 3.2 2.4 5.2 2 7.6-.7 4 1.6 7.8 5.6 9.2 3 1 3.7 2.2 1.8 3.4-.7.4-.9 3.6-.4 9.8.5 6.6.2 11.9-1.1 19.6-.9 5.8-1.9 12.7-2.1 15.5-.5 7.3-.5 7.5-1.9 7.5-.6 0-1.5-1.2-1.9-2.8l-.8-2.7-1 3.2c-.5 1.8-1.5 3.3-2.1 3.3s-2.2 2.4-3.6 5.2c-1.7 3.8-2.5 4.8-2.8 3.4-.3-1.5-.6-1.6-1.3-.5q-.9 1.5-.9-2.4c0-4.1-1.3-4.8-3-1.7-.6 1.1-1.5 1.8-1.9 1.5-.5-.2-1.1.4-1.4 1.6-.4 1.6-.2 1.9 1.4 1.4 1.8-.6 2.6.3 3.3 3.7.2.7.8 2.6 1.4 4.1 2 4.8 1.4 12.6-1.4 19.2-5.9 13.6-15.4 49.7-15.4 58.4 0 5.1.3 5.6 4.1 9.2 2.3 2.1 5.1 4.1 6.3 4.5 4.8 1.5 23.8 11.9 29.2 16.1 3.8 2.9 4.2 5.2 2.1 12.4-2.4 7.9-14.8 24.9-18.2 24.9-.6 0-1.7-1-2.4-2.3-1.1-2.2-1.1-2.2-.6.3.3 1.4 1.2 7 2 12.5 2.1 13.5 2.8 15.8 9.1 30.2 3 6.9 5.4 13.1 5.4 13.9 0 1.2 14.3 1.4 100.5 1.4H512V0H0z"/><path d="M242.7 160.4c-.5 1.6-.5 6.4-.1 10.6.6 7.4.7 7.7 3 7.2 1.3-.2 4.3-2.2 6.7-4.4 2.3-2.2 3.6-3.7 3-3.3-.9.4-1.3-.2-1.3-1.9 0-1.4-.2-2.6-.4-2.6s-1.1-.3-1.9-.6c-1.2-.4-1.4 0-1.1 1.8.3 1.3-.5.4-1.7-2-2.1-4.1-3.8-5.4-4-3-.1.7-.4-.1-.8-1.7l-.7-3zm36.4 14.2c0 1.1.3 1.4.6.6.3-.7.2-1.6-.1-1.9-.3-.4-.6.2-.5 1.3"/></svg>