<svg xmlns="http://www.w3.org/2000/svg" width="682.667" height="512" version="1.0" viewBox="0 0 512 384"><path d="M0 192v192h95c52.3 0 95-.2 95-.4s-1.3-2-3-4.1c-3.4-4.2-4.8-10-3.2-12.4.6-.9 2.4-4.1 4-7.1 2.5-4.7 2.8-6.3 2.4-11.1-.5-6 1.6-15 6.8-29.4 1.5-4.4 4-11.8 5.4-16.5s4.3-11.9 6.5-16.1c3.4-6.8 3.7-7.9 2.4-9.2s-1.3-2.4.6-9.8c2.5-10.2 4-35.6 1.9-32.5-3.6 5.2-5.1 6.4-9.2 7.6-4.9 1.3-7.2.9-11-2.1-2.1-1.7-2.6-2.9-2.6-6.7 0-2.6.4-6.3 1-8.2l1-3.5-2 2.5c-1.6 2.1-2.2 2.3-3.7 1.2-1-.7-3.1-1.9-4.8-2.6-1.6-.8-3.7-2.4-4.5-3.5-.8-1.2-2.2-2.1-3-2.1-.9 0-2.1-.5-2.7-1.1-.9-.9-2-.6-4.6 1-4.5 2.8-5.6 2.7-8.6-1l-2.6-3.1-5.9 1.1c-3.3.6-7.8 1.1-10.1 1.1s-6.8.9-9.9 2c-4.6 1.6-6.1 1.7-7.7.7-2.2-1.3-2.5-3.7-.7-5.5.9-.9.5-1.9-1.7-4.2-3.5-3.7-2.7-4.7 2.4-3.2 5.4 1.7 7 1.5 10.5-1.1 2.9-2.1 12.6-7 18.7-9.5 1.7-.7 3.3-2.6 4.5-5.6 1.5-3.6 2.4-4.6 4.4-4.8 10.2-.8 12.8-.1 16.7 3.9 2.5 2.6 5.6 2.9 9.5.9 1.5-.8 2.9-1.1 3.2-.8.4.3 2.1 1.1 4 1.7l3.3 1.2 3.2-6.1c5.9-11.2 10-17.1 10.7-15.3.3 1 1.2 1.7 1.9 1.7s1.9.9 2.6 2.1c1.4 2 1.8 2 9.2 1 4.3-.6 8.8-.9 10.1-.5 2.1.5 2.2.3 2.4-11.3l.2-11.8-2.5 4-2.5 4 .7-7.3c.4-5.5.3-7.2-.7-7.2-.9 0-.9-.4-.2-1.2 1.7-2.1 2.5-11.5 1.1-12.3-.9-.6-1.1-.1-.7 1.9.3 1.4.4 2.6.2 2.6-1.1 0-4.4-4.2-3.9-5 .3-.4.1-2-.5-3.5-.9-2.3-1.3-2.5-2.5-1.5-1.8 1.5-1.9.6-.4-2.3.7-1.1 1.3-4.1 1.5-6.5.4-7.1 1.4-9.9 4.5-13.8 1.6-2.1 2.7-4.4 2.4-5.2-.3-.9.6-2.7 2.1-4.3 2.5-2.6 2.5-2.8 1-5.7-3.1-5.9-1.1-10.5 5.3-12.2 4.5-1.2 6.8-.6 7.6 2.1.9 2.9 2.1 2.3 3.8-1.9 2.4-6 3.4-6.4 9.7-3.3 3.9 1.8 5.6 3.2 5.8 4.8.4 2.9.8 2.9 4.8-.2 3.9-3 5.9-2.5 7.4 2 1.6 4.9 3.2 5.8 7.6 4.6 4.5-1.3 6.1-.5 10.5 5.1 2.8 3.5 3.3 4.9 3.2 9.2-.1 5.1 1.8 9.6 4.1 9.6s4.9 2.6 4.1 4.1c-.5.7-1 7.4-1.1 14.9-.2 9.5-.8 15.8-2.2 21.4-1.5 5.8-1.8 8.6-1 10.5.6 1.7.6 2.7-.1 2.9-.6.2-1.1 1.3-1.1 2.3 0 2.7-1.8 1.5-3.4-2.4l-1.4-3.2-.7 4.2c-.4 2.4-1.1 4.1-1.4 3.8-.4-.2-1.8 1.9-3.1 4.7-2 4.1-2.5 4.7-3.1 3.2-.4-1.1-.8-1.5-.9-.9-.2.5-.5-.3-.9-1.9-.7-3.6-3-4.6-3.8-1.7-.3 1.1-.9 1.9-1.3 1.6-.5-.3-1.1-.1-1.5.4-.3.6.3 1.5 1.4 2 3.8 2.1 5.1 15.6 2.2 24.3-2.4 7.6-11.4 40.7-13.5 50.1-.9 3.8-1.6 8.9-1.6 11.4 0 4.1.4 4.9 4.3 8.4 2.3 2.2 7.1 5.3 10.7 6.9 9.2 4.4 25.9 15.2 26.6 17.3.3 1 0 4.9-.6 8.8-.9 5.4-2.2 8.5-5.9 14.2-4.4 6.6-9.4 12-12.1 12.9-.8.2-.7 3.1.5 9.8 2.8 16.7 3.3 18.7 9 31.4 3 6.9 5.5 13 5.5 13.5 0 .8 30.5 1.1 100.5 1.1H512V0H0z"/><path d="M241.7 159.5c-.8 4.9-.7 17.4.2 17.9.3.2 2.4-.5 4.7-1.5 4.9-2.3 10.5-7.9 8.7-8.6-.7-.3-1.3-1.1-1.3-1.8 0-2.4-2.8-2.6-3.2-.2-.3 1.7-.9 1-2.9-3.3-2.5-5.2-2.7-5.3-3.5-3l-.8 2.5-.6-3c-.6-3-.6-3-1.3 1"/></svg>