<svg xmlns="http://www.w3.org/2000/svg" width="682.667" height="512" version="1.0" viewBox="0 0 512 384"><path d="M0 192v192h191.1l-2.6-4.3c-6-10.1-6.8-14.2-3.5-17.2 1.1-1 2-2.3 2-2.8 0-.6.7-1.8 1.5-2.7 1.1-1.2 1.7-4.5 2-11.1.3-7.9 1.1-11.5 5-22.9 2.6-7.4 5.3-16 6.2-19 .8-3 3.5-10.4 6.1-16.3 3.5-8.4 4.3-11 3.2-11.7-1.3-.8-1.3-1.6 1.3-13.5.8-3.9 1.7-11.9 2-17.8.5-10.7.5-10.8-1.3-8-3.1 5.1-13 6.9-18.1 3.2-2.5-1.8-2.9-2.7-2.9-6.7 0-2.6.7-7.4 1.5-10.7s1.4-6.3 1.5-6.6c0-.3-1.9-1.4-4.2-2.5-3-1.4-4.3-1.5-4.6-.6-.2.6-1.1 2.1-2.1 3.3l-1.7 2.1-4.7-3.2c-2.6-1.7-5.2-4-5.7-5.1-.6-1-1.9-1.9-3-1.9-1 0-2.2-.5-2.5-1-.4-.7-1.6-.3-3.3.8-4.9 3.4-5.9 3.4-9-.4-2.8-3.4-3-3.5-7.3-2.5-2.4.5-7.5 1.2-11.2 1.5-3.8.3-9.1 1.4-11.9 2.3-3.9 1.4-5.2 1.5-5.5.5-.3-.6-1.1-1.2-1.9-1.2-1.7 0-1.7-.5-.2-2.9.9-1.5.7-2.3-1.5-4.7-4.3-4.6-3.7-5.2 3.7-3.2 4.2 1.1 4.4 1.1 8.7-2.5 4.3-3.5 18.1-10.7 20.6-10.7.7 0 2.2-2 3.3-4.5 1.7-3.7 2.6-4.5 5.5-5.1 6.1-1.1 11.8.4 16 4.1 4.1 3.8 7.8 4.5 10.6 1.9 1.7-1.5 1.9-1.5 3.4 0 .9.9 2.4 1.6 3.4 1.6 2.1 0 4.1 1.9 4.1 4 0 1.7 4.2 4.8 4.7 3.4.2-.5 1.9-3.6 3.8-6.9 2-3.3 4.4-7.9 5.6-10.3 1.8-3.9 3.9-5.6 3.9-3.2 0 .5.6 1 1.4 1s2.1.9 2.9 2c1.4 2 1.6 2 7.8.5 3.5-.8 7.8-1.5 9.4-1.5 2.9 0 3.1-.3 3.2-3.8.1-2 .5-6.5.8-10 .4-3.4.4-6.2-.1-6.2s-1.9 1.2-3.2 2.7c-1.8 2.1-2.2 2.3-1.6.8.4-1.1.8-5.3 1-9.3.1-4 .5-9.3.9-11.7.4-2.9.3-4.5-.4-4.5-.6 0-1.1.9-1.1 2 0 1.7-.3 1.9-1.9.8-1.2-.7-1.9-2.2-1.9-3.9.1-3.4-.9-5-2.8-4.2-1.4.5-1.5.3-.5-1.5.6-1.1 1.1-3.6 1.1-5.5 0-5 2.4-12 5.4-15.9 1.4-1.9 2.6-4 2.6-4.6s1.1-2.4 2.5-4l2.5-3-1.9-4.3c-2.7-5.9-1.1-9.1 5.5-10.9 4.6-1.3 4.8-1.3 7.1 1.4 2.1 2.5 2.4 2.5 3 .9 1.9-5.6 3.3-8.3 4.2-8.3.5 0 3.4 1 6.5 2.1 4.4 1.7 5.6 2.6 5.6 4.4 0 3.4 1 3.6 4.3.9 3.9-3.3 5.8-2.8 8.2 2.5l1.9 4.3 4.9-.5c4.4-.4 5.3-.1 8.2 2.4 4.3 3.8 6.7 9 6 12.9s2.7 10 5.6 10c2.1 0 3.5 2.3 2.4 4-.4.6-.8 6.8-.9 13.8-.2 9.3-.9 15-2.5 21.6-1.8 7-2.1 9.4-1.2 11.3 1.4 3.1 1.4 3.3-.3 3.3-.9 0-1.2.7-.9 2 1 3.7-1.6 2.1-3.6-2.3-1.3-2.9-2-3.6-2-2.1-.1 3.1-3.2 11.5-4 11-.4-.3-1.3 1.1-2 3.1-1 2.6-1.5 3.2-2.2 2.2-.5-.8-.9-2.4-.9-3.7 0-1.2-.5-2.2-1.1-2.2-.5 0-.8-.4-.4-.9.3-.5.1-1.2-.4-1.5-.5-.4-1.2.3-1.6 1.4-.3 1.1-1.1 1.9-1.7 1.7-.6-.1-1.3.4-1.5 1-.3.7 0 1.3.6 1.3s1.1 1.3 1.1 2.9c0 1.7.4 3.2.9 3.5 2 1.3 1.7 7.9-1 21-1.6 7.7-4 17.8-5.4 22.5-4.6 15.8-8.5 32.6-8.5 36.4 0 3.4.6 4.5 4.8 8.2 2.7 2.4 8.4 6.2 12.7 8.5 10.2 5.3 22.3 13.7 22.9 15.9 1 2.8-1.1 16.5-2.9 20.1-2.2 4.2-9.5 14-10.4 14-.4 0-1.5.6-2.5 1.3-1.5 1.1-1.6 1.9-.7 5.3.5 2.1 1.7 9.1 2.5 15.5 1.3 10.1 2.2 13 6.6 22.6 2.7 6.1 5 11.7 5 12.7 0 1.5 7.8 1.6 101 1.6h101V0H0z"/><path d="M243.6 157.1c-.7 2.2-.8 2.3-1.5.5-.7-1.9-.8-1.8-1.4.5-.4 1.3-.7 5-.7 8.1 0 5.4.2 5.8 3 7.3 3.1 1.6 3.2 1.6 8.2-2.7 2.8-2.3 4.6-4.4 3.9-4.6-.6-.2-1.1-.9-1.1-1.7 0-.7-.6-1.8-1.4-2.4-1.1-.9-1.5-.7-2.1 1.1l-.8 2.3-.4-2.3c-.2-1.2-.9-2.2-1.4-2.2s-.9-.6-.9-1.3-.6-2.1-1.3-3.2c-1.3-1.7-1.4-1.7-2.1.6"/></svg>