<svg xmlns="http://www.w3.org/2000/svg" width="682.667" height="512" version="1.0" viewBox="0 0 512 384"><path d="M206.3 7.6c-.7.3-1.3 1.2-1.3 2s-.4 1.4-1 1.4c-2 0-4.2 5.1-4.5 10.7-.2 3.2-.6 7-1 8.4-.4 1.6-.2 3 .4 3.4.7.4.8 1.3.2 2.3-1.2 2.4-1.2 15.2 0 15.2.6 0 .8.9.4 1.9-.3 1.1-.2 2.2.4 2.5.5.3.7 1.4.5 2.4-1 4.2 3.5 5.4 14 3.6l4-.6-5.4 6.1c-7.3 8.2-12 14.9-12 17 0 3 2.5 5.2 6 5.6 1.9.2 4.8.6 6.3 1l2.8.7-.6 9.2c-.5 7.4-.1 11.2 1.8 20.6 1.3 6.3 2 11.6 1.6 11.8-.5.2-.2 1.6.6 3.2 2.3 4.4 1.9 5.6-3 8.5-6.5 3.8-11.3 8.2-13.5 12.5-1 2-2.6 8.1-3.5 13.6-.9 5.4-2.3 12.2-3.1 15.1l-1.4 5.1-5.9-.5c-3.2-.3-6.1-.1-6.4.4s.6 4.1 2 8l2.5 7.2-4.7 13.3c-6.6 18.6-14.6 38-22.1 53.5-3.5 7.3-6.4 14.4-6.4 15.7 0 1.4.9 6.2 2 10.8 1.3 5.5 2 11.8 2 18.6 0 7 .5 11.2 1.4 13.1.8 1.5 1.8 5.2 2.1 8.2 1.2 10.1 2.7 16.4 5.2 21.3l2.5 4.9-2.2 7.6c-1.2 4.2-2.4 8.4-2.7 9.3-.4 1.7 3.9 1.8 79.6 1.8 44.1 0 80.1-.3 80.1-.6 0-.4-4.7-11.1-10.4-23.8-13.5-29.8-13.9-31-18.1-47.9-4.5-18.1-5.1-19.8-9-27.8-2-3.9-3-7.1-2.5-7.9.4-.7.5-6 .1-11.9-.3-5.8-.6-16.2-.6-23.1.1-10.7.5-13.9 2.9-22 1.5-5.2 3.1-9.9 3.5-10.3.5-.4 1.6.5 2.6 2 1.7 2.5 1.8 5 1.6 26.8-.5 52.9 7.2 83.8 31 123.6 13 21.9 13.9 22.9 20.3 22.9 8.5 0 9.8-12.1 3.4-33.4l-2.1-6.9 2.1-1.6c1.8-1.4 2.2-3 2.8-11.1.6-9.5.6-9.5-3-16.5-2-3.9-3.6-7.4-3.6-8 0-.5 1.4-2.4 3.2-4.2 3.1-3.2 3.2-3.5 2-6.6-10.7-27.2-10.6-26.3-11.5-52.2-.3-7.7-.8-15.4-1.1-17-.3-1.7-.9-5.4-1.2-8.4-.3-2.9-1-6.5-1.6-8-.7-1.4-1.3-3.5-1.4-4.6-.6-5.2-2.9-12.1-7.2-21.9-2.8-6.5-11.3-23-12.7-24.6-2.1-2.6-5.4-9.3-6.4-13.4-.8-2.9-.7-4.3.3-5.7.7-1.1 1.6-1.6 2-1.1.8.7-.1-3.7-1.4-7.3-.5-1.2-1.1-5.7-1.5-10-.4-4.4-1.2-8.3-1.7-8.6s-.9-3.1-.9-6.2c-.1-4.1.5-6.7 2.2-9.8 3.1-5.4 3.9-2.5 1 3.4l-2 4.2 2.4-3c3.5-4.2 5.8-11.7 5.3-17.5-.2-3.2.1-5 .8-5 3.9 0 10.9-11.4 18.9-31 1.5-3.6 3.1-6.9 3.6-7.4 1.2-1.3 1.1-5.6-.2-9.4-1.2-3.6-5.1-5.2-18.4-7.7-9.7-1.8-17-1.9-25-.1-7.4 1.6-10.2 3-11 5.6-.6 2-.8 1.9-4.1-.9-4-3.5-8.1-4.5-16.9-3.9-5.4.3-6.5.1-6.5-1.2-.1-1.6-6.4-6.7-11.8-9.4-7.4-3.8-31.8-7.8-35.9-6m87.4 187.6c-.3.7-.5.2-.5-1.2s.2-1.9.5-1.3c.2.7.2 1.9 0 2.5"/></svg>