<svg xmlns="http://www.w3.org/2000/svg" width="682.667" height="512" version="1.0" viewBox="0 0 512 384"><path d="M0 192v192h96.5c87.7 0 96.5-.1 96.5-1.6 0-.9-.8-2.8-1.8-4.2-3.3-4.8-6.4-13.3-5.8-15.8.4-1.3 1.7-4 3.1-6s2.5-4.6 2.6-5.8c.4-13.5 1.1-17.4 6.4-33.8 3-9.5 6.3-19.8 7.2-22.8 1-3 3-8.4 4.5-12 2.4-5.8 2.5-6.6 1.1-8.2-1.3-1.5-1.3-2.5.7-10 1.2-4.9 2.3-13 2.7-19.8.5-10.6.4-11.3-1.1-9.4-1 1.4-3.5 2.5-7.6 3.3-5.6 1.1-6.3 1-9.4-.9-1.9-1.1-3.6-3-4-4.3-.3-1.2.8-8.2 2.5-15.5 1.7-7.4 2.9-13.5 2.7-13.7-.2-.1-4.8-2.4-10.3-4.9-10.6-5-10.1-5-13.1 0-1 1.7-1.3 1.7-4.3-.9-1.8-1.5-3.6-2.7-4-2.7s-1.5-1.4-2.5-3.1-2-2.8-2.4-2.5c-.3.3-1.1.1-1.9-.5-1.3-1.1-1.9-.8-7.9 3.6-1.9 1.4-4.4-.4-6.3-4.3-1.1-2.1-2.1-3-3.1-2.6-3.2 1.4-9.8 2.3-16 2.4-4.2 0-8 .7-10.8 2-5.6 2.5-7.8 1.7-7.3-2.7.1-.6-1-2.3-2.4-3.7-3.9-3.9-3.3-5 2.3-4.3 4.7.6 5 .4 8.9-3.7 4.2-4.5 15.1-10.4 21-11.3 1.8-.3 3.3-1 3.3-1.5 0-1.9 6.4-8.8 8.3-8.8 4 0 12.7 3.2 13.7 5.1 2.2 4.1 11 6.4 13.9 3.6 1.1-1 1.4-1 1.8 0 .3.7 1.3 1.3 2.3 1.3 1.9 0 3.7 1.8 5.5 5.4.7 1.4 3.9 3.2 9.5 5.3 7.8 2.9 8.6 3 10.3 1.6.9-.9 2.2-3.5 2.8-5.7 1.8-7.1 1.8-7.2 3.5-4.8.8 1.2 2 1.9 2.6 1.6.6-.4 1.7.1 2.3 1 1.2 1.6 1.8 1.5 9.3-1.1 8.9-3 9.5-3.9 10.8-14.3.5-4.7.4-5.3-.7-3.9-.8.9-2.2 1.9-3.3 2.3-1.4.5-1.7.3-1.1-1.1.6-1.5 3.5-21.7 3.5-24.6 0-.4-.4-.7-1-.7-.5 0-1 .9-1 2 0 1.7-.3 1.8-1.9.8-1-.6-1.7-1.7-1.5-2.3.8-1.9-1.5-6.7-2.8-5.9-.8.5-.9.2-.4-1.2.5-1 1.2-4.9 1.6-8.6.7-6.1 4-13.8 5.9-13.8.4 0 2.2-2.1 4-4.7 2.6-3.7 3.2-5.2 2.6-7.7-1.7-8.5-1.7-9.1.4-11 1.1-1 4-2.1 6.5-2.3 3.9-.5 4.6-.2 5.6 1.8 1.3 2.2 1.4 2.2 3.6-2.9 1.3-2.9 2.7-5.2 3.3-5.2.5 0 3 .9 5.6 2 3.3 1.4 4.9 2.8 5.6 5l1.1 3 3.2-2.5c1.8-1.4 3.8-2.5 4.5-2.5.6 0 2 2 3.1 4.5l1.9 4.5h5.5c4.7 0 5.9.4 8.2 2.7 3.5 3.7 5.4 8.4 5.4 13.2 0 4.9 2.7 9.7 6.3 11.2 3.1 1.3 3.3 2.1 1.2 3.9-1.1.9-1.3 1.6-.5 2.4 2.2 2.2.3 21.1-3.6 34.5-1.5 5.2-1.4 8.3.1 12.3.5 1.4.2 1.8-1.3 1.8s-1.9.5-1.5 2c.8 3.2-.5 2.3-2.6-1.7l-1.9-3.7-1.3 5.9c-1.1 4.9-1.4 5.5-1.9 3.5-.6-2.2-.9-1.7-2.5 3.2-1.8 5.6-4.2 7.1-3.2 1.9.4-1.7-.1-3.4-1.3-4.9-2.3-2.8-2.6-2.8-3.4.3-.4 1.5-1.1 2.3-1.7 1.9-.8-.5-.9.6-.4 3.7.4 2.4.8 9.1.8 14.9.1 11.1-.6 15.1-7 38-8.1 28.8-9 35.4-5 36.9 1.2.5 3.6 2.3 5.2 4.1 1.7 1.7 5.2 4.3 7.8 5.6 5.2 2.7 12.5 7.6 19.5 13.2l4.2 3.4v8.5c0 7.2-.4 9.3-2.7 14-1.5 3.1-4.7 7.6-7.1 10.1l-4.4 4.5 2.6 13.1c1.4 7.2 2.9 16.7 3.3 21.1.4 5.4 1.5 10.2 3.5 14.7 1.5 3.7 2.8 7.4 2.8 8.2 0 1.4 10.4 1.6 102 1.6h102V0H0z"/><path d="M240.3 153.5c-1.3 3-2.1 10.1-1.3 10.8.3.1 1.8.9 3.4 1.5 2.6 1.1 3.1 1 5.2-.9 2.3-2.1 2.5-5.3.5-6.9-.4-.3-1.2-1.8-2-3.5l-1.3-3-1.3 2.5-1.3 2.5-.4-3-.3-3zM251 160c0 1.1.7 2 1.5 2 1.7 0 1.8-.2.9-2.4-.9-2.3-2.4-2-2.4.4"/></svg>