<svg xmlns="http://www.w3.org/2000/svg" width="682.667" height="512" version="1.0" viewBox="0 0 512 384"><path d="M0 192v192h194.9l-1.1-3.3c-.6-1.7-1.4-3.7-1.9-4.2-1.5-2-4.9-12.1-4.9-14.6 0-1.5 1-3.9 2.2-5.4 1.7-2.2 2.3-4.7 2.9-13.4.7-8.6 1.8-13.6 5.7-26.1 2.8-8.5 5.9-18.9 7.1-23.1s3.2-10.3 4.5-13.5c2.2-5.3 2.3-6.1.9-7.6-1.3-1.5-1.3-2.6.6-10.7 2.4-10.2 4-33.1 2-29.4-1.2 2.3-2.6 2.8-10.5 3.8-4.5.6-5.3.4-8.2-2-1.8-1.5-3.2-3.6-3.2-4.8s1.6-8.5 3.5-16.1 3.5-14.5 3.5-15.3c0-.7-2.4-2.4-5.2-3.7-19.8-9.1-20.8-9.4-20.8-8.2 0 .8-.8 2.4-1.9 3.7l-1.8 2.3-3.4-2.8c-1.9-1.6-4.2-4-5.1-5.5-1-1.4-2.3-2.6-3-2.6s-1.9-.4-2.6-.8c-.8-.5-2.4.1-4.3 1.7-4.1 3.5-6.5 3.3-8.9-.7-1.1-1.7-2.1-3.6-2.3-4-.1-.5-1.6-.3-3.2.3-1.7.6-6.8 1.1-11.5 1.1-6.4 0-9.8.5-13.9 2.1-5.2 2.1-5.4 2.1-6.7.3-.7-1-1.1-2.2-.8-2.6.3-.5-1-2.1-2.7-3.7-4.1-3.6-3.2-5.1 2.5-4.5 4.3.5 4.7.4 9.3-4.4 5.4-5.6 8-7.2 17.2-10.2 4.8-1.6 7.2-3.1 9.8-6.1 2.1-2.5 4.3-4 5.6-4 4.3.1 12 2.7 13.3 4.5 3.5 4.7 12.2 7.3 15.1 4.4.8-.8 1.3-.8 1.7 0 .4.6 1.6 1.1 2.6 1.1 1.2 0 2.6 1.3 3.6 3.2.9 1.8 1.8 3.5 1.9 3.6.4.5 23.7 8.2 24.7 8.2.4 0 1-1.6 1.4-3.5.6-3.6 1.3-4.1 3-2.7.5.5 2.3 1.4 4.1 2.1 2.9 1.2 4 1 10.4-1.5 5.9-2.3 7.4-3.4 8.4-5.9 1.6-3.9 2.9-12.5 1.6-10.5-.6.8-1.3 1.1-1.7.7s-1.3-.2-2.1.4c-1.6 1.4-1.6.9-.3-2.6.5-1.4 1.4-6.3 2-10.8s1.3-9.6 1.5-11.2c.6-3 .6-3-1-.8-2.1 2.7-4.5 1.9-4.5-1.6 0-3.3-1.4-5.6-2.9-4.7-.6.4-1.1.3-1.1-.3 0-.5.4-1.2.9-1.5.4-.3 1.1-3.4 1.3-6.9.7-7.7 2.3-11 8.8-17.6 5.4-5.4 5.7-6.6 3.8-13.7-1.2-4.5-1.2-4.7 1.5-7 1.9-1.6 4-2.4 6.6-2.4 3.9 0 6.7 1.9 5.3 3.6-.4.4 0 .3.9-.4.9-.6 2.1-3 2.8-5.1.6-2.2 1.6-4.3 2.1-4.6 1.3-.8 12 4.2 12.1 5.7.1.7.1 2.1 0 3-.3 2.4.6 2.3 4.1-.7 4-3.4 6.5-3.3 7.3.5 1 4.6 3 6 8.5 6 4.4 0 5.1.3 7.9 3.9 4 5 5.3 8.6 4.5 12.7-.5 2.8-.1 4.1 2 6.9 1.5 1.9 3.4 3.5 4.2 3.5 1.9 0 2.9 2.7 1.5 4.3-.8 1-.7 2.2.1 4.5 1.5 3.8 0 15.5-3.4 27.8-2.3 8.2-2.7 13.2-1.3 17.3.7 2.1.6 2.3-1.5 1.6-1.9-.6-2.2-.4-1.7.9.4.9.2 1.6-.4 1.6-.5 0-1.2-.7-1.5-1.5-1.1-2.7-2.2-1.6-3.5 3.7-1.2 5-1.3 5.1-1.9 2.3s-.7-2.7-2.7 3c-1.6 4.5-2.2 5.3-2.2 3.3-.1-3.4-2.1-7.9-3.2-7.2-.5.3-.6-.2-.3-1 .3-.9.2-1.6-.4-1.6s-1.3 1.4-1.7 3c-.4 1.7-1.1 3-1.5 3-.5 0-.6 3-.2 6.7 1.5 15.4.3 24.9-6.3 47.3-4.2 14.3-8.5 31.8-8.5 34.7 0 1.6 1 2.7 3.3 3.7 1.7.7 4.6 2.9 6.4 4.7 1.7 1.9 5.8 4.9 9.1 6.8 3.3 1.8 9.1 5.7 12.9 8.5l6.8 5.3.3 9.7c.3 9 .1 10.1-2.5 14.9-1.5 2.8-4.5 6.9-6.7 9.2l-3.8 4 3.1 13.1c1.7 7.2 3.5 18 4 24 .5 6.1 1.7 13.6 2.7 16.7l1.9 5.7H512V0H0z"/><path d="M239.6 154.2c-2.2 6.3-1.6 8.1 3.1 9.3 1.9.4 3.2 0 4.9-1.6 1.4-1.3 2-2.5 1.5-2.8s-1.6-2.4-2.5-4.6c-1.6-3.7-1.8-3.9-2.9-2s-1.2 1.8-1.7-1-.6-2.7-2.4 2.7m11.9 3.8c-.3.5.1 1 .9 1 .9 0 1.6-.5 1.6-1 0-.6-.4-1-.9-1-.6 0-1.3.4-1.6 1"/></svg>