<svg xmlns="http://www.w3.org/2000/svg" width="682.667" height="512" version="1.0" viewBox="0 0 512 384"><path d="M0 192v192h99.5c64.3 0 99.5-.3 99.5-1 0-.5-.7-2.7-1.4-4.7-3-7.6-3.7-12.2-2.7-16 .5-2.1 1.4-9.4 2-16.3.7-9.3 1.8-15.4 4.5-24 1.9-6.3 4.2-15.4 5.1-20.1.9-4.8 2.5-11.8 3.5-15.5 2-6.8 2-6.8 0-8.9-1.8-1.9-1.9-2.7-1-7.6.5-3 1.4-13.3 2-22.9s1.5-19.5 2.1-21.9c.5-2.4.8-4.6.5-4.8-.7-.7-7.4 3.6-10.1 6.4-3.1 3.5-12.6 4.1-17.3 1.3-6.1-3.7-5.6-6.5 5-28.8 3.2-6.8 5.8-12.8 5.8-13.3s-1.1-1.1-2.5-1.5c-1.4-.3-2.5-.8-2.5-1.1 0-.8 5.5-5.2 6.6-5.3 1.1 0 4.2-3 3.1-3-.2 0-7.3-2.9-15.6-6.4l-15.1-6.4-1.5 3.4c-.8 1.9-1.8 3.4-2.2 3.4-1.2 0-8.5-7.8-10.7-11.3-1.5-2.4-2.2-2.8-4.4-2.1-1.5.4-4.3.8-6.2.9s-4.7.5-6.1.9q-2.55.75-3.6-.6c-1.6-2-2.1-5.4-1.1-7.2.7-1.2.5-1.6-1-1.6-1 0-5.1-.8-9-1.9-7.9-2.1-14.5-6.6-19.1-13.2-1.4-2.1-3.6-4.3-4.8-5-3.4-1.8-6.7-9.3-5.3-11.8.6-1.1.8-3.2.4-4.7-.6-2.4-.5-2.6 1.7-1.9 1.3.4 3 1.3 3.8 1.9s2.2 1 3.1.8c1-.2 3.5.7 5.6 1.9 5.6 3.2 12.3 6.4 19.1 9.2 5.9 2.4 5.9 2.4 8.4.5 3-2.5 11.8-2.1 14.9.7 1.1 1 2 1.4 2 1 0-1.4 4.2 2.9 5.1 5.3 1.2 3.1 5.1 4.4 10.1 3.3 2.4-.6 5-.6 6.4-.1 2.5 1 4.4 3.8 3.7 5.7-.2.7 5.1 2.9 13.9 5.8 7.9 2.6 16.3 5.8 18.8 7s7.7 2.8 11.5 3.4c3.9.6 8.2 1.4 9.6 1.7 2.4.5 2.7.1 3.3-3.1.9-4.8.2-5.4-3-2.4l-2.7 2.4 1.7-3.3c1-1.8 2.4-6.7 3.2-10.8.7-4.1 1.7-8.6 2-9.9.5-2 .3-2.4-.9-1.9-.9.3-1.3 1.2-1 2.1.4 1.1.2 1.4-.5.9-.7-.4-1.7-2.7-2.3-5.2-.7-2.6-1.7-4.4-2.6-4.4s-1.1-.5-.6-1.3c.4-.6.8-4 .8-7.3.2-8.2 4.9-16.5 11.8-20.9l4.8-3-.7-7.2c-.6-7.2-.6-7.3 2-8.3 4-1.5 7.7-1.2 9.8.6 1.7 1.6 1.9 1.5 3.3-1.9.8-2 1.5-4 1.5-4.5s.6-1.5 1.4-2.1c2.9-2.4 12.8 4.4 11.8 8.1-.4 1.8-.2 1.9 1.6.9 1.1-.6 2.4-1.6 2.7-2.1.3-.6 1.7-1 3.1-1 1.9 0 2.6.6 3.1 3.1.6 3.4 3.3 4.9 8.7 4.9 5.6 0 11 7.7 10.8 15.4-.1 5.9 2.5 10.9 6.9 13.1 3.2 1.7 3.6 2.7 1.5 4.4-1.2 1-1.2 1.6 0 3.9 2.5 4.9 1.4 13-4.1 29.7-2.2 6.4-2.6 9.3-2.2 14.3.4 5.4.3 6.3-1.2 6-.9-.1-2.2.1-2.8.5-.8.5-1.3.4-1.3-.2s-.5-1.1-1.1-1.1-.9.6-.7 1.2c.3.7-.3 3.1-1.3 5.3-1.5 3.4-1.8 3.6-1.8 1.5 0-1.4.4-4.3.9-6.5 1.5-6.4.5-5.1-2.5 3.2-3.2 8.8-4.5 10.9-4.5 7.1 0-3.6-2.1-8.8-2.7-6.8-.3.8-.7 2.1-.9 2.9-.3.9-.8 1-1.7.3-.9-.8-1.3 1.6-1.5 11.1-.2 14.2-2.1 22.7-8.9 40.9-2.5 6.8-5.6 15.7-6.8 19.9-2.2 7.6-2.2 7.7-.3 11.3 2.2 4.4 9.6 11.7 14.7 14.7 6.6 3.9 19 13.1 19.5 14.6 1.2 2.9 3.6 15.8 3.6 18.8 0 4.2-5.2 14.8-8.5 17.1l-2.7 2 5.7 21.5c3.1 11.8 6.6 25.1 7.7 29.6l2 8.3H512V0H0z"/><path d="M241.8 156c-.9 1.7-1.3 3-.9 3 1.4 0 3.3-2.8 2.9-4.4-.2-1.1-.8-.7-2 1.4m3.7.1c-.7 1 1 2.8 2.8 2.9 1.2 0 .8-1.7-.7-2.9-1.1-.9-1.6-.9-2.1 0"/></svg>