<svg xmlns="http://www.w3.org/2000/svg" width="682.667" height="512" version="1.0" viewBox="0 0 512 384"><path d="M0 192v192h105.5c58 0 105.5-.4 105.5-.8 0-.5-.8-2.4-1.7-4.3-2.6-4.9-3-30.4-.9-47.8.9-7.2 1.6-15.2 1.6-17.8s.7-9.3 1.5-14.7c1.5-9.8 1.5-10-.6-12.2-1.9-2.1-2.2-3.7-2.7-19.2-.5-18.4.8-33.2 3.7-41.7 1.6-4.6 1.6-5.1.1-6.7s-2-1.6-8.5.8c-15.1 5.5-23.3 5-27.4-1.7-2.5-4.1-2.2-4.9 8.9-23.4l8.9-15-2.6-2.3c-1.4-1.3-2.4-2.4-2.2-2.5.2-.2 3.1-1.6 6.3-3.1 4.9-2.3 5.7-3.1 4.5-4-.8-.6-6.3-5-12.1-9.9-5.8-4.8-11-8.7-11.5-8.7-.6 0-1.8.9-2.8 2l-1.8 2-2.5-2.2c-3.2-3-4.5-5.6-4.8-9.4-.3-4.2-4.3-9.7-6.4-8.8-.8.4-3 .9-4.7 1.2-2.8.3-3.3.1-3.3-1.6 0-1.1-.7-2.2-1.5-2.6-1.7-.6-2-4.3-.5-6.6.7-1.2-.8-3.1-6.7-8.6l-7.6-7.1.6-5.9c.4-3.3.8-9.7 1-14.4.4-9.5 1.3-11.9 5.6-14.9 2.9-2.1 3-2.1 3.6-.1.3 1.1 1.5 2 2.5 2 3.5 0 5.2 1.1 3.9 2.6-.6.8-1.7 1.4-2.4 1.4-.6 0-2 .9-3 2-1.8 1.9-1.7 2 .7 2 1.4 0 3.6 1.3 5.4 3.1l2.9 3-4.2-.2c-2.4-.2-4.8.3-5.8 1.1-1.6 1.3-1.6 1.5.2 2.7 1 .8 2.5 2.8 3.3 4.6 1.2 2.6 2.7 3.6 7.9 5.4 3.5 1.2 7.3 3.1 8.5 4.2 1.7 1.6 2.5 1.8 3.4.9 1.4-1.4 3.2 2.8 3.2 7.7 0 2.9.5 3.5 3.9 4.8 2.1.9 6 1.8 8.7 2.1 6.1.8 8.4 2.7 6.5 5.8-.7 1.2-.9 2.3-.4 2.7 17.6 11.7 26.5 18 29.3 20.6 3.5 3.2 14.1 7.5 18.6 7.5 2.6 0 3.1-1.1 4.4-10.5.5-3.9 1.2-8.1 1.5-9.5l.7-2.5-2.1 2.4c-2.5 2.8-3.3 2.3-3.8-2.1-.2-1.8-1.1-3.8-2-4.5-1.3-1-1.4-1.5-.3-2.8 1-1.2 1-2.1.1-4.4-2.7-6.3 3.4-17.8 12.3-23.5 5.9-3.8 6.2-4.5 4.5-9.5-.9-2.5-.8-3.6.5-5.6s2.5-2.5 6-2.5c2.7 0 4.8.6 5.6 1.5 1.9 2.3 2.6 1.9 6-4 1.7-3 3.5-5.7 3.9-5.9.5-.3 2.7 1.1 5 3.1 3.4 2.9 4.1 4 3.7 5.9-.7 2.8.3 3 4.5.8 3.8-1.9 5.9-1.2 5.9 2s.8 3.6 7.6 4.3c4.4.5 5.9 1.1 7.9 3.5 3 3.5 4.2 9.2 2.7 13-.9 2.5-.5 3.9 3.4 11.6 6.5 12.5 6.5 15.1 1 31.8-4.7 13.8-5.4 19.1-3.6 24 1.2 3.2.8 3.9-1.6 2.6-2.2-1.2-4 .4-5 4.2-1 4.1-1.8 2.2-1.6-3.7.3-8.4-1.6-3.9-4.5 10.6-.8 4.3-2.1 4.1-2.8-.5-1.2-8.2-1.7-9.8-2.6-9.2-.5.3-.7 2.2-.3 4.2.6 3.3.6 3.6-.9 2.4-1.4-1.2-1.7-1-2.2 1.5-.4 1.5-1 3.7-1.5 4.8-.7 1.7-.9 1.7-.9.2-.1-.9-.5-1.7-1.1-1.7-1.2 0-1.1-.5-1.5 9-.3 9.6-2.9 17.5-12.2 37.9-4.1 9-7.7 17.8-8 19.6-.6 3.5.2 4.4 22.2 26.5 5.2 5.2 8 8.9 9 11.9.9 2.5 2.7 5.9 4 7.7 4 5.2 4.5 7.6 3.1 13.5-.7 3-1.8 6.4-2.4 7.6-1 1.8-.5 4.4 3.2 16 5.2 16.1 8 26.4 9.6 34.8.6 3.3 1.4 6.8 1.6 7.7.5 1.7 6 1.8 98 1.8H512V0H0z"/><path d="M240.1 132.6c0 1.1.3 1.4.6.6.3-.7.2-1.6-.1-1.9-.3-.4-.6.2-.5 1.3M270.5 288c1 1.1 2 2 2.2 2s-.1-.9-.7-2-1.6-2-2.2-2-.3.9.7 2m8.5 10.2c0 .9.5 2 1 2.3 1.3.8 1.3-.5 0-2.5-.8-1.3-1-1.3-1 .2m4.5 5c-.4.9 1.1 7.2 3.3 14 2.3 6.8 5.2 17.9 6.6 24.8 3.2 15.5 4.8 20.9 4.1 13.5-.6-5.4-11.2-50-12.6-52.5-.7-1.3-.9-1.3-1.4.2"/></svg>