<svg xmlns="http://www.w3.org/2000/svg" width="682.667" height="512" version="1.0" viewBox="0 0 512 384"><path d="M0 192v192h107.1c101.6 0 107.1-.1 106.4-1.7-4.6-10.8-5-18.1-3.7-61.3l1.1-32.5-2.6-2.7-2.6-2.7 1.2-23.8c1-22.1 2.3-32.6 5.1-39.7.6-1.6.9-3 .7-3.2s-4.3 1.2-9.3 3.2c-4.9 1.9-11.3 3.8-14.1 4.1-5.1.6-5.4.5-9.4-3.6-3.4-3.4-4-4.5-3.5-6.8.3-1.6 4.2-9.9 8.6-18.6 6.9-13.7 7.8-16 6.7-17.7-.6-1.1-2-2-2.9-2-3.1 0-2-1.4 2.5-3.3 2.4-1 5.9-3.3 7.7-5.2l3.3-3.4-3.4-2.8c-1.8-1.5-7.2-6.2-11.9-10.3-12.6-11.1-11.7-10.6-13.8-8-1.9 2.3-1.9 2.3-4.5.4-2.7-1.9-4.7-6.1-4.7-9.7 0-5-6.9-11.7-12-11.7-1.1 0-3-.9-4.1-1.9-1.7-1.6-1.9-2.3-1-4 .6-1.1 1.9-2.4 2.8-2.9 1.5-.9 1.3-1.4-1.4-4.8-4.8-6.2-8.3-12.9-8.3-15.9 0-1.6 1.2-4.2 3.1-6.4 1.7-2 4.5-5.9 6.3-8.6l3.1-5 6.2-.3c6-.3 6.2-.2 7.8 2.7.9 1.9 1.3 4.2.9 5.8-1.3 6.1-1.5 6.5-2.9 5.3-.9-.8-1.4-.6-1.9.6-.9 2.5-.8 2.9 2.3 6.8 1.6 2 3.3 5 3.6 6.7.6 2.4 1 2.9 2.7 2.3 1.9-.6 2-.3 1.5 2.2-.3 1.6-.9 3.7-1.2 4.7-.9 2.2 4 4.4 12 5.3 6.2.8 7.7 2.3 5.5 5.7-1.4 2.4-3 .9 15.5 14.2 7.2 5.1 14.1 10.4 15.3 11.8 3.2 3.4 18.2 9.4 19.2 7.7.4-.7 1.1-4 1.5-7.4.3-3.3.9-7.5 1.2-9.1.5-2.5.3-2.8-.8-1.8-1.4 1.4-4 1.7-3.8.5.4-2.2-.3-5.2-1.3-6.4-.7-.7-1.4-4.4-1.5-8.1-.3-5.6.1-7.7 2.3-12 3.4-6.8 5.9-9.4 11.6-12.3 5.1-2.6 5.4-3.3 3.7-8.3-.9-2.5-.8-3.6.5-5.6s2.5-2.5 6.1-2.5c2.4 0 4.7.4 5 1 1.3 2.1 2.7.8 5.1-4.5 1.4-3 3-5.5 3.5-5.5 1.7 0 6.3 2.7 8.2 4.8 1.2 1.3 1.6 2.8 1.2 4.1-.8 2.6-.4 2.6 4 .1 4.7-2.7 5.2-2.6 5.9 1.4.7 3.5 2.9 4.6 9.6 4.6 4.9 0 9.3 7.5 9.1 15.6-.1 5.6 3.4 13.6 6.5 14.8.9.3 1.4 1.2 1.1 1.9-.2.7.1 4 .8 7.4 1.5 7.4.9 11.3-4 24.8-3 8.3-3.6 11-3.2 15.5.2 3 .8 6.3 1.2 7.4.7 1.6.6 1.7-1.3.7-2.9-1.5-4.5-1.4-3.8.4.3.9 0 1.5-.9 1.5s-1.5 1-1.6 2.2c0 1.3-.5 3.2-1 4.3-.6 1.3-.7-.5-.3-5.5.3-4.1.3-7.2-.1-6.8-.7.7-3.1 9.4-4.2 15.1-.3 1.5-1 3-1.6 3.4s-.8-.4-.5-2.1c.3-1.4.1-2.6-.3-2.6-.5 0-.9-1.5-1-3.3 0-1.7-.4-4.1-.9-5.2-.7-1.6-.9-1.2-.9 1.8-.1 2.1.4 4.7 1 5.8.9 1.8.9 1.9-.9 1-1.1-.6-2.2-1.6-2.5-2.3-.2-.7-.8 0-1.1 1.7-.4 1.6-1.1 3.9-1.6 5-.7 1.7-.9 1.7-.9.2-.1-2-1.2-2.2-2.8-.6-.8.8-.9 1.9-.2 3.7 2.1 5.6-2.2 20.8-11.8 41.6-9.8 21.3-9.7 20.9-6.8 25.7 1.4 2.1 3 3.9 3.5 3.9.6 0 2.9 1.7 5.3 3.8 2.3 2.1 6.4 5.4 9.2 7.2 8.8 6 12.3 9.8 14.1 15.3.9 2.9 2.8 6.8 4.1 8.7 3.1 4.6 3 10.6-.2 17.9l-2.6 5.7 3.7 9.9c2 5.5 7 19.4 10.9 31l7.3 21 95.1.3 95.1.2V0H0z"/><path d="M238 129.6c0 .8.5 1.2 1 .9.6-.4.8-1.1.5-1.6-.9-1.4-1.5-1.1-1.5.7m-21.3 43.1c-.4.3-.7 1.7-.7 3.1 0 2 .4 2.3 2.3 1.8 1.2-.3 3.2-.6 4.5-.6 3.1 0 2.8-1.7-.8-3.5-3.2-1.7-4.3-1.8-5.3-.8M266 280.6c0 .6 1.4 2.3 3 3.9 1.7 1.6 3 2.4 3 1.9 0-.6-1.3-2.3-3-3.9-1.6-1.6-3-2.4-3-1.9m17.5 23.4c1.2 4.1 2.7 6 2 2.5-.4-1.7-1.1-3.5-1.7-4q-1.05-1.05-.3 1.5m10.5 33.6c0 1.8 4.9 21 6.4 24.9 2.4 6.7 1.8 2.7-2-11.5-3.2-12.3-4.4-15.9-4.4-13.4"/></svg>