<svg xmlns="http://www.w3.org/2000/svg" width="682.667" height="512" version="1.0" viewBox="0 0 512 384"><path d="M0 192v192h215.9l-1.9-4.3c-3.4-7.6-4-16.1-4-54.7l.1-37.4-2.2-1.7c-2.2-1.6-2.2-1.8-1.6-22.5.6-22.5 1.8-33.4 4.6-42.4l1.8-5.7-4.8 2.3c-6.7 3.3-16.3 6.4-19.6 6.4-3.4 0-8.8-3.1-10.3-6.1-1.8-3.3-.6-6.9 7.5-23.7 6.4-13.1 7.3-15.6 6.2-17.3-.6-1-2-1.9-2.9-1.9-3.1 0-1.9-1.4 3.4-4 2.8-1.4 6-3.8 7.2-5.3l2.1-2.9-4-3.6c-2.2-1.9-8-7.3-13-11.9-4.9-4.6-9.3-8.3-9.7-8.3-.5 0-1.8 1-2.9 2.1-2 2-2.3 2-3.1.5-.5-.9-1.5-1.6-2.2-1.6-1.4 0-4-7.5-3.1-9 1.8-2.9-6.5-11.8-11.7-12.6-5.1-.9-6.4-2.6-4.3-5.7.9-1.4 2.3-2.8 3.1-3.1 1.3-.5 1.3-1-.4-3.3-3.2-4.5-8.2-15.1-8.2-17.2 0-1.2 3.2-5.3 7.2-9.6 8.1-8.4 10-9 16.8-5.5 3.4 1.7 4 2.5 4 5.3 0 1.8-1.1 4.9-2.5 7-2.4 3.5-2.5 3.9-1 6 .8 1.2 2 3.8 2.5 5.9.8 2.9 1.4 3.5 3 3.1 2.4-.6 2.7 1.4.5 4.3-.8 1-1.5 2.2-1.5 2.6 0 .9 5.6 3.9 6.7 3.6.4-.1 3.4.4 6.6 1.1 6 1.3 7.3 3.2 4 5.7-1 .7-1.6 1.4-1.3 1.7.3.2 6.8 5 14.5 10.7s15.2 11.6 16.7 13.3c3.2 3.6 18.4 10 19.6 8.3.9-1.5 4.1-19 3.5-19.6-.3-.3-1.1.3-1.8 1.3-1.5 2.1-2 1.6-2.9-3.6-.4-2-1-3.7-1.4-3.7s-.8-3.4-.9-7.6c-.2-6 .2-8.4 1.8-11.7 2.9-5.8 6.5-9.4 12.3-12.4 4.2-2.1 4.7-2.7 4.2-4.9-.3-1.3-.9-3.5-1.2-4.9-1-3.9 1.9-6.5 7.2-6.5 2.4 0 4.6.5 4.9 1 1.1 1.7 3-.5 5-5.5 1.8-4.9 2.3-5.2 6.3-3.1 4.3 2.2 6.5 5.1 5.7 7.7l-.7 2.1 4-2.2c4.8-2.7 6.9-2.2 7.4 1.7.3 2.6.6 2.8 5.8 3.1 6.5.4 7.4 1 10.7 7.6 2 4 2.4 5.8 1.9 9.5-.5 3.9-.2 5.2 2 8.6 1.5 2.2 3.3 4.6 4.2 5.2.8.7 1.6 2.5 1.8 4 .1 1.6.6 5.8.9 9.4.8 7-.5 12.6-6.1 26.1-2.7 6.6-3 11.4-1 16.3 1.3 3 1.3 3.5.1 3.5-.8 0-1.7-.5-2-1-.3-.6-1.3-1-2.2-1s-1.4.3-1 .6c.3.4 0 1.3-.8 2.1S304 177 304 178s-.5 2.2-1 2.5c-.7.4-.9-1.4-.5-5.2l.5-5.8-1.6 5c-.8 2.7-1.9 5.9-2.4 7-.4 1.1-1.2 2.9-1.6 4-.7 1.9-.8 1.9-1.1-.3-.3-1.3-1.2-2.2-2.3-2.2-1 0-2-.5-2.2-1.2-.6-1.8-2.8.1-2.8 2.5 0 1.2-.4 2.8-.9 3.5-.7 1.1-.9 1-1.5-.3-1.3-3.5-2.6-.3-2 5 1.1 9.1-2 19.2-13.6 44-2.3 4.9-5 11.2-6.1 13.9-1.8 4.9-1.8 5 .1 8.2 1.1 1.7 3.1 3.5 4.4 3.8 1.4.3 3.7 1.6 5.3 2.9 1.5 1.3 5.7 3.8 9.3 5.5 9.6 4.7 13.2 8.1 14.9 13.8.8 2.7 2.7 7.2 4.3 10 1.5 2.8 2.8 6.4 2.8 8 0 3.7-2.5 12.1-4.6 15.2-1.5 2.3-1.1 3.9 9.2 34.3l10.8 31.9H512V0H0z"/><path d="M238.1 128.6c0 1.1.3 1.4.6.6.3-.7.2-1.6-.1-1.9-.3-.4-.6.2-.5 1.3m-22.7 44.9c-1.3 3.3.2 4.3 4.5 3.2 4.9-1.3 5.1-2.1 1-3.6-4.2-1.4-4.9-1.4-5.5.4m77.6 2.7c0 1.5.5 3 1 3.3 1.3.8 1.3-2.5 0-4.5-.8-1.2-1-.9-1 1.2m-26 105.3c2.2 2.4 3 2.9 3 2.2 0-.8-3.8-4.7-4.5-4.7-.5 0 .2 1.1 1.5 2.5"/></svg>