<svg xmlns="http://www.w3.org/2000/svg" width="682.667" height="512" version="1.0" viewBox="0 0 512 384"><path d="M202.4 14.8c-3.9 3.7-4.8 6-6 14.7-.1 1.1-.6 4.2-1 7-1 6.4-1.1 24.5-.3 25.1.4.2.5 1.2.3 2.2-.3.9.1 2.6.9 3.6 1.3 1.7 2 1.8 8.8.8 4-.6 7.5-.9 7.7-.7s-1.6 2.5-4.1 5.2c-13.5 14.6-15.4 21.8-6.1 23 2.2.2 4.7.5 5.7.7 1.6.2 1.8 2.1 2.1 20.7.3 11.2.8 21.9 1.2 23.8.7 3.3.8 3.4 1.6 1.1l.9-2.4 1.8 2.9c2.3 3.8 1.9 4.6-2.7 6.7-5 2.3-11.9 8.3-13.8 11.9-.8 1.7-2.6 8.5-3.9 15.2-2.9 15.2-4.8 20.2-7.2 19.2-2.8-1.2-7.1-1.8-8.7-1.2-1.2.5-1.2 1.4.5 5.7 1 2.7 1.9 6.7 1.9 8.6 0 5.1-12.5 37.2-22.7 58.4-4.7 9.6-8.9 18.8-9.4 20.5-.6 2.1-.3 7.5 1 17.5 1.1 8 2.5 22.2 3 31.5 1 16.4 2.9 27.2 5.3 30.4.7.9 2.2 2.7 3.5 4.1 2.2 2.5 2.2 2.7.8 7.4-.8 2.7-1.4 5.1-1.2 5.3s35.6.2 78.5.1l78.2-.3-9.9-20.6c-13.6-28.3-14.5-30.5-19.2-49.6-2.3-9.2-5.6-20-7.4-23.9-2.1-4.6-2.9-7.7-2.5-9 .4-1 .3-6.9-.3-12.9-1.5-17.3-1.3-29.2.6-35.8.9-3.1 2.4-8.2 3.3-11.3 1.3-4.6 1.8-5.3 3-4.3 1.2.9 1.3 3.7.8 14.8-1 21.6 2 55.7 6.6 75.6 4.4 18.7 10.1 32.2 24.2 57 11.9 20.9 16.4 24.4 22.2 17.5 4.4-5.3 4.6-13.6.5-30.5-2.4-10-2.4-10 .4-11.2 2-.9 2.5-2.3 3.7-9.8 1.5-9.7.9-12.6-3.9-19.8l-2.5-3.9 2.7-4.9c2.4-4.2 2.6-5.2 1.6-7.1-1.7-3.1-2.7-9.5-3.4-20.8-.2-5.2-.7-13.3-.9-18-.6-10-1.4-17.2-2.6-22-.5-1.9-1.1-5.1-1.4-7-.7-6.1-2.7-14-3.7-14.6-.5-.3-.7-.9-.5-1.3.5-.7-1.5-6.6-5.7-17.6-.7-1.7-2-4.3-3-5.8-.9-1.4-1.7-3.3-1.7-4 0-.8-.7-2-1.5-2.7-.8-.6-1.7-2.1-2.1-3.3s-1.5-3.3-2.4-4.7c-4.3-6.2-11.8-18.8-12.9-21.8-.9-2.1-1-3.6-.4-4.5 1.2-1.4-.6-26.7-1.9-26.7-1.6 0-.8-10.1 1.2-14 2.5-4.9 4.2-6.1 3-2.1-.5 1.7-1.2 3.6-1.6 4.2-.4.8-.3.9.5.5 3.4-2.1 5.9-10.9 6.1-21.9 0-.9.6-1.7 1.3-1.7 1.7 0 6.7-5.2 6.7-6.9 0-.7 1.1-2.6 2.5-4.3 1.4-1.6 2.5-3.8 2.5-4.8s.4-2.1 1-2.5c.5-.3 2.3-3.6 4.1-7.3 7.5-15.7 7.2-14.6 4.7-19.8-1.8-3.9-19.7-8.5-33.1-8.5-11.6 0-16.8 1.3-20.2 4.8l-2.4 2.7-2.8-2.6c-3.4-3.3-11.7-5.3-17.8-4.4-3.6.6-4.3.4-4.7-1.2-1.6-6-22.1-15.4-38.8-17.7-4.3-.6-4.8-.5-8.6 3.3M216 137.4c-1.6 1.6-1.8.4-1.2-6.9l.6-7 .8 6.5c.4 3.8.3 6.9-.2 7.4m57.5.2c1.8 4.4 1.9 5.7.3 5.2-1.1-.4-3.1-8.8-2.1-8.8.1 0 1 1.6 1.8 3.6m47.2 99.6c-.3.8-.6.5-.6-.6-.1-1.1.2-1.7.5-1.3.3.3.4 1.2.1 1.9m1.3 3.9c0 .6-.4.7-1 .4-.5-.3-1-1.1-1-1.6 0-.6.5-.7 1-.4.6.3 1 1.1 1 1.6"/></svg>