<svg xmlns="http://www.w3.org/2000/svg" width="682.667" height="512" version="1.0" viewBox="0 0 512 384"><path d="M0 192v192h106.6c101.1 0 106.6-.1 105.9-1.8-2.8-6.8-3-10.3-3-51 0-39.4-.1-42.3-1.7-42.8-1-.3-1.8-1.1-1.9-1.7 0-.7 0-9.8.1-20.2.1-20.1 1.2-33.6 3.4-42.3.8-2.8 1.2-5.2 1-5.2s-4.3 1.9-9 4.2c-11.3 5.5-15.9 5.7-20.8.9-5.3-5.1-4.9-7.2 4.7-26.2 4.6-9 8.1-17.2 7.9-18.1s-1.5-1.8-2.9-2c-3.4-.4-4.3-2.8-1.1-2.8 1.3 0 3.3-.8 4.6-1.8l2.3-1.8-6.7-7.4c-3.7-4.1-8.7-9.5-11.1-12-4.2-4.3-4.4-4.4-5.8-2.6-1.4 1.9-1.6 1.9-3.4.2-1.1-1-2.5-1.5-3-1.1-.6.3-1.1.5-1.1.3-.1-.2-.5-4.8-1-10.2-.7-8.5-1.2-10.2-3.3-12.3-2-2.1-2.8-2.3-4.5-1.4-2.5 1.3-6.9 1.4-7.6.2-1-1.5.4-3.9 2.5-4.4 1.1-.3 1.9-1.1 1.8-1.9-.1-.7.1-2.5.5-4 .5-1.8.1-4.1-1.4-7.5-1.2-2.6-2.4-7.9-2.7-11.6l-.6-6.8 5.3-5c6.9-6.4 9.4-6.5 15.5-.4 2.5 2.4 4.5 5.3 4.5 6.3s-1.4 3.3-3.2 5.1l-3.2 3.3-1.7-2.1c-1.9-2.3-2.9-2.7-2.9-1.1 0 .6 1.1 2 2.5 3.1 1.3 1.2 2.7 3.5 3 5 .8 3.6 3.4 5.1 7.4 4.3 4.1-.8 4.1 1.1 0 6.2l-3.1 3.9 3.4.8c11.5 2.9 15 4.3 16 6.1.8 1.5.7 2.2-.6 3.2-2.3 1.7-1.1 3.4 7.2 10.4 3.6 3 8.4 7.2 10.6 9.2 2.3 2.1 4.7 3.8 5.3 3.8.7 0 1.3.6 1.3 1.4 0 2.2 3.3 5.6 6 6.1 1.4.3 5.6 1 9.5 1.5 7.5.9 8.5.5 8.5-3.9v-2.5l-3 2.9c-3.5 3.3-3.6 3.1-1.4-2.1.9-2.2 2-6.6 2.4-9.9s1.1-7.4 1.5-9c.8-2.9.8-3-1.2-1.2-2 1.7-2 1.7-3.3-2.8-.7-2.5-1.9-4.5-2.6-4.5-1.1 0-1.2-.4-.2-1.9.9-1.5.9-2.5 0-4.6-1.9-4-1.4-7.5 1.7-14.1 2.3-4.9 4.1-7 8.6-10.2 3.1-2.3 6.2-4.3 6.8-4.5.7-.2.7-1.7-.2-5-.8-3.5-.9-5.3 0-6.8 1-1.9 1.8-2.1 7.6-1.7l6.6.4 2.3-5.3c1.7-3.8 2.9-5.3 4.3-5.3 2.7 0 9.5 6.6 8.7 8.5-.7 1.9 1.1 1.9 4.4 0 3.8-2.2 4.9-1.8 5.8 1.7.8 3.2 1 3.3 6.8 3.8 3.2.3 6.5.9 7.2 1.3 2.7 1.8 5.2 8.6 5.2 14.2 0 3.9.6 6.5 2 8.5 1.1 1.7 2.9 4.3 3.9 5.9 1.1 1.6 2.7 5.4 3.6 8.6 2.2 7.4 1.5 13-3.2 26-4.3 12.1-5 16.9-2.9 21.8 1.4 3.5 1.4 3.7-.4 3.7-1 0-2.2-.5-2.5-1-1-1.7-2.5-1.1-1.8.7.4 1 .2 1.4-.4 1s-1.5 1.1-2.2 3.8c-1.6 6.4-2.5 5.6-1.8-1.8l.6-6.2-1.6 5.5c-.9 3-2 5.6-2.4 5.8-.5.2-1.1 1.9-1.5 3.8-.3 1.8-1 3.1-1.5 2.8s-.7-2.2-.3-4.2c.6-3.5.5-3.6-1-1.7s-1.7 1.9-2.7.2c-1.6-2.7-2.7-2-3.4 2.3-.4 2.2-1.1 4.2-1.6 4.6-.5.3-.9 3.1-.9 6.2 0 8-3.7 20.3-11.3 37.2-8.3 18.7-10.9 26-10.5 29.6.3 2.5.8 3 4 3.5 2 .3 4.8 1.3 6.2 2.2s5.4 2.8 8.9 4.1c11.5 4.3 14.2 6.6 16.7 14.1 1.2 3.6 3.3 8.6 4.7 11.1 2.3 4.1 2.5 5.4 2 11.4-.5 6.3-2.2 11.5-4.8 15.1-.9 1.2 0 5.3 4.4 19.5 3.1 9.8 7.2 23.3 9.1 29.9l3.4 12 96.6.3 96.6.2V0H0z"/><path d="M236 129c0 .5.5 1 1 1 .6 0 1-.5 1-1 0-.6-.4-1-1-1-.5 0-1 .4-1 1m8.6 30.9c-.4.7-.5 1.5-.2 1.8.9.9 1.9-.4 1.4-1.8-.4-1.1-.6-1.1-1.2 0m3.4 2.1c0 .5.7 1 1.6 1 .8 0 1.2-.5.9-1-.3-.6-1-1-1.6-1-.5 0-.9.4-.9 1m45.2 13c0 1.4.2 1.9.5 1.2.2-.6.2-1.8 0-2.5-.3-.6-.5-.1-.5 1.3"/></svg>