<svg xmlns="http://www.w3.org/2000/svg" width="682.667" height="512" version="1.0" viewBox="0 0 512 384"><path d="M0 192v192h203l-.6-12.3c-.5-9.2-.1-16.3 1.4-28.7 1.1-9.1 2.3-21 2.6-26.6.3-5.5 1-12.5 1.6-15.5s.7-5.5.2-5.7c-.5-.1-1.7-.8-2.6-1.5-1.6-1.2-1.6-3.4-.7-30.7.6-16.2 1.5-31.2 2-33.3l.9-3.7-3.7 2.1c-2 1.2-4.9 3.5-6.6 5-1.6 1.5-5 3.2-7.3 3.9-4 1-4.7.9-7.6-1.1-3.7-2.5-7.6-7.7-7.6-10.1 0-.9 4.5-9.1 10.1-18.3l10-16.6-3.3-3.8c-1.8-2.1-4.9-6.2-6.8-9-2.5-3.5-4-4.9-5.2-4.5-.9.3-2.6-.1-3.7-.8-1.7-1-2.3-.9-4 .6-1.9 1.7-2.1 1.7-2.7.2-.3-.9-.3-2.3 0-3.2.4-.9.1-2.3-.5-3-.8-1-.9-3.3-.5-7.2.9-7.1.8-12.4-.3-13.5-.5-.5-2.8.1-5.2 1.2-3.6 1.8-4.8 2-7.1 1-2.4-1-2.7-1.6-2.5-5.1.2-3.4.6-4 3-4.5 1.5-.3 2.7-.7 2.7-1 0-.2-1.6-3.7-3.5-7.7-3-6.3-3.5-8.5-3.5-14.3.1-8.5 2.3-11.5 11.9-15.8 7.2-3.2 10.3-1.9 14.2 5.7 3.3 6.4 3.3 6.2-1.8 11.9-3.2 3.5-2 7.3 2.3 7.4 2 0 3.2.7 3.9 2.2.5 1.3 1.8 2.3 2.7 2.3 2.5 0 2.3.7-1.7 5.1-1.9 2.2-3.5 4.3-3.5 4.8 0 1.2 2.9 2.3 4.1 1.5 1.4-.9 11 2.8 13.6 5.2 1.8 1.6 2.1 2.9 1.9 6.5-.2 4.2 0 4.6 5.5 9.7l5.8 5.4 3.2-5.6c3.1-5.5 3.2-5.6 5.1-3.9 1.3 1.2 1.8 2.7 1.5 4.6-.3 2.2.1 2.9 2 3.3 2.4.6 11.2-.2 12.1-1.1.2-.2.7-2.6 1-5.2l.5-4.8-2.7 2.4c-3 2.8-3.1 2.7-1.2-2.5.7-2.2 1.6-7.6 2-12.1.6-7.7.5-8.1-1.3-7.6-1.6.4-2.2-.3-3.2-3.6-.7-2.3-1.8-4.1-2.5-4.1-.8 0-1.1-.6-.8-1.5.3-.8-.1-2.9-1-4.6-2-3.9-2-7-.2-13 2.4-7.7 4.1-10.2 10.5-14.9 6.6-4.9 6.5-4.3 4.5-13.8-1-5 .8-6.4 7.9-6.1 5.9.3 6.1.2 7.8-3.1 1-1.8 2.3-4.6 2.8-6.2.9-2.6 1.2-2.8 3.3-1.7 4.8 2.4 8.8 6.1 8.8 8 0 2.3 1.1 2.4 4.9.5 3.3-1.7 4.9-.9 6 3 .7 2.8.9 2.9 6.5 2.5 3.6-.2 6.8.2 8.3 1 3.2 1.7 6.3 7.8 6.3 12.4 0 2.6 1.3 5.3 5.2 10.7 9.9 14 11.2 20 7.4 35.3-1.3 5.5-3.2 12.6-4.2 15.7-1.7 5.6-1.7 5.8.5 10.9 1.1 2.9 1.9 5.4 1.7 5.6-.2.3-1.8-.2-3.4-1.1l-3-1.5-1.2 4.7c-2.5 9.5-2.8 10.2-3 5.2-.2-4.2-.3-4.3-1-1.5-.5 2-.8 2.4-.9 1-.2-3-1.8 0-2.6 4.7-.8 4.3-2.5 5.2-2.5 1.3 0-1.4-.5-2.5-1.1-2.5-.7 0-1.8-.8-2.5-1.8-2.4-3.1-3.4.5-2.8 9.8.6 7.8.3 9.5-3.1 20.9-2 6.9-4.3 14.1-5.2 16-8.7 20.3-14.3 36.5-14.3 41.4 0 2.2 1.1 3.1 8.4 6.6 4.6 2.3 8.9 4.1 9.6 4.1 2.1 0 13.5 5.8 15.3 7.8 1 1.1 2.7 5.2 3.8 9.2 1.1 3.9 2.9 9 4 11.3 3.1 6 2.4 15.3-1.9 23.9l-3.2 6.6 6.5 22.7c3.6 12.5 6.5 23.6 6.5 24.6 0 1.8 2.8 1.9 98 1.9h98V0H0z"/><path d="M240.6 162.5c-1.7 2.6-1.4 4.5.7 4.5.7 0 2.8.8 4.7 1.9 3.9 2 8 1.1 8-1.8 0-1.3-.2-1.3-.9-.2s-1 .9-1.6-.8c-1-3.1-4.5-4.3-6.8-2.3-1.7 1.6-1.8 1.5-1.2-1.1.9-3.4-.7-3.5-2.9-.2m53.5 6.1c0 1.1.3 1.4.6.6.3-.7.2-1.6-.1-1.9-.3-.4-.6.2-.5 1.3m9 1c0 1.1.3 1.4.6.6.3-.7.2-1.6-.1-1.9-.3-.4-.6.2-.5 1.3M275 294.4c0 .8.4 1.7.9 2 .5.4.7-.3.4-1.4-.6-2.3-1.3-2.6-1.3-.6"/></svg>