<svg xmlns="http://www.w3.org/2000/svg" width="682.667" height="512" version="1.0" viewBox="0 0 512 384"><path d="M0 192v192h181.5l3.2-6.3c1.8-3.4 3.9-8 4.8-10.2 2.1-5.3 8.8-16.6 14.2-23.8 3.9-5.2 4.3-6.2 4.3-11.6 0-4.9-.3-5.9-1.9-6.4-3.1-.8-6.4-12.5-6.5-22.9-.1-8.5-.2-8.8-2.4-8.8-8.1 0-17.1-11.8-17.2-22.5 0-2.8.9-8.6 1.9-12.9 2-8.5 1.9-9.9-2.3-18.6-2.7-5.8-2.9-16.6-.3-22.8 2.1-5.3 10.3-16.4 18.1-24.9 5.6-6.1 8.1-7.5 15.9-8.8 3.9-.6 4.5-2 3.1-7.3l-.7-2.3-2.4 2.2-2.4 2.3 1.6-4.3c1.8-5.1 1.9-12.7.4-22-1.1-6.9-3.7-16-4.9-17.4-1.3-1.5.1 8.6 1.7 11.8 1.3 2.9 1.2 2.8-2.9-1.1-2.4-2.3-6.7-5.4-9.6-7-5.5-2.9-10.2-7.5-10.2-9.9 0-.8-.5-2.6-1.2-4.2-2.9-6.9-2.9-16.2-.1-21.8 1.1-2.2 3.9-7.8 6.3-12.4 4.7-9.5 5-8.1-2.1-13.2-3.1-2.1-1.9-6.3 3.1-11l3.8-3.7-3.8-3.7c-2.2-2.1-3.7-4.1-3.5-4.5.3-.4 3.2-1.5 6.6-2.4 6.1-1.8 10.7-1.5 12.1.7.4.6.9 0 1.2-1.6.3-1.5.9-3.9 1.2-5.4l.5-2.6 4.9 4.8 4.9 4.9 4-3.2c2.2-1.8 4.2-3.2 4.6-3.2.3 0 2.3 1.2 4.5 2.6 4.6 3.1 11.8 5 24.4 6.4 14.6 1.7 26.3 7.7 38.2 19.5 11.7 11.6 16.7 25.6 16.6 46.5-.1 16.1.7 19.7 5.2 23.3 4.7 3.8 4.6 5.1-.4 4.4-4.7-.6-4.8-.2-2.5 8.3.8 3 1.1 5.6.6 5.8-.4.1-.6 1.5-.3 3 .7 3.9-.4 2.4-3.4-4.4-2.4-5.7-2.7-4.5-.8 3.2.7 2.6.6 2.8-.9 1.5-1.9-1.5-2-1-1.7 6.1.2 4.9-.7 4.8-3-.4l-1.9-4.2-.3 4.4c-.3 4.4-.3 4.4-2.1-3.4-2.4-10.2-4-8.8-4 3.4l-.1 9.2-2.8-5.4c-2.8-5.2-2.8-5.2-2.2-1.6.6 3.8-.2 4.8-2.3 2.7-1.6-1.6-3.6-.1-3 2.2.3 1 0 2-.7 2.2-2.8 1 1 1.8 11 2.4 7.3.3 11.3 1 12 1.9.6.7 3.8 1.7 7.1 2.3 7.6 1.2 11.3 3.1 15.1 7.6 4.1 5.1 14.9 27.1 16.8 34.4 1.4 5.6 1.4 6.6-.1 11.6-.8 3-2.9 7-4.5 8.9-2.2 2.5-3 4.4-3 7.3 0 2.2-.7 4.8-1.5 5.9-1.1 1.5-1.4 5.8-1.5 20.9 0 17.8-.2 19.3-2.4 24-1.2 2.7-3.5 6.5-5.1 8.3-1.5 1.8-2.6 3.4-2.4 3.6.2.1 6.6 1.5 14.3 3 16.8 3.2 19.6 4.5 19.6 8.7 0 5.6-3.1 14-7.8 20.7-2.5 3.7-5.8 8.5-7.3 10.7-2.3 3.4-9.9 18.8-9.9 20.1 0 .2 39.4.4 87.5.4H512V0H0z"/><path d="M221 171.9c0 4.7.4 8.1 1 8.1s1-3.1 1-7.4c0-4.1-.4-7.8-1-8.1-.6-.4-1 2.3-1 7.4m5.5 3.3c-1.9 4.8-1.9 4.8 1 4.8 2.1 0 2.5-.5 2.5-2.8 0-1.5-.5-3.4-1-4.2-.7-1.2-1.2-.7-2.5 2.2m14.5-.2c-.8.5-3.1 1-5.1 1-2.8 0-3.8.5-4.2 2-.4 1.6.1 2.1 2.9 2.6 4.8.9 7.9-.1 9.2-3.1.7-1.4 1.2-2.8 1.2-3 0-.8-2.4-.5-4 .5m62.9 183.4c.6 1.4 1.8 4.1 2.7 5.9 1 1.7 2.9 6.8 4.4 11.2l2.8 8 4.1.3c2.3.2 4.1-.1 4.1-.7 0-2.9-13.2-22.6-17.6-26.2-1.3-1-1.3-.8-.5 1.5"/></svg>