<svg xmlns="http://www.w3.org/2000/svg" width="682.667" height="512" version="1.0" viewBox="0 0 512 384"><path d="M0 192v192h196.5l2.5-3.8c2.4-3.6 3-4.4 5.9-7.8 1.3-1.5 1.1-2.3-1-6.3-1.3-2.5-6.2-8.8-10.9-13.9-11.4-12.5-15-19.4-15-28.6V320h7.9c6.6 0 22.9 2.2 34.4 4.6 2.3.5 2.7.2 2.7-1.8 0-2.9-6-26.7-9.4-37.5-2.5-7.7-3-8.5-8.4-12.5-9.1-7-12.7-15.4-15.8-36.7l-1.8-12 2.4-7.8c2.1-6.5 3.3-8.6 7.6-13 2.9-2.9 6.4-5.5 7.8-5.8s3.7-.7 5-1c2.9-.6 4-3.2 3-7.1l-.7-2.8-2.3 3c-1.9 2.3-2.3 2.5-2 .9.2-1.1.9-4.7 1.6-8 1.5-7.6 0-17.2-3-19.7-1.1-.9-2-2.2-2-2.9 0-2.5-8.4-8.9-14.5-11.1-7.7-2.9-14.3-9.4-16.9-16.8-1.5-4.5-2-5.1-3-3.9-1.9 2.7-.7-13.9 1.6-20.1 1.1-3 2.8-8.6 3.9-12.4s2.6-8.1 3.4-9.5c1.3-2.5 1.2-2.7-1.8-4.1-4.7-2.2-4.7-5.6.1-11.7 4.7-5.8 4.5-6.4-3.1-13.4l-5.1-4.5 3-2.1c3.3-2.3 8.8-4.3 11.7-4.3 1.2 0 3.1 1 4.4 2.2l2.3 2.1v-6.6c0-7.2.9-8.2 3.6-4.1.9 1.4 3 3.2 4.5 3.9 2.7 1.4 3 1.3 7.5-2.6 4.6-4 4.8-4.1 6.3-2.1 2.4 3 4.9 3.9 14.1 5.2 4.7.6 10.5 1.8 12.9 2.6 2.5.8 7.6 1.4 11.4 1.4 12.5 0 22 3.5 37.2 13.5 20.2 13.4 28.1 30.7 30 65.5l.5 10.5 5.3 4.7 5.2 4.8h-3.7c-3.6 0-5.4 1.1-4.1 2.4.4.3.7 1.6.8 2.9.1 1.2 1.1 4.5 2.3 7.4 1.7 4.1 1.8 5.1.7 4.6-.8-.3-1.5-.9-1.5-1.4s-.4-.9-.9-.9c-.6 0-.6 1.2 0 3.2 1.3 4.5.4 4.6-2 .1-1.1-2.1-2-3.4-2.1-3 0 .5.5 1.7 1 2.8 1.4 2.5.3 4.4-1.6 2.8-1.2-1-1.3-.9-.7.6.5 1.5.3 1.7-1.1 1.2-1.3-.5-1.6-.3-1.2 1.1.3.9.8 3.5 1.2 5.7.6 3.6.5 3.8-.9 2.5-.8-.8-2.7-3.8-4.1-6.5l-2.7-5 .6 6.5.5 6.5-2.3-6.3-2.2-6.3-1.4 3.6c-1.1 3-1.1 4.5-.1 8.1 1.6 5.5.7 6.8-1.7 2.5-3.7-6.7-4.2-7-3.6-2.1.6 4.1.5 4.4-1 3.1-1-.7-1.7-1-1.8-.5 0 .5-.7-.7-1.5-2.6l-1.4-3.5.5 4c.3 2.2.5 5 .5 6.2 0 2.2.2 2.2 7.8 1.6 6.4-.5 8-.3 9.1 1.1.7.9 2.1 1.6 3 1.6 3.9 0 9.5 2.4 13 5.6 5 4.5 9.8 4.5 20.4.3l7.8-3.2 6.7 3c6 2.6 6.8 3.3 7.6 6.6.6 2.5 1.5 3.7 2.7 3.7.9 0 1.9.8 2.1 1.8.3 1 2.2 2.3 4.4 3 4.1 1.2 10.4 6.5 10.4 8.7 0 .6-.9 2-2 3-1.8 1.6-4.1 7.7-5.5 14.7-.4 2.2-1.4 2.9-5.9 4.2-3 .9-7.7 1.6-10.5 1.6-4.8 0-5.2.2-7.5 3.7-2.3 3.6-5.6 14.4-5.6 18.4 0 2.7-1 2.4-4-1.2-2.4-3-2.7-3.1-4.3-1.5-.9 1-2.1 1.5-2.5 1.2-.5-.3-1.9.5-3.1 1.8-2 2.2-2.2 3-1.5 9.5.3 3.9 1 6.9 1.4 6.6 1.8-1.1 8.1 1.8 9.5 4.4 1.1 2.2 2.4 3 5.5 3.5l4.1.6-.6 4.3c-.6 3.8-.4 4.4 1.7 5.4 1.2.6 4 3.5 6 6.5 3.5 5 3.7 5.6 2.6 8.6-1.1 2.9-1 3.4 2.1 7.2 4.8 6 5.5 9.4 2.7 12.6-1.7 2.1-3.4 2.8-7.5 3.2-4.6.4-5.2.7-4.9 2.6.2 1.7 1.3 2.2 5.6 2.9 2.8.5 5.2 1.3 5.2 1.8 0 .6-1.7 4.5-3.7 8.7-3.6 7.4-8.1 12.7-17.8 21.3-2.2 2-4.9 4.5-5.9 5.7l-1.9 2.2H512V0H0z"/><path d="M200.6 143.9c-.4.5-.2 1.2.3 1.5s.7 1.5.4 2.7c-.6 2.3 2.7 9.1 4.2 8.6 1.3-.5.8-4.8-1.1-9.2-1.5-3.7-3-5-3.8-3.6m17.7 38.6c.9 10.7 2.7 12.3 2.7 2.3 0-5.8-.4-7.9-1.7-8.9-1.5-1.3-1.6-.8-1 6.6m20.7 2c-1.4.8-3.3 1.4-4.2 1.5-1 0-2.3 1-2.9 2.2-1.2 2.3-1.3 2.3-2.6-1-.7-1.7-1.7-3.2-2.2-3.2-1.1 0-4.1 7.2-3.4 8.4.5.8 13.1 0 15.8-1 .7-.3 1.6-1.6 1.9-2.9s.9-3 1.2-3.9c.7-2-.3-2-3.6-.1m48.8.1c1.3 2.4 4 4.9 4.7 4.2.3-.2-.9-1.8-2.6-3.4-2.4-2.2-2.9-2.4-2.1-.8"/></svg>