<svg xmlns="http://www.w3.org/2000/svg" width="682.667" height="512" version="1.0" viewBox="0 0 512 384"><path d="M0 192v192h200l1.1-2.4c2.1-4.6-4.5-18.5-13.2-27.6-7.8-8.2-13.9-21-13.9-29.1V322h6.8c7.2 0 22 1.9 36.9 4.7 5.1.9 9.5 1.4 9.9 1.1.8-.9-4.1-20.2-8.2-32-5.6-16-7.8-21-11.6-26-4.9-6.4-10.5-20.3-13.5-33.2l-2.4-10.9 2.1-6.6c2.9-9.1 8-15.8 13.8-18.3 6.8-3 7.9-4.2 7.4-8.3-.5-4-1.6-4.5-3.2-1.4q-2.85 5.25-.9-6.3c1.5-9.5 0-17.8-3.7-20.2-1.3-.9-2.4-2.5-2.4-3.5 0-2.5-7.5-8.5-12.5-10.1-2.2-.7-5.2-1.9-6.6-2.6-2.6-1.3-9.9-8.3-9.9-9.5 0-.4-.9-2.9-2.1-5.5-1.5-3.6-2.2-4.5-2.9-3.4-1.4 2.3-2.2.5-1-2.4.5-1.5.7-4.4.4-6.4-.5-3.6.6-7.9 7.5-29.7l2-6-3.1-2.5c-3.8-3.2-3.4-6.2 1.7-11.9 3.4-3.8 3.4-3.8 1.7-6.9-.9-1.7-3.2-4.1-5.1-5.4s-3.9-3.1-4.5-4c-1.4-2.3 1.1-4.2 8.2-6.4 4.7-1.4 5.5-1.4 8.4 0 1.7.9 3.3 1.6 3.5 1.6.1 0 .3-2.8.3-6.2v-6.2l3.6 3.7c4.5 4.6 7.1 4.7 11.4.2 3.7-3.8 5.5-4.4 6.4-2 .9 2.5 6.3 4.2 16.5 5.4 5.1.7 10.3 1.7 11.3 2.2 1.1.6 6.4 1.2 11.7 1.3 11.5.2 20.2 3 32.3 10.3 24 14.5 33.2 31.5 35.3 65.3 1 15.4 1.1 15.7 6.1 19.3 2.4 1.7 4.4 3.4 4.4 3.9 0 .4-1.6.8-3.5.8-3.7 0-4.3.8-2.3 2.8.9.9.9 1.2 0 1.2-.8 0-.8 1 .3 3.5.8 1.9 2.2 5.1 3 7 1.7 3.9.6 4.6-1.9 1.2l-1.7-2.2.6 2.7c.2 1.4.8 3.3 1.1 4.1.4 1.2 0 1.5-1.8 1.3-1.3-.1-2.9-.6-3.6-1-.8-.5-1-.2-.5 1 .5 1.3.3 1.6-.9 1.1-1.4-.5-1.6.2-1.1 4.9.3 3 .3 5.4 0 5.4-.4 0-1.8-2.2-3.2-4.9-2.6-5.2-5.2-7.9-4.2-4.5 1 3.5 1.9 10.4 1.3 10.4-.3 0-1.3-2.5-2.2-5.5-1.5-4.5-2-5.3-3.2-4.3-1.1.9-1.2 2.6-.7 7.5.4 3.5.4 6.3.1 6.3s-1.7-2.1-3.1-4.8l-2.5-4.7.6 4.5c.6 4 .5 4.3-1 3.1-1.1-1-1.6-1-1.6-.2 0 .7-.4.9-1 .6-.5-.3-1-1.5-1-2.6 0-1-.5-1.9-1.1-1.9s-.8.7-.5 1.6.6 3.1.6 4.9v3.4l4.8-.6c4.7-.5 15.6 1.5 20.6 3.9 3 1.4 9 9.2 13.2 17 1.9 3.8 4 6.8 4.5 6.8.6 0 .5-.8-.2-2.1-.9-1.8-.6-3 1.5-6.9 1.4-2.6 2.6-6.1 2.6-7.7 0-4.2 4.9-7.7 9.6-6.8 2.7.5 5.4-.1 11.3-2.6l7.8-3.2 6.2 2.8c6.7 3 8.1 4.7 8.1 9.5 0 3.2.8 3.7 9.7 7 8 3 10.8 9.4 5.4 12.6-3.4 2-4.9 4.9-5.8 11.1-.5 3.9-1 4.6-4.2 5.9-1.9.8-6.2 1.6-9.5 1.7-5.7.2-6.1.4-8 3.6-1.8 3.1-2.4 5.5-4.2 16.4-.7 4.2-1 4.4-3.6 2-1.6-1.4-2.1-1.5-2.8-.3-.6 1-1.3.7-3.3-1.5l-2.4-2.9-7.1 9c-7.9 9.8-9.4 14.4-4.7 14.4 1.3 0 3.5 1.2 4.9 2.6 1.9 2.1 3 2.5 5 2 3.5-.9 4.1.8 2.1 6.3-.8 2.4-1.5 4.7-1.5 5.1s2.1 1.3 4.8 1.9c8.4 2.1 10.2 3.2 13.9 8.9 3 4.8 3.3 5.8 2.3 7.7-1.1 2-.7 2.9 2.4 7.5 2.1 3 3.6 6.4 3.6 8.1 0 4-3.8 6.3-9.1 5.6-3.5-.5-3.9-.3-3.4 1.3.3 1 .1 4.8-.5 8.4-1.8 11.4-8.9 20.8-24.3 32.3-4.8 3.6-8.7 6.7-8.7 6.9s39.6.4 88 .4h88V0H0z"/><path d="M202 148.6c0 4.6 3.6 11.2 5.2 9.6 1.2-1.2-1.5-10.4-3.8-12.2-1.2-1.1-1.4-.6-1.4 2.6m17.6 29.2c-.3.6-.2 4.1.4 7.9.5 3.7 1 7.1 1 7.5 0 .5.5.8 1.1.8.9 0 1-2.1.5-7.1-.7-7.4-1.8-11-3-9.1m67.4 5c0 1.4 5.8 7.7 6.4 7.1.4-.4-.9-2.3-2.9-4.3-1.9-2-3.5-3.3-3.5-2.8m-44.3 2c-.4.4-2.4 1.4-4.6 2.2-2.1.7-4.3 2.2-4.9 3.4-.9 2-1 1.9-2.5-1.7-.9-2-1.9-3.7-2.2-3.7-.6 0-2.1 3.7-3.1 7.5-.6 2.3-.4 2.5 3.2 2.5 2.1 0 6.2-.5 9-1.2 5-1.2 5.2-1.4 5.8-5.1.7-3.9.3-5.7-.7-3.9"/></svg>