<svg xmlns="http://www.w3.org/2000/svg" width="682.667" height="512" version="1.0" viewBox="0 0 512 384"><path d="M0 192v192h199.8l-1.8-6c-2.7-8.8-5.3-13.7-11.5-21.5-3.1-3.9-6.9-9.7-8.5-13-2.5-5.4-6-16.5-6-19.4 0-2.4 26.1-.2 48.4 4 5.9 1.1 11 1.8 11.3 1.5 2.2-2.2-12-44.3-22.2-66.1-8.8-18.8-12.5-29.4-12.5-36.3 0-9.8 7.3-22.2 15.4-26.2 4.2-2 4.6-2.5 4.6-5.9 0-5-.9-5.7-3.3-2.4l-1.9 2.8.8-5.5c1.8-12 .1-23.3-3.5-24.5-1.1-.3-2.4-1.9-2.9-3.5-1-2.8-8.3-9-10.7-9-.6 0-3.9-1.4-7.2-3-6.4-3.2-9.8-7.1-12.8-14.8-1.7-4.3-2.9-5.2-3.8-3-1.5 3.8.7-17.6 2.3-22.2 1-3 2.1-7.1 2.5-9s1.5-5.9 2.6-8.7L181 87l-2.4-1.5c-1.3-.9-2.6-2.4-2.9-3.4-.6-2.4 1.7-7.2 4.8-10.1 2-1.9 2.2-2.6 1.3-5.1-.5-1.6-3.1-4.4-5.9-6.4-2.7-1.9-4.9-4.2-4.9-5 0-1.9 9.3-6.5 13.1-6.5 1.4 0 3.4.7 4.5 1.5 3.2 2.4 3.7 1.7 3.1-4.5-.5-6.4.3-7.5 2.8-3.7 2 3.1 6.1 5 8.3 3.8.9-.5 2.8-2.1 4.1-3.5 2.4-2.6 6.1-3.5 6.1-1.6 0 2.2 5.2 4 14.5 5 5.5.7 11.4 1.8 13 2.5 1.8.8 6.4 1.3 11.5 1.2 9.8-.1 17 1.8 27.4 7 13.5 6.8 22.3 14 28.9 23.7 7.7 11.4 10.9 22.6 12.7 45 .6 7.8 1.6 14.6 2.3 15.5.7.8 2.9 2.6 4.9 4.1 4.2 3.1 4 4-1 4-3.4 0-3.5 0-1.7 2 1 1.1 1.3 2 .7 2-1.1 0-.2 3.1 3.3 11.5l1.7 4-2.7-2.5-2.8-2.5.7 3.8c.7 3.7.6 3.8-1.5 2.7-1.5-.8-1.9-.9-1.5-.1.5.7-.3 1.1-2.2 1.1-2.9 0-2.9 0-2.1 4.2 1.7 8.6.9 8.7-4.3.1l-2.9-4.8.6 4.9c.4 2.7.9 5.5 1.2 6.2.3.8.1 1.4-.4 1.4s-1.6-2.1-2.4-4.7c-2.6-8.4-6-5.6-3.8 3.1.6 2.6.9 4.9.6 5.2s-1.7-1.4-3.1-3.8l-2.6-4.3v3.2c0 2.5-.4 3.1-1.5 2.7-.9-.4-1.5 0-1.6.7 0 .8-.4.5-.9-.6-.7-1.6-.9-1.3-.9 1.8l-.1 3.7 4.3-.1c2.3-.1 7.1.4 10.6 1.1 8.2 1.6 12.7 5.6 19.6 17.2 2.7 4.5 5 8.5 5.1 8.6.5.8 10.6-5.3 11.4-6.8.5-.9.3-2.5-.5-3.9-2.5-4.8 4.5-19.6 10.4-22.1 2.4-1 3.4-1 4.6 0s2.1.8 4.8-.9c3.8-2.3 6.8-2.6 9.8-1 1.7.8 2.3.7 3.5-.8 1.3-1.7 1.4-1.7 3.1.3 1 1.2 3.8 3.4 6.3 4.9 5.5 3.4 6 4.1 6 8.6 0 3.8 2.2 6.4 7.9 9.3 3.9 2 7.3 6.5 6.9 9-.2 1.3-2.1 3.1-4.9 4.6-6.4 3.5-7.9 4.9-7.9 7.5 0 1.2-1.2 3.5-2.6 5-2.3 2.5-3 2.7-7.5 2.3-4.6-.5-5.1-.3-6.3 2.1-.7 1.4-1.8 6-2.5 10.1-1.7 9.6-1.9 10.3-3.1 9.5-.6-.4-1.7-.2-2.5.5-1.1.9-1.8.5-3.6-1.9-1.3-1.7-2.8-3.1-3.5-3.1-1.8 0-20.4 24.7-20.4 27.1 0 .5.7.9 1.5.9s2.4.9 3.5 2 3.3 2 5.1 2c2.8 0 3.1.3 2.5 2.2-.3 1.3-.9 4.1-1.2 6.3l-.6 4.1 6.8 2.2c9.3 3.1 10.6 3.9 14.8 9.5 3.4 4.5 3.5 4.9 2.1 7.1-1.4 2.1-1.3 2.5 1.5 6.1 5.2 6.6 5.2 11.3-.1 13.5-2.2.9-3.6 1-5.3.2-1.3-.6-2.6-.9-2.8-.6-.3.2-.3 3.7 0 7.7.6 10.4-1 13.8-8.5 17.5-3.2 1.7-6.8 4.3-8 5.9-1.2 1.7-6.9 6.2-12.7 10.2s-10.6 7.9-10.6 8.7c0 1.2 11.9 1.4 89 1.4h89V0H0z"/><path d="M203.4 150.2c.5 6.4 5.7 12.8 5.6 7-.1-2.5-3.7-10.2-4.9-10.2-.5 0-.8 1.5-.7 3.2m18 32c.3 1.8.8 5.4 1.1 8 1 8.1 2.7 6.9 2-1.3-.8-8.7-1.1-9.9-2.5-9.9-.7 0-.9 1.3-.6 3.2m68.7 4c1.8 2.7 3.9 4.8 4.6 4.8 1.9 0 1.8-.1-3.3-5l-4.6-4.5zm-50.8 1.8c-2.3 1-4.3 2.7-4.5 3.7-.3 1.4-.7 1.1-2.1-1.5-1-1.7-2-3.2-2.3-3.2-.6 0-3.4 6.5-3.4 8 0 1.4 6.3 1.3 12.6-.2 4.2-1 5.2-1.6 5.1-3.2 0-1.2.3-2.9.7-3.9 1-2.2-.6-2.1-6.1.3"/></svg>