<svg xmlns="http://www.w3.org/2000/svg" width="682.667" height="512" version="1.0" viewBox="0 0 512 384"><path d="M0 192v192h221.9l-1.3-3.8c-2.2-6.2-4.9-10.9-13.8-24.3-11.4-17-13.7-25.7-7.3-27 8.7-1.9 31.1-.7 54.3 2.7 6.1 1 11.5 1.4 11.9 1 2.1-2.1-12.5-45.4-19.6-57.9-2.3-4.1-3.8-10.9-5.1-22-.6-6.1-1.5-9.7-3-11.7-2.5-3.5-4.6-9.7-4.4-13 .4-7.7 5-18 10.1-22.7 3.2-2.9 3.5-3.4 2.8-7.2-.4-2.3-1.1-4.1-1.6-4.1s-.9.4-.9 1c0 .5-.4 1-.9 1-.4 0-.6-1.2-.3-2.6.3-1.9.1-2.5-.6-2-.7.4-1 .2-.7-.6 2-5.3.1-20.4-3.1-23.9-.8-.8-1.4-2.3-1.4-3.2 0-.8-1-1.9-2.2-2.3-1.3-.4-3.8-1.9-5.5-3.5-1.8-1.5-5-3.3-7.1-3.8-2-.6-5.8-2.4-8.4-4-3.7-2.4-5.3-4.3-8.3-10.5-5.8-11.9-5.7-21.3.1-32.5.8-1.4 1.4-3.3 1.4-4.2s.8-4.2 1.9-7.3l1.9-5.7-2.9-1.4c-5.9-3.1-5.6-6.5.9-13.7 3.4-3.7 2.4-6.6-3.8-11.8-5.9-4.9-5.7-5.7 2.6-9 4-1.7 6.7-2.1 10.1-1.7l4.6.5-.6-4.9c-.4-2.8-.2-4.7.3-4.4s1.2.1 1.5-.5c.4-.7 2.2.3 4.6 2.5 2.1 1.9 4.4 3.5 5.1 3.5s2.6-1.3 4.3-2.9c4-3.8 7.6-4.6 9.7-2.1 2 2.3 6.9 3.6 16.8 4.5 4.1.4 8.7 1.3 10.1 1.9 1.4.7 5.7 1.4 9.5 1.5 10.4.2 17 1.8 26.9 6.6 18.7 9 29.3 20.1 35.9 37.9 2.9 7.6 4.3 15.8 5.6 31 .9 11 1.2 12.2 3.7 14.8 1.5 1.7 4 3.7 5.6 4.6 3.9 2.3 3.4 3.2-1.9 3.2h-4.5l.6 3.6c.3 2 .7 3.9.9 4.3.3.4 1.4 3.1 2.6 6.1 2 5.1 2 5.3.2 3.7s-1.8-1.6-1.4 1.6l.4 3.2-2.1-3.3c-2.6-4-3.2-4.1-2.1-.2.8 2.7.7 3-.9 2.5-2.5-.8-3.3 1.6-2.5 7.9l.6 5.1-2.1-3c-1.2-1.7-2.1-2.4-2.1-1.7s-.5 1-1.1.6c-.8-.4-.9.1-.4 1.7 1.3 4.2-1.1.7-3-4.3-1.7-4.7-3.9-6.6-5.1-4.7-.6 1-.1 5.7 1.2 13.4l.5 3-2-2.5c-1.1-1.4-2.1-2.1-2.1-1.5 0 .5-.5.3-1-.5-.8-1.3-1-1.3-1 .2 0 1.2-.7 1.6-2.9 1.3-2.4-.3-3 0-3.3 1.9-.4 2.2-.1 2.4 5.1 2.9 11.2 1.1 16 2.7 19.7 6.5 3 3.1 12.2 16.8 13.8 20.6.6 1.4 3.6-2 8.7-9.9l3.9-6-3.3-2.8c-2.5-2.2-2.9-3-1.8-3.6.7-.5 1-1.4.7-2-.4-.6-.1-1.1.6-1.1 3.7 0 18.8-11.7 18.8-14.6 0-.7-1.6-2.6-3.6-4.4-3.7-3.2-3.9-3.9-.7-4.4 2.2-.4 2.1-1.3-1.1-10.1-2.1-5.8-2.6-8.8-2.6-17.2 0-6.7.5-11.8 1.6-14.9.8-2.5 1.3-5.8.9-7.1-1.8-7.3-1.6-11.9.6-14.7 1.8-2.2 2-3.3 1.3-5.4-.8-2.4-1.3-2.6-6.5-2.3-5.1.2-5.7 0-6.2-2-.8-3.1.7-4.7 6.2-6.3l4.6-1.3-.3-6.4c-.2-3.5-1.4-14.3-2.7-23.9-4-29.8-4.3-44.3-.9-56.3.5-1.6-9.1-1.7-191.5-1.7H0z"/><path d="M389.4 1.7c1.1 3.4 3.6 21.1 7.1 49.3 1.9 15.7 3.7 29.5 4 30.7.6 2.5 1.9 2.7 8 1.3 4.5-1 6.5 0 6.5 3.5 0 2.9-1.4 4-7.5 5.7-4.4 1.2-5 1.7-5.3 4.3-.4 3.3 1.8 5.5 5.5 5.5 3.5 0 7 4 7.8 9.1.8 5.4 7.1 20.7 9.6 23.4 5.2 5.8 5.9 12.9 2.9 27.4-1.1 5.2-2 9.7-2 10.1 0 .3 1.5.7 3.3.8 4.5.1 10.6 1.3 11.2 2.1.2.4-2.1 2.1-5.2 3.7-4.5 2.4-6.2 4-8.7 8.4l-3.1 5.5.3 16.3.3 16.4-3.3-.7c-1.8-.4-4.5-1.7-6-2.8s-3-1.9-3.2-1.6c-.3.3-7.2 13.9-15.4 30.3-14.8 29.4-15.7 32.2-10.7 30.2 1.4-.5 1.5.2.9 5.2-.8 7.1-.2 7.7 12 11.7 7.6 2.5 9.3 3.5 12.7 7.5 4.4 5.1 4.5 5.6 2.3 8.1-1.5 1.7-1.4 2.1 1.5 5.4 5.6 6.4 3.3 14.1-4.1 13.3l-3.3-.3.3 9.2c.2 5 .1 10.1-.3 11.2-.8 2.7-11.7 8.3-16.1 8.3-2.6 0-3.9.8-6.1 3.6-3.7 4.9-5.7 6.6-13.1 11-4 2.3-6.1 4.1-5.7 5 .3.8.5 2 .5 2.8 0 1.2 10.6 1.4 72.5 1.4H512V0h-61.6c-58.1 0-61.5.1-61 1.7m-154.9 154c.3 1.6 1.3 3.5 2.1 4.3 1.3 1.3 1.5 1.3 1 0-.2-.8-.7-2.7-1-4.3-.4-1.5-1.1-2.7-1.7-2.7-.7 0-.9 1-.4 2.7m24.8 35.3c-3 7.2-3.1 7 4.1 7 3.6 0 6.8-.5 7.1-1 .3-.6 1.7-1 3.1-1 2 0 2.3-.3 1.6-1.6-.5-.9-.7-2.6-.4-3.7.4-1.7.2-1.9-1.9-1.4-1.3.4-2.9.7-3.6.7s-2.1 1-3.3 2.2c-1.1 1.2-2 1.6-2 1 0-.7-.6-1.2-1.4-1.2s-1.6-.8-1.9-1.8c-.3-1.4-.6-1.2-1.4.8m-4.6 2.7c-1.1 1-.8 4.3.3 4.3.6 0 1-1.1 1-2.5 0-2.6-.2-2.9-1.3-1.8"/></svg>