<svg xmlns="http://www.w3.org/2000/svg" width="682.667" height="512" version="1.0" viewBox="0 0 512 384"><path d="M0 192v192h231.1l-1.6-3c-.8-1.6-1.5-3.5-1.5-4.3s-4.3-7.8-9.5-15.6c-11.3-16.9-13.3-20.7-14.1-26.5-.6-4.3-.5-4.5 2.2-5.3 5-1.4 35.2-.7 47.4 1.1 6.3 1 13.4 2 15.8 2.3l4.4.6-.8-4.9c-1.5-10-10.5-36.7-16.6-49-4.9-9.9-5.7-12.5-7.2-25.3-.8-6.2-2.1-12-2.8-12.9-3.9-4.8-5.5-13.2-3.7-19.1 2.4-7.6 5.3-13.1 8.5-16.2 2.4-2.3 3.4-4.2 3.4-6.3 0-3.6-1.8-6.9-2.7-4.9-1.2 3.1-1.8.6-2-8.6-.2-7-.8-11.8-2.3-16.3-2.2-6.4-4.6-10.1-6.1-9.3-.4.3-2.3-.8-4.2-2.5-1.9-1.6-5.7-3.7-8.5-4.6-7.3-2.4-11.2-6.1-15.6-14.9-3.8-7.5-3.8-7.8-3.4-16.3.4-6.8 1.1-9.8 3.1-13.8 1.5-2.9 2.7-5.9 2.7-6.8s.9-3.9 2-6.8c1.1-2.8 1.9-5.2 1.7-5.2-.1-.1-1.9-1-3.9-2-3-1.5-3.8-2.5-3.8-4.6 0-2.6 5.4-11 7.1-11 2.5 0 .3-4-4.7-8.7-3.1-3-5.5-5.5-5.3-5.7s2.9-1.6 5.9-3.1c5.5-2.8 11.9-3.7 15.2-2.1 1.5.7 1.6.2 1.1-4.5-.4-3.7-.2-5 .6-4.5.6.4 1.1.1 1.1-.8 0-2.5 1.2-1.9 5.1 2.4 4 4.4 5.4 4.5 9.9.5 3.5-3.2 6.8-4 8.8-2.2 3.2 2.7 5.7 3.5 15.7 4.7 5.5.7 10.9 1.7 12 2.3s4.5 1 7.5.9c8-.4 19.8 3 31.1 8.9 12.6 6.7 19.5 12.8 25.8 23.2 7.3 12.2 9 18.7 12.1 46.7 1.2 10.2 2 11.7 8.6 16.2 1.9 1.3 3.4 2.6 3.4 3 0 .5-2.2.8-5 .8-2.7 0-5 .4-5 .8 0 .8 4 12.8 5.5 16.5.6 1.3.4 1.6-1 1.1-1.4-.6-1.6-.3-1.1 1.7.6 2.2.5 2.2-.6.5-.7-1-2.1-2.8-3-4-1.7-2.1-1.7-2-.7 1.2 1.3 3.8.6 5.1-1.6 3.2-1.3-1.1-1.5-.9-1.7 1.1-.2 3.4-.1 4.4.7 8.7.6 3.6.6 3.6-1 1.4-2-2.8-3.2-2.8-4.1 0-.6 2-1 1.5-2.5-3.2-1-3-1.9-5.7-1.9-6s-.5.2-1 1c-.8 1.3-1 1.2-1-.3 0-1.1-.4-1.5-1.1-1.1-1.2.7-.7 12.1.7 15.9.5 1.3-.4.8-2.6-1.5-2.8-2.9-3.5-3.2-3.8-1.8-.4 2-3.2 2.5-3.2.5-.1-1.6-3 2.3-3 4 0 .8 1.3 1.3 3.8 1.3 2 .1 6.8.7 10.7 1.4 6.5 1.3 7.3 1.7 12.1 6.9 2.9 3.1 7.1 9 9.4 13.2s4.6 7.3 4.9 6.8c.4-.4 3.1-4.6 6.1-9.2 4.5-7.1 5-8.5 3.7-9.3-2.9-1.6-5-4.2-3.8-4.6.6-.2 1.1-1 1.1-1.7 0-.8 3-3.1 6.6-5.1 6.7-3.8 11-7.5 12-10.7.4-1.2-.6-2.8-3.3-5.2l-3.8-3.3 2.8-.7c1.5-.4 2.7-1.1 2.7-1.6s-1.2-3.8-2.8-7.2c-2.5-5.7-2.7-7.2-2.7-19.3 0-10.2.3-13.5 1.6-15.4 1.4-2.1 1.4-3 .3-6.7-.7-2.4-1.1-5-.8-5.8.4-.8.1-1.5-.5-1.5-1.9 0-1.2-3.2 1.5-6.7 1.9-2.5 2.4-4.1 2-5.9-.6-2.3-1-2.4-5.4-1.9-5 .6-6.9 0-7.2-2.5-.5-3.3.2-4 5.5-5.6l5.6-1.8-.6-6c-.4-3.4-1.3-10.8-2.1-16.6-4.7-33.8-5.4-47.7-3-58.8l1.4-6.2H0z"/><path d="M398 .7c0 .5.7 3.9 1.5 7.8.8 3.8 3.2 21.6 5.5 39.5 2.2 17.9 4.3 33.3 4.6 34.2.6 2.1 1.1 2.2 7 .7 5.3-1.4 7.7 0 7.2 4-.3 2.2-1.2 2.9-6.3 4.6-5.8 2-6 2.2-6 5.5 0 3.2.3 3.5 4.4 4.7 6 1.7 7.8 3.6 8.6 9.1.4 2.6 1.7 6.9 2.9 9.7 1.3 2.7 2.8 6.7 3.5 8.7s1.9 4.2 2.7 4.9c4.6 3.8 5.7 14.8 2.9 29.6-.8 4.3-1.5 7.9-1.5 7.9 0 .1 4.4.9 11.8 2.1 4.2.7 4.1 1.6-.7 3.7-7.6 3.5-11.1 8.2-13.1 18-.9 4.5-.9 7.2-.1 11.5.8 3.5.9 7.8.4 11.6-.8 5.6-1 6-3.3 5.7-1.4-.2-3.8-1.2-5.3-2.4-1.6-1.1-3.2-1.6-3.7-1.2-.4.5-7.5 14.3-15.7 30.6-13.8 27.4-14.8 29.8-12.7 29.8s2.2.4 2.1 6.2l-.2 6.2 10.1 3.6c11.3 3.9 12 4.3 16 10.1 2.5 3.7 2.6 4.2 1.1 5-2.4 1.4-2.1 2.5 1.3 6.9 3.3 4.2 4 9.9 1.5 12-.8.7-3.2 1-5.4.8l-3.9-.3.5 9c.3 5.2.1 10.1-.5 11.6-1.2 2.9-10.5 8-15.3 8.4-1.8.1-4.6 2.2-8.5 6.2-3.3 3.3-7.7 6.9-10 8.1-5.1 2.6-6.7 4.6-5.9 7.2.6 2 1 2 68.6 2H512V0h-57c-31.3 0-57 .3-57 .7M242.6 153.9c-.4.7 0 2.4 1 3.9 2.1 3.3 3.1 1.4 1.1-2.4-.9-1.8-1.7-2.3-2.1-1.5m17.6 30.1c0 1.4.2 1.9.5 1.2.2-.6.2-1.8 0-2.5-.3-.6-.5-.1-.5 1.3m7.1 7c-3 7.2-3.1 7 3.8 7 3.4 0 7.7-.5 9.4-1.1 2.7-1 3.1-1.6 3.1-4.6-.1-2.9-.4-3.3-2.1-2.9-1.1.3-3.2.6-4.7.6-2.1 0-2.8.5-2.8 2 0 2.4-1.5 2.7-2.4.4-.3-.8-1-1.3-1.5-1-.5.4-1.1-.2-1.4-1.1-.3-1.5-.6-1.4-1.4.7m-4.7 3.3c-.5 1.5-.6 3.1-.2 3.4 1.1 1.1 1.8-.5 1.4-3.4l-.4-2.8z"/></svg>