<svg xmlns="http://www.w3.org/2000/svg" width="682.667" height="512" version="1.0" viewBox="0 0 512 384"><path d="M0 192v192h256.1l-.6-2.1c-1.9-5.9-5.8-13.2-10.2-19-10.2-13.5-17.3-27-17.3-32.8 0-2.4 4.1-3.1 17.7-3.1 10.4 0 27.1 1.8 42.2 4.6 4.6.8 8.5 1.3 8.8 1 .9-.8-2.7-16.2-6.6-28.2-3.6-11.1-11.3-30.6-13.1-32.9-1.2-1.6-3.8-14.3-4.6-22-.4-5.1-1.3-8.1-3.3-11-5.2-7.9-2.4-24 5.7-32.1 3.2-3.2 3.6-4.1 3.3-8.2-.3-5.7-.9-6.6-2.7-5.1-1.1.9-1.4.8-1.4-.5 0-1.1-.5-1.4-1.2-1-.8.5-.9.2-.4-1.2 1.8-4.3 1.8-11 .1-19.1-1.7-7.8-3.9-12-6.3-11.7-.4 0-2.9-1.7-5.5-3.8-2.7-2.1-5.6-3.8-6.5-3.8-2.5 0-9.9-4.8-12-7.8-3-4.1-7.5-17.1-7.7-22.2-.2-2.4.6-6.7 1.6-9.5 2.8-7.9 6.8-17.7 8.4-20.6 1.7-3 1.6-3.1-4.7-6.3-3-1.5-3.8-2.5-3.8-4.6 0-2.9 2.8-7 7.3-10.8l2.7-2.4-2.2-3.1c-1.2-1.7-3.6-4.3-5.3-5.8-3-2.7-3-2.8-1-4.3 2.7-2.1 12-5.6 14.8-5.6 1.2 0 2.9.5 3.7 1 1.8 1.1 2.8-.9 2.9-5.7.1-4.4 2.8-4.7 7.4-.6s6.5 4.1 10.1.4c3.5-3.7 7.3-4.7 9.5-2.7 2.6 2.3 7 3.7 16.6 5.1 5 .7 11 1.8 13.5 2.4 2.5.5 7.8 1.5 11.9 2.2 10.6 1.6 28.9 10.9 37.6 19 10.8 10.1 17.9 28.3 20 51.4 1.3 15 2.6 17.8 11 24.5 3.3 2.6 3.4 2.9 1.5 3.5-1.1.4-3.8.4-5.9 0l-3.8-.6 1.3 8.3c2.2 13.5 2.4 14.9 1.4 14.3-.6-.4-1-1.3-1-2.1s-.6-1.4-1.4-1.4c-.7 0-2.1-1.7-3-3.8-1.5-3.5-1.5-3.1.1 4.1.5 2.3.3 2.6-1.2 2.1-1.6-.7-1.7-.2-1.1 5.7l.6 6.4-2.1-2.5c-1.1-1.4-1.8-2-1.5-1.4.3.7 0 1.4-.7 1.7-.9.3-1.8-.8-2.6-2.9-.7-1.9-1.7-3.4-2.2-3.4s-.9-.7-.9-1.5-.4-1.5-1-1.5c-.5 0-1 2-1 4.5s-.5 4.5-1 4.5c-.6 0-.8 1.7-.4 4.2.5 3.8.4 4.1-.9 2.6-.8-1-1.6-1.5-2-1.2-.3.3-.8-.4-1.2-1.5-.3-1.2-1.1-2.1-1.6-2.1-.6 0-.7.9-.4 2 .5 1.6.2 2-1.7 1.8-1.3-.2-2.8-1-3.5-1.8-1-1.2-1.2-.8-1.3 2.5v4l6.2.1c7.3.1 16.4 1.9 19.5 3.9 4.4 2.9 8.4 8.2 12.6 16.7 2.3 4.8 4.5 8.7 4.8 8.8.4 0 2.7-3.3 5.2-7.2l4.5-7.3-3.1-2.8c-2.1-1.9-2.8-3-1.9-3.3.6-.3 1-1 .6-1.5-.3-.5.3-1.2 1.3-1.6 1-.3 3.7-1.9 6-3.5 2.3-1.5 4.6-2.8 5.1-2.8s2.7-1.9 4.7-4.1l3.8-4.2-4.4-4.1-4.3-4.1 3.1-.5c3.5-.6 3.6.2-1.4-12-2.4-6-2.5-26-.1-30.8 1.4-2.7 1.4-3.6.2-7.3-.8-2.3-1.2-4.9-.9-5.7s0-2.1-.6-2.8c-.9-1.1-.5-2.2 1.6-4.9 2-2.7 2.5-4.2 2-6.4-.6-2.8-.8-2.9-4.2-1.9-4.8 1.3-8.1.3-8.9-2.7-.8-3.3-.1-4 5.3-5.5 2.7-.7 5.1-1.6 5.5-1.9.8-.7-1.8-28.5-2.8-30.2-.9-1.6-3.5-28.4-3.5-36.4 0-10.3 1.9-21.5 3.8-22.2.7-.3 1.3-.9 1.3-1.4S331.8 0 209.5 0H0z"/><path d="M422.6 11.2c1.3 6.2 3.9 24.3 5.9 40.3 4.5 35.8 4.6 36.1 7.1 35.7 10.4-1.6 11.3-1.6 12 1.2 1 4.1 0 5.2-6.6 7l-6.1 1.7.3 3.7c.3 3.3.6 3.7 4.3 4.7 6.7 1.7 7.6 2.6 9.1 10 .8 3.8 1.8 7.3 2.3 7.9s1.8 3.8 3 7.1c1.3 3.3 3.1 6.9 4.1 8s2.3 3.3 2.9 4.8c1.6 4 1.4 15.2-.4 24.4-.8 4.3-1.5 7.9-1.5 7.9 0 .1 1.7.4 3.8.7 2 .4 4.6.8 5.7 1.1 1.1.2 2.8.5 3.8.5 3 .2 1.8 2.1-2.5 4-4.2 1.8-8.1 5.5-10.5 9.7-2.4 4.4-3.7 14.2-2.5 19.7 1 4.7.4 16.8-.9 18.1-.5.5-3.8-1.4-8.5-4.9-2.2-1.6-2.4-1.3-17.3 28.1-8.3 16.3-15.1 29.9-15.1 30 0 .2.7.1 1.7-.3 1.4-.5 1.5-.1 1 2.8-.3 1.9-.9 4.3-1.2 5.4-.5 1.8.2 2.5 4.2 4.2 2.6 1.2 7.3 2.9 10.3 3.7 6.5 1.8 7.7 2.7 11.3 8.3 3.2 5 3.3 5.9 1 7.2-1.5.8-1.6 1.3-.5 2.8 6.7 9.7 7.3 11.5 4.1 14.9-2 2.1-3.1 2.5-6 2.1l-3.6-.5.5 9.7c.4 9.1.3 9.7-1.9 11.8-1.3 1.1-5.1 3.2-8.4 4.6-4.1 1.7-7.9 4.4-12 8.4-3.3 3.3-8.4 7.2-11.3 8.9-3.9 2.1-5.2 3.5-5.2 5.1v2.3h113V0h-91.6zM266.8 154.8c-.3 1.1.2 2.3 1.3 3 1.6 1 1.7.9.7-1.8-1.2-3.5-1.4-3.6-2-1.2m16.3 27.8c0 1.1.3 1.4.6.6.3-.7.2-1.6-.1-1.9-.3-.4-.6.2-.5 1.3m1.1 5.9c0 1.6.2 2.2.5 1.2.2-.9.2-2.3 0-3-.3-.6-.5.1-.5 1.8m5.4 2.9c-.9 2.1-1.6 4.2-1.6 4.7s3.2.9 7 .9c7.9 0 14.6-2.2 13.3-4.2-.4-.7-.6-2.2-.4-3.2.2-1.5-.1-1.7-1.6-1-1 .4-3.5.8-5.6.7-3.1-.1-3.8.3-4.3 2.2-.6 2.2-.6 2.3-2.4.5-.9-.9-2-2.4-2.2-3.1-.3-.8-1.2.2-2.2 2.5m-3.9 1.3c-1.1 1-.8 4.3.3 4.3.6 0 1-1.1 1-2.5 0-2.6-.2-2.9-1.3-1.8"/></svg>