<svg xmlns="http://www.w3.org/2000/svg" width="682.667" height="512" version="1.0" viewBox="0 0 512 384"><path d="M0 192v192h131.6c104.9 0 131.5-.3 131.1-1.3-.3-.6-1.3-3.2-2.3-5.7-2-4.9-7.4-13.9-11.1-18.4-8.3-10-16.4-28.7-13.2-30.7 4.7-2.9 29.1-1.6 55.9 3 5.8 1 10.7 1.6 11 1.4 2.1-1.9-12.3-49-17.5-56.9-2.5-3.9-5.4-14.7-6.4-24.1-.8-7-1.6-10.1-3.6-13.3-1.5-2.3-2.9-5.7-3.2-7.6-1.1-6.5 4-19.7 9.6-25 3.2-3 3.6-4.8 2.4-11.8l-.6-3.9-2.2 2.7-2.1 2.7.3-5.8c.2-3.2.5-6.4.8-7.2 1-2.7-2.7-19.3-4.7-21-1-.9-2.2-1.5-2.6-1.5-.4.1-2.7-1.5-5.2-3.6-2.5-2-5.6-4.1-7-4.5s-4.4-1.9-6.7-3.2c-4.8-2.8-8.8-9.9-11.9-21-1.6-5.7-1.6-6.7-.2-12 .9-3.2 3.6-10.6 6-16.5l4.5-10.6-4.6-2.4c-4.7-2.3-5.7-4.2-4.7-8.2.6-2.3 6.6-9.1 8.7-9.8 1.8-.6-2.1-6.7-6.1-9.6-3.5-2.7-3.3-3.5 2-6.2 6.4-3.3 12.6-4.3 15.4-2.5 2.3 1.5 2.4 1.5 3-1.6.3-1.7.6-4.2.6-5.4 0-3.9 3-3.9 6.9-.2 5.2 4.9 6.3 5 10.8 1.3 5.2-4.5 7.5-5.1 9.8-2.6 2.2 2.4 6.2 3.6 17.4 4.9 4.6.6 8.9 1.5 9.5 2.1.7.5 5.1 1.4 9.9 1.9 11.8 1.4 28.7 9 39.4 17.7 11.6 9.5 18.6 27.1 21.9 54.8.8 7.1 1.9 13.7 2.4 14.6.5 1 3.6 4.1 6.7 6.9l5.8 5.1h-6.2c-7.2 0-6.9-.6-4.8 10.3.8 4.3 1.5 8.7 1.5 9.8 0 1.9 0 1.9-1.9 0-1.1-1.1-2.9-4.7-4.2-8-1.2-3.4-2.4-6-2.6-5.7-.4.4 2.1 10.8 3.3 14.1.5 1.1.2 1.4-1 .9-1.4-.5-1.6.3-1.6 5.2 0 4.4-.3 5.5-1.2 4.6s-1.4-.7-2.3.5c-1.1 1.5-1.3 1.3-2-1.5-.3-1.8-1-3-1.5-2.7-.4.3-1.1-1.1-1.5-3.1-.8-4.5-2.2-3.4-2.7 2.1-.4 3.9-.4 3.9-1.6 1.5l-1.2-2.5.4 2.5c.3 1.4.8 4.5 1.2 6.9l.7 4.4-2.4-1.6c-1.3-.9-2.9-2.7-3.5-3.9-1.2-2.2-1.3-2.2-2-.3-1.4 3.8-4 3.6-5.7-.5-.3-.8-.5.7-.4 3.3l.2 4.9 7 .3c19.1.9 23.9 4 31.8 20.6 2.3 4.9 4.6 8.7 5.2 8.5.5-.1 2.6-3 4.7-6.4l3.8-6.2-3-2.7c-2.2-2-2.7-2.9-1.8-3.5 1-.6 1-1-.2-1.8s-1.2-1 .5-1c1.2 0 4.5-1.5 7.5-3.4 8.3-5.3 9.9-6.5 11.7-9.3 1.7-2.6 1.7-2.6-2.6-6.4-4.1-3.7-4.1-4.4.2-4 2.4.3 2.1-1.7-.9-8.5-2.2-4.8-2.8-7.8-3.1-16.4-.3-6.5 0-12.2.7-15 1.6-5.7 1.6-8.2.1-15.2-1.1-5.5-1.1-5.9 1.4-9.7 2.2-3.2 2.5-4.3 1.6-5.9-1-1.8-1.8-2-6.5-1.5s-5.5.3-6.5-1.5c-1.8-3.3-.3-5.1 5.6-6.8l5.6-1.6-.7-8.7c-.4-4.7-1.1-11.3-1.6-14.6-5.2-33.4-6-46.8-3.5-58 1.6-7.4 3.7-11.6 4.9-9.7 1.4 2.2 4.9 24 8.6 53.2 2.3 17.9 4.6 32.9 5 33.4.4.4 3.2.3 6-.3 5.9-1.3 8-.4 8 3.4 0 2.7-1.5 4.1-5.5 5-6.5 1.5-6.5 1.5-6.5 5.4 0 3.7.2 3.9 4.3 4.9 5.6 1.5 7.2 3.4 8.8 10.7.7 3.3 2.5 8.7 4.1 12 1.5 3.3 2.8 6.5 2.8 7.1s1.1 2.3 2.5 3.8c4.8 5.2 5.5 12.5 2.6 27.1l-1.8 9 4.6 1.2c2.5.7 5.9 1.4 7.4 1.7 4.4.7 4.3 1.3-.5 3.6-7.7 3.9-10.5 7.5-13.4 16.9-1.6 5.5-1.8 10-.4 13.6 1.1 2.8.4 14.3-1 16.5-.9 1.4-4.1.1-7.8-3.4-2.3-2.1-2.4-2.1-3.8-.1-.8 1.1-6.7 12.3-13.1 25-6.3 12.6-12.7 24.9-14 27.2-2.5 4.2-2.5 4.3-.4 4.3 2.5 0 2.5.5.7 5.8l-1.4 4 4.7 2.1c2.6 1.1 6.7 2.5 9.1 3 5.3 1.2 8.3 3.3 12.3 8.8 2.9 4 2.9 4.4 1.4 6.1-2.3 2.5-2.1 3.5.8 7 6.4 7.6 5.1 14.2-2.8 14.2h-4.2v10c0 11.3 0 11.3-9.5 15.2-3.8 1.5-7.1 4-10.6 7.8-2.9 3-7.9 7.1-11.3 9-4.5 2.6-6 4.1-6.1 5.7v2.3h106V0H0z"/><path d="M273 153.6c0 1.1.7 2.9 1.5 4 1.4 1.9 1.4 1.9 1.5-.2 0-1.1-.7-2.9-1.5-4-1.4-1.9-1.4-1.9-1.5.2m16.7 29.1c.8 6.3 1.3 6.7 1.3 1 0-2.5-.4-4.9-1-5.2-.6-.4-.7 1.1-.3 4.2m6 8.3c-1.2 3-1.3 4.2-.4 4.5 4.2 1.2 10.7 1.4 14.8.4 4.4-1.2 4.7-1.4 4.6-4.4l-.2-3.1-5.4.2c-4.5.2-5.7.6-6.7 2.6-.7 1.3-1.4 1.8-1.4 1.3 0-.6-.9-2-1.8-3.3l-1.8-2.4zm-3.5 4c0 1.4.2 1.9.5 1.2.2-.6.2-1.8 0-2.5-.3-.6-.5-.1-.5 1.3"/></svg>