<svg xmlns="http://www.w3.org/2000/svg" width="682.667" height="512" version="1.0" viewBox="0 0 512 384"><path d="M0 192v192h275.9l-2-4.8c-3.2-7.8-5.9-12.3-13.1-21.6-7.8-10.1-14.1-22.2-14.2-27.5l-.1-3.6 12-.3c12.9-.4 26.7.9 43.5 3.9 5.8 1 10.9 1.9 11.3 1.9 1.2 0 .1-6.1-3.4-20-3.6-14.5-7.5-25.9-12.9-37.9-4.1-9-6.9-20.5-7-28.4 0-2.3-1.2-5.9-3.1-9.3-2.9-5-3.1-6.1-2.6-11.7.6-7.6 3.4-14.3 8.1-19.5 2.1-2.3 3.6-5 3.6-6.4 0-4.1-1.2-11.8-1.9-11.8-.3 0-1.4 1.4-2.4 3.1-2.4 4.4-3 3.2-1.2-2.7 2-6.7 1.9-9.8-1.1-22.6-2.6-11.7-4.9-17.3-6.4-16.3-.7.4-.6 1.3 0 2.6.6 1 .8 1.9.5 1.9-.4 0 .4 1.7 1.6 3.7 2.6 4.3 2.6 4.2-6.2-2.9-2.5-2.1-5.1-3.8-5.9-3.8-2.4 0-9.8-4.9-12-8-2.4-3.4-5.7-12.4-7.1-19.4-1.1-5.9-.2-9.9 4.8-21.1 6.4-14.5 6.3-14.3 5-15.3-.7-.6-2.9-1.7-4.9-2.5-5.1-2.1-5.9-5.5-2.4-10.7 1.4-2.2 3.9-4.9 5.6-6.1 1.6-1.3 3-2.7 3-3.1 0-.5-2-3.1-4.5-5.7s-4.5-5-4.5-5.3c0-.7 10.8-5.4 14.2-6.2 2-.4 3.4 0 5.7 2l3 2.5.5-2.3c.3-1.3.7-4.2 1-6.6.2-2.4.7-4.6 1-4.9s2.6 1.3 5.1 3.6c2.4 2.2 5.3 4.1 6.4 4.1s4-1.6 6.6-3.5l4.6-3.6 5.2 2.5c3 1.4 8.7 2.9 13.6 3.5 4.7.6 9.4 1.7 10.5 2.4 1.2.7 3.9 1.4 6.1 1.5 16.4.8 42 14.3 50.5 26.7 6.5 9.4 11.8 28.1 13.9 48.7.8 8.3 1.4 10.4 4 14.2 1.7 2.5 4.5 5.4 6.1 6.6 1.7 1.2 3 2.6 3 3.1 0 1.3-8.4 1.1-9.8-.3-.9-.9-1.2-.6-1.2 1.4 0 2.8 1.7 16.6 2.6 20.8.8 4.1-1.2.5-4.8-8.8-1.7-4.5-3.6-8.2-4.1-8.2s-.6.8-.2 1.7c.4 1 .9 3.1 1 4.8.1 1.6.7 4.9 1.3 7.3 1 4.1.9 4.2-.7 2.8s-1.7-1.1-1 5.2c.4 3.7.5 6.9.3 7.1s-1-1.1-1.8-3l-1.4-3.4-.4 4c-.4 4-.4 4-1.2 1-2.1-8.1-3.2-10.9-4.4-11.3-1-.3-1.3.4-1.1 2.4.7 9.3-1 9.3-2.7.1-1.1-6.1-1.2-6.2-1.2-1.7-.1 2.5.3 7.6.8 11.5.5 3.8.7 7.1.6 7.2-.2.2-1.7-2.3-3.4-5.4l-3.1-5.8-.7 4.4-.7 4.4-2.6-3.2c-3.3-3.9-3.8-3.9-3.4.1.9 7.7.4 7.3 9.5 7.4 11.5 0 18.6 2.3 23.1 7.4 3.7 4.1 8.1 11.9 11.2 20.2 1 2.6 2.2 4.5 2.7 4.2.6-.4 2.8-3.4 4.9-6.8l3.9-6.1-3.1-2.9c-2.3-2-2.8-3-1.9-3.6.7-.4.9-1.3.6-1.9-.4-.6-.1-1.1.6-1.1 2.6 0 17.3-9.7 18.8-12.4 1.5-2.6 1.4-2.8-2.2-6.2-2.1-1.9-3.8-3.7-3.8-4 0-.4 1.4-.4 3-.2 1.7.3 3 .3 3 .2s-1.4-3.8-3.2-8.1c-4-9.8-5-23.2-2.4-33.1 1.6-6.2 1.3-14.5-.6-16.8-1.1-1.5.4-5.4 3-7.7 1.7-1.6 1.9-2.3 1-4.9-1-2.7-1.3-2.9-4.5-2.3-1.9.3-4 .8-4.6 1.1-2.4.9-5-2.1-4.3-4.9.5-2.1 1.6-2.9 6.1-4.2l5.5-1.6-.6-6.7c-.3-3.7-1.7-14.8-3.1-24.7-3.4-25-3.9-41.7-1.5-52 1-4.4 2.2-8 2.7-8 1.8 0 4.5 15.3 9 51 2.5 19.8 4.9 36.3 5.3 36.7s3.2.1 6.2-.7c6.1-1.6 8-.8 8 3.1 0 2.7-3.3 4.7-9.2 5.8-3.6.7-3.8.9-3.8 4.5 0 3.8.1 3.9 5 5.1 5.5 1.3 7.1 3.3 8.4 10 1 5.3 7.5 20.2 10.1 23 1.2 1.4 2.8 3.5 3.4 4.7 1.6 3 1.3 14.6-.4 22.3-.8 3.6-1.7 7.6-2.1 8.9-.4 1.9-.2 2.2 1.3 1.7 1.7-.7 13.3 2.4 13.3 3.5 0 .4-2.5 1.9-5.5 3.4-4.9 2.3-6 3.5-8.7 8.8-3.1 6-3.2 6.7-3.4 19.2-.2 17.4-.2 17.5-1.8 18.1-.8.3-3.4-.9-5.6-2.7-4-3.2-4.2-3.3-5.3-1.4-.7 1.1-7.7 14.1-15.6 28.9-10.3 19.3-14 27.1-13.1 27.6 1.2.7 1 3.3-.6 7.3-.6 1.7 6 5.2 11.9 6.4 4.8.9 10.5 4 11.2 6.2.3 1 1.4 2.6 2.5 3.6 2.4 2.2 2.5 4.3.4 6.6-1.5 1.7-1.5 2 .2 4.5 4.5 6.4 5.4 8.1 5.4 10.6 0 3.9-3.8 6.2-8.6 5.3-3.3-.6-3.6-.5-2.9 1.2.5 1 1 4.8 1.3 8.6.6 8.6-.9 11-9.4 14.8-3.5 1.6-6.4 3.3-6.4 3.8 0 1.8-9.8 10.5-16.3 14.3-3.7 2.2-6.6 4.6-6.4 5.2.3.8 14.2 1.2 48.5 1.4l48.2.2V0H0z"/><path d="M281.6 145.3c.3 1 .9 1.5 1.2 1.2s0-1.1-.7-1.8c-1-.9-1.1-.8-.5.6m18 30.6c-.7 1.1.1 14.8 1.1 18.4 1 3.7 1.6.6 1.4-7.4-.2-8.7-1.2-13.1-2.5-11m6.7 11.8-2.2 6.3h10.2c5.6 0 10.7-.4 11.3-.8.9-.5 1.7-7.2.9-7.2-.1 0-1.6.5-3.2 1.1-2.4.8-3.9.7-6.6-.5l-3.6-1.4-.6 2.9c-.9 3.9-2.5 4.7-2.6 1.2-.1-1.5-.4-3.9-.8-5.3-.6-2.2-1-1.8-2.8 3.7"/></svg>