<svg xmlns="http://www.w3.org/2000/svg" width="682.667" height="512" version="1.0" viewBox="0 0 512 384"><path d="M195.1 19.5c-2.5 2.5-3.9 4.5-3.3 4.5.9 0 .8.9-.4 3.1-1.1 2.2-1.2 3.5-.5 4.2.6.6.7 1.6 0 2.8-.5 1-.9 3.3-.9 5.1-.1 1.8-.1 7.5-.2 12.6-.1 7.1.2 9.6 1.3 10.4 1.1.7 1.1 1.1.1 1.5-.8.3-1 .9-.3 1.6.5.7.9 1.6.8 2.1-.4 1.8 5.3 2.4 11.2 1.2 7.1-1.5 7.1-1.4-.7 9.4-7.1 9.9-8.5 12.7-7.8 15.6.7 2.6 4.1 4.4 8.2 4.4 1.3 0 2.4.2 2.4.5 0 .7-3.9 31.6-4.6 36-.5 3.7-.5 3.9.9 2 .9-1.2 2.7-6.1 4.1-11 1.4-5 2.4-7.4 2.2-5.5-.3 1.9-.8 9.6-1.2 17.1l-.7 13.7-4.3 3.6c-5.6 4.7-6.8 7.1-8.9 17.6-1.9 10-4.5 19.8-5.7 22.3-.6 1.2-1.4 1.5-2.6.8-.9-.5-3.6-1.2-5.9-1.6l-4.2-.7 1.9 5.8c2.6 7.5 2.5 12-.5 18.7-1.3 3.1-4.1 10-6.1 15.4-4.1 11-13.9 33.1-20.8 47.1L144 289l1.5 11.8c1.1 8.6 1.5 18.9 1.3 38.7-.3 30.5.2 33.8 5.9 39.1 5.5 5.2 5.7 5.2 7 3.5 1.1-1.4 1.2-1.4 1.3.1 0 1.7 4.4 1.8 78.4 1.8h78.4l1-2.8.9-2.7 1.6 3c1.5 2.7 1.7 2.8 1.2.5-.5-1.9-.1-2.7 1.6-3.5 1.2-.6 3.2-2.3 4.3-3.8 1.8-2.5 2.1-4.3 2.1-14.5 0-6.4-.4-14.5-.8-17.8l-.8-6.2 3.3-1.9c3.8-2.2 6-8.3 6.2-16.9.1-4.3-.5-5.9-3.7-10.7-3.6-5.5-3.7-5.8-2.1-8.1.9-1.5 2.2-2.2 3-1.9.9.3 1.4-.2 1.4-1.4 0-1.1.3-2.3.7-2.7 1-1 .3-10.9-.9-12.3-.7-.9-.7-1.3.1-1.3.7 0 .9-.5.6-1-.4-.6-.8-2.7-1-4.8-.7-7.3-2.7-19.7-3.6-22-.5-1.3-.7-2.7-.4-3.2.5-.7-2-13.7-3.2-17-.3-.8-.7-2-.8-2.5-2.1-8.6-3.9-14.4-5.2-16.3-.8-1.3-1.2-2.6-.9-2.9s0-1.8-.8-3.2c-.7-1.4-3.6-7.3-6.5-13.1-6.7-13.6-9.8-19.2-14.7-26.5-6.9-10.2-9.4-15.1-9.1-17.6.2-1.2.8-2.4 1.3-2.6 1.4-.5.8-27.9-.7-27.5-2.2.5-.2-9.3 2.7-13.8 3.2-4.8 4.1-4.6 2 .4-2 4.8-.2 3.6 2.6-1.7 1.7-3.1 2.2-6.1 2.3-11.6.1-6.4.4-7.5 1.9-7.7 2-.3 7.9-5.5 7.1-6.2-.3-.3.6-2 2-3.8s2.5-3.9 2.5-4.7.9-2.2 2-3.2 2-2.6 2-3.5c0-1 .6-2.3 1.4-2.9 2.6-2.2 6.6-11.5 6.2-14.6-.4-4-4.1-6.4-16.3-10.5-8.4-2.9-11.2-3.4-19.8-3.4-11.2-.1-16.6 1.3-18.9 4.9l-1.6 2.4-2.8-2.8c-4.2-4.2-18.1-6.8-21-3.9-1 1-1.4.8-1.8-.9-1.3-4.7-14.8-11.5-28.7-14.4-13.9-2.8-15.4-2.7-20.6 2.6m9.3 216.7c-.9 3.8-1.8 6.7-2.1 6.5-.6-.7 1.7-20.9 2.5-22.2 1.5-2.2 1.2 9.3-.4 15.7m77.1 10.1c0 24.8 1.5 46.6 3.5 53.8 1.8 6.2.2 4-2-2.8-1.3-3.7-3.1-8.5-4.2-10.6-1.4-2.9-1.7-4.5-1-6.5.5-1.5.5-5.5.1-9.2-.5-3.6-1.1-12.6-1.5-20-.6-12.1-.4-14.3 1.6-21.5 2-7.3 2.8-9.5 3.3-9.5.1 0 .2 11.8.2 26.3m31.6-16.1c.6 2.4 1.3 5 1.4 5.9.2.9.8 3.4 1.4 5.5s.8 4 .6 4.2c-.8.9-3.2-6.1-3.9-11.3-.4-2.8-.9-5.8-1.2-6.8-.3-.9-.3-1.7 0-1.7s1 1.9 1.7 4.2M304 354.7c4.9 10 10.1 19.5 11.5 21.1 2 2.4 2.2 3.2 1.2 4.6-1.1 1.5-2.9-1.7-13.4-23.6-10.7-22.2-15.4-34.3-15.3-38.9.1-.8 1.6 3.1 3.5 8.6s7.5 18.2 12.5 28.2"/></svg>