<svg xmlns="http://www.w3.org/2000/svg" width="682.667" height="512" version="1.0" viewBox="0 0 512 384"><path d="M0 192v192h138c97 0 138-.3 138-1.1 0-3.3-7.6-16.6-14-24.4-7.7-9.5-16-25-16-30v-2.7l20.3.5c18.5.4 39.9 2.9 46.2 5.3 1.7.7 1.8.2 1.2-5.7-.9-8.5-7.6-32-12.7-44.4-7.2-17.4-8.9-22.8-9.9-32.5-.8-7.3-1.7-10.9-4.1-15.4-1.6-3.2-3-6.5-3-7.2s1.1-4.9 2.5-9.2c1.8-5.7 3.7-9.2 6.6-12.6l4.1-4.6-1.2-7c-.6-3.9-1.3-7-1.5-7s-1.3 1.5-2.5 3.2l-2.1 3.3.7-4c.4-2.2 1-5.6 1.4-7.6.4-2.4-.1-7.5-1.6-15-2.6-12.7-5.2-19.5-6.7-18-.7.7-.6 1.5.3 2.6 1 1.2 1 1.5 0 1.5-.7 0-.1 1.5 1.4 3.5 1.5 1.9 2.5 3.5 2.2 3.5s-3.1-2.1-6.1-4.6c-3.1-2.5-7.1-5.1-8.8-5.7-5.5-1.8-10.3-5.6-12.1-9.4-2.6-5.4-6.6-18.2-6.6-21 0-2.7 4.6-17.1 6-18.8 1.6-2 5.1-12.5 4.5-13.5-.4-.6-2.3-1.8-4.2-2.8-7.1-3.4-6.9-7.8.6-15.1 5.5-5.3 5.5-5.8-.6-12.2-3.9-4.2-3.7-4.6 4.5-7.8 6.9-2.7 10.7-2.7 12.6.1 2.1 2.9 2.7 2 3.5-5.1.4-3.3 1-6.4 1.4-6.7.4-.4 2.7 1.2 5.2 3.5 2.4 2.2 5.4 4.1 6.6 4.1s4.2-1.7 6.7-3.7c3.6-3 4.7-3.4 6.1-2.5 3.6 2.6 8.6 4.2 16.4 5.2 4.5.6 9.8 1.7 11.7 2.4 1.9.8 6.8 1.9 10.8 2.5s10.2 2.5 13.9 4.1c3.6 1.7 6.9 3 7.3 3s4.1 2.2 8.1 4.9c8.7 5.7 15.3 12.1 18 17.2 5.7 11.3 10.1 28.5 11.5 44.9.8 10.1 2.7 14.3 8.9 19.8 2.5 2.2 4.5 4.3 4.5 4.7s-2.7.5-6 .3-6-.1-6 .4.7 5.2 1.5 10.4c.9 5.3 1.5 10.4 1.3 11.3s-1.9-2.5-3.7-7.4c-1.9-5-3.8-9.5-4.3-10-.5-.6-.5.2.1 1.7.7 1.9.7 2.8-.1 3-.8.3-.8 1.4 0 3.8.5 1.9 1.3 4.8 1.7 6.4.6 2.6.4 2.8-1 1.6s-1.5-.7-.9 5.6q1.05 10.65-2.4 2.1c-1.1-3.1-1.2-3-.6 1.8.8 6.9-1 4.7-2.6-3.3-1.5-7.2-4-8.7-4-2.3 0 6-1.7 5.8-2.4-.2-.4-2.9-1.2-5.9-1.7-6.7-1-1.5-.8 3.2.7 17.5l.5 5-2.5-4c-4.6-7.4-4.5-7.3-4.5-3.4-.1 2.5-.6 3.6-1.6 3.6-.8 0-1.5-.6-1.5-1.2 0-.7-.9-2-2-3-2-1.8-2-1.7-2 1.9 0 6.2 1.5 7.9 6.1 7.1 6.5-1.1 21.3 2.1 25.3 5.4 3.4 2.8 9.3 12.9 12.1 20.6 1.5 4.1 3 7.5 3.4 7.5.3 0 2.7-3.3 5.4-7.3l4.7-7.2-3.2-2.8c-3.2-2.7-3.2-2.9-1.4-4.3 1.5-1 1.6-1.4.5-1.5-.8 0-.3-.5 1-1 7.1-2.8 19-11.6 19.1-14.1 0-.5-1.6-2.6-3.6-4.7-3.5-3.9-3.5-4-1.1-4.3l2.4-.3-3.4-9c-3.4-8.7-3.5-9.3-3.1-20.1.3-9.1.8-11.8 2.6-14.7 2.1-3.6 2.1-3.8.5-10.1l-1.7-6.4 2.5-3.3c1.8-2.5 2.4-4.1 1.9-5.9-.7-2.6-1-2.7-8.1-1.4-3.3.6-3.7.4-4.3-2.1-.9-3.5.4-5 5.9-6.5 2.5-.7 4.8-1.7 5.1-2.1.3-.5-.2-6.4-1-13.1-3.9-30.9-5.6-46.8-5.6-53.2 0-7.2 3.6-24.6 5-24.6 2.1 0 4.4 14.1 9 55 3.2 29.2 3.8 33 4.8 33 .4 0 2.9-.7 5.6-1.5 5.5-1.7 7.6-.9 7.6 3 0 2.9-1.4 4-7.5 5.8-4.7 1.3-5 1.6-5.3 5-.3 3.5-.2 3.6 4 4.7 5.6 1.5 7.6 3.4 8.3 7.9.4 2 2.2 7 4.1 11.1 1.9 4.2 3.4 8.1 3.4 8.8 0 .6 1.5 2.2 3.4 3.4 6.9 4.5 8.1 12 4.6 27.6-1 4.9-2.2 9.6-2.6 10.5-.5 1.4.1 1.7 4 1.7 4.1 0 10.6 2.2 10.6 3.5 0 .3-2 1.4-4.4 2.5-6 2.9-8.4 5.4-11.4 11.9-2.4 5.1-2.6 6.9-2.7 19.2-.1 7.4-.5 14-.9 14.7-1.2 1.9-3.3 1.4-6.9-1.8-1.9-1.7-3.7-3-4-3-.7 0-8.5 14-19 34-4.2 8-9 16.9-10.7 19.7-1.7 2.9-2.5 5.3-1.9 5.3 1.1 0 .9 3.9-.5 7.2-.9 2 4.6 5.2 10.9 6.4 6.1 1 10.1 3.5 13.4 8.1 3.6 4.9 3.7 5.9 1.5 8.5-1.6 1.7-1.5 2.1 2 6.5 4.5 5.8 4.9 10.4 1.1 12.9-1.6 1-3.6 1.4-5.4 1.1l-2.8-.6.5 9c.6 10.5.1 11.4-9.1 16.1-3.2 1.6-8.4 5.5-11.5 8.6-3.1 3.2-8.3 7.3-11.4 9.2-3.6 2.1-5.8 4.1-5.8 5.2 0 1.7 2.6 1.8 48 1.8h48V0H0z"/><path d="M299.6 175.5c-.9 2.3 1.5 19.5 2.7 19.5.6 0 .8-3.7.4-9.6-.5-9.4-1.8-13.3-3.1-9.9m6.6 12.4-2.1 6.1h8.2c4.5 0 9.8-.5 11.8-1 3.2-.9 3.5-1.3 3.5-4.5 0-2.6-.4-3.4-1.4-3-4 1.5-6.4 1.5-9.3.1-1.8-.9-3.3-1.6-3.4-1.6s-.5 1.9-.9 4.2c-.5 3.2-.9 3.9-1.6 2.8-.5-.8-1-2.6-1-4-.1-5.6-1.7-5.2-3.8.9"/></svg>