<svg xmlns="http://www.w3.org/2000/svg" width="682.667" height="512" version="1.0" viewBox="0 0 512 384"><path d="M0 192v192h138.5c76.2 0 138.5-.2 138.5-.5s-1.2-3.3-2.6-6.7c-3.3-7.9-7.7-14.6-14.7-22.6-5.8-6.7-14.7-22.7-14.7-26.7 0-2.5.7-2.7 13.5-4 9-.9 50.5 3.5 56.8 6 1.4.6 1.7.2 1.7-2 0-8.8-9.1-40.8-16.9-59.6-4.2-10.1-5.6-16.2-6.5-27.7-.4-4.4-1.5-9-2.7-11.4-3.1-6-2.2-12 3.1-22.4 3.9-7.6 4.3-9 4.1-14.6-.4-8.6-1.2-9.8-4-5.6l-2.3 3.3.7-3c2-9.7 2.4-13.3 1.9-16-2-10.9-4.7-21.5-5.5-21.5-.5 0-.8-.3-.8-.8.3-1.7-.2-3.2-1-3.2-1.4 0-.7 4.5 1.2 7.4 2.4 3.6 1.2 3.3-4.1-1.2-2.5-2-7.3-5.1-10.6-6.7-7.2-3.6-10.4-7.9-13.5-18.2-3.6-12.2-3-17.2 4.3-32.4 2-4.2 3.6-8.3 3.6-9.2s-1.5-2.4-3.2-3.3C260 79 258 77 258 74.5c0-3 5.3-10.1 9-12 3.5-1.8 3.2-3.1-2.6-9.5-1.9-2-3.4-4-3.4-4.4s2.8-2 6.3-3.6c7.5-3.6 12-3.9 14.1-.9 2.1 3.1 3.6 1.4 3.6-4.2 0-2.8.5-5.9 1.1-7.1 1.1-2 1.2-1.9 4.2 1 7.1 6.8 9.7 7 16.5 1l3.3-2.8 2.8 2c4.2 2.9 7.1 3.8 16.8 5.1 4.8.6 9.9 1.8 11.3 2.7s5.5 2.2 9.2 2.8c3.6.7 9.3 2.4 12.5 4 3.2 1.5 7 2.7 8.5 2.5 1.8-.1 3 .4 3.8 1.8.6 1.2 3.4 3.6 6.4 5.5 10.5 6.7 16.1 14.8 21 30.3 2.7 8.9 5.6 24.7 5.6 31.5.1 6 3.2 12.4 9.3 18.7l5.2 5.3-6.4-.4-6.4-.4.7 11.5c.8 12.8.2 13.1-4.3 2.1-4.1-9.8-5.5-8.7-2.6 2 1.7 6.5 1.9 8.3.5 7.5-.6-.4-1 1.6-1.1 5.2-.1 5.7-.1 5.8-1.4 2.8l-1.4-3-.2 3c-.1 2.6-.3 2.5-1.3-1.5-1.5-6-2.6-7.7-3.7-5.9-.5.8-.9 2.7-.9 4.4 0 2.3-.3 2.7-1 1.5-.5-.8-1-2.7-1-4.2 0-3.4-.9-5.8-2.2-5.8-.7 0-.8 3.6-.4 10.5.4 5.8.5 10.5.2 10.5-.2 0-1.5-2-2.7-4.5-2.2-4.4-3.8-4.5-3.9-.3 0 2.9-2.4 2.1-4.5-1.4l-1.9-3.2-.9 2.8c-.8 2.4-.5 3.2 1.7 5.4 2.4 2.5 3.3 2.7 12.7 2.9 5.5.1 11.5.7 13.3 1.3 6.9 2.3 15.1 13.6 18.7 26 1.2 4.4 2.6 8 2.9 8 .5 0 9.8-12.6 12.4-16.8.5-.9-.1-2.3-2-4.3-2.2-2.3-2.5-3.1-1.5-4.3.7-.8 1-2 .6-2.5-.3-.6.7-1.3 2.2-1.7 6.9-1.7 17.3-9.4 17.3-12.7 0-.6-1.2-2.4-2.7-3.9-2-2.1-2.3-2.8-1.1-2.8 1.4 0 1.5-.5.8-3.1-.5-1.7-1.3-3.6-1.8-4.2-.5-.7-2-4-3.2-7.4-2-5.4-2.2-7.7-1.8-16.2.5-10.4 1.3-12.6 6.5-18.3 2-2.1 2.4-3.2 1.8-5.6-.3-1.7-1.3-3.3-2.1-3.6-2.1-.8-1.7-2.9 1.6-7.4 4.7-6.6 3.8-9.1-2.7-7.3-7.9 2.2-8.8-5.6-1.1-8.1 4.1-1.4 4.3-1.7 4.6-5.9.2-2.4-.6-17.3-1.9-33.1-2.4-29.7-2.4-29.9.8-48.6l.5-3.2H0z"/><path d="M456 1.2c0 .7.5 3.1 1 5.3.8 3.5 2.7 25.6 5.9 66.2.5 6.1 1.2 11.6 1.5 12.1.3.6 2 .5 4.3-.4 5.3-1.8 7.1-1.7 7.8.6 1 3.2-.3 5.7-3.8 7-7.8 2.9-7.7 2.8-7.7 6.5 0 2.5.5 3.7 1.8 4.1 5.2 1.6 8 3.5 8.5 5.6.8 3.6 7.8 19.1 9.3 20.8.8.8 3.3 2.3 5.6 3.5 5.3 2.5 7.1 6 7 13.4-.1 4.9-3.6 21.1-5.7 26.4-.7 1.6-.4 1.7 2.1 1 4.5-1.2 8.6-.5 10.8 1.6 1.1 1.1 1.8 2.2 1.5 2.3-.2.2-3 1.6-6.2 3.1-4.5 2.1-6.4 3.8-9.1 8-4.7 7.4-6.7 15.4-5.7 23.9.5 4.8.3 7.1-.6 8.4-.7 1-1.3 2.6-1.3 3.6 0 3.3-2.9 3.2-7.1-.2-4.4-3.5-4.7-3.4-7.6 2-20.3 36.7-28.9 51.4-32.1 55.2-.8.9-1.2 2.1-.9 2.6.3.4-.1 2.8-.9 5.1-1.9 5.5-1 6.6 6.4 8.2 9.7 2 12.2 3 13.9 5.7.9 1.5 2.5 3.6 3.5 4.8 1.8 2 1.8 2.2.1 5.1l-1.7 3 3.7 4.3c6 7.1 4.4 14-3.2 14-2.8 0-3.2.3-2.6 1.7 1.5 3.8 2.8 13.1 2.1 15.6-.4 1.9-2.6 3.8-7.4 6.7-7.4 4.4-9.3 4.8-11.2 2.5-1.1-1.4-1.9-1-5.9 3.2-2.5 2.7-6.7 6.3-9.3 8-4.5 3.1-4.8 3.5-4.8 7.8v4.5h94V0h-28c-21.7 0-28 .3-28 1.2"/><path d="M456.6 137.7c1.1 4.6 1.8 4.6 2.9 0 .6-2.3.4-2.7-1.4-2.7s-2 .4-1.5 2.7M302 177.4c0 8.3 1 15.7 2.1 15 1-.6 1.2-12.1.3-17.7-1-5.9-2.4-4.3-2.4 2.7m6.6 7.3c-.9 2.6-1.6 4.8-1.6 5.1 0 .8 22.5-.3 23.8-1.1.7-.5.9-1.4.5-2-.4-.7-.6-1.9-.5-2.8.2-1.4-.4-1.6-4.2-1.2-3.3.4-5.3.1-7.2-1.2-3.1-2-3.6-1.6-5 3.8l-1.1 4.2-.8-4.3c-.4-2.3-1.1-4.5-1.5-4.7-.5-.3-1.5 1.6-2.4 4.2"/></svg>