<svg xmlns="http://www.w3.org/2000/svg" width="682.667" height="512" version="1.0" viewBox="0 0 512 384"><path d="M0 192v192h137.3c75.6 0 137.6-.2 137.9-.6.7-.6-2.3-8.8-5.7-15.4-1.3-2.6-5.2-8.5-8.7-13.1-11.2-14.8-14.7-21-16.3-28.6-.7-3.6-.6-3.7 13.6-4.8 12.7-.9 51.3 3 59.4 6.2 1.5.5 1.6-.1 1-5.3-1.2-9.8-8-35-13.5-49.9-6.8-18.5-7.7-22-8.9-34.6-.5-6.3-1.6-12-2.6-13.9-2.4-4.6-1.5-9.5 3.5-19.7 4-8.2 4.1-8.6 3.4-15.4-.7-7.7-1.6-9.1-3.2-5.4-1.3 2.8-3.8 3.5-2.7.7 2.4-5.5 2.7-12.7 1.1-21.1-1-4.7-2.2-8.8-2.8-9-.5-.2-3.3-2.3-6.2-4.7-2.8-2.4-7.9-5.7-11.4-7.4-4.3-2.2-7-4.3-8.6-6.9-3.5-5.5-6.1-15.6-6.1-23.6 0-6.2.5-8.1 4.3-16 5.5-11.6 5.8-14.4 1.5-16.6-5.1-2.6-6.3-3.9-6.3-7.2 0-2.2 1.2-4.1 4.8-7.7 2.6-2.6 5.4-4.9 6.1-5.2 1.2-.3 1.1-1.1-.6-3.9-1.2-1.9-3.3-4.5-4.7-5.8-1.4-1.4-2.6-2.8-2.6-3.2 0-1.2 10.1-5.7 14.3-6.5 3.3-.6 4.2-.3 6.7 2.1l2.8 2.7.7-4.4c1.4-9.1 1.7-10.8 2.3-10.8.3 0 2.7 1.8 5.3 4s5.6 4 6.7 4 3.9-1.6 6.3-3.5c5.1-4 6.1-4.2 11.2-1.6 2 1 7.9 2.7 12.9 3.6 5.3 1 10.5 2.5 12.1 3.7 1.5 1.1 5.6 2.6 9.1 3.3 3.4.7 9.2 2.7 12.9 4.3 3.6 1.7 7.5 2.8 8.6 2.5 1.3-.3 2.1.1 2.5 1.4.4 1 2.9 3.1 5.7 4.8 6.2 3.6 12.9 10.7 15.9 16.6 5.1 10 9.1 25.1 10.9 42.1 1.2 10.8 3.6 16.1 9.9 22 2.8 2.6 4.7 4.9 4.4 5.2-.9 1-6.9.7-9.7-.4l-2.7-1 .6 7.2c.4 4 .9 9.5 1.2 12.2.5 3.4.3 4.7-.5 4.2-.6-.4-1.1-1.4-1.1-2.2s-.4-1.4-.9-1.4-1.9-2.6-3.1-5.8c-4.1-10.3-5-9.6-2.4 2.1 1 4.3 1.3 7.2.7 7.4s-.8 2.5-.5 5.3c.5 5.3-.2 6.1-2.4 3.2-1.3-1.6-1.4-1.6-.8 0 .3 1 .2 1.8-.4 1.8-.5 0-1.2-1.9-1.5-4.1-.8-6.1-2.5-7.1-3.3-2.1-.9 5.7-2 5.3-2.6-.8-.6-5.6-1.1-6.6-2.9-5.5-.8.6-1 3.1-.5 9.2.4 4.6 1 9.2 1.3 10 1.3 3.3-1.7.1-3.9-4l-2.1-4.2-.9 3.2c-.5 1.8-1.2 3.3-1.7 3.3-.4 0-2-1.7-3.4-3.7l-2.7-3.8v3.5c0 1.9.9 4.6 1.9 5.9 1.7 2.2 2.3 2.4 11.8 2.2 12.2-.3 16.7 1.3 22.3 7.6 4.8 5.4 8.2 12.5 10.5 21.3.9 3.6 2 6.8 2.3 7.2.7.7 10-11.3 13.7-17.7l2-3.5-3-2.5c-3-2.5-3-2.5-1-4.1 1.4-1.1 1.6-1.8.8-2.1-2.1-.8-1.5-2.3 1-2.3 2.9 0 13.7-5.7 15.9-8.4 2.3-2.8 2.2-5.9-.2-8.1-1.5-1.4-1.7-2.1-.9-3.1s.3-3-2-7.9c-4.2-9.1-5.3-16.1-4.1-26.4.9-7.7 1.3-8.8 5-13.2 4.1-4.9 5.4-9.9 2.5-9.9-2.3 0-1.8-4.3 1-8.4 4.2-6.1 3.2-8.2-2.9-6.4-3.3 1.1-4 1-5.1-.5-2.6-3.6.1-6.7 7.8-9.1 2.2-.7 2.2-5.6.2-26.6-1.8-17.8-2.1-49.8-.5-55 .5-1.9 1-3.6 1-3.7 0-.2-103-.3-229-.3H0zM462.4 3.2c.8 4.6 3.3 33.6 4.7 56.3.6 10.4 1.5 19.7 2 20.6.8 1.5 1.2 1.5 5.5.1 4.4-1.4 4.8-1.4 6 .3.8 1 1.4 2.4 1.4 3.1 0 1.9-4.8 5.3-8.6 6-3.2.6-3.4.9-3.4 4.5 0 2.9.5 4.1 1.8 4.5 5.8 1.9 7 2.7 8 5.7.5 1.8 2.8 7.2 5 12.1 3.8 8.6 4.1 9 9.5 11.7 4.5 2.3 5.8 3.5 6.7 6.5 1.7 5.2.7 16.2-2.4 25.9-1.4 4.4-2.6 8.3-2.6 8.7s2.3.4 5.1.1c4.2-.5 5.5-.2 8 1.6l2.9 2.2V0h-50.2zm-2 128.7c1.4 5.2 1.8 6.1 2.6 5.6.4-.3 1.3-1.8 1.8-3.4 1-2.7.9-2.9-1.9-3.3-2.3-.4-2.8-.1-2.5 1.1"/><path d="M289.4 144.2c.3.9 0 1.8-.7 2.1-.7.2-.2 1.6 1.3 3.7 3.1 4.3 3.6 2.6 1-3.1-1.1-2.4-1.8-3.6-1.6-2.7m15.1 34c.8 10.5 1.9 14 3.1 9.5 1.1-4.8-.9-18.7-2.8-18.7-.7 0-.8 3.2-.3 9.2m200.9-2.4c-5.2 2.1-6.8 3.5-10.4 8.7-4.3 6.2-6.2 13.9-5.6 22.9.3 4.1 0 7.8-.5 8.1-.5.4-.9 1.4-.9 2.4 0 .9-.6 2.6-1.4 3.6-1.3 1.8-1.4 1.8-4.2 0-1.6-1-3.3-2.4-3.7-3.2-1.4-2.3-3.4-1.4-5.5 2.4-5.7 10.9-25.4 45.8-28.2 50-1.8 2.6-4.5 6.1-6 7.8-2.3 2.5-2.9 4.3-3.4 10.2l-.7 7.2 3.8 1c2.1.5 5.6 1.2 7.8 1.6 3 .5 5.1 1.8 8.3 5.2 4.5 4.8 4.9 6.2 3 9.2-.9 1.6-.6 2.5 2.4 6.2 1.9 2.4 3.8 5.6 4.2 7 .8 3.7-2.6 7.9-6.5 7.9-1.6 0-2.9.1-2.9.2 0 .2.7 2.5 1.5 5.2 2.3 7.6 2 12.3-1.1 15.1-3.1 2.9-11.1 7.5-12.9 7.5-.7 0-2.4-1.1-3.7-2.5-3.1-3-4.7-2.6-10.3 2.4-2.2 2-5.1 4.4-6.4 5.3-1.8 1.3-2.5 2.9-2.9 6.7-.2 2.7-.2 6.1.2 7.5l.6 2.6h92V279c0-83.4-.3-105-1.2-104.9-.7 0-3.2.8-5.4 1.7m-187.9 4.4c-.4 1.8-.9 4.1-1.2 5.2-.5 1.7.1 1.8 8 1.5 4.7-.2 8.8-.6 9-.9.3-.3.3-1.7 0-3.1-.5-2.5-.8-2.6-4.3-2.2-2.9.4-4.6 0-6.8-1.6-1.7-1.1-3.2-2.1-3.5-2.1s-.8 1.5-1.2 3.2m-5.5-2c0 .2-.7 2.4-1.5 5.1l-1.4 4.7 2.7-.6c1.5-.4 2.8-.8 3-.9.7-.5-1.1-8.5-1.9-8.5-.5 0-.9.1-.9.2"/></svg>