<svg xmlns="http://www.w3.org/2000/svg" width="682.667" height="512" version="1.0" viewBox="0 0 512 384"><path d="M0 100v100l2.8.6c1.5.3 6 1.5 10 2.5 7.6 2.1 9.2 1.9 9.2-1 0-1.1.8-2.9 1.9-4.2 1.5-1.9 2.1-2.1 3.3-1.1.8.6 1.7 1 2 .7s2.5 1.5 5 4c4.2 4.1 4.9 4.5 9.6 4.5 6.9 0 15.1-3.9 16.8-7.9.7-1.7 1.8-3.1 2.4-3.1 1.5 0 1.2 3.6-.4 4.9-1 .8-1.2 2.1-.6 4.7.5 2 1 3.8 1.3 4 .2.2 11.2 1.1 24.3 1.9 25.4 1.6 39.8 3.1 42.3 4.5.9.4 11.1 2.5 22.7 4.5l21.2 3.7 2.8-2.1c2.9-2.1 3-2.1 9.8-.4 6.3 1.5 6.9 1.5 7.8 0 1.4-2.5 9.1-6.7 12.4-6.7 4.3 0 12.7 3.5 22.7 9.3 14.5 8.6 14.8 8.7 21.2 8.8 3.3 0 8.2.4 11 .8 4.6.8 5.5.6 12.7-3.3 7.6-4 7.8-4.2 7.8-8v-3.8l-2.5 1.6c-3.5 2.3-4 2.1-9.3-2.7-2.6-2.4-6.8-5.3-9.4-6.5-2.7-1.2-4.8-2.6-4.8-3.1 0-1.9-3.2-4.1-5.9-4.1-1.5 0-3.6-.6-4.6-1.4-1.9-1.4-1.9-1.5.4-5.6l2.4-4.3-2.3-1.7c-1.3-1-5.5-2.3-9.4-2.9-3.9-.7-8.2-1.4-9.4-1.7-1.3-.3-4.6-2.6-7.3-5.1-2.7-2.6-4.7-3.9-4.3-3 .3.9.2 1.7-.4 1.7-.5 0-2-2.5-3.2-5.5-2.4-5.9-3.3-6.1-5.5-1.2-1.2 2.9-1.3 1.7-.9-11.8.5-16.6 1.9-29.3 3.7-33.4.6-1.4 2.6-5 4.4-7.9s3.3-6 3.3-6.8c0-.9-1.7-4.7-3.7-8.5-3.2-5.9-3.5-7.2-2.7-10 .6-2.1 1.8-3.5 3.1-3.9 1.1-.3 4-2.1 6.3-4 6.5-5.4 8.6-5.8 12.2-2.4 1.6 1.6 3.9 4.6 4.9 6.7l2 3.7 5.7-3.7c3.1-2 7.1-4.4 8.7-5.4 1.7-1 4.5-3.9 6.3-6.4 3.5-5 5.2-5.5 8.1-2.4 1.1 1.2 2.4 1.9 2.9 1.5.5-.3 4-1 7.9-1.6 11.7-1.8 18.3-.3 36.3 8.7 20.3 10 24.1 13.8 33.1 32 6.8 13.8 9.2 17.3 12.1 17.3 2.3 0 6.7-2.2 12.7-6.3 4.5-3.1 4.6-2.6.3 3-2.9 4-1.7 4.3 5.3 1.3 6.3-2.7 6.4-2.6 1.4 2-5.1 4.5-4.3 4.8 6 2 4-1.2 7.5-1.9 7.8-1.6.6.5-14 9.6-15.5 9.6-.7 0-1.2.4-1.2 1 0 1.3-.6 1.3 8.6-1 4.3-1 8-1.7 8.2-1.5.5.4-4.5 2.6-10.3 4.5-5 1.5-7.3 3.4-3 2.4 1.7-.4 4.9-1.3 7.3-2 3.7-1.1 4.1-1 3.1.2-.6.8-1.5 1.4-2 1.4s-1.8.9-2.9 2l-2 2h4c2.2 0 4 .4 4 .8s-1.7.7-3.7.5c-3.2-.2-3.4-.1-1.3.6l2.5.8-2.7 1.3c-3.9 1.8-3.5 3 1 3.1l3.7.1-3 1c-1.6.6-5.9 1.6-9.5 2.3s-5.6 1.4-4.5 1.5l2 .1-2 .9c-1.5.6-.5.9 3.4.9 5 .1 5.3.2 3.5 1.6-1 .8-2.7 1.5-3.7 1.5s-1.5.4-1.2 1c.3.5.1 1-.5 1-1.6 0 2.2 4.9 4 5.1 4.4.4-15.2 4-25 4.6l-11.5.7 7.5 1.8c4.1 1 9.4 1.7 11.7 1.6s4.6.2 5 .6c1.2 1.3-27.5-.3-34.2-1.9-7.3-1.7-8.5-1.8-8.5-.4s5.6 3.7 17 7c8.9 2.6 9.2 2.7 5 2.8-2.5.1-6.1-.3-7.9-.9-4.9-1.4-4.9-.6.1 2.4l4.3 2.6h-4.6c-4.8 0-9.4-2.3-15.2-7.8-2.4-2.2-2.9-2.4-3.7-1.2-1.4 2.2-1.3 2.4 2.1 4.9s3.3 3.9-.1 2.1c-2-1.1-2.1-1-1.5 1.2.3 1.2 2.7 4.3 5.3 6.7 2.6 2.5 4.1 4.1 3.5 3.7-.8-.4-1.3-.2-1.3.5s.9.9 2.8.5c1.5-.4 9.2-1 17.2-1.3 16.8-.6 17.2-.4 19.6 8.9 1.8 6.6 5.8 12.5 10.3 14.8 2 1 7.2 2.8 11.6 4 10.4 2.9 20.3 8.1 23.9 12.6 2 2.5 3.2 5.6 4 10.3 1 5.9 1.6 7.2 5.4 10.7 2.7 2.7 4.2 5 4.2 6.5 0 1.8 1.9 4.1 6.8 8.4 10.4 9.2 9.9 9 12.8 7.6 2.1-.9 2.5-1.6 2-3.6-.5-2.1 0-2.9 3.3-5.1 3.5-2.3 4.6-2.5 8.9-1.9 3.8.5 5.1.3 6.2-1 4-4.8 7.5-3.9 11.8 2.9 1.5 2.4 6.4 8.3 10.9 13 6.3 6.6 8.4 9.5 8.9 12.3.4 2.1 1 4.4 1.4 5.2s.3 2.2-.3 3.1c-.7 1.2-.4 3.4 1.2 8 3.6 10.8 2.7 14-4 14-3.2 0-4.3-.6-6.5-3.5-1.4-1.9-3-3.5-3.5-3.5-.4 0-2.8 3.1-5.3 6.9-4.6 7.2-12.8 16-16.6 18.1-1.3.7-5.1 1-8.9.9-6.8-.4-6.8-.3-10.6 3.6-4.5 4.8-8.6 13.2-9.3 19.1l-.5 4.4H512V0H0z"/><path d="M380.3 155.7c.9.2 2.3.2 3 0 .6-.3-.1-.5-1.8-.5-1.6 0-2.2.2-1.2.5m-20.7 19.9c-2.6.7-5.1 1.5-5.4 1.9-.3.3 3.6.5 8.6.5 5.1 0 9.2-.2 9.2-.5 0-.4-7.1-3.7-7.4-3.4 0 .1-2.3.7-5 1.5m-117.4 5.2c0 2 .8 3.8 2.8 5.7l2.9 2.8-1.1-3.5c-.6-1.9-1.8-4.5-2.8-5.7l-1.7-2.3zm-7 2.8c1 1 2 1.6 2.2 1.3.3-.3-.5-1.1-1.7-1.8-2.1-1.3-2.1-1.2-.5.5M0 305.1V384h278v-20.3c0-15-.4-21.5-1.5-25.1-1.7-5.6-1.9-11.4-.6-15 .9-2.1.2-3.6-4.9-11.1-9.1-13.5-22.7-30.3-26.3-32.6-3.1-1.9-4.2-2-26.8-1.3-22.4.6-23.7.6-28.2-1.4-3.4-1.5-5.1-3.1-6.4-5.7-1.7-3.6-3.2-4.3-12.1-6.1-3.7-.8-4.7-1.8-6.4-6.8l-1.3-3.8-11.4-2.9c-6.2-1.5-14.1-3.7-17.5-4.8-3.3-1-10.4-2.2-15.6-2.5-8.2-.5-26.1-4-53.8-10.7-5-1.2-5.3-1.1-7.3 1-1.3 1.4-1.9 3.1-1.7 4.6.8 4.2-.8 4.9-3 1.3-3.8-6.1-9.6-10.9-13.9-11.5-3.3-.4-5.4.3-14.7 5.2l-10.7 5.7 2.5-5.1c1.4-2.8 2.6-5.5 2.6-6.1s-2.1-.7-5.8-.4c-4.1.5-6.8.2-9.5-.9L0 226.1zm391.5 7.1c.6 5.1 8 28.6 9.3 30 .4.3 4.8-.7 9.7-2.3 5-1.6 9.6-2.9 10.3-2.9s1.2-1.3 1.2-3.3c0-2.6-.6-3.6-2.4-4.5-3.2-1.4-6.4-9.5-4.6-11.7.6-.8 2-1.7 3.1-2 2.7-.9 2.4-1.6-2.2-4.9-3.8-2.6-4.4-2.8-7.9-1.7-5.2 1.5-11.2 1.4-13.6-.4-3.1-2.4-3.6-1.8-2.9 3.7M302 380.8l-4.5 2.7 6.4.3c3.5.2 6.6.1 6.8-.2.3-.3.3-1.7-.1-3.1-.8-3.2-2.9-3.2-8.6.3"/></svg>