<svg xmlns="http://www.w3.org/2000/svg" width="682.667" height="512" version="1.0" viewBox="0 0 512 384"><path d="M0 192v192h246.6c232.2 0 246.5-.1 246.2-1.7-.2-1-3.5-4.1-7.3-7-3.9-2.9-8.5-6.5-10.4-8.1-1.9-1.5-3.8-2.8-4.2-3-2.2-.9-10.9-13.7-15.1-22.2-5.6-11.4-9.8-23.7-12.9-38.2-2.3-10.7-2.3-10.8-4.2-8.7-1 1.1-2.2 1.8-2.5 1.5-.3-.4.5-1.7 1.7-3 1.4-1.5 2.1-3.3 1.9-5l-.3-2.7-3.7 3.1c-4.6 3.8-4.7 3.2-.8-2.5 3.7-5.4 3.9-7.5.4-4-1.4 1.4-2.8 2.4-3.1 2.1s1.1-2.1 3.1-4.2c4-4.1 5.4-7.3 3.6-8.4-.6-.4-1.4-3.5-1.7-6.8-.4-4.7-.2-6.7 1.1-8.6 2.1-3.3 2.2-12.6.2-12.6-.8 0-1.8.5-2.1 1-.4.7-1.1.7-1.8.2-2.4-1.9-7.2-2.1-9-.4-1.7 1.5-2 1.5-3.7-.8-1-1.3-2.6-2.5-3.6-2.6-1.1-.1-3.6-.5-5.8-.9-3.3-.5-3.7-.3-3.2 1.1.7 1.8.7 1.8-6.1-1.2-2.7-1.2-4.2-2.4-4-3.4.1-.9-.6-1.5-2-1.5-1.2 0-2.5-.4-2.9-.8s-1.6-.7-2.6-.7c-1.1 0-1.7-.4-1.4-.9s-.2-.8-1.1-.7c-.9 0-1.8-.5-2-1.2-.3-.7.1-1 1.1-.6 1.2.5 1.6 0 1.6-2 0-2.4-.2-2.6-2.1-1.5-1.7.9-2.3.8-3-.2-.9-1.3-.8-2.3.7-7.8.6-2 .4-2.2-1.5-1.6-1.1.3-2.1.3-2.1-.2 0-.4.7-5.5 1.5-11.3 1-7.9 1.1-10.6.2-11.2-1.7-1-2.2-.1-.7 1.7 2.9 3.5-2.4.7-9.5-5-4.6-3.7-5.3-3.4-1.7.7 1.8 2.2 1 2.3-2.8.3-1.5-.8-3.8-3.1-5-5.1-1.6-2.5-2.5-3.2-3.1-2.3-.5.9-1 .4-1.5-1.6-.4-1.6-1.3-3.9-1.9-5.2l-1.3-2.4-2.1 3.3c-1.3 1.9-2 2.5-1.7 1.3.3-1.1 1.5-6.3 2.6-11.5 3.9-17.8 7.5-29.1 10.7-33 .6-.8 3-3.6 5.2-6.1 4.8-5.4 5.1-8.4 1.5-11.8-3-2.9-1.9-4.1 3.7-4.1 3.9 0 4.9-1.2 4.9-5.6 0-2.1.3-2.3 1.9-1.4 3 1.6 5.3 1.2 10.7-1.5 3.5-1.8 5.8-2.4 8-2 2.7.5 3.5.1 5.2-2.2 1.9-2.7 2.1-2.7 3.9-1 2.4 2.1 5.2 2.1 13.5.3 3.5-.8 14-1.7 23.3-2 13.8-.5 18.1-.4 23 .9 8.5 2.2 17.2 6.6 22.5 11.1 2.5 2.2 6.3 5.1 8.5 6.6 2.2 1.4 5.5 4 7.3 5.8l3.2 3.1V0H0zm382 30.9c0 .5-.7 1.1-1.5 1.5-1.5.5-2-.5-.8-1.7.9-1 2.3-.9 2.3.2m1 3.5c0 .3-.4.8-1 1.1-.5.3-1 .1-1-.4 0-.6.5-1.1 1-1.1.6 0 1 .2 1 .4"/><path d="M393.8 228.1c-2.1 1.2-2.4 2.9-.4 2.9.7 0 1.6-.9 1.9-2s.4-2 .4-2c-.1 0-1 .5-1.9 1.1m29.7 7.9c.4.6 1.1.8 1.6.5 1.4-.9 1.1-1.5-.7-1.5-.8 0-1.2.5-.9 1m18 24c-.3.5-.1 1 .4 1 .6 0 1.1-.5 1.1-1 0-.6-.2-1-.4-1-.3 0-.8.4-1.1 1m-2.8 2.8c-.7 1 .4 6.2 1.2 6.2 1.2 0 3.1-2.3 3.1-3.7 0-1.5-3.7-3.6-4.3-2.5m.9 18.7c-.9 2.6-.7 3.2.5 1.2.6-1 .9-2.1.6-2.3-.2-.3-.7.2-1.1 1.1"/></svg>