<svg xmlns="http://www.w3.org/2000/svg" width="682.667" height="512" version="1.0" viewBox="0 0 512 384"><path d="M0 192v192h512l-.3-61.3c-.3-54.6-.6-62-2.2-68.9-1.3-5.4-2.1-7.5-3.1-7.1-2 .7-2.9-4.4-1.4-7.3.8-1.3 1.9-2.4 2.7-2.4s1.3-1.3 1.3-3.8c0-2 .4-5.2.9-7 .8-2.5.7-3.2-.5-3.2-.8 0-1.4.4-1.4 1 0 1.4-3.7 5-5.1 5-.7 0-.5-1 .5-2.5.9-1.4 1.4-2.5 1.1-2.5s.6-1.1 2-2.5c3.4-3.5 3.2-4.5-.2-1.3-1.6 1.4-3.3 2.4-4 2.1-.6-.2-1.7.6-2.4 1.9-1.3 2.4-4.1 4.9-4.8 4.2-.2-.2.4-1.3 1.4-2.4s1.4-2 1-2c-.5 0 .1-1 1.2-2.2 1.1-1.3 3.1-4.1 4.4-6.3l2.3-4-3.8 2.3c-4.1 2.4-5.7 2.3-3.6-.3.7-.8 1-1.5.7-1.5s.8-3.4 2.4-7.6c1.6-4.1 2.9-7.9 2.9-8.3 0-.5-1.2-1.1-2.7-1.4-1.6-.3-3.7-1.3-4.8-2.2s-1.4-1.3-.6-.9c.9.4 1.2.3.7-.4-.4-.6-1.2-.9-1.9-.6-1.4.5-7.9-5.9-9.1-9.1-.5-1.3-.9-1.6-1.4-.8-.8 1.2-1-1.3-1.4-14.2-.2-6.4.1-7.6 3.6-14 2.1-3.9 5-9.2 6.4-11.9 1.4-2.6 4.1-6.2 5.9-7.9 4.8-4.6 4.2-9.5-1.8-14.6-3.2-2.7-3.8-6-1.1-6.2.9-.1 2.4-.2 3.2-.3s2.1-.5 2.8-.9c.7-.5 2.1-.5 3.3-.2 2.6.9 4.9-1.1 5-4.4.1-1.9.4-1.5.9 1.4.4 2.2.8-21.1.9-51.8L512 0H0z"/><path d="M511.4 128c0 5.2.1 7.4.3 4.7.2-2.6.2-6.8 0-9.5-.2-2.6-.3-.4-.3 4.8m0 77.5c0 7.7.2 10.7.3 6.7.2-4 .2-10.3 0-14s-.3-.4-.3 7.3m-8.7 12.2c-.4.3-.7 1.1-.7 1.7s.5.5 1.2-.2c.6-.6.9-1.4.7-1.7-.3-.3-.9-.2-1.2.2"/></svg>