<svg xmlns="http://www.w3.org/2000/svg" width="682.667" height="512" version="1.0" viewBox="0 0 512 384"><path d="M0 192v192h512V0H0zm117.4 5.6c1.1.4 1.6 2 1.6 5.3 0 2.5.4 5.1.8 5.8 1.1 1.8 18.5 2.7 25.7 1.3 9.8-1.8 9.8-1.8 10.8 1.7.5 1.7.6 4.8.3 6.8-.7 3.6-.8 3.7-4.4 3.1-6.7-1.2-23.1-1.8-27.7-1.2l-4.5.7v4.8c0 5.4-1.5 7.4-5.2 6.9-2-.3-2.4-1-2.8-5.5-.3-2.8-.8-5.4-1-5.6-.3-.3-19.4-.7-42.5-1-43.8-.5-44.6-.6-58-5.3l-4.9-1.8 2.9-.8c1.7-.5 25.3-1.3 52.5-2 33.8-.7 49.7-1.4 50.2-2.2.4-.6.8-3.2.8-5.7 0-5.9 1.1-6.9 5.4-5.3"/></svg>