<svg xmlns="http://www.w3.org/2000/svg" width="682.667" height="512" version="1.0" viewBox="0 0 512 384"><path d="M0 192v192h512V0H0zm165.4 10.5c.4 2.7 1 5.5 1.1 6.2.8 2.7 27 2.6 33.7-.2 1.4-.5 2 0 2.9 2.1 1 2.8.8 10.9-.4 12-.3.3-3.6 0-7.4-.8-7.9-1.7-25.8-1.7-27.4-.1-.6.6-1.3 3-1.6 5.4-.6 4.8-1.8 6.9-3.9 6.9-2.5 0-4.4-3.1-4.4-7.5v-4.3l-6.2-.4c-3.5-.3-19.6-.6-35.8-.7-35.2-.2-37.7-.4-50.5-4.4-9.7-3-9.9-3.1-6.5-3.9 1.9-.5 24.4-1.3 50-1.8 25.6-.6 47.1-1.2 47.8-1.5s1.2-2.3 1.2-5.3c0-5.3 1.4-7.4 4.5-7 1.6.2 2.2 1.4 2.9 5.3"/></svg>