<svg xmlns="http://www.w3.org/2000/svg" width="682.667" height="512" version="1.0" viewBox="0 0 512 384"><path d="M0 192v192h512V0H0zm257.1 3c1.5.9 1.9 2.2 1.9 6.9 0 4.1.5 6.2 1.5 7.1 2.2 1.8 22.9 1.9 32.4.2 5.5-1.1 7.6-1.1 8.5-.2 1.4 1.4 1.5 13.5.1 14.9-.7.7-3.1.7-7.5-.2-3.6-.6-12.5-1.2-19.8-1.2-15.1 0-15.2.1-15.2 7.6 0 6-1.5 7.2-7.3 6.4-4.9-.8-5.7-1.9-5.7-8.7 0-2-.4-3.9-.9-4.2s-17.6-.8-38-1.1c-20.7-.2-39.9-.9-43.3-1.5-5.3-1-9.8-2.4-19.8-6.2l-2.5-1 2.5-1c1.4-.5 23.9-1.4 51-1.9 26.7-.5 49.1-1.1 49.8-1.4s1.2-2.4 1.2-5.5c0-5.6 1.5-9.4 3.3-8.7.7.2 2.1.1 3.2-.4 1.1-.4 2.1-.8 2.3-.8.2-.1 1.2.4 2.3.9"/></svg>