<svg xmlns="http://www.w3.org/2000/svg" width="682.667" height="512" version="1.0" viewBox="0 0 512 384"><path d="M190.3 13.6c-.7.3-1.3 1.1-1.3 1.8s-1.1 2.1-2.4 3.1c-1.9 1.4-2.4 2.8-2.5 6.9-.3 9.5-.7 14.1-1.5 15.8-.4.9-.2 2.7.5 3.9.7 1.4.8 2.4.2 2.6-1.2.4-.4 6.3.9 6.3.5 0 .7.9.3 1.9-.3 1.1-.2 2.2.4 2.5.5.3.7 1.4.4 2.5-.8 3 2.5 5.4 6.4 4.7 1.8-.3 4.9-.9 6.8-1.2 4.5-.8 4.4.2-.3 6.3-12.8 16.2-13.3 21.2-2.4 22.6 2.4.3 4.5.7 4.7.9.3.4-4.1 25.8-5.4 30.3-1.5 5.4.4 4.1 2.9-2 2.2-5.4 4.2-8.2 3.4-4.8-.2 1-1.7 8.8-3.3 17.5-2.3 12.9-3.2 16.2-5.4 18.7-3.1 3.7-4.2 7-6.2 18.7-.8 4.9-2.2 11.4-3.1 14.3-1.4 5-1.7 5.3-4.2 4.7-8.2-1.9-9.2-1.9-9.2-.2 0 .8.9 3.9 2 6.8s2 6.2 2 7.3c0 2.6-8.9 27.4-14.2 39.5-2.3 5.2-7.7 16.6-12 25.2-4.3 8.7-7.8 16.8-7.8 18.1s.9 5.9 2.1 10.3c1.7 6.8 1.9 9.6 1.4 20.4-.3 6.9-1.3 18.1-2.1 25-3.2 28.6-.8 40 8.6 40 3.3 0 3.9-.5 7.5-6 2.1-3.3 4-5.8 4.2-5.6s-.2 2.9-1 6l-1.5 5.6H315l-1.6-3.8c-3.6-8.3-3.5-8-.6-9.4 1.6-.8 3.7-3.3 5.1-6.2 2.2-4.4 2.5-6.5 2.9-20.7.4-15 .6-15.9 2.7-17.3 1.2-.8 3.6-3.6 5.4-6.2 4.3-6.5 4.1-10.2-.9-18.8-4-6.9-4.3-9.2-1.6-11.6 1-.7 1.6-.8 2.1 0 .3.5 1.3 1 2.1 1 1.1 0 1.3-.6.9-2-.4-1.2-.2-2 .4-2 1.2 0 .4-9.7-.9-11.5-.4-.6-.7-1.8-.7-2.7 0-2-2.1-12-3.5-16.3-.5-1.7-1.1-4.5-1.4-6.4-.2-1.8-.9-4.1-1.4-5.1-.5-.9-.7-2-.4-2.3.5-.5-2.4-11.1-4.3-15.7-.8-1.8-.7-1.7-1.7-6-.5-1.9-1.2-4-1.6-4.5-.4-.6-1-2.2-1.4-3.7-.3-1.4-1.6-4.8-2.8-7.5-1.2-2.6-2.3-6.2-2.5-7.8-.3-1.7-1.3-3.9-2.3-5s-2.1-3-2.4-4.1c-.4-1.2-1.5-2.9-2.6-3.9s-2-2.4-2-3.2c0-.7-1.3-3.7-2.9-6.6-1.6-2.8-3.6-7.5-4.5-10.2-.9-2.8-3-6.6-4.7-8.4-2.8-3.1-3-3.8-2.4-8.2.4-2.7 1.2-5.2 1.8-5.7 1.5-.9 1.1-28.6-.4-27.7-1.7 1.1-.9-5.7.9-7.1 1.6-1.3 1.6-1.4 0-.8-2.3.8-2.3.2.3-4.7 2.3-4.6 3.7-4.6 2.1.1-1.4 3.8.2 3 2.5-1.3 1-1.8 1.9-6.6 2.2-11.2.5-7 .9-8 2.6-8.3 2.3-.5 7.6-5.2 7-6.2-.3-.4.5-2 1.7-3.5s3.6-5.5 5.3-8.9c1.8-3.3 4.1-7.7 5.3-9.6 3.5-5.7 4.2-7.8 3.5-11-.8-4.3-3.8-6.2-15-10-16.7-5.5-34.6-5.2-39.3.7l-2 2.6-2-2.6c-2.5-3.2-10.5-5.2-18.3-4.5-4.7.4-5.6.2-6-1.3-.7-2.7-9.2-7.7-17.7-10.4-7.4-2.3-26.9-4.2-29.7-2.9m10.2 130.7c-.4 2-1.5 4.3-2.5 5.2-1.7 1.5-1.7 1.2.2-3.9 2.3-6.2 3.3-6.7 2.3-1.3m3.1 80.6c-.3 6.4-1.5 15.9-2.7 21.1-1.1 5.2-2.2 11.4-2.4 13.8-.1 2.4-.8 4.9-1.5 5.5-1 1-1.1 0-.7-4.8.3-3.3 1.3-13.9 2.2-23.5 1.8-19.1 3-25.4 4.7-24.4.7.4.8 4.5.4 12.3m-6.4 46.6c-.9 1.1-1.8 2.2-1.9 2.4-.2.2-.3-1.2-.3-3.2 0-3.4.1-3.6 2-2.5 1.8 1.2 1.8 1.3.2 3.3"/></svg>