<svg xmlns="http://www.w3.org/2000/svg" width="682.667" height="512" version="1.0" viewBox="0 0 512 384"><path d="M0 192v192h512V0H0zm273 5.4c.6 1.8.8 5.1.4 7.3-.8 5-.4 5.2 13.5 6 8 .4 12.1.1 16.5-1 3.3-.9 6.3-1.4 6.7-1.1.4.2 1.9 0 3.3-.6 3.4-1.3 4.6 1 4.6 8.5 0 7.8-1.1 9.6-5.2 8.5-11.4-2.9-28-3.9-36.3-2.1-2.9.6-3 .8-3 6.2 0 8.4-2 10-9.7 7.8-3.8-1-3.8-1-3.8-6.3 0-3.7-.5-5.8-1.6-6.7-1.3-1-8.5-1.3-34.8-1.1-18.3.2-37.5-.2-42.7-.8-8.9-1-27.9-6.4-27.9-8.1 0-1.8 6.5-2.1 53-3 27.2-.5 50.5-1.2 51.8-1.4 2-.5 2.2-1.1 2.2-7 0-6.4 0-6.4 3.3-7.4 6.5-1.9 8.4-1.4 9.7 2.3"/></svg>