<svg xmlns="http://www.w3.org/2000/svg" width="682.667" height="512" version="1.0" viewBox="0 0 512 384"><path d="M0 192v192h512V0H0zm309.1-.8c.7 1.3.9 4.4.6 8-.3 3.3-.1 6.1.5 6.4.5.3 6.1 1.1 12.3 1.6 9.6.9 12.6.7 19.2-.7 4.3-.9 9.9-1.9 12.5-2.2l4.7-.4 1.1 4.2c1.3 4.7.5 13.3-1.4 14.8-1.3 1.1-6.6.4-15.6-1.9-4.7-1.2-29-.9-32.2.5-1.4.6-1.8 1.9-1.7 7.1.1 7.8-1 9.5-6.1 9-6.6-.7-7.5-1.7-7.8-8.7-.2-3.5-.9-6.7-1.5-7.1-.7-.4-19.2-.7-41.2-.7-49.6.2-54.8-.4-77.4-9.3l-2.6-1 2.5-1c3.5-1.3 44.2-2.7 81-2.8 17.3 0 33.2-.3 35.3-.6l3.7-.7v-6.4c0-9.1.9-10.3 7.5-10.3 4.5 0 5.6.4 6.6 2.2"/></svg>