<svg xmlns="http://www.w3.org/2000/svg" width="682.667" height="512" version="1.0" viewBox="0 0 512 384"><path d="M0 192v192h512V0H0zm318.8-6.8c.7.7 1.2 4.2 1.2 8.9 0 6.4.3 7.8 1.8 8.4.9.4 7.6 1 14.7 1.2 10.8.5 14.8.2 23.4-1.6 9.2-1.9 10.6-2 11.9-.7 2 2 2.7 10.2 1.2 15.5l-1.1 4.3-4.7-.7c-2.6-.3-7.4-1.3-10.7-2.2-7.2-1.8-30.6-1.5-34.2.5-2 1.1-2.3 2.1-2.3 7.5 0 8.3-1.3 10.2-6.9 9.4-2.3-.3-4.8-1-5.5-1.6s-1.7-4.2-2-8l-.7-7-9.7-.3c-5.3-.2-25.8-.5-45.6-.6-19.7-.1-38.8-.7-42.5-1.2-6.2-.9-19.2-4.9-27.1-8.3-7.2-3.2.2-3.7 66.8-4.6 31.5-.5 57.6-1.1 57.9-1.4s.8-4.1 1.2-8.4c.5-7 .9-7.9 3.1-9 3.2-1.6 8.2-1.7 9.8-.1"/></svg>