<svg xmlns="http://www.w3.org/2000/svg" width="682.667" height="512" version="1.0" viewBox="0 0 512 384"><path d="M0 192v192h512V0H0zm339.9-12.7c.6.8 1.4 5.3 1.7 10.1.7 8.2.9 8.8 3.3 9.9 4.2 1.8 33.4 1.4 40.1-.5 3-.9 7.4-1.9 9.8-2.2 4.2-.6 4.3-.5 5.7 2.8 1.9 4.5 1.9 12.7 0 17.2-1.4 3.5-1.6 3.6-5.7 2.9-2.4-.4-6.3-1.4-8.8-2.3-4.9-1.8-30.5-2.4-39.1-.9l-4.6.8-.7 8.1c-.4 4.5-1.2 8.8-1.9 9.6-1.4 1.7-10.4 1-12.4-1.1-.8-.8-1.4-4.2-1.6-8.7l-.2-7.5-5.5-.7c-3-.3-22.4-.4-43-.1-36.6.6-56.6-.3-66.5-2.8-6.6-1.6-27.5-9.2-27.5-10 0-.4 1.9-.9 4.3-1.3 3.6-.5 62.9-1.9 121.4-2.8 8.9-.2 16.3-.5 16.6-.8.2-.3.7-4.5 1.1-9.4.3-4.9.7-9 .9-9.2 2.2-2.3 10.9-3 12.6-1.1"/></svg>