<svg xmlns="http://www.w3.org/2000/svg" width="682.667" height="512" version="1.0" viewBox="0 0 512 384"><path d="M0 192v192h512V0H0zm378.6-23.6c1.7 1.3 1.9 2.6 1.8 11.9-.2 12.4-1.9 11.2 17.5 12.9 13.7 1.2 30.6.1 36.9-2.3 2.9-1.2 3.5-1.3 9.7-2.3 3.4-.6 4.4-.3 6 1.4 2.6 2.9 3.4 17 1.2 22.3-1.5 3.4-1.9 3.7-5.7 3.7-2.3 0-7.8-1-12.3-2.2-7.2-2-10.3-2.3-26.2-2.1-9.9.1-20 .5-22.5 1l-4.5.8-.6 9.7c-.7 12.2-1.4 13.2-9 12.5-9.5-.8-9.9-1.3-9.9-11.6 0-7-.3-9.1-1.7-10.2-1.3-1.2-12.4-1.4-62.7-1.4-63.8 0-67.4-.3-81.6-4.6-8.9-2.7-25.3-8.9-26.3-9.9-2.6-2.5 25-3.9 89.3-4.5 69-.6 81.1-1 82.2-2.8.4-.6.8-4.4.8-8.3 0-11 .7-13.3 4.4-14.3 4.8-1.4 11-1.3 13.2.3"/></svg>