<svg xmlns="http://www.w3.org/2000/svg" width="682.667" height="512" version="1.0" viewBox="0 0 512 384"><path d="M0 192v192h512V0H0zm395.3-29.2c1.2 1.3 1.9 4.9 2.4 13.3l.8 11.4 7.5 1.3c10.2 1.8 39.4 1 47-1.2 3-.9 6.9-1.8 8.5-2 1.7-.2 4.6-.7 6.7-1.1 3.4-.7 3.7-.5 5.4 2.6 3.9 7.6 1.4 27.9-3.5 27.9-1.5 0-5.5-.8-22.1-4.5-7.9-1.8-31.1-1.9-42.5-.2l-8 1.2-.7 11c-.8 13.2-1.4 13.9-10.1 13.2-10.2-.9-12.4-4.2-11.1-17 .6-6.2.6-6.5-1.7-7.3-1.3-.4-31.4-.8-66.9-.9-77.3-.1-76.6-.1-107-11.8-8.4-3.2-10-4.2-8.3-4.8 5.6-2.1 31.1-3 102.8-3.9 42.8-.6 78.7-1.2 79.6-1.5 1.4-.5 1.7-2.4 2-12 .3-6.8.9-11.9 1.6-12.6 3-3 15.2-3.8 17.6-1.1"/></svg>