<svg xmlns="http://www.w3.org/2000/svg" width="682.667" height="512" version="1.0" viewBox="0 0 512 384"><path d="M185.3 15.4c-3 3.4-5.2 10.4-3.9 12.4.3.6.1 2.5-.6 4.3-.9 2.5-.9 3.4 0 3.7.7.2.9.9.5 1.5-1.1 1.7-1.2 14.6-.2 15.3.5.3.7 1.4.4 2.5-.4 1.1-.2 1.9.5 1.9.6 0 .8 1 .5 2.3-1 3.7 1.6 5.1 8.3 4.4 3.1-.3 6.5-.8 7.5-1.2 3-1.3 1.9 1.1-4.9 9.6-7.3 9.2-8.8 12.2-7.9 15.6.6 2.6 3.7 4.1 9 4.5 2 .1 3.8.5 4 .8.1.3-.5 6.1-1.5 13s-2.1 14.5-2.4 17l-.6 4.5 3-6c1.6-3.3 2.8-5.1 2.6-4-.3 1.1-.7 4-1.1 6.5s-1.6 8.5-2.7 13.3c-1.1 4.9-1.8 9.1-1.5 9.3.3.3 1.4-1.9 2.6-4.8l2-5.3-.6 5c-.5 4.4-1.3 5.6-5.8 10.1-4.6 4.4-5.4 5.7-6.4 11-2.7 14.2-5.3 26.9-5.7 27.6-.3.4-3.2.5-6.5.1l-6-.6.7 2.9c.4 1.6 1.5 5.1 2.4 7.9l1.7 5-5.2 15.5c-4.7 14.1-15.7 39.4-25.7 59.4l-3.9 7.9 2.3 6.1c2.1 5.6 2.3 7.4 2.1 22.1-.2 9.4-1.2 22.7-2.5 32.4-1.8 13.8-2 17.4-1 22.9 1.3 7.7 4.8 12.2 9.5 12.2 3.3 0 4.1-.8 9.9-10.3 2.2-3.7 4.2-6.6 4.4-6.4s-.5 3.7-1.6 7.8-2 7.7-2 8.1c0 .5 34.9.8 77.5.8s77.5-.2 77.5-.5-1.3-3.5-3-7.2c-1.6-3.6-3-6.9-3-7.2s1-1.1 2.3-1.6c1.2-.6 3.3-3.1 4.6-5.7 2-4.1 2.5-7.2 3.2-20.5l1-15.7 4.9-5c2.7-2.7 5.2-6.2 5.5-7.8.8-3.4-.9-8.8-4.7-14.9-3.1-5.2-3.3-6.1-1.6-8.8.9-1.5 1.6-1.7 3.1-.9 1 .5 2.2.7 2.5.3 1.1-1.1.4-13.5-.7-14.9-.6-.7-.8-1.6-.5-1.9s.2-1.2-.2-1.9c-.5-.7-.9-2.2-1-3.3s-.9-4.7-1.9-8c-.9-3.3-1.9-7.3-2.1-8.8s-.8-3.5-1.2-4.5c-.5-.9-1.2-3.6-1.6-6-.6-4.1-3.7-14.4-5.6-18.7-.5-1.1-1.4-4-2.1-6.5-.6-2.5-1.6-5.4-2.2-6.5-2.4-4.2-3.7-9.1-3.1-11.7.4-2.1 0-3.3-2-5.2-2.8-2.5-7.6-9.2-7.6-10.4 0-.4-1.3-3.4-3-6.7-1.6-3.3-3.5-7.9-4-10.1-.6-2.3-2.3-5.8-4-7.9-2.6-3.3-2.9-4.2-2.3-8.3.3-2.6 1.1-5.2 1.7-5.7 1.5-1.3.9-26.7-.7-27.7-1.7-1-1.2-9 .8-12.8 2.3-4.4 3.2-2.4 1 2.2l-1.6 3.3 2.6-3c3.6-4.3 5.8-12.4 5-18.6l-.7-4.9h2.9c3 0 7.3-3.5 7.3-5.9 0-.7.8-2.5 1.9-3.9 1-1.5 4-6.8 6.6-11.7 2.6-5 5.4-9.8 6.2-10.7 1.4-1.6 1.7-3.6 1.2-8-.3-2.5-2.5-4.1-9.9-7.1-9.8-4-17.6-5.7-26.3-5.7-10.1 0-16.4 1.6-18.4 4.7l-1.6 2.4-2.6-2.5c-3.2-3.1-6.2-4.2-13.3-5.1-3.5-.4-6.3-.3-7.7.4-1.7 1-2.1.9-2.1-.3 0-.8-1.9-2.8-4.3-4.4-9-6.3-18.4-9.1-32.7-9.8l-10.5-.5zm17.3 211.1c-.3 6-1.4 15.9-2.6 21.8-1.1 5.9-1.8 11.2-1.5 11.8.4.5-.1 2.2-1 3.6-1.6 2.3-1.6 2.8-.2 3.7 1.3 1 1.2 1.5-.9 4.1-3 3.7-2.9 3.9-.9-15.1.8-7.7 1.9-19.9 2.5-27.3.7-7.4 1.6-14.6 2.2-16l1-2.6 1 2.5c.5 1.4.7 7.4.4 13.5"/></svg>