<svg xmlns="http://www.w3.org/2000/svg" width="682.667" height="512" version="1.0" viewBox="0 0 512 384"><path d="M0 192v192h512V206.7l-11.7.7c-6.5.4-14.5 1.2-17.8 1.9l-6 1.2-.6 12c-.3 6.6-.9 12.9-1.2 14-1.6 4.8-11.3 7.1-16.7 4-1.4-.8-4.1-1.4-6.1-1.5-6.3 0-6.8-1-7.1-15.5l-.3-12.9-3.5-.7c-5.7-1.2-45.8-1.5-87.5-.5-54.9 1.2-88.3-1.1-109.1-7.4-15.8-4.8-36.7-13.2-35.2-14.1 2-1.1 19.1-2.7 40.2-3.9 9.9-.5 55.7-1.2 101.6-1.6s85.7-1 88.5-1.3c6-.7 6.3-1.4 6.4-15.2.1-13 .8-15.7 4.1-17.4 1.5-.8 3.6-1.4 4.6-1.4s5.3-.3 9.5-.7c7.1-.6 7.7-.5 10.5 1.9l2.9 2.5v28.7l6.5 1.1c3.6.7 11.3 1.5 17.3 1.9l10.7.7V0H0z"/></svg>