<svg xmlns="http://www.w3.org/2000/svg" width="682.667" height="512" version="1.0" viewBox="0 0 512 384"><path d="M0 192v192h306.2l-.6-2.3c-2-7.1-14.9-64.9-15.3-68.7-.6-5.1-.3-6 9.2-31.5 3.5-9.4 7.3-19.8 8.6-23.3 2.2-6.4 2.8-7 15.7-16.8 1.2-.9 1.1-1.6-.7-4.9-2.5-4.7-2.7-9.2-.6-14.1l1.5-3.6-20.3.2c-48.8.5-149.5-5.9-182.1-11.6-8.1-1.4-14.6-3.6-14.6-5s8.2-3.6 18.3-4.9c12.4-1.7 60.1-5.8 85.7-7.5 20.3-1.3 97.5-6.7 116-8 65.8-4.9 115-9.6 163-15.5 11.3-1.4 20.8-2.5 21.3-2.5.4 0 .7-36.9.7-82V0H0z"/><path d="M476 213c-10.2 1-35.6 2.8-56.5 4s-38.2 2.4-38.4 2.6c-.3.2-.3 3.1-.2 6.5.1 3.5-.2 6.6-.9 7.4-2.1 2.6-.2 6.1 6.6 11.9 3.6 3.1 7 5.6 7.5 5.6s.9.6.9 1.2c0 .7.7 2.6 1.5 4.2 1.3 2.4 1.3 3.1.3 3.8-.8.6-.5.7 1 .3 2.1-.6 2.3-.4 1.8 1.3-.4 1.2-.2 3 .4 4.1.5 1.2 1.4 2.9 1.9 4 .5 1 1.3 3.5 1.6 5.5.4 2 1.2 3.3 1.7 3s.8 0 .7.7c-.1.8.3 2.7 1 4.4.7 1.6 1.4 3.7 1.6 4.5 1.1 4.6 4.3 11.9 4.9 11.3.4-.5.4.5 0 2.1-.6 2.5-.4 2.8 1 2.3 2-.8 3.3 1.7 1.8 3.6-.5.7-.6 2.1-.1 3.2l.8 2 .1-2c.1-1.8.2-1.7 1.5.5 1.6 2.9 2 9 .5 9-.5 0-1 1.2-1.1 2.7 0 2.5-.1 2.6-1 .8-.7-1.6-.9-1.4-.6 1.2.2 1.8 0 3-.4 2.8-1.2-.8-1.8 2.2-.7 3.3.7.7.6 2.2-.2 4.8-1.1 3.3-1.4 3.6-2.1 1.9-.6-1.6-.8-1.7-.8-.3-.1.9.4 2 1 2.3.7.5.5 1.3-.5 2.4-1.3 1.4-3.7 12.1-4 17.3 0 1-.3 1.8-.7 1.8-.6 0-2.1 6.5-3.9 17-.4 2.5-.8 3.4-.9 2.1 0-1.3-.4-2.2-.7-1.8-.4.3-.4 1.8 0 3.2l.6 2.5h39.6c23.6 0 39.3-.4 39-.9-.4-.5-4.7-18.2-9.7-39.3-5-21-9.8-41.1-10.6-44.6l-1.5-6.3 10.8-26.7c5.9-14.7 11.4-27.5 12.3-28.6.9-1 5-4.2 9.3-7.2l7.6-5.4-1.9-4c-1-2.1-1.9-5.3-1.9-7 0-1.6-.3-2.9-.7-2.9-.5.1-9.1.9-19.3 1.9m-93.3 15.7c-.3 1-.5.2-.5-1.7s.2-2.7.5-1.8c.2 1 .2 2.6 0 3.5"/><path d="M418.2 315.5c0 1.6.2 2.2.5 1.2.2-.9.2-2.3 0-3-.3-.6-.5.1-.5 1.8"/></svg>