<svg xmlns="http://www.w3.org/2000/svg" width="682.667" height="512" version="1.0" viewBox="0 0 512 384"><path d="M0 192v192h123.5c87.5 0 123.5-.3 123.5-1.1 0-.6-1.1-5.9-2.5-11.7-6.8-29-10.8-46.6-12.7-55.8l-2.2-10 9.3-26c5.1-14.2 9.7-26.6 10.1-27.4.5-.8 3.7-3.7 7.3-6.4l6.6-4.9-2.1-4c-2-3.9-2.1-8-.3-13.5.8-2.3.7-2.4-4.7-1.7-5.3.7-44.3-.5-85.8-2.5-56.9-2.9-100.3-7.4-107.7-11.4l-2.8-1.5 4-1.6c2.2-1 9-2.4 15-3.1 10.3-1.3 59.6-5.6 78.5-6.8 85.1-5.7 144.5-10.3 206.6-16.1 41.5-3.8 127-15.6 143.7-19.7l4.7-1.2V0H0zm503.7 9c-1.6.5-7.5 1.6-13.2 2.6-12.7 2.1-13.4 2.4-11.2 5.8 1 1.5 1.6 4.3 1.5 6.8l-.1 4.3-.7-4.5-.7-4.5-.1 4.2c-.1 2.7-1.1 5.6-2.8 8-2.4 3.6-2.4 3.8-.7 5 13 9.4 19.3 17.3 19.3 24.3 0 1.6.5 3.2 1 3.5.6.4 1 1.2.9 1.8-.2.7 1.2 4.2 2.9 7.9 1.8 3.6 3.2 6.9 3.2 7.2 0 1.8 4.5 10.4 5.2 10 .4-.3.8.5.8 1.8 0 1.4.7 3.3 1.5 4.4 1.3 1.7 1.4-3.4 1.5-43.9V200l-2.7.1c-1.6 0-4.1.5-5.6.9"/><path d="M413 214.6c-3.3.7-40.8 3.4-61.5 4.4-24 1.1-40.2 2.9-38.2 4.2.6.4.8.8.2.8-.5 0-.4.5.3 1.2 1.5 1.5 1.6 6.4.2 7.3-.5.3-1 1.6-1 2.8 0 1.8-.2 1.9-1 .7-.6-.9-1-1-1-.3 0 .6-.3 1.8-.6 2.7-.4 1-.1 1.6.8 1.6.7 0 2.4 1 3.8 2.3s4.9 3.9 7.7 5.9c2.9 2 5 3.8 4.7 4.1s.3 2.5 1.4 4.9c1.1 2.3 2.3 6.2 2.7 8.5.4 2.4 1.1 4.5 1.5 4.8.5.3 1.4 3 2.1 6.1.7 3 1.6 5.7 2.1 6 .4.3.8 1.4.8 2.5s.5 1.7 1 1.4c.6-.4 1 .6 1 2.3 0 1.6.8 4.7 1.7 6.8.9 2.2 1.8 4.4 1.9 5.1s.9 2.7 1.8 4.4c1.8 3.6 2.1 8.9.6 8.9-.5 0-1 2.1-1.1 4.7 0 3.5-.3 4.2-.8 2.8-.7-1.6-1.1-.7-2.1 4-.8 3.3-1.3 6.4-1.2 6.8.5 1.7-2 13.2-2.9 13.7-.9.6-2.8 10.8-3.2 17.4-.1 2.2-.8 4.1-1.5 4.4-.6.2-.9.8-.6 1.3.3.6 0 1.6-.6 2.5-.8.8-1 2.8-.7 4.9.3 1.9.1 3.7-.4 4-.5.4-.9-.2-.9-1.2-.1-1.7-.1-1.7-1.1 0-.7 1.3-.6 2.1.5 3.2 1.2 1.3 7.5 1.5 42 1.5 22.3 0 40.6-.3 40.6-.8 0-1.3-20.8-90.4-21.6-92.5-.2-.7 2.1-7.1 5.2-14.2 3-7.2 6.9-16.4 8.5-20.5 7-17.4 7.6-18.4 15-24 3.8-2.9 6.9-5.4 6.9-5.7 0-.2-.9-2.2-2.1-4.5-1.1-2.2-1.8-4.9-1.6-5.9.4-1.6 0-1.9-3.6-1.8-2.3.1-4.9.3-5.7.5m98 83.8c0 .8-.7 2.2-1.6 3-1.2 1.2-1.4 2.7-.9 5.9.4 2.7.3 3.7-.3 2.9-.7-1-1.1-.5-1.6 2-.4 1.9-.2 3.4.4 3.6 1.2.4 1.3 3.2.1 3.2-.5 0-1.2-.6-1.4-1.3q-.6-1.35-.6 0c-.1.6.4 1.5.9 1.8.7.4.7 1.3 0 2.6-.6 1-.7 1.9-.3 1.9s0 .7-.9 1.4c-1.1.8-1.9 3.1-2.2 6-.3 2.7-1.2 5.6-2.1 6.6s-1.2 2-.6 2.1c.5.2.7 1.6.4 3.1s-.9 2.5-1.4 2.3c-.4-.3-1.1 2.2-1.5 5.5s-1.1 6-1.5 6c-.5 0-.9 2.1-.9 4.7 0 2.5-.3 4.3-.7 4-.4-.4-1.3.7-2 2.4-.7 1.8-1.1 3.4-.8 3.7.2.3.9-.6 1.5-1.9.9-2.1 1-1.8.6 1.6-.3 2.3-1.4 4.7-2.6 5.7-1.1.9-2 2.4-1.9 3.5 0 1.6.1 1.6.9-.2s.9-1.7.9.7l.1 2.8h21v-43.5c0-23.9-.2-43.5-.5-43.5s-.5.6-.5 1.4m-.8 7.8c-.9.9-1.2.7-1.2-1.2s.3-2.1 1.2-1.2.9 1.5 0 2.4"/></svg>