<svg xmlns="http://www.w3.org/2000/svg" width="682.667" height="512" version="1.0" viewBox="0 0 512 384"><path d="M183.1 13.5c-1.9 2-3.5 4.3-3.6 5.3-.1.9-.5 2.7-.9 4-.5 1.4-.3 2.8.4 3.7s.7 1.5.1 1.9c-1.3.8-1.2 25.7.1 27.3.5.7.7 1.7.3 2.2-.3.6-.1 2 .5 3.1 1.2 2.2 6.4 2.7 13.3 1.1 2-.5 3.7-.6 3.7-.2 0 .9-2.6 4.6-7.8 11-6.3 7.8-7.9 11.4-6.2 14.5 1.3 2.5 4.3 3.7 9.9 3.8 3 .1 3.1.2 3.1 4.8 0 4.7-1.7 24.3-2.5 29-.2 1.4.6.3 2-2.5 3-6.3 3.1-3.8.4 8-3.2 13.6-3.2 14.6-.4 9 2-3.9 2.4-4.3 2-2-1.6 8.1-2.6 10.1-6.6 12.8-4.8 3.3-7.4 8.7-8.3 17.2-.8 7.2-2.4 15.9-3.7 20-.9 3-1 3-6.9 2.7-3.7-.3-6 0-6 .7 0 .6.9 3.3 2 6.1 2.8 7 2.6 9.2-2 24.1-4.7 15.5-7.1 21-19.7 47.1l-9.6 19.7 2.6 5.9c2.6 5.8 2.7 6.1 2.2 24.3-.2 10.1-1.1 22.4-2 27.4-2 11.9-2 28.6 0 32.5 1.8 3.5 5.2 6 8 5.9 2.4 0 4.8-2.9 11.4-14 2.8-4.6 5.1-8.2 5.1-7.9-.1.3-1.3 5.3-2.9 11.2l-2.7 10.8H313l-1.9-4.7c-1-2.7-2.6-6.6-3.5-8.9l-1.7-4.1 3.4-3.4c4.6-4.6 5.6-8.6 6.7-26.2.5-8.2 1-15 1.2-15.1s2.4-1.9 5-3.9c6.9-5.5 7.2-8.5 1.9-19.3-4.6-9.3-4.8-12.9-.6-11.8 1.9.5 2.4.1 3-2.5.3-1.7.2-3.8-.3-4.7s-.7-2.5-.5-3.5c.3-1.1.1-2.5-.5-3.2-.5-.6-1.3-3-1.6-5.2-.4-2.2-1.7-7.2-2.8-11-1.2-3.9-2.3-8.1-2.4-9.5-.2-1.4-1.7-7.2-3.4-13s-3.2-11-3.3-11.7c-.2-.7-.6-1.6-1-1.9-.4-.4-.7-1.8-.7-3 0-1.3-.4-2.6-1-2.9-.5-.3-1-1.3-1-2.1s-.7-3.1-1.6-5.2c-2.6-5.6-2.7-6.3-2.5-11.6.1-4.6-.2-5.1-4.9-9.7-2.7-2.6-5-5.5-5-6.4s-.8-2.7-1.7-4.2c-1-1.4-1.8-3.1-2-3.7-1-4.5-4.9-14.6-6.6-16.9-1.5-2.2-1.8-3.9-1.5-7.9.3-2.8 1.2-5.6 1.9-6.2 1.1-.8 1.3-2.4.7-6.1-.3-2.8-.7-8.7-.7-13.3-.1-6.6-.4-8.2-1.6-8.2-2.2 0-2-9 .3-12.9 1.9-3.4 3.9-4.4 2.2-1-.6 1.1-.9 2.5-.7 3.2.3.7 1.7-1.4 3.2-4.7 2.4-5.1 2.7-6.6 2.2-12.2l-.6-6.4h2.8c2.7 0 8.1-4.4 8.1-6.7 0-.6.8-2.1 1.8-3.4s2.9-4.9 4.2-7.9c1.4-3 3.9-7.8 5.6-10.5 4.2-6.8 4.6-8.3 3.4-12-1.1-3.5-3.9-5.1-15.5-9.2-13.4-4.8-35.9-4.2-38.6 1-.7 1.2-1.3 2.3-1.4 2.5-.2.2-1.4-.8-2.8-2.2-3.3-3.2-9.7-4.9-17.4-4.4-5.2.3-6.2.1-6.6-1.4-.6-2.2-8.5-7.2-15.7-9.9-5.6-2.2-20.7-4.9-27-4.9-2.7 0-4.3.8-6.9 3.5m18.5 201.2c.9 6.2-.3 24.6-2.2 33.6-.8 3.9-1.4 8.3-1.3 9.7s-.4 3.8-1.1 5.3c-1.2 2.4-1.2 3-.1 3.7 1.1.6.8 1.6-1.4 4.4-1.5 2-2.8 3.6-3 3.6-.1 0 .2-2.4.6-5.3.4-2.8 1.7-16.5 2.9-30.2 1.1-13.8 2.3-26 2.5-27.3.9-3.7 2.3-2.5 3.1 2.5"/></svg>