<svg xmlns="http://www.w3.org/2000/svg" width="682.667" height="512" version="1.0" viewBox="0 0 512 384"><path d="M0 192v192h196l-.5-2.3c-.3-1.2-1.9-8-3.6-15.2-1.6-7.2-5-21.8-7.5-32.5-2.4-10.7-5.1-22.4-6-26l-1.6-6.6 8.9-24.8 8.8-24.9 4.9-3.9c2.7-2.2 5.8-4.5 6.8-5.3 1.8-1.2 1.9-1.5.4-4.3-1.8-3.5-2.1-8.8-.6-12.7l1-2.7-18.2.2c-54.8.6-157-6.9-167.3-12.2l-2.7-1.5 3.9-1.6c6.3-2.5 42.9-6.2 95.3-9.7 66.4-4.3 141.6-10.3 185-14.6 82.2-8.1 157-20.8 200.8-34l8.2-2.5V0H0z"/><path d="M485.5 193.1c-4.9 1-11.3 2.3-14.2 2.8-2.8.5-6.8 1.4-9 2-6.3 1.6-21.8 4.9-37.3 7.7-18.1 3.2-17 2.9-17 5.9 0 1.5.4 2.4.9 2.1.9-.6 2.1 2.6 2.1 5.9 0 1.6-.2 1.7-.9.5-.6-.8-.8-1.7-.5-2.1.2-.4 0-1-.6-1.4s-1 1.2-1 4.2c0 3.7-.5 5.2-2 6.3-2.3 1.6-2.6 3-.7 3 2.1 0 13.7 11.5 13.7 13.7 0 1.1.7 2.6 1.5 3.3s1.9 3.1 2.5 5.4c.6 2.2 1.5 4.8 2 5.7s1.2 3.3 1.5 5.3c.4 2 1 3.6 1.4 3.6s1.3 1.7 2 3.7c.7 2.1 2.3 6 3.6 8.8 1.4 3.3 2.4 7.9 2.8 13.5.3 5.6.2 7.6-.4 6-.7-2.2-.8-2.1-.5 1 .2 1.9-.4 5.3-1.3 7.5-1 2.2-1.5 4.8-1.3 5.9.2 1 0 1.6-.6 1.2s-1.5 2.3-2.2 6.6c-.6 4-1.6 8.2-2.1 9.4-.6 1.1-.9 2.4-.8 3 .2.5-.3 2-1 3.2-.7 1.3-1 2.6-.7 2.9s.1 1.3-.4 2.3c-.5.9-1.4 4.8-2 8.5-.6 3.8-1.4 7.3-1.7 7.9-.4.6-.8 1.7-.9 2.6-1.8 12.2-3.6 20-4.6 19.4-.4-.3-.8.4-.8 1.5 0 2.1.3 2.1 43.5 2.1 39.2 0 43.5-.2 43.5-1.6 0-1.7-8.3-36.3-22.1-92.6l-8.1-32.8 9.3-23 9.3-23.1 6.3-4.5c3.5-2.5 6.3-4.7 6.3-4.9 0-.3-.9-1.9-2-3.7s-2-4.1-2-5.1c0-2.1-1.8-2.1-13.5.4m-46.8 98.1c-.3.8-.6.5-.6-.6-.1-1.1.2-1.7.5-1.3.3.3.4 1.2.1 1.9M338 217.6c-10.8 1.1-32.5 2.6-72.7 5-7.3.4-10.3 1-10.7 2-.3.7-.1 1.6.4 1.9 1.3.8 1.3 6.5 0 6.5-.5 0-1 .8-1 1.7s-.7 2.4-1.5 3.3c-1.4 1.5-1.3 1.8 1 3 1.4.7 2.5 1.7 2.5 2.2 0 .4.6.8 1.3.8s2 .8 2.9 1.7c1.9 2.1 6 5.3 6.8 5.3.3 0 .6 1.1.6 2.5.1 1.4 1.1 4.4 2.1 6.8 1.1 2.3 3.2 8.2 4.7 13.2 1.5 4.9 3.2 9.8 3.7 10.7.5 1 .9 2.5.9 3.3 0 .9.5 1.3 1 1 .6-.4 1 .7 1 2.5 0 1.7.7 4.5 1.6 6.2 1 2 1.4 4.3 1 6.4-.3 1.9-.9 5-1.2 6.9-.4 2.1-1 3.2-1.7 2.8s-.8.8-.3 3.8c.3 2.5.3 3.8-.2 3.1-.6-.8-1.5 2.5-2.6 8.9-.9 5.7-2.2 10.9-2.8 11.6-.6.8-.8 1.6-.5 2 .4.3.2 1.4-.4 2.5s-1.3 3.2-1.5 4.6c-.3 1.5-1.4 7.2-2.6 12.7-1.1 5.5-2 11.2-2 12.7.1 1.9-.4 2.8-1.5 2.8s-1.4.6-.9 2.2c.3 1.3.6 2.6.6 3 0 .5 19.2.8 42.6.8h42.6l-.6-2.3c-.3-1.2-5.3-23.3-11.2-49.1l-10.7-46.8 5.8-14.7c3.1-8 7.1-18.3 8.7-22.9 3-7.9 3.5-8.6 10.5-14.3 4-3.3 7.3-6.3 7.3-6.7s-.7-1.6-1.5-2.6c-.8-1.1-1.5-3.5-1.5-5.3 0-3.2-.1-3.3-3.7-3.2-2.1.1-9.4.8-16.3 1.5"/><path d="M416.6 370.6c-.4.9-.4 1.9-.1 2.2.2.3.7-.3 1.1-1.2s.4-1.9.1-2.2c-.2-.3-.7.3-1.1 1.2"/></svg>