<svg xmlns="http://www.w3.org/2000/svg" width="682.667" height="512" version="1.0" viewBox="0 0 512 384"><path d="M0 104v104.1l3.3-.6c3-.5 41.4-3.3 74.7-5.5 53.3-3.5 121.2-9.6 162.5-14.5 113-13.6 193-36.3 261.3-74.3l10.2-5.7V0H0zm486 64.5c-1.9 1.3-3.9 2.4-4.4 2.4-.5.1-3.4 1.3-6.4 2.7-13.5 6.4-28.8 12-44.7 16.3-8.1 2.2-10 3.1-10.2 4.6-.5 4.6-1.6 9.1-2.4 10.1-.6.7-.1 1.7 1.3 2.7 4.8 3.3 10.8 9.5 10.8 11 0 1 .5 1.7 1 1.7.6 0 1 .7 1 1.5s.8 3.4 1.9 5.8c1 2.3 2.5 6 3.4 8.2.8 2.2 3.1 8 5.1 13 2.8 7.2 3.4 9.8 2.9 13.2-.3 2.4-1 4.3-1.4 4.3-.5 0-.8 1.7-.7 3.8.1 5.1-1.2 10.8-2.2 9.2-.5-.9-.8-.5-.8 1.1 0 4.4-1.5 14-2.1 13.3-.5-.4-2 5-3.5 12.6-.1.8-.5 2.2-.9 3-.7 1.7-3.7 15.9-4.4 21-.3 1.9-.9 3.7-1.2 4-.4.3-1.3 3.6-2.1 7.5-.7 3.8-1.9 7.6-2.7 8.3-1.5 1.6-1.8 3.6-.3 2.7 1.1-.7.9.5-1.2 9-.6 2.2-1.2 4.8-1.4 5.8-.2 1.1-.7 2.4-1.2 3.1-.5.6-1.2 3.9-1.5 7.3l-.6 6.3H512v-14.8c-.1-10.6-.3-14.2-1.1-12.9-3.2 5.5-5.9-3-23.6-74.6-9.1-36.9-16.8-68.2-17-69.4-.3-1.3.1-3.8 1-5.5.8-1.8 4.2-10.3 7.6-18.8 5-12.5 6.9-16.1 9.8-18.8 4.2-3.7 2.4-4.2-2.7-.7m-135.5 33.6c-26.3 5.5-27.6 5.7-44.9 8.8-11.2 2.1-15.6 3.4-15.6 4.7 0 .4.6.4 1.4.1 2.2-.9 3 5.1 1 8.1-1.1 1.7-1.2 2.2-.3 1.6.8-.4.4.5-.9 2-1.2 1.6-2.2 3.2-2.2 3.6s2.6 2.7 5.8 5.1c4.7 3.8 5.9 5.4 7.1 9.5.8 2.7 1.5 5.5 1.4 6.1 0 .7.3 1.1.7.8s1.1 1.2 1.5 3.3c.3 2 1.2 4.6 1.9 5.7s1.8 4 2.5 6.5 1.8 5 2.3 5.7 1 2.8 1.1 4.8c.1 1.9.4 3 .8 2.4.3-.6.9-.1 1.2 1.2s.3 2.8-.2 3.3c-1.1 1.5-2.8 8.5-3 12.2-.1 1.8-.8 4.7-1.6 6.6s-2.3 8-3.5 13.4c-1.1 5.4-2.7 13-3.5 16.9-.9 3.8-2 9.1-2.5 11.8-.5 2.6-1.4 5.6-1.9 6.6-.6 1-.8 2.1-.5 2.4s-.2 3-1.2 5.9-1.7 6.3-1.6 7.6-.2 3.1-.7 4.1c-.6 1-1.2 3.9-1.5 6.4l-.6 4.7h45c35.3 0 45-.3 45-1.3 0-.6-2.9-13.8-6.6-29.2-3.6-15.4-9-38.6-12-51.5s-6.6-28.2-8-34c-2.9-11.9-2.8-13.6 1.3-24 1.7-4.1 4.7-12 6.8-17.5 2-5.5 4.3-10.5 4.9-11 9.9-8.1 9.9-8.1 8.2-11.4-.9-1.6-1.6-3.9-1.6-5.1 0-1.1-.3-2-.7-1.9-.5 0-11.6 2.2-24.8 5m-111.6 18.3c-.5.6-36.9 3.3-59.7 4.6-23.1 1.2-22.9 1.2-22.4 5.5.2 1.9-.2 4.7-1 6.3-1.2 2.3-1.2 3.2-.3 4.5.7 1 1.5 1.7 1.9 1.7s2.7 1.4 5.1 3.1c3.7 2.6 4.8 4.3 7.4 11.3 1.6 4.4 3.3 9.4 3.7 11.1.4 1.6 1.5 4.8 2.5 7 3 6.5 5.9 15.6 5.9 18.6 0 1.5-1.5 8.9-3.4 16.5-1.9 7.7-4.9 20.4-6.6 28.4-1.8 8-3.8 16.6-4.6 19.3-.8 2.6-2.1 8.4-2.9 13-.8 4.5-1.8 9.2-2.1 10.5l-.6 2.2H205c40.6 0 43.1-.1 42.6-1.7-.6-2.1-8.1-33.6-15.6-66.3-2.9-12.4-5.6-24.1-6.1-26-1.6-6.4-.9-9.4 6.2-29.7 6.6-18.8 7.4-20.4 10.8-22.7 8-5.6 9.4-7.2 8.2-9.4-.6-1.1-1.1-3.4-1.1-5.1 0-3.1 0-3.1-5.3-3.1-3 0-5.6.2-5.8.4M0 302.9V384h55.5c40.5 0 55.5-.3 55.5-1.1 0-.6-1.6-7.7-3.5-15.8-1.9-8-6.6-27.8-10.5-44l-7-29.4 7.1-19.5c3.9-10.8 7.7-20.8 8.4-22.2.8-1.5 3.9-4.4 6.9-6.5l5.5-3.7-2.1-2.8c-2.1-2.8-2.2-7-.3-11.4.8-1.8.2-1.8-12.1-1.3-15 .5-72.5-1.8-96.6-4l-6.8-.6z"/></svg>