<svg xmlns="http://www.w3.org/2000/svg" width="682.667" height="512" version="1.0" viewBox="0 0 512 384"><path d="M0 104v104h2.3c1.2 0 6.9-.4 12.7-1 5.8-.5 23.8-1.9 40-3 171.8-12.1 256.5-26.6 334.5-57.3 18-7.1 55.4-25.3 69.5-33.9 11.1-6.8 15.7-9.4 23.5-13.5 6.4-3.3 7.8-3.7 16-3.8 5-.1 10.1-.5 11.3-.9l2.2-.7V0H0zm494 25.8c0 .7-.4 1-1 .7-.5-.3-1-.2-1 .3 0 .4-3.1 3-6.9 5.6-3.9 2.6-8.8 6.1-11.1 7.7l-4.1 3 2.6 3.2c1.4 1.8 3 3.7 3.5 4.4 1.2 1.5 1.3 6.6.1 5.9-.4-.3-1.3.6-1.9 1.9-1 2.1-.8 2.7 1.4 4.2 8.8 6.2 11 8.2 11.9 10.9.6 1.7 1.6 3.8 2.4 4.7.7 1 1 1.7.6 1.7s-.3.6.2 1.2c.6.7 1.8 3.7 2.8 6.5 1.1 2.9 2.3 5.3 2.7 5.3s.8.8.8 1.8 1 3.8 2.2 6.3c2.1 4.3 2.7 10.7 1.1 13.2-.4.6-.9 3.2-1.1 5.7s-.8 4.7-1.2 5c-.5.3-1.1 2.7-1.4 5.2-.2 2.6-.7 5.1-1 5.7-1.2 1.9-3.6 12.1-3.6 15.4 0 1.8-.7 4.5-1.5 6s-1.7 4.5-2.1 6.5c-.3 2-1.5 6.8-2.6 10.7-1.1 3.8-2.2 8.1-2.4 9.5-.8 5-2.4 11-3.4 13.5-.5 1.1-1.4 5.4-2 9.5s-1.5 7.9-2 8.4c-.6.6-1 2.7-1 4.8s-.4 3.8-1 3.8c-.5 0-1 1.3-1 2.9 0 2.6-.2 2.8-3.2 2.4-10.7-1.3-10.4-1.5-13.2 7.7-1.4 4.8-5.2 11.1-5.9 9.9-3.1-5-6-14.5-13.2-44.4-4.8-19.8-11.8-48.8-15.6-64.5-3.9-15.7-6.8-29.4-6.5-30.5.2-1.1 3.6-9.7 7.6-19 6.1-14.6 7.7-17.5 11.3-20.7 2.3-2 3.7-3.7 3-3.8-.6 0-1.5.5-1.8 1-.4.6-1.1.7-1.7.4-.6-.4-.8-.2-.4.4.3.6-.4 1.3-1.6 1.7-1.3.4-5.4 2.2-9.3 4-16 7.7-31.4 13.5-47.1 17.7l-11 3 .2 3.4c.2 1.9-.1 3.4-.5 3.4-.5 0-1.1 1.2-1.3 2.7-.3 2.4.4 3.4 5.4 7.3 3.8 3 6.1 5.7 6.9 8 .6 1.9 2.7 7.3 4.7 12 7.7 18.7 8.6 23.6 6.2 34-.7 3-1.6 7.3-2 9.5-.5 2.2-1.8 8-3 13-2.5 10.1-8.2 34.4-10.6 45-.9 3.8-1.9 7.7-2.2 8.5s-.6 2.8-.7 4.4c-.6 6.9-3.9 20.7-4.6 18.9-.5-1.1-.8.1-.8 3.2-.1 3.6-.4 4.6-1.1 3.5s-.9-.8-.9 1.5c.1 6-.3 8.7-1.1 7.5-.8-1.3-3-.5-3 1.1 0 .5 29.9.9 78 .9h78V257.5l-4-15.5c-2.2-8.5-4-16.5-4-17.7s1.8-6.8 4-12.4l4-10.3v-54.5l-9-9.3c-4.9-5.1-8.9-8.7-9-8m-193.5 74.7c-23.1 4.7-32.1 6.5-46.8 9.4-5.5 1-10.4 2.5-11 3.1-.9 1-.9 1.1 0 .6 1.7-.9 2.7 5.3 1.4 8.4-.6 1.4-1.8 3.4-2.6 4.5-1.4 2-1.1 2.3 4.5 6.4 5.9 4.3 5.9 4.4 9.1 14.5 1.7 5.5 3.7 11 4.4 12.1.6 1.1 2.2 5.3 3.5 9.2 2.3 7.2 2.3 7.3.6 15-1 4.3-2.4 10-3.2 12.8-.7 2.7-2.2 9.5-3.4 15-1.1 5.5-2.9 14-4 19-1.1 4.9-2.7 12.5-3.5 16.8s-1.7 8.2-1.9 8.6c-.6 1-4.6 20.5-4.6 22.5 0 1.4 4.6 1.6 45.6 1.6 41.6 0 45.6-.1 45-1.6-.3-.9-1.7-6.4-3.1-12.3-1.3-5.8-6.3-27.3-11-47.6-4.7-20.4-10.2-43.8-12.1-52.2l-3.5-15.1 6.7-18.9 6.8-18.9 5.3-3.9c4.8-3.5 5.2-4 3.8-5.5-.8-.9-1.8-3.1-2.1-4.8-.4-1.8-1.2-3.2-1.8-3.1-.6 0-10.5 2-22.1 4.4m-111.5 18c-6.3.7-19.8 1.8-30 2.4-35 2.2-44.2 3.2-42.9 4.7 1.2 1.5.4 8.1-1.3 10.1-.6.8-.1 1.7 1.9 3 6.4 4 10.4 7.8 11.2 10.7.5 1.7 2.3 6.9 4.1 11.6 1.7 4.7 3.5 9.8 4 11.5.4 1.6 1.5 4.7 2.4 6.7 2 4.7 2 8 .1 17.1-1.7 7.8-6.7 28.8-9 37.7-.8 3.1-1.9 7.6-2.4 10-2.2 11-7 32.7-7.7 34.3-.6 1.6 2.1 1.7 42.5 1.7 23.7 0 43.1-.3 43.1-.8 0-.4-1.8-7.9-3.9-16.7s-7.6-31.8-12.1-51.2l-8.3-35.1 6.9-19.7 6.9-19.6 6.3-4.6c4.6-3.4 6.1-5.1 5.6-6.2-.4-.9-.9-3.3-1.2-5.4-.5-4.2 1-4-16.2-2.2M0 305v79h76.6l-5.7-23.3c-3.1-12.7-8.2-33.6-11.3-46.4L54 291.1l7.6-20.6c8.3-22.4 6.8-20 17.6-27.6.5-.3.2-1.9-.7-3.5-1.7-3.4-1.9-6.7-.5-9.5 1-1.8.6-1.9-9.7-2-5.9 0-11.7-.2-12.8-.4-1.1-.1-14-.6-28.7-.9L0 225.9zm346.5 78c-.3.5.3 1 1.4 1 1.2 0 2.1-.5 2.1-1 0-.6-.6-1-1.4-1s-1.8.4-2.1 1m5 0c-.3.5.3 1 1.5 1s1.8-.5 1.5-1c-.3-.6-1-1-1.5-1s-1.2.4-1.5 1"/></svg>