<svg xmlns="http://www.w3.org/2000/svg" width="682.667" height="512" version="1.0" viewBox="0 0 512 384"><path d="M179.5 13.6c-1.6 1.9-2.9 4.2-2.8 5.2.1.9-.3 2.5-.8 3.5-.7 1.2-.7 2.3.1 3.2.7.9.8 1.5 0 2-1.4.9-1.3 5.8.2 7.3.9.9.9 1.2.1 1.2-1.7 0-2.6 3.7-1.4 5.9.6 1.1.7 2.2.2 2.5-1 .6-.7 4.9.5 6.8.4.6.9 2.4 1 3.8.8 7.4.7 7.3 9.5 6.8 4.3-.3 7.9-.2 7.9.2s-2.4 3.7-5.4 7.3c-7.5 9.2-9.9 13.3-9.1 15.7.9 2.9 4.3 4.9 8.8 5.2 2.1.1 4.3.8 4.9 1.5.8 1 .9 6.6.6 18.1l-.6 16.7 1.8-4c1-2.2 1.9-3.7 1.9-3.4.2 1.8-3.3 17.8-4.5 20.8-2.3 5.4-.9 4.7 1.7-.8 1.2-2.8 2.4-4.9 2.6-4.7.2.1-.2 2.7-.9 5.6-1 4.5-1.9 5.7-6.2 9.1-2.8 2.1-5.7 4.7-6.4 5.9-.7 1.1-2.1 8-3.2 15.3-1.1 7.2-2.3 14.7-2.6 16.5l-.6 3.3-5.2-.6c-7.9-.9-8.5.1-5.2 7.9 3.3 7.7 3.2 8.3-1.8 25.1-3.5 11.5-11.9 30.9-23.3 53.9l-5.5 10.9 3.3 7 3.2 7-1.3 9.6c-1 8-1 13.2.1 20.6.1.5-.6 5-1.5 10-.9 4.9-1.9 14.2-2.3 20.5-.6 12.2.1 15.3 4.4 19.2 2.1 2 8.8 3.5 7.8 1.8-.4-.6 0-1.7.8-2.3.8-.7 4.3-5.7 7.6-11.2 3.4-5.5 6.1-9.6 6.1-9 0 .5-1.4 5.9-3 12s-3 11.1-3 11.2c0 .2 34.6.3 76.9.3h77l-2.8-6.8c-5.7-13.8-5.7-13.7-1.8-17.6 4.3-4.3 6.2-11.8 7.2-28.9l.7-11.9 4.3-2.6c7.7-4.6 8.3-9 2.7-20.1-4-8-4.4-11.2-1.2-10.4 1.5.4 1.8.1 1.3-1.6-.3-1.3-.1-2.1.7-2.1.6 0 .9-.8.6-1.8-.3-.9-.8-3.3-1.1-5.2s-1-3.9-1.5-4.6c-.6-.6-.8-1.3-.5-1.6.2-.2-.7-4.4-2.1-9.4-1.4-4.9-2.9-10.9-3.5-13.4-.5-2.5-1.3-4.6-1.8-4.8s-.7-1.1-.4-2c.3-1.4-4.7-18.6-7.4-25.2-.3-.8-.7-2.6-.9-3.8-.1-1.3-.9-3.3-1.7-4.5-2.3-3.6-2.9-7.8-1.6-10.8 1.6-4.1.4-7.6-3.3-9.5-3.4-1.8-6.7-5.2-6.8-7.1 0-.6-1.1-3.3-2.4-6-1.3-2.6-2.9-7-3.5-9.7-.7-2.7-2.1-6.2-3.2-7.7-2.8-4-2.2-14.9.8-14.9.9 0 1.3-.6.9-1.5-.3-.8-.8-6.9-1.2-13.5-.5-9.1-1-12-2.1-12-.9 0-1.3-1.4-1.3-4.5 0-2.5.4-4.5 1-4.5.5 0 2.2-2.1 3.7-4.8 2.4-4 2.8-5.9 2.9-12.7.2-7.9.2-8 2.7-8 2.9-.1 6.1-2.6 8.1-6.4.7-1.4 4-7.9 7.3-14.4 3.4-6.4 6.5-12.3 7-13 1.8-2.2.9-8.8-1.4-10.7-3.7-2.9-20.8-8-29.1-8.6-11-.8-20.1.8-22.8 4.1-1.9 2.4-2.2 2.5-3.4 1-2.9-3.5-7.3-4.9-16.2-4.9-5.6-.1-8.8-.5-8.8-1.2 0-1.7-4.1-5-9.8-7.9-8.2-4.1-19.3-6.5-29.1-6.4-8.5 0-8.6.1-11.6 3.5m101.1 88.2c-2 2-2.2.1-.4-3.1 1.1-2 1.2-2.1 1.6-.3.2 1-.3 2.6-1.2 3.4m-80 114.8c.6 3.6.8 6.7.4 6.9-.3.2-.7 4.6-.8 9.7s-.7 12-1.3 15.2-1 7.3-1 9-.5 4.1-1.1 5.3c-.8 1.6-.8 2.6 0 3.5.8 1 .3 2.3-1.9 5.2-1.6 2.2-2.9 3.5-2.9 2.9s.7-7.5 1.5-15.4 1.9-22 2.4-31.2c.6-9.2 1.3-17.3 1.7-17.8 1.1-1.8 1.9 0 3 6.7"/></svg>