<svg xmlns="http://www.w3.org/2000/svg" width="682.667" height="512" version="1.0" viewBox="0 0 512 384"><path d="M0 104.1v104.1l3.8-.6c2-.3 6-.8 8.7-1.2 14.8-1.8 45.3-6.8 57.7-9.4 50.7-10.8 84.1-23.4 136.3-51.3 10.2-5.5 13-6.6 18.7-7.1l6.7-.6 6.8 6.7c3.8 3.8 9.1 8.6 11.8 10.8q6.15 5.1 14.1 12c.7.5 3.1 2.6 5.5 4.5 10.7 8.7 26.2 23.8 48.9 47.6 16.2 17 27.3 24.3 43.4 28.4 8.5 2.1 16.3 2.4 36.4 1.3 11.2-.6 12.2-.8 12.9-2.7.4-1.2.6-2.7.5-3.3-.5-2.5 6.8-13.9 19.9-31.4 10.7-14.2 20.8-21 41.5-27.9 12.3-4.1 16.4-6.2 16.4-8.3-.1-.7-2.6-2.4-5.8-3.9-5.8-2.8-10-5.1-14.6-8.1-1.4-.9-2.8-1.7-3.1-1.7s-1.2 1.8-2.1 4c-1.6 3.9-3.3 5.3-3.5 2.7 0-.6-1.1 2.6-2.3 7.3l-2.3 8.5-.7-7c-1.1-11.2-1.7-13.9-2.7-12.3-.5.7-.9 2.2-.9 3.2s-1 5.1-2.2 9l-2.3 7.1-.5-13c-.3-7.2-.9-13.6-1.4-14.3-.5-.9-2.1.9-5.2 6.2-2.5 4.2-4.6 7.6-4.8 7.6s.3-1.9 1.2-4.3c1.9-5.3 2.1-21.9.3-24.1-1-1.2-1.8-1.3-3.6-.4-1.9.9-3 .6-5.9-1.2-2-1.2-3.6-2.6-3.6-3 0-1.9-3.9-3.1-6.1-1.9-2.1 1.1-2.2.9-1.6-1.8.4-2.2.1-3.2-1.5-4.2-2.7-1.7-3-1.1-1.9 4 2.2 9.4 1.4 17.7-3.7 38.4-.6 2.2-1.3 7-1.7 10.8-.5 5.5-1.2 7.4-3.8 10.5-1.8 2.1-3.9 4.8-4.7 6.1-1.3 1.9-2.9 2.7-6.2 3-.5.1-.8.8-.8 1.6 0 1.7-1.6 2-2.5.5-1.1-1.8-2.5-1.1-2.6 1.2 0 2.2-.1 2.2-.9.3l-.8-2-.8 2c-.6 1.5-1.3-.5-2.4-7.5l-1.6-9.5-1.1 5.5-1 5.5-1.4-3.3c-.7-1.7-1.7-3.2-2.1-3.2s-.8-1.2-.8-2.7c0-3-2.9-11.4-4.2-12.4-1.1-.8-3.8-13.5-3.8-18.4 0-2.2-.3-5.1-.7-6.4l-.6-2.3-1.3 2.8c-1.2 2.8-1.2 2.8-1.3.5-.1-1.3 1.1-8 2.5-14.8 1.4-6.9 2.4-12.6 2.2-12.8-.2-.1-4.9.7-10.6 1.8-5.6 1.1-10.4 1.8-10.7 1.5-.9-.8 5.6-10.6 10.9-16.4 2.7-3 7.9-7.1 11.5-9.2s7-4.7 7.6-5.8c3.2-6.3 7.3-12.3 10.7-15.8 6-5.9 7.3-8.3 5.8-10.1-.7-.8-1.8-1.5-2.4-1.5-1.9 0-6.5-4.4-6.8-6.5-.1-1.1.4-4.7 1.1-8 1.1-5.4 1-6.9-.8-14.8-2.5-10.3-2.1-14.9 1.7-22.5 4.5-9 14.4-18.1 19.7-18.3 1.7 0 3.9-.4 5-.9S321.4.1 205.8.1L0 0zM419.4 3.6c1.9 2 3.8 5.2 4.3 7.1l.8 3.3 6.9-7 6.9-7H416z"/><path d="M209.8 168.5c-5.3 3.5-9.9 6.9-10.3 7.5-.3.6.3 2.6 1.6 4.6 1.6 2.6 1.9 3.8 1 4.7-2.1 2.1-1.1 4.7 2.8 7.5 4.4 3 4.7 3.6 8.6 14.2 1.4 4.1 3.3 9.1 4.1 11 1.4 3.3 1.3 4.6-2 19-1.9 8.5-3.7 16.6-4 18-1.4 7.6-5 24-7.5 34.5-1.6 6.6-3.4 14.8-4.1 18.2-1.1 5.5-1.6 6.3-3.5 6.3-1.4 0-3.4 1.3-4.9 3l-2.5 3.1-1.5-2.3c-1.5-2.4-23.6-90.6-23.6-94.4 0-1.1 1.8-7.4 4.1-14 3.9-11.3 5.1-13.3 10.4-17 1.6-1.2 1.7-1.6.6-2.3-.9-.6-5.2 1-12.5 4.4-13.6 6.4-26.6 11.2-40.8 15.1-4.9 1.3-5.9 1.9-6.4 4.2-.3 1.5-.9 3.4-1.4 4.3-.7 1.3.1 2.4 3.4 4.7 3.7 2.7 4.7 4.2 7 10.9 1.5 4.3 3.2 8.7 3.6 9.8 3.7 8.4 3.7 8.7 1.9 16.5-3.6 15.1-12.4 54.5-15.9 71-3.2 14.7-4.2 17.6-6.4 17.2-1-.2-2.9.6-4.1 1.8l-2.3 2.2-1.5-2.4c-.9-1.2-6.8-23.5-13.2-49.5l-11.7-47.2 4.8-13.4c4.3-11.9 5.2-13.6 8.5-16 3.7-2.7 3.8-2.8 2.4-6-.8-1.9-2.2-3.3-3.4-3.5-1.1-.2-15.1 2.2-31 5.4l-28.9 5.7.5 3.4c.4 2.4.1 3.9-1.3 5.4-1.8 2-1.7 2.1 1.1 4.4 1.7 1.3 3.3 2.4 3.7 2.5.9 0 2.6 3.8 7.7 16.9l4.1 10.4-3.1 13.1c-4.6 19.5-5.5 23.4-7.3 31.6-.9 4.1-2.3 10.2-3.1 13.5-.7 3.3-2.3 9.8-3.3 14.5-5.9 25.6-6.6 28.1-8.4 27.7-.9-.3-2.5.1-3.5.9-1 .7-2.1 1.4-2.4 1.4-1.5 0-4-7.7-9.4-28.5C3.4 330.4.6 320.3.4 320.1s-.4 14-.4 31.7V384h185.5c102 0 185.5-.3 185.5-.6s-4-18.8-9-41.1c-4.9-22.3-9-41.3-9-42.3s1.9-6.6 4.1-12.5c3.1-7.8 5.1-11.5 7.7-14l3.6-3.4-1.6-3.3c-1.5-3.2-2.3-3.6-11.6-6.1C345 258 336 257.2 336 259c0 .6.4 1.8.9 2.8 3 5.9 7.4 17.7 7.8 21.2.4 2.7-.3 7.6-2 14.3-1.4 5.6-3.5 14.2-4.6 19.2-1.1 4.9-3.2 13.9-4.6 20-1.4 6-3.1 13.2-3.7 16-.6 2.7-1.8 7.5-2.8 10.5-1.5 5-1.9 5.5-4.8 5.8-1.8.2-3.2.9-3.2 1.5-.1 1.3-3.9 6.2-4.4 5.6-1.6-1.9-3.5-8.8-9.6-35.6-3.9-16.9-7.7-33.5-8.4-36.8-.8-3.3-2.2-9.4-3.1-13.5l-1.8-7.5 4.7-12c3.9-9.9 5.4-12.6 8.6-15.3 3.4-2.8 3.8-3.7 3.3-6.3-.3-1.7 0-3.5.7-4.4 1.4-1.7 1-2.3-12.1-18.5-7.5-9.3-14.1-16-15.8-16-.9 0 1.5 7.3 5 15.1l2.1 4.5-4.8 21c-2.6 11.5-5.2 23.4-5.9 26.4s-2.7 12-4.4 20c-4.8 22.8-4.8 22.7-9.6 22.1-.6 0-1.9 1.5-3 3.5-1.9 3.6-1.9 3.6-3.6 1.5-1-1.2-2.7-6.3-3.9-11.4-1.2-5-6-25.5-10.6-45.4l-8.5-36.3 4-11.1c2.3-6.1 4.1-11.5 4.1-12.1s1.8-2.6 3.9-4.4c3.2-2.8 3.9-4 3.8-6.9-.1-2.2.5-3.9 1.6-4.7 1.6-1.2.7-2.2-7.9-9.2-5.3-4.4-12.2-10.8-15.3-14.3s-6.3-6.3-7.1-6.3-5.9 2.9-11.2 6.5M2.7 228.8c-2.6.3-2.7.5-2.7 6.3 0 3.2.3 5.9.6 5.9s2.1-1.2 4-2.6c2.3-1.8 3.1-3 2.5-3.8-.5-.6-1.1-2.2-1.3-3.6-.2-2.1-.8-2.4-3.1-2.2m390.8 41-4 .4 4.2 3.6c3.6 3.3 4.6 5.2 8.2 15.8 2.3 6.6 4.1 13.2 4.1 14.5 0 1.4-.8 5.5-1.9 9-1 3.5-3.5 13.6-5.6 22.4-2 8.8-4.1 16.9-4.5 18-1.1 3-6 23.8-6 25.4 0 .8-.7 2.3-1.7 3.3-1.5 1.7-1.3 1.8 4.8 1.8h6.4l2.4-10.3c1.3-5.6 3.3-12.7 4.6-15.7 2.5-6.1 4.6-15.7 7-32.7 1.4-9.9 6-33.8 8-41.6.6-2.3.4-2.7-1.4-2.7-1.3 0-3.7-1.6-5.6-3.7l-3.4-3.7 2.1-2.3 2.2-2.3-8 .2c-4.3.1-9.7.4-11.9.6"/></svg>