<svg xmlns="http://www.w3.org/2000/svg" width="682.667" height="512" version="1.0" viewBox="0 0 512 384"><path d="M0 103v103h2.3c6 0 37.8-6.4 57.7-11.6 36.6-9.6 64.7-20.8 96.6-38.5 12.9-7.2 17.5-9.2 22.1-9.9 3.2-.4 6.3-.5 7-.1.6.3 3.7 3 7 6 3.2 2.9 7.4 6.8 9.3 8.5 1.9 1.8 5.6 4.8 8.1 6.8 13.3 10.1 24.5 20.2 44.9 40.7 24.3 24.5 30.9 30.1 41.1 34.9 13.5 6.4 24.5 7.8 50.9 6.5l15.5-.8.6-3.6c1.1-7.3 15.9-30.1 25.8-39.9 7.5-7.4 17.2-12.9 32.1-18.1 16.5-5.7 17.5-7.5 7.2-13.1-10-5.6-12.7-7.2-13.1-8.1-.4-1-3.1 4-3.1 5.9 0 .7-.9 1.9-1.9 2.6-1.2.8-2.2 3.2-2.6 6.1-.4 2.6-1.1 4.7-1.5 4.7s-1.1-3.6-1.4-8.1c-.4-4.4-1-7.8-1.3-7.6-.3.3-1.3 4.2-2.3 8.7-2.2 9.8-3.4 11.5-2.8 4 .4-4.5-1.5-18.6-2.6-19.7-.2-.2-1.7 2.4-3.5 5.7s-3.4 6-3.6 6c-.1 0 .2-1.9.7-4.3 1.5-6.3.4-19.4-1.8-21.8-2.5-2.8-13.4-10-13.4-8.8 0 1.1-4.9 4.3-5.6 3.6-.3-.3 0-2.1.7-4.1 1.1-3 1-3.8-.2-5.3-.9-1-2.1-3.7-2.8-6-1.7-6.3-2.6-5.9-2.2 1 .2 3.4.4 12.7.5 20.7.1 12.6-.2 15.4-2.2 21.5-1.2 3.9-2.4 8.1-2.7 9.4-.2 1.3-.9 2.8-1.4 3.5-.6.7-1.3 3.2-1.7 5.6-.7 4.2-3.3 10.5-3.5 8.5-.1-.6-.4.1-.8 1.5s-1.3 2.4-1.9 2.3c-.7-.2-1.2.4-1.2 1.2s-.5 1.5-1.1 1.5c-.7 0-2 1-3 2.2-1.1 1.1-1.9 1.6-1.9 1s-.7-.9-1.5-.6c-1 .4-1.5 0-1.6-1.2-.1-1.1-.7.3-1.4 3.1l-1.3 5-.2-4.5c-.1-3.8-.3-4.1-1-2.3-1.4 3.4-2.3 2.8-1.6-1.1.4-2 .2-3.7-.4-4.1-.5-.3-1 .1-1 1 0 1.2-.5 1.1-2.5-.8-4-3.6-11.4-27.1-11.5-35.9 0-4.2-1.4-5.6-3-3.1-1 1.6-1.1 1.6-.6-.2.3-1.1 1.2-5.2 2-9 .8-3.9 2-9.4 2.7-12.2.7-2.9 1-5.5.8-5.7-.2-.3-3.3.2-6.9.9-3.6.8-7.1 1.4-7.7 1.5-2.1 0-1.5-1.9 1.2-4.4 1.4-1.3 2.5-2.7 2.5-3.1 0-1.7 7.4-9.8 12.4-13.5 3.5-2.6 5.6-5.2 6.5-7.7 2.2-6 7.5-13.6 12-17.2 2.3-1.8 4-3.8 3.9-4.3-.2-.6-3.1-2.1-6.3-3.4-9.6-3.9-10.1-4.7-8.6-14.6.8-6 .9-10 .1-14.3-1.5-8.7-.4-14.6 4-21.3 7.2-11.3 17.8-18.2 27.7-18.2 4 0 8.9 5 10.5 10.8l1.3 4.6 5.3-6.8c8.1-10.3 20.1-18.5 33.2-22.7C417.3.3 409.4.2 208.8.1L0 0zM505 3c3 1.6 5.8 2.9 6.3 3 .4 0 .7-1.4.7-3V0h-6.2l-6.3.1zm1.1 142.6c-.2 1.9-5.7 7.4-7.4 7.4-1.1 0-2.1 1.6-3 4.7l-1.4 4.8-1.2-3.8c-.7-2.1-1.7-3.7-2.2-3.5s-2.1 2.2-3.5 4.6l-2.5 4.2 3.8 1.6c4.7 2 4.8 2.1 3.5 3.6-.5.7-1.4 3-2 5-.9 3.4-.8 4 1.6 6.3 2.3 2.3 17.6 10.5 19.5 10.5.4 0 .7-8.9.6-19.8-.1-15.2-.3-19-1.1-16.5-1.4 4.4-2.8 4.2-2.9-.5-.1-3.7-1.6-10.7-1.8-8.6"/><path d="m163.7 174.7-9.8 6.6 2 2.1c2.5 2.7 2.8 4.6 1.2 7.5-1.1 2-1.1 2.5.2 3.3 6.3 3.5 9.4 8.8 14.7 25.5 1.4 4.7 1.6 3.9-5.3 34.9-2 8.8-3.8 17.1-4.1 18.5-.3 1.3-2.1 9.4-4 17.9s-3.6 16.6-3.8 17.9c-.2 1.7-1.1 2.5-2.7 2.8-1.4.2-3.3 1.1-4.3 1.9-1.6 1.5-1.8 1.4-3.3-1.7-2.4-5.3-22.5-88.2-21.6-89.4.4-.5 2.5-5.8 4.5-11.7 3.1-8.9 4.4-11.2 7.3-13.4 2.4-1.8 3.2-2.9 2.4-3.7-.7-.7-4.1.4-11.1 3.7-11.1 5.2-28.8 11.8-39 14.4-5.6 1.5-6.5 2.1-6.8 4.2-.2 1.4-.9 3.1-1.5 3.9-1.1 1.3-.9 1.6 5.5 6.4.9.7 3.7 6.7 6.3 13.5l4.7 12.2-2.6 10.8c-1.4 5.9-5.1 21.9-8.2 35.7-7.4 32.9-7.1 31.5-7.9 35.5-1.2 6.1-2.7 9-4.6 9-1 0-2.1.4-2.4 1-1.1 1.8-2.5 1-4-2.3S44 261 43.2 255.4c-.5-3.6 7.2-26.1 9.8-28.4.9-.8 2.7-2.2 4.1-3.2 1.9-1.3 2.2-1.9 1.1-2.9-.6-.7-1.2-2.1-1.2-3.1 0-1.2-.8-1.8-2.2-1.8-1.3 0-14.1 2.3-28.6 5.2L0 226.3v7.2c0 5.1.4 7.6 1.4 8.5.8.6 2 2.8 2.7 4.8.6 2 1.7 4.8 2.4 6.2 3.2 6.1 5.5 12.1 5.5 14.2 0 1.2-.8 5.4-1.9 9.2-1 3.9-2.9 11.6-4.1 17.1-1.3 5.5-3.1 13.5-4.1 17.9C.2 318.2 0 323.6 0 351.6V384h351.6l1.6-11.4c.9-6.2 2.8-14.7 4.2-18.9 1.5-4.5 3.8-16.4 5.6-28.9 1.7-11.7 4-25.8 5.1-31.3 2.6-13.4 2.5-13.9-1.2-15-1.7-.6-3.8-2.3-4.7-3.8-1.6-2.7-1.6-2.9.8-4.7 1.4-1 2.2-2.1 1.9-2.4-.7-.7-28.9.6-28.9 1.3 0 .3 1.5 1.6 3.3 2.7 2.9 1.9 3.9 3.8 7.6 14.3l4.3 12.1-1.6 6.2c-.9 3.5-2.5 10.3-3.5 15.3-1.1 4.9-3.2 13.5-4.6 19-2.6 10.1-3 12.1-4.1 18.5-.4 1.9-1 3.9-1.4 4.5-.4.5-1.3 4.3-2 8.2-.7 4-1.7 7.4-2.2 7.4-.4.1-1.6.2-2.5.3-1 0-2.6 1.1-3.6 2.3-2.4 3-3.2 2.9-4.5-.5-1.5-3.7-18.5-79.2-18.5-81.7 0-1.1 1.7-6.5 3.7-12 2.7-7.5 4.6-10.8 7.2-13.3 3.4-3.2 3.5-3.6 2.3-6.4-.7-1.6-2.4-3.4-3.8-3.9-3.5-1.4-17.6-4.5-23.2-5.2l-4.7-.6 4.1 10.2c4.6 11.8 5.1 18.4 2.3 28.7-1 3.6-2 7.8-2.2 9.5-.2 1.6-.9 4.6-1.6 6.5-.6 1.9-1.9 7.3-2.9 12-3.6 17-8.1 36.6-9 38.8-.6 1.6-1.5 2.2-2.5 1.8-.9-.3-2.5.4-3.9 1.8-4.1 4.1-2.8 8.5-19.2-64.5l-4.6-20.6 4.2-11.4c3.2-8.4 5.1-12.1 7.6-14.3 2.6-2.4 3.4-4.1 3.9-7.8.5-4.6.4-4.9-6.1-13-8-10.1-20.3-22.8-22-22.8s-1.7-.2 1.2 6.4c1.4 3.1 2.5 6.2 2.5 6.9s.6 2.4 1.3 3.8c1.2 2.2 1.1 3.8-.5 11.5-1.1 4.9-3.2 15-4.7 22.4-2.7 12.6-5 22.6-7.1 31-.5 1.9-1.8 7.9-3 13.2-1.5 7-2.6 9.8-3.6 9.8-.8 0-2.6 1.1-4 2.5s-2.7 2.5-2.9 2.5c-.9 0-3.8-9.9-7.5-25.5-2.1-9.4-6.2-26.5-9-38-2.7-11.6-5-22.5-5-24.3s1.6-8 3.6-13.7c2.9-8.3 4.4-11.2 7.1-13.5 2.4-2.1 3.2-3.6 2.8-4.9-.3-1 .3-2.9 1.5-4.4l2.1-2.6-5.5-4.1c-3.1-2.2-9.6-8.1-14.5-13-6.4-6.5-9.5-9-11.2-8.9-1.3 0-6.8 3-12.2 6.6m164.6 15.8c0 2.7.2 3.8.4 2.2.2-1.5.2-3.7 0-5-.2-1.2-.4 0-.4 2.8"/></svg>