<svg xmlns="http://www.w3.org/2000/svg" width="682.667" height="512" version="1.0" viewBox="0 0 512 384"><path d="M0 101c0 67.5.3 101 1 101 2.3 0 24.9-6.3 37.3-10.4 17.1-5.6 32-11.9 49.3-20.8 25.9-13.3 28.9-14.7 32.5-15.4 3.4-.5 4.2-.2 9.1 4.3 6.4 5.7 10.7 9.3 29.3 24.4 7.7 6.3 23 20.2 34 30.9 34.4 33.6 39.1 35.4 86 33.8 3.9-.2 9.2-.1 11.9.2l5 .5.8-3.8c1.7-8.3 14.4-29.4 22.3-37.3 6.5-6.4 14.7-10.9 29.7-16.4 15.6-5.7 16.3-7.6 5.4-15-4.1-2.7-7.7-5.4-8.1-6-1.3-2.1-2-.9-2.2 3.5 0 2.6-.7 5.1-1.7 6-.9.9-1.9 3.4-2.2 5.6-.7 4.4-2.4 4.3-2.4-.1 0-1.6-.4-3.1-.9-3.4-1-.7-2.1 1.7-2.1 4.5 0 1-.4 1.9-1 1.9-.5 0-1-1.4-1-3.1 0-3.6-1.9-12-3-13.3-.5-.4-1.6.8-2.5 2.8-1 2-1.9 3.6-2.2 3.6-.2 0-.2-2.4.2-5.3.4-3.4.1-7.7-1-12.5-1.5-6.3-2.1-7.4-4.8-8.8-2.4-1.3-3.5-1.4-4.9-.5-1.5.9-1.8.8-1.8-.8 0-1.9-.2-1.9-4.1-.6-2.3.8-4.3 1.5-4.5 1.5s.3-1.8 1.2-3.9c2.1-5.3 1.5-7.5-2.1-8.1l-3-.6 3.3-1.7c3.7-2 3.7-2.4 1.7-9.1-.8-2.7-1.5-6.6-1.5-8.8 0-4.1-1-4.8-3.1-2.1-1.4 1.7-1.6 7.4-.7 36.8.3 12.8.3 13.2-3.3 23.7-2.1 5.9-4 12.6-4.4 15s-1.6 5.5-2.6 7c-1.1 1.4-1.9 3.1-1.9 3.8 0 .6-.6 1-1.2.8-1.4-.5-4.8 3.3-4.8 5.2 0 .6-.5.8-1 .5-1.7-1.1-5.1.6-6 2.8-.8 2-.9 1.9-1-.8 0-1.7-.5-3.7-1.1-4.5-.9-1.3-1-1.3-.6.1.3.9.1 2.2-.4 3-.6.9-.9 0-.9-2.9 0-2.3-.4-4.2-1-4.2-.5 0-1 .6-1.1 1.2-.1 2.5-1.8-2.8-1.8-5.9-.1-1.7-.6-3.5-1.3-3.9-1.1-.7-.8 3.7.7 8.1.6 1.9.6 1.9-.8.2-3-3.7-9.3-25.9-9.9-34.7 0-.8.7-6.2 1.6-11.9.9-5.8 1.6-10.6 1.6-10.9 0-.2-1.8-.1-4 .3s-4 .4-4 0 2.6-3.3 5.8-6.5c4-4 6.2-7.1 7.1-10.1 2.3-7.7 9.2-19.8 13.3-23.3l3.9-3.4-7.3-2.2c-4-1.2-9-3.1-11.2-4.2l-3.8-2 .6-5.6c.4-3.1 1-10.2 1.5-15.7 1-11.3 1.6-13.2 6.3-19.6 6.8-9.3 18-16.9 25-16.9 3.1 0 4.6.8 7.8 4 2.2 2.2 4.2 5.2 4.5 6.7 1.5 6.9 1.8 6.8 6.8-1.1 8.3-13 20-21.3 35.7-25.2 10.8-2.7 57.2-2.8 66.9-.1 8.9 2.4 12.7 4.4 17.6 9.1 7.3 7.2 10.1 12.9 14.2 29.1 2.6 10.5 2.6 15.6.3 23.7-1.8 6.1-.5 8.6 5.8 11.5 7.2 3.3 8.5 6.3 7.2 16.5-1.6 12.4-2.6 16.1-5.3 18.3-3 2.5-4.3 9.5-2.5 12.6 1.1 1.8 1 2.3-1.2 4.1-1.4 1.1-2.5 2.6-2.5 3.4s-.4 1.3-.9 1.3-1.2.4-1.6 1.1c-.4.6-1.4-.6-2.5-3-1-2.2-2.1-4-2.5-4-.3 0-1.2 2.2-1.9 4.9-.8 3.2-1.9 5.1-3 5.4-1.1.2-2.4 2.1-3.1 4.3-2.1 6.5-3 6.2-3-.7 0-8.6-1.2-10.3-3.6-5-1.1 2.2-2.4 4.1-3.1 4.1-.6 0-1.6 1.2-2.2 2.7-2.1 4.9-4.4 8.8-5.8 9.6-.7.4-1.3 1.4-1.3 2.1 0 .8-1.2 3.9-2.6 7s-2.3 6-2 6.5c.9 1.4 11.2 6.5 19.3 9.5 7.7 2.9 17.5 8.8 20.9 12.7 2.4 2.6 8.2 13.9 13.4 25.9 1.8 4.1 3.7 8.5 4.3 9.7 1 2.1 1.7 2.3 10.1 2.3 5 0 12-.6 15.6-1.3 3.6-.6 9.8-1.2 13.8-1.1l7.2.1V0H0z"/><path d="M114 175.9c-4.7 2.3-18 11.2-18 12.1 0 .3.7 1.5 1.5 2.6 1.7 2.2 1.9 5.6.5 7-.8.8.1 1.9 2.8 3.8 3.4 2.3 4.4 4 7.6 12.7 2.1 5.5 3.8 11.2 3.8 12.8.1 1.5-.9 6.8-2 11.7-1.2 4.9-4 17-6.2 26.9s-4.9 21.8-6 26.5-2.2 9.8-2.5 11.3c-.8 3.8-5.2 5.9-7 3.3-.8-1-5.7-19.4-10.9-40.8L68 226.7l3.6-10.1c2.5-6.8 4.8-11.2 7-13.6 2.5-2.7 3.1-3.9 2.3-4.7-.9-.9-2.7-.3-7.3 2.1-8 4.3-24.8 10.8-36 14.1-5 1.4-9 2.6-9.1 2.8-2.5 7.2-2.5 7-.4 8.5 4 2.8 5.7 5.4 9.3 15.2l3.8 9.9-2.1 9.3c-1.1 5.1-3.9 16.9-6.1 26.3-2.2 9.3-4.4 18.8-4.9 21-5.3 24.6-6 27-9 27.8-3.2.8-4.1-1.7-11.5-30.8-3.7-14.3-6.8-26.5-7-27-.3-.6-.5 23.2-.5 52.7L0 384h290v-6.8c0-9.6 1.7-23.3 4-32 1.6-6.1 6.4-41.9 6.2-45.7-.1-.6-.4-2.8-.7-5-.5-3-.1-5.7 1.9-10.7l2.5-6.7-3.4-.7c-2.4-.4-3.9-1.5-4.9-3.5-1.3-2.7-1.3-2.9 1.8-5.2 1.7-1.4 2.9-2.7 2.6-2.9s-8.6.1-18.5.7l-18 1 3.4 2.7c2.8 2.1 4.1 4.6 7.1 13 2.8 7.8 3.5 11 2.9 13.3-1.1 4.1-7.1 29.4-10.4 43.5-5.8 25.3-6.9 29-8.5 29-.9 0-2.1.5-2.6 1-.8.8-1.4.7-2.1-.2-.6-.7-4.5-16.6-8.7-35.3s-8-35.5-8.5-37.4c-1.4-4.7 5.4-23.4 9.8-26.8 2.7-2.1 2.8-2.5 1.8-5.3-1.3-3.4-2.5-3.8-18.2-7.1-11.7-2.4-13.9-2.5-13-.2.4 1 2.2 6.1 4.1 11.3l3.4 9.5-3.6 15.5c-2 8.5-4.2 18.2-4.9 21.5-1.7 7.5-8.4 36.5-9 38.5-.3.8-1.6 2-3 2.7-2.3 1-2.7.9-3.9-1.5-.8-1.5-3.9-14-7.1-27.7-3.1-13.8-6.7-29.5-8.1-35-1.3-5.5-2.4-11.2-2.4-12.6 0-1.5 1.6-7 3.5-12.3 2.7-7.4 4.3-10.4 7-12.7 2.5-2.2 3.4-3.7 3-5-.3-1-.1-2.7.4-3.8.9-1.6-.3-3.5-8-12.8-8.4-10.1-16.6-18-21.1-20.4-1.7-.9-1.8-.8-1 .8.5 1 2.4 6 4.2 11 3.4 9.9 3.4 9 0 23.8-1.1 4.4-3.8 16.3-6.1 26.5-8.1 36.1-8.3 37-11.2 38.5-4.3 2.2-2.7 7-17.1-53.3-3.1-12.8-5.6-24.1-5.6-25.1s1.6-6.3 3.6-11.7c2.6-7.3 4.3-10.5 6.5-12.2 1.9-1.5 2.9-3.3 2.9-4.9 0-1.5.7-3.4 1.5-4.3 1.4-1.5 1-2.1-4.7-6.6-3.5-2.7-9.9-8.3-14.3-12.5l-8-7.7zM1.3 219.7c-.9.3-1.3 3.1-1.2 9.1v8.7l1.9-4.1c1-2.3 3.2-5.1 5-6.4 2.2-1.6 2.8-2.6 2.1-3.3-.6-.6-1.1-1.9-1.1-2.9 0-1.3-.7-1.8-2.7-1.7-1.6 0-3.4.3-4 .6M469 263c0 1.2 1.3 3.8 2.9 5.8s3.2 4.8 3.6 6.2 2 5.5 3.6 9.1c2.4 5.5 2.7 7.1 1.9 10-.5 1.9-3 11.9-5.5 22.4-2.6 10.4-5.7 23.5-7.1 29-2.2 9.2-2.4 11.1-1.8 24.2l.7 14.3H512v-23.8l-.1-23.7-6.3-24.6-6.3-24.6 4.4-10.3c2.4-5.6 5.4-11 6.6-12s2-2 1.7-2.3c-.3-.2-10.1-.7-21.7-1.1-21.1-.6-21.3-.6-21.3 1.4"/></svg>