<svg xmlns="http://www.w3.org/2000/svg" width="682.667" height="512" version="1.0" viewBox="0 0 512 384"><path d="M0 100.1v100.1l3.3-.7c6.7-1.5 25.2-7.5 37-12.1 6.7-2.6 23.1-10.3 36.5-17.1 13.9-7 25.5-12.3 27.1-12.3s3.6.9 4.7 2.1c1 1.2 10.9 9.4 21.9 18.2 11.4 9.1 27.1 23 36.5 32.2 21.3 21 26.1 25.1 36 30.8 11.6 6.6 29.4 9.6 45.9 7.7 8-1 12.6-1 18.6-.2 4.8.6 8.4.7 8.9.2s1.1-2.4 1.3-4.1c.5-4.4 10.5-23.1 16.3-30.5 6.3-8 16.1-14.5 29.7-19.6 13.9-5.2 16.3-6.5 16.3-8.6 0-2.3-1.7-4.3-6-7.2-1.9-1.3-5.2-3.9-7.2-5.9l-3.8-3.5v4.6c0 3.8-1.2 9.2-3.7 16.8-.3.9-1-.1-1.7-2.5l-1.2-4-.8 3.5c-.8 3.4-.9 3.2-2.6-4.3-1-4.3-2-8.1-2.3-8.4s-1.5 1-2.6 2.8c-2.2 3.6-2.4 3.5-2.1-2.3.1-2.1-.4-7.2-1.1-11.3-1-6.5-1.6-7.9-4.1-9.6-2.8-2-4-2.1-8.1-.4-1.3.6-1.6.3-1.1-.9.6-1.5.3-1.5-2-.5-3.5 1.7-4.1.8-2.7-4.6.6-2.5.9-5 .7-5.4-.3-.4-2-.6-3.8-.4l-3.3.4 2.4-1.8c6.5-4.7 6.6-4.9 5.3-7.7-.6-1.5-1.5-5.1-1.8-8.1-.7-5.9-1.9-6.8-4.8-3.6-1.5 1.6-1.8 4-1.8 15.9 0 7.7.3 15.9.7 18.4.9 6.1-.9 18.1-4 25.8-1.5 3.6-3.4 10.1-4.4 14.5-1.1 4.9-2.2 7.9-2.9 7.8-.7-.2-1.2.3-1.2 1 0 .9-.2.9-.8-.1-.6-.9-1.4 0-2.7 2.8-1.7 3.7-3.5 5.3-3.5 3 0-.6-.4-1-1-1-.5 0-1 .7-1 1.6 0 1-.5 1.4-1.6 1-.8-.3-1.3-.2-1 .2.2.4-.2 1.8-1 3.2-1.3 2.5-1.3 2.4-1.4-1.4 0-3.7-.1-3.9-1.5-2-1.3 1.8-1.4 1.7-1.5-1.8 0-2-.5-4-1-4.3-.6-.4-1-1.6-.9-2.8q.45-5.7-1.2-5.7c-.5 0-.9 1.2-.7 2.7.2 1.6-.1 2.9-.7 2.9-1.3.2-5-10.7-7.5-21.8-1.9-8.2-1.9-9.4-.5-19.8.8-6.1 1.7-11.6 2.1-12.2.5-.8-.2-.9-2.4-.5-4.8 1-4.7-.8.2-4.8 3.6-2.9 4.8-4.8 6.1-9.3 2.4-8.2 8.4-19.1 12.9-23.4 2.6-2.6 3.4-3.9 2.5-4.3-7.6-2.6-19.3-6.5-19.5-6.5s-1.1-1.1-1.9-2.4c-1.4-2.2-1.5-3-.1-8.3.8-3.2 1.7-9 2.1-12.8.8-9.2 4.3-16.4 11.5-23.4 7.8-7.7 15-11.5 20.2-10.8 2.2.3 5.1 1.6 6.5 2.9 3 2.7 6.3 8.9 6.3 11.7 0 3.8 1.6 2.9 4.4-2.5 4.5-8.6 15.3-19.5 23-23.3 10.6-5.2 17.1-6.1 44.7-6.1 13.6 0 27.2.5 30.5 1.1 18.1 3.3 28.4 15.5 33.5 39.3 2.3 11.2 2.3 13.1.2 21.1-1.9 7.3-1 10.9 3 12.4 4.9 1.9 7.4 8.7 7.9 21.6l.3 8.9-3.5 2.4c-4.2 2.8-5.2 6.4-3.1 11 1.4 3 1.4 3.5 0 4.5-.8.7-1.3 1.9-1.1 2.8q.3 1.65-2.7 2.7c-3 1-3 1-4.7-4-.9-2.7-2-4.6-2.4-4.1-.4.4-1.5 3.7-2.5 7.3-1.7 6.3-6.6 16.3-7.1 14.4-.1-.5-.5-4.4-.9-8.7-.4-4.2-1-7.7-1.4-7.7s-1.3 2-2 4.5c-1.1 3.7-1.6 4.3-2.7 3.4s-1.4-.8-1.4.2c0 .8-.9 3.1-2 5.2-1.1 2-2 4.3-2 5 0 1.6-5.9 15.8-7.3 17.5-1.5 1.9 1.5 4 9.6 7.1 11.7 4.5 20.6 9.2 25.2 13.4 4.6 4.3 12.1 18.2 17.6 32.4l2.4 6.3h8.6c4.8 0 12.6-.7 17.5-1.6 7-1.2 10.4-1.3 15.9-.5 14 2 17.6 2.3 23.5 1.6l6-.7V0H0z"/><path d="M377.5 172.9c-.3.5-.1 1.2.5 1.6.5.3 1-.1 1-.9 0-1.8-.6-2.1-1.5-.7m-288.7 9.9c-4.7 3.1-8.9 6-9.3 6.4-.4.3.1 1.8 1 3.2 1.1 1.7 1.5 3.5 1 5.5-.5 2.5-.1 3.3 2.8 5.5 2.7 2.1 4.2 4.6 7 12.5 2.1 5.4 3.7 10.5 3.7 11.4s-1.6 8.5-3.6 16.9c-1.9 8.4-4.6 20.2-6 26.3-6.5 28.6-7.8 33.1-9.6 35s-2 1.9-3.2.2c-1.1-1.4-17.1-64.4-19.2-75.2-.4-2.1.6-6.4 3-13.5 2.8-8 4.3-10.9 6.8-13.1 2.6-2.2 3.1-3 2.1-4s-3.3-.3-11.8 3.8c-5.8 2.8-17.3 7.3-25.5 10-14.8 4.7-15 4.8-16 8.2-.8 2.9-.6 3.7.8 4.7.9.7 2.5 1.8 3.4 2.6.9.7 3.5 6 5.7 11.7 3.5 9 4 10.9 3.1 14-1.2 4.8-7.4 30.7-13.5 57.1-2 8.5-4.1 16.6-4.8 18-1.7 3.3-4.1 3.6-5.5.8-.8-1.7-1.1 4.5-1.1 25.4L0 384h271.6l1.2-17.3c.6-9.4 1.8-19.7 2.7-22.7.8-3 2.5-13.3 3.6-22.9 2-16.6 2-17.8.4-24.3l-1.6-6.8 2.6-6.6c2.7-6.8 2.5-8.3-1.2-8.4-.7 0-1.9-1.4-2.8-3-.9-1.7-1.2-3-.7-3 1 0 5.2-3.8 5.2-4.8 0-.4-3.9-.4-8.7 0-4.9.4-13.5.8-19.3.8l-10.5.2 3.3 2.8c2.4 2 4.2 5.2 6.8 12 1.8 5.1 3.4 10.3 3.4 11.5s-1.7 9.3-3.9 18.1c-2.1 8.7-6 24.8-8.6 35.6-3.9 16.5-5 19.8-6.7 20.4-1.1.3-2.4.2-2.9-.3-1-1-16.9-70.6-16.9-73.9 0-1.2 1.6-6.3 3.5-11.5 2.5-6.7 4.3-10 6.4-11.6 2.8-2.2 2.9-2.4 1.5-5.2-1.2-2.4-2.5-3.2-8.2-4.5-9.3-2.3-22.5-4.5-23.5-3.9-.4.2-.2 1.3.3 2.3 2.5 4.6 7.1 20.2 6.5 21.8-.4.9-1.5 5.5-2.5 10.2s-2.7 12.3-3.8 17-3.9 16.6-6.1 26.5c-3.3 14.1-4.6 18.4-6.3 19.8-2.2 1.8-2.3 1.8-3.5-1-1.5-3.3-17.3-70.5-17.3-73.6 0-1.1 1.6-6.4 3.7-11.8 2.8-7.6 4.3-10.5 6.8-12.3 2.7-2.1 3.2-3.1 3.2-6.8 0-3.6-.7-5.2-5.2-10.8-9-11.2-20.3-21.9-27.5-25.9l-2.5-1.4 2.4 2.7c2.3 2.4 4.1 6.5 7.9 17.9 1.6 4.6 1.5 5-2.2 21-4 16.9-6.9 29.8-11.1 48.2-2.3 10-4 13.5-6.6 13.5-1.6 0-3.9-8.6-15.5-57.6l-4.7-20.1 3.8-10.4c2.7-7.5 4.5-11 6.6-12.7 2-1.6 2.9-3.3 2.9-5.2 0-1.5.7-3.3 1.5-4 1.3-1.1.9-1.7-2.8-4.3-2.3-1.7-6.4-5.1-9.2-7.7-11.5-10.7-14.3-13-16.1-13-1.1.1-5.8 2.6-10.6 5.8m418 73.9c-.9.2-2.4 1.6-3.3 3-1.6 2.4-1.6 2.6 1.5 5.2 1.7 1.4 4 4.4 5 6.6l1.8 4 .1-9.8c.1-10.3.1-10.4-5.1-9m-64.2 5.7c-.5 2.2-.2 3.1 1.8 4.7 1.4 1.1 2.8 3 3.1 4.2.4 1.2 2.1 5.7 3.7 10 2.9 7.4 3 8 1.9 14-.7 3.4-2.1 9.1-3.1 12.7s-2.1 8.3-2.5 10.5c-.3 2.2-1.2 6-1.9 8.5-.8 2.5-2.4 8.9-3.6 14.4-2 8.8-2.1 10.6-1.1 16.9.7 3.9 1.5 11.2 1.8 16.4l.6 9.3H512v-36.5c0-20.1-.2-36.5-.4-36.5s-2 6.9-4 15.2c-2 8.4-4.6 18.5-5.6 22.5-1.1 3.9-2 7.8-2 8.7s-1.2 2.3-2.6 3.2c-2.2 1.5-2.7 1.5-4 .2-.8-.8-5.5-17.9-10.5-38.1l-9.1-36.7 3.8-9.2c2.6-6.2 5-10.4 7.3-12.6l3.5-3.2h-16c-8.7 0-18.9-.3-22.5-.6-6.6-.7-6.6-.6-7.3 2"/></svg>