<svg xmlns="http://www.w3.org/2000/svg" width="682.667" height="512" version="1.0" viewBox="0 0 512 384"><path d="M0 100c0 79.5.3 99.9 1.3 99.5.6-.2 5.5-1.7 10.7-3.4 22.8-7.1 44.5-16.3 63.7-26.8C89 161.9 95.5 159 98.6 159c1.4 0 4.6 2.1 8.1 5.3 3.2 2.9 13.7 11.6 23.3 19.2 9.8 7.8 25.7 21.9 36 32 10.2 9.9 20.6 19.5 23.3 21.3 12.7 8.8 25.9 12.5 43.2 12.2 6.1-.1 14.6-.3 19-.4 4.4 0 10.4.2 13.3.6 3.8.5 5.4.4 5.6-.5 2.9-11.8 12.8-29.7 21.2-38.1 6.5-6.6 15.1-11.7 26.9-15.9 11.4-4.1 14.5-5.8 14.5-8.2 0-2.6-1.5-4.5-6-7.5-1.9-1.3-5.2-3.9-7.2-5.9l-3.8-3.5v6.4c-.1 9.6-3.9 22.4-4.1 13.9-.1-1.9-.5-4.5-.9-5.9-.7-2-.8-1.6-1 2.5-.1 2.7-.6 6.1-1 7.5-.8 2.4-.8 2.4-.9-.7-.1-3.3-2.9-17.4-3.6-18.1-.2-.2-1.3 1.4-2.5 3.7-1.1 2.3-2.1 4.1-2.3 4.1-.1 0 0-2.5.2-5.6.3-4.9-.9-14-2.5-19.4-.2-.9-2-2.4-3.9-3.4-3.3-1.8-3.6-1.8-5.3-.3-2.4 2.1-3.2 2.1-3.2 0 0-1.3-.3-1.4-1.2-.5-.7.7-2 1.2-2.9 1.2-1.5 0-1.5-.4-.3-3.7.7-2.1 1.3-4.8 1.4-6 0-1.9-.4-2.1-4-1.6-2.2.3-4 .3-4 0s2.1-1.7 4.6-3.2c4.3-2.5 4.6-2.9 3.9-5.9-.3-1.7-1-5.2-1.4-7.9-.5-2.6-1.1-5.1-1.5-5.5s-2.1.8-3.8 2.7l-3.1 3.5.9 14c1.4 23.1 1.1 29-2.1 37.6-1.5 4.1-3.9 11.9-5.3 17.2-2.3 9.1-4.2 12.1-5.5 8.5-.2-.6-1 .7-1.7 3-1.2 3.9-3 5.9-3 3.3 0-.6-.7-1-1.5-1s-1.5.7-1.5 1.5-.4 1.5-1 1.5c-.5 0-1.4 1.5-1.9 3.2l-.9 3.3-.1-3.9c-.1-3.3-.3-3.7-1.6-2.6s-1.5.7-1.5-2.4c0-2.2-.4-3.5-1-3.1s-1-1.3-1.1-4.2c0-2.6-.4-5.7-.8-6.8-.7-1.7-.9-1.4-1.3 1.5-.3 1.9-.1 4.6.4 5.9 1 2.7.1 4.3-1.2 2.1-1.7-2.7-5.9-15.6-7.8-23.7-1.7-7.5-1.8-9-.6-18 .8-5.4 1.6-10.8 1.9-12.1.4-1.8.1-2.2-2-2.2-3.4 0-3.1-1.4.9-4.5 2.5-1.9 4-4.4 6.1-10.3 3.8-10.8 7-16.7 11.6-21.7l4-4.3-8.8-2.7c-15.1-4.6-17.2-6.6-14.7-13.9.8-2.1 1.8-7.5 2.3-12s1.8-10.1 2.9-12.6c3.9-8.9 20.7-23 27.5-23 6.2 0 10.9 4.3 13.4 12.1 1 3.2 2 5.9 2.3 5.9s2-3 3.9-6.6c4.4-8.5 14.8-19.1 22.2-22.7 9.9-4.9 19-5.9 48.3-5.5 24 .4 26.6.6 32.3 2.7 12.1 4.4 20 14.1 24.7 30.5 3.6 12.4 4.3 21 2.1 27.4-2.1 6.5-1.3 10.5 2.6 13.3 4.1 2.9 7 9.3 7.6 16.9.3 3.6 1 7.3 1.5 8.3 1.1 2.1-1 5-5.3 7.3-3.5 1.7-4.1 5.5-1.8 9.9 2.4 4.4 2.4 5.4.1 4.8-1.4-.3-1.8.2-1.7 2.4 0 2.1-.5 2.8-1.7 2.7-1-.1-1.8.2-1.8.8 0 2.3-1.8-.6-3-4.7-1.4-5.1-2.6-6.4-3.3-3.8-.3 1-1.5 5.4-2.8 9.8-3.4 12.2-6.8 14.7-6.9 4.9 0-8.7-2.7-14.8-2.8-6.4-.1 5.6-1.1 6.8-3.3 3.9l-1.9-2.4v2.6c0 2.9-8.4 26.4-10.1 28.6-1.8 2.1.1 3.4 11.1 7.7 20.4 8 24.3 11.4 32.4 28 3.4 7.2 7.1 15.2 8.2 17.8l1.9 4.8h8.6c4.8 0 12.6-.7 17.5-1.6 7.1-1.2 10.4-1.3 15.9-.5 16.3 2.4 20.8 2.3 34.8-.5l2.7-.6V0H0z"/><path d="M371.2 173.3c-.9 1.1-1 1.7-.2 2.2 1.5.9 2.3.1 1.8-2.1-.3-1.5-.4-1.6-1.6-.1M82.3 184.1c-9.2 6-9.2 6.1-7.7 8.5 1.1 1.6 1.4 3.5 1 5.6-.5 2.9-.2 3.5 2.8 5.5 2.7 1.8 4 3.9 7.3 12.9 3.4 9 3.9 11.3 3.2 14.3-.5 2-2.9 12.4-5.4 23.1-10.6 45.6-11.7 49.9-13.5 51.5-1.7 1.6-1.9 1.5-2.9-.4C65.8 302.8 48 231 48 228.3c0-.9 1.7-6.1 3.7-11.6 2.7-7.2 4.5-10.5 6.5-12 3.1-2.3 3.2-2.6 1.9-4.5-.6-1.1-2.5-.5-8.7 2.6-9.8 4.9-30.1 12.6-37.4 14.2-5.1 1.1-5.7 1.5-6.7 4.8-1.1 3.5-1 3.8 2.3 6.7 2.4 2.1 4.6 5.8 7.4 12.7l3.9 9.8-4.8 20.2c-2.7 11.2-6.7 28.2-9 37.8s-4.8 19-5.6 20.8C.3 332.4 0 338.3 0 358.5V384h266v-5.3c0-9.5 2-28.1 4-36.7 1.1-4.7 2.6-15 3.4-23 1.4-12.8 1.4-15.2.1-20-2-7.5-1.9-9.7 1-17.3l2.4-6.6-2.7-.3c-1.8-.2-2.9-1.1-3.6-2.9-.8-2.3-.4-3.1 2.5-5.9l3.4-3.2-4 .6c-2.2.3-11.4.8-20.4 1.2l-16.4.7 3.6 2.9c3 2.4 4.1 4.5 6.8 12.8l3.3 9.9-8.3 35.3c-4.6 19.4-8.8 36.1-9.3 37-1.2 2.5-3.7 2.2-4.7-.5-.5-1.3-3.9-15.8-7.6-32.1-3.7-16.4-7.2-32-8-34.8-1.2-4.9-1.1-5.3 2.6-15.1 2.8-7.4 4.6-10.7 6.8-12.4 3-2.4 3-2.5 1.6-5.4-.9-1.6-1.7-2.9-2-2.9-.2 0-3-.7-6.2-1.5-7.4-1.9-23.4-4.7-23.9-4.2-.3.2 1.1 4.9 3.1 10.3 1.9 5.5 3.5 10.7 3.5 11.7s-2 10.6-4.5 21.5C179.8 353 180 352 177.6 352c-1.8 0-2.6-1.3-3.6-5.4-.4-1.7-4.2-18.1-8.5-36.4l-7.7-33.3 3.6-10c2.6-7.3 4.4-10.6 6.8-12.8 2.2-1.9 3.3-3.9 3.4-5.8 0-1.5.2-3.3.5-3.9.6-1.7-15.9-21.1-22.8-26.8-7.1-5.9-12.3-9.1-12.3-7.7 0 .6.8 1.5 1.9 2 1.1.6 3.3 5.1 5.5 11.5l3.8 10.5-2.2 9.3c-7.5 32.7-15.2 65.1-15.6 66.3-.9 2.3-3.3 2.6-4.4.5-.6-1-5-18.6-10-39-8.1-33.6-8.8-37.4-7.6-39.8.7-1.5 2.3-5.9 3.6-9.7 1.6-4.9 3.3-8 5.6-10.1 2.1-1.9 3.4-4.1 3.4-5.6 0-1.3.6-3 1.3-3.7 1-1 .9-1.4-.4-2.1-3-1.7-17.4-13.7-21.4-17.9-2.6-2.8-4.7-4.1-6.5-4-1.4 0-6.6 2.7-11.7 6m419.1 71.5c-4.6 1.1-6.4 2.1-7.4 4-1.3 2.3-1.1 2.6 1.9 5.2 2.9 2.4 9.3 15.4 10.8 21.8.2 1.1-2.1 12.3-5.2 25-3.1 12.6-6.9 28.3-8.6 34.9-2.7 11-4.4 14.5-7.1 14.5-.5 0-1.3-1.2-1.9-2.8-1.4-3.5-17.9-70.5-17.9-72.4 0-.8 1.8-5.7 3.9-10.8 2.7-6.4 4.7-9.8 6.5-10.9 1.4-.9 2.6-1.9 2.6-2.3 0-.5-6-.8-13.3-.8-7.4 0-17.4-.3-22.4-.6l-9-.7-.5 2.7c-.4 1.9.1 3.1 1.7 4.4 2.2 1.7 9.5 19.4 9.5 23 0 .9-2.5 12-5.5 24.7-8.2 34.1-8 32.5-6.7 42.5.7 4.8 1.2 12.8 1.2 17.9v9.1h78V254l-2.2.1c-1.3 0-5 .7-8.4 1.5"/></svg>