<svg xmlns="http://www.w3.org/2000/svg" width="682.667" height="512" version="1.0" viewBox="0 0 512 384"><path d="M177.3 12.4c-3 3.4-5.2 10.4-3.9 12.4.3.6.1 2.4-.5 4.2-.8 2.2-.8 3.5-.1 4.2s.8 1.7.2 2.9c-.6 1-.8 4.8-.5 8.6.3 3.7.5 7.6.6 8.5 0 1 .5 1.8 1.1 1.8.5 0 .7.7.4 1.6-1.3 3.3 1.2 5.4 6.4 5.4 2.7 0 6-.4 7.4-1 4.1-1.5 3.3.6-4.4 10.8-7 9.4-8.1 12.3-5.7 15.6 1.2 1.6 2.9 2 9.9 2.5 1.1.1 2 1.6 2.6 4.8.6 2.6.8 5.1.5 5.6-.2.4-.1 6.7.3 14 .7 12.3.8 13 2.1 10.2 1.3-2.9 1.4-2.8.8 2-.4 2.7-1.3 7.2-2.1 9.9-1.6 5.6-1.3 7.1.6 2.6 1.8-4.3 3-2.8 1.6 2-.9 3-2.4 4.8-6.6 7.7-7.3 5.2-8.8 8-10 19.9-.5 5.4-1.5 12.3-2.1 15.1l-1 5.3h-4.8c-2.6 0-5.5.6-6.5 1.3-1.6 1.2-1.5 1.7 1.4 8l3.2 6.7-3.7 14.3c-4 15.5-6.2 21-20.2 49l-9.3 18.9 3.7 6.5 3.6 6.6-1.2 6.1c-2.1 9.9-2.5 20.8-.9 22.9 1.2 1.6 1.1 3.1-.4 10.5-1 4.8-2.1 14.5-2.4 21.7-.6 12.6-.5 13.1 1.8 16.5 1.6 2.4 3.3 3.6 5.3 3.8 1.7.2 3.3.9 3.7 1.5.5.8.8.7.8-.4 0-1.3 8.8-15.5 14.4-23.4.9-1.3.5 1.7-1.3 8.5-1.5 5.8-3.1 11.7-3.5 13.3l-.6 2.7h76c41.8 0 76-.3 76-.6 0-.4-1.9-5.8-4.1-12l-4.1-11.3 3-2.6c5.1-4.3 6.6-10.1 8.7-34.7.6-6.2.8-6.7 3.6-7.8 7.7-3.2 8.7-9.8 3.4-20.9-2.1-4.4-3.2-7.8-2.7-8.5.5-.6 1.5-3 2.2-5.4 1.2-3.9 1.2-4.9-.4-9-4.7-12.2-5.6-14.8-5.6-16.2 0-.8-.7-2.8-1.5-4.4-.8-1.5-1.3-3.2-1-3.6.3-.5 0-2.1-.6-3.7-.6-1.5-1.2-3.9-1.4-5.3-.4-2.9-6.2-21.7-7.4-24-.5-.9-1.2-3.5-1.6-5.8s-1-4.2-1.5-4.2c-1.5 0-1.9-7-.4-9.8.7-1.5 1.4-3.4 1.4-4.2 0-2.6-2.9-5.9-6.4-7.4-3.7-1.5-7.2-8-10.2-18.5-.9-3.1-2.5-7.3-3.7-9.3-1.6-2.9-1.9-4.7-1.4-9 .4-2.9 1.3-5.8 2.1-6.4 1.1-.8 1.3-1.9.6-5-.5-2.1-1-7.8-1.2-12.6-.2-5.7-.7-8.8-1.4-8.8-1.2 0-2.4-4.5-2.4-9.1 0-1.6.9-4.3 2-6.1 2.4-3.9 2.6-3.1.5 1.9-1.4 3.3-1.4 3.4.2 2.2 3.2-2.7 5.3-9.1 5.3-16.7V78h3.3c2.8 0 3.7-.7 6.3-4.8 1.7-2.6 5.7-10.1 9-16.7 3.2-6.6 6.3-12.3 6.7-12.6 1.2-.8.5-8.1-.8-9.5-3.6-3.9-18.2-8.4-29.1-9.1-12.6-.8-20.1.3-23.1 3.3-2.9 2.9-2.8 2.9-5.2.5-2.8-2.8-9.6-4.4-16.8-3.9-4.4.3-6.3 0-6.3-.8 0-1.4-5.1-5.4-10.5-8.1-7.3-3.7-17.5-6.3-27.4-6.9l-9.6-.5zm19.4 120.8c-.3.8-.6.5-.6-.6-.1-1.1.2-1.7.5-1.3.3.3.4 1.2.1 1.9m1.8 77.9c1 3 1.3 21.9.4 21.9-.4 0-.6 3-.6 6.7.2 10.6-.5 19.5-1.6 22.6-.8 2.2-.7 3.1.3 3.7s.5 1.8-2 5c-1.8 2.2-3.3 4-3.5 3.8-.1-.2.4-5 1-10.8.7-5.8 1.5-16.1 1.9-23 1.3-25.1 1.9-32 2.7-32 .4 0 1.1 1 1.4 2.1"/></svg>