<svg xmlns="http://www.w3.org/2000/svg" width="682.667" height="512" version="1.0" viewBox="0 0 512 384"><path d="M0 99.5c0 54.7.3 99.5.8 99.5 1.6 0 25.4-8.1 35-11.9 11.2-4.5 28.4-12.7 45.1-21.6 11.6-6.1 15.6-6.8 18.7-3.3 1 1.1 11.7 9.9 23.6 19.5 12.8 10.2 29.1 24.5 39.6 34.7 9.7 9.4 20.4 19 23.7 21.3 12.3 8.2 25.4 11.7 43 11.2 16.8-.5 25.8-.4 31.3.1l5.3.5 2.3-6.5c1.2-3.6 3.7-9.2 5.6-12.5 12.5-22.7 17.8-26.9 45.8-37.6 4.6-1.7 8.6-3.7 8.9-4.5 1-2.7-.6-5.9-3.9-7.9-1.8-1-5.7-4.1-8.5-6.8l-5.3-5v9.9c0 10.5-.7 14.7-2.1 13.8-.5-.3-.9-2.4-1-4.7-.1-7.3-1.8-9-1.8-2-.1 3.5-.5 6.3-1 6.3-.4 0-1.4-3.5-2.1-7.8-.7-4.2-1.5-8.1-1.8-8.6s-1.6 1.1-2.9 3.5l-2.3 4.4.6-4.7c.4-3 0-7.6-1.1-12.5-1.4-6.7-2.2-8.2-5.3-11l-3.7-3.1-2.9 2.6c-2 1.9-2.7 2.2-2.3 1 .5-1.5.1-1.6-2.5-1.1-2.8.6-3 .4-2.3-1.3.5-1 1-3.6 1.3-5.7l.4-3.7-3.8-.1c-3.5 0-3.7-.2-1.9-1.2 4.3-2.7 7.7-6.7 7-8.5-.4-.9-1.2-4-1.7-6.7-.5-2.8-1.3-5.3-1.6-5.7-.4-.4-1.9.4-3.4 1.7-3.7 3.2-4.3 8.6-2.7 26.4 1.4 16.8.9 21.3-4 33.6-1.7 4.1-3.6 11-4.3 15.4l-1.2 8-2.2-2-2.2-2-.6 4.5c-.7 4.7-2.6 7.3-2.6 3.6 0-1.2-.4-1.9-.9-1.5-.5.3-1.2-.3-1.4-1.2-.3-1.2-.5-.8-.6.9 0 1.5-.6 3-1.2 3.3-.6.4-1.4 1.7-1.9 2.9l-.9 2.1v-2.2c-.1-2.1-2.1-4.4-2.1-2.4 0 .6-.4 1.1-.9 1.1-.4 0-1.4-4-2-9-1.6-12.6-3.3-15.9-2.7-5.2.5 7.3.4 8.1-.9 6.8-.8-.8-1.5-2.2-1.5-3 0-.9-1.1-4.4-2.4-7.9s-3.1-9.7-3.9-13.9c-1.4-6.6-1.4-8.8-.2-17.9.7-5.7 1.7-11.2 2.1-12.2.6-1.5.3-1.7-2-1.1-3.5.8-3.3-.3.8-4.6 1.9-2 4.1-5.9 5.1-9 3-9.2 7.5-17.9 11.6-22.2 2.2-2.3 3.6-4.4 3.2-4.8-.5-.3-4.2-1.6-8.3-2.9-15.3-4.7-17-6.3-14.5-13.8.9-2.5 2-7.9 2.5-11.8 1.3-10.3 4-15.7 11.8-23.5 15.7-15.7 27-15.3 32.3 1.2 2.2 6.9 2.3 7.1 3.2 4.3 3-8.9 11.9-20.1 20.7-26 9.6-6.5 15.6-7.7 41.6-8.2 27.2-.7 36.9.4 46 4.8 7.6 3.6 12.6 9 17 18.3 6.4 13.7 8.6 27.2 6 37.4-1.9 7.2-1.5 9.4 2.3 13.7 4.6 5 6.7 9.7 7.4 16.3.4 3.5 1.2 7.2 1.8 8.3.9 1.7.7 2.5-1.2 4.5-1.2 1.3-3.1 2.6-4.1 3-1.1.3-2.3 1.7-2.9 3.1-.7 1.9-.4 3.4 1.8 7l2.7 4.6-2.5-.6c-2.3-.6-2.5-.4-2.1 2.6.3 2.8.1 3.2-2.2 3.3-2.2.2-2.7-.5-4.2-5-2.3-7.2-3-7.5-4.3-1.9-1.9 8.6-5.7 19.7-6.8 20-.7.3-1.4-2.4-1.8-7.4-.8-9.2-1.3-11.3-2.7-11.3-.7 0-.8 1.9-.4 5.4.8 6-.6 8.4-2.5 4.2-1.4-2.9-2.9-2.5-2.9.7 0 2.6-7.8 26.6-9.2 28.4-1.6 2-.2 3 8.4 6.3 11.9 4.6 19.3 8.5 23.9 12.7 4.2 3.8 10.5 15.3 16.9 30.5l3.2 7.8h8.2c4.5 0 12.4-.7 17.5-1.6 7.6-1.3 10.4-1.4 15.9-.4 12.4 2.1 29.5 1.3 40-2.1l3.2-1.1V0H0z"/><path d="M366.4 173.5c-1.6 1.3-1.7 1.6-.4 2.5 2.3 1.5 3 1.2 3-1.5 0-2.9 0-2.9-2.6-1m-286 10.1c-4.9 3-9.3 5.9-9.7 6.4-.5.4-.1 2 .8 3.4 1.4 2.1 1.5 3.2.7 5.6-.6 1.6-.8 3-.4 3 .4.1 1.9 1.1 3.5 2.3 1.9 1.6 4 5.6 6.7 12.8l4 10.4-2.5 10.5c-1.4 5.8-4.9 21.1-8 34-6.2 26.4-8.2 33.7-9.5 34.5-1.8 1.1-3.9-5.7-12.6-41.4l-8.8-36.4 3.4-10.1c2.6-7.8 4.2-10.8 6.9-13.3 2.8-2.7 3.2-3.5 2.2-4.7-1.1-1.3-2.3-1-8.9 2.4-10.5 5.2-22.8 10.1-34.4 13.5-9.2 2.7-9.6 2.9-10.1 5.9-.4 2.6.1 3.6 2.8 6.1 3.4 3.1 10.5 18.7 10.5 23.1 0 1.2-2.7 13.2-5.9 26.6C-.9 327.3 0 321 0 354.4V384h263v-9.3c0-11.7 1.6-26.7 3.5-33.2.8-2.8 2.1-11.8 3-20 1.5-14 1.5-15.6-.1-23.7l-1.7-8.6 2.6-7.1 2.6-7.1h-2.5c-1.7 0-2.7-.8-3.5-2.7-.9-2.3-.6-3 2.3-6l3.2-3.3-11.9.7c-6.6.5-15.7.8-20.3.8-4.5 0-8.2.3-8.2.6 0 .4 1.5 1.8 3.3 3.2 2.6 2 3.8 4.4 6.5 12.3l3.3 9.9-4 16.5c-2.2 9.1-5.8 24.6-8.1 34.5-3.8 16.1-6.2 23.5-7.5 23.5-1 0-3.2-5.8-4.4-11.5-.7-3.3-2.1-9.6-3.1-14s-4-17.3-6.6-28.7l-4.7-20.6 3.8-10.1c2.8-7.5 4.5-10.7 6.6-12.2 2.5-1.7 2.7-2.3 1.8-4.9-1-2.6-1.8-3-9.7-4.9-7.4-1.7-20.6-4-23.6-4.1-.5 0-.4.6.1 1.2.6.7 2.5 5.8 4.3 11.3l3.3 10-6.7 28.5c-3.7 15.7-7.4 31.4-8.2 35-4.2 18.6-5.4 17.3-12.9-15-3.1-13.5-7-29.8-8.5-36.3l-2.7-11.8 3.4-9.7c2.5-6.9 4.4-10.6 6.7-12.8s3.5-4.4 3.9-7.3c.5-3.9.2-4.4-7.3-13.4-4.3-5.2-10.1-11.4-12.9-13.9-9-8.1-19.4-14-13.1-7.5 1.3 1.3 3.8 6.6 5.7 11.8 4 11 4.8 4.7-6.2 51.5-7.1 30.4-8.6 35.4-10.5 35.4-1.7 0-2.7-3.2-7-21.5-2.3-9.9-6.2-26.3-8.6-36.4l-4.4-18.5 3.7-10.4c2.8-7.7 4.5-10.9 6.6-12.4 1.5-1.1 2.7-2.9 2.7-4.2 0-1.2.6-3.1 1.4-4.1 1.2-1.7.9-2.3-3.8-5.9-2.8-2.2-9-7.5-13.8-11.8-4.7-4.3-9.3-7.8-10.1-7.8-.7 0-5.4 2.5-10.3 5.6M499 254.9c-4.7.9-9 2-9.6 2.4-2.5 1.5-2.1 4.5 1 7.5 2 1.9 4.4 6.3 6.9 12.9l3.8 9.9-1.5 6.4c-5.3 22.8-14.8 60.9-15.7 63.2-1.5 3.7-3.4 4.1-4.8 1.1-1.3-2.8-18.1-70.6-18.1-73 0-3.4 7.5-19 10.4-21.5 1.7-1.5 2.7-2.7 2.1-2.7-11.9 0-42.5-1.2-43.8-1.7-2.5-.9-2.3 4.7.3 7.1 1.1 1 3.7 6.4 5.9 12l4 10.2-1.8 7.4c-1 4.1-2.8 11.7-4.1 16.9-1.2 5.2-3.5 15-5.2 21.8l-3 12.3 1.6 8.7c.9 4.8 1.6 13.1 1.6 18.4v9.8h83.1l-.2-65.5-.1-65.5-2.1.1c-1.2 0-6 .8-10.7 1.8M291.7 370.7c-.5 2.6-.4 2.6.9.8 1.6-2.2 1.8-3.5.5-3.5-.5 0-1.1 1.2-1.4 2.7"/></svg>