<svg xmlns="http://www.w3.org/2000/svg" width="682.667" height="512" version="1.0" viewBox="0 0 512 384"><path d="M0 99.5c0 54.7.3 99.5.7 99.5 1.9 0 24.1-7.7 35.3-12.2 11.8-4.8 23.2-10.3 45-21.8 5.2-2.7 10.5-5 11.8-5 1.4 0 4.4 1.9 7.5 4.8 2.9 2.7 12.6 10.7 21.7 17.8s23.9 20.1 33 28.8c26.3 25.3 33.4 30.5 47.8 34.7 8.3 2.5 28.3 3.6 36.5 2 4.5-.8 7.9-.7 15.4.4 5.3.8 10 1.2 10.4.9.5-.3.9-1.6.9-2.9 0-3.3 10.1-23.2 15.5-30.3 7.4-9.9 15.4-15.1 32.4-21.6 12.1-4.5 14.1-5.9 13.3-8.9-.4-1.4-2.9-4.1-5.7-6.2-2.7-2-6.5-5.3-8.2-7.3l-3.3-3.7v5.5c0 8.2-1.2 19-2.1 19-.4 0-1-3.3-1.4-7.4-.4-4-1.1-7.9-1.7-8.7-.6-.9-.7.3-.4 3.6.3 2.7.2 6.8-.2 9l-.8 4-.8-5.2c-.4-2.8-1.3-7.3-2-10l-1.3-4.8-2 4.5-2.1 4.5-.1-6.5c-.2-8.5-2.5-18.1-4.8-19.7-1-.7-2.6-2-3.5-2.8-1.4-1.2-1.8-1.2-2.9.1-.7.8-2 1.9-3 2.5-1.5.7-1.7.6-1.3-.6.7-1.8-.7-2-2.4-.3-1.9 1.9-2.4.3-1.3-3.9 1.9-6.7 1.6-7.6-2.4-6.9-4.5.9-4.4-.2.5-3.6 4.5-3.1 4.7-4.2 2.6-12.8-1.4-5.8-2-6.1-6.3-3.3l-2.5 1.7.6 22.5.7 22.6-3.1 8.5c-3.7 10.1-5.9 18.3-6.2 22.7-.2 3.8-2.4 4.5-3.7 1-.8-2-1-1.8-1.6 1.8-.4 2.2-1.1 5.3-1.5 7-.8 2.9-.8 2.9-.9-1-.1-3-.4-3.6-1.1-2.5s-1 0-1.1-4l-.2-5.5-.7 6.5c-.4 3.5-1.2 6.6-1.9 6.8-.6.2-1.1 1.3-1.2 2.5-.1 1.9-.2 1.9-1.2-.6-.6-1.5-1.7-2.5-2.3-2.3-.9.3-1.6-1.8-2.4-6.7-.6-4-1.5-9-2-11.2l-.8-4-.3 4.5c-.4 6.5-.4 7.2.5 10.4.6 2.4.5 2.6-.6 1.5-1.9-1.9-7.5-19.2-8.7-26.4-.9-5.7-.4-13.8 1.5-25.3.6-3.8.5-4.2-1.5-4.2-2.9 0-2.7-.8 1.3-5 1.8-1.9 4.1-5.9 5-8.9 2.9-9 7.6-18 11.7-22.3 2.1-2.3 3.9-4.2 3.9-4.3s-3-1-6.7-2c-10-2.6-18-6.3-18.6-8.7-.3-1.1-.2-3.1.3-4.4s1.8-6.9 2.9-12.4c2.8-13.7 4.1-16.3 12.1-24.1 7.3-7.2 15.1-11.9 19.7-11.9 6.6 0 12 6.4 13.8 16.3l.7 3.8 3.5-7.1c3.9-8.1 14-19.5 20.9-23.5 2.4-1.4 8-3.5 12.5-4.6 7.3-1.9 10.4-2 35.7-1.7 26.4.4 28 .5 33.5 2.8 8 3.2 14.6 9.5 19.1 17.9 6.7 12.7 9.6 30.8 6.6 40.8-1.6 5.1-.8 8.3 2.9 12.5 1.5 1.8 3.4 4.4 4.1 5.7 1.6 3.1 4 13.3 3.4 14.3-.3.4.2 1.8 1 3 2.4 3.3 2 4.1-2.9 7.3-5.8 3.6-6.4 6.1-3 11.5l2.7 4.3-2.5-.7c-2.5-.6-2.6-.5-2 3.1.6 3.5.5 3.7-1 2.4-1.5-1.2-1.7-1.1-1.7.3 0 3.1-1.8.7-3.5-4.7-2.2-6.7-3.2-7.7-4-4.1-.4 1.6-1.7 6.4-3.1 10.7-1.3 4.3-2.4 8.3-2.4 8.8 0 .6-.6 1.7-1.4 2.5-1.2 1.2-1.5 0-2.1-8.1-.5-6.6-1.2-9.8-2.3-10.7-1.3-1.2-1.5-.5-1 5.4.6 7.2-.5 9-2.4 3.7-1.2-3.6-2.2-2.7-3.2 3.1-1.2 6.3-8 27-8.9 27-.4 0-.5-1-.2-2.1.5-1.5.4-1.9-.4-1.5-.6.4-1.1 1.8-1.1 3.1 0 2 1.6 2.9 12.3 7.4 14.4 6.1 21.6 10.6 25.6 16.1 2.4 3.4 9.7 18.6 14.5 30.2l1.5 3.8h7.9c4.3 0 12.1-.7 17.3-1.6 8-1.4 10.6-1.5 17.4-.4 14.5 2.2 31.8.9 41.8-3.1l2.7-1.1V0H0z"/><path d="M289 151.4c0 .2.8 1 1.8 1.7 1.5 1.3 1.6 1.2.3-.4s-2.1-2.1-2.1-1.3m-23.9 18.2c0 1.1.3 1.4.6.6.3-.7.2-1.6-.1-1.9-.3-.4-.6.2-.5 1.3m99.4 4c-1.7 1.3-1.8 1.6-.5 2.4 2.6 1.7 3.7 1.1 3.2-1.5-.2-1.4-.5-2.5-.6-2.5 0 0-1 .7-2.1 1.6M81.9 182c-3.5 2.2-8.1 5-10.1 6.3-4.1 2.4-4.6 3.8-2.2 5.8 1.1.9 1.4 2.3 1 4.9-.5 3.1-.2 3.7 2.7 5.6 2.7 1.8 3.8 4 7 12.8l3.8 10.7-4.6 19.2C68.1 294.8 65.9 303.6 65 305c-2.1 3.4-4.2-2.5-11.5-33-4.2-17.3-8.2-34.1-9-37.4l-1.5-5.8 3.6-10.2c2.7-7.3 4.6-10.9 6.9-13.1 2.5-2.4 3-3.3 2.2-4.6-.9-1.5-2.1-1.1-10.6 3.1-10.3 5.1-28.4 12-36.6 13.9-4.5 1.1-5.2 1.6-6.1 4.6-1 3.3-.9 3.6 2.1 5.9 2.4 1.9 4.3 5.1 7.4 12.8l4.1 10.3L8.3 282 .6 312.5l-.4 35.8-.3 35.7h261.8l.5-16.3c.4-11.4 1.1-18.8 2.6-25.2 1.2-5 2.8-15.2 3.7-22.8 1.4-13.4 1.4-14.1-.6-22.1l-2-8.2 2.5-6.8c1.4-3.8 2.6-7 2.6-7.1 0-.2-1-.5-2.2-.7-1.3-.2-2.5-1.4-3-3-.8-2.3-.5-3.1 2.4-5.8l3.3-3.1-10 .7c-5.5.3-14.8.7-20.7.8-6 0-10.8.2-10.8.3 0 .2 1.5 1.7 3.4 3.5 2.5 2.4 4.3 5.8 6.6 12.5l3.3 9.2-2.1 8.8c-1.2 4.8-4.9 20.5-8.3 34.8s-6.8 27.3-7.7 29l-1.5 3-1.4-3.4c-.8-1.9-2.6-8.4-3.9-14.5-1.4-6.1-4.4-19.2-6.6-29.1-6.8-30.2-6.6-27.7-2.8-38.4 2.6-7.1 4.1-9.9 6.6-11.9 3.1-2.5 3.2-2.7 1.8-5.4-.9-1.8-2.7-3.1-5.2-3.7-6.1-1.7-17.3-3.8-23.5-4.6-5.4-.6-5.7-.5-4.8 1.2 1.8 3 7.1 18.3 7.1 20.4 0 1-1.5 8.3-3.4 16.2-1.8 7.8-4.8 20.5-6.6 28.2-5.9 25.4-6.9 28.8-8.3 30.2-2.3 2.3-2.3 2.3-16.2-58.2l-3.6-16 3.6-10c2.9-7.9 4.4-10.6 7.2-12.9 2.5-2.1 3.3-3.4 2.9-4.9-.3-1.1-.1-2.8.4-3.7.6-1.2.4-2.3-.8-3.6-.9-1.1-4.8-5.5-8.6-9.9-7.5-8.8-16.9-17.2-22.8-20.5-3.9-2.2-5.3-1.2-1.8 1.3 1.9 1.3 7.8 15.3 8.7 20.7.4 2.6-15.8 72.4-17.7 75.9-1.5 2.8-2.5 2.6-3.8-.7-1.4-3.4-17.2-70.8-17.2-73.2 0-.9 1.6-6 3.5-11.1 2.4-6.6 4.3-10.2 6.5-12 1.9-1.6 3-3.5 3-5.2 0-1.4.5-2.9 1-3.2 1.8-1.1 1.1-2.1-3.5-5.4-2.4-1.7-5-3.7-5.7-4.4-.8-.7-4.8-4.5-9.1-8.5-4.2-3.9-8.3-7.2-9-7.2s-4.2 1.8-7.8 4m178.3-1c0 1.4.2 1.9.5 1.2.2-.6.2-1.8 0-2.5-.3-.6-.5-.1-.5 1.3m106.8 5.4c0 .8.5 1.8 1 2.1.6.3 1-.3 1-1.4 0-1.2-.4-2.1-1-2.1-.5 0-1 .6-1 1.4M501.3 254c-14 2.4-14.6 2.6-16 5.5-1 2.2-.8 2.7 1.7 4.5 2.9 2.1 11 19.4 11 23.6s-16.9 70.7-18.3 72.1c-1.3 1.3-1.7.7-3.5-4.9-1.1-3.4-5.5-20.6-9.8-38l-7.7-31.7 3.8-9.3c2.3-5.8 4.8-10.2 6.6-11.8 1.6-1.4 2.9-2.7 2.9-3s-8.9-.6-19.8-.8c-10.8-.1-21.3-.5-23.2-.8-3.4-.5-3.6-.3-3.5 2.3 0 1.5 1 3.7 2.1 4.8 1.2 1.1 3.9 6.5 5.9 11.9l3.8 9.9-1.8 7.6c-.9 4.2-4 17.3-6.8 29-4.9 21-5 21.7-3.9 28.4.7 3.8 1.5 12.3 1.9 18.8l.6 11.9H512v-49.6c0-41.1-.3-50.6-1.5-55.5-1.4-5.2-1.4-6.2 0-9.7 1-2.5 1.5-6.2 1.3-10.4l-.3-6.5zM290.7 367.7c-.6 1.1-2 6.9-1.5 6.3 2.2-2.8 3.6-6 2.9-6.5-.5-.3-1.2-.2-1.4.2"/></svg>