<svg xmlns="http://www.w3.org/2000/svg" width="682.667" height="512" version="1.0" viewBox="0 0 512 384"><path d="M0 99.5c0 54.7.3 99.5.7 99.5 1.8 0 24.1-7.7 35.3-12.2 13.7-5.6 23.1-10.1 39-18.8 5.8-3.1 12.2-6.3 14.3-7 4.2-1.3 5.3-.9 11.7 5 1.9 1.8 11.3 9.2 20.7 16.6 9.5 7.4 24.5 20.4 33.3 29 28.1 27 35 31.5 54 35.4 8.9 1.9 12 2.1 20.5 1.4 5.5-.5 13.6-.7 18-.5 4.4.1 10.2.3 12.9.4l5 .2.8-3.7c1-4.7 7.8-18.4 12.9-25.9 4.6-6.9 12.9-14.5 19.6-18.2 2.8-1.5 9.4-4.3 14.7-6.2 5.2-1.9 10.4-4 11.6-4.7 3.3-2.1 2.5-5.3-2.2-8.9-2.4-1.8-6.3-5.2-8.8-7.5l-4.5-4.3-.3 10.2c-.4 10.1-1.9 20.6-2.1 14.5-.1-1.5-.7-6.2-1.3-10.5l-1.3-7.8-.5 9.5-.5 9.5-1.9-9.8c-1.1-5.3-2.3-9.7-2.7-9.7s-1.3 1.6-1.9 3.5c-1.7 5.1-2.8 5.1-2.3.1.3-2.4 0-7.6-.7-11.6-1.1-6.6-1.6-7.7-5.4-11.1l-4.1-3.8-2.7 2.6c-1.6 1.5-2.8 2.1-2.8 1.5 0-.8-.9-1-2.5-.6-1.4.3-2.5.5-2.5.3s.7-2.2 1.5-4.4c2.4-6.9 2.1-7.8-2.5-7-4 .7-5.8-.8-2.2-1.9.9-.3 3-1.6 4.6-2.9l2.8-2.3-1.7-7.2c-1-4-2-7.2-2.2-7.2-.3 0-1.8.8-3.4 1.7-3.6 2.2-4.4 5.8-3.5 17.2 2.2 27.9 2.2 26.6-2.2 39.7-4.2 12.5-6.6 22-5.7 23.4.3.4-.2 1.1-1 1.4-1 .4-1.9-.2-2.4-1.6-.7-1.8-1-1.2-2.3 3.8-1.4 5.2-1.6 5.5-1.7 2.4-.1-2.6-.4-3.1-1.1-2s-1 0-1.1-4l-.2-5.5-.9 7.4c-.7 4.9-1.3 6.9-1.9 6q-.9-1.5-.9 2.1c0 2.6-.3 3.1-1 2-.5-.8-1-2.6-1-4-.1-2.3-.2-2.3-1.4-.8-1.1 1.5-1.4.8-2.5-5.5-.7-3.9-1.6-9-2-11.2l-.8-4-.7 5c-.3 2.7-.2 6.5.3 8.3.8 2.8.8 3.2-.3 2.3-.8-.7-1.6-2.2-1.9-3.4s-1.6-5.4-3.1-9.4c-3.9-10.9-5-19.8-3.6-30.1.6-4.8 1.4-9.7 1.7-11 .4-1.8.1-2.2-2.1-2.2-3.5 0-3.3-1.2.9-4.4 2.5-1.9 3.9-4.1 5-7.9 2.5-8.4 9.4-21.4 13.1-24.6 3.8-3.3 4-3.8 2.2-3.8-2.4-.1-13.3-3.5-19-6-6.5-2.9-7.3-4.6-5.2-10.6.8-2.3 2.2-7.6 3.1-11.7 1.9-9.3 4.9-15.2 10.5-21 11.4-11.7 23.1-16 29-10.7 3.3 3.1 5.6 7.4 6.4 12.5l.6 4 3.9-7.7c4.7-9.4 13.9-19 22.4-23.3 8.8-4.5 17.9-5.7 42.5-5.7 23.6-.1 31.6 1 40.7 5.5 11.2 5.5 19.7 20.5 22.4 39.7 1 7 .9 9.2-.5 14.5-2.1 8.5-2.1 8.4 2.2 13.4 4.5 5.2 6.6 10.2 8.1 18.8 1.8 10.5 1.9 10.1-2.3 13.1-5.4 3.6-5.9 5.5-2.9 10.8l2.5 4.4-2.5-.7c-2.5-.6-2.5-.5-1.6 2.6 1.2 4.2 1.1 4.4-.3 3-1.7-1.7-2.8-1.5-2.8.5 0 2.8-1.7-.3-3.6-6.5-.8-2.8-1.9-5.2-2.4-5.2-.4 0-1.1 1.7-1.5 3.7-1.5 8-6.1 21.3-7.4 21.3-.3 0-.7-2.8-.9-6.3-.2-7.1-1.4-12.3-2.7-11.9-.5.1-.7 2.7-.6 5.7.3 6.1-1.1 7.2-2.8 2.3-1.4-3.9-1.8-3.5-3.1 3.3-.6 3-2.7 10.6-4.7 16.9-3.2 10.2-3.7 11.2-4.4 8.5l-.7-3-.1 3.1c-.1 3.5 0 3.6 16.4 10.3 15.4 6.3 19 9.8 26.8 25.6 3.5 7.1 7.2 15.2 8.2 17.9l1.9 4.9 9.5-.6c5.3-.3 13.1-1.3 17.3-2.2 7.1-1.4 8.5-1.4 15.9 0 13.8 2.6 30.9 1.3 41.5-3.1l3.4-1.4V0H0z"/><path d="M289 151.9c0 .6.4 1.3 1 1.6s.7-.1.4-.9c-.7-1.8-1.4-2.1-1.4-.7m75.2 21.4-2.4 2.5 2.2.7c2.7.9 3.2.3 2.8-3l-.3-2.7zm-281.3 8c-3 1.9-7.7 4.8-10.6 6.6l-5.2 3.3 2.1 2.9c1.8 2.4 1.9 3.3 1 5.3-.9 2.1-.7 2.7 2.6 5.4 3 2.4 4.3 4.7 7 12.3 1.7 5.2 3.2 10.4 3.2 11.5 0 2.6-16.6 70.8-18.1 74.7-.6 1.5-1.5 2.7-2 2.7-2 0-2.5-1.6-15-55.6l-5.2-22 3.8-10.3c2.7-7.2 4.7-10.9 6.8-12.7 2.7-2.3 3.2-5.4.9-5.4-.5 0-6.1 2.4-12.3 5.4-10 4.8-28.4 11.4-35.9 13-1.8.4-2.8 1.5-3.6 4.1-1 3.3-.9 3.6 2 5.9 2.3 1.7 4.2 4.9 6.9 11.8 2 5.1 3.7 10.3 3.7 11.5s-3.4 15.8-7.5 32.4L0 314.4V384h262v-14.3c.1-8.2.7-17.4 1.5-21.7 1.8-9 4-23.5 5.3-34.5.8-6.8.6-9.2-1.2-16.2l-2-8.1 2.3-6.7c2-5.6 2.2-6.8 1-7.6-.8-.5-1.7-.9-2.1-.9-.3 0-1-1.2-1.5-2.7-.8-2.3-.5-3.1 1.9-5.1 3.5-3 3.6-4.6.3-3.8-1.9.5-16.5 1.1-37 1.7-.5 0 .4 1.2 2.2 2.7 2.3 2 4.1 5.3 6.7 12.6l3.6 9.9-8 34.1c-4.5 18.8-8.8 35.7-9.6 37.6l-1.6 3.5-1.4-2.8c-1.7-3.2-16.4-67.4-16.4-71.6 0-5.1 5.8-19.3 9-22.4 2.4-2.1 2.9-3.2 2.4-5.2s-1.7-2.8-5.8-4c-6.1-1.7-21.8-4.5-25.6-4.5h-2.7l3.9 10.5 4 10.6-3.2 13.7c-1.8 7.5-5.4 22.9-8.1 34.2s-5.1 21.4-5.4 22.5c-.2 1.1-1 2.9-1.8 3.9-2.6 3.6-2.4 4.3-14.9-50.4l-5.1-22.5 3.3-9.5c2.4-7.2 4-10.2 6.7-12.7s3.5-4 3.8-7.7c.3-4-.1-5-3.3-8.8-8.4-9.9-20.1-21.2-25.6-24.9-6.8-4.6-9.1-5-5.3-1.1 1.4 1.5 4.2 7 6.1 12.5l3.6 9.7-9 37.2c-5 20.5-9.7 37.9-10.4 38.7-1.2 1.1-1.6 1-2.5-.6-.5-1.1-4.9-18.4-9.6-38.4l-8.5-36.4 3.9-10.3c3.5-9.1 6.8-14.1 9.4-14.2.5 0 .6-.8.3-1.8-.3-.9 0-2.9.8-4.4 1.4-2.5 1.3-2.7-3.8-6.2-2.8-2-8.9-7.2-13.6-11.6s-9-8-9.6-8c-.5 0-3.5 1.5-6.5 3.3m176.6-.3c-.4 1.7-.5 3.4-.2 3.6.3.3.8-.9 1.2-2.6s.5-3.4.2-3.6c-.3-.3-.8.9-1.2 2.6m107.6 4.7c-.1 1.2.4 2.5.9 2.8 1.2.7 1.2-.2 0-3-.8-1.9-.9-1.9-.9.2M502 253.1c-2.5.5-7.1 1.4-10.2 2-4.1.8-6.2 1.8-7.3 3.5-1.4 2.1-1.3 2.4 1.5 4.6 3.1 2.4 11.1 19 11.3 23.3.2 3.2-16.4 69.2-17.8 71.2-1.3 1.7-1.4 1.7-2.7 0-.7-1-5.3-17.9-10.1-37.6l-8.8-35.8 4-9.4c2.8-6.3 5.1-10.3 7.3-12.1l3.3-2.7-17-.1c-9.3 0-20-.3-23.7-.7l-6.8-.6v3.1c0 2 .7 3.5 1.9 4.1 1.9 1.1 9.1 19 9.1 22.9 0 1.2-2.8 13.8-6.1 27.9-3.4 14.2-6.3 26.7-6.6 27.9-.3 1.1.3 5.5 1.1 9.7.9 4.2 1.6 12.5 1.6 18.7v11h86v-48.3c0-41.6-.2-49.1-1.7-55.1-1.4-6-1.5-7.5-.3-11.5.8-2.5 1.6-7.4 1.8-10.9l.4-6.2-2.9.1c-1.5.1-4.8.5-7.3 1M289.6 369.2c-1 3.8-.6 4.5.9 1.8 1.7-2.9 1.8-4 .6-4-.5 0-1.1 1-1.5 2.2"/></svg>