<svg xmlns="http://www.w3.org/2000/svg" width="682.667" height="512" version="1.0" viewBox="0 0 512 384"><path d="M0 99.5c0 54.7.2 99.5.5 99.5s6.5-2 13.8-4.4c19.4-6.5 38.1-14.6 56.8-24.7 9.1-4.9 17.9-9.1 19.6-9.5 2.6-.5 3.7.1 8.1 3.9 2.7 2.4 12.9 10.6 22.5 18.1s24.1 20 32.3 27.7c27.6 26.3 35.3 31.7 50.9 35.6 6.8 1.6 9.8 1.7 39.8 1.1 3.4-.1 9.5.2 13.5.7l7.2.8v-2.6c0-3.4 9.9-22.9 15.4-30.5 4.8-6.5 16.1-15.2 22.3-17.3l3.6-1.1-.7-7.7c-1-12-2.6-15.5-2.3-4.9.2 4.9 0 8.8-.4 8.8-.3 0-1.4-4.1-2.4-9-1-5-2.1-9-2.4-9-.4 0-1.3 1.7-2.1 3.7l-1.5 3.8-.6-8c-1-12.1-2.3-15.5-7-18.8-3.6-2.5-4.3-2.6-5.8-1.4-.9.7-2.9 1.4-4.5 1.5-2.5.2-2.8-.1-2.2-2.1.4-1.2 1-4 1.3-6.1l.6-3.9-3.5.7c-5.2 1-5.3-.3-.2-3.6 3.8-2.4 4.5-3.3 4-5.1-.4-1.2-1.1-4.4-1.6-7.1-.6-2.7-1.1-5.1-1.3-5.2-.1-.1-1.7 1-3.6 2.5-3.3 2.7-3.4 2.9-3.4 10.7-.1 4.3.3 13.1.8 19.5.9 12.7.1 18-4.1 28.4-2.8 6.9-5.5 19.1-4.7 21.4.4 1.4.3 1.4-.6.1s-1.1-1.3-1.2 0c0 .8-.6.2-1.3-1.4-1.3-2.8-1.3-2.8-2.6 3.5-1.2 5.3-1.5 5.9-1.8 3.4-.4-2.6-.5-2.8-1.2-1-.6 1.3-.8-.2-.8-4.3 0-3.5-.3-6.6-.6-6.9-.3-.4-.6 1.8-.7 4.8-.1 5-1.4 11.7-1.9 9.4-.1-.6-.5.1-1 1.5-.7 2.4-.7 2.4-1.8-1-.8-2.9-1-3.1-1.1-1.1-.2 5.2-2 .3-3.6-9.9-.9-5.7-1.8-10.6-2.1-10.9-.2-.2-.5 1.6-.6 4-.2 6.6-.2 7.2.6 9.9.6 1.7.5 2.2-.2 1.5-1.7-1.6-7-16.7-8.6-24.8-1.7-8-1.4-15.1 1-27.9.5-2.3.2-2.7-2.3-3l-2.8-.3 3.6-3.3c2.7-2.4 4.4-5.5 6.4-11 3.8-10.8 7-16.7 11.6-21.7l4-4.3-11.6-3.6c-11.2-3.6-15.5-6.1-15.5-9 0-.7.7-2.9 1.5-4.8.8-2 2.2-6.9 3.1-10.9 2.2-9.7 5.2-15.4 11.1-21 9.8-9.2 18.6-14.1 23.9-13.2 5.3 1 10.1 7.1 11.4 14.3l.6 3.5 2.3-4.8c6.5-13.3 17.9-23.9 29.9-27.9 6-1.9 9.4-2.2 30.9-2.6 26.8-.4 35.9.5 43.9 4.3 16.8 8.2 27 34.4 22.9 58.9-.8 4.8-.7 5.1 2.2 7.5 5.1 4.3 8.2 12 8.4 20.6.1 2.2.8 5 1.5 6.2 1.3 2.1 1.1 2.5-3.1 6-5.9 4.9-6.3 6.5-3 11.4l2.6 4-2.3-.3c-2-.3-2.3.1-2 2.4.2 2.1-.1 2.6-1.3 2.2-.8-.3-1.5-.1-1.5.6 0 2.5-1.8-.3-4-6.2-2.1-5.6-2.4-6-3-3.8-.4 1.4-1.8 6.1-3 10.5-2.7 9.5-4.1 13.7-4.6 13.2-.2-.2-.9-3.9-1.5-8.3-.6-4.3-1.7-8.6-2.5-9.4-1.2-1.2-1.4-.6-1.5 5l-.1 6.5-1.4-3.3c-.8-1.7-1.6-3.2-1.8-3.2s-1.4 4.2-2.6 9.2c-1.1 5.1-3.4 13-4.9 17.6l-2.9 8.3 3.2 1.4c1.7.7 7.2 3 12.1 5 5.2 2 11.5 5.5 14.8 8.1 5 4 6.3 5.9 11.6 16.7 3.3 6.7 6.8 14.4 7.9 17.2l2 5 6.3.3c3.5.2 11.2-.4 17.1-1.4 9.2-1.5 12-1.6 19.6-.6 16.2 2.2 31.2 1 42-3.3l4.2-1.7V0H0z"/><path d="M264.2 169c0 1.4.2 1.9.5 1.2.2-.6.2-1.8 0-2.5-.3-.6-.5-.1-.5 1.3m43.9 7.2c.1 4.6-.2 11-.6 14.2-.7 5.5-.7 5.9 1.1 5.2 1.1-.5 4.4-1.7 7.3-2.7 11.5-4 13.1-7.5 5.7-12.2-2.4-1.5-6.5-5-9-7.7l-4.7-5zm54.8-2.6c-1 1.3-1 1.7.1 2.4 1.8 1.1 3 .3 3-2.1 0-2.3-1.3-2.5-3.1-.3m-285.6 11-10.2 6.5 2 2.9c1.8 2.3 1.9 3.1.9 5-1.1 2.1-.9 2.6 2.4 5.4 2.9 2.4 4.4 5.1 7.1 12.6 1.9 5.2 3.5 10.2 3.5 11 0 2.5-17.7 72.6-18.9 74.9-1.6 2.8-2.6 2.6-4-.7-1.3-3.3-17.1-71.4-17.1-73.9 0-.9 1.6-6 3.6-11.3 2.6-6.6 4.6-10.3 6.7-12.1 2.5-2.1 2.9-3 2-4.1-1-1.2-3-.5-12 3.9-5.9 2.9-17.4 7.4-25.4 10-14 4.6-14.6 4.8-15.6 8-.9 3-.8 3.4 2.3 5.5 2.5 1.7 4 4.3 6.9 11.8 2.1 5.2 3.7 10.4 3.7 11.5s-3.4 15.4-7.6 31.7L0 312.9V384h260.7l.7-17.7c.4-11.9 1.3-20.2 2.5-25.3 2.1-8.3 5.4-36 4.6-38.1-.3-.8-1.2-4.5-1.9-8.3-1.4-6.6-1.4-7.1 1-13.4 1.3-3.5 2.4-6.6 2.4-6.7 0-.2-1-.5-2.2-.7-1.4-.2-2.6-1.3-3.2-2.9-.8-2.3-.5-3.1 2.5-5.8l3.4-3.1-20.5.5c-11.2.3-20.6.7-20.8.9s1.2 1.6 3.1 3c2.7 2.1 4 4.4 6.6 12.1 2 5.6 3.1 10.6 2.9 12.3-1.3 7.3-15.9 67-17 68.9-.6 1.3-1.5 2.3-1.8 2.3-1.2 0-2.8-4.8-4.9-14.5-1.1-5-4.5-20.3-7.6-34l-5.6-25 3.2-9c2.1-6 4.3-10.2 6.5-12.5 3-3.2 3.2-3.8 2.1-5.9-1-2-2.8-2.8-10.7-4.6-5.3-1.2-12.9-2.5-17-2.9-6.2-.6-7.2-.5-6.2.6 1.6 2 7.2 18.2 7.2 20.9s-15.6 68.3-17.1 72.1c-2.4 6-3.4 3.5-9.3-22.2-8-35-10.6-46.9-10.6-49.4 0-1.3 1.6-6.6 3.6-11.8 2.8-7.4 4.2-9.8 6.5-11.2 2.1-1.3 2.9-2.5 2.9-4.6 0-1.5.3-3.5.6-4.3 1.2-3.2-23.8-28.6-32.8-33.3-3.9-2-4.7-1.1-1.5 1.8 2.4 2.2 8.7 18 8.7 21.8 0 2.6-16.8 70.5-18.2 73.6-.6 1.3-1.4 2.4-1.8 2.4-1.3 0-2.9-4.6-5.4-15.5-1.3-6.1-5-22.1-8.1-35.8l-5.7-24.7 3.7-10.1c2.8-7.3 4.6-10.6 6.7-12.2 1.8-1.3 2.8-3 2.8-4.6 0-1.3.7-3.2 1.5-4.1 1.3-1.5 1-2-3.4-5.1-2.7-1.9-9-7.1-14-11.7-4.9-4.5-9.5-8.2-10.3-8.2-.7 0-5.9 3-11.5 6.6m181.8-4.9c-.1.6-.4 2-.7 3-.5 1.7-.5 1.7.6 0 .6-1 .9-2.3.6-3-.3-.9-.5-.9-.5 0m107 6.9c0 1.1.3 1.4.6.6.3-.7.2-1.6-.1-1.9-.3-.4-.6.2-.5 1.3m139.4 64.9c-.5.2-5.4 1.1-10.8 2-8.4 1.5-10 2.1-11.4 4.2-1.6 2.5-1.6 2.6 1.4 5.2 2.2 1.8 4.4 5.8 7.3 12.6l4.1 10-8.6 35c-4.7 19.3-9.2 35.6-9.9 36.3-1 1.1-1.5 1-2.4-.1-1.2-1.4-18.2-69.2-18.2-72.4 0-3.9 6.4-17.9 9.9-21.6l3.5-3.7h-16.9c-9.4 0-20-.3-23.7-.6l-6.6-.7.1 2.9c.1 1.6 1.2 3.8 2.4 4.9 1.3 1.1 3.9 6.5 5.8 11.9l3.6 9.9-6.7 28.6-6.7 28.6 1.3 7c.7 3.8 1.5 12.7 1.7 19.7l.6 12.8H512v-90.5l-2.8-10.7c-2.6-9.8-2.7-11-1.4-14 2.8-6.8 4.2-11.4 4.2-14.6 0-2.9-.3-3.2-2.7-3.1-1.6 0-3.2.2-3.8.4M289 367.4c0 .8-.3 2.3-.6 3.3-.5 1.2-.4 1.5.3.8 1.6-1.5 2.6-5.5 1.4-5.5-.6 0-1.1.6-1.1 1.4"/></svg>