<svg xmlns="http://www.w3.org/2000/svg" width="682.667" height="512" version="1.0" viewBox="0 0 512 384"><path d="M0 99.4v99.4l8.3-2.5c20-6.1 42.9-15.9 62.2-26.4 12.7-6.9 19.3-9.9 22.1-9.9.8 0 3.3 1.7 5.7 3.8 2.3 2.1 11.4 9.4 20.2 16.2 17.9 13.7 25.3 20.2 43.1 37.1 19 18.2 27.5 23.8 41.9 27.4 6.7 1.8 13.6 2 40.5 1.2 2.5-.1 7.9.2 12.1.7l7.6.8.7-3.4c.3-1.9 2.1-6.6 4-10.4 8.3-17.4 17.6-28.1 30-34.5 7.5-3.9 7.6-4.1 5.2-15.9l-1.4-6.5-.1 9.9c0 5.5-.3 9.7-.5 9.5s-1.1-4.6-2-9.8c-.9-5.1-1.9-9.8-2.3-10.4s-1.4.7-2.4 2.9l-1.8 3.9v-6.1c-.1-3.4-.5-7.4-1-9s-1.2-4.1-1.5-5.5-2.4-4-4.6-5.8c-3.8-3.1-4.3-3.2-5.9-1.7-1 .9-2.1 1.3-2.4 1-.4-.4-1.3-.1-2.2.6-2.4 2-2.9.5-1.6-4.4 1.8-7.3 1.6-7.9-2.3-7.3-5.1.8-5.1-.2 0-3.5 3.5-2.2 4.4-3.3 3.9-4.6-.4-.9-1-3.8-1.4-6.5-.5-2.6-1-4.9-1.2-5.1s-1.9.9-3.8 2.4l-3.4 2.9.4 12.3c.8 28.7.6 31.4-3.5 41.8-2.1 5.5-4 12.2-4.3 15.7s-1 6.3-1.4 6.3c-.5 0-.9.8-1 1.7 0 1-.6.2-1.3-1.7-1.4-3.8-1.7-3.5-3.1 3.7-.4 1.8-1.1 3.3-1.7 3.3s-.7-.7-.4-1.6c.3-.8.2-1.2-.4-.9-.6.4-1.1-2-1.1-6.2-.2-7.1-.4-6.7-1.4 3-.4 3.2-1 5.6-1.3 5.2-.3-.3-1.2 1.1-1.8 3.2l-1.2 3.8-.2-4.5-.2-4.5-1.3 2.9-1.3 3-.6-4.5c-.4-2.4-.7-5.8-.7-7.4 0-1.7-.6-5-1.4-7.5l-1.5-4.5.3 8.2c.2 9.1-.1 8.9-4.3-2.6-4.5-12.4-5.9-20.5-5-30.4.5-4.7 1.1-10 1.5-11.7.6-2.8.5-3-2.1-3h-2.8l3.6-3.8c2.3-2.3 4.5-6.3 6.2-11 4.1-11.7 7.8-18.4 12.3-22.7l4.2-4.1-9.7-2.9c-11.4-3.3-16.8-5.8-18.1-8.4-1-1.7.4-7.1 6.6-24.9 3.1-8.8 11.7-17.2 23.9-23.3 5.5-2.7 6.5-2.9 10.1-2 2.2.6 4.7 1.9 5.6 2.9 2.4 2.6 4.7 8.7 4.7 12.3 0 2.8.4 2.3 3.7-4.1 4.6-9.4 15.5-20.6 23.3-24.2 8.9-4.2 17.8-5.1 45.5-4.6 23.1.4 25.4.6 31 2.7 14.2 5.5 25.1 23.6 27.1 45.3.5 5 .2 8-1.1 12l-1.7 5.3 3.5 3c5 4.3 7.8 10.5 8.4 18.9.3 3.9.9 7.9 1.4 8.8 1.6 3 1 4.4-3.6 7.6-5 3.5-5.4 4.7-2.5 9.4 2.5 4.2 2.5 5.1 0 4.3-1.8-.6-1.9-.3-1.3 2.7s.5 3.2-1 1.9c-1.2-.9-1.7-1-1.7-.2 0 2.6-1.8-.2-4-6.1l-2.3-6.3-1.7 6.5c-3.5 13.5-4.5 16.6-5.6 18.4-1.1 1.5-1.3 1-1.9-4-.8-7.5-1.8-10.7-3.4-11.2-1-.3-1.2.8-.7 4.9.6 5 .6 5.3-.9 3.5-.8-1.1-1.5-2.4-1.5-2.9 0-.4-.4-.6-.9-.2-.5.3-1.5 3.1-2.1 6.2-.7 3.1-2.8 10.6-4.7 16.6-3.9 12.3-4.1 11.6 4.2 14.3 7.5 2.5 18.5 8.2 23.4 12.3 3.5 2.9 5.6 6.1 11.1 17.6 3.7 7.7 7.2 15.3 7.7 17 .9 2.8 1.3 3 6.4 3.3 3 .2 10.8-.4 17.3-1.3 10.3-1.5 13.4-1.5 23.4-.5 16.8 1.8 31.4.1 42.5-5l2.7-1.3V0H0z"/><path d="M287 152.9c0 .6.4 1.3 1 1.6s.7-.1.4-.9c-.7-1.8-1.4-2.1-1.4-.7m19.8 28.8c-.3 7-.5 12.9-.3 13.1.3.3 10.6-3.4 14.8-5.4 5.2-2.5 5-5.4-.5-8.7-2.4-1.4-6.4-4.6-8.9-7.2l-4.6-4.6zm55.4-8.5c-1.6 1.6-1.5 2.8.3 2.8.8 0 1.5-.9 1.5-2 0-2.3-.2-2.4-1.8-.8m-280.7 8.4c-3.2 2-7.9 4.9-10.3 6.6-4.1 2.9-4.3 3.1-2.6 4.9 1.2 1.3 1.5 2.9 1.1 5.2-.4 2.9-.1 3.6 2.8 5.5 2.7 1.9 3.9 4.1 7 12.9l3.7 10.6-8.7 34.6C66 295.3 63.5 304 62.1 304c-1.7 0-3.4-6.1-11.1-40.2l-8.3-36.6 3.8-9.9c2.5-6.6 4.7-10.7 6.6-12.4 2-1.7 2.7-3.2 2.3-4.2-.3-1-.8-1.7-1-1.7-.3 0-4.8 2.2-10.2 4.9C35.3 208.4 9 218 5.7 218c-.7 0-1.9 1.6-2.5 3.6-1 3.3-.9 3.9 1.1 5.5 1.2 1 2.5 1.8 2.8 1.9.4 0 2.6 4.7 4.9 10.4l4.2 10.5-3.6 13.8c-1.9 7.6-5.6 21.8-8.1 31.6L0 313.2V384h260v-8.3c.1-12.6 1.7-30.6 3.4-37.2 2.4-9.7 4.8-34.9 3.7-39.3-3.4-12.8-3.3-12.3-.6-19.1 1.4-3.6 2.5-6.6 2.5-6.7s-1.1-.5-2.4-.8c-1.6-.4-2.5-1.5-2.9-3.3-.4-2.2 0-3.3 2.4-5.1 1.6-1.3 2.9-2.7 2.9-3 0-.4-5.1-.4-11.2.1-6.2.4-15.2.6-20.1.5-4.8-.2-8.7-.1-8.7.2 0 .2 1.3 1.8 2.9 3.5 1.8 1.8 4.3 6.7 6.3 12.3l3.4 9.4-8.4 35.1c-4.6 19.4-9 35.8-9.8 36.6-1.2 1.3-1.5 1-2.8-2-1.7-4.2-15.6-65.8-15.6-69.3 0-3.1 5.8-19.4 7.4-20.7.6-.5 1.9-1.5 2.9-2.2 1.4-1 1.7-2 1.2-4-.8-2.9-2.5-3.6-15.5-6.2-8.6-1.8-20.8-2.9-19.3-1.8.7.5 2.9 5.3 4.9 10.6l3.6 9.8-2.7 11.2c-1.5 6.1-5.1 21.3-8.1 33.7s-5.6 23.4-5.9 24.5c-.2 1.1-1.1 2.9-1.8 3.9-1.4 1.9-1.5 1.9-3-1-.8-1.6-2.2-6.3-3-10.4-.9-4.1-4.3-19.6-7.6-34.3l-6.1-26.8 2.9-7.7c1.6-4.2 3.2-8.7 3.6-9.9.3-1.1 2.1-3.3 3.9-4.7 2.5-1.9 3.5-3.5 3.8-6.3.5-3.5 0-4.4-7.3-12.9-9.2-10.7-13.4-14.6-21.8-20.3-6.9-4.7-8.7-4.8-4.9-.3 1.4 1.6 3.9 7.1 5.7 12.2l3.2 9.2-8.6 34.6c-4.7 19.1-9.2 36.3-10.1 38.2-1.5 3.2-1.7 3.3-2.9 1.6-.8-1-2.4-6.2-3.5-11.5-1.2-5.3-4.9-21.2-8.1-35.4s-5.9-26.4-5.9-27.1c0-.8 1.7-5.7 3.7-11.1 2.6-6.9 4.4-10.3 6.5-11.8 1.5-1.1 2.8-2.9 2.8-4 0-1 .5-2.8 1.1-4 1-1.8.8-2.3-1.2-3.6-2.4-1.6-11.4-9.3-19.9-17-2.5-2.2-5.2-4.1-6-4.1s-4.2 1.6-7.5 3.6m175.7 3.4c0 1.4.2 1.9.5 1.2.2-.6.2-1.8 0-2.5-.3-.6-.5-.1-.5 1.3m110.9 2.6c0 1.1.3 1.4.6.6.3-.7.2-1.6-.1-1.9-.3-.4-.6.2-.5 1.3M255.2 203c0 1.4.2 1.9.5 1.2.2-.6.2-1.8 0-2.5-.3-.6-.5-.1-.5 1.3m248.3 47.5c-.5.1-5.7 1.1-11.3 2.1-9.4 1.6-10.5 2-11.4 4.3-.8 2.2-.5 2.9 2 5.1 2.9 2.5 10.2 18.9 10.2 22.9 0 2.6-16 67.1-17.1 69.3-2.6 4.9-4 1.2-12.9-36.2-3.9-16.2-7.5-30.9-8.1-32.6-.8-2.5-.3-4.4 3.1-12.5 2.7-6.2 5.2-10.3 7.3-12.1l3.2-2.7-18.5-.1c-10.2 0-20.8-.3-23.6-.6l-5.2-.7.5 2.9c.3 1.6 1.4 3.8 2.4 4.9 1 1.2 3.5 6.5 5.5 11.8l3.6 9.7-4.1 17.3c-2.3 9.4-5.3 22.3-6.8 28.5-2.5 10.5-2.6 11.7-1.4 17 .7 3.1 1.5 12.3 1.8 20.4l.5 14.8H512v-82.5l-3.9-15.3-3.9-15.3 3.9-10.2c2.1-5.6 3.9-10.3 3.9-10.4 0-.4-7.3-.2-8.5.2M288 365.4c0 .8-.3 2.3-.6 3.3s.2.7 1-.7c1.8-3 2-4 .6-4-.5 0-1 .6-1 1.4"/></svg>