<svg xmlns="http://www.w3.org/2000/svg" width="682.667" height="512" version="1.0" viewBox="0 0 512 384"><path d="M0 99c0 78.5.3 99 1.3 99 1.5 0 13.4-3.9 24.6-7.9 12.8-4.7 32.2-13.6 47.2-21.8 7.5-4.1 15.3-7.6 17.2-8 3.3-.5 4.2 0 9.9 4.9 3.5 3 11.3 9.2 17.3 13.8 16.7 12.7 26.5 21.1 43 36.8 8.2 7.9 18.1 16.4 21.8 18.9 12.9 8.6 27.8 12.1 46.2 10.8 14-1 16.1-1 26.9 0 8.8.8 8.9.8 8.4-1.3-.8-2.8 8.4-21.5 14.5-29.9 5-6.7 12.2-12.6 20.5-16.8l5.4-2.6-.7-5.7c-1.4-12-2.3-13.3-2.5-3.7-.2 10.3-1.1 9.4-3.1-2.8-.6-4.3-1.6-8-2.1-8.3q-.75-.45-.6.3c.1.4-.7 2.8-1.8 5.3l-2.1 4.5.5-5.4c.3-2.9-.1-8.4-.8-12.2-1.2-6.3-1.7-7.3-5.6-10.4-3.6-3-4.7-3.4-6.4-2.5-1.1.5-2.9 1.5-4.1 2.1-2.9 1.4-3.2.7-2-3.8 2-7.2 1.6-8.3-3.1-8.3h-4.2l4.8-3c3.2-2 4.6-3.6 4.2-4.5-.3-.8-.8-3.7-1.2-6.5-.4-2.7-.9-5-1.1-5s-2 1.2-4 2.7l-3.5 2.7.7 19.6c.7 20.9-.1 27.3-4.6 36.2-1.1 2.1-2.4 7.1-3.1 11.2-1.2 7.7-3.2 10.5-4.7 6.5-.6-1.7-1-1-2.1 3.7q-1.35 5.85-1.8 3.6c-.2-1.2-.8-2-1.3-1.7-.5.4-1-2.1-1.1-5.7-.1-5-.2-5.4-.5-1.8-.5 7.5-1.3 11.1-2.4 10.5-.5-.4-.9.4-.9 1.7-.1 2.1-.2 2-1.4-.7-1.1-2.7-1.3-2.8-2.1-1-.7 1.8-.9 1.7-1.5-1-.4-1.7-.8-4.8-.9-7s-.8-6-1.6-8.5l-1.5-4.5.3 8.2c.2 9.2-.1 8.9-4.5-3-5.1-14.1-5.8-19.3-4.2-32 .8-6.2 1.4-11.3 1.4-11.5s-.7-.2-1.6 0c-2.9.5-2.6-1.9.5-4.1 2.1-1.5 3.4-3.8 4.6-7.7 2.6-8.8 8.3-19.9 12.9-25.1l4.4-4.8-11.9-3.8c-6.5-2-13-4.8-14.5-6.1l-2.8-2.3 3.9-11.9c2.1-6.6 4.9-13.8 6.2-16.1 5.5-9.6 22.2-21.3 30.2-21.3 2.2.1 4.6.9 6.2 2.3 3.4 2.8 6.9 10.1 6.2 12.7-.9 3.6.5 2.1 3.2-3.2 3.8-7.6 9.2-14.5 14.6-18.8 12-9.4 21.8-11.4 53.9-10.7 26 .5 32.2 1.8 40 8.4 5.9 5 6.5 5.7 10.5 13.6 6.3 12.1 8.9 28.1 6.4 38.4-1.2 4.5-1.2 4.6 2.4 7.7 4.5 3.9 7.5 11.2 8 19.7.3 3.6 1 7.6 1.7 8.9 1.2 2.2 1 2.7-2.6 5.7-2.1 1.8-4.2 3.3-4.6 3.3-1.5 0-.8 4.5 1.2 7.8 2.5 4 2.5 4.1-.1 3.5-1.9-.5-2.1-.3-1.4 2.7.6 2.6.4 3.1-.6 2.4-.8-.5-2-.9-2.8-.9s-2-1.8-2.8-4c-2.2-6.4-2.3-6.8-2.8-6.3-.3.2-1.9 5.3-3.6 11.3s-3.7 11.5-4.5 12.2c-1.2 1.2-1.4.6-1.5-4.4-.1-7-1-10.5-2.8-11.1-1.1-.4-1.3.6-.8 4.7.6 5.3-.7 7.2-1.9 2.6-.9-3.8-3-1.5-3.9 4.3-.4 2.6-2.3 9.3-4.2 15s-3.2 10.9-3 11.6c.3.8 3.8 2.6 7.9 4.1 20.7 7.8 25.2 11.7 33.4 29 3.4 7.1 6.8 14.8 7.5 16.9l1.4 3.9 11-.6c6.1-.4 13.6-1.2 16.8-1.8 4.4-.9 7.7-.9 14 0 17.9 2.5 34 .7 46-4.9l4.7-2.2V0H0z"/><path d="M286 153.4c0 .2.8 1 1.8 1.7 1.5 1.3 1.6 1.2.3-.4s-2.1-2.1-2.1-1.3m20 23.1c0 4.4-.3 10.4-.6 13.3l-.7 5.2 6.8-2.5c14.2-5.4 15.6-7.5 8.3-12.1-2.4-1.4-6.4-4.7-9-7.2l-4.8-4.6zm54.6-3.6c-.5.7-.3 1.8.3 2.4 1.4 1.4 2 .6 1.1-1.7-.5-1.5-.9-1.6-1.4-.7M77.3 184c-5.1 3.3-9.3 6.2-9.3 6.5s.7 1.7 1.6 3.1c1.3 1.9 1.4 3 .7 4.7-.9 1.9-.5 2.7 2.7 5.7 2.8 2.7 4.4 5.7 7 13l3.3 9.5-8.8 35c-4.9 19.2-9.4 36.5-10.1 38.3-2.7 6.8-4.1 3.8-9.5-20.1-2.2-10-5.8-26-8-35.5l-4-17.3 3.7-9.7c2.6-7 4.6-10.6 7-12.8 2.9-2.7 3.2-3.3 2-4.4-1.2-.9-3.4-.2-11.8 3.8-9.8 4.7-26.6 10.9-35.4 13.2-3.5.9-4.2 1.5-4.8 4.2-.5 2.7-.1 3.7 2.4 6.3 3.3 3.4 10 18.2 10 22.2 0 1.3-3 13.8-6.6 27.6C-.5 314.8.1 310.2 0 349.2V384h259v-2.3c.2-14.9 2.2-38.7 3.9-45.7 1.1-4.7 2.5-14.4 3.1-21.5 1-11.8.9-13.7-.8-20.9l-2-7.8 2.4-6.1c2.9-7.4 2.9-7.3.4-8-1.1-.3-2.4-1.6-2.9-2.9-.8-1.9-.4-2.8 2-5.1 1.6-1.5 2.9-3.1 2.9-3.5s-3.7-.4-8.2 0c-4.6.3-13.7.7-20.3.7l-12 .1 3.5 3.3c2.7 2.4 4.4 5.5 6.8 12.5l3.3 9.3-2.5 10.2c-1.4 5.6-5 20.8-8.1 33.7-7.1 30.2-7.9 32.3-10.4 26.2-.6-1.5-4.5-17.9-8.7-36.4l-7.6-33.7 3.7-9.9c2.7-7.4 4.4-10.5 6.5-12.1 2.6-1.9 2.8-2.4 1.8-4.6-.7-1.6-2.5-2.9-4.7-3.5-4.3-1.3-25.5-5-28.2-5-1.8 0-1.8.2-.5 2.2.8 1.3 2.8 6.2 4.4 10.9l3 8.6-3.8 15.4c-2.1 8.5-5.9 24.4-8.5 35.4-2.7 11-5.4 20.8-6.1 21.8-1.2 1.8-1.3 1.8-2.7-.5-.8-1.2-2.4-6.6-3.5-11.8s-4.6-20.9-7.7-34.7l-5.7-25.2 3.7-9.8c2.4-6.4 4.6-10.7 6.5-12.3 1.9-1.7 3-3.8 3.4-6.6.6-4 .4-4.4-6.7-12.5-4.1-4.6-9.9-10.7-13-13.5-7-6.4-15.7-12-15.7-10 0 .7.9 2 1.9 2.7 1.1.8 3.5 5.9 5.5 11.4l3.5 9.9-9.1 36.3c-5 19.9-9.6 37-10.3 38-1.2 1.6-1.4 1.5-2.9-1.7-.8-1.9-2.7-8.7-4-15-1.4-6.3-4.6-20.5-7.1-31.5-2.6-11-4.9-21.4-5.2-23.2-.8-4.5 6-22 9.8-25.1 1.6-1.3 2.9-3.2 2.9-4.3s.4-2.8 1-3.8c.8-1.6-.2-2.7-6.3-7.4-3.9-3.1-9.7-8.1-12.7-11.1-3.8-3.9-6.2-5.6-8-5.6-1.4 0-6.7 2.7-11.7 6m179.2-1c-.4 2.3-.5 4.3-.2 4.6.2.3.7-1.4 1.1-3.7s.5-4.4.2-4.6c-.2-.2-.7 1.4-1.1 3.7m243 67.1c-15.1 2.1-18.6 3.1-20.3 5.6-1.5 2.5-1.5 2.6 1.5 5.2 2.2 1.8 4.2 5.4 6.7 11.8 2 5.1 3.6 10.1 3.6 11.1 0 2.8-15.9 67.1-17.1 69.4-1.8 3.3-3.8.2-6.1-9.3-1.1-4.6-4.9-20.1-8.4-34.3-3.5-14.3-6.4-26.8-6.4-27.8 0-3.4 7.3-19.3 10-21.5 1.4-1.1 2.3-2.3 2-2.6s-10.5-.7-22.8-.9l-22.2-.3v2.7c0 1.5.8 3.3 1.9 4 2 1.4 9.1 18.6 9.1 22 0 2.1-2.9 15.2-8.7 38.7-3.7 15.6-3.7 14.7-1.4 36.6.6 5 .7 12.3.4 16.2l-.6 7.3H512v-75.9l-4.6-17.8c-2.5-9.8-4.8-18.1-5.1-18.6-.7-1.2 6.8-20 8.5-21.5 1.3-1 1-1.2-1.9-1.1-1.9.1-6.1.5-9.4 1M287.5 363c-.3.5-.4 1 0 1 .3 0 .1.9-.5 2-1.5 2.8-.6 2.5 1.4-.4.9-1.4 1.2-2.7.7-3.1-.5-.3-1.2-.1-1.6.5"/></svg>