<svg xmlns="http://www.w3.org/2000/svg" width="682.667" height="512" version="1.0" viewBox="0 0 512 384"><path d="M0 99c0 63.6.3 99 1 99 1.3 0 22.8-7.2 33-11.1 4.7-1.8 19-8.5 31.8-15.1 12.8-6.5 24.5-11.8 25.9-11.8 1.7 0 4.7 1.7 8.2 4.8 3.1 2.6 10.6 8.6 16.6 13.2 17.5 13.3 26.1 20.6 40 33.9 23.8 22.7 31.3 27.7 47.5 31.7 7.4 1.9 9.8 1.9 39 1.1 3.6-.1 9.5.2 13.3.7l6.7.9v-2.7c0-3.1 10.3-23.6 15.4-30.5 4.1-5.6 11.8-11.7 19.5-15.6l5.3-2.7-.7-8c-1-12.5-2.5-14.1-2.3-2.6.2 11.1-.6 13.7-1.7 5.1-.4-3.2-1.2-8.1-1.7-10.8l-1.1-5-2.3 5-2.3 5 .1-6c.1-5.5-.6-12.5-1.8-16.6-.2-.9-2.3-3.1-4.5-4.8-3.9-3.2-4.1-3.3-7.4-1.7-5.8 2.8-6.5 2.3-4.9-3.1 2.1-7 2-7.3-3.3-7.3l-4.8-.1 3-1.6c5.9-3.1 6.7-4.3 6-9.3-1.4-9.6-1.2-9.4-5.7-5.7l-3.9 3.2.5 9.5c.3 5.2.9 13.6 1.2 18.6.7 10-.3 15.8-4.4 25.8-2.8 6.9-5.1 15.6-5.2 20.1-.1 1.6-.4 2.4-.7 1.7-.2-.6-.9-1-1.4-.6-.5.3-.9-.2-.9-1s-.5-1.8-1.2-2.2c-.6-.4-.8-.3-.5.3.3.5 0 3.1-.8 5.9-1.1 4-1.3 4.4-1.4 2-.1-2.7-.2-2.8-1.4-1.2s-1.3 1-1.1-4.5c.3-5.8.2-6-.6-2.4-.5 2.2-.9 5.5-.9 7.3-.1 1.9-.5 3.1-1.1 2.7s-1 .6-1 2.1c0 2.1-.3 2.5-1.1 1.7-.6-.6-1.1-2.3-1.1-3.7 0-3.2-.6-3.3-1.7-.4-.7 1.8-1 1-1.9-4.2-.6-3.6-1.4-8.5-1.8-11l-.8-4.5-.7 4c-.4 2.2-.5 5.6-.2 7.5s.3 3.2-.1 2.9c-1.3-1.2-5.9-14.9-7.7-22.9-1.6-7.2-1.7-9.8-.8-17.5.5-4.9 1.2-10 1.6-11.4.5-2.1.3-2.3-1.6-1.8-3.5.9-3.4-.9.3-4 2.4-2 3.8-4.4 5-8.7 2.7-9.4 8.7-20.7 13.3-25.1l4.2-4.1-9.7-2.9c-11.9-3.5-18.9-6.8-19.7-9.4-.3-1.1.2-3.7 1.3-5.8 1-2.1 2.5-6.1 3.2-8.8 3.1-11.8 9.5-20.9 19.3-27.4 10.7-7.2 17.4-8.7 22.2-4.9 3.1 2.4 6.4 9 6.5 12.8 0 2.1.5 1.7 2.5-2.3 3.8-7.4 7.8-12.7 13.2-17.9 10.4-9.6 18-11.8 44.3-12.5 19-.5 33.4.4 41.2 2.7 14.7 4.2 26.3 23.3 27.5 45.1.4 6.2.1 10.9-.7 13.3-1.2 3.6-1.1 3.7 2.8 7.4 5.2 4.8 8.2 12.3 8.2 20.2 0 3.4.5 7.1 1.1 8.3 1 1.8.7 2.5-3.5 6-5.1 4.3-5.5 6-2.6 9.7 2.5 3.2 2.5 4.4-.1 3.7-1.8-.5-2-.2-1.3 2.6.6 2.8.5 3-1 1.8-1.4-1.2-1.6-1.1-1.6.3 0 3.1-1.7.7-4-5.6l-2.4-6.3-.8 3.5c-.5 1.9-1.8 6.4-2.8 10-1.1 3.6-2.2 7.7-2.6 9.3-1.1 4.9-2.2 3.8-2.9-3.1-.4-3.7-1.2-7.6-1.9-8.7-.9-1.7-1.2-1.3-1.6 3.5l-.5 5.5-1.6-2.8c-2-3.7-3.1-2.3-4.8 6.3-.7 3.6-2.6 10.5-4.3 15.4-3.5 10.1-4 9.2 6.7 13.2 19.8 7.6 23.5 10.8 31.8 27.7 3.6 7.3 7 14.9 7.7 16.9l1.2 3.8h10.3c5.7 0 13.5-.7 17.4-1.5 6.3-1.3 8-1.3 14.8 0 16.2 3.1 32.8 1.2 46-5.2l5.3-2.6V0H0z"/><path d="M305.9 174.8c0 3.7-.4 9.4-.8 12.7-.5 3.3-.7 6.2-.4 6.4.5.6 13.3-3.9 16.1-5.7 3.6-2.3 2.8-5.3-2.2-8.5-2.4-1.5-6.2-4.8-8.5-7.2L306 168zm54.3-2.6c-1.6 1.6-1.5 2.8.3 2.8.8 0 1.5-.9 1.5-2 0-2.3-.2-2.4-1.8-.8m-283 11.5c-8.1 5.1-11.3 8.3-8.2 8.3 1.5 0 2.3 4.6 1.1 6.8-.9 1.7-.5 2.3 2.4 4.3s4 4 7.2 12.8l3.7 10.4-6.9 27.1c-12.1 47.6-13 50.5-15.6 47.9-.6-.6-1.9-4.8-2.9-9.4-1.1-4.6-4.8-21.3-8.4-37.1l-6.4-28.6 3.8-9.9c2.8-7 4.8-10.6 7.1-12.5 2.7-2.3 3-3 2-4.2-1.2-1.4-1.9-1.2-6.5 1.3-6.9 3.9-26.2 11.4-36.6 14.4-8.1 2.4-8.5 2.6-9.2 5.8-.6 3-.3 3.7 2.6 6.4 2.4 2.1 4.4 5.7 6.9 12.4l3.6 9.4-5.9 22.6c-12.3 46.9-11 38-11 77.3V384h259v-10.8c.1-13.9 1.5-29.5 3.4-36.9.8-3.2 2.2-12.2 3-20 1.4-13.5 1.4-14.5-.5-22.7l-2.1-8.6 2.6-6.6c2.5-6.5 2.5-6.6.5-7.1-1.1-.3-2.5-1.7-3-3.1-.8-2.2-.5-2.9 2.2-5.4 1.7-1.6 3-3.1 2.7-3.3-.2-.2-7.8 0-16.8.6-9.1.5-18 .6-19.7.3q-6.15-1.2-.3 3.6c2.1 1.8 3.9 5 6 11 1.7 4.7 3 9.5 3 10.7 0 2.2-4.4 21.5-12.6 55.5-3.6 15-5.4 18.6-7.3 15-.5-1-4.5-17.3-8.7-36.2l-7.7-34.3 2.9-8.6c2-5.8 3.9-9.7 6.1-11.9 2.5-2.6 3.1-4 2.7-5.8-.3-1.3-1-2.7-1.5-2.9-1.6-1.1-18.5-4.4-25.6-5.1l-7.2-.6 1.8 3.5c1 2 2.9 6.8 4.2 10.7 2.6 8.1 3.5 2.3-7.3 47.5-7.9 33.4-9.4 37.3-11.8 31-.8-2.2-5.6-23.1-13.7-59.4l-2.5-11.3 3.2-9.2c2.4-7 4-9.9 6.8-12.4 2.9-2.7 3.6-4 3.7-7.3.1-3.4-.7-4.9-5.4-10.7-3-3.7-7.8-9-10.6-11.8-5.8-5.9-18.8-14.9-19.3-13.4-.2.6.6 1.8 1.7 2.8 1.1.9 3.6 6.1 5.5 11.6l3.4 9.8-9 35.6c-4.9 19.6-9.4 36.4-10 37.5-2.5 4.7-3.5 1.2-16.5-57l-3.6-16.2 3.8-10.1c2.8-7.2 4.7-10.7 6.6-12.1 1.5-1 2.9-3.1 3.1-4.6.3-1.6.8-3.5 1.1-4.3.5-1-.9-2.6-4.5-5-2.8-1.9-8.6-6.8-12.9-10.8-5.1-4.8-8.5-7.2-10.1-7.2-1.3 0-6.5 2.6-11.6 5.7m178.9-.1c0 1.1.3 1.4.6.6.3-.7.2-1.6-.1-1.9-.3-.4-.6.2-.5 1.3M495 250.1c-13.5 2.2-15.7 2.9-16.8 5.5-1 2.2-.8 2.8 1.8 5.2 1.7 1.6 4.5 6.5 6.8 12.2l3.9 9.6-8.2 33.3c-8.3 33.5-9.7 38.1-11.4 38.1-1.8 0-3.1-4.9-16.8-62.3l-2.5-10.9 3.3-8.5c2.1-5.3 4.7-9.8 6.7-11.8 1.7-1.8 3.2-3.4 3.2-3.6s-10.4-.4-23-.5c-22.4 0-23 0-23 2 0 1.1 1.1 3.1 2.3 4.5 2.6 2.9 9.2 19.5 8.9 22.6-.1 1.1-2.2 10.5-4.7 21-8.2 34.1-8.1 33.2-6.5 42.7.7 4.5 1.4 14.3 1.4 21.5l.1 13.3H512v-72.1l-5-19.7c-2.7-10.8-5-20.8-5-22.2 0-2.6 5.5-17.6 7.2-19.8 1.2-1.4-5.4-1.5-14.2-.1M287 362.9c0 .5-.3 1.8-.6 2.8-.5 1.6-.4 1.6 1-.1 1.8-2.3 2-3.6.6-3.6-.5 0-1 .4-1 .9"/></svg>