<svg xmlns="http://www.w3.org/2000/svg" width="682.667" height="512" version="1.0" viewBox="0 0 512 384"><path d="M0 97.9v98l7.2-2c25.8-7.2 46.3-15.4 72.4-29 9.8-5.1 16.2-7.9 18.3-7.9 2.6 0 4.9 1.5 11.7 7.4 4.6 4.1 11 9.3 14.2 11.7 11.5 8.7 26 21.6 40.7 35.9 18.6 18.1 22.2 21 31.6 25.5 11.3 5.3 20 6.6 42.9 6.3 10.7-.2 20.5.1 21.7.5 1.8.6 2.2.5 1.8-.6-.3-.7 2.7-7.8 6.7-15.7 11-21.9 18.6-28.9 39.6-36.4 13.8-4.9 13.7-4.4 2.7-10.9-5.2-3.1-9.7-5.7-10-5.7s-.5 1.7-.5 3.7c0 5-1.1 11.3-1.9 11.3-.4 0-1.3-3.5-2-7.8l-1.3-7.7-1.3 5c-1.8 6.6-3.4 10.9-4.1 10.3-.2-.3-.6-4.5-.7-9.4-.2-4.9-.8-9.8-1.5-10.9-.6-1.1-1.2-1.4-1.2-.7 0 1.6-6 10.5-6.6 9.9-.2-.2.1-2.8.8-5.7 1.1-4.8 1-5.3-.8-6.6-1-.8-4.5-3.5-7.7-6.1-3.2-2.7-6.6-4.8-7.5-4.8s-1.7-.5-1.7-1.2-.6-1.8-1.2-2.4c-.7-.7-1.3-1.9-1.3-2.6s-.4-1.3-.9-1.3-.3 2.1.5 4.7c2.4 7.8 2 19.5-1 29-1.3 4.6-3 11.9-3.7 16.4-.7 5.2-1.5 7.6-2 6.7-.6-.9-.9-.6-.9 1.2 0 1.9-.2 2.2-1 1-.8-1.3-.9-1.3-1.4 0-.2.8-.9 2.8-1.4 4.5l-1 3-.2-3.5c-.1-1.9-.4-2.7-.7-1.7-1 4-2.2.2-1.6-5.3.4-4.2.2-6-.6-6-.7 0-1.1 2.3-1.1 6.7 0 6.5-1.6 13.3-3.2 13.3-.4 0-.8-1.4-.8-3.2 0-3.4-1.4-2.9-2.2.7-.6 2.4-.8 1.8-3.2-8-1.8-7.3-4.1-11.5-3.1-5.7.3 1.8.7 4.6 1 6.2.8 5-1 2.6-4.9-6.4-6-14-6.9-19.2-6.2-34.1.3-7.2.9-14.5 1.2-16.4.6-3.2.5-3.4-1.7-2.7-4.7 1.4-15.2 2-14.8.8s17.8-17.5 20.2-18.8c.8-.5 2.9-3.8 4.7-7.4s4-7.4 5-8.5c1.6-1.9 5.4-10.5 4.8-11-.2-.2-4.3-2-9.3-4-16.2-6.6-21.1-9.4-23-12.9-1.7-3.2-1.7-3.3 1-8.2 1.6-2.7 3.5-6.3 4.3-7.9 6-12.2 19.3-22.4 35.2-27.1 4.7-1.4 5.4-1.4 8.8.3 2 1 4.7 3.4 6 5.4l2.3 3.5 4.1-3.9c8.3-7.9 18.7-13.2 30.6-15.6 13.4-2.7 50.7.3 61.9 5.1 6.7 2.8 13.1 8.8 16.7 15.7 4.7 8.9 8 22.7 7.1 29.7-.6 4.9-.5 5.3 2.6 7.8 4.1 3.5 7.5 5.2 12 6 2 .3 4.4 1.5 5.4 2.6 1.7 1.9 1.7 2.4.4 6.8-1.1 3.3-2.4 5.3-4.6 6.7-2.2 1.3-3.8 3.6-5 6.9-1 2.8-2.6 5.1-3.5 5.4-1.3.3-1.8 1.4-1.8 3.8 0 2.2-.6 3.7-1.5 4-2 .8-1.9 2.7.5 7.4 2 4 2 4 .1 4-1.7 0-2 .8-2.3 6.2-.4 7.3-2.4 8.5-6.2 3.5l-2.5-3.1-.5 2.5c-.3 1.3-.8 4.1-1.1 6.1-.3 2.1-1 3.8-1.6 3.8-.5 0-1.4 1.2-1.9 2.6-1.5 3.8-2.7 2.1-3.5-4.8-1-8.2-2.3-11.8-2.5-6.8-.2 4-1.7 9.3-2 7-.2-2.1-2.9 4-3 6.7 0 3-2 3-2 0 0-1.3-.3-2.6-.6-3-1.2-1.2-3.4 2.2-3.4 5.2 0 2.7.4 3.1 2.6 3.1 2.9 0 2.8-.6.7 8.7-.6 2.6 4.3 5.7 16.5 10.3 10.8 4.2 19.7 10.2 23.2 15.7 1.5 2.4 5.4 10.2 8.5 17.3l5.8 13h9.1c4.9 0 13.5-.8 19-1.7 8.3-1.4 11.2-1.4 16.8-.5 15.4 2.7 33.5.2 45.3-6.1l6-3.2.3-113.8L512 0H0z"/><path d="M256.5 121c-1.4 1.6-1.6 3-1.1 7.7 1.4 12.1 2.2 12.5 3 1.4.4-5.7.5-10.5.3-10.7s-1.2.5-2.2 1.6m111.6 28.6c0 1.1.3 1.4.6.6.3-.7.2-1.6-.1-1.9-.3-.4-.6.2-.5 1.3M83.8 180.2l-9.6 6.1 2.1 2.8c1.8 2.6 1.9 3.2.7 5.4-1.3 2.4-1.1 2.7 2.1 5.8 2.8 2.6 4 5 6.3 13l2.9 9.7-4.8 15.8C71.8 277.4 66 295.4 65 296.4c-2.3 2.2-3.6-2.5-8.4-29.1-2.6-14.7-5.6-31-6.6-36l-1.9-9.3 4.4-9.7c2.7-6 5.6-10.8 7.4-12.3 2.1-1.8 2.7-3 2.1-4-.7-1.1-2.9-.4-11.7 3.7-10.2 4.8-31.7 12.3-35.2 12.3-1 0-2.1 1.5-2.8 3.7-1.2 3.6-1.1 3.9 1.6 6.3 2.1 1.8 3.7 5.3 6.1 12.5l3.3 10-11.7 37-11.6 37V384h255.6l1.3-16.7c.7-9.1 2-19.1 2.8-22.2 2.8-10.5 3.2-12.6 5.3-32.6 1.2-11.2 1.9-22.2 1.5-25.1-.5-3.8-.1-6.1 1.5-9.8 2.2-5.3 2-6.6-1.5-6.6-2.1 0-5.5-2.3-5.5-3.6 0-.3 1.4-1.7 3-3.1 1.7-1.4 3.5-3.4 4.1-4.5 1.1-2 .9-2-7.2-1.4-4.6.4-13 .7-18.7.8-5.6 0-10.2.3-10.2.5s1.4 1.6 3 3.1c2.2 2 3.7 5 5.5 11.1 1.4 4.7 2.5 9.4 2.5 10.5 0 1.2-2 8.6-4.4 16.6s-6.7 22.6-9.6 32.5c-5.1 17.3-6.3 20.5-8 20.5-1.5 0-2.7-5.8-8.6-38.7l-5.7-32.2 3.8-9.1c2.7-6.5 4.8-9.9 7.1-11.6 2.9-2.2 3.1-2.7 2-5-.7-1.5-2.4-2.8-4.6-3.4-7.8-2-16.8-3.8-22.6-4.5l-6-.7 3.4 10.7 3.4 10.7-9.6 32.6c-12.3 41.5-12.3 41.5-14.6 37.2-1.3-2.5-13-65-13-69.7 0-5 6.6-19.4 10.5-22.8 5.8-5.1 5.3-7.6-3.9-18.9-4.3-5.3-10.1-11.6-13-14-9.2-7.8-17.8-12.7-12.9-7.4 1.2 1.3 3.5 6.9 5.3 12.5l3.1 10.1-10.7 34.9c-5.8 19.1-11.2 35.6-11.9 36.6-1 1.4-1.4 1.5-2.3.4-.6-.7-4-17.5-7.6-37.3l-6.4-35.9 4-9.8c2.9-6.8 4.9-10.4 6.9-11.8 1.8-1.3 2.9-2.9 2.9-4.4 0-1.3.5-2.7 1-3 1.8-1.1 1-3-1.9-4.8-1.6-.9-7.4-5.9-13-11.2-5.6-5.2-10.7-9.5-11.4-9.4-.7 0-5.5 2.8-10.9 6.1m170.4 2.3c0 1.6.2 2.2.5 1.2.2-.9.2-2.3 0-3-.3-.6-.5.1-.5 1.8m-1 16.5c0 1.9.2 2.7.5 1.7.2-.9.2-2.5 0-3.5-.3-.9-.5-.1-.5 1.8M503 244.5c-.8.2-6.4 1.1-12.4 2.1-7.5 1.2-11.5 2.3-12.8 3.6-2.4 2.4-2.3 4.3.5 6.1 2.3 1.5 3.4 3.7 8.1 15.6l2.5 6.4-9 32.1c-4.9 17.7-9.6 33.7-10.5 35.6-1.5 3.3-1.7 3.4-3 1.6-.7-1-2-5.3-2.9-9.5s-2.4-11.4-3.5-16.1c-1-4.7-3.5-17.1-5.6-27.5l-3.7-19 3.8-8.5c2.1-4.7 5.1-9.6 6.7-11 1.5-1.4 2.8-2.7 2.8-3s-9.9-.5-22-.5h-22v3c0 1.8.8 3.7 1.9 4.7 1.1.9 3.4 6 5.1 11.5l3.3 9.8-8.1 28.8c-4.4 15.9-7.9 29.8-7.7 31 2 10 2.6 19.7 2 30.5l-.7 12.2H512v-62.5l-6.5-28.9-6.4-28.9 1.8-4.1c7.8-16.9 7.6-16.2 2.1-15.1M286.6 360.7c-.6 1.4-.5 1.5.5.6.7-.7 1-1.5.7-1.8s-.9.2-1.2 1.2"/></svg>