<svg xmlns="http://www.w3.org/2000/svg" width="682.667" height="512" version="1.0" viewBox="0 0 512 384"><path d="M173 14c-1.9 1.6-3.5 4-3.6 5.3-.1 1.2-.5 3-.9 4-.4.9-.5 2.7-.2 3.8s.1 3.4-.5 5c-.7 2.2-.7 3.4 0 4.1s.8 1.8.3 2.7c-1 1.8-.8 12.7.2 13.8.4.3.7 1.9.7 3.5s.4 2.7.8 2.4.7.9.6 2.5c-.3 3.9 1.2 4.4 9.2 3.2 4.8-.7 6.4-.6 6.4.3 0 .6-2.5 4.2-5.5 7.9-10.9 13.3-11.2 16.7-1.5 18.5 3 .6 5.8 1.4 6.3 1.9s1.3 6.9 1.8 14.3c.5 7.5 1.3 16.2 1.8 19.4.7 5.5.9 5.7 2 3.4 1-2.2 1.1-1.9.7 2.5-.3 2.7-.8 6.6-1.1 8.5-.4 2.4-.3 2.9.3 1.6 1.2-2.7 2.2-.6 1.1 2.2-.5 1.3-1.3 2-1.9 1.7-.5-.3-1-.2-1 .3s-2.3 2.3-5 4.1c-7.3 4.7-8.6 7.9-9.8 24.5-1.1 14.7-1.5 15.6-6.4 15.6-4 0-7.8 1.7-7.8 3.6 0 .9 1.4 3.9 3 6.6 1.7 2.6 3 5.9 3 7.2s-1.1 7.7-2.5 14.4c-2.3 11.4-3.1 13.3-15.5 38.2l-13.1 26.2 3.4 5.7 3.5 5.6-1.4 8c-2.3 12.4-2.3 20.9-.1 23.3 1.8 2 1.8 2.3-.3 12.4-1.2 5.7-2.4 15.2-2.7 21.3-.4 9.8-.2 11.3 1.6 14.2 2.5 4 6 5 9.5 2.8 1.4-.9 6-7.1 10.2-13.6s7.7-11.9 7.9-11.9c.1 0-1.3 5.7-3.1 12.7-1.9 7.1-3.4 13.6-3.4 14.5 0 1.7 4.2 1.8 74.4 1.8h74.5l-4.8-14-4.8-14.1 3.8-3.7c4.4-4.4 6.2-9.8 7.8-23.2 2-16.2 2-15.9 5-17.4 3.6-1.9 6.1-5.8 6.1-9.6 0-1.6-1.4-6.1-3.1-10l-3.1-6.9 2.1-6.3 2.2-6.3-6.4-14.7c-7.5-16.9-15.4-37.4-19.2-50.1-2.6-8.4-2.6-8.9-1-10.7 1-1.1 2-3.9 2.2-6.3.6-5.3-1.4-8-7.4-9.6-3.4-.9-4-1.6-6-6.8-1.3-3.2-2.8-8-3.3-10.8-.6-2.7-2-6.4-3.1-8.1-2.7-4.4-2.5-16.5.3-14.8.5.4.7-.7.4-2.8-1.4-8.1-2.6-21-2.1-21.8.4-.6 0-1-.9-1s-1.7-1.5-2.1-4.1c-.6-3.3-.3-4.5 1.3-6.2 4.2-4.7 5.6-8.9 5.7-17.3v-8.2l3.2.5c4.9.8 5.1.6 18.7-27.7 4.8-10 5-11.1 3.2-15.3-1.1-2.7-2.4-3.6-8-5.5-10.3-3.7-17.5-5.1-25.3-5.2-10.6 0-16.9 1.6-19.5 5l-2 2.8-2.2-2.4c-3.1-3.7-15.1-6.3-20.1-4.4-2.2.8-3.1.8-3.3 0-.7-1.9-5.5-6-9.6-8.2-6.7-3.4-19-6.6-28.2-7.2-8.8-.7-8.9-.6-12.4 2.4m99.2 90.2c-.7.7-1.2.8-1.2.2s.3-1.4.7-1.7c.3-.4.9-.5 1.2-.2.2.3-.1 1.1-.7 1.7m-76.1 134c-.1 15-.2 28.7-.1 30.4 0 1.9-.7 3.7-2.1 5l-2.2 1.9.7-5.5c.8-6.1 2.5-41.2 2.5-52.9.1-4.1.4-7.1.7-6.8.4.4.6 12.9.5 27.9"/><path d="M148.1 382.6c0 1.1.3 1.4.6.6.3-.7.2-1.6-.1-1.9-.3-.4-.6.2-.5 1.3"/></svg>