<svg xmlns="http://www.w3.org/2000/svg" width="682.667" height="512" version="1.0" viewBox="0 0 512 384"><path d="M0 96.6c0 91.5.1 96.5 1.8 96 .9-.3 6.5-1.7 12.4-3.1 11.7-2.8 35.4-10.6 45.8-15 3.6-1.5 14.5-6.7 24.2-11.6 21-10.5 23.5-11 28.9-5.3 1.8 2 11.3 10.2 20.9 18.2s25.6 22.8 35.5 32.8c19.5 19.7 24.4 23.9 32 27.7 11.6 5.7 30.2 8.6 44 6.8 4.4-.6 10.1-.9 12.5-.6l4.5.5 7.4-14.9c11.2-22.7 18-29.1 40.4-37.6 9.7-3.7 11.5-4.9 7.7-5.2-1.8-.2-10.7-5-17.2-9.5-3.8-2.5-4.4-2.3-6.2 2.2-2.2 5.5-3.6 5-3.6-1.1v-5.2l-3.5 4.6c-2 2.6-4.5 5.2-5.6 5.8-1.9 1-2 .9-.9-1.1 2.4-4.5 5-13.4 4.4-15.3-.5-1.6-1-1.3-4 2.2-1.9 2.2-4.8 5-6.5 6.1l-2.9 2.1 3-4.8c4.4-7.2 4.8-10.3 1.4-13.3-1.6-1.4-2.3-1.8-1.7-.9.7.8 1 2.5.7 3.6-.8 2.8-4.3 2.6-6.7-.4-1-1.3-2.7-2.7-3.7-3.3-1.6-.8-2.2.5-6.3 12.8-2.5 7.5-4.8 15.8-5.2 18.4-.4 2.7-1.1 4.8-1.6 4.8s-.9 1-.9 2.1c0 1.8-.3 1.9-1.5.9s-1.6-.8-2.6 1.2c-1.7 3.9-3.9 3.1-4-1.6-.1-3.3-.3-2.9-1 2.3-.4 3.6-1.5 7.1-2.4 8-1.3 1.4-1.5 1.4-1.5-.2 0-.9-.4-1.7-1-1.7-.5 0-1 .7-1 1.5s-.4 1.5-1 1.5c-.5 0-1-.9-1-2 0-2.5-2.9-11.2-4.2-12.5-.7-.7-.8.5-.4 3.5l.7 4.5-2.6-4c-8.7-13.8-10-31.9-3.5-52.7 1-3.1 1.6-5.9 1.4-6.1s-2.8.4-5.7 1.4c-2.8.9-8.8 2-13.3 2.4-6.6.5-8.2.4-9.3-.9-1-1.2-.6-2.5 2.8-7.5 4.5-6.5 8.3-9.5 20.9-16.1 11.4-6.1 14.8-9.1 18.1-16.5 1.6-3.4 3.4-6.5 4-6.9 2.2-1.4.9-2.4-7.7-6.1-17.8-7.6-21.5-10.7-19.7-16.7 1.5-4.5 11.9-19 16.9-23.4 6.1-5.3 18.7-11.7 27.5-14 5.4-1.3 7.1-1.4 10.3-.3 2.1.7 4.3 1.8 4.9 2.5.8 1 2.1.7 6.2-1.1 8.8-4 16.7-5.7 29.2-6.2 14.4-.6 24.1 1 41.2 6.7 23.5 7.8 30.7 16.9 32.2 40.4.8 10.8.8 10.9 4.2 13.7 5.2 4.3 11.7 7.5 20.8 10.4 8 2.6 8.3 2.7 7.6 5.2-.9 3.8-6.5 11.3-9.7 12.9-3.3 1.7-5.2 1.8-9.5.2-2.8-1-3.6-1-5 .5-1.6 1.6-1.4 2 3.2 6.7l4.9 5h-6.1c-3.4 0-6.5-.4-6.8-1-1.2-2-4.3-1-4.9 1.6-.5 1.8.1 3.9 1.9 7.2 1.8 3.2 2.2 4.8 1.4 5.3-.7.4-.8 1.2-.3 2 .9 1.5 3.3 9.9 2.8 9.9-.2 0-1.9-1.4-3.8-3l-3.4-3 .5 4c.6 4.6.2 4.8-3.8 1.9l-2.9-2v3.7c0 3.6 0 3.7-2 1.9s-2-1.8-1.4 2.8c.8 5.7-1 6.4-3.1 1.3-2.3-5.5-3.5-5.3-3.5.4 0 3.2-.4 4.9-1 4.5-.5-.3-1 .1-1 .9 0 .9-.4 1.6-1 1.6-.5 0-1-.9-1-2s-.4-2-1-2c-.5 0-1 .7-1 1.6 0 2.2-2.7 4.8-3.3 3.1-.2-.7-.4-.6-.3.3.1.8 1.7 1.9 3.6 2.4s3.6 1 3.7 1.1c.3.1-1.1 5.1-2.2 7.6-.8 2.2 3.2 4.6 16.7 10.2 16.2 6.7 19.7 9.7 25.8 22.2 2.8 5.7 6.1 12.9 7.4 16.2l2.4 5.8 9.7.3c6.2.2 12.9-.3 18.4-1.4 6.6-1.3 13-1.7 27.1-1.5 20.9.3 27.3-.8 37.5-6.2l6-3.2.3-112.3L512 0H0z"/><path d="M91.6 176.6c-5 3-9.2 5.6-9.4 5.9-.2.2.5 1.6 1.7 3.1 2 2.5 2 2.9.5 5.1-1.5 2.4-1.4 2.6 1.8 5.7 2.7 2.6 3.7 5 5.6 12.2 1.2 4.9 2.2 9.7 2.2 10.7 0 1.9-20.3 58.7-24.2 67.9-2.1 4.9-4.3 6.2-5.2 3-.5-1.7-2.2-13.9-7.2-52.7l-2.7-21 4.7-9c2.6-5 6.2-10.2 7.9-11.7 2.1-1.9 2.8-3.1 2.1-3.8s-3.4.1-8.5 2.4c-8.9 4.1-28.8 11.1-34.4 12-3.5.6-4.2 1.1-5.2 4.3-1 3.4-.9 3.9 1.5 6.3 1.9 1.9 3.5 5.6 5.5 12.7l2.7 10-3.9 10.4c-8.4 22.4-22.4 58.5-23.7 61.1-.8 1.6-1.9 2.8-2.4 2.8-.6 0-1 12.9-1 35v35h254v-5.3c0-7.7 2.7-24 5.5-33.7 1.5-5.2 3.4-17 5-30.5 1.4-12.1 3.2-26.1 4-31 2-12.1 1.9-12.5-.8-12.5-1.3 0-3.2-.6-4.3-1.4-1.8-1.4-1.8-1.6 1.2-4.8 6.8-7.4 7.6-6.9-11-6.6-9.1.2-16.6.5-16.6.8s1.4 1.8 3 3.4c2.3 2.2 3.4 4.8 5.1 12.4l2.2 9.6-5.5 16c-10.8 31.1-16.7 47.5-17.8 49.5-1.3 2.6-2.7 2.7-3.4.3-.8-2.5-9.6-64.1-9.6-67.3 0-3.7 7.7-19 11.1-21.9 6.2-5.3.5-8.6-21.6-12.4-11.2-2-11.1-2-9.3.1.9 1 2.6 6.1 3.8 11.4l2.3 9.5-3.6 10.5c-11.5 33.9-19 54.7-20.4 56.9l-1.6 2.4-1.3-2.9c-.7-1.7-3.4-18.2-6-36.7l-4.7-33.8 4.6-9.4c3.3-6.8 5.3-9.9 7.6-11.2 2-1.2 3.1-2.6 3.1-4 0-1.2.2-2.9.5-3.7.8-1.8-14.7-21.1-21.7-26.9-10.4-8.7-14.5-10.6-10-4.7 1 1.3 2.8 6.7 4.1 12l2.3 9.5-5.5 15.5c-3.1 8.5-8.3 23.1-11.6 32.6-7.8 22.3-9.8 26.2-11.4 21.8-.3-.7-1.8-10.3-3.2-21.2s-3.5-26.2-4.5-33.9c-1.1-7.8-2-15.3-2-16.8 0-4.1 8.3-19.8 11.9-22.4 1.7-1.3 2.9-2.6 2.7-3.1-.3-.4.1-1.9.8-3.3 1.3-2.5 1.2-2.8-2.8-5.6-2.2-1.7-8.1-6.9-13-11.6s-9.4-8.6-10-8.5c-.6 0-5.1 2.5-10 5.5M0 213.5v4.6l3-2.1c2.4-1.7 2.8-2.5 2.1-4.3-.5-1.2-1.8-2.3-3-2.5-1.9-.3-2.1.1-2.1 4.3m497 28.6c-13 1.9-17.4 3.4-19 6.4-1.1 2.1-1.2 2.9-.3 3.2 2 .7 5 6.4 8.2 15.3l3 8.5-6.4 21c-3.5 11.6-8 26.3-9.9 32.8-3.4 11.3-5.1 15.7-6.1 15.7-1.7 0-3.4-7.6-10.6-47-1.1-6.3-2.7-14.7-3.6-18.6l-1.4-7.2 4.5-9c2.5-4.9 5.7-9.9 7.2-11.1s2.5-2.2 2.3-2.4c-.2-.1-10-.1-21.6.1l-21.3.3v2.5c0 1.4.8 3.6 1.7 5.1 1.8 2.7 7.3 18.7 7.3 21.3 0 .8-4.2 15-9.3 31.6-8.1 26.2-9.1 30.6-8.4 34 .4 2.1.7 11.9.5 21.7l-.3 17.7H512v-60.2l-5-25.6c-2.8-14.2-5.5-27.6-6-29.9-1.6-6.9-1.2-9.9 2.9-18.8l4-8.5-2.7.1c-1.5.1-5.2.5-8.2 1"/></svg>