<svg xmlns="http://www.w3.org/2000/svg" width="682.667" height="512" version="1.0" viewBox="0 0 512 384"><path d="M0 95v95h3.1c3.9 0 28.3-6.2 42.4-10.7 13.8-4.5 30.7-11.7 45.3-19.3 12.7-6.7 19.7-9.4 21.6-8.3.8.5 5.6 4.7 10.7 9.4 5.2 4.8 13.5 12 18.4 16.1 11.2 9.4 22.7 20.5 34 32.8 16.8 18.4 27.2 26 41.3 29.9 10.1 2.8 19 3.5 33.7 2.6l12.6-.7 2.4-5.4c5-11.4 14-26 18.8-30.7 6.9-6.7 11.4-9.4 24.6-14.8 10.8-4.3 14.5-6.8 12.8-8.5-.4-.4-1.3-.2-1.9.4-1.8 1.8-5.7 1.4-9-.9-1.6-1.2-5-3.2-7.6-4.6s-5.7-3.4-6.9-4.5l-2.2-2-2 4.1c-2.8 5.4-4.3 5.3-3.5-.2l.7-4.2-4.1 3.7c-3.7 3.4-6.2 4.7-6.2 3.4 0-.3 1.3-2.6 3-5.3 3.1-5.1 4.8-10.3 3.4-10.3-.5 0-3.3 2.3-6.3 5-7.1 6.6-7.7 6.5-2.6-.5 3.8-5.2 3.7-6.2-.3-8.6-5-3.1-8.6-3.5-7.9-.8.6 2.3-1 2.5-3.4.3-1.7-1.5-2.1-1-6.3 7.9-2.5 5.3-5.5 13-6.7 17.1-2 7-3.9 9.2-3.9 4.5 0-1-.4-1.9-1-1.9-.5 0-1 .9-1 1.9 0 1.1-1.1 3.2-2.5 4.7s-2.8 3.8-3.1 5c-.5 1.9-3.1 3.4-6.1 3.5-.5 0-1.1-2-1.5-4.3-1.9-11.2-2.5-13.3-3.3-11.5-.4 1-.5 3.6-.2 5.7.3 2.2.3 4 .1 4-.8 0-5.2-9.7-6.8-14.8-1.1-3.7-1.4-7.2-.9-11.3.4-3.9.2-5.9-.5-5.9-.6 0 0-3.3 1.5-8.2 1.3-4.4 2.8-10.2 3.3-12.7.4-2.5 1.1-5.5 1.5-6.5.7-1.7.5-1.8-2.1-1.2-4.8 1-21 1.9-23.7 1.3l-2.5-.7 1.4-6.7c1.1-5.5 2-7.3 4.6-9.6 1.8-1.5 3.7-2.7 4.2-2.7 2.7 0 20.3-9.6 27.3-14.9C245 93.9 247 91 247 85.7c0-3-.6-3.5-7.6-7.2-4.2-2.2-8.2-5.2-9.1-6.6-1.7-2.8-1.5-3.4 5.8-17.1 6.9-12.9 19.8-21.5 38.7-25.9 8.1-1.9 9.4-2 11.3-.7 1.9 1.2 3 1.2 8.9-.3 21-5.4 42.1-2.6 65.5 8.5 11.5 5.5 16.9 9.5 20.6 15.4 4 6.4 4.9 9.8 5.8 23.7l.9 12 4.3 3.8c5.4 4.8 11.7 8.1 19.3 10 3.1.9 6.9 2.3 8.3 3.2 2.6 1.7 2.6 1.8.6 2.9-1.2.6-3.9 3.2-6 5.9-6.3 7.6-10 9.9-15 9.4-2.4-.2-4.3-.1-4.3.4 0 .4 2 2.4 4.5 4.5 5.3 4.3 4.6 5.8-2.4 4.8-2.8-.4-4.6-.3-5 .5-.6.8-1.5.9-3.4.2-3.2-1.3-3.4-.3-.6 3.3 1.7 2.2 1.8 2.6.4 2.6s-1.4.3.1 3.1l1.6 3.2-3-.5-2.9-.4 2.3 5.8c1.3 3.2 2.4 6 2.4 6.4s-1.6-.6-3.5-2l-3.5-2.7.6 3.1c.4 1.6.3 3 0 3-2.1 0-6.9-3.6-11.5-8.5-5.4-6-6.1-5.6-3.5 2.1 1.6 4.6 2.1 13.5.9 15.4-.3.6-1.5.6-3 0s-2.7-.6-3 0c-.4.6-1.5 1-2.6 1-1 0-1.9.4-1.9 1 0 1.4-1.8 1.2-2.3-.3-.2-.6-.2-.1 0 1.3.6 3.2.7 3.3 4.3 3.3 3.5 0 3.5.1 1.5 5.6l-1.4 4.1 3.2 2.4c1.8 1.3 7 3.9 11.7 5.7 9.2 3.5 14.9 6.6 19.4 10.8 2.6 2.4 11.9 19.8 15.9 30l1.8 4.4 12.7-.6c7-.3 16.5-1.3 21.1-2.3 7.4-1.5 9.6-1.5 18.2-.4 14.2 1.8 29.2-.6 41.2-6.6l6.7-3.4V0H0z"/><path d="M267 151.8c.6 1.3 1.4 2.1 1.8 1.8.3-.4-.2-1.4-1.2-2.4-1.8-1.6-1.8-1.6-.6.6m-163 18c-.9.4-5 2.9-9.2 5.5l-7.6 4.8 1.6 2.9c1.4 2.4 1.4 3.2.3 5.2-1.1 2.2-1 2.7 1.6 5.5 2.2 2.3 3.5 5.5 5.1 12.2 1.2 5 2.2 9.9 2.2 10.8 0 3.4-26.3 70-28.4 72.2-1.3 1.2-1.6 1.1-2.5-1-.6-1.3-2.2-13.9-3.6-27.9s-3-30-3.6-35.5c-.5-5.5-.6-10.9-.2-12 2.2-5.4 10.7-18.5 12.9-20 1.8-1.2 2.3-2 1.6-2.7s-4.4.4-11.9 3.5c-11.2 4.7-24.1 9-30.6 10.2-2.2.4-3.7 1.3-3.7 2.1s-.5 2.3-1.2 3.4c-1.1 1.6-.8 2.3 1.4 4.7 2 2 3.4 5.6 5.3 13l2.5 10.1-4.4 10.4C29.2 252.8 24 265.4 20 275 9.3 301 6.9 306.3 5.2 308.2c-2.2 2.5-3 2.2-4.1-1.5-.6-2.1-.9 10.2-1 37L0 384h126c100.1 0 126-.3 126-1.3.1-5 4.5-29 7-37.2 1.7-5.9 3.6-15.8 4.5-24 .9-7.7 2.8-22 4.2-31.9 2.7-19.1 2.6-19.5-2.4-19.6-3.4 0-3.8-2-1-4.4 2.3-1.9 4.7-5.6 4.7-7.1 0-.3-6.5-.5-14.5-.3s-14.5.6-14.5 1c0 .5.4.8 1 .8 1.9 0 4.1 4.9 6.4 14.4l2.3 9.5-4.9 13.3c-2.7 7.3-6.8 18-9 23.8s-5 13.5-6.3 17.1c-2.3 6.7-5.2 12.9-6 12.9-1.5 0-2.8-6.2-5-23.7-1.3-10.9-3.2-26-4.1-33.5l-1.7-13.6 4.4-8.7c2.6-5.2 5.7-9.7 7.6-11.2 6.6-5.1.6-8.6-21.6-12.7-10.3-2-10.7-2-9.1-.1.7.8 2.3 5.8 3.6 11.1l2.4 9.6-5.9 16.2c-3.3 8.8-8.7 23.7-12.1 33.1-6.2 16.8-7.4 19.5-9.1 19.5-1.2 0-2.6-6.2-3.9-18-.7-5.8-2.3-19.2-3.6-29.8s-2.4-20.8-2.4-22.8c0-5.1 8-20.5 11.8-22.5 2.1-1.2 3.1-2.6 3.5-5.4.6-3.5.1-4.4-6.1-12.4-7.6-9.8-16.9-19.2-22.5-22.8-4.5-2.8-6-2.3-2.9 1 1.4 1.4 2.8 5.6 4.2 12.1l2.2 9.9-2.6 6.6c-1.4 3.6-7.1 18.7-12.7 33.6-5.6 14.8-10.9 27.8-11.9 28.9-1.7 1.8-1.8 1.7-2.8-1.5-.6-1.9-1.5-8.6-2.2-14.9-.6-6.3-2.3-21.6-3.6-34l-2.6-22.5 4.8-9.6c3-6.2 5.6-10.2 7.3-11.2 1.5-.8 3.3-3.2 4-5.3l1.3-3.7-6.8-6.1c-3.8-3.4-9.4-8.7-12.5-11.9-5.6-5.8-6.2-6.1-8.9-4.9M3.8 205.7l-3.8.4v18.3l3.1-5c1.7-2.7 3.6-5.2 4.3-5.6 4.3-2.6 4.7-3.3 3.7-6.1-.6-1.5-1.6-2.6-2.3-2.5s-3 .3-5 .5m498.7 34c-1.6.2-7.6 1.3-13.1 2.4-8.9 1.8-10.3 2.4-11.3 4.6s-.8 2.9 1.7 5.7c1.5 1.8 4.3 7.4 6 12.5l3.3 9.2-2 6.2c-1.1 3.4-5.5 17.7-9.9 31.7-10.4 33.2-10.9 34.3-13.1 27.7-1.2-3.7-12.1-65-12.1-68.3 0-3.7 7.6-18 11.2-20.9l3.3-2.7-10.9.6c-6 .3-15.7.6-21.6.6h-10.8l-.5 2.7c-.4 1.9.1 3.4 1.3 4.8 1 1.1 3.2 6.3 4.9 11.6l3.1 9.6-9.6 30.4-9.6 30.4-.2 22.7-.2 22.8H512v-30.8c0-16.9-.4-32.3-.9-34.2s-3.3-16.5-6.2-32.3l-5.3-28.8 4.7-9.5c5-10.1 5.1-9.6-1.8-8.7"/></svg>