<svg xmlns="http://www.w3.org/2000/svg" width="682.667" height="512" version="1.0" viewBox="0 0 512 384"><path d="M0 94.4v94.3l11.8-2.2c32.8-6.3 56.7-14.6 86.5-29.9 15.5-7.9 18.4-8.3 23-3 1.8 2 7.5 7.3 12.7 11.7 10.4 8.9 24.6 22.4 34.9 33.2 33.4 35 36.5 37.3 56.6 42 3.9 1 11.6 1.5 22 1.5l16-.1 3-6.6c4.5-10.2 13.2-24.3 17.8-29.2 6-6.3 14.1-11.2 26.2-16.1 5.8-2.3 10.8-4.7 11.1-5.2s.3-2.1-.1-3.6c-.7-2.5-.8-2.5-1.5-.7-.6 1.6-1.4 1.9-4.6 1.6-3.7-.3-5.4-1.1-17.3-8.8l-5-3.1-2.7 3.5c-3.1 4-4.1 3.7-2.5-.8.6-1.8.9-3.4.7-3.7-.3-.2-2.6 1.3-5.1 3.3-5.3 4.4-6.8 4.2-2.9-.4 1.5-1.9 2.8-4.7 3-6.7l.2-3.4-3 2.2c-1.6 1.3-4 3-5.2 3.8-2.4 1.7-2.5 1.8 3.1-5.5 2.5-3.3 5.5-10 3.6-8.1-.3.3-2.1-.6-3.9-2.1-3.8-2.8-4.5-2.4-1.4.9 1.1 1.2 2 2.5 2 2.9 0 1-6.1-1.3-9-3.4-2-1.4-2.7-1.5-3.3-.5-6.2 10.4-8.5 14.5-11.4 21.3-3.6 8.2-7.1 13.3-6 8.7.8-3.6-.9-1.7-4.8 5.4-2 3.6-3.9 6.3-4.2 6s-1.9.4-3.5 1.6l-3 2.1.7-3.4c.8-3.9.8-3.4.6-7.6-.1-2.5-.5-3.1-2.1-3-1.4.1-2 .8-2 2.4 0 3.6-1.8 2.7-3-1.4-1.7-6.3-2.2-13.5-1.2-20.1.7-5.2.6-6.4-.6-7.1-1.3-.8-1.3-1.4.2-5.1 1.6-4.1 1.6-4.4-.2-6.4-1.1-1.1-3-4.1-4.2-6.5-1.9-3.7-2.1-5-1.2-7.8 1.1-3.6 1.4-3.4-7.1-4.8-6.3-1-9.1-7.9-5.8-14.3 1.7-3.4 3.1-4.3 10.8-7.5 4.9-2.1 12.6-6.1 17.1-9 4.4-2.8 8.8-5.7 9.7-6.2 1-.7 1.8-3.6 2.5-8.5 1.1-8.8 4.2-19 7.3-24.1 1.2-2 3.7-6.2 5.5-9.3 3.6-6 10.7-13.6 12.8-13.6.7 0 1.4-.4 1.6-.8.2-.5 3.4-2.1 7.3-3.7 8.5-3.4 27.1-6.5 38.6-6.5 19.9 0 46.9 11.1 60.4 24.7 7 7.1 8.8 13.1 8.9 28.4.1 14.5-.1 14.1 9.9 21.5 3.5 2.6 8.6 5.2 13 6.6 6.7 2 10.7 4.2 10.7 5.8 0 .3-1.9 1.5-4.2 2.5-2.4 1-7.9 4.8-12.4 8.4l-8 6.5 3.3 2.9c3.7 3.3 3.4 5.1-.8 4.5-1.6-.3-3 0-3.2.5-.2.6-2.2.4-5.1-.6l-4.7-1.6 3.1 3.9c3.3 4.1 3 4.7-1.5 3l-2.7-1 2.1 3.5c1.2 2 2.1 3.8 2.1 3.9 0 .2-1.8 0-4-.4s-4-.6-4-.5c0 .2 1.1 2.7 2.5 5.6 1.3 2.9 2.2 5.5 2 5.7s-1.3-.1-2.4-.8c-1.8-.9-2.1-.8-2.1 1s-.4 2-2.2 1.4c-1.3-.4-4-1.8-6-3.1L372 153v2.6c0 2-.4 2.5-1.6 2-1.4-.5-1.5 0-.9 4 .3 2.6.9 5.3 1.2 6.1.9 2.4-5.7 1.2-7.4-1.4-.9-1.3-2-2.3-2.7-2.3-.6 0-1.9-1.2-2.7-2.6-1.6-2.6-1.6-2.6-2.3 3.6-.8 6.9-.2 8 4.7 8 3.2 0 3.1-.4 1.2 5.1-1.6 4.4-1.6 4.4 1.2 6.6 1.5 1.3 6.4 3.7 10.8 5.4 8.9 3.4 14.7 6.5 19.5 10.6 3 2.5 9.8 15.1 15.9 29.2l2.3 5.4 13.8-.7c8.4-.4 16.8-1.4 21.5-2.6 6.5-1.7 8.8-1.8 13.9-1 15.2 2.5 31.9.3 44.4-5.6l7.2-3.5V0H0z"/><path d="M280.6 151.3c.3 1 .9 1.5 1.2 1.2s0-1.1-.7-1.8c-1-.9-1.1-.8-.5.6m-173.1 16.9c-1.1.6-5.1 3.1-8.9 5.5-5 3.3-6.5 4.8-5.7 5.6 1.4 1.4 1.4 7.4 0 8.3-.7.4.1 1.8 2 3.8 3.1 3.2 5.6 10.7 6.7 20.1.6 5.4 2 1.6-21.4 57.4-9.2 21.9-10.8 22.3-12.2 3-.5-6.8-1.6-21.2-2.5-31.9-.8-10.7-1.7-21.7-1.9-24.3-.3-4.3.2-5.7 5.1-14 3-5.1 6-9.5 6.6-9.9 3.4-2 4.6-3.4 3.8-4.6-.6-1-2.8-.4-9.9 2.7-8.5 3.8-24.9 9.2-31.7 10.6-2.3.4-3.4 1.4-4.3 3.7-1 2.7-.8 3.4 1.3 6.2 1.5 2 3.2 6.7 4.5 13l2.2 9.8-2.1 4.8c-1.1 2.6-3.4 7.6-5 11.1s-4.1 9.1-5.6 12.4-5.9 13-9.7 21.5C11.5 299.4 7.5 306.4 6 305.5c-1.6-1-2.8-18-4.6-62.5l-.6-14.5 5.1-8c2.9-4.4 6.8-9.4 8.6-11 2.7-2.4 3.3-3.5 2.8-5.4-.6-2.2-.8-2.3-7.2-1.6-3.6.3-7.4.9-8.3 1.1-1.7.5-1.8 5.7-1.8 90.5V384h250.5l2.3-13.8c1.3-7.5 3.7-17.6 5.3-22.4 2.2-6.4 3.7-14.7 5.9-32 1.7-12.8 3.9-28.2 4.9-34.1s1.5-10.9 1.2-11.1-2.3-.6-4.3-1c-4.2-.8-4.8-2-1.7-3.6 1.7-1 5.9-6.6 5.9-8 0-.3-6.3-.5-14-.5s-14 .3-14 .7c0 .3 1.2 1.5 2.6 2.5 2.1 1.6 3 3.6 4.5 10.4 1 4.6 1.9 9.8 1.9 11.6 0 1.7-2.5 9.6-5.6 17.5s-7.6 19.5-10.1 25.8-5.4 13.8-6.4 16.7c-4.1 10.8-6 9.1-7.8-6.7-2.1-19.7-5.1-47.5-5.6-52.3-.5-4.3-.1-5.8 3.5-12.5 2.3-4.3 5.7-9.2 7.5-10.9 2.9-2.8 3.3-3.7 2.6-5.6-.8-1.9-2.6-2.9-10.3-5-8-2.2-19.5-4.7-21.9-4.7-.4 0-.2 1.2.6 2.6.7 1.5 2.1 6.7 3 11.8l1.7 9.1-12.5 32.4c-6.9 17.8-13.3 33.1-14.1 33.9-1.4 1.4-1.6 1.3-2.4-.9-.5-1.3-1.9-12.3-3.1-24.4-1.3-12.1-2.9-27.6-3.7-34.3l-1.3-12.4 4.5-8.9c3.3-6.7 5.3-9.5 7.8-11s3.5-2.8 3.9-5.6c.6-3.4.1-4.4-6.2-12.8-7-9.3-17.9-20.5-23.1-23.8-3.5-2.2-3.7-1.7-1.1 2.1 1.1 1.5 2.7 7 3.7 12.4l1.7 9.6-13.2 33.4c-7.4 18.3-14 34.1-14.9 35.1-1.5 1.7-1.6 1.7-2.6 0-.9-1.6-2.7-20.4-5.7-58.3l-1.3-15.6 5-9.3c3.1-5.8 5.8-9.8 7.5-10.6 1.5-.8 3-2.8 3.7-5.1l1.1-3.7-7-6.5c-3.9-3.6-9.3-8.9-12.1-11.9-5.4-5.6-6.1-5.9-9.3-4.1M499 238.7c-12.3 2-17.6 3.6-19.7 6.1l-2.2 2.6 2.8 3.1c1.5 1.7 4.2 7.4 6 12.6l3.3 9.4-10.2 32c-5.6 17.6-10.9 33.1-11.8 34.4l-1.5 2.4-1.2-2.4c-.7-1.3-3.8-17.7-7-36.3l-5.7-34 4.8-9.2c2.7-5.2 5.9-9.9 7.2-10.5 1.2-.7 2.2-1.7 2.2-2.2s-1-.6-2.2-.3c-1.3.4-11 1-21.5 1.3l-19.3.6v2.4c0 1.4.9 3.6 2 5 1.9 2.5 7 17.5 7 20.9 0 .9-4.7 16.2-10.4 33.8l-10.4 32.1-.4 20.7-.4 20.8H512v-30.6c0-16.8-.4-32.4-.9-34.7-.6-2.3-1.9-9.4-3-15.7s-3.4-19.4-5.1-29.1l-3.2-17.6 4.1-8.1c2.3-4.5 4.1-8.6 4.1-9.2 0-1-4-1.1-9-.3m-92 12.8c-1.7 2.1-.8 2.8 1.5 1.1 1.1-.8 1.4-1.5.8-1.9s-1.6 0-2.3.8"/></svg>