<svg xmlns="http://www.w3.org/2000/svg" width="682.667" height="512" version="1.0" viewBox="0 0 512 384"><path d="M0 93.1v93.1l5.2-.7c11-1.4 34.9-6.6 46.3-10 16.7-5.1 31.5-11 49.4-19.9 19.1-9.5 20.1-9.5 26.7-2.1 2.7 3.1 11.8 11.7 20.2 19.1 8.3 7.5 20 19 25.9 25.7 28.3 32.1 36.9 38.4 58.3 42.3 7.9 1.4 23.6 1.8 28.9.8 2.7-.6 3.6-1.6 6-6.8 4-8.8 13.7-24.5 17.9-29 4.8-5 13.5-10.7 20.9-13.6 13.6-5.4 16.3-7 16.3-9.7 0-1.8-.4-2.4-1.5-1.9q-1.5.6-1.5-1.5c0-1.7-.2-1.8-2.1-.7-6.1 3.7-5.8 3.7-9.6.2-2-1.9-4.6-3.7-5.7-4-1.1-.4-3.3-1.6-4.9-2.8l-2.8-2.1-3.4 4c-3.9 4.5-4.1 4.4-2-1.4.8-2.2 1.2-4.1.9-4.1s-3.3 1.9-6.7 4.1l-6.2 4.2 4.3-4.4c4.7-5 5.1-6.5 2.1-7.4-1.4-.5-3.1 0-5.2 1.5-3.5 2.7-2.7 1 2.3-4.3 4-4.4 4.8-6.1 4.9-9.9.1-2.8-2.7-6.6-3.8-5.1-.3.4-1.3.8-2.1.8s-1.6.7-1.6 1.5c-.1.8-.2 2.1-.3 2.8 0 .7-.5 1.1-1 .8s-2.6 2.1-4.7 5.4c-13.3 20.5-24 33.6-28 34.4-1.1.3-2.7.7-3.6 1.1-2.2.9-2.4-1.2-.4-3.4.8-.9 1.8-2.9 2.2-4.5l.7-3-2.9 2.3c-2.5 2-2.9 2.1-3.2.7-.2-.9-1.1-1.5-2-1.4-1.1.2-1.6-.2-1.3-1.2.4-1.7.8-6.3 1.6-19.5s1.1-14.5 3.6-20.3l2.3-5.2-2.6-2.7-2.6-2.6-4.6 2.3c-2.5 1.2-4.8 2.6-5.2 3.1-1.7 2.7-4.9-2.1-6-9-.6-3.7-.3-4.6 2.1-7.1l2.8-2.9-3.2-3.7c-1.8-2-4-5.1-4.8-6.9-1.5-3.1-1.5-3.5.3-6 1.2-1.5 8.1-5.8 16.9-10.4l15-7.8 1.1-6.9c2.3-13.4 9.1-25.8 20.5-37.4 8.8-8.9 18-14.1 29.4-16.5 9.5-2 34.9-2 43.3 0 13.7 3.2 34.3 15.2 42.7 24.8 7.1 8.1 8.5 13.1 8.5 30.2v14.3l5.8 5.2c3.3 3 9.5 7 14.9 9.6l9.2 4.4-1.1 3c-1.3 4-2.2 4.4-5.6 2.6-3.1-1.6-4.2-1.2-10.5 3.7-3.6 2.8-3.7 3-2.1 4.8 1.9 2.1 1.6 2.3-1.9 1-4.4-1.7-3.8.1 1.5 4.9l5.2 4.7-4.2.7c-3 .4-5.1.2-7.3-.9-4.6-2.4-5.3-1.4-1.8 2.8 1.7 2 2.9 3.7 2.7 3.7s-1.8-.4-3.5-.9l-3.3-1 .5 3.5c.5 3.8.5 3.7-4.7 2.5-2.1-.5-3.8-.7-3.8-.5 0 .3 1.2 2.7 2.6 5.5 2.5 5 2.6 7.5.2 5.1-1.6-1.6-3.1-1.5-2.5.2.8 2-5.1 2.7-8.7 1-1.6-.8-3-1.3-3.2-1.2-.1.2.2 2.3.6 4.8 1.7 8.7.5 10.3-4 5.5-1.8-1.9-2.6-2.2-3.2-1.3-.5 1-1.2.7-2.3-1-.9-1.2-2-2-2.4-1.8-.4.3-2-.9-3.7-2.6l-2.9-3.2-.3 2.9c-.2 1.6-.1 4.8.3 7.2.6 4.1.8 4.3 4.5 4.9l3.8.6-1.4 4c-.8 2.2-1.4 4.4-1.4 4.8 0 1.3 7.3 5.6 13.3 7.8 17.5 6.6 21.1 10.1 29.9 29.2l6.7 14.5 12.8-.1c7.4-.1 16.2-.8 20.8-1.7 5.7-1.2 13-1.6 25.5-1.5 19.5.1 25.3-.9 36.7-6.4l6.3-3.1V0H0z"/><path d="M105.4 170.3c-8.6 4.9-9.1 5.4-7.8 7.2 1.7 2.3 1.8 5.7.2 7.3-.9.9-.5 1.9 1.9 4.4 2.4 2.6 3.5 5 4.7 11.2.9 4.3 1.6 9.4 1.6 11.3 0 2.3-3.3 10.9-9.1 24.2-5.1 11.3-11.4 25.5-14 31.5-8.8 19.8-10.5 20.4-11.4 4.2-.5-8.4-2-34.1-3.1-53.1l-.6-11 5.7-8.5c3.1-4.7 7-9.7 8.8-11.2 5-4.2 1.4-4.4-7.9-.5-8.9 3.8-21.3 8-29.1 9.7-3.9.9-5.3 1.7-5.3 2.9 0 .9-.5 2.2-1.2 2.9-.9.9-.6 1.7 1.2 3.7 2.3 2.4 5.8 15.4 5.9 21.8.1 1.6-6.3 16.2-15 34.5C16.7 292.5 12.1 301 10 301c-1.4 0-1.9-6.6-2.5-36.5-.3-16-.8-31.1-1.1-33.7-.6-4.5-.3-5.1 6.1-14.6 3.7-5.5 7.7-10.4 9.1-11.1 2.3-1 3.4-5.3 1.6-6.5-.4-.2-5.3.2-10.7 1-5.5.7-10.6 1.4-11.2 1.4-1 0-1.3 19-1.3 91.5V384h250v-2.1c0-4.5 5.3-27.7 8.1-35.3 2.2-6 3.6-13.5 5.9-31 1.6-12.7 3.9-28.1 4.9-34.1 1-6.1 1.7-11.3 1.4-11.8-.2-.4-1.7-.6-3.1-.5-4.5.3-5.6-1.1-2.7-3.4 2.3-1.8 5.5-6.7 5.5-8.4 0-.4-4.7-.4-10.4 0-6.7.5-11.2.3-12.4-.3-3.2-1.7-3.4.1-.3 3.3 2.3 2.5 3.3 5.1 4.9 12.8l2.1 9.7-3.8 9.8c-9.1 23.4-21.4 53.9-22.3 55-1.4 1.8-2.5 1.6-3.2-.4-.4-.9-2.2-16.9-4.1-35.5L217 278l4.5-8.3c2.5-4.5 5.9-9.4 7.6-10.9 6-5.1 3.4-7.3-14.8-11.9-12.8-3.2-16.1-3.6-14.5-1.7.5.7 1.9 5.7 3.1 11l2.1 9.7-12.6 32.3c-6.9 17.8-13.4 33.2-14.4 34.2-1.9 1.9-1.9 1.9-2.9-.5-.6-1.3-2.2-15.2-3.6-30.9-1.5-15.7-2.9-31-3.2-34.1-.5-5.3-.3-6.2 4.3-14.9 3.7-7 5.7-9.6 8-10.8 2.6-1.2 3.3-2.2 3.7-5.5.6-4.5 1.4-3.2-12.5-20.8-6.5-8.3-17.2-17.9-18.5-16.5-.3.3.1 1.4 1 2.4 1.5 1.6 4.7 16.5 4.7 21.6 0 1.9-2.2 7.5-16.2 41.1-2.7 6.6-5.6 13.6-6.3 15.6-2 5.4-5.2 11.4-6.8 12.7-2.1 1.8-2.3.2-4.2-24.8-.8-11.8-2-27.7-2.5-35.3l-1-13.7 5.2-9.6c3.5-6.4 6.2-10.1 8-11 1.6-.8 2.8-2.1 2.8-2.9 0-.9.5-2.3 1.1-3.3 1-1.6-.6-3.5-11.2-14-6.8-6.7-12.6-12.2-12.9-12.2s-4.6 2.4-9.6 5.3M501 237.1c-3 .5-9 1.6-13.3 2.6-6.7 1.4-8 2-9.2 4.3-1.3 2.5-1.2 2.9 1.5 5.5 2.1 2 3.9 5.7 6.1 12.4l3.1 9.6L479 303c-10.4 32.3-12.4 37-14.2 35.2-.6-.6-3.7-16.7-6.9-35.8l-5.7-34.7 4.6-9.3c2.7-5.5 5.5-9.8 6.9-10.5 4.1-2.2 2.5-3-4.4-2.2-3.8.4-13.2.8-21 .8h-14.1l-.4 3.3c-.3 2.2.2 3.8 1.4 4.9 1 .9 3.1 5.9 4.8 11.2l2.9 9.5-10.1 31.1c-5.5 17-10.6 32.1-11.3 33.5-.8 1.6-1.4 9.9-1.8 23.3l-.6 20.7H512v-59.9l-4-23.8c-2.3-13.1-5-28.9-6.1-35.1l-2-11.4 4.6-8.3c2.5-4.6 4.5-8.6 4.5-8.9 0-.7-.7-.7-8 .5m-94.9 13c-1.7.7-2.1 1.3-1.4 2 1.2 1.2 5.3-.5 5.3-2.1 0-1.2-.7-1.2-3.9.1"/></svg>