<svg xmlns="http://www.w3.org/2000/svg" width="682.667" height="512" version="1.0" viewBox="0 0 512 384"><path d="M0 91v91h2.3c3.3 0 33-4.6 41.5-6.4 21-4.5 37.7-10.4 60.3-21.2 9.7-4.7 19.1-8.7 21-9 3.3-.6 4 0 27 22.8 12.9 12.8 28.2 28.8 33.8 35.5 18.8 22.5 29 30.3 44.8 34.4 8.2 2.1 31 3.7 32.9 2.2.6-.4 2.7-4.1 4.8-8.1 6.1-12.1 14.3-24.7 18.6-28.6 5.8-5.2 13-9.5 24.4-14.6 5.4-2.4 10-4.9 10.3-5.6.2-.6-.1-3.1-.7-5.4-1.3-4.8-.6-6.1 3.4-6.3 1.4-.1 2.6-.7 2.6-1.4 0-.6.3-1.9.7-2.9.5-1.4-.3-1.1-3.5 1.2-2.4 1.6-4.5 4-4.8 5.4s-1.1 3.8-1.6 5.4l-1.1 2.8-1.3-2.5c-1.2-2.2-1.8-2.5-5.4-2-2.8.4-4 .2-4-.7 0-.7-.8-1.9-1.7-2.6-1.5-1.1-2.2-.9-4.7 1.4l-2.9 2.7.7-3.5.6-3.5-3.5 4c-3.8 4.4-4.6 3.2-2.1-3 .8-1.9 1.2-3.5.9-3.5-.4 0-5.1 4.5-10.6 10-10.4 10.6-14.4 13.8-19.2 15.9l-3 1.3 2-2.3c2-2.2 2-2.2 0-1.5-3.9 1.5-5.4 1.5-4.8.1.2-.8 1.2-1.7 2.1-2 1.9-.5 4.7-4.5 3.3-4.5-.6 0-1.3.5-1.6 1-.4.6-1.1.7-1.7.4-.6-.4-.8-.2-.4.4.3.6.1 1.4-.5 1.8-.8.5-.9.3-.4-.6.6-1 .4-1.2-.8-.7-.9.3-1.6.3-1.6-.1.4-2.2-.3-3.1-1.9-2.5-1.5.6-1.5.4.2-1.5 1.1-1.2 1.5-2.2 1.1-2.2-.5 0 .2-1.1 1.5-2.5 2.6-2.8 2.4-3-1.4-1.5-2.8 1-3.4.2-1.3-1.9 1-1 .9-1.1-.5-.6-1 .4-1.8 1.4-1.8 2.3 0 1.2-.3 1.3-1.1.5s-.8-1.7.1-3.2c.6-1.2.9-2.5.6-3s.1-1.5 1-2.2c2.1-1.7 4.4-6.4 4.3-8.6 0-1.5-.2-1.4-1.1.4-.6 1.3-1.4 2.3-1.8 2.3s.9-4.5 2.8-10.1l3.5-10-3.4-6.9c-1.9-3.8-3.7-7-4.1-7-.3 0-1.1 1.2-1.6 2.7-1 2.8-1 2.7-1.1-.9l-.1-3.8-4.4 2.5c-5.9 3.3-7.9 3.2-12.4-.9-3.4-3.1-3.9-3.3-5.7-2-2.8 2.1-3.3 1.8-4.5-2.7-1.6-5.7.5-9.5 7.7-14.6 3.2-2.3 6.7-5 7.7-6.2 1.9-2 1.9-2.1-.8-5.8-1.5-2.1-3.6-5-4.8-6.4-1.2-1.6-1.8-3.4-1.4-4.5.7-2.4 7.6-6.6 15.5-9.4 5-1.9 6.2-2.8 6.7-4.9 3.9-17.8 14.7-32.1 33.3-44.3 11.4-7.5 18.6-9.3 36.1-9.3 28.7 0 44.6 6.2 62.4 24C397.9 56.1 400.9 66 398 86c-1.2 8.4-1.2 9 .8 12.2 3.5 5.7 15.4 16.5 19 17.3 4.1.8 6.5 4.3 5.6 7.9-.9 3.8-2.1 4.1-5.9 1.2-2.6-2-4.5-2.6-8.4-2.6-2.7 0-5.2.4-5.6.9-.3.6.9 2.6 2.7 4.7 3.1 3.6 3.2 3.7.8 3-1.4-.4-3.3-1-4.2-1.2-2.9-.9-2 1 2.4 5.1 2.3 2.2 3.6 4.1 3 4.3-.7.2-1 .8-.6 1.3.8 1.4-1.8 1-4.6-.6-1.4-.8-3.6-1.4-4.9-1.5-2.5 0-2.4.1 1 3.6l3.4 3.7-2.8-.5c-2.3-.4-2.5-.3-1.5.9s.7 1.3-1.6.7c-2.6-.6-2.8-.5-2.1 1.5.6 2 .4 2.1-2.2 1.5-1.5-.4-3.8-1.1-5.1-1.5-2.1-.8-2.3-.7-1.6 1.3 1.1 3.6 3.4 12.2 3.4 13.1 0 .4-2.7-.7-6.1-2.4-3.4-1.6-6.4-2.8-6.7-2.5-.6.7 1.7 11.2 3.1 14 .7 1.4 0 1.2-2.9-1-2.2-1.5-5.2-4-6.9-5.4-4.3-3.9-6.5-4.5-6.5-1.8 0 1.7-.3 1.9-1.2 1-2-2-2.8-1.4-2.1 1.8.8 4.3-.3 3.7-3.2-1.8l-2.6-4.7.4 5.3c.5 6 1.4 7.4 5.1 7.4 3 0 3.1.6 1 5.6-1.5 3.7-1.5 3.7 1.3 5.9 1.5 1.3 6.9 3.9 12 5.8 15.9 6.2 18.6 9 27.8 29 3 6.5 5.9 12.3 6.4 12.8 2.2 2.2 31.8 0 42.9-3.2 2.1-.6 6.3-.6 12.2.2 14.8 1.8 33.7-1.4 44.5-7.7l4.5-2.7V0H0z"/><path d="M119.5 163.2c-14.8 8.2-15.7 8.9-14.1 10.7 1.9 2.1 2.1 5.2.4 6.9-.9.9-.6 1.8 1.5 4 2 2.1 3.2 5.1 4.9 13 2.6 12.5 4.6 6.5-19 58.2-1.1 2.5-3.6 7.9-5.5 12.2-1.9 4.2-4.5 8.1-5.6 8.7-1.2.7-2.1 1-2.2.9 0-.2-.9-17-1.9-37.3l-1.8-37 5.6-8.8c3-4.9 6.9-9.9 8.5-11.1 4.6-3.6 2.5-5-3.1-2.2s-21.3 8-29.7 9.9c-5 1.1-6.2 1.8-7.7 4.6-1.8 3.2-1.8 3.3.7 6.3 1.4 1.6 2.5 3.3 2.5 3.7s.7 4.8 1.6 9.8l1.5 9.1-16.4 32.9c-9.1 18.1-17.2 33.5-18.1 34.2-.8.7-2 1-2.6.6-.7-.4-1-13-1-37.6v-37l5.9-8.8c4.2-6.2 6.9-9.2 8.9-9.9 2.5-.8 2.9-1.4 2.5-3.6-.6-3.2-1.2-3.2-20.8-.8l-14 1.8-.3 93.7L0 384h247.7l.7-4.3c1.5-9.5 6-26.6 8.6-32.7 3-6.8 3.6-10.1 7-34.5 1.1-8.3 3.2-21.2 4.6-28.9 1.4-7.6 2.3-14.1 2-14.3-.3-.3-2.1-.5-4-.5-4.8 0-5.3-1.3-1.9-4.2 1.5-1.3 3.7-3.9 4.7-5.7l1.9-3.2-9.2.7c-6 .4-9.8.3-11.2-.4-3.2-1.8-3.5-.3-.6 2.8s6.1 14.5 6.1 22.2c0 3.4-2.9 12-11.7 34.4-11.6 29.7-14.3 35.1-15.9 32.2-.4-.7-2.1-14.4-3.8-30.2-1.6-15.9-3.2-31.6-3.6-34.9-.6-5.8-.5-6.4 3.7-13.9 4.5-8 7.6-12 9.8-12.7.9-.3 1-1.1.2-3-1.1-3.1-5-4.8-19-8.4-12-3-12.4-3-11.3-.8.5 1 1.7 5.9 2.7 11l1.8 9.1-12.2 31.9c-6.7 17.5-12.9 32.8-13.7 34-1.7 2.7-3.1 2.9-3.8.5-.6-2-2.7-22.9-5.2-51.7l-1.8-20 4.9-8.9c3.3-6.1 5.8-9.4 8-10.8 4.8-2.8 5.2-7.8 1.2-13.8-10.3-15.3-23.8-30-27.6-30-1.1 0-.9.6.7 2.2 1.4 1.6 2.6 5.4 3.9 12.3l1.9 10-7.9 19C136.9 289.2 137 289 135.1 289c-1.6 0-2.1-4.4-4.1-35.5-1.1-17.1-2.2-32.6-2.5-34.5-.5-3 .2-5 4.1-12 5-9.3 7.7-12.6 10.6-13.6 1.1-.3 1.7-1.2 1.4-1.9-.2-.7.2-2.2.9-3.2 1.3-1.9.8-2.7-6.8-10.4-4.5-4.6-9.6-10.1-11.4-12.2-3.3-3.9-4.6-4.3-7.8-2.5M258 185c-.8.5-1.2 1.2-.9 1.5.4.3 1.2-.1 1.9-1 1.4-1.7 1.1-1.9-1-.5m242.5 49.7c-9.9 1.4-20.1 4.5-21.7 6.6-1.6 2-1.5 2.3 1.1 5.2 1.5 1.7 4.2 7.3 6 12.4l3.2 9.2-2.7 8.7c-1.4 4.8-3.9 12.5-5.4 17.2-1.6 4.7-4.9 15.2-7.5 23.5-4.7 15.1-6.6 18.8-8.5 16.9-.9-.9-7.3-35.7-10.8-59.1l-1.6-11.2 3.4-7.3c1.9-4 5.1-8.8 7-10.6l3.5-3.4-11.5.9c-6.3.4-15.9.8-21.3.8H424v3.1c0 1.7.6 3.7 1.4 4.4 1.5 1.1 7.6 18.2 7.6 20.9 0 .8-3.9 13.6-8.6 28.5-4.8 14.9-9.3 29.2-10.1 31.8-1.6 5.3-4 8-5.3 5.9-.4-.8-1.1-3.6-1.4-6.3-1.3-9.4-1.8-3.9-.7 6.4.9 7.5.9 14.4.2 25.3-.6 8.2-1.1 16-1.1 17.2v2.3h106.1l-.4-34.8c-.3-33.9-.4-35.1-3.5-51.7-1.7-9.4-4.2-23.5-5.6-31.4l-2.5-14.4 4.5-8.8 4.4-8.9-2.7.1c-1.6.1-4.1.4-5.8.6m-92.9 11.2c-1.1 1.1-2.5 2.1-3.3 2.1-1.4 0-1.7 2.8-.5 4.7 1.3 2 6.4-3.3 6-6.3l-.3-2.6z"/></svg>