<svg xmlns="http://www.w3.org/2000/svg" width="682.667" height="512" version="1.0" viewBox="0 0 512 384"><path d="M0 90.4v90.5l3.3-.4c1.7-.3 7.9-1 13.7-1.6 34.7-3.7 63-12.2 98-29.4 6.2-3 12.3-5.5 13.5-5.5 3 0 43.1 40 56.8 56.5 17.9 21.7 24.7 27.8 37 33.5 11.6 5.4 38.8 9.2 41.6 5.7.6-.6 2.9-4.7 5.1-9 12.1-23.5 19.2-30.9 38.6-40.3 7.3-3.5 13.5-6.8 13.9-7.3.3-.6 0-3.1-.6-5.7-1.3-5-.4-6.6 3.5-6.1 1.4.1 2.2-.6 2.7-2.6.4-1.5.4-2.7-.1-2.7-2.1 0-12.8 9.1-13.9 11.9-1.4 3.2-3.1 4.2-3.1 1.6 0-.8-1.1-2.2-2.5-3.1-2.3-1.5-2.6-1.5-5.2.6-1.5 1.1-5 4.7-7.9 7.8-2.8 3.2-7.6 7.2-10.5 9.1l-5.4 3.3 3-3.3c2.6-2.8 2.7-3 .5-1.6-5 3.4-8.2.8-4.3-3.5 2-2.2.6-2.4-2.5-.2-3.3 2.3-2.6.5 1.1-2.9 1.7-1.6 1.1-1.3-1.6.8-4.8 3.7-4.8 3.7-4.5 1.1.2-1.4 1.4-3.6 2.5-5 2.8-3.2.8-4.1-4.8-2.2-2.6.9-3.7 1-3 .2 1.1-1.4 1.1-6.6 0-6.6q-2.25 0 1.5-4.2c3.6-3.8 6.8-10.1 5.5-10.8-1-.7.3-8.1 2.1-12 .4-.9-.3-2.4-1.7-3.7-1.3-1.2-2.3-1.8-2.3-1.3 0 1.7-3.4-.2-6.3-3.4l-2.7-3.1.6 3c1.4 6-3.7-1.1-7.4-10.5l-1-2.5-1.3 3.5-1.4 3.5-.5-3.2-.5-3.3-5 2.5c-6.4 3.1-6.8 3.1-10.7-.4-2.7-2.3-3.7-2.7-5.2-1.9-1.9 1.1-4.1-.9-5.2-4.9-.8-2.8 3.4-8.4 9.5-12.6 6.3-4.3 12.1-9.7 12.1-11.2 0-.7-2.1-4-4.6-7.4-2.5-3.3-4.4-6.9-4.2-7.8.4-2.2 5.6-5.7 11.6-7.8 7.3-2.6 7.4-2.7 9.3-9.4 3.4-12 12.8-23.8 26.9-33.7 17.3-12.3 30.8-15.2 55.2-11.9 20.3 2.7 31.3 8 45.6 22.2 13.8 13.7 17.7 23.8 15.2 39.6s-2.5 15.7 1.2 20.8c5.8 8.2 11 13.2 16.2 15.8 4.3 2.2 5.1 3.1 5.3 5.6.2 1.6-.4 3.9-1.2 4.9-1.5 1.9-1.5 1.9-3.8-.2-1.8-1.7-9.8-4.2-13.3-4.2-1.3 0 0 2.8 2.3 5.2 2.7 2.8 1.8 3.7-1.7 1.8-3.2-1.7-3.5.9-.4 4.1 2.9 3 4.2 6.9 2.4 6.9-.6 0-2.9-.9-5.1-2.1-5.6-2.8-6.5-2.1-2.8 2.4 2.2 2.7 2.6 3.7 1.5 3.7-.9 0-1.6.5-1.6 1.1 0 .5-.4.7-1 .4-1.8-1.1-3.2.6-1.8 2.3s1.6 1.7-5.9-.6c-3.8-1.2-3.7-1.4-1.8 5.8 2.5 9.2 2.4 9.3-5.2 5.4-3.7-1.8-6.9-3.2-7-3-.5.4 2.1 11.2 3.2 14 .8 1.8.7 1.8-2.1.1-1.6-1-5.9-4.8-9.7-8.4l-6.7-6.6.6 6.3c.8 7.6-.5 8.1-3.5 1.3-2.7-6.4-4-7.2-3-1.8 1.1 5.7 1.1 6.9-.1 6.2-.5-.3-1 .1-1 .9 0 1.7 4.2 3.2 5.9 2.2 1.9-1.2 2 1.2.4 5.4l-1.7 4.3 2.8 2.2c1.5 1.2 6.5 3.7 11.2 5.5 4.6 1.8 10.7 4.9 13.6 6.9 5.4 3.8 8.1 8.1 16.6 26.9l4.2 9.3 10.8-.6c15.1-.8 26.4-2.3 31.3-4 3.6-1.3 5.6-1.3 12.7-.3 14.9 2 33.1-1.1 45.2-7.9l5-2.8V0H0z"/><path d="M272 138.8c0 .5.7 1.5 1.5 2.2s1.5.8 1.5.2c0-.5-.7-1.5-1.5-2.2s-1.5-.8-1.5-.2m3.2 9.1c-.6 1.7-.9 3.1-.6 3.1.7 0 2.5-5.2 2-5.7-.2-.2-.8 1-1.4 2.6m-158.7 17.2c-9.8 5.7-9.7 5.6-7.8 8.6 1.3 2 1.4 2.9.5 4.4-1.6 2.5-1.5 4.8.3 5.5 1.7.7 3.8 6.3 6.1 16.4 1.6 7.5 1.6 7.6-.6 12.5-1.3 2.8-4.9 11.1-8 18.5-17.8 42.1-19.2 45-21.6 45-1.8 0-2.1-2.6-3.9-34-2.3-41.7-2.5-39.1 4-49.7 3.2-5.3 6.5-9.5 8-10.1 2.5-1.2 3.2-2.6 1.6-3.6-.5-.3-3.7.7-7.2 2.3-8 3.6-20.5 7.7-28.1 9.2-4.9 1-6 1.6-7.3 4.1-1.4 2.8-1.3 3.2.9 6.2 1.7 2.2 2.9 6 4.1 13.1l1.7 10-11.1 23c-23.9 49.7-24.1 50-25.3 36-.3-4.4-.8-21.1-1-37l-.3-29 6.1-9c3.4-5 7.2-9.5 8.5-10 1.8-.7 2.3-1.6 2.1-3.5-.2-1.4-.5-2.6-.7-2.8-.4-.4-36.8 3.8-37.4 4.4-.3.2 0 7.6.7 16.3.8 10.9.9 16.8.2 18.6-.6 1.7-1 29.7-1 78.1V384h246.6l3.8-15.9c2.1-8.8 4.9-18.3 6.2-21.2 3.1-6.7 4-10.5 6.4-29.2 1.1-8.3 3.3-22.6 5-31.6 1.6-9.1 2.8-16.6 2.7-16.7-.1-.2-2-.5-4-.7-5.1-.6-5.7-1.5-2.4-3.9 1.5-1.1 3.6-3.7 4.6-5.7l1.9-3.6h-21.7l2.5 2.6c2.6 2.7 6.4 16 6.4 22.4 0 1.9-2.9 11.2-6.4 20.7s-8.7 23.7-11.6 31.5c-5.7 15.4-7.3 18-9 14.2-1-2.4-8-62.1-8-68.6 0-4.1 7.1-17.6 11.3-21.4 5.5-5.1 2.5-7.7-14.3-12.4-12.8-3.6-15.7-4.1-14.3-2.4.6.8 2 5.7 3.2 11l2.2 9.7-9.2 24.8c-5 13.7-10.4 28.4-12 32.7-5.2 14.3-7.2 14.6-8.9 1.1-1.2-9.6-4.7-43.8-5.6-54.9l-.6-8 4.6-9.3c3.5-7 5.5-9.8 8-11.3 2.6-1.5 3.5-2.8 3.8-5.5.4-3.1-.6-4.9-7.1-14.2-8.2-11.6-20.1-24.2-22.8-24.2-1.4 0-1.4.3.4 2.2 2.1 2.3 5.3 15 5.3 20.8 0 1.5-2 7.8-4.4 14.1-14.1 36.7-21 53.6-22.6 55.3-1.9 1.9-1.9 1.9-2.9-.5-1.3-3.1-6.4-70.3-5.6-73 1.8-5.5 9.8-18 12.6-19.4 1.9-1 2.9-2.3 2.9-3.8 0-1.3.6-2.9 1.3-3.6 1-1 .4-1.9-2.9-4.6-2.3-1.9-7.4-7.3-11.4-12s-8-8.5-8.9-8.5-4.8 1.8-8.6 4.1m152.9 11.4c-1 .8-1.4 1.5-.8 1.5s1.7-.7 2.4-1.5c1.6-1.9.9-1.9-1.6 0m221.8 59c-7.8 1.6-11.8 2.9-12.7 4.2-2 2.5-1.9 3.3.9 6.2 2.6 2.7 8.6 17.7 8.6 21.4 0 3.3-18.9 64-20.5 65.6-1.1 1.1-1.5 1-2.4-.6-.9-1.7-3.9-17.1-7.1-35.8-.5-2.8-2-11.2-3.4-18.8l-2.6-13.8 4.5-8.8c2.4-4.9 5.7-9.8 7.2-11l2.8-2.2-7.5.5c-4.1.4-13.6.9-21.2 1.3-13.4.6-13.6.6-14.1 3-.3 1.6.3 3.3 1.7 4.8 1.1 1.2 3.4 6.4 5 11.4l2.9 9.2-9.2 30.2c-10 32.4-11.5 36.7-12.9 36.7-1.3 0-2.8-6.1-5.2-20.4-1-6.5-2.1-12.1-2.4-12.3-.5-.6.2 10.9 1.5 22.7.6 5.2 1.3 11.5 1.5 14 .5 4.4-1.2 34.2-2.2 38.7l-.4 2.3h108v-33.4c0-19.1-.4-35.5-1-38.3-1.2-5.7-7.5-40-9.7-52.9l-1.5-9.2 4.4-8.6 4.5-8.6-3.1.1c-1.7 0-8.2 1.1-14.4 2.4m-84.3 9.1c-.7.9-2.4 2-3.6 2.5-2.3.8-2.3 1-.8 3.8l1.5 3 3-3c1.7-1.7 3-4.1 3-5.5 0-2.8-1.2-3.1-3.1-.8"/></svg>