<svg xmlns="http://www.w3.org/2000/svg" width="682.667" height="512" version="1.0" viewBox="0 0 512 384"><path d="M0 90.5V181h2.9c4.6 0 28.9-3.7 39.3-6 23.7-5.3 41.8-11.6 65.8-23.1 9.1-4.3 17.6-7.9 19-7.9 1.7 0 4.7 2.4 10.4 8.3 4.5 4.5 13.9 13.6 21 20.2 7 6.5 19.4 19.5 27.5 28.9 16.2 18.9 25.3 27.2 34.9 31.7 9.5 4.6 24.2 7.3 37.2 7 3.2-.1 3.7-.5 4.9-3.9.7-2 4.3-9 8-15.6 8.9-16 16.7-23.8 30-30.2 5.3-2.5 11.2-5.3 13.1-6.4 3.7-1.9 4.8-4.7 3.1-7.7-.9-1.6-1.1-1.4-2.1 1.4-1.6 4.5-3 4.1-3-.6 0-2.2-.4-4.2-.9-4.5-.5-.4-2.6 1.3-4.6 3.6l-3.7 4.3.6-3.6c.9-5.4-1.7-6-4.4-1.1l-2.1 3.7.4-6.3c.4-7.3-.4-7.7-5.3-2.7-1.8 1.9-3.5 3.3-3.8 3.1-.2-.2.6-2.2 1.7-4.5 2.1-3.9 2.7-7.1 1.5-7.1-.3 0-2.7 1.7-5.3 3.8-2.5 2.1-5.5 4.4-6.6 5.2-1.9 1.5-1.9 1.5-.2-1 .9-1.4 3-4.9 4.5-7.8 2.6-5.3 2.7-5.4.8-6.8-1.1-.8-2.7-1.4-3.7-1.4-3.6 0-4.1-2.6-1.4-6.5 1.4-2.1 2.5-4.5 2.5-5.5 0-1.9-4.3-6.3-5.3-5.4-.3.4-1.8-.1-3.2-1-3.3-2.2-3.2-.9.2 2.6 1.5 1.5 2.2 2.8 1.6 2.8s-1.6-.7-2.3-1.6c-.8-.8-2.2-2-3.3-2.6-1.6-.8-1.9-.8-1.4.5.9 2.4-3.4.9-6.1-2.2l-2.4-2.6.7 2.5c.5 2.2.4 2.1-1.5-.7-1.2-1.8-2.6-3.1-3-2.8s-1.3-2.4-2-6-1.6-6.5-2-6.5-1.3 1.4-2 3c-1.6 3.9-3.3 5-2.4 1.6.8-3.2 0-3.2-5.1-.1-4.9 3-6.6 3.1-9 .5-1-1.1-2.6-1.9-3.5-1.8-2 .4-5.6-2.9-6.9-6.4-1-2.8-.6-3.8 1.6-3.8 1.6 0 3.3-1.4 16.1-13.6l9.3-8.9-2.1-6c-4.3-12.2-2.8-18.4 5.1-20.5 3.5-1 4.2-1.9 8-9 3.1-6 5.9-9.7 11.3-14.6 12.4-11.6 31-20.8 44.3-22 9-.8 26.4 1.1 36.9 4.1 4.6 1.4 9.7 2.5 11.2 2.5 2.1 0 5.1 2.5 14.3 11.8 9.5 9.6 12.3 13.1 15.5 19.6 3.5 7.2 3.9 8.9 4.2 17.1.3 7.1-.1 11-1.8 17.3l-2.2 8.2 2.7 4.7c2.7 4.7 7.5 11.3 10.4 14.3.8.8 3.5 2.6 6 4 5.3 2.9 6.3 6 3.2 10l-2 2.5-2.3-2.1c-1.9-1.8-13.5-4.9-14.5-4-.1.1.9 1.9 2.3 3.9l2.5 3.8-2.5-.7c-3.2-.8-3.2-.5-.1 5.6 2.8 5.5 2.5 5.9-2 3.2-1.6-1-4.3-2.2-5.9-2.6l-2.9-.7 2.6 3.5c2.6 3.3 2.8 6.6.5 6.6-.6 0-.8.7-.4 1.5.8 2.1-1.1 1.9-4.1-.5-4.1-3.2-5.4-1.2-3.7 5.3 2.6 9.8 1.7 10.8-4.6 5.1-3.1-2.8-4.3-3.4-5.3-2.5-.8.6-1.7.8-2 .4-1-.9-.8 1.2.3 4.1.7 1.8.6 2.6-.1 2.6-1.1 0-1 1.1.6 5.5.4 1.3-.4.8-2.5-1.5l-3.1-3.5.5 4.6c.3 2.6.8 5.5 1.2 6.5.3 1.2-.1.9-1.1-.6l-1.6-2.5.5 2.5c.3 1.4.9 3.6 1.3 5l.7 2.5-2.7-1.8c-2.6-1.7-2.7-1.7-2.7.1 0 1.4 1.9 2.8 6.8 5 12.4 5.6 14.5 7.8 21.6 22.2 3.5 7.2 6.9 14.4 7.5 16.2l1.1 3.1 12.3-.6c11.7-.6 24.5-2.5 31.5-4.6 2.2-.6 5.3-.6 9.5.1 11 1.8 29.9-.9 40.2-5.9 2.8-1.3 7.8-4.4 11.3-7l6.2-4.6V0H0z"/><path d="M116 164.6c-3.6 2-7.8 4.5-9.3 5.6-2.7 1.9-2.7 2.1-1.1 3.9 1.1 1.2 1.5 2.8 1.1 4.7-.5 2.4-.1 3.2 1.8 4.2 1.5.8 3.9 4.7 6.9 11.4l4.7 10.1-6.5 33.5c-6.6 34.1-7.2 37-8.6 37-1.9 0-3.4-4.2-10.5-28.1-4.1-14-8.6-28.9-9.9-33.1l-2.3-7.7 3.4-9.8c2.2-6.4 4.2-10.6 6-12.1 2.3-2.1 2.4-2.5 1.1-3.8s-2.3-1.1-8.8 1.7c-9 3.8-17 6.4-27.4 8.9-8.9 2.2-8.1 1.8-9 4.7-.6 1.8-.2 2.5 1.7 3.4 1.6.7 3.9 4.3 7.2 10.8l4.8 9.8-3.7 20.9c-8.4 47.5-8.4 47.4-10.9 47.4-1.6 0-2.5-2.5-15.2-40.1l-8.6-25.7 3.2-9.3c1.8-5.2 4.2-10.5 5.5-11.9 1.6-1.8 2.1-3.3 1.7-5.3-.5-2.3-1-2.7-4.2-2.7-3.7 0-18.7 1.5-25.4 2.6l-3.7.6v10.9c0 7.4.5 12.1 1.5 14.5 1.3 3.2 1.3 4.6 0 12.7C.3 241.8 0 256.4 0 313.7V384h245.7l3.2-14.3c1.7-7.9 4.3-17.5 5.7-21.3 4.5-12 5.1-14.6 6.8-29.4 1.7-14.6 6.1-44.1 7.2-48.5.5-2.1.1-2.4-3.5-3-5.2-.9-5.9-2.1-2.7-4.6 1.5-1.2 3.3-3.4 4.2-5.1l1.6-3-5.9.6c-3.2.4-7.3.2-9-.3-3.9-1.1-4.4 0-.8 1.9s9.8 18.4 9.3 24.8c-.6 6.2-13.5 64-15 66.9-2.6 5.1-3 3.9-11.8-32.7-3.8-16.2-7.5-31.1-8-33.1-.9-3.2-.5-4.9 2.5-13 2-5.3 4.9-10.7 6.5-12.4 2.7-2.8 2.8-3.2 1.4-5.7-1.4-2.7-6.6-4.9-20-8.3-9.7-2.4-9.6-2.5-6.7 5.2 4.8 13.1 4.8 11-.1 33.8-2.6 11.6-5.6 25.5-6.7 31-3.7 17.3-5.4 21.1-7.7 16.8-1.4-2.5-17.2-65.8-17.2-68.6 0-4.9 5.9-20 8.9-22.6 1.9-1.7 3.1-3.9 3.4-6.3.5-3.4 0-4.6-5-11.5-10.2-14.3-17.6-22.6-22.8-25.5-1.9-1-1.9-1-.4.8 2.4 2.7 7.9 16.4 7.9 19.5 0 3.9-12.7 66.5-14 68.9-1.2 2.2-2.5 2.6-3.5.9-.6-.9-8.7-30.4-16.2-58.7l-2.7-10.3 3.3-9.9c2.2-6.8 4-10.6 5.7-11.9 1.3-1 2.4-2.6 2.4-3.4 0-.9.5-2.6 1-3.9.9-2.1-.1-3.5-10.9-14.6-6.5-6.7-12.3-12.2-12.7-12.2-.5 0-3.8 1.6-7.4 3.6m205.3-.1c-1.3.9-2.7 2.4-3.3 3.4-.8 1.6-.5 2 1.6 2.4 2 .4 2.7-.1 3.5-2.1 1.6-4.1.8-5.6-1.8-3.7M495 229.7c-1.4.2-6.9 1.3-12.3 2.5-7.9 1.7-10.2 2.6-11.4 4.5-1.5 2.2-1.4 2.4 1.2 4.5 3.1 2.5 10.5 17.5 10.5 21.4 0 1.3-1.1 7.5-2.4 13.7-1.4 6.2-4.3 19.7-6.5 30.1-4 18.8-5.1 22-7.1 20-.6-.6-5.1-15.4-10-32.9l-9.1-31.9 2.8-8c1.5-4.5 4.1-9.6 5.7-11.4s2.7-3.4 2.5-3.6c-.2-.3-3.8 0-7.9.4-4.1.5-10.9.9-15.1 1-12.3 0-16.9.9-16.9 3.2 0 1.1 1.1 3.3 2.3 4.8 1.3 1.5 3.9 6.4 5.7 10.9l3.3 8.2-2.7 12.7c-1.4 7-4.2 20.6-6.1 30.2-3.6 17.6-5.1 23-6.5 23-1.3 0-3.4-6.5-10.5-32.7-3.8-13.9-7-25.1-7.2-24.9-.7.7 1.8 39.7 3.4 52.8 1.4 11.9 1.4 16 .4 32-.7 10.1-1.5 19.5-1.8 21l-.5 2.8H512l-.2-38.3-.3-38.2-8.7-29.6-8.8-29.7 3.5-9.6c3.7-10.4 3.9-9.9-2.5-8.9m-95.2 12.9c-3.4 2.4-3.6 2.8-2.6 5.5 1.1 3.2 3 4.9 3.6 3.1.2-.6 1.3-2.3 2.4-3.8 2.3-2.8 3.1-7.4 1.3-7.3-.5 0-2.7 1.2-4.7 2.5"/></svg>