<svg xmlns="http://www.w3.org/2000/svg" width="682.667" height="512" version="1.0" viewBox="0 0 512 384"><path d="M0 91c0 50 .3 91 .7 91 3.6 0 36.5-5.8 46.2-8.1 22.4-5.5 36.6-10.7 60.1-21.9 20-9.6 19.3-9.6 26.6-2 3.2 3.4 12.5 12.3 20.7 19.7 8.1 7.5 20.9 20.6 28.4 29.2 26.5 30.2 34.1 35.7 54.2 39.7 9.7 1.9 23.4 2 24 .2.2-.7 2.8-6 5.7-11.8 11.4-22.8 17.5-29.3 35.4-37.8 11.7-5.5 15-7.7 15-9.6 0-.6-.4-.4-1 .4-1.1 1.7-1.3 1.2-2.7-6l-.8-4.5-3.2 5.2c-3.5 5.6-6 7.2-4.3 2.7 1.4-3.5 1.3-4.4-.4-3.8-.8.3-1.7.1-2.1-.5-1.1-1.9-2.6-1.2-3.6 1.9-1.7 4.8-3.2 3.6-2.4-2 1-7.3 0-7.9-5.1-2.9-4.9 4.8-5.3 4.6-2.4-1.1 2.1-4.1 2.6-7 1.2-7-.5 0-3.5 2.2-6.6 5s-5.9 5-6.1 5 1.2-2.6 3.1-5.8c5.4-8.8 5.6-12.2 1-12.2-1.2 0-3-.6-4.1-1.3-1.7-1.3-1.7-1.6.9-5.3 3.2-4.8 3.3-6.4.1-9.4-1.4-1.3-2.5-2-2.5-1.6s-1 0-2.2-.8c-3.7-2.6-4.2-1.8-1.2 2.1l2.9 3.8-4.4-3.4c-3.8-3-4.3-3.2-3.7-1.3.6 1.8.4 2.1-1.1 1.5-1-.3-3.1-1.8-4.6-3.2-2.4-2.2-2.7-2.3-2.2-.6.7 2 .7 2-.9 0-.9-1.1-2.3-2.8-3.1-3.8-.8-.9-2.1-4.3-2.8-7.5l-1.3-5.7-2.2 4.2c-2.6 5-3.6 5.5-2.7 1.3.8-3.6.2-3.7-5-.5-4.8 3-7.6 3.1-10 .5-1-1.1-2.2-1.7-2.7-1.4-.4.3-2.2-.7-3.8-2.3-3.3-3.1-4.2-8.3-1.4-8.3 2 0 8.8-5.5 18.6-15l7.8-7.5-2-6.3c-2.4-7.6-2.7-16.4-.5-18.2.8-.6 3.3-1.8 5.6-2.4 3.6-1.1 4.5-1.9 5.5-4.9 5.6-16.2 33.4-35.9 55.2-39 8.5-1.3 26.2.2 35.7 3 3.3.9 8 1.6 10.5 1.5 4.5-.1 4.7 0 15.1 10.1C396.9 53.6 402 67.6 396 89.7l-2.2 8.2 2.6 4.7c4.5 8 11.8 16.3 16.4 18.4 5 2.4 5.9 4 4.2 8-1.7 4.1-2.8 4.6-5.3 2.2-2.1-1.8-13.5-4.8-14.5-3.7-.3.3.4 1.9 1.6 3.5 2.8 3.8 2.8 4.2-.5 3.4l-2.6-.7 3 5.7c3.3 5.9 2.7 6.9-2.2 3.6-2.9-1.9-6.5-2.7-6.5-1.4 0 .3.9 1.9 2 3.5 2.1 2.8 2.1 2.8.1 4.1-1.6.9-1.7 1.6-.9 3.1 1.2 2.2.4 1.9-5.2-2.1-1.9-1.4-3.2-2.2-2.8-1.7.4.4.4 1.3-.2 1.9-.5.7-.5 2.8.1 5.6.6 2.4.9 5.5.7 6.8l-.3 2.5-4.3-3.7c-5-4.1-4.9-4.1-6.8-2.1-.9.9-1.2 2.3-.8 4 .4 1.5.2 2.5-.4 2.5-.7 0-.8 1.1-.1 3.2 1.3 4.6 1.1 4.7-1.7 1.3l-2.5-3 2.5 5.5c2.8 6.1 2.7 7.5-.4 3.9-1.8-2.1-1.7-1.7.5 3.3 2.9 6.9 1.7 7.7-2.1 1.3-1.4-2.5-2.8-4.5-3-4.5-.4 0 .1 3 1.2 7.1.3.9 3.1 2.8 6.3 4.2 9.8 4.3 12.7 7.6 20.3 23.4 3.7 7.8 6.8 14.7 6.8 15.2 0 2.7 33.9.5 42.1-2.7 1.6-.7 7.7-.8 15.5-.5 21.3 1 35.9-3.2 49.7-14.3l5.7-4.6V0H0z"/><path d="M115 164.6c-2.5 1.5-6.2 3.7-8.3 5.1-3.7 2.4-3.8 2.5-2.3 4.9 1 1.4 1.4 3.4 1.1 4.7-.5 1.7.1 2.8 2.3 4.4 1.6 1.1 4.8 6 7.4 10.9l4.5 8.9-4.8 33.1c-5.1 35.7-5.4 37.4-7.3 37.4-1.8 0-2.4-1.3-14.6-35.6l-11.1-31.2 3-10.3c2.3-7.7 3.7-10.9 5.6-12.4 2.3-1.9 2.4-2.2.9-3.7-1.5-1.4-2.2-1.3-8.3 1.4-8.2 3.8-18.1 7-28.6 9.4-4.4 1-8.1 1.8-8.1 1.8-.1.1-.5 1.1-.8 2.3-.6 1.8-.2 2.5 1.8 3.5 1.7.7 4.4 4.4 7.7 10.2l5.1 9.1-3.8 32.9c-2.3 19.3-4.4 33.5-5.1 34.5-1.2 1.5-1.4 1.4-2.8-.3-.8-1-2.8-5.3-4.6-9.5-1.7-4.2-7.3-17.8-12.5-30.2l-9.5-22.5 3-10.4c2-6.8 3.7-11 5.1-12 1.8-1.4 1.9-1.8.8-4.3-1.2-2.5-1.7-2.7-7.3-2.6-3.3 0-9.8.6-14.5 1.2l-8.5 1.2-.3 93.7-.3 93.8h245.9l2.2-9.8c3.3-14.9 6.8-27.4 9-32.4 1.2-2.8 2.6-9.9 3.6-17.9 1.5-12.9 6-46.1 7.1-52.5.5-3 .2-3.3-2.9-3.9-5.3-1.2-6.2-2.4-3.3-4.7 1.4-1.1 3.2-3.3 4.1-4.9l1.5-3-5.8.6c-3.4.4-7 .2-8.5-.4-3.6-1.3-3.5-.7.1 2.7 1.8 1.6 4.4 6.4 6.6 11.9l3.7 9.2-2.1 10.8c-1.2 5.9-4.2 21.3-6.7 34.2s-5 24.3-5.6 25.4c-.9 1.7-1.2 1.7-2.4.5-.8-.8-5.6-16.9-10.8-35.8l-9.3-34.4 3.4-9.6c1.9-5.2 4.5-10.7 5.9-12.1 2.1-2.2 2.3-2.9 1.4-5.6-1-2.7-2-3.3-9.8-5.6-9.6-2.9-18.3-5-18.8-4.4-.2.2 1.2 4.1 3.1 8.6s3.5 9.3 3.5 10.5c0 2.3-11.6 65.5-12.6 68.8-.9 3-3.1 2-4.6-2-.8-2-5.5-17.7-10.3-34.8l-8.8-31.2 2.8-9.6c2.2-7.6 3.5-10.2 6.1-12.5 2.3-2.1 3.1-3.6 2.7-5.1-.3-1.1 0-2.7.6-3.4 1-1.2-.4-3.6-7.2-12.8-8.3-11.1-18.1-21.7-19.2-20.7-.3.3 1.1 3.9 3.1 8s3.6 8.6 3.6 10c0 1.5-1.4 10.9-3.1 21-1.6 10.1-4 24.9-5.3 32.8-1.2 7.9-2.8 15.1-3.5 16-1.1 1.5-1.3 1.4-2.6-.3-1.2-1.6-13.2-38.2-20-60.8l-2-6.7 2.7-9.8c1.9-6.6 3.6-10.7 5.3-12.5 1.5-1.5 2.8-3.8 2.9-5 .1-1.3.4-3 .6-3.9.5-2.4-21.6-24.9-24.5-24.9-1.2 0-4.2 1.2-6.7 2.6m204.1 1.6c-.5 1.4-.5 2.8.2 3.6 1.2 1.6 2.2.6 3.1-3.1.8-3.4-2-3.9-3.3-.5m35.9 12.1c0 1.5 2.7 4.3 3.4 3.6.3-.2-.4-1.5-1.5-2.8-1.3-1.6-1.9-1.8-1.9-.8m139 50.9c-12.6 2-23 5-24.1 7-.9 1.7-.7 2.4 1.5 4.2 2.9 2.4 10.6 17.5 10.6 20.9 0 2.7-11.8 62.6-12.6 63.8-.9 1.6-2 1-3.2-1.7-1.2-2.4-18-56.8-18.9-60.9-.7-3.2 5.4-18.7 8.3-21.3 1.5-1.3 2.4-2.6 2.1-2.9s-6.6 0-13.9.6c-7.3.7-16.2 1.3-19.8 1.4-6.3.2-6.5.3-6.2 2.6.2 1.3 1.2 3.1 2.1 4 1 .9 3.5 5.5 5.6 10.4l3.8 8.8-3.8 20.7c-6 32.8-8.2 43.3-9.3 44.4-1.7 1.7-3.4-2.9-11.8-31.5-4.3-14.7-8-26.3-8.2-25.8-.6 1.8 2.8 51.7 3.9 57.6 1.1 5.8.9 17.4-.7 42.4l-.7 10.1H512v-74l-9.6-30.8-9.6-30.7 2.7-8.5c1.5-4.7 3.2-9.1 3.8-9.8 1.4-1.8.8-1.9-5.3-1m-93.9 12.2c-1.9 1.4-3.8 2.7-4.4 2.9-.5.1-.1 1.9.9 3.9l1.9 3.7 3-3.7c2.4-2.8 3-4.4 2.5-6.5l-.5-2.8z"/></svg>