<svg xmlns="http://www.w3.org/2000/svg" width="682.667" height="512" version="1.0" viewBox="0 0 512 384"><path d="M0 91.9v92l3.8-.6c10.9-1.5 34.4-6.7 46.7-10.2 17.7-5.1 30.8-10.3 50.8-19.8 9.3-4.5 17.1-7.6 18.8-7.5 2.3 0 5.7 2.7 16.1 12.4 24.5 22.8 35 33.2 49.4 48.9 24.1 26.3 34.5 32.2 59.9 33.6l11 .6 1.3-4.9c.7-2.7 4.1-10.5 7.5-17.4 8.6-17.5 13.9-22.7 32.2-31.5 7.4-3.6 13.5-6.7 13.5-6.9 0-.3-.5-1.7-1.1-3.3l-1-2.8-2 2.5-2.1 2.5.6-4.2c.3-2.3.3-4.4-.1-4.6-1.4-.8-7.3 2.3-7.3 3.8 0 .8-.4 1.5-1 1.5-.5 0-1-1.1-1-2.4s-.8-3.4-1.9-4.7l-1.8-2.3-3.2 3.5-3.2 3.4 1.6-3.9c1.9-4.8 1.9-5.2-.2-6-1.1-.5-3.1.8-6.5 4.1l-4.9 4.8 3.1-6.7c1.6-3.7 3-7.4 3-8.1 0-2-3.1-4.4-6.7-5.2-3.9-.8-4.1-1.9-.8-7.6l2.4-4.4-2.6-2.7c-1.5-1.6-3.3-2.8-4-2.8s-1.3-.5-1.3-1c0-.6-1-1-2.2-1-2.1 0-2.1.1.7 3 1.6 1.6 2.4 3 1.9 3-.6 0-2.1-1.1-3.4-2.5-2.8-3-4.4-3.2-3.7-.6.4 1.7.2 1.7-2 .6-1.3-.7-3-2.1-3.8-3.1-1-1.3-1.4-1.5-1.5-.5 0 .7-1.4-.2-3-1.9-2.2-2.3-3.3-4.7-3.7-7.9-.9-7.1-1.8-7.9-3.6-3.2-2.1 5.2-3.1 5.3-2.2.1l.7-4.1-5.9 3.6c-3.2 1.9-6.4 3.5-7.1 3.5-3.7 0-12.5-6.8-13.6-10.7-.6-1.9-.2-2.3 3.2-3.3 2.8-.7 7.4-4.1 16.2-12.1 10.7-9.8 12.1-11.5 11.7-13.8-.2-1.4-1.2-5.9-2.1-10-2.5-11.3-1.3-14.5 6.1-16.6 1.2-.3 3.4-2.8 5.1-5.8 6.1-10.9 21.6-22.8 38.9-30 7.7-3.2 8-3.2 23.3-3.1 13.1 0 16.8.4 24 2.4 4.7 1.3 10.4 2.3 12.8 2.2 4.2-.2 4.5 0 14.6 10 11.8 11.7 17.8 20.3 20.6 29.6 2.4 7.7 2.5 13.3.4 22.7-3.2 14.2-3.2 14.2 2.5 22.7 5.3 7.8 9.4 12 15 15 3.6 2 3.9 3.9 1 8l-2.1 2.9-2.5-2.3c-2.6-2.4-14.3-5.3-14.3-3.5 0 .5 1 2.3 2.2 4l2.2 3-2.2-.5c-2.7-.7-2.8.4-.2 6.1 2.6 5.6 2.6 5.6-1.2 3.3-1.8-1.1-4.6-2.3-6.2-2.6l-2.9-.7 2.6 3.5c2.4 3.1 2.5 3.6 1.2 5-.8.8-1.2 2.2-.9 3 .9 2.4-.1 2-4.1-1.5-5-4.5-5.7-3.1-3.6 7.5.6 3.3.9 6.2.6 6.5-.3.2-2.5-1.4-4.8-3.7-4.1-4-6.6-5.5-5.1-3 .5.7.2.9-.9.5-1.3-.5-1.5.1-1.3 3.4.3 3.4.1 3.8-1.2 2.7s-1.4-.9-.9 1.4c.4 1.4 1 3.3 1.3 4.2s.1 1.6-.5 1.6-1.1-.3-1.1-.8c0-.4-1.1-2.1-2.5-3.7l-2.5-3 1 2.9c1.6 4.4.6 4.2-4.1-.8-2.4-2.5-4.6-4.6-5-4.6-.3 0-.3 1.5-.1 3.2.5 3.9-.8 3-2.5-1.5l-1.1-3.2-.1 4.7c-.1 4.2.2 4.8 1.9 4.8 2.4 0 2.4.1.5 4.8-1.9 4.3-1.3 5 5.7 7.1 10 3.1 19.7 7.4 22 9.9 3.1 3.4 8.3 13.6 9.3 18.2.4 1.9 2.4 6.8 4.4 10.9l3.6 7.3 14-.6c8.1-.4 17.6-1.5 22.5-2.7 6.9-1.6 10.4-1.9 18.5-1.3 23.1 1.5 38.1-3.5 56-18.6l6.5-5.5V0H0z"/><path d="M110.5 165.9c-15.5 8.8-14.6 8.1-13 10.4.8 1.2 1.5 3.2 1.5 4.5 0 1.5.7 2.6 2 2.9 1.1.3 4.9 4.5 8.5 9.3l6.5 8.7v35.1c0 19.3-.4 35.3-.8 35.6-.4.2-1.3.2-1.9-.2-1-.6-8.9-14-16.6-28.2-1.7-3-6.3-11.3-10.4-18.5l-7.4-12.9 1.4-11.4c1.2-9.2 1.9-11.7 3.8-13.8 2.1-2.3 2.2-2.6.6-4.1-1.5-1.5-2-1.4-7.4 1-8.9 3.9-25.4 9.4-33.2 11-3.8.8-7.4 1.8-8 2.1-1.8 1.2-1.2 2.3 1.4 3 1.4.4 5.4 4.2 9.5 9l7.1 8.4 1.4 24.4c.8 13.3 1.7 27.7 2 31.8.6 8.3-.3 11.2-2.9 9.1-.9-.8-9.6-12.7-19.3-26.5s-18.1-25.7-18.6-26.4c-.6-.7-.5-5.1.2-11.9.8-8.1 1.6-11.2 3-12.6 1.8-1.8 1.8-2.1.2-4.8-1.5-2.7-2-2.9-7.7-2.9-3.4 0-7.6.3-9.3.6l-3.1.6V384h248.7l1.2-9.2c.7-5.1 1.9-12.2 2.7-15.7 1-4.3 1.1-6.7.4-7.6-1.2-1.5-25-64-25.7-67.5-.8-4.3 4.2-21.9 7.1-24.9 2.2-2.3 2.3-2.8 1.1-4.5-.8-1-1.2-2.3-.9-2.7.7-1.1-22.6-7.9-27.2-7.9-.3 0 1.5 3.9 4 8.7l4.4 8.8-2.8 32.8c-3 34.6-3.6 39.7-4.9 39.7-2 0-2.5-1.2-23-52l-6.7-16.5 2.1-9.7c1.5-7.3 2.6-10.4 4.6-12.5 1.9-1.9 2.8-4.2 3.1-7.3.4-4.2.1-5.1-5.6-13-6.5-8.9-17.2-21-18.7-21-.5 0 .7 2.6 2.7 5.7 3.6 5.6 3.7 6.1 3.6 14.3-.5 23.6-2.4 61.8-3.3 64l-1.1 2.4-1.8-2.4c-3.2-4.2-30-62.5-30-65.2 0-6.3 3.2-20.4 5-22.3 1.1-1.2 2-3.5 2-5.1 0-1.7.5-3.5 1.1-4.1.7-.7-2.8-4.8-11.7-13.7-7.1-6.9-13.3-12.6-13.9-12.6-.5 0-3.2 1.3-6 2.9m232.7-.6c.2 1.5.8 2.6 1.3 2.5 1.2-.3.8-2.9-.7-4.3q-.9-1.05-.6 1.8m166.7 51.3c-1.6 2-1.3 6.3.7 8.4 1.2 1.2 1.4.7 1.4-4.3 0-3.1-.2-5.7-.4-5.7s-1 .7-1.7 1.6M481.5 229c-12.4 2.5-17.5 3.9-17.5 5 0 .4-.2 1.5-.5 2.2-.4.9.4 1.9 1.8 2.5 1.5.7 4.2 4.4 7.1 9.8l4.7 8.6-3.1 20.2c-1.7 11.1-3.8 24.7-4.6 30.2-.9 5.4-2 10.8-2.6 11.9-1 1.9-1.1 1.9-2.3.2-.8-1-3-6.3-5-11.9s-4.5-12.5-5.5-15.2c-1.1-2.8-4.2-11.4-7-19.3l-5.2-14.2 2.7-8.3c1.5-4.5 3.8-9.4 5.1-10.8 1.4-1.4 2.2-2.8 1.9-3.1-.3-.2-5.6.2-11.7.9-6.2.8-15.3 1.3-20.1 1.1l-8.8-.3.6 2.4c.3 1.3 1.6 3.2 2.8 4.1 1.2 1 4 5.4 6.1 9.9l4 8.1-3.8 30.2c-2.1 16.7-4.3 31.2-4.9 32.3-1 1.9-1 1.9-2.5-.4-.9-1.3-3.8-8.2-6.5-15.5-10.5-28.3-15-40.1-15.5-40.6-.2-.3-.2 2 .2 5 .3 3 1.3 14.6 2.1 25.7s2 22.6 2.6 25.5c1.5 6.6 1.6 21.3.6 42.5l-.8 16.3H512v-37.5c0-35.1-.1-37.7-1.8-39.6-1.8-1.8-22.2-57.9-22.2-60.7 0-1.4 3.5-13.2 5-17 1.2-2.7.9-2.7-11.5-.2m-87.3 11c-1.2 1-2.7 2-3.3 2.2-.8.3-.6 1.4.5 3.6 1.9 3.6 3.2 4.1 4.1 1.3.3-1.1 1.2-2.1 1.9-2.4.8-.3 1.1-1.6.8-3.6-.5-3.6-.9-3.7-4-1.1m-141.9 19.4 4.2 4.3 2.3-2.1c1.3-1.2 2.8-2.9 3.4-4 .9-1.7.6-1.8-3.9-1.1-2.7.3-6 .2-7.5-.4-2.3-.9-2.2-.5 1.5 3.3m7.5 11.9c1.6 2.9 3.2 6.1 3.4 7.2s.7-.8 1.2-4.3c.4-3.4.4-6.7.1-7.2-.3-.6-2.2-1-4.2-1h-3.5zm1.4 34.7c0 1.4.2 1.9.5 1.2.2-.6.2-1.8 0-2.5-.3-.6-.5-.1-.5 1.3m-.9 8.5c0 2.2.2 3 .4 1.7.2-1.2.2-3 0-4-.3-.9-.5.1-.4 2.3m-1.1 9c-.1 2.2-.4 5.8-.7 8l-.5 4 1.1-4c.5-2.2.8-5.8.6-8l-.4-4z"/></svg>