<svg xmlns="http://www.w3.org/2000/svg" width="682.667" height="512" version="1.0" viewBox="0 0 512 384"><path d="M0 92c0 91.2 0 92 2 92 3.3 0 27.9-5 38-7.7 21.8-5.8 44.7-14.6 67.2-25.9 11.5-5.8 13.1-5.7 19.3.7 2.8 2.8 11.1 10.4 18.5 16.9 13.5 11.8 27.4 25.7 44.8 44.8 5.1 5.6 12 12.2 15.3 14.8 11.3 8.7 26.1 13.5 42.5 13.7l8.6.2.3-3c.3-3.4 4.7-14.2 10.7-25.7 5.7-11 14.3-18.9 27-24.8 9-4.1 9.8-4.7 9.8-7.3 0-1.8-.4-2.6-1.1-2.1-.8.4-.9-.3-.4-2.5.3-1.7.4-3.5.1-4-1-1.5-4.3-.1-5.3 2.2-1 2.1-1.1 2-1.7-.9-.4-1.8-1.5-3.9-2.5-4.8-1.8-1.6-2-1.5-4 1-2.6 3.3-3.6 2.7-2.1-1.1 1.2-3.2.7-5.5-1.2-5.5-.7 0-3.1 1.9-5.5 4.2l-4.2 4.1 2.4-5.9c1.4-3.2 2.5-6.6 2.5-7.5 0-1.9-3.1-4.9-5.1-4.9-.8 0-2.4-.7-3.6-1.5l-2.2-1.5 2.4-3.7c3.1-4.4 3.1-6.4.3-9-2.6-2.2-8.8-5.5-8.8-4.5 0 .3 1.2 1.9 2.8 3.5 3.3 3.6.2 2.3-4-1.7-3-2.7-3.4-2.6-1.8.5 1.5 2.7-.2 2.4-3.8-.6-2.1-1.8-3.2-2.1-3.5-1.3-.2.7-1.1-.2-2.1-2-.9-1.8-2.1-3-2.5-2.7-.5.3-1.2-1.9-1.6-4.7-1.1-7.8-1.8-8.6-4-3.8-2.5 5.5-3.5 5.9-2.4.9.6-2.3.8-4.3.6-4.5-.2-.3-3 1.1-6.2 3.1-6.6 4-7.2 4.1-10.1 2-1.2-.8-2.4-1.1-2.8-.8-.4.4-.9-.3-1.3-1.5-.3-1.2-1.3-2.2-2.3-2.2-1.1 0-2.2-1.2-2.9-3.1-1.3-3.8-.7-4.9 2.4-4.9 1.5 0 5-2.2 9.2-5.9 11-9.5 19.3-17.8 19.3-19.3 0-.7-.7-4.5-1.5-8.3-2.2-10.5-2-16 .7-17.9 1.2-.9 3-1.6 3.9-1.6 1 0 3.7-2.9 6.4-7 2.5-3.8 6.7-8.8 9.3-11.1 6.6-5.8 19.3-13.4 28.7-17.2 7.9-3.2 8.2-3.2 24-3.1 13.9.1 17.3.5 25.8 2.8 5.7 1.5 10.8 2.4 12.3 2 2.2-.6 3.9.8 13.3 10.4 11.2 11.4 17.4 20.1 19.7 27.9 2 6.7 1.7 19.6-.6 28.7l-2 7.8 2.1 4.1c3.9 7.8 11.2 16.5 16 19.2 5.4 2.9 6.2 4.3 4.6 7.5-2.2 4.2-4.3 4.7-6.7 1.7-1.2-1.5-2.5-2.5-3-2.2s-3 .1-5.6-.5-4.9-.8-5.2-.6c-.3.3.8 2.2 2.3 4.2l2.8 3.7-2.6-.7c-3.3-.8-3.3-.7-.2 5.4 2.8 5.5 2.3 6-3.2 3-3.7-1.9-6.3-2.6-6.3-1.5 0 .3 1 1.9 2.2 3.5 1.7 2.3 1.9 3.3 1 4.2-.7.7-1.2 2.1-1.2 3.1 0 1.6-.6 1.3-4-1.7-2.2-2-4.2-3.6-4.4-3.6-.6 0-.2 5.1.9 12.7.4 2.9.4 5.3-.1 5.3-.4 0-2.7-1.8-5-4.1-3.8-3.7-4.2-3.9-5.8-2.4-1.1 1.1-1.4 2.5-1 4.2.5 1.8.3 2.4-.5 1.9-1.4-.9-1.4.8-.1 5.4.9 3.4.9 3.4-.8 1.4-.9-1.1-2.5-3.1-3.4-4.5l-1.8-2.4.6 3c.6 2.9.6 2.9-4.5-2l-5.2-5 .6 4.5c.6 4.5.6 4.5-.9 1.5-.8-1.7-1.9-4.1-2.4-5.5-.9-2.1-1.1-1.7-1.1 3.2-.1 5.5 0 5.8 2.4 5.8 3 0 2.9-.2.9 4.5-1.4 3.4-1.4 3.8.3 5 1 .8 3.8 1.9 6.3 2.5 7.6 2 17.8 6 20.4 8.1 2.9 2.3 9.2 14.4 10.2 19.6.4 2.1 2.2 6.9 4.1 10.7l3.5 6.9 16.1-.6c10.2-.3 18.3-1.1 21.7-2.1 4-1.1 10-1.6 21.5-1.6 17.9 0 24-1.1 34.2-6.1 6.2-3 14.4-9 21.6-15.8l3.7-3.5V0H0z"/><path d="M341.8 163.6c-.3.5-.1 2 .5 3.4.8 2 1.1 2.2 1.4.8.5-2-1.2-5.5-1.9-4.2m-237.3 5.5c-4.9 2.9-9.1 5.3-9.3 5.5-.2.1.4 1.4 1.3 2.8s1.4 3.3 1.1 4.3c-.4 1.3.3 2.3 2.3 3.4 1.5.9 5.5 5.2 8.8 9.6l6.1 7.9.3 36.1c.2 19.9 0 36.5-.4 36.9-1.3 1.3-4.3-2.7-10.6-14-3.4-6-6.1-11-6.1-11.1 0-.2-4.5-8.3-10-18-10.9-19.3-10.7-18.6-8.9-32.6.9-7 1.6-9.2 3.5-11 2.1-2 2.2-2.3.8-4.4l-1.5-2.3-7.2 3.2c-8.8 4-21.4 8.3-32.6 11-4.7 1.2-8.6 2.6-8.8 3.2-.2.5 1 1.7 2.6 2.5 1.5.8 5.9 4.9 9.6 9.1l6.7 7.7 1.3 22.8c2.5 41.5 2.6 43.8 1.6 45.3-1.4 2.1-3.4 0-11.6-12.2-3.8-5.7-12.1-17.7-18.3-26.8l-11.4-16.5.7-11c.6-9.6 1-11.3 3-13.4 2.1-2.2 2.2-2.5.8-5.3-2-4-3.3-4.3-11.4-2.9L0 200.2V384h249l.4-2.3c2.3-12 4.4-29.2 3.7-30.1-.5-.6-3.5-8.1-6.8-16.6s-9.1-23.4-12.8-33c-3.8-9.6-6.8-18-6.8-18.5 0-.6 1-5.4 2.2-10.8 1.5-6.4 3.1-10.7 4.7-12.6 2.1-2.5 2.2-3.2 1.2-5.9-1-2.6-2.1-3.3-8.2-5.1-8.8-2.6-18.5-4.6-19.2-3.9-.2.3 1.4 3.8 3.7 7.9l4.2 7.3-.7 12c-1.3 22.7-4.6 60.8-5.4 62.2-1.5 2.7-3.8-1.6-15.2-29.1-6.1-14.9-12.3-29.5-13.7-32.6l-2.5-5.7 2.1-10.3c1.7-8.1 2.7-11 4.9-13.4s2.7-4 2.7-7.7c0-4.3-.7-5.6-7.3-14.7-7.2-9.7-16.7-19.9-17.6-19-.3.2 1.4 3.3 3.6 6.8l4.1 6.4-.8 21.1c-1.1 34.2-2.2 51.7-3.2 52.7-1.4 1.4-3.3-1.4-8.8-13.1-2.7-5.8-8.8-18.7-13.6-28.8-12-24.9-11.4-22.8-9.6-35.1 1.2-8.1 2.1-10.9 3.9-12.8 1.4-1.5 2.2-3.4 2-4.8-.2-1.3.1-3.3.7-4.3.9-1.7-.6-3.5-11-13.8-6.8-6.8-12.9-12-14.2-12.2-1.2-.1-6.1 2-11.2 4.9m404.9 46.1c-2.4 2.6-2.3 7.8.2 9.9 2.2 1.8 2.5.7 2.2-6.1l-.3-6.2zM479 229c-13.1 2.7-15.3 3.4-16.4 5.4-.9 1.4-.6 2.1 1.7 3.8 3.2 2.4 10.7 16.5 10.7 20.3 0 4.2-9.1 57.8-10.1 59.7-.5 1-1.2 1.8-1.4 1.8-1 0-3.6-6.5-10.5-26-3.9-11.3-8.3-23.8-9.7-27.8l-2.6-7.4 2.9-9c1.8-5.8 3.7-9.6 5.2-10.8 1.2-1 1.9-2 1.5-2.2-.7-.4-12.7.3-33 1.8-8.3.6-9.2 1.9-4.5 5.9 1.6 1.3 4.5 5.9 6.5 10.3l3.7 7.9-1.9 14.4c-1.1 7.9-2.9 21.6-4.1 30.4-2.8 20.9-4.2 22.6-8.5 10.7-1.2-3.1-5.4-14.7-9.4-25.7-7.3-19.9-9.9-25.4-8.7-18.5.3 1.9 1.3 12.5 2.1 23.5.9 11 2.3 23.8 3.2 28.5 1.2 6.7 1.4 12.3.9 27-.3 10.2-.9 21.3-1.2 24.7l-.7 6.3H512l-.1-41.8c-.1-22.9-.4-40.7-.6-39.5s-1 2.7-1.8 3.3c-1.9 1.6-3-.7-12-27-4.2-12.4-8.5-24.8-9.5-27.6l-1.9-5.1 2.8-8.9c1.6-4.9 2.7-9.2 2.4-9.7-.6-1-2.5-.8-12.3 1.3m-87.3 11.3c-2.7 2.3-2.7 2.4-1.1 5.6l1.7 3.3 2.3-2.8c2.5-3.1 3.2-8.4 1.2-8.4-.7.1-2.5 1.1-4.1 2.3m-141.2 17.6c1.3.8 2.9 2.6 3.5 3.9l1.1 2.5 2.5-2.4c5.2-4.8 4.9-5.4-2.6-5.4-6.4 0-6.7.1-4.5 1.4m8.8 13.3c1.8 3.1 3.5 5.4 3.8 5 .4-.4.9-2.7 1.1-5.2l.3-4.5-4.1-.5-4.2-.6zm.9 43.3c0 1.6.2 2.2.5 1.2.2-.9.2-2.3 0-3-.3-.6-.5.1-.5 1.8m-1 12.5c0 1.9.2 2.7.5 1.7.2-.9.2-2.5 0-3.5-.3-.9-.5-.1-.5 1.8"/></svg>