<svg xmlns="http://www.w3.org/2000/svg" width="682.667" height="512" version="1.0" viewBox="0 0 512 384"><path d="M172.5 19.7c-.6.4-2.2 2.2-3.7 4-2.6 3.2-2.6 3.3-2.4 19.7 0 9 .4 16.8.9 17.2.4.4.7 1.6.7 2.6s.4 1.8.9 1.8.7.8.5 1.7c-.3 1 .1 2.7.9 3.7 1.3 1.8 2 1.9 7.1 1 8.5-1.6 8.5-1.2-.6 10.2-5.7 7-6.4 11.3-2.3 14 1.4.9 3.1 1.4 4 1.1.8-.4 1.7-.2 2 .3.4.6 1.5 1 2.5 1 1.7 0 1.9.8 1.7 11.2-.2 12 .8 28.6 1.7 29.6.3.3.6-.2.6-1.1s.5-1.9 1.2-2.3c.8-.5 1 1.4.5 7.7-.5 7.6-.5 8.1.8 5.4 1.1-2.6 1.3-2.7 1.4-.8.1 2.8-.9 5.3-2.1 5.3-.9 0-6.9 4.2-9.9 7-3.5 3.3-4.7 9.2-5.1 25.8-.1 8-1.3 10.2-5.3 10.2-3.4 0-7.1 1.6-7.8 3.3-.3.8 1 3.7 2.8 6.3 4.1 5.9 4.3 7.8 2 21.9l-1.7 10.9-13.4 23.6c-7.4 13-13.4 24.2-13.4 24.9s1.2 3.6 2.7 6.3c2.6 4.8 2.7 5 1.5 13.2-1.8 12.5-1.6 20.5.7 23 1.8 2.1 1.8 2.3-.5 13.6-4.3 20.6-4.2 34.4.1 38 1.9 1.6 8.5 3 8.5 1.9 0-.5 2-3.5 4.4-6.6 2.4-3.2 6.9-9.8 10-14.6 3.2-4.9 5.9-8.7 6-8.5.2.1-1.3 7-3.3 15.3l-3.7 15 72.9.3c40.2.1 73.2 0 73.4-.2s-1.9-7-4.7-15l-5.1-14.7 3-3c3.8-3.7 7.3-14.4 9.5-28.9 1.5-9.4 2-10.8 4.6-13 4.7-4 5.2-6.8 2.8-15.1-1.9-6.3-2-7.7-1-12.8 1.9-9.1 1.5-11.5-3.4-21.4-4.4-8.6-16.2-36.2-17.9-41.6-.4-1.4-2-5.2-3.5-8.5l-2.7-6.1 2.3-4.5c1.3-2.5 2.4-5.5 2.4-6.7 0-3.6-4.1-7.4-9.5-8.7-5.5-1.4-5.3-1.1-8-13.8-1.3-6.2-2.3-8.4-5.5-12.1-3.1-3.5-4-5.3-4-8.1 0-2.6.4-3.6 1.6-3.6 1 0 1.4-.6 1-1.8-.3-.9-.8-6.8-1.2-13-.3-6.1-1-11.2-1.5-11.2-1.2 0-2.3-7.1-1.3-7.9.5-.3.9-1.3.9-2.1s.7-1.5 1.5-1.5 2.6-2 3.9-4.4c2.6-4.7 3.4-13.4 1.8-19.5-.7-2.5-.6-2.8 1-2.1 4.5 1.9 7.3 1.7 9.3-.6 1-1.3 1.9-3 2-3.7 0-.6.9-2.1 2-3.2s2-2.9 2-3.9c0-1.1.5-2.3 1-2.6.6-.3 1-1.9 1-3.4 0-1.6.6-3.3 1.3-3.9s1.4-2.3 1.5-3.7.9-3.3 1.7-4.1c.8-.9 1.5-2.4 1.5-3.4s.4-2.1.8-2.4c1-.6.9-3.6-.2-5.4-.4-.7-.6-1.6-.3-1.9 1.3-1.3-2.4-3.5-10.3-6-7.3-2.4-10.2-2.8-20.5-2.8-13.4 0-18.3 1.2-21.5 5.2l-2 2.6-2-2.1c-1.1-1.2-3.7-2.6-5.7-3.1-4.8-1.4-15-1.4-15.8-.1-.9 1.4-2.5 1.2-2.5-.3 0-3.3-8.1-8.1-19.1-11.5-7-2.2-26.7-3.9-28.4-2.5"/></svg>