<svg xmlns="http://www.w3.org/2000/svg" width="682.667" height="512" version="1.0" viewBox="0 0 512 384"><path d="M0 92v92h2.4c4.1 0 23.2-3.9 37.4-7.6 18.4-4.8 35.4-11.1 57.7-21.5 10.5-4.9 20.2-8.9 21.6-8.9 1.7 0 4.1 1.6 7.5 5.3 2.8 2.9 12 11.4 20.5 18.8 8.5 7.5 20.4 19 26.4 25.5s15.9 16.9 22 23c9.4 9.4 12.3 11.7 19.5 15.3 9.7 4.7 18.5 6.9 31.5 7.8l9 .6 1.2-5.4c.7-3 4.2-11.4 7.8-18.8 8.2-16.8 14-22.8 28.1-29.7l9.3-4.6-.1-5.6c0-3.1-.3-6-.5-6.5-.7-1.2-4.3 1.2-4.3 2.9 0 .8-.4 1.2-1 .9-.5-.3-1-1.4-1-2.4 0-1.1-.8-2.9-1.8-4.1l-1.9-2.3-2.6 2.9c-2.8 3-3.4 2.3-1.7-2.1.8-2 .7-3-.4-4.1-1.3-1.2-2.1-.7-6.5 3.8l-5.1 5.3 3-6.7c1.6-3.7 3-7.4 3-8.1 0-2.1-3.2-4.6-6.8-5.3-4.4-.9-4.7-1.8-1.7-6.1 3.1-4.6 3.1-6.4.3-9-2.7-2.4-8.8-5.7-8.8-4.6 0 .4 1.2 2 2.7 3.5 3.8 3.9 1.5 3.5-3-.6-3.9-3.6-4.3-3.7-2.6-.4 1 1.8.8 1.9-1.3 1.3-1.2-.4-3-1.6-3.9-2.8-1.2-1.5-1.7-1.7-2.1-.6-.3.8-1.1.2-2.3-1.9-1.1-1.8-2.2-2.7-2.6-2.1-.3.6-1-1.1-1.3-3.7-1.5-10.1-1.6-10.3-4.3-5-2.8 5.4-3.7 5.6-2.3.5 1.7-5.8 1.2-6.1-4.2-2.4-5.2 3.5-11 4.6-12.3 2.5-.4-.6-1-.8-1.5-.5s-1.4-.4-2-1.5-1.7-2-2.6-2c-1.6 0-3.7-4.7-3-6.7.3-.7 1.7-1.3 3.1-1.3 2.5 0 14-9.5 24.3-20.3l4.3-4.4-1.5-7.6c-.9-4.2-1.6-10-1.6-13 0-5.6 1.2-7.1 6.4-7.9 1.1-.2 3.2-2.5 4.9-5.3 7-12.1 21.5-22.9 40.9-30.6 11.4-4.5 28.5-4.3 48.6.7 5.6 1.4 11.1 2.2 12.2 1.9 1.6-.5 4.1 1.5 11.8 9.2C379.1 42 382.9 46.9 387.5 56c4 7.8 4.6 20.1 1.5 32.3l-2.1 8.7 3.1 5.8c4.4 8.4 10.5 15.3 15.6 18 4.8 2.5 5.6 5 2.8 9-2 2.9-3.8 2.8-5.8-.3-.9-1.4-2.1-2.3-2.6-2s-3 0-5.5-.6-4.8-.9-5.1-.6c-.4.3.3 1.9 1.5 3.5 2.7 3.9 2.6 4.4-.5 3.6l-2.6-.7 2.7 5.3c1.4 2.8 2.4 5.4 2.2 5.7-.3.2-2.2-.5-4.3-1.6-3.8-2.1-6.4-2.7-6.4-1.5 0 .3.9 1.9 2 3.4 1.8 2.5 1.9 3 .5 4.3-.9.9-1.2 2.3-.8 3.4.6 1.6.5 1.7-1.3.3-1-.8-2.9-2.3-4.1-3.4-3.8-3.2-4.3-1-2.4 9.3.7 3.4 1 6.5.7 6.8-.2.3-2.4-1.5-4.7-3.8-2.4-2.4-5.1-4.4-6.1-4.4-1.5-.1-1.7.5-1.3 4.3.4 4 .3 4.3-1.2 3.1-1.4-1.2-1.5-1.1-1 .6.3 1.1.9 3.3 1.3 5 .6 3 .6 3-2-.8-3-4.1-4.1-4.7-3.3-1.7.8 2.9-2.3 1-5.9-3.7l-2.9-3.8-.5 4-.5 4-2.3-6-2.2-6 .3 5.3c.2 5.2-.6 6.9-1.6 3.2-.3-1.1-1-2-1.5-2-1.1 0-.4 3.8 1.1 5.7.5.7 2.5 1.3 4.3 1.3h3.4l-1.7 4.1c-2 5-2.4 4.7 12.1 9.4 6 1.9 12.4 4.6 14.1 5.9 3.6 2.8 10 15 11 21.1.4 2.2 2.3 6.9 4.2 10.4l3.5 6.4 15.7-.6c8.6-.3 17.2-1.1 19.1-1.7 2-.8 12.3-1.6 24-2 18.3-.6 21.3-1 27.6-3.2 8.8-3.2 13.6-6.2 24.2-15l8.2-6.9V0H0z"/><path d="M105.5 168.6c-10.8 6.2-11.3 6.8-9.1 9.3 1.1 1.2 1.5 2.7 1.2 3.9-.5 1.5.1 2.5 2.4 3.9 1.7 1.1 5.8 5.7 9.1 10.3l5.9 8.3v33.1c0 18.2-.3 34.8-.6 36.9-1.3 7.6-2.4 6-22.4-31.8-15.9-30.3-15-28.1-14.4-33.8 1.4-13.3 2.3-17 4.9-19.7 2.5-2.6 2.5-2.7.6-4.4-1.9-1.8-2.3-1.7-11.7 2.3-9.9 4.3-26.6 9.5-34.1 10.7-3.3.5-4.3 1.1-4.3 2.5 0 1.1.9 2.1 2.3 2.4 1.3.4 5.3 4.4 9.2 9.3l6.9 8.6.8 13.1c.4 7.1.9 22.9 1 35 .3 18.9.1 22-1.2 22-1.5 0-3.6-3-20.5-29.5-4.9-7.8-11.2-17.5-13.8-21.6l-4.8-7.5 1.1-11.2c.9-8.7 1.5-11.6 3.1-13.3 1.8-2 1.8-2.3.4-5.8-1.5-3.5-1.9-3.8-4.8-3.3-1.8.4-5.3.9-8 1.3l-4.7.6V384l124.8-.2 124.7-.3.3-3.5c.1-1.9 1.2-8.9 2.2-15.4 1.7-10 1.8-12.2.7-13.5-.7-.9-7-16.5-14-34.6l-12.6-33.1 2.8-10.7c1.7-6.6 3.6-11.6 4.9-13 1.9-2 2-2.7 1-5.4s-2.1-3.4-8.2-5.2c-9.2-2.7-18.5-4.5-19.2-3.8-.3.3 1.3 4 3.6 8.2l4.2 7.7-1.7 24.1c-2.4 33.2-4 50.6-4.9 51.5-1.7 1.6-3.9-3.2-24.3-53.3l-6.5-16 1.8-9.9c1.5-8.2 2.3-10.6 4.8-13.4 2.3-2.6 3-4.5 3.1-8.1.2-4.3-.3-5.3-6.9-14.1-7.5-10.1-17.3-20.6-18.3-19.6-.3.3 1.3 3.6 3.6 7.3l4.3 6.7-1.7 35c-1.6 34.9-2 39.6-3.5 39.6s-2.8-2.6-12-22.5c-5.1-11-11.7-25.3-14.7-31.8l-5.5-11.8.6-7.7c.9-10.6 2.1-15 4.5-17.6 1.2-1.2 2.1-3.5 2.1-5.2 0-1.6.4-3.5.9-4.3 1-1.6-23.1-26.1-25.8-26.1-.9 0-5.2 2.1-9.6 4.6m403.8 46.5c-1.3 1.5-2.3 3.8-2.3 5.2 0 2.3 3.5 6.6 4.6 5.5.3-.3.4-3.5.2-7l-.3-6.4zm-23.8 12.5c-17.3 3.6-21.2 4.7-22.8 6.7-1.8 2-1.8 2.1.7 3.4 1.7.9 4.2 4.5 7.2 10.5l4.6 9.1-4.6 26.1c-5.8 32.6-6.5 35.6-8.1 35.6s-2.8-3.1-14-36l-8.4-24.8 3.1-8.8c1.7-5 4-9.6 5.2-10.6 1.1-.9 1.9-1.9 1.6-2.1-.3-.3-4.1-.1-8.5.3-4.4.5-11.2.9-15.1.9-11.5.1-16.4 1.1-16.4 3.2 0 1 .9 2.3 2 2.9 2.6 1.4 10 16.1 10 19.9 0 4.9-7.9 57.4-9 60-.8 1.7-1.4 2.1-2.1 1.4-.6-.6-5.3-12.6-10.4-26.8-5.1-14.1-9.6-26-10-26.3-.4-.4-.5 1.3-.1 3.8.3 2.5 1.3 13 2.1 23.5.8 10.4 2 21.5 2.7 24.5 1.3 6.7 1.6 25.3.5 45.2l-.8 14.8H512l-.1-44.8c-.1-38.7-.2-44-1.4-39.4-1.7 7-2.9 8.2-4.8 4.6-.8-1.6-5.6-15.5-10.7-30.9l-9.3-27.9 3.1-9.3c3.3-10.2 3.4-10-3.3-8.7m-93.9 12.7c-2.8 2.3-2.8 2.3-1.2 5.5l1.7 3.3 2.4-3c2.6-3 3.4-8.1 1.3-8.1-.7 0-2.6 1-4.2 2.3m-139.8 19.4c1.9 1.8 3.8 3.3 4.2 3.3.7 0 4.3-3.8 5.3-5.5.3-.6-2-1-6.2-1h-6.7zm4.2 5.8c0 1.3 6.9 11.5 7.3 10.8.7-1.1 1.2-9.1.7-9.6-.7-.6-8-1.7-8-1.2m3.2 59.5c0 1.9.2 2.7.5 1.7.2-.9.2-2.5 0-3.5-.3-.9-.5-.1-.5 1.8"/></svg>