<svg xmlns="http://www.w3.org/2000/svg" width="682.667" height="512" version="1.0" viewBox="0 0 512 384"><path d="M0 92c0 84.5.1 92 1.6 92 2.8 0 26.3-5 35.9-7.6 8.7-2.4 12.7-3.7 28-9.1 3.9-1.4 15.7-6.8 26.2-12 13.6-6.7 20.3-9.5 22.9-9.5 3.1 0 4.6 1 11.2 7.5 4.3 4.1 14 13.1 21.8 20 7.7 6.9 20.8 19.9 29.1 28.9 16.6 18.2 23.4 24 32.6 28.6 8.7 4.2 24.2 7.4 34.2 7l7.9-.3 2.6-7c9.3-25.1 17.2-35.5 32.6-43.2 8-3.9 9.3-4.9 9.8-7.5.7-3.4 0-5.2-1.6-4.2-.7.5-.9-.2-.4-2 .7-2.8-1-3.7-2-1.1-.9 2.3-2.4 1.8-2.4-.9 0-1.4-.7-3.2-1.6-4.1-1.5-1.5-1.9-1.4-4.3.9-3.7 3.6-4.2 3.3-2.6-1.3 1.1-3.2 1.1-4.2.1-5-.9-.8-2.3.2-5.4 3.4-2.3 2.5-4.6 4.5-5.2 4.5-.5 0 .5-2.9 2.1-6.5 1.7-3.5 2.9-7.2 2.7-8.2-.2-1.1-2-2.3-4.3-3.1-5.7-1.9-5.9-2.5-3.1-6.7 1.4-2.1 2.6-4.3 2.6-4.9-.1-1.7-5.2-6.3-8-7.1-2.5-.8-2.5-.8-.6 1.4 2.6 2.9 1.2 4-1.7 1.3-2.7-2.6-4.2-2.8-3.3-.6.4 1 .2 1.4-.6 1-.7-.3-2.1-.9-3-1.2-1-.4-1.8-1.1-1.8-1.6 0-.6-.6-.8-1.4-.5-.9.4-2.1-.5-3.1-1.9-.9-1.4-2-2.2-2.4-1.9-.5.2-1.4-2.5-2.1-6.2l-1.3-6.6-1.8 3.6c-2.1 4-4.5 6.1-3.6 3.1 1.5-4.8 1.9-7.4 1.1-7.4-.4 0-2.9 1.4-5.6 3.1-4.1 2.7-5.5 3.1-9.1 2.6-2.7-.4-4.7-1.3-5.6-2.6-.7-1.2-2-2.1-2.7-2.1-1.7 0-3.7-4.7-3-6.7.3-.7 1.7-1.3 3.1-1.3 2.6 0 12.6-8.3 23.3-19.3l5.4-5.4-1.2-7.9c-.6-4.3-1-10.2-.8-12.9.3-4.5.6-5.2 3.7-6.7 2.1-1.1 4.5-3.6 6.4-7 6.9-12 24.7-24.5 43.7-30.4 11.1-3.5 27.4-2.7 45.8 2.1 5.2 1.4 10.6 2.5 12 2.5 4 0 22.6 19.3 27.4 28.5 6.2 11.8 6.7 20.1 2.6 38.8-1.2 5.5-1.1 6.1 1.1 10.2 3.7 7 11.4 15.8 15.9 18.3 4.6 2.6 5.4 5.1 2.6 9-1.9 2.7-3.8 2.8-6.1.3-1.4-1.4-9.7-4.1-12.9-4.1-.3 0 .4 1.5 1.5 3.4 2.6 4.2 2.6 5 .1 4.3-2.5-.6-2.5-.6.5 5.3 2.8 5.5 2 6.3-3 3-1.6-1.1-3.8-2-4.8-2-1.7 0-1.7.2.4 3.1 2.1 3 1.9 4.8-.8 8.8-.2.3-1.7-.8-3.3-2.4-4.3-4.1-4.9-2.9-3.5 7.7.9 7-.4 7.6-5.4 2.4-3.8-3.9-6.1-3.7-6.1.5 0 1.6-.5 2.9-1 2.9-.7 0-.8 1.3-.4 3.5.7 4.1 0 4.4-2.7 1.2-1.7-2.1-1.8-2.1-1.9-.2 0 1.6-.8 1.1-4.5-2.5-4.5-4.4-4.5-4.4-4.5-1.7 0 3.5-1.6 3.5-2.5-.1l-.7-2.7-1.3 3.5c-1.1 3.2-1 3.6.7 4.3 1.1.4 2.4.5 2.8.2 1.6-1 1.9 1.2.8 4.8-.6 2-.9 4-.5 4.3.3.3 6 2.6 12.7 4.9 11.8 4.2 19 8.3 19 10.8 0 .7 1.1 3.3 2.5 5.8 1.3 2.6 2.9 6.8 3.6 9.5 1.3 5.4 6.5 16.5 8.3 17.6.6.4 3.4.8 6.2.8 6.2 0 27.1-2.7 28.7-3.7.7-.4 10.7-.8 22.2-.8 19.2-.1 21.6-.3 28-2.4 3.9-1.3 9-3.5 11.5-4.9 5-2.9 16.5-11.4 22.3-16.6l3.7-3.3V0H0z"/><path d="M101 168.1c-4.7 2.8-8.7 5.3-8.9 5.5s.4 1.3 1.4 2.4c1.1 1.3 1.5 2.7 1.1 4.4-.5 2 0 2.8 2.7 4.3 2 1.2 5.5 5.5 9.1 11.2l5.8 9.2-.6 7.2c-.3 4-1.1 19.3-1.6 34.2-1.2 30.5-1.5 32.7-3.8 32.3-2-.4-4.8-5.9-19.1-37.5-14.8-32.7-13.8-29-11.3-41.2 1.4-6.9 2.8-11.1 4.1-12.5 2.5-2.6 2.6-3.9.7-5.5-1.1-1-2.7-.6-7.3 1.7-7.3 3.7-18.4 7.7-29.2 10.6-6.6 1.8-8.6 2.7-9.2 4.4-.7 1.8-.3 2.5 2.2 3.7 1.8 1 5.2 5 8.6 10.3l5.6 8.6-.7 24.1c-1 32.7-2.1 48.4-3.5 49.8-1.7 1.7-3.6-1.1-10.1-15.1-3-6.4-7.9-16.9-10.8-23.2-13-27.6-12.4-26-11.9-32 .9-9.2 2.7-15.9 5.3-18.9 2.3-2.8 2.3-3 .7-6.1l-1.6-3.3-7 .7c-3.9.4-8.1.9-9.4 1.2l-2.3.6V384h244.7l.6-4.8c.4-2.6 1.7-10 2.9-16.5l2.2-11.9-2.1-1.6c-2.8-2.3-2.6-1.8-14.2-32.7-5.7-14.9-11.1-29.3-12.3-32.2l-2-5.1 2.3-10.3c1.6-6.9 3.1-11.1 4.7-13.1 2.1-2.5 2.3-3.2 1.2-5.7-1-2.5-2.2-3.1-9.3-5-10.8-2.8-17.1-4.1-17.5-3.6-.3.2 1.4 3.8 3.7 7.9 4.9 8.9 4.8 7.3 2.1 42.2-3.1 41.3-3.2 41.4-5.4 41.4-2 0-4.1-4.5-15.1-32.6-5.8-14.8-11.5-29-12.7-31.6l-2.1-4.7 1.9-10.3c1.5-8.4 2.4-10.9 4.8-13.6 2.2-2.5 3-4.5 3.2-7.8.1-3.9-.5-5.2-4.9-11.2-6.7-8.9-9.2-11.8-15.6-17.7l-5.4-5 2.8 5c1.6 2.7 3.7 6.3 4.7 7.9 1.3 2.2 1.6 4.4 1.2 9-.2 3.4-1.1 18.9-1.9 34.6-.9 15.7-1.8 29.7-2.1 31.2-.7 3.4-2.8 3.6-4.8.5-1.2-1.8-22.6-51.2-27.6-63.5-1.9-4.9 1.3-22.6 4.8-26.1q2.4-2.4 1.8-4.5c-.3-1.3.2-3.2 1-4.5 1.5-2.1 1.5-2.4-.7-3.9-1.3-.9-6.8-6-12.1-11.4-5.4-5.4-10.6-9.8-11.5-9.8-1 0-5.6 2.3-10.3 5.1M507.5 214c-4.8 5-5.6 10.1-1.9 12.5 1.3.8 3.3 3.2 4.3 5.3l2 3.7.1-12.8c0-7-.1-12.7-.3-12.7s-2.1 1.8-4.2 4m-27 14.1c-21.6 2.9-27.6 5.7-21.9 10.1 1.4 1.2 4.4 6 6.6 10.7l3.9 8.6-2.5 11.5c-1.4 6.3-3.9 18.5-5.6 27-1.8 8.5-3.6 16.7-4.2 18.2-1.3 3.6-3.5 4.2-5.2 1.5S434 260.2 434 257.2c0-3.7 5.9-17.6 8.3-19.4 2.1-1.7 1.4-1.8-16.8-1.2-10.4.3-19.6.7-20.2.9q-2.4.75 2.7 7.5c1.5 1.9 3.9 6.4 5.5 9.9 3.2 7.4 3.4 4.4-2.8 40.5-3.5 20.4-4.8 26.2-6.2 27.3-2.6 1.8-3.2.6-9.9-20-3.2-9.8-6-17.6-6.2-17.5-.6.6 2.5 29.2 4.2 38.8 1.4 7.7 1.6 13.1 1.1 28-.4 10.2-1 21.5-1.3 25.3l-.7 6.7H512l-.1-60.3c0-33.1-.2-59.8-.4-59.2-.2.5-2.5 9.1-5 19-5.8 22.8-5.3 21.5-7.4 21.5-2.6 0-3.7-1.6-5.5-8.5-.9-3.3-2.9-10.7-4.5-16.5-10.2-36.8-9.6-33.9-7.9-38.4.9-2.3 2.5-6.5 3.7-9.4 1.1-2.8 2-5.1 1.8-5.1-.1.1-2.9.5-6.2 1m-93.8 10.5c-2.4 1.3-2.6 1.7-1.6 3.7 1.6 3.1 1.6 3.1 3.4 1.3.9-.9 1.5-2.7 1.3-4-.3-2.3-.4-2.4-3.1-1m-131 14c-.3.3-3.6.6-7.3.5h-6.8l2.7 1.8c1.6 1 5.1 5.8 7.8 10.7l5 8.9-.6 8c-.3 4.4-1.5 18.3-2.6 30.8-1.1 12.6-1.9 24.3-1.7 26 .3 3 .4 2.8 2.5-2.8 1.9-5.1 2.4-9.4 3.3-28 .6-12.1 1.5-26.6 2.1-32.2s.8-10.7.4-11.3c-.3-.5-1.8-1-3.3-1-5.1 0-5.9-1.5-2.5-4.9 3.3-3.3 4.9-7.1 2.9-7.1-.7 0-1.5.3-1.9.6"/></svg>