<svg xmlns="http://www.w3.org/2000/svg" width="682.667" height="512" version="1.0" viewBox="0 0 512 384"><path d="M0 92.5c0 50.9.2 92.5.5 92.5.2 0 6.9-1.3 14.8-3 29.6-6.1 52.8-14.9 78.7-29.6 16.6-9.5 18.5-9.8 24.5-3.4 1.7 1.8 10.7 10.1 20.1 18.6 9.4 8.4 22.9 21.5 30 29.1 20.3 21.7 25.6 26.3 36.2 31 6.4 2.8 23.9 6.3 31.6 6.3 6 0 12.6-1.7 12.6-3.1 0-1.7 5.4-14.6 9.9-24.1 5.1-10.4 11.3-16.4 23.4-22.3l8.2-4.1.3-4.4.3-4.5-2.6 2.5-2.6 2.5 1-2.8c1.1-2.8.3-3.5-1.7-1.5-.9.9-1.2.5-1.2-1.8 0-5.8-1.7-6.4-7-2.7-2.3 1.8-2.4 1.7-1.6-.2 1.4-3.7 1.9-7.5.9-7.5-.5 0-2 1.2-3.4 2.6-2.7 2.9-8.5 7.3-7.7 5.8 2.2-4.2 4.1-9.3 4.5-12.5.5-3.7.5-3.8-3.6-4.9-2.2-.6-4.1-1.4-4.1-1.8s1-2.6 2.2-4.9l2.2-4.2-3.6-3.5c-3.9-3.8-7.5-5.1-4.3-1.6 2.9 3.2 1 3.5-3 .5-2.4-1.9-3.3-2.2-2.9-1.1.7 1.9.4 2-3.3.4-1.5-.6-3.1-1.1-3.5-1s-1.6-1.2-2.8-2.8c-1.2-1.7-2.6-2.8-3-2.5-.5.3-1.2-1.7-1.6-4.5-.4-2.7-.9-5-1.2-5s-1.8 1.5-3.3 3.2l-2.8 3.3 1.1-4.3c.6-2.3.8-4.5.5-4.8-.2-.3-2.6.9-5.3 2.5-6.3 4.1-13.6 4.1-14.9 0-.4-1-1.3-1.9-2-1.9-1.8 0-4.9-4.6-4.1-5.9.4-.6 2.2-1.3 4-1.7 2.6-.4 6.6-3.6 16.1-12.9l12.8-12.3-.7-3.8c-.3-2.2-.9-7.6-1.3-12-.6-8.1-.5-8.2 2.1-9.9 1.5-1 3.8-4 5.2-6.6 5-10 22.5-23.4 38.4-29.4 8.9-3.3 14.3-4.4 22.2-4.5 7.2 0 26.4 3.1 34.2 5.5 2.7.8 6 1.5 7.3 1.5 1.8 0 5.3 2.9 12.7 10.4 11.2 11.4 15.5 18.1 18.2 28.9 1.6 6.4 1.6 7.3-.1 17-1 5.6-1.8 11.8-1.8 13.8.1 6.3 10.4 20.1 18.2 24.2 2.9 1.5 3.2 2.1 2.6 4.5-1.3 5.3-4.2 6.6-7.7 3.5-1-.9-2.6-1.8-3.6-1.8-.9-.1-3.5-.6-5.6-1l-3.9-.8 2.1 3.1c2.7 3.7 2.7 4.2.3 4.2-1.8 0-1.8.2.4 4.7 1.3 2.7 2.1 5 1.9 5.2s-2.1-.4-4.3-1.4c-5.1-2.3-6.9-1.7-4.3 1.5 1.6 1.9 1.8 2.9.9 4.7-1.4 3-3.5 2.9-7-.5l-2.9-2.7.7 4.5c.3 2.5.8 6.4 1.1 8.7.8 5.6-.7 5.6-6.5 0-2.4-2.3-4.1-3.7-3.7-3 .3.6.2 1.4-.4 1.8-.5.3-1 1.5-1 2.6 0 1-.5 1.9-1.1 1.9-.7 0-.8 1.4-.4 4 .7 4.2-.3 5.2-2.5 2.5-1-1.2-1.5-1.3-2.1-.4-.5.9-2 .1-5-2.6l-4.3-3.9-.6 2.5-.6 2.4-.8-2.3c-.8-2.5-1.9-2.8-3.5-.8s-.3 4.5 2.8 5.2c5.3 1.2 5.3 1.1 3.6 5-.8 2-1.3 4-1 4.4.3.5 3.6 1.8 7.3 3.1 12.9 4.2 24.2 10 24.2 12.4 0 .5 1.3 3.5 2.9 6.5s3.2 7.1 3.6 9 2.4 6.8 4.4 10.9l3.6 7.4 11.5-.6c12-.7 21.6-2 26.2-3.8 2-.8 5.3-.7 12.8.5 5.5.9 12 1.6 14.4 1.6 7.4 0 23.7-3.8 30.2-7 5.5-2.7 25.1-16.8 31.2-22.3l2.2-2V0H0z"/><path d="M101.4 164.6c-3.4 2-7.4 4.6-9 5.9-2.8 2.3-2.9 2.3-1 4.4 1.2 1.3 1.6 2.8 1.3 4.3-.5 1.8 0 2.7 2.1 3.9 4.1 2.3 13.2 18.1 13.2 22.9 0 6.2-5 68.2-5.6 69.2-.3.4-1 .8-1.5.8-1.4 0-4.8-4.1-4.9-5.8 0-.7-.4-2-1-3-.5-.9-6.2-14.6-12.5-30.5L70.9 208l1.6-7.8c2.4-11.3 3.4-14.1 5.6-15.2 2.1-1.2 2.5-3.5.9-4.5-.6-.4-4.8 1.1-9.3 3.3-4.5 2.1-12.7 5.4-18.2 7.1-5.5 1.8-10.7 3.6-11.5 4-2.7 1.4-2.3 4.2 1.3 8 1.9 2 5.1 6.8 7.2 10.7l3.8 7.1-2.2 18.4c-1.2 10.1-2.8 23.3-3.6 29.4-.7 6-1.6 13.8-2 17.3-.8 6.8-2.6 8.8-5 5.6-.8-1.1-3.1-6.6-5.1-12.4-2.1-5.8-7.3-20.1-11.7-31.9l-7.9-21.4 2.3-8.6c2.5-9.7 3.4-11.9 6-14.1 1.2-1 1.6-2.3 1.2-4.2-.8-4.1-.7-4.1-19-.6l-5.3.9V384h237.7l4.8-19.3c4.2-17.1 5.9-22.5 11-35.7.9-2.3 1.4-7.9 1.5-16 0-10.4 1.5-41.5 2.3-48.4.1-1.4-.7-2.2-3.3-2.9-5.3-1.4-6.5-2.7-4-4.4 2-1.4 5-6.3 5-8.1 0-.5-4.5-.8-10-.8l-9.9.1 2.8 2.2c3.9 3.1 12.1 17.8 12.1 21.7 0 8.3-5.9 69.9-6.8 70.8-2.4 2.4-5.6-4.1-17.3-35.6l-12.3-33 2.1-10.4c1.7-7.9 2.8-11.1 4.7-13.1 2.3-2.4 2.3-2.8 1-5.3-1-1.9-2.8-3.1-6.7-4.2-7-2-19.1-4.6-19.5-4.1-.2.2 1.5 4 3.9 8.4l4.3 8-1.3 14.8c-.6 8.1-1.8 23.3-2.6 33.8-.8 10.4-1.7 20.5-2 22.2-.7 3.9-2.8 4.3-5 .9-1.4-2.1-7.2-16.3-11.5-28.1-1-2.8-3.7-9.7-6-15.5s-5.2-13.6-6.6-17.3l-2.5-6.8 2.1-9.7c1.7-7.4 2.9-10.4 5-12.7 2.3-2.5 2.7-3.8 2.6-7.6-.2-4.1-1-5.6-7.3-13.5-7.4-9.3-17.3-19.5-17.3-17.9 0 .5 1.9 4 4.1 7.9l4.2 7-1.7 25.5c-2.5 36.7-3.4 47.2-3.9 47.8-.3.3-1.4.2-2.5-.1-2.2-.7-3.6-3.9-20.3-44.9l-9.2-22.9 1.7-9.3c1.1-5.9 2.7-10.6 4.2-12.8 1.3-2 2.4-4.4 2.4-5.4s.7-2.9 1.6-4.1c.8-1.2 1.1-2.2.5-2.2s-6.2-5-12.5-11c-6.2-6.1-11.5-11-11.7-11-.3 0-3.2 1.6-6.5 3.6m402.5 48.2c-7.5 7.6-8.2 10.5-3.6 14.8 1.5 1.3 3 3.7 3.3 5.2.4 1.5 1 3.1 1.4 3.7.4.5 1.4 3 2.4 5.4l1.7 4.3-6.7 23.2c-3.6 12.7-7.3 25.6-8.1 28.8-1.2 4.6-1.9 5.7-4 6.1-1.9.4-2.7-.1-3.5-2.2-1.3-3.4-13.8-54.5-13.8-56.5 0-.8 1.6-5.1 3.5-9.5l3.4-8.1h-3.2c-3.8 0-13.4 1.4-21 3-6.8 1.4-7.9 3.3-3.8 6.9 1.8 1.5 4.3 5.8 6.2 10.5l3.2 7.9-2.1 9.6c-5.4 24.3-7.4 33.2-9.2 40.4-1.1 4.3-2 7.9-2 8.1 0 1.1-4.1 1.2-4.9.2-1-1.2-17.1-56.5-17.1-58.7 0-.7 1.4-5 3.2-9.6 2.3-6 3.9-8.8 5.6-9.7 3.7-1.9 1.6-2.4-7.3-1.5-4.4.4-13 .8-19.2.8-10.3.1-11.2.3-10.6 1.8.3 1 1.4 2.7 2.4 3.9 1.1 1.1 3.5 5.7 5.4 10.1l3.5 8.1-1.5 8.3c-.9 4.6-2.5 13.6-3.6 19.9s-2.4 13.1-2.9 15-1.1 5.4-1.4 7.7c-1 7.8-1.7 9.3-4.1 9.3s-3.6-2.3-7.4-14.3c-1.4-4.1-2.4-5-1.7-1.5.3 1.3 1.5 8.5 2.7 16.1 2.1 13.2 2.2 14.9 1 33.5-.6 10.9-1.4 22.1-1.8 24.9l-.6 5.3H512v-89c0-49-.3-89-.7-89-.5.1-3.8 3.1-7.4 6.8m-125.2 23.8c-.3.3-.1 1.7.5 3 .9 1.8 1.4 2.1 2.5 1.3 2-1.7 1.6-4.9-.5-4.9-1 0-2.1.3-2.5.6"/></svg>