<svg xmlns="http://www.w3.org/2000/svg" width="682.667" height="512" version="1.0" viewBox="0 0 512 384"><path d="M0 97c0 53.3.2 97 .4 97s4.6-1.1 9.8-2.4c18.5-4.9 38.4-13 54.3-22.1 8.2-4.8 13.7-8.4 30.5-20.4 8.7-6.2 9.1-6.1 16.3.6 3.4 3.3 12.1 10.8 19.2 16.8 7.2 6 20.2 18.2 29 27 8.8 8.9 18.2 17.6 20.8 19.4 11.7 8 23.6 11.2 41 11 17.9-.2 16.2 1 23.3-16.4 5.1-12.6 6.9-15.8 10.8-19.7 4-4.1 13.6-9.7 20.9-12.1 1.2-.5 1.7-1.7 1.7-4.1 0-3.5-1.3-5.5-2.5-3.6-.3.5-1.5 1.5-2.7 2.1-1.8.9-1.9.8-1.3-1 .5-1.6.3-2-.9-1.5s-1.6 0-1.6-1.7c0-4.6-1.5-5.4-4.6-2.5-3.3 3-4.9 3.4-3.9.8.3-.9.9-3 1.2-4.5l.6-2.9-5.4 4.1c-2.9 2.2-5.5 3.9-5.7 3.7s.3-1.8 1.2-3.4c.8-1.6 1.8-4.8 2.2-7 .6-3.7.5-4-2.5-5-3.4-1.2-3.8-2.7-1.6-5.6s1.8-5.1-1-7c-1.5-1-2.5-1.2-2.5-.5 0 .6-1.4.2-3.3-.9-2.4-1.6-3.7-1.8-5-1-1 .5-2.6.6-3.5.2s-2-.8-2.5-.8c-.4-.1-1.6-1.6-2.7-3.4s-2.5-3-3-2.7-1.4-1.3-2.1-3.5l-1.2-4.1-2.8 2.7-2.7 2.6.9-4.2c.5-2.4.7-4.5.5-4.8-.3-.3-2.9 1.2-5.8 3.2s-6.5 3.6-7.9 3.6c-3.6 0-11.9-6.6-11.9-9.5 0-1.9.7-2.4 3.9-3 3.4-.6 5.6-2.3 14.5-11.6 12.2-12.6 13.6-15.1 12.2-22-2.1-10.3 3.6-25.8 12.9-34.8 5.1-5.1 18.7-13.2 29-17.4 8-3.2 8.1-3.2 24.5-3.1 13.9.1 17.8.5 24.5 2.4 4.4 1.2 9.9 2.6 12.3 3s4.9 1.3 5.6 2.1 4.6 5 8.7 9.4c9.7 10.6 13.6 17.9 15.6 29.7 2.9 17.3 2.8 19.9-.8 24.9-1 1.3-.5 2.6 2.2 6.6 4.9 7.2 8.9 11.5 13.2 14.2 3.3 2 3.8 2.8 3.5 5.4-.2 2.4-.9 3.2-3.3 3.9-2 .5-3.4.3-4.5-.6-.8-.8-3.7-1.7-6.4-2.1l-4.9-.8 2.2 3.2c1.9 2.7 2 3.2.7 3.7-1.4.5-1.3 1.1.4 4.4 1.6 3.2 1.7 3.9.5 4.4-.8.3-1.7.1-2-.4-.4-.6-2-1-3.6-1-2.9 0-3 .1-1.5 2.2 2.1 2.9 2 4.4-.1 5.2-1 .4-2.9-.2-4.6-1.4-1.6-1.2-3-2-3.2-1.8-.2.1.3 2.8 1.1 5.8s1.4 6.2 1.4 7.2c0 3.1-3.3 2-8.3-2.9-4.1-4-4.8-4.4-4.1-2.3 1.2 3.9 1.1 7.5-.4 7.2-.9-.1-1.1.8-.6 3.8.7 4-.2 5-2.4 2.8-.9-.9-1.5-.9-2.4 0-.8.8-2 .4-4.7-2-2.4-2.1-3.6-2.7-3.9-1.8s-.9.5-1.7-.9c-1.2-2.3-1.2-2.3-2.5.9-1.5 3.6-.5 5 3.7 5 3.1 0 3.6 1.5 2.1 5.6-1.5 4.2-2 3.8 12.3 10 11.4 4.9 16.9 8.7 16.9 11.9 0 1.2.6 2.8 1.4 3.4.8.7 1.7 2.4 2 3.9s2.7 7.1 5.4 12.5l4.7 9.8 11.5-.4c6.3-.3 14.8-1.3 18.7-2.3 6.7-1.6 8-1.7 16.5-.3 14.3 2.2 29.7 1.8 38.8-1 8-2.4 19.5-8.9 35-19.8 5.2-3.7 13.1-8.7 17.5-11.3l8-4.6.3-89.2L512 0H0z"/><path d="M93 164.6c-8.9 7.4-8.6 7-6.6 9.3 1.2 1.3 1.7 3 1.4 4.6-.4 1.9.2 3 2.6 4.9 2.1 1.6 4.4 5.1 6.8 10.7l3.6 8.4-1.9 10.5c-1 5.8-3.5 19.9-5.5 31.5-3.8 21.8-4.5 24.5-6.9 24.5-1.9 0-2.9-2-6.4-13.6-1.6-5.4-5.7-19.3-9.2-30.7l-6.2-20.9 2.9-9c2.1-6.8 3.5-9.4 5.6-11 1.6-1.1 2.6-2.3 2.3-2.8s-3.8 1.2-7.8 3.8-10.9 6.4-15.3 8.5c-7.3 3.6-7.9 4.1-7.8 6.8 0 1.6 1 3.9 2.2 5.2 1.1 1.2 3.2 5.7 4.6 10.1l2.5 7.9-10 30.1c-5.5 16.5-10.7 30.8-11.5 31.6-1.4 1.3-1.7 1.3-2.9-.3-.7-1-1.8-4.9-2.4-8.5-3.8-24-7.4-47.3-7.8-50.8-.4-3.3.2-5.4 3.6-12.2 2.3-4.5 5.2-8.9 6.6-9.8 2.7-1.7 3.3-3.4 1.3-3.4-.7 0-6.7 1.6-13.3 3.6l-12 3.6v4.2c.1 2.2.9 5.3 1.8 6.7 1 1.5 2 5.6 2.3 10.1l.7 7.5-5.2 8.7-5.1 8.7V384l107.7-.2 107.7-.3 3.7-8.5c7.1-16.6 21.7-45.8 26.4-53.1l4.8-7.4-1.3-18.4c-.7-10.6-.9-23-.5-29.2l.7-10.8-2.8-.6c-5.6-1.3-6.2-1.6-6-2.9.1-.8.7-2 1.3-2.7 1.6-2 4.6-9.9 4-10.5s-4.2-.7-15.1-.4l-7.8.2 3 3.1c1.6 1.8 4.7 6.6 6.8 10.7l3.7 7.5-2.2 16c-3.1 22.3-6.2 43-7.3 49.1-.8 4.4-1.2 5.1-2.8 4.7-1.1-.3-2.4-1-2.9-1.7-.5-.6-4.4-12.6-8.6-26.6-11.5-38.2-11.7-38.9-11-41.8 2.3-9.5 5-16.4 7.2-18.7 2.2-2.2 2.4-2.9 1.5-4.9s-2.6-2.8-9.9-4.4c-4.8-1.2-11-2.4-13.6-2.8l-4.8-.6 4.2 8.3 4.2 8.4-1.7 14c-4.9 39.1-7.5 54.9-9.3 56.3-2.7 1.9-3.6 0-9.9-19.8-3-9.6-7.7-24.2-10.3-32.3l-4.8-14.8 2.9-9.7c2.1-7.2 3.5-10.2 5.5-11.8 2.1-1.7 2.7-2.9 2.6-6.1 0-3.4-.9-5.2-5.3-10.4-5.7-7-18.8-19.9-20.1-19.9-.5 0 .9 3.7 3.2 8.2 3.6 7.2 4 8.7 3.5 12.7-1.2 8.3-7.6 59.9-7.6 61 0 1.2-2.8 4.1-4 4.1-1.6 0-2.8-3.1-13.6-35.1l-10.6-31.1 2.6-9c1.5-5.1 3.6-10.2 5.1-12 1.4-1.6 2.5-4 2.5-5.3s.5-2.7 1.1-3.1-.4-1.9-2.8-3.7c-2.1-1.7-7.2-6.4-11.4-10.4-4.1-4-8-7.3-8.5-7.3s-3.4 2.1-6.4 4.6m404.9 36.2c-4.5 2.9-14.3 10.6-19.1 15.1-3.5 3.2-3.7 7.3-.5 9.8 2.4 1.8 7.7 15.6 7.7 19.8 0 1.2-1.4 6.6-3 12-1.7 5.5-4 13.1-5.2 17-1.1 3.8-2.8 9.2-3.6 12-.8 2.7-1.5 5.2-1.6 5.5-.1 1.9-2.6 7.5-3.3 7.6-.4 0-1.6.4-2.6.9-1 .4-2.1.5-2.4.1-.7-.7-13.3-56.3-13.3-58.6 0-.8 1.8-5 3.9-9.3l3.8-7.7-6.1.1c-3.4 0-9.9.6-14.5 1.2-10 1.4-12 3.1-7.8 6.8 1.4 1.3 4 5.9 5.8 10.3l3.2 7.9-1.7 7.1c-.9 3.9-1.9 8.4-2.2 10.1-.3 1.6-1.1 5.5-1.9 8.5-2.2 8.3-5.3 22-6.1 26.2-.5 3.1-3.4 7.6-3.4 5.3 0-.4-.6-.2-1.4.4-2.2 1.8-2.7.3-9.7-26.4-9.2-35.3-8.7-31.9-5.4-40.9 1.7-4.7 3.8-8.5 5.3-9.7 1.4-1 2.3-2.1 2-2.4-.2-.2-8.3-.1-17.8.3-15.9.6-17.5.9-17.8 2.5-.2 1.1.5 2.5 1.7 3.3 1.2.9 2.1 2 2.1 2.5 0 .6 1.4 4.1 3 7.9 2.9 6.7 3.3 10.6 1.4 16-.3.8-2.5 11.3-4.9 23.4-3.5 18.1-4.1 22.4-3.3 25.5 1.3 4.3.4 39.1-1.3 53.1-.8 7.2-.8 10.8.1 14.7l1.1 5.3H512v-57.6c0-51.1-.2-57.5-1.5-56.4-.8.7-1.5.9-1.5.5s-.6-.2-1.4.4c-1 .8-1.6.8-2.4-.1-.5-.7-2.9-14-5.2-29.6l-4.1-28.3 4.1-7.5c2.2-4.1 3.7-7.4 3.2-7.4-.4 0-2.8 1.3-5.3 2.8m-136.3 30.7c.4.8 1.2 1.5 2 1.5s1.1-.6.8-1.5c-.4-.8-1.2-1.5-2-1.5s-1.1.6-.8 1.5m-21.8 47.1c-.9 1.5-.1 18.6 1.1 23.8.7 2.7 2.3 8.4 3.8 12.8 2.5 7.5 2.5 7.9.8 9.2-1.7 1.2-1.6 1.7 2.1 9 2.1 4.2 4 6.9 4.2 6.1.2-.9-.1-6.9-.7-13.5-.6-6.5-1.1-14-1.1-16.6 0-2.7-1.2-8.1-3-12.8-1.6-4.5-3.8-10.5-4.8-13.5s-2.1-5-2.4-4.5"/></svg>