<svg xmlns="http://www.w3.org/2000/svg" width="682.667" height="512" version="1.0" viewBox="0 0 512 384"><path d="M169.6 24.5c-2.7 3.5-4.3 10.5-2.9 12.8.3.4.6 5.3.8 10.9.2 5.5.8 11.3 1.4 12.7s1.5 4.6 2.1 7l1.1 4.3 7-.6c8.5-.9 8.7-.3 2.3 8.4-5.7 7.7-6.8 10.2-6.1 13.3.7 2.4 4.3 4.7 7.7 4.7 1.7 0 1.8.8 1.4 10-.2 5.5-.6 14.5-.8 20s-.2 10 0 10c.3 0 1.2-1.5 2-3.3 1.4-3 1.4-2.6 1.2 7.5-.2 5.8 0 10.4.4 10.2.5-.3.8-1.6.8-2.9s.5-2.7 1-3c.6-.4 1 1 1 3.4 0 2.3-.5 4.1-1.1 4.1-1.8 0-9.1 6.4-10.6 9.4-1 1.9-1.8 7.5-2.2 16-.4 7.2-1 13.6-1.4 14.2-.3.6-2.8 1.4-5.4 1.7-5 .5-7.6 2.7-6.5 5.5.3 1 1.8 3.5 3.4 5.6 3.3 4.6 3.4 5.8.8 20.2l-1.9 11.1-13.7 24.4-13.7 24.3 3.2 6.1 3.3 6.1-1.7 7.9c-.9 4.4-1.7 10.8-1.8 14.3-.2 5.5.1 6.5 2 8l2.3 1.7-2.6 13c-3.5 17.2-3.8 31.1-.8 35.2 1.3 1.7 3.2 2.9 5 3.1 1.6.2 3.2.9 3.6 1.5.5.8.8.4.8-.9 0-1.1.9-2.9 2-3.9 2.4-2.1 16.8-23.2 19.4-28.3 1-1.9 2-3.2 2.2-2.9.3.3-1.5 8-4.1 17.3-2.5 9.2-4.5 17.4-4.5 18.1 0 1.1 14.3 1.3 74 1.3 40.7 0 74-.1 74-.3s-2.5-7.6-5.5-16.6l-5.6-16.2 2-2.5c2.8-3.5 4.9-10.6 7.5-24.7 2.1-11.4 2.5-12.4 5.9-15.9 4.4-4.3 4.8-7.9 1.5-15.8-1.8-4.3-2-5.7-1-8.3.6-1.8 1.6-5.3 2.1-7.9 1-4.5.9-5-5.3-18-6.1-12.8-11.5-26-19.1-45.7-2.9-7.8-3.3-9.7-2.3-11 6.3-8 4.6-14.7-4.5-17.2-2.3-.6-4.7-1.3-5.3-1.4-.7-.2-1.5-2.8-1.9-5.7-1.5-12.3-3.4-16.5-9.6-22.2-5.6-5-6.9-7.3-5.2-9 1-1 1-26.5.1-25.9-3 1.7 1.6-8.9 5.1-12.1s5.4-10.9 4.8-19.4c-.5-7.3-.5-7.4 1.6-6.7 5.8 1.8 6.4 1.7 9-1.5 1.5-1.7 2.7-3.7 2.7-4.5 0-.7.7-1.8 1.5-2.5s1.5-2.2 1.5-3.4c0-1.1.7-2.9 1.4-3.9.8-1 1.2-2.7.9-3.7-.3-1.1-.1-2 .5-2s1.4-1.6 1.8-3.5c.3-1.9 1-3.8 1.5-4.1s.9-1.5.9-2.8c0-1.2.5-2.7 1-3.2.7-.7.5-2.7-.5-6.1l-1.5-5.1-11.3-2.7c-9.5-2.3-12.6-2.6-20.7-2.2-11.6.7-16.8 2.3-18.9 5.8l-1.5 2.6-2-2.3c-3.4-3.8-20.2-5.5-22.2-2.3-.9 1.6-2.2.9-2.8-1.5-.4-1.6-2.4-3.2-6.8-5.4-9.4-4.5-13-5.3-27.8-5.9l-13.6-.6z"/></svg>