<svg xmlns="http://www.w3.org/2000/svg" width="682.667" height="512" version="1.0" viewBox="0 0 512 384"><path d="M0 192v192h78l4.8-4.8c2.6-2.6 9.4-8.5 15.2-13.2l10.5-8.5-4-.7c-2.2-.4-6.4-.8-9.2-.9-2.9 0-5.3-.5-5.3-1s-1-.9-2.2-.9c-3.2 0-15-4.3-14.8-5.4.1-.5-1.7-1.8-3.8-2.9-6.6-3.3-5.5-4.5 12.1-14 2-1.2 3.7-2.4 3.7-2.9 0-.4.6-.8 1.2-.8 1.4 0 13-6.9 13.9-8.2.3-.5 1.4-.6 2.4-.2 1.4.6 1.6.4 1-.6s-.4-1.2 1.1-.6c1 .5 5.5 1.1 9.9 1.5s8.9 1.1 10 1.5c1.6.6 1.7.6.5-.3-1.9-1.4 0-1.4 3.4-.1 1.7.6 2.6.6 2.6 0s.3-1 .8-.9c1.4.2 5.2-1.3 4.8-2-.6-.9 2.3-1.3 13.1-1.5 5.1-.1 9.5-.5 9.8-.8.7-.7-6.3-2.1-7.3-1.4-1 .6-16.8-1.1-22.5-2.5-3.7-.9-4.5-1.4-3.7-2.4 1.4-1.7 1-1.9-8.5-4-4.4-1-8.8-2.4-9.8-3.1-1.7-1.1-1.5-1.4 2.5-3.8 2.3-1.3 8.6-4.5 13.8-6.9s14.5-6.8 20.5-9.6c6.1-2.9 12.9-6.2 15.2-7.2 3.5-1.7 6.7-2 21.5-2.3 9.5-.1 18 .1 18.8.4.8.4 2.8 1 4.3 1.4 2.6.6 2.8.4 2.5-1.6s-.9-2.3-5.3-2.5c-14.8-.7-19.4-1.5-20-3.2-.4-1.4-3-2-14.3-3.5-19.4-2.4-24-3.5-23.5-5.5.2-.9 3.8-3 8.1-4.8 16-6.5 34.9-14.2 40.7-16.5l6-2.3.7-9c.4-5.9.3-9.2-.4-9.6-.6-.4-3.8-1-7.2-1.3-10.3-1.1-16.5-2.7-15.9-4.2.2-.7 3.7-2.5 7.6-3.9 4-1.5 10.2-3.8 14-5.3l6.7-2.5 2-6.6c1-3.6 2.2-8.8 2.5-11.6.4-2.7 1.4-6.3 2.2-8 1.8-3.5 7.6-9 11.8-11.2 1.7-.8 3.8-2.2 4.7-3 1.7-1.6 1.4-4.3-.6-4.3-.6 0-3.7-1.6-6.9-3.5s-6-3.5-6.3-3.5c-.2 0-.4 1.1-.4 2.5s-.5 2.5-1 2.5c-1.1 0-1.4-.6-2.5-5.5l-.7-3-2.1 4.2c-1.2 2.4-2.3 4.3-2.6 4.3-.4 0-.4-2.7-.3-6 .4-6.8-1-8-2.9-2.3-1.4 4.2-4.9 10.6-5.6 9.9-.2-.2 0-2.7.5-5.6 1.6-8.5-1.7-18.8-6.1-19-.4 0-3.5-2.5-6.8-5.6-4.4-4.1-6.4-5.3-7.2-4.5-1.7 1.7-5.4 1.3-6.9-.7-2-2.9-6.5-5.5-7.3-4.3-.3.6-1.7 1.1-3 1.1s-2.7.4-3 1c-.3.5-1.7 1-3 1-1.9 0-2.6-.7-3.3-3.3-1.1-3.8.1-6.7 2.6-6.7 3.5 0 20.4-18.1 22.5-24.2.3-1-.1-5.2-.9-9.5-4.2-21.3 3.3-38 19.6-43.8 2.4-.8 7.5-2 11.4-2.6s10.2-1.9 14.1-3c11.8-3.2 33-2 43.9 2.5 2 .8 6 3.8 9 6.6 4.8 4.6 5.5 4.9 6.7 3.4 2.4-2.9 8.8-6.4 11.6-6.4 9.9 0 23.7 17.1 29.9 37 3.6 11.5 3.2 14-2.5 16.9-5.5 2.8-13.7 4.4-22.3 4.5-4.3.1-7.8.2-7.8.4 0 .8 6 8.9 7.9 10.6 2.4 2.2 2.8 5.6.7 5.6-.8 0-2.4 1.7-3.6 3.7l-2.2 3.8-2-2.5-2-2.4.4 2.9c.2 2 1.4 3.7 3.7 5.2l3.4 2.3h-6.8l-.2 14.6c-.1 8-.4 16-.7 17.8-.3 1.7-.3 2.6-.1 2 .6-1.1 10.9-.4 12.1.9.4.4.2.7-.6.7-.9 0-1 .3-.1 1.4 1.1 1.3 5.1 2.3 19.6 4.7 9.1 1.5 26.9 6 28 7 .5.5-.1.9-1.8.9-1.5 0-2.7.4-2.7.9s-1.5 1.1-3.2 1.4c-4.8.7-16.9 3.9-16.4 4.4.2.2 7 2.1 15.2 4.3 21.3 5.6 23.7 6.4 24.2 7.9.3.8 0 1.1-.6.7-.5-.3-2.7.1-4.8 1l-3.9 1.6 10.6 3.8c13.1 4.7 15.6 5.9 13.9 7-1.2.8.8 1.9 12 6.7 3.1 1.4 3.2 1.6 1.5 2.6-3.1 1.7-26.2 2.2-28.1.6-1.1-.9-5.1-1.3-12.7-1.4-11.1-.2-14-.8-18-4.3-1.9-1.7-8.4-3.8-15.1-4.9l-3.9-.6.7 4.9c.3 2.6 1.1 5.3 1.6 5.8 1.3 1.3 1.3 4.9-.1 6.3-.8.8-.8 1.3 0 1.7 1.8 1.1 1.3 2.6-.9 2.6-1.3 0-2.4 1-3 2.5-1.7 4.5-10.9 15.3-14 16.3-2.9 1.1-2.9 1.1-1.6 4.4 3.8 9.2 2.6 10.2-4.7 3.8-2.5-2.2-4.9-4-5.5-4s-.9 9-.8 24.2c.1 23.4 0 24.5-2.2 29.4l-2.3 5.1 3 4.6c5.6 8.1 10 19 14 34.2 3.9 14.7 6.7 22.3 13.1 35.7l3.2 6.8H512V0H0zm115.6 123.9c-.8 1.2-4.6 2.1-4.6 1.1 0-.5 1-1.1 2.3-1.3 1.2-.2 2.3-.5 2.5-.6.2 0 .1.3-.2.8"/><path d="M191.6 128.5c.4.8 1.1 1.5 1.6 1.5.6 0 .5-.6-.2-1.5-.7-.8-1.4-1.5-1.6-1.5s-.1.7.2 1.5M203 315.1c-2.9 1.8-4.4 2-9.6 1.5-5.9-.6-6.3-.5-10.1 2.6-2.2 1.8-5.3 4.3-6.9 5.4-2.7 2-2.8 2.3-1.3 4 1.9 2.2 3.3 12.1 1.8 12.9-.5.4-.9 1.6-.9 2.8.1 2.5-.5 3 5.3-4.7 6.2-8.4 15.4-18 20.7-21.7 3.3-2.3 6-4.3 6-4.5 0-.9-1.7-.3-5 1.7m-40.1 43.3c-11.2 7.2-13.2 7.5-25.7 3.7l-10-3.1-4.9 2.8c-2.6 1.6-8.1 5-12.1 7.5-4 2.6-7.4 4.7-7.6 4.7-.1 0-4.3 2.2-9.2 5l-8.9 5h42.3c23.2 0 42.2-.2 42.2-.5 0-.4-.7-2-1.6-3.7-2.1-4.2-1.4-11.4 2-19.8 1.4-3.5 2.4-6.5 2.3-6.7-.2-.2-4.2 2.1-8.8 5.1m41.8.4c-1.1 1.2-1.3 2.2-.6 3.2.8 1.3 1 1.3 1.9 0 .9-1.4 1.4-5 .7-5-.2 0-1.1.8-2 1.8m-5.7 16.1c0 1.6 1.9 2.3 4.1 1.6 1.7-.6 1.9-.9.8-1.6-1.9-1.2-4.9-1.1-4.9 0"/></svg>