<svg xmlns="http://www.w3.org/2000/svg" width="682.667" height="512" version="1.0" viewBox="0 0 512 384"><path d="M0 192v192h181.9l2.6-8.2c1.5-4.6 3.5-11.9 4.5-16.3s3.1-13 4.8-19c1.7-6.1 5.7-22.1 9.1-35.6 3.3-13.6 6.7-26.4 7.6-28.5.9-2.3 1.3-4.9 1-6.4-.4-1.4-1.1-7.2-1.5-13-1-11.5-2.7-23.7-3.6-25.1-.3-.5-1.8-.9-3.3-.9-1.6 0-3.4-.7-4.1-1.5-1.3-1.5-1.2-1.9 1.8-7.6.1-.4-.8-.9-2.1-1.3-5.1-1.2-6.5-6.2-4.1-14.4 1-3.4-2.1-2.8-5.7 1.2-3 3.5-10 6.6-14.7 6.6-3.7 0-11.2-7.9-11.2-11.8 0-1.8-.6-3.2-1.6-3.6-2.9-1.1-8.1-.6-9.4.9-.7.8-4.1 2.4-7.5 3.4-4.9 1.6-7.1 1.8-9.9 1-4.6-1.3-8.6-6.1-8.6-10.4 0-3.7 1.8-8.5 3.2-8.5 1.6 0-2.1-4.5-5.3-6.4-1.8-1-2.9-1.4-2.5-.8.9 1.5-4.9 3.3-13 3.9-4.8.4-7.3.2-7.8-.6-.4-.6-1.6-1.1-2.6-1.1-1.5 0-2.1.9-2.6 4-.4 2.2-1 4-1.4 4s-1.2 1.1-1.8 2.5-1.8 2.5-2.6 2.5-2.9 1.5-4.7 3.3c-4.8 4.8-9 6.7-16.1 7.3-3.4.3-7.1 1.2-8.2 2-2.7 1.8-8.6 1.8-11.3-.1-3-2.1-6.6-10.4-5.3-12 .5-.6 3.8-2.6 7.4-4.4s8.9-5.4 11.8-8.1 6.8-5.4 8.6-6.1c3.7-1.2 3.8-1.6 1.5-4.1-1.6-1.8-1.5-2.1 2.9-6.4 2.8-2.9 5.8-4.8 7.9-5.3 3-.6 3.8-1.4 6.6-7.4 3.5-7.1 5.3-8.7 7.9-6.6.8.7 2.6 1.4 3.9 1.5 3.1.3 9.6 5.7 25.3 20.9 10.6 10.3 12.9 12.1 16.5 12.7 3.2.6 5.2 1.9 8.6 5.4l4.3 4.7 12.1-.7c11.1-.5 12.6-.4 20 1.9 4.4 1.4 8.6 2.4 9.2 2.2.6-.3 2.4-4.2 3.9-8.7 4.5-12.9 7.1-15 26.1-21.9 6.4-2.3 10.1-4.2 10.3-5.2.2-1.1-2-3.3-6-6.2-3.5-2.5-7.4-5.6-8.7-7.1-1.3-1.4-2.7-2.3-3.1-2.1-.4.3-1.3-.9-2-2.6l-1.3-3.1-2.7 5.9c-2.6 5.8-10 17.6-10 16 0-.4.7-2.3 1.5-4.3 1.5-3.6.9-3.7-2.9-.5-1.8 1.5-1.8 1.5-.8-.4.6-1.1 2.1-4 3.2-6.5l2.1-4.5-4.3 5c-2.4 2.7-5.3 6.1-6.6 7.5l-2.2 2.5 1-2.8c.5-1.5 1.6-3.9 2.4-5.5.7-1.5 2.1-6.2 3-10.6l1.6-7.8-2.7-3.3c-1.7-2-3.5-3.2-4.4-2.9-1.3.4-1.8-.6-2.3-4.6-.4-2.7-.9-5-1.3-5-.3 0-2.1.9-3.9 2.1-4.8 2.9-6.8 2.2-7.4-2.6-.5-3.8-.7-4-4.3-4.3-3.2-.3-4.1-.8-5.2-3.5-1.5-3.7-.5-5.7 2.9-5.7 3.2 0 8.7-4.2 13.4-10.2 4.4-5.7 4.9-7.8 3.1-12.5-1.5-3.9-1.2-19.7.5-26.1 3-10.9 8.8-17.3 19.6-21.7 3.1-1.2 8.9-2 18.5-2.5 7.7-.5 17-1.4 20.7-2 7.8-1.3 20.2-.2 28.3 2.6 9 3 15.9 9.3 21 19.3l1.7 3.5 1.5-3c3.2-6.1 9.8-11.4 14.3-11.4 3.7 0 11.8 4.8 18.3 11 7.3 6.8 10.2 12.4 13.9 26.4l2.3 8.8-3.3 2.8c-4.2 3.5-18.2 8.3-24 8.2-3.7 0-4.2.2-3.6 1.6 5.3 12.7 6.9 30.6 3.9 45.2-1.6 8-6.8 22.5-8.3 23.2-.4.2-3.1 2.8-6 6l-5.3 5.6 2.4 4.9c1.3 2.6 3.5 7.6 4.7 11 2.5 7.1 2.5 7 11.8 4.7 7-1.8 7.5-1.7 21.6 2 18.1 4.8 28.4 2.9 50.4-9.2 13.4-7.3 20.1-10.4 37.1-17.2 5.7-2.2 12.1-5 14.2-6 2.1-1.1 4.7-2 5.8-2 1.2 0 4.4 2.8 8.3 7.2 12.2 13.9 12.3 14.1 16.5 13.4 2.8-.5 7.8.4 18.6 3.4 8.2 2.2 15.1 4 15.3 4s.4-43.2.4-96V0H0z"/><path d="M275.1 142.7c-2.3 5.2-3.6 6-5.6 3.5-.9-1.2-1.3-1.1-2.3.1-1.1 1.2-.7 1.7 1.9 2.6 3.2 1.1 3.3 1.6 1.4 7.6-.5 1.7.2 2.4 4 4.3 7.5 3.6 7.5 3.7 7.5-8.6 0-11-1-15.5-2.5-11-.7 2.2-.7 2.2-1.4-.7l-.7-3zM450 178c0 .5.4 1 .9 1s1.8.3 2.8.7c1.6.6 1.6.5.4-1-1.5-1.9-4.1-2.3-4.1-.7m-40.2 14.4c-3.1 1.3-7.1 3.2-8.8 4.3l-3.1 2 8.5 5.2c4.8 2.9 8.6 5.8 8.6 6.5 0 2-20.9 11.9-26 12.3-6 .5-10.5-2.3-13.1-8.2-2.2-4.9-2.6-5.1-12.6-6.1l-7.3-.7.6 4.5c.7 4.9.2 6.4-5.3 14.5-3.3 4.9-3.8 5.2-7.5 5-3.4-.1-4.5-.8-7.7-4.7-6.9-8.2-7.7-10.8-5.5-18 .3-1.4-.6-1.5-6.3-1.2-5.3.4-7.4 1-9.6 2.8-1.6 1.3-3.5 2.4-4.3 2.4s-1.4.6-1.4 1.2c0 1.7 3.8 8 5.6 9.5 1.3.9 1.1 1.4-1.5 2.9-3 1.8-3.1 2.1-3.1 8.6 0 3.8.7 18.3 1.6 32.3l1.5 25.4-2.5 13c-1.5 7.2-3.1 14.2-3.6 15.6-.7 1.9-.3 4.7 2.1 12.3 5.5 17.4 7.1 21.5 14.2 35.9l7 14.3H512V246.1l-2.3-1.3c-2.7-1.5-8.8-8.2-10.6-11.6-.9-1.7-.9-2.7-.2-3.6.9-1 0-2.2-3.6-5.1-2.7-2.1-6.4-5.3-8.3-7.1-1.9-1.7-5.1-3.5-7-3.9-6-1.2-12.9-5.6-16.6-10.6-1.8-2.6-3.4-5.1-3.4-5.7s-3.7.3-8.2 2c-12.8 4.7-15.4 5.2-19.8 3.9-4.2-1.2-14-9.4-14-11.7 0-1.9-1.6-1.7-8.2 1m94.3 16.3-4.5 1.6 5.5 4.8c3 2.7 5.7 4.9 6.2 4.9.4 0 .7-2.9.7-6.5 0-7.4-.2-7.5-7.9-4.8"/></svg>