<svg xmlns="http://www.w3.org/2000/svg" width="682.667" height="512" version="1.0" viewBox="0 0 512 384"><path d="M0 99v99l7.2-2.7c4-1.4 8.8-3.8 10.6-5.4s3.7-2.9 4.2-2.9 4.1-1.5 8.2-3.4c4-1.8 8-3.5 8.8-3.8.9-.3 0-1-2.2-1.7-2.1-.7-3.8-1.8-3.8-2.6 0-1.8 20.6-11.6 25.5-12.2 5-.6 5.9-1.3 11.4-8.8 2.5-3.3 4.9-6.3 5.5-6.7 2.3-1.6 8.1-.8 10.6 1.5 1.4 1.2 5.4 4.3 9 6.7 6.3 4.4 10.3 7.4 29.4 22.9 5 4 11.8 8.7 15.1 10.4 6.4 3.2 10.6 3.6 29.5 2.5 6.1-.3 9.4.1 17.5 2.4 5.5 1.5 10.7 2.8 11.6 2.8 1.1 0 3-3.1 5.8-9.8 2.4-5.3 5.2-10.8 6.4-12 2.8-3.1 9.1-6.2 19.2-9.7 10.5-3.6 11.5-4.2 11.5-6.9 0-1.7-1.3-3.1-4.9-5.3-2.7-1.7-6.7-5.4-8.9-8.2-4-5.1-4.1-5.1-4.5-2.4l-.3 2.8-1.3-3.3-1.3-3.3-2.4 5.6c-2.1 5.2-8.8 16.5-9.8 16.5-.3 0 0-1.5.5-3.2 1.2-4.4 1.2-4.4-1.1-2.3-1.9 1.7-1.8 1.4.5-4.1l2.5-5.9-3.3 3.9c-9.1 11.1-9.7 11.3-5.6 1.9 2.4-5.2 4.9-14.9 4.9-18.4 0-2.7-2.1-5.4-3.3-4.2-.4.3-.7-.2-.7-1.1 0-1.4-.5-1.7-2.4-1.2-2.7.7-4-.2-2.6-1.9.6-.7.8-2 .4-2.9-.5-1.2-1-1.3-2.5-.5-2.5 1.3-5.9-.5-5.9-3.2 0-4.1-1.7-5.8-5.4-5.2-2.6.4-3.9 0-5.5-1.6-3.9-3.9-2.4-8.1 2.9-8.1 1 0 4.8-3.2 8.5-7.2 6.4-7 6.6-7.4 6.1-11.3-4.3-29.5 2-45.3 20.9-52 3.6-1.3 8.6-1.9 18-2.1 7.2-.1 15-.7 17.5-1.3 10.7-2.5 28.3-.1 37.3 5.2 5.3 3.1 10.4 9 14 16.2l2.4 4.9 2.1-4.1c2.5-4.8 8.4-10 12.4-10.9 6.8-1.4 22.7 10.7 28 21.4 1.5 2.9 3.6 9.5 4.9 14.6 2 8.3 2.1 9.7.8 11.2-2.1 2.6-10.4 6.1-18.9 8.1-4.1.9-7.6 1.7-7.8 1.8-.1.1.6 2.2 1.7 4.6 6.5 14.8 6.6 38.8.3 54.9-2 5.1-4.2 8.2-10.6 14.8-4.4 4.5-8.4 8.9-8.8 9.6-.5.9.2 3.4 1.6 6.3 1.4 2.6 2.8 6 3.1 7.6.4 1.5 1.1 2.9 1.5 3.2.4.2 3.2-.3 6.2-1.1 5.3-1.5 5.9-1.5 15.9 1 22.8 5.8 29.5 4.8 56.3-8.8 10-5 22.6-10.9 28.1-13s13.6-5.4 17.9-7.2c4.4-1.9 8.7-3.4 9.7-3.4 1.8 0 4.2 2.1 13.6 12.2 5.6 6 6.6 6.7 11 7.3 3.9.5 24.4 5.2 35.1 8.1l2.2.6V0H0z"/><path d="M282 140.9c0 1.1-.3 2.7-.7 3.7-.6 1.6-.7 1.6-1.3-.2-.6-1.7-.9-1.5-2.3 1.1-.9 1.7-1.7 2.3-1.7 1.5 0-1.2-.3-1.1-1.1.3-.6.9-1.4 1.5-1.9 1.2-.4-.3-1 .2-1.4 1-.3.8.2 1.9 1.2 2.4 1.4.8 1.5 1.4.4 4.3-.6 1.9-1.2 3.7-1.2 4 0 1.1 16.3 7.9 17.7 7.3.9-.3 1.3-.8 1-1.1s-.1-1.8.5-3.3c.6-1.6.7-6.5.3-12.8-.5-8.1-1-10.1-2.1-9.6-.8.3-1.2.8-1 1.2.2.3-.2 1.7-.9 3.1l-1.3 2.5-1.1-2.8c-.6-1.6-1.1-3.5-1.1-4.3s-.4-1.4-1-1.4c-.5 0-1 .9-1 1.9M77 162.6c-1.7 3-.9 3.8 2.9 2.9 3.7-.8 3.9-1.8.7-3.8-2.2-1.5-2.4-1.4-3.6.9m26.4 15.7c-1 3.2-3.9 5.4-10.1 7.7-6.8 2.5-7.5 2.5-14.8-.5-5.8-2.4-6.2-2.4-10.8-.9-3.3 1.1-5.2 2.4-6.2 4.5-.9 1.6-1.5 3.2-1.5 3.6 0 2.5-1.5 4.2-5.3 5.8-7.4 3-10.1 4.4-12.7 6.5-3.5 2.8-12.4 5.9-19 6.6-3 .4-6.8 1.4-8.5 2.3-4.7 2.7-7.6 3.1-11.2 1.6L0 214.1V384l91.8-.2 91.7-.3.6-10c.5-7.4 2.4-17.1 7.3-37 9.6-39.4 14.4-57.2 16.8-62.3 2-4.1 2-5 1-10.1-.7-3.1-1.8-11.1-2.4-17.7l-1.2-12.2-3.8-1.1c-4-1.2-4.2-1.8-2.9-7.6.5-2.4.2-3.5-2.1-5.8-3-3.1-3.3-4.5-1.9-9.4.5-1.8.6-3.5.2-3.7-.4-.3-4.1-.8-8.2-1.2l-7.5-.6-1 3.3c-1.7 5.9-12.7 10.3-18.3 7.4-4.3-2.1-7.1-6.3-7.1-10.2 0-4.1-2.4-5.3-10.5-5.3-4.6 0-5.5.3-7 2.6-1.6 2.5-11 7.4-14.1 7.4-3.2 0-7.4-3.2-13.4-10.2l-6.2-7.2 2.8-1.3c1.6-.6 5.2-2.2 7.9-3.3l5-2.2-4-3.5c-2.2-1.9-5.2-4.1-6.7-4.9-2.5-1.3-2.7-1.2-3.4.9m343.6.7c0 .5.7 1 1.6 1 .8 0 1.2-.5.9-1-.3-.6-1-1-1.6-1-.5 0-.9.4-.9 1m-39.5 13.9c-6 2.1-9.8 4.1-9.2 4.7.2.2 8.1 2.8 17.6 5.8 9.4 2.9 17.5 5.6 17.8 6 .4.3.2 1.1-.3 1.6-.8.8-27.5 8.5-39.8 11.4-3.5.9-12.8-3.5-15.1-7-.8-1.3-2.8-3-4.3-3.8-3.1-1.6-16.2-3.2-16.2-1.9 0 .4 1.8 4.6 4.1 9.2 2.2 4.6 3.8 9 3.5 9.7-1.2 3.2-24.2-.2-28.8-4.2-3.3-3-4.8-7.5-3.8-11.7l.8-3.7h-8.3c-7.3 0-8.3.2-8.1 1.7 0 1.1-1.1 2.3-3.2 3.2-3.8 1.7-3.6 3.5.9 9.3 3 3.9 2.7 4.8-1.9 6.3-2.3.7-2.4.9-1.8 8.3 3 36.7 3.2 60.9.4 79.8l-2.2 15.1 3.3 11.4c1.9 6.6 6.1 17.4 10.1 25.6l6.9 14.3H512V242.2l-2.3-.6c-1.3-.3-4-2-6-3.8s-4.6-4-5.9-4.9c-1.5-1.1-2.3-2.7-2.4-4.7-.1-2.6-1.2-4-7.2-8.7-3.9-3-7.6-5.5-8.2-5.5-2.7 0-15.7-7-18.4-9.9-3.5-3.7-4.2-3.7-15.8-1l-8.9 2.1-6.7-2.8c-3.7-1.5-7.1-3.2-7.7-3.8-.5-.6-2.2-1.7-3.7-2.3-1.4-.6-2.9-2.1-3.3-3.2-.8-2.5-1.6-2.5-8-.2m97.7 17.1c-1.2.5-2.9.7-3.7.4-3.5-1.4-1.1 1.6 4.5 5.5l6 4.2v-5.5c0-5.2-.2-5.6-2.2-5.5-1.3 0-3.3.4-4.6.9"/></svg>