<svg xmlns="http://www.w3.org/2000/svg" width="682.667" height="512" version="1.0" viewBox="0 0 512 384"><path d="M180 22c-6.8.6-9 1.4-9 3.1 0 .5-.9 1.8-2.1 3-1.4 1.4-1.9 2.8-1.4 4.7.3 1.5.7 4.9.9 7.5.2 2.7.9 5.4 1.4 5.9.8.8.8 1.7.1 3-.5 1-.7 2.4-.3 3s.9 2.7 1.1 4.7c.2 1.9.9 4.1 1.4 4.8.6.6.8 1.7.5 2.2-.4.5-.2 1.2.4 1.6.5.3 1 1.4 1 2.4 0 3.5 2.6 4.5 8.5 3.4l5.5-1v3.2c0 1.8-.8 4.3-1.8 5.6-1.1 1.3-3.1 4.5-4.6 7.2-3.3 5.6-2.9 8.9 1.2 11 1.5.7 2.6 1.8 2.5 2.3-.8 4.6-3.3 33.8-2.9 34.2.3.2 1-.8 1.6-2.4 2.6-7.1 2.8-6.5 2.5 6.6-.2 7.4-.2 12.4.1 11 .9-4.2 2.1-4.4 2.8-.5.6 2.8.3 4.2-1 5.6-.9 1.1-1.9 1.7-2.2 1.4s-1 .3-1.6 1.4c-.6 1-1.9 2.9-2.9 4.3-1.3 1.8-2 6-2.8 16.4-.6 7.6-1.4 14.2-1.8 14.6s-2.9 1.2-5.6 1.7c-7.3 1.4-8.1 3.2-4 9.5 1.8 2.8 3.5 5.8 3.6 6.6.2.8-.8 7.1-2 14l-2.4 12.5-13.3 24.7c-7.4 13.6-13.4 25.1-13.4 25.4 0 .4 1.4 2.9 3.1 5.7l3.1 5-1.6 7.9c-.9 4.3-1.6 11.2-1.6 15.3 0 6.2.3 7.6 1.9 8.4 1.8 1 1.8 1.3-.5 11.8-3.3 14.8-4.2 30.8-2 35.1 1.7 3.3 4.9 5.6 6.9 4.9.7-.2 1.8.5 2.5 1.7 1.3 2 1.3 2 .9-.6-.3-1.9.2-3.3 1.6-4.5 2.8-2.5 13.5-18.1 21.3-30.9 3.6-6 6.3-10 6-8.9s-1.9 6.5-3.6 12-4.5 14.9-6.1 20.9c-1.7 6-3.3 11.5-3.6 12.3-.4 1.1 12.3 1.3 74.6 1.3 56.3 0 75.1-.3 75.1-1.2 0-.6-2.5-8.9-5.5-18.5l-5.6-17.3 2.1-5.8c1.1-3.1 3.1-11.3 4.4-18.2 1.4-7 2.9-12.6 3.6-12.8 2.2-.8 4.9-4.1 5.6-6.9.4-1.5 0-5.7-1-9.7-1.7-6.6-1.7-7.5-.2-13.2 2.5-9.5 3-7.6-7.6-30.4-7.8-16.8-19.1-47.7-17.7-48.6 1.5-.9 4.9-8.2 4.9-10.4 0-3.2-4.3-6.9-9-7.6-4.8-.8-5.5-1.9-6.4-9.9-1.5-13.1-4.3-17.8-14.3-24.2-2.9-1.8-5.3-3.6-5.3-3.9s.9-1.8 2.1-3.2c1.9-2.5 1.9-2.7.3-3.9-1.4-1-1.6-2.5-1.2-9.5.5-6.6 1.3-9.8 4-15.8 1.9-4.1 4.2-8.1 5-8.8.9-.7 2.4-4.2 3.3-7.7 1.5-5.4 1.6-7.4.6-12.1-.6-3.2-.9-6-.6-6.2.3-.3 1.6 0 3 .6 4.9 2.3 7.2 1.5 9.9-3.1 1.4-2.3 3.5-7.1 4.7-10.7s2.7-7.9 3.4-9.5c3.1-7.7 3.6-9.2 3.4-10.1-.1-.5-.1-1.1.1-1.4.8-2.3.8-5-.1-5-.6 0-.9-.8-.7-1.8.9-3.2-2.3-5-14-7.8-14.1-3.4-32.7-1.4-37.5 4.1l-2.1 2.3-2.9-2.2c-3.9-2.9-17.5-3.6-21.2-1.2-2.4 1.6-2.6 1.6-3.5-.8-2.5-6.7-23.3-11.5-42-9.6m26.6 203.8c1.4 6.1 1.5 9.6.8 18.1-.4 5.8-.9 13-.9 15.8-.1 2.9-.4 5.5-.7 5.8-1.3 1.3-2.7-14.1-3.2-35-.4-13.8-.2-15.7.9-14.1.8 1 2.2 5.3 3.1 9.4"/></svg>