<svg xmlns="http://www.w3.org/2000/svg" width="682.667" height="512" version="1.0" viewBox="0 0 512 384"><path d="M0 105.5v105.6l2.3-1.2c9.9-5.2 28.8-20 41.8-32.6C51 170.7 55.6 167 57 167c1.1 0 4.5 1.1 7.4 2.4 2.8 1.3 11.5 4.9 19.2 8.1 7.6 3.1 18.6 8.1 24.4 11.2 16.9 9 21.9 11.3 28.4 13 10.5 2.8 23.9 1.9 38.1-2.4 4.8-1.4 5.3-1.4 12.9 1.1 4.3 1.4 8.6 2.6 9.5 2.6 1 0 3.9-3.9 7.5-10 6.7-11.6 11.1-15.8 20.4-19.6 17.8-7.3 17.5-7.1 16.7-10.7-.4-1.7-.7-4-.8-5-.1-.9-.6-1.7-1.2-1.8-.5 0-1.6-1.1-2.3-2.5-1.9-3.6-2.7-2.3-3 4.5-.3 6.7-2 13.1-2.1 7.8-.1-3-1.7-3.7-2.4-1-.3 1-.6-.9-.7-4.2-.2-7.1-1.9-12.5-1.9-6 0 5.1-1.6 12.5-2.3 10.5-.3-.8-1.1-4.2-1.7-7.5-1.1-5.9-5-17.2-5.1-14.8 0 2.4-1.6 1.3-3.4-2.4l-1.7-3.6-2 2.9c-2 3.1-2.2 2.8-1.9-2.4.1-1.7-.1-3.2-.5-3.2-.3 0-2.5 1-4.8 2.1-3.8 2-4 2-2.6.3 3-3.4 7.9-12.5 7.4-13.5-.8-1.2-3.1-1.1-5.4.3-1.5.9-2.6.8-5.2-.3-1.9-.7-4-1.2-4.8-1.1-.7.2-2.6-.9-4.2-2.4l-2.8-2.7 5.2-3.7c5.4-4 7.8-6.7 11.7-13.8 2.3-4.1 2.3-4.5.9-9-3.5-11.4.5-30.8 8.1-39.5 4.6-5.2 11.9-9 20-10.5 3-.5 16.1-.9 29-.8 19.9.1 24.3.4 28.8 1.9 6.9 2.4 15.3 10.2 18.8 17.3l2.7 5.5 2.2-2.1c3-2.8 7-2.5 12.7 1.1 5.2 3.3 14.8 13.3 14.8 15.3 0 .7 1.1 2.3 2.4 3.5 5 4.7 6.7 20.7 3.3 30.6l-1.7 5 5.4 13.7 5.3 13.6.2 14.7c.2 14.2.1 14.7-1.9 15.2-1.8.5-2.1 1.1-1.6 3.6.5 2.6.4 2.8-.9 1.7-1.4-1.1-1.4-1-.5 1.4 1.4 3.8 1.3 3.8-1.5 1.1-2.5-2.6-5.1-3.4-4-1.3.9 1.8-2.6-2.2-4.6-5.3l-1.7-2.4.3 3 .3 3-1.6-2.4c-1-1.3-3.3-5.4-5.3-9s-5.2-9.2-7.1-12.3c-3.8-6.2-4.6-10.2-6.9-33-.9-8.9-1.5-12.1-2.9-13.3-1-.9-2-1.3-2.3-.8-.3.4-1.7 3-3.1 5.8-3.5 6.4-2.9 11.6 1.5 14.2 3.6 2.2 3.8 3.6.3 2.7-2.6-.7-2.7-.6-2 3.1.6 3.2.5 3.7-.8 3.2-1.2-.5-1.6 0-1.6 2.1l-.1 2.7-3.3-3.9c-3.3-3.9-3.4-3.9-4.1-1.5-.4 1.3-1.5 2.9-2.4 3.5-1.2.9-1.6 3.2-1.6 10.3 0 7.5-.2 8.8-1.2 7.4-.7-.9-1.4-2.2-1.4-2.7-.2-2.1-1.7 4.9-1.8 8.6-.2 5.7-1.9 4.6-2.4-1.5-.3-5.1-.3-5.1-.5 1.3-.3 9.1-1.8 5.9-3.2-7-.6-5.8-1.3-10.6-1.5-10.8-.1-.2-1.2 1.2-2.3 3-1.2 1.9-3.9 5-6.2 7-2.2 2-4 4.3-4 5.1 0 .9-.3 2.2-.6 3.1-.6 1.7 2.5 3.6 12.8 7.7 14.2 5.6 19.7 10.7 27.3 25.2 2.3 4.4 4.6 7.7 5.5 7.7.8 0 4-.7 7-1.5 5-1.3 6-1.3 11.5.4 8.7 2.7 20.7 4.3 26.2 3.6 7.2-1.1 16.4-5 29.7-12.8 12.8-7.4 40.3-20.6 44.7-21.4 2.3-.4 3.4.5 8.7 6.9 17.1 20.8 38.7 36.8 63.5 47.1l3.7 1.6V0H0z"/><path d="M53.7 183.2c-7.3 7.9-7.4 8.2-3.8 12.7 1.8 2.2 3.9 6.3 4.7 9.1 2.2 7.3 1.9 7.8-20.6 32.3l-3.5 3.8-2.8-2.7c-2.6-2.3-2.8-3.1-2.3-6.8.9-6.1 1.8-20.6 1.3-20.6-.2 0-3.3 1.9-6.9 4.2-3.6 2.4-7.2 4.7-8.2 5.3-1.4.9-1.5 1.3-.2 3.7 2.3 4.4 3.8 13.1 2.7 15.9-.5 1.3-3.9 5.6-7.5 9.6L0 256.8V384h165.7l2.7-12.8c12.2-56.1 16.5-74 20.5-84.9 2.3-6.3 6.1-25.8 6.1-31.4 0-.7-1.9.6-4.2 2.9-3.8 3.9-6.8 5.4-6.8 3.4 0-4.1 8-39.4 9.2-40.6 1.1-1.1 1.4-2.5.9-4.8-.6-3.1-1-3.3-5.6-4-2.8-.3-7.3-.7-10.2-.7-4.3-.1-5.5.3-6.7 2.1-.9 1.2-1.6 3.3-1.6 4.6s-1.8 5.2-4.1 8.7c-4.5 7.1-.9 5-33.9 18.8-5.2 2.1-11.5 4.8-13.9 5.8-5.7 2.5-7.4 2.5-6.6-.1 1.1-3.3-1.7-2.4-6.9 2.5-2.7 2.5-5.4 4.5-6 4.5s-1.6-1.2-2.3-2.6c-1-2.2-.4-4.8 5.3-21.2 3.6-10.3 7.2-19.4 8-20.3s3.5-2.7 6-4c2.4-1.3 4.4-2.7 4.4-3.2 0-2.1-23-14.7-26.9-14.7-.6 0-.4 1.8.4 4.1 3 8.3 2.2 10.9-5.6 20.1-3.9 4.6-9.6 10.9-12.7 14.2-4.8 5-5.7 5.6-6.7 4.2-.7-.9-1.7-1.6-2.4-1.6-1.4 0-1.4.5.5-18.5.9-9.6 2.2-16.9 3-18.3.8-1.2 3.2-3.4 5.4-4.8l3.9-2.6-10-4.9c-5.5-2.7-10.3-4.9-10.6-4.9s-2.4 1.9-4.6 4.2m378.3 2.7c-1.3 1.1-5.2 3.2-8.5 4.7-3.3 1.6-6.2 2.9-6.4 3.1-.2.1 1.1 1.6 2.8 3.3 5.7 5.8 5.4 11.2-1.2 17.3-2.3 2.1-6.2 5-8.6 6.5-4.3 2.5-4.4 2.5-5.8.6-2.6-3.6-6.1-16.5-5.3-19.6l.9-2.8-3.2 1.6c-1.8.9-5.7 3.5-8.7 5.7l-5.4 4.1 2.9 1.2c6.1 2.5 7 4.6 6.8 15.1-.2 10.4-1.8 13.9-5.6 12.9-1.7-.4-1.7-.2.4 2 2 2.1 2.1 2.7.9 3.4-.8.5-2 1-2.5 1-.9 0-17.9-4.2-36.5-9-4.9-1.3-11.2-9.5-11.6-15.1-.4-6.1-1.6-6.9-9.9-6.9-5.8 0-7.7.4-9.5 2-1.3 1.1-2.9 2-3.6 2-2.2 0-2.4 1.6-.6 3.6.9 1.1 2.3 2.7 3 3.6 1.4 1.8 7.9 34.4 8.9 44.6.4 4 .2 6.2-.5 6.2-.6 0-2.7-2.3-4.7-5-2-2.8-3.9-5-4.2-5-1.5 0 1.1 17.1 3.7 23.9 2.9 7.9 7.7 28.7 15.5 67.1 2.5 12.4 4.8 23.3 5.1 24.2.5 1.7 5.5 1.8 86 1.8H512V257.9l-6.6-2.9c-3.6-1.7-8-3-9.7-3-4 0-21.7-6.1-21.7-7.5 0-1.2 10.1-11.1 13.8-13.7l2.5-1.6-5.4-3.1c-3-1.7-5.7-3.1-6.1-3.1-.3 0-.6 2-.6 4.5.1 5.2-2.4 9.5-6.4 10.9-2.8 1-18.7-.1-20.8-1.4-3.1-1.9 7.4-20 11.7-20 .7 0 1.3-.5 1.3-1 0-.6-.3-1-.8-1-.4 0-3.1-2.1-6-4.6l-5.2-4.6v3.7c0 5.5-3.8 8.7-13.6 11.3-9.4 2.6-12.4 2.7-12.4.8 0-4.8 2.4-17.5 3.6-19.4 1.7-2.6 7.1-5.2 10.8-5.2 1.4 0 2.8-.4 3.1-1 .6-1-7-12-8.3-12-.4 0-1.8.9-3.2 1.9"/><path d="M136.5 211.7c-3.8.6-5.1 1.8-3.7 3.6.7.8.9 2.9.5 5.3l-.5 3.9 6.6-6.5c3.6-3.5 6.6-6.6 6.6-6.7 0-.4-5.7-.1-9.5.4m226.5 6.8c1.9 1.9 3.7 3.5 4.1 3.5 1 0 2.9-5.7 2.2-6.4-.4-.3-2.7-.6-5.2-.6h-4.5zm143.6 19.2c-.7.7-.8 6.3-.1 6.3 1.5 0 5.5-2.5 5.5-3.5 0-1.4-4.5-3.7-5.4-2.8m-294.5 48.5c-1.2 5.1-2.7 11.3-3.3 13.8s-5.5 16.5-10.9 31.2c-9.9 27-10.5 29.4-10 40.3l.3 6 1.4-3.3c.8-1.8 3.4-10.6 5.9-19.6 4.5-16.4 8.9-28.6 14.3-39.4 3.6-7.1 4.6-11 3.3-12.6-.6-.7-.7-2.6-.1-5.1 1.1-5 2.5-20.5 1.7-20.5-.2 0-1.5 4.2-2.6 9.2m84.5 20c.3 1.8 2.7 7.6 5.2 12.8 5.9 12.6 8.4 19.4 11.7 32 3.3 12.5 4.4 15 4.5 9.9 0-2-1.7-8.6-3.8-14.5-11.5-32.3-15.8-43.4-17-43.4-1 0-1.2.9-.6 3.2"/></svg>