<svg xmlns="http://www.w3.org/2000/svg" width="682.667" height="512" version="1.0" viewBox="0 0 512 384"><path d="M0 107.5C0 166.6.3 215 .6 215c.9 0 14.5-9.3 21.9-14.9 3.3-2.5 11.7-10.1 18.8-16.8 7-6.8 13.4-12.3 14.2-12.3.9 0 3.2.8 5.3 1.9 2 1 10.7 4.7 19.2 8.1s21.8 9.5 29.5 13.5c20.4 10.6 24.9 11.9 39.9 11.2 8.7-.3 14.1-1.1 19.4-2.8l7.4-2.3 8.5 2.3c4.7 1.2 8.9 1.9 9.3 1.4.4-.4 4-5.7 8.1-11.7 7.9-11.7 11.3-14.7 21.6-19.6 5.7-2.7 6.4-3.4 5.9-5.3-.3-1.2-.6-2.5-.6-2.9s-.6-.5-1.4-.2c-1 .4-1.5-.8-2.1-4.2-1.2-8.3-2.4-9.6-2.5-2.9-.1 3.3-.5 7.1-.9 8.5-.6 2-1.1 1-2.5-5.5-2.4-10.7-3.5-13.3-4.5-11.6-.6.9-1.4-.5-2.7-4.5-1-3.3-1.9-5.1-2.1-4.2-.7 2.7-1.7 2.2-3.1-1.5l-1.3-3.2-1.9 2.3c-2.6 3.1-3.2 2.8-2.4-1.3.7-4-.1-4.3-4.6-2-1.7.9-3 1.3-3 1s1.8-3 4-5.9 4-5.6 4-6-2-.4-4.5 0q-4.5.6-6-.6c-.8-.7-2.4-1-3.5-.7-2.2.6-7-2.7-7-4.7 0-.7 1.8-2.6 4.1-4.1 4.7-3.3 8.7-8.2 11.9-14.4 1.9-3.9 2.1-4.8 1-9-2.6-10.1-.8-24.6 4.1-34.2 4.7-9.2 18.5-16.4 31.4-16.2 12.7.1 23.4.1 33.5 0 14-.3 20 1.6 27.4 8.4 3.2 2.9 6.6 7.3 8.2 10.5l2.6 5.4 2.4-2.5c1.6-1.7 3.4-2.5 5.6-2.5 6.5 0 19.7 10.1 23.8 18 1 1.9 2.3 6.2 3 9.5s1.9 8 2.7 10.3c1.3 3.9 1.3 4.6 0 6-.9 1-1.8 3.5-2.2 5.7s-1.6 5.5-2.6 7.3c-1.3 2.3-1.6 3.9-1 5.5.5 1.2 1.8 7.8 3 14.7s2.5 13.5 2.8 14.8c.4 1.5.1 2.2-.7 2-.9-.2-1.7 1.7-2.5 5.2-1 5.1-6.3 17.7-8.6 20.3-.5.7-1.8 2.2-2.8 3.5l-1.9 2.3-.7-2.1c-.6-2-.8-2-2.4-.6-2.2 2-3.1 1.2-3.1-2.8 0-4.8-1.6-6.5-2.5-2.7-1 4.9-2 4.4-2.2-1.3-.1-2.8-1.4-8.7-2.8-13.1-2.6-7.9-2.7-8.2-2-28.1.4-11.1.4-21.1 0-22.3-1.1-3.6-3-2.4-5.9 3.8-3.6 7.4-3.1 12.3 1.5 14.9 3.6 2.1 3.8 3.6.3 2.9-2.4-.4-2.6-.3-2 2.5.5 2.7.4 3-1.5 2.5-1.8-.5-2.1-.2-1.7 2.4.6 3.9-.6 3.7-3.5-.6l-2.4-3.6-2.3 3.8c-1.9 3-2.4 5.7-2.8 13.2-.4 9.2-.5 9.4-2 6.5-1.7-3.3-1.8-3.2-2.8 5.1l-.8 6-.7-4-.6-4-.2 5c-.2 4.3-.4 4.6-1.2 2.5-.5-1.4-1.4-6.5-2.1-11.4s-1.7-9-2.3-9.2c-1.8-.3-10.5 10.1-11.1 13.4-.7 3.5-1 3.4 16.9 10.7 9 3.7 15.1 9.4 21.6 20.4 3 5 6.1 9.1 6.9 9.1s4.5-.8 8.4-1.7c6.6-1.6 7.2-1.6 14.1.3 5.2 1.4 10.4 1.9 18.7 1.9 13.9-.1 17.3-1.2 34.7-11.7 6.5-3.9 20.5-11.3 31.1-16.4l19.4-9.4 8.7 8.3c19.1 18.1 24.9 22.6 41.1 31.9 8.7 5 22.3 11.8 23.5 11.8.3 0 .5-49.1.5-109V0H0z"/><path d="M230 156.2c0 4.5 1.3 12.8 2 12.8.3 0 1.6-.9 2.7-2 1.9-1.7 2-2.3 1-5.7-1.8-6.2-5.7-9.7-5.7-5.1m200 25.9c-2.5 1.6-6.4 3.6-8.6 4.5-3 1.1-4.2 2.2-4.3 3.7-.1 1.2-.3 4.4-.4 7.2-.2 2.7-1.3 7.5-2.5 10.5-2.1 5.2-2.9 5.9-13 12.7-5.9 3.9-14.7 9.9-19.6 13.2-4.9 3.4-9.3 6.1-9.9 6.1-.5 0-.6-1.1-.3-2.6.5-1.9.4-2.4-.6-1.8-2.2 1.3-13.9 9.5-23 16.1-9 6.5-10.8 7.3-10.8 4.9 0-.7 4.3-10.2 9.5-21 7.6-15.9 10.1-20 12.5-21.4 4.2-2.4 3.7-3.2-1.9-3.2-12.4 0-16.9 1.9-14.3 6.1.7 1 1.2 4.7 1.2 8.2v6.2l-12.3 12.3c-6.7 6.7-13 12.2-14 12.2-2.2 0-2.2-1.6.3-18 1.1-7.3 2-13.9 2-14.8s2.4-3.8 5.3-6.6l5.2-4.9-5.5.6c-3 .4-6.7.7-8.2.7-1.7 0-2.8.5-2.8 1.4 0 .7-1.3 1.9-2.9 2.6l-2.9 1.2 2.4 3.5c1.3 2 2.4 4.1 2.4 4.8s.8 1.6 1.8 2c1.6.6 1.6.7-.1 2-1.6 1.1-1.8 2.9-1.9 11.7 0 11.4 4.3 39.2 6.9 44.2 4.1 7.9 15 48.5 21.2 79.1l3.7 18 83.7.3 83.7.2V274.2l-7.1 2.1c-6 1.8-7.2 1.9-8 .6-.5-.8-.9-1.7-.9-2 0-.4 3.6-4 8-8 7.5-6.8 8-7.5 8-11.3 0-3.4-.2-3.7-1.2-2.4-1.2 1.5-43.3 15.8-46.5 15.8-.7 0-1.2-1-1.2-2.3.1-1.4 5.5-7.4 15.9-17.5l15.7-15.3 8.7-1.7c4.7-.9 8.6-1.9 8.6-2.2 0-.7-22.4-11-23.9-11-2.1 0-5.1 4-5.1 6.8 0 1.5-1.5 5-3.2 7.7-3.7 5.7-5.6 6.7-31.2 17.9-12.6 5.5-15.9 6.7-16.6 5.6-1.2-1.9-1.2-1.9 14.1-20.5 12.4-15.3 13.8-16.6 18.4-18.1 2.8-.9 6.8-1.9 9-2.3l4-.6-5-3.1c-2.7-1.7-8.5-5.8-12.7-9.2-8.3-6.6-9.4-6.6-9.5-.1-.1 1.9-1.3 5.9-2.7 8.8-2.2 4.2-4 6-9.6 9.6-3.9 2.5-7.2 4.5-7.4 4.5-.3 0-6 3.4-12.7 7.5-12.8 7.8-15.5 8.8-14.7 5.7.6-2.1 20.2-34.7 22.7-37.6 2-2.3 12.8-7.6 15.6-7.6 1.1 0 2.6-.9 3.3-2.1 1.2-1.8 1-2.5-1.5-5.7-3.8-5.1-6.1-7.2-7.5-7.1-.7 0-3.3 1.3-5.8 3m-376.7 4.7c-1.9 2-4.3 4.9-5.4 6.3-1.8 2.6-1.8 2.7.6 5.3 1.3 1.4 3.1 2.6 4 2.6 2 0 12.1 7.4 13.5 9.9 1.8 3.5 16 43.5 16 45.3 0 2.8-1.6 2.2-6.8-2.5-5.3-4.8-28.7-26.1-31.6-28.8-2.3-2.1-4.9-15.5-3.5-18.2 2-3.7-1.8-2.7-6.6 1.8-2.8 2.6-8.7 7.1-13.2 10.2-8.4 5.5-9.9 7.3-6.4 7.3 1.1 0 4.8 1.9 8.3 4.2l6.3 4.3 8.4 23.3c4.6 12.8 8.1 23.5 7.8 23.8-.9.9-4-.4-6.7-2.8-1.4-1.3-9.6-8.5-18.2-16.1C4.1 248.9 4.1 248.9 3 243.3c-.7-3.1-1-7.4-.7-9.4.3-2.6 0-4.2-.9-5-2.1-1.8-2.1 56.6.1 63.7 1.9 6.4 1.9 8.5 0 7.8-1.3-.5-1.5 4.5-1.5 41.5V384l92.6-.2 92.6-.3 2.4-6.4c1.2-3.6 3.5-10.8 4.9-16 5.6-20.4 8.9-30 13.8-40.6 4.3-9.3 5.1-12 5.3-17.5 0-3.6.5-10.6.9-15.6s.4-11.7 0-15l-.7-5.9-2.7 7.5c-4.4 12.4-6.4 14.4-24.6 24.7-14.1 8-28.5 15.2-32.5 16.3-3 .8-5.8.5-15.1-1.9-12.3-3.1-21.3-6.3-24.2-8.5-2.4-1.8-9.7-24.6-9.7-30.2s2.3-10.4 5-10.4c1.1 0 2 .5 2 1 0 .6 1.5.8 4 .4 4.7-.8 5.4 1 1.9 4.2l-2.1 1.9 3.3.5c4.1.6 4.8 2.6 1.6 4.1-2.5 1.1-5.1 5.2-4 6.3.4.3 1.1-.4 1.7-1.7.9-1.7 2.2-2.3 5.4-2.5 5.5-.4 18.4 6.2 24.1 12.3l4 4.3 9.3-6.6c5.2-3.7 10.4-7.4 11.7-8.2l2.3-1.6-9.6-22.7L154 233l1.6-6.3c.9-3.4 2.2-7.2 3-8.4 2.6-4.2 2-4.4-10.6-4.2-6.6.1-12 .5-12 .8 0 .4 1.9 2.3 4.3 4.3 3.4 2.8 4.5 4.6 5.6 8.9.7 3 3.5 13.6 6.2 23.5 2.7 10 4.9 18.9 4.9 19.8 0 2.6-2.8 1.8-5.7-1.6-1.6-1.7-6.2-7-10.3-11.7-22-25.1-20.6-23.1-21.4-31-.5-5-.4-7.7.4-8.6.7-.9.9-2.6.5-4.5-.7-3.3-7.4-8.5-17.5-13.4l-5.5-2.7 3.7 3.3c3.4 3 4.4 5.3 10.1 22.3 9.7 28.7 9.7 28.8 9.2 29.3-1 1-6.3-3.6-22.8-19.8l-17.3-16.8-1.1-6.8c-.7-3.7-.9-7.4-.4-8.1.4-.7.5-2.8.3-4.6-.3-3-1-3.5-11.4-8.4L56.7 183z"/><path d="M384.8 203.6c-3.2 2.4-4.8 4.3-4.8 5.8 0 1.2-.5 2.7-1 3.2-.8.8-.8 1.9 0 3.8.5 1.5.7 3.3.4 3.9-.5.8-.4.9.3.2 1.5-1.5 11.2-20.5 10.5-20.5-.4 0-2.8 1.7-5.4 3.6M170 215c0 .5.6 1 1.4 1s3.1 2.8 5.2 6.1l3.7 6.1-.5 14.2-.6 14.1 3.8-14.8c2.1-8.1 4.3-15.3 4.9-16.1.8-.9.8-2.2.2-3.8-.5-1.3-.7-3.6-.4-5.1l.5-2.7h-9.1c-5.4 0-9.1.4-9.1 1m15.1 53c-3.5 4.4-3.2 4.9 1.6 2.1 2.4-1.5 3-2.5 2.6-4-.3-1.2-.6-2.1-.7-2.1-.2 0-1.7 1.8-3.5 4m109.6 19.5c.4 4.4.8 10.9.8 14.5.1 5.7.9 8.1 5.7 18.5 6.1 13.1 7.7 17.8 13.7 39.3 4.3 15 7.8 24.2 9.2 24.2 1.2 0 1.1-.7-.3-3.3-.7-1.2-1.5-7.6-1.8-14.2l-.6-12-8.8-21c-8.5-20.2-12.1-30.3-16.5-46.5l-2.1-7.5zm-171.7-1c0 .8-.6 1.5-1.2 1.5-.7 0-.5.5.5 1.1 2 1.2 6 .2 5.2-1.2-.4-.5-1.5-1.4-2.6-1.9-1.5-.9-1.9-.7-1.9.5"/></svg>