<svg xmlns="http://www.w3.org/2000/svg" width="682.667" height="512" version="1.0" viewBox="0 0 512 384"><path d="M0 108.5v108.6l3.3-1.7c11.6-6 24.5-16.1 40.8-32.1 8.4-8.2 13.3-12.3 14.8-12.3 1.2 0 3.8.9 5.9 1.9 2 1 9.1 4 15.7 6.6s20.1 8.7 30 13.6c23.1 11.5 31.2 13.7 43.5 12 4.7-.6 11.8-2.1 15.9-3.3 6.7-2 7.8-2 13.5-.8 12.2 2.6 10.7 3.2 17.2-6.5 9.3-13.9 13.2-17.6 24.4-23.5 5.5-2.9 10.4-5.8 10.9-6.4 2.2-2.6-2.7-13.3-5.6-12.2-.8.3-1.3-.2-1.3-1.4 0-1-.4-2.2-1-2.5-.6-.4-1 2.2-1 7.2 0 8.5-1.9 14.2-2.1 6.3l-.1-4.5-1.1 3.5c-1 3.4-1.1 3.2-1.8-4.3-.7-8.5-1.9-11.5-1.9-4.9 0 2.2-.5 6.5-1.2 9.4l-1.2 5.3-.7-5.5c-1.2-9-5.1-21.9-6.5-21.3-.7.3-2.1-1.2-3.2-3.4l-2-3.8-1.3 2.7c-1.6 3.6-3.3 3.6-2.6.1.6-3.5-.2-5.6-1.7-4.4-.6.4-2.2 1.2-3.5 1.6-2.2.7-2 .2 1.8-5.1 2.2-3.1 4.1-6.1 4.1-6.6 0-1.1-3.8-1-4.5.2-.9 1.4-4.7 1.2-6.9-.5-1-.8-3-1.2-4.5-.9-1.9.4-3.2-.1-4.9-1.9l-2.4-2.5 5.8-4.4c3.3-2.5 7.4-6.8 9.7-10.3 3.3-5.2 3.8-6.5 3.3-10q-2.25-15.3-.6-23.7c2.6-13.5 9.7-22.6 20.9-26.9 5.3-2.1 7.3-2.2 34.1-2.3l28.5-.1 5.5 2.7c7 3.4 12 8.6 16.5 16.8 1.9 3.6 3.5 5.9 3.5 5.2 0-2.5 4-5.2 7.5-5.2 4.7 0 9.9 2.7 16.4 8.6 6 5.4 9.6 11.8 10.6 18.9.5 2.8 1.4 6.7 2.1 8.9 2 5.6 1.7 6.9-1.6 8.8-1.8 1-3 2.5-3 3.8 0 1.2-.7 3.5-1.6 5.2-1.4 2.8-1.4 3.6 0 8.7.8 3.1 2.2 10.5 3.1 16.6.8 6 1.8 12.3 2.1 13.9.4 1.7.2 2.6-.3 2.3-.6-.4-1.6 1.9-2.2 4.9-2 8.6-11.1 26.9-11.1 22.3 0-.8-1.1.8-2.5 3.6l-2.4 5-.1-3.8c0-2.3-.4-3.6-1-3.2-.5.3-1.1-.4-1.1-1.7-.1-2-.2-2.1-.6-.3-1 4.1-2 3.5-2.8-1.7-.6-4.5-.8-5-1.6-3-1.4 3.6-2.5 1.9-3.2-4.5-.3-3.2-1.4-7.8-2.3-10.3-1.3-3.3-1.8-7.7-1.8-16.5-.1-6.6-.5-12.3-1-12.6-1.5-1.1-4.8.3-4.2 1.7.3.8.9 2.1 1.3 3 .5 1.3.2 1.5-1.6.9-2-.6-2.1-.4-1.5 2.2l.7 2.8-3.6-3.4-3.6-3.4-1.2 2.6c-.6 1.4-1.7 2.3-2.5 2-1.5-.5-3.1 4.7-4.4 14.1-.6 4.6-.9 5.6-1.5 3.8-1.2-3.6-2-2.6-3.7 4l-1.6 6.3-.2-5.5-.2-5.5-1.3 6-1.2 6-.2-10.9-.1-10.8-4.9 5.1c-4.9 5.1-7.2 10.4-5.4 12.2.6.6 5.2 2.6 10.4 4.5s11.7 5 14.5 6.8c4.9 3.3 6.7 5.6 15.8 20 2.7 4.2 4.2 5.7 5.4 5.3 15.5-4.3 14.3-4.2 24.6-1.9 20.1 4.6 31.5 2.4 53.4-10.7 7.2-4.3 17.8-10.1 23.5-12.7 5.6-2.7 14-6.8 18.6-9.1 7-3.5 8.7-4 10.5-3.1 1.1.6 6.6 5.4 12.1 10.6 14.8 14.1 32.7 26.2 50.9 34.5l5.6 2.6V0H0z"/><path d="M304.7 112.5c-3.7 7.7-3.6 11.7.5 14.9 2.7 2.1 3.4 2.3 4.1 1.1 1.1-2.1.4-20.8-.8-21.2-.6-.2-2.3 2.2-3.8 5.2m5.5 35c0 1.6.2 2.2.5 1.2.2-.9.2-2.3 0-3-.3-.6-.5.1-.5 1.8m21 18c-.1 1.1-.5 3.8-.8 6-.4 3.2-.3 3.6.6 2.2.6-.9.9-3.6.7-6-.2-2.3-.4-3.3-.5-2.2m105.2 11c-1.2.8-5.3 3-9.2 5-4.9 2.4-7 4-6.6 4.9.3.8.1 2.3-.4 3.3-.6 1.1-.7 2.5-.1 3.5 1.4 2.5-1.9 15.9-4.4 18.2-1.2 1-8.1 7.4-15.2 14.1-13.7 12.9-20.2 18.5-21.6 18.5-1.6 0-.9-3.7 2-11.1 1.7-4.1 5.5-13.9 8.6-21.9 3.9-10 6.4-15.2 8.3-16.8 4-3.5-.2-1.2-8.3 4.4-6.9 4.8-9 8.7-7.8 14.4.8 4.3-3.2 15.1-7 18.7-4.9 4.7-35.8 29.3-36.8 29.3-.4 0-1-.3-1.3-.8-.2-.4 4.2-10.8 9.9-23.2 8.6-18.7 10.9-22.9 13.7-24.8 6.1-4.3 5.9-4.5-4.5-4-8 .4-10.2.9-11.8 2.4-1.6 1.6-1.7 2.4-.8 4.9s.7 4.1-1.4 9.5c-2.4 6.5-2.5 6.6-14.8 15.2-7.1 5-12.5 9.6-12.7 10.6-.5 3.3 4.8 29.9 6.9 34.9 4 9.1 14 48.5 19.9 78.8 1.7 8.8 3.4 16.8 3.6 17.7.5 1.7 5.4 1.8 84 1.8H512v-59c0-32.5-.3-59-.6-59s-5.8 4.3-12.2 9.5-12 9.5-12.4 9.5c-.5 0-1.3-1-1.9-2.3-.9-2 0-4.5 5.8-16.7 12.9-27.4 13.5-28.3 17.5-30.5 3.7-1.9 3.8-2.1 3.8-7.6v-5.7l-8.6-3.7c-8.6-3.7-8.7-3.7-10.6-1.7-1.5 1.5-1.8 2.4-1 3.7.5 1.1.6 3.1.1 4.9-.4 1.7-1.3 5-1.8 7.2-1 3.6-2.7 5.5-12.9 14-6.4 5.4-12.1 10.2-12.7 10.8-3.5 3.7-13.5 11.6-14.8 11.6-3.5 0-2.3-4 7-25.1l9.7-21.9 6.7-4c3.7-2.2 7.5-4 8.3-4 3 0 1.6-2.9-2.2-4.9-2.1-1.1-7.9-5.1-12.9-9-9.1-7-11.1-7.5-9.9-2.6.3 1.3 0 5.4-.8 9.2-1.3 6.2-1.9 7.2-6.8 11.7-2.9 2.7-9.9 9.5-15.6 15-14.4 13.8-17.3 16.1-18.4 14.1-.6-1 .2-4.6 2.6-10.8 3.1-8.1 11.6-30.3 13.4-34.9.9-2.2 13.2-10.8 15.5-10.8.9 0 1.7-.4 1.7-.9s.7-1.7 1.6-2.6c1.5-1.4 1.2-2-3.1-7-4.9-5.7-6.7-6.5-10.1-4m-377.9 7.3c-.6.4-2.8 2.8-4.9 5.4l-3.8 4.8 1.6 3.5c.9 1.9 2.2 3.5 2.9 3.5s4.2 2 7.8 4.5l6.7 4.6 4.2 13.2c2.3 7.3 5.7 18.1 7.6 24.1 2 5.9 3.3 11.5 2.9 12.4-.4 1.2-5.5-3.3-19.4-17.2l-18.8-18.7-1.1-7.5c-.9-5.5-.9-8.1-.1-9.6.8-1.4.8-2.3 0-3.1s-2.1-.1-4.9 2.5c-4.2 4-20.1 15.8-21.4 15.8-.4 0-.8.8-.8 1.7.1 1.1 1.9 2.6 4.8 4 10.7 5 11.2 5.9 19.6 31.1 7.7 23 8.5 26.2 6.5 26.2-.6 0-6.8-5.5-13.7-12.3-7-6.8-15.3-14.8-18.6-17.9-5.6-5.3-5.9-5.7-7.1-12.9-.8-4.8-1-8.2-.3-9.8 1.4-3.8-1.1-5.8-5.1-4.1L0 229.2v37.7l5.5 16.9c3 9.3 5.5 17.4 5.5 18.1 0 2-1.9 1.2-5.9-2.4C3 297.6 1 296 .6 296c-.3 0-.6 19.8-.6 44v44h92.9c87.6 0 92.9-.1 93.4-1.7.3-1 1.7-5 3.1-8.8 1.5-3.9 4.3-13.1 6.2-20.5 4.3-16 7.1-24 12.6-35.8 4.5-9.7 6-14.6 4.7-15.9-.5-.5-.4-3.5.1-6.8 1.1-6.9 1.2-20 .1-26.5l-.7-4.5-2.2 6.9c-4.5 14.1-7.5 17.6-22.7 26.7-24.9 14.9-42.6 23.8-47.3 23.9-1.3 0-7.8 1.1-14.4 2.5s-14.1 2.5-16.6 2.5c-6.4 0-15-5.2-23.9-14.3-6-6.1-7.3-8.1-7.3-10.7 0-1.7.6-3.8 1.4-4.6.8-.7 1.6-1.9 1.8-2.5.6-1.8 6.5 2.3 8 5.6 1 2.3 1.9 2.9 3.7 2.7 1.3-.1 2.9.5 3.5 1.3 1.5 2 14 3.1 17.9 1.6 4.2-1.6 2.3-3.3-2.9-2.5-3.6.5-4.5.3-5-1.1-1.2-3 1.3-6.3 5.5-7.5 6.5-1.7 20.2.5 25.2 4.1 1.5 1 3.3 1.9 4.1 1.9s8.1-4.8 16.4-10.6c8.2-5.9 17.7-12.4 21.2-14.6 5.2-3.4 6.2-4.4 6.2-6.8 0-1.6-1.1-4.1-2.4-5.7-1.3-1.5-6.6-8.3-11.8-15.1l-9.5-12.2-.7-7.2c-.5-5.5-.3-7.6.9-9.4 1.3-2 1.3-2.7.3-4.5-1.2-2-1.8-2.1-12.2-1.5-6.1.4-11.2.9-11.5 1.2s1.6 2.4 4.2 4.7c4.8 4.2 4.8 4.2 11.8 26.2 8.6 26.8 8.6 26.5 6.6 26.5-.8 0-9.3-8.1-18.8-18.1l-17.4-18.1-1.5-6.9c-1-5.1-1.1-7.7-.4-9.7 2.2-5.7-3-11.4-17.2-18.5-8.8-4.4-10.2-4.3-4.4.5 4.8 3.8 5.7 5.2 7.6 11.3 1.3 3.9 4.5 14.2 7.3 23 5 15.8 5.8 19.5 4.3 19.5-.4 0-8.9-8.2-18.9-18.3l-18.1-18.2-1-6.5c-.6-3.6-.9-9.3-.8-12.8.3-4.3 0-6.2-.8-6.2-.7 0-5.4-2-10.5-4.5-9.9-4.8-10-4.9-11.6-3.7m267.4 25.6c-.2.3-3 .6-6.1.8-4.4.2-5.8.7-6.1 2-.3.9-1.9 2.3-3.5 3l-3.1 1.3 2.8 4c1.5 2.2 3.3 4 4 4 .6 0 2.4-2.2 3.9-4.9 1.9-3.6 3.9-5.6 7.1-7.3 5.5-2.9 5.9-3.3 3.4-3.3-1.1 0-2.2.2-2.4.4M174 213.8c5.7 3.9 9.4 8 11.3 12.1l2 4.5 1.8-2.3c2.3-2.8 2.4-4.4.4-6.1-.8-.7-1.5-2.9-1.5-5 0-3.4-.3-3.8-3.1-4.4-1.7-.3-5.5-.6-8.3-.5h-5.1zm137 16.7c-.6.8-1 1.9-.8 2.6.2.6.9 0 1.6-1.5 1.3-2.9 1-3.3-.8-1.1m-124 3.9c0 .8.5 1.8 1 2.1.6.3 1-.1 1-.9s-.4-1.8-1-2.1c-.5-.3-1 .1-1 .9M295.6 285c.3 3 1 7.3 1.6 9.4.7 2.9.6 4.6-.3 6.2-1.1 2.1-.5 4 5.4 16.8 3.7 7.9 7.8 18.6 9.3 23.8 6.8 24.8 8.7 30.8 9.6 30.8.6 0 .8-3.7.6-9.3-.4-8.8-.7-10-9-30.7-9.5-23.9-12-31-14.4-42-2.1-9.6-3.6-12.3-2.8-5"/></svg>