<svg xmlns="http://www.w3.org/2000/svg" width="682.667" height="512" version="1.0" viewBox="0 0 512 384"><path d="M0 109v108.9l6.8-4.1c13.1-8.2 25.9-18.3 38.8-31 7.3-7 13.5-12.8 13.8-12.8.4 0 2.8 1.1 5.4 2.4s11.2 5 19.2 8.1c8 3.2 21.3 9.3 29.5 13.5 16.1 8.2 24.8 11 34.5 11 6.4 0 18.5-2.2 25.7-4.6 3.8-1.3 4.9-1.3 12.4.7 9.5 2.5 7.9 3.4 17.4-10.6 8.2-12.1 10.5-14.2 21.5-19.9 12.7-6.7 12.4-6.4 10.9-11.5-.7-2.5-2.4-5.2-4-6.3-1.5-1.1-3-3-3.4-4.2-.6-1.5-1-.5-1.6 3.9-.5 3.3-1.3 8.2-1.8 11l-.8 5-.2-5.5c-.2-3.8-.5-4.9-1-3.5-.6 1.5-1 .5-1.6-4-.8-5.8-.9-5.9-1.6-2.5-1.3 5.9-2.7 11.1-3.2 11.6-.2.2-.7-2.4-1-5.9-.8-8.6-3.6-20.7-4.8-20.7-.6 0-.7.4-.4 1 .3.5.2 1-.4 1-.5 0-1.5-1.6-2.2-3.5-1.5-4.1-2.5-4.4-4.1-1-1.3 2.8-2.9 2.5-2.1-.5.3-1.1 0-2.6-.6-3.4-1-1.2-1.6-1.2-3.9-.1-3.4 1.8-4.1 1.1-1.5-1.8 6.7-7.5 7.7-12.2 1.9-9.2-2.5 1.3-3.1 1.3-5.9-.2-1.8-.9-4.4-1.6-5.8-1.5-1.5.1-3.4-.7-4.7-2.1l-2.2-2.4 5.8-4.5c5.9-4.5 11.8-12.2 12.9-16.7.3-1.4.1-4.4-.5-6.8-2.4-8.8-.7-23.6 3.7-32.1 2.7-5.2 9.7-11.7 15.6-14.4 4.5-2.1 6.7-2.3 20.5-2.5 8.5-.1 20-.4 25.5-.8 10.7-.8 18.9.6 26.5 4.5 4.8 2.5 10.4 8.8 13.7 15.4l2.6 5.4 2.4-2.9c4.6-5.5 13-3.1 23.1 6.4 6.6 6.3 7.8 8.6 10.1 19.1 1 4.5 2.3 9.2 3 10.3 1.7 3.3 1.4 4.2-2.2 6.3-4.4 2.6-7.5 11.7-5.7 16.5 1.5 3.9 2.7 10.4 4.5 24 1.7 12.8 1.8 13.4.6 11.7-.5-.9-1 .2-1.4 3.2-.7 5-6.2 19.1-8.6 21.9-.8 1-2.1 1.5-2.8 1.3-.8-.3-1.3.2-1.3 1.5 0 1.8-2.1 4.9-3.3 4.9-.3 0-.7-.9-1-2s-1.3-2-2.2-2-1.3.5-1 1c.3.6.1 1-.4 1-.6 0-1.1-2.1-1.1-5 0-5-1.3-6.7-2.3-3s-2.2 2-2.5-3.3c-.1-2.8-1.4-9.2-2.9-14.2-2.2-7.8-2.5-10.1-2-18.7l.5-9.8h-2.9c-3.1 0-3.5 1-1.9 4.1.8 1.5.7 1.9-.4 1.9-.9 0-1.6 1.1-1.8 2.7l-.3 2.8-2.5-3.7c-1.4-2.1-2.8-3.8-3.1-3.8s-1.1 1.2-1.8 2.7c-.9 2-1.5 2.3-2 1.4-.5-.7-1.1-.9-1.3-.5-1.3 2.2-3.7 11.4-4.4 16.4l-.7 5.5-1.1-3.5-1-3.5-2.2 7-2.2 7-.1-4.4c-.1-5.5-.6-5.1-1.5 1.3-.5 3.1-.4 4.6.3 4.2.5-.4 1.2-.2 1.6.3.3.5 3.1 2.1 6.3 3.6 7.6 3.5 13.2 9.1 19.5 19.7 2.9 5.1 5.8 8.8 6.7 8.8.8 0 4.9-.9 9-2.1 7.3-2 7.5-2 14.4-.2 5 1.3 10.7 1.8 19.1 1.8 14.6 0 18.1-1.2 35.6-11.5 6.7-4 15.1-8.7 18.8-10.5 15.9-8 32.2-15.5 33.6-15.5.9 0 6.4 4.4 12.3 9.7 17.2 15.6 29.4 24 48.2 33.4 4.3 2.2 8 3.9 8.4 3.9.3 0 .6-47 .6-104.5V0H0z"/><path d="M305.1 111.8c-4.1 8.1-4 11.3.1 14.6 4.3 3.3 4.8 2.3 4.8-8.9 0-12.2-1-13.4-4.9-5.7m5.1 35.2c0 1.4.2 1.9.5 1.2.2-.6.2-1.8 0-2.5-.3-.6-.5-.1-.5 1.3m-38.5 4.6c-2 2.3-4.2 5.6-4.9 7.4-1 3-.9 3.5 1.2 5.2 2.4 1.9 6.7 3.4 7.6 2.5.3-.2.3-4.7.2-9.8l-.3-9.4zm7.5 3.4c0 1.4.2 1.9.5 1.2.2-.6.2-1.8 0-2.5-.3-.6-.5-.1-.5 1.3m51.9 13.5c0 1.1-.4 3.1-.7 4.5-.5 1.9-.4 2.2.5 1.4.7-.6 1.1-2.6.8-4.5-.2-1.9-.5-2.5-.6-1.4m99.4 10.6c-6.3 3.4-8.9 5.3-8.7 6.4.2.9-.2 2.3-.8 3-.8 1-.8 1.9.1 3.3 1 1.6 1 3.5 0 9.3l-1.3 7.3-14.7 15.5c-19 20.2-19.9 21.1-21.6 21.1-.8 0-1.5-.8-1.5-1.8 0-.9 3.3-12 7.4-24.5 6.6-20.3 7.8-23.2 10.8-25.8l3.3-3-4 2c-2.2 1.1-6.7 4-10.1 6.4-5.3 4-6.2 5-6.8 8.7-.3 2.3-.4 4.5-.1 5.1 1.2 1.8-2.6 15.9-4.6 17.2-1 .8-5.8 5-10.6 9.4-12.5 11.4-26.5 23.3-27.5 23.3-1.6 0-.7-3.4 4.1-14.8 2.7-6.5 6.8-16.2 9.1-21.7 3.3-8 5-10.9 8.8-14.3l4.7-4.4-10.4.7c-11.9.7-13.5 1.7-12.5 7.4.5 3.2-2.4 12.6-5 16-.6.8-6.4 5-13 9.3l-11.8 8 .6 4.2c1.9 13.4 4.8 27 6.6 31.7 3.6 9 4.7 12.7 8.9 29.9 6 24.9 8.7 37.1 11.6 52 1.5 7.4 2.9 14.5 3.2 15.7l.5 2.3H512v-54.5c0-30-.2-54.5-.5-54.5s-3.7 3.4-7.7 7.5l-7.1 7.5-1.5-2.9c-1.3-2.8-1-4.3 5.3-25.3 5.3-17.9 7.1-22.7 9.1-24.3 2.3-1.9 2.5-2.5 2.2-9.5l-.3-7.4-7.7-3.4c-9.8-4.4-10.3-4-10.3 8.3 0 10.8 1.4 8.7-20.2 31.3-12.4 13-15.8 16-16.9 15.1-2-1.7-1.9-2.6 3-18.2 2.4-7.8 5.4-17.7 6.7-22 2-6.9 2.9-8.4 6.9-11.7 2.5-2.1 6-4.6 7.9-5.7 1.9-1 3.6-2.3 3.8-2.8.1-.6-2.5-2.6-5.8-4.5s-9.3-6.1-13.2-9.2-7.4-5.5-7.7-5.3c-.4.2-.5 2.9-.2 5.9.7 8.5-.5 14.2-3.7 17.5-1.6 1.6-9 9.9-16.6 18.5-7.5 8.6-14.3 15.6-15.1 15.6s-1.7-.6-2-1.4c-.3-.7 2.4-11.6 6-24.2l6.5-22.9 5.8-5.3c3.1-2.9 6.7-5.5 8-5.8 1.3-.4 2.3-1 2.3-1.4 0-.5.7-1.6 1.6-2.5 1.5-1.4 1.2-2-3.1-7-2.6-3-5.4-5.5-6.3-5.4-.9 0-5.7 2.3-10.7 5m-372.2 5.6c-1.1 1-3.4 3.7-5.1 5.9-2.8 3.6-3 4.3-1.7 5.4.8.7 1.5 1.9 1.5 2.6 0 .8 1.2 1.9 2.6 2.5 2.9 1 12.5 8.3 13.6 10.2.9 1.7 12.8 45.4 12.8 47.2 0 .8-.4 1.5-.8 1.5-1.2 0-33.6-33.9-35-36.6-1.8-3.4-2.6-14.7-1.3-17.3 1-1.7.9-2.2-.4-2.7-.9-.4-3.2 1-6.2 4-2.5 2.5-8.2 7-12.5 9.8-4.3 2.9-7.8 5.8-7.8 6.4 0 .7 1.9 2.2 4.2 3.3 2.4 1.2 6.2 3.8 8.5 5.9 4.1 3.6 4.4 4.2 10.8 26 3.6 12.3 6.5 23.3 6.3 24.5-.3 1.8-3.4-.8-18.8-15.9l-18.3-18.2-1.2-7.5c-.7-4.2-.8-8.2-.4-8.9 1.2-1.8 1.1-3-.5-5.1-1.3-1.7-1.5-1.7-5.1 0l-3.7 1.7.4 18.6.4 18.5 5.3 17.3c3.4 11 5 17.7 4.4 18.3s-2.7-.6-5.6-3.2L0 294.8V384h185.6l3.7-9.9c2-5.5 4.8-14.4 6.3-19.8 4.3-16.2 7.4-25.2 12.6-36.8l5-11 .5-18.3c.3-10 .2-19.9-.2-22-.7-3.7-.7-3.7-4 5.5-3.4 9.6-5.4 13-10.2 17.5-6.1 5.7-44.8 29.3-53.3 32.5-3 1.1-12.7 4.4-21.4 7.3l-16 5.3-6.7-1.6c-7.6-1.8-17.5-7-23.7-12.3-4.3-3.7-5.1-6-3-9.3 1-1.6 1.6-1.7 3.7-.8 1.4.6 3.6 1.9 4.8 3 1.2 1 2.7 1.6 3.3 1.2.7-.4 2.3-.1 3.6.6 3.1 1.6 19.3-.2 23-2.6 3.8-2.4 3-3.7-1.9-3-8.5 1.3-8.5-5.8.1-8.3 6.2-1.9 17-1.5 22.1.8 2.4 1.1 4.8 2 5.5 2 .6 0 5.9-3.7 11.6-8.2 15.1-11.7 31-23.3 34.8-25.2 2-1 3.2-2.4 3.2-3.6 0-1.1-3-5.5-6.7-9.8-3.7-4.2-9.6-11-13-14.9-3.5-4-6.3-7.6-6.3-8 0-.5-.5-3.6-1-7.1-.8-4.4-.7-6.8.1-8.3.6-1.2.8-3.2.4-4.6l-.6-2.5-11.4.4c-6.3.2-11.8.8-12.2 1.2-.5.4.4 1.6 1.9 2.7 6.7 4.9 6.8 5.1 13.8 27.9 6.9 22.2 7.8 26 6.2 26-.4 0-8.7-8-18.3-17.8l-17.6-17.7-1.2-7.2c-.9-5.4-1-7.7-.1-9.3.6-1.2.8-3 .4-4.3-.5-1.2-.8-2.6-.9-3.2-.1-2.1-25.7-16.7-27-15.4-.2.2 2.2 2.4 5.3 4.9 6.2 5 5.8 4.2 11.7 26 2 7.4 4.3 15.6 5.2 18.2.8 2.6 1.3 6 1.1 7.5-.3 2.6-.7 2.3-8.3-5.7-4.4-4.6-12.3-13-17.7-18.5-9.2-9.7-9.6-10.3-10.2-15.5-.4-3-.5-8.8-.3-12.7l.3-7.3-3.6-1.1c-1.9-.7-6.5-2.7-10.2-4.5-7.8-3.9-8-4-10.5-1.7m263 24.5c-5.4.7-7.3 1.4-7.3 2.5 0 .8-1.3 2-3 2.6-1.6.6-3 1.6-3 2.1 0 1.6 4.4 7.6 5.6 7.6.6 0 2.3-2.3 3.8-5 2.1-3.9 3.9-5.6 7.7-7.5 4.4-2.3 6.2-3.7 4.2-3.4-.5.1-4.1.6-8 1.1m-146.6 4.4c4.5 2.3 12.3 10.8 12.3 13.6v2.2l2.2-2.2c2.2-2.2 2.2-2.2.4-5.6-1-2-1.6-4.6-1.4-6 .6-3.2-.5-3.6-9.5-3.6h-7.2zm135.8 16.5c-.4.6-.5 1.2-.2 1.5.2.3.7-.2 1-1.1.7-1.7.1-2-.8-.4m-15 50.4c2.7 18.1 2.8 18.7 1.7 19.4-1.6.9-.4 4.7 4.2 14.1 5.2 10.5 8.1 18 11.1 29 1.5 5.2 4.1 14 5.8 19.5l3.2 10 .3-8.7.3-8.6-8.9-22.9c-10.2-26-11.4-29.6-14.1-41.3-1.1-4.7-2.5-9.6-3-11-1.1-2.4-1.1-2.4-.6.5"/></svg>