<svg xmlns="http://www.w3.org/2000/svg" width="682.667" height="512" version="1.0" viewBox="0 0 512 384"><path d="M0 108.5C0 168.2.4 217 .8 217c1.5 0 18.6-11.3 27.2-17.9 4.7-3.6 13.5-11.6 19.6-17.8S59.4 170 60.4 170c.9 0 3.4.9 5.5 2 2.1 1 9.6 4.2 16.7 7 7 2.8 20.8 9.1 30.6 14 18.1 9 27.3 12 36 12 4.2-.1 17-2.5 25.9-5 4-1.2 5.5-1.1 10.6.3 9.5 2.7 9.2 2.9 17.7-9.2 9.1-13 12.2-15.9 22.7-21.1 10.9-5.5 12.1-6.8 10.6-11.7-1.4-4.9-3.7-7.8-4.9-6.1-.5.9-.8.6-.8-.8 0-2.1-2.9-5.6-3.1-3.8-.1.5-.5-.2-.9-1.6-.6-2-.8-1.4-.9 2.7-.2 9.4-4 22.5-4.2 14.2 0-2.9-.2-3.1-1-1.4-.7 1.5-.8.9-.5-2.5.2-2.5 0-5.6-.4-7-.6-2.2-.8-1.9-1.8 2.5-2.3 10.5-2.8 10.5-3.6-.1-.7-9.6-2.3-19.7-2.5-16.2-.2 3.1-1.7 2-3.5-2.5l-1.8-4.2-1.6 3.2c-2.1 4.4-2.8 4.1-2.4-.7.5-4.4-.5-4.9-4.8-2.5-3.7 2.1-4.6 1.8-2.3-.8 3.1-3.4 7.3-10 7.3-11.4 0-1.8-3-1.6-5.2.4-1.7 1.5-2.1 1.5-5.4 0-1.9-.9-4.5-1.7-5.8-1.7s-3.4-.9-4.7-2l-2.4-2.1 4-3.2c10.2-8.2 16.2-16.8 15.1-21.6-2.4-10.7-2.5-12.6-1.5-19.5 2.8-18.3 10.3-27.8 25.2-32.1 4.3-1.3 8.9-1.6 19-1.4 7.2.2 17 0 21.7-.5 9.3-.9 18.7.7 25.8 4.3 5.1 2.7 11.5 9.6 14.7 16 2.4 4.8 2.8 5.2 3.7 3.5 1.7-3.1 5.1-5.4 8.4-5.4 5.3 0 19.7 10.8 23.1 17.4 1.3 2.5 4.5 13.8 7 24.3.4 1.7-.3 2.6-3.6 4.2-2.4 1.3-4.1 2.9-4.1 3.9 0 .9-.7 3-1.5 4.5-1.2 2.4-1.3 3.3-.1 5.5 2.1 4.4 4.4 13.9 6.1 26.2.9 6.3 1.9 11.9 2.3 12.4.3.5 0 .6-.5.3-.6-.4-1.5 1.8-2.3 5.6-1.2 6.5-5 16.4-7.8 20.7l-1.6 2.5-.7-3c-.6-2.7-.7-2.5-.8 1.4-.1 3.4-.4 4.2-1.6 3.7-1-.3-1.5.1-1.6 1.2 0 1.4-.2 1.4-.6.2-1-2.5-3.3-4.2-4.8-3.6-1.2.4-1.5-.3-1.5-3.4 0-2.2-.4-4-1-4-.5 0-1 .6-1 1.4s-.6 1.6-1.4 1.9c-1 .4-1.5-1.1-1.9-6.1-.4-3.7-1.8-10-3.2-13.9-2.1-6-2.6-9.1-2.6-17.8V129h-3c-2.9 0-3 .2-2.4 3 .5 2.3.3 3-.8 3-1 0-1.3.7-1 2 .8 3-.9 2.4-3.4-1.2l-2.2-3.1-1.2 2.6c-1.3 2.9-2.5 3.4-3.2 1.4-.2-.6-1 .6-1.7 2.8s-1.9 4.9-2.6 6-1.6 4.2-2 7l-.7 5-1.2-2.9-1.2-2.9-2.2 6.6c-1.3 3.7-2.5 6.7-2.8 6.7s-.2-2.4.1-5.3l.6-5.2-1.5 5c-2 6.7-2 6.8 1.8 8.4 14.2 6 19.1 10.3 26.9 23 2.8 4.7 5.3 8.8 5.4 9 .2.2 3.1-.5 6.6-1.4 10.2-2.8 11-2.8 21.1-.6 20.9 4.5 31.9 2.1 55-12.1 5.5-3.3 18.7-10.2 29.4-15.4l19.5-9.4 3.2 1.9c1.7 1.1 5.1 4.1 7.6 6.6 11.7 12.1 31.2 26.1 48.8 34.9l9.2 4.6V0H0z"/><path d="M305.1 113.4c-3.7 8.3-3.4 9.8 1.8 12.9 2.6 1.5 3.2 1.6 3.6.4 1-2.5 0-20-1.1-20.4-.6-.2-2.6 3-4.3 7.1m7.1 32.1c0 1.6.2 2.2.5 1.2.2-.9.2-2.3 0-3-.3-.6-.5.1-.5 1.8m-37.7 4.4c-.3 1.1-1.1 2-1.7 1.8-1.5-.3-4.7 4.4-5.4 8-.5 2.8-.3 3.3 2.4 4.7 1.7.9 3.5 1.6 4 1.6.9 0 2.5-17 1.8-17.8-.2-.2-.7.6-1.1 1.7m41.7 6.1c0 1.4.2 1.9.5 1.2.2-.6.2-1.8 0-2.5-.3-.6-.5-.1-.5 1.3m17.4 16.3c-.4 3.2-.5 6.1-.2 6.4.7.8 1.8-6 1.4-9.3-.3-2.1-.6-1.3-1.2 2.9m97.7 6.6c-5.3 2.6-9.2 5.2-9.2 6.1-.1.8.8 2.9 1.9 4.7 1 1.7 2.4 5.8 3.1 9l1.2 5.8-8.2 18.3c-4.4 10-8.1 18.5-8.1 18.8s-.9 1.9-2.1 3.5c-1.8 2.5-2.2 2.7-3.5 1.5-1.4-1.4-1.9-5.4-2.8-20.1-.3-4.4-.8-12.5-1.2-18l-.6-10 4.1-5.7 4.2-5.8-4.5 2c-4.9 2.1-18.5 10.9-20.2 13.1-1.9 2.4-2.2 5.5-.8 7.4.9 1.2 1.4 4.6 1.4 9.2v7.2l-13 19.6c-7.2 10.7-13.3 19.5-13.8 19.5-.4 0-1.3-.4-2.1-.9-1.2-.8-1.1-3.4.7-17.2 1.2-9 2.4-19.5 2.8-23.3.6-6.2 1.1-7.4 4.5-11.1 2.2-2.3 3.9-4.6 3.9-5s-4.9-.6-10.9-.3c-12.9.4-14.5 1.2-13.6 7 .5 2.6 0 5.7-1.5 10.2-2.2 6.7-3.2 7.7-23.8 23.6-4 3-4.3 3.6-3.7 6.4.3 1.7 1.4 7.7 2.5 13.3 1 5.6 3.7 15.5 5.9 22 4 11.6 12.9 49.7 18.7 79.5l2.8 14.8H512V220.3l-6.8-3.2c-7.7-3.5-10.9-4.1-7.6-1.3 2.9 2.4 7.4 10.6 7.4 13.4 0 2.7-7.6 42.5-8.5 45.1-.8 1.9-2.1 2.2-3 .7-.4-.6-1.1-.8-1.6-.5-.5.4-.9.4-.9.2 0-.3-2.4-8.5-5.4-18.4-8.4-27.7-8.2-26.3-5.6-33 1.3-3.2 3.1-6.7 4.2-7.9 2.7-3.1 2.2-4.8-2.1-7.2-2.2-1.3-7.4-4.7-11.7-7.8-4.6-3.3-7.4-4.8-6.9-3.7 3.6 9 3.7 9.9 1.7 17-3.7 12.7-11.1 36.4-11.7 37.3-.9 1.4-4.5.7-4.9-1-.3-.8-1.4-6.5-2.6-12.5-1.1-6.1-3-15.7-4.1-21.5l-2.1-10.4 3.3-6.8c1.8-3.7 4-7 4.8-7.3.9-.3 2.4-2.2 3.3-4.1l1.7-3.6-4.6-4.9c-2.5-2.7-5.3-4.9-6.2-4.8s-5.7 2.2-10.8 4.8m-107.1-1.4c0 1.6.2 2.2.5 1.2.2-.9.2-2.3 0-3-.3-.6-.5.1-.5 1.8m-265.8 7.7c-7.2 8-7.9 8.9-6.7 9.6.7.4 1.6 2 2.2 3.5s1.6 2.7 2.4 2.7c.7 0 3.3 2 5.7 4.5 5.3 5.4 5.8 8 5.9 31.3.1 14.7-.1 16.3-1.6 16-.9-.2-6.7-7.5-13-16.3l-11.3-16 .4-6.8c.2-4.4.9-7.4 2-8.6.9-.9 1.3-2 1-2.4-.3-.3-4.1 2.4-8.3 5.9-4.2 3.6-9.9 8-12.8 9.7-5.7 3.5-6.8 6.3-2.8 7.3 1.3.3 4.4 2.7 6.8 5.3 4.9 5.2 4.9 5 6.3 32.5.6 10.9.5 12.6-.8 12.6-.8 0-7.2-7.1-14.2-15.7L6.9 244.5l.6-7c.4-3.9 1.2-7.6 1.7-8.3.8-.9.8-1.6 0-2.4s-2.2-.7-5.2.7l-4 1.8V384h185.7l3.5-8.8c2-4.8 4.7-13 6.2-18.2 5.7-20.9 8.2-28 13.3-39.5 3.9-8.6 5.3-13.1 5.2-16 0-2.2.2-9.2.6-15.5.3-6.3.2-13.5-.2-16l-.9-4.5-1.9 7.5c-1.7 6.5-2.3 7.5-4.1 7.2-1.3-.2-2.5.6-3.4 2.4-2.6 4.7-11.4 11.8-30.6 24.6-23.5 15.5-26.5 17.3-34.5 19.9-3.5 1.1-11.4 4.1-17.6 6.5-9.2 3.6-12.3 4.4-17.7 4.4C92 338 71 329.8 71 325.3c0-1.3.9-1.4 6.8-.7 9.2 1.2 14.1.8 21.5-1.5 12.3-3.8 15.6-5.7 15.7-8.8 0-.9-1.3-1.1-4.5-.6-3.7.5-4.6.3-5.1-1.2-2.2-5.6 16.8-9.9 26.3-6 1.9.8 4.2 1.5 5 1.5s8.9-6.2 18.1-13.9c9.2-7.6 20.3-16.4 24.7-19.6l8-5.7.7-6.1.7-6.2-4.7-4.5c-2.6-2.5-7.8-7.3-11.5-10.6-6.5-5.8-6.9-6.4-8.7-13.4-1.6-6.3-1.7-7.7-.5-9.9 1.1-2.2 1.1-2.9-.1-4.6-1.3-1.7-2.5-2-9.7-1.8-4.5.1-10.2.5-12.6.8l-4.4.7 4.6 4.6 4.6 4.7 2.7 20.2c1.5 11.1 2.4 20.6 2 21-.9 1-6.8-5.2-18.9-20l-9.7-11.8v-7.7c0-4.3.5-8.3 1-8.8.6-.6.8-2.4.4-4.1-.5-2.5-2-3.9-8.2-7.6-7.8-4.7-14.6-7.9-19.2-9.2-1.4-.3-2-.3-1.4.2.6.4 3.2 3.2 5.7 6.1l4.7 5.3v20.4c0 17.2-.2 20.5-1.4 20.5-.8 0-6.7-7.7-13.2-17.1l-11.7-17.1 1.2-7.1c.7-3.9 1.6-7.6 2-8.1.5-.6 1.1-2.3 1.3-3.9.4-2.1.1-2.7-1.2-2.7-.9 0-5.8-2-10.9-4.5s-9.3-4.5-9.5-4.5c-.1 0-1.5 1.5-3.2 3.2m262.4 23.5c-4.4.3-5.8.8-5.8 1.9 0 .9-1.3 2.1-3 2.7-1.6.6-3 1.5-3 2 0 1.5 2.8 6.2 4.7 8 1.9 1.6 2 1.5 4.3-3.3 1.9-4 3.6-5.8 7.9-8.5 4.4-2.7 5.1-3.4 3.1-3.3-1.4.1-5.1.3-8.2.5m-141 7c4.6 3.1 7.5 5.8 8.1 7.5 1.1 3.1 2.6 3.6 3.5 1.2.3-.9-.3-2.7-1.4-4.2-1.2-1.5-2-3.7-1.8-5.1.3-2.4-.1-2.7-4.2-3.3-2.5-.3-6.1-.7-8-.7-3.4-.1-3.3 0 3.8 4.6m130.6 13.4c-.3.6-.2 1.5.4 2.1.7.7 1.4.3 2.1-1.1 1-1.7.9-2.1-.3-2.1-.8 0-1.8.5-2.2 1.1M192 236c0 .5.5 1 1 1 .6 0 1-.5 1-1 0-.6-.4-1-1-1-.5 0-1 .4-1 1m104.2 42.5c-.1 1.1.5 6 1.2 11 .9 6.2 1 9.5.3 10.7-.8 1.2.2 4.5 4.6 14 7.2 15.9 8.9 20.6 13.1 36.5 5.7 21.5 8.4 25.4 7.4 10.9-.3-4.6-2.8-12.4-10.1-31.8-5.4-14.1-10.7-29.7-11.7-34.5-2.6-11.6-4.8-19.3-4.8-16.8"/></svg>