<svg xmlns="http://www.w3.org/2000/svg" width="682.667" height="512" version="1.0" viewBox="0 0 512 384"><path d="M0 106.5C0 165.1.3 213 .8 213c.4 0 2.4-1.1 4.4-2.5s4-2.5 4.3-2.5c.9 0 14.9-9.4 22-14.9 3.3-2.5 10.9-9.3 16.8-15.1 6-5.8 11.5-10.9 12.2-11.3.9-.5 4.4.7 9.2 3.1 4.3 2.2 10.7 5.1 14.3 6.5 11.2 4.4 19 8.2 31.5 15.1 6.6 3.7 15.8 7.8 20.3 9.3 7.6 2.3 9.4 2.5 19 2 6.6-.3 13.3-1.4 17.6-2.7 7.3-2.3 8.3-2.3 18.4.6l6.3 1.9 2-2.5c1.1-1.4 5.1-6.9 9-12.3 7.8-10.8 8.1-11.1 21.8-18.2 8.9-4.7 9.6-5.3 9.5-8-.2-6.7-2.3-10.9-4.9-9.9-.8.4-1.5-.3-1.7-1.8-.2-1.2-1.1-2.4-2-2.6-1.4-.3-1.8.4-1.8 3-.1 4.1-2.5 15.7-3.5 16.6-.4.4-.5-1.6-.1-4.3.6-4.8.6-4.9-.9-2.5-1.6 2.5-1.6 2.5-1.1-1.5.3-2.2.1-5.4-.3-7-.9-2.9-.9-2.9-1.1-.5-.1 1.4-.9 5-2 8l-1.8 5.5-.1-4.7c-.1-5.5-2-19.9-2.8-21.1-.3-.5-.9-.3-1.4.4-.5.9-1.3.2-2.6-2.5l-1.8-3.8-2.2 2.9-2.3 2.8v-4.3c0-3-.4-4.2-1.4-4.2-.8 0-1.7.4-2 .9s-1.5 1.1-2.6 1.4c-1.5.4-1-.8 2.6-5.9 4.5-6.3 5.1-9.4 1.9-9.4-.8 0-2 .9-2.7 2-1.6 2.5-2.9 2.5-6.9.1-1.7-1-3.8-1.7-4.7-1.4-1 .2-2.8-.7-4.2-2.3l-2.5-2.6 2.5-1.7c5.2-3.4 11.8-10.2 14.4-15.1l2.7-5-1.7-7c-1.5-6.3-1.5-7.7-.2-15.7 2.9-16.7 9.8-26.1 22.6-30.5 5.8-2 8.3-2.3 18.7-2 6.6.1 16.1-.3 21-.9 10.4-1.2 21.2.4 28.6 4.2 5.9 2.9 12.6 10.2 15.7 16.8 2.5 5.4 2.5 5.4 3.8 2.9.7-1.4 2.6-3.1 4.3-3.7 2.5-1.1 3.6-1 7.7.8 6.2 2.8 14.8 10.2 17.9 15.6 1.4 2.3 3.2 7.7 4 11.9.8 4.3 1.9 8.6 2.5 9.6 1.8 3.4 1.1 5.9-2 7.5-2 1.1-3.2 2.7-4 5.5-.6 2.1-1.5 4.2-1.9 4.5-.5.3-.3 1.8.4 3.3 1.8 3.6 4.1 13.2 5.9 25.3 1.7 11.8 1 16.4-5 32.2-2 5.3-3 6.8-4.3 6.4q-1.65-.45-1.8 1.5c-.2 1.6-2.5 4.8-3.6 4.8-.5 0-1.4-2.3-2.7-7-.7-2.4-.8-2.3-.9.7-.2 5.2-1.9 4.7-2.6-.8l-.7-5.2-1.7 3.4-1.6 3.4-.8-6.3c-.4-3.5-1.9-9.3-3.4-13-2-5.3-2.7-9-3.1-18-.3-8.2-.8-11.2-1.7-11.2-.8 0-2.1-.3-3.1-.7-1.4-.5-1.6-.3-1.1 1 .4.9 1 2.4 1.4 3.3.5 1.3.2 1.5-1.7.9-2.1-.7-2.2-.5-1.5 2.7l.7 3.3-3.4-3.3-3.5-3.3-1.3 3.1c-1.1 2.7-1.5 2.9-2.3 1.5s-1.3-.7-2.9 3.6c-1.1 3-2.2 7.5-2.5 10.1-.5 4.7-2.3 6.8-2.3 2.8s-2-1.9-3.6 3.7c-2.1 7.6-3 8.3-2.7 2.5l.2-4.7-1 3.9c-1.6 6.6-2.1 5.5-1.7-4l.3-9.1-3.7 3.7c-3.7 3.7-5.8 7.6-5.8 10.9 0 1.2 1.8 2.6 5.3 4.1 22.6 10.1 25.2 12 33.5 25.2 2.6 4.2 5.2 8.3 5.7 9.2.9 1.4 1.8 1.4 9.1-.6 7.9-2.1 8.4-2.1 13.5-.5 8.4 2.6 19.8 4 26.7 3.3 8.6-.9 17.2-4.3 31.8-12.6 11.4-6.6 45.2-22.6 50-23.7 1.7-.4 5.1 2.3 15.9 12.6 7.5 7.1 17.6 15.7 22.3 18.9 8.6 5.9 26.1 16.2 27.5 16.2.4 0 .7-48.2.7-107V0H0z"/><path d="M308.9 111.5c-3.6 8-3.7 10.9-.3 14 4.9 4.5 5.4 3.7 5.4-9 0-7.5-.4-11.5-1.1-11.5-.5 0-2.3 2.9-4 6.5m6.1 32.9c0 .8.4 1.7.9 2 .5.4.7-.3.4-1.4-.6-2.3-1.3-2.6-1.3-.6m22.3 26.6c0 2.5.2 3.5.4 2.2.2-1.2.2-3.2 0-4.5-.2-1.2-.4-.2-.4 2.3m96.6 12.2-9.6 5 6.7 6.6 6.7 6.7 1.2 11.5c2.8 28.4 3.4 38 2.7 38.7-1.2 1.2-4.8-3.6-17.7-23.6s-13.1-20.5-10.8-31.1c.6-2.8.9-5.3.7-5.6-1.9-1.9-27.8 13-27.8 15.9 0 .8.8 2.1 1.8 3.1 1.1.9 3.6 4.1 5.7 7.2l3.8 5.5-1.6 24c-.9 13.2-1.9 24.5-2.3 25-1.4 2.4-4.7-3.3-13.4-23.7l-9.2-21.5 1.2-6.2c.6-3.4 1.8-6.9 2.6-7.8 1.3-1.5 1-1.7-3.2-2.3-7-.9-21.7-.7-23.4.4-1.3.8-1.3 1.3.2 3.8.9 1.5 2.2 5.7 2.9 9.3l1.2 6.4-10.8 21c-5.9 11.6-11.3 21.6-12 22.3-1 1.1-1.5 1.1-2.8-.2-1.4-1.4-1.5-4.4-1.1-24.4.3-12.5 1-24.1 1.5-25.9.6-1.7 3-5.3 5.4-7.9 2.5-2.6 4.5-5 4.5-5.2 0-.3-3.6-.1-8 .2-5.7.5-9.6 1.5-13 3.3l-5 2.6 2.3 4c1.2 2.2 3.2 4.7 4.5 5.5 1.8 1.1 2 1.7 1 2.3-.7.5-2.1.6-3.1.3-2.8-.9-3 1.8-.8 12.8 1.2 5.7 3.2 17.2 4.6 25.7 1.4 8.4 3.8 19 5.4 23.5 3 8.4 6 22.4 13.1 61.6 2.3 12.4 4.6 24.6 5.2 27.2l1 4.8H512v-62.8l-.1-62.7-10.8-9.2c-9.6-8.2-11-9.7-12.1-13.9-.8-2.6-1.3-6.2-1.2-7.8 0-1.7.1-4 .2-5.1.2-5-.6-6.5-5.2-9.4-4.3-2.7-4.8-2.9-4.8-1.2 0 1 2.1 10.3 4.6 20.6s4.3 19.3 4 20.1c-.9 2.4-3.1.5-13.7-11.9C450 214 451.4 216 450.7 209c-.5-4.7-.3-7.1.8-9.3.8-1.7 1.5-4.3 1.5-5.9 0-1.5.5-2.8 1-2.8.6 0 1-.5 1-1.1 0-1.6-9.1-11.9-10.4-11.7-.6 0-5.4 2.3-10.7 5m-375.5 0c-6.1 6.5-7 7.8-5.6 8.7.6.4 1.3 1.6 1.5 2.7.1 1.1 1.2 3.3 2.4 4.8s2.9 5 3.9 7.8c2 6 2.3 5.1-8.8 24.1-7.3 12.5-9.9 15.9-11.3 14.5-1.2-1.2-5.3-36.4-4.4-38 .5-1-3.1 1-8.1 4.3-8.8 6-11.1 9.2-7.6 10.5.8.3 2.2 2.4 3.1 4.7 3.8 9.3 4 8.5-4.2 22.9-11.1 19.5-12.4 20.5-14.3 11-5.2-25.4-4.8-29-4.9 50.6L0 384l93.2-.2 93.3-.3 2.8-7c1.6-3.9 4.4-12.8 6.3-20 4.8-18 8.7-29 13.8-39.3 4.3-8.8 4.3-8.9 5-23.2.4-7.9.7-14.6.8-14.9.4-3.7-.4-18.1-1-18.1-.5 0-1.9 3-3.2 6.7-3.3 9.7-6.5 15.8-10.7 20.4-3.6 4-30.4 22.5-47.3 32.6-4.7 2.8-11.2 5.9-14.5 6.8-3.3 1-10.9 3.8-17 6.3-10.2 4.1-11.6 4.5-19.2 4.3-6.2-.1-10.1-.8-16-2.9-9.2-3.3-16.3-7.6-16.3-9.8 0-1.4.7-1.5 4.3-1 11.7 1.9 15.7 1.8 22.9-.4 11.9-3.5 15.8-5.2 16.9-7.3 1.5-2.7-.1-4-3.4-2.8-6.3 2.4-7.8-3.1-1.6-6.1 5-2.5 19.2-2.7 23.8-.4 4 2.1 2.6 2.9 23.1-13.9 15.4-12.6 24.1-19.3 28.7-22 2.9-1.7 3.2-2.4 4.3-9.8.6-4.3 2.4-12.1 3.9-17.3l2.8-9.4-3.3-2c-4.2-2.4-4.2-3.8-.4-7.5l2.9-2.8-2.5-3c-1.7-2.1-2.4-3.7-2-5.3.4-1.4.1-2.4-.8-2.7-2.5-1-13.4-2-14.4-1.3-.5.3 1.3 2.9 4 5.8s5.3 6.3 5.8 7.4c1.4 3.5 1.5 39.3.2 40.6-.6.6-1.3 1-1.6.7-.2-.2-5.4-7.8-11.6-16.9l-11.2-16.5.5-6.6c.2-3.7 1.1-7.6 2.1-9.1 1.6-2.4 1.6-2.7 0-4.3-1.5-1.4-3.2-1.6-11.8-1.1-5.6.3-11.5.5-13.3.5h-3.1l2.4 5.2c3.9 8 3.9 9.5-.1 19.9-8.4 22.1-9.8 25.1-11.3 24.8-1.1-.2-3-5.6-6.4-18.1l-4.8-17.8 2.1-5c1.2-2.7 3.2-5.7 4.4-6.7 1.2-.9 2.4-2.7 2.7-3.9.5-1.9-.6-3-7.6-7.5-4.4-2.9-11-6.4-14.6-7.9-6.4-2.6-9.5-2.4-7.1.4 1.9 2.4 4.3 11.8 3.7 14.8-.3 1.5-3.7 8.5-7.6 15.5-3.8 7-7 13-7 13.4 0 1.4-4.8 5.1-5.4 4.1-.4-.5-1.8-9-3.2-18.8-2.9-20.4-2.8-20.5 4.8-28.5l4.9-5.1-11.1-5.4c-6-2.9-11.1-5.3-11.3-5.3-.1 0-2.1 1.9-4.3 4.2M2.8 223.6c-2.3 1.2-2.8 2.1-2.8 5.2.1 3.2.2 3.5 1.2 1.7.6-1.1 2.4-3.5 4.1-5.3 3.3-3.5 2.2-4.2-2.5-1.6m294.9 61.9c.4 4.9.8 11.7.8 15 0 3.6.8 7.6 1.9 10 1 2.2 3.3 7.2 5.1 11.1 3.3 7.1 6.6 17.1 12.6 38.1 1.7 6.2 3.6 11.3 4 11.3 2.4 0 .1-9.9-8-34-9-26.8-11.4-34.8-12.6-43-.3-2.5-1.5-7.4-2.6-11l-1.9-6.5z"/></svg>