<svg xmlns="http://www.w3.org/2000/svg" width="682.667" height="512" version="1.0" viewBox="0 0 512 384"><path d="M0 106.1v106.1l3.3-2c1.7-1.1 6.5-3.9 10.4-6.3 11.8-7.1 23.7-16.4 35.3-27.5C55.7 170 60.7 166 62 166c1.1 0 4.3 1.1 7 2.5s8.4 3.9 12.7 5.6c4.3 1.6 17.8 8.2 30.1 14.5 25.6 13.2 31.4 15 44.7 13.9 4.4-.3 11.6-1.6 15.9-2.7l7.9-2.1 8.8 2.3 8.9 2.3 2-2.4c1.1-1.3 5-6.6 8.7-11.8 7.2-10.1 11.5-13.8 21-18 3.3-1.4 7.2-3.4 8.7-4.4 2.6-1.8 2.8-2.2 2.1-6.5-.8-5.5-2.2-7.5-4.7-6.9-1.4.4-1.8-.1-1.8-1.8 0-2.3-1.6-4.2-2.6-3.2-.2.2-1.1 4.4-1.9 9.2-1.6 10.2-2.5 11.8-2.6 4.9l-.1-4.9-1.3 4.5-1.3 4.5.5-7c.2-3.9 0-8.1-.5-9.5-1-2.5-1.1-2.5-1 .5.1 2.8-2.8 14.4-3.7 15.4-.3.2-.5-2.1-.5-5.3 0-7-1.9-19.5-3.2-21.6-.8-1.2-.9-1.2-.4.2 1 3.4-2 1.8-3.3-1.7-1.5-4.2-2.3-4.4-4.2-.8l-1.4 2.8-.3-4.3c-.3-4.6-.6-4.8-4.2-2.7-3.8 2.2-4.4 1.8-2-1.3 4.6-6 7.1-10.5 6.6-11.8-.8-2.1-4.3-1.7-4.9.6-.6 2.5-3.4 2.5-7.1.1-1.6-1.1-3.5-1.7-4.2-1.4-1.6.6-6.4-2.5-6.4-4.1 0-.7 2-2.7 4.5-4.5 4.9-3.5 10.3-9.8 12.9-14.9 1.6-3.1 1.6-3.8 0-10.9-1.4-6.6-1.5-8.6-.4-14.7 2.9-16.4 9.6-26 21.5-30.6 6.1-2.4 13.2-2.9 50-3.3 16-.1 27.8 6.7 34.9 20.2 2.9 5.5 3.5 6.1 4.1 4.2 1-3.3 5.6-5.2 9.6-4.1 5.1 1.5 13.5 7.7 17.9 13.3 3.9 4.9 7 12.6 7 17.6 0 1.4.9 4.6 2 7 2.2 4.8 1.7 6.5-2.7 8.2-1.3.5-2.3 1.6-2.3 2.4 0 .9-.7 3-1.6 4.6-1.4 2.8-1.4 3.5.5 9.2 1.2 3.4 3.1 12.3 4.4 19.8 1.8 11.2 2 13.6.8 13.1-1.1-.4-1.2.1-.7 2.2.5 2-.4 5.5-2.9 12.4-4.2 11.4-6.1 14.5-7.5 12.2-.8-1.2-1-1-1 1-.1 3.9-4 8.2-4 4.4 0-.9-.6-1.4-1.3-1.1-1 .4-1.2-.4-1-2.7l.3-3.1-1.2 3.5c-1.1 3.4-1.1 3.5-1.8 1-.5-1.4-.9-4.1-.9-6l-.2-3.5-1.8 4-1.8 4-.7-5.9c-.5-3.3-2.1-10.3-3.8-15.5-2.5-8.2-2.9-10.9-2.6-18.4l.3-8.7h-3.3c-2.9 0-3.2.2-2.3 1.9 1.2 2.2.5 3.2-1.6 2.4-1.2-.5-1.3.1-.8 3.3l.6 3.9-2.5-3c-1.4-1.7-2.6-3.3-2.6-3.8 0-1.6-1.7-.5-2.8 1.8-.7 1.4-1.7 2.2-2.5 1.9-1.4-.5-4.4 8-5.8 16.1l-.6 4-.8-3.2c-1-4.3-2-3.4-3.5 2.9-1.9 8.2-3.2 9.3-2.6 2.3.3-4.8.2-5.3-.5-2.7-2.8 9.9-2.9 9.8-2.5-.6l.4-10.4-4.3 4.5c-4.2 4.4-6.7 10.9-4.8 12.8.5.5 5.1 2.7 10.2 4.9 17.2 7.3 21.6 11.1 29.7 25.7 2 3.5 4.3 6.7 5.1 7 .7.3 4.4-.3 8.1-1.2 6.7-1.7 6.7-1.7 17.1.9 12.9 3.2 23.2 3.4 32.2.6 3.5-1.1 12.7-5.4 20.4-9.6 12.8-7.1 22-11.4 39.5-18.9 3.6-1.5 7.5-3.4 8.7-4.1 4.4-2.7 6.2-1.7 18.7 10.4 6.7 6.6 15.9 14.6 20.4 18 7.5 5.6 24.9 16.4 28.7 17.8 1.3.5 1.5-11.6 1.5-107.5V0H0z"/><path d="M310 111.5c-3.9 8.4-3.9 11.7-.1 14.4 3.9 2.8 4.7 2.7 5.5-1 1.3-6.5.3-19.9-1.5-19.9-.5 0-2.3 2.9-3.9 6.5m28.3 58.5c0 2.5.2 3.5.4 2.2.2-1.2.2-3.2 0-4.5-.2-1.2-.4-.2-.4 2.3m-277.7 9.5c-.8.9-3.1 3.6-5.2 6-3.3 4.1-3.5 4.6-1.9 6.1.9.9 1.4 2.3 1 3.2-.3.8.4 2.5 1.5 3.7 1.4 1.4 2.6 4.8 3.3 8.9l1.1 6.6-10.9 16.1c-11.8 17.2-13.1 18.7-14.5 17.3-.5-.5-1.1-9.8-1.2-20.6l-.3-19.6-7.2 4.7c-7.3 4.7-9.4 7.9-6.7 10.2 1.6 1.3 4.4 10.2 4.4 13.8 0 2.8-20 31.8-22.6 32.8-1.2.4-1.4 9-1.4 57.9V384h186.1l2.4-5.3c1.3-2.8 4-11 6-18.2 5.9-21.4 9.4-31.5 14.5-42.3 4.2-8.8 4.9-11.2 5-16.5 0-3.4.3-9.8.7-14.2.5-4.4.6-12.3.3-17.5l-.5-9.5-3.8 9.7c-6.9 17.5-9.4 19.9-38.7 38.8-8 5.1-15.8 10.1-17.5 11-1.6 1-4.6 2.7-6.5 3.8s-6.2 2.8-9.5 3.7c-3.3 1-10.9 3.8-17 6.3-10.3 4.3-11.5 4.6-19.2 4.4-13.3-.3-32.3-7.9-32.3-12.9 0-1.3.7-1.4 3.8-.9 10.8 2 16.1 1.8 25.4-1 11.9-3.5 13.4-4.1 14.6-6.9 1.4-3 .7-3.6-2.9-2.3-3.7 1.3-5.9.5-5.9-2.1 0-3.7 4.5-5.5 15-5.9 7.5-.3 10.4-.1 12.8 1.2 1.7.9 3.3 1.6 3.6 1.6s9.9-7.5 21.3-16.7 22.9-18 25.6-19.7c4.9-3 5.1-3.5 6.2-12.1.5-4.1 2.4-11.4 6.2-23.6.3-1.1-.6-2.3-2.6-3.5-3-1.7-4.5-6.4-2.1-6.4.5 0 1.7-1.1 2.6-2.5 1.5-2.3 1.5-2.6-.6-5.2-1.2-1.5-2-3.8-1.8-5.2.3-2.5.1-2.6-8-3.5-4.5-.5-8.5-.6-8.8-.3-.4.3 1.4 3.2 3.8 6.4 2.5 3.2 4.7 6.6 5.1 7.5.8 2.1-4.1 39.9-5.3 41.2-1.6 1.6-3.2-.7-9.7-14.3-11.1-23.1-10.6-21.4-8.7-27.9.9-3.2 2.5-6.8 3.6-8.2 1.9-2.3 1.9-2.5.1-3.8-1.4-1.1-4.7-1.3-14.6-1-7 .3-12.9.7-13.2 1-.3.2.4 3.1 1.5 6.3s2 6.9 2 8.2c0 2.3-14.2 31.6-17.4 35.8-1 1.3-1.8 1.7-2.5 1-1-1-5.1-30.8-5.1-37.1 0-3.6 4.3-11 7.8-13.6 1-.7 2.1-2.1 2.5-3.1.8-2.2-5.6-7.1-17.7-13.2-9.5-4.9-13.3-5.7-12.1-2.8 2.2 5.7 3.7 15.6 2.7 17.8-1.8 3.8-20.4 31.9-22.1 33.3-2.6 2.1-3-.7-3-22L72 202l6.5-6.6c6-6.2 7.1-8.4 4.2-8.4-.7 0-5.1-2-9.9-4.5s-9.2-4.5-9.7-4.5-1.6.7-2.5 1.5m374.5 5.6c-5.1 2.6-9.6 5.1-9.9 5.3-.2.3.6 1 1.9 1.5s4.7 3.3 7.5 6.3l5.2 5.3 4.1 23.5c4.3 24.8 4.7 28 3.1 28-.5 0-7.9-9.3-16.4-20.7l-15.4-20.7-.6-7.4c-.5-4.8-.3-7.9.3-8.5 1.3-1.3 1.4-4.4.3-5.1-1.4-.9-12.2 4.1-20.3 9.5-4.4 2.8-8.2 5.5-8.4 5.9s1.8 3 4.5 5.8c8.3 8.7 7.9 7.4 9.7 35.1.9 13.8 1.3 25.5.9 25.8-1.6 1.7-4.5-2.4-15.8-22.7l-12-21.5.5-6.7c.3-3.7 1.1-7.6 1.6-8.7.8-1.4.8-2.2 0-2.7-.6-.3-6.8-.9-13.9-1.2-13.4-.5-15.8.2-12.7 3.6.8.9 2.6 4.6 4 8.1l2.6 6.5-7 24c-3.9 13.3-7.3 24.4-7.7 24.8s-1.5.1-2.4-.6c-1.2-.9-2.2-4.3-3.3-11.2-.8-5.4-2.6-16.2-3.9-23.9l-2.4-14 3.1-6.8c1.7-3.8 3.9-7.3 4.9-7.8 1-.6 1.6-1.5 1.2-2.1-.9-1.5-17.5-.1-19.4 1.7-.8.7-2.7 1.7-4.2 2-1.6.4-2.8.9-2.8 1.2 0 1.3 5.4 9.4 6.7 10.2 2.2 1.2.7 3.1-2.3 3.1-2.9 0-3 1.1-.9 10.9.8 3.9 2.6 14.6 4 23.9 1.6 10.1 3.7 20.1 5.5 25.2 3.5 9.9 5.3 17.7 12 53.3 2.7 14.4 5.7 29.5 6.6 33.5l1.6 7.2H512V259.5l-10-8.3c-9.8-8.1-10-8.3-12-15.2-1.5-5-1.8-7.5-1.1-8.8 1.5-2.9-1.1-9.1-4.8-11.4-1.8-1.1-3.4-1.8-3.7-1.5s2 8.9 5.1 19.1c3.1 10.3 5.5 19.9 5.3 21.4-.3 2.5-1 2-11.3-8.8-27.1-28.1-25.3-26.1-26.6-31.9-.6-2.9-.8-7.2-.5-9.5.4-2.2.8-5.6 1-7.4s.9-3.9 1.6-4.7c1-1.2.4-2.5-3.5-7-2.5-3-5.2-5.4-5.8-5.4-.7.1-5.4 2.3-10.6 5M3.8 221.7c-3 1.2-3.8 2.1-3.8 4.1 0 2.6 0 2.6 4-1.3 5.3-5.2 5.3-5.1-.2-2.8m293.9 62.8c.4 4.4.7 11.4.8 15.5.1 6.7.6 8.5 4.8 17.4 6 12.6 8.8 20.3 12.7 35.3 1.7 6.6 3.9 14.2 4.9 16.9l1.9 4.9.7-4.7c.6-4.2-.3-7.5-9.4-34.5-5.6-16.4-11-34.3-12.1-39.8s-2.6-12-3.5-14.5l-1.5-4.5z"/></svg>