<svg xmlns="http://www.w3.org/2000/svg" width="682.667" height="512" version="1.0" viewBox="0 0 512 384"><path d="M0 105c0 57.7.3 105 .6 105 .9 0 14.4-8 22.4-13.3 9.1-6.1 15.6-11.4 27.8-22.9 5.3-5.1 10-8.8 11.2-8.8s4.3 1.1 7 2.5 10.7 5 17.7 8.1c7 3 18 8.4 24.3 11.8 24.4 13.5 27.6 14.6 42 14.6 7.5 0 13.1-.6 19-2.1l8.5-2.2 8.9 2.3 8.9 2.4 3-3.5c1.6-1.9 5.3-6.9 8.3-11.1 6.8-9.5 9.9-12.2 19.4-16.6 12.2-5.8 13.1-6.6 12.4-11.5-.7-4.6-3.1-8-5-7.3-.7.3-1.4-.8-1.8-2.6-1-5-3.2-1.7-4 6-.4 3.7-1.1 8.3-1.6 10.2-.7 3.2-.8 3-1-2.5-.1-4.3-.4-5.4-1-4-.6 1.5-.9.8-1-3-.2-5.7-1.8-11.1-1.9-6.3-.1 3.6-2.3 12.8-3.1 12.8-.3 0-.6-1.5-.7-3.3-.1-4.6-2.3-18.7-3.3-21.1-.8-2-.9-2-.9.3-.1 2-.3 2.1-1.6 1.1-.8-.7-1.5-1.8-1.5-2.4s-.4-1.8-.9-2.5c-.8-1.2-1.3-1.1-3 1l-2 2.4-.1-4.3c0-2.3-.2-4.2-.5-4.2-.4 0-2 .7-3.6 1.6-1.7.8-3.3 1.4-3.5 1.2s1.7-3.1 4.1-6.4c4.7-6.2 4.9-7.1 2.1-8.8-1.4-.9-2.1-.7-3.3 1.1-1.9 2.8-3.3 2.9-7.4.4-1.7-1-3.8-1.7-4.7-1.4-1 .2-2.8-.7-4-2l-2.3-2.5 5.5-4.3c3-2.3 7.2-6.5 9.3-9.3 4.1-5.4 4.4-7.1 2.8-20.6-2-18 7-35.4 21.4-41.2 4.9-2 7.5-2.3 21.1-2.4 8.5-.1 19.6-.5 24.5-.9 19.1-1.5 33.2 5.9 40.2 21.3l2.6 5.5 1.5-2.6c3.7-6 9.6-5.4 19.4 2.1 7.8 6 12.3 12.5 13.8 20 .6 3.1 1.8 8.3 2.7 11.6l1.7 5.9-2.8 2.2c-1.5 1.2-3.6 4.1-4.6 6.3-1.8 3.9-1.8 4.2.1 10.4 2.5 8.3 6.8 32.2 6 32.8-.4.3-1.3 3-1.9 6.1-1.6 7.1-5.6 18.4-7.2 20.4-.7.8-1.9 1.5-2.6 1.5-.8 0-1.4.6-1.4 1.4 0 .7-.6 2.6-1.4 4.1l-1.4 2.7-.7-3.4c-.7-2.9-.9-3-1.6-1.3l-.8 2-.1-2c-.1-1.9-.1-1.9-1.4-.2-1.2 1.6-1.4 1.1-2.1-4-.8-5.4-.9-5.6-1.9-3.1-1.5 4.2-2.3 3.4-3-3.2-.4-3.2-1.9-9.2-3.4-13.2-2.3-6.2-2.7-8.8-2.6-17.6l.1-10.2h-3c-2.6 0-2.9.2-2.3 2.6.6 2.3.4 2.5-1.4 1.9-2-.6-2.1-.4-1.4 3.2l.7 3.8-2.1-1.9c-1.2-1-2.4-2.7-2.7-3.7-.9-2.8-2.2-2.3-3.5 1.3-.7 1.8-1.4 2.7-1.7 2-.2-.6-.8-1.2-1.2-1.2-.9 0-3.8 9.4-5 16l-.8 4.5-1-3.5-1-3.5-1.6 5.4c-1 3-1.7 6.1-1.7 6.8s-.3 1.3-.8 1.3c-.4 0-.6-2.1-.5-4.8l.2-4.7-1.3 5c-1.8 7.2-2.9 4.1-2-5.8.6-7.5.6-8.1-.9-6.8-1 .7-1.7 2-1.7 2.7 0 .8-.6 1.4-1.3 1.4-2.1 0-4.3 3.1-5.4 7.7l-1.1 4.3 6.2 2.9c3.3 1.6 9.1 4.3 12.8 5.9 9 4.1 14.6 9.6 21.3 20.8 3.1 5.2 6.1 9.4 6.7 9.4.5 0 3.9-.8 7.4-1.7 6.2-1.7 6.5-1.7 15.1.6 11.2 2.9 22.4 3.7 30.5 2.1 6.4-1.2 12.9-4.1 31.8-14.2 5.8-3.1 16.1-8 23-10.8 6.9-2.9 14.6-6.3 17.2-7.6s5-2.4 5.4-2.4c.3 0 5.9 5.1 12.3 11.3s14.8 13.9 18.8 17c7 5.5 22.4 15.7 29.1 19.1l3.2 1.7V0H0z"/><path d="M311 111.6c-4.1 9-4 11.7.7 14.9 3.5 2.3 3.8 2.4 4.5.8.8-2.2 1-17 .2-20.1-1-3.6-2.3-2.6-5.4 4.4m7.1 34c0 1.1.3 1.4.6.6.3-.7.2-1.6-.1-1.9-.3-.4-.6.2-.5 1.3m21 23.9c0 4.2.2 4.6 1.1 2.8.7-1.5.7-3 0-5-1-2.6-1-2.4-1.1 2.2M58.9 180.7c-7.4 8-7.4 8.1-5.5 10.2.9 1 1.4 2.5 1 3.4-.3.9.3 2.8 1.5 4.4 1.2 1.7 2.2 5.2 2.6 9.3l.7 6.5-12.9 18c-7.1 9.9-13.6 18-14.4 18-1.6 0-1.6-1.1.1-26.4.6-9 .9-16.6.6-16.8-.2-.2-3.6 1.7-7.5 4.2-7.5 4.8-8.4 6.6-5.7 10.8 1.8 2.8 3.9 14.3 3 16-.5.6-5.6 7.8-11.6 15.8L0 268.8V384h186.8l3.1-8.6c1.7-4.7 4.5-13.8 6.2-20.2 4-15.1 8-26.4 13.5-38.2 3.1-6.5 4.4-10.7 4.4-13.5 0-2.2.2-12.8.5-23.5l.6-19.5-4 9.6c-7.3 17.9-9.7 20.3-36.5 37.6-22.8 14.6-28.7 17.8-37.8 20.8-4 1.2-12.2 4.2-18.3 6.5-10.4 4-11.4 4.2-18.5 3.7-11.2-.9-26.1-6.5-30.1-11.3-2.1-2.6.4-3.1 8.3-1.8 8.3 1.4 13.5.8 25.3-3.1 7.7-2.5 10.5-4.4 10.5-7.2 0-.9-1.2-1.1-4.5-.6-3.6.5-4.6.2-5.1-1.1-2.3-6 16.3-10 27.8-5.9l4.6 1.6 19.4-15.5c17.9-14.4 28.4-22.1 30.8-23 .5-.1 1.7-4.3 2.5-9.1s2.8-12.7 4.3-17.6l2.9-8.7-2.9-1.7c-4.3-2.5-4.5-4.4-.9-8.1 3.1-3.2 3.1-3.2 1.1-5.1-1.2-1.1-2-3.1-2-5.1 0-1.8-.4-3.5-.9-3.8-2-1.3-15.8-1.9-16.5-.8-.4.6.4 2.8 1.8 4.9s3.2 5.7 4.1 8c1.7 4.2 1.7 4.3-3 21-5.8 21.1-6.8 23.8-8.4 23.8-.9 0-3.3-6.8-7.2-20.3l-5.9-20.3 2-5.1c1-2.8 2.9-6.1 4.1-7.4 4.1-4.4 2.2-5.4-10.4-5.4-6.3 0-12.8.3-14.4.6l-2.9.6 1.8 7.1c2.3 8.8 1.9 10.9-3 18.9-2.2 3.5-6.5 10.8-9.7 16.3-6.6 11.3-8.4 13.7-9.6 12.9-.5-.3-.9-10.8-.9-23.4v-22.8l6-6.1c3.3-3.4 6-6.5 6-7 0-1.5-17-12.2-23.4-14.8-6.9-2.8-8.3-2.2-6.8 2.9.6 1.8 1.3 5.8 1.7 8.9l.6 5.7-11 16.3c-12.9 19-15.7 22.7-16.6 21.7-.4-.4-.2-10.4.4-22.4.8-16.8 1.4-22.3 2.7-24.1 2.7-4.3 8.6-10.3 9.9-10.3 1.8 0 2.9-3.4 1.3-3.9-.7-.2-5.6-2.6-10.8-5.3-5.2-2.6-9.7-4.8-10-4.8s-2.2 1.7-4.1 3.7m376.3 6.4c-8.3 4.2-9.1 4.8-7.6 6 .9.8 4.3 3.9 7.6 6.9l6 5.6 4.4 22.4c4.4 22.2 5.3 30.7 3.4 29.5-.5-.3-8-9.9-16.7-21.3l-15.8-20.7-.1-10.5-.1-10.5-2.6.2c-3.4.2-10.4 3.8-19.6 9.8-7.2 4.8-8.6 6.9-5.2 8 1.1.3 4.2 3.2 7 6.3l4.9 5.8 3.2 25.8c2 16.7 2.8 26.2 2.2 26.8-1.3 1.3-3.2-1.4-18.1-25l-12.3-19.3.5-7.2c.2-4 .7-8.2 1.1-9.3 1-2.8-.7-3.2-16.1-4.1-11-.5-12.3-.4-12.3 1 0 1 .4 1.7.9 1.7s2.5 2.9 4.5 6.4c2.7 4.7 3.6 7.6 3.6 11 0 6.1-4.9 46.6-5.8 48.3-.6 1.1-1.1 1.1-2.4.1-1.7-1.3-16.8-45.8-16.8-49.4 0-3.7 3.2-12.9 5.2-15.1l2-2.1-2.1-1.2c-3.2-1.7-16.9-.2-19.3 2.2-1 1-2.7 1.8-3.8 1.8s-2 .3-2 .7c0 1.2 4 7.5 6.2 9.9 2.1 2.4 1.8 2.8-2.5 3.8-2 .5-2.7 1.1-2.3 2.1.9 2.3 3.4 16.5 6.1 34.5 1.6 10.6 3.4 18.7 5 22.8 2.8 6.8 5 14.8 9.5 34.7 4.4 19.7 10.7 49.5 11.5 54.2l.7 4.3H512v-60.8l-.1-60.7-9.4-8c-9.3-7.8-9.6-8.2-11.6-15-1.7-5.4-1.9-7.6-1.1-9.7 1.5-4-.7-9.4-5.1-12.3-2-1.4-3.8-2.5-4-2.5-.3 0 1.5 6.6 3.9 14.7 6.6 22.5 8.7 30.3 8.1 30.9-1 1-4.2-1.9-12.2-10.9-4.4-5-12-13.5-16.8-18.9-8.8-9.7-8.9-10-10-16.9-.8-5.3-.8-7.8.1-10.3.7-1.8.9-4.1.6-5-.4-1 .1-2.5 1.1-3.6 1.6-1.8 1.6-2.2.2-4.2-2.7-4.2-7.9-8.8-9.6-8.6-.9.1-5.8 2.3-10.9 4.9M3.3 220.7c-2.2 1.1-3.3 2.4-3.3 3.7.1 1.9.2 1.9 2.5-.7 1.3-1.5 2.8-2.7 3.4-2.7.5 0 1.3-.5 1.6-1 .9-1.4-.4-1.2-4.2.7m294.4 60c-.3.5-.1 4.8.4 9.8.5 4.9.7 10.6.4 12.5-.5 2.9.4 5.6 4.8 15 6.2 13.1 9.7 22.8 12.7 35 3.1 12.6 7.2 24.3 8.1 22.9.4-.6.7-4.4.8-8.4.1-8-.4-9.8-11.7-39.1-6.9-17.9-9.3-25.5-12.7-40.7-1.7-7.7-2-8.4-2.8-7"/></svg>