<svg xmlns="http://www.w3.org/2000/svg" width="682.667" height="512" version="1.0" viewBox="0 0 512 384"><path d="M0 105.1v105.1l5.8-3.2c15.9-9 30.3-19.7 44.9-33.4 7.1-6.7 9.7-8.6 12-8.6 1.6 0 3.3.4 3.8.9.6.5 9 4.6 18.8 9 9.9 4.4 21.8 10.2 26.5 12.9 21.5 12.3 27 14.2 41.2 14.2 7.5 0 13.1-.6 19-2.1l8.4-2.1 9.2 2.3c5.1 1.3 9.5 2.1 9.7 1.9.3-.3 4.1-5.5 8.6-11.5 9.4-12.5 12.6-15.4 23.1-20.2 10.3-4.8 11.3-5.7 10.4-10.8-.6-4.2-3-7.8-4.5-6.9-.5.3-1.5-1-2.3-2.8-.9-2-1.5-2.6-1.5-1.6-.1 1-.6 1.8-1.1 1.8-.6 0-1 1.9-1 4.2 0 2.4-.4 6.1-.9 8.3l-.9 4-.1-5-.2-5-1.4 3c-1.3 2.9-1.3 2.7-1.5-4.5l-.2-7.5-2.1 8.5c-2 7.8-2.2 8.2-2.5 4.5-.4-5.5-3.2-19.7-4.3-21.5-.6-1.1-.9-.9-.9 1-.1 2.2-.4 2-2.3-1.8-1.1-2.3-2.4-4.2-2.7-4.2-.4 0-1.3 1.2-2.1 2.7l-1.4 2.8-.3-4.7-.3-4.8-4 2c-2.1 1.1-3.9 1.6-3.9 1.1s.4-1.2.9-1.5 2.6-3.1 4.6-6.1c3-4.5 3.4-5.9 2.5-7-1.7-2.1-3.8-1.9-4.5.5-.8 2.5-2.5 2.5-7.3.1-2-1-4.3-1.6-5-1.4-1.5.6-5.2-2.4-5.2-4.1 0-.6 2.5-3.1 5.5-5.4 5.5-4.3 10.6-10.7 12.5-15.7.7-2 .6-4.1-.6-8.3-2-6.8-1.4-16.4 1.7-25.5 5.3-15.8 18.2-24.2 36.4-23.7 12.5.4 18.3.3 27.9-.5 10.6-.9 17.6.4 25.9 4.8 6.7 3.5 10.7 7.9 14.5 15.8l2.6 5.6 3.3-3.4c2.8-2.7 3.9-3.2 6.1-2.7 7.4 1.8 19.3 11 22.8 17.7 1.4 2.6 5.1 17.3 6.1 24.4.4 2.7.1 3.4-1.8 4.2-1.5.6-3.1 2.6-4.3 5.6-1.8 4.5-1.8 4.7.2 11.3 3.3 10.9 6.6 31.2 5.3 32.5-.6.6-1.1 2.3-1.1 3.7 0 2.9-3 12.8-6.2 20.3-1.5 3.3-2.4 4.5-3.1 3.8-.8-.8-1.5-.1-2.5 2.2-.9 1.7-1.4 3.5-1.4 3.9.1.5-.3.8-.8.8-.6 0-1-.8-1-1.8 0-2.7-3.8-2.6-4.2.1-.2 1.2-.8-.7-1.2-4.2-.8-5.8-1-6.3-2.2-4.6-1.8 2.5-2.3 1.8-3.4-5-.5-3.1-1.9-8.2-3.1-11.3-1.6-4.2-2.3-8.7-2.7-17l-.5-11.2h-2.8c-2.7 0-2.9.2-2.3 2.6.6 2.3.4 2.5-1.4 2-1.9-.7-2-.5-1.2 2.5.5 1.8.8 3.4.6 3.6s-1.7-1.2-3.4-3.2l-3.1-3.5-1.7 3.1c-1.1 2.2-1.8 2.8-2.4 1.9-.9-1.5-4.8 9.7-5.2 15.5l-.4 4-1.2-2.9c-.7-1.6-1.4-2.7-1.7-2.5-.2.3-1.3 3.6-2.5 7.4l-2 7 .4-6c.4-6.3-.6-5.3-2.1 2-.7 3.4-.9 2.3-1.3-6.5-.3-6.9-.8-9.8-1.3-8.3-.4 1.2-2.3 3.1-4 4.2-3.1 1.9-3.5 2.9-4 9.1-.2 2.7.4 3.1 17.3 10.8 10.3 4.8 14.8 9.2 22.2 21.8l5.4 9.1 7.5-1.9c7.3-1.9 7.5-1.9 14.4.1 22 6.4 32.6 5.1 54.4-6.6 14.8-7.9 23.5-12.1 31.6-15.3 3.9-1.5 10.5-4.4 14.9-6.4 4.3-2 8.3-3.6 8.9-3.6.5 0 6.4 5.3 13.1 11.8 13.8 13.5 19.1 17.8 29.6 24.9 7.9 5.3 18.2 11.3 19.3 11.3.4 0 .7-49.1.7-109V0H0z"/><path d="M311.2 112.2c-3.7 8.7-3.5 11.9 1.3 14.7 1.8 1.1 3.6 1.7 3.9 1.4.3-.4.6-5 .6-10.4 0-15.3-1.1-16.4-5.8-5.7m7 33.8c0 1.4.2 1.9.5 1.2.2-.6.2-1.8 0-2.5-.3-.6-.5-.1-.5 1.3m22 22c-.1 1.9-.5 4.6-.7 6l-.6 2.5 1.1-2.5c.6-1.3.9-4 .7-6l-.4-3.5zM56.8 182.5c-4.7 5.2-5.8 7.5-3.8 7.5.6 0 1 1.4 1 3.2 0 1.7.8 4 1.7 5.1 1.3 1.4 1.9 4 2.1 9.6l.4 7.6-13 18.5c-7.1 10.1-13.4 18.6-14 18.8-1.5.5-1.5-11.1.1-31.1.7-8.1 1.1-14.7.9-14.7s-3.3 1.8-7 4c-7.6 4.6-9.1 7.6-6 12 1 1.4 2 5.3 2.4 9l.6 6.5-11.1 15L0 268.4V384h186.8l2.6-6.8c1.4-3.7 3.7-11 5.1-16.2 5.3-19.4 7.9-26.8 13.3-39 6.1-13.7 5.8-11.8 6.8-41 .4-11.6.3-18.1-.3-17.5-.5.5-2.4 4.6-4.2 9-6.7 16.4-8.4 18-39.1 37.6-20.7 13.3-26.3 16.4-32 17.9-2.5.7-10.3 3.5-17.5 6.2-12.9 5-13.1 5-22 4.5-6.8-.3-10.9-1.2-16.7-3.5-8.8-3.4-13.8-6.6-13.8-8.9 0-1.3 1-1.4 6.8-.7 3.7.5 9 .8 11.9.7 6.8-.2 24-5.8 25.3-8.3 1.8-3.4 1.2-3.9-4-3.3-4.5.5-5 .4-5-1.4 0-3.1 3.2-5.3 9.6-6.3 8.7-1.4 13.4-1.2 18.1 1l4.3 1.9 9.2-7.3c5.1-4 14.3-11.2 20.3-16 6.1-4.9 13.5-10.5 16.5-12.5s5.8-4 6.1-4.4c.4-.5.9-3.4 1.2-6.5.5-4.9 5-21.3 7.1-26.3.5-1.2-.1-2-2.3-2.9-4.6-1.9-4.9-4.6-1-8.1l3.3-2.9-2.1-2.2c-1.2-1.3-2.3-3.9-2.5-5.8l-.3-3.5-7.7-.9c-5.8-.7-8.1-.6-9.2.4-1.4 1-1.3 1.6.8 4.4 1.3 1.7 3.1 5.6 4 8.6l1.7 5.5-6.9 20c-8.4 24.2-9.6 25.3-12.1 11.5-.5-3-2.4-11.9-4-19.7l-3-14.3 2.6-5.2c1.4-2.9 3.5-6.3 4.6-7.6 3.5-3.8 1.3-4.4-13.6-4.1-7.5.2-13.8.7-14.2 1.1-.4.3-.1 1.6.5 2.8.6 1.1 1.4 5.1 1.7 8.8l.5 6.7L128 245c-13.1 21.8-15.1 24.6-16.1 22.7-.5-.8-.6-11.4-.2-23.6l.6-22.2 3.9-5.2c2.2-2.9 5-5.8 6.4-6.5 1.3-.7 2.4-1.9 2.4-2.6 0-1.9-15.9-12.4-23.2-15.3-7.3-3-8.7-2.3-7 3.5.7 2.2 1.2 6.6 1.2 9.9 0 5.9 0 5.9-11.9 23.3-6.5 9.6-12.8 18.4-14 19.4l-2.1 1.9v-4.4c0-8.5 2.9-42.9 3.6-44.1 1-1.6 6.5-7.7 8.2-9.2 5.5-4.5 6.2-6.6 2.5-6.6-.9 0-5.4-2-10-4.5-4.5-2.5-8.8-4.5-9.5-4.4-.7 0-3.4 2.4-6 5.4m381.2 4.1c-4.7 2.4-9.1 4.3-9.7 4.4-2 0-1.5 2.8.7 4 2.7 1.5 13 11.4 13 12.6 0 .5 2 11.7 4.5 24.9 4.4 22.9 4.8 27.4 2.4 25.9-.6-.3-8-9.9-16.4-21.2l-15.4-20.5-.6-7.2c-.5-4.8-.3-8 .4-9.4.8-1.5.9-2.7.1-4.1-1.2-2.2-2.1-2-12.1 3-14.3 7.3-20.1 12.8-15.1 14.4 1 .4 4 3.2 6.7 6.3 4.6 5.3 4.9 6.1 6.1 14.2 2.5 16.6 5.4 39.6 5.4 42.5 0 2.8-.1 2.9-1.9 1.1-1.1-.9-8.1-11-15.5-22.5L377 234.3v-7.9c0-4.9.5-8.5 1.2-9.2 2.5-2.5-1-3.5-15.1-4-10.2-.3-14.1-.2-14.1.7 0 .6.4 1.1.9 1.1.6 0 3.1 3.2 5.7 7l4.7 7-1.2 21.8c-.6 11.9-1.4 24-1.7 26.9-.5 4.9-.7 5.2-2.5 4-1-.6-3.4-5-5.3-9.7s-6.1-15.2-9.5-23.4l-6.1-15 1.4-6.8c.8-3.8 2.2-8.1 3.1-9.5 2.5-3.7.8-4.6-8.3-4.2-6.7.3-8.5.8-10.4 2.7-1.4 1.2-2.9 2.2-3.6 2.2-3.4 0-1.3 6.2 3.3 9.8 2.7 2.1 2.1 3.3-2.2 4.6-2.5.8-2.7 2.1-1.2 8.5.5 2.4 2.3 13.1 3.9 23.7 1.5 10.6 3.4 20.2 4 21.4 3.9 7.2 16.3 51.7 23.1 82.7l3.4 15.3H512V265.5l-9.9-9.5c-9.5-9.2-9.9-9.7-11.5-16.2-1-4.4-1.3-7.5-.7-9 .5-1.3.6-4 .2-6-.5-3.1-1.5-4.3-5.3-6.7-2.7-1.7-4.8-3-4.8-2.8 0 .1 2.7 10.1 6 22.2s6 22.6 6 23.2c0 3.1-3.3.6-10.6-7.9-19.9-23.1-26.3-30.9-26.7-32.5-1.5-5.1-1.7-13.3-.6-15.5.7-1.3 1.2-3.6 1.1-5.2-.2-1.6.4-3.6 1.3-4.6 1.3-1.5 1-2.2-3.6-7.3-2.8-3.1-5.4-5.7-5.7-5.6-.4 0-4.5 2-9.2 4.5m-435.2 34c-1.6.8-2.8 2.2-2.8 3.1 0 1.3.6 1.2 2.8-.9 1.5-1.4 3.4-2.8 4.2-3.1 1.3-.5 1.3-.5 0-.6-.8 0-2.7.7-4.2 1.5m295 59.5c-.4 1.1.6 16.7 1.4 20.8.1.3-.2 1.7-.6 3.1-.5 2 .5 5.2 4.4 13.5 6.6 14 9.1 20.9 13.4 37 4.9 18.5 8.8 28.9 11.1 29.4 1.4.2 1.6-.1 1-1.5-.4-1.1-1.1-7.3-1.5-13.9-.5-6.6-1.1-12.9-1.5-14-.5-1.1-4.5-10.8-9-21.5-8.6-20.5-14.5-36.6-14.5-39.7 0-3.3-3.6-14.7-4.2-13.2"/></svg>