<svg xmlns="http://www.w3.org/2000/svg" width="682.667" height="512" version="1.0" viewBox="0 0 512 384"><path d="M0 103.5C0 160.4.2 207 .5 207s3.6-1.6 7.3-3.7c14.2-7.7 29.5-19.1 43-32.2 4.1-3.9 8.2-7.3 9.2-7.6 1.1-.4 5.1 1 9.8 3.4 4.3 2.2 12.6 6.1 18.3 8.6 5.7 2.6 17 8.5 25 13.1 21.6 12.4 25.7 13.8 40.4 13.8 9.2 0 13.8-.5 19.6-2.2l7.6-2.1 7.8 2.5c4.3 1.4 8.8 2.4 9.9 2.2 1.2-.2 5.4-4.7 10.6-11.6 4.7-6.2 9.6-12 10.9-13 1.4-.9 7-4 12.5-6.7l10.1-5-.3-5c-.2-3.3-1-5.7-2.3-7-1.5-1.5-1.9-1.6-1.9-.5-.1.8-.8-.1-1.6-2-2-4.5-2.9-3-4.2 6.9-1.2 8.3-2.2 10.3-2.3 4.5l-.1-3.9-1.4 3.5-1.4 3.5.5-3.8c.4-2.1.3-5.9-.1-8.5l-.7-4.7-1.4 7c-1.8 8.6-3.3 10.6-3.3 4.4 0-4.3-.9-9-3.2-17.4-.9-3.4-1.2-3.7-1.8-2-.7 1.7-1.1 1.4-2.7-2.2-1-2.4-2.1-4.3-2.4-4.3s-1.2 1.2-2 2.7l-1.4 2.8-.3-4.7-.3-4.8-2.9 1.5c-4.9 2.5-5 1.7-.4-5.1 4.2-6.3 4.4-6.8 2.8-8.5-2.2-2.5-2.9-2.4-4.2.6-1.4 3-3.1 3.1-7.4.5-1.8-1.1-4.2-2-5.4-2-1.8 0-5.4-2.8-5.4-4.2 0-.2 2.6-2.5 5.8-5s7.5-7.1 9.6-10.2c3.5-5.3 3.8-6.2 3-9.9-1.4-7.7-1-22.8.8-28.8 4.8-15.4 18.6-25.4 34.8-25.2 10.8.1 24.7.1 35.5 0 9.3-.1 11.9.3 17 2.2 7.4 2.9 16.1 11.3 19.5 18.8l2.3 5.2 2.8-3c4.2-4.5 8-4 16.5 2 10.9 7.7 13.6 11.9 16.5 25.3 1.1 5 2.4 9.9 2.9 10.9 1.3 2.3.3 4.7-2.1 5.4-1 .4-2.8 2.7-3.9 5.3l-2.1 4.7 2 6.5c1.6 4.8 7.1 30.4 7.1 32.8 0 .2-.5 0-1.1-.4-.8-.5-1 .1-.7 2 .3 1.5-.8 6.7-2.7 12.4-3.7 11.4-5.1 14.2-6.9 14.2-.7 0-1.9 1.8-2.6 4-1.3 3.9-3 4.5-3 1.2 0-1.1-.8-1.8-2-1.8-1.1 0-2 .7-2 1.5 0 3.3-1.1 0-1.8-5.5l-.8-5.9-1.6 3.5-1.5 3.5-1.2-6.9c-.7-3.8-2.5-10.8-4.2-15.4-2.4-6.9-2.9-10.2-2.9-17.4V131h-3c-2.8 0-3 .2-2.4 2.6s.5 2.5-1.5 1.5c-2.1-1.2-2.1-1-1.6 3.1l.6 4.3-3-3.4c-1.7-1.9-3.2-3.3-3.4-3-.3.2-1 1.5-1.7 2.8-.9 1.8-1.4 2.1-2.1 1-.6-1.1-.9-1.1-1.3.1-.2.8-1.1 3.5-2 6-.8 2.5-1.8 6.3-2.1 8.5l-.7 4-1.2-3c-1.3-3-1.3-2.9-3 4.7-1 4.3-2 7.8-2.3 7.8s-.3-3 0-6.8c.4-4.2.3-6-.3-4.7-.5 1.1-.9 3.3-1 5-.1 1.6-.5 3.9-1 5-.6 1.3-.9-1.7-.7-8.7.2-11-.6-12.4-3.3-5.7-.8 1.8-1.6 2.6-2 1.9-1-1.6-3.5 1.8-4.9 6.8-1.5 5.1-1 5.7 7.9 9.8 17.4 7.9 20.5 10.6 30.6 26.4 3.8 5.9 6.4 9 7.6 9 1 0 4.4-.7 7.6-1.6 5.5-1.5 6.1-1.5 12.7.4 23.9 7 33.3 5.8 59.9-7.8 9.5-4.9 22.4-10.9 28.8-13.3 6.3-2.5 13.8-5.7 16.7-7.1 3.1-1.6 6-2.4 7.1-2.1s4.6 3.6 7.9 7.3c11.6 13 29.6 27.9 46.4 38.2l4.7 3V0H0z"/><path d="M313.1 112.4c-3.9 9-3.6 12.7 1.2 15.7 1.8 1 3.5 1.9 4 1.9.4 0 .7-4.9.7-10.9 0-16.6-1-17.8-5.9-6.7m8.1 33.6c0 1.4.2 1.9.5 1.2.2-.6.2-1.8 0-2.5-.3-.6-.5-.1-.5 1.3m22 23.2c-.1 2-.5 4.5-.8 5.5-.5 1.7-.5 1.7.6 0 .6-.9.9-3.4.7-5.5l-.4-3.7zM56.1 181.4c-5.2 5.3-5.3 5.4-3.7 7.8.9 1.4 1.4 3.2 1 4.1-.3.9.4 2.8 1.5 4.4 1.2 1.7 2.4 5.6 3 10l.9 7.2-11.3 21.8c-13.4 25.6-12.8 24.6-14.3 25.1-.9.3-1.2-6.3-1.2-26.5v-26.9l3-4.1 3-4.1-9.5 6.4c-5.3 3.5-10 6.4-10.4 6.4-.5 0-1.2 1.6-1.6 3.6-.5 2.7-.2 4.1 1 5.4.9 1 2.2 5 2.8 8.9 1 6.5.9 7.4-1 10.9-1.1 2-4 7.3-6.3 11.7s-6.2 11.6-8.6 16.1L0 277.7V384h187.6l2.6-7.8c1.5-4.2 4-12.9 5.7-19.4 3.8-14.4 6.8-22.7 12.7-35.4l4.6-9.9.4-22.5.4-22.5-3.1 6.5c-6.3 13.5-7.5 15.4-13.1 20.4-3.1 2.8-14.8 10.8-26 17.7-26.8 16.6-28.1 17.4-36.3 19.7-3.8 1.1-11.7 3.9-17.5 6.3-9.4 3.9-11.3 4.3-18 4.2-12.3-.3-33-8.4-33-12.9 0-1.4.9-1.5 6.8-.8 10.7 1.4 16 .9 26.5-2.5 7.1-2.4 10.1-3.9 11.3-5.7 2.1-3.2 1.2-4-3.1-2.7-4 1.3-7.2-.3-6.2-3 1.8-4.9 20.7-7.7 28.1-4.2 4.6 2.2 5.5 1.9 16.6-7.2 14-11.4 33.3-25.9 36.8-27.7 3.7-1.9 4.6-3.8 5.6-11.5.4-3 2.3-9.9 4.1-15.5 1.9-5.6 3.1-10.2 2.5-10.4-1.9-.7-6-4.4-6-5.5 0-.7 1.3-2.5 2.9-4l3-2.8-2-3.4c-1.1-1.8-1.9-4.6-1.7-6.1.3-2.7 0-2.9-4.2-3.6-12.8-1.9-18.1-.2-14.2 4.7 1.4 1.8 2.2 4.8 2.7 9.8l.7 7.2-4.9 9c-2.7 4.9-7.5 13.9-10.7 20-6.3 12-8.3 14.8-9.9 13.8-.7-.4-.8-8.9-.4-25.3l.7-24.7 4-6c2.2-3.4 5-6.4 6.3-6.7 2.2-.6 2.2-.6.2-2.2-1.6-1.3-4.3-1.5-15.2-1.2-7.3.2-13.5.7-14 1.1-.4.4-.1 1.7.6 2.9s1.7 5.3 2.2 9.1l.9 6.9-4.4 8.2c-2.4 4.4-6.9 13-10.1 19.1Q112.3 277 110.8 277c-1 0-1-21-.1-39.5l.6-13.8 4-5.9c2.2-3.3 5-6.4 6.3-6.9 4.3-1.6 2.9-4.5-4.8-10-7.7-5.4-18.2-10.9-20.9-10.9-2.4 0-3.1 2.7-1.5 5.3.8 1.2 1.7 5 2.1 8.4l.7 6.3-10.7 21.2c-5.9 11.7-11.7 22.6-12.8 24.2-1.7 2.4-2.1 2.6-2.9 1.2-.5-.9-.8-12.6-.6-26.4l.3-24.8L74 200c1.9-3 4.9-6.9 6.7-8.7s3.3-3.6 3.3-4.1-2-1.7-4.4-2.6c-2.3-.9-6.9-3.2-10.1-5.1-3.1-1.9-6.3-3.5-6.9-3.5s-3.6 2.4-6.5 5.4m384.7 9.5c-4.2 2.1-8.5 4.1-9.7 4.4-2.4.6-1.9 4.3.8 5.2.9.2 3.5 3.3 5.9 6.7l4.2 6.3v24.3c0 13.3-.4 24.2-.8 24.2-1.7 0-3.9-3.7-14.7-23.4l-10.7-19.9 1.1-7c.6-3.8 1.6-7.7 2.1-8.7q.9-1.65-.3-3.3c-1.1-1.3-1.9-1.2-7.7 1.2-9.6 4-21 11.7-21 14.2 0 1.2.8 2.3 1.8 2.6 2.1.6 9.1 9.5 10.2 13.1 1.1 3.4 3.5 47.1 2.6 47.9-1.2 1.3-4.4-3.2-15.5-21.6L378 238.7v-7.1c0-4.3.6-8.2 1.5-9.9 1.7-3.3 1.8-3.2-7.5-4.7-7.6-1.2-21-1.3-21-.2 0 .4.8 1.2 1.8 1.9 1.1.6 3.9 3.5 6.5 6.5l4.5 5.3 3.1 24.1c3.4 26.5 3.6 28.4 2.1 28.4-.6 0-7.6-9.9-15.5-22L339 239v-7c0-4.5.6-8.2 1.6-10.1 2.4-4.8.7-5.9-9.2-5.9-8.2 0-8.4.1-8.4 2.4 0 1.4-1.1 3.8-2.5 5.4l-2.6 3.1 2.3 1.5c3.3 2.3 3.3 7.1 0 9.7l-2.6 2 1.3 7.2c.7 4 1.9 11.7 2.5 17.3l1.2 10 8 8c4.5 4.3 11 11.2 14.6 15.2l6.5 7.3 6.9-3.2c4.6-2.2 10.2-3.7 17.2-4.7 10.1-1.6 10.3-1.5 14.8.6 2.4 1.2 4.9 3.2 5.3 4.5.9 2.1.9 2.1 1.7.2.4-1.1.8-2.3 1-2.6s-.8-2.1-2.1-3.9c-2.9-3.9-2.4-5.4 1.6-4.5 1.8.4 2.9.3 2.9-.4 0-.6.9-1.1 2.1-1.1 1.4 0 2.5 1.1 3.5 3.5 2.8 6.7-2 23.6-7.4 26-1.2.5-2.5 1.8-2.8 2.7-.3 1-.9 1.8-1.3 1.8s-3.8 3-7.5 6.6l-6.9 6.6-5.6-.6c-3.1-.4-10.5-2.2-16.6-4.1-10.2-3.2-11.6-4-19.5-10.7-31.4-26.4-34.6-29.9-37.5-41.9-1.8-7.1-3.3-9.7-3.3-5.6 0 1.2-.1 6.1-.2 10.8s.3 11.2 1 14.3c.9 4.4.9 6 0 7.1-1 1.2.3 4.7 5.9 17.5 4.5 10.1 8.5 21.1 10.7 29.3 2 7.3 4.8 17 6.3 21.7l2.8 8.5 93.6.3 93.7.2v-45.9c0-26.2-.4-46.2-.9-46.5-.9-.6-11.5-19-19.9-34.6l-4-7.5 1.3-6.8c.7-3.7 2-7.6 3-8.7 2.5-2.8 1.2-7.4-2.9-9.9-1.8-1.2-5-3.4-7.1-5.1-3.9-3.1-6.6-4.1-4.6-1.6 1.7 2.1 1.1 50.1-.7 50.1-1.5 0-1.8-.4-11-18-14.8-27.9-13.4-24.4-12.1-32.1.6-4 1.9-7.8 3-9 1.1-1.1 1.9-3.4 1.9-5.1 0-1.9.6-3.3 1.6-3.7 1.2-.5.6-1.8-3.2-6.6-2.6-3.3-5.4-6-6.3-5.9-.9 0-5.1 1.8-9.3 3.8M2.3 218.2c-1.5.7-2.3 2-2.3 3.6v2.5l3-2.9c4.3-4.2 4-5.5-.7-3.2M503 230.5c0 .2 1 1.4 2.3 2.7 1.2 1.3 3.2 3.6 4.4 5.3l2.2 3 .1-3.6c0-3.2-.4-3.7-4.5-5.7-2.5-1.2-4.5-2-4.5-1.7"/><path d="M381.5 306.9c-.8 1.4 2.3 2.9 5.1 2.3 1.9-.3 2.2-.7 1.3-1.8-1.3-1.6-5.5-1.9-6.4-.5"/></svg>