<svg xmlns="http://www.w3.org/2000/svg" width="682.667" height="512" version="1.0" viewBox="0 0 512 384"><path d="M274.2 17.5c-8.5 1.9-15.1 5.3-15.8 8.2-.6 2.1-.7 2.1-3 .7-3.4-2.3-19.4-1.6-22.2.9-1.9 1.7-2 1.7-3.5-.6-3.6-5.6-22.8-8.2-37.7-5.2-11 2.2-15.4 4-14.6 6 .3.8.2 1.5-.3 1.5-1.2 0-2.1 5.2-1.2 6.5.4.5 1.3 3 2 5.5s1.7 5.4 2.1 6.5 1.5 4.5 2.5 7.5 2.4 6.2 3.1 7.1c.8.8 1.4 2.3 1.4 3.2s1 2.8 2.3 4.3c2.2 2.5 2.5 2.6 6.1 1.4 2-.6 3.9-1 4.1-.8s0 2.3-.6 4.6c-.5 2.4-.7 4.7-.4 5.2 1.6 2.6-3.8 20.9-8.7 29.8-2.6 4.7-2.2 5 1.7 1.2l3.5-3.4-3.3 10c-1.9 5.4-3.7 11.2-4.1 12.8-.7 2.7-.6 2.8 1 1.5s1.7-.8 1.2 8.1l-.5 9.5 1.9-6.5c2.8-9.2 4.1-10 3.6-2-.3 5.1-1.3 8.4-4.6 15.2-2.3 4.7-4.2 9.2-4.2 10s-.4 1.8-.9 2.3c-.9 1.1-5.1 14.1-5.1 16 0 .7-.9 2.4-2.1 3.8-1.4 1.9-1.7 3.2-1.1 4.4.9 2 .9 8.4-.1 9.9-.6 1-1 12.7-.9 24.9.1 5.4-.8 8.1-9.8 28.5-5.4 12.4-10.6 24.2-11.5 26.2l-1.8 3.6 3.2 4c3.7 4.7 3.7 5.1 1.2 12.3-1.1 3-2.3 9.4-2.7 14.2-.6 7.6-.4 9 1.1 10.7 1.7 1.9 1.7 2.4-1 12.7-4.7 18.3-4.5 29.6.7 32.4 1.9 1 2 1.6.4 6.4-.4 1.1.3.2 1.6-2l2.3-4 .3 5.7c.4 7.6 2.2 7.5 2.2 0 0-4.6.4-6.3 1.9-7.7 3-2.6 14.2-19.7 21-32 16.6-29.8 23-57.3 25.1-107.5.9-21 1.3-24.8 2.8-26.9 3-4 3.9-3.5 6.1 3.1 5.1 15.8 5.4 18.2 4.1 33.5-.7 7.8-1 14.9-.6 15.8.3.9.1 2.5-.4 3.5-.7 1.4-.7 2.5.1 3.8.9 1.4.5 2.7-1.9 6.8-4.8 8.2-7 13.9-10.8 27.8-4.4 16.4-4.8 17.6-13.5 39.8-7.1 18-16.6 42.1-17.6 44.6-.4.9 15.9 1.2 79.6 1.2 44.1 0 80.1-.3 80.1-.6 0-.5-1.9-7.2-13.2-46.3-3.8-13.2-3.4-18.4 1.5-20.5 2.8-1.1 3.4-2.1 4.9-7.7s1.6-7.2.4-12c-1.2-5.4-1.2-6 1.5-12.5 1.5-3.8 2.8-7.6 2.8-8.6.1-.9-1.7-5.4-3.9-10.1-8-17.2-16.7-40.5-19.5-52.5l-2.9-12.4 3.4-6.4 3.5-6.5-2.3-1.9c-1.3-1-4.3-2.2-6.7-2.6-5.1-.7-4.9-.4-6-14.9-.4-4.4-1.1-9.7-1.7-11.8-1.5-5-7.5-11.7-13.2-14.8-2.5-1.3-4.6-2.8-4.6-3.2s.7-2.2 1.6-3.8c.8-1.7 1.4-3.3 1.1-3.5-.2-.2-3.1-.7-6.6-1-7.6-.8-7.6-.9 1.4-15.2 1.8-3 4.6-8.8 6.1-13 1.5-4.3 2.8-7.8 3-8 .1-.2 1.9-.5 4-.8 8.4-1 8.5-7 .3-19.1-1.6-2.3-2.9-5.1-2.9-6.3 0-2.3.4-2.4 9.6-.5 3 .7 5.3-.8 5.8-3.7.1-.7.5-1.9.9-2.6.5-.6.6-1.2.2-1.2-.3 0 0-1 .7-2.3 1.4-2.4 1.6-4.1 2.4-14.2.3-3.8.9-7.4 1.5-8.1 1.5-1.9 1.4-9.2-.3-11.1-.8-1-1.7-2.5-2.1-3.4-1.2-3.5-24-5.8-34.5-3.4M216 186.3c0 10.4-.1 11-1.7 9.5-1.3-1.4-1.4-2-.4-3.2 1-1.1.9-1.6-.4-2.4-1.5-.8-1.6-1.6-.4-8.5.7-4.2 1.6-7.4 2.1-7.1.4.3.8 5.5.8 11.7"/></svg>