<svg xmlns="http://www.w3.org/2000/svg" width="682.667" height="512" version="1.0" viewBox="0 0 512 384"><path d="M0 102v102l5.3-2.6c13.3-6.8 30.9-19.6 43.2-31.6 10.9-10.6 8.8-10.6 33.6 1.5 11.8 5.7 26 13.1 31.6 16.5 13.5 8.1 16.6 9.6 24.7 12.1 8.8 2.7 18.2 2.7 31.7-.1l10.7-2.2 7.3 2.2c11.7 3.5 11.4 3.6 19.9-7.9 9.4-12.7 14.3-17.1 22.8-20.3 10.4-4 13.5-6.2 12.6-8.9-.5-1.2-.9-3.5-.9-5.1-.1-1.6-1-3.5-2.1-4.3-1.6-1.2-1.9-1.1-2.6.4-.5 1.5-.7 1.3-.7-.7-.1-1.4-.6-3.2-1.1-4-1.6-2.4-2.6.2-3.4 8.2-.8 8.8-2.5 12.4-2.7 5.8-.1-3.8-.2-4.1-.9-2-.6 1.9-.8 1.3-.9-3-.2-7.6-1.7-9.6-2.6-3.4-.3 2.7-1.2 6.2-1.9 7.9-1.2 2.8-1.3 2.6-1.9-5-.7-9.7-3.6-20.1-4.7-17-.6 1.7-1 1.4-3-2.4l-2.2-4.5-1.7 3-1.6 2.9-.3-4.7-.3-4.8-4 2c-2.1 1.1-3.9 1.8-3.9 1.4 0-.3 1.8-3.1 4-6.1 4.2-5.9 4.8-8.1 2.8-10.1-.9-.9-1.7-.6-3.4 1.5l-2.2 2.8-4.6-2.3c-2.6-1.2-5.5-2.2-6.5-2.2s-2.6-.9-3.7-2.1c-1.9-2.1-1.8-2.1 1.1-4.6 6.8-5.5 11.7-10.7 14.1-14.9 2.3-3.9 2.5-5.1 1.8-8.7-.4-2.3-.8-8.5-.8-13.7-.1-22 9.7-35.3 29.2-39.6 6.5-1.4 8.7-1.5 15.7-.5 6.4 1 9.5 1 14.4 0 3.6-.7 10.3-1 16.1-.7 9 .4 10.8.9 17.3 4.1 4.7 2.3 8.4 5 10.5 7.6C309.2 48.2 314 57 314 59c0 .7 1.3-.2 2.9-1.9 5-5.4 11.8-3.7 21.9 5.4 6.9 6.3 9.7 11.3 11.6 21 .8 4.4 1.9 9.3 2.5 10.8 1.6 4.2 1.4 5.6-1.2 6.8-1.3.6-3.3 3-4.4 5.3-2.1 4.2-2.1 4.3-.3 9.7 3.4 10 7.3 31.9 6.2 34.3-.6 1.1-1.3 4.1-1.6 6.6-1 7-5.6 19.3-8.2 21.7-1.3 1.2-2.4 2.7-2.4 3.3s-.6 1.8-1.4 2.6c-1.2 1.2-1.6 1-2.4-1.4-.6-1.5-1.1-2-1.2-1.2s-.6.4-1-1c-.8-2.4-.8-2.4-.9-.3-.2 5.3-3 1.1-3.2-4.7v-2.5l-1.1 2.3c-1.7 3.5-2.5 2.6-3.7-4.1-.6-3.5-2.3-9.7-3.8-13.8-2.3-6.2-2.7-9-2.8-17.7V130h-3.3c-3 0-3.2.2-2.6 2.6s.5 2.5-1.5 1.5c-2.4-1.3-2.5-.9-1.2 3.7 1.2 4-.1 4.2-3.1.2-2.7-3.7-3.2-3.7-4.7-.3-1 2.1-1.4 2.4-2.1 1.3-.8-1.2-1-1.2-1.3 0-.3.8-1.2 3.5-2.1 6s-1.6 5.9-1.6 7.6c0 4.2-1.2 5-2.5 1.7-1-2.5-1.2-2.2-3.3 5.8l-2.2 8.4.5-7.5c.4-7.6-.6-6.9-2 1.4-1.1 6.5-1.9 3-1.7-7.2l.2-9.7-2.5 4.5c-1.3 2.5-2.4 3.9-2.5 3.1 0-1-.7-.8-2.5.9-1.3 1.2-2.3 2.5-2.3 2.9.1.3-.2 2.1-.6 3.9-1.1 4.6.7 6.3 12.4 12.2 10.8 5.4 13.8 8.3 24.5 23.3l7 9.8 5-.5c2.8-.3 6.7-.9 8.8-1.2 2.6-.4 6.6.2 13.5 2.2 7.7 2.3 11.8 2.8 19.7 2.9 12.2 0 15.1-.9 37.6-12 9.1-4.4 21.2-9.8 27-12 5.7-2.1 13-5.1 16.3-6.7 3.2-1.5 6.8-2.8 8-2.8 1.4 0 6.2 4.2 14.6 12.8 6.9 7.1 15.7 15.3 19.5 18.3 7.2 5.7 22 15.9 23 15.9.3 0 .5-50.2.5-111.5V0H0z"/><path d="M314.2 111.3c-3.9 8.8-3.6 12.6 1.2 15.6 1.8 1.2 3.5 1.6 4 1.1 2.4-2.4 1.6-22.8-1-23.7-.6-.2-2.5 2.9-4.2 7m30.1 59.7c0 3 .2 4.3.4 2.7.2-1.5.2-3.9 0-5.5-.2-1.5-.4-.2-.4 2.8m-289.9 8.7c-4.1 4.5-5 6-3.8 6.6.7.4 1.4 2 1.4 3.4 0 1.5.9 3.7 2.1 4.9 1.1 1.2 3.1 5.2 4.4 9l2.4 6.9-7.9 24.6c-4.4 13.5-8.6 25.4-9.4 26.4-1.3 1.8-1.4 1.8-2.3-.1-.6-1-2.7-13.2-4.8-27l-3.8-25.2 3-6.5 3.1-6.5-7.3 5.2c-4 2.8-9.3 6.3-11.8 7.8-5.4 3.1-6.3 6.1-3.1 9.8 2.4 2.9 5.4 11.1 5.4 15.1 0 2.8-15.6 48.5-17.3 50.6-1.6 2.1-2.6 1.5-3.6-2-.6-2.1-1 14.7-1 49.1L0 384l93.7-.2 93.7-.3 1.8-4.7c.9-2.6 3.1-10 4.8-16.5 4.4-16.5 8.5-28.2 13.8-39.3 4-8.3 4.6-10.4 4.7-16.5.1-3.9.5-12.1 1-18.4.8-10.5.7-11.4-.8-10.8-1 .4-1.7.2-1.7-.3 0-2.5-1.8-.5-4.3 4.5-5.2 10.7-10.5 15-43.8 36-14.5 9.1-20.3 12.2-27.5 14.5-5 1.6-11.7 4-14.9 5.4-12 5.4-17.9 6.6-25.8 5.6-11.8-1.5-29.7-9-29.7-12.5 0-2 1.6-2.2 9.3-.9 4.6.8 8.9.9 12.2.4 16.7-2.8 32.9-12.4 19.8-11.7-4.5.2-4.8 0-4.8-2.2 0-3.8 5.5-6.1 15.6-6.4 6.5-.1 9.4.2 12.6 1.7l4.2 1.8 20.3-16.3c11.2-8.9 23.2-18.2 26.8-20.5l6.5-4.2 1.2-7.6c.7-4.2 2.8-12.2 4.6-17.7 2.9-8.8 3.2-10.2 1.8-10.6-2.4-.9-5.1-3.5-5.1-4.9 0-.8 1.4-2.7 3.2-4.4l3.1-3-2.3-2.5c-1.8-1.9-2.2-3.2-1.7-5.9l.5-3.4-8.3-1.3c-4.6-.6-9-.9-9.9-.6-2.4 1-3 3.6-1.3 5.5 1 1 1.8 4.7 2.3 9.3l.6 7.6-11.2 21.9c-11.9 23.1-13.9 26.4-15 24.2-.4-.7-.4-12.8-.1-26.8l.6-25.6 3.4-5.2c1.8-2.9 4.7-6.3 6.4-7.7 1.7-1.3 2.8-2.7 2.5-3.1-1.1-1.1-17.1-1.7-24.2-1l-6.6.8 1.9 2.4c1.1 1.4 2.5 5.5 3.1 9.2l1.2 6.7-4.2 11c-15.8 40.9-15.5 40.4-17.2 38.7-.6-.6-1.9-12.8-3.1-27.2l-2.1-26.3 3.5-6.5c1.8-3.5 4.4-7.1 5.5-7.9 4-2.6 2.7-5.5-5-11-7-5-18.8-11.3-21.3-11.3-1.7 0-1.6 1.9.1 3.9.7.9 2.1 4.6 3.1 8.2l1.7 6.6-7.6 23.9C84 254.5 82.3 259 80.9 259c-1.3 0-1.8-2.8-5.5-28.9l-3.6-25.8 2.7-5.4c1.5-3 3.7-6.5 5-7.9 4.2-4.6 4-6.3-.9-8.3-2.4-1-7-3.4-10.1-5.3-3.2-1.9-6.4-3.4-7.3-3.4-.8 0-3.9 2.6-6.8 5.7m388.1 12.8c-4.9 2.5-9.5 4.5-10.1 4.5-1.4 0-.6 5 .8 5 .5 0 2.5 3.3 4.3 7.4l3.5 7.4-5.5 21.3c-5.1 19.9-7 24.6-8.6 21.6-.4-.7-3.5-10.5-6.9-21.9l-6.2-20.7 2.7-7c1.6-3.9 3.2-7.1 3.7-7.1.4 0 .8-.7.8-1.6 0-2.2-3.4-1.3-13.5 3.5-14.1 6.8-20.1 12.8-14.6 14.6 1 .3 3.5 3.6 5.4 7.3 3.3 6.3 3.5 7 2.6 12.2-.5 3-2 12.4-3.4 20.8-1.3 8.4-2.7 15.7-3 16.2-1.6 2.6-3.3-.6-13.6-26.3l-6-14.8 2.2-6.7c1.2-3.7 2.6-7.2 3.1-7.8.5-.8.1-1.4-1.4-1.8-3.5-.9-26.8-2-26.8-1.2 0 .4 1.3 1.8 3 3.2 1.6 1.4 4.4 4.3 6.1 6.6l3.3 4.1 1.7 21.6c2.2 26.9 2.2 27.1.5 27.1-.7 0-7.3-9.2-14.5-20.5-13-20.2-13.1-20.5-13.1-26.2 0-3.8.7-7.2 1.9-9.7 1.1-2.1 1.7-4.4 1.5-5.1-.7-1.7-6.8-2.6-13-1.9-4.6.6-5 .9-4.7 2.8.3 1.4-.5 3.4-2.2 5.4-2.3 2.7-2.4 3.3-1.1 3.8.9.3 1.6 1.2 1.6 2s.6 2.4 1.3 3.5c1.2 2.1.5 3.2-4.6 6.4-1.5.9-1.4 1.8.3 8.9 1.1 4.4 2 11.5 2.1 15.7l.2 7.9 5.1 2.9c2.8 1.6 11.8 7.6 20 13.5 8.3 5.8 15.5 10.6 16 10.6.6-.1 3.6-.9 6.6-2 3.6-1.3 8.2-1.9 13.6-2 8 0 18.4 2.2 18.4 4 0 .5 2.6 2.6 5.7 4.6l5.7 3.6 1.8-2.2c1-1.2 1.8-3.3 1.8-4.6 0-2.8 1.6-4 3.5-2.4 1.1.9 1.7.6 3-1.3l1.6-2.5 2.5 2.4c4.5 4.6 2.7 10.2-6.3 18.9-3.1 3-6.1 5.5-6.6 5.5s-3.9 1.4-7.7 3-8.2 3-10 3c-1.7 0-8.4-1.3-14.8-2.9s-14.4-3.2-17.7-3.6c-4.6-.5-9.2-2.3-20.3-8.1-33-16.9-37.5-20.6-41.8-33.8-2.6-7.9-2.9-8.5-3.7-5.9-1.2 4.3-1.1 18 .3 25.2.8 4.8.9 7 0 8.5-.9 1.8-.2 4 4.3 13.6 8.6 18.5 8.7 18.7 16 45 2 6.9 4 13.7 4.6 15.2l1.1 2.8h187V235.2l-3.1-1.2c-2.3-1-3.3-1-4.2-.1-.9 1-.8 1.4.5 2.2 1 .5 2.7 4.1 3.9 8l2.1 7-2.8 6.7c-1.5 3.7-3.7 8.9-5 11.7-1.2 2.7-3.6 8.5-5.4 12.8-3 7.2-5.1 9.9-6.7 8.3-.7-.7-7.3-38.9-7.3-42.3 0-2.8 6.3-12.9 9-14.3 3.7-2 2.4-5.2-3.8-9.2-3.1-2-8.6-6.3-12.2-9.6l-6.5-5.9 2.7 5.6c1.5 3.1 2.7 7.2 2.7 9.1-.1 4.3-13 42.2-14.5 42.7-.6.2-1.6-.9-2.2-2.4-1.6-4.4-9.2-37.8-9.2-40.7 0-3.8 5.8-14.7 8.1-15.3 1.1-.3 1.9-1.4 1.9-2.6 0-1.1.7-2.9 1.7-3.9 1.5-1.7 1.4-2.1-2.8-7.5-2.5-3.2-5.2-5.9-6-6-.7-.1-5.4 1.8-10.4 4.2M1.3 215.7c-.7.2-1.3 1.5-1.3 2.8v2.4l2.5-2.3c1.4-1.3 2.5-2.6 2.5-3 0-.7-1.9-.7-3.7.1"/><path d="M391.6 305.8c-1.9 1.8 3.2 4.2 8.9 4.2 3.5 0 6.4-2.3 4.5-3.5-1.4-.8-12.7-1.5-13.4-.7"/></svg>