<svg xmlns="http://www.w3.org/2000/svg" width="682.667" height="512" version="1.0" viewBox="0 0 512 384"><path d="M0 101c0 55.5.4 101 .9 101 1.6 0 22.5-13.1 29.8-18.7 4.1-3.1 11.8-9.6 17.1-14.4 5.3-4.9 10.3-8.9 11-8.9 3 0 39.3 18.1 54.2 27 13.8 8.3 18.6 10.5 26.8 12.5 8.5 2.1 21 1.7 33.3-1.1 7.4-1.6 7.8-1.6 13.5.4 3.3 1.1 7.5 2.3 9.5 2.7l3.6.7 8.8-11.7c9.8-13 13.4-16.1 23.4-20 3.8-1.5 8-3.7 9.5-4.9 2.5-1.9 2.6-2.4 1.6-5-.6-1.6-.8-3.7-.5-4.7.8-2.4-3.3-4.8-4.6-2.8-.6 1-.9.7-.9-1.1 0-2.8-1.6-5.8-2.5-4.8-.4.3-1.2 4.7-1.9 9.7-1.4 10.4-2.6 12.7-2.7 5.5-.1-3.9-.3-4.4-.9-2.4s-.8 1.3-1-3c-.3-9.3-1.4-10-2.9-1.6-.7 4.2-1.6 7.8-2 8-.5.3-1.1-2.9-1.4-7.2-.5-6.7-1.2-9.8-3.4-16.2-.4-1.2-.7-1.1-1.3.5-.7 1.7-1.1 1.3-2.9-2.9l-2.2-5-1.9 3.2c-1.1 1.8-2.1 3.2-2.4 3.2-.2 0-.1-2 .2-4.5.5-5-.1-5.4-4.9-2.9-1.7.8-3.2 1.4-3.4 1.2s1.7-2.9 4.1-6.1c4.5-6.1 5.3-8.4 3.2-10.5-1.7-1.7-2.3-1.5-3.6 1.3-1.4 3-3.7 3.2-7.7.5-1.6-1.1-3.9-2-5.1-2-1.1 0-3.1-1.1-4.3-2.4l-2.3-2.4 4.4-3c9.5-6.6 16.6-17 15.2-22.6-.4-1.7-.7-8.1-.8-14.1 0-12.7 1.9-19.4 7.8-27.4 7.1-9.6 23.2-15.2 37.5-13 5.8.8 9.2.8 14.8-.1 9.7-1.7 22.3-.8 29.8 2 7.6 2.9 16.5 11.6 20.1 19.7l2.5 5.7 2.3-2.9c2-2.5 3-2.9 6.5-2.8 10.9.5 27.1 18.2 27.1 29.7 0 1.4.9 5.2 1.9 8.6l2 6.2-2.9 2.7c-1.5 1.4-3.5 4.1-4.4 5.9-1.6 3.2-1.6 3.7.3 9.5 1.8 5.5 7.1 31.2 7.1 34.1 0 .7-.3.6-.9-.2-.5-.9-1 .6-1.4 4-.8 8.3-6.1 23.1-8.6 24.3-1.1.5-2.9 3-4 5.5-2 4.4-2 4.4-2.1 1.3 0-2.4-.4-3.1-1.7-2.9-.9.2-1.9.9-2.1 1.6-.6 1.6-3.1-6.3-3.3-10-.1-2-.3-1.7-1.1 1.2-.6 2.1-1.3 3.8-1.8 3.8-.4 0-1-2.7-1.4-6s-2-10.1-3.7-15c-2.4-7.4-2.9-10.6-2.9-18.5V129h-3.1c-2.8 0-3.1.2-2.5 2.6.6 2.2.5 2.4-1.3 1.5-2.9-1.6-3-1.4-1.9 2.5 1.3 4.9.3 5.4-3.1 1.3l-2.9-3.4-1.3 2.8c-1.3 2.8-2.8 3.6-3 1.4-.1-2.6-4.9 12.9-4.9 16.1 0 1.9-.4 3.1-1 2.7-.5-.3-1-1.5-1-2.6 0-4.2-1.9-.6-3.5 6.6-1 4.1-1.9 7.5-2.1 7.5s-.2-3.3 0-7.3l.5-7.2-1.1 5.7c-1.7 8.9-3 7-2.6-3.7.1-5.2 0-9.5-.3-9.5-.4 0-1.2 1.4-1.9 3-.7 1.7-1.5 2.8-1.8 2.6-.7-.8-6.3 3.4-5.7 4.3.2.4 0 2.5-.6 4.5-1.2 4.5-.1 5.6 10.6 11 9.8 4.9 14.3 9.1 24.6 22.7 9.9 13.1 9.4 12.9 19 10.4 5.6-1.5 6.3-1.5 12.7.5 25 7.8 32.3 6.9 62.2-7.5 10.7-5.1 23.9-11 29.3-13 5.4-1.9 12.3-4.7 15.4-6 3-1.4 6.3-2.5 7.3-2.5.9 0 9.1 7.3 18.1 16.3 14.6 14.4 30 26.9 36.3 29.3 1.5.6 1.6-9.7 1.6-110.5V0H0z"/><path d="M315 109.7c-4 8.8-3.8 12.9.9 16 4.5 3.1 5.1 2.1 5.1-9.2 0-9.5-.7-13.5-2.1-13.5-.5 0-2.3 3-3.9 6.7m7.1 34.9c0 1.1.3 1.4.6.6.3-.7.2-1.6-.1-1.9-.3-.4-.6.2-.5 1.3m23.2 24.9c0 2.2.2 3 .4 1.7.2-1.2.2-3 0-4-.3-.9-.5.1-.4 2.3m-291.7 9c-4.4 5.1-4.6 5.6-3.2 7.6.8 1.2 1.2 2.8.9 3.6s.4 2.1 1.7 3c1.2.9 3.7 4.8 5.5 8.7l3.3 7.2-6 25.4c-5.9 25-7.2 29-9 27.2-1-1-12.8-48.3-12.8-51.5 0-3.4 4.7-14.7 6.7-16.3 1-.7 1.3-1.4.7-1.4s-2.1 1.2-3.5 2.6c-2.8 3-18.8 13.9-21.8 14.9-2.9.9-2.7 5.2.2 8.4 1.3 1.5 3.4 5.3 4.7 8.5l2.4 6-5.9 23.5c-3.2 13-6.4 25.1-7.2 27-1.2 3-1.5 3.3-2.7 2-.8-.8-2.6-7-4.1-13.9S.6 258.3.4 258.1s-.4 28-.4 62.7V384l93.7-.2 93.6-.3 1.9-5.5c1-3 3.7-12.2 5.8-20.3 3.9-14.5 7.8-25.1 13.9-37.6 2.8-5.8 3.1-7.4 3.6-19.8.3-7.4.7-13.9 1-14.4.9-1.3-.7-15.9-1.6-15.9-.5 0-.9.6-.9 1.4 0 2.6-8.2 17.2-11.8 21-3.5 3.6-35.6 25.5-50.7 34.5-3.8 2.3-10.1 5.1-14 6.2-3.8 1.2-12.6 4.4-19.4 7.1-11.8 4.8-12.6 5-19 4.3-11.2-1.1-30.3-8.4-31.8-12.1-1-2.7.7-3.1 8.2-1.8 5.2.9 9.1 1 12.7.4 7.9-1.3 20.7-5.6 22.9-7.6 2.4-2.1 2.6-5.9.3-5-4.2 1.6-6.1 1.6-7.3.2-3.3-4 2.3-7.2 14.1-8.2 7.7-.6 9.1-.4 13.2 1.6l4.7 2.2 5.7-4.7c22.7-18.9 43.5-35.1 46.3-36 1.1-.4 2-2.7 2.8-7.6.6-3.9 2.8-12.1 4.7-18.2 2.8-8.5 3.3-11.2 2.3-11.6-.7-.2-2.4-1.5-3.7-2.8l-2.4-2.4 3.6-3.6 3.6-3.7-2.1-2.2c-1.5-1.6-2-3.2-1.7-6.1l.3-3.8-4.5-.7c-7.7-1.1-15.8-.9-16.3.4-.2.7.4 2.5 1.4 4 1.2 1.7 2.1 5.2 2.5 10l.6 7.3-10.4 22c-12.1 25.6-12.6 26.7-13.7 26.1-.4-.3-1.1-12.5-1.5-27.1L150 227l4.6-7.1c2.5-3.9 5.2-7.3 6-7.6s1.4-1.1 1.4-1.8c0-1.7-12.1-2.8-21.9-1.9l-7.9.6 2.2 3.3c1.2 1.8 2.8 5.7 3.5 8.8 1.2 5.5 1.2 5.6-6.4 30.9-4.2 13.9-8.1 25.7-8.6 26.3-1.8 1.8-2.6-1.4-5.8-21.9-1.7-11-3.6-22.6-4.1-25.7-1-5.1-.8-6 1.9-12 1.6-3.5 3.8-7.3 5-8.3 4-3.7 2.8-6.6-5.4-12.4-7.2-5.1-18.8-11.2-21.2-11.2-1.8 0-1.6 1.9.1 2.6.8.3 2.7 3.8 4.1 7.8l2.7 7.3-5.6 24.4c-3.1 13.4-6.1 25.4-6.6 26.6-1.4 3.3-2.8 2.8-4-1.5-1.9-6.9-11-47.3-11-49.1 0-2.6 4-12.2 6.1-14.6 1-1.1 2-3.2 2.4-4.6.6-2.3.3-2.8-2.6-3.8-1.7-.6-6.3-2.9-10.1-5.1-3.9-2.2-7.8-4-8.8-4s-3.9 2.5-6.4 5.5m389.9 14.1c-4.9 2.4-9.6 4.4-10.3 4.4-1.5 0-.8 3.6 1.3 6 .7.8 2.2 4.5 3.4 8.2l2.2 6.7-7.6 19.9c-4.2 10.9-8 20.5-8.5 21.3-2.2 3.4-3.9-2.8-9-32.5l-1.8-10.9 3.3-6.8c1.9-3.7 4-6.9 4.7-7.2.7-.2 1-.8.6-1.2-1.4-1.5-10.1 1.9-19.9 7.7-8.1 4.9-9.9 6.4-9.9 8.3 0 1.3.7 2.8 1.5 3.2.8.5 2.8 3.9 4.5 7.6l3 6.7-5.5 20.2c-5.4 19.6-7 23.8-8.5 22.1-.4-.4-3.5-10.3-7-21.9l-6.2-21 3.5-7.2c2.9-6.1 3.1-7.2 1.8-7.7-3-1.2-27.1-1.9-27.1-.8 0 .6.6 1.3 1.4 1.6s3.5 3.2 6 6.4l4.6 5.8v23.7c0 15-.4 23.8-1 23.8-1.3 0-3.8-4-15.5-24.4l-9.7-16.9.7-5.9c.4-3.5 1.6-7.2 3-9.2 2.1-3 2.2-3.6.9-4.7-.8-.7-5.1-1.4-9.4-1.7l-7.9-.4.1 3.1c.1 1.8-.8 4.4-1.9 5.9-2 2.8-1.7 4.6 1.6 8.6 1.6 1.9.1 4.3-3.6 5.7-2.8 1-2.8 1-.3 12.9 1.1 5.2 2 12.2 2 15.5v6l4.3 2.4c2.3 1.3 12.4 8.2 22.4 15.3l18.3 13 7.2-.7c16.3-1.4 35.1 5.7 29.5 11.2-1.5 1.5-2.1 1.6-5.3.4-4.5-1.6-6.3-.3-3.7 2.7 2.3 2.6 15.3 7 21.3 7.2 5.5.2 16-.7 18.1-1.5 1-.4 2 .3 2.9 2.1 1.4 2.5 1.3 2.8-3.2 6.9-6.2 5.9-13.2 8-25.8 7.8l-9.4-.1-13.1-6.5c-7.1-3.6-16.4-7.7-20.5-9.1-9.7-3.1-47.5-24-55-30.3-3.3-2.8-6.6-9-9.1-17.3-1.9-6.4-2.4-7.1-3-5-1.1 4.1-1 21.2.3 27.5.8 4.3.8 6.2 0 7.6-1.2 1.9-1.3 1.6 8 21.7 3.6 8 6.8 17.6 10.7 32.2 1.7 6.3 3.9 14 4.9 17l1.9 5.5 93.6.3 93.7.2V235.3l-2.4-1.1c-3.2-1.5-5 .3-3.1 3.2 1.9 3 3.6 14.5 2.5 16.6-.5.9-5.7 9.3-11.5 18.6-7 11.2-11.1 16.9-12.3 16.9-1.5 0-1.7-2-2-22.1l-.2-22.1 4.5-5.6c2.5-3 5.4-5.7 6.4-6 1-.2 2-1.4 2.3-2.5.5-1.7-.7-2.9-6.1-6.5-3.6-2.4-9.6-7.2-13.3-10.7-3.8-3.4-6.8-5.7-6.8-5.2s.6 1.5 1.4 2.1c1.5 1.3 3.6 9.3 3.6 13.8 0 3-18.4 41.3-19.8 41.3-.6 0-1.3-.7-1.6-1.6-.7-1.8-4.6-37.1-4.6-41.4 0-3.2 7.4-14.7 10-15.5 1.1-.4 2-1.5 2-2.5s.9-2.5 2-3.3c1.8-1.3 1.7-1.6-3.1-7.5-2.7-3.4-5.5-6.2-6.2-6.1-.7 0-5.2 2-10.2 4.5M.7 214.7c-.4.3-.7 1.5-.7 2.5 0 1.6.3 1.6 2 .6 1.1-.7 2-1.8 2-2.5 0-1.4-2.2-1.8-3.3-.6"/></svg>