<svg xmlns="http://www.w3.org/2000/svg" width="682.667" height="512" version="1.0" viewBox="0 0 512 384"><path d="M0 101v101.1l3.3-1.7c13.6-7.1 28.5-18 44.1-32.2 4.9-4.5 9.7-8.2 10.6-8.2 3 0 41 18.9 54.9 27.3 16.8 10.1 23.8 12.8 35.7 13.4 7 .4 11.7 0 20.1-1.6l11.1-2.3 8.2 2.6c4.4 1.4 8.9 2.6 9.8 2.6 1 0 5-4.4 9.4-10.3 10.5-13.9 12.2-15.4 25.1-21.7 7.8-3.8 11.1-6 10.9-7-.2-.8-.5-3.2-.7-5.3-.1-2-.9-4.4-1.6-5.3-1.2-1.4-1.4-1.4-2.6.2s-1.3 1.5-1.3-1.3c0-3.4-1.7-5.3-3-3.3-.4.7-1.1 4.4-1.5 8.2-.9 9.5-2.3 13-2.5 6.3l-.2-5-1.4 3.5-1.4 3.5.6-3.3c.3-1.8.2-5.6-.2-8.5l-.7-5.2-1.7 7.7c-1.9 9-3 10.8-3 5.1 0-4.4-1.3-12.2-3.2-18.7-1-3.8-1.2-3.9-1.8-1.6-.7 2.3-.9 2.2-2.9-2.5-2.1-4.7-2.3-4.9-3.7-3.1-.8 1.1-1.4 2.3-1.4 2.8 0 .4-.4.8-1 .8-.5 0-1-2-1-4.5V129l-4 2c-3.9 2-5.4 1.4-2.6-1 2.8-2.3 7.6-10.7 7-12.3-.7-1.8-3.7-3.2-4.2-1.9-.1.5-.9 1.7-1.6 2.7-1.2 1.6-1.5 1.6-6.2-.9-2.7-1.4-5.6-2.6-6.5-2.6s-2.4-1-3.5-2.1c-1.9-2.1-1.9-2.1 1.6-4.7 5.9-4.4 12.8-11.9 15.1-16.3 1.8-3.6 1.9-4.8 1.1-7.8-2.8-9.8-2.2-20.7 1.9-31.8 3.1-8.5 12.2-17.2 20.9-20.1 6.7-2.3 6-2.2 50-2.5 15.9-.1 26.2 4.9 33.6 16.4 2.4 3.7 4.4 7.4 4.4 8.2 0 2.6 1.3 2.7 3.6.2 4.8-5.1 10.9-4 20.3 3.9C347.1 66.1 349.7 71 353 87c.6 3 1.3 6.7 1.7 8.2.4 2 .1 3-1.2 3.4-.9.4-2.9 2.7-4.4 5.1l-2.7 4.4 2.2 6.9c2 5.9 3.3 12 6.9 32 .5 2.6.4 3.1-.4 2-.8-1.2-1.1-.7-1.1 2.2 0 4.3-6.4 24.1-8 24.6-.6.2-.8.7-.6 1.1.3.4.1 1.3-.5 2.1-.6 1-.9 1.1-.9.2 0-.6-.4-1.2-1-1.2-.5 0-.9.3-.9.7.4 2.3-.2 4.3-1.1 3.8-.5-.3-1 .1-1 .9 0 .9-.4 1.6-1 1.6-.5 0-1-.9-1-2.1 0-1.1-.4-1.7-1-1.4-.6.4-1.1-.6-1.1-2.2-.2-2.7-.2-2.7-.6-.3-.9 5-2.2 4.1-2.9-2.1l-.7-6.4-1.4 3.2c-.7 1.8-1.5 3.3-1.7 3.3s-1-3.2-1.6-7.2c-.7-4-2.4-10.2-3.8-13.8-2.8-7.3-3.4-17.5-1.8-35.5.8-9.7-.2-18.5-2.2-18.5-.4 0-2.2 3.4-4 7.5-4.1 9.6-3.8 13.2 1.6 16.3l3.7 2.2h-3.4c-3.1 0-3.3.2-2.7 2.6.5 2 .3 2.4-1.1 2.2-1.5-.3-1.7.3-1.5 3.7.3 3.9.3 3.9-1.7 2.1-1.1-1-2.3-2.7-2.6-3.7-.9-2.7-1.9-2.3-3.3 1.3-.9 2.5-1.4 3-2.4 2-.9-.9-1.6.1-3 4.6-.9 3.1-2.1 7.7-2.4 10.2l-.7 4.5-1.3-3c-1.4-3.4-1.6-3.1-3.8 6l-1.4 6-.2-6-.2-6-1.2 5.5-1.2 5.5-.7-4.5c-.3-2.5-.3-7.2 0-10.4.7-6.3-.5-7-2.7-1.7-.6 1.6-1.7 2.8-2.4 2.5-1.8-.7-4.1 2.4-5.5 7.4-1.6 5.6-.8 6.5 11.3 13.2 5 2.7 10 5.8 11.1 6.7 1.1 1 6.5 7.5 11.8 14.5 10.9 14.2 10.4 14 20.8 11.3 5.5-1.4 6.2-1.4 11.6.5 7.2 2.5 20.1 5 26 5 8.7 0 18-3 35.5-11.7 16.7-8.2 47.4-21 53-22 2.9-.6 2.9-.6 13.8 11.2 11.8 12.8 26.6 25.3 38.2 32.4l3.8 2.3V0H0z"/><path d="M323.2 144c0 1.4.2 1.9.5 1.2.2-.6.2-1.8 0-2.5-.3-.6-.5-.1-.5 1.3m22 28c0 1.9.2 2.7.5 1.7.2-.9.2-2.5 0-3.5-.3-.9-.5-.1-.5 1.8M57 174.3c-1.4 1.3-4 3.9-5.9 6-3.3 3.5-3.4 3.7-1.8 5.5 1 1.1 1.5 2.6 1.2 3.4-.4.9.3 2.1 1.8 3.1 1.4.9 4.1 4.6 6.2 8.4l3.8 6.8-1.6 10c-.9 5.5-2.6 17.1-3.8 25.7s-2.6 16.3-3 17c-1.3 2.1-3.3-.8-6.2-9.2-1.4-4.1-5.1-14.9-8.2-24l-5.7-16.5L36 203c1.2-4.1 2.9-8.3 3.7-9.3 3-3.2.1-1.7-4.9 2.7-2.8 2.4-8.8 6.6-13.4 9.3-6.9 4-8.3 5.2-8.4 7.3 0 1.5.8 3 2 3.8 1.1.6 3.5 4.3 5.4 8l3.5 6.9-4.5 26.4C17 272.6 15 284.6 15 284.7c0 .2-.7.3-1.5.3-1.5 0-1.9-1-9-22.5l-4.3-13-.1 67.2L0 384h187l1.1-2.8c.6-1.5 3.3-10.7 6-20.5 4.8-17.6 9.1-29.3 15-40.8 2.4-4.8 2.9-7.1 2.8-11.7-.1-3.1.2-12.3.6-20.3.9-17.6 0-20.8-3.4-12.2-3.4 8.3-7.6 14.7-13.1 19.6-8.4 7.6-50.1 34.5-57.3 37-6 2.1-19.9 7.4-28.7 10.9-6.7 2.6-8.3 2.9-15 2.4-8.1-.6-18.8-3.8-26.2-8-5.9-3.4-7.3-5-5.5-6.5 1-.8 3.3-.7 8.9.4 6.5 1.2 8.3 1.2 14.4 0 11.3-2.4 21-6.3 22.2-9.1 1.4-3 .3-3.7-3.8-2.3-2.6 1-3.5.9-4.7-.4-3.9-3.8 2.1-7.4 13.9-8.3 6.5-.5 9.1-.3 12.2 1 2.1.9 4.7 1.6 5.7 1.6s4.9-2.6 8.6-5.8c17.5-14.9 38.2-31.1 42.8-33.5 2.7-1.4 3.1-2.2 4.2-9.1.7-4.2 2.8-12.3 4.7-17.9l3.4-10.2-3.4-2.8c-1.9-1.6-3.4-3.3-3.4-3.8s1.4-2.2 3.1-3.7l3.1-2.8-2.2-3.7c-1.5-2.6-2-4.5-1.5-6.5l.6-2.9-6.2-.7c-8.8-.9-13.7-.8-14.4.4-.3.6.2 2.2 1.3 3.8 1.1 1.5 2.5 5.8 3.2 9.7l1.2 7-10 24.3c-5.5 13.4-10.4 24.8-11 25.4-1.9 1.9-2.5-1.6-3.8-22.6-2.1-33.7-2.2-31.3 1.6-37.6 1.8-3 4.4-6.5 5.8-7.6 1.3-1.2 2.2-2.6 1.9-3.1-.9-1.4-13.1-2.3-22.1-1.6-7.1.5-7.5.7-6.1 2.3.8.9 2.6 4.5 4 7.9l2.6 6.3-5.5 24.6c-6.6 29.1-6.6 29.2-7.7 29.2-1.6 0-2.7-3.6-8.4-27.9l-5.7-24.4 1.8-6.1c1-3.3 3.1-7.4 4.6-9.1 1.5-1.8 2.5-4 2.3-5.1-.2-1-.4-2.2-.4-2.5-.2-1.2-17.5-12.6-22.5-14.8-6.1-2.6-9.1-2.8-5.9-.3 1.2.9 3.6 4.6 5.2 8.2l3 6.5-3.5 23.5c-1.9 12.9-3.9 25.2-4.5 27.4-.9 3.4-1.2 3.7-2.5 2.4-.8-.8-5-12.6-9.4-26.3l-7.9-24.8 2.1-6.6c1.1-3.6 2.6-7.3 3.3-8.1s1.7-3 2.3-4.8c.9-2.5.8-3.2-.3-3.2-1.3 0-8.6-3.6-16.6-8.3l-4.5-2.6zM452.4 189c-.6.6-5.1 2.8-10 4.8-8.1 3.4-8.9 3.9-8.6 6.1.2 1.4 1 3.4 1.7 4.5.8 1.2 1.9 5.1 2.6 8.8l1.2 6.7-9.6 19.4c-5.2 10.7-10.1 19.8-10.7 20.2s-1.5.3-2-.1c-.4-.5-1.6-10.8-2.5-23l-1.8-22 2.8-4.5c1.5-2.4 3.9-5.7 5.4-7.3l2.6-2.8-3.5.7c-4 .8-12.8 5-21.1 10-6.4 4-8.1 7.6-4.8 10.4 1 .9 2.8 4.7 3.9 8.6l2 7-7.8 20c-5.1 13.1-8.3 20-9.2 20-1.1 0-2.5-5.4-5.6-21.8l-4.2-21.8 3-5.7c1.7-3.1 3.4-6.2 3.9-6.8 1.1-1.3-11.7-3.4-20.8-3.4-4.9 0-6.3.3-6.3 1.5 0 .8.4 1.5 1 1.5.5 0 2.7 2.7 5 5.9 3 4.5 4 7 4 9.9 0 4.4-2.7 35-3.6 40-1 6.1-2.8 3.8-10.9-13.8-2.1-4.7-5.6-12.1-7.7-16.4-3.8-7.9-3.8-8-2.7-14.3.7-4.1 2-7.5 3.5-9.2 1.9-2.2 2.1-3.1 1.1-3.9-2.2-1.8-6.6-2.4-12.2-1.7-5.1.6-5.5.8-4.9 2.9.4 1.6-.2 3.2-1.9 5.2-2.6 3.1-2.3 5.4 1 8.1 2 1.6.9 4.7-2.2 6.1-3 1.4-3.1 3.6-1.1 13.7.8 3.8 1.8 10.4 2.1 14.5l.7 7.6 4.1 2.3c3.8 2.2 9 5.8 33.9 23.4l8.1 5.7h9c14.7 0 27.2 4.4 26.5 9.3-.4 2.6-3.2 3.3-6.4 1.6-3-1.5-3.7-.9-2.8 2.5 1.3 5.5 26.5 15.6 38.8 15.6 5.5 0 6.2 1.3 3.2 5.3-3.5 4.6-4.3 4.8-15.6 5.4-13.1.7-22-1.8-35.8-9.9-5.7-3.3-14.3-7.5-19.3-9.3-8.6-3.1-39.5-19.8-50.9-27.5-7.6-5-11.2-10.2-14.5-20.6l-2.9-8.9-.7 4c-1.2 6.2-1 17.2.3 25.9.9 5.8.9 8.1.1 8.3-1.6.6-.5 3.8 5.4 16.3 6.4 13.4 8.7 19.6 12.3 33.3 1.6 6.2 3.9 14.6 5.2 18.7l2.4 7.5 93.7.3 93.7.2v-74.5c0-65.6-.2-74.6-1.5-75.1-.8-.4-2.2-.1-3 .6-1.3 1.1-1.3 1.5 0 3.3 1 1.4 1.5 4.5 1.5 9.2l-.1 7-13.7 17.5c-7.6 9.6-14.5 17.5-15.3 17.5-.9 0-1.4-1.1-1.4-3.5.1-3.5 3.2-33 4.1-38.5.5-3.1 9.8-13.5 12.1-13.5 1.1 0 3.9-3.9 3.1-4.4-3.6-2.2-17.3-13-21-16.6-4.9-4.7-7.2-5.1-4.4-.8.7 1.3 1.7 5.2 2 8.8l.7 6.5-11.8 18.9c-6.5 10.4-12.4 19.1-13 19.4-1 .3-1.3-4.8-1.3-23.4v-23.7l4.5-5.3c2.5-2.9 5.4-5.6 6.5-5.9 1.1-.4 2-1.3 2-2 0-.8.9-2.3 2-3.3 2-1.8 1.9-1.9-2.8-7.8-4.9-6-6.9-7.3-8.8-5.4M0 216.7c0 2.5.1 2.6 1.6 1.1.9-.9 1.3-2.1 1-2.7-1.3-2-2.6-1.1-2.6 1.6"/></svg>