<svg xmlns="http://www.w3.org/2000/svg" width="682.667" height="512" version="1.0" viewBox="0 0 512 384"><path d="M275 16.5c-9.8 2.8-14.3 5.5-16.7 10.3-.1.2-1-.1-2-.7-5.4-2.9-18.5-1.7-21.9 2-1.7 1.9-1.8 1.9-4.3-1.1-5.4-6.2-23.1-8-40.1-4-8.6 2.1-12.6 4.2-11.4 6.2.2.4 0 .9-.6 1.3-1.1.7-1.4 4.8-.3 5.9.4.3.8 1.6 1 2.8s.8 2.7 1.3 3.3 1.1 2 1.3 3.1c.2 1 .9 3.2 1.5 4.7.7 1.6 1.2 3.3 1.2 3.8 0 .9.4 1.9 3.3 7.7.9 1.9 1.7 3.9 1.7 4.5.1.7 1.1 2.5 2.4 4.1 2.1 2.5 2.9 2.8 5.9 2.3l3.5-.5-.5 3.6c-.2 2 0 6.9.4 10.9l.9 7.2-4.3 8.2c-4.7 9.1-5.3 11.1-2.3 8.4 2-1.8 2-1.8.6 2.6-.8 2.4-2.6 7.4-4 11.2-2.8 7.4-3.4 10.8-1 6.4.8-1.5 1.6-2.7 1.7-2.7s.1 3.5 0 7.7l-.3 7.8 1.6-4.8c2-6.4 3.4-5.9 2.7 1-.3 4.2-1.8 8.6-5.3 15.8-2.7 5.5-5.6 11.6-6.4 13.5-4.3 10.3-9.1 28.3-8 30.1.3.5.1 1.6-.6 2.4-1.5 1.9-2.6 34.5-1.2 37.2 1.1 1.9-1.8 10.4-9 26.4-1.4 3-3.9 8.8-5.8 13l-3.3 7.7 3.4 4.1c3.1 3.9 3.2 4.4 2 7.4-4.2 10.6-5.8 26.7-2.8 29 1.4 1.1 1.2 2.5-1.9 14.7-4.4 16.8-4.4 24.9-.1 28.6 3.1 2.6 3.3 4.1 1.1 7.2-.8 1.2-1.1 2.2-.6 2.2s1.5-1.4 2.2-3c1.6-3.7 3-3.9 3-.3 0 1.6.4 3.4.9 4.2 1.4 2.1 2.3-.4 1.5-4.4-.5-3-.2-4 2.6-7.1 6.4-7.3 20.2-30.1 26.4-43.5 4.7-10.1 10.3-27.4 12.6-38.4 4.4-21.1 7.6-54.3 6.7-68.9-.6-9.7-.6-10.2 2-13.8 1.4-2.1 2.9-3.8 3.2-3.8.4 0 2 4.6 3.6 10.2 3.2 11.2 3.6 17.7 2.4 40.8-.4 6.3-.3 12 .2 12.6.6.7-.7 4.3-3.6 9.9-4.5 8.9-5.5 11.9-9.9 28.7-2.8 10.9-6.1 19.7-20.1 53.8-5.3 12.9-10 24.5-10.5 25.7l-1 2.3h80.5c44.3 0 80.5-.3 80.5-.8 0-.4-3.6-13.2-7.9-28.5-7-24.3-7.8-28.1-6.9-31.3.7-2.7 1.8-3.9 4.3-5 2.7-1.1 3.6-2.1 4.2-5.1.8-3.9.9-10.9.4-17.8-.3-2.6.6-6.5 2.4-11.2l2.7-7.1-7-16.4c-3.9-8.9-8-19-9.3-22.3-1.2-3.3-2.5-6.5-2.9-7-.4-.6-2.4-7.5-4.4-15.4l-3.6-14.4 3.1-6.8c3.8-8.2 3.3-9.4-4.6-10.4-6.2-.7-5.8.1-7.4-17.5-.5-5.2-1.4-10.7-1.9-12.1-1.6-4.1-6.7-9.4-12.5-13-2.8-1.8-5.3-3.4-5.5-3.5s.6-1.8 1.7-3.7c2.3-4.1 1.6-4.7-4.8-4.7-2.1 0-4-.2-4.3-.6-.3-.3 1-4.2 2.9-8.7 5.7-13.3 9-22 9.8-25.5.4-2 1.3-3.2 2.3-3.3 13.4-.5 14.4-4 5-17.8-3.3-5-5.9-9.4-5.6-9.6.3-.3 2.5-.1 4.9.4 7.9 1.9 9.9 1.5 10.6-1.9.3-1.7.9-3 1.4-3s.6-.7.3-1.5c-.4-.8-.1-2.1.5-2.9.7-.8 1.3-4.5 1.5-8.2.2-3.8.5-7.1.6-7.4.3-.7.8-6.7 1.1-12.3.2-3.3-.2-5.2-1.2-5.8-.8-.4-1.4-1.4-1.4-2.1 0-2.6-5.8-4.1-17.5-4.5-8.2-.2-13.1.1-17 1.2m-56.6 165.6c.9 8.7.8 13.9-.3 13.9-1.7 0-2.4-2.1-1.2-3.3.9-.9.7-1.5-.8-2.7-1.7-1.4-1.8-2.1-.9-7.8.6-3.4 1.4-6.2 1.8-6.2s1 2.8 1.4 6.1"/></svg>