<svg xmlns="http://www.w3.org/2000/svg" width="682.667" height="512" version="1.0" viewBox="0 0 512 384"><path d="M0 101c0 55.5.4 101 .8 101 1.6 0 17.2-9.9 25-15.8 4.2-3.3 12.4-10.3 18.1-15.6s10.9-9.6 11.6-9.6c2.3 0 40.4 18.8 54.1 26.7 16.1 9.3 21.2 11.7 28.7 13.3 7 1.6 23.9.8 33.4-1.6 7-1.7 7.2-1.7 13.5.3 13.1 4.3 11.3 5 21.8-8.7 10.4-13.7 13.6-16.4 24.9-21 9.8-3.9 11.4-5.5 10.1-9.9-.5-1.8-.7-3.8-.4-4.6.8-1.9-2.9-3.8-4.4-2.3-.9.9-1.2.7-1.2-.9 0-2.7-1-5.3-2-5.3s-1.7 3.2-2.5 12.4c-.4 4.2-1 6.4-1.5 5.6-.5-.7-.6-2.9-.3-4.9.6-3.8-1.1-3.5-2 .4-.3 1.1-.6-.3-.7-3-.1-2.8-.5-6.4-.9-8-.6-2.6-.8-2.3-1.5 2.9-.4 3.3-1.3 7.1-1.8 8.5-1 2.3-1.2 1.6-2.3-5.9-.7-4.7-1.9-10.8-2.6-13.5-1.1-4.4-1.4-4.7-1.9-2.5-.6 2.4-.7 2.3-2.9-1.9l-2.3-4.4-2.4 2.9-2.5 2.9.3-4.8c.3-5-.5-5.7-3.8-3.2-4.1 3.1-4.4 1.3-.5-4.2 4.3-5.9 5.1-9.2 2.6-11.3-1.2-1-1.7-.7-2.6 1.4-1.5 3.1-4.2 3.3-8.4.6-1.6-1.1-4-2-5.1-2-1.2 0-3.2-.9-4.5-2l-2.4-2.1 2.9-2.2c6.2-4.6 11.7-10.1 14.6-14.6 2.7-4 3.1-5.2 2.6-9.1-1.7-12.6-1.7-19.7-.2-26.3 4-17.2 13.5-26.4 30.5-29.8 5.2-1 8.2-1 15.2 0 4.9.7 9.7 1 10.8.6 1-.3 5.4-1 9.6-1.4 21-2.4 37.5 5.5 45 21.5l2.9 6.2 2.7-2.9c4.5-4.9 10.2-3.7 20.1 4.1 9.3 7.3 12 12.2 14.3 25.1.8 4.3 1.9 8.7 2.4 9.8 1.7 3.1 1.3 5.1-1.2 6.2-1.2.5-3.2 3-4.4 5.4l-2.2 4.5 2.1 5.7c1.1 3.2 3.1 11 4.5 17.3 3.7 17.4 3.8 18.4 2.4 17.5-.9-.5-1.2.1-1 2.1.3 3.1-.9 8-4.7 18.9-3.2 9-4.1 10.5-5.3 8.6-.6-1-1.1-.5-1.6 1.9s-1 2.9-1.6 1.9-.9-.5-1 1.6-.3 2.4-.6 1c-.3-1.1-1-2.6-1.6-3.3-.9-1.1-1.3-1.1-2.4.4-1.8 2.4-2.2 1.7-2.9-5.5l-.7-6.3-1.3 3.7c-1.8 5.3-2.1 5.2-2.8-.8-.4-2.9-2.1-9.1-3.7-13.8-2.5-6.8-3.2-10.5-3.6-19.7l-.6-11.2h-3.4c-3.3 0-3.5.2-2.9 2.6.6 2.3.4 2.5-1.5 1.9-2.3-.7-2.3 0-.3 6.2.3 1-1 .2-3.1-2-2-2.1-3.8-3.7-4-3.5-.1.2-.7 1.3-1.4 2.5-.6 1.2-1.7 2-2.4 1.7-1.5-.5-4.3 7.4-5.4 15.2l-.6 4.9-1.3-3-1.2-3-1.5 5.5c-.9 3-1.8 6.4-2 7.5-.3 1.1-.6-.7-.7-4l-.2-6-1.3 6-1.2 6-.3-4.5c-.2-2.5-.2-7.3-.1-10.8.3-6.7-.9-8.1-2.9-3.3-.6 1.6-2 3.1-3 3.4-2.5.6-4.8 4.5-5.6 9.4-.7 4.8-1.4 4.2 15.6 13.6 6.8 3.9 8.3 5.3 18.3 18.2 12.2 15.7 10.9 15 22.8 11.9 5-1.2 6.2-1.2 10 .2 7.9 2.8 20.9 5.4 26.7 5.4 8.9 0 18.9-3.3 36.5-12.1 8.9-4.5 23.5-11 32.5-14.5s17.5-7 19-7.8c3.8-2 4.9-1.2 18.8 13.3 11.1 11.5 21.3 20.3 32.6 28l4.8 3.2V0H0z"/><path d="M315.2 109.1c-4.5 10.1-4.1 13.4 2 16.5 4.2 2.2 4.8.9 4.7-9.1-.2-9.2-.9-13.7-2.5-14.2-.6-.2-2.5 2.9-4.2 6.8m7.9 32.4c.1 1.9 1.8 5.1 1.8 3.5 0-.8-.4-2.2-.9-3s-.9-1.1-.9-.5m24.1 25.7c-.1 2-.5 4.5-.8 5.5-.5 1.4-.4 1.5.5.7.7-.7 1.1-2.9.8-5.5-.3-4.2-.4-4.2-.5-.7M51 179.5c-4.9 4.9-5.3 5.8-4.2 7.5.6 1.1 1.2 2.7 1.2 3.5 0 .9 1.1 2 2.4 2.7 1.4.6 4.6 4.3 7.2 8.2l4.7 7-.7 26c-.4 14.2-1 26.5-1.5 27.3-1.1 2-2 .5-15.1-25.8l-11.2-22.4 1.2-7c.7-3.8 1.9-8.1 2.7-9.3 2.2-3.5.8-3.9-2.9-.8-7.6 6.1-13.6 10.4-18.5 13.2-4 2.2-5.3 3.5-5.3 5.2 0 1.2.7 2.5 1.5 2.8s3.7 3.6 6.5 7.4l5 6.7-1 23.4c-.5 12.9-1 25.1-1 27.1 0 7.6-2.7 4.3-12-14.3-4.9-10-9.2-18.4-9.5-18.7S0 279.1 0 316.3V384h187l1.1-2.7c.5-1.5 2.1-7 3.5-12.3 4.7-17.5 9.1-30.4 14.4-42 3.7-8 5.3-12.7 5.3-15.5-.1-2.2.3-9.4.8-16 .5-6.8.6-14.8.1-18.5l-.9-6.5-1.7 4c-5 11.3-8.2 16.6-12.4 20.7-4.6 4.5-41.1 29.4-52.2 35.6-3 1.7-10.2 4.7-16 6.7-5.7 2-12 4.5-14 5.5-1.9 1-6.5 2.7-10.1 3.8-5.8 1.8-7.6 1.9-13.9 1.1-11.7-1.7-25.9-7.5-29.9-12.3-2.2-2.7-.5-3.1 8.2-1.8 10.2 1.4 16.3.4 32.3-5.5 3.5-1.2 6.4-4.4 6.4-6.8 0-.2-2.4-.3-5.2-.2-4.8.2-5.3 0-5.6-2-.5-3.5 4.7-5.6 15-6.1 6.7-.3 9.8 0 13.7 1.4l5.1 1.8 3.9-3c2.1-1.6 9.6-7.6 16.6-13.4 16.4-13.5 22.8-18.5 29.1-22.6 4.9-3.1 5.2-3.6 5.8-8.6.3-2.9 2.3-10.9 4.3-17.7l3.6-12.4-3.1-2.6c-4-3.2-4-4.7-.1-8.2l3.1-2.8-2.1-2.8c-1.6-1.9-2.1-3.8-1.9-6.2.3-3.4.1-3.6-3.7-4.3-6.4-1.1-15.3-.9-16.1.4-.4.6.2 1.9 1.4 2.8 1.2 1 3 4.9 4.3 9.4 2.2 7.5 2.2 7.8.5 13.9-1 3.4-3.9 14.3-6.6 24.3-5 19-6.6 23.2-8.1 21.7-.5-.5-3.1-12.9-5.9-27.6l-4.9-26.7 3-6.7c1.6-3.8 4-7.6 5.2-8.6 2.2-1.7 2.2-1.7.2-3.3-1.6-1.2-4.6-1.5-14.6-1.3l-12.6.2 2.1 3.1c1.1 1.7 3 5.1 4.1 7.5 1.9 4.3 1.9 4.4-.4 29.5-2.7 30.7-3 32-5.8 28.3-2.1-2.7-18.3-47.8-18.3-50.9 0-4.6 2.6-13.7 4.4-15.7.9-1 1.6-2.9 1.6-4.4 0-2.2-1.6-3.7-10.3-9.5-9-6-19.3-11-20.4-9.8-.2.2.8 1.1 2.1 2 1.4.8 4.1 4.4 6 7.8l3.5 6.3-1 26.5c-.6 14.6-1.4 26.9-1.8 27.3-1.2 1.2-2.1-.4-13.6-25L73.7 210l.6-6.6c.4-3.8 1.5-8.1 2.6-10s1.8-4 1.5-4.8 0-1.7.6-2.1c.7-.4-3.7-3.2-10.5-6.6-6.4-3.3-11.8-5.9-11.9-5.9s-2.6 2.5-5.6 5.5m398 11.3c-4.2 2-9 4.2-10.8 4.9-3.6 1.3-4.2 4.1-1.8 8.8.8 1.5 1.7 5.8 2.1 9.5l.7 6.8-5 8.3c-2.7 4.6-8.3 14-12.3 20.8-4.1 6.9-8 12.6-8.8 12.9-1 .3-1.2-4-.9-24l.3-24.4 2.9-4.5c1.6-2.4 4.5-5.9 6.5-7.8l3.6-3.4-3 .7c-4.7 1.1-13.3 5.3-21.1 10.2-8.1 5-9.5 7.8-6.4 12.3 1 1.4 2.3 5.7 3 9.4l1.1 6.9-10.2 19.6c-5.5 10.8-10.9 20.5-11.9 21.6-1.8 1.8-1.8 1.7-2.4-4.5-.4-3.5-1-14.6-1.4-24.6l-.7-18.3 4.2-6.4 4.2-6.4-6.3-1.1c-8-1.4-20.3-1.4-21.1 0-.4.6.2 2 1.3 3.2 2.3 2.5 6.2 11.8 6.2 14.8 0 2.8-11 42.1-12.3 43.7-.7.9-1.3 1-2.1.2-.5-.5-3.5-10.7-6.6-22.5l-5.6-21.6 2.8-6.7c1.5-3.7 3.8-7.5 5-8.5 3.7-3.1.1-4.3-11.9-3.9-5.2.2-5.2.2-4.7 3 .4 2.2 0 3.6-1.9 5.8l-2.5 2.9 2.5 3.4c2.9 3.8 2.5 5.7-2 7.9-3.1 1.5-3.1 1.5-1.7 6.2 1.8 6 4 19.3 4 24.5 0 4.9.1 5 4.9 7.7 2.6 1.4 13.3 8.6 23.7 15.8 10.4 7.3 19.4 13.4 19.9 13.6.6.3 5.5.6 11 .8 11.3.3 18.9 2.4 22.9 6.1 2.9 2.7 3 4.2.4 5.8-1 .7-2.5.5-4.7-.6-2.7-1.3-3.3-1.4-3.7-.2-1.1 2.7 1.7 5.5 10 10 9.7 5.3 15.5 7.2 26.2 8.5 4.2.6 8 1.2 8.2 1.5.3.3-.1 1.7-.9 3.2-1.9 3.5-7.8 6-16.5 6.8-11.7 1.1-23.9-3.1-41.4-14.4-3.5-2.3-9.3-5-12.9-6.1-9.3-2.8-51.7-26.1-58.7-32.2-3.9-3.4-8.4-11.7-10.4-19.1-.7-2.6-1.6-5-2-5.2-.4-.3-1.1 3.5-1.5 8.3-.5 6.5-.2 11.2 1 17.7 1.3 7.2 1.4 9.3.4 11.2-1.1 2-.9 3 .8 6.6 10 20.2 13.1 28.2 18.7 49.2 1.9 7.2 3.9 14.2 4.5 15.7l1.1 2.8h187v-36.9c0-28.7-.3-37-1.2-37.4-1-.3-1-1.3 0-5 .8-3.4 1.2-14.6 1.2-38.4v-33.6l-2 1.8c-1.4 1.3-1.7 2.2-1 2.9.5.5 1 4.7 1 9.2 0 8-.1 8.3-3.7 12.6-9.1 10.8-28.4 32.7-29.3 33.3-1.8 1.1-1.1-6 2.9-27.4l4-21.2 5.2-4.7c2.8-2.6 6.4-5.3 8-6 4.5-1.9 3.5-4.2-3.5-9-3.5-2.4-9.4-7-13.1-10.4-4.3-4-7-5.7-7.6-5.1s-.5 1.4.6 2.3 1.5 3.3 1.5 9.4v8.2l-10.4 15c-14.3 20.5-17.6 24.8-18.7 23.7-.6-.6-.4-7.6.6-18.4 2.9-33 2.1-29.6 8.3-36.1 3-3.2 6.1-5.8 6.9-5.8.7 0 1.9-1.2 2.6-2.8.6-1.5 1.7-3.2 2.4-3.7.9-.7-.1-2.6-3.8-7.3-2.8-3.4-5.4-6.2-5.7-6.1-.4 0-4.1 1.7-8.2 3.7"/></svg>