<svg xmlns="http://www.w3.org/2000/svg" width="682.667" height="512" version="1.0" viewBox="0 0 512 384"><path d="M0 101.5V203l3.8-2c11.8-6.6 25.9-17.1 39-29.4 10.7-10.1 13-11.1 17.5-8.1 1.2.8 9.4 4.7 18.2 8.8s22.7 11.3 31 16.1c8.2 4.7 17.2 9.5 20.1 10.5 12.4 4.7 23.9 5 40.3 1l8.3-2.1 7.9 2.6c4.3 1.4 8.6 2.6 9.6 2.6 1.8 0 6.5-5.6 15.4-18 4.9-6.9 10.7-11 20.7-14.9 2.9-1.2 6.4-2.9 7.8-3.8 2.4-1.5 2.6-2 1.9-6.7-.7-5.9-3-9.1-4.5-6.6-.8 1.2-1 .9-1-1.1 0-1.5-.6-3.2-1.4-3.9-1.6-1.3-1.8-.6-3.5 11.5-.5 3.6-.9 4.7-1 2.8-.1-3.4-2.1-5.7-2.1-2.4 0 1.1-.5 2.3-1 2.6-.7.4-1-1.7-.9-6.4.1-4 0-7.4-.3-7.6-.3-.3-1.3 3.4-2.4 8.2l-1.8 8.8-.7-6.5c-.9-8-4-21.9-4.6-20.3-.8 2.3-2.4 1.4-3.9-2.2-1.7-4.1-2.7-4.4-4.2-1-1.9 4.1-3.2 3-2.5-2 .6-4.8.2-5.2-3.7-3-4.7 2.7-5 1.5-1-3.8 4.6-6 5.7-9.1 4-11.2s-2.5-1.9-3.8 1c-1.4 3-3.6 3.2-8 .5-1.8-1.1-4.3-2-5.6-2-1.2 0-3.1-1-4.2-2.1-1.9-2.1-1.9-2.2 2-5.3 6.7-5.3 9.3-8 13-13.5 4-5.9 4.3-7.6 2-14.1-3.8-10.9 2-33.3 10.8-41.7 8.3-7.9 18.5-10.8 34.2-9.8 7 .4 14.1.2 19.7-.6 22.1-3.2 39.6 5 47.7 22.1l2.6 5.7 2.4-2.9c3.6-4.3 9-3.9 16.8 1.1 10.7 7 16.4 15.6 17.9 27.1.4 3 1.3 7 2.1 8.9 1.9 4.6 1.8 6.9-.5 7.6-1 .3-3 2.8-4.4 5.6-2.4 5-2.4 5.1-.7 9.7 1 2.6 2.5 8.1 3.4 12.2s2.5 11.2 3.5 15.8c1.6 6.9 1.6 8 .4 7-1.3-1-1.5-.7-1.2 2.7.5 7.4-6.8 28.9-9.5 27.9-.7-.3-1.8 1.6-2.5 4.1-1.4 4.7-3.1 5.2-3.1.9 0-1.3-.4-2.4-1-2.4-.5 0-1-.8-1.1-1.8 0-.9-.6-.1-1.3 1.8-1.5 4-1.9 3.3-3.2-5.5l-.7-5-.9 3.2c-.5 1.8-1.2 3.3-1.6 3.3s-1.4-3.5-2.3-7.8c-.9-4.2-2.7-10.4-3.9-13.7-1.8-4.5-2.5-8.7-2.8-16.8l-.4-10.7h-3.5c-3.3 0-3.5.2-2.9 2.6.6 2.2.4 2.5-1.4 1.9-2.3-.7-2.4-.3-1 4.5l.9 3.5-3.5-3.8c-2-2.1-3.7-3.7-3.9-3.5-.1.2-.7 1.3-1.4 2.5-.6 1.2-1.7 2-2.4 1.7-1.5-.5-4.3 7.3-5.3 14.9-.7 4.6-2.4 5.6-2.4 1.4 0-3.8-1.7-.5-3.3 6.3l-1.5 6.5-.2-6-.3-6-1.2 6c-1.1 5.3-1.3 5.7-2 3.3-.4-1.5-.5-6.6-.2-11.3.6-8.7-.1-9.9-2.3-4.5-.7 1.6-1.8 3-2.5 3-3.8 0-8 11.4-5.5 14.5.7.8 5.8 3.9 11.3 6.7 6.3 3.3 11 6.6 12.8 8.8 1.6 1.9 6.7 8.4 11.5 14.5 9.7 12.3 8.8 11.9 20.5 8.9 5-1.2 6.2-1.2 10 .2 7.3 2.6 21.1 5.4 26.9 5.4 8.7 0 18.7-3.4 36.3-12.1 8.9-4.5 23.9-11.3 33.2-15.1 9.4-3.8 18.2-7.5 19.8-8.1 2.7-1.1 3.1-.8 16.5 12.8 11.7 12 29.4 26.8 36.2 30.5 2 1.1 2 1 2-108.5V0H0z"/><path d="M315.6 108c-5 10.3-4.8 13.5 1.1 17.1 2.4 1.5 3.8 1.8 4.5 1.1 1.4-1.4.6-21-.9-23.7-1-1.7-1.5-1.1-4.7 5.5m8 35.5c.8 3.7 1.4 4.5 1.4 1.9 0-1-.5-2.6-1-3.4-.8-1.1-.9-.7-.4 1.5m23.7 25.5c0 3 .2 4.3.4 2.7.2-1.5.2-3.9 0-5.5-.2-1.5-.4-.2-.4 2.8M50.5 180c-5.6 5.6-5.8 6-4.2 7.8.9 1 1.7 2.6 1.7 3.5s.9 2.1 2 2.7 4.2 4 7 7.7l5 6.6v26.1c0 14.6-.4 26.8-1 27.6-1.4 2.2-2.4.6-15.6-24.9l-11.7-22.4 1.2-8c.6-4.4 1.8-8.8 2.6-9.7s1.2-1.9.9-2.3c-.3-.3-4.1 2.2-8.3 5.6s-10.5 7.8-13.9 9.7c-4.6 2.6-6.2 4.1-6.2 5.7 0 1.3.8 2.4 1.9 2.8 1.1.3 4 3.4 6.5 6.7l4.6 6.2v27.2c0 27.4-.5 30.9-3.4 26.8-.7-.9-3.7-6.5-6.7-12.3s-7.1-13.7-9.1-17.6l-3.7-7-.1 67.7V384h187l1.1-2.7c.5-1.5 2.1-7 3.5-12.3 4.9-18.2 9.5-31.6 14.5-42 4.7-9.7 6.2-15.1 4.7-17.5-.3-.6-.2-3.3.2-6 1.6-10.4 1.7-33.7.1-31.9-.5.5-2.3 4.2-4 8.2-5.8 13.9-9.6 17.4-38.6 36.3-23 15-28.2 17.9-37.7 21.3-5.1 1.8-14 5.2-19.8 7.6-10.1 4.1-10.8 4.2-18.5 3.7-12.3-.9-33.1-9.6-32.3-13.5.3-1.2 1.2-1.6 3.3-1.4 1.7.2 7.1.4 12 .5 7.9.2 10.2-.2 18.8-3.1 10.3-3.6 12.7-5.1 12.7-8.3 0-1.6-.5-1.8-2.7-1.3-1.6.4-3 .7-3.3.6-3.4 0-4-.4-4-2.6 0-3.3 4.8-5.4 14.6-6.2 7.6-.6 10.1-.1 17.5 3 1.5.7 12.8-7.9 33.3-25.2 2.8-2.3 9.2-7.2 14.3-10.8 8-5.7 9.3-7 9.3-9.4 0-3.9 2.5-14.2 5.5-23.2s3.1-9.2.2-10.7c-1.3-.7-2.9-2.1-3.5-3.2-1.1-1.8-.9-2.4 1.8-4.9 3.4-3.2 3.5-3.7 1.5-6.4-.8-1.1-1.5-3.6-1.5-5.7 0-4.3-.6-4.6-11.6-5.5-8.1-.8-9.9.4-6.5 4 2.3 2.4 6.1 12.6 6.1 16.2 0 1.3-1.2 7.4-2.6 13.6-7.6 32.5-9.2 39-9.9 39.6-1.1 1.1-3.2-2.5-4-6.6-.3-2-2.6-12.8-5.1-23.9-2.4-11.2-4.4-21.3-4.4-22.6 0-3.6 4.6-14.6 6.9-16.5 4.1-3.3 1.4-4.3-13.3-4.8-7.5-.2-13.6-.2-13.6 0s1.6 3 3.5 6.2c2 3.3 3.9 7 4.2 8.3.6 2.4-2.2 47.8-3.3 53.4-.3 1.5-1.1 2.6-1.7 2.4-1.7-.5-20.6-47.6-20.6-51.4-.1-5.2 2-13.7 3.9-15.8 3.4-3.6 1.4-7.8-6-13.1-7-4.9-19.5-11.4-22-11.4-1.2.1-1.2.3.3 1.1.9.5 3.5 3.7 5.7 7l4 6V230c0 26.4-.3 30.5-2.1 29.4-.8-.5-11.3-21.4-20.9-41.9-3.7-7.8-3.7-8.2-2.9-14.5.5-3.6 1.5-7.4 2.1-8.5s1.5-3.5 1.9-5.3c.7-3.2.7-3.3-6.1-6.6-3.7-1.9-8.7-4.5-11.2-6l-4.4-2.6zm402.9 8.4c-1.1.8-5.6 2.9-10 4.8-7.5 3.1-7.9 3.5-7.9 6.4 0 1.7.5 3.7 1.2 4.5.6.8 1.5 4.9 1.9 9.1l.7 7.7-9.3 15.8C415.7 261 413.8 264 412.7 264c-.6 0-.8-8.7-.5-24.8l.5-24.9 3.7-5.6c2.1-3.1 5-6.6 6.4-7.7l2.7-2.1-3 .6c-4.5.9-13.1 5-21.2 10.1-7.9 4.9-9.3 7.7-6.1 12.4 1 1.4 2.2 5.5 2.8 9.3l1 6.7-7.1 13.8c-13.8 26.5-16.1 30.3-17.4 29-.3-.2-.9-11.2-1.5-24.4l-1-23.9 4.5-6.6c2.5-3.6 4.5-6.8 4.5-7 0-.6-.7-.6-15-1.5-9.8-.6-11.7-.4-12.8.9s-1 1.7.6 2.6c1.2.6 3.2 4.2 4.7 8.2l2.7 7-5 15.7c-2.8 8.6-5.9 18.2-6.8 21.3-2.1 6.8-4.1 10-5.2 8.2-.5-.7-3-11.4-5.6-23.9l-4.9-22.6 2.9-6c1.6-3.3 4-6.9 5.3-7.9 4.2-3.4.8-4.6-11.6-4.1-5.2.2-5.2.2-4.7 3 .4 2.1-.1 3.6-1.9 5.8l-2.6 3 2.4 3c1.3 1.6 2.4 3.4 2.5 4.1 0 1.1-4.1 4.8-6.2 5.5-.7.3-.7 1.6.1 4.3 2 6.9 4.1 19.8 4.1 25.2v5.3l4.8 2.4c2.6 1.3 13 8.2 23.2 15.3 10.2 7.2 19.5 13.5 20.8 14.2 1.5.8 4.2 1 8.1.5 8.1-.9 21.9 2.7 26.3 6.8l3.1 2.9-2 2c-2 2-2.2 2-5.3.4-3.8-2-4.7-1.4-3.4 2.2 2 5.9 26.3 16.3 37.9 16.3q8.4 0 4.2 5.1c-3.4 4.1-6.3 5.1-15.7 5.7-6.8.4-10.2 0-16.5-1.7-8.3-2.3-10.3-3.3-24.3-11.9-4.6-2.8-10.7-5.8-13.5-6.6-9.5-2.8-50.6-25.4-58.5-32.2-4.6-3.9-9.4-12.3-11.3-19.9-1.5-5.7-2.5-4.5-3.5 4.2-.4 4.1 0 9.7 1.1 16.8 1.4 8.5 1.5 10.9.5 11.5-1.5.9-.8 3.2 3.7 12.5 6.3 12.7 10.4 23.8 14.8 40 2.4 8.8 4.8 17.2 5.4 18.8l1.1 2.7h187v-75.7c0-69.2-.2-75.6-1.6-74.1-1.3 1.2-1.4 2-.5 3.6 1.8 3.3 1.4 14.2-.7 17.9-.9 1.7-4.1 6-7.1 9.5-2.9 3.5-9.4 11.1-14.4 17-7.8 9.3-11.7 12.7-11.7 10.1 0-.4 1.8-11.3 4.1-24.2l4.1-23.6 5.6-5.3c3-2.9 6.7-5.8 8.1-6.5 4.2-2 3.6-3.9-2.9-8.1-3.3-2.1-9.1-6.7-12.9-10.2-6.4-5.9-9.1-7.6-9.1-5.6 0 .4.5 1.3 1.1 1.9s1.3 4.6 1.6 8.9c.6 9 2.2 5.8-16 32.3-10.8 15.6-12.7 17.9-13.7 16-.7-1.3.9-24.1 2.9-41.2.8-7.1 1.3-8.3 4.8-12.5 2.2-2.6 5.5-5.7 7.4-7s3.6-2.9 3.8-3.5c.2-.7 1-2 1.9-2.9 1.3-1.6 1-2.2-2.9-7-6.2-7.6-6.9-7.9-10.5-5.4"/></svg>