<svg xmlns="http://www.w3.org/2000/svg" width="682.667" height="512" version="1.0" viewBox="0 0 512 384"><path d="M0 102c0 56.1.3 102 .6 102 1.1 0 13.5-8 19.9-12.8 3.3-2.5 11.5-9.7 18.2-15.9 13.3-12.2 14.9-13 20.7-9.4 1.7 1.1 9 4.5 16.1 7.6 13.6 5.9 20.2 9.3 37.5 19.4 19.7 11.5 33.1 13.6 53.8 8.6l10.4-2.5 8.5 2.7c6.2 1.9 9 2.3 10.2 1.6.8-.5 4.4-4.8 7.8-9.4 12.2-16.3 12.8-16.8 24.8-22.5 13.4-6.3 14.1-7 12.5-12.1-1.8-5.6-2.6-6.8-4.4-6.7-.9.1-1.6-.6-1.6-1.6s-.6-2.3-1.4-2.9c-1.8-1.5-2.6.4-2.7 7.2-.1 2.9-.5 6.5-.9 8.2-.7 2.9-.7 2.9-1.5-1.5-.8-4-1-4.2-1.6-2-.6 2-.7 1.6-.8-2-.2-5.5-1-9-2.3-9-.5 0-.7.4-.4.9s-.2 4.2-1.2 8.2l-1.8 7.3-1.3-8.9c-1.6-11.8-3.2-18-4.1-16.5-.9 1.4-3.3-1.8-4.5-5.8-.9-3-2-2.8-3.5.8-1.7 4-2.5 3-2.1-2.6l.3-4.5-4.2 2.1c-2.3 1.2-4.4 1.9-4.7 1.6s1-2.3 2.9-4.5c4.9-5.8 6.4-8.9 5.2-10.9-1.7-2.6-3.3-2.5-4.5.2-1.5 3.1-3.3 3.3-7.7.6-1.8-1.1-4.3-2-5.6-2s-3.4-.9-4.7-2l-2.4-2 3.5-2.7c6.6-5.1 13.5-12.8 15.8-17.5 2-4.4 2.1-4.9.7-8.9-4.3-12 .5-34.1 9.3-43.2 8.9-9.2 14.7-10.9 38.2-11.4 10.2-.2 22.3-.5 27-.6 12.7-.3 21.5 2.7 29.1 10 3.3 3.1 7.2 8.1 9 11.7l3.2 6.2 2.8-2.8c5.6-5.6 14.3-2.7 25.1 8.4 5.8 6 8 10.6 9.7 20.2.7 3.8 1.8 8.5 2.6 10.3 1.6 3.8 1.1 6-1.6 6.8-1 .4-3 2.9-4.3 5.6l-2.3 5 2.2 6.2c1.3 3.4 3.5 12.3 5 19.7s2.9 13.9 3.3 14.4c.3.5-.2.6-1.3.2-1.6-.6-1.7-.2-1.2 2.9.3 2 .2 4.6-.2 5.8-.5 1.2-1.9 5.8-3.2 10.2-2.7 9.4-4.8 13.3-6 11.3-.6-.9-1-.3-1.5 1.9-.4 1.8-1 3-1.5 2.7s-.9.5-1 1.8c0 1.8-.3 1.6-1.3-1.2-.9-2.4-1.5-3-1.9-2-.3.9-.6.2-.7-1.5-.1-2.9-.2-2.9-1.4 1l-1.3 4-.7-4c-.4-2.2-1-5.4-1.3-7l-.6-3-.9 3.3c-1.1 4.2-2.4 3.4-3.2-1.9-.4-2.4-2.3-9-4.2-14.8-3.8-11.5-4-13.8-3.4-39.1.3-10 0-14.1-1-16-1.3-2.4-1.4-2.3-5.2 5.9-4.5 9.9-4.3 12.2 1.7 16.1l3.8 2.5-3.6.3c-3.4.3-3.6.5-3 3.3.4 2.2.2 2.9-.8 2.7s-1.3.6-1.1 2.7l.3 3-3.5-3.4-3.5-3.4-1.2 2.6c-1.3 2.9-2.5 3.4-3.1 1.5-.7-1.9-4.8 11.1-4.8 14.8 0 4-1.6 5.3-2.6 2.2-.6-1.8-1.3-.4-3.1 6.7l-2.2 9 .4-8.5c.3-8.2.3-8.3-.7-3-1.7 9.5-2.3 8.9-2.8-3l-.5-11.5-1.9 4.2c-1 2.4-2.2 4-2.6 3.8-2.7-1.7-8.2 10.3-6.3 13.5.6.8 5.3 3.8 10.6 6.5 11.7 6.2 13.5 7.8 25.2 23 10.3 13.5 9.5 13.1 21.7 9.8 4.5-1.2 6.4-1.3 8.5-.4 6.3 2.5 21.3 5.3 28.8 5.4 10.5 0 19.3-3 39-13.3 8.3-4.3 20.8-10.1 27.8-13 7.1-2.8 15.1-6.2 17.8-7.5 2.6-1.4 5.8-2.5 6.9-2.5 1.3 0 7.1 5.1 16.3 14.3 7.8 7.9 16.7 16.1 19.7 18.3s7.9 5.7 10.8 7.8l5.2 3.8V0H0z"/><path d="M323.1 144.6c0 1.1.3 1.4.6.6.3-.7.2-1.6-.1-1.9-.3-.4-.6.2-.5 1.3M347 169c0 3.5.3 6 .7 5.7.7-.8.5-10.8-.2-11.6-.3-.2-.5 2.4-.5 5.9m-294.1 8.4c-.8.6-3.3 3.2-5.6 5.8l-4.2 4.6 1.9 3.6c1 2 3 4.6 4.5 5.7 1.4 1.2 4.4 4.6 6.7 7.7l4.1 5.5.5 27.3c.4 23 .3 27.4-.9 27.4s-8.5-12.6-22.9-39.4c-4.2-7.8-4.3-7.9-3.6-15.5.4-4.2 1.4-8.6 2.2-9.9 3.1-4.8 0-4-6.6 1.7-3.7 3.3-10 7.8-13.9 10.1-7.7 4.6-9 7.2-4.6 9.2 1.4.6 4.4 3.6 6.7 6.7 3.8 5 4.4 6.4 4.9 12.6 1 11.2.5 48.5-.6 48.7-.5.2-5.3-7.5-10.6-17S1 254.6.6 254.3c-.3-.4-.6 28.7-.6 64.5V384h187l1.1-2.8c.6-1.5 2.8-9.4 5-17.5 4.2-15.6 7.3-24.2 13.5-37.2 3.1-6.5 3.9-9.2 4-14.5.1-3.6.5-11.5.9-17.5.4-6.1.4-13.8 0-17l-.7-6-1.6 3.5c-10 22.4-8.5 21-47.9 46.7-18.2 11.9-22.1 14-37.3 19.6-5.2 2-12.4 4.8-16 6.4-5.7 2.4-7.7 2.8-15.6 2.7-7.2-.1-10.5-.7-16-2.8-8.9-3.4-12.3-5.1-15.9-8.1-2.3-1.8-2.7-2.6-1.8-3.6.9-.9 2.5-.9 7.4 0 7.8 1.6 13.5.8 27.2-3.6 8.7-2.8 11-3.9 11.9-5.9 1.6-3.5 0-4.7-4-3.2-2.7 1.1-3.4 1-4.8-.4-3.9-3.9 2-7.5 13.8-8.4 5.5-.5 8.4-.2 11.8 1.1 7.9 2.9 8.2 2.9 13-1.2 5.6-4.9 23.8-19.7 29.6-24.1 3.4-2.6 4.2-3.7 3.5-5-.5-1-4.3-12.9-8.6-26.5l-7.7-24.8 1.8-6.7c1-3.8 2.8-7.9 4.2-9.4 2-2.1 2.3-3 1.3-4.1-1.4-1.8-11.5-2.7-21.4-2l-7.8.6 1.9 2.1c1 1.2 3.1 4.3 4.7 7l2.8 5-.7 26.4c-.3 14.6-1 27.1-1.4 27.9-1.2 2-3.1-.6-7.4-10.2-2-4.4-6.6-14.7-10.3-22.8-6.6-14.7-6.6-14.9-6-21.3.4-3.5 1.6-8.1 2.6-10.1 3.5-6.9 2.9-8.4-6.5-14.7-7.5-5-20.6-11.9-21.4-11.1-.2.1.8 1.5 2.2 3s3.9 4.8 5.5 7.4l2.9 4.6.2 26c.3 32.7.5 30.5-1.9 28-1-1.1-7.2-12.1-13.7-24.5l-11.7-22.5 1.1-7.9c.6-4.3 1.7-8.5 2.4-9.4.7-.8 1.3-2.9 1.3-4.6 0-3-.5-3.4-11.1-8.7-8.5-4.2-11.5-5.3-12.5-4.5m394.7 13.2c-4.9 2.4-9.5 4.4-10.1 4.4-1.5 0-1.3 5.7.2 8.5.6 1.1 1.6 5.2 2.3 9.2l1.2 7.2-11.6 21.3c-6.3 11.7-12.2 22.2-13 23.3-3.3 4.3-3.8.2-3.1-26.4l.7-25.4 4.1-5.6c2.3-3.1 5-6.4 6.2-7.3 5.9-5-9.8 1.3-21.1 8.4-6.9 4.3-8.3 5.7-8.7 8.2-.3 1.9.1 3.8 1.1 4.8.8 1 1.9 5.3 2.5 10l1 8.3L388 261c-6.1 11.8-11.7 22.1-12.3 22.8-2.1 2.6-2.6-2-2.6-27.4l-.1-25.2 4.6-6.2c2.5-3.4 4.3-6.4 4-6.7s-6.5-.8-13.9-1.1c-12.2-.4-13.4-.3-14.1 1.3-.4 1.2.1 2.6 1.3 3.9 2.1 2.2 4.3 10 4.3 15.1 0 1.6-3.4 11-7.6 20.8s-7.6 18.2-7.6 18.6c0 .5-1.2 2.5-2.6 4.6s-2.1 4.1-1.6 4.4 8.6 5.9 17.9 12.4l17.1 11.7h8.7c14.3 0 29 5.6 27.2 10.4-1 2.5-3.3 3-6.7 1.3-3.6-1.8-4.6-.7-2.8 3 1.6 3.1 14.5 10.6 23.3 13.4 3.3 1 9.3 2.2 13.3 2.5 4 .4 7.5 1 7.8 1.5.8 1.3-3.8 6-7.3 7.5-1.7.8-6.9 1.7-11.5 2-13 .9-21.4-1.8-38.9-12.8-4.8-3-12.1-6.7-16.3-8.2-8.6-3-13.2-5.4-37.9-19.5-23.9-13.5-25.9-15.6-31.2-31.1l-2.2-6.5-.9 5c-1.2 6.7-.8 16.5.9 24.5 1.4 6.3 1.3 9.5-.3 8.5-1.5-.9.2 3.9 4.7 13.5 7 14.8 10 22.8 13.7 37.2 2 7.4 4.2 15.2 4.9 17.3l1.4 4 93.7.3 93.6.2v-63.2c0-34.7-.3-62.9-.6-62.6-.3.4-6.5 9.1-13.7 19.4-7.3 10.3-13.8 18.9-14.4 19.2-1.9.5-1.6-4.8 1.1-30.1l2.5-21.8 4.7-5.6c2.7-3.1 6.1-6.1 7.6-6.7 5-1.9 4-4.6-3.7-10-3.8-2.6-9.8-7.2-13.2-10.2-6.6-5.8-9.4-7-6.7-2.9 1 1.5 1.8 5.5 2.1 10.2l.5 7.8-12.7 21c-12.9 21.5-14.9 24.4-16.2 23.2-.3-.4-.1-12.3.6-26.5 1.1-25.2 1.2-25.8 3.8-29.5 2.9-4.2 9.8-10.7 11.3-10.7.6 0 1-.8 1-1.7s.7-2.5 1.7-3.5c1.5-1.7 1.3-2.1-2.9-7.5-2.5-3.2-5.4-5.9-6.4-6-1.1-.1-5.9 1.8-10.8 4.3"/><path d="M171.8 212.8c-3.4.4-3.5 1.2-.4 4.1 1.3 1.2 3.5 5 5 8.4l2.6 6.2-3.8 26.3c-2.1 14.4-3.6 26.2-3.4 26.2s3.2-1.9 6.7-4.1l6.2-4.1 1.1-7.8c.6-4.2 2.5-12 4.2-17.2 3.6-11.3 3.6-11.5 1-12.3-1.1-.4-2.8-1.8-3.7-3.2-1.6-2.4-1.6-2.6.3-4.2 4.3-3.5 4.8-5 2.8-7.2-1.1-1.3-1.9-3.6-1.9-6 0-2.8-.4-3.9-1.5-4-.8 0-4-.4-7-.7-3-.4-6.7-.6-8.2-.4m158 3.9c-4.6.4-4.7.5-4.2 3.2.4 2.1-.1 3.5-1.9 5.7l-2.5 2.9 2.4 3.3c3.6 4.7 2.8 6.6-4.4 9.8-.2.1.6 3.7 1.7 8 2.5 10 4 21.3 3.4 24.7-.3 1.5-.1 2.7.4 2.7s3.5 1.6 6.8 3.5c3.2 2 5.9 3.4 6.1 3.2s-.3-5.5-1-11.8c-.8-6.3-2-17.3-2.6-24.6l-1.2-13.2 3.3-5.8c1.8-3.2 4.4-6.8 5.8-8.1 1.3-1.2 2.2-2.4 2-2.6-.8-.8-9.4-1.3-14.1-.9"/></svg>