<svg xmlns="http://www.w3.org/2000/svg" width="682.667" height="512" version="1.0" viewBox="0 0 512 384"><path d="M0 103v103.1l8.7-6c11.6-7.8 14.7-10.3 28.1-22.9 6.3-5.9 12.2-11.1 13.3-11.6 1.4-.7 3-.4 5.7 1.2 2.1 1.2 10.8 5.2 19.5 9 8.6 3.8 21.6 10.4 29 14.5 23.7 13.5 29.2 15.3 46.1 14.4 6.1-.3 14.3-1.5 18.3-2.5l7.2-2 8.3 2.4c4.5 1.3 8.7 2.4 9.4 2.4s5.6-5.7 10.8-12.8c10.4-13.8 14.5-17.2 25.7-21.7 6.3-2.5 10.9-5.6 10.9-7.4 0-3.5-4.6-11.8-5.8-10.6-.3.3-1.2-.9-1.9-2.6s-1.7-2.8-2.2-2.5c-.4.3-1.1 4.5-1.5 9.4-.9 10.5-2.5 14.4-2.7 6.2l-.1-5.5-1.3 4-1.4 4 .1-5c.1-8.2-.2-10.6-1.1-10.1-.5.4-1.2 2.7-1.6 5.4-.4 2.6-1.3 6-2 7.7-1.3 3-1.3 2.9-1.4-2.5-.1-8.5-3.1-22.2-4.7-21.6-.8.3-2-1-3-3.5-1-2.1-2-3.9-2.3-3.9s-1.5 1.5-2.6 3.3l-2 3.2-.3-5.1-.3-5.2-3.9 1.9c-5.4 2.6-5.7 2.4-2-1.8 3.5-3.9 7.2-11.2 6.4-12.5-1-1.6-4.2-.8-5.6 1.4l-1.5 2.3-5.1-2.4c-2.7-1.3-5.5-2-6.1-1.7-1.2.8-6.1-2.1-6.1-3.7 0-.5 3.5-4.2 7.8-8.2 8.9-8.4 12.8-14.9 11.7-19.8-.4-1.8-.9-7.7-1.2-13.1-1-21.3 7.7-35.8 25.2-42.1 7.2-2.5 57.2-3.2 65.5-.9 10.7 3 18.8 10 24.4 21.1l2.6 5.1 3.4-3.4c2.9-2.9 3.8-3.3 6.7-2.8 5.8 1.1 11.1 4.4 17.5 10.9 7.1 7 9 10.8 10.9 21.7.8 4.3 1.9 8.6 2.4 9.7 1.8 3.2 1.3 5.1-1.9 6.9-1.6.9-3 2.2-3 2.7 0 .6-.9 2.8-1.9 4.8-1.7 3.4-1.8 4.2-.6 7.1 1.6 3.8 4.7 16.4 7 28.3.9 4.6 1.9 9.1 2.2 10 .6 1.6.5 1.7-1.2.3s-1.8-1.3-1.3 2c.3 1.9.2 4.4-.2 5.5s-1.8 5.6-3.1 10c-3.2 11.3-4.5 12.3-4.3 3.2l.3-7.2-.9 6.5c-.4 3.6-.6 7.6-.3 9 .4 2.4.3 2.4-1.1.7-1.4-1.8-1.5-1.7-1.8 1-.2 1.5-.7 2.7-1.3 2.5-.5-.2-1.3.7-1.7 2-.6 2.1-.6 2.1-.7.2-.1-2.2-2.7-2.8-4.8-1.2-.9.7-1.4-.7-1.9-5.4-.7-6.2-.8-6.3-2.9-.3-.6 1.5-1.4-.5-3-7-1.3-5-3.5-12.3-4.9-16.3-2.1-6-2.6-9.2-2.6-17.2v-9.8l-3.6-.4-3.6-.4.7 3.4c.6 3 .4 3.4-1.1 2.8-1.4-.5-1.6-.2-1 2.5.8 3.9-1.1 3.5-4.1-1l-2.2-3.2-1.6 3.2c-1.3 2.4-1.9 2.8-2.5 1.8-.7-1-1.2-.6-2 1.6-2 5.2-4 13.8-4.1 17.5l-.1 3.5-1.2-3.4c-1.5-4.2-1.9-3.7-4 6.1-1 4.3-1.9 7.8-2.2 7.8-.2 0-.2-3.3.1-7.3.3-4.8.2-6.4-.4-4.7-.5 1.4-1 4.3-1.1 6.5l-.2 4-1-3.5c-.5-1.9-.8-7.4-.6-12.3.2-4.8.3-8.7.1-8.7-.1 0-1.2 1.8-2.3 4s-2.6 4-3.4 4c-2 0-4.1 3-5.5 7.8-1.5 5.3-1.7 5.1 12.2 12.3 10.4 5.5 10.7 5.7 24.9 23.9 4.5 5.8 8.3 10.7 8.4 10.9.2.2 4.6-.6 9.8-1.9 8.9-2.1 9.6-2.2 13.8-.6 6.9 2.6 18.3 4.6 25.9 4.6 10.1 0 18.9-2.6 31.9-9.4 6.3-3.3 14.6-7.5 18.4-9.4 7.8-4 39-17.1 42.2-17.9 1.7-.4 4.7 2.1 14.5 11.9 6.8 6.9 15.6 14.9 19.4 17.9 7.7 6 16 11.9 16.9 11.9.3 0 .6-48.2.6-107V0H0z"/><path d="M314.2 109.5c-3.2 7.5-3.8 10.1-2.4 12.1.8 1.3 7.3 5.4 8.5 5.4.4 0 .7-4.8.7-10.6 0-9.7-.9-14.4-2.8-14.4-.4 0-2.2 3.4-4 7.5m8.6 36.2c.5 2.1.7 2.3 1 .9.2-1 0-2.2-.6-2.8s-.7 0-.4 1.9M50.9 179.3c-.9.7-3.5 3.4-5.8 6.1-3.8 4.4-4.1 5-2.6 6.5.8 1 1.5 2.5 1.5 3.3 0 .9 1.1 2.3 2.5 3.2s4.6 4.4 7 7.8l4.5 6v26.7c0 14.6-.4 27.2-.8 27.9-1.4 2.1-3.2-.8-14.7-23.3-5.9-11.6-11.2-21.6-11.7-22.3-1.3-1.5.6-14.1 2.8-18.6.8-1.6 1.2-3.2.9-3.5-.7-.6-1.4-.2-9.8 7-3.7 3-9.3 7.1-12.6 9-6.5 3.7-7.4 6-3.3 8.7 1.3.8 4.3 4 6.6 7.1l4.3 5.6.7 24.5c.7 23.7.3 31-1.5 31-1.2 0-4.3-5.2-11.9-19.5-3.4-6.6-6.4-12.2-6.6-12.4S0 287.6 0 321.8V384h187.6l4.3-16.3c4.6-16.8 9.7-31 15.5-42.5 2.6-5.2 3.3-7.7 3-11.2-.1-2.5.1-9.2.6-15 .9-10.8.3-26-1-26-.4 0-1.1 1.2-1.5 2.7-.3 1.6-2.4 6.5-4.5 10.9-5.5 11.4-7.5 13.1-42.6 36-18.8 12.3-24.7 15.5-34.4 19-3.6 1.2-11.7 4.4-18 7-11.2 4.5-11.7 4.6-19.4 4-7.4-.5-16.1-3.1-24.6-7.4-3.9-2-9-6-9-7.2 0-.4 5.7-.7 12.8-.6 12 .1 13.3-.1 22.5-3.3 5.4-1.8 10.7-4.3 11.8-5.4 2.4-2.6 2.1-5.3-.6-4.9-1.1.2-3.3.5-5 .5-2.6.2-3-.2-3-2.3 0-4.1 5.2-6 16.3-6 7.1 0 10.2.4 13 1.9 2 1 4.3 1.6 4.9 1.4 2.8-1 41.8-33.5 41.5-34.6-.2-.7-4.4-11.8-9.3-24.8l-9-23.7 1.5-7.2c.9-4.6 2.3-8.1 3.8-9.7l2.3-2.5-2.4-1.9c-2.5-2.1-10.1-2.5-21.8-1.3l-5.9.6 4.4 6.7 4.4 6.6-.6 24.5c-.7 25.6-1.2 31-2.8 31-.9 0-9-16.4-18.6-37.7l-5.1-11.3 1.3-7.5c.7-4.1 2-8.3 2.9-9.3 1-1 1.6-3.2 1.4-5.1-.2-2.8-1.2-3.9-9-9.3-8.7-5.9-20.3-11.5-21.6-10.3-.3.4.1 1.2.9 1.8.9.7 3.5 3.9 5.8 7.1l4.2 5.9-.1 20.6c-.2 23.1-.9 34-2.4 34.4-.5.1-6.3-10.4-12.7-23.3L70 215.5l.5-6.8c.3-3.8 1.2-8.5 2.1-10.5 3.4-7.9 3.2-8.2-8.4-14.2-12.7-6.6-11.4-6.2-13.3-4.7m286.2.3c0 1.1.3 1.4.6.6.3-.7.2-1.6-.1-1.9-.3-.4-.6.2-.5 1.3m110.5 10.5c-9.2 4.5-10 5.1-10 7.8 0 1.6.6 3.6 1.2 4.4.7.8 1.9 5 2.8 9.3l1.6 7.9L433 242c-11.3 25-12.7 27.7-14.1 26.3-.6-.6-1.4-9.7-1.9-20.4s-1.2-22.5-1.5-26.2c-.5-6.6-.4-7.1 3.1-12.7 1.9-3.2 4.7-6.8 6-8.1 1.3-1.2 2.4-2.6 2.4-3 0-2.1-14.6 4.3-23.9 10.6-5.4 3.6-7 5.1-7.5 7.7q-.6 3.15.9 4.8c.8.9 2.2 5.2 3.1 9.6l1.6 7.9-11.4 24.4c-6.2 13.4-11.7 24.3-12.3 24.2-1.6-.1-2.2-6.9-3-31.7l-.8-23.1 3.3-4.9c1.8-2.7 4.2-5.8 5.2-7l1.9-2.1-5.3-.6c-10.4-1.3-23.4-.8-24.8.8-1.1 1.3-.9 2 1 4 1.6 1.8 2.5 4.4 3.2 10.2l1 7.8-10.5 22.3-10.5 22.2 3.1 2.4c9.3 6.8 30.6 21.5 33.2 22.9 2.2 1.1 4.8 1.4 9.7 1 7.8-.7 19.1 1.8 24.1 5.1 4 2.7 4.5 6.9.8 7.4-1.3.2-2.8-.1-3.4-.7-1.9-1.9-3.7-1.2-3.7 1.3 0 3.1 2.6 5.2 13.2 10.4 9.6 4.8 18 7.2 25.5 7.2 6.7 0 7.7 1.7 3.5 5.9-3.1 2.9-7.2 4.3-17.7 5.6-3.6.5-7.4.1-13.5-1.5-8.8-2.2-10.8-3.2-24.8-11.8-4.6-2.8-11.6-6.3-15.5-7.8-10.3-3.9-49.6-25.5-58.6-32.3-4.4-3.3-7.3-8.1-10.7-17.7l-2.9-7.9-.8 5.5c-1 6.3-.3 18.7 1.4 25.5.9 3.6.9 5.1-.1 7-1.2 2.2-.6 3.8 5.2 16.7 7 15.2 9.7 23 14.9 42.6l3.2 12.2H512v-58.5c0-32.2-.2-58.5-.5-58.5-.2 0-3.6 6.2-7.4 13.7-9.6 18.8-11.1 21.1-12.2 19.1-.5-.9-1.2-13.3-1.5-27.6l-.7-26 4.8-6.5c2.6-3.6 5.8-7 7.1-7.6 1.6-.7 2.4-1.9 2.4-3.4 0-1.9-1.5-3.4-6.6-6.7-3.6-2.3-9.4-6.9-12.9-10.1-6.5-6.1-9.7-7.7-7.1-3.7.7 1.3 2.1 5.6 3 9.5l1.5 7.3-2.8 6.2c-1.6 3.5-7 14.8-12 25.2-6.7 13.6-9.6 18.5-10.3 17.8-1.3-1.3-2.7-22.5-2.7-42l-.1-13.3 4-5.9c2.2-3.2 5.3-6.7 6.9-7.6 1.7-1 2.7-2.3 2.4-3.1s.3-2.3 1.2-3.3c1.8-1.9 1.7-2.2-2.7-7.7-2.5-3.2-5.4-5.9-6.4-6-1.1-.1-6.4 2-11.8 4.8"/><path d="M168 215c0 .5.9 1.5 2.1 2.2 1.1.7 3.6 4.3 5.5 8l3.4 6.7-1 12.3c-1.4 17.8-3 32.9-3.6 36.1l-.6 2.8 5.1-2.8c4.7-2.6 5.1-3.1 5.6-7.3 1-7.4 3.6-18.9 5.6-24.8 2.4-6.9 2.4-7.9-.1-8.7-1.1-.4-2.8-1.7-3.6-3.1-1.6-2.3-1.5-2.5 1.5-5.3 1.7-1.6 3.1-3.2 3.1-3.5 0-.4-1-2-2.1-3.6-1.6-2.1-2-3.7-1.6-5.8.5-2.7.3-3-2.5-3.6-4.9-1-16.8-.7-16.8.4m163.2 1.8-6.3.3.6 3.2c.5 2.6.1 3.8-1.9 6-2.5 2.7-2.5 2.9-1 5.2.9 1.4 2 2.5 2.5 2.5s.9.9.9 1.9c0 1.7-3.5 5.4-6 6.3-.5.2.3 4.8 1.6 10.3 1.4 5.5 2.7 13.3 2.9 17.4l.4 7.4 4.2 2.4c2.3 1.3 4.4 2.1 4.7 1.9.2-.3 0-10.5-.5-22.8s-.6-23.5-.2-25c1.1-4.1 7-12.5 9.6-13.7 5.2-2.4-.1-3.8-11.5-3.3"/></svg>