<svg xmlns="http://www.w3.org/2000/svg" width="682.667" height="512" version="1.0" viewBox="0 0 512 384"><path d="M0 103v103.1l5.8-3.7c9.9-6.4 19.3-14 31.2-25.4 7.7-7.3 12.3-11 13.8-11 1.2 0 4.8 1.3 8 2.9 3.1 1.6 11.6 5.5 18.7 8.6 7.2 3.2 17.5 8.3 23.1 11.5 30.7 17.7 41.1 19.9 65.7 13.8l8.9-2.2 8.3 2.2c4.5 1.2 8.9 2.2 9.7 2.2 1.4 0 7-6.7 15-18.2 5.4-7.6 10.8-11.7 21.1-15.9 3.9-1.6 8.1-3.9 9.3-5 1.9-1.8 2-2.5 1.1-6.2-1.1-4.5-3.4-8-4.8-7.1-.5.3-.9-.1-.9-.9s-.7-2-1.5-2.7c-1.2-1-1.6-.8-2.5 1.5-.5 1.4-1 5-1.1 7.8-.1 2.9-.5 6.3-.9 7.7-.7 2.2-.8 2.1-.9-1.3-.1-3.8-1.6-5.1-2.4-2-.3 1-.6-.9-.7-4.2s-.6-7.1-1-8.5l-.8-2.5-.1 2.8c-.1 3.5-2.1 11.9-3.1 13-.3.4-1.2-3.5-1.9-8.7-1.6-12-3.1-17.8-4-15.3-.5 1.5-1.2.8-3.1-3.2l-2.3-5.1-2.3 3.8-2.3 3.7-.1-5.3V128l-4 2c-5.2 2.6-5.6 2.5-3-.8 7.1-9.2 8.9-14.2 5-14.2-1.1 0-2.5.9-3.2 2-1.6 2.5-3.2 2.5-7.4-.1-2-1.2-4.2-1.8-5.3-1.4-1.2.4-2.9-.3-4.8-2l-2.8-2.5 2.5-2.1c1.4-1.1 4.4-3.6 6.8-5.5 2.4-2 5.9-6 7.9-8.9 3.2-5 3.5-5.8 2.9-10.7-1.7-15.8-1.8-17.7-.2-25.1 3.5-17 11.2-26 26.2-30.7 5.1-1.5 9.3-1.8 25-1.8 10.4 0 20.2-.2 21.8-.5 5.3-.9 17.5 1.1 23.6 3.9 7.1 3.2 13.8 9.9 17.7 17.8 2.8 5.8 3.9 6.7 5 4.1.7-2 5.5-4.5 8.4-4.5 3.4 0 12.5 5.7 18.1 11.3 5.7 5.8 9.2 12.7 10.2 20.2.4 2.7 1.4 7.2 2.2 9.8 1.8 5.4 1.4 7.4-1.6 8.5-1.3.5-3 2.9-4.4 6.3-1.9 4.7-2 5.9-1 8.4 1.5 3.5 4.7 17.1 7.2 30.2 1.5 7.7 1.6 9 .3 8-1.2-1-1.3-.7-.9 2.3.8 5.1-6.9 29-9.3 29-.4 0-.9-.6-1.2-1.3-.2-.6-.7.3-1.1 2.1s-1.2 3-1.7 2.6c-.5-.3-1 .5-1 1.8-.1 1.7-.3 1.8-.6.5-.2-.9-.9-1.4-1.5-1-.7.4-.9.1-.6-.8.3-.8 0-2.8-.8-4.4l-1.3-3 .5 3.3c.3 2 .1 3.1-.5 2.8-.5-.4-1.1.2-1.4 1.1-.2 1-.7-.5-1.2-3.2-.9-5.7-2.4-9.4-2.5-5.9 0 1.1-.6 2.8-1.3 3.9-1.2 1.6-1.5 1-2-4.8-.5-5.7-1.9-10.2-6.3-21.2-.4-1.1-1-7.2-1.3-13.5l-.6-11.4-3.3-.7-3.4-.7.7 3.5c.6 3.1.4 3.5-1.1 2.9-1.4-.5-1.6-.2-1 2.5.8 3.9-1.1 3.5-4.1-1l-2.2-3.2-1.6 3.2c-1.3 2.4-1.9 2.9-2.5 1.8-.5-.7-1-1.1-1.2-.9-1.2 1.6-4.8 15.2-4.8 17.8 0 1.8-.4 3.2-1 3.2-.5 0-1-.7-1-1.5s-.4-1.5-.9-1.5-1.7 3.4-2.6 7.5-1.9 7.5-2.2 7.5-.3-3.5 0-7.8c.4-4.7.3-6.6-.2-4.7-.5 1.6-.9 4.7-1 6.7 0 2.1-.6 3.8-1.2 3.8-.7 0-1-3.7-.7-11.5.3-11.1.2-11.4-1.4-9.2-1 1.2-2 3-2.4 3.9-.3 1-1.1 1.8-1.8 1.8-2 0-4.1 3.1-5.5 7.9-1.5 5.3-1.4 5.5 11.8 12.2 10 5.1 13.6 8.5 25.1 23.7 4.7 6.1 9.2 11.1 10 11.2.8 0 5.2-.9 9.7-2.1 7.7-2 8.6-2 12.1-.6 5.7 2.3 19.5 4.7 26.9 4.7 9.8 0 18.5-2.7 33.3-10.4 7.4-3.8 15.8-8.1 18.5-9.5 6.9-3.4 37.5-16.2 40.3-16.8 2-.5 4.6 1.6 15.5 12.4 12.7 12.4 20.9 19.4 30.9 26.2l4.8 3.2V0H0z"/><path d="M314.2 109.5c-3.6 8.4-3.9 10.7-1.6 13 2.2 2.2 7 4.5 7.8 3.8.3-.4.6-4.8.6-9.9 0-8.9-1.1-14.4-2.8-14.4-.4 0-2.2 3.4-4 7.5m8.9 38.1c0 1.1.3 1.4.6.6.3-.7.2-1.6-.1-1.9-.3-.4-.6.2-.5 1.3m24.1 20c-.1 2.3-.4 5.7-.7 7.5-.5 3.1-.5 3.2.5.9.6-1.3.9-4.7.7-7.5-.3-4.6-.3-4.7-.5-.9M47.4 182.7c-6.2 6.6-6.8 7.9-5.1 10.4.9 1.2 1.4 2.6 1.2 3.3-.3.6 1 2 2.7 3.1s4.9 4.6 7.2 7.9l4.1 5.8-.4 17.7c-.5 25.1-1.4 36.4-2.8 36.8-.8.3-5.7-8.5-12.9-23.2-12.5-25.3-12.7-25.8-10.4-36.2.6-2.6 1.8-5.5 2.6-6.4 1.1-1.2 1.2-1.9.4-2.4-.6-.4-3.4 1.5-6.3 4.2S18.8 211 14.3 214c-6.6 4.3-8.3 5.8-8.3 7.8 0 1.6.7 2.6 2 2.9 1.1.3 4.2 3.5 6.9 7.1l4.9 6.5-.5 26.1c-.3 14.4-.9 26.5-1.4 27.1-1.4 1.5-3.2-1-10.8-15.5L0 262.5V384h187.6l4.4-16.3c4.5-17.1 7.6-25.9 14.1-39.7 3.9-8.1 4.1-9 4.5-20.5.6-14.8.5-33.7-.1-34.3-.3-.3-1.2 1.2-2.1 3.4-4.3 10.7-7.6 16.7-11.6 21-3.9 4.2-29.1 21.8-50.1 34.8-4.3 2.7-13.5 7.1-20.5 9.8-33.4 13.1-29.9 12-37.5 11.3-8.1-.8-20.3-5.1-27.6-9.5-8.1-5-6.6-8 2.9-6 7.1 1.5 15.1.4 28.8-4.1 7.7-2.6 9.5-3.6 10.8-6 1.3-2.6 1.3-3-.1-3.5-.8-.3-2.8-.1-4.4.4-3.5 1.2-6.8-.5-5.8-3.1 1.3-3.5 5.8-5.1 15.2-5.5 7.8-.4 9.9-.1 14.3 1.8l5.2 2.2 3.2-2.5c1.8-1.3 7.6-5.9 12.8-10.2 5.2-4.2 13.4-10.8 18.3-14.7 4.8-3.8 8.7-7.1 8.7-7.3 0-.3-4.3-11.1-9.6-24.2l-9.5-23.8 1.2-7.4c.8-5 2-8.2 3.7-10.2 2-2.4 2.2-3.2 1.2-4.5-1.1-1.2-3.9-1.4-15.5-1.3l-14.2.1 4.9 7.5 5 7.5-1.1 21.1c-1.5 27.5-2 32.9-3.5 32.4-1.4-.4-3.7-4.9-14.5-28.8l-8.8-19.5 1.5-7.5c.8-4.1 2.3-8.3 3.3-9.5 1.4-1.5 1.8-2.9 1.3-5.2-.5-2.5-2.2-4.2-8.8-8.6-8.9-6-18-10.6-21-10.6-1.8 0-1.8.2.6 2.7 1.4 1.6 4 5 5.8 7.7l3.3 4.9-.7 25.6c-.7 26.6-1.1 30.5-2.8 29.5-.6-.4-6.2-11.3-12.6-24.3l-11.5-23.6 1.1-7.9c.7-4.3 1.9-8.9 2.7-10.2s1.5-3.6 1.5-5.1c-.1-2.6-1-3.3-10.8-8.1-5.9-2.9-11.1-5.2-11.5-5.2s-2.4 1.7-4.3 3.7m401.1 7c-10.3 5.1-11 5.6-10.7 8.1.2 1.5 1 3.4 1.7 4.2s2 5 2.9 9.3l1.7 7.8-8.5 20.2c-13.4 31.7-13.6 32.2-15 29.8-.3-.5-1.6-13-2.7-27.8l-2.1-26.9 4.5-7.1c2.5-3.9 5-7.4 5.6-7.8.6-.3 1.1-1 1.1-1.5 0-2.2-13.7 3.8-23.7 10.4-5.6 3.7-7.2 5.2-7.7 7.8-.5 2.3-.1 3.7 1.3 5.2 1 1.2 2.6 5.4 3.4 9.5l1.5 7.4-6 13.6c-3.2 7.5-8 18.3-10.5 24.1-8.3 18.9-7.8 20-10.4-24l-1.1-18.5 3.6-5.9c1.9-3.2 4.2-6.6 5.1-7.6 1.4-1.6 1.2-1.8-3.7-2.3-2.9-.4-9.4-.7-14.5-.7-7.7 0-9.4.3-10.2 1.7-.7 1.4-.5 2.3 1.1 4 1.4 1.5 2.3 4.5 3 10l1.1 7.8-10.6 22.2-10.5 22.3 3.6 2.8c2.1 1.6 10.7 7.7 19.2 13.6l15.4 10.7 7.6-.6c6.3-.5 8.9-.2 15.9 1.9 9.7 2.8 14.4 6.4 12.1 9.1-1.4 1.7-4.5 1.7-8.2 0-1.5-.6-1.8-.2-1.8 1.8 0 3 3.3 5.8 12.5 10.5 8.9 4.6 14 6.2 23.4 7.2 4.6.5 8.8 1.3 9.4 1.9 1.4 1.4-4.6 6.8-9 8-14.6 3.9-29.2 1.5-43.3-7.3s-15.3-9.4-22.8-12.1c-7.7-2.8-43.7-22.4-54.1-29.5-5.7-3.8-12.1-10.9-12.1-13.3 0-.6-.7-1.8-1.6-2.8s-2.1-3.9-2.8-6.6l-1.3-4.8-.8 7.7c-.7 7.8-.3 13.3 1.7 22.1.8 3.8.7 5.4-.2 7.3-1.2 2.1-.7 3.8 5.2 16.6 7 15.2 9.7 23 14.9 42.6l3.2 12.2H512v-56.8c-.1-64.6 1.1-59.5-8.9-38.1-5.1 11.2-6.2 12.7-7.9 10.6-1.2-1.4-3.2-29.7-3.2-44.4v-10.2l4.1-5.8c2.2-3.2 5.1-6.4 6.4-7.1 4.4-2.3 2.8-5.4-5.5-11.1-4.1-2.8-9.9-7.3-12.9-10.1-3-2.7-5.8-5-6.3-5-1.1 0-1 1.8.2 2.2.5.1 1.9 4.1 3 8.7 1.9 7.5 2 8.7.7 11.5-2.1 4.5-14.1 32.1-16.8 38.6-2.6 6.5-4.5 8.8-5.9 7.4-.5-.5-1.4-7.9-2-16.4s-1.5-20.4-2-26.4c-.8-10.8-.8-11.1 1.8-15.5 1.5-2.5 4.6-6.5 6.9-8.8 2.4-2.2 4.3-5 4.3-6.2 0-1.1.7-2.4 1.7-2.9 1.4-.8 1-1.7-3.2-6.8-2.6-3.3-5.2-6.2-5.9-6.5-.6-.4-6 1.8-12.1 4.8"/><path d="M168.4 215.1c-.3.6.5 2.1 1.9 3.3 1.3 1.1 3.9 4.8 5.6 8.1l3.1 6-1.5 18c-.8 9.9-1.8 21-2.1 24.7-.4 3.9-.3 6.8.2 6.8s2.5-1.1 4.5-2.4c3.3-2.3 3.6-2.9 4.8-10.8.7-4.5 2.6-12.5 4.3-17.7l3-9.4-2.3-1.8c-1.3-1-2.7-1.9-3.1-1.9s-1-.9-1.3-2c-.5-1.4.2-2.9 2.4-5.1l3.1-3-2.1-2.9c-1.5-2-2-3.9-1.7-6.3l.4-3.5-6-.6c-8.6-.9-12.4-.7-13.2.5m157.3 5.2c.4 2.5-.1 3.8-2.2 6.1-1.5 1.6-2.3 3.2-1.8 3.5.4.3 1.8 2 2.9 3.7 2.6 3.6 1.9 5.5-2.7 7.4-2.4 1-2.9 1.7-2.4 3.4 2.4 8.6 5.5 24.4 5.5 28.5 0 4.9.1 5.1 4 7.1 2.1 1.1 4.2 2 4.4 2 .3 0 .3-10.9 0-24.3l-.7-24.2 3.9-6.2c2.2-3.4 4.9-6.7 6.2-7.3 4.2-1.9 1.2-3-8.3-3h-9.4z"/></svg>