<svg xmlns="http://www.w3.org/2000/svg" width="682.667" height="512" version="1.0" viewBox="0 0 512 384"><path d="M0 103.1v103.1l3.8-2.3c7.7-4.6 22.1-16.2 33.2-26.9 10.8-10.4 14.8-12.8 16.4-10.1.3.4 8.4 4.3 18 8.5 9.5 4.3 22.2 10.4 28.2 13.8 27.2 15.1 33.5 17.2 48.4 16.6 5.3-.3 13.4-1.5 18.2-2.7l8.8-2.3 7.8 2.1c4.3 1.2 8.7 2.1 9.8 2.1 1.4 0 5-4 11.8-13 10.3-13.8 13.2-16.4 23.6-20.6 3.6-1.4 7.9-3.7 9.7-5 3.2-2.4 3.2-2.5 1.8-6.3-.7-2.2-1.1-4.2-.8-4.5s-.6-1-2-1.7c-1.3-.6-3-2.2-3.6-3.6-2.1-4.6-3.6-2-4.4 7.8-1 10.7-2.7 14.3-2.8 5.8-.1-5-.1-5.2-1-2.2-1.4 4.7-2.3 4.1-1.6-1 .3-2.3.2-5.8-.2-7.7-.9-3.9-.7-4.4-3.1 6.7-.7 2.9-1.6 5-2.1 4.7s-.7-1.5-.3-2.8c.3-1.2-.4-6.9-1.6-12.6-2-9.7-3-13.1-3-10.1 0 2-1.6.4-3.4-3.4-1.9-3.9-3.2-4.4-4.1-1.6-.3 1.1-1.2 2.4-1.9 3-1.1.9-1.2.2-.8-3.9.3-3.2.1-5-.6-5-.6 0-1.3.4-1.6.9s-2 1.4-3.7 2c-3 1-3.1 1-1.8-.9 5.5-7.7 6.8-9.8 7.4-11.8 1-3.3-2-4-5.1-1.1l-2.4 2.3-4.4-2.1c-2.4-1.2-5.3-1.9-6.4-1.6-1.8.4-6.2-2.9-6.2-4.8 0-.4 1.9-2.2 4.3-4 5.6-4.4 10.3-9.5 13.4-14.7 2-3.5 2.4-5 1.9-8.5-.4-2.3-.9-7.8-1.2-12.2-1.2-17.7 6.3-34.2 18.4-40.4 8.3-4.2 14.9-5.4 27.2-4.8 6.3.3 15.9 0 21.3-.6 23.5-2.6 39.8 4.6 48.2 21.4 1.5 3 2.9 5.6 3.1 5.8s1.7-1 3.3-2.8c4.1-4.4 8.9-4.3 16.1.5 12 7.8 18.2 16.5 19.6 27.5.4 3 1.5 7.6 2.5 10.3 2 5.4 1.5 7-2.7 8.6-1.4.6-2.5 2.1-2.9 4.2-.4 1.8-1.3 4.1-2 5.1-1.1 1.5-1.1 2.5 0 5 1.9 4.7 4.3 14.4 6.5 26.7 1.1 5.9 2.3 11.6 2.7 12.7.6 1.6.5 1.7-1.2.3s-1.8-1.3-1.3 1.4c.7 3.3-4.2 19.9-7.5 25.9-1.8 3.2-2.2 3.5-2.8 2-.5-1.3-.8-.9-1.4 1.9-.4 2.1-1.1 3.8-1.6 3.8s-.9 1-1 2.2q-.15 2.4-.9-1.2c-.5-1.9-1.3-3.6-1.9-3.8s-1.1-1.6-1.2-3c-.1-2.9-.3-2.4-1.3 2-.4 1.6-1.1 2.8-1.7 2.8s-.8-.3-.5-.8c.2-.4-.2-3.2-.9-6.2-.8-3.2-1.4-4.5-1.4-3-.1 1.4-.8 3.4-1.6 4.4-1.4 1.9-1.5 1.8-1.5-1.5-.1-4.4-2.2-12.5-5.5-21.4-2.3-6-2.7-8.6-2.7-17.8V128h-2.9c-3.7 0-4.5.3-4 1.5 1.5 4 1.4 4.8-.4 4.2-1.5-.6-1.7-.3-1.1 2.4.8 3.9-1.1 3.5-3.9-.9-1.1-1.7-2.2-3.1-2.5-3.2-.3 0-1.1 1.5-1.8 3.2-1 2.6-1.4 3-2.2 1.8-.5-.8-1-1.2-1.2-1-1.4 2.2-4.8 14.3-4.8 17.2 0 2-.5 4-1 4.3-.6.3-1-.1-1-1 0-4-2.5-.3-4.2 6.1l-1.7 6.9.3-8.5c.4-7.7.3-8-.6-3.5-2.6 13.3-2.6 13.3-2.7 0l-.2-13-2.1 3.6c-1.2 2-3.4 4.3-4.8 5.1-3.2 1.8-5.9 10.1-4 12.3.6.7 5.5 3.5 10.8 6.2 11.1 5.5 14.4 8.5 26.2 24.1 4.7 6.1 9.2 11.1 10.1 11.2.8 0 5.2-.9 9.7-2.1 7.7-1.9 8.5-2 12.5-.5 7 2.7 18.4 4.6 26.7 4.6 10.9 0 18.3-2.5 39.5-13.5 9.9-5.2 24.3-11.9 32-15.1 7.7-3.1 15.7-6.5 17.8-7.6 3.7-1.9 3.8-1.9 6.6.1 1.6 1.1 5.4 4.9 8.6 8.3 10 10.9 35.1 31.8 38.1 31.8.2 0 .4-47.9.4-106.5V0H0z"/><path d="M317.3 103.2c-1.8 2.4-6.3 13.5-6.3 15.6 0 2.4 2 4.6 6.1 6.7 2.7 1.5 2.9 1.4 3.5-1 .3-1.3.4-6.5.3-11.4-.4-9-1.6-12.5-3.6-9.9m4.8 42.4c0 1.1.3 1.4.6.6.3-.7.2-1.6-.1-1.9-.3-.4-.6.2-.5 1.3m25 19.4c-.1.8-.4 4.2-.6 7.5-.4 4.8-.3 5.5.5 3.5.6-1.3.9-4.7.7-7.5-.2-2.7-.4-4.3-.6-3.5M49.8 180.2c-.9.7-3.5 3.5-5.8 6.2-3.7 4.4-4 5-2.5 6.5.8 1 1.5 2.7 1.5 3.8s1 2.5 2.5 3.1c1.3.6 4.5 4.2 7 8.1l4.6 6.9-.5 6.8c-.4 3.8-1.1 15.6-1.6 26.3s-1.4 19.9-1.9 20.4c-1.4 1.4-2.8-1.4-14.5-26.3l-10.4-22.5 1.5-7.5c.8-4.1 2.1-8.2 2.9-9.1.8-.8 1.4-1.9 1.4-2.2 0-1.8-2.7-.2-8.6 5-3.5 3.2-9.4 7.6-13.1 9.9-7.4 4.5-8.9 7.7-4.6 9.7 1.3.5 4.4 4.1 6.9 7.8l4.7 6.8-1.2 25.8c-1.1 23.6-1.8 28.9-3.8 27-.4-.4-3.7-6.7-7.4-14L.1 265.5 0 324.7V384h187.8l1.2-5.2c4.6-19.3 10-35.5 16.9-50.3 3.7-7.8 5.7-15.5 4.2-15.5-.4 0-.4-2.4 0-5.3 1-6.7 1-30.6 0-33-.5-1.4-1.3-.1-3 5-5.3 15.3-10.1 20.1-38.3 38.6-27.8 18.2-31 20.1-41.8 24-5.2 2-13.8 5.4-19 7.6-12.6 5.4-19.9 5.6-33.3.9-5.1-1.7-10.3-3.9-11.7-4.8-1.4-1-3.7-2.5-5.2-3.4-1.6-.9-2.8-2.3-2.8-3 0-1.1 2.5-1.4 12.3-1.3 11.3.2 13-.1 22.5-3.1 10.1-3.3 14.2-5.7 14.2-8.6 0-2.2-1.5-2.7-4.5-1.6-6.8 2.6-9.4-3.4-2.9-6.5 5-2.3 21.7-2.4 26.2-.1 1.7.9 3.7 1.6 4.5 1.6s7.4-4.8 14.7-10.7c16.5-13.4 24.9-20.1 27.5-21.9 1.8-1.3 1.6-2-6.4-21.6-12.7-31.1-11.7-27.5-10.1-36 .8-4.5 2.1-8.2 3.4-9.6 1.6-1.8 1.8-2.7.9-4-.9-1.5-2.9-1.7-15.2-1.7-7.7 0-14.1.1-14.1.2 0 0 2 3.2 4.5 7 3.6 5.5 4.5 7.6 4.5 11.3 0 9.8-3 49.4-3.8 50.2-1.2 1.2-2.3-.5-5.7-8.2-1.5-3.6-4-9.2-5.6-12.5-1.5-3.3-4.8-10.9-7.4-16.8l-4.7-10.8 1.3-7.1c.8-4.4 2.1-8.1 3.5-9.8 1.5-1.7 2-3.1 1.4-4-.4-.7-.6-1.9-.3-2.6 1-2.6-21.5-16.4-29.2-17.9l-3-.6 2.1 1.8c1.2 1 4 4.9 6.3 8.5 4 6.4 4.2 6.9 3.6 13-.2 3.4-1 14.8-1.6 25.3-.6 10.4-1.5 19.8-2.1 20.8-.9 1.8-1 1.8-2.2 0-.7-1-5.9-12-11.6-24.6l-10.3-22.8 1.3-7.2c.7-3.9 2-8.3 2.9-9.7 1-1.4 1.7-3.7 1.7-5.2-.1-2.4-1.3-3.3-11-8.2-6-3.1-11-5.6-11.1-5.6s-.8.6-1.7 1.2m399 9.1c-11.8 5.7-12.5 6.7-8.9 12.9 1 1.8 2.6 6.2 3.5 9.8l1.7 6.5-5.4 14c-3 7.7-7.1 18.5-9.2 24-4 10.4-6.3 14.1-7.7 12.7-.5-.5-2.1-12.9-3.5-27.6l-2.7-26.7 3-5.5c1.6-3 4.1-6.9 5.6-8.6 1.6-1.7 2.6-3.3 2.4-3.5-1.4-1.4-22.1 9-29.8 15-2.3 1.8-2.6 6.1-.6 8.4 1 1.1 2.5 5.5 3.4 9.9l1.7 7.9-4.8 11.5c-2.6 6.3-6.5 15.9-8.6 21.2-4.6 11.6-7.6 17.8-8.8 17.8-1.4 0-1.9-3.4-3.7-30l-1.8-25.5 3.7-6.7c2.1-3.6 4.5-7 5.5-7.4 2.5-1.1-6.2-2.2-18.5-2.3-9.3-.1-10.2.1-10.8 1.9-.4 1.3.1 2.9 1.3 4.5 2.9 3.6 4 16.3 1.9 20.7-.9 1.8-5.6 11.9-10.5 22.5l-9 19.1 9.9 6.9c5.5 3.7 13.9 9.6 18.7 13l8.7 6.3h9.5c18 .1 32.8 6.8 26.5 12-1.3 1.1-2.2 1-5.1-.3-3-1.5-3.5-1.5-4-.2-1.1 2.8 2.4 6.3 11 10.8 10 5.3 17.3 7.6 26.8 8.4 7.8.7 9.4 2.1 5.7 5.4-4.1 3.5-8.9 5-17.8 5.6-14.1.9-22.4-1.7-38.2-11.9-4.2-2.6-11.6-6.4-16.3-8.2-4.8-1.9-16.2-7.6-25.4-12.7-31.7-17.5-38.4-22.4-41.7-30.1-.8-2.1-2.2-3.8-2.9-3.8-.8 0-1.8-1.7-2.3-3.8l-1-3.7-.8 4.8c-.8 5.2-.2 12.4 1.8 22.1.9 4.7.9 6-.1 6.4-2 .6-1.5 2.2 5.2 16.8 3.4 7.6 7.5 17.5 8.9 21.9 2.2 7.1 8.7 30.8 8.7 32 0 .3 42.3.5 94 .5h94v-53.8l-.1-53.7-5 12c-5.5 13.2-5.8 13.8-7.7 12.6-1.3-.8-2.2-7.3-4.8-35.6l-1.7-19 3.8-6c2-3.3 4.8-6.8 6.1-7.8 3.1-2.4 3.3-7.3.4-8.2-2.8-.9-16.8-11.5-20.9-15.8-3.9-4.1-6.1-4-3.2.1 1 1.5 2.6 5.7 3.6 9.3l1.7 6.7-8.2 20.8c-11.9 30.6-12.7 32.3-14.5 29.3-.9-1.3-5.4-44.5-5.5-51.1 0-3.6.8-6 3.6-10.7 2-3.4 4.9-6.9 6.4-7.8 1.7-1 2.6-2.2 2.3-3.3-.2-.9.3-2.2 1.1-2.9.9-.8 1.6-1.7 1.6-2.2 0-1.1-9.9-12.9-10.8-12.8-.4 0-5.5 2.4-11.4 5.2"/><path d="M167.5 215c-.4.6.5 2 1.9 3.1s4.1 4.8 6.1 8.3l3.5 6.3-1.5 19.4c-.8 10.7-1.7 22-2.1 25.2l-.6 5.8 3.8-2.3c2.2-1.2 4.1-2.3 4.3-2.4.2-.2 1-4.1 1.7-8.6.7-4.6 2.7-12.8 4.3-18.3s2.6-10.1 2.1-10.3-2-1.2-3.4-2.3c-2.5-2-3.6-5.9-1.6-5.9.5 0 1.7-1.1 2.6-2.5 1.5-2.3 1.5-2.7-.2-5.2-.9-1.5-1.8-4.3-1.9-6.3-.1-3.4-.3-3.5-4.5-4.2-6.9-1-13.8-.9-14.5.2m158 5c.5 2.4.1 3.8-1.9 6.5-1.4 1.8-2.2 3.5-1.8 3.7s1.7 1.8 3 3.6l2.3 3.2-2.4 2.3c-1.3 1.2-3.1 2.6-4.1 3.2-1.5.9-1.6 1.4-.6 4 2 5.2 5 20.8 5 26.2 0 5.1.1 5.3 4 7.3 2.1 1.1 4.2 2 4.5 2s.2-10.7-.2-23.9l-.6-23.8 3.2-5.7c1.8-3.1 4.6-6.6 6.2-7.8 1.5-1.2 2.6-2.5 2.3-3-.3-.4-4.8-.8-10-.8h-9.6z"/></svg>