<svg xmlns="http://www.w3.org/2000/svg" width="682.667" height="512" version="1.0" viewBox="0 0 512 384"><path d="M0 103c0 56.6.2 103 .6 103 .8 0 12.2-7.8 17.9-12.3 2.8-2.2 9.9-8.6 15.8-14.4 15.7-15 13.5-14.2 25.8-8.5 5.7 2.7 14.4 6.7 19.4 8.8 4.9 2.1 16.1 7.8 24.7 12.7 20.7 11.4 27.4 13.7 41.1 13.7 8 0 12.8-.6 20.1-2.5l9.7-2.5 6.7 1.9c12.7 3.7 11 4.3 19.3-7.1 11.2-15.4 16.1-19.9 25.7-23.8 4.5-1.9 9.3-4.3 10.8-5.5 2.4-1.9 2.6-2.6 2-5.9-.5-2.4-2.2-5.2-5-8.1-2.3-2.5-4.5-4.5-4.8-4.5s-.8 3.6-1.2 8c-.8 9.9-2.4 14.8-2.6 8l-.2-4.5-1.3 3c-1.4 2.9-1.4 2.7-1.5-4.3 0-3.9-.4-7.2-.8-7.2-.5 0-1.4 2.9-2.1 6.5-1.4 6.9-3.1 8.7-3.1 3.2 0-1.7-.7-7.3-1.5-12.2-.8-5-1.5-9.4-1.5-9.9s-.6-.3-1.3.3c-1.1.9-1.8.3-3.2-2.9-2.1-4.7-2.7-4.9-4.5-1.5-2.1 3.9-3.3 3-2.8-1.9l.5-4.4-4.4 1.9c-2.5 1-4.7 1.9-4.9 1.9-.3 0 1-1.9 2.9-4.3 4-4.9 5.7-7.9 5.7-10.1s-4-2-5.6.1c-1.2 1.7-1.5 1.7-5.7-.4-2.5-1.2-5.4-1.9-6.6-1.6-1.3.3-2.9-.1-4.1-1.2-2.1-1.9-2.7-5.5-1-5.5 2 0 13.8-12.1 16.4-17 2.9-5.4 2.9-5.3.4-15.8-1-4.5-1-6.8.4-14.7 3.2-19 9.7-27.6 25.3-33.4 5.3-2 7.6-2.2 20-2 7.7.1 19-.2 25-.6 12.4-.8 20 .2 27.9 3.8 6.6 3.1 14.1 10.7 17.4 17.9 1.5 3.2 3 5.8 3.4 5.8s1.2-.9 1.8-2c1.7-3.2 6.3-5.1 10-4 8.3 2.4 20.5 12.8 23.9 20.6 1 2.2 2.4 7.1 3 10.8.7 3.7 1.9 8.6 2.8 10.7 1.7 4.4.9 6.3-3.3 7.9-1.4.6-2.5 2.3-3.3 5.4-.6 2.4-1.5 4.7-2 5s.2 3.5 1.5 7.1 3.5 12.8 4.9 20.4c1.4 7.7 2.8 14.8 3.2 15.8.6 1.6.5 1.7-1.1.3-1.7-1.3-1.8-1.2-1.5 2 .3 4-.3 6.6-3.9 17-2.9 8.5-4 10.3-5.8 9.6-1.4-.5-2.4 1.5-2.4 5 0 1.4-.4 2.2-1 1.9-.6-.4-1 .6-1.1 2.2-.1 2.7-.1 2.6-1.1-.7-.5-1.9-1.4-3.7-1.8-4-.5-.3-1-2.1-1.3-4l-.4-3.5-.1 3.7c-.4 7.5-2.8 4.6-4.5-5.2-.4-2.5-.4-2.5-.6.2 0 1.5-.6 3-1.1 3.3-.6.4-.8 1.1-.5 1.6.4.5.2.9-.2.9-.5 0-1.5-3.5-2.2-7.8-.7-4.2-2-9.3-2.8-11.2-3.6-8.5-4.6-13.7-4.6-23.8l.1-10.2h-2.9c-3.7 0-4.5.3-4 1.5 1.3 3.6 1.2 4.5-.4 4.5-1.3 0-1.6.6-1.1 2.6.9 3.5-1.3 2.8-3.9-1.4-1.1-1.7-2.2-3.1-2.5-3.2-.3 0-1.1 1.5-1.8 3.2-1 2.6-1.4 3-2.2 1.8-.5-.8-1.1-1.2-1.3-1-.8.9-4.6 14.5-5.3 18.5l-.6 4-1.2-3c-1.3-3-1.3-2.9-3.1 5-1 4.4-2.1 8.3-2.5 8.7-.3.5-.5-2.2-.4-6l.3-6.7-.9 6c-.6 3.3-1.2 6.4-1.4 7-.6 1.4-1-9.5-.7-18l.2-7-2 3c-1.1 1.7-3.3 4-4.9 5.2-3.5 2.6-6.2 10.4-4.3 12.7.7.8 5.4 3.6 10.4 6.1 11.7 6 14.2 7.8 17.8 12.9 8.4 11.9 17.6 22.5 19.3 22.5 1.1.1 5.5-.8 9.7-2 7.4-2 8.1-2 12.1-.5 6.8 2.5 18.3 4.6 25.7 4.6 12.2 0 17.3-1.7 39.1-12.8 11.3-5.8 26.6-12.9 34-15.9 7.4-3.1 15.2-6.4 17.2-7.4 2.1-1.1 4.2-1.9 4.7-1.9s7 6 14.3 13.3c10.8 10.7 26.9 24.2 33.6 28.1.9.6 1.2-20.9 1.2-105.8V0H0z"/><path d="M317.3 103.2c-1.8 2.4-6.3 13.5-6.3 15.6 0 2.4 2 4.6 6.1 6.7 2.7 1.5 2.9 1.4 3.5-1 .3-1.3.4-6.5.3-11.4-.4-9-1.6-12.5-3.6-9.9m-30.2 51.4c0 1.1.3 1.4.6.6.3-.7.2-1.6-.1-1.9-.3-.4-.6.2-.5 1.3m59.1 18.2c-.1 4 .2 5.1.8 3.7 1.1-2.6 1.2-8.2.2-8.9-.5-.3-.9 2-1 5.2m-300.7 12c-5.9 6.1-6.4 7.2-4 9.2.9.7 1.3 2 1 3-.4 1.1.3 2 2 2.8 1.4.6 4.5 4.3 7 8.2l4.5 7.1-2 25.5c-1.1 14.1-2 26-2 26.5s-.7.9-1.6.9c-1.6 0-4.8-6.4-16.7-33.5l-6.6-15 1.9-7.3c1-4.1 2.6-8.2 3.5-9.2 1.1-1.2 1.3-2 .5-2.5-.6-.4-3.7 1.8-7 4.8-3.2 3-9.2 7.6-13.4 10.2-5.9 3.8-7.6 5.4-7.6 7.2 0 1.5.9 2.7 2.3 3.4 1.2.5 4.2 4 6.6 7.7l4.4 6.6-1.7 25.5c-.9 14.1-2.1 26-2.6 26.5-1.6 1.6-3.1-.6-8.7-12.2L.2 269.5l-.1 57.2L0 384h187.7l3.3-12.8c4.1-15.9 7.9-26.7 14.1-40.7 3.5-7.8 4.9-12.2 4.8-15 0-2.2.2-9.9.6-17 .5-7.2.4-15.7 0-19l-.8-6-2.6 8c-4.4 13.1-9.8 18.3-38 36.9-26.2 17.2-32.4 21-37.6 22.6-2.2.7-9.6 3.6-16.5 6.5-16.2 6.9-19.5 7.7-27.7 6.9-14-1.3-37.2-12.8-32.2-16 .6-.3 3.9-.1 7.4.6 9 1.7 19.7-.3 35.4-6.6 4.2-1.6 6.7-5.4 4.9-7.2-.8-.8-1.7-.8-3-.1-3.2 1.7-7.3.7-7.6-1.9-.3-1.8.5-2.6 4-4.2 6.2-2.8 20.8-2.8 26.3 0 2.2 1.1 4.5 1.8 5.2 1.6 1.6-.6 42.7-33.7 43.1-34.7.2-.4-4.2-11.5-9.6-24.7l-10-24 1.5-7.3c.9-4.5 2.3-8.3 3.6-9.7 1.7-1.8 1.9-2.7 1.1-4-1.3-2-11.4-2.7-23-1.7l-7.1.6 4.8 7.4 4.9 7.4-1.4 16.8c-.8 9.2-1.7 20.6-2.1 25.3-1.1 14.1-2.1 15.2-6.1 6.2-9.8-22.2-17.4-41.6-17.4-44.6 0-6.1 2.1-14 4.1-15.8 1.6-1.4 1.8-2.3 1.1-5-.6-2.5-2.5-4.4-7.8-8.1C98 198 84 191.7 84 194c0 .5.6 1.3 1.3 1.7s3.2 3.9 5.6 7.7l4.3 6.8-2.3 25.9c-1.2 14.2-2.6 26.4-3 27.1-1.3 2.1-2.8-.8-13.3-25.4l-9.9-23 1.8-7.9c1-4.4 2.4-8.4 3.2-9 .7-.6 1.3-2.6 1.3-4.3 0-2.9-.6-3.4-11.1-8.8l-11-5.6zm403.6 4.8c-9.1 4.6-10.5 5.7-10.5 7.8 0 1.4.7 3.3 1.6 4.3.8 1 2.5 5.1 3.7 9.1l2.2 7.2-4.1 11.8c-2.3 6.4-4.9 13.9-5.9 16.7-1 2.7-3.4 9.2-5.2 14.4-3.4 9.4-5.2 11.8-6.3 8.4-.9-2.8-6.6-47.8-6.6-51.9 0-3.9 3.5-11.5 7.6-16.3 1.4-1.8 2.4-3.4 2.2-3.7-1.3-1.2-16 5.6-24.9 11.7-6.6 4.5-8.2 8.4-5 12.5 1.1 1.4 2.7 5.6 3.5 9.5l1.6 6.9-5 13.3c-9.2 24.4-13.5 35.2-14.7 37.2-2 3.3-2.9.4-4.2-13.4-.7-6.9-1.9-19-2.7-26.9l-1.4-14.3 3.7-6.7c2-3.7 4.4-7.2 5.1-7.8 1.8-1.3-6.9-2.4-19.8-2.4-9.9 0-11.5 1.1-8.1 5.8 1.8 2.5 3.9 14.6 3.2 18.2-.2.8-4.8 11.3-10.3 23.3-5.6 12.1-9.7 22.2-9.2 22.6 1.3 1.1 20.6 14.6 29.7 20.8l7.8 5.3 7-.6c9.9-1 21.6 1.8 26.7 6.1 3.3 2.9 3.5 3.4 2.2 5-.9 1.1-2.3 1.5-3.9 1.2-5.6-1.2-6.4-1.2-6.8-.1-.8 2.3 4 6.3 12.9 10.8 10.4 5.2 18.8 7.6 26.3 7.6 2.7 0 5.7.5 6.5 1 1.3.9.9 1.6-2.2 4.5-4.5 4.2-9.8 5.7-20.8 5.9-11.4.1-19.8-2.6-32.5-10.6-5.5-3.4-14.1-7.9-19.2-9.9-5-2.1-15.8-7.4-24-12-33.3-18.5-38.8-22.6-42.8-31.2-1.5-3.1-2.6-4.4-3-3.6-.6.8-1.3.5-2.6-1.2l-1.9-2.4v4c0 2.2.5 6.9 1 10.5 2.2 14.1 2.4 16.3 1.2 15.6-2.7-1.7-1.2 2.5 7.8 21.9 4.2 9 7.7 19.4 11.5 34.2 1.9 7.4 3.5 13.6 3.5 13.9 0 .2 42.3.4 94 .4h94v-49.7c0-27.3-.2-49.4-.4-49.2s-1.6 3.8-3 7.9c-3.1 8.8-4.9 11.2-6.4 8.4-1.1-2.1-1.1-2-5.2-31.9l-3.1-22 3.6-6.6c1.9-3.7 4.6-7.4 6-8.3 4.7-3.1 3.4-5.8-5.7-11.9-4.6-3.1-10.9-7.9-14-10.7-5.3-4.7-7.7-5.9-4.4-2.1 1.4 1.7 5.6 13.5 5.6 15.8 0 1.6-15.5 46.8-17.2 50-.6 1.3-1.7 2.3-2.4 2.3-1.5 0-1.8-1.5-3.9-16.5-.9-6.6-2.4-17.9-3.4-25l-1.8-13 3.6-6.9c2-3.7 4.9-7.7 6.4-8.8q2.85-2.1 2.4-3.9c-.3-1.2.3-2.5 1.5-3.4 2.1-1.4 2.1-1.5-1.8-6.2-5-6.1-7.2-8.3-8.1-8.2-.5.1-5.5 2.5-11.2 5.5"/><path d="M169.3 214.8c-2.9.4-2.9 1.8 0 3.6 1.2.9 3.9 4.6 5.9 8.3l3.6 6.8-1.3 18c-.8 9.9-1.7 21.1-2.1 24.9l-.6 6.9 3.8-2.3c4.8-3 5.4-3.7 5.4-7.7s3.2-17.8 5.9-25.6l2-5.7-2.9-1.5c-1.6-.8-3.4-2.4-4-3.6-.9-1.7-.6-2.4 1.9-4.8 1.7-1.6 3.1-3.2 3.1-3.5 0-.4-1-2-2.1-3.6-1.6-2.1-2-3.7-1.6-5.9.6-2.9.5-3-3.6-3.5-7-.9-11.1-1.1-13.4-.8m157.5 2.9c-1.3.3-1.6 1.1-1.2 3.2.4 2-.1 3.5-2 5.8-1.5 1.7-2.3 3.3-1.9 3.5.5.1 1.8 1.8 3.1 3.6 2.7 3.8 2.1 5.2-3.1 7.8-2 1.1-2.7 2-2.2 3.2 1.8 4.7 4.7 18.6 5.3 25.5l.7 7.8 4.3 2.5 4.4 2.6-.7-24.5-.8-24.5 3.9-6.2c2.1-3.4 4.9-6.7 6.1-7.3 4.3-1.9 1.9-3.2-6.3-3.4-4.3 0-8.7.1-9.6.4"/></svg>