<svg xmlns="http://www.w3.org/2000/svg" width="682.667" height="512" version="1.0" viewBox="0 0 512 384"><path d="M0 103c0 59.9.4 103 .9 103 1 0 14.6-9.6 19.6-13.8 1.7-1.4 8.4-7.6 14.9-13.8 6.9-6.6 12.7-11.4 13.9-11.4 1 0 3.6.9 5.6 2s10.7 5.1 19.3 8.9c8.7 3.8 22.3 10.6 30.3 15.1 20.7 11.7 26.1 13.5 40.5 13.4 8.3-.1 13.7-.7 19.4-2.3 9.8-2.6 10.2-2.6 20.4.1l8.4 2.1 2.4-2.9c1.3-1.6 5.3-7.1 9-12.2 8.3-11.6 12.7-15.4 22.5-19.4 4.3-1.7 9.1-4.1 10.6-5.4l2.7-2.2-1.5-4.8c-.9-3.2-2.3-5.2-3.7-5.9-1.2-.5-2.2-1.5-2.2-2.1 0-1.4-2.8-3.9-3.6-3.2-.3.3-.9 4.5-1.4 9.3-.9 9.2-2 12.4-2 6.2 0-2-.4-3.7-1-3.7-.5 0-1 .8-1 1.7 0 1-.4 2.4-.9 3.2-.6.9-.7-.8-.4-4.6.7-7.4-1.1-12.1-2.2-5.8-.4 2.2-1.3 6-2 8.5l-1.4 4.5v-4.4c-.1-3.9-2.1-17.2-3.7-24.1-.6-2.2-.7-2.3-1.3-.6-.6 1.5-1 1.1-2.6-2.3-2.1-4.7-3.1-5.1-4.7-1.6-1.7 3.8-2.8 3-2.8-2V128l-4 2c-5.4 2.7-5.6 2.6-2.3-1.8 4.3-5.5 6.3-8.9 6.3-10.7 0-2-4.6-2-5.4 0-.7 2-2.8 1.9-6.9-.5-2.2-1.3-4.4-1.9-5.9-1.5-1.7.5-3-.1-4.8-2.1l-2.5-2.6 3-2.2c5.5-3.8 14-13 16.4-17.7l2.5-4.7-1.9-6.1c-4.7-15.7 2.5-39.7 14.4-47.2 10.2-6.5 12.8-7 43.2-7.4 22.5-.4 28.8-.1 33.6 1.1 10.7 2.7 19.6 10.4 24.4 20.9 1 2.3 2.1 4.3 2.4 4.6s2.1-.9 4.1-2.7c2-2 4.6-3.4 6-3.4 7.8 0 23.6 13.5 27.2 23.3 1.2 3.2 2.2 6.8 2.2 8.1 0 1.4.9 5.3 2 8.8 1.1 3.4 2 6.6 2 7.1 0 .4-1.4 1.6-3.1 2.6-2.3 1.4-3.7 3.4-5.1 7.6-1.7 5-1.7 6-.4 9.8 2.3 6.9 3.4 11.6 5.6 23.9 1.1 6.4 2.3 12.3 2.6 13.2.5 1.2.2 1.5-1.1.9-1.5-.5-1.7-.2-1.2 2.3.6 2.7-5.3 22.5-7.4 24.8-.4.5-.5-1.6-.2-4.6.3-3.5.2-5.8-.5-6.2-.8-.5-1 1.5-.8 6.4.2 3.8 0 7.3-.5 7.6s-.9 0-.9-.5c0-.6-.5-1.1-1.1-1.1-.7 0-.9 1.2-.7 3 .3 2.3.1 3-.9 2.6-.9-.4-1.3.4-1.4 2.2-.1 2.6-.1 2.6-1.1-.6-.6-1.7-1.5-3.2-1.9-3.2-.5 0-1-1.5-1-3.3l-.1-3.2-.8 3.8c-.4 2-1 4-1.3 4.3-.7.7-2.6-6-2.8-9.6-.1-2.3-.2-2.2-1.1.7-.6 1.8-1.4 3.3-1.8 3.3s-1.3-3-2-6.7c-.7-3.8-2.7-10.4-4.3-14.8-2.8-7.2-3.1-9.1-3.1-19.3 0-9.5-.2-11.2-1.5-11.2-.9 0-2.7-.3-4-.7-2.1-.5-2.3-.4-1.7 1.3 1.8 4.4 1.8 5.4.1 5.4-1.3 0-1.6.6-1.1 2.6.9 3.5-1.3 2.8-3.9-1.4-1.1-1.7-2.2-3.1-2.5-3.2-.3 0-1.1 1.5-1.8 3.2-1 2.6-1.4 3-2.2 1.8-.5-.8-1.1-1.2-1.3-1-1.2 1.5-4.6 13.3-5.3 18l-.7 5.5-1.2-3.5-1.2-3.5-1.8 7.5c-2.3 9.9-3.1 10.5-2.9 2.2l.3-6.7-1.1 6.5c-1.1 6.5-1.1 6.5-2.1 3-.5-1.9-.7-7.3-.3-12l.5-8.5-1.9 3c-1.1 1.7-3.2 4-4.8 5.2-3.5 2.6-6.2 10.4-4.3 12.7.7.8 6.2 4 12.3 7.2 9 4.7 11.8 6.7 15 10.8 17.2 22.1 18.4 23.6 20.4 23.6 1.1 0 5.4-.9 9.4-1.9l7.4-2 8.5 2.5c11.6 3.5 27.1 4.3 36.1 2 3.7-1 14.6-5.9 25-11.2 10.1-5.3 25.2-12.4 33.5-15.9 8.2-3.4 16.6-7 18.6-8 2.4-1.1 4.2-1.4 5.2-.9.8.5 8 7.2 15.9 14.9 12.1 11.8 28.8 25.5 31.2 25.5.3 0 .6-47.7.6-106V0H0z"/><path d="M317.3 103.2c-1.7 2.4-6.3 13.5-6.3 15.5 0 2.1 3 5.3 6.7 7.2 2 1 2.3.8 2.9-2.4.3-1.9.5-7 .3-11.4-.4-8.1-1.7-11.4-3.6-8.9m4.8 42.4c0 1.1.3 1.4.6.6.3-.7.2-1.6-.1-1.9-.3-.4-.6.2-.5 1.3M48.8 181.2c-.9.7-3.5 3.5-5.8 6.2-3.7 4.4-4 5-2.5 6.5.8 1 1.5 2.7 1.5 3.8s1 2.4 2.4 3.1c1.4.6 4.3 4.3 6.7 8.3l4.2 7.3-1.2 10c-.6 5.6-1.8 16.6-2.6 24.6-1.6 15.5-2.1 18-3.5 18-1.5 0-2.6-2.4-18-39.7l-3.9-9.3 2.1-7.7c1.2-4.3 2.7-8.5 3.4-9.4.8-.9 1.1-1.9.8-2.2-.4-.4-3.4 1.9-6.8 5s-9.5 7.8-13.5 10.5c-8.6 5.5-9.9 8.2-5.2 10.9 1.5.9 4.5 4.5 6.6 7.9l3.8 6.3-2.2 25c-1.2 13.7-2.5 25.6-2.8 26.3-1.1 2.9-2.6 1.1-7.3-8.9L.1 273.5v55.2L0 384h187.7l3.3-12.8c4.3-16.4 8-27.2 14.1-40.4 3.8-8.1 5-11.7 4.9-15-.1-2.4.1-11.1.5-19.3.4-8.8.3-16-.2-17.4-.9-2.3-1.1-2.1-2.2 2.5-1.8 7.4-3.1 10.3-4.6 9.8-.7-.3-2.2 1-3.5 3-3.2 5.3-10.5 11.1-30 23.8-24.4 16-35 22.2-41.2 24.2-2.9 1-10.5 4.1-16.8 6.9-11.5 5.1-11.5 5.2-22 5.2-9.3 0-11.3-.3-18-3-9-3.5-18.3-9.2-17.7-10.8.2-.8 4-1.2 12.3-1.2 11.1-.1 12.6-.3 23.2-3.9 11-3.7 13.2-5.2 13.2-9 0-1.4-.9-1.5-5.5-1-5.4.7-5.5.6-5.5-1.9 0-3.8 4.4-5.7 14.8-6.4 6.7-.4 9.7-.1 13.2 1.2 2.5.9 5.2 1.9 6.1 2.1 2.1.7 44.5-33.2 44.3-35.4-.1-.9-4.5-12-9.8-24.6l-9.7-22.9 1.6-7.6c1-4.8 2.4-8.4 3.8-9.9l2.2-2.4-2.4-1.9c-1.9-1.6-3.9-1.9-11.7-1.9-5.1 0-9.5.4-9.8.9s-2.5.7-4.9.4l-4.2-.6 2.2 2.4c1.1 1.3 3.6 4.9 5.3 7.9l3.2 5.5-1.1 12c-2.3 24.2-4.3 40-5 40.8-.4.4-1.3.1-2-.6-1.5-1.9-18.2-42.5-18.8-45.9-.8-4.3 1.7-15.6 4.1-18.6 3.9-4.9 2.6-7.3-7.7-14-9-6-18.1-10.2-21.5-10.2-1.5.1-1.4.3.4 1.8 1.1.9 3.8 4.8 5.9 8.6l3.8 6.9-1.2 10.6c-.7 5.8-1.9 16.5-2.6 23.8-1.9 18.1-2.6 20.4-5.2 17-.6-.6-5.2-11.7-10.3-24.6l-9.3-23.4 1.8-7.1c1-3.9 2.5-7.9 3.4-8.9.9-1.1 1.6-3.2 1.7-4.9.2-2.7-.3-3.2-6.1-5.8-3.4-1.5-8-3.9-10.3-5.4-4.8-3-5.2-3.1-7.4-1.4m400.5 8.2c-9.7 4.8-10.3 5.3-10.3 8.2 0 1.7.7 3.7 1.5 4.4 2 1.7 5.5 11.4 5.5 15.6 0 1.9-3 12.6-6.6 23.7s-7 21.8-7.6 23.7-1.7 4.3-2.4 5.3c-1.2 1.8-1.3 1.8-2.2 0-.5-1-2-8.3-3.1-16.3-1.2-8-3.1-19.8-4.2-26.4l-1.9-11.8 3.6-7.2c1.9-3.9 4.2-7.6 5-8.2 2.3-1.8 1.7-3.6-.8-2.9-5.1 1.5-13.7 5.9-20.9 10.6-8.5 5.6-10.3 8.7-6.9 12.4 1 1.1 2.7 5.5 3.8 9.8l2 7.7-3.5 9.8c-1.9 5.3-5.9 16.6-8.9 25.1-2.9 8.5-5.8 15.9-6.4 16.5-2.5 2.5-3.1-1.1-8-44.4l-1.2-10.6 3.6-7.2c2-4 4.1-7.2 4.6-7.2 1.5 0 1.2-1.6-.2-1.8-.7-.1-7.2-.5-14.3-.8-11.4-.6-13.2-.4-14.4 1s-1.1 2 .6 3.9c1.4 1.5 2.4 4.8 3.2 10.2l1.2 8.1-4.5 9.9c-2.4 5.5-7.1 15.9-10.4 23.2l-6 13.1 18.7 13.2 18.6 13.2 7.5-.7c12-1.1 25.9 3.1 29.4 8.9.9 1.3.7 2-.8 3.1-1.6 1.2-2.4 1.2-5.3 0-4.4-1.9-5.5-1.2-4.2 2.4 2 5.7 31.4 18.3 38.5 16.5 3.1-.8 7.4.3 7.4 1.9 0 1.5-6 6.4-9.5 7.7-1.4.5-6 1.2-10.3 1.6-14.4 1.2-25-2.3-41.8-13.7-2.2-1.5-8.2-4.4-13.3-6.4s-16.6-7.7-25.5-12.7c-32.7-18.2-37.9-22-42.1-31.1-1.9-4.1-2.4-4.5-3.5-3.2-1 1.3-1.5 1.3-2.1.3-1.7-2.7-2 .4-.9 8.9 2 15.3 2.3 19 1.1 17.3-3.3-4.7.7 6.4 7.9 21.5 4.2 8.9 7.7 19.4 11.6 34.2 1.9 7.3 3.4 13.5 3.4 13.8s42.3.5 94 .5h94l-.1-44.8c0-32.9-.3-43.9-1.1-41.7-.6 1.6-1.7 3.8-2.4 4.8-1.2 1.8-1.3 1.8-2.4-.4-1.4-2.6-9-41.6-9.7-50-.4-4.8-.1-6.4 2.5-11.6 1.7-3.3 4.2-6.7 5.5-7.6 1.8-1.2 2.3-2.2 1.9-4.4-.3-2.2-2-3.8-7.4-7.3-3.9-2.5-9.9-7.1-13.4-10.3s-6.4-5.4-6.4-4.9.6 1.4 1.3 2 2.4 4.5 3.7 8.6l2.3 7.5-7.8 25.6c-4.3 14-8.4 26-9.1 26.6-2.2 1.8-3.1-1.8-7.8-29.1l-4.4-25.5 3.4-6.6c1.8-3.7 4.5-7.6 5.9-8.7s2.5-2.9 2.5-4 .7-2.5 1.5-3.2 1.5-1.6 1.5-2.1c0-1.5-10.1-12.9-11.3-12.8-.7.1-5.8 2.5-11.4 5.3"/><path d="M167 216.5c0 .8.9 1.9 2 2.5 1 .6 3.5 3.7 5.5 7.1 4.2 7.2 4.2 7.4 1.9 35.7-1 11.1-1.5 20.5-1.2 20.8.4.3 2.2-.5 4.2-1.8 2.7-1.7 3.7-3.2 4.1-5.8 1.8-11.5 2.9-16.4 5.2-24l2.5-8.4-3.6-2.9c-2-1.6-3.6-3.3-3.6-3.9 0-.5 1.4-2.3 3.1-3.9l3.1-2.9-2.2-3c-1.5-2.1-2.1-4.1-1.8-6.4.4-3.3.3-3.4-4.1-4-8.2-1.1-15.1-.7-15.1.9m160.3 1.2c-1.8.4-2.1.9-1.7 3.2.4 2-.1 3.5-2.1 5.9-1.5 1.8-2.2 3.2-1.6 3.2s1.1.5 1.1 1.2c0 .6 1 2.2 2.2 3.5 2.1 2.2 2.1 2.3.2 4.4-1 1.2-3 2.5-4.3 3-1.7.7-2.1 1.4-1.6 2.7 2.7 7 6.6 27.4 5.8 31.2-.4 2.2.2 2.8 4 4.7 2.5 1.2 4.7 2 4.8 1.8.2-.2 0-10.9-.4-23.9l-.8-23.6 2.7-5c3-5.5 6.2-9.4 8.4-10.2.8-.2 1-.9.6-1.6-.7-1.2-12.2-1.5-17.3-.5"/></svg>