<svg xmlns="http://www.w3.org/2000/svg" width="682.667" height="512" version="1.0" viewBox="0 0 512 384"><path d="M0 104.1v104l3.3-2.2c7.9-5.5 18.1-14.2 29.4-25.1 6.7-6.5 12.9-11.8 13.8-11.8.8 0 4.2 1.3 7.5 3 3.3 1.6 9.2 4.3 13.2 5.9 11.1 4.4 24 10.5 31.5 14.9 22.3 13 29.5 15.6 43.3 15.6 8.3 0 12.8-.5 21.2-2.7l10.8-2.8 6.6 2.1c10.9 3.3 10.9 3.3 18.9-7.8 10.3-14.3 17.5-21.1 26-24.6 3.9-1.6 8.4-3.8 10.2-5 3-2 3.2-2.3 2.9-8-.2-4.5-.8-6.3-2.1-7.1-1.3-.7-1.9-.7-2.2.2-.9 2.4-2.3 1.3-2.3-1.6 0-3.3-1.8-5.1-3-3.1-.6 1-.9.9-1.3-.1-.3-.8-.6.2-.6 2.1.1 6.2-1.3 14.2-2.2 12.8-.5-.7-.9-2.7-1-4.3-.1-2.9-.1-3-.9-.5-.7 2.2-.8 2.2-1 .5-.1-1.1-.1-2.6 0-3.4s-.2-3-.5-5c-.7-3.5-.8-3.5-3 4.2-1.3 4.3-2.6 8.1-2.9 8.4-.3.4-.6-1.8-.6-4.8 0-7.1-1.8-18.1-3.2-19.4-.7-.7-.9-.3-.5 1.2 1 4.1-.9 2.4-3.1-3-2.4-5.5-2.3-5.5-5.9 0-1 1.5-1.2.9-1.2-4l-.1-5.7-4.1 2c-2.3 1.2-4.3 1.9-4.5 1.7-.3-.2 1.4-2.6 3.6-5.3 4.1-5 5.1-9.2 2.7-11.3-1.1-.8-1.6-.5-2.5 1.4-1.5 3.2-3.4 3.2-8.5-.4-2.3-1.5-5.2-3.1-6.3-3.5-1.2-.4-2.9-1.5-3.9-2.6-1.6-1.8-1.6-2 2-5.2 2.1-1.8 4.8-3.8 6-4.5 2.7-1.5 6.5-6.3 9.4-12.2 2.3-4.3 2.3-4.5.6-9.9-3.4-10.5 0-29.4 7.2-39.9 3.9-5.8 10.3-10.4 18.4-13.1 4.5-1.6 9.6-2 29.9-2.4 13.6-.3 27.2-.2 30.5.4 13.4 2.1 24.1 10.3 30 23 1.8 4 3.1 7.7 2.8 8.2-.4.5-.1.6.5.2.7-.4 1.2-1.3 1.2-2.1 0-.7 1.6-2.7 3.5-4.4 2.6-2.3 4.6-3.1 7.3-3.1 7.3 0 21.8 12.1 25.7 21.3.8 1.9 2 6.8 2.6 10.8s1.7 9 2.5 11.1c1.7 5 1 6.6-4.3 8.9-6.1 2.6-7 5.2-4.5 12.5 2.9 8.5 4 12.9 6.2 25.2 1.1 6.1 2.3 11.8 2.7 12.8.4 1.2.3 1.5-.5 1s-1.2.4-1.2 2.8c0 5.9-5.1 23.2-8.2 27.7l-1.6 2.4-1-2.5c-1-2.2-1.1-2-1.1 2.2-.1 3.7-.4 4.6-1.5 4.2-.8-.3-1.6.2-1.9 1.3-.4 1.5-.5 1.4-.6-.4-.1-1.3-1-2.4-2.2-2.8-1.7-.6-1.9-.9-.8-1.6s1.1-.9.1-.9c-.7 0-1.6 1-2.1 2.2-.7 1.9-1.1 1.2-2.2-4.2-.7-3.6-1.5-5.6-1.7-4.5s-.9 2.5-1.4 3.2-.7 1.7-.3 2.3c.3.5.2 1-.2 1-.5 0-1.4-3.7-2.2-8.3-.7-4.5-2.1-10.2-3.2-12.6-3.2-7.4-4.9-15.5-4.9-23.9v-8l-3-.4c-2.6-.4-2.9-.2-2.4 1.8.5 1.9.3 2.2-1.6 1.7-1.8-.5-2.1-.2-1.7 1.3.3 1 .9 3.5 1.3 5.4.6 3.2.5 3.4-1.1 2-1-.8-2.6-2.8-3.6-4.4l-1.8-2.9-1.5 3.8c-1.6 3.6-1.7 3.7-3.1 1.9-1.4-1.9-1.4-1.9-1.5.1 0 1.2-.9 3.8-2 6s-2 4.8-2.1 6c0 1.1-.4 2.9-.9 4-.9 1.9-.9 1.9-1.6-.2-1-3.5-2-2-3.9 5.7-.9 3.8-2 7-2.3 7-.2 0-.2-3.3 0-7.3l.6-7.2-1.7 8-1.6 8-.5-12c-.3-7.6-.7-10.9-1.2-9-.4 1.6-1.4 3.9-2.2 5-1.5 1.9-1.5 1.9-1-.5l.6-2.5-1.9 2.1c-1 1.2-2.7 2.4-3.7 2.8-1.3.4-1.6 1-.9 1.7s.7 2.2 0 4.8c-.6 2.1-.8 4.5-.4 5.3.3.9 5.3 3.9 11.1 6.8 12.2 5.9 13.8 7.4 26.5 23.8 5.1 6.7 10.1 12.2 10.9 12.2.9 0 5-.9 9.3-2.1l7.7-2.1 10.8 2.9c8.8 2.2 12.9 2.8 21.4 2.7 13 0 18.5-1.9 40.9-14 8.6-4.6 20.6-10.5 26.6-13 6.1-2.5 14.3-6.1 18.4-8 4-1.9 8.2-3.4 9.3-3.4 1.3 0 5.7 3.7 11.7 9.9 11.9 12.1 31.9 29.1 34.4 29.1.4 0 .7-47.3.7-105V0H0z"/><path d="M316.3 102.1c-6.4 14.7-6.6 18.8-.8 21.6 1.9.9 3.8 1.4 4.1 1 .4-.3.7-6 .8-12.6.1-14-1.1-16.9-4.1-10m5.9 40.9c0 1.4.2 1.9.5 1.2.2-.6.2-1.8 0-2.5-.3-.6-.5-.1-.5 1.3m24.7 24.6c0 2.7-.2 6.2-.4 7.9-.3 2.6-.2 2.7.7 1.1 1-1.8 1.3-12.4.3-13.4-.3-.3-.5 1.7-.6 4.4M336 177c0 1.1.4 2 .9 2s.7-.9.4-2-.7-2-.9-2-.4.9-.4 2M42.1 187.9c-2.8 3.3-5.1 6.2-5.1 6.6s.7 1.4 1.6 2.2c.9 1 1.3 2.5 1 3.8-.4 1.6 0 2.5 1.7 3.2 1.4.7 3.4 3.8 5.6 8.7l3.3 7.6-6.2 22.3c-7.9 28.4-8 28.7-9.1 28.7-1.7 0-3.4-5.5-8.9-28.3l-5.3-21.9 2.7-6.5c1.5-3.6 2.5-6.8 2.2-7-.3-.3-2.6 1.3-5.2 3.6s-7.8 6.1-11.5 8.4c-7.9 5-9.3 8.3-5 11.5 1.4 1.1 3.9 4.9 5.4 8.5l2.9 6.6-5.9 21.8-5.8 21.8-.3 47.2-.3 47.3h187.8l3.7-14.2c3.8-14.4 9.1-28.9 14.6-39.9 2.9-5.7 3.1-6.7 3.6-21.4.3-9.8.2-15.5-.5-15.5-.5 0-1.6-1.9-2.3-4.1l-1.4-4.2-3.2 6.6c-4.5 9.1-9 13.1-30.2 27.2-26.1 17.3-37.5 24.2-43.4 26.1-2.8.9-10.9 4.2-18.1 7.3-12.1 5.2-13.6 5.6-22.1 5.9-7.9.3-10 0-15.5-2.1-3.5-1.4-7.4-2.8-8.6-3.2-3.6-1-13.3-7.7-13.3-9.1 0-.9 2.9-1.2 11.8-1.1 10.9.1 12.5-.1 23.4-3.6 9-2.9 12.2-4.3 13.4-6.2 2-3 1.2-6-1.4-5-4.1 1.8-7 1.7-8.1-.3-.8-1.5-.7-2.3.7-3.4 3.5-3.1 6.4-3.8 15.9-4 8.4-.1 10.4.2 14.1 2.1 2.8 1.4 4.8 1.9 5.5 1.3.7-.5 10.7-8.5 22.2-17.7 11.6-9.3 23.8-18.7 27.2-20.9l6.2-4.1.6-6c.4-3.3 2.3-11.6 4.2-18.5 2.5-9.4 3.1-12.6 2.1-12.9-.7-.2-2.6-1.7-4.1-3.3l-2.9-2.8 3.1-2.9c3.5-3.3 3.6-3.8 1.6-6.5-.8-1.1-1.5-3.6-1.5-5.7 0-3.6-.1-3.6-4.6-4.3-7-.9-14.2-.7-14.9.4-.4.6.5 2 2 3.1 1.4 1.2 4 4.8 5.6 8.2l3.1 6.1-1.7 12c-4.2 30.3-6 40.1-7.5 40.4-1.1.2-3.6-5.7-9.8-23-4.5-12.8-8.2-24.7-8.2-26.3 0-5.3 2.9-14.6 5.1-16.4 1.2-1 1.8-2.2 1.4-3.2-.8-2.2-11.5-3.1-21.5-1.9-4.1.5-8.1.9-8.9 1-1.2 0-1.1.3.1 1.7.9 1 2.8 4.6 4.3 8.1l2.8 6.3-2.6 11.2c-1.5 6.2-4.1 17-5.8 24.2-1.7 7.1-3.5 13.8-4.1 14.9-1 1.8-1.2 1.8-2.3.3-.7-.9-4-12.3-7.4-25.3l-6.3-23.6 2.7-7.3c1.4-4 3.5-8.1 4.6-9.1 3.9-3.5 2.5-6.5-5.9-12.1-9.4-6.4-20.7-11.7-22.9-10.9-1.4.6-1.4.8 0 2.4 1.9 2.2 6.7 13.9 6.7 16.5 0 2.2-11.3 43.2-13.2 47.9-1.1 2.8-2.2 3.5-3.2 1.9-.9-1.3-11.6-47-11.6-49.2 0-2.8 4.7-13.9 6.9-16.3 4.5-5 4-5.8-8.3-11.9-6.3-3.1-11.6-5.7-11.9-5.7-.2 0-2.7 2.7-5.6 5.9m416.1-1.7c-1.9 1.2-6.6 3.5-10.5 5.2-7.8 3.4-8.5 4.8-4.7 9.1 2.9 3.2 8 14.2 8 17.2 0 4.4-9 53.7-9.9 54.6-.5.5-1.3.3-1.7-.4-.5-.8-4.6-13.3-9-27.9l-8.2-26.5 2.9-8c1.5-4.4 3.3-8.1 3.8-8.3.6-.2 1.1-1.3 1.1-2.4 0-1.5-.5-1.8-2.2-1.3-5.1 1.5-15.1 6.6-22.2 11.4-8.4 5.7-9.3 7.7-5.2 12 1.3 1.5 3.5 5.7 5 9.6l2.7 7-5.6 27c-3.1 14.8-6 27.4-6.6 28s-1.3.5-1.8-.4c-.9-1.5-13-47.4-13.8-52.7-.7-4 3.1-15.8 5.8-18.3 2-1.8 1.9-1.8-1.2-2.5-1.7-.3-8.9-.6-15.9-.6-14.1 0-15.3.6-11.6 5.1 1.2 1.4 3 5.9 4 10l1.9 7.5-8.2 24.9c-4.5 13.8-8.4 25.5-8.7 26.2-.3.6 5.5 5.3 12.8 10.6 19.7 14 17.6 13 26.2 12.2 14.9-1.4 33.6 5.8 30.1 11.5-.9 1.4-5.1 1.3-7.5-.2-2.7-1.7-4.4 0-3.1 3.4.7 1.8 3.6 3.9 10.2 7.3 11 5.7 20.9 8.5 30.2 8.5 5.7 0 6.8.3 6.5 1.6-.7 3.4-8.2 7.4-17.5 9.4-8.8 1.8-9.4 1.8-18 .1-9.4-1.9-12.3-3.2-25-10.8-4.4-2.7-11.7-6.4-16.2-8.2-15.8-6.3-55.5-29.5-62.3-36.4-3.2-3.2-5.4-6.7-6.9-10.8l-2.2-6.1-2 5.3c-2 5.2-2 5.7-.4 15.7 1.3 7.9 1.4 10.7.5 12.1-1 1.6 0 4.4 6 17.5 6.8 14.8 10.8 26.3 14.7 42.3l1.7 7.3H512V277.3l-5.1-12.9-5.1-12.9 1.8-7.3c.9-4.1 2.7-8.6 3.9-10 3.9-4.9 2.8-7.5-5.7-13.1-4.2-2.7-9.5-6.6-11.7-8.6-2.3-2.1-4.1-3.3-4.1-2.9 0 .5 1.4 3.4 3.1 6.4l3 5.5-3.7 26c-2 14.3-4.1 27-4.5 28.2-1 2.7-2.4 3-3.4.5-3.3-8.2-17.5-51-17.5-52.7 0-3.8 3.9-13.8 6.5-16.5 1.6-1.7 2.3-3.2 1.9-4.7-.4-1.4.1-2.7 1.4-3.9 2-1.7 2-1.8-3.1-8-2.9-3.5-5.9-6.3-6.7-6.3s-3 1-4.8 2.1"/><path d="M327.3 218.7c-.7.2-1.3 1.9-1.3 3.6 0 1.8-.9 4-2.1 5.4l-2.2 2.2 2.7 3.5c3.5 4.6 3.3 6.3-1 8.8-2.8 1.7-3.4 2.5-2.9 4.2 2.4 8.4 5.5 24 5.5 28.3 0 5 .1 5.1 4.8 7.9 2.6 1.5 6.2 3.8 8 5.2 2.5 1.9 3.2 2.1 3.2.9 0-1.5-2.3-18.6-5.5-41.1l-1.4-10 3.3-7.1c1.8-4 4.3-7.9 5.6-8.8 3.7-2.6 1.5-3.7-7.3-3.6-4.5 0-8.8.3-9.4.6"/></svg>