<svg xmlns="http://www.w3.org/2000/svg" width="682.667" height="512" version="1.0" viewBox="0 0 512 384"><path d="M0 104.1v104l3.3-2.2c8.7-6.1 17.3-13.4 28.8-24.6 7-6.8 13.2-12.3 13.8-12.3s3.3 1.1 5.9 2.4 11.7 5.4 20.2 9c8.5 3.7 21.7 10.2 29.5 14.5 18.9 10.6 25.6 13.1 36.3 13.8 9 .6 21.7-1.2 30.2-4.2 4-1.4 4.8-1.3 13.7 1.1 5.3 1.4 9.9 2.2 10.3 1.7.4-.4 4.8-6.3 9.8-13.1 10.2-13.9 14.5-17.7 25.2-22.3 11.4-4.8 12.1-5.5 11.4-11.1-.4-3.7-.2-4.8 1.1-5.6 1.5-.8 1.3-1.2-1.4-3.1l-3.1-2.2-1.2 2.8-1.1 2.8-.7-4.2c-.8-5.2-1.6-6.2-2.6-3.1-.7 2.2-.7 2.2-1.5.3-.6-1.6-.8-1.5-.8 1.1-.3 10.1-3 17.2-3.2 8.1l-.1-4.2-1.4 3.5-1.4 3.5.3-4.4c.3-6-1.6-6.2-4-.4l-2 4.8-.6-8.1c-.4-4.5-1.3-9.7-1.9-11.5-1.2-3.4-1.2-3.4-1.9-.9-.6 2.3-.8 2.2-2.7-2.3-2.4-5.4-3.4-5.8-5.1-2.1s-2.5 2.2-2.2-3.7l.3-5-3.1 1.5c-5.5 2.9-6.6 2-2.8-2.4 3.8-4.5 5.4-9.5 3.5-11.7-.9-1.2-1.5-1-3.2 1.2l-2.1 2.7-7-4.8c-11.3-7.6-11-7.1-7.5-11.1 1.7-1.8 3-3.8 3-4.3s1.1-1.2 2.5-1.6c2.9-.7 8.9-7.1 11.2-11.8 1.4-3.1 1.4-3.8-.1-8.2-2-5.8-2-11.8-.2-20.4 3.6-16.8 10.1-26.2 21.9-31.6 6-2.8 6.8-2.9 22.2-3 8.8-.1 20.5-.5 26-.9 22.5-1.7 38.6 7.2 46.2 25.5l3 7.2 2.1-3.4c2.5-4 5.8-5.8 10.6-5.8 6.6 0 21.6 12.6 24.8 21 .5 1.4 1.8 7.2 2.9 13s2.2 11.7 2.5 13.2c.5 2.2.1 2.9-2.4 4.2-1.7.9-3.7 1.6-4.5 1.6-.7 0-2.1.6-3.1 1.3-1.6 1.2-1.5 1.8 1.3 10.4 3.4 9.9 9.1 37.3 7.9 37.3-.4 0-.8 1.3-.8 3 0 3.3-1.8 10.6-5 20-2.3 7-4.8 10.8-3.6 5.5.9-3.7.9-3 .6-9-.3-5.8-.6-4.7-1.5 4.9-.5 4.6-1 6.4-1.6 5.5s-.9 0-.9 2.9c0 2.4-.4 4.1-.9 3.7-.6-.3-1.4.3-2 1.2-.9 1.6-1 1.6-1.1-.5 0-1.3-.4-2.1-.9-1.7-.5.3-1.6-.2-2.4-1-1.4-1.3-1.6-1.3-1.9.3-.3.9-1.2-1.2-2-4.8-.9-3.6-1.7-5.6-1.7-4.5-.1 1.1-.7 2.7-1.4 3.7-1.1 1.4-1.5.6-2.5-5-.7-3.7-2.8-11.2-4.7-16.8-2.8-8-3.5-11.7-3.6-18.2-.1-7.2-.3-8.2-2.1-8.8-1.1-.3-2.4-.1-2.8.5-.4.7-1.5.9-2.5.5-1.6-.7-1.8-.3-1.2 3.7.4 2.4.9 5.5 1.3 6.9.5 2.3.3 2.2-3-1.2L305 133l-1.6 3.8c-1.4 3.4-1.6 3.6-2.6 1.7-1-1.7-1.3-1.4-2.8 3-.9 3-2.1 4.9-2.9 4.7-.7-.1-1 .1-.7.6s.1 2.2-.3 3.8l-.9 2.9-1-2.5c-1.1-2.8-1-3.1-4.1 7l-2.1 6.5.4-6.5c.3-6.6 0-6.1-2.3 3.5-.8 3.5-.9 2.7-1.1-6l-.2-10-1.7 3.7c-2.3 5.1-3.4 6-2.6 2.3.6-2.9.6-2.9-.9-1.1-.9 1.1-1.6 2.5-1.7 3 0 .6-.4.3-.7-.7-.7-1.6-.9-1.6-2.7-.2s-1.8 1.7-.4 2.7c1.3.9 1.4 1.8.6 4.8-.6 2-.8 4.4-.4 5.3.3.9 4.5 3.5 9.4 5.8 12.1 5.8 15.8 8.4 20 14.3 9.8 13.4 17.8 22.6 19.7 22.6 1.1 0 5.4-.9 9.7-2.1l7.7-2.1 6.8 2.1c26 7.6 36.6 5.7 67.9-11.8 6.1-3.4 17.5-8.9 25.5-12.2 8-3.4 16.6-7.2 19.2-8.5s5.7-2.4 6.9-2.4c1.5 0 6.2 3.9 13.8 11.3 11.9 11.7 20.6 19.2 28.6 24.7l4.5 3.1V0H0z"/><path d="M314.6 104.9c-4.4 11.2-4.5 13.4-.5 17.2 3.9 3.7 4.5 3.6 5.3-.2.9-4.6.7-23.2-.3-24.7-.6-.9-2 1.5-4.5 7.7m7.6 35.1c0 1.4.2 1.9.5 1.2.2-.6.2-1.8 0-2.5-.3-.6-.5-.1-.5 1.3m-102 7c0 1.4.2 1.9.5 1.2.2-.6.2-1.8 0-2.5-.3-.6-.5-.1-.5 1.3M336 175.1c0 1.3.5 3.1 1 3.9.7 1.1.8.5.4-2-.8-4.3-1.4-5.1-1.4-1.9M41.4 188.6c-5.1 5.7-5.6 6.7-4.1 7.5 1 .6 1.7 2.2 1.7 3.9 0 1.8.9 3.5 2.4 4.7 2.1 1.6 7.6 13.4 7.6 16.3 0 2-14.3 48.5-15.3 49.8-1.3 1.6-3.2-1-3.9-5.3-.3-1.7-2.6-12.3-5.2-23.7l-4.7-20.6 3-7.1c2.9-6.8 2.9-9 0-5.5-1.9 2.4-11.7 9.7-17 12.7-3.7 2.2-4.6 3.3-4.7 5.6 0 2.1.7 3.4 2.3 4.5 1.3.9 3.4 4.4 5 8.4l2.7 6.9-5.6 19.8L0 286.3V384h187.7l3.3-12.7c3.5-14 7.5-24.9 14-38.8 4.2-9 4.2-9 4.6-23 .3-10.7.1-14.7-1-17-.8-1.7-1.8-4.1-2.3-5.4-.8-2.2-1.2-1.8-4.2 4.4-4.7 9.4-9.1 13.4-29.2 26.7-33.3 22-37.4 24.4-45.9 27.3-3.6 1.2-11.3 4.3-17.3 6.9-5.9 2.5-12.7 5.1-15 5.7-5.8 1.4-18.3-.2-26.8-3.4-9.5-3.7-18.5-9.9-17.3-11.8.7-1.2 6.1-1.1 10.3.1 7.1 2 34.8-5.4 38.4-10.3 2.9-3.8 1.3-5.4-3.8-3.7-3.1 1-3.9 1-5.2-.3-2-1.9-1.2-4.1 2.4-6.4 3.9-2.6 23.6-2.6 27.6 0 1.4.9 3.3 1.7 4 1.7.8 0 11.3-7.9 23.3-17.5 12.1-9.7 24.6-19.4 28-21.6l6-4 1.2-8.4c1.1-7.2 4.5-21.1 6.7-26.7.5-1.2-.2-2.1-2.4-3.2-1.7-.9-3.5-2.5-4.1-3.7-.9-1.7-.6-2.4 1.9-4.8 1.7-1.6 3.1-3.2 3.1-3.5 0-.4-1-2-2.1-3.6-1.6-2-2-3.7-1.6-5.8l.6-2.9-6.7-.7c-8.8-.8-10.4-.7-12.2.4-1.2.8-1.1 1.2.8 3 3.2 3 8.2 13.4 8.2 17 0 4-7 45.7-8.2 48.9-.8 2.1-1.1 2.2-2.2 1-1.6-1.6-16.6-46.4-16.6-49.4 0-4.2 3.9-14.6 6.1-16.4 2.1-1.7 2.2-2.1.9-3.6-1.3-1.6-3-1.7-15.8-1.3-13.6.5-17 1.1-14.5 2.6 1.4.9 6.3 13.3 6.3 16 0 2.4-10.4 43-12.2 47.5-.6 1.5-1.6 2.6-2.2 2.4s-3.9-11.3-7.3-24.8l-6.3-24.4 2.7-7.4c1.5-4.1 3.7-8.4 5-9.5 4.2-3.6 3.1-6-5.3-11.7-7.1-4.8-17.1-9.9-22.1-11.4-1.7-.5-2.3-.2-2.3.9 0 .8.4 1.7.9 2.1.5.3 2.3 4 4 8.3l2.9 7.7-7.3 24.3c-4 13.4-7.8 24.9-8.4 25.5-.7.7-1.4.7-2 .2-.5-.6-3.3-12.1-6.2-25.7l-5.3-24.6 3.4-7.7c1.8-4.2 4.1-8 5.1-8.5 1-.6 1.9-2 2.1-3.2.3-1.9-1.2-3-10.7-7.7-6-3.1-11.3-5.7-11.6-5.9-.4-.1-3.3 2.7-6.5 6.4m409.9.8c-9.6 4.7-10.3 5.3-9.7 7.6.3 1.4 1.4 3.4 2.4 4.5s3.2 4.9 5 8.4c3.2 6.4 3.2 6.5 2.1 14-2.8 19.1-7.8 48.1-8.4 48.7-1.5 1.5-2.9-1.8-8.2-18.4-3.1-9.7-7-21.9-8.6-27l-3-9.3 2.6-8c1.5-4.3 3.1-8.1 3.6-8.4.5-.4.9-1.5.9-2.5 0-1.6-.4-1.7-2.9-1-5.5 1.5-11.9 4.8-19.9 10.1-9.4 6.2-10.6 8.7-6.5 13.1 1.4 1.5 3.8 5.7 5.4 9.3l2.8 6.6-5.3 27.4c-2.9 15.1-5.6 27.8-5.9 28.2-1.7 1.6-3.3-3-10.3-28.4l-7.4-26.8 2.6-7.7c1.4-4.3 3.3-8.2 4.2-8.7 3.3-1.8 0-2.5-14.3-2.9-16.9-.5-19.3.2-15.2 4.7 1.4 1.4 3.4 5.9 4.6 9.9l2.2 7.4-8.1 27c-4.5 14.8-8 27.1-7.8 27.3s7 5.1 15.2 11l15 10.7 4.5-.8c6.4-1.2 12.6-.8 20.1 1.1 11.1 2.9 15.6 7.1 11.5 10.5-1.3 1.1-2.2 1-4.9-.2-4.2-2.1-6-1.1-4.7 2.5.8 2 3.5 3.9 10.8 7.6 12.5 6.2 18.9 8.1 27.7 8.1 3.9 0 7.8.5 8.6 1 1.3.9 1 1.4-1.5 3.6-4.6 3.9-7.3 5-16.3 6.9-8 1.8-8.8 1.8-17.8.1-7.6-1.5-10.8-2.7-17.6-6.7-7.7-4.6-12.9-7.2-32.8-16.6-7.7-3.6-40.3-22.4-47.6-27.4-6.8-4.6-10.3-9.6-13.8-19.4-.6-1.7-1.1-1.1-2.7 3-1.9 4.8-2 5.3-.4 16 1.2 7.6 1.3 11.1.6 11.3-1.8.6-1.4 1.8 5.5 17 7 15.6 10.8 26.2 14.4 40.9l2.2 9.3H512V274.4l-4.6-11.4-4.6-11.5 1.8-7.7c1.1-5 2.5-8.5 3.9-9.8 3.7-3.5 2.3-7.2-4.4-11.6-3.1-2-8.5-6-12.1-8.8l-6.4-5.1 3.6 6.7 3.7 6.7-3.4 25.3c-3.9 28.7-4.3 30.8-5.5 30.8-1.5 0-2.7-2.9-12-29l-8.9-24.9 2.5-7.9c1.3-4.3 3.3-8.7 4.4-9.7s2-2.9 2-4.3.7-3.3 1.5-4.2c1.3-1.5 1-2.2-3.3-7.6-2.7-3.4-5.6-5.9-6.7-6s-6.6 2.2-12.2 5"/><path d="M327.5 218.8c-.5.4-1.1 2.3-1.2 4.1-.1 1.9-1.1 4.4-2.2 5.4-1.8 1.9-1.9 2.1-.3 4.6.9 1.4 2 2.9 2.5 3.2 1.7 1.2.2 4.4-3.1 6.4-1.8 1.1-3 2.6-2.8 3.5.2.8 1.4 5.1 2.6 9.5s2.4 11.8 2.7 16.5l.6 8.5 8.6 5.1c4.7 2.9 8.7 5.1 8.9 4.9.1-.1-1.6-12-3.9-26.4l-4.2-26.1 2.9-6.8c1.5-3.7 3.9-7.7 5.2-8.9s2.1-2.7 1.7-3.2c-.7-1.2-16.4-1.5-18-.3"/></svg>