<svg xmlns="http://www.w3.org/2000/svg" width="682.667" height="512" version="1.0" viewBox="0 0 512 384"><path d="M280.5 15.5c-10.8 2.4-21.5 8.4-21.5 12.1 0 1.1-.4 1.2-1.9.4-2.5-1.3-11.5-1.3-16 0-1.9.5-4.5 1.9-5.7 3.1l-2.3 2.2-1.2-2.7c-1.5-3.3-8-5.4-19.4-6.2-6.4-.5-10.3-.2-18.5 1.6-5.8 1.2-11.3 2.9-12.2 3.8-2.3 1.9-3.4 7.8-1.9 10.5 1 2.1 3.4 8.2 3.1 8.2-.2 0 5.8 14 8.4 19.5 3.4 7.3 5 9.2 8 9.4 2.4.1 2.6.4 2.6 5.2 0 5.2 2.3 12.3 4.4 13.6.6.4.8.8.4.8s-.3 1.1.2 2.6c.8 1.9.5 3.4-1 6.4-1.1 2.2-2 5.1-2 6.5s-1 4.5-2.2 6.8c-1.6 3.3-2.1 6.1-2.2 12.8-.1 7.2.1 8.3 1.2 7 1.1-1.4 1.2-1 .7 2.2-.5 3.4-3.2 9.3-5.5 12.2-.9 1.1-7.8 14.1-12.8 24-2.5 5.1-5.8 14.8-6.7 20-.4 2.2-1.1 4.7-1.6 5.5-1.9 3.8-2.8 29.2-1.9 53.5.3 8.1-1.1 13.3-6.6 23.7-2 3.7-1.8 4.9 1.5 9.3l2.8 3.8-2.6 5.1c-2.1 4.3-2.6 6.7-2.9 14.9-.3 8.3-.1 10.1 1.4 11.8 1.6 1.8 1.6 2.4-1.6 13.7-5.3 18.6-5 27 1.1 30.2 1.9 1.1 1.9 1.3.5 3.5-1.8 2.7-2 3.5-.8 3.5.5 0 1.5-1.2 2.2-2.8 1.2-2.5 1.3-2.6 2-.7.4 1.1.5 2.5.3 3.1-.2.7 0 1.5.6 1.9.7.4 1.1-.8 1.1-3.5 0-3.3.6-4.8 2.8-6.8 3.5-3.4 17.6-26.1 23.8-38.4 11.7-23.3 18-49.9 20.5-86.1.9-12.5.9-19.4.1-25.1-.9-6.6-.8-8.5.4-10.8.8-1.5 1.8-2.8 2.2-2.8.9 0 3.4 7.5 5.8 17 1.3 5.2 1.5 9.2.9 20-.3 7.4-.6 17.1-.7 21.5 0 5.9-.5 8.8-1.8 11.2-2.9 5-6.5 15.8-10.5 31-3.6 14-5.2 18.1-22 56.8-4.7 11-8.9 20.6-9.2 21.2-.4 1 16.1 1.3 80.4 1.3h80.9l-6.9-24.5-7-24.5 1.8-5.5c1.4-4.7 2.3-5.9 5.4-7.3l3.6-1.7.1-11.1c.1-9.1.6-12.6 2.9-19.7 3.2-10 3.3-9.3-5-27.2-8.4-17.9-21.5-54.7-21.5-60.3 0-1.1 1.1-4.5 2.5-7.6 1.4-3.2 2.3-6.2 2-6.7-.4-.5-3.3-.9-6.5-.9h-5.9l-1-5.3c-.6-2.8-1.5-9-2.1-13.7s-2-10.4-3.1-12.7c-2.3-4.8-8.4-10.4-14.1-13.1-4.1-1.9-4.4-2.5-2.3-6.2 1.9-3.3 1.9-3.7-.5-4.3-2.5-.6-2.5-2.3 0-8.7 1.3-3.2 2.4-9.5 3-16.7.5-6.3 1.4-12.1 2-12.8s3.8-1.8 7.2-2.4c10.6-1.8 10.4-5.5-1.1-19.1-2.6-3-5.4-6.4-6.1-7.4-1.4-1.8-1.3-1.8.5-.9 1.1.6 4.8 1.4 8.1 1.8 6.9.8 7.5.4 8.1-5.3.2-1.9.7-4.2 1.2-5.1.4-.9.8-8.6.7-17.2-.1-13.4-.4-16-1.8-17.6-1-1.1-1.8-2.3-1.8-2.8 0-3.5-15.4-4.7-27.5-2m-60.8 173.7c-.3.7-.5.2-.5-1.2s.2-1.9.5-1.3c.2.7.2 1.9 0 2.5"/><path d="M197.7 128.7c-.4.3-.7 1.1-.7 1.7s.5.5 1.2-.2c.6-.6.9-1.4.7-1.7-.3-.3-.9-.2-1.2.2"/></svg>