<svg xmlns="http://www.w3.org/2000/svg" width="682.667" height="512" version="1.0" viewBox="0 0 512 384"><path d="M0 104v104.1l8.2-6.3c4.5-3.5 13.4-11.4 19.7-17.7 15.7-15.4 14.6-14.9 21.8-11.3 3.2 1.6 12.3 5.7 20.3 9.1 8 3.3 20.6 9.5 28 13.6 21.4 11.9 26.5 13.7 39.2 14.3 9.4.4 12.4.1 22.9-2.4l12-2.8 8.7 2.2 8.7 2.2 3.3-3.8c1.9-2 6.1-7.7 9.5-12.5 7.5-11.1 10.8-13.8 24.4-20.7l10.8-5.5V161c0-4.9.2-5.5 2.3-5.8 2.9-.4 2.8-2.6-.3-4.6-3.6-2.4-4.3-2-5.6 2.6l-1.2 4.3-.9-3.3c-.4-1.7-1.2-4.7-1.7-6.5l-.9-3.2-.1 2.8c-.1 1.8-.6 2.7-1.3 2.4-.9-.2-1.7 1.6-2.4 5.7-.8 4.2-1.2 5.1-1.3 2.9 0-1.7-.4-3.9-.8-4.9-.6-1.6-.7-1.6-1.4.2-.5 1.3-.8.6-.9-2.6-.1-2.5-.6-5.6-1.1-7-.6-1.7-.7-.7-.4 3.4.5 5 .3 5.7-.9 4.7-1.1-.9-1.6-.6-2.7 2.1l-1.3 3.3-.3-3.5c-.1-1.9-.8-6-1.5-9-1.2-5.1-1.3-5.3-1.9-2.5-.6 3-.6 2.9-3.3-2.8-1.5-3.1-2.9-5.7-3.1-5.7s-1.2 1.5-2.4 3.2l-2.1 3.3v-6.4c0-6.1-.1-6.3-2.2-5.6-1.3.3-3.4.9-4.8 1.2-2.5.6-2.5.5.6-2.8 1.7-1.9 4.1-5.1 5.3-7.2 2.1-3.4 2-4.2-.1-3.8-.5 0-.8-.8-.8-1.9 0-2.6-1.7-2.6-2.5 0-1 3.3-3.9 2.3-12.7-4.1-10.9-8-10.4-7.5-8.4-9.8 1-1.1 2.1-3.5 2.5-5.3.6-3 1.1-3.3 4.5-3.6 3.2-.3 4.9-1.3 9.3-5.9 4.7-4.7 5.4-6 4.8-8.2-1.6-6.4-1.7-17.2-.1-24.3 4.2-18.7 13.3-29.5 28.4-33.3 5.1-1.3 10.9-1.6 32.5-1.3 24.9.3 26.5.4 32.2 2.7 8.5 3.4 19.1 14.1 22.9 23.2l2.8 6.7 2.7-1.4c1.4-.8 3.5-1.4 4.5-1.4 1.1 0 4-1.2 6.5-2.7 3.7-2.2 5.9-2.7 10.9-2.8 5.5 0 6.6.3 8.3 2.3 4.4 5.5 6.1 21.3 3.3 30.2-2 6.4-2.4 17.4-.6 19.2 1.7 1.7 1.5 5.5-.3 6.5-1.3.7-1.3 1.5.1 5.8 2 6.5 8.3 35.9 7.8 36.4-.2.2-.9-.9-1.6-2.5-1.1-2.7-1.2-2.4-1.8 5.1-.7 8.6-5.4 24.2-7.8 26.2-.8.6-1.1 1.6-.7 2.2 1 1.7-.2 1.3-2.1-.7-1.7-1.6-1.8-1.6-1.1.1 1 2.6-.3 7.4-1.4 5.5-.6-.9-.9-.1-1 2.2l-.1 3.5-1.3-4.5c-.7-2.5-1.3-3.9-1.4-3.3-.1.7-.7 1.2-1.3 1-1.6-.3-3.7-7-3.9-12.2-.2-4-.2-4-1.2 1.2-.5 2.9-1.3 5.3-1.6 5.3-.4 0-1.3-4-2-8.9-.7-5-2.1-11.2-3.1-13.9-1.5-3.9-4-18-4-22.4 0-.5-2.3-.8-5.1-.8h-5.2l.7 5.2c.3 2.9.9 6.4 1.2 7.8.5 2.3.2 2.2-2.9-1.2l-3.4-3.8-1.6 4.2c-1.6 3.9-1.8 4-3 2.4-1.2-1.7-1.5-1.4-2.7 2.8-1.4 4.9-2.9 6.9-3.1 3.9-.1-1.3-.3-1-.9.7l-.7 2.5-1.1-2.5-1-2.5-1 2.5c-.6 1.4-1.8 4.7-2.5 7.5l-1.5 5-.2-4.5-.2-4.5-1.3 4.5-1.2 4.5-.8-5.4c-.8-5.3-.8-5.4-2.2-2.7-.7 1.4-1.6 2.6-1.9 2.6s-.2-.5.1-1c.3-.6.1-1-.5-1s-1.3.7-1.7 1.6c-.8 2.1-2.2-.1-2.4-3.6 0-1.4-.3-1.9-.6-1.2-.2.6-.9.9-1.4.6-1.4-.9-3.9 1.5-3.9 3.8 0 1.5.5 1.8 2 1.3 2.7-.8 3.5 1.5 2.1 5.6-1.5 4.3-.7 5.1 11.3 11.1 12.3 6.2 14.6 7.9 18.7 13.7 6.5 9.1 18.2 23.1 19.3 23.1.6 0 4.4-.9 8.4-2 9.1-2.5 9.5-2.5 22 .6 9 2.2 12 2.5 21.6 2.2 13.2-.5 16.2-1.6 39.6-14.3 8.5-4.6 20.5-10.5 26.5-13 6.1-2.6 14.8-6.4 19.3-8.6 4.6-2.1 8.9-3.9 9.4-3.9.6 0 6.7 5.5 13.7 12.3 11.9 11.6 17.7 16.7 26.4 23.1l3.7 2.8V0H0z"/><path d="M315.6 101.5c-4.3 11.4-4.3 16.9-.1 21.1 2.9 2.9 4.2 3 5 .5.9-3 .7-25.2-.2-28.5-.8-2.8-1.1-2.3-4.7 6.9m-69.7 42.8c1.6 1.6 12.4 2 15.9.6 3.2-1.3 2.8-1.4-6.7-1.4-5.5 0-9.6.4-9.2.8M39.1 189.7c-2.8 3.2-5.1 6.2-5.1 6.6 0 .5.7 1.6 1.6 2.4.9 1 1.3 2.5 1 3.8-.4 1.7.1 2.7 1.8 3.9 1.6 1 3.2 4 5 9.4l2.6 7.8-8.9 24.8c-4.9 13.7-9.4 25.3-10 25.9-1.8 1.8-2.9-2.8-7.1-28.1L16 222l3-6c1.7-3.3 2.8-6 2.4-6-.3 0-2.6 1.8-5.1 3.9-2.4 2.2-7.1 5.7-10.4 7.8-6.9 4.5-7.4 6.5-3.4 14.7 1.3 2.8 3 7.1 3.6 9.6 1.1 4.3.9 5.3-2.5 15.1L0 271.7V384h187.8l2.2-9.2c3-12.5 7.9-26.4 13.6-38.4 4.1-8.7 4.7-10.8 4.9-17.4.1-4.1.5-11 1-15.2.6-6.2.5-8.3-.8-11.1-.9-1.9-2-4.4-2.5-5.6-.7-2-1.3-1.1-5 6.3-5.8 11.6-6.4 12.1-45.8 37.9-18 11.8-22.1 14-31.4 17.3-3.6 1.2-12.6 4.8-20 7.9-13.5 5.6-13.5 5.6-21.2 5-9.3-.8-22-5.1-29.6-10.1-7.6-5.1-6.7-8.2 1.9-6.2 6.8 1.6 17.7.2 29.9-3.8 8.8-2.8 11.3-4 12.2-5.9 1.5-3.4.4-5.9-2.1-4.5-3.2 1.7-6.9 1.2-7.6-1-1.3-4.2 3.2-6.5 15-7.5 6.3-.5 8.9-.3 12.5 1 9.1 3.4 7.5 4.2 32-15.5 12.4-10 25-19.7 28.1-21.6l5.5-3.5 1.2-8.7c.6-4.8 2.3-12.5 3.7-17.2 1.5-4.7 2.8-9.2 3.1-10 .2-.9-.9-2.3-2.8-3.5-5.2-3.3-5.5-4.7-1.8-8.3l3.1-3.2-2-2.9c-1.2-1.6-2.1-4.5-2.1-6.4 0-3.4-.1-3.4-5.2-4.1-8.1-.9-11.2-.7-13.4.8-1.8 1.4-1.8 1.5.7 3.5 1.6 1.2 3.6 4.9 5.3 9.4l2.7 7.4-3.6 13.9c-8.1 31.1-9.7 36.9-10.4 37.7-1.3 1.3-2.8-1.5-4.4-8.3-6.9-28.3-9.7-40.6-9.7-43.1 0-4.2 4.5-14.7 7.2-16.8 2-1.7 2.1-2.1.8-3.6-1.3-1.6-2.9-1.7-14.5-1.2-7.1.3-14 .9-15.3 1.2-2.1.7-2.1.9-.7 2.5.8.9 2.6 4.9 3.9 8.8l2.4 7.1-7.7 23.8c-8.5 25.9-9.7 29.1-11.3 27.5-.5-.5-3-12.4-5.4-26.3l-4.5-25.3 3.2-7.4c1.8-4 4.2-8.1 5.4-9 4.3-3.4 3-6.3-5.4-11.9S83.5 198 80.8 198c-2.2 0-2.2 1-.3 4.7.8 1.5 2.3 5.6 3.3 9.1l1.9 6.3-4.2 11.7c-2.3 6.4-6.2 17.4-8.6 24.4-4.7 13.9-6.5 17.1-7.8 14.9-.5-.7-2.3-10.6-4-21.9-1.8-11.4-3.7-22.9-4.2-25.5-.8-4.5-.6-5.3 3.1-12.7 2.2-4.3 4.6-8.2 5.3-8.7.8-.4 1.6-1.8 1.9-3 .5-2-.6-2.8-10.5-7.8-6-3-11.4-5.5-11.8-5.5s-3 2.6-5.8 5.7m414.7-.2c-9.6 4.9-10.6 5.7-10.1 7.7.4 1.3 1.2 2.6 1.9 3.1.7.4 3.1 4.1 5.4 8.2l4.1 7.4-1.1 8.3c-3.2 23.3-7.1 47.3-7.8 48-.5.5-1.3.3-1.9-.4-1.2-1.5-17.3-48-18-51.9-.6-3.1 3.3-16.3 5.3-18 .8-.6 1.4-1.8 1.4-2.7 0-3.7-11.9 1.1-25.1 10.1-8.6 5.8-9.5 8.1-4.8 12.7 1.4 1.4 3.9 5.4 5.5 8.8l2.9 6.4-3.9 26.6c-2.1 14.7-4.3 27.5-4.8 28.5-.9 1.8-1 1.8-2.2 0-.7-1-5.1-13.5-9.7-27.8l-8.5-26 2.3-7.4c1.2-4 2.9-8.1 3.8-9.1 1.5-1.6 1.4-1.8-.7-2.4-1.3-.4-8.2-1-15.3-1.3-11.6-.5-13.2-.4-14.5 1.2s-1.2 2 1.1 3.9c1.4 1.1 3.8 5.4 5.3 9.4l2.8 7.2-5.2 26.8c-5.3 27-6.4 31.2-8.1 29.5-.9-.9-13.5-47.1-14.5-53.5-.8-4.6 3-16.3 6.2-19.3 3.8-3.5 1.7-5-7-4.9-11.2.2-12.3.6-11.8 4.7.3 2.8-.2 4-2.4 6.1-1.6 1.4-2.3 2.6-1.6 2.6s1.7 1 2.2 2.2c.6 1.3 1.6 3.1 2.2 4.1 1.1 1.6.9 2.2-1.4 4.2-1.5 1.2-3.2 2.5-3.8 2.7-.8.2-.4 3.5 1.5 10.7 1.4 5.6 2.8 13.8 3.2 18.1l.6 7.8 7.5 4.8c4.2 2.7 15.2 10.4 24.5 17.1 9.3 6.8 17.8 12.8 18.8 13.4 1.1.5 5.1.7 9.7.3 14-1.2 30.2 3.9 30.2 9.4 0 3-2.4 3.8-6.7 2.3-2.4-.9-3.8-1-4.5-.3-2.2 2.2 2.2 6.2 12.1 11.1 12.1 6.1 20.7 8.5 28.2 7.8 6.5-.6 9.7.6 7.8 2.9-2.7 3.2-10.3 6.7-18.6 8.4-7.9 1.6-9.4 1.7-17.6.3-10.2-1.6-9.3-1.2-23.9-10-5.9-3.5-13.1-7.2-16-8.2-7.3-2.5-13.3-5.6-34-17.7-28.6-16.6-32.1-19.3-36.5-27.8l-2.5-5-1.4 2.7c-.8 1.5-1.9 2.7-2.5 2.7-1.2 0-.3 11.9 1.2 17.4.6 1.9.5 4.1-.2 6.1-1 2.7-.5 4.2 4.6 15 6.3 13.3 12.3 30 15 41.7l1.8 7.8H512V267.5l-3.2-7.9-3.1-7.8 1.7-7.3c.9-4 2.4-8.1 3.1-9.1.8-1.1 1.4-3.7 1.5-5.9 0-3.8-.3-4.2-6.2-8-3.5-2.2-8.9-6.2-12.2-8.9l-5.8-4.9 2.7 4.9c1.5 2.7 3.4 5.8 4.1 7 1 1.8.8 5.2-1.2 20.5-1.3 10.1-2.9 22.3-3.5 27-1.2 9.5-2.2 12-3.9 10.3-.6-.6-5.4-12.7-10.6-27l-9.6-25.9 2.2-7.5c1.3-4.4 3.2-8.6 4.7-10.2 1.7-1.7 2.3-3.3 1.9-4.4-.4-1 .1-2.5 1.3-3.8 1.9-2.1 1.9-2.1-3.2-8.4-2.8-3.4-5.8-6.2-6.6-6.1-.9 0-6.4 2.4-12.3 5.4"/></svg>