<svg xmlns="http://www.w3.org/2000/svg" width="682.667" height="512" version="1.0" viewBox="0 0 512 384"><path d="M0 103.5C0 160.4.3 207 .6 207c1.6 0 16-12.5 27.3-23.7 7-6.9 13.3-12.3 14.3-12.3s4 1.1 6.6 2.4 10.8 4.9 18.2 8c7.4 3.2 17.8 8 23 10.8 34.2 18.2 34.3 18.3 49.5 18.2 8.7-.1 13.2-.7 21.3-2.9l10.3-2.7 9.1 2.3 9 2.4 2.9-3.5c1.7-1.9 6-7.7 9.6-12.8 8.2-11.6 11.4-14.3 25-21.2l10.8-5.5V161c0-4.8.3-5.5 1.9-5.5 2.9 0 3.2-2.6.5-4.6-3.5-2.7-4.4-2.4-5.9 2.1-1.7 5-3 5.1-3.1.2-.1-2-.4-5.1-.8-6.7-.7-2.9-.7-2.9-1.5 1.5-.8 4-.9 4.2-1.6 2-.5-2-.8-1.4-1.4 3.3-.8 6-2.6 6.9-2.6 1.4l-.1-3.2-1.5 3-1.4 3 .4-4.6c.3-2.5.1-5.9-.4-7.5-.7-2.5-.8-2.2-.9 2.6-.1 3.8-.4 5-1.1 4-.8-1.2-1-1.2-1.4.3-1.6 4.9-1.9 5.3-2.3 2.7-.8-6.4-2.7-14.1-3.4-14.6-.5-.3-.6.1-.3.9s0 1.8-.6 2.2c-.7.4-1.9-1.3-3.2-4.4-1.9-4.5-3.8-6.6-3.8-4.4 0 .5-.8 1.8-1.8 3.1-1.7 2.1-1.7 2-1.4-4.3l.4-6.5-3.7 1.6c-5.6 2.3-6.1 1.3-2-3.6 5.6-6.7 6.1-8.4 3.7-11l-2-2.2-1.2 2.2c-.7 1.3-1.9 2-3.1 1.8-2-.3-18.8-12.8-18.9-14.1 0-.4.9-1.6 2-2.7s2-3.3 2-4.9c0-2.9 1.8-4.1 6.5-4.1 2 0 7.6-5.1 10.8-9.9 1.2-1.8 1.3-2.9.5-5-.6-1.4-1-6.3-1-10.8.2-21.1 9.8-38.4 24.7-44.4 5.9-2.3 6.7-2.4 35-2.4h29l7.5 3.6c9.5 4.5 16 11.1 20.6 20.5 1.9 3.9 3.4 7.6 3.4 8.3 0 .8.8.6 2.4-.5 1.4-.8 3.3-1.4 4.3-1.3 1 .2 4-1 6.7-2.5 5.5-3.3 13.1-4.5 17.5-2.7 7.4 3.1 10.3 26.1 4.6 37.1-1.9 3.6-1.5 8.1 1.2 14.4 1.6 3.7 1.6 3.9-.2 5.3-1.1.8-1.8 2-1.6 2.6 2.2 7.4 4.4 16.4 6.5 26.6 2.5 11.9 2.8 16.3.7 10.7-1.6-3.9-2.4-3.1-1.8 1.6.9 6.7-4.8 26.3-9.2 31.5l-2.3 2.8.5-4.5c.4-3 .3-3.8-.3-2.5-.5 1.1-.9 3.7-.9 5.8-.1 2.3-.5 3.6-1.1 3.2s-1 .8-1.1 2.7l-.1 3.3-1.3-4c-.7-2.2-1.3-3.4-1.4-2.7s-.5 1-1.1.7c-.5-.3-1.1 0-1.1.7-.2 1.8-1.9-6.7-2.4-12.1-.5-5-1.7-7.1-1.4-2.5.1 1.6-.4 4.2-1.1 5.9-1.3 2.9-1.4 2.8-2.2-4.5-.4-4.1-1.9-11.1-3.3-15.5-1.4-4.3-2.9-11.4-3.2-15.7l-.6-7.8h-11l.7 3.7c.3 2.1.8 5.6 1.2 7.8l.5 4-3-3.4c-3.3-3.7-4.6-3.5-5.6.9-.7 3.4-1.3 3.7-2.9 1.4-1-1.3-1.4-.7-2.5 3.5-1.3 5.2-2.6 6.5-3.4 3.3-.3-1-.5-.5-.7 1.3l-.2 3-1.3-3-1.3-3-1.1 2.5c-.5 1.4-1.7 4.7-2.4 7.5l-1.5 5-.2-4.5-.2-4.5-1.3 4.5-1.2 4.5-.8-5.4c-.8-5.3-.8-5.4-2.2-2.7-1.6 3-2.5 3.5-1.7.8.4-1.2 0-1.1-1.5.6l-2 2.3-.7-2.8c-.3-1.5-.6-3.1-.7-3.5-.4-1.7-5.2 1.9-5.5 4.1-.3 1.9 0 2.2 1.7 1.6 2.8-.8 3.7 1.5 2.2 5.6-1.5 4.3-.7 5.1 11.3 11.1 12.4 6.2 14.9 8.1 19.3 14.3 6.2 8.6 17.7 22.5 18.6 22.5.6 0 4.9-1 9.8-2.2l8.7-2.2 11.3 2.8c10 2.5 12.6 2.8 22.9 2.4 13.2-.6 18.6-2.4 35.7-12.1 5.4-3 12.7-6.9 16.3-8.7 8.2-4.2 39.8-18 42.5-18.7 1.6-.3 4.9 2.4 14.5 11.8 12.2 12 26.2 23.9 28.1 23.9.5 0 .9-39.8.9-103V0H0z"/><path d="M315.7 101.7c-3.6 10-3.8 10.8-2.7 15.4 1 3.9 1.9 5.3 4.2 6.5 1.6.9 3.3 1.3 3.6.9 1.1-1.1.8-29.8-.3-31.7-.8-1.3-1.8.6-4.8 8.9m-69.8 42.6c1.6 1.6 12.4 2 15.9.6 3.2-1.3 2.8-1.4-6.7-1.5-6 0-9.8.3-9.2.9m209.4 44.6c-10.4 5.2-11.1 5.8-10.6 8.1.3 1.4 1.2 2.9 2 3.3.7.5 3.1 4.4 5.3 8.7 3.8 7.5 3.9 8.1 3 13.2-.5 2.9-1.1 6.9-1.4 8.8-2.2 15-6.9 40.7-7.6 41.4-1.3 1.3-3.2-3.2-11.9-29.5l-8.1-24.6 3-8.4c4.8-12.8 4.8-13 1.4-12-6 1.8-11.2 4.4-20.1 10.3-8.1 5.3-9.3 6.4-9.3 8.9 0 1.8.7 3.2 2 3.9 1.1.6 3.7 4.5 5.7 8.8l3.6 7.7-4.1 26.9c-2.3 14.9-4.6 27.4-5 27.8-.5.5-1.4.3-1.9-.4-.6-.7-4.9-13-9.7-27.3l-8.6-26 2.3-7.2c1.3-4 3.1-8.1 4.1-9.1 1.6-1.9 1.6-2-.6-2.6-1.3-.4-8.2-.9-15.3-1.3-11.5-.5-13.3-.4-14.8 1.1-1.6 1.6-1.5 1.9 1.1 4.1 1.7 1.4 4 5.3 5.6 9.5l2.9 7.2-4.3 25c-5.1 30.2-5.7 32.6-7.5 30.7-.7-.8-2.9-7-4.9-13.9-5.3-17.8-9.6-32-10.7-35.4-.5-1.6-.9-4.1-.9-5.5 0-4.3 3.7-15.2 6.1-17.7 1.1-1.2 1.8-2.7 1.4-3.3-.7-1.2-16.2-1.6-18.9-.5-1 .4-1.3 1.4-1 3.3.4 2-.1 3.6-2.2 6.1-1.9 2.2-2.4 3.5-1.6 3.8.6.2 1.2.9 1.2 1.5s1 2.2 2.3 3.5l2.2 2.4-2.6 2.1c-1.4 1.2-3.3 2.6-4.2 3.2-1.5.9-1.4 1.8.7 10 1.3 4.9 2.7 11.7 3 15 1.4 12.7 1 11.9 9.1 17 4.1 2.5 14.6 9.8 23.2 16.2 22.3 16.4 20.3 15.4 29.8 14.7 14-1.1 29.5 3.7 30.3 9.4.4 2.9-2.1 3.8-6.5 2.3-4.4-1.6-5.9-.4-4.2 3.3.9 1.9 4 4 11 7.6 11.2 5.5 22.7 8.5 29.9 7.7 3.2-.4 5.4-.1 6.6.8 1.1.7 1.7 1.5 1.4 1.7-4.8 4-11 6.8-19 8.6-8.9 2.1-10 2.1-18.1.8-9-1.5-13.4-3.3-26.6-11.3-4.4-2.7-9.6-5.5-11.4-6.2-10.6-3.9-16.3-6.8-33.9-17.1-31.8-18.5-36.7-22.3-40.2-31l-1-2.5-1.1 2.2c-1.2 2.8-2.2 2.9-3.7.5-1.3-2-.6 8.5 1.2 18 .8 4.4.8 6.1-.2 7.2-1.5 1.9-1 3.4 5.6 17.1 5.9 12.4 11.2 27.3 13.9 38.7l1.8 7.8H512V266.5l-3-7.7-2.9-7.7 2.9-9.1c3.7-11.3 3.9-17.2.8-18.7-1.3-.6-6.2-4-11-7.7-4.9-3.6-8.8-6.4-8.8-6.2s1.6 3.2 3.5 6.6c2 3.5 3.3 7 3 7.9-.2.9-1.1 6.1-2 11.6-4.4 29-6.4 40.8-7.3 41.7-1.5 1.5-2.8-1-8.2-16.7-2.8-8.3-6.9-19.8-8.9-25.7l-3.8-10.8 2.4-7.2c1.3-4 3.5-8.4 4.9-9.9 1.3-1.4 2.4-3.6 2.4-4.9s.7-3.1 1.5-4c1.3-1.5.9-2.3-4-8.3-3.1-3.7-5.9-6.6-6.3-6.6-.4.1-5.7 2.7-11.9 5.8m-417.8 1.8-5.5 6.7 2.1 1.9c1.2 1.1 1.8 2.6 1.4 3.5-.3.9.5 2.6 2 4.2 1.3 1.4 3.6 5.9 5 9.9l2.5 7.4-9.1 25.6c-4.9 14.1-9.4 26-9.9 26.5-1.6 1.6-2.9-3.4-6.6-25.4-1.9-11.8-3.8-22.9-4.1-24.6-.4-2.2.4-4.8 2.6-9.3 1.7-3.5 3.1-6.5 3.1-6.7s-2.6 1.7-5.7 4.2c-3.1 2.6-7.9 6-10.5 7.6-4.4 2.7-4.8 3.3-4.8 6.9 0 2.2 1.4 8.1 3.1 13l3.2 9-3.2 9.2-3.1 9.2V384h187.6l2.6-10.2c3.1-12.5 8.6-27.3 14.3-38.8 3.6-7.5 4.1-9.3 3.9-14-.2-3 .1-9.6.7-14.7 1-7.9.9-9.5-.5-12-.9-1.5-2.1-4.1-2.6-5.7-1-2.9-1.1-2.8-4.9 5-5.9 12-10.6 15.9-51.9 42.3-11.1 7.1-24.4 14.1-26.9 14.1-.7 0-5.4 1.8-10.5 4.1-18.6 8.1-22.2 9.1-31.2 8.3-4.7-.4-10.4-1.6-13.6-2.9-3-1.2-6.6-2.6-8-3-3.3-1-13.3-8.5-12.5-9.3.4-.4 6.4-.7 13.3-.7 13 0 14.1-.2 29.4-5.7 6.4-2.2 9.8-5.9 7.8-8.3-.9-1.1-1.7-1.2-3.2-.4-1 .6-3.1.9-4.6.7-2.1-.2-2.7-.8-2.7-2.8 0-4.1 5.4-6 17.1-6.2 8.5-.2 10.5.1 14.1 2l4.1 2.1 3.9-2.5c2.1-1.5 6.1-4.5 8.8-6.9 12-10.1 32.6-26.2 38.8-30.3 7-4.7 7.2-4.9 8.2-14.2.6-5.6 5-23.3 6.5-26 .6-1.1-.1-2-2.8-3.5-4.8-2.6-5.3-5.7-1.5-8.9l2.8-2.4-2.4-4.2c-1.4-2.6-2.1-5-1.7-6.4.7-3-1.2-3.6-11.2-3.6-8.5 0-10 1.4-6 5.8 1.4 1.5 3.5 5.6 4.7 9.2l2.2 6.5-7.2 25.1c-3.9 13.8-7.5 25.7-7.9 26.5-.7 1-1.2 1.1-2 .3-.6-.6-3.5-12.7-6.5-27l-5.5-25.9 3.2-7.4c1.8-4 4.3-8 5.6-8.9 1.8-1.2 2-1.7 1-3-1.1-1.2-3.7-1.4-16-1-8.2.3-15.1.8-15.5 1.1-.3.4-.1 1.3.6 2 .6.8 2.3 4.7 3.6 8.8l2.5 7.3-8.1 24.5c-4.5 13.5-8.7 25.7-9.4 27-1.2 2.3-1.3 2.4-2.2.5-.6-1-3-13.4-5.3-27.4l-4.3-25.5 3.8-7.5c2.1-4.1 4.6-8.1 5.6-8.8 3.7-2.6 2.4-5.8-4.3-10.5-8.5-6-21.7-12.7-24.9-12.7-1.2 0-1.2 3.7.1 4.5.5.3 2.1 4.2 3.4 8.6l2.4 7.9-4 11.3c-2.1 6.1-5.9 16.9-8.3 23.9-5.4 15.8-6.7 18.4-8.2 16.6-.6-.7-2.9-13.1-5.2-27.6l-4-26.4 2.9-5.7c1.6-3.2 4-7.1 5.3-8.7 5.1-6.1 4.9-6.5-7.9-12.7-6.3-3.2-11.7-5.7-12-5.7-.2 0-2.8 3-5.9 6.7"/></svg>