<svg xmlns="http://www.w3.org/2000/svg" width="682.667" height="512" version="1.0" viewBox="0 0 512 384"><path d="M0 103.6C0 186.1.3 207 1.3 206.4c3.9-2.3 10.8-8.4 23.9-21.1 8-7.9 15.4-14.3 16.3-14.3.8 0 3.5 1 5.8 2.1 2.3 1.2 10.9 5 19 8.5 8.2 3.4 21.9 10.1 30.5 14.7 24.7 13.3 27.3 14.1 42.2 14.1 10.6 0 14-.4 22.2-2.7l9.7-2.7 7.8 2c4.2 1.1 8.5 2 9.4 2 1.1 0 4.8-4.1 9.4-10.2 14.2-19.2 16-20.9 28.5-26.3 11.2-4.9 12.1-5.8 11.8-11.8-.3-4.6-.1-5.2 1.7-5.2 2.8 0 3.3-3.5.6-4.2-1.2-.3-2.1-.9-2.1-1.4s-.6-.9-1.4-.9-2 1.7-2.6 3.7c-1.8 5.6-3 6.3-3.1 1.8-.1-2.2-.4-5.4-.8-7l-.7-3-.7 3.5c-.6 2.5-1 3.1-1.6 2.1-.6-.9-1.3 1.1-2.2 6l-1.4 7.4-.4-6.5-.3-6.5-1.3 3.5c-1.3 3.5-1.4 3.4-1.6-4-.2-6.4-.3-6.8-.6-2.3-.3 3.9-.7 5.1-1.8 4.7-.9-.4-1.6.6-2.1 2.8-.8 3.3-.8 3.3-1.5-1.7-.3-2.8-1.2-7-2-9.5-1-3.5-1.4-4-1.7-2.3-.6 3.6-1.6 2.7-3.6-2.7-1-2.8-2.2-5-2.7-5s-1.5 1.3-2.4 3c-.9 1.6-1.8 3-2.2 3-.3 0-.3-2.9 0-6.5l.6-6.5-3.6 1.5c-6.2 2.6-6.5 1.7-1.3-4.7 4.7-5.8 5.8-8.6 3.1-8-.6.1-1-.1-1-.5.5-3.1-.3-3.6-2-1.4-1 1.3-2.5 2.2-3.4 2-2.3-.5-18.6-13.2-18.7-14.5 0-.6.9-1.9 2-2.9s2-3 2-4.5c0-2.9 1.5-4 5.5-4 1.5 0 4.2-1.9 7.5-5.3 5.1-5.2 5.1-5.2 4.3-9.7-1.4-8-.7-20.2 1.6-28.1 4.1-13.5 10.8-22 21.1-26.7 5.1-2.3 7.1-2.5 29-3.4 26.9-1.1 35.2-.3 44.6 4.1 3.4 1.6 8 4.6 10.3 6.6 4.5 4.1 10 12.8 12 18.8.7 2 1.4 3.7 1.6 3.7.1 0 1.5-.6 3-1.4s3.4-1.2 4.2-.9 3.6-.6 6.3-2.1c11.1-6.1 19.3-4 22.6 5.6 2.5 7.1 2.5 21.6 0 27.3-1.9 4.5-1.5 9.5 1.1 15.8 1.7 3.9 1.4 4.8-2.2 6-.5.2.1 3.6 1.3 7.8 2.5 8.6 7.4 32 6.8 32.7-.3.2-1.1-.9-1.9-2.5-1.5-2.7-1.5-2.6-1 3.2.3 4.5-.1 7.5-1.7 12-1.1 3.3-2.6 7.6-3.1 9.5-1.2 4.3-4.1 10-5.1 10-.3 0-.8.8-1.1 1.7-.2 1-.3-.9-.1-4.2l.3-6-1.2 6.3c-.7 3.5-1.5 6-1.9 5.6-.5-.4-.8.8-.9 2.7l-.1 3.4-1-3.4c-.7-2.5-1.2-3.1-2.1-2.2-1.9 1.9-2.7 1.2-2.7-2.3 0-1.9-.4-3.7-.9-4s-.7-1.4-.4-2.4c.2-1 0-3.4-.6-5.3l-1.1-3.4.3 4c.2 2.2-.2 5-.8 6.2-1.2 2.3-2.8 2.1-1.8-.2.6-1.8-1.2-11-4.2-20.5-1.3-4.1-2.6-11-3-15.3l-.7-7.7h-5.4c-6.2 0-6.2 0-4 9.2 1.5 6.6.6 7.4-2.6 2.3-1.3-1.9-2.6-3.5-2.9-3.5s-1.2 1.8-1.9 4c-1.5 4.5-1.8 4.7-3.4 2.4-1-1.3-1.4-.7-2.5 3.7-1.3 4.8-1.5 5.1-2.7 3.4-1.3-1.8-1.4-1.7-1.5 1.1l-.1 2.9-1.3-3-1.3-3-1.1 2.5c-.5 1.4-1.7 4.7-2.4 7.5l-1.5 5-.2-4.5-.2-4.5-1.3 4.5-1.2 4.5-.8-5.4-.8-5.4-1.9 3.4c-1.5 2.7-1.7 2.9-1.3.9l.6-2.5-2 2.3-2 2.3-.7-2.8c-.3-1.5-.6-3.1-.7-3.5-.4-1.7-5.2 1.9-5.5 4.1-.3 1.9 0 2.2 1.7 1.6 2.8-.8 3.7 1.5 2.2 5.7s-.3 5.4 11.7 11.3c11.7 5.7 14.5 7.8 18.9 14 7.3 10.1 17.7 22.5 19.1 22.5.8 0 5.2-1 9.7-2.2l8.3-2.2 10.9 2.7c8.2 2.1 13.3 2.7 21.1 2.7 12.2 0 18-1.7 32.2-9.2 24.3-13 32.3-16.9 43-21.3 6.3-2.6 13.7-5.8 16.3-7.2 2.7-1.3 5.7-2.3 6.7-2.1s7.4 5.8 14.3 12.4c10.4 10.2 25.8 23.4 27.3 23.4.2 0 .4-46.4.4-103V0H0z"/><path d="M315.7 101.7c-3.9 10.6-4 12.3-1.6 18.4 1 2.6 5.6 5.5 6.8 4.4 1-1.1.7-31.3-.4-32.4q-1.05-.9-4.8 9.6m-69.8 42.6c1.7 1.7 12.4 2 16.1.5 3.4-1.4 3.1-1.5-6.8-1.4-5.9 0-9.8.4-9.3.9M462 186.2c-3 1.6-8.3 4.2-11.7 5.7-5.2 2.3-6 2.9-5.2 4.4.6.9.7 1.7.3 1.7s.4 1.2 1.8 2.7c1.4 1.6 4 5.7 5.8 9.2l3.2 6.5-1.5 9c-5.3 31.2-7.9 45.2-8.8 46.1-1.6 1.6-2.6-.5-7.3-15-2.5-7.7-6.3-19.5-8.5-26.1l-3.9-12.2 2.7-7.6c1.5-4.2 3.2-8.1 3.9-8.8s1.2-2 1.2-3.1c0-1.4-.5-1.7-2.2-1.2-5.1 1.5-15 6.6-22.4 11.5-6.5 4.3-7.9 5.7-7.9 7.9 0 1.4.8 3.2 1.7 3.9 1 .8 3.6 4.8 5.7 9.1l3.9 7.7-1.3 7.5c-.7 4.1-2.3 13.7-3.5 21.4-3.9 25.8-4.5 28-6.8 25.2-.5-.6-4.8-12.8-9.5-27l-8.5-25.8 2.4-7.6c1.3-4.1 3-8.3 3.9-9.3 1.5-1.6 1.4-1.8-.7-2.4-1.3-.4-7.9-.9-14.8-1.2-10.6-.5-12.8-.4-14.5 1-2 1.6-2 1.6.3 3.5 1.2 1.1 3.8 5.3 5.7 9.5l3.5 7.4-1.4 7.9c-.8 4.3-2.4 13.9-3.5 21.3-3.3 21.3-4.3 26-5.3 26.6-1.7 1.1-2.6-.8-6.2-12.6-1.9-6.3-5.5-18.2-8.1-26.4l-4.6-14.9 2-7.5c1.2-4.6 3-8.5 4.6-10.2 3.6-3.8 1.8-5-7.5-5-10.5 0-12 .6-11.4 3.9.4 2-.1 3.6-2.1 6l-2.8 3.2 3.2 3.9c3.7 4.6 3.2 6.9-1.9 9-2.2.9-2.9 1.7-2.5 2.9 1.6 4.1 5.4 22.3 6 28.7.7 7 .7 7.1 4.3 8.9 3.6 1.7 18.7 12.2 36.7 25.5 12.3 9.2 12.8 9.4 18 8.1 6.1-1.5 8.5-1.4 18.7 1 9.8 2.3 15.7 6.1 14.5 9.3-1 2.6-3.8 3.1-7 1.2-3.6-2-5.3-.9-4.3 2.7.4 1.9 2.9 3.7 10.7 7.7 13.3 6.8 14.5 7.2 27.4 7.9 13.1.7 14.1 2 5.2 6.7-8.3 4.4-19.4 6.8-27.6 6-10.7-1.1-14.6-2.5-25.4-9-5.6-3.4-12.4-7.1-15.2-8.2-2.7-1.2-7.5-3.2-10.5-4.5-5.8-2.5-30.1-16.2-45.2-25.6-10.8-6.6-15-10.2-17.9-15.1-1.3-2-2.4-3.9-2.6-4.1-.2-.3-.9.4-1.7 1.4-1.3 1.8-1.4 1.8-2-.3-.4-1.2-1.2-2.2-1.8-2.2-1.1 0-.5 7.5 1.3 18.4.6 3.2.7 7.1.3 8.5-1 3.6-1 3.7 5.1 16.6 6.2 13.1 11.4 27.4 14.1 38.7l1.8 7.8H512v-58.3l.1-58.2-2.8-8.2-2.7-8.1 2.7-9.1c1.5-4.9 2.7-10.9 2.7-13.3 0-4.1-.3-4.5-5-7.6-2.7-1.8-7.7-5.5-11-8.3-3.3-2.7-6-4.7-6-4.5 0 .3 1.6 3.6 3.6 7.3l3.6 6.8-1.6 8.5c-.9 4.7-3 16.4-4.6 26-3.4 19.2-3.8 21-4.9 21-1.2 0-3.3-5.5-11.7-30.7l-7.8-23.2 2.3-7.3c1.3-4 3.6-8.6 5-10.1 1.6-1.8 2.5-3.7 2.3-5.2-.2-1.4.4-2.8 1.6-3.7 1.9-1.3 1.8-1.6-2.9-7.3-2.6-3.2-5.4-6.2-6.2-6.6-.7-.5-3.6.5-6.7 2.3m-422.6 2c-8.1 9-7.9 8.6-6 10.7 1 1.1 1.6 2.8 1.4 3.9-.2 1.2.8 3.3 2.4 4.9 2.4 2.5 6.8 13.6 6.8 17 0 2.1-16.9 50.6-18 51.7-.6.6-1.3.6-1.9.1-.5-.6-2.5-10.7-4.6-22.5-2-11.8-4.1-23.4-4.6-25.8-.8-3.8-.6-4.9 2.7-11.4l3.7-7.3-3.4 2.8c-1.9 1.5-6.7 5.1-10.7 7.9C0 225.4 0 225.4 0 230c0 2.6 1.3 8.5 2.9 13.2l2.9 8.6-2.9 8.4-2.9 8.3V384h187.6l2.2-9c2.6-10.6 7.6-24.6 13.7-38q6.9-15 4.5-16.5c-.6-.4-.8-1.6-.5-2.8s1-6.4 1.5-11.6c.8-8.5.7-9.6-1-11.8-1-1.3-2.2-3.7-2.5-5.4-.6-2.8-.8-2.6-4.5 4.8-2.1 4.3-5.8 9.8-8.2 12.2-4.3 4.4-43.3 30.9-55.6 37.8-3.6 2-11.1 5.3-16.6 7.4-5.6 2.1-13.9 5.5-18.6 7.6-8.2 3.7-8.9 3.8-19.6 3.8-11.6 0-10.7.2-25.9-6.6-2.2-1-5.6-3.2-7.5-4.8-2.8-2.3-3.2-3.2-2.3-4.2 1-1 2.6-1 8.1.1 8.2 1.5 15.1.5 30.2-4.4 7.6-2.5 9.8-3.6 11-5.8 1.9-3.6.3-5.6-3-3.8s-7 .5-7-2.5c0-3.9 4.8-5.7 16.2-6.3 8.4-.4 10.2-.2 14 1.7 2.5 1.1 4.9 2.1 5.5 2.1s4.6-2.8 9-6.3c4.3-3.5 14.8-11.9 23.3-18.7 8.5-6.9 17.9-14 20.8-15.9 2.8-1.8 5.2-3.6 5.2-4 0-3.8 3.5-21.3 5.5-27.6 1.4-4.4 2.5-8.3 2.5-8.8 0-.4-1.1-1.2-2.4-1.7-1.4-.5-3.2-2-4.1-3.4-1.6-2.4-1.6-2.6 1.7-5.5l3.3-2.9-2.3-3.2c-1.7-2.3-2.3-4.2-2-6.5.3-3 .1-3.4-2.5-3.9-5.9-1.2-15.4-.7-16.7.9-1 1.3-.8 1.9 1.3 3.5 2.4 1.9 6.7 13.2 6.7 17.6 0 3.1-14.1 49.9-15.5 51.3-1.2 1.2-1.5 1.1-2.3-1-.5-1.3-3.1-13.5-5.7-27.1l-4.9-24.7 2.9-7.1c1.6-3.9 4-8 5.3-9.1 1.6-1.2 2.2-2.4 1.8-3.5-.6-1.5-2.3-1.6-15.5-1.2-8.1.3-15.3.8-15.9 1.2-.8.5-.6 1.5.8 3.4 1.1 1.5 2.7 5.7 3.7 9.5l1.8 6.7-8.4 25.3c-4.6 13.8-8.8 25.8-9.4 26.5-1.8 2.2-2.4-.2-6.7-25.9-2.2-13.4-4.2-25-4.5-25.7-.8-2.2 7.1-17.9 9.4-18.7 2.5-.7 2.7-3.2.6-6.2-2.2-3.1-16.7-12.1-24.1-14.9-5.6-2.1-6.5-2.2-7.1-.9-.3.9.1 2.3 1 3.3.8.9 2.5 5 3.8 9l2.4 7.4-8.4 24.6c-9 26.4-9.7 28.2-11.1 28.2s-2.6-5.5-6.6-30.3l-3.8-23.8 3.9-7.9c2.2-4.4 4.3-8 4.7-8 .5 0 1.5-1.4 2.2-3.2l1.4-3.2-7.2-3.1c-3.9-1.8-8.7-4.1-10.6-5.3-4.7-2.9-6.1-2.8-9.6 1"/></svg>