<svg xmlns="http://www.w3.org/2000/svg" width="682.667" height="512" version="1.0" viewBox="0 0 512 384"><path d="M0 103.6v103.5l4.7-3.3c2.5-1.8 11.1-9.6 19-17.3s15.2-14.4 16.2-14.8c1.3-.6 3.4-.1 7 1.7 2.8 1.5 10.2 4.7 16.4 7.3 12.9 5.2 26.6 11.9 38.5 18.7 4.6 2.6 11.8 6.1 16 7.9 7.3 3 8.4 3.2 20.7 3.2 11.1 0 14.4-.4 22.5-2.7l9.5-2.7 7.5 1.9c11.6 3 10.9 3.3 19.5-8.3 13.9-18.9 16-20.8 28.8-26.4 3.8-1.7 8-3.9 9.5-5 2.6-1.9 2.6-2.2 1.5-6.4-1.3-4.9-1.2-5.2 2-5.4 2.9-.2 3.6-3.5.8-4.2-1.2-.3-2.1-.9-2.1-1.4s-.9-.9-2-.9-1.9.3-1.8.7c.1.5-.4 2.4-1.1 4.3l-1.4 3.5-1-6.4c-.6-4.3-1.2-5.9-1.8-5-.5.8-.9 2.3-.9 3.4 0 1.5-.2 1.7-.9.7-.6-.9-1.3.9-2.2 5.5l-1.4 6.8-.5-6-.6-6-1.1 3.5c-1.1 3.4-1.1 3.3-1.3-3-.1-3.6-.5-7.4-1-8.5-.5-1.2-.7.6-.4 5 .2 3.8.2 6.4-.2 5.7-1-2.1-2.2-1.3-2.9 1.9-.9 3.8-2 2.9-1.7-1.4.1-1.8-.6-5.7-1.7-8.7-1.2-3.3-2-4.6-2-3.3-.1 1.3-.5 2.3-1 2.3-.8 0-1.7-1.8-4.1-8.4l-1.1-3-2.2 3.5-2.2 3.4-.3-6.2-.3-6.2-3.4 1.5c-5.7 2.3-5.8 1.7-.5-5.2 2.8-3.6 4.8-7 4.4-7.5-.3-.5-.9-.7-1.4-.4-.4.3-1-.5-1.4-1.8l-.6-2.2-1.5 2.2c-.9 1.3-2.1 2.3-2.6 2.3-1.6 0-18.8-13.4-18.9-14.6 0-.6.9-1.9 2-2.9 1.2-1.1 2-3.1 2-5.2 0-3.2.1-3.3 3.9-3.3 3.5 0 4.5-.6 9.1-5.7 4.9-5.3 5.1-5.8 4.3-9.2-.4-2-.8-7.9-.7-13.1.2-21.4 10.5-38.2 26.9-43.6 6.4-2.2 51.6-3.1 60.4-1.3 13 2.6 23.4 10.8 29.6 23.1 1.9 3.9 3.5 7.7 3.5 8.4 0 1.8 1.4 1.8 3-.1.7-.8 2.8-1.5 4.7-1.5s4.7-.7 6.3-1.5c9.6-4.9 18.8-3.5 21.7 3.3 2.8 6.7 3.8 16.2 2.3 23.3-1.8 9.2-1.7 16.1.5 21 1.9 4 1.9 4.2.1 5.5-1.1.7-2.3 1.5-2.9 1.7s-.4 2.2.6 5.2c2 6.2 7.7 32.3 7.7 35-.1 1.6-.4 1.4-1.5-1l-1.4-3 .1 3c.3 5.4-1.4 13.9-3.8 19.7-1.3 3.2-2.4 6.5-2.4 7.5s-1.1 3.1-2.5 4.8l-2.4 3-.2-3.5c-.1-3.3-.2-3.3-1.1 1.2-.6 2.7-1.5 4.8-2 4.8-.6 0-.8.7-.4 1.5.3.8.1 1.5-.4 1.5-.6 0-1-.6-1-1.3 0-.8-1-1.3-2.2-1.3-2.1.1-2.4-.6-3.3-7.4l-1.1-7.5-1.6 5.5-1.6 5.5-.1-4c-.2-4.3-1.7-11-4.9-22-1.7-5.8-3-13.9-3.2-20.3 0-.8-1.8-1.2-5.5-1.2s-5.5.4-5.5 1.2c.1 1.4 1.7 9.1 2.6 12 .9 3-1.1 2-3.9-1.9l-2.7-3.7-1.7 4.2c-1.8 4.3-3.3 5.5-3.3 2.6 0-2.8-1.7-.5-3 4.2-1.2 4.2-1.5 4.5-2.7 2.8-1.2-1.6-1.3-1.5-1.4 1.2l-.1 2.9-1.1-2.8c-.6-1.5-1.4-2.7-1.8-2.7s-1.5 3.3-2.5 7.2l-1.9 7.3-.4-4.5-.4-4.5-1.2 4.5-1.2 4.5-.8-5.4-.8-5.4-1.9 3.4c-1.5 2.7-1.7 2.9-1.3.9l.6-2.5-2 2.3-2 2.3-.7-2.8c-.3-1.5-.6-3.1-.7-3.5-.4-1.7-5.2 1.9-5.5 4.1-.3 1.9 0 2.2 1.7 1.6 2.8-.8 3.7 1.5 2.2 5.7-1.5 4.3.2 6 10.9 11 11.3 5.2 15.3 8.1 19.7 14.2 7.1 10 17.7 22.6 19 22.6.8 0 5.2-1 9.9-2.1l8.5-2.2 10.7 2.7c8.2 2 13.2 2.6 21.2 2.6 13.5 0 21.4-2.7 40.4-13.5 7.5-4.3 18.1-9.7 23.4-12 5.3-2.4 14.4-6.4 20.2-9 15.9-7.2 13.9-7.6 28.2 6.3 12.1 11.8 15.2 14.6 23.5 21l4.3 3.3V0H0z"/><path d="M315.7 101.7c-3.7 10-3.8 10.8-2.6 15.1.9 3.1 2.1 5 4.3 6.3l3.1 1.9.8-3.8c1.1-4.8.4-27.9-.8-29.1-.6-.6-2.4 2.9-4.8 9.6m-69.8 42.6c1.7 1.7 12.4 2 16.1.5 3.4-1.4 3.1-1.5-6.8-1.4-5.9 0-9.8.4-9.3.9m210.4 44.6c-10.4 5.2-11.1 5.8-10.6 8.1.4 1.4 1.3 3 2.2 3.6.9.7 3.2 4.7 5 8.9 3.9 8.7 4.1 4.6-2 37-4 21.3-4.9 25.5-6 25.5-1.4 0-2.8-3.4-7.4-18.2-2.4-7.9-5.8-19-7.6-24.7-3.6-11.7-3.5-13.8 1.6-24.6 3.1-6.5 3.2-7.8.3-7-5.3 1.6-13.7 5.9-21.4 11.1-6.5 4.4-8.3 6.1-8.6 8.4-.3 2.2.1 3.1 1.8 4 1.2.7 3.7 4.6 5.8 9l3.6 7.8-4.5 26.1c-2.4 14.3-4.8 26.8-5.3 27.6-1.5 2.8-2.9-.2-9.8-21.6-10.5-32.4-10.1-30.6-7.9-37.9 1-3.4 2.7-7.3 3.8-8.7 1.1-1.3 1.7-2.6 1.4-2.9-1.1-1.1-16.4-2.5-23.4-2.2-8.9.4-11 1.9-7.1 5.1 1.4 1.2 4 5.4 5.8 9.3l3.1 7.1-4 26.6c-4.2 27.3-4.7 29.7-6.1 29.7s-1.9-1.3-10.5-28.2l-8.2-26.2 2-7.5c1.1-4.4 3-8.7 4.3-10.2 3.5-3.7 1.6-4.9-7.6-4.9-10.8 0-12 .5-11.3 4.4.4 2.5-.1 3.9-2.1 6.3-2.3 2.7-2.4 3.2-1 3.7.9.4 1.4.9 1 1.3-.3.4.4 1.7 1.6 3 1.7 1.9 2 2.8 1.2 4.1s-5.4 4.4-7.1 4.7c-.1.1.5 2.3 1.3 5 2.2 7.1 5.4 23.9 5.4 28.3 0 3.4.4 3.9 4.9 6.5 2.7 1.5 14.5 9.7 26.3 18.2l21.3 15.5 9-.6c14.2-1 29.5 3.7 30.3 9.3.5 3.5-2.2 4.7-6.3 2.7-4.4-2.1-6.2-.9-4.4 2.9.9 1.9 4.1 4.1 10.8 7.6 12.7 6.5 20.3 8.5 28.9 7.9 7.4-.6 9.2-.3 9.2 1.7 0 2.1-10.9 7.6-18 9.2-17 3.6-26.8 1.3-46.9-11.1-4.1-2.5-10.2-5.5-13.6-6.6-6.7-2.2-19.8-9.3-43.3-23.3-17.3-10.4-22.3-14.2-26.2-20.4-2.1-3.3-2.9-3.9-3.4-2.8-.8 2.3-2.4 1-3.5-2.8l-.9-3.2-.3 3.5c-.3 5.1 0 9.4 1.3 18.7.8 6.3.8 8.6-.1 9.6-.9 1.2-.1 3.8 4.2 12.8 8.5 17.9 14 33.3 16.2 45.3l.7 3.6H512V266.7l-2.7-7.9-2.7-8 2.7-8.2c1.8-5.2 2.7-10.1 2.7-13.6l-.1-5.5-5.7-3.7c-3.2-2-7.8-5.5-10.4-7.7-2.5-2.3-4.9-4.1-5.2-4.1-.4 0 1 3.3 3 7.2l3.7 7.3-1.7 8.5c-.9 4.7-3.2 16.5-5.1 26.3-3.7 19.2-4.5 21.6-6.2 19.5-.6-.7-4.8-13-9.3-27.4l-8.2-26 2.8-7.8c1.7-5 3.5-8.3 5.1-9.3 1.4-.9 2.3-2.5 2.3-4.1 0-1.4.7-3.4 1.7-4.4 1.5-1.7 1.5-2-.8-4.6-5.3-6-9.3-10.2-9.9-10.1-.3.1-5.5 2.7-11.7 5.8m-420 2.3c-5 6.2-5.1 6.3-3.3 8.5 1 1.3 1.6 3.2 1.3 4.2-.3 1.3.3 2.5 2 3.5 1.7 1.2 3.2 4.1 5.1 9.9l2.8 8.2-8.9 25.9c-4.8 14.3-9.3 26.2-10 26.4-1.6.4-2.3-2.8-7.4-30.7l-4.2-23.4 3.2-6.4c1.7-3.5 2.8-6.3 2.5-6.3-.2 0-3.1 2.2-6.3 4.8-3.1 2.7-7.4 5.8-9.4 7.1-3.6 2.2-3.7 2.5-3.7 7.9 0 3.5 1 8.8 2.6 13.6l2.7 7.9-2.7 8.1-2.6 8.1V384h187.6l2.2-9c2.6-10.8 7.9-25.3 13.4-37 4.2-8.9 6.2-16.1 4.8-17-.5-.3-.5-3.4 0-7 1.2-8.3 1.3-19 .1-19-.5 0-1.6-1.7-2.4-3.7l-1.5-3.8-3.3 7c-1.9 4.1-5.3 9-8.1 11.8-4.7 4.7-40.9 29.2-56.3 38-4.4 2.5-11.8 5.9-16.5 7.6-4.7 1.6-13.4 5-19.5 7.5-11.6 4.8-16.6 5.5-26.5 3.6-6.8-1.3-17.6-5.6-22.8-9.2-8.4-5.7-7.7-6.3 8.1-6.4 12.1 0 14-.3 23.1-3.3 13.9-4.7 19.7-11 9.4-10.3-7.7.5-8.9-4.1-2-7.2 2.5-1.1 6.8-1.7 13.2-1.9 8.1-.1 10.1.2 13.7 2.1 2.3 1.2 4.5 2.2 4.7 2.2.3 0 4.3-3 8.8-6.7 25.1-20.4 39.5-31.6 44.2-34.5l5.4-3.3 1.1-8.7c.6-4.8 2.3-12.7 3.7-17.5 1.5-4.8 2.8-9.5 3.1-10.5.3-1.1-.3-1.8-1.9-2.3-2.9-.9-5.8-3.4-5.8-5.1 0-.7 1.4-2.6 3.1-4.3l3-3.1-2-2.9c-1.2-1.6-2.1-4.5-2.1-6.4 0-3.3-.1-3.4-4.6-4.1-13-1.7-17.9.2-13.1 5.2 1.4 1.5 3.5 5.9 4.7 9.8l2.1 7.2-4.6 15.3C154.8 296 155 295.4 153 293.4c-.6-.6-3.3-12.8-6-27.1l-5-26.2 3.4-7.4c1.8-4.1 4.3-8.1 5.5-8.9 1.5-1 1.9-2.1 1.5-3.3-.7-1.6-1.9-1.7-14.8-1.2-7.8.3-14.9.8-15.9 1.2-1.6.7-1.6 1-.4 2.4.8.9 2.5 5 3.7 9.3l2.2 7.6-8.2 25.4c-4.5 13.9-8.7 25.9-9.3 26.6-.6.8-1.4.9-1.9.4s-3-12.8-5.4-27.4l-4.5-26.5 3.7-7.7c2-4.2 4.5-8.1 5.5-8.7 1.2-.6 1.9-2.1 1.9-3.8 0-2.5-1.2-3.6-9.2-8.9-11.1-7.2-21.6-11.8-22.4-9.7-.3.7.1 2.4.9 3.7s2.5 5.5 3.7 9.3l2.1 7-7.4 22.5c-10.5 31.5-11.4 33.7-13.1 29.3-.4-.9-2.2-10.9-4.1-22.2-1.9-11.4-4-22.9-4.6-25.8-1-4.9-.8-5.5 2.6-12.5 2.1-4 4.5-8 5.5-8.8.9-.8 2-2.7 2.4-4.1.5-2.4.2-2.8-4.2-4.4-2.6-1-7.4-3.3-10.8-5.1-3.3-1.9-6.8-3.4-7.6-3.4s-3.7 2.8-6.5 6.2"/></svg>