<svg xmlns="http://www.w3.org/2000/svg" width="682.667" height="512" version="1.0" viewBox="0 0 512 384"><path d="M0 103c0 56.6.3 103 .6 103 1.6 0 13.3-10.3 24.4-21.4 8.3-8.4 13.2-12.6 14.6-12.6 1.2 0 5 1.3 8.5 2.9s12.5 5.5 19.9 8.6 20.2 9.3 28.3 13.7c18 9.8 24.1 12.3 33.2 13.8 8.4 1.4 16.7.6 29.5-2.6 11.5-2.9 12-2.9 21.7-.3l7.7 2.1 2.9-3.3c1.5-1.9 5.7-7.6 9.4-12.7 7.6-10.8 13.4-16.2 21.2-19.8 3.1-1.4 7-3.3 8.6-4 1.7-.8 4.1-2.3 5.4-3.3 2.3-1.8 2.4-2.1 1.2-6-1.4-4.7-.7-6.5 2-5.8 3.1.8 2.5-3.7-.6-5.1-3.8-1.8-4.3-1.5-5.1 2.3-1 5.2-2.2 5.1-2.9-.2-.3-2.7-1-5.7-1.5-6.8-.7-1.7-.9-1.5-.9 1.2-.1 2.1-.6 3.3-1.4 3.3-.9 0-1.8 2.1-2.4 5.7-1 5.7-1 5.8-1.2 1.5-.1-4.8-1.3-5.4-2.7-1.5-.9 2.3-1 1.9-.6-2.7.2-3-.1-7.1-.7-9-1-3.3-1-3.2-.8 2.3.1 4.1-.1 5.6-1 5.3-.7-.3-1.4.8-1.8 2.5-.4 1.6-1.1 2.7-1.6 2.3-.5-.3-.6-1.6-.3-2.8.3-1.3-.2-4.7-1.2-7.6-1.5-4.5-1.8-5-2.7-3.4-.9 1.7-1.4 1.1-3.7-4l-2.7-5.9-1.9 3.1c-1 1.8-2.1 3.2-2.4 3.2-.4 0-.4-2.7-.2-6s.2-6-.1-6c-.2 0-2.1.7-4.2 1.6-4.7 1.9-5.5 1.1-2.3-2.4 5.8-6.3 8.6-12.1 5.2-10.8-.8.3-1.2.2-.9-.4 1.5-2.4-.8-3-3.1-.9l-2.4 2.2-9.5-7.2c-5.2-4-9.5-7.6-9.5-8s1-1.7 2.3-2.9c1.7-1.6 2.2-3 1.9-5.2-.4-2.7-.2-3 2.4-3 4.5-.1 7.8-2.1 12.3-7.4 2.8-3.2 4-5.4 3.6-6.5-2.7-6.9-2-22 1.6-32.9 2.5-7.8 6.1-13.3 11.8-18.5 9.1-8.2 16-9.7 46.1-9.7 18.8 0 23.6.3 29.1 1.8 8.4 2.3 14.1 5.7 20.1 11.9 4.6 4.8 10.8 15.5 11.1 19.3.2 2.5.9 2.5 3.2 0 1.2-1.3 3.1-2 5.6-2 2.1 0 5.6-.6 7.6-1.4 13.5-5.1 19.2-1.5 21.8 13.8 1 5.3 1 8.4 0 14-1.3 7.4-.7 15.5 1.4 19.5 1.8 3.2 1.3 5.1-1.6 6.3-1.6.7-2.9 1.3-3.1 1.4-.1.1.4 2.1 1.2 4.5 2.2 6.5 6.4 24.9 7.1 31 .6 5.2.6 5.3-1 2.9-1.5-2.3-1.5-2.3-1-.3.9 3.4-1.5 17.8-3.6 22-1.1 2.1-1.9 4.8-1.9 6.1s-.6 3-1.2 3.7c-2.6 2.8-3.5 4.1-4.1 5.5-.4.8-.5-1.2-.2-4.5l.4-6-1.2 6.5c-.7 3.7-1.6 5.8-1.9 5-.4-.9-.7 0-.8 2-.1 3.1-.2 3.3-1 1.2-1-2.3-4-3.1-4.1-1-.1 3-2.7-8.9-2.7-13-.1-5-1.2-7.3-1.2-2.5 0 4.2-1.1 9.3-2 9.3-.4 0-1-3-1.4-6.7s-1.8-9.9-3.1-13.8c-2.4-6.8-2.9-9.7-3.9-19.9-.3-2.7-.7-5-.8-5.1-.6-.6-9.8-.9-10.3-.3-.3.3.1 3.6 1 7.3.8 3.7 1.4 7 1.1 7.2-.2.2-1.8-1.3-3.4-3.3l-3.1-3.8-2 4.5c-1.9 4.3-1.9 4.4-2.9 1.9-.9-2.3-1.1-2.1-2.7 3.4-1.6 5.6-1.8 5.9-3.2 4-1.4-1.8-1.5-1.7-.9 1.3.8 4.6-1 4.1-2.2-.5-1-4.1-1-4-4 5.8l-2 6.5-.2-4.5-.2-4.5-1.3 5c-1.2 4.8-1.3 4.8-1.4 1.5-.1-1.9-.4-4.6-.8-5.9-.6-2.3-.6-2.3-2.5 1-1.5 2.7-1.7 2.9-1.3.9l.6-2.5-2 2.3-2 2.3-.7-3.8c-.4-2.1-.9-3.2-1.1-2.5-.3.6-.9.9-1.4.6-1.4-.9-3.9 1.5-3.9 3.8 0 1.5.5 1.8 2 1.3 2.6-.8 3.4 1.3 2.2 5.8-1.3 4.5.4 6.1 11.3 11.1 10.7 4.9 14.8 7.9 19.3 14 8.4 11.7 17.7 22.6 19.1 22.6.8 0 5.4-.9 10.1-2.1l8.6-2.1 10.3 2.6c8 2 12.9 2.6 21.1 2.6 15.4 0 21.4-2.1 46-16.3 5.7-3.3 17-8.8 25.1-12.3 8-3.4 16.9-7.4 19.7-8.8 8.4-4.3 9.1-4 22.1 8.7 6.4 6.3 15.1 14.2 19.4 17.6l7.7 6.2V0H0z"/><path d="M319 92.5c0 .8-1.5 5.4-3.4 10-3.4 8.3-3.4 8.7-2.1 13.7 1.3 5.3 3.5 7.8 6.7 7.8 1.6 0 1.8-1.1 1.8-13.4 0-7.3-.3-14.8-.6-16.5-.7-3.2-2.4-4.3-2.4-1.6m-72.4 52.2c1.6.6 5.2 1.2 7.9 1.2 2.8 0 6.3-.6 7.9-1.2 2.6-1.1 1.7-1.3-7.9-1.3s-10.5.2-7.9 1.3M462 186.4c-3 1.7-7.7 4.1-10.5 5.3-5.7 2.5-6.8 5-3.5 8.3 1.2 1.2 3.7 5.5 5.6 9.6l3.4 7.4-5.5 25.3c-3 13.8-6 26.3-6.6 27.7-1 2.3-1.2 2.3-2.3.8-.7-1-4.5-13.2-8.5-27.3-8.1-28.6-8-26.3-1.9-39.3 1.6-3.5 2.7-6.6 2.4-6.9-1.1-1.1-14.2 5.2-23.1 11.2-7 4.7-9.1 6.6-9.3 8.6-.2 1.8.4 3.1 2.1 4.2 1.3.8 3.8 4.8 5.6 9.1l3.3 7.5-5 26.7c-2.8 14.7-5.6 27.2-6.1 27.7-1.5 1.5-2.5-1.2-10.7-28.4l-7.7-25.4 2.3-6.5c1.2-3.6 3.1-7.7 4.1-9.2l1.9-2.7-4.8-.8c-2.6-.4-9.8-.8-16-.8-8.9 0-11.5.3-12.2 1.5-.7 1.1-.3 1.9 1.5 2.9 1.3.9 3.8 4.7 5.8 9.3l3.5 7.8-1.8 11.7c-1 6.5-2.8 18.6-4.1 27-2.4 16-3.1 18.5-4.8 16.8-.6-.6-5-12.8-9.7-27l-8.6-26 1.8-7.4c1-4.1 2.9-8.7 4.1-10.2 2.7-3.2 2.9-4.5.7-5.3-2-.8-11.8-.8-16.4 0-3.4.6-3.6.8-3.2 4.1.3 2.5-.2 4.3-1.9 6.6-1.5 2-1.8 3.2-1.1 3.5.7.2 1.2.9 1.2 1.5s1 2.1 2.1 3.3l2.1 2.3-2.4 2.3c-1.3 1.3-3.2 2.8-4.2 3.3-1.7 1-1.7 1.5.9 11.5 1.4 5.8 2.9 14 3.2 18.2l.6 7.8 5.1 2.9c2.8 1.6 14.7 9.9 26.4 18.5l21.4 15.6 8.8-.7c17.9-1.2 36.6 6.8 29.5 12.7-1.3 1-2.3 1-5.5-.5-4.7-2.1-5.7-1.5-4.4 2.3.7 2.1 3.3 3.9 11.9 8.4 12.6 6.5 19.9 8.4 28.3 7.4 10.6-1.2 12.2 1.5 3.7 6.3s-20 7-31 5.8c-9.3-.9-13.5-2.5-23.9-9.2-5.4-3.4-14.3-7.8-22.6-11.1-7.1-2.8-47.2-25.9-56.6-32.6-2.3-1.6-5.6-4.9-7.5-7.4-1.8-2.4-3.9-4.4-4.6-4.4s-1.8-2-2.5-4.5-1.6-4.5-2-4.5c-1.3 0-.9 16.9.6 24.4.9 4.9 1 7.6.3 9.5-.8 2.3-.5 3.8 2.1 9.2 9.5 19.9 13.6 30.8 16.8 44.1l1.8 7.8H512V267.9l-2.6-8.8-2.7-8.8 2.7-6.9c1.9-5 2.6-8.8 2.6-13.6v-6.6l-6.7-4.8c-3.8-2.7-8.7-6.6-11-8.7l-4.2-3.8 4 8.9c3.3 7.5 3.7 9.4 2.9 11.8-.5 1.6-3.3 12.8-6.1 24.9s-5.5 22.8-6.1 23.8c-1.7 3.2-3.2.3-7.3-14.8-2.1-7.7-5.3-19.3-7.1-25.8l-3.3-11.8 2.8-7c1.6-3.8 4-8.2 5.5-9.8 1.4-1.5 2.6-3.8 2.6-5 0-1.3.8-2.9 1.7-3.6 1.6-1.2 1.3-1.8-3.2-7.1-7.4-8.8-6.7-8.6-14.5-4m-424.1 2.3c-1.9 2.1-4.5 5-5.8 6.5l-2.3 2.6L32 200c1.2 1.2 1.9 2.8 1.6 3.7-.4.9.6 2.9 2.3 4.8 1.6 1.8 3.9 6.3 5.1 9.9 1.8 5.5 2 7.3 1.2 10.8-2.4 9.9-14.5 48.4-15.8 49.7-1.1 1.2-1.4 1.1-2.3-1-.6-1.3-3.3-13.9-6.1-27.9l-5-25.4 3.4-7.2 3.4-7.1-9.9 7.6-9.9 7.6v6.9c0 4.4.8 9.4 2.1 13.6l2.2 6.7-2.2 8c-2 7.7-2.1 9.7-2.1 65.6V384h187.5l2.6-10.3c2.8-10.9 7.4-23.2 13.4-36.2 4-8.6 5.8-15.2 4.3-15.7-.6-.2-.6-3.3.1-8.2.6-4.2 1.1-10.5 1.1-13.8 0-5.3-.2-5.9-1.5-4.8-1.3 1-1.7.7-2.9-2.1l-1.4-3.4-2.5 5.7c-4.1 9.3-10.3 14.8-33.7 30.3-29.2 19.3-36.1 23.3-45.4 26.5-4.5 1.5-11.7 4.3-16.1 6.2-15.9 6.9-19.1 7.7-27.9 6.6-4.3-.5-11.2-2.3-15.4-4-8.6-3.4-18.4-9.6-17.9-11.2.2-.7 5-1.1 13.8-1.1 12.4-.1 14.1-.3 23.4-3.3 9.8-3.3 14.5-6.4 14.5-9.8 0-1.1-1-1.3-5.3-.8-4.6.5-5.5.4-6.1-1.1-.3-1-.1-2.4.6-3.2 2.6-3.2 6.9-4.4 16.6-4.6 8.3-.2 10.4.1 14.1 2 5.3 2.6 5.1 2.7 16.9-7 17.9-14.9 34.9-28.2 41-32.1 5.8-3.7 6.2-4.2 6.2-7.7 0-5.2 2.4-17 5.3-26l2.4-7.6-3.6-1.9c-4.7-2.5-5.2-5.6-1.4-8.8l2.8-2.5-1.9-3.6c-1.1-2-2-5-2-6.8l-.1-3.2-8.8-.3c-11-.3-13.1.8-9.2 4.8 2.4 2.5 6.5 13.3 6.5 17.1 0 .9-2.3 9-5.1 18s-6.1 19.9-7.4 24.1c-3 9.7-4.4 12.3-5.7 11-1.2-1.2-9.7-47.7-9.8-53 0-4.1 5.2-15.7 8.1-18.1 3.1-2.5 1.8-3.8-4.5-4.6-5.1-.7-26.6 1.2-26.6 2.3 0 .3.6 1 1.4 1.6s2.6 4.5 4 8.8l2.6 7.6-8.1 26.4c-4.4 14.4-8.6 26.9-9.3 27.6-1.1 1.1-1.5.8-2.3-1.5-1.3-3.3-9.3-48.7-9.3-52.1s6.4-16.8 8.6-18c1.1-.6 1.9-2.2 1.9-3.7.1-2.2-1.3-3.5-8.4-8.2-8.8-5.7-16.4-9.6-21.3-10.8-2.4-.6-2.8-.4-2.8 1.4 0 1.2.4 2.1.9 2.1 1 0 6.1 14 6.1 16.8 0 2.2-15.5 53-16.4 54-1.3 1.3-2.9-2-4.2-8.5-6.2-32.4-8.4-44.4-8.4-46 0-2.6 6.5-15.9 8.3-17 .8-.4 1.6-2 1.9-3.5.5-2.6 0-3-10.8-8.3-6.2-3-11.5-5.5-11.7-5.5-.1 0-1.9 1.7-3.8 3.7"/></svg>