<svg xmlns="http://www.w3.org/2000/svg" width="682.667" height="512" version="1.0" viewBox="0 0 512 384"><path d="M285.5 15.5c-12.6 2.3-24 7.9-25.1 12.2-.5 2-1.1 2.3-2.8 1.8-5-1.6-6.7-1.6-12-.5-3.1.6-6.9 2.2-8.5 3.6l-2.9 2.4-1.6-2.4c-1.9-2.9-5.7-4.3-15.5-5.5-7.5-1-20.3.4-29.4 3.1-3.9 1.2-7.7 5.3-7.7 8.3 0 1.9 5.2 15.3 8 20.7 1.1 2 2 4.3 2 5s.9 2.4 2 3.8 2 3.2 2 4c0 2 5.7 8 7.6 8 1 0 1.4 1.3 1.5 4.7 0 5.3 3.1 13.9 4.8 13.6.6-.2.8.4.4 1.4-.4.9-.2 1.4.3 1.1 1.1-.7.7 9.8-.5 12.7-1.7 4.2-3.2 11.2-3.4 16.5-.2 3.1-.6 6.1-1 6.7s-.3 1.4.2 1.8c1.2.7.3 8.8-1 9.3-.5.2-.9.8-.9 1.3s-1.9 3.7-4.2 7.1c-4.8 6.9-7.9 12.6-13.7 24.3-4.1 8.5-8.4 20.5-7.6 21.3.3.3 0 1.1-.5 1.8-2.2 2.6-4.4 21.5-4.3 35.9.1 6 .2 14.9.2 19.7.1 4.8.5 9 1 9.3 1.1.6-.4 6.6-3.1 11.8l-1.9 3.8 2.9 4.3 3 4.4-3 6.1c-2.8 5.4-3 6.9-2.9 14.8.1 7.7.4 9 2.3 10.4l2.1 1.6-3.7 13.4c-5 18.4-4.7 25.6 1.1 29.4 2.2 1.5 2.2 1.7.7 4-.9 1.4-1.2 2.5-.7 2.5s1.6-1.2 2.3-2.7l1.3-2.8 1.3 4c1.2 4 1.8 3.4 1.5-1.5-.1-1.6.7-3.4 2-4.5 5-4.5 22.4-34 28.4-48.5 10.8-25.4 17.9-69.1 16-98.1-1-15.9.7-19.1 4-7.4 3.6 12.8 4.3 19.2 3.4 30.3-1.2 14-1.4 22.2-.5 25 .5 1.5.1 3.4-1.3 5.7-3 5.2-6.7 15.9-10.5 31.2-3.4 13.8-5.1 18.2-22.1 56.3-4.7 10.7-8.9 20.1-9.2 20.7-.4 1 16 1.3 80.2 1.3 76.3 0 80.6-.1 80.1-1.8-.3-.9-1.9-6.9-3.6-13.2-1.8-6.3-4.3-15.3-5.7-19.8l-2.5-8.4 2.8-8.4c2-6.4 3.1-8.4 4.5-8.4 1 0 2.5-.8 3.4-1.7 1.4-1.4 1.7-3.4 1.4-11.7-.2-8.3.1-11.4 1.9-17 3.2-9.9 2.9-12.7-2.8-25.4-11.5-25.6-22.9-56.3-23.7-63.7-.3-2.6.3-6 1.6-9.5 1.2-3 2.1-5.9 2.1-6.4 0-.4-2.7-.6-6-.4l-6 .4-1-3.5c-.6-2-1.9-8.6-3-14.8-1-6.1-2.5-12.4-3.4-14-1.9-3.8-9.6-10.9-14.1-13-3.9-1.9-4.3-3.2-1.9-6.9 1.2-1.7 1.4-2.8.7-3.5s-.4-3.4 1-8.2c1.2-4.7 2.1-11.2 2.3-18.4.1-6.2.5-11.7.9-12.2.3-.6 1.3-1 2.3-1 7.9.1 12.2-2.1 12.2-6.1 0-1.3-9.1-13.7-15.6-21.1-1.2-1.4-.6-1.4 6.2 0 7.3 1.5 7.6 1.5 9-.4.8-1 1.2-2.7.8-3.7-.3-1 0-1.8.6-1.8.7 0 .9-.8.5-1.9-.3-1.1-.2-2.2.3-2.5 1.1-.6 1-13.2-.1-14.2-.4-.4-.2-1.3.4-2 .8-1 .8-2.2 0-4.5-.6-1.7-.8-3.5-.5-4s.2-3-.2-5.6c-.5-3.4-1.6-5.6-4-8-3-3-3.8-3.3-9.1-3.2-3.2 0-8.9.7-12.8 1.4m-57.8 121.7c-.3.8-.6.5-.6-.6-.1-1.1.2-1.7.5-1.3.3.3.4 1.2.1 1.9M199 188.5c0 .8-.4 1.5-1 1.5-.5 0-.7-.7-.4-1.5.4-.8.8-1.5 1-1.5s.4.7.4 1.5m-5.4 22c-.3 2.2-1.1 7.8-1.7 12.5-1.2 9.9-2.7 15.3-4 14.5-.5-.4-.7-2.5-.4-4.8.2-2.3.7-6.7 1.1-9.7.3-3 .7-6.6.8-8 .2-1.4.8-4.2 1.5-6.2.7-2.1 1-4.3.6-5s.1-.4 1 .7c1.2 1.5 1.5 3.1 1.1 6"/></svg>