<svg xmlns="http://www.w3.org/2000/svg" width="682.667" height="512" version="1.0" viewBox="0 0 512 384"><path d="M0 103c0 56.6.3 103 .6 103 1.4 0 11.7-9.2 23.8-21.2 10-9.9 13.5-12.8 15.6-12.8 1.4 0 3 .4 3.5.9.6.6 9.1 4.4 19 8.6S87 192.6 95 196.9c18.8 10.1 22.7 11.8 30.8 13.7 9.8 2.3 22.5 1.2 39.4-3.7 4.3-1.2 5.6-1.1 13.9 1.1l9.2 2.3 2.4-2.9c1.3-1.6 5.6-7.3 9.5-12.6 8.1-11.4 13.9-16.7 21.7-20.4 3.1-1.4 7-3.3 8.6-4 1.7-.8 4.1-2.3 5.4-3.3 2.3-1.8 2.4-2.1 1.2-6-1.4-4.7-.7-6.5 2-5.8 3.1.8 2.5-3.7-.6-5.1-3.8-1.7-4.1-1.6-5.5 3l-1.4 4.3-.9-4.5c-.4-2.5-1.1-5.6-1.5-7-.6-2.3-.6-2.3-1 .7-.3 3.3-1.7 4.4-2.5 2-.2-.6-.7 1.7-1.2 5.3-.8 6.2-.8 6.3-1.5 2.7-.8-4.2-2-6.1-2-3.1 0 1-.5 2.6-1 3.4-.7 1-.8-.2-.5-4 .3-3 .2-6.9-.4-8.5-.8-2.7-.9-2.3-1 3-.1 3.7-.5 5.5-1 4.7-.6-1-1.2-.5-2.1 2l-1.4 3.3-.3-3c-.1-1.7-.8-5.4-1.4-8.4-1-4.7-1.3-5.2-2.2-3.5-.9 1.6-1.4 1.2-3.8-4l-2.8-5.9-1.8 3.1c-2.7 4.8-3.7 3.9-3-2.8.4-3.3.5-6 .2-6s-2.3.7-4.5 1.6c-4.3 1.7-6.4 1.2-3.8-.9 2.2-1.7 8.8-10.6 8.8-11.9 0-.6-.7-.7-1.6-.4-1.2.4-1.5.2-1.1-.9.9-2.2-1.2-3-2.7-1-2 2.7-5.1 1.4-14.4-6.1l-8.4-6.7 2.6-2.4c1.6-1.5 2.6-3.4 2.6-5.3 0-2.6.4-2.9 4.5-3.5 3.6-.6 5.3-1.6 9.1-5.7 4.6-4.9 4.6-5 3.8-9.6-3.3-18.2 2.8-39.9 13.9-49.7 8.9-7.8 12.5-8.6 40.7-9.6 26.9-.9 33.1-.3 43.6 4.5 7.9 3.6 15.5 11.9 20.1 21.6 3.5 7.5 3.8 7.9 5.5 6.3 1.1-.9 3.8-1.7 6.6-1.8 2.6-.1 6.7-.9 9.1-1.9 5.6-2.1 9.2-2 13 .1 5.8 3.3 8.7 15.7 7 29.2-1 7.3-.9 9.6.5 14.9 2.2 8.5 2.1 9.1-1.3 10.3l-3 1 1.5 4.7c2 6.6 7.1 28.8 7.8 34.2.6 4.4.5 4.4-.8 1.6-1.2-2.7-1.3-2.5-1.9 4.5-.6 7.6-5.5 23.3-8.7 27.9-.9 1.4-2 3.2-2.3 4-.4.8-.4-.8-.2-3.5.4-4.3.2-4-1.2 2.2-1.5 6.9-3.3 9-3.3 3.8 0-1.3-.4-2.7-1-3-.6-.4-.7.1-.3 1.1.5 1.3.3 1.6-1 1.1-.8-.3-1.8-.1-2 .6s-.8-1.9-1.2-5.7c-.4-3.9-1.1-8.1-1.6-9.5-.7-2.4-.7-2.3-.8.9-.2 4.5-1.1 8-2.2 8-.5 0-.8-1-.7-2.3.2-3.4-2-13.7-4.3-20.2-1.1-3.2-2.3-8.1-2.5-10.9-.3-2.8-.7-6.7-.9-8.6s-.4-3.7-.5-4c0-.6-9.9-.4-10.5.1-.2.2.3 3.3 1 6.9 1.9 8.9 1.9 9-1.9 4.6l-3.4-3.9-2 4.4c-1.9 4.3-2 4.4-3 1.9-.9-2.3-1.1-2.1-2.7 3.3s-1.8 5.7-3.2 4c-1.3-1.6-1.4-1.5-.9 1.6.7 4-.4 3.3-2-1.2l-1.1-3.2-1.7 6c-3.2 11.2-3.4 11.6-3.6 6l-.2-5-1.3 5-1.3 5-.1-4.5c-.2-5.6-1.5-8.3-2.6-5-.5 1.6-1 1.9-1.5 1s-1.2-.6-2.3 1c-1.5 2.2-1.6 2.2-2.3-1.6-.4-2.2-.9-3.3-1.1-2.6-.3.6-.9.9-1.4.6-1.4-.9-3.9 1.5-3.9 3.8 0 1.5.5 1.8 2 1.3 2.6-.8 3.4 1.3 2.2 5.8-1.3 4.6.3 6 12.2 11.6 10.9 5.1 14.6 7.8 18.8 13.9 7.2 10.6 17.2 22.2 19.1 22.2 1.1 0 5.6-1 10.1-2.2l8.2-2.1 10.5 2.7c8.1 2 12.8 2.6 21.2 2.6 14.1 0 21.3-2.4 40.5-13.2 7.9-4.4 22.7-11.9 33-16.6 24.1-10.9 25.2-11.3 27.7-10 1.1.6 8.1 7 15.6 14.3s15.7 14.7 18.3 16.4l4.6 3.2V0H0z"/><path d="M316.7 99.8c-4 10.9-4.3 12.6-2.6 18.2 1.1 3.7 5 6.7 7 5.5 1-.7 1.1-27.7 0-31.4-.5-2-1.3-.6-4.4 7.7m-70.1 44.9c1.6.6 5.2 1.2 7.9 1.2 2.8 0 6.3-.6 7.9-1.2 2.6-1.1 1.7-1.3-7.9-1.3s-10.5.2-7.9 1.3m210.9 44.1c-9.8 5.1-11 6-10.7 8.1.2 1.3 1.2 3.1 2.2 4s3.3 4.9 5 8.9l3.1 7.3-6.1 26.2c-3.4 14.4-6.8 26.8-7.5 27.5-1.7 1.8-2.3.2-10.1-28.7l-6.5-24.3 2.7-7.6c1.6-4.2 3.6-8.4 4.5-9.3s1.3-2.2 1-2.8c-1.4-2.2-12.6 2.8-24.4 11-8.5 5.8-9.9 9-5.6 12.6 1.4 1.2 3.8 5.4 5.4 9.4l2.8 7.3-4.7 23.2c-5.5 26.9-6.3 30.4-7.7 30.4s-2.2-2.2-10-29l-7.2-24.5 2.3-6.5c1.2-3.6 3.1-7.7 4.1-9.2l1.9-2.7-4.8-.8c-8-1.3-25.9-1-27.4.5-1.1 1.1-.9 1.7.9 3.1 1.1 1 3.8 5.1 5.8 9.1 3.1 6.2 3.6 8 3 11.4-.3 2.3-2.2 14.3-4 26.7-1.9 12.4-3.7 23.3-4.1 24.2-1.4 3.6-3.5-1-11.9-26.3l-8.6-25.8 2-7.7c1.3-5 2.9-8.7 4.5-10.4 3.7-3.9 1.9-5.1-7.4-5.1-11 0-11.9.4-11.7 5.1.1 2.8-.5 4.5-2.3 6.4l-2.3 2.5 3.1 3.9 3.1 3.9-2 2.6c-1.1 1.4-2.7 2.6-3.4 2.6-2.5 0-2.5 1.8 0 11.7 1.4 5.4 2.8 13.5 3.2 18l.6 8.3 7.3 4.6c4.1 2.5 15.2 10.3 24.8 17.4 22.4 16.5 21.9 16.3 29 14.8 9.7-2.1 28.8 2.9 31.6 8.3 2.2 4-2 6.2-7 3.6-3.3-1.8-4.9-1.1-4.2 1.6.8 3.6 2.1 4.7 11.6 9.4 12.4 6.2 13.5 6.5 26.6 7.2 13.4.7 14.4 1.7 6.1 6.3-8.1 4.6-19.9 7.1-29.1 6.3-10.2-.9-14.2-2.5-27.7-10.5-6.3-3.8-13.8-7.6-16.6-8.6-11.3-3.6-58.2-30.9-65-37.8-8.5-8.6-9.7-10.3-10.8-15.4-.7-2.9-1.6-5.2-2-5.2-1.2 0-.3 25.1 1 29.9 1 3.5 1 4.9 0 6.7-1 2-.8 3.3 2 9.6 1.8 4 3.7 8.1 4.2 9 2.9 5.5 9.4 23.4 11.7 32.4l2.7 10.4H512V269.9l-2.6-10.2-2.5-10.3 2.5-5.8c2.1-4.6 2.6-7.5 2.6-13.5v-7.6l-4.7-3c-2.6-1.6-7.5-5.5-10.9-8.7s-6.8-5.8-7.5-5.8c-.8 0-.5.6.7 1.5 2.1 1.4 8.9 16.9 8.1 18.2-.3.5-3.3 11.8-6.7 25.3s-6.8 25.1-7.6 25.9c-1.8 1.9-2.3.5-8-21.4-2.5-9.9-5.4-21.2-6.4-25l-1.8-7 3.1-7.4c1.9-4.5 4.1-8.1 5.9-9.4 2-1.5 2.6-2.6 2.2-4.3-.4-1.5.1-2.6 1.6-3.7 2.1-1.4 2-1.5-3.5-8.1-3.1-3.6-6.2-6.6-6.8-6.5-.7 0-6.1 2.6-12.2 5.7m-421.2.9c-7.1 8.8-6.8 8.1-4.8 10.3 1 1.1 1.5 2.8 1.2 4-.3 1.3.2 2.6 1.8 3.8 2.6 2.1 4.6 5.7 6.9 12.9l1.8 5.3-5.8 19.7c-3.1 10.9-6.5 22.7-7.5 26.2-2 7.1-3.3 9.1-4.9 7.5-.8-.8-4.9-18.8-10.7-46.5l-1.5-7.6 3-6.9c1.7-3.8 2.9-7 2.7-7.3-.2-.2-3 1.9-6.2 4.6s-7.3 6-9 7.2C0 225.1 0 225.2 0 233.1c0 5.4.7 9.8 2.1 13.9l2.1 6.1-2.1 7.8c-2 7.4-2.1 10-2.1 65.4V384h187.5l2.7-10.4c2.8-11.1 8.8-26.8 14-36.9 2.7-5.1 3.3-7.5 3.4-13.2.1-3.9.5-12.6.8-19.5.5-9.9.4-12-.5-10.3-1.6 3-2.7 2.9-4-.4-1-2.7-1.1-2.7-4.1 3.6-1.7 3.5-5 8.3-7.3 10.7-4.4 4.4-41.7 29.6-56 37.7-4.4 2.6-12 6-17 7.8-4.9 1.7-10.6 3.9-12.5 4.9-1.9.9-7.5 3.2-12.4 5-8.1 3-9.4 3.2-16.4 2.5-4.5-.4-10.6-1.9-15.1-3.7-10.2-3.9-11.6-4.7-15.9-8.4-2.9-2.5-3.4-3.5-2.5-4.5.9-.9 2.5-.9 7.4 0 8.2 1.6 15.9.7 29-3.5 10.6-3.4 13.4-5.2 14.1-8.9.2-1.6-.2-1.9-2.2-1.7-6.2.7-7.3.6-8.3-1-4.2-6.5 18.6-10.7 30.4-5.7 6 2.6 3.3 4.2 30.9-18.1 11.6-9.3 23.9-18.8 27.5-21.1 6.3-4.1 6.5-4.3 6.5-8.5 0-5.2 2.3-16.6 5.3-25.8 1.7-5.4 1.9-7 .9-7.4-1.9-.6-7.2-5.2-7.2-6.3 0-.5 1.4-2.1 3-3.6 3.5-3 3.6-3.9 1.3-6.5-1-1.1-1.7-3.7-1.8-6.1l-.1-4.2-9.4-.3c-10.7-.3-12.2.6-8.4 5.1 1.3 1.5 3.3 6 4.5 9.9l2.2 7-5.3 17c-11.1 36.2-12.4 39.6-14.1 36.5-.5-.8-2.9-13.4-5.4-28.1l-4.5-26.8 3.1-7.1c1.7-4 4.3-8.1 5.7-9.3 4.9-4 2.4-4.7-14.4-4.2-8.5.3-15.7.8-16.1 1.1-.3.4.1 1.5.9 2.4 2 2.3 5.9 13 6 16.3 0 2.2-14.5 52.1-15.8 54.2-1.1 1.7-2.4.6-3.4-3-1.5-5.7-9.1-47.2-9.2-50.6 0-4 5.8-16.3 8.7-18.2 3.9-2.5 2.2-5.9-5.9-11.3-10.7-7.2-23.8-13.3-25.3-11.7-.3.3.2 1.7 1.1 3 2 3.1 6.6 15.3 6.6 17.5 0 .9-2.9 11.7-6.5 24.1-9 31.2-10.1 33.9-12 29.2-1.1-2.9-10.5-50.4-10.5-53.3 0-3.2 5-14.2 7.8-17.3 4.4-4.7 3.7-5.7-9.2-11.9-6.5-3.1-12-5.7-12.1-5.7-.2 0-2.1 2.1-4.2 4.7"/></svg>