<svg xmlns="http://www.w3.org/2000/svg" width="682.667" height="512" version="1.0" viewBox="0 0 512 384"><path d="M0 103.1v103l4.7-3.3c2.6-1.8 10.9-9.5 18.5-17.1C31.5 177.5 37.8 172 39 172c1.1 0 4.5 1.3 7.7 2.9s11 5 17.3 7.6c6.3 2.5 18 8 26 12.2 22.9 11.9 25.6 13.2 33.3 15.3 11.3 3.1 22.2 2.5 38.4-2.2l7.3-2.1 9.6 2.3 9.7 2.4 2.4-3c1.3-1.6 5.8-7.7 9.9-13.6 8.4-11.7 11.9-14.7 24.5-20.8 4.6-2.2 9.5-4.9 10.8-5.9 2.3-1.8 2.4-2.1 1.2-6-1.4-4.7-.7-6.5 2-5.8 3.3.9 2.3-3.1-1.3-5.3l-3.3-2-1.4 4.8c-1.1 3.9-1.5 4.4-2.2 2.7-.4-1.1-.8-3.6-.8-5.5-.2-4.7-2.1-7.8-2.1-3.3 0 3.5-1.6 5.4-2.2 2.6-.2-1-.8.9-1.3 4.2l-.8 6-1.3-4c-.7-2.2-1.3-3.1-1.3-2-.1 1.1-.6 2.7-1.2 3.5-.8 1.1-.9.2-.6-3.5.3-2.8.2-6.6-.3-8.5-.7-3.2-.8-2.9-.9 2.5-.1 3.8-.4 5.5-1 4.6s-1.3-.1-2.4 3l-1.5 4.4-.1-5.3c-.1-5.5-2-13.2-3.3-13.2-.5 0-.8.7-.8 1.6 0 2.7-1.8.5-3.6-4.6-1.9-5.4-2.9-6.1-3.9-3.1-.3 1.1-1.3 2.5-2.1 3.2-1.4 1.2-1.6.6-1.2-4.9.1-3.4.2-6.2.2-6.2-.1 0-2.1.7-4.4 1.5-5.2 1.8-5.9 1.4-3-1.7 2.5-2.6 8-10.4 8-11.2 0-.3-.7-.6-1.5-.6s-1.5-.7-1.5-1.5c0-2-1.7-1.9-2.8.1-1.5 2.6-4.9 1.1-14.1-6.2l-8.3-6.6 2.6-2.7c1.8-1.9 2.4-3.3 2-4.6-.9-2.2 1.9-4.5 5.4-4.5 3.2 0 8.4-4 11.2-8.5 2-3.3 2.1-3.9 1-8.7-1.6-6.6-.7-18.2 2-27.3 4.5-14.6 12.1-23.1 24.7-27.7 5.2-1.9 8.4-2.1 31.4-2.5 25.2-.4 25.6-.4 33.7 2.2 14.7 4.7 25.3 15.7 29.8 31.3.3.9 1.2.7 3.3-.9 2.1-1.5 3.9-2 6.1-1.7 2 .3 4.8-.2 7.1-1.4 4.9-2.3 11.5-2.3 15.4 0 5.9 3.6 7.5 12.2 6.4 34.2-.3 5.6.1 8.8 1.5 12.4l1.9 4.9-2.3 1.9c-1.2 1-2.8 1.8-3.6 1.8-1 0-.9 1.1.5 5.4 2 5.7 6.5 25.3 7.5 32.6.6 4.2.6 4.3-.7 2.1s-1.4-1.7-2 6c-.8 12.2-7.6 29.9-11.5 29.9-1.2 0-2.2 2.4-2.2 5.3 0 1.8-.2 1.9-1 .7-.5-.8-1-2.6-1-3.9v-2.5l-2.2 2.4-2.3 2.5-.8-6.5c-1.4-10.5-1.9-11.1-3.2-3.6-.6 3.7-1.9 4.2-2.1.8-.1-4.4-1.9-12.6-4.5-21-1.6-5.1-3-11.4-3-14-.2-9-.7-9.7-6.7-9.7-4.2-.1-5.1.2-4.8 1.5 1.2 4.2 2.7 13.2 2.3 13.6-.2.3-1.8-1.3-3.4-3.6l-3-4-1.7 4.5c-1 2.5-2.2 4.5-2.7 4.5-.6 0-.8-.4-.5-.8.2-.4.1-1.4-.4-2.1-.5-.9-1.4.6-2.6 4.5-1 3.3-1.9 5.1-2.1 4.1-.8-3.2-2.6-1.8-1.9 1.5.8 3.8-.5 2.9-2-1.5l-1.1-3.2-1.7 6c-3.2 11.2-3.4 11.6-3.6 6l-.2-5-1.3 5-1.3 5-.2-5.5c-.1-3-.2-6.2-.1-7s-.8.1-1.8 2c-1.1 1.9-2.1 2.8-2.1 2 0-1.1-.6-.9-1.9.7l-1.9 2.3-.9-3.5c-.8-3.3-.9-3.4-3.3-2.2-1.4.7-2.6 2.3-2.8 3.6-.3 1.9 0 2.2 1.7 1.6 2.7-.8 3.5 1.2 2.3 5.8-1.3 4.6.3 6 12.2 11.6 10.9 5 14.7 7.8 18.9 13.9 1.7 2.6 6.3 8.7 10.2 13.6l7 8.8 4.4-.6c2.5-.3 6.9-1.4 9.8-2.3 5.2-1.6 5.5-1.6 16.6 1.1 10 2.5 12.6 2.8 23.2 2.4 14.9-.5 18.2-1.7 39.8-13.7 9-5 23.5-12.2 32.2-16 8.8-3.8 17.9-7.8 20.2-9.1 2.4-1.2 5-1.9 6.1-1.6 1 .4 7.5 6.1 14.3 12.7 11.1 10.9 22.8 20.9 24.3 20.9.3 0 .6-45.7.6-101.5V0H0z"/><path d="M319.4 92.5c-.4 1.6-2 6.1-3.6 9.9-3.1 7.7-3.4 11.1-1.4 16.1 1.6 3.7 5.2 6.3 6.8 4.7 1.3-1.3 1.3-28 0-31.2l-1-2.5zm-72.8 52.2c1.6.6 5.2 1.2 7.9 1.2 2.8 0 6.3-.6 7.9-1.2 2.6-1.1 1.7-1.3-7.9-1.3s-10.5.2-7.9 1.3m97.6 27.3c0 1.4.2 1.9.5 1.2.2-.6.2-1.8 0-2.5-.3-.6-.5-.1-.5 1.3m113.3 16.8c-12.1 6.2-12.6 7-8 12.4 1.3 1.5 3.5 5.8 5 9.5l2.7 6.9-6.6 25.8c-3.6 14.3-7 26.4-7.6 27s-1.3.6-1.9.1c-.5-.6-3.9-12.8-7.6-27.1l-6.6-26.2 2.7-6.8c1.5-3.8 3.5-7.8 4.6-9 2-2.2 2.4-4.4.8-4.4-2.7 0-13.8 5.4-22.3 10.9-7.8 5.1-9.6 6.7-9.9 9.1-.3 2.2.1 3.1 1.8 4 1.4.8 3.5 4.3 5.6 9.4l3.4 8.1-4.3 19.5c-6 27.3-7.6 33.3-9 33.7-1.3.5-2.9-4.3-11.4-34.9l-5.2-18.7 2.7-6.8c1.5-3.7 3.4-7.8 4.2-9 1.3-2.1 1.2-2.2-3.4-3-8-1.3-25.9-1-27.4.5-1.1 1.1-.8 1.7 1.4 3.5 1.4 1.2 4.1 5.4 5.8 9.4l3.2 7.2-3.7 24.3c-4.5 29.7-5.1 32.4-7 30.8-.8-.6-5.2-12.7-9.9-26.8l-8.5-25.7 1.5-6.8c1.1-4.7 2.6-7.9 4.6-10.3 4.3-4.8 2.7-6.4-6.2-6.4-3.7 0-8.2.3-9.9.6-2.9.6-3.1.9-2.6 3.5.7 2.9-.3 5.6-3.1 8.4-1.5 1.5-1.4 1.9 1.6 5.7l3.3 4.1-3 2.7c-1.7 1.5-3.6 2.9-4.2 3.1-.8.3-.3 3.5 1.5 10.4 1.4 5.5 2.8 13.7 3.1 18.3.5 7.6.8 8.5 3.2 9.9 6.4 3.9 18.7 12.5 32.1 22.3 21 15.4 18.8 14.3 26.9 13.3 12.2-1.6 29.9 3.3 31.6 8.7 1.3 4-1.9 4.8-9.2 2.5-2-.6-2.3-.4-2.3 1.7 0 3.3 1.8 4.7 13 10.3 13 6.5 17.6 7.7 27.9 7.3 7.4-.3 8.6-.1 8.9 1.4.5 2.4-9.3 7.1-19.9 9.6-7.5 1.8-9.3 1.9-17.4.8-9.4-1.3-11.8-2.2-25.1-10.3-7.9-4.8-10.8-6.1-21.5-10.3-5.9-2.2-37.2-20.2-51.5-29.5-4.5-2.9-9.4-6.9-11-9-1.6-2-3.9-4.8-5-6.2-1.2-1.4-2.7-5-3.4-8.1-1.3-5.4-1.4-5.5-2.1-2.7-1.2 5.1-.9 16.6.6 25 1.1 5.9 1.2 8.8.4 11-1 2.7-.5 4.2 3.9 13.5 7.8 16.3 12.6 29.3 15.2 41.3l1.3 5.7H512V271l-2.5-10.8-2.6-10.8 2.6-5.7c2-4.6 2.5-7.4 2.5-13.6v-7.8l-5.8-4.1c-3.2-2.3-8.1-6.1-10.9-8.6-2.8-2.6-5.5-4.6-5.9-4.6-.5 0-.2.6.7 1.3s3 4.8 4.8 9.2l3.2 8.1-5 17.4c-2.7 9.6-5.9 21.2-7.1 25.7-2.5 9.4-4.4 12-5.9 8-.6-1.5-3.7-13.9-6.9-27.8l-6-25.1 3.4-7.4c2-4.2 4.6-8.1 6-9.1 1.7-1.1 2.4-2.2 2-3.5-.2-1.2.4-2.8 1.5-3.9 2.3-2.3 2.6-1.6-4.5-10.2-2.2-2.6-4.6-4.7-5.5-4.6-.9 0-6.6 2.6-12.6 5.7m-423.4 3.3c-4.7 5.6-5 6.3-3.6 7.9.8.9 1.5 2.6 1.5 3.8s1.3 3.5 2.9 5 4.1 5.9 5.6 9.7l2.6 7.1-2.9 10.9c-12.4 45.7-12.8 47-15 42.9C24 277.1 13 229.1 13 226.2c0-2.5 5.5-14.9 7.8-17.7.9-1.1-.8.3-3.8 3-3 2.8-8.1 7-11.3 9.4L0 225.2v8.4c0 5.8.6 10.2 1.9 14 2 5.5 2 5.6 0 13.1C.1 267.8 0 272.1 0 326.2V384h187.7l1.3-5.8c2.4-11.2 9.5-30.5 15.2-41.5 2.7-5.2 3.3-7.4 3.4-13.7.1-4.1.4-13.4.8-20.5.6-12.1.5-12.8-.9-9.7-1.7 3.7-3.1 4.1-4 1.1-.6-1.9-1.2-1.2-4.1 4.2-4.4 8.3-9.1 12.5-28.1 25.1-37.6 24.9-38.9 25.6-51.3 30.2-5.2 1.9-14.4 5.5-20.5 8-9.6 4-11.9 4.6-18 4.5-3.8 0-8.8-.4-11-.9-9.4-2-28.1-11.8-27.2-14.3.2-.8 4.4-1.2 13.8-1.3 12.3 0 14.2-.3 23.4-3.3 9.8-3.2 14.5-6.3 14.5-9.6 0-2-2-2.9-3.3-1.6-3.1 3.1-10.4-.2-7.6-3.5 2.6-3.1 7.4-4.7 15.9-5.2 7.3-.4 9.4-.1 13.4 1.7 2.7 1.1 5.6 2.1 6.5 2.1 1.7 0 2.3-.5 28.8-21.9 9.8-7.9 20.8-16.3 24.4-18.7l6.6-4.3.6-7.8c.3-4.3 1.9-12.5 3.6-18.3s3.1-10.8 3.1-11.1-1.5-1.3-3.4-2.2c-4.9-2.3-5.3-4.8-1.6-8.5l3-3.1-2-3.3c-1.1-1.8-2-4.7-2-6.4 0-3.8-1.5-4.4-11.1-4.4-8.5 0-10.5 1.7-6.6 5.8 1.4 1.5 3.5 5.9 4.7 9.8l2.1 7.1-7.1 22.9c-8 25.7-9.9 31.2-11.1 32-1.2.7-2.5-4.9-7-31.5l-4.1-24.4 2.8-7.1c1.5-3.8 4-8.2 5.5-9.6 2-1.7 2.6-2.9 2-3.9-.8-1.2-3.7-1.3-16.1-.8-8.4.3-15.4.8-15.7 1-.2.3.2 1.6 1.1 2.9 2.1 3.2 5.6 13.5 5.6 16.5 0 2.5-13.6 50.6-15.2 53.6-1.5 2.8-3.5.4-4.3-5.1-.4-2.6-2.4-13.5-4.5-24.2s-4-20.8-4.3-22.5c-.7-3.9 4.8-17.1 7.9-19.2 1.5-1 2.2-2.4 2.2-4.4-.1-2.5-1.2-3.6-9.2-8.8-9.6-6.2-21.1-11.6-22.6-10.6-1.4.9-1.2 3.3.3 4.2 1.3.8 6.7 13.8 6.7 16.2 0 2-14 52.3-15.2 54.5-1 1.9-1.1 1.8-2.3-.5-.7-1.3-2-5.8-2.9-9.9-.8-4.1-3.1-14.9-5.1-24s-3.6-17.8-3.6-19.5c-.1-3.3 4.3-13.9 7.1-17 .9-1.1 2-3.1 2.3-4.5.5-2.3-.1-2.8-10.4-7.8-6-2.8-11.5-5.2-12.3-5.2s-3.7 2.8-6.5 6.1"/></svg>