<svg xmlns="http://www.w3.org/2000/svg" width="682.667" height="512" version="1.0" viewBox="0 0 512 384"><path d="M0 103.1v103l7.3-6c3.9-3.3 12.1-10.9 18-17S36.9 172 37.9 172c.9 0 4.8 1.5 8.7 3.4 3.8 1.9 11.6 5.3 17.4 7.6s17 7.6 25 11.8c29.8 15.6 34.2 17.2 47.8 17.2 8.6 0 14.5-1 25.6-4.2l6.9-2 8.1 2.1c4.5 1.2 8.9 2.1 9.8 2.1 1.4 0 6-5.7 18.1-22.7 4.1-5.6 9.1-9.2 20.9-14.8 4.2-2 8.6-4.7 9.7-5.9 1.8-2 2-2.7 1-5.4-1.4-4.1-.5-6.6 2.1-5.9 3.3.9 2.4-2.8-1.2-5.2l-3.3-2-1.4 4.4c-.8 2.5-1.8 4.5-2.3 4.5-.4 0-.8-2.1-.9-4.8-.1-5.4-1.7-10.8-1.8-6-.1 2.9-1.7 4.6-2.4 2.6-.2-.7-.7 1.2-1.1 4.2-1 8.1-2.5 9.8-2.7 3l-.1-5.5-1.3 3.5c-1.3 3.5-1.3 3.4-1.6-4-.2-6.8-.3-7.1-.8-2.7-.3 2.6-1 4.6-1.5 4.5-.5-.2-1.5 1.3-2.2 3.2l-1.2 3.5-.1-4.3c-.1-2.4-.9-6.7-1.8-9.5-1.5-4.7-1.8-4.9-2.4-2.7-.6 2.3-.9 2-3.4-3.5-2.8-6.3-2.6-6.3-6.2-.8-1 1.5-1.2.8-1.2-4.5-.1-3.4-.3-6.2-.5-6.2s-2.3.7-4.6 1.5c-5.8 2-5.8 2-2.3-1.8 4.2-4.4 8.3-10.9 7.7-11.9-.3-.5-1.2-.4-2 .3-1.2 1-1.3.9-.8-.4 1-2.8-.7-4.1-2.3-1.8-.8 1.2-2 2.1-2.8 2.1-1.5 0-16.2-10.7-18.4-13.4-1.2-1.4-1.1-1.9.7-3.9 1.1-1.2 2.2-3.6 2.4-5.2.3-2.7.7-3 4.5-3.3 3.7-.3 4.9-1 9.3-6 4.2-4.7 5-6.1 4.5-8.2-.4-1.4-.9-6.1-1.2-10.5-1.2-19.9 7.4-38.2 21.4-45.7 8.2-4.4 13.5-5 42.8-4.6l27 .3 6.6 3.1c3.7 1.8 8.6 4.9 10.9 7 5.4 4.9 11.3 13.9 13 19.8l1.3 4.6 3-2.6c2.2-1.8 3.7-2.3 5.6-1.9 1.5.3 4.3-.1 6.2-.9 6-2.5 13.2-3 16.6-1.3 6.1 3.2 7.3 10.1 6.4 37.8-.1 3.1.5 7.6 1.3 10 2.1 6 2 6.6-1.5 7.8-2.4.8-3 1.5-2.4 2.8.3 1 1.7 5.8 3 10.8 4.7 17.6 7.8 37 4.7 28.4-.7-1.8-1-.8-1.4 4.6-.3 3.9-1.5 9.8-2.7 13.2-4.3 12.8-6.3 17.3-7.2 16.8-.5-.4-1 .2-1 1.2-.1 1-.5.4-.9-1.2-.7-2.8-.8-2.6-.9 1.5-.1 3.3-.4 4.1-1.1 3-.8-1.2-1-1-1.1 1-.1 2.1-.4 1.8-1.5-1.5-1-2.8-1.3-3.2-1-1.2.3 2.2.1 2.5-1 1.6s-1.4-.8-1.5.2c-.2 2.9-2.9-8.8-3-13.1-.1-2.5-.3-3.6-.6-2.5-1.6 7.2-2.5 9.5-3.4 9-.5-.4-.7-1-.4-1.4.7-1.3-2.2-16-4.5-22.6-1.2-3.3-2.4-8.5-2.6-11.5-1.1-12.4-.9-12-6.6-12h-5.1l.6 4.2c.4 2.4.9 5.9 1.2 7.8l.7 3.5-3.1-3.3c-1.7-1.7-3.2-3.2-3.4-3.2s-1.2 1.8-2.2 4.1c-1.8 3.9-1.9 3.9-3 1.9-1.1-2.1-1.3-1.9-2.5 2.6-1.4 5.2-3 7.9-3 5.1 0-.9-.5-1.7-1.1-1.7-.7 0-.8 1.2-.4 3.2.9 4-.6 2.9-2.1-1.5l-1.1-3.2-1.7 6c-2.7 9.6-3.4 10.7-3.7 5.5l-.1-4.5-1.2 5.5-1.1 5.5-.5-7.5-.5-7.5-1.4 3.3c-.9 2.2-1.7 2.9-2.1 2.1-.6-.8-1.2-.6-2.1.9-1.3 2.1-1.4 2.1-2.4-1.3-.9-3.3-1.1-3.4-3.5-2.2-2.8 1.4-4.3 6.4-1.6 5.4 3.5-1.4 4.5.1 3.1 4.8-1.3 4-1.2 4.4.8 6.3 1.2 1.1 7 4.2 12.8 7 11.5 5.5 11.1 5.1 25.4 23.6 10.2 13.2 9.4 12.8 21.8 9.5l7.9-2.2 8.1 2.3c5.9 1.7 11.8 2.5 20.8 2.8 17.7.6 22.2-.9 49.4-16.3 6.1-3.5 16-8.4 22-11 6.1-2.6 15.2-6.7 20.4-9.1C467 171 472 169 473 169s6.8 5 13 11.2c10.5 10.5 23.6 21.8 25.3 21.8.4 0 .7-45.5.7-101V0H0z"/><path d="M320 90.9c0 .8-1.6 5.5-3.6 10.5-3.6 9-3.7 9.1-2.3 14.4 1 3.9 2.1 5.8 4.1 7 1.5.9 3 1.3 3.4.9 1.3-1.3 1-31.5-.4-32.9-.9-.9-1.2-.9-1.2.1m-73.4 53.8c1.6.6 5.2 1.2 7.9 1.2 2.8 0 6.3-.6 7.9-1.2 2.6-1.1 1.7-1.3-7.9-1.3s-10.5.2-7.9 1.3m211.9 43.9c-9.5 4.8-11 5.8-10.7 7.7.2 1.2 1.1 3 2 4 1.8 2 7.2 15.4 7.2 17.7-.1 2.5-14.8 52.2-15.8 53.2-1.5 1.5-2.8-3-8.6-29.5-4.2-18.8-5.3-25.4-4.6-27.2 2.4-6.3 5.4-12.2 7.2-14.1 1.2-1.3 1.5-2.4.9-2.8-2.3-1.4-16.6 5.6-28.4 14-4.8 3.5-5.6 7-2 10.1 1.1 1 3.4 5.2 5 9.4l3.1 7.7-6.3 24.3c-7.2 28.2-7.4 28.9-8.4 28.9-1.4 0-2.8-4.5-9.1-29.8l-6.1-24.4 2.6-6.6c1.5-3.7 3.6-7.7 4.7-8.9l2-2.1-6.9-.8c-9.5-1.2-24.2-.7-26 .8-1.3 1.1-1.2 1.5 1 3.3 2.9 2.3 8.7 13.8 8.7 17.2 0 3.9-8 50.6-9.1 53.3l-1.1 2.5-1.4-2.7c-2.7-5.2-16.7-49.3-16.7-52.5.1-4.8 3.3-13.5 6-16.4 3.7-4 2.3-5.9-4.7-5.9-3.1 0-7.8.3-10.4.6l-4.6.7.6 3.6c.5 3 .1 4.3-2 6.7l-2.5 3.1 3 3.7c3.6 4.3 3.3 5.8-1.6 8.7-1.9 1.2-3.5 2.2-3.5 2.4 0 .1.7 2.1 1.5 4.5 2.4 6.7 5.8 26 5.1 29.2-.4 2.2-.1 3 1.2 3.5 2.7 1 18.4 11.7 32.7 22.3 21.6 16 20.5 15.5 27.3 14 12.1-2.5 32.2 3.8 32.2 10.2 0 2.6-2.6 3.3-6.7 1.9-4.8-1.8-6.5-.1-3.7 3.6 2.1 2.9 18 11.5 24.9 13.5 2.2.6 8.5 1.2 14 1.2 8.2.1 10 .4 10 1.6 0 2.3-9.2 6.7-19.3 9.3-8.5 2.3-9.6 2.3-18.1 1.2-9.4-1.3-10-1.6-29.6-12.9-4.4-2.6-9.1-4.9-10.5-5.3-5.1-1.2-15.1-6.3-35.5-18.2-32.6-19.1-36.1-22.2-41.5-36.9-1.2-3.4-2.4-6.2-2.5-6.2-1.4 0-1.1 21.6.4 30.2 1.1 6.3 1.1 8.1.1 9.3s-.1 3.9 5.3 15.7c6.8 14.9 11.6 28.2 13.8 38.1l1.2 5.7H512v-54.3c0-54.1 0-54.3-2.6-67.7l-2.5-13.3 2.5-4.8c2.2-4 2.6-5.9 2.6-13.5v-8.9l-5.4-3.8c-3-2-8-6-11-8.8-3.1-2.8-5.6-4.7-5.6-4.1 0 .5.6 1.5 1.4 2.2.8.6 2.7 4.7 4.1 9.1l2.7 7.9-8.2 25.3c-4.5 13.8-8.8 25.8-9.5 26.6-1.1 1.2-1.5.8-2.4-2.5-1.7-6.5-10.1-48.7-10.1-51 0-3.8 6.6-15.8 9.5-17.4 1.8-1 2.5-2 2.1-3.3-.2-1 .4-2.7 1.5-3.8 2.3-2.3 2.6-1.6-4.5-10.2-2.2-2.6-4.6-4.7-5.5-4.6-.9 0-6.5 2.5-12.6 5.5m-425.5 4c-4.5 5.7-5 6.8-3.6 7.6.9.5 1.6 2 1.6 3.3s1.3 3.6 2.9 5.2c1.6 1.5 4.3 6 6 10l3 7.2-3.9 15.8c-2.1 8.7-5 20.7-6.4 26.8-2.9 12.2-4 14.5-5.5 13-.6-.6-4.2-13.3-8.1-28.2l-7-27.2 3.2-7.3c1.7-4 3.8-8.1 4.6-9.1 2.8-3.2-.4-1.7-3.9 1.9-1.8 2-6.2 5.8-9.6 8.6l-6.3 5v9c0 5.7.6 11.1 1.7 14.4 1.5 4.9 1.5 5.8 0 13.6-1.5 7.1-1.7 16.3-1.7 65V384h187.7l1.3-5.8c1.9-8.8 7.5-24.4 13.3-37.2 4.6-10.2 5.2-12.3 5.3-18.5 0-3.9.4-12.2.8-18.5.5-7.1.4-12.5-.2-14-1-2.4-1-2.4-1.7 1.2-.9 4.5-3.1 6.9-4.1 4.3-.5-1.2-1.4-.4-3.6 3.7-4.6 8.5-8.9 12.1-33.3 28.3-31.2 20.6-33.8 22.1-45.7 26.4-5.8 2.1-14 5.4-18.4 7.4-12.4 5.5-14.8 6-24.3 5.4-12-.8-28.8-7.8-34.1-14.2-1.6-1.9-2-1.8 13-1.9 11.3-.1 13.5-.5 23-3.5 10.6-3.4 15-6.1 15-9.1 0-2.5-.9-3-3.8-1.9-5.7 2.2-9.6-1.7-5.4-5.3 4.6-4.2 21.6-5.2 29.1-1.8 2.4 1.1 4.9 2 5.6 2s9.1-6.4 18.6-14.1c19.9-16.2 30.6-24.4 36.7-28.3 3.5-2.2 4.2-3.1 4.2-5.9 0-4.1 3.3-19.3 5.9-27.7 1.3-4 1.7-6.6 1-6.8-2-.8-6.9-5.4-6.9-6.7 0-.7 1.4-2.8 3.1-4.5l3.2-3.1-2.2-2.3c-1.4-1.5-2.1-3.5-2.1-6.3v-4l-5.2-.7c-8.5-1-12.5-.7-13.8.9-1.1 1.3-.9 2 .9 3.9 1.2 1.3 3.2 5.7 4.5 10l2.4 7.7-8 26.1c-4.3 14.4-8.4 27.1-9 28.2-1.1 2-1.2 2-2.4-.9-1.2-3.2-7-34.8-8.7-48-.9-7.6-.9-8.3 1.7-14.5 1.5-3.6 3.9-7.5 5.3-8.7 1.8-1.4 2.4-2.7 1.9-3.9-.6-1.5-1.9-1.6-13.9-1.1-7.2.4-14.5 1-16 1.3-2.6.6-2.7.8-1.2 2.4 2.1 2.3 6.5 13.4 6.5 16.5 0 2.8-12.3 50.5-14.1 54.5-1 2.2-1.2 2.3-2.3.8-.7-.9-3.8-13.8-7-28.5l-5.8-26.9 3.3-7.8c1.8-4.3 4.2-8.4 5.4-9.2 1.6-1 2-2.1 1.7-4.3s-1.9-3.8-8-7.8c-12.2-8-23.5-13.2-24.7-11.3-.3.5.3 2.2 1.4 3.7 1.1 1.6 3.2 5.8 4.6 9.5l2.7 6.7-6.2 25.3c-7.6 31.6-7.8 32.2-9.5 30.8-.7-.6-4.3-13.4-8-28.5l-6.7-27.4 3.2-7.8c1.8-4.3 4.1-8.4 5.2-9.1 1-.8 1.7-1.9 1.5-2.5-.2-.7-.1-1.9.4-2.8.6-1.2-.1-1.8-2.9-2.8-2-.7-7.2-3.1-11.4-5.2-4.3-2.1-8.4-3.9-9.2-3.9s-3.8 3-6.6 6.6"/></svg>