<svg xmlns="http://www.w3.org/2000/svg" width="682.667" height="512" version="1.0" viewBox="0 0 512 384"><path d="M0 103.1v103l8.8-7.4c4.8-4.2 12.4-11.6 17-16.6s9.4-9.4 10.6-9.7c1.5-.3 4.4.5 8.2 2.4 3.3 1.6 12.2 5.5 19.9 8.7 7.7 3.1 21.2 9.5 29.9 14.3 20.9 11.3 26.6 13.3 38.8 14 10.2.5 17.2-.4 29.2-3.9l6.8-2.1 7.7 2.1c4.3 1.2 8.7 2.1 9.8 2.1 1.5 0 3.9-2.4 8-8.1 3.2-4.4 7.7-10.6 10.1-13.9 4.6-6.3 9.4-9.8 21.4-15.5 4.2-2 8.6-4.7 9.7-5.9 1.8-2 2-2.7 1-5.4-1.4-4.1-.5-6.6 2.1-5.9 3.3.9 2.4-2.8-1.2-5.2l-3.3-2-1.4 4.4c-.8 2.5-1.8 4.5-2.3 4.5-.4 0-.8-2.1-.9-4.8-.1-5.4-1.7-10.8-1.8-6-.1 2.9-1.7 4.6-2.4 2.6-.2-.7-.7 1.2-1.2 4.2-1.1 8.1-2.4 9.6-2.5 3l-.2-5.5-1.3 3.5c-1.3 3.5-1.3 3.4-1.6-4l-.2-7.5-.6 5.5c-.4 3.9-.9 5.1-1.5 4.1-.7-1.1-1.2-.5-2.2 2.5l-1.2 3.9-.1-4.3c-.1-2.4-.9-6.7-1.8-9.5-1.5-4.7-1.8-4.9-2.4-2.7-.6 2.3-.9 2-3.3-3.3-1.4-3.1-2.8-5.7-3-5.7s-1.3 1.5-2.5 3.2l-2.1 3.3v-13.6l-2.7 1.4c-7.4 3.8-7.7 3.2-2.4-3.6 4.4-5.6 6.8-10.9 4.2-9.3-.5.3-1.1-.4-1.5-1.7l-.6-2.2-1.5 2.2c-.9 1.3-2.2 2.3-3 2.3-1.5 0-16.2-10.7-18.4-13.4-1.2-1.4-1.1-2 .8-4 1.3-1.3 2.1-3.2 2-4.2-.5-2.8.9-4.4 3.9-4.4 3.6 0 9.1-3.9 12.5-8.7l2.7-4-1.5-6.1c-1.3-5.1-1.4-7.5-.5-14.1 3-21.8 12.4-35.3 27.9-40.2 5.2-1.6 9.8-1.8 33.3-2 30.8-.2 33.8.3 44.6 7.7 7.4 5.2 14.9 16 16.7 24.2l.7 3.2 3.1-2.6c2.3-1.9 3.8-2.4 5.8-2 1.7.3 4.5-.2 7.1-1.4 4.7-2.1 12.8-2.6 15.9-1 1 .6 2.9 3 4.1 5.3 2.3 4.3 2.5 7.5 2 33.5-.1 3 .5 6.9 1.3 8.9 2.2 5.2 1.9 6.9-1.6 8.3-2.2.9-2.8 1.7-2.3 2.9 2.1 5.2 9.5 36.8 9.4 40.5-.1.6-.7 0-1.4-1.3-1.2-2.2-1.4-1.8-1.8 5-.7 10.1-6.9 28.6-9.1 27.2-.6-.4-.8 0-.4 1.1.4 1 .3 1.5-.3 1.1-.6-.3-1 .2-1.1 1.2 0 1.6-.1 1.6-.9-.2-.7-1.7-.9-1.4-.9 1.3-.1 2-.5 3.1-1.1 2.7-.7-.4-.8.3-.4 2.1.5 1.9.4 2.5-.5 2-.6-.4-1.1-1.7-1.1-2.9s-.5-2.9-1.1-3.7c-.9-1.2-1-1-.6.8.5 1.9.3 2.1-.9 1.1-1.1-.9-1.4-.8-1.5.7-.1 3.2-2.8-8.9-3-13.6-.1-2.7-.3-3.5-.6-2-1 5.7-2.4 10-3.4 10-.6 0-.7-1.3-.4-3.3.7-3.5-1.2-12.6-4.5-22.1-1.1-3.3-2.3-8.5-2.6-11.5-1.2-12.7-.9-12.1-6.4-12.1-5.8 0-6 .6-3.6 9.7.8 2.9 1 5.3.6 5.3-.5 0-2.2-1.7-3.9-3.7-1.7-2.1-3.1-3.3-3.1-2.6 0 .6-.7 2.8-1.6 4.9-1.6 3.8-1.6 3.8-2.8 1.5-1.2-2.2-1.3-2.1-2.6 2.5-1.4 5.2-3 7.9-3 5.1 0-.9-.5-1.7-1.1-1.7-.7 0-.8 1.1-.4 3.1.5 2 .3 2.9-.3 2.5-.5-.3-1.2-2-1.6-3.7-.8-4.3-1.4-3.4-3.7 5.2-1 4-2.1 7.4-2.4 7.7s-.6-1.7-.6-4.4l-.1-4.9-1.2 5.5-1.1 5.5-.5-7.5-.5-7.5-1.4 3.3c-.9 2.1-1.7 2.9-2.1 2.2-.5-.8-1.2-.5-2.3.9-1.4 2.2-1.5 2.1-2.2-1.6-.4-2.1-1-3.2-1.2-2.5-.3.6-.9.9-1.4.6-1.5-.9-3.9 1.6-3.9 3.8 0 1.4.5 1.8 1.5 1.4 3.4-1.3 4.4.2 3 4.9-1.3 4-1.2 4.4.8 6.3 1.2 1.1 7 4.2 12.9 7 7.7 3.7 11.5 6.2 13.7 8.9 1.7 2.1 6.7 8.5 11.2 14.3s8.7 11 9.3 11.7c.9 1 2.8.8 9.1-.8 4.4-1.2 8.9-2.3 10-2.6 1.1-.2 6.4.7 11.9 2.1 12 3.2 28.9 3.6 37.7 1 5.5-1.6 16.4-7 34.4-16.9 5.5-3 15.4-7.8 22-10.6s15-6.7 18.7-8.5c3.7-1.9 7.7-3.4 8.9-3.4 1.3 0 6.6 4.4 14.7 12.3 12.2 11.8 22.3 20.7 23.6 20.7.3 0 .6-45.5.6-101V0H0z"/><path d="M316.7 100.7c-3.6 10-3.8 10.8-2.7 15.4 1 3.9 1.9 5.3 4.2 6.5 1.6.9 3.2 1.3 3.5 1 1.1-1 .8-31.5-.2-32.5q-1.05-.9-4.8 9.6m-70.1 44c1.6.6 5.2 1.2 7.9 1.2 2.8 0 6.3-.6 7.9-1.2 2.6-1.1 1.7-1.3-7.9-1.3s-10.5.2-7.9 1.3m212.9 43.4c-10 5.2-11 6-11.1 8.6 0 1.5.7 3.3 1.6 4 1 .7 3 4.7 4.5 9 3.1 8.8 3.2 7.6-2.7 26.8-8.4 27.7-10 32.4-11.3 34.1-1.2 1.7-1.4 1.5-2.4-2.1-.6-2.2-2-8.5-3.2-14-1.1-5.5-3.4-16.3-5-24l-3-14 3.5-7.6c1.9-4.2 4.2-8.2 5.1-8.9 1.8-1.5 2-3 .3-3-3.1.1-13.7 5.3-22.3 11-10.4 6.9-12.1 9.7-7.8 13.5 1.2 1.1 3.5 5.5 5.1 9.7l2.9 7.6-6.8 25.7c-7.2 26.7-7.4 27.5-8.9 27.5-1.2 0-2.5-4.7-9.1-32.6l-5.2-22 2.8-6.5c1.6-3.5 3.8-7.4 4.8-8.7 2-2.1 2-2.2.1-2.3-1 0-5.5-.4-9.9-.9-10.1-1.1-20.5-.2-21.2 1.8-.4.8.5 2.3 2 3.5 2.8 2.4 7.7 13.2 7.7 16.9 0 4.4-9 52.2-10 53.2-1.7 1.7-2.6-.2-8-17.4-2.8-9.1-6.4-20.6-8-25.7-1.6-5-2.6-10.2-2.3-11.5 1.5-6.8 3.8-12.6 6-14.9 4.9-5.3.4-7-14.4-5.3l-5.3.7.6 3.6c.5 3 .1 4.3-2 6.7l-2.5 3.1 3 3.6c3.7 4.5 3.2 7.3-1.8 9.3-2.6 1.1-3.3 1.9-2.8 3.2 2.2 5.5 5.7 21.8 6 28l.4 7.4 6.1 3.7c3.4 2 15.4 10.4 26.6 18.6l20.5 15h12.2c13.8.1 20.8 1.8 25.9 6.4 5 4.5 1.9 8.8-4.2 5.7-4.3-2.1-6.1-1.2-4.8 2.4.8 2.3 2.9 3.9 10.6 7.8 14.6 7.4 18.9 8.6 29.3 7.9 6.8-.5 8.9-.4 9.9.8.9 1.1.6 1.7-1.4 2.9-1.4.9-3.7 2.3-5.1 3.1-1.4.9-6.9 2.7-12.3 4-8.8 2.3-10.4 2.4-17.9 1.5-9.8-1.2-10.6-1.5-24.6-9.8-5.9-3.5-13.7-7.4-17.3-8.8-8.7-3.3-15.8-6.9-33.2-17.1-35.1-20.5-38.7-23.8-44.1-40.6q-2.1-6.3-2.1-1.5c0 1.3-.2 4.8-.6 7.9-.4 3.5 0 9.7 1.1 16.4 1.4 8.9 1.4 11.2.4 13.2-1.1 2-.9 2.9.8 6.1 6.6 11.8 15.7 35.3 18.4 47.5l1.2 5.7H512v-52.7c0-51.7 0-52.9-2.5-68l-2.6-15.3 2.6-4.3c2.2-3.8 2.5-5.5 2.5-13.4v-9l-4.7-3.4c-2.7-1.8-7.6-5.7-11-8.7-6.1-5.1-8.2-5.9-4.5-1.8 1 1.2 2.9 5.5 4.1 9.6l2.3 7.5-8.6 24.8c-4.7 13.6-8.8 25.2-9.1 25.7-1.9 3-3.5-.7-5.5-12.5-.7-3.9-2.5-13.9-4.1-22.4s-2.9-16.5-2.9-17.7c0-3.7 6.8-16 9.6-17.2 1.8-.9 2.4-1.9 2.4-4.2 0-1.8.6-3.3 1.5-3.6.8-.4 1.5-1.1 1.5-1.6 0-1.5-8.8-11.6-10.8-12.6-1.2-.5-5.2 1-12.7 4.9M33 192.2c-5.4 6.8-5.8 7.6-3.5 8.4.9.4 1.5 1.9 1.5 3.5 0 1.9.7 3.3 2.1 4.1 1.2.7 3.9 4.9 6 9.4l3.7 8.1-5.9 26.4c-3.3 14.5-6.2 27.2-6.5 28.1-1.1 3.7-3.6 1.5-5.1-4.7-.6-2.2-3.8-14.1-7.2-26.4l-6.2-22.4 2.6-6.6c1.4-3.6 3.5-7.8 4.6-9.4 2.7-3.7 1-3.4-2.7.4-1.6 1.7-5.9 5.6-9.7 8.6L0 225.1v9.6c0 6.4.6 11.1 1.7 14.2 1.5 4.4 1.5 5.3 0 13.2C.2 269.4 0 278.2 0 327.2V384h187.5l1.4-5.8c2-8.6 7.5-24 13-36.5 5.2-11.7 6.7-17.2 5.1-18.2-.6-.4-.8-1-.6-1.4 1.3-2 2.8-23.7 2.1-29.8l-.8-6.8-1.7 5.5c-1.3 4.3-2.1 5.5-3.6 5.3-1.4-.1-2.9 1.5-5.3 5.8-4 6.8-10.6 12.1-35.4 28.3-26.4 17.2-32.5 20.6-43.5 24.6-5.9 2.1-13.8 5.2-17.5 6.9-12.3 5.6-16.7 6.4-26.3 5.1-8-1-11.6-2.2-22-7.2-5.7-2.7-10.9-7.2-10-8.6.9-1.5 4.9-1.5 9.9-.1 5.2 1.4 15.4-.2 28.8-4.7 8.6-2.8 10.8-3.9 11.8-6 1.8-4.1 1.4-4.5-3.7-3.8-3.7.5-5.1.2-6.1-1-1.1-1.3-1.1-1.9 0-3.2 2.5-3 6.9-4.4 15.7-5 8.2-.6 9.4-.5 14.7 2l5.8 2.6 4.2-3.2c2.4-1.8 12.1-9.6 21.6-17.3 17.1-13.7 25.7-20.3 31.2-23.8 2.1-1.4 2.7-2.5 2.7-5.5 0-3.8 3.8-21 6.4-29.3l1.4-4.6-3.4-1.7c-1.9-.9-3.8-2.6-4.3-3.8-.7-1.9-.3-2.8 2.3-5l3.1-2.6-1.9-3.2c-1-1.8-1.8-4.9-1.8-7l.1-3.7-7.4-.6c-7.9-.7-12.5.3-12.5 2.7 0 .9.9 2 1.9 2.5 1.7 1 6.1 12.5 6.4 17 .1 2.6-15.4 53.5-16.8 55-1.8 1.8-2.8-1.7-6-19.9-1.4-8-3.2-18.1-4-22.5s-1.4-9.7-1.5-11.8c0-5 4.5-15.6 7.7-18.4 2.4-1.9 2.5-2.4 1.2-3.9-1.2-1.5-2.8-1.6-12.9-1-6.3.3-13.2.9-15.2 1.2l-3.7.7 1.9 2.4c1.1 1.4 3 5.6 4.2 9.4l2.2 6.9-5.8 23.8c-7.5 30.5-7.9 31.7-9.6 31.7-1.4 0-2.4-3.6-11-41.3l-3.3-14.3 2.9-7.2c1.6-4 3.8-8.2 5-9.3 1.1-1.2 2.1-3.5 2.2-5 0-2.6-1-3.6-8.8-8.7-7-4.6-21.3-11.7-23.6-11.7-1.1 0-.1 3.3 2 6.4 1.2 1.9 3.3 6 4.6 9.1l2.3 5.6-3.2 13.7c-1.8 7.5-3.9 16.6-4.7 20.2-4.9 21.2-5.8 24-7.5 22.3-.8-.8-12.3-43.3-14.3-52.9-.8-3.4 3.3-15.2 6.4-18.9 2.3-2.6 3.4-8.5 1.7-8.5-.7 0-5.8-2.2-11.3-5-5.4-2.7-10.4-5-11.1-5s-3.5 2.8-6.3 6.2"/></svg>