<svg xmlns="http://www.w3.org/2000/svg" width="682.667" height="512" version="1.0" viewBox="0 0 512 384"><path d="M0 102.5v102.6l2.1-1.1c1.1-.6 9.1-8.1 17.9-16.6 8.7-8.5 16.3-15.4 17-15.4.6 0 4.6 1.6 8.8 3.6s12.2 5.4 17.7 7.6 16.1 7.2 23.5 11.1c21.7 11.4 28.5 14.6 34.6 16.2 10.9 2.8 28.5 1.5 42.6-3.1 4.4-1.4 5.2-1.4 12.1.5 11.5 3.3 11.7 3.2 17.8-5.2 3-3.9 7.1-9.8 9.3-13.1 4.7-6.9 9.1-10.3 21.1-16.3 5-2.4 10-5.4 11.3-6.6 2-2 2.1-2.7 1.1-5.5-1.4-4.1-.5-6.6 2.1-5.9 3.3.9 2.4-2.8-1.2-5.2l-3.3-2-1.4 4.4c-1.8 5.7-3.1 5.7-3.2.2-.1-2.3-.5-5.3-.9-6.7l-.8-2.5-.1 2.7c-.1 3.2-1.8 4.6-2.3 2.1-.3-1-.8.7-1.2 3.7-1.2 7.9-2.5 9.7-2.7 3.5l-.1-5-1.3 3c-1.4 2.9-1.4 2.9-1.6-3.5l-.2-6.5-.6 5c-.4 3.7-.8 4.6-1.6 3.5-.7-1.2-1.2-.6-2.1 2.5l-1.2 4-.1-4c-.1-4.2-4-17.5-4-13.9-.1 4-1.5 3.4-3.6-1.7-1.2-2.7-2.5-5-3-5.1-.4 0-1.6 1.3-2.6 2.9-2.1 3.2-2.2 2.9-1.9-4.5.2-5.8-.1-6-5.7-3.7-1.9.8-3.7 1.5-3.9 1.5s1.9-2.9 4.6-6.6c5-6.5 6.4-10.1 3.6-9.1-1 .4-1.3.1-1-.7.9-2.3-1.4-2.8-2.6-.6-.6 1.1-1.7 2-2.5 2-1.8 0-19.5-13.2-19.5-14.6 0-.6.9-1.9 2.1-3s1.8-2.6 1.5-3.8c-.7-2.8 1.1-4.6 4.7-4.6 4.3 0 15.2-11 14.2-14.3-2.4-7.9-2.7-11.4-1.6-19.3 2.8-19.9 10.4-32 23.9-38.2 7.1-3.2 14-3.8 42.7-3.7 19.9.1 23.7.3 28 2 6.8 2.5 15.6 8.6 19.4 13.3 3.5 4.5 9.1 15.8 9.1 18.5 0 1.6.4 1.5 3.2-.8 2.5-2.1 3.8-2.5 6.1-2.1 1.9.4 3.9.1 5.4-.9 1.3-.9 4.7-2 7.6-2.6 10.1-1.9 14.8 2.6 16.7 16 .4 3 .3 8.8-.2 13-1.2 10.3-1 15.8.8 19.9 2.1 5.2 1.8 6.9-1.6 8l-3 1.1 1.5 4.2c2.6 7.3 9.8 39.9 8.9 39.9-.2 0-1-1.2-1.7-2.6-1.3-2.5-1.4-2.2-1.9 5.2-.9 11.9-7.4 30.2-10.7 30-.9-.1-1.7.8-1.9 2.2-.2 1.2-.8 2-1.3 1.6-.6-.3-.7.5-.4 2.3.5 2.1.4 2.4-.4 1.3-.6-.8-1.1-2.3-1.1-3.2 0-2.4-1.6-3.1-3.2-1.4-1.1 1.1-1.5.5-2.5-3.8-.7-2.8-1.3-6.7-1.4-8.6-.1-2.1-.3-2.7-.6-1.5-.2 1.1-.9 3.8-1.5 6l-1.1 4-1.3-8.8c-.8-4.9-2.5-12.3-4-16.5-1.5-4.4-2.9-11.1-3.3-15.7l-.6-8-5.2-.3c-6.1-.4-6.1-.3-3.9 9 .7 3.2 1 5.8.5 5.8-.4 0-2.1-1.7-3.8-3.7-1.7-2.1-3.1-3.3-3.1-2.6 0 .6-.7 2.8-1.6 4.9-1.6 3.9-1.7 3.9-2.6 1.4-1-2.4-1.1-2.4-2.5 2-2.6 8-2.4 7.7-3.3 5.5-.7-1.6-.9-1.3-1 1.5l-.1 3.5-1.8-4-1.8-3.9-1.8 6.9c-2.4 9.2-3.7 11.4-3.2 5.2.6-6-.2-5.4-1.9 1.5l-1.2 5.3-.2-8-.1-8-1.9 3.5c-1.1 1.9-2 2.8-2 2 0-1.1-.6-.9-1.9.7l-1.9 2.3-.7-3.8c-.4-2-1-3.1-1.2-2.4-.3.6-.9.9-1.4.6-1.5-.9-3.9 1.6-3.9 3.8 0 1.4.5 1.8 1.5 1.4 3.4-1.3 4.4.2 3 4.9-1.3 4-1.2 4.4.8 6.3 1.2 1.1 7 4.2 12.9 7 7.7 3.7 11.5 6.2 13.7 8.9 1.7 2.1 6.7 8.5 11.2 14.3s8.7 11.1 9.3 11.8c1 1 3.1.7 11.1-1.3l9.9-2.6 10.5 2.7c8 2 13.1 2.7 21.1 2.7 14.5.1 18.6-1.3 43.7-15.1 8.4-4.6 22.9-11.7 32.3-15.7 9.4-4.1 18.1-8.2 19.3-9 4.5-3.1 6.4-2.1 20.6 11.7 7.6 7.3 15.8 14.8 18.4 16.6l4.7 3.3V0H0z"/><path d="M320 91.1c0 .9-1.6 5.6-3.5 10.5-3.6 9-3.7 11.3-1.4 17.5 1 2.6 5.6 5.6 6.8 4.4.3-.4.6-7.6.6-16 0-11-.4-15.8-1.2-16.6-1.1-1.1-1.3-1-1.3.2m-73.4 53.6c1.6.6 5.2 1.2 7.9 1.2 2.8 0 6.3-.6 7.9-1.2 2.6-1.1 1.7-1.3-7.9-1.3s-10.5.2-7.9 1.3M460 188.1c-10.7 5.6-11.5 6.2-11.2 8.7.2 1.5 1 3.4 1.7 4.2 1.6 1.8 6.5 14.6 6.5 16.9 0 2.7-15.6 51.1-16.9 52.4-.9.9-1.4.8-2-.2-.5-.8-3.2-13.2-6-27.7l-5.2-26.3 4.1-8.1c2.2-4.4 4.5-8 5-8 .6 0 1-.7 1-1.5s-.6-1.5-1.3-1.5c-2.4 0-16.2 7.1-23.9 12.3-8.6 5.8-10 8.7-6.1 12.2 1.2 1.1 3.5 5.5 5.1 9.8l2.8 7.9-6.8 24.6c-3.8 13.6-7.4 25.7-8 27l-1.2 2.3-1.2-2.3c-.6-1.3-3.2-11.3-5.7-22.3-7.8-34.5-7.4-30.3-4.1-37.6 1.5-3.5 3.6-7.3 4.6-8.5 1.9-2.1 1.9-2.1-3.4-2.7-6.8-.9-24.1-.9-26.2-.1-2.3.9-2 2.9.7 4.7 2.4 1.5 7.7 13.6 7.7 17.4 0 1.1-.7 5.4-1.5 9.4-.8 4.1-2.8 14.8-4.5 23.9s-3.6 17.6-4.1 19l-1.1 2.5-1.4-2.5c-.7-1.4-2.3-5.7-3.5-9.5-1.1-3.9-4.5-15-7.5-24.9l-5.5-17.8 2-6.9c1.2-3.7 3.2-8.1 4.6-9.7 2.9-3.5 3.1-4.8.9-5.6-2-.8-9.6-.7-15.4.2l-4.5.7.3 4c.2 3-.2 4.8-1.8 6.8-2.4 3-2.5 2.7 2.4 9.2 1.5 2-.1 4.4-3.9 6.2-2.5 1.2-3.4 2.2-2.9 3.2 1.9 4.9 5.6 21.7 6.1 28.1l.6 7.5 5.6 3.3c3.1 1.8 15.1 10.2 26.6 18.8l21 15.5 8.7-.7c8.5-.6 19.6 1 25.3 3.9 3.4 1.6 6.5 5 6.5 6.9 0 2.6-2.5 3.3-7.1 1.8-4.5-1.5-5.4-1.1-4.5 2.5.5 2.1 2.9 3.7 13.3 8.8l12.7 6.2 11 .2c14.3.2 13.6.1 13.6 1.7 0 2.3-9.8 7-19.7 9.5-7.6 1.9-10.5 2.1-17.4 1.5-8.8-.7-12.3-2.2-28.5-11.7-4.4-2.6-11.4-6-15.5-7.6-7.1-2.6-32.7-16.8-52.3-28.9-14.1-8.8-18.8-14.4-23.7-28.7l-1.4-4-.9 7.9c-.7 6.3-.5 10.5.9 19.9 1.6 9.9 1.6 12 .5 12.7-1.3.8.1 4.7 6.7 18.5 4.3 9.1 9.1 22.4 12.6 35l1.4 5 93.7.3 93.6.2v-51c0-49.7-.1-51.5-2.6-68l-2.5-16.9 2.5-4.4c2.3-3.8 2.6-5.5 2.6-13.5v-9l-5.2-3.8c-2.9-2.1-7.7-6.1-10.6-8.8s-5.6-4.6-6-4.2.1 1.4 1.1 2.1c1.6 1.1 6.7 14.6 6.7 17.6 0 2.3-17.3 49.5-18.6 50.9-1.2 1.2-1.6 1.3-2.3.2-.4-.7-2.8-13.2-5.1-27.8l-4.4-26.4 3.5-6.6c1.8-3.6 4.8-7.7 6.6-9.1 2-1.5 3-3 2.6-3.9-.3-.8.4-2.5 1.6-3.8l2.1-2.2-6.3-6.6-6.2-6.6zm-426.9 3.6c-5.5 6.3-5.9 7.4-3.5 9.4.9.7 1.4 2.2 1.1 3.5-.3 1.6.3 2.6 2.1 3.6 1.7.8 3.8 4.1 6.3 9.4l3.7 8.1-4.3 20.9c-8.1 38.5-8.2 38.7-10.5 34.3-1-1.8-14.5-46.9-15.7-52.4-.5-2.3 4.9-16 7.4-18.7 3.4-3.8-.2-1.5-6 3.8-3.4 3.1-7.9 6.8-9.9 8.2L0 224.5v10.7c0 8 .4 11.6 1.7 14.2 1.5 3.3 1.5 4.1 0 12.9-1.5 8-1.7 17.4-1.7 65.5V384l93.7-.2 93.7-.3 2.2-8c2.9-10.8 6.7-20.9 12.4-33.5 4.8-10.7 6.7-17.4 5.2-18.4-.4-.2-.2-5.3.6-11.3.9-7 1.1-13.8.7-19.3-.8-8.9-1.1-8.9-3.7 0-1 3.3-1.8 4.4-3 4.2-1.1-.2-2.4 1.1-3.7 3.6-3.9 7.7-10.3 12.8-41.3 32.9-23.8 15.5-27.7 17.7-39 21.8-5.1 1.8-14.2 5.4-20.3 8-11 4.6-11 4.6-20.1 4.1-6.8-.4-11-1.3-17-3.6-4.3-1.7-8.4-3.4-9-3.8-7.3-4.8-9.4-6.4-9.4-7.7 0-2.3 1.5-2.6 8.8-1.3 8.4 1.4 15.8.4 29.9-4.3 6.4-2.1 9.9-3.8 11.3-5.6 3.8-4.8 2.3-6.4-3.9-4.2-2.4.8-3.5.8-4.6-.1-2.8-2.3-1.7-5 2.8-7 6.1-2.8 22.2-2.8 27.7 0 2.2 1.1 4.4 2 4.9 2s9.4-6.9 19.8-15.3c20.4-16.6 34.5-27.4 38.1-29 1.7-.8 2.2-1.8 2.2-4.9 0-4.8 2.3-15.9 5.4-26.4l2.3-7.9-2.8-1.2c-1.5-.6-3.5-2.3-4.5-3.8-1.6-2.5-1.6-2.6.2-4 1-.8 2.2-1.5 2.6-1.5 1.8-.1 1.9-4.3.1-6.2-1.2-1.3-1.8-3.5-1.8-6.4V221l-6-.2c-8.5-.2-11.7.1-13.2 1.4-1.1.9-.9 1.6 1.2 3.8 1.5 1.6 3.6 5.9 4.9 10.1l2.3 7.4-7.6 26c-8.7 29.6-8.7 29.5-10 29.5s-2.4-4.1-6.1-24.5c-6.3-33.9-6.1-31.4-2.8-39.7 1.6-4 4-8.3 5.5-9.4 3.4-2.9 2.4-4.1-4-4.9-4.4-.6-25.6 1-26.5 2-.2.2.4 1.2 1.4 2.3 2.4 2.8 6.4 12.9 6.4 16.1 0 4.1-12.1 54.5-13.5 55.9-1.7 1.9-2.6-.7-8.5-25.3-8.1-33.4-7.7-30-4.1-38.6 1.7-4.1 4-8.1 5-9 1.1-.9 1.8-2.7 1.8-4.4-.2-2.3-1.5-3.6-7.2-7.5-8-5.4-13-8.1-20.4-10.9-5.9-2.2-6.5-1.3-2.7 4.3 1.2 1.9 3.3 5.9 4.5 9l2.3 5.5-5.6 26.3c-3.1 14.5-6.1 27.4-6.7 28.7-.9 2.1-1.2 2.2-2.3 1-1-1.1-12.3-40.4-15.1-52.9-.7-2.9 3.7-15.4 6.4-18.5 2.4-2.6 3.6-8.5 1.7-8.5-.7 0-5.9-2.3-11.5-5-5.6-2.8-10.6-5-11.1-5s-3.1 2.6-5.9 5.7"/></svg>