<svg xmlns="http://www.w3.org/2000/svg" width="682.667" height="512" version="1.0" viewBox="0 0 512 384"><path d="M0 103.1C0 167.9.4 206 1 205.8c2-.7 19.1-16.2 24-21.9 2.8-3.2 6.7-7.1 8.5-8.5l3.3-2.5L41 175c2.3 1.2 11.3 5.1 19.9 8.6 8.6 3.6 20.8 9.3 27.1 12.7 21.7 11.5 28.5 14.7 35.2 16.2 11.1 2.5 22.7 1.7 37.6-2.7l7.4-2.1 9.6 2.3 9.6 2.3 2.3-2.9c1.3-1.6 5.9-8 10.4-14.1 8.8-12.3 11.8-14.9 25.1-21.3 10.3-4.9 13.2-7.3 12.2-10.3-1.5-4.5-1-7.2 1.4-7.5 3.1-.5 2.8-1.6-1-4.1l-3.3-2-1.9 4.2-2 4.2-.6-6.3c-.8-7.4-1.5-8.5-2.5-4-.6 2.9-.8 3-1.4 1.3-.6-1.5-1-.4-1.5 3.9-1.1 8.6-2.5 11.4-2.5 5.3-.1-2.9-.5-4.6-1.1-4.2-.5.3-1 1.5-1 2.5s-.3 2.1-.7 2.3c-.5.3-.7-2.7-.7-6.6.2-6.3.1-6.6-.6-2.7-.4 2.5-.8 3.9-.8 3.2-.3-2.4-2.1-.2-2.8 3.3-.9 5-2.4 3.3-2.4-2.8 0-5.1-2.8-16.5-2.9-12-.1 3.9-1.8 2.6-4.1-3.3l-2.3-5.6-2.4 3.8c-2.5 4.3-2.6 4.2-2.3-3.5.2-5.9.8-5.6-6.7-3.3-3.8 1.2-4.2.3-1.2-2.4 4.4-3.9 10-12.8 6.9-10.9-.5.3-1-.3-1-1.4 0-3-1.8-3.5-3.8-1-2.4 2.9-4.4 2.1-12.7-4.6-3.7-3-7.4-5.9-8.3-6.4-1.5-.9-1.4-1.2.9-3.8 1.5-1.5 2.4-3.4 2.2-4.1-.8-2.1 1.8-4.2 5.2-4.2 2.6 0 4.1-1 7.7-4.8 6.6-7 7.1-8.2 5.3-13.2-1.9-5.4-1.9-10.7.1-21.1 3.1-16.5 10.3-27.3 22.1-33.1l6.5-3.2 27.3-.9c23.9-.8 28-.7 33.6.7 9 2.3 14.1 5 20.4 10.8C308 31.2 315 43 315 47.3c0 2 .1 2 2.4-.2 2.4-2.2 8.1-3.1 10.5-1.7.6.4 2.4 0 4-.8 4.4-2.3 10.4-3 14.5-1.6 7.1 2.3 8.9 11.5 7.5 37.5-.3 5.3.1 7.8 1.4 10.4 2.4 4.7 2.2 5.7-1.3 7-1.6.5-3 1.5-3 2.2 0 .6 1.1 4.8 2.4 9.3 2.4 7.9 7.6 31.4 7.6 33.9-.1.6-.7.1-1.4-1.2-1.2-2.2-1.4-1.8-1.8 5-.5 7.2-4.8 21.6-8.5 28.6-1.7 3.3-1.7 3.3-3 1-1.1-2.1-1.2-1.9-1.3 1.8-.1 3.8-.1 3.9-1.6 2-1.4-1.9-1.5-1.7-.9 2 .5 3 .4 3.6-.4 2.5-.6-.8-1.1-2.8-1.1-4.3 0-2.6-.1-2.7-1.6-1.3-.8.9-1.9 1.6-2.3 1.6-1.1 0-2.4-7.5-2.2-11.8.3-4.6-.7-4-2 1.3-.6 2.5-1.5 4.5-1.9 4.5s-1-3-1.3-6.8c-.3-3.7-1.9-11-3.5-16.2s-3.3-12.9-3.6-17.2c-.7-6.7-1-7.7-2.9-8.2-3.1-.8-8.7-.7-8.7.1.1.5.7 3.7 1.5 7.3.7 3.6 1.1 6.7.8 7s-1.9-1.2-3.7-3.3l-3.2-3.9-1.4 4.2c-1.5 4.7-3 6.1-3 3 0-3.3-1.6-1.5-3 3.5-1.2 4.3-2.8 6-3.1 3.2-.1-.6-.5.4-.8 2.3l-.7 3.5-1.5-3.5-1.6-3.5-1.8 7.5c-2.5 10.4-3.7 12-3.1 4 .7-7.6.2-7-1.8 2l-1.4 6.5-.1-9.5-.2-9.5-1.8 4c-1.1 2.2-2 3.4-2 2.7-.2-2-1.8-1.4-2.6 1-.8 2.3-.8 2.3-1.2-.2-.7-3.8-1.8-4.4-4.7-2.5s-3.7 5.1-1 4.1 4.4 1.1 3.3 4c-2.3 6.2-1.7 6.9 10.7 13 13.4 6.6 15.4 8.4 28.4 25.1 5.2 6.8 10.2 12.3 11 12.3s4.8-.9 8.8-2c9-2.5 10.5-2.5 19.5.1 9.3 2.7 27.4 3.7 34.8 1.9 7.8-1.9 15.6-5.4 30.4-13.8 7.2-4 18.6-9.8 25.5-12.9 6.9-3 16.7-7.5 21.9-9.8 11.4-5.3 10.8-5.5 23.6 7.5 5 5 12.5 12.1 16.8 15.6l7.7 6.5V0H0z"/><path d="M317.7 101.4c-3.6 9.6-4.3 13.7-3.1 18.4.8 2.7 6.2 5.8 7.6 4.4 1.2-1.2 1.2-25.6.1-29.6-.8-2.8-1.1-2.3-4.6 6.8M246.5 147c.3.5 3.9.9 7.8.9 5.4-.1 6.5-.3 4.2-.9-4.6-1.2-12.7-1.2-12 0M460 190.2c-10.7 5.5-11.5 6.1-11.2 8.6.2 1.5 1.2 3.6 2.2 4.7s2.8 5.4 4 9.6l2.2 7.6-8.8 24.9c-4.8 13.7-9.3 25.8-10 26.8-1.3 1.8-1.3 1.8-2.3-.5-.6-1.3-2.9-14.1-5.2-28.4l-4.1-26 3.2-6.5c1.8-3.6 4.5-7.7 5.9-9.3 2-2.2 2.2-2.7.8-2.7-3.5 0-14.3 5.2-23.2 11.2-10.2 6.8-11.1 8.7-7 13.9 1.1 1.4 3.1 6 4.4 10.1l2.3 7.4-6.6 21.5c-8.6 27.6-8.8 28.2-9.9 29.6-2.4 3.3-2.9 1.8-9.5-33.4l-3.9-20.3 3.8-8c2.1-4.4 4.4-8.1 5.1-8.1 5-.5-9-1.8-19-1.8-13.6-.1-15.6.8-10.9 5.1 1.4 1.3 3.8 5.4 5.3 9.2l2.6 6.9-1.7 7.6c-2.3 10.3-3.9 17.4-7.1 31.6-1.4 6.6-3.1 12.8-3.6 13.9-1.8 3.3-3.3-.1-7.8-16.9-2.3-8.8-5.3-19.8-6.6-24.5-1.3-4.6-2.4-9.4-2.4-10.7 0-3.7 4.9-15.7 7.1-17.5 4.9-4.2-.4-5.8-13.8-4.2-5.1.7-5.1.7-4.6 3.8.4 2.5-.1 3.6-2.6 6l-3.1 2.9 3.6 4.4c3.6 4.3 3.6 4.4 1.8 6.5-1.1 1.1-3 2.4-4.3 2.9-1.8.7-2.2 1.4-1.7 3.2 3.4 12 5.7 22.5 6.2 28.7l.7 7.5 7.6 4.3c4.2 2.3 13 7.7 19.6 12 18.1 11.8 25.9 16.2 28.5 16.2 1.3 0 4.9-.5 8-1.2 5-1 7.1-.9 16.1 1.1 13.8 2.9 19.3 6.8 15.5 11-2.3 2.5-3.2 2.6-7 .6-3.4-1.8-5.1-.8-4.1 2.5.5 1.6 3.4 3.5 9.9 6.4 15.5 7.3 18.5 8 30.3 7.2 8.8-.5 10.5-.4 11 .9 1.3 3.6-6.4 8.1-20.9 12-8.6 2.3-10.8 2.5-18.5 1.9-8.1-.6-9.6-1.1-19.3-6.2-17.9-9.4-19.3-10.1-25-11.7-5.7-1.7-36.1-16.6-53.1-26.1-13.8-7.7-18-12.6-22.4-26.2-1-2.8-2.1-5-2.5-4.7-1.9 1.2-2 16.1-.2 26.6 1.9 10.7 1.9 13.4 0 12.3-1.8-1.1-.1 3.7 5.1 14.8 7.9 16.7 11 25 14.2 37.5l1.3 5.3H512v-43.3c0-39.8-.2-45.1-2.6-67.3l-2.6-24.2 2.6-3.8c2.4-3.5 2.6-4.8 2.6-13.4v-9.5l-4.3-2.7c-2.3-1.5-6.9-5.2-10.2-8.2-5.6-5.1-8.7-6.8-5.3-2.9.8 1 2.5 5.4 3.7 9.9l2.3 8-8.6 22c-4.8 12-9.6 23.9-10.7 26.4l-2.1 4.5-1.3-2.5c-.6-1.4-2.2-10.2-3.5-19.5-1.2-9.4-2.8-21-3.5-25.9l-1.2-8.8 4.4-7.8c2.6-4.6 5.3-8.2 6.8-8.8 1.6-.7 2.5-2 2.5-3.3s.7-3 1.5-3.9c1.3-1.4.9-2.2-3.6-7.7-2.7-3.4-5.5-6.3-6.2-6.5-.7-.3-6.4 2.2-12.7 5.4m-425.7 1.9c-7.3 7.8-7.6 8.4-5.4 10.3 1.1 1 1.7 2.5 1.4 3.5-.3 1.3.6 2.6 2.7 4.1 2.2 1.5 4.4 4.9 6.6 9.7 3.8 8.2 3.8 7.8 0 28.3-.8 4.1-2.4 13.1-3.6 20-2.3 13.5-3.5 17.4-5 16.5-1-.6-18-52-18.2-55.1-.2-2.9 4.3-14.6 6.5-17.2 3.6-3.9.7-2.4-5.6 3.1-3.4 3-7.9 6.6-10 8.1L0 226.2v9.7c0 6.5.5 11.1 1.7 14.3 1.6 4.5 1.6 5.5 0 17C.3 277.5 0 288.1 0 331.7V384h187.6l1.8-7.3c2.2-8.3 9.4-27.3 14.1-36.7 3.4-6.9 5.1-14 3.4-14-.6 0-.8-1.2-.5-2.7 2.5-11.9 2.8-39.3.5-39.3-.5 0-.9.6-.9 1.4 0 3.2-4.2 14.6-5.4 14.6-.7 0-1.8 1.1-2.4 2.4-3.3 7.4-9.1 11.7-40.2 29.8-26.2 15.3-29.3 16.9-41.7 21.1-5.4 1.9-14.7 5.3-20.8 7.7-10.7 4.1-11.1 4.2-19.5 3.5-6-.5-10.4-1.5-15.2-3.6-3.6-1.6-7-2.9-7.5-2.9s-3.6-1.8-6.9-3.9c-9.5-6.3-10.8-11.1-2.4-9.3 7.5 1.5 21.2.6 31.5-2.3 11.3-3.1 15-4.7 15.9-7 1.2-3.3.7-3.7-4.6-3-4.6.6-5.5.4-6.5-1.4-1.9-3-.7-4.7 5-7.2 4.9-2.1 5.8-2.1 14.9-1.1 5.3.5 11.2 1.7 12.9 2.6 5.5 2.8 7.8 2 18.9-5.9 5.8-4.2 11.6-8.3 13-9.3 1.4-.9 6.4-4.4 11.1-7.8s11.7-8 15.6-10.3l7-4.2.6-7.2c.5-6 3-17.3 6.3-28.4.5-1.7 0-2.5-2.5-3.7-1.7-.9-3.5-2.6-4.2-3.7-.9-1.8-.7-2.5 2-5 3.7-3.3 3.8-4.1 1-7.9-1.5-1.9-2-3.8-1.7-5.8.5-3.7-.6-4.2-10.9-4.2-5.7 0-7.4.3-8.1 1.7-.8 1.3-.4 2.1 1.2 3.4 1.4 1.1 3.4 5.1 5 9.8l2.7 8-1.9 6.8c-1.1 3.7-4.4 15.8-7.2 26.8-5.7 21.7-6.6 24.3-8.2 22.7-1.1-1.1-9-37.5-11-50.7-1.1-6.8-1-7.4 1.7-14.4 1.6-4 4-8.1 5.3-9.2 2.1-1.6 2.3-2.1 1.1-3.5s-3.2-1.6-14.9-1.1c-7.4.2-14.3.8-15.3 1.2-1.6.7-1.6.9-.3 2.4.8.9 2.9 4.7 4.6 8.6 2.9 6.5 3.1 7.3 2.1 12.5-1.8 9.7-10 49.2-10.6 51.1-.9 2.7-2.1 2.4-3.3-.9-1.2-3-7.9-26.8-12.2-43.5l-2.8-10.8 2.6-7.2c1.4-4 3.6-8.3 4.8-9.7 3.9-4.3 2.4-7.1-7.3-13.5-12-8.1-23.3-12.9-23.3-10 0 .8.5 1.7 1 2 .6.4 2.7 3.9 4.7 7.8l3.6 7.2-1.1 8.5c-1.6 12.1-8 46.1-9.3 48.9-1 2.3-1 2.3-2.3.5-.7-1-2.6-6-4.1-10.9-1.4-5-5.1-16.7-8-26.2l-5.4-17.2 2.8-8c1.5-4.4 3.5-8.9 4.4-9.9s1.7-2.9 1.7-4.3c0-2.1-1.6-3.2-11.6-8.1l-11.5-5.7z"/></svg>