<svg xmlns="http://www.w3.org/2000/svg" width="682.667" height="512" version="1.0" viewBox="0 0 512 384"><path d="M292.2 16.1c-12.5 1.6-28.2 8.5-30.4 13.4-1 2.2-1.5 2.3-5.8 1.8-7.3-.8-13.9.5-16.7 3.4l-2.5 2.4-2.7-2.5c-3.9-3.7-10.5-4.9-23.4-4.4-13.9.6-24 3.1-26.7 6.6-2.1 2.6-2.6 7.1-1.1 10 .5.9 1.9 3.9 3.1 6.7 3 7 11.9 24.7 13.3 26.6.7.9 2.1 1.8 3.2 2.1 1.3.2 2 1.2 2.1 2.8.2 6.7 3.8 17.5 5.5 16.4.4-.2.8.4.8 1.3-.1 1 .2 4 .6 6.7.6 3.8.4 5.2-.7 6-1.5 1.1-2.8 10.8-3.3 25.4-.2 5-.8 7.8-1.9 9.1-.9 1-1.6 2.1-1.6 2.6 0 .4-1.8 3.2-4 6.1-9.2 12.2-23.2 40.5-22.1 44.8.1.4-.3 1.4-.8 2-.6.7-2 5.9-3.2 11.7-1.7 8.5-2.2 14.7-2.4 34.1-.2 15.9 0 23.8.7 23.8q1.05 0 0 1.2c-1.3 1.7.4 11.5 2.4 13.5 1.9 1.9 1.8 2.8-1.1 7.6-2.5 4.4-3 8-2.7 18 .2 4.8.7 6.2 2.7 8.1 2.5 2.3 2.5 2.4 1 6.7-3.1 8.8-5.7 22.3-5.3 28.2.4 4.8.9 6.3 3.6 9 2.5 2.6 2.9 3.6 2 5-.5 1-.8 2.1-.5 2.4.3.2 1-.5 1.7-1.6 1.4-2.7 3-2.7 2.5 0-.2 1.2.3 2.8 1.2 3.7 1.5 1.5 1.6 1.3 1.1-3.3-.5-4.2-.3-5.1 1.6-6.6 2.3-1.8 11-15.6 19.9-31.4 12.3-22 17.8-42.3 22.8-83.9.7-6.1 1-16.5.7-26.5-.6-18.3-.1-18.6 4.2-2.5 2.1 8.2 2.4 16.4 1.1 36.2-.3 5.7-.3 11.3.2 12.4.4 1.3.2 2.9-.6 4.2-2.7 4.2-6.6 15.5-9.7 28-3.5 14.3-6.7 23.6-11.5 34.1-9.7 20.8-11.5 24.7-11.5 25 0 .2-2.2 5-5 10.7l-5 10.3 79.7.3c43.8.1 79.8.1 79.9-.1.3-.3-6.7-27-9.3-35.9-.3-1 .2-3.3 1-5 .9-1.8 2.4-6.2 3.3-9.7 1.4-5 2.4-6.8 4.6-8 3.4-1.9 4.3-5.7 3.4-14.4-.6-4.9-.3-7.4 1.4-12.2 1.1-3.3 2.3-8.5 2.7-11.5.5-5.3.2-6.2-6.6-20.9-7.9-16.8-11.3-25-17.2-41.6-7.9-21.9-7.5-19.5-4.7-27.5 2.9-8 2.4-8.7-4.7-7-2.2.5-4.3 1-4.6 1-.8 0-3.4-10.4-4.8-18.6-.5-3.3-1.5-8-2.1-10.3-1.2-4.5-7.5-12.2-11.9-14.6-5.4-3-5.3-2.4-3-13.6 1.2-5.7 2.4-16.7 2.8-24.3l.6-13.9 4.4-.4c10.7-1 11.5-6.1 2.7-16.1-1.7-2-4.9-5.8-6.9-8.3l-3.7-4.6 5.2 1.3c7.7 2 11.5 1.8 12.3-.6.3-1.1.4-2.4 0-2.9-.3-.5-.1-1.2.4-1.5.5-.4.8-6.5.6-14.4-.2-7.5-.4-15.4-.4-17.4-.1-2-.5-3.9-1-4.3-.6-.3-.8-1.2-.4-2.1.3-.9-.9-3-3.3-5.4-4.2-4.3-4.8-4.4-16.2-2.9m-57.9 120c-.5 1.8-1.5 3.5-2.2 3.7-1.1.4-1.2-.2-.7-2.4.8-3 2.6-5.8 3.3-5 .2.2 0 1.9-.4 3.7m57.4 7.1c-.3.8-.6.5-.6-.6-.1-1.1.2-1.7.5-1.3.3.3.4 1.2.1 1.9m-89.5 45.3c-.4 2.6-1.9 4.1-2.9 3.2-.3-.3-.1-1.2.3-1.9.5-.7.9-1.6 1-2.1.3-1.5.4-1.7 1.3-1.7.4 0 .6 1.1.3 2.5m-6.4 18.1c1.8 3.9-1 25.1-4.5 33.2-3.1 7.3-4.2 6.6-3.8-2.2.6-10.6 5.1-33.6 6.6-33.6.3 0 1.1 1.2 1.7 2.6"/></svg>