<svg xmlns="http://www.w3.org/2000/svg" width="682.667" height="512" version="1.0" viewBox="0 0 512 384"><path d="M0 96c0 52.8.4 96 .8 96 1.2 0 18.7-12.7 28.1-20.3 4.4-3.6 8.9-7.1 10-7.6 1.6-.9 5.7.8 23.8 10 12 6.1 24.3 12.7 27.3 14.7 3 1.9 7.8 5 10.6 6.8 7.9 5 16.8 9.3 23.1 11 8.6 2.3 23.1 2 35.7-.6l10.5-2.2 4.8 2.2c6.3 3 13.3 5.1 14.5 4.4.5-.4 4-4.7 7.8-9.8 9.2-12.4 13.5-16 26.4-22.2 15.2-7.2 15.1-7.1 13.5-12.2-1-3.3-.9-4.4.1-5.7.7-.8 1.1-1.7.9-1.8s-1.2-.8-2.1-1.5c-1.4-1.2-1.9-.9-3.1 1.5l-1.5 2.8-.7-4.8c-.8-5.4-2-6.7-2.9-3.4-.7 2.1-.7 2.1-1.6.2-.8-1.8-.9-1.7-.9.7-.2 4.7-2.3 17.9-2.9 17.4-.3-.3-.5-3.2-.4-6.3l.1-5.8-2 4-1.9 4 .5-5.1c.4-3.7.1-5.5-.8-6.3-1.2-.9-1.8 0-3.3 5.1-1.5 5.3-1.9 5.8-2.1 3.3-1-10.7-2.8-20.7-3.3-18.6s-.9 1.5-3.3-4l-2.8-6.4-2.2 3.5-2.2 3.5-.3-5.7-.3-5.8-3.6 1.5c-6.2 2.6-7 1.8-2.9-2.4 3-3 3.9-4.9 4.3-8.4.6-5.5-1-6.9-3.2-2.7-.8 1.6-1.9 3-2.3 3-1 0-13.9-8.2-17.2-10.9l-2.5-2.1 2.8-2.1c1.5-1.1 2.7-2.7 2.7-3.5s1.2-1.9 2.8-2.5c3.6-1.4 7.8-5.4 11.3-10.8 3.3-5.2 3.5-7.3 1.3-12.7-1.3-3-1.5-5.7-1-11.9 1.5-20.7 8.8-34 22.3-40.8 7.2-3.7 14.7-4.8 29-4.6 7 .2 18-.1 24.3-.5 9.5-.7 12.6-.5 17.9.9 7.6 1.9 14.5 5.3 19.1 9.2 4.1 3.4 10.6 13.3 12.2 18.5.6 2.1 1.2 3.8 1.4 3.8.1 0 1.8-1.6 3.8-3.6 3.3-3.3 3.9-3.5 7.7-2.9 4.2.7 9.8 3.4 13.4 6.6 1.1.9 3.5 2.4 5.3 3.4 2.4 1.2 4.1 3.2 5.9 7.2 2.9 6.4 5.3 14.6 5.3 18.6 0 1.5.9 5.5 2.1 8.9 2 6 2 6.3.2 7.6-1 .7-3.7 1.8-6.1 2.5-2.3.6-4 1.6-3.8 2.2 5.1 11.3 7.9 21.1 13.2 46.9.4 1.9.3 2.6-.5 2.2q-1.05-.75-1.2 3.6c0 5.5-7.3 27.4-8.9 27-.7-.2-1 .3-.7 1.2.4 1 0 1.4-1.4 1.1-1.5-.3-1.9.2-1.9 2.6 0 1.7-.4 2.8-.9 2.5s-1.2.6-1.6 2.2l-.8 2.7-.9-3.4c-.5-1.8-1.2-3-1.5-2.7s-1.2.1-2-.5c-1-.9-1.3-.8-1.3.5 0 1-.4 1.5-.9 1.2s-1.2-3.6-1.6-7.3c-.6-4.6-1-6.1-1.5-4.8-.4 1.1-1 3-1.5 4.2-1.1 3.4-2.1 2.8-2.3-1.5-.3-5.5-2.1-12.6-5.5-21.7-2.3-6.1-3.1-10.4-3.6-18l-.6-10-3.4-.3c-2.6-.3-3.2 0-2.8 1.1.8 2.1-.4 2.9-2.1 1.4-1.3-1-1.4-.6-.8 3.7.4 2.7 1 5.5 1.3 6.2 1.1 2.9-1.6 1.2-4.3-2.7l-2.8-4.1-1.4 4.1c-1.4 4.2-3.2 5.5-3.2 2.3 0-1.4-.2-1.5-1-.2-.6.8-1.5 3.2-2 5.2-1.1 3.9-2.9 5.1-3.1 2-.1-.9-.7 1.2-1.4 4.8-1.2 6.5-1.2 6.5-2.1 3.1l-1-3.4-1.8 6.4c-3 10.5-3.7 11.2-3.2 2.9.6-8.6-.8-5.9-1.9 4-.4 3.4-.9 5.9-1.2 5.6-.3-.2-.5-5.6-.5-11.8l.1-11.3-1.6 4.5c-1.3 3.6-1.7 4.1-2.3 2.5-.6-1.8-.8-1.7-2.3 1-1.1 2-1.6 2.4-1.7 1.2 0-2-.4-2.1-3.1-.6-1.9 1-1.9 1.2-.6 2.7 1.3 1.4 1.4 2.4.4 6-1.1 4.1-1 4.5 1.3 6.2 1.4 1 5.4 3 9 4.4 9.3 3.7 17.1 8.9 21.1 13.9 8.1 10.4 16.3 18.7 18.4 18.7 1.1 0 5.8-1.8 10.3-4l8.2-3.9 7.7 1.9c5.7 1.5 11 2 20.8 2 18.8 0 24-1.9 48.1-17.7 6.2-4 17.5-10.5 25.1-14.4s16.6-8.7 20-10.5c3.4-1.9 6.8-3.4 7.6-3.4s6.4 3.9 12.4 8.6c9.4 7.6 27.6 20.4 28.9 20.4.2 0 .4-42.5.4-94.5V0H0z"/><path d="M320.5 100.5c-.5 1.1-2.1 5.5-3.7 9.7-3.8 10.1-3.5 13.6 1.4 16.3 2 1.1 4 1.6 4.5 1.1 1.1-1.1.7-23.6-.5-26.6-.9-2.4-1-2.4-1.7-.5m5.7 43.5c0 1.4.2 1.9.5 1.2.2-.6.2-1.8 0-2.5-.3-.6-.5-.1-.5 1.3m-81 10c4.2 2.3 15.2 3 17.1 1.1.7-.7 0-.9-2.5-.5-2.9.5-10.9-.6-16.8-2.3-.8-.2.2.5 2.2 1.7m106.9 23c0 3.3.1 3.4 1 1.1.6-1.6.6-2.8-.1-3.5q-1.05-1.05-.9 2.4m111.9 3.3c-3 1.8-7.8 4.4-10.7 5.8-5.6 2.6-6.3 4.1-3.4 7.3 2 2.2 7.1 15.5 7.1 18.5 0 1.8-14.1 49.1-16.2 54.3-.6 1.6-1.4 2.8-1.9 2.8-1.6 0-1.1 2.2-9.3-41.1-1.4-7.5-2.6-14.7-2.6-16.1s1.6-5.9 3.5-10.1 3.5-7.8 3.5-8.1c0-1.9-18.5 9-25.7 15.2-3.2 2.8-4 6.8-1.5 8.1 2 1.1 7.2 14.5 7.2 18.5 0 1.1-2.4 9.8-5.4 19.5s-6.6 21.5-8.1 26.3c-1.4 4.7-3.2 9.1-3.9 9.7-1.9 1.6-2.7-1.3-6.1-20.4-1.4-8.3-3.5-19.5-4.6-25.1-2.1-11-1.9-12.6 3-22.2 1.2-2.3 2.1-4.6 2.1-5.3 0-.8-4.1-1-14.5-.7-15.4.3-18.5 1.3-14.4 4.2 2 1.4 6.1 10.3 7.6 16.4.5 2.2-12 54.4-13.7 57.3-1.6 2.5-2.8-.3-6.1-14.1-10.5-45.2-10-41-6.5-50.1 1.3-3.5 3.3-7.3 4.4-8.6 2.4-2.6 1.9-3.3-2.3-3.3-6.5 0-14.5 2.2-15.7 4.3-.8 1.6-.8 2.2.1 2.5 2.5.8 1 4.1-2.9 6.3-2.2 1.3-4 2.7-4 3.1 0 .5 2.3 3.2 5.1 5.9 2.9 2.8 4.8 5.4 4.3 5.8-.5.5-2.6 1.4-4.7 2.1-2.9.9-3.7 1.6-3.2 2.9 2.3 5.6 7.8 28 8.8 35.5 1.1 8.2 1.5 9 3.7 9.7 1.4.4 10.8 3.4 21 6.7 25.9 8.4 28.4 8.9 32.3 7.3 1.8-.8 9.3-3.5 16.7-6 7.4-2.6 14.5-5.2 15.7-5.9 2.8-1.5 9.4-1.5 12.8 0 5.1 2.3 1.7 7.8-5.1 7.8-3 .1-4.3.6-5.7 2.6-3.6 4.9 1.2 7.5 18.3 9.9l12.5 1.8 9.8-2.8c8.7-2.4 10-2.6 11.4-1.3 1.3 1.3 1.3 1.9 0 4.9-.8 1.9-3 5.1-4.8 7.1-1.9 2.1-4.4 5-5.5 6.5-1.2 1.6-4.2 3.9-6.8 5.1-2.5 1.3-4.8 2.7-5.1 3.3-.4.5-2.3 1.8-4.4 2.8-8.3 4.3-40.1.1-88.1-11.6-33-8.1-37.4-9.6-42.5-14.7-3.2-3.3-5.2-6.7-8.3-14.7-2.2-5.7-4.4-11.8-4.8-13.4l-.7-3-.7 2.6c-1.9 6.7-2 15.9-.6 25.8 1.9 12.2 2 15.5.6 14.6-2.1-1.3-.8 2.4 5.4 16 6.3 14 12.6 30.8 12.6 33.9 0 1.5 7.8 1.6 94.6 1.6h94.5l-.5-69.8c-.3-38.3-.6-71.3-.6-73.2-.1-1.9.2-9.4.6-16.5l.6-13.1-8.2-5.2c-4.6-2.9-8.4-5.1-8.5-5-.2.2.7 3.4 1.8 7.1l2 6.9-8.2 25.1c-8.7 26.2-10.8 31.7-12.2 31.7-1.2 0-2.5-5.7-5.4-24.5-1.5-9.4-3.3-20-4-23.6-.7-3.9-1-8.3-.5-10.5 1-5.6 6.6-16.1 9.5-18 1.9-1.2 2.5-2.5 2.5-5.2 0-3-.8-4.4-5.1-8.4-2.8-2.6-5.4-4.8-5.8-4.8-.3 0-3.1 1.5-6.1 3.3m-429 5.2c-5.3 5.4-6 9.8-2.3 12.8 3.4 2.7 9.3 15.2 9.3 19.6 0 4.5-9.5 54.4-10.8 56.7-.9 1.5-1.2 1.4-2.5-1.2-2.9-5.8-16.9-54.7-16.3-57.3.3-1.4 1.2-4.8 2-7.4 1.1-3.4 1.2-4.6.3-4.1-3.9 2.3-13.3 8.9-13.9 9.7-.3.6-.7 39-.7 85.4L-.1 384l94.2-.2 94.2-.3 2.7-8.5c3.3-10.2 5.8-16.6 10.9-27.4 3.7-7.7 5.8-15.6 4.3-15.6-.4 0-.2-5.4.5-12 .7-7.7.9-16.4.4-23.8l-.7-11.7-1.8 6c-3 10.5-4.2 13-5.8 12.9-1-.1-2.6 2.1-4.3 5.8-3.3 7.2-7.8 11.9-14.5 15.3-2.7 1.4-16.5 6.3-30.6 11-23.5 7.8-27.1 8.7-41.3 10.5-25.9 3.3-47.1 2.3-52.1-2.5-1.4-1.4-2.9-2.5-3.3-2.5-1.1 0-11.7-7.2-11.7-7.9 0-.4-2-3.8-4.5-7.5-4.8-7.4-5.4-9.6-3-11.6 1.2-1 2.3-1.1 4.8-.2 19.1 6.7 16.8 6.3 30.5 5.2 14.6-1.2 17.2-2.1 17.2-6.1 0-3.2-3.2-5.9-7-5.9-4.8 0-6.9-4.9-3.1-7 3.4-1.8 8.1-1.1 14.9 2.1 3.7 1.7 9.7 4.4 13.4 5.9 3.6 1.6 8.4 4 10.5 5.4 2 1.4 4.8 2.6 6 2.6s7.7-2.3 14.5-5.1C161 300.3 171.9 296 173 296c.5 0 1-1.6 1-3.5 0-5.1 2.6-16.9 6.1-28.3 1.7-5.3 3.3-10.4 3.6-11.2.3-1.1-.7-2-3.2-2.9-2-.7-3.9-1.9-4.1-2.6-.3-.8 1.5-3.4 4.3-6l4.8-4.6-3.9-3.3c-3.9-3.3-4.3-4.8-2.2-9.7.6-1.4-.3-1.9-5.7-2.8-11.7-2-15.2-1.2-10.8 2.7 1 1 3 5.2 4.5 9.4l2.8 7.7-3.2 13.3c-9.3 38.5-10.9 45.1-11.5 45.6-1.2 1.2-2.5-2.4-5.4-15.3-1.7-7.2-4.6-19.8-6.6-28.2l-3.5-15.2 3-8.3c1.7-4.6 4-9.1 5.2-10.1 1.7-1.4 1.9-2 .9-2.7-2.2-1.3-17.4-2.2-22.7-1.4-2.7.4-5.2.7-5.6.6-1.4-.3-.9 1.4 2.2 8.3 1.7 3.7 3 7.9 3 9.3 0 2.8-8.4 47.9-10.1 54.5-.6 2.1-1.5 3.7-2.1 3.5-1.4-.5-3-5.3-11.2-34.6l-6.5-23.3 2.9-8.1c1.7-4.5 3.9-9.2 5.1-10.4 1.7-1.8 1.9-2.6 1-4.2-2.1-4-26.3-19.3-27.9-17.7-.2.2 1.3 4.1 3.4 8.7l3.7 8.3-2.1 11c-1.2 6-3.8 18.7-5.6 28.2-1.9 9.5-3.9 18-4.4 19-.9 1.5-1.2 1.3-2.6-1.7-2.2-4.9-15.6-52.4-15.6-55.5 0-3.5 4.7-15.6 7.1-18.1 2.6-2.8 1.7-4.8-3.4-7-2.3-1-6.5-3.3-9.4-5.1s-6-3.3-7-3.3c-1.1 0-3.9 2-6.3 4.5m306.2-2.5c0 1.4.2 1.9.5 1.2.2-.6.2-1.8 0-2.5-.3-.6-.5-.1-.5 1.3"/></svg>