<svg xmlns="http://www.w3.org/2000/svg" width="682.667" height="512" version="1.0" viewBox="0 0 512 384"><path d="M0 87.5v87.6l9.3-4.7c5-2.6 14.4-8.2 20.7-12.5 6.3-4.2 12.5-8 13.8-8.4 1.7-.5 3.8.3 8.5 3.3 3.4 2.2 10.9 6.6 16.7 9.8s17 10.1 25 15.4c19.7 13.2 24.3 15.6 33.5 18 9.5 2.4 23.1 2.6 32.5.5s11.6-1.9 16.5 1.5c6.6 4.5 14.6 8.3 15.5 7.4.5-.5 3.5-4.4 6.8-8.7 7.6-9.9 12.3-13.5 25.4-19.2 5.9-2.6 11.2-5.3 11.9-6.1.8-1 .9-2.5.1-5.6-1.2-4.5-.9-5.8 1.4-5.8 1.9 0 1.8-1-.3-2.6-2.7-2-4-1.7-4.7 1.1-.9 3.7-2.6 2.1-2.6-2.4 0-4.6-.9-5.7-2.6-3.3-1.2 1.6-1.3 1.6-1.4-.3-.1-4-2 .9-2.1 5.5-.1 2.5-.5 5.8-.8 7.5-.7 2.9-.8 2.9-1.6-1.5l-.8-4.5-1.3 3-1.3 3-.1-4.5c0-2.6-.5-5.1-1.2-5.8-.9-.9-1.6.2-3.2 5.1l-2 6.2-.8-10c-.9-11.6-1.4-13.7-2.8-11.5-.7 1.1-1.4.2-3.1-3.8-1.2-2.8-2.5-5.2-3-5.2s-1.5 1.3-2.4 3-1.8 3-2.1 3-.3-2.7.1-6c.8-6.6.6-6.8-4.8-4.5-6.1 2.5-6.7 1.8-2.6-2.7 3.8-4.2 6.4-10.2 5.2-12.1-.3-.5-1.6.4-2.8 1.9l-2.3 2.9-8.9-6c-4.8-3.3-9.1-6.5-9.5-7-.4-.6.6-2 2.2-3.3 1.7-1.3 3-3 3-3.8s1.5-2.1 3.4-2.9c3.6-1.5 11.2-10.9 12.2-15.2.3-1.2-.2-4.5-1.1-7.4-1.3-3.9-1.6-7-1.2-12.3 1.8-20.9 10-35.1 24.3-42.1l5.9-2.9 27-.8c29.5-.8 33-.6 42.1 2.3 12.4 4 20.4 11.5 26 24.3 1.5 3.6 3.2 6.6 3.6 6.6s1.2-.9 1.8-2c1.4-2.5 6.1-5 9.6-5 4.4 0 10.7 3.6 17.7 10.1 8.1 7.4 11.3 13.6 13.2 25.5.7 4.9 1.9 10.4 2.5 12.2 1.7 4.6.8 5.8-5.7 7.8-3.2 1-6 1.9-6.2 2-.2.2 1 3.6 2.7 7.6 3.6 8.5 6.6 19.7 8.7 32 .9 4.8 1.8 9.5 2.2 10.5s.2 1.4-.4 1-1.2 1.6-1.6 5.6c-.5 6.1-6.1 25.2-7.7 26.2-.4.3-.6-2.5-.3-6.1.3-4.6.1-6.4-.6-6-.6.4-1.1 3.6-1.1 7.2s-.4 6.3-.9 6c-1-.7-2.1 1.7-2.1 4.7 0 1.8-.2 1.9-1.1.7-.8-1.2-.9-1-.7 1 .3 2.3.8 2.6 7.3 3.2 9.4 1 24-.7 31.9-3.6 6.2-2.3 20.8-11.2 26.8-16.2 3.7-3 24.7-16.2 33.3-20.9 3.9-2.1 8.8-5 10.9-6.6 2.2-1.6 5.1-2.9 6.5-2.9s7.8 3.6 15.3 8.5c7 4.7 13 8.5 13.3 8.5s1.7.7 3.1 1.6c1.3.9 5.1 2.9 8.4 4.5l6 2.8V0H0z"/><path d="M321.6 99.5c-5.2 13.6-7.7 20.9-7.4 22.3.4 2 8 6.4 9.1 5.3 1-1 1-22.7-.1-26.6-.7-2.6-.9-2.7-1.6-1m-5 31.9c.5 2.1.3 2.5-1 2-1.9-.7-2.1 2.1-.6 7.6l.9 3.5-3.9-4.3-3.8-4.3-1.2 3.8c-1.8 5.5-2.2 5.9-3.3 3.2-.9-2.2-1.1-1.9-3 3.6-1.5 4.5-2.2 5.5-2.7 4-.6-1.7-.7-1.7-1.3-.1-.4 1-.7 3.6-.7 5.7 0 2.4-.4 3.8-1 3.4-.5-.3-1-1.5-1-2.6 0-4.4-1.9-1.4-4 6.3-1.2 4.6-2.4 8.5-2.7 8.8s-.2-2.9.1-7c.5-7.4.5-7.4-.5-2-1.8 9.3-2.4 8.9-2.9-1.9-.5-10.2-.5-10.4-1.9-6.6-.9 2.7-1.6 3.4-2.2 2.4-.6-1.1-.9-1-1.5.4-.8 2.1-2.1 2.2-2.6.2-.3-1.4-.6-1.4-2.6.1-2.1 1.4-2.2 1.8-.8 3.3 1.2 1.4 1.2 2.1 0 5.6-1.3 3.8-1.3 4.1 1.1 6 1.3 1.1 5.2 3.1 8.7 4.4 10.9 4.2 15 7.1 25.4 17.9l10.1 10.6 3.2-1.3c1.7-.8 5.6-3.1 8.6-5.2 3.1-2.1 6.8-4.5 8.4-5.3 2.8-1.5 2.8-1.6 1.7-6.5s-2.6-7.8-2.6-5c0 .8-.9 1.5-2.1 1.6q-2.1.15-1.5-1.2c.7-1.8-2.5-14-6.4-24.5-2.5-6.6-3.3-10.7-3.7-18.3-.4-6-1-9.7-1.7-9.7-.6 0-2.1-.3-3.4-.6-2.1-.6-2.2-.4-1.6 2"/><path d="M326.6 145.7c.9 3.8 1.4 4.2 1.4 1 0-1.4-.5-2.9-1-3.2-.7-.4-.8.3-.4 2.2m-86 4.4c1.6 2.6 9 4.9 15.4 4.8l6.5-.2-6.9-.8c-3.8-.5-8.8-1.8-11.3-2.9-2.4-1-4.1-1.4-3.7-.9m218.6 17.4c-3.4 2.5-7.6 5.1-9.2 6-3.5 1.8-3.7 3.1-1.2 5.9 1 1.2 3.3 5.5 5 9.6 3.8 9 4 7.7-4.1 41-6.2 25.6-7.3 28.8-8.9 27.2-1.1-1.1-11.9-44.8-13.7-55.4-.9-5.2-.7-6.2 2-12.8 1.7-4 2.8-7.4 2.6-7.7-1.8-1.7-26.7 16.2-26.7 19.2 0 .7.9 2.4 2 3.8 1.2 1.4 3.4 5.9 5.1 9.8 3.3 8.1 3.2 10.2-1.2 25.9-1.1 4.1-3.8 14-5.9 22-4.3 16.6-5.5 20-7 20-1.4 0-1.6-.4-5-17-1.6-8-4.1-19.9-5.5-26.5-3.1-14.9-3.1-17.7 0-24.3 4-8.6 3.7-9.1-4.2-8.6-8.3.6-22.6 2.4-23.2 3-.3.2.5 1.4 1.7 2.7 1.1 1.2 3 4.7 4.1 7.7 1.2 3 2.6 6.3 3.1 7.2 1.5 2.6 1.3 4.2-2.5 20.9-2 8.5-4.7 20.3-6.1 26.4-2.8 12.5-4 15.9-5.3 15-1.3-.8-2.1-3.7-9.1-32.7l-6.2-25.7 2.7-8.3c1.5-4.6 3.4-9 4.2-9.9 3.1-3.7-.8-2.9-18.5 3.6-1 .4-.9 1.1.5 3.5 1.4 2.5 1.5 3.4.5 5-1.1 1.8-1 2 .9 2 3.3 0 1.9 3.2-2.4 5.5-2 1.1-3.7 2.4-3.7 2.9 0 1.8 5.1 8.3 7.5 9.6 1.4.7 2.5 1.7 2.5 2 0 .4-2 1.5-4.5 2.4-2.5 1-4.5 2.1-4.5 2.4 0 .4 1.4 5.4 3.1 11.2 3.9 13.8 5.9 23 6 28.8 0 2.6.4 5.5.7 6.5.5 1.3 7.6 4 24.5 9.7 13 4.3 25.2 8.2 26.9 8.5 2.7.5 5.5-.5 16.3-6 7.2-3.7 15.1-8 17.6-9.6 5.4-3.4 14-4.9 16.4-2.9 3.2 2.6 1.1 6.1-4.1 6.9-3.1.5-4.2 1.3-5.6 4-2 4-1.1 6.7 2.9 8.2 1.5.5 8.3 1.2 15.2 1.6l12.6.6 6.5-3.2c3.6-1.7 7.7-3.8 9.2-4.6 3-1.7 5.8-1.1 5.8 1.4 0 4.7-3.2 13.7-5.5 15.4-1.4 1-2.7 3.3-3.1 5.2-.7 3.7-4.2 7.8-8.8 10.2-1.5.8-4.4 3.1-6.4 5l-3.5 3.5-19.6-.7c-10.8-.3-24.8-1.3-31.1-2.1-14.7-1.9-63.1-14.7-73.5-19.4-8.4-3.8-14.4-13.2-19.6-30.8-.9-3.3-1.5-3.9-2.1-2.8-1.4 2.4-1.2 19.2.2 29.4 1.1 7.6 1.1 9.5 0 10.2-1.6 1-1 2.9 5.6 16.8 2.9 6.2 6.9 16 9 21.7l3.7 10.5H512V192.5l-8.2-4.2c-4.5-2.3-8.4-4.1-8.5-3.9-.2.2.5 2.7 1.7 5.5 1.1 2.8 2 6.7 2 8.6 0 3.6-11 48-13.7 55.2-.9 2.4-1.9 4.3-2.3 4.3-1.3 0-2.7-4.8-5.9-19.5-1.7-7.7-4.2-18.9-5.6-25-1.4-6-2.5-12.7-2.5-14.7 0-5.4 4.8-16.8 8.2-19.6 2.3-1.9 2.6-2.7 1.8-4.3-.6-1.1-.9-2.3-.6-2.7.3-.5-.3-1.5-1.2-2.3-4.8-4-9-6.9-10.3-6.9-.8.1-4.2 2.1-7.7 4.5m-422.4 3.3c-3 2.3-4.6 4.3-4.4 5.3.2.9 0 2.3-.5 3-.5.9.2 2.4 2.1 4.4 3.3 3.4 8 14.4 8 18.6 0 2.8-12.1 53.4-13.9 57.9-.9 2.5-.9 2.5-2.5-1.3-2-4.6-11.5-43.6-12.9-52.9-.9-5.9-.8-7.2 1.1-11.9 1.2-2.9 2.1-5.4 1.8-5.6-.2-.2-3.8 1.5-8 3.8L0 196.2V384h187.7l3.8-10.7c2.1-6 6.1-15.8 9-21.8 4.2-9 5.1-11.8 4.8-15.5-.1-2.5.2-9.7.6-16 .5-6.3.6-17.4.3-24.5l-.7-13-1.8 6.9c-2.3 8.8-4.4 13.9-5.5 13.2-.5-.3-2.1 2.6-3.7 6.5-1.5 3.8-4.4 9.1-6.5 11.7-4.5 5.8-10.1 8.5-35 17.3-34.6 12.1-33.3 11.8-50.7 12.5-8.7.3-22.5.1-30.7-.5-14.4-1-15.1-1.1-18-3.9-1.7-1.6-4.8-3.9-6.8-5.1-4.7-2.8-8.8-7.6-8.8-10.4 0-1.1-1.2-3.3-2.6-4.8-2.2-2.3-2.7-4-3.2-9.8-.5-7.1-.5-7.1 2.1-7.1 1.4 0 3.8 1.1 5.4 2.4 1.6 1.4 5.4 3.5 8.4 4.9 4.8 2.1 6.8 2.3 18.4 2.3 10.9-.1 13.6-.4 15.9-1.9s2.7-2.3 2.1-4.5c-1-3.8-2.2-5.1-6.1-5.8-5.6-1-7-6.7-1.9-8 3.8-.9 9.8 1.3 18.6 7 4.6 3 11.7 7.6 15.7 10.2l7.2 4.7 4.8-1.8c2.6-1 12.1-4.9 21.2-8.8 9.1-3.8 18.8-7.8 21.5-8.8 2.8-.9 5.3-2.3 5.6-3.1.4-.7 1.4-5.8 2.3-11.3 1.2-7.9 6.1-25.7 9.2-33.9.3-.8-1-1.7-3.5-2.5-2.2-.6-4.3-1.6-4.6-2.1-.4-.6 1.7-3.2 4.4-5.9 2.8-2.8 5.1-5.4 5.1-5.9 0-.6-1.6-1.9-3.5-3.1-4.4-2.5-4.6-6-.9-11.5 1.4-2.1 2.2-4.2 1.8-4.6-1.4-1.3-18.4-6.3-19.1-5.6-.3.3.1 1.4.9 2.3.9 1 2.8 5.5 4.4 9.9l2.8 8.1-7.4 29.9c-4.1 16.4-8 29.9-8.7 30.2-1.5.4-2-1.4-8.8-33.6l-5.6-26.3 3.1-8.2c1.8-4.5 4.1-9.2 5.3-10.4 1.1-1.3 1.8-2.5 1.6-2.7-.8-.8-17.2-2.6-23.7-2.6-5.7 0-6.3.2-5.8 1.7.4 1 1.9 4.8 3.3 8.5l2.6 6.8-6.3 28.7c-3.4 15.9-6.7 29.7-7.3 30.8-1 1.9-1.1 1.8-2.3-1-1.4-3.5-14.1-52.8-14.6-56.6-.3-3 4.8-16.5 7.4-19.5 2.8-3.1 2.2-4.9-2.9-9.4-9-7.9-21.3-15.1-21.3-12.5 0 .3 1.1 3.3 2.5 6.7s2.5 7.3 2.5 8.7c0 3.9-13.1 56.8-14.6 58.8-1.2 1.7-1.3 1.6-2.2-.7-2.6-6.9-13.3-55.8-12.9-59 .6-4.2 5.3-14.6 8-17.7 2.4-2.7 1.8-3.6-3.7-6.3-2.5-1.1-6.5-3.7-9-5.6-2.4-1.8-5.3-3.4-6.3-3.4-1 .1-3.9 1.8-6.5 3.8m305.9 16.4c-.9 5.4-.4 6.8 2.4 6.8 1.3 0 1.9-.7 1.9-2.3 0-1.7-.2-1.9-1-.7-.8 1.3-1 1.3-1.4 0-.3-.8-.7-3.1-.8-5-.3-3.4-.4-3.3-1.1 1.2"/></svg>