<svg xmlns="http://www.w3.org/2000/svg" width="682.667" height="512" version="1.0" viewBox="0 0 512 384"><path d="M0 75.5C0 124.6.3 151 1 151c1.8 0 16.3-4.2 22.6-6.6 8.1-3 19.5-8.5 29.2-14 4.2-2.4 8.5-4.4 9.6-4.4 1 0 3.3 1.1 5 2.3 3.2 2.4 22.3 13.7 23.3 13.7.2 0 5.2 3.3 10.9 7.2 16.2 11.2 24.9 16.3 32.2 18.9 6.3 2.2 8.1 2.4 28.7 2.4h22l4 6.1c2.2 3.3 5.2 7.5 6.6 9.4l2.7 3.3 4.8-4c5.7-4.8 9.7-6.9 21.4-11.3 10.8-4.1 11.2-4.5 9.9-9.4-1.3-4.7-.5-7 2.1-6.3 1.6.4 2 0 2-1.9 0-1.4-.9-3.4-2-4.6l-2-2.2v2.3c0 1.2-.4 1.9-1 1.6-.5-.3-1.5.5-2.2 1.9-1.8 4.2-2.8 3-2.8-3.3 0-3.3-.4-6.3-1-6.6s-1 .4-1 1.7-.5 3-1 3.8c-.8 1.2-1 1-1.1-1-.1-1.4-.7.2-1.4 3.5-.9 4.1-1.3 5.1-1.4 3-.1-1.7-.8-4.1-1.7-5.3-.8-1.2-1.7-4.5-1.9-7.3-.4-7.1-1.5-7.4-1.5-.3-.1 5.6-.2 5.8-1.6 3.9-1.1-1.4-1.8-1.6-2.1-.8-1 2.8-2.1 1-2.7-4.9-.6-6.4-2.6-10.5-2.6-5.5 0 4.6-1.9 3-3.6-3.1-2.2-7.7-2.1-7.6-5.3-4l-2.8 3.1 1-6.7c.5-3.7.8-6.9.5-7.1-.2-.2-2.3.1-4.6.7-2.4.6-4.6.7-5 .4-.4-.4 1.7-2.8 4.6-5.3 5.8-5 6.9-7.9 2.6-6.9-2.3.6-3.6-.3-10.5-7.5-9.1-9.4-9.7-11.4-4.4-15 2.1-1.4 3.9-3.6 4.3-5.4.7-2.6 1.4-3.1 5.2-3.6 3.3-.4 5.1-1.4 7.6-4.2 3.3-3.6 3.4-3.7 2.8-11-1.5-17.5 10.8-41.2 25.3-48.5 10.6-5.4 19.4-6.3 33.8-3.3 5 1.1 12.6 2.4 17 3 29.2 4.2 41.2 10.8 49.5 27.3 2.2 4.4 4 8.8 4 9.8s.3 2.6.6 3.5c.6 1.4.9 1.4 3-.6 1.3-1.3 4.1-2.3 6.7-2.6 3.9-.5 5.5 0 12.2 3.7 4.2 2.3 7.9 5 8.2 5.9.4.9 1.9 3.5 3.5 5.9 4.4 6.4 5.7 10.2 7.4 21.9.8 6 1.8 12.2 2.1 14 .6 3.7-1.5 5.5-8.9 7.4-2.7.6-4.8 1.4-4.8 1.8 0 .3.9 2.9 1.9 5.7 4.7 12.4 9.7 38.7 8.5 45l-.6 3.4 4.1-1.5c6.1-2.1 16.4-8.4 27.3-16.7 5.4-4.1 14.6-10.3 20.4-13.8 5.8-3.6 13.6-8.6 17.2-11.3 3.7-2.6 7.2-4.7 7.8-4.7s8.1 3.5 16.5 7.8c13.4 6.8 34.2 14.8 43.4 16.7 1.7.3 3.8.8 4.8 1.1 1.6.5 1.7-3.3 1.7-70.5V0H0z"/><path d="M323.2 113.4c-3 6.3-5.2 12.2-5 13.2.3 1.8 6.5 6.1 7.4 5.1 1.1-1.1 3.5-19.2 3.2-24.3l-.3-5.4zM442 135c-3.6 2.8-7.3 5.3-8.2 5.6-2.6.8-2.2 4.3.6 5.3 3.1 1.3 11.4 11.8 12.6 16.1 1.1 4.4 3.2 53.7 2.4 56.8-.4 1.3-1.2 2.1-1.8 1.9-1.2-.4-6.8-9.9-15.6-26.1-2.9-5.5-7.5-13.7-10.1-18.3l-4.8-8.3 1-8.2c.5-4.5 1.5-9 2-10s.7-2.3.4-2.8c-1-1.6-12.2 5.1-19.7 11.9-7.9 7.1-8.8 9.6-4.4 12.5 1.3.8 4.4 4.6 7 8.5 4.6 7 4.6 7.1 4.5 15.3-.1 14.2-2.4 53.7-3.2 54.4-1.5 1.5-3.6-2.3-11.1-19.8-4.1-9.7-9.4-21.7-11.7-26.5-3.8-8.2-4-9.3-3.6-15.3.3-3.6 1.2-8.5 2-10.9l1.6-4.4-6.6.6c-3.6.2-7 1-7.5 1.5-.6.6-2.1 4-3.4 7.6-3.2 9.4-4.7 11.3-3.9 5.5.3-2.6.3-6-.1-7.5-.7-2.5-.8-2.6-1.5-.9-1.5 4-1 14.2 1 17.7 1.6 3 1.7 4.5.9 15.3-.5 6.6-1.5 20.5-2.2 30.8-.7 10.4-1.8 19.3-2.3 19.8-1.2 1.2-2.9-2.3-10.7-21.6-3.5-8.8-8.5-21-11-27.2l-4.5-11.1 1.6-7.9c.8-4.3 2.1-8.8 2.9-10 1.1-1.8 1.1-2.3-.2-3.4-1.2-1-1.8-.9-3.3.7-.9 1-4.6 4.9-8 8.6l-6.3 6.7 8.1 8c4.5 4.4 8.1 8.3 8 8.8-.1.4.1 2.1.6 3.7.7 2.7.4 3.3-3.5 6.7l-4.3 3.7 2.2 3c1.2 1.7 3.7 4 5.6 5.2s3.3 2.6 3 3.1c-.3.4-2.5 1.7-4.9 2.7l-4.2 1.9 4.8 14.9c2.7 8.2 5.8 19.6 6.9 25.4s2.3 12 2.7 13.9c.7 3 1.7 3.8 11.7 9 6.1 3.2 14.2 7.5 18 9.8 17.3 10.1 29 16.3 30.8 16.3.8 0 2.6-1.5 3.8-3.3 2.3-3.2 4.4-5.3 8.6-8.6 1.1-1 4-4.4 6.3-7.7 4.6-6.6 8.7-9.3 14.2-9.4 3.2 0 3.9.4 4.4 2.5.9 3.6-.1 5.3-4.1 7.2-3.3 1.6-3.5 1.9-2.9 5.2.4 2 1 4 1.5 4.6 1.5 1.5 9.7 2 21.1 1.3l10.7-.7 4-4.1c2.3-2.4 4.5-5.9 5.1-8.1.9-3.2 1.5-3.9 3.5-3.9 2.6 0 3 .8 4 8.5.4 2.7 1 5.4 1.5 6 2.5 3.2 2.1 5.6-1.9 11.5-2.3 3.3-3.8 6.6-3.5 7.4.8 2.1-1.1 7.5-3.9 11-1.7 2.1-3.5 3.1-6.7 3.5-3.9.5-4.5 1-5.2 3.7-1.4 5.7-3 6.1-11.4 3.1-5.7-2-8-2.4-9.9-1.7-8.7 3.3-32.8 6.6-40.1 5.5-2.8-.4-16.2-6.5-36.2-16.5-41.6-20.7-42.3-21.3-51.7-46.8-2.4-6.4-4.6-11-4.9-10.2-1.2 3.6-1.2 16.4 0 27 1.6 14 1.7 17.3.4 16.5-2.3-1.4-.6 3.7 5.9 17.9 3.7 8.3 7.9 18.1 9.2 21.8l2.4 6.8H512V188.2l-5.2-6.3-5.3-6.3v-22l-9.2-2.6c-8.4-2.4-9.1-2.5-8.2-.8.5 1 1.3 1.8 1.7 1.8 1.6 0 4 5.8 4.5 11 .4 3 1.6 14.6 2.8 25.7 2.1 19.8 2 25.8-.4 25.1-1.3-.5-3-2.9-20.6-29.7L460 165.8V158c0-6.2.4-8.2 2-10.3 1.4-1.8 1.7-2.8.9-3.3-.6-.4-.9-2-.6-3.9.5-3.1.3-3.3-6.3-6.8-3.7-2.1-6.9-3.7-7.1-3.7-.2.1-3.3 2.3-6.9 5m-127.7-1.5c.3 1.1.9 4.7 1.2 8l.6 6-3.4-3.9-3.4-3.8-1.6 4c-1.9 4.7-3.7 6.3-3.7 3.3 0-1.2-.4-2.1-1-2.1-.5 0-1 .5-1 1 0 .6-1 3.1-2.2 5.6-1.8 4-2.3 4.4-3.3 3-.7-.9-1.5-1.6-1.8-1.6s-1.6 3.1-2.7 7c-2.2 7.5-3.6 9.3-2.7 3.5.3-1.9.2-3.5-.2-3.5-.5 0-1.1 2.3-1.5 5.1s-.9 5-1.1 4.8c-.5-.6-1.4-8.7-1.5-15.4l-.2-6-2.1 4.7c-2 4.2-5.7 8.8-7.2 8.8-.3 0-.5-2.3-.5-5.1 0-3.1-.4-4.8-1-4.4-.5.3-1 1.6-1 2.8-.1 2.2-.1 2.2-1.6.2-1.1-1.5-1.8-1.7-3.2-.9-2.7 1.8-2.1 3.9 1.1 3.6 3-.4 3.3.7 1.6 5.7-1.5 4.2.5 6.4 7.5 8.7 9.1 3 17.9 7.8 23.4 12.8l5.4 4.9 2.3-2.9c1.3-1.6 4.6-6.6 7.2-11.1 4.8-8.2 7.2-10.3 11.8-10.3 2.9 0 3-.2 1-3.9-2.4-4.7-4.8-17-4.3-22.7.4-5.1.4-5.2-2.6-5.8-1.6-.4-3.4-.2-4 .4s-1.6.4-2.9-.8c-1.9-1.6-1.9-1.6-1.4.3m-75.9 4.1c.3.9.6 1.8.6 2 0 .3 2.8 1.8 6.3 3.4 5 2.4 7.4 3 12.2 2.8 5.7-.2 5.7-.2 1.3-.5-2.7-.2-4.8-.9-4.8-1.5s-.9-.8-2.1-.5-1.8.3-1.5-.1c.9-.9-5.4-3.3-6.7-2.5-.6.3-.7.1-.3-.5.4-.7.1-1.2-.7-1.2s-1.7-.7-2.1-1.5c-.3-.8-1-1.5-1.7-1.5-.6 0-.8.7-.5 1.6M53 143.7c-5.5 3.6-5.6 3.7-5.4 8.2.1 2.5.7 5.9 1.3 7.4.6 1.6 1.1 5.7 1.1 9.2 0 6.4-.1 6.6-8.7 19.9-4.9 7.5-11.2 17.4-14.2 22-5.6 8.9-8.6 12.4-9.8 11.3-1-1.1-.9-5.6 1.2-30.7 1.9-23.4 2-23.5 5.2-28.2 1.7-2.7 3.1-4.8 3-4.8s-2.6.9-5.5 2-6.1 2-7.2 2c-2.8 0-4.5 4.6-3 7.9.7 1.6.9 4.8.4 8.9-.6 6.1-1 6.9-6 12.3L0 197v187h185.5l3.4-9.3c1.8-5 5.5-13.8 8.2-19.5l4.8-10.3.6-14.6c.3-8.1.8-15 1.1-15.5.8-1.3-.8-28.8-1.6-28.3-.4.3-1 1.8-1.4 3.5-.3 1.7-1.6 4.1-3 5.3-1.3 1.2-3.8 6.1-5.5 11.1-8.6 24.5-10.4 26-53.6 48.1l-25 12.7-7.5-.5c-8.4-.7-27.9-4.8-33.4-7.1-3.3-1.4-4.1-1.3-9.3.5-6.9 2.4-9.7 1.9-11.4-2-1.2-2.6-1.6-2.8-5.6-2.3-4 .4-4.6.2-7.8-3.4-1.9-2.1-3.9-5.2-4.4-7s-2.8-5.8-5.2-8.9c-4.2-5.6-4.3-5.7-3.1-10.1.7-2.4 1.2-5.7 1.2-7.3 0-3.6 3.1-7.7 5.3-6.8.9.3 2.1 2.5 2.7 4.9 1.1 4.2 3.1 6.7 7.7 9.9 1.8 1.2 3.4 1.4 7 .8 2.7-.4 9.2-.5 14.5-.2 8.8.4 9.9.2 11.7-1.6 3.1-3.1 2.6-5.3-1.6-7.6-4.9-2.7-6-4.7-4.5-7.9 2.1-4.7 10.2-2.7 16.2 4 1.9 2.1 4.8 4.9 6.4 6.3 1.7 1.5 5.8 5.4 9.1 8.8l6.2 6.2 5.9-3.1c3.2-1.7 12-6.8 19.4-11.3s17.4-10.4 22.2-12.9c8.1-4.4 8.8-5 9.4-8.4 3-17.6 9-41.3 12.8-50.4 1.5-3.5 1.5-3.8-.3-4.8-1.1-.5-2.9-1-4-1-3.7 0-3.5-2.2.3-5.3 3.3-2.7 7.3-8.4 6.4-9.2-1.1-1.1-8.1-5.6-8.3-5.3-.1.2-3.2 7.9-6.8 17.3-10.1 26-10.6 27.1-12.2 24.4-.7-1.1-3.7-32.4-5-51.9l-.7-10.6 4.7-7.4c2.6-4.1 5.9-8.5 7.4-9.7 1.7-1.4 2.3-2.5 1.6-3.1-1.5-1.5-11.7-3.2-24-3.9-9.4-.5-10.8-.4-9.8.8 1.3 1.6 4.3 13.7 4.3 17.4 0 2.1-14.8 39.7-21.2 53.7-4.1 9.2-4.5 7.9-6.8-23.4-1.1-14.5-2.2-27.5-2.4-28.9-.6-3.3 7.1-17.2 11.4-20.9 1.7-1.4 3-3.3 3-4.2 0-2.1-14.1-13.4-21.2-17-4.4-2.2-5.4-2.4-5.6-1.1-.2.9.1 2.5.6 3.7.6 1.1 1.5 5.4 2.1 9.4 1.1 7.2 1.1 7.2-2.2 13.5-6.6 12.1-12 22.3-17.5 32.7-3 5.8-6.3 11.4-7.3 12.4-1.7 1.9-1.8 1.9-2.4-.5-.3-1.3-.5-14.8-.3-29.9l.3-27.5 5.5-7.2c3-4 6-7.2 6.7-7.3.7 0 1.7-.9 2.3-1.9.9-1.8.2-2.5-5.9-6.4-3.8-2.5-7.2-5-7.5-5.6-1.2-1.9-3.9-1.2-9.6 2.6m276.2 3.3c0 1.4.2 1.9.5 1.2.2-.6.2-1.8 0-2.5-.3-.6-.5-.1-.5 1.3m4.8 15.2c0 .7.5 2 1 2.8.8 1.2 1 1.1 1-.7 0-1.2-.4-2.5-1-2.8-.5-.3-1 0-1 .7m-161.6 24.2c-.3.8.1 2.5.9 3.8s2.2 5.6 3.1 9.6c1.6 6.8 1.6 7.6.1 11.4-.9 2.2-1.5 4.2-1.3 4.3s3.6-3.4 7.7-7.8l7.4-8-7.5-7.3c-7.7-7.5-9.4-8.5-10.4-6"/></svg>