<svg xmlns="http://www.w3.org/2000/svg" width="682.667" height="512" version="1.0" viewBox="0 0 512 384"><path d="M241.2 7.1c-12.3 2.1-23.6 11-29.9 23.4-5.3 10.4-7.4 17.1-7.9 25.9-.5 8.4-.9 9-8 13.6-2.7 1.7-3.5 1.8-6.3.7-2.9-1.1-3.4-1-4.7.7-.8 1.1-1.4 2.9-1.4 4.1 0 1.3-1 2.7-2.6 3.6-4.7 2.5-4.6 4.8.5 11.3 2.5 3.3 6.3 7.8 8.3 9.9 3.6 3.8 3.9 3.9 5.7 2.3 1.7-1.6 1.9-1.5 3.4.7 1.5 2.3 1.4 2.6-2.6 6.4-2.3 2.2-5.3 4.8-6.7 5.7-2.5 1.8-2.5 1.8 3.3 1.4l5.9-.5-.7 4.6c-.3 2.5-.9 5.7-1.1 7.1-.5 2.4-.4 2.3 2.4-.8l3-3.3 1.7 7c.9 3.9 2 7.1 2.4 7.1s1.2-1.2 1.8-2.8l1.1-2.7.1 3c.2 5.5 2 10.5 3.6 9.8 1-.3 1.5.1 1.5 1.3 0 3.8 2-1 2.1-5.1.1-3.5.2-3.7.9-1.5.4 1.4.8 4.2.9 6.2.1 2.4 1 4.7 2.6 6.5 2.4 2.7 2.4 2.7 2.5.5 0-1.2.4-2.2 1-2.2.5 0 1.2-1.7 1.6-3.8l.7-3.7.9 3c.5 1.6.6 5.4.3 8.3-.6 5.7.4 6.2 2.5 1.2.8-1.9 1.8-2.9 2.6-2.6s1.4.1 1.4-.5.5-.7 1-.4c.6.3 1-.1 1-1s.5-1.3 1-1c.6.3 1 2.4 1 4.7 0 2.9-.4 3.9-1.3 3.5-3.1-1.2-4.1.9-3 5.8 1.2 5.3 1.7 4.9-10.6 9.5-10.8 4-15.4 6.4-20.2 10.7-4.6 4.2-4 4.7-11.6-8-2.5-4.3-5.4-8.2-6.3-8.7s-5.6-.3-11.6.6c-5.4.7-13.5 1.4-17.9 1.4-17.5 0-27.6-3.3-48.6-16.1-7.2-4.3-18.9-10.8-26.1-14.4-7.3-3.6-13.9-7.2-14.8-8-3-2.8-4.8-2.1-18.5 6.7-8 5.2-18.4 10.8-23.5 12.8-1.9.7-4.8 1.9-6.5 2.6-1.6.7-6.3 2.3-10.2 3.4L0 159.2v39.9l3-1.6c1.6-.8 3.7-2.6 4.5-3.8 2.3-3.5 4.5-11.7 3.9-14.6-.9-4.3.9-7.2 5.1-8.7 2.2-.7 4-1.2 4.1-1.1s-1.8 11-4.2 24.2c-4.8 26.7-5.2 30.7-2.9 29.9 1.6-.6 30.5-35.2 33.8-40.4 2.6-4.1 3.3-13 1.5-17.7-2.5-6.4-1.2-11.5 4.2-15.7 5.1-4.1 7.1-4.4 10.8-1.7 1.5 1 5.1 3 8 4.5 2.8 1.4 5.2 2.8 5.2 3s-1.5 1.3-3.3 2.3c-1.7 1.1-5.1 4.5-7.5 7.6l-4.4 5.6-1.5 27.9c-.9 15.4-1.3 28.8-.9 29.7.5 1.4.9 1.5 2.1.5 1.5-1.2 9.8-14.8 23.5-38.4l6.3-10.9-1.1-8.1c-.7-4.4-1.5-9.4-1.9-11-.6-2.9-.5-2.9 2.8-2.2 4.5.8 11.9 4.7 19 9.9 6.5 4.7 7.6 7.6 3.4 9.5-1.4.7-4.6 4.4-7.2 8.4l-4.7 7.2 1.1 29.6c.6 16.2 1.4 30.3 1.8 31.2.6 1.6.9 1.6 2.4-.5 1-1.2 6-11.7 11.1-23.2 5.1-11.6 10.4-23.2 11.7-25.9l2.4-4.8-1.7-8.9c-.9-4.9-2.3-9.4-3-10-3.4-2.8-1.1-3.1 15.9-2.7 9.4.3 18 .9 19 1.3 2.5 1.1 2 2.7-1.5 5-1.7 1.1-5.3 5.4-7.8 9.5l-4.7 7.6 1.8 27.9c1.1 15.4 2.1 29.5 2.4 31.2 1 5.9 2.9 4.2 7.3-6.7 1.6-4.1 5.1-12.5 7.7-18.7l4.7-11.2 3.9 2.6 3.9 2.5-2 2.8c-2.4 3.4-7.7 8-9.2 8-2.1 0 1.4 2.9 4.2 3.5 5 1.1 5.1 2.2 1.4 13-3.9 10.9-8.5 28.9-10.4 40.3l-1.2 7.3-5.1 2.6c-2.9 1.4-13.7 8.1-24.2 14.8-10.4 6.7-20.9 13.2-23.2 14.5l-4.1 2.3-7.1-7.2c-3.8-3.9-7.4-7.1-7.8-7.1-.5 0-2.6-2.2-4.7-5-4-5.3-8.5-7.5-14.1-6.8-2.4.2-3.1.8-3.3 2.9-.3 2.6 1.3 4.4 6.3 7.4 1.3.8 1.6 1.7 1.1 3.3-1.2 3.6-4.4 4.6-13.2 4.3-5.1-.1-10.4.4-14.5 1.4l-6.4 1.7-3.7-4.1c-2.9-3.1-3.8-4.9-3.8-7.5 0-3.7-2.5-6.1-4.8-4.7-1.7 1-6.4 15.8-5.7 18.1.3 1 2.6 4.5 5 7.6 2.5 3.2 4.5 6.3 4.5 6.9 0 .7 1.4 3.1 3.1 5.5 3.1 4.2 3.1 4.2 8.5 3.8 5.2-.5 5.5-.4 7.4 2.9 1 1.8 2.5 3.3 3.2 3.3s3.8-1.3 6.9-2.9l5.5-3 7 2.5c8.1 3 28 7.4 33.3 7.4 4.5 0 10.8-3 35.3-16.6 37.6-20.9 38.7-22.1 47.8-48.8 2.1-5.9 4-10.3 4.4-9.7 1.2 1.9 2.3 1.2 3.7-2.2l1.4-3.2.7 4c.9 5 1.1 30.2.3 31.6-.4.5-.7 5.4-.7 10.7 0 9.4-.1 10-4.2 18.7-5.5 11.4-11.6 26.8-11.6 28.9 0 1.5 6 1.6 70 1.6 61.1 0 70-.2 70-1.5 0-1.9-4.2-13.1-8.1-21.4-1.7-3.6-4.4-9.4-6-12.9-2.5-5.4-2.9-7.1-2.3-11.2.4-2.7.1-9.5-.6-15.2-1.5-12.1-1.5-12.8-.6-23.2.9-9.3 1-9.2 6.5 5.7 7.4 20 11.7 25.7 24.6 33.3 11.3 6.7 44.3 24.4 53.4 28.7 8.5 4 8.5 4 17.7 3.4 11-.7 23.3-3.2 29.2-5.7l4.2-1.9 6.1 3.5c8.6 4.8 11 4.4 12.8-2.3.7-2.6 1.1-2.8 5.5-2.8 4.1 0 5.1-.4 7.1-2.8 2.5-3.3 4.6-9.2 3.9-11.2-.3-.7 1.1-3.7 3-6.7 3.9-5.7 4.4-8.9 2.2-14-.8-1.8-1.7-4.9-2.1-6.9-1.2-8-6.8-8.2-8.3-.3-.4 2.4-2 5.6-4 7.8l-3.3 3.8-5.1-1.2c-3.2-.8-8.2-1.1-13.3-.7-10.1.7-12.2.2-14-3.4-2.2-4.2-1.9-5.5 2-7.8 3.7-2.1 4.7-5.5 2.3-7.9-1.7-1.7-4.2-1.5-9.1.8-3.2 1.5-5 3.4-7.5 7.8-1.9 3.2-4.7 6.7-6.3 7.7-1.7 1.1-4.6 4.4-6.5 7.3l-3.6 5.3-6.6-3.7c-3.7-2.1-14.2-8.4-23.4-14.1-9.2-5.6-20-11.9-24-14-4-2-7.6-4.1-8-4.6-.3-.6-.9-3.1-1.3-5.6-1.6-11.4-8.9-37.6-14-50.4-.6-1.3.1-2 2.7-3.1 1.9-.8 4.1-2.3 4.9-3.2 1.2-1.5 1.2-1.8-.5-2.8-3.3-1.9-7.6-5.8-8.6-7.6-.8-1.5-.4-2.2 2.3-3.9 4.9-3 5.8-5.7 3.7-10.6-1.6-3.7-10.4-12.9-15.9-16.7l-2.4-1.7 7.8-9.7 7.8-9.7 1.8 2.4c1.5 2 1.6 2.6.4 3.9-.7.8-1.8 5.6-2.5 10.6l-1.2 9.1 7 16c3.9 8.7 8 18.1 9 20.9 3.4 8.4 9.3 20.4 10.2 20.4 1.5 0 1.9-4.4 3.1-32.9 1-23.8 1.5-29.5 3.1-34.1 1.1-3 3.2-9.1 4.8-13.5l2.7-8 6.7-.3c3.6-.2 6.6 0 6.6.3s-.6 1.6-1.4 2.8c-.7 1.2-1.9 5.8-2.6 10.2l-1.2 8.1 13 26.4c7.2 14.6 13.5 27.2 14.1 28 2.5 3.5 3.1-2 3.1-31.3v-29.8l-4.5-6.9c-2.5-3.9-5.8-7.6-7.3-8.4-4.8-2.5-3.9-5.1 4.1-11.1 7.5-5.6 16.8-10.5 20.1-10.5 1.5 0 1.7.5 1.1 2.2-.4 1.3-1.2 6.1-1.7 10.8l-1 8.5 15.7 24.7c8.7 13.7 16.4 24.8 17.1 24.8 1.7 0 1.8-4.6.5-18.6-.5-5.5-1.5-16.6-2.2-24.8l-1.3-14.9-4.5-5.8c-2.5-3.2-5.7-6.3-7.1-7-5.4-2.8-5.4-3 1.7-7.1 3.7-2.1 8-4.7 9.5-5.6 2.6-1.6 2.8-1.6 8.5 2.3 4.9 3.4 5.9 4.6 6.5 8 .4 2.3.2 5.2-.4 6.7-.5 1.5-.9 6.1-.6 10.2.3 6.5.7 7.9 3.3 11 1.7 1.9 8.1 9.5 14.3 16.8 16 18.9 18.7 21.8 19.9 21.8 1.8 0 2.2-2.5 1.2-7.1-2.8-12.1-9.8-47.3-9.6-47.6.2-.1 2.5.6 5.2 1.6 5.2 2 6.9 4.5 5.9 8.6-.5 2.2 1.5 10.5 3.5 14.4.6 1.1 2.5 2.9 4.1 4.1l3 2.2-.2-20.2-.3-20.1-13.4-4.5c-12.4-4.1-31.6-13.2-43.6-20.6-7.3-4.4-10-4.6-16-.6-2.7 1.8-7.2 4.4-10 5.8-9.6 5-20.1 11.4-30.6 18.7-5.9 4-13.6 8.6-17 10.2-11.4 5.2-10.1 6.3-13.2-11.7-1.4-8.7-3.7-19.2-5-23.4l-2.4-7.6 3.6-.7c2-.4 4.7-1.3 5.9-2.2 2.1-1.3 2.3-2 1.8-5.6-.3-2.3-1-8.5-1.5-13.7-1.6-15-3.8-27.2-5.5-31.1-2-4.7-7.2-7.3-13.3-6.6-2.4.2-5.9.1-7.8-.3-2.4-.6-4.1-.3-6.2.9l-2.7 1.7-2.7-8.2c-3.3-10.3-5.3-13.6-12.8-20.8-8.6-8.2-15.2-10.8-40.7-16.6-25-5.6-29.8-6.2-37.2-4.9m87.9 117.4c-2.5 15.9-2.7 27.3-.6 34.1.8 2.7 1.5 5.1 1.5 5.3s-1.5.1-3.2-.2c-4.6-.7-6.4.6-9.4 6.6-1.5 2.9-4.7 8.3-7.1 12l-4.5 6.8-4.8-4.5c-5.1-4.8-10.6-7.8-21.7-12-3.9-1.5-7.7-3.3-8.3-4.1-.9-1.1-.7-3.2.8-9.2l2-7.8.1 6.9.1 6.8 2.5-2.3c1.5-1.3 3.8-4.7 5.2-7.4 2.2-4.3 2.7-4.7 3.4-3 .4 1.1.8 6 .9 11 .1 9.5 1.2 9.5 2.7 0l.7-5 .6 5.5.5 5.5 1.4-6c.7-3.3 1.8-6.9 2.3-7.9 1-1.9 1.1-1.9 2.4-.1 1.3 1.7 1.5 1.4 3.5-3.1 1.3-2.8 2.4-4.3 2.6-3.4 1.3 4.4 1.5 4.3 4-.4l2.5-4.9 3 4.4 3 4.4-.6-8.3c-.5-7.7-.4-8.3 1.2-7.7.9.4 3.5.9 5.7 1.2l4 .4-3.7-3.4c-2.1-1.9-3.8-4.2-3.8-5.1s1.7-4.4 3.8-7.9c2-3.4 4.8-8.4 6.2-11 2.3-4.4 2.5-4.5 2.8-2.2.2 1.4-.6 8.6-1.7 16m-92.1 8c.5-.3 3.7 1.3 7.2 3.4 3.5 2.2 7.5 4.3 9.1 4.6 1.5.4 2.7 1.1 2.7 1.6s1 .9 2.3.9c1.2 0 2.9.5 3.7 1 3.2 2.1-7.6.9-13.3-1.4-7.3-3-11.6-5.8-9.9-6.4.7-.2 2.3.4 3.5 1.4 1.9 1.7 1.9 1.6-.2-.8-1.3-1.5-3.3-2.8-4.4-3s-2.2-.9-2.3-1.6 0-.8.3-.2c.2.5.8.8 1.3.5m93.7 17.7c-.3.8-.6.5-.6-.6-.1-1.1.2-1.7.5-1.3.3.3.4 1.2.1 1.9m-109 1c-.3.8-.6.5-.6-.6-.1-1.1.2-1.7.5-1.3.3.3.4 1.2.1 1.9m47.8 3.8c.3.6 0 1.7-.9 2.5-1.7 1.7-3.1.4-2.2-2 .6-1.7 2.2-2 3.1-.5M191 197.5c0 .6-3.1 4.2-7 8-6.7 6.7-6.9 6.8-5.8 3.3.8-2.7.7-5.3-.7-11.9-.9-4.6-2.1-9-2.7-9.7-.8-.9-.7-2 .3-3.9l1.4-2.5 7.2 7.8c4 4.4 7.3 8.4 7.3 8.9m168.5-5.8c-1.1 5.9-2.7 1.6-1.9-4.9.8-5.2.8-5.3 1.7-2.1.5 1.7.6 4.9.2 7m108.2 156.9c-.3.3-1.2.4-1.9.1-.8-.3-.5-.6.6-.6 1.1-.1 1.7.2 1.3.5"/></svg>