<svg xmlns="http://www.w3.org/2000/svg" width="682.667" height="512" version="1.0" viewBox="0 0 512 384"><path d="M241 7.3c-8.4 2-12.9 4.5-19.6 11.2-9.5 9.4-18.5 30.1-17.1 39.1.7 4.2-.4 5.5-8.6 9.8-5.9 3.1-7.4 3.5-11.3 2.9-5-.6-6.4.3-6.4 4.3 0 1.2-1.1 2.9-2.5 3.8L173 80l8.1 9.8c4.5 5.3 8.8 10.1 9.6 10.5.9.5 2.3.2 3.8-.7 2.9-1.9 3.5-2 3.5-.4 0 .6.7 1.9 1.6 2.9 1.5 1.7 1.4 2.1-1 6.4-1.5 2.5-3 4.5-3.4 4.5-.4.1-2.5 1.7-4.7 3.7l-4 3.5 5.9-.7 5.9-.7-.7 3.6c-.3 2-.9 5.3-1.2 7.3l-.6 3.8 2.6-3c1.4-1.7 2.5-3.3 2.6-3.8 0-.4.4-.7.8-.7s1.4 2.7 2 6c1.2 5.5 3.2 9.1 3.2 5.6 0-.9.5-1.6 1-1.6.6 0 1 1.1 1 2.4s.3 3.9.7 5.7c.7 3.3.7 3.3 1.4.9.6-2.3.7-2.4 1.3-.5 2.2 6 2.4 6.2 3.1 2.7.7-3.1 2.5-4.5 2.5-2 0 .7.5 3.1 1.2 5.3l1.1 4 1.1-3.5 1-3.5.4 3.7c.2 2.5.8 3.8 1.8 3.8s1.5-1.4 1.6-5.3.3-3.1.8 3.3l.5 8.5 2.6-5.4 2.6-5.4 1.6 2.4 1.7 2.3v-2.7c0-1.6.4-2.6 1-2.2.6.3 1 2.4 1 4.6 0 3.5-.2 3.9-2.6 3.9s-2.6.3-2.1 3.2c.3 1.8.8 4.1 1.2 5 .8 1.9-3.4 4.4-12.5 7.3-7.6 2.5-14.7 6.1-19.6 10.1l-4.2 3.4-6.3-9.8c-7.4-11.2-5.1-10.5-26.4-8.3-23.1 2.4-35.2-.4-57.1-13.2-6.1-3.5-19-10.3-28.8-15.1l-17.8-8.7-4.1 2.4c-2.3 1.3-8.6 5.2-13.9 8.6-11.7 7.4-22.8 12.9-34.9 17.2L0 164.3v16.3c0 13.8.2 16.3 1.4 15.8 2-.8 9.9-14.2 9.1-15.5-1.3-2 2.4-7.7 5.7-8.8 1.7-.6 3.3-1 3.5-.8.1.2-2.2 11.4-5.2 24.8-5.8 25.7-6.6 31.6-4.1 30.2.8-.5 4.6-4.4 8.3-8.8 3.7-4.5 8.2-9.6 9.9-11.5 12.8-14.1 19.2-22.5 19.8-25.9 1-6.1.6-12.5-.9-14.5-1-1.3-1.1-2.4-.4-3.7.5-1 .7-2.9.4-4.2-.5-2 .3-3 5.6-6.7l6.2-4.4 3.1 1.8c1.7 1 5.6 3.1 8.6 4.8 3 1.6 5.5 3.4 5.5 4s-1.2 1.8-2.7 2.7-4.7 4.2-7.2 7.4c-4.2 5.5-4.5 6.2-5 14-1.5 20.9-2.5 48.8-1.8 50.7l.8 2.1 2-2.3c2-2.2 3.9-5.4 20.6-35.7l8-14.4-.7-7.1c-.4-3.9-1.3-8.4-2-9.9-4.2-8.5 4-7 19.8 3.6 8.7 5.8 9.9 8.5 4.9 11.1-1.7.9-4.6 4.4-7.1 8.8l-4.3 7.3.7 16c1.1 26.2 2.4 43.8 3.3 44.7.5.5 1.4.3 2-.4.6-.8 6.3-13.5 12.7-28.3l11.7-27-1.6-7.9c-.9-4.4-2.3-9-3.2-10.4-.8-1.3-1.4-2.6-1.1-2.8.7-.7 29-.4 33.2.4 4.9.9 5.6 3.1 1.5 5.5-4.4 2.7-11 14.9-11 20.7 0 7.9 5.9 57.3 7 58.4 1.5 1.5 3.3-1.5 5.9-9.6 1.3-3.8 2.9-8.5 3.7-10.3 1.3-3.3 1.5-3.4 4.1-2 1.6.8 3.3 1.5 4 1.5 2.6 0 2.2 2.5-2.1 16-3.5 10.7-10.6 40-10.6 43.5 0 .3-2.6 1.8-5.7 3.4-3.2 1.6-11.3 6.5-18 10.9-19.6 13-31.3 20.2-32.8 20.2-.7 0-2.8-1.8-4.5-4-1.8-2.2-5.2-5.4-7.5-7-2.4-1.7-5.8-5-7.6-7.5-6-8.4-17.9-10.3-17.9-2.8 0 1.6 1.2 2.9 4 4.5 4.5 2.6 4.8 3.6 2.1 6.9-1.8 2.2-2.7 2.4-11.8 2.4-6.7.1-11.5.7-15.1 1.9l-5.4 1.8-3.3-3.2c-2.3-2.2-3.4-4.4-3.8-7.2-1.2-8.8-5.6-8.6-8.7.5-3.6 10.5-3.6 10.7 1.3 17.2 2.4 3.3 5.4 8.2 6.7 10.8 3 6.5 5.7 8.1 12 7.3 3.9-.5 5-.4 5 .7 0 .7 1.1 2.4 2.4 3.6l2.4 2.3 6.2-3.3 6.1-3.2 7.7 2.6c8.1 2.8 29 7.7 32.6 7.7 2.9 0 12.7-4.8 33.6-16.5 23-12.9 32.1-18.7 36.5-23.6 4.6-5.1 9-14.2 14-29.2 2.2-6.4 4.2-11.7 4.5-11.7s1 1.5 1.6 3.2c.5 1.8 1.5 3.2 2.1 3.1 2-.4 2.6 8.2 1.8 22.2-.5 7.1-.9 16.4-1 20.5-.2 6.8-.8 8.7-5.7 19.5-3.1 6.6-6.7 15.3-8.2 19.2L185 384h70.5c62.8 0 70.5-.2 70.5-1.5 0-2.3-6-17.4-11.9-29.9-5.3-11.2-5.9-13.4-4-15.3 1-1 .5-6.4-1.9-23.8-.4-2.8-.4-7-.1-9.5.4-2.5.8-6.6.8-9.3.1-2.6.4-4.7.9-4.7.4 0 2.2 4.4 4 9.8 5.7 16.3 10.4 25.3 16.5 30.8 5.4 4.9 27.4 17.7 55.4 32.1l14.2 7.3h8.4c9.8 0 23.4-2.2 31.5-5l5.6-2 7.4 3.8 7.3 3.7 2-2.4c1-1.3 1.9-3.4 1.9-4.7 0-2.2.4-2.4 4.9-2.4 4.3 0 5.2-.4 8-3.5q4.8-5.55 3.9-10.2c-.2-1 1.3-4.5 3.4-7.7 4.1-6.3 4.6-9 2.4-11.5-.8-.9-2.1-4-2.8-7-2.3-8.9-8-10.4-8.4-2.2-.1 3.1-1 5-3.7 8-3.4 3.7-3.7 3.9-7.4 3-2.1-.5-8.7-.9-14.6-.9-10.1 0-10.9-.2-13.2-2.5-3.6-3.6-3.3-6.9 1.1-9.4 2.9-1.7 3.5-2.6 3.2-4.9-.3-2.4-.8-2.7-4.3-3-5.3-.4-10.2 2.8-13.5 8.9-1.4 2.5-5 7-8.1 10s-5.9 6.5-6.3 7.7c-1.2 3.7-.4 4.1-31.2-14.8-10.4-6.5-22.2-13.4-26.1-15.4l-7.1-3.5-1.2-7.3c-1.6-9.9-6.5-28.2-10.6-39.8-1.9-5.2-3.4-9.8-3.4-10.2 0-.3 2-1.8 4.5-3.2 5.1-3 5.5-4 2.3-5.7-2.6-1.3-8.8-6.9-8.8-7.9 0-.4 1.7-2.1 3.9-3.8l3.9-3.1L342 240c7.1 18.6 9.1 22.3 10.5 20 1-1.7 4.6-41.6 5.1-56.5.3-11.1.8-14.2 3.3-21.5l2.9-8.5 8.1-.9c10.5-1 11.8-.6 9.2 3.1-1 1.6-2.4 6.2-3 10.4l-1.2 7.5 13.5 27.1c7.5 15 14 27.4 14.5 27.7.5.4 1.2.3 1.5-.2.2-.4.6-14.4.7-31l.2-30.2-4.9-7.4c-2.9-4.5-5.8-7.7-7.1-8.1-1.3-.3-2.3-1.4-2.5-2.8-.4-2.9 8.8-10.4 18.7-15.3 8.9-4.3 9.9-4.4 9.1-.2-.4 1.8-1.1 6.6-1.6 10.7-1.1 8.6-3 4.8 16.8 35.1 15.3 23.4 15.1 23.2 16.5 22.3 1.1-.7.8-5.4-2.2-37.1-1.8-18.6-2.2-20.7-4.5-24.1-3.2-4.5-7.7-8.9-10.7-10.5-3.3-1.6-3.3-3.1-.2-4.5 1.6-.7 5.6-3 9-5.2l6.1-4 7.1 4.7c6.1 4 6.9 4.9 6 6.5-.6 1.3-.6 2.5.1 3.9s.8 2.6 0 3.9c-1.2 2.4-1.3 9.2 0 14.5.7 3.1 3.2 6.3 12.2 15.3 18 18.2 28.8 27.7 29.9 26.6.7-.7.4-3.1-1-7.4-1.1-3.5-4.4-14.8-7.3-25l-5.4-18.6 4.3 1.4c4.5 1.6 7.3 5.1 7.3 9.3 0 1.9 7.4 14 8.5 14 .3 0 .5-7.1.5-15.8v-15.8l-7.2-2.3c-12.6-4-27.8-11.2-42-19.8-7.5-4.6-14.6-8.3-15.8-8.3s-3.4.8-4.8 1.8c-1.5 1-8.9 5.1-16.4 9-7.6 4-18.6 10.3-24.5 14.1-13 8.2-21 12.3-28.2 14.5-7.7 2.3-8.1 2.2-8.1-2.2l.1-3.7 1.4 3c1.4 2.9 1.5 2.7.9-4-.3-3.9-1.3-11.7-2.3-17.5-1.1-6.3-1.5-11-.9-11.6.4-.7.6-3.6.2-6.5-.6-5-.4-5.7 2.6-9.4 1.8-2.2 4.4-6.5 5.9-9.5 2.3-4.9 2.6-6.7 2.6-17 0-14.1-2.4-21.6-8.2-25.1-6.7-4.2-25-.8-30.2 5.5-2.3 2.8-3.1 1.8-3.1-3.9 0-10.7-5.5-23-14.2-31.5-7.4-7.3-16.5-11.4-34.8-15.6-32.5-7.4-36-7.9-44-6.1m90.8 111.3c-1.7 27.7-1.9 38.1-1 42.2l1 4.2-4.7-.6c-5.6-.7-5.6-.7-13.4 12.8-7.7 13.3-7 12.8-11.8 8-2.3-2.2-6.1-5.1-8.5-6.4l-4.4-2.3.1-5.5c0-3 .4-7.5.8-10 .8-4.2.9-4.1 1 2.9 0 4.1.3 7.2.6 6.9.3-.2.9-2.9 1.5-5.8 1.2-6.2 1.5-6.7 3.4-5.1 1.1.9 1.6.4 2.5-3.1 1.4-5.6 3.1-8.2 3.1-5.1 0 3.4 1.4 2.8 4-1.8l2.3-4.2 1.2 2.9c.7 1.6 2 3.8 2.9 4.9 1.4 1.9 1.5 1.4 1.6-6.4 0-7.2.2-8.2 1.6-7.7.9.3 3.4.8 5.7 1.1 3.7.5 4 .4 2.3-.7-4.7-3.1-5.6-4.8-5.6-9.7 0-4.4.7-6 6.7-15 3.7-5.5 7-9.6 7.3-9.2.3.5.2 6.2-.2 12.7M237.1 132c.6 0 .7-.6.2-1.3-.4-.6 1.1.2 3.3 2 4.1 3.3 14.6 8.5 19.9 9.9 2.9.8 2.8.9-1.5 1.2-2.4.2-6.4-.2-8.8-.9-4.9-1.4-12.6-6.5-11.7-7.9.3-.5-.4-1.4-1.5-2s-2-1.6-1.9-2.3q0-1.35.6 0c.2.7.9 1.3 1.4 1.3m49.5 31.7c.8 4 1.4 8.3 1.4 9.7v2.5l-6.7-2.5c-10.3-3.8-11.7-5-10.8-8.7.4-1.8.9-4.7 1.1-6.6.7-6.5 1.9-5.1 1.4 1.5-.6 7.3.1 8.9 2 4.3.7-1.7 1.8-2.8 2.5-2.5.7.2 2.5-1.7 4.1-4.7 2.6-4.6 2.9-4.9 3.2-2.7.2 1.4 1 5.7 1.8 9.7m-17.6-7.8c0 2.3-1.6 3.6-2.5 2.1-.9-1.4.1-4 1.5-4 .5 0 1 .9 1 1.9m63.8 24.2c1.1 1.7 1.1 2.4-.1 3.7-.9 1-2.3 5.4-3.3 10-1.4 6.8-1.6 9-.6 11.5l1.2 3.1-3.8-3.6c-2-1.9-5.4-4.7-7.4-6.2l-3.7-2.8 4.2-5c7.6-9.2 10.9-12.8 11.6-12.8.3 0 1.2.9 1.9 2.1M183 188.2c3 3.5 6 7 6.7 8 1.3 1.4.8 2.3-4.1 7.5-5.1 5.3-5.5 5.6-5.6 3.3-.1-3.7-3.6-16.9-5.1-18.6-1-1.2-.9-2 .1-3.9.7-1.4 1.6-2.5 2-2.5s3.1 2.8 6 6.2m-4.1 41.3c0 .5-1 2.2-2.2 3.6-2.5 3-7.7 6.5-7.7 5.3 0-.9 3.8-11.3 4.6-12.6.6-1 5.3 2.3 5.3 3.7m290.3 119.7c-.8.8-1.7.8-3.4 0-2.2-1-2.1-1.1 1.2-1.1 2.6-.1 3.1.2 2.2 1.1"/></svg>