<svg xmlns="http://www.w3.org/2000/svg" width="682.667" height="512" version="1.0" viewBox="0 0 512 384"><path d="M236.3 8c-7.1 2.5-13.6 7.2-18.3 13.2-7.8 9.8-14.8 28.1-13.7 36 .6 4.4-1 6.2-9.5 10.6-4.9 2.6-6.2 2.9-9.5 2.1-4.1-.9-6.3.6-6.3 4.4 0 1.1-1.1 2.8-2.5 3.9l-2.6 2 2.7 3.7c4.7 6.2 13.7 16.3 15.1 16.8.8.3 2.2-.2 3.2-1.1 1.8-1.6 2-1.6 4 1.3l2.2 3-2.5 3.9c-1.3 2.2-4.6 5.8-7.3 8.2l-4.8 4.2 4.2-.6c2.3-.3 4.9-.9 5.9-1.3 1.5-.5 1.6-.1 1 4.3-.4 2.7-1 6-1.2 7.4-.5 2.4-.5 2.4 2.5-.8 1.7-1.7 3.2-3.2 3.5-3.2.2 0 .6 1.8 1 3.9.3 2.2 1.1 5.2 1.7 6.8l1.1 2.8 1.1-2.5c1.1-2.7 1.1-2.6 2.3 5.5.6 4.2.8 4.6 1.4 2.5.7-2.3.8-2.4 1.4-.5 2.3 6.3 2.2 6.2 3.8 2.5l1.5-3.5.7 4c.9 5 2.6 8.1 2.6 4.8 0-3.6 2-3.7 2.1-.1 0 1.8.3 2.7.6 2 .2-.6.9-1 1.4-.6.5.3 1-.1 1.1-.8 0-.7.4.9.8 3.7l.6 5 2.4-5.2c2.3-5 2.5-5.2 4.2-3.6 1.7 1.5 1.8 1.5 1.8-1.1 0-1.6.4-2.5 1-2.1.6.3 1 2.7 1 5.2 0 3.4-.3 4.4-1.3 4-3-1.1-4.1.9-2.9 5.4.6 2.4.7 4.8.3 5.2-.5.5-5.6 2.6-11.5 4.7-11.6 4.2-16.5 6.8-21.2 11.2l-3.1 2.9-6.4-9.8-6.4-9.8-5 .2c-47.4 2.1-47.9 2-72.5-12.2-6.3-3.6-16.2-8.8-22-11.5s-13.5-6.5-17.2-8.5c-8-4.1-7.6-4.2-20.9 4.5-5.2 3.4-14.1 8.6-19.9 11.4-9.2 4.6-13.6 6.5-25.3 10.8l-2.7 1v15.9c0 8.8.3 15.9.8 15.9 1.4 0 8.6-12.3 8.7-14.9.1-4.5 2.4-7.7 6.3-8.9 2-.6 3.7-1 3.8-.9s-2 10.5-4.7 23.2c-2.7 12.6-5.2 25.7-5.6 29l-.6 6 2.3-2c1.9-1.7 7.2-7.9 18.9-22 .9-1.1 5.3-6.5 9.7-12l8.1-10 .7-7.3c.4-5 .2-8-.6-9.5-.7-1.2-1.3-4.2-1.3-6.6 0-4.3.2-4.6 5.9-8.8 3.2-2.4 6.3-4.3 6.9-4.3s3.1 1.3 5.6 3c2.6 1.6 6.3 3.6 8.4 4.5 3.2 1.3 3.6 1.8 2.7 3.5-.5 1-1.8 2.1-2.8 2.4-1 .4-3.9 3.5-6.5 7l-4.7 6.4-1.1 28.3c-1 28.3-.8 33.4 1.3 32.7.7-.3 7.5-12.3 15.1-26.8l14-26.3-1.1-7.8c-.6-4.3-1.7-8.7-2.4-9.8-.8-1.3-.9-2.6-.2-4 .9-2 1-2 7.6.8 9.3 4 19.4 11.3 20 14.6.4 2.1 0 2.9-2.2 4-1.7.9-4.6 4.5-7 8.7l-4.3 7.3 1.9 30.2c1.1 16.6 2.3 30.5 2.7 30.9 1.6 1.6 3.8-2.9 14.7-29.1l11.2-27-1.7-8c-1-4.4-2.4-8.9-3.1-10-.8-1.1-1.4-2.3-1.4-2.6 0-1.5 20.6-1.9 29-.7 9.4 1.4 11.1 3.1 6.2 5.9-3.7 2.1-11.2 15.6-11.2 20.1 0 1.8.9 10 2 18.3 1.1 8.2 2.8 20.4 3.6 27 .9 6.6 2.1 12.8 2.6 13.8.9 1.8 1 1.8 2.2 0 .7-1 2.7-6.3 4.5-11.8 3.1-9.2 5.1-13.6 5.1-10.8 0 .6 1.3 1.4 3 1.8 1.6.4 3.2 1 3.5 1.5.2.4-1.5 6.8-4 14.2-2.4 7.5-5.9 20.5-7.7 29l-3.3 15.5-5.1 2.7c-2.8 1.5-13.4 8.1-23.5 14.8-10.1 6.6-20.7 13.4-23.5 15l-5.2 2.9-4.1-5c-2.3-2.8-5.7-5.9-7.6-7.1s-5-4.3-7-6.9c-5.5-7.6-15.4-10.7-17.7-5.6-1 2.2-.8 2.9 1.2 5 1.3 1.4 3.1 2.7 4.2 3.1 2.4.7 2.3 3.9-.4 6.4-1.9 1.7-3.3 2-11.2 1.8-6.7-.2-10.6.3-14.9 1.7l-5.7 1.9-3.5-3.4c-2.6-2.5-3.5-4.3-3.5-6.6 0-1.7-.8-4.1-1.7-5.3-1.7-2-1.9-2.1-4-.6-1.3.9-2.3 2.3-2.3 3.1 0 .9-1 3.7-2.1 6.4-2.6 6-2.1 8.2 2.9 14.7 2 2.6 4.6 6.7 5.6 9 3 6.8 5.6 8.6 11.5 8.1 4.9-.5 5.1-.4 7.1 2.8 2.4 4.2 3.9 4.2 10.7.4l5.4-3.1 6.7 2.5c8 2.8 28.6 7.6 33.1 7.6 4.6 0 9.6-2.3 32.1-14.8 41.9-23.4 43-24.5 52.9-53.7 2.3-6.6 4.4-12.7 4.7-13.5.4-.9 1.1.1 1.9 2.9.8 2.4 1.9 4.7 2.6 5.2 1.5.9 1.7 13.5.7 34.9l-.7 14.5-4.4 9.5c-4.1 8.7-11.7 27.2-11.7 28.5 0 .3 32 .5 71 .5 39.1 0 71-.2 71-.5 0-1.4-7.7-19.9-12.5-30.2-5.6-11.7-6.4-14.8-4.4-15.5.9-.3.9-2.9-.1-10.3-1.5-10.9-1.6-33.6-.3-36 .6-1.1 2 1.6 4.7 9.2 9.3 26.3 12.6 30.1 39.6 45 41.6 22.9 46.8 25.3 54.2 25.3 7.2 0 24.8-3 31.4-5.4l6.4-2.4 6.3 3.4c3.4 1.8 7 3.4 7.9 3.4 2 0 4.8-3.9 5.1-7 .1-1.9.6-2 3.8-1.5 2.1.4 4.7.2 5.8-.4 3-1.7 7.3-9.6 7-12.9-.2-1.9.8-4.6 3.4-8.4 4.2-6.4 4.5-8.7 1.8-12.6-1.1-1.5-2.2-4.4-2.6-6.5-.3-2.1-1.6-4.8-2.7-5.9l-2.1-2.1-1.9 2.3c-1 1.2-1.8 3.6-1.8 5.4 0 2.1-1.1 4.2-3.5 6.8L469 331l-5.2-1.1c-2.9-.7-9-.9-13.8-.6-10.1.6-13.2-.6-14.9-6.2-.6-2-.7-3.7-.3-3.9 3.2-1.1 7.2-4.5 7.2-6.1 0-3.1-3.6-5.1-7.2-4-4.9 1.4-7.7 3.7-10.6 8.6-1.5 2.6-5.2 7.2-8.2 10.2-3.1 3.1-6.3 6.7-7.1 8l-1.5 2.3-5.4-2.7c-4.7-2.4-18.1-10.4-30-18-4-2.6-12.8-7.8-21.5-12.7l-6-3.4-1.6-9c-2.3-12.4-5.3-23.6-10-36.7-3.7-10.4-3.8-11.3-2.2-12.4.9-.7 2.2-1.3 2.8-1.3.7 0 2-1 3.1-2.1 1.9-2.1 1.9-2.2-.6-3.7-1.4-.9-4.1-3.2-6-5l-3.4-3.4 3.4-2.9c1.9-1.6 3.7-2.9 4-2.9s3.2 7.5 6.4 16.7c6.4 18.1 8.2 22.3 9.5 22.3 1.6 0 2-2.5 5.3-32.4 2.8-25.7 3-30 1.9-33.2-.9-2.6-1-3.9-.2-4.7.6-.6 1.1-1.9 1.1-2.9 0-1.6 2.5-8.1 4.9-12.8.9-1.6 15.8-3.7 18.8-2.6 1.4.6 1.4.8 0 2.4-.9 1-2.3 5.6-3.1 10.2l-1.5 8.5 9.1 19c5 10.4 10.8 22.7 12.9 27.1 3.8 8.4 5.6 10.5 6.9 8.4.4-.7 1.1-14.4 1.5-30.6l.7-29.4-5.2-7.9c-3.3-4.9-6.1-8.2-7.5-8.5-1.6-.4-2.2-1.3-2.2-3.2 0-5.1 24.8-20.7 27.9-17.6.9.9.8 1.9-.1 3.8-.6 1.5-1.4 6.1-1.8 10.3l-.6 7.7 14.3 22.9c15.7 25.4 17.9 28.4 19.2 26.1.8-1.4-.4-20.5-3.1-49.3l-.8-9.3-5.7-6.5c-3.2-3.6-6.4-6.5-7.1-6.5-.8 0-1.9-.9-2.5-2-.8-1.5-.8-2 .1-2 .6 0 4.6-2.1 8.8-4.7 4.2-2.5 8.1-4.6 8.7-4.6s3.9 1.9 7.2 4.3c5.3 3.7 6.1 4.6 5.6 6.6-.4 1.4-.1 3 .4 3.7.8.9.7 2.1-.4 4.3-1.8 3.3-1.1 13.1 1.1 17.4 1.7 3.2 38.7 40 40.3 40 1.9 0 1.4-3.3-2.4-16.3-2-6.7-4.9-17-6.5-22.8-1.6-5.9-3.1-11.4-3.5-12.2-.5-1.4 0-1.3 4.1.2 4.7 1.8 7.5 5.3 7.5 9.3 0 1.1 1.7 4.3 3.8 7.1l3.7 5.2.3-14c.1-7.6.1-14.4-.2-15-.2-.7-4.5-2.6-9.5-4.3-12.4-4.4-25.3-10.7-40.1-19.6-6.9-4.2-13.3-7.6-14.3-7.6-.9 0-3.4 1.1-5.5 2.3-2 1.3-9.1 5.2-15.8 8.5-6.6 3.4-17.2 9.4-23.5 13.4-13.5 8.4-22.4 13-29.8 15.2-7.7 2.3-8.1 2.2-8.1-2.2l.1-3.7 1.5 2.5c1.4 2.4 1.5 2.1.9-4-.3-3.6-1.3-11.1-2.1-16.7-1.1-7.5-1.2-10.8-.4-12.3.7-1.4.8-2.6 0-3.9-1.8-3.5-1.1-7.2 2.5-12.1 7.5-10.2 10.3-21.1 8.6-33.4-2.2-15.8-7.5-21.3-19.5-20.4-7 .6-15.4 3.9-18.7 7.4-3.2 3.5-4.2 3-3.6-1.7.6-4.9-2.3-16.3-6-23.1-3.3-6-9.9-13-16.1-16.9-6-3.8-12.8-5.9-37.3-11.4-22.1-5-30.1-5.5-38.6-2.5M333 113.6c0 4.2-.7 13-1.6 19.7-1.5 11.4-1.4 21.7.2 29l.7 2.8-5.1-.7-5.1-.6-2.6 4.3c-1.5 2.4-4.9 8.2-7.7 12.7l-5 8.4-3.7-3.5c-5.2-5-11.1-8.4-21.5-12.4-11.9-4.5-11.9-4.6-10.5-11.4.6-3 1.3-6.5 1.5-7.8 1-4.8 1.3-1.2.6 5.3-.9 7.3-.1 9.3 1.8 4.6 1.3-3.2 3.9-5.7 2.7-2.7-1.3 3.5.4 1.5 3.5-4l3.2-5.6 1.3 5.9c.7 3.2 1.5 7.8 1.9 10.2.9 5.5 2.3 3.6 2.5-3.3 0-2.8.4-6.1.8-7.5s.6 1.9.3 7.2c-.3 5.4-.2 9.8.1 9.8s1.1-3.3 1.7-7.3c1.2-7.3 2.9-12.1 3-8.5 0 2.6 1.7 2.2 2.5-.5.3-1.2 1.1-3.5 1.7-5l1.1-2.9 1.2 2.3c1.2 2.2 1.3 2.2 3.5-2.1l2.2-4.3 2.7 4.8 2.6 4.8.3-8.2c.2-7 .5-8.2 1.8-7.7.9.3 3.4.9 5.7 1.3l4.2.6-3.8-3.5c-3.2-3.1-3.7-4.1-3.7-8 0-3.7 1-5.9 6.6-14.6 3.7-5.6 7.1-9.9 7.5-9.6.5.3.9 3.9.9 8m-96.6 17c1 2.5-.1 2.9-1.4.5-.6-1.2-.7-2.1-.1-2.1.5 0 1.2.7 1.5 1.6m6 2.9c4.4 3.3 15.7 8.4 19.5 8.7 1.6.1 2.7.6 2.5 1-.9 1.4-8 .9-14.2-1.1-7.8-2.4-12.2-5.5-12.2-8.7 0-3 .4-3 4.4.1m26.6 21.7c0 .7-.4 1.9-.9 2.7-1.1 1.7-2.5-.3-1.7-2.4.7-1.8 2.6-2 2.6-.3m63.8 24.9c1.1 1.7 1.1 2.4-.1 3.7-1.9 2.3-5 15.5-4.5 19.2.3 1.7.3 3 .2 3-.2 0-2.6-2-5.4-4.5s-5.5-4.5-6-4.5c-.6 0-1-.5-1-1.1 0-1.2 13.9-17.9 14.9-17.9.3 0 1.2.9 1.9 2.1m-150.7 7.1c2.4 2.9 5.4 6.4 6.6 7.9l2.2 2.6-5.6 5.4c-3.1 3-5.3 4.9-5 4.3.8-1.3-4.1-17.5-5.8-19.3-1.1-1.2-1.1-1.8.3-3.7.9-1.3 2-2.4 2.3-2.4s2.6 2.4 5 5.2m-4.7 40.3c1.9 1.4 1.9 1.6-1.1 5.2-1.6 2.1-3.7 3.9-4.6 4.1-1.7.3-1.6-.2 1.8-9.6.6-1.6 1.5-1.5 3.9.3M470 350c0 .5-.4 1-.9 1-.6 0-1.3-.5-1.6-1-.3-.6.1-1 .9-1 .9 0 1.6.4 1.6 1"/><path d="M240 134.4c0 .2.8 1 1.8 1.7 1.5 1.3 1.6 1.2.3-.4s-2.1-2.1-2.1-1.3m7.5 5.6c.3.5 1.4 1 2.3 1 1.5 0 1.5-.2.2-1-2-1.3-3.3-1.3-2.5 0"/></svg>