<svg xmlns="http://www.w3.org/2000/svg" width="682.667" height="512" version="1.0" viewBox="0 0 512 384"><path d="M228.9 2.8c-5.4 3.5-9.9 8-14 13.9-6.8 9.9-12.6 27-11.6 34.3.5 3.9.3 4.3-3.6 7.1-7.2 5.2-10.3 6.3-13.7 4.9-3.8-1.6-6 0-6 4 0 1.9-1 3.7-3 5.3-1.6 1.4-3 3-3 3.5 0 1.2 11.7 15.7 15.4 19.2 2.4 2.1 2.9 2.3 4.8 1.1 1.7-1.1 2.3-1 3.6.3 1.4 1.4 1.4 1.9-.2 5.5-1.1 2.2-3.7 5.2-6.2 7-6.6 4.8-6.6 5.5.1 4.7l5.7-.6-.6 3.5c-.3 1.9-.9 5.2-1.2 7.2l-.5 3.8 3-3.3c3.5-3.7 4.1-3.9 4.1-1.5 0 .9.8 4.4 1.7 7.7l1.7 6 1.2-3.5 1.1-3.4.8 5.8c.7 5.4 2.4 8.9 2.6 5 0-1 .7 0 1.6 2.1 1.4 3.4 1.8 3.7 2.4 2 .7-1.7.8-1.7.8.3.1 1.6.6 2.1 1.6 1.7.9-.4 1.5 0 1.5 1 0 .9.5 1.6 1 1.6.6 0 1-2.4 1-5.3 0-6.5 1.9-4.5 2.1 2.3v4.5l1.9-4 1.8-4 .4 8 .3 8 2.3-4.8c2-4 2.6-4.6 4.2-3.7 1 .5 2.1 1.5 2.4 2.2s.4-.4.1-2.5c-.4-2.2-.2-3.7.5-3.7.5 0 1 2.1 1 4.8 0 4.6-.1 4.8-2.7 4.7-2 0-2.7.4-2.4 1.5.2.8.5 3.1.8 5.2.6 4.3.5 4.4-12.4 8.9-11.3 4-15.5 6.2-20.4 10.6-2.2 2-4.1 3.4-4.3 3.2s-3.1-4.7-6.4-9.9l-6-9.5h-4.8c-2.7 0-10.3.6-16.9 1.3-24 2.5-35.6-.4-61.2-15.4-7.8-4.6-31.5-16.4-32.9-16.4-.2 0-2.2-1.1-4.4-2.5-4.9-3.1-8.7-3.2-13.1-.2-15.8 10.6-32.8 19.9-44.4 24.2l-6 2.3-.2 16.8-.2 16.9 2-5c1.2-3 1.8-6.3 1.5-8.2-.3-1.8 0-3.5.5-3.9.6-.3 1.4-1.6 1.9-2.9.6-1.6 2.5-2.8 6.2-4 2.9-1 6.5-2.4 8.1-3.2 1.5-.7 2.7-1.1 2.7-.8s-1.6 2.9-3.5 5.8l-3.5 5.2V204c0 15.7.4 29.1.9 29.9.8 1.2 1.3 1.2 2.4.3.8-.7 7.3-12.8 14.5-27l13.1-25.8-1-7.9c-.7-5.7-1.6-8.6-3-10.2-1.7-1.7-1.9-2.5-1-4.2.6-1.1.9-3.1.6-4.4-.5-2 .1-3 3.2-5.4 8.7-6.8 8.3-6.7 14.6-3 3.1 1.9 7 4 8.7 4.7q6 2.55-.3 8.4c-1.8 1.7-4.6 6.1-6.2 9.9l-2.8 6.8 3.8 26.7c4.2 29.4 4.6 31.4 6.2 31.9 1.3.5 2.3-2.1 12.8-33l7.8-22.9-1.7-7.3c-1-4.1-2.6-8.5-3.7-9.9-2-2.6-2.5-5.1-1.1-6 2.1-1.3 14.6 4.7 23.2 11.2 5.2 3.9 7 8.6 4 10.2-3.3 1.8-4.7 3.8-7.8 11.2l-3 7.3 5.3 28.7c2.9 15.8 5.6 29.2 6 29.8q1.65 2.55 3.3-1.8c2.1-5.1 16.2-52.9 16.2-54.7 0-3.4-4.3-16-6.1-18.1-1.1-1.1-1.9-2.4-1.9-2.8 0-1.5 35.7-.1 37.5 1.4 2.2 1.9 1.9 3.4-1.4 5.3-2.1 1.2-3.7 3.8-6 9.4-1.7 4.3-3.1 9.1-3.1 10.6 0 2.9 12.2 52 14.2 57 1.7 4.3 3.5 1.6 5.6-8.3 1.3-5.8 2.3-8.5 3.3-8.5 2 0 1.9.5-2.8 14.5-4.6 13.4-8.5 28.5-10.3 39.2l-1.2 6.7-8.6 4.9c-4.8 2.7-16.8 10.3-26.7 16.9s-19.5 12.8-21.3 13.7l-3.4 1.7-5.3-5.8c-2.9-3.2-6.4-6.5-7.9-7.3-1.5-.7-4.3-3.6-6.2-6.3-6-8.3-17.4-11.4-19-5.1-.7 2.9 1.3 5.6 5.7 7.4 3.4 1.4 3.3 1.3 1.4 5-1.9 3.6-3.1 4-13.5 3.8-5.7-.1-10.6.5-14.8 1.7l-6.3 1.8-4-3.9c-3.1-3.1-3.9-4.5-3.9-7.5 0-6.4-5.6-8.2-7.4-2.4-.5 1.7-2 5.3-3.3 8.2-2.6 5.9-2.4 6.8 2.7 13.8 2 2.7 4.6 7 5.7 9.5s3.3 5.8 4.9 7.3c2.6 2.7 3.2 2.8 8.1 2.2 5-.6 5.3-.5 6.2 1.9 1.8 4.7 4.2 4.9 11.6 1.2l6.6-3.3 5.7 2.3c7.6 3 34.6 8.6 38 7.8 3.9-.9 15.8-7 37-19.1 28.7-16.3 35.8-21.7 40.7-31.3 2.6-5.1 11.1-27.8 14.6-38.8 1.5-4.6 2.6-6.7 3.1-5.9.9 1.8 1.4 40.7.7 57.2-.6 12.3-.8 13.4-4.1 20-3.5 6.9-9.9 21.8-11.2 26.2l-.7 2.3h72c39.7 0 72.1-.2 72.1-.5 0-1.3-5.5-14.5-10.9-26-6.3-13.5-6.9-15.3-5-17.2 1.1-1.1.4-10-2-25.4-.4-2.5-.4-7.7.2-11.5.5-3.8.9-8.9.8-11.3 0-2.4.1-4.2.3-4s2.5 6.2 5.1 13.4c8.3 22.9 12.9 29.8 24.9 37.3 7 4.5 35.5 20.1 53.1 29.2l12 6.2 13-.6c12.8-.5 21.9-2.1 30.1-5.2 4.1-1.6 4.2-1.5 11.4 2.1 8.7 4.4 11.2 4 12.7-2.2.8-3.6 1.1-3.8 4.2-3.5 1.8.2 4.4.1 5.7-.2 3.2-.8 7.4-8.3 7.4-13.2 0-2.8 1-5.4 3.5-9.1 3.9-5.9 4.4-9.3 1.6-13.1-1-1.5-2.2-4.3-2.6-6.2s-1.3-4.5-2.1-5.7c-3-4.7-7.9-1.5-7.2 4.6.2 2.1-.7 3.9-3.5 7L477 333l-5.2-1.1c-2.9-.7-9.1-.9-13.9-.7-10.9.7-14.2-.5-15.9-5.8-1.1-3.4-1.1-3.9.5-4.9 4.1-2.4 6.5-4.8 6.5-6.4 0-4.4-5.6-5.4-12-2.1-2.6 1.3-4.8 3.6-7 7.5-1.7 3-5.1 7.2-7.5 9.1-2.3 2-5.2 5.4-6.4 7.5s-2.8 3.9-3.4 3.9c-1.6 0-15-7.7-35.2-20.2-9.3-5.8-19.8-11.9-23.2-13.6-6.8-3.5-6.5-3-8.8-15.5-1.8-10.1-7.1-28.7-11.3-39.9l-2.9-7.6 2.5-1.1c1.3-.7 2.6-1 2.7-.9.1.2 1 3.9 2 8.3 2.2 10.1 3.2 12.2 5 10.4.7-.8 4.5-14.4 8.5-30.4 6.9-27.6 7.2-29.2 6-33.7-1-4.1-.9-5.3.6-8.8 1-2.2 2.1-4 2.6-4 .4 0 .8-.7.8-1.5 0-2.6 3.1-9.3 4.6-9.9.8-.3 5.5-.9 10.4-1.2 7.9-.6 9-.5 9 1 0 .9-.4 1.6-.9 1.6-1 0-2.4 3.3-4.9 12l-1.8 6.5 9.8 29.4c5.4 16.2 10.2 29.9 10.7 30.4 1.9 1.9 3.1-3.5 7.2-32.7l4.3-29.7-4-8c-2.4-5-4.9-8.7-6.5-9.6-4.5-2.7-3.3-6.5 3.7-12 5.7-4.4 18.5-11.3 21.2-11.3 2 0 2.6 2.9.9 4.8-1.8 1.9-4.7 12.6-4.7 16.9 0 2.9 20.2 55.6 22.2 58.1.7.8 1.5.9 2.1.3.9-.9 5.6-48.4 5.7-57.8 0-4-.7-6.4-3.5-11.5-2-3.4-4.6-7.2-5.9-8.3s-2.9-3-3.5-4.2c-.9-1.9-.8-2.3 1.2-2.8 1.2-.4 5.5-2.7 9.4-5.2l7.3-4.4 6.9 4.6c6.6 4.5 6.9 4.8 6.4 8-.3 1.9-.1 3.5.6 3.9.8.5.6 1.6-.8 3.4-1.2 1.8-2.1 5.4-2.6 10.5l-.7 7.7 16.2 26c8.9 14.3 16.6 26.3 17.1 26.5 2.4 1.6 2.5-4.5.3-29-1.3-14.3-2.3-27.2-2.4-28.7 0-1.8-1.4-4.3-3.7-6.9-3.5-3.9-3.6-4.1-1.3-3.4 1.4.4 3.6 1.3 5 2s4.3 1.8 6.5 2.4c3.2.9 4.3 1.9 5.8 5.1 1 2.2 1.6 4.4 1.2 5-.3.5-.1 1.8.4 2.7.8 1.3 1-1.7 1.1-10.8v-12.6l-11.2-4.8c-11.5-4.8-24.2-11.5-35.8-18.9-11.9-7.6-9.4-7.8-30.7 3.3-10.3 5.3-23.6 12.7-29.5 16.4-6 3.7-12.9 7.7-15.5 9.1-5.6 2.8-19 7.2-19.8 6.5-.2-.3-.1-2.5.4-5 .5-2.4.9-3.6 1-2.7s.6 2 1.2 2.4c.8.5.9-.9.4-4.7-.7-6-4.1-26.7-5-31.4-.6-2.8-.4-3.1 2.7-4 2.9-.9 3.3-1.4 3-4-1.4-13.2-1.3-16.7.4-20.3 3-6.1 4.2-17.5 2.8-26.2-2.4-15-6.8-19.7-17.3-18.7-6.1.5-14.4 4.1-17.5 7.6-3.1 3.4-4.6 2.7-4.6-2.2 0-14.2-8.7-29.7-21.3-37.8-8-5.2-14-7.3-32.6-11.4C268.5.3 266.1 0 250.4 0c-16.9 0-17 0-21.5 2.8M336 107.3c0 4-.7 12.1-1.5 18.2-1.7 12.5-1.9 28.5-.6 33.3l1 3.2h-5.3c-6.2 0-6.7.4-12.2 10.8-2.1 4.1-5.1 8.8-6.5 10.5l-2.6 3.1-3.6-3.6c-4.6-4.6-14-9.8-23.9-13.3-4.3-1.5-8.3-3.3-8.9-4.1-.8-.9-.5-3.3.9-9.1l2-7.8-.1 6.7c-.1 7.5.7 9.4 2.3 5.4.5-1.4 1.5-2.5 2.2-2.4.6.2 2.6-2.2 4.2-5.2l3-5.5.8 5.5c.5 3 1.3 5.9 1.8 6.4.6.6 1 2.5 1 4.4 0 5.2 2 2.8 2.1-2.6.1-2.6.5-5.8 1-7.2.5-1.6.6.2.3 5.1-.6 8.8 1 11.7 2 3.6.4-2.8 1-6.3 1.3-7.5.5-2.3.6-2.2 2.2 1l1.6 3.3.5-4.5c.3-2.5 1.2-5.6 2-7l1.5-2.5.3 2.2c.5 3.3 1.5 2.8 4.1-1.8l2.4-4.1 2.6 4.1c1.4 2.2 2.9 4.1 3.2 4.1s.4-3.6.1-7.9l-.5-8 5.9.6c5.8.5 5.9.5 3.4-1.2-6.6-4.7-6.8-9.6-.7-19.2 2.4-3.8 5.4-8.7 6.7-11s2.7-4 3.2-3.7c.4.3.8 3.8.8 7.7m-100 18.2c0 .8.5 1.5 1.1 1.5.5 0 .7-.5.3-1.2-.4-.6.9.1 2.8 1.6 2 1.4 6.7 4.2 10.4 6.1 3.8 1.9 6.2 3.5 5.4 3.6s.5.5 3 .9l4.5.7-5.6.1c-4.6.2-6.9-.4-12.8-3.4-7-3.5-8.3-4.8-5.8-5.7.6-.3.3-.6-.9-.6-2.1-.1-5.4-5.1-3.4-5.1.6 0 1 .7 1 1.5m33.6 29c-.7.8-1.6 1.1-2 .8-1-1-.7-3.8.6-5.1 1-1 1.4-.8 2 .9.5 1.3.3 2.5-.6 3.4m65.8 23.8c.7 1.1.6 2.1-.5 3.4-.9 1-3 5.5-4.8 10l-3.3 8.2-4.3-3.2c-3.4-2.6-4-3.5-3.1-4.7 4.7-6.4 13.2-16 14-15.7.5.2 1.4 1.1 2 2m-152.3 9.6 6.2 7.3-4 4-4.1 4-3.2-8.6c-1.8-4.7-3.8-9-4.5-9.6-1.7-1.4.4-6.2 2.2-5.2.7.4 4 4 7.4 8.1m172.6-1.2c-.3 1-.5.2-.5-1.7s.2-2.7.5-1.8c.2 1 .2 2.6 0 3.5m-22.2 40.4c.4 1.7.5 3.2.2 3.5-.8.8-3.8-4.6-3.2-5.6 1.1-1.8 2.3-1 3 2.1m-156.5.3c0 .3-.4.8-1 1.1-.5.3-1 .1-1-.4 0-.6.5-1.1 1-1.1.6 0 1 .2 1 .4M479 352c0 .5-.9 1-1.9 1-1.1 0-2.3-.5-2.6-1-.4-.6.5-1 1.9-1s2.6.4 2.6 1"/><path d="M242.4 131.9c.7 1.1 4.6 3.5 4.6 2.8 0-.3-1.2-1.2-2.6-2.2-1.5-.9-2.3-1.2-2-.6m9.4 4.8c.7.3 1.6.2 1.9-.1.4-.3-.2-.6-1.3-.5-1.1 0-1.4.3-.6.6"/></svg>