<svg xmlns="http://www.w3.org/2000/svg" width="682.667" height="512" version="1.0" viewBox="0 0 512 384"><path d="M221.6 6.3c-3.3 3.5-7.6 8.9-9.5 12-5.1 8.6-9.1 21.1-9.1 28.4 0 6.2 0 6.3-4.2 9.4-7.4 5.4-9.4 6.1-13.5 5-4.4-1.3-6.3-.1-6.3 3.9 0 1.9-1 3.7-3 5.3-1.6 1.4-3 3-3 3.5 0 1.3 15.6 19.9 17.7 21 1.3.8 2.3.6 3.6-.6 1.8-1.6 2-1.6 3.3.3.8 1 1.4 2.1 1.4 2.4 0 2-4.7 7.6-9.2 11.2l-5.3 4.2 6.3-.5c7-.5 6.8-.8 4.8 7.5-.7 3.1-1 5.9-.6 6.2.4.2 1.7-.9 2.9-2.6 2.7-3.6 3.7-3.1 4.6 2.4.4 2.3 1.2 5.3 1.7 6.7l1 2.5 1-2.5c1-2.4 1.1-2.3 1.9 2 1.3 6.7 1.9 7.9 2.9 5.5.5-1.1.9-1.5.9-.8.1.6.6 2.4 1.2 4 1 2.6 1.2 2.7 1.9.8.7-1.7.9-1.6 1 1 .2 1.8.4 2.3.7 1.2.6-2.3 2.3-1.2 2.3 1.5 0 4.2 1.5.5 2.1-5l.5-5.7.9 6.5.8 6.5 1.8-4 1.7-4 .4 8 .3 8 2.2-4.8c2.3-4.8 3.7-5.4 6.1-2.7 1.1 1.3 1.2 1 .7-1.8-.4-2-.3-3.2.4-3.2.6 0 1.1 1.9 1.1 4.5 0 4.2-.2 4.5-2.6 4.5-2.6 0-2.6.1-2 5.3.8 6.4.7 6.6-8.9 9.7-11.3 3.7-19.7 7.8-23.8 11.8l-3.8 3.7-2-2.5c-1.1-1.4-3.8-5.5-6-9.2-5.8-9.6-5.4-9.4-16.7-8-5.3.7-15.6 1.2-22.7 1.2-19.4 0-25.1-1.8-49.5-15.9-6.3-3.7-17.7-9.5-25.3-13-7.5-3.6-14.2-7-14.8-7.8-2.3-2.7-6.3-1.2-18.7 6.8C28 144.7 15.4 151.4 5.8 155L0 157.1l.1 16.7c.1 16.5.1 16.7 1.6 11.7 1.2-3.7 1.3-5.7.5-7.7-.7-1.8-.7-3 0-3.4.5-.3 1.3-1.6 1.8-2.9.6-1.6 2.5-2.8 6.2-4 2.9-1 6.6-2.4 8.1-3.2 1.6-.8 3.1-1.2 3.4-1 .2.3-1 2.9-2.8 5.8l-3.3 5.2 1.7 28.7c.9 15.8 1.9 29.5 2.3 30.4 1.5 3.9 2.2 2.6 14-24.2 5.3-11.9 10.3-23.2 11.2-25.1 2.3-5 .3-18.3-3.4-22.2-1.7-1.8-2.2-2.9-1.4-3.4.6-.4 1-2.3.8-4.3-.3-3.4 0-3.8 6.1-8.1l6.4-4.5 3.6 2.2c2 1.2 5.9 3.4 8.8 4.9 4.7 2.4 5.2 3 4.6 5.2-.3 1.4-1.6 3.5-2.9 4.6-3.1 2.6-8.7 16-8.1 19.4 2.8 16.5 10.1 53 10.9 54.5 1.8 3.3 3.3 0 8.7-18.4 2.9-9.6 6.6-21.8 8.2-27.1l3.1-9.6-2.6-8.7c-1.5-4.8-3.3-8.9-4.1-9.3-1.7-.6-2-3.9-.6-4.8 1.7-1 12.3 3.7 19.9 8.9 6.6 4.5 7.7 5.7 7.9 8.5.2 2.4-.4 3.8-2.6 5.9-2.9 2.7-8.1 14.1-8.1 17.8 0 3.6 12 56.8 13.1 57.9 1.8 1.8 1.9 1.6 13.4-40.2l4.7-17.2-2.7-8.2c-1.5-4.5-3.6-9-4.6-10-1.1-1.1-1.9-2.1-1.9-2.4 0-.7 27.6-.4 33.5.3 6.2.9 6.8 2.7 2.2 7.3-2.1 2.1-4.3 6.3-6.1 11.1l-2.8 7.8 7.6 27.2c8.5 30.6 9.1 32.2 11 31.5.9-.4.8.9-.6 5-1.6 5.1-4.7 17.5-8 32.8-1.3 5.9-1.3 6-7.8 9.5-3.6 2-13.9 8.5-23 14.5-21.8 14.3-28.7 18.5-30.5 18.5-.7 0-3.3-2.3-5.6-5-2.4-2.8-5.7-6-7.5-7.1s-4.9-4.2-6.8-6.8c-4-5.4-9.6-8.4-14.6-7.9-6.5.6-6.6 5.2-.2 9.3 3.5 2.2 3.9 4 1.7 7.1-1.2 1.9-2.8 2.2-12.7 2.7-6.2.3-13.5 1.2-16.3 2.1l-5 1.5-3.7-3.6c-2.8-2.8-3.8-4.5-3.8-6.9 0-1.7-.8-4.2-1.8-5.4-2.8-3.4-5.7-1.3-7.6 5.4-.9 3-2.1 5.8-2.6 6.1-2.3 1.4-1 7.3 2.8 12.2 2.1 2.6 5.2 7.8 6.9 11.4 3.9 7.9 6.4 9.6 12.5 8.3 4.2-.9 4.3-.9 5.8 2.1 2.1 4.1 5.5 4.3 12.6.7l5.7-2.9 5.1 2c8.4 3.1 29.7 7.7 36.3 7.7 5.6 0 7.3-.5 16.5-5.4 13.3-6.9 42.7-23.8 49.9-28.7 12.7-8.6 16.3-14.6 26.8-45.5 5.8-16.7 6.9-19.4 7.5-16.9 1.1 5.3.9 46.7-.3 54.4-.7 4.4-.8 7.7-.2 8 1.8 1.2-.8 9.9-7.2 24.2-3.6 8-6.9 15.7-7.2 17.2l-.7 2.7h72.1c45.5 0 72.1-.4 72.1-1 0-1.5-3.4-9.7-10.4-25.3-6.6-14.5-7.7-17.9-5.3-17.4 1.5.3 1.4-1.1-.6-17.8-1.3-10.1-1.4-15-.7-21.5.5-4.7 1-9.4 1-10.5.1-1.1 2.5 4.3 5.4 12s5.9 15.6 6.8 17.5c2.5 5.7 9.4 13.7 15.5 17.8 6.7 4.5 31 18 53.3 29.5l15.4 8 13.1-.6c12.3-.6 25.7-3 31.8-5.8 2.3-1.1 3.4-.8 9.6 2.5 3.8 2 7.5 3.6 8.3 3.6 2.1 0 4.7-3.2 5.4-6.7.6-2.9.7-3 5-2.5 3.4.4 4.9 0 6.5-1.4 3.2-2.9 6.1-9.2 5.8-12.7-.2-2.3.9-5 3.8-9.6 4.5-6.9 4.5-8.5.3-13.9-1.1-1.3-2-3.6-2-4.9 0-3.5-2.8-8.3-4.8-8.3-2.9 0-4.2 2.1-4.2 6.5 0 3.4-.6 4.7-3.9 7.9l-3.8 3.7-7.4-.9c-4.1-.6-10.7-.8-14.6-.5-5.7.4-7.8.2-9.7-1-2.7-1.8-5.6-8.9-3.8-9.5 5.9-1.9 8.5-9.6 3.7-10.8-5.6-1.4-12.1 2.4-15.5 9.1-1.4 2.7-5.1 7.3-8.2 10.3s-6.2 6.7-6.8 8.3c-.7 1.6-1.7 2.9-2.3 2.9-1.5 0-11.7-5.9-32.5-18.7-10.2-6.3-21.7-13.1-25.6-15.1s-7.4-4.1-7.7-4.6c-.4-.4-1.2-4.3-1.8-8.5-1.6-9.7-4-18.9-9.9-36.9-3.9-12.1-4.4-14.4-3.2-15.2 1.8-1.1 2.4.3 4 9.1.6 3.5 1.8 7.1 2.5 8.2 1.3 1.9 1.3 1.9 2.4-.1.6-1.1 4.7-15.1 9-31.1 7.1-25.9 7.8-29.4 6.9-32.5-.9-3-.8-4.3.8-7.6 1-2.2 2.2-4 2.7-4 .4 0 .7-.8.7-1.8s1.2-4.1 2.6-7l2.6-5.2h20.1l-2.1 2.3c-1.2 1.2-3.3 5.8-4.8 10.1l-2.6 7.9 5.7 19.1c9.9 33.3 12.6 41.5 13.5 42.1 1.8 1.1 2.9-3.6 8-33.2l5.1-29.3-2.8-6.6c-1.5-3.6-4.4-8.4-6.4-10.6-4.8-5.3-4.2-7.6 3-13.3 6.1-4.9 18.3-11.5 21.2-11.5 2.3 0 2.4 2.2.5 5.3-.8 1.2-2.4 5.7-3.6 9.9l-2.1 7.7 9.5 27.3c11.4 32.9 10.5 30.8 12.1 30.8.8 0 1.6-.8 1.9-1.8.7-2.3 7.6-55.5 7.6-58.6 0-3.5-6.7-16.2-9.5-18-3.7-2.4-3.9-5.5-.3-7.4 1.7-1 5.7-3.4 9-5.5l6-3.8 7.2 4.7 7.1 4.6v4.7c0 2.6-.8 5.7-1.7 7.1-1 1.5-1.9 5.7-2.3 10.5l-.6 8 10.9 20c6 11 12.5 22.9 14.4 26.5 6.1 11.5 6.3 10.5 6-24l-.4-30.4-3.5-4.8c-1.9-2.6-3.3-4.8-3-4.8s4.4 1.5 9.3 3.4c6 2.3 9.1 4.1 10 5.7 1.2 2.1 1.3 1.4 1.4-6.6v-9l-7.3-2.9c-10.1-4-25.3-12.1-37.6-19.9-5.8-3.7-11.2-6.7-12.1-6.7-.8 0-3.1 1.1-5 2.4s-9.8 5.4-17.5 9.3c-7.7 3.8-19.5 10.4-26.3 14.6-6.8 4.3-14.7 8.8-17.6 10.1-7.5 3.3-16.7 5.9-17.6 4.9-.4-.4-.5-2.6-.2-4.7.5-3.9.5-3.9 1.9-1.5 1.3 2.2 1.4 1.8.8-4.1-.3-3.6-1.5-11.9-2.7-18.5-2.7-15.8-2.7-15.9-.1-16.3 3.6-.5 4.6-2.5 3.4-6.9-1.8-6.4-1.3-13.9 1.1-18.6 1.8-3.4 2.3-6.3 2.6-15.5.4-9.7.1-12.3-1.8-18.2-1.8-5.7-2.9-7.4-5.7-9.1-6.7-4.2-20.4-1.3-28.5 5.9l-2.7 2.5-.5-2.4c-.2-1.3-.9-5.3-1.5-8.9-1.5-8.9-6.8-19.4-13.3-25.8-6.9-7-17.8-12.2-32.6-15.6C280.6.2 278.4 0 253.9 0h-26.1zM335 125.5c-.7 7.7-1.1 18.9-.8 24.8l.5 10.7H330c-5.5 0-6 .5-12 11-2.3 4.1-5.4 9-6.7 10.8l-2.5 3.3-5.2-4.9c-5.7-5.4-11-8.4-22.6-12.7-10.6-3.9-10.4-3.6-8-13 1.1-4.3 2.1-8 2.3-8.1.2-.2.1 2.5-.1 6-.2 3.4-.2 7.1.1 8.2.3 1.5.7 1.3 1.7-1.4.6-1.7 1.6-3.2 2.2-3.2.5 0 .6.6.2 1.2-.4.7-.3 1 .1.5.5-.4 2.3-3.3 4.1-6.4 3.5-6.2 3.2-6.4 4.8 1.7.2 1.4 1.1 5 1.9 8l1.4 5.5.9-8 .9-8 .5 8c.5 7.4.6 7.7 1.4 4 .4-2.2 1.3-5.8 1.8-8l1.1-4 .9 2.7c1.3 3.9 2.8 3.5 2.8-.7 0-3.6 1.8-8.5 3.1-8.5.4 0 .9 1 1.1 2.2.3 2 .6 1.8 2.8-1.9 1.4-2.4 2.7-4.3 3-4.3s1.6 1.9 3 4.3l2.5 4.2.3-8.7.3-8.6 3.5 1c1.9.5 4.5.8 5.6.6 1.9-.3 1.8-.6-1.5-2.8-3.3-2.3-3.7-2.9-3.7-7.1 0-3.6.8-5.8 3.8-10.5 2.1-3.2 5.1-8.2 6.7-10.9l3-5 .3 7c.2 3.8-.2 13.3-.8 21m-97.1-.5c.7 0 2.8 1.2 4.6 2.6 1.9 1.4 6.1 3.7 9.2 5.1l5.8 2.4-4.5-.5c-3.7-.4-3.9-.3-1.5.4 1.7.5 5 1.3 7.5 1.9l4.5 1-6-.3c-6-.3-12.5-2.7-17.5-6.6-3.7-2.8-1.6-3.6 2.2-.7 3.7 2.7 6.9 4.6 5.3 3-2.4-2.2-8.2-6.1-10.1-6.7-1.2-.4-2.4-1.7-2.7-2.9-.6-2-.5-2 .7-.5.7 1 1.9 1.8 2.5 1.8m33.1 25.6c0 .9-.7 2.2-1.5 3-1.3 1.4-1.6 1.4-2.1.1-.7-1.9 1.4-6 2.7-5.2.5.4.9 1.3.9 2.1m65 26.3c.8 1.6.5 2.7-1.3 5.3-1.2 1.9-3.3 6.2-4.7 9.6s-2.9 6.2-3.5 6.2-2.6-1.3-4.5-2.8l-3.4-2.9 4-4.4c2.2-2.4 5.5-6.3 7.3-8.7 3.7-4.7 4.6-5.1 6.1-2.3m-154.3 9 7.2 7.8-3.9 3.8-4 3.9-2-4.7c-1.1-2.6-2.9-6.7-3.9-9.2-1.1-2.5-2.4-4.5-2.9-4.5-.6 0-.5-1 .1-2.5.7-1.4 1.5-2.5 1.8-2.5s3.7 3.5 7.6 7.9m175 2.3c-.3.7-.5.2-.5-1.2s.2-1.9.5-1.3c.2.7.2 1.9 0 2.5m-23.3 39.7c-.9 1-2.6-1.8-1.8-3 .5-.9.9-.8 1.4.7.4 1 .6 2.1.4 2.3m-159.8 17.6c-1 3.8-2.6 7.8-3 7.4-.8-.7 1.7-9.9 2.7-9.9.5 0 .6 1.1.3 2.5M482 353c0 1.3-3 1.3-5 0-1.1-.7-.7-1 1.8-1 1.7 0 3.2.4 3.2 1"/></svg>