<svg xmlns="http://www.w3.org/2000/svg" width="682.667" height="512" version="1.0" viewBox="0 0 512 384"><path d="M213.2 1.2c-1.9 2.4-7.1 13.5-9.1 19.4-1 3.2-2.3 9.3-2.6 13.4-.4 4.1-1.2 8.1-1.8 8.8-.5.7-3.7 2.8-7.1 4.7-5.3 2.9-6.7 3.3-11 2.8-5.3-.6-6.6.3-6.6 4.9 0 1.7-1.1 3.5-3 5.1-1.6 1.4-3 2.8-3 3.1 0 1.2 16.2 20.7 18.5 22.2 2.4 1.6 2.7 1.6 4.5-.1 2-1.8 2.1-1.8 3.5.1 1.8 2.4 1.8 2.4-.1 6.3-.9 1.8-4.1 5.2-7 7.4-6.3 4.9-5.8 6.4 1.6 5 5-1 5.1-1 4.7 1.1-.3 1.1-.8 4.8-1.2 8.1l-.7 6 2.6-3c1.4-1.7 2.5-3.4 2.6-3.8 0-.5.4-.6.9-.3s1.7 4 2.6 8.1c1.5 7 3.4 9.2 3.6 4.2.1-2 .1-2 .9.3.5 1.4 1.2 4.3 1.5 6.5.6 3.3.9 3.6 1.5 2 .7-1.8.9-1.8 1.9.8.6 1.6 1.1 3.2 1.1 3.7 0 .4.6 1 1.4 1.3 1 .4 1.8-.4 2.4-2.1 1-2.6 1-2.6 1.7 1.5 1 5.6 2.5 4.5 2.5-1.8 0-3.1.4-4.8 1-4.4.6.3 1 2.6 1 5.1 0 5.2 1.4 5.8 2.5 1.1l.8-3.2.8 4c.4 2.2.9 5.8.9 8l.2 4 2.1-4.8c1.3-3 2.6-4.6 3.4-4.2.7.3 1.9.7 2.6 1 1 .4 1.3-.3 1-2.7-.3-2.7-.1-2.9.6-1.3.5 1.1 1 3.7 1 5.8.1 3.5-.1 3.7-2.3 3.1-3.3-.8-3.8.7-2.4 6.1 1.5 5.5 1.7 5.4-9.7 9.1-12.6 4.2-19.9 7.9-24.8 12.3l-4.5 4.2-6.4-10.2c-3.4-5.6-7.1-10.7-8-11.3-1.2-.7-3.8-.6-9 .3-12.6 2.3-31.3 2.6-40.8.7-10.2-2.1-16.9-5.1-35.9-16-8-4.6-19.2-10.4-24.8-13-5.6-2.5-12.4-5.9-15.1-7.6-5.9-3.6-6.5-3.5-18.5 4.3-11.2 7.3-21.7 13.4-29.3 16.8L0 147v7.5c0 4.1.3 7.5.6 7.5s4.4-1.8 9.1-4 8.1-3.4 7.6-2.7c-.6.6-2.2 4.8-3.6 9.1l-2.7 7.9 5.6 17.1C30 230 29.7 229.3 31.7 226.8c1-1.2 8.4-35.5 10.6-49.5 1-5.8.8-6.7-1.9-13-1.5-3.8-3.9-7.9-5.3-9.2-1.7-1.8-2.4-3.7-2.5-6.5-.1-4.4-.1-4.5 8.1-10.2l5.3-3.7 3.8 2.5c2.1 1.4 6 3.7 8.8 5.1 4.2 2.1 4.9 2.9 4.8 5.3 0 1.6-1.1 4.1-2.4 5.5-2.8 3.1-7.2 18.6-6 20.9.4.8 4.9 12.5 9.9 26 5.1 13.5 9.8 25.1 10.6 25.9 1.1 1.2 1.5.8 2.4-2.5.6-2.2 2.4-12.9 4.1-23.9s3.5-22.3 4.1-25.2c1-4.9.9-5.4-3-13-2.1-4.4-4.6-8.5-5.5-9.2-2.7-2.3-2-4.4 1.2-3.6 5.1 1.2 13.4 5.5 19.7 10.1 7.7 5.7 8.9 9.3 4.6 13.6-1.8 1.7-3.5 5.5-5.1 10.9-2.7 9.6-3.4 6.2 7.9 38.9 7.4 21.3 10.1 27.3 11.6 25.9.9-1 10.5-53.3 10.5-57.5 0-3.4-6.6-17-9-18.7-2.1-1.4-1.7-1.6 6.1-1.9 8.4-.4 27.9.7 31.2 1.8 2.6.8 2.1 3.1-1.2 5.5-3.2 2.3-3.8 3.6-7.1 14.4l-2.1 7L152 215c6.6 17.9 11.6 31.8 13.2 36.5.8 2.4.3 5.2-2.5 14.5-3.2 10.6-6.4 24-8.4 35-.8 4.2-1.2 4.6-7.3 7.9-3.6 1.9-13.9 8.3-23 14.2s-20.6 13.3-25.6 16.4l-9.2 5.6-13.9-13.9c-12.3-12.3-14.4-14-18.8-15.1-4.6-1.2-5-1.1-7.3 1.2-2 2.1-2.2 2.8-1.3 4.6.7 1.1 2.9 3 5.1 4.1 3.9 2 3.9 2 2.6 5.1-.7 1.8-2 3.5-2.7 3.9-.8.4-6.6 1-12.9 1.3-6.3.4-13.7 1.3-16.3 2.1l-4.9 1.6-4.4-3.7c-3.6-3-4.4-4.3-4.4-7.1 0-4.7-1.6-7.2-4.6-7.2-3.9 0-5.4 4.9-5.4 17.3 0 9.1.2 10.6 2 12.2 1.1 1 2 2.4 2 3.2 0 2.3 4.7 10.7 7.4 13.2 2.3 2.1 3.1 2.3 8 1.7 5.2-.6 5.6-.5 6.8 2.1 2.4 4.9 4 5.1 11.8 1.3 6.7-3.2 7.2-3.3 11.3-2.1 10.2 3.1 22 5.9 32.2 7.5 10.9 1.8 11 1.8 16.5-.3 6.1-2.3 54-29.3 63.7-35.9 12.5-8.5 16.4-15 26.7-45.2 3.7-10.7 7.3-20.9 7.9-22.7 1-2.6 1.2 2.5 1 26.5 0 16.3-.6 32.2-1.1 35.2-.6 3-.6 6-.2 6.5 1.7 2.1.1 9.2-4 18-4.1 8.7-10 22.4-10 23.1 0 .2 33.3.4 74 .4s74-.1 74-.3c0-1-5.8-14.5-10.1-23.3-5.6-11.9-6.7-15.3-4.9-16.4 1-.6 1-3.3 0-13.1-.6-6.8-1.5-13.8-1.9-15.4-.4-1.7-.4-4.6.1-6.5.4-1.9.9-7.2 1-11.7.1-4.6.5-7.9.9-7.5.3.4 2.5 6.3 4.9 13.2 5.8 17.1 11 26.7 17.3 32.7 5.7 5.3 17.3 12.3 49.2 29.2 26.7 14.3 28.8 15.2 36.2 15.8 7.7.7 27.8-2.1 38-5.2l7.7-2.4 7.2 3.9c3.9 2.2 7.8 4 8.6 4 2.2 0 4.8-3.2 5.9-7.4 1-3.5 1-3.5 5.4-2.9 4.2.5 4.7.3 8-3.1 4.3-4.6 6.4-10.9 4.6-13.8-1.1-1.8-.9-2.4 1.3-4.7 2.4-2.5 2.6-3.5 2.6-10.8 0-4.5-.4-8.4-.9-8.7s-1.4-2.9-2.1-5.7c-.9-3.8-1.8-5.3-3.6-5.9-3.8-1.5-5.3-.2-6 5-.5 3.5-1.6 5.9-4.3 9l-3.7 4.3-6.9-1.2c-4.3-.8-10.1-1-15.1-.6-10.4.9-13.8-.6-15.5-6.7-.6-2.3-.7-4.4-.2-4.5 8.8-3 10-11.3 1.6-11.3-6.1 0-11 3.4-14.3 9.9-1.8 3.6-4.7 7.4-7.5 9.7-2.5 2-5.8 5.7-7.1 8.1-1.4 2.3-3 4.3-3.5 4.3-1.8 0-9.3-4.2-33.9-19-13.5-8.1-27-16-30-17.5s-5.6-2.8-5.8-3c-.1-.1-.9-4.2-1.8-9.1-1.8-10.5-5.5-25.6-8.3-33.5l-1.9-5.7 4.3-11.3c13.2-35.2 17.4-48.3 17-53.4-.3-3.3-.1-4.4.5-3.5.7 1.1 1 1.2 1 .2 0-.7.4-1.1.9-.7 1.4.8 3.8-3.7 7-13l2.8-8 4.4-.7c2.4-.3 6.6-.7 9.3-.7l4.9-.1-2.2 2.3c-1.2 1.3-3.7 6.1-5.7 10.7l-3.5 8.3 2 10.1c1.1 5.6 2.2 11.7 2.6 13.6 7.3 40.4 7.6 41.2 10.3 35.8 1.5-3.1 18.2-57 18.2-58.9 0-3.4-5.2-16.5-7.4-18.9-1.7-1.8-2.4-3.6-2.3-6.1.1-3.4.7-4.1 8.4-9.5 8.9-6.3 18.6-10.9 21.1-9.9 1.2.5 1.1 1-1 3.3-1.4 1.5-4 6.1-5.8 10.2l-3.3 7.4 2.8 15.6c1.5 8.5 3.6 20.7 4.6 27 2.4 13.8 3.7 19 4.8 19 1.2 0 3.9-7.3 13-35.3 5.6-17.2 7.8-25.3 7.2-26.5-.4-.9-1.6-4.8-2.6-8.5-1.2-4.3-2.6-7.5-4-8.5-1.2-1-2.4-3.2-2.7-4.9-.4-2.8-.1-3.3 4.1-5.3 2.5-1.2 6.5-3.5 8.9-5.1s4.8-2.9 5.3-2.9c.6 0 4.1 2.1 7.8 4.7 6.6 4.6 6.7 4.7 6.5 9.1-.1 2.9-.9 5.1-2.3 6.6-1.2 1.3-3.5 5.8-5.1 10.1l-2.9 7.7 6.4 24.6c3.5 13.6 6.7 26.4 7 28.4.4 2 1.5 4.4 2.4 5.2 1.6 1.5 1.9 1.4 2.8-.6.5-1.3 4.1-14.8 7.8-30.1l6.9-27.9-2.3-6.6c-1.3-3.7-3-7.7-3.7-9-1.8-2.8-1.5-2.8 4.7.3 2.8 1.5 6.1 3 7.5 3.5l2.4 1v-7.8l-.1-7.7-7.7-3.5c-4.2-1.9-14.3-7.6-22.3-12.6-8-5.1-15.5-9.4-16.6-9.8-2.3-.7-35 15.9-53.3 27.1-6.3 3.8-13.3 7.9-15.5 9.1-4.5 2.2-18.4 6.7-19 6-.3-.2-.2-2.2.2-4.3.6-3.7.7-3.7 1.6-1.4 2 5 1.7-.4-.8-17.2-1.4-9.6-2.8-18.8-3.1-20.5-.5-2.5-.2-3.2 2.1-4.2 2.3-1.1 2.6-1.7 2-4-1.6-6.6-1.8-15.3-.2-17 10.4-11.9 9.4-46.7-1.6-52.7-2.7-1.4-4.9-1.7-10.8-1.3-8.3.5-13.7 2.8-19.8 8.3-2.1 1.9-4 3.5-4.2 3.5s-.5-3-.6-6.6c-.3-11.7-5.1-22.9-13.9-32.3L322.8 0h-54.3c-42.2 0-54.5.3-55.3 1.2m127.8 95c0 4-.7 13.1-1.6 20.3-1.6 12.8-1.5 32 .2 37.4.7 2.4.6 2.4-4 1.8-6-.9-7.9.2-11.2 6.1-6.1 10.6-11.7 19.2-12.5 19.2-.5 0-3-2-5.6-4.5-5.7-5.3-12.9-9.3-23.5-13-4.3-1.5-8.3-3.4-8.9-4.2-.9-1-.8-3.1.5-9 1.6-7.2 4.3-14.2 3.2-8.3-2.1 11.1-1.4 18.2 1.2 12.5.7-1.4 1.8-2.5 2.5-2.5s2.6-2.7 4.2-6c3-6.2 4.4-6.4 4.5-.5.1 1.6.9 6.1 1.9 10l1.9 7 .7-7c1.3-12.8 2.4-13.6 2-1.5l-.4 11.5 2.1-10.4 2-10.3 1.8 3.8 1.8 3.9.2-3.5c.1-1.9 1-5.3 2-7.5l1.8-4 .7 2.7c.9 3.4 1.9 2.9 4.6-2.4l2.1-4.1 2.7 4.6c1.4 2.6 3 4.7 3.4 4.7s.5-4.1.1-9l-.7-9.1 2.7 1.1c1.5.5 4.3 1 6.3 1h3.6l-3.6-2.8c-3.3-2.5-3.6-3.1-3.7-7.7 0-4.4.7-6.2 6.5-15.4 3.6-5.8 6.5-10.8 6.5-11.3 0-.4.5-.8 1-.8.6 0 1 3.1 1 7.2M235.9 119c0 1-.3.8-.9-.5-1.2-2.7-1.2-4.3 0-2.5.5.8.9 2.2.9 3m5.4.4c1.8 1.4 6 3.8 9.5 5.4 4.5 2.1 5.8 3.2 4.5 3.5-1 .3 0 .6 2.2.7s4.9.5 6 1c3.7 1.6-6.8 1.1-12.5-.6-5.4-1.6-13-6-13-7.5 0-1.4.9-1.1 4.6 1.7 1.9 1.5 3.4 2.2 3.4 1.8 0-1.1-7.2-5.9-8.2-5.6-.5.1-.8-.5-.8-1.3 0-2 .6-1.9 4.3.9m31 24.5c.3 1.2-.3 2.7-1.4 3.7-1.8 1.6-1.9 1.6-1.9-1.3 0-4.4 2.3-6.1 3.3-2.4m67.1 28.6c.3.8-.5 3-1.7 4.8s-3.5 6.2-5.2 9.8c-1.6 3.5-3 6.6-3.2 6.8-.1.1-1.8-.9-3.7-2.4l-3.6-2.7 3.2-3.7c1.8-2 5.1-6 7.3-8.9 4-5.3 5.9-6.3 6.9-3.7m-164.9 3.7c1.5 1.8 4.7 5.4 7.1 8s4.4 5 4.4 5.4c0 .5-1.4 2.3-3.2 4.1l-3.1 3.2-3.8-8.1c-2.1-4.5-4.5-9-5.3-9.9-1.4-1.7-1.1-5.9.4-5.9.5 0 2 1.5 3.5 3.2M495 356.9q0 2.55-4.5.6l-3-1.3 3.8-.1c2-.1 3.7.3 3.7.8"/><path d="M249 127c0 .4.9 1 2 1.3s2 .2 2-.3c0-.4-.9-1-2-1.3s-2-.2-2 .3"/></svg>