<svg xmlns="http://www.w3.org/2000/svg" width="682.667" height="512" version="1.0" viewBox="0 0 512 384"><path d="M208.5 4.9c-4.1 8.2-7.5 19.6-7.5 25.3 0 7.4-1.5 9.6-9.3 13.8-6.3 3.4-7.1 3.6-10.8 2.6-3.6-.9-4.3-.8-5.5.9-.8 1-1.4 3.3-1.4 5 0 2.4-.7 3.5-3 4.8-1.6 1-3 2.2-3 2.7 0 1 6.4 9.3 13.7 17.7 5.4 6.2 8.8 7.9 9.9 4.8.9-2.2 2.3-1.8 3.5.8 1.5 3.4-1.2 8.7-6.8 13.2-2.6 2.1-5.2 4.3-5.8 4.8-.6.6 1.3.8 5.3.5 7-.5 6.7-.9 5.1 7.6-.6 3.2-.8 6.1-.4 6.4.3.3 1.8-1 3.4-2.9l2.9-3.4 1.1 4.5c.6 2.5 1.6 6.3 2.3 8.5l1.1 4 1.1-2.9c1.1-2.8 1.1-2.7 2.2 3.5.9 5.5 1.2 6.1 2 4.1 1-2.3 1.1-2.2 2.4 1.8 1.7 5.2 2.6 5.7 4.3 2.4l1.4-2.7.7 4.4c.7 3.6.9 4 1.6 2.4.5-1.1.9-4 1.1-6.5l.1-4.5.8 5.3c.9 6.1 1.8 7.6 2.7 4.4 1.1-4.3 2.3-2.1 2.3 4.3 0 3.6.4 6.5.9 6.5s1.7-2 2.7-4.5c.9-2.5 2.2-4.4 2.8-4.1 4.3 1.7 4.3 1.8 3.9-1.6-.3-3.1-.3-3.2.7-.8 1.6 3.6.9 7.4-1.5 7.8-3.4.6-3.9 1.9-2.5 6.8 1.6 5.6 1.8 5.4-11.5 10-11.5 4-18.6 7.6-23.4 11.9-2.1 1.9-4.1 3.5-4.4 3.5s-3.4-4.5-6.8-10-7-10.5-8-11.1c-1.3-.6-4-.6-8.6.3-3.8.7-14.6 1.3-24.3 1.3-15.7 0-18.2-.2-24.4-2.3-8.4-2.8-18.3-7.7-28.7-14.2-7.6-4.8-45.7-24-47.6-24-.5 0-6.5 3.6-13.4 8-6.8 4.4-16.8 10.3-22.1 13.1l-9.8 5v7.4c0 4.1.3 7.5.8 7.5.4 0 4.3-1.8 8.7-4 8.9-4.5 10-4.8 6.7-2-2.2 1.8-6.2 13-6.2 17.4 0 1.1 3.3 10.3 7.4 20.5 4 10.2 8.5 21.9 10 25.8 1.5 4 3.2 7.6 3.8 7.9 2.5 1.6 2.9.1 8.9-40.4l2.3-15.3-3.5-7c-1.9-4-4.5-8-5.8-9.1-1.9-1.4-2.5-2.9-2.7-6.2-.1-4.1.1-4.6 4.5-7.8 8.2-6.1 8.8-6.3 13-3.5 2 1.4 6 3.6 8.7 5 4.8 2.4 5 2.7 4.6 6.1-.2 2-.8 3.6-1.3 3.6-1.5 0-3.6 5.2-5.3 13.1l-1.7 7.5 9.7 23.5c11.4 27.6 13.2 31.5 14.5 30.2.9-.9 3.2-16.2 6.5-43.6l1.8-14.8-3.9-7.5c-2.2-4.1-4.8-8-5.7-8.5-2.1-1.1-2.4-3.9-.5-3.9 2.9.1 12.9 5 19.9 9.9 6.5 4.5 7.6 5.7 8.1 8.7s.2 4.1-2 6.3c-1.6 1.6-3.4 5.7-4.9 10.9l-2.4 8.4 10.1 27.1c5.5 15 10.7 27.8 11.4 28.6 2.5 2.6 2.5 2.7 9.7-44.1l2.2-14.8-3.4-7.2c-1.9-4-4.6-8.4-6-9.7l-2.5-2.4 18 .6c9.9.3 19 .9 20.2 1.2 3.7 1.2 3.7 3.6 0 6.6-2.6 2.2-3.9 4.4-5.6 10.4-1.4 4.7-2.1 9.2-1.9 11.8.3 2.3 4.8 15.6 10.1 29.5 7.2 18.7 9.5 25.8 8.8 27.1-1.7 3-7.8 25.3-10.1 36.1-1.1 5.8-2.3 11.5-2.6 12.7-.3 1.6-2.3 3.2-6.3 5.3-3.3 1.6-15.7 9.3-27.8 17.1C95.1 341.2 87.4 346 86.1 346c-.4 0-2.2-2-4-4.4-1.8-2.3-5.5-6-8.3-8.1-2.8-2.2-6.7-6.2-8.8-9.1-6-8-16.2-11.1-19.5-6-2.2 3.3-.7 5.9 4.5 8.6 4 2 4 2.1 2.6 4.8-.8 1.6-2.1 3.3-2.8 3.9s-6.7 1.3-13.3 1.6c-7.3.3-13.9 1.2-16.8 2.3l-4.9 1.6-4.4-4.3c-3.5-3.4-4.4-5-4.4-7.7 0-4.4-1.6-7.2-4-7.2-1.9 0-2 .8-2 18.5 0 16.9.2 18.8 2.1 22.2 4.1 7.4 5.7 8.5 12.3 8.1 5.7-.3 6-.2 7.5 2.6 3 5.3 4.3 5.4 12.6 1.3l7.6-3.7 8.7 2.9c4.8 1.5 15.3 4 23.4 5.5l14.6 2.7 5.7-2c7.1-2.5 59.5-32.3 68.8-39.2 11.1-8.1 15.3-16.2 27.7-52.9 6.1-18 7.5-20.9 6.3-13-.4 3-.7 15.2-.5 27 .1 13.7-.2 25.1-1.1 31.3-.7 5.4-1 10-.5 10.3 1.7 1.1-.1 10.2-3.2 16.4-3.9 7.7-10 21.8-10 23.1 0 .5 30.1.9 74 .9 51.4 0 74-.3 74-1.1 0-.5-3.3-8.3-7.4-17.2-7.8-17.2-9.4-21.9-6.8-20.9 1.6.6 1.7 1.3-.9-19.8-.7-5.7-.8-13.1-.4-18.5.4-5 .7-11 .6-13.5-.1-2.4 0-4.2.3-3.9s2.4 5.9 4.7 12.5c8 23.4 13.9 33 24.8 40.3 6.9 4.6 32.5 18.7 56.3 31l17.7 9.1h10.8c12.3 0 25.7-1.9 35.4-5.1l6.6-2.2 6.9 3.7c10.6 5.6 14 4.8 15.9-3.7.5-2.7.8-2.8 4.8-2.2 3.4.5 4.7.3 7-1.5 5.2-4.1 5.6-5.9 5.7-29 0-22.5-.2-24-4.6-24-2.7 0-4.4 3-4.4 7.8-.1 1.7-1.6 4.4-3.9 7l-3.8 4.4-7.3-1.1c-4.3-.7-10.8-.9-15.7-.5-9.4.8-12-.2-14.7-5.7-2.3-4.5-2.1-5.1 2.5-7.7 3.5-2 4-2.7 3.7-5.4-.4-3.9-2.5-5.3-7-4.4-5.4 1-10 4.6-12.8 10-1.4 2.7-5.5 7.9-9.1 11.6-3.7 3.7-7 7.6-7.3 8.8-.4 1.2-1.5 2.2-2.4 2.2-1.9 0-12.4-6-38.7-22-9.3-5.7-20.4-12.1-24.5-14.2l-7.4-3.8-2.8-13.7c-1.5-7.6-4.3-19-6.2-25.4l-3.5-11.6 10.5-27.9c9.9-26.2 13.3-37.1 11.3-35.8-1.1.6-1-4 .2-8.1.7-2.6.8-2.4.4 1.1-.4 3-.1 4.3.9 4.7 1.9.8 4.4-3.7 8-14.5 3.4-9.9 3.2-9.8 14.6-9.8 7.1 0 7.3.1 5.1 1.6-2.9 2.1-9.1 15.6-9.1 20.1 0 1.9 1.4 12.1 3 22.6 6 37.9 6.3 39.5 8.5 37.7.7-.5 3.3-7 5.8-14.3 2.5-7.2 7.1-20.5 10.2-29.5l5.6-16.2-2.6-8.3c-1.7-5.7-3.4-9.2-5.4-11.1-2.5-2.4-2.8-3.1-2-6.4.8-3.9 1.8-4.8 11.9-11.6 5.9-4 15.6-8.6 18-8.6 1.7 0 1.1 2.9-.8 3.9-2.7 1.4-9.2 15.5-9.2 19.7 0 5.4 7 54.6 8.1 57.3.9 2.1 1.2 2.2 2.4 1 .7-.8 3.9-8.4 7-16.9s7.4-20.1 9.6-25.7c2.2-5.7 4.2-11.5 4.5-13.1.8-4.2-3-18-5.9-21.1-3.2-3.4-3.3-8.8-.3-9.7 1.2-.4 5.4-2.7 9.4-5.1l7.2-4.4 7.1 4.9c6.9 4.8 7.1 5.1 7.3 9.4.1 3.9-.2 4.7-2.4 6-1.7 1-3.6 4-5.8 9.4-1.8 4.3-3.2 8.6-3.2 9.4 0 2.2 10.7 55.2 11.5 57.2 1 2.4 2.4 2.2 3.5-.5 3.4-8.2 18-56.6 17.7-58.2-1.9-7.7-3.9-13.3-5.6-15.6l-2-2.6 6.7 3.3c3.7 1.9 7.1 3.4 7.5 3.4s.7-3.4.5-7.6l-.3-7.5-9.4-5c-5.1-2.7-14.3-8.2-20.4-12.1-14.4-9.3-15.6-9.7-19.3-7.1-1.6 1.1-10.5 5.9-19.9 10.6-9.3 4.7-20.6 10.9-25 13.7-10.6 6.8-29 15.8-34 16.6l-4 .6-.3-5.4-.2-5.3 1.9 4c1.1 2.2 2 3.5 2 3 .2-1.7-2.8-23.3-4.4-32.5-1.9-10.7-1.9-10.3.8-11.5 1.7-.8 2.1-1.7 1.9-4-1.5-14.7-1.6-13.8 2.6-22.6 5.3-11 6.6-19.5 4.8-30.4C385.9 33.4 382.1 29 371 29c-8 0-15.7 3.1-22 8.6l-5 4.6v-5.1c0-11.4-4.8-24.3-11.9-32.4L327.8 0H211zm133.9 84.4c.6 2.4-.6 18.2-2.4 31.7-1.3 10.3-1.2 20.3.3 27.6l1.3 6.1-6.2-.5-6.2-.5-4.2 7.4c-2.4 4.1-6 10.1-8.1 13.4l-3.9 6.1-5.6-5.3c-5.6-5.3-14.7-10.2-25.4-13.8-3-1.1-6.3-2.6-7.3-3.5-1.7-1.5-1.7-1.9.2-9.4 1.1-4.3 2.1-8 2.4-8.2.2-.2.2 2.9-.1 7.1-.3 4.8-.1 7.5.6 7.5.5 0 1.3-1.1 1.6-2.5.4-1.6 1.1-2.2 2.1-1.9.9.4 1.8-.1 2.3-1.2.4-1.1 1.8-3.9 3.2-6.4l2.4-4.5 1.4 6.5c.7 3.6 1.6 8.2 1.9 10.2.3 2.1.9 3.8 1.4 3.8s.9-1.7 1-3.8c0-2 .4-5.5.8-7.7.7-3.3.9-2.2 1.1 6l.2 10 1.3-7.4c.8-4.1 1.7-8.6 2-10l.6-2.5 1.7 3.4 1.7 3.5.3-3c.2-1.7 1-4.9 1.9-7.3l1.6-4.4 1.2 2.9 1.1 2.8 2.9-4.8 2.8-4.9 2.5 4.6c1.4 2.5 2.9 4.6 3.3 4.6.5 0 .5-3.8.2-8.5-.7-9.4-1-9 6.4-7.6 5.6 1.1 7-.1 2.8-2.3-3.3-1.8-5.5-5.7-5.5-9.7 0-1.8 14-25.8 15.1-25.9.4 0 .9 1 1.3 2.3M236 116c0 1.3-.1 1.3-1 0-.5-.8-1-2.2-1-3 0-1.3.1-1.3 1 0 .5.8 1 2.2 1 3m16.4 7.6c1.2.4 3.9 1.4 6.1 2.4s4.7 2 5.5 2.3c2.8 1-7.5.7-11.5-.4-5.2-1.4-14.5-6.9-14.5-8.7 0-.8 1.3-.4 3.8 1.4l3.7 2.6-3.5-3.1c-1.9-1.7-3.8-3.1-4.2-3.1s-.8-.6-.8-1.4c0-.9 2.4.2 6.7 3 3.7 2.4 7.6 4.7 8.7 5m19.1 22.1c-1.8 1.3-2 1.2-2.3-.7-.2-1.2.2-2.8.9-3.7 1.2-1.3 1.4-1.3 2.3.7.8 1.8.6 2.5-.9 3.7m69 25.2c.3 1.2-.3 3.2-1.7 5.3-1.3 1.9-3.6 6.2-5.2 9.6s-3.4 6.2-4 6.2-2.3-1-3.9-2.3l-2.7-2.2 7.6-9.3c4.3-5 8.1-9.2 8.5-9.2s1 .9 1.4 1.9m-162.1 9.4 6.8 7.9-1.9 2.6c-3.3 4.4-4.6 3.8-7.8-3-1.7-3.4-4-7.7-5.2-9.5-2.2-3.3-2.1-6.7.1-6.1.7.2 4.3 3.8 8 8.1M499 359c0 1.3-2 1.3-4 0-1.2-.8-.9-1 1.3-1 1.5 0 2.7.4 2.7 1"/><path d="M246.5 124c.3.5 1.1 1 1.6 1 .6 0 .7-.5.4-1-.3-.6-1.1-1-1.6-1-.6 0-.7.4-.4 1m7.3 2.7c.7.3 1.6.2 1.9-.1.4-.3-.2-.6-1.3-.5-1.1 0-1.4.3-.6.6"/></svg>