<svg xmlns="http://www.w3.org/2000/svg" width="682.667" height="512" version="1.0" viewBox="0 0 512 384"><path d="M202 9.7c-1.9 6-3 11.9-3 15.4v5.7l-4.7 3c-8.5 5.4-12.1 6.8-14.3 5.4-2.8-1.7-6.7-1.5-7.4.4-.3.9-.6 3-.6 4.7 0 2.2-.9 3.8-3.2 5.8-4.1 3.3-3.9 3.5 7.8 17.7 8.5 10.2 10.8 11.8 13.4 8.7 1-1.2 1.6-1.3 2.6-.4 4.1 3.4-1 11.8-11.5 19.2l-2.6 1.9 7.3-.6c3.9-.2 7.2-.3 7.2-.1 0 .4-1.6 8.7-2.6 13.2-.7 3.4 1 2.8 3.7-1.2 1.3-1.9 2.7-3.5 3.1-3.5s1.2 2.6 1.9 5.7c.6 3.2 1.6 6.9 2.1 8.3l1 2.5 1.3-3c1.3-2.9 1.3-2.8 2.1 4 .7 6.6.8 6.8 1.9 4.1l1.2-2.8 1.3 4.6q2.4 8.7 3.6 2.7c.9-4.3 2.1-3.9 2.9.9.9 5.5 2.5 5 2.7-.8.1-4 .2-4.2.5-1.2.3 1.9 1 4.1 1.6 4.8.9 1.1 1.3.9 2-1l1-2.3.7 2.5c.5 1.4.8 4.4.9 6.7.1 2.4.4 4.3.9 4.3.4 0 1.5-2 2.5-4.4 1.4-3.4 2.2-4.3 3.5-3.9.9.4 2 1.1 2.4 1.7s.8-.7.8-2.9c.1-3.2.3-3.7 1.1-2.2.6.9.9 3.4.7 5.5-.3 3.4-.5 3.7-3 3.4-3.6-.4-4.1.8-2.3 5.9 1.4 4 1.4 4.4-.2 6-1 .9-6.1 3.1-11.3 4.8-12 4.2-20 8.2-25 12.7l-3.9 3.6-4.7-7.4c-2.5-4-5.8-9-7.1-11.2l-2.5-3.9-7.1.7c-4 .3-13.7.9-21.7 1.2-24.3 1.1-34.7-1.7-57-15.1-6.9-4.2-19.4-10.9-27.9-15.1-8.5-4.1-16.7-8.4-18.2-9.5-1.5-1-3.8-1.9-5.1-1.9-1.2 0-8.1 3.8-15.1 8.5-7.1 4.6-15.7 9.9-19.3 11.7L0 136.5v16.7l6.8-3.7c6.6-3.6 6.7-3.7 4.1-.8-2.1 2.2-2.9 4.6-4 11L5.6 168l9.7 18.7c17.2 33.5 19 36.4 20.1 31.1.3-1.3 1.2-14 2.1-28.2l1.4-25.9-3.6-6.1c-2-3.4-5.1-7.5-6.9-9.1-2.3-2.2-3.3-4.1-3.6-6.9-.3-3.8-.2-4 6.8-8.8l7.1-5 6 4c3.4 2.1 7.4 4.4 9 5.1 2.3.9 2.8 1.7 2.8 4.5 0 1.9-.8 4.2-1.6 5.3-2.7 3-3.6 5.4-4.8 13.3l-1.2 7.6 11.6 23.9c12.5 26 15.2 30.7 16.6 28.3.4-.8 1.5-10.9 2.4-22.4.8-11.5 1.8-24.3 2.1-28.4.6-7.4.6-7.6-3.6-14.8-2.3-4-5.3-8-6.6-8.9-2.9-1.9-3.1-3.3-.4-3.3 5.8 0 29.5 14.6 28.4 17.4-.3.8-.1 2.3.5 3.4.8 1.5.7 2.1-.4 2.5-.7.3-2.1 1.7-2.9 3-1.6 2.4-5.5 15.7-5.6 18.8 0 2.2 21.9 55 23.6 56.8 1.1 1.2 1.4 1.1 2.3-1 .6-1.3 2.6-15 4.5-30.4l3.5-28-4.2-8.4c-2.3-4.6-5-8.9-6.1-9.7-1.8-1.2-1.8-1.3.7-1.9 3-.8 36.1 1 37.7 2 1.8 1.1 1.1 3.6-1.9 6-1.5 1.4-3.3 3.7-3.8 5.2-2.2 5.9-4.3 14.1-4.3 16.4 0 2 10.5 30.6 15.6 42.4 5.6 13.1 5.6 13.3 3.5 18.9-3.4 9-7.9 25.7-10.5 38.3-2.6 13.1-3 14.3-5 14.3-1.6 0-17.2 9.5-41.1 24.9-10.4 6.8-20.4 13.1-22.3 13.9-3.3 1.6-3.5 1.6-5.4-.8-4.2-5.2-8.5-9.6-11.9-11.9-1.9-1.3-5.2-4.7-7.3-7.6-6.3-8.7-17.4-12-20.9-6.3-1.6 2.5.7 6.5 4.8 8.5s4.4 4.1 1.1 8c-2.4 2.7-2.7 2.8-11.6 2.5-6.6-.1-11.7.4-17.8 1.8l-8.5 2-2.9-2.7-2.8-2.7v37.7l5.5-.7c4.8-.5 5.6-.4 6.2 1.1.9 2.6 4.4 6.3 6 6.3.7 0 4.9-1.8 9.2-3.9 4.3-2.2 8.2-3.6 8.7-3.2 1.3 1.1 13.7 4.7 20.9 6.1 3.3.6 7.9 1.6 10.2 2.1s8.3.9 13.4.9c9.2 0 9.3 0 18.8-5.1 15.7-8.5 46-25.9 54.6-31.4 18.4-11.8 20.8-15.8 35.6-59 5.7-16.5 6.8-19 6.2-14-.4 3.3-.8 17.7-.9 32s-.4 31.2-.7 37.5c-.6 11.5-.6 11.6-6.6 24.8-3.4 7.3-6.1 13.7-6.1 14.3 0 .5 28.7.9 75 .9 55.7 0 75-.3 75-1.1 0-.7-1.5-4.4-3.3-8.3-11.5-24.4-12-25.9-9.7-28.2.7-.7.4-6.1-.8-16.5-1.4-12.3-1.6-17.6-.8-26.7.5-6.1 1.2-11.2 1.5-11.2s2.3 5.1 4.5 11.3c4.6 13.4 10.2 25.7 14.4 31.3 4.3 5.9 15.1 12.6 51.2 32l31.5 16.9 19.5.3c20.2.4 27.1-.4 36.2-3.9l4.6-1.8 5.4 2.9c4.2 2.4 6.5 3 11.5 3h6.3l.6-4c.6-3.9.8-4 4.5-4h3.9v-22.5c0-14.3-.4-22.5-1-22.5-.5 0-1 .3-1 .7 0 .5-1.4 2.3-3 4.2l-3 3.4-7.5-1.3c-4.7-.8-10.6-1-16.2-.6-10.5.8-13.9-.7-16.2-6.9-1.3-3.6-1.2-4 .4-5 4.9-2.9 6.5-4.8 6.5-7.6 0-5.8-9.1-6.1-15.7-.5-1.5 1.3-4 4.9-5.6 7.9-1.6 3.2-4.6 7.1-7.3 9.3-2.5 2-5.9 5.9-7.6 8.6-1.6 2.6-3.2 4.8-3.4 4.8-1.1 0-9.6-4.8-25.1-14.1-24.8-15-40.3-23.9-44.8-25.9l-4-1.7-2.7-14.5c-1.5-7.9-4.5-20.2-6.8-27.3l-4-12.9 11.2-28c10.3-26.1 11.1-28.6 11.3-35.6.2-4.1.7-8.6 1.3-10 .8-2 .9-1.3.6 3.5-.2 3.3-.1 5.3.3 4.5.5-.8 1.8-2.6 3.1-4s3.4-5.4 4.6-9c4.7-13.3 3.4-12 13.2-12 8.3 0 8.5.1 6.6 1.7-1.1 1-3.9 5.4-6.1 9.8l-4.2 8L388 197c1.1 9.1 2.7 22.3 3.6 29.5 2.8 23.2 2.8 23.2 12.3-.8 2.7-6.7 7.4-18.5 10.6-26.2 4.9-12 5.6-14.6 5.1-18.5-.8-7.2-3.4-14.5-6-17.3-1.9-2.1-2.4-3.6-2.2-6.4.3-3.1 1.2-4.3 6.2-8 7.8-5.9 13.2-9 19.4-11.3 5.7-2.1 7.9-.9 3.7 2.2-1.4 1-4.4 5.2-6.7 9.4l-4.1 7.5 2.2 28.7c1.2 15.8 2.6 29.8 3.1 31.1.8 2.2 1 2.3 2.4.9.8-.8 5.7-10.7 10.8-21.9s10.7-23.3 12.3-26.9l3-6.5-1.6-9.2c-1.1-6.6-2.2-9.8-3.8-11.5-1.5-1.6-2.3-3.7-2.3-5.9 0-3.3.4-3.7 6.3-6.6 3.4-1.8 7.6-4.1 9.3-5.3l3.1-2 5.4 3.6c8.6 5.8 10 7.4 8.8 9.6-.6 1-.7 2.7-.4 3.7.4 1.3-.2 2.4-1.9 3.5-3.4 2.2-10.8 15.1-10.9 18.9-.1 5.5 4.6 53.1 5.4 55.4 1.8 5 1.5 5.5 17.4-29.7 2.3-5.2 5.8-12.7 7.8-16.6l3.4-7.2-1.9-8.8c-1.6-7.4-2.4-9.3-5.1-11.7l-3.2-2.8 5.6 3c3.1 1.7 5.9 3.1 6.3 3.1.3 0 .6-3.6.6-7.9v-7.9l-4.7-2.7c-2.7-1.5-11.1-6.7-18.9-11.6s-14.8-8.9-15.6-8.9c-2.3 0-43.7 21.7-56.2 29.5-12.3 7.6-17.2 9.9-26.6 12.6-3.6 1-6.6 1.9-6.7 1.9-.2 0-.3-2-.3-4.5 0-4.7 1.4-6.1 2.3-2.3.4 1.2.9 1.9 1.2 1.6.8-.8-1-16.4-3.5-31.7-1.1-6.3-1.8-11.5-1.7-11.5.1-.1 1.1-.6 2.2-1.2 2.1-1.2 2.1-1.1.9-13.6-.6-5.7-.4-7 1.4-9.5 1.1-1.6 3.3-5.6 4.9-8.8 2.6-5.7 2.8-6.7 2.8-19.5 0-12-.3-14.2-2.4-19.6-2.1-5.1-3.2-6.5-6.7-8.4-8.3-4.6-22.4-1-33.1 8.4l-4.4 3.9.1-5.4c.1-8.2-3.1-20.3-7.2-26.9-1.3-2-2.1-2-68-2h-66.7zm144 76.2c0 1.4-.7 9.1-1.6 17.1-2.9 28.6-2.9 35.6.2 46.3.5 1.6 0 1.7-5.8 1.1-7.4-.7-7.2-1-14.3 11.6-2.6 4.7-5.9 10-7.3 11.7l-2.4 3.3-5.1-4.5c-6.2-5.6-14.5-10.3-26-14.6-4.9-1.8-9.1-3.8-9.4-4.5-.4-1.1 3.1-17.2 3.9-18 .2-.1.1 3.7-.1 8.4-.3 8.6.1 9.4 2.3 5 .7-1.3 1.8-2.3 2.5-2.3s2.7-2.6 4.3-5.8c1.7-3.1 3.4-5.7 3.9-5.7s.9 1.7.9 3.8.6 6.1 1.4 8.8 1.6 6.2 1.8 7.9c.3 1.9.7.4 1.1-4 1.5-13.1 2.5-14.6 2.1-3-.5 12.2.6 11.9 2.6-.8.7-4.2 1.6-7.7 1.9-7.7s1.4 1.7 2.3 3.8c1.7 3.5 1.8 3.6 1.4.7-.3-1.7.5-5.2 1.7-7.9l2.1-5 1.2 2.9 1.1 2.8 2.8-4.7 2.7-4.6 2.9 4.5c1.6 2.5 3.2 4.5 3.7 4.5s.5-2.4.1-5.3c-.4-2.8-.8-6.9-.8-9-.1-3.2.2-3.7 1.7-3.3.9.3 3.8.8 6.5 1.2 5.7.8 6.2-.5 1.2-3.5-3.4-2-3.5-2.3-3.5-7.8 0-5.4.4-6.6 6.5-16.3 3.6-5.8 6.5-11.1 6.5-12 .1-1.2.4-1.1 1.5.4.8 1.1 1.5 3.1 1.5 4.5m-109.4 23.8c-.4-1.3.4-1 3.2 1.2 2 1.7 6.9 4.7 10.7 6.7 5.8 3 6.4 3.5 3.5 3-2.8-.5-3.1-.4-1.7.5 1.1.6 3.1.9 4.5.6 1.5-.2 4.3.2 6.2.9 3.4 1.4 3.2 1.4-4 1-5.8-.4-8.8-1.2-13.7-3.7-6.1-3.1-9.1-5.5-8.1-6.4.2-.3 2.7 1.1 5.4 3s5.6 3.5 6.4 3.5c.8-.1.2-.8-1.5-1.7-1.6-.9-4.3-2.6-6-3.8-1.6-1.3-4-2.6-5.2-3-1.3-.3-2.3-1.4-2.3-2.3 0-1.3.3-1.3 1.6.4 1.4 1.7 1.5 1.7 1 .1m36.9 28.4c.5 1.4 0 2.7-1.4 4-2.1 2-2.1 2-2.1-.5 0-5.2 2.3-7.5 3.5-3.5m69.8 29.9c.3 1.1.1 2.3-.4 2.6s-3.1 4.8-5.7 10l-4.7 9.4-3.1-2.2c-1.7-1.3-3.1-2.8-3.2-3.3-.1-1.3 14.5-18.5 15.7-18.5.5 0 1.1.9 1.4 2m-167 8.9 7.5 8.9-3.3 3.2-3.3 3.2-2.6-5.7c-1.4-3.1-3.9-7.6-5.5-10-2.7-4.1-3.3-8.5-1.1-8.5.5 0 4.2 4 8.3 8.9m332 185.2c-.8.8-1.9.8-4 .1-2.8-1-2.8-1 1.2-1.1 2.8-.1 3.6.2 2.8 1"/></svg>