<svg xmlns="http://www.w3.org/2000/svg" width="682.667" height="512" version="1.0" viewBox="0 0 512 384"><path d="M194.4 2.5c.6 2.2 0 2.9-4.6 5.9-2.9 1.8-7.3 4.2-9.8 5.3-3.9 1.7-4.9 1.8-7.5.7-6.7-2.9-9.4-.8-8.3 6.7.4 2.5-.1 3.5-2.9 5.6-1.8 1.4-3.3 3.3-3.3 4.3 0 2.7 18.6 26.2 22.3 28.2 1.5.7 2.4.5 4.2-1.2l2.3-2.2 1.1 2.1c.8 1.5.9 2.7.1 4-.5 1.1-.8 2.6-.5 3.4.6 1.4-5.6 7.8-10.8 11.2-4.5 2.9-3.3 3.8 4.4 3.2l7-.6-.5 2.7c-.3 1.5-1 5.6-1.5 9.2l-.8 6.5 3.7-4.3c2.1-2.3 4-4.2 4.3-4.2.2 0 .7 1.7 1 3.7.4 2.1 1.4 6.3 2.3 9.3l1.7 5.5 1.2-3 1.3-3 .7 4c1.4 8.9 1.4 9 3 6.9 1.2-1.7 1.4-1.5 2.5 2.8 1.4 5.5 3 6.3 3.1 1.5 0-1.7.4-4.1.8-5.2.7-1.7 1-1.4 2 2.1.6 2.2 1.4 5.4 1.7 7.2.8 4.1 1.9 4.1 2.9-.1l.8-3.2.4 2.7c.5 3.1 2.3 3.9 2.3 1 .1-1.5.2-1.5 1.1.2.9 1.5 1.3 1.6 2.1.5.6-.9.7.6.3 4.3-.8 7.3.7 8.1 3.4 1.7 1.7-4.1 2.4-4.9 3.4-4 .8.6 1.7.8 2 .4.4-.3.7-.1.7.5 0 .7.5 1.2 1 1.2.7 0 .8-1.3.4-3.5-.4-2.3-.2-3.5.5-3.5s1.1 2.1 1.1 5.5v5.5h-3.5c-3.9 0-4 .2-2.4 6.6 1.5 5.9 1 6.4-11.6 10.5-12.7 4-21.7 8.6-27.7 13.8l-4.7 4.1-2.4-3.2c-1.3-1.8-4.3-6.5-6.5-10.3-6.7-11.3-6.1-10.9-13.9-10.2-3.7.4-12.2 1.1-18.8 1.7-18.5 1.7-37.8-1.1-49.8-7.1-2.1-1.1-10.4-5.9-18.5-10.8S55 112.7 45.9 108.3 29 99.8 28.6 99.1c-1.7-2.6-6.5-.9-17.4 6.1L0 112.5v60.9l8.2 12c13.8 20.3 17.4 25.1 19.1 25.4 2.1.4 2.1-.6.2-27.6-2.5-35.5-1.8-32.1-8.6-40.4-3.2-4-7-7.8-8.4-8.6-1.4-.7-2.5-2-2.5-3 0-.9-.3-2.7-.6-3.8-.5-1.8.6-3.1 6.2-7.3 6.4-4.9 10.5-6.3 11.9-4.1.3.6 4 2.9 8.1 5.1 5.8 3.2 7.5 4.6 7.1 5.9-.2 1-.1 2.4.4 3.1.5.8-.2 2.4-2 4.5-2.2 2.4-3.1 4.8-4 10.8-.6 4.2-1.1 8.6-1.1 9.8 0 2.7 29.8 58.8 31.7 59.5.8.3 1.7.3 2-.1.3-.3 1.1-15 1.6-32.6l1-32-5.3-7.9c-2.8-4.4-6.3-8.7-7.6-9.6-3.4-2.2-3.1-3.9.6-3.1 5 1 13.4 5.4 21.3 11.1 6.6 4.9 7.5 5.9 7.9 9.2.4 3.1 0 4.4-2.3 7-2 2.3-3.3 5.8-4.9 12.8l-2.2 9.7 2.5 5.6c1.4 3.1 7.3 16.7 13.2 30.2 5.8 13.5 11.3 25.2 12.1 26 1 1 1.7 1.1 2.5.3.6-.6 2.4-15.7 4.1-34.2l3-33.1-4.3-7.7c-2.4-4.3-5.6-9.1-7.2-10.6l-3-2.8 15.9.7c22.5.9 27.5 1.5 28.8 3.7.9 1.5.4 2.4-2.9 5.5-3.6 3.3-4.5 5-6.9 13.5-3.2 11.3-3.8 8 7.4 38.2 4.5 12.1 9.1 24.7 10.2 28l2 6-4.5 14.1c-4.3 13.5-8.8 31.7-10.3 41.7-.6 4.7-.7 4.8-7.6 8.2-6.5 3.3-18.7 10.8-52.3 32.2-15.2 9.6-19.5 11.8-20.5 10.6-.3-.4-2.3-3-4.4-5.6s-6.3-6.6-9.3-8.8c-3-2.3-7-6.5-8.9-9.5-2.7-4.2-4.7-6-8.2-7.6-8.6-3.9-15.2-2.5-15.2 3.2 0 2.9 1.8 4.9 6.7 7.4 3 1.5 3.2 1.8 2.1 4.4-2.4 5.8-5.1 7.2-14.4 7.2H0v38h92.7l18.4-10.6c48.6-28 51-30 60-51 2.3-5.4 7.6-19.3 11.6-30.9 4.5-12.9 7.2-19.3 6.8-16.5-1.4 11.2-1.6 23.2-.7 31.5.8 6.8.7 13.1-.4 25.5-.8 9.1-1.6 17-1.9 17.7-.2.7 0 1.5.5 1.8s.8 3.2.6 6.3c-.3 4.2-1.6 8.3-5 15.3-2.5 5.3-4.6 9.9-4.6 10.3 0 .3 35.1.6 78 .6s78-.2 78-.5-2.4-5.6-5.3-11.8c-5.1-10.6-7.8-19.5-5.6-18.2 1.9 1.2 2-2.7.5-14.7-2.3-18.3-2.4-20.4-1.3-30.8.5-5.2.9-11 .8-12.9s.1-3.3.3-3c.3.3 2.6 6.5 5.2 13.9 6.9 20.1 12.4 30.9 18.9 37.4 6.2 6.3 13.4 10.7 45.8 28.1l23.3 12.5H512v-40.3l-7.3.6c-10.2.7-14.7-1.3-17.7-8-2-4.4-2-4.9-.4-5.8 8.5-5.1 10.2-7.9 6.8-11.6-2.1-2.3-6.8-2.5-12-.3-5.4 2.2-7.1 4-10.6 10.9-1.9 3.8-5.4 8.4-9.7 12.5-3.7 3.6-7.4 8-8.2 9.8-.8 1.7-2 3.2-2.8 3.2-1.7 0-17.7-8.8-38.1-21-19.7-11.7-29.2-17.1-37.7-21.4-5.2-2.6-7.4-4.3-7.7-5.9-.3-1.2-1.8-9.2-3.5-17.7s-4.6-20.6-6.6-26.8l-3.6-11.3 12.2-32.2c9.9-26.3 12.2-33.3 12.4-38.3.1-3.3.6-8 1.1-10.5l.9-4.4.5 5.9.5 6 2.8-4.3c1.6-2.4 3.6-6.6 4.4-9.5.8-2.8 2.4-6.8 3.4-8.8l1.9-3.8h8.7c8 0 8.6.1 6.6 1.5-3.6 2.5-11.7 17.5-11.7 21.5.2 9.9 4.7 61.7 5.6 63.3 1.4 2.8 3.5.5 7.5-8.3 4.1-9 13.8-29.9 19.9-42.9l4.4-9.3-2.1-10.2c-1.7-8.2-2.7-10.7-5.1-13.2-2.5-2.7-2.8-3.5-1.9-5.2.6-1.1.9-2.7.6-3.4-1.2-3 21.8-17.7 30.3-19.4 2.7-.5 3.1-.4 2.6.9-.3.9-1.4 1.9-2.4 2.2s-4.4 4.4-7.6 9.1l-5.7 8.5.7 32.2c.4 17.7 1 32.4 1.2 32.7 1.5 1.5 5.5-4.5 19.1-29.1 16.6-29.7 16.2-28.7 14.4-41.6-.6-4.1-1.8-7.4-3.4-9.5-2-2.6-2.3-3.7-1.5-5.1.6-1.2.6-2.2-.1-3.1-.9-1.1.2-2.1 5.1-4.6 3.5-1.8 7.9-4.3 9.8-5.6s3.9-2.4 4.4-2.4c1.3 0 16.6 11.2 16.6 12.1 0 .4-.4 1.1-1 1.4-.5.3-1 1.8-1 3.3 0 1.8-.7 3-2.2 3.7-1.2.6-5 4.2-8.4 8.1-6.9 8-6.6 6.7-8.4 33.4-2.5 37.6-2.5 36.2-.4 35.8 1-.2 6.7-7.1 13.1-16.2l11.3-15.8V106l-8.9-5.9c-11.4-7.4-13.2-7.9-18.1-4.7-2.1 1.4-12.1 6.5-22.2 11.5-10 4.9-22.3 11.5-27.3 14.7-11.7 7.5-26.5 14.8-33.8 16.7l-5.8 1.5.7-5.6c.6-5.5 1.4-8.2 1.4-5 0 .9.7 2.1 1.5 2.8s1.5.9 1.5.4c0-3.9-5.5-41.7-6.5-45.4-.3-.9.4-1.9 1.8-2.5 1.8-.8 2.1-1.7 1.9-4.5-.1-1.9-.4-7.2-.5-11.7-.2-7.1.1-8.5 2-11 3.7-4.6 8.4-15.4 9.5-21.8 1.3-7.7.3-24.6-1.8-30.8L405.8 0h-39.6l-4.6 5.1-4.6 5.1V0H193.8zm160.9 68.8c-.1 4.5-.9 14-1.7 21.2-1.9 16.1-2 34.1-.2 41.8l1.4 5.8-7.8-.7-7.7-.6-2.5 3.3c-1.4 1.9-3.3 5-4.3 6.9s-4 7-6.8 11.2l-5 7.7-6.6-6c-6.9-6.4-17.3-12-29.3-15.9-9.4-3-9.5-3.2-6.4-14.2 1.4-5 2.8-9.3 3-9.5s.2 3.8-.1 8.9c-.4 8.6-.3 9.1 1.1 7.4.9-1.1 1.6-2.6 1.6-3.3 0-.8.7-1.3 1.7-1.1 1.1.2 2.7-1.8 5.3-6.5 2-3.7 4-6.4 4.3-6 .4.3.7 2.5.7 4.7.1 2.3.7 5.9 1.5 8.1s1.5 5.1 1.5 6.5.4 3.1.9 3.9c.6.8 1.1-2.1 1.6-8 1.1-14.2 2.5-15.1 1.8-1.2-.3 6.8-.4 12.3-.1 12.3s1.3-4.2 2.2-9.3c2.2-12.2 2.4-12.7 3.9-9.7 2 3.9 3.7 3.7 3.7-.5 0-2 .8-5 1.7-6.8 1.5-2.8 1.8-2.9 2.1-1.2.8 4 2 3.6 4.8-1.4 1.6-2.8 3.1-5.1 3.4-5.1s1.7 2.3 3.2 5c2.9 5.2 5.4 6.7 4.5 2.7-.8-3.3-2-17.7-1.5-17.7.2 0 3 .5 6.1 1.1 7.9 1.4 10 .1 5-3.2-3.7-2.3-3.8-2.6-4.1-8.9-.3-6.4-.2-6.7 5.3-15.4 3.1-4.9 6.5-10.7 7.6-12.9q4.5-8.7 4.2 6.6M234 94c0 1.3-.1 1.3-1 0-.5-.8-1-2.2-1-3 0-1.3.1-1.3 1 0 .5.8 1 2.2 1 3m6.5 1.5c3.5 2.6 11.8 7 15.8 8.5 1.6.5 2.5 1.4 2.2 2-.4.6.7 1 2.7 1 1.8 0 4 .5 4.8 1.1 2.8 2-11.2.2-17.2-2.1-5.7-2.2-13.8-8.2-12.7-9.4.3-.3 2.9 1.3 5.8 3.5 3 2.2 5.7 3.7 6 3.3s0-.9-.6-1.1c-2.2-.8-12.3-8.6-12.3-9.5 0-1 1.1-.5 5.5 2.7m35.7 30.5c.4 2.4.1 3-1.4 3-1 0-1.8.5-1.8 1.2 0 .8-.3.9-1 .2s-.6-2.2.5-4.8c1.8-4.2 3.1-4 3.7.4m75.1 32.2c.4 1.2 0 2.9-.7 3.8-.8.8-3.5 5.7-6 10.8l-4.7 9.4-3.7-2.8c-2-1.5-3.9-2.9-4.1-3-.4-.4 13.5-17.3 15.7-19.2 2.2-1.7 2.9-1.5 3.5 1m-186.9 2.5c1.3 1.6 4.9 5.7 7.9 9.3l5.6 6.5-3.7 3.8-3.7 3.8-4.3-9.3c-2.4-5.1-5.1-10.1-5.9-11-1.5-1.7-1-5.8.8-5.8.5 0 2 1.2 3.3 2.7"/><path d="M250.4 104.5c1.1.8 2.9 1.5 4 1.5 1.6-.1 1.2-.5-1.3-1.5-4.2-1.9-5.2-1.9-2.7 0"/></svg>