<svg xmlns="http://www.w3.org/2000/svg" width="682.667" height="512" version="1.0" viewBox="0 0 512 384"><path d="M296.8 21.6c-12.7 2.3-25.1 7.9-28.4 12.9-1.3 1.9-2.1 2.3-4.9 1.8-1.9-.3-6-.2-9.1.2-4.5.5-6.4 1.3-8.7 3.7-2.5 2.5-3.2 2.7-3.9 1.4-2.8-5-10.7-7.1-23.8-6.3-8.8.5-26.8 5.5-28.7 8-2.5 3.1-2.4 7 .4 12.9 1.5 3.2 3.1 5.8 3.5 5.8s.8.8.8 1.9c0 1 1 3.1 2.2 4.7 1.3 1.5 2.3 3.4 2.3 4 0 .7.9 2.3 2.1 3.6 1.1 1.3 1.9 2.9 1.7 3.5-.4 1.1 6.1 7.3 7.6 7.3.5 0 1.2 2.4 1.6 5.2.7 6.6 4.5 16.7 5.9 16.2.7-.3 1.2 1.7 1.4 5.1.2 4.3 0 5.7-1.2 6.1-1.3.5-1.6 2.3-1.7 8.3 0 4.2-.4 9.9-.8 12.8-.5 3.9-.4 5.4.5 5.7 1.6.6.7 7.4-1.2 9.7-.8.8-1.4 1.9-1.4 2.3s-2.4 4.1-5.2 8.1c-2.9 4-6.2 8.8-7.3 10.6s-2.9 4.7-4 6.5c-4.1 6.6-10.2 18-11.5 21.4-.7 1.9-2.1 5.4-3.1 7.8-1.1 2.4-1.7 4.7-1.4 5.2s.1 1.1-.5 1.5c-.5.3-1 1.7-1 3s-.5 2.7-1 3c-.6.4-1 1.2-.9 1.8.1.7 0 1.9-.3 2.7-1.3 3.5-2.8 13-3.2 20.2-.3 4.3-.7 8.2-1 8.7s-.8 4.6-1 9.2c-.3 4.6-.6 8.4-.6 8.4-.1 0-.3 3.7-.5 8.2-.2 4.6.1 8.3.6 8.3s.9.7.9 1.5c0 2.2 1.3 1.8 4-1q4.8-5.1.9 2.4c-1.7 3.2-2 5.1-1.5 8.4.3 2.3.9 6 1.2 8.2.4 2.7 1.5 4.8 3.5 6.6l3 2.6-1.6 11.3c-2.2 14.6-1.8 25.8 1.1 29.7 1.1 1.5 3.1 3.2 4.3 3.8 1.7.8 2.1 1.6 1.6 3.5-.5 2.3-.4 2.3.8.7 1.9-2.3 2.7-2.2 2.7.4 0 1.1.7 2.8 1.7 3.7 1.5 1.5 1.6 1.3.9-3.6-.6-4.7-.4-5.6 2.2-9.5 5.4-7.9 16.5-27.1 20.3-35.2 9.1-19.6 14.7-53.3 15-90.4l.1-14.6 2 6c2.6 7.5 3.4 21.4 1.9 30.8-2 12.7-2.2 16.6-1.1 18.8.9 1.6.7 2.9-.8 6.3-3 6.2-5.6 14.8-8.2 26.1-3.7 16.7-4.6 19.1-18.4 47l-13.3 27 77.5.3c42.6.1 77.7 0 77.9-.2.3-.2-.5-3.9-1.6-8-1.9-6.9-2-7.9-.6-9.9 2.7-4.2 5.6-14.1 7.6-26.6 1.1-6.9 2.4-13.2 2.8-14 .5-.9 1.1-5.4 1.5-10.1.3-4.7 1.3-12 2.1-16.3 2.4-12.7 2.1-14.6-3.8-26-6.4-12.3-15.7-33.3-22.8-51.6l-5.2-13.4 2.3-6.4c1.3-3.7 1.9-6.8 1.4-7.3-.5-.4-3.1-.2-5.7.5-4.7 1.2-4.9 1.1-5.7-1-1.4-3.7-2.8-9.4-4.9-19.9-2.3-11.4-5.1-16.4-11.1-19.8l-4-2.3v-12.8c0-13.3 1.3-16.9 2.4-6.7.4 3.3 1.1 6 1.5 6s1.3 1.5 1.9 3.2c1.3 3.9.8-10.5-.9-28.5-.6-6-.8-11.1-.4-11.5.3-.3 2.2-.7 4.1-.8 3.5-.1 6.3-2.5 6.4-5.4 0-1.8-3.1-6.5-10.7-16.4-3-3.8-5.2-7-5.1-7.2.2-.1 2.8.4 5.8 1.2s6.4 1.4 7.6 1.4c2.8 0 4.8-2.4 4.1-5-.3-1.1-.1-2 .5-2s.8-.9.5-2-.1-2.2.4-2.5c1.1-.7 1-12.2-.2-15.2-.5-1.5-.5-2.3.2-2.3.6 0 .7-.4.4-1-.8-1.4-1.6-4.8-2-9-.5-5.8-1-7.1-4.6-11.1-3.9-4.4-4.9-4.5-17.1-2.3m-94.1 201.7c-1.5 10.4-2.1 12.3-7.1 21.7-5.2 9.8-5.5 10.2-5.8 6.9-.3-3.7 2-16.3 4.6-24.7.9-2.9 1.5-5.6 1.2-6.1s.1-1.4.8-2.1c.8-.6 1.8-2.6 2.2-4.3 1-4.8 2.4-6.2 4.2-4.3 1.4 1.3 1.4 2.8-.1 12.9m103.7 4.2c.4 3.4.3 4.5-.4 3.5-.9-1.4-1.5-9.9-.6-8.9.2.2.6 2.6 1 5.4"/></svg>