<svg xmlns="http://www.w3.org/2000/svg" width="682.667" height="512" version="1.0" viewBox="0 0 512 384"><path d="M175.6 1.7c-2.4 1.3-3.6 1.3-6.1.4-5.3-1.9-8.4-1.4-9.1 1.4-.3 1.4-.4 4-.1 5.8.4 2.7-.1 3.7-3.1 6.3-2.8 2.4-3.4 3.5-2.9 5.5.8 2.9 16.9 23.5 21.5 27.4l3.3 2.8 2.3-2.2c2.1-1.9 2.4-2 3.6-.6 1 1.2 1 2.1.1 4.2-1.4 3.1-.8 4.1 1.6 2.2 1-.8.3.4-1.6 2.6-3.4 3.9-10 9.8-12.8 11.4-.9.5-1.3 1.4-.8 2.1.5.8 2.6 1 7.6.5 5.6-.6 6.8-.4 6.4.6-1.1 3-3.1 16.9-2.4 16.9.4 0 2.3-1.9 4.2-4.2l3.5-4.2L192 85c.6 2.5 1.9 7.2 2.9 10.5l1.8 6 1-3.5c1-3.5 1-3.5 2.3 3.5 1.3 6.7 1.4 6.9 2.5 4.2s1.1-2.7 3 3l1.9 5.8 1-6c1.3-6.9 1.8-6.6 4.1 3 1.8 7.3 4.3 11.8 3.2 5.8-.7-3.5 0-6.3 1.3-6.3.5 0 1.1 1.5 1.3 3.2.4 3 .5 3.1 1.2 1s.8-2.1 2.1-.5c.8 1 1.4 4.3 1.4 7.7 0 4.9.2 5.7 1.4 4.7.8-.7 2-3.2 2.7-5.6 1.3-4.4 2.2-5.4 3.3-3.6.3.5 1.5 1.1 2.7 1.4 1.9.5 2.1.3 1.6-2.8-.3-1.9-.1-3.7.4-4 .5-.4.9 2 .9 5.5v6.2l-2.9-.7c-3.9-.8-4.5.5-3 7.1 1.5 6.7 2 6.2-11.1 10.5-13.7 4.6-23.8 9.7-29.4 14.8l-4.8 4.6-2.3-2.9c-1.3-1.6-4.4-6.6-6.9-11.1-6.9-12.3-6.6-12.1-18.9-10.4-15.1 2.1-43.5 1.8-51.7-.5-9.2-2.5-19.4-7.4-34.5-16.6-7.2-4.3-20.5-11.5-29.6-15.9-9-4.4-17.7-9-19.4-10.1-4.4-2.9-6.5-2.5-14.4 2.7L0 100.5v17.8l3.3-2.6c1.7-1.5 4.8-3.8 6.9-5.2l3.6-2.6 9.3 5.5c5 3.1 9.5 5.6 9.8 5.6 1.7 0 .1 7.1-2.2 10.2-2.1 2.8-2.9 5.4-3.9 13.2l-1.2 9.8 14.1 28.1c7.8 15.5 15.2 29.7 16.3 31.6 1.9 3 2.3 3.2 3.6 1.9 1.5-1.4 2.9-26 3.5-59l.2-9.6-4.9-7.8c-2.7-4.2-6.1-8.6-7.6-9.7C48 125.6 47 123 49 123c3.5 0 16.3 6.4 23.4 11.6 7.4 5.5 8.4 6.6 8.8 9.9.3 3-.1 4.1-2.5 6.5-2.4 2.3-3.3 4.7-5.2 13.9L71.1 176l3.8 8.8c2.1 4.8 8 18.8 13.2 31.1 9.6 23.1 11.9 27.4 13.8 25.6.6-.6 2.2-12.8 3.6-27 1.4-14.3 2.9-30 3.5-34.8l1.1-8.8-4.7-8.9c-2.5-5-5.8-9.9-7.2-11s-2.3-2.2-2.1-2.3c.2-.2 9.6 0 20.9.3 26.3.9 28.9 2 20.9 9-3.5 3.1-4.4 4.7-7 13.8l-3.1 10.3 11.3 33.8 11.3 33.8-4.2 12.9c-4.9 15.5-6.7 22.4-9.6 36.9l-2.1 11-4 1.9c-5.6 2.6-28.3 16.3-43.3 26-15.5 10-34.7 21.6-35.9 21.6-.5 0-2.9-2.8-5.3-6.1-2.5-3.5-6.9-7.8-10.1-10-3.9-2.6-6.6-5.5-9-9.6-4-6.8-8.5-9.5-16.9-10.1-6.5-.5-8.3.9-7.8 6 .3 2.8 1 3.7 5 5.8 3.9 2 4.7 2.9 4.2 4.5q-1.8 6-7.5 8.4L0 350.5V384h93.6l21-12.1c36.8-21.4 41.6-25.2 48.7-38.7 4.6-8.7 8.4-18.5 16.2-40.7 7.3-21.3 7.7-22.2 6.8-17-.3 2.2-.8 18.8-1 37-.7 58.5-.3 53.9-4.6 62.2-2 4-3.7 7.7-3.7 8.3 0 .7 25.7 1 79.1 1h79l-.7-2.2c-.3-1.2-2.4-5.8-4.5-10.2-3.9-8.1-4.9-13.2-2.7-15.4.9-.9.8-3.1-.1-9.4-2.3-16.3-2.9-27.2-1.9-38.3 1.2-13.2 2-15.2 3.7-9.3 2.6 8.8 10.3 28.4 13.6 34.7 7.5 14.2 14 19 57.3 42l15.3 8.1H512v-31.9l-6.7-.3-6.8-.3 4.8-1.6 4.8-1.5-3.8-2.5c-4.1-2.6-8.9-11.9-6.6-12.6 2.3-.8 7.6-4.8 8.7-6.6.8-1.3.7-2.4-.4-4.5-2.3-4-8.7-4.2-15.5-.5-4.4 2.4-5.5 3.8-9.2 11-3.4 6.3-5.4 8.9-9.3 11.7-3.1 2.3-6.1 5.6-8.1 9.1-1.7 3-3.6 5.5-4.2 5.5-1.5 0-21.2-11-44.7-24.9-10.7-6.4-24.9-14.3-31.5-17.7l-12-6.1-1.7-10.4c-2.1-12.6-5-25.1-9-38.3-2.3-7.8-2.7-10.3-1.9-12 .6-1.2 6.1-16.3 12.1-33.6 7.6-21.4 11.3-33.4 11.6-37.5.3-3.3.7-7.4.8-9 .2-1.7.8-4.1 1.5-5.5.9-2.1 1-1.6.5 3.2-.5 5-.3 5.7 1 5.2.8-.3 1.5-.9 1.4-1.2-.3-1.1 3.8-7.2 4.4-6.7.3.3.8-1.2 1.2-3.3 1-6.5 4.6-14 6.9-14.6 1.2-.3 5.3-.6 9.2-.6 6.5 0 6.8.1 4.8 1.5-1.2.8-4.5 5.6-7.3 10.6l-5.2 9 1.1 13.2c.6 7.3 1.8 22.6 2.7 34 2.3 27.7 3.8 29.5 10.7 13.4 2-4.5 5.4-12.2 7.7-17.1 2.3-4.8 7-15.4 10.5-23.3l6.4-14.5-2-10.2c-1.7-8.3-2.6-10.7-5.1-13.2-2.7-2.9-2.9-3.5-2.1-7.5.7-3.9 1.7-5 7.8-9.7 7-5.3 18.5-11.4 23.8-12.6 3.5-.8 3.8 2 .3 3.6-1.4.6-5 4.9-8.2 9.7l-5.7 8.6.6 32.9c.7 35.6 1.1 38.1 5.4 33.4 1.1-1.3 8.9-15.1 17.2-30.7l15.3-28.4-1.3-10c-1-7.6-1.8-10.6-3.5-12.6s-2.2-3.8-2-7c.2-4.1.4-4.4 6.2-7.5 3.3-1.7 7.4-4.1 9.1-5.4 4-2.8 4.8-2.8 9.2.6 6.3 5 6.1 5.2 6.1-4.5v-8.9l-6.6-3.9-6.7-3.9-3.6 2.2c-2 1.2-11.3 5.9-20.6 10.5-9.4 4.6-23.8 12.4-32 17.4-18.3 11.1-23 13.5-31.9 16.2-8.8 2.7-9 2.7-8-.7.4-1.5.7-4.5.6-6.7l-.2-4 1.7 3c1.7 3 1.8 3 2.1.6.5-3.1-1.4-19.4-3.9-34.3L401 78.1l2.4-2.4c2.3-2.3 2.4-2.7 1.1-6.3-.8-2.2-1.4-7-1.5-10.8 0-6.6.2-7.2 4-12.3 2.2-2.9 5.4-8.8 7.2-13 2.7-6.8 3.1-9.3 3.6-20.5l.5-12.8H298.4C190.7.1 178.2.2 175.6 1.7m183.8 62.1c0 5.9-.9 17.4-1.9 25.6-1.9 16.3-1.7 31.5.7 40.3l1.5 5.1-8.6-.5c-10.1-.6-8.8-1.6-17.9 13.7-3.5 5.8-7.1 11.6-8.2 13l-1.9 2.5-6.3-6.2c-6.8-6.4-15.2-11.2-27.8-15.7-12.1-4.4-13.2-5.5-10.8-11.3.6-1.5 1.9-5.7 2.8-9.3l1.7-6.5-.5 9.7c-.5 10.2.4 12.5 2.8 6.7.8-1.8 1.8-2.8 2.6-2.5 1 .4 2.6-1.9 5.1-6.7 2-4 3.7-6.8 3.9-6.2.2.5 1 4.1 1.9 8 .9 3.8 2.2 9.5 2.9 12.5l1.3 5.5.7-8c1.3-14 2.6-17.4 2.2-5.8-.1 5.6 0 10.7.4 11.3.3.5 1.4-3.3 2.4-8.5s2.2-9.2 2.7-8.9.9 1.2.9 2 .7 1.4 1.5 1.4 1.5-.8 1.5-1.8c0-2.5 3.2-11.2 4.2-11.2.4 0 .8 1.3.8 3 0 4.4 1.4 3.7 4.6-2.5 1.6-3 3.1-5.5 3.4-5.5s1.7 2.1 3 4.7c4.1 7.7 5 6.8 4.3-4.6l-.6-10 7.7.6c4.2.3 7.6.3 7.6 0 0-.4-1.8-1.8-3.9-3.1-3.6-2.3-3.9-2.9-4.6-8.5l-.7-6.1 6-9.7c3.3-5.4 7.1-11.9 8.3-14.6 3.3-6.8 4.4-4.7 4.3 8.1M234.2 84.4c.4-.3 3.3 1.3 6.6 3.5 3.4 2.2 8.4 5.2 11.4 6.5 2.9 1.3 4.5 2.5 3.6 2.5-2.9.2-10-3-15.6-7-3-2.1-6-3.5-6.8-3.2s-1.4.1-1.4-.3c0-.5-.3-2-.6-3.4l-.5-2.5 1.3 2.3c.8 1.2 1.7 2 2 1.6m7.8 8.1c5.8 4 10.2 5.6 17.2 6.4 7.1.8 8.7 2.1 2.6 2.1-8.6 0-24.4-7-26.2-11.5-.7-1.8-.4-1.7 6.4 3m35 26.8c0 2.1-.7 3.6-2 4.4-2.7 1.8-3.3.1-1.6-4.2 1.9-4.4 3.6-4.5 3.6-.2m77.9 34.4c1.1 2.3 1 2.9-.3 3.9-.9.6-3.6 5.5-6.1 10.8l-4.5 9.7-4.5-3.1-4.6-3.1 2.7-3.2c1.5-1.8 5.4-6.5 8.7-10.5 3.3-3.9 6.3-7.2 6.7-7.2s1.2 1.2 1.9 2.7m-190.1 6.5c3.3 4 6.9 8.2 8.1 9.2l2.2 2-3.8 3.8c-2 2.1-4 3.8-4.4 3.8-.3 0-2.5-4.2-4.8-9.3-2.4-5-4.9-9.9-5.6-10.7-1.7-1.8-.9-6 1.1-6 .7 0 3.9 3.3 7.2 7.2"/><path d="M504.9 133.5c-3.7 4.4-6.7 8.9-7.1 10.8-.3 1.7-1.1 9.7-1.8 17.7-.6 8-1.7 20.4-2.5 27.7-1.5 13.5-1.3 16.3 1.1 16.3 1.4 0 2.9-1.8 11.9-14l5.5-7.5v-29.3c0-16-.2-29.2-.3-29.2-.2 0-3.3 3.4-6.8 7.5M0 155.6V183l8.5 12.4c4.6 6.8 9.1 12.9 9.9 13.5 3 2.5 3.9.2 3.3-8.3-2.3-31.1-3.8-49.5-4.2-52.1-.6-3.8-12.5-19-15.4-19.8-2.1-.5-2.1-.5-2.1 26.9"/></svg>