<svg xmlns="http://www.w3.org/2000/svg" width="682.667" height="512" version="1.0" viewBox="0 0 512 384"><path d="M152.1 2.9c-1.7 1.6-3.1 3.7-3.1 4.6 0 2.1 4.6 8.7 15.3 21.8 9.6 11.8 10.6 12.4 14.2 9.5 3.5-2.8 5-.9 3 3.9-1 2.4-1.1 3.2-.2 2.6 6.6-4.1.3 3.9-8.2 10.5-3.1 2.4-5.7 4.7-5.9 5.2-.5 1.3 3 1.7 9.1 1 4.8-.5 5.7-.4 5.7 1 0 1.6-1.6 11.2-2.5 15.7-.8 3.3 1.9 1.9 5.4-2.9 1.6-2.1 3.1-3.6 3.4-3.1.2.4 1.4 5 2.7 10 1.2 5.1 2.5 9.3 2.9 9.3s1.2-1.2 1.7-2.8c1-2.4 1.1-2.1 1.9 4 .8 7 1.8 8.5 2.9 4.5.6-1.9.9-1.6 2.4 2.5 2.4 6.6 2.9 6.7 3.7.4 1.2-9 2.3-7.2 5 7.6.4 2.1 1.1 3.8 1.6 3.8s.9-1.7.9-3.8c0-6 1.8-7.5 2.6-2.2l.7 4.5 1.3-3c1.2-2.7 1.3-2.8 1.4-.7 0 1.3.4 2 1 1.7.6-.4 1 1.8 1 5.9 0 6.5 1.2 8.6 2.6 4.4.3-1.2 1.3-3.7 2.1-5.6 1.3-3.2 1.5-3.3 3.3-1.7 1.4 1.3 1.9 1.3 2.3.3.3-.8.6-.5.8.7.1 1.1.5-.3.9-3l.7-5 .1 6.7.2 6.7-3.5-.6c-4-.6-4.2 0-2.3 7.3 1.6 5.8 1.1 6.2-12.1 10.5-13.7 4.4-25 10.1-30.9 15.4l-5.1 4.6-3.4-5.3c-1.9-2.9-4.8-7.8-6.6-10.9-1.7-3-4.2-6.6-5.5-7.8l-2.5-2.3-12.3 1.6c-20 2.6-27.8 2.9-37.8 1.6-19.2-2.4-25.9-5-49.2-19.1-8.4-5.1-22.6-12.7-31.6-17S14.6 87.1 13 86c-3.4-2.4-6.1-2.5-10-.5-3 1.5-3 1.7-3 10 0 7.7.8 10.2 2.5 7.5 1.1-1.9 4.3-1 9.6 2.6 3 2 7 4.2 8.9 5 3.3 1.3 3.6 1.7 3.5 5.9 0 3.4-.6 5-2.7 7.2-2.2 2.3-3 4.6-4.4 12.8l-1.7 10 8.1 17.7c4.5 9.7 8.6 18.5 9.1 19.5.6 1 3.9 7.9 7.5 15.4 10.3 22.1 10.8 21.4 13-15.6 2.6-44.7 2.7-41.6-3-51.4-2.6-4.6-6.1-9.3-7.6-10.4S40 119 40 118.2c0-3.6 14.4 2.5 26.1 11.2 7.2 5.2 7.7 5.9 8.1 9.8.4 3.8.1 4.7-2.9 7.6-1.8 1.8-3.5 4.3-3.8 5.5-.2 1.2-1.3 5.9-2.4 10.4l-2 8.2 2.5 6.3c1.4 3.5 7.2 18.7 13.1 33.8 10.8 28.2 13.2 33 15.1 30.7 1.6-1.9 2-4.3 5.7-37.7 1.9-17.3 3.8-32.7 4.1-34.2.7-3.7-8.7-22.4-12.1-24-5.7-2.6-2.3-3.1 16.8-2.4 30.8 1.1 32.9 1.9 24.5 10.1-3.9 3.7-4.9 5.7-7.7 14.5-1.9 6-2.9 11-2.6 12.3.4 1.2 3 9.8 6 19.2 2.9 9.3 6.7 21.7 8.5 27.5 1.7 5.8 4.2 13.6 5.4 17.5l2.3 7-3.4 10c-3.8 11.4-8.6 29.9-10.3 39.5-.6 3.6-1.3 7.5-1.5 8.7-.4 1.5-2.9 3.4-8.8 6.4-4.5 2.3-17.2 9.8-28.2 16.7-37.2 23.3-44 27.4-48.3 29.6l-4.4 2.1-2.1-2.8c-5.3-6.9-10.2-11.8-14.2-14.4-2.7-1.7-5.8-5.1-8.5-9.4-3.3-5.3-5.2-7.3-8.6-8.9-2.4-1.1-4.8-2-5.4-2s-1 10-1 28.5V384h95l7.3-4.3c3.9-2.4 11-6.5 15.7-9.2 15.1-8.7 27.4-17.1 32.3-22.1 8.1-8.3 15.8-25.6 29.7-66.7 1.8-5.3 3.5-9.6 3.7-9.4s-.1 2.7-.7 5.5c-.5 2.8-.9 18.3-.8 34.4.1 17.1-.4 32.8-1 37.7-.8 5.4-.8 8.7-.2 9.1 1.9 1.2.2 11.7-2.9 17.9-1.7 3.3-3.1 6.3-3.1 6.6s36.5.5 81 .5c44.6 0 81-.2 81-.5s-1.5-3.6-3.4-7.3c-3.9-7.8-5.5-15-3.5-16.2 1-.7.9-4-.6-17.2-.9-8.9-1.7-19.5-1.6-23.3 0-6.8 1.7-22.5 2.5-23.2.1-.2 2.5 5.9 5.1 13.4 9.6 27.7 15.7 37.7 27.7 46 4 2.8 16.8 10.3 28.3 16.7l21 11.6H512v-21c0-13.9-.4-21.8-1.2-23.5-.9-1.9-.9-2.8 0-3.7 1.7-1.7 1.6-14.8 0-14.8-.7 0-4 1.3-7.3 2.8-5.5 2.6-6.3 3.4-8.8 8.8-4.6 9.8-5.3 10.7-10.9 15.1-3.7 2.8-6.5 6.1-8.7 10.2l-3.2 6-5.2-2.3c-2.9-1.3-10.3-5.3-16.6-9-6.2-3.6-11.5-6.6-11.7-6.6s-4.3-2.4-9.2-5.4c-15.8-9.6-39.3-22.7-45.8-25.6-7.1-3.2-6.6-2.3-8.9-17.1-1.4-9.3-6-28.3-8.7-36.3-1.1-3.4-1.7-3.9-4.6-4.1-1.9-.2-5.6.3-8.3 1-3.1.9-4.9 1-4.9.3 0-.6-1.1-.7-2.7-.3s-6.4.9-10.8 1-9.3.6-10.9 1l-3 .8 2-2.5c4-5.4 9.9-12.4 11.8-14.3 7.2-7 16.9-13.2 24.4-15.5 2-.6 4.4-1.4 5.2-1.7 1.8-.8 1.8-.7 5.8-1.7 1.8-.4 3.6-1.6 4.2-2.5 2.9-5.6 15-44.9 14.9-48.6-.1-3.4 1.9-16.6 2.6-17.4.3-.2.5 2.4.5 5.9v6.3l3.2-4.9c1.8-2.7 3.6-5.1 4-5.2.5-.2.8-1.3.8-2.5 0-2.7 2.9-10.4 5-13.4 1.4-1.9 2.7-2.2 9.3-2.4 8.5-.2 9.8.2 6.4 2-1.2.6-4.6 5.5-7.6 10.9l-5.3 9.7 1.1 9.6c.7 5.3 1.8 16.4 2.6 24.6 1.7 18 1.9 18.7 5.4 17.9 1.4-.3 4.7-.9 7.3-1.2 2.7-.4 5.2-1.2 5.7-1.8 1.1-1.3 5.3-10.9 13.7-31l5.4-13-2.2-10.5c-1.8-8.5-2.8-11.2-5.3-14-2.3-2.6-3-4.4-3-7.5 0-3.8.3-4.2 8-9.9 10.9-8.1 27.5-15.8 27.5-12.7 0 .6-1.7 2.7-3.8 4.8-2.1 2-5.7 7-8.1 11l-4.4 7.2 1.2 31.3c.6 17.1 1.4 32.9 1.7 35 .7 4.2 2.6 5.6 5 3.6.9-.7 8.6-15.2 17.1-32.3l15.5-30.9-1.2-8.1c-1.6-11.2-2.7-15-5-17.1-1.4-1.3-2-3.1-2-6.2 0-2.3.4-4.3.8-4.3s4.8-2.3 9.7-5.2c5-2.8 9.6-5.1 10.3-5.1 1 0 1.2-2.1 1-8.5-.4-12.1-1.3-12.4-13.8-5.3-1.9 1.1-10.8 5.6-19.6 9.9-8.9 4.4-22.8 12-31 16.9-13.9 8.3-28.2 15.2-34.6 16.7l-2.8.6v-5.9c0-3.3.5-6.3 1-6.6.6-.3 1-.1 1 .5s.7 1.8 1.5 2.6c1.3 1.4 1.5 1.3 1.5-.5 0-3.4-4.1-34.2-5.5-41.9-1.4-7-1.3-7.4.6-9.3 1.5-1.5 1.9-2.7 1.4-4.2-.4-1.2-1-6.6-1.2-12l-.5-9.7 4.9-6.8c7.7-10.5 11.8-21.6 12.3-33.5 0-.4-61.2-.7-135.9-.7H155.2zm212.2 51.7c-.1 7.1-.9 18.5-1.7 25.4-2.5 19.5-1.8 35.5 2 48.1.4 1.4-.4 1.4-7.8.2-10.6-1.7-11-1.4-20.3 14-3.8 6.3-7.8 12.6-8.7 13.9l-1.7 2.3-3.8-4.2c-7.8-8.5-16.3-13.5-33.3-19.5-4.7-1.7-9.1-3.5-9.8-4.1-1.6-1.2-.9-6.1 1.3-10.4.8-1.5 1.5-3.9 1.5-5.3.1-1.4.7-3.9 1.4-5.5l1.4-3-.4 4c-1 11.4-1.1 16.3-.4 17.5.5.8 1.2.1 1.9-2.3.8-2.2 1.8-3.4 2.8-3.3 1.1.1 3.1-2.6 5.8-7.7l4.2-7.9 1.2 7.8c.6 4.3 1.6 8.3 2.2 9 .5.6 1.2 3.5 1.6 6.3.3 2.8.9 4.9 1.3 4.6.4-.2 1-5.1 1.3-10.7.9-16 2.6-17.9 2-2.3-.4 13 .7 15.6 2.1 5 .4-2.8 1.3-7 1.9-9.5.9-3.9 1.2-4.2 1.7-2.1.9 4 3.7 3.5 4.4-.8 1.4-7.9 4.6-11.8 4.6-5.5 0 3.8 1.3 2.9 4.9-3.7l3.3-6.1 3.6 6.1c2 3.3 3.9 5.7 4.3 5.3s.3-5.3-.3-11-.8-10.5-.7-10.7c.2-.2 2.7.1 5.6.7s6.4.7 7.9.4l2.8-.7-4.2-2.7-4.2-2.7V76c0-7.3.1-7.7 5.1-15.4 2.7-4.3 6.4-10.6 8-13.8 4.5-8.9 5.4-7.4 5.2 7.8M232 76c0 1.3-.1 1.3-1 0-.5-.8-1-2.2-1-3 0-1.3.1-1.3 1 0 .5.8 1 2.2 1 3m7.8 2.4c2.6 1.9 7.7 4.9 11.2 6.5 3.6 1.7 5.8 3.1 4.9 3.1-3.2 0-10.2-3.1-15-6.5-2.7-1.9-5.4-3.5-5.9-3.5-.6 0-1-.7-1-1.5 0-2.1.4-2 5.8 1.9m-.9 3.2c1.2 1.5 2.1 2.3 2.1 1.9 0-.5.8-.1 1.8.8 2.2 2 13.3 5.7 17.4 5.8 1.8 0 4.2.4 5.3.9 3.5 1.5-8.5 1.1-13.6-.4-8.4-2.6-18.5-8.8-17.4-10.7 1-1.5 2.2-1 4.4 1.7m39.4 31.6c.5 3 .3 3.6-1 3.1-.8-.3-1.9 0-2.3.8-1.9 2.9-2.2-.3-.5-4.7 1.9-5 2.9-4.8 3.8.8m80.8 35.4c.7 2 .6 3.1-.5 4.3-.7.9-3.3 5.8-5.6 10.8-2.4 5.1-4.7 9.3-5.1 9.3-1.3 0-8.4-5.1-8.4-6 0-1.4 16.4-21 17.5-21 .6 0 1.5 1.2 2.1 2.6M163.5 158l7.8 9.1-3.9 4c-2.1 2.1-4.1 3.9-4.5 3.9-.3 0-2.5-4.3-4.9-9.5-2.3-5.2-5.1-10.2-6.1-11.1-1.6-1.4-1.6-1.9-.3-3.8.8-1.3 1.1-2.6.7-3.1-.5-.4.1-.3 1.3.3 1.1.6 5.6 5.2 9.9 10.2"/><path d="M0 164.2v33.6l4.1 6.1c4.4 6.5 6.5 7.6 7.5 3.6.6-2.4-2.1-55.6-3.2-62.9-.5-3-4.4-9.6-8-13.5-.2-.2-.4 14.7-.4 33.1m509.2-29.7c-2.2 2.8-2.6 5.4-4.7 34-.8 11-1.7 22.9-2 26.5-.5 5-.2 7 1 8.5 1.5 2 1.6 1.9 5-1.9l3.5-3.9v-32.9c0-18-.2-32.8-.4-32.8-.3 0-1.3 1.1-2.4 2.5"/></svg>