<svg xmlns="http://www.w3.org/2000/svg" width="682.667" height="512" version="1.0" viewBox="0 0 512 384"><path d="M146 .6c0 3.5 24.5 34.4 27.3 34.4.6 0 2-.9 3.2-2 1.9-1.8 2.4-1.9 3.4-.6.9 1 .9 2 0 4-1.4 2.9-.5 4.6 1.3 2.8.7-.7 1.6-1.2 2.1-1.2 1.7 0-7.6 9.5-13.4 13.6-5 3.5-5.5 4.2-4 5.1 1.2.7 4 .9 8.2.3 3.5-.4 6.5-.7 6.6-.6s-.5 4.3-1.4 9.4c-.9 5-1.3 9.5-.9 9.9.8.8 2.6-1 5.7-5.8.9-1.3 2-2.1 2.4-1.7.5.5 5.5 19 5.5 20.5 0 .2.5.1 1-.2.6-.3 1-1.5 1-2.6 0-1 .4-1.9.9-1.9.4 0 1.1 2.7 1.5 6s1.1 6 1.6 6c.6 0 1-.9 1-2 0-3.8 1.8-2 3 3 .7 2.8 1.5 5.2 2 5.5.4.2 1.1-2.2 1.4-5.5.4-3.3 1.1-6 1.5-6 .5 0 1.7 3.8 2.6 8.5 1.8 8.5 3.5 12 3.5 7.2 0-1.4.3-3.9.7-5.8.5-2.8.7-3 1.4-1.4.4 1.1.8 3.3.9 5l.2 3 1.2-2.9c1.2-2.5 1.4-2.6 2.1-1 .7 1.7.9 1.7 1.6-.6.5-1.5.6.8.3 5.6-.4 4.9-.2 8.4.4 8.8.5.3 2-2.1 3.2-5.4 2.1-5.6 2.4-5.9 4-4.5.9.8 2.4 1.5 3.3 1.5 1.2 0 1.7.8 1.7 2.6 0 2.3-.3 2.5-2.9 1.9-3.9-.8-4.5.5-2.6 6.7 1.5 5.1 1.5 5.4-.5 6.9-1.1 1-5.2 2.7-9.2 3.9-12.6 3.8-23.6 8.7-30.3 13.5-3.5 2.5-6.8 5.3-7.3 6.2s-1.4 1.3-2 .9c-.5-.3-4.2-6-8.2-12.6-4.8-8.2-7.8-12.2-9.3-12.5-1.2-.3-7.6.1-14.2 1-18.8 2.5-29.3 2.9-38.6 1.6-17.9-2.6-25.8-5.7-47.9-18.8-7.4-4.5-21.7-12.1-31.6-17.1-10-4.9-19.4-9.9-21.1-11.1-1.7-1.3-4.1-2.1-5.4-1.9-2.3.3-2.4.7-2.7 9l-.3 8.6 8.3 5c4.6 2.7 9.1 5.2 10.2 5.6 1.3.4 1.7 1.3 1.2 2.9-.3 1.2-.1 2.9.4 3.7.7 1.1 0 2.4-2.4 5-2.9 3-3.7 4.9-5.4 13.4l-2 10 5 11.5c2.8 6.4 6.3 14.4 7.9 17.8s3.9 8.8 5.3 12c1.3 3.2 4 9.2 5.9 13.3s3.7 8.4 4.1 9.5c.3 1.1 1.5 3.1 2.6 4.5 3.3 4.3 4.9 1.2 6-11.5.8-9.1 3.7-50.4 4.2-59.5.2-3.4-9.7-20.5-13.3-23.1-3.7-2.6-2.8-4.3 2-3.4 5.2 1 14 5.6 22.4 11.8 6.7 5 7.5 5.9 8.1 9.8s.5 4.4-2.7 7c-3.1 2.5-3.7 4-6.2 14.1l-2.7 11.3 5 13.5c2.7 7.4 8.4 22.9 12.7 34.5 10.2 27.8 11.6 30 14.2 22.4.6-1.9 3-19.4 5.4-38.9l4.2-35.5-4.7-9.5c-2.6-5.2-5.8-10.5-7.1-11.7-1.4-1.2-2.5-2.3-2.5-2.5 0-.6 36.1.3 41.8 1 7.6.9 8.1 3.2 1.8 9.3-3.7 3.7-4.9 5.9-7.5 13.9-1.7 5.2-3.1 10.2-3.1 11 0 1.1 19.6 68.2 22.1 75.5.2.5-.9 4.6-2.4 9-4.7 14.3-7.8 25.7-10.3 38.9-1.3 7.1-2.4 13-2.4 13.2 0 .1-2.4 1.4-5.4 2.7-7.1 3.3-16.4 8.9-50.1 29.9-37.2 23.3-37.5 23.4-39.3 19.2-2.1-4.4-8.5-11.4-13.5-14.6-3-1.9-6.4-5.5-9.3-9.8C-.5 326.7 0 325.8 0 356.8V384h95.3l14.1-8.2c20.5-11.8 32.5-19.8 37.6-25 8.8-9.1 13.7-19.3 26.7-55.8 4.6-12.9 8-21.7 7.6-19.5s-.8 18.8-.8 37c-.1 20.6-.6 35.8-1.4 40.5-.6 4.1-.8 7.6-.3 7.8 1.9.6.3 13-2.3 18.1L174 384h164l-3.5-7c-2.3-4.6-3.5-8.4-3.5-11 0-2.3.4-3.9.9-3.5 1.5.9 1.7-3.5.4-11-2.1-12.8-3-29.7-2.1-39 .5-5 .9-11.2.8-14-.1-2.7.1-4.7.4-4.4.3.2 2.8 7.2 5.7 15.4 6.3 18.4 13.5 33.5 18.9 39.7 5.8 6.6 16.2 13.3 48.1 30.7l7.6 4.1H512v-60.1l-3.2 1.7c-4.2 2.2-5 3.3-9.7 13-2.9 6.1-4.7 8.6-7.4 10.3-4.7 2.9-8.7 7.6-11.1 12.9-1 2.3-2.3 4.2-2.8 4.2-1.3 0-14-6.5-25.3-13-21.9-12.5-42.1-24.3-43.2-25.2-.6-.5-7.6-4.2-15.4-8.2l-14.3-7.4-1.8-11.7c-1.7-11.4-7-33.2-10.2-42.4-1.8-5-2-7.5-.6-6.6.8.5 4.6-5.3 3.8-6-.4-.3-13.3.7-40.3 2.9-21.4 1.8-40 4.1-46 5.7-2.2.6-8 1.3-13 1.6-11.8.6-15 .8-27.5 2.3-5.8.6-13.9 1.3-18 1.5-4.1.1-8.8.6-10.4 1l-3 .8 2.2-2.9c1.2-1.6 4.6-5.6 7.7-8.9 3-3.3 5.5-6.3 5.5-6.8 0-.4.7-.7 1.5-.7s2-.9 2.7-2 1.8-2 2.5-2 1.3-.4 1.3-.8c0-.9 10.6-6.3 15.5-8 5.4-1.8 6.5-2.1 6.9-1.9.1.1.9-.3 1.7-.9s3.2-1.4 5.4-1.8 7.2-1.5 11-2.6c13.3-3.5 34-6.8 63-10 14.6-1.6 16.3-1.9 16.9-3.3.5-.9.7-.9 1.2.1.4.9 2 1.1 5.2.7 2.6-.3 7.8-.7 11.6-.9 3.7-.3 7.2-.8 7.6-1.3 1.6-1.6 10.1-31.4 9.9-34.1-.2-1.5 0-3.2.4-3.8.3-.6.8-3.3 1.1-6 .2-2.7.9-6 1.5-7.4 1-2.1 1.1-1.7.7 2.7-.3 2.9-.1 5.5.3 5.7.9.6 5.1-4.7 5.1-6.4 0-.5.4-1 1-1 .5 0 1.3-1.7 1.6-3.8s1.8-6.3 3.2-9.3l2.7-5.4 9-.2c8.9-.3 9-.3 6.2 1.5-4.1 2.4-12.7 19.7-12.7 25.3 0 5 3.8 34.4 4.9 37.9.8 2.7 1.9 2.8 15.3 1.4l5.6-.6 2.5-5.6c1.4-3.2 4.9-11.5 7.7-18.6l5.2-13-2.2-11c-2-9.7-2.7-11.6-5.6-14.6-6.6-7-4.4-11.5 10.7-21.6 6.2-4.1 18-9.4 20.9-9.4 2 0 .9 3-1.5 4.6-1.4.9-5 5.9-8.1 11.1l-5.5 9.4.5 8.2c.4 4.5 1.1 16.7 1.6 27.2 1.6 30.8 2.1 32.9 7.3 31.8 2.4-.5 3.6-2.1 7.7-10.2 11.9-23.7 24-50.4 24-52.9 0-1.5-.7-6.8-1.6-11.7-1.2-7.1-2.1-9.6-4.2-11.8-1.9-2-2.7-3.9-2.7-6.5 0-3.5.3-3.9 7-7.5 10.8-6 10.5-5.5 10.5-16.9 0-5.4-.3-9.8-.6-9.8s-2.6 1.4-5.1 3.1-10.7 6-18.2 9.5c-14.8 6.8-19 9.1-38.1 20.6-6.9 4.1-14.4 8.5-16.7 9.7-4.8 2.4-19.4 7.3-20 6.7-.2-.2.1-2.3.7-4.6.6-2.4.9-5.3.6-6.6-.4-1.4-.2-2.4.4-2.4.5 0 1 .6 1 1.4 0 .7.7 1.9 1.5 2.6 1.2 1 1.5 1 1.5-.1 0-3.2-3.2-28.9-5-39.7s-1.8-11.8-.3-13.5c1.5-1.5 1.5-2.4.5-6.3-1.4-5.3-1.6-14.7-.3-19.1.5-1.8 3-5.9 5.4-9 4.7-6.1 10.1-17.3 11.2-23.6l.7-3.7H288.6C210.2 0 146 .3 146 .6m221 37c1.5 3.8 1.2 10.8-1.1 30.8-2.4 20.6-2.2 43.2.4 52.3 1.8 6.2 2.2 6-9.4 4.2-8.9-1.4-10-.7-15.8 9.7-2.4 4.4-6.3 10.9-8.7 14.5l-4.3 6.6-6.3-6.2c-7.7-7.4-16.6-12.6-30.3-17.4-10.3-3.6-13.5-5.4-13.5-7.5 0-.7.9-2.9 2-5.1s2-4.8 2.1-6c0-1.1.6-3.8 1.4-6 1.2-3.7 1.2-3.1.7 6.7-.5 11.4.5 14.1 2.8 7.2.9-2.6 1.5-3.3 2.1-2.3 1 1.7 1 1.8 6.2-7.9l4.4-8.4 1.2 8.3c.7 4.5 1.9 8.8 2.7 9.6s1.4 3.2 1.4 5.4c0 7.7 1.8 3.7 2.5-5.6 1.1-14.8 2.5-16.9 1.8-2.8-.7 14.2.7 16.6 2.7 4.6.6-4.2 1.6-8.6 2-9.7.8-2 .8-2 1.7.3.7 1.6 1.2 2 1.7 1.3.4-.7 1.2-1 1.7-.7.5.4.9-.7.9-2.3s.7-4.7 1.7-6.8l1.6-3.9.8 3.3c.3 1.8.9 3.5 1.1 3.7.2.3 2.1-2.5 4.2-6.1l3.8-6.6 3.6 6.1c2.2 3.9 3.8 5.7 4.2 4.9.4-.7.3-5.7-.3-11.1-.5-5.4-.8-10-.5-10.2.3-.3 3 0 6.2.6 5.4 1 9.6.6 9.6-.9 0-.4-1.6-1.6-3.5-2.6-1.9-1.1-4.1-2.6-4.8-3.5-1-1.2-.9-1.3.2-.6 1.1.6 1.3.3.8-1.6-2.4-8.6-2.3-9.2 4.6-20.3 3.6-5.8 7.6-12.8 8.9-15.6 1.2-2.7 2.6-5 3.1-5 .4 0 1.2 1.2 1.7 2.6M231.9 72c0 .9-.6.4-1.4-1s-1.4-3.2-1.4-4c0-.9.6-.4 1.4 1s1.4 3.2 1.4 4m18.5 7.6c4.2 2 7.5 3.8 7.3 4-.9 1-10.7-2.9-15.2-6-2.7-2-6-4-7.2-4.5-1.3-.6-2.3-1.8-2.3-2.7 0-1.2 1.2-.7 4.9 2 2.6 2 8.3 5.2 12.5 7.2M236 75c0 .5.7 1 1.5 1s1.9.9 2.5 2 1.5 1.8 2.1 1.5c.5-.4.9-.1.9.4 0 .6.3 1 .8.9.4-.1 1.6.3 2.7.9s5 1.7 8.5 2.3c13.4 2.5 14.2 2.8 7.4 2.9-6.6.1-14.5-1.9-20.2-5.1-6.1-3.3-10.2-7.8-7.2-7.8.6 0 1 .4 1 1m40.9 38.1c-2.3 1.8-2.4 1.8-2.7 0-.2-1.1.4-3.6 1.4-5.7l1.7-3.9 1 3.9c.9 3.5.7 4.1-1.4 5.7m84 37.4c-1 1.1-3.4 5.8-5.4 10.5s-4 8.9-4.5 9.4c-.7.7-10-5-10-6.1 0-.7 14.2-17.7 16.3-19.6 1.9-1.7 2-1.7 3.7 1s1.7 2.9-.1 4.8m-203.1.7c2.7 3.5 6 7.2 7.2 8.3 4.4 4 4.4 5.2-.1 9.6-2.3 2.2-4.5 3.7-4.9 3.2-.4-.4-2.5-4.8-4.6-9.7-2-4.8-4.6-9.6-5.6-10.5-1.5-1.5-1.6-2.1-.5-4.4.6-1.5 1.7-2.7 2.4-2.7.6 0 3.4 2.8 6.1 6.2"/><path d="M0 171.2c0 31.3.2 36.7 1.5 37.8 1.2 1 1.8 1 3.1-.1 1.5-1.2 1.6-3.2 1-16.9-2.1-48-2.4-52.9-4-55.2-1.5-2.1-1.6.7-1.6 34.4m510.6-13.5c-1.1 20.8-1.6 29.5-2.1 34-.6 5.5.4 10.3 2.1 10.3 1.2 0 1.4-5 1.4-28.5 0-15.7-.2-28.5-.3-28.5-.2 0-.7 5.7-1.1 12.7"/></svg>