<svg xmlns="http://www.w3.org/2000/svg" width="682.667" height="512" version="1.0" viewBox="0 0 512 384"><path d="M147.6 1.2c1.9 3.3 14.2 18.8 18.3 23 4.9 5.2 6.4 5.7 9.3 3.1 2.5-2.2 4.5-.5 2.9 2.5-1.7 3.3-1.4 4.4.9 3.2 6-3.2-2.2 6.8-10.4 12.7-2.8 2-5.3 3.9-5.6 4.1s.3.9 1.2 1.6c1.2.9 3.5 1 8 .5 3.5-.4 6.4-.6 6.5-.5s-.5 4.4-1.3 9.5c-2 12.7-1.6 13.3 4 5.8 1.5-2.1 3.2-3.5 3.6-3 .4.4 1.8 5.1 3 10.3 2.8 11.7 3.1 12.2 4.5 8l1.2-3.5 1.5 7.5c1.4 7 1.6 7.3 2.3 4.2.9-4 1.8-3.3 3.5 3.1s3 6.8 3.1 1c.1-2.6.4-5.9.8-7.3.7-2.4.8-2.3 1.9 1.4.6 2.2 1.7 6.5 2.3 9.5 1.4 6.3 2.9 8.9 2.9 4.9 0-1.4.3-4 .7-5.9.5-2.8.7-3 1.4-1.4.4 1.1.8 3.3.9 5l.2 3 1.3-3c.8-1.7 1.4-2.4 1.5-1.8 0 2.4 1.9 1.3 2.4-1.5.2-1.5.3 1.2.1 5.9-.4 12.5 1.2 13.8 4.4 3.6 1.4-4.2 1.7-4.3 4.3-2 1.4 1.2 1.8 1.3 1.8.3 0-1.8 2.9 2 3 3.8 0 1-.8 1.2-2.7.8-4.7-1-5.6.4-3.9 5.5 2.9 8.3 2.7 8.5-13.9 13.8-13.5 4.4-22.8 9-30.2 15l-6.2 5-2.9-4.7c-1.6-2.6-4.9-8-7.2-12-6.1-10.4-6.6-10.6-18.1-8.5-13.8 2.5-46.7 2.5-56.4-.1-9.4-2.5-20.5-7.7-35-16.6-6.6-4-21-11.8-32-17.3S4.3 78.9 2.8 77.8L0 75.9v10.8c0 12.2-.8 10.9 10.1 16.4 4.7 2.4 5.7 3.4 5 4.6-.4.9-.6 2.4-.3 3.5.3 1.2-.6 3.1-2.5 5.1-2.4 2.5-3.5 5.2-5.2 12.7-1.2 5.2-2.1 10.2-2.1 11.1 0 1.3 10.3 26.8 25.2 62.2 4.5 10.7 6 12.6 8.2 10.8 1.6-1.3 2-4.5 4.1-28.1.8-9.6 2.2-24.5 3.1-33l1.6-15.5-5.2-9.2c-2.8-5.1-6.5-10.3-8.1-11.7-3-2.5-3.6-4.1-2-5.1 1.3-.8 12.9 3.7 18.2 7.1 2.4 1.5 6.9 4.7 10.1 7 4.8 3.7 5.7 5 6.3 8.5.7 3.8.5 4.3-2.9 7.1-2.4 1.9-3.9 4.3-4.6 7.1-.6 2.3-2 7.5-3.2 11.5-1.7 5.8-1.9 7.7-.9 9.5.6 1.2 2.9 7.6 5.2 14.2 7.3 21.8 19.1 55 20.6 57.7.7 1.6 1.8 2.8 2.3 2.8 1.9 0 3.7-5.7 4.9-15 .6-5.2 2.7-20.8 4.6-34.5 1.9-13.8 3.5-26.7 3.5-28.7 0-5-7.9-21.8-11.6-24.7l-2.9-2.2 23.8.3c22.2.3 24 .5 25.3 2.3 1.8 2.4 1.8 4.5.1 4.5-.7 0-2.9 1.7-4.9 3.7-2.7 2.9-4.4 6.4-7.1 14.6-3.4 10.2-3.5 11-2.2 15 .7 2.3 4.2 14.3 7.6 26.7s6.6 23.3 7.1 24.3c1.2 2.3 3.2 1.9 14.3-2.4 2.1-.8 6.7-2 10-2.6 1.1-.2 2.7-.6 3.5-.9.8-.4 2.8-.8 4.4-1s3.4-.8 4-1.2c.6-.5 2.1-.9 3.4-1 1.8-.1 10.9-1.8 14.2-2.7.3-.1 3.2-.5 6.5-.9s10.1-1.4 15-2.2c24.2-3.6 72.6-7.7 125-10.4 11-.6 24.1-1.2 29-1.5 22.4-1.2 26.5-1.7 27.4-3.4 1.6-3 7.2-23.5 7.7-28.1.2-2.5.7-6.1 1-8 .6-3.4 1.2-8.1 1.3-10.9.1-.8.4-1.1.8-.7s.6 3.5.5 6.9l-.3 6.2 2.3-3.5c1.3-1.9 2.7-4.3 3.1-5.3.3-.9 1-1.7 1.5-1.7s1.2-1.7 1.6-3.8c.7-4.5 4.4-13.4 6-14.4.6-.4 4.9-.8 9.6-.8h8.5l-3.1 2c-2.2 1.4-4.5 5-8.3 12.8l-5.2 10.9 2.6 17.7c1.4 9.8 3 18.7 3.6 19.7.9 1.7 1.9 1.9 11.2 1.3 5.6-.3 10.7-.7 11.3-.9 1.2-.3 3.6-5.9 10.5-23.9l4.1-10.8-2.7-11.3c-2.3-9.8-3.1-11.7-6.1-14.6-4.7-4.6-4.7-8.9.1-13.4 7.8-7.4 20.2-14.5 31.3-17.9 3.3-1.1 2.9 2.5-.7 5.2-1.6 1.1-5.3 6.3-8.2 11.3l-5.2 9.2 1.1 16.6c2.2 30.8 3.2 41.1 4.5 44.8 1.2 3.6 1.4 3.8 5.2 3.5 2.2-.2 4.5-.8 5.1-1.3.7-.5 4.2-7.8 7.9-16.2 3.8-8.4 8.4-18.6 10.3-22.7s4.7-10.3 6.1-13.7l2.7-6.2-2.1-10.5c-1.7-8.3-2.8-11.4-5.1-14.3-2-2.5-2.9-4.7-2.8-7.1.1-3 .6-3.7 6-6.6l5.9-3.3.3-10.5.3-10.5-20.1 9.9c-18.4 9-33.5 17.2-40.1 21.9-4.4 3.1-21 11.1-28.3 13.5l-6.8 2.4.8-3.8c.4-2 .8-5.4.9-7.5 0-2 .3-3.7.8-3.7.4 0 .7.5.7 1.1s.7 1.7 1.5 2.5c1.3 1.4 1.5 1.3 1.5-.8 0-4.1-3-28.1-5-39.8-1.7-10.4-1.7-11.6-.3-13.2 1.3-1.5 1.4-2.3 0-7.5-1-4-1.2-8.1-.8-13.4.6-7.2.9-7.8 5.9-14.2C427.4 15.8 434 3.6 434 1c0-.7-51-1-143.6-1C175.9 0 147 .3 147.6 1.2m222.2 29c1.7 1.7 1.5 10.3-.9 31.6-2.4 21.7-2.2 45.8.5 55.2.8 3 1.4 5.5 1.3 5.7-.2.1-4.5-.2-9.5-.8-7.8-1-9.6-.9-11.5.4-1.2.8-5.3 6.6-9 12.8-3.6 6.3-7.8 12.7-9.1 14.4l-2.5 3-3.1-3.8c-3.7-4.3-13.3-11.4-20.5-14.9-2.7-1.4-9.4-4-14.7-5.7-5.3-1.8-10.2-3.8-10.8-4.6-1.2-1.4-.4-8.1 1-9 .5-.3 1.4-3.1 2-6.3 2-9.6 2.7-8.9 2.3 2.5-.4 9.9-.3 10.6 1.1 8.9.9-1.1 1.6-2.3 1.6-2.8 0-.4.8-.8 1.8-.8 1.2 0 3.2-2.6 6.2-8.3l4.4-8.2 1.3 8c.8 4.4 2 8.4 2.7 9 .7.5 1.7 3.2 2.1 6l.9 5 .8-6c.4-3.3 1.1-9.2 1.5-13 .8-6.6.8-6.3 1.3 7l.5 14 1.9-11.3c1-6.1 2.3-11.2 2.7-11.2.5 0 .9 1 .9 2.2 0 1.7.3 1.9 1.2 1 .8-.8 1.5-.9 2.5-.1 1 .9 1.3.3 1.3-3.4 0-4.9 1.7-10 3.1-9.1.5.3.9 1.6.9 3 0 3.9 1.7 2.8 5.2-3.6 1.8-3.3 3.5-6 3.8-6s1.8 2.5 3.4 5.5 3.5 5.5 4.3 5.5c1 0 1.3-.6.9-1.6-.9-2.4-2-18-1.3-19.7.4-1.2 1.4-1.3 5.6-.5 2.7.6 6.7.7 8.7.3l3.8-.7-4.9-2.6-4.9-2.7-.3-7.6-.4-7.6 5.4-8.5c2.9-4.7 6.9-11.5 8.8-15.2 1.9-3.6 3.6-6.6 4-6.6.3 0 1 .5 1.7 1.2M230.9 66c0 .9-.6.4-1.4-1s-1.4-3.2-1.4-4c0-.9.6-.4 1.4 1s1.4 3.2 1.4 4m20.3 9c5.6 2.6 6 2.9 3.3 3.1-1.6 0 .2.7 4.2 1.3 9.1 1.5 10.3 2.6 3.1 2.6-10.6 0-27.8-7.5-27.8-12.2 0-1.9.1-1.9 3 .2 1.7 1.2 3 2.6 3 3.1s.3.8.8.7c1.4-.3 4.2 1.4 3.7 2.2-.3.5.3.8 1.2.8 1 0 2.7.2 3.8.6s.2-.3-2-1.5-5.8-3.6-8-5.3c-2.2-1.8-4.8-3.5-5.7-3.9-1-.3-1.8-1.3-1.8-2.1 0-1.1 2.1-.1 6.4 3 3.6 2.4 9.3 5.8 12.8 7.4m-17.5 28.7c-.2 1.6-.4.5-.4-2.2 0-2.8.2-4 .4-2.8.2 1.3.2 3.5 0 5m45.3.8c.7 3.2.6 3.8-1.1 4.2-1 .3-1.9.9-1.9 1.4s-.4.9-1 .9c-1.4 0-1.2-2.4.6-7 1.9-4.7 2.3-4.6 3.4.5m84.8 38.7c1 2.8 1 3.5-.3 4.4-.8.6-3.3 5.6-5.6 11-2.2 5.4-4.3 10.1-4.5 10.3-.4.4-10.4-6.8-10.4-7.6 0-1.2 17.9-21.3 19-21.3.3 0 1.1 1.5 1.8 3.2m-213.2-.4c.6.4 4.6 4.9 8.9 10.1l7.7 9.3-4.3 4.4c-2.3 2.4-4.6 4.1-5 3.9-.4-.3-2.4-4.5-4.4-9.4-2.1-5-4.6-9.9-5.7-11.1-1.7-1.8-1.8-2.5-.8-5.1 1.3-3 1.8-3.3 3.6-2.1M427 237c0 .5.5 1 1 1 .6 0 1-.5 1-1 0-.6-.4-1-1-1-.5 0-1 .4-1 1m-71.5 2.7c-2.7.2-22.1 1.2-43 2.3-69.9 3.8-115.9 7.7-137.1 11.6-4.5.8-12.4 1.8-17.5 2.1-12.9.7-16 .9-18.6 1.1-1.7.2-2.6 1.5-4.3 5.8-2.8 7.5-8.4 29.6-10.6 41.5l-1.7 9.6-6.6 3.1c-5.9 2.7-21.1 11.7-39.1 23-31.7 20-47.1 29.1-49.2 29.2-.9 0-3-1.9-4.6-4.3-3-4.2-8.6-9.7-15.5-15-2-1.5-4.6-4.4-5.7-6.5l-1.9-3.7-.1 22.2V384h95.9l15.9-9.3c20.4-12 27.5-16.9 32.9-22.6 8.9-9.2 15-22.1 27.2-57.6 6.2-18.1 8.9-25 7.4-19-.4 1.6-.8 17.2-.9 34.5-.3 49.2-.9 65.2-2.8 68.8-.9 1.7-1.6 3.6-1.6 4.2 0 .7 25.4 1 82 1 56.1 0 82-.3 82-1 0-.6-.9-2.8-2-4.9-2.7-5.3-3.7-12.1-2-13.1 1.1-.7 1-3.7-.4-16.7-1-8.7-1.8-19.2-1.8-23.3-.1-10.2 1.2-25.9 2.2-26.5.5-.3 1.8 2.5 3.1 6.2 1.2 3.8 4.1 11.8 6.4 17.8 10.5 27.4 16 33.1 49 51.5l18.1 10H512v-27.2c0-29.2 0-29.4-4.5-18.8-2.1 5-7.4 13-8.6 13-1.9 0-8.2 6.7-10.5 11.2-1.4 2.7-3.2 5.2-4.1 5.5-2 .8-13.1-5-40.8-21-31.9-18.5-39.6-22.8-50.3-28-7.4-3.6-10.4-5.6-10.7-7.1-.2-1.2-1.1-6.8-2-12.5-3.6-22.8-15.1-60.3-18.4-59.9-.9.1-3.8.3-6.6.5"/><path d="M367.6 243.2c.7 4.5 2.8 8.8 4.3 8.8.9 0 3.1-5.2 4.6-10.8.6-2.1.3-2.2-4.4-2.2H367z"/></svg>