<svg xmlns="http://www.w3.org/2000/svg" width="682.667" height="512" version="1.0" viewBox="0 0 512 384"><path d="M153.1 1.7c13 15.7 14 16.4 17.6 13 2.9-2.6 4-1.5 2.6 2.4-1.1 2.8-1 3 1 2.7 1.2-.1 2.2.2 2.3.7.2 2-5.3 7.8-12.3 12.9-7 5.2-7.1 5.4-4.7 6.4 1.5.7 5 .9 9 .6l6.5-.6-.5 3.3c-1.9 11.1-2.6 17.2-2 17.8s7.4-6.8 7.4-8.2c0-.4.4-.7.9-.7s1.4 2.4 2.1 5.2c.7 2.9 2.1 8.4 3.3 12.3l2 7 1.2-3.9 1.1-3.9 1.3 7.2c1.3 7.3 2.6 8.3 3.3 2.6.3-2.5.7-1.8 2.7 4.5 2.1 6.5 2.5 7.2 3.2 5 .4-1.4.7-4.4.8-6.7.2-7.4 1.9-5.6 4.1 4.4 2.6 11.5 4 13.7 4.1 6.8.1-2.8.4-6.1.8-7.5.7-2.1.9-1.8 1.5 2.5 1.1 7.1 1.2 7.3 2.6 4 1.1-2.8 1.3-2.8 2-1 .8 1.8.9 1.8 1.1-.5.2-1.4.5 1.8.9 7l.6 9.5 2.8-6.2c2.8-5.9 3-6.2 4.3-4.3 2.4 3.4 4.7 2.1 5.4-3 .6-3.9.6-3.6.5 2l-.1 6.5-3.7-.3c-4.4-.4-4.5 0-2.2 7.8 1.5 5.1 1.5 5.5-.3 6.7-1 .8-5.6 2.5-10.3 4-17.6 5.3-29.4 11.1-37.9 18.8-2.2 2-4.5 3.4-5 3.1-.5-.4-4.2-6-8.2-12.7-4-6.8-8.1-12.5-9.4-13.1-1.6-.7-4.9-.5-11.6.7-5.2.9-17 1.9-26.4 2.2-29.2.9-40.3-2.2-68.1-18.9C34.4 90.8 3.5 75 1 75c-.6 0-1 4.5-1 10.5 0 10 .1 10.6 2.3 11.6 3.2 1.5 3.2 8.3-.1 10.9C0 109.8 0 110.2 0 132.2 0 154.1.5 158 3.8 166c.6 1.4 4.3 11.5 8.2 22.5 7.7 21.4 9.1 24 12.1 22.5 2-1.1 3-5.4 5.3-23 .9-6.3 2.9-21.6 4.6-33.9l3.1-22.4-4.9-10.3c-3.2-6.5-6.1-11-8-12.4-3.7-2.8-3.4-6.5.5-5.5 6.6 1.6 13.7 5 20.5 9.8 12.8 9 12.8 9 12.8 13.8 0 3.9-.4 4.7-3.5 6.8-2.9 2-3.8 3.6-5.9 10.5-5.2 17.3-5.5 13.4 2.8 39.5 4.1 12.8 7.8 23.7 8.3 24.2.6.6 5 .7 10.5.3l9.6-.7 1.1-4.1c.7-2.3 2.7-13.4 4.6-24.8l3.4-20.7-4.5-10.3c-2.8-6.3-5.6-11.3-7.4-12.9-1.7-1.4-3-2.9-3-3.4 0-.9 40.3.1 47 1.2 6.1 1.1 6.1 3.8.1 8.4-4 3.1-4.8 4.5-8.8 15.2l-4.3 11.8 4.4 17.6c2.4 9.6 4.8 17.9 5.3 18.3.4.5 8.7.4 18.3-.1 52.2-2.7 94.5-4.6 130-5.9 53-1.8 95.2-3 112.7-3h17.1l1.1-3.3c2.2-7.1 5.9-23.6 6.6-29.7 1.2-10 1.4-11.2 2.4-15 .8-3.1.9-2.8 1.1 3.5.1 3.8.4 6.4.7 5.7.2-.6.9-1 1.4-.6.5.3.8.2.7-.3-.3-1.2 3.1-7.3 4.1-7.3.5 0 1.1-1.9 1.5-4.1.5-3.3 3.9-12.9 5.2-14.7.2-.3 15.2-.5 17.9-.3.6.1-.4.9-2 2-2.4 1.4-4.3 4.5-8.3 13.4l-5.3 11.6 2.1 12.3c2.8 16.8 4.1 23 5.1 25 .9 1.6 2.6 1.8 13.3 1.8h12.3l3-8.8c1.7-4.8 4.5-13.1 6.4-18.4l3.3-9.8-1.6-6.2c-4.1-16-4.6-17.2-8.6-20.8-3.7-3.3-3.9-3.8-3.3-7.6.7-4.5 1.8-5.7 13.1-13.6 6.6-4.6 15.8-9 21.8-10.3 2.7-.6 3.2-.4 3.2 1.2 0 1.1-1.4 2.9-3 4.1-1.9 1.4-4.9 6.1-8.1 12.5l-5.1 10.1L478 138c3 26.9 6.1 49.1 7.2 52.6 1.3 3.8 1.5 3.9 6.4 4.2 6 .4 5 1.9 13.9-21.2l6.5-16.9v-26.8c0-16.8-.4-27-1-27.4-1.3-.8-1.3-7.8 0-9.1.7-.7 1-5.3.8-11.7l-.3-10.6-16 7.8c-8.8 4.3-20.7 10.7-26.5 14.2-15.1 9.4-26.4 15.3-34.8 18.3-4 1.4-7.6 2.6-7.9 2.6s-.2-2.1.1-4.8c.4-2.6.7-6.2.8-7.9.1-2.8.4-3.1 1.7-2 .9.6 1.9 1.6 2.3 2.2.5.6.8.4.8-.5 0-3.3-3.1-28.8-5-41.1-1.5-9.5-1.8-13.5-1-14.4.8-1 .6-2.9-.6-7.1-1.3-4.5-1.5-7.8-1-14.3.6-8.3.7-8.5 5.9-15 2.9-3.6 5.7-7.2 6.1-7.9.6-.9-28.1-1.2-142-1.2-135.8 0-142.6.1-141.3 1.7m223.5 29.6c-.4 7.7-1.6 20.8-2.6 29.1-2.2 16.8-2.5 29.4-1 35.8.6 2.4 1.8 7.8 2.8 12.1l1.9 7.9-2.6-.6c-1.4-.3-6.7-.9-11.7-1.2l-9-.7-2.3 2.9c-1.2 1.6-5.1 7.8-8.7 13.9-3.6 6-7.3 12-8.4 13.3l-1.9 2.2-7.1-7c-5.7-5.6-9.1-8-17.3-11.9-5.6-2.7-13.8-6.1-18.2-7.6-10.9-3.6-11.4-4.3-9.2-10.3 1-2.6 2.5-7.4 3.3-10.7.8-3.2 1.6-6.1 1.8-6.3.2-.1.1 4.8-.2 11-.5 10.1-.3 11.2 1 10 .9-.7 1.9-2.5 2.3-3.9.4-1.8.9-2.3 1.4-1.5 1.1 1.8 3.1-.8 7.7-9.8l3.8-7.5.7 4c.4 2.2 1.1 6.2 1.6 9 .5 3 1.3 4.9 2 4.8.7-.2 1.5 1.4 1.8 3.5 1.6 10 2.2 9.8 2.9-1.4 1.3-18.1 2.4-19.8 2.6-3.9.2 15 .9 15 3.1.2.6-4.2 1.5-7.7 2-7.7s.9.7.9 1.5c0 2 1.6 1.9 2.4-.1.3-.8 1-1.3 1.5-1 1.1.7 2.1-1.7 2.1-5 0-1.4.6-3.5 1.2-4.7 1.2-2.1 1.3-2.1 1.8 1.1.3 1.8 1 3.3 1.5 3.4.6 0 2.6-3 4.6-6.6l3.6-6.7 3.8 6.6c2.1 3.6 4.3 6.5 4.8 6.5.6 0 .7-1.8.4-4.3-1.3-9.5-1.9-17.7-1.4-19 .4-1.1 1.6-1.1 6.5-.3 6.7 1.1 14.6-.3 10.7-1.9-5.2-2.2-11.3-6.7-12.3-9.2l-1.2-2.8 2 2.3c3 3.6 4.2 1.9 3.4-4.8l-.6-5.7 8.1-13.4c4.4-7.4 8.5-14.9 9.2-16.7 1-2.8 1.3-3 3.1-2.1 2 1.1 2.1 1.7 1.4 15.2M228.5 51c1.7 3.4 1.8 4 .6 4-.5 0-1.1-.8-1.4-1.8-.2-.9-.8-2.5-1.2-3.5-1.2-2.8.3-1.9 2 1.3m6.8 3.4c4.9 3.7 12.7 8.1 18 10.1 2.6 1 4.5 2 4.3 2.3-1.3 1.2-10.8-2.5-17.5-6.9-4.1-2.7-7.8-4.9-8.2-4.9-.5 0-.9-.7-.9-1.5 0-2 .6-1.9 4.3.9m10.8 10.5c2.4 1.1 8.7 2.7 13.9 3.6s9.7 1.9 10 2.2-3.5.3-8.5.1c-6.4-.4-10.6-1.2-14.7-3-8.1-3.4-14.9-8.3-14.2-10.3.5-1.2 1.5-.8 4.8 2 2.4 1.9 6.2 4.3 8.7 5.4m34.1 31.5c.2 2.8-.1 4.1-1.2 4.4-.8.3-1.9 1.2-2.4 2-.6 1.1-1 1.1-1.6.2-.9-1.4 3-12.4 4.1-11.3.4.4.9 2.6 1.1 4.7m87.8 39.4c0 1 .5 2.3 1.1 2.9.9.9.6 1.8-.9 3.7-1.1 1.5-3.7 6.9-5.7 12.1l-3.7 9.5-3.6-2.8c-2.1-1.6-4.7-3.4-6-4.1-2.1-1.1-2-1.4 6.9-12.1 8.7-10.6 11.9-13 11.9-9.2m-214 10c4.4 5.3 8 9.9 8 10.2s-2.2 2.7-4.8 5.3l-4.8 4.7-4.3-10.4c-2.3-5.7-5-11.1-6-12-1.7-1.5-1.7-1.9-.2-5 .9-1.9 2.2-3.1 2.9-2.8.7.2 4.8 4.7 9.2 10m223.3 86.9c-2.6.3-3.3.9-3.3 2.6.1 4.2 2.9 14 4.5 15.6 1.5 1.5 1.7 1.4 3.1-.4 1.9-2.6 3.7-9 3.8-14 .1-4.4-.7-4.8-8.1-3.8m59.7 1.7c0 1.3.6 2.8 1.3 3.4 1 .9 1.7.5 3-1.7 1.9-3.2 1.4-4.1-2-4.1-1.8 0-2.3.6-2.3 2.4"/><path d="M316 233.7c-67.7 1.9-173.2 5.9-183.9 6.9l-5.3.6.6 4c.4 2.2 1.3 5.3 2.1 6.8 1.3 2.5 1.3 3.4-.1 7.2-3.4 9.7-9.3 32.1-11.4 43.8l-2.3 12.5-9.6 4.7c-9.2 4.5-17.9 9.6-57.6 34.3-36 22.3-36.2 22.4-39.5 17.1-1.2-2-3.7-5.5-5.6-7.7L0 359.8V384h97.3l11.1-6.7c26.2-15.6 32.7-21.2 39.6-33.6 4.8-8.7 11.7-25.9 20.2-50.3l6.3-18-.1 34c-.1 18.8-.7 39.4-1.4 45.9-.9 9-.9 12.2 0 13.2.7.8.9 1.8.6 2.4-.4.5-.8 3.7-1 7l-.3 6.1h84c79.5 0 83.9-.1 83.2-1.7-.9-2.2-2.4-9.2-2.5-11.6 0-1.1.4-1.5 1.2-1.1 1.2.8.9-6.1-1.5-30.8-1-10.1-1-15.3 0-25 .6-6.8 1.2-13.2 1.3-14.3s2.8 5.4 6.1 14.5c9.6 26.5 13.6 34 23.4 43.5 6.7 6.6 11.1 9.6 24.5 17.3l16.4 9.2H512v-13c0-12.2-.1-13-1.8-12.1-2.6 1.4-4.7 4-7.7 9.8-1.5 2.9-3.4 5.3-4.1 5.3-2.6 0-18-8.4-60.9-33.2-11.1-6.4-26.5-14.8-34.3-18.7-12.3-6.1-14.2-7.4-14.2-9.5 0-9.6-8-42.7-15.7-65.1l-4.8-14h-21c-11.6-.1-25.7 0-31.5.2"/></svg>