<svg xmlns="http://www.w3.org/2000/svg" width="682.667" height="512" version="1.0" viewBox="0 0 512 384"><path d="M160.5 1c.3.5 1.5 1 2.5 1s2.2-.5 2.5-1c.4-.6-.7-1-2.5-1s-2.9.4-2.5 1m8.8.2c-2.5 3.2-2.5 3.9.1 3.4 1.3-.2 3 .1 3.5.8 1.4 1.7-7.2 10.7-14.6 15.6-5.7 3.6-6.1 4.1-3.8 6 1.1.9 3.5 1.1 8.5.6l7-.7-.1 3.3c0 1.8-.6 6.8-1.3 11.1-1.4 8.8-.5 10.7 2.8 6.1 1.2-1.6 3-4 4.2-5.3l2.1-2.4 2.2 8.9c3.8 15.3 4.2 16.5 5.1 15.9.6-.4 1-1.5 1-2.6 0-4.2 1.7-1.5 3 4.8l1.4 6.8 1.1-4 1.2-4 2.2 7.4c2.6 8.4 4.1 8.2 4.1-.7 0-8.8 2.2-6.4 5 5.5 2.5 11.2 3.7 11.6 3.9 1.1.1-6.8 2.1-7.2 2.1-.4 0 5.6 1.3 7.4 2.5 3.5.5-1.5 1-1.8 2-.9 1.1.9 1.5.3 1.8-3.2.3-2.4.4.7.2 6.8-.3 13.3.6 15.8 3.3 9.4 1-2.5 2.2-5.6 2.6-6.8l.8-2.4 2.2 2.1c2.4 2.3 3.8 1.9 3-.7-.4-1.2-.1-1 .8.3 1.2 1.8 1.4 1.4 1.9-4 .6-5.9.6-5.8.7 2.4.2 7.6 0 8.2-1.5 7.5-1.9-.8-6.1-.9-6.9-.2-.2.3.4 3.5 1.3 7.2 2.1 8 2.8 7.4-11.2 11.7-20.5 6.4-30.8 11.5-40.3 20.3-3.5 3.3-4.5 3.7-5.3 2.5-.5-.8-2.8-4.6-5.1-8.4-7.3-12.6-10-16.5-12-17.6-1.3-.7-4.7-.6-11.6.5-17.3 2.7-35.2 3.7-46.9 2.6-19.5-1.8-30.2-5.9-55.3-21.1C25.6 83 2.5 71 .6 71 .3 71 0 98.9 0 133.1c0 53.1.2 62.9 1.5 67.4 2 6.6 3.2 7.8 6.5 6.2 3-1.5 4.3-6.3 9.5-34.5 2-10.8 4.7-25.5 6.1-32.6l2.6-12.9-4.7-11.1c-3-7.1-5.7-12-7.6-13.7-1.6-1.4-2.9-3.6-2.9-4.8 0-2 .3-2.2 3.2-1.6 6.1 1.3 17.4 7.2 25.8 13.4 8.2 5.9 8.4 6.2 8.6 10.5.3 4.1 0 4.6-3.1 6.5-4.1 2.4-5.3 4.6-9.5 17.6l-3.2 10 6.7 24c3.6 13.2 7.2 24.6 8 25.4 1 1.1 3.4 1.2 11.7.5l10.3-.9 1.1-3.5c.7-1.9 3.1-12.9 5.4-24.3l4.3-20.8-4.3-11.2c-3.3-8.5-5.1-11.9-7.8-14.3l-3.5-3.1 2.9-.6c3.9-.8 42-.1 46.7.8 4.2.9 7 4.2 4.6 5.6-7.8 4.3-9.4 6.4-14.2 18.8l-4.8 12.3 4.1 18.2c2.3 9.9 4.6 18.6 5.2 19.3s3.3 1 7.6.7c6-.3 41-1.6 116.2-4.4 14-.5 57.9-.9 97.5-1 39.5 0 72.3-.4 72.7-.8 1.2-1.2 7.8-31.1 7.7-34.7-.1-4.1 3.4-22.1 4.5-23.2.5-.5.6 1.5.3 4.7-.3 3-.2 6.3.2 7.3.5 1.4 1.2.8 3.6-3.2 1.6-2.8 3.2-4.8 3.7-4.5.4.3.8-.8.8-2.4 0-3.2 3.5-14.1 5-15.6 1.2-1.2 18-1.8 18-.6 0 .5-1.1 1.7-2.5 2.8-2.5 2-4.7 6.2-9.9 19.4l-2.7 6.7 2.6 13.3c3.4 17.4 5.3 25.7 6.6 29.1l1.2 2.8 12.1-.3 12.1-.3 2.2-6.5c1.2-3.6 4.3-13.6 6.8-22.2l4.6-15.7-3.7-11.8c-3.1-9.9-4.2-12.3-7.2-15-2-1.8-3.9-3.3-4.4-3.3-.4 0-.6-2.1-.4-4.7.4-4.4.8-4.9 6.2-9.1 10.2-7.7 16.5-11.4 24.5-14.3 4.4-1.6 7.9-2.8 8-2.6 1 3.3.6 4.8-2 6.6-1.5 1.1-3.8 4.4-5.1 7.3-1.2 2.9-3.6 8.2-5.2 11.7l-2.9 6.5 2.1 12c1.2 6.7 2.8 15.7 3.6 20.1s2.6 14.5 4 22.5 3.1 15.5 3.9 16.6c1 1.5 2.7 2.3 5.7 2.6 2.4.3 4.4.4 4.6.3.1-.1.1-29.3 0-64.8l-.3-64.7-11.5 5.8c-6.3 3.2-16.9 9.1-23.4 13.1-18.5 11.2-39.3 21-41.6 19.6-.5-.3-.5-1.8 0-3.3.4-1.6 1.1-5.7 1.5-9.2.5-4.1 1-5.8 1.6-4.9.5.8.9.9.9.4.1-.6.7.3 1.5 2 1.4 2.8 1.4 2.5.9-4.5-.3-4.1-1.7-16.3-3.2-27-1.4-10.7-2.6-21.8-2.7-24.5-.1-2.8-.8-6.8-1.5-8.9-.9-2.7-1.1-7.3-.8-14.8l.6-10.8h-26.7c-23.4.1-26.4.2-24.7 1.5 1.8 1.4 1.9 2.4 1.3 15.7-.4 7.9-1.4 19.2-2.2 25.3-2.5 19.3-2.9 35.9-1.1 46 .9 4.9 2.3 11.2 3.1 13.9s1.3 5.1 1.1 5.4c-.3.2-3.6-.1-7.5-.7-3.8-.6-9.4-1.1-12.5-1.1-4.9 0-5.7.3-8.1 3.1-1.4 1.8-3.8 5.5-5.2 8.3-2.1 4.3-13 21.6-13.6 21.6-.1 0-3.8-3.5-8.3-7.8-9.1-8.9-20-14.9-36.4-20.2-5.2-1.7-10-3.8-10.7-4.6-1.2-1.6-.3-6.4 1.5-8.7.6-.7 1.3-3.2 1.7-5.7.4-2.4 1.3-6 2.1-8l1.3-3.5-.4 5.5c-.3 3-.7 8.5-1 12.2-.6 7.3.6 9.5 2.5 4.8.8-1.9 1.9-2.9 2.9-2.8 1.1.2 3.1-2.6 6.6-9.4 2.7-5.3 5.2-9.5 5.6-9.2.3.2.9 3.7 1.2 7.7.4 4.1 1.1 8.5 1.6 9.8.8 2.2 1 2.3 1.7.5.7-1.9.8-1.9 1.5 0 .4 1 .8 3.8.8 6.1.2 7.7 1.9 4.5 2.5-4.5 1.3-17.2 2.4-18.9 2.5-3.7.2 15 1.1 16 3.1 3.5.6-4.1 1.4-8.3 1.7-9.3.5-1.7.5-1.8 1.8-.1 1.2 1.7 1.3 1.6 2-.5.4-1.4 1.2-2 2.1-1.7 1.4.5 2.1-1.2 2.6-6.7.4-3.9 2.2-3.9 2.6 0 .2 1.8.7 3.3 1.1 3.3.5 0 2.5-3.1 4.5-7 2-3.8 4-7.1 4.4-7.4.4-.2 2.5 2.7 4.6 6.5 4.7 8.3 5.8 7.5 4.6-3.1-1.4-11.8-1.3-17.3.4-16.7 3.3 1.3 15.2 1.7 16.6.7 1-.8 1.1-1.3.3-1.6-2.5-1.1-10.9-7-12.5-8.9-1.9-2.2-2.3-4.5-.9-4.5.5 0 1.5 1 2.3 2.2 2.6 3.8 4 1.4 3.3-5.7-.7-6.2-.7-6.3 4.2-14.1 6.1-9.8 11.8-20 13.2-23.7L380 0H275.1C192.4 0 170 .3 169.3 1.2M228 40.4c-.1 1.9-.2 1.9-1.5-.4-2-3.5-1.9-6.2 0-3.6.8 1.1 1.5 2.9 1.5 4m21.5 9.5c3.3 1.6 6.7 3.1 7.5 3.4 1 .4.7.6-.7.6-3.7.1-11.7-3.3-18-7.8-3.2-2.2-6.4-4.1-7.1-4.1s-1.2-.9-1.2-1.9c0-1.6 1-1.2 6.8 2.6 3.7 2.4 9.4 5.7 12.7 7.2m-12.9-3.4c6 5 12.2 7.5 22.5 9.1 13.4 2.2 15.3 3.5 4.2 3-11.9-.6-23.3-4.8-30.5-11.5-5.7-5.1-2.4-5.7 3.8-.6m44.7 40.7c.4 2.9.2 3.8-.9 3.8-.8 0-1.7.7-2 1.5-.8 2-2.4 1.9-2.4-.2 0-2.8 3.2-10.5 4-9.6.4.4 1 2.5 1.3 4.5m93.2 43.4c1.8 3.3 1.8 3.7.3 4.5-.9.5-3.1 4.6-4.8 9.2-5.8 15.5-5 14.1-7.4 11.9-1.2-1.1-4-3.2-6.3-4.6l-4.1-2.8 9-10.9c5-6 9.6-10.9 10.2-10.9s2 1.6 3.1 3.6m-225.1 9.1 7.9 9.5-5.5 5.5-5.4 5.4-3.8-9.9c-2-5.4-4.7-10.8-5.8-12-1.8-1.8-2-2.5-1.1-4.4.6-1.3 1.4-3.1 1.7-4.1.8-2.6 2.9-.9 12 10m108.1 93.4c-20.3.4-58.8 1.5-85.5 2.3-26.7.9-49.8 1.6-51.4 1.6-2.9 0-2.9 0-2.3 5 .3 2.7 1.5 7 2.6 9.6l2 4.5-3.3 10.2c-3.3 10.3-8.5 31.4-10.8 44.1l-1.3 6.9-11 5.6C86.7 328 74.6 335 54 347.8c-3.6 2.2-11 6.7-16.5 10.1s-16.2 9.9-23.8 14.4C4.3 377.9 0 381 0 382.2c0 1.7 2.6 1.8 49.3 1.8h49.2l12-7.5c20.8-12.9 28.6-21.5 37-40.3 3.7-8.4 7-17.4 19.8-52.8l2.2-6.2-.1 36.7c0 20.1-.6 41.5-1.2 47.6-.8 7.4-.8 11.1-.1 11.5.7.5.7 2.1 0 5.1-.6 2.4-1.1 4.7-1.1 5.1 0 .5 39.4.8 87.5.8H342v-4c0-2.2.4-4 .9-4 1.6 0 2.1-4.6 1.1-10.1-2.2-11.7-3.7-36.3-2.8-45.9.5-5.2.9-12.1 1-15.3.1-6.8.7-6.5 3.8 2.8 1.2 3.8 4.4 12.4 7 19 11.8 30 17.8 37.1 44.4 52.4l8.8 5.1h52.9c64 0 61.5.9 36.2-13.1-9.3-5-25.8-14.4-36.8-20.7-26.1-15-48.6-27.2-55.7-30.1l-5.6-2.3-1.2-8.6c-2.7-19.3-7.4-38.3-15.1-61-2.2-6.4-4.7-12.7-5.5-13.9l-1.4-2.2-39.7.1c-21.9.1-56.4.5-76.8.9"/><path d="M383.7 232.6c-1.9 1.9.5 14.2 3.5 17.3l2 2.2 1.6-2.2c1.4-2 4.1-12.3 4.2-16 0-1.2-1.2-1.6-5.3-1.8-2.9-.1-5.6.1-6 .5m65.9 1.3c-.3.4.3 1.6 1.3 2.5 1.8 1.7 2 1.7 3-.3.6-1.1 1.1-2.2 1.1-2.5 0-.9-4.8-.7-5.4.3"/></svg>