<svg xmlns="http://www.w3.org/2000/svg" width="682.667" height="512" version="1.0" viewBox="0 0 512 384"><path d="M165.5 5.3c-2.8 2.9-7.4 6.8-10.2 8.6-2.9 1.9-5.3 3.8-5.3 4.2 0 2 4.4 3 11 2.5 8.1-.7 7.7-1.6 5.5 11.9-1.8 10.9-1.8 10.5-.2 10.5.7 0 2.8-2 4.7-4.5s3.7-4.5 4.1-4.5c.3 0 1.2 2.1 1.8 4.7 3.3 13.5 5.4 20.3 6.2 20.3.5 0 .9-.9.9-1.9 0-1.1.5-2.3 1-2.6.6-.3 1 .1 1 .9s.5 3.8 1.1 6.6c1.1 5.1 2.9 6 2.9 1.4 0-4 1.6-1.9 3.4 4.5.9 3.3 2.1 6.3 2.5 6.6.5.2 1.2-2.9 1.6-7s1-7.5 1.5-7.5c.7 0 1.2 1.7 4.1 15.2.7 2.9 1.4 5.7 1.8 6.3.7 1.2 1.9-5.5 2.1-11.5.2-5.4 1.3-3.3 2.5 4.5l.7 5 1.2-3c1-2.3 1.4-2.6 2.2-1.5.7 1.1 1.1.3 1.5-3 .4-2.7.7.5.7 8.3.1 7.1.6 12.6 1.1 12.3s1.9-3.2 3.1-6.3c1.3-3.2 2.5-6 2.7-6.2.1-.2 1.3.9 2.5 2.4 2 2.6 2.2 2.6 2.9.9.6-1.4.8-1.5 1-.4.1.8.5-1.4.9-5l.7-6.5.1 8.2c.2 6.6-.1 8.3-1.2 8.3-.8 0-1.8-.5-2.1-1-.8-1.2-4.2-1.3-4.9-.1-.3.4.3 3.8 1.4 7.5l1.9 6.6-2.2 1.4c-1.2.8-7.6 3-14.2 5.1-19.2 5.9-29.9 11.4-38.8 20-2.1 2-4.2 3.4-4.5 3-.4-.3-4.3-6.5-8.7-13.8-9.3-15.4-8.2-14.8-23.8-12-7.9 1.4-15.4 1.8-32.7 1.8-20.8 0-23.1-.2-30.9-2.4-9.3-2.7-26.7-11.1-37.7-18.3-3.9-2.6-12.8-7.6-19.7-11.2L0 68.1v69.7c.1 58.8.3 69.4 1.4 67.9 1.3-1.7 3-8.5 8.1-32.2 1.4-6.6 3.2-14.9 3.9-18.5 7.3-33.2 7.1-31.8 5.3-35.6-1-1.9-3.1-7.1-4.8-11.5-2.1-5.5-4-8.6-6-10.1C6.1 96.4 5 94.7 5 93.2c0-2.3.3-2.4 3.8-1.7 6.1 1.1 16.7 6.4 25.8 13.1 8.4 6 8.6 6.3 8.9 10.6.2 4.2 0 4.6-3.9 7.1-3.8 2.4-4.4 3.4-8.4 14.4-2.3 6.5-4.2 12.4-4.2 13 0 1.4 11.4 45.6 13.2 51.2l1 3.4 10.6-.6c5.8-.3 10.9-1 11.4-1.5 1.1-1.1 4-12 7.3-27.7 1.4-7.2 3.1-14.3 3.6-15.9 1.6-5.2 1-9.3-3.3-20.3-3-7.8-5.1-11.7-7.5-13.9l-3.4-3.1 14.7-.6c12.9-.5 36.7.5 40.2 1.8 2.7 1 1.1 4.4-3.7 7.4-3.2 2.1-5.3 4.4-6.4 6.9-6.8 16.1-8.7 21-8.7 22.7.1 2.3 8.5 40.3 9.1 40.9.2.3 21.1-.4 46.4-1.4s57.3-2.2 71-2.6c13.8-.4 28.4-.8 32.5-.9 4.1-.2 40-.3 79.7-.4 46.5-.1 72.4-.5 72.8-1.2 1.5-2.4 8.3-37.4 7.6-38.8-.5-.8-.3-3.1.5-5.5.8-2.3 1.9-7.4 2.5-11.4s1.3-7.2 1.5-6.9c.2.2.4 4.1.5 8.7l.1 8.4 1.8-3.7c1-2 3-5.1 4.4-6.8 1.5-1.7 2.6-4.3 2.6-6 0-1.5 1-5.3 2.3-8.4l2.2-5.5 6-.1c3.3-.1 7.3-.2 8.8-.3 4-.3 4.1.6.4 4.1-2.3 2.2-4.5 6.5-7.6 14.7l-4.4 11.6 4.2 19.8c2.3 10.8 5 21.6 5.9 24l1.7 4.2 12-.2 12-.3 1.3-4c.8-2.2 3.9-13 6.9-24l5.6-20-4.4-12.6c-3.9-11.6-4.6-12.7-8.6-15.9-2.8-2-4.2-3.8-3.8-4.7.3-.8.5-2.7.5-4.2 0-2.2 1.3-3.7 6.8-7.8 10.3-7.7 16.6-11.3 24.3-13.9 8.7-2.9 8.4-2.9 8.7 0 .1 1.7-.7 3.1-2.6 4.5-2.7 1.9-3.9 4.1-10.2 18.9l-3.1 7.2 7.1 35.3c3.9 19.3 7.8 36.8 8.8 38.7 1.7 3.4 1.7 2.5 2-29.8.1-18.4.1-47.9 0-65.8l-.3-32.4-8.5 4.4c-4.7 2.4-14.4 7.9-21.5 12.1-7.2 4.3-16.4 9.5-20.5 11.6-7.8 4-20.6 9-21.3 8.3-.3-.4 1.3-9.2 2.8-15.3.5-2 .8-2.2 1.6-1 .7 1.2.9 1.2 1-.1 0-1 .3-.8.9.5.7 1.7.9 1.5.9-1.3.1-4.5-2.6-30.2-4.8-45.2-1-6.9-1.9-13.7-1.9-15.1-.1-1.4-.8-4-1.5-5.8-.9-2.2-1.2-5.7-.9-10.7l.5-7.4h-50l-.7 11.7c-.4 6.5-1.4 16.7-2.2 22.8-2.5 18.5-2.9 38.5-1.1 49.5.9 5.3 2.3 11.8 3.2 14.5.8 2.7 1.3 5 1.2 5.1s-5.8-.5-12.6-1.3c-15.2-1.9-15-2-23.5 12.9-3.4 5.9-7.6 12.8-9.4 15.4l-3.4 4.7-5.6-6c-9.6-10.2-20.2-16.4-37.1-21.9-15.2-5-15.4-5.1-14.6-9.4.4-1.9 1.3-4.2 2.1-5.1.8-.8 1.4-2.6 1.4-3.8 0-2.4 3-13.5 3.5-12.9.1.2-.2 5.4-.8 11.6-.8 8.4-.8 11.5.1 12.4s1.4.4 2.2-1.9c.7-1.9 1.8-3 2.8-2.9 1.2.1 3.2-2.8 6.7-9.6 2.8-5.4 5.3-9.8 5.8-9.8.4 0 .7 1.7.7 3.7 0 4.4 2 16.3 2.7 16.3.3 0 1.1-.8 1.8-1.7 1-1.4 1.3-.6 1.9 5 .4 3.7 1.1 6.7 1.5 6.7.5 0 1.1-4.8 1.5-10.7 1.5-23.4 3.2-26.3 2.8-4.6-.2 8.1 0 14.4.4 14s1.5-5.1 2.4-10.5c1.5-8.3 1.9-9.3 2.7-7.2l1 2.5 1.8-3.5c1-1.9 2-2.9 2.2-2.2.9 2.4 2.3 0 2.3-3.8 0-2.1.3-4.5.6-5.4.9-2.4 2.4-.9 2.4 2.4 0 5.1 1.6 4.1 6.1-4 2.4-4.3 4.4-7.8 4.6-7.6.1.1 1.8 3 3.6 6.5s3.8 6.1 4.3 5.9c.5-.1.8-3.7.6-7.8s0-9.8.3-12.6l.6-5 7.2.9c5.1.7 7.2.6 7.5-.2.2-.6 1.6-1.1 3-1.1 2.3 0 2.1-.3-1.7-2.1-6.1-2.7-13.1-8.6-13.1-11 0-2.5 1.4-2.4 3.1.2 1.6 2.4 5.2 1.7 4.5-1-.3-.9-.8-3.6-1.1-6.1-.6-4.3-.3-5.1 7.4-17.8C376.4 6.9 380 .8 380 .5S332.8 0 275.2 0H170.4zM226.9 33c0 .9-.6.4-1.4-1s-1.4-3.2-1.4-4c0-.9.6-.4 1.4 1s1.4 3.2 1.4 4m18.6 8c3.3 1.6 8.3 3.9 11 5 4.3 1.7 4.5 1.9 1.5 1.4-6.2-1-12.6-3.4-17.6-6.5-4.4-2.8-4.7-2.9-2.6-.7 1.2 1.4 1.9 2.8 1.5 3.3-.5.4-.3.5.3.2s3.8.5 7.1 1.8c3.3 1.4 8.6 2.8 11.8 3.1 3.2.4 7.7 1.3 9.9 2l4.1 1.3h-7.2c-5 .1-9.6-.6-15.1-2.4-8.1-2.6-19.4-9.1-20.5-11.8-.8-2.2 1.4-2.7 3.6-.9 1.6 1.5 1.7 1.4 1.1-.1-.3-1-1.7-2-3-2.3-1.5-.4-2.4-1.3-2.4-2.5 0-1.6.9-1.2 5.3 2.1 2.8 2.2 7.9 5.3 11.2 7m36.4 42.2c.1 1.6-.3 2.8-.8 2.8s-1.7.7-2.5 1.6c-2.7 2.6-3-.6-.5-6.2 1.8-4.2 2.2-4.6 2.9-2.9.5 1.1.9 3.2.9 4.7m95.3 43.5c1.6 3.4 1.6 3.7-.3 6.2-1 1.4-3.3 6.4-4.9 11-1.7 4.7-3.3 8.8-3.6 9.3-.4.6-9.3-4.6-13.2-7.8-.5-.3 15.5-19.4 17.6-21.2 2.2-1.7 2.5-1.6 4.4 2.5m-231.8 8.2c4.8 5.5 8.6 10.4 8.6 10.8 0 1.8-10 10.7-10.9 9.8-.5-.6-2.3-5.1-4.1-10-1.8-5-4.2-10.1-5.5-11.4l-2.3-2.3 2.2-3.4c1.1-1.8 2.4-3.3 2.8-3.4.4 0 4.5 4.5 9.2 9.9m111.1 98.2c-20.9.5-58.7 1.5-84 2.4s-49 1.5-52.7 1.5l-6.6-.1.4 3.3c.9 6 2.6 11.3 4 12.9 1.3 1.5 1 3.4-3 16.5-4.1 13.6-8.3 31.3-10.3 43.8l-.8 4.8-13 6.7c-11.7 6.1-29 16.3-55 32.4-4.9 3.1-14.9 9.1-22.2 13.4-11.8 7-13.2 8.1-13.3 10.5v2.8h99.1l8.2-5.2c27.3-17.3 32.1-24.5 50.6-76.3l8.6-24-.1 37c-.1 20.3-.4 44.1-.7 52.7l-.6 15.8H345v-2.9c0-1.6.5-3.1 1.2-3.3.9-.3.8-4.6-.6-18.4-.9-9.8-2.1-20.3-2.5-23.2s-.4-7.4 0-10c.5-2.6 1.1-9.1 1.5-14.5.3-5.7 1-9.5 1.5-9s2.2 4.7 3.8 9.4c8 23 14.8 37.6 21.7 46.8 4.4 5.8 13.8 13.4 24.7 20l8.5 5.1H512v-2.8c0-2.4-.8-3.2-5.7-5.6-3.2-1.5-10.3-5.4-15.8-8.6-5.5-3.1-12.2-7-15-8.5-2.7-1.5-9.9-5.6-16-9.1-26.8-15.3-36.4-20.6-47-25.5l-11.2-5.2-1.7-11.8c-.9-6.4-3.2-18-5.1-25.7-3.7-15-12.8-43.3-15.1-46.9l-1.4-2.2-41.7.1c-23 .1-58.9.5-79.8.9"/><path d="M387.5 232.9c-.9 1.5 1.1 11.4 3 15.1 1 2 2.2 3 3.3 2.8 2.1-.4 4.2-6.7 4.5-13.3l.2-5-5.2-.3c-2.8-.2-5.4.2-5.8.7m69.5 1.4c0 .7.5 1.8 1.2 2.5.9.9 1.4.7 2.4-.6 1.9-2.5 1.7-3.2-1.1-3.2-1.4 0-2.5.6-2.5 1.3"/></svg>