<svg xmlns="http://www.w3.org/2000/svg" width="682.667" height="512" version="1.0" viewBox="0 0 512 384"><path d="M144.2 1.2c-.8.8-.6 1.6 1 3 2.3 1.9 3.2 2 12.1.9 6.7-.8 6.3-2 4.1 12.5-1 6.8-1.2 11-.6 11.6s2.5-1 5.3-4.6c2.4-3 4.5-5.4 4.7-5.2.3.3 7.2 26.4 7.2 27.3 0 .2.5.3 1 .3.6 0 1-.9 1-1.9 0-3.6 1.8-3.1 2.4.7 1.4 7.7 1.8 9.2 2.6 8.7.4-.2 1.1-1.9 1.4-3.7.7-3.1.9-2.8 3.4 5 1.5 4.6 3 8 3.5 7.6.4-.4.7-3.2.8-6.3 0-3.1.4-6.5.8-7.6.8-1.9.9-1.9 1.9.5.6 1.4 2.1 7 3.3 12.5 2.5 11.2 3.6 10.6 3.8-1.8.1-7.9 2.1-9.2 2.2-1.5 0 2.9.4 6.2.9 7.3.8 2.1.8 2.2 2.6-3.2.4-1.5.6-1.5 1.4-.3.9 1.3 1 1.3 1.1 0 .1-.8 0-2.5-.1-3.8-.1-1.2.4-2.2 1.1-2.2.9 0 1 2.9.5 12.4-.4 7.7-.3 12.7.3 13 .5.3 2.2-2.5 3.8-6.4l2.8-7 2.7 3.3c2.7 3.1 2.7 3.2 2.8.8v-2.5l2.1 2.3c2.4 2.5 1.9 6.2-.5 4.1-.8-.6-2.8-1-4.4-.8l-3 .3 1.9 7c.9 3.8 1.6 7.2 1.4 7.6-.6.9-4.4 2.3-17.5 6.3-16 4.9-30.2 12-37.7 19-3.3 3.1-6.5 5.6-6.9 5.6-.5 0-4.2-5.6-8.2-12.4-4.1-6.9-8.2-13.2-9.3-14.2-2.1-1.9-5.9-1.7-24.9 1.1-16.6 2.5-48.3 1.7-59-1.4-7.9-2.3-27-11.2-33.1-15.4-3.2-2.2-8.7-5.4-22.7-13.4L0 63.9v9.6c0 8.2.2 9.6 1.8 10.1 5.1 1.7 16.6 8.2 23.1 13.2 7.1 5.5 7.5 6 7.7 10 .2 3.9-.1 4.5-3.5 6.6-5.1 3.3-5.4 3.7-10.6 17l-4.7 11.9 3 12.6c1.7 6.9 4.9 20.7 7.2 30.6 2.4 9.9 4.6 18.4 5 18.8.4.5 5.3.6 10.8.2l10-.7 1.6-3.7c.9-2 4.5-15.2 8-29.3l6.3-25.8-4.3-12.2c-3.4-9.4-5.2-13-8.1-16l-3.7-3.8h5.9c3.3 0 9.8-.3 14.5-.6 10.9-.8 37.1 1.2 38.2 2.9 1.4 2.2.8 3.2-4.3 6.2-2.7 1.6-5.5 3.9-6.2 5-1.6 2.4-11.3 25.8-11 26.5 0 .3 2.2 10.8 4.8 23.5 4.4 21.6 5.8 26.1 7.4 25.1 1.2-.8 109.4-5.1 151.1-6 12.4-.3 47.1-.6 77.3-.6l54.7-.1-.6-2.4c-.8-3.3 1.3-3.3 2.8 0l1.1 2.5h30.5l1.5-6.8c2.7-11.8 7.4-37.6 7.4-40.2 0-3.6 3.4-23.1 4.4-25.5.6-1.3.8 1.1.6 6.8-.1 4.8.1 8.7.5 8.7s1.4-1.2 2.3-2.8c.9-1.5 2.4-4.1 3.5-5.7 2.4-3.6 2.4-3.7 3.9-10 2.4-10 2.4-10 12.9-10.3 7.6-.2 9.2 0 9.2 1.2 0 .8-1.3 2.4-2.8 3.5-1.6 1.1-3.6 4-4.5 6.3-.8 2.4-2.9 8.2-4.6 13l-3.2 8.6 5.7 22.9c3 12.5 6.4 24.7 7.4 27l1.9 4.3h11.6c11 0 11.6-.1 12.5-2.3 1.3-2.9 13-51.3 13-53.7 0-1-2.1-7.4-4.7-14.1-4.4-11.5-5-12.4-9.5-15.7-3.2-2.2-4.7-4-4.4-4.9.3-.8.6-2.7.6-4.1 0-2.2 1.6-3.8 8.7-9.1 4.8-3.5 11.8-8 15.5-9.9l6.8-3.6v-8.8c0-7.9-.2-8.7-1.7-8.1-2.4.9-11.6 6.2-18.3 10.5-13.3 8.5-40.1 21-41.6 19.5-.3-.2.2-3.1 1-6.3s1.8-8.4 2.2-11.4c.6-4.5.9-5.1 1.5-3l.7 2.5.2-2.5c.2-2.1.4-1.9 1.6 1.5 1.3 3.8 1.4 3.6.9-5-1.1-17.8-5-49.5-7.7-62.3L449.7 0h-53.6l-.5 4.2c-.3 2.4-1.3 9.7-2.1 16.3-3.6 27.5-3.2 44.5 1.7 64.3 1.1 4.5 1.8 8.6 1.4 8.9-.4.4-5.9.1-12.4-.7-6.4-.7-12.7-1.3-14-1.3-3.3.1-5.6 2.6-10.3 11.2-5.8 10.6-13.9 23.1-15 23.1-.5 0-3.2-2.5-6.1-5.6-10.5-11.2-22.1-17.8-43.5-24.8-6.1-2.1-11.4-4.3-11.7-5.1-.6-1.7 1.2-7.5 2.4-7.5.5 0 1.2-2 1.6-4.6.3-2.5 1.2-6.4 2-8.7 1.2-3.8 1.3-3.1.7 7.9-.6 12.6.3 16.1 2.7 10.3.8-1.7 1.8-2.8 2.6-2.5 1.7.6 2.3-.2 8.2-11.6 2.8-5.3 5.3-9.4 5.6-9 .3.3.6 2.6.6 5.2 0 5.7 2 16 3.1 16 .4 0 1.2-1.2 1.7-2.8.9-2.5 1-2.4 1.6 2.3 1.1 7.5 1.7 10.7 2.2 10.2.2-.2.9-6 1.4-12.8 1.8-21.7 2.8-23.4 2.9-4.9.1 9.3.5 16 1 15.5.4-.6 1.4-5.2 2.1-10.4 1.2-8.1 1.5-9 2.5-7.1 1.2 2.2 1.2 2.1 3.4-1.6 1.2-2.1 2.6-3.4 2.9-2.8 1.8 2.4 2.7.9 2.4-4.2-.4-6.3 1.2-7.3 2.2-1.4.4 2.4 1.1 3.8 1.6 3.5.6-.4 2.8-4.2 5-8.6 3.8-7.4 6-9.8 6-6.5 0 .8 1.6 4.2 3.7 7.6 4.6 7.8 5.6 6.5 4.6-5.7-.5-4.8-.7-10.6-.5-12.8l.3-4 8.3.3c5.3.3 9.2-.1 10.6-.8 2.2-1.2 2-1.3-3.6-4.2-6.9-3.5-7.9-4.2-10.4-7.8-1.7-2.4-1.8-2.9-.5-4.6 1.4-1.8 1.4-1.8 3 .3.8 1.2 2.5 2.1 3.6 2 1.7-.1 2-.6 1.5-3.2-2-9.6-1.9-9.9 1.8-15.8l3.7-5.7H261.7c-87.1 0-116.6.3-117.5 1.2m81.1 16.2c-.8 1.2-3.2-3.4-3.2-5.9 0-1.5.5-1.1 1.8 1.5 1.1 1.9 1.7 3.9 1.4 4.4m21.2 8.8c2.8 1.4 6.8 3.1 9 3.8 6.1 2 2.4 2.4-4.2.5-6.4-1.8-10.7-4.2-16.9-9.2-2.3-1.8-4.8-3.3-5.8-3.3-.9 0-1.6-.8-1.6-2 0-1.8.9-1.4 7.3 2.9 3.9 2.7 9.5 6 12.2 7.3m-9.4-1.5c3 2.4 7.5 5 9.9 5.8 4.6 1.6 20.2 4.8 23.3 4.7.9-.1 1.7.3 1.7.7s-3 .9-6.7 1c-7.6.2-17.2-2.3-26.3-6.9-6.7-3.4-12.7-9-10.8-10.1 1.4-.9 1.6-.8 8.9 4.8m-7.2 42.5c-.1 6.2-.1 6.2-1 2.3-.9-3.7-.5-8.5.6-8.5.3 0 .5 2.8.4 6.2m53.1 1.2c0 .7.3 2.8.7 4.6.5 2.9.4 3.2-1.2 2.7-1.1-.5-2.2-.1-3.1 1-1.2 1.7-1.3 1.6-1.4-.5 0-3 2.6-9.2 3.9-9.2.6 0 1.1.6 1.1 1.4m100 48.3c0 .9.7 2.5 1.7 3.5 1.5 1.7 1.5 2-.5 4.1-1.1 1.2-3.5 6.3-5.2 11.2-1.8 5-3.5 9.4-4 9.8-.4.5-3.7-1.3-7.3-3.8l-6.7-4.6 8.2-9.7c10.9-13 13.8-15.2 13.8-10.5m-243.1 10.7c4.5 5.2 8.1 9.9 8.1 10.4 0 1-10.9 11.6-11.4 11.1-.2-.2-2-4.9-4-10.4-2.1-5.5-4.7-11-5.8-12.2-1.9-2-1.9-2.3-.4-4.5.9-1.2 1.6-3.1 1.6-4.1 0-3.1 3.2-.5 11.9 9.7M.1 121v24.5L3.5 132c1.9-7.4 3.5-14.4 3.5-15.5 0-1.7-3.4-12-6-18-.5-1.2-.9 7.9-.9 22.5m509.2-15.3c-2.1 5.5-2.1 6.1-.8 12.3 3 13.5 3.3 13.2 3.4-2.8.1-8.3 0-15.2-.2-15.2-.1 0-1.2 2.6-2.4 5.7M256 233.1c-20.6.4-59.3 1.5-86 2.5-26.7.9-49.4 1.6-50.4 1.6-1.1-.1-2.5.7-3.2 1.6-1.3 1.6-1.3 1.6-1.4-.1 0-1.5-.8-1.7-5.3-1.4l-5.2.3.3 3.5c.5 5 3.9 12.2 5.3 11.3.9-.5 1-.2.6.9-4.3 11.3-11.2 37.2-14.2 53.4-1.4 7.5-2.7 13.8-2.9 14s-6.3 3.4-13.7 7.1c-7.4 3.8-22.2 12.2-32.9 18.6-10.7 6.5-25.7 15.5-33.2 20L.1 374.5l-.1 4.7v4.8h100.2l6.7-4.7c21.6-15.3 28.5-27.6 49.9-88.6l3.8-10.7-.4 15.2c-.2 8.4.1 20 .7 25.8.8 8 .7 15.7-.4 32.5-.8 12.1-1.7 23.5-2.1 25.4-.4 2.3-.1 3.7.8 4.2.7.5 44.6.9 97.6.9H353v-3.8c0-2-.5-6.4-1-9.7-.9-5.7-3.2-31.7-3.2-36 0-1.1.5-7.9 1.1-15 .7-7.2 1.2-13.8 1.2-14.9 0-2.9.5-1.8 4.8 10.1 14 39 22 52.1 39.5 64.2l7.4 5.1h109.3l-.3-4.2-.3-4.3-13.5-7.6c-7.4-4.1-25-14-39-21.9s-30.7-16.7-37-19.5l-11.5-5.2-1.2-8.4q-2.7-19.95-7.5-36.9c-3.6-13.2-11.6-37.6-13.4-41.2l-1.4-2.7-46.8.1c-25.7.1-63.6.5-84.2.9"/><path d="M396.4 233.5c-1 2.4 3.4 15.3 5.5 16.5 1.6.8 2.1.4 3.5-2.4.9-1.9 1.9-6.1 2.2-9.3l.6-5.8-5.6-.3c-4.3-.2-5.8.1-6.2 1.3m76.6.6c0 1.5 1.8 1.9 2.3.6.3-.8-.1-1.4-.9-1.4s-1.4.4-1.4.8"/></svg>