<svg xmlns="http://www.w3.org/2000/svg" width="682.667" height="512" version="1.0" viewBox="0 0 512 384"><path d="M155 5.5c-1.3 6.1-1.1 9 .6 9 1.2 0 7.9-7.6 8.7-9.7.8-2.5 1.9.2 5.3 13.2 4 15.7 5 17.9 6 13.3.9-4.4 2-3.4 2.8 2.4 1.1 7.3 1.6 8.8 2.7 7.2.5-.8.9-2.7.9-4.4 0-4.4 1.5-2 4 6.7 1.3 4.3 2.6 7.8 3 7.8.8 0 2.6-15.5 2.1-17.4-.1-.5.4-.4 1.2.2.8.7 1.7 3.1 2.1 5.5.4 2.3 1.6 8.2 2.8 13.2 2.3 9.7 3.4 9.4 3.8-1 .4-9.3 1.6-10.7 2.4-2.7.8 7.7 1.9 8.6 3.1 2.5.4-2.5.9-3.2 1.5-2.3s1 .1 1.5-2.6c1.2-7 1.3-6.1 1.4 8.8.1 8.1.5 14.9 1 15.2.4.3 2.1-2.4 3.6-5.9 1.5-3.6 2.9-6.5 3.2-6.5.7 0 4.2 4.4 4.3 5.2 0 .5-1.2.8-2.6.8q-2.55 0-2.1 1.2c.2.7 1.2 4 2.1 7.2 1.4 4.9 1.5 6.1.4 7.2-.7.7-8 3.4-16.3 6-22.1 6.8-33.7 12.8-44.1 22.6l-5.3 5-7.6-13c-4.2-7.2-8.5-13.8-9.6-14.8-2.5-2.2-5-2.2-22.4.5-20.4 3.2-39.3 3.8-53.3 1.7C44.8 85 32.5 80 10.8 66.7L0 60.1v9.4c0 5.2.3 9.5.8 9.5.4 0 4.9 3.2 10.1 7 9.4 6.9 9.5 7 9.7 11.4.1 4.3 0 4.6-4.5 7.4-4.2 2.6-5.1 3.9-8.5 11.8-2.1 4.9-4.7 10.8-5.8 13.1l-1.9 4.1 7 32.9c9.2 42.5 8.1 38.8 11.9 38.7 15.7-.2 16.1-.3 17.9-3 .9-1.4 3.8-10.6 6.5-20.3 2.6-9.7 6.4-23.5 8.4-30.6l3.6-13.1-4.7-13.7c-3.7-10.5-5.5-14.3-7.6-16.2-1.6-1.3-2.9-2.8-2.9-3.3 0-1.4 30.2-2.2 45.1-1.1 10.7.7 13.7 1.3 14.7 2.6.6.9 1.2 1.9 1.2 2.2s-2.7 2.1-5.9 4l-6 3.4-6.1 14.1-6.2 14.1 4.7 24.5c2.6 13.5 5.2 26.4 5.8 28.8l1 4.4 5.6-.6c3.1-.3 17.5-1.1 32.1-1.6 14.6-.6 36-1.5 47.5-2 11.6-.5 31.1-1.2 43.5-1.5 12.4-.4 27.9-.8 34.5-1s48.1-.4 92.3-.4l80.2-.1.9-2.3c.5-1.3 2.8-12.4 5.1-24.8 2.9-15.6 4-23.8 3.7-27.1-.4-3.4-.3-4.6.6-4.2.9.3 1.1-1.1 1-4.8-.1-4 0-4.5.5-2.3.6 2.4 1 1 2.1-6.8 1.6-11.5 3.4-12.9 2.9-2.2-.3 8.4.8 9.7 3.5 4 .9-1.9 2.1-3.5 2.7-3.5.5 0 1.1-1.5 1.1-3.3.2-2.8.2-2.9.7-.7.4 1.8.8.7 1.8-4.2.7-3.7 1.9-8 2.6-9.5 1.3-2.7 1.6-2.8 10.6-3.1 10.5-.3 11.1.2 5.8 5.8-2.6 2.7-4.3 6.4-7.6 16.5l-4.2 13 7.6 27.4c4.3 15.3 8.5 28.6 9.7 30.2 2 2.9 2 2.9 13 2.9 10.7 0 11 0 11.9-2.5.5-1.3 3.4-14.1 6.5-28.3 7-32.9 7.1-35 .8-50.1-4.7-11.1-4.9-11.4-10.1-14.3-4.1-2.4-5.1-3.4-4.6-4.7.4-.9.7-2.9.7-4.5 0-2.4 1.2-3.7 7.9-8.7 4.4-3.2 8.6-6.3 9.4-6.7 1.2-.7 1.4-2.8 1.2-10l-.3-9.2-10.7 6.4C485.5 72.6 467.7 81 463.4 81c-1 0-1.1-.6-.5-2.3.5-1.2 1.4-5.8 2.1-10.2.6-4.4 1.4-9.1 1.7-10.5.5-2.3.6-2.4 1.3-.5.8 1.8.9 1.8 1-.5.1-2 .4-1.7 1.7 1.8.8 2.4 1.6 4.2 1.8 4 .7-.7-4.1-50-5.6-57.6l-1-5.2h-62.6l-1.6 14.2c-2.9 24.3-1.9 40.7 3.5 61.5 1.2 4.5 2 8.5 1.7 8.7-.2.3-7.4-.4-15.8-1.6-15.2-2-15.4-2-18-.1-1.4 1.1-5.3 6.7-8.6 12.5-3.3 5.7-7.7 13.1-9.8 16.2l-3.9 5.8-8.1-8c-13.2-12.8-24.3-18.9-47.6-26.1l-10.3-3.2.7-3.7c.4-2 1.2-4.1 2-4.7.7-.5 1.8-3.8 2.4-7.2.7-3.5 1.9-8 2.7-10l1.4-3.8-.5 3.5c-1.3 8-1.8 25.7-.7 26.4.6.3 1.5-.9 2.2-3 .9-2.7 1.5-3.3 2.1-2.3 1.3 2 3.5-1.2 9.4-13.2 2.7-5.4 5.2-9.6 5.7-9.3.4.3.8 2.7.8 5.3 0 5.8 1.7 15.2 3 16.5.5.5 1.4-.4 2.3-2.5l1.4-3.4.8 6.5c.6 5.6 2.4 11.5 2.5 8.5.1-4.9 3.1-34 3.5-34.3.3-.3.5-.1.5.4.1 9.5 1 33.7 1.3 34 .2.2.9-3.8 1.6-9 1.2-8.7 3-14.8 3.1-10.3 0 2.6 1.7 1.2 4.2-3.6 1.2-2.3 2.3-3.6 2.5-3 .3.7 1.1 1.3 2 1.3 1.2 0 1.4-.9.8-5.1-.5-3.7-.4-5 .4-4.5.6.4 1.1 2.2 1.1 4.1 0 5.6 1.7 4.9 5.6-2.2 2-3.8 4.4-8 5.4-9.6l1.6-2.7 4.1 7.7c2.2 4.3 4.4 7.7 4.9 7.5.5-.1.9-6.4.9-14 .1-16.9 0-16.3 2.8-15.8 7.5 1.6 13.5 1.7 15 .2.9-.9 2.4-1.6 3.4-1.6s-.8-1.3-3.9-2.9c-7.5-3.8-9.7-5.5-11.9-8.7-1.6-2.5-1.6-3-.2-5.8l1.5-3 3 3.5c1.6 1.9 2.7 2.8 2.3 2.1s0-1.2.9-1.2c1.7 0 1.9-1.2 1-4.8l-.6-2.2H231.6l4.7 3c5.5 3.5 13.6 7.6 18.7 9.6l3.5 1.4-4.5-.5c-6-.8-13.3-4.2-19.7-9.3L229.1 0h-73zm78.9-.1c8.7 6.7 16.6 9.9 27.1 11 3 .3 7.5 1.2 10 2l4.5 1.4-8.7.1c-7 .1-10.3-.4-17.7-2.9-12.5-4-24.5-12-22.6-14.9.9-1.6 1.1-1.5 7.4 3.3M228 57c0 7.5-.2 8.8-1.5 8.4-.8-.4-1.5-1.8-1.5-3.3 0-2 .2-2.3 1-1.1.7 1 1-.7 1-5.8 0-3.9.2-7.2.5-7.2s.5 4 .5 9m56.9 4.3c.1 1.8-.3 2.6-1 2.2-.5-.4-2 .1-3.1 1.2-2.1 1.8-2.1 1.8-1.4-1.6.3-1.9 1.4-4.6 2.3-6 1.5-2.4 1.7-2.4 2.4-.6.4 1.1.8 3.3.8 4.8M390 107.7c0 .9.7 2.4 1.6 3.4 1.4 1.6 1.4 2-.5 4.6-1.1 1.5-3.5 6.8-5.2 11.8-1.7 4.9-3.2 9.2-3.5 9.4-.2.3-9.4-5.2-14.3-8.6-.6-.4 17.8-22.1 19.2-22.6 1.7-.6 2.7.1 2.7 2m-257.8 9.8c4.3 4.9 8.1 9.6 8.4 10.3.7 1.5-9.4 12.4-11 11.9-.5-.2-2.4-4.5-4.3-9.6-1.8-5.2-4.2-10.6-5.3-12.1-1.8-2.6-1.8-2.8-.2-6.3.9-2 2.3-3.6 3.1-3.4.8.1 5 4.2 9.3 9.2m258.9 69.7c1.1 2.1 1.1 2.2-.4.9-1-.7-1.7-1.7-1.7-2.2 0-1.5.9-1 2.1 1.3M256 233.1c-31.6.7-116 3.2-142 4.3-4.1.2-9.9.4-12.7.5l-5.3.1v3.5c0 3.8 2.9 10.7 4.2 9.9s1.1 0-3.1 13.5c-5.4 17.2-8.9 31.3-11.5 46.1-2.5 14.3-.1 11.5-18.2 20.4-9.3 4.5-17.8 9.4-49.6 28.4L0 370.4V384h101l8.8-8.8c12.7-12.5 18.7-23.9 33-62.7 3.9-10.5 7.9-21.5 9.1-24.5l2-5.5-.5 10.5c-.3 5.8-.1 18.1.4 27.3 1 15.6.3 45.4-1.3 59l-.6 4.7h103.6c97.9 0 103.5-.1 103.5-1.8 0-.9-.5-5.7-1.1-10.7-2.7-23.3-2.8-39.8-.3-60.5l.6-5.5 4.7 13c12.8 35.2 20.8 49.7 33.1 60.4l5.8 5.1H512v-5.8c0-4.6-.4-6-2-7-4.8-3-53.4-29.9-62.9-34.9-5.8-3-14.2-7-18.6-8.8-6.5-2.7-8.1-3.8-8.3-5.7-2.3-19.4-4.4-29.6-10.2-51.3-3.2-11.9-10.5-33.1-12.4-36L396 232l-51.3.2c-28.1 0-68.1.5-88.7.9m150.3 4c.6 5.2 3.3 10.9 5.4 11.6 2 .7 4.5-4.4 5-10.4l.5-5.8-5.7-.3-5.8-.3z"/></svg>