<svg xmlns="http://www.w3.org/2000/svg" width="682.667" height="512" version="1.0" viewBox="0 0 512 384"><path d="M164 .8c0 1.4 4.9 18.4 5.4 19 .3.3.9-.9 1.2-2.7 1-5 2.2-4.6 2.9 1.1.4 2.9 1.1 6.2 1.5 7.3.9 2.2.9 2.1 2.7-4 .9-2.8 1.1-2.4 3.8 6.3 1.5 5 3.2 9.2 3.6 9.2s1-4.3 1.4-9.5c1.1-14.1 1.8-13.4 6 6 1.5 6.6 3.1 12.7 3.5 13.4.8 1.5 1.8-5.8 2.3-16.9.2-5.5.2-5.4 1.6 3.2 1.4 9.1 2.4 10.3 3.5 4.3.4-2 1.1-3.3 1.7-3 .5.4.9-1.3.9-3.9 0-2.5.4-4.6.9-4.6 1.2 0 2.5 17.7 1.8 24.3-.3 2.9-.2 6.1.2 7.2.6 1.5 1.4.5 3.7-5.3 1.6-3.9 3.2-7.2 3.5-7.2.4 0 1.4 1.1 2.3 2.5 1.6 2.4 1.6 2.5-.5 2.5-1.7 0-2 .5-1.6 2.2 2.9 12.4 3.1 13.8 2 14.9-.6.6-7.2 2.8-14.6 5-23.8 6.9-39.2 14.6-49.5 25-6.2 6.2-4.8 7.1-14.9-10.4-8.9-15.6-8.6-15.4-25.1-12.8-50.3 8-75.1 5-106.9-12.9L0 56.9v10.3l.1 10.3L3.6 80c3.1 2.3 3.6 3.2 3.9 7.3.3 4.5.1 4.8-3.6 6.9L0 96.4v51.3c0 35.2.4 52.8 1.1 55.9 1.1 4.2 1.4 4.5 3.8 4 1.4-.4 5.3-.9 8.6-1.2 3.6-.4 6.7-1.3 7.6-2.3 2-1.9 4.2-8.9 14.3-43.8 4.2-14.4 7.6-27.5 7.6-29s-1.8-8.4-4.1-15.3c-3.4-10.5-4.7-13.2-8.1-16.6-3.7-3.8-3.8-4.3-2-4.8 1.1-.4 15.1-.5 31.2-.4 27.5.3 29.3.4 30.6 2.3.8 1 1.4 2.1 1.4 2.4s-3 2.4-6.6 4.6l-6.6 4-5.4 13c-2.9 7.1-5.8 13.7-6.3 14.6-.7 1.2.9 11 5.3 33.1 3.5 17.3 6.6 32.1 7.1 32.8.6 1 3.4 1.1 11.9.6 6.1-.4 32.3-1.5 58.1-2.6 43.9-1.8 64-2.5 101-3.5 8.3-.2 52.7-.4 98.8-.4l83.7-.1 1-2.3c.5-1.2 3.2-14.5 6-29.5 4-21.7 4.9-28.4 4.4-32.9-.5-4-.4-5.4.4-4.9 2 1.2 4-3.7 5.2-12.9 1.8-12.7 2.6-14.3 3.5-6.8.4 3.4.4 7.1 0 8.4-.5 1.5-.4 1.9.5 1.4s1-.1.6 1.6c-.4 1.4.1.9 1.2-1.1 3.2-6.2 3.3-6.4 4.3-4.9.6 1 .9.5.9-1.4 0-1.6.4-2.6.9-2.2.5.3 1.3-2.1 1.7-5.2.4-3.2 1.3-7.2 2.1-9L467 90h9c10.1 0 10.8.6 5.9 5.6-2.1 2.1-4.1 6.2-6.3 13-6.7 20.3-6.9 16.6 1.4 44.4 9.5 32.4 10.7 35.9 13 39.7 1.9 3.3 2.1 3.3 9.7 3.3 4.3 0 8.8.3 10.1.6l2.2.6V90.5l-3-1.3c-2.7-1.2-3-1.8-3-5.8 0-3.8.5-4.9 3-7.1 3-2.4 3-2.6 3-12.4 0-5.4-.4-9.9-.9-9.9s-4.2 1.9-8.2 4.2c-6.4 3.7-25.9 12.2-26.4 11.5-.1-.1 1.1-6.5 2.7-14.2s3.2-15.4 3.5-17c.6-2.9.7-2.8 2.4 2.5l1.7 5.5.1-6c0-3.3-.6-13.2-1.4-22S484 1.9 484 1.2c0-1.8-71.8-1.8-72.5.1-.3.7-.6 8.4-.8 17.2-.2 17.1.7 25.1 4.9 42.8 1.7 7.1 2.3 11.2 1.6 11.9-.6.6-5.7.2-14.5-1.1-16.6-2.6-20.9-2.6-23.6-.4-1.1 1-4.9 6.7-8.4 12.8-7.7 13.4-12.9 21.5-14 21.5-.4 0-5.3-4.5-10.8-9.9-9-8.9-11.3-10.6-21.3-15.5-6.1-3-15-6.7-19.8-8.1-4.9-1.5-8.8-3-8.8-3.3s.5-2.1 1.2-3.9c1.3-3.5 2.8-4.4 2.8-1.6 0 2.6 1.9-.5 9.5-14.9l6.5-12.3V42c.1 5.6 2.4 20.8 3.4 21.7.3.3 1.4-1.4 2.4-3.8 2.2-5 2.6-4.4 3.7 5.3.3 3.2 1 6 1.4 6.2.4.3 1.3-6.8 2-15.7q2.85-37.2 3-4.2c.2 19.8.9 21.9 3.1 8.2.7-4.3 1.7-8 2.1-8.3.5-.3.9 0 .9.6 0 2.2 2.3-.4 4.5-5.2 1.2-2.7 2.6-4.8 3-4.8.4.1 1.1-.4 1.5-1.1.6-.8 1.3-.3 2.3 1.7l1.5 2.8 2.1-3.4c1.2-1.9 3.8-6.8 5.9-10.7 2-4 3.9-7.3 4.2-7.3.4 0 1.1 1.5 1.8 3.2 1.9 5.2 7.2 12.9 8.3 12.3.7-.5.8-6.1.3-16.7l-.7-16 2.1 1.1c3.4 1.8 16.9 1.4 19.6-.6l2.4-1.8-5-2.7-5-2.8-111.4.1C214.1.1 164 .4 164 .8m61.7 42.9c-.2 1.6-.4.3-.4-2.7s.2-4.3.4-2.8c.2 1.6.2 4 0 5.5m69.3 4c-.4 5-.6 11.9-.3 15.2.6 6.6.5 6.8-4.6 5-3-1.1-3.2-1.5-2.7-4.2.3-1.7 1.2-3.8 2-4.6.7-.9 1.7-3.4 2.1-5.6.8-5 3.7-15.6 4.1-15.2.2.1-.1 4.4-.6 9.4m-8.5-1.6c.8 3.6.8 3.7-3.3 4.5l-3.1.6 1.6-4.1c1.9-4.9 3.9-5.3 4.8-1M226 51.2q0 1.65-1.5 1.2c-.9-.4-1.5-1.9-1.5-3.7 0-2.9.1-3 1.5-1.1.8 1 1.5 2.7 1.5 3.6m171 45.7c0 1 1 3 2.1 4.5l2.1 2.7-2 2.2c-1.2 1.2-3.6 6.3-5.3 11.2-1.8 5-3.4 9.1-3.5 9.3s-3-1.5-6.5-3.7c-3.4-2.2-6.7-4.2-7.3-4.4-1.2-.4 4.4-8.1 12.9-17.5 5.9-6.5 7.5-7.4 7.5-4.3m-277.4 5.3c2.2 2.4 6.4 7.1 9.3 10.6 5.9 6.9 5.9 6.6-.8 12.7-7.1 6.3-6.5 6.5-10.3-4.1-1.8-5.3-4.4-10.8-5.7-12.2-2.2-2.4-2.2-2.7-.7-5.3.9-1.5 1.6-3.4 1.6-4.3 0-2.7 2.4-1.8 6.6 2.6m328.1 17.5c-.2 1.6-.4.5-.4-2.2 0-2.8.2-4 .4-2.8.2 1.3.2 3.5 0 5"/><path d="M487.1 48.6c0 1.1.3 1.4.6.6.3-.7.2-1.6-.1-1.9-.3-.4-.6.2-.5 1.3M277.5 232.7c-36 .6-121.7 3-164 4.7-4.9.2-12.9.4-17.7.5l-8.8.1v2.8c0 1.5.8 4.3 1.8 6.1 1.8 3.4 1.8 3.5-1.5 13.5-6.2 18.4-11.8 40.9-14.3 57.1-1.3 8.7-1.9 10.5-3.2 10.5-2.8 0-29.1 13.7-53.6 27.9L0 365.4V384h98.8l4.9-5.4c10.6-11.9 18.9-29 33.6-69.4l8.2-22.6.7 24.4c.4 13.5.4 35.4.1 48.7l-.6 24.3h220.5l-.6-4.5c-1.8-11.7-3.2-36.9-2.5-45.1.5-4.9 1.1-12.4 1.4-16.8.4-4.3 1-7.4 1.4-7 .4.5 3.1 7.4 6 15.4 9.4 25.4 19.3 44.6 27.9 54.2l3.4 3.8H512v-15.6l-11.7-6.7c-20.4-11.5-49.1-26.3-58.6-30.3-5.1-2.1-9.3-3.8-9.4-3.9-.2-.1-1-5.4-1.8-11.8-3-23.2-12.6-59.5-20.7-78.9l-2-4.6-57.6.1c-31.8 0-64.4.2-72.7.4m138.1.2c-.9 1.4 1.1 9.8 3 12.7.9 1.3 2.2 2.4 2.9 2.4 1.9 0 4.7-8 4.3-12.1-.3-3.3-.5-3.4-5-3.7-2.5-.2-4.9.1-5.2.7"/></svg>