<svg xmlns="http://www.w3.org/2000/svg" width="682.667" height="512" version="1.0" viewBox="0 0 512 384"><path d="M163.3 1.4c.3.8 1.1 3.3 1.7 5.5 1.4 5.4 2.6 5.9 3.5 1.3.6-3.2.8-3.4 1.5-1.6.5 1.2 1.2 4.2 1.5 6.8 1.1 6.9 2.7 5.9 3.8-2.4.2-1.7 1.4.9 3.5 7.8 1.8 5.6 3.7 10 4.1 9.7.5-.2 1.2-4.5 1.6-9.5.4-4.9 1.1-9 1.6-9 .9 0 1.1.8 5.5 19.5 3 13 3.9 13 4.4 0 .1-3.3.6-7.1 1-8.5.7-2.2.8-2 .9 1.5.2 5.8 1.2 11.5 2.2 11.5.4 0 1.1-1.5 1.4-3.3.4-1.7 1.2-3.5 1.7-3.8.6-.4 1.3-2.8 1.6-5.5l.6-4.9.7 4c.4 2.2.8 10.2.8 17.9.1 15.6 1 16.6 5.1 5.6 1.2-3.3 2.6-6 3-6s1.5 1.2 2.5 2.6c1.6 2.4 1.6 2.5-.2 2.4-1-.1-2.1-.2-2.5-.1-.4 0 .2 3.1 1.3 6.8 3.1 11 3.8 10.2-13.8 15.3-24.8 7.2-40.3 15.1-51.2 26-4.5 4.5-5.5 5.1-6.6 3.9-.8-.8-4.5-6.8-8.3-13.4-3.9-6.6-8.2-12.9-9.6-14-2.6-1.9-2.7-1.9-15.9.3-20.9 3.5-30.2 4.4-45.2 4.4-22.9.1-37.3-3.1-55.7-12.3L.1 55.1 0 131.6v76.6l4.7-.7c8.4-1.2 9.5-2.2 12.5-11 1.5-4.4 5.4-17.5 8.8-29 3.4-11.6 7.5-25.2 9.1-30.4l2.9-9.4-4.7-14.6c-4-12.7-5.1-15.2-8.6-18.8-3.1-3.3-3.7-4.4-2.5-4.8.8-.3 15.3-.5 32.2-.3 26 .3 30.8.5 31.6 1.8 1.7 2.7 1.1 3.5-4.9 6.8-3.2 1.7-6.3 3.8-6.9 4.5-.5.6-3.7 7.9-7.1 16L61 133.2l6 31.1c3.4 17.2 6.6 32.8 7.1 34.7l1.1 3.5 11.6-.7c12.4-.7 100-4.4 128.7-5.3 36.4-1.2 52.9-1.4 136.2-1.4l86.1-.1 1.1-3.3c2.7-8.5 11.5-57.6 11.3-63.2q-.3-10.8 1.8-7.5c.7 1.1 1 .8 1-1.3 0-1.6.4-2.6.9-2.3 1 .7 1.3-.6 3.2-12.4.6-4.1 1.5-8.4 2-9.5.8-2 .9-.9 1.5 10.5.4 8.8.4 8.8 3 3.1 1.9-4.2 2.8-5.1 3.5-4 .6 1 .9.4.9-2.1 0-2.3.3-3.1.9-2.1.6.9 1.1-.3 1.5-3.5.4-2.7 1.2-6.6 1.8-8.7l1.1-3.7h8.8c5.2 0 9.1.4 9.5 1.1.3.6-1.1 2.7-3.1 4.7-3.2 3.2-4.4 5.7-8.1 17.7-2.5 7.7-4.3 15.1-4.1 16.5.4 2.2 14.3 48.6 18.4 61.4 2.4 7.3 4.7 9.3 11.6 9.9l5.7.6V51.1l-11.3 5.4c-6.2 3-12.7 5.8-14.5 6.1-3.2.7-3.2.7-2.1-2.2.6-1.6 2.2-8.3 3.5-14.9s2.7-13.6 3.2-15.5l.8-3.5 1.9 6.8c1 3.7 2 6.6 2.2 6.4s-.3-9.1-1.2-19.8C493.7 9.2 493 .4 493 .2c0-.1-17.3-.2-38.5-.2H416v12c0 13.8 1 21.7 5.1 38.8 1.6 6.7 2.9 13.4 2.9 14.8 0 2.8 1.4 2.8-20.9-.2-16.6-2.2-18.4-2-21.9 2.2-1.7 2-4.2 5.9-5.7 8.8-1.5 2.8-5.5 9.5-8.8 14.9l-6 9.8-2.5-2.3c-1.3-1.3-6-5.8-10.3-10C337 78.1 322.8 70.2 305 65c-4.1-1.2-7.6-2.3-7.8-2.5-.1-.1.6-2.2 1.7-4.6 1.9-4.3 2-4.3 2.1-1.4s.1 2.9 1.5 1.1c.8-1.1 4.3-7.5 7.7-14.3 3.5-6.8 6.6-12.3 7.1-12.3.4 0 .7 2.3.7 5.1 0 6.1 2 19.1 3.1 20.3.5.5 1.8-1.2 3.1-4l2.2-4.9 1 7.7c.6 4.2 1.4 8 1.9 8.4.4.4.7.3.7-.2s.7-8.4 1.4-17.6c2.1-23.7 3.5-24.8 3.6-2.6 0 17.9 1.1 23.2 2.4 11.5.4-3.4 1-7.4 1.3-9 .5-2.5.7-2.6 1.8-1 1.2 1.6 1.7 1 4.6-5.5 2.3-5 3.8-7.2 4.8-7 .9.2 1.7 1.2 1.9 2.3.8 4.5 2.3 3.2 8.2-7.5 3.4-6.1 6.4-11 6.5-10.8.2.2 2.1 3.7 4.2 7.8 2.4 4.4 4.7 7.6 5.8 7.9 1.7.3 1.8-.3 1.2-7.4-.4-4.3-.7-11.6-.7-16.2V0H269.9c-92.7 0-107 .2-106.6 1.4m62.2 42.4c-.5 2-.8 2.2-2 1.2-.8-.7-1.5-2.4-1.5-3.9l.1-2.6 1.4 2.5c1.3 2.3 1.3 2.1.8-3.2-.3-3.1-.2-6.5.3-7.5 1-2.2 1.9 9.8.9 13.5m70.8 2.4c-.3 8.4-.7 15.5-.9 15.6-.1.2-1.9-.1-3.9-.8-3.4-1.1-3.7-1.4-3.1-4.3.4-1.7 1.3-3.5 2.1-4 .8-.4 1.5-1.5 1.5-2.4 0-1.9 4-19.3 4.5-19.3.1 0 0 6.9-.2 15.2m-9.1-4.1c-.4.4-1.9.9-3.4 1.3-2.6.6-2.6.5-1.6-2.9 1.3-4.2 4-5 5-1.6.4 1.4.4 2.8 0 3.2m138.6 49.8c-1.5.6-2-.7-1.2-3.1l.8-2.3.6 2.5c.3 1.4.2 2.7-.2 2.9M401.5 93c.4 1.7 1.5 3.6 2.6 4.3 1.8 1.1 1.7 1.3-.6 3.7-1.4 1.5-3.8 6.4-5.5 11-1.6 4.7-3.3 8.6-3.9 8.8-.5.2-3.2-1.2-5.9-3s-5.7-3.8-6.7-4.4c-1.6-.9-1.1-1.9 5.1-9.4 8.4-10.3 11.9-14 13.2-14 .6 0 1.3 1.4 1.7 3m-278.9 11.9 7.8 9.4-5.9 5.4c-5.9 5.2-8.5 6.5-8.5 4 0-2.9-6.1-17.2-8.4-19.6-2.4-2.6-2.4-2.6-.5-5 1-1.3 1.9-3.4 1.9-4.8v-2.5l2.9 1.9c1.5 1 6.3 6 10.7 11.2m332.1 6.8c-.3 1-.5.2-.5-1.7s.2-2.7.5-1.8c.2 1 .2 2.6 0 3.5M255.1 233.1c-50.1 1-156.9 4.5-168.1 5.3-4 .4-4.5.7-4.2 2.7.1 1.3.8 3.5 1.5 4.9 1.2 2.2 1.1 3.2-.4 6.7-4.9 11.6-13.9 45.4-16.8 63.2-2.2 13-2.5 14.1-4.5 14.1-2.2 0-32.5 15.5-47.6 24.3L.5 362.8l-.3 10.6-.3 10.6 48.8-.2 48.8-.3 5.3-7c8.9-11.8 19.4-35.1 32.8-72.7 2.7-7.6 5.2-13.8 5.5-13.8 1 0 1.9 58 1.2 76.6l-.6 17.4h114.2c104.6 0 114.3-.1 113.7-1.6-.8-2.1-2.8-29-2.7-36.9 0-3.3.5-11.4 1-18 .6-6.6 1.1-12.8 1.1-13.8 0-3.3 1.7-.8 4 6 8.5 25.3 22 53.2 29.8 61.5l2.6 2.8H512v-17.9l-11.9-6.5c-18.4-10.1-47.9-25-55.1-27.8l-6.5-2.6-.8-5.3c-3.7-26.3-5.8-36.3-12.2-57.4-4.4-14.6-10.3-31.6-11.5-33.1-1.2-1.4-100.2-1.6-158.9-.3m164.9 2c0 4 3.7 11.6 5.7 11.6 1.9 0 4.2-4.6 4.9-10l.6-4.4-5.6-.2-5.6-.2z"/></svg>