<svg xmlns="http://www.w3.org/2000/svg" width="682.667" height="512" version="1.0" viewBox="0 0 512 384"><path d="M163 2c.6 1.1 1.2 2 1.4 2s.6-.9.9-2c.4-1.5 0-2-1.4-2-1.7 0-1.8.3-.9 2"/><path d="M168.4 2.6c.4 1.5 1 4 1.3 5.6.7 3.5 2.3 1.9 2.3-2.4 0-5.7 1.9-3.3 5 6.5 3 9.2 3.4 9.9 4.1 7.3.4-1.6.9-6.2 1-10.2.1-5.4.6-7.4 1.5-7.4.8 0 1.6 1 1.9 2.2 1.6 7 6.5 29.1 6.5 29.5 0 .2.5.1 1-.2.6-.3 1-3.2 1.1-6.3s.4-8.2.8-11.2l.7-5.5.8 7.7c.4 4.3 1.1 7.8 1.6 7.8 1.1 0 5-12.1 5-15.6.1-2.7.1-2.8 1.3-.9.8 1.4 1.2 7.2 1.2 17.9 0 10.5.4 16.1 1.1 16.3.6.2 2.3-2.8 3.9-6.7l2.9-7.1 1.8 2.3c2.3 3 2.3 4.1-.2 2.8s-2.5-1.4.1 8.3c1.8 6.7 2 8.1.8 9.2-.8.7-7.8 3.1-15.5 5.4-28.3 8.2-43.6 16.2-54.5 28.4-2 2.2-4.1 3.7-4.7 3.4-.5-.4-4.5-6.8-8.8-14.1-5.8-10.2-8.4-13.8-10.5-14.7-2.3-.9-6-.6-20.1 1.6-22.8 3.7-52.6 4.6-67.4 2.1-8.7-1.5-19.3-5-30.6-10L0 53v155h2.4c1.4 0 3-1 4-2.5 2.1-3.2 24.6-78.2 24.6-82 0-1.5-2.1-9.3-4.6-17.2-4.1-12.7-5-14.7-8-17-1.9-1.4-3.4-3.1-3.4-3.8 0-2.8 57.6-3.1 64.7-.4 1.3.5 2.3 1.5 2.3 2.2 0 1.4-7.1 6.7-8.9 6.7-1.1 0-7.1 6.7-7.1 8.1 0 .5-2.4 6.8-5.4 13.9l-5.4 12.8 7.3 36.2c4 19.9 7.7 36.6 8.2 36.9.4.4 6.9.4 14.3 0 20-1.1 110.4-4.8 142-5.8 15.1-.5 69.8-.9 121.4-1 51.7-.1 94.2-.3 94.4-.5 1.4-1.5 13.4-66.9 12.8-70.1-1.6-8.1-1.5-8.8.3-4l1.9 5 .1-4.8c.1-2.9.5-4.6 1.1-4.2s1-1 1-3.4c0-2.8.4-4.1 1.3-4.1 1 0 1.8-2.6 2.6-8.3 2-14.4 2.7-15.5 3.7-5.7.5 4.7.8 9.5.7 10.7-.3 3.9 1.4 2.5 2.7-2.2.9-3.2 2.1-5.1 4.1-6.2 2.3-1.4 2.9-2.4 2.9-5.3 0-3.5 1.4-10.8 2.3-11.6.2-.3 4.3-.7 8.9-1 10.6-.8 11.6.2 6 5.9-3.9 4.1-5.8 8.9-12.9 32.9-.3.9 1.1 6.5 3 12.5 1.9 5.9 5.8 18.4 8.7 27.8 10.8 35.6 11.2 36.5 15.8 37.9l2.2.7V123c0-59-.3-74.1-1.2-73.7-11 4.7-19 7.9-19.3 7.5-.2-.2.2-2.6 1-5.3.8-2.6 2.5-9.8 3.6-15.9 1.2-6.1 2.4-11.6 2.7-12.1.7-1 .8-1.5 1.1-3.8.1-.6 1.3 1.9 2.6 5.8 1.6 4.7 2.3 5.9 2 3.5-.2-1.9-.7-8.2-1-14-.4-5.8-.9-11.5-1.2-12.8l-.5-2.2H422l-.1 5.7c-.1 3.2-.1 6.1-.1 6.4 1.3 11.2 2.9 20.9 5.3 30.9 3.2 13.9 3.5 17.8 1.6 18.6-.8.3-7.8-.4-15.6-1.6-7.8-1.1-16.9-2-20.1-2-5.5 0-6.1.2-8.3 3.2-1.4 1.8-4.6 7.1-7.2 11.8-6.1 11-12.5 21-13.5 21-.4 0-4.3-3.5-8.6-7.8-10-9.9-16.8-15-26.9-20-7.2-3.6-19.2-8-26.7-9.8-3.2-.7-3.2-.9-1.7-5.4 1.2-3.2 1.2-3.2 2.4-1.1 1.1 2.1 1.8 1.1 8.5-12.3 7.6-14.9 9-16.1 9-7.8 0 5.2 1.9 18.2 2.9 20 .5.9 1.6-.6 3.1-4.4 2.2-5.4 2.4-5.6 3.1-3.2.4 1.5 1 5.4 1.4 8.8s1.1 5.8 1.5 5.3c.5-.4 1.3-7.8 1.9-16.3.7-8.5 1.8-18 2.6-21l1.4-5.5-.5 8.8c-.6 10.1.5 30.9 1.6 30.2.5-.3 1.1-3.3 1.5-6.7.8-6.7 2.3-12 2.4-8.5.1 3.2 2.2.7 5.8-6.9 1.8-4.1 3.6-7.4 3.9-7.4s1.2 1.6 2 3.6c2 4.7 2.6 4.1 9.4-9 3-5.8 5.7-10.5 6-10.5s2.3 3.7 4.5 8.1c2.7 5.3 4.7 8.2 5.9 8.4 1.7.2 1.8-.3 1.2-7.3-.3-4.2-.6-9.6-.6-12V0H167.8zm55.3 28.1c-.2 1.6-.4.3-.4-2.7s.2-4.3.4-2.8c.2 1.6.2 4 0 5.5m73.6 8.5c-.3 8.4-.7 15.4-.8 15.6-.2.2-2-.4-4-1.2-3.4-1.4-3.7-1.9-3-4.3.3-1.6 1.2-3.1 2-3.5.7-.4 1.6-2.5 1.9-4.5.8-4.7 3.9-17.3 4.3-17.3.1 0 0 6.9-.4 15.2M288 31v2.7c0 .9-5.2 2.5-5.8 1.9-.5-.6 1.9-5 3.2-5.8 1.8-1.3 2.6-.9 2.6 1.2m-64 5.8c0 2.7-2.5.5-2.8-2.4-.3-2.8-.3-2.8 1.2-.9.8 1.1 1.6 2.6 1.6 3.3M432.3 84c.6 2.3-.3 3.2-2.1 2.1-1.3-.8-.6-4.1.8-4.1.4 0 1 .9 1.3 2m-26.5 2.7c.1 1.6 1.2 3.6 2.4 4.6l2.2 1.9-2.2 1.7c-1.3.9-3.5 5.1-5.2 10.1-1.7 4.7-3.2 9.1-3.5 9.8-.3.9-1.7.5-4.7-1.6-2.4-1.6-5.8-3.7-7.6-4.6l-3.2-1.7 8-9.9c7.1-8.8 11.3-13 13-13 .3 0 .7 1.2.8 2.7M108 88c1 .5 5.4 5.4 9.9 10.9l8 9.9-6 5.3c-3.2 3-6.3 5.5-6.7 5.7-.4.1-2.1-3.7-3.7-8.5-1.7-4.8-4.3-10.2-5.8-12l-2.9-3.3 2.1-2.6c1.2-1.5 2.1-3.5 2.1-4.5 0-2.2.4-2.3 3-.9m332.6 2.6c-.4.9-.9 1.5-1.1 1.2-.3-.3-.3-1.3.1-2.2s.9-1.5 1.1-1.2c.3.3.3 1.3-.1 2.2m21.1 15.6c-.2 1.3-.4.3-.4-2.2s.2-3.5.4-2.3c.2 1.3.2 3.3 0 4.5M254.7 233c-81.8 1.9-175.3 5.3-176.5 6.5-.3.3 0 1.6.6 3 1 2.2.4 4.8-4.3 18.8-6.2 18.5-11.5 39.4-13.9 54.7-.9 5.8-1.9 11.5-2.1 12.6-.4 1.6-2.3 2.9-7.2 4.9-7.8 3.1-24.9 11.9-40.5 20.8L0 360.5V384h94.9l5.5-8.4c8.6-12.8 17.3-32.6 30.7-69.8 2.9-8.1 5.4-14.6 5.6-14.4 1.3 1.3 1.9 73.3.7 86.3l-.6 6.3h236.3l-.7-12.2c-.3-6.8-.9-14.7-1.4-17.6-.4-2.9-.4-7.4.1-10 .4-2.6 1.1-10 1.4-16.5.4-6.4 1.1-11.9 1.5-12.2s1.8 2.3 3 5.8c9.6 26.2 17.5 43.6 25 55.1l5 7.6h105.1l-.3-10.1-.3-10.1-9-5c-17.6-9.7-36.1-19-46.5-23.3-6.5-2.7-10.7-5-11.1-6.2-.4-1-1.2-6.5-1.9-12.3-1.3-12.5-4.5-27.1-10.1-47-4.4-15.7-11.6-36.2-13-37.1-1.4-.8-125-.8-165.2.1"/><path d="M425.1 233.3c-1.9 2.4 2.4 12.7 5.4 12.7 1.6 0 4.5-7.1 4.5-11 0-2.9-.2-3-4.4-3-2.4 0-4.8.6-5.5 1.3"/></svg>