<svg xmlns="http://www.w3.org/2000/svg" width="682.667" height="512" version="1.0" viewBox="0 0 512 384"><path d="M184 1c0 2.3 2.5 10 3.2 10 .4 0 .8-2.5.8-5.5 0-4.8-.2-5.5-2-5.5-1.1 0-2 .4-2 1m7.5 0c.3.5.8 1 1.1 1 .2 0 .4-.5.4-1 0-.6-.5-1-1.1-1-.5 0-.7.4-.4 1"/><path d="M201 10.7c0 12.1.8 12.5 5 2.1 1.3-3.1 2.7-5.5 3.1-5.3.4.3.5 1.4.2 2.4-.3 1.1.5 5.4 1.8 9.6 1.3 4.5 1.8 7.9 1.3 8.5-.5.4-6.9 2.5-14.3 4.5s-17.3 5-22 6.7c-16.4 5.7-35 17.2-43 26.5l-3.9 4.6-3.4-5.4c-1.9-3-5.1-8.4-7.1-12.1-2.1-3.7-4.9-8.1-6.4-9.8-2.6-3.1-2.8-3.2-9.2-2.7-3.6.2-14 1.7-23.1 3.3-14.9 2.5-18.8 2.8-40 2.8-22.8 0-29.9-.7-38.3-3.9-1.6-.7-1.7.3-1.7 12v12.8l6.8-.7c26.2-2.4 55.5-1.3 57.9 2.1.7.9 1.3 1.9 1.3 2.2-.1.3-3.5 2.6-7.7 5.1l-7.6 4.5-6.3 16c-3.5 8.8-6.4 17.4-6.4 19.1 0 1.8 2.2 13.3 4.9 25.6 2.8 12.2 5.9 26.8 7.1 32.3 3.7 17.7 6.2 28 7.1 28.9.4.5 14.9.2 34.1-.8 115.3-5.6 148.5-6.4 264.1-6.2l100.7.1 1-3c.5-1.7 2.8-11.6 5-22 2.3-10.5 5.7-26.2 7.6-35 5-22.8 5.1-23.6 1.6-32.5-3-7.4-2.9-10.6.3-8 1.3 1 1.5.9 1.6-.6.1-1.1.7-.1 1.3 2.1.8 2.4 1.5 3.4 1.8 2.5s1.1.3 2.1 3l1.5 4.5.2-5.5c.1-3.9.4-4.9 1-3.5.9 2.4 1.4.2 3.1-15 1.3-12.3 2.4-14 1.6-2.6-.7 10.4.6 9.4 2.2-1.7.7-4.6 1.6-9.4 2.1-10.5.8-2 .9-1.8.9 1 .1 1.7.5 3.3 1 3.5.6.2.6 2.9.2 6.8-.5 3.6-.6 7-.4 7.7.7 1.9 3.7-1.6 5.9-6.8 1.6-4 2-4.5 3-3.1 1.3 1.8 1.3 1.8 3.2-10.3.7-4.9.8-5 4.5-5.3l3.7-.3V0h-68l.4 2.2c2.3 10.6 3.9 17.7 4.7 20.1.4 1.5 1.1 6.6 1.5 11.4l.7 8.5-7.4-.7c-4.1-.4-13.2-1.6-20.4-2.6-7.1-1-15.3-1.9-18.2-1.9-4.7 0-5.4.3-8.1 3.5-1.6 2-5.1 7.5-7.7 12.3C383 64.4 377 74 376.1 74c-.3 0-4.9-4.2-10.2-9.3-5.2-5-11.9-11.1-15-13.4-7.3-5.6-21.3-12.5-32.4-15.8-4.9-1.6-9.3-3.1-9.8-3.5-.4-.3.2-2.4 1.3-4.6 1.5-3 10.8-22.2 12.8-26.7.2-.4-4.3-.7-10.1-.7h-10.4l-.7 9.2c-.3 5-.6 11.8-.6 15v6l-3.2-.7c-1.8-.4-3.6-.9-4-1.2-1.2-.6-1-5.1.2-5.8.6-.3 1-.1 1 .6 0 2.9 1-.3 2.9-9.1 1.1-5.2 2.3-10.5 2.7-11.8l.6-2.2h-80.1l-.4 4.2-.4 4.3-.1-4.3L220 0h-19zm90.1-2.4c-1.3 1.3-2.6.3-1.6-1.2.3-.6 1.1-.8 1.7-.5.6.4.6 1-.1 1.7m-72.4 1.9c-.3.8-.6.5-.6-.6-.1-1.1.2-1.7.5-1.3.3.3.4 1.2.1 1.9M504 25c-2 1.3-3.3 1.3-2.5 0 .3-.6 1.4-1 2.3-1 1.5 0 1.5.2.2 1m-197 4c0 1.1-.7 2-1.5 2-1.7 0-1.8-.2-.9-2.4.9-2.3 2.4-2 2.4.4m146 38c0 2.2-.2 4-.5 4-.6 0-6.7-3-7.3-3.5-.2-.2.1-1.3.8-2.4.7-1.4 2.1-2.1 4-2.1 2.8 0 3 .2 3 4m-33.4 1.6c.1 1.4 1.2 3.6 2.5 5l2.2 2.4-2.6 2.6c-1.5 1.4-3.9 5.9-5.5 10l-2.8 7.3-6.5-3.9c-3.5-2.2-6.8-4.1-7.4-4.3-.5-.2 2.3-4.3 6.3-9.1 11.3-13.4 13.6-15 13.8-10M94.7 70.5c2.5 1.7 16.3 18.9 16.3 20.1-.1.9-10.3 9.6-11.9 10.2-.4.1-2.1-3.2-3.6-7.5-1.8-4.9-4.1-8.9-6.3-11.1-3.2-3.3-3.3-3.5-1.4-4.8 1.1-.7 2.3-2.9 2.6-4.9.8-3.9 1.2-4.1 4.3-2M464.1 74c.9.6 4.2 18.1 3.5 18.7-.2.2-1.8-3.1-3.6-7.4s-3.8-8.5-4.6-9.4c-1.3-1.5-2.1-4.9-.8-3.6.4.3 1.4-.1 2.3-1 1.5-1.5 1.6-1.5 2 .3.2 1 .7 2.1 1.2 2.4"/><path d="M326 4.7c0 4.6 1.4 15.8 2.6 21.6.8 4 2.2 2.3 5.5-6.5 2.8-7.8 3.2-7.7 4.5 2.2.3 3 1 6.4 1.4 7.5.7 2 .7 2 1.3 0 .3-1.1.8-6.7 1.2-12.5.3-5.8.9-12 1.2-13.8l.5-3.2H326zm20.9-1c0 2.1 0 6.5.2 9.8.1 3.3.2 7.6.3 9.6.1 4.9 2.6 4 2.7-1 .1-3.8 1.6-10.6 1.8-8.3 0 .7.5 1.1 1 .8.7-.5 7.1-13.1 7.1-14.1 0-.3-2.9-.5-6.5-.5H347zM365 2.4c0 3.5 1.5 4 3.4 1.1 2.1-3.2 2-3.5-.9-3.5-2 0-2.5.5-2.5 2.4M.1 114c.1 21.7.3 38.6.6 37.5s2.9-10.3 5.9-20.5c3-10.1 5.4-19.6 5.4-21 0-2.9-9.7-33-11.1-34.5C.4 75 0 90.3.1 114m507.5-27.8c-6.6 21.3-6.5 18.2-.8 35.8l5 15.5.1-31.3c.1-17.1-.1-31.2-.3-31.2s-2 5.1-4 11.2M253.5 233.1c-39 .8-130.5 3.6-147.5 4.4-17.7.9-32.2 1.5-38.7 1.6l-6.3.2-2.9 7.6c-8.8 22.9-18.4 59.1-21.2 79.8-.6 5.1-1.7 9.7-2.3 10.1-.6.5-2.9 1.4-5.1 2.1s-9.6 4.1-16.5 7.5L.5 352.7l-.3 15.6-.3 15.7h84.8l6.1-11.8c7.6-14.8 12.3-25.9 22.6-53.3l8.3-22 .9 23.3c.5 12.8.8 32.4.7 43.5l-.2 20.3H386l-.1-17.8c0-9.7.4-23.3 1-30.2s1.1-13.4 1.1-14.5c.1-1.4.5-.9 1.5 1.5.8 1.9 4.4 11.1 8.1 20.5 3.6 9.3 9.3 22.3 12.7 28.7l6 11.8H512v-27l-11.4-5.4c-13.5-6.5-30.3-13.6-32.2-13.6-1.4 0-2-2.6-2.9-13.5-1.4-16-8.3-45-17.2-71.9-3.4-10.4-3.5-11-1.9-13.6.9-1.6 1.6-3.7 1.6-4.7 0-1.9-1.6-2-79.2-2-43.6 0-95.5.3-115.3.8"/></svg>