<svg xmlns="http://www.w3.org/2000/svg" width="682.667" height="512" version="1.0" viewBox="0 0 512 384"><path d="M197.2 1.6c.4 2.1 2.2 2.3 2.6.1.2-1-.3-1.7-1.3-1.7s-1.5.6-1.3 1.6"/><path d="M208.4 2.7c.4 1.6.9 3.5 1.2 4.4.7 2.5-1.1 3.3-14.6 6.8-34.4 9-52.3 17.9-68.5 34.1l-7 7-7.5-13.1c-4.1-7.2-8.5-13.9-9.8-15-3.1-2.4-7.4-2.4-20.4.1-26.7 5.1-56.4 7.7-70.1 6.1-5.3-.6-10-1.1-10.6-1.1C.4 32 0 35.6 0 42.5v10.4h18.3c36-.2 42.3 1.8 29.4 9.4-3.4 2-7 4.4-8.1 5.1-1 .8-4.9 9.7-8.8 19.7l-6.9 18.2 7.1 29.6c3.9 16.3 7.6 30.9 8.1 32.5 1.5 4.7 1.1 7.4-1.1 8.1-2.8.9-2.5 1.9 1.4 5.2 2.7 2.2 3.8 4.2 5.1 9.3.9 3.6 2.1 8.2 2.6 10.4l1 3.8 7.2-.6c16.5-1.4 116.3-5.8 170.7-7.5 15.1-.5 75.1-.8 133.2-.7l105.8.1 1-2.9c.6-1.6 3.9-15.3 7.5-30.5 3.5-15.2 8-34.4 10-42.6 1.9-8.3 3.5-16.1 3.5-17.5 0-2.6-12.4-35.5-14.2-37.7-1.2-1.4.9-8.6 2.2-7.8.5.3 1.3-.2 1.8-1.2 1.5-2.6 4.8 5.6 6.1 15.2.6 4.4 1.6 8.4 2.1 8.9.7.7 1 .5 1-.4.1-.9.7-.4 1.5 1 1.1 1.9 1.4 2.1 1.5.7 0-3.5 1.8-1.6 2.4 2.8.4 2.4 1.2 4.4 1.7 4.2.5-.1 1.8 1.6 2.9 3.8l1.9 4-.5-6c-.4-4.1-.3-5.6.4-4.6 1.1 1.6 1.2 1.2 3.3-17.9 1.7-15.7 3-16.7 2.6-2l-.4 12.5 1.3-8c.7-4.4 1.8-11.2 2.5-15l1.2-7 1.2 3.5 1.2 3.4.6-3.3c.4-1.8.7-11.6.7-21.6 0-13.7-.3-18.5-1.2-18.8q-1.5-.6 0-.6Q512 9.95 512 5V0h-24.1c-13.8 0-23.8.4-23.5.9 1.2 1.8 2.4 25.6 1.5 26.6-.5.5-24.2-2.2-35.6-4-5.1-.8-11.9-1.5-15.1-1.5-6.7 0-8.6 1.3-12.8 8.7-7.7 13.6-12.1 21.2-14.4 24.9l-2.6 4.1-11-10.6c-13.8-13.4-20.8-18.8-30.9-23.8-7.7-3.9-25.1-10.3-28-10.3-2.5 0-2.5-1.7 0-7.4 1.4-3.1 2.5-6.1 2.5-6.6 0-.6-3.1-1-7-1h-7v11.8l-3.7-1c-4.9-1.3-5.8-2.2-4.4-4.5.6-1 1.1-1.2 1.1-.6 0 2.8 1.8 1.1 2.2-2.2l.4-3.5h-91.8zm101 8.8c.3.8.1 1.5-.4 1.5-.6 0-1-.7-1-1.5s.2-1.5.4-1.5.6.7 1 1.5m158.6 43c0 3-.2 5.5-.5 5.5s-2.7-1.2-5.5-2.8c-4-2.2-4.8-3.1-4.3-4.7.8-2.7 2.2-3.5 6.6-3.5h3.7zm-38 .9c0 1.3.9 3.5 2.1 5l2.1 2.6-3.1 3.5c-1.6 1.9-3.8 5.7-4.8 8.5-1 2.7-2.1 5-2.5 5-.3 0-3.6-1.7-7.2-3.8l-6.6-3.8 6-7.5c9.6-11.8 14-14.8 14-9.5M85.4 58.2c4.3 3.9 15.6 18 15.1 18.7-.8 1.4-11.2 9.1-12.2 9.1-.5 0-1.9-2.9-3.2-6.4-1.4-3.9-3.5-7.6-5.7-9.7L76 66.6l2.1-2.2c1.1-1.2 2.1-3.6 2.1-5.3.1-3.7 1.7-4 5.2-.9"/><path d="M332.4 5.2c1.1 8.2 2.1 9.1 4.4 3.8 3.9-8.9 3.9-9-.9-9h-4.2zm11.9-3c.3 1.3.9 4 1.2 6 1.2 6.6 3.5 4.1 3.5-3.8 0-4.1-.2-4.4-2.6-4.4-2.2 0-2.5.4-2.1 2.2M355 3.5c0 3.9 1.4 4.7 2.4 1.2.9-3.5.7-4.7-.9-4.7-1 0-1.5 1.1-1.5 3.5m155.7 53.2c-.4.7-.8 2.9-.7 5 0 2.1-.1 5.7-.3 8-.3 5 .9 5.7 1.8 1 .8-4.4.2-15.5-.8-14M253 233.1c-37.8.8-129.1 3.6-147.5 4.4-6 .3-15.3.7-20.5 1-5.2.2-16.4.7-24.9 1.1l-15.3.7-2.4 5.3c-3.4 7.8-13 38.6-16.8 54.4-1.9 7.4-4.1 18.9-5 25.5-2.2 15.6-2.2 15.4-6.4 17.1-2.1.8-6.1 2.5-8.9 3.7L0 348.5V384h75.8l4-7.8c4.7-9 14.4-32 23.3-55.2l6.4-16.5.7 14c.4 7.7 1.2 21.3 1.8 30.3s.8 20.5.4 25.7l-.7 9.5h286.6l-.8-7.8c-1-9.4-1-9.2.4-27.7.7-8.3 1.2-16.6 1.2-18.5v-3.5l1.9 4c1.1 2.2 4.2 9.6 6.9 16.5 2.6 6.9 7.4 18.1 10.6 24.8l5.8 12.2H512v-30.7l-4.7-2.1c-2.7-1.2-9.1-3.9-14.3-6l-9.5-3.8-.8-8c-2.6-26.8-11.5-63.1-22.8-92.5l-2.9-7.6-8.8-.6c-11.9-.9-151.5-.6-195.2.4"/></svg>