<svg xmlns="http://www.w3.org/2000/svg" width="682.667" height="512" version="1.0" viewBox="0 0 512 384"><path d="M24.5 1c-2.8.4-9.5 1.1-14.8 1.5L0 3.2v21.5l13.1.5c7.2.3 13.4 1 13.9 1.4 1.5 1.7 2.2 5.4.9 5.4-.6 0-4.9 2.4-9.5 5.2L10 42.5l-5 15c-5 15-5 15-5 28.3 0 14.4-.4 12.4 9.4 46 3.1 10.6 5.5 19.6 5.2 20-.2.4-3.6 2.3-7.5 4.2s-7 3.9-6.8 4.5c.6 1.9 15.1 12.5 18.2 13.3 2.7.7 3.3 1.6 5.8 9.4l2.8 8.7-1.9 4.3c-1.1 2.4-2.3 5.3-2.7 6.6l-.7 2.3 9.4-.5c5.1-.3 14-.8 19.8-1.1s18.2-1 27.5-1.5c14.8-.8 85.5-3.9 128-5.5 36.7-1.4 71.1-1.7 169.6-1.6l106.6.1 1.1-2.7c.6-1.6 2-6.2 3.2-10.3s2.3-8.3 2.6-9.2 3.4-4 7-6.8c7.6-6.1 8.1-8.1 2.3-11-3-1.6-3.9-2.6-3.4-3.8.3-.9 4.2-14.2 8.6-29.5l7.9-27.8V81.2c0-12.7 0-12.7-5.1-28-4.3-12.6-5.7-15.6-8.1-17.3-2.6-1.9-2.9-1.9-4.4-.4-.9.9-2.1 1.4-2.8 1.2-1.2-.5-1.2-1.1-.1-3.9.5-1.2-.5-2.3-4-4.3-3.8-2.3-4.5-3.1-3.9-4.9.4-1.1.8-2.3 1-2.5s4.3-.5 9.1-.5l8.8-.1-.3 3.4c-.3 3 .8 5 2.9 5.1.3 0 1.7-2 3-4.5s2.7-4.5 3.1-4.5c.5 0 .8-4.5.8-10V0h-91.6l-2.1 3.7c-1.1 2.1-3.5 6.5-5.3 9.8s-4.2 7.2-5.2 8.8l-2 2.7-9.1-8.3c-5.1-4.6-11.1-10.3-13.5-12.5L378.9 0H120.2l-4.9 3.8c-2.7 2.2-7.5 6.8-10.7 10.3-4.7 5.1-6 6.1-6.7 4.9-.5-.8-3.1-5.3-5.8-10L87.3.5 58.4.4C42.5.3 27.2.6 24.5 1m484.4 13.9c.9 1.6.5 2.1-2.5 3.6-3 1.4-3.8 1.5-4.5.4-1.3-2.1-1.1-2.6 1.3-4.3 3-2.1 4.5-2 5.7.3M452 26.1c0 2.5 1.8 6 3.9 7.6 1.4 1 1 1.8-2.9 6.1-2.5 2.7-4.8 5-5.3 5.1-.4.1-3.2-1.3-6.2-3-6.4-3.6-6.4-3.6 1.8-12.2q8.7-9 8.7-3.6m-388.6 4C67.1 33 76 43.8 76 45.3c-.1 1.2-7.7 7.2-10.4 8.3-.9.4-1.8-.6-2.6-3-.6-1.9-3-5.2-5.4-7.4l-4.3-3.9 2.3-2.2c1.2-1.1 2.5-3.7 2.8-5.6.8-4.1 1.4-4.2 5-1.4m173.1 203c-36.8.9-124.3 3.7-138 4.4-5.5.3-15.6.7-22.5 1s-20.6 1-30.5 1.5-22.6 1-28.2 1.1l-10.2.1-3.3 8.2-3.3 8.1-.3 63.3L0 384l27.7-.2 27.8-.3 4.9-11c2.7-6.1 8.6-20.2 13.2-31.3 4.5-11.2 8.4-20.6 8.7-20.8.2-.2.7 6 1 13.8.4 7.9 1.2 22.3 1.9 32l1.1 17.8h335.6l1-3.8c.5-2 1.2-8.9 1.5-15.2s.9-13.9 1.2-16.8l.7-5.3 4.7 11.8c2.6 6.5 6.6 15.7 8.8 20.5l4.1 8.8H512v-93.2l-3-10.2c-4.1-14-13.4-41.5-15.3-45.2l-1.6-3.1H379.3c-62 0-126.3.3-142.8.8"/></svg>