<svg xmlns="http://www.w3.org/2000/svg" width="682.667" height="512" version="1.0" viewBox="0 0 512 384"><path d="M0 8.9v8.9l9.9.4c5.5.1 10.2.5 10.4.8.3.3.8 1.7 1.2 3.3.5 2 .3 2.7-.7 2.7-.8 0-5.2 2.6-9.8 5.7-6.4 4.5-8.7 6.6-9.6 9.3C.5 42.5.1 53.8.1 80.4l-.1 37 4 13.2c2.2 7.3 4 13.7 4 14.3s-1.8 2-4 3.1l-4 2v6.9c0 6.7.1 6.9 3.6 9.6 2 1.5 5.8 3.4 8.4 4.2 4.7 1.4 4.7 1.4 6.4 7.7 1.7 6.1 1.7 6.5-.2 10.7-3 6.8-6.2 14.7-6.2 15.4 0 .4 4.6.4 10.3.1 23.9-1.5 64.9-3.6 87.2-4.6 13.2-.5 34.4-1.5 47-2 72.1-3.3 136.1-4.3 236.6-3.6l94.6.6 3.7-12.8 3.8-12.9 8.4-6.2c10.4-7.7 11-9.8 3.4-13.6-2.8-1.4-5-2.8-5-3.1s2.3-8 5-17.1l5-16.6V76c0-45.8.6-43.2-12.5-51.5-13.3-8.5-12.8-10.8 2.2-12l9.2-.7.4 3.8c.2 2.2.4-.5.5-5.9L512 0h-45.7l-45.8.1-4.4 7.9c-2.4 4.4-4.7 8-5 8-.4 0-4.2-3.6-8.6-8l-8-8H249L103.5-.1l-5.1 5.8-5.2 5.7L90 5.7 86.8 0H0zm458 10c0 1.7 1.1 4.2 2.6 6l2.5 3.1-4.1 3.9-4.2 4-5.9-3c-3.3-1.6-5.9-3.3-5.9-3.7 0-1.5 11.9-13.2 13.4-13.2 1.1 0 1.6.9 1.6 2.9M64 29.3c3.3 3.9 6 7.3 6 7.6-.1.8-8.2 6.8-10.2 7.6-1.2.5-2.1-.2-3.3-2.4-.8-1.7-3.2-4.7-5.3-6.6-3.4-3.1-3.6-3.5-2-4.7 2.2-1.7 4-6.6 3.3-8.9-.6-1.7-.3-1.7 2.5-.8 1.8.7 5.5 4 9 8.2m430 7.2c0 1.7-3.6 3.9-4.4 2.6-.4-.5-.3-1.6 0-2.5.8-2 4.4-2.1 4.4-.1M267.5 231.7c-48.8.5-165.4 4.3-215 7-7.7.5-22.7.8-33.3.8H0V384h49.7l9.3-21.8c9-21.1 11.2-26.4 14.3-34.7l1.5-4 .6 4.5c.3 2.5.8 10.6 1 18 .3 7.4.9 19 1.2 25.8l.7 12.2 176.1-.2 176.1-.3.8-11c.4-6.1 1.1-14.1 1.5-18l.7-7 2.9 7c1.6 3.9 5 11.9 7.6 18l4.7 11 31.7.3 31.6.2V257.8l-4.6-12.8-4.5-12.7-77.2-.6c-71.4-.6-95.9-.6-158.2 0"/></svg>