<svg xmlns="http://www.w3.org/2000/svg" width="682.667" height="512" version="1.0" viewBox="0 0 512 384"><path d="M0 5.5V11h6.5c5.5 0 6.6.3 7.5 2.1 1.2 2.2.7 4.9-1 4.9-.6 0-3.7 1.8-7 4.1l-6 4.1.2 70 .3 70 5 1.6c5.4 1.9 7.9 5 7.1 9.2-.2 1.4-3 8.5-6.1 15.8-3.1 7.4-5.4 13.6-5.1 13.9.3.4 1.8.1 3.3-.6 4.8-2.2 103.9-7.7 181.8-10.1 18.2-.5 48.1-1.5 66.5-2.1 23.2-.8 65.8-1 138.8-.5l105.4.7-.7-2.3c-.4-1.3-1.1-2.9-1.5-3.6-.4-.8.3-4.4 1.6-8.2 1.2-3.8 2.5-8.1 2.8-9.7.5-2 2.4-4 6.6-6.8l6-4v-8.7c0-7.1-.3-8.9-1.7-9.6-1.5-.9-1.5-1.3 0-6 1.5-4.5 1.7-11.5 1.7-59.9V20.5l-6.5-4.3c-3.6-2.3-7.2-4.2-8.1-4.2-1.1 0-1.4-.6-.9-2.3 1.1-3.5 1.9-3.9 8.9-4.4 6.1-.5 6.6-.7 6.6-2.9V0h-90.9l-1.8 3c-.9 1.7-2 3-2.4 3s-2-1.4-3.6-3l-2.8-3H250C126.4 0 89.1.3 88.2 1.2s-1.2.9-1.2 0S76.7 0 43.5 0H0zm464 5.9c0 2.2.9 4.5 2.5 6.4l2.4 2.9-2.7 2.6c-3.5 3.4-4.2 3.3-10.6-.1-2.8-1.5-5.3-2.8-5.5-2.9-.8-.4 6.5-8.5 9.3-10.3 4.2-2.7 4.6-2.5 4.6 1.4M51.4 14.9c3.5 2.3 11.7 12.2 11.3 13.6-.2.5-2.5 2.4-5 4.2L53 36l-5.6-5.4-5.5-5.5 2-2c1.2-1.2 2.4-3.9 2.7-6.1.4-2.2.9-4 1.3-4 .3 0 1.9.9 3.5 1.9M504 19c0 1-.9 2.4-1.9 3-3.9 2-7.1-1.7-3.3-3.9 2.8-1.7 5.2-1.3 5.2.9m-11 19.3c0 .7-.5 1.8-1.2 2.5S490 42 489.3 42c-1.6 0-1.7-2.2-.1-3.8s3.8-1.5 3.8.1m14.9 191.2c-.3.2-67.1.6-148.5.9-129.6.4-174.2 1-221.4 3-6.3.3-29.3 1.2-51 2.1-21.7.8-46.5 2-55 2.5-8.5.6-19.2 1-23.7 1H0v145h43.8l10.7-25.2c5.8-13.9 11.1-26.4 11.8-27.8l1.1-2.5.2 2.5c.2 1.4.8 13.9 1.5 27.8l1.2 25.2h368.5l.7-14.4c.8-15.7 1.6-18.7 3.4-13.4.6 1.8 3.5 8.8 6.3 15.5l5.1 12.3H512v-77.5c0-74.5-.1-77.5-1.8-77.5-1 0-2.1.2-2.3.5"/></svg>