<svg xmlns="http://www.w3.org/2000/svg" width="682.667" height="512" version="1.0" viewBox="0 0 512 384"><path d="M0 101.6v101.6l2.8-.6c8.7-1.9 16.2-2.7 38.7-4.1 38.5-2.3 41.3-2.4 68.5-3.5 14-.5 28.4-1.2 32-1.5 8.6-.7 60.2-2.3 114-3.4 46.1-1 248.4.1 253.3 1.4l2.7.7V0H277.1C61.2 0 42.2.1 42.4 1.6c0 1-2.1 2.8-5.9 4.9l-6 3.2-3.3-2.5-3.3-2.5 2.2-2.3L28.3 0H0zM494.5 26c0 1-1.2 1.6-3.2 1.8-2.4.2-3.3-.1-3.3-1.2 0-.8.6-1.7 1.3-2 2.2-.9 5.2-.1 5.2 1.4M488 46.5c0 1.7-3.6 3.9-4.4 2.6-.4-.5-.3-1.6 0-2.5.8-2 4.4-2.1 4.4-.1M230.5 224c-44.9.8-79.5 1.7-96.5 2.5-5.8.3-22.4 1-37 1.5-14.6.6-30.1 1.2-34.5 1.5-4.4.2-20.3.9-35.2 1.6L0 232.3V384h25.7l5.6-12.8c3-7 6.7-15.8 8.2-19.5s2.9-6.6 3.1-6.4c.3.2.9 7.8 1.4 16.8.6 9 1.3 17.6 1.6 19.2l.6 2.7h416.7l.6-5.8c.3-3.1.7-6.6.9-7.7.1-1.3 1.5.8 3.9 5.7l3.6 7.8H512V223.5l-119.8-.2c-65.8 0-138.6.2-161.7.7"/></svg>