<svg xmlns="http://www.w3.org/2000/svg" width="682.667" height="512" version="1.0" viewBox="0 0 512 384"><path d="M0 100c0 109-.4 101.3 5.6 99 1.4-.6 6.7-1.5 11.8-2 13.5-1.4 74.3-4.8 105.1-6 14.9-.5 37.8-1.5 51-2.2 26.8-1.4 317.2-1.9 330.8-.6l7.7.8V0H0zm486.6-68.5c-2.1 1.6-5.6 2-5.6.7 0-1.6 1.3-2.2 4.4-2.2 2.9.1 3 .1 1.2 1.5m-4.1 20.6c0 .7-.8 1.5-1.7 1.7-1.8.3-2.5-1.8-1.1-3.2 1-1 2.8-.1 2.8 1.5M240 218.1c-47.8.9-118.1 2.8-126.3 3.4-3.4.2-18.6.9-33.7 1.5s-35.3 1.5-44.9 2c-9.5.6-21.3 1-26.2 1H0v158.1l7.2-.3 7.1-.3 5.4-12.5c3-6.8 5.8-12.9 6.3-13.4.7-.7 1 .9 1 4.4 0 3 .3 9.2.7 13.7l.6 8.3H480l.1-2.3v-2.2l1.6 2.3c1.5 2.1 2.1 2.2 15.9 2.2H512V218.5h-28.2c-15.6 0-68.1-.3-116.8-.6s-105.8-.3-127 .2"/></svg>