<svg xmlns="http://www.w3.org/2000/svg" width="682.667" height="512" version="1.0" viewBox="0 0 512 384"><path d="M0 97.9v98l4.7-1.4c13.3-3.8 79.9-7.7 199.3-11.6 21.2-.7 72.3-.8 146.8-.3 126 .8 116.1 1.3 116.2-5.6 0-4 3-10.9 6.6-15.8 2.1-2.7 3.1-3.2 5.2-2.7 1.5.3 3.8.7 5.1 1 4.4.8 9 6.3 9.7 11.6.5 3.7 1.1 4.9 2.7 5.3 1.2.3 2.8 0 3.6-.7s3.7-1.2 6.5-1.2h5.1l.3-87.3L512 0H0zm473.2-58.7c-.9.9-1.5.9-2.4 0s-.7-1.2 1.2-1.2 2.1.3 1.2 1.2M197.5 210c-48.4 1.4-95.5 3-104 3.5-4.4.3-18.1.9-30.5 1.5-12.4.5-27.7 1.2-34 1.6-6.3.3-15.4.6-20.2.7l-8.8.1v164.1l2.2-4.5 2.2-4.5.3 3.5c.2 1.9.6 4.5.8 5.7L6 384h506V229.6l-8-7.7-8-7.6v4.4c0 5-.9 7.1-5.6 12.9-3.2 4-3.4 4.1-7.9 3.4-3.4-.5-5.6-1.7-8.4-4.4-3.6-3.5-3.9-4.4-4.7-11.4l-.9-7.7-17.5-.6c-31.2-1.1-223.7-1.8-253.5-.9"/></svg>