<svg xmlns="http://www.w3.org/2000/svg" width="682.667" height="512" version="1.0" viewBox="0 0 512 384"><path d="M0 96c0 52.8.4 96 .8 96 .5 0 3.1-.7 5.8-1.5 13-3.9 73.8-8 164.5-11.1 39-1.3 65.1-1.4 146.9-.9 83.9.6 99.7.5 100.6-.6.6-.8 1.4-3.6 1.8-6.3.3-2.7 1.6-6.7 2.9-9 2.1-3.8 2.6-4.1 6.1-3.9 6 .4 9.4 3.5 10.2 9.2.6 4.4.9 5 3.7 5.5 1.7.3 3.6.1 4.4-.5.7-.7 3-.9 5.1-.7 2.5.4 4.5 0 5.8-.9 1.3-1 3.9-1.3 7.9-1.2 4.6.3 6.7-.1 8.9-1.6 3.6-2.4 9.6-2.4 13.1-.1 1.5 1 4.6 4.8 7.1 8.7 3.3 5.1 5.1 6.9 6.7 6.9 1.2 0 3.9.3 6 .6l3.7.7V0H0zm462.8-49.8c-.5 1.6-4.8 2.4-4.8.9 0-.8 1.7-1.6 4.3-2 .5 0 .7.5.5 1.1m44.7 155.7c-1.9.8-1.8.9.8 2.1 3 1.5 4.3.9 3.4-1.5-.7-1.7-1.3-1.7-4.2-.6M161.4 203c-33.7 1-50.9 1.7-87.9 3.5-47.7 2.4-68.9 3.5-71.2 3.5H0v174h512v-73.4c0-69.1-.1-73.5-1.7-74-1-.3-8.1-2.2-15.8-4.2s-16.5-4.7-19.5-6.1-7.3-3.2-9.5-4c-7.3-2.5-13.4-7.3-21.1-16.6l-3.1-3.7.5 4.8c.3 3.7-.1 5.9-1.8 9.3-3.5 6.9-4.6 7.8-8.8 7.2-4.9-.7-9.2-5.4-9.3-10.3-.3-7-1.2-9.5-3.9-9.7-7.6-.7-233.8-1-256.6-.3"/></svg>