<svg xmlns="http://www.w3.org/2000/svg" width="682.667" height="512" version="1.0" viewBox="0 0 512 384"><path d="M0 95.3v95.3l9.8-3.2c16.9-5.7 47.3-9 109.2-12 23-1.1 62.5-1.7 135-2.1l102.5-.4.8-4.2c2-10 2.1-10.2 5.5-10 4.5.2 6 1.7 6.8 7l.7 4.5 4.6-.6c2.5-.4 5.9-.6 7.5-.6s3.5-.5 4.2-1.1 3.2-.9 5.6-.8c2.7.2 5.2-.3 6.9-1.4 5.1-3.4 10.5-.2 16.5 9.9.8 1.4 3.2 1.9 14 2.6 7.1.5 17.6 1.2 23.3 1.6l10.4.8 1.4-3.5c4.8-11.4 23.7-28.2 41.2-36.6l6.1-2.9V0H0zm440.8-35.6c-.2 1.1-1.4 1.9-3.1 2.1-3 .4-3.6-1.2-.9-2.7 2.6-1.6 4.4-1.3 4 .6m-70.6 136.1c.3 6.1-1.8 11.1-5 12.3-3.6 1.4-6.3-1.6-7.3-8.2-.5-2.9-1.3-5.7-1.9-6.3-1.9-1.9-166.7-2.1-218.5-.2-55.3 2-83.9 3.4-98 4.6-6 .5-15.5 1.2-21 1.5s-11.9.8-14.2 1.1l-4.3.5V384h512v-82h-2.1c-3.3 0-14.7-5.8-19.1-9.8-2.1-1.9-5.1-5.5-6.5-7.9-2.2-3.8-2.5-5.2-2.2-12.1.4-6.9.8-8.2 3.8-12.5l3.5-4.7-2-6.2-2-6.2-5.7-1.3c-3.1-.7-13.5-4.8-23.1-9.2-22.2-10.3-25.2-11.4-41.5-16.1-23.7-6.8-30.5-10.3-38.3-19.8-5.3-6.6-6.9-6.7-6.6-.4m53-4c-1 .7 1.1 2 7.2 4.5 9.2 3.9 27.6 10 28.2 9.4.2-.2.7-3.1 1-6.4l.7-6-11.9-.7c-6.6-.4-14.6-.9-17.9-1.2-3.3-.2-6.6-.1-7.3.4"/></svg>