<svg xmlns="http://www.w3.org/2000/svg" width="682.667" height="512" version="1.0" viewBox="0 0 512 384"><path d="M0 96.6v96.5l2.6-2c3.4-2.6 18.4-7.5 29.4-9.5 15.8-2.8 42.5-4.9 100.5-7.7 12.7-.7 66-1.3 118.5-1.5l95.5-.3.6-4.9c1.1-8.7 3.8-11.1 8.7-7.6 1.7 1.2 2.2 2.5 2.2 5.8v4.3l3.8-.4c10-1.1 12.8-1.6 13.9-2.5.7-.6 2.8-.7 4.8-.4 2.4.5 4.2.2 5.8-.9 1.4-.8 3.8-1.4 5.6-1.3 2.5.2 3.9 1.3 7.3 6 2.7 3.6 5.1 5.9 6.7 6.3 1.5.3 10.9 1 21.1 1.5 16.9.9 18.6.9 19.8-.7.6-.9 1.2-2.1 1.2-2.6 0-1.5 8.5-12 13.2-16.3 6.7-6.2 19.2-14.3 28.7-18.6 4.7-2.1 10.4-4.8 12.6-5.9 2.2-1.2 5.2-2.8 6.8-3.6l2.7-1.4V0H0zm435.8-33.9c-.4 2.3-4.8 3.1-4.8 1 0-.9.6-1.8 1.3-2 2.5-1.1 3.8-.7 3.5 1m-77.1 132.8c-.8 7.9-2 10.5-5.1 10.5-3.4 0-5.4-2.8-6.1-8.7l-.7-5.1-6.2-.7c-7-.7-219.2 0-224.6.8-1.9.3-11.6.8-21.5 1.1-31.2 1.1-70.7 3.8-89 6.1-1.6.2-3.6.4-4.2.4C.3 200 0 219.1 0 292v92h323v-2.6c0-3.6 3.5-9 6.2-9.7 2.5-.7 3.3-.3 14.4 7l7.9 5.3h156.4l.3-5.2c.3-5.6-1.9-15.4-7.8-34.7-2-6.2-3.3-12.3-3-13.5s2.2-4.3 4.2-6.9c3.7-4.7 3.7-4.7 3-12-1.4-14.9-1.2-14.5-6.9-15.2-16.6-2.3-31.2-12.9-33.3-24.2-1.2-6.6 1.3-15 5.9-20.1 1.9-2.1 2-2.6.8-6.9-1.6-6.3-2.1-6.8-8.8-8.2-3.2-.7-12.8-4.6-21.3-8.6-20-9.3-26.1-11.7-39.9-15.5-13-3.5-24.1-8-28.9-11.6-1.8-1.4-4.9-4.8-7-7.5-2-2.7-4.1-4.9-4.8-4.9-.6 0-1.4 2.6-1.7 6.5m50.3-4.9c0 .5 1.5 1.6 3.3 2.3 10.2 4.1 13.9 5.5 20.7 7.7 4.1 1.3 7.8 2.4 8.1 2.4 1 0 2.1-10.2 1.2-11.1-1.2-1.2-33.3-2.4-33.3-1.3m36.1 12c0 1.1.3 1.4.6.6.3-.7.2-1.6-.1-1.9-.3-.4-.6.2-.5 1.3"/></svg>