<svg xmlns="http://www.w3.org/2000/svg" width="682.667" height="512" version="1.0" viewBox="0 0 512 384"><path d="M0 98.1v98l4.8-3.8c14.1-11.6 40.1-15.6 121.7-18.7 7.2-.3 20.2-.9 29-1.3 8.8-.5 53.2-.7 98.7-.5l82.7.3.6-4.8c.9-7.1 2.1-9.3 4.8-9.3 3.7 0 6.1 3.3 5.4 7.4l-.6 3.5 4.7-.3c2.6-.2 4.9-.5 5.2-.6.3-.2 2.1-.4 4-.5 5.7-.4 12.2-1.7 14.7-3 3.7-1.9 7.2-.6 10.4 3.9 5.5 7.7 4.6 7.3 18 8 6.8.4 15.4.9 19.1 1.3l6.8.6 1.5-3.6c2.1-5 10.6-14.9 17.3-20.3 7.8-6.1 19.8-13.1 28.5-16.5 4-1.5 10.7-4.6 14.9-6.8s10.4-4.5 13.7-5.2l6.1-1.2V0H0zm431.8-32.4c.5 1.6-2.2 2.7-4.4 1.9-1.3-.5-1.4-.9-.4-2.2 1.5-1.7 4.1-1.5 4.8.3M434 85c0 .5-.4 1-1 1-.5 0-1-.5-1-1 0-.6.5-1 1-1 .6 0 1 .4 1 1"/><path d="M349 187.7c-.1 4-2.1 13.7-3.1 14.9-3.2 3.9-7.2.1-8.3-7.7l-.7-4.7-30.7-.7c-67.5-1.7-206.7.8-254.7 4.5-17.6 1.4-36.2 3-39.5 3.5-1.4.2-4.6.7-7.3 1l-4.7.7V384l165.3-.1 165.2-.1-5-2.3c-6.7-3.3-12.5-8.8-12.5-12.1 0-3.8 2.7-8.3 5.4-9 2.6-.6 5.8.7 9.1 3.7 1.1 1 9 5.9 17.4 10.8l15.5 9.1h125.4l.7-12.3c.7-13.5.5-14.9-5.6-35.8-2.3-8-3.7-14.4-3.3-15.5.4-1 2.3-4.1 4.1-6.8l3.5-4.9-.9-9.1-.8-9.1-4-.6c-12.6-2.2-23.7-8.9-28.5-17.3-4.8-8.2-3.7-16.6 3-24.3 2.3-2.5 2.9-4 2.4-5.6-2.2-7.3-3-7.9-11-9.7-2.7-.6-11.9-4.4-20.4-8.4-17.2-8.2-26-11.5-38.3-14.7-15.8-4-26.1-10-33.4-19.5-2.4-3.2-4.3-4.3-4.3-2.7m47 1.2c0 1.1 25.2 11.1 28 11.1 1.5 0 2-1 2.6-4.5.3-2.5.4-4.8.1-5.2-.6-.6-19.1-2.2-26.4-2.2-2.4-.1-4.3.3-4.3.8m33 11.1c0 .5.5 1 1 1 .6 0 1-.5 1-1 0-.6-.4-1-1-1-.5 0-1 .4-1 1"/></svg>