<svg xmlns="http://www.w3.org/2000/svg" width="682.667" height="512" version="1.0" viewBox="0 0 512 384"><path d="M0 192v192h169.7c93.3 0 169.4-.2 169.2-.4-1.4-1.3-21.1-12.7-24.4-14.2-5.1-2.3-11.5-8.2-11.5-10.7 0-3.3 3-7.7 5.7-8.3 2.8-.7 2.9-.7 12.4 5.6 5.9 3.9 23.2 13.9 38.9 22.5l10.1 5.5h102.2l-.7-4.7c-.4-3.4-1.3-5.3-3.3-6.8l-2.6-2.1 1.2-7.8c1.9-12.8 1.7-14.2-6.5-43.8l-1.8-6.7 3.7-5.6c3.7-5.5 3.8-5.8 3.5-13.8l-.3-8.1-7.5-2.1c-11.8-3.3-17.5-7.1-21.8-14.4-4.6-7.9-3.4-17 3.3-24.9 2.2-2.6 2.5-3.7 1.9-6.7-.7-4.1-1.7-4.7-10.3-7-3.5-.9-10.8-3.8-16.2-6.6-14.1-7-24.8-11.3-37.4-14.7-18.5-5.1-23.8-8-32.8-18.1-2.2-2.4-4.2-3.9-4.7-3.5-.4.5-1.3 3.8-1.9 7.3-1.9 11.4-7.9 10.8-9.5-1l-.7-4.6-58.2-.7c-89.1-1.1-213.9 2.8-251.2 7.8-1.6.3-5.7.8-9 1.1l-6 .7 4-4.2c13-13.7 42.8-17.9 150.5-21.5 39-1.2 145.5-1.3 164.2-.1 6.3.4 5.8 1.2 7.3-9.2.6-3.7 1-4.2 3.2-4.2 3.3 0 5.2 2.6 5.3 7.2 0 3.7 0 3.7 3.8 3.2 2-.3 4.4-.8 5.2-1.1s4.6-.7 8.4-1c3.8-.2 7.9-1.1 9-1.9s2.9-1.4 3.9-1.4c1.8 0 6.5 4.4 9.9 9.2 1.6 2.4 2.4 2.5 18.5 3.6 9.2.7 17.3 1.2 18 1.2.6 0 1.5-1 1.8-2.3.4-1.2 3-5.2 5.7-8.9 8-10.6 26.8-23.6 40.3-27.8 2.2-.7 8.1-3.2 13-5.5 10.1-4.9 17.2-6.5 28.7-6.5h7.8V0H0zM427 68.5c0 1.8-3.1 2.8-4.4 1.5-.8-.8-.6-1.5.8-2.5 2.1-1.6 3.6-1.1 3.6 1m3 18.5c0 .5-.4 1-1 1-.5 0-1-.5-1-1 0-.6.5-1 1-1 .6 0 1 .4 1 1"/><path d="M384.6 187.9c2.5 2.2 25.9 11 26.8 10 .2-.2.6-2.4.7-4.9l.4-4.5-6-.6c-9.1-1-23-1-21.9 0"/></svg>