<svg xmlns="http://www.w3.org/2000/svg" width="682.667" height="512" version="1.0" viewBox="0 0 512 384"><path d="M305 13.1c-12.4 1.6-28 9.1-28 13.5 0 1.1-.4 1.2-1.9.4-4.9-2.5-19.7.2-22.5 4.2l-1.5 2.2-2.1-2.6c-3.4-4.5-18.2-6.2-30.2-3.7-6.4 1.4-19.7 6.5-21.9 8.5-2.6 2.3-2.3 8.9.7 13.6 1.4 2.2 4.9 8.6 7.6 14.2 6.5 12.9 9.1 15.8 13.4 15l3.1-.6-.5 5.2c-.4 4.4 0 6.1 3.2 12.4 3.7 7.7 4.7 13.9 2.2 15.3-1.9 1.1-3 27.9-1.1 28.6.7.3 1.6 3 1.9 6 .6 4.8.4 5.9-1.7 9-1.4 2-3.2 6.9-4.1 10.8-2 9-4.7 13.4-9.7 15.9-4.9 2.6-6.3 5.1-5.6 10.9.3 3 0 5.8-1 8.1-.9 1.9-1.5 3.9-1.4 4.4s-.5 1.6-1.3 2.5c-1.2 1.3-6.1 12.8-7 16.6-.2.5-.8 2.3-1.5 4-2.9 6.9-5.1 14.7-4.6 15.6.4.5.2.9-.3.9s-1.2 1.5-1.6 3.2c-.4 1.8-1.8 5-3.2 7.1-2.1 3.2-2.6 5.3-2.8 11.2-.1 4-.7 7.9-1.3 8.7-1.4 1.6-2.3 5.3-3 12.3-.5 4.7-.3 5.4 3.2 9.5 2.1 2.5 4.5 4.9 5.4 5.4s1.7 1 1.9 1.1c.2.2 1.2 7 2.2 15.3 2.9 22.3 7.5 32.2 14.9 32.2 5.9 0 5.7 2.3-1.4 18.5-3.6 8.1-6.5 14.9-6.5 15.1s35.3.4 78.5.4 78.5-.3 78.5-.8c0-.4-.7-3.2-1.5-6.2-2-7.6-1.9-7.9 1.3-3.4 3.3 4.6 4.5 7.4 3.2 7.4-.6 0-1 .7-1 1.5 0 2.2 1.4 1.8 2.5-.7.6-1.2 2.1-2.3 3.5-2.5 3.1-.4 7.6-5.5 8.4-9.5 1-4.9.6-18.5-.8-30.5-.7-6.1-1.1-14.6-.8-18.7.2-4.1-.1-9.6-.7-12.1-1.3-5-.4-10.1 3.1-19.2l2-5.1-10-20.4c-5.4-11.1-11.3-23.5-12.9-27.3-3.3-7.7-11.3-32.1-11.3-34.5 0-.8.9-3.9 2-6.8 2.9-7.7 2.8-8.6-1.7-7.9-2.1.3-4.6.8-5.5 1.2-2.5 1-3.5-1.7-6.3-17.6-1.8-9.8-3.3-15.3-4.7-17.3-1.2-1.6-3.3-7.1-4.8-12.2-2.6-9-2.6-11.7 0-5.5.6 1.6 1.8 3.2 2.6 3.5 1.2.5 1.2.2.3-1.6-1.7-3.1-5.7-16.1-6.4-20.5l-.6-3.8 2.1 3.8c1.2 2.2 2.3 3.7 2.6 3.4.2-.2-.3-3.3-1.2-6.8s-2.2-9.8-3-13.9c-1.4-8.1-1-9 3.4-9 3.1 0 5.9-1.6 7.2-4.1 1.3-2.3-1.5-7.7-8.2-16.2-2.1-2.7-3.8-5.7-3.8-6.6 0-1.5.6-1.6 6.6-.7 6.1.9 6.8.8 8.1-1 .8-1 1.2-2.7.9-3.6-.2-1 0-2.1.5-2.4s.7-1 .3-1.5c-.3-.5-.1-1.5.4-2.2.6-.7 1-7.8.9-17.3l-.2-16-3.6-3.7c-3.4-3.5-3.9-3.7-9.5-3.6-3.2.1-8.8.5-12.4 1m-68 121.3c-.7.7-1-.8-.9-5l.1-5.9 1 4.9c.6 3.3.6 5.2-.2 6m75 8.8c0 1.5-1.9.8-2.9-1.1-1.4-2.5 0-3.7 1.6-1.5.7 1 1.3 2.1 1.3 2.6m-77-1.8c0 .8-.4 1.8-1 2.1-.5.3-1-.3-1-1.4 0-1.2.5-2.1 1-2.1.6 0 1 .6 1 1.4m78.5 85.2c2 20.1 4.4 40.4 5.1 42.6.8 2.6-.8 2.1-3-.9-1.4-1.9-1.6-3-.9-4.2.7-1.1.6-2.2-.5-3.8-.8-1.3-1.2-2.9-.9-3.7s-.6-6.7-1.9-13.2c-2.5-12.1-3.4-26.2-2-32.3 1.4-5.7 2.4-1.7 4.1 15.5m-98.1 114.1c-1.5 3.2-2.8 6.6-3.1 7.5-.6 2.1-1.9 2.3-2.6.5-.5-1.2 6.7-13.7 7.8-13.7.3 0-.7 2.6-2.1 5.7"/><path d="M205.1 354.6c0 1.1.3 1.4.6.6.3-.7.2-1.6-.1-1.9-.3-.4-.6.2-.5 1.3"/></svg>