<svg xmlns="http://www.w3.org/2000/svg" width="682.667" height="512" version="1.0" viewBox="0 0 512 384"><path d="M0 192v192h352.7l-1.9-4c-1.8-3.5-1.9-4.5-.8-7.1.7-1.6 1.1-3.2.8-3.4-.2-.2-8-4.3-17.3-9.1-9.4-4.8-23.5-12.4-31.5-16.9-8-4.6-17.4-9.8-20.9-11.6-7.8-4.1-9.2-6.6-6.6-11.5 2.3-4.4 4.4-4.3 11.3.3 3 2 9.1 5.6 13.6 8 10.5 5.7 55.7 28.3 56.6 28.3.3 0 1.3-1.5 2.2-3.3 1-2.1 2.9-3.9 4.8-4.7 3.2-1.3 3.4-1.3 6.7 2.4 2.8 3 3.4 4.4 3.1 7.3-.3 3.5-.1 3.8 5.7 6.9 9.8 5.4 10.8 5.4 15.7-.1 2.3-2.6 6.3-6.2 8.8-8 5.1-3.7 7-8.2 7-16.3 0-4-.5-5.3-2.9-7.6-2.5-2.4-2.8-3.2-2-5.3 2.3-6.1 2.1-15.6-.5-27.8-3.3-15.2-3.3-17.4.4-23.8 1.9-3.4 3-6.8 3-9.3 0-3.9 0-3.9-5.8-5.6s-13.2-7-15.4-11.1c-3.7-7-2.5-14.5 3.4-21.2 2.3-2.6 3.8-5.2 3.4-6-.6-1.7-7.8-5.5-10.3-5.5-1 0-8.7-3.3-17.3-7.4-9.1-4.4-19.6-8.5-25.4-10.1-14.5-3.9-21.8-7.7-27.3-14.2-5.1-5.9-7.3-5.9-7.3.3 0 4.4-1.6 8.4-3.4 8.4-1.9 0-3.6-3.1-3.6-6.7 0-1.5-.4-3.3-.8-3.9-1.2-1.8-165.4-1.1-203.2.9-16.8.9-33.2 1.9-36.5 2.2s-9.6.7-14.1 1c-4.4.3-10.5.9-13.4 1.5-2.9.5-6 1-6.9 1-2.8-.1 7.6-8.7 12.7-10.5 2.6-1 5.4-2 6.2-2.3 2.5-.9 3.1-1 13.5-2.5 35.5-5.4 77-7.1 166.5-7.2 66.3 0 75.5-.2 75.7-1.5 1-8.1 1.4-9 3.7-9 2.5 0 3.6 2.1 3.6 7.4 0 2.3.3 2.6 1.4 1.7.8-.6 4-1.2 7.2-1.3 3.3 0 6.4-.5 7.1-1 .7-.6 1.8-.8 2.5-.5.7.2 2.6-.2 4.1-1 3.7-1.9 6.1-1 9.4 3.5 1.6 2 3.2 4 3.7 4.3.5.4 5.2 1 10.5 1.4 5.3.3 11 .9 12.6 1.1 2.7.4 3.2 0 5.4-4.1 3.2-6.1 16.3-18.4 24.3-22.9 3.7-2 11-5.2 16.4-7 5.5-1.9 13.3-4.6 17.4-6.2 9.6-3.5 24.5-4.1 27.8-1.1 1.3 1.2 1.9 2.7 1.6 4-2.2 9.7-1.1 19.7 2.1 19.7 2.1 0 7.5 2.8 10.3 5.3 2.9 2.7 2.8 5.1-.3 9.2-2 2.5-2.4 4-1.9 6 1.5 6 5.5 12.4 10.9 17.3l5.7 5.2h-6.9l2.3 4.7c1.3 2.7 2.4 5.5 2.4 6.3 0 1.4-2.2 3-6.2 4.6-2.3.8-2.3 2.6-.1 4.7 1 .9 3 2.8 4.4 4.1 2 1.8 3 4.1 3.8 8.9 1.8 10.4 1.4 14.6-1.9 21.5-4 8.1-4.3 10.9-2.5 24.9 2.4 18.3 6 32.9 14.1 57 7.5 22.3 8.2 24.9 6.5 23.8-.5-.3-1.6.2-2.4 1-.9.8-2.2 1.5-2.9 1.5s-3 .5-5 1.1c-3.2.8-3.8 1.4-3.8 3.7 0 1.5 1.2 4 2.6 5.6l2.6 2.9 8.8-2.6c4.9-1.5 9.6-2.7 10.4-2.7 1.4 0 1.6-14.4 1.6-142.9V84.2l-5.2-4.4c-6.8-5.5-8-6.9-13.4-15.1-4.7-7-11.3-21.2-15.4-32.7-1.3-3.6-2.9-8.1-3.6-10-2.6-7.2-6.6-13-11.5-16.4-2.7-2-4.9-4-4.9-4.6 0-.7-76.7-1-229-1H0zM409.7 78.6c.5 1.5-2.8 2.7-4 1.5-.5-.5-.6-1.4-.2-2.1.8-1.3 3.7-.9 4.2.6m80.9-76.9c.4 1 2.4 8.3 4.4 16.3s4.5 16.1 5.4 18c1.9 3.6 9.4 12 10.8 12 .4 0 .8-10.8.8-24V0h-11.1c-10.2 0-11.1.1-10.3 1.7"/><path d="M346 182.7c0 1.2 17.4 8.3 18.2 7.5.3-.4.8-2 1-3.7.3-2.9.1-3-4.2-3.7-6.2-.9-15-1-15-.1m17.6 198.9c-.3.9-.6 1.8-.6 2s2.4.4 5.3.4l5.2-.1-3.5-1.9c-4.3-2.4-5.6-2.4-6.4-.4"/></svg>