<svg xmlns="http://www.w3.org/2000/svg" width="682.667" height="512" version="1.0" viewBox="0 0 512 384"><path d="M0 192v192h361.9l2.6-3.7c1.4-2.1 2.5-4.1 2.5-4.4 0-.9-10.6-5.9-12.5-5.9-.7 0-1.6.8-1.9 1.8s-1.9 2.3-3.5 2.9c-2.7 1-3.3.8-6.5-2.2-3.8-3.4-4.8-7.9-2.4-10.3.8-.8.8-1.5.2-2.1-.5-.5-8.5-4.9-17.9-9.6-9.3-4.8-23.5-12.4-31.5-17-8-4.5-15.5-8.5-16.7-8.9-6.9-2.2-9.4-8.3-5-12.4 2.9-2.8 3.6-2.8 7.8.4 7.3 5.4 67.4 36.4 68.4 35.2.1-.2 1-1.7 1.8-3.4.9-1.7 3-3.7 4.7-4.4 3-1.2 3.3-1.1 6.3 1.8 2.5 2.6 3.2 4 3.2 7.3v4.1l7.9 4 7.9 4 6.1-6c3.4-3.2 7.5-6.9 9.1-8.1 3.2-2.4 3.4-3.1 4.2-13.1.5-6.1.3-6.5-2.3-8.6-2.4-2-2.6-2.5-1.6-5.1 2.6-6.6 2.5-13.8-.3-27.8l-2.8-13.6 3.1-6.7c1.7-3.7 3.3-8.1 3.7-9.8.6-3.1.5-3.2-4.2-4.3-7.9-2-14.7-8-17.3-15.3-1.2-3.2-1.1-4.2.5-8.5 1-2.6 3.5-6.4 5.5-8.3 3.1-3.1 3.5-3.9 2.7-5.8-.8-1.8-5.8-4.2-9-4.2-.4 0-7.4-3.1-15.5-6.9s-17.8-7.6-21.7-8.6c-3.8-1-10.9-3.4-15.7-5.3-7.4-2.8-9.6-4.3-13.7-8.8-2.7-3-5.4-5.4-6-5.4-1.6 0-3.1 3.5-3.1 7.3 0 7.2-5 6.8-5.9-.5l-.6-4.3-13-.7c-29.3-1.5-135.1-1.2-175 .5-34.6 1.6-62.9 3.6-73.6 5.3-5.3.8-4.7-1.8 1.7-6.6 4.2-3.3 7.1-4.5 15-6.5 5.5-1.3 13.1-2.6 16.9-2.9 3.9-.4 9.5-.8 12.5-1.1 38.6-3.3 127-5.1 181.4-3.8 37.1.9 33.7 1.6 35.1-7 .6-4 1.5-4.5 3.9-2.1 1.6 1.5 2 3.3 1.6 6.7-.1 1.5.3 1.7 1.9 1.2 1.1-.3 4.3-.8 7.1-1s5.6-.8 6.3-1.4c.7-.5 2.3-.8 3.5-.4 1.2.3 2.9 0 3.7-.7 2.3-1.9 5.7-.4 8.7 3.9l2.6 3.9 8.9.7c17.6 1.2 16.4 1.4 18.5-2.5 7.2-12.7 24.5-25.2 40.3-28.9 2.8-.7 7.4-2.4 10.4-3.8 11.3-5.3 30.4-6.5 33.5-2.1 1.1 1.6 1.1 2.7-.1 7-1.7 5.7-.9 12.5 1.7 13.9.8.4 3.6 1.7 6.1 2.8 2.5 1.2 5.2 3.2 5.9 4.5 1.1 2.1 1 2.9-.8 5.8-4.7 7.2-4.7 7.2-1.7 13.2 2.8 5.7 7.1 11 11.3 13.8l2.3 1.5-3.1.6-3.1.7 2.4 4.7c2.5 5 2.5 7.3.1 7.3-1.6 0-5.4 3.5-5.4 4.9 0 .6 1.6 2.2 3.4 3.6 4.3 3.3 6.4 9.3 6.6 19 .1 6.3-.3 7.8-3.5 13.7-2.6 5.1-3.5 7.9-3.5 11.7 0 6 4.2 31.6 7.1 42.6 2 7.8 11.1 36.6 13 41.4.5 1.3.7 2.6.4 2.9s-.5.2-.5-.1c0-.4-.8.1-1.9 1.2-1 1-4 2.1-7 2.5-4.8.6-5.1.9-5.1 3.5 0 1.6 1 3.7 2.4 5l2.4 2.3 19.1-5.8 19.1-5.7V93.5l-4.7-1.7c-2.7-1-6.1-2.7-7.8-3.8-1.6-1.1-3.9-2.5-4.9-3.2-9-5.8-18.5-21.2-31.5-50.5-2.7-6.2-7.1-15-9.8-19.5-2.8-4.6-5.6-9.8-6.4-11.6L445.5 0H0zM405 80.5c1 1.2.9 1.6-.4 2.1-.9.3-2.3.3-3.2 0-1.3-.5-1.4-.9-.4-2.1.7-.8 1.6-1.5 2-1.5s1.3.7 2 1.5m63.9-77.8c4.7 4.8 7.8 11.3 12.1 25.1 4.4 14.5 6.8 19.1 12.4 24 4.6 4 12.8 8.2 16.1 8.2h2.5V0h-45.8z"/><path d="M339.6 182.9c1.1 1 14.5 6.3 14.9 5.9.2-.2.6-1.5 1-2.9.6-2.3.3-2.7-2.6-3.3-4.7-.9-14.5-.7-13.3.3M507 382.6l-3.5 1.3h4.3c3.1.1 4.2-.3 4.2-1.4 0-1.7-.3-1.7-5 .1"/></svg>