<svg xmlns="http://www.w3.org/2000/svg" width="682.667" height="512" version="1.0" viewBox="0 0 512 384"><path d="M0 192v192h345.5l4-6.2c2.2-3.3 4.8-7.4 5.9-9l1.8-2.8-6.3-2.9-6.3-2.9-2.9 2.9c-3.6 3.6-4.7 3.6-8.7-.1-3-2.8-3.2-3.4-2.7-7.8l.6-4.8-12.7-6.1c-7-3.5-18.5-9.5-25.7-13.4-7.1-4-16.4-9-20.5-11.1-4.1-2.2-8.1-4.5-8.7-5-2-1.7-1.6-7.3.8-9.4 1.9-1.7 2.2-1.7 4.7-.2 19 11.7 62.6 33.8 66.7 33.8.8 0 1.8-1.2 2.1-2.6.4-1.7 1.9-3.1 4.1-4.1 3.2-1.3 3.7-1.3 5.5.4 2.8 2.5 4 5.1 4.2 8.7.1 2.8.9 3.5 7.1 6.8 3.9 2.1 7.4 3.8 7.8 3.8.5 0 2.1-1.4 3.5-3.1 1.5-1.7 5.3-5.1 8.5-7.6 3.3-2.6 5.7-5.2 5.7-6.3 0-1 .5-2.2 1-2.5s1-3.3 1-6.5c0-5.1-.3-6.1-2.6-7.7l-2.6-1.9 1.8-6c1.5-5.2 1.5-7 .5-14.9-.7-4.9-1.9-11.8-2.8-15.2l-1.5-6.3 3.6-7.3c4.3-8.8 4.4-10.4.9-11.8-12.5-4.9-17.3-10-17.3-18.4 0-3.9.7-6.2 2.9-9.7 1.6-2.5 3.9-4.9 5.1-5.3 1.4-.4 1.9-1.2 1.6-2.2-.3-.8-.6-2.1-.6-2.8s-1.3-1.6-2.9-2c-1.6-.3-3.2-1.3-3.5-2.1s-1.2-1.4-2-1.4-5.7-1.8-10.8-4.1c-12.1-5.3-18.3-7.5-28.4-9.9-12.6-3-20.1-6.8-25.7-12.9-3.9-4.5-5-5.1-6.2-4.1-.9.7-1.5 2.9-1.5 5 0 4.8-.8 7-2.6 7-2.1 0-3.6-3.9-3-7.5l.6-3.3-58.7-.7c-57-.7-98.7 0-150.3 2.5-28.7 1.5-34.1 1.9-40 3-9.6 1.8-10.1 1.5-4.8-3.4 4.3-3.9 8.5-5.8 18.8-8.3 10.6-2.6 35.3-4.8 71-6.3 26.6-1.1 134.9-1.4 152.2-.4l10.6.7.7-5.7c.6-4.4 1.1-5.6 2.5-5.6 2.2 0 3 1.9 3 7.1v3.9l2.5-1.6c1.3-.8 2.8-1.3 3.2-1.1.5.3 2.8.1 5.3-.5 2.5-.5 5.6-1.1 7-1.4 1.4-.2 3.9-.7 5.7-1 2.9-.5 3.4-.2 6 3.5 1.5 2.2 3.5 4.2 4.3 4.5.8.2 6 .7 11.5 1.1l10.1.6 1.6-3.3c2.5-5.1 10.4-13.4 16.7-17.7 8.1-5.5 13.3-8 21.4-10.1 4-1 9.1-2.8 11.4-3.9 5.8-2.9 13.4-4.4 22.4-4.5 9.1-.1 11.4 1.2 10.4 5.8-2.3 10.5-1.4 17.6 2.2 17.6 1.8 0 10.3 4.7 10.4 5.8 0 .4.2 1.5.4 2.4s-1.2 3.8-3 6.4c-2.8 4-3.2 5.1-2.4 7.3 2.2 5.6 6.2 11.3 10.1 14.1l4.1 3-3.1.6-3.1.6 2.4 4.3c2.2 4 2.5 9.2.4 7.9-.5-.3-2.1.4-3.5 1.5l-2.6 2 2.4 2.4c1.3 1.3 3.2 2.8 4.1 3.4 4.4 2.4 6.3 19.6 2.9 25.9-.9 1.7-2.7 5-3.9 7.2-1.9 3.5-2.2 5.1-1.8 12.3.5 9.8 4.5 32.3 7.6 42.4 1.1 3.8 2.4 8.3 2.9 10 .4 1.6 2.3 8 4.2 14.1l3.4 11-2.2 1.7c-1.2.9-4.2 2.1-6.8 2.8-3.8.9-4.6 1.5-4.6 3.5 0 1.4 1 3 2.4 3.9 2.6 1.7 2.7 1.7 41.9-11.2l13.7-4.5V98.4l-7.2-1.9c-21.6-5.6-34.9-18.4-49.7-48.1-4.9-9.9-15.1-34.6-15.1-36.7 0-.4-.9-3.1-2.1-6.2l-2-5.5H0zM400.6 83.1c.8 1.4-1.4 2.9-3.3 2.2-1-.4-1.1-.9-.2-1.9 1.4-1.7 2.5-1.8 3.5-.3m55.3-73.9c2.7 5.1 6.8 13.9 9 19.6 6.4 16.1 9.5 21.5 15.3 26.7 7.2 6.5 14.4 9.6 24.1 10.2l7.7.6V0h-61z"/><path d="M335.6 182.6c2.8 1.3 6.5 2.7 8.2 3 2.9.6 3.2.4 3.2-1.8 0-2.3-.4-2.6-6.1-3.2-10.1-1-10.9-.7-5.3 2m164.9 185.1c-4.4 1.3-12.9 4-19 5.8-6 1.9-12.5 3.8-14.3 4.2-1.8.5-3.3 1-3.2 1.3 0 .3.3 1.5.6 2.8l.6 2.2H512v-9.5c0-11 .7-10.6-11.5-6.8"/></svg>