<svg xmlns="http://www.w3.org/2000/svg" width="682.667" height="512" version="1.0" viewBox="0 0 512 384"><path d="M0 71.1c0 49.8.3 70.8 1.1 70.4 1.7-1.1 6.5 1.4 7.9 4.1.8 1.3 2.4 2.7 3.6 3 3.5.9 3.9 3.9 1.1 8.7-1.7 2.9-2.3 5.2-2 7.4.3 1.7 0 3.9-.5 4.9-.7 1.3-.7 2.6.3 4.4 1.8 3.3 4.5 14.8 3.9 16.4-.7 1.9 2.3 8.7 5.2 11.6 5.6 5.7 10.4 11.8 10.3 13.1 0 2.2-5.6 6-10.7 7.3l-4.7 1.2.4 21.5c.3 18.9.6 22.4 2.7 29.5 1.3 4.5 2.5 8.8 2.6 9.5.3 1.5-4.9 1.7-10.8.4-2.8-.6-3.2-.4-4.4 2.5s-1.1 3.3 2.1 6.6c1.9 1.9 4.3 3.4 5.6 3.4s2.3.6 2.3 1.4c0 1.6-12 5.2-14.4 4.3C.2 302.1 0 306.3 0 343v41h245.8l10.3-11.3c11.6-12.6 19.3-21.7 18.6-21.7-1.1 0-35.5 8-37.2 8.6-1.5.6-1.7 1.6-1.2 6.7.6 7.1-.9 5.8-1.9-1.5-.6-4.7-.7-4.7-3.8-4-1.7.4-6.2.7-9.9.7-6.5 0-7-.2-9.8-3.3-4.4-5-3.9-6.8 2.4-8.1q23.4-4.95 24.3-6.3c.3-.5-.3-1.9-1.4-3.1-3.1-3.5-3.3-6.3-.7-8.7 2.2-2 2.5-2.1 5.4-.6 4.8 2.5 5.6 9.6 1.1 9.6-1.1 0-2 .5-2 1.1 0 2 13.2-1.2 40-9.6 4.7-1.5 9.3-2.9 10.3-3.2 1.5-.5 10.7-13.1 10.7-14.7 0-.2-2.2-1.3-5-2.5l-5-2.1-2 2c-1.1 1.1-2.8 2-3.8 2-3.8 0-7.5-5-6.2-8.5.7-1.8-1.3-3-22.9-13.4-13-6.3-24.2-11.9-24.9-12.4-1.8-1.4-1.1-5.7 1-7.1 1.3-.8 2.3-.8 3.8.2 4.4 2.7 26.1 13.3 35.9 17.6l10.4 4.5 2.8-3c1.5-1.6 3.6-2.9 4.6-2.9 2.7 0 5.2 3 5.5 6.4.3 3.2.7 3.6 7.6 6.5l5.3 2.2 5.5-5c3.1-2.8 5.9-5.1 6.4-5.1.9 0 4-8.5 4-11 0-.9-1.1-2.7-2.5-4-2.4-2.2-2.4-2.3-.7-5.4 1.4-2.6 1.7-5.5 1.5-16.9-.2-10.3.1-14.4 1.1-16 3.2-5.1 3-6.6-1.7-11-5.9-5.5-7-10.2-3.7-16.4 1.2-2.4 2.6-4.3 2.9-4.3s1.3-.5 2.1-1c1.2-.7 1.1-1.3-1-3.4-1.3-1.5-2.9-2.6-3.6-2.6-2 0-2.7-1.9-1.3-3.6 2.1-2.5-.3-6-4.3-6.2-5.6-.3-6.7-.7-9.5-3.4-1.6-1.5-4.1-3-5.8-3.4-6.3-1.5-11.5-4.6-15.3-8.9-5.7-6.5-7.4-6-8.4 2.3-.4 3.4-2.2 3.2-2.6-.3-.2-1.7-.7-3.4-1.2-3.8-.8-.9-69-1-101-.1-36.7.9-69 2.5-81.6 3.9-7.1.8-13.5 1.5-14.1 1.5-2.4 0-1.3-2 2.5-4.5 12.5-8.2 46.7-11.4 135.2-12.3 58.5-.7 59.5-.7 59.8-2.7.7-4.9 1.3-6.5 2.2-6 .6.3 1 1.8 1 3.3s.3 3.7.6 5l.7 2.3 1.4-2.1c1-1.3 2.1-1.9 3.3-1.5 1 .3 2.1.1 2.5-.5.4-.7 1.2-.7 2.5 0s1.9.6 2.4-.5c.3-.8 1.2-1.2 2.1-.9.8.4 2.2 0 3.1-.7 1.4-1.2 2.1-.7 5.3 3l3.8 4.4 3.2-4.5c5.7-8 17.6-15.5 28.1-17.7 3-.7 8.2-2.2 11.5-3.5 7.4-3 18.3-4.3 21.4-2.6 1.9.9 2.1 1.7 1.5 4.3-1.7 7.7-.4 13.2 3.4 14.2 2.9.7 7.2 4.2 7.2 5.8 0 .5-1.8 3.6-4 6.9s-4 6.4-4 6.9c0 .4 1.8 2.7 4 5 4.5 4.8 4.6 4.9 2.5 4.9-1.3 0-1.2.7.5 4 1.8 3.5 1.9 4.1.5 4.6-2.4 1-1.8 3.4 2.2 8.2 2.7 3.3 3.7 5.6 4.1 9.2.6 6-1.3 11.6-4.4 13.7-4.5 2.9-6.5 8.4-5.9 16 1.2 13.7 3.8 33 5.6 41.7 2.6 12.3 2.6 12.4-2.3 14.6-11.4 5 4.2-.2 35.4-11.9 12-4.5 23.8-9 26.3-10.1 4.4-1.9 4.7-1.9 6.5-.2 1.8 1.6 7 12.1 7 14 0 .5-6 3.1-13.2 5.6-7.3 2.6-17.6 6.2-22.8 8.1-5.2 1.8-15.6 5.4-23 8-7.5 2.5-14.1 5-14.8 5.4-1 .6-1 2.2.4 7.7.9 3.8 1.8 7.1 2 7.2 1 1.3 50.4 18.7 75.5 26.7 18.7 5.9 21.9 7.7 19.9 11.4-1.1 2.2-2.4 2.5-10.8 2.3-9.5-.3-32.4-7.1-66.1-19.6-6.8-2.6-12.5-4.5-12.7-4.3-1 1 7.5 13.2 16.5 23.6l10.4 12.1H512V105.5l-4.6-2.4-4.6-2.5-26.1 3.3c-53.2 6.5-74.9 3.4-85.4-12.1-3.9-5.7-4.4-7.4-4.9-13.8l-.3-5.5 2.1 4c6.3 12 13.9 16.6 28.2 17.3l9 .5-1.9-2.9c-1-1.6-2.9-4.5-4.2-6.5-2.8-4.2-5.3-12.7-5.3-18 0-9.4 7-23.5 15.1-30.3 7.9-6.7 20.2-10.8 32.2-10.8 13.4 0 16.7 2.1 19.8 12.6 2 6.8 2.5 7.5 12.8 17.6 5.8 5.8 12.3 12.1 14.4 13.9l3.7 3.5V0H0zM366.5 100c.3.5-.1 1-.9 1-.9 0-1.6-.5-1.6-1 0-.6.4-1 .9-1 .6 0 1.3.4 1.6 1"/></svg>