<svg xmlns="http://www.w3.org/2000/svg" width="682.667" height="512" version="1.0" viewBox="0 0 512 384"><path d="M0 93.2c0 93.2 0 93.3 2 90.3 1.1-1.7 2.7-4 3.6-5.2 1.5-2.1 1.5-2.3-1-3.4-1.5-.7-2.5-1.7-2.3-2.3.3-.6 0-1.9-.5-2.9-.6-1.3-.4-2.4 1-4.2 1.2-1.6 2.2-4.9 2.6-9.2.8-8 .9-8.3 6.2-11.6 3.5-2.2 4.7-2.4 7.5-1.7 1.9.5 4.5 1.2 5.9 1.5s4.7 2.6 7.5 5l5 4.5-2.4 4.4c-1.8 3.5-2.2 5.3-1.6 8.5.4 2.2.2 4.8-.4 5.9s-.7 2.3-.3 2.6c1 1.1 3.1 11.6 3.1 16.4.1 4.4 1.3 6.2 9.7 14.7 5.7 5.7 5.9 6.8 1.3 10.4-2.2 1.8-5.5 3.5-7.4 3.8-1.8.3-3.5 1.1-3.7 1.7s-.1 10.3.3 21.6c.7 19.6 1.8 26.7 5.4 36.2.6 1.5.1 1.8-3.3 1.8s-4.4-.5-6.2-3c-1.2-1.7-2.4-3-2.8-3s-1.3 1.9-2 4.1c-1.3 4.1-1.2 4.3 1.9 7.5 1.9 2 4.3 3.4 5.7 3.4 3.8 0 2 2.3-2.9 3.7-6.4 1.8-21.6 4.3-27.1 4.6l-4.8.2V384h235l.6-2.7c1-4.2 5-9.4 19.3-25.3 7.2-8 13.1-14.7 13.1-15.1 0-.5-22.7 4.6-32.5 7.5l-4 1.1v6.4c0 5.8-.1 6.1-1.2 3.5-.7-1.6-1.2-4.4-1.3-6.3 0-3-.2-3.3-2.2-2.7-6.1 1.7-14.5 1.8-17.5.3-2.9-1.5-6.2-7.1-5-8.4.4-.3 6.4-1.9 13.4-3.5 12.8-2.9 17.5-5 13.9-6.4-.9-.3-2.3-1.9-3.1-3.4-1.3-2.5-1.2-2.9.9-4.9 3.7-3.4 7.7-2.1 8.9 3.1.6 2.3.3 3-1.9 4.1-4.8 2.5-.7 2.9 7.4.8 4.2-1.1 15.1-4.4 24.1-7.3l16.5-5.3 3.7-6c2.1-3.3 3.8-6.3 3.8-6.6.1-.4-2.1-1.6-4.8-2.7-4.9-2-5-2-6.7-.1-2.6 2.9-6.1 2.4-8.4-1.3-1.4-2.3-1.6-3.6-.9-5 .8-1.6.3-2.1-3.6-3.8-10.8-4.8-13.8-6.1-27.8-13-13.8-6.7-14.8-7.3-14.5-9.7.5-4.2 3.1-5.1 7.5-2.5 5.3 3.1 21 10.7 32.1 15.3l9.3 4 2.9-3.1c1.5-1.6 3.5-3 4.3-3 2.2 0 5.9 5.1 5.4 7.2-.6 2.1 0 2.5 7 5.4l5.3 2.2 5.8-5.7c8.8-8.4 11.5-15.2 7.2-17.9-2.5-1.5-2.5-2.9-.2-7.3 1.4-2.8 1.7-5.6 1.5-14.9-.2-10 0-12.1 1.9-16.3l2.2-4.9-3.1-2.6c-3.5-3-6.3-8-6.3-11.2 0-2.7 2.2-7 4.9-9.4l2.1-1.9-2.2-2.4c-1.2-1.3-2.7-2.3-3.5-2.3-1.5 0-1.8-2.6-.3-3.5.6-.4.4-1.7-.5-3.5-1.3-2.6-1.8-2.8-4-2-1.6.6-2.7.6-3.1-.1-.3-.5-1.1-.8-1.7-.6s-2.5-1.3-4.2-3.3-3.6-3.5-4.3-3.2c-.7.2-1.2-.5-1.2-1.7s-.6-2.1-1.4-2.1-3.4-2.3-5.9-5c-5.4-6-7.3-5.8-8.3.6-.8 5.5-1.9 5.6-2.8.4l-.6-4h-19.3c-59.9.1-146.7 3.3-160.7 6-2.9.5-6.2 1-7.4 1-3.7-.1 4.5-6.6 10.6-8.5 16.9-5 65.4-8.1 133.3-8.4 32.5-.1 43.1-.5 43.7-1.4.4-.7.8-2.4.8-4 0-4.4 1.8-3.1 2.6 1.8.6 4.6 1.7 5.7 2.8 2.9.3-.8 1.4-1.4 2.3-1.2 1 .1 2.4-.1 3.1-.6.7-.4 1.9-.3 2.6.3 1 .9 1.5.8 2-.4.3-.9 1-1.4 1.6-1 .5.3 1.9.1 3.1-.5 1.6-.9 2.4-.8 3.9.5 1.8 1.6 2.1 1.5 6.1-2.3 5.5-5.4 14.2-9.9 22-11.5 3.5-.8 7.4-1.9 8.7-2.6 7.2-3.9 19.2-5.3 22.8-2.7 1.6 1.2 1.7 1.9.8 4.4-1.1 2.8-1.1 7 0 9.8.3.7 2 2 3.8 2.7 1.8.8 4.2 2.4 5.2 3.6 1.9 2.1 1.9 2.2-1.2 6.6-2.7 3.8-3 4.9-2.2 7.1.6 1.5.8 3.5.5 4.4-.4 1.2.4 2.5 2.2 3.9 2.2 1.6 2.4 2 1.1 2.1-2.2 0-2.2 1.6-.3 5 1.8 3.2 1.8 4 0 4-1 0-.3 1.8 2.5 6 2.1 3.4 4.1 7.4 4.5 9 1 4.7-1.3 11-5.5 14.9-2.1 2-4.2 4.5-4.8 5.6-1.5 3.1 1.1 34.3 4.3 51 .8 4.3 1.2 8.2.9 8.6-.3.5-.2.9.2.9 1.6 0 42.1-15.7 56.1-21.7 2.9-1.2 10.9 12.5 8.6 14.8-.5.5-16 6.4-34.4 13-18.4 6.7-33.6 12.3-33.8 12.5-.7.6 2.1 12.3 3.3 13.9 1.4 1.9 45.5 17.2 75.1 26 8.4 2.5 12.5 4.7 12.5 6.6 0 2.5-3.5 3.9-9.5 3.9-8.3 0-23.5-4-51-13.4-12.1-4.1-22.1-7.4-22.2-7.2-.8.7 10.7 16.6 18.3 25.2 4.9 5.5 10.7 12.6 12.9 15.7l4 5.7H512V106.2l-2.9 1.4c-2.4 1.2-4.1 1.3-9.3.4-14.8-2.5-18.8-3-29-3-5.9 0-20.7 1.2-33 2.6-32.2 3.7-41.9 2.4-51-6.7-2.6-2.6-4.8-5.7-4.8-6.8 0-1.8.5-1.6 5.7 1.5 3.1 1.9 7.3 3.9 9.3 4.4 3.6 1 8 1.3 8 .6 0-.2-2.8-3.3-6.3-6.8-11.4-11.5-14.2-22.1-9.4-35 4.5-11.9 11.6-19.4 23.3-24.7 4.6-2.1 6.3-2.3 15.5-1.9 8.2.3 11.4.8 15 2.6 6.2 3 10.9 8 14.3 15 2.8 5.8 2.9 5.9 11 9.2 19.5 7.9 29.4 12.8 40.9 20.4l2.7 1.8V0H0z"/><path d="M455.7 88.5c-.9 2.2.3 2.4 6.8 1.1 4.2-.8 5.5-1.4 4.2-1.9-3.4-1.3-10.4-.8-11 .8M5 195.4c0 1.7.5 2.6 1.6 2.6 1 0 1.4-.7 1.2-2.2-.5-3.2-2.8-3.5-2.8-.4m-5 27.5c0 1.4.5 1.8 2 1.4 2.6-.7 2.6-3.3 0-3.3-1.3 0-2 .7-2 1.9M.2 242v16.5l1.4-13.8c1.2-12 1.2-14.2-.1-16.5C.2 225.8.1 227.1.2 242M0 287c0 2.8.3 5 .8 5 1.8-.1 3-1.8 3.4-4.9.2-2.7-.1-3.5-1.9-4.2-2.2-.8-2.3-.6-2.3 4.1m15.5-3.2c-1.2.8-1.4 6.6-.2 6.9 2.1.8 2.7-.1 2.7-3.7 0-4-.6-4.7-2.5-3.2"/></svg>