<svg xmlns="http://www.w3.org/2000/svg" width="682.667" height="512" version="1.0" viewBox="0 0 512 384"><path d="M0 142.5C0 283.6 0 285 1.9 283.1c2.5-2.5 6.6-3.2 29.6-5.2 7.1-.6 13.3-1.3 13.7-1.5.4-.3.8-2.3.8-4.4 0-3.7-.2-4-4-5-2.1-.6-4.1-1.4-4.4-1.9-.3-.4.8-4.7 2.4-9.5 3.7-11 5.3-27.6 2.7-27.6s-2.8-1.5-1.2-8.5l1.6-6.6-3.6-3.3c-4-3.8-4.3-5.5-1.5-8.1 1.1-1 2-2.4 2-3.1s1.1-3.5 2.5-6.2c1.4-2.8 2.5-5.9 2.5-6.9 0-1.1.3-2.3.7-2.7 2.2-2.1 3.5-9.2 3.7-19.9.3-13.8 1.4-16.1 9.1-18.9 4.8-1.7 5-1.7 8.9.5 2.6 1.4 4.7 3.6 5.9 6 .9 2 2.1 3.7 2.6 3.7 1.9 0 1.9 3-.1 5.5-1.8 2.3-1.9 2.9-.7 5.7s1.1 3.3-.8 4.5c-2.1 1.4-2.1 1.4-.2 6.4 1.1 2.7 1.9 6.6 1.9 8.7s1.1 5.4 2.5 7.7c1.3 2.2 3.3 5.6 4.4 7.6 1.1 1.9 2.7 4.1 3.5 4.8 3.9 3.3.6 7.6-6.7 8.6-2.6.4-4.9 1.1-5.2 1.5-.7 1.1 3.2 26.3 5.2 33.5.9 3.3 2.7 8.4 4 11.3 2.1 4.7 2.1 5.3.7 5.9-.9.3-3.1.1-4.8-.5-4.9-1.8-6.5-1.5-7.2 1.4-.9 3.3 2.7 9.8 5.5 10.2 2.5.4 2.7 1.7.4 2.6-.9.4-9.6 1.8-19.2 3.2-9.7 1.4-18.9 2.9-20.6 3.5-3.6 1.2-27.6 4.9-34 5.1l-4.5.2V384l105.1-.2 105.1-.3 5.2-9.6c2.8-5.3 6-12.3 7-15.5 2-6.1 6.1-12.1 14.2-20.9 5.4-5.9 16.4-19.2 16.4-19.8 0-.2-5.1 1.1-11.2 2.9-6.2 1.8-13.9 4-17 4.8-4.8 1.4-5.8 2-5.8 3.9-.1 2.1-.1 2.1-1.5.3-1.3-1.7-1.9-1.7-5.9-.7-7.5 1.9-10.4 1.4-13.9-2-2.8-2.8-2.9-3.3-1.4-4.4.9-.6 6.4-2.4 12.2-4 5.8-1.5 10.8-3.2 11.1-3.7s-.6-2-2-3.3c-3.1-2.8-3.2-3.7-.8-5.8 2.4-2.2 5.4-1.5 7.2 1.7 1.4 2.5 1.4 2.8-1 4.6-2.5 1.9-2.5 2-.3 2 2.6 0 38.8-12.5 41.9-14.5 1.8-1.2 7.4-9.4 7.4-10.8 0-.3-2.1-1.2-4.6-2.1-4-1.3-4.9-1.4-5.8-.2-3.3 4.2-8.6 2-8.6-3.5 0-2.6-.6-3.2-4.8-5-26.6-11.2-35.2-15.4-35.2-17.5 0-4.7 2.2-4.6 12.1 0 5.2 2.5 14 6.3 19.7 8.6l10.3 4.1 2.4-2.5c1.3-1.4 3.1-2.6 3.9-2.6 2.2 0 5.4 3.9 4.9 5.9-.4 1.4.8 2.2 5.7 4l6.1 2.2 5-4.8c4.5-4.3 6.6-7.5 8.2-12.5.4-1.1-.3-2.4-2-3.6l-2.5-1.8 2.3-4.5c1.7-3.4 2.4-6.8 2.8-14.4.4-7.2 1.1-10.9 2.4-12.8 2.4-3.7 2.2-5-1.3-7.5-2.6-1.9-3-2.9-3-6.8 0-2.5.9-6.2 2.1-8.5 2.1-4.3 1.4-6.9-1.8-6.9-1.1 0-1.4-.7-1-2.2.8-3.1-1-6.1-3.4-5.5-1 .3-2.2.1-2.5-.4-.3-.6-1.1-.8-1.6-.7-.6.2-2.8-1.2-4.9-3.1-4.1-3.6-4.2-4.5-2.3-14l.5-2.4-33.3.7c-49.1 1-118.2 5.5-124.9 8.1-3.1 1.2-2.9-1.3.1-3.9 5.7-4.7 19.1-7.3 52.5-10.1 14.8-1.3 78.8-3.9 86.5-3.6.8 0 6.1-.2 11.7-.5l10.2-.6.3-3.1c.4-4.1 2.7-4.7 3.4-.9l.6 3.1 5.8-4c6.1-4.1 12.7-6.9 16.6-6.9 1.3 0 4.1-.9 6.3-2.1 4.6-2.3 15.9-4.6 18.4-3.6 1.3.5 1.7 1.9 1.7 6.5 0 3.2.6 6.5 1.3 7.4 1.3 1.7 11.5 5.3 12.4 4.4.3-.3 1.2.2 1.9 1.1.8 1.2 2.4 1.7 4.6 1.5 2.8-.1 3.8.4 6.4 3.8 2.9 3.6 3.1 4.3 2.3 8-1.2 5.4-7.2 20.2-8.2 20.4-1.4.2-1.8-11.9-.7-18.6.8-5.3.7-6.3-.7-7.3-2.4-1.8-6.4.1-9.5 4.4l-2.6 3.7 3.4 6.9c2 3.9 4.2 8.1 4.9 9.5 3.3 5.8-.1 18.1-6.3 22.8-6.1 4.5-6.2 4.6-5.6 17.7.6 16 2.2 36.6 2.8 37.2.5.5 7.8-2.3 22.6-8.8 5.2-2.2 12.2-5.2 15.5-6.6s6.5-2.9 7.2-3.5c1.9-1.5 3.3-.1 6 6 1.9 4.4 2.1 5.7 1.1 6.3-.7.5-13.8 5.9-29.1 12-16.4 6.6-27.6 11.6-27.4 12.3.2.6 1.2 3.7 2.1 6.9 1.3 4.6 2.2 6 4.4 6.8 5.4 2.1 33.2 10.4 49.7 14.8 17.6 4.8 20.4 6.5 15.4 9.1-5.5 3-19.3.7-48.7-8.2-7.4-2.2-13.6-3.7-13.9-3.5-1 1 6.7 11.7 14.4 19.8 4.3 4.6 9.9 11.1 12.5 14.4 2.5 3.3 6.9 8.2 9.7 11 4.3 4.1 5.1 5.5 5.1 8.5 0 3.6-3.9 11.1-7.3 13.9-.9.7-1.7 1.7-1.7 2.2s29.9.9 68.5.9H512v-81.9c0-64.6-.3-82-1.2-82.4-1-.4-1-.7 0-1.8.9-1 1.2-24.3 1.2-109.6V0h-71.1l-71 .1.5 2.7c.3 1.5.8 5.4 1.2 8.7 2.1 19.1 12.8 37.6 27.5 47.6 3.2 2.1 11.1 5.9 17.6 8.3C431 72.6 438 76.1 444 80.8c7.6 5.9 24.9 24.1 25.6 26.7 1 3.9-.4 7.3-3.4 8.9-4 2.1-7.4.3-15.5-8.3-6.5-6.9-7-7.2-10.5-6.7-2 .3-6.8.8-10.7 1.2-6.2.6-6.8.5-5.7-.8.7-.9 4.4-2.6 8.3-3.8 6.8-2.2 6.9-2.3 5.2-4.3-2.9-3.2-7.1-4.5-20.2-6.2-18.9-2.5-30.1-7.3-45.9-20-9.1-7.3-15.8-14.6-22.6-24.5l-4.5-6.5h-9.8c-12-.1-14.9-1.3-24.5-10.3C302.1 18.9 297 10 297 3.8V0H0zM486 3c0 .5-.4 1-1 1-.5 0-1-.5-1-1 0-.6.5-1 1-1 .6 0 1 .4 1 1M219.4 335.3c.4 1.9.3 2.6-.4 2.2-.5-.3-1-1.8-1-3.2 0-3.2.5-2.8 1.4 1"/><path d="M68.3 191.6c-.3.8-.1 2 .6 2.7.8.8 1.1.4 1.1-1.6 0-3-.7-3.5-1.7-1.1m-13.7 80.1c.9 5 1.4 5.5 6 5.1 3.8-.3 3.9-.4 4.1-4.6l.3-4.2H53.9zm177.2 107.1c-4.5 5.5-4.6 5.2 3.1 5.2 8.4 0 9.2-1.4 2.6-4.7-4-2-4.4-2-5.7-.5"/></svg>