<svg xmlns="http://www.w3.org/2000/svg" width="682.667" height="512" version="1.0" viewBox="0 0 512 384"><path d="M0 141.5v141.4l3.2-.5c1.8-.4 5.6-1.7 8.4-3 4-1.8 8.1-2.5 19.5-3.4 7.9-.6 16-1.4 17.9-1.8 3.3-.7 3.5-1 3.4-4.7s-.3-4.1-3.7-5c-1.9-.5-3.8-1.3-4.2-1.6-.3-.4.6-4.6 2-9.5 3.3-11.4 4.4-25.1 2.2-28.5-1.1-1.9-1.3-3.6-.7-7.9.7-4.9.5-5.9-1.7-9.2-2.3-3.4-2.4-4.1-1.3-7 .7-1.8 2.1-4.7 3.1-6.3 2.7-4.6 8.1-22.3 7.5-24.3-.4-1-.2-6.1.3-11.2 1.2-10.7 2.5-12.7 10.2-15.3 4.3-1.4 4.7-1.4 8.7 1 2.2 1.3 4.4 3.4 4.8 4.6s1.6 3.4 2.7 4.9l2.1 2.8-2.3 2.4c-1.8 1.9-2.1 3.1-1.6 5.5.3 1.6.2 3.8-.4 4.9-.7 1.3-.6 3.5.4 7.3.8 3 1.5 7.3 1.5 9.5 0 2.9.8 5.2 2.8 7.7 1.5 2 3.9 5.3 5.5 7.3 4.6 6.3 3.5 9-4.3 10.1-4.4.7-5.6 1.2-5.8 2.8-.5 3.8 5.5 31.1 8.7 38.8 1.7 4.3 3.1 8.5 3.1 9.3 0 1.8-3.1 1.8-5.6-.1-2.9-2.2-6.1-1.9-6.8.7-1.1 4.1-.6 5.5 2.9 9.1l3.5 3.6-3.3 1c-1.7.5-9.7 1.9-17.7 3.1-8 1.1-16 2.5-17.8 3.1-6.5 2.1-28 4.9-37.4 4.9H0v96h101.3l101.2-.1 3.2-2.7c3.2-2.7 15.2-24.8 16.7-30.7.4-1.6 5.1-8.1 10.4-14.3 12.9-15.3 18.5-22.2 17.7-22.2-.3 0-4.1 1.1-8.3 2.4s-11.7 3.6-16.6 5.1l-8.9 2.6.6 5.6c.7 6.6-.5 6.2-1.3-.5-.4-3.5-.9-4.6-2-4.3-.8.2-4.6.6-8.5.9-6.5.4-7.2.2-9.4-2.2-1.7-1.8-2.1-3-1.5-3.6s5.7-2.4 11.4-4 10.8-3.4 11.3-3.9-.2-1.9-1.8-3.5c-2.1-2.1-2.4-2.9-1.5-4.6 1.3-2.4 5.2-2.6 7.4-.4 2.1 2.1 2 3.3-.5 6l-2.1 2.3 4.8-1.3c5.8-1.6 34.2-11.9 37.4-13.6 2.6-1.4 8.3-10.1 7.3-11.1-.5-.4-2.5-1.2-4.5-1.9-3.2-.9-4.1-.9-6 .4-4.4 3.1-7.8 1-7.8-4.6 0-2.1-1.4-3-11.2-7-14-5.8-26.7-11.4-27.5-12.1-1.1-1.1.7-5.7 2.2-5.7.9 0 4.1 1.3 7.3 2.9 3.1 1.5 11.5 5.2 18.6 8.1l13 5.2 1.9-2.6c1-1.4 2.7-2.6 3.7-2.6 2.5 0 5 2.7 5 5.3 0 1.7 1.2 2.7 5.6 4.3l5.5 2.2 5.4-5.2c3-2.9 5.5-5.7 5.5-6.3s.7-1.6 1.5-2.3c1.5-1.3 2.1-6 .8-6-.5 0-1.6-.7-2.6-1.4-1.6-1.3-1.6-1.6.8-6.4 1.9-3.8 2.7-7.3 3.1-13.4.3-5.7 1.2-9.6 2.6-12.5l2.2-4.1-3.2-3c-4.5-4.2-4.8-7-1.6-13.7 2.6-5.6 2.6-5.9.9-7.2-1.1-.7-2.3-1.3-2.8-1.3-.4 0-.6-.9-.2-2 .8-2.4-2.5-5.5-6-5.5-1.3-.1-3.8-1.3-5.4-2.8-1.7-1.5-3.6-2.7-4.2-2.7s-.8-1.1-.5-2.8c.3-1.5.8-4.9 1.2-7.5l.7-4.9-14.9.6c-8.2.3-22.8.8-32.4 1.1-34.9 1.2-93.9 5.8-101.7 8.1-3.4.9-3-2 .6-4.6 5.8-4.1 18.6-6.5 51.1-9.5 14.9-1.5 27.3-2 83.5-4 20.7-.7 21.5-.9 21.5-3.8 0-1.2.4-2.8.9-3.6.7-1.1 1-1 1.8.3.9 1.6 1.4 1.5 5.9-.8 2.8-1.4 7.2-3 9.9-3.6 2.8-.6 7.8-2.2 11.3-3.6 4.5-1.8 7.7-2.4 11.5-2.2l5.2.3.1 4.8c.3 8.2 1.1 10 4.2 9.4 1.5-.3 5 .1 7.7 1 10.1 3.1 11.3 3.3 12.9 2.7 1.2-.4 3 .6 5.6 3.2 3.2 3.1 4 4.6 3.9 7.4 0 4.4-6 21.6-7.4 21.2-.6-.1-1.1-5.2-1.2-12.3-.1-13.1-.5-14-5.3-13-2.3.5-9 7-9 8.7 0 .2.9 2.1 2 4.1 1.1 2.1 2 4.9 2 6.3.1 1.4.7 3.6 1.5 5 3.7 6.5-.2 17.4-9 24.6l-4.7 3.8.8 20c.4 11.1 1 22.2 1.3 24.7l.6 4.6 22.4-9.9c12.3-5.4 22.9-9.8 23.5-9.8 1.1 0 6.2 10.7 5.5 11.5-.6.6-14.5 6.5-35.9 15.2-10.2 4.2-18.8 7.8-19.1 8.2-.4.3.3 3.5 1.5 7.1 2 6.2 2.3 6.5 7 8.3 6.5 2.4 31.9 9.7 47.6 13.7 16.2 4.2 18.3 5.7 11.4 8.6-5.7 2.4-18.8.1-46.7-8.2-6.6-2-12.1-3.4-12.3-3.2-1.4 1.5 13 19.1 33.9 41.4 4.2 4.5 7.7 9.1 7.7 10.1-.1 2.7-3.4 9.3-6.6 13.2-1.6 1.8-2.9 3.8-2.9 4.2 0 .5-1.4 2-3 3.4l-3 2.4 74.3.1H512V0h-72c-55.8 0-72.5.3-74.1 1.2-1.7 1-2.3 1-2.6 0-.3-.8-2.6-1.2-6.5-1.2-5.7 0-5.9.1-5.2 2.2 1.7 5.7 13.1 27.3 19.2 36.2 12 17.8 18 23.2 31.8 28.6 14.9 5.9 25 12.3 37.6 23.9 6.5 6 6.7 6.1 12.3 6.1 4.9 0 6 .4 8.6 2.9 3.6 3.6 3.8 7.9.6 11.5-5.6 6.5-12.7 3.4-31.2-13.2-8.6-7.8-12-9.6-21-11.1-16.7-2.8-19.3-3.4-25.2-6.1-17.4-7.9-37-27-51.8-50.5-7.1-11.2-5.2-10.3-19.5-9-9.1.8-17.7-1.5-24.4-6.6-4.2-3.3-9.4-9.5-10.8-13.1-.7-1.7-7-1.8-139.3-1.8H0zm480-135c0 .8-.4 1.5-1 1.5-.5 0-1-.7-1-1.5s.5-1.5 1-1.5c.6 0 1 .7 1 1.5m27 213.9c0 .2-.7.9-1.5 1.6-1.2 1-1.5 1-1.5-.4 0-.9.7-1.6 1.5-1.6s1.5.2 1.5.4"/><path d="M60 265.9c0 .5.7 2.4 1.5 4.3 1.1 2.7 2.2 3.7 4.6 4.2 4 .8 5.3-.4 5.6-4.8.2-3.3.1-3.4-4.4-4-6.1-.8-7.3-.8-7.3.3M227.2 377c-6.3 7.5-7 7 10 7h15.3l-2.5-2c-1.5-1.2-3.4-1.8-4.7-1.5-2.9.7-5.3-.4-5.3-2.4 0-.9-1.3-2.2-3.1-2.8-1.7-.7-2.8-1.6-2.6-2 .3-.5-.3-.9-1.4-.9s-3.6 2-5.7 4.6"/></svg>