<svg xmlns="http://www.w3.org/2000/svg" width="682.667" height="512" version="1.0" viewBox="0 0 512 384"><path d="M0 141.5C0 276 .1 283 1.8 282.2c.9-.5 3.7-1.2 6.2-1.6 2.4-.4 5.8-1.5 7.5-2.6 1.6-1 5.7-2.1 9-2.4s11.5-1.1 18.3-1.7l12.3-1.2-.3-4c-.3-3.7-.6-4.2-3.6-4.9-1.8-.5-3.5-1.5-3.8-2.2s.4-4.9 1.5-9.2c1.1-4.4 2.5-12.3 3.2-17.7 1-8.9 1-10-.6-11.7-1.5-1.6-1.7-3-1.1-7.6.5-4.3.3-6.1-.8-7.3-2-2.2-3-6.7-1.7-7.5.6-.4 1.1-1.7 1.1-2.8 0-1.2.6-2.9 1.4-3.7 2.3-2.6 8.4-21.8 7.4-23.5-.5-.8-.4-3.4.1-5.8s1.1-6.3 1.2-8.8c.5-8.2 3-11 11.1-12.5 5.7-1.1 11.8 2.9 13.2 8.7.3 1.6 1.1 2.8 1.6 2.8 1.5 0 1.2 3.6-.5 5-.9.8-1.5 2.9-1.5 5.6 0 2.3-.4 4.5-.9 4.8-.5.4-.5 2.4.1 4.8.5 2.4 1.1 6.9 1.3 10 .3 5.9.5 6.3 8.8 16 2.9 3.4 3.5 7.2 1.5 8.5-1.4.8-2.5 1.1-8 2-2.1.3-3.8 1.1-3.8 1.7 0 1.6 5.7 28.5 6.8 32.1.5 1.6 2.1 5.8 3.6 9.2 1.4 3.4 2.6 6.7 2.6 7.3 0 1.6-3.2 1.2-7.4-1-4.6-2.3-5.1-2.1-6 2-.6 3.3 2.8 10 5.2 10 .6 0 1.2.4 1.2 1 0 1.2-5.1 2.5-16 4-4.7.7-11.6 1.9-15.5 2.7-24.4 4.9-29.6 5.6-42.7 5.7l-13.8.1V384h199.2l2.8-2.2c1.5-1.3 3.4-2.8 4.2-3.3 1.9-1.2 15.8-27.6 15.8-29.8 0-1.5 8.8-13.1 14.5-19.2 5.1-5.4 13.5-15.8 13.1-16.3-.4-.3-19.1 5.1-32.4 9.3-1.5.5-1.6 5.9-.2 8.6.7 1.2.7 1.9.1 1.9s-1.3-1.7-1.6-3.8c-1.1-6.3-.9-6.2-6.2-4.6-5.5 1.7-10.7 1.2-13.4-1.2-3.9-3.5-2.5-5 7.9-7.9 5.3-1.5 10.8-3.2 12.2-3.7l2.4-.9-2.9-2.3c-2.3-1.8-2.7-2.8-2.1-4.9.7-3.1 4.4-3.7 7-1.1 2 1.9 2 3.8.1 5.4-2.5 2.1-1.7 2.9 1.9 1.9 3.9-1.1 33.8-12.1 37.6-13.8 1.4-.7 3.7-3.4 5.3-6.2l2.7-4.9-2.7-1.1c-1.6-.5-3.5-1.2-4.3-1.5s-2.9.3-4.7 1.3c-4.2 2.2-6.6 1-7.3-3.8-.5-3.2-.9-3.6-10-7.2-8.2-3.2-22.4-9.4-27-11.7-2-1-2.4-4.4-.7-5.8 1.1-1 3.4-.3 10.8 3.2 5.2 2.4 13.9 6 19.3 8.1l10 3.7 1.6-2.2c2.5-3.4 7.2-2.4 8.4 1.7.8 2.6 1.9 3.5 6.4 5.2l5.5 2 5.1-5.1c7.9-7.9 9.6-12.4 5.8-15.4l-2.3-1.9 2.5-5.5c1.7-3.7 2.7-8.2 3.2-13.8.4-4.8 1.5-9.9 2.5-11.9l1.8-3.6-2.9-2.7c-2.4-2.3-3-3.6-3-7.2 0-2.4.9-6 2-8 1.8-3.3 1.8-3.9.4-5.3-.8-.8-2-1.5-2.6-1.5s-.8-1-.4-2.4c.7-2.9-1.4-4.9-5.4-5.1-1.6-.1-4.4-1.5-6.6-3.5-3.5-3-3.8-3.7-3.5-7.8.1-2.5.7-5.6 1.2-6.9l.9-2.4-19.3.6c-55.6 1.8-116.6 6.4-126.1 9.5-3.7 1.3-3.6 1.3-3.6-.4 0-1.9 5.6-6.1 10-7.4 11.8-3.7 59.1-8.6 93.5-9.7 55.4-1.8 52.8-1.4 55-8 .6-1.8.8-1.8 1.7-.4 1 1.4 1.5 1.4 5.2-.7 2.3-1.2 6.8-2.9 10.1-3.8 3.3-.8 8.6-2.4 11.9-3.6 3.6-1.3 7.6-2 10.5-1.8l4.6.3-.3 4.6c-.1 2.5.2 5.8.8 7.4.9 2.4 1.4 2.7 4.5 2.1 2.1-.4 4.7-.1 7.1.9 2 .8 4.7 1.5 6.1 1.5 1.3 0 3.3.5 4.4 1.1 1.5.7 2.4.7 3.4-.1 1.8-1.5 10.5 6.4 10.5 9.6 0 2.5-4.6 17.7-6.3 20.9-1 1.9-1.1 1.9-1.8-.5-.4-1.4-.7-7.1-.8-12.6-.1-8.3-.4-10.3-1.7-10.8-2.9-1.1-6.9.7-10.5 4.8l-3.7 4.1 2.1 2.9c1.2 1.8 2.2 5.1 2.5 8.3.3 2.9.8 5.6 1.3 5.9 1.4.8 1.1 7.1-.6 11-.8 1.9-4.3 6.3-7.9 9.8l-6.5 6.4.4 7.9c.2 4.3.7 14.9 1 23.5.4 9.1 1.1 15.8 1.7 15.8.5 0 10.8-4.5 22.9-9.9l22-9.9 2.9 5.9c2.8 5.4 2.9 5.9 1.2 6.8-.9.5-13.2 5.7-27.2 11.6s-25.8 10.9-26.1 11.1c-.4.2.4 3.4 1.6 7.1l2.2 6.8 13.9 4.3c7.6 2.3 22.4 6.4 32.7 9.1 10.4 2.7 19.1 5.2 19.4 5.5s.3 1.2-.1 2.1c-.7 1.9-4.7 3.5-8.6 3.5-4.9 0-22.1-3.8-37.2-8.3-8.1-2.4-15-4.2-15.2-3.9-.9.9 7.2 11.7 14.9 20 4.3 4.6 8.7 9.5 9.8 11s5.4 6.2 9.5 10.4c6.9 7.3 7.3 8 6.7 11-1 4.4-2.7 7.7-5.9 11.1-1.4 1.5-2.6 3.3-2.6 4 0 1.6-6.4 5.9-10.9 7.3-2.8.9 14.6 1.2 75.7 1.3l79.2.1V0h-74.4c-48.6 0-74.7.3-75.1 1-.3.5-1.5 1-2.6 1-1 0-1.9-.5-1.9-1 0-.6-3.2-1-7.5-1-4.1 0-7.5.3-7.5.7 0 2.2 17.9 30.6 27.1 42.8 10.1 13.6 13.9 16.6 31.2 24.9 8.4 4 19.3 10 24.2 13.3 5 3.3 13.1 8.7 18 12.1 5 3.3 10.1 6.3 11.5 6.7 3.6 1.1 5 2.4 5 4.9 0 7.7-12.5 5.3-28.4-5.6-12.6-8.6-17.2-10.6-32.1-14.3s-25.4-8.2-34.1-14.8c-13.3-10.1-31.4-30.7-40.5-46-1.8-3.1-3.9-5.7-4.5-5.7s-3.7.9-7 2.1c-3.5 1.2-9.5 2.3-14.9 2.6-7.7.4-9.9.2-14.9-1.7-7.3-2.8-14.2-9.3-17.7-16.7L263.5.1 131.8 0H0zM476.1 10.3c-.8.8-1.1.7-1.1-.4 0-2 1.3-3.4 1.8-1.9.3.7-.1 1.7-.7 2.3m-13.4 74.3c-.3.3-1.2.4-1.9.1-.8-.3-.5-.6.6-.6 1.1-.1 1.7.2 1.3.5m40.7 137.8c-.6 1.6-2.4 2.3-2.4.8 0-1 2.2-3.3 2.7-2.8.2.2.1 1.1-.3 2"/><path d="M62.6 264.8c-.3.6.2 2.6 1.2 4.4 1.4 2.5 2.7 3.4 5.5 3.9 4.7.7 5.4.2 5.3-4.4 0-3.1-.4-3.7-2-3.7-1.2 0-3.7-.3-5.7-.6-2.1-.4-3.9-.2-4.3.4m161.6 112.8-5.3 6.4 18.8-.1c12.8 0 18.1-.3 16.4-1-1.3-.5-3.5-1.8-5.1-2.9-1.5-1-4-1.8-5.6-1.7-2.1.1-3.1-.4-3.9-2-.5-1.2-2-2.4-3.2-2.8-1.3-.3-2.3-1-2.3-1.5 0-.6-1-1-2.2-.9-1.6 0-4.1 2.2-7.6 6.5m34.3 5.4c-.3.5.3 1 1.4 1 1.2 0 2.1-.5 2.1-1 0-.6-.6-1-1.4-1s-1.8.4-2.1 1"/></svg>