<svg xmlns="http://www.w3.org/2000/svg" width="682.667" height="512" version="1.0" viewBox="0 0 512 384"><path d="M0 141v141l2.6-1c1.4-.6 4-1 5.7-1 1.8 0 5.7-1.2 8.7-2.6 4.5-2.2 8.2-2.8 21-4 8.5-.7 16.3-1.3 17.3-1.4 1.5 0 1.8-.7 1.5-4.2-.3-3.9-.6-4.3-3.7-4.9-4-.8-5.2-2.5-4-5.3 1.7-4.1 3.8-14.2 4.9-23.8 1.1-9.2 1-9.9-.9-12.5-1.7-2.4-1.9-3.4-1.1-6.9.8-3.4.6-4.9-1.1-8.4-1.5-3-1.8-4.5-1-5.3.6-.6 1.1-2.1 1.1-3.3s.7-2.7 1.5-3.4 2-3.1 2.6-5.4c.6-2.2 2-6.7 3.1-10 1.5-4.2 1.7-6.4 1-8-.6-1.4-.5-3.5.4-6.6.8-2.5 1.4-6 1.4-7.8 0-6.3 2.3-9.8 7.6-11.6 6.2-2.1 6.8-2.1 11.4 1 2.4 1.6 4.1 3.6 4.5 5.4.3 1.6 1.3 3.4 2.1 4.1 1.9 1.6 1.8 3.3-.6 5.4-1.3 1.2-2 3.1-2 5.4 0 2-.1 4.9-.1 6.6 0 1.6.3 6.3.7 10.4.7 7.6 2.6 11.3 9.2 17.9 2.2 2.2 2.7 4.7 1.6 7.6-.3.9-2.5 1.8-5.2 2.2-5.3.7-7.5 2.1-6.8 4.1.3.8 2 7.5 3.7 15.1 1.7 7.5 4.6 17.6 6.5 22.4s3.4 9 3.4 9.3c0 1.1-4.6.4-6.4-1-1.1-.8-3-1.5-4.2-1.5-3.3 0-3.9 5.5-1.1 9.7 1.2 1.8 2.8 3.3 3.5 3.3.8 0 1.2.6 1 1.2-.3.8-4.8 2-11.4 3-6 .9-15.6 2.7-21.4 3.8-5.8 1.2-12.7 2.5-15.5 3-9.5 1.9-25.7 3.2-33.6 2.8l-7.9-.3V384h198.1l3.6-3.5c2-1.9 3.9-3.5 4.3-3.5 1 0 14.6-25.9 15.4-29.3.4-1.5 3.5-6 6.9-10 10.5-12 20.8-24.9 20.3-25.4-.4-.4-23.4 6.5-30 9-2.8 1-2.8 1.2-2.2 6.6l.6 5.6-1.6-3.5c-.8-1.9-1.2-4.5-.9-5.7.3-1.3.4-2.3.3-2.3-.2 0-2.5.7-5.2 1.5s-6.2 1.5-7.7 1.5c-2.6 0-8.9-4.2-8.9-6 0-1 3.7-2.4 13.5-5.1 10.4-2.9 11.2-3.5 8-6.5-2.9-2.6-3-3.3-1.2-5.9 1.6-2.1 6.7-1.4 6.7.9 0 .8.5 1.6 1.2 1.8.7.3.2 1.3-1.2 2.6-1.3 1.2-2.1 2.5-1.7 2.8.7.7 15.8-4.4 32.6-11 10.1-4 10.4-4.2 13.2-9.3l2.9-5.1-4.7-1.6c-4.1-1.4-4.8-1.4-6.3-.1-3.6 3.3-8.8.7-7.6-3.9.5-2.2 0-2.6-7.8-5.5-4.6-1.8-13.3-5.4-19.3-8-11.1-5-13.3-7.2-9.9-10 1.2-1 2.3-.8 5.8 1 7.1 3.7 33.1 13.8 34 13.3.4-.3.8-1.2.8-1.9 0-1.6 4.2-3 6.5-2.2.8.4 1.8 2 2.2 3.8.7 2.7 1.7 3.5 6.1 5.2l5.3 2 5-4.9c2.7-2.6 4.9-5.2 4.9-5.7 0-.4.9-1.7 2-2.9 2.7-2.9 2.5-5.6-.5-7-3.1-1.4-3.1-1.5 0-7.5 1.7-3.3 2.6-7.2 3.1-12.8.3-4.4 1.2-9.3 2-10.9 1.6-3.4 1.8-6.6.4-6.6-1.5 0-4-5.6-4-9.2 0-1.8.9-4.9 1.9-6.9 2-3.8 1.3-6.9-1.6-6.9-1.1 0-1.4-.6-.9-2.4.7-2.9-1.4-4.9-5.4-5.1-1.6-.1-4.4-1.5-6.6-3.4l-3.7-3.3.9-7 1-7-17.6.6c-26.9 1-40.4 1.6-53.6 2.6-6.7.5-18.2 1.4-25.6 2-14.1 1-42.8 4.5-46.5 5.6-5.7 1.6.8-5.4 7.2-7.8 8.6-3.3 65.3-9.8 85.5-9.9 12.3 0 56.2-2.6 58.3-3.4 1-.4 2.5-2.1 3.3-3.7 1-1.9 1.9-2.7 2.5-2.1s2.7.1 5.6-1.4c2.6-1.2 5.7-2.3 7-2.3s5.2-1.2 8.6-2.7c4.4-1.8 8.1-2.6 12.7-2.7l6.5-.1-.3 4.4c-.5 5.7.4 8.8 2.8 10.1 1.4.8 2.5.7 3.9-.2 1.6-1 2.9-.9 6.8.5 2.6.9 7.5 1.8 10.9 2 5.4.2 6.5.6 9.7 3.7 2.9 2.7 3.7 4.2 3.7 7 0 3.9-4.4 19.8-5.9 21.3-1 1-2.3-8.6-2.5-18.1-.1-7.2-1.2-8.5-6.2-7.4-2.1.5-4.3 2.2-6.6 5.2l-3.5 4.6 2.1 2.7c1.2 1.6 2.1 4.6 2.3 7.4.1 2.7.5 7.2.9 10.1.6 5 .5 5.6-3.2 10.9-2.1 3-5.5 6.7-7.6 8.1s-4.1 3.5-4.4 4.7c-.7 2.7 1.2 45.4 2 46.2.3.3 10.4-3.8 22.6-9.2 12.1-5.4 22.2-9.6 22.4-9.4s1.6 2.8 3 5.7l2.7 5.3-5.6 2.4c-3 1.4-15.2 6.6-27 11.6s-21.7 9.4-22 9.8c-.2.4.6 3.6 1.8 7.1 2 5.8 2.5 6.4 6.2 7.7 7.2 2.5 30.7 9.1 45.5 12.9 8 2 15 4 15.5 4.6.7.6.2 1.6-1.4 2.9-4.5 3.7-19.9 1.6-47.1-6.5-6.3-1.9-11.6-3.3-11.8-3.1-1.4 1.4 13.2 19 33.6 40.5 4.9 5.2 7.2 8.4 7.2 10.1-.1 3.4-3.3 10-6.4 12.8-1.4 1.4-2.6 3-2.6 3.7 0 2-6 6-10.4 7-2.2.5-4.1 1.5-4.4 2.2-.3.9 16.9 1.2 80.2 1.2H512V0l-78.2.1c-43.1 0-77.4.4-76.4.8 1.8.7 1.8.8.2 1.4-2.1.8-3.9 0-3.1-1.4.4-.5-3.5-.9-9.4-.9-5.6 0-10.1.2-10.1.4 0 .3 3.3 4.9 7.3 10.3s9.5 12.9 12.3 16.7c9.1 12.7 19.4 24.5 26.2 30.1 4.6 3.9 12.5 8.4 25.7 15 25.8 12.7 39.2 21.7 47.3 31.7 3.5 4.5 3.7 5 2.2 7.9-1.7 3.1-4.1 2.2-12-4.7-9.7-8.5-23-15.1-42.2-20.8-25.4-7.7-37-14.2-53.4-29.9-9.9-9.4-24-25.8-28.8-33.5-1.4-2.3-3.1-4.2-3.7-4.2s-3 1.6-5.2 3.6c-7.1 6-15.7 9.6-24.1 10.2-6.5.4-8.1.1-13.2-2.2-3.3-1.5-8.1-4.8-10.8-7.4C258 18.7 252 8.4 252 4.8c0-.9-.3-2.3-.6-3.2-.6-1.4-12.6-1.6-126-1.6H0zM475 10.4c0 .8-.7 1.6-1.5 2-1 .4-1.5-.1-1.5-1.4 0-1.1.7-2 1.5-2s1.5.6 1.5 1.4M307 107c0 .5-.2 1-.4 1-.3 0-.8-.5-1.1-1-.3-.6-.1-1 .4-1 .6 0 1.1.4 1.1 1m193.4 117.4c-.3.9-1 1.3-1.6 1-.5-.3-.4-1.2.3-2 1.5-1.8 2.2-1.3 1.3 1"/><path d="M64.6 263.8c-.3.6.1 2.6.9 4.5 1.2 2.9 2 3.5 5.2 4 4.6.5 5.5-.2 5.8-4.7.2-3.6.2-3.6-4.1-3.6-2.3 0-4.9-.3-5.7-.6s-1.8-.1-2.1.4m158.6 112.7-6.3 7.5H264l-2.1-2.1c-1.6-1.6-2.3-1.8-3.4-.9-1.8 1.5-6.7.5-10-2.2-1.6-1.2-3.4-1.8-4.7-1.5-2.6.7-5.9-.9-5.3-2.6.4-1-2.9-3.1-8.5-5.4-.3-.1-3.3 3.1-6.8 7.2m52.6 7.2c.7.3 1.6.2 1.9-.1.4-.3-.2-.6-1.3-.5-1.1 0-1.4.3-.6.6"/></svg>