<svg xmlns="http://www.w3.org/2000/svg" width="682.667" height="512" version="1.0" viewBox="0 0 512 384"><path d="M0 192v192h195.5l5.7-5.4c4-3.7 7.4-8.4 11.4-15.7 3.1-5.7 6.2-11.3 7-12.4s1.4-2.7 1.4-3.5c0-.9 6.3-9.2 13.9-18.5 7.7-9.4 13.8-17.1 13.6-17.3s-7.6 2-16.4 4.9c-14.3 4.6-16.2 5.4-16.7 7.6-.4 1.3-.1 3.6.5 5 .7 1.4.9 2.8.7 3.1-.8.7-2.6-4.5-2.6-7.5 0-2-.4-2.4-1.7-1.8-1 .4-4.7.9-8.3 1.2-6 .5-6.7.3-8.9-2-1.2-1.4-2.1-3-1.8-3.5.4-.5 5.6-2.4 11.7-4.2 6-1.8 11-3.7 11-4.1 0-.5-1.1-2-2.5-3.3-2.1-2.1-2.4-2.9-1.5-4.6 1.3-2.5 5.2-2.6 7.4-.1 1.8 2 1.3 4.6-1 5.5-.9.3-1.3 1-.9 1.5.6 1.2 8.7-1.5 28.3-9.4 13.5-5.4 14.4-5.9 16.7-10 1.4-2.3 2.5-4.7 2.5-5.3s-1.8-1.6-4-2.2c-3.3-.9-4.4-.8-6.2.5-1.3.8-3 1.5-4 1.5-1.9 0-4.2-3.4-4.2-6.4-.1-1.5-3.2-3.2-14.6-7.8-8-3.3-15.8-6.4-17.5-7-4.1-1.5-5.5-2.7-5.5-4.8 0-3.9 2.5-4.3 8.7-1.2 3.2 1.6 11.6 5.1 18.6 7.8l12.9 4.8 1.7-2.3c2.6-3.4 7.2-2.6 8.4 1.6.8 2.6 1.8 3.4 6.1 5l5.3 1.9 5.1-5.1c2.9-2.9 5.2-5.6 5.2-6.2s.7-1.6 1.5-2.3c1.6-1.3 2.1-6 .7-6-.5 0-1.6-.6-2.6-1.3-1.6-1.2-1.5-1.6 1.3-6.9 2-3.9 3.1-7.8 3.6-12.5.3-3.7 1.5-8.8 2.6-11.2l2-4.4-3-2.9c-5-4.9-4.9-8.2.7-19 .2-.4-.8-1.3-2.2-1.9-1.9-.9-2.4-1.7-2-3.4.7-2.7-1.4-4.5-5.6-5-1.7-.2-4.6-1.7-6.5-3.2-3.6-3-4.1-5.3-2.6-13.1l.8-4.2-12.1.5c-42.1 2-90.2 6.4-116.5 10.6-6.8 1.1-12.6 1.7-12.9 1.5-1.3-1.4 6-6.5 12.1-8.4 11.5-3.6 61.3-9.6 90.2-10.8 6.6-.3 19.7-1.2 29.2-1.9 17.9-1.4 21.4-2.4 22.9-6.8q.6-1.8 2.4-1.2c1 .3 2.1.1 2.4-.4.4-.5 3.2-1.5 6.4-2.2 3.1-.6 7.6-2 9.9-3.1 4.5-2.1 13.2-3.6 17.2-3 2.1.3 2.3.7 1.7 4.6-.9 5.7.5 9.1 4.3 10.4 2.5.9 3.2.8 4-.6s1.5-1.5 5.8-.4c2.8.7 8.7 1.3 13.3 1.4 7.3 0 8.6.3 10.6 2.3 1.2 1.2 2.6 4 3 6.1.7 3.9-.9 16.6-2.8 21.3-1 2.5-1.1 2.5-1.8.6-.4-1.1-1.6-6.8-2.6-12.7-1.6-9.4-2.1-10.7-4-11.2-2.6-.7-8.4.3-8.4 1.4 0 .4-1.5 2.7-3.4 5.1l-3.3 4.4 1.9 2.6c1.6 2.1 2 4.7 2.4 13.2l.4 10.5-4.8 5.7c-2.6 3-6.2 6.4-8 7.5l-3.2 2v19.8c0 11 .3 22 .6 24.4l.6 4.6 2.7-1.5c1.4-.7 11.3-5.4 21.9-10.3l19.3-8.9 2 3.2c2.5 4 3.4 7.6 2.3 8.7-.9.8-14.4 6.9-39.4 17.7-6.8 3-12.6 5.5-12.7 5.7-.2.1.8 3.3 2 7.1l2.3 6.8 14.6 4.2c8 2.3 22.5 6.1 32.2 8.5 13.8 3.5 17.6 4.7 17.4 5.9-.4 2.2-4.6 4.1-8.9 4.1-5.4 0-18.6-2.6-33.4-6.7-18.6-5.1-17.9-5-16.6-2.5 2 3.8 8.4 11.7 15.1 18.7 3.7 3.8 8.7 9.2 11 12 2.3 2.7 6.5 7.1 9.2 9.6 4.1 3.7 5.1 5.3 5 7.7-.1 3.8-3.2 9.9-6.6 13.1-1.4 1.3-2.3 2.7-2.1 3.1.7 1.2-6.2 6.1-9.3 6.6-1.5.3-4 1.4-5.6 2.6-1.9 1.3-4.5 2.1-7.7 2.1-2.6 0-4.6.4-4.3.9.3.4 39.6.8 87.5.8H512V0H311.6l7.5 4.7c14.8 9.4 25.6 19.2 52.9 47.9 13.2 13.8 15.9 15.6 30.4 20.6 10.2 3.5 20.4 9.4 25.6 14.8 9.5 9.8 18.1 17 21.8 17.9 5.8 1.6 5.4 5-.8 6.4-3.7.8-7.7-1.8-18.6-12.2-5.3-5.1-11.6-10.2-13.8-11.2-2.3-.9-9.4-2.4-16-3.3-18.5-2.4-26.3-6.7-50.6-28.1-18.9-16.6-28.4-23.7-38.4-28.4-10.3-4.9-12.6-5.5-13.3-3.3-3.6 10.7-10.4 18.9-18.8 22.8-7.2 3.4-18.9 3.4-26.3-.1-7.4-3.4-14.4-10.8-17.1-17.8-2.7-7.3-2.8-18-.2-25.5l1.8-5.2H0zM346.5 3c.3.5-.1 1-.9 1-.9 0-1.6-.5-1.6-1 0-.6.4-1 .9-1 .6 0 1.3.4 1.6 1M468 16.1c0 .5-.7.9-1.5.9-1.5 0-2-1.2-.9-2.3.8-.8 2.4.1 2.4 1.4m38.6 88.9c2.4 1.1 4.4 2.5 4.4 3.1s-.3.9-.7.7c-.5-.3-2.7-1.3-5-2.3-2.4-1-4.3-2.2-4.3-2.7 0-1.2.6-1 5.6 1.2M81.1 146.1c1.7 1.2 3.7 3.9 4.6 6 .8 2.1 1.9 3.9 2.4 3.9 1.5 0 1 3.7-.6 5-1.8 1.5-1.9 4.3-.4 7.3 1 1.8.9 2.3-.9 3.5s-2 2-1.5 9.5l.5 8.2 4.6 4.2c2.5 2.4 4.9 4.3 5.3 4.3 1.1 0 2.3 4.2 2 7-.4 3.1-1.2 3.6-7 4.5-2.5.4-4.9 1.1-5.2 1.7-.7 1.1 7.5 28.6 12 40.3 1.7 4.4 3.1 8.3 3.1 8.7 0 1.8-4.4.6-6.6-1.7-3.5-3.7-6-3.3-6.7 1.2-.7 4.1 2.3 10.3 4.9 10.3.8 0 1.4.4 1.4.9 0 1-8.5 3.1-12.1 3.1-1.2 0-7.8 1.1-14.7 2.5-26.3 5.1-37.8 6.6-50.7 6.6-12.5 0-16.2-.8-13.9-3.1.5-.5 4.6-1.6 9-2.4 4.4-.7 9.8-2.3 12-3.4 3.2-1.6 7.6-2.3 20.5-3.2 9-.7 16.6-1.4 16.7-1.6.2-.1.1-1.6-.3-3.3-.5-2.3-1.5-3.3-4.1-4.1-3.9-1.3-4.3-3.2-1.8-10.1 1.8-5.2 4.4-19 4.4-23.7 0-2.3-.8-4.1-2.7-5.8l-2.8-2.6 2.3-3.8c2.3-4.1 2.9-8 1.1-8-1.6 0-3.8-6.2-3.2-9.5.3-1.7 1.1-3.7 1.8-4.5s2.4-5.3 3.8-10 2.8-9.2 3.1-10.1c.4-.9 0-2.1-.8-2.8-1.2-1-1.3-1.8-.4-3.9.5-1.5 1.4-6.1 1.9-10.1 1-8.4 2.6-10.8 8-12.1 5.7-1.3 8-1.1 11 1.1M494 227.9c0 .6-.4 1.3-1 1.6-.5.3-1-.1-1-.9 0-.9.5-1.6 1-1.6.6 0 1 .4 1 .9"/><path d="M67 263.9c0 .4 1.1 2 2.5 3.5 2 2.2 3.2 2.7 6.3 2.4 3.1-.2 3.6-.6 3.4-2.3-.2-1.1-.9-2.6-1.4-3.3-1.2-1.3-10.8-1.7-10.8-.3m154.5 111.8-6.8 7.8 13.6.3c7.5.1 19.9.1 27.5 0 12.9-.3 13.4-.4 9.5-1.6-2.3-.7-4.6-1.9-5.1-2.8-.7-1.3-1-1.3-2.1 0-1.5 1.8-6.1.7-10.4-2.5-1.6-1.1-3.5-1.8-4.6-1.4-2.5.8-5.3-.5-4.7-2.1.3-.8-.1-1.4-.9-1.4s-2.3-.8-3.3-1.8c-3.6-3.5-5.5-2.7-12.7 5.5m52 7.3c-.4.6.5 1 1.9 1s2.6-.5 2.6-1c0-.6-.9-1-1.9-1-1.1 0-2.3.4-2.6 1"/></svg>