<svg xmlns="http://www.w3.org/2000/svg" width="682.667" height="512" version="1.0" viewBox="0 0 512 384"><path d="M313.8 7.5c-13.3 2.2-25.6 7.5-28.6 12.3-1.7 2.6-1.9 2.7-9.9 2.4-6.7-.2-9 .1-12.2 1.7-2.1 1.1-4.1 2.6-4.4 3.3-.3.9-1.3.4-3-1.4-3.4-3.7-6.3-4.3-19.7-4.2-10.3 0-12.5.3-21 3.3-9.5 3.3-13.4 5.6-12.4 7.2.3.5.2 1.5-.3 2.1-1.3 2-1 5.7.4 6.2.7.3 1.3 1.4 1.3 2.4 0 1.1.6 2.5 1.4 3.1.8.7 1.8 2.6 2.1 4.2.4 1.6 1.1 3.1 1.6 3.4.5.4.9 1.4.9 2.4s.6 2.4 1.4 3c.8.7 1.8 2.6 2.1 4.2.4 1.6 1.3 3.2 2 3.6.8.5 1.4 1.2 1.4 1.8.1.5 1 2.2 2.1 3.8 1.7 2.2 2.6 2.6 4.8 2.1 1.5-.4 3.1-1.1 3.7-1.5 1.8-1.7 2.1-.9 2.1 5.8 0 8.3 1.7 16.3 3.8 17.9 2 1.4 2.2 9.7.2 11.7-.9.8-1.7 4.7-2.1 9.8-.4 4.6-1.1 10.2-1.5 12.4-.7 3-.6 4.2.5 4.7.8.5 1.6 3.4 2 7.1.5 5.1.3 6.9-1.4 10.1-1.1 2.1-2.8 7.3-3.7 11.5s-2.1 8.1-2.5 8.7c-.5.6-2.8 1.4-5 1.7-5.8.8-8.9 4-8.9 9.1 0 2.3.7 5.2 1.5 6.6s1.7 3.1 2.1 3.8c1.8 3.5-9.2 25.2-25.5 50.2-8.6 13.2-9.2 15.2-6.7 22 1.2 3.3 1 4-2.7 11.7-3.2 6.7-3.8 8.9-3.3 11.7.8 3.9 4.8 7.9 9.9 9.5l3.3 1.1 2.6 13.9c4.1 21.1 9.4 30.7 16.5 29.9 5.9-.7 5.8 1.7-1.4 21.5-3.5 9.9-6.3 18.1-6 18.3.2.2 35.5.3 78.4.2l78.1-.3-5.3-17.2c-2.9-9.5-5.1-17.3-5-17.3s3.3 4.8 7 10.7c3.8 6 7.9 12 9.3 13.5 2.1 2.3 2.4 3.3 1.8 6.7-.4 2.5-.2 4.1.4 4.1.5 0 1-1.8 1-4.1 0-2.6.4-3.8 1.1-3.4 2.2 1.4 6.7-1.7 8.3-5.6 2.3-5.7 2-11-1.5-27.1-2.2-10.5-3.1-17.4-3.3-25.8-.1-6.3-.6-14.3-1-17.7-.8-5.9-.7-6.4 2.4-11.3 3.9-6 4.8-3-10.8-35-9.6-19.8-11.3-24.3-14.5-37-2.1-8-3.7-15.4-3.7-16.5s1.4-4.5 3.1-7.5c2.8-5.1 2.9-5.6 1.2-6.7-.9-.7-3.8-1.3-6.5-1.3-4.6 0-4.7-.1-5.7-3.8-.6-2-1.3-6.4-1.6-9.7-1.7-17.1-2.4-19.5-7.2-24.1-2.5-2.4-5.1-4.4-5.8-4.4s-2.3-.8-3.6-1.9c-2.2-1.7-2.2-1.9-.6-3.5 1.4-1.4 1.7-1.5 1.7-.3 0 .8.7 2 1.5 2.7 1.4 1.2.9-.6-4.4-14.4-1.7-4.4-.6-4.2 2 .3 1.2 2.3 2.4 3.9 2.7 3.7.2-.2-.2-1.5-.9-2.8-1.5-2.7-1.4-20.3.2-32 1.2-8 1.8-8.7 7.5-8.8 1.2 0 2.9-1.2 3.9-2.6 1.6-2.4 1.6-3 .2-5.8-.8-1.7-3.5-5.9-6.1-9.2-2.5-3.4-4.6-7.1-4.6-8.2 0-2 .4-2 6.9-1.5 7.6.6 7.8.5 8.6-5.5.3-2.3.9-5.1 1.3-6.4.7-1.9.9-21.7.4-31-.1-1.4-1.6-4.2-3.4-6.2-2.9-3.3-3.6-3.6-8.2-3.5-2.8.1-8.5.7-12.8 1.4m-73.2 132c-.4 1.4-1.1 2.5-1.6 2.5s-.7-.7-.5-1.5c.3-.8.7-2.2 1-3.1.9-2.6 1.8-.8 1.1 2.1m76.3 86.3c1 17.2 3.5 41.7 4.6 44.9.7 2.2-.1 1.5-4-3.2-2.9-3.6-3.4-4.9-2.5-6 .8-1 .8-1.9.1-3.4-.6-1.1-1.1-3.7-1.1-5.8s-.6-7.5-1.4-11.9c-1.6-8.9-1.1-28.2.9-34.4 1.4-4.6 2.3.4 3.4 19.8M218 335.2c-2.7 7.8-3.1 8.8-4 8.8-2.1 0-1.5-3.2 1.7-8.3 1.9-3.1 3.6-5.7 3.8-5.7s-.4 2.4-1.5 5.2"/></svg>