<svg xmlns="http://www.w3.org/2000/svg" width="682.667" height="512" version="1.0" viewBox="0 0 512 384"><path d="M0 139.6C0 251.2.3 279 1.2 278.2c.7-.6 4.5-1.5 8.4-2s8.9-1.9 11.1-3c4.2-2.2 14.1-3.8 29.3-4.7 5.2-.3 9.6-.7 9.7-.9.2-.1 0-1.7-.3-3.5-.5-2.3-1.3-3.3-3.3-3.7-4.7-1.1-5-2.6-2.5-12.2 1.2-4.9 2.5-13.3 2.9-18.8.3-5.4.8-12 1.1-14.7.4-4.3.2-5-2.4-7.5-3.4-3.2-4.6-6-3.3-7.6 2.8-3.4 9.8-29.3 8.3-30.8-.6-.6-.6-2.4 0-5.1.6-2.3 1-5.9.9-8-.2-6.1 2.1-10.3 6.4-11.7 8.3-2.8 14.4-.8 17.1 5.5.7 1.9 1.8 3.6 2.4 4 1.5.9 1.2 4.5-.5 5.1-1.8.7-2 4.7-.4 7.6.9 1.8.8 2.4-.9 3.7-1.9 1.5-2.1 2.3-1.5 9.3.6 7.6.7 7.8 4.7 11 7.7 6.2 8.7 7.5 8 10.5-1.1 5.1-1.3 5.3-4.9 5.3-4.2 0-7.5 1.5-7.5 3.4 0 .7.9 4.2 2 7.7 4.5 14.9 11.3 37.6 11.7 39.5.3 1.3-.1 2.3-1.1 2.7-1.5.6-2.4 0-4.9-3.5-.7-.9-2.4-2-3.8-2.3-2.4-.6-2.7-.4-3.3 3.4-.5 3.4-.2 4.8 2 8.1 1.5 2.2 3.4 4 4.2 4 1 0 1.3.3.6 1-.8.8-9.4 2.4-49.4 9.1-16 2.6-38.3 3.7-40.5 1.9-1.3-1.1-1.5 4.2-1.5 50.9V384h195.5l5.7-5.4c3.9-3.6 7.4-8.5 11.1-15.2 9.6-17.6 12.4-21.7 24.2-35.4 6.3-7.4 11.5-13.9 11.5-14.3 0-.5-1-.5-2.2-.1-1.3.4-8.4 2.7-15.8 5l-13.5 4.3.1 5.8.1 5.8-1.3-3.8c-.7-2.1-1-4.5-.7-5.4.5-1.4.1-1.5-3.3-.7-2.1.5-6.3.9-9.2.9-4.5 0-5.7-.4-7.3-2.4-2.8-3.4-1.4-4.4 9.9-7.6 11.4-3.2 12.6-4 9.5-6.3-4.2-3.2-1.5-8.3 3.6-6.7 2.7.8 3.4 3.4 1.6 6.1-.9 1.4-1.1 2.4-.5 2.4 1.4 0 35.2-12.5 38.9-14.4 3.1-1.6 8.7-10.5 7.4-11.6-.5-.4-2.3-1.2-4.1-1.8-2.7-.9-3.8-.8-6.4.8-3 1.8-3.4 1.8-5 .3-1-.9-1.8-2.9-1.8-4.4 0-2.5-.6-3-5.1-4.6-12.4-4.3-34.4-14.1-34.7-15.4-.1-.8.4-2.3 1.2-3.4 1.4-1.9 1.5-1.9 6.7.7 7.4 3.6 17.2 7.6 24.9 10.3 3.6 1.3 7.2 2.6 8.2 3 1.1.4 1.8 0 2.3-1.4.8-2.6 5-3.8 7-2.1.8.7 1.5 2.3 1.5 3.5 0 1.8 1.1 2.6 5.7 4.4l5.7 2.2 4.8-4.8c2.7-2.6 5.8-6.6 6.9-8.7l2.1-4-2.8-2.3-2.8-2.2 2.7-5.3c1.9-3.8 2.8-7.6 3.3-13.8.4-4.7 1.3-9.7 2-11.2 1.3-2.6 1.2-3-2.1-7.4-1.9-2.5-3.5-5.5-3.5-6.7s1.4-4.6 3-7.5l2.9-5.3-2.9-1.7c-2.1-1.2-2.8-2.2-2.4-3.5.8-2.7-2.4-5.8-5.3-5.2-1.8.3-3.3-.4-5.3-2.6-1.6-1.6-3.4-2.9-4-2.9-1.1 0-.6-5.5 1.1-12 .5-1.9.9-3.9.9-4.3 0-1.5-69.7 1.2-100.9 3.9-10.1.8-22.2 2.2-27 3.1-13.6 2.4-14.5 2.3-14.9-1.2-.6-6.6 10.2-10 36.8-11.5 9.6-.5 20-1.2 23-1.5s24.8-1 48.3-1.5c38.2-.7 43.1-1 45.5-2.6 1.5-1 3.2-2.3 3.7-2.9.6-.7 3.7-1.7 7-2.4s8.3-2.2 11-3.3c8-3.2 11.3-3.9 15.8-3.6l4.2.3v5.8c0 5 .4 6.2 2.4 7.8 2.8 2.3 4.9 2.4 7.2.3 1.6-1.4 2-1.4 4.8 0 3.1 1.7 10.8 2.8 17.2 2.6 4.6-.1 8.5 3 9.8 7.7 1.1 4 .3 21-1 21.9-.8.5-6.9-17.3-6.9-20.1 0-3.4-10.5-4-11.8-.6-.3.9-1.7 3.1-3 4.9-2.1 2.8-2.3 3.6-1.3 6 .7 1.6 1.1 4.9 1.1 7.3-.1 2.4.2 6.5.6 9.2.6 4.2.3 5.2-2.2 8.8-1.5 2.3-5.5 6.5-8.7 9.4l-5.9 5.2 1.2 22.4c.7 12.3 1.5 23.1 1.9 24 .6 1.6 8.9-1.8 39.3-15.9 2.6-1.2 5.1-2.2 5.5-2.2 1.1 0 5.3 8.4 5.3 10.4 0 .8-8.2 4.8-20.7 10.1-33.5 14.2-33.6 14.2-32.8 16.2.4 1 1.3 3.9 2.1 6.4l1.4 4.6 12.2 3.6c15.2 4.5 31.3 8.8 44.2 11.8 10.1 2.4 12.2 3.9 9 6.5-3.5 2.8-18.5 1.2-37.9-4-9.3-2.5-18-5-19.2-5.5-5.8-2.6-2.4 3.9 7.7 14.4 4.2 4.4 10.9 11.9 14.8 16.6 3.9 4.8 8.9 10.1 11.1 11.9 3 2.3 4.1 3.9 4.1 5.8 0 3.4-2.9 9.8-6.1 13.6-8.1 9.7-8.8 10.2-13.5 10.5-.7.1-2.2 1-3.5 2.1-2.4 1.9-2.1 1.9 79.4 2H512V0H315.7l6.4 4.2c8 5.3 21.4 18.7 34.6 34.4 18.5 22.1 27.1 28.5 49.1 36.3 12.1 4.4 17 6.7 22 10.4 2 1.5 4.2 2.3 5.5 2.1 1.7-.3 1.8-.3.5.3-1.5.7-1.3 1.3 1.8 5.3 4.7 5.8 6.8 10 5.3 10-.6 0-4.4-3.1-8.4-6.9-8.2-7.7-11.2-9-27-11.7-13.6-2.2-23.5-5.5-32.9-10.8-12-6.9-17.4-11.5-38.1-32.1-11.3-11.4-20.6-19.8-22.9-20.9-4.9-2.3-11-2.2-20.6.4-9.8 2.6-22 2.6-27.5.1-2.2-1-5.5-3.1-7.4-4.7C252.3 13.2 246 3.9 246 1.5 246 .2 233.4 0 123 0H0zm336.7-135c-.3.3-1.2.4-1.9.1-.8-.3-.5-.6.6-.6 1.1-.1 1.7.2 1.3.5m126.3 17c0 .8-.7 1.4-1.5 1.4-1.5 0-2.1-2.1-.9-3.3 1-.9 2.4.2 2.4 1.9m16.8 83.4c1.7 1.1 3.2 2.4 3.2 3 0 1.5-1.6 1.2-3.1-.7-.8-.9-2.7-2.2-4.4-2.9-2.3-1-2.5-1.3-1-1.4 1.1 0 3.5.9 5.3 2M288 109c0 .5-.4 1-1 1-.5 0-1-.5-1-1 0-.6.5-1 1-1 .6 0 1 .4 1 1m201 123.5c0 .8-.7 1.5-1.6 1.5-1.4 0-1.4-.3-.4-1.5.7-.8 1.4-1.5 1.6-1.5s.4.7.4 1.5"/><path d="M67.5 262c-.8 1.3 4.8 7 7 7s3-2.6 1.7-5.6c-.9-1.9-1.9-2.4-4.6-2.4-1.9 0-3.8.5-4.1 1m154.9 112.7c-3.3 3.8-6.4 7.4-6.8 8-.6 1 4.6 1.3 24.6 1.2 16.1 0 24.5-.4 23.1-.9-1.3-.5-2.3-1.4-2.3-2 0-.5-.7-1-1.5-1s-1.5.5-1.5 1.1c0 1.8-6 .2-9.9-2.6-2.5-1.7-3.8-2.1-4.7-1.4-1.8 1.4-5.5-.6-4.8-2.6.4-1 0-1.5-1.1-1.5-.9 0-3.1-1.1-4.9-2.5s-3.5-2.5-3.7-2.5c-.3 0-3.2 3-6.5 6.7m53.4 9c.7.3 1.6.2 1.9-.1.4-.3-.2-.6-1.3-.5-1.1 0-1.4.3-.6.6"/></svg>