<svg xmlns="http://www.w3.org/2000/svg" width="682.667" height="512" version="1.0" viewBox="0 0 512 384"><path d="M0 138c0 131.2.1 138 1.8 137.2.9-.5 4.2-1.2 7.2-1.6s7.5-1.6 10-2.7c3.6-1.6 8.1-2.2 22.5-2.9 9.9-.5 18.1-1 18.2-1s.2-2 .1-4.5c-.1-5-.7-5.8-5.2-5.9l-3.1-.1.2-7.5c.1-4.1 1.3-15 2.7-24.1S57 208 57 207.6s-1.6-1.4-3.5-2.2c-4.3-1.8-5.3-3.8-3-6.4 1.7-1.9 2-2.8 5-15.5 1-3.9 2.3-9.1 3-11.8.8-3 .9-4.9.3-5.3-1.2-.8-.1-17.7 1.3-21.6 1.3-3.1 5.5-5.1 11.3-5.2 5.6-.1 9 2.3 11.9 8.4 2.4 5 2.4 5.1.5 7.5-1.5 1.9-1.7 3.3-1.2 6.1.5 2.6.3 3.9-.7 4.4-1.1.7-1.1 1.9-.1 6.8.7 3.2 1.2 6.9 1.2 8.3 0 1.7 1.5 3.7 5.3 6.7 2.8 2.4 5.8 4.7 6.6 5.2 1.2.7 1.3 1.3.3 3.5-.7 1.4-.9 3.7-.6 5.1.7 2.6-.5 3.1-3.7 1.3-2.4-1.2-5.6-.4-6.8 1.9-.9 1.8 3.3 25.3 7.8 43.1 1.2 4.6 2.1 8.8 2.1 9.2 0 1.6-3.4.9-5.5-1.1-1.2-1.2-3.5-2.2-5.1-2.3-2.6-.2-2.9.1-3.2 3.3-.2 2.9.4 4.2 3.4 7.3 2 2.1 3.5 3.9 3.3 4.1s-2.4 1-4.9 1.9c-5.7 2.1-13.4 3.3-28.5 4.7-6.6.6-15.8 1.8-20.4 2.6-4.6.9-14 1.7-20.7 1.7l-12.4.2V384h194.5l5.8-5.5c4.5-4.2 6.9-7.7 10.8-15.6 6.1-12.4 9-16.7 16.9-25 3.5-3.7 6.5-8 7.2-10.1.6-2 3.4-6.8 6.3-10.5 2.9-3.8 5.6-7.9 5.9-9.1.7-2.1.6-2.1-6.1.7-3.7 1.6-12.1 4.8-18.7 7.2-6.5 2.3-12.4 4.8-13.1 5.6-1 .9-1.1 2.2-.5 4.3.5 1.7.5 3 0 3s-1.1-1.4-1.5-3.1c-.7-3.1-.8-3.1-4.9-2.3-7.3 1.4-11.1 1-14.4-1.6-1.7-1.4-3-3.1-2.9-3.9.1-.7 5.2-3.2 11.2-5.5 13.4-5 14-5.3 12.4-7.2-.8-1-.8-1.4 0-1.4.6 0 1.1-.9 1.1-2.1 0-1.1.5-1.7 1-1.4.6.3 1 .1 1-.4 0-2.6 5.2-.1 6.2 3 .3 1 8-2.1 26.9-11 7.6-3.5 8.8-4.5 10.2-7.8 1.7-4.4 1.5-4.8-3.4-6.1-3.1-.8-3.9-.7-5.3.9-.9 1.1-2.3 1.9-3.1 1.9-2.2 0-6.5-4.5-6.5-6.7 0-1.5-1.9-2.5-8.2-4.5-14.3-4.5-29.2-9.9-31.5-11.4-2.6-1.6-2.9-3.6-1-5.3 1-.8 6.4.6 21.7 5.6l20.3 6.7 1.9-2.7c2.8-3.8 5.8-3.4 8.9 1.1 2 2.7 3.9 4 7 4.9l4.4 1.2 3.8-4.2c5.6-6.3 9.7-15.6 7-15.7-.5 0-1.6-.7-2.6-1.4-1.7-1.4-1.7-1.7.9-6.8 1.5-2.9 4.2-10 6.1-15.8l3.3-10.4-4.5-3.9c-4.1-3.5-4.5-4.3-4.5-8.4 0-3.6.6-5 2.9-7.4 1.6-1.6 3.7-2.9 4.5-2.9 2.6 0 1.9-1.5-2.8-5.8-2.8-2.5-4-4.4-3.4-5 1.1-1.1-1.9-4.5-3.3-3.6-.5.3-1.2-.2-1.5-1-.3-.9-1.1-1.3-1.6-1-.6.4-2.5-.9-4.3-2.9s-3.5-3.4-3.8-3.1c-.6.7 2-13.3 2.8-14.5.6-1.1-4.3-2.6-29-8.5-36.1-8.6-49.1-11.4-77-17-10.5-2.2-14-2.8-23-4-5.4-.7-12.5-2.9-13.5-4.1-.6-.8-1-2.4-.8-3.7.3-2.2.7-2.3 7.3-2.1 8 .2 22.1 3.1 50.3 10.4 10.8 2.8 21.3 5.4 23.2 5.9 1.9.4 14.5 3.8 28 7.5s27.5 7.5 31.1 8.3l6.6 1.5 3.2-2.8c7.3-6.5 17-10.1 24.8-9.2 17.5 2.1 26.7 4.3 30.8 7.3 1.6 1.2 1.7 1.7.7 3.2-2.7 3.7-2.5 4.4 1.9 8.3 2.4 2.1 5 3.9 5.7 3.9.6 0 1.2.7 1.2 1.5 0 .7.8 1.8 1.7 2.4 1.4.8 1.5 1.2.4 2.5-1.5 1.8-.3 2.4 8.6 4.6 6.7 1.5 11.7 6.4 16.2 15.5 1.8 3.7 3 6.9 2.7 7.2-.5.6-10.4-6.7-15.9-11.7-4.1-3.7-10-7-12.5-7-1.9 0-4.1 3-4.2 5.6 0 1.2.7 3.5 1.5 5 .8 1.6 1.5 4.3 1.5 6 0 3.5-5 11.6-8.7 14.2-8 5.5-7.5 4.4-7.4 18.9.2 13.2 1.4 27.9 2.5 29 .8.9 5.1-1.1 23.8-11.3 9.5-5.2 17.7-9.4 18.3-9.4 1.2 0 8.5 10.7 8.5 12.5 0 .6-11.8 6.9-26.2 14-14.5 7.1-26.5 13-26.7 13.2-.2.1.5 2.4 1.7 5 1.6 3.9 2.7 5 5.7 6.1 3.9 1.3 43.1 9.3 55.3 11.2 6.8 1.1 7.4 1.4 8.6 4.3 2.1 4.9.7 5.7-10 5.7-8.6 0-35.1-4.5-47.1-7.9-2.7-.8-3.3-.7-3.3.5 0 .8 9.4 11 21 22.6 14.3 14.5 21.1 22.1 21.6 24.1.7 3.2-.9 7.7-4.3 12.3-1.3 1.7-2.3 3.6-2.3 4.2 0 1.3-5.8 6.2-7.4 6.2-.7 0-2.2 1.1-3.4 2.5-2.2 2.5-3.4 2.9-8.5 2.5-3-.2-9.7 3.5-9.7 5.3 0 .7.3 2.2.6 3.4l.6 2.3H512V0H320v2.5c0 3.6 2.3 6.7 8.3 11.3 7.9 6 18.9 17.4 29.7 30.8 16.4 20.2 25.5 27 44.2 32.9 4.9 1.6 9.4 3.5 10 4.3 2.1 2.5-15.8 1-25.7-2.2-12.8-4-20.5-10-43.5-33.1C324.7 28 317.5 22 313.9 22c-.6 0-3.4 2-6.1 4.5-6.2 5.5-13.5 8-21.8 7.2-11-1-17-6-22.7-18.9-1.7-4-4.2-8.1-5.5-9.1-1.3-.9-5.4-2.6-9.3-3.7-6.8-1.9-10.1-2-127.7-2H0zM455.8 29.7c-.4 2.2-2.2 2-2.6-.1-.2-1 .3-1.6 1.3-1.6s1.5.7 1.3 1.7M430.1 100c1.6.9 2.8 4 1.4 4-1.6 0-5.5-2.6-5.5-3.7 0-1.6 1.4-1.7 4.1-.3M275 113c0 .5-.7 1-1.5 1s-1.5-.5-1.5-1c0-.6.7-1 1.5-1s1.5.4 1.5 1m19 14.4c0 1.1-1.9 1.5-2.5.6-.3-.5.1-1 .9-1 .9 0 1.6.2 1.6.4m188 114.1c0 .8-.7 1.5-1.5 1.5-1.6 0-2-1.2-.8-2.3 1.1-1.2 2.3-.8 2.3.8"/><path d="M67.3 256.6c-.7.3-1.3 1.1-1.3 1.7 0 1.5 5.1 8.7 6.1 8.7.5 0 .8-2.4.6-5.3-.2-4.4-.5-5.2-2.2-5.4-1.1-.1-2.6.1-3.2.3M228 365.7c0 .5-2.9 4.2-6.5 8.3-3.5 4.1-6.4 8.1-6.5 8.7 0 1 10.6 1.3 49.9 1.3 45.7 0 49.9-.1 50.5-1.7 1.3-3.4-3.3-4.2-10.4-1.7-4.6 1.6-11.2 1.3-13.6-.7-.9-.7-2.2-.5-4.5.7-2.6 1.3-3.7 1.4-5.1.5-1-.6-2.3-.9-2.9-.5-.5.3-2-.1-3.2-.9-1.9-1.2-2.7-1.3-4.6-.3-2.5 1.4-6.8 1-8.9-.7-.7-.6-3.3-.9-5.8-.9-3.2.2-4.6-.2-5-1.3-.4-.8-1.1-1.5-1.6-1.5-1.9 0-15.3-6.7-16.7-8.3-1.3-1.7-5.1-2.4-5.1-1"/></svg>