<svg xmlns="http://www.w3.org/2000/svg" width="682.667" height="512" version="1.0" viewBox="0 0 512 384"><path d="M0 137.4v137.4l2.8-.8c1.5-.5 5.2-1.3 8.2-1.9 3-.5 7.3-1.6 9.5-2.5 2.6-1 7.8-1.6 15-1.7 6.1-.1 13.9-.4 17.5-.8l6.5-.6.3-3.8c.4-4.9-1.1-6.7-5.6-6.7h-3.5l.6-7.7c.3-4.3 1.8-15 3.2-23.8 1.3-8.8 2.5-16.3 2.5-16.7 0-.5-1.7-1.6-3.7-2.5-4.2-2-5.2-4.6-3-7.1.8-.9 1.7-3.1 2-4.7.3-1.7 1.2-5.5 2-8.5 4.4-16.4 4.8-19.2 3-20.5-1.1-.8-1.4-1.8-.9-3.1.4-1 1.1-5.4 1.6-9.7.9-9.2 2.3-11.2 9-12.6 7.5-1.6 13 1.1 14.5 7.2.4 1.6 1.4 3.1 2.1 3.4 2 .7 1.7 2.7-.6 4.8-1.5 1.4-1.8 2.6-1.3 6 .3 2.6.1 4.5-.6 4.9-1.4.9-1.5 5.3-.1 6.1.6.3 1 2.4 1 4.6 0 3.7.6 4.7 7.1 11.2 6.3 6.2 7 7.3 6 9-.7 1-.9 3.1-.6 4.8.6 2.5.4 2.9-1.4 2.9-1.1 0-2.3-.5-2.6-1-1-1.6-4-1.2-5.8.7-1.4 1.6-1.4 2.9.3 14.4 2.4 16.3 3.6 22.7 5.9 31.7 2.2 8.2 1.6 9.4-3.5 6.7-4-2-7.1-1.9-8.4.4-1.5 3-1.2 4 1.5 5.3 1.4.6 3.2 2.1 4 3.4 1.4 2.2 1.4 2.4-3 4.3-3.1 1.4-9.5 2.5-20.7 3.6-9 .8-21.5 2.3-27.8 3.3-6.3.9-16.3 1.7-22.2 1.7H0V384h97.5c77.4 0 97.5-.3 97.5-1.3 0-.6 1.8-3.2 4-5.6 2.9-3.2 5-7 7.6-14.5 4.9-13.7 9.5-22.5 14.7-28.4l4.4-4.9.7-10.9c.4-6 1.3-14.1 2.1-17.9.7-3.9 1.6-8.7 2-10.8l.6-3.8-11.1 5.6c-6.1 3.1-11.3 6.2-11.6 7-.4.9-1.9 1.5-3.7 1.5-4 0-13.4 4.5-14.2 6.9-.3 1-.3 2.7.1 3.7.6 1.9.5 1.9-1 0-.8-1-1.7-2.3-1.9-2.9s-2.3-.3-5.5.7c-3.1 1.1-6.4 1.5-8.1 1.1-3.2-.7-8.4-5.2-7.8-6.8.1-.5 4.8-2.9 10.2-5.3 11.6-5.1 31.3-15.1 43.5-22 4.7-2.7 9.7-5.5 11.1-6.3 1.7-.8 2.9-2.5 3.3-4.3.8-3.9.4-4.4-4.1-5.1-2.9-.5-4.2-.2-5.9 1.4-2 1.9-2.4 1.9-5.1.6-1.6-.9-3.5-2.7-4.3-4.1-.9-1.8-2.7-2.9-5.4-3.6-14.9-3.7-31.6-8.4-34.6-9.9-2.6-1.2-3.5-2.2-3.5-4.1 0-2.1.4-2.5 3-2.4 1.7.1 9.3 1.8 17 3.8s16.6 3.9 19.8 4.3c4.9.5 5.7.4 5.7-1.1 0-.9 1.2-2.2 2.6-2.8 2.4-1.1 2.9-.9 5.8 2.4 2.1 2.3 4.8 4 7.5 4.8 4.3 1.1 7.7.7 6.7-.8-.3-.5.7-2.4 2.3-4.3 3.3-4.1 6.1-9.5 6.1-12 0-1-1.3-2.5-3-3.4l-3-1.6 2.5-4.3c1.4-2.4 3.9-7.9 5.4-12.2l2.9-7.9-2.3-2.7c-2.1-2.5-4.5-10.3-4.5-14.7 0-2.2 2.4-8 4.2-10.1.7-.8 2.6-2.4 4.2-3.4l2.8-1.8-4.6-4.7c-2.6-2.6-4.6-5.2-4.5-5.7.4-2.2-.3-3.2-2.4-3.8-1.2-.3-4-2.1-6.1-4.1-2.1-1.9-4.2-3.5-4.6-3.5-.5 0-.6-.9-.3-2 .4-1.6-.6-2.5-5.9-4.9-3.5-1.5-7.5-3.2-8.9-3.6-3.5-1.1-23-9.3-25.9-10.9-1.4-.8-5-2.4-8-3.6s-10-4.2-15.5-6.7c-17.6-8-20.5-9.3-21.5-9.3-.6 0-1.8-.4-2.8-1-.9-.5-6.4-3-12.2-5.6s-10.9-5.1-11.4-5.5c-.6-.5-1.8-.9-2.8-.9s-1.9-.6-1.9-1.3c-.2-2.4.3-5.2 1.2-6.3.5-.6.6-1.4.2-1.7-1.6-1.7 2.7-.4 10.6 3.2 6.5 3 56.1 27.4 105.4 51.9.4.2.7-.4.7-1.2 0-2.7 4.6-10.9 7.7-13.7 6.5-5.9 11.6-8.3 21.2-9.9 5.3-.9 5.5-.9 12 3.4 3.6 2.4 7.7 4.7 9.1 5.1 4 1.2 11.1 5.5 15.5 9.6 3.5 3.2 4.2 4.5 4.3 8 .2 4-.7 5.6-4 7.5-1.6.9-1.6 1.3.6 5.7 2.3 4.4 2.3 4.7.5 4.7-1.2 0-1.6.5-1.3 1.5.4.9 0 1.5-1 1.5-.9 0-1.6.4-1.6 1 0 1.8 4 3.1 7.4 2.4 1.9-.3 4.4-.3 5.6.1 1.7.5 2 1.2 1.5 3.5-.4 1.6-.2 3.1.5 3.5.6.4 1.5 1.7 2 2.9.9 2.4 11.4 7 18.3 7.9 5.3.8 12 4.4 16.3 8.8 4 4.1 3.3 4.9-2.1 2.9-1.5-.6-5.9-1.5-9.8-2.1-8.5-1.2-11.3-2.2-18.6-6.6-3-1.8-5.8-3.3-6.2-3.3s-1.6 1.3-2.5 2.9c-2.3 3.9-5.5 5.2-10.7 4.5-3.3-.5-4.7-.2-6.8 1.5-2.4 1.9-2.6 2.6-2.3 8.3.1 3.5.3 11.2.3 17.3.1 6 .5 11.7 1 12.4 1 1.6 7-1.7 29.5-16.2l10.8-7.1 3.4 4c1.8 2.1 4 5.2 4.8 6.8 1.4 2.9 1.4 3-3.2 5.9-2.6 1.7-13.5 8.2-24.2 14.5s-20 11.9-20.7 12.4c-1.8 1.4 2.1 8.6 5 9.3 4.3.9 23.3 3.4 38.2 5 28.7 3 27 2.7 27.1 5.5.1 1.4.5 3.2.8 4.1 1.9 4.4-16.4 4.7-44 .8-8.5-1.2-15.8-1.9-16.2-1.5-.8.8 9.3 10.6 26.4 25.6 15.1 13.3 22.4 20.7 22.4 23 0 .9-1.1 3.4-2.5 5.5-1.5 2-2.4 4-2.1 4.2.8.8-5.3 6.3-6.9 6.3-.8 0-1.5.6-1.5 1.4 0 1.6-2.1 2.6-5.8 2.6-2.5 0-7 1.9-4.7 2 1.6 0-5.4 4-7 4-1.8 0-2.2 2-3 13.7-.4 7.3-.2 9.8.9 11.5.8 1.3 1.8 4.2 2.2 6.6l.7 4.2H512V0H313.7L325 10.7c6.2 6 16.8 17.1 23.4 24.8 6.7 7.7 16.8 18.8 22.6 24.7 8.7 8.8 11.8 11.3 18 14.2 4.1 2 8.2 3.6 9.2 3.6 2.6 0 3.1 1.8.9 2.9-2.8 1.6-5.4 1.4-12.3-1-10.5-3.5-22.9-13.3-47.2-36.9-8.1-8-15.5-14.5-16.4-14.5s-2.1 1.6-2.8 3.9c-1.9 5.3-6 11.6-9.6 14.5-4.6 3.7-13.7 7-19.3 7.1-13.8 0-20.3-9.6-22.5-33.3-.5-5.4-1.5-12.3-2.2-15.3L265.5 0h-60.6l2.9 4.2c3.5 5.2 8.5 14.9 10.1 20 3.1 9.4 2.2 11.2-5.9 12.1-2.9.4-6.3 1.3-7.6 2.2-2.1 1.4-3.2 1.3-12.1-.6-23.7-5.1-40-11.6-46.5-18.7-4.5-4.8-9.4-12.7-10.3-16.5l-.7-2.7H0zM452.6 32.1c1 1.7-1.3 3.6-2.7 2.2-1.2-1.2-.4-3.3 1.1-3.3.5 0 1.2.5 1.6 1.1M409 96.8c3.1 2.5 1.9 4.5-1.8 2.9-3-1.3-4.3-2.7-3.6-3.9.8-1.3 3-.9 5.4 1M479 244c0 1.3-2.8 2.5-3.8 1.6-.3-.4 0-1.1.8-1.6 2-1.3 3-1.2 3 0"/><path d="M66.3 257.6c-.3.9.3 2.4 1.5 3.6l2 2L71 261c.6-1.2.9-2.8.6-3.6-.7-1.9-4.5-1.8-5.3.2m162.6 98c-1.8 3-6.2 9.8-9.6 15.1-3.5 5.2-6.3 10.3-6.3 11.4 0 1.8 1.4 1.9 45.9 1.9 45.2 0 45.9 0 45.4-2-.3-1 0-4.1.6-6.7.8-3.9.7-6.4-.7-12.8-1.7-7.7-1.9-8-4.5-7.7-1.5.1-3.7-.2-4.8-.9-1.8-.9-2.5-.7-4.6 1.5-1.9 2.1-2.8 2.4-4.3 1.6-1.2-.7-2-.6-2.2.1s-1.2.7-3.3-.1c-2.5-.9-3.1-.8-4.2.6-1 1.4-2.2 1.6-7.2 1-3.7-.4-6.2-.3-6.6.4-.8 1.2-4.5 1.4-4.5.1 0-.8-2.7-1.5-9.5-2.5-4.4-.6-8.5-2.4-8.5-3.7 0-.6-.9-.9-2-.6s-2.7-.1-3.4-.9c-.8-.8-1.6-1.4-1.8-1.4s-2 2.5-3.9 5.6"/></svg>