<svg xmlns="http://www.w3.org/2000/svg" width="682.667" height="512" version="1.0" viewBox="0 0 512 384"><path d="M0 40c0 26 .4 40 1 40s1.8-.9 2.8-2.1c.9-1.1 3.2-3.6 5.1-5.5 2.4-2.5 3.2-4 2.7-5.7-.4-1.6.1-2.7 1.7-3.7 1.2-.8 2.5-1.3 2.9-1.2s1-1.8 1.3-4.3c.9-5.9 3.2-6.3 16-3C46.8 58 62 66.3 72.3 75.9c7.6 7.1 18.1 23.6 20.5 32.2l1 3.7-3.7.6c-2 .3-4.9.6-6.4.6-1.6 0-4.2.8-5.7 1.7-2.7 1.6-3.3 1.5-11.7-.5-4.8-1.1-11.3-2.5-14.3-3.1-28.3-5-41.1-11.1-49-22.9l-3-4.5v95.2c0 93.8 0 95.2 1.9 94.1 1.1-.5 4.1-1 6.8-1 2.6 0 6.8-.9 9.2-2 3.3-1.6 8.2-2.3 20-3.1 22.6-1.4 22.3-1.4 21.9-5.1-.2-2.7-.9-3.3-3.6-4-1.8-.5-3.5-1.5-3.9-2.4-.3-.8.7-5.1 2.1-9.7 3-9.3 4.5-19.4 3.5-25-.3-2.1-.1-5.8.4-8.3 1.2-5 .3-6.4-4-6.4-2.3 0-6.3-3.5-6.3-5.5 0-.7.9-2 2-3s2-2.6 2-3.5c0-1 .7-3.4 1.5-5.3.8-2 2-6.5 2.5-9.9.6-3.5 1.3-7.7 1.6-9.4.5-2.6.2-3.2-1.6-3.7-1.7-.4-2.1-1-1.5-2.4.8-1.8 2.1-7.9 3-14.4.7-4.6 3.5-7.5 8.6-9 3.5-1.1 4.5-1 8.4.9 3 1.4 5 3.3 6 5.4.8 1.8 2 4.1 2.7 5 1 1.4.9 2.1-.9 4-1.8 2-2.1 3.2-1.7 9.8.6 12.2 2.2 16.6 8.1 21.4 2.8 2.2 5.9 4.6 6.9 5.2 1.7 1 1.7 1.2.1 4.6-.9 2-1.4 4.3-1.1 5.1.7 2-1.3 3.2-3.1 1.7-2.8-2.3-8.3 1.7-7 5.2.3.7 1.8 9.2 3.5 18.8 1.6 9.6 3.5 20.3 4.1 23.8 1.6 8.1.4 9.7-4.2 5.3-4.2-4-6.4-4-7.8.1-1.1 3.1-1 3.4 2.6 6.5 2.1 1.8 4.3 3.3 4.8 3.3.6 0-1.1 1.1-3.7 2.5-4.9 2.5-24.5 5.5-36.1 5.5-3.1 0-11.4.9-18.4 2.1-7.8 1.2-15.9 1.9-21 1.7l-8.3-.3V384h95.3l95.2-.1 3.3-6.7c2.7-5.6 3.4-8.5 4.3-18.2 1.1-12.7 3.1-22.6 5.4-27 .8-1.6 1.5-3.1 1.5-3.4 0-.5-4.9-2.9-8.3-4-1-.3-2.6-2.6-3.7-5-1-2.4-2.6-4.8-3.5-5.4-3.9-2.1-4.8-22.7-1.4-31.7 1.2-3.1 1.9-5.8 1.7-6s-4.5 1.9-9.6 4.6c-9.9 5.4-10.9 7-7.6 11.7.9 1.3 1.4 2.5 1.1 2.8-.6.6-3.2-3.4-4.1-6.3l-.7-2.2-5.5 2.5c-5.3 2.3-11.9 3.1-13.9 1.6-.5-.4-1.6-1.5-2.3-2.4-1.2-1.5-.1-2.3 10.6-7.8 8.3-4.2 12.1-6.7 12.5-8.1s1-1.8 1.8-1.3c.9.5 1 .2.6-1-.4-.9-.3-1.5.2-1.1.5.3 1.1 0 1.3-.6.3-.9.9-.9 2.4-.1 1.8.9 3.8.1 13.4-5.7l11.4-6.9 4.1-8.6c2.3-4.7 3.9-8.8 3.7-9.1-.3-.3-2.1-.5-4-.5-2.3 0-4 .7-5.2 2.3-1.5 1.8-2.2 2-3.7 1.1-1-.6-1.9-2.3-2.1-3.7-.3-2.3-.9-2.7-5-3.3-4.7-.6-27.4-4.4-38.9-6.5-6-1.1-6.3-1.3-6.3-3.9 0-1.6.4-3.1.8-3.4.5-.3 6.4.6 13.3 2 12.2 2.4 31.5 5.4 35.1 5.4 1 0 2-1 2.4-2.5 1.2-4.7 7.4-3.8 7.4 1.1 0 .9 7.6 3.4 10.4 3.4.1 0 1.9-2.4 3.9-5.3 2.4-3.4 3.9-7 4.3-10 .8-5.6.1-6-8.9-6.1-5.3-.1-6.2-.4-8-2.8l-2.1-2.8 3.2-9.2c2.3-6.4 2.9-9.4 2.1-9.9s-.8-1.2 0-2.7c.7-1.2.9-3.8.5-6-.6-4.1.5-7.2 6.4-17.7 5.3-9.4 6.7-11.5 7.9-11.5 3.9 0 .8-2.9-11.3-10.7-27.5-17.7-65.1-43-72.9-48.9-8.5-6.5-15.2-13.1-12.3-12.1.9.3 13 8.1 27 17.3 38.3 25.3 60.2 39.4 61.3 39.4.3 0 .5-.9.5-2.1 0-1.5-.5-1.9-1.5-1.5-.9.3-1.5 0-1.5-.9 0-.8-1.1-2.6-2.5-4-3.4-3.7-4.3-10.5-2-15.5 5.9-13 24.9-22.1 37.6-18 3.5 1.2 4.4 1.1 7.7-.5 2.1-1 6.9-2 11.3-2.3 7.1-.4 7.8-.3 8.8 1.7.7 1.3.9 4 .5 6.9-.6 4.8-.5 4.9 3 7 4 2.4 4.5 4.7 1.8 8.3-1 1.3-3.4 5.2-5.2 8.7s-4.2 6.8-5.2 7.3c-1.6.8-1.7 1.8-1.1 6.7.6 5.5.5 5.6-1.2 4.2-1.1-.9-1.6-1-1.1-.3.5.9-.1 1.3-1.8 1.3-1.4 0-2.6.4-2.6.8 0 .5-2.4 1.4-5.2 2.2l-5.3 1.3 3.3 1.4c1.7.7 3.2 1.9 3.2 2.6 0 1.2 12.2 6.7 14.8 6.7 2.3 0 7.2 5.4 8.3 9.1.7 2.1 2 4.6 3.1 5.5 1 1 1.8 3.1 1.8 4.9 0 3.3 0 3.3 12 9.7 2.5 1.3 5.5 3 6.6 3.8 1.9 1.2 2.5 1 5.2-.9l3-2.1 3.7 4.4c2 2.5 3.4 4.9 3.1 5.4s-2.4 2.2-4.8 3.8c-4.4 2.9-10 7.3-12.9 9.9-.9.8-2.2 1.5-3 1.5s-7.8 4.3-15.6 9.6l-14.2 9.6 1.9 3.9c1.6 3 2.7 3.9 5.2 4.3 6.5 1 27.7 2.6 49.8 3.7 12.4.6 22.9 1.5 23.4 1.9 1.3 1.3-.3 3.1-4.2 4.7-5.7 2.4-19.1 2.6-44.1.9-12.8-1-23.6-1.4-23.9-1.1-2.7 2.7 23.4 33 38.4 44.6 6.2 4.8 6.8 7.1 2.9 11.7-1.4 1.7-2.5 3.4-2.5 4 0 1.2-5.7 6.2-7.1 6.2-.5 0-1.8.9-2.9 2-1.2 1.2-3.3 2-5.3 2-1.9 0-4.3.8-5.5 1.8-1.1.9-3.4 2.4-5 3.3l-3 1.7 1.4 5.2c.8 2.9 1.7 12.8 2 21.9.4 10.9 1.1 17.1 1.9 18.1 2.1 2.6 4 9.3 2.6 9.8-.6.2-1.1 1.7-1.1 3.3v2.9h220V0L403.8.1 295.5.2l7.4 1.9c4.1 1 9.7 3 12.5 4.3s6.9 2.9 9.1 3.6c10.3 3.3 15.1 7.8 20.5 19.5 3.5 7.4 8 14.3 13.6 20.5 1.2 1.4 4.4 5 7 8s5.8 6.6 7.1 8c3.5 3.8 3.1 5-1 2.9-3.2-1.7-7.3-5.2-15.8-13.5-4.2-4.1-8.3-7.4-9-7.4-.8 0-2.4 2.1-3.6 4.7-3 6.6-9.5 13.1-16.2 16.1-8 3.7-18.6 3.8-25.6.1-4.3-2.2-5.5-3.5-8.7-9.6-2-3.9-4.4-10.6-5.4-14.9-1.5-6.9-1.5-8.6-.4-13.9.7-3.3 1.2-6.8 1.2-7.9-.2-3.3-3.2-5.6-7.4-5.6-7.9 0-12.8-5-12.8-13V0H0zm445-1c0 1.2-2.9 2-3.5 1-.9-1.5.4-3 2-2.3.8.3 1.5.9 1.5 1.3m-70.4 56.1c1.2 1.4 1.4 2.3.7 3-1.2 1.2-4.1 0-6.2-2.5-3.1-3.7 2.2-4.1 5.5-.5m26.9-1.1c.3.5-.1 1-.9 1s-1.8-.5-2.1-1c-.3-.6.1-1 .9-1s1.8.4 2.1 1m88.9 3.9c.7 1.1-3.8 3.1-6.9 3.1-3.6 0-3.1-1.8.8-2.9 4.2-1.2 5.5-1.3 6.1-.2M284.5 135c.3.6-.1 1.3-1 1.6-1.9.8-3 0-2-1.5.8-1.4 2.2-1.4 3-.1M471 248.9c0 .5-.6 1.4-1.4 2-1.1.9-1.6.9-2.1 0-.4-.6-.1-1.5.6-2 1.8-1.1 2.9-1.1 2.9 0"/><path d="M259.6 180.7c.6 6.1 1.4 9.5 5.7 23.7 1.1 3.6 1 3.9-1.6 6.2-2.8 2.4-3.4 3.9-1.8 4.8 1.1.7 33.1-20.7 34.4-22.9 1.2-2.2-.1-3.5-9.3-9.5-7.2-4.5-8.4-5-13.7-5-3.9 0-7.2-.7-9.8-2-2.2-1.1-4.1-2-4.3-2s0 3 .4 6.7M68 259.8c0 1.5 2.8 4.7 3.5 4 1.1-1.1-.5-4.8-2.1-4.8-.8 0-1.4.4-1.4.8m197.9 67.6c-.2.3-3.8 1-7.9 1.6s-10.6 1.6-14.5 2.2c-3.8.6-10.1 1.1-13.9 1.2-8.2.1-6.9-2-15.3 24.6-4.4 13.9-5.8 19.6-5.5 22.8l.4 4.2h34.4c29.4 0 34.4-.2 34.4-1.5 0-.7-.7-1.8-1.7-2.3-1.3-.8-1.5-2-1-7.1.3-3.8 0-8.1-.9-11.4-.7-2.8-2.5-11-3.9-18.2-2.7-13.5-3.7-17-4.6-16.1"/></svg>