<svg xmlns="http://www.w3.org/2000/svg" width="682.667" height="512" version="1.0" viewBox="0 0 512 384"><path d="M0 137.1c0 103.2.3 136.8 1.2 136.3.6-.4 4.8-1 9.2-1.5 4.5-.4 10.1-1.6 12.6-2.8 3.1-1.4 6.6-2.1 11-2.1 3.6 0 10.8-.5 16.2-1.2l9.6-1.2.5-4c.5-5.1.2-5.6-3.2-5.6-4.5 0-5.6-2.2-3.3-6.7 2.7-5.3 4.7-12.4 7.8-28.3 2.4-12.8 2.5-13.5.8-14.7-1-.7-3-1.3-4.6-1.3-2.6 0-6.8-3-6.8-4.8 0-.5.9-1.7 2-2.7s2-2.5 2-3.4.9-4.1 2-7.1 2-6.4 2-7.6.7-4.5 1.7-7.3c1.6-5 1.6-5.2-.5-7.4-1.7-1.8-1.9-2.6-1-3.5.6-.6 1.3-4.6 1.4-8.8.2-6.8.5-7.9 3.1-10.6 4.3-4.5 5.6-5 10.8-3.6 4.8 1.3 5.6 1.9 10.2 7.7 2.6 3.2 2.6 3.5 1.1 6.1-1.2 2.2-1.4 4.3-.8 10.6.4 4.3 1.3 9.2 1.9 10.7.6 1.6 1.1 4.4 1.1 6.3 0 3.6 3.3 7.6 10.3 12.6 3.3 2.4 3.3 2.8.1 7.5-2 3-3.1 3.7-5.1 3.5l-2.6-.4.7 10.4c1.3 18.4 2.5 27.3 5 34.9 1.3 4.1 2.2 7.7 1.9 8.1-.9 1.6-4.7.7-6.9-1.7-3.1-3.4-4.1-3.2-4.8 1-.6 2.9-.2 4.1 2 7 1.4 1.9 3 3.5 3.5 3.5s.9.4.9.9c0 1.6-12.3 3.8-38 7-4.1.5-13.8 1.9-21.5 3.1-9.3 1.4-17.3 2-23.8 1.8l-9.7-.3V384h187.6l1.7-5.8c1.6-5.2 1.6-6.5.2-16.2-1.9-13.5-1.9-26.2 0-35.6 1.7-7.8 1.4-9.4-1.3-9.4-.9 0-3.3-1.2-5.3-2.6-7.9-5.5-9.1-16.4-5.1-48.9 1.6-12.7 2.7-23.1 2.6-23.3-.3-.6-46.9 15.3-47.6 16.2-.4.6 0 2.5.7 4.3.8 1.8 1 3.3.5 3.3s-1.5-1.8-2.1-4c-1-3.1-1.6-3.9-2.8-3.4-8.4 3.5-16.3 2.7-19.1-1.9-1.1-1.7-1.6-3.4-1.2-3.8s4.8-1.8 9.7-3.2c15.8-4.5 17-5.4 11.5-8.5-1.6-.9-3.2-2.3-3.5-3-.8-2 1.8-5.2 4.2-5.2 3.8 0 7 4.8 4.3 6.5-1.5.9-1.2 2.5.6 2.5.9 0 1.2.5.8 1.2-.5.7-.2.9.9.5.9-.3 3.4-1.1 5.7-1.7 2.2-.6 11.8-4 21.3-7.6 20.5-7.8 22.5-9.4 14-11.3-4.6-.9-4.9-.8-7 1.7-2.2 2.6-2.3 2.7-3.5.7-.7-1.1-1.3-2.9-1.3-4 0-1.6-1.1-2.2-6-3.3-6.1-1.3-41.5-9.9-44.8-10.9-1.4-.3-1.7-1.3-1.5-3.6.3-2.9.6-3.2 3.3-3 1.7.1 10.6 2.2 20 4.6 9.3 2.5 17.3 4.3 17.7 4 .5-.2.8-2.1.8-4.1 0-4.2 2.1-12.6 4-16.2.7-1.4 2.5-3.9 4-5.6 2.8-3.2 16-24.9 16-26.2 0-.4-.9-1.8-2-3.2-2.9-3.7-2.7-10.7.6-15.6 3-4.6 6.2-7.3 8.5-7.4.9 0 2.1-.6 2.6-1.3.8-.9-.2-2.2-3.3-4.7-2.3-1.9-4.3-4.2-4.3-5-.1-1.1-.4-1.1-1.3-.2-2 2-2.7 1.4-3.3-3.6-.9-6.8-1.5-8.2-2.5-5.7l-.9 2-.1-2c0-1.1-.9-3.1-2-4.5s-2-3.5-2-4.7c0-5.1-2-8.2-8-12.3-1.9-1.3-3.7-2.8-4-3.2s-3.1-2.7-6.1-5C139.3 71.1 124 58.7 124 58.1c0-.4-1.6-1.5-3.5-2.5s-3.2-2.3-2.9-2.7c.3-.5-.2-.9-1-.9-.9 0-1.6-.3-1.6-.8 0-.4-1.1-1.4-2.4-2.2-8.2-5.1-35.5-32-41.7-41.2-4-5.8-4.1-6-1.3-4.1 1.6 1.2 3.8 3 4.9 4S83 15.1 91 22c8 6.8 14.7 12.7 15 13 1 1.2 51.6 43.6 59.8 50.1l5.3 4.2 5.2-5.5c7.4-7.8 12.2-10.1 22.7-10.5 6.9-.4 9.2-.1 12 1.4 3.1 1.6 4.1 1.7 7.5.7 8.6-2.6 25.7-.6 27.2 3.2.3.9-.2 3.1-1.1 5-2.1 4.5-2 7.6.2 10.5 1 1.3 1.8 2.9 1.7 3.6 0 1.9-15.3 17.3-17.1 17.3-1.4 0-1.6.9-1.2 5.5.4 4.1.1 5.5-.9 5.5-2 0-1.6.8 2.2 4.1 2 1.8 3.9 4.7 4.5 6.9.8 3 2.5 4.9 8 9.1 3.8 2.9 8.1 6.9 9.4 8.9s4.7 5.9 7.7 8.8c2.9 2.8 5.1 5.4 4.8 5.6-.2.3-3.5-.8-7.2-2.4-7.4-3.1-15.4-9-16.7-12.4-.4-1.1-2.2-3.4-3.8-5-3-2.8-3-2.8-4.1-.7-1.4 2.4-6.1 5.1-9.2 5.1-1.6 0-1.9.4-1.4 1.7.4 1 1.8 6.5 3.1 12.3 1.2 5.8 3.7 13.6 5.4 17.4 3 6.6 3.1 7.1 1.4 8.3-1 .7-2.1 1.3-2.6 1.3-2.1 0 1.6 10.9 3.7 11 1 0 30.7-12.9 46.9-20.4 4.3-2 8.2-3.6 8.6-3.6.9 0 5.3 10 4.7 10.6-.2.3-12.3 5.6-26.8 12-14.5 6.3-26.4 11.6-26.6 11.8-.6.5 2.6 7.4 3.7 8.1 1.6 1 33.7 6.2 52.5 8.5 8.8 1.1 17.9 2.3 20.3 2.6 5.3.7 5.6 2.9.5 5.1-5.2 2.2-24.1 1.2-48.8-2.6-10.4-1.6-19.2-2.6-19.5-2.4-.7.7 7.7 16.1 11.9 21.6 2 2.6 7.4 9.5 12 15.3 7.5 9.5 8.2 10.9 7.7 13.7-.4 1.8-.6 4.5-.6 6.1.1 3.2-1.7 5.9-3.3 4.9-.7-.4-.8 0-.4 1.1.5 1.3.1 1.9-1.2 2.3-1.1.3-2.7 1.6-3.6 2.9-1.6 2.5-8.7 6.4-11.5 6.4-.9 0-2.5.9-3.4 1.9-1.6 1.7-1.6 2.2-.3 4.8 3.2 6.2 5.7 16.9 7.2 31 1 9.7 2 15.2 3 16.3 2.5 2.7 3.9 7.8 2.6 9.4-.7.8-.9 3.1-.5 6l.7 4.6H512V0h-58.9l.6 4.9c.7 6.4-1.2 14.1-5.4 21.2-3.9 6.8-9.6 12-17.5 16-3.2 1.6-5.8 3.6-5.8 4.4 0 1.9-2.6 2-3.7.1-.5-.8-3.5-1.5-8.3-1.8-4.2-.3-12.5-2-18.8-3.9L383 37.6l-11.3 1.2c-6.1.7-15.5 1.9-20.7 2.7-13.1 2-30.3 2-37-.2-7.1-2.3-13.4-8.2-21.8-20.6-9-13.2-9.5-13.6-13.3-11.3-2.5 1.5-3.3 1.5-5.6.4-2.4-1.2-2.8-1.9-2.8-5.6V0H0zm325.3-39.9c3.3 1.7 4.7 4 3.5 5.5-1.7 2.1-4.5 1.5-6.7-1.3-3.7-4.7-1.9-7 3.2-4.2m54.9 2c-.9.9-1.5.9-2.4 0-1-1-1-1.5.2-2.2 2-1.2 3.8.6 2.2 2.2m50.3 16.8c-1.7 1.9-7.4 2.8-8.8 1.3-1.5-1.5 1.8-3.3 6.1-3.3 4.4 0 4.5 0 2.7 2M252 131.5c0 1.6-2.7 3.2-3.7 2.2-.3-.4-.3-1.3 0-2.2.8-2 3.7-2 3.7 0m214.7 11.2 3.6 1.7-2.7 2.3c-1.9 1.6-4 2.3-6.7 2.3-7.8 0-10.6-3.9-4.6-6.5 4.2-1.9 6.2-1.8 10.4.2M274 146c0 .5-.9 1-2 1s-2-.5-2-1c0-.6.9-1 2-1s2 .4 2 1m180 111c0 1.2-2.8 2.5-3.6 1.7-.9-.9.6-2.7 2.2-2.7.8 0 1.4.5 1.4 1m34.7 84.2c.7.5.8 1.9.4 3.6-.9 3.5-5.3 4-9.9 1.2-4.5-2.8-4-5.3 1.3-6 4.2-.6 6.2-.3 8.2 1.2"/><path d="M308.1 4.2c3.4 2.4 6.9 5.4 7.8 6.6l1.5 2.4-4-1.7C306.3 8.3 300 6 298.8 6c-1.9 0 3.4 5 7.5 7.2 6 3 12 3.3 23.7.9 8.9-1.7 33.3-9.3 42-12.9 1.8-.8-7.5-1.1-33.8-1.1L301.8 0zM178.3 181.1c-6.1 6.7-6.3 7.2-6.3 12.3 0 3-.7 7.3-1.5 9.6-1.9 5.3-1.9 5.5 0 4 1.7-1.4 3.5-.5 3.5 1.8 0 3 1.5 4.1 6.6 4.7 4.9.7 5.1.6 7-2.3 1.2-1.9 1.9-4.8 1.9-7.9 0-4-.4-5-2.2-5.8-2.6-1.1-2.8-3.4-1.2-10.5 1-4.4.4-13-.9-13-.4 0-3.5 3.2-6.9 7.1M65 182.2c0 .7.4 1.9.9 2.7 1.1 1.7 2.3-.1 1.5-2.3-.7-1.9-2.4-2.1-2.4-.4m12 70.7c-1 2.5-1.8 3-5.3 3.3-4.9.4-5.3 1.3-2.7 5.5 1.6 2.7 2.6 3.3 5.5 3.3 4.1 0 4.4-.5 4.9-8.8.3-6.7-.5-7.9-2.4-3.3M227.2 320c-.7 1.1-2.5 1.4-6.8 1.3-3.2-.1-6.4.3-7.1.9s-2.2.8-3.3.5-2.2-.2-2.5.2c-.2.4-.9 7.7-1.5 16.2-.5 8.5-1.5 19.8-2.2 25.1-.7 6.6-.8 10.1-.1 11 .6.7 1.3 3 1.7 5l.7 3.8h50.1l-.6-2.8c-.4-1.5-1.3-3.2-2-3.7-1.6-1.2-3-10.1-1.8-10.9.6-.3-1.1-7.1-3.8-15.3-2.6-8.2-6.1-18.9-7.6-23.8l-2.9-9h-4.6q-4.65 0-5.7 1.5"/></svg>