<svg xmlns="http://www.w3.org/2000/svg" width="682.667" height="512" version="1.0" viewBox="0 0 512 384"><path d="M0 136.9v137l2.8-.9c1.5-.5 6.2-1.1 10.4-1.4 4.4-.3 9.1-1.2 11-2.2 2-1.1 7.1-2.1 13.3-2.5 5.5-.5 12.8-1.1 16.2-1.5l6.1-.7.4-4.1c.5-4.3-.4-5.5-3.7-5.6-4.8-.1-5.1-1.4-1.5-9.1 2.8-6 6.3-19.5 9.3-35.6.8-3.9-1.2-6.3-5.2-6.3-2.6 0-7.1-3.5-7.1-5.6 0-.5.9-1.7 2-2.7 1.1-.9 2-2.7 2-4s.4-2.7 1-3.3c.5-.5 1.9-5.2 3-10.2 1.1-5.1 2.2-9.7 2.5-10.2.4-.6 0-1.9-.8-3.1-1.1-1.5-1.3-2.9-.6-5.4.5-1.8.6-4.3.1-5.5-.5-1.3-.4-4.4.1-7.2 1.4-7.1 5.4-10 12.5-9.1 4.7.5 5.7 1.1 9.2 5.3 4.2 5 4.8 6.8 2.9 8.7-.9.9-.9 2.3.1 5.6.8 3 .9 5.1.2 6.2-.6 1.2-.3 3.6.9 7.7 1.1 3.3 1.9 7 1.9 8.3 0 1.5 2.3 4.5 6.7 8.7l6.6 6.5-2.8 3.7c-1.5 2-3.6 3.6-4.7 3.6-1 0-2.1.6-2.4 1.4-1.1 3 1.6 33.1 3.6 40.6 1.2 4.1 2.2 8.4 2.3 9.5.3 2.9-3.9 3.3-6.4.6-2.7-2.8-3.5-2.6-4.8 1.1-1 2.7-.8 3.5 1.1 5.7 1.3 1.4 2.9 3.2 3.7 3.8.8.7 1.2 1.6.8 1.9-.5.6-13.9 2.8-43.7 7.3-24 3.6-30.6 4.3-39.9 3.9l-9.1-.3V384h187.7l1.2-6.8c1.1-5.9 1-8-.8-18.4-2.6-14.6-2.7-24.3-.1-35.2 2.1-9 1.9-11.6-1-11.6-.9 0-2.8-.8-4.1-1.8-1.3-.9-3.3-2.2-4.4-2.8-1.9-1.1-4.4-4.6-6.6-9.4-.7-1.4-1.4-7.7-1.7-14-.4-10.1 0-13.5 2.8-28 1.8-9.1 3.7-17.6 4.1-18.8.5-1.3.7-2.7.4-3.2-.3-.4-4.7.5-9.8 2s-16.2 4.5-24.6 6.5l-15.3 3.7.5 4.7.6 4.6-1.5-4.2-1.5-4.2-4.7.5c-2.6.3-5.2.7-5.9.9-2.8.9-8.3-1.7-9.8-4.6-2-3.8-1.5-4.6 3.8-5.4 8.7-1.5 18.1-4.2 18.5-5.3.2-.7-1.3-1.9-3.3-2.7-4.5-2-5.4-4.1-2.7-6.8 1.8-1.8 2.5-1.9 4.7-.9 2.1 1 2.5 1.8 2.3 4.7-.2 3.9.7 5.4 2.4 3.7 1.8-1.8 3.2-1.4 1.7.4-1.2 1.5-1 1.6 2.1.9 4.4-.9 38.5-11 42.4-12.5 3.5-1.3 2.6-2.5-2.5-3.4-3.2-.6-3.9-.3-5.3 1.9s-2 2.4-3.2 1.4c-.8-.7-1.3-2.1-1.2-3.2.2-1.5-.3-2.1-1.9-2.2-1.3-.1-3.2-1-4.3-2-1.8-1.6-2-1.6-2.6-.1-.8 2.1-2.1 2-2.6-.2-.4-1.4-3.8-2.7-14.4-5.5-28.7-7.7-26.9-7-27.2-9.8-.5-4.7 1.7-5.2 9.9-2.5 11.5 3.8 31.2 8.7 32 7.8.4-.4 1.4-3.1 2.4-6 .9-2.9 3.2-7.2 5-9.6 1.8-2.5 5.6-10.7 9-19.5l5.7-15.3-2.2-4c-1.6-2.9-2.1-5-1.7-7.4.7-4.4 7.2-12.1 11.3-13.4 3.7-1.2 6.6-4 4.3-4-.8 0-3.4-1.9-5.8-4.1-4-3.8-4.6-4-5.7-2.4-1.1 1.4-1.3.8-1.9-4.2-.3-3.2-1-6.7-1.5-7.8-.8-1.8-.9-1.8-1 .5-.1 1.9-.8 1.1-3-3.7-1.6-3.3-3.4-6.4-4-6.8s-1-2.4-.9-4.6c.3-3.5-.1-4.2-5.6-9-12.7-11-19.1-16.6-25.4-22.3-8-7.2-13.6-12.2-22.5-20.1-3.7-3.3-7.9-7-9.2-8.3C100 29 98.5 28 97.9 28c-.5 0-.9-.7-.9-1.5s-.4-1.5-.9-1.5C94.4 25 75.4 6.9 72.3 2.2L70.8 0H0z"/><path d="M80 3.2c1.9 1.7 12 11 22.4 20.7s28.4 26.2 40 36.7 21.9 20 22.9 21.1l1.8 2.1 4-2.6c2.1-1.4 3.9-2.9 3.9-3.3 0-1.4 8.4-6.6 13.4-8.2 6.7-2.3 14.1-2.1 19.6.4 4.1 1.8 5.1 1.9 10.8.8 10.9-2 25.2.7 25.2 4.8 0 1-.7 2.7-1.5 3.7-2.1 2.8-1.9 7.3.5 10.3 1.1 1.4 2 3.1 2 3.7 0 1.8-16.3 17.4-18.5 17.8-1.7.3-2.1 1.2-2.3 5.5-.2 3.4.2 6 1.2 7.5.8 1.3 1.8 4.3 2.2 6.8.3 2.5 1.7 6.1 3 8s3 5.3 3.8 7.6 2.3 5.9 3.5 8.2c3.8 7.5 2.3 8.2-5 2.1-2.7-2.3-6.1-6.1-7.5-8.5-2.2-3.7-2.9-4.2-4.4-3.4-2.9 1.6-3.2 2.6-1.5 6.5.8 2 2.1 7.6 2.9 12.4.9 5.5 2.7 11.6 4.9 16.4l3.6 7.7-3 1.5c-3.2 1.7-3.8 4.5-1.4 6.5.8.7 1.5 2.1 1.5 3.2 0 1 .6 2.1 1.3 2.3 1.1.5 43.6-14.5 54-19 2.7-1.1 4.2-1.3 5.1-.6 1.7 1.4 4 9.2 2.9 10-.9.8-5.1 2.4-34.9 13.1l-20.1 7.3 1.5 3.8c.8 2.1 2.1 4 2.8 4.3 2.7 1.1 45.3 8.5 60.4 10.6 8.5 1.2 15.9 2.6 16.5 3.1.6.6.3 1.6-.8 2.7-3.1 3.1-24 2.1-49.1-2.2-11.4-2-21.2-3.9-21.7-4.2-6.5-4 5.5 22.6 19.8 44 5.5 8.3 5.9 9.2 4.4 11.5-.6.9-.6 2.4 0 3.8.7 2 .4 2.9-1.9 5.1-1.6 1.5-3.1 3.5-3.5 4.4-.7 1.9-8 5.8-10.8 5.8-3.4 0-4.2 2.5-2 6.8 4.7 9.2 7.1 18.9 8.6 34.8.9 9.4 2 16.4 2.8 17.3 2.6 3.2 3.8 7.2 2.6 8.7-.7.9-.9 3.1-.4 6.4l.7 5H512V52.9l-2.2 1.5c-3.2 2.2-5.8 2-5.8-.4 0-2.6 3.4-6 6-6 1.9 0 2-.7 2-24V0h-61.2l3.1 3.2c7.7 7.9 11 21.6 7.6 31.7-3.8 11.5-11.9 21.2-21.3 25.3-6.6 3-16.9 3.5-23 1.3-6.2-2.3-12.4-8.4-15.2-14.8-4.5-10.6-4.1-10.2-9.3-10.5-2.6-.2-13.2 1.1-23.5 2.8-30.9 5.2-43.7 5.1-56.1-.5-4.3-2-8.4-5.4-17.7-15-6.7-6.9-12.8-12.5-13.5-12.5-3 0-7.7-4-8.9-7.4L271.8 0h-97.6L76.5.1zm234.8 96.6c2.5 1.6 2.8 3.4.8 5.1s-6.4-.3-7.2-3.3c-1.1-4.7 1-5.3 6.4-1.8m59.2-1.3c1.1 1.3.8 1.5-1.4 1.5-2.5 0-3.3-1-1.9-2.3 1-1.1 1.9-.8 3.3.8m39.8 21.1c2.2.6 2.2.8.6 2.5-3.1 3.5-10.3 1.8-7.4-1.6 1.3-1.6 3.2-1.8 6.8-.9m-164.2 15.5c.9 1.6-1.2 3.3-3.1 2.5-1.4-.5-1.5-.9-.5-2.1 1.5-1.8 2.6-1.9 3.6-.4m200.2 11.5c3.1 2.1 2.8 3-1.5 4.6-4.6 1.8-10.6 1.2-12.8-1.2-1.5-1.7-1.5-1.9.7-3.4 2.9-2 10.7-2.1 13.6 0M270.5 149c-.3.5-1.3 1-2.1 1s-1.4-.5-1.4-1c0-.6.9-1 2.1-1 1.1 0 1.7.4 1.4 1M447 257.5c0 .9-.9 1.5-2.1 1.5-1.8 0-1.9-.2-.9-1.5.7-.8 1.6-1.5 2.1-1.5s.9.7.9 1.5m31.2 89.7c2.4 1.9 1.2 6.7-1.7 7.4-3 .7-5.3 0-8.9-2.9-2.7-2.2-2.7-2.4-1.2-4 2.1-2 9.4-2.3 11.8-.5"/><path d="M296 4.6c2.5 2.5 7.5 6 11.2 7.9 13 6.5 24.1 5.6 55.8-4.2 8-2.5 17.7-5.3 21.5-6.4l7-1.8h-50L291.6 0zM177.5 178.1c-4.2 7-5.1 9.3-5.6 14.8-.3 3.6-.2 7 .3 7.6.4.5.8 1.9.8 3.2 0 1.8.9 2.5 5.2 3.8 6.2 1.8 7.4 1.1 8.9-5.5 1.2-5.4.4-7.8-2.8-8.6-2.2-.6-2.4-1.1-1.9-3.8 1.3-6.8 1.7-15.2.9-17.4-.8-2.1-1.3-1.5-5.8 5.9M76.9 253.2c-1.6 3.1-2.8 3.8-6.6 3.8s-3.9.2-1.6 4.1c1.9 3.1 4.5 4.3 8.4 3.7 2-.2 2.4-.9 2.6-4.3.1-2.2.4-5.2.7-6.8.7-3.4-1.8-3.8-3.5-.5M231.5 313c-.3.5-1.7.7-3.1.4-1.8-.5-2.9-.1-3.8 1.1-1 1.4-2.6 1.7-6.9 1.6-3.6 0-5.7.3-5.7 1s-1.1.9-2.9.6c-2.8-.6-2.9-.5-3.5 4.6-.3 2.9-1.1 14.2-1.6 25.2-.6 11-1.3 21.2-1.5 22.6-.3 1.4.1 3.8 1 5.5.8 1.6 1.5 4.1 1.5 5.6v2.8h49.2l-.7-2.7c-.3-1.6-1.3-3.5-2.1-4.4s-1.4-3.7-1.4-6.9c0-4.9-2.2-13.4-12.1-46.1-2.8-9.5-5-13.2-6.4-10.9"/></svg>