<svg xmlns="http://www.w3.org/2000/svg" width="682.667" height="512" version="1.0" viewBox="0 0 512 384"><path d="M0 137v137l2.3-.9c1.2-.4 6.2-1.1 11.1-1.5 5-.4 10.3-1.5 12-2.3 1.7-.9 7.1-2 12.1-2.4s12-1 15.8-1.4l6.7-.8v-4.3c0-4.2-.1-4.3-3.6-5-1.9-.4-3.8-1.2-4-1.9-.3-.6 1.1-4.3 3-8.2 2.6-5.1 4.4-11.2 6.7-22.6 3.5-17.1 3.3-18.7-2-18.7-2.8 0-7.1-3.6-7.1-6 0-.7.7-1.8 1.6-2.4.8-.6 1.6-1.8 1.8-2.6.1-.8 1-4 1.9-7 3.2-11.1 4.7-19.3 3.7-20.5-.6-.7-.7-3.2-.4-5.7.4-2.5.2-5.3-.3-6.3-1-1.7-.6-3.7 1.8-10.3.5-1.2 2.2-3 3.9-4.1 4.1-2.5 12.3-1 14.8 2.6.9 1.4 2.5 3.4 3.5 4.4 1.3 1.5 1.6 2.9 1.1 5.4-.3 1.8-.1 4.9.6 6.9.8 2.6.8 3.9-.1 5.3-.9 1.5-.7 3.7 1 10.4 2 8.1 2.2 8.6 8.6 14.6l6.7 6.2-2.7 3.6C99 200.4 97 202 96 202c-3.6 0-3.9 1.9-2.9 18.6.8 14 2.4 23.3 5.4 33.1.7 2 .4 2.3-2.2 2.3-1.7 0-3.8-.9-4.8-2-2.4-2.7-2.9-2.5-4.2 1.1-1.1 2.8-.9 3.5 1.4 6.5 1.4 1.9 3.2 3.4 4.1 3.4 1.2 0 1.3.3.5 1.1-1.3 1.3-12.5 3.2-48.3 8.4-18.5 2.7-27 3.5-34.8 3.3L0 277.5V384h187l.6-2.8c.3-1.5 1-3.9 1.5-5.3.8-1.9.5-5.8-1.1-14.5-1.9-10-2.1-14.1-1.6-25.4.3-7.4.9-15.8 1.2-18.6.6-4.9.5-5.1-2.5-6.3-1.6-.7-3.1-1.1-3.3-1-.2.2-1.6-.5-3.3-1.7-1.6-1.1-3.7-2.3-4.6-2.7-3.3-1.1-6.9-11-7.5-20.4-.6-8.4-.4-10 5.1-32.1 3.1-12.8 5.5-23.5 5.3-23.7s-3.9.6-8.3 1.7c-4.4 1.2-15.6 3.7-25 5.7l-17 3.6.1 4.3c.1 4.8-.5 4.8-1.5 0l-.7-3.3-8.2.4c-8.2.3-8.2.3-11.2-2.9-1.7-1.8-2.9-3.8-2.7-4.4s5.8-2.2 12.5-3.5c10.6-2.1 12-2.6 10.9-3.9-.6-.8-2.7-2.1-4.4-2.9-3.7-1.5-4.3-4.1-1.5-6.5 1.9-1.8 6.1-.8 6.3 1.4.1.7.3 2 .4 2.8s.3 2.1.4 2.9c.1.9.9 1.1 2.6.7 1.9-.5 2.3-.3 1.8.9-.4 1.3 0 1.5 2.3.9 7.2-1.6 37.4-9.5 41.4-10.7l4.5-1.4-4-1.2c-3.7-1-4.1-1-6.1 1.3-1.2 1.3-2.6 2.1-3 1.6-.5-.5-2.2-1-3.9-1.2-2.3-.2-3.4-1.1-4.6-3.7l-1.6-3.4-.6 3.2c-.9 4.2-2.7 4-2.7-.3 0-1.9-.6-3.8-1.2-4.3-1.4-.9-22.4-7.3-32.5-9.9-6.6-1.8-7.8-3-6.3-6.9 1.1-2.8 2.9-3.1 6.8-1.1 2.4 1.2 32.9 10.6 34.5 10.6.3 0 1.4-1.7 2.3-3.8 1-2 3.3-6 5.3-8.7 2.5-3.6 4.8-9.4 8.2-20.5 2.6-8.5 4.8-16 5-16.5.2-.6-.5-2.5-1.5-4.4-2.6-4.9-1.7-10 2.8-15.3 2.2-2.6 5.3-4.9 7.8-5.8 4.1-1.5 6.3-4 3.6-4-.8 0-2.5-1.1-3.8-2.5-1.2-1.3-2.6-2.2-3-2-.5.3-1.1-.6-1.4-2-.8-3.1-2.1-3.2-3.1-.3-.7 2-.8 1.9-1.2-1.2-.8-8.4-1.4-10.2-2.7-9.1-1 .9-1.5.5-1.9-1.6-.3-1.6-3.3-5.5-6.8-9.1-5.8-5.8-6.1-6.4-5.6-10s.3-3.9-8.4-11.7c-4.9-4.4-11.1-10-13.7-12.5-2.7-2.5-9.7-9-15.7-14.5C102.6 28.1 95.2 21 84.2 10.2L73.7 0H0z"/><path d="M84.5 4.8c24.6 22.9 55.9 52.4 64.5 60.7 5.8 5.6 11 10.4 11.7 10.8.7.5 2.4 0 3.9-.9 2.5-1.7 2.7-1.7 3.8.2.6 1 1.3 2.8 1.6 3.9.5 1.8 1.1 1.4 5.5-2.9 9.7-9.6 23-13 33.3-8.6 4.6 2 5.7 2.1 9.6 1.1 9.1-2.3 25.1-.7 26.3 2.7.3.8-.1 2.7-1.1 4.2-2.2 3.8-2 8.6.4 11.7 1.1 1.4 2 3.1 2 3.8s-3.7 5-8.2 9.4c-6.3 6.2-8.9 8.1-11 8.1-2.7 0-2.8.2-2.8 5.5 0 3.7.6 6.5 2 8.7 2.2 3.6 2.6 8.2.9 12.4-1.1 3 .4 15.1 2.3 18.7.6 1.2.5 2.2-.6 3.2-1.3 1.3-1.7 1.1-3.6-1.6-1.2-1.6-2.4-2.8-2.7-2.5-1.2 1.2 2 18.1 4.7 24.7 1.7 3.9 3 7.5 3 7.9s-1.1 1.2-2.5 1.8c-2.8 1.3-3.3 4.3-1 6.2.8.7 1.5 2.1 1.5 3.1s.5 2.1 1 2.4c1.1.7 22.9-5.8 44.7-13.3 10.2-3.6 14.5-4.6 15.2-3.8 1.1 1.4 3.6 9.5 3 10-.2.2-12.8 4.3-27.9 9.1s-27.6 8.9-27.8 9 .4 2.1 1.3 4.3c1.6 3.9 1.9 4.1 8.3 5.6 12.8 2.9 46.8 9.3 58.5 11.1 6.5 1 12 2.2 12.3 2.7 1.2 2-2.6 4.1-8 4.6-7.6.6-21.1-1.1-44.8-5.8-11.1-2.2-20.4-3.8-20.6-3.5-1.1 1 5.7 17.3 14.3 34.5 8.7 17.2 9.3 18.7 7.9 20.7-1.1 1.8-1.2 2.7-.2 4.9s1 2.8-.3 3.8c-.8.6-2.7 2.7-4.2 4.7-1.6 2.1-4.6 4.4-7.2 5.5-2.5 1-4.5 2.2-4.5 2.6 0 .5 1.1 3 2.4 5.6 5 9.8 8.6 27.1 8.6 41.5 0 3.2 1 6.9 3 11.2 2.5 5.3 2.8 6.8 1.9 8.3-.8 1.2-.9 3.6-.5 6.5l.7 4.7H512V224.1c0-151.5-.1-160-1.7-160.4-1.7-.4-1.7-.5 0-.6 1.6-.1 1.7-2.3 1.7-31.6V0h-80.3c-60.4 0-80.6.3-81.5 1.2s-1.7.9-3.4 0-9.6-1.2-28.8-1l-26.5.3 4.3 4.7c8.4 9.1 24.1 12.6 43.4 9.8 4.6-.6 18.2-3.7 30.3-6.7 27.1-6.8 34.7-7.3 43.9-3 5.6 2.6 6.1 2.7 12.2 1.5 15.2-2.8 30.8 6.9 35.9 22.3 3.9 11.6-.3 26.6-10.2 36.5-7.9 7.9-12.9 9.9-24.3 9.9-8.5 0-10-.3-14.1-2.7-10.3-6-15.9-16.2-15.9-28.8v-7h-3.1c-1.7 0-13.3 1.2-25.8 2.6-31 3.5-43.8 2.6-57.8-4.2-6.6-3.2-14.8-10.6-19.9-17.9l-3.8-5.6-5 .6c-3.4.3-5.6.1-6.7-.7-2.7-2.2-4.1-5.8-3.4-8.9l.7-2.9h-96.4L79.5.1zm421.3 45.4c1.8 1.8 1.5 2.7-2 4.8-6.2 3.8-8.8 1.9-4.7-3.4 2.2-2.8 4.8-3.3 6.7-1.4M306.9 99.5c3.6 1.8 4.4 3.9 2.3 5.8-2.3 2-5.9.6-7.2-2.9-1.7-4.4.1-5.5 4.9-2.9m63.9-.3c-.3.7-1.1 1.3-1.8 1.3s-1.5-.6-1.7-1.3c-.3-.7.4-1.2 1.7-1.2s2 .5 1.8 1.2m37.1 22.8c1 0 .7.8-.9 2.5-2.7 2.8-6.8 3.3-7.7.9-.8-2.2 2.5-4.7 5.2-4 1.1.3 2.6.6 3.4.6m-159.6 15.4c.3 1.2-3 3.2-3.9 2.4-1.1-1.2.5-4 2.1-3.6.9.2 1.7.7 1.8 1.2M441 148.8c2.1 1.7 2.1 1.9.4 3.2-1 .9-3.9 1.5-7.4 1.5s-6.4-.6-7.4-1.5c-1.7-1.3-1.7-1.5.4-3.2 3-2.4 11-2.4 14 0M269 150c0 .5-.7 1-1.5 1s-1.5-.5-1.5-1c0-.6.7-1 1.5-1s1.5.4 1.5 1m174.5 108c-.3.5-1.3 1-2.1 1s-1.4-.5-1.4-1c0-.6.9-1 2.1-1 1.1 0 1.7.4 1.4 1m30.9 93.3c1.4 1 1.5 1.8.7 4-1.3 3.3-5 4.3-8.8 2.3-7.2-3.7-6.4-7.6 1.6-7.6 2.6 0 5.5.6 6.5 1.3"/><path d="M280 4.2c0 1.6.4 2.8.9 2.8 1.8 0 2-1.7.6-3.6-1.4-1.8-1.4-1.8-1.5.8M177.8 177.3c-5.4 11-6.2 14.2-5.3 21.2l.6 5.4 5.5 1.1c5 1.1 5.7 1 6.9-.7.8-1 1.2-2.4 1-3.2-.3-.7 0-2 .6-2.7 1.8-2.2.2-6.3-2.7-7-2.3-.6-2.5-1-2-3.8 1.3-6.7 1.8-18.3.9-18.9-.5-.3-3 3.6-5.5 8.6M77.4 251.7c-1.2 3.8-2.2 4.8-5 5.1-5.4.5-5.7.9-3.7 4.2 1.1 2 2.8 3.2 5 3.6 5.1 1 6 .1 6.2-5.3.1-2.6.2-5.7.4-6.7.3-2.5-2.1-3.3-2.9-.9m142.1 62.2c-.4 1-2 1.2-6 .9-8.6-.7-8.4-1.5-10.1 30.7-.9 18.1-1.1 28.2-.5 28.9s1.3 3.1 1.7 5.4l.7 4.2h23.9c21.5 0 24-.2 23.4-1.6-.3-.9-.6-2.2-.6-2.9 0-.8-.8-2.1-1.7-3.1-1.4-1.3-1.8-3.6-1.9-8.8-.1-4.2-1-9.6-2.2-13.1-1.1-3.3-3.2-10.3-4.7-15.5-1.4-5.2-3.7-13.4-5.2-18.3l-2.6-8.7-6.8.2c-4.7.2-7 .7-7.4 1.7"/></svg>