<svg xmlns="http://www.w3.org/2000/svg" width="682.667" height="512" version="1.0" viewBox="0 0 512 384"><path d="M328 14.3c-10.2 1.1-19.2 3.2-24.8 5.8-2.6 1.2-4.9 2.3-5.2 2.3-2.3.6-5.2 3.2-6.5 5.6-1.3 2.5-1.9 2.9-3.5 2-4.6-2.4-21.1.2-22.4 3.6-.5 1.3-1.1 1.1-3.4-1.3-6.1-6.6-26.2-7.3-44.8-1.6-4.4 1.4-5.4 2.1-6.9 5.5-1.6 3.7-1.6 4.4-.2 8.7 3.1 9.3 4 11.6 4.8 13.3.5 1 .9 2.4.9 3.2 0 .7.7 2.7 1.5 4.2.8 1.6 1.5 3.7 1.5 4.6s.6 2.1 1.3 2.5 1.9 2.2 2.6 4c2 5 3.3 5.6 7.6 3.8 6.1-2.5 6.8-2.2 6 3-.3 2.5-1.3 6.1-2.1 8-2.7 6.6-1.1 11.6 4 11.8 2.8.2 2.8.3 2.1 5.2-3 22.9-4 33.6-3.2 34.4 1.4 1.4 2.6 10 1.5 10.7-1.4.9-4.1 6.6-6.8 14.9l-2.7 8-5.2.7c-7.1.8-10.1 3.7-10.1 9.5 0 2.4.7 5.7 1.5 7.3 1.5 2.9 1.4 3.2-5.1 14.7-6.9 12.3-18 29.5-27.1 42.2-2.9 4.1-5.3 8.3-5.3 9.3 0 1.1.7 4.4 1.5 7.3 1.5 5.1 1.5 5.4-.9 10.8-5.1 11.5-4.4 15.8 3.2 20l4.6 2.5 2.7 10.9c4 16.1 6.6 22.2 11.4 27 2.4 2.4 5.2 4.3 6.4 4.3 1.1 0 2.1.6 2.2 1.2 0 .7.4.4.8-.7.7-1.8 1-1.6 2.8 1.9l2 4-5.2 15.5c-2.9 8.6-5.6 16.4-6 17.4-.7 1.6 3.2 1.7 74 1.7 70.6 0 74.6-.1 74.1-1.8-.3-.9-2.1-8-4.1-15.7s-4.5-16.8-5.5-20.3c-1-3.4-1.6-6.2-1.4-6.2.1 0 3.6 4.8 7.7 10.8 10.7 15.3 19.5 26.2 22 27.1 3 1.1 5.4.3 7.7-2.7 3.7-4.6 2.4-16.7-4.1-38.9-2.2-7.8-2.7-10.8-1.9-12.2 1.4-2.8 1.2-10.3-.6-20.3l-1.6-8.6 2.5-4.4c4.4-7.6 4.5-7.1-5.9-25.4-5.3-9.3-11.4-20-13.7-23.8-3.2-5.4-4.3-8.6-5.4-15.5-2.8-17.9-2.8-17.2.6-22.1 5.3-7.8 3.6-12-4.9-12-1.6 0-3.2-.5-3.6-1.1-.3-.6-1-7.2-1.4-14.7-.5-7.6-1.4-14.9-2-16.4-.7-1.4-4.4-5-8.2-7.8-6.6-4.9-6.9-5.4-6.4-8.4.6-3.2-.4-6-2-5.4-.5.1-1-.8-1.2-2.2-.2-1.8 0-2.1.6-1.1 1 1.4 2-3.3 4.2-18.5.5-3.9 1.6-9.8 2.5-13 .8-3.2 1.5-6.6 1.5-7.5 0-1.5 3.3-3.3 5.4-3 .4.1 1.4-.4 2.2-1s1.4-.8 1.4-.3c.1 2.5 2-2.6 2-5.2 0-3.1-1.5-5.7-7.7-12.7-1.8-2-3.3-4.3-3.3-5 0-1.2 5.5-1.6 6.7-.4.3.4 1.7.7 2.9.7 2.4 0 5.7-3.7 4.8-5.2-.3-.5 0-1.6.7-2.4.6-.8.9-1.7.6-2.1-.4-.3-.2-1.2.5-2 .6-.8 1.2-4.7 1.3-8.7s.5-7.8.9-8.5c.4-.6.4-1.6.1-2.1-.4-.6-.8-4.6-.9-9-.2-7.3-.5-8.3-3.2-11.1-4.1-4.3-5-4.6-13.4-3.6m-86.9 224.2c-.8 3.5-.9 2.9-1-5 0-5 .3-10.8.7-13 .6-3.3.8-2.4 1 5 .1 5-.2 10.8-.7 13m76.4 18.2c.4 3.8 1.1 9.7 1.6 13.2s.8 6.5.6 6.8c-1 .9-4.2-5.5-4.3-8.7-.5-10.4-.1-18 .8-18 .3 0 .9 3 1.3 6.7M222 327.9c-.9 3.2-2.5 8.1-3.5 10.7-.9 2.7-1.9 5.6-2.2 6.4-.3 1.1-.9.9-2.3-1-1.1-1.4-2-3-2-3.6 0-.9 10.9-18.4 11.6-18.4.1 0-.6 2.6-1.6 5.9"/><path d="M369.2 381.5c0 1.7.2 2.2.5 1.2.2-.9.2-2.3 0-3-.3-.6-.5.1-.5 1.8"/></svg>