<svg xmlns="http://www.w3.org/2000/svg" width="682.667" height="512" version="1.0" viewBox="0 0 512 384"><path d="M0 192v192l94.7-.2 94.7-.3.9-3.5c.5-1.9 1.3-3.9 1.8-4.5.5-.5.9-6.5.9-13.5 0-15 1.5-29.8 3.4-34.3l1.3-3.3-4.6-2.6c-6.9-3.9-12.3-9.1-12.3-11.9-.1-2.4 3.9-14 5.1-14.9.4-.3 1.2-1.6 1.9-3s2.1-3.9 3.2-5.5c4.5-6.7 12.2-23.7 15.9-35.4 2.3-6.9 3.9-12.6 3.7-12.9-.3-.2-5.6.2-11.9.9l-11.5 1.2-3.6 4.7c-3.9 5.1-4.5 7.7-2.1 8.6 2.2.9 1.8 2.4-.5 2.4-1.1 0-2 .4-2 .9s-1.5.8-3.2.7c-2.7-.1-3.6-.8-4.9-3.4l-1.5-3.3-1.2 2.6c-.7 1.4-1.7 2.3-2.2 2-1.2-.7-.5-4.4 2.1-10.3l1.8-4.2H160c-6.4 0-10.1.4-10.6 1.2-.4.6-.7 2.7-.6 4.7.1 2.9-.1 3.3-.9 1.8-.6-1-.8-3-.4-4.6l.6-2.8-7.2-.5c-6.6-.5-7.6-.9-10.1-3.7-1.5-1.7-2.8-3.5-2.8-4s5.4-1.2 12-1.6c12.1-.7 13.7-1.3 10.8-4.4-1-1.1-1-1.3 0-.7.6.4 1.2.2 1.2-.3 0-.6-.6-1.1-1.4-1.1-.7 0-1.9-.6-2.5-1.4-.9-1.1-.8-1.8.4-3 2.2-2.2 4.8-2 7.1.5 1.9 2.1 1.8 2.1-.2 3.8-2.5 2-2 4.1.9 4.1 1.8 0 1.9.2.7 1.1-2.3 1.6 18.9 0 22.2-1.7 2.2-1.2 8.8-11.5 8.8-13.8 0-.2-7.4-4.6-16.6-9.7-13.6-7.6-16.4-9.5-16.2-11.2.7-4.3 3-4 12.3 1.6 11.3 6.8 23.4 13.2 23.8 12.6.2-.2 2-3.3 3.9-6.9s5.4-9.7 7.7-13.6c4-6.8 7-15.8 7.1-21.4 0-2.9 14.3-17.7 19.8-20.4 1.7-.9 3.2-2.3 3.2-3.1 0-.7.9-1.7 2-2 2.4-.7 2.7.1-5.4-12.1-3.2-4.9-4-5.6-4.6-4-.5 1.6-.8 1.5-1.9-1.2-.8-1.8-1.7-3.2-2.1-3.2-1.8 0-4.3-9-3.6-13.2 1.1-6.7 9.1-16.5 16.6-20.3 7.6-3.8 14-5 19.1-3.5 5.6 1.6 7.2 1.5 13.9-.4 7-2 15.2-2 21.4.2 6.4 2.2 7.7 4.2 5.3 8.4-1.7 3-1.7 3.1.3 5 1.1 1 2 2.3 2 2.8 0 2.2-12.6 19.2-15.2 20.6-2.4 1.2-2.7 1.8-1.8 3.4.6 1 1.4 2.1 1.9 2.4.4.3.8 1.9.9 3.6 0 1.7-.3 2.8-.7 2.6-1.1-.7-5.1 2.3-5.1 3.9 0 1.4-5.6 1.5-7.8.1q-1.2-.75-.6.9c.4 1 .2 1.4-.8 1-2-.8-7.1 1.3-6.3 2.5.3.5 3.6 1.8 7.3 2.9 7.3 2.2 20.5 9.5 23.8 13.2 1.2 1.3 2.7 4.9 3.4 7.9 1.2 5.1 6.3 13.1 9.6 15.3.7.4 3.6 3.7 6.5 7.5 8.2 10.4 13.4 15.7 15 15.4 1.7-.3 12.9 10.9 12.9 12.9 0 .8.6.7 1.8-.4 1-1 2.6-1.7 3.5-1.7 1.9 0 3.2 3.9 2.3 7.3-.5 2.1 3.4 5.5 35.7 31.5 92.3 74.2 116.8 94.4 124.5 102.5l5.2 5.6V0H400c-61.6 0-112 .4-112 .8 0 2 6.7 11.8 8.8 12.8 1.3.7 3.2 2.6 4.2 4.2 3.3 5.4 7.1 6.7 19.5 6.7 9.3 0 13.7-.7 29-4.2 9.9-2.3 21.7-4.6 26.2-5.2 7.6-.8 8.6-1.2 12.9-5 8-7 20-10 27.7-6.7 3.5 1.4 13.4 11.1 15.4 15 2.1 4 4.3 14.7 4.3 20.8 0 9.7-5.5 20.8-10.2 20.8-1 0-3.7.9-6 2.1-9.5 4.8-21.2 3.9-31.3-2.6-8-5-11.7-11.9-12.7-23-.3-2.9-.4-3-5.3-2.7-2.7.2-12.2 1.2-21 2.3-19.9 2.4-26.7 2.4-34.3 0-5.5-1.7-11.8-5.2-13.3-7.4-.4-.5-2.2-1.2-4-1.6-2.4-.5-3.6-1.4-4.1-3.1-1.3-4.6-3.6-11.5-6-17.8L285.5 0H0zM376 52c0 .5-.4 1-1 1-.5 0-1-.5-1-1 0-.6.5-1 1-1 .6 0 1 .4 1 1m70 11.5c1.5 1.8.5 3.3-4.2 6.7-3.9 2.7-5.6 1.2-3.8-3.2 1.9-4.7 5.7-6.3 8-3.5M332.8 98.8c.3.9-.2 1.3-1.4 1-.9-.1-1.9-.9-2.2-1.6-.3-.9.2-1.3 1.4-1 .9.1 1.9.9 2.2 1.6M85.2 139.5c1 .4 2 1.6 2.3 2.6.4 1.1 1.8 3 3.2 4.4 2.5 2.2 2.5 2.5 1 4.8-1.8 2.8-1.8 12.4.1 19.7.7 2.5 1.4 6.1 1.7 8.1.5 3.6 3.1 7.7 9.4 15.1l3.4 3.9-2.7 2.6c-1.6 1.4-4.2 2.9-6 3.3l-3.1.6.2 19c.2 15.5.6 20.2 2.1 25.2 1.1 3.3 1.7 6.4 1.4 6.7-1.1 1.1-6 .4-7.2-1-1.8-2.1-2.4-1.9-3.7 1.4-1.5 4 1.5 9.1 5.3 9.1 1.6 0 2.4.5 2.2 1.2-.5 1.3-5.9 2.5-24 5.3-5.7.8-15.5 2.4-21.8 3.5-20.4 3.5-42.8 3.9-41.7.7.7-2.2 17.8-6.5 30.2-7.7 20.9-1.8 28.4-3.2 29.1-5.2 1-3.1-.5-5.5-3.8-6.2-4.9-1-6-2.3-4.4-5.5 2.6-5 4.8-12.7 6.1-21.6 1.5-9.7.9-12.1-2.8-11.1-5.1 1.3-5.9-1.8-2.2-7.9 3.4-5.6 3.3-8.4-.4-9.1-3.5-.7-5.7-2.9-6.6-6.5-.5-2.1-.1-2.9 1.9-4.3 1.4-.9 2.6-2.2 2.6-2.9s1.3-3.1 2.8-5.3c1.5-2.1 4.1-6.8 5.7-10.2 2.8-6.1 2.9-6.4 1.1-7.7-1.4-1.1-1.7-2-1.1-4.2.4-1.5.9-5.1 1-8 .5-10.3 4.4-14.7 12.5-13.9 2.5.2 5.3.7 6.2 1.1m248.1 7.8c1.6 1.1 1.5 1.5-1.5 4.4-1.8 1.7-4.2 3.3-5.3 3.5-3.1.5-3.2-3.6-.1-6.7 2.8-2.8 4.4-3.1 6.9-1.2m25 22.6c1.5.6 2.7 1.4 2.7 1.9 0 1.7-10.7 3.2-14 2.1-3.9-1.4-3.8-2.6.3-4.4 3.3-1.5 6.2-1.4 11 .4m107.5 16.3c1.9 1.9 1.4 3-1 2.6-1.3-.2-2.4-1.1-2.6-2.1-.4-2 1.8-2.3 3.6-.5"/><path d="M79.4 252.6c-.4 1-1.8 3.2-3.1 4.8-3.1 3.7-2.7 7 .8 7.4 2.6.3 2.7.2 3.1-6.5.5-7.2.3-8.8-.8-5.7m190.1-69.2c-1 6.1-2.1 14.1-2.3 17.9-.3 5.4-.8 6.9-2.3 7.7-1.9 1.1-2.4 3.7-1.2 7.9.6 2.2.9 2.3 6.9 1.7 6.1-.6 36.2-5.1 41.6-6.2 2.4-.5 2.8-.2 3.7 3.3 1.5 5.1 1.4 9.3-.1 9.4-4.6.1-44.9 5.7-45.4 6.2-1.1 1.1 6.4 12.2 11.3 16.8 4.8 4.5 16.9 10.2 43.5 20.4 11.5 4.3 13 5.7 9.4 8-2 1.4-3.4 1.5-7.8.6-2.9-.5-7.3-1.7-9.7-2.5-2.4-.9-4.6-1.5-4.7-1.3-.2.2 2.1 2.5 5.2 5.2 5.4 4.6 5.6 5 5.1 8.7-.3 2.1-1.5 5.6-2.6 7.8-1.2 2.3-2.1 4.8-2.1 5.8 0 2.4-13.3 15-16.7 15.8-1.5.3-5 2.1-7.8 4-2.7 1.8-8 4.3-11.7 5.4-3.8 1.2-6.8 2.2-6.8 2.3s.7 2.4 1.5 5.2c1 3.1 1.8 11.3 2.1 22 .6 15.4.9 17.5 3.2 22.7l2.6 5.8H512v-21.6l-8.4-6c-4.6-3.3-10.8-8.1-13.7-10.6-3-2.6-13.3-11-22.9-18.8s-18.8-15.3-20.3-16.7c-1.6-1.4-7.7-6.3-13.5-11.1-5.9-4.7-16.3-13.1-23.1-18.6-6.8-5.6-16-12.9-20.4-16.3s-8.3-6.6-8.6-7.1c-.3-.4-4.6-3.9-9.6-7.7-4.9-3.9-9.7-7.7-10.6-8.6-2.4-2.4-17.7-13.9-18.5-13.9-.4 0-1.5.7-2.5 1.6-2.3 2.1-4.6 1.2-5.9-2.1-.6-1.5-1.4-2.3-2-2-1.4.9-8-4.4-7.4-6 .3-.7-.3-1.6-1.5-2-1.2-.3-2.1-1.2-2.1-1.9s-2.4-3.5-5.3-6.2c-3-2.7-10-9.2-15.6-14.4-6.5-6-13-10.9-17.4-13.3-4-2.1-8.1-4.8-9.3-6.1l-2-2.3zm-43.9.1c-.9 1.4-2.5 2.5-3.5 2.5-2.4 0-3.9 1.8-10.5 12.9-4 6.7-5.3 9.7-4.6 10.6.6.7.9 2.2.8 3.5-.2 1.7.8 2.8 5.2 5.1l5.4 3 1.8-2.3c1-1.3 1.8-2.8 1.8-3.4s.9-2.3 2-3.7c2.7-3.4 2.5-4.2-1-5.7-3.6-1.5-3.7-2.5-.5-8.2 2-3.6 6.5-15 6.5-16.5 0-1.2-2 .1-3.4 2.2M193 225.1c-1.2 1.6-2.1 3.2-1.9 3.3.2.2 4.2-.2 8.9-.8 7.6-1 8.3-1.3 6.3-2.4-1.9-1-2.8-1-5.2.2-2.6 1.4-3 1.4-4.5-.3-.9-1-1.3-2.1-.9-2.4.3-.4.4-.7 0-.7-.3 0-1.5 1.4-2.7 3.1m20.2 107.5c-.5 1.1-1.3 4.6-1.7 7.9-.3 3.3-1.8 12.1-3.1 19.5-1.8 9.5-2.3 15-1.8 18.7l.6 5.3h58.5l.6-5.2c.3-3.5-.2-8.3-1.4-13.8-1.1-4.7-2.9-13.2-4-19-2.8-14.9-2.1-13.7-8.7-13.5-3.1.1-6.5.5-7.4 1-1 .4-2.6.4-3.5 0-1-.4-5.6-.9-10.3-1s-10.4-.6-12.7-1c-3.5-.6-4.3-.4-5.1 1.1"/></svg>