<svg xmlns="http://www.w3.org/2000/svg" width="682.667" height="512" version="1.0" viewBox="0 0 512 384"><path d="M0 192v192l94.6-.2 94.7-.3 1.4-4.7c.7-2.6 1.8-5 2.3-5.3.6-.4.8-5.4.4-13.3-.7-13.4.5-25.2 3.2-33.5 1.6-4.7 1.5-4.9-.4-6.3-1.8-1.2-4-6-4.6-9.7-.1-.7-.5-1.7-.8-2.3-1.3-2 1.6-14.7 7.6-33.2 6.9-21.2 11.5-37.2 10.8-37.6-.4-.2-5.6.3-11.7 1.1-10.3 1.3-11.1 1.6-13.7 4.6-3.7 4.3-4.4 6.8-2.4 8.2 2.2 1.6 2 2.5-.4 2.5-1.1 0-2 .5-2 1.1s-.9.9-2 .6-2 0-2 .6c-.1 2.4-4-3.6-4.1-6.2 0-2.6 0-2.6-1.6.6-.9 1.8-2.1 3.3-2.6 3.3-.9 0-.5-5.2.9-9.8.6-2.2.5-2.2-8.9-2.2-10.6 0-11.3.4-12 6.5-.3 3.5-.4 3.3-.5-1.4l-.2-5.4-5.1.6c-4 .5-6 .2-9-1.3-4-2.1-6.7-5.6-5.2-7.1.4-.4 5.9-1.2 12.2-1.6 11.4-.8 11.4-.8 12.4-3.6.7-2.1.5-3.2-.7-4.6-3-3.3 2.6-5.8 5.8-2.5 2.3 2.2 2 4.3-.8 5.3-3 1.2-4.3 4.1-1.4 3.3 1.1-.2 2.3 0 2.7.6.5.9 3.2.9 10.1.1 8-1 9.9-1.5 12.3-3.8 3.3-2.9 8.4-12.4 7.1-12.8-.5-.2-5.4-2.8-10.9-5.8-5.5-3.1-12.8-7-16.3-8.8-5.4-2.7-6.2-3.5-6-5.7.5-3.8 3.6-3.6 10.9.8 7.4 4.5 24.4 13.2 25.8 13.2.5 0 2.3-3 4.1-6.7 1.7-3.7 4.1-8.1 5.4-9.8 3.5-4.6 6.9-11.7 7.3-15 1-9.8 2.1-14.6 3.8-16.6 4.8-5.4 13.3-13.4 16.8-15.5 2-1.4 3.7-2.9 3.7-3.5 0-.5 1.4-1.5 3.2-2.1l3.2-1.1-4.1-3.6c-2.2-2-5.3-5.5-6.8-7.9-1.7-2.6-3.1-3.8-3.5-3.2-.7 1.1-1.5 0-6.8-8.4-.8-1.3-1.1-4.2-.9-7.2.3-4.2 1.2-6.2 4.8-11.1 7.9-10.8 16.4-14.9 28.4-13.9 8.9.8 10.1.8 21.3 0 7.5-.5 10.1-.3 14.3 1.2 6.9 2.5 10.3 5.7 8.9 8.3-.7 1.4-.7 2.7.1 4.5 1 2.1.9 3-.5 4.8-.9 1.3-3.6 5.3-6.1 9-2.4 3.7-5.4 7.2-6.7 7.9l-2.2 1.2 3.1 2.6c2.5 2.1 2.9 3 2.2 4.4-.6.9-1.9 1.7-3.1 1.7-1.4 0-1.8.5-1.4 1.6.4 1.2.2 1.5-.9 1-.9-.3-1.5 0-1.5.8 0 2.2-4.2 2.7-6.4.8-1.8-1.6-1.8-1.6-.8.4 1.4 2.6.5 3.7-1.9 2.3-1.4-.7-1.9-.6-1.9.2 0 .6-.9.9-2 .6-1.7-.4-2-.2-1.4 1.5.5 1.7.3 1.9-1.8 1.3-1.4-.5-1.9-.4-1.3.2.6.5 4.1 2 7.9 3.2 7.5 2.4 19 8.8 23 12.8 1.4 1.3 2.8 3.9 3.2 5.6 1.4 6.4 4.6 12.1 10.2 18 3.2 3.4 9.3 10.6 13.5 15.9 4.8 6.1 8.4 9.8 9.6 9.8 1.8 0 11.3 9.3 12.3 12 .4 1.3.8 1.2 2.6-.3 1.1-1.1 2.6-1.6 3.2-1.2 2 1.2 3.1 5.5 2 7.5-1 1.9 4.7 7 44.4 38.8 5 4 9.8 7.8 10.6 8.5s7.3 6 14.5 11.7c34.1 27.6 41 33.3 53.5 43.5 18.4 15.1 35.8 30.4 39.8 34.9l3.2 3.7V0H0zM296.8 17.3c.9 1.1 4.4 3.3 7.7 4.8 5.5 2.6 6.9 2.9 16.5 2.8 12 0 14-.3 34.5-5.2 8.3-2 18.9-4.3 23.8-5.1 4.8-.9 11.3-2.8 14.4-4.2 8-3.8 18.7-4.5 22.5-1.5 2.7 2.2 10 14.5 11.3 19.1.3 1.4 2 6 3.7 10.3 3.9 9.9 3.6 15.8-1 19.7-5 4.3-11.4 8.4-15.7 10.2-4.6 1.9-15.1 2.3-20.7.8-6.4-1.8-13-7-16.7-13.4-3.3-5.5-3.5-6.5-3.4-14.2 0-5.5-.4-8.4-1.1-8.4-.6 0-8.1.9-16.6 2-31.3 4-45 2.1-56.3-8l-4.7-4.2-1.1 3.1c-1.6 4.6-4.5 4.1-5.9-.9-.9-3.3-.8-4.4.6-6.5.9-1.4 2-2.5 2.4-2.5.5 0 .2-2.1-.6-4.7-2.1-7-1.7-7.4 1.6-1.4 1.7 3 3.8 6.4 4.8 7.4m144 48.5c.5 1.7-5.5 7.2-8 7.2-1.5 0-1.8-.5-1.3-2.3 1.4-4.6 3.5-6.8 6.2-6.5 1.5.2 2.8.9 3.1 1.6M328 97.5c0 .8-.6 1.5-1.4 1.5-1.7 0-2.8-1.4-1.9-2.4 1.2-1.2 3.3-.6 3.3.9M87.2 141.2c.9 1.3 2.7 3.6 3.9 5.2 1.8 2.3 2 3.2 1.1 4.7-3.1 4.9.5 28.9 5.5 36.3 1.5 2.2 4 5.6 5.6 7.5l2.8 3.3-2.7 2.9c-1.5 1.6-4 2.9-5.8 3.1l-3.1.3.2 18.2c.1 12.3.7 20.1 1.7 24 .8 3.2 1.6 6.5 1.8 7.3.5 2.2-4.9 2.5-7.3.4-2.1-1.9-2-1.9-3.6 1.7s1.4 8.6 5.4 9.1c6.1.7 2 2.4-10.8 4.5-7.4 1.2-17 2.9-21.4 3.7-15.2 2.9-33 4.8-42.2 4.4-13.9-.5-14-2.2 0-6.3 4.8-1.4 10.9-2.5 13.5-2.5s7.6-.5 11.2-1c3.6-.6 10.1-1.5 14.5-2.1 4.4-.5 8.3-1.3 8.7-1.7s.8-2 1-3.7c.3-2.8.1-3-3.9-3.5-2.4-.4-4.5-.9-4.9-1.3-.3-.3.8-4.5 2.4-9.4 3.9-11.2 6-24.6 4.2-26.8-.7-.9-2.1-1.3-3-1-1 .3-2.5-.1-3.4-1-1.4-1.4-1.3-2.1 1.2-7.1 2.9-6 2.4-8.6-1.6-9.2-2.5-.4-6.2-4.7-6.2-7.2 0-1 1.1-2.5 2.5-3.4s2.5-2.3 2.5-3 .9-2.5 2.1-3.9c1.1-1.5 3.8-6 5.9-10.1 3.9-7.5 3.9-7.5 1.9-9-1.7-1.1-1.9-1.8-1-3.4.6-1.2 1.1-5.1 1.1-8.7 0-7.7.9-9.9 5.3-12.6 4.4-2.6 12.5-2 14.9 1.3m239.4 8.9c.3.6-1.1 2.8-3.1 4.9-3.1 3.1-4.2 3.7-5.6 2.9-3.6-1.9.9-8.9 5.7-8.9 1.3 0 2.6.5 3 1.1m24.8 23.1c4 2.1-4.1 4.6-10.8 3.4-4.3-.8-4.6-2-.9-4 2.8-1.4 8.2-1.2 11.7.6m108 11.4c2.3.9 2 3.4-.3 3.4-2.2 0-3.5-1.5-2.6-3 .7-1.2.8-1.2 2.9-.4"/><path d="M69 183c0 .5.5 1 1 1 .6 0 1-.5 1-1 0-.6-.4-1-1-1-.5 0-1 .4-1 1m8.1 74.3c-.6.8-1.4 2.8-1.7 4.6-.6 3-.5 3.3 1.7 2.9 2-.2 2.4-.9 2.7-4.6.3-4.3-.6-5.3-2.7-2.9m191.5-83.5c.3 1.5-.2 6.4-1.1 10.7-1 4.4-1.9 11-2.1 14.7-.2 5.1-.8 7.2-2.3 8.7-2.3 2.3-2.5 3.8-1.2 7.4.9 2.3 1.3 2.4 4.8 1.6 2.1-.4 11.7-2.2 21.3-3.8 9.6-1.7 18.9-3.3 20.7-3.7 3-.6 3.2-.4 4.2 3.2.6 2.2 1.1 5.1 1.1 6.5 0 2.9.3 2.8-27.5 6.9-7.7 1.1-14.8 2.3-15.8 2.6-2.2.7-1.9 1.8 2.9 9 4.2 6.3 8.9 10.3 17.2 14.4 6.4 3.1 37.5 15 39.5 15 .7 0 2.3.9 3.7 1.9 2.3 1.8 2.3 2.1.9 3.8-.9 1-2.8 5.6-4.3 10.3-2.4 7.3-3.7 9.5-9.2 15.7-3.6 3.9-7.5 7.5-8.7 7.9s-5 2.8-8.5 5.5c-5.7 4.3-10 6.3-24.4 11.4-2.7.9-4.8 2.2-4.8 2.8 0 .7.7 3.4 1.6 6.2.9 3 1.8 12.1 2.4 23.1.4 10 1.3 19 1.8 20 .6 1.1 1.6 3.4 2.2 5.1l1.2 3.3H512v-10.1c0-6.9-.3-9.8-1.1-9.3-1.4.8-7.3-3.5-24.8-18.1-7.9-6.6-20.1-16.7-27.1-22.5s-18.6-15.5-25.9-21.5c-7.3-6.1-16.5-13.6-20.4-16.8-4-3.2-8.3-6.8-9.7-8-2.3-2-10.8-8.9-38.4-31.5-5.5-4.5-13-10.5-16.5-13.2l-6.3-5-2.5 2c-3 2.4-5 1.7-5.8-2-.4-1.9-1.1-2.7-2-2.4-1.8.7-7.5-3.6-7.5-5.7 0-.9-.9-1.9-2.1-2.2s-1.9-1-1.6-1.4c1.1-1.7-20.4-22.3-23.2-22.3-1.6 0-14.1-7.3-17.8-10.4-1.6-1.3-3.5-3.7-4.3-5.3-1.7-3.3-5-7.3-6.1-7.3-.5 0-.6 1.3-.3 2.8m-43.9 8.6c-.9 1.3-2.7 2.6-3.9 2.8-1.6.2-3.4 2.3-6.2 7.3-2.1 3.8-5.1 8.8-6.6 11.1-2.2 3.3-2.6 4.8-2.1 7.7.5 3 1.3 4 5.5 6.2 5.4 2.9 6.8 2.5 9.3-3 .8-1.7 2.1-4.1 2.8-5.5 1.4-2.4 1.3-2.5-1.3-3.4-5.2-1.7-5.3-2.3-1.6-9 3.1-5.8 6.8-15.6 6-16.3-.2-.2-1.1.7-1.9 2.1M201 224.5c-1.4 1.7-6 2-6 .5 0-1.6-2.7-1.1-3.4.6-.3.9-.6 1.8-.6 2.1 0 .6 10.9-.7 13.5-1.7 1.9-.7 1.9-.7-.2-1.8-1.6-.9-2.4-.8-3.3.3m12.6 104.4c-.4.6-1.8 8.6-3.2 17.8-1.3 9.2-2.9 18.6-3.5 20.8s-.8 6.6-.4 10.2l.7 6.3h58.5l.6-5.3c.3-3.3-.2-8.4-1.4-14.2-1.1-4.9-2.9-13.7-4-19.5-3.2-17.3-1.9-15.4-10.2-14.5-19 1.9-21.5 1.8-34.9-2.1-.9-.3-1.9 0-2.2.5"/></svg>