<svg xmlns="http://www.w3.org/2000/svg" width="682.667" height="512" version="1.0" viewBox="0 0 512 384"><path d="M0 192v192h188.8l1.3-3.7c.6-2.1 1.6-4.7 2.2-5.8s1.1-10.3 1.2-21c.1-17.9.3-19.5 2.9-27.3 2.8-8.6 2.8-12.9 0-15.3-1.1-.9-1.4-3.9-1.4-12.8 0-10.7.4-13 4.6-28.6 7.1-26.3 8.5-31.8 8-32.3-.3-.2-5.3.2-11.1 1.1-10.8 1.6-13.4 2.8-15.7 7.1-.8 1.5-.6 2.3 1.2 3.6 2.4 1.8 1.3 3.7-1.5 2.6-.8-.3-1.4-.2-1.4.2.3 1.9-.3 2.2-2.2 1.1-1.5-.8-1.9-.8-1.5 0 .4.6.3 1.1-.3 1.1-1.6 0-4.1-4.2-4.1-7-.1-2.4-.2-2.3-1.5.7-2.6 6-4.8 2.9-2.5-3.3l1.1-2.7-10.1.7c-13.1.9-13.3 1-12.8 5.7.2 2.2 0 3.9-.4 3.9-.5 0-.8-1.7-.8-3.9 0-3.5-.3-3.9-3.1-4.5-1.7-.3-4.7-.6-6.7-.6-6.6 0-13.4-6.6-8.6-8.4.9-.3 3.7-.6 6.3-.6 2.7 0 7.6-.3 11.1-.7 4.9-.5 6.4-1 6.8-2.5.2-1 .9-1.8 1.4-1.8s.7-1.3.3-3c-.5-2.3-.3-3.2 1-3.6 2.5-1 6.5 1.6 6.5 4.2 0 1.8-.6 2.3-3.2 2.6-1.7.2-3.3.9-3.6 1.5-.5 1.6 6.3 1.7 15.6.3 5.8-.8 6.7-1.3 10.9-5.7 2.4-2.6 5.1-6 5.9-7.5 1.7-3.3 3.6-1.9-17.1-12.4-17.8-9-17.8-9-16.4-11.5 1.3-2.5 4.6-2.4 8.4.1 3.7 2.5 29.6 15.3 30 14.8.1-.2 2.5-4.5 5.1-9.6 12.1-22.9 11.4-21.1 11.4-29.3 0-6.4.4-8 2.5-11 4-5.3 12.6-13.9 15.7-15.5 1.5-.8 3.8-2.5 5.2-3.9s3.3-2.5 4.3-2.5c1.3 0 .9-.8-1.7-3.5-2.4-2.4-3.6-3.1-4.1-2.3-.9 1.5-.7 1.7-4.4-5.5-1.7-3.4-3.1-5.2-3.3-4.3-.5 2.5-1.9 1.9-2.7-1.1-.3-1.5-1.4-3.2-2.3-3.9-2-1.5-3-13.1-1.3-16.2 3.2-6 11.2-14 16.6-16.6 7.1-3.5 15.6-4.4 20.7-2.3 3.2 1.4 4.3 1.4 9 .1 6.7-1.7 11.9-1.8 18.5 0 9.8 2.6 13.9 6.5 11.3 10.6-.6 1-.4 2 .7 3.2 1.5 1.7 1.3 2.3-3.3 9.1-2.6 3.9-6.2 8.7-7.9 10.5l-3 3.4 3 2.5c2.1 1.8 2.4 2.3 1 1.9-1.6-.6-1.8-.5-.7.5 1.8 1.9 1.5 2.6-1 2.5-1.7-.1-2.2.4-2 1.6s-.2 1.6-1.3 1.2c-1.1-.5-1.4-.2-.8 1.1.5 1.5.2 1.7-1.5 1.3-1.2-.4-2.2-.2-2.2.3s-1.2.2-2.6-.8c-2.6-1.7-2.7-1.7-1.9.7.6 1.9.5 2.2-1.1 1.6-1-.4-2.1-.1-2.5.6-.6.9-1.3.9-3.5-.1l-2.7-1.2 1.8 2.7 1.7 2.7-2.8-.7c-5.2-1.3-1.2 1 6.6 3.8 6.7 2.4 17.9 8.4 22 11.8 2.6 2.2 5 6.1 5 8.4 0 3.6 5.3 12.2 11.1 18.2 3.1 3.1 8 8.8 10.9 12.7 6.6 8.7 11 13.5 12.6 13.5 1.7 0 11.4 10.8 11.4 12.7 0 1.4.2 1.4 1.8 0 4-3.6 7-.8 5.7 5.2-.5 2.4-.1 3.2 3.2 5.7 4 3 31.4 25.4 32.3 26.4.3.3 5.5 4.5 11.5 9.4 6.1 4.9 11.5 9.4 12 10.1.6.6 6.6 5.6 13.5 11.2s18.8 15.4 26.5 21.8c55.5 46.2 66.8 56.6 65 59.5-.3.5-.9 1-1.3 1-1.2 0-56.7-45.9-59.2-49-.3-.3-5.9-5.1-12.5-10.5-6.6-5.5-13.8-11.6-16-13.6s-9.6-8.3-16.4-14c-6.9-5.7-17.5-14.6-23.5-19.7-14.8-12.5-36.5-30.5-38.1-31.7-1-.6-2-.4-3.3.8-2.9 2.6-5.2 2.1-5.9-1.3-.4-2.4-1-2.9-2.3-2.5-1 .3-2.1.1-2.5-.5s-1.8-1.5-3.1-2c-2-.8-2.3-1.4-1.8-3.5.5-2 .3-2.4-1-1.9-1.5.6-2-.4-1.7-3.2.1-.6-3.4-4.2-7.6-8-4.3-3.8-11.3-10.2-15.6-14.2-4.4-4-8.1-7.1-8.4-6.9-.2.3.5 2.4 1.7 4.7 3.6 7.1 2.2 7.8-4.5 1.9-7.1-6.2-12.2-12.5-13-15.9-.6-2.3-4.7-8-5.9-8-.3 0-.5 2.4-.4 5.2 0 2.9-.7 9.1-1.6 13.7s-1.6 10.3-1.6 12.7c0 3-.5 4.6-1.7 5.3-1.7.9-2.5 7.3-1.1 8.7.4.3 11.3-1.5 24.3-4.1s23.9-4.5 24.2-4.2c.3.4 1.1 3.1 1.8 6.1 1 4.1 1 5.6.1 5.9-.6.2-10.7 2.1-22.3 4.2-11.7 2.1-21.3 4.2-21.3 4.6 0 2.1 10.4 15.9 13.7 18.2 4.4 3 29.2 12.4 36.1 13.6 2.9.6 6.8.6 10-.1 3-.5 5.6-.7 5.9-.4s.9 2.4 1.3 4.6c1 5.6-2.5 19.2-6 22.9-1.3 1.4-3.2 3.9-4.1 5.6-.8 1.6-3.1 3.8-4.9 4.7s-5.4 3.7-7.9 6.2c-4.6 4.5-17.5 12.1-19 11.2-.4-.3-3.4 1.3-6.6 3.5-3.4 2.3-6.9 3.9-8.6 3.9-3.5 0-3.5.5-.8 9 1.6 5.1 2.3 10.6 2.9 25.1.4 10.2 1.2 19.4 1.8 20.5.6 1 1.6 3.4 2.2 5.1l1.2 3.3H512V0H0zM299.1 20.6c4.6 4.2 8.7 5.4 18.8 5.4 10.2 0 20.1-1.5 45.8-6.9 24.9-5.3 40.3-7.5 45.8-6.6 6.2.9 16.6 10.5 20.6 19 4.7 9.7 3.3 20-2.9 23.4-1.1.6-2.3 2.6-2.6 4.5-1 5.1-5.1 9.5-12.1 12.7-14.3 6.8-30.7 1.4-38.7-12.7-1.6-3-3.7-5.5-4.6-5.5-1.4-.1-1.3-.2.2-.6s1.8-1.2 1.3-5c-.2-2.5.1-7 .8-10l1.3-5.5-3.7.5c-12.1 1.9-27.9 2.9-41.2 2.5-12.9-.4-16.2-.8-20.1-2.6-7.7-3.4-13.5-10.5-15.3-18.7l-.7-3 2 3c1.1 1.6 3.5 4.4 5.3 6.1m-10.3 2.1c.2 1.7-.3 4.5-1 6.4l-1.4 3.3-2.2-2.4c-2.3-2.5-3-7.8-1.2-9.6.6-.6 2.1-1 3.3-.9 1.7.1 2.3.9 2.5 3.2m144.6 42.9c2.5.9 1.9 2.7-1.9 6.4-2.6 2.5-3.8 3.1-4.6 2.3-1.4-1.4-.5-5.6 1.7-7.7 1.7-1.8 2.4-1.9 4.8-1M324 96.8c0 1.4-1.1 2.1-2.6 1.5-2.1-.8-1.7-2.3.6-2.3 1.1 0 2 .4 2 .8M82.6 139c2.5 0 3.9 1 7.3 5 4 4.8 4.2 5.2 2.8 7.4-1.7 2.6-1.5 15.3.3 20 .5 1.5 1 4.5 1 6.6 0 3.7.6 4.7 10.6 18.8 1.6 2.1 1.5 2.3-1.1 4.5-1.5 1.2-4.2 2.7-5.9 3.3l-3.1 1.2-.3 8.8c-.4 11.9 1.3 30.8 3.3 36.3 1.2 3.6 1.3 4.6.3 5.3-1.6.9-4.7.1-7-1.9-1.5-1.3-1.8-1.2-3.2 1.4-1.4 2.7-1.3 3.2.4 6.1 1.3 2 2.8 3.2 4.7 3.4 1.5.2 2.7.7 2.6 1.3-.2 1.2-7.8 2.7-46.8 9.1-10.6 1.7-31.2 2.9-35.9 2-2.2-.4-3.6-1.2-3.3-1.9.6-2 15.7-6.5 22.2-6.6 3.3-.1 10.1-.7 15-1.5 5-.8 11.6-1.7 14.8-2.1 3.1-.3 5.8-.9 5.8-1.3.9-5.1.7-6.2-1-6.2-1 0-3.2-.5-4.8-1.1l-3-1 2.8-8.2c3.3-9.7 5.6-26.2 3.9-28.2-.6-.8-1.7-1.2-2.4-.9-1.9.7-4.9-2.5-4-4.5 3.3-7.7 3.8-9.9 2.5-11.5-.7-.9-2.2-1.6-3.1-1.6-2.2 0-6-4.5-6-7 0-1 1.1-2.5 2.5-3.4s2.5-2.3 2.5-3 .9-2.5 2-3.9 3.8-5.7 6.1-9.7c3.7-6.7 3.9-7.3 2.4-9-1.1-1.3-1.3-2.3-.6-4.2.5-1.3.9-5.1.8-8.3 0-3.3.3-7 .7-8.2.9-2.8 6.6-6.5 9.1-5.8 1.1.2 3.4.5 5.1.5M320 153.2c0 2.4-7.1 8.6-9.1 8.1-1.5-.4-1.8-1.1-1.3-2.7 1.4-4.7 3.4-6.6 6.9-6.6 2.1 0 3.5.5 3.5 1.2m25 23.3 2.5 1.3-2.8 1.1c-3.6 1.4-12.4 1.4-13.2.1-2.2-3.6 8.2-5.5 13.5-2.5m108.8 7.7c1.6 1.6 1.5 2.8 0 2.8-2.2 0-4.1-1.7-3.4-2.9.9-1.4 1.9-1.4 3.4.1"/><path d="M69 183c0 .5.5 1 1.1 1 .5 0 .7-.5.4-1-.3-.6-.8-1-1.1-1-.2 0-.4.4-.4 1m8.2 74.3c-.6.7-1.2 2.6-1.4 4.2-.2 2.5.1 3.1 2 3.3 2 .3 2.2-.1 2.2-4.2 0-4.6-.9-5.7-2.8-3.3m145.7-75.7c-.7.9-2.3 2-3.6 2.5-1.4.5-3.6 3.5-5.9 8.1-2 4-5.1 9.4-7 12-1.8 2.6-2.9 5-2.5 5.3.5.3.7 1.4.4 2.5-.4 1.5.6 2.5 5.2 4.7l5.6 2.8 1.9-2.5c1.1-1.4 2-3.2 2-4.1s.7-2.2 1.5-2.9c2.2-1.8 1.8-4.8-.7-5.6-4.5-1.3-4.9-2.3-2.4-6.3 2.2-3.4 8-18.1 7.2-18.1-.2 0-1 .7-1.7 1.6m-24.1 42.8c-2.6 1.9-2.2 2.2 1.7 1.8 3.7-.4 4.6-1.6 1.9-2.6-1.9-.7-1.5-.8-3.6.8M190 226c-1.1 2.1-.8 2.3 2.8 1.4 1.8-.5 2-.9 1.1-2-1.6-1.9-2.6-1.7-3.9.6m23.7 100.7c-.3.5-1.5 7.4-2.7 15.4-1.1 7.9-2.7 17.9-3.6 22.3-1 5.2-1.3 9.8-.9 13.7l.7 5.9h58.5l.6-5.7c.4-4.2-.1-8.9-1.8-16.8-1.3-6-3.3-16.2-4.5-22.5s-2.4-11.8-2.7-12.2c-.2-.4-2-.1-4.1.7-2.4 1-5 1.4-7.8.9-2.6-.4-4.4-.2-4.8.5-.8 1.2-6.8 1.5-7.9.4-.4-.3-2.1-.8-3.9-1-3.1-.3-3.9-.4-10.9-1.8-2-.4-3.9-.3-4.2.2"/></svg>