<svg xmlns="http://www.w3.org/2000/svg" width="682.667" height="512" version="1.0" viewBox="0 0 512 384"><path d="M0 192v192h188.8l1.3-3.7c.6-2.1 1.7-4.4 2.3-5.2.7-.9 1.1-8.3 1.1-21.5 0-18.3.3-20.7 2.4-27 2.6-7.9 2.4-12.4-1-16.9-2-2.7-2.1-3.8-1.6-15.1.4-10.7 1.2-14.9 6.5-35.6 3.4-12.9 6-23.6 5.7-23.8-.2-.2-4.3.5-9.2 1.6-4.8 1.1-10.5 2.3-12.5 2.7-4.1.6-4.8 2-2 4.1 1.6 1.3 1.6 1.4-.5 2-1.3.3-2.3.9-2.3 1.3s-1.2.6-2.6.6c-2.4-.2-4.7-2-5.7-4.9-.3-.7-1.1-.3-1.9.8-1.4 1.8-1.6 1.8-2.4.3-.9-1.5-1.8-1.6-6.4-.8-3 .6-8.3 1.3-11.7 1.6-6 .7-6.3.8-6.4 3.3 0 2.6-.1 2.6-.9.4-.8-1.9-1.7-2.2-6.7-2.3-3.2-.1-6.9-.4-8.2-.8-2.3-.6-6.9-5.6-6-6.5.2-.3 5.4-1 11.4-1.6 6.7-.8 12.5-2 14.8-3.1 2.1-1.1 3.6-1.5 3.2-.9-.8 1.3 3.3 1.2 12.5-.4 6.8-1.3 7.8-1.7 10.5-5.2 1.7-2.1 4.9-5.9 7.2-8.4 2.4-2.6 3.7-4.7 3-4.7-.6-.1-6.4-2.4-12.7-5.3s-13.9-6.3-16.8-7.5c-6.9-2.9-7.7-3.7-6-6.4.7-1.1 1.7-2.1 2.3-2.1.5 0 4.3 1.7 8.5 3.8 9 4.7 27.9 12.7 28.4 12.1.1-.2 2.5-4.5 5.1-9.4 2.6-5 5.9-10.8 7.4-12.9 2.4-3.7 2.6-4.7 2.6-15.5 0-13.5.8-15.5 8.9-23.5 7.7-7.5 11.6-10.6 15.4-12.2l3.5-1.4-2.9-2.2c-1.6-1.2-3.2-2.7-3.6-3.3-.4-.5-.8.2-.8 1.7 0 3.8-2.7 2.6-3.6-1.5l-.7-3.2-1.2 3.5-1.2 3.5-.8-5.7c-.7-5.6-3.4-10.3-3.6-6.2 0 1.4-.2 1.5-.5.4-1.5-4.5-5.1-11.9-7.1-14.3-3.1-3.9-2.9-5.6.8-6.4 1.7-.3 3.3-1.3 3.7-2.2.3-.9 1.7-3 3.1-4.8s3.6-4.6 4.9-6.2c3.6-4.7 13.4-9.1 20.3-9.1 3.2 0 6.9.5 8.2 1.1 1.9.9 3.4.5 8.3-2 8.3-4.2 17.7-6.5 23.8-5.7 2.7.3 5.1.8 5.4 1.1s0 2.7-.6 5.3C279.9 82.6 281 89 283 89c.5 0 1.1.8 1.4 1.8.8 2.4-10.8 21.9-13.5 22.7-1.1.4-2.7.1-3.5-.6-2.3-1.9-2.8-.4-1.4 4.3.6 2.4 1.3 5.8 1.4 7.7l.3 3.3-1.8-2.3c-1.8-2.3-1.9-2.3-1.9-.3 0 1.1-.9 2.9-1.9 3.8-1.8 1.6-2 1.6-3.5-.6l-1.6-2.2v2.2c0 1.3-.4 2.1-.9 1.8-.5-.4-1.2 0-1.5.6-.3.7-.4 0-.2-1.7.4-2.7.3-2.8-1-1.1-1.2 1.7-1.4 1.7-2 .3-1-2.7-2.2-1.9-1.6 1 .5 2.5.4 2.7-1.2 1.4-2-1.6-2.9-1.1-2 1.3.3.9 1.8 1.9 3.3 2.2 2.8.6 6 1.9 13.1 5.3 13 6.3 19.9 11.8 20.4 16.4.1 1.4.7 3.2 1.3 3.9s1.4 2.3 1.7 3.5c.4 1.1 1.3 2.6 2.1 3.3 1 .9 1.5.7 2-.9 1-3.4 5.4-6.2 7.6-5 2.7 1.4 2.4 2.2-2.1 6.6l-4 3.9 3.6 3.5c2 1.9 7.9 8.7 13.1 15.2 5.3 6.5 10.4 12.2 11.5 12.8 3.2 1.7 10.8 10.1 11.4 12.6.7 2.7 1.2 2.8 3.5.7 1-.9 2.3-1.3 2.8-.9 1.4.8 1.4 5.2 0 6-1.5 1-1.1 1.5 6.1 7.9 3.6 3.2 8.8 8 11.5 10.5 2.8 2.6 12.4 11.2 21.5 19 9.1 7.9 17 14.9 17.5 15.6.6.6 8.7 7.8 18 16 9.4 8.1 20.6 18.1 25 22.1s14.4 12.9 22.3 19.8c14.8 13 19.4 17.4 27.7 26.5 4.4 4.7 4.6 5.2 2 3.8-2.7-1.4-35.2-29.6-47.1-40.9-2.7-2.5-12-10.9-20.6-18.5-41.7-36.7-47.4-41.8-48.8-43.3-1.4-1.4-16.3-14.6-32.3-28.4l-6.8-5.9-2.4 2.3c-1.3 1.2-2.8 1.9-3.4 1.5-1.4-.8-1.4-4.2-.1-5 .6-.3 1-1.1 1-1.7s-.8-.4-1.8.5c-2.4 2.2-2.7 2.1-6.2-.5-2.3-1.6-2.8-2.7-2.4-4.5.5-1.8.3-2.2-.9-1.7-2.3.8-4.1-.5-2.8-2 .8-.9-.4-2.7-4.4-6.6-3-3-5.7-5.1-6.1-4.7-.3.3-.1 2.1.5 3.8.6 1.8.8 3.6.4 4-.5.4-6.9 2.1-14.3 3.8-22.7 5.3-27.2 6.6-27.7 7.8-.2.6 1.1 4.5 3 8.5l3.4 7.5 10.9 3.7c5.9 2.1 19.8 6.5 30.9 9.8 11 3.3 20.5 6.4 21 7 .7.6.3 1.4-1 2.5-3.9 3-22.9-.6-45.9-8.6-3.3-1.2-6.1-1.9-6.3-1.7-.9.9 10.5 9 16.5 11.9 4.4 2 8.3 3.1 13 3.4 12.4.8 13.2 1 13.2 4.3 0 1.6-.4 3.1-.9 3.4-.7.5-1.3 2.5-2.6 8.1-.1.5-.3 1.5-.3 2.2-.1.7-1.4 2.7-3 4.5-1.5 1.8-3.2 4.2-3.8 5.3s-3.2 3.1-5.7 4.4c-2.6 1.3-4.7 3-4.7 3.8 0 1.6-6.5 5.9-10.2 6.8-1.6.4-2.8 1.1-2.8 1.6 0 .4-1.7 1.1-3.7 1.5-4.8.8-11.6 5.1-11 6.9 4 10.4 4.9 15.7 5.6 34.7.5 10.9 1.3 20.3 1.8 21 .6.7 1.6 3 2.2 5l1.3 3.8H512v-60.5c0-46.6-.3-61-1.3-62.6-.9-1.7-.9-2.3.1-2.6.9-.4 1.2-27.2 1.2-129.4V0h-29.4c-22.6 0-29.6.3-30 1.2-.5 1-.7 1-1.2 0-.4-.9-46.6-1.2-226-1.2H0zM406.2 19.8c3.7 1.8 7.5 3.2 8.5 3.2 3.1 0 12.3 6 14.3 9.3 2.9 4.6 2.7 12.8-.2 16.2-1.3 1.4-3.6 2.7-5.2 2.9-2.7.3-3.3 1.1-6.4 8.5-3.2 7.7-3.3 8.3-1.7 9.5 2.3 1.7 1.2 4.9-2.6 7.6-3.1 2.3-4.9 1.9-4.9-1 0-1.8-.1-1.8-4.4.1-6.6 2.9-15.3 3.5-21.4 1.5-6.6-2.2-14.2-9-18.7-16.8-4.5-7.5-4.7-14-.9-22.9 1.4-3.4 2.4-6.3 2.2-6.5-.2-.1-8 .8-17.3 2.2-19.1 2.9-28.2 2.8-35.5-.4-2.5-1.1-5.4-3-6.5-4.2l-2-2.3 4 .9c9.4 2.1 22.2 1 39.2-3.3 8.9-2.3 19.9-4.7 24.5-5.3 4.6-.7 10.1-1.6 12.3-2 7.7-1.7 15.5-.7 22.7 2.8m-134.4 9.8c.3 3.5-1.3 8.4-2.7 8.4-1.3 0-4.1-5.3-4.1-7.8 0-5 6.3-5.6 6.8-.6M311.5 96c.3.5-.1 1-.9 1-.9 0-1.6-.5-1.6-1 0-.6.4-1 .9-1 .6 0 1.3.4 1.6 1m-227 44.5c1.4.3 3.2 1.8 4.2 3.3.9 1.5 2.6 3.7 3.7 4.9 1.7 2 1.8 2.6.7 4.7-1.1 1.9-1.1 3.1-.1 6.1s1 4.2 0 6.1c-1 1.8-1 3.6-.1 8 .6 3.2 1.1 7 1.1 8.5 0 2.8 1.5 4.9 8.8 12.6 1.7 1.8 3.2 3.7 3.2 4.2 0 1.6-5.3 5.6-8.8 6.6l-3.7 1.1.3 15.9c.3 11.7.9 18.1 2.4 24 2.8 11.2 2.8 11-1 11.3-2.6.3-3.4-.1-4.1-2.1-1.4-3.5-3.1-4.3-3.1-1.5 0 1.3-.4 2.8-1 3.4-1.7 1.7 2.5 7.1 6.1 7.9 3 .7 3.1.9 1.5 2-.9.7-3.8 1.6-6.4 2-2.6.3-13.5 2.2-24.2 4.2-25.4 4.6-53 5.9-53 2.4 0-2.2 13.7-6.3 24-7.2 15-1.3 30.3-3.4 31.8-4.3s1.6-4.2.2-5.1c-.6-.4-2.5-.8-4.2-1.1-1.7-.2-3.5-.7-3.9-1.1-.5-.5.3-3.7 1.7-7.1 1.4-3.5 3.1-10.9 3.9-16.5l1.4-10.2-3.1-2.7c-3-2.6-3-2.7-2.3-9.6l.7-6.9-4.5-2.6c-5.1-3-6.8-7.8-3.6-10.1 2.1-1.4 7.6-9 12-16.6 3-5.2 3.2-6 3.4-17.2.1-8.3.6-12.2 1.6-13.4 2.4-2.9 7.2-5.4 9.6-4.9 1.3.3 3.4.7 4.8 1M436 181c.8.5 1.2 1.2.8 1.5-.9.9-4.8-.4-4.8-1.6s2.1-1.1 4 .1m-107.8 7.8c1.3 1.3-4.9 3.2-10.4 3.2-4.2 0-5.2-2-2-4 2-1.3 10.9-.7 12.4.8m-172 38.9c2.9 2.6 2.2 4.3-1.6 4.3-2.6 0-3.6-.5-4.1-2-1.3-4 2.3-5.4 5.7-2.3"/><path d="M68 184.5c0 .8.5 1.5 1 1.5.6 0 1-.7 1-1.5s-.4-1.5-1-1.5c-.5 0-1 .7-1 1.5m8.6 77.1c-1 2.6-.7 3.4 1.4 3.4 1.1 0 2-.4 2-.9 0-1.7-1.2-4.1-2-4.1-.4 0-1.1.7-1.4 1.6M261 167.1c0 .2-.2 4-.4 8.4-.7 14.8-1.9 25-3.1 26.5-1.9 2.3-2.4 5.7-1.1 7.6 1.1 1.4 3.1 1.1 22.2-3.6 11.5-2.9 21.2-5.6 21.6-5.9.7-.6-16.3-18.4-20.7-21.6-3.8-2.7-5.3-1.9-6.1 3.2-.3 2.7-1.2 7.7-1.8 11.3l-1.3 6.5-1.2-4.5c-2.2-7.6-4.1-17.3-4.1-21.1 0-2.3-.7-4.2-2-5.4-1.1-1-2-1.6-2-1.4m-44.2 13.2c-1.4 1.2-3.2 4-3.9 6.2-1.6 5.3-4.3 10-8.7 15.4-2.2 2.7-3.7 5.7-3.9 8-.3 3.6-.3 3.6 5.4 5.9l5.8 2.2 2.3-2.7c1.2-1.6 2-3.4 1.7-4.1-.2-.7.4-1.8 1.5-2.4 1.2-.8 2-2.4 2-4.1 0-1.5-.4-2.6-.9-2.2-.6.3-2.4 0-4.1-.7l-3.1-1.3 2.4-3.3c2.6-3.4 7.2-16.3 6.6-18.1-.2-.6-1.6-.1-3.1 1.2m-28 44.2c-.4 1.9-.1 2.5 1.3 2.5 2.2 0 2.3-.8.5-3.3-1.3-1.6-1.4-1.6-1.8.8m6.2-.4-2.5 2 4-.6c5-.8 6.1-1.5 4.4-2.6-2.1-1.3-3.1-1.1-5.9 1.2m51.3 99.7c-.5 1.9-1.2 2.2-6.4 2.2-3.3 0-6.8.5-7.9 1.2-1.4.9-2.4.9-4.2.1-3.4-1.7-6.9-2.6-10.7-2.8-4.2-.1-4.3.1-7 19.5-1.1 8.5-2.7 18.7-3.5 22.6-.7 4-1.1 9.5-.8 12.3l.5 5.1H266v-3.9c0-2.2.4-4.1 1-4.3s.4-2.7-.5-6.5c-.8-3.4-3.1-14.9-5-25.5-2-10.6-4.1-19.8-4.6-20.4-.7-.9-1.9-1-4.1-.3q-3.15.9-4.5-.3c-1.1-.9-1.5-.7-2 1"/></svg>