<svg xmlns="http://www.w3.org/2000/svg" width="682.667" height="512" version="1.0" viewBox="0 0 512 384"><path d="M0 192v192h188.8l1.3-3.7c.6-2.1 1.6-4.4 2.2-5.1.6-.8 1.1-9.6 1.2-22.5.1-18.6.3-21.9 2.2-27.4l2.1-6.1-2.4-.6c-1.4-.4-3.3-1.5-4.3-2.5-.9-.9-2.5-2-3.4-2.4-3-1.1-2.3-13.5 1.4-23.7 8.1-22.6 17.1-55.1 15.6-56.6-.2-.3-4.7.4-9.8 1.5-30.6 6.5-64.5 10-69.8 7.2-2.3-1.3-4.6-4.9-3.7-5.9.3-.3 5.4-1.1 11.2-1.8s11.3-1.6 12.3-1.9c2.2-.7 4.5-5.2 3.1-6-1.6-1-1.1-4.2.6-4.9 2.1-.8 6.4 1.9 6.4 3.9 0 .9-1 1.5-2.5 1.5-1.4 0-2.9.8-3.4 1.9-.9 1.6-.6 1.9 1.8 2.4 1.5.3 3.7.4 4.7.2s9.3-1.8 18.4-3.6c9.1-1.7 16.7-3.3 16.9-3.5.3-.2-.4-1-1.4-1.8-1.6-1.2-1.7-1.8-.8-3.9 1.2-2.5 1.1-2.6-9.5-7.1-26.2-11-32.7-14.3-33-16.6-.7-4.4 1.3-4.3 10.9.4 5.2 2.6 14.8 6.8 21.4 9.5l12 4.8 1.8-2.4c2.1-2.6 5.5-3.1 6.3-.8.4.8 1 1.5 1.5 1.5.6 0 .6-.7 0-1.8-1.8-3.4-10.1-25.7-10.1-27.3 0-.8.9-3.4 2-5.7 1.1-2.2 2-5.8 2-7.9 0-8.7 2.1-12 15.3-24 3.2-2.9 6.9-5.6 8.2-5.9s3-1.3 3.6-2.1c1-1.1.7-1.9-1.4-4.1-2.3-2.2-2.7-2.4-2.7-.9 0 2.6-3.2 1.8-4.5-1.1-1.2-2.7-2.9-3-2-.3.3 1.1.1 2.2-.4 2.5-.5.4-1.2-.3-1.6-1.4-.3-1.1-1.1-1.9-1.6-1.7-.5.1-2.6-3.6-4.5-8.3-4.4-10.5-4.2-12.8 2.1-24.5 3.9-7.1 5.7-9.2 9.9-12 7-4.7 13.3-6.1 19.1-4.5 2.5.7 4.8 1.6 5.1 2.1.2.5 3-1.1 6.2-3.5 8.4-6.4 15.7-9.7 22.5-10.4l5.9-.5-.6 4.9c-.5 4-.2 6.1 2.2 11.9l2.9 7-3.9 8c-6 12.3-6.5 13-9.2 13.3-1.4.2-3.5-.4-4.8-1.2l-2.3-1.5-.2 8.4c-.1 4.6-.6 9.2-1.2 10.2s-1.1 1.2-1.1.5c0-2.2-1.9-1.3-2.6 1.3-.3 1.4-1 2.3-1.4 2-.5-.3-1.1.1-1.4.7-.4.9-.5.8-.4-.2.1-.8-.2-2.3-.7-3.3-.6-1.5-1-1.6-1.6-.5-.5.7-1.4 1.3-2.1 1.3s-1.4 1-1.6 2.2c-.2 1.4.2 2.3 1 2.3.7 0 4.9 1.8 9.3 4s8.3 4 8.7 4 1.9-1.1 3.4-2.5c1.9-1.8 3.4-2.3 4.8-1.9 2.4.7 6.6 4.3 6.6 5.6 0 2.2 28.8 39.8 30.5 39.8.6 0 3.6 2.5 6.5 5.6 4 4.2 5.1 6.1 4.8 7.9-.4 1.9-.2 2.2 1.1 1.3 1.9-1.1 7.1.5 7.1 2.3 0 .6-.9 2.2-2 3.6l-1.9 2.4 11.2 14.7c13.8 18.2 22.8 29.2 28.9 35.6 2.6 2.7 4.5 5.3 4.1 5.9-.3.6-.1.7.4.4 1-.7 4.7 2.6 3.9 3.4-.3.3.8 1.3 2.5 2.4 1.6 1.1 2.9 2.4 2.9 2.9 0 .4 2.7 3.9 6.1 7.7s5.8 6.9 5.5 6.9c-.4 0 1.1 1.7 3.2 3.8 2.1 2 4.3 4.4 4.8 5.4.5.9 2.6 3.4 4.7 5.7 2 2.2 3.7 4.3 3.7 4.7 0 .3 1.8 2.4 4 4.5 2.2 2.2 4 4.1 4 4.4 0 .2 2.1 2.6 4.6 5.4 2.5 2.7 6.3 7.3 8.5 10.3 2.2 2.9 5.3 6.4 7 7.6 1.6 1.3 3.7 3.8 4.6 5.5.8 1.8 2.1 3.5 2.8 3.9.7.5 2.5 2.9 4 5.5 1.5 2.7 3.6 5.8 4.7 7 1.6 1.7 1.8 2.5.9 4.2-1 1.8-.9 2.1.6 2.2 1.6 0 1.5.1-.2.8-1.1.5-2.4.6-2.9.3s-.6.3-.2 1.4c1.9 5.1-12.9-12-32.4-37.1-6.8-8.8-12.6-16.2-12.9-16.5s-3.3-4.1-6.5-8.5c-3.3-4.4-6.2-8.2-6.6-8.5-.3-.3-1.9-2.3-3.6-4.5-2.4-3.3-11.7-15.4-22.9-30-1.2-1.7-4.5-5.9-7.2-9.5s-7.1-9.4-9.9-13-7.5-9.7-10.5-13.5c-14.5-18.8-15.1-19.4-17.5-18.3-1.8.8-2.9.7-4.9-.6-1.4-.9-2.3-2.1-2-2.6.8-1.4-1.3-5-2.8-4.7-.7.1-1.1-.8-1-2.5.1-2.1-.3-2.8-2-3-1.3-.2-2.1-.9-2-1.8.2-.9-3.6-3.8-10.2-7.8-5.7-3.4-12.8-8.3-15.8-10.7-3.7-3.1-6-4.3-7.1-3.9-1 .4-3.9-.3-6.7-1.6-2.7-1.3-5.1-2.2-5.3-1.9-.7.7-1 21.8-.3 22.6.4.3.7 2.8.7 5.4 0 3.8-.4 5.1-2 5.9-2.1 1.1-2.7 5.4-1 8 .8 1.3 4 .7 23.2-4.2 12.3-3.1 23.1-6 24-6.3 1.3-.5 1.9.2 2.8 3.4.6 2.3 1.5 4.1 2 4.1.6 0 1 .3 1 .7-.1 3.1-3.9 4.3-36 11.4-5.2 1.2-9.9 2.5-10.3 2.9-1 .9 3.9 15.1 5.6 16.2 1.9 1.2 36.4 12.4 50.5 16.4 7 1.9 13 3.9 13.4 4.2.4.4.3 1.4-.2 2.2-.7 1.1-2.8 1.5-8.7 1.4-7.9-.1-25.7-4.6-43-10.8-3.7-1.4-7.1-2.2-7.5-1.8s1.8 5.1 4.8 10.5c5.8 10.2 12.3 27.3 13 34.3.3 3.5-.2 5.2-3.4 10.5-4.2 6.9-9.9 12.1-13.4 12.4-2.7.3-2.8-.5 1.2 11.5 2.9 8.6 3.3 11.2 4.1 27.5.7 14.9 1.2 18.7 2.9 22.2 1.1 2.3 2 4.9 2 5.8 0 1.3 11.8 1.5 114.5 1.5H512V0H400.1l1.6 3.7c.9 2.1 1.9 6.3 2.2 9.3l.6 5.5 5.8 1.1c10.5 2.1 16.1 5.5 19.4 11.7 3.2 6.3-1.6 13.8-10 15.7-2.8.6-9.3 2.5-14.4 4.1-12 3.8-14.9 3.7-21.2-.5-4.7-3.2-5.5-3.4-10.9-2.9-9.5.9-16.3-1.7-23.2-8.5-10.3-10.4-14-22.4-10.3-33.5l2-5.7H0zM448 5.9c0 2.6-1.6 3.5-2.4 1.5-1-2.5-.7-3.4.9-3.4.8 0 1.5.9 1.5 1.9M194 19c0 .5-.4 1-1 1-.5 0-1-.5-1-1 0-.6.5-1 1-1 .6 0 1 .4 1 1m56 23.7c0 4.6-.9 5.3-3.5 2.6-3.7-3.6-4-8.8-.7-9.6 2.6-.6 4.2 2.2 4.2 7m234.4 2.5c-.3.4-1.2.8-2 .8s-1.4-.4-1.4-.8.9-.8 1.9-.8c1.1 0 1.7.4 1.5.8M394 76.6c0 .8-1.3 2.8-2.9 4.6-2.3 2.5-3.3 3-4.1 2.1-1.6-1.4-.4-7 1.7-8.2 2.1-1.1 5.3-.2 5.3 1.5m-97 18.8c0 1.1-1.9 1.5-2.5.6-.3-.5.1-1 .9-1 .9 0 1.6.2 1.6.4m-114.8 7.3c2.3 2.1 2.4 6.3.1 6.3-2.2 0-5.3-2.9-5.3-5 0-3.3 2.3-3.9 5.2-1.3m-98.9 37.2c1.4.5 3.9 3.1 5.6 5.7 2.9 4.1 3.1 5 2.1 7.4-.9 2.3-.8 3.4.5 5.9 1.8 3.5 1.3 5.1-1.6 5.1-2.3 0-2.3.1.1 7.4 1.1 3.3 2 7.3 2 9s.8 4.3 1.8 5.7c.9 1.5 2.9 4.5 4.4 6.7s3.2 4.3 3.8 4.7c1.6 1 1.2 4-.8 5.8-1 .9-3.7 1.9-6.1 2.3-2.3.4-4.5 1.2-4.8 1.9-.9 2.6 3.6 32.2 6.1 39.8 1.4 4.3 2.6 8.2 2.6 8.7 0 1.8-4.7 1-6.5-1-2.7-3-5.1-2.5-5.9 1.1-.7 3.7 2.2 8.5 6.3 10 3.9 1.5 1.5 2.4-13 4.9-6.8 1.2-14.6 2.6-17.4 3.1-23.3 4.2-50.6 6.3-55.9 4.3-3.7-1.4.2-3.7 8-4.8 2.3-.3 6.1-1.5 8.5-2.6 2.8-1.2 6.6-2 10.3-2 7.1 0 28.7-2.9 30-4 .4-.5.5-2.2.1-3.9-.5-2.5-1.3-3.2-4.2-3.7-4.5-.8-5-2.4-2.5-8.2 2.2-5.3 3.8-12.2 4.7-20.1.4-4 .1-6-1.1-7.9-1.3-1.9-1.5-4.1-1.2-9.3.5-6.8.5-6.9-2.8-9.4-4.5-3.5-5.1-6.3-2.2-10.6 4.6-6.9 12.1-23.5 12.1-26.8 0-1.4-.2-6.2-.3-10.7-.3-9.5.8-11.8 6.5-14.5 3.9-1.9 5.9-1.8 10.8 0m191.2 35.8c0 .5-1.9 3.1-4.3 5.8-3 3.5-4.6 4.5-5.3 3.8-1.5-1.5.7-7.9 3.4-9.8 2.2-1.5 6.2-1.4 6.2.2m137 .4c1 1.5-.1 2.3-2 1.5-.9-.3-1.3-1-1-1.6.8-1.3 2.2-1.3 3 .1m-268.8 74.1c-.3.8-.6.5-.6-.6-.1-1.1.2-1.7.5-1.3.3.3.4 1.2.1 1.9m361.1 19c.2 1.2-.3 1.8-1.6 1.8-2.2 0-4.6-2.3-3.5-3.4 1.3-1.3 4.8-.1 5.1 1.6"/><path d="M72 262v4h8v-8h-8zm166.6-134.5c-.8 3-.1 4.5 2 4.5 1.1 0 1.3-.7.8-2.8-1-4-2.1-4.7-2.8-1.7m36.4 22.8c-.1 1.7 5.1 8.6 8.1 10.7 2.9 2.2 3.1 2.2 2.1.3-1.4-2.6-10.1-12-10.2-11m-66.2 25.3c-2.1 1.3-3.8 2.7-3.8 3.1 0 4.6 3.7 26.1 5.2 30.1 1.9 5 3.8 6.2 3.8 2.3 0-1 .9-3 2.1-4.5 2.4-3 1.9-4.1-2.5-6l-3.3-1.4 3.3-6.8c2.7-5.6 3.4-8.1 3.4-13.2 0-5.8-.1-6.2-2.2-6.1-1.3 0-4 1.1-6 2.5M246 324c-4.3 2.4-7.9 2.5-10.9.4-2.2-1.6-2.4-1.6-3.3 0-1.1 2-7.2 2-10.6-.1-1.9-1.2-2.3-1.2-2.9.2-.4 1.1-1.3 1.5-2.9 1.1-2.8-.7-2.7-1-5.4 17.9-1.2 8.2-2.7 18.4-3.5 22.5-.7 4.1-1.1 9.9-.8 12.7l.6 5.3h59.4l.6-4.9c.4-3.2-.1-7.7-1.3-12.8-1-4.3-3.2-14.7-5-23.1-3.9-19.1-4.4-20.5-7-19.7-1.1.4-2 .2-2-.4 0-1.5-.9-1.3-5 .9"/></svg>