<svg xmlns="http://www.w3.org/2000/svg" width="682.667" height="512" version="1.0" viewBox="0 0 512 384"><path d="M0 192v192h188.9l1.1-4.3c.6-2.3 1.7-4.7 2.4-5.2.9-.8 1-3.9.3-13.4-1.1-14.9.3-38.4 2.4-40.1.4-.3.9-1.5 1.3-2.6.5-1.8.2-2.2-2.4-2.7-1.6-.4-3-1.3-3-2.1 0-.7-.9-1.6-2-1.9-1.7-.4-1.8-.2-1 1.4.8 1.5.7 1.7-.5 1.3-.8-.4-1.5-.1-1.5.5 0 2.2-1.8 1-3-1.9-.9-2.1-1.9-3-3.6-3-1.3 0-2.4.4-2.4 1 0 3.1-5.4-.7-10.2-7.1-3.6-4.8-10-11.5-11.6-12-.7-.2 8.3-8.2 20-17.6 11.8-9.4 21.9-17.7 22.5-18.5 1.2-1.4 5.3-19.9 5.3-23.8 0-1.1-.3-1.9-.8-1.6-1.7 1-31.5 6.6-43.2 8.1-19.1 2.4-18 2-18.1 6.8 0 3.2-.2 3.7-.9 2.2-.4-1.1-.6-3-.3-4.1.4-2.1.2-2.2-5.9-1.7-4.8.4-7.2.1-9.6-1.1-2.9-1.5-5.9-5.2-5-6.2.2-.2 5.8-1.1 12.4-2 13.1-1.9 12.5-1.7 12.8-3.6.1-.7.5-1.8.9-2.5.4-.6 0-1.9-.9-2.7-1.3-1.3-1.4-1.9-.4-3.1 1.5-1.8 5.8-1.5 7.1.6 1.4 2.2 1.1 2.6-2.1 3.8-4 1.3-3.9 3.7.3 4.4 2.7.4 14.2-1.8 47.9-9 1.5-.3 2.5-.9 2.2-1.4-.8-1.4-5.2-1.1-7.7.6-3 1.9-5.2.4-5.2-3.7 0-3.3-.2-3.4-11-7.9-6-2.5-14.6-6.2-18.9-8.2-4.4-2.1-9-4-10.3-4.3-1.6-.4-2.3-1.3-2.3-2.9 0-4.6 2.1-4.7 10.1-.5 4.1 2.1 13.2 6.2 20.3 9.1 10.3 4.1 13.3 4.9 14.5 4 4-2.8 6-3.4 7.6-2.1.9.7 1.3 2.1.9 3.5-.4 1.5 0 2.4 1.2 2.9.9.4 1.7.5 1.8.4.1-.2 1.2-1.5 2.5-3l2.3-2.6-9.5-10.1c-5.2-5.5-9.7-11.1-10.1-12.5-.4-1.6.2-4.9 1.4-8.3 1.1-3.2 2.5-8.9 3-12.7 1.2-8.2 2.8-10.6 12-18.1 3.8-3.1 7-6.1 7-6.5 0-.5 2-1.8 4.5-3s4.5-2.7 4.4-3.3c0-.7-1.4-2.3-3.1-3.7l-3.1-2.4.5 2.2c.5 1.9.4 2.1-.8 1.1-.8-.6-1.4-.8-1.4-.3s-.9-.2-2-1.6l-2-2.5v2.5c-.1 2.4-.1 2.4-1.5.6-.9-1.1-1.5-1.4-1.5-.7 0 .9-.4.8-1.5-.3-.8-.8-1.5-2.5-1.5-3.8s-.9-4.3-2-6.7c-3.2-7-2.6-11.9 2.4-22 4.8-9.4 9.5-14.2 16.4-16.7 5.1-1.8 11.5-1.7 15.6.2l3.4 1.7 6.3-4.5c10-6.9 20.7-10.5 25.7-8.7 2.5.9 2.6 1.4 1.2 5.6-.9 2.4-.7 4.1 1.1 8.7 2.4 6.6 2.4 7.2-2.6 18.6-4.9 11.2-6.7 12.5-11.7 8.2-1.7-1.4-1.8-1.1-1.8 4.9 0 7.3-1.6 14.2-3.1 13.3-.6-.3-1.3.3-1.6 1.5-.3 1.1-.9 1.9-1.3 1.6-.5-.3-1.1-.1-1.5.5-.9 1.5-2.5.2-1.9-1.4 1.2-3.1-3.3-1.3-4.8 1.9-.9 1.7 12.4 6.1 21.2 7 7.1.8 9.8 1.9 11.8 4.7.7 1 1.9 1.8 2.6 1.8s2.1.8 3 1.9c1 1.1 4.3 2.4 7.9 3.1 6.8 1.3 22.1 5.5 23.8 6.5.6.4 2.4-.5 4-2.1l2.9-2.8 2.4 2.3 2.5 2.3 10.8-9.3c5.9-5.2 14.6-13.1 19.3-17.5l8.4-8.2-5.8-5.3c-3.3-3-7.8-6.5-10.2-7.8s-4.4-2.7-4.4-3.1c0-1.2 12.3 1.1 17.3 3.2 5.5 2.4 10.7 7.8 10.7 11.2 0 3.2-1.2 4.5-17.5 18.4-7.7 6.5-16.4 14.2-19.4 16.9l-5.3 5 1.6 3c1.4 2.9 1.4 3.2-.4 4.8-1.1 1-2 2.4-2 3.1s-.9 1.8-2.1 2.4c-1.6.9-2.5.8-4-.6-2.4-2.1-3.4-1.3-1.9 1.5 1.5 2.9.5 4.1-3.6 4.1-3.3 0-3.4.1-3.4 4 0 2.2-.4 4-.9 4s-1.1.8-1.5 1.7c-.3 1-1.7 3.3-3 5.1-2 2.6-2.3 3.9-1.6 5.7.5 1.3 1 4.5 1.2 7.1.3 5.4 1.3 4.7-11.4 8.1-4 1-6.2 2.1-5.5 2.5s-.8.8-3.3.8c-3.3 0-4.1.3-3 1 .8.5 2.9 1 4.5 1 5.5.1 8 4.3 4 6.6-1.1.7-5.3 1.5-9.3 1.9-6.6.6-7.3.9-6.9 2.6s-.1 1.9-3.9 1.9c-3.2 0-4.4.4-4.4 1.4 0 .8.4 1.8 1 2.1s.7-.1.4-.9c-.5-1.3.1-1.6 3.1-1.6 2.1 0 3.4.4 3 1-.3.5-1.5 1-2.6 1-4.2 0-1 3.7 4.3 5 1.8.4 5.6 1.6 8.3 2.5 2.8 1 7.3 2.6 10 3.5 2.8 1 12 3.9 20.5 6.4 8.5 2.6 16 5.2 16.5 5.7 1.5 1.5-3.1 4.9-6.7 4.9-4.1 0-17.1-2.7-24.4-5.1-3.3-1.1-6.9-2.1-8-2.3-1-.2-5.5-1.6-9.8-3-4.4-1.4-8-2.5-8.1-2.4-.2.2 1.8 4 4.4 8.5 5 8.6 6.2 12.9 8.1 27.5 1.2 8.7.5 13.8-2.5 17.7-.5.7-1.9 3.2-3 5.5-1.3 2.6-3.2 4.7-5.2 5.6-4.4 2-4.8 3.9-1.9 10.3 3.7 8.4 5.7 19.7 6.3 35.2.4 10.3 1.1 15.3 2.4 18.8 1.1 2.6 1.9 5.7 1.9 6.7 0 2 1.4 2 114.5 2H512V0h-63c-71 0-63.9-.9-62 8 2.2 9.6 2 9.5 11.4 9.6 11.1.1 17.9 3.2 23.6 10.7 7.4 9.9 10.9 21.9 7.5 25.7-2.9 3.2-5 2.4-10.5-3.8l-5.1-5.7-5.9 3.2c-7.5 4.2-13.4 4.4-20.6.8-6.6-3.3-16.6-13.4-21.9-22.1l-4.2-6.9-9.9-.5c-7.4-.4-10.9-1.1-13.9-2.7-4.4-2.3-11.7-9.3-14.3-13.6L321.6 0H0zM444 11c0 1.1-.7 2-1.5 2s-1.5-.9-1.5-2 .7-2 1.5-2 1.5.9 1.5 2M188.2 24.2c-.7.7-1.2.8-1.2.2 0-1.4 1.2-2.6 1.9-1.9.2.3-.1 1.1-.7 1.7m43.2 20c.3 1.3.7 3.8 1 5.6l.6 3.3-3-2.1c-4.7-3.3-5.3-9-1-9 1.2 0 2.1.9 2.4 2.2m244.1 5.9c-.7 1-3.5.1-3.5-1.1 0-.5.9-.6 2-.3s1.7.9 1.5 1.4M373.6 78.5c.4.9-.4 3.1-1.7 5-1.8 2.5-2.7 3.1-3.6 2.3-1.6-1.3-1.7-6-.1-7.6 1.7-1.7 4.7-1.5 5.4.3m126.8 5.1c2.5.9 1.9 2.4-.9 2.4-1.6 0-2.5-.6-2.5-1.5 0-1.6.9-1.9 3.4-.9m-333 23.6c3.2 4.5.9 7.9-2.8 4.2-2.3-2.3-2-6.4.5-6.4.4 0 1.5 1 2.3 2.2m-86 32.3c2.3 1 4.3 2.9 5.6 5.3 1.1 2 2.6 4.5 3.2 5.4 1 1.4.9 2.1-.7 3.8-1.7 1.8-1.7 2.5-.6 5.6s1.1 3.8-.4 5.4-1.5 2.3-.1 7.8c.9 3.3 1.6 7.1 1.6 8.4 0 2.3 5 11 9 15.6 1.1 1.3 2 2.9 2 3.6 0 2.3-3.4 4.5-8.5 5.3-4.1.7-5 1.2-4.9 2.8.3 6.8 6 32.1 8.5 38 1.6 3.8 2.9 7.5 2.9 8.2 0 2.1-2 2.5-5.2.9-4.5-2.3-6.5-2-7.2 1-.8 3.1 2.3 8.6 5.6 10.1l2.3 1.1-2.5.9c-1.4.6-6.3 1.6-11 2.2-4.7.7-12.8 2.1-18 3.1-22.7 4.4-30.9 5.4-45.2 5.4-8 .1-15-.3-15.5-.7-1.4-1.5 2.8-3.6 8.6-4.2 3.1-.3 7.6-1.5 10.1-2.7 3-1.4 7.9-2.3 15-2.9 11.4-.9 23.5-2.4 24.7-3.2.5-.3.7-2.4.5-4.6-.4-3.7-.7-4.1-3.2-4.1-4.9 0-5.3-1.8-2.5-11.4 1.3-4.8 2.8-12.3 3.1-16.7.6-6.8.4-8.2-1.1-9.9-1.5-1.6-1.7-3-1.1-8.2.5-5.2.3-6.5-1.3-8.2-3-3.4-3.4-6-1.1-8.1 1.1-1 2-2.6 2-3.6s.8-3.8 1.9-6.1c4.4-10.2 6.1-17.3 6.2-26.3.2-13.9 1.4-16.8 7.5-19 5-1.8 5.4-1.8 9.8 0M398.5 176c.3.5-.1 1-.9 1s-1.8-.5-2.1-1c-.3-.6.1-1 .9-1s1.8.4 2.1 1m-127 57c.3.6-.1.7-.9.4-1.8-.7-2.1-1.4-.7-1.4.6 0 1.3.4 1.6 1m216.9 36.6c2.5.9 1.9 2.4-.9 2.4-2.4 0-3.2-1-1.8-2.3.8-.8.8-.8 2.7-.1"/><path d="M69.3 261.6c.8 4.6.9 4.7 5.9 4.8l4.3.1-.1-4-.1-4-5.3-.3-5.3-.3zM393.9 24.9c1.7 3 3 3.4 9.7 2.3 5.9-.9 5.9-.9 2.9-2.1-1.6-.7-5.4-1.5-8.4-1.8-5.3-.6-5.3-.6-4.2 1.6m-159.2 97.8c-1.3 1.2-.7 5.4.8 6 2.4.8 2.7-.1 1.2-3.6-.7-1.7-1.6-2.8-2-2.4m17.8 35c.4 1 1.4 10 2.2 19.9 1.5 18.1 1.5 18.2-.6 20.3-2.4 2.4-2.6 3.4-1 6.3.8 1.5 1.7 1.8 3.7 1.3 2.4-.6 15.6-10.7 23.8-18.2 1.7-1.5 7.2-6.3 12.2-10.6l9.2-7.7-1.3-3.2c-1.1-2.6-2.1-3.4-5.3-4-2.1-.4-7.2-1.5-11.2-2.4-5.5-1.3-7.5-1.5-8.4-.6-2 2-14.3 1.5-19-.8-5.1-2.4-5.2-2.4-4.3-.3m-41.6 11.6c-1.4 1.2-2.9 3-3.2 3.9-.4 1.1-1.7 1.8-3.1 1.8-4.2 0-4.1 3.1.6 10.9 2.4 3.9 4.6 7.1 4.9 7.1s1.4-2 2.3-4.4c1.2-3.2 1.6-6.8 1.4-12.9l-.3-8.5zm2.1 29.6c0 .3.7 1.5 1.5 2.5 1.4 1.9 1.5 1.9 1.5-.5 0-1.6-.6-2.6-1.5-2.6-.8 0-1.5.3-1.5.6m-27.9 103.9c0 1.3-.5 3.1-1 4-.6 1.1-.4 2.1.5 2.9 1.9 1.8 2.3.5 1.4-4.7-.4-2.5-.8-3.5-.9-2.2m46 19.3c-.9 1.5-2.1 1.9-4.9 1.6-2.1-.1-4.3-.6-4.9-1s-2.2-.3-3.6.2-2.7.7-3 .5c-1.2-1.2-2.5 3.5-3.1 11.1-.4 4.4-1.1 9.7-1.7 11.8-2.4 8.9-4.7 27.1-4.2 32.2l.6 5.5h59.6l.3-4.2c.2-2.4-.9-9-2.3-14.8-1.5-5.8-3-12.5-3.4-15s-1-5-1.3-5.5c-.4-.6-.7-1.9-.8-3-.4-3.7-3.4-16.4-4.5-18.8-1.2-2.7-4.9-2.8-11.8-.2-4.3 1.5-4.6 1.5-7.1-.3-2.6-2-2.7-2-3.9-.1"/></svg>