<svg xmlns="http://www.w3.org/2000/svg" width="682.667" height="512" version="1.0" viewBox="0 0 512 384"><path d="M0 192v192h188.9l1.2-4.3c.6-2.3 1.4-4.7 1.8-5.2.3-.6.6-10.7.6-22.5 0-20 .2-22 2.4-28.3l2.3-6.8-2.3-2.6c-1.3-1.4-3.5-2.9-4.8-3.4-1.8-.8-2.2-1.5-1.8-3.6.3-1.5 0-3.7-.6-5-1.2-2.7.4-13.4 3.3-22.3 3.4-10.4 4.9-16.5 8-31.7 1.6-8.4 3-15.7 3-16.2s-1.5-.5-3.7 0c-12.7 3.1-31.4 6.9-41.3 8.3-12.8 1.9-19 3.3-19 4.4 0 .4.4 2.2.9 4 .8 2.5.7 3.2-.5 3.2-.8 0-1.6-1.5-2-4-.5-3.1-1.1-4-2.8-4.1-9.4-.6-11.9-1-14.1-2.6-2.3-1.7-3.9-4.2-3.2-4.9.5-.5 16.7-3.7 20.2-3.9 1.7-.2 3.4-.3 3.8-.4.5-.1.5-1 .2-2.1-.4-1.1-.3-2 .2-1.9 2.1.4 2.2-.3.6-2.7-1.6-2.5-1.6-2.7.2-4 2.2-1.6 5.4-1 7.3 1.4 1.6 2.1 1.1 3.5-1.8 4.2-3.2.8-3.6 2.6-.7 3.2 2.8.5 13.5-1.5 35.9-6.9 14.7-3.5 15.6-3.8 14.1-5.5-1.4-1.6-1.7-1.6-4.3.4-2.3 1.7-3.1 1.8-5 .8-1.7-.9-2.1-1.9-1.8-4 .5-3.1.7-2.9-15.2-9.7-1.9-.9-5.7-2.6-8.5-3.8-2.7-1.3-7.2-3.3-10-4.5-7.8-3.3-8-3.5-8-6.6 0-3.9 3.2-4.3 9.8-1.1 12.1 5.9 22.8 10.7 23.7 10.7.5 0 2.5.9 4.5 2 3.8 2.2 7.5 2.6 7.5 1 0-.6 1.1-1.5 2.5-2.2 3.2-1.4 5.9.6 5.2 3.9-.6 3.1 2.7 4.1 5.4 1.7 1.1-1 1.6-2 1.1-2.3s-3.9-4.2-7.7-8.6-7.7-8.8-8.7-9.8c-3.4-3.3-3.6-9.8-.3-16 .7-1.5 1.5-5.6 1.7-9.2s.6-6.5.9-6.5 1.1-1.1 1.7-2.5c1-2.2.9-2.5-1.3-3.1-1.4-.3-2.5-1-2.5-1.5s-2.5-.9-5.5-.9-5.5.4-5.5 1-3.3 1-8 1-8-.4-8-1-1.1-1-2.5-1-2.5-.5-2.5-1c0-.6-.9-1-2-1-1.4 0-2-.7-2-2.1 0-2-.4-2.1-5.2-1.5-2.9.3-7.7.6-10.5.6-3.9 0-5.3.4-5.3 1.4 0 1.5-5.3 2.7-7.1 1.5-1.1-.7-1.1-2.1 1.1-19.4.6-5 1.1-9.9 1.2-11.1v-2l11.2 2.3c6.1 1.3 13.6 2.7 16.6 3.2 9.9 1.6 30.4 5.1 35 6 8.7 1.8 13 2.2 13 1.1 0-.6-.5-.8-1-.5-.6.4-1-.8-1-2.7s-.9-6-2.1-9.3c-1.3-3.7-1.8-7-1.5-9 1-5 8.3-19.3 11.3-22.2 7.1-6.6 18.4-9 25.2-5.4l3.4 1.8 6.4-4.8c9.6-7.1 22-11.3 25.7-8.6 1.6 1.2 1.7 1.8.7 4.9-1 3-.9 4.4.9 8.9 1.1 3 2 6.3 1.9 7.4 0 1.1-1.9 6.3-4.2 11.5-4.6 10.3-6.3 11.6-10.9 8.6l-2.4-1.6v6.8c-.1 3.8-.4 8.5-.8 10.6-.6 3.1-1 3.5-2.2 2.6-1.1-1-1.4-.9-1.4.5 0 1-.3 1.5-.7 1.2-.3-.4-1.5.1-2.5 1-1.9 1.7-1.9 1.6-1.3-1 .7-2.7-.7-3.8-2-1.7-.4.6-1 .8-1.5.5-.4-.3-.7.3-.6 1.2 0 1-.7 1.9-1.8 2.1-1.3.3-1.6 0-1.1-1 .5-.7.4-1 0-.5-.5.4-1.4-.4-1.9-1.8-1-2.4-1.2-2.5-2.3-.7-1.7 2.8-.2 4.2 5.3 5.2 2.7.5 6.7 1.4 8.9 2.1s7.9 1.1 12.8 1c8.1-.2 9.2 0 12.7 2.4 2.9 2 6.6 3 16.6 4.7 18.3 3 17.6 3 18.7-1.5 1.1-4.6 2.9-4.9 2.7-.5-.3 5.3-.1 5.8 2.3 5.8 1.4 0 3.2-1.2 4.5-3 1.3-1.7 2.8-3 3.4-3s3.1 2 5.5 4.5c2.3 2.5 5.1 4.5 6 4.5 1 0 5.6.5 10.3 1 21.6 2.5 40.9 4.3 45.5 4.1 2.8-.1 8.3-.9 12.2-1.7 7.4-1.6 7.8-1.9 14-10.3.2-.2.5-.2.8.1.9.9-2.4 10.5-4.6 13.2-3.8 4.8-9.4 6.9-17 6.4-3.6-.3-7.2-.9-7.9-1.3-.6-.4-3.1-.8-5.3-1-6.2-.4-32.1-3.4-40.4-4.7-7.9-1.2-10.3-.4-10.3 3.3 0 1.1-1.1 2.5-2.6 3.1-2.2 1-2.8 1-3.8-.3-.6-.8-1.9-1.8-3-2.2s-1.6-1.3-1.2-2.2c.4-1.1-.2-1.5-2.4-1.5-4.2 0-8 1.7-8 3.6 0 1.2-.6 1.5-2.5 1-1.4-.4-2.5-.3-2.5.1 0 1.1-22.7 1.5-23.4.5-.3-.5-3.1-.5-6.3-.1s-6.9.8-8.3.8c-2 .1-2.2.3-1 1.1.9.6 1 1 .3 1-.6 0-1.5-.5-1.9-1.1-.4-.8-.9-.7-1.5.2-.7 1.1-.9 1-.9-.4 0-.9-.8-1.7-1.7-1.8-1 0-3-.3-4.5-.5-1.6-.3-2.8 0-2.8.6 0 .5.5 1 1.1 1 .5 0 .7.4.4 1-.3.5-.3 1 .2 1 .4 0 .8 1.7.8 3.7 0 2.1.4 10.3.8 18.2.8 13.8.7 14.4-1.3 15.8-2.1 1.5-2.6 4.8-1.1 7.1.8 1.4 2.6 1.2 11.1-1.3 2.5-.7 8.1-2.3 12.5-3.5s10.9-3.1 14.3-4.2c3.5-1.1 6.7-1.6 7.1-1.2 1.5 1.7 3.4 10.5 2.5 11.4-.5.4-3.4 1.5-6.4 2.2-16.3 4.3-34.5 9.1-34.7 9.3-.5.3 5.4 14.6 6.3 15.3 2.2 1.8 20.7 8.2 51.7 17.7 6.4 2 11.7 4 11.7 4.5 0 1.6-4.4 4-7.5 4-4.5 0-21.3-4.3-36.5-9.3-7.4-2.5-13.6-4.4-13.7-4.3s1.6 3 3.7 6.4c2.2 3.5 4.9 8 5.9 10.1 2.5 4.9 6.5 23.3 6.3 28.9-.2 4.1-3.6 12.7-6.5 16.3-1.2 1.6-5.9 4.3-8.9 5.3-2.3.7-2.3 3.4.2 9.8 3.9 10.2 5.3 17.4 6.5 34.8.9 11.6 1.9 19.3 3.2 22.7l1.8 5.3H512V249.5c0-89-.3-134.5-1-134.5-.5 0-1-.9-1-2s.5-2 1-2c.7 0 1-19.2 1-55.5V0h-65c-45.5 0-65 .3-65 1.1 0 1.5 5.9 15.5 8.7 20.5 3.5 6.2 4.5 6.8 11.8 6.5 6.5-.2 10.2 1 15.4 5.1 3 2.3 4 1.5 1.5-1.3-2.4-2.7-8-5.2-16.9-7.3-10.1-2.5-10.3-2.5-8.5-3.6 2-1.3 15.6-1.2 20.3.1 10.5 2.9 18.7 18.2 14.5 27.4-1.6 3.6-6.3 3.4-10.8-.5-1.9-1.6-4-2.9-4.7-3-.6 0-4 1.3-7.5 3-10 4.8-16.3 3.6-26.7-4.8-5.5-4.5-14.7-16.1-18.5-23.3l-2.9-5.6-11.6.1c-10.8.1-12-.1-16.8-2.6-2.8-1.5-6.9-4.8-8.9-7.3L316.6 0H173.9C60.6 0 31.1.3 30.7 1.2c-.3 1-.9 1-2.6 0C26.7.4 21.6 0 13 0H0zM442.6 12.1c.3.6.1 1.6-.5 2.2-.9.9-1.4.8-2.1-.3-.5-.8-1-1.8-1-2.3 0-1.1 2.8-.8 3.6.4M187 25c0 .5-.5 1-1.1 1-.5 0-.7-.5-.4-1 .3-.6.8-1 1.1-1 .2 0 .4.4.4 1m37.6 20.1c.4.6 1 2.7 1.4 4.5.6 2.6.5 3.4-.6 3.4-2 0-5.4-3.7-5.4-5.9 0-2.6 3.3-4.1 4.6-2M472.5 50c.3.6-.1 1.3-1 1.6-1.9.8-3 0-2-1.5.8-1.4 2.2-1.4 3-.1M364.4 77.6c2.1.8 2 3.4-.4 6.4-1.7 2.1-2.1 2.3-3 1-1.4-2.1-1.2-6.7.3-7.3.6-.3 1.3-.6 1.4-.6.1-.1.8.2 1.7.5m131.9 6.9c-.4 1.5-3.6 1.2-4.1-.3-.3-.9.3-1.3 1.9-1 1.3.1 2.3.7 2.2 1.3m-332.9 24.7c2.1 2.9 2 5.8-.1 5.8-2.2 0-5.3-2.9-5.3-5 0-3.6 3.1-4.1 5.4-.8M81.7 140c2.7 1.3 4.5 3 5.4 5.2.7 1.8 1.9 3.7 2.6 4.1 1.9 1.2 1.6 3.8-.7 6.2-1.8 1.9-1.9 2.6-1 5.1.8 2.1.8 3.4-.1 5-.9 1.7-.9 3.4 0 6.8.6 2.5 1.1 6.2 1.1 8.4 0 3.9 1.2 6 8.4 14.8 4.7 5.7 3.3 9-4.2 10-2.9.4-5.5 1.1-5.8 1.5-1 1.7 5.8 32.5 8.7 39.4 1.6 3.8 2.9 7.5 2.9 8.2 0 2.1-2 2.5-5.2.9-3.7-1.9-6.8-2.1-6.8-.4 0 .7-.3 2.2-.6 3.4-.4 1.5.5 3.2 3 5.9 2 2.1 3.5 4 3.2 4.2-.2.2-4.6 1.1-9.7 1.9-9.6 1.5-23.9 4.1-38.9 7-10.4 2-38.8 3-41 1.4-2.4-1.7 1.2-3.7 8.2-4.5 3.4-.4 8.4-1.8 11.2-3.1 3.6-1.7 7-2.4 11.6-2.5 3.6 0 11-.6 16.5-1.3l10-1.1-.3-3.5c-.4-5.1-.9-6-3.5-6-4.3 0-4.9-2-2.7-8.5 4.2-12.2 5.4-27.7 2.4-30-1.5-1-1.6-2.3-1.1-8.3.5-4.6.3-7.3-.4-7.7-2.2-1.4-2.9-5.4-1.4-8.2 6.6-13.2 9.4-22.9 10-34.4.8-15.6 2-18.2 9-20.7 4.2-1.5 4.6-1.4 9.2.8m177.6 17.7c-.7.2-1.9.2-2.5 0-.7-.3-.2-.5 1.2-.5s1.9.2 1.3.5m19 0c-1.3.2-3.3.2-4.5 0-1.3-.2-.3-.4 2.2-.4s3.5.2 2.3.4M393.5 176c.3.5-.1 1-.9 1-.9 0-1.6-.5-1.6-1 0-.6.4-1 .9-1 .6 0 1.3.4 1.6 1m-111.4 45c1 .6 1.9 1.5 1.9 2 0 2.2-15.2 4.2-16.5 2.1-.3-.5.7-1.9 2.1-3 2.9-2.3 9.2-2.8 12.5-1.1m202.4 50.1c.4.6.5 1.3.2 1.6-.8.7-4.7-.7-4.7-1.8 0-1.3 3.7-1.1 4.5.2"/><path d="M68 258.8c0 .5.5 2.3 1.1 4.1 1.1 3.2 3.8 4.5 8 3.9 2.1-.3 2.4-.9 2.4-4.3v-4l-5.7-.3c-3.2-.2-5.8.1-5.8.6m137-134.3c0 .8.7 1.5 1.5 1.5.9 0 1.2-.6.9-1.5-.4-.8-1-1.5-1.5-1.5s-.9.7-.9 1.5m6-.3c0 1.9 2.5 4.1 4 3.6.6-.2 0-1.4-1.4-2.7-2-1.9-2.6-2.1-2.6-.9m1.1 44.7c0 .8-.4 1.1-.7.8-1.2-1.1-4.4 1.3-4.4 3.3 0 2.4-3.7 5.1-5.9 4.2-1.4-.5-1.4-.3-.3 1.1.8.9 2.8 4.4 4.6 7.7l3.3 6.1 1.8-2.8c1.9-2.8 3.3-15.6 2.2-19.8-.2-1.1-.5-1.4-.6-.6m-.1 28.9c0 .5.7 1.7 1.5 2.8 1.4 1.9 1.4 1.9 1.5-.2 0-1.2-.7-2.4-1.5-2.8-.8-.3-1.5-.2-1.5.2M247.1 320c-5.1 2.4-5.8 2.4-9.3.6-2.4-1.3-2.8-1.2-4.1.7-1 1.5-1.8 1.8-3.3 1.2-1-.4-2.5-.7-3.1-.6-.7.1-2.2-.3-3.2-.9-1.4-.7-2.2-.7-2.7.1-.3.6-2.4.9-4.5.7-4.5-.4-4.1-1.3-6.4 15.7-.8 6-2.3 16.5-3.4 23.2-1.2 7.5-1.7 14.4-1.4 17.8l.6 5.5h59.5l.4-4.7c.3-3-.6-8.9-2.3-15.8-1.4-6.1-3.6-15.7-4.8-21.5-2.4-11.7-6-24-7-24-.3 0-2.6.9-5 2"/></svg>