<svg xmlns="http://www.w3.org/2000/svg" width="682.667" height="512" version="1.0" viewBox="0 0 512 384"><path d="M0 192v192h188.7l1.3-4.5c.7-2.5 1.6-4.8 2.1-5.1.4-.2.5-8.9.2-19.2-.6-18-.5-19.1 2-29L197 316l-2-3.2c-1.1-1.8-2.2-3.2-2.5-3-1.3.8-2.2-.7-3.7-6.3-1.9-7.1-1.7-8.9 4.7-35 4.7-19.3 7.9-35.4 7.2-36.1-.3-.3-5.6.9-11.8 2.5-13.6 3.6-22 5.4-39.8 8.6-7.4 1.3-13.7 2.9-14.2 3.6-.4.7-.5 2.8-.2 4.8.3 2.7.2 3.2-.6 2.1-.6-.8-1.1-2.9-1.1-4.5v-3h-8c-7.4 0-8.2-.2-10.7-2.8-2-2-2.4-3-1.6-3.5.7-.4 6.2-1.6 12.2-2.6 9.7-1.6 11.2-2.1 12.7-4.4 1.3-2 1.4-2.9.5-4.4-1.5-2.5.1-4.7 3.2-4.6 5.6.3 6.2 4.3 1.1 6.4-2 .8-3.3 1.8-3 2.1 1.5 1.6 12.6-.2 32.1-5.2 19-4.9 33.5-9.1 27.8-8.1-2.4.4-4.9-1.7-3.8-3.4 1-1.7-2.7-1.1-4.7.7-2.7 2.4-5.3.6-5.2-3.5.2-2.9-.2-3.2-6-5.6-3.3-1.3-10.6-4.5-16.1-7.1s-12.3-5.8-15.2-7.1c-2.8-1.3-5.5-2.8-5.8-3.4-.8-1.3 1.3-5 2.8-5 .7 0 6 2.3 11.7 5.1 5.8 2.9 15 7 20.5 9.3l10 4.1 2.2-2.2c1.2-1.3 2.7-2.3 3.2-2.3 1.8 0 3.9 3 3.4 4.9-.6 2.2 2.7 3.7 5.2 2.4 1.2-.7.2-2.5-5.2-9.3-3.6-4.7-6.9-8.7-7.3-9-2.1-1.7-5-7.2-5-9.7 0-1.5 1.1-6 2.5-9.8 1.3-3.9 2.5-8.7 2.5-10.7s.4-4.7.9-6c1-2.7 12-13.7 15.6-15.6 1.4-.7 2.5-1.8 2.5-2.5s2.1-2.3 4.6-3.6l4.7-2.2-2.9-3c-2.8-2.9-2.9-3-3.2-.9-.3 1.7-.9 2.1-2.8 1.7-1.3-.2-2.7 0-3.1.6s-1 .5-1.7-.5c-.6-.8-1.8-1.7-2.6-2-2-.7-5-12.2-5-19.2 0-9 4.3-19 11-25.6 3-3 6.2-5.7 7-6 1.8-.6 16.5-.4 20 .2 2.8.6 8.4-2.7 7.4-4.3-.3-.5-.2-.9.3-.8 1.6.4 4.3-1.3 3.6-2.4-.4-.6 0-.8.8-.5.9.3 2.6-.2 3.9-1.2 2.3-1.7 2.3-1.9.7-4.4-1-1.4-2.2-2.6-2.7-2.6-.6 0-1-.7-1-1.5s-.7-1.5-1.6-1.5c-2.1 0-4.3-2.3-5.5-6-.6-1.6-1.5-3-2-3s-.9-.5-.9-1.1-.7-1.7-1.5-2.5c-.8-.9-1.5-2.5-1.5-3.7-.1-2.8-2.3-5.7-4.3-5.7-1 0-1.8-1.3-2.2-4-.4-2.5-1.2-4-2.1-4-1 0-1.4-1.5-1.4-5.9 0-3.3-.5-6.1-1-6.3-.7-.2-.8-1.9-.4-4.6.6-3.9.9-4.2 3.8-4.2 1.7 0 5.1-.7 7.6-1.4C237.9.3 225.5.1 132.3.1 36.4 0 26 .2 26 1.6c0 1.1-.6 1.4-2.2.9-1.3-.4-2.7-1.1-3.3-1.6C20 .4 15.2 0 9.8 0H0zM187.8 25.3c.2 1 .1 2.9-.2 4.2-.6 2.2-.9 2.3-3.6 1.3-3.2-1.1-3.7-2.7-1.9-5.9 1.3-2.5 5.2-2.2 5.7.4m33.5 21.9c2.2 4.9 2.9 9.8 1.4 9.8-.8 0-.7.4.3 1 .8.5 1.3 1 1 1.1-.3 0-1.3.2-2.3.4-2.5.5-8.5-5-10.3-9.3-.8-1.9-1.3-3.6-1.2-3.7 1.9-1.4 4.8-2.4 6.9-2.5 2.1 0 3 .8 4.2 3.2m-60.9 64c1.9 5.3-1.9 7.7-6.2 3.9-2.6-2.2-2.9-5.6-.5-6.9 2.4-1.4 5.6.1 6.7 3m-79 29.1c2.2 1.2 4.4 3.1 5 4.2.5 1.1 1.9 3.3 2.9 4.8 1.8 2.7 1.8 2.9 0 5.5-1 1.5-1.9 4.7-2 7.2s-.2 5.2-.3 6 .2 5.1.7 9.6c.9 8.4 1.3 9.2 9.1 18.3 2.7 3.3 3.1 4.3 2.3 6.4-.7 1.8-2 2.6-4.8 3.1-6.4 1.2-7.3 1.6-7.3 3.9 0 5.1 7 32.8 9.9 39.1 1.7 3.7 2.8 7.2 2.5 7.7-.8 1.4-3.8 1.1-6-.6-2.3-1.8-6.4-2-6.4-.3 0 .7-.3 2.2-.6 3.3-.3 1.4.6 3.3 3.1 6.2l3.5 4.1-2.7.6c-1.6.3-7.1 1.3-12.3 2.1-9.2 1.4-15.2 2.5-33 6.1-9.9 2-39.7 3-42 1.5-2.4-1.7.1-3.1 7.4-4.2 3.8-.6 9.1-2.2 12-3.5 3.2-1.5 6.9-2.4 10.1-2.4 7.6 0 26.9-2.2 27.6-3.2.3-.4.3-2.3.1-4.3-.4-3-.8-3.5-3.9-4.1-1.9-.4-3.7-1.2-3.9-1.9-.3-.7.4-4.3 1.5-8 1.1-3.6 2.6-11.5 3.3-17.6 1.2-10.8 1.2-10.9-1-12.5-2.3-1.6-2.9-6.7-1.3-10.9.5-1.3.2-3.2-1-5.4-1.9-3.7-1.9-3.7 3.2-14.7 1.6-3.4 2.9-7 2.9-8s.8-3.8 1.7-6.2c1.3-3.5 1.4-4.8.5-6.3-.8-1.3-.9-2.6-.1-4.6.5-1.5 1.4-5.8 1.9-9.7 1-7.8 2.4-9.8 8.5-12 5.1-1.9 4.4-1.9 8.9.7"/><path d="M67.7 258.7c-.2.4.2 2.3.9 4 1.4 3.4 4.3 4.7 8.5 4.1 2.1-.3 2.4-.9 2.4-4.3v-4l-5.7-.3c-3.1-.2-5.8.1-6.1.5m185.7-245c4.6 7.6 10.3 16.9 12.6 20.8 5 8.1 20.1 31 29.1 44 6.1 8.9 15.5 22.5 23.1 33.7l3.9 5.8 3.2-1.3c1.8-.8 3.8-1.2 4.5-1 2 .7 1.4 3.8-1.2 6.2l-2.3 2.2 5.8 5.6c6 5.7 7.1 7.9 4.4 8.9-1.6.6 8.8 14.9 26 35.9L372 186l-1.2 4.1c-.8 2.3-2.5 4.9-4.1 6.1l-2.7 1.9 4.2 5c2.2 2.7 3.9 5.2 3.5 5.5-.6.6-5.6-2.5-9.4-5.9-2.7-2.4-3.1-9.1-.8-12.4 1.7-2.4 1.6-4.3-.2-5.8-.7-.5-4.1-4.9-7.5-9.6-18.4-25-21.4-28.8-22.9-28.9-.9 0-1.9-.6-2.2-1.4-.4-.9-1.4-1.2-2.8-.9-1.9.5-2.1.3-1.6-1.9.7-2.6.7-2.6-3.6-1.6-2.3.5-7.3 2-11.2 3.2-4.1 1.4-11 2.7-16.7 3.1-7.6.5-10 1.1-11.4 2.6-1 1.1-3 1.9-4.9 1.9-1.8 0-4.6.5-6.3 1.1-2.3.8-5 .7-10.9-.4-4.3-.8-8-1.3-8.2-1.2-.1.2.4 3.2 1.2 6.7.9 3.5 1.9 13.2 2.3 21.6.7 14.8.6 15.4-1.5 17.3-2.4 2.3-2.5 2.8-1.1 6.4.8 2 1.5 2.5 2.8 2 2.3-1 36.5-11.5 37.4-11.5 1.1 0 4.1 10.1 3.2 11-.5.5-9 3.2-18.9 6.1-9.9 2.8-18.1 5.3-18.3 5.4-.1.1.9 2.7 2.2 5.8 2.5 5.6 2.5 5.6 5.8 4.6 4.3-1.2 10.8-1.2 10.8.1 0 1.4-3 2.7-7.8 3.3-4.9.5-5.7 1-4 2.4 1.8 1.4 27.1 10.1 45.9 15.8 8.5 2.6 15.9 5.1 16.4 5.7 1.7 1.6-2.5 3.8-7.4 3.8-5.4 0-17.8-3.2-36-9.3-7.2-2.4-13.1-4.1-13.1-3.9 0 .3 2.7 4.7 6 9.7 3.4 5.4 6.8 12.1 8.1 16.1 1.1 3.8 2.7 8.7 3.5 10.9 2.2 6.3 1.7 11.6-1.5 18.2-3 5.9-9.7 11.8-12.4 10.7-.7-.2-2.3.6-3.5 1.9l-2.2 2.4 2.4 6.5c4.4 11.6 5.7 18.9 6.6 35.4.6 13.2 1.2 17.3 3.1 22.3l2.4 6.1H512V119.8l-2.2-1.9-2.3-2 2.3-1.5 2.2-1.6V0H377.8l6.2 11.7c8.1 15.5 8.9 16.3 15.7 16.3 5.2 0 5.3-.1 4.2-2.2s-1-2.1 4.3-1.5c11.1 1.3 17.7 5 20.4 11.4 1.2 2.8 1.2 3.8 0 6.8-1.8 4.2-5 5.2-10.9 3.6-3.7-1.1-5.1-.9-11.6 1.4-9.5 3.2-13.8 3.2-20.4-.1-6.9-3.5-20.2-17.1-25.7-26.3-3.1-5.2-4.8-7.1-5.9-6.8-.9.3-4.3 1.5-7.6 2.7-4.9 1.8-7.4 2.1-13.7 1.7-10.7-.7-18.6-5-24.1-13L304.8 0h-59.7zm187.2 1.9c-.5 1.3-1 1.4-1.8.6-.6-.6-.8-1.8-.4-2.8.5-1.3 1-1.4 1.8-.6.6.6.8 1.8.4 2.8M470 52c0 .5-.9 1-2 1s-2-.5-2-1c0-.6.9-1 2-1s2 .4 2 1M357.8 78.3c.8 1 .6 2.2-.9 4.6-1.7 2.8-2.1 3-3.4 1.7-1.8-1.8-1.9-4.8-.3-6.4s3.3-1.5 4.6.1m133.6 5.6c.7 1.1-2.2 2.3-3.5 1.5-.5-.3-.9-.9-.9-1.5 0-1.2 3.7-1.2 4.4 0m-101.7 92.7c-.3.3-1.2.4-1.9.1-.8-.3-.5-.6.6-.6 1.1-.1 1.7.2 1.3.5m89.4 95c1.1 1.4 1 1.5-1.1 1.2-1.3-.1-2.5-.9-2.8-1.6-.5-1.7 2.3-1.5 3.9.4"/><path d="M253.5 62c-.3.5-.1 1 .4 1 .6 0 1.1-.5 1.1-1 0-.6-.2-1-.4-1-.3 0-.8.4-1.1 1M270 91.7c0 1.5-.2 1.6-1 .3-.9-1.3-1-1.3-1 .1 0 2.1-4.5 11.2-6.2 12.6-1.7 1.3-6 2.4-5.3 1.3.3-.5-.4-1.4-1.5-2-2-1.1-2-.9-1.5 5.9.3 4.2.1 7.2-.5 7.6-.5.3-1 1.6-1 2.8 0 1.7-.2 1.9-.9.8s-1.2-.6-1.9 2c-.6 1.9-1.1 2.6-1.1 1.4-.1-1.5-.4-1.6-1.3-.7-1.8 1.8-2.8 1.5-2.8-.8 0-2.8-1.4-2.5-2.8.5-1 2.1-.9 2.6 1 3.6 1.3.7 5.4 1.1 9.3 1 3.8-.1 9.9-.3 13.5-.3 5.8-.2 10 .7 15.2 3.3 2.1 1.1 16.6 1.1 22.2.1 2.1-.4 3.7-1.2 3.5-1.7-.2-.6-.7-.9-1.1-.7-.5.1-.8-.3-.8-.9 0-1.1-7.5-9.2-22.3-24-6.1-6.1-9.7-10.5-9.5-11.5.2-.9-.3-1.9-.9-2.1-.8-.3-1.3.3-1.3 1.4m-37.6 30.7c-.7 1.9.3 3.6 2.1 3.6.8 0 1.1-.7.8-2-.7-2.7-2.2-3.5-2.9-1.6m84.2 7.1c-1.9 1.4-1.8 1.5 1.3 1.5 2.9 0 3.2-.2 2.1-1.5-.7-.8-1.3-1.5-1.4-1.5 0 0-1 .7-2 1.5M210.5 167c-.5.5-3.2 2.9-6 5.4l-5 4.5 3.7 7.5c2.1 4.2 4.2 7.6 4.7 7.6s1.8-2.2 3-4.9c1.6-3.7 2.1-7 2.1-13 0-7.9-.4-9-2.5-7.1m-.1 30.9c2 3.7 3.2 4 3.8.6.4-1.6.1-2.5-.8-2.5-.7 0-2-.3-2.9-.6-1.6-.6-1.6-.5-.1 2.5m39.1 120.7c-2.3 1.7-5.5 1.8-9 .2-2.1-.9-2.7-.9-3.8.5-1.2 1.7-6.4 1.8-10 .2-1.1-.4-2.3-.3-3 .4-1.5 1.5-5.2 1.4-7.7-.1-1-.7-2.2-.9-2.5-.6-1.8 1.8-8.5 53-7.8 59.5l.6 5.3h59.5l.5-4.8c.3-3.2-.6-8.9-2.9-18.2-1.8-7.4-4-17.3-4.9-22-1.7-9-5.2-20.7-6.3-21.4-.4-.2-1.6.2-2.7 1"/></svg>