<svg xmlns="http://www.w3.org/2000/svg" width="682.667" height="512" version="1.0" viewBox="0 0 512 384"><path d="M316.4 22c-11.8 1.7-24.8 7.5-25.8 11.5-.6 2.4-.7 2.5-3.1.9-3.7-2.4-17.5-1.5-21.3 1.3l-2.7 2-1.8-2.3c-2.6-3.5-10.5-5.4-21.9-5.4-13.6 0-29.3 3.7-28.6 6.8.1.4-.4 1.9-1 3.3-1.3 3.2-.4 10.9 1.2 10.9.8 0 1.1 1.3 1 3.5-.2 1.9.1 3.7.6 4 .6.4 1 1.9 1 3.4 0 1.6.6 3.4 1.4 4 .8.7 1.2 2.1.9 3.2s.1 2.7 1 3.7c.8.9 2.4 3.6 3.6 5.9 2.3 4.7 3.4 5 8.8 2.8 2.9-1.2 3.8-1.3 4.5-.3.8 1.2.5 8.8-.8 18.9-.6 4.8 1 7.4 4.5 7.4.8 0 2.2 1.3 2.9 2.8 1.2 2.4 1.1 4.3-.2 12.8-2 12.5-2 14.3 0 10.6 2.2-4 2.7-3.3 1.8 2.5-.4 2.9-.7 7.5-.6 10.1.2 4.5-.1 5.1-4.7 9.6-4.4 4.2-5.3 6-7.9 14.2l-2.9 9.4-4.7.7c-5.9.8-8.9 2.8-10.6 6.8-1.2 2.8-1.1 3.8.8 8.2l2.1 5.1-6.1 11.1c-3.3 6.1-11.1 18.4-17.2 27.3-15.4 22.6-15 21.5-13.5 31.1 1.1 7.2 1 8.2-1 13.5-1.1 3.2-2.1 6.8-2.1 8 0 2.9 2.5 6.4 6.2 8.7 2.8 1.7 3.4 3 6.3 14.7 3.8 15.3 7.3 23 12.2 27.3 2.8 2.5 4.2 3.1 6.4 2.6 5.6-1.1 5.5 1.5-1.1 21.1-3.3 9.8-6 17.9-6 18 0 .2 33.5.3 74.4.3h74.4l-2.5-9.3c-1.3-5-4.5-16.2-7-24.7-5.9-20-5.9-20.1-3.2-16 1.2 1.9 3.4 5.3 4.8 7.5 4.2 6.5 19.7 26.6 24.3 31.5 2.5 2.7 4.5 5.9 4.9 8 .6 3.1.7 3.2.8.7.1-2.1.6-2.7 2.4-2.7 1.3 0 3.4-1.1 4.7-2.5 4.2-4.5 3.9-12.2-1.1-31-3.8-14.4-4.3-17-4.1-26 .2-5.7-.4-12.8-1.2-16.5-1.4-6.4-1.4-6.6 1.5-13.4l2.9-6.9-2.6-4.6c-1.5-2.5-7.9-12.8-14.1-22.9-11.2-17.9-11.5-18.4-12.8-27-.7-4.8-1.6-10.5-2-12.7-.6-3.5-.2-4.6 2.9-9 5.4-7.6 4.7-9.6-4.1-11.8l-4.8-1.2-1.1-14.5c-.6-9.3-1.5-15.3-2.5-16.8-.8-1.2-4-4-7.1-6.2s-6-4.9-6.3-6c-.8-2.5.3-8 1.6-8 .5 0 .9-1.4.9-3.1s.4-2.8 1-2.4c.7.4 1-5.8 1-17.7 0-19.4.3-20.8 4.6-20.8 2.3 0 5.4-3.3 5.4-5.9 0-.7-1.7-4.1-3.9-7.5-2.1-3.4-4.2-7.6-4.6-9.4l-.7-3.3 6.3.3 6.3.3 1.4-4c.8-2.2 1.7-4.7 2-5.5s1.6-8.5 2.8-17l2.2-15.5-2.8-4c-2.3-3.3-3.5-4.1-7.1-4.7-5.6-.8-12.9-.8-19.5.2M212.5 340.6c-1.1 2.6-1.9 3.4-2.6 2.7s-.3-2.2 1.2-4.8c2.7-4.6 3.6-3.2 1.4 2.1"/></svg>