<svg xmlns="http://www.w3.org/2000/svg" width="682.667" height="512" version="1.0" viewBox="0 0 512 384"><path d="m5.1 2.6 2.4 2.7-3.8-.6L0 4.1V384h188.8l.7-3.8c.4-2 1.3-4.4 2.1-5.3 1.2-1.3 1.2-3.6 0-16-1.5-15.9-1-22.6 2.6-37.6l2.2-9.3-2.5-2.6c-1.3-1.4-3.4-3-4.7-3.5-1.2-.5-2.4-1.4-2.6-2.1s-1.1-3.6-2-6.5c-1.6-4.8-1.6-5.8-.1-14.5.8-5.1 3.1-14.5 5-20.8 4.1-14 7.7-28.1 7.3-28.5-.2-.2-5.9 2.1-12.8 5.1-19.9 8.8-43.4 17.9-57.7 22.3l-13.2 4.2.4 3.2.5 3.2-1.1-2.8c-1-2.4-1.5-2.8-3.8-2.3-1.4.4-5.1.9-8.1 1.2-4.6.5-5.9.3-7.9-1.3-3-2.5-2.3-4.9 1.7-5.8l2.9-.6L95 257c-1.6-1.7-3.8-3.1-5.1-3.2-1.9-.3-2.4.3-3 3.2-.8 3.7.5 6.8 4.3 10.2 1.1.9 1.5 1.8 1.1 2.1-.5.3-7.1 1.5-14.8 2.6-7.7 1.2-16.2 2.6-19 3.1-2.7.5-8.8 1.7-13.5 2.6-16.8 3.1-42.8 3.6-43.7.8-.5-1.5 1.6-2.3 9.1-3.3 3.4-.5 8.7-2.1 11.8-3.5 4.9-2.3 7.6-2.7 21.2-3.4 8.6-.5 15.8-1.1 16.1-1.4s.2-1.8-.1-3.5c-.4-2-1.4-3.3-3.5-4-1.6-.6-3.2-1.8-3.5-2.7s.5-5.8 1.9-10.9c1.5-5 2.9-11.7 3.3-14.8.6-5.7-.1-12-1.4-11.7-1.5.4-5-1.4-5.6-2.7-.3-.9.8-3 2.4-4.9 3.5-4 3.6-4.5 1-8.8-1.4-2.5-1.8-4.4-1.3-7.1.3-2 .9-3.7 1.4-3.7s1.8-3.3 2.9-7.3c1.2-3.9 2.8-9.2 3.7-11.6 1.6-4.4 1.3-5.2-2.1-6.4-.4-.1.1-1.8 1.3-3.7 1.2-2.1 2.1-5.2 2.1-7.6 0-8.7 3.2-12.5 11.7-13.9 5.2-.8 9.4 1.9 11.7 7.6.8 2 2 4 2.6 4.4 1.5.9 1.2 2.2-1.1 4.3-1.4 1.4-2 3.2-2 6.3.1 2.4 0 5.5-.1 6.9s-.1 5.6.1 9.5l.2 7 6 4.9c5 4.1 5.9 5.4 5.9 8.1 0 3.7-1.3 4.9-5.4 5.4-5.2.5-7.9 2-7.3 3.9.3.9 2.6 8.4 5.1 16.6 2.6 8.1 6 18.2 7.6 22.4 1.7 4.1 2.8 8.2 2.5 8.9-.3 1 .1 1.3 1.3.9.9-.3 4.3-1.2 7.5-2.1s6.7-2.6 7.7-3.8c1.2-1.2 2-1.5 2-.8 0 .8.8 1 2.3.6 4.9-1.5 31.4-12.1 50.2-20.2l20.1-8.6-.4-3.2c-.2-1.7.3-4.8 1.2-6.9 1.9-4.7 1.2-6.3-1.6-3.6-2.7 2.5-3.1 2.5-5.3 0-1.5-1.6-1.6-2.2-.5-3.5.8-1 .9-1.9.4-2.5-.5-.4-9.4-5.2-19.9-10.5-21.5-10.9-22.9-11.9-21.4-14.6.5-1.1 1.6-1.9 2.3-1.9s5.3 2.3 10.1 5.1c4.8 2.7 13.5 7.3 19.4 10.1 5.8 2.8 10.9 5.2 11.2 5.4.4.2 1.4-.6 2.2-1.9 1.3-2.1 1.2-2.9-2.4-10.2-2.1-4.4-3.8-9-3.9-10.3 0-1.2 1.3-4.9 3-8.2s3-6.8 3-7.8.3-2.2.7-2.6.8-2.3 1-4.2c.3-4.9 3.2-9.1 10.4-14.9 3.4-2.8 7.3-6 8.8-7.3 1.4-1.2 4.1-3.1 5.9-4.2 3.7-2.3 3.9-3.6 1.1-7-1.9-2.4-2-2.4-.9-.2s1 2.3-1.1 1.2c-2.2-1.2-3.8-.2-3.9 2.5 0 .5-.6.1-1.2-1-1.2-1.9-1.2-1.9-1.9.5l-.7 2.5-.1-2.8c-.1-1.5-.5-2.7-.9-2.7-.5 0-1.3-1.2-2-2.8-1.1-2.5-1.1-2.4-.7 1.6.4 2.8.2 4.1-.5 3.7-.5-.3-1-1.4-1.1-2.3 0-1.4-.2-1.3-.9.3-1.1 2.4-1.2 1-1.4-15.5-.1-9.6.1-11 2.7-16.2 7.6-15.4 21.8-21.6 34.6-14.9l5.5 2.8 6.7-8.2c6-7.3 14.8-14.5 17.6-14.5.6 0 1.3 2.3 1.6 5 .3 2.8 1.9 7.3 3.4 9.9 2.3 4.2 2.5 5.3 1.6 7.3-.7 1.3-2.4 6.7-3.9 12-1.5 5.4-3.2 10.6-3.9 11.5-1.2 1.7-1.5 1.6-5.3-.5C257 97 255 96 254.7 96c-.2 0-.2 3.9 0 8.7.4 6.8.1 9.5-1.1 11.8l-1.6 3v-3.3c0-1.7-.3-3.2-.7-3.1-1 0-5.1 5.2-5.9 7.3-1.2 3.1 4.6 1.7 11-2.6 5.4-3.7 6.9-4.2 12.6-4.5 11.6-.6 13.4-1 23.5-4.7 5.5-2 13.2-4.5 17-5.5 10.3-2.7 21.1-5.1 22.7-5.1.8 0 2.4-1 3.6-2.3l2.2-2.3-4.3-10.5c-7.8-18.8-12.9-29.9-14-30.6-.7-.4-3.9-.8-7.2-.8-9.4-.3-15.8-2.9-22.1-9-7.6-7.5-9.8-12.8-9.8-23.5 0-6.6.5-9.6 2.2-13.4 1.2-2.7 2.2-5 2.2-5.2S221.5 0 143.8 0H2.7zm123.7 6.3c1 .6 1 1-.1 1.9-2 1.7-7.3 2.6-8.1 1.4-.9-1.5 1.5-3.1 6.4-4.1.3 0 1.1.3 1.8.8M195 58.6c0 1.2-.5 1.2-3-.1-3.1-1.6-4-4-1.7-4.8 1.4-.6 4.7 2.9 4.7 4.9m132 20.3c0 1.1-.3 2.6-.6 3.5-.9 2.2-4.4-.2-4.4-3.1 0-1.8.6-2.3 2.5-2.3 1.8 0 2.5.5 2.5 1.9m-187.4 37.8c1.8 2.4 1.7 4.3 0 4.3-2.1 0-4.6-2.8-4-4.5.8-2 2.4-1.9 4 .2m-15 129.5c.7 2.3.6 2.5-2.6 3.3-1.9.4-2.8.1-3.8-1.6-1.1-1.8-1.1-2.3.4-3.4 2.3-1.6 5.2-.8 6 1.7"/><path d="M375.3 7.5c4.2 4.2 9.8 10.4 12.4 13.8 7.7 10 9.4 10.9 16.2 8.6 5-1.7 9.4-.3 15.2 4.9 3.2 2.9 5.4 4.2 5.7 3.4.2-.6 1-1.2 1.7-1.2 1.8 0 2.8 5.1 1.6 8.3-1.5 3.9-4.8 3.5-9.7-1.4l-4.1-4-6.3 4c-7.3 4.8-12.6 5.3-19 2.1-2.1-1.1-9.8-6.9-17-12.9-11.3-9.4-21.7-16.1-25-16.1-1 0-1.5 1.6-2.5 7.5-1.2 6.9-6.4 15.5-12.3 19.9-4.7 3.6-5.3 4.4-4.9 7.1.3 1.6 3.9 10.9 8 20.5 4.1 9.7 7.7 18.5 8.1 19.6.3 1.1 3.3 3.3 7 5.1 5.6 2.8 6.6 3.7 7.5 6.8.5 2 .7 4.3.4 5.1-.3 1 0 1.2 1 .8 2.1-.8 3.2 1.4 1.6 3.2-1 1.3-.4 2.4 3.8 6.7 2.7 2.9 6.3 7 8 9.2 3.8 4.9 14.3 22.6 14.3 24 0 .5 1 2 2.3 3.1 2.5 2.4 5.2 7.6 6.1 11.4.3 1.4 2.1 3.6 4.1 4.9 2 1.4 3.8 3.5 4.1 5 .9 4.5 8.2 18.6 11.3 21.9 1.7 1.7 3.6 5.2 4.2 7.7s1.5 4.5 2 4.5.9.7.9 1.5.7 1.5 1.5 1.5c.9 0 1.8.7 2.2 1.6.3 1 1.8 2.9 3.3 4.3 2.6 2.5 6 10.6 6 14.1 0 .9 1.1 2.2 2.4 2.8 2.5 1.1 5.2 7.9 4.3 10.5-.3.7.5 2.5 1.7 4.2 1.2 1.6 2.8 4.2 3.5 5.7 1.2 2.3 2.1 2.8 5.4 2.8h3.9l-.4 4.5c-.2 3.7 0 4.5 1.3 4.5 1.9 0 3.4 2.9 2.1 4.2-.4.4-3.1 1.2-6 1.8-5.1.9-13.2 5.4-13.2 7.2s-6.3-2.8-10.4-7.7c-8.3-9.8-19.2-29.1-39.8-70.2-10.8-21.4-12.5-24.2-14.7-24.5-2.8-.3-4.3-3.8-1.7-3.8.9 0 1.6-.4 1.6-.9s-3.4-8-7.6-16.7c-10.9-23-12-25.2-15.3-32.7l-3-6.8-3.7 1.6c-4.5 1.8-4.4 1.8-4.4 0 0-.8 1.5-2.2 3.3-3.1 1.7-.9 3.3-1.7 3.4-1.9.9-.7-4.1-8.5-6.3-10-2.6-1.7-2.9-1.7-6.3 0-7.1 3.5-22.7 9.7-28.6 11.5-3.3.9-9.5 3.2-13.8 5-6.4 2.7-7.8 3.7-7.4 5.2.4 1.3-.4 2.3-2.6 3.4-1.8.9-4.2 2.5-5.4 3.7-1.4 1.2-6.2 2.9-12.9 4.3-14.2 3.2-14.5 3.5-12.3 12.1 1.4 5.2 1.8 10.9 1.8 24 .1 16.6 0 17.2-2.1 18.7-3.8 2.7-1.2 2.8 4.1.2 2.8-1.4 5.3-2.6 5.6-2.6.8 0 4.4 8.1 4.5 9.8 0 .7-2.5 2.4-5.5 3.8s-5.6 2.8-5.9 3.2c-.5 1 7.3 20.4 8.7 21.8 1.7 1.6 30.9 13.2 51.5 20.4 6.9 2.5 9.2 3.7 9 4.9-.6 3-5.4 3.7-13.1 1.7-7.6-1.9-36.4-12.3-38.4-13.8-.7-.5-1.4-.5-1.8.1-.3.6 2.3 4.8 5.8 9.3 3.5 4.6 7.8 10.8 9.7 13.8 1.8 3 3.6 5.7 4 6 1.5 1.1 8 11 8 12.3 0 .7-1.1 2.8-2.5 4.7-1.3 1.8-2.2 3.6-2 4.1.7 1.1-10.3 10.4-12.3 10.5-2.8.1-6.2 1.5-6.2 2.5 0 .5-1.6 1.7-3.5 2.6s-3.5 2.3-3.5 3c0 .8 1.3 4.8 3 9.1 4.4 11.5 5.8 19.1 6.8 35.7.7 12.1 1.3 16.2 3.3 21.2l2.4 6.3H512V0H367.7zm60.7 15c0 .8-.4 1.5-.9 1.5s-1.1-.7-1.5-1.5c-.3-.9 0-1.5.9-1.5.8 0 1.5.7 1.5 1.5m22.9 34.4c1.8 1.1.5 3.1-2 3.1-1.8 0-2.6-2-1.2-3.3.8-.9 1.5-.9 3.2.2m16.9 28.8c.2.8-.6 1.3-2.2 1.3-1.7 0-2.6-.5-2.6-1.6 0-1.9 4.1-1.6 4.8.3m32.7 5.3c-.3.5-1.8 1-3.3 1-2.1 0-2.4-.2-1.2-1 2-1.3 5.3-1.3 4.5 0M433 94c0 .5-.5 1-1.1 1-.5 0-.7-.5-.4-1 .3-.6.8-1 1.1-1 .2 0 .4.4.4 1m74.8 31.6c4.3 3 1.8 8.3-3.1 6.5-3-1.2-4.4-4.6-2.7-6.6 1.6-1.9 3-1.9 5.8.1m-270.2-7.4c-3.2 4-3.2 4.4 0 5.1 4 .7 6.4-.3 6.4-2.7 0-1.7-.2-1.8-1-.6-.8 1.3-1 1.2-1-.3 0-1-.4-1.6-.9-1.3-.5.4-.7-.3-.4-1.4.7-2.8 0-2.5-3.1 1.2m-25.3 42.3c-.6 1.1-3.2 3.6-5.8 5.5-2.5 1.9-5.7 4.4-7.1 5.5l-2.5 2 3.7 14.5c4.1 16.5 5.3 18.6 8.2 15 1.1-1.4 1.8-2.9 1.5-3.5-.2-.6.5-2 1.7-3 3-2.7 2.6-5.2-1-6-4.1-.9-4.4-1.8-1.6-6 3.1-4.6 4.9-12.3 4.4-20-.3-5.2-.5-5.7-1.5-4M68 261.4c0 2.8 3.4 5.5 7 5.8 2.9.2 3.5-.1 3.8-1.7.4-3.2-1-4.3-6-5-4.1-.6-4.8-.5-4.8.9M237.7 315c-1.8 2.1-3.3 2.5-4.1 1.1-.3-.4-1.7-.6-3.2-.3-1.6.3-3-.1-3.5-.9-.8-1.2-1.2-1.1-2.3.3-1.4 1.9-7.1 2.5-8.1.8-1.2-2-3.1-1-4.3 2.2-1.1 3.1-7.4 50.9-7.3 55.3 0 1.1.3 3.9.7 6.3l.6 4.2h59.7l.3-4.2c.2-2.4-.5-7.7-1.5-11.8s-3.6-15.2-5.7-24.7c-2.2-9.5-5-19.8-6.2-23-2.2-5.5-2.5-5.8-5.8-5.8-1.9 0-4.4-.4-5.5-.8-1.4-.5-2.6-.1-3.8 1.3"/></svg>