<svg xmlns="http://www.w3.org/2000/svg" width="682.667" height="512" version="1.0" viewBox="0 0 512 384"><path d="M0 192v192h188.8l.7-3.8c.4-2 1.2-4.4 1.9-5.2 1-1.2 1.1-3.4.3-10-1.9-16.1-1.4-29.4 1.6-41.3 1.5-6 2.7-11.4 2.7-12 0-.7-1.3-1.8-2.9-2.5s-3.1-2.2-3.4-3.2c-.3-1.2-1.1-1.8-1.9-1.5-2.7 1.1-4.1-2.4-5.5-13.4-.7-5.6.9-13.7 5.7-29.1 5.2-16.6 8.9-29.4 8.6-29.8-.2-.1-6.5 2.8-14.2 6.4-7.6 3.7-18.1 8.6-23.2 11-9.7 4.5-28.7 12.2-42.7 17.2-6.5 2.3-8.1 3.3-8.5 5.3-.6 2.4-.6 2.4-1.2.2l-.6-2.2-6.3 2c-5.9 1.8-6.7 1.9-10.4.5-3.5-1.4-5.2-1.4-14-.1-11.4 1.6-32.1 5.2-38 6.5-6 1.4-33.7 2.3-35.4 1.2-2.9-2-.4-3.9 6.1-4.6 3.4-.4 9.7-2.1 13.8-3.8 7-2.9 8.6-3.2 22-3.6 8-.2 14.8-.7 15.3-1.1.4-.4.4-2.1.1-3.8-.5-2.4-1.3-3.2-3.5-3.7-4.1-.8-4.6-2.9-2.4-10.5 1.8-6.7 4.3-20.7 4.4-24.9.1-1.4-1.3-3.6-3.5-5.6l-3.5-3.2 3-3.5c3.6-4 3.7-4.4 1.1-6.6-2.9-2.5-3.6-7.5-1.5-11.5 1-1.8 3.2-8.2 5-14.1 3.1-10.2 3.2-10.8 1.4-11.7-1.7-1-1.7-1.2-.2-4.8.9-2 2-6.5 2.3-9.9.4-3.5 1.3-7 2-7.8s3.6-2.2 6.6-3.1l5.3-1.7 4.1 2.7c2.2 1.5 4.5 3.9 5.1 5.4s1.8 3.5 2.6 4.5c1.5 1.6 1.5 2-.7 4.9-2.2 3-2.4 4.1-2.3 16l.1 12.7 3.8 3.3c7 6 8.4 7.7 8.4 10 0 3.6-1.3 4.7-6.4 5.7-2.6.5-5.2 1.3-5.8 1.9-.7.7.2 5.1 3.1 14.4 4.9 15.4 10 30.6 11.1 32.8.4.8.5 2.1.3 2.7-.8 2.2-3.4 1.4-6.4-1.8-3.7-3.9-6.2-3.5-6.9 1.1-.4 2.5 0 4.3 1.2 6.2 1.8 2.6 2 2.7 6.1 1.4 9.6-2.9 16.7-5.9 16.7-7.1 0-.7.7-1.8 1.5-2.5 1.4-1.2 1.4-1.5-.1-3.1-1.4-1.6-1.4-1.8.6-2.9 2.5-1.4 5.7-.5 7 2 1 1.9-.4 3-4 3-1.1 0-2.4.9-3 2s-.9 2-.7 2c.8 0 8.7-2.9 12-4.4 1.7-.8 9.1-4 16.2-7.2 7.2-3.1 21.1-9.6 31.1-14.5l18.1-8.7.7-5c.3-2.7 1.5-6.1 2.6-7.5 2.4-3 .9-4.8-1.9-2.3-3.5 3.2-8.3.7-6.2-3.2 1.3-2.5 1.7-2.2-15.3-11.3-28-14.9-26.1-13.7-25.1-16.8.9-3 2.7-2.6 10.9 2.3 4 2.4 12.8 7.2 19.6 10.6 15.5 7.8 16.4 7.4 11.4-4.9-1.9-4.6-3.4-9.4-3.4-10.6s1.3-4.6 2.9-7.6 3.4-8.1 4.1-11.4c2-9.7 2.9-11.2 10.4-17.5 3.9-3.3 8.3-7.1 9.7-8.4s3.9-3.1 5.5-3.9c5.6-2.9 6-4.2 2.4-8.4-2-2.3-3-2.9-2.6-1.7.4 1.4-.3 3-2.6 5.4l-3.3 3.3-.3-2.5c-.2-1.4-1.3-3.5-2.6-4.7l-2.3-2.1.4 3.2c.4 3.1.3 3.2-1.1 1.4-.9-1.1-1.7-1.6-1.7-1-.2 1.2-1.7-6.7-2.5-13.3-1.3-10.4 5.8-24.6 15.7-31.2 5.6-3.7 6.7-4.1 12.6-4.1 6.1 0 9.9 1.3 15.5 5.2.9.7 1.9 1 2.1.8.2-.3 3-4.1 6.3-8.5 6.8-9.2 15.1-17.8 16.5-17 .5.4.9 2.5.9 4.8 0 3 .9 5.5 3 8.7 3.2 4.9 3.8 8.1 1.6 9.9-.7.6-1.6 2.6-1.9 4.5-.3 1.8-1.5 7-2.7 11.5-2.5 9-3.7 9.9-9 6.1-1.6-1.1-3.1-1.7-3.4-1.2s-.1 4.6.4 9.3c.7 6.8.5 8.5-.6 9.2-1.5.9-2 4.7-.5 4.7.5 0 1.4-.7 2.2-1.6 2.3-2.8 7.3-4.8 12.4-5.1 10.2-.5 13.2-1.1 21.5-4.2 4.6-1.8 8.9-3.6 9.5-4.1 1.2-.9 40.2-11 42.8-11 2.1 0 1.6 1.9 6.7-22.5 2.3-11 4.7-21.6 5.2-23.5s1.2-6 1.5-9c.2-3 .9-6 1.5-6.7 1.4-1.8 5.3-1.6 6.8.2 1.4 1.7 2 1.8 4 .5 3.3-2.1-10.9-12.9-17.5-13.3-3.7-.2-3.9-.1-5.9 4.9-6.5 16-17.4 24.4-31.6 24.4-17.2 0-30.5-12.6-31.8-29.9-.3-4.9 0-8.3 1.2-11.7.9-2.6 1.6-4.9 1.6-5.1S220.9 0 142.5 0H0zM126 12.2c0 1.4-6.7 4.1-8.5 3.4-1.4-.5-1.5-.9-.5-2.1 1.6-1.9 9-3 9-1.3m61.9 46c.6 1.7 1.9 4.1 2.8 5.2 1 1.2.4.9-1.3-.7-1.6-1.5-3.5-2.7-4.1-2.7-1.3 0-2.5-2.8-1.7-4.1 1.1-1.9 3.2-.8 4.3 2.3m131.4 20c.2.7 0 2.4-.5 3.7-.8 2.3-.9 2.4-2.3.5-2.1-2.7-1.9-5.4.4-5.4 1 0 2.1.6 2.4 1.2m-184.5 40c1.4 1.4 1.6 4.8.4 4.8-1.5 0-4.4-3.8-3.7-4.9.8-1.4 1.8-1.4 3.3.1M110 278.3c0 .5-.4.5-1 .2-.5-.3-1-1.4-1-2.3 0-1.5.2-1.5 1-.2.5.8 1 1.9 1 2.3"/><path d="M372.5 4.2c2.6 2.3 8.3 8.7 12.6 14.3 10.1 13.1 9.9 12.9 15.7 12 7.6-1.3 11-.8 17.7 2.4 3.5 1.7 7.1 3.1 7.9 3.1 2.2 0 2 3.3-.4 5.5-1.9 1.7-2.2 1.7-6.3.1-5.6-2.1-5.8-2.1-11.9 1.5-12.1 7.2-18.2 5.7-33.3-8.4-2.3-2.1-7.4-2-8.6.3-2.5 4.7-3.9 8.6-3.9 10.5 0 1.2-.5 3.5-1 5.1-1.3 3.7-9 39.3-9 41.5 0 .9 1.4 2.2 3.1 2.9 4.3 1.8 8.6 10.9 6.2 13.3-.3.4-1.2.2-1.9-.4-.9-.7-1.6-.4-2.7 1.1-1.7 2.4-4.7 1.7-4.7-1.1 0-1.1-.7-1.9-1.6-1.9-1.1 0-1.4.8-1.2 3.2.3 2.8.8 3.3 3.6 3.9 4.7 1 5.8 2.3 3.3 4.1-1.9 1.3-2 2.7-2.5 28.4-.3 14.8-1 31.8-1.5 37.9-.6 6-1.7 18.2-2.5 27s-2 31.3-2.5 50c-.6 18.7-1.3 34.5-1.5 35.2-1 2.4-7 4-13 3.5-4-.3-6.1-.1-6.6.8-1 1.7-4.5-3.4-5.9-8.8-.7-2.4-1.1-10.2-1-17.9l.1-13.7-9.1-2.3c-5-1.3-16.3-5.2-25.1-8.7s-16-6.2-16-5.9c0 .2 2.1 3.4 4.8 7 2.6 3.5 7.6 10.7 11.2 15.8s8 11.4 9.8 13.9c3.1 4.3 3.2 4.7 1.8 7.4-.8 1.6-2.2 3.4-3 4.1-.9.7-1.4 1.7-1.1 2.1.3.5-2.3 3.3-5.8 6.4-4.6 4-6.9 5.4-8.4 5-1.3-.4-2.8.2-3.9 1.4-1.1 1.1-2.9 2.5-4.1 3.1-3 1.5-2.9 3.6.6 12.3 4.1 10.5 6 20.3 7 36.3.6 11 1.3 15.3 3.2 20.2l2.4 6.3H512V0H367.7zM435 24.6c0 1.4-.3 1.4-1.5.4-.8-.7-1.5-1.4-1.5-1.6s.7-.4 1.5-.4 1.5.7 1.5 1.6m21.8 34.3c1 .6 1 1-.3 2.1-1.8 1.5-4.2 0-3.1-1.9.8-1.3 1.6-1.4 3.4-.2m14 27c1.1.7 1.1.9-.1 1.4-1.6.6-2.7 0-2.7-1.5 0-1 1.1-1 2.8.1m32.5 5.8c-.7.2-1.9.2-2.5 0-.7-.3-.2-.5 1.2-.5s1.9.2 1.3.5m3.6 38.2c.7 1.3.6 2.4-.3 3.7-1.3 1.7-1.5 1.7-4 .1-2.5-1.7-3.3-3.7-1.9-5 1.3-1.4 5.3-.6 6.2 1.2m-135.1 48.3c-.2 1.8-.9 2.2-2.7 2-3.1-.3-3.5-.7-2.8-2.7.4-.8 1.8-1.5 3.2-1.5 2.2 0 2.6.4 2.3 2.2m81.4 93.9c1.7.9 1.8 1.3.7 2-2.6 1.6-6.8.1-5.5-2 .9-1.4 2.2-1.4 4.8 0m-79.2 13c0 2.5-4 5.2-5.7 3.7-2-1.7-1.5-4.8 1-5.7 2.9-1.1 4.7-.3 4.7 2"/><path d="M336 101.4c-1.7 1.7-21.7 10.5-30.5 13.4-11 3.8-20.1 8.5-19.7 10.4.2 1.1-1.1 2.6-3.5 4.2-2.1 1.4-4.7 3.2-5.8 4s-6.3 2.6-11.6 3.9c-10.3 2.6-13.9 4.1-13.9 5.8 0 .6.6 3.4 1.4 6.2.9 3.1 1.7 13 2.1 24.6.5 16.4.9 20 2.6 23.2 1 2.1 1.9 4 1.9 4.2 0 .3-1.3 1-3 1.7-1.6.7-3 1.6-3 2.1s1.1 3.2 2.3 6.1c1.3 2.9 3.4 8.3 4.6 11.9l2.2 6.7 14.2 6c16 6.9 40.3 16.2 42.1 16.2.9 0 1.9-5.9 3.5-18.8 2-17 3.2-26.5 4.7-36.2.3-1.9.9-6.9 1.4-11s1.2-8.6 1.5-10c1.1-5.2 1.5-7.8 3-18 .9-5.8 1.8-11.1 2-11.8.3-.8.8-3.7 1.1-6.5.6-5 2.7-15.9 4-20.4.5-1.9 0-2.5-3.5-3.9-6-2.4-5.2-4.6 1.8-4.8 3.2-.1 3.6-.4 4.4-3.9.8-3.2.6-4-.9-5.2-2.4-1.8-3.6-1.8-5.4-.1m-86.4 13c-.9 1.9-1.6 4.3-1.6 5.5 0 1.8.3 1.9 2.5.9 2.1-.9 2.5-1.8 2.5-5.5 0-5.2-1.2-5.5-3.4-.9m-11.3 4.7c-1.3 1.5-2.3 2.9-2.3 3.2s1.6.5 3.5.5c3.2 0 3.5-.3 3.5-2.8 0-3.8-2.1-4.2-4.7-.9m6.3.5c-.8 2 0 3.2 1.4 1.8.5-.5.5-1.5.1-2.2-.6-1.1-1-1-1.5.4M212 160.9c0 .6-2.4 2.6-5.3 4.5s-6.3 4.6-7.6 5.9l-2.2 2.5 2.7 13.8c1.9 9.6 3.3 14.3 4.7 15.7 1.9 1.9 2 1.9 4.3-.9 1.3-1.6 2.3-3.7 2.4-4.7 0-1 .7-2 1.5-2.3.8-.4 1.5-1.7 1.5-2.9 0-1.8-.7-2.5-3-3-3.3-.7-4-3.4-1.5-5.5 3.4-2.8 6.5-24 3.5-24-.5 0-1 .4-1 .9M68 261.7c0 3.1 4.3 6.5 7.6 6.1 6-.7 3.4-6.2-3.3-7.3-3.8-.6-4.3-.5-4.3 1.2m168 52.6c0 1.3-1 1.6-4.7 1.5-2.6 0-5.6-.6-6.6-1.2-1.3-.8-2-.8-2.6.3-.6 1-2.1 1.2-4.9.8-3.9-.5-4.1-.3-5.2 2.7s-7.1 49.4-7.1 54.6c0 1.4.3 4.4.7 6.8l.6 4.2H266v-5.3c0-2.8-1.6-12-3.6-20.2-2-8.3-4.7-19.6-6-25.3-1.4-5.6-3.4-12.1-4.4-14.5-1.8-4.1-2.1-4.2-6.7-4.3-2.6 0-5.8-.4-7-.9-1.8-.5-2.3-.4-2.3.8"/></svg>