<svg xmlns="http://www.w3.org/2000/svg" width="682.667" height="512" version="1.0" viewBox="0 0 512 384"><path d="M0 138.8v138.9l6.8-.9c3.7-.5 9.1-2 11.9-3.3 6-2.7 25.8-5.8 33.8-5.3 6 .3 7.5-.4 6.8-3.5-.9-3.3-2-4.4-5.3-5.1-3.5-.7-3.8-2.5-1.5-10.1 2.1-6.6 3.3-16.5 3.9-30.2.5-11 .5-11.3-1.8-12.8-2.6-1.7-5-6.2-3.7-6.9 1-.7 5.3-13.7 7.7-23.4 1.5-5.9 1.6-7.5.5-8.1-1-.7-1-1.8.3-6.1.9-3 1.6-7.5 1.6-10 0-5.8 2.5-8.4 9.3-10 5.8-1.3 10 .5 12.5 5.2 1 1.7 2.5 3.8 3.5 4.7 2.2 2 2.2 3-.5 5.8-1.5 1.6-2.2 3.8-2.4 7.5-.5 7.6-.5 8.7-.1 15.1.3 5.3.7 6.2 3.9 9 2 1.8 4.8 4 6.3 5 2.2 1.6 2.6 2.5 2.3 6l-.3 4.1-5.8 1.2c-3.2.6-6 1.4-6.4 1.7-.3.4.4 3.7 1.5 7.4 1.2 3.7 4.4 14.7 7.3 24.3 2.8 9.6 5.3 17.9 5.6 18.3s1.1.3 1.8-.3c1.6-1.3 6 .2 6.8 2.4.4 1-.2 1.7-1.6 2.2-1.2.3-3.1 1.4-4.1 2.3-1.1.9-1.6 1-1.2.3.9-1.6-2.2-5.4-3.6-4.6-.5.4-2.4-1-4.3-3-4.4-4.9-6.1-4.7-6.9.9-.6 3.9-.4 4.9 1.9 7.9 3.5 4.6 5 5 9.9 2.7 2.3-1 6.1-2.6 8.6-3.5 5.8-2.2 41.3-20.5 59.5-30.6 7.7-4.3 16-8.9 18.5-10.3 3.2-1.8 4.6-3.3 5.1-5.3.3-1.6 1.3-4.3 2.2-6.1s1.7-4 1.7-4.9c0-1.6-.1-1.6-1.8-.1-1 1-2.6 1.7-3.5 1.7-2.3 0-3.8-3.1-2.5-5.4 1.3-2.2 1-2.5-8.2-7.7-23.6-13.3-31.9-18.3-32.4-19.6-.3-.7.3-2.1 1.2-3.2 1.7-2 1.8-1.9 11.7 4.3 14 8.8 30.5 17.9 31.3 17.2.2-.2-.8-4.1-2.2-8.6-3.3-10.2-3.3-12.6.2-19.1 3.4-6.5 5.8-13.1 6.6-18.1.5-2.8 2.2-5.2 6.7-9.6 3.4-3.3 7.8-7 10-8.3 2.1-1.3 4.1-3.1 4.4-3.9s2.5-2.4 4.8-3.5c4.4-2.1 6.2-5.9 3.5-7.6-1.8-1.2-3.1-1.1-2.3.1.3.5-.2 1.8-1.2 2.8s-2.3 2.7-3 3.8c-1 1.6-1.2 1.1-1.4-3.6-.1-3-.3-4.7-.6-3.8-.5 2.1-1.4 2.3-3.2.5-1-1-1.1-.9-.6.5.4 1.1.2 1.8-.4 1.8s-1.1.8-1.2 1.7c0 1.2-.5.7-1.4-1.2l-1.3-3-.4 2.5c-.2 1.4-1-1.4-1.7-6.3-1.6-10.8-1.2-13.4 4.5-24.6 4-8.1 5.1-9.4 10.5-13 5.9-4 11.4-6.1 15.4-6.1 2.7 0 10.2 3.5 14.2 6.6 1.7 1.3 3.4 2.4 3.6 2.4.5 0 2.2-3 11.5-20 4.3-7.8 6.3-11 7.2-11 .4 0 1 2.1 1.3 4.6.3 2.9 1.6 6.1 3.6 8.9 3.9 5.5 3.9 7.4-.3 11.8-2.6 2.8-3.4 4.7-4 9.1-1 8.7-2.7 15.6-3.8 15.6-.5 0-2.1-.9-3.5-2-4.4-3.5-4.8-2.8-4.6 7.7.2 5.3-.1 10-.6 10.3-1.1.6-2.5 5-1.6 5 .3 0 2.7-1.6 5.2-3.5s5.2-3.6 5.9-3.6c2.9-.3 12-.9 14.4-1s19.6-6.4 21.5-7.9c.6-.5 5.7-2 11.5-3.5 5.8-1.4 14.1-3.8 18.5-5.2 7.1-2.2 9-2.4 17.3-1.8l9.3.6 7.2-6.2c7-5.9 21.2-18.9 30.5-27.7 2.5-2.3 5.5-4.2 6.6-4.2 2.2 0 9 7.3 7.9 8.4-.4.3-2.6.6-5 .6-4.6 0-6.5.9-11.6 5.2-7.7 6.5-31.2 26.2-31.6 26.4-.1.2 1.1 2 2.8 4.1 3.1 3.9 5.2 10.3 3.3 10.3-.5 0-1.7-1-2.6-2.3l-1.7-2.2 1.1 2.2c.8 1.7.7 2.9-.2 4.5-1.2 2.2-1.2 2.2-1.6.3-.2-1.1-.8-2.3-1.3-2.8-.5-.4-.7-.4-.4-.1.6.8-1.4 3.4-2.5 3.4-.4 0-.7-1.2-.7-2.6s-.8-3.3-1.7-4.2c-1.4-1.4-1.6-1.4-1.6-.1 0 .8-.6 2.4-1.4 3.4-1.4 1.9-1.5 1.9-3.4.2-1.7-1.5-2.1-1.6-3.1-.3-1 1.1-1 2.4 0 5.6 1.6 5.2.2 7.1-3.4 4.7-2.3-1.5-2.5-1.4-7.8 5.6-3 3.9-17 18.9-31.2 33.3-14.1 14.4-26.6 27.3-27.7 28.7-2.4 3-16.2 16.6-18.2 17.8-1 .7-1 .9.2.9.8 0 0 1.2-2 2.8-3.4 2.9-3.4 2.9-1.8 6.3.9 1.9 1.9 5 2.3 6.9s1.4 5.2 2.3 7.4c1.4 3.6 2.4 4.3 15.9 10.7 14.2 6.8 39.7 18 44.1 19.3 4.5 1.4 1.8 5.6-3.6 5.6-4.6 0-17.8-4.6-34.2-11.8-7.4-3.3-13.6-5.8-13.8-5.7-.3.3 9.2 15.4 20.7 32.7 2.8 4.3 5.1 8.4 5.1 9.2 0 .9-1.3 3.1-3 4.9-1.6 1.9-3 3.9-3 4.5 0 2.8-12.2 12-15.2 11.6-1.3-.3-3.3.4-4.6 1.5-2.1 1.9-2.2 2.3-1.2 6.3.6 2.4 2.4 7.7 3.9 11.8 3.6 9.6 5 17.2 6.1 34.5.6 9.9 1.4 15.1 2.6 17.7l1.8 3.8H512V0H372.6l2.6 2.7c1.4 1.6 5.2 6.4 8.3 10.8 7.3 10.2 10.7 14.1 14.6 16.1 2.9 1.4 3.8 1.4 11 0 9-1.8 11.3-1.3 15.2 3.3 5.2 6.2 4.7 10.5-.6 5.3l-3.2-3.1-6.9 4.1c-5.7 3.5-7.9 4.3-13.2 4.6-10.5.7-15.3-2.2-31.6-19.1L355 10.6l-4.7 4.6c-11 10.7-24.6 13.1-37.3 6.7-6.6-3.3-13.8-12.3-15.5-19.2l-.7-2.7H0zM114.7 19.5c-3 2.7-6.7 3.3-6.7 1.2 0-1.7 3.6-3.6 7-3.6h2.5zM432 27.6c0 1.4-.3 1.4-1.5.4-.8-.7-1.5-1.4-1.5-1.6s.7-.4 1.5-.4 1.5.7 1.5 1.6M175.1 61.2c.6 1.3 2.3 3.4 3.7 4.7 3.5 3 .8 1.6-4.1-2.2-2-1.6-3.5-3.3-3.1-3.8.9-1.5 2.3-1 3.5 1.3m277.7 2c-.7 1.9-3.8 2.2-3.8.4 0-1 .9-1.6 2.1-1.6s1.9.5 1.7 1.2M305 80.5V84l-2-2c-1.1-1.1-2-2.7-2-3.5s.9-1.5 2-1.5c1.6 0 2 .7 2 3.5M464.5 87c.3.5-.3 1-1.5 1s-1.8-.5-1.5-1c.3-.6 1-1 1.5-1s1.2.4 1.5 1m30.5 6c-2 1.3-3.3 1.3-2.5 0 .3-.6 1.4-1 2.3-1 1.5 0 1.5.2.2 1m-367.6 33.1c-.7 1.2-4.4-.8-4.4-2.5 0-.7.3-1.6.7-2 1-.9 4.5 3.3 3.7 4.5m374.7 7.9c2.5 1.4 2.6 6 .1 6-1.1 0-2.7-.9-3.7-2-1.5-1.6-1.5-2.2-.5-3.5 1.5-1.8 1.6-1.8 4.1-.5m-136.4 46.6c-.3.3-1.2.4-1.9.1-.8-.3-.5-.6.6-.6 1.1-.1 1.7.2 1.3.5m2.5 109.6c-.6.6-1.5.8-1.9.4s-.1-1.1.7-1.6c1.9-1.2 2.7-.3 1.2 1.2"/><path d="M340.6 99.9c-.3.4.5 1.7 1.8 2.8 1.8 1.6 2.6 1.8 3.9.8 1.4-1 1.2-1.4-1.8-2.8-1.9-.9-3.7-1.3-3.9-.8m-11.1 4.7c-3.3 1.4-9.6 3.9-14 5.6s-12.2 4.9-17.2 7.1c-7.8 3.4-9.3 4.4-9.3 6.3 0 1.4-.9 2.8-2.2 3.5s-3.7 2.4-5.4 3.9c-2 1.7-5.7 3.2-11 4.4-4.3 1-9.8 2.7-12.1 3.7-5 2.1-5.3 3.6-2.7 12.7 1.4 4.7 1.6 8.2 1 20.4-.4 8.2-.4 14.8-.1 14.8s4.3-3.7 8.8-8.3c4.5-4.5 16.8-16.1 27.2-25.6 10.5-9.6 22.8-21 27.5-25.5s10.8-10.2 13.5-12.6c5-4.5 5.1-4.5 4.1-8.8-.5-2.3-1.2-4.2-1.5-4.2s-3.3 1.2-6.6 2.6m23 .4c-.3.5-.1 1 .4 1 .6 0 1.1-.5 1.1-1 0-.6-.2-1-.4-1-.3 0-.8.4-1.1 1m-98.7 11.5c-.3 1.4-.1 2.5.3 2.5.5 0 .9-1.1.9-2.5s-.2-2.5-.4-2.5-.6 1.1-.8 2.5m-9.6 2.5-2.3 3h2.6c2.1 0 2.5-.5 2.5-3 0-1.7-.1-3-.3-3s-1.3 1.3-2.5 3m5.9-2.3c0 .6-.4 2-.7 3-.5 1.4-.4 1.5.5.7.7-.7 1.1-2 .8-3-.3-1.1-.5-1.4-.6-.7m-39.6 46.5c-2.7 2.6-5.4 4.8-6 4.8s-2.4 1.3-3.9 2.9l-2.8 2.9 1.1 10.9c1.7 15.6 1.9 16.1 5.2 17.9 2.9 1.5 3.1 1.4 5.2-1.2 1.2-1.5 2.2-3.4 2.4-4.3.1-.8.9-1.8 1.7-2.3 2.7-1.5 1.8-4.3-2-6.2-3.4-1.6-3.5-1.8-2.1-3.4 3.2-3.5 5.6-10.9 6.3-19 .4-4.5.5-8.1.3-8s-2.6 2.3-5.4 5m-24.1 71.4c-29.3 16.8-57.9 31.2-80.1 40.5-7.6 3.1-8.3 3.6-8.3 6.2 0 1.6.5 3.8 1.1 5 1 2.1 1 2.1-.5.3-.9-1.1-1.6-2.9-1.6-4.1 0-3.3-.7-3.4-6.1-1.4-6.3 2.4-12 2.4-14.9.1-1.3-1-2-2.3-1.7-2.9.3-.5 3.8-2.2 7.7-3.7 3.9-1.6 6.9-3 6.7-3.2-.2-.3-3.5.2-7.3 1s-13.2 2.4-20.9 3.5c-7.7 1.2-17.8 2.9-22.5 3.8-5.4 1.1-13.8 1.7-23.2 1.7l-14.8.1V384h190v-2.3c0-1.3.5-2.8 1.1-3.4.9-.9.8-4.5-.1-14.4-1.5-15.4-.8-28.3 2-38.9 2.7-10.4 2.5-14.3-1-14.5-2.2-.1-7-3.1-7.5-4.6-.4-1-1.2-1.6-2-1.2-2 .7-3.4-3.4-4.1-12.1-.7-7.7 1.2-14.9 9.7-37.3 4.5-12 8-24.1 7-24.8-.4-.2-4.3 1.6-8.7 4.1"/><path d="M67 262.3c0 .7 1.1 2.5 2.5 4 4.5 4.8 9.6 2.5 6.1-2.8-1.2-1.9-2.5-2.5-5.1-2.5-2.2 0-3.5.5-3.5 1.3m149 54.2c-.7.8-1.8 1.5-2.5 1.5-1.9 0-3.3 7.2-6 32-1.3 12.4-2.7 23.9-3.1 25.6-.3 1.9-.2 3.4.5 3.8.6.4 1.1 1.6 1.1 2.7 0 1.8 1 1.9 30 1.9 29.3 0 30 0 30-2 0-1.1.4-2 .9-2s-.4-5-2-11.2c-1.7-6.1-4.3-17-6-24.2-3.1-14.2-8.5-29.6-10.3-29.6-.6 0-2.4.7-4.1 1.6-3.1 1.6-9.9 1.1-11.1-.8-.4-.5-1.3-.3-2.3.6-2 1.8-9.5 1.6-11.4-.3-1.5-1.5-2.2-1.4-3.7.4"/></svg>