<svg xmlns="http://www.w3.org/2000/svg" width="682.667" height="512" version="1.0" viewBox="0 0 512 384"><path d="M0 140.1C0 250.3.3 280 1.2 279.4c.7-.5 3.5-1.1 6.3-1.5s7.1-1.7 9.6-2.9c3.1-1.6 7.3-2.5 14.4-3.1 5.5-.4 13.7-1.1 18.3-1.5l8.2-.7v-3.6c0-3.5-.2-3.7-4.6-4.9-4.1-1.1-4.5-1.5-4-3.5 3.2-11.7 6.9-42.3 5.8-48-.2-.9-1.2-1.7-2.2-1.7-1.1 0-2.6-1.2-3.4-2.9-1.4-2.6-1.4-3 .3-4.5 1.1-1 2.1-3.2 2.3-4.9.3-1.8 1.9-8.2 3.6-14.4 2.6-9.2 3-11.7 2.1-14.2-.8-2.2-.8-4 0-6.2.6-1.8 1.1-5.3 1.1-7.8 0-5.6 1.9-8.6 6.3-10 7.9-2.6 14.4-.4 17.1 5.8.8 2 2.1 4.4 2.8 5.3 1 1.4.9 2.1-1.1 4.2-1.9 2.1-2.2 3.1-1.7 6.1.5 2.7.3 4.2-.9 5.5s-1.3 2.3-.5 4.4c.5 1.5 1 4.9 1 7.5 0 4.4.3 4.9 4.1 7.7 9 6.5 9 6.4 8.3 11.6l-.6 4.6h-4.5c-5.1 0-7.7 1.7-7 4.6.3 1.2 3.3 12.4 6.7 25.1 3.4 12.6 6.2 23.4 6.3 23.9.5 2.6-3.6 1.5-6.7-1.8-4.6-4.9-6.2-4.7-7 .9-.6 3.9-.4 4.9 1.9 7.9 2.9 3.9 5.5 5.3 5.5 3.1 0-.8-.3-1.5-.7-1.5-.5 0-1.4-.4-2.2-.9-2-1.3.4-5.1 3.2-5.1 4.3 0 6.4 4.3 2.7 5.5-1.1.4-2 1.5-2 2.6 0 1.8.4 2 3.3 1.4 3.8-.9 24.3-11 37.7-18.7 5.2-3 11.8-6.7 14.5-8.3 2.8-1.5 10.2-5.8 16.5-9.5s14.8-8.7 18.8-11 7.6-4.9 7.8-5.8c.3-.9 1-2.5 1.5-3.4.5-1 .9-2.9.9-4.3 0-2.2-.2-2.4-1.9-1.3-3.4 2.1-7-2.9-4.1-5.8 1.4-1.4-.3-2.8-13-10.4-5.8-3.5-14.5-9-19.3-12.2-8.9-6-10.1-7.9-6.6-10.1 1.2-.8 3.6.4 10.5 5.1 11 7.4 30.6 19.3 31.2 18.8.2-.2-.4-4.3-1.4-9-1.9-9.9-1.4-13.4 3.7-21.6 1.6-2.6 2.9-5.4 2.9-6.3s.5-1.9 1-2.2 1-1.6 1-2.7c0-4.8 4-10.3 12.1-16.8 14.4-11.5 16.5-14.6 13.5-20.4-1.4-2.6-1.5-2.7-1.1-.6l.5 2.5-1.2-2.3c-1.2-2.3-1.2-2.3-3.4 1.3-2 3.3-2.3 3.5-2.9 1.7-.4-1.3-1.2-1.9-2.1-1.5-1 .4-1.4-.2-1.4-2.2 0-1.5-.4-2.4-1-2-1.1.7-.7-4.3 1.2-13 1.8-8.1 7.7-19.2 12.6-23.6 5.8-5 13.7-8.9 18.3-8.9 4 0 13.3 4.4 16.8 7.9 1.1 1.1 2.5 2.1 3 2.1 1.2 0 8.3-15.9 11.6-25.8 1.4-4.5 3.1-8.2 3.6-8.2s.9 1.9.9 4.1c0 2.9.9 5.7 3 9.1 4 6.5 3.8 8.7-1.4 14.5-4.2 4.7-4.6 5.5-5.5 13.4-.6 4.6-1.1 8.5-1.1 8.7s-1 0-2.2-.3c-1.8-.6-2-.4-1.3 1.1 2.9 7 2.9 7.1.9 12-1.4 3.3-2.7 5-4.3 5.4-2 .4-6.1 7-4.4 7 .3 0 3.4-2.1 7-4.6 5.5-3.9 7-4.5 10.1-4.2 2 .3 5.1-.1 6.9-.9 1.8-.7 3.4-.9 3.8-.4.5.9 16.4-5 22.5-8.3 1.4-.8 7.7-2.8 14-4.4 6.3-1.7 15.6-4.5 20.5-6.3 9.7-3.3 14.6-3.4 20.4-.4l2.9 1.5 11.9-10.7c6.5-5.8 15.3-13.9 19.5-18 7-6.6 7.7-7.6 7.2-10.2-1.2-5.9 8.7-8.4 10.2-2.5.9 3.5-1 6.6-7.5 12.2-10.6 9.1-32.6 28.9-34 30.5-1.2 1.5-.9 2.3 2.3 6.4 2 2.5 3.6 5.2 3.6 5.8 0 2.7-1.6 2.4-4.3-.7l-2.8-3.3 2.2 3.8c1.5 2.7 1.9 4.1 1.1 4.9-1.2 1.2-3.2.2-3.2-1.6 0-.7-1-2.1-2.3-3.2-1.2-1-1.6-1.2-.9-.4.6.8 1.2 2.5 1.2 3.8 0 1.9-.5 2.3-2.2 2-1.5-.2-2.2-.9-2-2 .1-.9-.2-1.9-.8-2.3-.6-.3-1 .3-1 1.5 0 1.1-.7 2.3-1.5 2.6-2 .8-4.8-1.5-4.1-3.3.4-1.1.1-1.1-1.4-.3-2.5 1.3-2.5 1.1.1 5.5 1.7 2.9 1.9 3.8.9 5-1.1 1.3-1.7 1.2-4.7-1.1l-3.4-2.6-5.2 4.5c-2.9 2.5-6.9 6.1-9 7.9s-4.8 4.1-6 5c-6.2 4.8-9.6 7.6-13.7 11.3-2.5 2.2-7.7 6.7-11.4 10-3.8 3.3-7.7 6.7-8.6 7.5-1 .8-3.2 2.6-5 4s-4.8 4-6.7 5.7c-1.8 1.8-3.3 3-3.3 2.8 0-.5-5.1 3.8-7.9 6.6-.9.9-3.8 3.4-6.6 5.4-7 5.3-9.5 8.2-9.5 11.1 0 1.3-.4 2.4-.9 2.4-2.3 0-4 3.2-3.5 6.3.5 2.9 5.8 20.9 8.8 29.7 1.1 3.3 2.5 4.2 20.9 13.5 10.9 5.5 24.7 12.2 30.8 14.9 6 2.7 10.9 5.5 10.9 6.1 0 1.9-2.3 3.5-5 3.5-4.1 0-18-5.4-34.3-13.3-8.4-4.1-15.3-7-15.5-6.6s1.7 3.8 4.1 7.6c2.4 3.7 7.6 13.1 11.7 20.9 7.9 15.3 8.1 16.7 3.5 21.6-1.4 1.5-2.5 3.2-2.5 3.9 0 2.8-11.8 11.2-15.2 10.7-3.7-.5-3.5 4.5.7 15.9 4.6 12.2 6.2 21 7.2 38.8l.8 14 115.3.3 115.2.2V0H375.9l7.4 8.3c4.1 4.5 9.9 11.1 12.9 14.7 7.1 8.5 9.6 9.9 14 8.1 1.8-.8 5.1-1.6 7.3-1.8 3.4-.4 4.6 0 7.2 2.4 1.7 1.5 3.4 3.9 3.8 5.2l.7 2.3-3-2.2c-3.4-2.5-5.7-2.2-10.1 1.6-9.9 8.3-16.3 6.5-37.1-10.8-22.5-18.6-19.2-16.8-32.2-17.2-18.1-.6-25.7-2.8-28.3-8.4l-1-2.2H0zM107 22.7c0 1.8-3.6 4.3-6.2 4.3-3.8 0-3.6-1.8.5-3.5 3.5-1.6 5.7-1.9 5.7-.8M428 29c0 .5-.2 1-.4 1-.3 0-.8-.5-1.1-1-.3-.6-.1-1 .4-1 .6 0 1.1.4 1.1 1M167 69.8c-1.2.5-7-5.1-7-6.7 0-.9 1.6.1 3.8 2.5 2.1 2.1 3.6 4 3.2 4.2m282.8-3.6c-.7 1.9-3.8 2.2-3.8.4 0-1 .9-1.6 2.1-1.6s1.9.5 1.7 1.2m-159 13.4.3 2.9-2.2-2.1c-1.2-1.2-1.8-2.7-1.4-3.4 1.2-1.9 3-.5 3.3 2.6m168.4 9.6c-.9.9-1.5.9-2.4 0s-.7-1.2 1.2-1.2 2.1.3 1.2 1.2m30.5 5.4c-.3.3-1.2.4-1.9.1-.8-.3-.5-.6.6-.6 1.1-.1 1.7.2 1.3.5m-371.2 36.2c-.8.8-3.5-2-3.5-3.7.1-1.2.5-1.1 2.1.8 1.1 1.3 1.7 2.6 1.4 2.9m383.6 11.3c.7 1.5.8 2.4 0 3.2-1.3 1.3-6.1-1.7-6.1-3.8 0-2.3 4.7-1.8 6.1.6M366 294c0 .5-.4 1-1 1-.5 0-1-.5-1-1 0-.6.5-1 1-1 .6 0 1 .4 1 1"/><path d="M347.6 98.9c-.3.5.5 1.6 1.9 2.5 2.8 1.8 3.5 2 3.5.7s-4.8-4.2-5.4-3.2m-15.6 6.2c-5.2 2.3-11.9 4.9-14.8 5.9-2.8 1.1-9.2 3.8-14 6-7.8 3.7-8.8 4.5-8.5 6.4.4 1.8-.2 2.6-2.7 3.6-1.7.7-3.5 2.1-4 3.1-1 1.8-4.4 3.2-18.1 7.3-11.7 3.5-12.7 5-10.3 14.8 1.3 5.4 1.5 9.4 1.1 16.7-.3 5.3-.3 9-.1 8.3.3-.6 1.2-1.2 1.9-1.2s1.5-.4 1.7-.8 2.5-2.5 5.2-4.5 7.2-5.7 10-8.1 9.3-7.9 14.5-12.1 11.7-9.6 14.5-12c11.2-9.6 20.5-17.5 28.7-24.1l8.6-7-1.6-3.2c-.8-1.8-1.7-3.2-2-3.2s-4.9 1.9-10.1 4.1m-107.2 14.2-2.6 4.5 2.8-1c3-1 4.9-5.3 3.2-7-.6-.6-1.9.8-3.4 3.5m30.2-1.2c-.7 1.1-1.8 1.8-2.5 1.5-.7-.2-2.1.4-3.1 1.5-2.1 2.3-.7 2.5 4.1.5 2.4-1 3.5-2.2 3.5-3.5 0-2.7-.6-2.7-2 0m-43 47.7c-3.6 2.4-7.8 5.5-9.3 7-2.8 2.6-2.9 3-2.3 9.2.3 3.6.6 9.3.6 12.7 0 6 .1 6.2 3.7 8.4l3.6 2.2 2.4-2.7c1.2-1.5 2.3-3.3 2.3-4.1s.9-1.9 2-2.5c3-1.6 2.4-3.8-1.4-6.1l-3.4-2 2.9-4.7c2.7-4.3 6.4-17.9 5.7-20.6-.2-.7-3.1.7-6.8 3.2m-21.4 65.8c-2.8 1.9-3.5 2.9-2.5 3.5 1.1.6 1 1.4-.4 4.4-.9 2-1.7 4.9-1.7 6.5 0 1.7-.4 3-1 3-1.3 0-1.3-8.6.1-11.2.6-1.1.8-2.2.5-2.5s-10.5 5.3-22.8 12.4c-25 14.6-45.8 25.5-62.6 32.9l-11.4 4.9.5 3.5c.4 3.4.4 3.4-.6.7-1.2-3.1-2.1-3.3-7-1.2-5.4 2.2-13 2-15.2-.5-2.1-2.3-1.6-3.1 3.5-5 18-6.9 24.7-12.8 9.7-8.5-2.9.8-11.9 2.3-20.2 3.5-8.2 1.1-20.9 2.9-28 4.1-8.5 1.3-16.3 1.9-22.3 1.7l-9.2-.3V384h192.2l-.6-4.2c-.3-2.4-.8-12-1.2-21.3-.6-15.3-.4-17.8 1.5-25.4 2.5-10 2.8-17.1.7-17.1-.8 0-2.2-.7-3-1.6-.9-.8-1.6-1.3-1.6-1 0 .4-1.8-.3-4-1.4-2.6-1.3-4-2.7-4-4 0-1.2-.5-1.7-1.3-1.4-2.2.8-3.4-1.7-4.1-8.7-.8-8 .7-13.2 9.8-35.2 6.2-14.9 12.6-31.7 12.6-33 0-1.4-2.7-.6-6.4 1.9M92 295.1c0 .6-.4.7-1 .4-.5-.3-1-1.1-1-1.6 0-.6.5-.7 1-.4.6.3 1 1.1 1 1.6"/><path d="M65.7 262.6c-.9.9 2.4 6.4 4.6 7.5 3.4 1.9 5-1.9 2.7-6.2-1-1.8-5.9-2.7-7.3-1.3m145.9 63.6c-.9 3.5-2.5 15.1-3.6 25.8s-2.3 22.3-2.6 25.7l-.7 6.3H237c30.3 0 32.2-.1 31.5-1.8-.4-.9-3.4-12.4-6.7-25.6-6.9-27.6-9.4-34.2-13.4-35.2-1.5-.4-4.1-.2-5.9.5-4 1.4-8.7 1.4-11.9 0-1.9-.9-2.9-.9-4 0-1.6 1.3-10.2.6-12.2-1.1-.8-.6-1.7 1-2.8 5.4"/></svg>