<svg xmlns="http://www.w3.org/2000/svg" width="682.667" height="512" version="1.0" viewBox="0 0 512 384"><path d="M0 140.5C0 274.1.1 281 1.8 280.2c.9-.5 3.7-1.2 6-1.6 2.4-.4 6.2-1.6 8.5-2.8 3.5-1.7 7.1-2.2 21.7-3.1 9.6-.5 18-1.4 18.7-1.9 1.4-1.1.6-6.9-1.1-8-.6-.4-2-.8-3.1-.8-3.8 0-4.3-1.6-2.9-9.3 3.3-17.9 5.7-39.7 4.8-42.2-.3-.8-1.2-1.5-2-1.5-1.6 0-5.4-3.5-5.4-4.9 0-.5.8-1.7 1.7-2.7 1-.9 1.8-2.7 1.8-3.9.1-1.1.4-2.5.7-3.1 1.1-1.9 3.7-11.1 4.4-15.9.7-4.4 1.1-11.6 1.3-23.2.1-5.5 2.7-10.2 6.5-11.8 7.4-3.1 15.1-.7 18.1 5.7.8 1.8 2 4.1 2.7 5 1 1.4.9 2.1-1.1 4.1-1.8 2-2.1 3.1-1.5 6.1.5 2.7.2 4.1-1 5.5-1.3 1.4-1.4 2.4-.6 4.5.5 1.5 1 4.8 1 7.4 0 4.4.3 4.9 4.6 8.2 10 7.7 9.9 7.6 8.6 9.3-.7.8-1.2 2.8-1 4.4.3 2.7.1 2.8-3.5 2.5-5.1-.4-9.1 2.1-8.3 5.1 3.2 10.7 12.4 49.2 12 49.8-.9 1.6-2.6.9-5.4-2.1-2.6-2.8-6.3-3.9-7.3-2.3-.3.5-.8 2.3-1.2 4.1l-.7 3.2h4.5c5.4 0 7.8 2.1 5.2 4.6-2 2.1-.8 3.5 3.1 3.6 3.5.1 13.9-5.1 41.4-20.5 45.9-25.7 53.4-30.3 55.2-33.8 2.1-4.2 2.3-8 .5-7.3-.7.2-2.1-.4-3.1-1.5-1.4-1.5-1.5-2.4-.7-4 .6-1.1 1.1-2.2 1.1-2.5s-4.2-3.1-9.2-6.2C159.7 185.9 144 175 144 173.7c0-1.7 2-3.7 3.7-3.7.7 0 4.4 2.2 8.3 5 9.3 6.6 31.1 20.2 31.6 19.7.2-.2 0-2.8-.6-5.7-1.8-9.4-1.3-15 2-20.5 4.5-7.8 8-15.5 8-17.9 0-3.7 3.6-8.2 11.6-14.2 11-8.4 15-12.5 15.8-16.1.6-2.8.5-3.1-1.2-2.6-1.3.3-2.2-.2-2.6-1.4-.6-1.5-1-1.2-2.2 1.7l-1.5 3.5-2.1-2.5c-1.1-1.4-2.3-2.5-2.7-2.5-.3 0-.5-.8-.3-1.8.1-1.2-.6-2.1-1.8-2.4-1.4-.4-1.7-.9-1.1-2.2.5-.9 1.2-4.3 1.6-7.5.9-6.8 6.7-19.2 11.7-24.9 4.3-4.8 13.9-10.4 19.3-11.3 5-.7 11.6 1.8 17.7 6.6 2 1.7 4.1 3 4.6 3 1.2 0 7.7-16.6 10.3-26.8 1.2-4.5 2.6-8.2 3-8.2s1 2.4 1.4 5.2c.4 2.9 1.8 7.4 3.1 10 3.5 6.9 3.1 9.1-2.2 14.8-4.2 4.4-4.7 5.5-5.5 11.7-.5 3.7-.6 9.9-.4 13.8.7 9.2-.9 13.6-5.1 14.7-1.9.5-3.5 1.8-4.3 3.4-.6 1.5-1 2.8-.9 3 .2.1 3.2-1.9 6.7-4.7 5.1-4 6.8-4.8 9-4.3 1.4.4 2.8.7 3.1.7.3.1 2.2-.5 4.2-1.2 2.1-.7 4.2-1 4.8-.6.5.3 6.3-1.7 12.7-4.6 6.5-2.8 17.2-6.6 23.8-8.5s16-4.8 21-6.5c7.4-2.6 9.9-3 14.3-2.5 2.9.3 6.1 1.2 7.2 1.8 2.2 1.4 1.3 2.2 36.3-31.6 4.8-4.6 5.7-6 5.2-7.8-.9-3-3.3-4.8-6.5-4.8-3.6 0-9-3.9-19.5-13.9-4.9-4.8-11.2-10.2-14-12.1-4.9-3.4-5.2-3.5-13.8-3.2-11.3.4-16.3-1.2-25.9-8.3L324.5 0H0zM102 25c0 1.7-4.3 5-6.7 5-1.3 0-2.3-.4-2.3-.9 0-1.5 2.9-3.2 8.8-5 .1-.1.2.3.2.9m59.5 46.8c-.8.8-7.5-5.1-7.5-6.6 0-1 1.4-.2 3.9 2.4 2.2 2.1 3.8 4 3.6 4.2M284 79.3v2.1l-2.1-2.1c-1.2-1.1-1.8-2.6-1.4-3.2 1-1.7 3.5.6 3.5 3.2m-171.1 52c1.2 1.5 1.2 1.7-.3 1.1-.9-.3-1.6-1.3-1.6-2.2 0-.8.1-1.3.3-1.1.1.2.9 1.2 1.6 2.2"/><path d="M380 .6c0 .4 3 3.9 6.8 7.8 3.7 3.9 8.9 10 11.6 13.6 7 9.3 11.8 12.2 13.2 7.8.6-1.9.8-2 1.8-.6.7 1 1.7 1.3 3.1.7 3.7-1.4 9.1-1 10.8.9 2.5 2.7 2.1 4.2-1.1 4.2-1.5 0-3.8.7-5 1.6-2.2 1.5-2.2 1.7-.7 3.4 2.8 3.1 3 8.4.5 12.4-1.2 2-2.6 3.6-3.1 3.6-.6 0-2 1-3.2 2.3s-8.5 8.1-16.2 15.1c-7.7 7.1-15.3 14.1-16.9 15.6l-2.9 2.8 3.7 5c4.1 5.6 4.5 7.7 1.6 8.5-1.1.3-2 1.2-2 2.1 0 1.8-2 2.1-3.6.7-.5-.6-2.8-.6-5.8 0-3.9.7-5.4.6-7.2-.6-4.1-2.7-4.7-1.1-1.3 3.5 1.2 1.6 1.9 3.6 1.6 4.4-.9 2.2-5 2-7.2-.4-2-2.2-2.6-1.9-8.8 3.6-3.7 3.3-17.7 14.9-25.2 20.9-2.7 2.2-5.7 4.7-6.5 5.6-1.2 1.3-10.7 9.2-20.4 16.9-1 .8-2.3 2-3 2.6-.6.5-4.2 3.4-8.1 6.4-24.8 19.1-25.5 19.8-25.5 24.1 0 1-1.3 2.5-3 3.4-3 1.5-4 4.7-2 6 .6.4.8 1 .5 1.5s1.1 6 3.1 12.2c1.9 6.2 4.1 13.1 4.8 15.3 1 3.1 2.3 4.6 6.2 6.9 5.8 3.4 41.2 21.1 50.2 25.1 7.1 3.2 9.4 5.8 6.3 7.5-4.9 2.6-14.7-.5-37.7-12-9.6-4.8-17.4-8.4-17.4-8.2 0 .3 1.8 3.3 4 6.8 6 9.6 18 34.9 18 38.1 0 1.7-1.2 4.3-3 6.3-1.6 1.9-2.9 3.9-3 4.4 0 1.2-6.9 7.6-8.2 7.6-.5 0-2.1.9-3.5 1.9-1.3 1.1-3.1 1.7-3.9 1.4-2.7-1-2.4 2.3 1.1 11.2 5.4 13.6 7.4 23.3 8.2 39.3l.6 14.2H512V0h-34.9c-27 0-35 .3-35.4 1.2-.4 1-.7 1-1.8 0-1-.9-8.5-1.2-30.6-1.2-16.1 0-29.3.3-29.3.6m68.3 66c.9 1-.4 3.4-1.9 3.4-.8 0-1.4-.6-1.4-1.3 0-2.2 1.9-3.5 3.3-2.1M488 95c0 .5-1 1-2.2 1-1.9 0-2-.2-.8-1 1.9-1.3 3-1.3 3 0m14.5 50.8c1 2.7-1.2 3.7-3.9 1.8-2.5-1.6-3.3-3.6-2-4.9.9-.9 5.2 1.4 5.9 3.1M365 296c0 .5-.5 1-1.1 1-.5 0-.7-.5-.4-1 .3-.6.8-1 1.1-1 .2 0 .4.4.4 1"/><path d="M332.8 106c-6.5 2.8-12.2 5-12.7 5s-5.7 2.3-11.5 5.1c-9.7 4.8-10.5 5.4-10 7.5.5 2 .1 2.6-2.7 3.8-1.9.8-4 2.4-4.6 3.5-.9 1.4-4.2 2.9-10 4.6-15.6 4.6-17 5.3-18.8 9.1-1.4 3-1.5 4.2-.5 8.7.7 2.9 1.1 9.4.9 14.4-.3 6-.1 8.9.6 8.4 3.3-2.4 11.3-9 13.9-11.5 1.7-1.6 4.8-3.9 6.8-5.2s4.5-3.2 5.5-4.3c1-1 4.5-4.1 7.9-6.8 8.4-6.6 32.6-26.8 38.9-32.3 2.8-2.5 6.6-5.8 8.4-7.3 3-2.5 3.3-3.1 2.3-5.3-.7-1.3-1.5-2.4-1.9-2.4-.5 0-6.1 2.3-12.5 5m-76.1 13.7c-.4.3-.7 1.1-.7 1.7s.5.5 1.2-.2c.6-.6.9-1.4.7-1.7-.3-.3-.9-.2-1.2.2m-4.2 2.3c-.3.5.1 1 .9 1 .9 0 1.6-.5 1.6-1 0-.6-.4-1-.9-1-.6 0-1.3.4-1.6 1m-35.9 42.9c-1.6.9-3.8 2.4-4.8 3.3-1 1-2.3 1.8-3 1.8-.6 0-2.5 1.5-4.2 3.4-3 3.2-3.1 3.7-3.4 13.7-.2 5.7-.5 11.2-.8 12.1-.3 1.1.8 2.4 3.8 4.2l4.3 2.6 2.7-3.2c1.5-1.8 3.4-4 4.1-4.9 3-3.5 2.8-4.9-.8-6.6-3.5-1.7-4.5-3.6-2.5-4.8s5.8-10.1 7-16.3c.7-3.4 1.1-6.4.9-6.6-.2-.1-1.7.4-3.3 1.3M193 231.7c-.8.3-12.1 6.7-25 14.1-28.5 16.4-47.4 26.3-66.3 34.8-7.8 3.5-14.6 7-15.2 7.8-.6 1-.4 2.6.8 5 .9 2 1.3 3.6.8 3.6-.9 0-3.1-4.5-3.1-6.5s-.9-1.9-8.2.6c-3.7 1.2-7.2 1.8-8.7 1.4-3-.7-6.1-3.3-6.1-4.9 0-.6 4.2-2.8 9.3-5 5-2.1 10.2-4.5 11.5-5.3 3.1-1.9 1.9-3.5-1.6-2.2-3.6 1.4-22.2 4.5-35.2 5.9-5.8.6-12.5 1.6-15 2.1-8 1.8-28.2 3-29.7 1.8-1.1-1-1.3 7.2-1.3 49V384h191.6l-.8-6.8c-1.7-13.2-1.2-32.9 1.1-42.5 2.3-9.8 2.6-12.7 1.1-12.7-.5 0-1-.6-1-1.3 0-.8-2.9-2.8-6.4-4.5-3.6-1.7-6.7-4-7-4.9-.3-1-1.6-2.3-2.8-2.8-2.1-.9-2.3-1.8-2.6-9.2-.2-9.3.9-13.1 11.7-37.6 3.3-7.6 7.2-16.9 8.5-20.5 1.3-3.7 2.7-7.5 3.1-8.5.7-1.8-.5-2.1-3.5-1m-11.6 14.6c-.7 2.3-1.6 5.9-1.9 8.1-.8 5.2-1.8 3.8-1.6-2.5.1-6 1.9-10.9 3.7-10.2 1 .4.9 1.4-.2 4.6"/><path d="M65.2 263.3c-.9 1-.5 2.2 1.5 5 4 5.7 7.6 4.4 5.3-1.9-1.7-4.3-4.7-5.7-6.8-3.1m160.2 62.2c-.6 1.5-4.5 2.1-5.7.8-.4-.3-2-.8-3.7-.9-4.3-.5-4.5.5-8.5 39.1-.9 8.2-1.8 16-2.1 17.3l-.4 2.2h32c19.3 0 31.9-.4 31.6-.9-.4-.5-3.3-11.4-6.5-24.3-3.2-12.8-6.8-25.4-7.9-27.9-1.9-4.3-2.4-4.7-6.4-5.3-2.5-.4-5.7-.2-7.2.4-3.9 1.5-9.2 1.2-11-.5-.8-.8-2-1.5-2.6-1.5s-1.3.7-1.6 1.5"/></svg>