<svg xmlns="http://www.w3.org/2000/svg" width="682.667" height="512" version="1.0" viewBox="0 0 512 384"><path d="M0 141.9v141.9l3.8-1c2-.5 5.6-1.9 8-3 3.6-1.7 7.5-2.2 22.9-2.9 10.3-.5 19-1.2 19.4-1.6.4-.5.4-2.8 0-5.3-.6-4.4-.7-4.5-4.4-4.8-2.3-.2-4-.9-4.4-1.9-.7-1.8.9-15.7 4-34.3 1.2-7.4 2.1-14.2 1.9-15.1-.1-.8-1.7-1.9-3.4-2.5-4.7-1.4-5.7-3.8-3-6.7 1.2-1.3 2.2-3.1 2.2-4.1s.9-5 1.9-8.9c4.8-17.9 5.1-19.7 4-21.5-.8-1.3-.8-4.4-.1-11.6 1.3-11.5 2.8-13.9 10-15.5 6.2-1.3 12.3 1.3 14.2 6 .7 1.9 2 4.2 2.9 5.2 1.3 1.6 1.3 2.1-.3 4.8-1.3 2.2-1.6 4-1.1 6.9.5 3 .3 4-1.1 4.8-1.3.7-1.5 1.6-.9 3.8.4 1.6.9 5.2 1.2 8.1.4 4.5 1 5.6 5.2 9.5 2.5 2.3 5.8 5 7.1 5.9 2.3 1.5 2.4 1.8 1.1 4.2-.7 1.4-1.1 3.6-.7 5 .8 3.3-.2 3.9-3.5 2-2.5-1.5-2.9-1.5-5.3.1-1.4.9-2.6 2.3-2.6 3 0 3.6 5.4 33.3 7.7 42.8 1.5 5.9 2.4 11.1 2 11.5s-2.7-.3-5-1.6c-5.3-2.9-7.7-2.5-9 1.4-.8 2.4-.7 3.1.8 4 .9.5 3.3 2.4 5.2 4.2l3.4 3.1-2.3 1.6c-10.4 7.3 28.4-11.4 72.1-34.7 29.4-15.7 28.3-14.7 30.2-27.1.5-3.4 1.1-7.3 1.3-8.7.5-2.4-.4-3.3-8.2-8.5-4.8-3.2-13-9-18.2-12.9-5.2-4-10.7-8-12.2-9-3.3-2-3.7-5.5-.9-7.2 1.6-1 3.2-.2 11.7 6.4 11.3 8.6 27.4 19.6 27.9 19.1.2-.2.9-4.2 1.4-8.8 1-7.8 1.5-9.1 6.5-16.5 5.9-8.7 9.6-16.3 9.6-19.4 0-3.6 7.7-10.9 20.3-19.4 2.3-1.5 4.6-3.6 5.1-4.6.4-1 2.6-2.6 4.8-3.5 4-1.5 4.1-1.6 3.5-5.7-.6-4.8-1.1-5.4-3.3-4.5-1.2.5-1.4 1.3-.9 3.4.4 1.5.3 2.4-.1 1.9-.4-.4-1.7.2-2.9 1.3-2 1.8-2.3 1.9-3.5.5-.7-.8-1.9-1.5-2.6-1.5-1.4 0-1.8-1.1-1.4-4.3.1-1.4-.4-1.7-2.4-1.3-2.5.4-3.2-.4-2.6-2.9.1-.6.6-3.5 1-6.5 1-7 9.8-23.7 15.6-29.6 2.3-2.3 6.6-5.6 9.5-7.3 8.8-5 19-4.1 27.7 2.5 1.8 1.4 3.6 2.3 3.9 2s0-3.3-.7-6.6c-1.2-5.5-1.1-6.3.4-7.8 1.6-1.6 1.9-1.6 4.6 0l2.9 1.6 1-4.9c.6-2.8 1.1-7.2 1.1-9.9 0-5 1.5-7.4 3.1-4.9.5.8.9 4.2.9 7.5 0 3.4.7 8.1 1.5 10.4 2.5 7.1 2 9.7-3 15.8-2.5 3-4.5 6.2-4.5 7.2s1.2 4.2 2.7 7.2c2.9 5.5 3.5 11.1 2 18l-.8 3.6 5.8-.4c3.2-.2 7.4-.6 9.3-.8 3.3-.3 23.2-8.4 27.5-11.1 1.1-.8 7-2.8 13-4.5 6.1-1.8 15.6-5 21.3-7.1 11.5-4.4 18.7-5 24.7-2.2 3.4 1.6 3.6 1.6 6.3-.8 1.5-1.4 8.8-7.9 16.2-14.4s15-13.3 16.7-15.1c1.8-1.8 3.8-3.4 4.5-3.7.9-.3.4-1.4-1.4-3.4-1.6-1.6-2.8-3.2-2.8-3.5 0-4.1 14.3-5.5 18-1.8 3.6 3.6 2.4 6.1-6.7 13.7-2.1 1.8-6.9 5.8-10.8 9-3.8 3.2-7.7 6.5-8.5 7.4-1.1 1.2-16.9 14.5-21 17.6-.2.3.8 2.8 2.4 5.7 2.8 5.2 2.9 7.6.2 7.6-.8 0-1.6.9-1.9 2.1-.4 1.4-1.2 1.9-2.9 1.7-1.3-.1-4.7.1-7.6.6-4.4.7-5.7.5-7.2-.9-3.1-2.8-3.5.4-.6 4.7 2.1 3.3 1.5 5.8-1.4 5.8-2.4 0-6.1-1.8-7.2-3.3-.3-.6-2.9.9-6 3.5-2.9 2.4-11.6 9.4-19.3 15.3-7.7 6-14.6 11.5-15.4 12.2-.7.8-4.8 4-9 7.3-4.2 3.2-11.3 8.7-15.8 12.2s-9.1 7-10.3 7.8c-1.3.8-2.8 1.9-3.4 2.5-1.7 1.5-9.8 7.6-16.2 12-9.6 6.7-9.4 6.6-9.9 12.3-.4 5.9-1 7.2-3.1 7.2-2.2 0-4 4.6-2.5 6.4.7.8 1 2 .6 2.6-.3.5.5 4.7 1.9 9.3 1.5 4.5 3.5 11.9 4.7 16.4l2.1 8.2 10.7 6.4c12.2 7.4 13.9 8.4 36.9 20.7 18.4 9.8 20.2 11.1 18.2 13.5-1.7 2.1-6.9 1.9-13.5-.6-6.7-2.5-24.9-11.8-35.9-18.3-4.3-2.6-8.1-4.4-8.3-4.2-.3.3 1.1 3.1 3 6.3 4.7 7.7 6.9 12.8 15.3 34.3 2.1 5.6 1.7 9.3-1.2 12.1-1.4 1.3-3.2 3.7-4 5.2-2.1 4-4.3 5.9-10.7 9.6-3.1 1.8-5.7 3.7-5.7 4.2 0 .6 1.3 4.1 2.9 7.9 4.4 10.3 7.1 20.9 7.8 30.5l.6 8.5H512V0h-36c-34.2 0-36 .1-36 1.8 0 1-.3 2.2-.7 2.5-1 1.1-3.2-1.3-2.6-2.9.4-1.2-1.4-1.4-11-1.4h-11.5l-.7 3.7c-.3 2.1-1.7 6.2-3.1 9.2l-2.4 5.4 3.6 4.4c2 2.5 5.6 5.4 8 6.6 3.9 1.8 5 2 8.7 1 2.3-.6 4.3-1 4.5-.8 1.1 1.1-1.5 4.9-4.9 7.2-5.8 3.8-12.9 3-20.5-2.3-3-2.1-6.1-4.3-6.9-4.8-.9-.7-3.3-.1-7.3 1.8-8.4 3.7-17.4 4.4-24.3 2-7.3-2.6-15.6-10.5-19.3-18.3-2.9-6-3-6.1-7-6.1-4.8 0-10.2-3-11.8-6.5L329.7 0H0zM85 32c0 1.9-4.8 6-7 6-2.9 0-2.1-2 2-4.8 3.6-2.4 5-2.8 5-1.2m53.1 41.2c1.1 2.1 1.1 2.2-.4.9-1-.7-1.7-1.7-1.7-2.2 0-1.5.9-1 2.1 1.3m307.7-.5c-.5 2.5-2.8 2.8-2.8.4 0-1.2.6-2.1 1.6-2.1.9 0 1.4.7 1.2 1.7m-302.2 3.7c1 .8 1.6 1.7 1.2 2.1-.8.8-4.8-1.3-4.8-2.5 0-1.4 1.3-1.2 3.6.4M451.5 92c.3.5.1 1-.4 1-.6 0-1.1-.5-1.1-1 0-.6.2-1 .4-1 .3 0 .8.4 1.1 1m30 6c-.3.5-1 1-1.6 1-.5 0-.9-.5-.9-1 0-.6.7-1 1.6-1 .8 0 1.2.4.9 1m22 58.1c.9 2.6.2 3.3-2.4 2.4-2.8-.9-4.8-4.5-3-5.6 1.7-1 4.6.6 5.4 3.2m-83.8 123.5c-.3.3-1.2.4-1.9.1-.8-.3-.5-.6.6-.6 1.1-.1 1.7.2 1.3.5M362 304c0 .5-.5 1-1.1 1-.5 0-.7-.5-.4-1 .3-.6.8-1 1.1-1 .2 0 .4.4.4 1"/><path d="M352.5 103.6c-5.5 2.6-12.8 5.7-16.2 7-7.2 2.7-26.3 12.1-26.3 13 0 .3.4 1.3 1 2.3.8 1.5.3 2.1-3 3.6-2.2 1-4 2.4-4 3.1 0 1.9-1.2 2.5-16 7.4-17.4 5.8-17.4 5.8-17.5 24.6v13.2l5-3.6c2.8-2 11.3-8.6 19-14.6 7.7-5.9 15.3-11.8 16.8-13 1.5-1.1 4-3.1 5.5-4.4s5.9-4.8 9.9-7.8c3.9-3 7.8-6 8.5-6.7s6.7-5.5 13.3-10.7 13.1-10.4 14.3-11.6c2.3-2.1 2.7-5.4.7-6.1-.5-.1-5.5 1.8-11 4.3m-72.5 8.9c-.7.9-1.9 1.4-2.7 1.1-1.1-.5-5 5.1-4.1 5.9.2.1 2.7-1.7 5.6-4.1 3-2.4 4.7-4.4 3.9-4.4s-2 .7-2.7 1.5m-14.9 10.2c-2.2 2.2-2.9 3.3-1.9 3.3 2.4 0 6.1-3.4 5.7-5.1-.3-1.2-1.2-.8-3.8 1.8m-44.3 47.5c-1.6.5-2.8 1.4-2.8 1.9s-1.5 1.5-3.2 2.3c-6.6 2.8-10 7.8-12.9 18.9-1.5 5.6-2.5 10.5-2.2 11 .2.4 2.8 2.3 5.6 4.2l5.1 3.5 2.8-2.7c1.5-1.5 2.8-3.3 2.8-4s.9-1.8 2-2.5c2.6-1.6 2.6-5.5.1-6.3-4.2-1.3-4.3-2.9-.6-9 3.2-5.4 7-15.7 6.3-17.4-.2-.5-1.5-.4-3 .1m-25.2 46.3c-.7 1.9-.8 5.5-.1 5.5.2 0 1.6-.5 3-1.2 2.9-1.3 2.8-2.5-.2-4.5-1.8-1.2-2.1-1.2-2.7.2m-12.1 27.4c-2.2 1-11.2 5.8-20 10.6-23.1 12.7-50.6 26.1-68.7 33.4-14.8 5.9-15.8 6.5-15.8 9 0 1.4.7 3.8 1.4 5.3.8 1.6 1.1 2.8.7 2.8-1 0-2.8-3.7-3.6-7.3-.4-2.2-1-2.7-2.3-2.2-9.6 4.1-16.3 4.6-20.1 1.4-3.7-3-2.1-4.5 9.4-9.1 16.2-6.4 15.6-6.7-9.2-3.8-5.1.5-13.2 1.4-18 2-4.9.5-13.3 1.7-18.8 2.6-5.5.8-11.9 1.4-14.2 1.2l-4.3-.3V384h189.6l.1-14.2c0-11.9.5-16 2.5-24.1 1.6-6 2.1-9.7 1.4-9.7-.5 0-1.9-.9-3.1-2-4.4-4.2-6.5-6-7-5.9-2 .4-6.6-2.8-7.7-5.1-.7-1.6-1.6-2.6-2.1-2.3-.4.2-1.4-.1-2.2-.7-1.7-1.4-1.9-13.2-.4-19.3.6-2.1 5.4-13.5 10.9-25.5 12.9-28.4 14.2-31.9 12.3-32.6-2.7-1.1-6.8-.6-10.8 1.3m-22.2 20.3c-.4.7-1 4.6-1.3 8.7-.4 6.2-.8 7.5-2.3 7.7-1.6.2-1.8-.3-1.4-3.4 1.1-7.4 2.5-12.5 3.8-13.3 1.9-1.2 2.2-1.1 1.2.3"/><path d="M61.3 265.6c-.7 2 2 6.8 4.1 7.2 1.1.2 1.4-.2 1-1.2-.3-.9-.1-2.3.6-3.1 1-1.2 1-1.8 0-3-1.6-2-4.9-1.9-5.7.1m163.9 75c-.7 1.2-1.6 1.5-3.3 1-1.3-.4-3.8-.9-5.5-1.2l-3.2-.4-1.1 6.2c-.6 3.5-1.5 11.5-2.1 17.8s-1.3 13.4-1.6 15.8l-.6 4.2h30.1c16.5 0 30.1-.3 30.1-.6 0-.4-1.9-7.9-4.1-16.8-4.8-18.6-8.3-27.6-10.1-25.8-1.6 1.6-4.5 1.5-5 0-.4-1-1.3-1-4.5 0-5.5 1.6-12.5 1.5-14.9-.3-2.5-1.9-3.1-1.9-4.2.1"/></svg>