<svg xmlns="http://www.w3.org/2000/svg" width="682.667" height="512" version="1.0" viewBox="0 0 512 384"><path d="M0 142.5V285l2.8-.6c1.5-.4 4.3-1.5 6.2-2.4 4.7-2.3 8.8-2.9 26.2-3.5 8-.3 15.3-.8 16.2-1.1 1.1-.4 1.6-1.9 1.6-4.4 0-6-.7-7-5.3-7h-4l.6-7.8c.3-4.2 1.8-14.7 3.2-23.2 3.2-20 3.3-19.8-.8-21.5-1.9-.8-4-2.1-4.7-3-1.1-1.3-.9-1.9.9-3.9 1.3-1.4 2.4-3.7 2.6-5.3.2-1.5 1-5.3 1.9-8.3 3.9-14.2 4.8-20.2 3.5-22.7-1-1.8-1-3.4-.1-7.1.6-2.6 1.1-5.4 1-6.2-.7-7.5 3-12.3 10.4-13.4 6.4-1 11.5 1.6 13.9 6.9 1 2.2 2.4 4.8 3.1 5.7 1 1.4.8 2.1-1.1 4.2-2.1 2.2-2.2 2.8-1.1 6.2 1.1 3.3 1.1 3.9-.5 5-1.5 1.1-1.6 2-.5 9.1 1.2 7.4 1.5 8 6.2 12.5 2.7 2.5 5.9 5.3 7.1 6.1 1.9 1.3 2 1.8.9 3.6-.8 1.4-1 3.5-.6 5.6.5 2.7.3 3.5-.9 3.5-.8 0-2-.7-2.7-1.5-1.6-2-3.3-1.9-6 .3-2.2 1.8-2.3 2-1.1 10.3 2.7 19.1 4.3 28 6.6 36.9 2.6 10.1 2.1 12.3-2.1 9.5-1.2-.7-3.7-1.7-5.7-2-3.3-.7-3.8-.5-4.7 2-1.4 3.7-1.3 4.3 1 5 2.7.9 8.8 6.5 7.1 6.5-.8 0-1.1.3-.8.6.3.4.2 1.5-.4 2.5-.8 1.7-.7 1.8 1.3 1 12.7-4.9 53.7-25.3 85.2-42.4 10.9-5.9 12.1-6.8 13.4-10.3 1.3-3.9 4.2-18.5 4.2-21.6 0-1.5-8.9-8.4-33.6-25.8-3.5-2.5-6.6-5.3-7-6.3-.5-1.7 2-5.7 3.6-5.7.4 0 4.5 3.1 9.1 6.8 9.5 7.6 27.3 20.2 28.7 20.2.5 0 1.4-3.3 2.1-7.3 1.4-7.6 3.4-11.8 10-20.6 2.3-3 4.1-6.2 4.1-7.2 0-.9.6-2.2 1.4-2.8.7-.6 1.7-3 2-5.3.5-3.2 1.8-5.2 5.5-8.7 6.5-6.2 13.1-11.6 17.4-14.1 2-1.2 3.9-3 4.2-4.1.4-1.1 2.2-2.3 4.5-2.9 2.1-.6 4-1.7 4.4-2.5.7-2-1.8-9.2-2.8-7.7-.4.7-1.2 1-1.7.7-.5-.4-.6.7-.3 2.5.5 2.4.3 3-1 3-.9 0-1.9.6-2.2 1.3-.3.8-1.1 1.4-1.9 1.4s-1.3-.2-1-.5c.6-.6-2.1-3.2-3.4-3.2-.6 0-1.1-1.4-1.1-3.1 0-2.7-.2-3-1.5-1.9-.8.7-1.5.9-1.5.5s-.6-.3-1.3.3c-1 .9-1.1-.4-.6-6.8.6-7 1.3-9.1 6.5-19.1 12.5-23.8 27.1-31.3 43.8-22.4 7.3 3.9 7.3 3.9 5.7-4.3-.7-3.3-.5-4.6.6-5.8 1.5-1.5 4.6-1.1 7 .8 1.8 1.5 2.5-.8 3.1-10.3.3-4.9.9-9.2 1.5-9.6 1.6-.9 2.7 1.9 2.7 7.2.1 2.7.5 7 1.1 9.5 2.6 11.9 2.5 12.2-2.5 17.9-2.5 2.8-4.6 5.6-4.6 6.1 0 .4 1.6 4.1 3.6 8.2 3.3 6.8 3.5 7.8 2.9 13.7-.3 3.5-1 7.1-1.4 8-.8 1.4-.2 1.6 4.3 1.6 2.8 0 6.2-.6 7.5-1.3 1.2-.8 3.2-1.1 4.4-.8 1.8.4 23.1-8 26.2-10.5 1.1-.8 11.6-4.2 22.9-7.4 3.3-.9 9.7-3.2 14.2-5.1 6.7-2.8 9.6-3.4 15.1-3.4 4 .1 7.8.7 9.3 1.5 3.8 2.1 2.1 3.1 17.5-10.2 2.2-1.9 8.6-7.3 14.2-12.1s10.2-9.2 10.2-9.7c.1-.6 1.4-1.9 3.1-2.8 1.6-1 4.2-3.1 5.9-4.7 3.3-3.4 7.4-3.9 10.9-1.4 6.3 4.4-1.9 15.4-11.5 15.4-2 0-4.8 1.8-9.9 6.4-4 3.5-12.4 10.7-18.8 16L404 90l2 3.3c1.1 1.7 2 3.7 2 4.4 0 2.4-5.5 7.1-9.3 7.8-2 .4-4 1.1-4.3 1.6-.9 1.5-4.6 1-6.6-.8-3.3-3-4.2-.1-1.4 4.7 1.4 2.4 2.3 4.7 2 5.2-.9 1.4-4.6.9-8-1.3l-3.3-2-5.8 4.7c-9 7.2-21.8 17.3-33.3 26.1-3 2.4-10.7 8.3-17 13.3s-15.3 11.8-20 15.2-9 6.7-9.7 7.3c-.6.5-6.2 4.6-12.3 9l-11.1 7.9.2 5c.3 4.4 0 5.1-2.1 6-1.4.6-2.8 1.5-3.2 2.1-1.1 1.5.1 8.9 2.8 17.5 1.3 4.1 3.1 10.9 4 15s2 8.2 2.5 9.1c1.1 2.1 31.4 20 57.4 33.9 9.4 5 11.6 6.7 10.8 8.5-.9 2.5-5.7 2.6-12.8.4-7.1-2.1-15.1-6.1-35.1-17.5-6.2-3.5-11.5-6.4-11.9-6.4s.5 2.1 2 4.7c5.7 10.1 7.4 13.4 10 20.5 1.5 4 3.6 9.1 4.5 11.3 2.9 6.6 4.2 12.3 3.1 14.2-.5 1-2.1 2.9-3.5 4.2-1.4 1.4-2.6 3-2.6 3.7 0 3.2-12.5 12.9-16.3 12.6-1.1 0-1.7.4-1.4 1.1 6.9 16.7 8.9 22.8 10.4 31.5l1.8 10.2H512V0h-86.8l.5 3.8c.3 2.5-.3 6.1-2.1 11.2-1.5 4.1-2.9 8.3-3.2 9.2-.4 1.1.4 2.7 2.2 4.4 2.6 2.3 3.5 2.5 7.7 2.1 3.4-.5 4.7-.3 4.7.7 0 1.8-4.1 5.4-7.8 6.7-2.7.9-3.9.7-8.7-1.5l-5.6-2.5-5.4 3c-6.2 3.5-10 4.7-17 5.5-9.3 1-21.2-4.9-26.6-13.4-2.6-4-6.8-15.4-8.3-22.5-.6-2.6-.9-2.7-6.5-2.7-4.3 0-6.5-.5-8.4-2-2.5-2-4-2-171.6-2H0zM438.8 3.2c-.2 1.3-.7 2.3-1.3 2.3-.5 0-1.1-1-1.3-2.3-.2-1.5.2-2.2 1.3-2.2s1.5.7 1.3 2.2M78 35.4c0 2.8-6.9 7.1-8.6 5.4-1-1.1.9-3.7 3.9-5.2 4-1.9 4.7-2 4.7-.2m366.8 39.3c-.4 2.2-2.2 2-2.6-.1-.2-1 .3-1.6 1.3-1.6s1.5.7 1.3 1.7m-310 3.3c.9 0 2.6.7 3.6 1.5 1.9 1.5 1.9 1.5-.1 1.5-2.4 0-8.3-4.5-8.3-6.3 0-.6.7-.1 1.6 1.1.8 1.2 2.3 2.2 3.2 2.2m345.7 20c-.3.5-1.3 1-2.1 1s-1.2-.5-.9-1c.3-.6 1.3-1 2.1-1s1.2.4.9 1m23.7 61.5c1.3 1.7.9 2.5-1.1 2.5-2.4 0-4.5-2.5-3.7-4.6.5-1.4.9-1.4 2.4-.3.9.8 2 1.8 2.4 2.4"/><path d="M360 103.2c-4.7 2.2-12.3 5.5-17 7.4s-13.1 5.8-18.7 8.6c-9.2 4.7-10.1 5.3-9.1 7.1 1 1.9-.2 3.6-2.4 3.7-.5 0-2.5 1.7-4.7 3.7-3 3-5.8 4.4-13.2 6.6-19.6 5.8-21.5 7.8-21.2 21.9.2 4.8-.1 10.7-.6 13.2l-.8 4.5 5.6-4.2c12.6-9.2 22.7-16.9 43.1-32.8 51.3-40 50.1-39 49.8-41.2-.2-1.1-.7-2.2-1.3-2.3-.5-.1-4.8 1.6-9.5 3.8m-76.4 9.7c-1 1.1-2.4 1.7-3.1 1.5-.8-.4-2 .7-3 2.5-2 4.1-.8 3.9 3.9-.4 2.1-1.9 4.2-3.5 4.7-3.5.4 0 1.1-.5 1.4-1 1.1-1.8-2.2-1-3.9.9m-14.2 9.6c-1.1 1.1-2.9 2.5-4 3.2-1.8 1.1-1.8 1.2.2 1.2 2.8.1 6.7-3.1 6.3-4.9-.3-1.2-.8-1.1-2.5.5M220.5 174c-2.1 1.6-4.3 3-4.9 3-.6.1-3.2 2-5.8 4.4-4.2 3.8-4.9 5.1-6.8 12.7-1.2 4.6-2.6 9.2-3.1 10.1-.7 1.4-.1 2.4 3.3 4.9 7.4 5.4 8.4 5.6 11.3 2.5 1.4-1.5 2.5-3.4 2.5-4.1 0-.8.9-2 2-2.7 2.9-1.8 2.5-4.5-1-6.3-1.6-.9-3-2-3-2.6s1.6-3.7 3.6-6.9c1.9-3.1 4.1-7.7 4.9-10.1.7-2.4 1.6-5.2 2-6.2 1-2.5-.7-2.1-5 1.3m-26.9 47.2c-.9 2.4-1.6 4.7-1.6 5.1s2.3-.4 5-1.8c2.8-1.4 5-2.9 5-3.4 0-.4-1.2-1.4-2.7-2.2-1.6-.7-3.1-1.5-3.4-1.7-.3-.1-1.3 1.7-2.3 4M173 252.6c-48.3 25.3-56.5 29.2-80.5 38.9l-15 6 .1 3.5c.1 1.9.5 4.6.8 6 .7 2.4.7 2.4-.8.6-.9-1.1-1.9-3.4-2.2-5.3-.7-3.8-.8-3.8-6-1.9-7.4 2.6-12 2.9-15.9 1-2.7-1.2-3.5-2.2-3.3-3.8.2-1.7 2.5-3 10.8-6.3 5.8-2.3 11-4.4 11.5-4.6q1.05-.45 0-1.5c-.7-.7-3.8-.7-9.5-.1-4.7.4-13.9 1.3-20.5 1.8-6.6.6-17.6 2-24.4 3.2-6.9 1.1-13.7 1.9-15.3 1.7l-2.8-.5V384h189.5l.1-10.8c0-7.6.7-13.5 2.4-20.5 2.3-9.2 2.3-9.9.7-10.8-.9-.6-1.7-1.6-1.7-2.4 0-.7-1.3-1.8-3-2.4-1.6-.5-3-1.5-3-2 0-.6-.3-1-.7-.9-1.6.4-7.4-3.4-8.4-5.5-.6-1.3-2-2.7-3.2-3.2-2-.9-2.2-1.9-2.5-9.7-.3-7.9 0-9.5 3.2-17.5 1.9-4.8 4.9-11.7 6.7-15.3 7.3-14.5 15.7-35.5 14.5-36.2-3.3-2.2-9.4-.6-21.6 5.8m-19.5 20.1c-.4 1-.8 5.2-.9 9.3-.1 6.8-.3 7.5-2.1 7.5-2.7 0-3.3-5.7-1-9.2.9-1.3 1.4-2.7 1.1-3s.1-1.8 1-3.4c1.6-3.1 3.1-4 1.9-1.2m-92.8-6c-1.3 1.2-.7 4 1.2 5.7 1.7 1.6 1.9 1.5 3.1-1.3.6-1.6.9-3.5.5-4-.7-1.2-3.8-1.5-4.8-.4"/><path d="M77 281c-.8.5-1.2 1.2-.9 1.5.4.3 1.2-.1 1.9-1 1.4-1.7 1.1-1.9-1-.5m149.6 65.6c-.5 1.2-1.4 1.5-3.6 1-1.7-.3-4.3-.9-5.9-1.2s-3.1-.2-3.4.3c-.6.9-2.9 18.2-4.2 31l-.6 6.3h29.6c16.2 0 29.5-.3 29.5-.6 0-1.5-5.5-21.9-7.7-28.7-2.3-6.8-2.8-7.7-4.6-7.1-1.1.3-3.8 0-5.9-.7-3.2-1-4.1-1-4.7 0-1.8 2.9-15.1 2-15.1-1 0-1.6-2.8-1-3.4.7"/></svg>