<svg xmlns="http://www.w3.org/2000/svg" width="682.667" height="512" version="1.0" viewBox="0 0 512 384"><path d="M0 145v145l4.8-2.4c4.9-2.6 8.4-3.1 28.7-4.2 15.3-.8 16.5-1.3 15.6-5.5-.5-2.6-1.3-3.5-3.9-4.1-1.8-.5-3.6-1.6-3.9-2.5-.3-.8.6-5 2-9.2 3.3-10 4.9-21.4 4.5-33.1l-.3-9.4-3.5-1c-3.5-1-6.9-4.1-7-6.2 0-.6.9-1.9 1.9-2.8s2.1-2.9 2.4-4.4 1.2-5.2 2-8.2 2.2-8.7 3-12.5c1.5-6.8 1.5-7-.5-8.6-1.8-1.4-1.9-2-.9-5 .6-1.9 1.3-6 1.6-9.2.9-9.9 2-11.4 9.8-14 4.4-1.5 5.1-1.5 8.3.1 3.4 1.6 3.7 1.6 4.9-.2 1.5-2 3.5-1.4 3.5 1.1 0 1.3-.3 1.3-1.5.3s-1.5-1-1.5.3c0 2.4 3.8 10.7 5 10.7 1.7 0 1.1 2.2-1.2 4.7-1.9 2-2 2.7-1 6 1 3.1.9 4-.5 5.5-1.6 1.7-1.6 2.2 0 6.6.9 2.6 1.7 5.6 1.7 6.8 0 1.1.8 2.8 1.7 3.7 5 4.6 6.6 5.8 10.3 8.2 4.4 2.8 4.8 3.6 2.4 5.6-.8.7-1.5 2.6-1.4 4.3.3 5.8.2 6-2.6 4.1-2.3-1.5-3-1.5-5.1-.4-1.4.8-2.8 2.2-3.2 3.2-.4.9.3 7 1.6 13.5 3.3 17.6 7.3 40.5 7.3 41.9 0 2.1-3.3 1.4-5.7-1.1-1.3-1.3-3.4-2.6-4.8-2.9-2.2-.4-2.8.1-3.9 2.7s-1.1 3.4.2 4.8c.8 1 2.1 1.8 2.8 1.8s1.7.6 2.1 1.3c.4.8 1.7 1.9 2.7 2.4 1.8 1 1.5 1.2-2.2 2.4-2.3.7-4.2 1.6-4.2 2s-1.5 1.2-3.4 1.9c-2.4.8-3.5 1.8-3.9 3.6-.6 3.4 2.7 5.3 5.2 3 2-1.8 3.5-2.1 2.5-.5-.4.8.1.9 1.7.4 5.3-1.6 53-24.4 76.3-36.4l25-12.9 1.8-5.3c1.6-5 5.8-23.4 5.8-25.7 0-.6-4.9-4.6-10.8-8.9-20.8-14.9-33.2-24.7-33.2-26 0-1.5 3.6-5.3 5-5.3.6 0 2.9 1.7 5.3 3.8 8.4 7.7 34.6 26.6 35.5 25.7.2-.2 1.1-3.4 1.8-7.1 1.5-7.2 3-10 10.6-20.5 2.6-3.7 4.8-7.6 4.8-8.6 0-1.1.9-2.8 2-3.8s2-3.1 2-4.7.7-4.2 1.5-5.8c1.7-3.3 19.4-18.5 24.3-20.8 1.9-.9 3.2-2.3 3.2-3.4 0-2 2.1-3.1 8.9-4.8 4.1-1.1 4.3-1.3 3.7-4.2-.3-1.7-.6-3.4-.6-3.8 0-.5-.9-.6-2-.3-1.5.4-1.8 1.1-1.4 2.9.7 2.6-.4 3.1-2.5 1.1-.8-.6-1.1-.7-.8-.1.4.6 0 2-.8 3-1.4 1.9-1.4 1.9-1.5-.1 0-1.1-.5-2.7-1.1-3.5-.8-1.2-.9-.9-.5 1.2.6 2.5.5 2.5-1.9 1.5-1.5-.7-2.5-2-2.5-3.3 0-3-.9-3.5-3.5-1.8-2.2 1.5-2.3 1.4-2.4-3.3 0-2.6-.2-6.1-.4-7.6-.6-4.2.8-9.4 4.9-18.3 5.2-11.2 5.3-11.8 4.1-14-.9-1.7-.9-1.8.6-.5 1.5 1.2 2 1 4.4-1.6 4.7-4.8 11.6-10 15.7-11.7 7.8-3.3 18.2-1 27.4 6.1 1.8 1.4 3.5 2.3 3.7 2.1.3-.2 0-2-.5-3.9-1.3-4.6-1.3-9.2.2-10.7 1.6-1.6 5.5-1.5 6.1 0 .8 2.3 1.8.1 2.8-6.3 2.2-13.8 2.4-14.4 3.9-14.4 1.2 0 1.5 1.8 1.6 10 0 5.5.7 12.4 1.4 15.3l1.4 5.2-4.6 4.8c-2.5 2.6-4.8 5.5-5.1 6.4s1 4.8 3.1 8.9c3.2 6.2 3.7 8 3.5 13.3-.1 3.4-.6 7.4-1.2 8.8-1 2.6-8.5 7.3-10.2 6.3-.8-.6-4.9 7.4-4.9 9.6 0 .5 2.9-1 6.3-3.4 9-6.1 12.1-7.3 16.6-6.1 2.6.7 4.5.7 6.6-.2 1.6-.6 3.8-.9 4.9-.5 2 .8 21.5-5.4 27-8.5 1.5-.9 10.3-4.2 19.5-7.4 9.1-3.2 20.4-7.2 25.1-8.9 7.2-2.7 9.3-3.1 14-2.5 3 .3 6.7 1.5 8.1 2.5 1.5 1 3 1.9 3.3 1.9.5 0 24.7-19.3 31.6-25.3 9.6-8.2 19.8-17.3 21.5-19.1 4.3-4.5 7.9-6.3 13.7-6.5 7.4-.3 12.5 2.3 15.7 7.9 2.2 3.9 2.3 5.1 1.8 13.6-.3 5.1-1 10.1-1.5 11-.8 1.5-1.2 1.2-2.1-2.2-.6-2.1-1.1-4.8-1.1-6 0-2.2-2.9-6.8-3-4.6 0 .7-.4 1.1-.9.8-.5-.4-1.4.6-1.9 2.1l-1 2.8-.1-3.2c-.1-2.1-1.2-4.5-3.2-6.7l-3.1-3.6-3.9 2c-2.1 1.1-3.9 2.5-3.9 3s-1.9 2.2-4.2 3.6c-6.2 3.9-24.6 19.2-25.8 21.5-.6 1-1.7 1.9-2.4 1.9s-5.1 3-9.7 6.6c-8.2 6.6-8.4 6.8-8.1 10.6.3 3.3 0 4-1.7 4.5-1.2.3-2.1 1.1-2.1 1.8 0 2.1-2.5 3.6-3.8 2.3-.9-.9-1.2-.7-1.2.8 0 2.2-4.1 6.4-6.2 6.4-.8 0-2.3-.9-3.3-2-1.3-1.5-2.2-1.7-3.6-.9-1.8.9-1.8 1.2.7 5.9 3.8 7.2 1.3 9.6-4.1 4-1.6-1.7-3.2-3-3.6-3s-4.3 2.8-8.8 6.2c-4.4 3.5-9.9 7.7-12.3 9.4-4.5 3.2-26.6 19.3-28.3 20.7-.5.4-3.3 2.4-6.2 4.5-2.8 2-10.6 7.7-17.4 12.7-12.3 9.1-16.5 12.1-33.9 24-13.7 9.4-13 8.7-13 13.4 0 3.1-.4 4.3-1.7 4.7-4 1.2-4.8 2.2-4.6 5.5.2 1.9.3 4.5.3 5.9 0 1.3 1.1 5.8 2.4 10 1.3 4.1 3.4 12.1 4.7 17.8 1.9 8.6 2.7 10.6 4.8 12.1 3.3 2.3 36 22.1 36.5 22.1.2 0 3.3 1.7 6.7 3.8 3.5 2.1 10.9 6.3 16.4 9.2 14.2 7.5 15.9 9.4 11.1 12-3.3 1.7-9.3.2-21.5-5.6-8.9-4.2-34.5-18.6-40.3-22.6-1.6-1.1-2.8-1.7-2.8-1.3 0 .3 2.4 5.2 5.4 10.8s6.6 13.1 7.9 16.7 3.4 8.7 4.7 11.5c1.2 2.7 2.3 5.4 2.4 6 .1.5.7 2.4 1.5 4.1 1.1 2.7 1 3.6-.4 6.3-.9 1.8-2.2 3.4-3 3.7-.7.3-1.9 2-2.6 3.7-2.4 6.2-13.3 15.3-16.9 14.2-2.9-.9-3.2 1.1-.9 5.7 1.2 2.4 3.2 7.2 4.4 10.8l2.3 6.5 110.1.3 110.1.2V0h-18.5c-17.9 0-18.5.1-17.6 1.9 1.6 3 1.5 17.1-.2 21.7-2.8 7.7-5.7 12.3-10.9 17.4-8.9 8.8-19.8 13-33.3 13-14.2 0-22.9-6.5-28-20.7-2.9-8.4-6.2-14.7-13.4-26L385.5 0H0zm56.2-99.5c-1.5 3.1-5.8 5.3-7.4 3.7s-.3-3.9 3.4-6.2c3.9-2.4 5.7-1.3 4 2.5m62.2 41.1c1.8.7 1.8.8-.2 1.5-2.7 1-4.4.4-5.9-2-1.1-1.8-1-1.9 1.5-1.1 1.5.4 3.6 1.1 4.6 1.6M471.5 98c-.3.5-1.3 1-2.1 1s-1.2-.5-.9-1c.3-.6 1.3-1 2.1-1s1.2.4.9 1m37.4 73.4c1.4 1.5 1.9 2.6 1.2 3-1.7 1.1-5.1-1.3-5.1-3.4 0-2.6 1.2-2.5 3.9.4M360 317.4c0 .3-.4.8-1 1.1-.5.3-1 .1-1-.4 0-.6.5-1.1 1-1.1.6 0 1 .2 1 .4"/><path d="M372.5 111.2c-11.3 5.8-17.8 8.4-35.5 14.5-9 3.1-9.8 3.7-10.2 7.1-.2 2-1.2 3-4.2 4.1-2.1.8-4.9 2.5-6.1 3.7-2.6 2.6-7 3.9-19.7 6-5 .8-9.8 1.9-10.8 2.4-3.4 1.8-5.2 8.9-6.1 23.9-.5 7.9-.7 14.6-.5 14.8 1.2 1.2 108.1-78.9 108.1-81 0-2.4-3.4-1.4-15 4.5m-94 10.8c-.9 1.7-2.1 3-2.8 2.8-1.4-.3-5.7 2.3-5.7 3.4 0 1.5 4.3.8 7.6-1.3 2.6-1.6 3.4-2.7 3.4-5 0-3.7-.6-3.7-2.5.1M226 176.7c-.8.3-2.5 1.7-3.7 3-1.2 1.2-3 2.3-3.9 2.3-1.5 0-12.4 10.5-12.4 12 0 .3-1.3 4.8-3 10-1.6 5.2-3 9.6-3 9.7 0 .5 12 8.3 12.8 8.3 1.3 0 5.9-5.3 6.7-7.8.3-1.2 1.2-2.2 2-2.2 1.2 0 2.5-2.1 2.5-4 0-.4-1.6-1.7-3.5-2.9-1.9-1.1-3.5-2.5-3.5-3.1s1.3-3 2.9-5.3c3.2-4.7 5.3-9.2 7.6-15.6 2-5.7 2-5.7-1.5-4.4m-31.6 50c-.4 1-1.5 3.7-2.5 6-1 2.4-1.4 4.5-1.1 4.7 1 .6 12.5-5.6 12.6-6.7.1-.5-1.8-2-4.1-3.4-4-2.4-4.3-2.4-4.9-.6m-11.9 32.7c-1.1.7-15.5 8.1-32 16.4-29.3 14.7-46.5 22.5-69.2 31.2-12.5 4.7-12.9 5.3-9.9 12.5.8 1.9 1.1 3.5.7 3.5-1 0-4.1-7.3-4.1-9.4 0-1.1-1.7-.9-7.7 1-9.7 3-12.1 3-16.4.1-6.2-4.1-4.9-5.6 9.1-10.9 13.7-5.1 16.7-7.5 8-6.5-5.9.7-8-.4-8-4.3 0-1.6-22.6-.1-34.3 2.1-5.4 1.1-11.8 1.9-14.3 1.9H0v87h190v-2.3c0-1.2.9-6 2.1-10.7 1.1-4.7 1.7-9.4 1.4-10.5-.3-1.2-2.9-3.1-6.5-4.8-6.6-3.2-11.3-7.4-10.6-9.3.3-.8.1-1.6-.4-1.9-.4-.3-1 0-1.2.7-.3.8-1.2.4-2.6-1-1.8-1.8-2.1-3.2-2.1-11.6 0-11.3 1.1-15.3 10.9-37.6 11.4-25.8 15-35.8 13.3-36.4-2.7-1.1-9.8-.6-11.8.8m-53.7 49c1.3 7 .5 10.9-2.4 12-2.5 1-3.5-1.2-3-6.4.4-4.7 2.7-12 3.7-12 .3 0 1.1 2.9 1.7 6.4M164 335c-1.2 1.6-3.5 3.7-5.2 4.6-2.9 1.5-3 1.5-2.4-.1.3-.9.6-2.1.6-2.5 0-1 8.2-6.1 8.8-5.5.2.2-.6 1.8-1.8 3.5M58 276c0 .5.7 1 1.5 1s1.5-.5 1.5-1c0-.6-.7-1-1.5-1s-1.5.4-1.5 1m157.4 89.1c-.3.6-1.2 5.1-1.9 10l-1.2 8.9h56.6l-.9-2.7c-4.2-13.7-3.9-13-6.4-12.6-1.3.3-2.7 0-3-.6-1-1.6-5.7-1.3-8 .4-3.3 2.5-13.6 1.2-13.6-1.7 0-1.4-3.8-.9-4.4.7s-5.1 2.1-6 .6c-.3-.5-1.7-.9-3.1-.9s-3.4-.7-4.4-1.6c-2.1-1.9-2.7-2-3.7-.5"/></svg>