<svg xmlns="http://www.w3.org/2000/svg" width="682.667" height="512" version="1.0" viewBox="0 0 512 384"><path d="M0 146.5v146.6l2.8-2.1c2.9-2.1 7.7-2.8 34.7-4.8l9-.7.3-4.1c.3-3.9.2-4-3.5-5-3.5-.8-3.8-1.1-3.7-4.4.1-1.9 1.1-6 2.1-9 2.7-7.4 4.2-17.2 4.5-30.5l.3-11-3.6-.3c-2.5-.2-4.5-1.3-6.5-3.3l-2.8-3 2.7-2.5c1.5-1.4 2.7-3.5 2.7-5 0-1.4.6-3.8 1.4-5.3s2-5.9 2.7-9.7c.6-3.8 1.8-8.6 2.5-10.8 1.7-4.8 1.7-4.6-.3-4.6-3.9 0-4.4-1.3-2.3-6.8 1.1-2.9 2-6.8 2-8.6 0-7.2 3.1-11.3 10.3-13.7 3.4-1.1 4.3-1 8.2.9 2.7 1.3 5.5 3.8 7.2 6.3 1.5 2.3 3.2 4.8 3.7 5.4.7.9.1 2.3-1.7 4.4-2.2 2.7-2.6 4-2.5 9.4 0 3.4.7 8.1 1.4 10.5.8 2.3 1.4 5.5 1.4 7.1 0 2.1 1.2 3.8 4.8 6.8 2.6 2.2 5.8 4.6 7.2 5.3 3.7 1.9 4 3 2 6.3-1.2 2-1.7 4-1.3 5.9.6 3.2-1 3.8-3.7 1.3-1-.9-2.5-1.3-3.4-.9-3.2 1.2-3.7 3.9-2.2 11.6.8 4 2.2 12.2 3.1 18.3 1 6 2.6 14.7 3.6 19.3 1 4.5 1.9 8.9 1.9 9.7 0 2.2-4.5 1.8-6.1-.5-.8-1-2.6-2.2-4.1-2.6-2.4-.5-2.9-.2-3.8 2.1-1.4 3.8-1.2 5.5.8 6.2.9.3 3.2 2.1 5 3.9l3.2 3.3-3.9 1.1c-2.2.6-4.3 1.5-4.6 2s-3.2 1.4-6.5 2.1l-5.9 1.1.6 4.7c.3 2.5 1.2 5.2 1.9 6 1.2 1.3 1.6 1.2 3.2-.2 2.4-2.2 5-2.4 3.2-.2-.7.8-1 1.5-.7 1.5.8 0 21.5-8.9 32.7-14.1 5.2-2.4 24.6-11.9 43-21l33.5-16.6 1.8-6.4c1.8-6.5 3.6-18.7 3.7-24.6 0-2.9-.9-3.8-12.7-12.2-20.2-14.3-33.8-24.9-34.1-26.7-.5-2 2.6-5.4 4.8-5.4 1 0 2.4.7 3.1 1.6 1.4 1.7 28.2 21.9 35.3 26.7 2.2 1.5 4.2 2.5 4.4 2.3.2-.3.8-3.6 1.3-7.5 1-8 2.1-10.5 9-20.8 2.7-4 4.9-8.1 4.9-9.1 0-1.1.9-3.1 2-4.5s2-3.8 2-5.4c0-1.5 1-4.6 2.3-6.7 2.2-3.9 12.8-13.5 21.7-19.7 2.5-1.7 5.6-4.4 7-5.9s4.9-3.6 7.8-4.5 5.2-2.1 5-2.7c-.2-.5-.7-.9-1.2-.8s-1.7-1.1-2.8-2.7l-2-2.8.4 2.6c.3 1.4-.2 3.1-1 3.9-1.3 1.2-1.8 1-3.5-1.1-1.3-1.6-2.1-2-2.4-1.1-.7 1.9-2.3.4-2.3-2.2 0-3.5-1.2-3.9-3.2-.9l-1.8 2.8v-3.7c0-2-.7-6.3-1.5-9.4-1.6-6.2-1.1-9.8 2.6-19.4 4.6-12.2 9.1-19.1 15.7-24.6 8-6.5 12.2-8.6 18.8-9.2 4.2-.3 6.3.2 12.5 3 4.1 1.9 9.1 4.9 11.1 6.6l3.6 3.2 1-2.9c.6-1.6.8-4.7.5-7-.3-2.2-.2-5.2.1-6.6.6-2.2 1.2-2.6 3-2.3 2.2.4 2.6-.3 6.2-10.5 5.1-14.5 6.5-15 5.7-1.8-.4 6.6-.2 12.1.7 16 1.5 7.1.7 9-5.4 13.1-4.5 3.1-6.7 9-4.6 12.3 4.4 7 5.5 10.3 5.4 17.2 0 10.3-.6 11.6-6.4 14.6-2.7 1.5-5 2.3-5 1.7 0-.5-.4-.7-.8-.4-1.2.7-4.6 12.5-3.9 13.2.4.4 4.6-1 9.4-3.1 10.6-4.6 15.3-5.4 18.7-3.1 1.4.9 4.2 1.6 6.1 1.6 2 0 4.5.5 5.6 1.1 2.5 1.3 21.4-.8 24.4-2.7 1.1-.7 6.1-2.4 11-3.9 19.8-5.8 25.6-7.8 34-11.6 3.6-1.6 7-2.2 12-2.2 6.7-.1 9.4.7 14.6 4.5 1.3.9 5.9-2.1 27-17.9 14-10.5 26.3-20 27.3-21.2 1.1-1.1 2.3-2.1 2.7-2.1.5 0 4.5-3.4 8.9-7.6 9.3-9 12-10.8 19.5-12.9 4.6-1.4 5.5-2 5.5-3.9v-2.3l-9.7 3.4c-9.5 3.4-10.2 3.5-21.8 3-10.6-.3-13-.8-20.1-3.6-12.4-4.8-27.1-15.2-39.9-28L409.5 0H0zm40.8-97.1c.6 3-2.6 6.6-5.8 6.6-4.1 0-4-3 .1-6.5 3.4-2.8 5.2-2.8 5.7-.1M226 77c2.4 1.9 2.5 1.9.3 2-1.2 0-3.1-1.2-4.2-2.6-2.5-3.2-2.8-5.4-.3-3.1.9 1 2.8 2.6 4.2 3.7m216.6 6.6c-.5 1.3-1 1.4-1.8.6-.6-.6-.8-1.8-.4-2.8.5-1.3 1-1.4 1.8-.6.6.6.8 1.8.4 2.8M103.8 92c.6 0 1.2.4 1.2 1 0 .5-1.6 1-3.5 1-2.6 0-3.5-.4-3.5-1.6s.6-1.5 2.3-1c1.2.3 2.8.6 3.5.6m403.6-35.2c-5.5 5-16.4 12.8-19.1 13.6-1.3.4-2.3 1.1-2.3 1.6s-3 2.9-6.7 5.3c-3.8 2.5-12.7 8.9-20 14.3-7.3 5.5-16.8 12.4-21.2 15.4-7.6 5.2-8 5.7-8.1 9.3 0 2.9-.8 4.6-3.4 7.2-1.8 1.9-3.8 3.5-4.3 3.5-.6 0-2.5 1.6-4.2 3.5s-3.4 3.5-3.9 3.5-2.1-1.1-3.6-2.5c-4.8-4.4-5.7-3.1-3 4.4 2.6 7.6-.5 9.6-6.2 4l-3.2-3.1-48.9 32.4c-26.8 17.9-52.5 34.7-57 37.3-4.6 2.6-8.3 5.1-8.3 5.6 0 .4-.9 1-1.9 1.4-1 .3-2.2 1.7-2.5 3.1-.4 1.6-1.8 2.9-3.6 3.6-3.3 1.1-4.6 4.3-3.4 8 .4 1.3.7 3.3.5 4.4-.1 1.2.5 3.9 1.4 6 .9 2.2 3.2 10.4 5.2 18.4 1.9 8 3.9 15.1 4.5 15.8 1.7 1.9 36.5 22.9 55.3 33.1 26.6 14.6 29.2 16.6 24.4 19.2-5.8 3-21.3-3.2-51.7-20.8-10.7-6.2-19.7-11.3-19.8-11.3-.2 0 2.1 4.6 5.1 10.2 2.9 5.7 6.8 13.9 8.5 18.3s4.3 10.7 5.7 14c6 14.2 5.7 13.2 4 15.7-.8 1.3-2.7 3.6-4.1 5.2s-2.6 3.4-2.6 4.1c0 4-14.5 16.6-16.7 14.4-.4-.4-1.5-.4-2.2.1-1.3.7-1.2 1.4.4 4.9l1.8 4.1H512V283.7c0-99.1 0-100.2-2-101.5-1.1-.7-2-1.9-2-2.8 0-1.1.6-1.5 2-1.1 2 .5 2 0 2-62.4 0-34.6-.1-62.9-.2-62.9-.2 0-2.1 1.7-4.4 3.8m-41.9 41.1c-.3.6-1.4 1.1-2.3 1.1-1.5-.1-1.5-.2.2-1.5 2.1-1.6 3.2-1.3 2.1.4M404 293.4c0 .3-.4.8-1 1.1-.5.3-1 .1-1-.4 0-.6.5-1.1 1-1.1.6 0 1 .2 1 .4"/><path d="M244 115.4c0 .8.4 1.7.9 2 .5.4.7-.3.4-1.4-.6-2.3-1.3-2.6-1.3-.6m36 5.6c-.9 2.2-1.8 3-3 2.7-1-.2-3.1.6-4.6 1.9l-2.9 2.3 2.7.1c4.8 0 10.8-2.9 10.8-5.4 0-4.1-1.6-5-3-1.6m109 1.8c-.8.2-8.5 3.5-17 7.3-15 6.6-27 9.9-36.2 9.9-2.1 0-3.8 1-6.1 3.5-2 2.3-4 3.5-5.6 3.5-1.4 0-4.8 1.2-7.6 2.5-5.7 2.8-9.3 3-21.3 1.3-7.8-1.1-8.5-1.1-9.7.6-1.8 2.5-2.9 10.6-2.6 20.2.1 4.4-.3 12-.9 16.9-.6 4.8-.9 8.9-.7 9.1.3.4 43.7-28.3 58.7-38.7 3.6-2.5 11-7.6 16.5-11.4 15.6-10.7 32.9-22.7 33.9-23.6 1.3-1.1.5-1.7-1.4-1.1m-162.7 55.7c-1.7 1.2-4.6 3.4-6.3 4.9-1.7 1.4-3.7 2.6-4.4 2.6-.6 0-3.3 2.3-6 5.1-4.1 4.4-5 6.1-6.6 12.7-1 4.3-1.8 8.8-1.8 10.2.1 1.4-.2 3.2-.6 4.1-.5 1.2 1.1 2.7 6.2 6.2l7 4.6 3-3.2c1.6-1.8 3.3-4.2 3.7-5.5.3-1.2 1.5-2.7 2.6-3.2 3-1.6 2.3-4.6-1.6-6.9-4-2.3-4.2-3.3-1.6-6.9 4.6-6.6 11-23.5 9.9-26.1-.2-.4-1.7.2-3.5 1.4m-32.6 59.2c-.9 3.6-1.4 6.9-1.1 7.4.5.8 10.1-3.8 12.7-6.1.4-.4-1.6-2.3-4.6-4.2l-5.3-3.6zM156 282.4c-32.2 16.1-47.7 23-76.2 34-13.5 5.3-14.8 6-14.8 8.2 0 1.4.7 3.9 1.6 5.5.8 1.7 1.3 3.6 1.1 4.2-.5 1.4-4.6-7-4.7-9.6 0-.9-.1-1.7-.2-1.7-.2 0-3.2.9-6.6 2-9.1 2.9-17.3 2.7-20.9-.4-2.3-2-2.6-2.8-1.7-4.2 1.4-2.3 1.9-2.6 15.4-7.5 15.2-5.5 15.8-6.2 6.5-7.2-7.7-.9-9.2-2.8-5.9-7.6l1.6-2.3-11.8.7c-6.6.4-15 1.3-18.9 2.1-14.4 3-17.7 3.5-19.1 3-1.2-.5-1.4 5.8-1.4 40.9V384l96.1-.2 96.2-.3 1.2-4.3c1.3-4.1 1.2-4.3-1.3-6-1.5-.9-2.9-2-3.2-2.3-.3-.4-1.8-1.1-3.3-1.4-3.2-.8-8.7-5.9-8.7-8.1 0-.8-.3-1.3-.7-1.3-4.2.7-5.5-2.5-5.9-15-.4-10.3-.3-10.9 3.5-21.6 2.1-6.1 7.7-20.4 12.4-32 11-27.1 10.5-25 5.9-25.1-2.9-.1-10.5 3.2-36.2 16M111.8 333c1.3 7.2.5 11.5-2.3 13.4-2.1 1.4-2.3 1.3-3.4-1-1.7-3.9-1.3-10.3 1.1-15.6 2.5-5.5 3.1-5.1 4.6 3.2m37.2 21.6c0 2.4-6.9 10.4-9.1 10.4-2 0 .2-4.5 3.8-7.8 3.4-3 5.3-4 5.3-2.6m-94-75.7c0 1.6 4.1 6.1 5.6 6.1 1.7 0 1.8-1.1.2-4.5-.7-1.6-1.9-2.5-3.5-2.5-1.2 0-2.3.4-2.3.9M217.1 382l-2.3 2 7.3-.1c5.9-.1 6.7-.3 4.1-.9-1.9-.4-3.9-1.3-4.5-1.9-1.5-1.5-1.8-1.4-4.6.9m19.9 1c0 .5.9 1 2 1s2-.5 2-1c0-.6-.9-1-2-1s-2 .4-2 1m21 0c-1.1.7-.5 1 2.3 1 2.3 0 3.6-.4 3.2-1-.8-1.3-3.5-1.3-5.5 0"/></svg>