<svg xmlns="http://www.w3.org/2000/svg" width="682.667" height="512" version="1.0" viewBox="0 0 512 384"><path d="M0 147.6C0 265.6.3 295 1.2 294.2c1.5-1.2 5.9-2 14.8-2.6 3.6-.3 8.9-1 11.9-1.6 2.9-.5 7.7-1 10.6-1h5.2l.6-4.2c.6-4.7-.2-5.8-4.6-5.8-1.5 0-3-.6-3.3-1.3-.3-.8.9-5.6 2.7-10.7 3.4-10.3 8.1-39.4 6.8-42.1-.5-.9-2.6-1.9-5-2.2-6.4-.9-10.1-5.9-6-8.4 1-.6 2.1-2.7 2.4-4.5s1.4-6 2.5-9.3c2.4-7.4 5.4-19.3 5.6-22 .1-1.3-.6-2-1.9-2.1-1.1-.1-2.6-.2-3.2-.3-.9-.1-.4-1.9 1.4-5.6 2.6-5.3 2.7-5.6 1-8.4-1.6-2.7-1.6-2.9.3-4.6 1.1-1 2.2-2.5 2.5-3.5.3-.9 2.8-2.9 5.5-4.4 5-2.7 5.1-2.7 10-1.1 3 1 5.7 2.7 6.8 4.2.9 1.4 3 3.8 4.5 5.3 3.2 3 2.9 4.7-1.2 8.4-1.4 1.3-1.9 2.6-1.5 4.2.3 1.2.2 3-.4 4-.6 1.1-.4 3.2.8 6.5 1 2.6 2.1 7.5 2.5 10.9.6 5.3 1 6.2 3.6 7.6 1.6.8 2.9 1.9 2.9 2.4s2 2.3 4.5 4c5 3.4 5.5 4.8 2.4 7.6-1.3 1.2-1.8 2.5-1.5 4 .7 2.8-.7 3.8-3.2 2.3-2.6-1.6-5.2-.5-5.2 2.4 0 5 6 42.6 7.9 49.2 1.1 3.8 1.7 7.3 1.5 7.7-1 1.7-4.2.7-7.2-2.2-4.2-3.9-5.5-3.8-6.9.7-1.2 3.6-1.1 3.9 1.7 6.3 1.7 1.4 3 3 3 3.7 0 .6.9 1.5 2 1.8 2.5.8 2.6 2.5.2 2.5-.9 0-3.3.8-5.2 1.8-4.1 2.2-16.9 4.6-32.5 6.2-6 .7-15.7 2.1-21.5 3.2-5.8 1.2-12.4 2.3-14.8 2.6l-4.2.4V384h62.5c61.2 0 62.5 0 64.5-2 2.6-2.6 4.3-2.6 3.5 0-.6 2-.2 2 25.4 2h26l-2.4-2.6c-1.4-1.5-2.5-3.6-2.5-4.6 0-1.1-.4-1.7-.9-1.4-1.8 1.1-4-.6-5-3.7-.5-1.8-1.2-7.1-1.6-11.9-.8-10.9 1.5-20.2 11.1-43.9 3.7-9 8.4-21.1 10.4-26.9 2.1-5.8 4.1-11.3 4.5-12.3 1.3-3.1-2.1-1.9-22.3 7.9-39.6 19.3-68.3 31.6-94.9 40.8-20.5 7-19.6 6.2-16.3 14.8 1.1 2.8 1.8 5.4 1.5 5.6-.7.8-4.3-6-5-9.5-.5-3-.9-3.4-2.8-2.9-14.9 4.2-17.7 4.7-21.4 3.7-4.6-1.3-8.3-4.4-8.3-7.1 0-2 .2-2.1 19.5-8.8 11.4-4 13.7-6.1 8-7.3-1.6-.4-2.4-.7-1.6-.8.8 0 1.2-.3 1-.5-.3-.3-2.1-.1-4.1.3-4.7 1.1-6.3-.5-5.3-4.9.9-4.1 5.4-6.3 9.8-4.8 2.6.9 2.8 1.5 2.5 4.5-.5 4.5 2.3 7.4 4.9 5.1 2.2-1.8 5.3-3 5.3-2 0 .4-.9 1.3-2.1 2-11.6 7.3 33.9-11.3 71.1-29.1 46.9-22.4 44.7-21.1 45.4-25 .4-2 1.2-4.7 1.9-6s1.1-4.8 1-7.8-.3-6.3-.3-7.4c-.1-1.1.2-3.4.6-5.1.6-3.1.4-3.3-14.8-13.6-15.2-10.4-34.7-24.3-38-27.3-1-.8-1.8-1.9-1.8-2.4 0-1.5 4.1-6.1 5.4-6.1.7 0 4.9 2.9 9.2 6.4 8.2 6.6 38.2 27.6 39.4 27.6.4 0 1-4.3 1.4-9.6.7-10.4 1.5-12.6 9.2-24.5 2.4-3.8 4.4-7.6 4.4-8.4s.9-3.2 2-5.2c1.1-2.1 2-5.2 2-6.9 0-3.9 4.1-9.6 11.1-15.4 3-2.5 6.8-5.8 8.4-7.3 1.7-1.5 4.9-3.9 7.1-5.3 2.3-1.3 4.4-3.3 4.7-4.3.3-1.2 2.4-2.5 5.8-3.6 3-1 5.7-2.3 6.1-2.9 1.4-2.1.8-7.1-1-8.2-1.6-1-1.7-.8-1.4 2.2.4 3.6-1 4.6-2.6 1.7-.8-1.3-1.1-1.1-1.7 1.5-.7 3.4-2.5 4.4-2.5 1.4 0-.9-.5-2.4-1-3.2-.8-1.1-.9-.7-.5 1.5l.7 3-2-2.4c-1.5-1.8-2.1-2.1-2.5-1-.2.8-.8-.5-1.2-2.9l-.8-4.3-2.9 2.8-2.8 2.7.1-4.4c.1-2.5-.2-7-.6-10.1-.7-4.9-.4-6.7 2-13 5.9-15.6 11-24.2 18-30.7 8.6-7.8 13.6-10.2 21.9-10.2 8 0 13.1 1.8 21.2 7.4l6.3 4.5-.7-3.2c-.4-1.8-.7-6.1-.7-9.7 0-6 .2-6.5 2.3-6.8 1.3-.2 3 .2 3.7.8 2.2 1.8 3.1-1.4 6.3-20 .4-2.5 1.2-4.5 1.7-4.5.6 0 1.5 5.6 2.1 12.5s1.6 13.8 2.3 15.3c2.2 5.4 1.4 8-3.9 13.2-6.5 6.4-7.9 10.4-5.1 14.4 4.1 5.7 6.1 11.4 6.1 17.6 0 10.1-1.2 12.8-7.2 15.9-2.9 1.5-5.4 2.3-5.7 1.7-.4-.5-2.1 2.8-4 7.5-3.5 8.7-5.7 10.1-4.8 3l.6-4.1-2 2.4c-1.1 1.3-2.3 2.9-2.7 3.5s-2 1.9-3.7 2.8c-5.1 2.8-4.5 4.1 1.6 3.5 12.8-1.4 20.8-2.6 25.8-3.7 7.4-1.7 14.5-.7 18.2 2.5 1.7 1.4 4.3 2.8 5.7 3.1 1.5.4 3.4 1.2 4.2 1.9 2 1.7 17 4.7 18.4 3.7 1.6-1.2 7.6-2.9 18.6-5.3 9.5-2 23.2-5.9 30.3-8.5 7.8-2.9 19.1-1.2 24.3 3.7l2.2 2.1 6.8-4.4c3.8-2.4 11.6-7.5 17.4-11.3 5.8-3.9 11.3-7.5 12.1-8 3.6-2.2 7.9-5.3 16.4-11.7 4.9-3.8 9.4-6.8 10-6.8s2.1-1 3.2-2.3c1.2-1.2 3.2-2.9 4.5-3.8 1.4-1 3.1-3.9 4.1-7 .9-3 3.9-9.2 6.7-13.9l5-8.5v-31l-15.8-.1c-13.9-.1-16.7-.5-24.7-2.8-8.8-2.7-30.1-11.6-34-14.2C435.9.2 399.8 0 217.8 0H0zM435 9c0 1.3-.5 1.8-1.5 1.4-.8-.4-1.5-1.2-1.5-2s.7-1.4 1.5-1.4 1.5.9 1.5 2M23.8 56.8c.4 4.4-1.3 6.4-5.2 6-4.2-.4-4.5-3.2-1-6.9 3.6-3.7 5.8-3.4 6.2.9m187.1 18.4c2.9 1.8 3.2 2.3 1.7 2.6-1 .2-3-.7-4.5-2.2-3.1-3.2-2-3.3 2.8-.4m230.9 10.5c-.4 2.2-2.2 2-2.6-.1-.2-1 .3-1.6 1.3-1.6s1.5.7 1.3 1.7M90 99.1c1 .5.3.9-2.4 1.4-3.6.7-5.5-.2-5.6-2.7 0-.8 5.7.1 8 1.3m370.5-.2c-.3.6-1.1 1.1-1.7 1.1s-.6-.6.2-1.5c1.4-1.7 2.6-1.3 1.5.4M317 104c0 .5-.5 1-1.1 1-.5 0-.7-.5-.4-1 .3-.6.8-1 1.1-1 .2 0 .4.4.4 1M93.4 359.8c2.5 9 2.2 13.3-1.4 17l-3 3.2-1.7-3.3c-1-1.9-1.6-5.3-1.6-8.2.1-5 3.4-14.5 5.1-14.5.5 0 1.7 2.6 2.6 5.8"/><path d="M506.4 88c-2.8 2.7-6.4 5.2-8 5.6s-3.7 1.8-4.7 3c-.9 1.3-2.8 2.6-4 3s-5.8 3-10.2 5.9-15.2 9.9-24 15.7c-8.8 5.7-17.4 11.3-19.1 12.3-2.9 1.6-3.1 2.2-2.7 5.5.6 4.2-1 6.2-8.7 11.1-2.5 1.5-5.1 3.7-5.8 4.8-1.7 2.9-3.5 2.6-7.2-1-3.9-4-5.7-2.8-3.5 2.4 3.8 9.1.6 12.2-6 5.7-2.4-2.3-4.5-3.7-4.9-3.2-.3.6-6.3 4.3-13.2 8.4-6.9 4-13.7 8-15.2 8.9s-9.4 5.6-17.7 10.3c-8.2 4.8-15.7 9.4-16.6 10.2-.8.8-1.8 1.4-2.2 1.4s-5.3 2.8-10.9 6.1c-5.7 3.4-11.6 7-13.3 7.9-1.6.9-5.2 3-8 4.7-2.7 1.6-8 4.4-11.8 6.3-6.2 3.2-6.7 3.7-6.2 6.1.5 2.2.1 2.8-2.2 3.8-4 1.6-4.1 5.6-.4 15.6 1.5 4.4 4 13.2 5.5 19.5s3 12 3.4 12.6c.6 1 9.2 6.5 17.7 11.4 1.7 1 8.6 5 15.5 9 6.9 3.9 21.7 12.2 33 18.2 11.3 6.1 21.5 12 22.8 13.1l2.3 2.2-2.1 1.7c-6.2 5-21.3-.9-61.4-23.7-9.9-5.7-18.2-10.2-18.5-10-.2.3 1.9 4.4 4.7 9.2 6.4 11.1 20.2 45.1 20.2 49.9 0 1.1-1.6 3.9-3.5 6.1-1.9 2.3-3.5 4.9-3.5 5.8s-1.4 3.6-3 6.1l-3.1 4.4H512v-97.4c0-85.6-.2-97.5-1.5-98-.8-.3-1.5-1.3-1.5-2.2 0-1 .5-1.4 1.5-1 1.3.5 1.5-5.6 1.5-50.9 0-28.3-.1-51.5-.2-51.5-.2 0-2.6 2.3-5.4 5M383 146.2c-25.4 9.7-32.3 11.1-44 8.9-3.9-.8-4.8-.6-7.2 1.4-3.6 3-6 3.7-8.8 2.7-1.6-.6-3.2-.4-4.9.5-1.4.7-4.4 1.3-6.6 1.3-3.8 0-16.6-4.2-19.3-6.3-.8-.7-1.6-.7-2.3 0-1.3 1.3-3.7 17.1-3.2 21.3.4 3-1.4 19.2-3.4 30.7-.3 1.8-.1 3.3.3 3.3 2.5 0 109-65.5 107.7-66.3-.4-.2-4.2.9-8.3 2.5m-156.7 35.6c-1.7.8-3.7 2.5-4.3 3.8-.7 1.2-2.4 2.5-3.7 2.9-1.4.3-4.8 3.1-7.7 6.2-5.5 6.1-5.3 5.5-8.2 28.3l-.6 4.6 5.6 3.7c3.1 2 6 3.7 6.5 3.7 1.3 0 7.1-6.8 7.1-8.4 0-.7 1.1-2.3 2.5-3.6 3.4-3.2 3.1-5.3-1-7.3-4.7-2.2-5.2-3.9-2.2-7.9 3.9-5.2 6.9-11.7 8.8-19.3 2.6-9.7 2.7-9.4-2.8-6.7M49 199.5c0 1.6.6 2.5 1.6 2.5 1.1 0 1.4-.5 1-1.6-.3-.9-.6-2-.6-2.5s-.4-.9-1-.9c-.5 0-1 1.1-1 2.5m149.1 43.7c-.6 7.3-.5 9.1.5 9.5 1.2.4 7.6-3.7 8.1-5.3.3-.9-6.6-6.4-8.1-6.4-.2 0-.4 1-.5 2.2M53 281.4c0 3.3 4.2 7.6 7.3 7.6 2.8 0 2.9-.2 2.3-3.2-.8-4.1-1.5-4.7-5.9-5.5-3-.5-3.7-.3-3.7 1.1"/></svg>