<svg xmlns="http://www.w3.org/2000/svg" width="682.667" height="512" version="1.0" viewBox="0 0 512 384"><path d="M0 30.6c0 26.5.2 30.5 1.4 29.5s1.9-.8 3.6.9c3.1 3.1 2.3 7.1-1.8 8.9L0 71.4v113.3C0 297.5 0 298.1 2 297c1.1-.6 7.3-1.5 13.7-2.1 21-1.9 25.1-2.4 25.9-3.2.4-.4.9-2.8 1-5.2.3-4.5.3-4.5-3.5-5.1-6.2-1-6.4-1.4-3.7-7.6 3.2-7.2 4.9-13.8 8.1-31.8l2.6-14.5-2.1-1.7c-1.2-1-3.7-1.8-5.5-1.8-2.4 0-3.9-.7-5.5-2.7l-2.1-2.6 2.5-2.6c1.3-1.4 2.6-4 2.9-5.6.3-1.7 1.2-4.9 2.1-7.2.8-2.3 2.2-7.4 3-11.3.9-3.9 2.2-8.5 3-10.2 1.8-3.6 1.2-5.2-1.8-4.4-1.1.3-2.7.1-3.5-.3-1.1-.7-.9-1.5 1-4.2 1.7-2.4 2.5-5.4 3.1-10.7.7-8.1 2-10.2 7.9-13.2 3.4-1.8 3.7-1.8 9-.1 4.3 1.4 6 2.6 8.2 5.9 1.6 2.3 3.3 4.2 3.8 4.2 1.6 0 1 4.1-1.1 6.8-1.5 1.8-1.9 3.4-1.5 5.3.4 1.6.2 3.6-.3 4.5-.9 1.5.5 7.4 2.1 9 .4.4.7 3.6.7 7.1v6.4l5.1 4.7c2.9 2.6 6.5 6 8.2 7.6l3.1 2.9-2.3 1.9c-1.4 1-2.4 3-2.5 4.6-.1 2.4-.5 2.7-3.6 2.7-3.2 0-3.5.2-3.4 3 .2 9.2 3.8 36.3 5.8 44 1.4 4.9 2.6 9.7 2.8 10.5.6 2.6-4 2.3-7.3-.4-4.1-3.5-5.3-3.3-6.8 1.1-1.3 3.5-1.3 3.7 1.8 6.2 1.7 1.4 3.1 3.2 3.1 3.8 0 .7 1.1 1.5 2.5 1.9 1.4.3 2.2 1 2 1.5-1.2 1.8-16.6 5.7-30.5 7.8-8 1.2-20.6 3.3-28 4.8-7.4 1.4-15.4 2.8-17.8 3.1l-4.2.4V384h170.2l-.7-4.8c-2.1-14.1-.2-24.8 8.1-45.9 6.1-15.4 17.3-46.7 16.9-47.1-.1-.2-3.8 1.3-8.1 3.3-4.4 2.1-12.2 5.6-17.4 8-5.2 2.3-13.1 5.9-17.5 8-22.3 10.3-48.4 20.5-76.5 30-9.1 3.1-17.2 6-18 6.5-1.3.8-1.3 1.5.3 5.7 3.2 8.3 3.3 9 1.4 7.4-.9-.7-2.4-3.8-3.4-6.8-1.5-4.7-2-5.3-3.8-4.8-18.6 5.3-27.1 4.7-32-2.2-1.3-1.8-1.2-2.2.3-3.5.9-.8 9-3.8 18-6.8 12.1-4 16.1-5.7 15.7-6.8-.3-.7-.5-1.6-.5-1.8s-1.1-.4-2.5-.4c-1.8 0-2.3-.4-1.8-1.6.5-1.3.1-1.5-1.8-.9-1.3.3-3.2.9-4.2 1.2-2.8.7-4.8-1.5-4.1-4.6 1-4.1 3.7-6.3 7.8-6.3 5.1 0 6.9 1.7 6.1 6-.5 2.5-.2 3.9 1.1 5.3 1.7 1.9 1.8 1.9 3.8.1 1.2-1.1 3-2.2 4.1-2.6 1.6-.6 1.4-.1-.9 2.3-3.3 3.4-2.4 3.9 2.6 1.7 1.8-.8 10.8-4.4 19.9-8 25.4-10 59.8-24.9 85.4-37.1 5.5-2.6 11.6-5.3 13.5-6.1 3.1-1.3 3.8-2.2 5.8-8.5 1.7-5.3 2.1-8.1 1.6-11.5-.5-3.3-1-4.2-1.7-3.5-1.9 1.9-4.7 1.2-5.9-1.5-1-2.1-.8-3 .6-5.5 1-1.7 1.4-3.4 1-3.9-.5-.4-6.7-4.4-13.9-9-7.1-4.5-19.5-12.8-27.5-18.4s-15.7-11-17.2-11.9c-1.6-1-2.8-2.6-2.8-3.5 0-2.2 4-6.2 6.2-6.2.8 0 4.4 2.3 7.9 5.2 6.3 5.1 42.7 29.6 48.2 32.4l2.8 1.5-.7-12.3c-.7-13.8-.5-14.6 8.2-29.5 2.3-3.9 4-7.4 3.7-7.7s.4-2.3 1.6-4.6c1.1-2.2 2.1-5.4 2.1-7.1 0-6.4 3.9-11.8 17.5-23.7 3.3-3 7.7-6.3 9.8-7.5s4-3.2 4.3-4.5c.7-2.5 3.2-4.2 6.2-4.2 3.8 0 6.2-3.1 6.4-8.3.1-4.5-1-7.5-1.9-5-.7 1.9-2.1 1.6-2.7-.5-.3-.9-.3.4 0 3.1.5 4.9-.7 6-3.2 2.8-.9-1.2-1.3-.9-1.9 1.7-.8 4-2.5 4.2-2.5.2 0-1.7-.5-3-1.1-3-.7 0-.9 1-.4 2.7.6 2.7.6 2.7-1.4.9-1.1-1-2.5-1.5-3-1.1-.7.4-1.1-1-1.1-4.1 0-4.6 0-4.7-2-2.9-1.1 1-2 1.5-2 1 0-.4-.8-.1-1.7.6-1.5 1.3-1.6 1.2-.9-1.1.5-1.4.9-6.6 1.1-11.5.1-8.2.5-9.8 4.4-18.5 6.8-15.2 10.8-21.6 17.2-27.3 7.5-6.8 14.5-10.6 20.8-11.4 6.8-.8 17.1 2.5 24.6 7.8 3.4 2.5 5.6 3.6 5.2 2.6-.3-.9-1.2-4.3-1.8-7.6-1.6-7.7-.4-11.1 4-11.1 1.6 0 3.3.4 3.6 1 2.3 3.6 3.6-1.2 4.4-15.4.4-6.7 1-11.1 1.7-11.3 1.7-.6 2.2 1.5 3.4 13.4.7 6.3 1.9 12.6 3.1 15.2 3.4 7.6 2.7 10.7-3.6 16.8-6.9 6.7-7.1 8.9-1.5 19.7 4.3 8.2 4.6 10.8 2.9 20.2-1.3 6.9-2 8.1-5.9 8.9-1.5.3-3.6 1.5-4.6 2.6-1 1.2-2 1.5-2.4.9-.3-.5-2.1 2.6-4 7s-3.7 8-4.2 8c-.4 0-.8-1.6-.8-3.5 0-4.3-1.3-4.5-3.7-.5-.9 1.6-2.1 3-2.6 3s-2 .9-3.4 2l-2.5 2 2.8 1.1c1.8.8 10.3 1.3 22.4 1.4 21.4.2 22.5.5 29.2 6.7 6 5.6 9.2 7.6 15.5 9.8 4.4 1.5 6.7 1.8 8.5 1.1 1.4-.5 4.9-1.2 7.9-1.6 14.1-1.7 26.2-3.6 33-5 15.3-3.4 16.3-3.5 21.6-2.5 6 1.1 8.8 2.3 12.1 5.3l2.2 2.1 3.8-2.2c9.7-5.4 53.9-33.3 56.1-35.3 1-.9 3.3-2.5 5.2-3.4 1.9-1 5-3.1 6.9-4.6 1.9-1.6 4-2.9 4.6-2.9s1.9-1.9 2.8-4.3c1.4-3.7 1.6-9.8 1.6-45.8V4.3l-15.7-.6c-8.7-.4-19.2-1.3-23.3-2.2C466.4.2 436.9 0 232.8 0H0zm434-19.5c0 .5-.6.9-1.4.9-1.5 0-2.8-2.4-1.9-3.4.7-.7 3.3 1.3 3.3 2.5m-234.6 65c.5.5.7 1.2.3 1.5-1 1-6.7-1.7-7.7-3.7-1-1.7-.8-1.7 2.7-.3 2.1.9 4.2 2 4.7 2.5M441 88.7c0 .5-.4 1.4-.9 2.1-.7 1.1-.9 1.1-1.4-.1-.3-.8-.3-1.8 0-2.1.9-.8 2.3-.7 2.3.1m15.6 13c-1 1-1.9-.5-1-1.8.6-1.1.8-1.1 1.2 0 .2.7.1 1.5-.2 1.8m-382.1 4.8c0 .5-1.6 1.1-3.6 1.3-2.6.2-3.8-.1-4.3-1.3-.5-1.4.1-1.6 3.7-1.3 2.3.2 4.2.7 4.2 1.3m240 1.5c-.3.5-1.1 1-1.6 1-.6 0-.7-.5-.4-1 .3-.6 1.1-1 1.6-1 .6 0 .7.4.4 1m114.8 29.5c-.3.9-.8 1.4-1 1.1-.3-.3-.2-.9.2-1.5.9-1.6 1.5-1.3.8.4M31.9 163.9c1.9 1.2.6 4.1-1.8 4.1-2.6 0-3.6-1.7-2.1-3.5 1.4-1.7 2-1.8 3.9-.6"/><path d="M505.1 112.3c-.7 1-2.8 2.5-4.9 3.5-2 .9-14.5 8.2-27.7 16.3-13.2 8-26.2 15.9-29 17.6-4.8 2.8-4.9 3.1-4.7 7 .3 3.9.1 4.3-4.3 7.5-2.6 1.8-6.4 4.8-8.5 6.5-2 1.8-4.9 3.3-6.2 3.3-2.5 0-5.8-2.7-5.8-4.8 0-1.5-2.6-1.6-3.5-.2-.4.6.3 3.5 1.4 6.6 2.6 6.8 2.6 7.1 0 7.9-1.6.6-3.1-.3-6.5-3.6-4-4-4.6-4.2-6.6-3-3 1.8-8.7 5.1-12.8 7.3-1.9 1-4.8 2.7-6.5 3.6-1.6 1-9.3 5.2-17 9.4-7.7 4.1-15.6 8.5-17.5 9.7-1.9 1.1-4.2 2.4-5 2.8-.8.3-6 3.2-11.5 6.3-5.5 3.2-15.1 8.3-21.2 11.5-9.9 5-11.2 5.9-10.3 7.5.6 1 1 2.1 1 2.5 0 .3-3.8 2.4-8.5 4.5s-8.5 4.2-8.5 4.5 1.1 3.2 2.4 6.5c1.4 3.3 4.1 12.4 6.1 20.2 2 7.9 4.2 14.8 4.8 15.5 3.2 3.2 47 27.3 80.2 44.2 8.8 4.4 16.9 8.8 17.9 9.6 1.9 1.4 1.9 1.5 0 3.6-2.9 3.2-11.4 2.2-23.4-2.6-5.2-2-10.7-3.8-12.2-3.9-1.4 0-2.6-.5-2.5-1 .1-.6-7.9-5.3-17.8-10.6-9.9-5.2-21.5-11.5-25.8-13.8-4.2-2.4-7.7-4.1-7.7-3.9 0 .3 2.6 5 5.8 10.5s7.1 13.3 8.6 17.4c1.5 4 4.4 11.1 6.4 15.8s3.7 9.2 3.8 10c.1.9.6 2.5 1.3 3.7.6 1.2 1.1 3.2 1.1 4.5 0 2.6-3.4 8.6-5.9 10.5-1.3 1 17.7 1.2 93.2 1.3H512v-94.5c0-77.2-.2-94.5-1.3-94.5-1.8 0-5.3-2.7-4.5-3.5.3-.4 1.8.1 3.2 1l2.6 1.7v-83.9l-2.9.1c-1.6.1-3.4.9-4 1.9M341 214c0 1.2-2.8 2.5-3.6 1.7-.9-.9.6-2.7 2.2-2.7.8 0 1.4.5 1.4 1m51 97.4c0 .2-.7.7-1.6 1-.8.3-1.2.2-.9-.4.6-1 2.5-1.4 2.5-.6m-14.5-148.3c-19 5.5-25.3 6.1-35.3 3.5-6.2-1.7-6.4-1.6-9.8.5-2.6 1.5-4.3 1.9-6.7 1.5-3.3-.7-3.9-.7-11.7-.5-4.6.1-11.8-2.8-18.1-7.2-3.5-2.5-3.6-2.1-5 13.5-.5 6.6-1.7 17.3-2.4 23.6-2.2 17.7-2.3 22.4-.4 22.8.9.1 4.3-1.3 7.5-3.1 3.2-1.9 26.6-15.1 51.9-29.2 25.3-14.2 46.5-26.3 47.2-26.9s.9-1.6.5-2.3c-.5-.8-5.5.3-17.7 3.8m-149.7 21.6c-.9.2-2.4 1.5-3.3 2.9-.8 1.3-2.8 3-4.4 3.7-1.5.6-4.8 3.5-7.3 6.3l-4.5 5.1-.8 13.4c-1.4 22.1-1.5 21 2.5 23.7l3.5 2.3 3.7-4c2.1-2.2 3.8-4.9 3.8-6s1.1-2.8 2.5-3.7c3.7-2.4 3.3-5.7-1-7.7-4.9-2.3-5.2-4-1.9-9 4.1-6.1 6.9-12.5 8.8-19.8 2.2-8.7 2.3-8.2-1.6-7.2M48 200.5c0 2.4.5 3.5 1.5 3.5 1.6 0 1.8-1.2.9-4.8-1-3.4-2.4-2.6-2.4 1.3m157 54c0 .8.2 1.5.4 1.5s.6-.7 1-1.5c.3-.8.1-1.5-.4-1.5-.6 0-1 .7-1 1.5M61.4 282.1c-.4.7-2.3.9-4.9.6-6.2-.9-7.5 1.1-4 5.7 2.8 3.7 4.4 4.6 8.1 4.6 2.2 0 2.3-.3 2.3-6-.1-6.2-.3-6.8-1.5-4.9"/></svg>