<svg xmlns="http://www.w3.org/2000/svg" width="682.667" height="512" version="1.0" viewBox="0 0 512 384"><path d="M0 149.4v149.4l3.3-.8c1.7-.5 7.5-1.1 12.7-1.5 11.9-.8 23.8-2.3 25.2-3.1.5-.3.7-1.6.4-2.8-.3-1.1-.1-2.8.4-3.6 1.3-2.1-.7-3.9-5.2-4.6-4.8-.8-5.3-1.6-3.2-5.5 3.1-6.2 5.5-14.5 8.9-31.4l3.4-17-2.1-1.8c-1.1-.9-3.5-1.7-5.2-1.7-2.1 0-4-.8-5.4-2.3-2.7-2.9-2.7-3.5.1-6.5 1.2-1.3 2.3-3.3 2.4-4.5s1.1-4.9 2.2-8.1c1.2-3.3 2.1-6.9 2.1-8 0-1.2 1.2-5.3 2.5-9.1 1.4-3.9 2.5-7.1 2.5-7.3 0-.1-1-.2-2.2-.2-4.4 0-5.1-1.3-3-5.1 1.2-2.1 2.2-6.4 2.6-10.8.7-8 1.6-9.7 7.3-13.2 3.1-1.9 3.8-2 8.6-.8 5.3 1.3 9.7 4.2 9.7 6.6 0 .7 1.1 2 2.5 2.9 3 2 3.2 4.5.4 7-1.5 1.4-1.9 2.6-1.5 4.7.3 1.6.1 3.8-.5 4.9-.7 1.4-.8 2.8-.1 4.2 2.1 4.8 3.2 9.5 3.2 14.5 0 5.2.2 5.5 5.2 10 2.9 2.5 6.5 5.9 8.1 7.4l3 2.8-2.4 2.5c-1.3 1.4-2.4 3.3-2.4 4.2 0 1.1-.9 1.8-2.5 1.9-1.4 0-3.1.1-3.9.2-1 .1-1.2 1.3-.7 5.3.3 2.9 1.3 12.3 2.1 20.8.9 9.9 2.4 18.5 4 23.9 1.4 4.7 2.5 8.8 2.5 9.3 0 2.1-3.4 1.8-7-.7-4.7-3.2-6.5-2.8-7.4 1.7-.6 2.7-.3 3.6 1.7 5.3 1.3 1.1 2.7 2.8 3 3.7.4 1 1.5 1.8 2.6 1.8 4.1 0 2.8 1.8-2.7 3.8-6.4 2.3-28.5 6.8-40.7 8.2-4.4.5-13.1 2.1-19.3 3.5C9 311 3 312 1.9 311.7c-1.9-.5-1.9.4-1.9 35.9V384h169.1l-.8-2.3c-2.4-6.6.6-20.4 10-45.7 10.3-27.7 15.8-44.3 14.4-43.7-3.3 1.4-30.7 13.8-34.2 15.5-16.6 8.2-54.7 23.1-84.8 33.2-20.7 6.9-19.9 6.3-17.1 14.5.8 2.6 1.3 5.2 1.1 5.8-.6 1.5-4.6-7.1-4.7-9.9 0-1.1-.2-2.3-.5-2.6s-4.2.6-8.6 1.9c-10.6 3-18.5 3.1-22.9 0-8-5.4-6.8-7.7 6.2-11.7 5.7-1.8 12.3-4 14.8-5s5.7-2.1 7.3-2.4c3.7-.8 3.4-3.3-.5-5-2.1-.9-2.7-1.5-1.5-1.5 1-.1 1.5-.6 1.2-1.1-.4-.7-2.4-.8-5.1-.4-5.7.8-7.8-.6-6.2-4.4 1.8-4.2 4.7-6.3 8.5-6 4.7.3 6.7 2.7 5.3 6.3-.8 2.2-.7 3.3.5 5.1 1.9 2.9 2.7 3 5 .4 1.7-1.9 4.5-2.7 4.5-1.3 0 .4-1 1.8-2.2 3.1-2.1 2.3-2.2 2.5-.3 1.8 1.1-.5 6.1-2.3 11-4.1 10.6-3.9 34.3-13.5 47.3-19.1 1.7-.8 4.7-2 6.5-2.8 16.4-7.1 36.4-16 58.3-26.2l7.2-3.2 2.1-6.8c1.7-5.1 2.1-7.9 1.5-12-.3-3-1-5.6-1.4-5.9-.4-.2-1.8.7-3 2-2.8 3-4.1 3.1-6.5.5-1.8-1.9-1.8-2.2-.2-5.6.9-1.9 1.7-3.7 1.7-3.9 0-.5-16.7-11.5-17.4-11.5-.3 0-7.6-4.8-16.3-10.7-8.7-5.8-18.4-12.4-21.5-14.5s-6.1-3.8-6.6-3.8-1.5-.7-2.2-1.5c-1.7-2-.1-5.8 3.4-8 2.4-1.6 2.6-1.5 9.3 3.6 13.1 10 53.6 35.9 56.2 35.9 1.4 0 1.4-1-.5-13.6-1.5-10.4-1.5-10.8.6-16.6 1.2-3.2 4-9.1 6.2-13.1 2.3-3.9 4.3-8.5 4.4-10 .2-1.6 1.1-3.8 1.9-5s1.5-3.9 1.5-6c0-5.3 2-9.5 7.1-14.7 6.7-6.9 16-14.9 20.1-17.3 2.1-1.2 4.2-3.4 4.7-4.8.7-2.1 2.2-3.1 6.3-4.4 6.2-2.1 6.8-2.8 6.7-7.5-.1-4.5-1.3-7.8-2.3-6.2-1.1 1.9-2.4 1.4-2.9-1.1-.3-1.2-.5.4-.4 3.5q.3 8.7-3 3.3c-1.2-2.1-1.4-1.9-3.5 4.5-.3.8-.8-.5-1.3-2.9-.4-2.7-1-3.9-1.5-3.1-.4.7-.5 2.2-.3 3.4.4 2 .3 1.9-1.6-.4-1.1-1.4-2.1-1.9-2.1-1.3 0 .7-.5 1.3-1.1 1.3-.7 0-1-1.7-.7-4.5.3-4.7-.2-5.5-2.2-3-.7.8-1.6 1.2-2.1.9s-.9 0-.9.5c0 .6-.5 1.1-1.1 1.1s-.8-.8-.4-2c.3-1 1-6.5 1.4-12.2.8-9.7 1.2-11 6.9-22.9 7.5-15.8 9.2-18.3 17.3-25.2 8.7-7.5 13.7-9.7 22.1-9.7 8.1 0 14 2 22.6 7.9 3.4 2.3 6.2 3.9 6.2 3.6s-.7-3.5-1.6-7c-.9-3.6-1.3-7.6-1-9 .9-3.4 4.8-5.2 8-3.7 2.3 1 2.5.9 3.2-3.1.4-2.3.8-8.3.8-13.4.2-16.2 3.5-14 5.6 3.7.6 5.2 2.2 12.2 3.5 15.5 3.5 8.7 3.3 9.9-2.9 15.8-4.5 4.4-5.4 5.9-5.9 9.7-.5 3.7 0 5.6 3.4 12.5 4.3 8.9 4.5 11.1 2.4 19.8-1.5 6.4-2.9 8.7-5.3 8.7-.9 0-3.2 1.1-5.3 2.5-2.8 2-4.2 4.2-6.4 9.8-3.3 8.6-4.5 10.2-4.6 6.2 0-1.7-.4-3.9-.8-5-.7-1.8-.9-1.7-2.5 1.3-.9 1.7-2.4 3.2-3.3 3.2s-2.7 1-4 2.2l-2.3 2.2 3.2 1.4c4.4 1.8 15.6 3.2 30.1 3.8 13.2.5 16 1.4 21.9 7.3 7.3 7.3 10.8 10.1 12.3 10.1.9 0 2.9.7 4.6 1.5 2.2 1.2 3.8 1.3 6.7.6 2-.5 9.8-1.4 17.2-2 14.7-1.2 14.9-1.2 29.6-4.1 13.3-2.6 20.2-1.6 27.5 4.1l3.6 2.8 5.7-3.5c3.1-1.8 5.9-3.4 6-3.4.2 0 8.2-4.8 17.7-10.6 9.6-5.9 19-11.6 20.9-12.8 1.9-1.1 4-2.4 4.5-2.8 7-5.3 11.4-8.3 14.2-9.4 1.8-.8 3.3-1.8 3.3-2.2s1.4-1.6 3-2.5l3-1.8V1.5l-10.2-.3c-5.7-.1-95-.5-198.6-.7C175.3.1 115.1.3 115.5 1c.3.5.1 1-.4 1-.6 0-1.1-.4-1.1-1 0-.7-19.7-1-57-1H0zM432.4 10.6c.8 2.2.8 2.4-.8 2.4-1.5 0-2.8-2.4-1.9-3.4 1.1-1 2.1-.7 2.7 1M190.3 74.9c2.6 1 3.8 3.1 1.7 3.1-2 0-6.8-2.9-7.3-4.4-.5-1.2-.2-1.4 1.1-.7.9.5 2.9 1.4 4.5 2M440 92.6c0 1.4-.4 2.3-1 1.9-.5-.3-1-1.5-1-2.6 0-1 .5-1.9 1-1.9.6 0 1 1.2 1 2.6m15.2 9.6c-.7.7-1.2.8-1.2.2s.3-1.4.7-1.7c.3-.4.9-.5 1.2-.2.2.3-.1 1.1-.7 1.7M67 109.9c0 2.4-8.5 2.9-9.4.6-.4-1.2.4-1.5 4.4-1.5 2.8 0 5 .4 5 .9m246.5.1c-.3.5-1.1 1-1.6 1-.6 0-.7-.5-.4-1 .3-.6 1.1-1 1.6-1 .6 0 .7.4.4 1m114.7 29.2c-.7.7-1.2.8-1.2.2 0-1.4 1.2-2.6 1.9-1.9.2.3-.1 1.1-.7 1.7M25.7 167.5c.3.9.4 1.7.2 1.9-1.2 1.1-4.6 1.4-5.8.7-1.2-.8-1.2-1.2-.2-2.5 1.7-2 5-2.1 5.8-.1"/><path d="M509.6 117.7c-.3 1-4.1 3.6-8.3 5.8-4.3 2.3-18.1 10.4-30.8 18-12.6 7.7-24.6 14.9-26.6 15.9-3.4 1.8-3.5 2.1-2.5 4.7.8 2.4.7 3.3-1 5.6-1.1 1.6-3.5 3.7-5.4 4.8-1.8 1.1-5.1 3.7-7.3 5.7-2.3 2.1-4.8 3.8-5.7 3.8-1.8 0-5.4-3.5-6.3-6.2-.4-1.1-1.2-1.5-2.2-1.2-2 .8-1.9 1.6.7 8.6 1.8 5.1 1.9 6.1.7 6.9-2.5 1.6-4 1-8.1-3.6-2.7-2.9-4.5-4.2-5.2-3.6-1.4 1.1-15.3 8.7-47.1 25.6-4.9 2.7-11 6.3-13.4 8.2-2.4 1.8-5 3.3-5.8 3.3s-6.7 2.8-13.1 6.3c-6.5 3.5-13.2 6.9-15 7.7-2.9 1.1-3.3 1.7-2.8 4 .5 2.6.1 3-10.4 7.8l-10.8 5.1 2.4 5.9c1.3 3.2 4 12.1 6 19.8 2.1 7.6 4.1 14.4 4.7 15.1 1.6 2.2 44.5 25.4 75 40.6 16.4 8.2 29.7 15.4 29.7 16.2 0 1.9-4.5 4.5-7.7 4.5-7.6 0-20.9-5.2-46.8-18.2-19.4-9.8-25.3-12.8-36.2-19-2.9-1.6-5.3-2.7-5.3-2.4s1.8 3.5 4 7c5.3 8.7 9.3 16.9 13.1 26.3 1.6 4.3 4.3 10.7 5.8 14.3s3.6 8.9 4.5 11.8c1.6 4.9 1.6 5.6.2 7.7-.9 1.4-1.6 2.7-1.6 3s40.7.5 90.5.5H512V250.6c0-81-.4-133.7-.9-134.1-.5-.3-1.2.3-1.5 1.2m-1.7 78c.2.2-.5.3-1.6.3-1.3 0-2.3-.8-2.6-2.1-.5-2-.5-2 1.6-.3 1.2 1.1 2.4 2 2.6 2.1M394 313c0 .5-.5 1-1.1 1-.5 0-.7-.5-.4-1 .3-.6.8-1 1.1-1 .2 0 .4.4.4 1m-4 1.4c0 .2-.8 1-1.7 1.7-1.6 1.3-1.7 1.2-.4-.4s2.1-2.1 2.1-1.3m-35 26c0 .3-.4.8-1 1.1-.5.3-1 .1-1-.4 0-.6.5-1.1 1-1.1.6 0 1 .2 1 .4m-61.4-176.2c-.3 1.3-1.1 7.5-1.7 13.8-.5 6.3-1.7 16.5-2.5 22.6-1.9 14.8-1.9 24.4 0 24.4.8 0 1.7-.4 2.1-.9.3-.5 1.8-.9 3.3-.9 1.6 0 8.9-3.4 18.1-8.6 8.4-4.7 15.5-8.6 15.8-8.6.2 0 7.4-4 16.1-8.8 8.6-4.9 18.9-10.6 22.7-12.7 27.8-15 31.1-17.3 28.9-19.5-.5-.5-8.4.9-18.9 3.5-20.4 5-24.1 5.3-33.5 2.5l-6.7-2-4.8 2.1c-4 1.8-5.4 2-8.4 1.1-2-.6-6.6-1.3-10.3-1.5-5.8-.4-7.5-1-12.9-4.6-3.4-2.2-6.2-4.1-6.4-4.1-.1 0-.5 1-.9 2.2M229 185.8c-.8.3-2.8 2-4.6 3.9-1.7 1.8-3.9 3.3-4.8 3.3s-1.6.3-1.6.7c0 .5-1.9 3-4.1 5.6l-4.1 4.8-.4 19.2c-.4 18.9-.4 19.2 1.8 20.6 2 1.2 2.5 1 6-2.7 2.1-2.3 3.8-5 3.8-6s1.1-2.9 2.5-4.2c3.6-3.3 3.2-5.6-1.4-7.9-5-2.6-5.5-4.2-2.4-8.3 3.6-4.7 7.7-14.2 9.7-22.2 1-3.7 1.6-6.9 1.4-7.1-.2-.1-1 0-1.8.3M47.8 199.1c-.6 1.8.2 5.9 1.3 5.9 1.7 0 1.9-2 .6-4.6-1-1.8-1.6-2.3-1.9-1.3m12.8 83.6c-.4.4-3.1 1-5.9 1.3-6 .6-6.4 1.6-2.7 6.5 1.6 2.1 3.6 3.5 5.5 3.8 4.8.7 5.8-.1 5.1-4.4-.3-2.1-.2-4 .4-4.4.5-.3.7-1.2.3-2-.6-1.6-1.6-1.9-2.7-.8"/></svg>