<svg xmlns="http://www.w3.org/2000/svg" width="682.667" height="512" version="1.0" viewBox="0 0 512 384"><path d="M0 151c0 143.6.1 151 1.8 150.2.9-.5 5.5-1.2 10.2-1.5 7.3-.5 17.9-1.9 25.7-3.3 1.8-.3 2.2-1.1 2.1-3.8-.1-1.8.2-3.8.6-4.4.7-1.2-1.8-2.6-6.6-3.6-3.4-.8-3.5-2.3-.4-8.4 3.4-6.9 5.1-12.9 8.6-30.5 3.5-17.7 3.4-18.7-2.9-18.7-2.6 0-4.4-.7-5.8-2.2-3.5-4-3.6-4.8-.9-6.9 1.4-1.1 2.6-3 2.6-4.2s.8-4.5 1.9-7.2c1-2.8 2.1-7.3 2.5-10.2.4-2.8 1.4-6.9 2.2-9 1.6-3.6 1.5-3.8-.8-5.8-2.2-1.8-2.3-2.2-1.1-4.5.7-1.4 1.3-5 1.2-8-.1-5.9 1-11.5 2.6-14.1.6-.8 2.4-2.5 4.1-3.7 2.8-1.9 3.8-2.1 8-1.3 7.2 1.4 8.3 2 10 5.5.9 1.7 2.6 3.9 3.7 4.8 1.9 1.5 2 2 1 5-1.4 3.9-1.1 16.5.7 25.8.7 3.6 1.4 7.5 1.6 8.7s1.1 2.8 1.9 3.5 4.1 3.7 7.5 6.7c6.2 5.6 7.1 7.4 4.5 8.5-.8.3-1.9 1.6-2.5 3-.5 1.5-2 2.7-3.9 3.1-1.7.4-3.3 1-3.6 1.5-.6 1 2.1 37.5 3.1 41.7.3 1.6 1.7 5.9 3 9.6 1.3 3.8 2.2 7.3 1.8 7.8-.8 1.4-4.8 1.1-7-.6-2.9-2.2-5.1-1.8-6.7 1.4-1.4 2.8-1.3 3.1 1.7 6.4 1.7 1.8 4.4 3.7 5.9 4.1 6.5 1.6-.9 4.2-24.8 8.6-9.3 1.7-23.7 4.5-31.8 6.3-8.2 1.7-16.4 3.1-18.3 3.1l-3.4.1V384l83.2-.2 83.2-.3 1.8-8.3c1-4.5 3.6-13.3 5.7-19.5 14.2-40.7 18-52.1 17.6-52.5-.2-.3-1 0-1.7.5-.7.6-7.8 4-15.8 7.6s-17 7.6-20 9c-22.4 10.2-48.5 20.4-77.4 30.3-13.1 4.5-23.1 8.5-23.4 9.3-.5 1.3.7 5.3 3.3 11.4.4 1 .3 1.7-.3 1.7-1.4 0-4-5.3-4.8-9.6-.3-1.9-.9-3.4-1.3-3.4-.3 0-4.9 1.2-10.1 2.6-12 3.2-18.2 2.9-24-1.1-3.2-2.2-4-3.4-3.8-5.3.3-2.7 1.7-3.3 18.8-8.7 8.2-2.6 19.3-6.5 19.8-7 1.2-1.1-2.3-4.5-4.6-4.6q-2.55-.15-.9-.6c.9-.2 1.7-.8 1.7-1.3 0-1.6-2.4-2.4-7-2.5-4.1 0-4.5-.2-4.8-2.6-.2-1.8.6-3.6 2.2-5.4 1.4-1.6 2.6-2.5 2.6-2.1s.9.2 1.9-.3c1.3-.7 2.9-.7 5 0 3.3 1.2 4.1 4.2 2.1 8-.8 1.5-.6 2.6 1.2 4.9l2.2 3 2-2.4c2.2-2.5 5-3.9 6-2.8.4.3-.8 2.1-2.6 3.9-1.7 1.8-2.9 3.3-2.5 3.3 3.8 0 58.7-22.1 83.2-33.5 2.8-1.3 11.1-5 18.5-8.3 37.1-16.5 36-15.9 37.6-20.7.8-2.2 2.1-5.2 2.9-6.7 2.5-4.4 1.1-9.4-3.6-12.5l-3.8-2.5-3.1 2.6c-3.7 3.1-5.1 3.2-7.4.7-1.6-1.8-1.6-2.1.3-5.9 2.4-4.7 3.4-3.7-11.4-12.2-6-3.5-19.5-11.7-30-18.3-10.4-6.6-20.6-12.8-22.6-13.8-5.5-2.7-6.3-4.2-4.5-7.7 2.8-5.4 6.2-5.5 13-.3 7.5 5.7 23.3 15.7 40.7 26 21.2 12.3 20.4 12 23.5 9l2.5-2.5-2.1-9.5c-3-12.9-2.4-17.4 3.9-30.5 2.8-5.9 5.1-11.6 5.1-12.8.1-1.1.7-3.2 1.5-4.6s1.4-4.4 1.5-6.8c0-2.3.7-5.8 1.4-7.7 3-7 5.8-9.8 24.9-25.1 2.8-2.3 5.4-5.2 5.7-6.5.5-1.9 2-2.9 6.9-4.6 3.4-1.2 6.5-2.4 6.8-2.7 1.1-1.1-.8-9.6-2.2-9.6-.7 0-1.6-.8-1.8-1.8-.3-.9-.5.8-.6 3.8-.1 4-.4 5.1-1.1 4-.9-1.3-1-1.3-1.1 0 0 .8-.9-.2-1.9-2.4-1.5-3.4-1.9-3.6-2.4-1.8-.4 1.1-.6 2.4-.5 2.8.4 1.6-1.3 4.4-2.2 3.8-.5-.3-1-1.7-1-3.2l-.1-2.7-.8 3c-.4 1.6-.8 2.5-.9 2-.1-.6-.5-1.6-1-2.4-.8-1.2-1.2-1.2-2.5-.2-1.4 1.2-1.6.8-1.6-3.3 0-4.6-1.2-6.1-2.4-3-.4.9-.9 1.4-1.3 1.1-.3-.4-1.3-.1-2.1.6-1.4 1-1.4.9-.7-.8.5-1.1.9-6.5 1-12 .1-9 .4-10.9 3.7-19.2 8.1-20.3 13.6-28.4 25.3-36.9 5.9-4.3 7.5-5 13.6-6.4 9.5-2.1 22.1 2 31.5 10.3 2.5 2.2 4.6 3.8 4.7 3.6 1.9-2.8 2.5-6.4 1.8-11.5-1-7.2-.1-9.8 3.7-11.2 2.4-.8 3.1-1.9 4.1-5.8.7-2.7 1.5-8.1 1.8-11.9.3-3.9 1-7.8 1.5-8.8C312 .1 306.8 0 209 0 107.3 0 105.9 0 107 1.9c.5 1.1.6 2.2.1 2.5-1.2.8-2.1-.4-2.1-2.6C105 .1 103.3 0 71 0 41.6 0 36.9.2 36.4 1.5 36 2.3 34.9 3 33.9 3S32 2.3 32 1.5C32 .2 29.6 0 16 0H0zM96 15c0 .5-.2 1-.4 1-.3 0-.8-.5-1.1-1-.3-.6-.1-1 .4-1 .6 0 1.1.4 1.1 1m81.1 60.1c2 1.1 2.1 1.4.7 1.7-1.9.4-8.8-2.6-8.8-3.8 0-1 4.7.2 8.1 2.1M48.6 119.5c-2.6 1.9-5.6 1.9-5.6 0 0-1.1 1.1-1.5 3.8-1.5 3.5.1 3.6.2 1.8 1.5M11.5 174c0 1.8-5.3 2.6-6.9 1-.8-.8-.7-1.3.4-2.1 2.2-1.4 6.5-.7 6.5 1.1"/><path d="M313.4 1.7c.2 1 .7 4.7 1.1 8.3 1 10.3 2.6 17.1 5.1 22.2 3.6 7.2 3.2 8.9-3.5 15l-5.8 5.3-.7 7.2c-.6 6.4-.4 7.7 1.7 12 3.2 6.2 4.1 11.8 2.8 17.4-.5 2.4-1.2 5.6-1.5 7-.4 1.8-1.8 3.1-5.5 4.8-2.7 1.2-5.4 2.7-5.9 3.4s-2.2 5-3.7 9.7l-2.8 8.5-1.3-3c-.7-1.7-1.4-3.9-1.4-5-.1-1.3-.9-.4-2.6 2.8-2.3 4.4-2.7 4.7-3.8 3.2-1.2-1.6-1.5-1.5-4.7 1.3-2.8 2.6-3 3.1-1.5 3.2 1 0 3.7.8 6 1.9 7.1 3.2 22.7 6.9 29.6 6.9 8.2 0 14.1 2.3 18 7.1 6.1 7.2 10.6 11.3 15 13.5s4.9 2.2 24.5 1.5c11-.5 25.3-1.5 31.8-2.4 14.4-2 20.2-1.1 27.7 4.1l5.1 3.5 16-9.3c8.9-5.1 16.8-9.8 17.7-10.3 18.2-10.9 25.9-15.7 31.3-19.7 3.7-2.6 7.4-4.8 8.3-4.8 1.5 0 1.6-5.4 1.6-58.5V0h-99.6c-94.3 0-99.5.1-99 1.7m117.4 12.1c.3.9-.2 1.3-1.4 1-.9-.1-1.9-.9-2.2-1.6-.3-.9.2-1.3 1.4-1 .9.1 1.9.9 2.2 1.6m7.8 83.9c-.7 1.7-.8 1.7-1.7 0-1.2-2.1-.2-4.4 1.3-2.9.6.6.8 1.9.4 2.9m12.9 6.3c-.3.5-1.1 1-1.6 1-.6 0-.7-.5-.4-1 .3-.6 1.1-1 1.6-1 .6 0 .7.4.4 1M311 114.5c-.7.8-1.6 1.5-2.1 1.5s-.6-.7-.3-1.5c.4-.8 1.3-1.5 2.1-1.5 1.3 0 1.3.3.3 1.5m113.4 27c-.4.8-1 1.5-1.5 1.5-.4 0-.6-.7-.3-1.5.4-.8 1-1.5 1.5-1.5.4 0 .6.7.3 1.5m79.6-6.9c-3.6 2-15.7 9.1-27 15.9-11.3 6.7-22.7 13.5-25.5 15-7.1 3.8-7.4 4.2-6.9 7.8.5 2.8-.1 3.8-3.8 7.4-9.8 9.5-14.3 13.3-15.7 13.3-2.1 0-7.1-5-7.1-7.2 0-2.1-1.3-2.3-2.9-.4-.9 1-.6 2.5.9 6.2 2.7 6.1 2.3 8.8-1.1 9.2-2.1.2-3.5-.7-6.7-4.4l-4-4.7-2.8 2c-2.9 2-10 5.9-27.4 15-25.1 13.2-31.6 16.7-32.2 17.7-.4.6-.8.8-.8.4 0-.3-3.9 1.5-8.7 4.1-4.9 2.6-10.5 5.5-12.6 6.5-3.1 1.4-3.7 2.2-3.5 4.3.3 2.5-.6 3.1-13.7 9.2-7.7 3.6-14.1 6.6-14.3 6.7s.7 3.3 2.1 7.1c1.3 3.7 3.7 11.3 5.2 16.8 1.4 5.5 3.1 11.2 3.6 12.6.8 2.1 6.9 5.6 34.7 19.6 18.5 9.3 40.5 20 48.7 23.8 26.3 11.9 31.5 14.6 31.5 16 0 4.3-12.5 4.9-24.2 1.1-12.1-4-27.3-10.7-54.6-24.3-13.9-6.9-25.4-12.4-25.6-12.2s2.6 5.3 6.2 11.4c3.6 6 8.5 15.9 11 22 2.4 6 5.5 13.2 6.9 16 1.4 2.7 2.7 5.7 2.7 6.5.1.8.8 3.2 1.6 5.2l1.4 3.8H512V257.5c0-69.6-.3-126.5-.7-126.5-.5 0-3.7 1.6-7.3 3.6M389 319.4c0 .2-1.7 1.4-3.7 2.5l-3.8 2.1 3-2.5c2.8-2.3 4.5-3.1 4.5-2.1m-94.4-150.2c-.4 1.8-1.1 9.1-1.7 16.3-.5 7.1-1.4 15.7-1.9 19-1.2 7.5-1.2 19.8 0 25 .6 2.8.6 4.2-.3 4.7-.7.4-1.3.3-1.5-.2-.6-1.6-3.9-1.1-4.6.6-1.6 4.1.8 3.5 13.1-3.5 4-2.3 8.3-4.1 9.6-4.1 2 0 11.7-4.9 43.7-22.2 4.1-2.3 12.7-6.9 19-10.3 28.3-15.2 29.1-15.7 28.6-17.2-.3-.8-.6-1.9-.6-2.4 0-1.5-3.9-1.1-20.5 2.1-19.3 3.7-26.9 3.8-34.8.6-5.5-2.3-6.1-2.3-9.5-.9-2.2.9-4.9 1.2-7.1.9-2-.4-6.1-.8-9.1-1-6.2-.4-11.1-2.2-15.5-5.7-6.6-5.3-6.2-5.2-6.9-1.7m113.6 4c.2.6 1 1.4 1.6 1.6.7.2 1-.2.6-1.2-.7-1.8-2.8-2.2-2.2-.4m-181.6 16.9c-1 1.7-3 3.5-4.5 4-1.4.6-4.7 3.9-7.3 7.4l-4.7 6.4.9 6.3c.5 3.5 1.1 11.7 1.5 18.3.9 16.2 1 16.4 4.6 12.9 1.6-1.6 2.9-3.8 2.9-5.2s1.3-3.6 3-5.2c1.7-1.5 3-3.3 3-3.9s-1.8-2-4-3.1c-5.8-3-6.7-5.2-3.6-9.3 6-7.9 14.1-31.7 10.8-31.7-.4 0-1.6 1.4-2.6 3.1M47.2 203.3c.2 1.5.8 2.6 1.3 2.5 1.2-.3.8-2.9-.7-4.3q-.9-1.05-.6 1.8M59.5 284c-1.4 2.7-2 3-6.5 3-5.9 0-6.5 1.7-2.4 6.4 1.9 2.1 3.7 3 7 3.4 3.9.4 4.4.2 4.4-1.5 0-1.1.3-4.8.6-8.2.8-6.8-.5-8.1-3.1-3.1"/></svg>