<svg xmlns="http://www.w3.org/2000/svg" width="682.667" height="512" version="1.0" viewBox="0 0 512 384"><path d="M0 152c0 150 0 152.1 1.9 151 1.1-.5 4.2-1 7-1s8.6-.7 12.8-1.5c4.3-.8 9.8-1.8 12.3-2.3 4.1-.7 4.5-1 4.5-3.7.1-1.7.4-3.5.8-4.2.9-1.5-1.4-2.8-6.5-3.7-2.1-.4-3.8-1.1-3.8-1.7 0-.5 1.3-3.3 3-6.2 3.9-7 5.6-12.1 8.6-25.7 5.4-25.1 5.5-23.9-1.8-24.9-3.4-.5-4.7-1.3-6.6-4.1l-2.3-3.5 2.7-2.1c1.7-1.4 2.5-2.8 2.1-3.8-.4-.9.3-3.4 1.4-5.5s2.4-6.7 3-10.2c.5-3.5 1.5-7.8 2.1-9.6.9-2.5.9-3.8-.1-5.7-.9-1.6-1.1-3.9-.7-6.9.4-2.4.2-5.5-.3-7-.6-1.6-.6-3.6-.1-5.4.5-1.5 1.2-4 1.5-5.4.3-1.6 2-3.6 4.5-5.3 3.3-2.2 4.7-2.5 8.2-2 6.5.9 9.4 2.3 10.9 5.2.7 1.5 2.5 3.7 3.9 4.9 2.5 2.1 2.5 2.2.7 5.1-1.6 2.9-1.6 3.2.4 7.8 1.9 4.5 1.9 4.9.3 6.1-1.7 1.3-1.7 1.8.6 11.8.7 2.7 1.4 6.1 1.6 7.3.5 2.3 7.5 9.6 12.9 13.5 1.4 1 2.5 2.7 2.5 3.8 0 2.5-6.3 8.9-8.9 8.9-1.1 0-2.2.4-2.5.9-.6 1 2 40.4 3 44.8.3 1.5 1.5 5.2 2.5 8.2 1.1 3 1.8 6 1.5 6.8-.8 1.9-5 1.6-7.9-.7-3.5-2.7-4-2.6-5.4 1.7-1.1 3.6-1 4 2 7 1.7 1.9 4.1 3.3 5.4 3.3 2.9 0 3 1.8.1 3-4.5 1.9-67.3 14.9-73.9 15.3l-3.9.2V384h166.9l1.1-4.3c1.7-6.5 5.2-17.2 13.5-41.7 4.1-12.3 7.4-23 7.3-23.7-.2-.8-2-.4-5.8 1.4-44.5 20.7-66.6 29.9-100.7 42-16.2 5.7-27.8 10.3-28.1 11.2-.3.8.2 3.5 1.2 6 2.8 7.5 3.1 8.5 1.7 7.6-1.6-.9-5.1-9-5.1-11.6 0-1-.2-1.9-.4-1.9s-4.8 1.2-10.2 2.6c-12.9 3.4-21.4 3.1-26.8-.9-2.3-1.8-3.6-3.6-3.6-5.2 0-2.1 1.3-2.8 14.1-7 7.8-2.6 15.3-5.4 16.8-6.1 1.4-.8 3.5-1.4 4.7-1.4 1.1 0 2.9-.6 4-1.4 1.8-1.4 1.8-1.5-1.2-5.8-2.9-4.2-3.2-4.3-8.4-4.3-5.8 0-6.4-.8-4.6-6.3 1.2-3.5 12.6-7.3 12.6-4.1 0 .5.5.7 1 .4 2-1.3 2.1 2.5.2 5.7-1.8 3-1.9 3.5-.6 5.3.9 1.1 1.9 2.6 2.3 3.3.6 1 1.5.6 3.9-1.7 1.7-1.7 3.8-3.1 4.6-3.1 2.2 0 2.1.4-1.5 4.5-1.8 2-3 3.7-2.8 3.9 1.6 1.4 78.2-31 120.4-50.9 22.3-10.5 20.8-9.5 22.5-15 .9-2.8 2.4-6.7 3.3-8.9.9-2.1 1.7-4 1.7-4.2s-3.6-2.2-8-4.4l-8.1-4.1-2.5 3.1c-3 3.6-4.7 3.8-6.8.9-1.3-2-1.3-2.6.5-6l1.9-3.8-2.2-1.4c-1.3-.8-12-6.7-23.8-13.2s-26.4-14.9-32.5-18.5c-6-3.7-12.7-7.5-14.7-8.5-3.1-1.4-3.8-2.3-3.8-4.6 0-3.5 3.1-6.9 6.4-6.9 1.3 0 5 2 8.3 4.4 6.8 5.1 31.5 19.5 51.6 30l14.2 7.5 4.3-4.5c3.2-3.4 4-4.9 3.3-6.2-.5-.9-2.1-5.9-3.5-10.9-2.7-9.2-2.7-9.4-1.1-15 .9-3.2 3.4-10 5.6-15 2.1-5.1 3.9-10.2 3.9-11.4 0-1.1.5-3 1.2-4.2.6-1.2 1-4.3.9-6.9-.4-7.5 2.6-12.7 13.1-22.9 5.1-4.9 11.3-10.3 13.8-12 3-2 4.7-3.9 5-5.7.4-2 1.5-2.9 4.5-4 10-3.5 10.7-4 10-7.5-1.1-5.4-1.6-6.7-2.6-6.7-.5 0-.9 1.5-.9 3.4 0 4.3-2.8 4.4-5.2.1-1.4-2.6-1.7-2.8-2.3-1.2-.4 1-.5 2-.2 2.4.3.3 0 1.2-.8 1.9-.7.8-1.5 1.9-1.8 2.6-.3.9-1.3.3-3.1-1.5-2.2-2.4-2.9-2.7-4.1-1.7-1.3 1.1-1.5.6-1.5-2.8 0-2.3-.4-4.4-1-4.7-.5-.3-1-.2-1 .4s-1 1.5-2.1 2.2c-1.7.8-2 .8-1.4-.1.4-.7.7-6.6.6-13.1-.1-10.8.2-12.6 3-20.6 5.1-14.6 11.3-25.6 17.7-31.4 12-11 20.4-14.7 31-13.6 6.8.7 18 6 23.6 11.2 2.2 2 4.2 3.2 4.6 2.8 1.2-1.3 6-14 6-15.9 0-.9.9-3.1 1.9-4.8 1.7-2.7 5.3-13.8 7.5-22.9L314 0H0zM29.2 3.5c0 1.4-2.9 3.1-3.8 2.2-.9-.8 1.6-3.9 2.8-3.5.5.2 1 .8 1 1.3M99.5 5c.3.5.3 1.5-.1 2.1-.6 1.1-2.3-.6-2.4-2.4 0-1 1.8-.9 2.5.3M89 15c0 .5-.4 1-1 1-.5 0-1-.5-1-1 0-.6.5-1 1-1 .6 0 1 .4 1 1m72.5 58.7c1.8 1.1 1.6 1.2-1.6 1.3-2 0-4.2-.6-4.8-1.4-.9-1.1-.6-1.3 1.6-1.2 1.6.1 3.7.7 4.8 1.3m-130 54.2c-1.8.7-5.5.4-5.5-.5 0-.2 1.7-.4 3.8-.3 2.8 0 3.2.2 1.7.8M318 7.2c0 8.4 1 12.5 5.2 22.1 2.7 6.4 2.8 7 1.4 9.2-.9 1.3-3.7 3.8-6.3 5.6-2.7 1.8-5.1 3.7-5.4 4.2-.4.5-1 4.8-1.4 9.5-.6 7.4-.4 9.4 1.6 15.3 2.2 6.3 2.2 7.2 1 13.1-1.7 8.5-3.1 11-6.5 11.9-4.7 1.3-6.2 3.5-9.1 13.5-1.6 5.2-3.2 9.1-3.6 8.7-.4-.5-.9-3.1-1.1-5.8l-.4-5-2.4 5.2c-2.6 5.6-3.9 6.5-4.7 3.3-.7-2.7-1.4-2.5-5.2 1.4l-3.4 3.5 4.2 1.1c2.3.6 4.4 1.7 4.7 2.4.3.8 2.6 1.9 5.2 2.7 2.6.7 7.2 2.3 10.2 3.6s9 2.8 13.3 3.3c9.9 1.2 14.7 3.8 19.3 10.7 1.9 2.9 5.8 7.6 8.7 10.5l5.1 5.1 36-.5c34.5-.6 36.3-.5 40.6 1.4 2.5 1.1 5.7 3.2 7.2 4.5l2.7 2.6 13.8-7.9c7.6-4.3 20.7-12 29.2-17.1s15.6-9.3 15.8-9.3c.3 0 4.5-2.8 9.4-6.2l8.9-6.1V0H318zm109.8 9.6c.3.9-.2 1.3-1.4 1-.9-.1-1.9-.9-2.2-1.6-.3-.9.2-1.3 1.4-1 .9.1 1.9.9 2.2 1.6m6.9 84.4c-.3.8-.6.5-.6-.6-.1-1.1.2-1.7.5-1.3.3.3.4 1.2.1 1.9m10.5 5c-.7.7-1.2.8-1.2.2s.3-1.4.7-1.7c.3-.4.9-.5 1.2-.2.2.3-.1 1.1-.7 1.7M309 118c0 1.2-2.8 2.5-3.6 1.7-.9-.9.6-2.7 2.2-2.7.8 0 1.4.5 1.4 1m110 23.7c0 .5-.4 1.5-1 2.3-1.1 1.8-2.5.7-1.7-1.5.6-1.5 2.7-2.1 2.7-.8m59.2 16.3c-17.8 10.4-32.9 19.4-33.6 19.9-.7.6-1.3 2.5-1.4 4.3-.1 3.3-3.1 8.3-6.6 10.8-1.2.8-4.2 3.6-6.7 6.2-3.1 3.2-5.5 4.8-7.1 4.8-3.2 0-7.2-4.3-6.5-7 .6-2.5-.9-3.6-2.8-2-1.2 1-1.1 1.9.6 6.2 2.6 6.6 2.2 10.2-1.1 10.7-1.9.2-3.4-.7-6.5-4.4l-4.1-4.7-12 6.2c-12 6.3-25.7 13.5-39.4 20.7-10.6 5.7-18.4 9.7-19 9.8-.3.1-1.7.7-3.1 1.4-2 1-2.4 1.8-2.1 4 .4 2.6-.2 3-16.8 10.9-9.4 4.5-17.5 8.2-18 8.2-1.4 0-1.4-.2 2.4 11.3 1.9 5.6 4.4 13.4 5.5 17.3l2 7 15.3 7.3c31.4 15.1 63.2 29.2 97.1 43.1 4.3 1.8 8.1 3.9 8.4 4.8.4.9-.3 2.3-1.8 3.5-7.7 6.3-37.3-3.7-101.4-34.2-4.4-2.1-8.1-3.5-8.3-3.1s2.3 5 5.5 10.2c5.5 9 22 43 23.9 49.3l.9 3 85.3.3 85.2.2V261.5c0-67.4-.3-122.5-.7-122.5-.5.1-15.4 8.6-33.1 19M380 328.5c-3.8 2.8-4 2.9-4 1.5 0-1 4.7-3.9 6.4-4 .6 0-.5 1.1-2.4 2.5m-85.7-156.8c-.5 7.2-2.5 27.5-3.4 35.2-.9 7.3-.9 11.2.1 18 .7 4.7 1.2 8.8 1.1 9.1s-1.5.4-3.1.2c-2.7-.3-3 0-4.4 4.9-.9 2.9-1.3 5.5-1 5.8.6.6 27-12.4 29.6-14.6.9-.8 3.2-1.6 5.2-1.8 2.5-.2 4.5-1.3 7-4 2.7-2.8 4-3.5 5.6-3 1.2.4 2.6.2 3.3-.3s6.6-3.7 13.2-7.2 14.7-7.7 18-9.5c13-7 23.2-12.3 27.2-14.4 4-2 4.2-2.2 3.2-5.1-1.3-3.6-1.2-3.6-19.4-.9-19.6 3-29.6 2.9-36-.1-3.8-1.7-7-2.3-13.5-2.5-15.6-.4-22.8-2.5-28.4-8.4-3.4-3.6-4.1-3.8-4.3-1.4m112.3 10.8c.4.8 1 1.5 1.5 1.5s.9-.7.9-1.5-.7-1.5-1.5-1.5c-.9 0-1.2.6-.9 1.5"/><path d="M225.7 191.5c-1.5 1.9-3.4 3.5-4.1 3.5-.8 0-2.5 1.9-3.9 4.2-1.4 2.4-3.6 5.3-4.9 6.5l-2.4 2.3 2 8.1 2 8.1 1.8-2.4c3.5-4.6 8.7-16.5 10.8-24.7 1.2-4.6 1.9-8.5 1.8-8.7-.2-.2-1.6 1.2-3.1 3.1m-11.2 35.4c-.8 1.4 2.7 20.1 3.7 19.5.5-.3.6-1.4.3-2.5-.5-1.4.2-2.7 2.4-4.6 4.5-3.9 4.1-6.4-1.5-9.1-2.5-1.2-4.2-2.7-3.9-3.2.3-.6.4-1 .1-1s-.7.4-1.1.9m-20 18.1c-.3.5-.1 1 .4 1 .6 0 1.1-.5 1.1-1 0-.6-.2-1-.4-1-.3 0-.8.4-1.1 1M58.1 286c-.9 2.8-1.3 3-6 3-4.3 0-5.1.3-5.1 1.8 0 3.1 5.1 7 9.5 7.4l4 .3 1.1-7.2c.6-4 .8-7.5.6-7.8-1.3-1.3-3.1-.2-4.1 2.5"/></svg>