<svg xmlns="http://www.w3.org/2000/svg" width="682.667" height="512" version="1.0" viewBox="0 0 512 384"><path d="M0 153.1C0 292.2.1 306 1.6 304.6c1.1-1.1 3.5-1.6 8.2-1.6 3.7 0 10-.9 14.1-2s8.5-2 9.8-2c4.7 0 6-1.5 5.4-6.2-.6-4-.8-4.3-4.4-4.9-6-1-6.4-2.1-2.8-7.9 7-11.4 11.5-28.7 10.7-41-.3-4.1-.5-8.3-.5-9.3-.1-1.1-.9-1.7-2.4-1.7-3.2 0-6.2-2.4-7.7-6.1-1.3-2.9-1.2-3.3.8-5 1.2-.9 2.2-2.5 2.2-3.3 0-.9.6-2.7 1.4-3.9 2.3-3.6 7-23.9 5.7-24.6-.7-.4-1-3.4-.9-7.2.1-3.6-.2-7.1-.6-7.8s-.3-2.4.2-3.9c.6-1.5 1.3-3.9 1.6-5.4.3-1.4 2.3-4 4.5-5.7 3.8-3 3.9-3 10-2 5 .9 6.6 1.7 8.6 4.3 1.4 1.7 3.5 4.1 4.7 5.3l2.3 2.3-2 3.6-1.9 3.6 2.2 4.1 2.3 4.1L71 182c-2 1.5-2 1.6-.2 7 1.1 3 2.4 7.8 3.1 10.6 1.1 4.5 2 5.7 8.7 11.3 4.1 3.5 7.4 6.5 7.4 6.9 0 .3-1.2 2.3-2.6 4.4-1.9 2.7-3.6 3.9-6 4.4-1.9.3-3.6 1-3.9 1.4-.3.5-.1 10.6.4 22.7.8 17.3 1.4 23.1 3 28.3 2.6 8.1 2.6 9.7.1 10.5-2.4.7-5.6-.9-7-3.5-1.5-2.7-4-2.5-4 .2 0 1.3-.4 2.9-.9 3.7-1.2 1.9 3.7 8.1 6.4 8.1 1.1 0 2.7.5 3.5 1 2.4 1.6 0 2.6-13 5.5-6.3 1.5-17.1 4-24 5.5-19 4.4-39.8 8.2-41 7.5-.7-.4-1 10.1-1 32.9V384h60.9l-1.4-4.1c-.8-2.2-1.7-4.4-1.9-4.8-.3-.4-4.5.6-9.3 2.1-9.6 3.2-20.2 3.9-24.4 1.8-3.3-1.7-7.9-6.1-7.9-7.6 0-.7 1.9-1.9 4.3-2.8 4.5-1.7 24.2-8.7 31.9-11.5 5.8-2 6.2-2.4 4.8-5-.9-1.8-1.7-2.1-4.8-1.6-2.8.5-3.3.4-2.2-.4.8-.6 2.3-1.1 3.3-1.1 1.4 0 1.6-.4.8-1.8-.7-1.3-2.3-1.7-6.7-1.7-6.1 0-7.1-1-5.9-6.2.6-2.8 8.7-6.5 12.1-5.7 4.2 1.1 5 3 2.7 7.2-1.8 3.1-1.9 3.9-.8 4.9.8.7 1.8 2 2.3 3 .9 1.5 1.4 1.4 4.3-1.5 1.8-1.8 4.2-3.2 5.2-3.2 2 0 2 0 .1 2.2-1 1.3-2.1 2.5-2.4 2.8s-1.4 1.5-2.4 2.8l-1.9 2.2 3.9-1.4c8.5-3.1 26.9-10.7 45.8-19 17.7-7.8 78.4-36.4 82.9-39.2 1.1-.6 3-5 4.8-11 1.7-5.4 3.2-10.6 3.5-11.4.4-1.1-1.6-2.4-7.2-4.9l-7.8-3.3-2.5 3.1c-1.5 1.7-3.4 3.1-4.3 3.1-2.6 0-3.2-4.2-1.3-8 .9-1.8 1.3-3.6.8-4-.4-.4-8.7-4.5-18.3-8.9-24.4-11.4-63.1-31.4-64.3-33.2-.7-1.1-.5-2.5.4-4.4 2.9-5.9 5.9-5.8 15.7.5 6.7 4.4 50.6 26.5 63.5 32.1 7.1 3 8 3.2 8.8 1.7.5-.9 2.1-3.1 3.6-4.9l2.7-3.1 1.8 2.2c1.6 2 1.6 2.5.3 5.6l-1.4 3.4 3.7 1.9c8.7 4.4 8.8 4.7-.6-15.1-8.5-17.8-8.7-18.5-8.6-25.3.1-5.2.9-9.1 3.3-15.5 1.8-4.7 3.6-10.9 4.1-13.9.5-2.9 1.3-5.8 1.8-6.3.6-.6.8-3.4.5-6.4-.8-7.5 1.6-13.1 8.5-20.2 7.1-7.2 15.8-14.8 19.5-17 2.1-1.2 2.7-2.3 2.5-4.2-.3-2.2.3-2.7 5.7-4.6 6.7-2.4 7.7-4.1 4.7-7.9-1.8-2.2-2.1-2.3-2.4-.8-.2 1.3-.8.8-2.1-2-2.3-4.8-3-4.7-2.5.4.3 3.4.2 3.8-.9 2.3s-1.3-1.4-1.9 1c-.3 1.4-.8 2.6-1 2.6s-1.5-1.2-2.9-2.6c-2.1-2.1-2.9-2.3-4-1.4-1.3 1-1.5.8-1.5-1.7 0-3.6-.9-4.6-2.7-3.2-1.1.9-1.3-.4-1.5-7.7-.4-15 0-19.3 2.8-27.8 6.8-20.6 12.9-29.4 26.7-38.6 7.4-5 12.4-6.3 21.2-5.8 7.8.5 14.4 3.4 23.2 9.9 2.9 2.1 5.4 3.9 5.6 3.9.6 0 11.7-25.3 15.6-35.3l2.9-7.7H0zM21.5 6.9c.3.5-.2 1.7-1.1 2.6-1.9 1.9-4 .6-3.1-1.9.7-1.7 3.2-2.1 4.2-.7M88.8 13c-.3.9-.9.8-2.1-.4-.9-1-1.4-2.2-1.1-2.8.8-1.3 3.8 1.6 3.2 3.2m49.7 59.3c.7.6-.5.8-3.4.4-2.4-.3-4.8-1-5.3-1.5-.7-.7.4-.9 3.3-.5 2.4.3 4.9 1 5.4 1.6M10.6 139.5c-1.1.8-2.7 1.5-3.5 1.5-.9-.1-.2-.7 1.4-1.5 3.9-1.8 4.4-1.8 2.1 0M317 6.5c0 6.2.5 7.9 6.8 24.2 1.6 4 1.6 4.4-.1 6-1 1-4.1 3.2-7 4.9-4.5 2.6-5.3 3.6-5.9 7-.6 3.3-.9 22.5-.6 31.6 0 1.5-.7 5.1-1.6 8-1.3 4.4-2.3 5.7-5.6 7.6-3.3 1.8-4 2.8-4 5.3 0 1.7-.4 2.8-.9 2.5s-1.4 1.4-2 3.8c-.6 2.3-1.9 6.3-3 8.7l-2 4.4-.1-4c-.1-2.2-.5-4.9-.9-6-.7-1.7-1.1-1.3-2.9 2.8-2.2 5-4.4 5.8-5.2 1.9-.5-2.2-.6-2.2-4.4 1.7l-3.9 4 4.7 1.2q4.65 1.2 6.6 3.9c1.1 1.5 3.2 3.1 4.6 3.4 1.5.4 5.4 2.5 8.8 4.7 3.3 2.2 7.2 4.2 8.6 4.5 13.4 3 18.2 7.1 23 19.8 1.8 4.7 3.8 9 4.5 9.6 1.2 1 6.8 1.8 26.2 4 4.5.5 16.4 1.2 26.5 1.5 19.7.8 24.5 1.9 29.9 7.1l2.5 2.4 19-11.1c20.5-12 48.5-29.3 54.9-33.9 2.2-1.6 4.8-2.9 5.8-3 1 0 2-.7 2.3-1.5.7-1.7 6.9-5.5 9-5.5 1.2 0 1.4-8.9 1.4-64V0H317zm104 14c1 1.3.9 1.5-.8 1.5-2.2 0-3.6-1.3-2.5-2.4 1-1 2-.7 3.3.9m8.3 87c.4.8.2 1.7-.3 2-.6.4-1-.3-1-1.4 0-2.5.6-2.7 1.3-.6m4.7.4c0 1.2-2 2.5-2.7 1.8s.6-2.7 1.8-2.7c.5 0 .9.4.9.9m-133 14.6c0 1.6-2.7 3.2-3.7 2.1-.7-.7 1.6-3.6 2.8-3.6.5 0 .9.7.9 1.5m105.6 23c-.3.9-1.1 1.3-1.6 1-.8-.5-.7-1.1.1-2.1 1.4-1.8 2.4-1.1 1.5 1.1"/><path d="M244.2 111.8c-.8 2.4-1.1 4.6-.9 4.8.8.8 2.9-5.4 2.5-7.3-.2-1.1-.8-.2-1.6 2.5M497.5 150c-3.8 2-19.1 11-34 19.8-14.8 8.9-28.9 17.3-31.2 18.6-3.9 2.3-4.3 2.9-4.3 6.3 0 4.1-2.1 7.8-6.6 12.3-1.6 1.5-4.4 4.6-6.2 6.9-3.8 4.7-7.3 5.4-11.6 2-1.9-1.5-2.5-2.8-2.3-5.1.1-1.8-.3-3.3-1-3.5-2.4-.9-2.6 2.9-.4 7.3 2.7 5.6 2.7 7.9 0 9.8-2.7 1.8-4.2 1-8.8-5-3-3.9-3.5-4.2-5.4-3.1-8.9 5.2-12.3 7.1-20.7 11.5-7.9 4.2-19.4 10-26 13.2-.8.4-1.4 1.5-1.4 2.4.3 2.4-5.7 5.9-27.3 16.2-14.8 7-18.2 9.1-17.7 10.3.4.9 2.6 7.2 4.9 13.9 2.5 7.8 4.7 12.8 5.9 13.4 6.8 3.8 65.2 26.8 94.6 37.3 32.4 11.5 31 10.9 30.3 13.5-2 7.5-16.7 6.3-46.2-3.6-5.6-1.9-10.8-3.3-11.5-3.1-.6.2-1.5-.2-2.1-.9-.5-.7-8-4-16.5-7.3s-21.6-8.5-29-11.5c-7.4-3.1-13.8-5.6-14.2-5.6-.5 0 2.7 5.8 7.1 12.8 4.3 7 9.8 17 12.2 22.2s5.8 12.1 7.5 15.2c1.8 3.1 3.5 6.7 3.9 8s1.4 4 2.3 6l1.7 3.7 84.3.1H512V175.5l-3.2 5.3c-1.8 2.8-3.7 5.2-4.2 5.2s-.7-8.5-.4-20c.2-11 .4-19.9.4-19.9-.1.1-3.2 1.8-7.1 3.9M473 203.5c1.3 1.6.3 2-2.4.9-.9-.3-1.3-1-1-1.5.8-1.3 2-1.1 3.4.6m-183.3-21.1c-1.6 11.7-1.8 34.2-.4 42.1.8 4.4 1.3 8.3 1.1 8.7-.3.4-1.4.2-2.4-.4-2.6-1.7-3.8-.4-5.3 5.8-1.1 4.2-1 5.3.3 8.1l1.7 3.2 21.8-11.5c14.8-7.7 22.2-11.1 23-10.4.7.6 2.3.2 4.6-1.4 1.9-1.2 6.8-4.1 10.9-6.3s10.7-5.7 14.5-7.8c3.9-2.1 10.5-5.5 14.7-7.7l7.7-3.8-1.4-3.3-1.3-3.2h-49.7l-6.7-3.8c-4.8-2.7-7.8-3.7-11-3.7-2.4 0-5.2-.6-6.3-1.3-1.1-.8-4.2-2.1-6.9-3-2.7-1-5.7-2.4-6.6-3.2-1.6-1.4-1.8-1.2-2.3 2.9m29.3 45.1c-.7.9-1.5 1.3-1.7 1.1-.7-.7.7-2.6 1.9-2.6.6 0 .6.6-.2 1.5m-97.2-34.6c-1.5.8-3.6 3.1-4.7 5.1-1.1 1.9-3.1 4.8-4.4 6.4l-2.4 2.9 2 5.4c1.1 2.9 2.3 5.3 2.7 5.3 1.2 0 5.7-10.8 7.9-18.9 1.1-4.1 2-7.5 1.8-7.6-.1-.1-1.4.5-2.9 1.4M392 196c0 .5.5 1 1 1 .6 0 1-.5 1-1 0-.6-.4-1-1-1-.5 0-1 .4-1 1m-174 37.7c.1.5.7 1.9 1.5 3.3l1.4 2.5.1-3.3c0-2.2-.5-3.2-1.5-3.2-.8 0-1.5.3-1.5.7M57.7 286c-1.4 3.8-1.8 4-5.6 4-4.7 0-5.4 1.8-2.3 5.8 1.3 1.7 2.9 2.3 6.2 2.5 4.2.2 4.5 0 4.6-2.3 0-1.4.3-3.2.6-4 .4-.8.9-3.4 1.2-5.8.5-3.6.4-4.2-1.2-4.2-1.3 0-2.4 1.3-3.5 4m114.8 41.1c-28.6 13.9-55.6 25.4-89.4 37.9-10.2 3.8-19.4 7.2-20.3 7.5-2.1.8-2.3 3.8-.7 8.4l1.1 3.1h104.6l.6-3.3c.3-1.8 3.1-10.9 6.2-20.3 6.7-20.6 12.5-39.6 12.2-39.9-.2-.1-6.6 2.9-14.3 6.6"/></svg>