<svg xmlns="http://www.w3.org/2000/svg" width="682.667" height="512" version="1.0" viewBox="0 0 512 384"><path d="M0 152.5V305l2.6-1c1.4-.6 5.1-1 8.3-1 3.1 0 8.2-.6 11.2-1.4s8.5-2 12.2-2.6c6.2-1.1 7.3-1.8 6.7-4.5-.1-.5-.2-2.1-.3-3.4-.2-2-1-2.6-4.7-3.5-5.4-1.3-6-3.1-2.7-8.3 3.5-5.6 7.3-15.8 8.7-23.7 1.1-6 1.1-7-.2-7.7-2.3-1.3-3-8.6-1.5-14.5 1.6-6.2 1.3-7.4-2.1-7.4-3.7 0-4.7-.9-6.5-5.2-1.5-3.5-1.4-3.7.9-5.9 1.3-1.2 2.4-2.7 2.4-3.3s1.1-3.3 2.5-6 2.5-5.7 2.5-6.7 1.1-4.4 2.5-7.5c2.6-5.8 2.5-7.4-.2-7.4-1.3 0-1.4-.8-.9-4.3.4-2.3.9-7.4 1-11.2.3-8.1 1.3-10.4 6-14 3.2-2.4 4-2.6 9.5-1.9 5.3.6 6.5 1.1 8.6 3.8 1.4 1.7 3.7 4.3 5.2 5.7l2.6 2.7-2.3 3.1c-1.6 2.4-2 3.9-1.5 5.9.4 1.5.8 5.2.9 8.2s1.2 9.3 2.5 14c2.3 8.3 2.5 8.7 9.8 15.6l7.5 7-3.8 4.2c-2 2.3-4.5 4.2-5.5 4.2-4.9 0-5 .3-4.4 15.4.9 24 1.6 30.6 3.5 37 2.3 7.1 2.5 9.6.8 9.7-3.3.3-5.5-.5-7.6-2.7-2.3-2.4-4.5-2.4-4-.1.1.7-.3 2.1-.9 3.3-1.7 2.9 2.4 7.9 7.2 8.8 8.3 1.6 1.2 4.1-31.5 11-6.9 1.5-17.9 3.8-24.5 5.3-6.6 1.4-13.9 2.6-16.2 2.7l-4.3.1V384h65.1l-.6-2.3c-.4-1.2-.9-3-1.2-4-.3-1.3-1-1.6-2.1-1.1-7.9 3.3-17.5 5.5-23.8 5.6-7.3 0-10.2-.9-14.2-4.5-2.7-2.5-2.8-4.3-.3-5.6 2-1.1 22.8-9 32.8-12.5 7.4-2.6 7.8-2.9 6.3-5.5-.9-1.8-1.7-2.1-4.8-1.6l-3.7.5 3.3-1.3c3.3-1.2 3.3-1.3 1.4-3-1.6-1.4-2.4-1.6-4.8-.7-1.5.6-3.8.9-5 .6-4.1-1.1-3.5-9.6.7-9.6 1.2 0 2.3-.8 2.6-2 .6-2.3 3.8-2.6 7.8-.8 2.9 1.3 3.2 3.8.9 7.3-1.4 2.2-1.4 2.6.7 5.4 1.3 1.7 2.4 3.1 2.5 3.1s1.6-1.4 3.2-3c2.7-2.7 6.2-4 6.2-2.4 0 .3-1.6 2.5-3.6 4.9l-3.6 4.4 11.9-4.8c18.5-7.5 43.3-18.7 73.8-33.4 41.4-19.8 41.3-19.8 42.4-22.6 1.8-4.6 7.3-23.3 6.9-23.6-.2-.1-3.6-1.7-7.5-3.3l-7.3-3.1-1.1 2.2c-1.9 3.6-4 5.6-5.4 5.1-2.2-.9-2.6-3.3-1-7.1 1.3-3 1.3-3.9.3-4.9-.7-.7-9.4-4.7-19.3-8.9s-27.3-12.1-38.6-17.6c-11.3-5.4-21.1-9.9-21.8-9.9-.6 0-2.3-.8-3.7-1.7-2.1-1.4-2.5-2.2-2-4.7.8-3.7 3.3-6.6 5.9-6.6 1 0 4.4 1.6 7.5 3.5 10.4 6.3 73.1 34.5 77 34.5.5 0 1.5-1.3 2.2-2.9.6-1.6 2.1-3.7 3.1-4.7 1.8-1.6 2.1-1.6 3.5-.2s1.4 2.2.4 5.3c-.7 2-1 3.8-.8 4 .7.8 14 6.5 15 6.5.5 0-.2-2.1-1.7-4.7-1.6-2.5-6.6-11.4-11.2-19.7l-8.4-15.1.4-8.5c.3-5.6 1.4-11.2 3.2-16.5 3.5-10.5 4.6-16.5 4.5-25.2-.1-5.3.4-8.1 1.9-11 2.9-5.8 16.4-19.2 25.1-24.9 3.5-2.4 4-3.1 3.5-5.4-.6-2.5-.3-2.8 4.2-4 6.6-1.8 7.7-3.3 5.1-7.6-2.3-4-2.8-4.2-2.1-1.2.8 3 0 2.2-3.1-3.2l-2.6-4.5v3.7c0 3.1-.3 3.6-1.7 3.1-1.3-.5-1.5-.2-1 1.2.4.9.2 2.4-.5 3.2-1 1.2-1.5.9-2.9-1.9-1-1.8-1.8-2.6-1.9-1.8 0 1.3-.1 1.3-1 0-.6-1-1-1.1-1-.3 0 .7-.4 1.3-1 1.3-.5 0-1-1.3-1-2.9 0-1.7-.4-3.3-1-3.6s-1-.1-1 .4c0 .6-.3 1.1-.7 1.1-.5 0-.9-5.7-1.1-12.8-.3-12.6-.3-12.8 3.8-25.1 5.5-16.5 8.7-22.6 15.2-28.7 12.2-11.6 23.1-16.2 34-14.4 6.5 1 14.3 4.6 20.3 9.2 2.2 1.7 4.5 3.5 5.2 4 1.2 1 8.7-13.8 15-29.7 2-5 4-9.6 4.6-10.3.7-.9-14.4-1.2-75.2-1.2C157 0 156.9 0 158 2c1.2 2.3.6 4-1.5 4-1.3 0-3.1-3.6-2.7-5.3.1-.4-34.5-.7-76.8-.7H0zM16.5 10c.8 1.3-1.3 4-3.1 4-1.7 0-1.8-2.2-.2-3.8 1.5-1.5 2.5-1.5 3.3-.2M82 15.5c1 1.2.9 1.5-.8 1.5-1.1 0-2.2-.7-2.6-1.5-.3-.9 0-1.5.8-1.5.7 0 1.9.7 2.6 1.5m40.1 57.3c-1.8.2-3.7 0-4.2-.5s1.1-.6 3.4-.3c4.1.4 4.1.5.8.8M314 4.3c0 5.9 2.4 14.6 6 21.7 4.6 9.2 4.2 10.3-5.4 15-4.9 2.4-5.1 2.7-5.8 7.5-.4 2.7-1.1 12-1.7 20.5-1.1 17.8-2.4 22.3-7.8 25.8-3.2 2.2-3.4 2.6-2.8 5.9.4 2.1.3 3.3-.3 2.9-.5-.3-1.9 2-3 5.2-1.2 3.1-2.8 6.6-3.6 7.7-1.4 1.8-1.5 1.5-1.6-4.5l-.1-6.5-3.1 6.2c-3.2 6.5-4.8 7.3-4.8 2.2v-3l-5 4.3c-5.5 4.7-5.5 4.7 2.8 6.8 3.3.9 4.6 1.8 5.3 3.8.6 1.6 2.4 3.4 4.7 4.4 2.1 1 5.6 3.5 7.8 5.7 2.2 2.1 5.2 4.2 6.5 4.6 4.9 1.5 10.5 4.8 14.2 8.4 3.9 3.7 5.9 8.8 7.2 18.1.3 2.5.9 5 1.3 5.6 1.2 1.8 35.3 7.4 51.6 8.5 15.4 1.1 19.7 2.3 27.8 7.5 2.6 1.8 2.8 1.7 7-.5 10.8-6 45.7-27.3 58.4-35.7 7.8-5.2 14.9-9.7 15.9-10 .9-.4 2.9-1.8 4.3-3.1 1.5-1.4 4.2-3.1 6-3.9 3.1-1.2 3.6-1.2 7 .9 2 1.3 4.5 2.6 5.5 3 .9.4 2.2 1.7 2.7 2.9.5 1.4.9-25.3.9-70L512 0H314zM416.5 24c.4.6-.5 1-1.9 1s-2.6-.5-2.6-1c0-.6.9-1 1.9-1 1.1 0 2.3.4 2.6 1m9.5 86.1c0 .6-.5 2-1.1 3.2l-1.2 2.1-.9-2.3c-.4-1.2-.6-2.7-.2-3.2.7-1.3 3.4-1.1 3.4.2m-132 13.4c0 1.6-2.7 3.2-3.7 2.1-.7-.7 1.6-3.6 2.8-3.6.5 0 .9.7.9 1.5m105 22c0 1.6-.6 2.5-1.5 2.5-2.8 0-1.8-4 1.3-4.9.1-.1.2 1 .2 2.4"/><path d="M240.8 109.8c-.9 1.5-1.9 4.2-2.3 6.1-1 4.7 1.1 3.2 3.6-2.7 2.2-5.1 1.2-7.7-1.3-3.4m250.9 43c-1.1 1.1-3.8 3-6.2 4.1s-11.5 6.4-20.2 11.7-23 13.9-31.8 19.2c-19.5 11.6-19.6 11.7-18.9 15.2.7 3.3-1.3 7.4-5.5 11.4-1.7 1.7-3.1 3.5-3.1 4.2 0 .6-1.3 2.6-2.9 4.3-2.3 2.5-3.7 3.1-6.8 3.1-4.6 0-7.9-2.8-7-5.9.3-1.2-.2-2.6-1.3-3.6-3.2-2.9-3.2.1-.1 6.9l3 6.6-2.6 2c-3.1 2.4-4.7 1.5-9.4-4.9-2.1-3-3.4-4-4.2-3.3-.7.5-4.8 2.9-9.2 5.2-4.4 2.4-8.2 4.6-8.5 4.9-.3.4-3.6 2.1-7.5 3.8-4.4 2.1-7.1 3.9-7.3 5-.2 1.3-7.9 5.7-24.5 14.2-13.3 6.8-24.4 12.5-24.5 12.6-.5.4 6.9 22.8 7.8 23.8 1.6 1.8 64.9 24.7 93.3 33.8 27.8 8.8 32 10.3 34.2 11.6 1.9 1.2 1.9 1.4-1.4 4.4-3.4 3.2-3.5 3.2-12 2.6-13.2-.9-30.3-5.9-73.7-21.3-14.4-5.1-27.8-10-29.8-10.8-3.3-1.4-3.6-1.4-3.6.2 0 .9 2.9 6.4 6.4 12.2s10.3 18.4 15.1 28c13.7 27.6 12.8 25.2 11.3 28.2-.8 1.7 3.6 1.8 85.2 1.8h86V268.2c-.1-113.2-.1-115.6-1.9-111-1 2.6-2.8 6.2-4 8.1-4.2 6.8-22 21.7-25.8 21.7-1.1 0-.9-1 .8-4 1.3-2.2 3.1-4.9 4.1-6 4.5-4.8 9.6-19.6 8.6-24.7-.2-1.3-.6-1.2-2.1.5m-32.2 51.3c.4.6.5 1.3.2 1.6-.8.7-4.7-.7-4.7-1.8 0-1.3 3.7-1.1 4.5.2m-89.1 142.1c-1.3 2.3-3.7 4.8-4.6 4.8-1.6 0-.7-2.8 1.5-4.3 2.7-1.9 4.1-2.1 3.1-.5m-84.7-150.5c-.5 10.1-.2 15 1.4 24.1 1 6.3 1.9 11.5 1.9 11.7s-1.4.2-3.2.1c-3-.1-3.3.2-4.6 4.9-1.1 3.7-1.2 5.3-.3 6.7.6 1 1.1 3.4 1.1 5.3s.2 3.5.5 3.5c.7 0 24.6-12.6 37.4-19.7 11.8-6.5 13-7 14.7-5.4.5.6 2.6-.2 5.4-2.1 2.5-1.7 9.2-5.6 15-8.7 15.8-8.4 14.4-7.2 12.6-11.4-.8-2.1-1.6-3.7-1.8-3.8s-10.4-.5-22.8-.9c-12.4-.5-24.2-1.4-26.3-2s-5.3-2.5-7.3-4.2c-2.1-1.9-5.3-3.4-8.1-3.9-2.5-.5-6.6-2.2-9.1-3.9-2.5-1.6-4.8-3-5.2-3s-1 5.7-1.3 12.7m27 33.8c-.4.8-1.1 1.5-1.7 1.5-1.4 0-1.3-2.7.3-3.3s2.1-.1 1.4 1.8m-94.1-35.6c-.9 1-3.3 4.5-5.2 7.7l-3.6 5.9 2.2 4.5 2.3 4.5 3.2-8.5c5.2-13.5 5.7-19.2 1.1-14.1M47 204c0 .5.5 1 1 1 .6 0 1-.5 1-1 0-.6-.4-1-1-1-.5 0-1 .4-1 1m332.5 0c.4.6 1.1.8 1.6.5 1.4-.9 1.1-1.5-.7-1.5-.8 0-1.2.5-.9 1M58.4 285.2c-.7 2.5-1.7 3.5-4.1 4.2-3.8 1.2-4.6 2.8-3.1 6.1.7 1.6 2.2 2.7 4.4 3.1 4.1.7 5.7-.2 5-2.9-.3-1.2-.1-2.6.3-3.1.5-.6 1.1-3.2 1.4-5.9.6-4.1.4-4.7-1.2-4.7-1.2 0-2.1 1.1-2.7 3.2m110.1 46.6c-32 15.4-43.9 20.6-77.8 33.7-22.2 8.6-24.2 9.5-24.5 11.9-.2 1.4.2 3.4.8 4.6 1.1 2 1.7 2 51 2h49.9l1.1-4.3c.6-2.3 2.8-9.6 5-16.2 2.1-6.6 5.5-17.6 7.5-24.4s3.9-13 4.2-13.7c.3-.8.1-1.4-.3-1.4-.5 0-8.1 3.5-16.9 7.8"/></svg>