<svg xmlns="http://www.w3.org/2000/svg" width="682.667" height="512" version="1.0" viewBox="0 0 512 384"><path d="M0 152.3v152.3l6.8-.7c12.5-1.4 35.3-5.6 36.5-6.8.5-.5.6-2.8.2-5-.6-3.8-.9-4.1-3.9-4.1-1.8 0-4.1-.6-5.1-1.4-1.9-1.3-1.8-1.7 2.2-10.2 2.3-4.9 4.7-10.9 5.4-13.4 1.4-5.3 2.1-22 1-22-.4 0-1.6.9-2.6 2-1.6 1.8-6.5 2.9-6.5 1.4 0-.3 1.6-4 3.6-8.1 1.9-4.1 3.4-8.2 3.2-9.1s-1.9-2-3.8-2.5c-4.3-1.1-5-1.7-6.6-6.2-1.1-3.3-1-3.7 1.2-5.2 1.3-.8 2.4-2.4 2.4-3.4s.5-2.1 1-2.4c1.8-1.1 6-8.3 6-10.2 0-1 1.4-4.1 3-6.8 3.6-6.1 3.7-7.5.6-7.5-3.5 0-3.8-1.2-1.5-6 1.2-2.4 1.8-5.2 1.5-6.4s-.2-4.6.3-7.6c.7-4.4 1.5-6 4.2-8.2 2.9-2.4 4.2-2.8 9.7-2.8 5.9 0 6.6.2 9.3 3.2 1.6 1.8 4.2 4.5 5.6 6l2.7 2.7-2.2 3c-1.9 2.6-2.1 4-1.8 10.8.2 4.4.8 8.8 1.4 9.9s1.4 4.5 1.8 7.5c1 8 2 9.6 12.7 20.6 2.6 2.6 3.4 3 5.5 2.2 1.9-.7 3.4-.4 7.1 1.7 13.4 7.6 76.6 32.4 82.5 32.4 1.6 0 2.7-1.2 4.1-4.3 2.4-5 5.1-5.7 4.9-1.2-.1 1.6-.5 3.9-.8 5-.6 1.8.2 2.4 7 4.9 6.2 2.3 7.8 2.6 8.5 1.5.5-.8.9-1.8.9-2.2 0-.5-4.7-7.7-10.4-16-5.7-8.4-11.1-16.6-12-18.4-2.5-5-2.1-15.4 1-25.9 2.9-9.6 4.6-18.4 4.3-22.4-1-13.2.6-17.5 9.1-26 6.8-6.7 16.3-15 19.6-17 1.5-.9 2.2-2 1.8-3-.3-.8-.6-1.9-.7-2.4-.1-.4 3.3-2 7.5-3.4 7.2-2.4 7.8-2.8 9.5-6.6.9-2.3 1.9-4.4 2.1-4.7.1-.4-.9-.6-2.3-.5-2.2.1-2.8.8-3.9 4.5-1.4 4.9-3.6 6.6-3.6 2.9 0-1.3-.7-3.1-1.5-4.1-1.3-1.8-1.4-1.7-1.7.5-.2 1.9-.8 1.4-3.1-3.1l-2.7-5.5v5c0 3.3-.3 4.4-.9 3.5-.7-1.1-1-.9-1.3 1-.5 3.6-3.1 3.5-4.7-.3-.7-1.8-1.5-2.7-1.8-2-.2.6-.9 1-1.4.6-.5-.3-.9.1-1 .8s-.7-.5-1.4-2.7c-.8-2.2-1.4-3.4-1.4-2.7-.1.7-.5 1.1-1 .8-.4-.3-.8-6.5-.7-13.8.2-12.1.5-14.2 3.5-23.3 5.3-16 9.1-23.4 15.3-29.5 10.1-9.9 20.3-14.9 30.3-14.9 8.7-.1 14.6 2.6 28.6 12.8 1.8 1.3 2.4.3 10.4-16.5 4.7-9.9 9.2-19.1 10-20.7l1.4-2.7H0zM148 8.9c2 1.6 2.2 2.2 1.1 3.4-1.6 2-3.5 1.3-4.9-1.8-1.7-3.8-.1-4.5 3.8-1.6M8.7 15.6c.7 2-1.1 3.8-3.2 3-1.3-.4-1.4-1-.5-2.6 1.3-2.4 2.8-2.6 3.7-.4m53.8.4c.3.5.1 1-.4 1-.6 0-1.1-.5-1.1-1 0-.6.2-1 .4-1 .3 0 .8.4 1.1 1m9.2 6.4c-.6 1.9-2.9 1.2-3.8-1.1-.7-2.1-.6-2.1 1.7-1.1 1.3.6 2.3 1.6 2.1 2.2M78 50c0 .5-.4 1-1 1-.5 0-1-.5-1-1 0-.6.5-1 1-1 .6 0 1 .4 1 1m26.5 26c-1.7.6-5.5.3-5.5-.5 0-.2 1.7-.3 3.8-.3 2.7 0 3.2.2 1.7.8M311.2 7.6c.4 6.3 1.2 8.9 4.7 15.7 2.2 4.5 4.1 9.5 4.1 11 0 2.5-.7 3.2-6.5 5.8-4.7 2.1-6.6 3.5-6.9 5.2-.3 1.2-.8 8.2-1.1 15.6-.7 15.3-1 16.7-3.3 14.9-1.3-1.1-1.4-1-.8.9 1.1 3.5-1.4 10.9-5.1 15.3-3.1 3.6-3.5 4.6-3 8 .3 2.6.1 4-.8 4.4-.7.2-1.6 1.7-1.9 3.3-.4 1.6-1.7 4.6-3 6.8l-2.4 3.9-.7-4.9c-1-7.4-1-7.4-3.5-1.8-2.4 5.7-4 6.8-4 2.8 0-1.4-.6-2.5-1.3-2.5-1.4 0-9.7 6-9.7 7.1 0 .7 11.2 3.9 13.8 3.9 2.7 0 3.2.9 2 3.5-.9 2-.2 3 6.8 9.9 4.4 4.2 10.1 9.1 12.9 10.9 2.7 1.7 6.3 5.2 8 7.5 2.9 4.2 3 4.8 2.9 14.1l-.1 9.6 18.1 4.8c14.6 3.9 38.7 8.6 44.2 8.7.5 0 4 2 7.7 4.5s7 4.5 7.3 4.5c1.9 0 65.6-39.2 70.8-43.6 2.1-1.8 5.1-3.6 6.7-3.9 1.6-.4 3.2-1.2 3.6-1.9.5-.7 2.3-2.2 4.1-3.5 3.9-2.7 8.8-2.5 15 .6 5.7 3 7.7 7.8 7.6 18.8-.1 9.7-1.6 15.4-8 29.4-3.1 6.8-3.6 7.3-5 5.9-1.4-1.3-1.4-2.7-.5-10.1.9-7.6.8-9.5-1.4-19.3-1.4-6-2.5-11.2-2.5-11.7 0-1.4-4.3.3-7 2.8-1.4 1.2-4.8 3.4-7.6 4.8-2.8 1.3-15 8.5-27 15.9-12 7.5-26.3 16.1-31.7 19.3-9.2 5.5-9.8 6-9.2 8.6.7 3.1-1.4 8.8-4.8 12.9-1.3 1.5-2.9 4.1-3.6 5.7-1.3 3.2-4.7 5.3-8.5 5.3-2.3 0-6.1-3.3-8-7.1-.6-1.2-1.7-2.4-2.3-2.6-.8-.3-.3 1.8 1.2 5.2 3.2 7.1 3.2 9.2-.1 10.7-2.4 1.1-2.9.9-7.2-4l-4.7-5.2-7.7 3.8c-5.1 2.4-7.8 4.3-7.8 5.4 0 1.7-4.6 4.3-36.5 20.8-7.7 4-14.1 7.3-14.2 7.4-.8.6 6.6 18.9 7.9 19.7 4.9 2.7 67.7 22 101.3 31 14.3 3.9 26.4 7.4 27 8 1.3 1.3-.4 4-3.6 5.7-1.7.9-5.4 1.2-12.9.8-14.6-.6-40-7.1-89.1-22.7-8.6-2.7-16.1-4.9-16.7-4.9-1.6 0 2.2 9.1 7.1 16.7 3.6 5.5 16.5 30.4 23.5 45.1 1.5 3.1 1.2 5.6-1.4 11.9-.5 1 17.4 1.3 87.5 1.3H512V0H310.7zM408.5 29c.4.6-.7 1-2.4 1s-3.1-.5-3.1-1c0-.6 1.1-1 2.4-1 1.4 0 2.8.4 3.1 1M354 39.4c0 .3-.4.8-1 1.1-.5.3-1 .1-1-.4 0-.6.5-1.1 1-1.1.6 0 1 .2 1 .4m60.3 74.2c.9 1-.4 3.4-1.9 3.4-.8 0-1.4-.6-1.4-1.3 0-2.2 1.9-3.5 3.3-2.1m-5.1 8.6c-.7.7-1.2.8-1.2.2s.3-1.4.7-1.7c.3-.4.9-.5 1.2-.2.2.3-.1 1.1-.7 1.7m10.1-.2c.3 1.3 0 2-.9 2-.8 0-1.4-.9-1.4-2s.4-2 .9-2 1.1.9 1.4 2m-33.5 24.2c-.4 2.9-3.8 3.8-3.8 1 0-2.2.8-3.2 2.7-3.2.9 0 1.3.8 1.1 2.2m54.7 59.8c1 1.7-4.2 1.6-5.9-.1-.6-.5.2-.9 2.1-.9 1.8 0 3.5.4 3.8 1m-77.1 155.7c-2.2 2.9-4.4 4.1-4.4 2.3 0-1.4 5.1-6.2 5.8-5.5.3.3-.3 1.7-1.4 3.2"/><path d="M282 199.2c0 7.1 1.8 18.7 4.5 29.1.7 2.6.6 2.8-1.7 2.2-1.6-.4-3.1-.1-4 .9-2 2-3.3 10.5-1.9 11.9.6.6 1.1 2.2 1.1 3.4 0 1.3.7 3.5 1.6 4.8l1.6 2.5 10.7-5.7c5.8-3.1 17.3-9.4 25.4-14 12-6.8 15.2-8.2 16.3-7.2 1.2 1 1.9.8 3.7-.8 1.2-1.2 4.7-3.3 7.7-4.9 3-1.5 5.6-2.8 5.8-3 .2-.1-.7-2.3-2-5-2.7-5.7-2-5.5-26.8-7.9-19.7-2-25.4-3.6-30.1-8.4-3-3.3-8.2-6.1-11-6.1-.5 0-.9 3.7-.9 8.2m19.8 33.5c-.6.7-1.4 1.3-1.9 1.3-1.3 0-1.1-2.4.3-3.8 1.6-1.6 3.1.7 1.6 2.5m-85.4-38.5c-1.2 1.2-3.5 4.9-5.2 8.2-2.9 5.5-3 6-1.7 8.7.8 1.5 1.9 3 2.3 3.3 1.1.7 7.5-18.4 7.1-20.8-.4-1.6-.6-1.5-2.5.6M48 202.9c0 .6.5 1.3 1 1.6.6.3 1-.1 1-.9 0-.9-.4-1.6-1-1.6-.5 0-1 .4-1 .9m314.6 9.6c.7 1.6 3.9 2 4.8.6.3-.5-.4-1.1-1.7-1.5-3.3-.9-3.7-.7-3.1.9M86 225.5c-1.3 1.4-3.4 2.5-4.6 2.5-1.3 0-2.6.5-2.9 1-.7 1.1-.7 13.4-.1 32 .3 8 1.1 13.6 2.6 18.3 1.2 3.8 1.9 7.5 1.6 8.3-.8 2-3.6 1.7-7.1-.6-1.6-1.1-3.3-2-3.6-2s-1.2 1.5-2.1 3.3c-1.5 3.2-1.5 3.5.8 6.4 1.5 2 3.7 3.3 5.9 3.7 3.7.7 4.3 1.7 2.3 3.4-.7.5-8.3 2.4-16.8 4.2s-24.4 5.2-35.3 7.6S5.3 318 3.4 318H0v66h27l-1.6-2.6c-2.3-3.5-1.4-4.2 13.1-9.7 6.6-2.5 14.5-5.5 17.5-6.7 3-1.3 6.5-2.7 7.8-3.1 3.9-1.5 2.4-4.4-2.1-4.3-2 .1-3.7-.3-3.7-.7 0-.5 1.1-.9 2.5-.9 2.8 0 3.3-2.1 1-4-1.2-1-1.9-1-2.7-.2-1.3 1.3-5.7 1.6-7.4.4-2.3-1.5-.5-10.2 2.1-10.2.8 0 2.1-.7 2.9-1.5 2-2 6.6-1.5 8.8.8 1.8 2 1.5 4.1-1 6.9-1.3 1.5-1.2 2.1.8 5.3l2.2 3.6 1.6-2.3c2-2.9 4.3-4.7 6-4.8 2 0 1.4 1.4-2.5 6-2.1 2.4-3.1 4.1-2.3 3.8 13.5-5.3 60.3-27.2 87.5-40.8l35-17.5 3.6-13.5c2-7.4 3.5-13.8 3.3-14.2-.8-1.3-11.7-4.9-13.1-4.4-.8.3-1.9 1.9-2.4 3.6-.7 1.9-1.8 3-3 3-2.8 0-3.3-2.2-1.4-6.6 1.3-3 1.3-4 .3-5-.7-.6-9.4-4.1-19.3-7.8-18.1-6.7-28.8-11-49-19.6-6-2.6-12.8-5.3-15-6-5-1.6-6.5-2.8-6.5-5.1 0-2.9-1.5-3-4-.4"/><path d="M59.9 284.8c-.6 1.9-2.4 3.9-4 4.8-4.9 2.5-2.9 10 2.5 9.2 1.8-.3 2.3-1.4 3.2-7.8 1.3-8 .2-11.7-1.7-6.2M168 336.3c-26.1 13-44.5 21.2-73 32.6-24.3 9.8-26.5 10.8-26.2 12.9l.3 2.2h50.5c45.7 0 50.4-.2 50.4-1.6 0-.9 1.6-6.9 3.6-13.3 5.8-18.3 12.1-41.1 11.5-41-.3 0-8 3.7-17.1 8.2M60.5 382.5l-3 1.4 4.8.1c3.5 0 4.7-.4 4.5-1.3-.6-1.7-2.8-1.8-6.3-.2"/></svg>