<svg xmlns="http://www.w3.org/2000/svg" width="682.667" height="512" version="1.0" viewBox="0 0 512 384"><path d="M0 9c0 8.1.2 9.1 1.7 8.8 2.8-.5 3.1 4.2.4 4.9l-2.1.5v141.6c0 110.1.3 141.3 1.2 140.4.7-.7 3.5-1.2 6.3-1.2 2.7 0 10.6-1.1 17.5-2.5 6.9-1.3 13.9-2.5 15.6-2.5 4 0 5.2-1.5 5.2-6.3 0-3.7 0-3.7-4.3-3.7-6.9 0-7.3-1.5-3.1-11.4 4.8-11.1 7.9-30.8 5.2-33.4-1.4-1.4-2-1.5-3.7-.4-2.4 1.5-5.9.7-5.9-1.5 0-.8.8-2.7 1.9-4.1 5.7-8.3 6.2-13.2 1.2-13.2-2.8 0-7.1-3.2-7.1-5.3 0-.7-.3-2.2-.6-3.4-.5-1.7 0-2.5 2-3.4 1.4-.7 2.6-2 2.6-2.9s1.1-3 2.4-4.5c2.7-3.1 11.6-20.2 11.6-22.3 0-.6-1.1-1.2-2.5-1.2-2.9 0-3-.6-1-4.8.9-1.7 1.5-5 1.5-7.4-.2-5.2 1.3-12.2 2.9-14.2 4.1-5 17.9-5.3 21-.5.9 1.3 2.8 3.6 4.3 5.1 3.4 3.1 3.4 3.7.6 7.3-1.7 2.2-2 3.2-1.2 5.4.6 1.4.7 3.9.3 5.4-.5 1.9-.1 4.9 1.2 8.9 1 3.3 1.9 7.3 1.9 8.8 0 4.3 2 9.2 5.6 13.5 7.7 9.2 9.2 10.6 15.8 14 15.6 8.2 82.6 32.5 85.9 31.2.7-.3 1.9-2.3 2.6-4.5 1.5-4.5 3.3-5.8 5.1-3.7.8 1 .7 2.2-.4 4.9-1.7 4-1.9 3.7 5.4 6.5 6.6 2.5 8.6 2.6 9.4.5 1-2.6.9-2.8-9.7-17.1-15-20.1-14.7-19.6-14.7-29.4 0-5.7.7-10.5 2.1-14.9 2.3-7.3 4.2-18 4-22.5-.5-13.6-.6-13.1 3-19 1.8-3.1 5.2-7.3 7.5-9.3 9.7-8.7 15.8-13.8 18.5-15.5 2.5-1.6 2.7-2.2 1.8-3.9-1.3-2.4-.2-3.4 4.9-4.4 2.5-.5 3.2-1.1 3.2-3 0-2.5-3-10.8-3.7-10.1-.2.2.1 1.7.7 3.2 1.6 4.3.4 4.1-2.3-.5-2.6-4.5-3.1-4.4-4.2.8-.5 2.5-1 3.1-2 2.2-.9-.8-1.4-.5-1.9 1.2-.7 2.2-.7 2.2-1.6.3-.4-1.1-1.1-2.8-1.4-3.8-.6-1.7-.7-1.7-2.3-.2-1.6 1.6-1.7 1.6-2.5-.6-.5-1.3-1.4-2.7-2.1-3.1-.8-.5-1.2-5-1.2-14.5 0-13.5.1-14.1 3.9-24.8 4.6-13.2 8.5-21.1 12.3-25.1 5.2-5.5 17.7-14.1 23.2-15.9 10.6-3.5 24.5.1 34.9 9.1 2.4 2 4.7 3.3 5.1 2.8.5-.5 5.4-9.8 10.9-20.7L302.9 0H0zm139.1 3c2.8 2.1 3 5 .3 5-1.5 0-4.4-3.8-4.4-5.7 0-1.8.7-1.6 4.1.7M65 27.2c0 1.8-3.3.3-4.1-2-.8-2.1-.8-2.2 1.6-.6 1.4.9 2.5 2.1 2.5 2.6M91 79c0 .5-.4 1-1 1-.5 0-1-.5-1-1 0-.6.5-1 1-1 .6 0 1 .4 1 1M309.3 7.7c.5 6.5 1.3 9.2 5.1 16.9 2.5 5.1 4.6 9.9 4.6 10.7 0 2.1-3 4.4-7.8 5.8-2.3.7-4.6 1.7-5.1 2.3s-1.3 8.2-1.9 16.9c-.5 8.7-1.3 16.1-1.7 16.5-.3.4-1.5-.4-2.5-1.8l-2-2.5v5.3c0 5.8-2 11.5-5.1 14.9-1.7 1.7-2 3.2-1.8 7.2.3 3.3 0 5.1-.7 5.1-.6 0-1.7 2.1-2.4 4.6-.9 3.1-1.6 4.1-2.1 3.2-.6-.9-1-.3-1.5 1.9-.9 4.5-2.4 4.2-2.4-.5 0-6.5-1.5-6.8-4-1l-2.3 5.3-1-2.8c-1.3-3.3-2.3-3.4-5.5-.5-1.4 1.3-2.1 1.6-1.7.9.5-.8-.7-.4-2.5.9l-3.4 2.5 3.9 1.1c2.2.7 4.7 1.3 5.6 1.3 2.7.2 6.9 4.1 6.9 6.5 0 1.4 1.7 3.9 4.4 6.4 2.5 2.3 5.3 5.5 6.2 7.1s3.2 3.6 4.9 4.4c5.1 2.5 10.2 7.4 12.6 12.4 1.9 3.9 2.1 5.6 1.6 12.8l-.6 8.2 18.6 5.7c10.2 3.2 24.1 6.8 30.9 8.1 13.6 2.6 14.9 3.2 21.2 8.2l4.2 3.5 13.8-8.3c26.2-15.7 51.2-31.6 59.1-37.6 2.4-1.8 5.1-3.3 6.1-3.3.9 0 2.9-1.3 4.5-3 4.5-4.7 7.2-5.1 14.1-2.4 7 2.9 9 5.2 10.3 11.9 1.3 6.6 3.4 42.2 2.5 43.6s-2-.4-9.6-15.3c-3.7-7-7.3-15.8-8.3-19.7-.9-3.9-2.2-7.4-2.7-7.7-.6-.4-2 .5-3.2 1.9-1.1 1.4-4.6 3.8-7.6 5.3-3 1.4-13.8 8-24 14.4-10.2 6.5-24.8 15.6-32.4 20.3l-14 8.4v5.1c-.1 3.6-.8 5.9-2.4 8.1-1.3 1.7-3.1 5.1-4.2 7.6-1.6 3.7-2.5 4.6-5.9 5.5-5.1 1.3-6.9.3-10.7-6.2-3.8-6.4-5.2-4.5-1.8 2.4 1.9 4 2.5 6.3 2 8.2-1 4.1-4.3 3-9.2-3.1-2.4-2.9-4.6-4.8-4.9-4.3s-2.6 1.8-5 2.9c-3 1.3-4.4 2.6-4.7 4.2-.2 1.2-1 2.6-1.8 3.1-5.2 2.9-33 17.7-40.2 21.4-4.9 2.4-8.8 4.6-8.8 4.9 0 1.2 5.3 15.1 6.1 16 .5.5 5.8 2.4 11.7 4.1s20.9 6.1 33.5 9.7c12.5 3.7 36.7 10.1 53.7 14.3 33.1 8.2 33.8 8.5 28.9 13-2.9 2.6-15.1 3.1-27.4 1-12.2-2.1-46.9-10.8-73.2-18.4-13.2-3.8-20.3-5.4-20.3-4.7 0 2.2 4.1 10.6 8.5 17.4 2.3 3.6 7 12 10.3 18.6 3.4 6.6 6.8 13.1 7.6 14.5s2.5 4.6 3.7 7.3c2 4.1 2.1 5.2 1.1 8-.7 1.9-1.2 4.8-1.2 6.5v3.2h176V0H308.7zm93.1 24.2c.7 1.1-2.2 2.3-3.5 1.5-.5-.3-.9-.9-.9-1.5 0-1.2 3.7-1.2 4.4 0m4.6 85.5c0 2-1.9 3.1-3.2 1.8-.6-.6-.7-1.5-.4-2.1 1-1.6 3.6-1.3 3.6.3m-3.8 6.8c-.6.6-1.5.8-1.9.4s-.1-1.1.7-1.6c1.9-1.2 2.7-.3 1.2 1.2m10.8 2.9c0 1.1-.4 1.7-1 1.4-.5-.3-1-1.3-1-2.1s.5-1.4 1-1.4c.6 0 1 .9 1 2.1m-38 19.2c0 2.9-.7 3.7-2.6 3-1.7-.6-1.8-2.5-.2-4.1 1.8-1.8 2.8-1.4 2.8 1.1m51 60.2c1.1 1.3.7 1.5-2.6 1.5-3.6-.1-3.8-.2-2-1.5 2.5-1.9 3.1-1.9 4.6 0m-66.8 162.2c-.6 1-2 2.7-3.1 3.7-2.1 1.9-2.1 1.9-2.1-.2 0-1.1 1.2-3 2.7-4.1 2.9-2.4 3.9-2.2 2.5.6"/><path d="M231.1 111.6c-.6 2.1-1.1 4.4-1.1 5.1 0 .6-.5 1.3-1.1 1.5-.7.2-1 .9-.8 1.6.7 2 5.1-1 6.5-4.3 1.1-2.6 1-3.4-.6-5.5l-1.8-2.4zm48.3 88.6c.4 4.6 1.8 13.2 3.2 19.2 1.3 6 2.4 11 2.4 11.1s-1 0-2.3-.2c-2.9-.6-4.3 1.1-5.6 6.7-.8 3.6-.7 4.8.5 6.1.8.9 1.2 2.4.8 3.3-.4 1 .4 3.2 2.1 5.6l2.7 3.9 4.6-2.6c19.9-11 38.9-21.7 42.2-23.8 2.1-1.4 4.5-2.2 5.3-1.9s3.1-.6 5.1-2c2.1-1.4 4.6-2.8 5.5-3.1 1.7-.5 1.7-.9-.7-6-1.4-3-3.3-5.7-4.1-5.9-.9-.3-9.7-1.7-19.6-3.1-22.9-3.2-27.5-4.6-32.9-9.5-2.3-2.1-5.5-4.4-7-5l-2.9-1.1zm15.9 32.4c.9 1-.4 3.4-1.9 3.4-.8 0-1.4-.9-1.4-2 0-1.9 1.9-2.7 3.3-1.4m-80.4-38.3c-.8.7-3.2 4.4-5.3 8.3l-3.8 7 2.1 3.4 2 3.4 2-4.4c2.3-5.3 6.1-19 5.2-19-.3 0-1.3.6-2.2 1.3m-166.7 8.8c.1 1.3.8 2.3 1.3 2.1 1.5-.3 1.2-3.5-.3-4-.9-.3-1.3.3-1 1.9M355 214.7c.1 2.3 2 3.5 4.4 2.9 3.2-.8 3.4-2.2.4-3-3.1-.8-4.8-.7-4.8.1M86.8 226.1c-.2.6-2.2 1.4-4.3 1.8l-4 .6.1 22c.1 20.6.3 22.5 2.6 29.7 2.9 8.8 2.3 9.9-3.9 7.3-4.9-2.1-5.6-1.9-7.5 1.3-1.6 2.7-1.6 2.9.7 5.9 1.6 1.9 3.7 3.3 6 3.7 3.5.7 4.6 2.8 2.3 4.2-.7.4-3 1.1-5.3 1.4-8.1 1.4-31.2 6.2-40.5 8.5-12.8 3.2-24.8 5.5-29.3 5.7l-3.7.1V384h11.4c6.6 0 11.6-.4 11.8-1 .3-.9 23.9-10.9 35.6-15 7.2-2.6 7.3-2.7 6-5.6-1-2.2-1.7-2.5-4.5-2.1-2 .4-3.1.2-2.8-.4.4-.5 1.7-.9 3.1-.9q4.35 0 .6-3.3c-1.2-1.1-2.9-1.5-5.2-1.1-4.8.7-6-.4-5.1-4.6.5-2.4 1.5-3.9 3.6-5 1.7-.8 3.3-1.9 3.7-2.4.4-.6 2.2-.5 4.7.3 4.7 1.4 5.3 3.4 2 7.5-2.1 2.7-2.1 2.8-.3 6.2 1 1.9 1.9 3.4 2.1 3.4.1 0 1.5-1.3 3.1-3 3.4-3.4 7.5-4.4 5.1-1.3-.7 1-2.6 3.3-4.3 5.1-1.6 1.7-2.7 3.2-2.4 3.2 4.3 0 118.5-55.3 122.6-59.4.7-.7 2.7-6.9 4.3-13.7s3.2-13.1 3.5-14.1c.4-1.2-.9-2.1-6-3.7-3.6-1.2-6.7-2.1-7-2.1-.2 0-1 1.6-1.6 3.5-.8 2.3-1.8 3.5-3 3.5-2.8 0-3.2-1.5-1.5-5.6 1.9-4.6 1.2-5.5-6.3-8.2-3.1-1.1-13.5-4.8-23.1-8.1-9.5-3.4-25.3-9.3-35-13.1s-19.5-7.4-21.8-8c-4.7-1.2-6.8-3.9-5.9-7.6.6-2.4.1-3.4-.6-1.3"/><path d="M60.3 286.2c-.7 1.4-2.1 2.9-3.3 3.3-1.8.6-2.1 1.3-1.8 4.8.3 3.7.6 4.2 2.8 4.2 2.1 0 2.5-.6 3.2-4.5.5-2.5.7-5.9.5-7.5l-.3-3zm97.7 58.2c-25.8 12.8-39.5 18.9-72.5 32.3-8.8 3.6-16.2 6.7-16.4 6.9s22.5.4 50.6.4h51l3.1-10.3c5-16.5 11.4-40.6 11-41.6-.2-.4-12.2 5.1-26.8 12.3"/></svg>