<svg xmlns="http://www.w3.org/2000/svg" width="682.667" height="512" version="1.0" viewBox="0 0 512 384"><path d="M0 9.3c0 5.4.5 9.8 1.1 10.4.8.8.8 1.7 0 3.1-1.7 3.2-1.5 283.8.2 282.4.7-.6 4.3-1.2 8.1-1.3s10.2-1 14.2-2c4-.9 10.4-2.1 14.1-2.4 3.7-.4 7.3-1.1 7.8-1.5.6-.5 1-2.6 1-4.7 0-3.8 0-3.8-4.7-4.3-6-.7-6.5-1.3-4.9-5.3 4.1-9.8 6.2-17.7 7.2-26.8 1.2-12.1.9-13.4-3-12.6-1.7.4-3.6 0-4.7-.8-1.8-1.4-1.8-1.6 1.4-7.5 3.5-6.4 3.7-10.9.7-11.1-4.8-.4-7.3-2-8.4-5.1-1.6-4.6-1.4-5.7 1.4-7 1.4-.6 2.5-1.9 2.5-2.9s1.1-3 2.4-4.6c1.3-1.5 4-6 6.1-9.8 2-3.9 4.3-7.9 5.1-8.9 1.5-2.2.3-4.6-2.2-4.6-1.8 0-1.8-1.4 0-4.8.8-1.5 1.4-5.8 1.4-10 0-8.1 1.4-11.1 6.4-14.2 2.4-1.4 4.3-1.7 8.7-1.3 4.7.4 6 1 8.3 3.6 1.5 1.8 3.7 4.1 4.8 5.3 2.4 2.5 2.6 4.7.5 6.4-1.1.9-1.3 3.2-1.1 10 .2 4.9.7 9.3 1 9.9.4.6 1.3 4.7 2.1 9.2s2.2 9.1 3 10.3c.9 1.2 2.7 3.6 4 5.5 1.4 1.8 3.6 4.4 5 5.7s2.5 3.1 2.5 4.1c0 1.1 1.2 2.2 3.3 3 1.7.6 10 3.9 18.2 7.3 19 7.7 67.3 24.2 69.9 23.8 1.2-.2 2.4-1.7 3.3-4.3 1.8-5.2 2.9-6.3 4.7-4.5 1.2 1.3 1.3 2.1.1 5.3-1.4 4.2-1.5 4.1 6.1 6.7 7.1 2.5 6.9 2.5 8.2-.4 1-2.2 0-3.9-11.6-19.2l-12.7-16.8-.3-8.2c-.3-6.1.2-10.3 1.8-16.5 3.9-14.7 4.7-21.4 3.4-29.5-1.3-9.1 9.4-22.8 29.3-37.4 3.1-2.2 3.2-2.5 1.7-4.2-1.6-1.6-1.5-1.8 1-2.8 1.5-.5 3.8-1.3 5.1-1.6 2.8-.7 3.1-2.4 1.4-7.5-1.4-4.1-3.5-6.7-2.4-2.9.4 1.4 1 3.2 1.2 4 .3.8-.6-.2-2-2.3-3.3-5.2-3.4-5.2-5.1-1.9-.8 1.6-1.2 3.2-.9 3.6.4.3.1.6-.5.6-.7 0-1.2-.5-1.2-1 0-.6-.5-1-1-1-.7 0-.7.6 0 2 .9 1.7.8 2-1 2-1.3 0-2-.7-2-1.9 0-1.1-.3-2.7-.6-3.6-.6-1.4-.9-1.3-3 .6l-2.4 2.2v-2.7c0-1.5-.4-2.5-.8-2.2-1.6 1-3.2-18.6-2.1-25.5 1.2-8 5.2-20.2 9.6-29.8 5.3-11.3 18-22.4 30.5-26.8 9.2-3.2 22.1.2 33.6 8.9 4.3 3.2 5.6 3.7 6.3 2.7.5-.8.9-1.7.9-2.1 0-.3 1.6-3.5 3.6-7C290.9 21.5 302 .9 302 .4c0-.2-67.9-.4-151-.4H0zm135.1 4.6c2 1.6 2.2 2.2 1.1 3.3-1.7 1.7-4.6-.1-5-3.1-.4-2.6.9-2.7 3.9-.2M61.4 29.1c-.9 1.5-2.3 1-3.4-1.1-1-1.8-.9-1.9 1.4-.8 1.4.6 2.3 1.5 2 1.9m26.4 51.6c-1 .2-2.6.2-3.5 0-1-.3-.2-.5 1.7-.5s2.7.2 1.8.5m45.9 150.9c-.3.3-1.2.4-1.9.1-.8-.3-.5-.6.6-.6 1.1-.1 1.7.2 1.3.5M308 3.3c0 6.7 2.3 15.3 6.1 22.9 2.1 4.3 3.9 8.7 3.9 9.8 0 2.3-2.9 4.4-8.7 6.1-5 1.4-4.9 1.2-5.8 18.9-.6 12.4-1.3 17-2.4 17-.4 0-1.6-1.5-2.6-3.3l-2-3.2-.5 7.6c-.5 6.1-1.1 8.5-3.3 11.8-2.4 3.6-2.7 4.8-2.1 9 .5 3.7.3 4.9-.8 5.4-.8.3-2.1 2.7-2.8 5.4-1.3 4.3-1.5 4.5-2 2.3-.6-2.3-.8-2.1-2.1 2l-1.4 4.5-.5-6.5-.6-6.5-2.4 5.2c-2.3 5.2-4 6.8-4 3.9 0-2.5-1.6-2.7-4.3-.6-2.8 2.2-4.2 2.6-3.1.9.9-1.6-2.9.6-4.5 2.5-1.1 1.3-.6 1.6 3.1 2.5 7.7 1.9 11.3 4.3 11.6 7.6.2 1.9 1.7 4.3 4.1 6.5 2.1 2 4.6 5 5.6 6.7s3.3 3.8 5 4.6c4.9 2.3 10.4 7.5 12.7 12.1 2.1 4.1 2.9 11.7 1.8 17.9l-.5 2.9 16.3 5.4c17 5.6 28.5 8.8 36.2 9.9 7.3 1.1 11.2 2.6 17 6.6 3.1 2.2 5.9 3.9 6.3 3.9.6 0 19.3-11.3 33.9-20.6 4.3-2.7 12.2-7.7 17.6-11.1s13.6-8.9 18.2-12.2c4.7-3.4 9.2-6.1 10.1-6.1s2.4-1.1 3.2-2.3c.9-1.3 2.9-2.9 4.5-3.6 2.6-1.1 3.6-.9 8.7 1.6 8.9 4.3 9.5 5.4 10.5 22.9.6 8.2 1.7 18 2.5 21.9 2.6 12.2 1.7 12.5-6.1 1.9-6.7-9.1-11.8-19.7-13.3-27.8-.6-3.3-1.2-6.1-1.4-6.3s-2.1 1.3-4.1 3.2c-2.1 1.9-4.3 3.5-5 3.5s-7.8 4.2-15.7 9.3c-13.5 8.7-35.8 22.7-49.4 31l-5.9 3.7-.1 5.4q-.15 5.4-2.1 8.1c-2.7 4-3.1 4.6-4.4 8.2-1.3 3.5-5.2 5.6-9.6 5.1-2.7-.3-7.1-5.1-9.3-10.3-.8-1.8-1-1.8-1.6-.4-.4 1 .4 3.8 1.9 6.8 3 5.9 3.2 8.3 1 10.2-1.5 1.2-2.3.7-6.8-4.2l-5.1-5.6-5 2.8c-3 1.6-5.2 3.6-5.5 5-.4 1.6-6.3 5.3-24.7 15.3-13.3 7.2-24.4 13.4-24.8 13.7-.6.7 4 13.8 5.3 15.1 2.1 2.1 74.6 21.6 115.1 30.9 8.4 1.9 14.5 3.9 14.8 4.6 1.6 4.2-8.7 7.9-18.9 6.8-16.1-1.8-44.7-8.3-84.2-19.1-10.9-3-20-5.3-20.2-5.2-.7.7 4.8 12.5 8.1 17.6 2.1 3 6.2 10.3 9.2 16.1 3.1 5.8 6.9 12.7 8.4 15.2 1.6 2.5 2.9 5.1 2.9 5.8s.9 2.6 2.1 4.2c2 2.8 2 3.2.5 6.8-.9 2.4-1.3 5.3-.9 7.5l.6 3.6H512V0H308zm90.4 29.3c2.5.9 1.9 2.4-.9 2.4-2.4 0-3.2-1-1.8-2.3.8-.8.8-.8 2.7-.1M345 43.4c0 .3-.4.8-1 1.1-.5.3-1 .1-1-.4 0-.6.5-1.1 1-1.1.6 0 1 .2 1 .4m58.5 74.6c.4.6.1 1.8-.6 2.6-1.1 1.3-1.4 1.3-2.7 0-.8-.8-1.1-1.9-.8-2.5.9-1.4 3.3-1.4 4.1-.1m-3.9 7.7c-1 1-1.9-.5-1-1.8.6-1.1.8-1.1 1.2 0 .2.7.1 1.5-.2 1.8m11.4 3.4c1 1.8.9 2-.7 1.7-1-.2-1.9-1.1-2.1-2.1-.5-2.4 1.5-2.1 2.8.4M371.5 145c.8 1.3-.4 5-1.6 5-1.3 0-2.2-2.7-1.5-4.5.6-1.7 2.2-2 3.1-.5m49.5 62.5c1.1 1.3.8 1.5-1.9 1.5-3 0-3.9-.9-2.4-2.3 1.1-1.1 3-.8 4.3.8M357.5 373c-1.9 3.6-5.5 5.9-5.5 3.5 0-1.8 4.3-6.5 6-6.5.6 0 .5 1.1-.5 3"/><path d="M229.1 113.1c-2.6 7.8-2.6 8.2.2 7.3 2.8-.8 2.4-.4 4-4.5 1.3-3 1.3-3.7-.3-6.2l-1.8-2.9zM214 194.7c-1.2 1.5-3.7 5.5-5.6 8.8l-3.5 5.9 1.8 3.3c1 1.8 2 3.3 2.4 3.3 1.3 0 8.5-22.8 7.5-23.8-.2-.1-1.4 1-2.6 2.5m64.5 5.4c.3 4.1 1.7 12.3 3.1 18.3 2.8 12.8 2.8 12.7 1 12-.8-.3-2.4-.1-3.5.5-2.6 1.4-3.9 9.2-2.1 12.6.7 1.3 1 3 .7 3.8-.3.9.8 3.1 2.7 5.3l3.2 3.7 21.9-12.3c12.1-6.7 23.3-13.1 24.8-14.2s3.4-1.8 4.1-1.5 3.2-.8 5.5-2.3c2.3-1.6 4.7-3 5.4-3.3 1.1-.3-1.2-7.3-3.6-10.4-1-1.4-6.8-2.7-25.2-5.3-19.3-2.8-24.1-4.3-28.9-9.1-2.2-2.2-5.3-4.3-6.8-4.6l-2.9-.6zm13.5 33.8c0 1.1-.5 2.3-1.1 2.7-1.5.9-3.3-1.2-2.6-3 .9-2.3 3.7-2 3.7.3M48.5 202c-.7 1.2.2 3 1.6 3 1.2 0 1.2-2.7 0-3.5-.5-.3-1.2-.1-1.6.5m305.7 14.5c1.3 2.8 2.3 3 5.8 1.1l2.4-1.4-3.9-1.1c-5.5-1.5-5.6-1.4-4.3 1.4M85.5 226.9c-.6.5-2.3 1.1-4 1.3l-3 .3.1 22c.1 20.7.3 22.4 2.7 29.8l2.5 7.9-3.6-.5c-2-.3-4.8-.8-6.2-1.2-2-.5-2.8-.1-4.2 2.2-1.6 2.8-1.6 3 .7 6 1.6 1.9 3.7 3.3 6 3.7 3.4.7 4.7 2.8 2.4 4.2-.6.3-8.8 2.2-18.3 4.1-9.4 1.8-22.5 4.7-29.1 6.3-14.5 3.6-28.3 6-30.1 5.3-1.2-.4-1.4 5.2-1.4 32.6V384h11.7c11.6 0 11.7 0 24.6-5 7.1-2.8 14.6-5.9 16.6-7 2-1 5.5-2.4 7.9-3.1 4.6-1.3 4.7-1.6 1.3-8.9-1.5-3.2-2-3.5-6.4-3.8-5.4-.4-6.2-1.4-5-6.2.7-2.5 1.7-3.5 4.8-4.6 5.3-1.8 7.1-1.7 9.5.3 2.5 2.2 2.5 2.5-.5 6.2-2.5 2.9-2.6 3.1-.9 6.3.9 1.8 1.8 3.4 1.9 3.6s1.6-1.1 3.3-2.8c2.8-2.8 6.2-4 6.2-2.2 0 .4-1.8 2.5-4 4.7-2.2 2.1-3.8 4-3.6 4.3.6.5 16.1-6.2 38.6-16.8 25.4-11.8 84.4-42.2 85.4-43.9.8-1.2 5.9-24.5 6-27 .1-2-.7-2.7-4.9-4.2-6.9-2.4-7-2.4-8.8 2.1-1.6 4.3-2.7 4.9-4.6 2.6-.9-1.1-.8-2.3.4-5.2 1.3-3.1 1.3-4 .3-5-.7-.7-11.2-4.7-23.3-8.8s-31-10.9-41.9-15c-11-4.2-20.8-7.6-21.7-7.6-1 0-3.1-1.1-4.6-2.4-2.6-2.2-2.7-2.7-1.6-5.5 1.1-3.1.6-4-1.2-2.2"/><path d="M57.8 289.3c-2.3 1.8-2.7 7.7-.6 9.1 2.4 1.5 3.4.1 4.2-5.7.8-5-.2-5.9-3.6-3.4m108.7 52.3c-22.4 11.6-45 22.1-71.5 33.1-11.3 4.7-20.7 8.7-20.9 8.9s21.6.4 48.6.4h49.1l1-3.8c9.9-36.9 12.3-46.4 12-47.1-.2-.5-8.4 3.4-18.3 8.5"/></svg>