<svg xmlns="http://www.w3.org/2000/svg" width="682.667" height="512" version="1.0" viewBox="0 0 512 384"><path d="M215.5 20.1c-8.1 1.9-12.7 4-12.2 5.8 0 .3-.4 1.6-1.1 2.7-.9 1.8-.7 4.9 1.2 16.1 1.2 7.7 2.6 14.6 3.1 15.3.5.8 1 2.5 1.1 3.9.2 1.3 1.2 3.4 2.4 4.5 1.9 2 2.2 2 8 .5l6-1.6v2.6c0 1.5-1.8 6-4 10.1-5.7 10.9-5 15.9 2.5 16.3 3.6.3 3.8.5 6.5 7.2 1.5 3.9 3.8 9 5 11.5 2.3 4.4 6 14.6 6 16.2 0 .4-2.2.8-5 .8-5.6 0-6 .8-3 5l2 2.8-5.5 3.2c-6.5 3.7-12.2 10-13.5 15-.5 1.9-1.6 7.9-2.5 13.2l-1.7 9.8h-2.9c-1.6 0-4.5.7-6.4 1.4-3 1.3-3.5 2-3.5 4.8 0 1.8 1 5.2 2.2 7.5l2.3 4.2-3.4 10.3c-3.6 11.1-10.7 25.5-22 44.1-7.8 13-8.2 14.7-5.5 24.6 1.5 5.3 1.5 6.3.1 12-1.6 6.3-1.4 7.9 1.5 14.1.7 1.4 2 3.2 2.9 4.2.9.9 1.9 4.2 2.3 8 1.4 12.3 5.2 24.3 9.3 28.9 1.2 1.4 1.2 2.2-.1 6-3.3 10-9.7 32.2-9.3 32.5.2.2 36 .3 79.4.2l79.1-.3-5.9-15.5c-3.3-8.5-6.8-17.8-7.9-20.5-1-2.8-4.3-11.6-7.4-19.7s-6.7-19.1-8.1-24.5c-4.6-17.6-8.8-28-13.6-34.1-1.4-1.9-1.6-2.7-.7-4.2.9-1.4.9-2.5 0-4.4-.6-1.4-.8-2.7-.4-3 .4-.2.2-6.9-.4-14.8-1.1-15.4-.5-20.8 3.7-33.5 2.3-7 4-7.9 6.4-3.3 1.2 2.2 1.5 6.6 1.5 19.3 0 49.2 8.4 84.7 26.8 113.2 5.8 9.1 22.8 30.2 25.3 31.5 1.6.9 1.9 2.2 1.9 7.5 0 3.7.4 6.5 1 6.5s1-2.7 1-6c0-5 .3-5.8 1.6-5.3 2.2.8 6.3-3.4 7-7.4.9-4.9-1.2-15.9-5.5-29.1-2.1-6.4-3.3-11.6-2.8-11.9 1.4-.9.1-19.1-1.7-24.2-2.2-5.9-2-7.6.9-11.9 1.4-2 2.5-4.2 2.5-4.8s-5.6-12.6-12.5-26.7c-10.6-21.8-12.8-27.1-14.5-35.4-3.6-16.8-3.6-16.5-.1-22.9 1.7-3.2 3.1-6.3 3.1-6.9 0-1.5-4.3-3.5-7.3-3.5s-4.7-1.8-4.7-4.8c0-1.3-.4-3.1-1-4.1-.5-1-1.3-5.9-1.8-11-.7-7.1-1.5-9.9-3.5-12.9-2.4-3.5-2.5-4-1.5-10.1 1.1-6.3 1.1-6.3 2.5-3.5l1.3 2.9-.4-3.1c-.3-1.8-.8-4.3-1.2-5.8-.3-1.5-.2-2.6.4-2.6s.5-1.5-.3-3.8c-.7-2-1.6-6-2-8.7l-.7-5 2.2 3.4c1.1 1.8 2.3 3.1 2.6 2.9.2-.3-1.2-5.4-3.2-11.4-2.4-7.3-3.5-12.5-3.4-15.7.5-12.5.4-18.5-.3-21.3l-.8-3.1 4.8.4c4.5.5 5 .3 6.1-2.1.7-1.5 1.2-3.3 1.2-4.1s.4-1.5.9-1.5c1 0 2.7-3.9 2.3-5.4-.2-.4.2-1.4.8-2.2.7-.7 1.3-2.3 1.5-3.6.3-1.9 2.2-7.8 5.2-15.8 1.2-3 .9-5.1-.6-6-1.2-.7-1.3-.9-.2-1 3.2 0-3.4-3.9-9.7-5.6-8.1-2.3-29.2-2.6-36-.6-4.3 1.3-7.5 3.7-8.4 6.3-.3 1-1.1.8-3.3-.9-2.4-1.9-4-2.2-11.5-2.2-6.6 0-9.1.4-10 1.5-.7.8-1.7 1.5-2.3 1.5s-.7-.3-.4-.7c1.5-1.4-4-5.4-10.2-7.4-9.7-3-18.9-3.3-29.6-.8m86.3 163.7c.6 3.2.6 5.5 0 5.8-1.4.9-1.6.4-2.3-6.6-.9-7.9.8-7.3 2.3.8m-.4 11.3c-.8 1.3-2.4.1-2.4-1.8 0-1.3.3-1.3 1.5-.3.8.7 1.2 1.6.9 2.1"/><path d="M363 377.4c0 .2.8 1 1.8 1.7 1.5 1.3 1.6 1.2.3-.4s-2.1-2.1-2.1-1.3"/></svg>