<svg xmlns="http://www.w3.org/2000/svg" width="682.667" height="512" version="1.0" viewBox="0 0 512 384"><path d="M0 118c0 84.8.3 117.9 1.1 117.8.6-.2 1.6.5 2.2 1.5 1 1.4.9 2-.3 2.7-.8.5-1.8.6-2.2.4-.4-.3-.8 31.9-.8 71.5V384h9.4c8.9 0 9.5-.1 9.1-2-.2-1.1 0-2 .6-2 .5 0 .8-.3.8-.8-.5-3 .2-5.1 1.6-4.6.8.4 1.5.1 1.5-.5s.7-.8 1.5-.5c.8.4 1.5.1 1.5-.6 0-.6.5-.8 1-.5.6.3 1 .1 1-.4 0-1.9 5.5-1.2 7.8.9 2.1 1.9 2.1 2.3.7 5-.8 1.6-1.9 3.2-2.5 3.5-.5.3-1 1-1 1.6 0 1.2 10.6 1.2 13.1-.1 1.3-.7 1.9-.7 1.9 0 0 .6 3.2 1 8.2 1h8.1l16.6-8.7c9.1-4.7 19.5-10.2 23.1-12.1s9.4-5 13-6.9c8.9-4.8 39.2-21.8 46.1-25.9 4.9-2.9 5.8-4 6.7-7.7 2.2-8.7 8.3-37.9 8-38.2-.2-.2-1.5-.6-2.9-1-2.3-.6-2.7-.3-3.4 2.2-.9 3.9-2.3 5.3-5.3 5.3-2.5 0-2.5-.1-1.8-6.4l.6-6.4-6.2-2.1c-3.5-1.1-11.9-3.6-18.8-5.6-14.5-4.2-72.3-23.1-76-24.9-1.9-1-2.4-1.9-2.3-4.2.5-7 4.8-9.8 10.5-6.9 10.7 5.5 90.2 31.5 96.3 31.5.8 0 1.9-1.7 2.6-4 1.5-4.8 3.9-7.3 6.4-6.4 1.5.6 1.6 1.5 1.1 6-.6 5.1-.6 5.2 2.6 6.3 1.7.6 3.2 1.1 3.4 1.1s1.5-2.3 2.9-5.1c3.1-6 3.7-4.7-9.5-20.4-5-6.1-9.9-12.4-10.8-14-2.3-4.4-2.7-17.5-.9-27 .9-4.4 1.6-10.3 1.6-13 0-2.8.1-5.9.1-7 .1-1.1-.4-4.2-1.1-6.8-1.4-5.2-.4-11.4 2.9-18 2-4.3 20.8-22.8 26.1-25.7 3.8-2.2 4-2.5 2.5-4.2-1.6-1.6-1.5-1.8 1-2.8 1.5-.5 4.6-1.5 6.9-2.1s4.9-1.6 5.7-2.2c2.4-1.9 4.3-6.4 3.6-8.4-.7-1.7-.9-1.6-2.7.6-1.9 2.3-2 2.3-3.4.5-.8-1-1.5-2.3-1.5-2.8s-.2-.7-.4-.5c-.3.3-.1 2.2.4 4.4l.9 4-2-2.5c-1.8-2.3-2-2.4-3-.7-.6.9-1.4 1.5-2 1.2-.5-.4-.9.4-.9 1.7-.1 3.6-1.6.2-2.4-5.2-.4-2.5-1.1-5.2-1.6-6-1.7-2.7-2.3-.1-1.1 4.6.7 2.5 1 4.8.7 5.1-.2.2-2-1.7-4-4.3-3.8-5-4.4-4.4-2.1 2.1l1.4 4-2.5-3c-2.3-2.8-2.4-2.9-2.4-.8 0 3.8-1.7 2.6-2.4-1.7-.6-4.1-2.6-4.7-2.6-.8 0 4.6-1.6.2-2.7-7.5-1.7-11.2-1.6-23.2.2-30 2.1-8.2 9.5-23.4 14.4-29.5 5-6.2 14.2-13.3 22.6-17.3 4.9-2.4 7.3-2.9 13.2-2.9 9.5 0 16.2 2.6 24.5 9.4l6.5 5.4 4.4-6.6c5-7.8 19-26.4 22.7-30.5l2.6-2.7H0zm87.6-99.6c2.2 1.7 1.1 3.5-1.3 2-1.9-1.2-2.9-3.4-1.6-3.4.5 0 1.8.6 2.9 1.4M41 89.5c-.7.8-2.2 1.5-3.4 1.4-1.8 0-1.6-.3.9-1.4 3.9-1.8 4-1.8 2.5 0"/><path d="M298.6 3.1c-1.5 7.7.6 16.2 6.4 26.4 4.8 8.4 4 10.7-4.7 12.9-4.8 1.2-4.8 1.3-5.5 6.2-2.7 19.8-4.3 29.6-5 30.6-.6 1-1.7.3-4.2-2.3-3.8-4-10.5-9.4-11-8.8-.2.2.1 3.7.7 7.6.6 4.6.6 9 0 12-.5 2.7-.6 5.9-.2 7.3s.7 5.2.8 8.5c.1 4.6-.2 5.6-1.1 4.7s-1.7.1-3.4 4.5l-2.3 5.8v-7.8c-.1-4.3-.5-7.6-.9-7.3-.5.3-1.7 3.6-2.7 7.3-2.3 8.6-3.4 10.9-3.5 6.8-.1-5.7-1.6-6.2-4.1-1.4-1.7 3.2-2.4 3.9-2.7 2.6-.3-1.4-.7-1.6-1.8-.6-1.8 1.5-1.8.5.2-3.3.9-1.6 1.1-2.7.5-2.4-.6.4-1.1.2-1.1-.5s-1.2-.1-2.7 1.3c-1.6 1.4-4 3.3-5.5 4.3-1.5.9-2.6 2.1-2.3 2.5.3.5 4.3 2 9 3.5s8.7 3.1 9 3.5 0 2.2-.6 3.9c-1.1 3.1-.9 3.4 3 6.8 2.3 1.9 5.1 5.3 6.1 7.4 1.3 2.4 3.5 4.6 5.8 5.8 7.8 4 13.9 12.1 14.9 20 .2 2-.3 6.3-1.1 9.5-.9 3.3-1.4 6.1-1.2 6.3 1.8 1.8 38 17.3 47.9 20.4 10.8 3.5 13.5 4.8 17.6 8.5l4.9 4.4 23.9-15.9c26.4-17.6 37.2-25.2 43.5-30.5 2.3-2 4.9-3.6 5.8-3.6.8 0 3-1.5 4.8-3.4 4.6-5 6.2-5.1 13.2-1.6 7.7 3.9 9 6.6 9 18.3 0 15-2.5 37.1-4 36.2s-10.7-30.4-11.5-36.8c-.7-5.6-2-7.2-3.1-4.2-.4.9-3.4 3.2-6.8 5.1-3.3 2-13.3 8.6-22.1 14.7-29.2 20.2-40.4 27.7-41.3 27.7-2.2 0-3.4 3.3-3.7 9.7-.2 6.4-2.4 17.5-3.6 18.7-.3.3-2.7 1.2-5.4 2l-4.8 1.5-4.9-5c-2.7-2.8-4.8-5.9-4.8-7.1 0-1.6-.3-1.9-1.1-1.1s-.3 2.7 2.1 6.9c3.4 6.3 3.4 9.6-.1 11.5-1.9.9-2.7.6-6.3-3-2.3-2.3-4.5-4.1-4.9-4.1-.7 0-47.8 27.8-51.1 30.2-1.7 1.3-1.8 1.8-.7 5.1 1 2.9 1.9 3.8 4.9 4.7 18.2 5.1 80 19.8 101.4 24 14.7 2.9 27.2 5.6 27.9 6.1 2.1 1.3-1.6 5.7-5.8 6.8-11.8 3.3-46.5-2.3-107.2-17.3-7.9-2-14.6-3.5-14.7-3.3-1 1 15.6 43.6 22.9 58.7 1.7 3.6 3.2 6.9 3.2 7.5.1.5.5 2 .9 3.2l.7 2.3H512l-.2-192.3c-.2-105.7-.4-175.9-.5-156-.3 39-.4 39.3-5.3 34.1-2.1-2.3-2.9-9.8-.9-9.8 2.8 0-.7-2-4.6-2.6-2.5-.3-4.5-.9-4.5-1.3s.7-2.8 1.6-5.3c.8-2.6 1.4-6.1 1.2-8-.2-2.8-.8-3.5-3.5-4.3-3.5-1-4.1-2.3-2.1-4.3 1-1 .1-2.4-4.5-6.9-7.3-7.1-8.9-10.1-9.5-18.5l-.5-6.8h-3.3c-1.8 0-3.6-.5-3.9-1-.4-.7-30.3-1-86.4-1h-85.8zM361 45c-1.9 1.3-3 1.3-3 0 0-.6 1-1 2.3-1 1.8 0 1.9.2.7 1m1 84c0 1.1-.4 2-.9 2-1.3 0-3.2-2.6-2.4-3.3 1.3-1.4 3.3-.6 3.3 1.3m0 6c0 .5-.4 1-1 1-.5 0-1-.5-1-1 0-.6.5-1 1-1 .6 0 1 .4 1 1m5.8 2.8c.2.7-.2 1-1.2.6-.9-.3-1.6-1.1-1.6-1.6 0-1.3 2.3-.5 2.8 1M327.5 152c0 .7-.6 1.5-1.2 1.7-.8.3-1.3-.4-1.3-1.7s.5-2 1.3-1.8c.6.3 1.2 1.1 1.2 1.8M498 213c1.2.8 1.1 1-.7 1-1.3 0-2.3-.5-2.3-1 0-1.3 1.1-1.3 3 0m-93.2 66.6c7.1 1.6 13.2 3.5 13.2 4.3 0 2-5.3 2-11 .1-3.2-1.1-6.6-2-7.5-2-.8 0-1.5-.5-1.5-1 0-.6.9-1 2-1 1.8 0 1.6-.4-1.2-3.1l-3.3-3.1 3.3 2.6c1.9 1.4 4.6 2.9 6 3.2"/><path d="M259.2 191.9c.4 1.3 1.8 1.6 1.9.4 0-.4-.5-.9-1.1-1.2-.7-.2-1.1.2-.8.8m1.1 13.3c.5 3.5 2.4 11.6 4.3 18s3.4 11.9 3.4 12.2c0 .2-1.3.7-2.9 1.1-4.1.9-5.4 2.8-5.4 8.3.1 8.9 1.8 13.2 8.6 20.9l2 2.2 6.6-3.6c3.6-2 8.4-4.8 10.6-6.3 2.2-1.4 10.7-6.6 18.8-11.4s15-9.3 15.3-10.1c.3-.7-.4-3.2-1.6-5.4-1.5-3.1-1.8-4.6-1-6 1.1-2.2 1-2.3-23.5-8.6-18.1-4.7-22-6.5-27.7-12.5-2.5-2.8-5.5-5-6.5-5-1.9 0-1.9.4-1 6.2m-68.1 5.1c-2.2 4.9-2.3 6.5-.4 5.3.9-.6 3.6-9.6 3-10.1-.2-.2-1.3 2-2.6 4.8m139.9 18.9c2.3 4.5 2.9 4.8 5.6 3.1l2.6-1.7-3.9-1.7c-5.2-2.3-5.7-2.3-4.3.3M160 357.1c-6.2 3.6-24.7 13.8-35.2 19.3-7.1 3.7-12.8 7-12.8 7.2s9.6.4 21.4.4h21.4l2.2-9.2c1.3-5.1 2.9-11.3 3.7-13.6 1.6-4.8 1.5-5.4-.7-4.1"/></svg>