<svg xmlns="http://www.w3.org/2000/svg" width="682.667" height="512" version="1.0" viewBox="0 0 512 384"><path d="M0 192v192h123.6l4.9-3.2c2.6-1.8 7.2-4.7 10-6.5 10.1-6.3 10.8-7.3 14.3-22.3 1.8-7.4 4.8-21.2 6.7-30.5 1.9-9.4 4-18.8 4.6-21s1.3-5 1.6-6.3c.3-1.2.9-2.2 1.4-2.2s.9-.7.9-1.5-.2-1.5-.4-1.5c-1.5 0-46.5-15.9-65.1-23-12.6-4.8-24.6-9.1-26.5-9.5s-4.3-1.6-5.2-2.6c-3.6-3.7-1-14.1 3-12 .9.4 3.5 1.1 5.6 1.4 3.2.5 4.4.2 6.7-1.8 2.4-2 3.4-2.2 6-1.5 1.8.5 3.9 1.6 4.8 2.4.9.7 6.6 3.5 12.6 6.1 6.1 2.6 13.3 5.7 16 7 10.6 4.7 44.1 17.4 47 17.7 2.8.3 3 .1 2.7-2.6-.2-2 .5-3.7 2.1-5.5 3.6-3.8 4.2-6.7 1.8-8.1-1.1-.6-3.2-2.2-4.5-3.5l-2.5-2.5 2.5-6.2c1.9-4.7 2.3-7.2 1.8-9.8-.4-1.9-.9-4.2-1-5-.2-.8-.9-6-1.5-11.5-.7-5.5-1.5-10.2-1.9-10.5-1.8-1.4-4-5.8-4-8 0-1.4-1.1-3.8-2.5-5.4-3.4-3.9-4-6.5-4-16.1 0-9.4 1.5-13.7 8.2-23.4 4.6-6.8 6.7-9 11.7-12.9 1.6-1.2 3.6-3.6 4.5-5.4 1.3-2.5 2.6-3.4 7.1-4.6 3-.8 6.4-1.5 7.4-1.5 3.4-.3 2.8-2.2-1.8-5.5-5.4-3.9-6.6-4-6.6-.5 0 4.6-1.3 5.6-3.5 2.6l-2-2.6-1.1 3.9-1.1 3.9-.8-3.8c-.4-2.1-1.4-4.1-2.2-4.4s-2-2-2.8-3.7l-1.3-3.1-.1 3.7c-.1 4.9-1.7 5.7-2.5 1.2-.6-2.9-1-3.3-2.1-2.4-1.9 1.6-4.5.5-4.5-1.8 0-1.1-.6-2.4-1.2-3-1.8-1.5-.5-30.1 1.8-37.9 4.3-15.2 13.8-27.3 28.2-36 7.8-4.7 12.7-6.4 19.7-6.8 9.8-.6 17 2.1 27.1 10.2l4.1 3.3 3-3.3c1.7-1.7 7.6-7 13.2-11.6 5.5-4.6 9.8-8.8 9.5-9.2-.2-.4 1.3-2 3.3-3.6 2.1-1.5 5-4 6.5-5.5 1.6-1.4 4.1-2.9 5.7-3.3 2.7-.6 2.9-1 3.3-6.1l.3-5.4H0zM258.8 14.6c.2 4.5.1 4.8-1.3 3-1.9-2.4-2.1-9-.2-8.4.7.3 1.3 2.5 1.5 5.4M46.5 158.1c0 .7-.8 1.5-1.7 1.7-1.8.3-2.5-1.8-1.1-3.2 1-1 2.8-.1 2.8 1.5m107.5 25c0 2-1.5 2.6-2.5.9-.9-1.5.3-4.3 1.5-3.5.5.3 1 1.5 1 2.6m-78 95.8c1.4 2.7 1.3 3.1-1 3.1-1.5 0-2-.7-2-2.5 0-3 1.5-3.3 3-.6M511.4 17.5c0 9.9.2 13.8.3 8.7.2-5.1.2-13.2 0-18-.1-4.8-.3-.6-.3 9.3m-210 15.8c-.3 1.4-.4 3.3-.2 4.3.3 1.7.4 1.7 2.1 0 2-2 1.9-5.7 0-6.3-.7-.3-1.5.7-1.9 2m209.9 22.2c0 2.2.2 3 .4 1.7.2-1.2.2-3 0-4-.3-.9-.5.1-.4 2.3m-.3 87.1v82.7l-3.7-.8c-2.1-.4-6.8-1-10.4-1.4-3.6-.3-7.3-1.2-8.1-1.9-1.4-1.1-2.1-.9-4.4 1.3-2.4 2.2-3.5 2.6-6.4 2-5.3-.9-12.6-.6-22 1.1l-8.4 1.4-2.4-3c-1.3-1.6-3.3-3-4.4-3-1.2 0-4.3-1.4-7.1-3.2-4-2.6-5.3-3-7.5-2.2-1.9.7-2.8 1.8-3 3.7-.2 1.5-.9 2.7-1.7 2.7s-1.7 1-2 2.1c-.5 1.6-.9 1.8-1.5.9s-1-.7-1.5.9c-.3 1.1-1.3 2.1-2 2.1-.8 0-1.7 1.5-2.1 3.5-.9 5.1-2.1 5.2-3.4.3-1.8-6.9-3.2-11.2-3.9-12-.4-.4-3.4-.2-6.8.4-6 1.1-6.4 1-10-1.5-2.1-1.4-4.4-2.7-5.1-2.9-1.3-.3-1.8 0-17.8 13.8l-11.1 9.6 1.8 7.1c1.1 3.9 1.9 9.9 1.9 13.3v6.2l-4 1.6c-5 2-7.4 2-9 .1-1.7-2.1-3-1.9-3 .4 0 2-3.8 5.6-7.1 6.6-1.1.4-3.8-.5-6.8-2.1l-4.8-2.8-4.7 3.8c-2.5 2.1-4.6 4.2-4.6 4.7 0 .4 2.8.9 6.3 1.1 5.6.3 6 .4 3.9 1.6-1.8 1-3.1 1-6.5.1-2.3-.7-4.7-1.3-5.3-1.5-.6-.1-7.8 5.1-16.1 11.5-8.2 6.4-16.1 12.4-17.4 13.3s-2.1 1.9-1.7 2.3c.3.4 6.4 2.5 13.5 4.7 36.2 11.2 65.4 19.1 85.3 22.9 6.4 1.2 7.4 2 6.6 4.7-.9 2.8-9.4 6.2-15.7 6.2-9.3 0-36.5-6.2-77.9-17.9-9.6-2.7-17.6-4.8-17.8-4.6-1.2 1 6 34.6 9.2 43.3.8 2 2.4 7 3.7 10.9l2.3 7.3H512V222c0-89.1-.2-162-.5-162s-.5 37.2-.5 82.6"/><path d="M272 96.8c0 8-2.1 26.6-3.3 28.7-1 1.9-1.1 1.9-1.7-.4-.5-2.2-.7-2-2 2-2 6.6-2.5 6.8-3 1.9l-.5-4.5-4.7 4.4c-4.8 4.4-5.7 4.6-3.8 1 .8-1.3.7-1.9 0-1.9-1.1 0-3 4.1-3 6.4 0 .8 1.3 1.9 2.9 2.6 1.6.6 3.7 2 4.6 3 1.5 1.6 1.4 2.1-.7 6.4l-2.2 4.6 4.4 4.5c4 4.1 10.8 7.5 15 7.5.9 0 3.4 1.3 5.6 3 2.1 1.6 4.4 3 4.9 3 1.9 0 7.3 7.3 8 10.7.3 1.8 1.7 5 3.1 7 1.3 2 2.4 4.1 2.4 4.8 0 1.6 8.8 9.1 13.6 11.7 2.1 1.1 7.2 4.5 11.3 7.5 4.1 3.1 10.7 7.3 14.6 9.4 4 2.2 8 4.8 9 5.9s2.3 2 2.9 2c.6-.1 4.6-3.4 8.9-7.4l7.9-7.4-2.7-4.1c-2.7-3.9-8.5-9.1-10.3-9.1-.9 0-2.3-1.4-10.4-10-4-4.4-8.1-7-10.7-7-1.1 0-4.1-.9-6.8-2.1-3.3-1.4-7.7-2.2-14.3-2.5-9.5-.5-13.4-1.6-15.7-4.4-1.5-1.8-1.7-5.2-.3-6.6.6-.6 1.2-4.8 1.4-9.5.2-7.2.8-9.5 3.9-16.1 3.4-7.3 3.4-7.7 1.6-8.3-3.4-1.1-5.2-5.1-4.6-9.8l.6-4.2-3.7.3c-2.1.2-4.5-.3-5.5-1-1.7-1.3-1.8-1.8-.6-5.6 1-3.4 1-5-.1-8.3-.8-2.3-2.1-4.4-2.9-4.7-.9-.3-3.6-1.9-6.1-3.7-7.3-5.1-7-5.1-7 .3m-34.3 27.8c-.4.4-.7 1.7-.7 2.8.1 1.9.1 2 1.1.3 1.1-1.9.8-4.3-.4-3.1m1.7 4.8c-1.6 2.3-1.6 2.4 2.5 3.6 2.4.7 3.1.6 3.1-.6 0-.8-.5-1.4-1-1.4-.7 0-.7-.6 0-1.9.8-1.7.7-2-1.1-1.8-1.2.1-2.7 1-3.5 2.1m12.6 75c0 3.4 3.3 23.8 5.5 34.6 1.5 6.7 2.5 12.3 2.3 12.4-.2 0-1.3.7-2.5 1.3-1.3.7-3.1 1.3-4.1 1.3-1.6 0-2 1-2.6 5.5-.4 3.4-.2 6.4.5 7.6.6 1.1.8 2.7.5 3.5-.3.9 1.1 3.6 3.2 6.4 2 2.7 4.5 6 5.5 7.4 1.7 2.5 4.7 3.6 4.7 1.8 0-.5 1.7-1.8 3.8-2.9 2-1.2 5.3-3.8 7.1-5.7 1.9-2 4-3.6 4.5-3.7.6 0 3.8-2 7.1-4.5 3.3-2.4 8.5-6.1 11.5-8.2 3-2 6.9-4.9 8.5-6.5 1.7-1.5 3.8-3 4.8-3.3 2-.6 2-3.6-.1-10.3-1-3.1-.9-3.6 1.8-6.1l3-2.8-3.3-1.2c-12.7-4.7-21.6-8.9-26.3-12.2-3.8-2.7-6.5-3.8-9-3.8-2.4 0-7.3-2-15-6-6.8-3.5-11.4-5.4-11.4-4.6"/></svg>