<svg xmlns="http://www.w3.org/2000/svg" width="682.667" height="512" version="1.0" viewBox="0 0 512 384"><path d="M0 192v192h180.7l1.5-4.2c.8-2.4 2-5.9 2.7-7.8 2.5-7.3 5.9-19.8 7.5-28 .9-4.7 2.1-10.8 2.6-13.5.6-2.8 2.2-10.9 3.5-18 1.4-7.2 3.9-16.9 5.5-21.7 1.7-4.7 3-8.9 3-9.2 0-.4-3.5-2.4-7.7-4.5-4.3-2.1-13.2-6.6-19.8-10.1s-16.2-8.5-21.3-11.1c-9.5-4.8-12-6.4-11-7.4.4-.4 36.8 16.5 44 20.5 2.1 1.2 4.8 1.3 4.8.2 0-.4-1.2-1.3-2.7-2-4.2-1.8-19.9-11.2-19-11.2.4 0 5.7 2.5 11.8 5.5 11.5 5.7 13.3 6.3 14.5 4.3 1-1.6-2.9-4.4-14.6-10.6-9.9-5.3-10-5.4-10-9.1 0-2 .7-4.7 1.6-5.9 2-3 7.6-3 10.5-.1 3.5 3.5 18.1 12.1 18.9 11.2 1.6-1.7 2.9-14.5 3.1-29.6.1-15.5 0-15.8-2.3-17.6-2.1-1.7-2.6-3.4-3.7-12.3-.8-5.8-1-12.4-.6-14.9.9-5.7 6.7-17.9 10.5-22.1 3.7-4 3.7-4.6.3-5-2.2-.2-2.7-.8-2.5-2.5.2-1.2-.2-2.4-.8-2.8-1.6-1 .7-4.5 3.1-4.5 3 0 2.2-4.2-.9-4.7-2.3-.3-4.7-2-5-3.6-.3-1-1.7-.9-1.7.2 0 2.5-1.3 1.6-2.9-2-1-2.2-2-3.8-2.3-3.5-1.2 1.2-4.3-1.6-4.3-4 0-1.3-.7-3.6-1.6-4.9-1.6-2.5-1.7-5-.1-32.2.2-4.6 1.3-5.8 8.5-9.5 2.3-1.2 4.2-2.5 4.2-3 0-.4.9-.8 1.9-.8 1.1 0 2.3-.9 2.6-2s1.3-2 2.1-2c1.7 0 1.8-.5.2-3-1.1-1.7-.9-2.3 1.3-4.4 1.8-1.7 2.5-3.2 2.2-4.8-.3-1.7.3-2.7 2.6-4l3-1.6-2.2-4.4c-1.4-2.8-2.2-6.4-2.3-10.4-.1-3.3-.6-7-1.3-8.2-.6-1.1-1.1-3.2-1.1-4.7 0-1.4-1.1-4.6-2.4-7-1.4-2.4-3-6.8-3.8-9.9L209.5 0H0zM160.7 23.2c-.3.8-.6.5-.6-.6-.1-1.1.2-1.7.5-1.3.3.3.4 1.2.1 1.9m-4.3 13.1c1.1 4.2.4 5.6-1.9 3.7-1.8-1.5-2.1-8.4-.2-7.8.6.3 1.6 2.1 2.1 4.1M170 58.7c0 1.4-1.9 3.8-2.5 3.2-.8-.8.5-3.9 1.6-3.9.5 0 .9.3.9.7M68.5 98c1.7.7 1.4.9-1.3.9-2 .1-3.1-.3-2.7-.9.7-1.2 1.3-1.2 4 0m-56.8 7.7c-.9.9-1.9 1.4-2.3 1.1-1-1 .6-2.8 2.4-2.8 1.5 0 1.5.1-.1 1.7m66.9 76.4c.3.6.1 1.6-.5 2.2-.9.9-1.4.8-2.1-.3-.5-.8-1-1.8-1-2.3 0-1.1 2.8-.8 3.6.4m4.9 9.7c-.8.8-2.5-1-2.5-2.6 0-1.3.2-1.3 1.4.4.8 1 1.3 2.1 1.1 2.2m-17.9.9c-1 1-1.9-.5-1-1.8.6-1.1.8-1.1 1.2 0 .2.7.1 1.5-.2 1.8m-41.9 12.7c-.9 2.6-2.7 1.5-2.7-1.6.1-3.1.1-3.2 1.5-1.3.9 1 1.4 2.4 1.2 2.9m145.3 48c0 .9-4.1-.8-5.2-2.2-1.1-1.3-.8-1.2 2 .2 1.7.9 3.2 1.8 3.2 2m-53 19c0 .2-1.1.6-2.5.8-1.3.3-2.2.1-1.9-.3.5-.9 4.4-1.3 4.4-.5M510.8 15.7c-.1 8.7-.1 33.3.2 54.8l.6 39 .2-54.8c.1-30.1 0-54.7-.2-54.7s-.6 7.1-.8 15.7M511 201v33.1l-3.3-.6c-1.8-.4-7.1-.7-11.8-.8-6.6-.2-9.1.2-11.2 1.5-1.4 1-3.6 1.8-4.7 1.8-1.2 0-3.1.5-4.3 1.2-2.1 1.1-3.6 1.5-15.4 3.7-2.8.5-6 1.4-7 1.9-3.8 2.1-29.5 7.2-32.3 6.5-.9-.2-2.2.3-2.9 1.1-1.9 2.3-8.8 2-18.3-.6-6.7-1.8-8.3-2-10-.9-1.4.9-3.9 1.1-7.9.6-3.2-.4-6.2-.6-6.6-.6-.9.2-.5 6.9.8 12.8 1.2 5.7-.2 8.9-4.7 10.8-4.3 1.8-7.4 1.9-7.4.4 0-.6-1.4.1-3.1 1.5-4 3.4-7.3 4.1-11.9 2.6-2.1-.7-4.2-1.1-4.7-.9s-7.6 7.3-15.8 15.7L313.8 307l5.3 2.4c3 1.3 11.2 5.1 18.4 8.5 12.9 6.2 30 13.3 40.5 16.9 6.1 2 7.2 4 4 7-4.1 3.8-15.7 3.5-30.5-.7-5.9-1.7-36.2-12.2-45.9-16l-2.9-1.2.7 7.3c1.2 11.7 4.1 27.4 7.6 40.5l3.3 12.3H512V276c0-59.4-.2-108-.5-108s-.5 14.9-.5 33m-216.7 47.9c.5 8.6.2 9.3-4.6 10.5-1.5.4-3.1 1.4-3.4 2.2-.3.9 1.1 6.6 3.2 12.8 4.2 12.1 5.2 14.6 6.3 14.6.4 0 3.7-2.8 7.3-6.3 3.6-3.4 10.7-10 15.8-14.6 6.4-5.9 9-8.9 8.6-10-.4-.9-1.3-4.3-2.2-7.6-.8-3.3-1.7-6.2-1.9-6.4-.1-.2-2.5.2-5.3.9-4.5 1-5.2 1-7.8-.8-1.8-1.3-5.3-2.3-9.7-2.7l-6.9-.7z"/></svg>