<svg xmlns="http://www.w3.org/2000/svg" width="682.667" height="512" version="1.0" viewBox="0 0 512 384"><path d="M0 58c0 44.4.3 58 1.2 58s.9.3 0 1.2-1.2 32-1.2 134V384h337.7l1.3-9.2c.6-5.1 1.9-12.9 2.7-17.3.9-4.4 1.9-11.2 2.4-15 1.1-9.2 5.3-22.5 7.1-22.5 1.5 0 3-11.6 3.3-26.8.2-8.9.7-16.7 1-17.2.8-1.3-5.6-5.2-7.3-4.5-.8.3-1.2 0-1-.7.9-2.5-7-7.8-11.8-7.8-1.3 0-5.3 6.3-9.5 15-1.4 3-3.2 6-4 6.6-1.6 1.3-11.9 2.6-19.9 2.6-7-.1-23.6 2.6-27.2 4.4-4.7 2.4-20.1 5.5-24.8 5.1-2.5-.3-8.2-1.7-12.7-3.1-11-3.6-12.8-3.9-14.4-2-2.3 2.8-7 4.6-10.2 4-1.6-.3-4.7-.1-6.8.5-2.7.8-4.2.9-5.1.2-1.2-1-4.7-.8-16.5 1.2-4 .7-4.3.6-5.3-1.9-.5-1.5-1.8-3-2.7-3.3-1-.4-2.7-1.5-3.7-2.5-1.1-1-2.4-1.8-2.9-1.8-.4 0-1.5-.7-2.3-1.5-1.7-1.6-8.1-1.9-16.9-.6-2.7.4-5.7.4-6.5 0s-4.6-1.2-8.5-1.9c-12.2-2.1-16-3.8-20.7-9-7.2-8-10.2-11.9-13.1-17.3-1.6-2.9-3.5-6.2-4.3-7.4s-1.4-2.9-1.4-3.7-.9-3-2-4.8c-1-1.8-2.4-5.6-3-8.3-1-4.5-1.5-5.3-5.4-7.3-4.9-2.6-6.7-5.9-8.6-15.9-1.5-7.3-1-9.1 2.9-10.4 4.5-1.6 6.5-7.1 5.6-15.7l-.7-6.9 2.9-1c1.6-.6 4.2-2.6 5.9-4.4 1.6-1.9 6-6.5 9.8-10.3l6.9-6.8v-7.2c0-10.3-1.2-24.6-2.3-26.7-.8-1.4-.1-2.6 3.6-6.3 4.4-4.2 4.6-4.7 4-8.5-.5-3.3-.3-4.2 1.3-5 2.9-1.6 2.4-13.8-.7-18.1-3-4-3.1-9.1-.2-15.7 1.8-4.3 2-5.7 1.1-8.9-.6-2.2-1.1-5.2-1.1-6.7 0-3 4.1-11.5 8.9-18.7 3.6-5.3 3.7-5.7 1.1-8.5-2.7-2.9-5.4-13.9-4.7-19.7l.6-4.8H0zM79.7 4.6c-.3.3-1.2.4-1.9.1-.8-.3-.5-.6.6-.6 1.1-.1 1.7.2 1.3.5M111.5 63c.3.5-.3 1-1.4 1s-2.3-.5-2.6-1c-.3-.6.3-1 1.4-1s2.3.4 2.6 1M28.3 87.2c-.5 2.7-.7 2.9-1.4 1.3-.4-1.1-.8-4-.7-6.5v-4.5l1.4 3.2c.8 2 1.1 4.5.7 6.5M6.7 105.5c-.4.8-1.1 1.5-1.7 1.5-.7 0-.7-.6 0-2.1 1.3-2.3 2.6-1.9 1.7.6M381.1 2.7c-.7 1.6-2 3.9-2.9 5.3-1.1 1.6-1.7 4.6-1.7 8 0 4.3-.9 7.2-3.8 13.2-4 8.3-4.2 12.9-.7 14.8 1.5.8 2.1.3 3.6-2.8.9-2 1.9-3.1 2.1-2.5.8 2.3 3.5 1.5 3.3-1-.3-3.4 0-4.3.9-2.9.6 1 1 .3 1.5-2.2.7-3.5 0-5.5-3.6-10.5-1-1.3-1.8-2.9-1.8-3.5s.9.2 1.9 1.9c1 1.6 3.7 4 5.9 5.3l4.1 2.2.6-3.7c1.1-6.5 1.3-6.9 1.4-3.1 0 2 .4 4.5.7 5.5.5 1.5.4 1.5-.5.3-1.4-1.9-1.4 0-.1 3.5.8 2.2 1.3 2.4 3 1.5 1.6-.9 2.4-.7 3.6.5 1.4 1.3 3.4 1.3 3.4-.1 0-.3-.4-.3-.9 0s-1.1-.1-1.5-.9c-.3-.9 0-1.5.8-1.5 2.3 0 10.1-9 12.6-14.5 1-2.2 3.6-5.8 5.9-8 2.3-2.1 4.1-4.7 4.1-5.7 0-1.7-1.4-1.8-20.3-1.8h-20.4zm11.6 13.5c-.3.8-.6.5-.6-.6-.1-1.1.2-1.7.5-1.3.3.3.4 1.2.1 1.9m38.7-12.8c-4.5 4.5-19.5 27.4-18.3 28.1.5.4.9 1.5.9 2.6 0 1 .2 1.9.4 1.9.3 0 3.7-3.4 7.7-7.5s7.7-7.5 8.1-7.5c1.7 0 .6 2.3-2.6 5.3-1.8 1.8-4.4 4.7-5.6 6.6l-2.4 3.5 5.7-4.3c3.1-2.4 5.7-5.1 5.7-6s.7-2.9 1.5-4.5c.9-1.6 1.4-3.5 1.1-4.2-.2-.6 0-1.6.4-2 .5-.5 1.4-2.7 1.9-4.9 1-3.7 1-3.7.4 1.4-.3 3-1.2 6.9-1.9 8.7-.8 1.8-1.4 3.8-1.4 4.4 0 .9 12.5-8.4 15.5-11.6 1.3-1.3 7.5-5.8 9.5-6.8 1.6-.8-.4 1.1-6.5 6.1-2.2 1.9-3.3 3.3-2.5 3.3.8.1-.5 1.2-3 2.5s-7.9 5.3-12 8.9-9.6 8-12.2 9.8c-3.9 2.7-6.8 7.1-5.6 8.3.2.2 1.9-.4 3.8-1.2 3.2-1.4 3.3-1.6 1.5-2.4-1.5-.7-1.2-.8 1.3-.4 2 .3 3.1.1 2.7-.5-.3-.6.2-1 1.2-1 1.1 0 2.4-.5 3.1-1.2s1.2-.8 1.2-.3c0 .9-6.3 5.1-9.5 6.4-.5.2-1.5 1-2.3 1.7-.7.7-1.8 1.2-2.5 1-.7-.1-.8-.1-.4.2.5.2-.2 1.5-1.4 2.8s-1.9 2.7-1.4 3.1c.4.5 1 .3 1.2-.4.2-.6 1.4-1 2.7-.7 1.4.2 4.2-.8 7.1-2.7 2.7-1.7 4.3-2.4 3.6-1.5-.7.8-3.9 2.9-7.1 4.5-3.3 1.6-5.6 3.1-5.3 3.4s-.4.3-1.6 0c-1.6-.4-2.1-.1-2.1 1.4 0 1-.5 2.4-1.1 3-.8.8-.8 2.5-.1 5.9.6 2.7.8 5.2.6 5.6-1 1.7 1.2.7 4-1.7 4.5-3.9 4.5-3-.1 1.7-3.5 3.7-6.3 9-6.3 12 0 1.2 3.8-.9 7.7-4.2 1.7-1.5 5.3-4.2 8-6 4.6-3.1 4.7-3.1 1.7-.3-1.7 1.5-6.1 5.3-9.9 8.3-9.4 7.5-10.5 8.7-10.5 11 0 1.9 0 1.9 3.3 0 1.7-1.1 5-3.4 7.2-5 2.2-1.7 6.9-4.4 10.5-6.1s7.7-4.2 9.2-5.4c1.5-1.3 6-3.3 10-4.6 9.4-2.8 23.3-11.9 24.1-15.8.4-1.4 2.2-4.4 4.1-6.6s3.2-4.4 2.9-4.9c-.4-.5-.1-.6.6-.1 1.5.9 7.1-4.2 7-6.4 0-1.1-.3-1-.9.4-.7 1.8-.9 1.8-2-1-.6-1.7-.9-4.2-.6-5.6.5-2.6-1.4-8.6-5.3-16.6-1.2-2.3-2.1-4.6-2.1-5.2 0-.5-.8-1.1-1.7-1.3-1.6-.3-1.6-.4-.2-1 1.1-.4 2.1.5 3.5 3 1 2.1 3.1 5.7 4.5 8.2 1.5 2.5 3 6.2 3.4 8.2.4 2.1 1.1 3.8 1.7 3.8.5 0 .6.4.3 1-.3.5-.2 1.7.3 2.6.8 1.5 1 1.4 1.6-.2.4-.9.2-2.2-.4-2.8-.5-.5-1-1.8-1-2.7 0-1-.5-1.9-1.2-2.1-.7-.3-.9-1.1-.3-2.4.7-1.7.9-1.7 1.2-.2.4 1.7 3.9 3.4 5.8 2.9.5-.1.6.1.2.6-.5.4-1.4.8-2 .8-1.5 0-1.6 3.7-.1 4.2 2 .7 3.1-5.7 2.5-14.5-.1-2.5-2.3-2.9-4.5-.7-2.7 2.8-3 1.5-.2-1.3 2.6-2.8 2.7-3.2 2-9.6l-.7-6.6-27.1.1-27.1.1zm32.2 8.1c-1.1.8-2.7 1.5-3.5 1.5-.9-.1-.2-.7 1.4-1.5 3.9-1.8 4.4-1.8 2.1 0m-9.1 3.5c-2.7 1.2-4.3 1.2-2.5 0 .8-.5 2.2-.9 3-.9 1 0 .8.3-.5.9m35 9c-.3.5-1 1-1.6 1-.5 0-.9-.5-.9-1 0-.6.7-1 1.6-1 .8 0 1.2.4.9 1m-11.1 10.5c.3.8.1 1.5-.4 1.5-.6 0-1-.7-1-1.5s.2-1.5.4-1.5.6.7 1 1.5m2 5.1c.3.8.2 1.2-.4.9s-1-1-1-1.6c0-1.4.7-1.1 1.4.7M422 48.4c0 .2-.8 1-1.7 1.7-1.6 1.3-1.7 1.2-.4-.4s2.1-2.1 2.1-1.3M491 .6c0 1.3 2.1 4.4 3 4.4.6 0 1-1.1 1-2.5 0-1.8-.5-2.5-2-2.5-1.1 0-2 .3-2 .6m5.2 3.6c-.6 2.3-.9 4.4-.8 4.6.2.2 1.6-.8 3.1-2.1 2.1-1.7 2.6-2.8 2.1-4.5-1.2-3.5-3.3-2.5-4.4 2M502 2c0 1.1.4 2 .8 2 .5 0 1.7-.9 2.7-2 1.8-2 1.7-2-.8-2-2 0-2.7.5-2.7 2"/><path d="M506 3.5 502.6 7h4.2c2.3 0 4.2.4 4.2 1 0 .5-1.3 1-2.8 1-1.6 0-3.2.3-3.6.7s-1.7.8-2.9.8c-1.6 0-2.3.7-2.5 2.5l-.3 2.5 2-2.5c2.2-2.7 2.8-2.1 1 1.2-.6 1.1-.8 2.2-.5 2.5s1.3-1.1 2.2-3.1c1.1-2.3 2-3.2 2.5-2.4.4.6.1 2.1-.6 3.2-.8 1.2-1.5 2.5-1.6 3.1-.1.5-.4 1.6-.6 2.3-.6 1.3 1.4 4.2 2.8 4.2.5 0 .9-1 1-2.3 0-2 .1-2.1.8-.2.8 1.9.8 1.9 1.9 0 .9-1.6 1.1-.8 1 4.3-.1 5.2-.3 6-1.5 5.1-2.4-2.1-2.6-.1-.4 4.1 1.1 2.2 2.1 5.7 2.1 7.8l-.1 3.7-1.9-2.3c-2.3-2.8-3.4-1.4-1.5 2.1.8 1.7 1 2.9.4 3.3-1.6.9-3.9-1.6-3.9-4.4 0-2.3-.2-2.4-3.7-1.8-2.1.3-4.9.6-6.2.6-2.1 0-2.2.2-1 1.6 1.2 1.5 1.1 1.6-.8 1-1.6-.5-2.3-.2-2.8 1.3-.3 1-1.3 2.2-2.1 2.5s-1.2 1.1-.9 1.7c.4.5-.1 1.9-1.1 3-1.6 1.8-1.6 2.1-.2 3.5 1.3 1.4 1.6 1.2 2.8-1.8.8-1.8 2-4.2 2.8-5.3 1.3-1.8 1.3-1.7.7 1.8-.4 2.7-.3 3.7.4 3.2 1.7-1 1.3 1.1-.4 2.5-2 1.6-1.9 3 .3 4.6 2.2 1.7 10.9 1.8 11.5.1q.6-1.5.6 0c.1 1.9 2.1 1.6 3.8-.5 1.4-1.6 1.4-1.6.9.2-.6 1.6-.4 1.7.9.6s1.5-.9 1.5 1.4c0 2.4-.3 2.6-4.7 2.7-2.7.1-4 .3-3 .6.9.2 1.7.9 1.7 1.4s.7.9 1.5.9 1.5.5 1.5 1.1c0 .5.4.8.9.5.9-.6 2.5 2.3 1.7 3.1-.5.5-4.2-1.5-6.9-3.6-.9-.8-2-1.1-2.4-.7-.4.3 1.7 2.9 4.5 5.7 5.3 5.2 6.3 8.1 4.1 11.7-1.6 2.5-7.1 1.8-6.7-.9.2-1-.6-2.5-1.7-3.3-1.1-.9-1.5-1.6-.8-1.6.6 0 1.5.5 1.8 1 .4.6 1.1.8 1.6.5.5-.4.9.3.9 1.4 0 2.4 1.5 2.8 2.3.7.5-1.2-3.5-7-6.8-10.1-.6-.6-2.2-2.7-3.6-4.8-2.1-3.4-2.7-3.7-5.4-3.1-1.6.4-5.8 1.2-9.3 1.8s-6.7 1.7-7.1 2.5q-.9 1.35-1.5.3c-.9-1.5-3.6-.4-3.6 1.4 0 1.3-1.3 1.9-3.4 1.5-.4-.1-2.4.7-4.3 1.9-3.8 2.2-6.8 2.7-4 .6 2.5-2 2.1-2.6-1.8-2.6-2 0-5.5 1.2-8.5 3-2.8 1.6-5.5 3-6 3-1 0-13.4 8.6-18.3 12.6-1.5 1.3-5.8 3.8-9.5 5.5-4.7 2.3-8.7 5.3-13.7 10.4-3.8 4-8.8 8.3-11.1 9.8-2.3 1.4-5.6 4.4-7.4 6.7l-3.3 4.1 2.4 2.6c6.1 6.8 9.2 9.6 8.6 7.8-.7-1.8-.7-1.8 1.1-.2 2.5 2.2 3.6 2.2 2.9-.2-.3-1.4-.1-1.8.9-1.4.8.3 1.4.9 1.4 1.4s.7.9 1.6.9c1.3 0 1.4-.3.4-1.5s-.9-1.6.3-2.1c1.7-.6 5.7 1.6 9.9 5.5 1.5 1.3 3 2.2 3.4 1.9.3-.3-1.1-3.8-3.1-7.8-4.2-8.3-4-10.8.2-3 1.5 2.8 3.5 6.1 4.3 7.1 1.5 2 1.5 2 5.5.1 11.1-5.4 39.2-19.3 40.5-20.1 4.9-2.8 10.6-4.5 19-5.5 9-1 9.5-1.2 9.2-3.4-.5-3.1.5-2.7 2.5 1l1.7 3.3.7-2.5c.4-1.4.7-4.6.8-7.2.1-6 2.1-7.4 2.2-1.6.1 2.4.1 4.8 0 5.5-.3 1.9 3.2 5.3 5.3 5.3 1.1 0 2.7-.7 3.7-1.6 1.5-1.3 1.5-1.8.3-4.4-.8-1.5-2.6-3.5-3.9-4.4-1.5-1-2.5-2.5-2.4-3.9 0-1.2.3-1.6.6-.9.6 1.5 7.7 6.2 9.3 6.2.5 0 1-1.2 1-2.6s.4-2.3 1-1.9 1 10.2 1 26.1v25.6l-9 9.2c-5 5.1-9.9 10.5-10.9 12.2-1 1.6-3.8 5.2-6.3 7.9-5.2 5.7-12.1 18.1-11.1 19.8.3.7.3.9-.2.5-.4-.4-2.2 1.2-4 3.5-2.2 2.8-2.9 4.4-2.1 4.9.8.6.7 1-.3 1.7-1.1.7-1.1.9 0 1.4q1.5.6-.3.6c-.9.1-1.8-.5-2.1-1.2-.4-.9-.8-.9-2.3 0-1.1.7-5.4 3.1-9.7 5.2-4.2 2.2-8.7 4.7-9.8 5.5-2 1.3-2 1.5-.2 2.5 1.6 1 1.6 1.1-.6.9-3-.4-4.1 2.1-1.2 2.9 1.2.3 2.1.8 2.1 1.2s1.2 2.3 2.6 4.2l2.6 3.4-.7-3.5-.6-3.5 1.8 3.5c1.6 3.1 2.3 3.5 6.3 3.8 6.7.4 7.6-.6 5.8-6.2-2-6-1.3-5.8 1.6.4l2.3 5 5.2-5c5.9-5.8 6.6-5.6 1.6.4-1.9 2.4-3.5 4.6-3.5 4.9 0 .4 2.6-.5 5.8-1.9 7.6-3.4 9.6-4 5-1.5-2 1.2-3.9 2.4-4.1 2.8-.8 1.4 13.7.8 16.3-.6 1.4-.7 4.2-3.2 6.3-5.4l3.8-4.2-2.8 4.2c-1.5 2.2-4.1 4.9-5.7 5.8l-2.9 1.8 2.4 1.3c1.3.7 4.7 1.4 7.4 1.4 2.8.1 4.4.4 3.7.7-.6.2-.9.9-.6 1.4.6 1-6.1.2-8-.9-.5-.3-4.1-.6-8-.8-3.9-.1-8.3-.6-9.7-1.2-3.3-1.3-11.9.4-13.6 2.7-1.1 1.4-1.4 1.4-2.2.1-.8-1.2-1.2-1.3-2.3-.2s-.7 1.9 2 4.3c3.2 2.9 3.5 2.9 11.5 2.5l8.2-.5-6.5 1c-3.6.5-6.7 1.4-6.8 2-.3.6-1 .5-2-.3-1-.7-.6 0 .8 1.5 1.3 1.5 3.1 2.7 4 2.6 2.6-.2 6 1.3 6 2.7 0 .7.4 1.6 1 1.9s.7-.1.4-.9c-.3-.9-.1-1.6.4-1.6.6 0 .9.9.7 2.1-.3 1.4 0 1.9.9 1.6.7-.3 1.3.1 1.3.8 0 1.5-2.1 1-5.9-1.7-3-2.1-3.2-1.8-3.1 2.9.1.7-.3 1-.8.7s-.9-1.8-.9-3.3c0-2-.7-3.1-2.5-3.9-2.1-1-2.5-.9-2.5.6 0 .9.9 3.7 2.1 6.2l2 4.5-2.5-3c-1.3-1.7-2.7-4.8-3.1-7-.7-4.8-3.9-8.5-6.6-7.8-1 .3-1.6.9-1.3 1.4s-.2.9-1 .9c-.9 0-1.6-.7-1.6-1.5s.9-1.5 2-1.5c2.5 0 2.6-1.2.3-3.3-1.4-1.2-3.3-1.4-8.1-1-3.4.3-7.5.2-8.9-.2l-2.7-.6 2.9-1.4c1.7-.7 3.9-1.6 4.9-1.9 1.8-.6 1.8-.8-.5-3.2-1.3-1.4-4.4-3.6-6.9-4.9l-4.5-2.3-4.1 4.6-4.1 4.6 6.4 6.3c5.9 5.8 6.4 6.6 6.1 10.1-.3 3.4-.8 3.9-6.1 6.7-6 3.1-6.1 3.3-7.2 11.7-.4 3.3-1.1 4.9-2.4 5.3s-2.2 2.4-3.1 7.3c-.7 3.7-1.2 7.9-1.2 9.4.1 1.4-.5 2.9-1.3 3.2-1.9.7-1.9 3.8.2 15.5 1.5 8.8 2.4 10.8 4.6 11 1.5.1 4.4 3.6 5 5.9.7 2.9-1 3.6-5.5 2.4-7-1.9-7.3.3-2.4 19.8 1.8 7.4 3.9 16.1 4.5 19.2l1.2 5.8H512V192c0-157.2-.2-192-1.3-192-.7 0-2.8 1.6-4.7 3.5m2 12c-.7.8-1.8 1.5-2.4 1.5s-.2-.7.8-1.5c2.5-1.9 3.2-1.9 1.6 0m-6.6 32.9c-.3.8-.1 1.7.5 2.1.6.3 1.1 1.4 1.1 2.3-.1 1.5-.2 1.5-1.5-.2-1.7-2.2-2.1-7.1-.5-6.1.5.3.7 1.2.4 1.9M447 92.5c0 2.9-1 5.5-2 5.5-1.4 0-3.2-7-2.5-9.8l.7-2.7 1.9 2.4c1 1.3 1.9 3.4 1.9 4.6m63.7-.3c-.3.8-.6.5-.6-.6-.1-1.1.2-1.7.5-1.3.3.3.4 1.2.1 1.9m-80.4 2.5c-.7.2-1.9.2-2.5 0-.7-.3-.2-.5 1.2-.5s1.9.2 1.3.5M504 113c0 .5-.9 1-2 1s-2-.5-2-1c0-.6.9-1 2-1s2 .4 2 1m-111.5 23c-.3.5-1.2 1-1.8 1-.7 0-.6-.4.3-1 1.9-1.2 2.3-1.2 1.5 0m118.2 107.6c-.3.3-1.2.4-1.9.1-.8-.3-.5-.6.6-.6 1.1-.1 1.7.2 1.3.5m-43 4c-.3.3-1.2.4-1.9.1-.8-.3-.5-.6.6-.6 1.1-.1 1.7.2 1.3.5m42.2 1c1 .9-3.5.3-4.9-.6-1.1-.8-.7-.9 1.5-.4 1.7.4 3.2.8 3.4 1m-18.6 16.1c-.7.2-2.1.2-3 0-1-.3-.4-.5 1.2-.5 1.7 0 2.4.2 1.8.5M490.1 4.5c0 1.1.6 3.3 1.4 5 1.3 2.9 1.3 2.9 1.4.5 0-1.4-.6-3.6-1.4-5-1.3-2.2-1.4-2.3-1.4-.5m-75.8 13.7c-1.1 1.3-2.4 3-2.8 3.8-.8 1.6-.6 1.4 3.4-3.3 1.4-1.5 2.2-2.7 1.9-2.7-.2 0-1.4 1-2.5 2.2m-50.1 3.3c0 1.6.2 2.2.5 1.2.2-.9.2-2.3 0-3-.3-.6-.5.1-.5 1.8"/><path d="M498.7 23.9c-.4 1.7-.3 2.1.5 1.3.5-.5.8-1.6.6-2.3-.3-.8-.7-.3-1.1 1m-89.4 1.3c-1.5 2-2.5 3.8-2 3.8.3 0 1.2-1.1 2.1-2.5 1.7-2.6 1.6-3.5-.1-1.3m-23.4 2c0 .2-.2 1.2-.3 2.3-.2 1.1-.6 4-1.1 6.5l-.7 4.5 2.1-1.9c1.2-1.1 1.9-2.6 1.6-3.3-1.9-4.6-1.8-4.8.2-2.8 1.1 1.2 2.3 2.7 2.7 3.5.3.8.4.4.1-1-.2-1.4-.5-3.2-.5-4 0-1.2-3.8-4.7-4.1-3.8m115.1.9c0 .5.5.7 1 .4.6-.3 1-.8 1-1.1 0-.2-.4-.4-1-.4-.5 0-1 .5-1 1.1m-5.4 2.5c-.8 2 0 3.2 1.4 1.8.5-.5.5-1.5.1-2.2-.6-1.1-1-1-1.5.4m-91.1.4c-.3.5-.2 1 .4 1 .5 0 1.3-.5 1.6-1 .3-.6.2-1-.4-1-.5 0-1.3.4-1.6 1m97.7 2-2.3 2.5 2.8 1.2c2.7 1.1 5.5.7 3.5-.6-.5-.3-1.2-1.7-1.3-3.1l-.4-2.5zM408 36.4c-1.9 2.3-2.6 3.4-1.5 2.5 3.6-2.9 5.1-3.3 2.9-.8-3.2 3.6-3.8 5-1.9 4.3.9-.4 1.3-.9 1-1.2-.2-.3.4-1.2 1.6-2 1.1-.8 1.8-2 1.5-2.7-.2-.7 0-1.7.6-2.3.5-.5.6-1.2.1-1.4-.4-.3-2.4 1.4-4.3 3.6m-15-1.5c-.5 1.1-1 2.7-1 3.6 0 1.2.7.8 2.5-1.3 2.9-3.4 3.1-4.2 1-4.2-.8 0-1.9.9-2.5 1.9m24.7-1.2c-.4.3-.7 1.1-.7 1.7s.5.5 1.2-.2c.6-.6.9-1.4.7-1.7-.3-.3-.9-.2-1.2.2m78.8 4.3c-.3.5-.2 1 .4 1 .5 0 1.3-.5 1.6-1 .3-.6.2-1-.4-1-.5 0-1.3.4-1.6 1m-109.2 1.6c-.7.7-1.3 1.8-1.3 2.4 0 .5-.4 1-.9 1s-1.1.7-1.5 1.5c-.4 1.2-.2 1.3 1.2.5 3.1-1.8 5.2-3.7 5.2-4.8 0-1.8-1.4-2.1-2.7-.6m110.6 1.5c-1 .6-.7.9 1.4.9 2.9 0 3.5-.5 1.4-1.3-.8-.3-2-.1-2.8.4m6.4-.4c.9.2 2.3.2 3 0 .6-.3-.1-.5-1.8-.5-1.6 0-2.2.2-1.2.5m-136.6 4.7c-.3.8.2 2.1 1.2 3 2.4 2.2 2.7 2 2.6-1.1 0-3-2.9-4.4-3.8-1.9m42.3 1.1c-2.5 2.7-1.2 3.5 1.4.9 1.4-1.4 2.2-3.4 1.3-3.4-.2 0-1.4 1.1-2.7 2.5m-15.3 1.9q-.6 1.5.9.9c1.5-.6 1.9-2.3.5-2.3-.5 0-1.1.7-1.4 1.4m-29.9 1.8c-.5 1.5 1.8 4.1 3.1 3.6 1.1-.4-.5-4.8-1.8-4.8-.5 0-1.1.6-1.3 1.2m44.7-.1c-1.1 1.7.1 2.1 1.5.4.8-.9.8-1.5.2-1.5s-1.4.5-1.7 1.1m-13.5 2c0 .5.5.7 1 .4.6-.3 1-.8 1-1.1 0-.2-.4-.4-1-.4-.5 0-1 .5-1 1.1m8.6-.2c-.3.5.1 1.2 1 1.5 2 .8 2.9.1 1.9-1.3-.8-1.3-2.2-1.4-2.9-.2m-42.9 5.7c-1.4 2.1-2.5 4-2.3 4.2.6.6 7.6-2.6 7.6-3.6 0-.4-.6-1.6-1.3-2.6-1.2-1.6-1.5-1.4-4 2m4.3.4c0 .5-.5 1-1.1 1-.5 0-.7-.5-.4-1 .3-.6.8-1 1.1-1 .2 0 .4.4.4 1m30-2c-.8.5-1.2 1.2-.9 1.5.4.3 1.2-.1 1.9-1 1.4-1.7 1.1-1.9-1-.5m7.6.4c.3.8 1.2 1.2 2 .9 2.1-.8 1.7-2.3-.6-2.3-1.3 0-1.8.5-1.4 1.4m-3.6 3.1c0 .8.5 1.5 1 1.5.6 0 1-.7 1-1.5s-.4-1.5-1-1.5c-.5 0-1 .7-1 1.5m79 .3c-1.4.9-7 4.5-12.5 7.9-5.5 3.5-9.2 6.3-8.3 6.3 2.7 0 14.9-4.8 19-7.5 2.1-1.4 4.2-2.5 4.7-2.5s1.4-.6 2-1.3c.8-1.1.7-1.8-.7-3-1.7-1.5-2-1.5-4.2.1M396.5 61c-1 1.1-1.5 2-1.1 2 1.1 0 3.9-3 3.4-3.6-.3-.2-1.3.5-2.3 1.6m10-1c-.3.5-.2 1.7.3 2.6.8 1.4 1 1.2 1.4-1 .5-2.6-.5-3.5-1.7-1.6M388 62.2c0 1.7.2 1.8 1.5.8.8-.7 1.5-1.4 1.5-1.5 0-.2-.7-.5-1.5-.9-1-.4-1.5.1-1.5 1.6m-3.3 1.5c-.4.3-.7 1.5-.7 2.6 0 1.6.3 1.7 1.5.7.8-.7 1.5-1.9 1.5-2.6 0-1.5-1.2-1.9-2.3-.7m17 1.7c-3 2.8-2.7 5.6.5 5.6 1.8 0 1.9.2.7 1.6-1 1.3-1 1.7.2 2.5.8.5 1 .9.4.9-.5 0-.3.5.5 1 1.8 1.2 3.1 1.3 2.8.2-.1-.4.4-2 1-3.5 1.7-4 1.5-5.2-1.1-8.2l-2.2-2.7zm85.3-.5c-1.1 2.2-.7 2.4 2.3 1.2 1.7-.6 1.7-.8.4-2-1.3-1-1.7-.9-2.7.8m-126.7 1.9c-5.5 2.3-7.1 3.8-5.5 5.4.7.7 1.2 2.4 1.2 3.9s.4 3 1 3.4c1.1.7 3.9-4.5 3.3-6.1-.2-.6 1-2.4 2.7-4 4.9-4.7 4.1-5.4-2.7-2.6m36.1-.1c.3.6.2 1.3-.4 1.5s-.6.9 0 1.8c.8 1.2 1 1.2 1.6-.3.4-1.1.1-2.3-.6-3-1-.9-1.1-.9-.6 0m83.9 0c-2.1.8-1.5 2.2.7 1.6 1.1-.3 2-.9 2-1.4 0-1-.8-1-2.7-.2M390.7 70c-1.1 1.6-1.3 2.6-.6 2.9 1.6.5 3.1-1.4 2.7-3.5-.3-1.7-.5-1.6-2.1.6"/><path d="M385.8 74.3c-.7.6-3.7 2.3-6.7 3.7-4.8 2.2-5.6 3.1-8.2 8.5-1.6 3.6-3.2 9.4-4 14.5-1.1 8.5-1.1 8.6 1.5 12.5 1.5 2.2 2.9 4.1 3.1 4.3s3.4-1.8 7.2-4.4c3.7-2.6 10.1-7 14.1-9.7 3.9-2.7 7.2-5.4 7.2-6.1 0-.6.3-2.2.7-3.6.6-2.4.6-2.4-1.4-.8-3.4 3.1-3.8 2-.6-1.5 1.7-1.7 3.6-4.2 4.2-5.4 1.4-2.7 1.4-6.3 0-6.3-.5 0-.8-.4-.4-.9.7-1.2-2.2-4.1-4.1-4.1-.8 0-1.4-.5-1.4-1 0-.6-.5-1-1.1-1-.5 0-.7.4-.4 1 .3.5 0 .7-.8.4s-2 .2-2.7 1.1c-.7.8-2 1.5-2.9 1.5-1.3-.1-1.3-.2.3-1.1 1.5-.9 1.6-1.3.5-2-1.9-1.2-2.5-1.1-4.1.4m14.6 7.2c-.7 1.6-2.4 2.1-2.4.6 0-.8.7-1.3 2.7-2 .1-.1 0 .6-.3 1.4M396 85c0 .5-.4 1-1 1-.5 0-1-.5-1-1 0-.6.5-1 1-1 .6 0 1 .4 1 1m-2 11.5c-.7.9-1.5 1.3-1.7 1.1-.7-.7.7-2.6 1.9-2.6.6 0 .6.6-.2 1.5M334.2 90c0 1.4.2 1.9.5 1.2.2-.6.2-1.8 0-2.5-.3-.6-.5-.1-.5 1.3m-6.1 1.1c-1.9.7-2.2 1.2-1.3 2.1.7.7 1.2 4.4 1.3 8.7 0 4.6.3 6.8.8 5.7 1.1-2.8 2.3-.4 1.6 3.1-.6 2.7-.6 2.7.9.9 2-2.4 2-3.9.2-7.4-.7-1.5-1.6-4.3-2-6.2l-.6-3.5 1.4 3.5 1.4 3.5.1-5.8c.1-6 0-6.1-3.8-4.6m6 14.4c0 3.5.2 3.7 1.1 1.9.7-1.5.7-2.8-.1-4-.9-1.6-1-1.2-1 2.1m-1.6 7.4c-.3.6.4 1.5 1.5 2.1 2.2 1.2 2.3 1 1.4-1.4-.7-1.8-2-2.1-2.9-.7m-5.9 3.6c-.3.9-.6 2.2-.5 2.8 0 .7.5.1 1-1.2s.8-2.6.5-2.8c-.2-.2-.6.3-1 1.2m3.9 2.5c.2 1.6-.1 3-.6 3s-.9.4-.9 1c0 1.6 3.7 1.2 4.4-.5.3-.8.2-2.2-.1-3.2-.5-1.2-.3-1.4.8-.8 1.2.8 1.2.6 0-.8-2.2-2.8-4.1-2.1-3.6 1.3m4.7 4.5c-1.6 3.5-1.5 4.8.3 4.1.8-.3 1.5 0 1.5.7s.5.4 1.1-.5c1-1.8.2-6.8-1-6.8-.4 0-1.3 1.1-1.9 2.5m147.4-1.6c-1.7.6-1.7.8-.4 1.4 2 .7 5.8-.2 5.8-1.4 0-1.1-2.7-1.1-5.4 0m22.4.1c0 .5.5 1 1.1 1 .5 0 .7-.5.4-1-.3-.6-.8-1-1.1-1-.2 0-.4.4-.4 1m-5.5 3c.3.5 1 1 1.6 1 .5 0 .9-.5.9-1 0-.6-.7-1-1.6-1-.8 0-1.2.4-.9 1m-31 2c.3.5 1.3 1 2.1 1s1.2-.5.9-1c-.3-.6-1.3-1-2.1-1s-1.2.4-.9 1m9.3.7c.7.3 1.6.2 1.9-.1.4-.3-.2-.6-1.3-.5-1.1 0-1.4.3-.6.6m11 0c.6.2 1.8.2 2.5 0 .6-.3.1-.5-1.3-.5s-1.9.2-1.2.5m-32.2 2.1c-3.1 1.6-7.4 9.8-5.9 11.3.6.6 4-.1 8.5-1.5 8.3-2.7 15.6-6.6 12.5-6.6-1 0-1.5-.5-1.2-1 .3-.6 1.5-1 2.6-1 3 0 2.2-2-.8-2.1-1.6 0-5-.2-7.8-.3-2.9-.2-6.2.3-7.9 1.2m26.2 1.9-2.1 2.3h5c3.7 0 5.5-.5 6.8-2 1.7-1.8 1.6-1.9-.6-2.5-4-.9-6.8-.2-9.1 2.2m15 0c.7.3 1.6.2 1.9-.1.4-.3-.2-.6-1.3-.5-1.1 0-1.4.3-.6.6m-53.5 4.8c-2.8 1.5-5.7 3.3-6.3 4-1.1 1.3-.7 1.5 2.5 1.5 2.8 0 4.4-.7 6.6-3.1 2.5-2.7 3.7-4.9 2.6-4.9-.2 0-2.6 1.1-5.4 2.5m38.3 2c-3.2 1.7-4.9 2-2.6.5 1.2-.8 1.1-1-.8-1-2 0-2.1.3-1.2 2 1.3 2.5 1.5 2.5 5.6-.1 5.1-3.1 4.3-4.1-1-1.4m9.9.5c-.3.5.3 1 1.5 1s1.8-.5 1.5-1c-.3-.6-1-1-1.5-1s-1.2.4-1.5 1m-28.6 2.9c-3 1.5-9.2 3.8-13.7 5.1-7.8 2.3-8.4 2.3-9.3.7-.6-1.1-2.2-1.7-4.2-1.7h-3.2l.1 7.3c.1 10.6.2 10.9 2.8 14.2 2 2.5 2.6 2.8 4 1.6.9-.7 1.6-1 1.6-.6s.8.1 1.7-.6c1.7-1.3 1.7-1.3.1 1.2-1.7 2.6-1.6 2.7 1.7 5.8 1.9 1.7 4.2 3.1 5 3.1 3.1 0 19.1-10.4 20.3-13.3.2-.4.8-.5 1.3-.1.5.3 1.2-.2 1.5-1 .3-.9 1.4-1.6 2.4-1.6s2.3-.7 3-1.5 1.9-1.5 2.6-1.5c1.4 0 2-2 .7-2-.5 0-1.7-1.3-2.7-2.8-2-2.7-2-2.7 0-1 1.9 1.7 5.4 2.5 5.4 1.2s-8.8-10.6-12.1-12.8l-3.6-2.4zM475 147c0 .5-.2 1-.4 1-.3 0-.8-.5-1.1-1-.3-.6-.1-1 .4-1 .6 0 1.1.4 1.1 1m12.4-4.5c.3.8.1 1.5-.4 1.5-.6 0-1 .4-1 1 0 .5.7 1 1.5 1 .9 0 1.5-.9 1.5-2.5 0-1.4-.5-2.5-1.1-2.5s-.9.7-.5 1.5m-84.4 1.3c0 .5.6 1.6 1.3 2.6 1.1 1.4 1.8 1.6 3.2.9 1.6-.9 1.6-1.1-.6-2.7-2.6-1.8-3.9-2-3.9-.8m77-.1c.1 1.6 2.8 4.3 4.4 4.3.9 0 1.6.4 1.6 1 0 .5.7 1 1.5 1 2.4 0 1.7-2-1.1-3-1.4-.6-2.3-1.4-2-1.9s-.1-1.2-1-1.5c-2.1-.8-3.4-.8-3.4.1m-58.2 6c-2.7 1.3-2.7 1.5-1.4 4.1 1.3 2.5 6.7 8 10.9 11.2 1.6 1.2 1.7 1.1.7-1.6-.7-1.8-.9-5.2-.4-8.9.6-5.9.6-6-1.3-4.3-2.6 2.4-3.7 2.3-3-.2.6-2.4-1.4-2.5-5.5-.3m-7.6 8.3c-1.9 2.6-2.1 6-.3 6 .4 0 2.2 1.4 4 3.1 3.1 2.8 3.9 3 7.8 2.4 5.2-.8 5.1-1.1-3.3-8.8l-6.1-5.6zm-.7 17c.3.5.8 1 1.1 1 .2 0 .4-.5.4-1 0-.6-.5-1-1.1-1-.5 0-.7.4-.4 1m-2.5 2.4c0 .9.5 1.6 1 1.6.6 0 1-.4 1-.9 0-.6-.4-1.3-1-1.6-.5-.3-1 .1-1 .9m67.7.3c-.4.3-.7 1.1-.7 1.7s.5.5 1.2-.2c.6-.6.9-1.4.7-1.7-.3-.3-.9-.2-1.2.2m-11.1 4c-.4.4-3.7 2.4-7.4 4.3-6.4 3.4-6.8 3.8-7.9 8.5-.7 2.6-1.7 5.3-2.3 5.9-.5.5-1 1.8-1 2.7s-.9 1.9-2 2.2c-2.3.6-3.7 3.4-2.3 4.8.6.6 3.4-2.1 7.6-7.3 7-8.8 11.1-13.6 15.2-18 1.4-1.5 2.5-2.9 2.5-3.2 0-.8-1.5-.7-2.4.1m-33.3 30.4c-3 .9-4.4 3.1-2.5 4.3 1.3.8 7.2-2.3 7.2-3.9 0-1.7-.2-1.7-4.7-.4m-8 2.6c-1.8.6-1.6 4.3.1 4.3 1.6 0 2.7-2.2 1.8-3.7-.4-.5-1.3-.8-1.9-.6M422 225c0 .5.5 1 1.1 1 .5 0 .7-.5.4-1-.3-.6-.8-1-1.1-1-.2 0-.4.4-.4 1m61.8 18.7c.7.3 1.6.2 1.9-.1.4-.3-.2-.6-1.3-.5-1.1 0-1.4.3-.6.6m-43 4.5c.5.5 1.6.8 2.3.6.8-.3.3-.7-1-1.1-1.7-.4-2.1-.3-1.3.5"/></svg>