<svg xmlns="http://www.w3.org/2000/svg" width="682.667" height="512" version="1.0" viewBox="0 0 512 384"><path d="M214.2 17.5c-9.7 1.8-9.6 1.7-12 6.4-1.9 3.5-2 4.7-1.2 9.3 1 5.3 2 15.1 2 19.8 0 1.4.4 3.4.9 4.5.6 1.1 1.7 3.7 2.6 5.9l1.5 3.9 4.8-.6c2.6-.4 5.7-.9 7-1.3 3.4-1 2.8 1.1-3.3 11.1-3 4.9-5.5 9.6-5.5 10.5.1 3.3 3.7 6 7.9 6 3.4 0 4.3.4 5 2.2.5 1.3 2.1 5.4 3.6 9.3 4.8 12.4 9.5 24.8 9.5 25s-2.2.6-5 1c-5.4.7-5.8 1.1-3.5 4.1 2.2 2.9 1.8 4-2.2 6.5-4.8 2.8-12.1 9.6-13.8 12.9-.7 1.4-2.1 7.6-3 13.9-.9 6.2-1.9 12-2.2 12.7-.3.9-2.1 1.4-4.7 1.4-4.5 0-8.6 2.2-8.6 4.6 0 .8 1.1 3.7 2.5 6.4s2.5 5.6 2.5 6.4c0 .7-1.6 6.5-3.6 12.7-3.6 11.3-8.1 20.8-21.7 44.8l-7 12.4 2.2 8.3c1.6 6.1 2 9.7 1.5 13.8-.9 7.8.3 16.3 2.8 18.8 1.3 1.3 2.3 4.2 2.9 8.6 1.6 11.8 3.1 17.6 5.7 22.7 1.4 2.7 2.5 5.3 2.4 5.8-.1.4-2.5 8.5-5.2 18.1-2.8 9.6-5 17.7-5 18s36 .6 80 .6 80-.4 80-.8c0-.5-5.4-14.3-12.1-30.8-14.4-35.5-15.1-37.5-19-52.4-3.8-14.2-6.7-21.9-10.9-29-2.6-4.4-3-5.8-2.1-7.3.7-1 .9-2.2.6-2.7-.8-1.3-2-22.4-1.9-32.5.1-6.1.9-10.3 3.4-17.9l3.2-9.9 3.1 3.1 3.1 3.1-.3 14.8c-.5 29 3.4 60.2 9.9 80.4 4.1 12.7 11.7 27.9 19.6 39.5 7.2 10.6 20.9 27.3 23 28.1 1 .3 1.2 1.7.7 4.8-.3 2.4-.1 5.1.6 6.1.8 1.5 1 .7 1.1-4.1 0-4.5.3-5.6 1.2-4.7s1.9.3 4.5-2.3c2.9-3 3.3-4 3.3-8.7 0-6.3-1.8-14-6-26.6-2.5-7.5-2.9-9.6-1.9-10.8 1.7-2 .5-15-2.2-24.1l-2.1-7.1 3.1-4.5 3.1-4.5-10.1-21.4c-5.5-11.7-11.2-23.6-12.5-26.4-2.7-5.8-4.1-12.5-4.8-23.4-.2-4.1-.7-8.3-1.1-9.2-.4-1 .4-3.7 2-6.7 3.2-5.8 2.9-7.6-1.4-8.6-2.6-.5-3.3-1.4-4.2-4.8-.6-2.3-1.4-4.7-1.7-5.2-.4-.6-.8-1.9-.8-3-.1-1.1-1.9-6.3-3.9-11.5-4.3-11-5.2-16.4-3.4-21.7 1.1-3.3 1.3-3.5 2.1-1.8 1.3 3.1-.1-6.9-2.4-16.4-1-4.5-1.7-8.5-1.5-8.8.3-.2 1.5.9 2.7 2.4 2.7 3.4 2.6 2.8-2.5-11.1l-3.7-9.8 1.7-6.1c1.6-5.6 1.5-12.8-.1-17-.3-.9.6-1.2 3.3-.9 3.3.3 4.1-.1 6.1-2.7 1.3-1.7 2-3.6 1.7-4.1-.3-.6-.2-1 .3-1s1.5-1.5 2.2-3.3c.7-1.7 1.6-4.1 2.1-5.2.4-1.1 1.5-4.3 2.4-7 .8-2.8 1.9-5.9 2.4-7 2.8-6.2 3.6-10.5 1.9-10.5-.5 0-.8-.6-.5-1.4 2.3-5.9-27-11-43.3-7.5-4.1.9-6.3 2.1-8.7 4.6-1.8 1.9-3.3 3.1-3.3 2.6s-1.3-1.6-2.9-2.6c-3.9-2.3-17.7-2.4-20.8-.2-2 1.4-2.2 1.4-2.5-.7-.6-4.4-15.9-9.8-27.3-9.7-2.7.1-8.3.7-12.3 1.4m84.6 164.7c1 5.4.9 6.3-.5 7.4-1.4.9-1.5 1.5-.5 2.6 1 1.2.8 1.9-.8 3.3-2 1.8-2 1.7-2-2.1 0-6.5 1.2-17.4 2-17.4.3 0 1.2 2.8 1.8 6.2"/><path d="M320.1 144.6c0 1.1.3 1.4.6.6.3-.7.2-1.6-.1-1.9-.3-.4-.6.2-.5 1.3m39.5 230.7c.3 1 .9 1.5 1.2 1.2s0-1.1-.7-1.8c-1-.9-1.1-.8-.5.6"/></svg>