<svg xmlns="http://www.w3.org/2000/svg" width="682.667" height="512" version="1.0" viewBox="0 0 512 384"><path d="M0 152.7c0 83.9.3 152.3.7 151.9s.6-2.4.4-4.5c-.2-3.2.4-4.6 3.1-7.7 2.1-2.4 2.7-3.5 1.6-3.1-3.2 1.2-1.9-1.3 1.7-3.4 1.9-1.2 3.5-2.2 3.5-2.2-.2-1.9-3-7.8-4.3-9.1-.9-1-1.4-2.2-1.1-2.8.4-.6.2-.8-.3-.5-.6.4-1.4 0-1.7-.9-.8-2.2-.9-2.1 1.9-2.8 1.3-.3 3-1.6 3.6-2.9 3.5-6.7 6.9-7.6 15.2-3.9 6.9 3.1 7.4 4.2 6.4 14.2-.3 2.5.1 6.3.9 8.5 1.6 4.7 1.2 5.2-2.1 3.7-3.6-1.6-7.3-1.6-5.7 0 .7.7 1.2 2.7 1.2 4.5 0 1.9.7 4.7 1.5 6.3.9 1.8 1.1 3.1.5 3.5-.7.4-.7 1.2 0 2.5 1.5 2.7 1.2 6.7-.6 9.5-.9 1.4-1.3 3.3-.9 4.5.5 1.5.1 2.2-1.8 2.9-2.8 1.1-4 2.6-4.3 5.5-.3 3.7-2.4 16-3.4 20.1-2.6 10.6-.8 17 6.7 23.8 4.3 4 4 5-3.4 9.4-2.4 1.3-4.3 2.9-4.3 3.4s53.5.9 131 .9h131.1l-.1-4.2c-.1-2.4.8-9.9 1.9-16.8s2-14.5 2-16.9c.1-3.4 1.1-6.2 4.2-11.4 3.4-5.7 4.3-8.4 5-14.6.5-4.2 1.4-10 1.9-13 .5-2.9.8-5.7.5-6.1-.2-.4-3-1.5-6.2-2.5s-8.2-2.9-11.1-4.2c-6.3-2.8-12.3-3-14.4-.6-.8 1-2.8 4.2-4.3 7.1-1.6 2.9-3.9 6.4-5.2 7.8-2.3 2.5-2.5 2.5-13.1 1.8-9-.5-11.9-.3-18.4 1.4-4.2 1.2-8.6 2.6-9.7 3.1-3.2 1.7-6.8 1.3-17-2-8.3-2.7-10.9-3.1-19.6-3-9.2.1-10.3.4-14 3-5.7 3.9-7.1 4.3-11 2.4-3-1.5-4.2-1.5-10.6-.3-6.5 1.2-7.3 1.2-8.4-.3-1.4-1.9-6.4-5.7-11-8.3-1.6-1-5-1.8-7.5-1.9-5.1-.2-18.8-3.1-20.4-4.4-.6-.4-2.4-1.1-3.9-1.5s-3-1.3-3.4-2.1c-.3-.8-3.7-4.3-7.7-7.7-5.1-4.4-7.6-7.3-8.8-10.6-.9-2.4-2.4-5.2-3.2-6.1s-1.5-4-1.7-7.1c-.1-3-.8-7.1-1.4-8.9-1-3-1.6-3.5-4.5-3.5-1.8-.1-3.5-.7-3.7-1.4-.4-.9.2-1 2.2-.2 3.4 1.3 3.5 1.3 3.5-.4 0-.8-1.1-2.3-2.5-3.4-2.8-2.2-3.2-5.8-1-8.8.8-1 1.5-3.4 1.5-5.2 0-1.9.8-4 2.1-5.3 2.6-2.6 5.2-11.2 4.6-15.2-.3-2.4.1-3.1 2.2-4 1.4-.6 4.6-2.8 7.1-4.8C80.5 197 88.3 192 90.7 192c3 0 2.9-1.5-.1-3.5-2.1-1.4-2.3-2-1.6-4.7.5-1.6 1-8.5 1.1-15.1.1-8.4.6-13.1 1.6-15.1.8-1.5 1.2-3.9.9-5.2-.5-1.9.4-3.4 5-7.9 3.1-3 6.5-5.5 7.7-5.5 1.1 0 3.6-1.7 5.6-3.9 2-2.1 5-4.5 6.7-5.4s4.3-3.4 5.8-5.6c3.8-5.5 8.5-7.6 16.8-7.3 5.3.1 6.6-.2 6.2-1.2-.9-2.5 2.4-7.3 5.8-8.5 5.4-2 6.2-2.7 6.8-5.2.5-1.9 1.3-2.4 3.8-2.4 3.3 0 8.6-3.5 6.4-4.3-1.7-.5-1.5-3 .7-6.6 1.1-1.7 2.4-5.1 3.1-7.5.9-3.5 2.8-6 8.6-11.6 6.2-5.8 7.7-7.9 8.8-12 2.1-7.8 4.4-12.3 6.9-14 1.8-1.1 5.5-1.6 14.3-1.7 10.1-.1 13.3-.6 20.7-3 9.1-2.9 10.5-3 12.2-1.1.5.6 3 1.8 5.5 2.6 10 3.4 12.1 4.7 13.9 8.6 2.4 5.4 7 9.1 11.4 9.1 2.3 0 3.9-.6 4.5-1.6.6-1.1 1.6-1.4 3-1 2.7.9 3.9 9.6 2.3 16.2-1.3 5.2-.9 6.4 2.3 6.4 1.8 0 2.5.9 3.6 4.2.7 2.4 1.5 5 1.8 5.8.8 2.5 1.2 4.2 1.9 10.4l.6 5.9 1.9-2.3c1-1.3 2.3-3 2.8-3.9s1.1-1.3 1.4-1c.4.3-.7 2.4-2.4 4.7-3.4 4.8-3.6 5.2-1.5 5.2.9 0 2 1 2.5 2.2.7 1.9.9 1.4 1.1-2.7l.2-5 .6 4 .6 4 2.3-3.7c1.3-2.1 3.6-4.7 5.2-5.8 2.7-1.9 2.9-2.4 2.5-7.3l-.5-5.2 1.3 4.5 1.3 4.4 3.3-5.9c1.9-3.3 3.7-6.2 4-6.5.4-.3 1.5-1.6 2.4-3 1-1.5 1.7-1.9 1.7-1 0 .8-1.4 3.5-3.1 6-1.6 2.5-4.1 6.6-5.5 9.2-1.3 2.7-2.9 4.8-3.4 4.8-.6 0-1 .5-1 1 0 .7.6.7 1.9 0 1.1-.5 2.6-1 3.3-1 1.4 0-2.8 2.2-7.4 3.9-1.6.6-3.5 2.6-4.7 4.9-1.1 2.1-2.7 4.4-3.5 5.1-1 .8-1.6 2.9-1.6 5.2 0 2.1-.5 5-1 6.4-1 2.6-.9 2.6 2.2 2.1 3.2-.6 3.2-.5.6.5-1.4.5-2.9 1.7-3.2 2.5-.4 1-.2 1.2.6.8.7-.4.8-.3.4.5-.4.6-.2 1.8.4 2.6.7.8 1 2.4.7 3.5-.3 1.2 0 2 .8 2 1.7 0 3.2-1.9 4.1-5.4.5-1.9.9-2.4 1.5-1.5.6 1 1.2.9 2.9-.6 2-1.8 2-1.8 1.7.1-.2 1-.9 2.9-1.6 4.2s-1 2.8-.8 3.5-.2 2-1.1 2.9c-.8 1-1 1.8-.4 1.8.5 0 2.2-1.4 3.7-3.2 1.9-2.2 2.5-4 2.3-6.4-.1-1.8.1-3.6.5-4s.7.7.7 2.4c0 1.8.5 3.2 1 3.2.6 0 1-.6 1-1.3 0-.9.2-.9.8.1.7.9 1.4.6 2.8-1.4 4.1-5.7 5.2-6.7 6.9-7 1.4-.2 1.2.3-.8 2.4-3.5 3.6-8 12.2-6.4 12.2 2.6-.1 5.8-2.8 12.6-10.5 4.6-5.2 7.5-9.4 8.2-12 .6-2.2 1.8-4.8 2.7-5.8 1.5-1.7 1.5-2.1-.5-5.8-2.4-4.4-2-5.1.9-1.4 2.3 3 3.4 2.6 4.3-1.4.3-1.6 1.3-3.5 2.1-4.2 2.1-1.7 1.7-6-1.1-13.6-1.5-3.8-2.1-6.3-1.5-5.7s2.2 4.2 3.5 8c2.6 7.6 2.3 7.8 6.1-3.9 2.5-7.8 3.3-7.1.9.9-1.8 6.1-1.9 5.9.3 4.3 1.5-1.2 1.6-1.2.6.1-.6.8-1.9 3.7-2.8 6.3-1 2.6-3.3 7.1-5.2 9.9-1.9 2.7-3.4 5.6-3.4 6.3s-.7 1.8-1.5 2.5c-3.8 3.2-.8 2.4 6.2-1.6 4.3-2.4 8.6-4.7 9.6-5 1.6-.5 1.8-1.2 1.2-4.2-1.6-8.5-2.2-13.2-1.6-13.7.3-.3 1.1 2.2 1.8 5.7.7 3.4 1.9 6.9 2.7 7.7 1.4 1.3 2.1.9 6.4-3.5 2.7-2.7 5.3-5.6 5.8-6.4s2.5-2.9 4.3-4.5l3.4-3-3.6 4.9c-5.3 7.1-5.1 7.9 1.4 4.5 2.3-1.1 4.3-1.8 4.6-1.5s-1.9 1.6-4.8 2.9c-3 1.3-6 3.1-6.8 4-.7 1-1.9 1.7-2.5 1.7-1.7 0-7.8 6.5-6.9 7.4.4.4 0 .4-.8.1s-2.8.1-4.3.8l-2.7 1.5 2.5.4c1.4.3 2.3.2 2.1-.3-.8-1.2 1.8-1.7 3.8-.7 1.2.6 3.3.4 6.5-.8 5.4-2 6.5-3 10.9-9.9 3.5-5.4 4.6-5.6 1.3-.3-3.3 5.4-2.3 5.8 4.5 1.7 2.2-1.3 4.3-2.4 4.7-2.4.3 0 .9-.3 1.3-.7s1.4-.4 2.3-.1c1.1.5 1.3.3.7-.7-.5-.9-.4-1.1.4-.6.9.6.9 1.1 0 2.2-1 1.2-1.4 1.2-2 .2-.8-1.2-1-1.1-1.3 1.2 0 .5-.4.9-.7.7-.3-.1-1.4.5-2.4 1.3-1.1.9-1.6 1-1.1.2.4-.6.2-1.2-.3-1.2-.6 0-1.1.7-1.1 1.5s-.9 1.5-2 1.5-2 .4-2 1c0 .5-.7 1-1.5 1-1.7 0-2 1.6-.5 2.5.8.5.8 1.1.1 1.9-.6.7-.8 2.3-.5 3.7.4 2.3.4 2.3-.6-.2-1.3-3.1-6.6-4.5-8.8-2.3-.7.8-2.5 1.5-4 1.6-5.2.3-5.7.4-6.7 1-.6.3-3.2.9-6 1.3-10.5 1.5-12.5 3.3-13.9 12.2-.8 5.4.2 5.4 5.9.2l4.4-4-1.2 3c-.6 1.7-1.6 3-2.1 2.8s-2.1.8-3.5 2.1-5.3 4.3-8.6 6.5-6.1 4.4-6.3 4.9c-.2.4-1.4.8-2.6.8-2.6 0-4.6 1.8-4.6 4.1 0 1.5.5 1.6 2.9.9 1.5-.4 3.8-1.3 5-1.9 1.1-.7 2.1-.9 2.1-.6s-2.4 1.7-5.4 3.1c-6.9 3.2-8 4.5-7.2 8.9.6 3.1 1 3.5 2.9 2.9 2.1-.6 2.1-.5-.4 2.2-2.7 3-4.4 6.4-3.1 6.4.4-.1 2.3-1.4 4.2-3 1.9-1.7 3.8-3 4.4-3 .5 0 1.5-.8 2.2-1.7.7-1 1.6-1.4 2.1-.9.4.4 0 1.3-1.1 2-3.6 2.2-14.1 10.8-14.9 12.3-1.5 2.5-.2 2.4 3.4-.2 1.9-1.4 5.4-3.4 7.9-4.6 2.5-1.1 6.1-2.8 8-3.8s5.2-2.2 7.3-2.5c6-1.1 8.5-2.6 8-4.6-.6-2.2 1.5-3.7 2.3-1.6.6 1.6 2 1.3 7.1-1.9 4-2.3 6.5-8.9 6.1-15.8-.2-2.6-.5-4.7-.8-4.7s-.6-1.4-.7-3.1-.7-3.6-1.2-4.3c-.6-.7-.6-1.8-.1-2.5.6-1 1.3.2 2.4 3.9.9 3 1.6 6.1 1.6 6.9 0 .9.4 2.2.9 3 .7 1.1 1.3.5 2.6-2.5 1.3-3.1 1.4-4.3.5-5.8-1-1.6-.9-1.8.4-1.3 1.4.6 1.6.1 1.1-3.1l-.7-3.7 1.7 2.9c.8 1.6 1.3 3.6 1 4.3-.2.8-.1 1.1.4.8.9-.5 4.9-8.5 6.4-12.5.3-.8.6.2.6 2.2.1 3.7 1.4 5.7 2.6 3.8.3-.5 1.2-1 1.8-1 .7 0 .1.9-1.2 1.9l-2.4 1.8 2.4.6c1.2.3 2.8.2 3.5-.4.8-.7 1.3-.6 1.6.2.2.7.4-.5.5-2.5.1-3.3-.1-3.5-1.5-2.4-1 .7-.7.1.4-1.2 1.2-1.4 2.4-3.2 2.7-4q.6-1.8.6.3c.1 1.6.3 1.6 3.1.2 4.1-2.1 3.8-1.1-.5 1.5-3.2 2-3.5 2.5-3.5 7.1 0 2.7.4 4.9.9 4.9s2.2-1 3.8-2.3c2.9-2.4 12.3-7.1 12.9-6.5.2.2-2.1 1.7-5.1 3.4-5.6 3-6.8 4.4-3.7 4.4.9 0 2.4.5 3.2 1.1 1.1.8.7.9-2 .6-1.9-.2-4.4-.1-5.5.4-1.1.4-2.9 1-4 1.4-1.6.5-1.7.8-.5 1.5 1.1.7.7 1-1.6 1-3.3 0-12.9 6.1-12.9 8.2 0 1.8 7.1 3.6 14.3 3.7 3.5.1 6.1.5 5.8.9-.3.5-1.9.7-3.6.4-1.9-.3-3 0-3 .8 0 .9-1.1 1-3.7.6-11.1-1.9-15.3-1.9-17.3-.1-1.1 1-2 2.3-2 3 0 1.8-3.9 5-11 8.9-5.8 3.2-6.2 3.6-3.5 3.6 3.2 0 14.8-5 15.9-6.9.4-.6 1.2-1.1 1.8-1.1s.5.7-.3 1.7c-1.3 1.5-1.2 1.5.9.4 1.2-.6 2.2-1.6 2.2-2.1 0-.6.5-1 1.1-1s.1 1.6-1.1 3.6c-1.2 1.9-2.1 3.6-1.9 3.8s3.1.8 6.4 1.5c5 .9 6 .9 6.8-.4 2-3.7 8.7-10.5 8.7-9 0 1-1 2.5-2.2 3.5-1.3 1-3.1 3.2-4.2 5l-1.8 3.2 3.3-.7c3-.7 3.2-.6 2.1.8-1.1 1.3-.9 1.8 1 3.1 1.2.9 2.8 1.6 3.5 1.6s1 .9.8 2.3c-.4 2.1-.4 2.1 1 .3 1.8-2.3 1.8-2.7.6-6-.6-1.3-2-2.6-3.3-2.9l-2.3-.4 2.4-.2c1.3 0 3-.9 3.7-1.9 1.2-1.6 1.4-1.5 1.5.8.1 1.4.2 3.8.1 5.3 0 2 .4 2.7 1.4 2.3 1.1-.4 1 0-.2 2l-1.7 2.5 3.6-1.7c4.2-2 4.4-3 1.8-8.2-1.9-3.8-5.5-18.2-4.7-19 .3-.2 1.3 2.5 2.4 6 2 6.3 5.9 14.8 6.9 14.8 1.3 0-1-8.6-3.6-13.3-1.6-2.9-3.7-7.9-4.6-11.2s-2.2-6.3-2.8-6.7c-.8-.5-.6-.8.5-.8 1.2 0 2.1 1.3 2.8 4.2 1.5 5.9 3.7 10.8 6.5 14.2l2.3 2.9.7-3.7c.4-2 .5-5.6.2-7.9s-.8-6.2-1.1-8.7l-.4-4.5 1.1 3.7c.6 2.3 1.7 3.8 2.6 3.8 1.1 0 1.2.3.4.8-.7.5-1.1 3.3-1 7.7.1 3.9-.2 10.3-.6 14.2-.4 4-.5 7.3-.2 7.3.4 0 2.2-1.2 4.1-2.6 4.5-3.4 5.5-2.5 1.2 1.1-1.8 1.5-3.3 3.3-3.4 4s-.5 2.2-.8 3.3c-.5 1.6-.3 1.9 1.1 1.6 1-.3 2.7-1.2 3.8-2 1.7-1.3 1.8-1.7.7-3.5-.8-1.2-.9-1.8-.4-1.5.6.3 1.3 0 1.5-.6.3-.7.6-.3.6.9.1 3 .6 2.9 4-.6 1.6-1.6 3.2-2.7 3.5-2.4.3.4.6.1.6-.5 0-.7.6-1.2 1.3-1.2.6 0 3-1.4 5.1-3 5-3.8 5.8-3.8 4 0-.9 1.6-2.3 3-3.2 3-2.1 0-7.8 3.4-11.3 6.6l-2.6 2.5 2.5 6.4c1.4 3.6 2.9 6.5 3.3 6.5.3 0 2.5-2.1 4.9-4.8 2.3-2.6 5.1-5.7 6.2-6.9 1.1-1.3 3.7-5.9 5.8-10.3 2.2-4.4 4.2-8 4.6-8 .7 0 .6.2-3 8.3-3.1 6.8-1.8 6.7 2-.1 1.5-2.6 4-6.1 5.5-7.7 1.5-1.7 3.2-4.6 3.7-6.5l1-3.5.1 4.4c.1 3.8-.5 5-5 10.4-2.7 3.3-5.6 7.2-6.4 8.7s-2.6 3.5-4 4.4c-1.5 1-2.4 2-2.2 2.3.6.6 5.1-2.2 9.4-5.8 3.7-3.2 13.6-7.1 15.8-6.3.8.4 1.5 1.2 1.5 2s.6 1.1 1.7.7 1.4-.3.9.5c-.4.7-1.3 1.2-1.9 1.3-1.8 0-6.2 5.9-4.5 5.9 1.8 0 6.9-5.2 7.2-7.3.3-2 7.6-10.1 9.3-10.3.8-.1 0 1.3-1.7 3.2-3.8 4.3-3.8 5.1-.1 2.5 1.5-1.1 3.1-1.8 3.4-1.5 1 1 5.1-1.7 9-5.9 2.1-2.3 3.4-3.3 2.8-2.2-1.4 2.9-8.2 9.2-10.9 10-1.2.3-2.7 1.5-3.3 2.6-.5 1.1-1.3 1.8-1.7 1.7-.4-.2-2.4 1.4-4.5 3.4-2.1 2.1-3.4 3.8-2.9 3.8.6 0 .5 1.7-.2 4.2-.7 2.4-1.6 6-1.9 8.1-.6 3.8-.6 3.9 2.1 3.2 4.1-1 5.7-3.1 5.7-7.6 0-4.1 0-4.1 1.1-1.3.7 1.5 1 3.4.7 4.1s-.4 1.3-.2 1.3 4.8-2.2 10.2-4.8c5.3-2.7 9.7-4.5 9.7-4.1 0 .8-8.4 5.9-10.4 6.4-2.8.6-12.3 5.4-13.5 6.9-1.2 1.4-1 1.6 1.5 1.7q3.15.15.9.6c-1.1.3-2.6 1-3.2 1.5-.8.6-1.3.7-1.3.1 0-.5-2.8 0-6.2 1.1-4 1.3-5.6 2.2-4.3 2.4 3 .6 4.3 2.2 1.7 2.2-1.2 0-2.2.5-2.2 1.1 0 1.6 4.2 0 7.4-3 2.5-2.3 2.7-2.4 1.5-.3-.8 1.2-3.4 3.2-5.9 4.5l-4.5 2.2 10.5.6c5.8.3 8.3.6 5.7.7s-5.9.9-7.2 1.8c-1.4.9-3.6 1.4-4.9 1.2-2.2-.4-2.3-.3-1.5 1.9 1.4 3.7 1.2 3.7-2.8-.7-3.8-4.1-6.1-4.8-10.7-3-2 .7-2.6.6-2.6-.4 0-3.3-13.5-4.1-17-1-.9.7-2.7 1.7-4 2.3l-2.5 1 2.5.1c2.1.1-5.3 3.1-16.5 6.7-1.1.3-3.4 1.7-5.1 3-1.8 1.3-5.9 3.4-9.2 4.7-11.3 4.5-27.1 17.3-36.1 29.5-4.7 6.3-5.7 7.1-17.3 13-15.4 7.9-16.2 8.4-15.3 11 .9 3 2.9 2.6 6.4-1.4 3.5-4.1 5.1-4.6 2.7-1-2 3.1-1.4 4.5 2 4.5 1.4 0 3.4.5 4.4 1 1.9 1 3.2.6 8-2.5.9-.6.5.1-.9 1.3-2 1.9-2.2 2.5-1 3.3.8.5 2.4.9 3.7.9s2.2.6 2.2 1.6c0 1.1-.5 1.4-1.7.9-6.1-2.3-10.5-2.9-13.4-1.8-2.6 1-2.9 1-1.9-.3 1.4-1.6 1.5-1.5-2.7-1.9-1.8-.1-3.3.1-3.3.6 0 .4-1 .6-2.2.4-1.9-.4-1.8-.1 1.1 2.8 2.2 2.4 3.9 3.3 5.9 3.2 1.5-.1 1.9 0 1 .2-2.4.6-2.3 1.5.7 4.7 1.9 2 2.1 2.6.8 2.6-1.4 0-1.4.2.2 2 2.2 2.4.9 2.7-1.7.3-1.7-1.5-1.9-1.5-3.8.2-1.1 1-1.7 2.3-1.4 2.9s-.1.3-.9-.7c-.8-.9-1.7-4-2.1-6.8l-.7-5-3.2.7c-2.6.5-3 .4-2-.7.9-1.1.6-2-1.4-4.3-2.1-2.5-2.7-2.7-4.8-1.8-1.4.7-2.7 2.3-3 3.9-.4 1.5-1.3 4.2-2 6-3.9 8.8-4 19.9-.5 36.6 1.4 6.9 1.3 24.2-.1 30.7-1.5 6.2-1.7 13.2-.6 17.3l.7 2.7h122.9l-.4-12.3c-.3-7.4-1.2-14.7-2.3-18.7-1.7-6.3-1.9-6.5-5.4-7.1-4.9-.8-6.5-2.3-7.3-6.7-.7-4.4.4-10.1 4-20.2 2.9-8.4 3.6-17.6 2.1-31.6-.6-5.5-.5-8.7.2-10.1.6-1.1 1.5-3.9 2.1-6.2l.9-4.1-5.2-3.7c-6.2-4.5-6.6-5-6.6-8.7 0-4.2 5.3-8.7 12.8-10.9 7.2-2.1 9.6-1.4 10.5 3.2.4 1.8 1.4 3.2 2.7 3.6q2.1.6 1.5 2.4c-.3 1 .1 3.1 1 4.7 1.3 2.7 1.1 7.4-.4 7.4-.3 0-1.2.4-1.9.8-1 .7-.9 1.5.4 4 .8 1.8 2 3.2 2.5 3.2.6 0 1.6 1.5 2.4 3.2 1 2.6 5.9 10.1 8.2 12.7.2.3.8 0 1.4-.6 1.3-1.3 3.9-.6 3.9 1.1 0 .6-1.4 2.9-3 5-1.7 2.2-3 5-3 6.3s-.5 3.2-1.2 4.2c-1.3 2.1.4 4.8 5.3 8.9 2.2 1.8 3.2 2 5.2 1.3 3.1-1.2 5.6.9 3.4 2.8-.8.6-1.6 1-1.8.8-1.3-.6 3.1 3 4.7 3.9 2 1.2 1.1 3.4-1.5 3.4-2.1 0-8.3-4.1-15.2-10l-5.2-4.5.7 4.3c.3 2.4 2.3 8.4 4.2 13.5 6.5 16.4 5.8 20.1-3.7 19.1-5.8-.6-6.1.1-2.9 8.5 1.2 2.9 2.4 8.9 2.7 13.2.4 4.8 1.1 8.3 1.9 9 .8.6 1.4 2 1.4 3 0 1.8 1.3 1.9 27 1.9h27V0H0zM441.3 9.5c-.3.9-.8 1.4-1 1.1-.3-.3-.2-.9.2-1.5.9-1.6 1.5-1.3.8.4m-138.4 2.2c1.2 1.4 1.9 2.9 1.6 3.2-.4.3-.9.1-1.3-.4-.4-.6-1.6-1.5-2.6-2.1-2.5-1.3-3.2-3.4-1.3-3.4.9 0 2.5 1.2 3.6 2.7M97.3 14.1c.4 1.6.3 1.8-.9.8-1.6-1.3-1.9-2.9-.5-2.9.5 0 1.1.9 1.4 2.1m40.7 7c-.7 1.1-1.4 1.9-1.6 1.6-.7-.7.7-3.7 1.7-3.7.6 0 .5.9-.1 2.1m104-.1c0 .5-.2 1-.4 1-.3 0-.8-.5-1.1-1-.3-.6-.1-1 .4-1 .6 0 1.1.4 1.1 1M56.5 33.9c.7 1.2-1.2 2.4-2.5 1.6-1.1-.7-.4-2.5 1-2.5.5 0 1.1.4 1.5.9m33.6 28.4c-1.3 1.3-2.6.3-1.6-1.2.3-.6 1.1-.8 1.7-.5.6.4.6 1-.1 1.7m223.6 3.9c-.3.8-.6.5-.6-.6-.1-1.1.2-1.7.5-1.3.3.3.4 1.2.1 1.9m-301.3 8c2.5 3.6 2.1 5.1-.9 3.2-1.4-.9-2.5-2.5-2.5-3.5 0-2.5 1.5-2.4 3.4.3M368 79.3c0 .2-1.5 1.6-3.2 3.3l-3.3 2.9 2.9-3.3c2.8-3 3.6-3.7 3.6-2.9m-66 2.1c0 .2-.7.9-1.5 1.6-1.3 1.1-1.4 1-.9-.4s2.4-2.3 2.4-1.2m48 10.4c0 1-.7 2.7-1.5 3.8-1.4 1.9-1.4 1.9-1.5-.3 0-2.8 1-5.3 2.1-5.3.5 0 .9.8.9 1.8M324 95c-.8.5-2.2.9-3 .9-1 0-.8-.3.5-.9 2.7-1.2 4.3-1.2 2.5 0m39.5 9c-.3.5-1.2 1-1.8 1-.7 0-.6-.4.3-1 1.9-1.2 2.3-1.2 1.5 0m-342 2 3 2h-3.8c-4.1 0-7.7-1.4-7.7-3 0-1.7 5.4-1.1 8.5 1m357.2 14.7c-.3 1-.5.4-.5-1.2 0-1.7.2-2.4.5-1.8.2.7.2 2.1 0 3m-69.7.8c-.7.8-1.7 1.5-2.3 1.5s-.2-.7.9-1.5c2.5-1.9 3-1.9 1.4 0m66.7 2.2c-.3 1-.5.4-.5-1.2 0-1.7.2-2.4.5-1.8.2.7.2 2.1 0 3m6.5 2.5c-.7.7-1.2.8-1.2.2s.3-1.4.7-1.7c.3-.4.9-.5 1.2-.2.2.3-.1 1.1-.7 1.7m-17.5.4c-.3.3-1.2.4-1.9.1-.8-.3-.5-.6.6-.6 1.1-.1 1.7.2 1.3.5m-5.4 1.1c-.7.2-1.9.2-2.5 0-.7-.3-.2-.5 1.2-.5s1.9.2 1.3.5m56.4 4.9c-.3.3-1.2.4-1.9.1-.8-.3-.5-.6.6-.6 1.1-.1 1.7.2 1.3.5m49.9 14.1c-1.1 1.1-1.7-.4-.9-2.3.7-1.8.8-1.8 1.1-.1.2 1 .1 2.1-.2 2.4m6.1 7.7c-.8 1.2-2.2 2.3-3.1 2.3-1.1 0-.9-.6.9-2.3 1.4-1.3 2.5-2.9 2.6-3.6 0-1 .2-1.1.6 0 .3.7-.2 2.3-1 3.6m10.3-.3c-.7 1.1-1.4 1.8-1.7 1.5s0-1.2.7-2.1c1.8-2.1 2.3-1.9 1 .6m-14.4 7.4c-1.1.8-2.7 1.5-3.5 1.5-.9-.1-.2-.7 1.4-1.5 3.9-1.8 4.4-1.8 2.1 0M478 165c0 .5-.5 1-1.1 1-.5 0-.7-.5-.4-1 .3-.6.8-1 1.1-1 .2 0 .4.4.4 1m-47 5c-2 1.3-3.3 1.3-2.5 0 .3-.6 1.4-1 2.3-1 1.5 0 1.5.2.2 1m78 10c-2 1.3-3.3 1.3-2.5 0 .3-.6 1.4-1 2.3-1 1.5 0 1.5.2.2 1m-73.5 1c-2.7 1.2-4.3 1.2-2.5 0 .8-.5 2.2-.9 3-.9 1 0 .8.3-.5.9m53 14c.3.5.1 1-.4 1-.6 0-1.1-.5-1.1-1 0-.6.2-1 .4-1 .3 0 .8.4 1.1 1M441 210.5c-1.4.8-2.9 1.4-3.5 1.4-.5 0 .1-.6 1.5-1.4s3-1.4 3.5-1.4c.6 0-.1.6-1.5 1.4m56.3 31.6c-1.7 1.7-3.7.1-2.2-1.7.8-1 1.5-1.2 2.3-.4.7.7.7 1.3-.1 2.1m-84.8 5.3c4.5 1.9 5.7 4.5 4.9 10.8-.9 7.7-2.6 9.8-7.5 9.8-2.6 0-5.3.9-7.7 2.5-6 4.1-10.2 2.9-10.2-2.8 0-3.1 6.1-15.5 8.8-18 1.6-1.5 5.8-3.5 7.5-3.6.4-.1 2.3.5 4.2 1.3M59.8 257.5c-.3.3-.9-.2-1.2-1.2-.6-1.4-.5-1.5.5-.6.7.7 1 1.5.7 1.8M476 266c0 .5-.2 1-.4 1-.3 0-.8-.5-1.1-1-.3-.6-.1-1 .4-1 .6 0 1.1.4 1.1 1m-88.7 12.2c-.2.5-1.9.8-3.6.8-1.8 0-2.7-.4-2-.8 1.5-.9 6.2-.9 5.6 0m-41.3 2.2c0 .2-.7.7-1.6 1-.8.3-1.2.2-.9-.4.6-1 2.5-1.4 2.5-.6m17 9.6c0 .5-.2 1-.4 1-.3 0-.8-.5-1.1-1-.3-.6-.1-1 .4-1 .6 0 1.1.4 1.1 1m15 0c0 .5-.4 1-1 1-.5 0-1-.5-1-1 0-.6.5-1 1-1 .6 0 1 .4 1 1m-30 11c0 .5-.2 1-.4 1-.3 0-.8-.5-1.1-1-.3-.6-.1-1 .4-1 .6 0 1.1.4 1.1 1"/><path d="M289.7 108.1c-1.4 2.6-1.5 3.4-.5 4.8 1.2 1.4 1.1 1.5-.5.2-1-.8-2.1-1-2.6-.5-1.5 1.6-3.3 10.6-2.3 11.6 1.2 1.2 7.4-6.2 6.7-8-.3-.8 0-1 .7-.6.7.5.9.2.6-.7-.3-.8 0-2.3.8-3.4 1.7-2.3 1.8-6.5.2-6.5-.7 0-2.1 1.4-3.1 3.1m-.5 13c-1.3 1.6-1.9 2.9-1.3 2.9.8 0 .7.6-.1 2-1.3 2-.6 3.6 1 2.6.6-.3 1.5-2 2.1-3.6.6-1.8.6-2.8.1-2.5-.6.4-1 .2-1-.3 0-.6.7-1.2 1.5-1.6.8-.3 1.5-1 1.5-1.6 0-1.7-1.4-1-3.8 2.1m51.7 4.3c-2.8 3-4.9 5.7-4.7 6s-.7 1.3-1.9 2.1c-2.7 1.9-4.6 5.2-3.9 6.4.3.5 2.9-.3 5.7-1.7 4.3-2.2 5.5-3.5 7.4-7.7 2.4-5.5 3.8-10.5 3-10.5-.3 0-2.8 2.4-5.6 5.4m-45.3 4.3c-.7 2.3.2 5.3 1.5 5.3 1.1 0 1.1-4.1 0-5.9-.7-1.1-1-1-1.5.6m92.6 0c-2.3.5-5.9 4.9-4.8 6 .3.3.1 1.2-.5 2-.9 1-.8 1.3.4 1.3 2.2 0 8.3-5.5 9-8 .5-2 .2-2.1-4.1-1.3m5.8 2.3c0 .5.5 1 1 1 .6 0 1-.5 1-1 0-.6-.4-1-1-1-.5 0-1 .4-1 1m-113 1.5c-.8.9-.8 1.5-.2 1.5 1.8 0 4.2-1.2 4.2-2.1 0-1.4-2.6-1-4 .6m13.6 3.2c-1 1-.7 4.1.5 4.9 1.2.7 2.9-1.2 2.9-3.2 0-1.4-2.5-2.6-3.4-1.7M280 138c0 .6-1.6 2.6-3.6 4.5s-3.1 3.5-2.5 3.5c.5 0 1.3-.4 1.6-1 .3-.5 1.6-1.5 2.8-2.1s.3.8-2.1 3.1c-2.5 2.4-4 4.6-3.5 5.1s2.5-1.1 4.7-3.7c2.1-2.5 3.6-4.8 3.3-5.1s-.2-1.6.3-2.9c.6-1.5.6-2.4 0-2.4s-1 .5-1 1m97.8 1.7c-2.9 3.4-3 4.8-.2 2.1 1.5-1.5 2.6-3 2.3-3.3s-1.3.3-2.1 1.2M291 143c-.6 1.2-.9 2.4-.7 2.7.9.8 4.8-1.8 4.4-3-.6-2-2.5-1.9-3.7.3m9.5 0c-.4.6-.3 1.6.3 2.2 1.3 1.3 2.3-.4 1.3-2.1-.7-1-1-1-1.6-.1m25.3.6c-.3.3-2.3.7-4.3 1-4.6.6-4.9.7-7.5 4.4l-2.1 2.9 4.2-1.4c5.2-1.9 6-1.9 5.3-.1-.3.8-1.3 1.3-2.2 1.1-3.2-.5-6.8 2.4-14.7 11.6-7.8 9.2-7.8 9.2-8.5 16.3-1 9.8 0 15.1 2.1 11.4.5-1 4-3.3 7.7-5.3 9.4-5 9.8-5.4 12.3-12 1.9-5.1 2-6.3.9-9.3-.6-1.8-1-3.6-.7-3.8.2-.3.7.7 1.1 2.1.6 2.5 2 3.3 3 1.6.6-.8.7-2.6.6-7.1 0-.8.2-3.3.4-5.5.3-2.2.5-4.4.5-4.8.1-.5.6-.5 1.1-.2.6.3 1.3-.1 1.6-1 .7-1.7.1-2.9-.8-1.9m-35.2 5.7c-4.7 2.7-6.5 5.2-5 6.7 2 2 13.2-3.9 11.8-6.1-.3-.5.1-.9.8-1 .7 0 .4-.4-.7-.9-2.8-1.2-2.5-1.2-6.9 1.3m11.4 2.9c-1.8 1.8-5.1 4.5-7.2 5.9-3.7 2.5-5.4 4.6-7.1 9.3-.8 2 10.5-8.1 13.3-11.9.8-1.1 2.4-2.7 3.5-3.7 1.1-.9 1.7-1.9 1.4-2.3-.4-.3-2.1.9-3.9 2.7m-34.4 7.7c-1 1.6.1 10.6 1.7 13.6.8 1.7 2.7 4.1 4.1 5.4 1.4 1.4 2.6 3.5 2.6 4.7 0 1.3.9 2.8 2 3.4 2.5 1.3 2.5 1.3-.4-8.9-1.8-6.1-2.2-9.1-1.5-10.8 1.5-3.9 1.1-5.2-2.1-6.8-3.3-1.7-5.6-1.9-6.4-.6m80 9.2c-1.5.4-3.6 1.5-4.6 2.4-2.5 2.3-12.6 8.2-17.9 10.6-7 3.1-10.2 6.6-9.5 10.4.4 2.2.1 3.5-1 4.4-2.2 1.9-4.6.7-3.9-1.9.6-2.1.5-2.1-3.1-.3-2.1.9-3.5 2.2-3.2 2.9s-.3 1.8-1.2 2.6c-1.6 1.2-1.6 1.1-.3-.7 1.4-1.9 1.4-1.9-.3-.3-1.8 1.5-1.7 1.8.9 6.6 1.5 2.8 4 6.5 5.5 8.3l2.7 3.3 4.1-3.5c2.4-2 4-4 3.7-4.8-.4-1-.2-1.1.7-.4.8.6 2.5.7 4.6.1 2.8-.7 3.2-1.2 2.7-3.1-.7-2.1-.7-2.2.8-.2 1.5 1.9 1.6 1.9 6.8-.5 2.9-1.4 6.9-3.6 8.8-4.8 3.6-2.4 4.9-2.9 11.3-3.9 3.5-.5 3.7-.7 3.2-3.7l-.6-3.1 2.1 3c2.4 3.5 7.4 5 9.2 2.9.9-1.1 1.5-1.1 2.5-.3 1.1.9 2.9.2 7.9-3.1 3.6-2.4 7.4-5.4 8.5-6.7 1-1.3 2-1.8 2.2-1.2s2.1 0 4.6-1.7c3.9-2.6 4.2-3 2.6-4.1-1-.7-2.6-1.3-3.7-1.3-1 0-1.5-.5-1.2-1 .3-.6-.1-1-.9-1s-2-.9-2.6-2-1.4-1.8-1.9-1.6c-.4.3-1.5-.4-2.4-1.5-1.5-1.6-3-1.9-11.6-1.9-5.5 0-11.1.4-12.6 1s-4.1.7-6.3.2c-2-.5-5-.5-6.6-.1m120.1.9c-2 1.1-4.1 2-4.7 2-1.4 0-15.8 10.3-16.4 11.8-.6 1.4 4.9-1.1 5.9-2.8.3-.6 2.1-1.7 3.8-2.6l3.2-1.5-3.5 3c-1.9 1.7-5.6 4.5-8.2 6.2-5.3 3.4-6 4.4-2.5 3.4 2.2-.6 2.2-.6.2.9-3.7 2.8-4.6 3.8-4.1 4.3.8.8 9.6-5.7 9.6-7 0-.7 1.5-1.8 3.3-2.5 1.7-.7 5.5-3.3 8.2-5.8 2.8-2.5 6.2-5.2 7.7-6 2.3-1.2 3.1-3.4 1.7-4.8-.3-.3-2.2.3-4.2 1.4m-77.7 2.1c6.6 5.9 13.1 7.8 7.9 2.3-2.8-3-4.3-3.9-8.4-4.8l-3-.7zm21.5 5c-.4.6-1.3.8-2 .5-1.8-.7-5.1 3.2-3.9 4.4.7.7 2 .2 3.8-1.5 1.5-1.4 3.1-2.5 3.7-2.5.5 0 .9-.5.9-1 0-1.3-1.7-1.3-2.5.1m10.8 3.5c-4.7 3.6-4.4 6.1.3 2.9 2-1.4 4.1-2.5 4.5-2.5.5 0 .6-.7.3-1.5-.8-2-1.4-1.9-5.1 1.1m46.8 2.4c-3 2.8-5.3 5-5 5 .2 0 1.9-.4 3.7-.9 4-1.2 4.2.3.2 1.8-1.6.6-4.3 1.6-5.9 2.2s-3.8 2-4.7 3c-1 1.1-4.4 3.4-7.6 5.1s-5.7 3.2-5.6 3.4c.2.1 3.9-.4 8.2-1.1 4.4-.8 8.3-1.2 8.7-.9.4.2.9-.1 1.1-.7.2-.5 2.2-1.3 4.5-1.6 3.7-.5 4.4-1 5.3-3.9.6-1.9 1-4.4.8-5.7-.1-1.4.2-3 .8-3.8 1.4-1.8 2.7-6.9 1.7-6.9-.5.1-3.2 2.3-6.2 5m-60.5.5c-1.6 1.2-1.7 1.7-.6 3 1.7 2.1 2.7 1.9 3.4-.7.7-3-.5-4-2.8-2.3m16.4-.2c-1.4.7-2.5 2.2-2.5 3.2 0 1.3-.6 1.9-1.7 1.7-2.1-.3-3.4 3.4-1.8 5.3 1 1.2.9 1.5-.4 1.5-1.8 0-2.2 2.5-.6 3.5.6.4.8 1.1.5 1.6-.4.5-.4.9-.1.9s2.5-2.7 5-5.9c4.6-6 5.5-8.4 3.6-9.6-.8-.5-.7-1.1.1-2.1 1.4-1.7 1.1-1.7-2.1-.1m-25.5 2.4c-6.9 1.6-13.5 4.7-13.5 6.3 0 2.2 2 3 6.8 3 3.2-.1 4.1-.7 6.7-4.3 4.4-6.2 4.4-6 0-5m58.5 1.7c-.6.9-1 2.1-.8 2.8.3.8.9.4 1.7-1 1.5-2.8.9-3.9-.9-1.8m-55.2 1.4c-.9.9-2.1 2.7-2.7 3.9-1 2-.9 2.2.6 1.6 2.6-.9 5.3-3.4 5.3-4.9 0-2.1-1.6-2.5-3.2-.6m34.4.5c-3.4 3.6-2.7 5.5.8 2.2 1.7-1.6 3-3.2 3-3.7 0-1.5-1.6-.8-3.8 1.5m-158.2.6c0 .5.5 1.3 1 1.6.6.3 1 .2 1-.4 0-.5-.4-1.3-1-1.6-.5-.3-1-.2-1 .4m171 3.2c-4.1 4.1-4.1 4.1-1.3 3.5 4-1 9.6-7.6 6.4-7.6-.5 0-2.8 1.9-5.1 4.1m-22.8-1.1c-1 1.6-1 2 0 2 .7 0 .3.7-.9 1.5-2.6 1.8-6.6 8.1-6.1 9.5.6 1.8 6.8-4.3 8.7-8.5 2.4-5.5 1.2-9-1.7-4.5m-44.7 1c-.3.5.1 1 .9 1 .9 0 1.6-.5 1.6-1 0-.6-.4-1-.9-1-.6 0-1.3.4-1.6 1m26 1.7c-6.4 1.3-8.7 2.6-10.1 5.9-1.6 3.9-1.8 9-.4 9.9.6.3 1-.1 1-.9s.5-1.8 1.1-2.2c.8-.4.9.3.4 2.4-.8 3.7.3 4.5 4.4 3.1 3.4-1.2 4.2-3.9 1.2-3.9-1 0-2.2-.7-2.5-1.6-.9-2.2-.8-2.4.9-2.4 1.4 0 1.4-.3 0-3-2.4-4.7-.1-3.5 3.6 1.9 3.1 4.4 3.7 4.7 5.3 3.6 1.7-1.3 1.7-1.7.2-6.9-1.8-6-2.1-6.4-5.1-5.9m-32.4 4.9c-1.9.9-4.6 1.7-6 1.9-1.4.1-2.9.3-3.3.4-1.5.2-.8 2 1 2.4 1.1.2.6.7-1.7 1.3-5.6 1.6-5.2 3.6.5 3.2 4.5-.3 4.9-.5 5.2-3.1.2-1.5.9-2.7 1.8-2.7 1.2 0 1.2.4.2 2-2 3.1-.3 3.4 6.2.9 5.4-2.1 6-2.7 5.8-4.9-.2-2-.9-2.5-3.3-2.7-1.6-.1-4.5.5-6.4 1.3m18.7-.9c-.9.3-2 1.4-2.4 2.6-.4 1.1-1.6 2.8-2.7 3.8-1.2.9-2.1 2.9-2.2 4.5 0 2.6-.3 2.9-2.7 2.6-1.6-.1-2.8.2-2.8.8 0 .5 1.9 1 4.3 1 2.3 0 4.8.4 5.6.9 2.8 1.8 3.8.2 3.3-4.9-.2-2.7.1-6.3.7-8.1 1.3-3.6 1.2-3.7-1.1-3.2m-7.8 2.9c0 .8.5 1.2 1 .9.6-.4.8-1.1.5-1.6-.9-1.4-1.5-1.1-1.5.7m48.5.8c-2.7 1.4-4.5 2.5-4 2.5 2.2.2 8.4-2 9.5-3.4 1.7-2.1.3-1.8-5.5.9"/><path d="M348.4 202.9c-3 1.4-4.4 2.8-5.3 5.2-.6 1.8-.9 3.4-.7 3.6.2.3 3.9-.5 8.2-1.7 11.3-3.1 13-4.9 6.8-7.5-4.5-1.8-4-1.9-9 .4m104.9.8c-2.4.2-4.3.8-4.3 1.3 0 1.4 10.9 2.4 13.6 1.1 5.2-2.3 1.3-3.4-9.3-2.4m-74 3.9c-2.8 1.2-5.4 2.7-5.7 3.2-.7 1.2 3.7 2.4 5.7 1.7 1.4-.6 6.1-6.4 5.5-6.9-.1-.2-2.6.7-5.5 2m-41 .7c-2.8 1.2-2.9 2.3-.3 3 1.3.3 2.1-.1 2.6-1.5.8-2.5.4-2.8-2.3-1.5m47.2 1.7c.3.5.8 1 1.1 1 .2 0 .4-.5.4-1 0-.6-.5-1-1.1-1-.5 0-.7.4-.4 1m85.8.7c.9.2 2.3.2 3 0 .6-.3-.1-.5-1.8-.5-1.6 0-2.2.2-1.2.5m-110.8 1c-1.6.3-3.3 1-3.7 1.6-.5.8-1 .7-2-.1-1.1-.8-2.7-.8-6.9.4-2.9.8-7.6 1.4-10.4 1.3h-5.7c-1.1.1 3.2 9.3 5.8 12.4s2.4 3.3 5-5.1c2-6.5 3.4-8.2 2.6-3.4-.2 1.8.2 3.3 1.2 4.1 2.2 1.8 2 3.4-.3 2.6-3.4-1-5.2 4.9-3.9 12.8.7 4.1 1.8 4.5 1.9.6q.15-3.45.6-1.2c.2 1.3.9 2.3 1.5 2.3 2 0 15.3-7.9 21.2-12.6 4.2-3.3 5.5-4.9 4.7-5.7-.6-.6-1.1-2.8-1.1-4.9 0-5.3-2.1-6.3-10.5-5.1m13.2 1.9c-1 1-.9 5.4.2 5.4.5 0 1.4-.7 2.1-1.6 1.1-1.2 1.1-1.8-.1-3-.9-.8-1.8-1.1-2.2-.8m-45.7 2.1c0 .5.9 1.9 2 3.3l2 2.5-1.2-3.3c-1.1-2.8-2.8-4.4-2.8-2.5m49 4.1c-1.6 2.5-2.8 4.7-2.5 5 .2.3 2.6-1 5.3-2.7s5.5-3.1 6.3-3.1c.8-.1 2.5-.7 3.9-1.5 2.3-1.3 2.3-1.4.5-1.6-1.1 0-3.9-.2-6.2-.4-4-.3-4.4-.1-7.3 4.3m-55.9-1.2c-1.2 1.5-2.1 3-2.1 3.3 0 .4 2.7 2.6 6.1 5.1 6.3 4.6 13.9 8.5 13.9 7.1 0-1.1-4.6-8-7.5-11.1-1.2-1.4-2.8-3.5-3.4-4.8-1.6-3-4.5-2.8-7 .4m75.9.9c-.8.9-.8 1.5-.2 1.5 1.2 0 2.6-1.9 1.9-2.6-.2-.2-1 .2-1.7 1.1m-17.6 4.3c-2.1 1.5-5.2 3.4-6.9 4.1-1.6.7-2.4 1.6-1.8 1.8 1.4.5 10.7-4.3 12.5-6.4 2.1-2.6.1-2.3-3.8.5m10.6-.3c-1.8 1.9-2 2.5-.8 2.5 1.5 0 4.8-3 4.8-4.3 0-1.4-1.7-.6-4 1.8"/><path d="M315.9 225.6c-1 .9-1.4 2.5-1.1 4l.5 2.5 2.5-2.3 2.5-2.3-1.8 2.7c-1.6 2.5-1.6 2.8-.1 3.4 2.1.8 2.1 2.4 0 2.4-1.1 0-1.4.5-.9 1.7.4 1 1.4 4.6 2.2 7.9l1.5 6.2 9.2-4.4c12.7-6 12.7-6.8-1.2-16l-5.3-3.5-2.4 2.5c-1.3 1.4-2.7 2.6-3.1 2.6s.5-1.3 2-2.9l2.8-2.9-2.3-1.6c-2.9-2-3.1-2-5 0m57 8.9c-1.9.7-8.7 3.8-15 6.9-9.5 4.8-11.6 6.3-13.1 9.2-1.8 3.7-1.5 4.3.9 1.9.8-.9 1.8-1.4 2.1-1.1s-.7 1.5-2.1 2.7c-3.3 2.5-3.9 6.6-.8 4.9 1.1-.5 2.3-1 2.8-1 .4.1-.4.8-1.9 1.6-1.6.8-2.8 1.9-2.8 2.4 0 1.9 3.9 1 7.2-1.7 7.7-6.4 21.9-20.1 24.2-23.6 1.4-2 2.4-3.7 2.3-3.6-.1 0-1.8.6-3.8 1.4m-42.3 20.3c-7.4 4-9.8 6.4-8 8.2.6.6 2.1.7 4.4 0 1.9-.6 4.6-1 6.1-1 3.7 0 5.6-2 6.4-6.8.9-5.3.2-5.3-8.9-.4M299 260c-1.3.8-1.3 1.1.3 2.7s1.7 1.6 1.7-1c0-3 0-3-2-1.7m26.4 6c-2.7 1.1-4.2 3.2-2.6 3.8.7.2 1.2.8 1.2 1.3 0 .6-.5.7-1 .4-1.7-1.1-2.4 2.6-.8 4.2 1.3 1.2 1.9 1.3 3.7.1 2.4-1.5 2.7-2.5.9-3.1-.7-.2-.4-.3.7-.1 2.2.3 11.5-5 11.5-6.6 0-1.2-10.6-1.2-13.6 0m-32.7 8.6c-.3.6-.9 3-1.3 5.3-.5 3.3-1.3 4.5-3.5 5.7-2.7 1.4-3.2 1.3-6.6-1l-3.6-2.5-2.7 2.2c-3.1 2.5-3.4 2.2 6.3 4.6 2.7.6 6.7 2 8.9 3.1l4 1.9 2-4.6c2-4.4 2-4.7.3-7.6-.9-1.6-2-4.1-2.4-5.5s-1-2.1-1.4-1.6m34.8 7.4c-.3.6.1.7.9.4 1.8-.7 2.1-1.4.7-1.4-.6 0-1.3.4-1.6 1m.4 6.7c1.2 2.4 3.1 3.9 3.1 2.5 0-.5-1-1.7-2.1-2.8-2.2-1.9-2.2-1.9-1 .3m9.1 6c0 1.3 2.9 3.8 3.5 3.1.3-.3-.4-1.3-1.5-2.3s-2-1.3-2-.8m-2 5.3c0 1.1.4 2 .9 2 1.1 0 2.2-2.6 1.4-3.4-1.2-1.2-2.3-.5-2.3 1.4m114-1.1c0 .5.7 1.4 1.5 2.1 1.3 1 1.5.9 1.5-.9 0-1.2-.6-2.1-1.5-2.1-.8 0-1.5.4-1.5.9m-430.3 6.5c-.4 1-.5 2.1-.2 2.4.9.9 1.7-.6 1.3-2.5-.3-1.7-.4-1.7-1.1.1"/></svg>