<svg xmlns="http://www.w3.org/2000/svg" width="682.667" height="512" version="1.0" viewBox="0 0 512 384"><path d="M0 160v160l2.5-1.2c1.8-.8 2.5-1.8 2.3-3.2-.2-1.7 1.2-2.9 7.7-6.3 5-2.6 7.8-4.7 7.6-5.5-1.1-3.1-.2-6.8 2.4-10.2 1.5-2 2.2-3.6 1.6-3.6-2.2 0 .1-2.2 4.3-4.1 2.2-1 3.3-1.9 2.4-1.9-2.1 0-4-3.3-3.2-5.4.4-1.1 0-1.6-1.1-1.6-.9 0-1.9-.9-2.2-1.9-.3-1.1-1.1-2.2-1.9-2.5-2.3-.9-1.6-2.6 1.6-3.7 1.6-.6 3.2-1.9 3.5-2.8.3-1 1.6-2.8 2.8-3.9 2.2-2.1 2.6-2.1 7.6-.8 8.4 2.2 12.8 7.6 10.1 12.6-.9 1.7-.1 4.3 3.1 10.3 1.1 2-1.1 3.4-3.2 2.2-.6-.4-1.5-.2-1.9.6-.7 1-1.1 1-2.4-.1-2.5-2-2.7-.9-1.1 5.1.9 3 2.1 8.2 2.7 11.7 1.1 5.5 1 6.7-.5 9.5-1 1.8-1.5 3.9-1.2 4.7.3.9-.6 2.1-2.3 3.1-2.5 1.4-3 2.4-3.5 7.8-.4 3.5-1.4 9-2.3 12.4-1 4-1.5 9-1.2 14.1l.3 7.9 5.4 4.7 5.4 4.8-5.6 3.7C27.8 384.4 21.4 384 157 384h120.7l1.7-11.8c1-6.4 2.2-16.1 2.6-21.5.7-9 1.1-10.3 4.5-15.4 2.8-4.2 4-7.3 4.7-12.2.5-3.6 1.3-9.7 1.9-13.5.5-3.8.6-7.3.2-7.7-.5-.3-3.3-1.4-6.3-2.4s-5.9-2.1-6.5-2.5c-1.7-1.2-10.7-4-13.1-4-2.2 0-8.4 6-8.4 8.1 0 1.2-4.7 7.9-6.9 9.7-1.2 1-4.1 1.2-12.4.6-11.1-.7-17.4.3-26.4 4.2-4.5 2-7 1.8-16.9-1.8-8.2-2.9-9.8-3.2-19.9-3-10.4.2-11.2.4-15.2 3.2-4.6 3.3-6.1 3.6-10.9 1.8-2.6-.9-4.8-.9-10 .2-6.6 1.3-6.8 1.2-8.6-1-1.1-1.3-2.7-2.9-3.7-3.4-1-.6-3.7-2.3-6-3.9-2.7-1.8-4.9-2.5-6.4-2.2-2.1.5-13.7-2-21.7-4.7-1.9-.7-6-3.5-9-6.3-3.1-2.7-7.5-6.7-9.8-8.8s-4.2-4.6-4.2-5.6-1.1-3.4-2.3-5.3c-1.6-2.3-2.6-5.6-3.1-10.1-.7-7.5-3.3-14.3-6.5-17.1-2.6-2.4-2.6-3.2-.1-7.9 1.1-2 2-4.8 2-6.2 0-1.3.8-3.2 1.8-4.2 2.7-2.6 5.5-10.9 5-14.5-.4-2.6 0-3.3 2.5-4.7 1.6-.9 4.4-2.8 6.2-4.3 5.2-4.4 13.8-10 17.4-11.2 3.1-1.1 3.2-1.3 1.7-2.8-.8-.9-2.1-1.8-2.7-2-.9-.3-.9-1.3 0-4.1.7-2.2 1.1-8.2 1-14.9-.2-9 .1-12 1.5-14.6 1-1.9 1.4-4.2 1.1-5.3-.5-1.6.6-3.3 5-7.5 3.1-3 6.5-5.4 7.7-5.4s3.7-1.7 5.7-3.9c2-2.1 4.7-4.4 6.1-5.1s4.4-3.4 6.8-6.1c5-5.6 9.4-7.4 16.6-6.6 5.7.6 8.6-.5 8.6-3.2 0-2.5 4-6 7.9-6.7 2.5-.5 3.7-1.5 4.7-4.1 1.3-2.9 1.7-3.2 3.4-2.3 2.8 1.5 6.4-.5 5.7-3.2-.5-1.7 1.3-12.8 2.9-18.1.3-1 3.9-5.2 7.9-9.3 4.8-4.9 7.6-8.7 8-10.7.9-4 5.3-13.4 6.6-14.3 1.4-.8 6.2-1.3 18.4-1.8 6.3-.2 12.8-1.2 17.6-2.6l7.6-2.2 4.4 2c2.4 1.1 6 2.5 7.9 3.1 6 1.9 9.9 4.9 11.5 8.7 1.8 4.4 3.8 6 8.4 6.9 2.3.4 3.8.2 5.1-1 2.6-2.3 4.6-.9 6.1 4.2 1 3.6 1 5.5 0 9.1-.9 3.3-.9 4.8 0 5.8.6.8.8 1.4.3 1.5-.5 0 .1.4 1.4.9 1.3.6 2.9 2.5 3.7 4.3 1.4 3.4 3.6 14 3.9 18.5.1 2 .6 1.7 4.3-2.5l4.2-4.8-2 4.1c-1.1 2.3-2.9 5-4 5.9-1 1-1.9 2.3-1.9 2.8 0 .6.3.7.7.4.3-.4 1.5 0 2.5 1 1.7 1.5 1.8 1.5 1.8 0 0-1 .5-1.7 1.1-1.7.5 0 .7.6.4 1.2-.4.7.5-.1 1.9-1.7 1.4-1.7 2.6-3.2 2.6-3.5s1.4-1.4 3-2.4c2.9-1.7 3-2 2.5-6.9-.5-3.9-.4-4.8.4-3.5.6.9 1.2 2.8 1.3 4.2s.4 2.6.5 2.6 1.2-1.9 2.4-4.2c1.2-2.4 3.6-6.1 5.3-8.3s3.2-4.2 3.3-4.4c.2-.2.5-.2.8.1.4.3-.4 2.1-1.7 4s-3.4 5.4-4.8 7.7c-1.4 2.4-3.6 5.6-4.8 7.2-2.7 3.3-2.2 3.5 3.7 1.4 2.2-.8 4.1-1.1 4.1-.7 0 .5-3.2 1.8-7 3.1-7.1 2.3-11 5.7-9.4 8.2q.6 1.05-.3.6c-1.3-.8-6.1 5.3-5.6 7.1.3.6.9.9 1.4.6.6-.3.3 1.1-.6 3.2-1.7 4-1.9 7.9-.9 13.7.9 5.5 2.2 5.4 5-.5 1.4-2.9 2.3-4.5 2-3.6-.7 2.2.2 2.3 2.6.1 1.7-1.5 1.8-1.5 1.8.4 0 1.1-.6 2.6-1.4 3.2s-1.6 2.1-1.9 3.2c-.5 1.7-.2 2 1.6 1.6l2.2-.6-2.2 1.6c-1.3.8-2.3 2-2.3 2.5 0 1.1 5.8-3.1 6.4-4.8.3-.7.1-2.7-.4-4.3-.5-1.7-.5-3.3-.1-3.6.5-.2 1.1 1.3 1.5 3.5.8 4.8 1.5 5 3.8.9 1.1-1.9 2.2-2.7 3-2.3.7.5.9.2.5-.8-.3-.9.2-2.3 1.3-3.3 2.6-2.3 3.4-.2 1 2.8-1.1 1.4-2 3-2 3.6 0 .5-1.2 2.2-2.7 3.7-1.6 1.5-2.1 2.3-1.3 1.7s2.7-.9 4.1-.7c2.1.4 3.8-.9 10.1-8 4.4-4.9 8.1-10.1 8.8-12.3.7-2.1 2.2-4.8 3.3-6 1.7-2 1.8-2.5.6-4s-1.2-1.6.4-1c1.3.5 2 0 2.8-1.9.5-1.5 1.8-3.7 2.8-5.1 1.4-1.7 1.8-3.4 1.4-6.1-.3-2.7-.2-3.3.6-2.2.5.8.7 1.8.5 2.2-.3.4 0 .8.5.8.6 0 1.1-.6 1.1-1.3.1-.6.7-2.6 1.6-4.2 1.1-2.4 1.3-2.5 1-.7-.3 1.3.1 4 .9 6.1 1.3 3.9.3 7.2-2.1 6.4-1.3-.4-7.4 7.4-7.4 9.4 0 1.1.7 1 3.3-.2 3.1-1.5 2.6-1.1-3.6 3-1.7 1.1-3.2 2.5-3.4 3.2-.2.6 3.8-1.2 9-4 5.9-3.3 9.3-5.8 9.2-6.7-.1-.8-.5-3.3-.9-5.5-1.4-8-1.5-9.5-.8-9.5.5 0 1.4 2.8 2 6.2s1.6 6.6 2.1 7.1c1.3 1.3 4.9-1.1 8.7-5.8 4.1-5.1 12.2-13.5 10.4-10.8-.8 1.2-3 4.3-4.8 6.8-3.8 5.1-3.4 5.5 2.5 2.1 2.8-1.7 4.5-2.1 4.9-1.4s.2.8-.4.4c-.7-.4-1.2-.2-1.2.3 0 .6-.6 1.1-1.3 1.1-1.6 0-11.1 6.3-16 10.7-2 1.8-4.4 3.3-5.1 3.3-.8 0-1.8.5-2.2 1.1s.1.9 1.2.8c1.1-.2 2.4 0 3 .3.6.4 4-.2 7.6-1.3 6-1.8 6.9-2.4 9.8-6.9 1.8-2.8 3.4-5 3.7-5s-.2 1.1-1.1 2.5c-2.8 4.3-1.7 4.8 3.8 1.7 3-1.7 5.7-2.8 6-2.5.3.4.6.1.6-.4 0-.6.7-1 1.5-.9.9.1 1.5.6 1.5 1.2-.1.5-.8.8-1.7.6s-1.2.1-.8.8c.3.6.3.9-.2.8-.4-.1-1.8.3-3 1-1.3.7-2.3.9-2.3.5s-.4-.3-.8.3-2.2 1.9-4 2.8c-2.1 1.1-3 2.1-2.5 2.9 1.1 1.8 1.2 3.7.2 3.7-.5 0-.9-.9-.9-2 0-2.4-.4-2.4-3.3-.6-1.2.8-8.5 2.7-16.2 4.2-9.1 1.9-14.6 3.5-15.7 4.6-1 1-1.8 1.5-1.8 1.1 0-1.2-9 7.9-12.6 12.8-1.9 2.6-3.4 5.4-3.4 6.3 0 1.6.3 1.6 3.3-.1 1.7-1 3.6-2.4 4-3.1.5-.7 1.2-1 1.7-.7 1 .6 3.7-4.1 5.7-10l1.3-4-.3 4c-.3 5.2 1.9 5.7 6.4 1.3 1.8-1.8 2.9-2.7 2.4-1.9-.6 1.1-.4 1.3 1 .7 1.5-.5 1.6-.4.6.8-.9 1.1-.9 1.5.1 1.9.9.4.7.6-.4.6-.9.1-1.9-.5-2.1-1.2q-.6-1.2-.6.3c-.1 1.5-5.2 5.2-13.8 10.1-2.4 1.3-4.3 2.9-4.3 3.5 0 1.4-2.3 2.4-5.1 2.4-1.6 0-4.3 3.7-3.5 4.7.1.2 1.8-.2 3.7-.7 3.1-.9 3.2-.8 1.5.5-1.1.8-2.8 1.5-3.8 1.5-2.3 0-3.7 2.9-3.5 7.3.2 3.5 1.8 4.9 3.2 2.7.3-.6 1.2-1 1.8-1 .7 0-.2 1.3-2 2.8-1.7 1.5-3.4 3.8-3.8 5.2l-.7 2.5 2.3-2.1c3.3-2.8 8-5.7 8.5-5.1.3.2-1.2 1.7-3.3 3.3-8 6.1-10.3 8.2-10.3 9.5 0 1.6 1.3 1 6.4-2.6 2.7-1.9 5.4-3.5 6-3.5s3.2-1.1 5.7-2.4 6.3-2.8 8.4-3.2c6.7-1.2 20.2-9 21.2-12.3.2-.9 1.1-3 1.8-4.8 1.2-2.8 1.2-3.7-.1-6.9-.9-2.3-1.1-3.3-.3-2.9 1.2.8.7-1.4-1.7-7.3-.7-1.8-.9-3.2-.3-3.2 1.2 0 2.8 4.3 3.6 9.7.7 5.2 1.8 5.5 3.3.8 1.3-4-.2-10.6-2.3-10.1-.7.1-.9.1-.4-.1.4-.3.7-1.4.8-2.6 0-1.4.6-.7 1.6 2 1.5 4.4 3.9 6 2.9 2-.3-1.2-.3-1.6 0-.9.3.6.9 1 1.4.7.4-.3.6.4.3 1.5-.9 3.4 1.2 2.2 3.2-1.7 1-2.1 1.9-4 2-4.3 0-.3.6-1.4 1.3-2.5 1.2-1.8 1.3-1.6.8 1.7-.2 2.1-.3 3.8-.1 3.8s2.5-1.2 5-2.7c2.8-1.8 4.5-3.5 4.6-4.8 0-1.7.1-1.8.7-.3.5 1.3 1.1 1.5 2.2.8.8-.5 2.2-1 3-.9.8 0-.2.9-2.3 2-3.3 1.7-3.7 2.3-3.7 5.9s.3 4 2.4 4c1.4 0 2.8-.5 3.2-1.1.8-1.4 12.6-7 13.3-6.4.5.6.8.4-6.2 3.9-4.6 2.2-5.6 3.1-4.7 4.1.6.8 1.9 1.6 2.8 1.8.9.3.3.3-1.5.1-1.8-.1-4.9.2-7 .8-3.6 1-3.6 1.1-1.8 2.5 1.9 1.4 1.8 1.4-1.2 1-2.4-.4-4.3.2-7.7 2.4-6.7 4.5-7.4 5.6-4 7 1.6.6 5.4 1.4 8.4 1.6 7.7.6 10.2 1.2 9.5 2.3-.4.6-1 .8-1.5.5s-1.8-.1-2.9.4c-1.4.8-3.3.6-6.8-.4-7.5-2.3-14.1-2-16.4.7-1 1.3-1.8 2.9-1.9 3.5 0 .7-1.2 2-2.6 2.9-2.2 1.5-2.3 1.9-1 3.2s1.8 1.2 4.5-.7c3.1-2.2 4.2-1.7 1.9.9-1.1 1.2-1 1.2.7 0 1.1-.8 2.6-2.1 3.2-2.9 2.4-2.7 2.3-.5-.1 3l-2.3 3.4 6.1 1.2c5.5 1.2 6.2 1.1 7.4-.5 3.2-4.3 8.2-9.1 8.2-7.9 0 .8-1.6 3.1-3.5 5.1-4.3 4.6-4.5 6-.6 5.3 2.4-.5 2.8-.3 2.4 1.1-.2 1.1.7 2.6 2.6 4l3.1 2.3V176c0-2.2-.6-3.3-2.3-4l-2.2-.9 2.3-.7c1.3-.4 2.2-1.5 2.3-2.8.1-2 .2-2 .6-.1.3 1.1 1 2.4 1.7 2.8.8.6.8 1 0 1.3-.6.3-.9 1.6-.6 2.9.2 1.4.9 2.2 1.4 1.9.6-.4.2.6-.8 2.1l-1.8 2.7 5.3-2.6c2.9-1.5 5.1-3 4.9-3.4-2.7-5.6-3.9-8.8-5.2-14.6-.9-3.8-1.4-7.1-1.2-7.4.3-.2 1.4 2.7 2.6 6.5 1.1 3.7 2.9 8.4 3.9 10.3 1.6 2.8 2.1 3.2 2.6 1.8.8-2-1.1-8.3-3.5-11.8-1-1.4-2.6-5.6-3.7-9.5-1.8-6.5-2.2-7-5.2-7.6-4.7-1-5.3-2.2-.6-1.4 2.2.4 4.3 1 4.6 1.4.4.3 1.4 3.3 2.4 6.6.9 3.3 2.8 7.7 4.3 9.9l2.6 3.8.8-2.8c.8-2.7.3-14.3-.8-18.9-.4-1.7-.4-1.8.5-.4 2 3.2 3.4 16.3 2.3 21.5-.6 2.7-.8 6.1-.5 7.6.5 2.6.6 2.7 3.2 1.1 2-1.2 1.8-.8-.9 1.7-1.9 1.7-2.7 2.9-1.7 2.6.9-.3 1.7-.1 1.7.4 0 .6-.6 1-1.3 1q-1.35 0-.9 3c.5 3.5.5 3.5 3.7 1.4 1.4-.9 2.5-2.6 2.5-3.8 0-1.5.3-1.7.9-.8.7 1.1 1.7.8 5-1.3 4.7-3.2 5.1-3.8 1.6-2.9-4.8 1.2-2.4-.6 2.8-2.1 3-.9 6.2-2.2 7.3-3 2.6-2 2.9-1.9 2.9 1 0 1.9-.4 2.3-1.7 1.9-1.8-.5-11.3 4.9-14 8.1-2.1 2.4-2.3 4.4-.5 5 .6.3 1.3 2.2 1.4 4.2.1 1.9.7 4.1 1.3 4.7 1.1 1.1 1.6.6 12.5-11.4 1.2-1.4 2.6-3.6 3-5 1-3.3 6.5-12.8 6.5-11.3 0 .7-.9 3-2.1 5.2-3.1 6-1.8 7.1 1.4 1.2 1.5-2.7 4.1-5.9 5.7-7.1 1.6-1.1 3.1-3 3.3-4.3.3-1.6.5-1.4.6.9.1 2-.6 3.8-1.9 4.9-2.8 2.5-1.9 2.9 2.5 1.1 4.3-1.8 4.8-1.9 4.1-.7-.3.4-2.6 1.4-5.2 2.1-3.6 1-5.2 2.2-7.3 5.3-1.4 2.3-4.4 5.8-6.5 7.9-2.2 2.1-3.6 3.8-3.2 3.8 1.1 0 8.4-4.8 9.1-6.1.9-1.3 10.4-5.9 12.4-5.9 2.5 0-.7 2.7-4 3.4-3.3.6-12.4 6.5-11.5 7.3.3.3 1.2 0 2-.7.9-.6 2.1-1 2.7-.8.7.2-.1 1.3-1.8 2.4-6.6 4.2-11.2 8-11.3 9.1 0 .7-.4 1.3-1 1.3-.5 0-1 .4-1 1 0 1.6 1.6 1.2 4.1-1 1.7-1.4 1.9-1.8.7-1.4-3.8 1.3-1.6-.8 2.8-2.8 4.7-2 16.4-10.5 16.4-11.8 0-.4.9-1 2-1.3 1.3-.3 2-1.4 2-2.9 0-1.7.8-2.9 2.5-3.6 1.5-.7 2.5-.8 2.5-.2s-.6 1-1.4 1-1.7.7-2 1.6c-.9 2.3-.8 2.4 1.2 1.7.9-.3-.1 1-2.3 3-2.5 2.3-3.4 3.6-2.4 3.7 2 0 7.3-5.5 6.5-6.8-.3-.5.5-1.7 1.9-2.6 1.3-.9 3.1-2.9 4-4.6 1-2 2-2.7 3.1-2.3 1.2.5 1 1.1-1.2 3.4-1.5 1.6-2.3 2.9-1.7 2.9s1.6-.7 2.3-1.5 1.6-1.2 2.1-.9c1.3.8 5.1-1.4 8.2-4.8 1.5-1.7 2.7-2.6 2.7-2.1 0 1.3-6.4 7.3-7.8 7.3-.7 0-2.8 1.5-4.6 3.2-4.7 4.7-9.5 8.8-10.2 8.8-.8 0-11.4 9.3-11.1 9.7.2.2 2.4-.4 4.8-1.2 3.2-1.1 4.9-2.4 5.7-4.3l1.2-2.7-.6 3c-1.7 10.3-1.7 11.5 0 11.5.9 0 2.8-1.1 4.2-2.6 2.2-2.1 2.5-3.1 2-6.2l-.5-3.7 1.3 3c.8 1.6 1.2 3.5.9 4.2-.7 1.8.4 1.6 3.5-.5 1.5-1 4.5-2.4 6.7-3.1 2.2-.8 5.1-2.1 6.4-3 2.4-1.5 6.1-2.5 6.1-1.6 0 .6-11.6 6.3-17.5 8.6-2.7 1-6.3 3-8 4.4l-3 2.6 3-.4c1.7-.2 3.8-.8 4.8-1.2s1.7-.3 1.7.3-1.8 1.3-4 1.7c-3 .5-5.1 1.8-7.7 4.5-3 3.3-3.8 3.7-5.4 2.7-1-.6-2.2-.8-2.6-.4-.4.5-.2 1.2.6 1.6.9.6.6 1-1.1 1.6-2 .7-1.9.8 1.7 1.5 3.1.6 3.4.7 1.3.9-1.6 0-2.8.5-2.8 1.1 0 .5 2 .7 4.9.3 3.1-.3 5.1-.1 5.5.6.5.7-.9 1.1-4.6 1.2-2.9.1-5.6.1-6 0-1.3-.2-.9.9 1.4 4.1 1.4 2 1.7 2.9.7 2.6-.8-.2-1.9-1.3-2.4-2.4-3.3-6.3-4.8-7.6-7.9-7.1-1.7.3-4 .9-5 1.3-1.4.5-1.7.4-1.2-.4.9-1.5-3.8-3.5-8.2-3.3-3.7.1-12.2 4.6-10 5.4.7.2-1.4 1.2-4.7 2.1-11 3.2-12.4 3.7-16.2 6.3-2.1 1.4-6.9 3.8-10.7 5.4-12.4 5.1-24.9 15.1-36.3 29.2-5.1 6.4-6.3 7.2-17.6 12.7-13 6.2-17 9.1-16.1 11.5 1 2.4 3 1.8 6.3-2s4.2-3.5 1.4.5c-1.5 2.1-1.5 2.3 0 1.7.8-.3 1.7-.1 1.9.4.2.6 2.7 1.2 5.5 1.2 2.8.1 4.9.5 4.7.9-.6.9 3 2.8 5.4 2.8 1.1 0 2.3.7 2.6 1.6.5 1.2.2 1.5-.9 1-7.3-2.8-12.9-3.7-15.3-2.7-2.2 1.1-2.4 1-1.2-.3 1.1-1.4.7-1.6-2.9-1.6-2.2 0-4.1.4-4.1 1 0 .5-.8.7-1.7.3-1.2-.4-.8.5 1.1 2.5 1.7 1.8 3.8 3.2 4.8 3.2 1.1 0 1.5.5 1.2 1.4-.3.8.9 2.5 2.8 4l3.3 2.7-3-.7-3-.7 2 2.4 2 2.4-2.3-2-2.4-2-2.4 2.8c-2.8 3.2-3 2.8-.9-1.3.8-1.6 1.1-3.1.6-3.4-1.2-.8-2.1.4-2.2 2.8 0 1.2-.6-.2-1.3-2.9-.7-2.8-1.6-4.9-2.2-4.9-.5.1-2 .5-3.4.8-2.4.7-2.4.7-.5-.9 1.9-1.5 1.9-1.6-.8-4.2-2.5-2.5-2.8-2.6-4.3-1.1-.9.9-3 5.6-4.6 10.5-2.7 8-2.9 9.6-2.3 18.2.3 5.1 1.1 10.3 1.7 11.4 2 3.8 2.3 28.4.4 36.9-1.3 6-1.4 8.4-.5 12.6l1.1 5.2h128.4l-.3-7.1c-.4-9.6-2-22.6-3.3-26.9-.8-3.1-1.6-3.7-5.3-4.7-3.1-.9-4.7-2-5.5-3.8-1.5-3.4-.7-12.1 1.7-17.7 3.7-8.8 5.9-22.5 4.1-25.9-1.9-3.4-1.7-15.8.3-19.6 2.8-5.3 2.2-8.4-2-11.3-5.6-3.7-7.3-5.7-7.3-8.5 0-3.7 4.8-8.3 10.9-10.4 6.4-2.2 10.4-1.6 10.9 1.8.2 1.2 1.2 2.7 2.3 3.4 1 .6 1.9 2.1 1.9 3.3s.6 2.7 1.4 3.3c1.9 1.6 1.4 7.1-.8 8.6-1.9 1.5-1.4 3.3 2.6 8.5 1 1.4 3.8 5.4 6 8.9 2.3 3.5 4.4 5.9 4.6 5.3.4-1.3 3.4-1.6 4.5-.6.3.3-.9 2.9-2.8 5.8s-3.6 7.1-4 9.7c-.7 4.5-.6 4.7 3 7.5 2.7 2 4.7 2.7 7 2.5 3.8-.3 5.8 1.7 2.6 2.6-2 .5-1.9.7 1.4 3 3.8 2.6 4.3 3.8 1.9 4.7-2.1.8-7.7-2.3-15.3-8.4l-6.4-5.2.8 3.8c.4 2.2 2.7 8.9 5.1 15 4 9.9 4.3 11.5 3.2 13.9-1.1 2.5-1.6 2.6-6.5 2.3-6.2-.4-6.3 0-3.3 7.9 1.1 2.8 2.2 8.8 2.6 13.3.4 4.4 1.1 8.3 1.5 8.6.5.3.9 1.4.9 2.5 0 1.4.7 1.9 2.4 1.9 1.4 0 2.8.4 3.1 1 .4.6 8.7 1 21.6 1H512V0H0zM442 17.6c0 .8-.5 1.2-1 .9-.6-.4-.8-1.1-.5-1.6.9-1.4 1.5-1.1 1.5.7M111.3 23c.3 1.1.1 1.8-.4 1.4-.5-.3-.9-1.2-.9-2 0-2 .7-1.7 1.3.6m207.2 1.4c0 2.2-.3 2.5-2 2-2.6-.8-5.6-3.4-5-4.4.3-.4 1.9-.7 3.7-.5 2.6.2 3.2.7 3.3 2.9M164.9 35.6c-.6 1.6-1.3 2.4-1.6 1.7-.5-1.3 1.6-5.8 2.3-5 .3.2-.1 1.7-.7 3.3M75.5 45c-.5.8-1.1.8-1.7.2s-.7-1.6-.3-2.2c.5-.8 1.1-.8 1.7-.2s.7 1.6.3 2.2M102 68c0 .5-.4 1-.9 1-.6 0-1.3-.5-1.6-1-.3-.6.1-1 .9-1 .9 0 1.6.4 1.6 1m216 4c0 .5-.5 1-1.1 1-.5 0-.7-.5-.4-1 .3-.6.8-1 1.1-1 .2 0 .4.4.4 1M42.3 85.1c.3 1.2.1 1.7-.6 1.2-2.9-1.6-4.7-3.8-4.7-5.6 0-2 .1-2 2.4.2 1.3 1.3 2.6 3.1 2.9 4.2m319.2.9c-.4 1.2-.9 1.9-1.2 1.7-.3-.3-.2-1.5.2-2.7s.9-1.9 1.2-1.7c.3.3.2 1.5-.2 2.7m-9 1.1c.9 1.7 1.5 3.5 1.3 4.1s-1.1-.8-2-3.1c-1.9-4.8-1.5-5.4.7-1m50.8 13.4c-.3.9-.8 1.4-1 1.1-.3-.3-.2-.9.2-1.5.9-1.6 1.5-1.3.8.4m-34.1 13.7c-.7.7-1.2.8-1.2.2s.3-1.4.7-1.7c.3-.4.9-.5 1.2-.2.2.3-.1 1.1-.7 1.7m-308.7 4.1c.7.6.2.8-1.5.3-1.4-.3-3.9-.6-5.6-.6-3.5 0-7-2.2-6-3.8.7-1.2 11.1 2 13.1 4.1M439 114c0 .5-.2 1-.4 1-.3 0-.8-.5-1.1-1-.3-.6-.1-1 .4-1 .6 0 1.1.4 1.1 1m-52.3 7.2c-.3.7-.5.2-.5-1.2s.2-1.9.5-1.3c.2.7.2 1.9 0 2.5m-78.6 4.8c-1.3 1.1-3.1 2-4 2-.9-.1 0-.9 1.9-1.9 4.6-2.4 5-2.5 2.1-.1m25.9-1.7c0 .2-1.2 1.4-2.7 2.8l-2.8 2.4 2.4-2.8c2.3-2.5 3.1-3.2 3.1-2.4m30.7 7.3c-.3.3-1.2.4-1.9.1-.8-.3-.5-.6.6-.6 1.1-.1 1.7.2 1.3.5m51 4.1c-.9.2-1.5.9-1.2 1.4.4.5-.1.9-.9.9-1.7 0-2.1-1.2-.9-2.3.3-.4 1.6-.6 2.7-.6 1.7.1 1.8.2.3.6m-78.5 15.5c-.7.7-1.2.8-1.2.2 0-1.4 1.2-2.6 1.9-1.9.2.3-.1 1.1-.7 1.7m127.5 4c-.2 1.3-.4.5-.4-1.7-.1-2.2.1-3.2.4-2.3.2 1 .2 2.8 0 4m7.4 2c-.4 1.2-1.9 2.9-3.2 3.7-2.1 1.4-2.1 1.2.6-2.1 3.5-4.4 3.7-4.5 2.6-1.6m8.9 1.8c0 .5-.5 1-1.1 1-.5 0-.7-.5-.4-1 .3-.6.8-1 1.1-1 .2 0 .4.4.4 1m-4 3.5c-.7.9-1.5 1.3-1.9 1-.3-.3.1-1 .9-1.5 2.1-1.4 2.4-1.2 1 .5m9-1.1c0 .2-.8 1-1.7 1.7-1.6 1.3-1.7 1.2-.4-.4s2.1-2.1 2.1-1.3M342 166c0 .5-.4 1-1 1-.5 0-1-.5-1-1 0-.6.5-1 1-1 .6 0 1 .4 1 1M15.5 183c-.3.5-1.3 1-2.1 1s-1.2-.5-.9-1c.3-.6 1.3-1 2.1-1s1.2.4.9 1m422.2.6c-.3.3-1.2.4-1.9.1-.8-.3-.5-.6.6-.6 1.1-.1 1.7.2 1.3.5m43.1 29.1c-1.5.2-4.2.2-6 0s-.6-.4 2.7-.4 4.8.2 3.3.4m18.2 33.4c0 .5-.7.9-1.5.9-1.5 0-2-1.2-.9-2.3.8-.8 2.4.1 2.4 1.4m-82.3 2.3c2.5 2.2 2.7 3 2.8 9.6 0 5.5-.4 7.4-1.5 8-3.3 1.5-7.1 3.6-11.6 6.4-3.9 2.4-5 2.6-7 1.7-2.8-1.2-3.2-6-.9-10.1.8-1.4 1.4-4.6 1.5-7.1 0-4.1.5-5.1 3.5-7.8 4.5-3.9 9.2-4.1 13.2-.7m58.8 21.4c-.3.3-1.1 0-1.8-.7-.9-1-.8-1.1.6-.5 1 .3 1.5.9 1.2 1.2m-120.4 6.1c-.6 1-1.7 2.4-2.6 3.1-1.4 1.1-1.8 1.1-2.5 0-.5-.8.1-2.1 1.8-3.5 3-2.6 4.7-2.3 3.3.4m41.3 2.3c-.3.4-2 .8-3.7.8-2.4 0-2.8-.3-1.7-1 1.8-1.1 6.1-.9 5.4.2m-40.3 2.6c-.5 1-1.8 2.5-2.8 3.3-1.2 1-1.1.5.6-1.9 2.4-3.5 3.8-4.3 2.2-1.4"/><path d="M292 109.9c0 .6-1.1 2.2-2.5 3.7-3.7 4-5 9.6-3 13.4 1.9 3.7 2.6 3.7 5.3 0 1.7-2.3 2-3.4 1.3-4.9-.6-1-.7-2.1-.3-2.5.3-.4-.1-.4-1.1 0-1 .3-1.7.1-1.7-.5s.3-1 .8-1c2.1.4 2.9-.4 4.1-3.6.7-1.9.9-3.9.6-4.5-.8-1.3-3.5-1.3-3.5-.1m68 6.1c0 .6.7 1 1.5 1s1.5-.2 1.5-.4-.7-.6-1.5-1c-.8-.3-1.5-.1-1.5.4m33.5 12c-1.2.4-2.6 1.4-3.3 2.3-2 2.4 1.7 3.2 4.1.8s1.9-4.1-.8-3.1m-112.3 7.7c-1.3 3-2.1 5.7-1.9 6 .5.5 4.2-6.9 3.9-7.9-.1-.4.5-.5 1.3-.2 1.8.7 2-1 .2-2.4-.9-.8-1.8.2-3.5 4.5m15.9 0c-.1 1.2.4 2.5.9 2.8 1.2.7 1.2-.2 0-3-.8-1.9-.9-1.9-.9.2m87.9.3c-1.1 1.1-2 2.6-2 3.4s-.3 2.1-.6 3-.1 1.6.5 1.6c1.4 0 9.1-7.4 9.1-8.8 0-1.9-4.8-1.4-7 .8m8.5 0c-.3.5-.2 1 .4 1 .5 0 1.3-.5 1.6-1 .3-.6.2-1-.4-1-.5 0-1.3.4-1.6 1m-108.6 2.7c-1.3 1.6-1.2 1.7.4.4.9-.7 1.7-1.5 1.7-1.7 0-.8-.8-.3-2.1 1.3m11.1 2.8c-1.3 1.5-.7 4.5.9 4.5 1.1 0 2.1-4.9 1.1-5.5-.4-.3-1.3.2-2 1m80.6 3c-2.3 3.6-2 4.2.9 1.5 2.6-2.4 3.2-4 1.6-4-.5 0-1.6 1.1-2.5 2.5m-84 2.2c-.4.9-.4 1.8-.2 2.1.8.7 3.6-.6 3.6-1.7 0-1.6-2.8-2-3.4-.4M279 148c-1.4 1-2.2 2.1-1.9 2.4.3.4 1.9-.5 3.5-1.9 3.4-2.9 2.1-3.4-1.6-.5m30.7.2c-1.1 1.2-1.5 2.4-1 2.9s1.6-.4 2.6-2.1c2-3.4 1.1-3.8-1.6-.8m-9.1-.4c-.3.6-.1 1.4.5 1.7 1.5 1 2.5-.3 1.2-1.6-.7-.7-1.3-.7-1.7-.1m16.6 3.5c-1.7 1.8-3.2 3.5-3.2 3.9 0 1.5 10.4-2.9 11.1-4.8.4-1 .8-1.3.8-.6.1.7.6 1 1.1.7 2.1-1.3.8-2.5-2.7-2.4-2.9 0-4.6.8-7.1 3.2m-24.2 1c-3.9 1.8-6 4-6 6 0 1.6.5 1.8 2.8 1.2 1.5-.3 2.9-1.1 3-1.6.2-.5.9-.9 1.6-.9 1.7 0 5.8-4.5 4.9-5.3-.9-1-3.4-.7-6.3.6m10.3 2.6c-1.8 1.5-3 3.1-2.6 3.5.3.3.1.6-.5.6-2.7 0-8.6 5.3-9.8 8.7-.7 2.1-1.2 3.8-1.1 4 .5.5 13.7-12.3 13.7-13.3 0-.6 1.1-1.7 2.5-2.4s2.5-1.9 2.5-2.7c0-2-1.1-1.6-4.7 1.6m19.8-1c-.8.6-1.1 1.6-.6 3.1.9 2.7 2.8 1.2 2.3-1.9-.2-1.4-.7-1.8-1.7-1.2m-10.8 5.5c-1.7 1.8-4.2 5.1-5.6 7.3s-3.6 4.6-4.9 5.5c-2.8 1.9-7.3 14.7-6.2 18 .6 2 .7 2 1.7.2.6-1 1.4-3.2 1.8-4.9.6-2 .6-1.2.3 2.3l-.6 5.4 6.5-3.6c10-5.3 10.6-5.8 12.3-9.6.9-1.9 2.2-4.6 2.8-6 1-2 1-3.2 0-5.5-1.9-4.4-1.6-6.6.3-2.5l1.5 3.5 1.3-3c1.1-2.6 1-3.5-.6-6.7-2.6-5-6.1-5.1-10.6-.4m-41.3 7.5c0 4.4 2.3 10.3 5.4 13.8 2.7 3.2 3.7 2.9 2.4-.8-.6-1.6-.8-5.5-.6-8.5.5-5.9 0-6.8-4.5-7.9-2.6-.7-2.7-.6-2.7 3.4m90.5.2-5 3 5-.6c5.9-.8 5.8-.7 5.3-3.4-.3-2-.5-1.9-5.3 1m.7 5.2c-1.5.4-5.2.5-8.2.2-5.8-.7-7-.1-18.5 7.8-1.6 1.2-5.5 3.3-8.6 4.8-3.1 1.6-7.2 4.1-9.1 5.7-1.8 1.6-5.3 4.2-7.8 5.9s-5.3 4-6.3 5.1c-2 2.2-1.4 4.7.8 3.8.9-.3 1.1.2.8 1.5-.4 1.3.8 4 3.1 7.4l3.7 5.4 4.4-3.2c2.4-1.8 4.4-3.8 4.4-4.5.1-.7.6-1 1.1-.7.6.4 2.4.3 4.1 0 2.5-.6 3-1.1 2.5-2.8-.5-1.8-.4-1.9 1.1-.4 2.4 2.3 6 .4 6.1-3.4 0-1.6.3-3.3.7-3.9 1.1-1.7 3.7-1.1 4.2 1 .7 2.5 1.9 2.6 3.2.2.6-.9 1.1-1.3 1.1-.8s.7.3 1.5-.4c.9-.8 1.5-.9 1.5-.2s1 .5 2.8-.4c1.5-.7 3.7-1.4 4.9-1.4 2 0 2.2-.4 1.7-3.3l-.6-3.2 2.1 3.2c1.6 2.6 2.8 3.3 5.2 3.3 1.9 0 3.7-.7 4.5-1.8 1.2-1.5 1.2-1.5.7.6-.4 1.9-.2 2.1 1.3 1.6 3.3-1.2 15.3-9.5 16.4-11.2.6-1.2.9-1.3 1-.3 0 1.1.4 1 2.3-.2 1.2-.9 4.1-2.6 6.5-3.7 2.3-1.2 4.2-2.6 4.2-3 0-2.3-9.1-8-12.6-8-1.5 0-1.4.4.7 2.6 1.3 1.4 3.9 3.4 5.7 4.6 1.8 1.1 3.1 2.2 2.8 2.5-.6.6-5.1-2.3-11-7.2-4.9-4-5.1-4-13.3-4-4.6 0-9.6.3-11.1.8m50.3 8.9c-.4 1.3-.8 4.1-1.1 6.3-.3 3.9-.3 3.9 1.6-1.5 2.2-6.3 2.3-7 1.1-7-.5 0-1.2 1-1.6 2.2m-6.2.5c-1.6.6-1.7 3.6-.1 3.1.6-.2 1.2-1.2 1.4-2.1.1-.9.2-1.7.1-1.6-.1 0-.8.3-1.4.6m18.1 1.8c-1 .8-1.5 1.5-.9 1.5.5 0-.1.7-1.3 1.6-1.3.9-2.1 2.2-1.8 3s.1 1.4-.4 1.4c-1.5 0-2.9 9.1-1.8 11.6l1.1 2.3 1.9-2.4c1-1.3 1.8-2.6 1.7-2.7-.2-.2.9-1.6 2.4-3.2 2.9-3.2 3.3-4.7 1.6-7.7-.8-1.6-1.3-1.8-2.5-.8-.8.6-1.7.9-2.1.5-.3-.3-.1-.6.6-.6.6 0 1.5-1 2-2.3.8-2.1.9-2 2.5 1.7 2 4.9 3 4.3 1.2-.7-1.6-4.7-1.9-5-4.2-3.2m23.4 2.3c-1.6 1-2.8 2-2.8 2.4 0 1.5 1.9.8 4.7-1.7 3.2-2.8 2.2-3.1-1.9-.7m-40.2 1.1c-.8 1.3.4 4.2 1.5 3.5 1.2-.7 1.2-4.4 0-4.4-.6 0-1.2.4-1.5.9M394 190c-.8.6-3.2 1.5-5.3 2.1-3.1.8-3.8 1.4-3.5 3.2.2 1.8 1 2.2 4.8 2.5 4.4.3 4.7.1 7.8-4.3l3.2-4.5h-2.8c-1.5 0-3.4.5-4.2 1m7.8.7c-2.1 2.6-4.9 7.3-4.3 7.3 1.5 0 9.4-4.6 9.5-5.6 0-1.1-2-3.4-3-3.4-.4 0-1.4.8-2.2 1.7m67.9 0c-.4.7-3.1 1.9-6 2.8-2.9.8-5.9 2.4-6.7 3.4s-4.3 3.3-7.8 5.1-6.1 3.5-5.8 3.7c.3.3 3.8-.1 7.8-.7 4-.7 7.9-1.3 8.6-1.3.6 0 1.2-.4 1.2-.9s.6-.8 1.3-.7c4.3.5 5.9-.2 7.3-3.7 1.5-3.7 1.6-10 .1-7.7m-14 1c-.4.3-.7 1.1-.7 1.7s.5.5 1.2-.2c.6-.6.9-1.4.7-1.7-.3-.3-.9-.2-1.2.2m-19.7 2.8c-1.3 1.4-2.1 2.7-1.8 3.1.3.3 1.6-.9 2.8-2.5 2.6-3.7 2.2-4-1-.6m14.1.9c-3.3 3.5-2.2 5.4 1.2 2.2 2.6-2.4 3.5-4.6 1.9-4.6-.5 0-1.9 1.1-3.1 2.4m-68.1.6c-.8.5-1.2 1.1-.9 1.4.2.3 1.1.1 1.9-.4s1.2-1.1.9-1.4c-.2-.3-1.1-.1-1.9.4m27.4.2c-.5.8-4 2.3-7.9 3.2-7.6 1.9-11.5 3.9-11.5 6 0 .7-.6 1.9-1.4 2.6-.8.6-1.6 2.6-1.8 4.3-.3 2.7-.7 3.2-2.6 2.9-1.5-.1-2.2.2-1.9 1 .2.7-.9 2.1-2.4 3-2.4 1.5-6.8 7.8-5.4 7.8.2 0 2.8-1.1 5.7-2.5 2.9-1.3 7.7-3.4 10.6-4.7l5.2-2.3v-4.8c0-4.7 2.5-12.6 3.6-11.4.4.3.1 2-.5 3.8s-1.1 4.6-1 6.3c0 3 .1 3 1.1.8 1.6-3.3 2.7-2.7 2.1 1.3-.4 2.7-.3 3.4.8 3.1.8-.2 2.6-.7 4.2-1 3.3-.8 3.3-1.7.3-7.9-2.9-5.9-1.7-6.1 2.7-.3 5.5 7.3 7.1 4 3.4-7.4-1.4-4.6-2.3-5.5-3.3-3.8m-22.1 22.5c-.7.2-1.9.2-2.5 0-.7-.3-.2-.5 1.2-.5s1.9.2 1.3.5m38.2-19c-5.6 9-5.9 9.6-3.8 8.5 5.3-2.9 11.1-13.2 7.4-13.2-.3 0-2 2.1-3.6 4.7m-50 2.8c-1.6.8-4.2 1.4-5.6 1.5-3.1 0-5.8 2.5-3.7 3.3 1.3.5 1.2.6-3.5 2.1-3 1-.8 2.6 3.5 2.6 4 0 4 0 3.4-3.1-.5-2.5-.3-3 .9-2.5.8.3 1.5.1 1.5-.4 0-.6.5-1 1-1 .6 0 1 .7 1 1.5s-.4 1.5-1 1.5c-.5 0-1 .7-1 1.6 0 1.2.6 1.5 2.3 1 4.7-1.1 11.7-4.7 11.7-5.9 0-3.6-5.1-4.7-10.5-2.2m91.5 1.3c-2.9 1.3-3.2 1.6-1.5 2 1.1.2 2.4.8 2.9 1.3 1 .9 5.6-2.6 5.6-4.3 0-1.2-3.1-.8-7 1"/><path d="M348 206.2c-4.1 2.6-5 3.7-5 6 0 1.2.8 1.8 2.3 1.8 3.3-.1 15-4.3 15.4-5.6.3-1-6.4-4.4-8.5-4.4-.4 0-2.3 1-4.2 2.2m87.5-.2c-3.5 1.7-3.6 1.8-1 1.3 1.7-.3 3.7-1.2 4.5-1.9 1.9-1.8 1.3-1.7-3.5.6m15.7 1c-6.9 1-7.4 1.6-2 2.5 2.4.3 5.4.8 6.8 1 1.4.3 3.4-.2 4.5-1.1 1.7-1.3 1.8-1.6.5-2.4-1.7-1.1-2.3-1.1-9.8 0m-72.9 3.5c-5.9 2.7-6.6 4-2.7 4.9 2.7.7 6.4-1.7 8.5-5.7 1.2-2.2.5-2.1-5.8.8m-40.5 1.1c-3.4 1.8-3.5 2.4-.4 2.4 1.3 0 2.7-.7 3-1.6.9-2.3.5-2.4-2.6-.8m20.7 3.3-2 .8 2 .5c1.7.5 1.6.6-.5.7-1.5 0-3.1-.4-3.7-1-.7-.7-2.3-.7-5.2.1-2.4.6-6.9 1.2-10.2 1.2-6 .1-6 .1-5.4 2.7.7 3.2 5.6 11.3 7 11.8.6.2 2-2.6 3-6.2 1.1-3.6 2.3-6.5 2.8-6.5.9 0 1.1-.8-1.8 8.4-1.7 5.6-2.3 9.1-1.9 11.8.8 4.7 2.4 6 2.5 2.1.1-1.7.3-2.1.6-1.1.2 1 1 1.8 1.6 1.8 3.3-.2 23-13 24.2-15.8.3-.7 0-2.3-.6-3.4s-.8-3.1-.5-4.4c.5-1.7.1-2.6-1.3-3.4-2.3-1.2-7.7-1.2-10.6-.1m-2.9 12.5c1 .8 1.6 1.8 1.2 2.2-1 .9-6.9-1.6-6.2-2.7.8-1.3 2.7-1.1 5 .5m-26.6-9.5c0 .5.9 1.9 2 3.2l2.1 2.4-1.6-3.3c-1.5-3.1-2.5-4.1-2.5-2.3m43 1.6c0 3 2 3.3 3.7.6 1.3-2.2.8-3.1-1.9-3.1-1.3 0-1.8.7-1.8 2.5m-49.9 1.1c-1.2 1.5-2.1 3.2-2.1 3.8.1 1.1 10 8.1 15.8 11 3 1.6 3.2 1.6 3.2-.2 0-1-2-4.2-4.5-7.1s-4.5-5.6-4.5-6.1c0-1.3-3-4-4.5-4-.7 0-2.3 1.2-3.4 2.6m75.4 1.5c-.4.6-.5 1.3-.2 1.6.7.7 2.7-.6 2.7-1.8s-1.7-1.2-2.5.2m-6.7 3.1c-3 2.1-3.6 3.8-1.5 3.8 1.7 0 5-3.6 4.6-4.9-.2-.5-1.6-.1-3.1 1.1m-11.5 1.2c-1.5 1.3-4.6 3.1-6.7 4-2.2.9-3.6 1.9-3.3 2.2.8.8 10.6-3.8 13.7-6.4 2-1.7 2.1-2.1.8-2.2-.9 0-2.9 1.1-4.5 2.4m-62.5 1.8c-2.8 3.5-1.9 5.3 1.2 2.5 1.2-1 1.2-.9.1.6-2.2 2.9-.4 3.1 2.3.4 1.4-1.5 2.6-2.3 2.6-1.8 0 .4-1.1 1.8-2.5 3.1-2.3 2.1-2.3 2.4-.7 3.6 1.6 1.3 1.6 1.3 0 1.4-2.1 0-2.1.3-.8 4.4.5 1.7 1.5 5 2 7.3l1 4.1 5.8-2.7c3.1-1.5 7.2-3.3 9-4 4.3-1.8 4.5-6.2.5-8.7-3.8-2.3-9-5.9-13.8-9.4-2.2-1.6-4.2-2.9-4.5-3-.3 0-1.3 1-2.2 2.2m64.2 4.7c-2.5 1.5-5.7 3.2-7 3.6-1.4.4-8.1 3.5-14.9 6.8-11.6 5.7-15.6 9.1-12.9 10.8.5.3.2 1.2-.7 1.9-.8.7-1.5 2.1-1.5 3.1 0 1.6.4 1.7 2.5.9 3.5-1.3 3.1-.4-.6 1.6-2.3 1.1-2.8 1.9-2 2.7s2 .6 4.3-.5c4-2 23.4-19.8 26.4-24.2 1.2-1.7 4.5-4.4 7.3-5.9 2.8-1.6 5.1-3 5.1-3.3 0-.9-1.7-.2-6 2.5m-46 22c-9.9 4.8-12 6.3-11.8 8.8.2 1.7.7 2.2 1.8 1.7.8-.3 3.9-1 6.9-1.5 3-.4 5.9-1.3 6.4-1.8.8-.8 2.9-9.4 2.4-9.7-.1-.1-2.7 1.1-5.7 2.5m-9.7 13.1c-2.7 1.1-3 3.5-.5 5 1.5.9 1.4 1-.5.5s-2.3-.2-2.3 1.9c0 3.4 1.4 4 4.5 2 2-1.3 2.3-1.9 1.3-2.6-.9-.7-.7-.8.7-.4 2.1.5 9.5-3.9 10.3-6.2.4-1.4-10-1.6-13.5-.2M295 281.7c0 2.6-.6 3.6-3 4.8-3.8 2-4.7 1.9-7.7-.5-2.3-1.8-2.8-1.9-4.2-.6-.9.8-2.8 1.9-4.1 2.4-2.2.8-1.8 1 3 1.7 3 .4 8 1.8 11 3 6.1 2.6 6.3 2.4 8-3.7.9-3.1.7-4.2-1-7l-2-3.3zm33 9.8c.7.8 1.7 1.5 2.2 1.5.6 0 .5-.7-.2-1.5s-1.7-1.5-2.2-1.5c-.6 0-.5.7.2 1.5m7 4.5c0 .9 3.2 3 4.6 3 .4 0-.1-.9-1.1-2-1.9-2.1-3.5-2.6-3.5-1m120.2 5.2c.6 1.8 2.5 2 3.1.3.5-1 0-1.5-1.4-1.5-1.2 0-1.9.5-1.7 1.2m-418.5 5.9c-.3 1.3-.1 1.9.6 1.6 1.5-.5 2.2-3.7.9-3.7-.5 0-1.2.9-1.5 2.1M0 325.3c0 2 .2 3.7.5 3.7 1.5 0 5.3-2.5 6.4-4.2 1.2-2 1.1-2.1-1.7-1.5-1.6.3-3.4.1-4.1-.6-.8-.8-1.1-.2-1.1 2.6m5.3 3L0 333.6V384h6v-9.5c0-5.6.8-12.8 1.9-17.7 1-4.6 2.1-10 2.4-12.2.6-3.6.5-3.7-.9-2-1.5 1.8-1.5 1.8-1-.6.2-1.4 1.3-5.8 2.2-9.8 1.1-4.4 1.4-7.6.8-8.2-.5-.5-3 1.2-6.1 4.3m7.2 54.7c-1.5.7-1 .9 2.3.9 2.6.1 4.1-.3 3.7-.9-.7-1.2-3.2-1.2-6 0"/></svg>