<svg xmlns="http://www.w3.org/2000/svg" width="682.667" height="512" version="1.0" viewBox="0 0 512 384"><path d="M0 192v192h26.9l.5-4.3c.2-2.3 1-8.5 1.5-13.7.6-5.2 1.8-13.3 2.6-18 2.2-12.4 2.9-22 1.6-22-.6 0-1.1.7-1.1 1.5 0 2.3-5.9 14.9-6.7 14.2-.3-.4.6-2.9 2-5.7 4.7-9 4.5-14.6-.3-12-1.1.6-3 .8-4 .5-2.6-.8-2.6-4.2 0-5 1.2-.4 2-1.5 2-2.8 0-1.5 1-2.6 2.8-3.5 1.6-.6 3.9-2.2 5.2-3.4s3-2.3 3.7-2.4c3.1-.5 4.1-2.4 3-5.3-.9-2.4-.6-3.5 1.7-7.5 1.5-2.5 2.2-4.6 1.6-4.6-1.9 0-1-1.5 2.1-3.3 1.7-.9 3.8-1.7 4.6-1.7 1.1 0 .7-.7-1.1-2.1-1.5-1.2-2.6-2.8-2.4-3.7.2-.8-1.2-3.1-3-5-3.9-4.3-3.9-4.8-.7-5.6 1.3-.3 3.2-2 4-3.7 3.3-6.2 10.8-6.3 17.6-.2 3.2 2.9 3.9 4.1 3.4 6-.4 1.6-.1 2.5 1 2.9 1.9.8 1.1 4.1-1.7 6.7-1 1.1-1.7 2.4-1.5 3 .5 1.7-1.5 3.5-3.4 3-1.5-.4-1.5 0-.3 4.6.7 2.8 1.6 5.6 2 6.3.4.6.9 2.3 1.1 3.7 1.5 8.3 1.4 10.2-.1 12.6-1 1.5-1.2 2.6-.6 3 1.6 1 1.2 2-1.9 3.8-2.5 1.5-3 2.7-5.1 12.9-2.9 13.7-3.6 24.9-1.9 28.9.6 1.6 3.1 4.4 5.5 6.1 3.6 2.6 4.1 3.3 3.1 4.8-.6 1-2.8 2.8-4.9 4-4.6 2.6-5.3 3.7-3.8 5.5 1.1 1.3 16.6 1.5 114.4 1.5h113.2l1.3-8.8c.7-4.8 1.6-13.7 2-19.8.8-11.2 1.2-12.3 6.6-21.7 2.5-4.4 3.9-12.4 4.9-27.6.1-2-.9-2.7-7.9-5.3-13.2-4.9-14.5-5.2-19-3.6-3 .9-4.5 2.2-5.8 4.9-.9 2-3.5 5.5-5.6 7.8l-3.9 4.3-11.4-.7c-11.7-.7-15.7-.1-26.8 4.1l-4.5 1.7-10.5-3.5c-9.8-3.3-11.2-3.5-21.8-3.2-9.7.2-11.7.5-13.5 2.2-4.8 4.4-8.9 5.3-11.8 2.6-1.5-1.3-2.6-1.4-6.9-.5-7.1 1.5-10.7 1.4-11.8-.5-.5-.8-1.8-2.1-2.9-2.7-1.1-.7-3.8-2.4-6.1-3.9-2.2-1.5-5.3-2.7-6.9-2.6-3 .1-15.3-2.7-19.3-4.5-1.4-.5-3.1-1.2-3.9-1.3s-2.6-1.5-4-3.1c-1.4-1.5-5.6-5.2-9.4-8.2-4-3.2-6.7-6.2-6.7-7.3 0-2.4-2.4-7-4.5-8.8-1.2-1-1.5-2.3-1-4.9.4-2.6-.1-5.5-1.9-10.4-1.4-3.7-2.2-6.7-1.8-6.7.4-.1-.6-1.1-2.2-2.4l-2.9-2.4 2.1-4.3c1.1-2.4 2.5-6.1 3.2-8.2.6-2 1.5-3.7 2-3.7 1.2 0 5.1-12.2 4.8-14.9-.2-1.5.4-2.7 1.7-3.5 1.1-.6 6.1-4.1 11.2-7.9 5.1-3.7 9.6-6.7 10.1-6.7.4 0 1.6-.6 2.6-1.3 1.8-1.3 1.8-1.5-.4-3.4-2-1.9-2.1-2.6-1.2-7.5 1-5.7 1-18.3-.2-20.8-.3-.8.3-3.3 1.4-5.5 1.1-2.1 2-4.8 2-5.8 0-2.7 8.8-11.2 13.1-12.6 2-.6 5-2.7 6.9-4.6 1.8-1.8 4.4-3.9 5.9-4.5 1.4-.6 3.9-2.9 5.4-5 4-5.7 7.9-7.4 15.7-7.3 8.3.2 12.1-1 14.9-4.7 1.4-2 3.6-3.4 6.7-4.1 3.7-1 4.8-1.8 5.6-4.1.6-1.6 1.5-2.7 2.2-2.5 4.2 1.6 5.4 1.6 6.6.2 1-1.2.8-1.6-1.4-2.5-1.4-.5-2.6-1.2-2.6-1.5 0-.4.5-3.9 1.1-7.8 1.3-8.5 3.6-13.3 8.1-17.3 6-5.4 9.8-10.4 9.8-13.1 0-1.4 1.3-4.9 3-7.8 3.5-6.1 4.6-6.5 20.6-6.5 7.6 0 12.2-.6 18.1-2.3l7.9-2.3 4.5 2.3c2.4 1.2 6.7 2.9 9.4 3.8 6.3 2.1 7.4 3 9.5 8 .9 2.2 2.4 4.6 3.2 5.3 2.4 1.9 8.1 2.2 10 .5 2.4-2.1 4.2-.5 5.7 5 .9 3.1.9 5 .2 7-1.7 4.4-1.3 6.4 1.8 9.6 2.2 2.3 3.2 2.7 4.1 1.8s.9-.7 0 .9c-.9 1.4-1 3.1-.4 5 .4 1.6.9 3.3.9 3.9.1.5.5 3.6.9 6.7.5 3.2 1.1 5.8 1.5 5.8s1.4-1.2 2.3-2.8c.9-1.5 2.6-3.6 3.9-4.7l2.2-2-1.1 2.2c-.7 1.2-1.8 2.7-2.5 3.5-1.9 1.9-4.7 6.1-4.7 7 0 .5.7.8 1.5.8.7 0 1.9.8 2.4 1.7.9 1.5 1.1 1.2 1.2-1.7.1-2.3.3-2.7.6-1.3.4 2 .9 1.8 5.7-3 4.9-4.9 5.2-5.5 4.9-9.7-.2-4.2-.2-4.3.6-1.2 1.2 4.5 1.5 4.6 3.1 1.4 1.8-3.5 9.3-13.1 10.3-13.2.4 0-.8 2.4-2.7 5.2-2 2.9-4.4 6.9-5.5 9-1.1 2-3.3 4.6-4.8 5.8l-2.8 2.2 3-.8c4.1-1 4.5-1.2 4.5-3.6 0-1.7.4-1.9 2.3-1.3 1.2.4 3.7.8 5.6.8 3 0 3.2.2 1.5 1.4-1 .7-2.3 1.3-3 1.3s-1.4.5-1.6 1.2c-.3.7-2 1.1-4.6 1-4.3-.3-11.2 2-11.2 3.7 0 .5-1.6 3-3.5 5.5-2 2.7-3.2 5.2-2.9 6.1.5 1.2.9 1.3 2 .4s1.4-.7 1.4.9c0 1.2-.6 2.5-1.3 2.9-.8.4-1.7 1.7-2.1 2.7-.7 1.9-.6 1.9 1.3.2 1.1-1 2.6-1.6 3.3-1.4.7.3-.5 1.6-2.9 3.1-3.9 2.4-6.3 6.1-4.9 7.4.3.4.6-.1.6-1 0-3.3 1.6-2.4 1.8 1.1.2 2 .5 3.8.7 4.1 1 1 4.5-3.4 4.5-5.6 0-1.2.5-2.3 1-2.3.6 0 1 .4 1 1 0 .5.5 1 1.1 1 .5 0 .8-.4.5-.9-.4-.5.3-.7 1.3-.4 1.8.5 1.7.7-1 3.4-2.8 2.7-3.9 5.9-2 5.9 3.3 0 6.1-2.1 6.2-4.7l.1-2.8.7 3 .6 3 3.4-4.8c1.8-2.7 3.6-4.6 3.9-4.3.3.4 1.4-.6 2.4-2.1 1.5-2.4 1.8-2.5 1.8-.8 0 2.4-4.6 7.1-5.2 5.4-.2-.7-.4.7-.4 3v4.1l1.8-2.8c1.9-2.9 2.5-2.3.8.9-.8 1.3-.7 1.9 0 1.9.6 0 .8.4.5 1-.8 1.2.5 1.3 2.4.1.8-.5 1-1.4.6-2.1-.5-.8-.4-1.1.2-.7 1.6 1 13.1-11.6 15.4-17 1.1-2.6 2.8-5.6 3.7-6.6 1.4-1.5 1.4-2.1.3-4-1.1-1.8-1.1-2 0-1 1.9 1.8 2.6 1.6 3.3-1 .3-1.2 1.7-3.5 3-5 2.1-2.4 2.3-3.3 1.5-5.4-.5-1.4-.7-2.8-.4-3.1.3-.4.9.5 1.2 1.8.6 2.3.7 2.2 2.4-1.5 1.1-2.6 1.8-3.3 1.8-2.1.1 1.8.5 1.7 3.3-1 2.9-2.6 2.8-2.5-.5 1.4-2 2.3-3.7 5-3.7 6.1 0 1-1.1 3.3-2.5 5.2-1.3 1.9-3.2 4.7-4.1 6.3-1.4 2.6-1.5 2.8 0 2.3 2.9-1.1 1.7.8-1.4 2.1-1.6.8-3 2-3 2.8 0 .9 2.1.2 7-2.3 4.1-2.2 7-4.3 7-5.2 0-1.4.1-1.4 1-.1.7 1.1 1 1.1 1 .2 0-.7.5-1 1.1-.6.9.5 1-.2.5-2.2-.3-1.6-.8-5.4-1.1-8.4-.6-6 .8-3.8 2 3.3.8 5.1 2.9 5.7 6.9 1.8 2.6-2.5 3.1-3.7 2.8-6.5-.4-3.5 1.4-5.9 2.4-3.2.5 1.4 1 1.3 3.6-.5 5.6-4 4-.5-3 6.7-1.8 1.8-.8 1.8 2.9-.2 1.7-.8 3.3-1.3 3.6-1 .3.2-1.5 1.4-3.9 2.7-2.3 1.2-6.9 4.1-10.2 6.5-3.2 2.4-6.9 4.7-8.2 5-2.6.7-3.3 2.4-.9 2.4 2 0 6.5-2.2 6.5-3.2 0-.4.4-.8 1-.8.5 0 .7.7.4 1.5-.4.9 0 1.5.8 1.5 2.2 0 10.8-3.1 10.8-3.9 0-.4 1.8-3.2 4-6.1 4.4-5.9 5.5-6.1 1.5-.2-1.4 2-2.5 4-2.5 4.3 0 .4 4-1.4 8.8-4 5.3-2.8 8.9-4.2 8.9-3.4 0 .6-.4 1-.8.7-.4-.2-1 .5-1.4 1.5-.4 1.2-1.2 1.8-2 1.4-.8-.3-1.8.2-2.1 1.2-.4.9-1.3 1.4-2 1.1-.8-.3-1.4-.2-1.4.3 0 .4-1.9 1.5-4.1 2.4-2.9 1.2-4 2.1-3.6 3.1.4.9.2 1.8-.3 2.1-.6.4-1-.1-1-.9 0-1.4-.6-1.3-4.7.3-2.7 1-9.5 2.6-15.3 3.6-13.1 2.3-16 3.6-16 7.4 0 1.5-.5 4.2-1.1 6s-.9 3.4-.6 3.7c.2.3 2.3-1.3 4.6-3.5 4.3-4.1 6.6-4.5 6.8-1.2.1 1.4-.7 2.1-3.1 2.5-1.8.4-5.7 2.4-8.6 4.6s-6.1 4.2-7.1 4.5c-1 .4-1.8 1.2-1.6 1.8.1.7-1 1.3-2.5 1.5s-3.4 1.4-4.2 2.8c-1.6 2.3-1.6 2.4.6 2.4 1.9 0 1.7.3-1.2 1.8-2.8 1.4-3.6 2.4-3.8 5-.5 5.5.3 6.6 3.5 4.6 2.7-1.5 2.7-1.5-.3 1.2-3 2.8-6.1 7.4-4.9 7.4.3 0 2.4-1.3 4.7-3 5.1-3.8 7.1-3.9 2.6-.3-1.8 1.6-4.2 3.6-5.2 4.5-1.1 1-2.3 1.8-2.7 1.8-.8 0-2.1 3.1-1.5 3.7.2.3 2.8-1.2 5.6-3.1 2.9-2 5.9-3.6 6.7-3.6.9 0 3-.9 4.7-1.9s5.6-2.4 8.5-3c3.1-.7 8.5-3 12.2-5.3 6.3-3.9 6.9-4.6 8.7-9.9 1.7-5.1 1.8-6.1.6-8.5-1.7-3.2-1.7-3.7-.3-2.8 1.4.8.3-6.4-1.2-8.3-.7-.7-.6-1.4.1-1.8.5-.3 1.2 0 1.4.7s.9 2.8 1.5 4.7 1.1 4.6 1.1 6c.1 2.4.2 2.4 1.6-.9.8-1.9 1.3-4.6 1-6s-.3-1.9 0-1.2c.7 1.6 2.4.5 2.4-1.6 0-1 1-2.3 2.3-3.1 2.2-1.4 2.2-1.4.3.7-1.1 1.3-1.6 2.8-1.2 3.9.7 1.7.8 1.7 1.8-.2.6-1.1 1.7-2.3 2.4-2.8.7-.4 1.5-2.1 1.9-3.7.4-1.7 1.1-3 1.7-3s.7 1.2.3 3.1c-.7 2.9-.6 3.1 1.6 2.4 1.3-.4 3.2-1.4 4.2-2.3 1.9-1.6 8.8-4.4 9.5-3.7.2.2-1.2 1.1-3.2 2-3.2 1.5-3.6 2.1-3.6 5.6 0 3.2.4 3.9 1.9 3.9 1.1 0 2.3-.5 2.6-1 .8-1.3 7.1-4.5 10.5-5.4 1.4-.4-.2.8-3.5 2.6l-6 3.3 3.8.3c3.3.3 3.6.5 2.2 1.8-1 1-2.5 1.3-4.7.9-4.1-.8-10 1.1-7.8 2.5.8.5 3.4 1.2 5.7 1.6 2.3.3 5 1.2 6 1.9 1.1.9-1.4.5-6.4-.9l-8.3-2.4-5.1 3.9c-2.8 2.1-5.4 4-5.6 4.3-1.2 1.2 6.5 3.8 12.5 4.3 3.7.3 7.1.8 7.5 1.2s-.7.6-2.5.4c-2.7-.4-3-.2-1.8.7 1.8 1.4-2.6.8-10.6-1.4-7-1.9-10-1.1-12.9 3.4-1.5 2.4-5.1 5.4-10.2 8.4l-7.8 4.8 4.2-.6c4.4-.6 12.8-4.1 15.1-6.4 1.6-1.4 2.2-1.5 2.2-.3 0 .6-1.9 2.1-4.2 3.5-2.4 1.4-3.6 2.6-2.8 2.6 1.5 0 9.1-5.6 9.8-7.2.2-.5 1.1-.8 2-.8 1.1 0 .4 1.3-2.3 4l-3.9 4h4.7c3.5 0 4.7-.4 4.7-1.5 0-1.8.9-1.9 3-.4 1.1.8 1.2 1.2.3 1.6-.7.2-1.3.9-1.3 1.5 0 1.7 1.4.5 6.8-5.5 3.1-3.4 5.2-5.1 5.2-4.1 0 .9-1.6 3.4-3.5 5.5-4.1 4.5-4.5 6.4-1.2 5.5 1.2-.3 2.8-.6 3.5-.6s1.7-1 2.2-2.3c.6-1.6.9-1.7.9-.5.1.9.9 2.2 1.9 2.7.9.6 1.1 1.1.5 1.1-.7 0-1.3 1.2-1.3 2.6s.4 2.3.9 2 1.2.1 1.5.9c.5 1.3 1.3 1.1 5.6-1.1 4.9-2.5 4.9-2.6 3.6-5.3-.8-1.4-1.9-5.1-2.4-8.1-.6-3-1.4-6.4-1.8-7.4-.5-1.2-.4-1.7.3-1.3.6.4 1.6 2.8 2.3 5.4 2 7.2 5 12.7 6.2 11.5 1.1-1.1-.5-7.1-2.9-10.8-1.2-1.8-5.5-15.6-5-16 .1-.1 1.3.3 2.7.8 1.9.7 2.1 1.1 1.1 1.8-1.2.7-1.2 1.6-.1 5.4.7 2.5 2.3 6 3.6 7.7l2.3 3.1.7-3.7c.7-3.9 0-13.8-1.2-17q-.75-1.8.3-1.2c2.8 1.7 4.2 27.8 1.7 31.8-.5.9-.2 1 .9.6 1-.3 1.7-.2 1.7.2 0 .5-.7 1.1-1.5 1.5-1 .3-1.5 1.9-1.5 4.5v4.1l3.5-1.8c2.7-1.3 3.3-2.1 2.8-3.7-.5-1.7-.4-1.8 1-.7 1.3 1.1 2.5.6 8-3.3 3.6-2.5 6.9-4.5 7.5-4.5.5 0 1.2-.7 1.6-1.5.7-2 3-1.9 4.7.1 1.2 1.4 1.6 1.3 3.6-1.2 1.3-1.6 2.3-2.4 2.3-1.8 0 .5-.4 1.4-.8 2-.5.5-1.7 2.8-2.6 5.2-1.8 4.9-.5 4.8 2-.1.9-1.8 3.4-4.9 5.5-7 2.2-2.1 3.9-4.5 3.9-5.3s.5-1.2 1-.9c2.1 1.3.8 3.9-4.5 10-3 3.5-5.5 6.7-5.5 7.2s-.9 1.9-2.1 3.2c-3.2 3.4-1.9 3.3 3.1-.2 2.5-1.7 6.7-3.9 9.3-4.9 4.7-1.8 4.8-1.8 4.3 0-.8 2.5 1.8 2.5 3.3-.1.8-1.1.8-1.6.2-1.2-.6.3-1.1.1-1.1-.4 0-.6.9-1.1 1.9-1.1 1.1 0 2.2-.9 2.6-1.9.3-1.1 1.3-2.5 2.2-3.3 1.5-1.1 1.6-1.1 1 .4-.7 2.1.3 2.3 2.3.5.8-.6.4 0-.9 1.6-2.9 3.2-2.7 3.3 3.3.7 2.5-1.2 5.8-3.6 7.3-5.5 1.6-1.9 3.2-3.5 3.8-3.5.5 0-1.3 2.2-4 5-2.7 2.7-5.4 5-6 5-.5 0-2.7 1.8-4.9 4-3.8 4-7.1 5.6-4.5 2.2q1.95-2.25-.3-.3c-1 .7-1.6 1.6-1.3 2 .2.4-.5 1.5-1.7 2.5-1.4 1.2-1.9 2.6-1.6 4.5.2 1.5-.2 3.3-.9 4-.7.6-1.3 2.8-1.3 4.7 0 2.8.4 3.4 1.8 3.2 3-.5 5.5-4.6 4.8-7.9-.3-1.6-.1-2.9.4-2.9.9 0 1.5 2.8 1.1 5.7-.1.7 0 1.3.2 1.3.3 0 6.7-3 19-8.8.4-.2.7 0 .7.5 0 .9-7.6 5-15.7 8.3-2.8 1.2-6 3.1-7 4.2-1.8 2-1.8 2.1 1.4 1.6 1.8-.2 3-.1 2.7.4-.3.4-1.5.8-2.6.8-1.2 0-4.3 2-6.9 4.5s-5.7 4.5-6.9 4.5c-1.1 0-2 .4-2 1s4 1.1 9.8 1.2c5.5.1 7.5.3 4.7.5-2.7.3-5.2.8-5.5 1.3-.3.4-2.1.9-4 1.1-5.1.4-5.2.6-2.4 5.1 1.4 2.2 2.1 3.7 1.5 3.3-.6-.3-2.7-3.1-4.6-6.1-2.6-4-4-5.4-5.3-5-5.7 1.7-7.3 1.8-7 .5.2-.8-1.2-1.7-3.5-2.3-3.4-.9-4.1-.7-8 2.3-5 3.7-6 4.2-15.2 7.1-3.8 1.2-8.5 3.3-10.3 4.6-1.7 1.4-5.7 3.4-8.7 4.4-10.9 3.8-27.5 16.8-38.9 30.5-3.1 3.7-6.1 5.8-14.3 9.7-7.9 3.8-10.7 5.6-11.9 8-1.8 3.5-1.4 4.4 1.6 2.8 1.2-.6 2.4-.9 2.8-.6.3.3.1.6-.4.6-.6 0-1.9.7-3 1.5-1.2 1-1.4 1.3-.3 1 .8-.3 2.8-.1 4.4.5 2.4.9 3.3.8 5.4-.8 4.4-3.1 5.7-3.5 2.7-.7-2.4 2.2-2.6 2.9-1.5 3.6.8.5 2.4.9 3.7.9 1.2 0 2.2.4 2.2 1 0 .5.9 1 2 1s2 .4 2 .9c0 1-7.2-.4-10.1-1.9-2.3-1.3-9.2-1.3-10.7 0-.9.7-.9.7-.2-.2 1.8-2.2 1-3-2.2-2.3-4.9 1.1-5.2 1.5-2.7 4.1 1.7 1.8 3.4 2.4 6.8 2.5l4.6.2-3.8.6-3.8.6 3.3 3.2c1.8 1.7 4.2 3.4 5.3 3.7 1.2.3 1 .4-.5.1-1.4-.2-3.6-.7-5-1.1-2.1-.5-2.3-.4-1.2.7 1.9 2.1 1.4 3.4-.7 1.5-1.8-1.6-2-1.6-4 1-2.1 2.6-2.1 2.6-2.1.4 0-1.2-.5-4-1.2-6.2-1.1-3.8-1.3-3.9-4.7-3.4-3.4.6-3.5.6-1.6-.9 1.1-.8 2.6-1.3 3.3-1 1 .4 1.2 0 .8-1.1-.3-.8-.6-1.8-.6-2s-.7-.4-1.6-.4c-.8 0-1.2.5-.9 1 .3.6.1 1-.4 1-.6 0-1.1-.5-1.1-1 0-1.9-2-1-2.9 1.2-4.6 12.2-5.4 16.1-4.8 25.1.3 5.1 1 10.5 1.7 12.2.6 1.6 1.4 9.1 1.7 16.5.4 10.8.2 14.8-1.1 19.9-1.6 5.7-1.5 8.7 0 14.3.5 1.7 4.7 1.8 70.7 1.8h70.2l.1-4.8c.2-4.3-1.7-21.2-3-27.1-.7-3.2-1.9-4.3-5.9-5.7-1.8-.6-3.8-2.2-4.5-3.5-1.8-3.3-.9-12.5 1.6-17.5 1.1-2.1 2.8-7.7 3.7-12.2l1.8-8.4-2.9-5.4c-2.4-4.5-2.7-5.7-1.7-7.3 1.4-2.3 5.3-13.5 5.3-15.3 0-1.5-5-6.8-6.5-6.8-2 0-4.5-3.5-4.5-6.1.1-3.4 3-6.5 8.9-9.4 5.7-2.9 12.1-2.7 12.1.3 0 .9.8 2.5 1.9 3.6 1 1.2 3.1 4.2 4.6 6.8 2.2 3.9 2.4 4.8 1.1 4.8-.9 0-1.3.6-1 1.4.3.9-.3 1.7-1.7 2.1-2 .7-2 .8-.6 1.7 1 .5 1.7 1.5 1.7 2.2s.9 2.1 2.1 3.2c1.1 1 2.7 3.3 3.4 5 1.2 2.9 3.1 5.6 6.2 8.9.6.7.9 2.3.7 3.6-.5 2.1-.3 2 2.4-1 4.2-4.9 4.7-2.4.6 2.8-1.9 2.4-3.4 5.4-3.4 6.7 0 1.2-.4 2.6-1 2.9-2.9 1.8-.4 5.4 7.1 10 10.4 6.5 11.9 7.8 10.9 9-.9 1.1-1.8 1.1-5.1 0-4-1.4-11.5-6.1-15.8-9.9l-2.4-2.1.6 3.5c.3 1.9 2.2 7.6 4.2 12.5 2 5 3.9 10.3 4.2 11.8.7 3.7-1.9 5.6-7.6 5.7-4.8 0-4.7-.7-1.2 9 1.3 3.4 2 8 2.1 12.2 0 3.7.5 7 1 7.3.6.3 1 1.7 1 3.1 0 2.2.4 2.4 5.1 2.4 2.9 0 7-.5 9.2-1.2 3.2-1 4.1-1 4.5 0 .2.7 2.4 1.2 5.8 1.2h5.4V0H297.1C126.1 0 82 .3 81.6 1.2c-.5 1-.7 1-1.2 0C80 .3 70.9 0 39.9 0H0zM298 8.9c-1.2 2.3-2.9 3.5-3.7 2.7-.7-.7 2.6-4.6 3.9-4.6.5 0 .4.9-.2 1.9M447 24c0 .5-.7 1-1.5 1s-1.5-.5-1.5-1c0-.6.7-1 1.5-1s1.5.4 1.5 1m-112 5.1c0 .5-.7.9-1.5.9-.9 0-1.2-.6-.9-1.5.6-1.5 2.4-1.1 2.4.6m-203.7 1.6c-.5 1.2-.7 1.2-1.4.1-1.3-2-1.1-2.8.5-2.2.8.3 1.2 1.2.9 2.1m123.4 1.9c-.3.3-1.2.4-1.9.1-.8-.3-.5-.6.6-.6 1.1-.1 1.7.2 1.3.5m85.6 1.9c-.4 1.5-5.6 1.2-6.1-.3-.3-1 .5-1.3 2.9-1 1.9.2 3.3.7 3.2 1.3m-136.1 12c-.2 1.4-.8 2.8-1.3 3.1s-.7-.2-.4-1c.3-.9.7-2.3 1-3.1.7-2.4 1.3-1.7.7 1m-101.8 3.1c2.2.8 2 2.1-.4 2.7-2.2.6-3.5-.7-2.5-2.3.7-1.2.8-1.2 2.9-.4M118 70.9c0 1.2-2 2.5-2.7 1.8s.6-2.7 1.8-2.7c.5 0 .9.4.9.9M326.5 77c-.3.5-1 1-1.6 1-.5 0-.9-.5-.9-1 0-.6.7-1 1.6-1 .8 0 1.2.4.9 1m-23 3.9c-.3.6-1.1 1.1-1.7 1.1s-.6-.6.2-1.5c1.4-1.7 2.6-1.3 1.5.4M78.8 87.3c.2 1.5 0 2.7-.5 2.7-1.9 0-5.3-3.2-5.3-5 0-1.5.5-1.7 2.8-1.1 2 .5 2.8 1.5 3 3.4m287.9 2.9c-.3.8-.6.5-.6-.6-.1-1.1.2-1.7.5-1.3.3.3.4 1.2.1 1.9M357 93c1.1 2.2 1.8 4 1.5 4-.2 0-1.4-1.8-2.5-4s-1.8-4-1.5-4c.2 0 1.4 1.8 2.5 4m8.6 1.6c-.4.9-.9 1.5-1.1 1.2-.3-.3-.3-1.3.1-2.2s.9-1.5 1.1-1.2c.3.3.3 1.3-.1 2.2m44.4 12.8c0 .3-.4.8-1 1.1-.5.3-1 .1-1-.4 0-.6.5-1.1 1-1.1.6 0 1 .2 1 .4m-45.5 9.6c-.3.5-1.1 1-1.6 1-.6 0-.7-.5-.4-1 .3-.6 1.1-1 1.6-1 .6 0 .7.4.4 1m78.2 2.6c-.3.3-1.2.4-1.9.1-.8-.3-.5-.6.6-.6 1.1-.1 1.7.2 1.3.5m-343 2.5c2.6 1 2.7 1.2.8 1.9-4.5 1.9-10.5.6-10.5-2.2 0-1.2 6.4-1 9.7.3m290 4.1c-.3.7-.5.2-.5-1.2s.2-1.9.5-1.3c.2.7.2 1.9 0 2.5m-76.2.8c-.3.5-1.1 1-1.6 1-.6 0-.7-.5-.4-1 .3-.6 1.1-1 1.6-1 .6 0 .7.4.4 1m23.5 1.4c0 .2-.8 1-1.7 1.7-1.6 1.3-1.7 1.2-.4-.4s2.1-2.1 2.1-1.3m39.7 4.8c-.3.7-.5.2-.5-1.2s.2-1.9.5-1.3c.2.7.2 1.9 0 2.5m4 0c-.3.8-.6.5-.6-.6-.1-1.1.2-1.7.5-1.3.3.3.4 1.2.1 1.9M378 136c0 .5-.4 1-.9 1-.6 0-1.3-.5-1.6-1-.3-.6.1-1 .9-1 .9 0 1.6.4 1.6 1m-10.3 1.6c-.3.3-1.2.4-1.9.1-.8-.3-.5-.6.6-.6 1.1-.1 1.7.2 1.3.5m47.9 4.9c-1.6 1.6-3.6 2-3.6.7 0-1.4 1.2-2.2 3.2-2.2 1.7 0 1.8.2.4 1.5M356 154c0 .5-.4 1-.9 1-.6 0-1.3-.5-1.6-1-.3-.6.1-1 .9-1 .9 0 1.6.4 1.6 1m-15.5 1.9c-.3.6-1.1 1.1-1.7 1.1s-.6-.6.2-1.5c1.4-1.7 2.6-1.3 1.5.4m128.2 5.3c-.3.7-.5.2-.5-1.2s.2-1.9.5-1.3c.2.7.2 1.9 0 2.5m5.9 4.4c-1 1.4-2 2.3-2.3 2.1-.2-.3.3-1.7 1.3-3.1.9-1.5 1.9-2.4 2.2-2.2.2.3-.3 1.7-1.2 3.2m9.4-1.3c0 .2-1.2 1.4-2.7 2.8l-2.8 2.4 2.4-2.8c2.3-2.5 3.1-3.2 3.1-2.4M352.5 170c-.3.5-1 1-1.6 1-.5 0-.9-.5-.9-1 0-.6.7-1 1.6-1 .8 0 1.2.4.9 1m75.5 2c0 .5-.5 1-1.1 1-.5 0-.7-.5-.4-1 .3-.6.8-1 1.1-1 .2 0 .4.4.4 1m44-.6c0 .4-5.9 3.6-6.7 3.6-.1 0-.3-.4-.3-.8 0-.5 1.2-1.3 2.8-1.9 3.1-1.3 4.2-1.5 4.2-.9M35.6 185.5c-2.3 1.7-3.6 1.9-3.6.6 0-1.1 1.8-1.9 4-2 1.1 0 1 .3-.4 1.4M61 188c0 .5-.5 1-1.1 1-.5 0-.7-.5-.4-1 .3-.6.8-1 1.1-1 .2 0 .4.4.4 1m447 0c-.8.5-1.9 1-2.5 1-.5 0-.3-.5.5-1s2-1 2.5-1c.6 0 .3.5-.5 1m-20 15c-.8.5-2.4.9-3.5.9-1.6-.1-1.6-.2.5-.9 3.5-1.1 4.8-1.1 3 0m-63.3 47c1.2 1 2.5 3 2.9 4.2.4 1.3 1.7 3.6 3 5.1 2.8 3.3 3.1 6.9.9 8.7-5.4 4.5-17.3 11-19.5 10.8-3.2-.4-3.9-4.9-1.5-9.5 1.7-3.1 1.7-3.3-.4-5.9-5.1-6.5-.4-15.4 8.1-15.4 3 0 5.1.6 6.5 2m83.3 2c0 .5-.7 1-1.6 1-.8 0-1.2-.5-.9-1 .3-.6 1-1 1.6-1 .5 0 .9.4.9 1M6 270c.8.5 1.1 1.2.7 1.6s-1.5 0-2.4-.9c-1.8-1.8-.8-2.3 1.7-.7m382.4 11.1c-2.5 2.8-4.8 2.6-3.3-.4.6-1.2 1.9-3 2.8-4.1 1.6-1.8 1.6-1.8 1.9.4.2 1.2-.4 3-1.4 4.1M498 320.4c0 2.4-1.4 2.6-4 .5l-2.5-1.9h3.3c2.1 0 3.2.5 3.2 1.4"/><path d="M296 105.1c0 .5.5.7 1 .4.6-.3 1-.8 1-1.1 0-.2-.4-.4-1-.4-.5 0-1 .5-1 1.1m-1.1 10.3c-.8 1.6-.7 3.5.1 6.4 1.1 4.4 3 5.9 2.3 1.8-.3-1.3 0-2.7.6-3 .6-.4 1.1-2 1.1-3.6 0-3.7-2.7-4.8-4.1-1.6m-3.7 4.8c.2.6 1 1.4 1.6 1.6.7.2 1-.2.6-1.2-.7-1.8-2.8-2.2-2.2-.4m-1.8 4.5c-.3 1.6-.7 3.3-.9 4-.5 1.7 3.8 9.4 5 8.9.6-.2.9-2 .9-4-.1-2.7.2-3.4 1.1-2.6 1.7 1.4 2.6.1 1.2-2.1-.9-1.4-1.4-1.6-2.6-.6s-1.3.8-.8-1.2c.6-2.4-.7-5.1-2.4-5.1-.5 0-1.1 1.2-1.5 2.7m55.2 12.1c-6.1 6.2-10.2 11.9-9.3 12.8.6.6 8.3-3.3 10.3-5.1 2.4-2.3 6.7-13.5 5.2-13.5-.3 0-3.1 2.6-6.2 5.8m-57.9-1.6c-.2.7.5 2.4 1.7 3.8 1.4 1.7 1.5 2 .3 1.1-2.3-1.8-2.8-1.2-3.8 4.6-.5 2.6-1.2 5.7-1.5 6.8-.6 1.8-.4 1.8 2-.4 1.4-1.4 2.6-3 2.6-3.7 0-.6.6-2.4 1.4-3.9 1.1-2 1.2-3.4.4-5.6-1.2-3.4-2.4-4.5-3.1-2.7m107.1.2c-2.3 1.7-2.3 2.6.2 2.6 1 0 2.4-.9 3-2 1.3-2.4-.5-2.7-3.2-.6m-6.3 5.3c-.5 1-.9 2.2-1 2.8 0 .5-.5 1.8-.9 2.8-1.6 3.4.3 2.9 4.6-1.2 3.6-3.4 4-4.3 2.8-5.1-2.3-1.5-4.7-1.2-5.5.7m8.2 0c-.4.3-.7 1.1-.7 1.7s.5.5 1.2-.2c.6-.6.9-1.4.7-1.7-.3-.3-.9-.2-1.2.2m-76.2 5.3-3 2.1 3-.7c3.7-.8 4.5-1.3 4.5-2.5 0-1.4-1.2-1.1-4.5 1.1m-20.8.7c-1.2 1.2-.7 2.2.8 1.7.8-.4 1.5-1 1.5-1.5 0-1.1-1.4-1.2-2.3-.2m80.5 2.6c-2.8 3-3 5.8-.3 3.3 1.5-1.4 3.6-5.6 2.7-5.6-.1 0-1.2 1-2.4 2.3m-71.1 1.3c0 1.1.3 1.4.6.6.3-.7.2-1.6-.1-1.9-.3-.4-.6.2-.5 1.3m7.9-.9c-2.7 1-3.9 2.4-3.3 3.9.8 2.1 1.9 1.7 4.3-1.6 2.1-3 1.9-3.4-1-2.3m-19.3 2c-1.3 1.3-.7 2.1 1.3 1.6 1.1-.3 1.7-.9 1.4-1.4-.6-1.1-1.8-1.2-2.7-.2m6.3 1.3c0 .5.5 1 1 1 .6 0 1-.5 1-1 0-.6-.4-1-1-1-.5 0-1 .4-1 1m17.9 3.3c-2.7 2.9-3.6 4.7-2.4 4.7 1.8 0 5.5-2.6 5.6-3.9 0-1 .2-1.2.6-.4.7 1.9 2.6 1.6 4.6-.7 2.3-2.7 2.3-2.7-1.9-2.8-2.8-.1-4.2.5-6.5 3.1m-12.9 1c-1.9 1.7-3.4 3.5-3.2 4q.15.75-.6.3c-.5-.3-2.6.9-4.6 2.7-2.8 2.4-3.8 4.2-4.2 7l-.4 3.9 6.5-5.8q12.45-10.95 10.8-13.8c-.6-1.2-1.5-.8-4.3 1.7m-11.5-.6c-4.1 2.2-5.8 4.1-5.1 5.8.7 1.9 2.2 1.9 3 0 .3-.8 1.7-2 3.1-2.5 1.5-.6 2.3-1.4 2-2-.3-.5.1-1 1-1s1.3-.5 1-1c-.8-1.3-1.4-1.2-5 .7m30 3.3c-.3.5-.3 1.5.1 2.1.6 1.1 2.3-.6 2.4-2.4 0-1-1.8-.9-2.5.3m-6.5 1.7c-1.9.8-3.9 2.2-4.4 3.1s-2.8 3.6-5 6.1c-2.3 2.4-3.5 4.1-2.8 3.7 2.1-1.3 1.3.1-2.1 3.5-2.6 2.6-3.6 4.8-4.6 9.6-1.2 6.1-.4 10.3 1.8 10.3 1.1 0 4.1-4.5 5.2-7.9.8-2.3.9-2.3.4.6-.4 3.1-.3 3.2 2 2.3 6.5-2.5 10.3-6.1 12.4-11.9 2-5.4 2-6.1.6-9.4-.8-2-1.5-4.2-1.4-4.9 0-.7.7.4 1.6 2.4.8 2.1 1.9 3.8 2.4 3.8 1.6 0 2.1-5 .9-8-1.8-4.3-3-4.9-7-3.3m-7.6 10.8c-.4.8-1.1 1.5-1.6 1.5-.6 0-.5-.6.2-1.5.7-.8 1.4-1.5 1.6-1.5s.1.7-.2 1.5m-32.9-1.3c.4 1.8 1.1 3.7 1.5 4.2 1.3 1.4 2.2-3.2 1-5.4-1.7-3.2-3.3-2.4-2.5 1.2m12.6 5.8c0 3.3.1 3.4 1 1.1.6-1.6.6-2.8-.1-3.5q-1.05-1.05-.9 2.4m151.3 1.2c-3.3 2.2-7 5-8.4 6.4l-2.5 2.5 2.3.5c1.7.5 2 .9 1.1 2-1.1 1.4.5 8.4 2 8.4s5.1-4.7 5.1-6.6c0-1.3.3-1.5.8-.6 1.2 1.8 5.6-3.2 8.1-9.1 2.6-6.1 2.6-6.4-.3-6.9-1.6-.3-4.2.8-8.2 3.4m-93.2-.9c-.9.4-4.4 2.5-7.7 4.7s-8.6 5.4-11.8 7c-5.9 3.1-13.4 8.5-20.9 15.1l-4.2 3.7 1.8 2.7 1.8 2.7 3.5-3.3 3.5-3.4-2.6 4.8-2.5 4.8 2.2 3.4c2.1 3.3 2.3 3.3 4.2 1.6 3.3-2.9 9.1-6.1 11.1-6.1 1.1 0 3-.7 4.2-1.6 1.2-.8 2.2-1.3 2.2-.9 0 .8 9.6-4.2 12-6.3 1.1-.9 2.6-1.7 3.3-1.7.6 0 2.7-.4 4.5-.9 3.1-.7 3.3-1 2.7-3.9l-.6-3.2 2.1 3.2c2.5 3.8 6.1 4.4 9.3 1.5 1.9-1.6 2-1.6.8.5-.6 1.3-.9 2.3-.5 2.3 1.9 0 14.1-7 17-9.8 1.9-1.8 3.4-2.8 3.4-2.2 0 .5 2.3-.2 5.1-1.7 5.1-2.8 5.1-2.8 2.7-4.3-1.2-.8-3.6-2.8-5.3-4.3-2.1-2-1.6-1.8 1.9.8 7.1 5.2 10.3 4.3 8.1-2.4-.5-1.6-.4-2.1.4-1.7.6.4 1.1.2 1.1-.4s-1-1-2.2-.8c-1.4.2-2.3 1-2.2 1.9.1 1.4-.2 1.4-2.5.3-4.4-2.1-8.1-2.8-8.1-1.4 0 .9-.6.8-1.9-.4-1.6-1.5-3.9-1.7-18-1.4-8.9.2-17 .7-17.9 1.1m63 7.6c-2.8 3-3.1 3.7-1.7 4 1.3.2 1.5.5.5 1.1-.9.6-.9 1.2-.1 2.9.7 1.1 1.6 2.1 2.1 2.1 1.3 0 4-2.9 4.1-4.6.2-1.8.4-2.5 1.4-4.7.4-1.1.3-2.3-.4-3-.6-.6-1.1-.7-1.1-.2 0 .6-.4.5-.8-.1-.4-.7-1.9.2-4 2.5m3.5 3.7c-.3.3-1.2.4-1.9.1-.8-.3-.5-.6.6-.6 1.1-.1 1.7.2 1.3.5m51.3-6.1c-.7.9-1.1 1.8-.8 2 .3.3 1.1-.1 1.8-1s1.1-1.8.8-2c-.3-.3-1.1.1-1.8 1m-7.2 2.8c-2.6 1.7-4.5 3.3-4.3 3.6.3.2 1.3-.2 2.2-.9 1-.8.3.2-1.5 2.1-2.1 2.2-3.5 3-4 2.3-.8-1.3-4.6-.2-5.7 1.5-.4.8.2.8 2 .1 3.5-1.3 4-1.3 2.5.5-2.5 3 .8 1.4 7.4-3.5 4.2-3.2 6.6-5.8 6.6-7 0-2.4.5-2.5-5.2 1.3m8.5.2c-1.5 1.3-2.3 2.5-1.6 2.5s2.5-1.1 4-2.5c1.5-1.3 2.3-2.5 1.6-2.5s-2.5 1.1-4 2.5m-59.6-.8c-.4.3-.7 1.1-.7 1.7s.5.5 1.2-.2c.6-.6.9-1.4.7-1.7-.3-.3-.9-.2-1.2.2m-5.3 3.8c-.4.8-1.4 1.5-2.3 1.6-.9 0-1.1.3-.4.5 1.5.6 5.3-1.3 5.3-2.6 0-1.6-2-1.2-2.6.5m63.9 3.4c-2.4 2-4.3 3.9-4.3 4.3 0 1.5 5.5-1 7.3-3.4 3.2-4.3 1.5-4.8-3-.9m-37.8-1c-.3.7.3 2.6 1.5 4.4l2.2 3.2-.6-3.5c-.7-3.9-2-5.7-3.1-4.1m-28.8 5.2c-2.7 2.8-4.7 5.2-4.5 5.5.3.2 2.8-.6 5.6-1.8 3.7-1.6 5.4-2.9 6.1-4.9.9-2.8.6-3.9-1.3-3.9-.5 0-3.2 2.3-5.9 5.1m23.7-4.3c-1.5.9-2.2 3.5-3 9.9-1 9.3 1.1 9.8 7.2 1.8l3-4-2.1-3.9c-2.2-4.2-3.3-5-5.1-3.8m-32.6 3.1c-2.6.9-5.5 2.5-6.5 3.3-1 .9-2.1 1.7-2.6 1.7-.4 0-1.5.5-2.5 1.1-1.3.8-.7 1 2.8.9 2.5-.1 5.9.2 7.7.6 2.9.7 3.3.4 4.9-2.6.9-1.9 2.6-4.2 3.7-5.2 2-1.7 2-1.7-.4-1.6-1.3 0-4.5.9-7.1 1.8m74.2 2.7c-1.4.7-3.5 1.4-4.7 1.4-1.3 0-2.8.9-3.5 2.1-.7 1.1-4.1 3.4-7.5 5.2-3.5 1.7-6.3 3.4-6.3 3.8 0 .9 7.3 0 12.9-1.7 2.5-.7 4.8-1.1 5.3-.8.4.3.8 0 .8-.7 0-.6.8-.9 2-.6 2.3.6 3.5-1.1 4.5-6.6.8-4 .3-4.3-3.5-2.1m-55.8 2c-.7.7-4.5 2.3-8.5 3.5-3.9 1.2-7.7 2.6-8.4 3.1s-1.6.7-2.1.5c-.4-.3-.8 1-.8 3 0 2.2-.6 3.8-1.6 4.4-1 .5-1.4 1.7-1.1 2.8.4 1.5-.1 2-2.4 2.3-1.5.2-2.6.6-2.3 1 .3.3-.7 1.6-2.3 2.8-3.2 2.5-6.4 8-4.6 8 .6 0 2.3-.8 3.7-1.8 1.5-1 4.7-2.6 7.2-3.4 5-1.7 11.3-4.1 11.9-4.5.2-.2.8-2.8 1.2-5.7.4-3 1.5-6.5 2.4-7.8 1.5-2 1.6-2.1 1.2-.3-.9 3.5-1.7 9.1-1.1 7.7 1.1-2.5 2.6-1.2 1.9 1.8-.6 2.8-.5 3 2.2 3 1.6 0 3.8-.6 4.8-1.4 1.8-1.3 1.8-1.4-.3-5.8-3-6.1-2.7-6.8.8-2.3 1.7 2.1 3 4.5 3 5.3 0 1.2.3 1.3 1.2.4.8-.8.9-2.8.2-6.9-.8-5.4-1.1-5.8-3.9-6.4-2.9-.6-2.6-1 1.5-2.2 1.2-.3 1.1-.6-.5-1.4-1.5-.8-2.3-.7-3.3.3m33.8 1.1-2.5 2.6 3.3-1.7c1.8-.9 3-2.1 2.7-2.6-.7-1.2-.5-1.3-3.5 1.7m3.5 2c-6.3 4.4-6.5 4.6-3.2 3.4 4.8-1.8 6.6-3.1 7.7-5.1 1.3-2.5 1.5-2.6-4.5 1.7m-18.9 3.5-2.8 4.3 2.7-2.5c3-2.8 5-6 3.7-6-.5 0-2.1 1.9-3.6 4.2m-52.6 0c-1.4.6-4.1 1.4-6 1.7-2.1.4-3.5 1.2-3.5 2.1 0 .8-.8 1.9-1.9 2.5-3 1.6-2.4 3 1.7 3.3 3.1.3 3.7 0 3.7-1.7 0-1-.6-2.1-1.2-2.4-.8-.3-.3-.9 1.2-1.5 3.1-1.2 4.9-.3 2.7 1.3-2.1 1.5-2.2 3.5-.3 3.5 2.8 0 4.8-1.3 5.7-3.7.7-1.9 1.3-2.2 2.5-1.5 2.4 1.3 5.4.3 5.4-1.8 0-3-5.1-3.9-10-1.8m92.3 1.5c-5.3 1.5-7 3.3-3.4 3.3 1.1 0 2.1.5 2.3 1 .2.6 1.9-.5 3.8-2.5 1.8-1.9 3.2-3.5 2.9-3.4-.2 0-2.8.8-5.6 1.6"/><path d="M349.8 209.6c-4.5 2.4-6.6 8.4-3 8.4 2.5 0 13.1-3.7 14.9-5.2 1.2-1 .9-1.5-1.9-2.9-4-2.2-6.5-2.3-10-.3m88 .1c.7.3 1.6.2 1.9-.1.4-.3-.2-.6-1.3-.5-1.1 0-1.4.3-.6.6m13.5 2c-5.7.5-5.5 2 .4 2.9 4.8.7 9.6-.3 9.7-2.1.1-1.1-3.7-1.4-10.1-.8m11.7 1.5c0 1.1 2.8 1 3.5-.1.3-.6-.4-.9-1.5-.8s-2 .5-2 .9m-123.2 2.2c-2.3 1.7-2.3 2.6.2 2.6 1.1 0 2-.2 2-.4s.3-1.1.6-2c.7-1.9-.5-2-2.8-.2m43.7-.4c-.4.7-1.9 1-3.4.7-3.3-.7-5.6.6-4.8 2.7.9 2.4 5 1.9 7.7-.9 1.3-1.4 2.1-2.7 1.8-3.1-.3-.3-.9 0-1.3.6m46.1 2.5c-2.7.8-5.4 1.9-6 2.6-.8.9-.7 1.1.4.7.8-.3 4.1-1.3 7.3-2.2 3.1-.9 5.7-1.9 5.7-2.1 0-.7-2-.5-7.4 1m-69.5 1.4c-1.1.7-1.1.9 0 1.4.9.3.6.6-.6.6-1.2.1-2.6-.4-3.2-1-.9-.9-2.3-.9-5.7 0-2.5.6-6.2 1.1-8.4 1.1-2.1 0-4.1.2-4.4.6-.8.7 2.3 8.5 4.8 11.9l2.1 2.9 2-4.5c1.1-2.4 2.3-5.7 2.7-7.3.4-1.5 1-2.6 1.3-2.2.4.3-.6 4.4-2.1 9-2.4 7.2-2.7 9-1.8 12.3.9 3.5 1.1 3.6 1.7 1.5q.75-2.4 1.5-1.2c1.6 2.7 19.5-8.6 18.4-11.5-.4-.9.3-1.5 2.3-1.7 2.7-.3 2.8-.5 2.5-5.3-.2-3.1-1-5.5-2-6.3-1.8-1.4-9-1.6-11.1-.3m104.7-.2c1.2.2 3.2.2 4.5 0 1.2-.2.2-.4-2.3-.4s-3.5.2-2.2.4m-139.1 5.4c-3.1 3.1-3.1 3.2-1.2 4.6 1.1.8 4.2 3 7 5.1 2.7 2 6.5 4.4 8.3 5.3 3.2 1.7 3.3 1.7 2.6-.4-.9-3.1-4-8-6.4-10.2-1.1-1-2-2.3-2-3 0-1.3-3.2-4.5-4.4-4.5-.4 0-2.2 1.4-3.9 3.1m8.9-.1c1 1.6 1.9 2.8 2.1 2.6.6-.6-2-5.6-2.9-5.6-.5 0-.1 1.3.8 3m40.2-.5c.5 3 1.3 3.2 2.9.6 1.3-2.1.8-3.1-1.7-3.1-1.3 0-1.6.6-1.2 2.5m26.8 3.1c-.4 1-.1 1.4.6 1.2 1.5-.5 2.3-2.8 1-2.8-.5 0-1.3.7-1.6 1.6m-7.3 1.8c-2 1.8-2.5 2.8-1.7 3.6 1.5 1.5 3.9.3 5.3-2.6.6-1.4 1.1-2.7 1.1-2.9 0-1.2-2.1-.3-4.7 1.9m-9.1-.3c-1.3.5-3.6 1.8-5 3-1.5 1.1-4.2 2.7-6.1 3.5s-3.1 1.7-2.8 2c.8.9 10.7-4 14.2-7 3.3-2.7 3.2-3-.3-1.5m-64.3 2.5c-.7.9-1.5 2.5-1.6 3.7-.3 2-.2 2 2.4-.4l2.7-2.4-1.7 2.5c-2.7 3.9-3.2 5.3-1.9 5.8.7.2 1 .7.7 1.2-.3.4.2 2.7 1 5s1.5 5.3 1.5 6.5c0 3.7 2.5 3.6 11.5-.3 7.8-3.3 8.6-3.9 8.3-6.2-.2-1.5-1.5-3.2-3.6-4.5-1.8-1.1-5.6-3.9-8.4-6.3-2.9-2.3-5.8-4.2-6.5-4.2s-1.3-.5-1.3-1c0-1.5-1.6-1.2-3.1.6m65.7 3.8c-1.6 1.3-5.2 3.4-8 4.6-10.9 4.7-27 12.6-28.2 13.8-1.9 1.9-1.7 3.2.4 2.6 1-.3.6.3-1 1.5-2.1 1.8-2.6 3-2.6 6.6 0 2.5.4 4.5.9 4.5 2.3 0 7.1-3.4 15.4-10.9 5-4.5 9.3-8.1 9.7-8.1s2-1.9 3.6-4.3c1.9-2.6 5-5.3 8.6-7.2 3.1-1.7 5.6-3.6 5.6-4.3 0-1.7-1.1-1.4-4.4 1.2m-31.6 27c0 .2-.9.6-2 .9s-1.8.1-1.4-.4c.5-.9 3.4-1.3 3.4-.5m-19.4-2.1c-7.3 3.9-10.8 6.9-9.5 8.1.3.3 3.6 0 7.4-.7 6.4-1.1 6.9-1.4 8.7-4.9 3.5-6.7 2.2-7.2-6.6-2.5m5.4 7.7c-1.3.8-1.2 1 .3 1 .9 0 1.7-.5 1.7-1 0-1.2-.1-1.2-2 0m-9 2.8c-1.9.2-4 .8-4.6 1.3-1.3 1.1-2.8 9.4-2 10.8.8 1.2 16.4-9 16.9-11 .5-1.7-1.3-1.9-10.3-1.1M66 275c0 .5.5 1 1 1 .6 0 1-.5 1-1 0-.6-.4-1-1-1-.5 0-1 .4-1 1m269.1 8.1c-3.5 2.8-3.8 4.5-.8 3.3 1.6-.6 5.2-5.3 4.5-5.9-.2-.2-1.8 1-3.7 2.6m-36.4 6.1c-3.5 1.7-4.1 1.8-6.2.4-2.2-1.4-2.7-1.4-5.4.1l-3 1.8 6.2 2.1c3.4 1.2 6.9 2.5 7.8 2.8 1.3.6 2-.3 3.3-4 .9-2.6 1.5-4.8 1.3-4.9-.1-.1-1.9.7-4 1.7M336 299c0 .6 1.2 1.5 2.6 2 3.6 1.4 3.9 1.3 1.9-1-1.9-2.1-4.5-2.7-4.5-1m-1 5.2c0 1.9.2 2 1 .8 1.3-1.9 1.3-3 0-3-.5 0-1 1-1 2.2m-278 0c0 .9-.3 2.5-.6 3.5-.6 1.7-.6 1.7 1.1.2 1.3-1.3 1.5-2.1.6-3.5-.9-1.7-1-1.7-1.1-.2m415.5.8c.3.5 1.1 1 1.6 1 .6 0 .7-.5.4-1-.3-.6-1.1-1-1.6-1-.6 0-.7.4-.4 1M35.8 383.7c.7.3 1.6.2 1.9-.1.4-.3-.2-.6-1.3-.5-1.1 0-1.4.3-.6.6"/></svg>