<svg xmlns="http://www.w3.org/2000/svg" width="682.667" height="512" version="1.0" viewBox="0 0 512 384"><path d="M0 192v192h45.7l.7-6.2c.3-3.5 1.3-9.4 2.1-13.3 1.8-8.5 2-23.6.4-23.2-.7.1-1.7-1.9-2.4-4.4-1.7-6.4-2.3-7.2-5.2-6.4-2.8.7-6.3-.2-6.3-1.5 0-1.8 4.6-7.7 8.2-10.6 2-1.6 4-3.6 4.3-4.4s2-2.5 3.8-3.7c3.3-2 3.4-2.3 2.9-7.6-.4-4.5 0-6.1 1.7-8.5 2.5-3.6 2.6-4.3.5-3.5-1.1.4-1.5.2-1.2-.7.2-.7 2.9-2.6 5.9-4.1 3.6-1.9 4.7-2.9 3.3-2.9-2.7 0-5.7-4.3-4.2-5.8.7-.7.4-1.2-1-1.6-1.1-.4-2.3-1.8-2.6-3.1s-1.5-2.7-2.6-3c-2.9-.9-2.4-2.5 1-3.2 2.5-.4 2.9-.9 2.4-2.6-.4-1.2-.2-1.7.4-1.3.6.3 2.4-.7 4-2.4 1.7-1.6 3.7-3 4.5-3 2.3 0 2.6-3.2.5-5.6-1.9-2.2-1.9-2.3.2-7.5 2.6-6.4 5.6-12.9 8.3-18.2 1-2.1 2-5.4 2.1-7.3.1-2.9.7-3.9 3.8-5.7 11.3-6.8 21.7-14.4 21.7-15.9.1-1-.8-2.2-1.8-2.8-1.8-.9-1.8-1.3-.6-6.1 1.3-4.8 1.3-11.3 0-21.2-.4-2.5.1-5 1.5-7.7 1.1-2.1 2-4.8 2-6 0-1.3 1.2-2.6 3.5-3.7 1.9-.9 3.5-2.2 3.5-2.8 0-2 3.5-4.5 6.2-4.5 2.5 0 7.5-3.2 9.1-5.7.4-.7 2.2-2 4-2.9 1.7-.9 5.1-3.9 7.5-6.5 5.1-5.6 8.9-7 18.3-6.7 5.9.3 6.9 0 13.4-3.8 3.9-2.3 8.4-4.4 10-4.7 5.9-1.1 8.5-2.6 8.5-4.8 0-1.8.4-2 2.5-1.5 2.8.7 3.5-1.1.8-2.1-3.9-1.4-4.1-2-2.7-10.1 2-11.1 2.5-12.3 9.7-19.7 4.2-4.2 6.8-7.8 7.3-9.8.9-4.4 2.7-7.8 6.2-11.5l3-3.2h13c9.7 0 15.3-.5 21.8-2.1 8-1.9 8.9-1.9 10-.5.6.9 1.7 1.6 2.5 1.6.7 0 4.4 1.2 8.1 2.6 6.5 2.4 10.8 6.1 10.8 9 0 2.7 5.1 7.4 8 7.4 1.6 0 3.2-.5 3.5-1 .3-.6 1.4-1 2.3-1 2.6 0 4.6 7.7 3.8 14.4-.5 4-.4 5.7.7 6.7 2.7 2.8 3.6 5.7 4.8 16.2l1.3 10.7 4.9-5.3 4.9-5.2-4.6 6.1c-2.5 3.3-4.6 6.3-4.6 6.7s.9.7 2 .7c1.2 0 2.4 1 3 2.2.7 1.9.9 1.4 1.1-2.7.1-4.5.2-4.7.8-1.6l.6 3.3 3.2-4c1.8-2.2 4.2-4.4 5.4-4.7 1.6-.5 1.9-1.2 1.5-2.8-1.6-5.5-1.9-8-.9-7.4.6.4 1.3 2 1.7 3.7.7 3.6 1.9 3.2 4.1-1.3.8-1.8 3.6-5.5 6.1-8.2l4.6-5-2.3 4c-2.8 4.8-7.4 11.4-11.3 16.1-3.3 4-2.9 4.1 5.6 1.4 3.4-1.1 6.8-2 7.3-1.9 2.1 0-5.3 2.6-12.2 4.3s-7.3 2-10.8 7.2c-3.1 4.8-3.6 6.3-3.7 12-.1 9.4 1.1 9.7 6.8 2 2.6-3.6 4.9-6.6 5.1-6.6 1.2 0-.2 3.1-2.8 6-5 5.8-6.3 9.5-1.9 5.5 1.2-1.1 1.7-1.2 1.8-.3 1 8 3.3 11.4 5.2 7.8.6-1.1 1.6-1.7 2.2-1.4.7.5.9.2.5-.9-.4-1-.2-1.6.6-1.4.7.1 1.1-.3 1-.9-.1-.7.7-2 1.7-2.9 1.1-1 2-1.5 2-1 0 .4.8.1 1.7-.6 1-.8-.1.8-2.5 3.5-2.3 2.7-4.2 5.5-4.2 6.2 0 .8-1.6 2-3.5 2.8-4.6 2-4.5 3 .3 2.2 2.7-.5 3.3-.4 2.2.3-.8.6-2.4 1.1-3.6 1.1-1.1 0-2.8.6-3.7 1.3-1.6 1.1-1.6 1.4-.2 3.2 1.5 2 1.6 2 3.2-.3.9-1.3 3.1-2.9 5-3.7 1.8-.8 3.3-2.1 3.3-2.9s.9-2.1 2-2.9 1.7-1.8 1.3-2.3-.2-.4.6.2c1 .9 1 1.7.1 3.4-1.3 2.5-.9 3.3 1.2 2.5 2.5-1 16.3-16.8 18.7-21.5 1.3-2.4 3-4.9 3.8-5.5 1.3-1 1.2-1.6-.7-5-1.2-2.2-1.5-3.1-.6-2.1.9 1.1 1.6 2.3 1.6 2.8 0 1.9 2.1.6 3.2-2 .7-1.5 2-3.7 3.1-4.9 1.8-2 1.8-2.8.8-8.4-.6-3.5-.9-6.5-.6-6.7.2-.2.7 1.3 1.1 3.4 1.1 6.6 2 7.3 3.8 3.1.8-2 1.7-3.7 1.9-3.7.9 0 .1 5.6-1.1 7.7-.7 1.2-.8 2.3-.2 2.5.5.2-1.1 2.7-3.5 5.6-4.6 5.6-5.6 7.8-3 6.8.8-.3 1.5-.1 1.5.4 0 .6-.6 1-1.4 1-1.5 0-6.9 4-6.3 4.7.3.2 4.1-1.4 8.5-3.7 4.4-2.2 8.6-4 9.2-4 1.3 0 .5-13.2-1.1-16.1-.6-1.2-.1-2.3 1.9-4l2.7-2.4-2.2 2.6c-1.3 1.4-1.9 2.9-1.5 3.5.5.5 1.4 3.5 2.1 6.6 1 4.5 1.7 5.8 3 5.8 1.6 0 9.1-7.1 10.2-9.6.2-.5 2-2.3 3.8-3.9l3.4-3-3.4 4.8c-1.8 2.7-3.7 5.1-4.1 5.3-1.8 1.1-.7 2.4 1.1 1.4 2.8-1.4 7.1-3 7.1-2.6 0 .2-2.8 1.7-6.3 3.4-3.5 1.6-7.8 4.2-9.7 5.8s-5.3 3.8-7.5 4.9c-3.4 1.6-3.7 1.9-1.8 2.3 1.2.2 3.5-.4 5.2-1.3 2.5-1.2 3-1.3 2.5-.1-.4 1.2.2 1.3 3.4.5 7.1-1.6 9.2-2.7 8.5-4.5-.4-1.1-.2-1.5.4-1.1s2.3-1.2 4-3.8c1.5-2.5 3.1-4.5 3.5-4.5s-.4 1.6-1.7 3.6c-1.4 2-2.5 4.1-2.5 4.5 0 .7 6.7-2 15.2-6.2 1-.5 2-.5 2.3 0s-1.1 1.5-3.1 2.1c-1.9.7-3.8 1.9-4.1 2.7-.5 1.2-.7 1.2-1.4.1-.7-1-.9-1-.9.3 0 .9-.6 1.6-1.2 1.6-.7 0-4.6 1.6-8.7 3.6-4.1 2.1-8.3 3.7-9.3 3.7s-2.1.7-2.4 1.5c-.7 1.8-3.1 2-3.6.4-.3-.9-2.4-.8-7.8.1-9.6 1.7-12.8 3.3-13.5 6.8-1.2 5.2-1.3 5.7-2 7.5-1.2 2.9 1.9 2 5.6-1.6 1.9-1.8 3.3-3 3.1-2.8-.1.2.5 1.2 1.3 2.1 1.4 1.6 1.3 1.8-1.6 2.4-3.3.6-18.1 10-17.2 10.9.3.3-1.2.9-3.3 1.2-5.6.9-6.4 1.3-6.4 2.7 0 .9 1.3 1.3 3.9 1.3 4.8-.1 4.4 1.1-.9 2.5-4.7 1.3-6.3 3.8-5.4 8.6l.6 3.5 2.7-1.7c2.1-1.4 1.9-1-1.1 2.4-5.2 5.8-5.1 8.6.2 3.8 2.2-2 4.6-3.6 5.3-3.6 1.2 0-2.3 3.2-8.1 7.2-2.9 2.1-5 5.4-4 6.4.3.2 2.3-1.2 4.5-3.1 2.3-1.9 4.8-3.5 5.5-3.5.8 0 3.7-1.1 6.3-2.5 2.7-1.3 6.8-2.7 9.2-3.1 3.7-.5 7.9-2.6 16.9-8.4 2.4-1.5 5.9-11.3 4.8-13.2q-.75-1.05.6-.3c.8.5 1.1.2.7-1.1-.3-1.1-.8-4-1.2-6.7-.5-3.9-1-4.7-2.8-4.8-1.5 0-1.7-.2-.7-.6.8-.3 1.8-1.1 2.2-1.7.8-1.2 1.1-.5 2.8 6.4 1 3.7 1.4 4.1 2.2 2.6.7-1.2.5-2.7-.6-5.1-.9-1.8-1.5-4.4-1.5-5.7.1-2 .2-2.1.6-.3.3 1.1 1 3.1 1.5 4.5.9 2.3 1 2.4 2 .6.8-1.4.7-2.1-.3-2.7s-1.1-.9-.1-.9c.6 0 1.3-1 1.3-2.3.1-1.6.2-1.8.6-.5.2 1 .8 1.8 1.2 1.8 1.2 0 0 5.4-1.3 6.2-.8.5-.7.8.2.8.7 0 1.5-.7 1.9-1.6.3-.8 1.2-1.3 1.9-1 1.9.7 4.6-3.7 5.5-8.8l.6-4.1.2 5.2c0 2.9.6 5.3 1.1 5.3 1.4 0 5-3.8 5-5.3 0-.8.3-.8.9.2.7 1.1 1.3 1.2 2.3.4.7-.6 2.7-1.3 4.3-1.7 2.4-.5 2-.1-1.8 1.9-3.9 2.1-4.7 3-4.7 5.4 0 3.4 2.6 4.8 4.9 2.7 2-1.8 10.1-5.5 12.1-5.6.8 0-1.4 1.4-5 3.2l-6.5 3.2 3.7.4c3.1.3 3.5.6 2.6 1.6-.8.9-2.2 1.1-3.9.6-2.8-.8-8.9 1.2-8.9 3 0 .5-.9 1-2.1 1-2 0-10.9 5.7-10.9 7 0 1.4 7.3 4 11.3 4.1 2.3.1 5.3.4 6.7.8 2.1.6 1.8.8-2.2 1.4-2.9.4-5.9.2-7.5-.5-1.6-.6-5.4-1.1-8.5-1.2-5.6-.1-5.8 0-7.8 3.7-1.6 2.7-4.3 5-10.1 8.4-4.4 2.5-7.8 4.7-7.7 4.9.9.8 10.5-1.9 15-4.3 7-3.7 7.2-3.8 6.3-2.3-.4.6-2.1 2-3.9 3.1-1.7 1-2.5 1.9-1.8 1.9.8 0 3.7-1.6 6.6-3.5 6.7-4.4 7.6-4.4 2.9-.2l-3.6 3.4 4.5 1.1c2.5.7 5.2 1.4 6 1.7 1 .4 3.4-1.4 6.6-4.7 3.5-3.6 5.2-4.7 5.2-3.6 0 1-.8 2.2-1.9 2.7-2.1 1.2-5.5 6-4.8 6.8 1.3 1.2 4.7-1 4.8-3v-2.2l1.1 2.2c.6 1.2 2.2 2.4 3.7 2.6l2.6.4-2.7.2c-2.1.1-2.8.6-2.8 2.1 0 1.1.7 2 1.5 2s1.5.5 1.5 1.1-.7.8-1.7.4c-1.3-.4-1.5-.3-.7.5 1.6 1.6 6.8-.6 6-2.5-.4-1.2 0-1.4 1.8-.9 1.5.3 3.5-.1 5.3-1.2 2.8-1.8 2.8-1.8 1.2.1-.9 1.1-2 2.9-2.3 4.1-.7 2.2 1.6 7.8 2.7 6.7.4-.3.7.1.7 1.1 0 1.5.2 1.5 3.3 0 5.2-2.7 6.2-5.9 2.8-9.3-1.1-1.1-1.7-2.2-1.4-2.5s.3-1.3-.1-2.2c-.5-1.4-.9-1.4-2.4-.3-1.5 1.3-1.6 1.2-.4-.3 1.1-1.4 1.2-3.1.3-8.5-.6-3.7-.9-6.9-.6-7.1.4-.4 2.5 6.6 2.5 8.6 0 .7.6 1.5 1.4 1.8s1.6 1.8 2 3.5c.3 1.6 1 2.9 1.6 2.9 1.5 0 1.2-4.9-.6-9.5s-4.6-16.6-4.1-17.2c.3-.2 1.2 2.5 2.2 5.9 1.7 6.3 2.8 7.8 5.4 7.8 1 0 1.2-1.8 1-8.4-.5-10.6 1.1-8.5 2.1 2.7.5 5.7.3 9-.7 12-1.3 3.6-1.3 4.3.1 5.2 1.3 1 1.3 1.2 0 2.1-.9.5-1.8 3.4-2.3 6.6l-.7 5.7 2.9-1.6c1.6-.8 3.2-2.4 3.4-3.4.3-1.2 1.1-1.8 1.9-1.5 1.3.5 11.3-4.8 16.3-8.6 1.3-1 2.8-1.8 3.4-1.8 1.2 0-5.2 4.7-11.6 8.4-6.4 3.8-7 5.2-4.8 11.1 1.7 4.4 1.9 4.6 2.6 2.6.5-1.7.9-2 1.5-1.1.6 1 1.1 1 2.1.1.8-.6 2.7-2.1 4.2-3.2 1.7-1.3 4.5-5.7 6.9-10.8 4.6-9.7 4.6-9.7 5.4-8.8.4.4.2 1.3-.4 2-.7.8-1.8 3.4-2.7 5.8l-1.5 4.4 2.3-2.9c1.2-1.6 4.2-4.8 6.5-7.2 2.4-2.4 4.1-4.8 3.7-5.4-.3-.5-.1-1 .5-1s1.5-1 2-2.3l.9-2.2v2.2c.1 3.2 1.7 3.7 4.2 1.2 1.2-1.2 1.9-1.5 1.7-.8-.2.8-3 3.1-6.2 5.2-5.5 3.7-7.3 6.2-2.6 3.7 1.1-.6 2.6-.9 3.3-.7 1.1.4-5.5 3.7-7.4 3.7-.5 0-2.5 2.4-4.3 5.3-1.9 3-4.5 6.1-5.8 7-2.2 1.7-2.2 1.7.8.3 1.7-.9 3.5-1.2 3.9-.8.5.4.4.1 0-.7-.6-1.1-.4-1.3.9-.8.9.4 1.4.3 1.1-.2s-.1-1.2.5-1.6c.5-.3 1-1.6 1-2.8 0-1.6.3-1.8.9-.8 1.1 1.8 5.1.5 5.1-1.7 0-1.4.2-1.4.9-.3.8 1.2 1.3 1.2 3.5-.2 1.4-1 2.9-2.9 3.2-4.4.6-2.4 7.2-9.8 8-9 .2.2-1 1.9-2.6 3.7-1.7 1.9-3 3.7-3 4.1s-.3 1.6-.7 2.6c-.6 1.5-.4 1.6.9.6.8-.7 1.9-.9 2.3-.5.5.4.5.2.1-.5-.3-.6-.1-1.5.5-1.9.7-.4.9-.3.5.4-.3.6-.2 1.4.4 1.7 1.2.8 4.4-1.1 10.3-6.2 2.3-2-.4.9-6 6.3s-11.9 11.1-14.2 12.6c-2.2 1.5-4 3.5-4 4.5-.1 1-.4 3.7-.7 6-.5 3.5-.3 4.3 1 4.3 2.8 0 4.8-4.5 4.2-9.2l-.6-4.3 1.5 3c.8 1.6 1.4 3.8 1.5 4.7 0 1.4 1.1 1.2 7.3-1.5 3.9-1.8 8.1-4 9.1-5 2.4-2.1 3.7-2.2 2.9-.2-.6 1.7-5.7 4.4-13.8 7.6-2.7 1-6.3 3-8 4.4l-3 2.5 2.8-.6c1.7-.4 2.7-.2 2.7.5 0 1-2.8 1.6-5.9 1.2-.7-.2-1 .2-.7.7.9 1.4-5.6 7-9.4 8-3.5.9-3.5.9 2.3 1.6 5.3.7 5.7.9 4 2.2-1 .7-3.3 1.4-5 1.4-3.8 0-3.8.1-1.6 4.3 1.3 2.6 1.3 3 .1 2-.8-.7-2.3-3.1-3.3-5.3-1.9-4.1-3.6-4.8-8-3.1-2.7 1.1-5.5.2-5.6-1.8 0-1.2-.2-1.1-.8.4-.9 2.1-8.6 6.5-11.6 6.5-3.5 0-13.2 3.3-17.5 6-2.5 1.6-6.7 3.6-9.5 4.5-10.1 3.4-21.4 11.4-33.7 23.8-11.1 11.3-12.2 12-22.2 16.6-12.1 5.5-16.6 8.3-14.8 8.9 1 .3.9.7-.4 1.6-1.5 1.1-1 1.4 3.2 2 4.6.6 5 .4 8.8-3.1l3.9-3.8-2.8 3.7c-1.5 2.1-3.2 3.8-3.9 3.8-1.8.1 2.6 3 4.5 3 .9 0 2.2.7 2.9 1.5 1.7 2 .1 2-4.8-.1-4.7-2-14.1-2.2-15.3-.3-1.4 2.3 1 4 5 3.5 2-.3 2.7-.3 1.6 0-3.2.9-4.2 2.4-2.5 3.7.8.7 2.2 2.1 3 3.1 1.4 1.8 1.3 1.8-.8 1.2-2.4-.8-2.9.3-1 2.2 1.8 1.8-.3 1.4-2.4-.4-1.4-1.4-2-1.4-3.3-.4-.8.7-1.5 2-1.5 2.9-.1 3.3-1.8-1.3-2.3-6.4-.3-2.8-.6-5.1-.6-5.1-.1-.1-1.2.1-2.5.3-1.9.4-2.9 1.8-4.5 6.3-2.7 7.2-2.7 14.9-.1 28.1 2.3 11.4 2.9 33.1 1.1 38.9-.6 1.9-1.1 4.7-1.1 6.2v2.8h172.7l-.3-2.3c-.2-1.2-1.1-6.9-1.9-12.6s-2-11-2.7-11.8c-.6-.8-2.6-2-4.4-2.8-7.1-2.9-8.1-9.8-3-20.9 2.3-5 4.6-14.4 5.1-20.9.1-1.7-.3-2.7-1.2-2.7-.7 0-1.3-.3-1.3-.8 0-.4-.9-2.2-2.1-4.1-1.6-2.7-2.3-3.1-3-2-.6 1-.9.7-.9-1.3 0-2.1.5-2.7 2.6-3 2.2-.2 2.9-1.1 4.2-5.3.9-2.8 1.9-5.2 2.2-5.5 3-2.4.6-5.7-8.2-11.3-3.9-2.4-3.8-6.6.3-10.6 1.7-1.7 3.6-3.1 4.4-3.1.7 0 1.8-.7 2.5-1.6 1-1.1 2.3-1.4 5.4-.8 5.1.8 9 4.6 14.3 13.8 1 1.7 1.3-25.9 1.3-136.2V0H0zM366.5 17.1c-1 1.5-2.5 1-1.9-.6.4-.8 1-1.2 1.5-.9s.7 1 .4 1.5m99.2-1.5c-.3.3-1.2.4-1.9.1-.8-.3-.5-.6.6-.6 1.1-.1 1.7.2 1.3.5m-313.9 3.2c.6 1.8-1.5 1.4-2.2-.4-.4-1-.1-1.4.6-1.2.6.2 1.4 1 1.6 1.6M382.5 24c0 2.3-4.9 2-5.3-.3-.3-1.5.2-1.8 2.5-1.5 1.7.2 2.8.9 2.8 1.8M268 26c0 .5-.2 1-.4 1-.3 0-.8-.5-1.1-1-.3-.6-.1-1 .4-1 .6 0 1.1.4 1.1 1m-12 10.7c-1.1 1.7-1.1 1.7-.6 0 .3-1 .7-3.1.7-4.5l.2-2.7.4 2.7c.2 1.5-.1 3.5-.7 4.5m-127 1.4c-.6 1-1.7 1.9-2.5 1.9-2.1 0-1.9-3.8.3-4.3 2.6-.6 3.3.2 2.2 2.4m156.5 3c1.2 1.9-.5 2.3-2.2.6-1.6-1.6-1.6-1.7-.1-1.7.9 0 2 .5 2.3 1.1M132 59.5c0 .8-.7 1.5-1.6 1.5-1.4 0-1.4-.3-.4-1.5.7-.8 1.4-1.5 1.6-1.5s.4.7.4 1.5m-19.3 3.7c0 1.3.3 3.1.8 4.2.7 1.6.5 1.7-1.6 1.1-2.4-.7-5.9-4-5.9-5.5 0-.8 2.1-1.4 5.6-1.9.7 0 1.2.9 1.1 2.1M341.5 69c-.3.5-1.1 1-1.6 1-.6 0-.7-.5-.4-1 .3-.6 1.1-1 1.6-1 .6 0 .7.4.4 1M432 82.9c0 3.2-1.8 5.1-3 3.2-1.1-1.8 0-6.1 1.6-6.1.9 0 1.4 1.1 1.4 2.9m-44.2.3c1.6 1.6 1.6 6.9 0 6.5-2-.3-3.7-3-3.8-5.5 0-2.4 1.9-2.9 3.8-1M375 97.7c-1 1.6-1.1 1.5-.6-.7.3-1.4.6-3.2.7-4s.4-.5.6.7-.1 3-.7 4m10.7-4.2c0 .8-.4 1.2-.9.9s-.6-1-.3-1.5c.9-1.3 1.2-1.1 1.2.6M366 95.1c0 .6-.4.7-1 .4-.5-.3-1-1.1-1-1.6 0-.6.5-.7 1-.4.6.3 1 1.1 1 1.6m17 1.9c0 .5-.5 1-1.1 1-.5 0-.7-.5-.4-1 .3-.6.8-1 1.1-1 .2 0 .4.4.4 1m-241.6 8.5c.3.8.2 1.6-.2 1.9-.8.5-4.9.9-7.4.7-3-.2-2-3 1.5-3.9 3.7-1 5.3-.6 6.1 1.3m276.3 4.9c-.3.8-.1 1.7.6 2 .9.3.9.5 0 .5-1.5.1-2.6-1.6-1.8-2.9.9-1.5 1.8-1.2 1.2.4M376 120c-.8.5-1.9 1-2.5 1-.5 0-.3-.5.5-1s2-1 2.5-1c.6 0 .3.5-.5 1m20.4 6.5c-.4.8-.7 1.5-.9 1.5s-.5-.7-.9-1.5c-.3-.9 0-1.5.9-1.5s1.2.6.9 1.5m-70.4 5.9c0 .2-.8 1-1.7 1.7-1.6 1.3-1.7 1.2-.4-.4s2.1-2.1 2.1-1.3m45 6.6c-.8.5-1.9 1-2.5 1-.5 0-.3-.5.5-1s2-1 2.5-1c.6 0 .3.5-.5 1m6.9 11.5c0 .5-.4.3-.9-.5s-.9-2.2-.9-3c0-1.6 1.7 1.6 1.8 3.5M420 147c0 .5-1 1-2.2.9-2.2 0-2.2-.1-.3-.9 1.1-.5 2.1-.9 2.3-.9.1-.1.2.3.2.9m3.7 1.6c-.3.3-1.2.4-1.9.1-.8-.3-.5-.6.6-.6 1.1-.1 1.7.2 1.3.5M370 150c0 .5-.9 1-2 1s-2-.5-2-1c0-.6.9-1 2-1s2 .4 2 1m37.1 1.8c-.7.2-1.8-.1-2.3-.6-.8-.8-.4-.9 1.3-.5 1.3.4 1.8.8 1 1.1m6.3 1.1c.3.4-.6.6-1.9.3-1.4-.2-2.5-.6-2.5-.8 0-.8 3.9-.4 4.4.5m6.7 2.9c-.7.2-1.8-.1-2.3-.6-.8-.8-.4-.9 1.3-.5 1.3.4 1.8.8 1 1.1m4.6.8c-.3.3-1.2.4-1.9.1-.8-.3-.5-.6.6-.6 1.1-.1 1.7.2 1.3.5m57 9.6c-.3.8-.6.5-.6-.6-.1-1.1.2-1.7.5-1.3.3.3.4 1.2.1 1.9m-106.7-.8c0 .3-.4.8-1 1.1-.5.3-1 .1-1-.4 0-.6.5-1.1 1-1.1.6 0 1 .2 1 .4M49 177.9c0 1.2-2.9 3.5-3.6 2.8-1.1-1 .5-3.7 2.1-3.7.8 0 1.5.4 1.5.9m19.2 8.3c-.7.7-1.2.8-1.2.2 0-1.4 1.2-2.6 1.9-1.9.2.3-.1 1.1-.7 1.7m410.5 39.4c-.3.3-1.2.4-1.9.1-.8-.3-.5-.6.6-.6 1.1-.1 1.7.2 1.3.5m-32.4 36c1.8.9 5.4 3.4 8.1 5.5 2.7 2.2 5.6 3.9 6.4 3.9 1.2 0 1.1.5-.6 2-1.2 1.2-2.2 2.5-2.2 3 0 .6-1.1 1-2.5 1s-5.4 1.8-9 4.1c-7.9 4.9-11.8 5.1-12.3.4-.2-1.6-1.2-4.1-2.3-5.6-4.6-6.4-.1-15.9 7.6-15.9 2 0 5 .7 6.8 1.6m-403.6 7.6c-.3.8-.6.5-.6-.6-.1-1.1.2-1.7.5-1.3.3.3.4 1.2.1 1.9M24.5 277c1.2 1.9-1.2 1-3.1-1.1-1.9-2.2-1.9-2.2.3-1 1.2.6 2.5 1.6 2.8 2.1m440.5 2.3c0 2.9-2.6 6.7-4.6 6.7-1.7 0-1.2-2.9 1.2-6.8 1.9-2.8 3.4-2.8 3.4.1M361.5 299c.3.5.1 1-.4 1-.6 0-1.1-.5-1.1-1 0-.6.2-1 .4-1 .3 0 .8.4 1.1 1M29.4 316.6c.3.8.2 1.2-.4.9s-1-1-1-1.6c0-1.4.7-1.1 1.4.7"/><path d="M301 106.9c0 .5.5 1.3 1 1.6.6.3 1 .2 1-.4 0-.5-.4-1.3-1-1.6-.5-.3-1-.2-1 .4m1.2 5.1c0 1.4.2 1.9.5 1.2.2-.6.2-1.8 0-2.5-.3-.6-.5-.1-.5 1.3m0 5.7c.9 1 1.8 2.5 2.1 3.3q.6 1.65.6-.6c.1-2.1-1.6-4.4-3.3-4.4-.5 0-.2.8.6 1.7m-.5 11.2c-.3 1.2-.1 2.4.4 2.7 1.3.8 2.4-2.5 1.2-3.7-.7-.7-1.2-.3-1.6 1m68.1-1.2c.6.2 1.8.2 2.5 0 .6-.3.1-.5-1.3-.5s-1.9.2-1.2.5m-70.7 9.5c-1.3 3.6-.8 4.6 1.3 2.9 2-1.7 2.6-4.9 1.1-5.5-.8-.3-1.8.7-2.4 2.6m52.9 3.5c-9.8 10.4-11.7 13.3-8.9 13.3.5 0 .7-.5.3-1.2-.5-.7-.3-.8.5-.3 1.5.8 5.6-1 8.7-4 2.3-2.2 5.9-10.6 5.2-12.5-.2-.6-2.8 1.5-5.8 4.7m-43.9-1.8c-1.4 2.5-1.4 6.4-.1 5.6.6-.3 1-1.8 1.1-3.3 0-2.4.1-2.5.9-.7.8 1.9.9 1.9.9-.2.1-3-1.6-3.8-2.8-1.4m9.4 1.1c-1 1.1-1.3 2-.8 2 1.3 0 3.8-2.9 3.1-3.5-.3-.3-1.3.4-2.3 1.5m82.1.3c-1.4 1-1.6 1.6-.7 2.2 1.5.9 3.5-.8 3-2.4-.3-.8-1-.7-2.3.2m-81.1 2.7c-1 1.1-1.5 2-1.2 2 .4 0 .2 1.1-.3 2.5s-.6 2.5-.1 2.5 1.1-.7 1.5-1.5c.3-.8 1.2-1.5 2.1-1.5 1.2 0 1.4-.6.9-2.8-.9-3.6-.8-3.5-2.9-1.2m75.1 3.2c-2 3.3-2.9 6.8-1.7 6.8s8.1-6.9 8.1-8.2c0-1.8-5-.7-6.4 1.4m7.9-.2c-.3.5-.1 1 .4 1 .6 0 1.1-.5 1.1-1 0-.6-.2-1-.4-1-.3 0-.8.4-1.1 1m-16.1 5.8c-1.6 1.1-3.5 5-2.6 5.6 1.4.8 4.4-2.2 4-4.3-.2-1.2-.7-1.8-1.4-1.3m-72.4 7.1c-1.9 2-5.6 5.5-8.2 7.8-2.8 2.4-4.8 5-4.8 6.1 0 1.2-.4 2.4-1 2.7-1.4.8-1.3 1.8.4 4.1 1.4 1.8 1.5 1.8 2.6-1.3.7-1.8 1.7-3 2.4-2.7.6.2 4.1-2.4 7.7-5.8 9.3-8.9 9.5-9.3 7.5-12.3-.9-1.4-2-2.4-2.4-2.4-.4.1-2.3 1.8-4.2 3.8m-8.3 14.3c-.3.8-.6.5-.6-.6-.1-1.1.2-1.7.5-1.3.3.3.4 1.2.1 1.9m27.8-15.7c-2.2.8-4.1 1.5-4.2 1.5-.4 0-3.4 6-3 6 .2 0 2.4-.7 5-1.6 3.6-1.2 4.7-2.1 4.8-3.7 0-1.2.3-1.6.6-.9.6 1.5 2.3.6 2.3-1.4 0-1.7-.4-1.7-5.5.1m-33.5 5.6c-1.1 1.9-1 2 .9.9 2.2-1.1 2.9-3 1.1-3-.5 0-1.4.9-2 2.1m34 .9c-1.2.7-1.2 1.2-.3 2.1 1 1 1.4.9 1.9-.5.8-2.2.2-2.7-1.6-1.6m-7.4 2.5c-1.6.9-3.5 2.3-4.2 3.3-.7.9-3.1 3.7-5.3 6-4.1 4.3-5.7 7.9-2.3 5 .9-.8 3.1-2.2 4.7-3.2l3-1.7-3 2.5c-1.6 1.4-4.4 3.7-6.2 5.1-2.8 2.3-6.7 9.5-4.2 8 .6-.4.7.8.3 3.4-.4 2.2-.4 4.8 0 5.7.6 1.6.8 1.5 2.9-.3 1.2-1.1 3.7-2.6 5.5-3.3s3.8-2.1 4.5-3c.7-1 1.7-1.8 2.2-1.9 3.2-.4 4.2-1.7 5.8-7.4 1.4-4.8 1.6-6.9.8-9-1.6-4.2-1.2-5.7.5-1.9 1.7 3.9 3.4 3.4 3.4-1.1 0-3.5-2.4-7.7-4.3-7.7-.7 0-2.5.7-4.1 1.5m30.9 15.1c-1.6.8-5 2.7-7.5 4.4-2.5 1.6-7.6 4.5-11.3 6.5-8.5 4.5-18.8 12.7-20.4 16.3-2.4 5.3-1.3 11.3 2.1 11.8.9.1 1.4-.1 1.2-.5-.6-.9 4-5.3 7.3-7.1l2.5-1.3-2.3 2.9c-3.7 4.9-7.2 10.6-6.7 11.1.3.3 2.1-.7 4-2.2s6.7-3.8 10.6-5.1c3.8-1.4 8.6-3.4 10.6-4.6 3.2-1.9 3.4-2.3 2-3.3-1.3-1-.9-1.2 2-1 2 .1 4.9-.3 6.5-.9 2.6-.9 2.9-1.4 2.4-4.1-.6-2.8-.5-2.9 1-1.1.8 1.1 1.5 2.4 1.5 2.9s1.7.7 3.8.6c2.1-.2 4.2 0 4.8.4 1.9 1.1 13.8-4.3 17.1-7.8 1.7-1.8 3.3-2.9 3.5-2.3s3.2-.5 6.6-2.4l6.3-3.5-2.4-1.6c-1.3-.9-4.4-3.3-6.9-5.4l-4.4-3.8-10.4.3c-5.8.1-11.6.4-13 .5s-3.6-.1-5-.5c-1.5-.4-3.7-.1-5.5.8m37.6.8c3.6 3.4 9.4 7.6 10.5 7.6.9 0 1.3-1.1 1.2-3.5-.1-1.9-.5-3.5-1-3.5s-.6.4-.3 1c.8 1.4.2 1.3-3.1-.5-2.5-1.3-8.5-2.2-7.3-1.1m90.9 5.7c-3.8 3.5-4 3.7-.9 1.5 2-1.4 3.9-2.3 4.3-2.1.3.3.4.2.1-.2-.3-.3.3-1.2 1.3-1.9.9-.7 1.3-1.3.7-1.4-.5 0-3 1.9-5.5 4.1m-70.9 2.8c-.6 1-.7 2.1-.4 2.5.3.3.1.6-.6.6s-1 .4-.7.9c.4.5.2 2.1-.4 3.5-1.4 3.8.2 3.9 5.1.4 3.5-2.5 4-3.3 2.8-4.2-.8-.6-1.4-1.7-1.5-2.4-.2-2.8-.5-3.2-1.9-3.2-.8 0-1.9.8-2.4 1.9m-4.5.6c-1.1.8-1.5 1.5-1 1.5.6 0 1.9-.7 3-1.5 1-.8 1.5-1.4.9-1.4-.5 0-1.9.6-2.9 1.4m-4.6 3c-1 1.2-1 1.5.3 1.5 1.9 0 3.1-1.6 1.8-2.4-.5-.3-1.4.1-2.1.9m33.8 1.2c-3 2.3-3.9 3.9-5.2 9.3-1.5 6-1.3 11 .3 11 .4 0 2.6-1.6 4.9-3.6l4.2-3.5-2.5-4.9c-3.3-6.5-3.2-8.7.2-3 3.3 5.7 3.2 5.5 4.3 4.4.8-.8-1-10.8-2.3-12-.2-.2-2 .8-3.9 2.3m-34.4 4.7c-5.4 5.4-5.7 7.3-.7 4.6 2.1-1.1 4.3-2 4.9-2 1.1 0 2.4-3 2.4-5.8 0-2.3-2.2-1.2-6.6 3.2m21.8-3.1c-2 1.2-2.1 1.5-.8 3.2.8 1.1 1.6 1.8 1.9 1.5.5-.6 1.9-6 1.5-6-.2.1-1.3.6-2.6 1.3m-6.7.7c-.3.5-.1 1 .4 1 .6 0 1.1-.5 1.1-1 0-.6-.2-1-.4-1-.3 0-.8.4-1.1 1m52.8 1.1c-4.1 2.6-4.1 3.3-.4 2.7 4.3-.6 2.7 1-2.2 2.3-5.3 1.4-7.9 3.6-7.1 6.1.3 1 0 1.8-.6 1.8s-.8-.5-.5-1c.9-1.5-.4-1.2-6 1.4l-5 2.4 7-.3c3.9-.1 8-.7 9.2-1.3 1.2-.7 3.3-1.2 4.7-1.2 2.6 0 3.4-1.8 5.1-11.3.7-4.3.2-4.4-4.2-1.6m-77.6 1c-9.4 3.7-12 6.9-5.7 6.9 2.4 0 2.8-.3 2.3-1.8s-.4-1.6.8-.1c2.7 3.1 4.8 3 6.4-.1.8-1.6 2.5-3.9 3.7-5l2.2-2-2.5.1c-1.3.1-4.5 1-7.2 2m21.9 1.4c-7.4 2.6-7.2 3.5 1.4 5.2 4 .8 3.6.9-4 .9-9.7-.1-20 2.5-20 5 0 1.1.4 1.2 1.9.4 3.4-1.7 3.4-1.1.1 3-2.2 2.8-2.9 4.6-2.5 6 .5 1.7.2 2-2 2-1.9 0-2.6.4-2.2 1.4.3.8-.4 1.8-1.8 2.4-2.3 1.1-6.1 6.9-5.2 7.8.2.3 2-.4 3.9-1.6 4-2.3 20.3-8 23-8 2 0 2.3-.6 3.3-6.2.3-2 1.5-4.7 2.6-6l2-2.3-.7 2.5c-.5 1.4-.8 4.3-.8 6.5 0 3.6.3 4 2.4 3.7 4-.4 7.3-3.1 6.6-5.3-.3-1-.9-2.9-1.2-4.2-.6-2.2-.5-2.2 1.4.2l2 2.5-.5-2.9c-.4-1.9-.2-2.6.5-2.1 2.2 1.3-.1-6.9-2.6-9.7-3-3.1-2.5-3-7.6-1.2"/><path d="M407.8 205.7c.7.3 1.6.2 1.9-.1.4-.3-.2-.6-1.3-.5-1.1 0-1.4.3-.6.6m-94.2 3.8c-.3.8-.1 1.5.4 1.5.6 0 1-.7 1-1.5s-.2-1.5-.4-1.5-.6.7-1 1.5m68 .4c-.4.6-2.7 1.6-5.2 2.2-5.2 1.3-7 3.2-2.8 2.9 4.8-.3 6.1 0 3.7 1-2.5 1-3 2.5-1.2 3.6.9.5 3.1-.3 10.2-3.8 1.1-.5 2.1-.7 2.4-.4s-2.4 1.9-6.1 3.6c-6.4 3-8.6 4.8-4.6 3.7 1.1-.3 2-.1 2 .4s1 1.4 2.3 1.8c1.8.7 2.8.3 5.4-2.2 1.8-1.6 3-3.4 2.7-3.9-.3-.4 0-.8.6-.8 1.5 0 .5-4.9-1.3-6.7-1.7-1.8-7.3-2.7-8.1-1.4m-27.7 4.4c-2.5 1.7-3.5 3.1-3.7 5.6-.3 2.5 0 3.2 1 2.9.7-.3 4-1.3 7.3-2.3 3.3-.9 6.6-2.2 7.3-2.8 1.5-1.2.9-1.7-5.2-4.2-3.1-1.3-3.6-1.3-6.7.8m13.5-.8c-1.7 1.3-1.7 1.4-.2 1.5.9 0 2-.5 2.3-1.1 1.1-1.7 0-2-2.1-.4m106.7 1.7c-1.4 2.3-1.4 2.3.8.4 2.2-2 2.5-2.6 1.3-2.6-.4 0-1.3 1-2.1 2.2"/><path d="M368.4 217.7c-1.5 1.6-1.5 1.7.2 2.4 3.8 1.5 5.4 1 5.4-1.6 0-3-2.9-3.4-5.6-.8m87.4 0c-2.9.7-2.1 2.2 1.6 2.8 2.1.4 4.3.2 5.7-.6 1.3-.7 2.8-1.2 3.2-1.1q.75.15.3-.6c-.5-.9-8.1-1.3-10.8-.5m-110.5 1c-1.8.7-1.6 3.3.2 3.3.8 0 1.5-.2 1.5-.4s.3-1.1.6-2c.6-1.6 0-1.9-2.3-.9m97.2 2.7c-5.4 1.1-12.8 4.6-9.7 4.6s14.3-3.4 15.3-4.6c.6-.8 1-1.4.8-1.3s-3.1.6-6.4 1.3m-75.5 1.4c-2.4.2-4.8.8-5.2 1.5-.5.8-1 .7-2.1-.1-1.1-.9-2.2-1-4.1-.2-1.5.5-3.9 1-5.4 1-4.7 0-5.3 1-3.6 5.8 1.6 4.9 4.2 9.2 5.5 9.2.9 0 4.5-6.7 5.9-11 .7-2.1.8-2.2.9-.5.1 1.1-.5 3.1-1.2 4.5-2.8 5.4-4.8 12.1-4.5 14.6.4 3.5 2.8 4.5 2.8 1.2 0-1.8.2-2 1-.8s1.4 1.2 4.6-.3c4.3-2.1 15.6-10 17.4-12.2 1-1.2 1-2.1.2-3.8-.6-1.2-1.2-3.3-1.4-4.5-.4-3-4.8-4.8-10.8-4.4m86.8-.1c.7.3 1.6.2 1.9-.1.4-.3-.2-.6-1.3-.5-1.1 0-1.4.3-.6.6m15 2c1.2.2 3 .2 4 0 .9-.3-.1-.5-2.3-.4-2.2 0-3 .2-1.7.4m-135.3 1.2c-1.2.5-2.7 1.6-3.4 2.5-1.5 1.8-1.9 1.4 11.2 11.4 3.8 2.9 7.1 5.1 7.3 4.9.9-.8-.9-6.7-2.5-8.4-.9-1-3-3.8-4.7-6.3-3.1-4.7-4.6-5.4-7.9-4.1m6.5-.2c.1.5 1.2 2.1 2.5 3.8l2.5 3-1-3.5c-.6-1.9-1-3.6-1-3.7 0-.2-.7-.3-1.5-.3s-1.5.3-1.5.7m40 2.1c0 2.8 1.1 3.4 2.6 1.4 1.9-2.4 1.7-3.2-.6-3.2-1.3 0-2 .7-2 1.8m26.1 2.3c-1.3.5-2.2 1.2-1.9 1.4.6.6 5.8-1.2 5.8-2 0-.7-1.1-.5-3.9.6m5.9.9c0 .5.5 1 1 1 .6 0 1-.5 1-1 0-.6-.4-1-1-1-.5 0-1 .4-1 1m-85.3 2.8c-2.2 2.4-2.1 6.5.2 13.8 1.1 3.2 2.2 7 2.5 8.4 1.2 5.2 1.7 5.2 11.2 1.1 7.6-3.2 8.9-4.2 9.2-6.4.2-1.8-.4-3-2.3-4.4-1.5-1-4.8-3.6-7.4-5.8-6.9-5.8-10.4-8.5-11.2-8.5-.3 0-1.3.8-2.2 1.8m62.8-.4c-1.7.8-3.7 2-4.5 2.7-.8.8-3.3 2.2-5.5 3.3-2.2 1-3.5 2-2.9 2.3 2.2.8 17.6-7.8 16.3-9.1-.2-.3-1.8.1-3.4.8m6.6 3c-5.5 4.6-10 7.3-15.2 9.1-2.4.9-8.8 3.7-14.2 6.3-7.7 3.7-9.9 5.2-10.4 7.2-.3 1.4-1 3-1.5 3.7s-1.2 3-1.4 5.3c-.6 5.2 1.3 6.1 6.4 2.8 4.8-3.2 25.7-21.3 27.4-23.7.8-1.1 4.1-3.3 7.5-5 5.8-3 7.3-4.5 7.3-7.7 0-2.2-1.5-1.7-5.9 2m7.2-1.9c-.3.9-.3 1.8 0 2.2 1 1 3.7-.6 3.7-2.2 0-2-2.9-2-3.7 0m-60.8 28.6c-6.7 3.3-12.3 7.4-11.4 8.4.4.3 3 .3 5.9-.1 4.1-.5 5.8-1.4 7.9-3.7 1.4-1.6 3.2-3.6 3.9-4.3 1.3-1.4 1.6-3.4.5-3.3-.5 0-3.5 1.4-6.8 3m5.2 3.4c-1.7 2.4-1.7 2.5.3 2.5 1.5 0 2-.6 2-2.5 0-3-.1-3-2.3 0m-1.5 4.2c-1.5.6-.6 2.3 1.4 2.3.8 0 1.4-.7 1.4-1.5 0-1.5-.6-1.7-2.8-.8M332 276c-1.4 2.5-1.3 4.7.3 5.3q1.5.6 0 .6c-.8.1-1.3 1.5-1.3 3.7v3.6l3.4-2.9c1.8-1.5 3.1-3.2 2.8-3.7s0-.6.6-.2c1.3.8 11.2-5.3 11.2-6.9 0-.9-2.4-1.3-8-1.3-6.8 0-8.2.3-9 1.8m177.1 5c-1.3 1.8-1.9 3-1.4 2.7.6-.4 1.6.6 2.4 2.1l1.3 2.7.4-2.8c.2-1.5.2-3.9 0-5.3l-.3-2.6zm-432.2 6.6c-.4 3.2.6 7.3 2.3 9.6 1 1.5 1.7 3.2 1.3 3.7-.3.6.4 2.5 1.5 4.3 2.3 3.8 2.5 6.3.6 9.7-1.1 1.9-1.1 2.9-.2 4.4s.7 2.2-1.6 4.1c-1.6 1.2-2.8 2.8-2.8 3.6 0 .7-.7 2.1-1.5 3-2 2.2-4.9 21.2-4 26.5 1.2 7.9 3.8 17.1 6.3 22.2l2.5 5.3h208.5l1.1-7.5c.6-4.1 1.4-12.1 1.7-17.8.6-9.3 1-10.8 4.5-17.3 3.4-6.2 4-8.4 5-17.5 1.7-16.4 1.9-15.1-2.6-16.5-2.2-.6-6-2.1-8.5-3.1-7.8-3.4-18.5.4-24.8 8.7-1.9 2.5-4.4 4.9-5.6 5.3-1.8.7-8.2.5-18.9-.8-3.6-.4-12.8 1.9-18.6 4.7l-4.4 2.1-11.4-3.8c-9.9-3.3-12.3-3.7-17.6-3.2-3.4.3-8.5.1-11.4-.4-5-.9-5.3-.9-10.1 2.6-5 3.5-10.4 4.6-11.8 2.4-.6-1.1-8.4-.7-14 .7-1.6.4-2.9-.2-4.5-2-1.2-1.4-2.8-2.6-3.5-2.6-.6 0-1.7-.7-2.5-1.6-1.7-2.1-6.9-4.7-9.9-5-8.3-.7-27-7.1-27-9.2 0-.5-1.9-2.1-4.1-3.8-2.3-1.6-6.4-4.9-9-7.3-2.7-2.4-4.9-4-5-3.5M250.5 347c-.3.5-1 1-1.6 1-.5 0-.9-.5-.9-1 0-.6.7-1 1.6-1 .8 0 1.2.4.9 1m47.3-51.3c-4 .6-3.5 1.6 2.2 4l5.1 2.2 1-2.6c.5-1.4.8-2.7.6-2.9-.7-.7-6.3-1.2-8.9-.7m31.4 2.4c.2.7 1 1.5 1.7 1.7.8.3 1.2-.1.9-.9-.2-.7-1-1.5-1.7-1.7-.8-.3-1.2.1-.9.9m7.8 4.7c0 1.3 2.3 3.2 3.9 3.2 1.1 0 1-.4-.4-2-1.9-2.1-3.5-2.6-3.5-1.2m-264.5 5.3c-.4 1.1-.4 2.3-.2 2.6.9.8 2.7-.7 2.7-2.2 0-2.3-1.8-2.7-2.5-.4m263.1-.5c-.4.9-.4 1.9-.1 2.2.2.3.7-.3 1.1-1.2s.4-1.9.1-2.2c-.2-.3-.7.3-1.1 1.2M48 332.9c0 .6.5 1.3 1 1.6.6.3 1-.1 1-.9 0-.9-.4-1.6-1-1.6-.5 0-1 .4-1 .9m461.1 49.7c0 1.1.3 1.4.6.6.3-.7.2-1.6-.1-1.9-.3-.4-.6.2-.5 1.3"/></svg>