<svg xmlns="http://www.w3.org/2000/svg" width="682.667" height="512" version="1.0" viewBox="0 0 512 384"><path d="M0 192v192h48.9l.6-5.8c.4-3.1 1.1-7.3 1.6-9.2 1-4 1.2-20.2.3-24.8-.4-1.8-1.5-3.4-2.9-4-1.3-.6-2.5-2.1-2.7-3.4-.2-1.5-1-2.3-2.3-2.3-5.3-.1-8-3.3-4.6-5.4.6-.4 1.3-1.8 1.4-2.9.1-1.2.7-2.2 1.3-2.2.7 0 3.9-2.9 7-6.5 3.2-3.6 6-6.3 6.2-6 .3.3 1.1 0 1.8-.6 1-.8 1-1.7-.2-4.4-1.4-3.5-.6-8.2 2.1-11.5 2.3-2.9 2.7-4 1.1-3.4-1.1.4-1.6 0-1.6-1 0-1.1 2-2.6 5.5-4.2 3-1.4 5.5-2.6 5.5-2.8 0-.1-1-.2-2.1-.3-2-.2-5.4-3.7-5.4-5.8-.1-1.8-5.5-9.5-6.6-9.5-.8 0-.7-.5.1-1.5.7-.8 1.9-1.5 2.7-1.5 1.1 0 1.3-.7.8-2.7-.5-2.3-.4-2.5 1-1.3.8.7 1.7 1.1 1.9.9 5.7-7.4 5.7-7.5 3.6-9.4-2.8-2.6-3-1.6 3.4-15.7 1.4-3.1 2.6-6.2 2.6-6.8s1.1-2.8 2.5-4.8 2.5-5.1 2.5-6.9c0-2.7.6-3.5 3.3-4.9 1.7-.9 5-3.1 7.2-4.8 2.2-1.8 6.4-4.7 9.3-6.5 5.4-3.4 6.6-6.2 3.5-7.9-1.5-.9-1.5-1.6-.5-6.3 1.2-5.4 1-17.9-.3-23.1-.5-2-.1-3.4 1.4-5.4 1.1-1.5 2.5-4.3 3.1-6.4.7-2.8 1.8-4.1 4-5 1.7-.7 3-1.8 3-2.6 0-1.9 4-4.4 7.1-4.4 1.8 0 4.4-1.5 7.7-4.5 2.7-2.5 5.4-4.5 5.9-4.5s3.3-2.5 6.3-5.5c6.3-6.4 10.7-8 18.6-7 5.4.6 9.7-.8 16.6-5.6 1.4-1.1 4.8-2.3 7.5-2.8 6.2-1.2 10.3-2.8 10.3-4 0-.5.7-1.7 1.6-2.5 1.4-1.5 1.3-1.7-1.1-2.6-2.1-.8-2.6-1.5-2.2-3.3.3-1.2.9-4.5 1.2-7.2 1.2-8.9 2.6-11.6 9.5-18.6 5.3-5.4 6.9-7.7 7.4-10.8.3-2.4 2.2-5.9 4.6-9l4.1-5.2 13.7.2c11 0 15.4-.4 22.1-2.1 7.5-1.9 8.5-1.9 10-.6.9.9 4.1 2.3 7.1 3.1 8.6 2.5 12.4 4.7 13.8 8 2.8 6.5 3.9 8.1 6.7 9.4 2.2 1 3.3 1.1 4.7.2 3.1-2 4.5-1.2 6.3 3.6 1.4 3.7 1.6 5.5.8 8.4-1 4-.6 10.2.7 9.4.4-.3 1.1.2 1.4 1.1.5 1.3.9 1.4 2.1.4 1.8-1.5 2 .1.3 1.8-.9.9-.9 2.6 0 7.5.7 3.6 1.2 8 1.2 9.9 0 5 .9 5.2 4 1 1.5-2 3.5-4.4 4.6-5.2 2.3-1.8 1.8-1.1-3.9 6.1-4.3 5.3-4.4 5.9-1.6 5.9 1.2 0 2.3.8 2.6 2 .3 1.1 1 2 1.5 2 .6 0 .7-.7.4-1.6-.3-.8-.2-1.3.3-.9.5.3 2.3-1.2 3.9-3.3 1.7-2.1 4.2-4.4 5.5-5.1 2.2-1.2 2.4-1.7 1.6-3.8-.5-1.3-.9-3.6-.8-5.1.1-2.3.2-2.2 1.1 1 .6 2.1 1.4 3.8 1.8 3.8s2-1.9 3.4-4.3c2.9-4.7 9.6-12.5 9.6-11.1 0 .5-1.8 3.2-4 6.1-2.1 2.9-4.6 6.5-5.4 8.2-.9 1.6-2.8 3.9-4.2 5-2.3 1.8-2.4 2.1-.8 2.1 1.1 0 3.6-.5 5.7-1.1 2.2-.6 4.1-.8 4.3-.6.3.3-3 1.3-7.2 2.4-9.6 2.3-11.3 4.3-12 13.4-.8 8.9-.7 9.6 1 12 1.4 2.1 1.6 2 6.3-4.5 2.6-3.6 4.9-6.2 5.1-5.7.2.6-1.4 3.3-3.5 6.1-2.7 3.6-3.7 5.9-3.5 7.8.2 1.5.1 2.4-.4 2-1.2-1.3-3.4 1.3-3.4 3.9 0 1.9.4 2.4 1.6 1.9.9-.3 1.8-.6 2-.6s.4-1 .4-2.3l.1-2.2 1.3 2.4 1.4 2.4 2.6-4.1c1.4-2.3 2.9-4.2 3.3-4.2s.2.5-.5 1.2-1.2 1.7-1.2 2.2c.1.6.9 0 2-1.3 1.1-1.2 1.7-2.8 1.3-3.4-.3-.5-.1-.7.4-.4.6.4 2.4-.3 3.9-1.5 1.6-1.2.8.1-1.8 2.8-2.7 2.7-4.8 5.7-4.8 6.6 0 1-1.4 2.1-3.4 2.8-4.3 1.4-6.9 4.1-3.4 3.4l2.3-.5-2.2 1c-2 .9-2.2 1.3-1.1 3.6 1.4 3 2.4 3.2 3.8.4.7-1.1 2.7-2.7 4.5-3.5 1.9-.7 3.7-1.9 4.1-2.6.5-.8.2-.9-1.2-.3-1 .4-3.2.9-4.9 1.1-1.6.2-2.1.1-1-.2 4.7-1.2 7.6-2.8 8.6-4.6.7-1.3 1.4-1.7 2-1.1 1.2 1.2.1 4.5-1.2 3.7-.5-.3-.6.2-.3 1 .3.9 1 1.6 1.5 1.6 1.8 0 18-17.5 19.6-21 .8-1.9 2.4-4.5 3.5-5.7 1.2-1.2 1.8-2.9 1.5-3.7-.4-.9-.1-1.6.6-1.6s2.2-1.8 3.5-4c1.2-2.2 2.7-4 3.3-4 .7 0 .8-1.7.3-4.8-.4-3.2-.3-4.4.4-3.7.5.5 1.2 1.9 1.4 3 .3 1.6.9 1 2.6-2.5s2-3.9 1.5-1.5l-.6 3 2.4-2c1.4-1.2 1.1-.5-.9 1.9-1.8 2.1-3.1 4.4-2.8 5.1.3.8-1.2 3.3-3.3 5.7-4.4 5.1-6 8.4-3.5 7.4 4.5-1.7 6.2-1.4 1.9.4-5.5 2.4-7.5 3.8-7.5 5.2 0 .6 1.6 0 3.6-1.1 2-1.2 6.2-3.3 9.3-4.6s5-2.4 4.2-2.5c-1.1 0-1.1-.3.3-1.3 1.5-1.1 1.6-1.9.7-5.7-.6-2.5-1.1-5.5-1.1-6.8 0-4 1.7-1.4 2.4 3.5.3 2.7 1 5.4 1.5 6.2 1.4 2.3 4.7.3 9.2-5.5 5.6-7.3 9.5-9.6 4.9-2.9-3.1 4.6-3.2 4.7-.9 4.1 1.3-.4.6.3-1.6 1.5s-5.1 3.2-6.5 4.5-4.8 3.5-7.5 4.8l-5 2.5h3.4c1.9.1 4.3-.6 5.3-1.6 1-.9 1.8-1.1 1.8-.5s-.6 1.3-1.2 1.6c-.7.3.7.4 3.2.2 2.4-.3 4.6-1 4.8-1.5.2-.6.9-1.1 1.6-1.1 1.1 0 5.2-4.2 10.2-10.5 2-2.5.7 0-2.3 4.4-1.3 1.9-2.1 3.6-1.9 3.8s3.6-1.2 7.5-3.1c3.9-2 7.1-3.3 7.1-2.9s1.4-.6 3-2.2c1.7-1.6 3-2.3 3-1.7 0 .7-.5 1.2-1.1 1.2s-.9.6-.6 1.4q.6 1.5-2.4 2.1c-1.6.4-3.8 1.6-4.9 2.7-1 1.1-2.6 1.8-3.4 1.5s-1.6-.3-1.8.1-2 1.5-4 2.4c-2.7 1.2-3.8 2.4-3.8 3.9 0 1.6-.3 1.9-1.2 1.1-.9-.7-5-.4-13.3 1-14.4 2.3-18.5 3.3-20.8 5-1.9 1.4-4.9 11.6-3.6 12.3.4.3 2.3-.8 4.2-2.5 3.3-2.8 3.5-2.9 4-1 .3 1.2 0 2-.8 2-2 0-17.6 10.8-16.3 11.3.7.2-1.1.7-3.9 1.1-3.6.4-5.6 1.3-6.2 2.5-.9 1.6-.6 1.8 2.8 1.6 2.1-.1 4.4-.6 5.2-1 1-.6 1.1-.5.3.4-.6.6-3.3 2-6 2.9-3.7 1.4-5 2.3-5.2 4.1-.6 3.8.7 7.4 2.3 6.7 4.2-1.7 4.7-1.6 1.7.4-1.8 1.2-3.9 3.5-4.8 5.1-1.6 3.1-.5 3.9 1.7 1.3 1.3-1.6 6.2-4.4 7.6-4.4.4 0-.4.8-1.8 1.8-5.6 3.8-10.9 8.6-10.9 9.9 0 1.9 1.5 1.6 4.7-1.1 3-2.5 9.2-6 10.8-6.1.6 0 1.9-.5 3-1.2 1.1-.6 4.1-1.4 6.7-1.8 4.4-.7 14.4-5.7 17.7-9 3.8-3.8 6.2-19.9 3.7-25.6-.5-1.1-.1-1.9.9-2.3 1.1-.4 1.9.3 2.6 2.2 1 2.6 1.1 2.6 2.2.7 1.2-2.1 1.3-2.5 1.7-5.3.1-1.1.3-1.2.7-.4.2.6 1 .9 1.6.5.9-.5.8-.2 0 .8-1 1.2-.8 1.9.8 3.3 2 1.6 2.2 1.6 4 0 1-.9 2.2-3.2 2.5-5.1.5-2.4.9-3.1 1.5-2.2.4.8.6 2.4.2 3.6-.3 1.3-.2 2.3.2 2.3 2 0 4.4-2.4 5-5 .4-1.6 1-3.2 1.5-3.5s.5.8 0 2.4c-.8 2.9-.8 3 1.8 1.8 1.5-.6 3.1-1.4 3.7-1.9.5-.4 1.8-.8 3-.8 1.1 0-.5 1.2-3.7 2.6-5 2.3-5.6 2.9-5.3 5.3.2 1.4.4 2.8.5 3.1.2.3.2.9.1 1.3s3.2-1.1 7.2-3.3c4.1-2.2 8.2-4 9.3-4 1 0-1 1.4-4.6 3.2-4.3 2-5.9 3.3-4.7 3.5 2.7.7 2 2.3-1 2.2-2.7-.2-8.3 1.6-8.3 2.5 0 .3 1.8 1 4.1 1.6s3.9 1.4 3.6 1.7-2.7-.2-5.3-1.1l-4.7-1.6-5.6 4.2-5.5 4.2 4.4 1.9c2.4 1.1 7.3 2.2 10.7 2.5 3.5.2 6.3.8 6.3 1.3s-.7.6-1.6.2c-.9-.3-1.9-.1-2.3.5-.5.8-2.2.7-6.1-.3-3-.8-8-1.5-11.1-1.5-5.4 0-5.7.1-7.5 3.6-1.4 2.5-4.2 4.9-10.4 8.5l-8.5 5 5-.7c2.8-.3 7.8-2.1 11.3-3.9 7-3.7 8.5-3 2 .9-2.8 1.7-3.6 2.6-2.4 2.6 1 0 4.5-1.8 7.7-4s6.4-4 7.1-4 .4.6-.7 1.2c-2.2 1.2-6.9 5.8-6.4 6.2.7.5 12.1 2.8 12.3 2.4.2-.1 2.6-2.9 5.4-6.1 3.7-4.1 5.2-5.2 5.2-3.8 0 1-.7 2.4-1.5 3.1s-1.5 2.5-1.5 4.1c0 2.7.3 2.9 4.3 3l4.2.1-4.3 1c-3.3.7-4.2 1.3-3.8 2.5.3.8.6 1.9.6 2.5s.7.5 1.7-.3c1.5-1.2 1.6-1.2 1 .4-.6 1.5-.3 1.7 1.6 1.2 1.2-.4 3-1.6 4-2.7 1-1.2 2-1.8 2.4-1.4.4.3 1.8-.1 3.2-1.1 2.6-1.6 2.6-1.6.9.4-2.5 2.8-2.2 3.4 1 2.3 2.6-.9 2.7-.9.5.6l-2.2 1.6 3 5.6c1.6 3.1 2.9 6.2 2.9 6.9 0 2.8 2.1 2.1 3.7-1.2 1.5-3.2 1.5-3.8.3-4.7-1.3-.8-1.2-.9.2-.4 2.1.6 3.2-2.3 2.3-6.4-.5-2.4-1.2-3-3.3-3.1-2.4-.2-2.4-.2-.5-.6 2.1-.4 2.2-.6.9-3.1-.7-1.5-1.6-5.1-2-8s-1-6-1.3-6.9c-.4-1.1-.2-1.4.5-.9.6.4 1.4 2.3 1.8 4.4.9 5 4.4 12.2 6.1 12.2s.8-6.5-1.8-13.3c-1.1-2.6-1.9-6.7-1.8-9 .1-4.2.1-4.2 1.4 1.6 1.3 6 3.3 10.7 4.5 10.7 1 0 2-6.2 2.1-13 .1-5.4.1-5.4 1.1-2 1.3 4.6.2 20.1-2.3 31.2-.7 3.2-1 6-.7 6.3 1.1 1.1 5.8-1.8 5.8-3.6 0-1 .4-2.1 1-2.4s1 .1 1 .9c0 1.1 2.5-.1 8.3-3.7 4.5-2.9 8.8-5.8 9.5-6.4 1.7-1.7 2.3-1.6 1.6.1-.3.7-1.7 1.9-3.2 2.7-4.7 2.5-11.6 7.3-13.3 9.3-1.3 1.6-1.4 2.6-.7 4.8 1.1 3 2.3 3.6 3.2 1.5.3-.6.3.4 0 2.3l-.5 3.5 2.2-2.5c1.2-1.4 2.7-2.4 3.4-2.2 1.3.3 8.5-7.4 8.5-9.1s5.2-12.7 6-12.7c.5 0-.1 2.3-1.1 5.1-1.1 2.8-1.8 5.3-1.5 5.6.2.2 1.8-1.6 3.5-4.1s4.5-5.3 6.1-6.3c1.6-.9 3.5-3.1 4.1-4.7l1.3-3.1.3 2.8c.3 2.1-.2 3.3-2.2 4.9-3 2.3-2.7 3.5.5 1.8 1.2-.6 2.4-.9 2.7-.7.3.3-2 1.7-5 3.1-5.4 2.4-6.7 4-6.7 7.7 0 1.8.2 1.8 4.3-.3 6-3.1 7.6-4.6 8.3-8.4.3-1.9 1.2-3.4 1.9-3.4s1.8-.7 2.5-1.5 1.7-1.5 2.3-1.5.2 1-.9 2.3c-2.7 2.9-5.7 7.8-5.2 8.3.2.2 1.5-.4 2.8-1.3 1.2-.9 3.6-1.7 5.2-1.9 2-.1 4.6-1.7 7.6-4.5 5.1-4.8 3.3-2.5-5 6.2-2.9 3.2-7.8 7.3-10.8 9.3-7.5 4.9-8.2 5.6-7.6 7.2.3.7.1 1.6-.4 1.9-1.2.7-1.4 8.5-.2 8.5 3.1-.1 5.6-5.3 4.3-9-.5-1.6-.6-3.2-.2-3.5.8-.4 2.6 5 2.2 6.7-.2 1.4 2.9.8 6.9-1.2 2.2-1.1 4.4-2 5.1-2 .6 0 2.2-.9 3.6-1.9 1.3-1.1 3.1-1.7 3.9-1.4 1.4.5-5 3.9-13.6 7.3-5.3 2.1-9.2 5-8.6 6.6.3.8-.1 1.4-1 1.4-.8 0-2.8 1.6-4.5 3.5-2.6 2.9-3.6 3.4-5.7 2.9-1.5-.4-3.1-1-3.7-1.4-1.5-1.1-8.3 0-9.5 1.5-.8.9-.3 1.4 2.1 1.9 2.4.4 3.5.2 4.5-1.1.8-1.1 1.3-1.3 1.4-.5 0 .8.8 1 2.6.6 1.9-.5 2.5-.4 2 .5-.4.6-1.1.9-1.6.6s-1.1-.1-1.4.4c-.6 1 6.5 2.1 13.5 2.1 2.6 0 5 .3 5.2.7.3.5-1.7.6-4.4.5-3.1-.3-4.9 0-4.9.7 0 1.6-4.9 1.3-6.6-.4-1.8-1.7-3.4-2-3.4-.5 0 .5.8 1 1.8 1 1.6.1 1.6.1-.1 1.1-1.4.8-1.5 1.4-.6 3 .6 1.2.9 2.3.6 2.5-.2.2-1.5-1.6-2.8-4.1s-2.9-4.5-3.5-4.5c-2.7 0-11.8 2.1-12.3 2.8-.9 1.2-4.3 2.4-3.6 1.2.9-1.4-.6-1.2-2.4.3-.9.8-5.2 2.4-9.6 3.6-4.4 1.3-9.2 3.2-10.7 4.2-1.5 1.1-5.3 2.9-8.4 3.9-12.6 4.4-31.8 18.1-41 29.5-3.4 4.1-6.2 6.3-10.3 8.2-3.1 1.3-8.6 3.8-12.3 5.5-6.3 2.9-12.8 8.1-11.6 9.3.3.3 2.4.7 4.8.8 3.7.1 4.5-.3 7.7-3.8 1.9-2.2 2.9-3.1 2.2-2s-2.4 3.3-3.8 4.8c-2.2 2.4-2.3 2.9-1.1 3.7.8.5 2.5 1 3.8 1 1.2 0 2.2.4 2.2 1 0 1.4-1.3 1.3-6.9-.6-3.8-1.2-5.7-1.3-8.6-.5-3.1.8-3.5.8-2.4-.5.9-1.1.8-1.4-.9-1.4-1.2 0-2.4.5-2.7 1.1-1.1 1.6 2.5 4.9 5.4 4.9 2 0 2.3.2 1.1 1-.8.5-2.5 1-3.7 1-2.9 0-2.1 2.3 1.3 3.9 3.2 1.4 3.8 1.4 2.8-.2-.5-.7-.2-.5.8.5.9 1 2.3 1.8 3.2 1.8s1.6.5 1.6 1.1c0 1-1.6.7-5.9-.9-1-.4-1.3-.1-.8 1.1.7 1.9-.8 2.3-1.8.6-.5-.7-1.6-.2-3.1 1.2l-2.4 2.2v-3.6c0-2-.5-3.9-1-4.2-.6-.4-.8-1.6-.4-2.7.5-1.7.3-2-1.1-1.5-.9.4-1.8.7-2 .7-1 0-4.5 13.7-4.5 17.5 0 2.4.9 8.7 2.1 14.1 2.7 13.4 3.5 32.8 1.7 41.6l-1.5 6.8H512v-5.3c-.1-5.6-1.4-13-3.1-16.2-.5-1.1-3-3.1-5.5-4.4-5-2.7-6-4.9-5.1-11.4.5-3.7 1.6-6.6 5.7-16.2.5-1.1 1.4-5 2.1-8.7 1.1-5.7 1-7.2-.2-9.5l-1.4-2.6-.3 2.3c-.3 2.1-.7 1.8-3.4-2.5-2.3-3.6-3.2-4.5-3.9-3.4s-.9.8-.9-.9c0-1.8.6-2.2 3.3-2.3 1.7-.1 3.5-.1 4 0 .4 0 .7-.8.7-1.9 0-1 .9-4.2 2-7 2.5-6.3 2.5-6.7 0-8-1.6-.9-2.4-.7-3.6.5-2.2 2.1-3.6.9-2.9-2.6.5-2.2.2-3.1-.9-3.5-2.9-1.1-3.8-4.1-2.6-8.4.6-2.2 1.5-4 2.1-4 .5 0 2.7-1.1 4.8-2.6 2.8-1.8 4.6-2.3 6.5-1.8l2.6.6V0H0zM383 7.9c0 .5-.7 1.1-1.5 1.5-1.5.5-2-.5-.8-1.7.9-1 2.3-.9 2.3.2m-224 2.2c1.1 1.9 1 2-.9.9-2.2-1.1-2.9-3-1.1-3 .5 0 1.4.9 2 2.1m316-.1c0 .5-.4 1-1 1-.5 0-1-.5-1-1 0-.6.5-1 1-1 .6 0 1 .4 1 1m-72.4 4.1c1 1.7-1.2 3.2-3.5 2.4-2.9-.9-2.7-3.5.3-3.5 1.4 0 2.8.5 3.2 1.1M279.2 24.5q-.75 1.65-.6-2.7c.4-5.6.6-6 1.1-2.1.2 1.8 0 4-.5 4.8m-5.7-3.5c.3.5.1 1-.4 1-.6 0-1.1-.5-1.1-1 0-.6.2-1 .4-1 .3 0 .8.4 1.1 1m-134.9 6.7c-.4 2.4-3.2 4.1-4.7 2.6-.8-.8-.5-1.6 1.2-3.1 2.4-2.3 3.9-2.1 3.5.5m159.5 4.8c-.1 1.5-2.4 1.2-2.9-.3-.3-.9.2-1.3 1.2-1 1 .1 1.7.7 1.7 1.3M122.5 48c1.3 0 4.1 5.7 3.2 6.6-.7.8-4.9-1.5-6.4-3.5-1.8-2.3-1.6-4.4.3-3.7.9.3 2.1.6 2.9.6m14.5 4.4c0 .8-.4 1.7-.9 2.1-1.2.7-2.4-1.2-1.6-2.5.9-1.5 2.5-1.2 2.5.4m213 10c0 .3-.4.8-1 1.1-.5.3-1 .1-1-.4 0-.6.5-1.1 1-1.1.6 0 1 .2 1 .4M458 72c0 3.7-2.8 4.8-3.6 1.5s.1-5.6 2.1-4.9c.8.4 1.5 1.8 1.5 3.4m-37.6-1.4c1.1 2.7.6 5.4-.8 5.4-1.3 0-5.6-4.9-5.6-6.4 0-1.4 5.8-.5 6.4 1M154.5 91.2c3.8 1.7 3.4 3-1.6 4.1-1.6.4-3.3.1-4.5-.8-1.9-1.5-1.9-1.5 0-3 2.4-1.8 2.8-1.8 6.1-.3m214.3 5.3c-.3.3-.9-.2-1.2-1.2-.6-1.4-.5-1.5.5-.6.7.7 1 1.5.7 1.8m9.3 1.2c-.8 1.5-1 1.5-1.1.2 0-1.7 1-3.2 1.8-2.5.2.3-.1 1.3-.7 2.3M388 96c0 .5-.5 1-1.1 1-.5 0-.7-.5-.4-1 .3-.6.8-1 1.1-1 .2 0 .4.4.4 1m-17 5.5c0 .5-.5.3-1-.5s-1-2-1-2.5c0-.6.5-.3 1 .5s1 1.9 1 2.5m14-3.1c0 .2-.8 1-1.7 1.7-1.6 1.3-1.7 1.2-.4-.4s2.1-2.1 2.1-1.3m17.5 3.6c-.3.5-1.1 1-1.6 1-.6 0-.7-.5-.4-1 .3-.6 1.1-1 1.6-1 .6 0 .7.4.4 1m.5 8.4c0 .2-.9.6-2 .9s-1.8.1-1.4-.4c.5-.9 3.4-1.3 3.4-.5m-72.7 23.1c-.3.9-.8 1.4-1 1.1-.3-.3-.2-.9.2-1.5.9-1.6 1.5-1.3.8.4m-4.8 4.5c-.3.5-1.2 1-1.8 1-.7 0-.6-.4.3-1 1.9-1.2 2.3-1.2 1.5 0m48.5.8c0 .5-1.2 1.4-2.7 2.1l-2.8 1.2 2.5-2.1c2.9-2.2 3-2.3 3-1.2m1 3.6c0 .2-1.1.6-2.5.8-1.3.3-2.2.1-1.9-.3.5-.9 4.4-1.3 4.4-.5m50 2.1c-.7.8-1.7 1.2-2.2.9-.6-.4-.5-1 .3-1.5 2.2-1.4 3.3-1 1.9.6m-1.1 3.1c1 .9-3.5.3-4.9-.6-1.1-.8-.7-.9 1.5-.4 1.7.4 3.2.8 3.4 1m-5.2 1c-.3.3-1.2.4-1.9.1-.8-.3-.5-.6.6-.6 1.1-.1 1.7.2 1.3.5m5 1c-.3.3-1.2.4-1.9.1-.8-.3-.5-.6.6-.6 1.1-.1 1.7.2 1.3.5m-43.4 3.6c.6 2.2.5 2.2-.8.4-1.7-2.2-2-4-.6-3.2.5.3 1.1 1.6 1.4 2.8m80.7 14.7c0 1.1-2.6 2.2-3.4 1.4-.3-.4-.6-1.5-.6-2.5 0-1.6.3-1.7 2-.8 1.1.6 2 1.5 2 1.9m32 2.9c0 .9-4.6 5.2-5.6 5.2-.8 0 4-5.9 4.9-5.9.4-.1.7.3.7.7m-443 4.7c-.7.8-1.6 1.5-2.1 1.5-1.4 0-1-1.7.8-3.6 2-2 3.2-.1 1.3 2.1m449-3.1c0 .2-.8 1-1.7 1.7-1.6 1.3-1.7 1.2-.4-.4s2.1-2.1 2.1-1.3m-70 8c0 .2-.8 1-1.7 1.7-1.6 1.3-1.7 1.2-.4-.4s2.1-2.1 2.1-1.3m77.7 8.3c-.9.9-2 1.4-2.4 1-.3-.4.2-1.4 1.3-2.1 2.5-1.9 3.3-1 1.1 1.1m-494.4 5.8c-.3.9-.8 1.4-1 1.1-.3-.3-.2-.9.2-1.5.9-1.6 1.5-1.3.8.4M493 211c0 .5-1 1-2.2.9-2.2 0-2.2-.1-.3-.9 1.1-.5 2.1-.9 2.3-.9.1-.1.2.3.2.9m-30.7 58.7c5.1 2.7 6.7 4.1 6.7 5.7 0 2.8-1.8 4.6-4.7 4.6-1.3 0-2.9 1.1-3.9 2.6-.9 1.4-3 3.2-4.5 4-3.7 1.9-11.3 1.8-12.9-.1-.7-.8-1-1.5-.7-1.5.4 0-.5-1.6-1.8-3.6-1.4-2-2.5-4.5-2.5-5.6 0-3 2.6-7.3 5.2-8.5 5.8-2.9 9.7-2.4 19.1 2.4m-417.2.4c-.9 2.2-1 2.2-1 .3-.1-1.1.2-2.4.6-2.7 1.2-1.2 1.4 0 .4 2.4m-17 8.5c1.7 2-.2 1.7-3.1-.6-2.4-1.8-2.4-1.9-.3-1.4 1.2.4 2.8 1.2 3.4 2m350.7 22.1c-1.3 1.6-5.9 2.6-7.1 1.4-.6-.6.1-1.6 1.9-2.7 1.6-1 3.3-2.5 3.8-3.4.8-1.2 1.1-1.1 1.6 1 .4 1.4.3 3-.2 3.7m-18.1-3.1c-.3.3-1.2.4-1.9.1-.8-.3-.5-.6.6-.6 1.1-.1 1.7.2 1.3.5m-.7 2.4c0 .5-.4 1-1 1-.5 0-1-.5-1-1 0-.6.5-1 1-1 .6 0 1 .4 1 1"/><path d="M302.7 106.5c-.4.8-.2 1.7.3 2 .6.4 1-.3 1-1.4 0-2.5-.6-2.7-1.3-.6m.3 6.6c.7 1.1 1.4 1.8 1.7 1.5.8-.8-.5-3.6-1.7-3.6-.7 0-.7.6 0 2.1m10.3 10.1c-.4.7-.8 3.6-.8 6.5 0 3.6-.6 6-2.1 8-2.5 3.4-3.9 12.4-1.8 11.6.8-.3 1.4-2.1 1.5-4.2.1-3.2.2-3.3.8-1.1l.7 2.5.8-2.3c.4-1.2 1.1-2.2 1.5-2.2s.8-4.5.8-10c-.1-5.5-.2-10-.3-10-.2 0-.6.6-1.1 1.2m59.5 5.5c.7.3 1.6.2 1.9-.1.4-.3-.2-.6-1.3-.5-1.1 0-1.4.3-.6.6m-21.1 15.4c-7.2 7.8-9.1 10.9-6.7 10.9.6 0 1-.5 1-1 0-.6.8-1 1.7-1 3.6 0 8.9-4.9 10.7-10 1-2.7 1.6-5.5 1.4-6.1s-3.9 2.6-8.1 7.2m49.9-2.6c-1.1.8-1.7 1.8-1.3 2.1 1 1.1 3.7-.4 3.7-2.1 0-1.8 0-1.8-2.4 0m-6 5.7c-2 3.3-2.9 6.8-1.7 6.8 1.3 0 8.1-6.7 8.1-8 0-2-5-1-6.4 1.2m7.4.4c0 .8.5 1.2 1 .9.6-.4.8-1.1.5-1.6-.9-1.4-1.5-1.1-1.5.7m-91 1.4c0 .5.5 1 1 1 .6 0 1-.5 1-1 0-.6-.4-1-1-1-.5 0-1 .4-1 1m71.6.7c-.6 1.4-.5 1.5.5.6.7-.7 1-1.5.7-1.8s-.9.2-1.2 1.2m4.1-.2c.3.8.9 1.2 1.4.9 1.2-.7 1.1-1.1-.5-1.7-1-.4-1.3-.1-.9.8m-2 4.3c-1.8 2-2.3 5.2-.9 5.2s4.2-3.5 4.2-5.3c0-2.2-1.3-2.1-3.3.1m-75.9 9.1c-6.7 6.6-8.7 9.3-8.9 11.6-.5 7.4.9 8.5 4.1 3.2 1.1-1.7 2-2.6 2-1.9 0 1.6 10.2-7 13.6-11.5 2.4-3.2 2.5-3.4.8-6.8-.9-1.9-1.9-3.4-2.3-3.3-.3.1-4.5 4-9.3 8.7m22.4-3.9c-2.8 1.8-5.9 5.7-5 6.5.7.7 4.8-.7 4.8-1.7 0-.5.4-.7.9-.4 1.7 1.1 4.1-.6 4.1-2.9 0-3.3-1.2-3.7-4.8-1.5m5.4-.5c.4.8 1 1.2 1.5.9 1.4-.8 1-2.4-.6-2.4-.9 0-1.2.6-.9 1.5M309 160c-.9.6-1 1-.3 1 .6 0 1.5-.5 1.8-1 .8-1.2.4-1.2-1.5 0m25.4 5.1c-.3.6-.2 1.5.4 2.1s1.1.2 1.5-1.1c.5-2.2-.7-2.9-1.9-1m-6.9 2.2c-2.8 1.6-15.8 15.7-15.2 16.3.3.3 2.4-.8 4.8-2.5 2.3-1.7 4.7-3.1 5.3-3.1s-.1.8-1.6 1.8c-7.1 4.7-13.2 12.2-9.9 12.2.5 0 1.2 1.8 1.6 4s.9 4 1.2 4c1 0 12.8-6.5 14.2-7.9.8-.7 2.3-3.7 3.3-6.6 1.6-4.8 1.6-5.7.3-9.7-1.3-3.8-1.3-4.1 0-2.4.8 1.1 1.5 2.6 1.5 3.3 0 1.8 1.7 1.6 2.4-.3 1-2.7.7-5.4-1-7.9-1.8-2.7-3.8-3.1-6.9-1.2m77.1 12.2c-2.1 3.1-2 3.5.4 3.5 1.6 0 2-.7 2-3 0-3.6-.3-3.7-2.4-.5m-51.4 5.8c-2.6 1.6-5.9 3.8-7.5 4.9-1.5 1-4.6 2.7-7 3.7-10 4.3-18.6 14-18.7 20.9 0 3.2 3 9.3 4.2 8.6.5-.3 1.7-1.9 2.6-3.4 1-1.5 3.2-4 5.1-5.6 3-2.5 3.3-2.5 2.2-.6-.6 1.2-1.6 2.2-2 2.2-.5 0-1.8 1.8-3 4l-2.1 4 3-1.5c1.6-.8 3.4-1.5 4.1-1.5.6 0 5.1-1.9 9.8-4.1 7.7-3.8 8.3-4.3 6.1-4.9l-2.5-.8 2.5-.2c5.1-.5 6.6-.7 8.7-1.4 2.2-.7 2.2-.9.8-3.7-2-3.8-.5-3.8 1.7.1 1.3 2.3 2.4 3 4.8 3 1.7 0 3-.5 3-1.3.1-.7.5-.6 1.3.5.9 1.2 1.7 1.4 3 .7 1.2-.7 1.7-.6 1.8.3 0 .7.4.4.8-.7.5-1.1 1.2-2 1.7-2s1.5-.4 2.2-.9c.7-.4 1.6-.6 1.9-.3.2.3-.7 1.3-2.1 2.2-1.4 1-2.6 2.2-2.6 2.7 0 1.4 12-9.3 13.5-12.2 1.4-2.5 1.4-2.5 1.5-.2 0 2.2 0 2.2 5.8-1 3.1-1.7 6-3.4 6.5-3.8.4-.3-2.2-3-5.7-5.8l-6.4-5.2-17.2.2-17.2.1zM326 219.4c0 .2-.8 1-1.7 1.7-1.6 1.3-1.7 1.2-.4-.4s2.1-2.1 2.1-1.3m74-32.5c5 4.5 7 5.1 7 2.1 0-2.4-3.4-4.8-8.1-5.6l-3.4-.6zm92.5.2c-.4.6-.5 1.2-.2 1.5.2.3.7-.2 1-1.1.7-1.7.1-2-.8-.4m-73.3 1.4c.4.4-.7 1.5-2.5 2.4-1.7.9-3.5 1.3-3.8.8-.3-.4-1.1-.1-1.8.7-1 1.2-.7 1.5 1.8 2.1 1.7.4 4.1.4 5.3.1 2.1-.5 2.1-.5.3.3-1.1.5-2.7 1.2-3.6 1.4-1.6.5-3.5 5.4-2.5 6.4.6.6 4.6-1.5 7.6-4.1 1.6-1.4 2-1.5 1.1-.4-1.1 1.5-1.1 1.8 0 1.8 2.1 0-.2 1.6-4.2 2.9-2.2.7-3.9 2-4.2 3.1-.4 1.7 0 2 3.6 2.2 2.6.1 1.2.4-3.8.9-4.4.4-10 1.3-12.5 1.9s-5.1 1.1-5.7 1.2c-.7.1-1.3.9-1.3 1.9 0 2.3 4.2 1.9 7.2-.7 1.2-1.1.3.4-2.1 3.2-2.4 3-4.1 6-3.9 7 .2 1.3-.3 1.9-1.7 1.9-1.3 0-2 .7-1.9 1.7s-.6 2-1.5 2.3c-2 .7-6.2 6.5-5.5 7.7.3.5 1.3.3 2.3-.6 1.9-1.8 14-6.3 23.1-8.6 6.2-1.5 6.5-1.8 7.1-5.1.7-4.1 3.6-9.9 5-9.9.6 0 .5.8-.2 2.2-1.8 3.4-2 10.8-.3 10.8 1.4 0 9.4-3.7 9.4-4.4 0-.1-.7-1.8-1.6-3.6-1.4-2.7-1.4-3.4-.3-4.1 1-.6 1.8-.1 2.6 1.9 1.1 2.4 1.2 2.1.7-2.8-.5-3.7-1.4-6.3-3-8-1.2-1.4-2.6-3.7-2.9-5.3-.4-1.5-1.1-2.7-1.7-2.7-.5 0-.6-.4-.3-1 .7-1.1-2-6.6-3.7-7.6-.7-.4-1-.4-.6.1m66.9 1.6c-1.3 1.1-3.1 2.4-4 2.9s-1.3 1.1-.9 1.5c.3.4 1.7.1 3-.6 1.2-.7 2.7-1.3 3.2-1.4.5 0 1.5-1 2.4-2.3 1.9-2.9-.2-3-3.7-.1m-16.6 4.5-3 2.6 3.2-1.6c1.7-.9 3.5-2 3.8-2.6 1.1-1.8-.9-1-4 1.6"/><path d="M406 195.5c-1.8 2.2-.5 3 1.9 1.3 1.2-.8 1.8-1.8 1.4-2.1-1-1.1-1.9-.8-3.3.8m38 1.3-2.3 1.9 2.8 5.2c2.5 4.5 3 5 4.3 3.7s1.3-2.2.2-6.3c-1.7-6.3-2.2-6.7-5-4.5m-38 3.8c-1.7 1.5-3.7 3.9-4.6 5.5L400 209l4.7-2.6c4.5-2.3 6.1-4.2 6.2-7.2.1-1.9-1.5-1.4-4.9 1.4m-9.9.5c-2.9 1.1-6.8 3-8.7 4.3l-3.5 2.3 4.7.7c7.4 1 7.7.9 12.2-4.4 4.9-5.7 4.2-6.1-4.7-2.9m43.1 0c-2 5.2-3.5 12.7-2.9 14.3.6 1.4 1 1.4 4.1-.5 5.9-3.4 6.1-4.1 2.7-10.4-2.9-5.4-3.1-5.6-3.9-3.4m34.3.6c-1.6.9-2.5 1.8-1.9 2 1.6.5 6.4-1.5 6.4-2.7 0-1.4-1-1.2-4.5.7m-2 4.2c-3.1 1.1-5.4 2.5-6 3.9-.5 1.2-1.4 2.2-2 2.2-.5.1-3.7 1.4-7 3.1-5.1 2.5-5.5 2.8-2.5 2.3 1.9-.4 4.3-.7 5.2-.7.9-.1 1.4-.6 1-1.2-.3-.5.1-.4 1 .3 1.2 1 2.3.9 5.8-.3 2.3-.8 5.1-1.5 6.2-1.5 1.9 0 4.8-5.1 4.8-8.5 0-1.8 0-1.8-6.5.4m-62.7.8c.7.3 1.6.2 1.9-.1.4-.3-.2-.6-1.3-.5-1.1 0-1.4.3-.6.6m-91.3 1.2c-.3.5-.1 1.2.5 1.6.5.3 1-.1 1-.9 0-1.8-.6-2.1-1.5-.7m62.5 4.6c-1.4.8-3.5 1.4-4.8 1.5-1.2 0-2.6.8-2.9 1.7-.4 1-1.5 2.4-2.5 3.1-2.4 1.8-1.4 3.2 2.3 3.2 2.5 0 2.9-.4 2.9-2.9 0-1.7.4-3.3 1-3.6.6-.4.7.5.4 2.3-.3 1.6-.2 3.2.3 3.5.6.4 3.8-.7 7.3-2.4 3.4-1.6 6.5-2.7 6.7-2.5.3.3-1.7 1.5-4.3 2.8-5.7 2.7-6.7 5.2-2.9 7 2.3 1 2.9.8 6.5-2.7 2.2-2.2 4-4.4 4-5 0-.5-1.4-2.5-3.1-4.3-3.3-3.5-6.7-4.1-10.9-1.7m-24.5 2.5c-2.7 1-4.2 2.9-5 6.3-.6 2.2-.4 2.7 1.1 2.7 4.2 0 15.4-4.3 15.4-5.8-.1-.8-7.2-4.2-8.6-4.1-.5 0-1.8.4-2.9.9m11.6-.1c-.8.5-.9 1.1-.3 1.5 1.3.8 4.2-.3 4.2-1.5 0-1.1-2.1-1.1-3.9 0m106.4 1.5c-3 1.3-3 1.3-.6 2 1.7.6 2.9.3 4.4-1.3 2.5-2.5.9-2.8-3.8-.7M454 220c-1.3.8-1.3 1 .2 1 .9 0 2-.5 2.3-1 .8-1.3-.5-1.3-2.5 0m-108 2c0 1.1.4 2 .9 2s1.1-.9 1.4-2c.3-1.3 0-2-.9-2-.8 0-1.4.9-1.4 2m-2.5 1c-.3.5-.1 1 .4 1 .6 0 1.1-.5 1.1-1 0-.6-.2-1-.4-1-.3 0-.8.4-1.1 1"/><path d="M378.3 222.7c-1.8.7-1.6 2.3.2 2.3.8 0 1.5-.7 1.5-1.5s-.1-1.5-.2-1.4c-.2 0-.9.3-1.5.6m69.2.3c-1.1.5-3.2.9-4.6.9-1.5.1-3.7 1-5 2.1-2.9 2.4-1.7 2.4 7 .2 3.6-1 6.6-2.3 6.9-3 .4-1.4-1.3-1.5-4.3-.2m-82.8 1.7c-.9.2-1.5.9-1.2 1.4.9 1.3-1.2 1.1-3.4-.3-1.5-.9-2.5-.9-4.6 0-1.4.7-3.7 1.2-5 1.2-1.4 0-2.5.5-2.5 1.1 0 3 2.4 9.7 4.3 12.1l2.2 2.8 3.5-7.1c1.9-3.9 3.6-6.7 3.8-6.1.1.5-1.3 4.3-3.3 8.4-3.6 7.6-4.2 11.1-2.5 13.8.7 1.2 1.1 1 1.8-.9.6-1.6 1.1-2 1.6-1.3 1.1 1.8 12.1-4.6 19.3-11.2 2.9-2.7 3.1-3.1 1.8-5-.8-1.1-1.5-3.2-1.5-4.6 0-2-.7-2.9-3.3-3.8-3.3-1.2-7.6-1.4-11-.5m-29.7 2.6c-5.2 1.8-4.8 3.7 2.1 9.3 7.3 5.8 12.1 9.3 13 9.3 1.3.2-1-7.1-2.8-9.2-1.1-1.2-3.1-4.1-4.6-6.5-3-4.7-2.8-4.6-7.7-2.9m7-.7c0 .3 1.2 2.2 2.6 4.2l2.6 3.7-.7-3c-.4-1.6-1.1-3.6-1.7-4.2-1.1-1.3-2.8-1.8-2.8-.7m39 2.3c0 2.8 1.9 3.6 3.5 1.5 1.2-1.6 1.1-2-.3-2.6-2.7-1.1-3.2-.9-3.2 1.1m39.5 2.1c-.3.5-.2 1 .4 1 .5 0 1.3-.5 1.6-1 .3-.6.2-1-.4-1-.5 0-1.3.4-1.6 1m-14.5 1.6c-1.9.8-5.6 3.3-8.2 5.5-5.5 4.6-12.6 8.9-14.8 8.9-.8 0-6.4 2.4-12.3 5.3-10.6 5.2-10.9 5.5-13.3 10.7-1.4 3.1-2.4 6.7-2.2 8.5.6 5.7 3.9 3.9 22.4-11.7 4.3-3.7 9.2-8.1 10.8-9.8s5.9-4.6 9.6-6.5c5.6-2.8 6.8-3.9 7.3-6.4.4-1.7 1.1-3.1 1.7-3.1s.8 1 .4 2.5c-.5 2-.3 2.4.8 2 1.3-.5 2.3-2.1 4.6-6.8.5-1.2-3.1-.7-6.8.9m8.9.6c-1 1.8-.9 2 .6 1.5.9-.4 1.9-.7 2.1-.7s.4-.7.4-1.5c0-2.2-1.8-1.8-3.1.7M328 235c-2 2.8-2.1 3.5-1 5.8.7 1.5 1.4 4.3 1.5 6.3.2 3.3 5.9 13.9 7.4 13.9 2.3 0 16.7-7 16.9-8.2.2-1-3.4-4.7-9-9.3-5.1-4.3-10.3-8.7-11.4-9.7-2.2-1.9-2.2-1.9-4.4 1.2m62.5.4c-1.7.7-3.6 2-4.4 2.9-.7 1-2.1 1.7-3.1 1.7s-2.4.7-3.1 1.7c-1.3 1.5-1.1 1.6 1.6.9 3.6-.9 10.7-4.9 12.5-7 1.5-1.9.5-2-3.5-.2m-46.1 29.3c-6.1 3-9.4 6.1-9.4 8.7 0 .4 8-1 8.4-1.5.1-.2 2.2-2.5 4.6-5.2 2.3-2.6 4.1-4.9 3.9-5.1s-3.6 1.2-7.5 3.1m4.2 2.9c-1.6 1.8-2.2 3.1-1.5 3.5s.5 1.1-.7 1.8c-2 1.1-2 1.1 2.9 1.5.6.1 1.2-.8 1.3-1.9 0-1.1.4-3 .8-4.3 1.2-3.5.1-3.7-2.8-.6M346 276c-.6.4-3.8.5-7 .3-5.7-.5-5.9-.4-6.6 2.1-.4 1.6-.1 3.2.6 4.1.9 1 .9 1.5.1 1.5-.6 0-1.1 1.6-1.1 3.7v3.6l2.3-2c1.2-1.1 5-3.7 8.5-5.7 7-4.2 9.3-7.1 6.3-7.9-1-.2-2.4-.1-3.1.3M81.1 295.6c.3.5 1 2 1.6 3.4.5 1.4 2 4.7 3.3 7.3 2 4.4 2.1 5.3 1 9.3-1 3.5-1 4.7 0 5.9s.7 1.9-1.9 4.2c-1.7 1.5-3.1 3.7-3.1 4.9 0 1.1-.9 2.9-2 3.9-1.3 1.2-2 3.1-2 5.7 0 2.2-.5 7-1.1 10.8-1.1 7.6-.5 12.5 3.3 25.7l2.1 7.3h209.5l.7-5.7c.4-3.2 1-10.7 1.5-16.8.7-10.1 1-11.5 4.4-17.7 3.1-5.6 3.9-8.3 4.7-15.5.5-4.8 1.1-10.6 1.5-12.9l.6-4.1-7.8-2.9c-8.8-3.2-12.7-3.3-18.5-.4-2.1 1.1-4.5 2-5.3 2s-3.7 2.4-6.5 5.2l-5 5.3h-15.3c-14.6 0-15.5.1-21 2.7-3.1 1.6-6.4 2.8-7.2 2.8-.9 0-6.4-1.6-12.3-3.6-9.8-3.3-11.4-3.5-17.8-2.9-4.3.4-8.9.2-11.6-.5-4.3-1.1-4.7-1-9.8 2.4-5.6 3.8-8.8 4.4-12.1 2.4-1.5-.9-3.6-.9-9.6.1l-7.8 1.3-1.9-2.6c-1-1.4-2.5-2.6-3.2-2.6-.8 0-2-.8-2.7-1.8-1.6-2.3-5-4.2-8.6-4.7-6.3-.9-20.7-4.8-23.1-6.3-1.4-.9-4.5-3.2-6.7-5.2-4.5-3.8-11-7.9-10.3-6.4M264.5 352c-.3.5-1.1 1-1.6 1-.6 0-.7-.5-.4-1 .3-.6 1.1-1 1.6-1 .6 0 .7.4.4 1m37-53.5-4 1.1 4.3 2.3c2.4 1.2 4.5 2.1 4.7 1.9s.6-1.5 1-2.9c.8-3.3-.7-4-6-2.4M330 301c0 .5.5 1 1 1 .6 0 1-.5 1-1 0-.6-.4-1-1-1-.5 0-1 .4-1 1m-254.2 8.8c-.5 3.4.2 4.1 2.1 1.9.8-1 .7-1.8-.3-3.2-1.2-1.7-1.4-1.6-1.8 1.3m259.2.7c0 .8.2 1.5.4 1.5s.6-.7 1-1.5c.3-.8.1-1.5-.4-1.5-.6 0-1 .7-1 1.5M51.1 336.6c0 1.1.3 1.4.6.6.3-.7.2-1.6-.1-1.9-.3-.4-.6.2-.5 1.3"/></svg>