<svg xmlns="http://www.w3.org/2000/svg" width="682.667" height="512" version="1.0" viewBox="0 0 512 384"><path d="M0 42.6v42.6l3.3-2c8.1-5.1 14.3-5.5 27.7-2.1 4.7 1.2 5.4 1.1 13.3-1.9 7-2.7 9.9-3.2 18.5-3.4 9.7-.3 10.3-.4 10.9-2.6.3-1.2.2-3.7-.1-5.5-1.6-7.5-1.3-9.1 1.8-9.7 2.5-.4 3.2-1.3 4.7-5.5 1-2.8 1.8-6.2 1.8-7.7.2-4.5 2.1-7.4 6.2-9.2 2.3-1.1 3.9-2.4 3.9-3.4s1.6-2.6 3.7-3.7c2.1-1.2 4.3-3.4 5.2-5.5 2.4-5.3 6.1-11 7.2-11 .5 0 2.7-1.1 4.9-2.5 3.7-2.3 4.4-2.4 8.7-1.4 2.7.6 7.5 1.5 10.8 1.9 3.3.5 8.5 1.4 11.5 2 5.6 1.2 15 2.3 29.7 3.6 6.5.5 8.2 1 8.6 2.4.3 1 2.2 2.1 5.1 2.9 2.5.6 4.5 1.7 4.3 2.3-.2 1.2.4 1.4 4.3 1.7 1.1 0 3.8 1.7 6 3.7 2.8 2.5 5.7 4 10.1 5 3.4.8 6.6 1.3 7.3 1.2 2.2-.4 7.5 1.4 8.8 2.9.7.9 2 3.4 2.8 5.6 1.9 5.1 5.5 6.4 11.9 4.2 2.5-.8 4.6-1.3 4.8-1.1.3.2-.5 2.3-1.7 4.6-2.9 5.6-2 12 2.2 15.5 2.8 2.4 2.8 2.5 1.3 5.4-2.9 5.7-1.1 11.6 3.1 10 1.4-.5 2.6-.4 2.9.1.9 1.5.2 8.3-1.3 11.2-1 2.1-1.1 4-.3 8 .6 3.6.6 5.5-.1 5.9s-.1 2 1.6 4.1c1.4 1.9 2.6 4 2.6 4.7s-1.7 4.2-3.7 7.9c-3.9 7-4.4 10.1-2.9 21.4.7 5.3.9 5.6 2.9 4.8 1.2-.4 2.1-1.3 1.9-1.9-.1-.6.4-1.1 1.2-1.1 2 0 9.7-6.6 8.8-7.5-.4-.5-.1-.5.6-.1.8.5 2.1.1 3.3-1 2.2-2 2.5-3.9.5-3.1-1.7.7-3-1.9-1.4-2.9.5-.4 1.4-.1 1.8.6.6.9 1.1.7 1.9-.9.7-1.2 1-2.5.7-2.9-.3-.5.5-2 1.8-3.3 1.3-1.4 3.1-4.9 4.1-7.9 1-3.1 2-4.8 2.3-4s1 1.8 1.6 2.2.4.9-.7 1.4c-.9.3-1.7 1.2-1.7 1.8 0 .7-1.3 3-3 5.2-3.1 4.2-3.8 6.4-1.7 6.4 1.7-.1 4.1-2 6.1-5.3 1-1.5 2.2-2.7 2.7-2.7s.2 1.1-.7 2.5c-1.6 2.4-1.6 2.5.8 2.5 3.9 0 4.8-1.7 3.1-5.7-.8-1.9-1.2-3.7-1-4 .3-.2.9 1 1.5 2.6.6 1.7 1.3 3.1 1.6 3.1.8 0 10.6-10 10.6-10.8 0-1.1 5-5.5 5-4.4 0 .5-1 2.4-2.3 4.3-4.3 6.4-4.4 6.5-1.2 4.6 2.7-1.6 2.6-1.5-.5 1.2-1.9 1.7-4 3.1-4.7 3.1-.6 0-2.2 1.4-3.4 3.1l-2.2 3.2 3.9-.6c2.8-.5 3.3-.4 1.8.2-1.8.8-4.3 3.2-3.2 3.1 1.7-.2 13-3.9 12.1-3.9-.7-.1-1.3-.6-1.3-1.2s.8-.9 1.8-.7c1.4.4 1.7-.1 1.5-2.6-.9-11.4-.9-14.6.1-14.3.5.2.9 2.6.8 5.3-.3 5.6.9 10.6 2.6 11.2 1.4.4 10.2-7.6 10.2-9.3 0-.7.8-1.9 1.7-2.6 1.1-1 1.4-1 .9-.2-1 1.8.4 1.6 2.8-.5 1.2-.9-.4 1-3.4 4.3-6.4 7.1-13.2 11.9-17.9 13-1.9.4-4.8 1.3-6.5 2.1-2.8 1.1-1.7 1.3 10.1 1.3 12.9 0 13.3-.1 15.2-2.5 2.1-2.6 3.6-3.2 2.8-1-.6 1.4 3.5.3 11.6-2.9 1-.4 1.7-.3 1.7.4 0 .6-.9 1.1-1.9 1.1-1.1 0-2.6.6-3.3 1.3-1.2 1.1-8.6 3.7-15 5.1-2.2.5-2.8 1.3-2.9 3.4-.2 2.3-.2 2.4-.6.4-.4-2.1-.7-2.2-13.6-2.2-14.6 0-20.9 1.8-22.6 6.2-2.5 6.8-2.5 6.8 1.2 6.6 2.1-.2 3.3-.7 3-1.4-.2-.7 0-1.5.6-1.9.7-.4.8 0 .4 1.1-.5 1.3-.3 1.6 1 1.1 1.4-.5 1.5-.3.5 1.3-1 1.5-2 1.8-5.5 1.4-3.6-.4-4.3-.2-4.3 1.2s.3 1.4 1.5.4c.9-.7 1.8-1 2.1-.8.5.6-7.3 5.6-12 7.6-2.4 1.1-2.7 1.5-1.5 2.3.9.6-.6.7-4.2.3-3.8-.4-6.3-.2-8 .7-1.3.7-2.7 1.2-3 1.1-.4-.1-.5.8-.2 1.9.5 1.7 1.2 2 3.7 1.6 1.7-.3 3.9-.8 4.9-1.2.9-.4 1.7-.3 1.7.3 0 .5-2.3 1.5-5 2.2s-5 1.5-5 1.8c0 1.4 4.8 7.1 10.1 12l5.6 5.3 4.9-1.1c6.9-1.5 15.4-7.3 15.4-10.5 0-1.8-.4-2.3-1.5-1.9-1 .4-1.5 0-1.5-1.1 0-1.2.5-1.5 2-1 3.3 1 3.6-2.2.6-7.6-3.1-5.8-3.4-7.7-.6-3.4 1.1 1.6 2 2.4 2 1.7s.4-1.1.9-.7c1.4.8 2.3-3.1 1.6-6.6-.4-1.9-1.5-3.3-2.6-3.6-2.4-.7-1.5-2.3 1.2-2.3 1.1 0 1.8.4 1.5.9-.9 1.3.4 4.2 1.6 3.5.5-.3.7-1.2.5-1.8-.3-.7.4-1.8 1.5-2.5 2.4-1.5 4.8.1 4.8 3 0 1.1.5 1.9 1 1.9.7 0 .7.6 0 1.9-1.1 2.2-1.4 9.4-.3 10.4.3.4 1.2.2 1.9-.4.9-.7 1.1-3.9.7-12.2-.3-6.2-.3-11 0-10.7.7.7 1.8 11.3 1.8 16.5l-.1 4 1.4-3c.7-1.7 2.6-4.5 4.2-6.4s3.7-5.5 4.6-8c1.5-3.9 1.7-4.1 1.2-1.2-.6 3-.4 3.3 1.2 2.7 1.5-.6 1.4-.2-.5 1.8-1.5 1.6-1.9 2.6-1.2 2.6 1.1 0 1.1.3.1 1.5-1.5 1.8.1 2 1.9.2 1.1-1 1.2-.9.6.2-1.1 1.9 1.4 3.1 4.3 2 3.8-1.5 3.9-.2.1 1.6-3 1.3-3 1.4-.7 1 1.5-.3 2.9-.1 3.2.4.3.4 1.8 1.1 3.3 1.4 4 .8 8.7 2.7 8.1 3.2-.3.3-3.1-.4-6.4-1.6-8.2-2.9-18.1-1.7-15.2 1.9 1.2 1.4 1 1.4-1 .3-1.9-1-2.8-1-4.7.3-3.6 2.4-6.5 5.8-5.8 6.9.3.5-.3.6-1.5.3-1.1-.4-2.3-.2-2.8.5-.5.8.2 1 2.6.7 2-.3 4.7.2 7.1 1.4 6 2.9 9.3 4.1 10.3 3.9 1.7-.4 4.3 1 4.3 2.2 0 1-1.3.9-5.5-.5-3-1-6.3-1.8-7.3-1.8s-3.3-.9-5.1-2c-4.9-2.8-10.1-1.8-12.8 2.5-1.2 2-5.2 5.2-9.8 8l-7.7 4.6 6.7-.4c4.7-.3 8-1.2 11.2-3 2.5-1.4 4.6-2.1 4.6-1.6s-2.1 2-4.7 3.3c-4 2.1-4.4 2.5-2.3 2.6 2.4 0 8.3-1.9 16.3-5.4 5.4-2.4 4.5-1.2-1.9 2.4-3 1.8-5.4 3.4-5.2 3.5.2.2 1.5.6 2.8.9 1.4.2 4.2 1.2 6.3 2.1l3.8 1.6 5.6-5c7-6.3 8.3-5.9 1.8.5-5.5 5.3-4.9 6.7 2.4 5.7 3.2-.4 4.2-.3 3.7.5-.4.7-1.6 1.2-2.8 1.2-1.4 0-1.8.5-1.4 1.6.5 1.2.2 1.5-1 1-.8-.3-2.5 0-3.6.8-1.9 1.3-1.8 1.6 2.9 6 2.6 2.5 5.1 4.6 5.5 4.6.5 0 .8.5.8 1.1s-1.8-.5-3.9-2.4c-8.5-7.7-10.8-8-17.1-2.5-2.1 1.8-2.7 2.8-1.5 2.3 1.1-.4 3.1-.9 4.5-1.1 1.7-.2 1.9-.1.5.2-3.8 1.2-6.5 3.6-6.5 6 0 2.6 1 3 2.8 1.2.6-.6 1.4-.9 1.8-.6.3.4-1.3 1.6-3.6 2.8-3.3 1.7-3.9 2.4-3 3.5 1.4 1.7-.7 2.6-3.2 1.4-1-.6-2.8-.5-4.5.2-1.5.6-4 1.1-5.5 1.1-1.8 0-2.8.6-3.3 2.1-.7 2.1-.7 2.1-1.2.2-1.4-5.5-2.3-3.2-2.1 5.3.2 6.5.7 9.2 1.6 9.2.6 0 1.3-1.2 1.3-2.8.2-2.6.2-2.6.6-.2.2 1.4 1.2 3.1 2.1 3.8s1.1 1.2.4 1.2c-1.5 0-1.6 2.7-.1 3.6 1.1.6 2.6-1 2.8-2.9 0-.4 1.3-1.8 2.8-3.1 2.5-2.1 2.6-2.5 1.3-4.2-1.4-1.8-1.4-1.8.4-.4 1.6 1.3 2 1.2 3.2-.5 1.3-1.7 1.9-5.2 1.5-8.4-.2-.8.2-1 .9-.6.8.5 1 2.2.7 4.7l-.5 4 3.1-2.8c1.7-1.6-.4.9-4.6 5.5s-7.7 8.9-7.7 9.4c0 .6.3.7.7.4.3-.4 1.1-.3 1.7.2.7.6 2.7.3 5.1-.5 2.2-.8 9.2-1.9 15.5-2.5 6.3-.5 11.7-1.4 12-1.8.9-1.5 9.1-5 10.5-4.5 1.7.7 8.5-2.2 8.5-3.5 0-.6-.5-1.1-1.1-1.1-.5 0-.7-.5-.4-1 .5-.8 1.1-.7 2.1.1 1.2 1 1.6.9 2-.8.4-1.4 1.2-1.9 2.7-1.6 3.2.6 8.3-5.2 8.9-10 .2-2-.1-3.9-.7-4.1-.6-.3-.5-.5.3-.5.6-.1 1.2-.8 1.2-1.6s.5-1.5 1.1-1.5c.5 0 .7.5.4 1s.1 1 1.1 1c1.4 0 1.5-.6 1-3.5-.3-1.9-.8-5.2-1.1-7.2-.4-3.4-.3-3.3 1.1 1.2.9 2.7 2.1 6 2.6 7.2.6 1.1.7 2.6.4 3.2-.4.6 0 1.1.8 1.1.9 0 1.6-.7 1.6-1.5 0-1.9 2.9-6.5 4-6.5.5 0 .6 1 .4 2.2l-.5 2.3 1.2-2.3c1-1.8.9-3.4-.4-8.2-1-3.5-1.6-9.2-1.6-13.7l.2-7.8.7 6.7c.9 7.5 3.7 16.8 5 16.8 1.5 0 5.8-16.2 6.5-24.5.3-4.4 1.1-8.5 1.6-9 .7-.7.9-.2.5 1.5-.2 1.4-.7 5.1-1.1 8.3-1 10.1 1.6 5.2 4.4-8.3 1.3-6.4 1.3-1.5 0 5.6-1.3 7.4-5.8 19.5-10.9 29.7-2.1 4.2-3.5 7.7-3 7.7 1.6 0 6-4.2 6-5.9 0-1 .7-1.8 1.5-1.8s1.5.9 1.5 2.1c.1 2 .1 2 1.5.2.8-1 2.1-1.6 2.9-1.3s2.7-.6 4.3-2c1.5-1.4 2.4-2.3 1.8-2-.5.3-1.1-.7-1.2-2.1-.1-2.6-.1-2.6 1.3-.7 1.3 1.7 1.6 1.8 2.4.5.5-.8 1.6-2.4 2.5-3.5 1.6-1.9 1.6-1.8.1.7-2.3 3.9-2.1 5 .9 3.6 1.4-.6 2.5-1.4 2.5-1.7.1-1.8 1.9-3.1 3.4-2.5 1.6.6 1.5.9-.5 3-1.2 1.3-2.1 2.6-1.8 2.8.8.7 5.4 1.8 4.7 1.1-.7-.8 3.3-4.5 4.8-4.5.4 0 1.5-.7 2.4-1.5 1-.9 2.7-1.7 3.8-2 2.8-.5 7.3-3.5 6.7-4.5-.3-.4.2-1 1-1.4.8-.3 1.5-.1 1.5.3 0 1.2-5.9 6.8-6.3 6.1-.2-.3-1.1.1-2 .8-.9.8-2.2 1.1-2.9.7s-.4.1.7 1c2 1.7 2 1.7-.4 1-1.8-.5-2.2-.4-1.6.5.5.8.4 1.1-.3.6-.6-.4-2.3.4-3.8 1.6-3.4 3-8.5 10.4-7.7 11.2.9.9 2.5.7 1.9-.2-.3-.5.1-.9.9-.9 2 0 1.9.7-.3 2.3-2 1.5-3.6 1.8-2.8.5.3-.5-.2-1.2-1.1-1.5-1-.4-1.4-.4-1 0 .4.5-.3 1.4-1.5 2.1l-2.3 1.4 2.4-.7c1.5-.4 2.1-.2 1.7.4-.3.6-2 1.3-3.6 1.7-3.3.7-12.8 6.5-12.9 7.8-.1.5.5.5 1.2.1.6-.4.4.2-.5 1.3-2.6 2.9-2.2 3.8.8 1.9 2.4-1.6 2.5-1.6 2.2.1-.2.9-2.3 2.7-4.8 3.9-4.4 2.1-11.4 8.4-9.3 8.4.5 0 3.4-.8 6.4-1.8 3-1.1 6.8-2.2 8.4-2.5 2.6-.6 2.5-.5-1 1.3-2.2 1.1-5 3.2-6.3 4.5-1.3 1.4-2.6 2.5-3 2.5-11.5.8-16.4 1.8-15.9 3.3.3.7 1 1.1 1.8.9.7-.2 4.9-.5 9.3-.6 4.5-.2 6.5-.2 4.6.1-1.9.2-6 .8-9 1.4s-7.6 1-10.2.9c-5.9-.1-14.9 2.1-25.9 6.5-4.8 1.9-9.1 3.5-9.7 3.5-3.6 0-16.7 5.7-24 10.5-4.8 3.2-10.2 6.7-11.9 7.9-2.7 1.7-3.3 2.7-3.3 5.8 0 2.9-.7 4.2-3.2 6.4-1.8 1.5-4.1 4-5.1 5.6-.9 1.6-2.6 3.2-3.6 3.6s-3.5 2.7-5.5 5.2c-8.7 10.9-9.1 11.2-10.1 8-.3-1.1-1.3-2-2.2-2-1.8 0-11.2 6-13.2 8.4-.7.8-2.9 2-4.8 2.7-2 .6-5.1 2.2-7.1 3.5-1.9 1.3-4.3 2.4-5.3 2.4-1.2 0-2.1 1-2.5 2.6-.9 3.4.2 16.3 1.7 20 .6 1.6 1.2 5.4 1.4 8.4.3 3 .7 8.1 1.1 11.2l.6 5.8H512V0H0zm47-24.1c0 1.3-2.4 7-3.5 8.3-.1.1-1 0-1.9-.4-2.3-.9-2-4.3.6-7.1 2.5-2.6 4.8-3 4.8-.8m404.7 6.1c-.3.3-1.2.4-1.9.1-.8-.3-.5-.6.6-.6 1.1-.1 1.7.2 1.3.5M266.5 80c-1 1.1-2.2 1.7-2.8 1.3s-.3-1.2.8-2c2.8-2 4.1-1.6 2 .7m51.3 15c2.4 3.6 2.6 7 .5 7.7-.7.3-2-1.2-3-3.1-.9-2-2-3.6-2.3-3.6-.4 0-.5-1.1-.2-2.5.6-3.2 2.1-2.8 5 1.5m-14.8 7.2c0 1.8-.2 2-.9.8-.6-.8-.7-1.8-.5-2.2.9-1.4 1.4-.9 1.4 1.4m7-.3c0 .5-.9 1.9-2 3.2l-2 2.4 1.7-3.2c1.9-3.4 2.3-3.9 2.3-2.4m-8.1 7.5c-.9.8-1 .7-.5-.7.3-1 .7-2.4.7-3 .1-.7.3-.4.6.7.3 1-.1 2.3-.8 3m4.1 9c0 .2-.8 1-1.7 1.7-1.6 1.3-1.7 1.2-.4-.4s2.1-2.1 2.1-1.3m24 .6c-.8.5-1.9 1-2.5 1-.5 0-.3-.5.5-1s2-1 2.5-1c.6 0 .3.5-.5 1m-6 2c-.8.5-1.9 1-2.5 1-.5 0-.3-.5.5-1s2-1 2.5-1c.6 0 .3.5-.5 1m10-.7c0 .2-1 1.2-2.2 2.3l-2.3 1.9 1.9-2.3c1.8-2.1 2.6-2.7 2.6-1.9m15.4 3.2c-.4 1.1.1 1.5 1.7 1.6 1.8.1 2 .2.6.6-1 .3-2.5.2-3.4-.1-1.2-.5-1.3-.9-.3-2.1 1.6-1.9 2.1-1.9 1.4 0m-3.9 2.5c-.3.5-1.4 1-2.3.9-1.4 0-1.3-.2.3-.9 2.7-1.1 2.7-1.1 2 0m-42.8.6c-.3.3-1.2.4-1.9.1-.8-.3-.5-.6.6-.6 1.1-.1 1.7.2 1.3.5m24.6 9.1c-1.3.2-3.3.2-4.5 0-1.3-.2-.3-.4 2.2-.4s3.5.2 2.3.4m97.7-.3c0 .3-.4.8-1 1.1-.5.3-1 .1-1-.4 0-.6.5-1.1 1-1.1.6 0 1 .2 1 .4m-162.2 4.5c-.7 1.1-1.6 1.8-2 1.5s-.2-1.1.5-1.9c1.8-2.1 2.9-1.8 1.5.4m67.2 8.6c-4.6 1.8-6.1 1.8-3 0 1.4-.8 3.4-1.4 4.5-1.4 1.3 0 .8.5-1.5 1.4m-7.5 2.5c-2.7 1.2-4.3 1.2-2.5 0 .8-.5 2.2-.9 3-.9 1 0 .8.3-.5.9m11.8 2.7c-.7.2-1.9.2-2.5 0-.7-.3-.2-.5 1.2-.5s1.9.2 1.3.5m-43.6 4.5c-.3.8-.6.5-.6-.6-.1-1.1.2-1.7.5-1.3.3.3.4 1.2.1 1.9m-4 11c-.3.7-.5.2-.5-1.2s.2-1.9.5-1.3c.2.7.2 1.9 0 2.5m45.8 3.6c-.3.3-1.1 0-1.8-.7-.9-1-.8-1.1.6-.5 1 .3 1.5.9 1.2 1.2m2.8 26.9c-.7.2-2.1.2-3 0-1-.3-.4-.5 1.2-.5 1.7 0 2.4.2 1.8.5m97.7-.3c0 .2-.8 1-1.7 1.7-1.6 1.3-1.7 1.2-.4-.4s2.1-2.1 2.1-1.3M331.5 203c-1.1.5-2.7.9-3.5.9-.9 0-.8-.4.5-.9 1.1-.5 2.7-.9 3.5-.9.9 0 .8.4-.5.9m87.4 10c-2.7 2.2-2.2 2.5 1.5 1 1.6-.6 2.7-.6 3.1 0s-.2 1-1.2 1c-1 .1-3.5.7-5.5 1.4-2.1.8-3.8 1-3.8.6 0-1.1 5.9-6 7.2-6 .6 0 0 .9-1.3 2m13.1-1c-.8.5-1.9 1-2.5 1-.5 0-.3-.5.5-1s2-1 2.5-1c.6 0 .3.5-.5 1m79 2.2c0 1.6-.3 1.9-1.1 1.1-.6-.6-.8-1.6-.5-2.2 1.1-1.7 1.6-1.3 1.6 1.1M357 222c0 1.1-.4 2-.9 2-1.4 0-2.3-1.8-1.6-3 1-1.7 2.5-1.1 2.5 1m50 4.5c0 .2-1.7.9-3.7 1.6-2.1.7-5.4 2.4-7.3 3.8-2.4 1.8-3 2-2 .7 1.4-1.8 1.3-1.8-1-1.2-2.1.6-2.2.5-.7-.4.9-.6 2.7-1.3 3.8-1.5 1.2-.2 2.7-.9 3.3-1.5.7-.5 1.6-.7 1.9-.3.4.3.7.1.7-.5s.7-.9 1.7-.5c1.1.4 1.4.3.9-.5s-.2-1 .8-.6c.9.3 1.6.8 1.6.9m12.1 3.7q1.2 4.8-3.9 1.2c-3.2-2.2-2.9-4.6.5-4.2 1.9.2 2.9 1 3.4 3m-107.1-.9c0 .2-1 1.2-2.2 2.3l-2.3 1.9 1.9-2.3c1.8-2.1 2.6-2.7 2.6-1.9m-25.5 3.7c-.3.5-1.4 1-2.3 1-1.5 0-1.5-.2-.2-1 2-1.3 3.3-1.3 2.5 0m4.8-.3c-.7.2-1.9.2-2.5 0-.7-.3-.2-.5 1.2-.5s1.9.2 1.3.5"/><path d="M281.9 129.2c-.6 2-.6 3.8.1 3.8 1.2 0 3.1-2.6 2.3-3.3-.6-.7-2.2-1-2.4-.5m8.4.8c-2.8 1.1-3 1.9-.3 1.7 1.1-.1 2.2-.7 2.4-1.4.3-.7.4-1.3.3-1.2-.1 0-1.2.4-2.4.9m-14.9 6.1c-.9 1-1.5 2.1-1.2 2.4.8.8 5.8-1.3 5.8-2.4 0-1.9-2.9-1.9-4.6 0m-4.8 6.3c-5.6 3-8.2 5.6-5.6 5.6 1 0 12-7.8 12-8.6 0-.5.3-.7-6.4 3m4.2 3.5-3.3 3 2.8.1c2.1 0 3-.6 3.8-2.6 1.4-3.8.5-4-3.3-.5m-14.9 3.7c-1.3 1.4-1.7 2.3-.9 1.9 1.3-.5 4.6-4.5 3.7-4.5-.2 0-1.4 1.1-2.8 2.6m8 3c-1.3 1.4-4.1 3.5-6.2 4.6-5 2.5-4.3 3.1 2.1 1.7 5.8-1.2 11.5-4.6 12-7.2.6-2.8-5-2.2-7.9.9m28.1-.1c0 .8.2 1.5.4 1.5s.6-.7 1-1.5c.3-.8.1-1.5-.4-1.5-.6 0-1 .7-1 1.5m3.2.5c0 1.4.2 1.9.5 1.2.2-.6.2-1.8 0-2.5-.3-.6-.5-.1-.5 1.3m-.6 4.3c.3 1 .9 1.5 1.2 1.2s0-1.1-.7-1.8c-1-.9-1.1-.8-.5.6m12 2.4-1.8 3.8 3.1-2.9c3.3-3.2 3.9-4.6 1.8-4.6-.7 0-2.1 1.7-3.1 3.7m6-2c-.9 2.3.2 2.9 2 1.1 1.4-1.3 1.4-1.6.1-2.1-.9-.3-1.8.1-2.1 1m-21.7 2c-1.3 1.6-1.2 1.7.4.4s2.1-2.1 1.3-2.1c-.2 0-1 .8-1.7 1.7m-45.4 1.3c-.3.5-.2 1 .4 1 .5 0 1.3-.5 1.6-1 .3-.6.2-1-.4-1-.5 0-1.3.4-1.6 1m48.1 2.2c-1 4.6-.5 7 1.1 6 .9-.6 1-2 .4-5.2l-.8-4.5zm-47.5 1.6c-.1 1.6-.6 2.2-1.8 2-2-.3-4.3.9-4.3 2.1s4.8.1 6.1-1.5c.6-.7.9-2.1.6-3.1-.4-1.4-.5-1.3-.6.5m42.9 3c0 3 .8 4.5 2 3.7.9-.6 0-6.5-1.1-6.5-.5 0-.9 1.3-.9 2.8m-46 3.1c-.8.6-1.8.7-2.4.4-.5-.3-.6-.1-.3.5.8 1.2 4.7.4 4.7-.9 0-1.1-.1-1.1-2 0m22 22.7c0 1.3 1.7 2.7 5.3 4.4 6 2.9 8.6 7 8.9 14.3.2 3.6.5 4.4 1.5 3.5.7-.6 1.2-1.7 1.1-2.6-.2-.8.3-1.7 1-1.9.7-.3 1.2.4 1.2 1.9 0 1.8.2 2 1 .8.5-.8 1-1.1 1-.6s.6.3 1.3-.3c.8-.6 1.6-.8 1.9-.5.7.6 7.8-2.7 7.8-3.8 0-.4.6-.5 1.4-.2 2.1.8 3.8-4.5 2.8-9.1-.8-3.9-.9-4-5.2-4.3-11.8-.8-24.8-2.1-27.7-2.7-2.8-.6-3.3-.5-3.3 1.1m32.4 11.9c-.4.8-.8 1.5-1 1.5s-.4-.7-.4-1.5.4-1.5 1-1.5c.5 0 .7.7.4 1.5m6.5-9.2c0 .1-.3 2.6-.6 5.4l-.4 5.3 2.7-1.5c1.5-.8 3.2-1.1 3.8-.8s-.2-.8-1.9-2.6c-2.3-2.4-2.7-3.4-1.6-4 1-.7.9-.9-.3-1.4-.9-.4-1.6-.5-1.7-.4"/><path d="M312.9 201.4c2 2.1 2.7 2.3 4.8 1.3 2.3-1 2.4-1.2.7-2.4-1-.7-3.1-1.3-4.8-1.3h-2.9zm86.4 8.3c-1.8.9-3.3 2-3.3 2.5 0 1.3 1.7.9 3-.7.7-.8 1.8-1.5 2.6-1.5.7 0 1.6-.5 1.9-1 .9-1.4-.4-1.2-4.2.7m7.1 1.1c-1.3.8-1.5 4.4-.2 3.6.5-.3.6-1 .2-1.5-.3-.6 0-.9.7-.7.8.1 1.5-.1 1.7-.7.4-1.2-1-1.7-2.4-.7m-10.9 4.2c-7.2 4.6-9.9 6.9-9 7.8.4.4 1.2 0 1.8-.8.7-.8 3.7-2.8 6.7-4.4 6.4-3.4 8-4.5 8-5.7 0-1.5-1.2-1-7.5 3.1m-96.7 1.7c-1.4 1.6-3.1 3.8-3.8 5.1-1.1 2.2-1 2.3.9 1.3 1.1-.6 2.3-1.5 2.6-2.1.3-.5 1.2-.7 1.9-.4.8.3 1.6-.4 2-1.8 1.4-5.5.3-6.2-3.6-2.1m-4.3-.7c-1.1.5-3.2 1.1-4.6 1.4s-3.9 1.6-5.5 2.8l-2.8 2.3 2.9.6c6.2 1.3 7.1 1 10.4-3.6s3.2-5.1-.4-3.5m102.9 2.1c-1.9 2.1-1.9 2.1.6 1.8 1.4-.2 2.6-1.2 2.8-2.2.5-2.3-1.1-2.2-3.4.4m-35.4 2.6c0 1-.3 2.8-.6 3.9-.3 1.3 0 2.3.8 2.6 1 .4 1.4-.5 1.4-3.8 0-2.4-.4-4.4-.8-4.4s-.8.8-.8 1.7m14.3 1.1c-2.3 1.5-4.2 3-4.3 3.5 0 1 7.7-2.9 8.5-4.4q1.95-3-4.2.9M391 223c-1.2.8-1.2 1 .5 1 1.1 0 2.7-.5 3.5-1 1.2-.8 1.2-1-.5-1-1.1 0-2.7.5-3.5 1m-32.9 8.5c-1.3 1.4-3.4 2.8-4.7 3.1s-2.4 1-2.4 1.5c0 1.4 1.5 1.1 4.1-.9 1.3-1 3.2-2.1 4.2-2.5.9-.3 1.7-1.3 1.7-2.2 0-1.9-.1-1.9-2.9 1m18.6 1.4c-3.9 2.1-4.4 2.7-2.7 2.9 2.1.3 2.1.4.4 2.3-.9 1-1.2 1.9-.7 1.9 1.1 0 2.7-2.9 2.5-4.3-.1-.4.4-.7 1.1-.7 1.2 0 5.2-3.9 4.5-4.4-.2-.2-2.5.9-5.1 2.3m-10.2 7.1c-.3.5.1 1 .9 1s1.8-.5 2.1-1c.3-.6-.1-1-.9-1s-1.8.4-2.1 1m12.3.7c.7.3 1.6.2 1.9-.1.4-.3-.2-.6-1.3-.5-1.1 0-1.4.3-.6.6m-95.5 7.4c.8 2.1 1.3 2.6 1.5 1.4.5-2.1-.5-4.5-1.7-4.5-.5 0-.4 1.3.2 3.1m45.2-2.1c-.3.5-.2 1 .4 1 .5 0 1.3-.5 1.6-1 .3-.6.2-1-.4-1-.5 0-1.3.4-1.6 1m51.5 2.6c-3.9 1.1-4.1 1.2-1.5 1.3 1.7 0 4.1-.6 5.5-1.4 3-1.7 2.1-1.7-4 .1m-42.7.5c-.7.7-5.4 1.3-10.5 1.5-10.7.5-14.8 1.9-22.8 7.9-3 2.2-7.5 4.9-10 5.9-7 2.8-7.4 3.1-8.1 6.2-.3 1.6-1.1 3.9-1.8 5.2-1 1.9-1 2.8.3 4.7l1.6 2.4 5.4-3.2c3-1.8 5.4-3.4 5.4-3.7-.1-1.9.4-2.3 1.2-1s1.4 1.1 3.7-1.3c2.3-2.2 2.5-2.9 1.4-3.6-.8-.6-2.4-.5-3.8 0-1.2.5-2.3.5-2.3 0 0-.4 1.5-1.2 3.3-1.8 12.4-4.1 25.3-9.5 27.5-11.5 1.4-1.3 2.2-1.7 1.8-1.1-.4.8-.1 1.3.8 1.3 1.7 0 9.6-6.7 9.6-8.1 0-1.2-1.4-1.1-2.7.2m32.5 1.6c.6.2 1.8.2 2.5 0 .6-.3.1-.5-1.3-.5s-1.9.2-1.2.5m-84.1 1.9c-.4.4-.7 1.4-.7 2.3 0 1.1.3 1.2 1.1.4.6-.6 1-1.6.7-2.3-.2-.6-.7-.8-1.1-.4m4.3 1.5c-1.7 3.1-.7 3.3 2 .4 1.9-2 2-2.5.7-2.5-.9 0-2.1.9-2.7 2.1m7.6-1.1c-1.6.5-3.8 1.8-5 2.8-1.1 1.1-3.1 2.3-4.3 2.7-1.3.3-2.3 1.3-2.3 2.1 0 2.9 11.9-1.6 15.9-6 2.2-2.4 2.3-2.6.5-2.5-1 0-3.2.5-4.8.9M23 342.1c-8.1 4.1-11.5 4.7-14.6 2.4-1-.8-3.4-1.5-5.1-1.5H0v41h28.7l-3.5-6.8c-2.9-5.8-3.3-7.5-3-12.2.5-6.3 2.6-11.2 8-18.4 4.3-5.8 4.5-6.2 2.1-7.5-1.3-.6-3.7.1-9.3 3m164.2 0c-1.2.5-3.6 2.4-5.3 4.4-3.6 4.1-7.9 4.6-11.9 1.5-1.9-1.4-2.8-1.6-3.8-.7-1 .8-1.6.7-2.2-.3-.7-1.1-1.1-1.1-2.4-.1-1.3 1.1-2 .9-4.6-.9-2.7-1.9-3.6-2-8.8-1.3-3.4.6-7 .5-8.5 0-1.8-.6-5.8-.3-11.9.7-5 .9-11.1 1.6-13.5 1.6s-6 .7-8 1.5c-1.9.8-5.5 1.5-7.9 1.5s-4.4.3-4.4.7c0 1.3 2.6 8.2 3.3 8.9 1.4 1.5.7 3.5-1.1 3-1.2-.4-2.1.2-3 2.3-1.1 2.6-1 3.9 1.3 11l2.6 8.1h40.4c39 0 40.4-.1 41-1.9.3-1.1 1.6-3.4 2.8-5.3 1.3-1.8 3.1-5.3 4.1-7.8 1.9-4.7 5.7-26.9 4.7-27.4-.3-.2-1.6 0-2.9.5"/></svg>