<svg xmlns="http://www.w3.org/2000/svg" width="682.667" height="512" version="1.0" viewBox="0 0 512 384"><path d="M87 .8c0 .5.9 1.7 2.1 2.8 1.7 1.5 3.7 1.9 10.5 1.9 8.5 0 10.1.8 7 3.5-2.1 1.6-3.8 10.7-3.6 18.7.1 3.7.1 9.4 0 12.6l-.1 5.9 4-.7 4.1-.7v3.5c0 1.8-.6 5.5-1.4 8-1.2 4-1.2 4.8 0 5.8 2.2 1.8 1.7 4.3-2.1 10.8-3 5-3.4 6.4-2.5 8.1.6 1.1.8 2.6.4 3.2-1.3 2.1-1.2 16.8.1 16.8.7 0 1.6 1.9 2.1 4.2s1.4 4.3 2.1 4.5c1.4.5 8.5-6.6 7.7-7.8-.3-.5-.2-.9.3-1 3.4-.3 5.1-1.1 7.1-3.4 1.2-1.4 2.2-2 2.2-1.4 0 .7 1.6-.2 3.5-2.1s3.5-3.9 3.5-4.5.7-2 1.6-3.1c1.5-1.9 1.5-1.8 1.1.3-.3 1.3-.2 2.3.3 2.3 1.5 0 2.8-2.5 4.4-8.5l1.6-6-.5 5c-.5 4.8-.5 4.9 1.1 2.7.9-1.2 2-2.2 2.4-2.2 1.3 0-.1 3.8-1.6 4.4-.8.3-1.4 1.2-1.4 2s-1.6 2.4-3.5 3.6c-4.3 2.7-4.6 3.6-.4 1.5 1.7-.9 3.3-1.4 3.6-1.1.6.6-7.4 4.5-9.3 4.6-.5 0-2.3 1.4-4 3.1-2.2 2.4-2.4 2.9-.8 2.1 1.1-.6 2.6-1.8 3.4-2.6.7-.9 1.7-1.6 2.3-1.6.7 0 .7.4-.1 1.2-2 2-1.4 2.8 2.6 2.9 3.3.1 3 .2-1.8 1-3 .5-5.9 1.4-6.5 2.1-.7.7-.3.9 1.5.5 1.4-.3 4.8-.9 7.5-1.3 7-.9 8.5-1.9 8.2-5.2-.1-1.5.3-2.7.8-2.7.6 0 .8 1.5.7 3.3l-.4 3.3 3.9-1.9c4.6-2.4 9.3-6.6 9.3-8.4 0-1.1.2-1.1.8 0 .7 1 1.5.8 3.8-.9 1.6-1.2.4.2-2.6 3s-7.2 6-9.2 7.1-4 2.4-4.3 3c-.4.6-1.6.8-2.8.5q-2.25-.6-.9.3c1.1.7 1 1-.3 1.6-2.3.8-2.7.8-2-.4.3-.6-.4-1-1.5-1-2.6 0-9.3 3-8.5 3.8.3.3 1.1 0 1.7-.6.7-.7 2.1-1.2 3.2-1.2 1.8 0 1.9.2.6 1.1-1.2.8-1.1.9.6.4 1.2-.3 3.3-.1 4.8.4 1.7.7 2.6.7 2.6.1s.9-1 2-1c1 0 2.4-.8 3-1.8.9-1.4 1-1.1.6 1.5l-.5 3.3h4.3c4 0 4.8-.4 8.6-4.8 2.3-2.6 3.9-4 3.5-3.2-.5.8-1.7 2.5-2.8 3.7-1.1 1.3-1.8 2.5-1.5 2.8s3.1-.1 6.4-1c3.2-.8 7.2-1.4 8.9-1.4 1.9.1 2.3.3 1 .6-7 1.4-7.1 1.5-5 2.3 1.1.4-2 1-8 1.4-13.7 1.1-13.9 1.1-15.3 2-.7.4-1.2.3-1.2-.3 0-.9-8.9-2.2-16.7-2.5-1.8-.1-3.5-.5-3.9-.9-1.3-1.3-5.1-.7-6.5 1-1.3 1.5-1.1 1.6 1.4 1.1 4.6-.9 1.7.8-4.8 2.6-5.5 1.7-9.5 4.5-9.5 6.7 0 1.8 3.1.9 5.6-1.6q4.5-4.5 2.4-.6c-.8 1.7-.6 2 2.1 2.6 1.7.4 3.3.4 3.6.1.4-.3-.2-.6-1.3-.7-1.8 0-1.8-.1.1-.9 4.1-1.8 4.6-1.1 2.3 3-2 3.5-2.1 4.2-.8 5 2.2 1.4 2.7 1.2 3.3-1 .3-1 0-2.1-.7-2.4s-.6-.8.4-1.5c1.9-1.3 2.9.2 2.2 3.5-.2 1.4 0 2.4.7 2.4s1 .4.7.9.2 1.1 1.2 1.3c1.4.4 1.8-.1 1.7-1.9 0-1.3-.7-2.8-1.5-3.3-1.2-.8-1.2-1 .3-1.6 1.7-.6 1.7-.8-.2-2.5-1.1-1.1-2.5-1.9-3.1-1.9-.5 0-1-.5-1-1 0-.6 1.5-1 3.4-1s3.7-.6 3.9-1.3c.4-.8.6-.8.6.2.1.8 1.1 2.5 2.2 3.8 1.7 1.7 1.9 2.3.8 2.7-4.9 1.5-4.8 1.4-4.2 5.3.5 3.4 1.7 5.2 3.3 5.3.3 0 2-1.3 3.7-2.9 1.8-1.6 3.4-2.6 3.7-2.3s.6 0 .6-.7.5-.9 1-.6c.6.4.8 1 .5 1.4-.2.5.8.6 2.3.3l2.7-.5-2.5 2.1c-2.3 1.9-2.3 2.1-.7 2.8 1 .3 4.5.1 7.8-.6s6.2-1 6.6-.6c.3.3-.5.6-1.8.7-1.3 0-4 .6-5.9 1.3l-3.4 1.3 4.7 2.7c5.3 3.2 6.4 4.5 1.5 2-3.2-1.7-10.5-2.7-12-1.8-.5.3 1.1 2.1 3.4 4.1 5 4.1 10.7 10.1 12.7 13.5 7 11 11.1 23.6 11.1 33.2-.1 6.7-2.2 16.5-4.7 21.3-1.1 2.1-1.8 4.4-1.5 5.1.2.7-.2 1.1-.9 1-.8-.2-1.5.8-1.7 2.1-.6 3.9 3.7 5.4 7.4 2.6 1.8-1.4 1.7-1.4-.9-.5-5 1.8-4.4 1 1.2-1.5 2.9-1.4 5.7-2.3 6.1-2 .5.3 1.2 0 1.6-.6.5-.8.3-.9-.6-.4-.8.5-1.1.4-.6-.3.3-.6 2-1.3 3.6-1.7 1.7-.4 3-1.1 3-1.6 0-.6.5-.7 1-.4.8.5.7 1.1-.1 2.1s-.8 1.4 0 1.4c.6 0 1.1-.5 1.1-1 0-.6 1.1-1.5 2.4-2 2.2-.8 2.3-1.2 1.5-4.7-1.2-5.3-1-6.3.6-2.8.9 1.9 1.4 2.4 1.5 1.2 0-.9.4-1.7.8-1.7 1.4 0 4.2-6.9 4.2-10.5 0-1.9.4-3.5 1-3.5.5 0 .9 1 .7 2.2-.2 1.9.3 2.3 2.3 2.1 2.4-.2 2.4-.2.3.9-2.1 1-3.2 3.9-2.5 7.1.2.9.8 1.5 1.3 1.1.5-.3.7-.9.4-1.3-.2-.5.7-1.9 2.2-3.2l2.6-2.4-.6 3.5c-.6 3.2-.6 3.4.8 1.6.8-1.1 1.6-3 1.6-4.3.1-1.3.2-3.1.3-4.1 0-1-.6-1.6-1.7-1.6-1.2.1-1.5-.2-.9-1 .5-.6 1.3-4.3 1.7-8.1l.8-7 .8 4.5c.4 2.5 1 7.2 1.4 10.4l.7 5.9 2.4-2.9c1.3-1.6 2.3-3.4 2.4-3.9 0-.6 1-2.6 2.3-4.5s3.1-6.3 4.1-9.7c1.2-3.9 2.3-6 3.1-5.7s1.7-1.3 2.5-4.2c.8-2.7 1.5-4.3 1.7-3.7.7 1.9-3.7 13.5-7.9 21.2-2.9 5.4-3.8 8-3.3 9.9l.6 2.6 2-3c1-1.6 1.9-2.5 1.9-2 0 .4-1.3 2.8-2.9 5.1l-2.9 4.4 4-1.5c4.8-1.7 6.1-1.8 5.3-.4-.3.6-.1 1 .4 1 .6 0 1.1-.4 1.1-.9s1.3-1.1 2.9-1.4c1.8-.4 3.6-1.7 4.6-3.4.9-1.5 1.4-2 1.1-1.1-.7 2.2.3 2.3 3.2.2 1.2-.8 2.2-1.1 2.2-.7 0 .5-.9 1.5-1.9 2.3-1.1.7-1.8 1.7-1.5 2.2.3.4-.1.5-.9.2s-1.8 0-2.3.7c-.5.8-.3 1 .6.4.7-.4.2.6-1.1 2.4-1.8 2.4-2 3.4-1.1 4.3 1 1 1.9.4 4.2-2.4 3.4-4.1 10.6-8.9 9.7-6.4-.4 1-.1 1.3.8.9.8-.3 1.2-.9.9-1.4s-.1-.9.5-.9c.5 0 1.2.4 1.5.9.7 1.1-4 3.2-5.7 2.6-.7-.3-2.8 1.1-4.7 3.1-2.5 2.6-2.9 3.3-1.3 2.5 1.2-.6 2.5-1.1 3-1.1.8 0-4 3.1-11.2 7.1-2.9 1.6-3.5 2.4-2.3 2.7.9.2 2.6-.2 3.7-.7 2.4-1.3 3.4-1.4 2.6-.2-.3.5-3.1 1.5-6.3 2.1-3.1.7-7 1.9-8.7 2.7-5.6 2.9-20.6 14.3-18.8 14.3.4 0-.3 1-1.7 2.1-2.5 2-2.4 2 1.8-.1 4.2-2 5.7-3.5 2.5-2.3-1.4.5-1.6.3-.6-.7.6-.7 2.6-1.3 4.2-1.4 1.7-.1 3.1-.4 3.1-.9 0-.4 1-.7 2.3-.7 1.2 0 3.9-.9 6-2 2-1.1 3.7-1.6 3.7-1 0 .5-1.9 1.8-4.3 2.8-2.4 1.1-6.3 3.3-8.7 5.1l-4.3 3.1h3.2c1.8 0 4.4-.6 5.9-1.4 1.7-.8 3.5-1 4.7-.5 2 .7 2 .8-.1.8-1.2.1-4.1 1.2-6.5 2.5-2.5 1.3-7.2 2.6-10.4 3-11.9 1.4-14.5 1.8-14.5 2.7 0 .5 3.5.9 7.8 1 5.2 0 7 .3 5.7.9-1.1.5-5.6.6-10 .3-7.2-.5-15.9.6-25.7 3.4-1.5.4-1.8 1.7-1.8 8.4s.5 9.3 3.6 17.2c2 5 4.1 9.8 4.6 10.4 1.6 2-.6 1.6-3.5-.7-1.4-1.1-2.8-2-3.2-2s-.5 4.6-.1 10.3c.4 5.6.3 11.3-.1 12.5-.8 2.1-1.1 1.8-2.7-2.7-1.2-3.3-2.5-5.3-3.9-5.7-1.2-.4-2.4-.6-2.6-.5-.2.2-.7-.3-1.2-1-.4-.8-1.1-1-1.4-.7-1.1 1.1.5 2.8 2.6 2.8 2.4 0 2.4.8 0 3.4-1.1 1.2-2.6 3.9-3.3 6.2-1.3 3.5-1.2 4.3 0 6.2 2.4 3.7.9 5.5-4 4.7l-4.2-.7 3.3 3.7c6.1 6.9 8.3 15.2 9.6 35.5.8 12.4 1.3 14.3 3.4 13.5.9-.4 2.1-.8 2.6-.9.6-.1 1.6-.5 2.3-1 2.1-1.3 2.6.1.9 2.7-1.3 2-4.7 12.9-4.7 15.1 0 .3 78.5.6 174.5.6H512v-84.5c0-96 .9-87.8-8.7-80.5-6.6 4.9-13 8.3-13.8 7.1-1-1.7 7.9-8.1 15.2-10.9l7.3-2.7V0H378.6C263.1 0 245.1.2 244.7 1.4c-.3.8-2 2.2-3.6 3.1-2.6 1.3-3.1 1.3-3.1.2 0-.8 1.5-2.2 3.3-3.1 3-1.4-2.6-1.6-75.5-1.6C122.4 0 87 .4 87 .8m244 11.8c0 .8-.4 1.2-1 .9-.5-.3-1-1-1-1.6 0-.5.5-.9 1-.9.6 0 1 .7 1 1.6m62 5.4c1 .5 3 3 4.4 5.4 5.2 8.8-.2 15.2-5.9 6.9-2.4-3.6-3.2-8.4-1.9-11.7.7-1.9.9-1.9 3.4-.6m86 20.5c-.7.9-1.5 1.3-1.7 1.1-.7-.7.7-2.6 1.9-2.6.6 0 .6.6-.2 1.5M143.7 70.7c-.3 1-.5.4-.5-1.2 0-1.7.2-2.4.5-1.8.2.7.2 2.1 0 3M152 74c-.6 1.1-1.3 2-1.6 2-.2 0 0-.9.6-2s1.3-2 1.6-2c.2 0 0 .9-.6 2m-2.8 8.2c-.5.7-1.3 3.2-1.7 5.5-.5 3.4-.9 4-2 3-.7-.7-.9-1.4-.5-1.7s1-1.8 1.4-3.5c.4-1.6 1.3-3.3 1.9-3.7 1.8-1.1 2.1-1 .9.4m-24.5 6c-.3.8-.6.5-.6-.6-.1-1.1.2-1.7.5-1.3.3.3.4 1.2.1 1.9m1 5c-.3.8-.6.5-.6-.6-.1-1.1.2-1.7.5-1.3.3.3.4 1.2.1 1.9m383.9 2.5c-1 1-1.9-.5-1-1.8.6-1.1.8-1.1 1.2 0 .2.7.1 1.5-.2 1.8m-340.3 1c-.7.2-2.1.2-3 0-1-.3-.4-.5 1.2-.5 1.7 0 2.4.2 1.8.5m-7.6.9c-.3.3-1.2.4-1.9.1-.8-.3-.5-.6.6-.6 1.1-.1 1.7.2 1.3.5M116 98.9c0 .5-1.5 1.1-3.3 1.3-1.9.2-3.4-.1-3.4-.7 0-.5 1.5-1.1 3.4-1.2 1.8-.2 3.3.1 3.3.6m70.6 5.6c-.8.8-2 1.5-2.7 1.5s-.4-.6.7-1.5c2.5-1.9 4-1.9 2 0m-19.3 9.2c-1.3.2-3.5.2-5 0-1.6-.2-.5-.4 2.2-.4 2.8 0 4 .2 2.8.4m16.2.3c.8 1.3-.5 1.3-2.5 0-1.3-.8-1.3-1 .2-1 .9 0 2 .4 2.3 1m-33.8 5.2c-.3.8-.6.5-.6-.6-.1-1.1.2-1.7.5-1.3.3.3.4 1.2.1 1.9m-1.6 4.5c-1.2 2-1.4 1.4-.5-1.2.4-.9.9-1.4 1.1-1.1.3.2 0 1.3-.6 2.3m-3 1c-1.2 2-1.4 1.4-.5-1.2.4-.9.9-1.4 1.1-1.1.3.2 0 1.3-.6 2.3m5.9.8c-.7.8-1.8 1.5-2.4 1.5s-.2-.7.8-1.5c2.5-1.9 3.2-1.9 1.6 0m12.9.9c-.2.2-2.9.6-5.9.9q-5.4.6-3-.3c2.5-.8 9.7-1.3 8.9-.6M445.5 153c-.3.5-1 1-1.6 1-.5 0-.9-.5-.9-1 0-.6.7-1 1.6-1 .8 0 1.2.4.9 1m-218.4 12.1c-.5 1.3-1 1.9-1 1.2-.1-1.5 1-4.5 1.5-4 .3.2 0 1.5-.5 2.8m33.4 24.9c-.2 3.1-2.9 5.3-5.4 4.5-1.1-.3-2.1-1.1-2.1-1.7 0-.5.6-.8 1.2-.6.7.3 2.4-.6 3.8-1.9s2.5-2.3 2.6-2.3c0 0 0 .9-.1 2m-79 7.7c-.5 1-.7 2.1-.7 2.5.1.5-.2.8-.8.8-1.2 0-1.2-.2 0-3.6.6-1.5 1.3-2.4 1.7-2.1.3.3.2 1.4-.2 2.4m273.5.2c0 1.1-.4 2.3-1 2.6-.6.4-1-.5-1-1.9s.5-2.6 1-2.6c.6 0 1 .9 1 1.9M189.5 201c-2.7 1.2-4.3 1.2-2.5 0 .8-.5 2.2-.9 3-.9 1 0 .8.3-.5.9m6 0c-.3.5-1.1 1-1.6 1-.6 0-.7-.5-.4-1 .3-.6 1.1-1 1.6-1 .6 0 .7.4.4 1m52.5-.6c0 .2-.7.7-1.6 1-.8.3-1.2.2-.9-.4.6-1 2.5-1.4 2.5-.6m-58 3c0 .2-.7.7-1.6 1-.8.3-1.2.2-.9-.4.6-1 2.5-1.4 2.5-.6m70.7.2c-.3.3-1.2.4-1.9.1-.8-.3-.5-.6.6-.6 1.1-.1 1.7.2 1.3.5m-75.3 2.5c-.8 1.4-3.4 1-3.4-.5 0-.9.7-1.2 2-.9 1.1.3 1.7.9 1.4 1.4m65.6-.7c-3 .7-6.5 1.8-7.7 2.4-3.1 1.7-4.2 1.5-1.6-.3 2.4-1.7 8.5-3.3 12.3-3.3 1.4 0 0 .6-3 1.2m-72.4 2.3c-1 1-1.9-.5-1-1.8.6-1.1.8-1.1 1.2 0 .2.7.1 1.5-.2 1.8m-.6 2.3c0 .5-.5 1-1.1 1-.5 0-.7-.5-.4-1 .3-.6.8-1 1.1-1 .2 0 .4.4.4 1m-2 2.1c1.3.9 1.2 1-.2.5-1.1-.3-1.9.2-2.3 1.3-.3.9-2.1 2.5-4 3.4-3 1.4-3.5 1.5-3.5.2 0-.8.3-1.4.8-1.4 2.7.4 4.4-.2 3.8-1.6-.3-.9 0-1.5.9-1.5.8 0 1.5-.5 1.5-1 0-1.3 1.1-1.2 3 .1m272.8 4.5c1.2.8 2.2 2.6 2.2 4 0 1.9-.5 2.4-2.6 2.4-2.8 0-8.9-5.4-7.9-7 .9-1.5 5.8-1.2 8.3.6m-220.4 3.9c-1 .8-2.3 1.4-2.9 1.4-.5 0-.1-.6.9-1.4 1.1-.8 2.4-1.5 3-1.5.5 0 .1.7-1 1.5M346 229c0 .5-.4 1-1 1-.5 0-1-.5-1-1 0-.6.5-1 1-1 .6 0 1 .4 1 1m-118.5 2c-.3.5-1.6 1-2.8.9-2.1 0-2.1-.1-.2-.9 2.8-1.2 3.7-1.2 3 0M481 280.9c.5 1.1 1 2.7 1 3.7 0 2.6-4.5 7.9-7.8 9.3-2.5 1.1-3.3.9-8-2.1-5.8-3.7-6.5-5.5-2.4-6.3 1.5-.3 5.2-1.9 8.2-3.5 6.5-3.5 7.6-3.6 9-1.1"/><path d="M120.5 105c-.3.6.1.7.9.4 1.8-.7 2.1-1.4.7-1.4-.6 0-1.3.4-1.6 1m28.8 2.7c-1.5.5-1.7 2.3-.4 2.3.5 0 1.1-.7 1.5-1.5.3-.8.4-1.5.3-1.4-.1 0-.8.3-1.4.6m-30.1 15.9c.3 1.7 2.1 2.1 2.6.6.1-.5-.4-1.2-1.3-1.6-1.1-.4-1.5-.1-1.3 1m-5.7.4c-1.7.7-1.5.9 1.3.9 1.7.1 3.2-.4 3.2-.9 0-1.2-1.7-1.2-4.5 0m28.1 8.9c-.4.7-.5 1.5-.2 1.8.9.9 1.9-.4 1.4-1.8-.4-1.1-.6-1.1-1.2 0m3.4 1.6c-1.3 1.6-.3 2 2.4.9.9-.3 1.3-1 1-1.5-.8-1.3-2-1.1-3.4.6m5.5 1.5c.3.5 1.4 1 2.3 1 1.5 0 1.5-.2.2-1-2-1.3-3.3-1.3-2.5 0m74.6 37.6c0 1.1.3 1.4.6.6.3-.7.2-1.6-.1-1.9-.3-.4-.6.2-.5 1.3m-8.7 21.2c-.4 1.2-.9 2.2-1.3 2.2s-1.5 1.4-2.6 3.2l-1.9 3.2 2.9-2.2c4.3-3.4 6-6.1 4.6-7.5-.9-.9-1.3-.6-1.7 1.1m14.1 4.2c-1.1.4-2.9.6-4.1.3-1.1-.2-3.6.2-5.5 1.1-3.8 1.6-1.5 2.2 2.6.6 1.7-.7 2.4-.7 2 0-.3.6 0 1 .8 1 2.4 0 7.7-2.1 7.7-3.1 0-1.1-.8-1.1-3.5.1"/><path d="M229 203.6c-1.9 1.6-2.9 2.1-2.2 1.3 1.1-1.4.9-1.8-1.3-2.3-2.9-.7-8.9 1.9-7.9 3.5.4.7.9.7 1.3.2.7-1.1 4.6-3.3 5.8-3.3.4 0-.5 1-2.2 2.1l-3 2.1 2.8-.6c1.9-.5 2.6-.3 2.2.4-.3.5-1.9 1-3.4 1-1.6 0-3.4.6-4 1.3-.9 1.1-.4 1.4 2.4 1.2 2-.1 3.9-.5 4.2-.9.3-.3 1.1-.6 1.7-.6 2.1.1-2.9 2.4-5.9 2.7-3.1.3-5.3 1.8-4.2 2.9.3.3 1.2.2 1.9-.2.7-.5 2-.9 2.8-.9 2.1-.1 8-3.7 7.4-4.6-.2-.4.5-1 1.6-1.4 2.2-.7 4.3-4 3.8-5.7-.2-.6-1.9.3-3.8 1.8m-29.5 3.5c-1 3 0 3.3 1.3.4.6-1.4.7-2.5.2-2.5s-1.2.9-1.5 2.1m9.8.4c-1.8.8-3.3 2.1-3.3 3 0 2 1.2 1.9 4.3-.5 1.4-1.1 3-2 3.6-2s1.1-.5 1.1-1c0-1.4-1.9-1.2-5.7.5m-14.8 1.5c-.3.5-.2 1.7.3 2.6.8 1.4 1 1.2 1.4-1 .5-2.6-.5-3.5-1.7-1.6m16.9 2.6c-1.8 1.4-1.8 1.5.4.4 1.2-.6 2.2-1.3 2.2-1.5 0-.8-.5-.6-2.6 1.1m-3.1 3.2c-.8.5-.9 1.3-.3 2.2.6 1 .3 1.8-1.1 2.8-1 .7-1.9 1.8-1.9 2.3 0 .6 1.4.1 3-1.1 1.7-1.2 2.8-2.5 2.5-3-.3-.4.3-1.1 1.2-1.4 1.5-.6 1.5-.8.3-1.6-1.8-1.2-2.2-1.2-3.7-.2M204 216c0 .5.5 1 1.1 1 .5 0 .7-.5.4-1-.3-.6-.8-1-1.1-1-.2 0-.4.4-.4 1m-23.2 2.4c-2.1 1.1-3.8 2.4-3.8 2.8 0 .7 5.3-1.7 8.5-3.9s-.5-1.4-4.7 1.1m19.7-.5c.3.5.1 1.2-.5 1.6-.5.3-1.5 1.6-2 2.8-.8 1.5-.3 1.3 1.4-.8 2.8-3.2 3.2-4.5 1.5-4.5-.5 0-.8.4-.4.9m2.2 2.1c-.3 1.1-.1 2 .4 2s.9-.2.9-.4.3-1.1.6-2 .2-1.6-.4-1.6c-.5 0-1.2.9-1.5 2m-9.4 7.5c-3.4 2.9-1.8 3.2 5 .9 5.5-1.9 6.1-3.4 1.3-3.4-2.3 0-4.5.9-6.3 2.5M180 227c0 .5.6 1 1.4 1s1.8-.5 2.1-1c.3-.6-.3-1-1.4-1-1.2 0-2.1.4-2.1 1m28 2.1c0 .5.5.7 1 .4.6-.3 1-.8 1-1.1 0-.2-.4-.4-1-.4-.5 0-1 .5-1 1.1m-43 3.9c0 3.4 1 3.7 4.5 1.4 2.2-1.5 2.5-4.4.3-4.4-.5 0-.6.4-.3 1 .3.5-.1 1-.9 1-.9 0-1.6-.5-1.6-1 0-.6-.4-1-1-1-.5 0-1 1.3-1 3m18.5-1c.3.5.8 1 1.1 1 .2 0 .4-.5.4-1 0-.6-.5-1-1.1-1-.5 0-.7.4-.4 1m-10 1c-.3.5.1 1 .9 1s1.8-.5 2.1-1c.3-.6-.1-1-.9-1s-1.8.4-2.1 1m16.5 1.9c0 .5-.8 1.2-1.7 1.4-1 .3-.4.4 1.2.4 3.9-.1 5.1-.7 3.4-1.8-1.8-1.1-2.9-1.1-2.9 0m-20.6 2.2-1.9 2.2 3.3-1.7c3.4-1.8 4-2.6 1.9-2.6-.8 0-2.2 1-3.3 2.1m30.6-.9c-2.2 1-2.3 1.2-.6 1.6 1 .2 2.2-.1 2.6-.8.5-.8 1.9-1 4-.5 2.3.5 3 .4 2.6-.4-.9-1.4-5.3-1.3-8.6.1m-41 53.4c0 .6.7 1.9 1.6 3 1.4 1.8 1.4 1.8.3-.6-1.4-3.1-1.9-3.6-1.9-2.4M146.5 307c-.3.6.1 1.3 1 1.6 1.9.8 3 0 2-1.5-.8-1.4-2.2-1.4-3-.1"/></svg>