<svg xmlns="http://www.w3.org/2000/svg" width="682.667" height="512" version="1.0" viewBox="0 0 512 384"><path d="M37 5.2c0 2.9-.3 6.2-.6 7.3-.4 1.8 0 2 3.8 2 4 0 4.3.2 4.6 2.8.2 1.5-.4 5-1.3 7.7-1.6 4.8-1.6 5 .5 7.8 2.1 2.9 2.2 3 .4 5.8-1 1.6-3.2 4.7-4.9 6.9-3.2 4.2-3.1 3.1-2.3 19.7.1 1.8-.6 6.4-1.4 10.1l-1.6 6.9 2.7-.7c1.4-.3 4.1-2.1 5.9-4S46.5 74 47 74c.6 0 1-.4 1-.9s1.5-1.2 3.3-1.5l3.2-.7-3-1.4c-2.4-1.1-2.6-1.4-1-1.4 1.2-.1 2.6-.6 3.3-1.3.9-.9 1.2-.9 1.2 0 0 2 2.5 1.4 5-1.3 1.2-1.3 3.7-2.9 5.4-3.5 2.6-.8 3.5-2 5.4-7.2C72 51.3 73 47 73 45.2c0-1.7.4-3.2.9-3.2 1.2 0 .3 6-1.6 11.4L71 57.3l2.2-1.9c1.3-1 3.7-3 5.3-4.4l3-2.5-2.9 3.2C76.4 54.2 76 55 77.2 55c1.4 0 1.5.6.4 5.3-1.7 7.3-1 12.7 1.6 12.7 3 0 8.7-3.8 11-7.4 1.1-1.7 1.8-2.3 1.4-1.4-.7 2.3.1 2.3 4.2-.2 4.8-2.9 3.9-1.6-1.5 2.1-2.5 1.8-5.3 3.9-6.2 4.8-4.6 4.4-18.2 8.5-27.6 8.3-3.3-.1-3.7.1-2.1.9 1 .6 3.4 1.1 5.5 1.1 9.7-.1 16.1-.6 16.1-1.3 0-.5-.8-.6-1.7-.3-1.5.5-1.5.4.1-.6 1.4-1 2-1 2.7.1.4.7.5 1.7.2 2.1-1 1.7 2 3.8 5.2 3.8 2.5 0 4-.8 6.4-3.5 3.9-4.4 5.2-4.6 1.8-.2l-2.5 3.3 9.2-1.8c5-1 10.7-2 12.6-2.2s4.4-.7 5.5-1.1.5.2-1.3 1.4-4.9 2.1-7 2.2c-5.6 0-24.9 3.5-23.2 4.1.8.3-.9.3-3.7 0-5-.4-5.3-.3-5.4 1.9l-.1 2.4-.7-2.5c-.9-3.1-11.2-6.6-14.9-5-1.5.6-2.1.7-1.7 0 .7-1.2-3.9-2.4-6.1-1.6-.9.3-1.8 1.4-2.1 2.4C53 86 51.1 87.1 48 88c-4.5 1.2-5.7 2.6-3.7 4.1.9.6 4.1.4 10.2-.7 6.2-1.1 3.6.4-3.6 2.1-3.5.8-4.7 1.3-2.6 1 2.1-.2 3.7.1 3.7.6 0 .6.8.9 1.8.7.9-.1 2.3.1 3 .6 1.1.6 1 1.2-.5 2.8-1.3 1.5-1.5 2.2-.6 2.5 1 .4.9.8-.2 2-.8.8-1.5 2.6-1.5 3.9 0 2.1.3 2.3 1.9 1.4 2.9-1.5 5.3-5.2 4-6.1-.8-.4-.7-.8.2-1.1 1.1-.4 1.2-.8.1-2-1-1.3-.9-1.8.3-2.8 1.3-1.1 1.5-.8 1.5 1.9 0 3.3.6 3.7 3 2.1 1.3-.8 1.2-1-.3-1-1 0-1.5-.4-1.2-1 .3-.5 1.9-.7 3.4-.4 1.8.4 3.3.1 4.2-.9.7-.7 2.1-1.2 3.1-.9 1.1.2 2-.3 2.4-1.3s.9-1.2 1.3-.6q.6 1.05 5.1 0c2.5-.6 9.9-.9 16.5-.8l12 .2 9-5.4c13.1-7.9 14.2-8.3 15.7-5.6.7 1.2 1.9 5.5 2.8 9.6l1.6 7.4 6 2.1c16.4 6 30.3 18.8 38.4 35.5 4.5 9.1 6 15.6 6 25.7 0 4.8.4 7.3 1 6.9 1.2-.7 1.4.8.3 1.9-.5.4-.8 1.1-.9 1.4-.1 1.3-2.4 6.7-3.8 9.4-1.1 2.1-1.2 2.8-.3 2.9.7 0 .2.4-1.1.9-2 .9-2.1 1.2-1.1 3.2.7 1.3 2.7 4.1 4.5 6.2 3.3 3.9 3.3 3.9 1.5 6.5-1.1 1.4-3.3 3.8-4.9 5.3-3.7 3.3-4.6 8.9-4 24 .4 9.5.8 10.9 4.1 17.5 4.1 7.8 4.5 9.2 2.2 7.3s-1.9.2 1.4 7c1.6 3.3 2.6 6 2.2 6-.5 0-2.9-1.8-5.5-4.1-2.5-2.2-4.6-3.7-4.7-3.2 0 .4 0 4.6.1 9.1.1 5.5-.2 8.2-.9 7.8-.6-.4-1.1 1.4-1.3 4.6l-.3 5.3-1.8-5.3c-1-2.8-2.3-5.2-2.9-5.2s-.7.7-.4 1.6.8 4.1 1.1 7.2c.6 6 .4 5.8-3.3-3.1l-1.9-4.8-1.6 5.8c-1 3.3-1.7 6.4-1.7 7s2.2 1.6 4.9 2.3c3.3.8 5.5 2 6.5 3.6 2.7 4 2.1 5.4-2.4 5.4-4.2 0-5.3 1.7-2.5 4 4 3.3 9.7 20.4 12.4 36.9.5 3.3 1.7 7.1 2.6 8.5 1.4 2.2 2 2.3 4.5 1.4 1.6-.5 3.6-.8 4.5-.6 1.3.2 1.2.8-.8 3.8-1.3 1.9-3.3 6.3-4.5 9.7-2.2 6-2.2 6.2-.4 11l1.8 4.8 159.2.3 159.2.2V0H404.1l-.3 4.1c-.3 3.9-.5 4.2-3.5 4.5-2.9.3-3.3 0-5.3-4.1L392.8 0H37zM408 25c0 .5-.4 1-1 1-.5 0-1-.5-1-1 0-.6.5-1 1-1 .6 0 1 .4 1 1M85 43.9c-.5 1.1-1.5 2.3-2.1 2.7-.6.3-.3-.5.6-2 2-3 3-3.5 1.5-.7m4 7.5c0 .2-.7.7-1.6 1-.8.3-1.2.2-.9-.4.6-1 2.5-1.4 2.5-.6m-47 8c0 .2-.7.7-1.6 1-.8.3-1.2.2-.9-.4.6-1 2.5-1.4 2.5-.6m11.7 4.3c-.3 1-.5.4-.5-1.2 0-1.7.2-2.4.5-1.8.2.7.2 2.1 0 3M48 69c0 1.3-2.9 2-3.6.8-.4-.7-.9-.7-1.3 0-.3.6-2 1.3-3.6 1.7-2.5.5-2.3.2 1.5-1.8 4.1-2.3 7-2.6 7-.7m46.5.9c-.3.5.5 1.2 1.7 1.4 1.5.3 1 .5-1.4.6-2 0-4 .6-4.3 1.1-.4.6-1.1.7-1.7.4-.6-.4.4-1.5 2.3-2.5 4-2.1 4.2-2.2 3.4-1m12.8 1.8c-1.3.2-3.3.2-4.5 0-1.3-.2-.3-.4 2.2-.4s3.5.2 2.3.4m-6.3 2.7c0 .2-.8 1-1.7 1.7-1.6 1.3-1.7 1.2-.4-.4s2.1-2.1 2.1-1.3m-34.3 6.2c-.3.3-1.2.4-1.9.1-.8-.3-.5-.6.6-.6 1.1-.1 1.7.2 1.3.5m366.9 4.1c-1 1-1.9-.5-1-1.8.6-1.1.8-1.1 1.2 0 .2.7.1 1.5-.2 1.8m-375.3 1c-.7.2-2.1.2-3 0-1-.3-.4-.5 1.2-.5 1.7 0 2.4.2 1.8.5m48 0c-1.3.2-3.3.2-4.5 0-1.3-.2-.3-.4 2.2-.4s3.5.2 2.3.4m-8.6 3.9c-.3.3-1.2.4-1.9.1-.8-.3-.5-.6.6-.6 1.1-.1 1.7.2 1.3.5M77 91.3c0 .2-1 1.2-2.2 2.3l-2.3 1.9 1.9-2.3c1.8-2.1 2.6-2.7 2.6-1.9m416.4 53.6c.3.4.3 1.1 0 1.4-.8.8-3.4-.3-3.4-1.4s2.7-1.2 3.4 0m-104 36.9c.2.4-.2 1.6-1 2.7-1.3 1.8-1.4 1.8-1.4-.8 0-2.5 1.3-3.6 2.4-1.9m27.9 25c.9.8 1.7 2.6 1.7 4 0 2.3-.3 2.4-3.7 1.9-3.5-.6-8.3-4.4-8.3-6.7s7.3-1.8 10.3.8"/><path d="M73.1 59.2c-3.5 3.7-3.9 5-1.3 4.2 1.4-.5 1.3-.3-.3 1-8.5 6.5-10.4 8.1-9.4 8.5.5.1 2-.5 3.1-1.5 2-1.7 2.1-1.8 1.5-.2q-.6 1.8.9 1.8c.8 0 1.2.4.9 1-.3.5-1.9 1-3.5 1s-3.1.3-3.3.7c-.3.5 2.2.6 5.6.3 6-.5 6.1-.6 7-4 .5-1.9.7-4.9.5-6.6-.2-1.8-.1-3.1.3-2.8.6.4 2-5.8 1.4-6.4-.2-.2-1.7 1.2-3.4 3m-11.6 9.4c-1.6.8-3.7 2.2-4.5 3-1.3 1.3-1.1 1.3 1.7.4 1.7-.6 3.9-2 4.9-3.1 2.1-2.3 1.8-2.3-2.1-.3m-12 7.4-3 2h4.2c4.4 0 6.5-1.6 4.2-3.1-1.9-1.2-2-1.2-5.4 1.1m9-1c-.3.5-.1 1 .4 1 .6 0 1.1-.5 1.1-1 0-.6-.2-1-.4-1-.3 0-.8.4-1.1 1m-13.6 7.9c-3.7 1.2-6.9 3-6.9 4.1s7-1.7 9-3.6c1.6-1.6 1.6-1.6-2.1-.5m-7.3 8.7c-2.2 2.1-2 3.4.4 3.4 1.6 0 4-2.6 4-4.4 0-1.2-2.9-.5-4.4 1m3.1 6.4c-1.3 1.9-1.7 2.1-1.7.7 0-.9-.4-1.7-1-1.7-.5 0-1 .4-1 1 0 .5-.9 1-1.9 1-2.7 0-7.7 9.6-6 11.6 1.6 1.9-1.7 3.1-4.3 1.5-1.5-1-2.3-1-3.4 0-2.1 1.8-1.3 4.8 1.7 6.6 2.5 1.5 2.8 1.5 5.4-.5 1.5-1.2 3.2-2.2 3.6-2.2.5 0 2 2.2 3.4 5 1.4 2.7 2.9 5 3.4 5 1.5 0 2.2-6.2.9-7.7-.9-1.1-.9-1.6.1-2.2 1.7-1.1 1.7-1.2.1-4.1-1.2-2.3-1.2-2.4.4-1.1.9.8 1.8 1.2 1.9 1 .3-.4 2.8-8.3 3.3-10.4.1-.6.5-1.8.9-2.8.4-.9.3-1.7-.3-1.7-.5 0-1.3 1-1.7 2.2-.7 2.2-.8 2.1-1.4-.7l-.6-3zm-3 4.7c.1 1.9-.1 2.2-.8 1.2-1.1-1.7-1.2-3.9-.1-3.9.4 0 .8 1.2.9 2.7M35.5 115c.3.6.3 1-.2 1-1.1-.1-4.3-2.6-4.3-3.4 0-.9 3.7 1.1 4.5 2.4M48 97.9c0 .5-.3 1.6-.6 2.5-.5 1.3.1 1.6 2.5 1.6 3.2 0 4.1-1.6 1.9-3.8-1.4-1.4-3.8-1.6-3.8-.3m1.2 6.1c-1.2.5-2.5 1.7-2.8 2.5-1.1 2.8.2 2.6 3.1-.5 3.1-3.3 3.1-3.3-.3-2m-2.1 6.5c-2.2 2.4-4.1 4.8-4.1 5.3 0 1.4 3.1 5.2 3.9 4.8.4-.3 1.3-3.1 2-6.3s1.8-6.4 2.3-7.1c2.5-3-.3-.8-4.1 3.3m3.6 2.2c-.4.3-.7 1.1-.7 1.7s.5.5 1.2-.2c.6-.6.9-1.4.7-1.7-.3-.3-.9-.2-1.2.2m-7.7 8.8c0 .8.4 1.5 1 1.5.5 0 .7-.7.4-1.5-.4-.8-.8-1.5-1-1.5s-.4.7-.4 1.5m120.1 151.6c-1.7 4.9-1.4 8.1.7 7.7 1.3-.2 1.8-1.5 2-5.6.3-5.8-1-6.9-2.7-2.1M31.6 283.2c-.8 4.2-.7 8.8.2 8.8.4 0 2.4-1.1 4.5-2.5 2-1.4 4.6-2.9 5.8-3.3 1.8-.7 1.2-1.2-3.9-3.4l-6-2.6zm131 3.4c-3 2.1-3 4.9 0 6.2 3.1 1.5 4.1-.4 2.8-4.8-.8-2.6-1.1-2.8-2.8-1.4M6 290.4l-5.5 3.2-.2 33.5C.1 348.9.3 360 1 359c.5-.8.7-2.3.4-3.4-.5-1.6-.2-1.8 1.8-1.3 2.1.6 2.6.1 4.5-5.1C9 346.1 10.4 341 11 338c1.5-7.3 4.9-17.8 6.1-18.5 1.9-1.2.8-3.5-2.4-4.8-2.6-1.1-3.3-2.1-3.5-4.5-.2-2.2.3-3.2 1.5-3.7 1-.3 3.3-1.9 5.2-3.5l3.5-3-1.8-5.5c-1.5-4.9-2-5.5-3.3-4.4-1.2 1.1-1.8.9-3.1-.8l-1.7-2.2zM.1 367.2l.1 6.3 1.4-5C3 363.4 2.8 361 1 361c-.6 0-1 2.6-.9 6.2"/></svg>