<svg xmlns="http://www.w3.org/2000/svg" width="682.667" height="512" version="1.0" viewBox="0 0 512 384"><path d="M0 11.1c0 6.8.4 10.8 1 10.4 1-.6 4.4-11.6 5.4-17.8C7.1 0 7.1 0 3.5 0H0z"/><path d="M7.6 2.2C7.3 3.5 7 5.6 7 7c-.1 1.4-.7 4.3-1.5 6.5-.8 2.1-1.3 4.1-1.1 4.2.1.2 2.2-1.3 4.5-3.3C15.6 8.7 14.6 11 7 19c-7.3 7.6-8.8 10.2-2.9 5.1 2.4-2.1 3.6-2.6 4.1-1.8.7 1.1 1.2-.7 1.1-4.1-.1-.6.4-1.2.9-1.2.6 0 .8 1 .4 2.2-.3 1.3-.9 5.6-1.2 9.5-.6 6.1-.4 7.3.9 7.9 2.3.8 11.3-4.4 13.8-8 1.1-1.7 1.8-2.3 1.5-1.4-.7 2.2 1.2 2.3 4.2.2 1.2-.8 2.2-1.3 2.2-1s-2.8 2.4-6.2 4.6l-6.3 4.1 6.3-.4c3.4-.2 6.2 0 6.2.5 0 .9-2.1 1.1-8.5.9-2.2-.1-6.5.7-9.5 1.9-3 1.1-6.7 2-8.2 2C2.2 40 0 41 0 42.6c0 3.2 10 2.9 12.7-.4.8-.9 1.1-1.1.7-.3-.5 1.1-.1 1.3 2.2.7l2.9-.7-3.2 2.2C13.5 45.2 12 46.6 12 47c0 .5 2.5 1.2 5.6 1.6 5.5.6 5.6.6 9.7-3.3 7.4-6.9 9.4-7.9 3.7-1.9-4.6 4.9-5.1 5.8-3 5.2 5.6-1.4 19.7-1.9 20.4-.7.6.8-.6 1.1-4.1 1-2.6-.1-7.7.2-11.3.6s-8.3.7-10.5.6c-3.1-.1-3.7.1-2.5 1s1.1 1-.5.4c-1.1-.4-3.4-.9-5.2-1.2-2.7-.5-3.2-.2-3.6 1.8-.4 2.4-.4 2.4-.6.1C10 50 8.5 49 2.7 47.6L0 47v10.5C0 66.9.2 68 1.8 68c1 0 2.3-.5 3-1.2S6 66 6 66.4s1.7-.2 3.7-1.4l3.8-2.2-3 2.6-3 2.6 3-.1c1.7 0 5.3-.4 8-.8 2.8-.4 6.2-.4 7.5 0 1.8.5 1 .8-3 .9-13.8.5-19.3 2.5-13.6 5.1 3.3 1.5 3.4 3.1.1 2.3C8 75 7 75.2 7 75.8s.8 1.3 1.8 1.5c.9.3-.7.5-3.5.6-6.7.1-6.9 1.6-.8 6C7 85.7 9 87.4 9 87.7s-1.5-.6-3.2-1.9C-.2 81.4 0 81.3 0 89v7.1l4.2 1.8c2.4 1 5.2 2.9 6.3 4.2 1.8 2 1.4 1.9-3.7-.9C3.6 99.4.8 98 .5 98s-.5 4.3-.5 9.6v9.5l2.9-2c1.6-1.2 3.4-2.1 3.9-2.1.6 0 2.4-1.1 4-2.5 2.9-2.4 3-2.4 2.5-.4-.3 1.2-2.1 2.8-4.1 3.6-8 3.3-11.4 8.3-5.7 8.3 3.8 0 12.5 2.3 12.5 3.2 0 .5 1.1.8 2.5.6 1.3-.2 2.4.1 2.5.7 0 .5-.4 1-1 .9-.5-.1-2.2-.2-3.6-.3-1.4 0-2.3-.5-2-1 .7-1-6.1-2.9-8.7-2.3-2.3.5-1.1 2.2 1.5 2.2 1.2 0 1.8.3 1.5.7-.4.3-.1 1.3.6 2.2.9 1.2.7 1.1-1.3-.2-3.9-2.7-5.5-2.2-3.2 1 1.1 1.6 2.4 5 3 7.7.9 4.2.7 5.8-1.4 12-1.4 3.9-3.1 10-3.9 13.6s-1.7 7.5-2.1 8.7c-.7 2.7.7 3 3 .7.9-.8 1.6-1.1 1.6-.5 0 .5-1.2 1.9-2.7 3.1l-2.8 2.2 7.3-.4c5-.2 7.6-.8 8.2-1.8.7-1.1.4-1.7-.8-2.2-1.5-.6-1.5-.7-.1-.7 2-.1 4.5-2.9 3.4-3.9-.4-.4-1-.1-1.2.5-.3.7-1.4 1.3-2.4 1.3-1.1 0-1.8-.4-1.4-.9.3-.6-.7-.6-2.7 0-1.8.5-3.4.9-3.5.9-.7 0-.1-1.7 1-3.2 1.1-1.3 2.1-1.5 5-.8 2 .4 3.9.4 4.2 0 .3-.5-1.3-2.6-3.6-4.7l-4.1-3.9 2.6-3.1c2.2-2.6 2.6-4.1 2.6-9.5 0-3.6-.5-6.9-1.2-7.6-.9-.9-.5-1.2 2.1-1.2 2.3 0 3-.4 2.5-1.2-.5-.7.5-.3 2 1 3.7 2.9 5.5 2.8 12.4-.7 3.1-1.6 7.3-3.2 9.2-3.6 4.3-.9 6-2.2 6-4.6 0-2.5 4.7-16.4 7.2-21.2 6.6-13.1 15.9-23.4 25.7-28.5 12.1-6.4 25.9-7.6 48.8-4.3 11.7 1.6 12.4 1.6 15 0 1.6-1 5.2-2.7 8-3.8L157 67l1.4 2.3c.8 1.2 2.1 4.2 2.8 6.6 1.2 3.9 1.9 4.6 7.3 7.2 7.3 3.4 18.1 12.1 23.5 19 13.1 16.7 18.7 43.6 11.8 57.7l-2.1 4.5 3.1 6.1c1.7 3.3 4.3 8 5.7 10.2l2.6 4.2-4.3 2.5c-8.7 5.2-9.9 6.8-11.4 14.3-.7 3.8-1.3 9.8-1.4 13.3 0 5.6.5 7.2 4.2 14 2.3 4.2 5 8.8 6 10.3 2.7 3.9 1.1 3.5-3.5-1l-3.8-3.7 2.6 6.9c1.4 3.8 3.1 7.8 3.6 8.8 1.4 2.6-.4 2.2-3.1-.7-3.8-4-4.5-3.2-4.3 4.7.2 8.1-.6 6.8-2.8-4.2l-1.3-6.5-1.4 7.4c-1.1 5.6-1.2 7.9-.3 9.3 1.4 2.3 1.4 2.9-.2 2.2-.8-.3-1.3.5-1.5 2.3-.4 5.2-2 4.7-3.9-1.3l-1.8-5.9-.5 9-.5 9-1.4-4c-1.4-3.8-1.5-3.9-2.2-1.5-1.3 4.5-1 4.8 5.9 6.4 5.4 1.2 7.3 2.2 10 5 1.7 2 3.2 4 3.2 4.5s-1.6 1.5-3.5 2.1-3.5 1.6-3.5 2.1 1.1 2.7 2.4 4.8c3.4 5.4 8.2 19.5 10.6 31.1 1.1 5.4 2 10 2 10.3s2-.1 4.3-.8c5.6-1.7 7.9-.6 5.8 2.7-3.1 4.8-5.3 10.2-6.4 15.3-1.1 5.3-1 5.3 2.9 11 2.1 3.2 5.6 6.9 7.7 8.2s3.7 2.9 3.4 3.6c-.2.7-2 2-4 3-2 .9-3.7 2.4-3.7 3.2 0 1.3 17.4 1.5 147.5 1.5H512V0H8.2zM20 3.3c0 .2-1.1 1.8-2.5 3.7S15 10 15 9.6c0-.9 3.9-6.6 4.6-6.6.2 0 .4.1.4.3M15.5 16c-.3.5-1.4 1-2.3 1-1.5 0-1.5-.2-.2-1 2-1.3 3.3-1.3 2.5 0m25.3 19.7c-1 .2-2.8.2-4 0-1.3-.2-.5-.4 1.7-.4 2.2-.1 3.2.1 2.3.4m11.9 10.9c-.3.3-1.2.4-1.9.1-.8-.3-.5-.6.6-.6 1.1-.1 1.7.2 1.3.5m-6.4 4.1c-1.3.2-3.3.2-4.5 0-1.3-.2-.3-.4 2.2-.4s3.5.2 2.3.4m283.8 7.6c-.8.8-1.1.7-1.1-.4 0-2 1.3-3.4 1.8-1.9.3.7-.1 1.7-.7 2.3m77.4-2.3c-.3.5-1.2 1-1.8 1-.7 0-.6-.4.3-1 1.9-1.2 2.3-1.2 1.5 0M8 62.5C7.4 64 6.7 65 6.4 64.8c-.2-.3.1-1.7.7-3.2 1.6-3.4 2.3-2.7.9.9m-5.9 1.6c-.6 2.4-.9 2.8-1 1.2-.1-2.4.9-5.6 1.6-5 .2.3 0 2-.6 3.8m19.4 9.4c-2.3.8-8.5 1-8.5.3 0-.4 2.1-.8 4.8-.7 2.6 0 4.3.2 3.7.4M17 78.9c1.9 1.5 5 3.6 6.8 4.5 1.7.9 3.2 1.9 3.2 2.2 0 .2-3.1-1.1-6.8-3.1-3.8-1.9-7.4-3.5-8-3.5-1.3 0-1.6-1.3-.5-2.3 1-1.1 1.7-.9 5.3 2.2m4 17.7c0 .2-.9 0-2-.6s-2-1.3-2-1.6c0-.2.9 0 2 .6s2 1.3 2 1.6M385 123c0 .5-.7 1-1.5 1s-1.5-.5-1.5-1c0-.6.7-1 1.5-1s1.5.4 1.5 1m29 16.7c0 1.9-1.9 5.5-2 3.8 0-.6-.3-2-.6-3.3-.5-1.6-.2-2.2 1-2.2.9 0 1.6.8 1.6 1.7m-120 13.7c0 .7-.7 1.9-1.5 2.6-1.2 1-1.5.9-1.5-.7 0-1.1.3-2.3.7-2.6 1.1-1.2 2.3-.8 2.3.7m150 16.2c0 1.7-2.2 1.4-2.8-.4-.2-.7.3-1.2 1.2-1.2s1.6.7 1.6 1.6m-432 2.3c0 .9-2.4 2.1-4.1 2.1-1.6 0-1-1.8.9-2.3 2.8-.8 3.2-.7 3.2.2m338.7 14.6c2.7 3.1 2 5.5-1.6 5.5-4.5 0-10.2-5.4-8.5-8.1 1.1-1.9 7.7-.2 10.1 2.6M460 190c-.6 1.1-1.5 1.8-2.1 1.4s-.6-1.1.2-2c1.7-2.1 3.1-1.7 1.9.6m-53 32.5c-.7.8-1.6 1.5-2.1 1.5-1.4 0-1-1.7.8-3.6 2-2 3.2-.1 1.3 2.1m50 11.4c0 1.2-1.1 2.3-3.1 3-5.6 2-6.7 1.3-3.1-1.9 3.7-3.4 6.2-3.9 6.2-1.1m50.8 16.3c-.3.7-1.3 1.3-2.3 1.3s-2-.6-2.2-1.3c-.3-.7.5-1.2 2.2-1.2s2.5.5 2.3 1.2m-7.2 37.9c.8 1.3-.3 2.4-3.3 3.4-1.9.5-2.2.3-1.6-1.2 1.1-3 3.6-4.2 4.9-2.2m-2.1 35.9c.3.6-.1 1.3-1 1.6-1.9.8-3 0-2-1.5.8-1.4 2.2-1.4 3-.1"/><path d="M6 26c0 .5.5 1 1 1 .6 0 1-.5 1-1 0-.6-.4-1-1-1-.5 0-1 .4-1 1m-3.8 4.3c-.7.8-.9 1.7-.5 2 .3.4 0 1.3-.7 2.2C-.1 35.8.3 36 3.4 36c3.6 0 3.7-.1 3.4-3.2-.3-3.6-2.7-4.8-4.6-2.5m-.4 7.4c1.2.2 3 .2 4 0 .9-.3-.1-.5-2.3-.4-2.2 0-3 .2-1.7.4M9.5 47c.3.5.8 1 1.1 1 .2 0 .4-.5.4-1 0-.6-.5-1-1.1-1-.5 0-.7.4-.4 1M2.7 73.7c-1.2 1.1-.8 2.3.7 2.3.7 0 1.9-.7 2.6-1.5 1-1.2.9-1.5-.7-1.5-1.1 0-2.3.3-2.6.7M0 124.5c0 .8.7 1.5 1.6 1.5 1.4 0 1.4-.3.4-1.5-.7-.8-1.4-1.5-1.6-1.5s-.4.7-.4 1.5m19.4 44.9c-.8 2.1-.4 2.5 1.9 1.7 1.7-.6 1.7-.8.3-2-1.3-1.1-1.7-1.1-2.2.3m18.6 9.7c0 .5.5.7 1 .4.6-.3 1-.8 1-1.1 0-.2-.4-.4-1-.4-.5 0-1 .5-1 1.1M12.1 181c-4.6.9-9.2 1.5-10.2 1.3-1.7-.5-1.9.1-1.9 7.2v7.7l3.3-.6c1.7-.4 6.3-1.2 10-1.8 5.6-1 7.7-2 11.6-5.3 2.7-2.2 5.7-4.5 6.7-5.2 1.8-1.1 1.8-1.2-.1-1.3-3.4-.1-9.9-2.7-8.4-3.3 2.9-1.1-2.8-.5-11 1.3m10.9 2c-.8.5-1.9 1-2.5 1-.5 0-.3-.5.5-1s2-1 2.5-1c.6 0 .3.5-.5 1"/><path d="M31 181c-1.2.8-.9 1 1.3 1 1.5 0 2.7-.5 2.7-1 0-1.3-2-1.3-4 0m2.4 5.5c-1 .8-1.4 1.5-.8 1.5s1.7-.7 2.4-1.5c1.6-1.9.9-1.9-1.6 0m-8.2 14.1c-1.3.9-3.3 1.4-4.4 1.1s-4.4-.2-7.2.3-6.8 1.2-8.9 1.5c-3.7.6-3.8.7-3.1 4.1.4 2 .2 4-.5 4.8-.8.9-1.1 4.9-.9 11.2l.3 9.9 8.4-8.5c7.4-7.6 13.2-14.8 18.6-23.3 1.9-3 1.1-3.5-2.3-1.1M.7 242.7c-.4.3-.7 32.3-.7 71V384h4c2.2 0 4-.5 4-1 0-.6-1.3-1-2.9-1-2.4 0-2.9-.5-3.5-3.2-.4-2-.1-3.7.7-4.7 2.9-3.4 7.8-14.9 9.2-21.5 1.2-5.9 1.3-7.2.1-8.5-.7-.9-1.6-2.8-2-4.3-.6-2.4-.4-2.8 1.6-2.5 1.8.2 2.3-.5 3-3.8.5-2.2 1.7-4.7 2.7-5.5 1-.9 2.5-4.7 3.6-9 .9-4.1 2.8-10.1 4.2-13.2 2.4-5.4 2.4-5.9 1-10-.8-2.4-2-4.2-2.6-4-.6.1-1.1 0-1.1-.3 0-1.6 3.1-6.3 5.2-7.8 4.1-3 17.3-11.4 20.8-13.2l3.4-1.7-2.5-1.3c-1.3-.7-5.4-1.9-8.9-2.5-9.4-1.7-12.5-3.3-17.8-9.2C10.6 242.9 9.5 242 5.3 242c-2.2 0-4.3.3-4.6.7M175.5 259c-.4 1.7-1.1 2.8-1.6 2.4-.5-.3-.9.2-.9 1 0 1.7 3.4 3.9 4.4 2.9s.7-9.3-.3-9.3c-.5 0-1.2 1.4-1.6 3m-18.4 9.4c.2.2 1.8.6 3.4 1 2.2.5 2.6.4 1.5-.4-1.4-.9-5.9-1.5-4.9-.6m18.6 3.3c-1.2 1.1-.8 2.3.8 2.3.8 0 1.5-.7 1.5-1.5 0-1.6-1.2-2-2.3-.8"/></svg>