<svg xmlns="http://www.w3.org/2000/svg" width="682.667" height="512" version="1.0" viewBox="0 0 512 384"><path d="M0 192v192h18l1.3-3.3c.8-1.7 2.9-7.5 4.7-12.8l3.3-9.7-2.8-3.6c-2.4-3.1-2.6-4-1.7-6.1.8-1.8.8-2.6-.4-3.5-2.1-1.8-1.7-2.9 1.3-4.1 3.8-1.3 8.1-6.4 9.3-10.8 1.3-4.8 1.3-14.7-.1-17.3-.7-1.2-.7-1.8-.1-1.4s1-1.2.9-4.1l-.2-4.8 3.6-.3c3.7-.3 3.7-.3 5.4-7.5.9-4 3.5-11 5.6-15.7 4.4-9.4 4.4-11.5 0-10.5-3.2.7-3.2.4-1-7.2 1-3.1 5.1-5.9 25.2-17.2 3.1-1.8 5.7-3.4 5.7-3.6s-3.4 1.2-7.5 3.2c-10.4 4.9-13.4 4.5-26.1-3.7l-9.7-6.2-4.1 2.3c-2.3 1.2-4.8 2.8-5.7 3.5-2.2 1.9-2.9 1.7-2.9-.7 0-1.4 1.3-2.6 4.5-4 3.6-1.6 5.4-3.4 9.8-10.2 3-4.5 7.4-11.9 9.7-16.5 3.6-6.9 4.1-8.5 2.9-9.3-1.2-.7-1.1-.9.2-.9 2.6 0 7-11.9 10.9-29.8 2.4-10.7 2.4-11.2.3-11.2s-19.5-7.7-24.7-10.9l-3.6-2.3 3-3.8c3-3.8 3-4 1.5-7.6-2.2-5.4-1.9-9.1.9-10.9 2.1-1.4 3.3-1.4 8.3-.4 5.6 1.1 6 1 11.8-1.8 4.1-2 5.8-3.4 5.5-4.4-.3-.8-.5-5.7-.5-10.9 0-8.1.5-11 3.3-19.1 3.8-11.3 12.6-25.5 19.5-31.5C96.1 43.9 110 39 126.5 39c8.5 0 29.7 2.5 43.2 5.1 5.1 1 6.5 1 7.9-.1 1.4-1.3 1.8-1.2 3.3.6.9 1.1 4.3 3.1 7.6 4.4 8.9 3.5 13.2 6.5 21.6 14.9 13.6 13.6 20.7 31.8 19.7 50.8-.7 12.1 1.9 25.8 5.1 27.8.6.3 1.1 1.9 1.1 3.5 0 1.5.9 5.3 2.1 8.3 1.9 4.9 1.9 5.8.7 8.4-2 4.2-6.2 4.4-8.3.4-1-2-2-2.8-3-2.5-.8.4-1.5.9-1.5 1.3 0 1.6 7.3 37.4 9.1 44.6 4.2 16.7 10.1 35.1 12.4 38.5 1.3 1.9 2.7 4.8 3.1 6.5.6 2.6 0 2.1-5.6-3.8-3.4-3.7-6.9-6.7-7.7-6.7-.9 0-4.8 1.8-8.8 4s-8.2 4-9.4 4c-2.1 0-2 .3 1.4 4.6 4 5.4 4.3 7.3 1.5 9.9-1.1 1-2 2.3-2 2.9 0 .5 1.6 4.8 3.6 9.3 1.9 4.6 4.6 12.5 5.8 17.6l2.3 9.2 4-.3c5.9-.5 7.3 1.6 4.9 7.7-1 2.5-1.9 5.7-2.1 7.1-.1 1.4-.7 3.5-1.3 4.7-2.8 5.2-.7 9 7.7 13.5 3.6 2 4.1 5 1.1 7.1-1.2.8-2.2 3.1-2.6 5.8-.4 2.4-1.3 5.2-2.2 6.1-1.3 1.5-1.2 2.8 1.2 11.6 1.4 5.5 3.1 11.7 3.8 13.8l1.3 3.9 132.3.3 132.2.2V0H0zM64.8 10.3c.2 1-.3 1.7-1.2 1.7-1 0-1.6-.9-1.6-2.1 0-2.4 2.3-2.1 2.8.4M86 49.6c0 .9-.5 1.4-1.2 1.2-1.8-.6-2.1-2.8-.4-2.8.9 0 1.6.7 1.6 1.6m371.8 5c2.6 1.8 2.9 3.3.5 2.9-7.4-1.5-7.5-1.5-6.3-3 1.6-1.9 3-1.9 5.8.1M43 100.4c0 .2-.7.9-1.5 1.6-1.2 1-1.5 1-1.5-.4 0-.9.7-1.6 1.5-1.6s1.5.2 1.5.4m378 4.6c0 3.3-2.4 5-4.2 3.2-.8-.8-.8-1.8 0-3.7 1.6-3.6 4.2-3.3 4.2.5m65 134.8c0 .4-1 1.4-2.2 2.2-2.5 1.5-20.8 2.7-25.3 1.6s-2.6-2.4 2.3-1.4c3.5.7 6.3.5 10.7-.6 10.7-2.7 14.5-3.2 14.5-1.8m-57 75.6c0 1.6-1.8 3.1-2.7 2.2-.8-.8.5-3.6 1.7-3.6.5 0 1 .6 1 1.4"/><path d="M201 244.9c0 1.2 2.5 2.1 5.8 2.1 2.5 0 2.5-.1.6-1.5-2.1-1.6-6.4-2-6.4-.6m-3.2.8c.7.3 1.6.2 1.9-.1.4-.3-.2-.6-1.3-.5-1.1 0-1.4.3-.6.6"/></svg>