<svg xmlns="http://www.w3.org/2000/svg" width="682.667" height="512" version="1.0" viewBox="0 0 512 384"><path d="M0 192v192h15.7l4.3-12.9 4.3-13L21 354c-3-3.8-3.1-4.2-1.6-6.4 1.3-2.1 1.3-2.6.1-3.6s-1.3-1.6-.4-2.6c.6-.8 1.7-1.4 2.3-1.4 1.7 0 6.6-6.7 7.7-10.3 1.2-4.4 1.1-15.4-.2-17.9-.8-1.5-.8-1.9 0-1.4.7.5 1.1-.9 1.1-4.4v-5.2l3.2.4c2.9.3 3.3 0 3.9-2.7 2.7-11.4 4.4-16.7 7-22 3.2-6.6 3.4-7.6 1.7-9.3-.8-.8-1.7-.8-3.1 0-1.9 1-2 .8-1.4-2.3 1.1-7 2.3-8.4 11.1-13.5 4.7-2.7 8.6-5.2 8.6-5.5 0-.8-14.8-7.9-16.5-7.9-.7 0-3.1 2-5.4 4.5-4.7 5.1-6.1 5.6-6.1 2.2 0-2.5 2.4-5.2 6.2-7.1 1.5-.8 3.1-3.8 5.4-10.4 1.8-5.2 3.5-9.6 3.8-9.9 1.2-1.2.6-2.5-.9-1.9-1.3.5-1.3 0 .1-3.2 3.3-7.7 3.2-8.4-1.3-5.5-3 2-3.1 2.3 2.4-6.4l3.2-5.1-3.5 1c-5.7 1.5-6.1.4-.8-2.4 7.2-3.8 8.1-5.6 9.8-19.3 2.5-19.9 2.5-18.8-.9-19.9-8.5-2.5-27.5-9.7-27.5-10.3 0-.2 1.1-2 2.5-4l2.4-3.6-2.1-3c-2.5-3.5-3.6-11.1-1.8-13.2 1.5-1.8 5.4-1.9 9.7-.4 2.7.9 3.7.6 8.1-2 2.7-1.7 6.2-3.6 7.8-4.1l2.9-1-.3-10.1c-.3-8.7 0-11.2 2.3-18.7 7.1-22.7 20.9-38.7 38.8-44.9 12.8-4.5 33.2-4.1 62.4 1.3 7.3 1.3 8.6 1.3 11.1 0 2.8-1.4 3-1.4 4.2.9.7 1.3 3.2 3 5.9 4 17.6 6.5 30.8 19.8 39 39.4 3.6 8.6 3.6 8.7 3.8 25.1.3 18.7 1.3 24.9 4.9 30.2 1.7 2.4 2.4 4.4 1.9 5.7-.3 1.1.1 3.6 1 5.6 2.1 5.1 1.9 9.8-.5 12.6l-2 2.4-2.5-2.8c-1.4-1.5-2.5-3.5-2.5-4.3 0-1-.7-1.4-1.7-1.2s-1.6 1.1-1.4 1.9 1.2 5 2.2 9.4c6 26.1 19.9 56 31.8 68.3 4.4 4.6 5.5 7.5 1.9 4.8-8.1-5.7-14.1-8.8-16.1-8.2-1.2.3-4.7 2.3-7.6 4.5-3 2.2-7.4 4.8-9.8 5.7-4.3 1.7-4.5 1.7-11.3-1.1-5.3-2.1-7.9-2.7-11.5-2.3-4.4.5-6.3 1.3-5.4 2.2.2.2 3.6.9 7.6 1.4 7.5 1.1 9.6 2.4 13.3 8.5 2.6 4.2 2.5 5.9-.4 8.6l-2.3 2.2 3.2 6.2c3.1 5.8 6.1 14.6 8.5 24.4l1.1 4.3h5c6.2 0 6.7 1.1 4 9.1-1.1 3.4-1.8 6.5-1.6 6.9.3.4-.2 2.1-1 3.6-.8 1.6-1.5 3.4-1.5 4.1 0 1.3 4.4 5.1 8.9 7.5 4.4 2.4 4.9 4.4 1.7 7.7-1.9 2-2.6 3.8-2.6 6.7 0 2.2-.7 4.9-1.4 6-1.3 1.9-1.2 3 1.3 11 1.6 4.9 4.1 11.9 5.6 15.6l2.7 6.8H512V0H0zM68.5 9.8c0 1.8-2 1.5-2.3-.4-.3-1 .1-1.5 1-1.2.7.3 1.3 1 1.3 1.6m393.8 45.6c2.3 1.8 2.1 2.6-.7 2.6-4.1 0-5.7-1-4.3-2.6 1.5-1.7 2.7-1.7 5 0M43.6 103.7c-1 1-1.9-.5-1-1.8.6-1.1.8-1.1 1.2 0 .2.7.1 1.5-.2 1.8m382.7-.3c.6 1.6-1.4 5.8-2.8 6-1.5.2-1.8-4.3-.5-6q2.25-2.7 3.3 0m69.5 144.4c.8.6.1 1.3-2.3 2.5-4.2 2-24.9 2.5-26 .6-1.1-1.7 0-2 2.9-.9 2 .7 4.5.6 9.4-.5 11.8-2.5 14.2-2.8 16-1.7M433 316.5c0 .8-.7 1.5-1.5 1.5-1.6 0-2-1.2-.8-2.3 1.1-1.2 2.3-.8 2.3.8"/><path d="M182.5 241c1.1.5 2.7.9 3.5.9.9 0 .8-.4-.5-.9-1.1-.5-2.7-.9-3.5-.9-.9 0-.8.4.5.9m10.5 2c.8.5 2 1 2.5 1 .6 0 .3-.5-.5-1s-1.9-1-2.5-1c-.5 0-.3.5.5 1m2.7 133.7c-.4 1.5-.9 3.8-1.3 5-.3 1.3-.2 2.3.3 2.3.6 0 1.3-2.1 1.7-4.7.7-5.2.2-6.9-.7-2.6"/></svg>