<svg xmlns="http://www.w3.org/2000/svg" width="682.667" height="512" version="1.0" viewBox="0 0 512 384"><path d="M0 192v192h2.8c2.6 0 2.8-.4 6.6-13 3.8-13 4-16 1.1-16-.8 0-2.1-1.5-2.9-3.2-1.1-2.8-1.1-3.7.1-6.1.8-1.5 1.1-3.2.8-3.7-.3-.6 1-2.6 2.9-4.6 5.6-5.8 8.2-18.4 5.1-24.4-1-2-1.3-3.5-.7-3.9.5-.3 1.4-2.6 1.9-5.1.7-3.5 1.4-4.5 3.2-5 2.1-.5 2.6-1.5 3.8-7 .7-3.6 2.5-10 4-14.2 2.4-6.8 2.6-7.9 1.3-10.2-.7-1.4-1.9-2.6-2.7-2.6-3.3 0 .6-10.3 4.9-12.9 1.3-.8 4.8-2.7 7.8-4.2s6.3-3.4 7.3-4.1c2.4-1.8 5.7-11.6 5.1-14.8-1.4-6.3-1.4-6.2-3.5-3.8l-1.9 2.3 1.5-3c.8-1.7 1.5-5 1.5-7.5v-4.5l-2.8 5.9-2.8 5.9.4-7.7.4-7.7L40 211c-2.9 1.1-5.4 1.9-5.6 1.7-.3-.2 1.8-3.2 4.6-6.7 2.7-3.4 5-6.5 5-6.7 0-.3-2.8 2-6.1 5.1-3.4 3.2-6.3 5.5-6.6 5.3-.2-.2.6-2.9 1.7-5.8 1.2-3 1.6-4.8.9-4.2-.7.7-1.9 1.3-2.6 1.3-.8 0 0-2 2.2-5.3l3.5-5.2-4.5-.3-4.5-.3 6.3-3.3c5.4-2.9 6.4-3.9 7.9-7.8 2-5.5 3.8-17.7 3.8-26.4 0-6.1-.1-6.4-2-5.2-1.6 1-3.2.7-10.2-2.2-15.1-6.1-22.8-9.9-22.8-11.2 0-.7.9-2.4 1.9-3.7 1.8-2.4 1.8-2.5-.6-7.7-4.4-9.7-2.1-13.7 6.6-11.5 4.8 1.2 5.4 1.1 10.7-1.4 3.1-1.5 7.1-2.9 9-3.2 4.8-.8 5.8-2.3 4.6-7.7-1.7-8 1.3-20.5 8.5-35.5 3.7-7.7 5.9-10.8 12.7-17.7 6.6-6.7 9.9-9.1 16.2-12.1l7.9-3.8H107c13.4 0 21.2.5 28.2 1.8l9.8 1.8 3.2-2.4c4.5-3.3 13.7-7.9 14.7-7.3.5.3 2.4 3.9 4.2 8 2.9 6.6 3.9 7.7 7.4 9.3 19.3 8.3 35.7 29.5 39.5 50.9 1.7 9.5 1 25.3-1.3 28.7-.9 1.5-1.7 3.6-1.7 4.7 0 1.2 2.7 7.6 6 14.4s6 13 6 13.8-1.6 2.9-3.5 4.8c-2.9 2.8-3.7 3.1-5 2-2.7-2.3-2.9-.2-.6 7.7 3 10.4 7.5 20.6 12.2 27.5 5.6 8.3 19.6 21.7 24.9 24 4.4 1.9 8 4.5 8 5.8 0 .3-3-.4-6.7-1.6-13.5-4.5-13-4.6-21.3 4-11 11.2-12.9 11.8-25.3 7.9-3.8-1.3-6-1.4-11-.5-3.6.5-6.3.6-6.5.1-.6-1.5-2.2.1-2.2 2.1 0 2.1.9 2.4 9.5 3.8 4.2.6 5.4 1.3 8.2 5 3.8 5 4.1 7.7 1.2 10.1l-2.1 1.7 5 10.5c2.8 5.7 5.9 12.9 6.9 15.9 1.8 5.4 1.9 5.5 5.3 5.3 8.4-.6 9.3.9 6.5 10.2-.9 2.7-1.5 5.9-1.3 7 .1 1.1-.1 2.6-.6 3.3-1.2 1.9.9 3.9 6.1 5.6 7.5 2.6 8.9 5.9 4.7 10.9-2.2 2.6-2.5 3.7-2 6.9.4 2.1.2 4.7-.4 5.7-.7 1.5 1.2 6.2 9.8 23.2l10.8 21.4 129.2.3 129.2.2V277.5l-6.1-1.2c-9.5-1.8-9.5-3-.1-3.9l6.2-.7V0H0zM79.5 8c.3.5.2 1.7-.3 2.7-.9 1.5-1.1 1.4-2-.4-1.5-2.7.7-4.9 2.3-2.3M38.7 40.6c4.3 3.3 4.2 4.6-.4 4.2-3.5-.3-3.8-.6-4.1-3.6-.4-3.9.1-3.9 4.5-.6m438.9 19.9c1.8 1.4 1.7 1.5-1.5 1.3-1.9-.2-3.6-.9-3.9-1.6-.5-1.7 3-1.5 5.4.3M442 108.9c-1.2 2.4-4 1.7-4-1 0-1 1-2.9 2.3-4.2l2.2-2.2.3 2.7c.2 1.5-.2 3.6-.8 4.7m3 209.1c0 1.1-.7 2-1.5 2-1.8 0-1.9-1.2-.3-2.8s1.8-1.5 1.8.8"/><path d="M56.6 235.2c-.8 2.2-1.2 3.8-.8 3.6s3.1-1.2 6-2.2c2.9-1.1 5.2-2.3 5.2-2.6 0-.4-2-1.1-4.4-1.7l-4.4-1zM167 233c-1.7 1-2 .9 7.6 3.4 8.3 2.2 9.6 2.1 9.2-.6-.2-1.4-1.3-2.5-2.8-2.9-3.7-1-12.3-1-14 .1m24.8 124c-1.2 5.9-2.7 19.4-2.2 19.9.2.2 1.1-1.3 1.9-3.3 1.1-2.6 1.5-6.2 1.3-11.9-.2-6.3-.5-7.4-1-4.7m-4.1 23.4c-.4 1.5-.6 3.1-.2 3.4 1 1 1.6-.6 1.3-3.5l-.3-2.8z"/></svg>