<svg xmlns="http://www.w3.org/2000/svg" width="682.667" height="512" version="1.0" viewBox="0 0 512 384"><path d="M0 192c0 108.3.4 192 .9 192 .4 0 2.3-5.1 4-11.3 5.5-19.4 5.2-17.5 2.2-17.9-1.7-.2-3-1.3-4-3.3-1.2-2.6-1.2-3.3.3-5.8.9-1.6 1.3-3.3 1-3.9-.3-.5.5-2.2 1.9-3.6 3.5-3.6 5.6-9 6.3-16.1.6-5.2.3-6.5-1.9-10.5-2.3-4.2-2.4-4.5-.5-3.5 2.5 1.3 2.4 1.4 3.4-4.6.7-3.9 1.4-5.1 2.9-5.3 1.7-.2 2.4-1.7 3.9-9 .9-4.8 2.6-10.8 3.7-13.3 1.9-4.3 1.9-4.9.5-8.4-1-2.3-2.1-3.5-2.9-3.2-1.7.7-1.5-1.6.7-7 1.9-4.6 3.2-5.5 16.4-12.4l8.3-4.3-.6-3.8c-.4-2.4-.2-4.4.5-5.3s.9-2.6.5-4.7c-1-4.6-1.4-5.1-3.3-3.6-1.5 1.1-1.5 1 .1-1.4 1.7-2.7 2.4-8.8 1-8.8-.5 0-1.7 1.9-2.8 4.3l-2 4.2-.3-7.3-.3-7.2-2.7 1.4c-3 1.5-8.2 2.9-8.2 2.2 0-.3 2.5-3.3 5.5-6.8 3-3.4 5.5-6.7 5.5-7.2 0-.4-3 2-6.7 5.4-3.7 3.5-6.9 5.8-7.1 5.2s.6-2.9 1.7-5.1c2.1-4.4 2-4.7-1.1-3-2.3 1.2-2.5 1.6 2.9-6.7l3.2-5.2-3.6.9c-6.1 1.3-5.9-.1.5-3.7 3.3-1.9 6.3-4.2 6.7-5.1 2.3-5.6 2.8-9.3 3.4-23.5l.6-15.6-2.6 3.1-2.7 3.2-15.6-7.7C11 134.5 4 130.7 4 130.2s.9-2.1 2-3.5c2.4-3 2.4-3.5.4-7.6-.9-1.8-1.8-5-2.1-7.1-.5-3.6-.3-4 2.2-4.6 1.6-.4 4.9-.2 7.5.5 4.3 1.1 5.1 1 9.6-1.2 2.7-1.4 6.5-2.8 8.4-3.2 6.1-1.3 6.3-1.6 6.1-9.4-.3-8.6 1-15.4 5-25.7 4.2-10.9 9.2-18.8 17-26.6 7.5-7.5 15.5-12 25.6-14.4 8.1-1.9 26.8-1.4 40.5 1.1l8.8 1.6 7.2-4.9c4-2.7 9.2-5.9 11.5-7.1L158 16l1.9 3.8c1.1 2.1 2.9 6.8 4.1 10.4l2.1 6.5 7.7 3.8c11.6 5.8 23.2 17.9 29.5 30.5 6 12.2 8 21.3 7.5 34.5-.3 7.8-.9 10.9-2.6 14.2l-2.1 4.1 2.5 6.4c1.4 3.4 4.1 9 6 12.4 1.9 3.3 3.4 7.2 3.4 8.7 0 3.4-5.4 8.1-8.6 7.3l-2.2-.6 1.4 6.3c5.3 23.5 20.3 46.8 35.7 55.5 4.5 2.5 10 7.2 8.5 7.2-.2 0-3.1-1.1-6.4-2.4-3.2-1.3-7.9-2.7-10.4-3.1l-4.5-.6-8.3 8c-8.1 7.9-8.4 8.1-13.3 8.1-2.7 0-6.4-.7-8.1-1.6-2-1-5.8-1.6-11.2-1.6-7.4-.1-8.1.1-8.4 1.9-.3 1.9.5 2.2 6.7 3.3 6.8 1.1 7.2 1.4 10.6 6 1.9 2.6 3.5 5.2 3.5 5.7s-1.1 1.9-2.5 3.1L198 256l3.5 5.6c1.8 3.2 5.1 10.1 7.1 15.5l3.7 9.8 5.6-.2c5.1-.2 5.6 0 5.9 2.1.2 1.2-.3 5.1-1.2 8.5-2.2 9.1-1.8 11.4 2.4 13.2 7.9 3.5 8.5 4 8.8 7.4.2 2.3-.3 4-1.7 5.5-1.8 1.9-2.1 3.2-1.8 8.7.4 6.9-.3 5.2 16 35.7 4.3 7.8 7.7 14.7 7.7 15.2 0 .7 44.4 1 129 1h129v-50.5c0-48.7-.1-50.5-1.9-50.5-1 0-2.4-.7-3.1-1.5-1.1-1.3-.8-1.5 1.9-1.5h3.1V0H0zM83 9.5c0 2.8-1.5 3.4-2.4.9-1-2.5-.7-3.4.9-3.4.9 0 1.5.9 1.5 2.5M42.3 43.8c1.5 1.4 2.7 2.9 2.7 3.4 0 .4-2.5.8-5.5.8H34v-3.8c0-2.1.3-4.2.6-4.5.9-.9 4.3 1 7.7 4.1M483 62.5c1.4 1.7.8 1.8-3.9.9-1.7-.4-2.8-1-2.5-1.5.8-1.4 5-1 6.4.6m-178.3 1.1c-.3.3-1.2.4-1.9.1-.8-.3-.5-.6.6-.6 1.1-.1 1.7.2 1.3.5M449 104.9c0 3.3-1.1 5.1-3.1 5.1-2.1 0-2.5-2.1-.9-5.1 1.4-2.5 4-2.5 4 0m0 213.6c0 1.6-2.7 3.2-3.7 2.1-.7-.7 1.6-3.6 2.8-3.6.5 0 .9.7.9 1.5"/><path d="M52.2 232.4c-2.1 5.5-1.6 6.5 2 4.5 1.3-.7 5.5-2.2 9.5-3.4l7.2-2-8.4-2.1-8.4-2zm111.1-1.7c-4.2.8-2.4 1.9 6 3.8 4.5 1.1 8.8 2.1 9.5 2.3.9.3 1.3-.5 1-2.4-.2-2-1-3-2.8-3.5-2.8-.8-10.2-.9-13.7-.2m25.6 128.5c0 4.1-1 11.1-2.3 16-2.1 8.3-2.1 8.8-.4 8.8 1.5 0 1.8-.8 1.8-4.4 0-2.4.7-5.7 1.5-7.2 1.7-3.4 2.1-20.4.5-20.4-.6 0-1 3.1-1.1 7.2"/></svg>