<svg xmlns="http://www.w3.org/2000/svg" width="682.667" height="512" version="1.0" viewBox="0 0 512 384"><path d="M0 52.5c0 48.3.3 55 2.4 51.6.3-.5 3-1.5 5.8-2.1 8.8-2.1 8.8-2 8.8-10.9 0-19.7 12.4-44.9 27.3-55.5 10.9-7.7 15.5-9 34.5-9.2l16.3-.1 11.1-10.4c6.1-5.7 12.9-11.6 15.2-13.1l4.1-2.8H0zM101.4 8.6c.7 1.9-.2 3.7-1.5 2.9-1.2-.8-1.2-4.5 0-4.5.5 0 1.2.7 1.5 1.6m33-3.4c1.2 2.9 3.5 10 5 15.8 3.9 14.7 3.6 14.4 11 17.8 12.8 6 22.5 14.4 30.3 26.4 5.5 8.5 8 14.2 10.4 24.3 3.2 13.6 2.5 21.4-3.2 35.2-1.7 4.2 0 9.6 5.9 18.2 2.4 3.5 4.1 6.9 3.8 7.7-.4 1.1-7.4 6.7-9.5 7.6-.8.3.8 17 3.4 36.8.9 6.3 1.8 13.5 2.1 16s1.6 9.9 3 16.4c1.8 9.1 2.8 12.2 4.4 13.3 2.8 2 5 6.6 5 10.7 0 4.5-1.3 5.3-3.1 1.8-1.1-2.2-4-6.7-8-12.4-.6-.9-9.2 2.4-11.6 4.4-1 .8-.8 1.6.8 3.7l2.1 2.6-3.1 1.2c-1.7.7-3.1 1.5-3.1 1.7s1.9 3.2 4.2 6.6c2.3 3.5 6 9.7 8.3 13.9l4.1 7.6 5.7-.3c7-.4 7.5.3 5.8 9.9-.7 3.8-1.3 7.2-1.4 7.6-.2 1.4 6.2 5.1 10 5.8 7.1 1.3 9.4 6.1 5.3 11.2-3.8 4.8-2.8 9.1 4.5 19 5.8 7.9 18.7 28.4 25.3 40.3 1.4 2.5 3 5.3 3.6 6.2 1 1.7 8.8 1.8 128.8 1.8H512V0H132.1zM324.5 71c.4.6-.7 1-2.5 1s-2.9-.4-2.5-1c.3-.6 1.5-1 2.5-1s2.2.4 2.5 1M505 71c1.1.8.7.9-1.5.4-3.7-.8-4.5-1.4-1.9-1.4 1 0 2.6.5 3.4 1m-26.6 33.6c.7 1.8-1.8 6.4-3.5 6.4-1.8 0-2.1-3-.5-5.5 1.9-2.9 3.1-3.2 4-.9M398.3 128c-.4.4-2.1 1-3.8 1.4l-3 .7 2.4-2c2.3-1.7 6.3-1.8 4.4-.1M242 222c0 1.7-.7 2-4.2 2-4 0-4.1 0-2.3-2 1-1.1 2.9-2 4.2-2 1.6 0 2.3.6 2.3 2m-20.5 59c.3.5.1 1-.4 1-.6 0-1.1-.5-1.1-1 0-.6.2-1 .4-1 .3 0 .8.4 1.1 1M468 322.9c0 2.1-2.6 3.6-3.6 2-.6-1.1 1.3-3.9 2.7-3.9.5 0 .9.9.9 1.9M.1 170.7c.1 27.4.2 29.4 1.5 24.8.8-2.8 2.1-7 2.9-9.5 2.6-7.9 11.5-44.3 11-44.8-.3-.3-1.5.4-2.8 1.6-2.9 2.7-4.3 2.7-8.5.2-1.8-1.1-3.5-2-3.7-2-.3 0-.5 13.4-.4 29.7m2.1 54.9C0 227.1 0 227.5.1 247.3v20.2l2.3-5c1.2-2.8 2.9-5.5 3.7-6.1 3-2.4 32.9-17.3 36.8-18.4 4.7-1.2 5.1-2.1 1.7-3.9-1.8-1-3.5-1-8.1-.1-7.6 1.6-10.5.9-20.5-5-9.3-5.5-10.5-5.8-13.8-3.4M0 285.5c.1 16.7 1.1 20.1 2.4 8.1.3-3.2 1.1-6.6 1.6-7.6 1-1.9-1.4-14.5-3.2-16.5-.4-.5-.8 6.7-.8 16m180.6 71.2c.4 4.5.1 9.7-1 15.4-2.3 12.1-2.3 11.9 2.3 11.9h3.9l.1-6.7c.1-3.8.2-9.6.3-12.9.1-7.3-.6-10.7-2.8-12.8-2.8-2.9-3.4-1.8-2.8 5.1"/></svg>