<svg xmlns="http://www.w3.org/2000/svg" width="682.667" height="512" version="1.0" viewBox="0 0 512 384"><path d="M206 17c-3.8 4.5-4 5.8-4.3 27.5-.1 11.5.5 18.3 1.8 20.5.9 1.4 11.5.6 14.7-1.1 2.9-1.5 2.1.3-2 4.6-5.5 5.7-12 14.2-12.7 16.5-1.1 3.3 1.1 5.8 6.2 6.8 2.6.6 5.1.9 5.4.6 1.7-1 2.4 2.8 2.5 13.6.1 6.6.8 14.2 1.7 18 .9 3.6 1.6 7.6 1.6 9s.3 3.9.6 5.6c.6 2.9.3 3.3-3.7 5.7-9.7 5.7-15.8 14.7-15.8 23.5 0 1.4-.9 6.5-2.1 11.4l-2.1 9-5.9-.7c-7-.8-7.1-.5-3.8 9l2.1 6.1-4.6 11.9c-10.5 27.2-12.4 31.7-19.8 46.8-8.4 17.2-8.7 18.3-6.4 29.4.8 3.7 1.7 11.5 2.1 17.3s1.1 11.8 1.5 13.5c.5 1.6 1.4 7.3 2 12.5 1.1 9.1 3.5 16.7 6.5 20 1.2 1.3.9 3.1-1.9 13-1.8 6.3-3.6 12.7-4 14.2l-.6 2.8h80.5c44.3 0 80.5-.2 80.5-.5 0-.5-13.7-31.4-20.3-45.5-6-13.2-8.7-20.6-11.7-33.2-3.3-13.8-5.7-21.4-8.9-27.5-1.9-3.8-2.1-6.4-2.6-27-.6-22.2-.5-23.1 2-32.7 1.4-5.5 2.8-10.3 3.2-10.9 1.6-2.6 2 3.2 1.5 20.7-.8 30.9 2.6 58.5 9.9 79.2 6.2 17.8 22.1 44.7 34.2 58 3.9 4.3 4.7 5.7 4.1 7.8-.3 1.4-.2 3.1.3 3.8.5.8 1-.3 1.3-3.2l.5-4.5 1.8 3.3c1 1.9 2.1 3.2 2.4 2.9.2-.3-.1-1.5-.7-2.7-1-1.8-.7-2.6 1.9-5.6 2.7-3 3.1-4.2 3.1-9.3 0-5.5-3-18-6.6-27.9-1.6-4.2-1.5-4.4.5-6.3 1.8-1.7 2.1-3.1 2.1-10.6 0-7.1-.4-9.5-2.7-14.6l-2.7-6 2.2-3.8c2.8-4.9 2.8-5.5-.7-13.1-4-8.8-3.9-8.2-4.7-29.3-.3-10.5-1-19.7-1.5-20.6-.4-.9-.6-1.8-.4-2.1.5-.5-1.8-13.6-3.9-22.8-1.4-6.1-4.4-14.6-6.6-19-.6-1.1-1.4-2.8-1.8-3.7-.5-1-1.4-2.7-1.9-3.8-.6-1.1-2-3.8-3.1-6s-3-5.8-4.3-8c-5.9-10.5-6.7-12.2-7.4-15.3-.5-2.6-.3-3.6 1.1-4.6 1.6-1.2 1.6-1.7.1-7.9-1-3.6-1.7-9.1-1.7-12.2 0-3-.4-5.5-1-5.5-2 0-1.1-11.7 1.1-15.4 1.2-2 2.3-3.6 2.5-3.6.8 0-.8 5.5-2.4 8-1.4 2.3-1.4 2.4 0 1.2 3.1-2.5 5.8-10 5.8-15.9.1-5.4.3-5.9 3.3-7.8 2.7-1.7 6.5-7.2 9.2-13.5.4-.8 1.5-3.3 2.5-5.5 4.9-10.9 5.9-13.4 7.4-17.9 1.2-3.3 1.3-5.2.6-6.1-.5-.6-.7-1.4-.4-1.8 1.1-1.1-4.4-3.7-12.2-5.8-9.1-2.3-25.3-2.8-32.3-.9-2.4.6-5.4 2.3-6.7 3.7l-2.3 2.5-3.1-2.5c-4.3-3.6-14.3-5.3-19.7-3.4-1.7.6-2.3.5-2.3-.6 0-3.9-13.8-11.6-24-13.5-3-.6-8.9-1.3-13.1-1.7l-7.5-.5z"/></svg>