<svg xmlns="http://www.w3.org/2000/svg" width="682.667" height="512" version="1.0" viewBox="0 0 512 384"><path d="M0 55.6c0 52.6.1 55.6 1.8 54.9.9-.3 4.6-1.6 8-2.8l6.4-2.2-.6-4.6c-1.3-9.9 5-30.4 13.3-43.1C40.7 39.7 56.6 32 79.2 33.3l8.8.4 12.2-11.9C111.1 11.3 123.5 1 125.4 1c1.5 0 6.2 12.1 10.2 26l4.2 14.5 5.7 2.3c11.9 4.8 24.6 15.1 32.2 26.2 8.9 13.1 12.3 24.1 12.3 39.9 0 10.3-.3 12.2-2.5 17-3.6 7.8-2.8 11.9 4.7 21.9 2.1 2.9 3.6 5.7 3.3 6.2s-2.6 2.4-5 4.1c-4.3 3.1-4.5 3.4-4.5 8.3 0 12.8 3 38 4.9 41.8 1.4 3 1.6 3.8.5 3.4-1.9-.7-1.9 3.6.1 7.4 1.4 2.7 1.4 3-.1 3-1.2 0-1.5.6-1 2.2.3 1.3 1.1 6.3 1.7 11.2 1.1 8 1.5 9.1 4.6 12.2s3.4 3.9 3.1 8.6c-.2 2.8-.8 5.3-1.3 5.5-.6.2-2.3-2.5-3.8-5.9-4.4-10-4.6-10.2-9.6-8l-4.2 1.7 2 2.6c2.2 2.8 1.3 4.9-2.1 4.9-2.6 0-2.2 1.6 1.6 6.3 1.9 2.3 5.1 7.3 7.2 11.2 5.5 10.3 5.8 10.5 12.6 10.5 4.1 0 6 .4 6.4 1.4.3.8-.2 4.4-1.1 8s-1.3 7.1-1 7.7c.9 1.4 10.5 5.9 12.7 5.9 1.9 0 5.8 3.7 5.8 5.5 0 .7-1.1 2.9-2.5 4.9-3.8 5.5-3.1 10 2.2 15.5 3.6 3.6 13.7 17.7 18.1 25.2 6.4 10.8 11 18.8 12.4 21.6l1.1 2.3H512V0H280C126 0 48 .3 48 1c0 .5-.7 1-1.5 1S45 1.5 45 1c0-.6-8.2-1-22.5-1H0zm105-45.5c0 2.4-2.3 2.1-2.8-.4-.2-1 .3-1.7 1.2-1.7 1 0 1.6.9 1.6 2.1M329 73c0 1.3-2 1.3-4 0-1.2-.8-.9-1 1.3-1 1.5 0 2.7.4 2.7 1m178.5 0c.3.5-.3 1-1.4 1-1.2 0-2.1-.5-2.1-1 0-.6.6-1 1.4-1s1.8.4 2.1 1m-23 32.2c-.4 1.3-.9 3.1-1.2 4.1-.6 2.2-3.6 1.8-4.1-.5-.3-1.8 3-5.8 4.9-5.8.6 0 .8.9.4 2.2M406 126.9c0 .5-1.3 1.1-3 1.3-2.4.4-2.7.2-1.9-.9 1.3-1.5 4.9-1.8 4.9-.4m-160.7 98.2c-1.3 1.3-6.8.8-6.7-.6.1-.6 1.2-1.5 2.5-2.2 2-1 2.7-1 3.9.2 1 1.1 1.1 1.8.3 2.6M473 322.4c0 1.6-1.4 3.6-2.6 3.6-1.4 0-1.9-2.2-.7-3.3.7-.8 3.3-1 3.3-.3M9.5 148c-1.9 2.1-6 2.7-7 1-2-3.2-2.5.7-2.4 19.7.1 24.2-.3 24.3 8.5-2.5 5-15.2 5.5-17.5 4.2-18.8s-1.7-1.2-3.3.6M0 251.2v21.3l2.8-5.4 2.7-5.4 17-8.8c9.4-4.8 19.2-9.4 22-10.1l5-1.3-4-.6c-2.2-.4-5.4-1.2-7.1-2-2.7-1.1-4-1-8.8.5-7.7 2.4-12 1.5-20.8-4.5-4-2.7-7.6-4.9-8-4.9-.5 0-.8 9.6-.8 21.2m0 41.3c0 9.3.4 16.5.8 16 .5-.6 1.4-4.8 2-9.5.8-6.7.8-10-.2-15.3-.8-3.7-1.7-7.1-2-7.4-.3-.4-.6 7-.6 16.2m180.4 66.1c.9 5.5-.1 19.5-1.9 23.7-.6 1.5-.1 1.7 3.9 1.7h4.7l-.2-4.3c-.1-2.3.4-5.2 1.1-6.4 2.2-3.5-.1-15.1-3.5-18.1-4.4-3.7-5.3-3-4.1 3.4"/></svg>