<svg xmlns="http://www.w3.org/2000/svg" width="682.667" height="512" version="1.0" viewBox="0 0 512 384"><path d="M0 192v192h20.7l2.6-10.2c1.4-5.7 3.1-12.8 3.7-15.8s1.3-6.5 1.7-7.8c.5-2 .2-2.2-2.8-2-2.9.3-3.4-.1-4.2-2.9-.8-2.6-.6-3.7 1.1-6.1 1.2-1.6 1.9-3.2 1.6-3.4-.3-.3.7-2.7 2.1-5.2 3.9-6.9 4.5-16.9 1.6-23.1-2.3-4.9-2.2-6.6.2-4.7 1.9 1.6 2.7.5 2.7-3.4 0-3.1 2.1-6.4 4.1-6.4.5 0 .9-.8.9-1.8 0-3.4 4-17.4 6.3-22.2 2.5-5.2 2.2-6.4-1.8-7.2-2.4-.5-2.3-3.2.4-9.3 1.8-4 2.8-4.8 14.2-10.7 16.4-8.4 23.3-11.1 36.7-14.4 6.1-1.5 10.9-3.1 10.5-3.6-.3-.5-1.6-.7-2.9-.4-1.3.4-2.4.2-2.4-.3 0-1.2-2.5-2.6-6.1-3.4-2.2-.6-2.8-.2-4.2 2.6l-1.6 3.2v-2.8c-.1-3.4.6-3.4-15.6.6-.5.2-3.9 1.7-7.5 3.5-9.6 4.7-12.2 4.4-21.8-2.8-4.3-3.3-8.5-6-9.2-6-1.5 0-11.2 5.4-15.6 8.7-1.7 1.3-3.4 2.3-3.8 2.3-1.3 0 2.8-6 6.6-9.6 6.6-6.2 20.5-34 25.1-49.9 3.8-13.2 6.5-25.7 5.3-24.5-2.3 2.3-7.5.8-21.3-6.2-7.9-4-14.3-7.8-14.3-8.6 0-.7.5-2.3 1.1-3.4.9-1.7.6-3.4-1.6-8.9-1.5-3.7-2.5-7.5-2.2-8.3.7-1.8 7.2-2.2 9.7-.6 1 .6 2.7-.1 6-2.5 2.6-1.9 7.3-4 11-4.9 3.6-.9 6.9-2.1 7.4-2.6s1-5.6 1.1-11.2c.3-15.4 5.7-32.9 13.7-44.1 3.3-4.6 10.6-11.4 15.6-14.4 5.3-3.2 16.4-6.2 25.9-7l7.2-.6 5.8-7.5c3.2-4.1 6.2-8 6.8-8.6.5-.7 1.9-2.2 2.9-3.4l1.9-2.2H0zM67 6c0 .5-.4 1-.9 1-.6 0-1.3-.5-1.6-1-.3-.6.1-1 .9-1 .9 0 1.6.4 1.6 1m73.2-4.3c.9 1 3.9 6.4 6.7 12 2.8 5.7 5.8 10.4 6.8 10.7s4.2 1 7.1 1.6c7.5 1.4 20.7 8.1 28.4 14.4 20.9 17.3 32.6 50.6 24 68.4-2.6 5.4-2 7.3 3 9.7 4.8 2.3 5.2 3.8 1.5 4.5l-2.7.5 3.5 5.2c1.9 2.9 3.5 5.7 3.5 6.2 0 .6-1.9 2.2-4.3 3.6l-4.4 2.5.4 5.7c.2 3.2.8 11 1.3 17.3l1 11.5 4.7 6.8c8.5 12.2 8.1 11.4 5.8 9.7-1.1-.8-2.8-2.3-3.9-3.2-3.3-3-2.9-1.2 1.2 5.9 2.2 3.7 3.8 7 3.6 7.2s-2.4-1-4.9-2.8c-5.2-3.7-5-4-3.5 7.8 1.1 8.2.7 10.2-.9 5-.8-2.6-.9-.8-.5 7.6.5 8.5 1 11.4 2.4 13 .9 1.1 2 4 2.4 6.5.4 2.4 1.1 4.9 1.7 5.6.6.8.5 1.3-.5 1.7-.8.3-1.7 2-2.1 3.7-.5 2.4.2 4.8 3.3 11.3 3.1 6.4 8.2 22 8.2 25.1 0 .3 2.5.2 5.5-.1 6.3-.7 6.5-.3 3.9 6.8-.9 2.4-2.2 7-2.9 10.3l-1.3 5.8 3.5 3.8c1.9 2.2 5.2 4.5 7.6 5.3 5.3 1.7 6.2 5.3 2.3 8.5-1.8 1.4-2.6 2.9-2.6 5.2 0 1.7-.4 3.9-1 4.9-1 1.9 1.9 9.7 13.1 34.8l5.4 12.3H512V0h-39.5c-38.3 0-39.5.1-38.4 1.9 1.4 2.2.6 5.1-1.5 5.1-1.8 0-5.6-3.9-5.6-5.7C427 .2 401.1 0 282.8 0c-137.2 0-144 .1-142.6 1.7M361 78.5c1.7 2.1-1.1 3.1-4.1 1.5-1.7-1-1.9-1.4-.8-2.1 2-1.3 3.5-1.1 4.9.6m104 39.9c0 .6-1.8 1.9-4 2.8-4.5 1.9-5.1.8-1.6-2.7 2.5-2.4 5.6-2.5 5.6-.1M272 234.5c1.7 2.1.3 3.5-3.6 3.5s-4.4-1.2-1.2-3.4c2.8-2 3.2-2 4.8-.1m226.9 95.7c-.8 1.4-1.4 1.7-2.2.9-.7-.7-.6-1.5.3-2.5 1.7-2.2 3.2-.9 1.9 1.6"/><path d="m209.1 231.5-3.4 1.2 5.7 3.3c3.2 1.7 6 3 6.3 2.7.6-.6-3.8-8.8-4.6-8.6-.3.1-2.1.7-4 1.4M78.2 355.6c-.7.8-2.2 1.4-3.2 1.4-1.8 0-2 .7-2 8.9 0 4.8.3 10.9.6 13.5l.7 4.6h5.8c3.3 0 5.9-.3 5.9-.8-.1-1.3-2.8-16.6-4-21.6-1.5-6.7-2.2-7.8-3.8-6"/></svg>