<svg xmlns="http://www.w3.org/2000/svg" width="682.667" height="512" version="1.0" viewBox="0 0 512 384"><path d="M0 192v192h27.7l2.7-12.4c1.5-6.8 3.1-14.9 3.5-18l.8-5.6-3 .3c-4 .3-5.7-3.9-3.4-8.6 4.4-9.2 6.5-15.8 7-22 .2-3.7.1-7-.4-7.3-.8-.5-3.9-6.9-3.9-8.1 0-.2.8.1 1.9.6 2.4 1.3 3.1.5 3.1-3.5 0-2.2.8-4.1 2.4-5.6 1.7-1.6 2.8-4.2 3.6-8.8.6-3.6 2.5-9.8 4.2-13.8 3.1-7.4 3-8.7-.7-9.4-2.6-.5-2.2-4.7.8-10.2 1.7-3 4.1-4.9 10.2-8.3 14.7-8 22.1-11.2 33.1-14.3 11.2-3.1 13.1-4.1 12-5.9-1-1.6-8.2-1.3-10 .4-.8.8-1.7 1.1-2 .7-.7-1.2-13.2 2.2-19 5.2-7.9 4.1-11.3 3.5-22.5-4.5-3-2.2-6-3.9-6.8-3.9-1.7 0-8.5 4.2-14.1 8.7-5.3 4.3-5.6 2.3-.7-4.2 10.8-14.1 24.3-50.7 26-70.5.2-1.9.6-5.4 1-7.8.9-4.9-.4-5.6-3-1.6-1.3 2.1-2.2 2.5-4.3 1.9-3-.7-30.2-15.4-30.2-16.3 0-.3.5-2 1.2-3.8 1-2.8.8-4-1-8.4-1.2-2.9-2.2-6.4-2.2-7.8 0-2.4.1-2.5 6-1.9 5.6.6 6.3.5 10.4-2.4 2.4-1.7 7.4-4.1 11.1-5.3l6.8-2.2-.2-8.2C47.7 78 52.3 60 58.7 49.1 62.2 43 70.4 34.4 76 30.8c5.7-3.7 15.2-6.5 26-7.7 6.7-.7 8.8-1.3 9.8-2.9 2-3.1 11.1-14.3 14-17.5l2.6-2.7H0zM69.8 6.9c.3.8-.1 1.2-.9.9-.7-.2-1.5-1-1.7-1.7-.3-.8.1-1.2.9-.9.7.2 1.5 1 1.7 1.7m71.4-4.7c.8 1.3 3.8 6.6 6.7 12l5.2 9.6 7.7 1.7c9.4 2 21.7 7.9 29.4 14 12.3 9.8 22.6 26 26.3 41.2 2.1 8.9 1.8 21.2-.8 26.2-2.1 4.2-2.1 5.4-.2 9.1 1 1.9 2.5 3.1 4.7 3.5 6.8 1.4 10 5.5 4.2 5.5-2.9 0-3.1 1.1-.4 3.5 3 2.7 2.5 4.2-2.5 7.7-2.8 2-4.4 3.8-4.1 4.7.2.9 1.2 7 2.1 13.6s2 14.8 2.5 18.3c.7 4.8 1.8 7.5 4.4 11.3 4.3 5.8 4.5 6.7 1 4.4-1.4-.9-2.7-1.5-3-1.3-.2.2 1.4 3.3 3.6 6.8s3.8 6.6 3.5 6.8c-.2.2-1.8-.6-3.5-1.8s-3.3-2.1-3.4-1.9c-.2.2 0 3.8.5 7.9 2.5 20.9 2.9 23 4.8 24.9 2.2 2.2 3.5 6 2.9 8.6-.6 3.2-2.3 1.9-5.7-4.3-3.9-7-4.4-7.2-12.8-3.7l-3.8 1.6 2.5 1.9c1.4 1.1 4.4 2.9 6.7 4.1 6.5 3.3 8.6 6 7.3 9.3-1.6 4.2-1.2 7.1 1.5 12.2 2.2 4.2 7.2 19 8.9 26.7.5 2.2 1.1 2.7 2.4 2.1 3-1.3 7.9-1.6 8.6-.6.3.5-.3 3-1.4 5.4-1.1 2.5-2.6 7.2-3.4 10.5-1.3 5.6-1.2 6.4.4 9 2.3 3.7 4.9 5.9 10.1 8.6 2.4 1.2 4.5 2.8 4.7 3.5s-1 2.4-2.7 3.9c-1.8 1.6-3.1 3.7-3.1 5.1 0 1.3-.5 3.2-1 4.2-1.1 2.1 2.3 11.9 11.8 34l4.9 11.5 121.7.3 121.6.2V0H139.8zm296.8.7c2.2 4.2.8 7.7-2.4 6.5-2-.8-4.9-6.1-4.1-7.4 1.1-1.7 5.4-1.1 6.5.9m-72.1 76.4c1.2 1.6.5 2.7-1.8 2.7-2.4 0-4.4-1.6-3.7-2.9 1-1.5 4.1-1.4 5.5.2M472 118.9c0 .7-6.4 4.1-7.5 4.1-1.3 0-.2-2.4 2-4.6 2.1-2.1 2.9-2.3 4-1.4.8.7 1.5 1.6 1.5 1.9m-206 46.5c0 1.1-1.9 1.5-2.5.6-.3-.5.1-1 .9-1 .9 0 1.6.2 1.6.4m10.3 71c.7 1.8-1.2 3.6-3.9 3.6-3.1 0-4.1-2-1.9-3.7 2.4-1.7 5.1-1.7 5.8.1m226.5 94.3c-.5 2.5-2.8 2.8-2.8.4 0-1.2.6-2.1 1.6-2.1.9 0 1.4.7 1.2 1.7M103.6 223.6c-.9 2.4-.8 2.4 2.5 1.2 2.3-.8 2.7-1.3 1.7-1.9-2-1.3-3.5-1.1-4.2.7M79 363.9c0 4.3.3 10.6.6 14l.7 6.1h4.8c6 0 5.9.5 1.9-15.4-1.7-6.5-3-12-3-12.2s-1.1-.4-2.5-.4c-2.5 0-2.5.1-2.5 7.9"/></svg>