<svg xmlns="http://www.w3.org/2000/svg" width="682.667" height="512" version="1.0" viewBox="0 0 512 384"><path d="M0 192v192h66v-22.9l-2.7.2c-2.3.2-2.9-.4-4-3.6-1.1-3.3-1.1-4.6.2-8.3.8-2.5 1.5-5.1 1.5-6 0-.8.6-2.5 1.3-3.7 2-3.2 1.1-11.4-1.4-12.8-1.1-.5-1.9-2-1.9-3.4 0-1.3-.4-2.7-1-3-1.7-1.1-1.1-2.4 1.5-3.1 2.3-.6 2.5-1.1 2.5-6.6 0-5.1.3-6.1 2-6.5 1.3-.4 2.1-1.7 2.6-4.2.7-4.5 3-14 3.9-16.4.4-1 .3-1.7-.4-1.7-1.4 0-1.4-7.3 0-14.2 1-4.7 2-6.2 8.8-13l7.8-7.6-5.7-2.1c-9.4-3.4-10.3-3.1-17.9 6.7-4.5 5.9-4.7 5.5-3.1-4.3.9-5.9 3.9-30.7 4.5-37.5.2-1.9 1-10.3 1.9-18.5.8-8.3 1.5-15.9 1.4-17s.4-4.6 1.1-7.8 1-6.1.7-6.5c-.4-.3-1.9.7-3.4 2.1-1.6 1.5-3.5 2.7-4.3 2.7-.7 0-5.4-2.2-10.2-5-4.9-2.7-9.7-5.2-10.7-5.5s-2.3-1.2-2.9-1.9c-.7-.8-2-1.2-3-.9-2.9.7-4.6-2.2-3.2-5.5 1-2.3.8-3.5-.8-7.3-1.1-2.4-2.1-5.5-2.1-6.7 0-2.3.3-2.4 5.8-2 5.1.2 6.4-.1 9.8-2.4 2.2-1.5 6.9-3.9 10.4-5.4 8.7-3.5 9.1-3.9 7.8-7.6-2.5-7.1 2.2-31.9 8.3-44.4 7.9-16 22.7-26 41.7-28l6.3-.7 6.9-9.6c3.8-5.3 8.9-11.8 11.3-14.5l4.3-5 4.3 5.3c2.3 3 6 8.6 8.3 12.5 5.9 10.1 6.4 10.6 11.5 10.6 5.4 0 18.7 4.1 26.8 8.3 9.2 4.8 25 21.1 29.8 30.7 7.7 15.5 9.7 29.9 5.6 39.9l-2.2 5.2 2.4 4.7c1.3 2.6 4.6 7.1 7.3 10l5 5.3-4.4 4.4-4.3 4.3 1.8 7.4c4.4 17.9 13.8 40.6 24.2 58.5 2.8 4.7 4.3 6.3 5.9 6.3 2.8 0 8.1 4.9 9 8.4 1 4.1-.1 4.2-4.8.4-2.4-1.9-5.7-4.3-7.5-5.3l-3.2-1.9-4.6 4c-10.9 9.2-13.5 10-19 6.4-3.4-2.2-8.5-2.6-10.3-.8-.8.8-1.2.8-1.2.1 0-1.2-7.5-3.3-11.7-3.3-1.5.1-4.1.7-5.8 1.4l-3 1.3 6 1.3c6.7 1.4 27.5 11.7 31.8 15.8 2.5 2.4 2.8 3.2 2.6 9.2-.1 4.9.3 7.3 1.9 10 1.9 3.4 6.9 17.9 9.2 26.8 1 3.9 1.4 4.3 3.3 3.7 1.2-.4 3.7-.9 5.5-1.2l3.4-.5-2.5 4.8c-1.4 2.7-3 7.5-3.6 10.6-1 4.8-1 6.1.4 8.8 2.4 4.7 9.6 11.6 13.9 13.4 3.3 1.4 3.7 1.8 2.6 3.2-.8.8-2.8 2.1-4.6 2.9-6 2.5-5.3 6.6 5.3 32.2l2.6 6.3H512V0H0zM87 5.6c0 .2-.7.4-1.5.4S84 5.6 84 5c0-.5.7-.7 1.5-.4.8.4 1.5.8 1.5 1m371.2 9.1c2 1.8 2.5 8.3.6 8.3-3.7 0-7.7-8.1-4.5-9.3 1.9-.8 1.9-.8 3.9 1m-69.4 71.5c.3 1.3-.3 1.8-2 1.8-2.6-.1-6.1-2.4-5.1-3.4 1.4-1.4 6.8-.1 7.1 1.6M504 122.5c-.8.9-2.6 2.3-4.2 3.1-2.5 1.3-2.8 1.3-2.8-.3 0-.9 1.2-3 2.7-4.5 2.4-2.5 2.9-2.6 4.2-1.4 1.2 1.3 1.2 1.8.1 3.1m-243.7 12.1c2.6.9 4.4 2 4.1 2.5-.8 1.3-10.1 1.1-12.6-.2-2.1-1.1-2.1-1.2.3-2.5 3-1.7 2.7-1.7 8.2.2m17.9 37.6c-.9.9-1.5.9-2.4 0s-.7-1.2 1.2-1.2 2.1.3 1.2 1.2m16.6 73.9c.2 1-.6 1.9-1.8 2.2-2.8.7-5-.1-5-1.8 0-2.8 6.3-3.1 6.8-.4"/></svg>