<svg xmlns="http://www.w3.org/2000/svg" width="682.667" height="512" version="1.0" viewBox="0 0 512 384"><path d="M0 192v192h69.8l4.6-6.4c3-4.2 4.7-7.8 5.1-10.5 1.6-12.8 1.8-11.6-1.7-11.6-2.8 0-3.2-.4-4.5-4.9-1.3-4.3-1.2-5.3.1-8.8.9-2.1 1.3-5 1-6.3-.4-1.5.1-3.6 1.3-5.5 1.7-3 1.7-3.2.1-4.1-1-.6-1.8-1.6-1.8-2.2 0-.7-.9-3-2-5.2-1.1-2.1-1.9-3.9-1.7-3.9 3.3-1 4.2-2.7 4.7-9.1.4-5.4.9-7 2.5-7.9 1.1-.6 2.3-1.5 2.7-2 1.1-1.6 3.7-17.9 4.3-27.6.7-10.7 1.5-12.3 8.8-19.3 4.6-4.3 4.8-4.7 2.5-4.7-1.3 0-6.3-2-11-4.5l-8.5-4.5-7.2 6.9c-5.8 5.6-7.1 6.4-7.1 4.7 0-1.2.7-3.2 1.6-4.4 3.7-5.4 11.6-39.2 14.9-64.2 2-15.6 2.2-14.7-2.7-16-2.4-.6-8.5-2.5-13.7-4.2s-10.8-3.1-12.5-3.2c-2.8-.1-3.1-.4-3.6-4.1-.3-2.2-2.3-6.8-4.4-10.2s-3.6-6.9-3.3-7.6c.6-1.7 5.2-2.7 9-2 2.2.4 3.5-.1 6-2.5 2.2-2 5.3-3.6 9.7-4.7 3.5-.9 7.6-2.5 9-3.5 2.6-1.9 2.6-1.9 2.2-13.7-.4-10.3-.1-13.1 2.2-22.1 4.5-17.7 13-30.9 24.6-38.4 5.7-3.6 18.6-7.8 24.8-7.9 8.6-.2 9.7-.9 16-9.4 3.3-4.4 7.6-9.5 9.5-11.3l3.4-3.3 4 4.8c2.2 2.6 5.7 7.5 7.8 10.8s3.9 6.1 3.9 6.2c.1.1 4.5.9 9.7 1.7 18.4 2.8 28.2 7.8 41.5 21.1 7.9 7.8 9.8 10.4 13.7 18.5 5.5 11.7 6.7 16.5 6.7 27.7 0 6.9-.4 9.8-2 12.8-1.1 2.2-2 4.5-2 5.3 0 1.9 6.5 15.6 9.1 19.4l2.2 3.1-3.6 3.4c-2 1.8-3.7 4.2-3.7 5.2 0 5.7 5.2 31.9 6.8 34.1 1 1.4 3.6 5 5.7 8l4 5.5-3.9-2.9c-4.6-3.4-4.4-2.4.9 5.9 3.6 5.7 3.5 6.6-.3 3.9-3-2.1-2.9-1 1.4 11.9 2.3 6.8 4.2 11.1 5.3 11.4 4.8 1.7 9.6 10.2 7.1 12.6-.9.9-1.8.4-3.8-2.3-1.5-1.9-3.9-4.8-5.3-6.4l-2.6-2.9-8.5 4.6c-9.6 5.2-12.3 5.7-16.2 2.6-1.4-1.1-3.6-1.9-4.8-1.7-1.8.2-.2 1.5 6.7 5.2 5 2.7 11.1 6.3 13.8 7.9 4.4 2.9 4.7 3.3 4.7 7.4 0 2.5-.5 5.3-1 6.3-.8 1.5-.4 3.2 1.9 7.7 3.6 7.3 9.7 27 9.2 30-.1.9.8.8 3.3-.2 3.4-1.4 7.6-2 7.6-1.1 0 .3-1.1 2.6-2.5 5.2s-2.5 5.7-2.5 7c0 1.2-.4 3.4-1 4.8-1.9 5.1 6 17 14.2 21.2l4.1 2.1-2.4 1.6c-1.3 1-3.1 1.7-3.9 1.7-.9 0-2.1 1.5-2.8 3.3-1.3 3.7-.8 5.8 5.9 24.2l4.2 11.5H512V0H0zM100.5 3c.3.5.1 1-.4 1-.6 0-1.1-.5-1.1-1 0-.6.2-1 .4-1 .3 0 .8.4 1.1 1M476 30.4c0 1.1-.5 2.8-1 3.6-.7 1.2-1.3 1.1-3.4-1-3-2.7-3.4-6.4-.8-7.9 2.1-1.3 5.2 1.9 5.2 5.3m-72 61.1c2.6 3.2-2.4 4.9-5.5 1.9-1.3-1.4-1.4-1.9-.3-2.5 2-1.3 4.4-1.1 5.8.6m-118.4 59.2c1.4.5.6 1-3.1 1.9-5.4 1.4-7.8.8-5-1.3 2.1-1.4 5.3-1.7 8.1-.6M289 177c0 .5-.7 1-1.5 1s-1.5-.5-1.5-1c0-.6.7-1 1.5-1s1.5.4 1.5 1m20.3 75.4c.8 1.9-.1 2.6-3.5 2.6-3.2 0-3.7-1.4-1-2.9q3.6-2.1 4.5.3"/><path d="M133.8 236.7c.7.3 1.6.2 1.9-.1.4-.3-.2-.6-1.3-.5-1.1 0-1.4.3-.6.6m-10.8 1.9c-2.6.8-6.2 1.2-8.5.9-3-.4-4.8 0-7 1.5l-3 2 3-.1c3.8 0 25.9-5.7 22.5-5.8-1.4 0-4.5.7-7 1.5"/></svg>