<svg xmlns="http://www.w3.org/2000/svg" width="682.667" height="512" version="1.0" viewBox="0 0 512 384"><path d="M0 192v192h66.8l4.4-5.2c10.2-12.2 10.7-13.1 11.4-20.3.7-6.4.6-6.7-1.3-6.1-2.5.8-3.8-.7-5.3-6.3-1-3.8-.9-5 .6-8.2 1.1-2.5 1.5-5.1 1.1-7.3-.4-2.4-.1-3.9 1-4.7 1.3-1.1 1.3-1.4.1-2.3-1.3-1-4.8-10.1-4.8-12.4 0-.5.9-1.2 2-1.5 1.7-.4 2-1.4 2-6.7 0-5.6.3-6.5 3-9 3.8-3.5 6.7-15.5 7.3-29.3.4-10.6.9-11.7 7.7-18.5 3-3 3.7-4.2 2.5-4.2-1.7 0-16.9-7.3-19.3-9.2-1.4-1.2-2.5-.4-11.4 8.1-6.7 6.4-7.7 5.2-3-3.3 6.2-10.9 14.5-45.5 17.6-72.9.5-4.1.3-4.7-1.3-4.7-1 0-7.6-2-14.5-4.5-7-2.5-14.1-4.5-15.8-4.5-2.9 0-3-.1-2.5-3.5.5-2.9 0-4.7-2.4-8.7-1.7-2.8-3.3-6.3-3.6-7.9-.5-2.4-.2-2.9 2.1-3.5 1.5-.3 4.2-.4 6-.1 2.7.4 4 0 6.7-2.2 1.9-1.6 5.9-3.5 8.9-4.4s6.8-2.5 8.4-3.4l2.8-1.8.3-15c.2-16.5 1.8-24.1 7.6-36.2 3.5-7.4 12.3-17.3 19.4-21.8 6.1-3.9 17.1-7.2 28-8.2l7.9-.8 3.8-5.4c2-2.9 6-7.8 8.8-10.8l5.1-5.5L162 16c2.2 2.4 5.8 7.1 8.1 10.6s4.2 6.4 4.3 6.4 3.9.5 8.4 1c9.2 1.2 19.8 4.7 28.2 9.3s21.7 18.7 26.7 28.2c8 15.4 10.6 32.8 6.3 42.4-1.1 2.4-2 5.2-2 6.2 0 2.1 4.6 11.8 8.6 18.1 1.3 2.1 2.4 4.4 2.4 5.1 0 .8-1.8 2.6-4.1 4.1-4.6 3.1-4.4.5-1.3 22.6 1.6 11.5 2.5 13.9 7.9 20 1.2 1.4 3.1 3.8 4.1 5.5l1.9 3-3.8-2.8c-3.8-2.9-4.7-2.6-2.4.8.8 1.1 2.7 4.2 4.3 7l2.9 5-4.8-2.8-4.8-2.9.6 3.9c.4 2.1 1.8 8.3 3.2 13.8 2.1 8.8 2.8 10.4 6 13 2.8 2.5 3.6 3.9 4 7.8.7 6.2-.8 6.1-5-.6-5.6-8.6-5.7-8.6-14.3-4.4-4.1 2-8.7 3.7-10.2 3.7-3.1.1-3.5-.2 11.6 8.4l6.9 3.9.2 4.9c.1 2.8-.3 5.6-1 6.4-.9 1.1-.4 2.9 2.5 8.7 2 4.1 4.8 12.4 6.4 18.6 2.9 12 2.5 11.6 8.9 9 4.3-1.7 5-.7 2.4 3.6-1.2 2-2.8 6.5-3.7 10-1.5 5.8-1.5 6.8-.1 10.2 2 4.9 10.3 13.6 14.5 15.3 3.8 1.5 3.2 2.8-2.1 4.6-1.8.6-3.2 1.7-3.2 2.5s-.6 1.9-1.3 2.4c-1.3 1 1.4 10 8.8 29.7l2.1 5.8H512V0H0zM104 2c0 .5-.4 1-1 1-.5 0-1-.5-1-1 0-.6.5-1 1-1 .6 0 1 .4 1 1m376 31.6c0 3.4-1.8 3.9-4.6 1.3s-3.2-6.6-.6-7.2c2.2-.5 5.2 2.8 5.2 5.9m-72 60.3c.7 1.4.7 2.2-.1 2.6-1.1.8-6.9-1.3-6.9-2.5 0-2.6 5.6-2.7 7-.1m-117.5 60.7c1.3.5.7 1-2.2 2-4.4 1.6-6.3 1.7-6.3.6 0-1 3.8-3 5.7-3.1.6-.1 1.9.2 2.8.5m-.4 23.7c-.1 1.2-1.5.9-1.9-.4-.3-.6.1-1 .8-.8.6.3 1.1.8 1.1 1.2m90.9.7c0 .5-.4 1-1 1-.5 0-1-.5-1-1 0-.6.5-1 1-1 .6 0 1 .4 1 1m-68.1 75.3c.8 1.1.6 1.6-1.2 2.4-2.6 1.2-4.7.7-4.7-1.2 0-2.4 4.1-3.2 5.9-1.2"/><path d="M126.5 234.6c-2.7.9-7.5 1.7-10.5 1.9-3.4.2-7 1.1-9.3 2.5-2 1.2-3.7 2.3-3.7 2.5 0 .4 4.7-.5 17.8-3.2 8.3-1.8 12.2-3 12.2-4 0-1.6-.2-1.6-6.5.3m8-.6c-.8 1.3 1.5 1.3 3.5 0 1.2-.8 1.1-1-.7-1-1.2 0-2.5.4-2.8 1"/></svg>