<svg xmlns="http://www.w3.org/2000/svg" width="682.667" height="512" version="1.0" viewBox="0 0 512 384"><path d="M203.5 20c-2.1 2.2-3.6 4.2-3.3 4.6.4.3 0 2.1-.8 3.9-.8 2-1 3.6-.5 4 .6.3.4 2-.5 4.1-.8 2-1.3 4.2-1 5 .3.7.1 2.7-.4 4.5-.6 2.1-.6 3.7.1 4.5s.7 1.4-.1 1.9c-1.1.7-1.4 5.8-.4 6.8.4.4.8 2.6 1 4.9.7 7.1.6 7.1 8.1 6.3 3.7-.4 7.4-1 8.2-1.3 1.5-.6-1.7 3.9-7.5 10.3-1.5 1.6-3.9 5-5.5 7.4-2.6 4.1-2.7 4.5-1.3 7.2.8 1.6 1.8 2.8 2.2 2.8.4-.1 1.2 0 1.7.1 1.5.3 3.8.6 6.1.8 2.1.2 2.2.6 2.1 11.4-.2 13.7 1 33.7 2 34.1 1 .3 2-4.6 2.2-10.1.1-2.6.5-4.1 1.1-3.7 1.4.9 1.2 8.2-.2 8.8-1 .3-.9 1.2.5 3.5.9 1.6 1.7 3.4 1.7 3.9 0 .4-2.5 2.1-5.6 3.7-7.7 4-12.9 10.8-14.3 18.4-.6 3.1-2.1 10-3.3 15.2l-2.3 9.5-6.2-.3c-3.5-.2-6.3-.2-6.3 0 0 .3.9 3.1 2 6.3s2 6.7 2 7.8c0 4.4-16.5 44.7-26.2 64.1l-6.1 12.1 2.2 18c1.1 9.9 2.5 24.3 3.1 32.1 1.2 16.1 2.9 23.4 7.1 28.6l3 3.7-2.5 9.6-2.4 9.5h79c62.8 0 78.9-.3 78.5-1.3-.3-.6-6.4-13.4-13.5-28.2-13.6-28.2-14.7-31.3-18.7-48.6-1.3-5.9-3.9-14.4-5.7-19-2.6-6.6-3.3-10-3.5-15.9 0-4.1-.4-13.8-.8-21.5-.7-13.3-.6-14.6 1.9-24.5 2.9-11.4 5.3-16 3.9-7.5-.4 2.7-.8 12.6-.7 22 .1 38.6 6.4 69.7 18.6 92.4 5.6 10.3 18.4 29.9 22.6 34.3 2.1 2.3 2.4 3.3 1.8 6.7-.3 2.3-.2 4.1.3 4.1.9 0 2.6-4.8 2.2-6.3-.4-1.9 2.1.7 3 3 .5 1.4 1.2 2.3 1.6 1.9.3-.3.1-1.6-.6-2.9-1.1-2.1-.9-2.7 2.5-6.1l3.7-3.7-.6-9.7c-.3-5.3-1.7-14.2-3.1-19.7-1.8-7.4-2.1-10.2-1.3-10.7.7-.4 1.8-1.1 2.5-1.6.8-.5 1.5-4.4 1.9-10.3.5-8.4.3-9.9-1.6-13.6-2.3-4.6-2.8-8.4-1-8.1 1.6.4 1.5-6.2-.5-37.2-.6-8.4-1.4-16.6-2.2-21-.1-.8-.5-3.5-.9-6-.3-2.5-.9-5.2-1.2-6-.4-.8-.8-2.6-.9-3.9-.2-1.4-.7-3.6-1.2-5s-1.5-4.6-2.2-7.1c-1.8-6.2-14-31.3-18.5-38-8.7-12.7-8.7-12.8-9.1-29.4-.3-8.5-.9-15.2-1.4-15.4-.6-.2-1-3.1-1-6.5 0-5.1.4-6.7 2.5-9.2 2.8-3.4 3.3-2 .9 2.8l-1.5 3.2 2-2.5c3-3.7 5.1-10.6 5.1-16.7 0-3.7.4-5.3 1.3-5.3 1.7 0 6.7-5.2 6.7-6.9 0-.7 1.1-2.7 2.5-4.5s2.5-3.9 2.5-4.6.6-2.1 1.3-2.9c.8-.9 3.3-5.8 5.7-10.9 4.3-9.2 4.3-9.2 2.7-12.7-1.9-3.9-3.3-4.7-15.2-7.7-9.2-2.4-24.5-2.9-31.3-.9-2.5.7-4.9 2.2-5.8 3.7l-1.7 2.5-2.6-2.5c-3.3-3.1-10.7-5-17.1-4.4-3.6.4-5 .2-5-.8 0-3.7-15.2-12.1-27.9-15.3-12.2-3-14-2.9-18.6 1.9m70.2 121.9c-.5 2.1-2.7-3.2-2.7-6.2.1-1.7.4-1.5 1.6 1.2.8 1.9 1.3 4.2 1.1 5m43.2 81.7c1.1 5 2.1 10.7 2.2 12.5.2 1.9.6 4.2 1.1 5.1.6 1.3.5 1.8-.5 1.8-1.6 0-5.7-8.7-5.7-12.1 0-1.3-.5-6-1.2-10.4-.6-4.5-.8-9-.3-10.1.9-2.2.7-2.7 4.4 13.2"/></svg>