<svg xmlns="http://www.w3.org/2000/svg" width="682.667" height="512" version="1.0" viewBox="0 0 512 384"><path d="M0 192v192h25.4c16 0 25.7-.4 26.1-1 .4-.7 1.2-.7 2.5 0 1 .5 3.2 1 4.9 1 2.5 0 3.9-1.2 9.2-7.8 3.5-4.2 8.8-10.6 11.9-14.2 4.9-5.6 5.8-7.2 6.4-11.9.6-4.5.5-5.3-.8-4.8-2 .8-3.1-.9-4.5-6.6-.9-3.9-.9-5.7.3-9.7 1.7-5.8 1.2-17.9-1-22.2-1.4-2.6-1.3-2.8 1.1-3.4 3.1-.8 4-3.8 3.1-10.3-.6-4.9.5-7.1 4.3-8.3.8-.2 2.6-3.5 4-7.4 2-5.5 2.5-9 2.7-17.6.2-11.5.7-13 7.2-19.1 2.4-2.3 5.8-3.5 19.6-6.9 10.8-2.6 16.6-4.4 16.3-5.1-.6-1.7-7.5-1.2-9.6.7-.9.9-2 1.4-2.2 1.1-1-.9-14.6 1.7-18.7 3.7-5.8 2.7-9.4 2-19-3.6-4.2-2.6-8.1-4.6-8.7-4.6-.5 0-4.6 3.3-8.9 7.2-7.3 6.7-7.9 7-7.2 4.3.4-1.7 2-4.8 3.6-7.1 5.6-7.9 15.2-40.2 18.5-62.5.9-5.7 1.8-11.3 2.1-12.5.5-1.8.2-2.1-1.9-1.7-2.3.5-7.3-1.4-21.2-7.8-3.8-1.8-8.1-3.3-9.5-3.3-2.3-.1-2.5-.5-2.3-4 .2-2.4-.7-6.5-2.2-10.2-1.4-3.4-2.5-6.7-2.5-7.3 0-2.1 4.9-3.2 9.1-2.1 3.5 1 4.3.8 7.3-1.5 1.8-1.4 5.9-3.4 9.1-4.5 3.3-1.1 6.9-2.7 8.1-3.5 2.1-1.3 2.2-1.8 1.2-4.6-1.7-4.9-.3-22 2.6-32.6C91.7 53 101.5 39.9 116 32.5c5.3-2.7 16.5-5.4 25.7-6.1l8.3-.7 6.9-8.6c9.6-12.1 9.5-12 13.2-8.5 1.7 1.6 5.1 5.9 7.6 9.6 5 7.3 5 7.3 13.8 8.3 15.1 1.7 29.5 8.7 40.6 19.7 8.7 8.7 13.8 16.3 18.1 27.2 2.7 7 3.2 9.6 3.6 19.2.3 8.8.1 11.7-1.2 14.2-.9 1.7-1.6 4-1.6 5 0 2.9 4.3 11.9 8.4 17.9 2 2.9 3.6 5.9 3.6 6.7 0 1.7-6.5 7.6-8.5 7.6-1.4 0-1.4-.2.5 20.2l.9 9.7 5.7 7.8c3.1 4.3 6.2 8.1 6.8 8.5s.8.9.5 1.3c-.3.3-2.3-.6-4.3-2l-3.7-2.5 2.7 4.8c1.5 2.6 3.6 5.9 4.6 7.4 2.3 3.3 1.5 3.5-3 .8-1.8-1.1-3.5-2-3.8-2s-.3 3.5 0 7.7c.5 6.9.5 7.4-.7 4.6-1.6-4.1-3-5.5-2.3-2.3.3 1.4 1 6.5 1.6 11.5.9 7.3 1.6 9.5 3.6 11.6 1.9 2 2.4 3.6 2.4 7.7 0 2.9-.3 5.2-.7 5.2-.5 0-2.5-3.3-4.6-7.4l-3.8-7.4-3.4.9c-1.9.5-5.8 2-8.7 3.3l-5.2 2.3 3.4 1.9c1.9 1 7.1 3.7 11.5 6 7.6 3.9 8.1 4.4 8.9 8.3 1.1 5.2-.4 9.4-3.1 8.4-1.7-.6-1.7-.5-.1 1.3 3.4 3.9 8.8 17.2 10.9 26.9 1.2 5.5 2.3 10.1 2.4 10.3.1.1 1.9-.5 4-1.3 5.9-2.5 6.9-1.5 3.9 4.5-3.3 6.5-4.6 14.7-3.2 19.7 1.2 4.3 10 14.1 13.6 14.9 3.3.9 2.7 3.2-1 4.2-2.1.5-3.3 1.5-3.3 2.5 0 .9-.8 2.2-1.7 2.9-1.6 1.2-1.2 2.7 4.4 19.5l6.1 18.3H512V0H0zM487 33.9c1.3 2.6 1.3 7.8-.1 8.7-1.2.7-5.8-4.2-5.9-6.3 0-1.3 2.7-4.3 4-4.3.5 0 1.4.9 2 1.9m-72.2 62.7c1.2.8 2.2 1.9 2.2 2.5 0 1.2-4.7 1.2-7.1-.2-1.6-.8-1.8-1.3-.8-2.5 1.5-1.8 2.9-1.8 5.7.2M299 164.5c-3.5 2-6.2 1.9-3.6 0 1.1-.8 2.9-1.5 4-1.5 1.9.1 1.9.2-.4 1.5m-3 16.5c0 .5-.7 1-1.5 1s-1.5-.5-1.5-1c0-.6.7-1 1.5-1s1.5.4 1.5 1m24.3 76.7c1 1-1.3 3.3-3.4 3.3s-3.3-1.5-2.4-3c.7-1.1 4.8-1.4 5.8-.3"/><path d="M141 228.6c-1 1.1-1 1.4.1 1.4.8 0 2-.4 2.7-.9 1.1-.7 1.1-.9-.1-1.4-.9-.3-2.1.1-2.7.9"/></svg>