<svg xmlns="http://www.w3.org/2000/svg" width="682.667" height="512" version="1.0" viewBox="0 0 512 384"><path d="M0 192v192h24.8c18 0 25.1-.3 26-1.2s1.5-.9 2.4 0c2.8 2.8 5.3 1.2 11.8-7.4 3.6-4.8 7-9.1 7.6-9.8 3.6-3.8 15.2-20.6 16.2-23.4s.9-3.5-.7-5.1c-2.8-2.8-3.7-12.9-1.6-17.1 1.1-2.2 1.5-4.4 1-6.6-.4-2.4-.1-4.3 1.2-6.4 1.6-2.8 1.6-3.1 0-6.5-2.1-4.4-2.2-4.2.7-4.9 1.9-.5 2.6-1.5 3.1-4.6.4-2.2.4-5.3 0-6.9-.8-3.9.9-7.1 3.9-7.1 2.8 0 4.2-1.5 5.2-5.5.4-1.7 1.5-4.7 2.6-6.8 1.4-2.8 1.9-6 1.9-12.7l.1-8.9 5.4-5.1c2.9-2.7 5.8-5 6.5-5 1 0 13.8-4.7 14.6-5.4.1 0-2.6-.1-6-.1-4.6.1-7.1.6-9.7 2.3-5.3 3.3-10.4 2.9-17.6-1.4-10.1-6.2-11.1-6.6-13.4-5.4-1.2.6-5 3.6-8.6 6.6-7.1 6-8.1 5.4-3.2-2.2 7-10.7 16-38.3 21.2-64.9 2.9-14.8 3.2-18.5 1.4-16.7-2.1 2.1-4.6 1.3-17.3-5.3-6.9-3.6-13.2-6.5-14-6.5-2.4 0-2.7-1.9-.8-5 1.5-2.6 1.6-3.4.4-6.3-2.7-6.9-3.3-9.8-2-11.3 1.2-1.5 7.1-1.8 10.4-.5 1.4.6 2.9.2 4.7-1.1 1.5-1.1 6.2-3.5 10.3-5.4 6.9-3.2 7.5-3.7 6.8-5.7-1.7-4.8-.7-21.9 2-32 8.1-30.4 25.9-46.1 55.5-48.8 5.3-.4 10.2-.8 10.9-.9.6 0 2.7-2.4 4.6-5.3 2-2.8 4.7-6.4 6.1-7.9s2.6-3 2.6-3.3S137.2 0 88.5 0H0zM189.7 2.2c1.1 1.3 3.9 5.1 6.2 8.5 2.5 3.8 5 6.5 6.4 6.7 14.6 3 18.9 4.3 25.6 7.7 12.3 6.1 26 19.9 32.4 32.6 6.8 13.3 9.5 31 6.2 40.7-2.2 6.5-.1 12.9 7.9 24.1 2 2.7 3.6 5.8 3.6 6.8 0 2.2-5.6 7.5-8.4 7.9-2.5.4-2.5 1.2-.7 17.8 1.7 16.3 1.7 16.3 7.7 24.1 3.1 3.9 5.4 7.3 5.2 7.5s-2.1-.8-4.1-2.2c-2-1.3-3.7-2-3.7-1.5 0 .6 1.8 4 4 7.6 4.1 6.7 3.8 7.9-1.1 4.5l-2.8-2.1.3 15c.3 12.9.7 15.6 2.6 19.3 1.4 2.9 2 5.7 1.8 8.3l-.3 4-3.4-6c-5.6-10-5.2-9.8-13-6.8-3.6 1.4-8.6 2.9-11.1 3.3l-4.5.6 13.7 6.8c7.6 3.7 14.1 7.2 14.5 7.8 1 1.8 2.2 9 1.6 10.5-.3.7-1.4 1.3-2.5 1.3s-1.8.3-1.6.7c.2.5 2.1 4.4 4.2 8.7 2.7 5.4 4.5 11.3 6 18.8 1.9 10 2.3 10.8 4.1 10.2 7.6-2.4 8.7-1.6 5.9 3.7-.8 1.7-2.1 6.3-2.8 10.2-1.4 8.6-.5 13 3.9 18.4 4.5 5.4 5.1 5.9 8.4 7.3 3.4 1.4 3.2 2.6-.5 4-1.4.6-2.4 1.8-2.4 2.9 0 1-1 2.5-2.1 3.3l-2.1 1.4 2.2 7.9c1.2 4.4 3.8 12.8 5.6 18.7l3.5 10.8H512V0H187.7zM500 41.9c1.2 2.4 1.3 7.8.1 8.5-1.2.8-6.1-5.1-6.1-7.4 0-3.2 4.4-4 6-1.1M425.1 102c1 .6 1.9 1.7 1.9 2.5 0 1.8-3.3 2-6.1.4-1.6-.8-1.8-1.3-.8-2.5 1.4-1.7 2.4-1.8 5-.4M325 174c1.2.8.9 1-1.3 1-1.6 0-2.6-.4-2.2-1 .8-1.2 1.6-1.2 3.5 0m-21 11c0 .5-.7 1-1.5 1s-1.5-.5-1.5-1c0-.6.7-1 1.5-1s1.5.4 1.5 1m26.9 78.3c1.3 1.7.5 2.7-2.4 2.7-1.2 0-2.5-.3-2.8-.7-.9-.8 1.2-3.3 2.8-3.3.7 0 1.8.6 2.4 1.3M142.2 224c-4.8 1.1-5.4 2.4-.7 1.5 4.3-.7 8.3-2.5 5.5-2.4-.8.1-3 .5-4.8.9m96.8 2.8c0 .8 4.3 3.2 5.7 3.2.3 0-.6-.9-2-2-2.7-2.2-3.7-2.5-3.7-1.2m13.3 148.9c-.6 2.7-1.4 5.6-1.8 6.5-.5 1.4-.2 1.8 1.4 1.8 1.9 0 2.1-.6 2.1-6.5 0-3.6-.2-6.5-.4-6.5s-.8 2.1-1.3 4.7"/></svg>