<svg xmlns="http://www.w3.org/2000/svg" width="682.667" height="512" version="1.0" viewBox="0 0 512 384"><path d="M0 192v192h22.4c12.4 0 22.7-.4 23-.9.4-.5 2.2-.5 4.3 0 8.1 1.8 5.9 3.7 24.3-20.7 4.1-5.4 8.3-10.8 9.3-11.9 2.1-2.1 6.7-11.2 6.7-13.1 0-.6-.6-1.7-1.4-2.3-2.3-2-3-11.4-1.1-15.2 1.2-2.3 1.5-4.5 1.1-7.5-.4-3.3-.1-4.8 1.6-6.9 1.7-2.2 1.9-3 .9-5.1-1.6-3.6-1.4-5.2.9-5.9 1.7-.6 2-1.5 2-7.3 0-7.8 1.7-11.2 5.6-11.2 2 0 2.8-.8 4-3.8.8-2 2.6-6.2 4-9.3 2.3-4.8 2.6-6.7 2.2-12.8l-.4-7.1 4.1-4c2.2-2.2 7-5.2 10.9-6.8 6.2-2.7 6.6-3 4.2-3.6-1.9-.5-4.5.2-9.1 2.5-7.3 3.5-9.3 3.3-17.6-1.9-2.4-1.5-6-3.6-8.1-4.6l-3.6-2-3.9 2.9c-2.1 1.5-5.7 4.6-8 6.8-2.4 2.3-4.5 3.9-4.7 3.6-.7-.6 2.9-7.9 5.4-10.9 2.4-3 12-30 15.4-43.8 2.3-9 7.6-34.5 7.6-36.6 0-.5-.9-.1-1.9.8-2.5 2.3-3.9 1.8-17.1-5.2-5.8-3.2-11.7-6.2-13.2-6.9-3.2-1.4-3.4-2-1.2-5.1 1.7-2.4 1.5-4.4-.7-11.9-2-6.6 1.3-8.8 9.7-6.4 2.6.7 3.9.4 8-2.2 2.7-1.7 6.9-3.8 9.4-4.8 2.8-1.1 4.3-2.3 4.1-3.1-1.4-4.2-1.1-19.2.4-26.4 6.3-28.5 19.3-45.4 40.6-53 2.4-.8 10-2.1 16.8-2.9 9.2-1.1 12.7-1.9 13.4-3 .5-.9 3.1-4.5 5.7-8l4.9-6.5H0zM201.3 8.1c5.5 8.7 5.6 8.8 16.2 11.3 16.7 4 31 13.9 41.7 29.1 5.2 7.3 7.5 12.3 10.4 22.5 2.7 9.2 2.8 16 .8 31.2-.5 4.1-.2 5.4 2.7 10.5 1.8 3.2 4.8 7.9 6.6 10.4 1.8 2.6 3.3 5.3 3.3 6.2 0 2.5-7.1 7.9-9.8 7.4-2-.4-2.3-.1-1.8 1.7.2 1.1.9 5.7 1.5 10.1s1.5 11.9 2.2 16.7c1 8.2 1.4 9.2 6 15.3 2.7 3.6 4.7 6.5 4.4 6.5s-2.2-1.1-4.2-2.5c-2-1.3-3.9-2.2-4.1-2-.3.2 1.3 3.5 3.6 7.2 2.2 3.7 3.8 7 3.6 7.2s-1.5-.4-3-1.3c-1.4-1-2.7-1.6-2.9-1.4-.9 1 4.3 30.8 5.8 33.1 1 1.6 1.7 4.5 1.7 7.4l-.1 4.8-1.6-3c-1.3-2.5-5.4-8.3-8.3-11.7-.3-.5-4.4.8-9 2.7-9.9 4.1-12.9 4.3-18.1 1.3-2.8-1.6-4.2-1.9-5-1.1s-.5 1.3 1.1 1.8c1.2.4 9.2 4.1 17.6 8.1 16.7 8.1 17.4 8.7 17.4 16.5 0 3.5-.3 3.9-2.5 3.9-3.1 0-3.1.1 0 4.5 3.4 5.1 6.4 13.6 8.4 23.7.9 4.8 1.9 9 2.3 9.4.4.3 2.1.1 3.9-.5 5.2-1.8 6.1-.1 3.1 6-2 4.1-2.5 6.6-2.6 13.3-.1 8.1 0 8.5 3.9 14.1 2.4 3.6 5.2 6.3 7.2 7.2 3.9 1.6 4.2 3 .8 3.9-1.7.4-2.5 1.3-2.5 2.9 0 1.2-1 2.9-2.2 3.8l-2.3 1.5 2.6 9.8c1.5 5.5 3.7 13.6 5 18.1l2.4 8.3H512V0H196.1zm303.3 37c1.3 2.5 1.4 3.7.5 5.7l-1.2 2.5-2.4-2.3c-3.4-3.2-4.1-5.8-1.8-7.5 2.6-2 3.1-1.9 4.9 1.6m-75.8 59.5c3 2.1 2.8 3.4-.5 3.4-3.7 0-5.5-1.3-4.7-3.3.8-2.1 2.3-2.1 5.2-.1M331.5 178c.4.6-.5 1-2 1s-2.4-.4-2-1c.3-.6 1.2-1 2-1s1.7.4 2 1m-25.5 8c0 .5-.4 1-1 1-.5 0-1-.5-1-1 0-.6.5-1 1-1 .6 0 1 .4 1 1m27.9 78.9c1.7 1.1.5 3.1-1.9 3.1s-3.6-2-1.9-3.1c.8-.5 1.6-.9 1.9-.9s1.1.4 1.9.9m-79.6 104.9c.3 1.2-.1 4.6-.9 7.5-1.7 6.5-1.7 6.7 0 6.7.7 0 1.6-1 2-2.3 1-3.8.7-12.5-.6-13.3-.8-.5-.9 0-.5 1.4"/></svg>