<svg xmlns="http://www.w3.org/2000/svg" width="682.667" height="512" version="1.0" viewBox="0 0 512 384"><path d="M0 192v192h58.8l6.8-8.2c3.8-4.6 8.7-10.6 10.9-13.3 2.2-2.8 4.2-5.2 4.5-5.5 1.1-1 7.5-9.5 8.6-11.5.8-1.5.8-3.8.1-8.4-.9-5.3-.7-7.1.8-11.3 1.4-3.9 1.5-5.5.6-7.4q-1.95-4.35 3-7.8c1.6-1.1 1.9-1.8 1.1-3.2s-.5-2.3 1.4-4.1c2.1-1.9 2.4-3.1 2.4-9.1 0-7.7.9-9.2 5.6-9.2 3 0 3.4-.5 7.4-8.8 3.8-8 4.1-9.2 3.8-15l-.4-6.4 4-3.2c2.3-1.7 6.2-4.2 8.8-5.4 5.2-2.6 7.6-4.9 3.7-3.7-1.3.4-4.8 1.8-7.8 3.1-7.8 3.5-10.4 3.1-20.1-2.6-4.7-2.7-9.3-5-10.2-5-1 0-5.4 2.9-9.8 6.5-4.4 3.5-8 6.2-8 5.8 0-1.6 4.3-9.3 5.2-9.3 3 0 17.6-38.8 22.8-61 1.2-5.2 2.9-11.9 3.7-14.9 1.4-5.4 1.4-5.4-1.2-8-2.4-2.4-2.7-2.5-3.9-.9-2.8 3.7-4.4 2.9-22.4-11.6l-6.2-5 3.7-3.8c3.4-3.5 3.6-4.1 3.4-9.2-.3-7 1.6-8.4 8.1-6.1 4.2 1.5 4.5 1.4 11.6-1.7l7.2-3.3-.7-4c-1.2-6.8-.4-16.9 2.2-27 6.3-24.8 19.6-40.9 39.7-48.1 2.4-.8 9.4-2.1 15.7-2.9 7.3-.8 11.7-1.8 12.2-2.7 1.8-3 16.1-22.6 19.5-26.6l3.7-4.2H0zM202.6 1.2c.4.7 1.9 2.8 3.3 4.7s5.8 9 9.6 15.9l7 12.4 7 2.2c33 10.4 54.8 45.1 48.3 76.6-1 5.2-.9 6.1 1.1 10.2 1.2 2.5 4.8 7.5 8.1 11l5.9 6.5-3.2 3.4c-1.8 1.9-4.9 4.6-6.8 6.1l-3.6 2.6 4.4 21.7c3 15 4.9 22.6 6.4 24.6 1.4 2.1 1.6 2.7.5 2.3-1-.4-1.3 0-1 1.3 6.4 27.5 7.9 32.5 11.6 40.1 1.7 3.4 2.8 6.5 2.5 6.8s-2.1-1.1-3.9-3.2c-6.1-7-8.5-9.4-9.7-9.4-.6 0-4.2 1.5-7.9 3.4-11.9 5.9-13.3 6.1-20.1 3.1-5.6-2.6-10.1-2.7-10.1-.4 0 1 4.8 3.1 12.5 5.6 2.8.9 7.6 3.4 10.7 5.5s6.2 3.8 6.7 3.8c2.1 0 4.2 6 3.9 11.3-.3 4.5-.6 5.2-2.2 4.9-1.2-.2-1.7.1-1.3 1 4.4 10 6.2 15.8 7.5 23.3l1.5 9 3.8-.3c4.8-.5 5.8 1.4 3.6 6.6-2.4 5.4-4.8 17.2-4.1 19.6 1.8 6.1 5 10.9 8.6 12.7 4.4 2.2 4.7 3.2 1.7 5.3-1.6 1.1-2 2.1-1.5 3.9.4 1.8-.2 3.2-2.3 5.5l-2.8 3.2 1.8 7.2c1 4 1.9 8.5 1.9 10v2.8h210V57.8l-2.5-3c-3.2-3.7-3.2-5.5 0-7l2.5-1.1V0H356.9C233.2 0 202 .3 202.6 1.2M435.1 109c2.9 1.6 2.4 4-.8 4-3.7 0-5.7-1.4-5-3.4.7-1.8 3-2.1 5.8-.6m-91.7 75.9c.7 1.1-1.8 2.1-5.2 2.1l-2.7-.1 2.5-1.4q4.35-2.55 5.4-.6m-32.2 4.3c-.9.9-1.5.9-2.4 0s-.7-1.2 1.2-1.2 2.1.3 1.2 1.2m32.2 79.7c.7 1-1.7 2.1-4.5 2.1-1 0-1.9-.7-1.9-1.5 0-1.7 5.5-2.2 6.4-.6"/></svg>