<svg xmlns="http://www.w3.org/2000/svg" width="682.667" height="512" version="1.0" viewBox="0 0 512 384"><path d="M0 192v192h58.8l5.9-6.8c11.8-13.9 21.8-26.4 23.4-29.4 1.4-2.8 1.5-3.8.3-8.4-1.2-4.5-1.2-5.6.1-8 .8-1.7 1.5-5.6 1.5-9.1 0-5.2.4-6.4 2.3-8 1.2-1 2.1-2.6 1.9-3.5s.6-2.6 1.7-3.7c1.7-1.7 2.1-3.4 2.1-9 0-8.2 1.6-10.6 6.3-9.7 2.4.5 3 .2 3.5-1.6.3-1.1 1.8-4.5 3.4-7.4 2.3-4.4 2.8-6.6 2.8-12.1 0-6.2.2-7 3.2-10 2.7-2.7 2.9-3.3 1.3-3.3-1 0-6.5-2.5-12.1-5.5-5.7-3-10.6-5.5-10.9-5.5-.2 0-4.1 3.2-8.5 7.1-4.4 3.8-8 6.5-8 5.9 0-1.8 3.1-7.3 5.6-10 6-6.5 18.5-43.5 23.4-69.8 2-10.6 2.1-11.4.5-13.8l-1.7-2.6-1.4 2.1c-.9 1.2-2.4 2.1-3.4 2.1-1.8 0-14.2-7.9-22.4-14.4l-3.9-3 4.3-3.7c3.7-3.2 4.1-3.9 3.1-5.7-1.5-2.7-1.4-8.5.1-10 1.6-1.6 6.7-1.5 9.8.2 2.2 1.3 3 1.1 9.3-2.2 5.6-3.1 6.7-4 6.2-5.7-3.7-12.9 1.5-37.8 11.1-53.2 5.1-8.2 13.7-16.5 21.1-20.6 6.6-3.5 17.4-6.3 28.4-7.2l8.7-.7 9.1-12.6c5-7 11.1-14.9 13.5-17.5l4.4-4.9 4.4 6.4c2.4 3.4 7.2 12 10.7 19l6.4 12.6 6.1 2.2c18.5 6.7 34.3 22.2 41.9 41.3 4.5 11.3 6 26.4 3.2 34-.9 2.6-1 4.8-.5 6.9 1.3 4.3 6.2 11.6 10.9 16.3 2.3 2.1 4.1 4.3 4.1 4.8 0 1.9-6.4 8.7-9.1 9.6-1.6.5-2.9 1.4-2.9 2 0 .5 2.5 10.6 5.4 22.3 7.5 29 16.6 56.9 21 63.8 5.3 8.3 4.6 10.1-1.5 4-9.1-9.1-8.4-9-19.8-3.1-5.5 2.8-10.8 5.1-11.8 5.1-1.1 0-4.3-1.2-7.2-2.6-4-2-6.1-2.5-9-2-2.1.3-6.9-.1-10.7-.9-14.8-3.1-12.6-1.7 8.6 5.5 9.3 3.2 17.2 6.5 19.7 8.4 2.3 1.7 5.3 3.9 6.6 4.8 1.5 1 2.9 3.5 3.6 6.2 1.7 6.7 1.4 9.4-1 10.1-1.4.5-1.8 1.2-1.3 2.3 2.2 5 5.3 15.6 6.4 22 1.3 7.1 1.5 7.3 3.9 6.9 5.7-1.1 6.2 1 3.1 11.3-2.8 9-2.7 18.4.2 22.6 1.2 1.8 3.7 3.9 5.5 4.8 3.8 1.8 4.1 2.9 1.4 5.3-1.4 1.2-1.8 2.4-1.4 4.4.4 2.1-.1 3.6-2.1 6-2.9 3.4-2.9 3.3-.5 14.1l1.1 4.8H512V0H0zm438.3-80.6c3.5 2.7.5 5.6-3.6 3.5-2.9-1.6-2.8-1.4-2.1-3.3s3.2-2 5.7-.2m-89.9 77.2c2.4.9.9 2.4-2.5 2.4-1.7 0-3.9.5-5 1-3.2 1.8-2.1.1 1.4-2 3.5-2.2 3.8-2.3 6.1-1.4M314 190c0 .5-.7 1-1.5 1s-1.5-.5-1.5-1c0-.6.7-1 1.5-1s1.5.4 1.5 1m33.3 80c.6 0 .4.7-.5 1.6-1.2 1.2-2.4 1.5-4.5.9-2.7-.6-2.7-.7-.8-2.1 1.1-.8 2.6-1.2 3.3-.9.8.3 1.9.5 2.5.5"/></svg>