<svg xmlns="http://www.w3.org/2000/svg" width="682.667" height="512" version="1.0" viewBox="0 0 512 384"><path d="M0 192v192h51l7.3-9.3c9.6-12.1 10.9-14.1 12.9-20.7 1.7-5.3 1.7-5.6-.1-7-1-.8-2.4-3.9-3.1-6.8-1-4.5-1-5.7.4-8.6.9-1.9 1.6-5.3 1.6-7.7 0-2.5.7-5 1.6-6 1.7-1.9 1.6-2.8-1.1-11.5-.5-1.6-.2-2.3 1.4-2.7 1.9-.5 2.1-1.3 2.1-7.1 0-5.3.4-7 2-8.6 1.1-1.1 2.6-2 3.4-2s1.7-1.4 2.1-3.3c1.2-5.9 3.8-13.2 5.6-15.8 1.8-2.5 1.7-2.5-.4-2.5-1.9.1-2.3-.5-2.5-3.8-.5-6 .4-8.2 4.9-11.5 7.9-5.7 8.3-7.4 8.1-28.9l-.1-7.3-4 2.1c-6.8 3.4-7.8 2.7-3.7-2.9 2-2.7 3.6-5.1 3.6-5.4 0-.2-1.9 1.3-4.2 3.4s-4.3 3.7-4.5 3.5.4-2.2 1.2-4.6c1.7-4.7 1.4-6-1-4s-1.9-.8 1-5.5c1.4-2.2 2.5-4.3 2.5-4.8 0-.4-1.7-.7-3.7-.7h-3.8l5.2-3.2c6.8-4.2 8.1-7.9 9-25.3l.6-13-6.9-1.3c-5.9-1.1-23.2-6-24.3-6.8-.2-.2.4-2.3 1.4-4.7l1.6-4.3-3.1-5.1c-2.4-3.9-3.1-6-2.8-8.9l.3-3.9 5.8-.1c5.1-.1 6.5-.6 10.9-3.8 2.7-2.1 6.5-4.4 8.4-5.2 3.1-1.3 3.4-1.7 2.7-4.2-1.4-4.7-.5-17.4 1.6-25.6 5.3-19.9 17.8-37.5 31.8-44.8 9.8-5.2 18.5-6.8 36-6.8l14.8-.1 13.8-13.4L201 0H0zM208 .5c0 .4.7 2 1.7 3.8 1.6 3.2 7.4 21.3 8.8 27.5.5 2.5 2 4.1 6.8 7.4 20.5 13.6 32.1 33.3 33.4 56.5.5 7.9.2 11.3-1.1 15.2-1.5 4.7-1.5 5.2.3 9.4 1.1 2.5 2.4 4.8 3 5.1.6.4 1.1 1.5 1.1 2.4 0 1 1.6 5 3.5 9s3.2 7.8 2.9 8.6c-.8 2-6.3 5.8-7.4 5.1-1.6-1-1.2.9 2.9 12.2 5.2 14.8 9.4 24 15.3 34.2 8.2 13.9 13.4 20.7 17.5 22.8 3.7 1.9 10.2 9.7 9.1 10.8-.3.3-3.3-1.1-6.6-3.3-3.3-2.1-7.4-4.5-9.1-5.2-3-1.2-3.2-1.1-10.2 5.4-8.5 7.9-10.4 8.2-18 3-3-2-7.5-4.7-10.2-6l-4.7-2.5-.9 2.3-.8 2.2-1.2-2.2c-2-3.7-4.1-2.8-4.1 1.7 0 2.2-.4 4.2-.9 4.5s-1.2 2.3-1.7 4.3c-.7 3.7-.8 3.7-1.5-2.6-.5-3.5-1.2-6.8-1.6-7.2s-4.7 1.3-9.5 3.9l-8.7 4.8 14.7 4.8c16.3 5.3 23.3 8.4 27.5 12.1 2.4 2.2 2.9 3.5 3.4 9.4.4 4.5.2 7-.5 7.5-.8.5-.2 2.4 1.8 6 2.5 4.4 8 21.9 8.3 26.2 0 .7 1.8.9 4.9.6 5.3-.5 5.7.1 3.4 4.6-.7 1.5-2.1 6.2-3.1 10.4-1.4 6.3-1.5 8.4-.5 11.3 1.6 4.8 6.4 10.2 10.7 12 3.8 1.6 3.9 3.4.4 5-1.7.8-2.1 1.6-1.7 3.5.3 1.8-.2 3.1-2 4.5l-2.4 2 2 7c1.2 3.8 3.2 10.7 4.6 15.3l2.5 8.2H512V0H360c-83.6 0-152 .2-152 .5m55 5.1c0 1.3-3 3.4-4.9 3.4-1.8 0-1.2-4.8.6-5.9 2-1.1 4.3.3 4.3 2.5m187.8 116c2.8 1.9 2 3.4-1.7 3.4-3.1 0-5.7-2.3-4.6-4 .9-1.5 3.7-1.2 6.3.6M324 195c0 .5-.9 1-2.1 1-1.1 0-1.7-.5-1.4-1 .3-.6 1.3-1 2.1-1s1.4.4 1.4 1m80.5 4c.3.5.1 1-.4 1-.6 0-1.1-.5-1.1-1 0-.6.2-1 .4-1 .3 0 .8.4 1.1 1m-29.8 5.4c-.2.6-1.8 1.4-3.6 1.9-1.9.4-4.4 1.5-5.7 2.4-2.8 1.8-3 1.2-.8-2.3 2.4-3.6 6.3-5.5 8.6-4 1 .6 1.7 1.5 1.5 2M299 214.5c1.1 1.3.8 1.5-1.9 1.5-3.1 0-4.2-1.4-1.8-2.3 2-.9 2.4-.8 3.7.8m63 63.5c0 .5-1.1 1-2.4 1-1.4 0-2.8-.5-3.1-1-.4-.6.7-1 2.4-1s3.1.4 3.1 1"/><path d="M101.9 239.7c-1.3 1.7-1.3 1.7.6.3 1.1-.8 2.2-1.6 2.4-1.7q.3-.3-.6-.3c-.6 0-1.7.8-2.4 1.7M234.3 363c-1.2.5-2.6 1.7-3.2 2.8-.8 1.6-.2 2.7 4 6.8l5 4.9-.3-7.5c-.3-8-1-8.8-5.5-7"/></svg>