<svg xmlns="http://www.w3.org/2000/svg" width="682.667" height="512" version="1.0" viewBox="0 0 512 384"><path d="M0 192v192h44.6l6.4-8.7c5.5-7.6 6.5-9.6 8.1-17.2 2.4-10.7 2.4-11-.4-12-1.5-.6-2.6-2.3-3.5-5.5-1-4-1-5.1.4-7.9 1-1.8 1.6-4.8 1.6-6.8-.1-2.9.4-4 2.3-5.3 2.8-1.9 3.2-4.7 1-6.6-.8-.7-1.5-2.2-1.5-3.4-.1-1.1-.7-3.2-1.5-4.6-2-3.5-1.9-4 .9-4 2.9 0 3.5-1.9 2.9-8.6-.5-4.5-.3-5.1 2-6.3 1.9-1 2.8-2.9 4.5-9.6 1.7-7 3.1-10.7 7-18.9.3-.5-.3-.6-1.4-.1-5.3 2.1-5.4 2-5.4-3.2 0-6 .8-7 11.8-14.2 7.5-4.9 10.1-7.8 8.8-9.9-.2-.4-.8-3.9-1.1-7.7-.4-3.9-.8-7.2-1-7.3-.2-.2-1 .9-1.9 2.5-1.5 2.7-1.5 2.6-1.6-4.9v-7.6l-4 1.9c-3.8 1.8-6 2.4-6 1.5 0-.3 1.2-1.8 2.8-3.5 1.5-1.7 3.6-4.5 4.7-6.3 1.7-2.9 1.4-2.8-2.9 1.4-2.6 2.7-5.1 4.8-5.6 4.8-.4 0 0-2.2 1.1-5 2-5.3 1.7-6-1.3-3.3-3.1 2.7-2.8 1.1.8-5 1.9-3.2 3.4-6 3.4-6.2 0-.3-1.5-.5-3.2-.5h-3.3l4.7-3.1c6.9-4.5 8-8 8.6-27.4.4-16 .4-16-1.5-13.6-1.8 2.2-2.2 2.3-5.8 1.1-4.1-1.3-24.4-11.6-25.9-13-.5-.5.3-2.4 1.9-4.6l2.9-3.7-1.7-4.7c-2.1-5.9-2.2-9.4-.1-11.4 1.8-1.9 3.4-2 8.5-.5 3.5 1.1 4.3.9 11.2-2.6l7.4-3.9-.5-7c-.9-14 7.5-36.8 18.4-50 5.7-6.9 13.3-12.4 22.7-16.4 6-2.6 6.8-2.7 28-2.8l21.9-.1 9.3-8.1c5-4.4 11-9.2 13.1-10.7 2.1-1.4 4-2.8 4.3-3.1.2-.2-44-.4-98.2-.4H0zM16.1 29.7c1.4 4.5.6 18.5-1.4 23.4l-1.4 3.4-1.3-3.9c-.7-2.2-2.5-6.3-4.1-9-3.1-5.7-4.4-11.4-3.4-14.5.5-1.8 1.2-2.1 3.9-1.5 2.5.4 3.5.2 4-1.1.8-2.3 2.2-1.1 3.7 3.2m189.4-28c1.4 3.7 4.4 14.2 6.4 22.8 1.8 7.3 2.7 9.4 4.9 11 1.5 1.1 6.9 6.1 12.1 11.3 6.1 6 9.9 9.1 10.9 8.7 1.1-.4 1.3.1.9 2.2-.3 1.7.4 4.7 2 8.1 3.4 7.5 7.3 23.3 7.3 29.9 0 2.9-.9 8-2 11.2l-2 5.9 3.6 7.9c1.9 4.3 4.6 9.9 6 12.4 3.1 6.1 3.1 9.2-.2 11.8q-4.5 3.6-7.2.9c-1.6-1.6-2.7 1.4-1.4 3.9.5 1 1.3 3.6 1.7 5.8 3.7 20.9 21.2 54.7 30.7 59.6 4.4 2.3 6.9 4.7 9.3 9.1 2 3.5.4 3.7-3.9.4-1.7-1.3-5.5-3.5-8.4-5-6.1-3.1-5.4-3.3-13.7 5.1-6.4 6.6-9 6.8-16.6 1.7-3-2-7-4.4-9-5.5-3.7-1.8-3.7-1.8-4.3.4-.5 2.1-.7 2-2.6-1.1-2.7-4.4-4.4-4.2-3.6.6.4 2.8 0 4.9-1.4 7.7-1.1 2.2-2 4.4-2 5 0 1.1 7 3.6 13.7 5 1.8.4 5.4 2.3 7.9 4.4l4.7 3.8-.2 7.4c-.2 6.6.2 8.2 3.4 15.3 2.1 4.3 4.7 12 6 17 2.4 9.4 2.5 9.5 7.7 8.1 3.9-1 4.5 1.3 2 7.8-2.4 6-3.6 15.1-2.5 18.8 1.2 4.1 7.4 10.8 11 12 4.1 1.3 4.2 2.5.3 4.7-2.2 1.2-2.9 2.2-2.6 3.7.3 1.1-.3 2.8-1.4 4-1.9 2-1.9 2.1.4 10 1.2 4.4 3.8 12.6 5.6 18.3l3.4 10.2H512V0H358.4C212.5 0 204.8.1 205.5 1.7M270 9c1.2.7 1.2 1.2-.4 2.9-2.4 2.6-5.6 2.8-5.6.3 0-3.4 3-5.1 6-3.2m187.6 117.4c1.5 1.2 1.7 1.7.7 2.7-1.7 1.7-6.7 0-7.1-2.4-.4-2.2 3.5-2.3 6.4-.3m-129.4 71.1c0 .5-.5 1.1-1.1 1.3s-1.1-.4-1.1-1.3.5-1.5 1.1-1.3 1.1.8 1.1 1.3m58.3 12.1c1.4 1.2 1.6 1.8.7 2.1-.7.3-3.3 1.6-5.7 2.9-3.7 1.9-4.5 2.1-4.5.8 0-2.5 2-5.5 4.3-6.4 2.9-1.2 2.9-1.2 5.2.6m-74.6 7c.8.7-5 1.6-6.6 1-1.5-.6-1.5-.8-.3-1.6 1.3-.8 5.7-.4 6.9.6M370 281c0 .5-1.1 1-2.4 1-1.4 0-2.8-.5-3.1-1-.4-.6.7-1 2.4-1s3.1.4 3.1 1m-159-58.9c-4.1 2.2-7.9 4.4-8.4 4.9-.4.4 3.1 2 7.8 3.4 4.7 1.5 9.3 2.9 10.1 3.2 1.2.5 1.5-.6 1.5-6.1 0-4.4-.5-7.1-1.4-8.1-.8-.8-1.6-1.4-1.8-1.4s-3.7 1.9-7.8 4.1m7.5 142.4c-.3 2.2-1.7 7.2-3.1 11.2-1.3 3.9-2.4 7.4-2.4 7.7s3.8.6 8.5.6h8.5v-3.3c0-1.7-.9-4.6-2-6.2-1.2-1.7-2.7-4.4-3.6-6-.8-1.7-2.3-4.1-3.3-5.5l-1.9-2.4z"/></svg>