<svg xmlns="http://www.w3.org/2000/svg" width="682.667" height="512" version="1.0" viewBox="0 0 512 384"><path d="M0 192v192h38.6l3.2-4.5c2.1-3 4-7.7 5.6-14.3 3.7-15 3.8-15.6 1.4-16.7-1.1-.6-2.7-2.8-3.4-5-1.2-3.5-1.2-4.4.2-7.3.9-1.9 1.2-4.2.8-5.4-.5-1.7.1-2.7 2.6-4.8 4.5-3.6 5-9.6 1.5-16.8-3-6.2-3-6.2-.5-6.2 1.8 0 2-.7 2-6 0-5.5.2-6.1 2.5-7 1.4-.5 2.7-1.5 2.9-2.2s1.1-4.7 2-8.8c.9-4.2 2.8-10 4.2-12.9 2.7-6 2.1-8.6-1.6-6.3-2.8 1.7-3 1.6-3-1.7 0-6.6 1.8-8.9 12.4-16 5.5-3.7 12.1-7.8 14.6-9.1l4.5-2.3-5-1.8c-8.2-2.9-10-2.5-12.9 2.3-1.3 2.4-2.8 5.5-3.1 7-.4 1.6-1.1 2.8-1.6 2.8-1.7 0-2-4.8-.5-8.5 1.1-2.6 1.6-6.9 1.6-14.1 0-9.4-.2-10.3-1.7-9.7-1.7.7-1.7.5 0-2.1 2.1-3.2 1.6-4.6-.9-2.5-1.5 1.2-1.6 1.1-.9-1.1.4-1.4 1.4-3.7 2.2-5.3 1.1-2.2 1.1-2.7 0-2.7-.7 0-1.8.5-2.5 1.2-2.4 2.4-2 .1.9-4.5 1.6-2.6 2.9-5.1 2.9-5.6s-1.9-.7-4.2-.5l-4.3.5 3.7-2c4.2-2.4 4.3-2.7 5.8-19.6.6-6.6 1.8-14.9 2.6-18.4 1.3-5.8 1.3-6.6-.1-8-1.5-1.5-1.7-1.4-2.6.1-.6 1-1.8 1.8-2.8 1.8-1.9 0-12-6.9-17.6-12.1-1.6-1.5-4.3-3.8-6-5.2l-3-2.6 4.1-3.5c4.1-3.5 4.2-3.7 3.2-7.5-.7-2.9-.7-4.6.4-6.8 1.7-3.5 4.8-4 10-1.7 3.9 1.7 4.1 1.7 10.7-.6l6.7-2.3.1-7.6c.1-9.6 2.9-19.6 8.9-31.9 3.8-8 6-10.9 13.2-18.1 9.5-9.4 15.5-13 26.4-15.6 7.7-1.8 25.6-1.9 35.6-.1l7.3 1.2 4.2-3.5c2.3-2 4.4-3.8 4.7-4.1 3.8-3.9 22.2-17 24-17 1.2 0 5.5 12.5 8.5 24.8l2.8 11.3 5.2 3.9c19.6 14.5 32.7 46.2 27.4 66.5-.6 2.2-1.3 4.9-1.6 6.1s.8 4.9 2.5 8.5c1.6 3.5 3.3 7.5 3.7 8.9s1.9 4.6 3.3 7.1c2.4 4.3 2.4 4.6.8 7-2.5 3.9-6.2 5.6-8.8 4-1.8-1.1-2.3-1-4.1.8-2 1.9-2 2.4-.8 10.3 2.5 15.7 5.3 27.3 8.8 36.3 5 12.8 11.7 24.8 14.7 26.5 3.7 1.9 9.4 11 7 11-.3 0-2.3-1.3-4.3-2.9-3.8-3-11.7-8.1-12.5-8.1-.3 0-3.3 2.5-6.7 5.5-8.9 7.9-12.7 8-24.1.8-2.2-1.4-2.9-1.5-4.2-.4-.9.7-1.6 2.4-1.6 3.6 0 1.9.9 2.5 5.8 3.8 3.1.8 7.2 1.8 8.9 2.2 1.8.4 5.4 2.6 8 5 4.7 4.2 4.8 4.3 3 6.3-1.3 1.5-1.7 3.2-1.5 6.8.3 4.1.6 4.9 2.4 5.2 4.5.6 6.1 4.1 8.9 19 2.7 14.2 2.8 14.3 5.4 14.2 6-.4 6.4.8 3.1 8.5-2.3 5.3-2.5 9.2-.9 16.7 1.5 6.8 3.3 9.4 8.1 11.9 4.5 2.3 4.7 3.3 1.3 5.5-1.6 1.1-2.5 2.6-2.5 4.3 0 1.5-.4 3.1-.9 3.6-.6.6-.6 2.8-.1 5.5 3.2 16.4 4.4 22.2 5.8 27.2l1.5 5.8H512V0H0zM277 14c2.2 1.4 0 4.4-3.4 4.8-3 .4-3.4-1.2-.9-4 1.8-2.1 2.2-2.1 4.3-.8M37.6 48.2c2.4 5.3 2.4 13.3 0 21.3-1.7 5.7-1.9 5.9-2.9 3.5-.6-1.4-3-6.6-5.4-11.6-4.3-9.2-5.1-12.6-3.4-15.3.8-1.2 1.5-1.3 3.5-.3 1.9.9 2.7.8 3.6-.4 1.9-2.2 2.5-1.8 4.6 2.8M246 61.4c0 1.8-2.6 4-3.4 2.7-.9-1.4.4-4.1 2-4.1.8 0 1.4.6 1.4 1.4M463.1 130c2.1 1.2 2.6 3.9.7 4.1-3.9.4-7.6-2-6.4-4 .9-1.4 3.2-1.4 5.7-.1m-129.6 70c.3.5-.1 1-.9 1-.9 0-1.6-.5-1.6-1 0-.6.4-1 .9-1 .6 0 1.3.4 1.6 1m67 18c-.7 1.2-9.2 6-10.5 6-1.9 0-.1-4.3 3.1-7.3 2.8-2.6 3.1-2.6 5.4-1.1 1.4.9 2.3 2 2 2.4m-80.7-.1c1.1.7 1.1.9-.2 1.4-.9.4-2.3.4-3.2 0-1.3-.5-1.3-.7-.2-1.4.7-.5 1.5-.9 1.8-.9s1.1.4 1.8.9M247.5 261c.3.5-.1 1-.9 1-.9 0-1.6-.5-1.6-1 0-.6.4-1 .9-1 .6 0 1.3.4 1.6 1M378 284c0 .5-1.1 1-2.5 1s-2.5-.5-2.5-1c0-.6 1.1-1 2.5-1s2.5.4 2.5 1"/><path d="M196.1 224.5c-1.9.6-3.6 1.6-3.8 2.2-.2.5 3.8 2.2 8.9 3.7s10.1 3 11.1 3.3c1.4.4 1.7-.1 1.7-3.5 0-3.8-.2-4.1-3.7-5.3-5.1-1.7-10.1-1.9-14.2-.4m19.7 132.2c-1 .2-2.1 1.7-2.4 3.1-1.6 7.1-3.9 15.1-5.6 19-1 2.4-1.8 4.6-1.8 4.8s3.3.4 7.4.4h7.3l.6-6.8c1-10 .8-15.8-.5-18.7-1.1-2.5-1.7-2.7-5-1.8"/></svg>