<svg xmlns="http://www.w3.org/2000/svg" width="682.667" height="512" version="1.0" viewBox="0 0 512 384"><path d="M0 192v192l16.3-.2 16.2-.3 2.4-7c1.2-3.9 3.4-10.8 4.7-15.5 2.2-8.1 2.3-8.5.6-10.5-3.4-3.9-4.5-7.1-3.2-9.4.6-1.2.8-3.5.5-5.1-.5-2.5-.2-3.1 2.4-4.5 1.7-.8 3.7-2.9 4.6-4.5 1.9-3.7 2-14.6.1-18.3-1.3-2.4-1.3-2.7.1-2.7 1.3 0 1.5-.9 1.1-5-.5-5.3.4-7 3.8-7 2 0 2.5-.9 4-7.7.9-4.3 3.2-11.1 5-15.2 1.9-4 3.1-7.8 2.8-8.3-.4-.6-1.9-.7-3.5-.4-2.6.5-2.9.3-2.9-2 0-6 2.3-8.7 14.1-16.1 6.3-3.9 13.1-7.9 15.2-8.9 2.3-1.1 3.7-2.4 3.5-3.3-.5-2.2-3.3-2.5-7-.7-4.8 2.4-8.2 2-17.5-2.4-4.7-2.2-9-4-9.5-4-1.1 0-6.8 6.4-9.4 10.8-1.3 2.1-2.4 3-2.8 2.4-1.2-1.9.5-8.2 2.9-11 2.4-2.9 3.8-7.4 8-25.7 4.8-20.9 11.7-46.6 15.1-55.9 1.5-4.3.9-6.7-1-4-2.1 2.8-5.5 1.1-17-8.8l-10.8-9.3 4.1-3.6c3.8-3.4 4-3.9 3.8-8.7-.1-3.7.3-5.5 1.7-7.1 2.4-2.6 3.8-2.6 9.2 0l4.3 2.2 6-2.3 6.1-2.2v-7.4c0-8.9 3.3-20.3 9.3-31.9 6.1-11.9 17.5-23 29.1-28.6 8.5-4.1 9.1-4.2 21-4.7 6.8-.2 16.7.1 22.1.7 11.2 1.3 10.4 1.6 20-7.4 3.3-3 9.4-7.8 13.5-10.6l7.4-5.1 2.4 5.4c1.3 2.9 3.9 10.9 5.8 17.8 2.8 10.5 3.8 12.8 6.1 14.5 1.6 1.1 6.4 5.6 10.8 10 6.3 6.2 9 9.9 12.2 16.5 7.1 14.4 10.2 32.9 7.1 43.1-1.3 4.6.4 13.6 3.4 17.4 1 1.3 1.8 3.5 1.8 4.9 0 1.5.9 4.4 2 6.6 2.6 5.2 2.5 8.1-.5 11.4-2.4 2.6-2.6 2.6-5.6 1.1-2.8-1.5-3.3-1.5-5.5 0-2.3 1.5-2.4 2-2.4 12.3 0 16.7 1.6 26.8 5.1 32.5 3.4 5.6 3.7 6.7.9 4.2-1.9-1.7-2-1.7-2 .1 0 5.1 7.4 29.1 10.6 34.4 5 8.2 3.9 8.7-3.5 1.7-3.9-3.7-7.6-6.7-8.2-6.7-.7 0-3.7 1.4-6.7 3.2-5 2.8-5.4 3.3-3.7 4.2 2.6 1.5 10.5 9.3 10.5 10.4 0 .5-.9 1.7-2 2.7-2.9 2.6-2.5 6.3 1.5 14.6 1.9 4.1 4.7 12.4 6.2 18.5l2.8 11 4.9-.4 4.9-.5-.6 2.9c-.2 1.6-1.4 5.4-2.6 8.4s-2.2 8-2.4 11c-.2 4.7.2 6 2.7 9.2 1.5 2.1 3.2 3.8 3.6 3.8 1.4 0 2-10.6 2-36 0-14 .3-27.9.7-30.9l.6-5.4 12.2.6c9 .5 13.1 1.1 15.4 2.4 3.8 2.2 3.8.8 1.1 41.4-1.1 16.7-2.7 40.9-3.6 53.8-.8 12.9-1.7 23.8-2 24.3-.3.4 51.3.8 114.5.8H512V0H0zM284.4 21.8c-.6.9-2.3 1.8-3.8 2-2.2.3-2.7 0-2.4-1.4.4-2.4 4.9-4.7 6.3-3.3.6.6.6 1.5-.1 2.7M57.6 67.7c1.2 2.6 1.8 6.2 1.8 11.3.1 7.3-1.8 15.5-3.3 14.6-1.5-1-11.1-21.5-11.1-23.7 0-3.9 1.3-5.1 4.3-4 1.9.8 2.8.6 3.7-.5 1.9-2.1 2.6-1.8 4.6 2.3m193.2-1.5c-.2 1.3-1.1 2.4-2 2.6-2.1.4-2.4-1.8-.6-3.6 1.9-1.9 3-1.4 2.6 1M472 137c0 1.6-4.9 2.3-6.5 1-1.8-1.5-1.9-3.7-.2-4.3 1.5-.5 6.7 2 6.7 3.3m-197 63c0 .5-.4 1-.9 1-.6 0-1.3-.5-1.6-1-.3-.6.1-1 .9-1 .9 0 1.6.4 1.6 1m64 2.4c0 .3-.4.8-1 1.1-.5.3-1 .1-1-.4 0-.6.5-1.1 1-1.1.6 0 1 .2 1 .4m81 3.7c0 .6-.4.7-1 .4-.5-.3-1-1.1-1-1.6 0-.6.5-.7 1-.4.6.3 1 1.1 1 1.6M329.5 221c.4.6-.5 1-2 1s-2.4-.4-2-1c.3-.6 1.2-1 2-1s1.7.4 2 1m81.9 1.5c2.4 1.8 1.9 2.8-3.4 6.4-3.7 2.5-4.6 2.7-5.3 1.5-1.3-2.3 3.3-9 6.3-9.3.3 0 1.3.6 2.4 1.4m-160.7 42.7c-.3.8-.6.5-.6-.6-.1-1.1.2-1.7.5-1.3.3.3.4 1.2.1 1.9m135.6 21.5c-.7.2-1.9.2-2.5 0-.7-.3-.2-.5 1.2-.5s1.9.2 1.3.5"/><path d="M257.2 344c0 1.4.2 1.9.5 1.2.2-.6.2-1.8 0-2.5-.3-.6-.5-.1-.5 1.3m-1.7 6c-1.9 2.1-1.5 8 1 13.5 1.2 2.8 1.3 2.4 1.4-6.3.1-5-.1-9.2-.2-9.2-.2 0-1.2.9-2.2 2m-45.4 9.9c-.6 1.1-1.1 2.8-1.1 3.8 0 1.6-3.8 14.4-5.5 18.5-.6 1.5-.1 1.8 3.3 1.8h3.9l1.2-8.8c1.3-10.8 1.4-15.9.2-16.7-.6-.3-1.5.3-2 1.4"/></svg>