<svg xmlns="http://www.w3.org/2000/svg" width="682.667" height="512" version="1.0" viewBox="0 0 512 384"><path d="M0 192v192h11c8.1 0 11-.3 11-1.3 0-.6 1.8-5.9 4-11.6 4.1-10.7 4.1-11.1.7-14.8-1.6-1.8-1.8-2.7-.9-5.2.8-2.3.7-3.1-.4-3.5-2.3-.9-1.6-2.6 1.4-3.9 4-1.7 8.8-7.5 10.1-12.2 1.3-4.9 1.4-13.5.1-15.5-.6-.9-.5-1.7.2-2.1s.7-1.3-.1-2.7c-.6-1.1-1.1-3-1.1-4.2 0-1.9.5-2.1 4.2-1.8 4.1.3 4.2.2 5.1-3.2 2.2-8.5 6.1-18.9 8.9-23.8 3.3-5.8 2.9-8.4-1-6.3-3.1 1.6-3.6-.2-1.7-5.9 1.6-4.8 2-5.1 12.8-11.4 14.5-8.4 20.9-11.3 28.8-12.9l6.4-1.3-3.4-1.8c-3.1-1.6-3.5-1.7-4.3-.2-1.1 1.9-2.9 2.2-2.2.3.3-.8-.2-2-1.1-2.7-1.2-1-2.7-.9-8 .4-3.5.9-8.8 1.6-11.7 1.6-3.5 0-6.4.7-8.6 2-1.9 1.2-5 2-7.5 2-3.8 0-4.9-.6-10.6-6-3.5-3.3-6.9-6-7.5-6-1.5 0-13.1 7.2-16.1 10-3.4 3.2-4.1.7-1.1-4.4 2.7-4.6 5.5-6.9 9.6-7.9 6.8-1.7 30.6-47.3 35.6-68.2.7-3 .7-3-1.4-1.2-1.3 1.2-2.8 1.6-4.2 1.2-1.5-.5-19.7-13.3-23-16.2-.3-.3 1.4-2.1 3.8-4.1 4-3.5 4.2-4 4.2-9.2 0-3.1.5-6.1 1.2-6.8 1.7-1.7 5.8-1.5 9.9.6 3.6 1.8 3.6 1.8 9-.8 3.5-1.7 5.3-3.2 5-4.1-1.3-4.5-1.1-14.2.3-19.8 5.8-22.6 18.5-40.5 34.5-48.6 11-5.5 22.1-7 39.4-5.6 15.9 1.4 13.3 2.3 25.2-8.9 9.9-9.4 17-14.3 18.3-12.7 2.2 2.7 5.1 9.8 8.7 20.9l3.7 11.8 5.1 2.9c11.3 6.5 22.9 21.6 27.3 35.5 3.9 12.5 5 21.4 3.5 29-1.7 8.4-1.4 9.5 8.4 32.5 2.7 6.2 2.5 8.1-.8 11.8-2.6 2.9-3.3 2.9-6.1-.2-2.1-2.3-2.7-2.4-5.1-1.3s-2.6 1.6-2.1 5.2c.3 2.3 1.1 11.3 1.6 20 1 15.3 1.2 16.1 4 19.9 3.2 4.3 3.2 6.1.2 3.4s-3.5-2-2.7 3.5c.5 2.9.8 6.6.7 8.3-.1 1.6.5 9.4 1.3 17.2s1.5 15 1.5 16c-.1 1.6-.2 1.6-1.2-.2-.6-1.1-2.9-4.1-5.1-6.8-4.2-5-6.1-5.6-11.2-3.2-2.5 1.1-2.7 1.4-.9 1.4 2.1.1 7.5 5.3 10.9 10.5 1.7 2.5 1.7 2.8-.9 6.6l-2.6 3.9 1.9 3.3c2.7 4.5 7 17.8 8.5 25.8l1.2 6.5h4.7c6.4 0 7.1 1.4 4.1 8.2-1.4 3-2.2 5.8-1.9 6.3s-.4 2.4-1.5 4.2-2 4.1-2 5.1c0 2.6 3.9 7.4 7 8.7 1.5.6 3.3 2.3 4.1 3.7 1.3 2.3 1.2 2.7-1.5 4.8-2.3 1.8-2.8 2.9-2.4 5.4.3 2.2-.1 3.6-1.4 4.8-2.3 2.1-2.3 4.5.4 15.9l2.3 9.4h17.1l2.2-12.8c2.4-13.8 2.9-16.7 9.7-53.7 2.5-13.8 5-27.3 5.5-30 .5-2.8 1.7-8.8 2.6-13.5 2.2-12.2 2.1-12 5.6-12 5.1 0 20 3.9 24.3 6.3 3.4 2 4 2.7 3.7 5.3-.3 2.8-17.5 76.7-23.1 99.1l-2.7 11.3H512V0H0zM295.7 27.6c.7 1.8-1.2 3.4-3.9 3.4-2.1 0-2.4-2-.6-3.8 1.7-1.7 3.7-1.5 4.5.4m-39.6 47.7c-.7.7-1.2.5-1.7-.7-.4-1.1-.1-2.1.7-2.7 1.7-1.1 2.6 1.8 1 3.4m223.7 66.3c2.7 1.9 2 3.4-1.7 3.4-3.1 0-5.2-1.6-4.4-3.6.7-1.9 3.3-1.8 6.1.2M430.1 232c1 .6 1.9 1.9 1.9 2.9 0 2.1-7.6 8.5-9 7.6-1.6-1-1.1-4.7 1-8.3 2.1-3.4 3-3.8 6.1-2.2M258 269c0 .5-.4 1-1 1-.5 0-1-.5-1-1 0-.6.5-1 1-1 .6 0 1 .4 1 1m141.7 20.6c-.3.3-1.2.4-1.9.1-.8-.3-.5-.6.6-.6 1.1-.1 1.7.2 1.3.5"/></svg>