<svg xmlns="http://www.w3.org/2000/svg" width="682.667" height="512" version="1.0" viewBox="0 0 512 384"><path d="M0 192v192h16.5l3.9-12 3.9-12-2-2.3c-3.6-3.9-4.4-6.2-2.8-8.4 1.3-1.8 1.3-2.2 0-3.3-1.2-1-1.3-1.6-.4-2.6.6-.8 1.7-1.4 2.4-1.4.6 0 2.7-1.9 4.5-4.2 3.2-3.9 3.4-4.8 3.8-13 .4-7.6.2-9.2-1.4-10.9-1.5-1.7-1.5-1.9-.2-1.4 1.4.6 1.7-.2 2-4.2.3-4.4.5-4.8 3.1-5.1 3.1-.4 3.8-1.6 5.7-10.2.7-3 2.8-8.8 4.6-12.9 3.9-8.4 3.8-11.7-.3-10.6-2.5.6-2.5.5-1.9-3 1.3-6.6 2.6-7.9 15.4-15.4 13.1-7.8 22.5-11.8 30.2-13 2.7-.4-.9-.6-9-.5-10.8 0-14.2.4-17.1 1.9-5.4 2.6-8 1.6-19.3-7.4l-4.9-3.9-4.1 2.5c-2.3 1.5-5.9 4.1-8 6-5.4 4.5-7.1 4.4-5.2-.2 1.8-4.1 6-8.4 9.7-9.7 1.7-.6 4.1-3.2 6.2-6.7 5.8-9.3 10.9-20 10.2-21.1-.4-.6 0-1.7.9-2.3 2.1-1.6 6.2-13.3 9.2-26.6 2.7-12 2.8-13.1 1.4-13.1-1.5 0-26.3-9-27.2-9.9-.4-.4.3-2.2 1.6-4.1l2.4-3.5-2.5-4.7c-1.6-3.1-2.3-5.9-2.1-8.5l.3-3.8 7.5-.1c6.5 0 8.4-.5 14.4-3.6l7-3.5-.3-10.4c-.3-12.1 1.9-20.3 9.1-34.1 4.7-9.1 15.2-20.6 22.8-25.1 12-7 28.3-9.1 47.8-6.3l11.4 1.7 6.9-5.8c8.7-7.3 17-13.2 18.7-13.3 1.5 0 6 9.6 9.3 20 2.1 6.5 2.7 7.4 6.4 9.2 15.2 7.6 29 25.1 33.5 42.3.7 2.7 2 5.6 2.9 6.3 1.2 1 1.3 1.5.4 2-.9.6-1.3 4.9-1.3 14.7-.1 15.2 1.5 23.4 5.2 26.9 1.3 1.2 1.8 2.7 1.5 4.4-.3 1.4.1 4.3.9 6.5 2 5.6 1.8 10.1-.6 12.2-1.9 1.7-2.1 1.7-4.1-.1-1.2-1-2.5-2.9-3-4.1-.6-1.6-1.4-2.1-2.5-1.6-1.4.5-1.5 1.5-1 5.7 1 7.9 6.6 56 7.6 65.8.6 4.8 1.5 10.7 2.1 13 .6 2.4 1.3 5.9 1.6 7.8l.5 3.5-1.8-2.5c-5.8-8.3-9-12-10.4-12-.8.1-4 1.2-7 2.5-4.1 1.8-5.1 2.5-3.8 3 2.2.9 8.8 10 8.8 12.2 0 .9-1 2.7-2.2 4l-2.1 2.2 3.5 7.8c2 4.3 4.3 10.3 5.2 13.3.8 3 2.1 7.5 2.8 10l1.3 4.5 4.7-.3c5.9-.5 6.8 1 4.5 7.1-.9 2.3-2.3 7.1-3.1 10.7-1.5 6.2-1.5 6.5.6 8.7 1.2 1.2 3.1 2.6 4.2 2.9 2.7.8 6.6 4.4 6.6 6.1 0 .7-1.2 2.3-2.6 3.5-2 1.8-2.5 3.1-2.3 5.9.2 2.1-.4 4.7-1.4 6.3-1.7 2.5-1.6 2.9 2.2 13.8 6.8 19.6 5.5 17.8 13.3 17.8h6.7l.5-3.3c.7-3.8 2.6-19.1 6.1-48.7 9.3-78.6 8.7-74 10.9-74 .7 0 6.4.9 12.7 2.1 12.6 2.2 29.8 7.6 30.5 9.4.5 1.2-10.6 45.4-24.6 98-1.8 6.6-3.5 13-3.7 14.3l-.5 2.2H512V0H0zM303.6 32.1c.8 1.4-1.4 2.9-4.3 2.9-2.7 0-3-1.5-.5-2.9q3.45-2.1 4.8 0M261.3 78c-.7 2.8-2.2 3.5-3 1.5-.3-1 0-2.1.8-2.6 2.2-1.4 2.8-1.1 2.2 1.1m225.2 68.6c1.7 1.3 1.8 1.6.5 2.4-3 1.9-7 .7-7-2.1 0-2.3 3.6-2.5 6.5-.3M288 206c0 .5-.2 1-.4 1-.3 0-.8-.5-1.1-1-.3-.6-.1-1 .4-1 .6 0 1.1.4 1.1 1m155.1 33c3 1.7 2.2 4.6-2.2 8.1-3.3 2.6-4.3 2.9-5 1.8-1.3-2.1-1.1-4.6.6-7.9 1.6-3.2 3.4-3.7 6.6-2M410 291.4c0 1.1-1.9 1.5-2.5.6-.3-.5.1-1 .9-1 .9 0 1.6.2 1.6.4"/><path d="M188.6 243.9c.5.5 2 1.2 3.4 1.6 2.2.7 2.3.6 1.1-.9-.7-.9-2.3-1.6-3.4-1.6-1.3 0-1.7.4-1.1.9m8.5 129.7c0 1.1.3 1.4.6.6.3-.7.2-1.6-.1-1.9-.3-.4-.6.2-.5 1.3m-1.4 5.1c-.2 1-.8 2.6-1.2 3.5-.4 1-.3 1.8.3 1.8s1.3-1.4 1.7-3.1c.7-3.3.1-5.1-.8-2.2"/></svg>