<svg xmlns="http://www.w3.org/2000/svg" width="682.667" height="512" version="1.0" viewBox="0 0 512 384"><path d="M0 192.1v192l3.2-.3c3.1-.3 3.3-.6 5.6-8.3 1.3-4.4 2.9-9.9 3.7-12.3 1.2-4.2 1.2-4.4-1.1-5.2-1.3-.5-3-2.3-3.9-4-1.4-2.7-1.4-3.2.1-5.5.9-1.4 1.4-3.1 1.1-3.9s.9-3 2.8-5.1c3.6-3.7 5.2-7.8 6.2-15.8.5-3.9.2-5.6-1.6-8.8-1.7-3-1.9-3.9-.8-3.9 1.5 0 2.7-2.9 2.7-6.5 0-1.3 1-2.4 2.8-3.1 2.5-1 3-1.8 4.1-8 .6-3.8 2.3-9.6 3.6-12.9 1.4-3.3 2.5-6.5 2.5-7.2 0-2.4-2.3-6.3-3.8-6.3-1.1 0-1.3-.8-.8-3.2.8-4.2 3.2-7.7 6.4-9.5 1.5-.8 8.1-4.4 14.6-8.1l11.9-6.6-4.9-2.3c-2.7-1.2-6.6-2.7-8.7-3.3-4.6-1.3-5.3-.9-11.3 7.2-2.3 3.1-4.4 5.5-4.7 5.2-.9-.9 1.1-7.5 2.8-9.4 1.5-1.7 3.5-8.4 5.4-18.8.9-4.3.8-4.3-1.6-3.7l-2.5.6 2.4-3.2c5-6.8 5.2-7.3.9-3.6-4 3.3-6.1 4.5-6.1 3.3 0-.2.9-2.5 2-5 1-2.5 1.5-4.6 1-4.6s-1.2.4-1.5 1c-.3.5-1.1 1-1.7 1s-.5-.9.4-2.3c.8-1.2 2.5-3.9 3.7-6l2.3-3.8-5.3.6-5.4.5 6.3-3.1c3.5-1.8 7-4.2 7.7-5.3 2.4-3.7 4.3-12.9 5-25.1.6-9.9.5-11.8-.6-10.8-2.6 2.6-7.5 1.1-27.2-8.1L9.9 137l2-2.9c2.6-3.6 2.6-5.2.1-10.1-2.4-4.7-2.6-8.3-.4-10 1.2-1.1 2.8-1.1 7.6-.2 5.1 1 6.4.9 8.5-.5 1.4-.9 5.5-2.6 9.1-3.8l6.7-2.2-.4-7.6c-1-23.1 15.6-52.9 35.2-62.8 11-5.7 27.4-7.2 46.1-4.4 14 2.1 14.7 2 19.7-2.3C148.6 26.3 160 19 161.6 19c1.2 0 8.4 17.2 8.4 19.9 0 1.5 2 3 8.3 6.2 12.1 6.3 23 17.5 29.1 30 2.5 5.2 5.2 12.3 6 15.9 2.1 8.7 2 24.3-.1 29.5-2.7 6.7-2.1 10.1 4 22.5 3.1 6.2 5.7 12.1 5.7 13.1 0 2.2-4.5 6.9-6.6 6.9-1 0-2.5-.7-3.5-1.6-1.6-1.5-1.7-1.3-.9 2.3.5 2.1 1.6 7.6 2.5 12.3 4.4 23.3 14 54.3 18.1 58.1 3.3 3.1 5.4 7.1 5.4 10.4 0 2.3-.6 2-7-4.4l-7-7.1-7.2 4.5c-9.3 5.8-13 6-19.5 1-4.9-3.8-8.3-4.5-8.3-1.9 0 1.3-.3 1.4-1.4.4-1.3-1-1.5-.7-1.3 1.7.2 2.6.6 2.9 6.7 3.9 3.6.7 6.8 1.2 7.1 1.3 1.3.2 6.9 9.1 6.9 10.9 0 1.1-1 2.6-2.1 3.4-2.1 1.4-2.1 1.4 2.9 11.8 2.7 5.8 5.8 13.1 6.8 16.3l1.8 5.8 4.6-.6c6.9-1 7.9.7 5.6 9.6-1 3.8-1.6 7.8-1.3 8.9s.1 2.3-.4 2.6c-1.6 1 .1 2.4 5.7 4.9 7.3 3.2 8.5 5.8 4.9 11-2.1 3.2-2.5 4.6-2 7.8.4 2.2.2 4.3-.4 5.1-.8 1 1.4 6.2 9.3 21.7 9.2 18.1 10.7 20.4 13 20.7 1.4.2 2.6 0 2.6-.4 0-.3-.9-7-1.9-14.8-1.1-7.7-2.9-22.2-4.1-32.1-1.1-9.9-2.9-25-4-33.5-4.3-35.6-5.3-46-4.8-46.5 1.6-1.6 16.9-2.7 31.8-2.2 19.1.7 34.1 3.4 51.5 9.2 12.5 4.3 22.5 9 22.5 10.7 0 .6-1.5 4.7-3.4 9.2s-6.6 15.5-10.4 24.6-12.3 29.1-18.7 44.5c-6.5 15.4-12.1 28.8-12.7 29.7-.8 1.7 4.4 1.8 103.7 1.8H512V0H0zM316 39.5c0 1.4-5.1 3.6-7.1 3-2.2-.7-2.2-.8-.4-2.1s7.5-2 7.5-.9m-49.1 46.6c-.7 1.4-1.4 1.8-2.1 1.1-1.3-1.3-.2-3.2 1.8-3.2 1.2 0 1.3.4.3 2.1m-30.3 14c4.3 1.1 5.4 2.2 3.4 3.4-1.1.7-13.5-1-17.5-2.3-1.5-.5-1.1-.8 2-1.3 6.3-1 7.3-1 12.1.2m258.1 54.1c1.9 1.5.6 2.8-2.7 2.8-3.2 0-4.5-1.3-3.6-3.6.6-1.6 3.8-1.2 6.3.8M298 209c0 .5-.4 1-.9 1-.6 0-1.3-.5-1.6-1-.3-.6.1-1 .9-1 .9 0 1.6.4 1.6 1m147.5 1c.3.5.1 1-.4 1-.6 0-1.1-.5-1.1-1 0-.6.2-1 .4-1 .3 0 .8.4 1.1 1m16.9 39.6c2.1 2.1 2 3.6-.6 7-4.1 5.3-5.1 5.5-6.8 1.3-1.1-2.6-1-3.6.3-6.5 1.8-3.7 4.5-4.4 7.1-1.8"/><path d="M174 230.9c0 .5-.8.7-1.8.5-.9-.3-3.9.5-6.7 1.7l-4.9 2.2 11.4 2.8c6.3 1.6 11.6 2.9 11.7 2.9.2 0 .3-1.9.3-4.3 0-4-.3-4.4-3.3-5.5-4-1.4-6.7-1.5-6.7-.3m17.7 129.6c-2.1 13.5-2.7 18.8-2.4 19.1.2.3 1.2-1.3 2.1-3.4 1.3-2.8 1.6-5.9 1.4-12.2-.3-8.1-.3-8.3-1.1-3.5m-4.1 21.4c-.4.7-.5 1.5-.2 1.8.9.9 1.9-.4 1.4-1.8-.4-1.1-.6-1.1-1.2 0"/></svg>