<svg xmlns="http://www.w3.org/2000/svg" width="682.667" height="512" version="1.0" viewBox="0 0 512 384"><path d="M0 53.5V107h2.9c1.6 0 4.4.6 6.2 1.4 3.1 1.3 3.7 1.2 7.9-.9 2.5-1.3 6.4-2.6 8.6-3 2.1-.4 4.9-1.3 6.1-2.1 1.9-1.2 2.1-1.9 1.6-7.3-2-21.3 15.6-53 34.5-62.5 11.5-5.8 26.8-7.1 48.1-4l12 1.7 6.8-5c7.7-5.5 15.6-10.3 17.2-10.3 1.5 0 4.5 6.3 7 14.7l2.2 7.2 6.7 3.6c25.2 13.2 40.1 38.4 39 65.9-.3 8.1-.8 11-2.6 14.5-1.6 2.9-2.1 5.3-1.7 6.9.9 3.7 6.4 15.1 9.1 19.2 1.3 1.9 2.4 4.2 2.4 5 0 2-6.1 8-8.1 8-.9 0-1.8.2-2.1.5-1.4 1.5 5.8 30.6 10.7 43.4 6.4 16.5 10.2 23.8 13.1 25.3 4.3 2 10 11.6 8.1 13.5-.3.3-2.8-1.7-5.5-4.3-2.8-2.7-6.3-5.7-8-6.6l-2.9-1.8-6.6 5c-8.8 6.7-10.2 6.9-16.4 2.6-4.8-3.3-11.5-6.6-13.4-6.6-.5 0-.9.9-.9 2 0 2.1-1.9 2.8-2.1.7 0-.6-.5.1-1.1 1.7-1.3 3.5-.6 4 7.3 5.5 4.8 1 6.4 1.8 8.9 4.9 3.5 4.3 3.8 7.4 1 9.3-2.1 1.4-2 1.6 3.3 11.9 3 5.8 6.3 12.7 7.2 15.3l1.8 4.8 5.3-.7c4.7-.5 5.3-.4 6.4 1.6.9 1.7.8 3.1-.4 6.7-1.9 5.6-2.1 11.3-.3 13.6.6 1 3.3 2.4 5.8 3.1l4.6 1.4-2.3-7.1c-1.2-4-4.8-14.4-7.8-23.1-3.1-8.8-5.6-16.9-5.6-18.1 0-1.8 1.1-2.5 5.3-3.9 20.2-6.8 34-9 54.7-9.1 28.3 0 50.1 5 75 17.2 11.3 5.6 25 13.7 25 14.9 0 .3-2.6 4.8-5.7 10-3.2 5.2-6.7 10.9-7.7 12.7s-3.6 5.9-5.6 9.2c-2.1 3.3-10 16.1-17.6 28.5-7.5 12.4-15.2 24.7-16.9 27.5-1.7 2.7-4.2 6.7-5.4 8.7l-2.3 3.8H512V0h-53.3c-37.2 0-53.6.3-54.4 1.1s-1.7.8-3.1 0C399.7.3 342 0 199.6 0H0zm321.8-8.3c-.5 1.5-6.8 2.4-6.8 1 0-1.5 1.3-2.2 4.3-2.2 1.8 0 2.7.4 2.5 1.2M271 90.5c-.7.8-1.6 1.2-2.1.9-1.3-.8-.1-2.4 1.8-2.4 1.3 0 1.3.3.3 1.5m-23.7 11.6c3.8 1 4.6 2.2 2.5 3.6-1.7 1.1-21.8 1.1-21.1 0 .9-1.5 8.7-4.6 11.8-4.6 1.7-.1 4.7.4 6.8 1m251.1 56.5c2.2.8 2 3.1-.3 3.7-2.5.6-5.1-1-4.5-2.8.7-1.6 2.2-1.9 4.8-.9m-194.4 52c0 1.7-2.2 1.4-2.8-.4-.2-.7.3-1.2 1.2-1.2s1.6.7 1.6 1.6m172.4 48.1c.5 1.3-2.8 8.3-3.9 8.3-.2 0-1 .2-1.8.6-2.4.9-4.1-4.8-2.7-9 .6-1.9 1.6-3.7 2.3-3.9 1.5-.5 5.4 2 6.1 4M.1 122.5c0 3.1.2 3.6.9 2.3.6-1 .7-2.5.1-4-.9-2-1-1.8-1 1.7"/><path d="M.1 239.2c.1 59 .4 106.2.8 104.8.3-1.4 1.9-4.4 3.4-6.7 1.6-2.3 3-5.7 3.2-7.5s.7-5.1 1-7.3c.5-3.1.3-4.4-.9-5.4-.9-.7-1.6-2.1-1.6-3s-.6-2.3-1.3-3c-1-1.1-.7-1.2 1.5-.7 2.5.6 2.6.4 3.3-4.4.5-3.5 1.2-5.1 2.5-5.5s2.2-2.3 3-6.3c1.5-7.2 3.5-14.5 4.9-16.9 1.5-3-1.9-12-4.1-10.7-1.3.8-.3-2.6 2.4-8.3 1.8-4 2.9-4.7 19.4-13 9.5-4.8 17.4-9.1 17.4-9.4s-3.4-1.3-7.6-2.3c-8.9-2.1-9.5-1.8-14 6.9-1.6 2.9-3.1 5.2-3.5 5-.3-.3-.3-2.8.2-5.7.4-2.9.9-10.8 1.1-17.4l.3-12.2-2.3.9c-5 1.9-5.4.9-1.3-3.7 5.5-6.3 5.2-7.5-.8-2.5-6.8 5.7-7.7 5.3-4.2-1.9 1.9-3.9 1.9-3.9 0-2.9-2.8 1.4-2.4.1 1.7-5.9l3.6-5.4-5.9.6-5.8.7 6.6-3.5c3.6-1.9 7.1-4.1 7.7-4.9.7-.8 1.7-6.6 2.2-12.8 2.2-28.9 2.1-31.3-1-25.4-.7 1.4-2.2 2.5-3.2 2.5-2.1 0-9.9-3.8-20.3-9.9-3.8-2.3-7.3-4.1-7.7-4.1-.5 0-.7 48.3-.7 107.2m167-10.3c-1.4 1.4-2.1 1.6-2.5.8-.3-.9-.5-.8-.5.1-.1.7-.5 1.1-1 .7-1-.6-6.1 1.4-6.1 2.5 0 .3 3.3 1.4 7.3 2.3 3.9 1 8.2 2 9.5 2.3 2.1.6 2.2.3 2.2-4.5 0-3.2-.4-5-1-4.6-.5.3-1 .1-1-.4 0-1.8-4.9-1.2-6.9.8m62 94.7c-2.1 3.1-2.3 4-1.4 6.5.6 1.6.9 3.7.6 4.7-.4 1.5 8.1 17.9 11.7 22.7.4.5 3.3 6.1 6.5 12.3s6.1 11.4 6.5 11.7c.3.2-2.2-7.8-5.6-17.8-3.5-10-8.2-23.9-10.6-31-2.3-7-4.5-12.7-4.8-12.7s-1.6 1.6-2.9 3.6M186.3 362c.1 8.4-.3 11.6-1.9 16.2l-2.1 5.8h2.3c2 0 2.3-.4 1.8-2.9-.4-1.8.1-4.2 1.5-6.9 2.9-5.7 3-16.9.1-20.3l-1.9-2.4zM0 367.9c0 5.7.2 10.2.4 10s1.4-4.4 2.6-9.4 2.4-9.5 2.7-10.1c.2-.7-.8-1.1-2.6-1l-3.1.1z"/></svg>