<svg xmlns="http://www.w3.org/2000/svg" width="682.667" height="512" version="1.0" viewBox="0 0 512 384"><path d="M0 52.6c0 49.7.1 52.6 1.7 51.9 1-.5 4.7-1.6 8.3-2.5 10.6-2.9 10.2-2.5 9.5-8.9-.5-4.3 0-8 1.9-15.6C28.7 49.3 46 29.9 67.5 25.9c5.9-1.1 29.3-.7 38 .7 3.7.6 4.5.2 10.4-4.5C123 16.4 136 8 137.7 8c1.4 0 5.6 10.6 7.8 19.7 1.7 7.2 1.8 7.2 6.3 9 15.2 5.8 30.2 21.1 38.4 39 6.6 14.6 7.7 33.9 2.5 44.5-1.5 3-2.7 6-2.7 6.7 0 2 5.7 13.8 9.1 18.7l3.2 4.7-3.9 3.6c-2.2 2-4.8 4-5.7 4.6-1.7.9-1.7 1.7.3 12.9 3.2 18.7 6.3 29.9 12.8 45.6 4.8 11.8 7 16 8.5 16 2.4 0 7.8 6.6 8.4 10.3.3 2.1.3 3.7 0 3.7-.4 0-3.6-2.9-7.2-6.5-3.7-3.6-7.1-6.5-7.7-6.5s-3.4 1.7-6.2 3.8c-5.8 4.4-10.8 7.2-12.9 7.2-.8 0-3.3-1.3-5.5-3-2.3-1.6-6.1-3.4-8.4-4-5.3-1.2-5.8-1.2-5.8-.2 0 .5 2.8 1.7 6.3 2.7 4.5 1.3 7 2.8 9.4 5.4 4 4.5 4.1 5.5.3 7.1-3.4 1.4-3.7 2.2-1.4 4.1.9.7 3.5 4.5 5.8 8.5l4.2 7.2 5.9-3.6c7.7-4.5 19.5-9.6 31-13.3 23-7.3 47.3-9.4 72.5-6 26 3.5 54.2 15.4 77.6 33 5.9 4.4 29.7 28.1 31.5 31.3.7 1.4-1.5 3.8-12.3 13.5-7.3 6.5-15.3 13.6-17.8 15.9s-8.3 7.4-13 11.4-12.3 10.7-17 15c-4.7 4.2-10.1 9.1-12 10.8l-3.5 3.1 87.8.1H512V0H0zM415.8 4.2c.7.7.8 1.7.1 3-1.3 2.3-3.1 2.3-6-.2-2.1-1.7-2.2-2.1-.9-3 2-1.3 5.3-1.3 6.8.2m-82 47c-.6 1.6-3.3 2.2-5.6 1.3-1.5-.6-1.5-.8.3-1.5 3.1-1.3 5.7-1.2 5.3.2M277 97.5c-.7.9-1.5 1.3-1.7 1.1-.7-.7.7-2.6 1.9-2.6.6 0 .6.6-.2 1.5m-11 9.5c0 4.7-13.7 11.9-20 10.5-7.3-1.6 1.3-11 11.5-12.5 5.6-.8 8.5-.1 8.5 2m-38.5 37.5c0 6.6-.3 7.8-3 11.7-4.5 6.3-6.3 5.8-9.2-2.6-3-8.9-3-13.9-.1-16.6 1.3-1.2 2.9-1.8 4-1.4 1 .3 2.6.1 3.5-.5 3.3-1.8 4.8 1.2 4.8 9.4m280.4 21.8c1.4 1.7.4 2.7-2.6 2.7-1.6 0-2.3-.6-2.3-2 0-2.3 3.1-2.7 4.9-.7M315 212c0 .5-.7 1-1.5 1s-1.5-.5-1.5-1c0-.6.7-1 1.5-1s1.5.4 1.5 1m67.5 37c-.3.5-1 1-1.6 1-.5 0-.9-.5-.9-1 0-.6.7-1 1.6-1 .8 0 1.2.4.9 1m110.3 16.6c2.7 1.9 2.9 6.4.5 10.5-2 3.3-3.1 3.6-4.9 1.1-1.6-2-1.8-7.1-.4-10.6 1.1-3 1.8-3.2 4.8-1M0 220c0 65.3.3 82.1 1.3 81.8.6-.3 1.3-1.5 1.5-2.9.2-1.3 1.2-5.9 2.3-10.3 1.7-6.7 1.8-8.7.9-13.5-.7-3.1-1.8-6.1-2.5-6.7-1.1-.8-.8-2.1 1.6-7l2.9-6.1 15.2-7.8c8.4-4.3 17.3-8.6 19.8-9.6l4.5-1.8-3.4-.1c-1.9 0-7.9-1.5-13.3-3.2-7.5-2.5-10.3-3-11.6-2.2-1.5 1-4.5 4.5-9.5 11.4l-1.8 2.5.6-5c1.8-16.2 2.5-30.9 1.4-31.6-.9-.5-.8-1.8.5-5 1.6-4 1.6-4.2 0-2.8-1.4 1.1-1.3.6.5-2.8C12 195 13 192 13 190.8c0-2.1-.4-2.3-4.2-2l-4.3.3 4-2.2c4.9-2.7 5.5-3.5 5.5-8.1 0-3.7 4.6-34.2 5.6-37.5.3-1.1-.4-.7-2 1.2l-2.5 3-6.8-3.5c-3.7-1.9-7.1-3.6-7.5-3.8C.3 138 0 174.8 0 220m53 13.6-2.5 1.5 2.5-.7c2.8-.7 3.5-1.2 2.9-1.8-.2-.2-1.5.2-2.9 1"/><path d="M160.5 235.8c2.8.9 5.2 1.3 5.4.8.6-1.4-2.2-2.6-6.4-2.5h-4zm21.2 122.3c.5 7.8-.3 13-3.3 23.7-.6 2-.3 2.2 3.2 2.2h3.9v-15c0-13.9-.1-15.1-2.1-17.1l-2.2-2.1z"/></svg>