<svg xmlns="http://www.w3.org/2000/svg" width="682.667" height="512" version="1.0" viewBox="0 0 512 384"><path d="M0 54c0 49.7.3 56.5 2.4 53.1.3-.5 2.3-1.2 4.3-1.5 2.1-.4 5.4-1.3 7.3-2.2l3.5-1.5.1-9.7c0-7.4.6-11.4 2.3-16.7 4.7-14 11.8-25.7 20.5-33.8 5.2-4.8 16.4-10.4 23.5-11.7 6.4-1.2 19.5-1.2 30.5-.1l7.9.9 9.6-7.8c5.3-4.3 12.3-9.4 15.6-11.4l6-3.6 2.3 5.2c1.2 2.8 2.9 7.9 3.8 11.2 3.7 14.8 2.6 13.1 12.2 17.8 7.3 3.6 10.3 5.9 18.7 14.3 7.9 7.9 10.9 11.7 14.2 18.1 8.5 16.9 10.7 37 5 48.5-1.5 3.1-2.7 6.3-2.7 7.2 0 3.2 3.8 11.5 7.4 16.2 2 2.6 3.6 5.4 3.6 6.1 0 .8-2.3 3.1-5.1 5.1-5.1 3.8-5.1 3.8-4.4 8.3.3 2.5 1.1 7.6 1.6 11.4 1.3 10.1 5.2 25.4 9.7 38.6 5.7 16.5 7.8 20.7 11.7 23.3 4.1 2.7 6.5 6.5 6.5 10.6 0 3.1 0 3-6.9-3.9l-6.9-7.1-5.2 3.1c-2.9 1.7-6.9 4.2-8.8 5.5-2 1.4-4.3 2.5-5 2.5-1 0-1 .5-.2 2.1 1 1.8.8 2.2-1.9 3.2-3.4 1.3-3.9 2.8-1.5 4.7.8.8 3.3 4.4 5.6 8.2l4.1 6.8 3.1-2c1.7-1.2 7.6-4.4 13.1-7.2 63.4-32.4 139.5-20 190.1 31 6.2 6.3 12.8 13.5 14.6 16.1 1.8 2.7 5.2 7.6 7.6 11s4.2 6.6 4 7.1c-.3.9-24.7 18.5-47 33.9-13.6 9.4-25.8 18.3-25.8 18.7 0 .2 36.2.4 80.5.4H512V171h-3.1c-2.4 0-3-.4-2.7-1.8.3-1.2 1.2-1.6 3.1-1.5l2.7.2V0H0zM419.1 6c1.5.9 1.7 1.5.9 3-1.4 2.5-3.2 2.5-6.1 0-2.1-1.7-2.2-2.1-.9-3 1.9-1.3 3.7-1.3 6.1 0M338 53c-2 1.3-6 1.3-6 0 0-.6 1.7-1 3.8-1 2.7 0 3.3.3 2.2 1m-59 47c0 .5-.4 1-1 1-.5 0-1-.5-1-1 0-.6.5-1 1-1 .6 0 1 .4 1 1m-10.6 5.6c2.4.9 1.9 5.3-.9 9-3.3 4.3-12.9 9.1-15 7.4-.8-.6-1.8-.9-2.3-.6-.6.3-1.2-.6-1.5-2-.7-3.8 5-9.8 11.6-12.3 6-2.3 6-2.3 8.1-1.5m-25.3 36.3c.3 5.9-.6 12.1-2.2 15.3-2.1 4.2-6.5 7.6-7.9 6.2-1.4-1.5-5-13.1-5-16.3 0-3.8 4.3-9.1 6.9-8.4 1.1.3 2.8 0 3.8-.6 2-1.1 4.2.8 4.4 3.8m75.7 70.9c.2.7-.2 1-1.2.6-.9-.3-1.6-1.1-1.6-1.6 0-1.3 2.3-.5 2.8 1m67.9 39.8c-.1.2-1.3.1-2.6-.3-1.6-.4-1.9-.8-1-1.4 1.2-.7 4.5.9 3.6 1.7m113 16.6c3 2.8 3 6.9-.1 10.5-2 2.3-2.6 2.5-4 1.4-2.4-2-3-7.4-1.2-11 2-3.7 2.3-3.7 5.3-.9M.1 186.7c.1 29.9.4 42.1 1 38.3.5-3 1.8-10.5 2.9-16.6C6.6 194 6.6 193 3.8 193c-2.2-.1-2.1-.2.4-1.6 3-1.6 3.1-1.8 5.2-14.4.8-4.7 2.6-13.8 4-20.2 1.5-6.5 2.6-12 2.6-12.3 0-1.4-2.7-.3-3.8 1.6-1.6 2.4-4.8 2-9.4-1.2l-2.8-2zm5 50.9L0 243.2l.1 14.1v14.2l2-5.1c1.1-2.8 2.7-5.8 3.7-6.7 2.8-2.6 37.2-19.6 40.9-20.3 1.8-.3 3.6-1 3.9-1.5 1.1-1.8-2.7-2.1-6.2-.4-6.8 3.2-10.1 3-21.7-1.4-5.9-2.3-11.1-4.1-11.6-4.1s-3.2 2.5-6 5.6M0 288.5C0 299.9.4 305 1 304c.5-.8 1-3.1 1.1-5 0-1.9.6-5.5 1.2-8 1-3.6.9-5.8-.2-11-.7-3.6-1.7-6.9-2.2-7.5-.5-.5-.9 6.3-.9 16m180.4 69.1c.9 5.2 0 16.8-2 24.1-.6 2.1-.3 2.3 3.3 2.3h4l.6-8.8c.7-11.8-.4-19-3.3-21.4-3.4-2.8-3.7-2.3-2.6 3.8"/></svg>