<svg xmlns="http://www.w3.org/2000/svg" width="682.667" height="512" version="1.0" viewBox="0 0 512 384"><path d="M0 59v59h2.6c1.5 0 4.1-.9 5.9-2 1.7-1.1 6.3-2.7 10.1-3.6 3.8-.8 8.3-2.4 10.1-3.5 3-1.9 3.1-2.1 2.1-5.6-2.6-9.5 4.8-35.1 14.1-48.6C54.2 41.1 69.8 33 86.5 33c12.6 0 13.4-.4 22.1-10.2 7.2-8.2 20-19.6 20.9-18.7 1.5 1.5 8.9 17 11.6 24.1l3.2 8.8 5.6 1.6c21.5 6.2 40.2 23.2 48.7 44.3 3.5 8.5 4.7 16.2 4.2 26.6-.4 7.4-.9 10-3.2 14.4-3.4 6.5-3 10.7 1.7 22l3.1 7.4-2.4 1.6c-6.6 4.3-6.9 6.2-5 23.4 1.1 9.5 1.8 11.2 8.6 21.9 4.2 6.5 4.7 9 .9 4.8-3.4-3.8-3.4-2 .1 4.6 1.9 3.7 3.2 6.9 2.9 7.2s-2.3-.9-4.4-2.6c-2.2-1.8-4.2-3.2-4.5-3.2s-.4 1.2-.1 2.7c1.1 7.2 1.4 15.4.6 14.8-.5-.3-1.5-3-2.2-6.1-.7-3-1.6-5.7-2.1-6-1.3-.8-.9 10.1.5 11.5 1 1.2.9 1.3-.7.7-1.8-.6-1.9-.2-1.3 7.8.5 6.9 1 8.8 2.9 10.9 1.3 1.3 3.4 3.7 4.6 5.3 2.3 2.6 2.3 2.8.5 3.5-4.6 1.7-4.7 3.5-.8 9.4 2 3.1 5 8.5 6.6 12 1.6 3.6 3.2 6.5 3.6 6.5s1.6-.9 2.7-1.9c1.2-1 6.6-3.1 12.1-4.6s10.7-3.3 11.5-4c.8-.8 5.6-1.9 10.5-2.5 5-.6 10.6-1.8 12.5-2.6 4.6-1.9 38.3-2.3 45.4-.5 3.1.7 5.2.8 6 .2.7-.6 4.7.1 11.6 2 5.8 1.7 11.7 3 13.2 3 1.4-.1 6.8 1.7 11.9 3.9s9.9 4 10.7 4 3.9 1.4 7 3.1c3.2 1.8 8.5 4.7 11.9 6.5s8.9 5.5 12.3 8.1c3.3 2.6 7.8 6 9.9 7.6 5.3 3.7 19.6 19.4 26.4 28.9 7.2 10 17 28.5 16.3 30.4-.3.9-8.4 5.3-17.8 9.9l-17.3 8.4 51.3.1H512V0H0zm439.6-41.9c.3.6-.1 1.8-1 2.7-1.9 1.9-4.9.7-5.4-2.2-.3-1.2.4-1.6 2.7-1.6 1.6 0 3.3.5 3.7 1.1M360.5 59c.3.5-.3 1-1.4 1s-2.3-.5-2.6-1c-.3-.6.3-1 1.4-1s2.3.4 2.6 1M294 123c1.6 6.1-1.9 18.5-5.6 19.7-.6.2-2.9-1-5.2-2.7-3.3-2.4-4.2-3.6-4.2-6 0-4.3 2.1-8.8 6.5-13.8 3.6-4.1 3.8-4.2 5.6-2.6 1.1.9 2.4 3.4 2.9 5.4m37 27c0 .5-1 3.9-2.1 7.4-2.2 6.7-6 11.6-11.2 14.3-3.8 1.9-4.8.8-5.5-5.5-.5-6 1.4-10.2 6.6-14 3.9-2.7 12.2-4.3 12.2-2.2m7 64c0 .5-.2 1-.4 1-.3 0-.8-.5-1.1-1-.3-.6-.1-1 .4-1 .6 0 1.1.4 1.1 1m63.5 49.9c.3.5-.4 1.3-1.6 1.6-2.3.8-3.4.1-2.4-1.4.8-1.3 3.2-1.4 4-.2M0 175.6c0 21.1.4 33.3 1 32.9 1.9-1.2 12.1-17.4 16.5-26.3 6.1-12.2 11.8-27.3 10.8-28.2-1.5-1.5-24.9-12-26.6-12-1.6 0-1.7 2.9-1.7 33.6m0 126.9V384h8.5l2.3-11.3c1.2-6.1 2.2-11.5 2.2-11.8 0-.4-1.4-.6-3.2-.5-2.6.1-3.4-.4-4.2-2.6s-.5-3.7 1.2-7.1C8 348.3 9 346 9 345.6s.9-2.6 1.9-4.9 2.2-7 2.6-10.5c.6-5.5.5-6.6-1.3-8.5-1-1.2-2.2-3.5-2.6-5.1-.6-2.6-.5-2.8 1.7-2.2 2.8.7 3.7-.7 3.7-5.5 0-1.8.7-3.3 2-4.1 1.2-.8 2-2.4 2-3.9s1.1-6.6 2.5-11.4c2.2-7.3 2.4-9.3 1.5-12.1-.7-1.9-1.9-3.8-2.8-4.3-1.4-.8-1.4-1.3.2-5.6 1-2.5 2.8-5.7 4-7 1.1-1.4 8.9-5.8 17.1-9.8 18.4-9 18.8-9.2 30.5-12.1l9.5-2.3-6.4-3.1c-3.4-1.8-6.6-3.2-7-3.2-.5 0-1.3 1-1.9 2.2-1.1 2.3-1.1 2.3-1.1-.4-.1-1.6-.8-2.9-1.8-3.2-2.7-.8-13.3-.6-13.3.2 0 .4-.9 1.3-2 1.9-1.6 1.1-1.8 1-1.4-.2.9-2.4-4.3-1.9-10.4 1-3.8 1.8-7.1 2.5-11.3 2.5-5.7 0-5.9-.1-13.1-6.5-4.4-3.9-8.2-6.5-9.5-6.5H0zm59.8 66.6c-1.5.8-1.8 2.4-1.8 7.9v7h3.5c3.3 0 3.5-.2 3.5-3.6 0-4.1-1.9-12.4-2.9-12.4-.3 0-1.4.5-2.3 1.1"/></svg>