<svg xmlns="http://www.w3.org/2000/svg" width="682.667" height="512" version="1.0" viewBox="0 0 512 384"><path d="M0 192v192h21.5l2.3-8.8c1.8-7.3 5.2-22.5 5.2-23.7 0-.1-1.4-.2-3.2-.1-2.8.1-3.3-.3-4.1-3.1-.8-2.6-.6-3.7 1.1-6.1 1.2-1.6 1.9-3.2 1.6-3.4-.3-.3.7-2.7 2.2-5.4 3.7-6.7 4.4-17.1 1.6-22.9l-2-4 2.4-.3c2-.3 2.4-.9 2.4-3.7 0-2.3.8-4.1 2.5-5.7s2.9-4.4 3.9-9.4c1.5-7.1 5-16.9 6.7-19 1.1-1.3-.6-3-3.6-3.6-2.4-.5-2.3-3.2.4-9.4 1.9-4.1 2.6-4.6 17.9-12.3 14.7-7.4 19.1-8.9 39-14.1 2.4-.6 4-1.5 3.6-2.1-.3-.5-1.4-.7-2.5-.4-1.1.4-1.9.2-1.9-.5 0-1-1.7-1.9-6.6-3.4-1.6-.5-2.4.1-3.7 2.6-1.5 3.2-1.6 3.2-1.6.7-.1-1.4-.3-2.8-.6-3.1s-4 .3-8.3 1.4c-4.2 1.1-8.8 1.9-10.2 2-1.3 0-4.4.9-6.8 1.9-2.4 1.1-6.6 1.9-9.2 1.9-5.2 0-5.2 0-15.4-9.4-2.2-2-4.5-3.6-5.1-3.6-1.5 0-15.2 6.7-18.6 9.1-5.4 3.8-3.1-.3 4.1-7.2 7.9-7.6 15.8-19.3 22.3-33 5.1-10.8 6.8-15.7 10.1-29.3 2.1-8.5 2.1-9.5.6-8.1-.9.8-2.1 1.5-2.7 1.5-2.4 0-32.3-15.3-32.3-16.6 0-.7.5-2.4 1.1-3.8.9-2 .7-3.4-1.5-8.1-1.4-3.2-2.6-6.6-2.6-7.6 0-2.5 4-3.4 8.4-1.9 3.3 1.1 3.9.9 7.9-2 2.4-1.7 7-3.8 10.3-4.6 9-2.4 8.6-1.7 8.9-14.5.6-19.6 7.9-38.5 19.4-49.9 9.1-9 22.6-15 33.7-15 9.7 0 10.8-.6 18-9.9 3.7-4.7 8.5-10.3 10.8-12.3l4.1-3.7L65.8 0H0zM137 .6c0 .3.8 1.8 1.8 3.2 1 1.5 4.2 7.2 7.2 12.7 2.9 5.5 5.4 10.1 5.5 10.2.1.2 3.7 1.2 8.1 2.3 23.3 6 40.4 20.4 50.5 42.7 6.3 13.7 7.6 31.2 3.2 40.3-2 3.8-2 4.6-.8 8.6.7 2.4 3.1 7.1 5.4 10.5 2.3 3.5 4 6.8 3.7 7.5s-2.2 2.3-4.3 3.5l-3.8 2.2.3 8.1c.7 23.2.8 23.7 7.2 33.3 5.8 8.6 6.8 11.3 3.2 8-3.5-3.1-3.4-1.7.2 4.7 2 3.5 3.6 6.7 3.6 7.1s-2.2-.9-5-2.9c-5.7-4.1-5.5-4.4-4 7.3.6 4.1.8 7.6.6 7.8-.2.3-1.1-2.1-2-5.2-.9-3-2.1-5.3-2.6-5-1.4.9-1.2 7.9.3 9.4.6.8.7 1.1.1.8-.7-.4-1.5 2.2-2.3 7.5-1 7.7-1 8.3.9 10.3 1.1 1.2 2 3.1 2 4.3s.4 2.2 1 2.2c.5 0 2.6 1.4 4.5 3.2 3 2.6 3.4 3.3 2.1 4-3.2 1.8-2.9 6.9.7 14.1 1.9 3.7 4.7 11.2 6.2 16.7l2.8 9.8 5.3-.5c6.1-.7 6.5-.1 3.9 6.1-.9 2-2.2 6.6-2.9 10.3l-1.4 6.7 3 2.8c2.9 2.7 3.4 2.8 13 2.8 9.1 0 10-.2 10.5-2 .4-1.4 1.4-2 3.3-2 3 0 17 1.7 20.7 2.5 1.6.4 2.3-.1 2.8-1.6.6-1.9 1.2-2 5.8-1.4 2.8.4 8.5 1.6 12.6 2.6 7.4 1.7 7.6 1.7 9.1-.1s1.8-1.7 12 1.4c5.8 1.8 11.1 3.5 11.6 3.9.6.3 1.9 0 3-.7 2.1-1.6 4.6-.9 15.6 4.3 7 3.2 9.3 3.7 10.3 2.2.3-.6 4.9 1.5 10.3 4.6 5.3 3.1 10.8 5.5 12.1 5.4 2.2-.1 14.1 7.8 17 11.3.7.8 1.9 1.2 2.9 1 1.1-.3 4.1 1.9 8.7 6.6 3.8 3.8 7.5 7 8.1 7 1.2 0 16.4 18.5 16.4 20.1 0 .5 12.7.9 32.5.9H512V0H324.5C221.4 0 137 .3 137 .6m317 21.3c0 .5-.7 1.4-1.5 2.1-1.2 1-1.8 1-3 0-1.8-1.5-2-3.7-.2-4.3 1.4-.5 4.7 1 4.7 2.2m-79.7 40.8c-.7.2-2.1.2-3 0-1-.3-.4-.5 1.2-.5 1.7 0 2.4.2 1.8.5m-66.5 72.6c3.7 3.8 4.9 8.4 2.9 11.1-1.3 1.8-1.5 1.8-6 .1-7.9-3-9.1-5.9-5.1-12.3 2-3.1 4.5-2.8 8.2 1.1m77.7 24.2c-3.5 8.6-9.5 14.9-16.9 18l-3.4 1.5-.7-3.1c-.8-3.7 2.7-11.2 6.5-14.1 3.2-2.3 14.2-6.8 15.2-6.2.4.3.1 2.1-.7 3.9m-36 55.5c.3.5.1 1-.4 1-.6 0-1.1-.5-1.1-1 0-.6.2-1 .4-1 .3 0 .8.4 1.1 1m61.4 56.4c.9 1.1.6 1.5-1.4 1.8-3 .6-3.9-.1-2.4-1.9 1.4-1.7 2.4-1.7 3.8.1m-204.4-35.5c3.4 2.1 3.8 2.1 2.9-.3-.3-.9-1.7-1.6-3.3-1.6h-2.6zm-127.9 123c-.4.6-1.8 1.1-3.2 1.1-2.4 0-2.4.1-2.4 8.9 0 4.9.3 10.3.6 12 .6 3 .8 3.1 6 3.1s5.4-.1 5.4-2.8c0-3.8-3.9-21.5-4.9-22.5-.5-.5-1.2-.4-1.5.2"/></svg>