<svg xmlns="http://www.w3.org/2000/svg" width="682.667" height="512" version="1.0" viewBox="0 0 512 384"><path d="M196.1 21.5c-2.1 2.1-3.1 4-2.8 4.9.3.8.2 1.8-.3 2.1-.6.3-.9 2.3-.8 4.3 0 2-.2 4.7-.6 6-.5 1.3-.3 2.9.4 3.7s.7 1.5.1 1.9c-1.1.7-1.3 14.4-.1 15.1.4.3.6 1.4.3 2.5s-.1 2 .5 2 .8.8.6 1.7c-.3 1 .1 2.7.9 3.7 1.4 1.9 2 1.9 8.8.9 4-.7 7.5-1.1 7.6-.9.5.4-3.2 6.7-8.4 14.2-2.9 4.2-5.3 8.6-5.3 9.8 0 3.6 2.3 5.7 6.3 6 2.1.2 4 .6 4.3.9.6.6-3 27.1-4.5 33.9-1.6 6.9.4 3.9 3.7-5.5l3.2-9.2-.5 7c-.3 3.8-.8 11.3-1.2 16.5l-.6 9.5-4.5 4.5c-5.5 5.6-6.7 8.3-8.7 20.1-.9 5.2-2.2 11.8-3.1 14.6L190 197l-6-.7c-7-.7-6.9-.8-3.9 8.6l2.1 6.6-4.6 13c-6.2 17.2-11 28.3-21.8 50-9.8 19.4-9.5 18.3-6.2 29.5 2.1 6.9 2.6 27 1.3 46.9-1 14.2-.1 27 2.2 31.3.9 1.7 5.9 1.8 83 1.8 76.4 0 81.9-.1 81.1-1.7-.6-1-.6-2.7 0-4.5 1.1-3 2.8-3.8 2.8-1.3 0 1.3.3 1.4 1.6.3 8.8-7 10.3-11.4 11.1-32.5l.6-15.3 2.9-1.7c2.1-1.3 3.5-3.4 4.9-7.3 2.4-7.1 2.4-12.1-.1-17-1.6-3.1-1.7-3.8-.5-3.4 1 .4 1.5 0 1.5-1.5 0-1.2.5-2.1 1-2.1 1 0 .4-9.5-.7-11.3-.3-.4-.7-2.7-.9-5s-.7-5.3-1-6.7-.8-3.8-1-5.4c-.2-1.5-.6-3.8-1-5-.4-1.1-.8-3.2-.9-4.6-.5-5.7-2.7-15.6-5.9-26.5-.2-.6-.6-2.4-1.1-4-.4-1.7-1.2-3.6-1.8-4.3-.5-.7-.7-1.5-.4-1.8.7-.7-9.6-25.5-12.6-30.3-2.2-3.6-4.2-7.1-7.1-12.6-1.9-3.5-2.5-4.5-9-14.9-3.8-5.9-5-8.8-5-12-.1-3 .3-4.1 1.4-4 1.3.1 1.4-1.7.8-12.5-.4-8.5-.3-13 .5-13.9.6-.7.6-1.2.1-1.1-4.4.8-4.7-5.5-.7-12.7 3-5.3 4.3-4.6 1.9 1-2.3 5.5.2 3.1 3-2.8 1.9-4 2.4-6.8 2.4-13 0-6.8.2-7.7 1.6-7.2 2.3.9 5.8-1.6 7.8-5.6 1-1.8 2.8-5.1 4.1-7.3s3.3-5.6 4.3-7.5 3.3-5.9 5-8.8c5.7-9.4 4.1-13.3-7.3-18.1-18.6-7.8-40.7-7.8-45.4 0l-1.8 2.9-1-2.3c-.6-1.3-2.7-3.2-4.8-4.1-3.9-1.9-14.6-2.6-18.4-1.2-1.8.6-2.2.5-1.9-.5.6-1.8-5.4-6.5-12.2-9.6-8.1-3.6-16.4-5.3-26-5.3-8.3.1-8.6.1-11.9 3.5m12.4 212.3c-1 8.3-1.7 5.4-.8-3.4.4-4.4.9-6.6 1.1-4.9.2 1.6.1 5.4-.3 8.3m75.8 47.2c.5 11 .4 12.1-.7 9.5-.9-1.8-1.2-5-.9-8.5.3-3-.2-10.1-1.1-15.6-1.9-12.1-2.1-23.3-.4-30.6 1.2-5 1.3-4.3 1.9 13.7.4 10.4.9 24.6 1.2 31.5m33.3-41.2c-.5.5-2.6-5.9-2.5-7.7 0-.9.7.4 1.4 2.9.8 2.4 1.3 4.6 1.1 4.8m-9.5 119.9c2.3 4.3 5.1 9 6.1 10.5 1.9 2.7 2.4 5.8 1 5.8-.4 0-3.3-5.4-6.4-12s-5.5-12-5.3-12 2.3 3.5 4.6 7.7"/></svg>