<svg xmlns="http://www.w3.org/2000/svg" width="682.667" height="512" version="1.0" viewBox="0 0 512 384"><path d="M0 192v192h35.8l.6-2.5c.9-3.4 4.6-25.4 4.6-27 0-.8-1.3-1.5-3.2-1.7-4.6-.4-5.8-4.6-2.9-9.8 1.1-2 1.8-4 1.5-4.3s.3-2.2 1.4-4.4c2.4-4.8 3.8-17.8 2-19-.7-.4-2.1-2.5-3-4.6L35 307l2.4.6c2.4.6 3.6-1.3 3.6-6.3 0-1.2.9-2.8 2.1-3.7 1.5-1 2.4-3.4 3.4-8.8.7-4.1 2.4-10.3 3.9-13.8 2.5-6.4 2.3-7.9-1.1-8-1.9 0-1.5-5.9.6-10.7 1.5-3.1 3.2-4.9 6.8-6.8 2.6-1.4 7.2-4.2 10.2-6 5.7-3.6 16.2-8 22.1-9.2l3.5-.7-4-.7c-3.1-.6-5.1-.2-9.4 1.7-8.3 3.8-11.5 3.3-21.1-3.1-4.5-3-9.1-5.5-10.2-5.5s-5.2 2.1-9.1 4.7c-4 2.7-7.5 4.9-7.9 5.1-1.7.8-.7-1.7 2.1-5.1 4-5.1 13.4-26.3 17-38.6 2.4-8 7.1-31.2 7.1-34.9 0-.3-.6.3-1.4 1.3-1.2 1.7-1.2 1.3-.1-3 1.6-6.3.4-8-3.1-4.2-2.4 2.6-2.5 2.7-6.2 1.1-2-.8-7.5-3.6-12.2-6.1-4.7-2.6-10.2-5.6-12.2-6.6-2.1-1.1-3.8-2.1-3.8-2.4 0-.2.7-1.7 1.5-3.4 1.5-2.8 1.4-3.4-1-9.5-1.5-3.6-2.4-7.2-2.1-8 .6-1.6 5.9-1.9 8.6-.4 1.6.8 3.2.2 8.3-3.4 3.6-2.4 8.7-4.9 11.6-5.6l5.1-1.2V95.1c0-19.9 6.9-39.3 18.1-51.2 8.1-8.5 18.1-13 33.8-15l9.1-1.3 6.2-8c3.3-4.5 8.6-10.7 11.7-13.9l5.5-5.7H0zM139.2 4.2c1.8 2.3 5.8 8.7 8.8 14.2l5.5 10.1 5.5 1.1c9.9 1.9 18.8 5.5 26.2 10.3 8.2 5.4 19.7 17.2 24.5 25.2 8.1 13.6 11.2 30.6 7.8 43.6-1.7 6.7-1.7 6.9.3 10.9 1.1 2.2 4.2 6.4 6.8 9.3l4.8 5.4-4.7 4.2c-4.2 3.9-4.6 4.6-3.8 7.1 1.3 4.2 3.1 14.3 5.1 28 1.4 10.2 2.2 12.8 4.5 15.8 2.6 3.4 2.4 5.1-.3 2.4-2.6-2.6-2.3.4.7 5.6 3.5 6.2 3.8 7.4 1.6 5.6-.9-.7-1.8-1-2.2-.6-.4.3-.1 6.3.5 13.3 1.1 11.4 1.5 13 3.8 15.4 2.1 2.1 2.5 3.4 2.2 6.9-.3 4.2-2.8 7.1-2.8 3.3 0-1-1.4-4.2-3.1-7.1-3.3-5.9-2.7-5.8-13.1-1.7-3.1 1.3-5.8 2.2-6 2.2-2.5-1.1 5.6 4.7 8.9 6.3 6.2 3.1 11.6 7.9 10.5 9.4-.5.6-1.2 2.8-1.6 4.8-.6 3.1-.1 4.8 2.5 9.6 1.7 3.2 4.5 11 6.3 17.3 3.5 12.3 2.9 11.6 9.7 10.2 4-.8 4.4 1.2 1.6 7.5-1.4 3.1-2.8 8-3.2 10.9-.7 5.2-.6 5.2 4 10.2 2.6 2.8 6.2 5.5 8.1 6.1 4.3 1.5 4.8 5.4.9 7.2-1.4.6-2.8 2.3-3.1 3.7s-.9 3.5-1.3 4.6c-1 2.4.8 7.4 2.9 7.9.8.3 4.1.8 7.3 1.2 5.3.6 5.7.5 5.7-1.4 0-1.2.4-2.3.9-2.6.8-.5 23.8 3.1 25.3 4 .4.3 1.2-.6 1.8-2 .5-1.4 1.3-2.6 1.8-2.6s6.2 1.4 12.7 3c10.6 2.7 12 2.9 13.5 1.5 2.4-2.1 3.8-1.9 15.5 2.1 10.1 3.5 10.6 3.6 12.5 1.9s2.2-1.7 7.2.5c2.9 1.2 7.5 3.3 10.2 4.6 5.5 2.6 7.6 3 7.6 1.3 0-1.8 4.6-.2 13 4.7 6 3.5 8.3 4.4 10.4 3.8 2.1-.5 3.9.4 10 5.1 5.3 4 8 5.5 9.4 5.1 1.2-.4 2.5.1 3.7 1.4 1.8 1.9 3 2 43.7 2H512V0H135.8zM464 22.3c0 1.4-2 3.7-3.2 3.7-.4 0-.8-1.1-.8-2.5 0-1.8.5-2.5 2-2.5 1.1 0 2 .6 2 1.3m-81 42.1c0 1.1-1.9 1.5-2.5.6-.3-.5.1-1 .9-1 .9 0 1.6.2 1.6.4m-62.5 80.8c4.5 2 3.6 2.6-6.7 4.4-3.6.6-3.8.5-3.8-1.9 0-1.4.6-2.8 1.3-3 2.2-1 6.6-.7 9.2.5M425 161.6c0 .9-5.2 7.7-9.4 12.2-3.7 4-12 9.2-14.6 9.2-1.9 0-1.1-6.7 1.2-9.6 3.1-4 4.3-4.9 12.3-8.8 6.5-3.2 10.5-4.4 10.5-3m-7.3 115.1c.4 1.2-3.4 2.9-4.4 1.9-.3-.3-.3-1.2.1-2.1.7-1.8 3.7-1.7 4.3.2m-315.9-46c.7.3 1.6.2 1.9-.1.4-.3-.2-.6-1.3-.5-1.1 0-1.4.3-.6.6M96 232c-.8.5-1 1-.5 1 .6 0 1.7-.5 2.5-1s1.1-1 .5-1c-.5 0-1.7.5-2.5 1m-9.9 138.1c-.1 2.5.2 6.7.5 9.3.6 4 1 4.6 3.1 4.6 2.7 0 2.6-.8-1.3-12l-2.3-6.5z"/></svg>