<svg xmlns="http://www.w3.org/2000/svg" width="682.667" height="512" version="1.0" viewBox="0 0 512 384"><path d="M0 192v192h50.9l.6-4.7c.4-2.7 1.1-7.2 1.6-10.2s.9-7 .9-8.9c0-3.3-.1-3.4-2.9-2.9-5.1 1.1-7.4-4.9-4.2-11.2 1.1-2.1 1.8-4.1 1.5-4.4s.1-1.8.9-3.4c2.3-4.3 2-15.3-.4-17.6-1-1-1.9-2.6-1.9-3.5 0-1-.5-2.3-1.2-3-.9-.9-.6-1.2 1.5-1.2 2.5 0 2.7-.3 2.7-4.5 0-3.6.5-5.1 2.5-6.9 1.4-1.3 2.5-3.3 2.5-4.5 0-3.4 3.1-16.3 4.6-19.3 1.3-2.4 1.2-2.7-.6-3.3-2.5-.8-2.6-5-.5-12.3 1.4-4.4 2.6-6.1 8.3-10.8 3.7-3.1 8-6.2 9.5-6.9l2.9-1.2-5.9-2.7c-10.2-4.9-11-4.8-19 2.8l-7 6.5 2.3-7.7c3-10.7 8.6-37.1 8.1-38.5-.2-.7 0-2 .5-2.9.9-1.9 3.8-26.7 3.8-33.2 0-3.7-.1-3.8-1.5-2-1.2 1.7-1.2 1.2 0-3.6 1.8-6.7.5-9-2.7-4.8-1.1 1.6-2.7 2.8-3.6 2.8-1 0-8.5-3.5-16.8-7.7l-15.2-7.7 1.6-3.2c1.4-3.1 1.4-3.5-1.2-9-1.5-3.1-2.6-6.4-2.4-7.3.4-1.9 5.9-2.7 8.5-1.3 1.3.8 2.9.1 6.7-2.8 2.8-2 8-4.8 11.6-6.2l6.5-2.4.6-13.4c.9-22.2 6.8-38.1 18.4-49.4 8.7-8.5 17.2-12.1 35.7-15.1 3.4-.5 4.7-1.8 12.7-12.3 4.9-6.4 10.5-13.2 12.3-15l3.4-3.2 4.6 6.2c2.5 3.5 6.6 10.2 9.2 14.9l4.6 8.7 4.8.6c7.5 1.1 19.6 5.3 26.4 9.2 9.4 5.5 22.4 19.2 27.5 29 7.9 15.1 10.4 32.6 6 41.4-1.7 3.4-1.7 3.6.4 7.7 1.2 2.3 4.3 6.6 7 9.7 2.7 3 4.9 5.8 4.9 6.2s-1.7 2.1-3.7 3.9l-3.7 3.2 4.7 16.9c2.7 9.3 5.7 19.4 6.7 22.4s4.2 12.9 7.1 22c4.6 14.5 5.8 16.9 9 20 4.5 4.3 5.9 6.9 5.9 11.2v3.3l-6.3-6.9-6.2-6.9-3.3 1.7c-1.8.9-5.4 3-7.9 4.6-5.4 3.5-8.8 3.7-12.3 1-2.7-2.1-5.6-2.6-6.2-1.1-.1.5-2.8.1-5.8-1-5.4-1.9-14-2.6-14-1.2 0 .5 4 2.1 8.8 3.6s11.9 4.8 15.7 7.2c3.9 2.5 7.4 4.5 7.8 4.5.5 0 2.6 1.5 4.7 3.2 2.7 2.3 3.6 3.7 3 4.8-2 3.9-2.1 9.1-.2 11.8 2.8 4 5.6 11.5 8.8 23 2.3 8.3 3.1 10.1 4.4 9.6 2.5-1 9-1.7 9-1 0 .4-1 2.6-2.1 4.9-3.3 6.3-4.8 15-3.3 18.4 1.8 4.3 8.5 10.9 12.7 12.6 2 .9 3.7 2 3.7 2.4 0 1.6-1.6 3.2-4.3 4.2-1.9.8-2.7 1.8-2.7 3.5 0 1.4-.4 2.8-1 3.1-1.1.7 2.5 11.2 4.6 13.4.7.8 3.6 1.7 6.4 2.1 4.7.6 5.1.5 5.6-1.7.8-2.9 1.5-2.9 15.5.3l11.4 2.5 1.4-2c.7-1.2 2-2.1 2.8-2.1 1.5 0 20.9 5.6 22.2 6.5.5.2 1.6-.4 2.6-1.5s2.4-2 3-2c.7 0 6 1.8 11.9 4 9.9 3.7 10.8 3.9 13 2.5 2.7-1.8 3.2-1.6 15.3 4.3 6.9 3.4 8.4 3.8 9.4 2.6 1.7-2 2-1.9 11.2 3.5l8.3 5 53.2.1 53.2.1V0H0zM475.7 23.7c.4 1.1-3.5 3.9-4.2 3.1-.1-.2.1-1.4.6-2.6.9-2.4 2.9-2.6 3.6-.5M395.5 68c1.7.7 1.5.9-1.2.9-1.7.1-3.5-.4-3.8-.9-.7-1.2 2.2-1.2 5 0m-68 79.1c.4.6 1.9.7 3.6.4 2.1-.5 2.9-.3 2.9.7 0 1.3-2.1 3.5-9.1 9.6l-2.6 2.3-1.7-2.6c-1.4-2.1-1.5-3.2-.6-5.9 1.3-4.1 6.1-6.9 7.5-4.5M462 168.9c0 1.7-14.7 14.7-19.1 16.8-4.3 2.1-8.9 3-8.9 1.8 0-1.4 4-8.2 5.7-9.7 2.3-2.1 18.2-9.6 20.6-9.7.9-.1 1.7.3 1.7.8M425 282c0 1.2-4.3 2.1-5.3 1.1-.5-.5-.1-1.6.8-2.5 1.3-1.3 2-1.4 3.1-.5.8.6 1.4 1.5 1.4 1.9"/></svg>