<svg xmlns="http://www.w3.org/2000/svg" width="682.667" height="512" version="1.0" viewBox="0 0 512 384"><path d="M0 192v192h66v-19.6l-2.6.1c-2.2 0-2.9-.7-4.1-4-1.2-3.5-1.2-4.4.2-7.3.8-1.8 1.5-4.5 1.5-6.1s.7-3.4 1.5-4.1c1.9-1.6.9-9.6-1.7-12.9-1-1.3-1.8-3.2-1.8-4.2s-.4-2.1-1-2.4c-1.7-1.1-1.1-2.3 1.5-2.9 2.3-.6 2.5-1.1 2.5-6.3 0-4.6.4-6 2.3-7.7 1.6-1.5 2.6-3.9 3.1-7.4.3-2.8 1.3-6.9 2.1-9.1 1-2.8 1.1-4.2.3-4.7-1.4-.9-.3-14.2 1.5-18.7.8-1.7 4.4-6 8.1-9.5l6.7-6.2-2.8-1.1c-1.5-.6-4.7-1.7-7.1-2.4l-4.2-1.3-4.4 4.1c-2.3 2.3-5.1 5.4-6 7-1 1.5-2.1 2.7-2.5 2.7s.1-5.3 1-11.8c2.9-19.9 8.3-68 7.8-69.7-.2-.6.3-4.1 1-7.8s1-7.1.6-7.5-1.7.5-3 2c-1.3 1.6-3.4 2.8-4.7 2.8-1.2 0-7.1-2.7-13-6s-12.1-6.3-13.8-6.6c-3.9-.8-4.5-1.9-3.1-5.3 1-2.2.8-3.6-.9-7.5-3.3-7.9-3-8.6 4-8.6 4.9 0 6.8-.5 10.1-2.7 2.2-1.4 7.2-4 11.2-5.7 6.6-2.9 7.2-3.4 6.7-5.6-1-5.1-.3-17.7 1.4-26 5.5-26.3 20.7-43.1 42.6-47 3.6-.7 7.5-1.4 8.7-1.6 1.5-.3 4.4-3.6 8.7-10.1 6.2-9.2 15.5-21.2 16.6-21.2 1.2 0 8.9 11.1 13.9 19.9 2.9 5.2 5.4 9.6 5.6 9.8.1.1 4.4.9 9.5 1.8 27.3 4.4 49.2 23.7 57.5 50.6 3.2 10.4 3.2 21.6.1 28.1-1.9 3.8-1.9 3.9.1 8 1.1 2.3 4.4 7 7.3 10.5l5.2 6.2-4.3 4.3c-2.4 2.3-4.2 4.6-4 5.2.2.5 1.8 6.4 3.6 13 4.1 15 9.2 27.5 17.5 43.4 5.9 11.3 6.7 12.5 10.6 14.1 4.4 1.9 8.1 5.8 9 9.7.9 3.6-.3 4-3.4 1.1-3.3-3.1-11.2-8.8-12.2-8.8-.4 0-3.5 2.5-6.9 5.5-5.4 4.8-6.7 5.5-10.4 5.5-2.6 0-5.1-.8-6.7-2-3.5-2.8-8.7-2.7-9.6.2l-.7 2.3-.8-2.2c-.6-1.6-1.9-2.3-5.8-2.8-5.2-.7-12.7.1-13.6 1.4-.2.5 2.3 1.5 5.6 2.5 7.2 2 24.8 10.7 30.2 14.9 3.8 2.9 3.8 3 3.6 9.6-.2 5.4.3 7.5 2.4 11.6 1.4 2.7 4.2 10.2 6.1 16.5l3.5 11.5 5.7-.3c3.2-.1 6.1-.7 6.5-1.3.4-.8 3.9-.7 11.7.1 8.6.9 11.4.9 13-.1 1.5-1 3.8-.8 11.3.6 5.2 1 10.4 2.2 11.7 2.6 1.3.5 2.2.5 2.2-.1 0-1.8 4.7-1 14.6 2.4 7.3 2.6 10.2 3.2 11.2 2.4 1-.9 4 .2 12.3 4.4 6.1 3 11.2 5.1 11.5 4.6.9-1.4 1.7-1 12 5.5 5.5 3.5 10.5 6.2 11.2 5.9.7-.2 4.9 2.6 9.4 6.3 4.6 3.7 9.2 7.1 10.3 7.5 1.2.4 5.3 4.2 9.2 8.4s7.6 7.6 8.1 7.6c.6 0 3.6 3.5 6.7 7.7 3.1 4.3 6.8 9.3 8.3 11.1l2.7 3.2H512V0H0zM486 25.4c0 .8-.7 1.6-1.5 2-1.5.5-2.1-1.4-.8-2.7 1.1-1.2 2.3-.8 2.3.7M404.5 71l2 .9h-2c-1.1 0-2.7-.4-3.5-.9-1.3-.9-1.3-1 0-.9.8 0 2.4.4 3.5.9m-68.7 77.2c.9.9 1.5.9 2.4 0 2.5-2.5 3.8-1.3 3.8 3.3 0 4.5-2.2 10.1-6.2 15.8l-2 2.8-1.7-2.3c-2.1-3-2.3-16.7-.2-19.1 1.6-2 2.3-2.1 3.9-.5m160 29.6c-.7 1.8-14.9 13.3-19.4 15.7-5.1 2.7-9.4 3.3-9.4 1.2 0-2.3 7.3-8.5 13.1-11.1 5.2-2.3 15-6.4 15.7-6.5.2-.1.2.3 0 .7m-65.4 107.9c.8 1.9-1 3.4-3.1 2.6-1.6-.6-1.7-1.5-.1-3.1s2.5-1.5 3.2.5"/></svg>