<svg xmlns="http://www.w3.org/2000/svg" width="682.667" height="512" version="1.0" viewBox="0 0 512 384"><path d="M0 192v192h69.7l.7-4.6c.3-2.6.6-6.6.6-8.9 0-4-.1-4.1-2.8-3.7-2.7.3-3 0-4.1-4-1-3.6-1-4.9.4-8.2.9-2.1 1.4-4.9 1.1-6.1s.1-3 .9-4.1c1.9-2.5 1.9-9.1 0-10.1-1.3-.8-4.5-8.2-4.5-10.5 0-.6.9-.8 2-.5 1.8.5 2 0 2-5.9 0-5.6.3-6.5 2.3-7.9 3-1.9 6-15 6.2-27 .2-12.2 1.6-16 8.7-22.8 3.3-3.2 5.8-6 5.6-6.3-1-.9-11.8-4.4-13.6-4.4-1.9 0-7.8 5.7-11.5 10.9-.9 1.4-1.8 2.3-2.1 2-.2-.2.4-6.3 1.5-13.4 1-7.2 2.5-18.9 3.3-26 .9-7.2 2.5-20.9 3.6-30.5s2.3-19.1 2.7-21c.6-3.4.5-3.5-1.4-1.7-1.1.9-2.7 1.7-3.6 1.7-1 0-6.8-2.5-13-5.6-6.1-3.1-12.5-5.8-14.2-5.9-1.6-.2-3.4-.3-3.9-.4s-.6-1.7-.3-3.7c.4-2.6-.1-5.4-1.8-9.7-1.4-3.3-2.5-6.4-2.5-6.9 0-.4 3-.8 6.6-.8 5.1 0 7.3-.5 9.6-2.1 1.6-1.2 5.8-3.3 9.2-4.8 10.7-4.5 10.9-4.8 9.6-10.6-2-9 1.8-29 8.1-42.1 7.6-16 20.5-25.6 38.5-28.6l7.9-1.3 4.7-7c6.5-9.5 12.3-17.4 15.5-21l2.6-2.9 3.4 3.9c1.8 2.2 5.9 8.3 9 13.5 7.2 12.1 8 13 11.5 13 6 0 17.6 3.3 26.3 7.5 16.9 8.2 30.7 24.2 36.6 42.4 3.7 11.4 4 22.5.9 28.6-1.1 2.2-2 4.7-2 5.8 0 2.7 3.8 9.7 8.1 14.9 2.1 2.6 3.9 5.3 3.9 6.2 0 .8-1.7 2.9-3.8 4.7l-3.8 3.1 2.9 11.1c3.9 15.5 7.1 24.5 13.1 36.7 6.3 12.9 12 21.9 14.4 22.6 5.3 1.8 6.9 2.8 9 5.7 2.2 3.3 3 7.7 1.4 7.7-.5 0-1.9-1.2-3.3-2.6-2.4-2.5-10.7-8.4-11.9-8.4-.3 0-1.5.8-2.6 1.7C245 247 243.8 247.5 237 244c-4.7-2.4-8.8-2.6-9.7-.5-.5 1.4-.7 1.4-2.3 0-2.1-1.9-14.9-3.2-17.5-1.8-1.5.9-.7 1.3 4.1 2.8 7.7 2.3 26.4 11.7 29.9 15 1.6 1.4 3.2 2.5 3.6 2.5 1.1 0 1 7.8 0 10.5-.6 1.4.1 3.7 2 7.6 1.6 3.1 2.9 6.2 2.9 6.9s.9 1 2.8.6c14.8-3.2 41.2-4.7 51.7-3 4.4.7 10.4 1.6 13.3 1.9 13.4 1.3 44.7 13.2 58.7 22.3 3.9 2.5 8.1 5.1 9.5 5.9 1.4.7 6.9 5 12.3 9.5 16.6 14 35.1 36.8 43.6 53.6l3.1 6.2h67v-99c0-83-.2-99-1.4-99-.7 0-5.5 3.1-10.6 6.9-9.7 7.2-16.3 10.2-18.1 8.4-.8-.8-.1-2.2 2.2-4.7 2.5-2.7 6.4-4.9 14.3-8.1 5.9-2.5 11.4-4.5 12.2-4.5 1.2 0 1.4-14.2 1.4-92V0H0zM491.2 27.2c-1.5 1.5-2.4.6-1.6-1.6.5-1.2 1-1.4 1.7-.7.8.8.8 1.4-.1 2.3m-82.7 45.9c.5.5-.5.4-2.3-.2-1.7-.6-3.2-1.3-3.2-1.6 0-.7 4.3.8 5.5 1.8m-69.4 76c1.5.7 2.4.7 3.4-.1 4.7-3.9 4.6 9.7-.1 19.2-2.8 5.7-4.4 7.3-4.4 4.3 0-.8-.4-1.5-.9-1.5s-1.1-1.7-1.4-3.8c-.3-2-.9-5.8-1.3-8.4-.4-3.1-.2-5.8.6-7.8 1.4-3.4 1.4-3.4 4.1-1.9m94.4 140c0 .7-.8 1.5-1.7 1.7-1.8.3-2.5-1.8-1.1-3.2 1-1 2.8-.1 2.8 1.5"/></svg>