<svg xmlns="http://www.w3.org/2000/svg" width="682.667" height="512" version="1.0" viewBox="0 0 512 384"><path d="M0 192v192h71.7l3.6-4.6c3.6-4.6 4-5.9 5.1-15.8.6-4.7.5-4.8-1.8-4.2-2.8.7-3.8-.4-5.4-6-1-3.4-.9-4.9.3-8.5.9-2.4 1.3-5.5 1-6.8-.4-1.5 0-3 1.2-4.3 1.4-1.6 1.5-2.2.5-3.6-.7-.9-1.7-2.8-2.3-4.2s-1.6-3.6-2.2-5-1.3-2.8-1.5-3.1c-.1-.4.8-.9 2.2-1.3 2.4-.6 2.5-1.1 2.8-7.8s.5-7.4 2.9-8.5c2.2-1.1 2.8-2.3 3.8-8.3.7-3.8 1.6-7.2 2.1-7.5.4-.3.6-1.4.3-2.5s-.2-6.4.2-11.7l.7-9.7 6-6.2 6-6.2-4.9-2.2c-2.6-1.2-7.1-3.3-10-4.6l-5.1-2.3-7.2 7.5c-3.9 4.2-7.3 7.4-7.5 7.2-.2-.1.8-2.9 2.1-6.1 6-14.1 17.7-78.1 14.8-80.6-1.7-1.6-28-9.2-29.5-8.6-2 .8-3.5-1.1-4.2-5.5-.3-1.9-2.1-6.2-4.1-9.4-2-3.3-3.6-6.4-3.6-6.8 0-1.5 5.4-3 8.9-2.4 2.7.4 4.1-.1 7.1-2.5 2-1.7 6.4-3.7 9.6-4.5 3.3-.9 7.3-2.7 9.1-4 3-2.2 3.1-2.6 2.1-5.5-.7-1.9-.9-7.4-.5-14.3 1.5-30.4 16.3-52.8 39.2-59.5 2.2-.7 7.8-1.8 12.4-2.4l8.5-1.2 5.3-7.4c2.9-4.1 7.3-9.6 9.8-12.4l4.5-5 3.5 3.9c1.9 2.1 5.8 7.6 8.7 12.1 5.1 8 5.4 8.3 9.8 8.8 19.3 2.6 32.9 8.6 44.3 19.4C225 64.3 233 75 235.8 80.5c6.4 12.8 8.4 32.3 4.1 40.7-1.9 3.6-2 4.6-.9 8.2.6 2.3 3.2 7.7 5.7 12.1l4.6 7.9-3.9 3.3-3.8 3.4 2.7 16.2c2.7 16.1 2.8 16.2 7.7 23.4 2.8 4 4.6 7.3 4.1 7.3-.6 0-1.3-.4-1.6-1-.3-.5-1.6-1.5-2.8-2.1l-2.1-1.2 1.9 2.9c1 1.6 3 4.6 4.3 6.7 2.6 4 2.4 5.9-.4 3.6-1.6-1.3-1.7-1.1-1 1.4.3 1.5 2 6.6 3.8 11.3 2.6 7.2 3.6 9 6.5 10.6 1.8 1.1 4 3.3 4.8 4.9 1.5 2.8 2 7.9.8 7.9-.3 0-3.1-2.7-6-6-3-3.3-5.9-6-6.5-6s-4 1.8-7.5 4.1c-8.2 5.1-12 5.8-16.6 3-1.9-1.1-4.1-2.1-5-2.1-4 0-1.9 2 6.6 6.4 18.2 9.5 17.7 9.1 17.7 14.7 0 2.8-.5 5.9-1 6.9-.8 1.5-.2 3.6 3 9.9l4 7.9 7.2-1.9c5.5-1.5 12-2.1 26.3-2.5 17.7-.6 19.8-.4 31.5 2 40.1 8.2 74.3 30.1 100.4 64.3 7.4 9.6 18 26.9 19.7 32.1l1.1 3.2H512V0H0zM506.8 30.1c-2.4 1.6-2.9.9-1.1-1.5 1.4-1.9 1.9-2.1 2.1-.9.2.9-.2 1.9-1 2.4m-82.9 48.6c1.3 1.3-5.5-.9-6.9-2.4-1.3-1.3-.9-1.2 2.4.1 2.2.9 4.2 1.9 4.5 2.3m-76.1 76.5c.9.9 1.5.9 2.4 0 1.9-1.9 2.6-1.5 4.8 2.8 2.2 4.4 2.8 14.9 1 19.5-.9 2.3-1.3 2.5-2.5 1.5-.8-.7-1.5-1.8-1.5-2.5s-1.8-4.7-4-8.9c-3.8-7.2-4.9-11.4-3.3-12.9.9-1 1.7-.9 3.1.5M442 295.9c1.3 2.6 1.3 3.1-.4 3.1-1.8 0-3.9-2.7-3.1-4 1-1.6 2.3-1.2 3.5.9"/><path d="M125.5 240.8c-2.2.8-6.2 1.4-9 1.4-2.7 0-6.3.7-8 1.6-2.9 1.6-2.9 1.7-.7 2 2.3.3 24.4-4.4 27.2-5.9 2.5-1.3-5.1-.5-9.5.9"/></svg>