<svg xmlns="http://www.w3.org/2000/svg" width="682.667" height="512" version="1.0" viewBox="0 0 512 384"><path d="M202.6 15.8c-2.8.2-4.8 1.3-7.4 3.8-3.2 3.1-3.5 3.9-3.7 9.7-.2 3.5-.6 7.4-1 8.7-.5 1.4-.3 2.5.6 3 .9.6 1 1.2.2 2.2-1.5 1.7-1 13.2.6 15.1.8 1 .8 1.7.2 2.2-.7.4-.7 1.2-.1 2.3.5.9 1.2 3 1.5 4.6l.6 2.9 6.2-.6c3.4-.3 7-.9 8-1.2 3.4-1.4 1.8 3.1-4.4 11.9-9 12.9-8.8 18 .6 18.8l4 .3-.2 4.5c-.1 2.5-1.2 10.3-2.3 17.3-1.2 7.1-2 13.1-1.7 13.3.2.2 1.6-2.7 3.2-6.6s2.9-6.9 3-6.8c.1.2-.8 7.9-1.9 17.3l-2.2 17-4.6 4.7c-3.8 3.8-4.8 5.7-5.6 10-4.2 22.8-5.1 27.1-5.9 27.8-.4.5-2.9.5-5.4.1s-5.1-.5-5.7-.3c-1.8.6-1.5 4.4.8 9.3 1.1 2.4 2 5.5 2 6.7 0 4-8.6 28.5-14.6 41.5-3.1 6.7-9.2 19.3-13.6 27.9l-7.9 15.7 2.7 6.3c2.7 6.2 2.7 6.7 2.7 26.3-.1 11-.4 27.3-.9 36.2l-.7 16.3h84.5c79.1 0 84.6-.1 85.2-1.7.6-1.3.9-1.4 1.5-.5.6 1.1 1.5.9 4.2-.6 7.3-4 10.4-13.4 11.6-34.2l.6-12 3.4-2c1.8-1.1 3.8-3.2 4.3-4.7.6-1.6 1.7-4 2.5-5.5 2.1-3.8 1.9-8.8-.8-14-1.6-3.1-1.9-4.4-1-4.1 1.1.4 1.2-.1.7-2.2-.5-1.9-.3-2.6.4-2.1 1.4.8 1.4-6.9 0-10.4-.5-1.4-1.2-4.3-1.5-6.5-.2-2.2-1.1-6.9-1.9-10.5-.9-3.6-1.7-8.1-1.9-10-.3-1.9-.7-4.1-1.1-5-.3-.8-.7-2.7-.9-4.2-.6-4.4-3.7-16.2-4.5-17.3-.4-.6-1.1-2.6-1.5-4.5s-1.2-4.4-1.8-5.5-1-2.4-.9-2.9c.2-.4-.6-2.7-1.6-5-1.1-2.2-2.7-6.1-3.7-8.6-1.8-4.9-7.4-16.2-11-22.5-1.3-2.2-3.1-5.4-3.9-7-.9-1.7-2-3.7-2.5-4.5-7.6-12-11.1-19.2-11.1-22.9 0-2.6.5-4.1 1.3-4.1.9 0 1.2-3.5 1.2-14s-.3-14-1.2-14c-2.4 0-1.5-10 1.2-14.5 2.9-4.7 3.3-2.6.6 2.9-1.9 3.7-1.9 3.7-.1 2.1 4-3.6 6-10 6-19V84l2.6.6c1.9.5 3.2 0 5.5-2.2 1.6-1.5 2.7-3.4 2.5-4-.3-.7.2-1.8 1-2.5s2.3-2.9 3.3-4.8c1-2 2.6-5.2 3.6-7.1s3.3-5.9 5.2-8.8c3.5-5.4 4.1-7.6 2.9-12.1-.8-3.3-.9-3.4-11.1-7.4-11.3-4.5-20.6-6.1-30.7-5.4-8.5.6-13.5 2.7-15.4 6.6l-1.2 2.3-1.3-2.8c-2.5-5.3-18.4-8.5-23.7-4.8-2.1 1.4-2.2 1.4-2.2-.8 0-7-27.7-16.4-44.4-15m7.2 137.9c-1.4 1.8-1.9 1.2-1.1-1.6.4-1.6.8-1.9 1.4-1 .4.7.3 1.9-.3 2.6m-.1 85.5c-.2 1.3-.4.5-.4-1.7-.1-2.2.1-3.2.4-2.3.2 1 .2 2.8 0 4m76.6 16.8c.5 14.4.3 18.9-.5 17-2-4.6-2.3-39-.4-36.9.2.2.6 9.2.9 19.9m1.6 36.7c0 3.5-.1 3.6-1 1.4-.5-1.4-.7-3.1-.5-3.8 1-2.4 1.6-1.3 1.5 2.4m29.5 85.6c.5 2.1.4 2.1-1.4-.3-2.3-2.9-2.6-4.8-.6-3.1.8.6 1.6 2.2 2 3.4"/></svg>