<svg xmlns="http://www.w3.org/2000/svg" width="682.667" height="512" version="1.0" viewBox="0 0 512 384"><path d="M0 192v192h69.8l6-7.9c5.7-7.2 6.2-8.3 6.8-14.3l.7-6.6-2.6.5c-2.3.5-2.7 0-4.3-5.1-1.4-4.5-1.5-6-.6-8.1.7-1.4 1.5-5 1.8-8.1.4-3 1.1-5.7 1.6-6s.3-1.1-.5-1.7c-1.3-1-4.7-9.7-4.7-11.8 0-.4.9-1.1 2-1.4 1.7-.5 2-1.5 2-6.8 0-6.4 1.8-10.7 4.5-10.7 1.6 0 5.5-15.9 5.5-22.4 0-2.4.3-7.2.7-10.7.6-6.1.8-6.5 6.6-12.1 5.2-5.1 5.7-5.8 3.6-5.8-1.3 0-6.6-2.1-11.6-4.7l-9.3-4.8-7.5 7.5c-8.3 8.2-9.5 7.7-4.5-1.8 5.2-10.1 13.6-47 16.4-72.2l.5-4.5-14.2-4.8c-7.8-2.7-15.5-4.9-17.2-5-2.7-.2-3-.5-2.8-3.6.1-2.1-1-5.1-2.9-8.5-1.7-2.8-3.1-6.5-3.2-8.1-.1-3-.1-3 5.6-3.1 4.5-.1 6.5-.7 9-2.6 1.8-1.4 5.8-3.2 8.8-4.1s6.8-2.5 8.4-3.4l2.8-1.8.3-15c.2-16.7 1.8-24.1 8-37 4.2-8.8 13.9-18.9 21.9-22.8 7.1-3.5 19.4-6.7 25.6-6.7 5.4 0 6.4-.7 11.7-8 2.2-3 6.1-7.8 8.7-10.5l4.6-5 3.6 4c1.9 2.2 5.7 7.2 8.4 11.1 5 7.3 6.8 8.4 13.9 8.4 4.9 0 14.5 3 23.1 7.2 7 3.4 10.2 5.8 18.1 13.7 7.8 7.9 10.3 11.1 13.7 18.1 7.2 14.8 9.5 32.1 5.2 40.5-1.1 2.2-2 4.8-2 5.8 0 2 5.4 13.8 9.2 20l2.3 3.9-2.7 2.3c-1.6 1.3-3.5 2.8-4.3 3.2-1.4.8-1.4 2.1 0 12.9.9 6.5 1.8 13.6 2.2 15.8.4 2.5 2.6 6.4 6.4 11.4 3.2 4.2 5.6 7.8 5.4 8-.2.3-1.9-.6-3.7-1.9l-3.3-2.4 2.9 5c1.6 2.8 3.6 6 4.4 7.2 1.8 2.8.9 2.9-3.4.2-4.2-2.5-4.2-2.1-1.3 8.8 3.8 14.6 4.7 16.7 7.8 18.5 3.1 1.7 5.9 8.3 4.8 11.2-1 2.6-2 1.8-5.9-4.5-2.1-3.3-4.5-6.2-5.5-6.6s-4.4.8-8.9 3.2c-5 2.7-8.4 3.9-11 3.8l-3.7-.1 4.4 2.5c2.4 1.4 5.8 3.1 7.4 3.9 1.7.8 4.6 2.4 6.6 3.7 3.2 2 3.5 2.6 3.8 7.3.1 3.3-.2 5.6-1.1 6.4-1.1 1-.6 2.6 2.5 8.9 2.7 5.3 4.4 7.5 5.5 7.3 22.9-3.5 35.2-3.9 51.2-1.8 34.2 4.6 65.1 19.6 91.1 44.4 8.1 7.6 22.8 24.8 26.4 30.7 8.9 14.7 14.5 24.8 14.5 26 0 1.3 4.2 1.5 33 1.5h33V207.4c0-140.9-.3-176.4-1.2-175.8-1 .6-1 .4 0-.7.8-.9 1.2-5.6 1.2-16.1V0H0zM426.1 79.1c2.1 1.8 2.1 2 .4 1.4-1.1-.4-2.8-1-3.7-1.2-1-.3-1.8-.9-1.8-1.4 0-1.6 2.7-1 5.1 1.2M358 161.8c2.6 5.4 3.6 15 2 17.2-1.3 1.7-1.1 1.9-6.1-6.5-1.6-2.8-4.1-6.6-5.5-8.4-3.1-4.3-2.8-6.7.8-6.3 1.5.1 2.9-.2 3.3-.7 1.1-1.9 3.3 0 5.5 4.7m87 138.8c0 1.8-1.4 1.8-3-.1s-.3-4 1.6-2.4c.8.6 1.4 1.8 1.4 2.5"/><path d="M126.5 237.2c-1.6.6-3.4 1.4-4 1.8-.5.4-3.2.6-6 .5-3.4-.2-5.8.3-7.5 1.5-1.4.9-3.4 2-4.5 2.5-1.6.6-1.7.9-.4 1.2s8.5-1.1 30.7-6c5.3-1.1 7-2.7 2.9-2.7-1.3 0-2.8.5-3.5 1.2-.9.9-1.2.9-1.2 0 0-1.4-2.4-1.4-6.5 0m100.5 2.6c0 .4 1.5 1.3 3.3 2l3.2 1.2-2.5-2c-2.7-2.1-4-2.5-4-1.2"/></svg>