<svg xmlns="http://www.w3.org/2000/svg" width="682.667" height="512" version="1.0" viewBox="0 0 512 384"><path d="M0 138c0 75.9.2 138 .5 138 .2 0 2-.8 3.9-1.7 2.9-1.3 4-1.4 6.2-.4 2.4 1.1 2.5 1.3 1.1 3.4-1.3 1.8-2.3 2.2-6.6 2l-5.1-.2V384l31.7-.2 31.8-.3 11.3-14c9.9-12.4 13.2-17.9 13.2-22.3 0-.6-.7-1.2-1.5-1.2-3.4 0-5.5-11.6-3.2-17.2 1.9-4.4 1.9-16.3.1-20.7-.8-1.9-1.3-3.5-1.2-3.5 3.8-1.4 4.3-2.6 4.8-10.1.3-4.3 1-8 1.5-8.2 4.3-1.5 5.9-3.4 8.3-9.8 2.2-5.8 2.7-8.6 2.7-16.9v-9.8l3.9-4.5c2.1-2.5 5.3-5.1 7-5.8 2.7-1.2 20.9-6.2 28.9-7.9 1.6-.4 2.7-1.3 2.7-2.3 0-1.3-.8-1.5-4.2-1-2.4.3-4.8 1.4-5.6 2.4-1 1.4-1.5 1.5-2.1.5s-1.3-1-3.7.2c-1.8 1-4.2 1.3-6.5 1-2.9-.5-4.7 0-8.1 2-6.6 3.9-9.8 3.4-19.7-2.7l-8.7-5.3-3.9 2.9c-2.2 1.5-5.9 4.7-8.2 6.9-6.7 6.6-6.5 5.1 1.4-9.1 2.8-5 9.4-24.8 12.7-38.3 2.9-11.8 6.9-35.8 6.1-36.6-.3-.3-.5 0-.5.6 0 2.6-6.9 1-17-3.9-5.8-2.8-12-5.3-13.8-5.6-4-.7-5-2.5-3.2-5.8 1.1-2.1 1-3.1-.9-7.5-1.2-2.8-2.1-6.4-1.9-7.8.3-2.3.8-2.7 3.8-3 2-.2 4.7.1 6 .6 2 .8 3.3.4 6.8-2 2.4-1.7 6-3.5 8-4s5.2-1.9 6.9-3c2.6-1.5 3.1-2.3 2.4-3.6-4.3-8.2.2-34.8 8.5-51.5 1.6-3 6-8.5 10.8-13.2 6.9-6.8 9.2-8.4 15.4-10.8 6.9-2.6 22.9-5.7 29.7-5.7 2.5 0 3.6-.9 6.2-4.8 1.8-2.6 5.6-7.2 8.4-10.2l5.2-5.4 3.4 3.9c1.9 2.2 5.2 6.6 7.4 9.8s4.6 6 5.2 6.2c.7.1 6 1.2 11.8 2.2 15.4 2.9 25.4 8.1 36.1 18.6 13.7 13.5 21.3 28.9 22.5 45.7.5 6.9.2 9.9-1.2 14.5-1.8 5.6-1.8 6-.1 10.9 1 2.8 4 8.5 6.7 12.6l4.9 7.4-3.2 3.3c-1.8 1.9-4.3 3.6-5.5 3.9-2.7.7-2.7.5-1.2 16.7 1.2 13.5 2.3 16.2 10.6 26.3 2.4 3.1 4.3 5.8 4.1 6-.3.2-2-.7-3.8-2.1-3.4-2.5-5.1-2.6-3.3-.3.5.7 2.5 4 4.3 7.2 3.3 5.8 3.1 6.1-2.2 2.4-3.6-2.5-4-2.3-3.4 1.4.3 1.8.7 5.8 1 8.8l.5 5.5-1.5-4c-2.6-7-3-5.7-1.8 6.7.9 9.1 1.5 12.3 2.7 13 3 1.6 4.5 12.8 1.8 12.8-.4 0-1.8-2.2-3-4.9-1.3-2.7-3.3-6-4.5-7.4l-2.1-2.6-7.5 3c-4.1 1.6-8.4 2.9-9.5 2.9s3.9 3 11 6.5c7.7 3.9 13.5 7.4 14.3 8.8.7 1.2 1.1 4.2 1 6.7-.3 3.7-.6 4.4-2 4.2-2.4-.4-2.3.3 1 5.7 2.7 4.4 5.8 12.6 8.2 21.8 1 4.1 1.2 4.3 5 4.3 2.1 0 4.2-.5 4.6-1.1.5-.8 3.2-.9 9.3-.4 4.7.5 12 .9 16.1 1s10.9 1.2 15 2.4c4.1 1.1 8.9 2.1 10.7 2.1s7.4 1.6 12.4 3.6c5.1 2 10.4 3.7 11.9 3.8s6.7 2.5 11.6 5.3 10.1 5.3 11.5 5.7c1.5.3 5.8 3 9.5 5.9 3.8 2.9 8.3 6.2 10.1 7.3 5.9 3.6 20.8 17.6 28 26.2 4 4.8 9.8 13.1 13 18.4l5.8 9.7 31.3.1H512V0H0zm438.6-53.5c1.6 1.2 1.6 1.4.3 1.5-.9 0-2.2-.7-2.9-1.5-1.6-1.9 0-1.9 2.6 0m-84.5 56.6c1.5.7 2.4.7 3.5-.2s1.7-.5 3 2.7c1.8 4.2 2.5 18.5 1.1 21.9-.7 1.7-1.2 1.2-2.9-3.4-1.2-3-3.4-7.5-4.9-10-1.9-2.9-2.9-5.8-2.9-8.3 0-4.2.2-4.3 3.1-2.7m98.7 166.1c1.4 1.4 1.6 2.8.2 2.8-.5 0-1.4-.9-2-2-1.2-2.2-.1-2.7 1.8-.8"/><path d="M145.8 229.7c.7.3 1.6.2 1.9-.1.4-.3-.2-.6-1.3-.5-1.1 0-1.4.3-.6.6"/></svg>