<svg xmlns="http://www.w3.org/2000/svg" width="682.667" height="512" version="1.0" viewBox="0 0 512 384"><path d="M0 47.5C0 83.8.3 95 1.2 95s.9.3 0 1.2S0 130.6 0 240.7V384l31.2-.2 31.2-.3L73.7 369c6.3-8 12-15.6 12.7-17 1.8-3.4 3.1-9.4 1.9-8.7-1.2.8-2.8-2.4-4.2-8.5-.9-3.7-.8-5.2.4-7.5.8-1.5 1.5-5.3 1.5-8.4 0-3 .5-6 1-6.5.8-.8.6-2.4-.4-5.5-1.5-4.3-1.5-4.4.9-6.4 2.2-1.7 2.5-2.9 2.7-9.4l.3-7.4 3.5-1.2c2.1-.7 3.6-2 3.9-3.1.2-1 1.4-4.5 2.8-7.7 2-4.9 2.4-7.3 2.2-14.8-.2-8.6 0-9.1 2.7-12.2 4.8-5.2 6.3-6 17.2-9.7 5.8-2 10.8-4.2 11-4.9.4-1.1 0-1.2-1.4-.6-1.1.5-4.6 1-8 1.1-4.2.2-7.5 1.1-10.9 2.8-2.6 1.4-5.6 2.6-6.7 2.6-2.2 0-7.9-2.7-16-7.7l-5.7-3.5-5.3 4.3c-2.9 2.3-6.8 5.6-8.7 7.3-3.3 3.1-3.3 3.1-2.6.6.4-1.4 2.2-4.8 4-7.5 3.6-5.4 10.1-22.4 14.1-37 3.8-14.2 9.9-46.5 7.8-41.8-1.1 2.5-6.1 1.2-18.2-4.7-6.7-3.3-12.8-6-13.5-6-2.8 0-3.7-2.2-2-5.1 1.5-2.6 1.5-3-.5-7.7-2.6-6-2.8-9.8-.6-10.6 2.4-.9 6-.7 8.7.5 2 .9 3.1.5 7.6-2.2 2.9-1.8 7.6-4.2 10.4-5.4 4.5-1.8 5.2-2.4 5-4.5-.2-1.4-.6-5.2-.9-8.5-.8-7.4 2.3-24.1 6.5-34.9 9.3-24.2 25.6-35.4 55.4-38.1l7.8-.7 5.4-6.6c3-3.7 6.8-8.3 8.5-10.2l3-3.5 4.6 5c2.5 2.7 6.1 7.2 8 10l3.4 5 11 2.1c17.8 3.5 32 11.7 42.8 24.7 5.1 6.2 13.5 23 15.3 30.7 1.8 8 1.6 20.7-.5 25.3-1.6 3.6-1.6 4 .7 9.5 1.3 3.2 4.5 9.1 7.2 13l4.8 7.3-3.2 3.3c-1.8 1.9-4.6 3.7-6.3 4-2.7.5-3 .9-2.5 3.3.3 1.6 1.2 8.6 1.9 15.8l1.2 13 6.3 8.2c3.5 4.6 6.3 8.6 6.3 8.9 0 .4-1.5-.5-3.2-1.8-5.6-4.2-6.2-4.4-4.7-1.7.6 1.3 2.7 4.7 4.5 7.6 1.8 2.8 3 5.4 2.7 5.7-.4.3-2.1-.5-3.9-1.9-3.9-3-4.7-3.1-4-.8.2 1 .7 4.9 1 8.8l.6 7-2-5-2-5 .5 4c.2 2.2.7 7.8 1.1 12.5.4 5.1 1.2 9.1 2 10.1 2.4 2.6 3.4 7.7 2.3 10.7-1.1 2.7-1.1 2.6-3.9-3.3-5.1-10.6-4.8-10.4-13.8-7.1-4.2 1.6-8.7 2.9-9.9 2.9-1.3-.1-2.1.2-1.9.6.3.3 6.5 3.6 14 7.1 14.8 7.1 15.2 7.6 14.4 16.1-.3 3-.6 3.4-2.8 3-2.4-.3-2.4-.2-.9 1.5 4.2 4.7 8.5 16 11.4 29.7 1.5 6.6 2 7.7 3.4 7.1 2.4-1 8.1-1.7 8.1-1 0 .4-.9 2.5-2.1 4.7-1.1 2.3-1.8 4.3-1.5 4.6.2.3 4.6 1.1 9.6 1.7 7.8 1.1 9.2 1.1 9.9-.2.7-1.2 1.7-1.2 7.7.2 3.8.8 9.1 2.2 11.9 3 4.2 1.3 5.2 1.3 6.4.2 1.4-1.4 4.2-.7 19.6 5.2 3.6 1.3 5.5 1.6 6.6.9 1.2-.7 4.1.3 11.7 4.3 5.7 3 10.7 5 11.6 4.7 1-.4 5.3 1.8 11.2 5.8 5.2 3.5 10.1 6.2 10.7 5.9.7-.2 4.8 2.8 9.1 6.6 4.3 3.9 8.3 7 8.9 7 .8 0 4.3 3.4 15.2 15 2.3 2.5 5.9 7.1 7.9 10.3l3.8 5.7H512V0H0zM443.1 87l2.4 2-3.3-1.1c-3.5-1.2-5.2-2.9-2.9-2.9.8 0 2.5.9 3.8 2m-86.7 48.1c1.3-1.1 1.7-.9 2.7 1.5 2.4 5.8 2.3 24.4-.1 24.4-.5 0-1.2-1.5-1.5-3.3-.4-1.7-2.3-6.2-4.1-9.9-4.5-8.8-4.6-15.2-.4-12.6 1.4.9 2.2.9 3.4-.1M18.5 278c.3.5.1 1.9-.5 3-.8 1.5-2.1 2-4.9 2-5.1 0-7.1-2.2-3.9-4.4 2.5-1.8 8.3-2.2 9.3-.6m438.3 33.6c-.4.3-1.2-.5-1.8-1.8-1.2-2.2-1.2-2.2.6-.6 1 1 1.5 2 1.2 2.4"/><path d="M139.1 227.3c-4.8 1.7-5.5 4.1-1 3.2 5.9-1.1 7-1.6 6.6-2.8-.5-1.6-1.8-1.7-5.6-.4m95.6 3.8c.7.7 1.5 1 1.8.7s-.2-.9-1.2-1.2c-1.4-.6-1.5-.5-.6.5"/></svg>