<svg xmlns="http://www.w3.org/2000/svg" width="682.667" height="512" version="1.0" viewBox="0 0 512 384"><path d="M0 192v192h60.8l6.5-8.3c20.4-25.8 24.2-32.2 20.8-35.6-2.7-2.7-3.6-11.7-1.6-16.5 1.1-2.5 1.4-5.1 1-7.6-.5-2.8-.2-4.2 1.1-5.5 1.7-1.6 1.7-2 .2-6.2-1.6-4.4-1.6-4.4.7-5.3 2.6-1 4.1-6 3.2-10.7-.8-4.1.8-7.3 3.7-7.3 2.8 0 4.2-1.5 5.2-5.5.4-1.7 1.5-4.7 2.6-6.8 1.4-2.9 1.9-6.1 2-13l.1-9.2 4.7-4.5c3.8-3.6 6.9-5.3 15.4-8.4 10.6-3.8 13.6-5.5 6.1-3.5-2.1.6-5.4.9-7.2.6-2.4-.4-4.5.1-7.6 1.8-6.9 4-11.4 3.4-21.3-2.6l-8.4-5.2-4 2.7c-2.2 1.4-6 4.7-8.5 7.3-2.5 2.5-4.8 4.4-5.1 4.1-.8-.8 2.4-7.9 4.6-10.3 3.6-3.8 11.8-25.9 16.5-44.3 2.4-9.5 6.5-30.2 6.5-32.8 0-2.1-.2-2.3-1.9-1.2-1.6 1-4 .1-15.7-5.5C72.7 141 66 138 65.3 138c-2.2 0-2.4-2-.7-4.9 1.7-2.8 1.6-3.2-.5-9.6-1.6-5.2-1.9-7-1-8.1 1.3-1.6 6.6-1.8 10.2-.5 2 .8 3.4.4 7.2-2 2.6-1.7 7.2-3.9 10.2-5.1 4.8-1.8 5.4-2.3 4.8-4.2-1.8-5.4-1.6-16.4.4-26.2 5-24.4 15.9-41 32.6-49.3 5.7-2.8 18.7-6.1 24.4-6.1 10 0 11.9-.8 16.4-6.9 2.2-3.1 6.1-7.7 8.6-10.4l4.5-4.7H0zm5-94.5c0 .2-.9.9-2 1.5-1.6.9-1.8.8-1.4-.5.5-1.3 3.4-2.2 3.4-1m19.6 183.9c.8 2.1-1.4 5.6-3.6 5.6-2.4 0-7-2-7-3.1 0-3 9.5-5.2 10.6-2.5M187.4 4.2c2 2.4 5.5 7.1 7.7 10.5 4.3 6.6 4.6 6.7 12.4 7.8 17.5 2.4 34.7 13.1 46.2 28.6 11.6 15.7 17.2 38.3 12.8 51-.9 2.5-1.3 5.6-.9 7.4.7 3.4 5.9 13.2 9.8 18.4 1.4 1.9 2.6 4.3 2.6 5.4 0 2.2-5.6 7.5-8.4 7.9-2.5.4-2.5 1.4-.3 21.1l1.5 12.8 6.1 8c3.3 4.3 5.8 7.9 5.5 7.9s-2.6-1.4-5.2-3.2l-4.6-3.2 3.3 6c1.9 3.2 4.1 6.9 4.9 8.1 1.8 2.8.5 2.9-2.8.3-1.4-1.1-2.8-2-3.2-2s-.6 6.9-.5 15.3c.2 13.8.5 15.6 2.5 18.8 2.2 3.6 3 10.3 1.4 11.3-.5.3-1.7-1.4-2.7-3.7-2.3-5.4-6.2-10.7-8-10.7-.7 0-3.5.9-6.2 2.1-2.6 1.1-7 2.6-9.7 3.3l-4.8 1.3 5.8 2.7c5.7 2.7 21.6 10.7 22.1 11.1.8.5 2 10 1.6 11.3-.4.8-1.5 1.2-2.9.9-2.5-.4-3.2.7-1.3 1.9 2.4 1.5 8.2 16.2 10.4 26.3 1.6 7.9 2.6 10.5 3.6 10.2.8-.2 2.9-.6 4.7-.9 3.8-.5 4 .4 1.3 5.6-1.8 3.6-3.8 14-3.2 17.2 1.2 7 2.3 9.2 5.6 10.6 4.5 1.9 8.5 1.8 8.5-.1 0-2.1 5.8-1.9 15 .5s10.9 2.5 12.5.4c1-1.5 2.2-1.3 12.8 2.1 9.9 3.3 12 3.7 13.9 2.6 1.9-1 3.3-.7 8.8 1.5 3.6 1.4 8.2 3.5 10.2 4.5 2.9 1.5 4.2 1.7 6.1.8 2-.9 3.5-.3 11.5 4.4 6 3.7 9.9 5.3 11.2 5 1.4-.4 4.3 1.2 9.6 5.2 4.2 3.1 8.7 5.8 10 6 1.4.1 4.9 2.8 8.3 6.4 3.3 3.3 6.7 6.1 7.5 6.1s2.4 1.6 3.6 3.5l2.2 3.5H512V0H183.7zm261 86.4c.5 1.2.2 1.2-1.7.3-3.4-1.8-4.7-3-4.1-4 .6-1.1 5 1.7 5.8 3.7m-93.8 41.3c1.1-.9 1.7-.5 3 2.7 1.8 4.4 1.5 15.6-.6 20.9l-1.2 3-1.3-5c-.6-2.8-2.4-7.8-3.8-11.2-3.7-8.7-3.5-12.4.5-10.2 1.4.7 2.3.7 3.4-.2M461 313.2c0 .6-.7.5-1.5-.2s-1.5-1.7-1.5-2.2c0-.6.7-.5 1.5.2s1.5 1.7 1.5 2.2"/><path d="M144.5 226.8c-3.2.7-6.8 2.2-6.4 2.7.3.2 2.7-.2 5.4-.9 4.6-1.1 5.5-2.8 1-1.8m94.5 4.1c0 .5 1.5 1.4 3.3 2l3.2 1.1-2.5-2c-2.7-2.1-4-2.5-4-1.1"/></svg>