<svg xmlns="http://www.w3.org/2000/svg" width="682.667" height="512" version="1.0" viewBox="0 0 512 384"><path d="M0 192v192h30.3l30.2-.1 2.7-3.7c1.5-2 7.6-10.2 13.6-18.1 11.7-15.4 14-19.9 11.7-23.5-2.3-3.7-2.9-12-1-15.6 1.2-2.4 1.5-4.5 1-7.6-.5-3.6-.3-4.6 1.6-6.5 2-2 2.1-2.5.9-5.7-1.1-3.2-1-3.7.8-5.1 1.6-1.3 2.1-3 2.4-9 .4-8 2.2-10.7 6.4-9.7 1.8.5 2.3-.2 3.8-5.2 1-3.1 2.7-7.3 3.8-9.4 1.7-3 2-4.9 1.6-11.3l-.5-7.6 4.3-3.7c2.4-2 7.6-5.1 11.6-6.7 7.1-3 7.1-3 3.7-3.6-2.5-.4-4.9.2-9.1 2.3-8.5 4.1-7.8 4.3-25.1-5.7l-4.8-2.7-3.7 2.7c-2 1.6-5.9 4.9-8.6 7.4-4.8 4.6-4.8 4.6-4.2 1.6.4-1.7 2.3-5.3 4.2-8C84 220 94 190.1 99 164.8c3.4-17.2 3.4-17.6 1.8-16-2.2 2.2-6.4 1.3-14.9-3.3-4.6-2.5-10.8-5.7-13.6-7-2.9-1.4-5.3-2.9-5.3-3.4 0-.4.9-2 2-3.3 1.9-2.6 1.9-2.6-.2-8.5-3.1-8.5-2.4-9.6 6-9.1 5.9.4 7.2.2 10.7-2.1 2.2-1.4 6.3-3.5 9-4.7 3.9-1.6 4.9-2.5 4.6-4-.2-1-.5-6.6-.5-12.4-.1-19.7 7.8-40.4 20.2-52.9 10.6-10.5 21.5-15.2 38.9-16.6 4.8-.4 9.7-1.1 10.9-1.6 1.2-.4 4.3-3.8 7-7.6 2.7-3.7 6.1-8 7.7-9.6l2.8-2.7H0zm8.5-92c-.3.5-1 1-1.6 1-.5 0-.9-.5-.9-1 0-.6.7-1 1.6-1 .8 0 1.2.4.9 1M31 285.6c0 .8-.5 2.4-1 3.4-.9 1.6-1.4 1.7-4.3.8-4.7-1.6-5.5-2.7-3.3-4.4 2.7-2 8.6-1.9 8.6.2M194.4 3.2c1.4 1.8 4.7 6.6 7.2 10.6 3.4 5.3 5.3 7.3 7.3 7.7 23 4.3 36.4 12.4 49.6 30 10.8 14.3 16.5 38.4 12 51.1-2.1 6.1 0 11.8 9.3 24.6 2.3 3.3 3.2 5.4 2.7 6.8-.7 2.3-6.5 7-8.7 7-2.3 0-2.6.8-1.7 5.3.4 2.3 1.3 9.1 1.9 15.2 1.5 14.9 2 16.2 8.1 24 4.6 5.9 4.9 6.6 2.4 5-1.7-1-3.8-2.5-4.8-3.3-3.2-2.8-2.8-.5 1.2 6.4 2.2 3.8 3.8 7 3.6 7.2s-1.4-.3-2.7-1.2c-3.5-2.5-4.1-2-3.5 2.6 2.8 21 3.8 26 5.6 29.4 2.2 4 2.8 10.4 1.1 10.4-.5 0-1-.4-1-.9 0-1.9-8.2-13.1-9.6-13.1-.8 0-4.7 1.3-8.6 3-8.3 3.5-13.8 3.8-17.9.9-2.7-1.9-4.9-1.9-4.9.2 0 .5.5.9 1.1.9.9 0 10 4.1 27.1 12.3 7.3 3.5 8.8 5.7 8.8 13 0 3.7-.1 3.9-2.8 3.5l-2.8-.4 3.3 5.6c3.9 6.4 7.8 18 8.8 26.3.4 3.1 1.1 5.9 1.5 6.2.4.2 2.1-.1 3.8-.7 4.8-1.8 5.9-.1 3.7 5.4-1 2.4-2.3 7.2-2.9 10.8-1 5.4-.9 7.1.4 10.5 2.3 6 7.1 12.1 11 14 3.3 1.6 3.4 1.8 1.5 3.1-1 .8-2.2 1.4-2.7 1.4-.4 0-.8 1.1-.8 2.5s-.8 2.9-2 3.5c-1.4.7-2 2.1-2 4.3.1 2.7.2 2.9 1.1 1.5 1.3-2.3 4.7-2.3 17.2.3l10.1 2.1 1.4-2.1c1.9-2.7 2.6-2.7 15.6 1 9.8 2.8 11 2.9 11.8 1.5 1.3-2.4 4.8-2 15 1.9 6 2.2 9.6 3.1 10.2 2.5 1.9-1.9 6.8-.9 14.7 3.1 6.4 3.2 8.4 3.8 9.5 2.8 1.8-1.5 4.8-.3 12.9 5.1 4.3 2.9 6.2 3.6 7.2 2.9 1.4-1.2 2.2-.8 7.9 3.8l4.1 3.3H512V0H191.7zm255.8 87.5c2.8 2.5 2.1 3.5-1.2 1.8-3-1.6-4-3.5-1.8-3.5.6 0 2 .7 3 1.7M349.5 131c.5.8 1.1.7 2.1-.1 1.2-1 1.7-.9 2.7 0 1.8 1.8 1.4 17.7-.6 22.1-1.1 2.5-1.6 3-1.6 1.5-.1-1.1-1.5-5.8-3.1-10.5-3.3-9.4-3.8-14-1.6-14 .8 0 1.8.5 2.1 1"/></svg>