<svg xmlns="http://www.w3.org/2000/svg" width="682.667" height="512" version="1.0" viewBox="0 0 512 384"><path d="M0 192v192h61.8l7.8-9.8c4.3-5.3 8.4-10.3 9.1-11 2.1-2.2 9.9-12.6 11-14.7.8-1.4.8-3.8.1-7.9-.9-4.9-.7-6.7.8-11.2 1.5-4.4 1.6-5.7.6-8-1.1-2.2-1-3.1.3-5.1.9-1.3 2.3-2.7 3-3 1.1-.4 1.2-1 .5-2.3-1.3-2.5-1.3-3 .5-3 2.3 0 3.5-3.4 3.5-10.4 0-7.3 1.6-9.9 5.9-9.4 2.4.3 3-.5 6.9-8.2s4.3-9.1 4-14.7c-.3-7.4 1.1-9.4 10.3-14.3 3.2-1.7 5.9-3.6 5.9-4.1 0-1.3-3.5-.2-7.9 2.4-5.8 3.5-10.5 2.8-21-3.3-10.7-6.2-10.3-6.2-20.5 2.5-3.6 3-6.6 5.1-6.6 4.5 0-1.7 2.7-6.5 4.5-8 3-2.5 11.1-21.2 17.4-40 4.3-12.7 11.1-40.7 10.4-42.6-1-2.8-4.3-3.7-6.4-1.9-1 1-2.7 1.5-3.7 1.3-1-.3-6.9-4.5-13-9.3l-11.3-8.9 3.7-3.6c3.4-3.3 3.7-4.1 3.8-9.6s.3-5.9 2.5-6.2c1.4-.2 4.2.2 6.4.9 3.6 1.2 4.2 1.1 11.3-2.4 7-3.5 7.4-3.8 6.3-5.9-1.7-3.2-.5-21.7 2.1-30.8 5.4-19.2 16.3-34.3 29.8-41.3 9.1-4.7 12-5.5 25.5-7.1 6.5-.7 11.9-1.5 12.1-1.7s3.3-4.9 7.1-10.4C190.7 16.3 200 5 201.3 5c.9 0 11.1 15.8 16 25l4.6 8.5 5.3 1.2c8.4 2 20.7 8.6 27.6 14.8 18.5 16.8 27.5 41.1 23.1 62.4-1.1 5.2-1 5.9 1.4 10.8 1.5 2.8 5.1 7.8 8.1 11.1l5.5 5.9-3.2 3.4c-1.8 1.9-4.9 4.6-6.8 6.1l-3.5 2.6 4.3 21.8c3.4 17.4 4.7 22.2 6.5 24.2 1.9 2.1 2 2.4.5 1.9-2.2-.8-2.3-1.4 3.4 21.8 2.2 8.8 4.7 16.7 5.5 17.6.9 1 1.8 3.7 2.1 6.1l.6 4.3-3-4c-1.7-2.2-4.6-5.5-6.5-7.2l-3.4-3.3-9.4 4.5c-5.2 2.5-10.6 4.5-11.9 4.5s-4.4-1.2-6.9-2.6c-4.2-2.5-4.7-2.6-8.5-1.3l-4 1.3 4.4 1.9c2.4 1 7.3 2.8 10.9 4s9.7 4.3 13.7 7c7.8 5.3 8.8 7.1 8.1 15.2-.2 3.3-.6 3.9-2.2 3.7-1-.2-1.7.1-1.5.5 4 9.8 6.2 15.1 6.9 16.3 1 2.1 8.3 3.2 16.3 2.5 6.6-.5 18.7 1.4 23.1 3.7 1.3.7 2.6.6 4.1-.2 2-1.1 3.8-.7 13.2 2.8 6.6 2.5 11.7 3.9 13 3.6 1.5-.4 5 .9 10.8 4 4.7 2.6 9.9 4.8 11.4 5 1.6.2 6.6 2.9 11 6.1 4.5 3.1 9.2 6 10.6 6.3 3.3 1 17.4 12.9 28.3 24.1 6 6.2 11.6 13.4 16 20.3l6.7 10.7 29.3.1H512V0H0zM327 5.4c0 .3-.4.8-1 1.1-.5.3-1 .1-1-.4 0-.6.5-1.1 1-1.1.6 0 1 .2 1 .4m131.4 90.2c1.7 1.6 2.1 3.4.8 3.4s-5.2-3-5.2-4.1c0-1.4 2.7-1.1 4.4.7M344.5 132c.5.8 1.1.8 1.9.1 3.6-3 3.6 5.8 0 20.9-.5 2-1 1.1-2.4-4.5-2.8-10.5-2.4-21.2.5-16.5M41.8 290.9c.8.4 1.2 1.9 1 3.2-.2 2-.8 2.4-3.2 2.2-4.2-.3-5.3-1.8-3.1-4.3 2-2.2 3.3-2.4 5.3-1.1"/></svg>