<svg xmlns="http://www.w3.org/2000/svg" width="682.667" height="512" version="1.0" viewBox="0 0 512 384"><path d="M0 192v192h58.8l4.9-5.7c9.5-11.1 16.4-20.4 17.9-23.8 1.3-3.1 1.3-4.3-.1-10-1.3-5.7-1.3-6.8.1-10.1 1.1-2.6 1.3-5.1.9-8.4-.6-4.5-.5-4.9 2.5-7.2 2.9-2.3 3-2.7 1.9-5.1s-1-3 .9-4.8c1.8-1.6 2.2-3.1 2.2-8.8 0-7.5.7-8.7 5.4-9.3 2.5-.2 3.2-1 4.5-4.8.9-2.5 2.6-6.5 3.9-8.8 1.9-3.5 2.3-5.7 2.1-11-.2-6.5-.2-6.6 3.6-9.7l3.8-3.2-4.8-1.7c-2.7-.9-5.8-1.6-6.9-1.6-2.2 0-7 5.2-10.7 11.4-2.3 4-3.9 3.9-3.9-.3 0-3.9 2.8-9 5.5-10.3 1.6-.7 2.7-2.7 3.9-6.9.9-3.2 1.6-6.9 1.6-8.1 0-1.3.9-5.7 2-9.8 2.3-8.8 2.2-8 1.2-8-.5 0-2.3 1.4-4 3.1-3.8 3.8-4.1 2.5-.7-4.1l2.5-4.8-3.3.8-3.2.9 4.2-3.7c6.2-5.4 7.3-9.5 7.3-26.6v-14.2l-14.6-2.9c-8.9-1.7-14.8-3.3-15.1-4.1-.3-.7.4-2.5 1.6-4l2.1-2.6-2.5-4.2c-5.4-9.2-1.8-14.1 9.7-13 4.7.5 5.6.3 8.1-2.1 5.6-5.4 5.9-6.4 3.6-13.1-3.7-10.3-2.3-25.9 3.7-41.8 7.9-20.8 24.8-35.7 45.7-40.2 4.4-.9 12.9-1.6 21.9-1.7l14.7-.2 7.9-10.5c4.4-5.8 10.7-13.1 14-16.3l6-5.9 4 7.4c2.2 4 5.9 11.8 8.1 17.3 2.3 5.5 4.6 11 5.1 12.2s2.6 3.3 4.7 4.6c7.7 4.9 14.1 10.6 18.7 16.8 9.8 13 14.6 26.4 14.6 40.5 0 7.5.3 9.4 1.4 9.4 2 0 2.3.6 4 9 .9 4 2.3 8.1 3.2 9.1 1.1 1.2 1.5 2.9 1.2 5-.3 1.8.1 4.4.8 5.9 2.6 5.1 2.7 8.3.4 11.3-2.7 3.4-4.3 3.4-6.8.2-1.1-1.4-2.2-2.5-2.5-2.5-.6 0 6.4 18.8 11.7 31.3 8.1 19.4 20.5 41.6 27.1 48.4 2.5 2.5 4.5 5.2 4.5 5.9 0 1.8-.8 1.8-2.7-.1-2.4-2.5-13.1-9.5-14.3-9.5-.7 0-4.6 2.5-8.7 5.5-9.4 6.9-11.8 7-20.1 1.5-5.3-3.5-12.9-7-15.3-7-.5 0-.9 1.7-1 3.7-.1 2.1-.4 4.9-.8 6.3-.7 2.3-.8 2.3-1.3.5-.4-1.1-1-3.5-1.3-5.3-.4-1.8-1.3-3.6-2.1-3.9-1.5-.5-25.1 10.4-24.3 11.2.7.7 32.2 11.3 35.6 12 1.7.3 6.3 2.9 10.2 5.6 6 4.2 7.2 5.5 8.2 9.1.6 2.4 1.3 4.9 1.5 5.7.3 1 1.5 1.2 4.7.6 13.5-2.3 45.5-.9 56.2 2.5 1.7.5 6.2 1.9 10 3 3.9 1.2 8.4 2.8 10 3.5 1.7.8 6.4 2.9 10.5 4.6s8.2 3.7 9 4.4 5.1 3.5 9.6 6.2c8.2 4.9 17.2 12.1 25.4 20.3 17.2 17.2 27.1 30.9 37.5 52l6.5 13h58V0H0zM336 9.9c0 1.2-2 2.5-2.7 1.8s.6-2.7 1.8-2.7c.5 0 .9.4.9.9m133.4 91.7c1.5 1.5 2.2 4.4 1 4.4-1.8 0-4.4-2.4-4.4-4 0-2.4 1.3-2.6 3.4-.4M340 131.4c0 .3-.4.8-1 1.1-.5.3-1 .1-1-.4 0-.6.5-1.1 1-1.1.6 0 1 .2 1 .4m.3 7.9c2-1.9-2.3 17.9-4.9 22.9-2.2 4.3-2.7 2.9-.8-2.8.9-2.8 1.5-8 1.4-12.2-.1-7.9.5-9.9 2.4-8.3.7.6 1.6.8 1.9.4M402 249c0 .5-.4 1-1 1-.5 0-1-.5-1-1 0-.6.5-1 1-1 .6 0 1 .4 1 1M59 303.9c1.6 3.2 1.3 5-1 4.4-3.1-.8-4.5-3-3-4.8 1.7-2 2.7-1.9 4 .4m426.6 19.8c-.8.9-4.6-1.8-4-2.8.4-.6 1.3-.4 2.5.7 1.1.9 1.7 1.9 1.5 2.1"/></svg>