<svg xmlns="http://www.w3.org/2000/svg" width="682.667" height="512" version="1.0" viewBox="0 0 512 384"><path d="M0 192v192h40l2.5-4c2.5-4 5.1-10.6 9.5-24.4 1.9-5.9 2-7 .8-7.7-.8-.5-2.3-2.8-3.2-5.2-1.5-3.9-1.5-4.7-.2-7.2 1.1-2.2 1.2-3.2.3-4.7-1.3-2-1.1-2.2 5.5-6.9 3-2.1 3.8-13 1.4-17.7-2-3.8-2-4.2-.1-4.2 1 0 1.5-1.5 1.7-5.8.3-5.7.3-5.7 3.8-6.2 2.5-.4 3.6-1.1 3.8-2.5.9-5.5 4.8-16.7 7.7-22.2 1.9-3.3 3.1-6.4 2.7-6.7-.3-.4-.9-2.8-1.2-5.4l-.5-4.7h-11l-1.2 8.5c-.6 4.7-1.2 8.6-1.2 8.7-.1.2-.9.3-2 .3-2.5 0-5.3-6.1-4.9-10.8.2-3 1-4.1 4.2-6.2l3.8-2.5-.6-6c-2.8-25.2-3.4-50.8-1.5-68.5.7-7.5.7-10.6-.1-11.4s-1.4-.6-2.1.6c-1.3 2.4-4.1 2.3-9.2-.3-6-3.1-16.7-10-16.7-10.8 0-.3 2.5-2.1 5.5-3.9 4.7-2.8 5.5-3.7 5.5-6.3 0-1.9 1-3.9 2.5-5.5 2.1-2.1 3.4-2.5 7.1-2.3 3.7.3 4.9-.1 7.1-2.3l2.6-2.6-2-2.9c-4-5.6-5.6-12.2-5.6-22.8 0-12.8 2.2-22.8 7.4-33.5 3.4-7.1 5.5-9.9 12.6-16.8 6.9-6.6 10.5-9.2 17.7-12.7 11.7-5.6 20.7-7.3 45.6-8.5 10.7-.5 19.6-.9 19.6-1 .1 0 3.6-4.4 7.7-9.8 4.1-5.3 9.3-11.4 11.5-13.6l4.1-3.9 2.1 3.4c2.7 4.4 5.8 11.1 11 23.5 3.7 8.9 5.1 11 12.1 18.2C218.3 59.4 226 77.1 226 92.5c0 9.4.9 10.8 7.3 10.3l5.1-.3 1.1 7.8c.6 4.3 1.7 8.2 2.4 8.6.9.6 1.1 1.8.5 4.2-.4 1.9-.7 5.9-.5 9 .2 4.3-.2 6-1.5 7.4-1.7 1.7-1.9 1.6-4.1-.9-1.3-1.5-2.3-3.4-2.3-4.2s-.4-1.4-1-1.4c-1.3 0-1.3 8.8.1 14.7.9 4 2.9 9.7 5.6 16.2 1.3 2.9-4.4-2-6.3-5.4-1-1.9-2.1-3.5-2.4-3.5s-1.4 1.5-2.4 3.4c-1.7 3.3-1.7 3.7-.1 7.9.9 2.4 3.9 6.8 6.6 9.8 4.8 5.3 5.2 7.2.9 4.9-2.1-1.1-2.1-1.1-.4 2.2 4.4 8.8 12 21.2 15.3 25.1 2 2.3 4.2 5 4.9 5.9.8 1-3-.5-8.8-3.3-11.6-5.8-9.6-6.1-19.8 3.5-4.7 4.6-5.7 5.1-10.2 5.2-2.7.1-6.8-.5-9.1-1.2-2.7-1-7.2-1.4-12.7-1.2l-8.6.3-.9 3.5c-1.1 4.5-1.4 4.7-3.1 2.5-1.2-1.7-1.7-1.8-4.1-.7-1.4.7-2.5 1.7-2.3 2.3.4 1.3 1.9 1.8 26.8 10 10.2 3.4 20.3 6.8 22.5 7.5 2.2.8 6 3.1 8.5 5.3l4.5 3.9.2 8.3c.2 7 .9 9.9 3.8 17.1 2 4.8 4.1 11.4 4.6 14.7l1.1 5.9 5.4-.5c4.6-.5 5.4-.3 5.4 1.1 0 2 1.9 2.1 2.7.1.5-1.3 2.6-1.6 13.1-1.4 10.8.1 12.6-.1 13.4-1.6 1.1-1.9 5.6-1.6 18.1 1.2 6.4 1.4 6.9 1.4 8.2-.3 1.2-1.7 1.8-1.7 12.8 1.4 9 2.5 12 3 13.4 2.2 1.4-.9 4.1-.2 12.9 3.3 7.9 3.1 11.4 4.1 12.6 3.4 1.1-.7 4.1.5 11.7 4.7 5.7 3.3 10.9 5.5 11.7 5.2.9-.4 5.2 2 10.7 5.9 5.1 3.6 9.8 6.5 10.5 6.5.8 0 5.2 3.4 9.8 7.5s8.8 7.5 9.3 7.5c1.9 0 18.8 21.2 24 30.2l5.6 9.7 26.8.1H512v-25.8c0-18.7-.3-26.1-1.2-27s-.9-1.5 0-2.4 1.2-38.9 1.2-165V0H0zM354 18.5c0 1.7-2.2 2.9-4.1 2.3-.8-.3-.6-.9.5-2.1 2.2-2.1 3.6-2.2 3.6-.2m43 93.5c0 .5-.4 1-1 1-.5 0-1-.5-1-1 0-.6.5-1 1-1 .6 0 1 .4 1 1m98 2.9c0 3.6-1.7 4.9-3.7 2.8-1.2-1.1-1.3-1.9-.4-3.6 1.7-3.1 4.1-2.7 4.1.8m-447.3 6.7c-.3.3-1.2.4-1.9.1-.8-.3-.5-.6.6-.6 1.1-.1 1.7.2 1.3.5M353 144.4c0 1.6-1.8 3.1-2.7 2.2-.8-.8.5-3.6 1.7-3.6.5 0 1 .6 1 1.4m-4.6 15c-.4 1.2-2.1 5.3-3.9 9.2-2.4 5.2-4.1 7.6-6.7 9.2-5.4 3.3-6.1 3-5.3-2.5.6-4.1 1.6-5.7 7.1-11.4 6.6-6.7 10-8.4 8.8-4.5M413 260.5c0 .8-.7 1.5-1.5 1.5-2.6 0-1.8-2 1.3-2.9.1-.1.2.6.2 1.4"/><path d="M203.6 374.7c-.3 1-.8 3.5-1.2 5.5l-.6 3.8h8.1c6.2 0 8.1-.3 8.1-1.4 0-1.7-.9-2.4-8.2-6.5-5.1-2.8-5.7-3-6.2-1.4"/></svg>