<svg xmlns="http://www.w3.org/2000/svg" width="682.667" height="512" version="1.0" viewBox="0 0 512 384"><path d="M195.5 11.5c-1.6.7-2.6 1.4-2.1 1.4.6.1-.2 1.3-1.7 2.8l-2.6 2.8.4 18.4c.2 12.2.7 18.6 1.4 19.1.7.3.9 1.4.6 2.2-.4.9-.1 1.9.4 2.3.6.3.9 1 .6 1.5s-.1 2 .5 3.4c.8 2.2 1.6 2.6 4.7 2.6 2.1-.1 5.8-.5 8.2-.9l4.3-.9-.6 3.1c-.4 1.8-2.6 6.1-5 9.7-5.7 8.5-6.6 10.4-6.6 13.2.1 3.4 2.1 5.3 6 5.6 4.5.5 5.5 1.6 6.7 7.8.7 3.9.5 8.1-.8 16.9-2 13.2-1.6 16.7 1.2 10.8 2.3-4.9 2.3-3.2-.1 10.2-1 6-1.7 11.2-1.4 11.4.2.2 1-1.1 1.8-3l1.5-3.4.1 3.7c0 3.8.2 3.6-9 10.2-5.5 4.1-7.6 9.2-8.9 21.2-.6 5.6-1.6 12.4-2.2 15.3l-1.1 5.1h-5.3c-2.9 0-6 .3-6.9.6-2.4.9-1.9 5.2 1.4 11.9l3 6-4.1 15c-3.7 13.4-5.5 18-18.1 43.5-7.7 15.7-14.4 29.8-14.9 31.5-.8 2.7-.6 3.3 2.8 6.1l3.6 3-1.1 14c-.9 12.7-.5 22.5 1.3 25.4.5.8-1.2 12-3.1 20.7l-.4 2.3h195.6l1.7-7.3c1-3.9 2.2-11 2.7-15.7 1.3-10.6 1.4-10.8 4.4-12 1.4-.5 3.3-2.2 4.2-3.7 1-1.5 2.6-3.8 3.7-5 3-3.4 2.6-9.8-1.3-18.2-2.4-5.2-3-7.5-2.2-8.3.6-.6.8-1.6.6-2.2s.2-3.3 1-5.9c1.4-4.8 1.4-4.9-2-11.2-1.9-3.6-4.2-8.8-5.1-11.7-.8-2.9-1.8-5.7-2.1-6.3-.4-.5-.7-2.7-.8-4.8s-.7-4.4-1.4-5.2c-.6-.8-.9-1.8-.6-2.3.4-.7-1.5-9-3.1-13.2-.3-.8-.8-2.4-1-3.5-.2-1-.8-2.2-1.4-2.5-.5-.4-.9-1.1-.8-1.6.4-1.5-2.1-9.3-3.1-9.9-.6-.4-.8-1-.5-1.5.7-1.2-1.6-7.4-3.2-8.3-.7-.5-1.1-1.2-.8-1.7s-.1-2.2-.9-3.7c-.9-1.8-1.2-4.4-.9-7.4.5-4.4.3-4.7-3.4-7.7-2.7-2.1-5.3-5.8-8.1-11.4-2.3-4.6-6.2-11.9-8.7-16.3-7.5-13.2-8.5-15.8-7.8-19.9.4-2.5 1.1-3.6 2.3-3.6 1.5 0 1.7-.5 1-3.8-.5-2-1-8.8-1.2-14.9-.2-7.9-.7-11.4-1.5-11.8-.7-.2-1.3-1.9-1.3-3.8 0-1.8.6-3.9 1.3-4.6.8-1 .8-1.2 0-.7-1.7.9-2.7-1.2-1.3-2.9 1.7-2 3.1-1.9 2.3.2-1.2 3.2 1.7.2 4-4 1.9-3.6 2.2-5.8 2.2-14.4 0-9.2.2-10 1.7-9.2 3.3 1.8 6.4 1 8.8-2.4 1.4-1.7 2.3-3.8 2.2-4.6-.2-.7.1-1 .6-.7.8.5 6.4-9.1 6.3-10.9 0-.8 6.6-13.2 9.4-17.5 1.2-1.8.9-8.3-.4-10.8-1.2-2.2-14.5-7.5-24.6-9.8-5-1.2-9.7-1.5-16.5-1.1-11.4.7-16.4 2.3-18.9 6.1-1.9 2.8-1.9 2.8-3 .7-1.8-3.3-6.5-5.1-15.1-5.8-6.4-.5-8.4-.3-10.5 1.1-2.4 1.6-2.5 1.6-2.5-.8 0-5.1-16.7-12.6-32.3-14.6-10.9-1.3-18.6-1.2-22.2.5m101.3 266v10l-1.4-5.5c-2.2-8.5-2.9-29.3-1.3-36.5l1.4-6 .6 14c.4 7.7.7 18.5.7 24m1.5 28.5c.3 1.1.1 1.8-.4 1.4-.5-.3-.9-1.2-.9-2 0-2 .7-1.7 1.3.6"/></svg>