<svg xmlns="http://www.w3.org/2000/svg" width="682.667" height="512" version="1.0" viewBox="0 0 512 384"><path d="M0 192v192h22.8l4.1-10.4c2.3-5.8 4.1-10.8 4.1-11.3-.1-.4-1.2-2.1-2.5-3.7-1.9-2.4-2.2-3.4-1.3-4.9.8-1.6.7-2.2-.6-2.9-2.5-1.4-1.9-3.5 1.3-4.6 4.5-1.6 9.8-8 11.2-13.6 1.1-4.6.9-11.8-.7-21l-.7-3.9 4.5.5 4.5.5 2.3-7.1c3.1-9.4 6.5-17.1 10.1-22.7 2.7-4.3 2.9-4.9 1.9-9.9-.5-2.9-1-5.5-1-5.9 0-.3 4.5-3.1 10-6.1 9.3-5.1 12.6-7.9 8-6.7-1.1.3-2 .1-2-.4 0-2.3-3.1-1.9-5.4.8-1.4 1.5-2.6 2.2-2.6 1.5 0-1.8-2.1.3-3.7 3.8-1.2 2.5-1.2 2.5-1.2-.8-.1-3.4-.9-4-2.9-2-1.8 1.8-1.5.2.8-4.2l2-4-2.4-.6c-2.6-.6-6.2 1.4-11.6 6.2-1.4 1.2-4.3 2.7-6.6 3.3-4.4 1.2-7.2 3.7-9.8 8.8-1.9 3.9-5 4.3-8.8 1.3l-2.5-1.9-4.8 6c-2.6 3.3-6.3 6.8-8.2 7.7-3.3 1.6-3.6 1.6-4.9-.3-4.3-5.9 2-19.4 8.5-18.2 3 .6 9.3-1.5 12.9-4.3 7.6-6.1 17.3-26.7 26.7-56.9 1.3-4.4 1.4-5.5.3-6.2-.7-.5-1.7-.9-2.2-.9s-3.8-1.6-7.3-3.6l-6.5-3.6 7-6.8c6.8-6.6 12.2-15.3 12.2-19.5 0-1.2-1.4-4-3.1-6.3-4.8-6.5-5.9-11.7-5.9-27.7 0-21.5 3.7-31.2 16.6-43.4C79.7 61.7 93.8 56 122.5 53.5c9.4-.8 17.9-1.7 19-2 1.5-.5 2.8-3 5.2-10.3 1.7-5.3 4.1-11.9 5.4-14.7l2.2-4.9 3.4 3.9c1.9 2.2 7.2 9.7 11.9 16.7 4.6 7 9.3 13 10.4 13.3 4.2 1.3 14.2 9.8 18.6 15.7 8.3 11.3 12.5 21.8 14.4 36.1.7 4.9 1.8 8.9 2.8 10.1 3.1 3.4 9.4 5.9 14.8 5.8h5.2l1.3 4.6c1.2 4.3 1.1 4.6-.9 6-2.1 1.4-2.1 1.6-.7 3.2 1.5 1.6 1.5 1.9 0 3.4-1.9 1.8-3.5 6.9-3.5 10.7 0 1.4-.6 3.3-1.3 4.3-1.3 1.7-1.4 1.7-3 .1-1.8-1.8-2-1.5-1.7 3.1.1 1.8-.4 5-1 7.3-.9 3.5-.8 4.7 1 8.3 2.4 4.9 1.7 6.5-1.2 2.5-2.3-3.2-3.4-3.4-4.3-.7-.3 1.1-2.3 3.6-4.3 5.5l-3.7 3.4 4.5 4.6c4.2 4.3 4.2 5.7-.2 3.4-2.7-1.5-3-.9-1.9 4.7 1.5 7.7 2.2 16.1 1.2 14.4-.4-.8-1.1-3.1-1.5-5.1-.3-2-1.5-4.4-2.6-5.4-2-1.8-2-1.7-2 1.7 0 5.3 2 20 3.1 22.6.5 1.3.5 2.1.1 1.8-.5-.3-.6 2.1-.4 5.3.2 3.3 0 6.1-.6 6.5-.5.3-3.3-1.5-6.1-4-2.9-2.6-5.5-4.4-5.8-4-.3.3-1.2-.3-2-1.4-1.9-2.6-3.9-2.5-4.7.2-.5 1.8-.8 2-1.5.9-1.3-2.1-5.5-.1-12.6 5.9-4.8 4.1-6.6 5-10.4 5.2l-4.6.3 3 1.4c6.3 2.7 31.4 9.9 39 11.2 6.2 1 9 2 12.7 4.6 7.6 5.5 9.8 8.7 9.8 14.4v5l2.8-1.5c4.5-2.6 25-8.3 35.8-10 11.7-1.8 35.8-2.1 45.4-.5 3.6.6 7.6 1.1 9 1.1 1.4-.1 6.8 1.2 12 2.8 5.2 1.5 10.9 3.1 12.5 3.4 1.7.4 6.6 2.4 11 4.5s9.1 4.2 10.5 4.6c4.7 1.5 23.5 13.9 33.7 22.2 12 9.8 23.3 22 32.5 35.3 6.7 9.7 19.8 33.8 19.8 36.4 0 .9.5 2.7 1.2 4.1l1.1 2.5H512V256.1c0-101.4-.3-128-1.2-128.4-1-.4-1-.7-.1-1.8 1-1 1.3-15.1 1.3-63.6V0H320C150 0 128 .2 128 1.5c0 .8-.4 1.5-.9 1.5s-1.6-.7-2.5-1.5C123.3.2 115 0 61.6 0H0zM143 8c0 .5-.7 1-1.5 1s-1.5-.5-1.5-1c0-.6.7-1 1.5-1s1.5.4 1.5 1m224.8 19.2c-.5 1.5-4.8 2.4-4.8 1s1.2-2.2 3.3-2.2c1 0 1.7.5 1.5 1.2m40.7 91.8c.3.5-.1 1-1 1s-1.3-.5-1-1c.3-.6.8-1 1-1s.7.4 1 1M363 155.5c0 1.8-3.6 3.9-4.4 2.6-.7-1 2-4.1 3.5-4.1.5 0 .9.7.9 1.5M352 173c0 .5-.7 1-1.5 1s-1.5-.5-1.5-1c0-.6.7-1 1.5-1s1.5.4 1.5 1m13.7 7.5c-.1 4-4.3 9.3-9.4 11.9-3.1 1.5-12.3 2.2-13.6 1-.8-.8 1.3-5.4 3.7-8.2 2.6-3 13.2-8.2 16.7-8.2 2.4 0 2.7.3 2.6 3.5M295 223c0 .5-.2 1-.4 1-.3 0-.8-.5-1.1-1-.3-.6-.1-1 .4-1 .6 0 1.1.4 1.1 1m126.5 48.1c-.8 1.2-3.5 1.2-3.5 0 0-1.1 2.2-2 3.3-1.4.4.2.5.9.2 1.4"/><path d="M124 240.4c0 .9.5 1.6 1 1.6.6 0 1-.4 1-.9 0-.6-.4-1.3-1-1.6-.5-.3-1 .1-1 .9m-8.2 2.3c.7.3 1.6.2 1.9-.1.4-.3-.2-.6-1.3-.5-1.1 0-1.4.3-.6.6M90 243.9c0 .5-.3 1.6-.6 2.4-.4 1.2 0 1.4 1.5 1 2.4-.6 2.3-.5 1.5-2.7-.7-1.7-2.4-2.2-2.4-.7m-21.9 4.7c0 1.1.3 1.4.6.6.3-.7.2-1.6-.1-1.9-.3-.4-.6.2-.5 1.3m127 123.6c-.4 1.3-1.1 4.4-1.3 7-.5 4.7-.5 4.8 2.2 4.8 3.1 0 4-1.8 4-8.6 0-2.9-.5-4.4-1.6-4.8-2.3-.9-2.4-.8-3.3 1.6m50.5 10.3c.4.8 1.1 1.5 1.6 1.5.6 0 .5-.6-.2-1.5-.7-.8-1.4-1.5-1.6-1.5s-.1.7.2 1.5"/></svg>