<svg xmlns="http://www.w3.org/2000/svg" width="682.667" height="512" version="1.0" viewBox="0 0 512 384"><path d="M0 33.5V67h3c1.7 0 3 .4 3 1 0 .5-1.3 1-3 1H0v315h20.7l1.6-4.3c.9-2.3 2.6-7.1 3.7-10.6l2.1-6.3-2.3-2.7c-1.3-1.4-2.7-2.8-3.1-2.9-.4-.2-.1-1.5.8-2.9 1.5-2.2 1.5-2.6.1-4.2-1.2-1.3-1.3-2-.4-2.9.7-.7 1.7-1.2 2.3-1.2 1.6 0 7.2-6.1 8.4-9.2 2-5.4 2.4-14.4.8-17.7-.9-1.7-1.1-2.9-.6-2.6.5.4.8-1.4.6-4.2l-.2-4.8h7.8l3.2-10c3.3-10.5 6.5-17.6 9.5-21 2.8-3.3 3.1-5.2.9-5.8-1.7-.5-2-1.2-1.7-4.8.4-4.3.4-4.3 10.2-9.9 9-5.1 11.8-7.9 7.3-7.3-1 .2-1.5-.2-1.2-.7 1.2-1.9-1.9-1-4.3 1.2l-2.4 2.3.8-2.9c.5-2.2.4-2.8-.7-2.4-.8.3-1.6 1.3-1.8 2.4-.2 1-.7 2.1-1.1 2.4-.3.3-1.2 1.4-1.8 2.5-1.1 1.9-1.1 1.9-1.2-.3 0-1.9-.4-2.2-2-1.7-1.8.6-1.9.4-1-1.9 1.2-3.4.5-3.3-3.6.4-1.9 1.6-4.7 3.2-6.2 3.5-6.1 1.3-7.7 2.2-9.9 5.5-4.7 7.3-4.7 7.4-7 6.1-1.2-.6-2.9-1.8-3.8-2.7-1.5-1.5-1.7-1.5-3.2.7-.9 1.3-3.8 4.5-6.3 7.1-4.9 5-9.2 6.3-10.4 3.2-1.4-3.6-.6-10.2 1.7-13.5 2-3 3-3.5 8-4.1 6-.8 9.9-2.4 13.3-5.6 3-2.9 10.8-16.5 14.4-25.2 3.4-8.2 8.7-27.6 9.2-33.5l.3-3.8-6-1.4c-3.3-.7-6.4-1.8-6.8-2.2-.5-.5.8-3.2 3.2-6.3 4.9-6.5 9.1-15.5 9.8-20.9.5-3.4.1-4.7-3-9.2-6-8.7-7-12.5-7.1-27.7 0-8.5.4-15.6 1.3-19 4.2-16.8 16.5-30.3 37.9-41.3 11.6-6 21.8-8.4 41.6-9.6 10.7-.7 16.3-1.4 17.1-2.3.7-.7 1.8-3.6 2.4-6.3 1.6-6.9 6.2-19.5 7.1-19.5 1.2 0 10.1 10.7 16.1 19.4 4.7 6.9 6.5 8.6 12 11.6 8.8 4.8 19.6 15.7 24.1 24.5 4.2 8.2 7.4 18 8.3 25 .8 5.6 2.4 11.3 3.9 13.3.5.8 3.2 2.5 5.9 3.8 4.1 2.2 5.7 2.4 10.3 1.8 4.8-.6 5.4-.4 5.4 1.2 0 1.1.7 3.2 1.5 4.7 1.4 2.7 1.3 2.8-1.6 4.6-2 1.2-2.7 2.1-1.9 2.6s.7 1.2-.5 2.5c-1.8 2-5.5 12-5.5 15.1 0 1.2-.8 2.3-1.9 2.6-3 .8-4.9 13.1-2.8 18.3 1.2 3.1 1.2 3.8.1 3.3-.7-.3-1.6-1.4-2-2.5-.5-1.8-.7-1.9-2.5-.2-1 .9-1.6 2.2-1.2 2.8.3.6.2.8-.2.3-.5-.4-2.6.9-4.7 3l-3.8 3.7 4.7 4.8c5.1 5.2 5.1 5.6-.3 3.3-3.6-1.5-3.6-1.5-3.1.8.3 1.2.8 6 1.1 10.7s.3 7.4 0 6c-1-5.1-2.6-9-3.6-9-.7 0-.8 1.4-.4 3.7 2.8 16.7 4.2 32.8 2.8 33.7-.5.3-3.7-1.9-7.2-4.9s-6.7-5.2-7.1-4.9c-.5.3-.9 0-.9-.6 0-1.6-5.1-.4-6.6 1.5-.6.8-1.3 1.2-1.7.9-.5-.6-5.5 2.5-12.1 7.6-3 2.3-5 3-8.5 3.1h-4.6l4.1 1.9c5.9 2.6 31.6 9.8 40.7 11.4 6.6 1.1 8.5 1.9 12.4 5.3 7.4 6.3 8.4 8.1 8.5 15.6.1 3.7.4 6.7.7 6.7s2.1-.9 4-2.1c1.8-1.1 8.2-3.8 14.2-5.9 50.7-18.1 104.6-8.5 150.4 26.9 9.3 7.1 23.9 21.9 28.7 29.1 1.7 2.5 3 3.4 4.6 3.2 1.9-.3 2.2.2 2.2 2.8 0 1.7 1.1 4.6 2.4 6.3 3.7 5.1 14.1 25.4 17.6 34.4l3.1 8.3H512V0H322C153.8 0 132 .2 132 1.5c0 .8-.9 1.5-2 1.5s-2-.7-2-1.5C128 .2 120.2 0 64 0H0zm145-24c0 .8-.7 1.5-1.5 1.5-1.6 0-2-1.2-.8-2.3 1.1-1.2 2.3-.8 2.3.8m225.8 19.2c-.2 1-1.3 1.9-2.6 2.1-2.4.4-2.9-.7-1-2.6 1.8-1.8 4-1.5 3.6.5M411 121c0 .5-.7 1-1.5 1s-1.5-.5-1.5-1c0-.6.7-1 1.5-1s1.5.4 1.5 1m-47.3 38.7c-1.4 1.4-1.9 1.5-2.9.4-1.1-1-.9-1.5.6-2.7 2.7-2 4.7 0 2.3 2.3m-9.2 14.3c.3.5-.1 1-.9 1-.9 0-1.6-.5-1.6-1 0-.6.4-1 .9-1 .6 0 1.3.4 1.6 1m13.9 6.6c1.2.4 1.3 1.1.6 2.4s-.6 2 .2 2.2c.7.3-.7 2.4-3.4 5-3.7 3.8-5.6 4.8-10.2 5.8-5.7 1.2-10.6.4-11.3-1.7-.8-2.2 7.3-9.4 13.2-11.8 6.3-2.6 8.3-2.9 10.9-1.9M298 224c0 .5-.4 1-1 1-.5 0-1-.5-1-1 0-.6.5-1 1-1 .6 0 1 .4 1 1m124 49.5c-.7.8-1.6 1.2-2.1.9-1.3-.8-.1-2.4 1.8-2.4 1.3 0 1.3.3.3 1.5"/><path d="M92 243c0 .5.5 1 1.1 1 .5 0 .7-.5.4-1-.3-.6-.8-1-1.1-1-.2 0-.4.4-.4 1m101.6 128.7c-.3 1.6-.8 4.9-1.2 7.6-.6 4.7-.6 4.7 2.4 4.7 2.7 0 3-.3 3.6-4.6 1.2-8.7.9-10.4-1.8-10.4-1.9 0-2.6.7-3 2.7m52.1 10.3c.3 1.1 1.2 2 2 2 1.1 0 1.1-.4.3-2-.6-1.1-1.5-2-1.9-2-.5 0-.7.9-.4 2"/></svg>