<svg xmlns="http://www.w3.org/2000/svg" width="682.667" height="512" version="1.0" viewBox="0 0 512 384"><path d="M0 192v192.1l9.2-.3 9.2-.3 3.2-10 3.2-10-2.2-2.1c-4.4-4.5-4.6-5-2.9-7.3 1.4-2 1.3-2.4-.3-4.2-1.7-1.9-1.7-2 1.2-3.1 5.1-1.9 8.5-7.9 9.7-16.9 1-7.1.9-8.3-.8-11.1-1-1.7-1.3-2.8-.7-2.4.7.4 1.2-1 1.4-4.1.3-4.7.4-4.8 3.9-5.1 3.4-.3 3.8-.6 4.4-4 1.8-9.5 6.6-21.3 12.1-29.5 2.5-3.8 2.5-3.9.3-3.2-2.8.9-4-.9-3.2-5 1-5.1 1.8-5.8 12.7-11.5 6-3.1 10-5.8 9.3-6.1-2.8-1.6-6.6-1.3-8.6.6-2 1.8-2.1 1.8-1.5.1 1.2-3.1-1.8-1.3-5.2 3-2.7 3.6-3.3 3.9-5.7 3.1-3.7-1.2-8.7 1.8-11 6.6-1.9 4.1-4.7 4.8-8.1 2.2-2.8-2.1-3.9-1.9-5.8 1.3-2.5 4.1-8.1 9.9-10.5 10.6-4.9 1.6-7.1-8.9-3.3-15.1 1.9-3.2 2.8-3.6 10.1-4.8 2-.3 5.2-1.6 7-2.8 6.1-4.1 15-22.6 19.4-40.3 2.1-8.7 4.9-26.4 4.2-26.9-.1-.2-3.1-.7-6.6-1.3-3.5-.7-6.6-1.4-6.8-1.6-.3-.3.6-2 2-3.8 4.8-6.4 9.7-19 9.7-25.1 0-1.4-1.8-5.2-4-8.5-6.4-9.6-7.2-12.8-7.3-28.7-.1-15.7 1.2-22.3 6.3-31.7C49.7 74.2 64 62.6 80.4 55c11.4-5.3 19.3-6.9 38.4-8.1 9.2-.5 17.2-1.1 17.9-1.4.6-.2 1.4-1.9 1.8-3.7 1.3-6.5 5.8-20.8 6.5-20.8 1.2 0 7.5 7.4 15.1 17.5 3.8 5.2 7.5 9.5 8 9.5.6 0 3.5 1.2 6.5 2.7 7.9 3.8 19.6 16.4 24 25.7 3.9 8.1 7.4 19.6 7.4 24.1 0 1.6.7 4.3 1.5 5.9.9 1.6 1.4 3.5 1.1 4.2-.6 1.5 4.9 5.9 9.9 8 2.9 1.2 4.4 1.2 8.2.3 4.1-1.1 4.7-1 5.9.6.8 1.1 1.4 2.9 1.4 4.1 0 1.3.5 2.6 1 2.9 1.8 1.1 1.1 2.3-2.1 3.4-1.7.6-2.8 1.5-2.4 2.1.3.5-.6 2.5-2 4.4-2.5 3.3-5.5 11-9.6 24.8-1.8 6.2-1.9 6.9-.4 10.4 1.5 3.7 1.5 3.7-.3 2.1-1.2-1.1-2.6-1.5-3.7-1.1-2.1.8-10.5 8.9-10.5 10.1 0 .4 1.6 2.5 3.6 4.5 3.9 4.2 3.8 4.4-1 2.4l-3.3-1.4.8 4.2c.4 2.2 1 8.1 1.3 13.1.4 4.9 1.1 13.4 1.8 18.8.6 5.8.7 10.2.2 10.7-.6.6-3.2-1.2-6.4-4.1-7-6.5-8.8-7.5-9.6-5.4-.6 1.4-.7 1.4-1.8 0-1-1.4-2.5-.7-11.6 5.2-9.8 6.3-10.9 6.7-16.2 6.8-3.1 0-5.4.3-5.2.7.9 1.4 34.2 11 45.9 13.2 8.6 1.6 9.8 2.2 15.6 8.3l4.7 4.8.6 9.8c.3 5.4.8 10.2 1.1 10.7s3.6-.9 7.2-3.1c3.7-2.1 7.2-3.9 7.8-3.9s5-1.6 9.9-3.5 9.1-3.3 9.5-3.1c.4.3 3.8-.4 7.6-1.5 8.4-2.4 20.3-3.5 34.5-3.1 24.9.7 47.5 6.9 70.2 19.4 5.4 2.9 10.6 6 11.5 6.8 1 .8 5 3.8 8.8 6.6 9.2 6.7 25.7 23.5 35 35.7 4.1 5.4 7.5 10.1 7.5 10.6s2.1 4.4 4.7 8.7c2.6 4.4 6.6 12.6 8.9 18.4l4.2 10.5 30.1.3 30.1.2V0H323.6C135.7 0 135.2 0 135.7 2c.4 1.4 0 2-1.1 2-.9 0-2.1-.9-2.8-2-1.3-2-2.4-2-66.5-2H0zM147 11c0 .5-.7 1-1.5 1s-1.5-.5-1.5-1c0-.6.7-1 1.5-1s1.5.4 1.5 1m227 18.9c0 1.6-3 3.3-4.6 2.7-1.3-.5-1.4-.9-.4-2.1 1.3-1.6 5-2.1 5-.6M12.8 69c1.2 0 1.3.3.5 1.1-1.4 1.4-8.3.3-8.3-1.3 0-.6 1.2-.8 3.1-.4 1.7.3 3.9.6 4.7.6m400.7 52.9c.7 1.2-1.2 2.4-2.5 1.6-1.1-.7-.4-2.5 1-2.5.5 0 1.1.4 1.5.9M367 159.8c0 1.2-2.3 3.2-3.7 3.2-1.7 0-1.7-2.7 0-3.3 1.9-.8 3.7-.8 3.7.1m-9 15.2c0 .5-.7 1-1.5 1s-1.5-.5-1.5-1c0-.6.7-1 1.5-1s1.5.4 1.5 1m14 10c-.6 1.1-.8 2.5-.4 3.1.8 1.4-3.3 5.7-7.8 8-4.7 2.4-14.9 2.6-16.8.4-1-1.2-.8-2.1 1.4-5 4.1-5.3 11.1-8.3 19.9-8.4 4.5-.1 4.7 0 3.7 1.9m-72 40c0 .5-.5 1-1.1 1-.5 0-.7-.5-.4-1 .3-.6.8-1 1.1-1 .2 0 .4.4.4 1m124 49.9c0 1.2-2 2.5-2.7 1.8s.6-2.7 1.8-2.7c.5 0 .9.4.9.9m11 60.1c0 2.5-1.8 3.6-2.6 1.6-.8-2.1.3-4.9 1.6-4.1.5.3 1 1.5 1 2.5"/><path d="M192.6 368.2c-.3 1.3-.7 4.3-1 6.8s-.9 5.5-1.2 6.8c-.6 2-.3 2.2 2.9 2.2h3.5l.7-6.3c.9-8.7.5-11.1-2.2-11.5-1.7-.2-2.4.3-2.7 2"/></svg>