<svg xmlns="http://www.w3.org/2000/svg" width="682.667" height="512" version="1.0" viewBox="0 0 512 384"><path d="M0 192v192h14.9l3-9.7c2.9-9.4 3-9.9 1.3-11.3-1-.8-2.6-2.7-3.5-4.1-1.4-2.4-1.4-2.9-.1-4.8 1-1.4 1.2-2.6.6-3.7-.7-1.3 0-2.6 2.9-5.5 5.1-5.1 6.9-9.7 6.9-17.7 0-5.4-.4-7-2.2-9l-2.3-2.4 2.4.7c2.3.7 2.3.6 1.7-3.9-.7-4.4-.6-4.6 2.1-5.2 1.5-.3 3.3-.7 4-.9.6-.2 1.4-2.3 1.8-4.7 1.8-10.4 8.2-25.2 13.9-31.5 2.3-2.7 1.6-2.9-2.5-.8-3.6 1.9-5.1 1.2-4.3-2.1.5-1.9.3-2.3-1-1.8-.9.3-3.1-.3-5-1.4l-3.5-2.1-3.2 5.2c-4 6.7-7.8 10.7-10 10.7-2.9 0-4.9-4-4.9-9.6 0-6.7 2-9.3 8.4-10.5 2.6-.5 6.1-1.8 7.7-3 8.9-6.3 20.1-44.5 18.5-62.7-.4-4-.9-7.9-1.2-8.7s-2.7-1.7-5.2-2.1c-7.3-1-7.5-1.3-3.7-7.3 4.2-6.6 7.5-16.1 7.5-21.6 0-3.3-.8-5.3-4-9.6-6-7.9-7.3-13.7-7.3-30.4.1-15.3 1.9-23.7 7-31.9C47.8 69.1 67.3 55 84.6 48.9c7.6-2.7 22.6-4.9 33.5-4.9 4.7 0 10.7-.3 13.2-.6 4.5-.7 4.6-.7 5.7-5.8 4.1-19 3.9-18.8 10.1-12.4 2.8 2.9 6.6 7.5 8.5 10.3 5.3 7.8 5.4 7.9 13.6 11.8 16.7 8 29.9 27.5 32.9 48.7.5 3.5 1.7 7.5 2.5 8.8.9 1.3 1.3 3 1 3.7-.6 1.7 2.7 4.7 8.2 7.4 3.6 1.8 5.3 2.1 10.2 1.5 5.9-.6 6-.6 7 2.2.5 1.6 1.5 3.7 2.1 4.7 1.2 2.2 1.4 2-2.9 4.1-1.8.9-3 2.1-2.8 2.5.3.5-.4 1.7-1.6 2.7-2.8 2.5-6.3 10.5-7.8 17.9-.7 3.3-2.1 8.1-3.1 10.7-1.4 3.6-1.6 5.4-.9 7.4q1.95 5.1-.3 2.4c-1.8-2.3-2.7-1.9-9.1 4.5-4.6 4.6-5.8 5.4-5.3 3.6.6-2.3.5-2.3-1.1-.8-1.5 1.6-1.3 2 2.3 5.7 4 4 4.3 6 .7 4.1-3-1.6-3.2-1.4-2.2 1.6 1.9 5.6 7 33.5 7 37.9v4.7l-3.2-2.7c-1.8-1.5-5.7-4.3-8.7-6.3l-5.3-3.7-1.9 2.3c-1.1 1.3-1.9 1.8-1.9 1.2 0-.7-2.5.6-5.7 2.8-3.1 2.3-6.4 4.1-7.3 4.1-1 0-3 1-4.6 2.2-2.3 1.8-4.1 2.3-9.1 2.3-11.8 0-5.5 2.5 29.2 11.3 8.8 2.3 17.3 4.4 18.9 4.7s5.4 3 8.4 5.9l5.5 5.3-.2 8.1c-.1 5.8.3 9 1.4 11.2l1.6 3.1 6.7-3.5c16.1-8.4 36.4-13.8 56.3-15.1 10.4-.7 29.8.6 36.7 2.4 2 .6 7.1 1.8 11.2 2.7s8 2 8.5 2.4c.6.3 5.1 2.1 10 4 5 1.8 9.7 3.8 10.5 4.5.8.6 4.7 2.9 8.5 5 17.3 9.4 39 29 53.2 48.2 4.1 5.6 7.5 10.5 7.6 11 .1.4 1.6 3.3 3.5 6.3 3.8 6.3 7.7 14.5 11.7 24.2l2.7 6.8H512V0H139.3l.5 2.6c.4 2.1.1 2.5-1.4 2.2-1.1-.2-2.3-1.3-2.9-2.6l-1-2.2H0zM150 13.1c0 .5-.7.9-1.5.9-1.5 0-2-1.2-.9-2.3.8-.8 2.4.1 2.4 1.4m226.3 17.6c.9.9-1.2 3.3-2.9 3.3s-1.8-2.7-.1-3.3c1.8-.8 2.3-.8 3 0M17 70c1.2.8 1.1 1-.7 1-1.2 0-2.5-.5-2.8-1-.8-1.3 1.5-1.3 3.5 0m5 0c0 .5-.7 1-1.6 1-.8 0-1.2-.5-.9-1 .3-.6 1-1 1.6-1 .5 0 .9.4.9 1m394 54c0 .5-.7 1-1.5 1s-1.5-.5-1.5-1c0-.6.7-1 1.5-1s1.5.4 1.5 1m-47 37.9c0 1.5-2.8 3.3-4 2.6-.8-.5-.8-1.1.1-2.1 1.3-1.5 3.9-1.9 3.9-.5m-8.5 14.1c.3.5-.1 1-.9 1s-1.8-.5-2.1-1c-.3-.6.1-1 .9-1s1.8.4 2.1 1m13.1 12.3c.2 7.4-8.6 11.9-19.9 10.2-6.5-1-7.4-1.8-5.4-4.8 3.3-5.1 13.5-9.5 21.6-9.3 3.5.1 3.6.2 3.7 3.9M303 225.8c0 1.3-1.2 2.2-2.2 1.6s-.1-2.4 1.3-2.4c.5 0 .9.4.9.8m122.4 51.7c-.7 1.7-2 2-2.8.6-.7-1 .3-2.1 2-2.1.8 0 1.1.6.8 1.5m14.6 58.6c0 1-.6 1.9-1.3 1.9-2.2 0-2.7-1.1-1.6-3.2 1.2-2.2 2.9-1.5 2.9 1.3"/><path d="M45 257c-2.4 1.5-.7 1.9 2 .5 1.5-.8 1.9-1.4 1-1.4-.8-.1-2.2.3-3 .9m146.6 110.2c-.3 1.8-.8 5.5-1.1 8.3-.3 2.7-.8 5.8-1.1 6.7-.4 1.4.1 1.8 2.4 1.8 2.9 0 2.9-.1 4.1-8.5 1.4-9.4 1.1-11.5-1.8-11.5-1.5 0-2.1.8-2.5 3.2"/></svg>