<svg xmlns="http://www.w3.org/2000/svg" width="682.667" height="512" version="1.0" viewBox="0 0 512 384"><path d="M0 192v192h11.9l1-3.8c4.4-16.9 4.4-17.2 1.6-17.2-.8 0-2.2-1.4-3.1-3.1-1.3-2.7-1.4-3.6-.3-5.8.7-1.4 1.1-3.2 1-3.9s1.3-3.1 3.2-5.3c5.7-6.6 7.4-19.1 3.3-25.1-2.1-3.1-2.2-3.5-.5-3.1 1.8.5 2.5-.8 3.1-6.7.2-1.9 1-2.6 3-2.8 2.4-.3 2.8-.9 4.3-8 2.2-9.8 5.6-18.2 10.1-25.1l3.6-5.4-2.8.7c-1.6.4-4 .9-5.3 1-1.5.2-2.9 1.4-3.9 3.2-1.9 3.7-5.2 7.4-6.7 7.4-2.8 0-5.8-5-6.3-10.2-.5-6.3.9-8 9-11.2 6.3-2.5 9-6.1 11.8-15.6 2.4-8.1 2.4-8.4.4-7.6-1.1.4-1.4.2-1.1-.6.3-.7 1.8-4.2 3.3-7.8 3.4-8 4.2-19.6 2.5-34.9-1.6-13.6-1.7-13.8-4.9-14.5-1.5-.4-3.9-1.1-5.3-1.7l-2.7-1 3.5-5.7c3.8-6.3 6.5-14.7 6.7-20.3 0-2.7-.9-5.1-3.6-9.1-6.3-9.1-7.1-12.5-7.2-29.3-.1-15.8 1-21.9 5.6-30.9 4.9-9.7 21.9-23.5 37.2-30.5 13.7-6.2 18.6-7.2 40.1-8.2 11-.5 20.5-1.1 21.1-1.4.6-.2 1.5-2.5 1.9-5.2.8-5.8 3.2-15.4 4.1-16.2.6-.7 3.9 3.1 12.9 14.7 5.6 7.3 7.2 8.8 13.3 11.7 4.1 1.9 9.6 5.8 13.6 9.5 8.8 8.3 15.7 21.7 18.6 36.3 1.1 5.3 2.7 10.8 3.6 12.2s1.4 3.1 1.1 4c-.7 1.7 3.1 4.6 9.7 7.6 3.9 1.7 5.2 1.8 8.7.9 5.2-1.4 6.5-.9 7.4 2.9.4 1.7 1.3 3.5 2.2 3.9 1.2.8 1 1.3-1.6 3.1-1.7 1.3-5.4 5.7-8.2 9.8-4.1 6-5.2 8.7-6 13.7-.5 3.5-1.8 8.5-3 11.2-1.3 3.2-1.9 6.1-1.5 8.1.5 3.7-.9 4.5-1.9 1.2-.7-2-1.3-1.5-7.2 4.4-4.1 4.3-6.2 5.8-5.7 4.4.6-2.1.5-2.1-1.2-.4-1.8 1.7-1.8 1.8 0 5.2 1.1 1.9 2.3 3.5 2.8 3.5.4 0 .8.5.8 1.1s-.7.9-1.5.5c-1.8-.7-2-1.4 4.6 22.1 5.9 20.9 5.9 21.2 1.8 18.1-1.7-1.3-5.9-4.2-9.3-6.4-5.9-3.9-6.4-4.1-8.9-2.7-1.5.7-2.7 2.1-2.7 2.9 0 1-.6 1.4-1.4 1.1s-2.2.4-3.3 1.5c-2.3 2.6-6.6 4.8-9.3 4.8-1.1 0-3.4 1-5 2.1-2.4 1.8-3.9 2.1-9.4 1.7-3.6-.2-6.6-.3-6.6-.1 0 1.4 8.3 4.2 29 9.6 13.5 3.6 25.9 6.8 27.7 7.2 2 .4 5.1 2.7 8.7 6.5 5.6 5.9 6.4 7.4 4.6 8.5-1.6 1-1.1 10 .8 14.3l1.8 4.1 5.4-3.1c7.6-4.3 22.5-9.5 35.8-12.3 9.8-2.2 13.8-2.5 29.5-2.4 18.5 0 22.3.4 35.7 3.4 18.3 4.1 41.5 15.1 58.3 27.6 11.2 8.3 30.5 27 34.5 33.4 1.4 2.2 4.4 6.5 6.8 9.5 5.1 6.5 16.2 27.7 19.5 37.3l2.4 6.7H512V0H143.1l.5 3c.5 2.4.3 3-1.1 3-.9 0-2.2-1.3-2.8-3l-1.1-3H0zM152 14.5c0 .9-.6 1.2-1.5.9-.8-.4-1.5-1-1.5-1.5s.7-.9 1.5-.9 1.5.7 1.5 1.5m228 18.4c0 1.6-3 3.3-4.6 2.7-1.3-.5-1.4-.9-.4-2.1 1.3-1.6 5-2.1 5-.6M31 71c0 .5-1.5 1-3.2.9-3.1-.1-3.2-.1-.8-.9 3.5-1.1 4-1.1 4 0m387 54.6c0 1.7-2.2 1.4-2.8-.4-.2-.7.3-1.2 1.2-1.2s1.6.7 1.6 1.6m-47 38.1c-.1 2-1.9 3.5-3.5 2.9-1.4-.5-1.5-.9-.5-2.1 1.3-1.6 4-2.1 4-.8m-7.5 13.3c.3.5-.1 1-.9 1-.9 0-1.6-.5-1.6-1 0-.6.4-1 .9-1 .6 0 1.3.4 1.6 1m11.7 9.6c.5.3.4 1.2-.3 2-.9 1.1-.9 1.7 0 2.8 1.9 2.3-4.8 6.8-10.9 7.4-5.1.5-14.6-1.3-15.6-3-.8-1.2 3.2-5.5 7.1-7.6 5.3-2.8 16.3-3.7 19.7-1.6m51.4 93.2c-.8.9-1.9 1.3-2.2.9-1-.9 1.6-3.8 2.8-3.1.6.4.4 1.3-.6 2.2m18.1 55.8c.8 2.1-1.3 4.2-2.8 2.7-1.3-1.3-.5-4.3 1.1-4.3.6 0 1.3.7 1.7 1.6"/><path d="M197.1 167.6c0 1.1.3 1.4.6.6.3-.7.2-1.6-.1-1.9-.3-.4-.6.2-.5 1.3M191 362.2c-.1 2.3-2 17.1-2.5 19.1-.6 2.4-.4 2.7 1.8 2.7 3.2 0 3.5-1 4.3-12.5.7-9.3.6-9.5-1.5-9.5-1.1 0-2.1.1-2.1.2"/></svg>