<svg xmlns="http://www.w3.org/2000/svg" width="682.667" height="512" version="1.0" viewBox="0 0 512 384"><path d="M0 192v192h3.9c4.4 0 4.4 0 6.6-9.8.9-3.7 1.8-7.4 2.1-8.3.3-1.2-.4-2-2.5-2.7-3.5-1.3-4.9-5.1-3.2-8.8.6-1.4 1.1-3.1 1.1-3.9s1.4-3.4 3.1-5.8c2.4-3.5 3.3-6.2 4.2-12.4 1-7.6.9-8-1.5-11.9-2.6-4-2.6-4-.4-4 1.8.1 2.2-.6 2.6-4.4.4-3.7.9-4.5 3-5s2.6-1.5 3.7-6.7c.6-3.3 2.1-8.6 3.1-11.7l1.9-5.7-2.4-1c-3.3-1.2-6.7-9-5.8-13.5.5-2.9 1.4-3.8 6.3-6.3 5.7-2.9 11.2-9.4 11.2-13.1-.1-.9-.6-.6-1.5 1-1.4 2.4-1.5 2.3-1.1-2.5.3-2.8 1.1-7.1 1.9-9.8.8-2.6 1.3-4.7 1-4.7s-1.8.9-3.3 2l-2.9 2.1 3.6-7.7c4.3-9.5 4.9-14.6 3.4-33-1.4-17.9-1.9-19.4-7.7-22.2l-4.6-2.3 1.7-2.6c4.4-6.6 5.5-9.3 6.9-16.1 1.7-7.7 1.2-10.9-2.4-14.7-7-7.5-9.8-30.7-5.9-48.4.5-2.5 2.5-7.5 4.3-11.2 2.5-5 3.1-7.1 2.2-7.9-.8-.8-.7-1 .4-.6.9.4 3.3-1 6-3.5 8.1-7.3 16.7-12.9 28.2-18.3 16.6-7.9 20.9-8.9 44.5-9.5 11.1-.3 20.4-.9 20.7-1.2.4-.4 1.1-3.1 1.6-6.1 1.2-8 2.9-13.8 4-13.8s10.3 11 14.6 17.5c2.7 4 4.7 5.7 9.6 8 7.2 3.4 16 11.2 21.2 18.8 4.4 6.3 10.1 21.2 11.1 28.8.4 3 1.8 7.3 3.1 9.6s2.1 4.9 1.8 5.7c-.5 1.2 1.2 2.4 6.6 5 6.2 3 7.8 3.4 12.5 2.9l5.4-.6 1.5 3.7c.8 2 2.1 3.6 2.8 3.6.7.1-.1 1.3-1.8 2.8s-5.2 5.9-7.7 9.8c-2.5 4-5 7.5-5.6 7.9-.6.3-1.1 2.1-1.1 3.8 0 1.8-1.6 7.6-3.5 13-1.8 5.4-3.1 10.6-2.9 11.5.5 1.4.2 1.3-1-.2-1.8-2.2-1.2-2.6-9.5 5.6-2.4 2.4-4.2 3.8-3.9 3.3.3-.6 0-1.6-.8-2.3-3.7-3.4-2.8 6.6.8 10.6 1.6 1.6 1.8 2.1.6 1.7-1.2-.5.2 4.4 5.3 18.6 3.8 10.6 6.9 19.6 6.9 20.1 0 .6-2.1-.5-4.7-2.4-6-4.3-14.2-8.8-15.8-8.8-.7 0-2.7 1.6-4.4 3.5s-3.3 3.5-3.5 3.5c-.3 0-2.2 1.1-4.2 2.5s-4.9 2.5-6.4 2.5-3.7.9-5 2c-3.3 2.8-6.6 3.5-12.2 2.3-2.6-.5-4.8-.6-4.8-.2 0 1.7 3.7 3.2 16.6 6.5 7.7 1.9 19.1 5 25.5 6.9 6.3 1.8 13.2 3.6 15.2 4 4.6.9 14.3 10.6 13.2 13.3-3.3 7.7-3.3 8-.1 14.1l3 5.8 7-3.3c47.9-22.1 105.3-16.7 152.6 14.4 15.3 10.1 36.4 30.9 47.2 46.7 7.7 11.3 17.1 29 20.4 38.2l1.8 5.3H512V0H329C148.3 0 145.9 0 147 1.9c1.7 3.2 1.3 5-1.1 4.4-1.2-.4-2.2-1.7-2.6-3.4l-.6-2.9H0zM154.5 16c.3.5-.1 1-.9 1s-1.8-.5-2.1-1c-.3-.6.1-1 .9-1s1.8.4 2.1 1m227.3 19.6c-.9 1-2.4 1.4-3.3 1-2.3-.9-.9-2.6 2.3-2.6 2.4 0 2.5.1 1 1.6M420 127c0 .5-.7 1-1.5 1s-1.5-.5-1.5-1c0-.6.7-1 1.5-1s1.5.4 1.5 1m6 28c-2 1.3-3.3 1.3-2.5 0 .3-.6 1.4-1 2.3-1 1.5 0 1.5.2.2 1m-53 10.9c0 1.2-2.9 3.5-3.6 2.8-1.1-1 .5-3.7 2.1-3.7.8 0 1.5.4 1.5.9m-7 12.1c0 .5-.7 1-1.6 1-.8 0-1.2-.5-.9-1 .3-.6 1-1 1.6-1 .5 0 .9.4.9 1m9.9 7.4c.9.6.9 1.1.1 2.1-.7.8-.9 2.3-.5 3.4.8 2.6-4.4 6.2-9.9 6.8-5.1.6-15.4-2.1-16.3-4.3-.7-2 2.3-5.3 7.2-7.6 3.1-1.4 5.6-1.8 11.1-1.5 3.9.2 7.6.7 8.3 1.1M308 229c0 .5-.7 1-1.5 1s-1.5-.5-1.5-1c0-.6.7-1 1.5-1s1.5.4 1.5 1m121.8 51.2c-.3.7-1.3 1.5-2.4 1.7-1.6.3-1.7.1-.5-1.3 1.6-1.9 3.4-2.1 2.9-.4m19.2 56.9c0 1-.7 1.9-1.5 1.9-1.5 0-2.1-3.1-.9-4.3 1.1-1 2.4.3 2.4 2.4"/><path d="M188.7 369.3c-.3 5.1-1.1 10.6-1.6 12-.9 2.3-.8 2.7.7 2.7 2.8 0 5.4-7.4 5.6-16 .1-6.9-.1-7.5-2-7.8-2-.3-2.1.3-2.7 9.1"/></svg>