<svg xmlns="http://www.w3.org/2000/svg" width="682.667" height="512" version="1.0" viewBox="0 0 512 384"><path d="M0 173.5C0 268.9.2 347 .4 347s1.5-1.9 2.9-4.2c3-5.4 4.5-18.3 2.2-20.8-.7-.8-1.7-2.7-2-4.3-.6-2.3-.5-2.6 1-2.1 2.1.8 3.5-1.1 3.5-5 0-1.7.9-3.7 2.4-5.1 1.7-1.5 2.6-3.8 3.1-7.6.4-3 1.8-8.5 3.1-12.4 2.1-5.9 2.3-7.4 1.3-10-.7-1.6-1.9-3.5-2.7-4.2-1.3-1.1-1.3-1.7.2-5.6 1.9-5.1 3.7-6.9 9.8-10.2 4.5-2.4 5.4-4.3 5.7-11.8.1-4.7-1.1-4.7-3.3 0-.9 2.1-2.5 4.9-3.6 6.3-1.8 2.4-1.8 2.3 0-5.5 1.1-4.4 1.9-9.1 2-10.4 0-2-.2-2.1-1.5-1.1-2 1.7-1.9 1.2 1.1-5.6 2.6-5.9 2.6-5.9 2-24.9-.8-23.1-1.3-26.8-3.4-26-2 .8-5.4-.4-4.6-1.7.3-.5-.2-2.5-1.2-4.3-1.8-3.3-1.8-3.4.8-8.2 1.5-2.6 3.6-8.3 4.8-12.5l2.3-7.7-3.5-4.8c-2-2.6-4.6-7.7-5.9-11.3-2.1-5.7-2.4-8.3-2.4-21 0-12.3.3-15.6 2.3-21.7 2.9-9.2 9.2-18.6 16.5-24.4 11-8.8 31.5-19 44.7-22.2 9.1-2.2 15.1-2.6 34.2-2.7h16.7l.6-3.8c1.2-7 3.7-17.2 4.4-17.2 1 .1 8.1 9.6 13.7 18.2 3.9 6.1 6.2 8.6 10 10.8 6.7 3.8 15.1 12.7 19.7 20.8 4 7.1 8.7 21 8.7 25.5 0 1.5 1.2 5.1 2.7 8s2.6 5.8 2.5 6.5c-.2.7 3 2.8 7 4.8 6.5 3.1 7.9 3.4 12.6 2.9 5-.6 5.3-.5 7 2.4.9 1.7 2.2 2.9 2.9 2.6 2.5-.9 2.5 1.8 0 3.9-1.4 1.1-3.7 4.3-5.3 7.1-4.1 7.5-5.4 8.7-8.9 8.3l-3-.3.4 5.4c.2 4.1-.5 7.7-3 15.2-1.8 5.4-3.6 9.4-4 8.8-1.3-2.1-2 1-.8 3.3l1.2 2.3-2.2-2-2.3-2-4.9 5.2c-3.9 4.1-4.9 4.7-4.9 3.1 0-1.8-.2-1.9-1.7-.7-1.7 1.3-1.7 1.3 0-1.3 1.8-2.9 2.2-4.8.9-4.8-3 0-5.8 15.9-3.1 17.5.6.4.8 1.3.5 2-.3.8 3.1 8.6 7.5 17.5 4.3 8.9 7.9 16.6 7.9 17.1 0 .6-2.4-.3-5.4-2-5.6-3.3-8.2-3.9-7-1.9.3.7-.4.1-1.7-1.4-1.3-1.6-3.8-3.1-5.5-3.4-2.6-.5-3.5-.1-5.7 2.6-1.5 1.7-2.7 3.6-2.7 4.2s-.3.8-.6.5c-.4-.4-2 .5-3.6 1.8-1.6 1.4-4.2 2.8-5.6 3.2-1.5.3-4.2 1.7-6 3.1-2.8 2.2-3.9 2.4-8.6 1.8-3-.3-6.1-.9-7-1.2-2.3-.9-2.1 2.3.2 3.5 1 .5 8.5 2.5 16.8 4.5 8.2 1.9 19 4.8 23.9 6.5 5 1.6 11 3.5 13.5 4.1 3.1.8 6 2.6 9.3 5.8 2.6 2.5 4.7 5.1 4.7 5.6 0 .6-1.2 2-2.8 3.2-2.5 2.1-2.6 2.4-1.2 4.6 2.8 4.3 10 19.2 10 20.6 0 .7.5 2.2 1 3.2.8 1.5 1.5 1.7 3.3 1.1 1.2-.5 6-1.7 10.7-2.7s8.8-2.2 9.2-2.8c.8-1.2 9.3-2.4 17.6-2.5 3.9-.1 6.2-.5 6.2-1.2 0-.9 3.1-1 11.5-.5 7.9.5 12 .3 13.2-.5 1.5-.9 4.3-.6 12.7 1 7.1 1.4 11.2 1.9 11.9 1.2.6-.6 4.9.4 12.2 2.9 6.1 2.2 12 3.7 13.1 3.4s6.2 1.6 11.9 4.4c5.5 2.7 10.6 4.7 11.3 4.5.7-.3 5.5 2.3 10.7 5.6 5.2 3.4 10.2 6.1 11 6.1s5.3 3.4 10 7.5c4.8 4.1 9.2 7.5 9.9 7.5s3.7 2.7 6.6 6.1c2.9 3.3 7.3 8.1 9.7 10.6 5.5 5.5 18.6 25.4 23.2 35.1l3.5 7.2H512V0H333.4C163.7 0 154.8.1 155.5 1.7c1.3 3.3 1 4.8-1 4.8-1.5 0-2.1-.8-2.3-3.3l-.3-3.2H0zM159.5 19c.3.5-.3 1-1.4 1-1.2 0-2.1-.5-2.1-1 0-.6.6-1 1.4-1s1.8.4 2.1 1M388 37.9c0 .5-.7 1.4-1.5 2.1-1.8 1.5-4.2-.1-3.1-1.9.8-1.3 4.6-1.5 4.6-.2m35.7 93.7c-.9.9-2.8-.6-2.1-1.8.4-.6 1-.6 1.7.1.6.6.8 1.3.4 1.7m5.8 27.4c-.3.5-1.1 1-1.6 1-.6 0-.7-.5-.4-1 .3-.6 1.1-1 1.6-1 .6 0 .7.4.4 1m-51.7 10.7c-.3 1.9-4.8 3.2-4.8 1.4 0-1 2.8-3 4.3-3.1.5 0 .7.8.5 1.7m-8.7 5.9c6.5 1.9 8.2 3.2 7.3 5.3-.4.9-.7 2.7-.8 4.1-.1 2-.9 2.8-4.3 4-3.6 1.2-5 1.2-9 .2-15.4-4.1-18-10-6.1-13.7 5.7-1.8 6.5-1.8 12.9.1M313 231c0 .5-.4 1-1 1-.5 0-1-.5-1-1 0-.6.5-1 1-1 .6 0 1 .4 1 1m122.5 52c.3.5-.1 1-.9 1-.9 0-1.6-.5-1.6-1 0-.6.4-1 .9-1 .6 0 1.3.4 1.6 1m22.5 55.1c0 1-.7 1.9-1.5 1.9-1.6 0-1.9-.9-.9-3.4.8-2 2.4-1.1 2.4 1.5"/><path d="M186 362.7c0 5.6-1.3 15.5-2.5 19.4-.5 1.4-.1 1.9 1.4 1.9s2.1-.6 2.1-2.3c0-1.3.7-3.8 1.5-5.5 2.3-4.5 1.7-18.5-.7-19-1.6-.3-1.8.5-1.8 5.5M.1 373.2c0 6.2.2 10.9.4 10.3.5-1.3 4.5-19.7 4.5-20.7 0-.4-1.1-.8-2.5-.8H0z"/></svg>