<svg xmlns="http://www.w3.org/2000/svg" width="682.667" height="512" version="1.0" viewBox="0 0 512 384"><path d="M.1 157.7c.1 120.5.4 156.7 1.3 153 .6-2.6 1.7-5.1 2.4-5.6.7-.4 1.7-3.6 2.3-7 .5-3.5 1.6-8.2 2.4-10.4 1.4-4.1 1.4-4.2-1.4-7.2C1 274.1.3 268.9 5 266.2c1.7-.9 3.2-2.4 3.5-3.2.3-.9 2.1-3.3 4-5.3s3.5-4.7 3.5-6c0-1.8-.2-1.9-1-.7-1.5 2.3-1.2-3.3.4-10.4 1.6-6.6 1.2-9.4-1-7.5-1.9 1.6-1.9-.3.2-4.2 3.1-6.1 4.4-48.3 1.5-51.2-.6-.6-2.9-1-5.2-.8-3.5.2-4.1-.1-3.5-1.4.3-.9-.1-3.1-.9-4.9-1.5-3.2-1.5-3.4 1.8-8.4 3.3-4.8 7.7-15.8 7.7-19.1 0-.8-1.9-4.3-4.1-7.8-5.6-8.5-7.9-18.2-7.9-32.8 0-29 9.6-42.7 40.5-58.3C64.8 34 73.6 31.9 96.5 32c8.8.1 18.8.1 22.2 0h6.2l.6-4.8c.7-5.1 4.3-18.2 5-18.2 1 0 8.5 11 14 20.5 3.7 6.5 8.5 12.8 13.5 18 9 9.3 14.7 19.7 17.5 31.5.9 4.1 3 10.3 4.6 13.8s2.7 6.7 2.4 7.2c-.6 1 4.9 4 12.7 7 4 1.4 6.2 1.7 8.9 1.1 4.1-.9 5.1-.6 6.7 2.6.8 1.4 1.8 2 3.2 1.6 2.4-.6 2.7 1.3.5 3.8-.9.9-3.1 4.5-4.9 8-2.7 5.2-3.8 6.5-6 6.7-1.6.2-3.6-.4-4.6-1.3-1.6-1.5-1.8-1.5-2.5.2-.4 1-.7 4.7-.6 8.3.2 5.3-.4 8.2-3.3 16-1.9 5.2-3.5 9.1-3.5 8.6-.1-.5-.8-.3-1.6.4s-1.5 1-1.5.6c0-1.7-4.9 2.8-5.4 5-.4 1.5-1.1 2.2-1.8 1.8-.6-.4-1.9.4-2.9 1.7l-1.8 2.4.6-2.5c.6-2.4.6-2.5-1.4-.7-2 1.7-2 1.7-1.7-1 .4-2.7.3-2.7-.4-.3-.4 1.4-.9 7.9-1.1 14.6l-.2 12.1 5.7 11.6c3.2 6.4 5.5 11.9 5.2 12.3-.4.3-2.2-.3-4-1.4-4-2.5-15.6-7.2-17.6-7.2-1.1 0-1.3.9-.8 4.2l.6 4.3-1.8-3.3-1.8-3.4-4.3 5.5c-2.3 3.1-5.3 6.3-6.6 7.1-2.9 1.9-7.9 2-14.1.5-5-1.3-5.9-1-4.9 2 .5 1.5 2.3 2.3 8.3 3.6 18 3.8 32.3 7.5 40.2 10.4 4.6 1.7 9.2 3.1 10.1 3.1 1 0 3.6 2.1 5.8 4.6 3.2 3.7 3.9 5 3 6-.6.8-1.7 1.4-2.3 1.4-.7 0-1.7.5-2.3 1.1-.8.8-.2 2.3 2.2 5.5 1.9 2.5 5.4 8.7 7.9 13.8 2.4 5.2 4.9 9.6 5.4 10 .5.3 2.5 0 4.6-.6 3.1-1 3.9-.9 5.3.5 1.5 1.5 1.5 2.2 0 9.9-1.9 9.9-1.4 10.9 7 13.3 6.8 2 8.7 5 6 9.7-1 1.7-1.5 3.3-1.2 3.7.3.3 3.7.7 7.6.9 6.6.4 6.9.3 6.9-1.8 0-2.2.1-2.3 9.3-1.6 5 .4 10.9 1.1 13 1.5 3.3.8 3.7.7 3.7-1.1 0-2 .4-2 6.6-1.4 3.7.4 9.4 1.3 12.8 2.1 7.7 1.8 8.6 1.8 8.6 0 0-2.3 3.4-1.8 15 1.9 8.7 2.8 10.6 3.2 11.3 2 1.3-2.2 3.9-1.7 14.8 2.7 8.3 3.4 10.5 4 12 3.1 1.5-1 3.4-.4 10.6 3.4 4.9 2.5 9.2 5 9.7 5.4.4.5 2.2.6 4 .3 2.6-.4 4.5.5 11.1 5.1 5 3.5 8.6 5.4 9.7 5.1 1.1-.4 4.1 1.7 9.4 6.4 4.2 3.9 8.1 6.8 8.7 6.4.5-.3 5.1 3.8 10.2 9.1l9.2 9.6H512V0H165.3l.5 3c.4 2.5.1 3-1.7 3-2 0-2.6-1.4-2.2-4.8C162.1.3 145.3 0 81 0H0zM164 22c0 .5-.7 1-1.5 1s-1.5-.5-1.5-1c0-.6.7-1 1.5-1s1.5.4 1.5 1m229 19.4c0 1.4-2.9 3.1-3.8 2.2-.2-.3-.2-1.2.1-2.1.8-1.9 3.7-2 3.7-.1m34.5 92.6c.3.5.1 1-.4 1-.6 0-1.1-.5-1.1-1 0-.6.2-1 .4-1 .3 0 .8.4 1.1 1m6.2 29.6c-.3.3-1.2.4-1.9.1-.8-.3-.5-.6.6-.6 1.1-.1 1.7.2 1.3.5m-68.1 3.9c2.7.8 6.2 2.5 7.9 3.9 2.7 2.1 2.8 2.5 1.5 4.1-.8 1-1.5 2.8-1.5 3.9 0 1.9-.6 2.1-6.2 2.1-5.5 0-6.7-.4-11.9-4-3.1-2.2-6.4-5-7.2-6.2-1.4-2.2-1.3-2.4 1.9-3.8 4.4-1.8 9.3-1.9 15.5 0m16.4 6c0 1.6-2.7 3.2-3.7 2.1-.7-.7 1.6-3.6 2.8-3.6.5 0 .9.7.9 1.5m-63 60c0 .8-.7 1.5-1.5 1.5s-1.5-.7-1.5-1.5.7-1.5 1.5-1.5 1.5.7 1.5 1.5M442 285c0 .5-.4 1-1 1-.5 0-1-.5-1-1 0-.6.5-1 1-1 .6 0 1 .4 1 1m25 54.5c0 2.6-1.4 3.3-2.5 1.5-.9-1.4.1-4 1.5-4 .5 0 1 1.1 1 2.5"/><path d="M175.5 163.1c-.4.6-.5 1.2-.2 1.5.2.3.7-.2 1-1.1.7-1.7.1-2-.8-.4"/></svg>