<svg xmlns="http://www.w3.org/2000/svg" width="682.667" height="512" version="1.0" viewBox="0 0 512 384"><path d="M.1 44.2c.1 37.4.3 43.5 1.3 39.3 4-16 15.9-27.7 41.4-40.4 18.4-9.2 29-11.2 57.7-11l22 .2 1.7-7.9c2.7-12.1 4-16.4 4.9-16.4.7 0 8.9 11.3 8.9 12.3 0 2.1 15 26.1 18.8 30.1 6.1 6.4 12.4 18.6 14.7 28.6.9 4.1 3 10.2 4.6 13.5s2.9 6.6 2.9 7.3 3 2.7 6.8 4.5c5.4 2.6 8 3.2 13.5 3.3 5.8 0 7 .3 8.3 2.3q1.65 2.25 3.6 1.8c2.5-.7 2.3 0-3 10-4.9 9.3-6.9 10.6-11.3 7.4l-2.8-2.1-1.5 2.2c-1.1 1.6-1.2 2.6-.4 4.1 3 5.8-6.1 34.8-9.3 29.5-.3-.5-.9-.2-1.3.8-.3.9-.9 1.4-1.3 1-.4-.3-1.3.8-2 2.5-.8 1.9-1.7 2.8-2.4 2.3-.7-.4-2 .3-3 1.7-1 1.3-1.9 1.9-1.9 1.2s-.7-1-1.6-.6c-1.4.5-1.5.3-.5-1.5 1.7-3.2 1.4-5-.5-3.1-1.2 1.2-1.6 5-2.1 17.5l-.6 15.9 3.6 10.4c2 5.8 3.4 10.7 3.2 10.9-.3.3-4.1-1.1-8.5-3.1l-8.1-3.7-.8 2.3-.8 2.2-.7-2.3c-.4-1.2-1.1-2.2-1.5-2.2-.3 0-2.3 2.2-4.4 5-5.6 7.5-7.1 8.2-17.1 7.8-7.5-.3-8.6-.1-8.6 1.4 0 1.9.5 2.1 12 4.3 15.3 2.9 22.3 4.6 35 8.7 10 3.2 13.2 4.7 15.8 7.4 3 3.2 4.2 6.4 2.4 6.4-.5 0-1.6.6-2.7 1.3-1.7 1.3-1.6 1.7 2.2 7.3 2.2 3.2 5.9 9.7 8.2 14.3l4.2 8.3 4.7-.6c7.3-.9 7.8-.2 6.4 9.1-.7 4.3-1.2 8.4-1.2 9.1 0 1.6 5.9 5.2 8.7 5.2 2.4 0 8.3 4.5 8.3 6.4 0 .6-1.2 2.9-2.6 5-3.6 5.2-2.7 9.9 3.4 19.3 3.8 5.9 5.3 7.4 7.7 7.7 1.7.3 7.6 1.1 13.3 1.8 9.2 1.2 10.2 1.2 10.2-.2 0-3.6 1.9-3.8 13.3-1.4 13.8 2.9 14.3 2.9 15 .4.7-2.6 1.6-2.5 14.8 1 10.4 2.9 11.3 3 13 1.4 2.3-2 5.3-1.5 17.1 3 8.5 3.2 8.7 3.2 10.6 1.4 1.8-1.8 2.1-1.8 12 2.7 8.1 3.7 10.5 4.4 12.1 3.5 2.8-1.5 2.9-1.5 12.2 3.9 6.3 3.6 9.3 4.8 11.2 4.4 2.1-.4 4.2.6 9.5 4.5 4.6 3.4 7.5 4.9 8.8 4.6s2.8.4 4.3 2l2.4 2.6H512V0H171v2.5c0 1.8-.5 2.5-2 2.5s-2-.7-2-2.5V0H0zM166 24c0 .5-.4 1-.9 1-.6 0-1.3-.5-1.6-1-.3-.6.1-1 .9-1 .9 0 1.6.4 1.6 1M43 33.5c0 .8-.4 1.5-.9 1.5-1.3 0-2.2-1.6-1.4-2.4 1.1-1.1 2.3-.6 2.3.9m352.8 9.7c-.7 1.9-3.8 2.2-3.8.4 0-1 .9-1.6 2.1-1.6s1.9.5 1.7 1.2M430 136c0 .5-.2 1-.4 1-.3 0-.8-.5-1.1-1-.3-.6-.1-1 .4-1 .6 0 1.1.4 1.1 1m-64.5 30.4c2.8 1.3 6.1 3.6 7.5 5 2.3 2.5 2.3 2.8.7 3.7-.9.6-1.7 2.2-1.7 3.6 0 2.5-.2 2.5-5.4 2.1-4.2-.3-6.4-1.2-10.5-4.2-2.8-2.1-6.1-5.1-7.3-6.8-2.1-3-2.1-3.1-.3-4.4 3-2.2 11.3-1.7 17 1m18.5 9c0 1.8-1.7 2.9-3 2.1-.8-.5-.7-1.1.1-2.1 1.5-1.8 2.9-1.8 2.9 0m-5 8.6c0 .5-.4 1-1 1-.5 0-1-.5-1-1 0-.6.5-1 1-1 .6 0 1 .4 1 1m-58.8 51.2c-.7.7-1.2.8-1.2.2 0-1.4 1.2-2.6 1.9-1.9.2.3-.1 1.1-.7 1.7M471 341.4c-1.4 1.4-2.4 0-1.6-2.1.6-1.5.8-1.5 1.6-.3.6.9.5 1.9 0 2.4M.1 191.4c-.1 66.1 0 72.7 1.5 71.5 3-2.4 5.1-8.4 6.2-17.4.6-5 1.1-9.9 1-11-.2-5.3 2.3-33.2 3.8-42.7 2-12.6 1.7-13.5-5.4-14-4-.3-4.6-.6-4.4-2.2.2-1-.2-3.1-.8-4.7-1-2.4-.9-3.2.8-5.6 3-4.3 6.8-12.3 8.2-17.6 1.2-4.7 1.2-4.9-1.7-9-4-5.6-6.4-10.3-7.9-15.7-1-3.7-1.2 8.3-1.3 68.4M19.3 251c-2 .8-3.3 3-1.8 3 1 0 6.5-3 6.5-3.5 0-.7-2.2-.5-4.7.5M0 295.6c0 9.3.2 10.6 1.4 9.4 1.6-1.8 4.9-17.1 3.8-18.1-.4-.4-1.7-1-2.9-1.4-2.3-.6-2.3-.6-2.3 10.1m181.2 60.1c.2 1 1.1 1.9 2.1 2.1 2.4.5 2.1-1.5-.4-2.8-1.8-1-2-.9-1.7.7m.8 6.1c0 1.2.9 2.6 2 3.2 1.6.8 2 .8 2-.3 0-.8-.9-2.2-2-3.2-1.9-1.8-2-1.7-2 .3m-1.9 16.6c.2.2 1.5.9 2.9 1.5 2.4 1.1 2.4 1.1.6-.3-1.6-1.3-4.9-2.4-3.5-1.2"/></svg>