<svg xmlns="http://www.w3.org/2000/svg" width="682.667" height="512" version="1.0" viewBox="0 0 512 384"><path d="M0 40.2v40.2l2.8-4.5C8.2 67.6 18.6 59 32 51.9 58 38 63.7 36.7 96.3 36.6c23.9-.1 24.8-.2 25.2-2.1 2.5-11.2 4.9-21.4 5.7-23.4.9-2.4 1-2.3 4.4 2.8 1.9 2.8 7.2 12.5 11.7 21.4s9.8 18.3 11.9 20.7c4.9 6.1 10.3 17.1 12.8 26.4 1.2 4.2 3.3 10.1 4.7 13.2 1.4 3 2.6 6.3 2.7 7.2.5 2.9 13 7.5 20.3 7.5 4.8 0 6.6.4 7.9 1.8.9 1.1 2.8 1.9 4.1 1.9 1.2 0 2.3.3 2.3.7-.1 1.4-7.1 14.7-8.7 16.5-2.1 2.3-2.8 2.3-6.5-.4l-3.1-2.1-1.9 2.3c-1.1 1.4-1.6 2.9-1.2 3.9 1.6 3.4 1.5 10.7-.1 15.1-.9 2.5-2.3 6.9-3.2 9.8-.9 3.1-2.4 5.7-3.6 6.4-1.7.9-1.9.8-1.4-.6.4-1 .3-1.5-.3-1.1-.6.3-1 1.3-1 2.2s-.6 1.3-1.4 1c-.9-.4-1.6.4-2 2.5-.5 2.4-.9 2.8-1.9 1.9-1.5-1.1-3.8.7-5 3.9-.3 1-.6.7-.6-.8-.1-1.3-.5-2-1.1-1.7-.6.4-.7-.6-.4-2.5.4-1.6.4-3 .1-3-1.7 0-2.8 5.1-3.7 17.9l-1.1 14 2.8 8.5c3 9 2.5 9.9-2.1 3.5-1.5-2.2-3-3.8-3.2-3.6-.3.3.9 3.9 2.6 8.1 3.2 8.2 3.7 10.6 1.9 10.6-.6 0-4.5-1.6-8.7-3.7-7-3.4-7.5-3.5-8.5-1.8-.5 1-2.5 3.5-4.3 5.4-3 3.4-3.7 3.6-9.6 3.8-6.5.1-14.6 2.7-11.8 3.7.8.3 6.9 1.5 13.5 2.6 13.1 2.3 21.5 4.4 34.5 8.5 6.6 2.1 9.2 3.5 11.8 6.3 3.9 4.2 4 6 .7 6.8-1.4.3-2.5 1-2.5 1.5 0 .4 2 3.6 4.4 7.1s6 9.6 8 13.5c3.9 7.9 6 9.2 11.1 7.3 2.3-.9 3.1-.8 4.4.4 1.3 1.4 1.3 2.5.3 8.6-.7 3.9-1.2 7.6-1.2 8.3 0 1.5 5 4.3 11 6 3 .8 5 2.2 5.9 3.9 1.4 2.4 1.3 2.9-1.2 6.7-2.9 4.3-3.5 7.9-1.4 8.6.6.2 4.4.5 8.4.7 7.1.4 7.2.3 6.7-1.9-.6-2.1-.3-2.3 2.7-2.3 1.9 0 7.9.7 13.3 1.5 5.5.8 10.1 1.5 10.3 1.5.1 0 .3-.9.3-2 0-2.6 1.8-2.6 15.4.2 10.6 2.2 10.8 2.2 12.2.4 1.3-1.9 1.5-1.9 7.6-.1 3.5 1 8.7 2.6 11.7 3.7 4.8 1.7 5.5 1.7 7.1.3.9-.8 2.1-1.5 2.7-1.5s6 2 11.9 4.5c6.2 2.6 11 4.1 11.2 3.5.7-2.1 5.2-.8 14.1 4.1 7.2 3.9 9.5 4.8 10.6 3.9 1.7-1.4 4.5 0 13.3 6.4 4.1 3.1 7 4.5 8.1 4.1 1.8-.6 4.6 1.3 11 7.3 2 1.8 5 3.9 6.6 4.6 2.8 1.2 9.5 7.5 12.9 12.1 1.4 1.9 2.8 2 47.5 2.3l46.1.3V0H344.6C178.1 0 177.2 0 176.7 2c-.3 1.1-1.2 2-2.1 2s-1.6-.8-1.6-2c0-2-.7-2-86.5-2H0zM169 25c0 .5-.7 1-1.5 1s-1.5-.5-1.5-1c0-.6.7-1 1.5-1s1.5.4 1.5 1M45 35c0 .5-.2 1-.4 1-.3 0-.8-.5-1.1-1-.3-.6-.1-1 .4-1 .6 0 1.1.4 1.1 1m354 9.4c0 1.4-2.9 3.1-3.8 2.2-.2-.3-.2-1.2.1-2.1.8-1.9 3.7-2 3.7-.1m-36.1 120.1c1.8.9 5 3.5 7.2 5.7l4 4.2-2.4 1.3c-1.8.9-2.4 1.8-2 3.3.5 1.7 0 2-2.7 2-4.7 0-9.5-2.7-14.1-7.9-5.4-6-6.8-8.9-4.8-10.2 2-1.4 11-.4 14.8 1.6m24.1 12.4c0 .5-.6 1.4-1.4 2-1.6 1.3-3.2-.2-2.1-1.9.8-1.2 3.5-1.3 3.5-.1m-6 9.1c0 .5-.2 1-.4 1-.3 0-.8-.5-1.1-1-.3-.6-.1-1 .4-1 .6 0 1.1.4 1.1 1m-57.5 50c-.3.5-1 1-1.6 1-.5 0-.9-.5-.9-1 0-.6.7-1 1.6-1 .8 0 1.2.4.9 1M449 287c0 .5-.2 1-.4 1-.3 0-.8-.5-1.1-1-.3-.6-.1-1 .4-1 .6 0 1.1.4 1.1 1m27 53.5c0 .8-.4 1.7-1 2-.6.4-1-.5-1-2s.4-2.4 1-2c.6.3 1 1.2 1 2M0 150.2c0 9.3.2 16.8.5 16.8.8 0 6.2-11.2 7.5-15.7 1.2-4 1.1-4.3-1.7-8-1.7-2.1-3.7-5.2-4.6-6.8-1.5-2.9-1.6-2.2-1.7 13.7m2.3 32.6-2.3.3.1 28.7c.1 20.6.4 27.1 1 23.2.5-3 1.9-11.8 3-19.5 1.2-7.7 3-17.7 4-22.3 1.1-4.6 1.7-8.7 1.4-9.2-.6-1-4.4-1.6-7.2-1.2m4.8 74.5c.2 1.8 0 3.8-.4 4.4s2.5-.4 6.5-2.4c6.1-3 7-3.7 5.3-4.4-3.4-1.3-6.7-1-8.2.8-1.4 1.7-1.4 1.7-.9 0 .3-1.1 0-1.7-1-1.7-1.1 0-1.5.9-1.3 3.3m-6 29.8c-1.3 3.7-1.5 22.8-.3 21.4.5-.6 1.6-4.8 2.5-9.5 2.1-11.7.6-19.9-2.2-11.9"/></svg>