<svg xmlns="http://www.w3.org/2000/svg" width="682.667" height="512" version="1.0" viewBox="0 0 512 384"><path d="M0 42.7v42.8l3.5-5.3C9.1 72 19.8 64.4 40 54.4 55.9 46.5 74.1 42.6 93 43c3.6.1 10.9.1 16.3 0 5.3 0 10.2.2 10.7.5s1.2-.4 1.5-1.7c.2-1.3 1.4-6.4 2.4-11.3 1.1-5 2.6-10.8 3.4-12.9l1.3-3.9 2.3 3.2c2.4 3.4 12.4 23.3 18.6 37 2.1 4.7 5.5 11.1 7.5 14.3 2.1 3.2 5 9.3 6.5 13.5 8.3 24.1 9.8 27.4 13.5 29.3 6 3.1 15 5.3 19.7 4.7 3.6-.4 4.5-.1 5.4 1.5.8 1.4 1.7 1.8 3.4 1.4 3-.8 4.2 1 2.2 3.2-.8.9-2.6 4.2-4 7.2-1.3 3-3.2 6.2-4.1 7-1.6 1.2-2.2 1.2-4.8-.3-4-2.3-5.5-2.1-7.3.6-1.2 1.9-1.3 3.2-.3 7.9 1.1 5.3 1 6.2-2.1 15.6-3 9.3-4.3 11.3-7.6 11.6-.5.1-1.4-.3-1.8-.9-.5-.6-.7-.3-.3.7.3 1 .1 2-.4 2.3-.6.4-1 1.8-1 3.3-.1 2.6-.1 2.6-1.6.7-1.5-2-1.5-2-3.6.5-1.4 1.7-2.2 2.1-2.5 1.2-.4-1-.8-1-2.1 0-1.5 1.1-1.4 1 .1-1.4 1.8-2.9 2.3-5.8.8-5.8-2.1 0-3.1 6.6-3.3 22-.2 15.2-.1 16.9 2 21.9 1.3 2.9 2.1 5.5 2 5.7-.2.1-2.5-2.5-5.2-5.8l-4.9-6.1-1.4 2.7c-1.2 2.3-1.1 3.5 1.3 11.2 3.4 11 2.7 12.1-5.2 7.8l-5.5-3.1-4 4-4 4-7.7-.6c-5.9-.4-8.2-.2-9.7.9-2.9 2.2-1.1 2.9 11.9 4.9 10.7 1.6 21.2 4.1 36 8.4 7 2.1 13.6 6.9 13.6 9.9 0 .7-1.3 1.9-2.9 2.5l-2.9 1.1 3.8 4.5c2.1 2.5 5.9 8.4 8.6 13 5.9 10.2 7.9 11.8 13 10.1 4.8-1.6 5.7-.5 5.2 6.4-.2 4.6 0 5.5 1.2 5.2.8-.3 3.9-.8 6.8-1.1 3-.4 5.6-1.3 6-2.2.7-1.1 3.9-1.7 12.2-2.4 6.6-.5 11.7-1.4 12.1-2.1.5-.8 4.1-.9 12.8-.4s12.1.3 12.1-.5c0-.7 1.6-.9 5.3-.4 6.4.9 16.7 3.2 17.5 3.9.3.3 1.3-.1 2.3-1 1.5-1.4 2.7-1.2 13.1 2.3 7.5 2.5 12 3.6 12.9 3s4.7.7 11.4 3.8c5.5 2.6 11.4 4.8 13 4.9 1.7.1 6.6 2.5 11.7 5.9 4.8 3.1 9.3 5.4 10 5.2.7-.3 5.4 2.8 10.3 6.8 5 4.1 9.5 7.2 10.1 7s4.3 3.3 8.3 7.7 7.8 8 8.5 8c.8 0 2.6 1.9 4.1 4.2 1.5 2.4 4.9 7 7.5 10.3 2.5 3.3 6.1 8.8 8 12.2l3.3 6.3H512V0H347.1C195.4 0 182.2.1 181.6 1.6c-.6 1.6-.8 1.6-2.4 0C177.5.1 169.4 0 88.7 0H0zm170.8-15.8c.3.8-.1 1.2-.9.9-.7-.2-1.5-1-1.7-1.7-.3-.8.1-1.2.9-.9.7.2 1.5 1 1.7 1.7m230.6 19.6c-.4.8-1.2 1.5-2 1.5s-1.4-.7-1.4-1.5.9-1.5 2-1.5c1.3 0 1.8.5 1.4 1.5M434 139c0 .5-.4 1-1 1-.5 0-1-.5-1-1 0-.6.5-1 1-1 .6 0 1 .4 1 1m-74.2 23.7c3.6 1.7 11.2 9.8 11.2 11.9 0 .7-.9 1.8-2 2.4s-1.9 1.4-1.9 1.8c.6 3.8-1.4 4.1-7.2 1.2-5.9-3.1-13.9-14.9-12.5-18.5.5-1.4 1.4-1.5 4.9-1 2.3.4 5.7 1.4 7.5 2.2m29.8 15.9c-.3.9-.6 1.8-.6 2s-.7.4-1.5.4c-1.8 0-2-2.6-.2-3.3 2.3-1 2.9-.7 2.3.9M327 237c0 .5-.7 1-1.5 1s-1.5-.5-1.5-1c0-.6.7-1 1.5-1s1.5.4 1.5 1m153 105c0 1.1-.4 2-1 2-.5 0-1-.9-1-2s.5-2 1-2c.6 0 1 .9 1 2M0 157.4c0 7.5.2 13.6.5 13.6 1.2 0 6.5-12.3 6.5-15 0-2-1.2-4.8-3.5-7.7L0 143.7zm6.6 32.2c-.5 1.2-1.4 1.5-3.6 1l-3-.6.1 13.8v13.7l4-14.4c2.1-7.9 3.8-14.6 3.5-14.8-.2-.2-.6.4-1 1.3M24 255.4c0 3.3 1.2 3.9 4 1.9 2.2-1.5 2.2-1.7.5-3-2.8-2-4.5-1.6-4.5 1.1m-22.7 4.8c-.4.7-.9 14.6-.9 30.8-.1 16.2 0 28.4.3 27 .2-1.4 1-3.9 1.7-5.5 2.4-5.2 2.7-11.7 1.1-20.5-2-11.3-1.9-13.7.8-19 1.9-3.7 3.5-5.2 9.3-8.2l6.9-3.7-4.4-.1c-3 0-4.8.6-5.8 1.7-1.2 1.5-1.4 1.6-1 .2.9-2.8-6.3-5.2-8-2.7m180 111.1c.1 2.8-.3 6.9-.7 8.9-.7 3.7-.6 3.8 2.2 3.8 2.3 0 3.1-.7 4.5-3.8.9-2.1 1.7-4.4 1.7-5 0-2.4-2.3-6-4.9-7.5l-2.8-1.6z"/></svg>