<svg xmlns="http://www.w3.org/2000/svg" width="682.667" height="512" version="1.0" viewBox="0 0 512 384"><path d="M.1 114.2v114.3l4.1-8.5c2.3-4.7 6.2-13.5 8.8-19.7l4.8-11.2-3-2.7c-2.8-2.8-2.8-2.9-.9-4.4 1.3-.9 2.4-3.5 3.1-7 .6-3 1.7-7.7 2.6-10.3 2-5.9 1.5-8.1-3.1-13.4C8.9 142.4 6 132.2 6 113.9c0-11 .4-15 2-20C13.1 77.7 22.8 69 51.5 54.7c18.1-8.9 28.3-11.1 59.1-12.2l19-.8 1.2-10.1c.6-5.5 1.7-11.8 2.4-13.9l1.3-3.7 5 8.5c2.8 4.6 5.8 9.8 6.7 11.5 1.3 2.1 2.5 3 4.5 3.1 1.6 0 3.7.4 4.8.9 1.8.8 1.7 1-1.2 2.1-1.8.8-3.3 1.7-3.3 2.1 0 1.8 8.4 16.6 12 21.2 4.9 6.3 8.8 14.1 11.6 23.6 1.2 4.1 3.7 10.6 5.5 14.4 3.1 6.6 3.4 6.9 10.3 10.2 7.8 3.7 9.1 3.9 18.8 2.9l6.7-.8 2 3.4c1.1 1.9 2.4 3.8 2.8 4.4.6.5-.4 2.8-2.4 5.5-1.8 2.5-5 7-7.1 10-4.3 6.2-7.6 7.5-10.7 4-1-1.1-2.1-2-2.4-2s-.4 2.9-.3 6.5c.2 3.6 0 7.1-.6 7.8-.5.7-2 4.3-3.3 8-1.9 5.6-2.5 6.6-3.5 5.3-.9-1.3-1.3-1.1-2.7 1.7-.9 1.7-1.9 4.1-2.2 5.2-.6 2-.7 2-2.1.1-1.3-1.9-1.4-1.8-2.6 1.4-1 2.9-1.2 3.1-1.9 1.4-.6-1.8-.8-1.7-1.7.6-1 2.2-1.1 2.3-1.1.4-.1-2.4-2.7-2.8-3.7-.5-.3.9-.8 6.7-1.1 13-.5 11.9.4 17.3 3.9 24.3 1 2.1 1.5 3.8 1.2 3.8-.9 0-8.4-8.3-8.4-9.3 0-1.7-2.1.6-4 4.3-1.1 2.2-2 5.1-2 6.6 0 1.7-.4 2.4-1.3 2.1-.8-.3-2.5 1.3-4.1 3.9-4 6.3-7.6 8.6-12.8 8.2-3.4-.2-4.7.1-6.1 1.9-.9 1.1-1.7 2.3-1.7 2.6 0 .2 3.1.7 6.9 1.1 6.2.6 14 2.3 34 7.3 6.2 1.5 7.8 2.3 10.3 5.5 3.1 4 3 5.4-.7 6.8l-2.4.9 4.6 6.8c2.5 3.7 6.5 10.7 8.9 15.5 2.4 4.7 4.8 9 5.5 9.3 1.3.9 9.5-1.3 12.7-3.3 1.2-.8 2.5-1.2 2.8-.9s3.9-1 8.1-2.9c13.9-6.4 39.2-10.6 57.8-9.7 9.6.5 33.3 4.6 36.6 6.3.9.5 5.1 2.1 9.5 3.6 8 2.8 26.2 12.1 29.9 15.3 1.1 1 4.6 3.6 7.8 5.9 6.1 4.3 26.7 23.1 26.7 24.5 0 .4 3.1 4.6 6.8 9.5 7.9 10.1 16 24 20.8 35.5 1.9 4.5 3.4 8.3 3.4 8.4 0 .2 19.4.3 43 .3h43V0H0zM177.5 31c.3.5.1 1-.4 1-.6 0-1.1-.5-1.1-1 0-.6.2-1 .4-1 .3 0 .8.4 1.1 1m-124 10.9c-.3.6-1.1.8-1.7.5q-.9-.6.3-1.5c1.6-1 2.3-.4 1.4 1M409 51c0 .5-.4 1-1 1-.5 0-1-.5-1-1 0-.6.5-1 1-1 .6 0 1 .4 1 1m-53.4 109c3.5 2.2 6.8 8.2 7.8 14.3.6 3.3.4 3.8-1.7 4.6-1.3.5-2.7 1.7-3 2.5-1.4 3.7-6.3.1-9.2-6.6-1.5-3.7-2.1-14.9-.8-16.1 1.1-1.2 3.5-.7 6.9 1.3m44.4 20.9c0 1.2-2 2.5-2.7 1.8s.6-2.7 1.8-2.7c.5 0 .9.4.9.9M334 240c0 .5-.5 1-1.1 1-.5 0-.7-.5-.4-1 .3-.6.8-1 1.1-1 .2 0 .4.4.4 1"/><path d="M175.5 169c-.9 1.8-1.4 3.4-1.1 3.7.2.3 1.2-.9 2.1-2.7s1.4-3.4 1.1-3.7c-.2-.3-1.2.9-2.1 2.7M129 235c0 2.1 1.9 3.4 4.3 2.8.9-.2.5-1-1.5-2.6-2.8-2.3-2.8-2.3-2.8-.2m-50.2 1.7c-.7 1.6-1.8 3.6-2.6 4.5-1.9 2.3-.4 2.3 4.5.3 1.9-.8 4.4-1.5 5.4-1.5 2.3 0 2.4-.9.3-3.8-2.2-3.2-6.1-2.9-7.6.5m-36.3 8.2c-1.2.5-3 3.3-4.4 6.5-2.5 6-4.6 7.7-3 2.4l.9-3.2-3.8 3.7c-2.1 2-4.5 5-5.5 6.7l-1.8 3 6.3-2.9c12.1-5.5 14.5-7.3 15.7-11.2.6-2 1.1-4.1 1.1-4.8 0-1.3-2.6-1.4-5.5-.2m12.6 1.8c-1 2.2-1 2.5.4 1.9.9-.3 1.9-.6 2.1-.6s.4-.6.4-1.4c0-2.6-1.7-2.6-2.9.1m-39.5 3.5c-.3.7-.6 2.2-.8 3.3-.3 1.7-1.1 2-5.3 1.9-2.8-.1-5.9-.3-7-.5-2-.4-2 .2-2.3 64.4L0 384.1l3.2-.3c3.2-.3 3.5-.9 6.8-15.5 0-.1-1.5-.3-3.2-.5-2.9-.3-3.4-.8-4.2-3.9-.7-3-.5-4.3 1.3-7.2 1.1-1.9 2.1-4.2 2.1-5.1s.9-2.9 2.1-4.5c1.3-1.7 2.2-4.8 2.4-8.5.3-3.2.8-6.2 1.1-6.8.4-.6.1-1.4-.7-1.8-.7-.5-1.8-2.7-2.5-4.9-1.1-4-1.1-4.1 1.1-4.1 2.5 0 3.5-2.2 3.5-7.6 0-2 .7-3.7 2-4.5 1.3-1 2.4-3.8 3.4-8.7 1.4-6.7 1.4-7.8-.3-14.4-1.7-6.5-1.7-7.7-.4-11.3.7-2.2 2.4-5.6 3.7-7.5s2.7-4.6 3.1-6c.7-2.3.6-2.4-.9-1-1.7 1.3-1.8 1.1-1.4-2.8.3-3.8 0-4.4-2.9-6.3-2.6-1.6-3.4-1.8-3.7-.7m41.7 126.5c-1.5 1-2.3 2.5-2.3 4.4 0 2.6.4 2.9 3 2.9 2.7 0 3-.3 3-3.3 0-4.7-1-5.8-3.7-4"/></svg>