<svg xmlns="http://www.w3.org/2000/svg" width="682.667" height="512" version="1.0" viewBox="0 0 512 384"><path d="M0 13.9C0 24.1.3 28 1.3 28.3q1.5.6 0 .6C.3 29 0 52.2 0 141.5 0 244 .1 254 1.6 254c2.4 0 7.4-5.8 12.1-14.1 9.6-17.1 18.9-37.1 23.6-50.9.8-2.5 1.8-5.3 2.2-6.3.6-1.3.3-1.6-.9-1.1-1.5.6-8.6-3.1-8.6-4.4 0-.4.9-1.2 1.9-1.9 1.1-.7 2.1-2.8 2.4-5 .3-2.1 1.7-7.1 3.1-11.2 1.4-4 2.6-7.9 2.6-8.5 0-.7-2.2-4.1-4.9-7.7-7.2-9.5-11.1-23.2-11.1-38.7.1-27.6 10.7-40.8 47.5-59.3 18.3-9.1 23.6-10.3 58-12.5 13.7-.8 13.4-.7 12.8-5.3-.3-2.2-.2-7 .2-10.7l.7-6.7 2.8 2.9c1.6 1.6 6.3 8.1 10.4 14.4 5.3 7.9 9.3 12.8 13.1 15.7 10.7 8.4 18.5 21.2 22.5 36.7 3.6 14.1 7.3 18.5 19 22.4 4.6 1.6 6.7 1.8 9.2 1.1 1.8-.5 5-.9 7-.9 3.3 0 4.1.5 6.2 3.9 1.4 2.1 3 4.1 3.6 4.3 1.1.3-3 8.9-7.9 16.3-3.4 5.1-5.9 5.5-10.4 1.6-4-3.5-4.9-3.2-3.6 1.3.5 1.8.8 4.4.8 5.7-.1 1.3.2 3.3.6 4.3.7 1.6.5 1.8-.8 1.3s-1.7-.1-1.7 2c0 2.9-4.4 12.8-6.1 13.9-.8.4-.9-.1-.4-1.6.5-1.4.3-2-.3-1.6-.6.3-1.3 2.5-1.7 4.9-1 5.7-1.6 6.4-3 3.7l-1.2-2.3-.7 2.9-.8 2.9-1.3-2.4-1.3-2.4-1.5 2.9c-.9 1.6-1.6 2.2-1.7 1.4 0-1-.7-.7-2.2 1-2.2 2.4-2.3 3.3-2.2 16.5.1 12.2.4 14.6 2.4 18.8 1.2 2.7 2 5.1 1.7 5.3-.2.3-2.1-1.6-4.1-4.1-2.1-2.5-4.2-4.3-4.7-4s-2.4 3.9-4.3 7.8c-2 4-5.2 9.2-7.2 11.6l-3.8 4.3-8.5-.5c-4.7-.3-9.8-.9-11.3-1.3-2.7-.6-2.8-.5-2.8 3 0 4.4 1.4 5.1 11.5 6.1 9.6.9 20.5 3.1 30 6 4.4 1.4 9 2.5 10.2 2.5 2.6 0 7.6 6.1 7.1 8.7-.2 1.1-1.4 1.9-3.1 2.1-3.3.4-3.3.5-.1 4.7 2.6 3.4 13.4 26.4 13.4 28.6 0 1.4 1.8 1 13.1-3 32-11.1 71.2-9.6 105.1 4.3 28 11.4 53 30.6 71.8 55.1 7.1 9.3 18.6 29 22.6 38.8l2.8 6.7H512V0H0zM6 2.4c0 1.1-1.9 1.5-2.5.6-.3-.5.1-1 .9-1 .9 0 1.6.2 1.6.4m187.7 27.5c1.6.9 1.5 1.1-1 2-1.6.6-3.4 1.1-4.1 1.1s-2.1.6-3.1 1.4c-1.7 1.2-2.3 1.1-5.2-1.3-3.7-3-4-3.8-1.5-4.3 3.1-.7 13.1 0 14.9 1.1m164.9 130.2c1.8 3.6 1.3 8.2-1.7 14.1-1.7 3.3-2.2 3.7-3.9 2.8-1.5-.8-2-.6-2.5 1-1.4 4.4-4.5.6-4.5-5.5 0-6.7 5.2-15.5 9.1-15.5 1.1 0 2.6 1.4 3.5 3.1"/><path d="M99.2 223.2c-.7.7-1.2 1.7-1.2 2.2 0 .6-.7 2.4-1.5 4-.9 1.6-1.4 3.1-1.2 3.3.6.5 10.7-2.9 10.7-3.6 0-1.2-4-7.1-4.8-7.1-.4 0-1.3.5-2 1.2m-8.9 6.3c.7 4.3 1.1 5 2.6 4.1 1.1-.7-.5-6.2-2.2-7.3-.7-.4-.8.6-.4 3.2m-29.1 9.7c-2.2 4.6-3.8 8.5-3.6 8.7s2.7-1 5.6-2.6c5.8-3.3 8-5.9 6.1-7.1-.6-.4-1.5-2-1.8-3.5-.4-1.5-1.1-3-1.6-3.2-.4-.3-2.6 3.2-4.7 7.7m25.4-5.8c.3.9 1.1 1.6 1.6 1.6 1.3 0 .5-2.3-1-2.8-.7-.2-1 .2-.6 1.2m-10 4.3c-.6 1.4-.5 1.5.5.6.7-.7 1-1.5.7-1.8s-.9.2-1.2 1.2m-41 1.5c-.3 1.3-.7 3.2-.8 4.3-.3 1.6-1.2 2.1-5 2.3l-4.7.3-6.5 9.7C11.7 266.2 5.3 273.4 2 274.5c-2 .6-2 1.2-2 55.1V384h16.5l3.2-10.3c4.5-14.3 5-16.7 2.9-16.7-1 0-2.3-1.5-3.2-3.7-1.4-3.3-1.4-4 0-7.1.9-1.8 1.4-3.8 1-4.3-.3-.5 1.2-2.8 3.4-5 3.4-3.3 4.2-4.9 5.1-10.3 1.5-8.4 1.4-9-1-13.7l-2-4.1 2 .7c1.9.6 2.1.2 2.1-3.7 0-5.2.7-6.4 4.2-7.3 2.2-.6 2.7-1.4 3.3-5.3.4-2.6 1.7-7.3 3-10.5 2.5-6.1 2.2-10.1-.9-13.6-1.4-1.5-1.4-2.2.3-6.6 1-2.7 2.8-6 3.9-7.2 1.2-1.3 2.4-3.3 2.8-4.6.6-2.1.6-2.1-1.5.3-1.9 2.2-2.1 2.2-1.7.5 2-8.3 2-8.1-2.8-11.4l-4.5-3.2zm16.9 8.8c-4.2 4.3-4.1 4.9.4 2.5 2.4-1.2 4.8-5.2 3.7-6.2-.1-.1-2 1.5-4.1 3.7m25.3 84.2c-.8 2.7-1.1 5.2-.7 6 .5.7.9 2.2.9 3.4 0 2 2.8 5.4 4.4 5.4 1.3 0 .1-12.1-1.5-16l-1.5-3.4zm1.3 22.5c-.6 2.1-1.1 5-1.1 6.4 0 4-2.2 6.2-5.7 5.7-3-.4-3.1-.3-3.7 4.6-.3 2.8-.6 6.8-.6 8.8v3.8h18.3l-.6-2.8c-.3-1.6-.9-7.6-1.2-13.3-.8-14-1.3-16.9-3-16.9-.8 0-1.9 1.7-2.4 3.7"/></svg>