<svg xmlns="http://www.w3.org/2000/svg" width="682.667" height="512" version="1.0" viewBox="0 0 512 384"><path d="M0 14c0 7.7.4 14 .8 14 .5 0 1.7.7 2.8 1.6 1.8 1.5 1.8 1.5-.8.9L0 30v354h21.6l4.2-12.8c4.8-14.4 4.9-15.7 2.3-17.2-1.1-.5-2.5-2.6-3.1-4.6-1-3-.9-3.8.5-5.3 1-1.2 1.4-2.7 1-4.4-.5-1.9-.2-2.7 1.2-3.1 3.6-1.2 6.5-6.5 7.6-14.1 1-6.5.9-7.6-1-11.4-1.9-3.9-2-4.1-.3-3.6 2 .6 3.7-2.6 2.5-4.5-1.2-2 .4-6 2.4-6 2.6 0 3.5-1.5 5.6-9.5 1-3.9 2.5-8.5 3.4-10.3 1.4-3.1 1.4-3.6-.8-7.7-2.2-4.3-2.3-4.5-.7-9.3.9-2.7 2.7-5.9 4-7.1 1.3-1.3 2.7-3.2 3-4.4.5-2 .4-2-1.5.3l-2 2.5.3-6.4c.3-5.6.1-6.5-1.9-7.8-2.3-1.5-2.3-1.5-2.3 2.5 0 5.1-1.8 6.6-6.9 5.8-3.4-.5-3.9-.3-5 2.2-3.3 7.2-10.8 18.7-15.2 23.2-4.2 4.3-5.5 5.1-8.1 4.8-4.1-.4-7-4.4-7.6-10.6-.6-6.6.6-8.3 6.9-9.9 2.9-.8 6.2-2.1 7.2-3.1 5.5-4.9 24.9-51.9 29.1-70.5.7-2.8-.2-3.5-2.1-1.6-.8.8-2.3.7-5.7-.6-5.2-2-5.5-2.5-2.5-4.3 1.3-.8 1.8-1.9 1.4-3.1-.3-1 1-5.1 3.1-9.4 5.2-11 5.4-14.2 1.1-19.2-4.4-5.1-6.9-10.2-9.8-19.5-2-6.3-2.3-9.6-2.3-21s.4-14.5 2.3-19.9c5.5-15.8 17-25.6 47.6-40.7 14.5-7.1 20.8-8.7 40.8-10.5 6.7-.6 15.3-1.4 19.1-1.8l6.9-.6-.2-11-.2-11 3.5 4c1.9 2.2 6.6 8.6 10.3 14.1 4.6 6.9 8.1 11 11 12.8 5.8 3.7 11.9 10.1 16.4 16.9 3.8 5.9 9.1 19.1 10.4 26.2 1.2 6.9 4.9 11.9 10.9 14.8 9 4.5 13.3 5.2 19.3 3.4l5.2-1.6 3.2 4c1.8 2.4 3.7 3.8 4.5 3.5 2.2-.8 1.7 1.4-2.2 9.4-5.7 12.1-7.4 13.1-13.5 8-3-2.4-3.9-2.7-5.3-1.7-1.6 1.2-1.6 1.5-.1 5.1.9 2.1 1.4 4.9 1.1 6.2-.3 1.2-.2 2.6.4 2.9 1.4.9 1.3 3.6-.1 3.3-.7-.2-1.8 1.9-2.5 4.7-.7 2.7-1.8 5.1-2.4 5.3-.5.2-1 .9-1 1.6s-.7 2.1-1.6 3.2c-1.5 1.8-1.5 1.8-.8-.5.4-1.5.3-2.1-.5-1.7-.5.4-1.3 2.3-1.6 4.4-1.1 6.3-1.5 7-2.7 4.8-1-1.8-1.2-1.7-2.4 1l-1.2 2.9-.1-3.3c-.1-3.8-1.3-3.5-4.2 1.2-1.5 2.5-1.9 2.7-1.9 1.1s-.4-1.3-2 1.2c-1.7 2.9-1.9 4.7-1.5 16.5.3 10.6.8 14.2 2.4 17.8 1.1 2.4 1.8 4.7 1.5 4.9-.3.3-2.2-1.4-4.2-3.8l-3.7-4.3-3 5.3c-1.6 3-2.8 6.3-2.6 7.4s0 1.7-.5 1.3c-.4-.4-2.3 1.5-4.2 4.2-5.1 7.3-9.4 8.1-25 4.3-2.2-.5-2.3-.3-2 3.8l.3 4.4 10.5 1.3c5.8.6 16.7 2.8 24.3 4.7 7.5 1.9 14.6 3.5 15.6 3.5 2.3 0 6.1 4.9 6.1 7.9 0 2.2-2.7 4.1-4.9 3.3-.7-.2.1 1.6 1.8 4.2 3.6 5.2 9.9 18.5 12.5 26.3 1 2.9 2.2 5.5 2.6 5.8.5.3 2.9-.3 5.2-1.4 5.6-2.5 18.9-4.9 35.8-6.6 11.4-1.1 15-1.1 23.3.1 5.4.8 10.2 1.2 10.7.9s5.3.6 10.7 2c5.4 1.5 11.2 2.8 12.8 2.9 5 .5 26 9.2 35 14.6 2.8 1.7 6.5 3.7 8.4 4.6 10.3 4.7 35.3 27.6 46.8 42.9 7.5 9.9 17.3 26.7 20.9 35.7l1.9 4.8H512V0H0zM10 2.4c0 1.1-1.9 1.5-2.5.6-.3-.5.1-1 .9-1 .9 0 1.6.2 1.6.4m195.4 24.9 3 1.3-3 1.1c-5.7 2.3-9.2 2.5-12.3.8-3.1-1.5-3.7-2.6-2.4-3.8 1.1-1.2 11.6-.7 14.7.6M359 157.9c1.8 3.5 1.1 7.2-2.6 12.2-2.6 3.6-4.1 4.8-5.4 4.4-.9-.3-2.3.1-3 1-3.4 4-4.2-4.5-1-10.9 1.9-4 7.2-8.6 9.7-8.6.7 0 1.7.9 2.3 1.9"/><path d="M102.6 225.2c-1.3 2.9-2.2 5.4-2.1 5.6.4.5 9.5-2 10-2.8.9-1.4-2.5-8-4-8-.9 0-2.6 2.3-3.9 5.2M92 229.5c0 .5.5 1.7 1 2.5s1 1 1 .5c0-.6-.5-1.7-1-2.5s-1-1.1-1-.5m4.4.9c-.8 2.2-.2 2.7 1.6 1.6 1.2-.7 1.2-1.2.3-2.1-1-1-1.4-.9-1.9.5m-29 7c-2 4.2-3.5 7.9-3.2 8.2.3.2 3.2-1.1 6.5-3 5.5-3.2 6-3.8 5.5-6.3-.3-1.5-.7-2.2-.9-1.6-.7 2-1.9 1.5-2-.8-.4-5-2.2-3.9-5.9 3.5m15.9-1.9c0 .8.4 1.2.9.9s.6-1 .3-1.5c-.9-1.3-1.2-1.1-1.2.6m-24.9 11.6-2.9 3.1 3.5-1.7c1.9-1 3.6-1.8 3.7-1.9s-.1-.7-.6-1.4c-.5-.8-1.6-.3-3.7 1.9m25.2 83c-1.6 3.6-1.7 4.6-.5 8.3 1.1 3.7 4.2 7.5 6.2 7.6 1.4 0 .7-11.4-.9-15.7-.9-2.4-2-4.3-2.3-4.3-.4 0-1.5 1.9-2.5 4.1m3.1 20.1c-1 .8-2.1 3.7-2.7 7.2-1.2 7.3-2.3 8.8-5.6 7.5-1.4-.5-2.9-.9-3.3-.9-.5 0-.9 4.5-.9 10l-.1 10h18.2l-.6-8.2c-.4-4.6-.9-12.5-1.3-17.6-.4-5-1-9.2-1.3-9.2-.4 0-1.5.6-2.4 1.2"/></svg>