<svg xmlns="http://www.w3.org/2000/svg" width="682.667" height="512" version="1.0" viewBox="0 0 512 384"><path d="M0 192v192h27.8l1-2.8c2.1-5.6 4.1-11.9 5.6-17.4.9-3.2 1.9-6.4 2.2-7.2.3-.9-.3-1.7-1.5-2.1-1.2-.3-2.8-2.3-3.6-4.2-1.4-3.2-1.4-3.9.1-6 .9-1.5 1.3-3.5 1-4.8-.5-1.9.1-2.8 2.5-4.6 6-4.2 8.5-15.8 5-22.7-2.5-4.8-2.6-5.6-.7-4.9 1.4.6 2.6-3 2.6-7.9 0-1.9.7-2.6 2.9-3 2.6-.6 3-1.2 4.1-6.8.6-3.3 2.1-8.2 3.2-10.8l2-4.8-2.1-3.5c-2.7-4.6-2.7-8.5.1-13.8 1.2-2.3 2.1-5.3 1.9-6.7-.4-3 .1-2.6-3.8-3.4l-3.1-.7-6.7 13C32.9 273.5 28.3 279 23.6 279c-2.6 0-3.6-.8-5.9-4.2-4.6-7.1-3.1-15.8 2.7-15.8 2.3 0 6.7-2.3 8.8-4.6 3.8-4.3 18.6-48.3 21.9-65.1.9-5 .9-6.6-.1-7.8-.7-.8-1.6-1.2-2.2-.9-2.3 1.4-8.5 1.4-10.3-.1-1.9-1.4-1.9-1.6-.2-2.9 1-.8 1.5-2 1.1-2.9-.3-.9.7-3.9 2.4-6.9 3.3-5.7 7.2-15.4 7.2-17.7 0-.8-1.7-3.7-3.9-6.5-8.3-10.8-11-19.5-11.8-36.6-.8-18.4 2.2-28.8 11.4-39 8.4-9.4 35.4-25.4 51.9-30.9 8.3-2.7 18.9-4.3 46.4-7l6.5-.6-.4-10.3c-.2-5.6 0-10.2.4-10.2 1 0 3.8 3.6 12.7 16.3 4.5 6.5 9.2 11.9 11.5 13.4 5.9 4 12 10.2 16.4 16.9 4 6.2 9.9 20.7 9.9 24.7 0 1.2 1.3 4.4 2.8 7.2 2.2 4.1 3.8 5.5 8.7 8 5.3 2.6 7 3 14.7 3 7.6 0 8.9.3 11 2.2 1.4 1.3 3.4 2.3 4.6 2.3 2.8 0 2.8 1.9.2 9.5-2.5 7.2-4.6 10.5-6.6 10.5-.9 0-3.3-1.4-5.4-3-4.5-3.6-4.4-3.6-7.1-.9-2 2-2 2.2-.4 6.4 1 2.4 1.5 4.9 1.2 5.7-.2.7.2 2.5.9 3.9 1.2 2.4 1.1 2.7-.6 3.2-1.3.3-2 1.4-2 3.1 0 3.2-2 7.7-3.2 7-.5-.3-.8-.2-.7.3.4 2.2-.2 4.1-1.5 4.6-1.1.4-1.3.1-.9-1s.2-1.4-.5-.9c-.7.4-1.2 1.7-1.2 2.9 0 3.3-1.1 6.7-2.1 6.7-.5 0-.9-.8-.9-1.8-.1-1.3-.4-1.1-1.5.8l-1.4 2.5-.9-2.4-.8-2.4-2.1 2.6c-1.1 1.5-2.3 2.4-2.6 2.1s-1.3.6-2.2 2c-1.4 2.1-1.6 4.5-1.4 12.5.2 5.5.1 10.2-.3 10.6-.7.8.7 6.1 3.2 12.1 1.1 2.4 1.7 4.4 1.3 4.4-.3 0-2.1-1.8-4-4s-3.8-4-4.2-4-2.5 3.7-4.6 8.2-5.5 9.9-7.5 12c-4.1 4.2-6.9 4.7-17 2.8-4.8-.9-5.3-.8-7.1 1.3-3.7 4.4-2 6 7.6 7.1 9 1 19.8 3.2 30.9 6 5.4 1.4 10.6 2.6 11.5 2.6 2.1 0 6.3 7.2 5.5 9.4-.4 1.1-1.3 1.4-3 1-3.3-.8-3 .4 1.5 7.2 3.5 5.4 14.1 30.1 14.1 32.9 0 .7.7 1.8 1.5 2.5 1.2 1 2.2.9 4.9-.4 2.4-1.1 4.7-1.4 7.5-1 2.8.5 4.6.2 5.7-.7 1.2-1 4.8-1.4 12.4-1.4 7.4-.1 11.3-.5 12.3-1.4 1.3-1 3.4-1 11.9.2 5.7.8 11.7 1.3 13.4 1s7.4.7 12.7 2.1 10.4 2.3 11.2 2c.8-.4 6.1 1.2 11.8 3.4 5.6 2.2 11.6 4.2 13.3 4.5 1.6.3 6.8 2.8 11.5 5.5 4.6 2.7 9 4.7 9.6 4.5s5.3 2.8 10.4 6.7c5.1 3.8 9.7 7 10.2 7 1.7 0 22.5 20.5 29.1 28.7 6.8 8.4 15.3 22 18.6 29.8l1.9 4.5H512V0H0zM219.5 25.3c1.1.3 2.2.6 2.5.7 1.5.4-9.1 3-12.5 3-4.9-.1-8.8-2.5-6.5-4.1 1.5-.9 12.6-.7 16.5.4M6.6 31.5c1.6 1.2 1.6 1.4.3 1.5-.9 0-2.2-.7-2.9-1.5-1.6-1.9 0-1.9 2.6 0M360 157.1c.7 1.1.9 3.1.6 4.2-.7 2.8-9.3 10-11.1 9.3-.7-.2-1.9.2-2.5 1-2 2.3-3 1.6-3-2 0-4.7 4.4-10.2 10.5-13.1 4-1.9 4.2-1.8 5.5.6"/><path d="M110.5 224.1c-.4 1.9-1.6 3.4-3 3.9-1.3.5-2.6 1.4-3 1.9-.8 1.4-.9 1.4 5.4-.5 4.3-1.2 5.1-1.8 4.6-3.2-.4-.9-1-2.5-1.2-3.5-.8-2.6-2.1-2-2.8 1.4m-10.5 5.3c0 1.6.5 2.6 1.5 2.6.8 0 1.5-.6 1.5-1.4 0-.7-.7-1.9-1.5-2.6-1.3-1.1-1.5-.8-1.5 1.4m-3.9-.9c.1 1.9 1.8 5.1 1.8 3.5 0-.8-.4-2.2-.9-3s-.9-1.1-.9-.5m-21.8 6.8c-1.2 1.2-3.1 4.2-4.3 6.6l-2.2 4.4 6.4-3.6c5.2-2.9 6.3-4 6.6-6.4.2-2.7.2-2.7-1.3-.9-1.3 1.7-1.5 1.7-1.5.4 0-2.7-1.6-2.9-3.7-.5m13.3-.8c-.3.8-.1 1.5.4 1.5.6 0 1-.7 1-1.5s-.2-1.5-.4-1.5-.6.7-1 1.5m-23.7 12.1c-2.3 2.5-2.3 2.6-.2 1.5 2.3-1.2 3.8-2.9 3.1-3.7-.3-.2-1.5.8-2.9 2.2m-7.8 2.8c-.7.8-.8 1.7-.3 2 .6.3 1.3-.1 1.6-1 .9-2.3.2-2.8-1.3-1m33.5 79.1c-1.4 3.4-1.5 4.7-.5 8.2.6 2.3 2 5 3 5.9 1.8 1.7 1.9 1.5 1.9-5.2-.1-3.8-.7-8.3-1.4-9.9l-1.3-3zm.9 24.2c-1.2 9.9-1.7 10.8-5.7 10.7l-3.5-.1-.7 6c-.3 3.3-.6 8-.6 10.3v4.4h8.5c7.4 0 8.5-.2 8.5-1.8 0-.9-.5-9-1.2-18-1.1-14.3-1.4-16.2-2.9-16.2-1.4 0-1.9 1.1-2.4 4.7"/></svg>