<svg xmlns="http://www.w3.org/2000/svg" width="682.667" height="512" version="1.0" viewBox="0 0 512 384"><path d="M0 192v192h35.7l3.1-11.3c4.4-16.1 4.5-16.7 2.7-16.7-.8 0-2.5-2-3.7-4.5-2.1-4.3-2.1-4.5-.4-6.4 1.3-1.4 1.6-2.8 1.2-4.6-.5-2.1.1-3.2 3.4-6.4 4-3.8 4-3.8 4-11.2-.1-4.5-.6-8.4-1.5-9.9-1.8-3.2-1.8-4-.1-4 1.1 0 1.6-1.5 1.8-5.2.3-4.4.7-5.4 2.7-6.5 3-1.4 3.6-2.6 4.5-7.8.4-2.2 1.4-6 2.3-8.5 1.5-4.3 1.4-4.7-.7-9.3-2-4.2-2.1-5.2-1-9.6.6-2.7 2-5.7 3-6.6 1.8-1.6 1.6-5.9-.2-5.3-.6.2-2.5 4.5-4.3 9.4-1.8 5-4.5 11.4-6.1 14.3C43.7 279 38 285 35.9 285c-2.3 0-7.8-6.8-8.9-11.1-1.6-5.8 0-8.7 5.8-10.7 7.8-2.6 9-5.3 16.2-36.6 4.8-20.7 7-32.6 7-37.6 0-3.2-.4-3.7-3.6-4.9-2.6-.9-3.9-1-4.7-.2-1.5 1.5-5.8 1.3-7.9-.3-1.7-1.2-1.7-1.4.1-3 1-.9 1.7-2.5 1.4-3.5-.2-1 .9-4 2.5-6.7 3.8-6.1 7.2-14.7 7.2-18 0-1.5-1.8-4.9-4.4-8.2-10-13-14.2-36.7-9.6-54.7 2.4-9.4 4.6-13.2 11.9-20.9 6-6.3 10.2-9.2 25.7-18.2 21.7-12.5 33.8-15.8 66.9-18.1 11-.7 10.2.3 9.7-12.5l-.5-11.3 2.1 1.9c1.2 1 6.3 7.9 11.4 15.2 5 7.4 9.4 13.4 9.8 13.4.3 0 2.9 1.9 5.7 4.3 10.1 8.2 17.6 20.6 21.3 35.2 2.1 8.4 5 13.8 8.4 16 1.1.8 5.3 2.3 9.3 3.4 5.8 1.6 7.9 1.7 11.3.9 3.6-.9 4.3-.8 6.4 1.1 1.4 1.3 3.5 2.1 5.9 2.1 4.4 0 4.4.1 1.4 10.5-3 10.1-4.3 10.9-10.1 6.8l-4.5-3.2-2.5 2c-1.3 1-2.9 1.9-3.5 1.9-1.4 0-1.4.1.9 5.1 1.1 2.4 2 5.7 2 7.2 0 1.6.5 3.8 1.1 4.9.9 1.8.9 2-.4 1.5-1.6-.6-2.7 1.1-2.7 4 0 2.8-5.4 13-5.8 11-.6-2.8-2.2-.9-2.2 2.6 0 1.8-.5 3.9-1 4.7-.8 1.2-1.1 1.1-1.6-.9l-.7-2.3-1.2 2.8-1.2 2.9-.7-2.8c-.8-3.3-2.3-2.7-4.2 1.7-1 2.3-1.3 2.6-1.4 1.1 0-1.6-.4-1.4-1.9 1.1-1.5 2.4-1.9 4.8-1.7 11 0 4.3.4 8.4.9 9.1.8 1.3-.1 4.3-1.3 4.3-.9 0 1.3 6.7 3.6 11.2 2.4 4.6 1 4.4-3.2-.5l-3.8-4.4-3.2 6.6c-1.8 3.6-3 6.9-2.8 7.3.3.5.1.8-.4.8s-2.3 2.2-4.1 5c-3.5 5.4-6.9 6.8-13.6 5.7-1.9-.3-3.7-.2-4 .4-.4.5-2.4 0-4.6-1.1-4.5-2.3-5.3-1.7-4.7 4.1l.3 3.3 12.3 1.7c6.7 1 16.6 2.9 22 4.2 5.3 1.4 11.6 2.8 13.9 3.2 3.4.5 4.7 1.3 6.4 4.2 2.7 4.4 1.7 7-2.6 6.5l-2.7-.4 3 3.9c3.9 4.8 8.8 14.9 13.6 28 5.1 13.6 5.4 14 9.4 11.9 2.9-1.5 7.2-2.2 7.2-1.2 0 .3-.9 2-2 3.9-1.1 1.8-2.3 5.5-2.6 8-.6 4-.4 4.7 1.1 4.7.9 0 1.9-.9 2.2-2 .5-1.9 1.4-2 12.6-2 10.1 0 12.2-.3 13.2-1.7 1.2-1.6 2-1.6 13 0 10.8 1.7 11.8 1.7 12.9.2 1.1-1.6 2.2-1.4 12.7 1.3 6.9 1.8 11.8 2.7 12.3 2.1 1.6-1.5 3.7-1.1 14.6 3.1 7.5 2.8 10.8 3.6 11.7 2.9.9-.8 4 .3 11.3 4.1 5.7 2.9 10.8 4.9 11.8 4.6 1.1-.4 5.1 1.8 11 5.9 5 3.5 9.8 6.2 10.5 6 .6-.3 4.8 2.6 9.2 6.5 4.4 3.8 8.5 7 9.1 7s4 3.3 7.5 7.2c3.5 4 7.2 7.9 8.1 8.6 1.8 1.3 14.3 19.7 15.4 22.6.5 1.4 5 1.6 37.5 1.6H512V0H0zM228.9 22.2c2.8.6 5.1 1.4 5.1 1.8 0 1.1-7.4 3-11.6 3-2.2 0-5-.7-6.3-1.6l-2.4-1.7 2.4-1.3c3-1.7 6.4-1.7 12.8-.2M9.6 33.5c1 .8 1.5 1.4.9 1.4-.5 0-1.9-.6-2.9-1.4-1.1-.8-1.5-1.5-1-1.5.6 0 1.9.7 3 1.5M360.5 158c0 1.9-1.2 3.2-5.5 5.8-3.3 1.9-6.3 3.1-7.5 2.8-1-.3-2.7.2-3.7 1.1-1.7 1.5-1.8 1.5-1.8-.6 0-3.4 1.7-5.9 6.3-9.2 3.3-2.4 5-2.9 8.2-2.7 3.5.3 4 .6 4 2.8"/><path d="M102.5 227c-.4.6-.3 1.6.3 2.2s.8 1.7.5 2.4c-.3.8.1 1.4 1.1 1.4 1.9 0 2-1.7.2-4.9-.9-1.7-1.5-2-2.1-1.1m5.8 2.5c-.6 1.4-.8 2.5-.5 2.5.5 0 5.3-1.4 9.2-2.8 1-.3.4-.8-1.5-1.2-5.1-1.3-6-1.1-7.2 1.5M73 244c-1.2 2.3-.7 2.5 2.1.9 1.1-.5 1.7-1.4 1.4-2-1-1.5-2.3-1.1-3.5 1.1m-5 3.5c-1.1 1.3-1 1.4.4.9.9-.3 1.6-1 1.6-1.5 0-1.3-.6-1.1-2 .6m-8.5 3.5c-.3.5.1 1 .9 1 .9 0 1.6-.5 1.6-1 0-.6-.4-1-.9-1-.6 0-1.3.4-1.6 1m35 77.3c-1 3.8.1 9.7 2.1 11.6 1.5 1.5 1.6 1.1.9-4.9-.8-8-2-10.7-3-6.7m2.1 21.2c-.3.9-.6 3.1-.6 4.9s-.5 4.8-1.1 6.6c-1.1 3-1.4 3.2-4.5 2.7l-3.4-.6V384h14l-.5-2.8c-.3-1.5-.9-9.4-1.5-17.6-.5-8.2-1.1-15.1-1.3-15.3-.3-.2-.7.3-1.1 1.2"/></svg>