<svg xmlns="http://www.w3.org/2000/svg" width="682.667" height="512" version="1.0" viewBox="0 0 512 384"><path d="M0 192v192h57.6l2-10.1 2.1-10.1-2.2-.8c-1.3-.5-2.9-2.6-3.9-5.4-1.6-4.2-1.6-4.6 0-7 1.1-1.8 1.4-3.6 1-6-.6-2.9-.3-3.7 1.9-5.4 4.6-3.6 4.4-9.6-.6-18.6-1.1-1.8.1-3.5 2.4-3.6.5 0 .7-2.7.5-6.1-.2-5.4 0-6.2 2.2-7.9 1.4-1.1 2-2 1.3-2-2.1 0-8.3-6.1-10.4-10.1-2.8-5.5-2.4-7.5 1.7-10.3 2-1.4 4.7-4.3 6-6.6 2.2-3.9 2.4-5 2.3-22.8 0-10.3.5-25.5 1-33.7 1.5-22 1.5-22-1.5-24-1.9-1.2-2.9-1.4-3.7-.6-1.5 1.5-6.8 1.3-8.9-.3-2.3-1.7-2.2-2.2.2-4.6 1.1-1.1 2-2.7 2-3.5 0-.9 1-3.5 2.1-5.7 1.2-2.3 3-6.6 4-9.6 2.1-6.1 1.8-7.3-3.6-13.3-4.7-5.3-8.1-13.3-10.4-24.6-2.5-12.2-2.6-18.1-.5-27.5C47 93.3 49.5 88.6 56.7 81c5-5.4 10-9.1 21.6-16.1 21.8-13.2 30.8-16.8 48.1-18.9 4.9-.6 9.9-1.6 11-2.2 1.2-.6 6.9-1.4 12.7-1.6l10.6-.4-.3-12.4c-.1-6.8.1-12.6.6-12.9.8-.5 12.3 16.2 18.4 26.8 1.6 2.6 5.9 8.2 9.7 12.4 8.4 9.2 14 18.4 16.9 27.8 3.8 12.1 6.9 17.5 11.5 19.5 7 3 14.1 4.2 20.3 3.5 5-.6 6-.4 7.6 1.4 1.1 1.2 3.1 2.1 4.8 2.1 1.6 0 2.8.5 2.8 1.3 0 1.9-3.6 14.2-4.9 16.6-1.5 2.8-2.7 2.7-8.1-.9l-4.5-3-2.7 2.8c-2.7 2.6-2.7 2.8-1.3 7.2.7 2.5 1.8 6.4 2.3 8.8.8 3.6.7 4.2-.7 4-1-.2-1.6.4-1.6 1.7-.1 3.5-1.6 8.5-2.5 8-.5-.3-1.2.9-1.6 2.7s-.9 2.7-1.1 2c-.9-2.6-2.1-1-2.7 3.8-.6 4.7-2.5 6.2-2.6 2.2-.1-1-.6-.5-1.5 1.3-1.2 2.6-1.3 2.7-1.4.8-.1-3.3-1.6-3.5-4.2-.5-5.2 5.8-5.6 6.9-5.3 14.5.2 4 .6 8 1 9 .3.9.3 2.5-.2 3.4-1 2.4-.7 3.9 2.1 10 1.3 2.9 2.2 5.3 1.9 5.3s-2.3-1.8-4.4-4.1l-3.8-4.1-2.8 6.3c-1.6 3.5-2.9 6.8-3 7.4 0 .5-.2 2-.2 3.2-.1 1.3-.7 2.3-1.3 2.3s-3 1.6-5.2 3.6c-3.9 3.6-4 3.6-10.6 3-3.6-.3-8.3-.9-10.3-1.2l-3.8-.6v9l8.8 1.2c4.8.7 14.6 2.5 21.7 4 7.2 1.6 15 3.1 17.5 3.5 3.7.5 4.9 1.3 6.3 3.7 2.4 4.2 2.1 5.5-1.2 6.3l-3 .6 4.2 6.2c4.3 6.2 8 14.2 13.7 29.4 3.8 10.2 4.9 11.2 8.9 8.4 5-3.6 6.4-2.5 3.6 2.8-.8 1.6-1.8 5.5-2.3 8.7-.8 4.8-.6 6.5.8 9.8 1 2.3 2.7 4.6 3.8 5.3 2.6 1.5 14.2 2.9 14.2 1.6 0-.5.6-1.7 1.3-2.6 1.1-1.5 2-1.5 11.2-.2 13.4 1.9 14.6 1.9 15.2-.5.7-2.5.7-2.5 14.4.6 10.2 2.3 11.5 2.4 12.5 1 1.5-2.1 1.9-2.1 14.6 1.5 8.2 2.4 11.2 2.9 12.1 2 1.7-1.7 3.3-1.4 13.6 3 7.8 3.3 9.9 3.9 11.4 3 1.5-1 3-.5 8.5 2.5 3.7 2.1 8.1 4.5 9.8 5.5 2.1 1.2 3.5 1.4 4.2.7 1.3-1.3 3.8.1 11.1 5.8 3.1 2.4 6.6 4.4 7.9 4.4 1.4 0 4.7 2.3 8.7 6 3.5 3.3 7.1 6 7.9 6s3.2 2.4 5.3 5.2c2.1 2.9 5.4 7 7.5 9l3.6 3.8H512V0H0zM271.3 12.1c6.2 1.3 7.3 2.5 3 3.4-1.6.3-4.3 1-6.2 1.5-2.4.6-4.4.5-6.8-.5-5.2-2.2-4-3.8 3.8-5.4.3 0 3.1.4 6.2 1M19.5 39c.8 1.3-.5 1.3-2.5 0-1.3-.8-1.3-1 .2-1 .9 0 2 .4 2.3 1m335.9 115.9c1.3.6 2.7 1.5 3.1 2.2.6.8-.8.9-5.6.3-3.5-.5-8.4-.8-10.8-.8-3.7.1-4.1 0-2.5-.9 4.5-2.5 10.3-2.8 15.8-.8"/><path d="M122.3 235.6c-3 1.3-4.9 3.1-4.1 3.9.5.5 8.4-1.8 9.3-2.6.3-.3 0-1.1-.7-1.6-.9-.7-2.3-.6-4.5.3M115 240c0 .5.5 1 1.1 1 .5 0 .7-.5.4-1-.3-.6-.8-1-1.1-1-.2 0-.4.4-.4 1m-9 131.3c0 6.8 1.2 12.7 2.7 12.7 1.1 0 1.3-1.6 1.1-7.7-.3-6.5-.6-7.8-2-8.1s-1.8.4-1.8 3.1"/></svg>