<svg xmlns="http://www.w3.org/2000/svg" width="682.667" height="512" version="1.0" viewBox="0 0 512 384"><path d="M0 192v192h31.9c29.6 0 32-.1 32.5-1.8.5-1.9 2.6-13.1 2.6-14.3 0-.4-.8-.9-1.8-1.1-2.6-.7-5.7-10.1-4.2-12.8.5-1 1-4.1 1-6.9 0-4.3.4-5.3 2.5-6.7 3.2-2.1 3.2-4.8 0-12-3-6.8-3-6.4-.6-6.4 1.7 0 1.9-.9 2.3-8.1l.3-8-4.6-4.8c-2.5-2.6-4.9-6.1-5.3-7.6-.6-2.5-.1-3.4 3.9-7.3 2.5-2.4 5-5.5 5.6-6.9.5-1.3.9-14.4.9-29.1s.5-32.1 1.1-38.6c.9-10.4.8-12.1-.5-13.5-1.2-1.2-1.8-1.2-2.8-.3-1.5 1.5-5 1.5-8.3 0-2.9-1.3-3.1-2.5-1-4.8 2-2.2 9.5-20.5 9.5-23.1 0-1.1-2-4.1-4.5-6.8-5.5-5.9-9.1-13.7-11.6-25.5-2.3-11.2-2.4-18.5-.3-27.9 3.9-17.1 10.9-24.9 35.9-39.9C103.7 58.4 110 55.7 124 53.4c5.2-.9 12.6-2.5 16.4-3.6 4.3-1.3 10-2.1 15.1-2.2l8.3-.1.6-5.9c.3-3.2.6-9.3.6-13.5l.1-7.6 3 3.5c1.6 1.9 7.4 10.6 12.7 19.4 5.3 8.7 12 18.4 14.8 21.6 6.3 7.1 10.6 14.4 13.4 23 1.2 3.6 3.4 9.2 5 12.6 2.5 5.3 3.5 6.3 7.2 7.7 10.1 3.7 18.1 4.7 23.1 2.8 2-.8 2.9-.5 4.8 1.5 1.3 1.4 3.4 2.4 5.1 2.4 3.5 0 3.5.9 0 11.5-2.4 7.2-3 8-5.4 8.3-1.8.2-4-.6-6.4-2.4l-3.6-2.8-2.5 2.8c-1.5 1.8-2.2 3.4-1.7 4.5.4.9 1 3.4 1.4 5.6s1.1 5.2 1.5 6.8c.6 2.3.5 2.6-1 2-1.6-.5-1.7-.2-1.2 2.5.4 1.7.2 3.4-.3 3.7-.6.3-1 1.5-1 2.6 0 1-.4 1.9-1 1.9-.5 0-1.6 1.2-2.4 2.7-.9 1.7-1.6 2.2-1.6 1.3-.2-2.7-1.9 2.3-2 6-.1 3.1-.2 3.3-1.4 1.8-1.2-1.7-1.4-1.6-2.3.5-1 2.1-1.1 2.1-1.8-1.1s-.8-3.3-2.6-1.6c-1 .9-1.9 2.2-1.9 2.8 0 .7-1 2.4-2.2 4-2 2.3-2.3 4-2.3 10.7 0 4.3.3 7.9.8 7.9s.6 1.8.2 3.9c-.5 2.9-.1 5.2 1.4 8.5l2 4.6-2.4-1.6c-1.3-.8-2.6-2.2-2.9-3q-1.5-3.75-4.5 3c-1.4 3-1.8 5.4-1.4 8.1.5 3.4.4 3.7-1.4 3.1-1.5-.5-2.4.2-4.2 3.4-3.6 6.4-5.8 7.4-15.4 6.7-4.5-.4-9.2-.9-10.4-1.3-2.1-.6-2.3-.3-2.3 3.4 0 2.3.4 4.3.9 4.6s4.4 1.1 8.7 1.7c4.4.5 14 2.3 21.4 3.9s15.3 3.1 17.6 3.5c3 .5 4.5 1.3 5.7 3.5 2.5 4.1 2.1 5.7-1.3 6.5l-3 .7 2.5 3c3.2 3.8 9.2 15.7 13 25.7l2.8 7.3 3.5-.6c2-.3 4-1.2 4.4-2.1.7-1.2 3-1.5 11.1-1.5 7.1 0 11.1-.5 13.1-1.5 2.4-1.3 4.6-1.4 13.8-.5 7.9.8 11.4.7 12.3 0 1.5-1.2 5-.8 16.8 2.1 5.6 1.4 8.3 1.7 9.2.9.9-.7 4.4.1 12.6 2.9 6.9 2.4 11.6 3.5 12 2.9.4-.5 5.2 1.3 11.5 4.5 6 3 11.5 5.2 12.2 5 .7-.3 5.5 2.2 10.5 5.6 5.1 3.4 10 6.1 10.7 6.1.8 0 5.2 3.2 9.7 7 4.5 3.9 8.6 7 9.1 7s3.3 2.8 6.2 6.2c3 3.5 7 7.9 9.1 9.8 4.2 4 15.4 21 18.9 28.7l2.4 5.3H512V0H0zM30 4.4c0 .2-.7.6-1.5 1-.8.3-1.5.1-1.5-.4 0-.6.7-1 1.5-1s1.5.2 1.5.4m257.8 2.1c2.9.9 5.2 2 5.2 2.5 0 .9-8.6 3-12.3 3-2.7 0-7-2.8-6.2-4.1.5-.7 5-2.4 7.6-2.8.3-.1 2.9.6 5.7 1.4m64.9 148.6c4 2 6.4 5 2.6 3.4-1-.5-3.9-1.6-6.5-2.5s-4.5-2-4.1-2.3c1.1-1.2 3.5-.8 8 1.4"/><path d="M227.2 159c0 1.4.2 1.9.5 1.2.2-.6.2-1.8 0-2.5-.3-.6-.5-.1-.5 1.3m-99.7 81.3c-3.9 1.3-5.8 2.8-4.7 3.9.9.9 9.2-2 9.2-3.3q0-2.1-4.5-.6m-9 4.7c-.3.5-.1 1 .4 1 .6 0 1.1-.5 1.1-1 0-.6-.2-1-.4-1-.3 0-.8.4-1.1 1m-7 131.2c1.1 8.4 2.4 9.2 2.5 1.5 0-5.5-.3-6.7-1.6-6.7s-1.5.8-.9 5.2"/></svg>