<svg xmlns="http://www.w3.org/2000/svg" width="682.667" height="512" version="1.0" viewBox="0 0 512 384"><path d="M0 62.6c0 55.4.2 62.5 1.5 61.4 1.2-1 1.6-.9 2.1.4.9 2.3-.4 4.9-2.1 4.2C.2 128.1 0 143 0 256v128h69.9l3.9-5.8c2.2-3.1 4.2-7.5 4.6-9.7s.9-4.8 1.2-5.8c.4-1.2 0-1.7-1.4-1.7-2.6 0-4.5-4.8-4.4-10.8.3-12.3.8-17 1.9-18.3.9-1.2.7-2.7-1.3-7.4-1.3-3.3-2.4-6.1-2.4-6.2s1-.3 2.3-.5c1.8-.2 2.3-1 2.5-4.7.5-7-.4-9.2-3.3-8.5-1.4.3-3.9.1-5.6-.6-3.6-1.5-8.8-8.8-9.6-13.4-.5-3-.2-3.6 2.3-4.9 4.6-2.4 6.1-4.7 7.7-12.2 2.7-12.2 7.4-43.9 10.2-68.8.6-5.5.5-5.8-1.1-4.9-1.8 1-5.6.1-8.1-2-1-.8-.9-1.5.7-3.5 1.1-1.4 2-3.4 2-4.4s.7-4.4 1.5-7.6c2.6-10.1 2.1-13.3-2.8-18.1-11.7-11.4-18.5-38.6-14.3-56.6C60 92.3 67.4 83.7 89 69.4c17.8-11.8 26.8-16 40.2-19 6.2-1.4 14.2-3.5 17.7-4.6 3.6-1.2 10.1-2.4 14.5-2.7l8.1-.6-.2-6c-.2-3.3-.5-8.6-.8-11.8-.3-3.1-.2-5.7.2-5.7 1.2 0 8 8.5 16.5 20.5 3.9 5.5 10.8 13.6 15.2 18 8.5 8.4 13.7 16.8 17.7 28.2 1.1 3.2 3.4 8.1 5.1 11 2.6 4.3 4.2 5.6 8.9 7.7 6.5 3 8.8 3.2 15.5 1.1 7.2-2.2 8.6-1.9 11.6 2.5 1.7 2.4 3.6 4 4.8 4 2.8 0 2.6 2.6-1 11.8-3.6 9.4-6.5 14.2-8.4 14.2-.8 0-2.8-1.1-4.4-2.5-1.6-1.3-3.2-2.2-3.6-1.8-1.1 1.1-.7 5.2.9 8.9 1.3 3.2 1.3 3.5 0 3-1.1-.4-1.5.1-1.5 1.7 0 3.7-2 9.8-3.1 9.2-.5-.4-.9.3-.9 1.3 0 1.1-.7 2.5-1.5 3.2-1.3 1.1-1.5 1-.9-.6.5-1.6.4-1.6-.5-.4-.6.8-1.1 3.2-1.1 5.4 0 3-.3 3.7-1.5 3.2-1-.4-1.9.2-2.4 1.6-.7 2-.9 1.8-1.5-1.6-.7-3.7-.8-3.8-2.8-1.9-4.3 3.9-6.3 9.4-6.3 17.3 0 5.4.4 7.8 1.5 8.6 1.2 1 1.3 1.6.1 3.8-1.3 2.3-1.1 3.1 1.5 8.4l2.9 5.9-2.7-2c-1.5-1.1-2.9-2.6-3.2-3.4-1.2-3-3.4-1-5.7 4.9-1.3 3.5-2.3 6.5-2.4 6.8 0 .3-1.5 3.1-3.3 6.2-4 6.9-4.8 7.2-18.8 6.6l-10.4-.5v4.3c0 5-.6 4.7 14 6.9 5.8.9 16.6 3.4 24 5.6 7.4 2.1 14.3 3.9 15.2 3.9 1.9 0 5.8 5.8 5.1 7.7-.4.9-1.6 1.1-4.4.7-2.1-.4-3.9-.3-3.9.1s1.5 2.2 3.3 4.1c1.7 1.9 4.6 6 6.3 9.2 3.6 6.5 4 6.6 12.9 2.9 3.3-1.4 11.4-3.8 18-5.3 10.6-2.4 14.1-2.7 29.5-2.7 9.6.1 19.8.5 22.5 1.1 23.4 4.7 38 9.9 54.4 19.5 20.9 12.2 38.4 28.2 54 49.2 4.4 6 8.1 11.2 8.1 11.6 0 .3 2.7 5.4 6 11.2 3.3 5.9 6 11 6 11.6 0 .5-1.7 1.6-3.7 2.4-2.1.9-8.7 3.6-14.8 6.1l-11 4.6H512V0H0zM44 6.4c0 .2-.7.6-1.5 1-.8.3-1.5.1-1.5-.4 0-.6.7-1 1.5-1s1.5.2 1.5.4M33.5 48c.3.5.2 1-.4 1-.5 0-1.3-.5-1.6-1-.3-.6-.2-1 .4-1 .5 0 1.3.4 1.6 1m410.3 28.2c1.4 1.4 1.6 2.8.2 2.8-.5 0-1.4-.9-2-2-1.2-2.2-.1-2.7 1.8-.8m-100.1 74.9c2.2 1.3 8.1 10.9 6.7 10.9-.4 0-2.4-1.6-4.3-3.6-2-2.1-5.6-4.5-8.1-5.4-2.4-1-4.6-2.2-4.7-2.7-.5-1.4 7.9-.8 10.4.8m115.7 35.5c.4 1 .1 1.4-.6 1.2-1.5-.5-2.3-2.8-1-2.8.5 0 1.3.7 1.6 1.6"/><path d="M130 242c0 .5.5 1 1 1 .6 0 1-.5 1-1 0-.6-.4-1-1-1-.5 0-1 .4-1 1m-50.4 54.8c-.4 1.3-.5 2.6-.2 2.9 1 1.1 1.8-.4 1.4-2.9l-.4-2.3z"/></svg>