<svg xmlns="http://www.w3.org/2000/svg" width="682.667" height="512" version="1.0" viewBox="0 0 512 384"><path d="M0 192v192h34.3l34.2-.1 5.5-7.6c8.6-11.9 9.9-16 5.7-19.3-1.5-1.2-2.8-3.9-3.6-7.3-1.2-4.7-1.1-5.7.2-7.8 2.3-3.4 1.7-19.5-.8-23.3-1.7-2.5-1.7-2.6.9-3.6 2.5-.9 2.6-1.3 2.6-8.4 0-6.2.4-7.8 2-9.3 1.3-1.3 1.7-2.6 1.3-4.1-.8-3.1-1.8-2.7-3.3 1-1.8 4.6-6 8.8-8.7 8.8-5 0-12.3-9.4-12.3-15.9 0-2.5.6-3.3 3.3-4.4 1.7-.8 3.7-2 4.3-2.8 1.6-2.2 4.7-13.6 4-14.8-.4-.6 0-2.1.7-3.3.8-1.3 2-5.5 2.7-9.3.6-3.9 1.8-10.2 2.5-14 1.4-7 6.5-40.7 6.5-42.7 0-.6-.8-.4-1.8.5-2.3 2.1-3.5 2.1-7.4.1l-3-1.6 2.1-2.2c1.2-1.2 2.1-3.3 2.1-4.7.1-1.3.9-4.9 2-7.9 3.1-8.9 2.7-11.2-3-17.5-14.7-16.2-19.9-44.9-11.9-66C64.2 88 75.5 77 93 65.4c17.7-11.8 29.8-17.3 41.5-19 2.2-.3 7.6-1.7 12-3.1 4.4-1.3 11.4-2.7 15.5-3.1l7.5-.7-.3-11.9-.2-12 3.7 4.4c2.1 2.4 7.4 9.2 11.9 15.1 5.2 6.9 10.2 12.4 14.1 15.3 9.4 7.1 17.5 19.2 22.4 33.5 1.1 3 3.3 7.6 5 10.2 2.5 3.9 4.1 5.2 8.4 6.8 8.7 3.3 9.8 3.3 16.9 1.1l6.7-2.2 3.5 4.1c2 2.3 4.4 4.1 5.6 4.1 1.8 0 1.9.4 1.3 3.7-.9 4.8-6.3 18.2-8.3 20.5-2 2.4-3.4 2.3-6.6-.7-4.1-3.8-5.7-2.5-4.1 3.3.7 2.6 1.6 5.5 2 6.5.5 1.3.3 1.6-.8 1.2-1.1-.5-1.6.6-2.1 4.4-.4 2.8-1.2 5.4-1.9 5.8-1.5 1-4.3 6.7-5.5 11.3-.8 2.9-1.1 3.2-1.7 1.6-.7-1.6-.9-1.5-2 1l-1.2 2.9-.7-3.8c-.7-3.8-.8-3.9-2.8-2-1.1 1-3.1 3.9-4.4 6.5-2.2 4.4-2.3 5.2-1.4 12 .6 4 1.5 7.7 2 8.2s.3 1.8-.6 3.1c-1.4 2.1-1.3 2.8 1.6 8.7l3.2 6.3-4.5-4.3-4.5-4.4-1.7 5.4c-2.8 8.4-8.2 18.4-11.2 20.8-2.9 2.3-3.9 2.3-22.3.7-2.3-.2-2.5.2-2.8 3.9-.2 2.5.2 4.5 1 5.2.7.6 5.1 1.6 9.8 2.2 9 1.2 20.6 4 35.9 8.8 7 2.1 9.9 3.5 11.3 5.5 2.4 3.3 1.5 5-2.3 4.2-4.6-1-5.3.3-1.9 4.1 1.7 2 4.4 6 6.1 8.9l3 5.4 5.2-2.1c8.5-3.4 24.4-6.6 38.1-7.8 32.1-2.7 65.2 5.7 95 24.2 25.1 15.6 46.5 38.7 62.3 67.3 8.9 16.1 9.2 14.4-3.4 19.8-6 2.5-12.4 5.2-14.3 6-3.2 1.4.2 1.5 38.3 1.6l41.7.1V0H0zM47.5 7c-.3.5-1 1-1.6 1-.5 0-.9-.5-.9-1 0-.6.7-1 1.6-1 .8 0 1.2.4.9 1m399.3 72.4c.3 1.2-.1 1.7-1 1.4-.7-.3-1.5-1.3-1.6-2.2-.3-1.2.1-1.7 1-1.4.7.3 1.5 1.3 1.6 2.2m-440 48.8c-.4 2.7-2.8 3.6-2.8 1 0-2 .8-3.2 2.2-3.2.5 0 .8 1 .6 2.2m336.8 22.5c3.3 3.7 5.6 8.9 4.6 10.7-.2.4-2.2-1.2-4.3-3.7-2.1-2.4-5.7-5.2-7.9-6.1-6-2.4-5.3-3.5 2.8-4.5.7 0 2.9 1.6 4.8 3.6M464 188c.6 1.1.7 2 .2 2-1 0-3.2-2.1-3.2-3.2 0-1.6 1.9-.8 3 1.2"/><path d="M241.1 148.6c0 1.1.3 1.4.6.6.3-.7.2-1.6-.1-1.9-.3-.4-.6.2-.5 1.3M133 240.1c0 .5.5.7 1 .4.6-.3 1-.8 1-1.1 0-.2-.4-.4-1-.4-.5 0-1 .5-1 1.1m-42.9 14.5c0 1.1.3 1.4.6.6.3-.7.2-1.6-.1-1.9-.3-.4-.6.2-.5 1.3"/></svg>