<svg xmlns="http://www.w3.org/2000/svg" width="682.667" height="512" version="1.0" viewBox="0 0 512 384"><path d="M0 192v192h62l11-14.8c6-8.1 11.9-16.6 13.1-19 2.1-4.2 2.1-4.2.1-6-1-.9-2.4-4.2-3.1-7.2-1-4.9-.9-5.9.8-9.3 1.6-3.1 1.9-5.4 1.6-11.5-.1-4.3-.6-8.7-1-9.9-.5-1.6-.2-2.3 1.3-2.7 3.5-1.1 5.3-8.8 3.3-14-.7-1.7-.8-1.7-2.3.6-4.6 7.1-8 7.5-13.1 1.9-5.7-6.3-6.1-17.1-.7-17.1 4.7 0 10.7-9 9.8-14.8-.1-.9.3-2.7 1-3.9 1.5-2.7 8.4-35.2 11.2-52.7 1.1-6.8 2.3-13.2 2.6-14.2.6-1.6.5-1.7-.7-.7-1.8 1.7-9.4 1.6-10.8 0-.8-1.1-.6-1.8.9-3.2 1.1-1 2-2.8 2-4.1 0-1.2.9-5.1 2-8.6 3.3-10.6 2.9-13.1-3.5-19.4-13-12.9-20.8-42.4-16-60.7 3.6-13.7 9.9-21.9 27.8-36.1C119.6 40.5 127.6 36 143 32c4.7-1.2 12.5-3.3 17.4-4.7 4.8-1.4 10.8-2.8 13.2-3.1 4.9-.5 5-.8 3.5-8.9-.5-2.6-1.3-6.5-1.6-8.6l-.6-3.9 3.9 3.1c2.1 1.7 7.1 6.9 11.2 11.4 5.2 5.9 8.7 8.8 12.3 10.5 14.8 6.6 29.1 23.9 34.2 41.2.7 2.4 7.2 12 8.1 12 .2 0 3.9.9 8.2 2.1 8 2.1 12.5 2.1 19.9-.2 4.1-1.3 4.4-1.2 7.2 1.5 2.1 2.1 3.5 2.6 5.1 2.1 2-.6 2.1-.4 1.5 3.2-1.3 7.5-4.5 17-6.4 18.7-1.9 1.8-2.2 1.7-6.9-1.2l-5-3.1-2.1 2.3c-2 2.1-2 2.5-.6 5.2.8 1.6 1.5 3.6 1.5 4.4s.9 3.2 2 5.3c2 3.7 1.6 4.8-.9 2.4-1-1-1.2-.5-1 2.3.3 4.2-1 10-2.2 10-.5 0-1.3 1.5-1.8 3.2-.6 2.1-1 2.6-1 1.3-.2-4-2.1.8-2.1 5.4 0 3.6-.2 4.1-1.4 3.2-1.1-.9-1.5-.7-2.1 1.1-.6 2.2-.7 2.1-1.6-1-.5-1.7-1.3-3.2-1.8-3.2-1.1 0-4.1 6.3-4.1 8.6 0 .9-.3 1.4-.7 1-.4-.3-1.2.3-1.8 1.4-1.4 2.6 0 14.5 2 17.6 1.2 1.8 1.2 2.4-.1 4.2-1.6 2.3-1 4.5 3.4 11.5 1.3 2.2 2.2 4.1 2 4.3-.3.2-2-1.2-3.8-3.1-1.9-1.9-3.9-3.5-4.6-3.5s-1.8 1.7-2.4 3.7c-3 9.8-7.4 19.5-9.8 21.3-2.1 1.7-4 2-13.2 2-12.2 0-14 .9-14 7.3 0 4.1-.2 4 17 7.6 10.4 2.2 19.5 5.1 30.9 10 4 1.7 7.9 3.1 8.7 3.1 1.5 0 8.4 5.8 8.4 7.1 0 .5-1.3.6-2.8.3-3.9-.8-6.2 1.8-4.2 4.9 5.3 8.3 8.3 13.8 10.1 18.6 3.5 9.3 8.1 24.5 8.1 26.4-.1 1.1.4 1.7 1.1 1.4 6.4-2.3 8.7-3 9.2-2.5.3.3-.6 2.9-2 5.9-3.8 8.3-3.7 8.6 5.2 9.4 7.2.7 7.8.6 9.1-1.4 1.7-2.5 5.5-2.7 18.2-1 7.3 1 8.4.9 9.2-.5 1.2-2.1 4.8-2 16.5.5 8.7 1.9 9.7 1.9 10.5.5 1.2-2.2 1.8-2.1 13.7 1.8 8.2 2.6 10.9 3.1 12.3 2.3 2-1.3 5.3-.3 15.6 4.5 4.9 2.4 6.6 2.7 7.7 1.8s3.2-.1 10.4 4.3c5.2 3.2 9.8 5.3 10.8 5.1 1.1-.3 4.4 1.6 8.7 5.1 3.8 3 7.4 5.5 8.1 5.5 2.3 0 16.9 15.5 22.2 23.7 2.9 4.4 5.3 8.4 5.3 8.8 0 .3-3.7 2.4-8.2 4.5l-8.3 3.9 27.3.1H512V0H0zM460.4 84.6c.9.3 1.6 1.3 1.6 2.1 0 2-3.4 1.2-3.8-1-.4-1.9-.1-2 2.2-1.1m-132 42.4c5.3 3.4 9.5 12.7 6.6 14.5-.5.3-2.5-.6-4.4-2-1.9-1.5-5.6-3.5-8.3-4.5-5.7-2.1-7.1-5.4-3-6.9 1.4-.6 2.8-1.5 3.2-2 .9-1.6 2.6-1.3 5.9.9M500 162c0 .5-.4 1-1 1-.5 0-1-.5-1-1 0-.6.5-1 1-1 .6 0 1 .4 1 1M40.6 181.7c-.4 4.2-1.2 8.6-1.8 9.7-1.1 2-1.1 2-1.8.1-.4-1.1-.2-5.4.5-9.5 1.5-8.9 1.2-8 2.6-8 .9 0 1 2.2.5 7.7m441.9 10.4c.4.6.5 1.2.2 1.5-.7.7-3.7-.7-3.7-1.7 0-1.3 2.7-1.1 3.5.2m7.2 23.5c-.9.9-2.8-.6-2.1-1.8.4-.6 1-.6 1.7.1.6.6.8 1.3.4 1.7M421 232c0 .5-.2 1-.4 1-.3 0-.8-.5-1.1-1-.3-.6-.1-1 .4-1 .6 0 1.1.4 1.1 1m-10.5 16c.3.5.1 1-.4 1-.6 0-1.1-.5-1.1-1 0-.6.2-1 .4-1 .3 0 .8.4 1.1 1M23.6 343.4c-.3 1.9-2.5 4.5-4.9 5.8-1.4.7-1-.2 1.3-3.1 3.7-4.5 3.9-4.7 3.6-2.7"/><path d="M259.2 132c0 1.9.2 2.7.5 1.7.2-.9.2-2.5 0-3.5-.3-.9-.5-.1-.5 1.8M161 224.1c-1.5 2.7-.9 3.2 2.5 1.9 2.3-.9 2.5-1.3 1.5-2.5-1.7-2-2.7-1.9-4 .6m-69.4 56.4c-2 4.8-2.1 4.7.9 3.3 2.6-1.2 3.1-3.2 1.6-5.7-.7-1.1-1.3-.5-2.5 2.4"/></svg>