<svg xmlns="http://www.w3.org/2000/svg" width="682.667" height="512" version="1.0" viewBox="0 0 512 384"><path d="M0 192v192h63.6l8.5-10.2c16-19.3 15-17.6 13.7-24.8-.9-5.4-.8-7.1.7-11.1 1.1-3.3 1.5-6.1 1-8.8-.4-2.5-.2-4.8.6-6.3.7-1.3 1.3-2.9 1.4-3.6 0-.7.6-1.6 1.4-2.1 1.1-.7.8-1.7-1.3-5.3-1.5-2.6-2.6-6-2.6-8.1 0-3.3.4-3.8 4.4-5.5 5.2-2.4 5.4-2.7 7.2-10.5 3.2-13.5 10.4-61.8 10.4-69.4 0-2.4-3.8-4.9-5.3-3.4-1.7 1.7-5.2 1.3-7.8-.8-2.3-1.8-2.3-2-.6-3.8.9-1.1 1.5-2.2 1.2-2.4-.2-.3 1.1-5 3-10.5 4.9-13.9 4.7-16.4-1.4-22-7.3-6.7-13.5-19.5-16.6-34-4-18.7.5-36.4 12.3-48.8 4.2-4.3 19.2-16.7 29.1-24 8.3-6.1 18.5-11 30.3-14.6 5.1-1.6 12.2-4 15.8-5.3 3.6-1.4 9.5-2.8 13.1-3.2s7.1-1 7.8-1.4c.9-.6.8-3.4-.4-11.6-.8-6-1.5-12.4-1.5-14.3v-3.5l2.6 2.4c1.5 1.3 8.5 10.2 15.6 19.6 7.2 9.5 14.9 18.9 17.2 21 6.7 6 12.5 14.2 17.7 24.8 2.7 5.5 5.9 11.3 7.2 12.8 3.9 4.9 18.1 7.2 28.1 4.5 3.8-1 4.8-.9 7 .5 2.4 1.6 2.8 1.6 5.7.1l3.2-1.6-.6 8.8c-.2 4.9-.8 9.7-1.2 10.6-.9 2.2-4.6 2.3-8.6.2-2.8-1.4-3.2-1.4-4.3.2-.8 1-2 1.5-2.9 1.1-.8-.3-2.1.1-2.7.9-.7.8-1.9 1.4-2.6 1.4-.9 0-.4 1.5 1.6 4.6 1.6 2.5 3.2 6 3.6 7.8.3 1.7 1.5 4.4 2.6 5.9l2 2.8-2.4-.6c-2.2-.6-2.3-.3-2.4 4.8 0 3.7-.5 6-1.7 7.1-.9 1-1.7 2.5-1.7 3.4 0 1.5-.2 1.5-1 .2-.7-1.1-1 .4-1 5-.1 5.7-.2 6.3-1.4 4.7-1.3-1.6-1.4-1.6-2.1 1l-.7 2.8-1.2-3.4c-1.7-4.8-3-4.9-5-.4-.9 2.1-2.3 5.1-3.1 6.7-1.3 2.3-1.3 3.9-.4 9.5.6 3.6 1.5 7.1 2 7.6.4.6.7 3.1.6 5.6-.1 3.5.5 5.5 2.6 8.8 1.6 2.4 2.7 4.5 2.4 4.7-.2.2-2.2-1.2-4.4-3.1l-4.1-3.5-3.2 9.7c-6.2 18.8-7.5 19.8-24.2 19.5L216 233v4.9c0 2.7.6 5.3 1.3 5.9.6.5 7.7 2.6 15.7 4.5 8 2 19.4 5.2 25.3 7.2 6 1.9 11.6 3.5 12.6 3.5s3.5 1.5 5.5 3.4l3.8 3.4 5.1-1.6c4-1.2 10.6-1.6 27.9-1.7 22.4-.2 22.9-.1 37 3.1 27.5 6.4 51 17.7 72.8 35 6.3 4.9 18 16.8 25.4 25.6 7.7 9.2 22.1 31.7 22.8 35.5.3 2-.1 2.3-26.2 14.8l-15.4 7.5H512V274.9c0-72.4-.3-108.8-1-108.4-.5.3-1 .1-1-.4 0-.6.5-1.1 1-1.1.7 0 1-28.2 1-82.5V0H0zM242 56c0 .5-.5 1-1.1 1-.5 0-.7-.5-.4-1 .3-.6.8-1 1.1-1 .2 0 .4.4.4 1m231.4 33.6c1.9.7 2.1 3.4.3 3.4-1.4 0-3.7-2-3.7-3.2 0-1 1.3-1 3.4-.2m-156.8 51c4.2 2 7.6 6.6 7.2 9.7-.3 2.1-.7 2.2-9.8 2.2-8.5 0-9.5-.2-9.8-1.9-.5-2.3 1.8-9.8 3.3-10.8 1.7-1.3 5.5-.9 9.1.8M80.9 199.5c0 4.4-.5 8.9-1 10-.9 1.8-.9 1.8-.5-.3.2-1.3-.6-4.1-2-6.5-2.7-4.7-3.2-10.7-1-10.7.8 0 1.7-.8 2-1.7 1.4-3.5 2.6 1 2.5 9.2m413.7-2.1c2.2 1.7 1.1 3.5-1.3 2-1.9-1.2-2.9-3.4-1.6-3.4.5 0 1.8.6 2.9 1.4m13.8 18.5c.3.4.3 1.1 0 1.4-.8.8-3.4-.3-3.4-1.4s2.7-1.2 3.4 0M432 237.1c0 .5-.7.9-1.5.9-1.5 0-2-1.2-.9-2.3.8-.8 2.4.1 2.4 1.4m-3 10.9c0 .5-.4 1-.9 1-.6 0-1.3-.5-1.6-1-.3-.6.1-1 .9-1 .9 0 1.6.4 1.6 1M51 355.9c0 1.9-3.1 5.1-6.7 7-2.7 1.4-5.5 1.4-3.1 0 1-.5 3.1-3 4.8-5.5 3.1-4.4 5-5 5-1.5"/><path d="M267.2 150c0 1.9.2 2.7.5 1.7.2-.9.2-2.5 0-3.5-.3-.9-.5-.1-.5 1.8m-16.1 18.6c0 1.1.3 1.4.6.6.3-.7.2-1.6-.1-1.9-.3-.4-.6.2-.5 1.3"/></svg>