<svg xmlns="http://www.w3.org/2000/svg" width="682.667" height="512" version="1.0" viewBox="0 0 512 384"><path d="M0 192v192h31.3c31.3 0 31.3 0 33.3-2.3 1.1-1.2 4.6-5.6 7.9-9.7 3.2-4.1 7.2-8.9 8.7-10.6l2.9-3.1-1.3-7.1c-1-5.9-1-8 .1-11.5.8-2.3 1.3-6.5 1.2-9.4-.1-2.8.3-5.4.9-5.8.5-.3 1-2.1 1-3.8 0-2.1.7-3.6 2-4.5 1.7-1 2-2.3 2-8.3 0-8.3.9-10.4 4.8-11.2 2.1-.4 3.1-1.3 3.4-3.1.3-1.5 0-2.7-.8-3-1.8-.7-1.8-6.9.1-13.2 1-3.3 2.7-6.1 5-8.1 2.4-2.2 3.5-4 3.5-6 0-1.5.7-10.7 1.5-20.3 1.7-20.3 1.9-30.6.6-31.5-.5-.3-1.2-.1-1.6.5-.6.9-11.2 1.2-12.8.3-.4-.3-.3-1.1.4-1.9.6-.8.9-2.4.5-3.6-.3-1.4.5-4.9 2.1-8.8 1.7-4.4 2.6-8.5 2.7-12.7l.1-6.2-5.7-5.3c-9.3-8.7-16.3-25.7-17.5-42.4-1.2-17.6 2.9-28.8 15.1-40.9 18.9-18.9 40.3-32.7 58.1-37.5 4.4-1.2 10.6-3.3 13.7-4.6s9.8-2.9 14.7-3.6c5-.7 9.1-1.7 9.1-2.3 0-.5-.7-5.5-1.5-11S184 19.7 184 17.6v-3.9l2.6 2.4c1.5 1.3 8.6 10.3 15.9 19.9s16.4 20.8 20.3 24.8c5.3 5.5 8.3 9.8 11.9 17 7.6 15.3 11 20 15.2 21.2 11.5 3.2 14.4 3.4 18.8 1.1 5.3-2.7 6.2-2.6 9.4.3 1.9 1.8 3.3 2.2 5.9 1.8l3.3-.5-.6 9.1c-.3 5-1.1 10-1.7 11.1-1.4 2.6-4.6 2.7-8.8.1s-4.7-2.5-7.1.9c-1.9 2.7-2 3.1-.6 5.7.8 1.6 1.5 3.6 1.5 4.4s.9 3 2 4.8c2.4 3.8 2.5 4.6.6 3.9-1.5-.6-2.6 3.1-2.6 8.3 0 1.6-.7 3-1.5 3.4-.8.3-1.5 1.6-1.5 2.8 0 1.6-.3 1.9-.9 1-1.2-1.9-2.1.8-2.1 6 0 3.5-.2 3.9-1.5 2.8-1.3-1-1.5-.9-1.5.9 0 3.2-1.7 2.5-2.4-1-.8-4.1-2.4-2.8-6 4.5-2.3 4.7-2.6 6.2-2 11.2.4 3.3 1.3 7.4 2.2 9.3 1.1 2.4 1.3 3.8.5 5-1.1 1.7 1.3 7.7 4.5 11.4 2.6 3 .7 2.8-2.9-.3-1.9-1.6-3.9-2.9-4.5-3-.5 0-2.5 4.7-4.3 10.3-1.7 5.7-4.4 12-5.8 14l-2.6 3.7H228c-5.4 0-11.2.3-12.9.6-3 .6-3.1.9-3.1 5.4 0 5.6-1.2 5 18.5 10 6.6 1.7 17 4.6 23.1 6.5 6.2 1.9 12.2 3.5 13.4 3.5s3.7 1.5 5.6 3.4l3.4 3.4 4.8-1.4c15.6-4.8 42.9-5.9 62.7-2.4 38 6.5 75.5 28.7 100.6 59.3 10.7 13 23.9 33 23.9 36.1 0 .7-12 7.2-26.7 14.4L414.5 384H512v-82.9c0-72.8-.2-83-1.5-83.5-1.9-.7-1.9-2.6 0-2.6 1.3 0 1.5-12.6 1.5-107.5V0H0zM245 57c0 .5-.5 1-1.1 1-.5 0-.7-.5-.4-1 .3-.6.8-1 1.1-1 .2 0 .4.4.4 1M65 70c0 .5-.4 1-1 1-.5 0-1-.5-1-1 0-.6.5-1 1-1 .6 0 1 .4 1 1m413.8 22.7c.6 1.9-3.3 1.6-4.9-.3-1.1-1.4-.9-1.5 1.6-1.2 1.6.1 3 .9 3.3 1.5m-163.2 53.8c3.1 1.8 4.4 3.3 4.9 5.6.4 1.7.3 3.5-.1 3.9-.5.4-4.2 1.3-8.3 1.9-6.6 1-7.6 1-9.3-.6-1.5-1.4-1.7-2.5-1.2-6.2.4-2.5 1.1-5.2 1.6-5.9 1.7-2 7.8-1.4 12.4 1.3M91.1 203.9c.1 4.5-.1 8.4-.4 8.7-.9.9-6.7-11.3-6.7-14.1 0-1.8.5-2.5 2-2.5 1.1 0 2.3-.7 2.7-1.6 1.2-3.1 2.2 1 2.4 9.5m406.7-3.2c.5 1.8-2.3 1.6-3.9-.3-1.1-1.4-1-1.5 1.1-1.2 1.3.1 2.5.9 2.8 1.5m-63 37.1c.2.7-.3 1.2-1.2 1.2s-1.6-.7-1.6-1.6c0-1.7 2.2-1.4 2.8.4m-1.3 10.2c.3.5-.1 1-.9 1s-1.8-.5-2.1-1c-.3-.6.1-1 .9-1s1.8.4 2.1 1M57.3 361.5c-.6 1.6-7.3 5.5-9.3 5.5-.7 0 1-2.5 3.6-5.6 4.4-5.1 4.9-5.4 5.6-3.5.4 1.2.5 2.8.1 3.6"/></svg>