<svg xmlns="http://www.w3.org/2000/svg" width="682.667" height="512" version="1.0" viewBox="0 0 512 384"><path d="M0 192v192h58.7l5.1-6.4c2.9-3.5 5.2-6.6 5.2-7s-1.8.3-4 1.4c-5.9 3-6.3 2.5-2.4-2.7 5.2-7 6.3-7.6 8.3-5.2 1.9 2.4 2.9 1.7 5.1-4 1.2-2.9 1.1-3.4-.3-4.2-.8-.5-2.1-3.4-2.8-6.5-1.1-4.8-1-6.2.4-10.2 1.1-3 1.5-6 1.1-8.5-.5-2.8-.2-4.2 1.1-5.7 1.8-2 1.8-2.2.1-5.7-1.7-3.6-1.7-3.6.8-5.7 2.3-1.9 2.6-3 2.8-9.6.3-7 .5-7.6 3-8.8 1.9-.9 3.1-2.5 3.8-5.3.6-2.2 1.3-4.6 1.6-5.3s-.7-1.8-2.2-2.5c-2.5-1.1-2.6-1.4-1.9-5.9 1.2-7.9 2.8-10.5 9.9-15.6 3.7-2.6 7.2-6 7.8-7.4 1.8-4.8 1.2-21.9-1.2-32.2-1.2-5.2-2.6-10.1-3-10.8-.4-.8-3.3-2.4-6.4-3.7-6.8-2.8-7.1-3-6-4.7.5-.7 1-3.1 1-5.3.1-2.2 1-7 1.9-10.6 2.6-9.5 1.7-12.8-5.5-19.8-7.4-7.1-13.3-19.1-16.1-32.5-5.2-25.4 1.2-42 23.1-59.7 22.6-18.3 32.4-23.9 49.6-28.3 5.6-1.5 12.8-3.5 16-4.7 3.3-1.1 8.8-2.3 12.2-2.6q6.45-.6 6.9-2.1c.4-.8.1-4.9-.5-9.1s-1.4-10.5-1.8-14.1l-.7-6.5 6.9 8.2c3.8 4.4 10.7 13.1 15.4 19.3s10.9 13.3 13.9 15.9c7.1 6.1 12.3 13.2 17.4 23.9 2.2 4.8 5.8 11.2 7.8 14.3 3.4 5 4.3 5.7 9.7 7.3l5.9 1.8 6.7-2.6c7.1-2.8 7.8-2.7 11.4 1.5 1.2 1.5 3.5 2.9 5 3.1 2.5.3 2.7.7 3 5.6.5 8.5-3.7 20.2-7.1 20.2-.6 0-2.6-1.2-4.4-2.6-2.2-1.7-3.8-2.3-4.4-1.7-1.3 1.3.6 9.5 2.9 13.1 1.5 2.4 1.5 2.5 0 2-1.7-.7-2.8 1.6-2.8 6.2 0 1.4-.9 4.3-2 6.5s-2 3.3-2 2.5c0-1.3-.2-1.3-1 0-.5.8-1 3.4-1 5.7 0 3.6-.2 4.1-2 3.6-1.5-.4-2 0-2.1 1.3 0 1.5-.3 1.4-1.2-.6-1.5-3.5-1.5-3.4-3.2-2-.8.7-1.5 2.1-1.5 3.2 0 1-.4 1.7-.9 1.4s-1.4.7-2.1 2.3c-1.5 3.7-.4 15.6 1.7 19 1.1 1.7 1.2 2.6.4 3.4-1.8 1.8-1.3 4 2.4 10.1 1.9 3.2 3.5 6.1 3.5 6.3 0 .3-2.2-1.3-4.9-3.6l-4.8-4-1.2 3.8c-1 3.4-.9 4.4.8 7.3 1.1 1.8 2.7 5.3 3.6 7.8 2.1 6 .9 7-5.7 4.6-4.2-1.5-5.2-1.5-5.9-.4-.5.7-.9 1.7-.9 2.1 0 1.6-7 3.7-12.3 3.7-4.1 0-5.8.5-7.2 2-.9 1-3.3 2.4-5.1 3-2.6.9-3.4 1.7-3.4 3.5 0 2 .8 2.7 5.3 4 8.7 2.6 36.7 10.5 45.1 12.6 8.2 2.1 11.2 3.8 14.9 8.5 1.5 1.9 1.8 2.9.9 3.2-1.5.5-4.6 6.2-3.8 7 .4.3 2.3-.2 4.4-1.2 2-1 5-2 6.5-2.3 1.6-.2 4.7-1.1 7-1.9 6.9-2.4 28.1-5.4 38.7-5.4 20.9 0 48 6.6 68 16.5 9.3 4.6 29 17.2 32 20.4.8.9 4.3 4 7.8 7 3.4 3 9.7 9.5 13.9 14.5s8.7 10.2 10 11.5 2.3 2.7 2.3 3.1 2.9 5.1 6.5 10.6c3.6 5.4 6.5 10.4 6.5 11s-13.2 7.6-29.2 15.7l-29.3 14.6h52.3l52.2.1V0H0zM251 59c0 .5-.7 1-1.6 1-.8 0-1.2-.5-.9-1 .3-.6 1-1 1.6-1 .5 0 .9.4.9 1M70.8 73.8c.2.7-.3 1.2-1.2 1.2s-1.6-.7-1.6-1.6c0-1.7 2.2-1.4 2.8.4M484.1 93c.5 0 .9.7.9 1.6 0 2.3-4.4 1.4-4.8-1-.3-1.4 0-1.7 1.3-1.2.9.3 2.1.6 2.6.6m-173.5 61.6c3.6 1.7 6.4 4.9 6.4 7.1 0 .7-2.9 2.8-6.5 4.5-6.4 3.2-6.4 3.2-8.6 1.2-2.6-2.3-6.2-10.2-5.3-11.6 1.8-2.9 9.1-3.5 14-1.2M46 159c0 1-3.1 2.3-3.8 1.5-.8-.7 1.9-3.5 2.9-2.9.5.3.9.9.9 1.4m455 45.5c1 1.2 1 1.5-.3 1.5-2.3 0-4.7-1.1-4.7-2.1 0-1.5 3.7-1 5 .6m-60.9 34.8c-.1 1.2-1.5.9-1.9-.4-.3-.6.1-1 .8-.8.6.3 1.1.8 1.1 1.2m1.4 9.7c.3.5-.1 1-.9 1s-1.8-.5-2.1-1c-.3-.6.1-1 .9-1s1.8.4 2.1 1"/><path d="M243 374.4c-.5 1.3-1.2 4-1.5 6-.6 3.2-.5 3.6 1.4 3.6s2.1-.6 2.1-6c0-6.4-.5-7.4-2-3.6"/></svg>