<svg xmlns="http://www.w3.org/2000/svg" width="682.667" height="512" version="1.0" viewBox="0 0 512 384"><path d="M0 88.5C0 176.3 0 177 2 177c2.6 0 2.6 2.7 0 3.5-2 .6-2 1.5-2 102.1V384h52.6l4.9-6.7c7.7-10.5 10.5-20.8 6.5-24.1-1.1-1-2.5-3.8-3.2-6.4-1-4-.9-5.2.6-8.6 1.2-2.7 1.6-5 1.1-7.1-.5-2.6-.3-3.6 1.6-5.2 1.8-1.6 2-2.3 1.2-4.2-.6-1.2-1.6-4.2-2.3-6.6-1.1-4.3-.5-6 2.3-6.1.4 0 .7-2.9.7-6.5 0-5.6.3-6.9 2.3-8.8 2.4-2.2 8.1-19.3 7.1-20.9-.3-.5-1.6-.8-3-.8-2 0-2.4-.5-2.4-2.8 0-6.9 1.9-10.1 8.9-15.2l6.8-5 1.9-8.6c2-9.6 1.4-16.9-2.7-34.7-1.8-7.7-2.3-8.7-4-8.2-2.1.7-10.9-2.9-10.9-4.4 0-.5.5-1.3 1-1.6.6-.4.8-2.1.4-4-.4-2.2 0-5 1.2-8 .9-2.5 1.8-7.5 1.8-11l.1-6.3-5.6-5.9c-8.1-8.5-12.5-17.8-15.4-33.3-2.7-13.7-1.2-27.3 4.2-37.3 3.7-7 14.5-17.4 29.2-28.5 14.2-10.7 25.3-16.4 37.7-19.3 4.9-1.1 13.4-3.1 18.9-4.4s11.7-2.6 13.7-3c2.1-.3 4-1 4.3-1.5.4-.6 0-4.3-.9-8.3-1.9-9.3-2.7-17.7-1.7-17.7.8 0 12.3 13.7 22.9 27.1 2.8 3.7 7.8 8.6 10.9 10.9 7.7 5.6 14.7 14.6 19.5 25 6.5 13.9 7 14.9 10.2 18.5 2.1 2.3 4.8 3.9 8.5 5 7.1 2 8.8 1.9 15-.7l5.2-2.1 3.7 3.6c2.2 2.1 4.8 3.7 6.1 3.7 2.2 0 2.3.2 1.7 4.9-1.1 8.5-5.3 19.1-7.6 19.1-.4 0-2.7-1.3-5.1-3-3.8-2.5-4.6-2.7-5.8-1.5-1 1-1.1 1.8-.4 2.7 1.6 2 4.3 12.2 3.4 12.8-.4.3-1.1 2.6-1.4 5.3-.7 4.6-4.6 13.7-4.7 10.7-.1-3.3-2 1.5-2 5.2 0 4.2-.6 4.6-2.7 2-1.3-1.6-1.4-1.5-1 .5.3 1.3.1 2.6-.4 2.9s-.9.2-.9-.3c0-.4-.5-1.5-1-2.3-.8-1.3-1.1-1.2-2.4.5-.9 1.1-1.6 2.9-1.6 4 0 1.5-.2 1.7-.9.6-.6-1-1.2-.6-2.4 1.7-1.5 3.1-1.3 5 1.4 17 .5 2.6.6 5 0 6-1 1.7.5 5.7 4.7 12.5 2 3.2 2 3.7.5 2.8-1-.5-3.1-2.3-4.7-4-6.1-6.4-6.2-2.9-.1 6.1 4.3 6.5 6.5 11.8 4.9 11.8-.5 0-3.8-.9-7.4-2s-6.6-2-6.7-2c-.2 0-1.2 1.8-2.3 4-2.4 4.7-3.8 5.5-10.9 6.4-3 .4-6.6 1.4-8 2.2-1.5.8-4.4 1.8-6.6 2.2-2.9.6-4.1 1.3-4.3 2.7-.5 3.9 2.1 5.4 15.8 9 7.4 2 19.1 5.4 26 7.6 6.9 2.1 13.6 3.9 14.8 3.9 1.4 0 4.3 1.9 7 4.4l4.7 4.5-2.3 2.3c-2.6 2.9-2.8 6.8-.5 9.7l1.8 2.2 8-2.9c16.9-6.1 26.9-7.7 50-7.6 21.9 0 29.7 1 47 6.3 33 10.2 64.9 32.3 86.6 60.2 6.7 8.5 20.9 31.3 20.9 33.4 0 .6-11.1 6.6-24.7 13.3l-24.8 12 47.8.1 47.7.1V0H0zm255.2-26.3c-.7.7-1.2.8-1.2.2 0-1.4 1.2-2.6 1.9-1.9.2.3-.1 1.1-.7 1.7m236.7 33.2c.8 1 .9 1.6.2 2.1-1.4.8-5.3-1.3-4.6-2.6.9-1.3 3.1-1.1 4.4.5m-179.1 66.8c2.8 2.7 2.8 3.2-.5 6.3-3.9 3.5-7.1 3.1-13.7-1.6-5.1-3.7-5.6-4.3-4.3-5.6 3.6-3.6 14.2-3.1 18.5.9M51 166c-1.5 1-4 1.3-4 .6 0-.3.7-1.2 1.6-2.1 1.2-1.2 2-1.3 2.8-.5s.7 1.3-.4 2m452.4 41.6c1.9.7 2.1 3.4.3 3.4-1.4 0-3.7-2-3.7-3.2 0-1 1.3-1 3.4-.2M446.5 241c.3.5-.3 1-1.5 1s-1.8-.5-1.5-1c.3-.6 1-1 1.5-1s1.2.4 1.5 1m3.5 9c0 .5-.9 1-2 1s-2-.5-2-1c0-.6.9-1 2-1s2 .4 2 1"/><path d="M227 370.2c-.6 2.4-1.8 6.3-2.5 8.7-.8 2.5-1.5 4.6-1.5 4.8s3 .3 6.6.3h6.6l-.8-7.7c-.7-7.9-1.9-10.2-5.6-10.3-1.2 0-2.1 1.3-2.8 4.2"/></svg>