<svg xmlns="http://www.w3.org/2000/svg" width="682.667" height="512" version="1.0" viewBox="0 0 512 384"><path d="M0 192v192h39l1.1-2.6c.5-1.5 2.1-7.4 3.6-13.2 2.4-9.5 2.5-10.6 1-11.7-.8-.6-2.3-2.9-3.2-5.1-1.4-3.6-1.4-4.3-.1-6.9.9-1.6 1.3-4 .9-5.3-.4-1.8.2-3 2.9-5.5 2.8-2.6 3.7-4.3 4.2-8.3.6-4.3.4-5.7-1.8-9.9-3-5.6-3.1-5.9-1.1-5.2 1.4.6 2.1-1.5 2.7-8.8.2-2.2.9-3.1 2.8-3.5 3.8-.9 4.2-4.8.9-9-1.5-1.9-3.1-4.8-3.5-6.3-.6-2.5-.1-3.4 4.4-7.5 5-4.7 5-4.7 4.5-9.8-.3-2.9 0-6 .6-7.2s1.5-12.5 2.1-26.3q1.5-33.15 3.6-40.2c.5-1.4-.1-1.7-4-1.7-2.4 0-5.1-.3-6-.6-2-.8-2.1-3-.2-3.7.8-.3 1.8-2.3 2.2-4.4.3-2.1 1.7-6.3 3-9.5 1.3-3.1 2.6-7.4 3-9.6.6-3.8.3-4.4-4-9-8.8-9.4-14.6-26.8-14.6-43.9 0-16.9 5.5-29.4 17.6-39.6 14.7-12.5 35.5-25.1 47.9-29.1 4.6-1.5 19.7-4.3 35.5-6.6 11.3-1.7 11.2-1.6 10.5-5.3-1-5.4-2.1-20.7-1.5-20.7.8 0 8 8.7 17.4 21.2 4.8 6.5 9.7 12 10.8 12.4 3.5 1.1 13.5 12 17.8 19.4 2.3 3.9 5.3 10.4 6.6 14.3 4.7 13.9 7.8 16.5 22.3 19.3 6 1.2 8.6 1.2 12.4.3 4.4-1 5-1 7.2 1.1 1.9 1.8 2.7 2 4.5 1 1.2-.6 2.4-.9 2.7-.7.8.8-4.9 16.1-6.8 18.1-1.5 1.6-2.2 1.7-4.6.8-5.9-2.3-8.8-2.4-10.7-.3-1.6 1.8-1.6 2.3 1.2 10.5 2 5.9 2.5 8.6 1.7 8.6-1.4 0-2.5 3.1-2.5 7.2 0 1.5-.7 3.1-1.7 3.6-.9.5-1.4 1.6-1.1 2.3.3.8 0 2-.8 2.6-1 1-1.3.9-1.7-.5-.2-.9-.7.7-1.2 3.6-.6 4.4-1 5-2.2 4-1.1-.9-1.5-.7-2 1-.3 1.2-.9 2-1.3 1.7-.5-.3-.6-1.4-.3-2.5.8-3.1-1.3-2.4-3.6 1.2-1.1 1.8-2.1 2.8-2.1 2.3 0-.6-.9.5-2.1 2.4-1.4 2.3-1.8 4.2-1.4 6.1.3 1.6.6 4.8.7 7.2 0 2.4.5 4.9 1.1 5.6.7.9.6 1.9-.2 3.5-1.3 2.5.2 8.1 4.1 14.6 2.1 3.6 2 3.5-2.9-1.2l-4.9-4.7-2.2 5.2c-1.2 3-2.2 6.1-2.2 7.1 0 .9-.4 1.7-.8 1.7-.5 0-1.9 2.3-3.3 5.1-1.4 3.1-3.3 5.5-4.7 6-2.9 1.1-14.2 1.1-19.9 0l-4.3-.8v5.3c0 3.2.6 5.8 1.4 6.7 1.4 1.4 40.3 12.8 52 15.3 4.8 1 6.7 2 10.4 5.8 4.4 4.3 4.5 4.6 2.9 6.4-2.5 2.7-2.2 9.4.7 15 2.4 4.8 6 15.7 8 24.7l1.2 5 4.7-.3c4.2-.3 4.7-.2 4.7 1.8 0 1.1-.7 3.4-1.5 5.1-.9 1.6-1.3 3.4-1 3.8.3.5-.1 1.2-.7 1.5-.7.4-.2.4 1.2.1 1.4-.2 4.7-.5 7.4-.5 4.3 0 4.8-.2 4.3-2-.5-1.9 0-2 12.8-2 12.7 0 13.3-.1 13.8-2.1.6-2.1 1-2.2 8.4-1.5 4.3.4 10 1.2 12.7 1.8 4.2.9 5 .8 5.8-.6 1.2-2.2 6.7-2.1 17.4.4 8 1.9 8.8 1.9 10.5.4s2.5-1.3 12.5 2.1c7.5 2.5 11 3.3 11.7 2.6 1.8-1.8 4-1.3 13.4 3.3 6.1 3 9.5 4.1 10.4 3.5 2-1.3 1.7-1.4 11.2 4.6 5 3.1 9.4 5.2 10.2 4.9 1.4-.6 6.5 3 12.9 8.8 1.1 1 2.9 2.1 4 2.4 5 1.5 19.7 18.6 25.3 29.3 1.8 3.3 1.8 3.4-.6 5-1.4.9-6.3 3.3-11 5.3l-8.6 3.7 35.3.1H512v-82.4c0-81.5 0-82.4-2-82.9-2.6-.7-2.6-2.7 0-2.7 2 0 2-.7 2-108V0H0zM267 65.9c0 1.2-2 2.5-2.7 1.8s.6-2.7 1.8-2.7c.5 0 .9.4.9.9m240.8 31.3c.7.7 1.2 1.6 1.2 2 0 1.3-3.7.9-4.9-.5-2-2.4 1.4-3.8 3.7-1.5m-191.3 69.6c4.7.8 4.8.9 2.5 1.9-3.7 1.5-23.2 2.6-20.2 1.1 1.2-.6 2.2-2 2.2-3 0-1.8.5-1.9 5.3-1.4 2.8.2 7.5.9 10.2 1.4M24 178.9c0 1.3-5 5.1-6.6 5.1-2.2 0-1.6-2.7.8-4.4 2.5-1.8 5.8-2.1 5.8-.7m436.3 64.8c-.7.2-1.9.2-2.5 0-.7-.3-.2-.5 1.2-.5s1.9.2 1.3.5m5 8.8c.1.5-.6 1.1-1.5 1.3-1.1.2-1.8-.3-1.8-1.3 0-1.7 3-1.8 3.3 0M306 292c0 .5-.5 1-1.1 1-.5 0-.7-.5-.4-1 .3-.6.8-1 1.1-1 .2 0 .4.4.4 1"/></svg>