<svg xmlns="http://www.w3.org/2000/svg" width="682.667" height="512" version="1.0" viewBox="0 0 512 384"><path d="M0 192v192h34.7l1.8-5.8c.9-3.1 2.6-8.5 3.7-12l2-6.2-2.6-3.1c-3.2-3.8-4.1-7.1-2.7-9.7.6-1.1.8-3.4.5-5-.5-2.6-.2-3.2 2.2-4.3 6.1-2.9 8.6-15.8 4.5-22.5-1.7-2.8-1.7-3.1-.3-3s1.7-.9 1.7-5.3c0-5.3.1-5.5 3.2-6.3 3.2-.8 4.7-3.8 2-3.8-2.2 0-8.7-6.1-10.7-10.1-2.9-5.6-2.6-7.4 2.2-10.6 5.7-3.9 7.9-7.2 8.4-12.9.7-7.2 4.8-33.7 7.9-50.9 1.5-8.3 3-16.1 3.2-17.5.4-2.4.2-2.5-3.5-2.5-2.2 0-4.7-.7-5.6-1.4-1.5-1.3-1.5-1.6.4-3.6 1.1-1.2 2-2.8 2-3.7s1.6-5.7 3.5-10.7c1.9-4.9 3.5-9.8 3.5-10.8s-1.9-3.8-4.1-6.3c-8.6-9.5-13.6-23.6-14.6-41-1.2-22.7 5.7-35.1 28.9-51.2 21.2-14.9 31.5-19.8 47.3-22.7 16.4-3 32.3-5.2 34.6-4.7l2.6.5-.8-5.2c-1-7.4-1.7-20.7-1-20.7.8 0 10.9 12.9 18.9 24.1 3.4 4.8 7.4 9.4 8.9 10.4 9.2 6 19.4 20.9 23.4 33.8.9 3.1 2.9 7.7 4.3 10.1 2.3 3.9 3.4 4.7 9.3 6.7 5.1 1.7 9.1 2.3 15.9 2.4 6.2 0 9.6.5 10.8 1.4 1 .8 2.7 1.1 4.6.7 3.8-.7 3.8.3.2 10.4-3 8.4-2 7.9-13.4 6.4-3.7-.5-5.1-.2-6.4 1-1.5 1.5-1.5 1.9.2 5.4.9 2 2.1 5.3 2.4 7.2.4 1.9 1.1 4.3 1.5 5.3q.75 1.8-.6 1.5c-.8-.2-1.5 1.2-2 4.2-.8 5.6-4.8 12.7-6 10.8-.6-.8-.9.2-.9 2.8 0 4.7-.7 5.9-2.7 4.3-1-.9-1.3-.8-1.3.5 0 .9-.4 1.6-1 1.6-.5 0-1-.7-1-1.5s-.4-1.5-.8-1.5c-1.5 0-4.2 3.6-4.2 5.4 0 .9-.4 1.5-.9 1.2-.4-.3-1.6.3-2.5 1.3-1.5 1.7-1.6 2.8-.7 9.7.6 4.2 1.6 8.2 2.1 8.9.6.7.4 1.9-.5 3.2-1.3 1.8-1.3 2.6-.1 6.1.8 2.2 2.2 5.4 3 7.1 2.2 4.1.8 3.9-3.4-.4-1.8-1.9-3.6-3.2-4-3-.4.3-1.8 3.3-3 6.7-3.5 9.5-8.4 16.5-12.1 17.3-3 .7-17.6-.1-21.3-1.2-1.7-.5-1.8-.1-1.2 4.8.4 3 1.3 5.9 1.9 6.5 2.2 2.1 45.1 14.4 50.2 14.4 6.5 0 16.3 8.1 15 12.4-2.8 9.2-2.8 9.1.4 15.9 1.7 3.6 4.4 11.6 6 17.9l2.8 11.3 4.2-.3c5.1-.5 6.1 1.4 3.6 6.6-2.4 5.1-4.5 13-4.5 17.4 0 3 .8 4.6 3.8 7.8 3.2 3.3 4.6 4 7.6 4 3.4 0 3.6-.1 2.6-2.1-.7-1.1-.9-2.4-.5-2.7.4-.4 6.7-.6 14.1-.4 13 .3 13.4.3 13.4-1.8 0-1.1.7-2.3 1.5-2.6 1.4-.6 19.6 1.1 24.3 2.3 1.5.4 2.2.1 2.2-1 0-3.4 2.4-3.8 11.6-2.2 4.9.9 10.3 1.9 11.9 2.2 2.1.3 3.5 0 4.4-1.1 1.9-2.2 5.5-2 15.5.9 8.1 2.4 8.8 2.4 11.1.9 2.4-1.6 3-1.5 12.7 2.2 7 2.6 10.3 3.4 10.6 2.6.6-2 3.4-1.3 12 3.2 4.5 2.4 8.5 4 8.8 3.5 1.1-1.8 3.7-.8 10 3.7 3.8 2.7 7.1 4.4 8 4s3 1 5.8 3.8c2.4 2.5 5.8 5.3 7.6 6.3 2.9 1.7 13 14.5 13 16.6 0 .4-2.4 1.8-5.2 3.1l-5.3 2.4 30.3.1 30.2.1v-81.9c0-64.6-.3-82.1-1.2-82.5-1-.5-1-.7-.1-1.2 1-.4 1.3-13.2 1.3-58.7 0-57.1 0-58.2-2-59.5-2.6-1.6-2.6-3.6 0-2.9 2 .5 2 0 2-48.4V0H0zM104.5 37c.3.5-.1 1-.9 1-.9 0-1.6-.5-1.6-1 0-.6.4-1 .9-1 .6 0 1.3.4 1.6 1M269 68c0 .5-.7 1-1.5 1s-1.5-.5-1.5-1c0-.6.7-1 1.5-1s1.5.4 1.5 1m46.5 96.9c2.2 1 4.6 1.6 5.3 1.4.6-.3 1.2-.1 1.2.4 0 1.1-16.8 6.3-20.4 6.3-3.2 0-4.2-1.7-1.5-2.5 1.6-.5 1.9-1.2 1.5-3.1-.5-1.9-.2-2.6 1.6-3.4 3.6-1.4 8-1.1 12.3.9M28 179.7c-.1 2.6-5.6 6.1-7.2 4.5-.6-.6-.2-1.7 1.3-3.1 2.2-2 5.9-2.9 5.9-1.4M464.5 244c-.3.5-1 1-1.6 1-.5 0-.9-.5-.9-1 0-.6.7-1 1.6-1 .8 0 1.2.4.9 1m5.5 9c0 .5-.9 1-2 1s-2-.5-2-1c0-.6.9-1 2-1s2 .4 2 1m-162 41.5c0 .8-.7 1.5-1.5 1.5-1.6 0-2-1.2-.8-2.3 1.1-1.2 2.3-.8 2.3.8"/><path d="M208 370.4c0 .2.8 1 1.8 1.7 1.5 1.3 1.6 1.2.3-.4s-2.1-2.1-2.1-1.3"/></svg>