<svg xmlns="http://www.w3.org/2000/svg" width="682.667" height="512" version="1.0" viewBox="0 0 512 384"><path d="M0 192v192h26.8l1.5-3.8c.8-2 2.2-6.3 3.1-9.5l1.7-5.9-2.6-3.4c-2.3-3-2.5-3.9-1.6-6.5.9-2.5.8-3.4-.5-4.7-1.5-1.4-1.5-1.7.2-2.9 1-.7 2.3-1.3 3-1.3 2 0 6.3-6.5 7.3-11.1 1.5-6.5 1.3-12.5-.4-13.9s-2.1-3.5-.5-2.5c.7.4 1-1.2.8-4.7l-.3-5.3h3.7c3.4 0 3.7-.3 4.3-3.5 1.4-7.5 5.7-18.8 9.5-25.4l4-6.8-2.7.6c-1.6.4-3.6.8-4.5.9s-1.6.4-1.5.7c.4 1.5-8 16.4-11.2 19.9-6.6 7.2-12.8 4.6-16.2-6.7-1.4-4.7-.1-9.2 2.5-9.2 3.7 0 6.7-2.6 9.1-7.8 1.4-3 2.5-6.1 2.5-7 0-.8.7-2.3 1.5-3.2 2.6-2.9 14.8-38 19.3-55.7l1.8-7.1-2.9 1.5c-3.5 1.8-9.7 1-9.7-1.3 0-.8.7-1.7 1.5-2 .8-.4 1.5-1.7 1.5-3 0-1.4 1.1-4.6 2.4-7.2 3.3-6.5 5.9-15.7 5.1-18.2-.4-1.1-2.5-4.2-4.7-6.8-12.9-14.8-16.5-45.9-7.6-64.2 1.8-3.8 5.5-8.8 8.7-12.1 6.7-6.7 28.7-21.4 40.2-26.9 8.5-4 21.9-8 27-8 1.5 0 7.3-.9 12.9-2s12.9-2 16.2-2h6.1l-.7-10.8c-.4-5.9-.3-11.7.1-13 .8-2.1 1.2-1.9 5.5 4 2.5 3.5 8 11.7 12.3 18.3 4.2 6.6 10.3 14.6 13.4 17.7 6 6 12.6 17.2 15.6 26.8 2.6 8.1 6.3 14.6 9.3 15.9 1.4.7 6 2 10.2 3.1 6.3 1.4 8.5 1.6 11.8.7 3.5-.9 4.4-.8 6.1.7 1.2 1.1 3.1 1.7 5.3 1.4 3.3-.3 3.3-.3 3.1 3.7-.4 5.1-3 13-4.9 14.6-1.3 1-2.3.9-5.9-1.1-3.9-2.2-4.5-2.2-7.6-.9-1.9.7-3.8 1.3-4.3 1.1s-.5.5-.1 1.5c.7 1.6 6.4 17.5 6.5 18 0 .1-.6 0-1.4-.3-.9-.4-1.5.7-2 3.6-.8 4.9-6.1 14.8-6.9 12.8-.3-.7-.6.3-.6 2.3-.1 4.4-1 5.4-2.8 3.1-.7-.9-1.3-1.3-1.2-.7.1.5 0 1.9-.1 3-.1 1.5-.5 1.1-1.4-1.4l-1.2-3.4-2.2 2.8c-1.2 1.5-2.2 3.4-2.2 4.1 0 .8-.6 1.4-1.3 1.4-2.8 0-3.6 3.5-2.6 11.1.6 4.1 1.4 7.8 1.9 8.3s.2 1.9-.7 3.3c-1.4 2.1-1.4 2.7.2 7.1 1 2.6 2.5 5.7 3.3 6.9 2.1 3.3.6 2.8-3.4-1.2-1.9-1.9-3.8-3.5-4.2-3.5-.7 0-5.6 10.4-5.7 12 0 .3-1.5 2.9-3.2 5.7-3.9 6.4-5.2 6.8-18.9 6L166 230v4.4c0 2.8.6 4.8 1.7 5.8 3.4 3 37 12.3 48.6 13.4 7.1.8 11.3 3.3 15.4 9.5 1.8 2.8 2.3 4.2 1.5 5.1-.5.7-1.5 3.1-2.1 5.3-.9 3.4-.7 4.6 1.2 8.7 2.2 4.8 2.2 4.8 6.2 4.2 2.2-.3 4.6-1.3 5.3-2.2 1-1.3 3.8-1.8 12.4-2.3 8.3-.5 11.3-1 11.9-2.2.7-1.3 3.9-1.4 20.6-1.2 10.9.1 22 .8 24.7 1.4 3.9.9 5.1.9 5.7 0 .6-1 3.1-.6 10.6 1.6 5.4 1.5 10.6 3.2 11.7 3.8 1.1.5 2.2.5 2.8-.1 1.2-1.2 5.5.1 15.5 4.9 3.7 1.8 7.8 3.1 9 3.1 1.3-.1 6.3 2.3 11.3 5.3s9.9 5.5 10.8 5.5c1 0 4.3 2.1 7.3 4.7 3 2.5 7.9 6.2 10.9 8.1 7.1 4.6 19.4 17.3 27.5 28.4 8.7 11.9 17.1 27.6 15.9 29.6-.5.8-5.2 3.2-10.4 5.3l-9.5 3.8h39.8l39.7.1V0H0zM483 3c0 1.1-.7 2-1.5 2-1.5 0-2.1-2.1-.8-3.3C481.9.4 483 1 483 3M274 71c0 .5-.7 1-1.5 1s-1.5-.5-1.5-1c0-.6.7-1 1.5-1s1.5.4 1.5 1m46.4 90c3.2.5 6.1 1.2 6.5 1.6 1 1-6.9 7.3-12.4 10-7.7 3.7-14.1 2.9-11.4-1.4 1.1-1.8 1-2.4-.4-4-1.6-1.8-1.6-2 .1-3.5 4-3.6 8.1-4.3 17.6-2.7M36 183.5c0 .8-1.1 2.2-2.5 3.1-3.8 2.5-6.4-.4-2.7-3.2 2.3-1.8 5.2-1.7 5.2.1M472.5 244c.3.5-.1 1-.9 1-.9 0-1.6-.5-1.6-1 0-.6.4-1 .9-1 .6 0 1.3.4 1.6 1m5 10.5c0 .5-1 1.1-2.2 1.3-1.6.2-2.3-.2-2.3-1.3s.7-1.5 2.3-1.3c1.2.2 2.2.7 2.2 1.3"/><path d="M121 237c-2.6 2.6-2.2 3.3 1.4 2.4 2.8-.7 3-1.1 1.7-3.3-.7-1.1-1.3-.9-3.1.9m-60 18.7c0 2.6 1.1 3.5 3 2.3 1.2-.7 1.2-1.2.2-2.2-.6-.6-1.2-.8-1.2-.3 0 .6-.5.3-1-.5-.8-1.2-1-1.1-1 .7M203.7 372c-.3.8-.9 3.9-1.5 6.7-.7 4.1-.6 5.3.4 5.3.8 0 1.5-2 1.9-5.4.7-5.6.2-9.5-.8-6.6"/></svg>