<svg xmlns="http://www.w3.org/2000/svg" width="682.667" height="512" version="1.0" viewBox="0 0 512 384"><path d="M0 192v192h23.8l1-2.8c1.6-4.2 4.2-12.5 4.2-13.3 0-.4-1.1-2.1-2.5-3.7-2.2-2.7-2.4-3.3-1.3-5.7.9-1.9.9-2.8.1-3.3-2.3-1.4-1.7-3.2 1.6-4.9 1.9-1 4.8-3.7 6.5-6.1 2.6-3.7 3.1-5.4 3.4-11.8.4-6.2.1-7.9-1.4-9.6-1.1-1.2-1.3-1.8-.6-1.4 1 .6 1.3-.3 1-4.1l-.3-4.8 3.9-.1h3.9l2.2-8.5c2.7-10.2 4.4-14.2 9.1-21.5 2-3.1 3.4-5.8 3.1-6-.2-.3-1.7 0-3.2.6-1.6.6-3.4.9-4.1.6s-2.7 2.3-4.8 6.4c-4.5 8.5-9.9 15.1-13.7 16.8-2.5 1-3.3 1-5.3-.3-3.3-2.2-5.6-7.4-5.6-12.9 0-4.2.3-4.8 2.8-5.6 5.6-2.1 6.9-3.3 9.5-8.6 1.5-3 2.7-6.1 2.7-6.8s.6-1.9 1.4-2.5c1.8-1.5 5.3-8.9 10.6-22.5 4.1-10.5 12-35 12-37.2 0-.8-1.1-.8-3.9.2-3 1-4.7 1.1-7 .3l-3.1-1.1 2-2.5c1.1-1.4 2-3.4 2-4.5 0-1 1-3.8 2.1-6 2.6-5.2 5.9-14.5 5.9-16.9 0-.9-1.8-3.6-3.9-5.9-13.7-14.7-18.1-46.7-9.1-65.5 5.2-10.7 11-16.2 30.4-28.4 20-12.7 28.7-16 51.6-19.7 5.8-1 13.9-1.9 18-2.1s8.6-.6 9.9-.9l2.4-.5-.6-12.9c-.3-7.2-.2-13.2.2-13.5.9-.5 4.9 5.3 18.5 26.5 4.8 7.4 11 16.2 13.7 19.5C193.8 76.1 202 91 202 94c0 .7 1.4 4.4 3.1 8.1 2.9 6.2 3.5 6.9 8.3 9 3.9 1.8 7.1 2.3 14.1 2.4 6.8.1 9.8.6 11.8 1.9 1.8 1.2 3.5 1.6 5.7 1.1 1.8-.4 3-.3 3 .4 0 1.5-2.8 14.4-3.5 16.3-1 2.5-5.6 2.3-8.9-.3-2.3-1.8-3.2-2-5.2-1-1.3.6-2.4 1.5-2.4 2.1 0 .7-.8.9-2 .5-1.9-.6-1.8-.4.5 4.7 1.4 2.9 2.5 6.2 2.5 7.4 0 1.1.7 2.9 1.5 4 2.1 2.7 1.8 4-.4 2-1.7-1.6-1.8-1.4-2.4 3.5-.4 2.9-1.3 5.9-2 6.8-.8.9-1.7 2.4-2 3.4-.4.9-1.2 1.6-1.9 1.5-.9-.2-1.4 1.2-1.6 3.9-.3 4.1-2.1 6.2-2.3 2.5 0-1.2-.3-1-1.1.8l-1 2.5-1.2-2.8-1.2-2.7-2.2 2.9c-1.2 1.7-2.2 3.4-2.2 3.8 0 .5-.9 1.4-2.1 2.1-1.9 1.2-2 1.9-1.4 9 .4 4.2 1.2 8.3 1.7 8.9.7.9.5 2-.5 3.7-1.8 2.7-1.3 5.5 2.2 12.4 2.2 4.3 2.2 4.3.2 3.2-1.2-.6-3.1-2.4-4.3-4-2-2.7-2.2-2.8-3.3-1.2-.7.9-2 3.9-3 6.7-2.8 7.3-8.4 15.4-11.3 16.2-2.5.6-14.5-.2-19.5-1.3l-2.8-.7.3 5.4c.3 5.3.4 5.4 4.8 7.6 6 3 33.6 9.9 43 10.8l7.5.7 5.8 5.9c4.5 4.6 6.2 5.7 7.5 5 3.2-1.6 20.7-6.2 27.7-7.3 3.8-.6 14-1.2 22.5-1.5 18.1-.5 32.9 1.3 48.2 5.8 5.3 1.6 10.2 2.9 10.9 2.9 2.5 0 25.3 11.4 34.9 17.4 8.5 5.3 25.1 18.4 30.5 24.1 7.4 7.7 15.2 17.3 20.8 25.7 7 10.2 17.7 30.6 17.7 33.5 0 1.4-3.7 3.3-15.3 8l-15.2 6.2 47.8.1H512V0H0zM485 6c0 1.1-.7 2-1.5 2-1.5 0-2.1-2.1-.8-3.3C483.9 3.4 485 4 485 6M276 72.5c0 .8-.4 1.5-.9 1.5-1.3 0-2.2-1.6-1.4-2.4 1.1-1.1 2.3-.6 2.3.9m52.5 86.4c1 1.7-7.9 11.5-12.5 13.8-4.2 2.2-10 3-11.3 1.7-.3-.4-.2-1.5.4-2.6.9-1.6.7-2.3-1-3.5-1.2-.8-2.1-1.9-2.1-2.5 0-1.4 4.7-5.1 8.4-6.5s17.2-1.7 18.1-.4M40 185c0 2.2-3.4 4.4-5.6 3.6-1.9-.7-.7-3.5 2-4.6 3.2-1.3 3.6-1.2 3.6 1m440.8 70.2c-.3.7-1.1 1.3-1.8 1.3s-1.5-.6-1.7-1.3c-.3-.7.4-1.2 1.7-1.2s2 .5 1.8 1.2"/><path d="M220.1 159.6c0 1.1.3 1.4.6.6.3-.7.2-1.6-.1-1.9-.3-.4-.6.2-.5 1.3m-101.6 80.9c-.3.8-.7 2.2-.9 2.9-.3 1 0 1.3 1 1 .7-.2 2.1-.6 2.9-.9 1.3-.4 1.4-.9.5-2.5-1.3-2.4-2.9-2.6-3.5-.5M59 260.3c0 .8.3 1.6.6 2 .8.8 3.4-.3 3.4-1.5 0-.6-.7-.7-1.6-.4-.8.3-1.2.2-.9-.4s.1-1-.4-1c-.6 0-1.1.6-1.1 1.3m140.7 121.6c-.4 1.7-.3 2.1.5 1.3.5-.5.8-1.6.6-2.3-.3-.8-.7-.3-1.1 1"/></svg>