<svg xmlns="http://www.w3.org/2000/svg" width="682.667" height="512" version="1.0" viewBox="0 0 512 384"><path d="M0 192v192h21.5l2.3-6.9c2.8-8.5 2.8-8.5-.5-12.8-2.3-2.9-2.5-3.9-1.7-6.2.8-1.9.7-3.2 0-4.5-.9-1.4-.8-2 .4-2.4 2.4-.8 8.2-7.4 9.7-11 1.5-3.7 1.6-19.8.1-24.1-1.2-3.3.8-5.4 4.4-4.7 2.4.5 2.9.2 3.4-2.2 2.1-9.3 5.1-17.8 9-25.1 2.4-4.6 4.4-8.5 4.4-8.7s-.7-.4-1.5-.4-2.4 1.9-3.6 4.3c-3.1 6.1-10.7 16.5-12.9 17.7-2.5 1.3-6.1 1.2-8.1-.3-2.7-2.1-4.9-7.4-4.9-12 0-5.1 1-6.2 6.3-7.1 3.4-.6 4-1.3 7.2-7.6 7.4-14.7 16.8-41.1 20-56.5 1-4.4 2-8.6 2.2-9.3.4-1-.1-1.1-2-.7-2.7.7-11.7-2.1-11.7-3.5 0-.4.7-1.1 1.6-1.4 1.2-.4 1.5-1.4 1.1-3.3-.3-1.8.3-4.4 1.8-7.3 1.3-2.5 3.1-7.1 4-10.2 1.9-6.5 1.6-7.5-4.6-14.8-10-11.9-15.2-37.1-11-54 4.2-17.1 12-25.1 41.3-42.8 18.6-11.2 24.4-12.6 69.4-17.8 4.1-.5 4.2-.6 4.8-5.1.3-2.5.6-6.7.6-9.3s.3-6.1.6-7.9l.6-3.1 3.2 4.3c1.8 2.3 7.2 10.5 12.1 18.2s11.4 16.8 14.5 20.1c5.9 6.6 12 17.7 14.6 26.5 2.3 7.9 6.4 14.8 9.7 16.6 1.7.8 5.4 2.3 8.4 3.3 4.9 1.6 5.6 1.6 9.8.1l4.4-1.6 3.5 3.4c2.6 2.5 4.1 3.2 6 2.9 2.4-.5 2.6-.2 2.6 2.9 0 1.8-.9 6.2-2.1 9.6-2.9 8.6-4.6 9.5-9.9 5l-3.2-2.6-2.3 2.4c-2.3 2.3-2.3 2.6-1 7.6.7 2.8 1.9 6.1 2.5 7.3 1.1 2 1 2.1-.9 1.5-1.8-.6-2.1-.2-2.1 2.7 0 1.8-.7 4.4-1.5 5.8s-1.9 3.5-2.4 4.7c-.7 1.5-1.6 2.1-2.6 1.6-1.1-.4-1.6-.1-1.5.8.1.8.2 3 .1 4.9-.2 3.2-.3 3.3-1.5 1.7-1.4-1.7-1.5-1.7-2.1.4-.7 2.2-.8 2.2-1.9-.6l-1.2-2.9-2.5 4.2c-1.4 2.3-2.8 3.9-3.2 3.6-.3-.4-1.2.5-1.8 1.9-.9 2-.9 4.7-.1 11.3.8 6.2.9 9.1.1 10-1.3 1.6-.4 6.8 2 10.9 3.6 6.2 3.2 7-1.1 2.7-2.4-2.3-4.6-4.2-5-4.2-.6 0-5.2 10.9-5.3 12.5 0 1.3-3.4 6.1-6.5 9.2-2.4 2.5-2.8 2.5-12 2-5.2-.4-10.5-.9-11.7-1.3-2-.6-2.3-.3-2.3 2.3 0 6.9 1.6 8.9 8.8 11.2 12.7 4 33.8 8.9 41.1 9.7 6.1.6 7.9 1.2 10.7 3.6 4.4 3.9 7.6 9.1 6.8 11.3-.6 1.6-.5 1.6 2.2.2 6.3-3.1 22.5-8.1 33.9-10.3 34.5-6.8 73.9.8 106.6 20.6 19 11.5 39 30.4 52.5 49.8 7.6 10.9 19.8 33.7 19.1 35.5-.3.8-9.7 5-20.8 9.5l-20.4 8.2H512V0H0zM486.3 9.1c-1.7 1.7-3.7.1-2.2-1.7.8-1 1.5-1.2 2.3-.4.7.7.7 1.3-.1 2.1M279 72.9c0 1.2-2 2.5-2.7 1.8s.6-2.7 1.8-2.7c.5 0 .9.4.9.9m50.4 82.7c.8 2-3.5 10.2-7.1 13.6-3.1 3-9.1 5.8-12.3 5.8-1.6 0-2-.7-2-3 0-1.9-.5-3-1.4-3-.7 0-1.9-.6-2.5-1.4-.9-1.1-.6-2.1 1.5-4.5 3.4-4.1 5.4-5.1 13.9-7.2 8.8-2.2 9.2-2.2 9.9-.3M44 186.3c0 2.1-3.7 5-5.5 4.4-2.1-.9-1.9-2.3.7-4.1 2.8-2 4.8-2 4.8-.3m229.7 29.3c-.3.3-1.2.4-1.9.1-.8-.3-.5-.6.6-.6 1.1-.1 1.7.2 1.3.5m206.7 29.5c-.3.5-1 .7-1.5.3-.5-.3-.7-1-.3-1.5.3-.5 1-.7 1.5-.3.5.3.7 1 .3 1.5m4.1 10.9c-.3.5-1.3 1-2.1 1s-1.4-.5-1.4-1c0-.6.9-1 2.1-1 1.1 0 1.7.4 1.4 1"/><path d="M216.1 158.6c0 1.1.3 1.4.6.6.3-.7.2-1.6-.1-1.9-.3-.4-.6.2-.5 1.3m-17.2 214.6c0 .7-.4 3.5-.8 6.1s-.5 4.4-.1 4c1-1 2.4-11.3 1.6-11.3-.3 0-.6.6-.7 1.2"/></svg>