<svg xmlns="http://www.w3.org/2000/svg" width="682.667" height="512" version="1.0" viewBox="0 0 512 384"><path d="M0 76.9v76.8l3.2.7c1.7.3 3.7 1.1 4.5 1.7 1.1 1 1 1.4-.4 2.5-1 .7-3 1.4-4.5 1.4H0v224h13.7l2.2-7.7 2.2-7.6-2.4-2.1c-3.8-3.2-4.8-5.8-3.2-8 .8-1.1 1.2-3 .8-4.6-.4-2.2-.1-2.9 1.6-3.5 3.5-1.1 6.9-8.2 7.7-16.2.6-6.4.4-7.6-1.6-10.7-1.7-2.8-1.8-3.5-.6-3 1.3.5 1.6-.1 1.6-2.9 0-5.3.9-6.7 4-6.7 2.4 0 2.9-.5 3.5-3.3.3-1.7 1.1-5.1 1.7-7.5 1-3.8.9-4.5-1-6.5-5.6-5.9-5.6-15.7 0-15.7 1.2 0 2.1-1.3 2.8-4.3.6-2.3 1.3-4.9 1.6-5.9.3-.9 2-2.8 3.8-4.2 2.6-2 3.6-3.6 4.1-6.8.3-2.4 1-5.7 1.5-7.3.5-1.7 1.8-9.1 2.9-16.5 1.7-12.1 1.7-14.3.5-21.9-.7-4.6-1.5-8.4-1.6-8.5-.2-.1-2.7-1.3-5.6-2.6-6.5-2.9-7.8-4.3-5.7-6 .8-.7 1.5-2.9 1.5-4.9s.4-4.1 1-4.7c1.7-1.7 5-12.5 5-16.3 0-2.8-.9-4.6-4.1-8.1-8.2-9-13.9-25.5-13.9-40.5 0-6.8-.6-7.4-7-7.5-1.4-.1-3.8-.7-5.5-1.4l-3-1.3 4-2c3.7-1.9 4.3-2 7.4-.7 1.9.8 3.7 1.1 4.1.7.4-.5 1.2-3.3 1.9-6.3 2.4-11.2 11.6-22.5 25.8-31.6 4.9-3.1 10.8-7 13.3-8.6 7.5-4.9 20-10.5 28.5-12.6 8.9-2.3 30-4.7 41.5-4.7 8.7 0 8.8-.1 9-9.5.1-3.6.5-8.4.8-10.8l.7-4.3 3.6 4.8c1.9 2.6 7.3 10.6 11.9 17.8 4.6 7.1 11.1 15.9 14.4 19.5 6.2 6.6 13 18.8 14.3 25.3.3 1.7 2.3 6.6 4.4 10.8 3.6 7.2 4 7.7 9.7 10.2 6.9 3.1 7.5 3.2 13.3 1.2l4.3-1.5 3.5 3.4c2 1.8 4.9 3.7 6.5 4 2.6.6 2.8 1 2.4 4.4-.8 5.3-5 15.3-7 16.6-1.4.8-2.4.4-5.2-2.3l-3.4-3.3-1.7 2.6c-1.8 2.7-1.7 3.2 1.1 12.5.5 1.6.4 2.2-.4 1.7-1.1-.7-1.6.4-2.7 6.4-.4 1.9-1.2 4.1-1.9 4.9-.6.8-1.6 2.6-2.3 4-1 2.2-1.2 2.3-1.3.6l-.1-2-.9 2c-.5 1.1-.9 3.2-.9 4.7-.1 3.2-.8 3.5-2.8 1-1.4-1.6-1.4-1.6-.9 0 .3 1 .1 2-.4 2.3-.6.4-1-.1-1-.9 0-.9-.4-1.6-.8-1.6-1.4 0-5.2 4.5-5.2 6.1 0 1.1-.2 1.1-.9.1-.6-1-1.2-.7-2.4 1.2-1.3 1.9-1.5 3.9-1 9.3.3 3.7 1 7.6 1.5 8.5.6 1.2.3 2.6-.8 4.3-1.5 2.4-1.5 2.8.7 8.3 1.2 3.1 2.9 6.8 3.8 8.2.9 1.5-.5.6-3.6-2.3l-5.1-4.9-3.1 6.2c-1.7 3.5-2.8 6.6-2.5 7.1s.1.9-.5.9-2 1.8-3.1 4c-3 5.8-4.7 6.4-17.7 5.6L150 230v3.9c0 6.7.3 6.8 32 14.6 9.6 2.4 19.8 4.7 22.5 5.1 4.2.5 5.7 1.4 9.2 5.1 5.6 5.9 5.9 7.3 2.8 11.9-2.6 3.8-2.6 3.8-.6 5.8 1.9 1.9 2.1 1.9 3.9.3 1-.9 2.4-1.7 3-1.7s2.7-.9 4.6-2.1c2-1.1 4.6-2.2 5.8-2.4 1.3-.1 5.5-1.5 9.3-3 3.9-1.5 8.4-2.9 10-3.1 1.7-.1 6.6-1 11-1.9 6.3-1.3 12.2-1.5 27.5-1.1 18.5.4 20.2.6 32.5 3.9 47.2 12.9 85.1 44.9 108.4 91.5l6.2 12.3-5.3 2.3c-2.9 1.3-10.2 4.2-16.3 6.5-6 2.3-11.9 4.6-13 5.1-1.2.5 20.9.9 53.3.9l55.2.1V0H0zm490-64.5c0 1.7-1.4 2.9-2.3 2-.8-.8.3-3.4 1.4-3.4.5 0 .9.6.9 1.4M284 75.8c0 1.3-1.2 2.2-2.2 1.6s-.1-2.4 1.3-2.4c.5 0 .9.4.9.8m44.4 72.8c2.4 6.2-1.1 16.4-7.4 21.4-4.4 3.5-6.6 3.8-7.5 1-.5-1.6-1.2-1.9-3.2-1.4-2.6.7-2.6.7-2-4.2.5-4.4 1.1-5.5 6.3-10.3 4.9-4.6 10.1-7.9 12.5-8.1.4 0 1 .7 1.3 1.6m-42.7 67c-.3.3-1.2.4-1.9.1-.8-.3-.5-.6.6-.6 1.1-.1 1.7.2 1.3.5m206.1 41.5c-.2.6-.8 1-1.3 1s-1.1-.4-1.3-1 .4-1.1 1.3-1.1 1.5.5 1.3 1.1"/><path d="M193.7 373.7c-.4 3.2-1 6.8-1.3 8-.4 1.4-.2 2.3.5 2.3 1.2 0 1.7-2 2.6-10.3.4-3.3.3-5.7-.3-5.7-.5 0-1.2 2.6-1.5 5.7"/></svg>