<svg xmlns="http://www.w3.org/2000/svg" width="682.667" height="512" version="1.0" viewBox="0 0 512 384"><path d="M0 180.2C0 296 .4 360 1 359c.5-.8.7-2.3.4-3.2-.3-1 .2-2.1 1.3-2.7 2.9-1.5 6-9 6.8-16.2.5-5.6.3-7.2-1.4-10.3-2.6-4.5-2.6-4.9-.1-4.1 1.8.6 2 .2 2-3.7 0-5 .7-6.4 3.5-6.9 1.6-.4 2.3-2 3.8-8.9 1-4.7 2.9-11 4.3-14 3.2-7 2.7-12-1.3-12-2.2 0-2.4-.3-1.9-2.5 1.8-6.9 3.2-8.7 10.6-12.8 4.6-2.6 6.5-6.1 5.8-11.4l-.3-2.5-2.8 2.6q-5.85 5.4-3-1.2c4.8-11.5 6.6-26.5 4.4-36.7-.5-2.2-1.2-6.6-1.6-9.8-.6-5.4-.8-5.7-3-5.1-2.5.6-11.5-2.8-11.5-4.4 0-.6.7-1.2 1.4-1.5 1.1-.4 1.3-1.6.9-4.1s0-4.4 1.2-6.2c2.5-3.8 5.5-13.2 5.5-17.1 0-2.6-1.2-5-4.4-9.1-5.4-7-6.1-8.4-9.2-17.9s-4.3-26.6-2.5-36.7c2.6-15.1 11.8-26.7 30.6-38.9C59 49.8 71.8 43.9 85.6 41.1c6.7-1.3 39.9-3.5 43.4-2.7 2.5.5 2.8.2 3.4-3.2.3-2 .6-5.8.6-8.3 0-5.5 1-10.9 2-10.9.9 0 6.1 7.2 14.8 21 4.1 6.3 9.5 13.8 12.1 16.6 9 9.8 14 18.7 17.6 31.4.8 3 2.8 7.7 4.3 10.5 2.2 4.1 3.8 5.5 8.7 8 5.3 2.7 6.9 3 13.9 2.8 7.3-.3 7.9-.1 9.8 2.3 1.6 2 2.6 2.4 4.9 1.9 4.1-.9 4.5 1.1 1.8 9.2-2.5 7.7-4.6 11.3-6.4 11.3-.7 0-2.9-1.4-5-3l-3.8-3-2.3 2.1c-1.3 1.2-2 2.7-1.7 3.2.4.6 1.2 3.4 1.9 6.1.6 2.8 1.5 5.9 1.9 6.9.5 1.3.3 1.6-.8 1.2-1.1-.5-1.6.5-2.1 3.7-.4 2.4-1.3 5.2-2 6.3s-1.6 3.3-2 5c-.7 2.7-.9 2.8-2.1 1.2-1.1-1.6-1.3-1.6-1.9-.1-.3.8-.6 2.9-.6 4.5 0 3.3-.7 3.6-2.6 1.1-1.2-1.6-1.3-1.5-1.4.5 0 3-1.8 3.9-2.2 1.1-.3-2-.7-1.7-3 2.2-1.6 2.6-2.8 3.8-2.8 2.7 0-2.3-1.2-2.2-2.8.3-1 1.6-1 4.3-.2 12.2.7 7.5.7 10.4-.1 11.5-1.4 1.6 0 7.2 3.2 13.5 2.9 5.6 2.4 5.7-2.9.5l-4.8-4.7-2.5 5.2c-1.8 3.6-2.4 5.9-1.8 7.3.4 1.1.8 3.5.8 5.4.1 3.2 0 3.3-3.1 2.7-2.4-.5-3.7-.1-5.4 1.5-2 1.8-3.2 2-11.8 1.7-5.3-.2-9.6-.1-9.6.2s-1 1-2.2 1.5c-2.9 1.3-3.4 4.6-1.1 6.7 1.7 1.6 52.3 14.8 56.4 14.8 2.3 0 7.3 4.3 10 8.6l2.1 3.5-2.8 3-2.8 3 1.8 3.4c1.1 1.9 2.2 3.5 2.6 3.5s4.3-1.6 8.6-3.7c31.8-14.7 74.8-16.5 110.9-4.6 25.8 8.4 47.1 21.8 68.1 42.8 11.4 11.3 15.7 16.5 22.8 27.4 9 13.5 21.3 38.1 20.1 40.1-.4.6-2.1 1.7-3.8 2.4-2.8 1.3 1.9 1.4 37.6 1.5l40.7.1V0H0zM438.5 3.6c0 1.2-.8 2-2.2 2.2-2.6.4-2.8 0-1.1-2.8 1.5-2.4 3.3-2.1 3.3.6M494 16.9c0 1.2-2 2.5-2.7 1.8s.6-2.7 1.8-2.7c.5 0 .9.4.9.9M323 142.2c3.4 4.7 3.8 12 1 18.6-2.8 6.4-4.4 7.9-6.6 6.1-1.4-1.1-1.8-1-3.1.6-1.4 2-1.4 2-2.9.1-1.8-2.6-1.8-11.1.1-16.7 1.5-4.3 6.8-11.9 8.4-11.9.4 0 1.8 1.4 3.1 3.2M17.5 158.1c5 1.3 6.2 2.4 4.5 4.4-1.9 2.3-5.2 1.8-9.3-1.6-4.2-3.4-4.9-5.5-1.4-4.4 1.2.3 4 1.1 6.2 1.6M499 259c0 .5-.5 1-1.1 1-.5 0-.7-.5-.4-1 .3-.6.8-1 1.1-1 .2 0 .4.4.4 1"/><path d="M187.6 370.2c-.3 2.4-.8 6.4-1.1 9-.6 4.4-.4 4.8 1.4 4.8 2 0 2.1-.6 2.1-8.4 0-9.1-1.5-12.4-2.4-5.4M0 375.2c0 7 .3 8.8 1.4 8.8.9 0 2.1-2.1 3-5.4 2.1-7.1 2-8.6-.4-8.6-1 0-2.4-.8-2.9-1.8-.8-1.2-1 .6-1.1 7"/></svg>