<svg xmlns="http://www.w3.org/2000/svg" width="682.667" height="512" version="1.0" viewBox="0 0 512 384"><path d="M0 32v31.9l7.7-5.6c11.1-7.9 24.4-15.6 34.4-19.7 12.9-5.3 23.6-6.8 47.5-6.4l20.1.3.6-9c.8-11.3 1.7-15.7 3.1-15.2 1.4.4 8.8 11 16.9 24.2 3.4 5.5 8.8 12.9 12 16.4 7.3 8 12.9 17.5 15.7 26.6 1.2 3.8 3.7 10.2 5.6 14.1l3.3 7.1 7.3 2.9c5.6 2.2 9 2.9 14.4 2.9 5 0 7.8.5 9.8 1.8 1.9 1.3 3.6 1.6 5.8 1.2l3.1-.7-.7 3.7c-1 5.3-5.6 15.3-7.3 15.9-.8.3-3.1-.5-5.1-1.9s-3.8-2.1-4-1.5c-.2.5-1.4 1-2.7 1-3.5 0-5 2.4-3.1 5.2 1.7 2.6 3.8 13 2.8 13.8-.4.3-.7.9-.8 1.5-.2 2-4.5 15.1-5.5 16.5-.8 1.3-1 1.3-1.8.1-.7-1.1-1.3-.2-2.3 3.3-1.2 4-1.6 4.5-2.6 3.3-1.1-1.3-1.7-1-4.7 1.6-1.9 1.7-3.5 4-3.6 5.1-.1 2.1-.1 2.1-.7 0-.6-1.8-1.1-2-3-1.3-2.2.8-2.3 1.2-1.7 7.1.4 3.5.8 10.8.9 16.3.2 9 .6 10.6 3.4 16.2 1.8 3.5 3 6.3 2.6 6.3-.3 0-2.9-2.5-5.8-5.6l-5.3-5.5-1.3 3.1c-1.1 2.7-1.1 3.7.5 6.8 2.7 5.8 4.5 11.3 4 12.3-.3.5-3-.3-5.9-1.8l-5.3-2.6-3.6 3.9c-3.5 3.9-3.6 3.9-11 3.9-5.6 0-8 .4-9.3 1.7-1.1.9-3.1 2.1-4.7 2.7-6.2 2.4-2.9 4.2 13.5 7.6 6.7 1.4 18.8 4.3 26.8 6.5 8 2.1 15.7 4.1 17.2 4.4 2.9.6 8.8 7.8 8.8 10.8 0 .9-1 2.3-2.2 2.9-1.3.6-2.5 1.3-2.7 1.5s.9 2 2.4 3.9c1.5 2 5.2 8.8 8.2 15.2l5.5 11.6 4.8-.6c6.1-.7 8.6.8 7.7 4.9l-.6 3 7-.9c4.4-.6 6.9-1.4 6.9-2.2 0-2.1 2.5-2.5 14.7-2.5 10 0 11.7-.2 13.1-1.9 1.6-1.8 2.2-1.8 13-.6 6.1.8 11.6 1.6 12.1 2 .5.3 1.3-.4 1.6-1.6.8-2.5 1.2-2.4 17.2 1.4 8.4 2 10.3 2.2 10.7 1 .7-1.6 2.4-1.3 16 3.3 7.4 2.5 10.2 3 11.5 2.2s3.9.1 12.1 4.3c6.5 3.2 11.6 5.2 13.4 5 2-.1 5.6 1.6 12.1 5.9 5.2 3.3 10.2 6 11.4 6 1.1 0 5.8 3.2 10.5 7 4.7 3.9 9.1 7 9.7 7s5.6 4.6 11.1 10.1c8.6 8.8 15.3 17.3 22.1 28l1.9 2.9H512V193c0-161.3-.2-190.9-1.4-190.4-.7.3-2-.2-2.9-1C506.3.2 480.8 0 253.1 0H0zm447-17.1c0 1.2-2.9 3.5-3.6 2.8-1.1-1 .5-3.7 2.1-3.7.8 0 1.5.4 1.5.9M310.2 122.3c5 3.8 7.7 10.1 7.8 18.5 0 5.2 0 5.3-2.7 5-2.2-.2-2.8.1-2.8 1.6 0 3.1-1.9 2.9-5.2-.6-4-4.3-5.3-8.5-5.3-17 0-6.7 1.1-10.8 3-10.8.4 0 2.8 1.5 5.2 3.3"/><path d="M164.8 162.5c-.3 1.1-.9 2.9-1.3 4-.3 1.1.1.7 1-.8.9-1.6 1.5-3.3 1.2-4-.2-.6-.6-.3-.9.8M1.2 197.2c-.9.9-1.2 8.6-1.1 28.7v27.6l2-4.4c3.7-8.3 4-12.3 2.9-32.5-.6-10.5-1.5-19.4-1.9-19.9-.4-.4-1.2-.2-1.9.5m2.5 56.1c-3.4 3-3.7 3.6-3.7 8.5 0 5.1.1 5.3 2.3 4.7 1.2-.4 2.5-1 2.9-1.4.6-.5 2.8-14.3 2.4-14.8 0 0-1.8 1.3-3.9 3"/></svg>