<svg xmlns="http://www.w3.org/2000/svg" width="682.667" height="512" version="1.0" viewBox="0 0 512 384"><path d="M0 27.6v27.6l2.2-1.4C23.6 39.8 39 33.3 56.3 31c4.7-.7 16.6-1 26.6-.8l18.1.3.4-4c.3-2.2.8-7 1.1-10.7.4-3.7 1-7.9 1.3-9.3.7-2.4.9-2.2 5.2 3.7 2.5 3.5 8.3 12.4 13 19.8 4.6 7.4 10.9 16.2 14 19.6 6.2 6.7 13.8 20.4 16.5 29.8 2.7 9.6 7.2 16.6 12 18.7 7.5 3.3 15.7 5 20.8 4.3 4.1-.5 5.2-.3 7.2 1.6 1.9 1.8 2.7 2 4.3 1.1 3.8-2 4.1-1.2 2.3 5.2-2.2 7.7-4.7 12.6-6.7 13.4-.9.3-2.8-.3-4.2-1.4-1.6-1.2-3.3-1.7-4.2-1.3-.8.4-2.7 1.3-4.2 2.1-3.2 1.4-3.4 2.5-1.3 6.5.8 1.6 1.5 4 1.5 5.4s.5 3.2 1 4c.6 1 .4 2-.5 3-.8.8-1.9 3.6-2.4 6-1.6 6.9-3.8 12.4-5 12.8-.6.2-1.1-.5-1.1-1.5 0-3-1.8.5-2.6 5.1l-.6 3.9-1.9-2.4c-1-1.3-1.9-1.9-1.9-1.3 0 1.5-7 8.9-7 7.4 0-1-.3-1-1.5 0-1.9 1.6-1.9.3 0-3 .8-1.4 1.4-3.4 1.4-4.5.1-1.2-.8-.2-2.1 2.5-1.9 4.1-2.1 5.9-1.9 20 .3 14.7.4 15.9 3.3 22.5 1.6 3.8 3.2 7.7 3.5 8.5.4.8-1.9-1.2-5-4.4-3.2-3.3-5.9-5.7-6.1-5.5s-1.1 1.8-2 3.6c-1.5 3-1.5 3.4 1.5 10.3 4.1 9.7 3.6 10.7-3.7 7.5l-5.7-2.5-2.6 2.4c-3.6 3.4-6.9 4.5-12.3 3.9-4.2-.5-5.1-.2-8.5 2.6-2.1 1.7-4.3 3.1-5 3.1-1.5 0-1.7 1.6-.3 2.5.5.3 7.3 1.9 15.2 3.5s17.7 3.8 21.8 5c24.8 6.7 24.2 6.5 27.7 10.5 3.9 4.6 4.2 7.1.8 8.7-3.1 1.4-3.1 1.6.1 5.9 1.4 1.9 5 8.2 8 14.1 5.9 11.8 7.6 13.3 12.2 11.7 2.2-.7 3.7-.7 5.1.1 2.5 1.3 2.5 1.4.4 11.2-1.9 9-1.7 9.3 6.7 12.4 6.4 2.3 7.4 2.8 8.5 5.1 1 1.9 2.1 2.1 13.3 2.2 11.6.2 12.2.1 12.2-1.8 0-1.1.4-2.2 1-2.6.5-.3 6.5.1 13.4 1 6.8.8 12.9 1.5 13.5 1.5 1.6 0 1.3-2.1-.4-4-2.6-2.9-2.8-8.2-.5-10.9 1.8-2.1 2.4-2.2 4.5-1.3 2.5 1.2 8.5 9.5 8.5 11.9 0 1.3 3.9 2.6 13 4.3 6.5 1.2 6 1.3 6-.4 0-.8.4-1.7.8-2 .8-.5 11.2 2.2 22.4 5.8 4 1.3 4.8 1.3 5.9 0 .6-.8 1.7-1.4 2.4-1.4 1.4 0 20.5 7.9 22.1 9.1.7.6 1.6.4 2.4-.6 1.9-2.3 3.1-1.9 13.4 4 6.8 3.9 10.2 5.4 11.8 5 1.7-.4 4.6 1 11.3 5.7 5 3.5 9.7 6.2 10.6 6 .8-.1 4.6 2.6 8.3 6.3 3.7 3.6 7.6 6.5 8.7 6.5s3.4 2.1 5.6 5l3.7 5H512V0H0zM448.5 20c-.3.5-1.1 1-1.6 1-.6 0-.7-.5-.4-1 .3-.6 1.1-1 1.6-1 .6 0 .7.4.4 1M305 117.3c4.6 3 6.9 7.4 8.1 15.1 1.2 7.5.2 10.7-3.1 9.9-1.6-.4-2 0-2 2.1 0 1.4-.3 2.6-.6 2.6-1.9 0-4.7-2.7-7.1-6.7-2.4-4.2-2.8-5.8-2.8-13.3 0-12.6 1.1-14.1 7.5-9.7"/></svg>