<svg xmlns="http://www.w3.org/2000/svg" width="682.667" height="512" version="1.0" viewBox="0 0 512 384"><path d="M0 26.1c0 24.5.1 26.1 1.7 25.4C12.2 47.1 25.2 45 41.4 45c6.2 0 15.3-.3 20.3-.6l9-.7 1.2-15.1c.7-8.3 1.3-15.9 1.4-16.9.1-.9.4-1.7.7-1.7 1.1.1 10 13.2 21 30.9 6.3 10.1 13.8 20.9 16.7 24.2 6.1 6.9 11.8 16.7 15.3 26.4 3.6 10 8.7 19.1 11.5 20.3 4 1.8 21.3 6.2 24.4 6.2 1.7 0 4.2-.5 5.6-1.2 1.9-.9 2.8-.9 3.7 0 .7.7 2.7 1.2 4.5 1.2 5 0 5.4 2.5 1 6.7-2.1 1.9-3.7 4.1-3.7 5 0 .8-.8 3.2-1.9 5.2l-3.1 6.2c-1.9 4.2-5.3 5.2-8.5 2.7-3.5-2.7-5.1-1.3-3.7 3.4 1.4 4.6 2.2 11.7 1.3 12.2-.4.3-1.6 4-2.6 8.3-1.8 7.7-4.1 11.5-5.6 9.2-.3-.6-1.4.9-2.4 3.5-1.4 3.5-2.1 4.4-3 3.6-1.4-1.1-4.5 2.4-6.4 7.1l-1 2.4v-2.4c-.1-2-.3-2.2-1.6-1.1-2.5 2-2.7.5-.6-3.1 1.1-1.9 1.9-4.9 1.9-6.7-.1-3.5-1.6-3.1-2.3.7-.2 1.2-1.1 3.6-1.9 5.3-.9 1.7-1.4 3.4-1.1 3.8s.9 7.8 1.5 16.4c.8 13.9 1.3 16.5 4 22.8 1.6 4 2.8 7.3 2.6 7.5-.2.3-2.9-2.1-5.9-5.2l-5.4-5.6-2.3 5.3c-2.6 5.9-2.6 5.9-1.6 10.8.6 3.5.6 3.5-1 1.2l-1.7-2.3-3.3 5.3c-2.7 4.2-3.4 6.4-3.4 10.5 0 5.1-.1 5.3-2.8 5.3-1.6 0-5.3-1.3-8.2-2.9-3-1.6-5.7-2.8-6.1-2.5-.4.2-1.2-.3-1.9-1.1-1.5-1.8-7.1-2-8.8-.3s-1.5 7.5.3 8.2c.8.3 7.9 1.5 15.8 2.6 21.6 3.1 46.9 9.6 49.3 12.6.8 1.1 2.2 3.2 3.1 4.9 1.5 2.9 1.5 3-1 4.9l-2.6 1.9 3.8 5.1c2.1 2.8 5.7 8.4 8 12.3 2.4 4 4.9 7.3 5.5 7.3 1.8 0 12.1-5.7 13.6-7.5.7-.8 1.6-1.5 2.1-1.5s6.5-2.2 13.4-5c7-2.7 16.5-5.7 21.3-6.6s9.6-2.1 10.7-2.7c1.7-.9 20.2-2.7 30-3 10-.2 30.3 1.8 39.2 3.9 5.7 1.3 11.3 2.4 12.6 2.4s7 1.9 12.8 4.1c5.7 2.3 11.4 4.3 12.6 4.4 1.2.2 5.9 2.3 10.5 4.8s10.8 5.8 13.9 7.4c20.4 10.3 55.8 43.6 68.8 64.6l2.3 3.7H512V0H0zm284.7 95.3c4.6 5.3 6.3 10.3 7.1 20.8.5 7.7-.7 11.6-3 10.2-.6-.4-1.4 0-1.9.7-1.8 2.6-8.4-6.4-10.9-14.7-1.9-6.5-2-8-1-13.1 1-5.2 3-8.3 5.1-8.3.4 0 2.5 2 4.6 4.4"/></svg>