<svg xmlns="http://www.w3.org/2000/svg" width="682.667" height="512" version="1.0" viewBox="0 0 512 384"><path d="M199.3 10.1c-7 .9-9.8 2.4-11.9 6.4-1.4 2.8-1.9 11.6-.7 12.8.3.4.7 3.2.8 6.2.1 3.1.7 6.1 1.3 6.7.7.7 1.2 3.1 1.2 5.4 0 2.8.8 5.3 2.5 7.9 2 2.9 2.3 4 1.4 5.1-.8 1-.4 2.5 2 6.4 1.7 2.7 2.8 5.6 2.5 6.4-.3.9.9 3.6 2.7 6 2.4 3.4 4.1 4.7 6.6 5.2 3.8.7 3.8.5 1.8 7-2 6.7-1.9 12 .6 22.2 2.4 9.7 4 12.8 3.3 6.1-.5-4.4-.5-4.3 2.5 2.6 4.1 9.1 4 19.9 0 20-.8.1-1.2.7-1 1.5.7 2.4.5 4-1.8 17-1.3 6.9-2.9 13.8-3.7 15.4-1.7 3.6-1.7 3.6.2 3.6 2.1 0 1.6 3.6-2.8 20.5-2.8 10.6-3.2 14.2-3.8 30.9-.5 16.9-.8 19-2.5 20.2-1 .8-2.9 1.4-4.1 1.4-2.3 0-9.1 4.2-11.1 6.9-2.5 3.3-1.5 7 3.7 13.4 2.8 3.4 5 6.9 5 7.7s-.9 9.6-2 19.5c-1.8 16.9-2.3 19.1-7.8 35.5-6.2 18.2-15.2 46.3-15.2 47.4 0 .3 40.6.6 90.1.6h90.1l-.6-2.2c-.4-1.3-1.1-5-1.6-8.3-.4-3.3-3.1-15.7-6-27.5s-5.4-24.1-5.7-27.2c-.6-6.1 1.5-31.8 2.6-31.8.4 0 1.2.5 1.7 1 .6.6 4.1 1.4 7.9 1.9 7.7.9 9.7 2.5 11.5 9.3 2.3 8.5 4.9 34.3 6.6 64.8.3 6.3.8 12.4.9 13.5.2 1.1.4 3 .4 4.2l.1 2.3h80v-2.1c0-1.2-3.3-9-7.4-17.3-9.5-19.5-14.6-31.8-18.1-43.6-1.5-5.2-3.9-11.7-5.3-14.5-3.2-6.5-19.3-30.6-24.5-36.9-4-4.8-4-4.9-2.9-9.2 2.1-7.8 1.6-11.9-2-15.4-4.3-4.3-7.1-5.2-15.3-4.8l-7 .3-7-14.2c-3.8-7.8-8-15.2-9.2-16.5-2-2.1-2.4-4.9-4.7-28.7-1.4-14.6-2.6-27.2-2.6-28 .1-.9 2 3.5 4.4 9.7 4.6 11.9 6.3 15 5.3 9.4-1.3-6.6-4.6-30.8-4.9-35.7l-.3-5h6.4c6.2 0 6.4-.1 8.8-3.6 2.2-3.4 2.3-4.1 1.3-8-.6-2.4-4-9.6-7.6-16-5.5-10.1-7.2-13.9-6.1-13.9.1 0 3.6 1.3 7.7 2.9 11.8 4.4 13.5 4.6 16 1.1 1.2-1.7 1.6-3.1 1-3.5-1.7-1.1-1.1-2.5 1.1-2.5 1.7 0 2-.4 1.5-2.4-.4-1.5-.1-2.6.7-2.9 2-.7 3.9-7.8 2.5-9.4-.7-.8-.7-1.3 0-1.3 1.9 0 3.2-5.7 2-9.1-.8-2.4-.7-3.2.6-4.2 1.1-.9 1.5-2.5 1.2-6.2-.2-2.8.1-5.6.7-6.3.5-.7.7-3.2.5-5.7-.4-2.8-.1-4.6.6-4.8.8-.3.8-1-.1-2.6-.7-1.1-1.3-2.7-1.3-3.6 0-.8-.9-1.9-2-2.5-1-.6-1.7-1.6-1.4-2.4 2-5.3-12.1-9-33.6-9-11.7.1-14.7.4-22.3 2.7-9.7 3-16.7 6.9-16.7 9.3 0 1.2-.5 1.4-1.7.9-6.1-2.6-10.5-3.7-17.3-4.2-8.4-.6-13.3.5-16.9 3.8-1.2 1.2-2.3 1.9-2.4 1.8-.2-.2-1-2-1.9-4-3.3-7.3-23.6-14.6-42.8-15.5-5.8-.2-12.3-.6-14.5-.7-2.2-.2-6.8 0-10.2.4m30.7 167c0 5.3-.3 6.9-1.4 6.9-.8 0-1.7-.3-1.9-.8-.8-1.3 1.5-14.2 2.4-13.6.5.3.9 3.6.9 7.5m-7 6.8c0 .5-.7 1.2-1.6 1.5-1.4.5-1.5.4-.4-.9 1.4-1.7 2-1.9 2-.6m-3.1 13.3c.1 1.5-5.8 6.2-6.7 5.3-.2-.2.8-3 2.3-6.2 2.6-5.4 2.8-5.6 3.5-3.3.5 1.4.8 3.2.9 4.2M341 193c0 .5-.2 1-.4 1-.3 0-.8-.5-1.1-1-.3-.6-.1-1 .4-1 .6 0 1.1.4 1.1 1"/></svg>