<svg xmlns="http://www.w3.org/2000/svg" width="682.667" height="512" version="1.0" viewBox="0 0 512 384"><path d="M0 5.3v5.2L18.1 27c12.4 11.3 20.1 17.6 24.7 20 3.7 1.9 8.8 4.9 11.3 6.7 7.2 5 19.9 19.1 25.9 28.8 3 4.9 8.9 12.4 13 16.6l7.5 7.7 7.9.7c13.2 1.3 25.2.2 32.5-2.9 6.4-2.7 6.4-2.8 9-.8 5.3 3.9 3 10.8-4.5 13.2-1.9.7-3.4 1.5-3.4 1.9 0 .9 2.4 8.8 3.5 11.4.6 1.3 0 2-2.3 2.8-6 2.1-8.6 14.9-9.2 44.4-.1 3.9-.4 5.3-.9 4.1-.7-1.7-.9-1.6-1.9 1.4-1 2.8-1 3.6.5 5.4 1.7 2 1.7 2 0 .7-.9-.8-1.9-1.2-2.1-1-.5.6-7.3 14.2-8.2 16.4-.7 1.7-.9 1.5-1.2-1.4l-.4-3.4-2 2.9-2 2.9.7-3.5c1.1-5.2 1.1-8.9 0-9.2-.5-.2-1.4 2.1-1.9 5-.8 4.6-.5 6.5 1.8 14 3.8 11.8 4.4 13.2 5.7 13.2.8 0 .9.4 0 1.3-2.2 2.8 5.3 20.1 13 29.8 1.6 2 2.9 4 2.9 4.3 0 .8-8.5-4.8-11.8-7.8-2.2-2-2.3-2-1.7-.1.7 2 .6 2-.9.1-.9-1.1-1.6-2.3-1.6-2.6s-1.4-1.7-3.1-2.9c-1.9-1.4-3-1.8-2.7-1s-.2 2.9-.9 4.8c-1.2 2.9-1.2 3.8 0 6.5 4.7 10.1 7.9 18.2 8.4 21.2.7 4.2-.6 4.3-9 1.4-3.1-1.1-6.2-2-6.9-1.9-.7 0-2.5 2.3-3.9 5.2-2.1 4.3-3.5 5.7-7.9 7.9-2.9 1.6-6.7 2.8-8.4 2.8-3.2 0-4.5.6-11.5 5.3-3.3 2.2-4.1 3.3-4.1 5.8 0 2.7-.2 3-1.5 1.9-.8-.7-1.5-.8-1.5-.2 0 2.2 3.5 3.2 23.5 6.1 11.6 1.7 25.7 4 31.5 5s13.5 2.2 17.1 2.5l6.5.7 1.2 4.5c1.7 6.5 1.5 11.1-.5 12.3-1.7.9-1.7 1.1 0 3.8 3.8 5.8 9.6 19.2 13.3 30.5l3.8 11.8H512V0H0zm244.4 115.3c2.1.8 10.8 11.8 13.4 16.9 1.1 2.2 3.1 5.3 4.5 6.9 1.7 1.9 2.5 4 2.4 6.2-.1 4.2-.6 3.9-10.4-8.5-4.2-5.3-8.2-10.1-8.9-10.7-1.7-1.4-3.4-5.9-3.4-9 0-2.6.1-2.7 2.4-1.8"/></svg>