<svg xmlns="http://www.w3.org/2000/svg" width="682.667" height="512" version="1.0" viewBox="0 0 512 384"><path d="M0 19.1c0 18.8 0 19.2 2.3 21.3 16.1 14.7 21.2 18.8 28.2 22.5 14.9 7.9 27.2 19.8 38.7 37.1 3.1 4.7 8.8 11.6 12.6 15.4 8.1 8 9.7 8.4 27.3 8.5 7.8.1 12.7-.5 18.5-2 11.6-3.2 14-3.4 17-1.5 2.1 1.4 2.5 2.4 2.2 5.4-.3 3.2-.8 3.9-4.5 5.7-2.4 1.1-4.3 2.5-4.3 3.2 0 .6.9 3.3 2 5.9 2.3 5.3 2 7.4-.9 7.4-2.1 0-5.4 5.2-7.3 11.5-1.3 4.2-3.7 19-5.2 32-.7 6.1-1.5 9.9-1.7 8.5l-.6-2.5-1 2.5c-.7 1.5-.7 2.9-.1 3.7.5.6.5 1.3.1 1.5-1.3.5-9.3 17.5-9.4 20-.1 1.7-.4 1.4-1.3-1.4l-1.1-3.8-1.8 2.8c-1.8 2.7-1.8 2.7-1.3.2.3-1.4.8-3.4 1.1-4.5.4-1.1-.1-2.9-1-4-1.4-1.7-1.6-1.7-1.1-.3.3 1 0 1.8-.6 1.8q-1.05 0-.3 4.2c.4 2.4.9 5.2 1.1 6.3.8 4.9 5.3 15.1 7.3 16.3 2.4 1.7 2.8 3.2.6 3.2-1.9 0-1.9-.6.9 7.8 2.9 8.4 6.3 14.5 13 23.1 3.8 4.9 4.4 6.1 2.6 5.1-5.4-2.9-13.1-8.2-17.6-12.1l-4.8-4.2-.9 3.3c-.7 2.9-.1 4.2 7.2 15 7.8 11.7 9.8 15.6 8.7 16.7-.3.3-3.4-.1-6.8-1-3.5-.9-8.5-1.9-11.3-2.2l-5-.6-2.9 7.1c-1.7 4.5-4.1 8.3-6.3 10.3-3.3 3.1-11 6.6-14.5 6.7-1 0-4 1-6.8 2.2-4.6 2-5 2.5-5 5.5 0 3.9-.6 4.1-3.7 1.1l-2.3-2.1v2.9c0 5.4 1.2 6 14.8 7.5 5.4.5 19.1 2.6 30.7 4.4 11.6 1.9 24.8 3.8 29.4 4.2l8.5.8 1.2 4.6c2.6 10.3 2.6 11.7.4 13.9-1.9 1.9-2 2.3-.7 3.8.8.9 2.9 4.5 4.6 8l3.1 6.2h360V0H0zm248.7 110.4c3.2 3.6 8.1 8.1 11 10.1 2.8 1.9 5.9 4.6 6.7 5.9 1.4 2.1 1.4 2.4-.6 3.7l-2.2 1.5 2.3 3.4c1.2 1.9-2.8-1.8-8.9-8.1-11.8-12.2-16-17.7-16-21s1.5-2.4 7.7 4.5M126.5 208c1 1.1 1.6 2 1.3 2s-1.3-.9-2.3-2-1.6-2-1.3-2 1.3.9 2.3 2"/></svg>