<svg xmlns="http://www.w3.org/2000/svg" width="682.667" height="512" version="1.0" viewBox="0 0 512 384"><path d="M0 26.8v26.8l6.1 2.8c18 8.4 39.3 28.2 49.6 46.4 1.7 2.9 6.2 8.2 10.1 11.7 5.3 4.7 6.7 6.5 5.4 6.7-2.1.5 6.8 2.6 17.1 4 12.1 1.6 18.8.8 30.1-3.7l9.8-3.9 2.2 2.7c1.2 1.5 2.7 2.7 3.2 2.7.6 0 1.9.9 3 2.1 1.9 2.1 1.8 2.1-.6 4.1-1.4 1.1-3.7 2.5-5.2 3-3 1.1-3.1 2.6-.2 9.5 1.2 3 1.1 3.4-1.6 6.3-3.9 4.2-7.5 12-9.3 20.5-3.4 15.8-3.9 18.4-5.2 28.5-.7 5.8-1.3 9.5-1.4 8.2 0-1.2-.5-2.2-1.1-2.2-1.6 0-1.2 3.8.7 6.8 1.7 2.6 1.7 2.7-.1 1.2-1.4-1.1-2-1.2-2.3-.3-.2.6-2.2 4.8-4.4 9.3-2.1 4.5-3.9 9-3.9 10.1 0 1-.4 1.9-1 1.9-.5 0-1-1.1-1-2.4 0-3.6-1.6-4-2.8-.8-1.7 4.2-1.7 6.4 0 10.3.9 2 1.9 5.1 2.3 6.8.5 2.4 1.9 4 5.3 6.1 4.3 2.7 4.5 3 2 3-1.5 0-2.9.4-3.3.9-.8 1.4 4 13.5 8.2 20.3 2 3.4 5.8 8.7 8.6 12 4.3 5.2 4.5 5.8 2.1 4.4-1.6-.8-4.2-2.4-5.8-3.5-1.7-1.1-3.5-1.7-4-1.4-.6.3-.8.3-.4-.2.5-.5-.9-1.9-3-3.3-2-1.4-5.8-4.3-8.3-6.4-4.6-3.7-4.7-3.7-5.3-1.5-1.3 4.9-.4 9.1 4 19.1 2.5 5.8 4.3 10.9 4 11.4-.2.4.4 2.1 1.5 3.8 2.3 3.5 2.5 7.4.4 7.4-.9 0-5.4-1-10.2-2.2l-8.6-2.1-1.8 2.4c-1.1 1.3-1.7 3.3-1.4 4.4s.8 3.1 1.1 4.5c.7 2.4.7 2.5-1.3.7-1.9-1.7-2.1-1.6-5.5 1.5-3.3 3.2-12.2 6.8-16.6 6.8-1.2 0-3.6 1.3-5.4 2.9-2.9 2.6-3.2 3.4-3 7.7l.2 4.9-3.3-3.8c-1.9-2-3.7-3.7-4.1-3.7-.3 0-.6 1.8-.6 3.9v4l5.2 1c2.9.6 11.2 1.7 18.3 2.6 7.2.9 21.1 3.1 31 5 9.9 1.8 22 3.8 26.8 4.4s9.2 1.3 9.6 1.5c1 .7 2.3 8.4 2.5 14.8l.1 4.8H512V0H0zm243.5 104.6c1.3 1.4 5.2 3.3 9.3 4.6 5.6 1.6 8.3 3.1 12.4 6.9l5.3 4.9-2.4 2.6-2.5 2.6 2 2.8c6.4 8.7 3 6.7-11.6-6.9-11.3-10.6-17-17-17-19.3 0-1.4 2.4-.4 4.5 1.8M116 214c0 .5-.2 1-.4 1-.3 0-.8-.5-1.1-1-.3-.6-.1-1 .4-1 .6 0 1.1.4 1.1 1"/><path d="M94.2 222.6c-.1 1.4.2 3.3.7 4.2.7 1.2 1 .9 1.6-1.6.6-3.1.1-5.2-1.3-5.2-.4 0-.9 1.2-1 2.6"/></svg>