<svg xmlns="http://www.w3.org/2000/svg" width="682.667" height="512" version="1.0" viewBox="0 0 512 384"><path d="M0 27.8v27.7l7.1 5.4c12.1 9.3 26.4 25.7 34.9 40.2 2.6 4.3 5.8 8.1 9.5 10.9 3.1 2.4 5.9 4.9 6.3 5.6 1 1.8 14.7 4.4 27.2 5.1 10.7.6 10.9.6 21.5-3.2 8.7-3.1 11-3.6 12.4-2.6.9.6 3.1 2.1 4.9 3.2 4.9 3.2 4.4 6.5-1.3 9-2.5 1.1-4.5 2.6-4.5 3.3s.9 3.9 1.9 7.1l1.9 5.9-3 4.4c-4.8 6.9-7.6 15.2-9.7 28.1-2.1 12.8-2.5 14.1-4.5 14.1-1 0-1.6 2.3-2.1 7.7-.4 4.4-1.3 8.2-2.1 9.1-1.3 1.2-1 2.1 2.2 6.5l3.7 5.2-3.5-3.3-3.5-3.3-5.1 10.6c-2.9 5.9-5.3 11.9-5.3 13.3-.1 1.7-.6.7-1.3-2.6l-1.1-5.3-1.6 2.8c-1.2 2-1.4 3.6-.8 5.8.5 1.8.5 3.1-.1 3.3s-.4 1.5.4 3c.7 1.5 2.2 5.3 3.2 8.5 1.6 5.3 2.2 6 7.3 9l5.6 3.2-4.2.3c-2.4.2-4.3.7-4.3 1.1 0 1.7 5.1 13.5 8 18.6 1.7 3 5.2 8.1 7.7 11.2 2.6 3.2 5.1 6.4 5.7 7.2s-1.5-.2-4.7-2.2c-3.1-2-5.8-3.6-6-3.4s-5.3-3.6-13.7-10.5c-3.1-2.6-6-4.5-6.4-4.1-1.1 1.1-.6 8.7.9 13.6.8 2.6 3.3 8.9 5.5 13.9 2.3 4.9 3.9 9.2 3.7 9.5-.3.2-3.5-3-7.3-7.2l-6.8-7.6-1.4 2.6c-1.2 2.3-1.1 3.2.2 6.6 2.1 5.1 2 5.6-.3 3.5-1.7-1.6-1.7-1.1.5 4.9 5.2 14.4 5 17.5-1 15.5-4.5-1.5-5-1.1-3.6 2.6.9 2.6.6 2.5-3-1.5l-4.1-4.4-3.2 3c-4.5 4.3-8.7 6.2-17.4 7.9-4.1.8-7.7 1.4-7.9 1.4-.6 0-.5 6.7.2 12.7.6 4.9.9 5.3 3.8 5.8 1.7.2 9.6 1.4 17.6 2.5s19.7 3.1 26 4.5c20.2 4.4 34.4 7.3 39.3 8 2.6.4 5 1.1 5.3 1.6s81.8.9 191.5.9H512V0H0zm260.8 112.6c2.6 1.3 6 3.8 7.6 5.5l3 3.1-2.7 2.8c-3.3 3.4-3.3 3.7-.2 7.8 1.4 1.8 2.5 3.7 2.5 4.3 0 1.4-3.6 1.4-6.3 0-3.4-1.8-26.1-22.8-27.5-25.6-1-1.8-.6-1.8 9-1.1 7.4.6 11.2 1.5 14.6 3.2"/><path d="M84 221.1c0 1.8-.4 2.8-1.1 2.4-.6-.5-.9.9-.8 3.9.3 5.2 1 5 2.7-1 1.5-5.1 1.5-8.4.2-8.4-.5 0-1 1.4-1 3.1M27 358.3c0 4.4 1.7 6.5 5.9 7.3l3.4.7-4.3-5.6c-2.3-3.2-4.4-5.7-4.6-5.7s-.4 1.5-.4 3.3"/></svg>