<svg xmlns="http://www.w3.org/2000/svg" width="682.667" height="512" version="1.0" viewBox="0 0 512 384"><path d="M0 29.9c0 26.6.2 30 1.7 31.2 6.7 5.6 22.6 26.4 29.7 39.1 2.5 4.4 8.6 10.3 13.1 12.5 1.1.6 6.1 1.6 11 2.3 5 .6 11.4 1.6 14.4 2.1 8.2 1.4 17.3 1.1 19.7-.5 2.8-2 13.8-5.6 17.1-5.6 4.4 0 10.9 3.7 12.3 7 .7 1.6 1 3.6.6 4.5-.8 2.1-6.6 5.5-8.2 4.8-.8-.3-1.4.1-1.4.8 0 2.1 2.9 14.1 4.1 17 .9 2.2.5 3.3-2.5 7.8-5.4 7.9-7.6 16.3-10.2 37.3-.6 5.7-2.6 8-6 7.2-2.4-.6-2.4-.5-2.4 5.9 0 3.9-.5 7.1-1.3 7.9-2 2.1-1.9 5.8.4 8.9 2.2 3.2 1.6 3.8-1.2 1.3-1.6-1.5-2-1.1-5.3 6-1.9 4.2-4.4 8.9-5.5 10.5-1.2 1.6-2.1 4.4-2.2 6.3 0 2.7-.2 3-.9 1.3-.5-1.1-.9-3.5-.9-5.3-.1-3.8-1.3-4.1-3-.9-.9 1.7-.9 3-.2 5.1 1.4 3.4 1.4 7.9.1 7.1-.5-.3-.1 1.6 1 4.2s2.6 7.4 3.5 10.5c1.5 5.3 2 5.9 7.3 8.9l5.7 3.3-3.8.6c-2 .4-4 1-4.4 1.3-1.9 2 8.6 21.9 16.8 31.8 2.8 3.3 4.9 6.2 4.7 6.4s-2.8-1.3-5.9-3.4c-5-3.3-5.6-3.5-5.2-1.7.4 2.1.4 2.1-1.1.2-.9-1.1-1.6-2.3-1.6-2.7 0-.7-8.2-7.1-11.9-9.4-.9-.5-3.3-2-5.3-3.2-3.6-2.2-3.7-2.2-4.3-.3-.7 2.3 2.2 12.6 7.1 24.7 5.9 14.6 5.9 14.4-.5 7.6-6.1-6.4-8.8-8.3-11.7-8.3-1.1 0-1.5.6-1.1 1.7.3 1 1.3 4 2.1 6.7l1.6 4.8-3.5-2.6-3.4-2.6-1.9 4.4-2 4.4 2.9 12.2c1.6 6.8 2.8 12.5 2.6 12.7-.3.2-1.2-.8-2.1-2.2-1.3-2-2.2-2.4-4.1-1.9-1.6.4-3.7-.1-6-1.5-4.5-2.6-5-2.6-8.8.1-1.8 1.3-4.1 2.4-5.2 2.4-1.1.1-4.9.8-8.4 1.4l-6.4 1.3.6 9.5c.4 6 1.1 9.9 1.9 10.4.7.4 111.2.8 245.6.8H512V0H0zm258.3 112.9c5.6 3.8 7 6.1 5.3 8.6-4.2 6.6-4.2 6.2-1.3 10.5 3.4 5.1 3.4 6.8.2 8.3-2.5 1.1-3.1.7-12.6-8.8-14.3-14.1-15.6-17.2-8.6-19.8 8.3-3 11.1-2.8 17 1.2M96.1 225.7c1.3 1.6 1.2 1.7-.3.4-1-.7-1.8-1.5-1.8-1.7 0-.8.8-.3 2.1 1.3"/><path d="M71.2 224.6c-1.6 7.6-1.5 10.4.2 10.4s2.6-3.1 2.6-9c0-7.2-1.5-7.9-2.8-1.4M8.5 376c.8 5.3 1.6 6.3 4.2 5.8 1.9-.3 1.8-.7-1.5-5.3l-3.4-5z"/></svg>