<svg xmlns="http://www.w3.org/2000/svg" width="682.667" height="512" version="1.0" viewBox="0 0 512 384"><path d="M0 34.7v34.8L6.8 79c3.8 5.2 8.6 12.9 10.7 17 6.4 12.3 5.2 11.8 35 14.5 9.4.9 17.6 1.8 18.4 2.1.8.2 3.7-1.1 6.5-2.9 8.3-5.5 11.2-6.7 16.4-6.7 8.3 0 17.9 7.5 18.9 14.9.7 5-1.3 7.8-6.3 8.7-1.9.3-3.7 1-4 1.5-.6 1.1 3.2 18.1 5 22.4 1.2 2.8 1.1 3.4-2 8-5.3 7.7-8.3 18.6-9.9 35.5-1.2 12.5-1 12.2-6.6 11.9-2.7-.2-5.1 0-5.5.3-.3.4-.7 3.9-.9 7.8-.1 3.9-.7 7.6-1.4 8.3-1.8 1.8-1.3 3.4 2.5 9.5l3.6 5.7-4-3.9-4-3.8-3.7 6.8c-2.1 3.8-4.9 8.9-6.3 11.4-1.5 2.5-2.9 6.3-3.3 8.5l-.6 4-.3-4.5c-.1-2.5-.5-5.9-.9-7.5l-.7-3-1.3 2.3c-.9 1.8-1 3.9-.2 9.2 1.3 8.4 1.3 9.3.2 8.6-.5-.3.2 2.9 1.5 7.2 1.2 4.2 2.7 9.5 3.3 11.7.9 3.5 1.9 4.6 8.3 8.5l7.3 4.5-5.8.3c-5.6.3-5.7.3-5.1 3 1.1 5.6 10.1 21.6 16.7 29.8 6.8 8.6 6.5 9.1-2.1 3.2l-4.3-2.9.6 2.8c.6 2.4.5 2.6-.7 1.1-.7-.9-2-2.9-2.9-4.5-.8-1.6-3.9-4.6-6.8-6.7-2.9-2-5-3.3-4.6-2.7 1.1 1.9-.6 1.2-7.1-2.9-3.5-2.2-6.4-3.5-6.4-2.8 0 2 4 16 6.4 22.3 2.7 6.9 3.7 9.9 3.7 10.2 0 .2.8 2.3 1.9 4.8s1.7 4.5 1.4 4.5-2.9-2.4-5.7-5.4c-4.7-4.9-12.8-10.2-13.9-9.1-.2.3.5 3.5 1.8 7.2 1.2 3.8 2 7 1.8 7.2-.3.3-4.3-4.1-7-7.7-1-1.3-1.4-1.1-2.9 1.2-2.1 3.1-1.9 4.8 2.7 24.4l2.2 9.2H512V0H0zM251.2 143c1.9 2.6 1.8 2.6-.7 8.5-2.5 5.5-2.6 6.1-1.1 9.4.8 2 1.8 5.4 2.1 7.6.4 2.2 1.1 4.5 1.5 5 1.5 1.8 3 6.5 2.1 6.5-.5 0-3.4-3.4-6.4-7.6-8.8-11.9-10.8-22.3-5.7-29.4 2.6-3.7 5.4-3.7 8.2 0"/><path d="M60.6 230.5c-2.2 9.4-2.6 11.9-2.1 13.6 1.9 5.9 5.1-4.2 3.7-11.6-.8-4.8-.9-4.9-1.6-2m7.5 5.1c0 1.1.3 1.4.6.6.3-.7.2-1.6-.1-1.9-.3-.4-.6.2-.5 1.3M23.6 378.2c-1.5 5.7-1.3 5.8 8.4 5.8 5 0 9-.4 9-.8 0-1.8-2.3-3.1-4-2.2-1.2.6-2.9.1-6.1-2.1-5.3-3.5-6.5-3.6-7.3-.7m-12.8 3.5c-2.7.7-2.1 2.3.7 2.3 1.4 0 2.5-.4 2.5-.9 0-1.3-1.2-1.8-3.2-1.4"/></svg>