<svg xmlns="http://www.w3.org/2000/svg" width="682.667" height="512" version="1.0" viewBox="0 0 512 384"><path d="M0 68.8v68.7l11.8 3.4c6.4 1.8 16.2 4.1 21.7 5.2l9.9 1.9 4.3-4.8c2.3-2.6 4.2-5 4.3-5.5 0-1.4 9.4-6.7 12-6.7 5.7 0 16.1 8 23.5 18 3.5 4.8 6.1 14.4 5.1 18.6-.7 2.5-7.1 6.3-10.7 6.4-1.4 0-1.4.8-.3 7.8 1.6 10.3 3 15.5 6 22.3l2.5 5.5-3.6 5.9c-5.4 9.1-8.5 22.1-8.5 36.7 0 15.4-1.5 17.1-11 12.3-2.7-1.4-5.1-2.5-5.3-2.5s-.1 3.8.1 8.4c.4 6.8 0 9.6-1.7 14.9l-2.2 6.5 3 5.9c1.7 3.2 4.7 8 6.7 10.8l3.6 5-3.8-4c-2.2-2.3-5.3-5.9-7-8-1.8-2.2-3.4-3.8-3.6-3.5-.6.7-15.1 24.8-16.7 27.7-.7 1.4-1.6 5.2-1.8 8.5l-.6 5.9-3-2.8c-1.8-1.7-2.8-2.2-2.4-1.2 2.1 6.2 4.6 15.3 5.2 19.2.9 5.7 2.8 7.7 14 14.7 4.7 3 8.9 5.8 9.2 6.3.4.6-2.5.8-7.4.5l-8.1-.5 1.3 3.6 1.2 3.6 232.2.3 232.1.2V0H0zm241 67.4c5.2 5.5 7.8 12.8 11 31.3 3.8 22.2 5.2 26.5 15.3 44.9 2.1 3.7 3.5 7.1 3.2 7.4s-7.6-6.6-16.3-15.4c-16-16.1-24.3-26.9-28.8-36.9-2.2-5.1-6.4-18.7-6.4-20.8 0-.9 3.5-.5 7.7.8 1.6.5 2.3.2 2.8-1.7 2-6.1 5.5-12.8 6.9-12.8.8 0 2.9 1.5 4.6 3.2"/><path d="M34.2 302.6c-.8 3.9-.9 7-.3 8.5l.9 2.4 1.2-2.6c.8-1.7.9-4.3.3-8.5l-.9-5.9zm8.9 3.5c-.6 1.8-1.1 3.7-1 4.3 0 .6.7-.7 1.5-2.8.8-2.2 1.2-4.1 1-4.3s-.9 1-1.5 2.8m-7.3 15.6c.5 2.1.7 2.3 1 .9.2-1 0-2.2-.6-2.8s-.7 0-.4 1.9m1.3 4.9c0 1.1.3 1.4.6.6.3-.7.2-1.6-.1-1.9-.3-.4-.6.2-.5 1.3"/></svg>