<svg xmlns="http://www.w3.org/2000/svg" width="682.667" height="512" version="1.0" viewBox="0 0 512 384"><path d="M0 82.8v82.8l8.2 1.2c4.6.7 10.7 1.8 13.6 2.4l5.3 1.1 6.1-6.7c7.1-7.9 10.1-9.6 16.5-9.6 5.3 0 7.5 1.1 14.1 7.4 8 7.5 10.5 12 11 20.1.4 6.9.3 7.3-2.3 9.3-1.5 1.2-4.2 2.4-6.1 2.8-1.9.3-3.4.9-3.4 1.3s.9 5.4 1.9 11.2c2 10.9 4.4 18.2 6.8 21.1 1.3 1.4 1 2.5-2 9-4.8 10.1-6.8 19.8-7.4 36.6-.7 16.7-.9 17-8.9 12.8-2.9-1.5-5.8-2.5-6.4-2.1-.8.5-.9 3.4-.5 9.4.5 6.6.3 9.6-.9 13.1-.9 2.5-1.6 5.2-1.6 6 0 2.1 6.7 14.8 9.4 18 1.2 1.4 2.8 3.4 3.5 4.5 1.9 2.7-8.8-8.3-11.9-12.4l-2.5-3.2-5.4 9.3c-3 5.1-7.5 12.4-10 16.2-4.3 6.5-4.5 7.2-4.3 13l.3 6.1-4.1-4-4-3.9 1.5 4.9c.9 2.8 2.5 8.6 3.6 12.9 1.1 4.4 2.8 8.6 3.7 9.3 1.4 1 49.4 1.2 245 1.3H512V0H0zm239.9 54.3c8 8.4 11.2 17.1 16.2 44.4 2.5 14 5.1 21.3 12 34.3 2.7 5.2 4.8 9.7 4.5 9.9-1 1-34.4-33.5-40.9-42.2-3.7-5-8.4-12.3-10.3-16.4-3.3-6.9-7.9-21.9-7-22.8.2-.3 2.6.5 5.1 1.6 2.6 1.2 5.3 2.1 6 2.1 1.2 0 4.5-6.7 4.5-9.1 0-1.8 3.2-5.9 4.6-5.9.7 0 3.1 1.9 5.3 4.1"/><path d="M18.5 325.3c-.4 1.8-.2 4.9.3 6.8.9 3.1 1 2.8 1.1-3.4.1-7.3-.5-8.6-1.4-3.4m9.5 1.8c-.6 1.1-1 2.8-.8 3.7.2 1 .8.1 1.5-2.1 1.2-4.1 1-4.8-.7-1.6m-1.9 7.5c0 1.1.3 1.4.6.6.3-.7.2-1.6-.1-1.9-.3-.4-.6.2-.5 1.3"/></svg>