<svg xmlns="http://www.w3.org/2000/svg" width="682.667" height="512" version="1.0" viewBox="0 0 512 384"><path d="M0 92.8v92.7l3.4 1.9c1.8 1 5 3.4 7 5.3 3.5 3.5 3.7 3.8 3.4 9.7l-.3 6.1-4.7 2.5c-4.7 2.5-4.8 2.6-4.8 7.5 0 4.6 1.3 14.8 2.5 20.3.4 1.4 1.7 2.7 3.5 3.4 3.5 1.2 3.8 3.3 1.6 10C8 263.1 6.7 272.1 6.1 290l-.6 18.5-2.7-.2-2.8-.2v40.6l3 3.8c3.4 4.2 3.9 5.6 1.2 3.3C0 352.2 0 352.1 0 368.4V384h512V0H0zm232.7 53.4c3.3 3.5 6.2 6.7 6.4 7.3.2.5 2.1 3.9 4.1 7.5s5.9 13.3 8.6 21.7c7.9 23.6 10.5 28.6 20.2 38.2 4.6 4.4 8 8.1 7.6 8.1s-3.3-1.7-6.4-3.7c-6.2-4-51.9-48.7-58.2-56.8-4.5-6-10.6-17.3-9.7-18.2.4-.3 3 .6 5.8 2.1 2.9 1.5 5.6 2.3 6.1 1.8s1.3-3.4 1.8-6.5c1.1-7.1 1.5-7.7 4.8-7.7 2.1 0 4.3 1.6 8.9 6.2"/></svg>