<svg xmlns="http://www.w3.org/2000/svg" width="682.667" height="512" version="1.0" viewBox="0 0 512 384"><path d="M0 192v192h512V0H0zm283.8-33.9c15.2 2.9 30.5 9.1 36 14.4 2.3 2.4 4.2 5.1 4.2 6.2 0 2.6-5.6 10-9.5 12.6-1.8 1.2-7.7 5.3-13.2 9.1-30.3 21.4-45.9 30.5-60.8 35.6-7.8 2.6-10.4 3-19.8 3-17.1 0-33-4.8-36.1-10.9-1.9-3.6-1.2-6.3 3.7-13.2 2.2-3.2 3.6-6.2 3.3-6.8-.4-.6-3.8-2.9-7.6-5.1-7.7-4.5-10-7.1-10-11.3 0-4.3 1.4-6.1 8.2-11 14.4-10.2 37-19.2 56.3-22.2 5.5-.9 10.2-1.8 10.4-2.1 1.4-1.3 25.2-.2 34.9 1.7"/></svg>