<svg xmlns="http://www.w3.org/2000/svg" width="682.667" height="512" version="1.0" viewBox="0 0 512 384"><path d="M0 192v192h512V0H0zm282.5-93c.4.6 1.1.7 1.7.4.8-.5.9.3.5 2.5-.5 2.6-.2 3.5 1.9 5.4 6.3 5.4 7.8 14.7 7.1 42.3-1.2 44.8-5.2 69.3-15.6 96.8-6 15.5-15.6 33.5-21.1 39.3-2.7 2.9-7.3 3-13.7.1-3.4-1.5-7.8-2.3-15-2.7-12.8-.8-15.4-2.4-16.6-9.7-1.3-7.8-1.2-41.1.1-48.4 4.7-25.2 10.3-44.2 19.3-65.9 8.9-21.2 16.8-34.4 28.5-47 5.8-6.3 7.4-7.4 12.5-8.8 3.3-.9 5.9-2.2 5.9-2.9 0-1.1 1.4-2.1 3.2-2.3.4-.1 1 .4 1.3.9"/></svg>