<svg xmlns="http://www.w3.org/2000/svg" width="682.667" height="512" version="1.0" viewBox="0 0 512 384"><path d="M0 192v192h512V0H0zm271-96.2c.3 1.3 2.3 3.6 4.4 5 3.1 2.1 4.3 4 6.2 9.2 1.3 3.5 2.6 8.7 2.9 11.5.3 2.7.9 7.5 1.4 10.5 5.6 32.8 5.9 83.5.6 109.5-.8 3.8-1.7 8.6-2 10.5-.7 4.6-9.2 29.5-11.6 34.2-2.3 4.6-4.9 5.4-13.2 4.2-3.4-.4-10.9-.7-16.6-.5-13.7.3-15.6-.5-17.7-7.5-10.3-35.4-9.7-77.4 1.7-122.9 5.4-21.5 12-37.6 20.8-50.7 5.9-8.8 6.3-9.2 12-10.9 2.7-.8 4.6-2 4.9-3.2.7-2.7 5.5-1.9 6.2 1.1"/></svg>