<svg xmlns="http://www.w3.org/2000/svg" width="682.667" height="512" version="1.0" viewBox="0 0 512 384"><path d="M0 192v192h512V0H0zM219.7 91c.5 1.8 1.1 2 5.3 1.5 4.7-.5 5-.4 10.6 4.5 3.1 2.7 6.1 5 6.6 5s1.6 1.6 2.4 3.5 3.4 6.1 5.8 9.3c5.7 7.5 19 28 27.7 42.7 12 20.3 29.5 57.8 35.3 75.6 1.3 4.2 3.6 12.6 5 18.5 1.4 6 3.1 12.5 3.6 14.5.6 2 1 5.5 1 7.7 0 3.4-.5 4.5-3.3 6.6-6.4 4.9-29 16.8-32.8 17.3-3.7.5-4.2.3-10-5.8-7.9-8.3-20.8-24.3-25.5-31.6-10.6-16.5-23.9-45.3-31.7-68.3-11.7-34.6-16-60.9-13.6-82.5.8-7.5 1.1-8.2 4.4-10.8 2.8-2.3 3.5-3.6 3.5-6.3 0-3 .3-3.4 2.6-3.4 1.8 0 2.8.6 3.1 2"/></svg>