<svg xmlns="http://www.w3.org/2000/svg" width="682.667" height="512" version="1.0" viewBox="0 0 512 384"><path d="M0 192v192h512V0H0zm184-94c1.4 3.4 2.3 3.6 7.5 1.4 4.4-1.8 6.9-1.1 14.8 3.7 2.8 1.7 5.8 3.2 6.8 3.4 2.9.6 4.3 1.6 10.6 7.6 3.2 3 8.1 7.3 10.8 9.5 37.5 29.4 75.8 67.7 96.1 96 9 12.7 21.4 33.1 21.4 35.4 0 2.6-5.4 10.2-15.4 21.8-9.1 10.4-12.3 13.2-15.2 13.2-1.5 0-11.9-5-20.9-10-22.7-12.6-49.7-36.8-74.6-67-10.7-13-25.1-34-34.2-50-5.2-9.2-15.7-39.3-15.7-45.3 0-1.5 1-4.7 2.1-6.9 1.9-3.6 2-4.8 1.1-8.7-.9-3.8-.8-4.7.6-5.8 2.4-1.8 2.8-1.6 4.2 1.7"/></svg>