<svg xmlns="http://www.w3.org/2000/svg" width="682.667" height="512" version="1.0" viewBox="0 0 512 384"><path d="M0 192v192h512V0H0zm155.5-75.7 1.2 2.8 4.2-3.5c2.5-2.1 5.4-3.6 6.9-3.6 1.4 0 8.8 2.1 16.4 4.7 12.9 4.3 13.9 4.5 15.6 3 2.2-2 4.3-2.2 3.6-.3-.8 2.1 6.3 5.7 12.1 6.1 2.7.2 5.3.4 5.7.4.4.1 1 1.7 1.4 3.7.4 1.9 1.4 3.8 2.3 4.1s11.5 5.4 23.6 11.3c19.6 9.6 30 15.3 52.5 28.5 18.1 10.7 41.9 27.8 53.5 38.6 2.2 2.1 5.9 5.2 8.2 7.1 7 5.6 8.6 8.3 7.9 13.1-.9 5.5-11.2 32.3-14.3 37.1l-2.5 3.8-5.6-.6c-8.9-1-35.2-7.3-42.2-10-11.5-4.5-15.6-6.4-26-11.6-30.6-15.3-57.7-33.7-85.3-58-13.9-12.2-25.3-25.6-35.1-41.3-7.9-12.5-9-15.8-7.7-21.9.8-3.4.7-4.9-.5-7.3-3.1-6-3.3-7.2-1.7-9.4 1.2-1.9 1.7-2 3-.9.9.7 2.1 2.6 2.8 4.1"/></svg>