<svg xmlns="http://www.w3.org/2000/svg" width="682.667" height="512" version="1.0" viewBox="0 0 512 384"><path d="M0 192v192h512V0H0zm192-68.8c0 .7 1.8 2.1 3.9 3.1 3.1 1.4 4.7 1.5 9.1.7 2.9-.5 5.9-1 6.6-1 1.9 0 3.7 3.9 3.6 7.6-.1 2.9.3 3.4 5.6 5.7 3.1 1.4 8.2 3.3 11.2 4.2 34 10.3 71.4 24.7 96.5 37 16 7.9 43.9 23.8 47.8 27.2 2.4 2.2 2.2 9.4-.8 28.6-3.1 19.5-3.9 21.2-10.1 22.2-5.8.8-24.2-.1-38.9-2.1-31.1-4.1-77.4-21.1-113.2-41.4-23.6-13.5-46.7-29.7-52.1-36.5-1.1-1.4-4.9-5.7-8.5-9.7-13.2-14.9-15.2-18.1-14.3-23.6.4-2.8-.1-4.8-2.6-9.2-2.3-4.2-2.9-6.4-2.4-8.3.6-2.4 3.5-3.9 3.6-2 0 .5 1.2 2.1 2.5 3.6l2.5 2.8 3.8-4.1c3.3-3.4 4.5-4 8-4 4.1 0 23.4 3.8 33.1 6.6 3 .9 5.7 1.2 6.2.7 1.3-1.3-1.3-6.3-3.3-6.3-1.8 0-2.3-1.1-1.1-2.3 1.1-1.2 3.3-.8 3.3.5"/></svg>