<svg xmlns="http://www.w3.org/2000/svg" width="682.667" height="512" version="1.0" viewBox="0 0 512 384"><path d="M0 192v192h512V0H0zm159.7-64.4c-.3.3-1.2.4-1.9.1-.8-.3-.5-.6.6-.6 1.1-.1 1.7.2 1.3.5m44.8 3c2.6 3.4 2.6 3.6.9 4.9-1.6 1.1-1.7 1.4-.4 1.9 1.8.5 17.9 3.2 26.5 4.3l6 .8.3 4.6.3 4.5 10.2 1.3c22.2 2.8 61 9.7 77.2 13.6 10.4 2.6 43.7 12.6 50.7 15.4 1.5.5 3.4 2.3 4.2 3.9 2 3.9 8 40.5 7.2 43.8-.9 3.6-6.6 5.8-23.1 9-12.8 2.6-16 2.8-38 2.8-23.2.1-31.4-.6-52.5-4-26.9-4.3-42.9-8.6-80-21-19.6-6.6-30.7-10.9-35.5-13.8-4.2-2.5-11.9-8.9-19.7-16.4-11-10.7-12.8-12.9-13.6-16.6-.5-2.4-2.7-6.7-5-9.8-2.8-3.7-4.2-6.5-4.2-8.6 0-4.6 1.7-4.8 5.6-.7 1.9 2.1 3.6 3.6 3.8 3.4s1.1-1.9 2-3.6c3.2-6.3 4.5-6.6 25.4-5.9 10.3.3 21.5.9 24.8 1.2 6.1.6 6.1.6 6.7-2.2.6-3.1-.3-4.2-7.7-9-2.8-1.9-3.5-2.9-2.7-3.7s2.8-.5 7.3 1.1c6.1 2.1 6.3 2.1 8.3.3 2.7-2.5 7.5-4.9 10.1-5 1.4-.1 3.2 1.2 4.9 3.5"/><path d="M205.7 140.7c-.2.4-.8 2.2-1.1 3.9-.7 3-.5 3.2 2.6 3.7 1.8.3 7 .9 11.6 1.3l8.2.7v-2.6c0-3.2-1.5-4-10-5.6-3.6-.7-7.5-1.5-8.6-1.8-1.2-.2-2.4-.1-2.7.4"/></svg>