<svg xmlns="http://www.w3.org/2000/svg" width="682.667" height="512" version="1.0" viewBox="0 0 512 384"><path d="M355.2 3.8C352.9 6 351 8.2 351 8.7c0 .7-4.7 1.2-12.7 1.5-10.8.3-13.5.7-17 2.6-5.2 2.7-8.9 2.8-10.2.3-1.3-2.3-9.5-5.9-18-7.7-7.8-1.6-27.8-1.8-35.3-.3-21.4 4.2-31.5 7.6-33.6 11.1-.9 1.5-1.9 2.8-2.2 2.8-1.2 0 .3 7.5 1.7 8.7 1.2.9 1.1 1.2-.8 1.8l-2.3.8 2.4 1.9c1.8 1.4 2 2.2 1.2 3-1.6 1.6-1.5 4.3.3 5.8.8.7 1.3 1.6 1 2-.3.5.4 1.5 1.4 2.3 1.4.9 1.9 2.1 1.6 3.9-.4 2 .5 3.7 4.2 7.8l4.6 5.1-4 7.7c-2.2 4.2-4.6 10.1-5.3 13.1-1.5 6.4-.8 16.9 1.5 21.4.8 1.7 2.9 7.2 4.6 12.2 1.7 4.9 4.2 10.7 5.6 12.8 2.3 3.6 2.4 4.2 1.3 8.7-1 4.2-1.6 4.9-3.8 5.2-2 .2-2.8.9-3 2.8-.1 1.4-.9 5.6-1.7 9.5-4.1 20.1-5.8 27.1-6.9 28.4-.8 1-.8 1.5 0 1.8 4.2 1.4 4.5 2.5 4.9 17.3.4 13.4 2 25.6 2.5 19 .1-1.6.8-.4 1.8 3.5l1.6 6 1.8-12.6c1-7 2.6-16.2 3.6-20.5 1.6-7.2 2-7.9 4-7.6 1.9.3 2.2 0 1.7-2.1-.7-2.7 7-33.5 8.9-35.5 1-1 1.7-.3 3.5 3.7l2.4 4.9-2.2 7.1c-1.2 3.9-2.4 11.3-2.8 16.5-.3 5.2-.9 9.8-1.2 10.3s-1.9 1.7-3.4 2.7c-3.9 2.4-5.8 7.4-6.1 16-.3 5.8-.8 7.8-3.1 11.1-2.5 3.7-2.6 4.5-2 10 .4 3.3.6 14.5.5 25-.1 19-.1 19-2.6 20.9-3.3 2.4-6.4 8.7-6.4 12.9 0 2.5.9 4.2 3.5 6.7 2.7 2.6 3.5 4.2 3.5 6.9 0 2 .1 11.9.2 22l.3 18.4-5.4 6.1c-3 3.4-7.4 8.1-9.7 10.6s-6.8 7.6-9.9 11.5l-5.7 7 83.8.3c46 .1 83.9 0 84.2-.3.3-.2-.5-5.3-1.7-11.2-2.5-12.6-2.7-25.2-.6-35.5 2.1-10.8 7.8-30.8 8.7-30.8.5 0 1.6 1.5 2.5 3.4 1.6 3.4 1.5 3.5-1.9 10.3-3.2 6.2-3.4 7.3-2.4 10.4.6 1.9 2.1 3.8 3.4 4.4 1.2.5 2.5 1.7 2.8 2.7.3.9.7 8.6 1 17s.7 17.5 1 20.3c.3 2.7.6 6 .7 7.2.2 2.3.4 2.3 14.2 2.3h14l.3-4.6c.2-3.5-.1-4.9-1.5-6-1.7-1.3-1.7-1.3 0-1.4 1.4 0 1.7-.5 1.1-2.3-1.1-3.3-1.2-15-.2-16.4.7-.8 2.5.6 6.2 4.6l5.3 5.8-1.3 6.9c-.7 3.8-1.3 8.4-1.4 10.1v3.3h38.5c21.2 0 38.5-.2 38.5-.4 0-1.6-7.6-17.9-11.3-24.3-2.4-4.3-6.1-11-8.2-14.8-9.4-17.3-14.5-24.4-23.6-32.8l-9-8.3-.6-10c-.6-9.2-.8-10.1-3.5-12.5-3.6-3.5-11.3-5.4-16.2-4.1-3.5 1-3.6.9-4.5-2.1-.9-3.2-1-3.1-2.6 1.9-.3.8-.9 1.3-1.5.9-1.2-.7-10.5-15.7-17.1-27.7-2.8-5.1-6.8-11.5-8.8-14.3-4.5-6.1-6.1-9.2-6.1-11.5 0-1-.9-2.8-1.9-4.1-1.2-1.5-1.6-3-1.1-3.9.4-.8 1.1-4.4 1.4-7.9.4-3.5 1.8-9.8 3.1-14 5.2-16.9 9.8-36.7 11-47.9.5-4.3 1.2-6.5 2.4-7.1.9-.5 6-.7 11.3-.6 9.7.4 9.8.4 12.8-2.6 5.9-5.9 3.6-12.3-13.1-36.8-5.4-7.9-9.7-14.7-9.5-14.9s1.7.3 3.3 1.1c4.4 2.3 14.7 4.9 17.9 4.5 1.9-.2 2.9-.9 2.9-2 0-.9.4-2 .8-2.4 1.1-1.1.9-4.4-.3-4.4-.5 0-1-.5-1-1 0-.6.6-1 1.4-1 2 0 3.1-1.9 1.8-3.2-.8-.8-.7-1.9.3-3.8 1.6-3 1.6-11.1.1-12.2-.6-.4-.6-1.5.1-3.1.8-1.7.8-3.6.1-6.3-.5-2.2-1.1-6.8-1.3-10.4-.1-3.6-1-8.5-1.8-11-1.1-3-1.3-4.6-.6-5.1.7-.4.2-2.8-1.4-6.9-1.4-3.4-2.3-6.8-2.1-7.5.3-.7 0-1.6-.5-2-.6-.3-1.8-2.2-2.6-4.1L424.1 0h-64.8zM244 124.2c-.1 2.8-.2 3-1.1 1.5-.6-1-.8-2.5-.5-3.3.9-2.4 1.6-1.6 1.6 1.8"/></svg>