<svg xmlns="http://www.w3.org/2000/svg" width="682.667" height="512" version="1.0" viewBox="0 0 512 384"><path d="M0 192v192h512V0H0zm194-58.9c2.1 2.1 2.9 3.7 2.5 5-.6 1.7-.1 1.9 4.2 1.9 2.6-.1 8.4-.8 12.8-1.6 15.7-3 18-3.4 19.8-2.8 1 .3 1.4 1 1 1.7s-.6 4-.4 7.4c.1 3.4-.3 7.9-.9 9.8-.7 2-1 3.8-.8 4.1.3.2 8.7-.3 18.9-1.1 37.7-2.9 62.9-3.7 88.2-2.5 13.3.6 26.1 1.5 28.3 2.1 4.5 1.2 4.2.7 18.9 24.8 8.9 14.4 9.3 15.6 6.8 18.9-3.2 4.4-22.2 13.7-40.8 20.2-12.3 4.3-35.2 8.4-62 11.2-24.9 2.5-92.7 1.5-124-2-14.3-1.6-34.7-16.2-54.4-39.1-6-7.1-7.8-10.7-6.7-13.6.8-2.2 1.9-1.9 5.4 1.5 1.8 1.6 3.4 3 3.6 3s.7-1.3 1.1-2.9c.7-3.1 3.9-6.5 7-7.5 3.1-.9 14.5-2.4 31.9-4.1l15.9-1.6 3.4-3.7c2.1-2.4 3.1-4.4 2.8-5.7-.3-1.1-.5-2.8-.5-3.8 0-.9-.6-1.7-1.3-1.7-.8 0-4.2-1.4-7.8-3.1-6.3-3.1-6.5-3.1-17.3-2.5-8.7.6-10.7.5-10.4-.6.4-1 5.2-1.5 19.4-2.1 10.4-.4 19.5-1 20.2-1.2.6-.2 1.2-1.5 1.2-2.7 0-2.6 6.4-8.7 9.2-8.8.9 0 3 1.4 4.8 3.1"/><path d="m208.1 141.4-8.4 1.1-1.5 4.4c-.9 2.7-2.2 4.5-3.4 4.9-2.1.5-1.8 2.4 1.4 7.8 1.6 2.7 2.4 3.2 4.6 2.9 1.5-.3 6.5-1 11.1-1.5 4.7-.5 8.9-1.4 9.5-2 1.7-1.7 1.9-11.3.3-15.3-1.8-4.1-1.1-4-13.6-2.3m-37.6 3.6c-.7 1.1 3.9 2.5 5.4 1.5.6-.3 1.1-1 1.1-1.6 0-1.2-5.7-1.2-6.5.1m18.5 17c0 1.3.5 2 1.3 1.7.6-.2 1.2-1 1.2-1.7s-.6-1.5-1.2-1.8c-.8-.2-1.3.5-1.3 1.8"/></svg>