<svg xmlns="http://www.w3.org/2000/svg" width="682.667" height="512" version="1.0" viewBox="0 0 512 384"><path d="M0 192v192h512V0H0zm192.2-58.3c1.5 1.5 2.8 3.7 2.8 5 0 1.7.6 2.3 2.3 2.3 2.8-.1 18.4-3.3 26-5.4 8.7-2.4 9.5-2.2 9.8 2.1.6 10.1.2 16-1.4 19.2-.9 1.9-1.5 3.6-1.3 3.8s7.5-.6 16.2-1.7c40.1-5.2 52.6-6.2 85.5-6.7 21.9-.4 33.3-.2 34.6.5 2 1.1 3.7 3.3 17.4 21.6 9.2 12.4 9.8 13.5 9.9 16.7 0 3.3-2.8 5.5-17.5 13.9-21.8 12.4-40.6 18.4-75 24-36.3 5.9-66.2 7.9-106.4 7.3l-32.4-.6-9.6-4.7c-12.2-6-23.1-14.2-34.8-26.3-10.1-10.4-14.3-16-14.3-18.9 0-3.3 2.9-3.3 6.5.2l3.4 3.3 1.1-4.2c.6-2.3 2.1-4.7 3.3-5.5 2.9-1.8 18.2-4.6 41.7-7.6 6.9-.9 8.8-1.5 10-3.3.8-1.1 2.5-3.2 3.8-4.6 1.9-2.1 2.2-3.2 1.7-6.1-.9-4.5-1.2-5-3.7-5-1.1 0-4.6-1.2-7.8-2.6l-5.7-2.6-9.9 1.5c-5.7.9-10.3 1.1-10.8.6-1.8-1.6.5-2.3 10.2-3 16.3-1.3 29-2.7 30.2-3.4.6-.4.8-1.5.5-2.6-.5-1.4.5-3 3.7-5.9 2.4-2.2 5-4 5.7-4 .8 0 2.8 1.2 4.3 2.7"/><path d="m205.9 141.7-7.7 1.5-.6 4c-.5 2.9-1.2 4.2-2.7 4.5-1.7.5-2 1.1-1.5 3.5.3 1.6 1.5 4.1 2.5 5.4 1.1 1.4 1.7 3.2 1.4 4-.6 1.7-1 1.7 10.6-.1 12-1.8 13.3-3 13.9-12 .3-3.9-.1-7.7-.8-9.5-1.4-3.5-2.9-3.6-15.1-1.3m-34.6 5c-1.8.2-3.3.8-3.3 1.3 0 1.4 5.1 2.1 6.6.9s1.9-3 .7-2.7c-.5 0-2.3.3-4 .5m17.3 16.6c-.6 2.6-.2 3.1 1.9 2.4 1.9-.8 2-3.3.1-4-.9-.4-1.6.3-2 1.6"/></svg>