<svg xmlns="http://www.w3.org/2000/svg" width="682.667" height="512" version="1.0" viewBox="0 0 512 384"><path d="M0 192v192h512V0H0zm232.5-54.1c.3 3.5.6 6.6.8 6.8.9.8-2.4 13.9-4.3 17-2.2 3.8-2.1 3.9 7 1.7 34.7-8.2 68.1-14.1 99.2-17.5l20.7-2.3 3.8 2.7c2.1 1.5 10 8.7 17.6 16 15.9 15.5 16.3 16.3 9.5 22.8-7.3 6.8-21.8 16.6-33.1 22.3-14.9 7.6-51.1 19.2-81.3 26.1-21.7 5-40 7.8-45.7 7.1-2.6-.4-9.8 0-16 .8-6.1.8-14.5 1.8-18.6 2.2-4.1.3-9.2 1.2-11.4 2-5.5 2-10.7 1.7-16.3-.6-2.6-1.2-5.5-1.9-6.3-1.7-2 .4-12.8-5.2-20.6-10.8-6.7-4.8-27.6-25.5-30.7-30.4-1.1-1.7-1.7-3.8-1.4-4.6.8-2.1 4-1.9 6.1.5 2 2.2 3.5 1.8 3.5-.9 0-4.7 8.2-7.8 35-13.1 17.1-3.4 18-3.7 19.5-7.4.8-1.9 2.6-4.8 4.1-6.6 2.4-2.8 2.6-3.6 1.8-6.8-.6-2.5-1.5-3.8-2.9-4-1.1-.1-5.2-1.2-9.1-2.4l-7.2-2.1-8.8 2.1c-11.9 2.9-12.9 3-12.9 1.3 0-1.1 3.2-2.1 11.5-3.7 16.9-3.4 16.9-3.4 24.8-5.1l7.4-1.6-.6-3.1c-.4-2.6.2-3.9 3.4-7.5 3.7-4.3 3.9-4.4 6.9-3.2 1.7.7 4.2 2.8 5.6 4.7s3.4 3.4 4.3 3.4c2 0 13.5-3.7 24.7-7.9 4.4-1.6 8.4-2.9 8.8-2.8.5.1 1 3.1 1.2 6.6"/><path d="M208.5 141.5c-3.8 1.3-7.7 2.4-8.6 2.4-1.1.1-1.9 1.4-2.3 4.1-.3 2.2-1.5 4.8-2.6 5.7-2.7 2.3-2.5 3.6 1 7.6 3.5 4.1 3.7 5.1 1 8.4-1.1 1.5-1.8 2.8-1.6 3 1 1 19.9-4.7 21.2-6.4 5.2-6.4 6.6-14.5 3.8-22.6-1.8-5.4-2.1-5.5-11.9-2.2m-39.7 10.2c-3.5.5-3.6 2.1-.2 2.9 1.9.5 3.1.1 4.7-1.5 2.4-2.3 2.2-2.4-4.5-1.4m20.9 13c-.8 1.6-.6 6.3.2 6.3.5 0 1.6-1.1 2.4-2.4 1.2-1.7 1.3-2.6.4-3.5-1.3-1.3-2.4-1.4-3-.4"/></svg>