<svg xmlns="http://www.w3.org/2000/svg" width="682.667" height="512" version="1.0" viewBox="0 0 512 384"><path d="M0 192v192h512V0H0zm232.9-57.2c.2 2.6.4 8.2.4 12.5 0 6.9-.3 8.4-3.5 14.7l-3.6 7 2.6-.6c1.5-.4 3.4-1 4.2-1.4 2.4-1.3 44.2-13.6 59-17.4 18.5-4.8 46.6-10.6 51.5-10.6 3.5 0 6.1 1.3 17.1 8.6 15.2 10.2 23.3 16.3 24.8 18.6 1.3 2.2-.1 4.9-6.2 11.5-14.8 16-30.3 26.2-56.7 37.3-5.5 2.3-14.8 6.4-20.7 9.1-20.7 9.4-49.3 17.9-60.1 17.9-3.2 0-9.3.9-13.5 2-4.3 1-11.5 2.6-16.2 3.4s-12.3 3.2-17 5.2c-9.3 4.1-15.9 4.7-23 2.4-3-1-4.3-1-5.3-.1-1.8 1.4-11.5-2.7-21.4-9.2-7.7-5.1-29.4-25.4-33.8-31.7-2.6-3.7-2.7-4.2-1.3-5.6 1.3-1.3 2-1.4 3.8-.4 2 1.1 2.5.9 4.7-1.8 2.5-3.3 4.2-3.9 37.3-13.7 6.9-2 13.1-4.1 13.7-4.7.7-.5 1.5-2.5 1.9-4.4.3-1.8 1.9-5.4 3.5-7.9 3.3-5.1 3.4-6.2 1.6-9.7-1-2-1.7-2.3-3.4-1.7-1.3.5-4.3.2-7.5-.7-2.9-.9-6.2-1.8-7.3-2.1-1.1-.2-6.5 1.2-12 3.1-11.1 4-12.5 4.2-12.5 2.2 0-.9 2.2-2.1 5.8-3.1 15.5-4.4 19.2-5.6 19.7-6.5.3-.6 1.8-1 3.2-1 1.3 0 5.8-1.2 9.9-2.6 6-2.2 7.4-3 6.8-4.3-1.6-3.9-1.5-5.2.7-7.9 1.3-1.6 2.9-3.7 3.5-4.7 1.4-2.5 4.9-1.4 11 3.4l4.9 3.9 7.5-3.2c4.1-1.8 10.9-4.9 15-6.9 9.8-4.9 10.4-4.8 10.9 1.1"/><path d="M208.5 142.1c-3.8 1.6-7.3 3.3-7.8 3.8s-1 2.8-1.2 5.2c-.2 3.3-.8 4.5-2.4 5.1-1.2.4-2.1 1-2.1 1.3 0 1.4 3 6.2 4.9 7.9 2.8 2.5 2.7 3.5-.8 8.3-1.6 2.3-2.7 4.3-2.5 4.6.3.3 4.6-.8 9.5-2.5l8.9-3 3.7-6.6c3.2-5.6 3.8-7.6 3.8-12.7 0-3.3-.6-7.9-1.4-10.3-1.7-5.1-2.8-5.2-12.6-1.1m-39 14.5c-6.1 2.3-6.6 3.4-1.2 3.4 3.6 0 4.9-.4 5.7-1.9 1.9-3.6 1.5-3.7-4.5-1.5"/><path d="M192 170.7v4.8l2-2.5c2.4-3 2.5-5.6.4-6.4-2.4-.9-2.4-.9-2.4 4.1"/></svg>