<svg xmlns="http://www.w3.org/2000/svg" width="682.667" height="512" version="1.0" viewBox="0 0 512 384"><path d="M0 192v192h512V0H0zm233.5-62.1c.3.5.1 1.2-.4 1.5s-.3 3.1.5 6.3c2.1 9.2.1 21.4-4.9 28.6-1 1.6-1.7 3-1.5 3.3.3.2 5.6-1.4 11.9-3.7 38.1-13.8 89.4-28.9 98.3-28.9 4.2 0 7.1 1.4 25.1 11.8 16.4 9.6 19.5 11.9 19.5 14.6 0 3-8.8 14.2-17.8 22.8-12.7 11.9-17.8 14.9-62.2 37.3-19.8 10-43.9 18.5-52.4 18.5-3 0-8.2.9-11.7 2-3.5 1-10.4 2.9-15.4 4-5.4 1.3-13.1 4.1-19.3 7.1-11.4 5.7-19 7.1-25.6 4.9-2.8-.9-4.1-.9-4.9-.1-1.9 1.9-5.1 1.2-14-3.3-11.2-5.6-16.8-10-32.8-25.7-10.2-10.1-13-13.4-12.7-15.1.2-1.8.9-2.3 3.2-2.2 2 0 3.8-.9 5.5-2.8 2-2.1 6.9-4.1 21.1-8.9 31.1-10.3 28.7-9.1 30.6-15.7.9-3.1 2.7-7.4 4-9.4 1.3-2.1 2.4-4.5 2.4-5.4 0-2.2-3.7-6.7-4.5-5.4-.9 1.5-5 1.2-11.7-.6l-5.7-1.6-10.5 4.2c-9.8 3.9-13.2 4.4-12.3 1.7.2-.6 5.5-2.8 11.8-4.9 23.2-8 27.5-9.5 31.1-11.2s3.6-1.8 2-4.5c-1.5-2.7-1.4-3 1.8-7.9 3.7-5.7 5.1-6.2 9.5-3.1 1.7 1.1 3.9 2.4 5 3 1.1.5 2.7 1.4 3.5 2 1.6 1.1 6.3-.9 23.9-10.6 6.6-3.6 8.6-4.2 9.6-2.6"/><path d="M209.3 142.6c-5.3 2.5-7.3 4-7.3 5.4 0 1-.4 2.1-.9 2.5-.5.3-.8 1.6-.5 2.9.3 1.8-.1 2.6-1.6 3.1-1.1.3-2 1.1-2 1.6 0 1.4 2.2 4.9 4.8 7.5 2.8 3 2.8 4.6-.3 9.2-1.4 2-2.5 4-2.5 4.4 0 1.4 3.2.8 10.1-1.9 6.7-2.6 6.8-2.7 10.5-9.9 3.2-6.3 3.7-8.3 3.7-14.1 0-7.9-2.2-14.3-5-14.2-1 0-5.1 1.6-9 3.5M170 159.3c-4.5 1.7-5.1 2.1-3.5 2.8 3.4 1.3 6.1 1 7.9-1 3-3.3 1.4-4-4.4-1.8"/><path d="M194 172c0 4.7.9 5.1 3.2 1.2 1.3-2.2 1.4-3.2.6-4-2.4-2.4-3.8-1.3-3.8 2.8"/></svg>