<svg xmlns="http://www.w3.org/2000/svg" width="682.667" height="512" version="1.0" viewBox="0 0 512 384"><path d="M0 192v192h512V0H0zm241.8-64.3c.9 15.6.3 28.1-1.6 34-1.1 3.5-1.9 6.3-1.7 6.3.1 0 5.1-3 11.1-6.6 18-11 47.7-25.4 52.3-25.4 5.1 0 43.4 8.6 48.9 11 2.7 1.2 4.2 2.5 4.2 3.7 0 3.9-5.1 20.6-8.1 26.5-5.7 11.4-19.5 26.3-36.9 39.9-4.1 3.3-11.3 9.1-16 12.9-5.9 4.9-9.3 7-11.2 7-1.5 0-5.7 1.9-9.5 4.4-3.7 2.4-8.8 5.3-11.2 6.6-2.4 1.2-7.3 5-11 8.4-13.8 13-28.1 21.4-38 22.3-4.5.4-6.3 1.2-8.9 3.6l-3.2 3.1-5.8-1.9c-14.7-4.8-25.1-12.6-37.2-27.8-4.9-6.2-10.3-12.2-11.9-13.5-2.3-1.7-3.1-3.1-3.1-5.3 0-3.9 1.8-5.5 18.8-16.3 7.3-4.7 16.1-10.7 19.5-13.2 3.4-2.6 6.4-4.9 6.6-5 .2-.2 1-3.1 1.8-6.5s2.5-8.3 3.9-11c2.7-5.4 3-9.5.9-12.2-1.3-1.8-1.4-1.8-3.6.4-2 2-2.8 2.1-10.3 1.6l-8.2-.6-9.2 6c-7.9 5.1-9.5 5.8-11.3 4.8-2.6-1.3-2.8-1.1 11.8-9.3 5.6-3.1 10.5-6.1 10.8-6.7.4-.5 2.3-1.6 4.3-2.5 2-.8 7.2-3.8 11.4-6.6l7.8-5.2-2.1-2.2c-1.6-1.7-2-3-1.5-5.1.4-1.5.7-3.8.7-5-.1-1.2.8-2.9 2-3.6 1.7-1.3 2.6-1.3 6.7 0 2.6.8 7.1 1.6 9.9 1.7 5.1.3 5.5.1 11-4.9 7-6.2 14.2-11.5 15.7-11.5.7 0 1.3 1.7 1.4 3.7"/><path d="M223.3 140.1c-3.1 2.3-5 4.5-4.7 5.2.3.8-.2 2-1 2.7-1.4 1.1-1.4 1.5.5 4.1l2 2.8-2.7.7c-1.5.4-3.5.2-4.5-.5-2.3-1.4-2.9-1.4-2.9-.1 0 .6 1.1 1.6 2.5 2.2s2.4 1.6 2.3 2.2 1.4 2.9 3.5 5.1c4.6 5 5.3 7.4 3.2 11.5-.9 1.7-1.5 3.4-1.3 3.6s2-.7 3.9-2c6.5-4.5 10.5-20.7 8-32.7-1.9-9-2.7-9.4-8.8-4.8m-39.8 27.2-5 3.2 3.4.3c3.5.4 8.1-2.8 8.1-5.5 0-1.9-.9-1.6-6.5 2m29 7.9c.2 6.3 1.5 6.6 3.2.7 1-3.4 1-4.5 0-5.1-2.7-1.7-3.4-.7-3.2 4.4"/></svg>