<svg xmlns="http://www.w3.org/2000/svg" width="682.667" height="512" version="1.0" viewBox="0 0 512 384"><path d="M0 192v192h512V0H0zm250.5-61c.4 6 .4 14.1 0 18.1l-.7 7.1 5.8-3.7c3.3-2.1 6.6-4.3 7.4-5s3.4-2.2 5.7-3.4c4.7-2.4 9.3-2.6 22.2-1.1 4.7.5 13.1 1.4 18.6 2s12.6 1.5 15.9 2.2c5.2 1 6 1.4 7.2 4.4.8 1.9 1.7 8 2 13.7.8 12-.5 17.6-6.7 30.1-7.1 14.2-16 24.8-33.2 39.5-6.6 5.6-13.7 12.5-15.9 15.4-2.2 2.8-9.5 10.6-16.2 17.2-12.8 12.5-19.8 17.2-27.4 18.2-3 .4-5 1.6-7.8 4.5-3.7 4-3.8 4-9.3 3.3-7.8-1-11.6-3.2-20.8-12.2-4.4-4.3-10-9.6-12.4-11.8-3.1-2.8-5.5-6.3-7.8-11.5-2.7-6.2-4-7.9-6.9-9.5s-3.8-2.7-4-5.2c-.4-3.7 3.2-10.5 7.5-14.5 3.2-2.8 6.6-6.6 13.7-15.3 2.7-3.3 7.7-8.9 11.1-12.5 5.5-5.8 7.7-9.1 12.5-19.2 1.2-2.6.9-10.2-.4-11.6-.4-.3-2.1.9-3.9 2.6-2.7 2.6-4.1 3.2-7.6 3.2-2.3 0-5.1-.5-6.2-1.1-1.7-.9-3.2 0-9.9 5.5-5.2 4.3-8.8 6.6-10.5 6.6-3.8 0-3-2.2 2.3-5.7 10.9-7.4 13.8-9.5 15.2-11.2.8-.9 3.2-2.7 5.3-4s6.8-4.8 10.5-7.8c6.6-5.4 7.4-7.1 5-10.1-.6-.6-1.2-3.4-1.4-6.2-.3-4.4-.1-5.2 2.2-6.6 1.8-1.2 2.8-1.4 3.6-.6.7.7 1.9.7 3.5.1s3.1-.5 4.4.2c3.1 1.6 11-.4 12.9-3.3 2.2-3.3 11.2-11.8 12.6-11.8.8 0 1.4 3.5 1.9 11"/><path d="M236.1 135.4c-1.6 1.7-2.1 3.1-1.6 4.6.4 1.2.1 3-.9 4.4-1.3 2.1-1.3 2.6-.1 4.2 2.5 3.2 1.8 4.5-2 4s-4.8.8-1.4 1.7c1.1.3 1.9 1.1 1.7 1.9-.2.7.6 2.2 1.7 3.4 1.1 1.1 2.5 2.8 3 3.8.9 1.5 1.2 1.5 2.9.3 1.6-1.2 2-3 2.4-10.1.4-8.3-1.2-20.6-2.8-20.6-.3 0-1.7 1.1-2.9 2.4m-36 31.5c-3.7 3.5-3.8 4.1-.8 4.1 1.4 0 2.9-1 4-2.9 3-5.1 1.6-5.6-3.2-1.2m30.4 2.1c-.3.5-.1 1 .4 1 .6 0 1.1-.5 1.1-1 0-.6-.2-1-.4-1-.3 0-.8.4-1.1 1"/></svg>