<svg xmlns="http://www.w3.org/2000/svg" width="682.667" height="512" version="1.0" viewBox="0 0 512 384"><path d="M0 192v192h512V0H0zm257.5-59.6-.2 15.3 17.6.7c20.8.8 36.7 2.3 39.3 3.7 2.1 1.1 5.6 7.7 8.8 16.9 5.4 15 1 38.3-10.4 55-1.6 2.4-7.1 8.7-12.1 14-5 5.2-10.2 11.3-11.5 13.5-3.7 6.1-13.4 18.7-19.7 25.5-6.5 7-11.6 10.3-19 12-4 .9-5.8 2-7.9 4.7l-2.7 3.5-7.5-.6c-9-.8-10.3-1.5-13.2-6.1-1.3-2.1-4.2-4.6-6.9-6-2.5-1.3-6.1-3.6-7.8-5.2-4.4-3.8-9.9-13.4-12.3-21.2-1.5-4.9-2.9-7.4-5.9-10.1-5.1-4.7-5.9-8-3.6-14.5 2.6-7.5 10.1-22.1 15.3-29.9 4.9-7.4 20.5-26.8 24.1-30 2-1.8 3-6.6 1.4-6.6-.5 0-2.1 1.6-3.7 3.6-2.9 3.7-2.9 3.7-9.1 3.1l-6.2-.6-5.9 6c-4.6 4.6-6.4 5.8-8.4 5.6-1.4-.2-2.5-.9-2.5-1.4 0-.6 3.4-3.8 7.6-7.1s8.6-7.4 9.8-9.1c1.3-1.7 2.8-3.1 3.5-3.1.6 0 4.4-2.9 8.3-6.5l7.2-6.6-.5-5.1c-.3-2.8-.9-5.9-1.4-6.9-1.6-2.9-1.1-5.6 1.3-7.2q2.4-1.5 3.9-.6c1.1.6 2.6.5 4.2-.2 1.9-.9 3.2-.9 5.5 0 3.8 1.6 6.1.4 10.1-5.3 3.2-4.7 7.5-8.6 9.5-8.6.8 0 1.1 4.1 1 15.4"/><path d="M247.1 132.6c0 1.1.3 1.4.6.6.3-.7.2-1.6-.1-1.9-.3-.4-.6.2-.5 1.3m0 6.9c-1 3.6-1.1 5.2-.3 6.6 1.4 2.2-.9 4.4-3.5 3.5-1.1-.4-.8.1.7 1.3 3.9 3.1 5.2 1 4.8-8.4l-.3-7.8zm-32.5 24.4c-.9.9-1.6 2.3-1.6 3s-.4.9-1 .6c-.5-.3-1-.1-1 .4 0 2.1 2.7 1.1 4.8-1.8 2.4-3.3 1.4-5.1-1.2-2.2"/></svg>