<svg xmlns="http://www.w3.org/2000/svg" width="682.667" height="512" version="1.0" viewBox="0 0 512 384"><path d="M0 192v192h512V0H0zm267.2-77.4c-1.2 6.4-1.3 9.2-.3 9.8 1.5.9 1.4 7.1-.1 9.5-.9 1.5-.9 2.5 0 4.6.7 1.5.9 3.2.5 3.8-1 1.7-.5 6.1 1.2 9.4.8 1.5 1.5 3.4 1.5 4 0 1.5 2.2 2 10.8 2.6 7.6.6 10.3 2.3 19 12.1 9.4 10.5 13.5 17.1 17.2 28.2 2.9 8.5 3.4 11.3 3.4 19.9.1 13.6-2 20.5-8 26.1-2.9 2.8-5.6 6.7-8 12-5.3 11.8-10.4 21.5-13.2 25.2-3.3 4.4-10.2 8.3-17.9 10.2-3.4.8-6.2 1.9-6.1 2.5.2 1.4-4.4 2.2-12.2 2.4-6.3.1-9.5-.8-8.8-2.4.1-.4-3.2-1.7-7.4-2.9-4.2-1.3-9.3-3.3-11.3-4.7-5.7-3.9-12.2-14.4-19.4-31.2-1.2-2.7-4.3-7-7-9.6-6.1-5.9-8.1-11.7-8.8-25.6-.9-16.5 3.8-30 15.5-44.6 9.9-12.5 17.1-17.9 23.9-17.9.6 0 2.8-1.9 4.8-4.3 4-4.6 7-9.7 5.8-9.7-.5 0-.7-2.1-.4-4.6.2-2.5-.2-5.1-.8-5.7-3.5-3.5 1.7-11.9 6-9.6 1.3.6 2.5.6 3.8-.1 1.1-.5 3-1 4.3-1 1.6 0 3-1 4.2-3.3 3.9-6.8 8.6-9.9 7.8-5.1"/></svg>