<svg xmlns="http://www.w3.org/2000/svg" width="682.667" height="512" version="1.0" viewBox="0 0 512 384"><path d="M0 192v192h512V0H0zm273.2-80.5c-.2 1.1-.6 3.3-.9 4.8-.5 2.7-.4 2.8 3.2 2.5 5.2-.4 6.2 1.4 4.5 8.6-1 4.3-1 5.8-.1 7 1 1.1.9 1.6-.4 2.3-1.6 1-1.1 4.3.7 4.3.5 0 .8 1 .7 2.2-.1 1.3.1 3 .4 3.8.4.8 1 7.3 1.5 14.4.9 12.7.9 12.9 3.8 15 17.8 13 35.8 35.4 41.3 51.8 3 8.8 2.8 10.6-2 15.4-3.2 3.2-5 6.8-8.8 16.8-8.7 22.8-14 28.8-26.4 30.1-32.7 3.3-37.8 3.6-41.6 2.4-9.6-3.2-17.6-11.3-30-30.6-5.9-9.2-11.6-16.5-16.9-21.8-12.3-12.4-17-23.9-15.8-38.9.7-9.4 3.1-15.1 10.9-25.7 6.7-9.1 8.1-9.6 25.8-10.5 6.8-.3 13.3-.8 14.4-.9 1.1-.2 2.8-.4 3.7-.4 1-.1 2.1-1.6 2.8-3.9.7-2 2.4-5.1 3.9-6.7 4.3-4.9 6-8.8 6.6-15.5.4-5 .1-6.7-1.1-8.1-3.9-4.3 1.7-13.5 6.5-10.9 2.9 1.5 5.4-.3 8-5.7 1.5-3.1 2.7-4.3 3.9-4.1 1.1.2 1.6 1.1 1.4 2.3"/><path d="M256 160.1c-.6 1.1-1 2.7-.8 3.6.3 1.5.5 1.5 2.1-.1 1.8-1.9 2.3-5.6.7-5.6-.5 0-1.4.9-2 2.1"/></svg>