<svg xmlns="http://www.w3.org/2000/svg" width="682.667" height="512" version="1.0" viewBox="0 0 512 384"><path d="M0 192v192h512V0H0zm275.3-80.4c-.2 2.5.3 3.3 2.3 4.3 2.1.9 3 .9 4.1-.1 1.3-1 1.9-.8 3.4 1 1.5 1.9 1.7 3.4 1.2 9.5-.3 4-.9 7.4-1.3 7.7-1.7 1.3-1.8 3.9-.1 4.5 1.1.3 1.9 1.6 1.9 3.3.1 1.5.4 4.5.7 6.7.2 2.2.7 9.3 1 15.7.5 10.8.8 12.3 3.9 18.8 2.5 5 5.1 8.5 8.8 11.7 15.9 13.9 35.8 36.9 35.8 41.4 0 1-1.4 3.1-3.1 4.6-3.8 3.4-5.8 7.3-9.4 18.3-3.6 10.9-8.5 20.8-12.2 24.1-3.4 3.2-3.8 3.3-27.3 5.9-10.2 1.1-21.3 2.5-24.8 3.1-6 .9-6.6.8-11.4-1.8-2.7-1.5-7.3-4.8-10-7.3-5.5-4.9-21-23.1-27.3-32-2.1-3-8.2-9.8-13.6-15-10.2-10-12.9-14.2-15.4-23.7-1.9-7.2-1.9-13.6-.1-19.7 1.7-5.6 10-19.2 12.6-20.6 3.1-1.7 14.8-2.9 33.6-3.6 9.8-.3 18.5-.7 19.2-1 1.5-.4 3.1-4.4 4.3-10.4.5-2.4 1.6-4.8 2.4-5.3 4.4-2.4 8-19.4 5-23.3-1.8-2.3-1.9-5.8-.4-8.7 1.7-3.2 3-3.8 6.4-3.2 2.8.5 3.1.2 4.9-4.1 2.2-5.4 5.3-5.9 4.9-.8"/><path d="M261.4 159.6c-.9 2-2.8 4-4.1 4.5-3.4 1.3-3 3.9.6 3.9 1.6 0 3.7.3 4.6.6 1.3.5 1.6 0 1.5-2.7 0-1.9.2-4.9.6-6.7.9-4.4-1-4.2-3.2.4"/></svg>