<svg xmlns="http://www.w3.org/2000/svg" width="682.667" height="512" version="1.0" viewBox="0 0 512 384"><path d="M0 192v192h512V0H0zm279.4-83.2c-.2 2.9 0 3.1 1.8 2.1 1.1-.6 3.4-.8 5.2-.5 1.7.4 3.8.7 4.6.7 5.5.2 6 .7 5.9 6.7-.1 3.1-.6 6-1.1 6.3-.7.4-.7 1.3 0 2.5 1.1 2.2.5 4.7-.9 3.8-1.6-.9-1 1.9.9 3.9 1.9 2.2 2 2.3 2.5 21.3.3 12.7.6 14.6 2.9 19 1.4 2.7 3.3 7.4 4.2 10.4s3.1 8.6 4.9 12.3c3.1 6.8 3.1 6.9 1.2 8.4-2 1.4-1.9 1.5.9 3.8 4.3 3.5 6.5 3.8 7.6 1 .9-2.2 4.9-5.6 8.2-6.8 1.2-.4 2.4.3 3.9 2.1 1.8 2.3 2 3.7 1.7 9.4l-.4 6.8h8.1c9.3 0 10.5.7 10.5 6.2 0 3.2-.7 4.6-3.8 7.6-4.1 4-4.4 4.7-9.2 19.9-3.7 11.9-9.4 22.1-13 23.5-1.4.5-4.3 1.3-6.5 1.8s-7.1 1.6-11 2.5c-4.3 1-8.9 1.4-12 1-3.2-.3-11.2.4-22 2-9.3 1.4-17.9 2.3-19.1 2.1-1.1-.3-7.4-4.1-14-8.4-9.1-6.1-14.9-11-24.7-20.8-14.2-14.4-22.8-22.4-30.3-28.2-15.7-12.2-20.8-28.2-13.7-43.4 2.2-4.6 4-7.1 6.1-8.2 3.2-1.7 14.4-2.8 44.2-4.7l19.5-1.2 11.4 5.2c7.4 3.3 11.8 4.8 12.4 4.2.5-.5 1.5-4.9 2.1-9.7.8-6.8.8-8.8-.2-9.2-.7-.2-1.2-1.1-1.2-2.1 0-.9-.5-2.2-1.2-2.9-1.4-1.4.3-10.1 3.2-15.5 2.3-4.3 2.5-14.9.4-18.4-.8-1.2-1.4-4-1.4-6.2 0-3.3.6-4.4 3.4-6.8 1.8-1.5 3.7-3.8 4.1-5.1 1.1-3.6 4-2.4 3.9 1.6"/><path d="M274.2 154.1c-.5 1.3-1.2 5.8-1.6 9.9-.7 7.3-.6 7.4.9 4.5.9-1.6 1.5-4.1 1.4-5.5s.1-4.2.6-6.3c.9-4.4 0-6.1-1.3-2.6"/></svg>