<svg xmlns="http://www.w3.org/2000/svg" width="682.667" height="512" version="1.0" viewBox="0 0 512 384"><path d="M0 192v192h512V0H0zm282.3-87.6c1.5 2.2 2.1 2.3 10.2 2 7.5-.2 8.9 0 10.6 1.7 2.5 2.5 3 10.6.7 12-.6.4-.7 1.6-.4 2.7.4 1.2 0 2.6-1 3.6-1.5 1.5-1.4 1.8 1.1 3.8 2.1 1.6 2.5 2.6 2 4.6-.3 1.4.1 4.5 1.1 7.3 1.8 4.8 1.7 4.9-.3 7.8-1.9 2.4-2 3.4-1.2 6.7.6 2.1 1.4 5.5 1.8 7.4s1.7 5.1 2.9 7c1.1 1.9 3.3 7.5 4.7 12.5 1.5 4.9 3.8 10.9 5.1 13.2l2.3 4.2-2.6 1.9-2.6 1.9 2.2 3.7c1.3 2 2 4.3 1.7 5.2-1 2.7 7.9 4.7 13.3 2.9.9-.3 2.9-3.8 4.5-8.2 2.8-7.6 8-14.3 11-14.3 4.1 0 7 10.5 4.8 16.9l-1.1 3.1h5.8c6.4 0 7.5.7 8.6 5.8.6 3 .3 3.7-4.4 8.3-4.4 4.4-5.4 6-7.6 13.7-3.7 12.2-6.1 18.1-10.2 24.6-3 4.9-4.1 5.8-7.9 6.7-2.9.7-5.1 2.1-6.4 3.8-1.5 2.2-3.2 3-8.3 3.9-8.4 1.6-11.7 1.5-13.6-.2-1.4-1.2-3.7-1.2-16.6 0-8.2.7-19 2-24 2.9-13.1 2.2-14.7 2-24.9-2.9-11.2-5.3-22.8-14-33.2-24.6-5.5-5.6-9-8.4-11.5-9-1.9-.5-6-2.7-9-4.9-3-2.1-6.3-4.1-7.5-4.5-1.1-.3-3.1-2.1-4.4-3.9-1.3-1.7-3.3-3.9-4.4-4.7-13.4-9.5-18.6-20.5-15.6-33.1 1.5-6.3 3.1-8.4 7.4-9.9 3.1-1 30.4-3.5 51.1-4.7l11-.6 14 4.8c7.7 2.6 14.5 5.1 15 5.5.6.3 3 1.2 5.3 1.9 3.9 1.1 4.5 1 5.8-.6.7-1 1.6-3.2 1.9-4.8.6-3.5 6.2-61 6.8-70.5.4-5.8 1.1-10.1 2.2-13.8.6-1.9 2.1-1.4 3.8 1.2"/><path d="M278 135.1c0 1.7.4 2.8 1 2.4.6-.3 1-1.7 1-3.1 0-1.3-.4-2.4-1-2.4-.5 0-1 1.4-1 3.1m.4 20.5c-3.1 1.3-3.1 1.3-3.8 11.1-.4 5.4-.9 11.4-1.2 13.3-.4 3.3-.4 3.4.7 1 2.7-5.8 4.7-9.7 6.8-13.7 2.3-4.3 2.7-6.3 1.7-10.2-.7-3.1-.6-3-4.2-1.5"/></svg>