<svg xmlns="http://www.w3.org/2000/svg" width="682.667" height="512" version="1.0" viewBox="0 0 512 384"><path d="M0 192v192h512V0H0zm283.2-88.9c.6 1.7 6.8 2.1 10 .8 3.3-1.4 12.5.7 13.7 3.1 1.8 3.4 2 8.2.7 10.9-1 1.7-1.1 3.2-.5 4.3.7 1.3.4 1.8-1.1 2.3-2.7.9-2.5 3.3.3 3.7 1.9.3 2.2.8 2 4.1-.2 2.1.4 5.2 1.2 6.7 2.1 4 1.9 8.2-.5 10.3-1.5 1.3-1.9 2.4-1.4 4.5 1.2 5.3 3.6 11.8 5.5 15 1.1 1.9 3.3 7.9 4.9 13.4 1.7 5.5 4 11.6 5.1 13.5l2.2 3.5-2.8 2.2-2.7 2.2 2.2 4.4 2.2 4.3-2.3 1.8c-1.3 1-1.9 1.9-1.4 1.9 3.4 0 22.9-3 23.5-3.7.3-.4 1.4-2.8 2.4-5.3 3.7-9.4 6.1-13.5 9.4-15.4 3.4-1.9 3.4-1.9 5.5.3 1.8 1.7 2.2 3.3 2.2 8.4 0 3.4-.4 7.2-.8 8.4-.8 2.2-.6 2.3 3.3 2.3 6.3 0 8 1.3 8 6.4 0 3.9-.4 4.7-4.8 8.3-4.5 3.8-5 4.8-7.7 13.9-5 17.1-14 32.4-19.1 32.4-.8 0-2.7 1.3-4.2 3-2.2 2.4-4.4 3.3-11 4.7-7.7 1.6-8.4 1.6-11.5.1-2.5-1.4-4.1-1.5-7.7-.8-2.5.5-9.6.9-15.9 1-6.7 0-16.6.9-24 2.1-6.9 1.2-14.4 1.9-16.5 1.6-9.9-1.4-31.5-15.4-46.6-30.3-3.1-3-6.4-5.4-7.5-5.4-2.7-.1-9.8-3.3-13.9-6.5-1.8-1.4-4.5-2.5-5.9-2.5-1.9 0-3.6-1.3-6.3-4.8-2.1-2.6-6-6.5-8.6-8.6-9.9-7.8-13.6-16.5-11.5-27 1.8-9 2.7-9.4 25.8-11.7 10.7-1 25-2.1 31.9-2.5l12.5-.6 23 7.7c12.7 4.2 23.6 7.9 24.3 8.2 1.1.4 1.2.1.3-1.5-.8-1.5-.8-2.8 0-4.9 1.3-3.1 2.3-12.2 3.9-32.8.6-7.7 2.2-24 3.7-36.3 2.3-19.4 2.9-22.2 4.4-22.2 1 0 1.9.5 2.1 1.1"/><path d="M279.1 130.2c-1.2 8.6-3.8 35.8-4.6 48.8l-.5 7.5 4-8.3c2.2-4.6 4.9-9.6 6-11.2 1.3-1.8 2.4-5.7 3-10.6 1.1-8.2.7-10.4-1-6-1.2 3.3-3.7 4.3-5.6 2.4-1.3-1.2-1.3-2 0-5.4.8-2.2 1.2-5.3.9-6.8-.4-1.7.1-3.3 1.1-4.5 1.7-1.9 1.3-7.1-.5-7.1-.5 0-.6-1.6-.3-3.5.3-2 .1-3.5-.4-3.5-.6 0-1.5 3.7-2.1 8.2"/></svg>