<svg xmlns="http://www.w3.org/2000/svg" width="682.667" height="512" version="1.0" viewBox="0 0 512 384"><path d="M0 192v192h512V0H0zm283.4-89.9c1.1 1.6 1.8 1.9 3.2 1.1 1-.5 2.9-.6 4.4-.2s3.4.4 4.1-.1c1.9-1.2 6.6-1.1 11 .1 3.1.9 3.7 1.5 4.8 5.8 1.2 4.8.8 8.2-1.1 8.2-.5 0-.8 1-.6 2.2.2 1.3-.6 3.2-1.6 4.2-2 2-2 2 1.2 3.3 3 1.2 3.2 1.5 2.6 5.2-.5 2.8-.2 4.6 1 6.2 2.1 3.1 2 7.2-.2 9.3-2.2 1.9-2.3 6.9-.2 10.6.8 1.4 1.3 3 1.2 3.7-.2.7.8 2.9 2.2 5s3.7 8.1 5.2 13.3 3.5 11.2 4.5 13.2c2.5 5 2.4 6.7-.6 7.8l-2.6 1 2.1 3.9c2.3 4.5 2.6 7.1.8 7.1-.6 0-.9.2-.6.5.7.7 26.8-3.1 27.7-4.1.5-.5 2.1-4.3 3.6-8.4 4-10.6 11-16.8 14.3-12.8 2.4 3 3.1 8.8 1.6 13.6-.7 2.6-1.4 5-1.4 5.4 0 .5 2 .8 4.4.8 4 0 4.5.3 5.5 3.1 1.8 5.2 1.3 6.5-4 11.1-4.7 4.1-5.3 5.1-9.8 17.8-2.6 7.4-6.2 16-8 19-3.8 6.3-8.9 12-10.9 12-.7 0-2.6 1.4-4.1 3.1-4.1 4.5-19.8 7.8-22.8 4.8-.8-.8-3.9-.8-11.6.2-8.3 1-11.7 1-15.9.1-4.6-1.1-7.6-.9-22.1 1.3-9.2 1.4-18.7 2.5-21 2.5-8.5 0-25.7-10.2-43.6-25.9-7.9-6.9-11.2-9.1-13.3-9.1-3.5 0-8-1.8-13.3-5.4-3-2.1-4.7-2.6-7-2.2-2.8.6-3.5.1-6.8-4.3-2.1-2.7-6.7-7.5-10.2-10.5-8.4-7.4-10.5-11.9-10.5-22.3 0-5.9.4-8.4 1.5-9.3 1.9-1.6 15.8-3.6 38.3-5.5s29.3-1.9 35.7-.1c10 2.8 45 13.3 46.5 14 1 .4 2.5-.3 3.9-1.8 2-2.1 2.2-2.8 1.1-4.1-1-1.2-1-5.5.4-23.3 2.2-29.9 3.5-43 5.2-54.4.8-5.4 1.4-11.5 1.4-13.6 0-5.6 1.7-6.8 4.4-3.1"/><path d="M280.7 122.9c-.6 3-2.7 22.9-4.7 44.4-.6 6.4-1.3 13.8-1.6 16.5-.6 4.2-.5 4.5.9 3.2.8-.8 4.4-7.4 8-14.5 5.2-10.4 6.6-14.2 6.9-18.7.4-5.2.3-5.6-1-3.7-.8 1.2-2.3 1.9-3.5 1.7-1.8-.2-2.1-.9-1.9-3.3.1-1.7.3-5 .3-7.4s.7-5.4 1.5-6.6c1.6-2.5.9-7.9-.9-6.8-.6.4-.8-.4-.4-2.2.3-1.6.3-3.5 0-4.2-.9-2.3-3-1.4-3.6 1.6"/></svg>