<svg xmlns="http://www.w3.org/2000/svg" width="682.667" height="512" version="1.0" viewBox="0 0 512 384"><path d="M0 192v192h512V0H0zm283.1-92.4c.8 1 1.9 2.9 2.5 4.3l1.2 2.6 1-2.7c1.5-3.7 4.6-5.2 8.2-3.9 1.6.5 3.2.6 3.5.2 1.1-1.9 5.9-2.1 10-.5 3.6 1.3 4.6 2.3 6.1 6.2 1.6 4.3 1.6 4.8.1 7.5-1 1.6-1.7 3.5-1.7 4.4 0 1.9-2.5 4.4-3.5 3.5-.4-.4-.6 0-.3.8.2.8 1.4 1.6 2.6 1.8 2.7.4 4.2 3 3.2 5.7-.5 1.3-.1 3.4 1.1 5.7 2.4 4.7 2.4 8 .1 10.1-3 2.7-2.1 9.3 2.1 17.2 2.9 5.3 3.7 7.6 5.7 15 1.8 6.7 4.1 13.2 6.7 19.2.2.6-.9 1.9-2.5 2.7l-3 1.6 2.1 5c1.7 4 2.5 5 4 4.6 1-.2 8.8-1.5 17.4-2.7l15.5-2.3 1.9-4.5c3.4-8 8-16.6 9.7-17.9 2.4-1.9 7-1.5 8.2.7 1.5 2.8 1.2 11.6-.4 15.6-1.6 3.8-1.3 4.5 2 4.5 4.6 0 6.1 8.1 2.2 11.7-1.3 1.1-3.2 2.5-4.4 3.1-1.4.7-3.2 4.2-5.4 9.9-8.6 23.1-12.7 30.4-23 40.4-6.5 6.3-7.2 6.7-14.6 8.4-6.1 1.3-8.5 1.5-10.9.6-2.3-.8-5.2-.7-12 .4-11.4 1.9-15.1 1.9-26.1-.1-9.8-1.7-18.2-1.1-37.3 2.7-13 2.6-14.5 2.5-24.2-2.2-10.9-5.2-20.2-11.5-31.4-21-8.3-7-9.4-7.7-14.8-8.3-3.4-.5-8.6-2.2-12.8-4.3-5.9-2.9-7.7-3.4-11-2.9-4.5.7-4.6.6-10.3-6.8-2-2.7-5.4-6.1-7.6-7.7-2.1-1.5-4.9-4.3-6.4-6.1-2.7-3.6-5.6-13.1-5.6-18.6 0-2.8.5-3.5 3.4-4.7 4.5-1.9 35-5.4 53.6-6.1l14.5-.6 19 4.6c10.5 2.6 25.4 6.3 33.3 8.2 13.9 3.4 16.2 3.6 16.2 1 0-.6 1.4-3.1 3.1-5.4 2.8-3.8 2.9-4.7.7-4.3-.4 0-1.3-.9-1.9-2.1-2-3.7 1.4-56.7 5.1-79.1 1.1-6.6 1.7-12.3 1.4-12.8-.7-1.3.2-3.9 1.4-3.9.5 0 1.6.7 2.3 1.6"/><path d="M282.2 117.2c-1.7 9.3-4 29.4-5.2 45.8-.6 8-1.3 17.4-1.6 21l-.5 6.5 2.8-3.2c1.5-1.7 5.2-7.6 8.2-13 9.6-17.5 10.3-19 9.5-22.8-.5-2.9-.9-3.3-2.1-2.4-1.1 1-1.7.9-3-.4-1.4-1.4-1.5-2.2-.4-5.7.8-2.6.9-4.6.2-5.8-.7-1.3-.5-2.8.6-5 1.3-2.7 1.3-3.7.3-6.3-1-2.3-1.5-2.7-2.2-1.7-.7.9-.8.4-.5-1.5.2-1.6-.1-3.4-.8-4.1s-1.6-2.7-2-4.4c-1-4.8-2-3.9-3.3 3m44 78.8c0 1.4.2 1.9.5 1.2.2-.6.2-1.8 0-2.5-.3-.6-.5-.1-.5 1.3"/></svg>