<svg xmlns="http://www.w3.org/2000/svg" width="682.667" height="512" version="1.0" viewBox="0 0 512 384"><path d="M0 192v192h512V0H0zm315.5-97.8c2.5 1.1 7.5 8.5 7.5 11.1 0 .7-1.1 2.4-2.5 3.7s-2.5 3.3-2.5 4.4c0 2.3-2 6-2 3.8 0-.6-.4-1.2-1-1.2-.5 0-1 .7-1 1.5s.8 1.5 1.8 1.5 2.8.7 4.1 1.6c1.7 1.2 2.1 2.2 1.6 4.1-.4 1.7.1 3.7 1.6 6.1 1.2 2.1 2.2 5.6 2.3 8.2.1 3.9-.2 4.5-1.9 4.4-3.3 0-2.4 7.6 2 16.5 2 4.1 4.5 11.5 5.6 16.5s2.4 10.4 2.9 12.1c.4 1.6 1.1 4 1.5 5.2.4 1.6 0 2.5-1.6 3.4-2 1-2.1.9-1.6-1 .3-1.1.1-2.3-.3-2.6-1.4-.8-2.3 6-1.2 8.1 1.4 2.6 1.8 6.6.9 8.1-1.1 1.7-1.3 1.7 7.4-1.2 8.3-2.9 22-5.8 35.5-7.6 5.1-.6 9.6-1.4 10.2-1.8.5-.3 3.3-5.3 6.2-11.1 6.2-12.5 7.4-14 11.2-14 2.4 0 3.2.6 4.4 3.5 1.9 4.7 1.8 7-1.1 14-2.1 5.1-2.2 6.1-1.1 7.5.8.8 1.7 3.2 2.1 5.2.7 3.4.5 3.8-3.6 6.7-5.3 3.9-5.8 4.6-10.4 16-4.7 11.6-10.3 21.9-15.8 28.9-2.3 3-6.2 8.2-8.7 11.4-4.2 5.6-5 6.2-12 8.4-5.1 1.6-9.4 2.3-13.5 2.2-3.4-.1-10.6.8-16.5 2.1-13.5 2.9-28.6 2.5-43.4-1.2l-9.9-2.5-15.1 2.9c-8.3 1.6-18.5 3.8-22.6 4.8-6.6 1.5-8.1 1.6-11.5.4-10.1-3.4-38.2-19.9-42.9-25.2-3.1-3.4-11.2-8.2-12.9-7.6-2.3.9-13-1.3-19-4-4.4-1.9-6.5-2.2-11.3-1.8l-5.9.5-4.8-5.9c-2.6-3.3-7.2-8.1-10.2-10.7-5.4-4.7-9.8-12.1-11.2-18.7-1.2-6.1 1-6.7 36.6-10.4 30.1-3.1 31.6-3.1 47.6 0 44.8 8.7 92.6 16.4 102.8 16.5 4.6 0 3-1.4-3.5-3.3-3.5-1-8.3-2.8-10.8-4.1-3.9-2-4.5-2.7-4.2-5.2.2-1.5 1.7-4.6 3.3-6.9 1.6-2.2 2.5-4.1 1.9-4.3-1.8-.6-1.1-5 1.4-7.9 1.3-1.5 6.3-8.8 11.1-16.1 7.3-11.1 8.9-14.2 9.3-18.2.4-4.2.2-5-1.8-6-1.9-1-2.2-1.8-1.8-5.5.3-2.3.1-5-.5-6-.6-1.2-.6-3 .2-5.7 1-3.3 1-4.3-.3-6.3-1-1.6-2.3-2.3-3.6-2-1.7.3-1.9.1-1-1.6.9-1.6.4-2.8-3.1-6.9-3.5-4.2-5.9-6.1-5.9-4.7 0 .2-.9 4.3-1.9 9.2-2.8 12.8-4.1 24.5-4.2 37.6 0 6.3-.7 15-1.6 19.4-1 5.2-1.3 10.6-1 15.5.6 7.5.6 7.5-1.3 5.2-1.8-2.2-1.9-4-1.5-30.5.4-28 1.7-43.2 5-57.2.8-3.7 1.5-7.7 1.5-9.1s.6-2.4 1.4-2.4c1.7 0 6 5.4 7 8.6.4 1.2 1.5 2.9 2.6 3.9 1.8 1.6 1.9 1.6 2.5-2.2.3-2.1 1.3-5.2 2.2-7 1.5-3 1.9-3.2 7.7-3.6 3.3-.2 7.3-.4 8.8-.5s3.9.3 5.3 1"/><path d="M304 217.2c0 .4 1.4.8 3 .8 1.7 0 3-.4 3-.8 0-.5-1.3-.9-3-.9-1.6 0-3 .4-3 .9"/></svg>