<svg xmlns="http://www.w3.org/2000/svg" width="682.667" height="512" version="1.0" viewBox="0 0 512 384"><path d="M0 192v192h512V0H0zm316.8-99c1.8 1.1 3.7 3.1 4.2 4.4s1.4 2.7 1.9 3.1c2.1 1.2 1.1 5.2-1.9 7.8-1.6 1.5-3 3.6-3 4.8 0 1.1-.4 1.7-1 1.4-.5-.3-1-.1-1 .5s-.5.8-1.1.4c-.7-.4-1-.1-.7.6.2.7 1.5 1.5 2.8 1.7 3.6.5 5 2.2 5 5.9 0 3.4 2.8 9.2 6.4 13.2 1.6 1.8 1.8 2.7.9 4-1.1 1.8-2.5 1.9-5.7.7-3.2-1.4-1.6 8.5 2.9 17.9 3.6 7.4 8.6 26.6 8.9 34 .1 3.5-2.1 4.7-2.6 1.4-.2-1.3-.7-2.2-1.3-2-1.1.3-1.1 3.7 0 11.8.7 4.8.6 5.2-1.5 5.9-1.2.4-2 .9-1.8 1.1s6.7-1.7 14.5-4.1c9-2.8 20-5.3 30.3-6.9 9-1.4 16.4-2.7 16.5-2.8.2-.2 2.6-5 5.5-10.8 7.5-15.1 10.5-17.6 15-12.8 2.9 3.1 2.7 10.1-.6 17.1-2.4 5.3-2.4 5.8-1 8.6 2.6 4.9 2 6.8-3.2 10.5-4.1 3-5.3 4.6-8.2 11.8-5.3 13.2-11 23.7-17.5 32.3-3.3 4.4-7.8 10.6-9.9 13.8-2.6 3.8-4.9 5.9-6.5 6.3-1.4.3-4.4 1.1-6.7 1.9-2.2.7-6.2 1-9 .8-3.2-.3-8 .3-13.9 1.8-6.7 1.6-12.9 2.3-24.6 2.7-14.4.4-16.5.2-26.1-2.2-5.7-1.4-11.8-2.6-13.6-2.6-3.3 0-15.1 2.3-34.5 6.7l-11.7 2.7-8.3-3.3c-10.9-4.5-25.1-12.8-36.5-21.5-12.1-9.2-12.8-9.6-18.2-9.6-5.3 0-13.1-2-17.9-4.5-2.8-1.4-4.8-1.6-10.2-1.1l-6.7.7-4.4-5.7c-2.3-3.2-5.3-6.7-6.6-7.8-8.1-7.3-11.2-11.2-13.8-17.2-2.1-5-2.5-7-1.7-8.2 1.6-2.6 9.2-3.9 39.2-6.8 31.4-3.1 29.9-3.2 65.7 3.5 37.1 7 89 14.1 91.5 12.5 2-1.2.2-2.7-5.1-4.1-3-.7-8-2.6-11-4.1-4.8-2.4-5.5-3-5.3-5.5.1-1.5 1.6-4.7 3.3-7 2.5-3.3 2.8-4.3 1.5-4.5-2.6-.6-.7-5 5.9-13.7 6.1-8 14.3-20.1 16.5-24.2 1.8-3.5 1.4-8.8-1-10.9-1.5-1.4-2-2.9-1.8-5.9.1-2.2-.1-4.9-.6-5.9-.5-1.1-.4-3.1.3-4.8.7-2 .7-3.8.1-5.8-.9-2.3-1.5-2.8-3.6-2.4-2.3.4-2.5.2-1.9-2 .5-2-.3-3.5-3.6-7.5-2.4-2.7-4.7-4.8-5.3-4.7-2.8.7-7.5 32.4-7.5 50.7 0 5.4-.7 14.1-1.6 19.5-1.3 7.5-1.4 10.7-.6 14.3 1.2 5.3.8 6.2-1.6 3.8-1.5-1.6-1.7-4.5-1.9-26.5-.1-25.7 1.2-43.4 4.4-57.9.9-4.3 1.7-9.6 1.8-11.8.1-5.8 2.9-5.4 7.1 1 5.7 8.5 6 8.9 7.2 8.1.7-.4 1.2-2 1.2-3.5s1-4.3 2.3-6.2c2.1-3.1 2.7-3.4 7.4-3.4 2.8 0 5.5-.3 5.9-.8 1.4-1.3 5.9-.7 9.2 1.3"/><path d="M305 217c0 .5 1.1 1 2.5 1s2.5-.5 2.5-1c0-.6-1.1-1-2.5-1s-2.5.4-2.5 1"/></svg>