<svg xmlns="http://www.w3.org/2000/svg" width="682.667" height="512" version="1.0" viewBox="0 0 512 384"><path d="M0 192v192h512V0H0zm280.6-98.8c1.7 1.8 4.3 5.2 5.8 7.5 4 6.1 4.4 5.9 6.5-2.2 1.9-7.3 2.7-7.8 13.3-8.2 11.1-.3 12.8.5 16.9 8.1l2.4 4.6-3.8 3.6c-2.2 2.2-3.6 4.3-3.2 5.1.8 2.3-.7 4-1.7 1.7-.6-1.6-.7-1.5-.5.6.1 1.6.9 2.6 2.2 2.8 3.4.7 4.6 2.3 4 5.4-.8 3.4 1.1 6.7 6.7 11.8 3.6 3.4 3.7 3.7 2.2 5.8-1.4 2.1-1.7 2.1-4.5.7-3.2-1.7-3.3-1.6-4.2 4-.5 3.1.4 5.9 5.4 15.5 1.5 3.1 3 6.7 3.2 8 2.5 13.4 3.7 18.9 4.6 21.2 1.2 3.1.5 6.4-1.6 7.2-1.2.5-1.4.1-.9-1.9.5-1.8.2-2.5-.9-2.5-1.7 0-2 4.7-.6 11.8.8 4 .7 4.4-2.3 6.7-2.7 2.1-1 1.7 13.4-2.9 11.8-3.8 20.6-6 31-7.5 8-1.2 15.5-2.5 16.8-2.9 1.7-.5 3.9-3.6 7.8-11.2 5-9.5 9.9-16 12.3-16 .5 0 1.9 1.2 3 2.6 3 3.9 2.7 10-.9 18-2.8 6.1-2.9 6.8-1.5 9.4 2.3 4.5 1.9 5.7-3.4 9.5-4.2 3.1-5.3 4.6-8.7 12.7-4.8 11.7-8.5 18.5-14.2 26.8-2.5 3.6-7.5 10.7-11 15.8-8.5 12.4-9 12.7-22.7 12.7-8.4.1-13.1.6-20 2.5-7.9 2.2-11.1 2.5-26.5 2.4-16.1 0-18.3-.2-27.8-2.8l-10.3-2.8-11.7 2.2c-6.4 1.2-16.3 3.3-22 4.7-14.4 3.5-18 3.1-32-4-12.6-6.4-23.3-13.2-33.5-21.5-5.9-4.7-7.3-5.5-11-5.4-5.6 0-15.8-2.3-20.6-4.7-3.1-1.7-5.1-1.9-10.7-1.4l-6.9.5-4.3-5.9c-2.3-3.2-6.9-8.3-10.2-11.1-6.4-5.6-12.4-16-11.8-20.3.4-3.4 5.3-4.4 35.3-7.4s36.3-3.1 49.7-.5c42.7 8 99.7 16 114.9 16 3.2 0 3.9-.3 3.9-2 0-1.3-.7-2-1.8-2-2.4 0-16-4.9-18.9-6.8-3.1-2-2.9-4.9.8-10.7 2.2-3.4 2.7-5 1.8-5.5-2-1.3.4-6.1 6.8-14.2 13.4-16.6 16.6-21.9 17.1-27.6.3-3.7 0-5.8-1-7-1.8-2-3.2-16-1.9-18.1.6-1 .5-2.4-.4-4.2-1.1-2.1-2.1-2.7-4.4-2.5-2.8.2-3.3-.7-1.7-3.2.5-.9-.8-3.1-4.1-6.7-2.6-2.9-5.1-5.3-5.4-5.4-.4-.1-1.4 2.5-2.2 5.6-3.1 10.9-4.8 24.8-5.3 41.3-.3 9.1-1.2 20.3-2 24.8-1.5 7.7-1.4 10.8.3 18.2.6 2.5.6 2.5-1.5.7-1.1-1-2.3-3.3-2.6-5-.3-1.8-.1-18.1.4-36.2.8-29.1 1.2-34.4 3.4-44.9 1.4-6.6 2.2-12.4 2-12.8-.7-1.1.3-3.8 1.4-3.8.4 0 2.2 1.5 3.8 3.2"/><path d="M294 109.1c0 .5.5.7 1 .4.6-.3 1-.8 1-1.1 0-.2-.4-.4-1-.4-.5 0-1 .5-1 1.1m11.4 106.8c-.2.2-.4.8-.4 1.3 0 1.2 5.3.6 5.7-.7.3-.9-4.4-1.5-5.3-.6"/></svg>