<svg xmlns="http://www.w3.org/2000/svg" width="682.667" height="512" version="1.0" viewBox="0 0 512 384"><path d="M0 192v192h512V0H0zM318.9 90.8c1.6 1.5 3.8 4.4 5 6.4l2.2 3.7-3.5 3.4c-1.9 1.9-3.6 4.5-3.8 5.8-.1 1.3-.9 2.4-1.5 2.4-2.4 0-1 2 2.1 3 2.7.9 3.1 1.5 3.1 4.6 0 3.8 4.6 11.9 6.8 11.9 2.7.1 5.7 3.5 5.1 5.7-.8 2.8-3.9 3-6.6.6-2.6-2.3-4.1-.5-4.4 5.2-.3 3.6.5 6.2 4 13.2 3.1 6.3 5 11.9 6.5 19.5 1.1 5.8 2.5 11.7 3 13s.5 3.3 0 4.5c-1 2.8-3.3 3.1-2.4.4.4-1.2 0-2.1-1.1-2.5-1.5-.6-1.6.1-1 7.6l.6 8.3-3.2 2.7c-3.2 2.7-2.9 2.6 10.2-1.8 17-5.7 26.7-8 43.3-10.4 7.2-1.1 13.3-2.3 13.4-2.7.2-.4 3.1-6 6.6-12.3 4.2-7.6 7.3-12 9.1-13 2.6-1.4 2.8-1.4 5.2 1.3 3.4 3.9 3.2 9.5-.6 17.6-2.7 5.6-3 7.2-2.5 11.6l.7 5.1-4.2 2.8c-4.3 2.8-4.2 2.7-13.8 23.6-3 6.5-20.1 32.4-27 41-4 5-5.1 5.7-11.1 7.3l-6.6 1.8-2.2-2.5c-2.6-3.1-4.8-3.2-13.2-.6-8.7 2.8-24.3 5-34.4 5-8.9 0-27.5-3-34.8-5.5-4-1.5-5.2-1.5-13.4 0-4.9.9-15.3 3.2-23 5.2-8.9 2.2-15.4 3.3-18 3-9.2-1-31-12.6-49-26.2-9.3-7-10.3-7.5-15-7.5-6.5-.1-12.6-1.5-19.7-4.7-5.2-2.3-6.3-2.5-11-1.5-5.1 1-5.4.9-7.9-1.6-1.4-1.5-4-4.6-5.7-7s-4.8-5.6-7-7.2C92 226.6 86 216.7 86 211.1c0-4 2.2-4.6 24.5-7 40.2-4.4 45.8-4.6 58-2.3 46.9 8.9 101.7 16.2 121.3 16.2 4.7 0 6.4-.4 6.9-1.5.7-2 .1-2.6-2.9-3-3.2-.4-12.6-3.8-17.7-6.4-4-2.1-4.2-2.4-3.5-5.4.3-1.8 1.9-4.8 3.5-6.8 3-3.8 3.7-5.5 1.9-4.4-1.9 1.2-2.2-2.5-.4-5.3.9-1.5 5.4-7.2 9.8-12.7 14.7-18.1 17.4-24.1 14.2-30.6-.9-1.7-1.6-4.6-1.6-6.2 0-1.7-.5-4.6-1.2-6.4-1-2.7-1-3.8.1-5.4 2.5-4.1-3.1-10.8-7-8.3-.7.4-.6-.3.1-1.6 1.1-2.1.7-2.8-4.4-7.8-3-3.1-5.8-5.4-6.1-5.1-1.2 1.2-4.6 17-6.1 27.9-.8 6.3-1.4 17.1-1.3 24 .1 8.4-.4 14.8-1.5 19.5-1.9 8.4-1.9 11.8-.2 16.7 1.2 3.3 1.2 3.8-.1 3.8-3.3 0-4-5.9-4.1-32.5-.1-28.1.7-39.4 4-55 1.1-5.5 2-11.5 2-13.3-.2-6.3 4.2-3.6 11.8 7.2 1.4 2 3.2 3.5 4 3.3.8-.1 2.1-2.6 3-5.5 2.1-7.6 3.9-8.7 14.3-8.9 8.3-.2 8.9-.1 11.6 2.5"/><path d="M294 107.1c0 .5.5.7 1 .4.6-.3 1-.8 1-1.1 0-.2-.4-.4-1-.4-.5 0-1 .5-1 1.1m12 109.5c0 1 .7 1.4 2.2 1.2 3.2-.5 3.5-2.8.4-2.8-1.7 0-2.6.5-2.6 1.6"/></svg>