<svg xmlns="http://www.w3.org/2000/svg" width="682.667" height="512" version="1.0" viewBox="0 0 512 384"><path d="M0 192v192h512V0H0zM279.6 90.2c1.2 1.2 2.9 3.7 3.7 5.4 1.4 2.6 5.5 6.4 7.1 6.4.2 0 1.2-2.4 2-5.4 2.6-8.9 3.8-9.8 13.7-10.2 4.6-.2 9.6.1 11.1.7 1.4.6 4 3.4 5.8 6.2 2.7 4.3 3 5.4 2 7.3-.7 1.2-2.3 2.7-3.6 3.3s-2.4 1.9-2.4 3c0 2.8-1.1 5.2-2.1 4.5-.5-.3-.9-.1-.9.5 0 .5 1.6 1.5 3.5 2.1 3.2 1.1 3.5 1.5 3.5 5.2 0 5 2.6 8.4 8.8 11.8 5 2.7 6.1 5.4 3 7.4-1.3.8-2.4.5-4.9-1.3-2.8-2.1-3.3-2.2-4.7-.8-3.3 3.4-2.2 9.9 3.8 21.7 3.9 7.6 9.9 32.2 8.7 35.5-.8 2-2.9 1.9-2.5-.1.2-1-.3-1.9-1.1-2.2-1.1-.4-1.2 1-.7 8l.8 8.5-2.9 2.1c-2.7 2-2.5 2 5.2-.4 31.4-9.7 29.8-9.3 56.1-13.4l7.2-1.1 5.8-11c3.3-6 6.9-12.1 8.2-13.4 3.4-3.7 6.7-3.2 9.1 1.2 2 3.9 1.2 8.7-2.9 17.2-3.1 6.4-3.8 8.7-3 10.1 2 3.8 1.1 6-3.5 8.7-3.9 2.4-4.9 3.9-8.2 11.3-5.7 12.9-8.7 18.3-18.6 33-14.8 22.1-20.4 28.8-24.6 30-9.5 2.5-10 2.5-13.6-1l-3.4-3.3-9.3 2.2c-12.1 2.8-27.9 5.1-34.7 5.1-7.8 0-25.3-2.8-34.9-5.5-9.7-2.8-8.7-2.9-36.2 4-17.5 4.4-18.8 4.6-23.9 3.5-10.7-2.4-37.3-17.4-51.3-29-5.7-4.9-6.1-5-12.4-5-6.5 0-16.6-2.7-21.1-5.6-1.7-1.1-4-1.3-9-.8l-6.8.6-4.3-5.9c-2.3-3.2-6.9-8.2-10-11-5.9-5.2-12.2-15.1-12.2-19.2 0-1.5 1-2.6 3.3-3.5 4-1.7 40.4-5.6 58.7-6.3 12.6-.5 15.2-.3 38 3.6 53.8 9 81 12.3 102.5 12.5 15 .1 15 .1 15.3-2.2.2-1.5-.1-2.2-1-2.1-3.1.7-21.3-6.6-23.6-9.4-1.5-1.8-.7-3.9 3.9-9.8 2.4-3 2.6-3.8 1.4-4.3-2.5-.9-1.7-4.3 2.3-8.9 2-2.5 5.5-6.7 7.8-9.3 9.5-11.3 14.5-19.4 15.1-24.3.3-2.9.1-5.7-.7-7-1.2-2.3-3.1-11.2-3.2-14.6 0-1.1.3-3.2.7-4.7.6-2.1.2-3.2-1.9-5.3-1.6-1.6-3.3-2.4-4.3-2.1-1.2.5-1.4.1-.9-1.8s-.4-3.2-5.1-7.2c-3-2.7-5.9-5-6.3-5.2-.9-.4-4.5 12.9-6.1 22.3-.6 3.8-1.5 16.2-2 27.5-.4 11.3-1.2 22.9-1.7 25.7-.8 5.2-.2 13.1 1.3 16.7.7 1.6.6 1.7-1.4.7-4-2.2-5.9-12.2-4.2-21.7.8-4.4.8-9.1-.1-18.2-1-10.6-1-14.1.6-27 .9-8.1 2.7-18.8 3.8-23.7 1.1-5 2-10.1 1.9-11.4-.2-4.8 2.1-4.8 6.5.1"/><path d="M294.7 104.7c-.4.3-.7 1.1-.7 1.7s.5.5 1.2-.2c.6-.6.9-1.4.7-1.7-.3-.3-.9-.2-1.2.2m12 111c-1.4 1.3-.6 2.4 1.5 2.1 2.7-.4 3.6-2.8 1.1-2.8-1.1 0-2.3.3-2.6.7"/></svg>