<svg xmlns="http://www.w3.org/2000/svg" width="682.667" height="512" version="1.0" viewBox="0 0 512 384"><path d="M0 192v192h512V0H0zM318.6 85.5c1.2.8 3.4 3.5 4.8 6.2 2.3 3.9 2.5 5.2 1.6 7.1-.6 1.3-1.9 2.6-3 2.9-1.3.3-2.4 1.9-3 4.4-.6 2.2-1.5 3.7-2 3.4s-1.1-.1-1.5.4c-.3.6 1.3 1.5 3.5 2.1 3.9 1 4 1.2 4 5.3.1 5.4 2.2 7.9 9.6 11.4 4.9 2.3 5.9 3.3 5.9 5.3 0 3.3-3.5 3.8-7.5 1-2.8-2-3.1-2-5.5-.4-1.8 1.1-2.4 2.2-1.9 3.3.3.9.6 3.3.5 5.3s.3 3.9.9 4.3c.5.3 1 1.4 1 2.4s.8 2.9 1.8 4.2c3.3 4.3 6.1 12.8 10.2 31.1 1.3 5.8.9 8.8-1.1 8.8-.6 0-.9-.6-.6-1.4s-.1-1.7-1-2c-1.4-.6-1.5.4-.9 7.9.7 8.1.6 8.7-1.6 10.6-1.9 1.7-2 2-.4 1.5 27-8.7 39.2-11.9 53.2-14.1 8.8-1.4 16.2-2.5 16.5-2.5.4 0 3.5-5.1 6.9-11.3 6.6-12 10.3-16.7 13.1-16.7 2.9 0 4.9 4 4.9 9.8 0 4.4-.7 6.8-3.9 12.6-3.3 6.2-3.8 7.9-3.4 11.7.5 4.3.4 4.5-3.4 6.6-3.4 1.9-4.7 3.8-8.8 12-2.6 5.4-5.6 11.5-6.6 13.6-2.5 4.9-20.1 31.8-24.8 37.7-11.3 14.2-11.6 14.5-18.8 16l-6.7 1.3-3.1-3.5-3-3.5-6 .8c-41.1 5.6-51.6 5.4-78.3-1.5l-8.5-2.2-23.1 5.8-23.1 5.9-8-2.7c-14.3-4.7-30.5-13.9-46.9-26.5-8.8-6.8-8.9-6.9-15-6.9-6.6 0-14.7-2-20.8-5.1-2.8-1.5-4.6-1.7-8-1.1-2.4.4-5.1.6-6 .4s-4.2-3.6-7.2-7.5c-3.1-4-6.9-8.1-8.6-9.2-5.3-3.4-13-15.6-13-20.6 0-2.6 11.8-4.6 44-7.4 25.1-2.1 31-1.9 54 2 51.5 8.6 86 12.7 109.5 12.9 16.3.1 17 0 17.3-1.9.2-1.7-1.1-2.4-9-4.9-9.4-3-16.4-6.1-17.3-7.7-.7-1.1 1.1-4.3 5.3-9.4 3.2-3.8 3.2-4 1.2-4.7-3.2-1.2-1.8-4 6.2-13.3 3.9-4.4 9.8-11.8 13.1-16.5 5.7-8 6.1-8.9 6.3-14.7.2-3.4-.1-6.5-.6-6.8-.6-.4-1-2-1-3.6s-.7-4.5-1.5-6.5c-1-2.5-1.2-4.2-.4-6.1 1.8-4.8-.8-9-5.3-8.6-2.9.2-3.9-1.9-1.7-3.3 1.2-.7-9.8-12.4-11.7-12.4-2.1 0-5.6 14.3-7.9 32-.9 7.4-1.2 15.2-.8 22 .4 7.9.2 12.3-1.1 17.7-2 8.9-2 15.3-.2 19.8 1.6 3.7.8 4.5-1.8 1.9-2.3-2.3-2.4-3.4-3.1-32.4-.6-28.6.2-40.2 3.7-55.8 1.2-5.4 2.1-11.4 2.1-13.5-.2-6.6 3.4-4.6 13.7 7.5 1.8 2.1 3.8 3.8 4.5 3.8.8 0 2.1-2.5 3-5.8.9-3.1 2.6-6.7 3.8-8 1.9-2 2.8-2.2 6.7-1.7 2.5.3 5.2.1 6-.5 1.8-1.3 6.5-.5 9.6 1.5"/><path d="M307.8 214.7c-1.8.5-2.5 3.3-.9 3.3 2.1 0 4.1-1.3 4.1-2.6 0-1.4-.3-1.5-3.2-.7"/></svg>