<svg xmlns="http://www.w3.org/2000/svg" width="682.667" height="512" version="1.0" viewBox="0 0 512 384"><path d="M0 192v192h512V0H0zM318 80.2c4.3 3 8.4 10.2 7.6 13.4-.4 1.4-1.8 3-3.1 3.6-1.5.7-2.9 2.4-3.4 4.2-.4 1.7-1.3 3-2 2.9-.6-.2-1.1.3-1.1 1.1s1.6 2 3.5 2.6c3.2 1 3.5 1.5 3.5 4.9 0 5.4 2.1 7.5 11.1 11.1 8.3 3.4 10 5 8.2 7.9-1.7 2.7-4 2.4-8.8-1l-4.5-3.3-3 2.9c-2.1 2-2.7 3.2-2 4 .6.7.7 2.6.4 4.3-.5 2.4.5 5.2 4.4 13.4 2.8 5.6 6 14.1 7.2 18.8s2.5 9.9 3.1 11.6c1.2 4 1.2 9.4-.1 9.4-.5 0-1-.9-1-2 0-1.3-.7-2-2-2-2.4 0-2.5.6-.3 9.7 1.5 6.8 1.5 7.4 0 9.1-.9 1-1.7 2.1-1.7 2.4s7.5-1.9 16.8-4.9c19.6-6.3 29.3-8.6 45.6-10.7 6.6-.9 12.3-1.9 12.7-2.3.4-.5 3.3-5.3 6.4-10.8 9.7-17 12.7-19.8 16.9-15.6 1.6 1.7 2.1 3.3 2 7.9 0 4.9-.6 6.9-4.8 14.4-3.8 7-4.6 9.4-4.1 11.7.6 2.7.2 3.3-3.2 5.6-2.8 1.8-5.1 4.8-8.3 10.8-7.3 13.8-22.9 39.4-28.9 47.5-3.2 4.2-9.7 12.1-14.5 17.4-7.7 8.7-9.2 9.8-14 11.2-7.7 2.3-9.2 2-12.1-1.8l-2.6-3.4-12.7-.7c-7-.3-15.2-.5-18.2-.3s-12.7.3-21.5.2c-16.5-.1-25.6-1.3-39.9-5.5l-6.9-2-9.1 2.1c-5 1.2-15.8 4-23.9 6.2l-14.8 4.1-5.7-1.8c-16.4-5-38.6-17.3-53.5-29.7-6.3-5.2-6.9-5.4-17.3-6.2-4.9-.3-9.5-1.4-14.2-3.4-5.6-2.4-7.7-2.8-10.9-2.3-2.1.4-4.6.5-5.5.2s-4.3-3.8-7.5-7.7c-3.2-4-8.1-9.3-11-11.8-4.7-4.3-11.3-14.8-11.3-18.1 0-3.2 12.2-5 52.5-8.1l22-1.6 25 4.1c57.2 9.3 93.1 13.4 120 13.5l19 .1.3-2.6c.3-2.8-1.9-4.3-8.5-5.5-2.1-.4-4.2-.9-4.8-1.2-.5-.3-2-.7-3.4-.8-1.3-.2-2.9-.8-3.4-1.3-.6-.6-1.8-1.1-2.6-1.1-1.8 0-5.1-2.9-5.1-4.6 0-.7 2-3.6 4.5-6.6 4.3-5 4.5-5.3 2.5-6.2-3-1.3-2.5-3.2 2.3-8.4 11-12 23.2-29.8 24.2-35.3.7-3.7-1.7-18.5-3.6-22.1-.8-1.5-.8-2.7 0-4.5 1.7-3.7-1.2-9.3-4.8-9.3-3.4 0-4.4-.9-2.9-2.7.6-.8.7-1.7.2-2.2-.5-.4-3.7-3.1-7.2-6.1-3.6-3-6.7-4.9-7.2-4.4-1.5 1.6-5 16.3-6.6 27.7-1.1 7.9-1.5 15.2-1.1 25.1.4 10.7.2 15-1 19-2.2 7.5-2.3 19.5 0 22.9 1.3 2.1 1.4 2.7.4 2.7-2 0-4.3-2.9-5.5-7-.7-2.2-.9-16.1-.8-38 .3-33.6.4-34.8 3.1-46.5 1.5-6.6 2.8-13.5 2.9-15.4 0-1.9.6-3.6 1.3-3.8.6-.2 3.1 1.6 5.5 4 2.4 2.5 6.3 6.5 8.7 9 2.5 2.5 4.8 4.4 5.2 4.1.5-.2 1.6-3.1 2.5-6.4s2.7-7.2 4.1-8.6c2-2.2 2.9-2.5 6.3-1.9 2.2.4 4.7.2 5.7-.4 2.9-1.7 6.8-1.3 10.3 1.1"/><path d="M307.1 214.4c-2 2.4-.9 3.9 1.4 2.2 1.5-1.1 1.7-1.8.9-2.6s-1.4-.7-2.3.4"/></svg>