<svg xmlns="http://www.w3.org/2000/svg" width="682.667" height="512" version="1.0" viewBox="0 0 512 384"><path d="M0 192v192h512V0H0zM318.9 77.8c2.9 2.2 7 8.9 7.1 11.6 0 2.3-2.7 5.6-4.6 5.6-.7 0-1.8 1.9-2.4 4.2-.9 3.1-1.4 3.8-2.1 2.7-.5-.8-.9-1.1-.9-.7 0 .3-.3 1.4-.6 2.3-.4.9-.3 1.5.2 1.3.5-.1 2.4.3 4.2.9 2.7 1 3.2 1.7 3.2 4.5.1 5 2.8 7.6 12 11.3 9.1 3.6 11.2 5.4 9.4 8.3-1.8 2.8-4 2.5-10-1.5-4-2.7-5.9-3.4-6.2-2.5-.2.7-1.5 2.4-2.9 3.6-1.6 1.5-2.1 2.6-1.4 3 .6.4.8 2.3.5 4.9-.5 3.2-.2 4.6 1 5.6.9.7 1.6 2 1.6 2.7 0 .8 1.5 4.5 3.4 8.2 5.9 11.7 11.8 37.2 8.6 37.2-.5 0-1-.9-1-2 0-1.3-.7-2-2-2-2.4 0-2.4-.4-.3 9.9l1.8 8.4-2.3 1.5c-4.4 2.9-2 2.8 8.1-.5 25.8-8.3 37.8-11.4 53.1-13.6l16-2.2 6.3-11c8.8-15.2 10.8-17.5 14.3-17.5 3.7 0 5.3 2.7 5.3 9.4.1 4.3-.7 6.5-5.3 14.6-3.8 6.7-5.3 10.4-5.1 12.7.1 2.6-.4 3.5-2.6 4.7-1.8.9-4.5 4.4-7.2 9.2-6.4 11.4-21.9 37.1-25.5 42.4-5.4 7.8-17.2 22.2-24.8 30.1-6.3 6.7-8.1 7.9-13 9.3-7.7 2.2-8.3 2.1-11.9-2.2l-3.1-3.8-5.9 1c-4.9.8-7.3.6-15.1-1.3-8-1.9-12.5-2.3-31.3-2.5-22.5-.3-30.7-1.4-45.9-6.2l-5.1-1.6-17.5 4.6c-9.6 2.5-20.3 5.4-23.7 6.3-6.1 1.7-6.4 1.7-14-.5-14.7-4.2-36.5-16.5-53.8-30.1-5.2-4.1-6.1-4.4-13.8-5.2-5-.4-10.9-1.8-15.2-3.5-5.1-2-8.5-2.7-12.6-2.5-5.2.1-5.7-.1-9-3.6-2-2.1-5-5.8-6.7-8.2-1.8-2.5-4.7-5.4-6.5-6.7-4-2.7-8.1-7.9-10.7-13.6-4.3-9.4-4.4-9.4 36.4-12.8 32.6-2.7 38.1-2.6 62.4 1.4 25.4 4.3 43.6 6.9 65.2 9.6 37.4 4.5 79 6.5 79 3.7 0-.6.3-2.2.6-3.4.5-1.9 0-2.3-3.8-3.3-2.3-.6-5.6-1.5-7.3-2-1.6-.5-4.5-1.1-6.2-1.5-1.8-.4-3.5-1.1-3.8-1.6-.4-.5-1.6-.9-2.8-.9-1.3 0-3-.9-3.9-1.9-1.5-1.8-1.3-2.3 3.4-8.1 3.8-4.8 4.7-6.5 3.7-7.1-.8-.5-2-.9-2.7-.9-2 0 .3-3.6 7.9-12 3.7-4.1 9.8-12 13.6-17.5l6.8-10v-10c0-7.4-.5-11.3-1.9-14.8-1.3-3.6-1.6-5.5-.9-7 1.1-2.4 0-6.6-2-7.9-.7-.4-2.4-.8-3.9-.8-2.3 0-2.6-.3-2.3-2.8.4-2.3-.5-3.4-6.5-8.2-3.9-3-7.4-5.6-7.8-5.8-1.4-.4-5.9 18-7.8 31.3-1.2 8.8-1.4 15.4-1 25 .5 10.1.3 14.2-.9 18.5-1.9 7-1.9 17-.1 21.5 1.8 4.2.9 4.5-2.5.9-2.3-2.5-2.4-3-2.5-19.2-.1-9.2-.6-20.4-1.2-24.9-1.7-12.4 1.1-40.3 5.3-54.6.8-2.7 1.2-6.1.8-7.8-.5-2.6-.3-2.9 1.8-2.9 1.7 0 4.9 2.5 10.7 8.5 4.5 4.7 8.6 8.5 9.1 8.5s1.9-2.9 3.1-6.4c1.2-3.6 3.1-7.7 4.2-9.2 1.9-2.3 2.6-2.6 6.7-2.1 2.5.3 5.5.2 6.6-.3 2.7-1.2 7.4-.4 10.4 1.8"/><path d="M306.7 213.7c-.4.3-.7 1.2-.7 2 0 1.1.5 1.1 2 .3 1.1-.6 2-1.5 2-2 0-1.1-2.3-1.3-3.3-.3"/></svg>