<svg xmlns="http://www.w3.org/2000/svg" width="682.667" height="512" version="1.0" viewBox="0 0 512 384"><path d="M0 192v192h512V0H0zM308 59.9c4.1-1.1 5.2-1 8.5.7 4.4 2.2 7 5.4 8.9 10.9 1.7 4.7.8 7.6-2.8 9.3-2.5 1.3-3.5 2.7-5.1 7.7-.5 1.5-.8 1.6-1.4.6s-1-.9-1.4.4c-.4.9-.3 1.4.2 1 .5-.3 1.1-.2 1.3.2.1.5 1.7 1.5 3.3 2.3 1.7.9 3.1 2.5 3.3 3.7s1.5 2.6 3.3 3.3c1.6.7 2.9 1.8 2.9 2.4 0 .7 4.4 2.7 9.8 4.5 14.6 4.8 15.2 5.1 15.2 7.4s-2.7 5.7-4.4 5.7c-.7 0-5.2-2.3-10.1-5.1-11.6-6.7-11.1-6.6-11.1-2.5 0 2-.8 4.4-1.9 5.6-2.4 2.7-3.1 12.3-1 14 .8.7 1.5 2.1 1.5 3 0 1 1.9 5.4 4.3 9.7 2.3 4.3 4.3 9.1 4.4 10.8.1 1.6.9 6.4 1.7 10.5 1.9 9.4 2.2 16.8.7 18.3-.9.9-1.1.6-.9-1 .2-1.2 0-2.2-.4-2.2-3.8-.4-3.8-.3-3.1 8.9.6 9 .6 9.1-2.2 12-1.6 1.7-2.6 3.3-2.2 3.6.7.7 10.3-1.8 36.2-9.6 25.1-7.6 30.9-8.9 46.9-10.6 8.3-.8 15.1-1.6 15.2-1.7s4-6.4 8.8-13.9c11.5-18.1 15.1-20.8 19.5-15.2 4.2 5.3 2.6 11.3-7.7 28.4-3.2 5.2-6.4 10.7-7.2 12.2-.8 1.4-4.2 6.7-7.5 11.8s-7.2 11.1-8.6 13.3c-22.1 35-34.7 50.9-57.2 71.7-10.9 10.1-13.7 12.1-18.2 13.5-7.4 2.1-8 2-12.8-2.4-4.2-3.8-4.3-3.9-12.2-3.8-10 0-16.7-1.9-30.4-8.7l-10.6-5.3-15 .5c-16.5.5-30-1-48.3-5.3-5.7-1.4-11.3-2.5-12.5-2.5s-12.2 2.9-24.3 6.4c-19.7 5.6-22.7 6.2-27 5.5-16.5-2.7-41.1-15.4-62.3-32.1-6.8-5.3-7.8-5.8-12.5-5.8-6.8 0-16-2.3-22.3-5.4-3.5-1.8-6-2.4-8-2-2.6.5-3.5-.1-8.2-5.2-3-3.2-6.4-7.4-7.6-9.4-1.2-1.9-4.7-5.7-7.8-8.3-5.7-5-8.4-9.4-9.4-15.2-.4-2.6-.1-3.5 1.4-4.3 2.7-1.5 20.7-3 52.1-4.4l27.4-1.2 23.2 3.8c57.3 9.5 91.9 13.5 135.4 15.6 18.8.9 33.8.5 36-.9.5-.3 1.2-2.3 1.5-4.3.7-4.7.2-5-12.4-7.8-5.2-1.2-10.4-2.8-11.6-3.5-1.2-.8-2.8-1.2-3.5-1-1.3.5-5.8-2.8-5.8-4.3 0-1.4 3.3-5.4 7.2-9 4.5-4 4.7-4.9 1.3-5.8-3.8-.9-3.1-3 3.3-9.2 6.7-6.7 15-16.9 21.7-26.6 3.4-5.1 4.9-8.5 5.6-12.5 1.2-7.8.5-17.5-1.4-20.5-1-1.5-1.7-4.6-1.7-7.6 0-6.2-1.3-9-4.3-9-3.2 0-6.2-2.4-5.4-4.3.4-1.2-1.6-3.2-8.1-7.7-4.7-3.3-9.2-6-9.9-6-1.6 0-5.7 13.7-7.8 25.5-2.4 13.6-2.9 25.9-1.6 37.2 1.1 9.5 1.1 10.6-1 17.3-2.5 8.3-2.4 18.5.3 23.8 1.6 3.1 1.6 3.3 0 3-2.6-.5-6-6.4-6.7-11.9-.4-2.8-.4-9.4-.1-14.7.5-6.9.2-12.2-.9-18.2-2.8-15.5-1.3-37.5 4.1-60.2 1.4-5.9 2.3-11.6 1.9-12.8-.8-2.7 1.8-3.7 5.1-2 1.3.8 4.6 3.5 7.2 6.2s6.7 6.2 9.1 7.8c5.3 3.6 6.5 3 8.6-4.4 2.8-9.5 7.5-14.3 12.4-12.5 1.6.7 4 .6 7.1-.2"/><path d="M290.5 82.9c-.3.5-.1 1.2.5 1.6.5.3 1-.1 1-.9 0-1.8-.6-2.1-1.5-.7M306 210c0 1.1.4 2 .9 2 1.1 0 2.2-2.6 1.4-3.4-1.2-1.2-2.3-.5-2.3 1.4"/></svg>