<svg xmlns="http://www.w3.org/2000/svg" width="682.667" height="512" version="1.0" viewBox="0 0 512 384"><path d="M0 97.4v97.4l36.8-.5 36.7-.5 18 3c59.3 10.2 109.6 15.8 152.1 16.9 22.5.6 24.9.4 36.2-1.7 6.6-1.3 12.5-2.6 13-2.9s1.3-2.4 1.6-4.7l.7-4-5.3-1.7c-2.9-.9-8-2.4-11.3-3.2-3.3-.9-7.3-2.1-9-2.7-1.6-.5-4.4-1-6-.9-3.3.1-7.5-2.9-7.5-5.5 0-.9 2.7-4.4 6-7.8 3.3-3.5 6-6.6 6-6.9 0-.4-1.1-.7-2.4-.7-1.4 0-2.8-.4-3.1-1-1-1.6 2.1-6.3 6.4-9.8 4.8-3.8 22.3-24.4 27.4-32.2 3.3-5 3.7-6.5 4.6-16.4 1-10 .9-11.3-.8-15-1.1-2.3-2.2-6.7-2.6-9.9-.6-5.7-2.4-8.7-5.1-8.7-1 0-1.2-.5-.8-1.3.6-.9.4-.9-.7-.1-1.4 1.1-5.1.5-5-.9.4-3.7-.4-4.7-6-8.1-3.3-2-6.3-3.6-6.5-3.6-.3 0-2.2-1.1-4.2-2.5S265 59 264.4 59c-2.3 0-7.6 17.9-9.8 33.1-1.9 12.6-2 24.5-.5 37.7 1.1 8.6 1 10.1-.7 14.6-1.4 3.8-1.9 7.8-1.9 15.3 0 9 .3 10.5 2.3 13.2 2.7 3.7.9 4.3-3.2 1-4.4-3.4-6-11.1-5.2-25.3.6-10.2.4-13.5-1.3-21.1-3.8-16.9-2.4-40.6 3.9-65.8 1.7-6.7 2.7-12.9 2.4-14.3-.4-1.7-.1-2.6 1-3 1.9-.7 10.1 3.9 13.7 7.7 3.1 3.3 13.8 9.9 16 9.9 1.5 0 4.5-5.5 6.4-12 .9-2.9 4.2-8 6.5-9.7 1.8-1.5 6.2-1.7 7.6-.3.6.6 2.3.6 4.9-.1 8.4-2.3 15.3 1.2 19.1 9.8 1.3 2.9 2.4 6.2 2.4 7.2 0 2.6-3.8 7.1-6.1 7.1-1.4 0-2.2 1.1-3.1 4.5-.7 2.5-1.6 4.5-2 4.5-2 0-.5 2.2 2.2 3.1 1.6.6 3.2 1.9 3.5 2.9q.6 1.8 3.3 1.8c3.4 0 8.2 1.8 8.2 3.2s3.4 2.6 17 6.1c6.3 1.6 12.3 3.7 13.2 4.7 1.6 1.6 1.6 1.9-.3 4.9-1.4 2.1-2.9 3.3-4.4 3.3-1.2 0-7.5-2.5-14-5.5-6.4-3.1-13.1-5.9-14.8-6.2-2.7-.5-2.9-.4-2.2 1.3 1.6 3.9 1.6 6.2.1 9.3-.9 1.7-2 3.1-2.4 3.1-1.6 0-.6 12.6 1.1 15 .9 1.3 1.4 2.7 1.1 3.1-.5.9 3.7 9.6 7 14.3 1.1 1.7 2.1 4.2 2.2 5.7.1 1.4.9 5.7 1.7 9.5 2.6 11.6 3 17.2 1.6 20.5-1 2.5-1.4 2.8-2.1 1.5-.5-.9-1.6-1.6-2.3-1.6-1.2 0-1.5 1.8-1.5 9.2 0 8-.3 9.7-2.6 13.5l-2.5 4.4 2.8-.7c6.6-1.5 25.5-6.7 49.8-13.7 27-7.8 33.7-9.2 51.8-10.3l10.7-.6 10.1-15.2c9.7-14.6 15.4-20.6 19.3-20.6 2.2 0 5.6 5.8 5.6 9.6 0 5-1.9 9.2-9.9 21.9-14 22.3-40.8 61.9-51.7 76.5-18.6 24.9-58 62.4-70.4 66.9-3.1 1.2-6.6 2.1-7.6 2.1-2.3 0-7.4-3-13.1-7.6-4-3.3-4.6-3.5-13.5-3.8-12.7-.5-24.2-4.5-39.8-13.8-4.1-2.4-8.4-4.8-9.5-5.2s-10.8-.7-21.6-.7c-21.3.2-33.6-1.1-52-5.5l-10.6-2.6-11.9 3.2c-6.5 1.7-17.3 4.9-23.9 7s-13.4 4.1-15.1 4.5c-10.3 2.1-47.9-15.3-67.9-31.5-10.5-8.4-11.1-8.7-21-9.4-7.4-.5-10.3-1.3-16.3-4.1-4-1.9-7.9-3.2-8.6-2.9-1.6.6-9.4-6.8-13.3-12.5L0 227.7V384h512V0H0z"/><path d="M288.5 66c.3.5.8 1 1.1 1 .2 0 .4-.5.4-1 0-.6-.5-1-1.1-1-.5 0-.7.4-.4 1m17.6 138.6c0 1.1.3 1.4.6.6.3-.7.2-1.6-.1-1.9-.3-.4-.6.2-.5 1.3"/></svg>