<svg xmlns="http://www.w3.org/2000/svg" width="682.667" height="512" version="1.0" viewBox="0 0 512 384"><path d="M0 96.4v96.3l28.3-.5c29.6-.5 31.9-.3 60.2 4.7 62.3 11 158.6 19.3 176.8 15.1 2.3-.5 9.1-1.8 15.2-3 6-1.2 11.5-2.6 12.2-3.2s1.3-2.7 1.3-4.8c0-3.4-.4-3.9-3.2-5-3.9-1.4-13.9-3.8-18.8-4.6-1.9-.3-4.5-1.2-5.8-2s-3.1-1.2-4.2-.9c-2.7.9-6.9-.5-8.1-2.6-1.3-2.5.1-5 6.9-12.1l5.5-5.8-3.2-.6c-1.7-.4-3.3-1-3.6-1.3-.7-1.3 2.8-5.6 14.4-17.7 12-12.7 25.7-30.6 25.8-33.9.1-1.1.3-6.5.6-12 .4-8.5.2-10.7-1.4-14.5-1.1-2.4-1.9-5.4-1.8-6.5.2-1.1-.1-3.9-.5-6.2-.5-3-1.1-4-2.2-3.6-.8.3-1.4 0-1.4-.6s-1-1.1-2.2-1.1c-2.9-.1-5.5-2-5.9-4.5-.4-1.9-15.5-11-22.1-13.4l-2.8-1-3 9.7c-6.6 21-8.8 41.6-6.5 60.4l1.7 13.6-2.3 6.9c-3 8.5-3.2 21-.6 26 1 1.8 2.2 3.3 2.7 3.3.6 0 1 .4 1 1 0 1.9-3 1-6-1.8-4.6-4.2-6.3-12-5.5-26.2.6-9.7.3-13.2-1.5-22-3.8-18.4-1.8-47.4 5.1-71.7 1.2-4.6 1.8-8.5 1.4-10.4-1.4-6.3 6.1-4.2 16.6 4.8 6.9 5.8 16.3 10.7 17.7 9 .5-.7 2.4-4.8 4.1-9.2 1.8-4.5 4.2-9.4 5.5-11 2.2-2.8 2.4-2.8 13.7-3.1 8.1-.1 12.2.2 14.1 1.2 5.1 2.6 9.8 10.7 9.8 16.9 0 3.5-4.4 8.9-6.6 8.1-.8-.3-1.7 1.2-2.5 4-.7 2.4-1.7 4.4-2.1 4.4-2.1 0-.5 2.9 2.1 3.8 1.6.6 3.4 2 4.1 3.1.9 1.8 1.4 1.9 3.2 1 1.5-.8 3-.7 6.4.6 2.4.9 4.2 2.1 3.9 2.5-.7 1.1 6.3 3.2 19.8 6.1 14.6 3.1 15.6 3.9 12 10-2.2 3.7-5.3 3.8-13 .3-3.2-1.4-9.8-4.1-14.6-6-10.6-4.2-11.9-3.8-11 3.6.5 4.2.2 5.2-1.8 7.2-2.1 2.1-2.4 3.1-2 8.3.2 3.3.9 6.9 1.7 8 .8 1 1.4 2.8 1.4 3.8 0 2 4 10.2 7.6 15.7 1.3 2 2.3 4.7 2.3 6.1-.1 1.3.5 5.1 1.4 8.4 2.1 7.8 3.1 21.5 1.8 23.5-.9 1.3-1.2 1.2-2.4-.4-.9-1.2-1.9-1.6-2.7-1.1-1 .6-1.1 2.8-.6 9 .5 7.4.4 8.6-1.9 13-1.3 2.7-2.3 5-2.1 5.2.5.5 23.9-5.8 52.6-14.1 31.9-9.3 37.7-10.5 54.7-11.3l13.1-.6 8.9-13.1c11.2-16.7 17.7-23.6 22.1-23.6 3.8 0 6.2 3.8 6.2 9.7-.1 5.8-2.4 10-22.1 39.5-46.8 70.3-57.8 83.6-96.4 117-13.1 11.3-17.1 14.2-22.5 16.3-3.6 1.4-7.9 2.5-9.6 2.5-3.3 0-11.1-4.4-16-9.1-2.8-2.7-3.7-3-13-3.5-15.3-.9-28-5.3-45.7-15.9l-9.5-5.6-26.3-.3c-27.4-.3-32.7-.9-51.7-5.7-10.2-2.6-8-3.1-51.2 10.3-11.5 3.5-13.7 3.7-20.5 1.8-20.3-5.8-42.8-17.8-63-33.4l-7.7-6-10.4-1.1c-8.3-1-11.7-1.9-16.4-4.4-3.3-1.7-6.5-3.1-7-3.1-.7 0-1 24.9-1 70.5V384h512V0H0z"/><path d="M287.5 56.9c-.3.5-.1 1.2.5 1.6.5.3 1-.1 1-.9 0-1.8-.6-2.1-1.5-.7"/></svg>