<svg xmlns="http://www.w3.org/2000/svg" width="682.667" height="512" version="1.0" viewBox="0 0 512 384"><path d="M0 95v95h21.6c20 0 23.1.3 42.2 3.5 66.4 11.1 111.7 16.1 163.2 18 17.7.7 23.4.1 51.7-5.2 14.1-2.6 14.1-2.6 14.7-5.6 1-4.9.7-6.6-1.4-7.7-2.2-1.2-14-3.8-20.3-4.5-2-.3-4.7-1-6-1.7-1.2-.7-4.4-1.3-7.1-1.3-4.1 0-5.2-.4-6.9-2.7l-2-2.7 2.7-3.6c1.5-2 4.6-5.3 6.8-7.4 4.5-4.1 4.4-5.5-.2-6.5l-3.1-.6 1.7-3.2c.9-1.8 5.1-6.6 9.4-10.8 15.5-15.2 31.7-35.3 32-39.7.8-13.1.5-26.3-.7-29-.7-1.8-1.3-4.6-1.3-6.3 0-4.2-2.6-10-4.4-10-.9 0-1.6-.5-1.6-1.1 0-.5-.8-.9-1.7-.7-2.4.4-5.7-2.2-6.1-4.7-.2-1.1-.5-2-.5-2-.1 0-5.3-2.6-11.4-5.8-6.2-3.1-12.1-5.7-13-5.7-3.3 0-9.9 24.9-12.3 46.5-.9 8.3-.8 12.6.6 25.1l1.7 15.1-2.7 9.4c-1.4 5.2-2.6 10.6-2.6 12.1 0 5.1 2.1 12.6 4.1 14.4 4.3 3.9.7 4.8-3.9.9-5-4.2-6.6-11.4-5.8-26.9.6-11.4.4-14.1-1.4-21-1.6-6.5-2-11-2-25.5 0-19.8 1.5-31.9 6-48.6 1.6-6.1 2.7-12.1 2.3-13.3-.3-1.2 0-2.9.7-3.7 1.1-1.3 2-1.1 7.1 1.6 3.2 1.7 7.5 4.6 9.6 6.3 2.1 1.8 6.8 4.7 10.5 6.5 6.1 2.9 6.9 3.1 8.3 1.7 1.7-1.6 6.5-11.4 6.5-13.2 0-2.1 6-9.3 9-10.9 2.6-1.3 3.4-1.4 5.6-.2 2 1 3.8 1.1 7.6.4 9.5-1.9 16.8 2.9 20.3 13.3 1 2.9 1.4 6.2 1.1 7.6-.8 3.2-5.3 7.5-7.1 6.8-.8-.3-1.7 1.1-2.6 4-.7 2.5-1.7 4.6-2.1 4.6-1.6 0-.8 3.1 1 3.7.9.4 2.9 1.6 4.4 2.7 2.3 1.6 3.2 1.7 5.2.8s3.5-.8 7.1.6c2.5.9 4.5 2.2 4.5 2.8 0 1.3 2.9 2.1 21.8 5.8 16 3.2 17.2 4.1 13 10.3-3.2 4.5-5.4 4.3-21.7-2.1-18-7.2-18.5-7.3-20.5-4.5-.9 1.4-1.6 4.3-1.6 7 0 3.1-.7 5.5-2 7.2-2.8 3.6-2.8 13.6 0 16.2 1.1 1 2 3.1 2 4.6 0 2.9 1.8 6.6 7.2 15.1 1.6 2.6 2.7 5.2 2.3 5.8-.3.5-.1 2.7.5 4.7 1.9 6.5 5 22.4 5 25.2 0 1.4-.8 3.5-1.6 4.6-1.4 1.9-1.6 1.9-2.5.2-.6-.9-1.6-1.7-2.3-1.7-1.1 0-1.3 2.4-1.2 10.7.1 8.5-.3 11.5-1.7 14.2-.9 1.9-1.6 3.5-1.4 3.7.3.3 32-8.2 52.2-14.1 39.4-11.5 53.9-14.3 68-13.1l7 .6 4.5-6.7c6.5-9.6 13.1-19.2 16.5-23.9 3.1-4.3 10-9.4 12.7-9.4 4.4 0 7.1 9.4 4.8 16.6-1.1 3.4-13.4 22.6-29.1 45.4-2.8 4.1-8.5 12.4-12.7 18.5-4.2 6-8.8 12.6-10.2 14.5-1.5 1.9-7.3 9.8-13 17.5-12.4 16.8-44.8 49.7-65.8 66.9-12.8 10.4-18.8 13.8-28.8 16.3-3 .7-11.9-3.4-19-8.8-6.1-4.6-6.1-4.6-16-5.2-6.1-.4-13.1-1.6-18.4-3.2-9.2-2.7-26.7-11.2-36.8-17.7l-6.2-4-14.6 1.2c-20.5 1.7-40 0-64.1-5.7l-11.2-2.6-23.3 7.1c-27.2 8.3-31.1 9.3-34.7 9.4-5.8.2-31.8-10-44.2-17.2-2.5-1.5-6.6-3.9-9.3-5.4-2.6-1.4-9-5.9-14.2-9.9-14-10.6-13.6-10.4-21.4-10.5l-7-.2v134h512V0H0z"/><path d="M285.5 48c-.3.5.1 1 .9 1 .9 0 1.6-.5 1.6-1 0-.6-.4-1-.9-1-.6 0-1.3.4-1.6 1"/></svg>