<svg xmlns="http://www.w3.org/2000/svg" width="682.667" height="512" version="1.0" viewBox="0 0 512 384"><path d="M0 93.9v93.8l16.3.6c11.4.4 21.5 1.5 34.2 3.7 63.9 11 123.3 17.3 164.5 17.4 20.9.1 26.6-.2 39-2.2 23.2-3.6 36.4-6.3 37.6-7.5.6-.7 1.4-3.1 1.8-5.4.7-5.1-.6-6.1-9.3-7.3-13-1.8-19.7-3.3-21.2-4.6-1.8-1.6-4.7-1.8-6.8-.5-1.6 1-6.9-.3-8.5-2-.8-.9-.7-1 .4-.4 1.2.7 1.1.4-.2-1.1-2-2.3-1.5-3.2 7.2-12 6.5-6.5 6.5-6.6-.2-8.8-1.5-.4-1.5-.8.3-4.5 1-2.2 2.8-4.5 3.9-5.1 3.5-1.9 27.4-28.6 33.6-37.6l6.1-8.9-.2-14.5c-.2-8-1-18.1-1.9-22.5-.8-4.4-1.5-8.1-1.6-8.2-.1-.8-6.6-4.6-7.9-4.7-3-.2-5.4-2.3-4.8-4 .4-1 .3-1.5-.3-1.1-.6.3-1 .1-1-.5 0-1.1-20.8-11.4-25.4-12.6-3-.7-3.1-.4-7.7 14.6-3.7 12.5-6.9 32.3-6.9 43.5 0 4.9.8 14.1 1.7 20.3 1.7 11.1 1.7 11.3-.5 18-4.5 14-4.1 25.9 1 31.7 2.8 3.2 2.8 3.5.9 3.5-2.9 0-8.8-5.5-10.1-9.6-2.2-6.5-2.8-14.8-1.8-22.9 1-7.2.8-9.3-1.7-21.9-2.6-12.9-2.7-15-2.2-31 .6-18.1 1.9-27 6.3-43.7 1.6-5.7 2.7-12.3 2.7-14.6-.1-2.7.3-4.3 1.2-4.6 1.8-.7 14.5 5.4 17 8.2 2.2 2.5 15.8 9.1 18.6 9.1 1.1 0 1.9.4 1.9 1 0 .5.8 1 1.8 1 1.6-.1 1.6-.1 0-1.1-1.6-.9-1.5-1.3.7-5.3 1.3-2.4 3.2-6.3 4.1-8.7C287.3 9.1 295 3 299.9 7.4c1.3 1.2 2.6 1.2 6.9.4 9.9-2 17.7 3 21.2 13.6 2.4 7.1 1.3 11.8-3.2 14.6-1.8 1-3.5 1.7-3.8 1.5-.4-.2-1.3 1.5-2 3.8s-1.9 4.7-2.6 5.3c-1.9 1.6-.4 2.9 5.6 5.1 4.1 1.4 6 1.7 7.3.9 2-1.3 10.7.8 12.3 3 1.1 1.4 12.3 3.9 28.9 6.4 9.4 1.4 11.5 2.3 11.5 5.1 0 3.1-4.9 8.9-7.5 8.9-1.2 0-9.1-2.5-17.4-5.5-20.2-7.4-20.4-7.4-23.5-3.9-1.9 2.2-2.5 4-2.6 7.5 0 3.2-.7 5.5-2.1 7.4-3 3.7-3.4 14.8-.7 17.2 1 .9 1.8 2.9 1.8 4.4 0 2.9 1.8 6.5 7.7 15.7 2.1 3.2 3.2 5.9 2.8 7-.3 1 .1 3.7.9 5.9s2.4 8.8 3.6 14.7c2 10 2 10.7.4 14.1-1.5 3.3-1.8 3.4-3.4 2-3.7-3.3-4.1-2.1-3.4 9.4.6 9 .4 11.4-1 14.1-.9 1.8-1.5 3.5-1.3 3.7.5.5 25.7-6.2 60.2-16.1 42.5-12.1 41.5-11.9 59.7-12 10.1 0 15.9-.4 16.2-1.1.4-1.1 6.6-10 17.9-25.6 7.8-10.8 17.2-18.1 19.2-14.9.3.5 1 1 1.6 1 .5 0 .9-23.4.9-60.5V0H0z"/><path d="M284.1 36.9c-1 .6-1 1-.1 1.6 1.3.8 2.4.1 1.9-1.4-.3-.6-1-.7-1.8-.2m219.4 115.4c-7.6 11.6-34.1 49.8-40.2 58.2-33.4 45.3-43.3 56.5-73.3 82.6-25.8 22.5-31.1 26.4-40.1 29.8-4.4 1.7-9.9 3.1-12 3.1-4.9 0-12.8-3.6-21-9.6-6-4.5-6.2-4.5-17-5.4-18.5-1.5-27.3-4.6-53.2-18.7l-15.7-8.5-9.4 1.1c-20.7 2.4-43.8.8-69.2-4.9l-12.9-2.9-27.5 8.2c-34.7 10.3-36.8 10.4-54.1 3.5-19.7-7.8-39-18.6-51.1-28.3L0 255v129h512V262c0-67.1-.1-122-.2-121.9-.2 0-3.9 5.5-8.3 12.2"/></svg>