<svg xmlns="http://www.w3.org/2000/svg" width="682.667" height="512" version="1.0" viewBox="0 0 512 384"><path d="M0 94.9v94.8l4.3.6c2.3.4 11.4 1.6 20.2 2.7 60.1 7.4 102.8 10.2 127 8.1 51.4-4.5 110.4-11.7 131.6-16.2l4.7-1 .6-6.2c.4-3.4 1-7.2 1.3-8.5.5-2.1.3-2.2-3.3-1.7-2.4.4-5.5.1-8-.8-2.3-.8-4.7-1.1-5.4-.7-2 1.2-13.3-.1-15.2-1.7-1.8-1.6-2.1-1.5-14.3.7-3.3.6-7 1.1-8.3 1.1-3.1-.1-5.4-2.6-5.4-5.8 0-2.7 1.8-4.7 15.6-16.6 3.1-2.7 5.6-5.3 5.6-5.7 0-.5-1.5-.6-3.4-.3-2.6.4-4.2 0-6.5-1.6l-3.1-2.2 3.3-4.3c1.8-2.4 6-6.6 9.3-9.3 3.3-2.8 7.8-7.2 10.1-9.9 5.9-7.2 19.5-26.1 22.8-31.9 1.6-2.8 4.6-7.6 6.7-10.7s3.8-6.2 3.8-6.9c0-.6-1.6-3.7-3.5-6.9-5.1-8.4-5.3-10.5-1.5-18.3 3.1-6.4 3.2-6.9 2.5-15.4-.8-10.9-2.3-15.7-4.2-14.1-1.1.9-1.7.6-2.9-1.1-.9-1.2-2-1.9-2.5-1.6-.5.4-.9-.2-.9-1.2 0-1.2-.3-1.4-.8-.6-.8 1.3-5.2.6-5.2-.8 0-.5-11.6-.9-25.9-.9h-25.8l-1.7 5.2c-2.3 7.5-4.2 17.4-6.2 31.8-2 14.8-1.5 23.6 2.1 43.1l2.6 13.6-3.3 8.4c-2.9 7.6-3.2 9.4-3.2 19.4 0 12.3 1.1 15.7 6.5 19.5 4.2 3.1 2.4 4.6-3 2.4-9.9-3.9-16.1-18.3-14.6-33.9 1.4-13.7 1-19.4-2.3-30.6-5.6-19.5-6.2-43.5-1.6-69.2.7-4.5 1.4-8.5 1.4-9 0-.4-45-.7-100-.7H0zM365 .6c.8.2 12.4 1 25.7 1.9 13.3.8 25.4 2 26.8 2.5 3.2 1.2 2.8 3.4-2.1 10.1-5.2 7.2-5.3 7.2-25.9 2.4-8.2-2-16.3-3.8-18-4.1-1.6-.2-6.8-1.3-11.4-2.3l-8.4-1.8-5.1 5.1c-2.8 2.8-7.4 6.7-10.2 8.6-5.1 3.4-5.2 3.6-5.6 9.2-.3 4.1-1 6.4-2.6 8.1-1.9 2-2.1 3.3-2 10 .2 6.6.6 8.1 2.5 9.9 1.6 1.5 2.3 3.3 2.3 5.8 0 3.4 4.3 11.8 6.9 13.4.6.4 2.6 3.4 4.6 6.7 3.1 5.3 3.3 6.2 2.1 7.5-1.3 1.2-1.2 2.3 1 8.7 2.6 7.5 7.4 26.7 7.4 29.5 0 .9-.9 3.5-2.1 5.9-2.1 4.3-2.7 4.5-6.1 1.6-1-.9-1.8-1.1-2.2-.4-.6.8 2.6 21.5 4 26.2.3.9-.3 2.4-1.2 3.3-.9 1-1.4 1.9-1.1 2.2.8.9 55.9-13.1 90.7-23 54.4-15.5 56-15.8 67.3-15.4l9.7.4V0l-74.2.1c-40.9.1-73.6.3-72.8.5m-46.2 4.5c.6.7 1.2 2.5 1.2 3.9 0 1.5.9 3.5 1.9 4.4 1.8 1.6 2.2 1.6 7-.9 6.8-3.4 6.6-5.1-.6-6.5-3.2-.6-6.9-1.3-8.3-1.6-2-.4-2.3-.3-1.2.7m-4.5 170.6c-.8 2.1.2 2.6 3.6 1.8 4-.9 4-2.1 0-2.7-2-.3-3.3 0-3.6.9m190.5 22.5c-27.5 36.4-49.6 60.8-75.3 83.6-6.6 5.8-12.2 10.9-12.5 11.2-.8.9-26.6 22-35.4 28.9-9.9 7.7-20.6 14.7-26.6 17.4-3.5 1.6-7.2 2.2-16.5 2.5-10.6.3-13 0-20-2.1-11-3.4-19.9-7.2-26.4-11.5-5.4-3.5-6-3.6-18.1-4.3-15.2-.9-24.7-2.8-40.5-8-15.2-5.1-40.1-17.5-54.4-27.2l-4.4-3-17.6 1.7c-18.8 1.8-42.1 2.3-53.6 1.2-13.7-1.4-29.1-3.7-39.5-5.9-10-2.2-10.6-2.2-16-.6-3 .9-9.1 2.7-13.5 3.9-4.4 1.3-10.5 3.1-13.5 4-3 1-9 2.8-13.2 4.1L0 296.5V384h512v-97c0-53.4-.2-97-.5-97-.2 0-3.2 3.7-6.7 8.2"/></svg>