<svg xmlns="http://www.w3.org/2000/svg" width="682.667" height="512" version="1.0" viewBox="0 0 512 384"><path d="M0 96.4v96.3l11.7 1.2c31 2.9 51.4 4.2 57.8 3.7 3.9-.4 20.9-1.8 38-3.1 58.8-4.6 107.2-9.8 146.5-15.5 20.1-3 29-4.6 29.9-5.6.5-.5 1.2-4.8 1.5-9.7l.7-8.7h-4.4c-2.4 0-4.7-.3-5-.7-.4-.3-6.6-.6-13.9-.5-7.5.1-14.9-.3-17.1-1-2.8-.9-4-.9-4.9 0-.7.7-3.3 1.2-5.8 1.2s-6.2.8-8.1 1.8c-2.8 1.4-4.1 1.6-6.2.7-1.5-.6-2.4-1.4-2.1-1.8.4-.4.2-.7-.4-.7s-.9-.7-.5-1.6c.3-.9.1-1.9-.5-2.3-1.3-.8 8.6-12.5 13.4-15.7 4.6-3.2 9.6-8.3 8.9-9.3-.2-.5-2.4-.7-4.7-.4-3.9.4-4.4.2-5.9-2.4-1.5-2.7-1.4-3 1.2-6.9 1.6-2.3 5.9-6.8 9.7-10.1 10-8.6 14-13.4 27.9-33.3 6.5-9.3 20.3-31.6 20.3-32.8 0-.4-1.5-2.3-3.3-4.1-1.9-1.7-4.4-5.2-5.7-7.7-2.9-6-2.3-10.3 2.7-19.1 2.1-3.8 4-7.1 4.1-7.6.2-.4-19.5-.7-43.7-.7h-44l-.6 3.2c-3.5 20.3-3.4 32.4.6 50.8 1.6 8 3.3 15.9 3.6 17.6.3 2.2-.7 6.8-3.6 15.1-7.3 21.2-5.2 33.8 7 42.5l2.4 1.7-3.5.1c-6.5 0-14.2-5.6-18-13-3.3-6.7-4.1-13.1-3.8-30.6l.3-16.9-3.6-10.5c-5.3-15.1-6.4-22.8-6.2-42.8l.1-17.2H0zM329.5 1.1c-.4.6-.8 3.2-.9 5.9-.1 3.8-.7 5.5-2.8 7.7-2.6 2.7-2.6 3-1.8 11.1.6 5.6 1.5 9.1 2.9 11.1 1.2 1.6 2.1 4.1 2.1 5.5 0 3.9 2.4 8.9 6.3 13.2 5.5 6.2 10.7 14.6 10.7 17.5 0 2.2-.5 2.6-2.5 2.6-1.4 0-2.9.3-3.2.7-.3.3.6 4.7 2 9.8 1.5 5.1 3.6 14.8 4.8 21.4l2.2 12.2-2.1 4.6c-1.2 2.5-2.5 4.6-2.8 4.6s-1.8-.7-3.4-1.5l-3-1.6v3.8c0 6.2 2.7 20.8 4.4 24.1 2 3.9 2 3.9-.4 4.5-1.4.3-1.8 1-1.4 2.2.4 1 1.3 1.4 2.2 1 .9-.3 14.9-3.7 31.2-7.6 37.3-8.8 48.1-11.6 93-24.4 20.1-5.7 38.4-10.9 40.8-11.5l4.2-1.1V0h-90.9c-63.8 0-91.2.3-91.6 1.1m-18.4 159.2c-.6 1.6-1.1 4.2-1.1 5.8 0 2.4.4 2.9 1.8 2.5.9-.3 3.4-.8 5.5-1.2 2-.3 3.9-1 4.2-1.4.5-.9-1.2-2.3-3-2.6-.5 0-1.5-.2-2.2-.2-.7-.1-1.9-1.4-2.7-3l-1.4-2.7zm12.4 4.7c-.3.5-.1 1 .4 1 .6 0 1.1-.5 1.1-1 0-.6-.2-1-.4-1-.3 0-.8.4-1.1 1m185 46.8c-21.2 26.8-50 57-73 76.6-7.7 6.6-14.4 12.4-15 13-.5.6-4.6 4.1-9 7.6-31.8 25.7-41.5 33.3-45 35-5.2 2.5-18.9 4.9-32.9 5.6-9.1.5-13 .2-21.6-1.5-12.4-2.6-28.9-8-38-12.6-6.2-3.1-7.1-3.3-21.5-3.8-16.1-.7-26.6-2.5-43.7-7.8-20.1-6.2-25.9-8.8-65.8-29.7-13-6.8-13.7-7-18.1-6.2-29.8 5.7-86.1 5.7-113.7-.1-2.6-.5-6.2-1.2-7.9-1.5l-3.3-.7V384h512v-88c0-48.4-.1-88-.2-88-.2 0-1.6 1.7-3.3 3.8"/></svg>