<svg xmlns="http://www.w3.org/2000/svg" width="682.667" height="512" version="1.0" viewBox="0 0 512 384"><path d="M0 95.6v95.5l9.8-.6c101.4-6.5 184.6-14.3 246.2-23.1 24.7-3.5 23.4-2.9 24.1-9.5.4-3 1-7.5 1.4-10.1l.7-4.6-6 .5c-4.2.4-7.5.1-10.8-1.1-5.5-1.9-12-2.1-13-.5-.5.8-3.1.9-8.8.4-7.8-.7-18.7-.9-25.1-.5-1.6.1-4.4 1.3-6.2 2.6-1.7 1.3-3.9 2.4-4.8 2.4-2.3 0-5.3-3.1-5.7-6-.1-1.4-.7-2.8-1.2-3.1-1.3-1 7.5-12.7 14.3-19.2 5.8-5.3 7.8-8.6 4.7-7.4-2.2.9-7.3-2.9-7.8-5.8-.8-4 2.4-8.7 12.1-18 16.3-15.6 43.8-48.7 53-63.8l2.3-3.7-5.6-6.2c-3.1-3.4-6.4-7.8-7.3-9.9L264.5.1 218.7 0c-41.7 0-45.8.1-46.4 1.7-1.2 3 1.6 20.6 5.7 37l4.1 16.2-3.1 7.8c-5.1 12.6-6 16.3-6 25.9 0 12 1.9 18.4 6.8 22.3 2 1.7 4.3 3.1 5.2 3.1.8 0 2.1 1 2.9 2.2 1.3 2.1 1.2 2.1-3.9 1.5-11-1.3-19.5-9.2-23.6-22.2-2.5-7.7-2.6-8.6-1.9-24.6l.6-16.5-4.5-12.5c-6-16.4-7.5-22.7-8.3-33.2l-.6-8.7H0zM281.6 1.5c.4.8.8 1.5 1 1.5s.4-.7.4-1.5-.4-1.5-1-1.5c-.5 0-.7.7-.4 1.5M320.2 5c.3 2.8 1.2 5.8 2 6.8.8.9 2 4.4 2.7 7.7 1.2 6.4 3.3 10 10.3 18.2 5.1 6 10.1 15.3 9.6 17.9-.2 1.3-1.5 1.7-6.1 1.7-5.8.1-5.9.1-5.4 2.7.6 3 3.1 23 4.7 37.3l1 9.7-3 5.3c-2.7 4.8-3.3 5.3-5.9 4.9-2.7-.4-2.9-.2-3.5 4-1 7.3.1 15.8 2.9 21.1 3 5.8 3 5.7.6 5.7-1.3 0-2 .9-2.3 3-.4 2.4-.1 3 1.4 3 1 0 10.5-2 21.1-4.6 10.5-2.5 31.4-7.4 46.2-10.9 38.7-9.1 48.3-11.6 83.3-21.6 17.2-4.9 31.5-8.9 31.7-8.9.3 0 .5-24.3.5-54V0H319.7zm-16.7 147.5c-.3 1.4-.7 3.7-1 5.1-.5 2.1-.3 2.5 1.2 2 1-.3 4.7-1 8.2-1.7l6.4-1.2-6.9-3.3c-3.8-1.9-7-3.4-7.1-3.4-.2 0-.5 1.1-.8 2.5m19 2.5c-.3.6.1.7.9.4 1.8-.7 2.1-1.4.7-1.4-.6 0-1.3.4-1.6 1m187.8 67.4c-.9 1.5-9.2 11-22.5 25.6-16.8 18.5-40.4 40.3-70.8 65.5-8.5 7.1-17.7 14.7-20.5 17-8.9 7.5-14.9 9.8-38 14.5-22 4.5-47.3 8-58.3 8-13.2 0-32-4.2-50.2-11.2-1.4-.5-10.1-1.1-19.5-1.2-19.8-.4-31.2-2.3-54.7-9-24.5-7.1-47.5-16.8-75.5-32-7.2-3.9-12.5-6-17.9-7.2-9.8-2-8.8-2-22.3 0-14.9 2.1-42.6 4.6-52.3 4.6H0v87h512v-81.5c0-44.8-.2-81.5-.5-81.5-.2 0-.8.6-1.2 1.4"/></svg>