<svg xmlns="http://www.w3.org/2000/svg" width="682.667" height="512" version="1.0" viewBox="0 0 512 384"><path d="M0 87.5V175h4.8c8.9 0 78.5-5 126.7-9 57.8-4.9 127.5-12.3 132.1-14 1.7-.7 2.3-2.3 3.3-8.2.6-4 1.1-7.8 1.1-8.3 0-.6-3.1-2-6.8-3.2s-7.6-2.8-8.6-3.4c-1.1-.6-5.8-1.3-10.5-1.4-8.9-.4-12.5-1.2-17.6-3.9-3.4-1.8-6.6-2.1-8.1-.6-.7.7-3.3.7-8-.1-3.8-.7-8.9-1.1-11.3-1.1-2.5.1-5.1-.4-6-1.1-1.1-.9-1.5-.9-1.8 0-.3.7-1.1 1.3-1.8 1.3s-2.5 1.3-3.8 3c-1.4 1.6-3.2 3-3.9 3-1.6 0-4.1-3.8-4.4-6.5-.1-1.1-.3-3.1-.4-4.5-.6-4.6 3.3-12.9 9.8-20.7 5.5-6.6 6.2-7.7 4.7-8.6-.9-.5-2.8-.7-4.1-.4-1.7.3-2.2.1-1.6-.7.4-.6.8-2.5.7-4.1-.5-12.9 15.4-31.7 47.5-56.2 10.2-7.7 21-16.7 24-19.9l5.5-5.9-58.4-.3C171 .1 144.6.1 144.4.3c-.1.1.6 2.9 1.6 6.2s2.8 9.2 4 13.2c2.6 8.5 2.5 8.9-3.8 23.3-4.2 9.6-4.6 11.3-5 20.2-.8 17.9 4.9 29 16.3 31.9 6.5 1.6 6 3.9-.8 3.9s-16-4.4-21.1-10c-9.7-10.8-13.7-27.1-10.9-44.7 1.6-9.7 1.6-10.5-.2-16.5-1.1-3.5-3.8-10.5-6.2-15.6S114 2.2 114 1.4C114 .2 105.7 0 57 0H0zm319-87c0 1 3.3 5.9 8.1 12 7.3 9.4 11.1 16.3 10.7 19.9-.3 2.8-.7 3.2-5.3 4.2-3.5.8-4.9 1.5-4.6 2.5.2.8.6 10.5.8 21.7.4 19.6-.3 27.2-2.7 27.2-.5 0-2.3 2-4 4.5s-3.7 4.5-4.4 4.5c-2.2 0-5.4 4.3-6.6 8.9-1.4 5.5-1.8 19-.6 25.3.8 4.7.8 4.8-1.7 4.8-1.9 0-2.6.6-2.9 2.2-.2 1.6-1.4 2.6-3.8 3.4-3.5 1.2-6 3.8-4.7 5 2.1 2.2 75.4-13.2 156.2-32.7 17-4.1 44.8-11.6 53.8-14.5l4.7-1.6V0h-96.5c-53.1 0-96.5.2-96.5.5m181.8 234.7c-20.2 24.1-65.3 67.9-74.8 72.8-5.4 2.7-28.3 10.9-43.5 15.5-6.6 2-14.5 4.7-17.5 6.1-10.9 5.1-19.3 7.5-40.2 11.9-11.7 2.5-28.3 6.1-36.8 8-31.6 7.1-41.7 7.6-63 3.5-7.6-1.5-11.1-1.7-17.5-1-14.2 1.6-34.7 1.2-48.3-1-26.9-4.2-72.1-16.6-94.7-26-13.7-5.7-44.1-20.2-54.8-26.1C4.9 296.2.8 294 .5 294S0 314.2 0 339v45h512v-80.5c0-44.3-.2-80.5-.4-80.5-.3 0-5.1 5.5-10.8 12.2"/></svg>