<svg xmlns="http://www.w3.org/2000/svg" width="682.667" height="512" version="1.0" viewBox="0 0 512 384"><path d="M0 86.1v86l4.3-.5c2.3-.3 9.2-.8 15.2-1.1C65 168 148.7 161.6 201 156.4c28.5-2.8 59.2-6.3 59.7-6.7.7-.8 3.2-16.1 2.7-16.8-.3-.5-1.2-.9-2-.9-2 0-16.8-5.1-17.4-6-.9-1.2-9.5-2.9-11.8-2.4-2.9.8-12.1-1.4-15.2-3.6-3.4-2.3-8.7-3.5-10.3-2.2-.8.7-3.6.6-8.7-.5-15.2-3-23.6-2.5-24.7 1.6-.5 2.1-4 2.5-5.8.6-3.3-3.2 0-20 5-25.5 1.3-1.4 3.7-4.8 5.4-7.5 2.7-4.5 2.9-5.1 1.4-6.2-.9-.7-2-1-2.4-.7-.5.3-.9-.1-1-.8 0-.7-.2-2.2-.4-3.2-.2-1.1.1-2.9.7-4 .6-1.2 1.2-3.3 1.3-4.7.4-4.1 8.8-16.2 17.3-24.7 6.6-6.6 30.4-23.9 39.7-28.8 1.1-.6 5.6-3.7 10-7l8-5.9-56.4-.3c-31-.1-56.7 0-57 .3-.2.3.6 4 1.9 8.3 3.7 12.2 3.7 13.6-.9 23.5-5.7 12.4-7.1 17.8-7.1 27.6 0 17.3 5.5 27.1 17.4 30.5 3.1.9 5.6 2.1 5.6 2.6 0 .6-2.8 1-6.2 1-15.6 0-28.4-12.6-33.3-32.7-1.7-7.2-1.7-11.9.1-29.9.7-7.2-.1-10.3-5.9-22.7l-4-8.7H0zM322.2 4.2c1.9 2.4 5.8 7.9 8.7 12.2 4.4 6.7 5.1 8.4 4.5 11-.7 3.5-1.7 4.3-5.9 5.2l-3.1.5.4 20.9c.3 11.5.2 22.4-.2 24.2-.3 2-2.3 5.2-4.6 7.7-2.2 2.3-4 4.7-4 5.3s-.9.8-2 .5c-1.3-.3-3 .3-4.6 1.8-3.4 3.1-5.8 17.2-5.1 29.7l.4 8.7-2.8 1c-1.6.5-2.9 1.6-2.9 2.4 0 .7-1.3 2.3-3 3.5-3 2.3-4.1 6.2-1.7 6.2 2.2 0 37-6 49.7-8.6 6.9-1.4 23.1-5 36-8s34.3-7.9 47.5-10.9c27.5-6.2 45.5-10.7 67.3-16.7l15.2-4.3V0H318.8zm179.9 227c-23 28-53.5 58.5-63.8 63.7-5.5 2.7-40.9 16.1-46.3 17.5-1.4.3-6.3 3.4-11 6.7-16 11.6-23.7 15.2-42.8 19.8-13.7 3.4-25.4 5.3-48.7 8.1-9.3 1.1-22.4 3.1-29 4.4-25.5 5.2-29.7 5.6-40.9 3.9-8.3-1.3-12.1-1.3-21.6-.4-31 2.9-44.5 2.3-73-3.5-39.7-8-80.4-21.1-111.9-36-6.2-3-11.7-5.4-12.2-5.4S0 326.5 0 347v37h512v-82c0-45.1-.2-82-.3-82-.2 0-4.6 5.1-9.6 11.2"/></svg>