<svg xmlns="http://www.w3.org/2000/svg" width="682.667" height="512" version="1.0" viewBox="0 0 512 384"><path d="M0 85.1v85.1l5.2-.6c2.9-.3 19.5-1.5 36.8-2.6 74.9-4.7 138-9.9 191-15.6 12.9-1.4 23.8-2.9 24.2-3.2.9-1 3-15.1 2.3-16.1-.2-.5-2.6-1.4-5.2-2-6.9-1.7-16.3-5.2-16.3-6.1 0-1-11.6-3.4-12.7-2.7-1.5.9-12.6-2.3-14.8-4.2-2.7-2.4-9.6-4.1-11.6-2.8-1 .6-4 .2-9.4-1.3-4.4-1.2-9.3-2.1-10.9-2.1s-3.7-.4-4.7-1c-1.2-.6-2.5-.6-3.6 0-1 .5-2.5 1.2-3.3 1.6-.8.3-2.6 1.2-4 2-2.2 1.3-2.5 1.3-2.8 0-.2-.8-.7-1.5-1.2-1.5-.4 0-.7-2.8-.6-6.3.1-5.7.7-7.3 6.9-18.5 6.3-11.5 7.4-15.1 4.1-13.8-.7.3-1.6.1-1.9-.4-.4-.6-.3-1 .2-1 .4 0 .9-1 .9-2.3.5-7.4 2.4-13.2 6.6-19.4 10-15 18.8-22 48.8-38.6 8.5-4.8 16.4-9.3 17.5-10.1C243.3.2 237.7.1 188.6 0c-43.4 0-54.7.3-54.3 1.2 2.1 5.8 3.8 13.8 3.4 16.4-.3 1.7-2.4 7.1-4.7 12-5.8 12.4-7.5 21.3-6.2 32 1.8 13.9 6.9 21.3 16.9 24.9 2.6 1 5.5 2 6.3 2.4.8.3-2 .7-6.3.9-6.9.3-8.3 0-12.8-2.4-6.1-3.4-12.9-10.5-16.2-17.1-4.9-9.6-5.8-15.8-5.5-36.1l.3-18.7-3.7-7.8-3.7-7.7H0zM320 .6c0 .3 1.5 2.4 3.3 4.7 5 6.2 10.7 16 10.7 18.2 0 1.7-.2 1.8-1.1.5-.9-1.2-1-1.1-.6.8.4 1.7-.1 2.6-2.3 3.7-1.6.8-3.5 1.5-4.3 1.5-1.1 0-1.2 1.2-.5 6.6.5 3.7.8 14.8.6 24.6l-.3 18-2.7 1.9c-1.5 1.1-3.7 3.5-4.8 5.4-1.2 1.9-2.7 3.5-3.2 3.5-.6 0-.9-.3-.5-.6.3-.3-.3-1.5-1.3-2.7-2.3-2.4-2.2-2.5-4.3 3.3-2.3 6.5-4.2 20.1-4.2 30.7 0 9.2 0 9.3-2.7 10.2-1.7.6-3 2-3.4 3.5-.3 1.4-1.1 2.3-1.6 2-1.4-.9-2.8 1.5-2.8 5 0 2.7.2 2.8 3.3 2.2 1.7-.4 6.4-1.1 10.2-1.7 11.5-1.6 39.7-6.7 54.3-9.9 34.2-7.4 106.8-24.6 127.5-30.2l22.7-6.1V0h-96c-52.8 0-96 .3-96 .6m183.9 225.6c-17.5 22-38 44.3-43.3 47-2.1 1.1-5.6 2.6-7.7 3.3-2.1.8-6.6 3.2-10 5.5-8.1 5.4-12.2 7.4-23.1 11.6-8.8 3.3-10.8 4.6-29.3 18.9-15.4 11.8-27.5 17.7-50.7 24.6-18.6 5.5-46.3 10.7-72.3 13.4-36.2 3.8-55.5 5.7-60.5 6-3 .2-16.3 1.1-29.5 2.1-28.6 2-41.6 1.3-69.6-4.2-28.1-5.5-80.9-20.6-101.1-29-3.2-1.3-6-2.4-6.3-2.4S0 336.7 0 353.5V384h512v-83.5c0-45.9-.2-83.5-.4-83.5s-3.7 4.2-7.7 9.2"/></svg>