<svg xmlns="http://www.w3.org/2000/svg" width="682.667" height="512" version="1.0" viewBox="0 0 512 384"><path d="M0 87c0 81.5.1 87 1.7 87 1 0 7.8-.4 15.3-1 7.4-.5 27-1.9 43.5-3 44.2-3 62.3-4.4 118.3-9.5 21.8-1.9 65.5-6.4 70.4-7.2 2.1-.3 4.2-1.1 4.6-1.7.8-.9 1.6-6.7 2.5-16.5.2-2.2-.5-2.7-7.2-4.8-4.1-1.3-8-2.8-8.7-3.4-2-1.6-11.6-3.9-14-3.3-2.9.7-14.5-2.4-16.9-4.5-3.2-2.9-12.1-5.7-13.7-4.3-1 .8-3.6.4-10.3-1.4-5-1.4-9.7-3.2-10.5-3.9s-3.2-1.3-5.2-1.2c-2.6.1-4.5-.6-6.1-2.1-2.4-2.3-5.2-2.9-6.1-1.3-.7 1.1-4.6.2-4.6-1.1 0-1.2-5.8 0-8.7 1.8-2.1 1.3-2.3 1.3-2.3-.6 0-1.1-.4-2-.9-2-1.3 0 .3-5.3 2.9-9.7 1.1-1.9 2-3.5 2-3.7 0-.1-3.3-.3-7.2-.3-9.4 0-15.1-2.4-22.2-9.5-6.1-6.1-10.8-15.2-13.2-25.4-1.6-6.9-1.6-8.2.2-29.6.7-7.1-.2-10.8-4.4-19.6L96.7 0H0z"/><path d="M130.2 5.7c2.4 7 2 9.5-3.2 20.2-2.2 4.5-4.7 10.6-5.5 13.6-3.3 11.1-1.3 28.6 4 36.7 2.7 4.1 8.4 7.8 16 10.4l5 1.6 5.5-5.9c3-3.2 7.9-8.7 10.9-12.1 4.8-5.6 5-6.1 2.2-4.5-3.1 1.7-3.3 1.7-4.6 0-.8-1.1-1.6-1.4-1.9-.8-.4.6-1.3.8-2.1.5-1.1-.5-.9-1.4.9-4.9 1.3-2.3 2.6-5.5 3-7 1-3.7 15.7-18.7 24.6-24.9 4.1-2.9 17-10.1 28.5-16 11.6-5.9 21.4-11.2 22-11.7.5-.5-20.2-.9-53.1-.9h-54.1zM319 .5c0 .3 2.4 4 5.3 8.3 6.3 9.2 8.7 14.4 6.9 15-.7.2-1.2 1-1.2 1.7 0 .8-.9 1.7-2.1 2-1.6.5-1.9 1.2-1.4 3.2 1.7 7.1 3.5 23.6 3.8 34.8.2 11.2 0 12.7-1.6 13.6-.9.6-2.6 2.8-3.7 5-1.8 3.4-2.3 3.8-4 2.7-1-.7-1.7-1.5-1.5-1.9.6-.9-3.4-4.4-4.1-3.6-1 1-3.4 39-2.8 44 .4 2.6.3 4.7-.2 4.5-1.7-.5-5.3 2.2-5.6 4.2-.2 1.2-.7 2-1.1 2-.4-.1-2 .8-3.4 2-2 1.6-2.8 1.8-3.5.8-.5-.9-.8-1-.8-.1 0 .6-1.2 1.3-2.7 1.5-2.5.3-2.8.8-3.1 4.2-.3 3.6-.2 3.8 2 3.3 1.3-.3 7-1.3 12.8-2.2 33.4-5.3 55-9.7 94.5-19.4 11-2.7 29-7 40-9.6 23.7-5.6 41.5-10.2 58.3-15.2l12.2-3.6V0h-96.5c-53.1 0-96.5.2-96.5.5m189 219.4c-7.1 10-25.8 31.9-35.6 42l-10.2 10.4-8-.7-8.1-.7-6.3 4.9c-3.5 2.7-7.4 5.2-8.8 5.5s-7.9 3.8-14.5 7.8c-20 12-52.9 27.9-75 36.4-36.7 14.1-93.2 28.9-129 33.9-13.5 1.8-44.2 5-71 7.2-26.1 2.1-46.5 1.4-71.5-2.5-16.9-2.7-51.4-10.1-63.4-13.6-2.7-.8-5.3-1.5-5.8-1.5-.4 0-.8 7.9-.8 17.5V384h512v-84.5c0-46.5-.1-84.5-.2-84.5-.2 0-1.9 2.2-3.8 4.9"/></svg>