<svg xmlns="http://www.w3.org/2000/svg" width="682.667" height="512" version="1.0" viewBox="0 0 512 384"><path d="M0 89.3v89.3l3.8-.3c2-.1 11.8-.7 21.7-1.3 40.9-2.5 122.3-9.1 166-13.5 26.3-2.7 59.4-6.5 60.9-7.1.9-.3 1.7-2.5 2.1-5.2.3-2.6 1-7.4 1.5-10.7 1.1-6.7.8-7.1-5.3-8.1-2.1-.4-4.4-1.2-5.1-1.9-1.7-1.7-13.1-4.6-15.1-3.9-2.5 1-14.3-1.7-17-3.8-3.5-2.7-13.7-5.9-15.1-4.7-.7.5-2.5.7-4.1.3-7.9-1.8-17.1-4.9-19.1-6.5-1.6-1.2-3.3-1.6-5.6-1.2-2.5.4-3.9-.1-6.4-2.2s-3.7-2.5-6.5-2c-2.4.5-3.8.2-5-.9-2-2-7.7-2.1-10.3-.1s-3.1 1.9-3-.8c.1-1.2-.3-2.5-.8-2.9-.5-.3.8-3 2.9-5.8l3.9-5.3-6.4.5c-5.5.4-7.2.1-12.2-2.4-10.6-5.1-18.7-15.9-22.3-29.7-1.2-4.9-1.5-10.2-1.3-25.4l.3-19.2-3.5-7-3.5-7L47.7.2 0 0z"/><path d="M129.1 5.7c1 3.1 1.9 6.9 1.9 8.6 0 1.6-2.2 8-5 14.1-6 13.8-7.4 19.8-6.7 29.6 1 14 5.1 21.9 13.9 26.9 7.2 4.2 11.2 4.7 14.6 2.1 8.2-6.5 21.2-19.4 20.4-20.2-.6-.6-1.9-.4-3.5.6-2.3 1.6-2.6 1.6-4.1.1-.9-.9-1.3-2.2-.9-2.8.4-.7-.1-.6-1 .2-1.8 1.4-3.1.9-3.3-1.2 0-.7.9-2.6 2.1-4.2 1.1-1.7 2.7-4.3 3.5-5.8.8-1.6 4.1-5.3 7.5-8.2 3.3-3 6.7-6.1 7.5-6.8 4.7-4.3 15.4-10.9 34-21C227 8.5 240 1 240 .4c0-.2-25.4-.4-56.4-.4h-56.5zm193.2 2c9.2 13.2 10.2 16.8 6.1 21.4-1.3 1.4-1.3 2.4 0 8 .8 3.5 2.2 13.4 3.1 21.9 1 8.5 1.9 15.7 2 15.8.6.7-1.7 6.2-2.6 6.2-.5 0-1.8 1.8-2.9 4-2.2 4.4-3.5 5-4.4 2.2-.8-2.6-5.4-6.7-6.3-5.8-.5.4-.8 11.9-.8 25.6 0 13.6-.3 24.6-.7 24.3-.5-.2-.8.1-.8.6 0 .6-.6 1.1-1.4 1.1-.7 0-1.6 1.2-1.9 2.7-.7 3-7.7 7.5-7.7 5 0-.9-.2-.9-.8.1-.6.8-2.4 1.1-5.4.8-5.2-.5-5.8.2-5.8 6 0 3 .3 3.4 2.8 3.4 1.5 0 4.5-.5 6.7-1s7.6-1.4 12-2c17.3-2.4 48.4-9.1 89.5-19.1 58.2-14.2 70.2-17.3 81.5-20.6 6.6-1.9 14.3-4.1 17-4.8 2.8-.8 6.2-1.8 7.8-2.4l2.7-1.1V0H316.9zM506 225.2c-7.7 10.1-31.8 38.4-37.3 43.7l-4.5 4.3-9.4.5c-8.8.5-9.5.7-13.8 4.1-2.5 2-4.7 3.9-5 4.2-2.2 2.3-5 3.1-13.5 4-9.6 1-10.2 1.2-21 7.5-47.7 27.7-125.8 55-192.9 67.5-34.5 6.3-81.5 11-111.6 11-24.3 0-53.4-4-86.7-12-4.5-1.1-8.7-2-9.3-2s-1 4.7-1 13v13h512v-83c0-45.7-.1-83-.3-83-.1 0-2.7 3.3-5.7 7.2"/></svg>