<svg xmlns="http://www.w3.org/2000/svg" width="682.667" height="512" version="1.0" viewBox="0 0 512 384"><path d="M0 92.5c0 52.1.4 92.5.9 92.5 1 0 72.2-5.5 89.6-7 21.9-1.8 36.7-3.1 62-5.5 46.8-4.5 56-5.5 72-7.4 8.8-1.1 18.5-2.3 21.6-2.6 3.1-.4 6-1 6.6-1.3.5-.4 1.5-5.2 2.1-10.7.7-5.5 1.5-11 1.8-12.2.5-1.8 0-2.2-2.7-2.8-1.9-.4-4.3-1.3-5.4-2-3.1-2-12.3-3.8-16.1-3.2-4.2.7-15.2-1.9-17.9-4.3-3.2-2.7-13.2-5.5-14.9-4.1-1.1.9-3.8.5-12-1.8-5.9-1.7-11.4-3.7-12.3-4.6s-2.5-1.4-3.5-1.2c-2.6.7-7.8-1.1-10.5-3.6-1.5-1.3-3.1-1.8-4.9-1.4-2.7.5-7.4-1-7.4-2.3s-7-1.9-10.1-.8c-3.6 1.2-4.7.5-2.8-1.9 1.2-1.5 1.2-1.6-.3-1-3 1.1-2.1-1.9 1.7-5.4 1.9-1.9 3.5-3.6 3.5-4 0-.3-2.4-.4-5.3-.1-13.8 1.1-28.7-13.8-33.3-33.4-1.3-5.7-1.4-10-.9-24.1l.8-17.1-4.4-9.6L93.5.1 46.8 0H0z"/><path d="M126.3 1.2c.2.7 1.5 4.5 2.7 8.5l2.4 7.2-2.8 6.3c-9.9 22.2-10 22.5-9.9 33.8 0 8.4.5 11.7 2.3 16.5 2.9 7.7 8.8 13.5 16.5 16.4 5.7 2.1 5.8 2.1 7.9.3 1.2-1 5.5-4.2 9.6-7 9.9-6.7 14.8-11.8 13.2-13.4-1-1-1.7-1-3.4.1-1.8 1.1-2.4 1-4.7-.6-1.4-1-3.6-1.8-4.8-1.7s-2-.3-1.7-.8c.3-.4 1.1-.5 1.7-.1.9.5.9.3 0-.8-1-1.2-.3-2.6 4-7.8 7.5-9.2 22.4-20 47.8-34.6C220.8 15.6 237.9 5 241.7 2l2.6-2H185c-47 0-59.1.3-58.7 1.2M316 .5c0 .3 3.4 5.4 7.5 11.5 7 10.3 9.3 16 6.3 16-.6 0-.8.3-.5.7.4.3 0 1.4-.9 2.4-1.4 1.5-1.4 2.5-.4 7.1.6 2.9 2 11.6 3.1 19.3 1 7.7 2.2 15.8 2.5 18.1.5 3.4.2 4.5-1.5 6-1.1 1.1-2.8 3.8-3.7 5.9-1.5 3.6-1.8 3.8-2.8 2.1-2.3-4-6.8-8.6-7.8-7.9-.8.4-.9 8.8-.4 26.4.7 25.1.7 25.8-1.3 26.8-1.1.6-2.1 2.3-2.3 3.8-.2 1.7-.9 2.8-1.8 2.8-.8 0-2.1.8-2.8 1.8-.8 1-1.9 1.7-2.5 1.6-.7-.1-2 .1-3 .6-1 .4-2.3.2-3.2-.5-1.1-.9-2.2-.9-5 0-3.3 1.1-3.5 1.4-3.5 5.5 0 2.4.3 4.6.8 4.8.8.5 34.7-5.1 49.2-8.2 26-5.6 34.3-7.6 95-22.8 20.8-5.2 38.7-10.3 73.8-20.9.9-.3 1.2-11.5 1.2-51.9V0h-98c-53.9 0-98 .2-98 .5m189.8 228.7c-5.8 7.7-26.1 31.6-34.4 40.6-5.4 5.9-8.7 7.1-18.6 7.2-5.5 0-6 .2-12.9 6-4.1 3.4-8.8 6.4-11.1 7-2.1.6-10.1 1.5-17.6 2l-13.7.9-16.5 8.5c-26.1 13.3-48 22.4-90.5 37.4-66.3 23.4-139.8 37.7-201 38.9-18.3.4-23.7.1-41.5-2.1-11.3-1.4-26.7-3.8-34.2-5.4L0 367.4V384h512v-81c0-44.6-.2-81-.4-81s-2.8 3.3-5.8 7.2"/></svg>