<svg xmlns="http://www.w3.org/2000/svg" width="682.667" height="512" version="1.0" viewBox="0 0 512 384"><path d="M0 95.6v95.6l14.3-.6c13.8-.7 48.6-3.1 57.7-4.1 2.5-.3 12.6-1.2 22.5-2 64.3-5.6 156.4-16 158.4-18 .3-.4 1.1-5.7 1.8-11.8.7-6.2 1.4-12.1 1.5-13.1.2-1.5-.6-2.2-3.2-3-1.9-.5-3.7-1.3-4-1.7-.9-1.3-9.2-2.8-15.5-2.9-7.1-.1-17.5-2.4-18.6-4.1-1.2-2.1-14.1-5.8-16-4.6-2 1.2-22.2-3.8-24-6-.6-.7-2.7-1.3-4.6-1.3-3.8 0-8.3-2-11.4-5.1-1.4-1.4-2.4-1.7-3.6-1-2 1-6.1-.2-7.7-2.4-1.2-1.6-10.3-2.4-12.3-1.2-2.2 1.4-3.8-.4-1.8-2 1.7-1.1 1.7-1.3.2-1.3-2.1 0-1.2-2.8 1.6-5.1 1.8-1.5 1.7-1.6-4-2.8-11-2.1-19.1-9-25.3-21.3-6.2-12.4-7-20.2-4.4-43.7.8-6.7-.4-10.8-6.3-22.9L90.8 0H0z"/><path d="M124.5 1.7c2.9 7.4 5.6 17.2 5.1 19.4-.2 1.4-2.8 7.6-5.6 13.8-8 17.3-8.8 30.4-2.8 44.4 3.4 7.8 12.7 14.7 19.9 14.7 1.7 0 4.4-1.6 19.6-11.6 6.5-4.2 7.8-5.4 7.5-7.4-.3-3.3-.8-3.5-3.8-2.1-2.2 1-3 .9-4.5-.5-1-.9-1.6-2-1.4-2.5.3-.4-1-.6-2.8-.5-3.3.3-3.4.3-2.1-2.3 2.9-5.8 13.4-14.1 33.9-26.9 31.8-19.9 51.6-32.8 56-36.6l4-3.5-61.9-.1c-58.5 0-61.8.1-61.1 1.7M314 .5c0 .3 3.6 5.8 7.9 12.3 7.8 11.4 10.5 17.2 8.2 17.2-.6 0-1.1.9-1.1 2 0 1-.7 2.3-1.7 2.8-1.5.9-1.5 1.7 0 11.8 5.1 33 5.3 36.4 2.9 39.2-1.1 1.2-2.5 3.6-3.2 5.3-1.2 2.7-3.5 3.6-3.5 1.3 0-.5-1.6-2.8-3.4-5.2-3-3.7-3.6-4-4.4-2.6-1 1.7-.3 35.7 1 47.5.5 5.1.4 5.6-1.6 6.2-1.7.4-2.1 1.3-2.1 4.2 0 3-.3 3.6-1.6 3.1-.8-.3-2.2.1-3.1 1-.9.8-2.2 1.3-2.9 1s-1.6-.1-1.9.4c-.9 1.4-4.3 1.2-4.8-.3-.3-.9-.7-.9-1.9 0-.8.7-1.7 1.1-2 .8s-1 0-1.6.7c-1.4 1.7-1.8 12.4-.5 12.1.5-.1 6.6-1.1 13.5-2.2 17.5-2.9 43.6-8.3 61.2-12.6 8.2-2 15.6-3.8 16.5-4.1 21-5.1 49.8-13 61.1-16.8 9.5-3.1 56.8-17.5 61.8-18.7l5.2-1.3V0h-99c-54.5 0-99 .2-99 .5m193.2 231.7c-4.9 6.7-26.6 32.4-33.9 40.2-5.9 6.3-8.8 7.5-17.9 7.6-4.7 0-5.6.4-13 6.3-12.8 10.3-15.3 11.1-39.9 12.7-20.9 1.3-24.9 2.2-37.4 8.4-21.4 10.5-60 26.1-89.6 36.3-64.4 22.1-105.4 31.5-169.5 39.2-4.6.5 72.7.9 199.3 1l206.7.1v-78.5c0-43.2-.2-78.5-.5-78.5-.2 0-2.2 2.4-4.3 5.2M0 380.9v3.1l19.8-.1 19.7-.1-12-1.4c-10.7-1.2-16.3-2.1-24.7-4-2.6-.6-2.8-.4-2.8 2.5"/></svg>