<svg xmlns="http://www.w3.org/2000/svg" width="682.667" height="512" version="1.0" viewBox="0 0 512 384"><path d="M0 97.1v97.1l11.8-.6c6.4-.4 23-1.1 36.7-1.6 54-2.1 118.9-7.5 176.3-14.6 11.2-1.4 22.2-2.8 24.5-3.2l4.2-.8.7-11.2c.4-6.2 1.1-12.8 1.7-14.7 1.1-4 .3-4.7-6.2-5.9-2.1-.4-3.5-1.1-3.3-1.5.7-1.1-13-3.4-16-2.7-3.1.8-14.1-1.9-17.4-4.3-4.2-3-13.9-5.6-16-4.3-1.3.8-4.1.4-12.1-2-5.7-1.6-11.1-3.6-12-4.4s-3.7-1.6-6.3-1.8c-3.5-.2-5.5-1.1-7.7-3.2-2.3-2.2-3.7-2.7-6.8-2.6-2.9.2-4.5-.3-5.8-1.8-2.1-2.2-10.3-3.1-13.7-1.5-1.7.7-1.8.5-1.2-1.9.4-1.8.3-2.5-.4-2.1-1.7 1.1-1.1-1.4.9-3.4 1.9-1.9 1.8-1.9-1.3-2.5-11.3-2.2-22.5-12.7-27.5-25.5-5-13-5.8-20-3.8-33 1.7-10.2 1.7-11.4.2-17.2-.9-3.4-3.9-10.6-6.6-16.1L88 0H0z"/><path d="M122 .3c0 .2 1.6 5 3.5 10.7s3.5 11.1 3.5 11.9-2.3 6.6-5.1 13c-6.2 13.9-7.9 19.7-7.9 27.5 0 6.6 2.2 16.2 5 21.7 2.6 5 9.1 10.4 14.5 11.9 4.2 1.2 4.7 1.1 9.2-1.8 2.6-1.7 8.4-4.9 12.9-7.1 9.5-4.8 12.3-7.3 10.4-9.6-.7-.8-.9-1.5-.4-1.5s.1-.5-.8-1.1c-1.2-.7-2.4-.6-3.7.1-2.6 1.3-2.7 1.3-4.7-.7-.9-1-2.2-1.8-2.8-1.9-.6 0-1.6-.2-2.3-.2-4.9-.7 8.6-13.7 21.2-20.7 5.8-3.2 22.6-13.5 34.5-21.3 21.7-14.1 28.8-19.1 34.9-24.9l6.6-6.2-64.2-.1c-35.4 0-64.3.1-64.3.3m190 .5c0 .5 2.5 4.4 5.5 8.8C329.1 26.4 333 34 330 34c-.5 0-1 .9-1 2s-.6 2-1.2 2c-3.6.1-3.9 1.4-2.4 11.1 2 12.8 4 31.6 3.9 36.2-.1 2.4-.8 4.5-2 5.7-1.1 1-2.5 3.2-3.3 4.9-1.5 3.7-2.6 3.9-3.4.8-.8-2.8-6.5-9.1-7.4-8.2-.4.4-.6 12.8-.4 27.7.2 16.3-.1 26.7-.6 26.4-1.3-.8-2.8 1.2-3.6 4.7-.4 1.5-1.1 2.5-1.6 2.2s-1.9.4-3.2 1.7c-1.5 1.5-2.3 1.8-2.6.9s-1-.7-2.4.6c-1.8 1.6-2.1 1.7-3.2.1-.7-.9-1.7-1.4-2.3-1-1.1.8-2.8 13.6-1.9 15 .7 1.1 20.9-3 45.6-9.2 64.4-16.3 74.7-19.1 112.5-30.7 30.6-9.5 61.7-18.9 62.2-18.9.1 0 .3-24.3.3-54V0H412c-55 0-100 .4-100 .8m198.2 233.3c-4.7 7.4-38.2 46-41.9 48.2-.7.5-4.6 1.1-8.6 1.4l-7.2.6-9.6 7.8c-14.6 11.8-19.7 13.4-50.4 14.9-25 1.3-32.7 2.8-47.2 9.1-25.8 11.2-46.8 19.7-73.3 29.7-37 13.9-82.1 26.8-125.7 36.1-8.7 1.9-7 1.9 178.5 2l187.2.1v-76c0-41.8-.1-76-.3-76-.1 0-.8 1-1.5 2.1"/></svg>