<svg xmlns="http://www.w3.org/2000/svg" width="682.667" height="512" version="1.0" viewBox="0 0 512 384"><path d="M0 105.7v105.6l18.3-.7c45.3-1.7 99.9-5.5 151.7-10.7 29.1-2.9 79.7-9.1 81.1-10 .7-.4 1.8-5.1 2.4-11.1.7-5.7 1.5-11.2 1.8-12.3.6-1.8 0-2.3-5.1-3.8-3.2-.9-6.1-1.7-6.6-1.7-.4 0-1.4-.6-2.1-1.4-1.7-1.6-13.8-4.1-16.1-3.2-2.4.9-14.6-2.5-17.5-4.9-3.3-2.7-13.3-5.2-15.1-3.7-1.5 1.2-17.1-2.7-22.9-5.8-2-1-4.5-1.7-5.6-1.4-2.3.6-7.2-1.6-9.2-4-1-1.2-2.3-1.4-5.2-1-2.6.4-4.4.2-5.5-.7-2.1-1.7-9.6-1.5-12.6.5-3.3 2.2-4.3.8-1.6-2.1 1.7-1.9 1.9-2.3.5-1.7-1.1.4-1.7.1-1.7-.9 0-.8.7-1.8 1.6-2.1.8-.3 1.2-1.1.8-1.7-.3-.6-.1-1.5.5-1.9.7-.4-1.7-.9-5.3-1.2-15.2-1.3-28.3-15.8-33-36.5-1.9-8.6-2-12.8-.4-25.6 1.6-12.7.7-16.6-7.5-34.3-3.5-7.6-7.4-16.9-8.7-20.7L74.8 0H0z"/><path d="M111.4 2.7c.4 1.6 3.1 10.5 6.1 20 3 9.4 5.5 18.4 5.5 19.9s-2.5 8.4-5.6 15.3c-6.7 14.9-8.2 23.3-6.4 34.6 2.3 13.6 7.3 21.1 17.8 26.2 7.5 3.6 8.7 3.6 15.3.2 3.2-1.5 8.8-3.7 12.5-4.8 8.2-2.3 9.6-2.8 15.2-6 3.9-2.3 5.6-5.1 3.1-5.1-2.3 0-7.9-3.3-7.2-4.3.4-.7-.8-.8-3.5-.4-2.5.4-4.3.3-4.7-.3s-1.6-1-2.8-.8c-2.9.4-3.6-4-1-6.5 3.5-3.3 15.2-10.7 20.4-12.7 2.8-1.2 7.3-3.3 9.8-4.7 4.6-2.7 20.9-14.5 24.6-18 1.1-1 5.4-4.5 9.5-7.8 11.6-9.3 21.3-18.9 26-25.6l4.3-6.1-8.4-7.9-8.3-7.9H110.8zm194.3-.5c2.6 2.8 3.7 6.4 2.4 7.3-1.3.8 6.7 17.1 11.8 23.9 5.8 8 11.1 17 11.1 18.9 0 1-.4 1.5-1 1.2-.5-.3-1 .3-1 1.3 0 1.1-.6 2.5-1.4 3.1-1.2 1-1.3 1.8-.2 4.9 1.4 3.8 3.7 18.6 5.6 35.3 1.1 9.9.5 13.9-2.3 15.6-.8.4-2.4 2.7-3.6 5.1l-2.2 4.3-3.8-4.3-3.9-4.3-.6 9c-.4 4.9-1.1 14.7-1.7 21.7s-.8 14.1-.4 15.7c.6 2.6.3 3-2.4 3.6-2.1.4-3.1 1.3-3.1 2.5 0 2.8-1.1 5.1-2.2 4.4-.5-.3-2 .4-3.4 1.7-1.3 1.2-2.4 1.7-2.4 1.1 0-.7-1.3-.9-3.5-.5-2.6.4-3.5.2-3.5-.8-.1-1-.5-.8-1.5.5-1.4 1.9-2.1 8.7-.9 9.8.7.7 23.7-4.2 43.4-9.2 65-16.7 79.9-20.6 98-26.1 11.3-3.4 23.9-7.2 28-8.5 22.5-7 47.7-14.4 49.3-14.4s1.7-3.6 1.7-62.5V0H303.7zm199.7 270c-9.5 11.9-16.4 20-21 25-3.8 3.9-5.2 4.7-9.5 5.3-4.6.6-6.2 1.7-16.2 10.3-6.2 5.2-12.8 11.1-14.7 12.9-8.4 8.1-33.1 17.4-55.9 21.3-24.2 4-53.4 5.1-83.8 3l-14.1-1-6.9 3.1c-3.7 1.7-9.3 4.2-12.3 5.6-5.5 2.5-42.4 17.4-57.5 23.1l-8 3.1h153.3l153.2.1v-59.5c0-32.7-.2-59.5-.4-59.5s-3 3.3-6.2 7.2"/></svg>