<svg xmlns="http://www.w3.org/2000/svg" width="682.667" height="512" version="1.0" viewBox="0 0 512 384"><path d="M366.2 2.3c-3.9 4.2-7.5 13.7-8.2 21.9-.4 4.3-.9 8-1.2 8.3-.2.3-2 0-3.9-.5-6.5-1.9-16.4-.7-24.4 2.9-11.2 5.1-15.5 7.3-16.2 8.5-.4.7-3.7 2.8-7.2 4.6-12.4 6.2-25 17.2-29.4 25.5-1.2 2.2-3.8 8-5.7 13-2 4.9-4.5 10.5-5.4 12.3-1 1.9-1.5 3.6-1.2 3.9s.1 1.4-.5 2.5c-.7 1.3-.7 2.3.1 3.2.7.9.7 2.2 0 4-1.3 3.5-.6 3.3 1.8-.6 2.4-3.7 2-4.4 4.2 8.6 1.1 7.2 3.3 12.6 5 12.6.6 0 1 .8 1 1.7 0 1.5.2 1.6 1 .3 1-1.7 1.2-1.6 3.3 2.5 1.5 2.8 1.6 2.9 1.7.6v-2.3l2 2.3 1.9 2.4.1-2.8c0-1.5.4-2.7.9-2.7 1.2 0 2.6 3.9 2.2 6.5-.4 3-4.8 9.3-7 10-1.1.3-2.3 1.6-2.7 2.8-.5 1.7.2 2.9 3.5 5.7 3.4 2.9 4.1 4.2 4.1 7.1 0 2.3.7 4.2 2 5.4 1.1 1 2 2.4 2 3 0 .7.7 1.8 1.5 2.5.8.6 2.1 3.5 2.9 6.3 2.1 7.1 2.8 7.9 7.2 8.6 3.7.6 3.9.9 4.2 4.4.2 2.1-.2 4.5-.9 5.4-1.1 1.2-.9 1.8.8 3.1 1.7 1.4 2.2 3.3 2.8 9.3.6 6.9.4 8.1-1.8 12.6-5.1 10-17.6 38.1-18.6 41.9l-1 3.9 1.9-2.5c2.8-3.8 3-2.1.3 3.7-2.1 4.5-2.8 5.3-5.2 5.3-1.7 0-3.8 1.1-5.6 2.9l-2.8 3 2.2 5.4 2.2 5.5-2.6 11.3c-1.5 6.3-3.7 13.8-4.9 16.8l-2.2 5.4-10.4-.2c-5.7-.1-20.9.8-33.8 2l-23.5 2.2-2.7-3.3c-1.6-1.9-2.7-4.6-2.8-6.8-.8-13.8-6.4-26.2-13.3-29.8-4.2-2.1-11.7-1.7-18.9 1.1-3.5 1.4-6.7 2.5-7.1 2.5s-1.3-2.5-2-5.5c-.7-3.1-1.6-5.8-2-6.1-1.5-.9-2.9 7-1.9 10.6.5 1.8.9 3.5.7 3.6-.1.1-2.9 1.4-6.2 2.9s-7 3.6-8.2 4.7c-1.8 1.6-2.5 1.8-3.6.9-2-1.6-3.5.5-5.3 7.1-2.3 8.7-1.8 19 1.1 25.4 1.4 3 2.5 6.2 2.5 7.2.1 5.2 7.6 14.7 16.7 21.1 4.1 2.8 15.6 5 30.8 5.9l12 .7.9 3.7 1 3.8h275.8l-3.2-5.6c-1.7-3-5.8-8.9-9.1-12.9-7.5-9.3-9.6-14-10.4-23.5l-.7-7.5 8.3-4c8.4-4.1 10.9-6.5 6.9-6.5-2.1 0-2.2-.1-.6-2.3 4.3-6 4.3-6-1.5-5.5-4.4.4-7 1.4-14.1 6.1-4.8 3.1-10 6.3-11.6 7.1l-2.9 1.5-5.2-10.9c-2.9-6-5-11.4-4.7-11.9.6-.9-2.1-20.1-3.2-23.1-.3-.8-.4-2.5-.3-3.7s-.2-3-.7-4c-1.2-2.3-.5-4.3 1.3-3.7 2.1.9 2.8-1.6 1-3.6-1.6-1.7-1.5-2.1 1.8-7l3.4-5.1 1.1 8.8c.6 4.8 1.6 13.9 2.2 20.1.7 7.4 1.6 12.2 2.7 13.9 1.5 2.3 1.7 2.4 2.3.7.4-1.1 1.5-6.6 2.4-12.4 1.6-9.2 2.7-13 7.3-24 1-2.5 1.1-2.4 1.8 1.2.4 2.1 1.1 3.8 1.5 3.8s1.2 1 1.8 2.2c1 2.1 1.1 2.1 1.1-1.2.1-3.8 1.7-21.7 2.9-32l.7-6.5 2.3 13.5c3.2 19.1 5.1 26.8 6.7 27.4s2.6-2 5.2-14.4c4.2-20 .3-80.7-7.7-120-3.4-16.7-7.5-29.7-15.8-50.6-3.3-8.2-6.5-16.7-7.2-18.9-1.9-6-7.5-16.8-10.6-20.4-1.5-1.8-5.1-4.8-8-6.6-3-1.9-5.4-4.1-5.4-4.9 0-2.9-10.9-22.5-18.5-33.3l-3-4.2-11.1-.1c-10.2 0-11.2.2-13.2 2.3m-38.6 200.2c.9 2 1.4 3.8 1.2 4.1-1 1-6.8 2.2-6.8 1.4 0-.4.9-1 2.1-1.3 1.7-.5 1.9-1 1.3-4.1-.8-4.6 0-4.6 2.2-.1m95.1 43.2c-.3 1-.5.4-.5-1.2 0-1.7.2-2.4.5-1.8.2.7.2 2.1 0 3"/></svg>