<svg xmlns="http://www.w3.org/2000/svg" width="682.667" height="512" version="1.0" viewBox="0 0 512 384"><path d="M0 109v109l2.3-.4c1.2-.3 12.6-1 25.2-1.6 68-3.1 146.3-10 211.5-18.5 6.9-.9 12.8-2.1 13.1-2.7.3-.5.9-4.6 1.3-9.1.3-4.5 1-9.6 1.5-11.3 1-3.5-.1-5.4-3-5.4-.9 0-3.8-1-6.5-2.2-3.4-1.5-7.3-2.2-13-2.4-9-.3-19.3-2.6-20.5-4.5-1.2-2.1-12.9-4.9-15.4-3.7-2.4 1.1-21.1-3.2-25.1-5.8-1.2-.9-3.2-1.3-4.2-1-2.4.8-7-.9-9.8-3.5-1.6-1.5-2.6-1.7-4.5-1.1-1.6.7-4.1.3-8.1-1l-5.8-2-3.6 2.1c-5.2 3.1-7.7 2.8-3.9-.5 2.6-2.3 2.7-2.6.8-2-2.9.9-3-.8-.2-3.2 1.2-.9 2.9-2.5 3.8-3.4 2.5-2.6 18.2-9.7 23.8-10.7 5.4-1.1 7-1.6 13.1-4.3 2.3-1 4.2-2.3 4.2-2.8 0-.6.6-1 1.4-1 .7 0 1.9-.6 2.5-1.4 1-1.2.2-1.7-4.5-3.1-3.9-1.1-5.8-2.2-6.1-3.6-.3-1-.6-1.9-.8-1.9-.1 0-1.7.5-3.4 1.1-2.3.8-3.9.8-5.4.1-1.2-.6-3-1.3-4-1.6-1.2-.4-1.5-1-1-1.8.4-.7.8-1.9.9-2.6.3-1.7-.3-1.2 7.4-5.9 8.8-5.3 9.4-5.6 18.4-9.7 4.3-2 11.5-6.5 16-10C211 65.7 236.1 41 243.5 31l6.7-9-11.3-11-11.4-11h-59.7C120.4 0 108 .3 108 1.3c0 1.9 4.3 16.8 9.4 32.8l4.7 14.6-1.9 4.9c-1.1 2.7-3.9 9.2-6.3 14.4-4 8.9-4.3 10.2-4.7 20.1-.8 19.7 4.7 31.5 17.5 37.1 1.5.7 3.4 1.8 4.1 2.5s2 1.3 2.8 1.3 1.4.5 1.4 1.1c0 1.8-14.8.6-19.3-1.6-10.7-5.1-19.4-17.2-23.8-33.1-2.2-8-2.2-9.3-.3-33.6.7-9.1.1-11.2-7.3-26.7C79 24.1 72 5 72 1.6 72 .2 68.5 0 36 0H0zM253.5 2c1.4 1.5 2.1 1.7 2.6.8 1.1-1.7.2-2.8-2.3-2.8-2.1 0-2.1.1-.3 2m48.5.3c0 1.3.9 3.2 2.1 4.3 3.2 2.9 5.4 7.5 3.9 8.4-1.6 1 6.2 16.4 13.5 27 7.2 10.4 11.7 19.5 8.6 17.6-2-1.3-1.7 5 .6 12.7 2.4 8.3 7.3 36.1 7.3 41.6 0 1.8-1 4.1-2.5 5.6-1.3 1.5-2.9 4.2-3.5 6.1s-1.3 3.4-1.6 3.4c-.2 0-2-1.8-4-4s-4-3.8-4.4-3.5-.6 11.6-.3 25.2c.3 13.7.2 24.5-.2 24.1-1.6-1.6-4.5 1.4-5.1 5.2-.6 3.4-.9 3.8-2.1 2.8-1.1-.9-1.6-.9-2.3.2-.4.7-1.6 1.4-2.7 1.5-1 .1-2.7.6-3.7 1-1.3.6-2.3.3-3.1-.8-.7-.9-1.5-1.4-1.8-1.1-1.2 1.2-7.7 1.5-7.7.4 0-.6-.4-.8-1-.5-1.3.8-1.3 8.2-.1 9 1.1.6 26.8-4.9 47.1-10.2 7.4-1.9 22.3-5.7 33-8.5 43.9-11.2 49-12.7 106-30.1 13.5-4.1 26.6-8.1 29.3-8.7l4.7-1.3V0H302zM506.5 281c-2.7 3.6-10.6 13-17.5 20.8l-12.5 14.4-4.4-.5-4.5-.5-12 10.9c-15.3 14-24.3 19.2-44 25.8-31.3 10.3-47.6 12.3-103.6 12.7l-42.5.2-11 4.7c-6 2.6-16.1 6.8-22.2 9.4l-11.3 4.6 145.2.3c79.8.1 145.3.1 145.5-.1s.2-24.9.1-54.8l-.3-54.4z"/></svg>