<svg xmlns="http://www.w3.org/2000/svg" width="682.667" height="512" version="1.0" viewBox="0 0 512 384"><path d="M0 123.6c0 117.2.1 123.5 1.8 123 .9-.3 9.8-1 19.7-1.6 9.9-.5 23.8-1.4 31-2 7.2-.5 19.5-1.4 27.5-2 53.3-3.9 165.9-16.5 170-19 .6-.3 1.5-3.5 2-7.1.6-3.5 1.2-7.8 1.5-9.5l.5-3.1-10.2-.6c-5.7-.3-11.9-1.3-13.9-2.1s-6.6-1.8-10.2-2.2c-5.4-.5-7.1-.4-9.3 1.1-2.4 1.5-4.1 1.7-12.8 1.1-6.1-.5-10.7-1.3-11.6-2.1-2-1.8-12.5-3.1-13.4-1.6-.8 1.3-9.1.7-16.4-1.2-2.9-.7-4.9-1.7-4.5-2.1.5-.5-.7-.1-2.5.8-1.9 1-3.6 1.5-4 1.2-.3-.3 0-.6.7-.6s1-.4.6-.9c-.3-.6.3-1.5 1.2-2.1 1.5-1 1.5-1.1.1-.6-2.9.9-2.9-2.3.1-5.4 3.9-4.1 20.8-12 28-13 3.2-.4 7.8-1.8 10.2-3 4.7-2.4 14.6-9.7 16.8-12.4 1.6-1.9 2.6-1.7-10.8-1.9-8.3-.2-9.5-.5-11.1-2.5-1.4-1.7-2.5-2.1-4.4-1.6-1.3.3-3.4.3-4.6-.1-2-.6-2-.8-.5-2.5.9-1 1.4-2.3 1.1-2.8s1.1-2.1 3.2-3.4c10.4-7 15.1-9.8 16.2-9.8 1.8 0 8.5-3.7 12-6.6 1.7-1.5 4.9-5 6.9-7.8 3.6-4.9 13.1-20.9 13.1-22 0-.3 3.1-6.1 7-12.9 3.8-6.8 9.3-17.5 12.2-23.7l5.2-11.2-7.4-6.6c-11.9-10.5-14.8-13.9-16-18.3-1.5-5.3-.6-10.4 3-17.3l2.9-5.6H98.2l-.5 2.6c-.9 4.9 1.2 22.8 3.8 32.9 1.4 5.5 4.8 16.9 7.6 25.4 3.7 11.5 4.8 16.3 4.3 18.5-.4 1.7-3.1 8.5-6 15.2-7.6 17.1-8.8 25-5.9 38.8 1.7 7.8 4.4 13.8 8.3 17.9 3 3.1 12.2 9.1 12.2 7.9 0-.4.5 0 1 .8s2.4 2 4.2 2.7c3 1 2.6 1.2-5.3 1.2-7.6.1-9.2-.2-14.7-2.9-11-5.5-18.6-15.6-23.4-31-2-6.6-2.2-9-1.9-20.5.2-7.2.4-17.1.4-22l.1-9-6.6-14.2c-10.4-22.2-13.1-32-16.4-59.6L58.9 0H0zM301.6 3.3l-3.9 3.3 2.3 3.1c1.8 2.5 2.1 3.8 1.5 6.5-.4 1.8-.7 6-.6 9.3.1 5 .6 6.6 3.1 9.6 3.2 4 4.9 8.9 3.1 8.9-.6 0-.3 1.3.8 3.2 1 1.8 3.7 6.9 6.1 11.3s5.8 10 7.5 12.5c6.1 8.6 11.3 19.3 8.7 17.6-1.5-.9-.6 3.2 2.4 11.2 2.4 6.4 9.5 31.5 11.7 41.3.9 4 .8 5.1-1 8-1.1 1.9-2.3 4.6-2.7 6l-.6 2.6-4-3.8c-2.6-2.5-5-3.9-6.7-3.9h-2.6l.7 6.6c.4 3.7 1.8 11 3.1 16.3s2.9 13 3.5 17.1 1.3 8.5 1.5 9.6c.3 1.6-.1 2.3-1.5 2.7-1.9.5-2.9 3.7-1.1 3.7.4 0 9.5-2.3 20.2-5 10.7-2.8 21.4-5.5 23.9-6.2 26.9-6.8 59.6-15.9 68-18.8 2.1-.7 33.7-10.3 59.8-18l7.2-2.2V0H305.5zm-55.4 7.8-4.3 4.9 5.2 6c2.9 3.3 5.4 5.9 5.6 5.7s-.1-2.8-.7-5.7c-.6-3-.9-7.6-.9-10.2.1-2.7 0-5-.2-5.3-.3-.2-2.4 1.8-4.7 4.6m44.4 197.4c-.9 4.7.1 7.7 2.2 7.1.9-.2 4.2-1 7.2-1.6 6.4-1.2 8.8-2.4 7.1-3.4-.6-.4-1.1-.2-1.1.3 0 3.2-9.7-.4-12.3-4.6-1.4-2.2-2.5-1.4-3.1 2.2m214.8 121.7c-6.9 8.7-17.3 20.4-35.2 39.5L456.8 384H512v-30.5c0-16.8-.2-30.5-.4-30.5s-3 3.3-6.2 7.2"/></svg>