<svg xmlns="http://www.w3.org/2000/svg" width="682.667" height="512" version="1.0" viewBox="0 0 512 384"><path d="M0 127c0 120.2.1 127 1.8 127.1 2.2.2 2.4.1 23.2-1.1 42-2.5 130-10.2 159-14 4.1-.5 9.8-1.2 12.5-1.4 4.5-.4 16.4-2 35.5-4.6 3.6-.5 8.9-1.3 11.7-1.6 2.9-.4 5.7-1.2 6.2-1.8.7-.9 3.1-12.4 3.1-14.9 0-.4-2.4-.7-5.4-.7-9.7 0-17.6-1.2-17.6-2.6 0-2.2-19.3-2-21.1.2-1.1 1.4-2.7 1.5-10.8.9-5.1-.3-10.3-1.2-11.5-2-2.5-1.5-12.8-2.7-12-1.3.9 1.4-17.1.1-22.5-1.6-1.9-.7-2.1-1-1-1.8 1-.7.7-.8-1.1-.4-2.2.4-2.3.3-.8-.8 1-.7 1.4-1.7.8-2.5-.5-.9 0-2.3 1.3-3.8 2.8-3.2 23.8-14.3 27-14.3 3 0 6.3-1.3 13.2-5.4 5-2.9 14.5-11.3 14.5-12.8 0-.4-4.9-.7-10.8-.5-8 .1-11.3-.2-12.5-1.2-.9-.7-1.4-1.8-1-2.4q.6-1.05-1.8-.3c-1.3.4-3.9 1.1-5.8 1.6l-3.4.9 3.7-3c3.2-2.7 5.2-6 2.6-4.4-.6.3-1 .4-1 .2 0-1.1 15.2-11.9 18.1-12.8 5.6-1.9 11.7-6.9 17.3-14.3 4.1-5.4 19.2-35.7 33.6-67.4 2.1-4.7 3-7.6 2.3-8-4.2-2.8-19.9-17.4-21.6-20.2-4.2-6.7-2.3-16.3 5.7-28.1L235 .5 165.8.2c-38-.1-69.4.1-69.7.4s-.6 6.5-.6 13.7c0 16.8.8 20.7 11 53.1 2.6 8.3 4.7 16.7 4.7 18.8-.1 2.4-2.3 8.6-6.2 17.3-5.9 13-6.2 14-6.7 23.3-1 19.6 5.1 33.6 17.3 39.7 2.2 1.1 4.1 2.4 4.2 3 .1.5 1.5 1.3 3.1 1.8 5.8 1.5 4.4 2.7-3.3 2.7-6.6 0-8.2-.4-14.3-3.6-3.7-1.9-8.3-4.9-10.1-6.7-7.6-7.3-14-21.7-16.3-36.6-1-6.6-.9-9.4.4-17.8 2.8-16.5 2.5-18.3-7.1-38.9-10.1-21.9-13.9-36.5-14.9-57.6L56.7 0H0zm151.5 82c-.3.5-1.1 1-1.6 1-.6 0-.7-.5-.4-1 .3-.6 1.1-1 1.6-1 .6 0 .7.4.4 1M321.8.6c-.3.3-3.7 1-7.4 1.5-3.8.5-7.1 1.5-7.3 2.2s-2.4 3.1-4.8 5.4c-4.3 4.1-4.4 4.2-2.8 6.7 1.7 2.6 1.9 5 .9 15.6-.5 6.4-.5 6.6 3.1 10.7 2.8 3.2 3.5 5 3.3 7.5-.1 2.5 1.4 6.3 5.5 14.1 3.2 5.8 6.8 11.9 8 13.4 3.5 4.3 7.4 10.7 9.1 14.8 1.9 4.4 1.9 4.8.6 4-1.7-1-1.1 4.8 1.1 11.1 1.1 3.2 3.5 12.2 5.4 19.9s4.1 16 5 18.5c1.7 4.9 1.2 12.2-1.1 14.1-.7.6-1.6 2.6-2 4.5l-.6 3.4-3.9-3.5c-2.6-2.3-4.9-3.5-6.8-3.5-2.9 0-3 .2-2.5 3.7.3 2.1 1.9 10.5 3.5 18.8 1.7 8.2 3.3 18.5 3.6 22.8.6 7.9.6 7.9-1.7 7.2-1.6-.5-2-.4-1.5.5.4.7 1.7.9 2.9.6 1.1-.4 10-2.7 19.6-5.2 9.6-2.4 19.8-5.1 22.5-5.9 2.8-.7 9.1-2.4 14-3.6 5-1.1 12.2-3 16-4.1 3.9-1.1 9.3-2.6 12-3.4 2.8-.7 13.3-3.9 23.5-7s21.2-6.4 24.5-7.4c3.3-.9 15.6-4.6 27.3-8.1l21.2-6.3V0h-94.8c-52.2 0-95.1.3-95.4.6m-76.6 17.6-4.3 5.1 5.2 5.3c2.9 3 5.4 5.2 5.5 5.1s-.2-2.7-.8-5.7c-.5-3-.8-6.8-.5-8.5 1-6.4-.5-6.7-5.1-1.3m45 201.8c-.2 3.7-.1 3.7 3 3.1 3.7-.8 4.7-2.7 1.9-3.6-1.2-.3-2.1-1-2.1-1.5 0-.4-.6-1-1.3-1.3-1-.4-1.4.6-1.5 3.3m216.7 122.4c-8 9.6-22.3 26-29.1 33.2-3.8 3.9-6.8 7.4-6.8 7.8 0 .3 9.2.6 20.5.6H512v-23.5c0-12.9-.1-23.5-.3-23.5s-2.3 2.4-4.8 5.4"/></svg>