<svg xmlns="http://www.w3.org/2000/svg" width="682.667" height="512" version="1.0" viewBox="0 0 512 384"><path d="M0 136v136h4.8c14.8 0 141.6-10.9 162.2-13.9 3.6-.5 11.5-1.5 17.5-2.1 6.1-.6 19.3-2.3 29.5-3.6 10.2-1.4 22.2-3 26.8-3.6 9.1-1.2 9.5-1.5 10.6-8.7.6-3.9.5-4.3-.9-3.1-1.2 1-4.6 1.2-14.8.7-11.6-.6-13.4-.9-14.9-2.7s-2.4-1.9-9.5-1.4c-4.3.4-8.8 1.3-10 2-3.2 2-17.6 1.9-19.3-.1-1.4-1.7-8.1-2-9.7-.4-.8.8-12.9 3.9-15.2 3.9-.2 0-.1-.9.2-1.9.3-1.3.1-1.8-.8-1.5-1 .4-1.1-.2-.6-2.8.4-1.8.9-3.6 1-4 .2-.4.5-1.6.8-2.7s2.8-3.8 5.7-5.9c2.8-2.2 6.3-5 7.7-6.3 5.6-5.2 9.3-7.8 11.8-8.4 4-.9 11.4-6.8 17-13.5 2.8-3.4 5.1-6.5 5.1-7 0-1.4-10.3-1.6-14-.3-1.9.7-5.5 1.2-7.8 1.3-2.8 0-5.5.8-7.3 2.1-4.2 2.9-3.6 1 1-3.5 2.2-2.1 4.2-4.9 4.5-6.1.7-2.6 9.4-10.8 13.9-13.2 6.6-3.3 14.3-14 21.9-30.2 3.3-6.9 8.2-17.3 11-23.1s7.7-16.5 11-23.8c3.2-7.4 6.4-14.3 7.1-15.4 1-1.6.8-2.2-1.3-3.9-10.2-8.2-19.2-17-21.1-20.7-4-8-1.9-16 8.1-30.7 4.5-6.7 4.7-7.3 4.2-12.3l-.5-5.2h-71.3c-39.2 0-71.5.3-71.7.7-.3.5-1.1 7.7-1.7 16.1-1.8 22.9.4 35.9 12.2 72.1 3.8 11.6 4 13 3 17.6-.5 2.8-2.6 8.3-4.6 12.3-8.4 17.5-10.1 27.5-7.2 42.2 2.8 13.6 7.9 21 17.9 25.9 2.1 1.1 3.2 2.1 2.6 2.3-.7.2.7 1.3 3.2 2.3l4.4 1.9-4 .4c-11.6 1-23.4-4.1-30.8-13.3-4.8-6-10.1-16.8-12.2-25-1.7-6.6-2-23.9-.5-35 1.2-9.6-.2-15.8-6.7-30C55.1 61.7 51.1 44 51 14.7V0H0zM356.5 3.1c-3.3 1.6-13 6-21.5 9.6-13 5.6-16.5 6.7-21.3 6.7-5.7.1-6.1.3-10.8 5-2.7 2.7-4.9 5.2-4.9 5.6s.7 2.1 1.5 3.6c1.7 3.3 2 8.5.6 9.9-.6.6-.6 3.6-.2 7.1.6 4.9 1.4 6.9 3.9 9.8 3.1 3.6 4.1 7.1 2.3 7.8-1.6.5 7.9 18.7 14.5 27.8 6.2 8.6 8.5 12.5 9.9 16.9.5 1.6.4 2.1-.4 1.7-.6-.4-1.1 0-1.1 1 0 .9-.7 2.2-1.6 2.8-1.4 1-1.3 1.9.5 8.6 1.2 4.1 3.6 16.7 5.5 27.9 3.6 21.5 3.5 23.8-.3 28.7-1.2 1.5-2.6 4.5-3.2 6.8-.7 2.3-1.4 3.5-1.7 2.6-.8-2.4-6.2-7-8.3-7-2.4 0-2.4 1.9-.3 23.3.9 8.9 1.4 17.6 1.1 19.4-.9 5.1 1 5.4 14.6 1.7 6.7-1.8 23-6.1 36.2-9.5s27.8-7.2 32.5-8.5c9.6-2.5 34.1-9.7 59.5-17.4 28.7-8.7 43.9-13.2 46.3-13.7l2.2-.5V4h-5.9c-3.2 0-10.3-.9-15.6-2C481.4.1 477 0 421.6.1h-59.1z"/><path d="M244.7 33c-2 2.3-3.9 4.5-4.2 5s1.7 3.1 4.4 5.8l4.9 4.9-.5-9.6c-.3-5.3-.7-9.7-.8-9.9-.1-.1-1.8 1.6-3.8 3.8m259.4 343.1-7.4 7.9H512v-8c0-4.4-.1-8-.2-7.9-.2 0-3.6 3.6-7.7 8"/></svg>