<svg xmlns="http://www.w3.org/2000/svg" width="682.667" height="512" version="1.0" viewBox="0 0 512 384"><path d="M0 141v141l7.3-.5c3.9-.3 9.9-.7 13.2-1 3.3-.2 12.5-.9 20.5-1.5 15.6-1.2 46.4-3.7 54.5-4.5 2.8-.3 7.3-.7 10-.9 15.2-1.4 47.8-4.8 59.5-6.1 41.8-4.9 80.7-10 83.7-11 .6-.2 1.4-1.8 1.8-3.6.6-2.5.3-3.5-1.1-4.6-2.3-1.6-6.6-1.7-8.2-.1-.9.9-4.5 1.2-12 1-14.2-.4-17.2-1-17.2-3.2 0-1.7-.7-1.8-7.7-1.3-4.4.3-8.5 1.2-9.4 1.9-1.8 1.6-16.4 2-17.4.4-1-1.5-7.1-1.2-8.5.5-.7.8-1.8 1.5-2.6 1.5-.7 0-2.7 1.5-4.3 3.2-2.8 3-3.8 2.8-3.2-.6.1-.5-.6-.6-1.5-.2-1.3.5-1.4.3-.7-.6.6-.7.9-2.1.8-3-.2-1 .1-2 .6-2.4.5-.3.7-1 .3-1.5-1.3-2.2 2.4-7.9 11.9-18.2 5.5-5.9 10.5-10.7 11.2-10.7 2.6 0 19.8-19.2 18.3-20.4-.1-.2-2.8-.6-5.8-.9-4.6-.6-6.4-.2-10.9 1.9-3.6 1.6-5.7 2.1-6.1 1.4-.4-.6-1.8.6-3.3 2.7s-2.7 3.4-2.7 3c0-.5 1.8-3.4 4-6.4 2.2-3.1 4-6.2 4-6.9 0-.6 4.3-5.6 9.7-11 10.7-11 17-20 26.4-37.9 3.4-6.6 8.2-15.6 10.6-20 6.8-12.6 20.4-40.6 20.1-41.4-.2-.4-5.4-5.3-11.5-10.9-9.2-8.4-11.4-11-12.3-14.4-2.1-7.5.2-14.6 8.6-27.5 5-7.7 5.3-8.5 4.8-13-.5-4.1-.2-5.4 2-8.6 1.4-2.1 2.6-4 2.6-4.2 0-.3-33.5-.5-74.4-.5H91.3l-1.4 10.7c-.8 6-1.4 18.4-1.4 27.8C88.6 57.4 89.6 63 98 89c6.9 21.1 7.1 22.2 5.5 28.2-.8 2.9-3 8.6-4.9 12.6-6.1 12.3-7.6 18.1-7.6 28.4 0 10.2 1.9 19.7 5 25.8 2.4 4.7 9.1 11.4 13.1 13 1.6.7 2.7 1.6 2.4 2s1.9 2 4.8 3.4l5.2 2.6-8.6-.3c-10.6-.4-17.3-3.3-24.8-10.8-8.6-8.6-14.4-21.5-17.1-38.1-1.1-6.5-1-9.1.5-18.2 2.8-17.3 2.6-18.6-11-49.9C51.2 66.2 47 40.3 48.4 13.2L49.1 0H0zM308 .7c0 .5 1.2 2 2.5 3.6l2.4 2.7 3.8-2c2.1-1.1 4.3-2 4.9-2 .7 0 2.7-.7 4.5-1.5 3.3-1.4 3-1.4-7.3-1.5-6 0-10.8.3-10.8.7m70.5.9c-3.2 2.5-15.8 8.6-32.5 15.9-23.7 10.2-27.8 11.6-33.6 11.4-4.9-.2-5.2-.1-10.3 5s-5.2 5.3-3.4 7.3c1.2 1.4 1.7 3.3 1.5 6.6-.7 14.5-.4 17.3 2.8 20.8 3.3 3.8 5 8.6 3.2 9.2-1.9.6 5.6 15.1 13.5 26.1 6.2 8.7 12.3 19.6 12.3 21.8 0 .3-.7 0-1.6-.8-1.4-1.1-1.5-1-1.2.7.2 1.6-.2 1.8-2.4 1.6-3.3-.4-3.3-.8-.9 10.9 1.8 9.2 2.8 15.7 5.2 36.5 1.3 11 .7 18.5-1.7 20.5-.9.7-2.7 3.5-4 6.1l-2.5 4.9-3.7-3.6c-6.5-6.1-6.5-6.1-5.7 18.2.4 12 1.1 22.2 1.5 22.7 1 1 1.9.8 51.5-12.1 47-12.2 49-12.7 88-24.5 16.5-4.9 36.2-10.8 43.8-13.1l13.7-4V14.3l-6.8-.6c-3.7-.3-19.7-3.5-35.6-7.1L440.7 0h-30.1c-25.6.1-30.4.3-32.1 1.6"/><path d="m242.9 42.6-3.6 4.6 4.6 4.3c2.5 2.4 4.6 4.3 4.7 4.2.4-.7-1-17.7-1.5-17.7-.3.1-2.2 2.1-4.2 4.6"/></svg>