<svg xmlns="http://www.w3.org/2000/svg" width="682.667" height="512" version="1.0" viewBox="0 0 512 384"><path d="M0 145.5V291h5.3c15.5 0 140.3-11.2 172.7-15.5 5.8-.8 13.4-1.7 17-2 3.6-.4 9.2-1 12.5-1.5s11.4-1.6 18-2.5 12.9-1.8 14-2 3.2-.4 4.6-.4c1.4-.1 3.4-.8 4.5-1.6 1.6-1.3 1.7-1.6.4-2.5-.8-.5-2.8-1-4.3-1s-3.8-.6-5-1.4c-3.1-2-7.1-2.3-9-.8-1.2 1.1-3.9 1.1-13.8.2-13.3-1.2-13.9-1.4-13.9-3.5 0-1.2-1.4-1.4-7.7-.9-4.3.4-8.3 1.1-8.9 1.6-1.9 1.4-14 2.2-14.8.9-.4-.6-1.7-1.1-2.9-1.1-1.6 0-3.1 1.6-5.7 6-3.4 5.9-3.4 6-4.7 3.7-3.1-5.9-1.8-14.1 3.4-22.5 4.3-6.9 14.6-20.1 17.3-22 2.7-2 9-10.5 12-16.1 1.2-2.4 1.2-2.4-3-1.7-4 .6-4.2.5-2.9-1 1.2-1.5 1.1-1.6-1.1-.9-1.4.4-3.6 1.3-5 2.1-1.4.7-3.9 2-5.7 2.8-1.7.9-3.4 2.5-3.8 3.6-.3 1.1-1.1 2-1.6 2-1.5 0-1-1.6 1.4-4.1 1.2-1.4 2.2-3 2.3-3.7s.2-1.6.3-2.1c0-.5 6.3-9.6 13.9-20.3 7.5-10.6 14.9-21.1 16.3-23.3 4.8-7.3 22.2-33.9 25.6-39.2 1.8-2.8 6.6-11.3 10.8-18.8 7-12.9 7.3-13.8 5.7-15.4-.9-.9-5.9-5.2-11-9.5s-9.9-9.1-10.7-10.6c-2.2-4.2-1.9-13.9.5-19.6 1.2-2.6 4.2-7.9 6.8-11.8 4.3-6.5 4.7-7.6 4.7-13.2 0-5.1.4-6.6 2.8-9.7 2.3-3.1 2.6-4.2 2.1-7.7l-.7-4H90.3l-1.6 10.8c-5.8 38.4-4.6 51.5 8.3 92.4 2.8 8.6 5 17.4 5 19.7 0 2.8-1.8 7.9-5.9 16.9-8.3 18.1-9.6 26.7-6.5 42 .8 4.2 2.4 9.6 3.4 12 2.2 4.8 11.2 14 14.7 14.8 1.3.4 2.2 1.1 2 1.8-.2.6 1.9 2.1 4.7 3.4l5.1 2.3-9-.4c-7.1-.2-10.1-.8-14-2.7-7.7-3.8-16.5-13.2-20.8-22-6-12.6-7.2-18.6-6.8-34 .7-34.1.9-31.6-3.1-41-1.9-4.7-5.4-12.7-7.7-17.8C53.2 87.1 48.7 71.8 47 60c-.8-5.6-1.1-17.2-.9-34.3L46.5 0H0zM302 1.6c0 .9 1.5 3.3 3.3 5.3 1.7 2 4.1 4.8 5.2 6.3l2 2.8 9.6-3.4c5.3-1.9 14.8-4.9 21-6.7C363.8 0 364 .1 331.3 0 304.9 0 302 .2 302 1.6m82.4 4.9c-7 7.2-10.3 8.9-43.4 23.1-18.8 8-21.1 8.8-27.5 8.9-6.9.1-7.1.2-11.9 4.7s-4.8 4.6-3.1 7.2c1.8 2.7 2 6 1 16.1-.6 5.8-.5 6.2 2.9 10.5 3.9 5 5.3 8.9 3.6 10-1.9 1.2 5.8 16.2 12.9 25.5 6 7.9 11.2 16.6 12.6 21.5.7 2.3.6 2.4-.9 1.1-1.5-1.2-1.7-1.2-1.4 0 .2 1-.9 1.5-3.6 1.7l-3.8.3.7 4.2c1.9 11.5 2.6 17.8 4.1 36.6 1.7 21.8 1.2 27.7-2.6 30.4-.9.7-2.5 2.8-3.5 4.7-2.9 5.9-3.4 6.1-6.3 4.2-1.5-.9-3.4-2.3-4.2-3.1-1.3-1.3-1.6-.4-2.1 8-.6 8.2-1.1 25.9-1 31.3.1 1.6.7 1.8 3.9 1.3 4.6-.7 21.3-4.7 35.7-8.6 6.1-1.6 23.2-6.1 38-9.9 14.9-3.9 34.9-9.4 44.5-12.2s18.9-5.5 20.5-5.9c1.7-.5 7.1-2.1 12-3.6 29.9-9.1 40.6-12.4 45-13.7l5-1.4.3-87.2.2-87.2-2.2-.4c-1.3-.3-6.3-1.2-11.3-2.1-4.9-.9-14.2-2.9-20.5-4.5-27-6.8-80.4-18-84.9-17.9-1.8 0-4.4 1.9-8.7 6.4M500.5 1c7.2 1.2 11.5 1.1 11.5 0 0-.6-3.3-.9-8.2-.9-7.8.2-8 .2-3.3.9"/><path d="M242.6 50.7c-2 2.6-3.5 5-3.4 5.3.2.3 2.2 2.3 4.5 4.4l4.2 3.8-.6-8.9c-.3-4.8-.7-8.9-.8-9.1-.1-.1-1.9 1.9-3.9 4.5"/></svg>