<svg xmlns="http://www.w3.org/2000/svg" width="682.667" height="512" version="1.0" viewBox="0 0 512 384"><path d="M364.5 2.6c-1.6.8-4 2.4-5.1 3.5-4.7 4.4-8.9 15.7-9.7 25.8-.2 3.4-.3 3.5-6.3 4.7-5.3 1-26.5 10.5-40.9 18.1-10.1 5.4-19.9 14.1-24.8 22-2.8 4.4-9.7 20.8-9.7 22.9 0 .7-1.1 2.4-2.4 3.8-1.6 1.8-2.2 3.4-1.8 5.1.4 2.2.7 2.4 2 1.3 1.1-.9 1.4-.9.9-.1-.4.6-1.1 3.3-1.6 6-1 4.9-.8 4.9 2.6-.4 1-1.5 1.2-.7 1.3 4.7.2 5.7 1.6 13.3 1.9 10.5.1-.6.8.5 1.6 2.2 1 2.3 1.9 3.1 2.9 2.7 1.2-.5 1.6 0 1.6 1.7.1 2.2.2 2.3 1.4.6 1.2-1.6 1.4-1.5 2.7 1.5 2.3 5.8 5.1 6.5 4.2 1.2-.8-4.9 1.8-4.2 3.1.7 1.1 4.6-1.5 10.3-6 13.2-1.9 1.2-3.4 2.9-3.4 3.8s1.8 3.2 4 5.2c2.9 2.6 4 4.3 4 6.5 0 1.6.9 4.1 2.1 5.6 1.1 1.4 1.7 2.6 1.4 2.6-.4 0 .5 1.4 1.9 3.1s2.6 3.7 2.6 4.5.9 3.3 2.1 5.6l2.1 4.1 5-.6 5.1-.6-.6 6.6c-.4 5-.2 7 .9 7.8.8.6 1.6 4.1 2 8.6l.6 7.5-7 14c-6.9 13.5-14.2 29.9-14.2 31.8 0 .5 1 .1 2.2-1 2.1-1.8 2.1-1.7-.3 2.6-1.7 3.1-3.3 4.7-5.4 5.3-8.7 2.6-9.6 4.1-7 12.6 1.6 5.5 1.6 5.8-.9 14.6-1.4 4.9-4 12-5.8 15.8-2.8 5.8-3.5 6.6-5.2 6-1.2-.5-16.4-.7-33.8-.6l-31.7.2-2.1-2.9c-1.4-2-2.4-5.6-3-11.4-1.8-15.1-6.7-24.6-13.8-26.6-5.5-1.5-9-1.2-16.4 1.3-7.5 2.6-7 2.9-8.4-4.6-1.2-6.8-3.8-3.2-3.2 4.6l.3 4.1-6.9 2.8c-3.8 1.6-7.6 3.4-8.4 4.1-.8.6-2.3 1.1-3.2.9-2.4-.4-4.9 6.1-6.1 16.4-.9 7.3-.8 8.7 1 13.1 1.1 2.6 2.2 6.6 2.6 8.8 1 6.1 3.8 10.5 10.7 17.1 5.9 5.8 6.9 6.3 14.8 8.3 4.7 1.1 13.4 2.5 19.4 3.1 6 .5 11.1 1.2 11.3 1.4.3.2 1.2 4.2 2.1 8.8l1.7 8.3 132.8.3c74.1.1 132.7-.2 132.7-.7 0-.4-1-2.3-2.3-4.2s-2.6-4.1-2.9-4.9-3.3-5-6.6-9.3c-7.1-9.1-8.4-12.5-8.6-22l-.1-7.1 5-1.9c5.5-2 13.5-6.8 13.5-8 0-.4-1-.7-2.1-.7-2.1 0-2.1-.1.5-3.4 1.4-1.9 2.6-3.8 2.6-4.2s-2.4-.4-5.2-.1c-4.2.4-7.7 2-17.2 7.6-11.5 6.8-13.6 7.5-13.6 4.6 0-.8-.9-3-1.9-4.9-2.1-3.7-4.9-14.5-4.8-18.6 0-1.4-.5-7-1.2-12.5-1.2-9.7-1.2-10.2 1.2-16.5 1.4-3.6 3.3-11.4 4.3-17.5 1.5-9.3 1.9-10.5 2.6-8 .5 1.7.5 4.6.2 6.5-.4 1.9-.8 5.5-.9 7.9-.2 3.9-.1 4.2 1.1 2.6.8-1 1.4-2.4 1.5-2.9.1-1.4 5.5 19.9 7 27.6 1.4 6.9 3.4 9.3 4.3 5.1.3-1.5 1-8.4 1.5-15.3s1.6-14.3 2.4-16.5 1.8-6 2.2-8.5c1.3-7.8 2.1-7.5 4.4 1.7 1.3 4.8 3.2 10.1 4.2 11.8l2 3-.7-16.8c-.5-12-.4-16.7.4-16.7.6 0 1.9 2.6 2.7 5.7 3.2 11.5 8 24.3 9.1 24.3 2.6 0 4.1-27.8 2.5-46.5-1.8-21-5.9-53.4-8.7-68-4.7-24.1-8.9-38.7-17.8-61.4-3-7.5-6.2-16.3-7.1-19.6-1.9-7-8.6-19.8-12.2-23.7-2.7-2.9-11.1-7.4-15.3-8.2-1.9-.4-3.4-2.3-6.4-8.2-2.1-4.2-6.2-11-9-15.2-2.8-4.1-6.1-9.4-7.2-11.7-2.9-5.5-3.9-6.1-10.9-6.9-4.5-.5-6.8-.2-9 1M325 210.5c-.7.8-1.6 1.5-2.1 1.5s-.6-.7-.3-1.5c.4-.8 1.3-1.5 2.1-1.5 1.3 0 1.3.3.3 1.5"/></svg>