<svg xmlns="http://www.w3.org/2000/svg" width="682.667" height="512" version="1.0" viewBox="0 0 512 384"><path d="M0 150.4c0 119.4.3 150.5 1.2 150.8.7.3 4.9.2 9.3-.2 4.4-.5 15.2-1.3 24-2 17.1-1.3 95.1-8.4 110-10 5-.5 13.3-1.4 18.5-2 13.6-1.4 22.5-2.5 49-6 12.9-1.7 25.9-3.4 28.9-3.7 6.3-.7 4.9-1.7-4.2-2.8-3.2-.4-6.6-1.5-7.8-2.6-2.4-2.1-6.9-2.5-8.6-.8-.7.7-4 .7-11.4-.1-14.3-1.6-14.9-1.7-14.9-4 0-1.7-.6-1.8-7.2-1.3-4 .3-8 1.2-8.9 1.9-2.4 2.1-12.5 1.9-13.8-.4-.8-1.5-1.2-1.2-2.4 1.8-.7 1.9-1.8 4.8-2.3 6.5-1.1 3.5-5 5-4.1 1.6.3-1.2.1-1.9-.4-1.5-.8.5-1.3-.9-1-2.9 0-.4-.3-.7-.9-.7q-2.25 0 .9-7.8c1.1-2.6 3.3-8.1 4.9-12.3 1.8-4.6 5.7-11.3 9.9-17 8.7-11.8 13.8-20.9 11.6-20.9-1 0-1.3-.6-.9-1.6.8-2-2.5-1.1-7.4 2.1-1.9 1.3-4.4 2.6-5.5 2.9s-2.6 2-3.3 3.8c-.6 1.7-1.4 2.9-1.8 2.6-.3-.3.2-2 1.1-3.7.9-1.8 1.3-3.7.9-4.3q-.75-1.05.6-.3c1 .6 1.2.4.7-.9-.4-.9-.3-2.4.2-3.4.5-.9 1.8-3.7 3-6.2 4.9-10.5 13.5-23.4 25.8-38.5 31.3-38.6 38.1-47.4 44.4-57.9l7.2-11.9-3.4-3.1c-1.9-1.7-6.8-5.8-10.7-9.1-4-3.3-8.2-7.7-9.2-9.7-4.2-8-1.8-18.2 7.7-32.6 3.3-4.9 3.8-6.4 3.9-11.7 0-4.5.6-7 2.5-10 1.7-2.9 2.4-5.5 2.5-9.5 0-3 .4-6.9.8-8.5l.8-3-2.6 3-2.5 3-.1-2.7c0-2.5-.3-2.7-4.2-2.6-2.5.1-5.5 1-7.2 2.1l-2.8 2 .7-2.2.6-2.1-66.2.2-66.3.3-1.3 6c-3.4 16.6-5.5 38.1-5 53 .5 16.9 1.8 23 11.4 53.9 6.5 21 6.5 20.5-1.6 38.3-6.3 14-7.1 17-7.1 27.8.1 19.9 6.2 33.3 18.2 39.8 1.8.9 3.3 2.2 3.3 2.8s2 1.9 4.5 2.9c5.9 2.4 3.4 3.5-5.8 2.6-17.9-1.8-31.8-16-38.3-39.2-2-6.7-2.2-9.8-1.9-20.4.1-6.9.3-17.5.4-23.5l.1-11-5.4-12C49.7 96.1 46.4 85.4 43.5 64.6c-1.9-13.7-1.9-35.4 0-51.1C44.3 6.9 45 1.2 45 .7 45 .3 34.9 0 22.5 0H0zM300.6 1.7c.4 1 1 3.8 1.3 6.3.5 3.4 1.9 6.1 5.9 11.2 4.6 5.8 5.6 6.6 7.3 5.8 1-.6 11.9-4.1 24.1-7.9l22.3-6.8.3-3.5.3-3.5-8.3-1.7C347.6.4 339.8 0 322.6 0c-21.4 0-22.8.1-22 1.7M431 2c6.3 1.1 23 3.3 37 4.9 14 1.7 28.8 3.6 32.8 4.1 11.8 1.6 11.2 1.9 11.2-5V0l-46.2.1-46.3.1zm-42.3 11c-5.7 8-10.7 11.2-33.3 20.9-33.5 14.3-42.2 17-46.9 14.4-1.3-.8-2.8.1-7.1 4l-5.4 5.1 2 2.1c1.4 1.5 2 3.4 1.9 6.1-.6 17.5-.6 17.7 2.7 21.9 3.8 4.8 5.1 8.4 3.4 9.5-1.9 1.2 4.8 14.6 11.9 23.9 5.6 7.4 14.1 21.4 14.1 23.5 0 .5-.6.3-1.4-.3-1.1-.9-1.4-.8-1.2.6.1 1.5-.8 1.9-4.8 2.1l-4.8.3.6 3.2c2.7 15.5 4.5 57.8 2.6 64.6-.6 2.4-2.6 5.8-4.3 7.5-1.8 1.7-4 4.6-4.9 6.4-1.5 2.8-2.2 3.2-4 2.7-1.3-.4-3.1-1.4-4.1-2.3-.9-.8-2-1.3-2.3-.9-.3.3-1 5.2-1.4 10.9-.5 5.7-1.2 14-1.6 18.5l-.7 8.3h2.9c1.6 0 5.8-.7 9.4-1.6s7.5-1.7 8.6-2c1.2-.2 10-2.4 19.5-4.9 9.6-2.5 28.7-7.4 42.4-10.9 29.4-7.7 60.9-16.5 86-24.3 9.9-3.1 23.6-7.2 30.5-9.2l12.5-3.7.3-87.1.2-87.1-6.7-1.2c-3.8-.6-17.8-3.8-31.3-7-33.3-8-79.2-18.1-81.9-18-.3 0-1.9 1.8-3.4 4"/><path d="M241.7 60.2c-2 2.3-3.5 4.3-3.4 4.3s2.1 1.7 4.3 3.8l4 3.7-.3-7.6c-.1-4.3-.5-7.9-.7-8.1s-2 1.5-3.9 3.9"/></svg>