<svg xmlns="http://www.w3.org/2000/svg" width="682.667" height="512" version="1.0" viewBox="0 0 512 384"><path d="M0 166c0 161.6.1 166 1.9 166 2.3 0 58.7-4.5 82.1-6.5 42.9-3.7 127.8-12.9 128.8-14 .3-.3-1.2-1.2-3.4-2.1-3-1.2-4.2-1.4-5.7-.5-1.6 1.1-10.9-.6-24.9-4.5-.9-.3-1.9-1.6-2.2-3-.6-2.2-1.1-2.5-3.6-1.9-1.7.4-4.6.1-6.5-.5-2.8-.9-3.9-.9-5 0-2 1.7-10.8.3-14-2.2-1.4-1-2.9-1.7-3.3-1.4-.5.3-1.4 3.1-2.2 6.3-1 4.6-1.4 5.4-2.1 3.8-.4-1.1-.8-1.6-.9-1-.1.5-.6-.1-1.2-1.5s-1-3.1-.9-3.9c.1-.7-.2-1-.8-.7-2.1 1.3-2.2-1.7-.1-7.9 2.3-7 2.4-12.4 0-7-.7 1.6-1.4 2.5-1.7 1.8-.6-1.6 4.3-25.9 6.7-32.9 1.2-3.9 1.4-5.4.5-5.1-.9.4-1-.5-.4-3.6 1.3-6.9 1.1-9.7-.7-9s-1.3-1.9 2.1-11.2c9-24.4 19.4-35 56-57.5 21.5-13.2 27.5-18.2 38.3-31.3 6.8-8.4 8.2-10.7 6.5-10.7-.5 0-2.1-1.3-3.8-2.8-1.6-1.5-6.4-5.5-10.6-8.9-8.7-7.1-10.9-10.8-10.9-18.5.1-6.4 2.9-13.6 9.3-23.5 4.4-6.8 4.6-7.5 4-12.3-.5-4.4-.2-5.6 2.5-9.9 2.5-4 2.9-5.7 2.5-8.9-.6-4.8 1-13 3.9-19.1 4.9-10.5 4.9-10.4 3.5-9.3-.7.6-3.1 3.6-5.2 6.6-2.2 3.1-4.3 5.6-4.6 5.6s-.4-1.2-.2-2.8l.4-2.7-1.8 2.5c-1 1.4-3 3.8-4.5 5.5l-2.7 3-.2-2.5c-.1-1.4-.2-3.1-.2-3.8.1-1.6-.8-1.5-3.7.5-2.2 1.6-2.3 1.6-1.7 0 .9-2.3-.9-2.1-5 .4-4.2 2.6-4.9 2-2.9-2 2-3.9 2-5.2 0-4.4-1.4.5-1.6.2-1-2 .7-2.9-.2-3.5-2.2-1.5-2.1 2.1-1.3-.3 1.8-5.8 1.6-2.9 2.5-5.6 2-5.9-.9-.6-8.1 6-7.4 6.8.2.2-.3.4-1.1.4-1.2 0-1.1-.7.5-3.5 1.2-1.9 1.8-3.7 1.5-4.1-.4-.3-26.2-.7-57.4-.9L91.4-.1l-1.3 2.8C82 20 75.5 56.7 75.5 84.5c.1 20.5 1.6 27.6 14.6 69.4 3.8 12.5 3.6 14.1-4 30.7-8.3 18.2-9.5 25.3-6.6 42 2.3 12.9 6.4 20.5 14.5 26.7 3.6 2.7 6.6 5.5 6.8 6.1s2.4 2.1 5 3.3l4.7 2.3-8.5-.3c-7.4-.3-9.5-.8-15.4-3.8-12.5-6.2-21.7-19.2-26.7-37.4-2.5-9.1-2.9-20.5-1.5-40.5.8-11.9.7-12.8-1.7-20-1.4-4.1-4.1-10.9-6-15-14-29.9-17.2-47-16.4-87.7.4-25.6 2-39.4 6.1-55.3l1.3-5H0zM283.2 1.2c-2 2-1.4 2.6 3.6 3.7 47.6 10.6 75.3 16.4 77.7 16.2 1.1-.1 3.7-.2 5.8-.2 2 0 3.7-.4 3.7-.9 0-1.8 4.1-2.2 6-.5 1 .9 2.3 1.4 2.9 1.1.6-.4 1.9.2 2.9 1.2s2.3 1.7 2.9 1.5 2.1.6 3.2 1.8c1.2 1.3 2.1 1.7 2.1 1.1 0-1.7 3-1.5 5.2.5 1.1 1 6.9 2.5 15.5 3.9 14.5 2.5 62.9 9.6 77.3 11.4 4.7.6 11.1 1.4 14.3 1.9l5.7.8V0H398.2c-87.2 0-114.1.3-115 1.2m13.1 21.3c.3 1.9 1.6 4.9 2.8 6.7 1.4 1.9 2.4 5.1 2.7 8.3.4 4.5 1.2 6.1 5.9 12.1 3.1 3.8 5.7 7.1 5.8 7.2.2.2 3.7-.8 7.8-2.1 4.1-1.4 12.8-4 19.4-5.7 13.6-3.6 21.3-6 23.1-7.3.6-.5 1.2-2.4 1.2-4.2 0-3-.3-3.3-3.7-4-2.1-.3-6.7-1.3-10.3-2.1s-16.8-3.7-29.5-6.5c-12.6-2.7-23.6-5.2-24.4-5.5-1.1-.3-1.2.4-.8 3.1M395 41.7c0 1.8-9.2 11.3-14.2 14.5-2.9 1.9-9.6 5.2-14.8 7.3s-11.8 4.8-14.6 6.1c-8.9 3.9-30.7 11.6-34.4 12.1-1.9.3-5.5-.2-8-1.1-4.4-1.5-4.5-1.5-7.5 1.2-5.5 4.9-5.7 5.3-3.7 7.5 1.4 1.6 1.7 3.9 1.7 13.6v11.8l3.2 3.6c3.8 4.3 5 8.1 3.3 10.2-1.6 2 4.1 13.7 11.4 23.2 7.1 9.2 11.8 16.7 13.9 22 1.5 3.9 1.5 4.2 0 3.6-1.2-.5-1.4-.3-.8.6.6 1.1-.5 1.2-5.5.6-5.8-.7-6.2-.6-5.6 1.1 2.4 7.8 3.7 62.9 1.7 73.3-.6 2.9-2 5.5-4.5 8-2 2-4.9 5.5-6.6 7.8-2.8 3.9-3.2 4.2-7.2 3.8-3.8-.3-4.3-.1-4.4 1.8-.1 1.2-.9 6-1.8 10.7s-1.6 9.8-1.6 11.3c0 3.2-1.2 3.2 14 0 8.9-1.8 38.2-9 42.5-10.4 1.7-.5 14.9-3.9 29.5-7.5 31.7-7.8 54.2-13.8 74.5-19.8 8.3-2.4 22.9-6.7 32.5-9.5 9.6-2.9 19-5.6 20.8-6.2l3.2-1.1V68.5l-38.7-9.8c-53.4-13.4-78.3-18.8-78.3-17"/><path d="m240.1 88.1-3.3 4 2.3 2.6c4.8 5.1 5.4 4.8 5.3-2.8-.1-3.8-.3-7.1-.5-7.3-.2-.3-1.9 1.3-3.8 3.5"/></svg>