<svg xmlns="http://www.w3.org/2000/svg" width="682.667" height="512" version="1.0" viewBox="0 0 512 384"><path d="M0 170.9c0 94.1.3 171.2.8 171.4.4.2 4.5 0 9.2-.4s18.2-1.5 30-2.4c36-2.7 95.8-8.3 140.5-13.2l16-1.7-10.7-3.4c-5.9-1.8-10.7-3.7-10.7-4 .4-2.5-.4-3.2-3.7-3.2-1.9 0-5.5-.5-8-1.1-3-.8-4.8-.8-5.7-.1-1.8 1.5-12.7-1.5-15.8-4.4-1.4-1.3-3-2.4-3.5-2.4-2 0-7.4 5.3-7.5 7.4-.1 1.9-.2 1.8-.9-.4-.4-1.4-.5-3.6-.3-5 .4-2 .2-2.2-.6-1-.9 1.2-1.3 1.3-2 .2-.5-.9-.1-3.3 1-6.3 1.1-2.7 1.9-5.8 1.9-6.9 0-2.9-2.7-2.4-4.5.7-1.5 2.8-1.5 2.8-1 .3 3.2-16.3 4.9-23.8 6.6-29.6 1.2-3.8 2.2-8.3 2.3-9.9.2-1.7.6-5.1 1-7.6.7-3.8.5-4.9-.8-5.6-1.5-.8-1.4-1.4.4-6.8 4.7-13.8 13.3-27.7 22.1-36.1 7.2-6.7 15-11.9 28.9-19.1 28.8-15 36.8-20 44.6-28 7.5-7.6 14.4-16.5 13.8-17.5-.3-.4-3.8-3.4-7.7-6.5-11.6-9.2-15.5-13.3-17.3-17.9-3-7.8-.1-17.6 9.4-32.3 3.5-5.3 4-6.7 3.1-8.4-1.5-2.8-.4-8.3 2.5-12.7 2-3 2.4-4.9 2.4-10.1-.1-7.3 2.3-16.5 5.7-21.8 1.3-2 2.6-4.7 3-6.1.7-2.5.7-2.5-1.1-.5-1.1 1.1-3.7 4.3-5.8 7-5.7 7.2-5.9 7.4-5.4 4.2.3-1.5.2-2.7-.1-2.7-.3.1-2.3 2.3-4.4 5-2.1 2.8-4.2 5-4.5 5-.4 0-.7-1.6-.6-3.5.2-4 .3-4-3.9-1.9l-3.2 1.7 2-2.3 2-2.3-2.5.8c-1.4.4-4 1.5-5.7 2.6-3.8 2.1-4.1 1.3-1.2-4.2l2-4-2.2 1.1c-2 1.1-2.1 1-1.5-1.4.7-2.9-1-3.6-3.3-1.4-.8.7 0-1.4 1.7-4.6 1.8-3.3 3-6.2 2.7-6.4-.7-.7-5.5 2.7-5.5 3.8 0 .6-.6 1-1.4 1-.9 0-1.2-.7-.9-2 .3-1.1.9-2 1.4-2s.9-.7.9-1.5c0-1-1-1.5-2.7-1.5-2.1 0-2.4-.3-1.5-1.2 2.1-2.1 1.4-4.1-1.3-3.6-1.3.3-2.2.1-1.9-.3.2-.4-1.9-1.5-4.8-2.4C187.5.2 179.1 0 139.6 0H92.5l-4.7 11.8C78.4 35.5 73 66 73 95.2c0 17.3 1.8 27.1 10.6 56.2 8.1 26.9 8.1 27 .1 44.9-3.2 7.1-6.2 14.7-6.7 17-1.6 7.1-1.2 21.7.9 30 2.7 10.4 5 14.4 11.7 20.5 3.3 2.9 7.1 6.4 8.5 7.8 1.5 1.5 4.4 3.5 6.5 4.4l3.9 1.8-5.1.1c-20 .3-35.3-11.6-43.4-33.8-6.2-16.9-7-27.8-3.9-47.8 1.9-12.1.3-18.5-11.4-44.3C35.6 131.8 30 102.8 30 76.6c.1-18.1 4.1-49.8 8.5-66.4C39.9 5 41 .6 41 .4S31.8 0 20.5 0H0zM291.2.9c-.7.4-1.2 1.3-1 2s-.6 1.8-1.7 2.4c-1.1.7-2.5 2-3.3 2.9-.7.9-1.9 2.4-2.8 3.2-1.4 1.4-1.3 1.7.8 2.6 3.3 1.4 14.4 3.9 57.2 13.1 7.7 1.6 16.6 3.5 19.8 4.3 3.2.7 6.1.9 6.4.5.7-1.3 5.2-1.1 5.9.2.5.7 1.4.3 2.6-1 2.4-2.5 5.5-2.7 6.7-.4.6 1 1.6 1.4 2.6 1s2.3.1 3.3 1.2c.9 1.1 2.2 1.7 2.9 1.4.7-.2 1.8.4 2.5 1.5 1 1.6 1.6 1.8 2.9 1s2.4-.6 4.6 1c3.4 2.4 16.7 4.8 70.4 12.6 9.6 1.5 21.3 3.1 26 3.6 4.7.6 10 1.3 11.8 1.6l3.2.6V0H402.3c-60.4 0-110.4.4-111.1.9m5.2 32.6c.4 2 1.8 5.2 3.2 7.2 1.3 2 2.5 5.2 2.5 7.2.1 2 .2 4 .3 4.6.1 1.4 11.7 16.5 12.5 16.5.4 0 1.1-.4 1.7-.9 1.1-1.1 14.9-5.5 25.4-8.1 22.4-5.6 24-6.4 24-11.3v-3.3l-19.7-4.3c-10.9-2.4-26.3-5.8-34.1-7.7-7.9-1.9-14.9-3.4-15.4-3.4-.6 0-.8 1.4-.4 3.5m98.7 21.9c-2.8 4.4-9.5 10.6-15.4 14-7.8 4.6-49 20.7-58.8 23-4.8 1.2-6.2 1.1-11-.4l-5.5-1.7-4.4 3.8-4.4 3.8 1.9 2.2c1.8 1.9 2 3.6 2 13.9v11.9l3.2 3.3c3.6 3.8 5.1 8.2 3.3 10.2-1.5 2 4.2 13.8 11.1 22.6 6.6 8.5 13.9 19.6 13.9 21 0 .6.7 2.4 1.5 4l1.5 3-6.8-.5-6.8-.4 1.3 7.7c2.6 14.8 4.1 36.8 3.7 50.8-.7 20.9-.9 21.5-5.7 26.6-2.3 2.5-5.5 6.4-7 8.8-2.6 3.9-3.1 4.2-6.3 3.7-3-.5-3.6-.3-4.3 1.6-1.1 2.9-3.3 19.8-2.7 20.4.8.8 20.2-3.7 70.6-16.3 65.8-16.5 66.3-16.6 113.5-30.6 9.4-2.7 19.6-5.7 22.8-6.5l5.7-1.5V80.1l-4.2-1.1c-2.4-.6-7.4-2-11.3-3-27.2-7.4-95.7-24-99-24-.2 0-1.3 1.5-2.4 3.4"/><path d="m239.8 98.2-3.4 4.3 3.6 3.2 3.6 3.2.2-7.5c.1-4.1 0-7.4-.2-7.4s-1.9 1.9-3.8 4.2"/></svg>