<svg xmlns="http://www.w3.org/2000/svg" width="682.667" height="512" version="1.0" viewBox="0 0 512 384"><path d="M0 186.5C0 289.1.3 373 .8 373c3 0 88.3-6.4 106.7-8 12.7-1.1 26.6-2.3 31-2.7l8-.6-3.8-1.7c-2.1-.9-5-2.9-6.5-4.3-1.5-1.5-4.9-3.3-7.5-4.1-4.1-1.2-4.8-1.2-5.5 0s-1.4 1.3-3.6.4c-1.5-.5-3.1-.8-3.6-.5-1.1.7-6.3-1.6-7.3-3.2-.4-.7-1.5-.9-2.4-.6-1.3.5-1.5.2-1.1-1.5.7-2.4-.2-2.8-2-1-.9.9-1.2.6-1.2-1.6 0-1.5-.5-3.6-1-4.6-.8-1.4-.5-2.8 1.1-5.7 1.3-2.4 1.7-3.9 1-4.1-2.5-.8-1-4.4 11-25.9 4.5-8.2 6.6-12.8 6.2-14.2-.3-1.1-.9-1.8-1.4-1.5s-.9 0-.9-.6-.5-.8-1-.5c-1.6 1-1.1-1.6 1.1-6.4 1.1-2.5 1.7-5.1 1.5-5.8-.8-2 1.8-8.5 6-14.9 3.6-5.6 18-22.5 19.7-23.3.4-.1 1.6-1.1 2.5-2 3.5-3.5 18.2-12 37.2-21.5 29.3-14.6 33.5-17.3 44.2-28.2 6.9-7.1 14.8-16.5 14.8-17.7 0-.3-5.1-4.6-11.4-9.6-14.1-11.2-15.9-13.6-16.4-21.6-.5-7.3 2.1-14.5 9.2-25.4 4.4-6.8 4.6-7.4 4-12.5-.7-5.4 1.2-11.1 4.2-12.9 1-.6 1.2-2.3.8-6.6-.8-7.2.9-14.9 4.7-21.9 1.6-2.8 2.8-5.2 2.6-5.2s-1.8 2-3.6 4.6c-2.9 3.9-3.5 4.3-4.5 2.9s-1.6-1.1-4.4 2.9c-4.3 6-5 6.3-5 2 0-4.5-.5-4.9-3.5-2.9-2.2 1.4-2.5 1.4-3.1 0-.5-1.4-1.1-1.2-4.3 1-3.9 2.6-5.2 2.1-3.4-1.4 1.5-2.8 1.4-4.4-.4-3.7-1.8.6-1.9.2-.4-2.6s.3-3.5-2.1-1.3c-2 1.8-2 1.8-.5-2 1.9-4.3.5-7.3-1.5-3.5-.6 1.2-1.4 1.9-1.7 1.6-.4-.3-1.5.2-2.6 1.1-1.5 1.4-1.4.8.7-2.4 3.3-5.4 3.3-7.3.1-7.3-2.8 0-3.4-1.7-.9-2.7 1.2-.4 1.3-.8.3-1.4-.8-.4-1.9-.3-2.7.3-1 .9-1.2.8-1-.2.2-.8-13-5.8-41.7-15.5-23.1-7.8-43.1-14.7-44.6-15.2-1.6-.7-3.1-.8-4.2-.1-1.2.6-3 .5-5.3-.2-2-.7-4-.8-4.4-.4-1.1 1.2-9 19-15 33.8C71.7 63.9 65.9 95.9 65.9 127c0 20.4 1.8 28.8 15.5 73.9 3.4 11 3.3 13.9-1 24.1-11.3 26.7-10.7 24.9-11.2 35.5-.5 11.6 2 25.1 6.2 33.2 2.8 5.7 10.4 13.6 14.7 15.3 1.6.7 2.7 1.6 2.4 2-.6.9 3.9 4.4 7.6 6 1.8.8.2.9-6.4.6-11.8-.5-19-4-27.8-13.4-15.2-16-21.7-42.3-17.5-69.5 1.6-10 1.6-11.3.1-18-.9-4-4.1-13.1-7.2-20.2-3-7.2-6.8-16.5-8.4-20.8C16.8 132.4 18.6 71 37.5 14.1 40 6.8 42 .6 42 .4S32.6 0 21 0H0zM131.1.4c1.3 1.2 70.8 23.6 73.3 23.6 3.2 0 11.6-5.9 11.6-8.2 0-.4-2.8-.8-6.2-.9-4.3-.1-5.5-.3-3.8-.8 2.5-.7 2.5-.7-.5-1.3-1.7-.4-5.1-.4-7.5-.2-4.4.5-4.4.5-2-1 1.4-.8 2.4-1.8 2.4-2.3-.1-.4.2-.7.8-.5.5.1.7-.2.3-.8-.3-.5-1.3-1-2.1-1-1 0-.4-1 1.5-2.6 1.7-1.4 3.1-3 3.1-3.5S187.1 0 166.3 0c-19.6 0-35.4.2-35.2.4M308 1.7c.1 1 .5 3.8 1 6.3s.6 5.5.3 6.8c-.5 2.1-.6 2.1-1.8.5-1.1-1.5-1.3-1.5-2 .6-.8 2.6-6.3 9.1-7.7 9.1-.5 0-2.3 1-4.1 2.2-2.3 1.7-3.1 2.9-2.9 4.5.2 1.3-.1 2.3-.7 2.3s-3.3 2.2-6.1 4.8l-5 4.8 3.6 1.7c3.3 1.6 30 8.4 65.9 16.7 7.7 1.8 16.7 3.4 20 3.4 3.3.1 6.6.5 7.3 1 .9.5 2.1.1 3.6-1.3 2.8-2.6 4.2-2.7 5.8-.2.9 1.5 1.9 1.8 4 1.4 1.7-.3 2.8-.1 2.8.6 0 .6.9 1.1 1.9 1.1 1.1 0 2.7 1 3.5 2.2 1.3 1.8 1.8 1.9 3.1.8s1.9-1 3.8.8c3.1 3 9.5 4.4 52.9 11.7 17.9 3 53 8.5 54.3 8.5.3 0 .5-20.7.5-46V0H410c-96.5 0-102 .1-102 1.7m-11 63.7c0 1.6 1.2 4.7 2.7 6.8 1.9 2.8 2.8 5.6 3.1 9.6.4 4.7 1.1 6.5 4.2 10.2 2 2.5 4.7 6.2 5.9 8.3 1.5 2.4 2.9 3.6 3.8 3.3 5-2 22.5-7 31.8-9.1 17.1-4 20.4-5.3 21.1-8.2 1.5-5.8.2-6.5-20.7-11.2-10.7-2.4-26.7-6.3-35.6-8.6L297 62.4zm100.8 28.4c-5.2 6.7-13 12.2-23.7 16.7-12.3 5.2-46.1 17.2-52.1 18.5-5.1 1.1-6 1-12.3-1.4-6.6-2.5-7-2.5-9.2-.8-3.2 2.3-3.8 4-2 5.8 2.1 2.1 2.8 5.8 2.1 10.2-.4 2-.6 6.6-.6 10.2.1 5.8.5 6.8 3.6 10.2 3.8 4.2 5.2 8.3 3.7 10.7-1.7 2.6 4.4 14.4 13.7 26.6 7.4 9.8 14 21.1 14 24.2 0 .8-1.2.7-4.5-.3-2.5-.7-4.5-1.1-4.5-1 0 .2 1.5 6 3.4 12.8 3.9 14.1 7.1 30.5 8.6 42.8.5 4.7 1.5 12.1 2.1 16.6 1.4 8.9.7 12-3.6 17.3-1.2 1.4-3.2 5.2-4.4 8.4-2.6 6.4-5.2 7.9-10.4 5.9-2.7-1-2.9-1-2.3 1.1.3 1.2.6 3.9.6 6 0 3.8 0 3.8 3.4 3.3 1.9-.3 16.7-3.7 32.8-7.6s32.5-7.8 36.3-8.6c32.9-7.6 51.7-12.5 95.5-24.9 8.5-2.4 17.4-4.9 19.8-5.5l4.2-1.1-.2-87.1-.3-87.1-23-6.3c-27.4-7.7-81.7-21.4-84.3-21.4-1.1 0-3.8 2.4-6.4 5.8"/><path d="m238.5 129-2.9 3 3.2 3.3 3.2 3.2v-6.3c0-3.4-.1-6.2-.3-6.2s-1.6 1.4-3.2 3"/></svg>