<svg xmlns="http://www.w3.org/2000/svg" width="682.667" height="512" version="1.0" viewBox="0 0 512 384"><path d="M0 192v192h58.3c52.9-.1 57.9-.2 55.4-1.6-1.6-.9-3.1-1.3-3.4-1-.8.8-10-4.1-10.6-5.8-.3-.8-1.6-1.6-2.9-1.8-1.7-.2-2.2-.9-2.1-2.6.2-1.9-.1-2.2-3-2-3.1.3-3.2.2-2.8-3.2.1-1.9.4-4 .4-4.5.1-.6-.4-.9-1.1-.8-.6.2-1.2.1-1.2-.2 0-1.1 6.2-11.4 7.5-12.5 2.5-2 1.7-3-2.2-3-9.2-.1-20.2-4.5-27.8-11.2-9.2-8.1-16.9-23.9-20.5-42.1-2.4-11.9-2.5-18.4-.5-29.7 2.6-14.7 1.5-24.2-4.5-37.5-14.6-32.8-19-49.1-21-78.3-2.3-32.5 2.1-73.8 10.7-101.7 2.9-9.4 9.5-28 12.5-35.2 1.6-4 2.7-7.7 2.3-8.3s-8.4-1-22.1-1H0zM95 3.6c4.1 1.9 8.9 4.8 10.5 6.4 2.3 2.1 9.3 5 29 11.8C164.8 32.4 206.1 46 207.7 46c.6 0 3-1.9 5.4-4.3l4.4-4.2-5.3-.3c-3-.2-5-.7-4.7-1.3.6-.9-4.2-1.4-9.4-.9-1.4.1-2.1-.2-1.7-.9.4-.6 1.5-1.1 2.4-1.2 1.4 0 1.3-.2-.3-.9-1.1-.5-1.5-.9-.8-.9.6-.1.9-1 .6-2-.3-1.3 1-3.4 4.4-6.7 2.6-2.7 3.9-4.2 2.8-3.4s-.6-.1 1.1-2c3.5-4 8.3-10.3 10.9-14.3l1.7-2.7h-65.8L87.5.1zm208.3-1.9c.3 1 1.4 4.3 2.5 7.3 2.4 6.6 5.2 22.3 4.5 25.1-.5 1.8-.7 1.8-1.7.3-1.1-1.4-1.5-1-3.1 2.5-1 2.3-2.4 4.1-3.2 4.1-.7 0-1.3.5-1.3 1 0 .6-1.8 1.7-4 2.6s-4 2-4 2.6c0 .5-.5.6-1.1.2-.9-.5-1 .3-.5 3 .6 3.1.4 3.6-1.2 3.6-1.1 0-3.2 1.6-4.6 3.5-1.5 1.9-3.3 3.5-4 3.5-2.3 0-2.9 3.3-.9 4.8 3.2 2.3 29.8 9.6 60.8 16.7 6.6 1.6 16.1 3.8 21 5.1 5.6 1.4 9.4 1.9 9.9 1.3 1.4-1.3 5-1.1 6.4.3.9.9 1.7.7 3.5-1 2.9-2.7 4.3-2.8 5.9-.3.9 1.4 1.9 1.8 3.9 1.4 1.8-.3 2.8 0 3.2 1.1.4.9 1.3 1.3 2.1 1 .9-.3 2 .4 2.9 2.2.9 1.7 1.7 2.3 2.1 1.5 1.1-1.7 4.3-1.3 5.9.9 1.2 1.7 10.2 4.2 23.2 6.5 1.7.2 8 1.4 14 2.5 13.4 2.6 63.5 11 65.3 11 .9 0 1.2-12.3 1.2-58V0H407.4c-99.2 0-104.6.1-104.1 1.7"/><path d="M88.3 33.8C80.2 51 72.2 71.9 69.5 83.4c-5.3 22.1-9.2 56.5-8.2 72.6.9 14.5 6.9 40 15 64 4.8 14.4 4.6 20.6-1.5 33.5-8 17.2-9 20.1-9.5 31-.6 12 1.5 24.9 5.6 33.9 2.8 6.2 10.5 14.6 16 17.6 1.6.8 2.6 2 2.4 2.6-.2.5 1.5 1.9 3.7 3l4 2.1 12.3-12.1 12.3-12.1-2.8-1.8c-1.5-1.1-2.8-2.6-2.8-3.4 0-1-.6-1.3-1.6-.9-1.2.5-1.4.1-.8-1.6.6-2 .5-2.1-.8-1-2.6 2.1-1.5-3.5 1.7-9.3 7.1-12.7 11.7-18 25.5-29.6 3.6-3 6.7-5.7 7-6 .8-.9 26-17.9 26.6-17.9.2 0 3.5-2 7.2-4.3 3.7-2.4 8.5-5.4 10.7-6.7 9.9-5.7 24.3-15.8 29.7-20.9 3.3-3 9-9.4 12.6-14.1s7.4-9.3 8.4-10.3c3.2-3.2 2-5.2-7.7-12.5-16.9-12.7-20.4-17.9-18.9-28 .8-5.9 2.9-10.9 8.4-19.7 4.1-6.5 4.4-7.5 4.5-14.1 0-6.2.3-7.5 2.9-10.8 2.6-3.5 2.8-4.3 2.3-9.6-.5-4.2-.1-7.9 1.3-13.1 1-4.1 1.8-7.5 1.6-7.6-.1-.1-1.7 2.2-3.5 5.2-1.9 3-3.7 5.5-4.1 5.5s-.7-1.6-.8-3.6c-.2-4.8-.6-5-3.9-2.4-2.4 1.9-2.8 2-3.1.6-.3-1.3-1.1-1-4.8 1.5-4.8 3.3-5 3.2-3.2-.6 1-2.1.9-2.8-.2-3.5s-1.2-1.4-.2-3.4c1.3-3 .6-3.3-1.9-1-1.7 1.6-1.8 1.5-.9-1.6.7-2.4.6-3.6-.5-4.6-1.1-1.2-1.7-1-3.4 1.4l-2.1 2.7 2-4.8 1.9-4.7h-3.6c-3.5 0-3.6 0-1.8-2 2.2-2.4 1.3-2.6-2.3-.3l-2.7 1.7 2.3-2.6c1.3-1.4 2-2.8 1.5-3.1-.4-.2-6-2.1-12.3-4.2-12.4-4-59.6-20.5-74.9-26.1-5.8-2.1-10.2-3.2-11.7-2.8-1.3.3-3.8.1-5.5-.5L93.8 22zm119.9 37.4c-.7.7-1.2.8-1.2.2 0-1.4 1.2-2.6 1.9-1.9.2.3-.1 1.1-.7 1.7M298 88.1c0 1.7 1.1 4.5 2.6 6.4 1.9 2.5 2.7 5.1 3.1 9.6.5 5.5 1.2 7 5.6 12.8 2.7 3.6 5.4 7.5 6 8.8 1.2 2.8 1 2.8 7.4.3 2.9-1.1 13.7-4 24-6.6 24.9-6 25.3-6.2 25.3-11.3 0-2.2-.5-4.3-1-4.6-.8-.5-71.6-18.5-72.7-18.5-.2 0-.3 1.4-.3 3.1M401.5 117c-4.6 6-12 12.3-18.2 15.4-4.4 2.2-35.2 13.5-49.3 18.1-13.3 4.3-17.8 4.3-26.1.2-5.6-2.7-6.8-2.7-8.6.2-1 1.5-.8 2.6.8 5.7 2 4.1 2.5 9.9.9 10.9-.5.3-1 3.7-1 7.5 0 6.8.1 7 3.9 10.5 4 3.8 6.1 9.5 4.3 11.8-1.5 1.8 5.7 16.1 11.8 23.6 9.5 11.6 18.1 26.6 16.4 28.4-.3.3-1.7-.1-3.2-.9-4.9-2.5-5.2-1.8-2.6 5.8 3.4 9.9 8.9 31.4 10.9 42.3.8 4.9 2.5 13.5 3.7 18.9 2.4 11.7 2 17.7-1.6 23-1.4 2-3 6.1-3.6 9.1-1.4 6.8-3 8.3-7.4 6.7q-9.15-3.3-5.4 2.7c1.1 1.7 1.5 1.8 7.2.4 5.7-1.3 37.6-8.6 45.6-10.3 11.5-2.5 20-4.4 36-8.1 11.2-2.6 47.5-11.8 61-15.5 5.2-1.4 15.1-4 22-5.8l12.5-3.3V139.7l-10-2.8c-27.8-8-54-15.2-72-19.9-11-2.8-20.7-5.3-21.7-5.6-1.1-.3-3.1 1.4-6.3 5.6"/><path d="M238.5 149c-2.8 2.9-2.8 3-1 5 3.1 3.4 4.5 2.5 4.5-3 0-2.8-.1-5-.3-5s-1.6 1.3-3.2 3M120 383c0 .5 1.2 1 2.8 1 2.1 0 2.4-.2 1.2-1-2-1.3-4-1.3-4 0"/></svg>