<svg xmlns="http://www.w3.org/2000/svg" width="682.667" height="512" version="1.0" viewBox="0 0 512 384"><path d="M0 192v192h43.2c23.8 0 42.8-.4 42.2-.8-.5-.5-3.8-1.6-7.4-2.6-8.9-2.4-13.6-5.3-20.8-13.1-6.9-7.3-11.1-14.8-15.3-27.3-5.1-15.2-5.5-21.5-3.3-54.2.8-11.6-.5-17.2-7.7-34.2-13.8-32.6-17.5-47.6-19.9-80.1-2.1-28.3 2-67.6 10.1-96.6 2.8-9.9 9.9-30.6 13.8-40.4l3.2-7.9-3.1-3.4c-3.3-3.8-3.8-6.9-1.6-9.9 1.1-1.6 2.6-2 7.3-1.9 4.8 0 8.7 1.2 22.3 6.6 21.4 8.5 33.2 14.2 37.2 17.9 3 2.8 9.6 5.6 36.8 15.4 20.5 7.4 43.1 15.2 57.8 20.1 18 6 18.6 6 21.6-.3 2.5-5.3 2.3-5.5-5.1-4.9-3.9.3-5.7.2-4.3-.2 2.5-.8 2.5-.8-.7-1.5-1.7-.3-4.6-.2-6.4.3-3.1.9-5.9.2-3.1-.7.9-.4 1-.9.2-1.8s-.6-1.4.7-1.9c1.2-.5 1.4-.9.6-1.4-.9-.6-.5-1.6 1.2-3.4 1.4-1.5 2.5-3.2 2.5-3.8s.5-.8 1-.5c.6.3 1 .1 1-.4 0-.6 4.4-7.5 9.8-15.3 10.4-15.2 20.7-26.6 26.3-29.2 1.9-.9 4.9-2.7 6.8-4.1l3.4-2.5H0zM260.8 1.6c1.3.9 3 1.3 3.8 1s2.2.2 3.2 1.2c2 2 5.2 3.5 14.7 6.9 17.8 6.5 24.5 15.7 29 40.6 1.6 8.9 1.4 11.7-.9 9.8-.9-.8-1.8.1-3.4 3.5-1.2 2.5-2.7 4.2-3.2 3.9-.6-.4-1.3.1-1.6 1-.4.9-1.3 1.4-2 1.1s-1.6-.1-2 .5c-.3.6-1.3.8-2.1.5-.8-.4-1.1-.1-.8.5.4.6-.3 1.3-1.5 1.6-1.9.5-2.1 1.1-1.5 4 .5 2.6.2 3.5-1.2 4-1 .3-3.3 2-5 3.7-1.8 1.7-4.4 4.1-5.8 5.3s-2.5 2.6-2.5 3c.1 1.7 14.7 7.5 28.7 11.4 29.4 8.1 68.4 17.6 68.9 16.7.9-1.4 5.1-.9 6.4.7 1.2 1.4 1.6 1.3 4-1 3.2-3 4.6-3.1 6-.5.8 1.5 1.7 1.9 3.4 1.4 1.4-.3 2.7 0 3.5 1 .7.8 1.9 1.2 2.6 1 .8-.3 2.1.6 3.1 2.1 1.2 1.9 1.9 2.3 2.5 1.4 1.4-2.3 3.9-1.8 5.4 1.2.9 1.6 1.9 2.9 2.3 2.9s8.1 1.6 17.2 3.6c17.2 3.7 31.4 6.5 58.5 11.4 8.8 1.7 17.2 3.2 18.8 3.6l2.7.6V0H385.3C269.2 0 258.7.1 260.8 1.6"/><path d="M84.5 57.4c-6.6 14.3-14.3 33.2-17.4 42.9-8.4 26.2-13.4 75.1-10.1 98.2 1.5 10 6.1 28.3 12.6 49.5 7.1 23.3 7.1 24.2-1.5 43.3-3.4 7.6-6.6 16.1-7.1 18.9-2.6 13.4-.2 33.9 5.2 45.5 2.6 5.5 8.8 12.5 14.7 16.5 2.5 1.7 5 3.8 5.4 4.5 1.6 2.7 6.1 1.1 20.5-7.1 8.1-4.6 16.4-8.9 18.4-9.5 3.9-1.3 5.5-2.7 4.3-3.9-.3-.4-1.9.1-3.5 1-2.8 1.6-3 1.6-5.5-.4-1.6-1.2-2.4-2.6-2-3.5.4-1.1.1-1.3-1.1-.9-1.2.5-1.4.1-.9-1.5.5-1.5.4-1.9-.5-1.4q-1.05.6-.9-.6c.2-.8-.1-2.5-.5-3.8-.5-1.3-.4-2.6.1-3 .6-.3 1.4-1.8 1.9-3.3 1.1-3.2 18.2-15.9 28.9-21.4 17.8-9.1 29.3-18.4 59-47.9 16.5-16.4 20.4-20.9 28.5-33 2.9-4.4 6.6-9.6 8.2-11.7 2.4-3.1 2.7-4.1 2.1-7.2-.7-3.1-2.5-5-12.3-12.9-14.9-12-16.3-14-15.8-23.2.5-7.3 3.2-14 10.4-25.1 3-4.8 3.2-5.6 2.7-11.2-.5-5.5-.3-6.4 2.5-10.6 2.9-4.2 3.1-5.1 2.6-10.8-.3-3.5-.2-8.9.4-12.1.8-5.3.2-7.7-1.2-4.2-.9 2.5-5 3.6-5.7 1.6-.5-1.3-.9-1.1-1.9 1.1-.7 1.4-2 2.9-2.9 3.2s-2.1.8-2.7 1.1-1.1-.9-1.2-3.2c-.2-8-.1-7.7-2.2-5.8-1.8 1.6-1.8 1.6-1.3-.6.4-1.3.2-2-.4-1.6-.5.4-.8-.7-.5-2.6l.4-3.2-2.2 3c-2.2 2.9-2.4 1.8-.5-2.8.6-1.4.4-1.6-1.1-1-1.7.6-1.7.5-.5-1 2-2.5.9-3-3.8-1.4l-4.1 1.5 2.1-2.9c1.1-1.6 1.9-3.4 1.7-4.1-.2-.6-4.2-2.4-8.8-4-33.5-11.8-58.3-20.6-75.5-27.1-14.8-5.5-21.7-7.5-26.6-7.9l-6.6-.5zM291 72c0 .5.5 1 1 1 .6 0 1-.5 1-1 0-.6-.4-1-1-1-.5 0-1 .4-1 1m8.5 44.8c-1.2 1.3-.2 5.1 2.4 9 2.8 4.1 5 11.7 3.7 12.9-.3.4 0 1.3.8 2.2.7.9 2.9 4.5 4.8 8.1 6.8 12.4 7.2 13 8.8 12.4.8-.3 11.4-3 23.5-6 31.1-7.7 30.5-7.5 31.5-9.3.5-1 .6-3.6.3-5.9-.5-3.8-.9-4.3-4.2-5.1-17.9-4.6-41.4-10.8-54.9-14.4-8.9-2.4-16.4-4.1-16.7-3.9m109.1 31c-2.4 4.6-14.5 15.9-20.5 19-6.6 3.5-47.1 17.5-58.4 20.2-7.1 1.7-8.3 1.7-13.5.4-3.1-.8-7.6-2.8-10-4.4-2.3-1.7-4.5-3-4.7-3s-.9.9-1.5 2c-.9 1.6-.7 2.6 1 4.7 1.9 2.4 2 3.4 1.4 14.8l-.7 12.2 4.2 4.2c4 4 4.3 4.6 3.9 8.9-.6 6 3.9 16.1 10.8 24.7 10.1 12.5 16.7 22.9 17.9 28.3.7 3.5.2 3.8-3.9 2.2-1.4-.5-2.8-.6-3-.1-.3.4.8 4.8 2.5 9.7 4.7 13.8 7.6 25.2 11.9 46.8 4.7 23.5 5 30.4 1.6 36.8-1.3 2.4-2.7 5.4-3 6.6-.7 2.1-.4 2.2 4 2.2 2.7 0 11.1-1.3 18.9-3 7.7-1.6 28.9-6.1 47-9.9 31.2-6.6 80.8-18.2 92.3-21.6l5.2-1.6-.2-87-.3-87.1-7.5-2.4c-11-3.6-56.6-16.7-70.5-20.3-6.6-1.8-13.3-3.6-15-4-7.8-2.3-8.4-2.3-9.9.7"/><path d="m238 178-2.2 3.1 2.3 2.5c2.6 2.8 3.9 1.8 3.9-3.1 0-5.2-1.4-6.1-4-2.5"/></svg>