<svg xmlns="http://www.w3.org/2000/svg" width="682.667" height="512" version="1.0" viewBox="0 0 512 384"><path d="M0 192v192h50l-2.5-4.1c-3.4-5.3-8.1-17.1-10.7-26.7-2.3-8.7-2.8-26.7-1.4-47.2 1-13.4 0-17.8-8.3-37.2-15.4-35.9-19.6-56.9-19.5-97.3 0-27.1 1.6-43.3 6.6-66 3.1-14.6 10.2-37.6 16.3-53 1.9-4.9 3.5-9.7 3.5-10.6 0-.8-1.4-2.8-3-4.4-2.4-2.3-3-3.5-2.5-5.5.8-3.5 4.1-6 8-6 4.1 0 19.7 5.4 37.1 13 15.2 6.6 21.8 10.2 25 13.7 1.4 1.6 9.2 4.9 22.6 9.9 11.1 4.1 21.2 7.9 22.3 8.4s6.1 2.3 11 4.1c5 1.7 16.7 5.8 26 9.1 9.4 3.2 20.2 7 24.2 8.2l7.2 2.4 1.4-3.2c.8-1.7 1.8-4.8 2.1-6.8l.7-3.7-5.2.6c-3.8.5-5 .3-4.5-.5.8-1.3-2.6-1.7-9.4-1.4l-3.5.2 2.5-1.5c2.2-1.3 2.3-1.4.5-1.5s-1.9-.1-.2-1.1c.9-.5 1.7-1.5 1.7-2 0-.6-.5-.7-1.1-.3-.8.5-.8.1 0-1.4.6-1.1 1.4-2.2 1.8-2.4 1.1-.4 7.9-9 12.1-15.1 12.9-19.1 18.1-24.7 30.7-33.1 10.4-6.9 13.7-7.8 18.6-5.2 1.4.7 3.9 1.6 5.5 2s3.6 1.4 4.4 2.1 5.1 2.5 9.5 4c11 3.8 15 5.9 20.5 11.1 6.9 6.5 11.8 19.1 14.4 37.3.6 4 .5 4.3-1.4 3.8-1.6-.4-2.4.2-3.4 2.6-1.7 3.9-7.3 9.2-7.8 7.5-.3-.8-1.3-.5-3.2 1-3 2.3-4.6 2.1-4.6-.6-.1-1.6-.1-1.6-1-.1-.7 1.2-.5 2.8.5 5.3 1.6 3.7 1.3 5.6-.7 5.6-.6 0-2.5 1.3-4.2 2.9-12.9 12.2-12.9 12.1-9.7 12.1 1 0 5 1.6 8.9 3.5 8.9 4.5 36.9 12.6 81.6 23.6 5.4 1.3 8.3 1.6 9 .9 1.5-1.5 3.7-1.2 5.9.7 1.8 1.7 2 1.7 3.7-.5 2.3-2.8 4.5-2.8 6.5 0 1.3 1.9 1.7 2 2.4.9.8-1.2 1.3-1.2 3.5.2 1.4.9 3.2 1.7 4.1 1.7.8 0 2.1 1.1 2.7 2.5 1.1 2.4 1.2 2.4 3 .9 1.7-1.6 1.9-1.6 3.8.1 1.1 1 2 2.4 2 3 0 .7 3.3 1.9 7.8 2.8 4.2.9 10.7 2.3 14.3 3.1s7.7 1.7 9 2c1.3.2 16 3.2 32.6 6.5 16.6 3.4 30.6 6.1 31.2 6.1.8 0 1.1-24.7 1.1-85.5V0H0z"/><path d="M85.1 65.8c-2.8 5.3-13.9 31.3-17.6 41.3-5.2 14.2-7.6 24.3-11.1 46.4-3.5 22.3-4 56.7-1.1 70.5 2.4 11.2 7.9 31.4 12.7 47 6.6 20.9 6.6 19.9-3.1 41.5-3.6 8-6.3 15.7-7 19.9-2.3 13.5.6 33.7 6.7 46.1l2.7 5.5h27.3c15 0 27.9-.3 28.8-.6 1.2-.5 1.1-1-.9-3-1.5-1.5-2.2-3-1.8-4.1.5-1.2.3-1.4-.7-.8s-1.2.4-.7-.8c.3-1 .3-1.7-.2-1.7-1.8 0-1.7-6.4.2-10.9 1.7-4.2 3.3-5.6 15.7-13.9 7.6-5 15.7-9.9 18.1-10.7 13.7-4.9 24.6-14.1 48-40.5 4.6-5.2 9.1-10.2 9.9-11 4.3-4.3 14.5-18 23.6-31.7 9.7-14.5 10.1-15.4 9.7-19.5-.5-4-1.1-4.7-8.7-10.5-12.3-9.3-17.7-14.4-19.2-18-3.2-7.6-.9-16.9 8-31.2 5-8.1 5.5-9.3 4.5-11.8-1.4-3.7-.3-8.7 2.8-13.4 2.3-3.5 2.5-4.6 2-9.8-.4-4-.2-7.5.8-10.8.8-2.6 1.5-5.7 1.5-6.8 0-1.8-.2-1.8-2.3.6-2.9 3.4-5.7 4.4-5.7 2.1 0-1.1-.8-.6-2.2 1.6s-2.3 2.9-2.8 2.2c-.5-.9-.9-.9-1.4-.1-1.5 2.3-2.7 1.1-2.1-2 .5-2.4.4-3-.5-2.4-1 .6-1.1.1-.6-2.1l.6-2.9-2.1 2.5-2.2 2.5.8-2.4c.5-1.5.4-2.1-.3-1.7s-.9-.7-.6-3.1l.4-3.8-2.5 4c-1.9 3-2.5 3.5-2.5 1.9 0-1.1.6-2.6 1.2-3.2 1-1 1-1.5-.1-2.2-1.2-.7-1.3-1.1-.1-2.4 2.2-2.8.1-3.2-4.2-.9l-4 2.2 1.6-2.4c.9-1.3 1.6-3.1 1.6-3.8 0-1.5-.7-1.8-27.5-11.2-16.8-5.9-51.4-18.8-70-26-7.3-2.9-11.9-4.1-13.7-3.8-1.5.3-4.1 0-5.8-.5-2.5-.9-3.1-.8-3.9.6M301 138.4c0 2.3.9 4.5 2.6 6.6 1.7 2 2.8 4.7 3.2 7.8.3 2.6 1.6 6.3 2.9 8.2 1.2 1.9 3.4 6.4 4.8 10s3.3 7.6 4.3 8.8l1.8 2.4 7-2.1c3.8-1.1 15-3.9 24.9-6.2 9.9-2.2 19.3-4.6 20.8-5.2 3.5-1.2 4.9-4.6 4.1-9.6l-.6-3.9-18.2-4.7c-9.9-2.6-26.6-7.2-37.1-10.1-10.4-3-19.3-5.4-19.7-5.4-.5 0-.8 1.5-.8 3.4m107.2 33.2c-5.1 6.7-12.5 13-19.4 16.5-7.2 3.7-58 20.1-63.7 20.6-6.2.5-12.8-1.7-18.9-6.4-2.4-1.8-3.7-2.2-4.5-1.4s-.5 1.6.9 3.2c2 2.2 2.1 4.4.9 20l-.6 7.6 4.5 4.7c2.5 2.6 4.7 5.3 4.7 6.1.1.8.2 2.1.3 2.7.1.7-.2 2.2-.7 3.4-1.3 3 4.5 13.8 13.5 25.1 7.1 8.9 14.8 21.3 16.3 26 .5 1.9.3 2.3-1.7 2.3-1.3 0-3.8-.4-5.6-.9-2.9-.9-3.2-.8-2.8.7 7.6 25.3 10 36.3 16.5 77.7l.6 4 47.4.3 47.3.2 17.2-4c9.4-2.2 24.9-5.9 34.4-8.1l17.2-4.1V193.4l-10.7-3.3c-6-1.8-16.6-5-23.8-7.2-13.8-4.2-62.3-17.9-63.5-17.9-.4 0-3 3-5.8 6.6"/><path d="m238.6 194-2.8 3.4 2.8 2.3c3.5 2.8 4.4 1.6 3.5-4.6l-.6-4.5z"/></svg>