<svg xmlns="http://www.w3.org/2000/svg" width="682.667" height="512" version="1.0" viewBox="0 0 512 384"><path d="M0 192v192h21.6c20.2 0 21.6-.1 20.9-1.7-.4-1-2.2-6.3-4-11.8-4.9-14.5-5.9-22.4-4.9-38.5.5-7.4.8-18 .8-23.5-.1-11-.9-13.6-12.4-41.5-6.6-16-11.3-32.4-13.6-47.5-2.7-17.1-2.7-63.4-.1-82 2.4-16.8 5.9-33.1 10.2-47.5 2.9-9.8 5.2-16.4 13.7-39.3.9-2.5.7-3.2-2.1-6.1-3.5-3.6-3.9-6.1-1.5-9.5 1.5-2.1 2.2-2.3 7.8-1.9C46.9 34 89.2 51.9 96 58.5c3.8 3.7 25.9 12.4 79.5 31.5 34 12 33.2 11.8 34.4 11 1.3-.8 5.3-14 4.3-14.1-.4 0-3.6-.1-7.2-.1s-5.7-.2-4.7-.5c3.7-1 .3-2.3-4.6-1.7-3.8.4-4.8.3-3.7-.5 1.3-.9 1.2-1.1-.5-1.2-1.6 0-1.4-.3 1-1.4 1.7-.8 2.4-1.4 1.8-1.5-2.2 0-1.4-1.5 3.5-6.6 2.6-2.7 8.7-10.3 13.6-16.9 11.7-15.6 15.6-19.7 24.5-25.7 14.2-9.4 18.2-10.5 24.3-6.8 1.8 1.1 3.9 2 4.7 2s2.2.7 3.1 1.5c1 .9 5.1 2.5 9.1 3.6 18.5 5.2 28.5 14.6 32.9 30.8.9 3.5 3.9 19.6 4 21.3 0 1.4-3 .9-3.1-.5 0-.6-.9.7-1.9 3.1-1.1 2.3-2.6 4.5-3.5 4.8-.9.4-2.2 1.8-3.1 3.3-1.3 2.3-1.5 2.4-1.1.4.5-2.4-.4-2.2-4.8 1-1.8 1.4-2.1 1.4-3.3-.6s-1.3-1.8-.9 1.8c.3 2.2.8 4.8 1.2 5.8.6 1.3 0 2-2.4 2.8-1.7.6-3.1 1.7-3.1 2.4s-1.8 2.4-4 3.9c-2.2 1.4-4.7 3.8-5.6 5.2-1.1 1.7-2.4 2.4-3.6 2.1-1-.3-1.6-.2-1.3.3.2.4 2.6 1.3 5.2 1.9 2.7.7 7.3 2.7 10.3 4.5 5.3 3.2 14.3 6 47.5 15 29.4 7.9 34.2 9 39.6 9.1 3.1 0 6.3.6 7.1 1.3 1.4 1.1 2 .9 4.2-1.2 2.5-2.6 5-2.6 6 0 .4 1 1.4 1.2 3 .8 1.3-.3 2.7-.1 3 .5.4.6 1.8 1.1 3.2 1.1 1.9 0 2.8.8 3.6 3.2 1 2.7 1.2 2.9 2.3 1.5 1.8-2.5 4.2-2.1 5.9 1 1.5 2.9 3.4 3.4 35.6 10.4 9.5 2 58.9 11.9 59.6 11.9.2 0 .4-40.5.4-90V0H0z"/><path d="M83.1 74.8C76 89 64.6 117.6 61.1 130c-4.9 17.9-9.5 53.4-9.4 74 0 21 2.6 33.4 16.8 80.5 2.6 8.7 3.5 13.1 3.1 16-.3 2.3-3.4 10.8-6.9 19-7.4 17.2-8.7 22.3-8.7 34.1 0 8.3.4 11.2 3.7 24.2l1.6 6.2h30.1c16.5-.1 29.6-.4 29-.8-3.8-2.4-.7-13.2 5-18.2 5.8-4.9 26.1-19 27.5-19 2.4 0 13.2-6 19.2-10.6 9.4-7.2 40.9-41.6 51.8-56.6 3.1-4.2 8.5-12.2 12-17.7 3.5-5.6 7-10.6 7.7-11.2 1.5-1.2 1.8-4.8.8-9.5-.4-2.2-2.6-4.5-8.6-8.9-17.4-13-21.5-18.7-20.3-28.3.7-5.4 6.1-17.2 11.7-25.4 2.3-3.4 2.5-4.5 2.1-9.8-.5-5.4-.3-6.4 2.2-10.2 2.7-4.1 2.8-4.9 3-17.2.3-12.1.2-12.8-1.4-10.9-1.9 2.4-6.1 3.7-6.1 2 0-.7-1 0-2.1 1.6-1.1 1.5-2.5 2.4-3 2.1-.6-.3-1.7 0-2.6.8-1.4 1.1-1.6 1-1.1-.7.3-1.1.9-2.9 1.4-3.9.5-1.3.4-1.7-.3-1.3-.6.4-1.3-.3-1.6-1.5-.5-1.8-.8-1.9-2.2-.8-1.3 1.1-1.4 1-.9-.5.5-1.3.4-1.6-.4-1.1-1.5.9-1.5-.4-.2-4 1.7-4.3.5-3.9-2.3.8-1.5 2.4-2.6 3.6-2.6 2.8-.1-.8.3-2.2.9-3 .5-.9.5-1.7 0-2s-.3-1.8.5-3.3c1.2-2.4 1.2-2.7-.4-2.7-.9 0-2.6.7-3.7 1.5-2.4 1.8-3.8 1.9-2.7.2 2.3-3.8 1.5-4.4-14-9.7-19.8-6.9-77.7-28.5-88-32.9-3-1.3-5.8-1.8-7.7-1.5-1.6.4-4.3.2-6-.4-2.9-1.1-3.1-.9-4.9 2.6m219.6 68.8c-1.3 1.4-.7 7.2 1 8.5 2 1.7 4.3 7 4.3 10 0 1.1 1.5 4.6 3.4 7.7 1.9 3.2 3.8 7.3 4.1 9.2.6 2.8 3.8 10.4 5 11.8.1.1 3.6-.6 7.6-1.8 4.1-1.1 16.1-4.1 26.8-6.6s20.3-5 21.3-5.5c1.6-.9 1.8-2 1.6-7.1l-.3-6.1-18-4.8c-19.4-5.2-52.1-14.4-54.6-15.4-.8-.3-1.8-.2-2.2.1m108.8 33.6c-3.3 5.8-13.7 15.2-21 19-7.9 4.1-55.5 20.3-62.7 21.3-6.6 1-13.7-1-20.3-5.6-5.3-3.7-7.3-3.6-3.9.2 1.9 2.2 3.1 10.4 1.7 12.1-.6.7-.9 4.8-.8 9.1.1 6.7.5 8 2.3 9.3 5.1 3.6 8.2 10.9 6 14.4-1.5 2.4 4.6 13.8 13.4 24.8 8.1 10 15.6 22.5 16 26.3.3 2.2 0 2.4-3.7 2.1-2.2-.2-4.5-.8-5.1-1.3-2-1.6-2.3.2-.8 4.9 3.4 11 8.7 36.9 10.7 52.7l2.2 17 67 .3 67 .2 12.5-2.9c6.9-1.7 14.2-3.3 16.3-3.7l3.7-.6V202.2l-7.7-2.6c-27.8-9-85.5-25.6-89.1-25.6-1 0-2.6 1.5-3.7 3.2"/><path d="m238.8 201.2-2.4 3.3 3.3 2.8 3.3 2.9v-4.9c0-7-1.1-8.1-4.2-4.1"/></svg>