<svg xmlns="http://www.w3.org/2000/svg" width="682.667" height="512" version="1.0" viewBox="0 0 512 384"><path d="M0 192v192h33.9l-.9-2.9c-2.5-9-3.1-20.8-1.6-32.6 2.9-21.7 2.2-26-7.9-50-10.5-25-14.7-38.9-18.2-60-2.6-15.6-2.6-65.3 0-83.5 3.7-26 9.2-46.9 19.3-74.1l5.5-14.7-3.5-3.8c-4.1-4.5-4.3-5.3-1.7-8.5 3.3-4.2 10.1-3.3 26.9 3.5C73.4 66 90.8 74.5 94 78c2.9 3.1 8.5 5.6 43 18.7 20.1 7.6 33.7 12.6 53.5 19.4 15.5 5.4 17 5.8 18.5 4.3 1.4-1.5 1.3-1.6-1-.9-1.4.4-2.2.4-1.8 0 .4-.5.3-1.4-.3-2.1-.7-.8-.7-1.4.1-1.9.5-.3 1-1.4 1-2.3s1.1-3.9 2.5-6.6 2.5-5.1 2.5-5.3-1.7-.3-3.7-.4c-4.1-.1-9.7-1.6-7.3-1.9 2.3-.3-3.1-1.8-6.9-1.9-2.9-.1-3.2-.3-2.1-1.6.9-1.1.9-1.5.1-1.5-.7 0-.9-.5-.6-1 .3-.6 1.5-1 2.6-1 1 0 1.9-.5 1.9-1.1 0-.5-.4-.7-1-.4-.5.3-1 .2-1-.2 0-.5 1.7-1.7 3.7-2.8 2.1-1.1 11.2-9.4 20.3-18.6 13-13 17.9-17.2 23-19.9 17.8-9.1 19.1-9.4 24.8-6 1.8 1.1 3.8 2 4.5 2s2.4.8 3.7 1.7c1.4 1 5.2 2.4 8.5 3 3.3.7 9.2 2.9 13.2 4.8 13.1 6.5 18.5 15.1 22.8 36.7 2.2 10.7 1.9 12.8-1.3 9.6-.9-.9-1.2-.9-1.2.3 0 2.2-3.6 8.4-4.8 8.4-.6 0-1.8.9-2.7 2s-1.4 1.4-1 .7c.8-1.6-.5-1.5-2.9.3-2.7 2-5.4 1.9-5.9-.3-.3-.9-.5-.2-.6 1.6 0 1.8.4 4.3 1 5.4 1 1.8.8 2.4-.7 3.4-2 1.3-6.1 4.9-12.8 11-2.5 2.3-4.5 3.4-5.7 3.1-1.1-.3-1.9-.2-1.9.2 0 1.7 3.8 4.1 10.2 6.4 3.6 1.3 8.5 3.9 10.8 5.7 4.4 3.5 16.8 7.4 57 18.1 22.7 6.1 23.8 6.3 25.6 4.8 1.2-1 2-.8 4.3.9l2.8 2 2.6-2.5c2.8-2.9 5.6-2.6 6.4.7.5 1.8.7 1.8 2.8.4s2.4-1.3 3.8.6c.9 1.3 2 1.8 3.1 1.4 1.2-.5 2 .2 2.9 2.5 1.2 3.3 2.7 4.1 2.7 1.6 0-.9.9-1.5 2.4-1.5 1.7 0 2.7.8 3.3 2.7 1.1 3.1-.4 2.7 44.8 12.7 8.8 1.9 19.4 4.2 23.5 5.1 14.7 2.9 21.8 4.5 23.4 5.1 1.5.6 1.6-7.7 1.6-101.5V0H0z"/><path d="M78.4 97.9c-13.1 28-21.3 52.8-24.4 73.8-4 26.9-4.3 30.7-4.4 51.3 0 27 0 26.9 17.5 86 2 7 2.9 11.9 2.6 14.5-.2 2.2-2.9 9.7-6 16.5-7.3 16.2-9.7 25.2-9.7 35.7v8.3h74.9l3-4.3c3.3-4.8 7.4-8.8 14.6-14.1 2.8-2.1 7.7-6.1 11-9.1 3.3-2.9 10.3-8.8 15.6-13.1 25.3-20.8 39.7-33.1 47.8-40.8 6.2-6 27.4-33.1 27.4-35.1.1-9.8.2-9.5-9.3-16.9-11.8-9-19.6-16.5-20.9-19.9-3-7.9-.5-16.7 8.7-30.5 5.4-8.1 6-9.5 5.2-11.8-1.6-4.2-1.2-6.8 2.2-11.9 3.1-4.6 3.2-5.4 3.3-13.9 0-7.3.4-9.9 2.1-13.3 1.8-3.5 1.9-4.3.7-4.7-2.6-1-3.1-.7-6.4 3.9-1.8 2.5-3.6 4.5-4 4.5s-.5-1.8-.2-4c.6-4.3 0-4.9-2.3-2.5-1 1-2.1 1.2-3.7.6-1.7-.7-2.8-.3-5 1.8-2 1.8-2.6 2.1-2.2.8.8-2-.5-2.3-2.3-.5-1.7 1.7-1.5-.4.3-2.8 2-2.7 1.8-3.7-.5-2.4-1.5.8-2 .8-2-.1 0-.6-.7-.8-1.6-.5-1.2.5-1.4.1-.8-1.6.6-2.1.5-2.2-1.1-.8-1.7 1.4-1.7 1.4-.2-1.7 2.6-5 1.9-6.1-1.4-2.3-1.8 2-2.6 2.6-2 1.3 1.5-3 1.4-3.6-.6-2.8-1.5.5-1.6.4-.5-.6.6-.7 1.2-1.6 1.2-2 0-1.3-5.2-2-6.6-.8-1.2.9-1.3.9-.9-.3.7-1.8 1.6-1.4-16.5-7.8-20.1-7.1-40.4-14.9-76.5-29.2-7.2-2.8-11.8-4-16.3-4.2l-6.3-.3zM251 131c-.6 1.1-.7 2-.2 2 .6 0 1.2-.9 1.5-2s.3-2 .1-2-.8.9-1.4 2m55.2 38.1c-.2 3.1.4 4.9 2.3 7.1 1.4 1.6 2.5 3.9 2.5 5s1.8 4.7 3.9 7.9c3.9 5.8 6.9 15.4 5.7 18.4-.3.8.1 3 .9 4.9l1.5 3.4 4.7-1.5c8-2.4 18.2-5.1 31.6-8.3 20.6-4.9 20.1-4.7 20.5-10 .2-2.4.1-5.8-.2-7.5-.6-2.8-1.2-3.3-5.9-4.5s-62-17.3-65.8-18.5c-1.2-.4-1.6.3-1.7 3.6m108.2 29.8c-3.3 6-14.4 16.4-21.9 20.3-6.9 3.6-32.2 13-52.5 19.4-13.1 4.2-17.8 4.3-24.7.5l-5.1-2.8-.6 4.6c-.3 2.5-.6 8.1-.8 12.4l-.3 7.8 4.8 5c4.8 5 5.6 7.5 3.5 10.9-1.1 1.8-.8 3.1 2.6 9.6 2.1 4.1 7.3 11.7 11.5 16.9 7.4 9.1 16.1 23.6 16.1 26.8 0 1.2-1 1.5-4.7 1.3-2.7-.2-5.7-.7-6.7-1.1-1.7-.7-1.8-.5-1.2 1.6 3 10.4 9.5 45.1 9.6 50.6 0 1 17.5 1.3 84 1.3h84V224.2l-4.7-1.6c-28-8.8-44.5-13.9-65.8-20l-25.2-7.2z"/><path d="m241 218.5-3.4 3.5 3.9 4c4.6 4.7 5.6 3.9 4.8-3.4-.9-7.7-1.4-8.1-5.3-4.1"/></svg>