<svg xmlns="http://www.w3.org/2000/svg" width="682.667" height="512" version="1.0" viewBox="0 0 512 384"><path d="M0 192v192h32.7l-.9-5.3c-1-4.9-.6-18.4.8-37.5.9-10.9-.9-18-9.6-38.6-15.9-38-20.4-59.9-20.3-100.1 0-38 4.5-66.3 16.3-101.5 3.8-11.3 7.7-22.6 8.7-25.2l1.8-4.7-3.3-3.4c-1.7-1.8-3.2-4.2-3.2-5.3 0-6 6.5-7.7 16.7-4.4C57.8 64 88.9 78.6 94 83.5c2.2 2.2 6.6 4.5 12 6.5 4.7 1.7 12.3 4.6 17 6.4 18.2 7.1 30 11.6 42.5 16.1 7.2 2.5 14.6 5.2 16.5 6 1.9.7 8.1 3 13.8 5 9.9 3.5 10.4 3.6 11.7 1.8 2-2.5 1.8-3.3-.7-3.3-1.9 0-2-.2-.6-1.8.8-.9 2.9-4.5 4.6-7.9l3.2-6.2-5.6-.7c-3.7-.4-5.1-.9-4.3-1.5 1-.6.8-.9-.8-.9-1.2 0-2.5-.5-2.8-1-.3-.6-2.5-1-4.7-1h-4.1l2.6-2.4c1.6-1.5 2.4-3.1 2.1-4-.4-1.1.2-1.9 1.8-2.5 4.1-1.5 11.3-7.6 23-19.4 6.2-6.2 12.9-12.5 14.8-13.9 5.6-4 22.9-12.8 25.2-12.8 2 0 4.6 1 14.3 5.5 1.7.8 6.2 2.1 10 3.1 14.4 3.4 25.9 12.5 30.2 24 1.9 5.1 6.3 23.6 6.3 26.6 0 .6-.8.8-1.9.5-1.4-.3-2.3.5-3.6 3.6-1 2.2-2.5 4.2-3.5 4.4-1 .3-2.2 1.4-2.8 2.6-.9 1.8-1.1 1.9-1.1.4-.1-2-1.4-2.2-3-.3-.6.7-2.3 1.3-3.7 1.3-3.6 0-4 .9-2 5 1.8 3.7 1.1 5.2-2.2 5.3-.7 0-1.8 1.1-2.4 2.5s-1.6 2.5-2.2 2.5c-.6.1-3.1 2.1-5.6 4.5-3 3-5.1 4.3-6.2 3.9-1-.3-1.8-.1-1.8.5 0 1.6 4.8 4.9 8.3 5.7 4.5.9 10 3.9 14.2 7.6 2.1 1.8 6.2 3.8 9.8 4.9 3.4 1 13.6 3.9 22.7 6.4 15.6 4.4 22.1 6.2 38.3 10.4 3.7 1 7 1.4 7.3.9.9-1.4 4.6-.9 6.5.8 1.7 1.5 2 1.4 4.2-1.1 2-2.4 2.6-2.6 4.5-1.6 1.2.6 2.2 1.6 2.2 2.1s1.3.7 2.8.4c1.9-.4 3.2-.1 4.1 1 .7.9 1.7 1.3 2.3 1 1.3-.8 3.8 1.6 3.8 3.7 0 2.5 1.2 2.4 2.8-.1 1-1.6 1.6-1.8 3.2-1 1 .5 2 2 2.2 3.2.3 2 1.5 2.6 8.8 4.4 9 2.3 35.1 8.2 51 11.5 8.1 1.7 22.6 4.7 30.8 6.5l2.2.4V0H0z"/><path d="M77.3 104.4c-12.5 27.4-19.4 48.2-22.8 68.3-4.4 26.5-4.9 32.5-4.9 55.3 0 21.9 0 22.8 3.2 36 1.8 7.4 6.4 23.9 10.2 36.7 3.9 12.8 7 25 7 27.1 0 2.3-2 8.1-5.1 15.2-7 15.8-9.8 24.9-10.6 33.6l-.6 7.4h73.9l1.6-2.8c.9-1.5 8.1-9 16-16.7 14.6-14.3 27.1-24.2 50.3-40 25.4-17.3 34.8-25.7 47.3-42.2 3.4-4.5 6.6-8.4 7.1-8.8.6-.3.6-1.8 0-3.7-.5-1.8-.7-4-.4-4.9.4-1.1-2.3-3.9-9.2-9.5-13.1-10.5-19.2-16.3-20.9-19.6-2-3.8-1.8-12.8.5-18 1-2.4 4.6-8.5 8-13.6 5.9-9 6.1-9.5 5.1-13.2-1.2-4.4-.4-7.2 3.4-11.7 2.4-2.9 2.6-3.6 2-10-.5-5.6-.2-7.8 1.6-12.7 1.8-4.8 2-6 .9-6.7-2.5-1.6-4.4-.8-7.4 3-3.1 4-4.9 3.6-3.8-.6.6-2.6.1-2.8-2.8-1.2-1.5.8-2.4.7-3.5-.2-1.2-1-2-.7-4.6 1.7-2.3 2.1-2.9 2.4-2.4 1 .5-1.5.2-1.7-1.4-1.3-2.3.6-2.4.3-1-2.4.8-1.5.7-1.9-.5-1.9-.8 0-2-.9-2.7-1.9-1-1.6-1.5-1.8-2.7-.8-1 .9-1 .4.3-2.1 2.3-4.5 1.2-5.4-2-1.7-1.8 2.1-2.2 2.4-1.5.8 1.5-3 1.4-3.6-.5-2.9-.8.3-1.3.2-1-.3.8-1.3-2-3.3-4.1-2.9-1 .2-2.2-.2-2.8-.8-.5-.7-4.6-2.4-9-3.9-8.4-2.8-35.7-12.9-46-17-3.3-1.3-10.3-4-15.5-6s-13.8-5.3-19-7.4c-13.3-5.3-12.8-5.2-19.6-5.5l-6-.3zm173.3 31.9c-2.8 3.7-3.2 4.7-1.6 4.7.5 0 1.9-1.8 3-4 2.5-4.9 2-5.1-1.4-.7m56.9 37.8c-.6 3.3-.3 4.5 1.3 6.2 1.2 1.2 3 4.2 4.2 6.7 1.1 2.5 3.5 6.7 5.2 9.4 2.9 4.3 3.3 5.9 3.8 14 .3 5 .8 9.6 1.2 10.2.6.8 2.4.6 6.5-.8 3.2-1 15.3-4.3 26.8-7.3 15.1-3.9 21.5-6 22.6-7.4 1.8-2.2 1.5-11.7-.5-13.8-.6-.6-5.6-2.3-11.1-3.8-18.7-5-56-15.7-57.7-16.6-1.4-.7-1.7-.2-2.3 3.2m104.8 33.4c-4.8 7.2-12.5 13.8-21.6 18.3-7.4 3.7-41.2 16.2-53.5 19.8-9.8 2.9-16.2 2.8-21.7-.5l-3.2-1.9-1.2 8.2c-1.9 13.7-1.7 14.4 3.9 20 5 4.9 5.6 6.9 3.5 11.7-1 2.5 5.4 14.3 12 22.4 3.1 3.8 7.4 9.4 9.5 12.5 3.5 5.2 10.3 17.9 9.8 18.1-1.3.6-9.8.4-11.5-.2-2.8-1-2.7-1.5-.4 7.4 1.1 3.9 3.2 13.7 4.6 21.7s2.8 15.5 3.1 16.7l.4 2.3h166V229.3l-24.3-7.6C466.6 215 418.4 201 417 201c-.3 0-2.4 2.9-4.7 6.5"/><path d="M242.2 222.3c-1.8 1.8-3.2 3.7-3.1 4.2 0 .6 2.1 2.7 4.5 4.9l4.4 3.9v-4.4c0-5.5-1.1-11.9-1.9-11.9-.4 0-2.1 1.5-3.9 3.3"/></svg>