<svg xmlns="http://www.w3.org/2000/svg" width="682.667" height="512" version="1.0" viewBox="0 0 512 384"><path d="M0 192v192h31.5v-13.2c0-7.3.4-18.5.9-24.8 1-14.1.3-17.5-9-39.7-14.3-34.2-18.1-49.5-20.6-83.7-.9-13-.9-20.7 0-35.4 2.4-37.8 7.9-63.5 20.9-98.5L29.2 74l-3.6-4.5c-3.2-3.8-3.5-4.7-2.5-6.8 2.8-6.2 11-5 34.9 5.1 20.6 8.6 32 14.4 35.5 18 3.2 3.2 19.6 10 67.5 27.7 8.5 3.2 17.3 6.4 19.5 7.1s9 3.1 15.1 5.2l11.2 4 2.2-3.1c1.5-2 1.8-2.8.8-2.5-.8.4-2.1.3-2.8-.2-.9-.6-.7-1 .9-1.5 1.2-.4 2-1.2 1.8-1.8-.2-.7.6-3.3 1.9-5.9s2.4-5.1 2.4-5.6-2.3-1.2-5.1-1.4c-3.4-.4-5.5-1.1-6.1-2.2-.5-.9-2.1-1.6-3.6-1.7-1.5 0-3.5-.4-4.6-.8-1.7-.6-1.6-.9.8-2.5 1.8-1.1 2.5-2.3 2.2-3.4-.4-1.3.7-2.4 4.2-4.2 2.6-1.4 11.1-8.8 19.4-16.9 16.9-16.5 15.4-15.3 27.9-22 10.3-5.4 14.8-6.3 19.7-3.8 1.5.8 4.3 2.2 6.2 3.1 1.9 1 6.4 2.5 10 3.2 9.3 2 17.9 6.6 23.9 12.7 5.7 5.8 9.8 15.5 12.1 28.2.6 3.8 1.4 7.8 1.7 8.9.4 1.6.1 1.8-1.9 1.3-1.7-.5-2.5-.2-2.5.7 0 2.1-4.4 8.7-5.4 8-.5-.3-1.2.2-1.5 1.1-.5 1.2-.9 1.3-1.4.4-.6-.9-1.4-.6-3 .9-2.2 2-4.7 1.9-6.2-.2-.4-.6-.8.3-.8 2.1 0 1.7.5 3.5 1 3.8.6.3 1 1.7 1 3.1 0 1.7-.5 2.4-2 2.4-1 0-2.4.8-2.9 1.8s-3.7 4.1-7 7c-5.2 4.6-6.3 5.1-8.1 4.2-1.6-.8-2-.8-2 .4 0 2.1 5.1 5.4 10.8 7.1 4.4 1.3 7 3 15.2 9.4 1.5 1.2 15.4 5.6 35 11 37 10.1 39.5 10.7 40.4 9.2 1.1-1.7 3.4-1.3 5.7 1l2 2 2-2.5c2.4-3.1 4.3-3.3 6.6-.7 1.2 1.5 2.1 1.7 3.5 1 1.3-.7 2.2-.5 3.5.8 1 1 2.4 1.8 3.1 1.9 2.8.2 3.2.5 3.2 2.2 0 3 1.1 3.3 3 .9 1.5-1.8 2-1.9 3.3-.9.8.7 1.8 2.3 2.1 3.5.6 2.5-1.6 1.8 39.6 11.2 11.9 2.7 28.1 6.1 36 7.5 2.5.5 6.5 1.3 9 1.9s5.3 1.1 6.3 1.1c1.6 0 1.7-5.7 1.7-105.5V0H0z"/><path d="M79.6 101.3c-.8 1.7-3.6 8.4-6.4 14.7-6.9 15.9-13.9 35.6-16.2 45.4-6 25.5-9.5 70-7.1 89.1 1.3 10.7 7 33.2 14.6 58 3 9.9 5.5 19.7 5.5 21.9 0 2.6-2.2 9.1-6.6 19.4-5.9 13.7-9.2 25.4-9.4 32.4 0 1.7 2.4 1.8 36.4 1.8h36.4l1.7-2.8c2.9-4.3 20.2-21.7 30-30 5-4.2 20.7-15.3 35-24.7s28.7-19.4 32.1-22.2c3.3-2.8 10.4-10.5 15.8-17.1l9.7-12.1-.7-5c-.6-4.9-.9-5.2-10.3-13-20-16.5-22.6-19.9-21.9-28.6.5-6.3 3.8-13.3 11-23.5 5-7 5.3-7.7 4.4-11.1-1.1-4.6-.3-7.9 3.1-12 2.5-3 2.7-3.9 2.8-12.3 0-6.7.5-10 1.8-12.5.9-1.9 1.7-3.5 1.7-3.7 0-.1-1.2-.6-2.7-1.2-2.5-.8-3.1-.5-5.8 2.9-3.6 4.5-5 4.9-4.2 1.1.7-3.4-.8-6.6-1.9-3.9-.7 1.9-3.9 2.3-5 .6-.4-.7-1.7 0-3.5 1.7-2.4 2.3-2.9 2.5-2.9 1q0-1.8-1.5-1.2c-1.8.7-2-1.5-.3-3.2.9-.9.7-1.2-1-1.2-1.2 0-2.2-.4-2.2-.9 0-.6-.9-.8-2.1-.6-2 .4-2-.2-.2-5.3.8-2-.6-1.4-3.3 1.5-2.4 2.7-2.5 2.7-1.3.3.9-1.8.9-2.5 0-2.8-.6-.2-.9-.7-.6-1.2.5-.8-2.6-2.3-5-2.4-.5-.1-3.5-1.1-6.5-2.3s-13.1-4.9-22.5-8.3c-9.3-3.5-30.3-11.4-46.5-17.8-25.3-9.8-30.5-11.5-36.2-11.8L81 98zm171.5 37.6c-3.4 4.3-3.7 5.1-1.8 5.1.7 0 2.2-2 3.4-4.5 1.1-2.5 1.9-4.5 1.8-4.5-.2 0-1.7 1.8-3.4 3.9m57.3 37.7c-.5 1.9-.2 3.6.9 5.3.9 1.4 2.4 4.1 3.2 6 .9 1.8 3.2 5.6 5 8.3 4.4 6.3 5.9 11.8 5.1 18.9-.4 4-.1 6.2.9 7.5 1.3 1.9 1.5 1.9 8.2-.4 3.7-1.2 13.8-4 22.3-6.2s17.4-4.5 19.7-5.1c6.4-1.7 7.4-3.3 6.5-10.9l-.7-6.4-9.5-2.7c-12.9-3.6-57.1-16.1-59.2-16.6-1.2-.4-1.9.3-2.4 2.3M416 204.9c0 .5-2.1 3.6-4.6 7-6.4 8.6-15.8 15.2-28.4 20.2-15.7 6.2-42.7 15.8-49.5 17.5-6.4 1.7-13 1.2-17.6-1.2l-2.6-1.3-1.2 5.6c-.6 3.1-1.1 7.9-1.1 10.6 0 4.6.4 5.4 4.9 10.2 3.8 4 4.8 5.7 4.6 7.9-.2 1.6-.8 3.3-1.4 3.9-1.6 1.6 5.9 15 13.7 24.4 7.2 8.7 17.5 25.6 17 28.1-.4 1.8-4 2.2-8.6 1-1.9-.5-3.6-.8-3.8-.6-.2.3.5 3.7 1.7 7.8 2.6 9.6 6.9 31.2 6.9 35v3h166V232.1l-17.2-5.5c-34.6-10.9-74.5-22.6-77.5-22.6-.7 0-1.3.4-1.3.9"/><path d="M242.7 223.8c-2 2.1-3.7 4-3.7 4.3s2.3 2.5 5.2 4.9l5.1 4.4-.6-7.9c-.4-4.4-1.1-8.3-1.5-8.7s-2.5.9-4.5 3"/></svg>