<svg xmlns="http://www.w3.org/2000/svg" width="682.667" height="512" version="1.0" viewBox="0 0 512 384"><path d="M0 192v192h32l-.6-7.3c-.4-4-.1-12 .5-17.7 2.5-21.3 1.8-25.1-9.1-51.3-3.9-9.5-8.1-20.4-9.4-24.3C1.9 248.4-.7 207.8 5.6 160c2.7-21.1 9.2-45.2 19.6-73.3l4-10.7-3.6-4c-4.1-4.6-4.2-4.8-2.1-7.7 3.8-5.4 11.8-3.7 38.4 7.7 20 8.5 28.1 12.7 31.6 16.4 2 2.1 6.3 4.4 13 7 5.5 2.1 17 6.5 25.5 9.8 26.4 10.1 72.9 26.8 74.7 26.8.5 0 2-1.1 3.3-2.5l2.3-2.5h-2.2c-1.3 0-2.1-.3-1.9-.8.2-.4 2-3.9 4-7.8l3.7-7.2-3.1-.6c-1.7-.3-4.9-.6-7.2-.7-3.3-.1-3.6-.2-1.6-.8 3.3-.9 1.7-1.7-5.2-2.5-5.3-.7-5.7-.9-4.5-2.7.6-1 1.7-1.9 2.4-1.9s1.3-.8 1.3-1.8c0-1.1 2.1-3.2 5.2-5.3 2.9-1.8 12.1-9.9 20.3-17.9C236.3 64.7 240 61.7 248 57.4c12.3-6.6 14.7-7.2 20.8-4.4 2.6 1.2 6.1 2.7 7.7 3.5 1.7.7 5.7 1.8 9 2.4 8.9 1.6 19.5 7.2 24.7 13 5.1 5.7 8.9 15 11.2 27.1.9 4.7 1.9 9.3 2.2 10.2q.45 1.8-.9 1.8c-.8 0-1.8-.8-2.2-1.8-.5-1.3-1.2-.4-2.7 3.5-1 2.9-2.6 5.3-3.3 5.3-.8 0-2 1-2.6 2.2-.8 1.4-1.4 1.8-1.6 1.1-.4-1-1.1-.9-3.3.2-1.6.8-3.6 1.2-4.4.9-1.2-.5-1.6 0-1.6 1.9 0 1.4.5 2.9 1 3.2 1.6 1 1.2 3.5-.7 4.2-1 .4-3.6 2.4-5.8 4.5-2.2 2.2-5.4 5.3-7.1 7-2.3 2.3-3.7 2.9-5.3 2.3-1.1-.3-2.1-.2-2.1.3 0 1.9 5 5.3 10.8 7.3 4 1.3 7.9 3.6 11.1 6.5 5.3 4.7 5.9 5 32.6 12.3 41.3 11.3 44.8 12.2 45.8 11.2 1.7-1.7 4.2-1.3 6.1.8 1.8 1.9 1.8 1.9 4-.6 1.8-2.1 2.8-2.5 4.9-1.9 1.5.3 2.7 1.3 2.7 2.2 0 1.2.4 1.3 2.2.3s2.4-.8 3.7.7c.9 1.1 2.4 1.8 3.4 1.6 1.2-.2 2.2.7 3.1 2.9 1.3 3 1.4 3.1 2 1.1 1.1-3.3 4.5-2.8 5.9.8.6 1.7 1.8 3.2 2.7 3.5 4.8 1.4 53.2 12.1 70.5 15.6 8.3 1.6 16 3.3 17.3 3.6l2.2.5V0H0z"/><path d="M77.3 108.7c-4.7 10.1-14 33.8-17.1 43.3-6.8 20.9-11.9 63.3-10.9 90 .7 16 3.7 31 11.7 57 2.2 7.4 5.2 17.1 6.5 21.5 3.8 12.3 3.4 15.1-3.6 31.7-6.8 15.6-8.9 22.3-8.9 28v3.8h71.6l6.2-7.4c14-16.7 33.3-32 61.7-49.1 13.5-8.1 26.7-17.1 32.4-22 8.7-7.5 25.2-27.6 24.6-30-.2-1.1-.5-3.2-.5-4.7 0-2.3-2.4-4.7-14.4-14.8-18.6-15.4-20.6-19-17.1-30.6.8-2.8 4.6-9.7 8.3-15.5 6.8-10.3 6.9-10.5 6.5-15.9-.5-5.1-.2-5.9 3-10.1 3.3-4.4 3.4-4.7 2.4-9.6-.9-4.4-.7-6 1.2-11.9 1.7-5.4 1.9-6.9.9-7.5-2.3-1.5-3.2-1-7.1 3.3l-3.8 4.3.2-3c.2-5.7.1-6-2.1-4-1.6 1.5-2.2 1.5-3.5.5-1.5-1.2-3.4-.4-5.8 2.5-.6.6-1 .6-1.4-.3-.2-.6-1.1-1.2-1.9-1.2-1.7 0-1.7-.5-.4-3 .8-1.5.6-1.7-1-1.3-1.2.3-2 0-2-.7 0-1-.3-1-1.4-.1-2 1.7-2.9-.2-1.5-3.3 1.8-3.8.2-4.5-2.7-1.1-1.8 2.2-2.2 2.4-1.4.8 1.3-2.8-1.3-6.3-4.7-6.3-1.2 0-2.4-.4-2.8-.9-.3-.5-4.2-2.2-8.8-3.7-4.5-1.5-16.5-5.8-26.7-9.6-20.2-7.5-21.9-8.2-49-18.9-12.4-4.9-20-7.3-23-7.4-2.5-.1-5.7-.5-7.1-.9-2.4-.7-2.7-.3-6.6 8.1m174.4 32.8c-2.7 3.5-3.4 5.5-1.8 5.5.9 0 5.5-8 4.9-8.6-.2-.2-1.6 1.2-3.1 3.1m58 36.2c-1.5 1.4-.6 7 1.3 8.8 1.1 1 2 2.3 2 3 0 .6 2 4.2 4.5 7.9 5.5 8.4 6.9 13.3 6.1 21.1-.9 9-.4 9.3 9.6 6.2 4.5-1.4 16.4-4.7 26.3-7.3 9.9-2.5 18.8-5.4 19.8-6.2 1.6-1.4 1.7-2.6 1.1-8.2-.3-3.6-.7-6.6-.9-6.8-.1-.1-13.2-3.8-29-8.2-15.9-4.4-31.2-8.7-33.9-9.5-5.7-1.7-6-1.7-6.9-.8m103.1 35.4c-5.7 7.6-14.9 15.5-22.1 18.7-5.6 2.6-12.6 5.3-34.2 13.1-27.2 9.9-30.7 10.6-38.2 7.1-4.2-1.9-4.3-1.9-4.3 0 0 1-.4 2.2-1 2.5-.5.3-1 4.3-1 8.9v8.2l4.5 4.4c4.6 4.5 6 9.1 3.4 11.7-1.7 1.7 4.8 13.5 13 23.6 7.4 9.2 18.1 26.4 18.1 29.1 0 1.2-1 1.6-4.3 1.6-2.4 0-4.8-.5-5.4-1.1-2.5-2.5-2.2 1.7 1.1 15.3 1.9 7.9 4.1 17.3 4.7 21.1l1.2 6.7H512V234.3l-33.2-10.1c-18.3-5.6-39.5-11.9-47.1-14l-13.8-3.9z"/><path d="M243.7 225.9c-2 2.2-3.7 4.4-3.7 4.9s1.9 2.6 4.1 4.7c5.1 4.5 6.2 3.5 5.3-4.5-1.1-9.3-1.4-9.6-5.7-5.1"/></svg>