<svg xmlns="http://www.w3.org/2000/svg" width="682.667" height="512" version="1.0" viewBox="0 0 512 384"><path d="M0 192v192h32v-9.8c0-5.3.5-14.3 1.2-20 1.4-12.5.5-18.1-5.2-32.2-2.1-5.2-6.1-15-8.8-21.6-10.6-26-15-47-16.7-79.9-.8-13.6.6-39.2 3-57.5 2.8-21.4 8.7-44 18.5-70.9l4.9-13.4-3.5-4.3c-3.9-4.7-3.9-7.5-.2-9.5 5.1-2.7 12.5-.8 36.3 9.4 19.5 8.3 28.6 13 32.1 16.6 3 3.1 10.9 6.4 51.4 21.6 20.4 7.7 62 22.5 63.1 22.5.6 0 1.9-1 2.9-2.3 1.8-2.1 1.8-2.2-.2-2.7s-2-.7-.5-2.2c1-.9 1.7-2.2 1.7-2.8s.9-2.8 2-5c2.8-5.4 2.6-6-2-6-2.9 0-4.3-.5-5.2-2-1-1.5-2.4-2-6-2s-4.8-.4-4.8-1.5c0-.8-.5-1.5-1.2-1.5-.6 0 0-1 1.3-2.3s2.7-2.2 3.2-2c.4.2.7 0 .7-.5 0-.4 3.5-3.6 7.8-7s11.3-10 15.6-14.7c9.4-10.3 16.3-15.7 27.9-21.8 9.4-5 13.8-5.8 18.5-3.4 6.6 3.4 10 4.7 13.7 5.2 22 3.5 33.4 15.5 38.4 40.6 2.5 12.9 2.5 12.2.1 10.9-1.8-.9-2.2-.6-3.6 3-1.6 3.8-6.5 8.6-7.7 7.4-.3-.3-1.5.1-2.7.9s-3 1.3-4.1 1c-2.7-.7-3.5 2.2-1.5 5.2 1.7 2.6 1.4 4.5-.6 4.5-.6 0-2.8 1.7-4.8 3.7-7.6 7.8-11.1 10.5-13.1 10-2.4-.6-2.5 1.4-.1 3.6.9.9 5.1 3 9.1 4.6 4.5 1.8 9.1 4.6 11.5 6.9 3.9 3.8 5.4 4.3 27.6 10.6 42.9 12 47.9 13.1 50.2 11.7 1.8-1.1 2.5-1 4.9.8l2.9 2.2 2.3-2.7c2-2.3 2.6-2.5 4.5-1.5 1.2.6 2.2 1.6 2.2 2.1s1.4.7 3.2.3c2.1-.4 3.5-.2 4.2.8.6.8 1.8 1.4 2.6 1.4s2.1 1.3 2.8 2.8c1.4 2.9 1.4 2.9 2.9.8 1.1-1.7 1.8-1.9 3.3-1.1 1 .5 2 2 2.2 3.2.4 2.6-.5 2.4 39.3 11.2 35.1 7.8 48.5 10.6 50.8 10.6 1.6 0 1.7-6.6 1.7-108V0H0z"/><path d="M81.2 103.3c-1.5 1.7-12.1 26.8-17.1 40.6-7.3 19.9-12.1 44.9-14.3 75.1-2.2 30.9.2 46.2 14.4 92 7.8 25 7.9 26.6.9 41.8-4.9 10.8-8.3 20.9-9.5 27.9l-.5 3.3h72.3l10.5-10.8c16.9-17.2 28.8-26.1 61.5-46.2 24.6-15 32.7-22 46.9-39.8 5.5-6.8 6.5-8.7 5.7-10.2-.5-1-.7-2.5-.4-3.4.9-2.3-.4-3.8-10.1-11.7-13.6-11-21.1-18.8-22.3-23-2-7.5 1.3-16.4 11.1-30 3.8-5.3 5.2-8.1 4.6-9-2.3-3.7-.3-11.4 3.9-15.2 1.8-1.7 2-2.7 1.5-9.3-.5-5.6-.2-8.4 1.1-11.9 1-2.4 1.5-4.9 1.2-5.4-1.2-2-4.4-.6-6.1 2.6-2.8 5.1-4 4.4-3.5-2.2l.2-3-2.2 2c-1.7 1.5-2.5 1.7-3.9.8-1.5-1-2.3-.7-4.2 1.3-1.5 1.6-2.5 2.1-3 1.3-.4-.7-1.4-.9-2.3-.6-1.9.8-2.2-1.3-.4-3.1.9-.9.8-1.2-.5-1.2-.9 0-1.7-.5-1.7-1.1 0-.8-.5-.7-1.5.1-1.3 1.1-1.4 1-.8-.6.6-1.7.5-1.8-1.3-.4-1.7 1.3-1.8 1.3-.8 0 1.6-2.2 2.4-5.9 1.3-6.6-.5-.3-.9-.2-.9.3 0 .4-1 1.9-2.1 3.3-1.8 2.3-1.9 2.3-.9.2.7-1.5.7-2.2 0-2.2-.5 0-1-.6-1-1.4s-1-1.7-2.2-2.1c-1.3-.3-3.2-1-4.3-1.5s-11.4-4.4-23-8.5c-23-8.4-31.7-11.7-62.5-23.8-12.5-4.9-22.1-8.1-24.5-8.2-2.2 0-4.9-.4-6.1-.8-1.3-.5-2.5-.3-3.2.6M252.7 144c-1.5 2.4-2.5 4.5-2.1 4.9.4.3.9 0 1.2-.8.2-.7 1.3-2.2 2.4-3.3s1.8-2.6 1.6-3.5c-.2-1-1.3 0-3.1 2.7m25.3 1.9c0 .5.5 1.3 1 1.6.6.3 1 .2 1-.4 0-.5-.4-1.3-1-1.6-.5-.3-1-.2-1 .4m32.7 33.7c-2.3 2.4 1.8 13.2 7.9 20.6 3.7 4.6 6.7 13.7 6.1 18.8-.3 2.5-.8 5.2-1.1 6s0 2.3.7 3.2c1.2 1.5 1.7 1.6 5.4.3 4-1.4 9.3-2.8 29.3-8.1 23.3-6.1 23.2-6.1 22.4-13.2-1-9.1-.3-8.5-12.1-11.6-12.4-3.3-54.1-15.2-56.4-16.1-.8-.3-1.8-.2-2.2.1m104.8 33.1c-1.1 2.1-5 6.8-8.6 10.5-5.2 5.2-8.7 7.6-16 11.1-10.9 5.2-47.1 18.6-57.5 21.3-7.1 1.8-7.2 1.8-12.8-.3l-5.6-2.1-1.2 2.2c-.6 1.1-1.2 5.6-1.2 9.9l-.1 7.8 4.8 5c4.9 5 5.8 8.2 3.6 11.8-1.7 2.6 4.7 14.4 13.3 24.6 6.6 7.8 16.9 24.8 17.2 28.3.1 1.3-.7 1.7-3.9 1.8-2.2 0-4.5-.3-5.2-.8-1.9-1.5-2.3.6-.8 4.8.7 2.1 3.1 11 5.2 19.6l3.8 15.8H512V237.2l-3.2-1.2c-16.6-5.8-87.5-27-90.6-27-.4 0-1.6 1.7-2.7 3.7"/><path d="m243.8 228.4-3.7 4.3 5 4.9 4.9 4.8v-4.5c0-5.9-1.1-13.9-1.9-13.9-.3.1-2.3 2-4.3 4.4"/></svg>