<svg xmlns="http://www.w3.org/2000/svg" width="682.667" height="512" version="1.0" viewBox="0 0 512 384"><path d="M0 192v192h32.7l.8-12.8c1.9-27 1.2-31.4-8.7-54.2-15.1-34.6-20.3-57.5-21.5-94.5-1.4-44.6 4.8-81.7 21.3-126.7L29.3 83l-3.6-4c-3-3.2-3.5-4.4-2.8-6.2 1.2-3.4 4.9-5 10.2-4.4 4 .4 22.5 7.2 34.9 12.8 17.1 7.8 21.1 10 25.8 14.1 2.9 2.6 5.7 4.7 6.2 4.7.6 0 9.9 3.4 20.7 7.6 10.9 4.1 22 8.4 24.8 9.4 2.7 1 14.2 5.2 25.5 9.3 18.2 6.7 41.5 14.7 42.5 14.7.3 0 .9-1 1.6-2.1 1-2 .9-2.1-1.7-1.5l-2.9.8 2.6-2.9c1.4-1.5 3.1-4.6 3.8-6.8s1.5-4.6 1.7-5.3c.4-.9-.9-1.2-4.8-1.2-4.8-.1-5.1-.2-3.4-1.5s1.6-1.4-1.5-1.9c-1.9-.3-5.1-.7-7.3-.8l-3.8-.3 2.5-2.8c2.3-2.3 2.1-3.2-.5-2.8-.4 0-.5-.6-.2-1.4.4-.8 1.2-1.5 1.9-1.5 2 0 6.2-3.6 16.5-14.5 18.5-19.4 25.7-26.2 30.6-28.6 2.7-1.4 6.1-3.3 7.5-4.2 5-3.3 8.7-3.8 13.2-1.8 5 2.2 10.1 3.6 18 5.1 7.8 1.5 18.3 7 23.4 12.2 2.3 2.4 5.3 7.1 6.8 10.7 2.6 6.3 7.7 27.2 6.9 28.1-.3.2-1.3-.1-2.3-.7-1.6-1-2-.8-2.5 1.9-.7 3.4-6.3 9.1-8.2 8.4-.7-.3-1.8.2-2.5 1-.9 1.1-2.2 1.4-4.1 1-2.4-.5-2.8-.2-2.8 1.7 0 1.2.7 3.3 1.6 4.6 1.4 1.9 1.4 2.5.3 3.2-.8.5-2 .9-2.7.9s-1.8 1.1-2.4 2.5-1.5 2.5-1.9 2.5-2.8 2.1-5.4 4.6c-3.8 3.7-5.2 4.4-7.2 3.9-2.1-.5-2.3-.4-1.4 1.4 1.3 2.3 6.4 6.1 8.3 6.1 3 0 13.8 6 15.9 8.9 2.4 3.3 5.3 4.3 29.4 11 40.1 10.9 45.7 12.3 46.8 11.2 1.7-1.7 4.2-1.3 6.2.9 1.7 1.9 1.8 1.9 3.7-.5 2.3-3 5.2-3.2 7-.6 1 1.4 1.8 1.7 2.8 1 2.4-1.4 3.8-1.1 4.5 1.2.5 1.5 1 1.7 1.9 1 1.5-1.3 4.1 1.1 4.9 4.4.5 1.9.5 1.9 1.2-.2 1.2-3.8 6.5-2.3 6.5 1.9 0 1.8 1.1 2.2 14.5 5.3 19 4.4 30.9 7 52.3 11.5l23.2 4.8V0H0z"/><path d="M81.4 107.9c-1.2 1.2-10.3 23.3-16.4 39.7-8.6 23.3-13.7 53-14.7 84.9-.8 27.3 1.1 38.4 14.2 81.6 4.1 13.5 7.5 25.9 7.5 27.5s-1.6 6.7-3.6 11.4c-7.3 17.3-10.3 25.6-10.4 28.2v2.8h78l12.2-10.3c13.6-11.3 21.1-17 39.8-30.2 25.2-17.8 33.6-23.9 38.9-28.4 7.4-6.2 27.3-31.1 26.5-33.1-.3-.8-.8-3.1-1.1-5-.5-3-1.9-4.6-9.7-10.7-23.3-18.5-26.6-24.4-21.3-37.3 2.3-5.5 9.2-16.5 13-20.7 1.8-2 1.9-2.7.8-6-1.4-4.4-.5-7.7 3.4-12.9 2.2-2.8 2.3-3.8 1.8-10.1-.5-5.7-.2-7.8 1.6-11.9l2.1-4.9-2.5 3c-1.4 1.6-2.5 3.4-2.5 4 0 .5-.4.3-.9-.5-.6-.8-.7-2.7-.4-4.2.6-3.3-.7-3.7-2.5-.7-1.1 1.7-1.6 1.8-2.8.8s-1.9-.8-3.9 1.1c-1.9 1.7-2.8 2.1-3.6 1.3-.6-.6-1.7-.9-2.5-.6s-1.5-.7-2-3.2c-.6-3.5-.7-3.6-3.1-2-2.3 1.6-2.4 1.6-1.4-.3.6-1.1.8-2.2.4-2.5-.3-.4 0-1.3.6-2.1.7-.9.8-1.7.2-2-.5-.3-1.9 1-3.1 2.9-2.3 3.7-3.8 4.9-2 1.6 1.3-2.5 1.3-3.4-.1-2.5-.7.4-.7-.1.1-1.6 1.5-2.8-.3-4.3-4-3.4-1.4.3-2.2.2-1.7-.2.9-.9-2.5-2.4-16.8-7.4-17.8-6.1-59.7-22-88.5-33.5-6.1-2.4-18.2-4-19.6-2.6M306 125.1c0 .5.5.7 1 .4.6-.3 1-.8 1-1.1 0-.2-.4-.4-1-.4-.5 0-1 .5-1 1.1m-27 24.8c0 .5.5 1.3 1 1.6.6.3 1 .2 1-.4 0-.5-.4-1.3-1-1.6-.5-.3-1-.2-1 .4m32.7 34.7c-1.5 1.5-.6 6 1.8 9.6 1.4 2 2.5 4.1 2.5 4.5s1.6 2.7 3.5 5.1c5.3 6.7 6.9 12 6.2 20.4-.7 8 .4 11.4 3.1 9.9 1.6-.9 20.8-6.2 42-11.7 5.3-1.4 10.3-3.1 11.1-3.9 2-1.9.6-15.2-1.7-15.9-1-.3-8.7-2.4-17.2-4.7s-22.5-6.2-31-8.7c-19-5.4-19.3-5.5-20.3-4.6M414.6 221c-8.6 12.3-16.4 17-46.4 27.9-31.8 11.6-34.8 12.4-41.2 11.8-3.1-.2-7-1.2-8.7-2.1l-3.1-1.5-.6 3.1c-.3 1.7-.6 6.6-.6 10.9 0 6.9.3 8 2.3 9.6 5.8 4.7 8.4 11.2 5.6 14-1.6 1.6 5.8 15.2 12.2 22.7 9 10.5 19.3 27.2 18.7 30.3-.3 1.5-1.2 1.8-5.2 1.6-3.8-.2-4.7 0-4.3 1.1 1.8 4.6 8.7 27.1 9.3 30.1l.6 3.5H512l-.2-71.7-.3-71.7-7-2.2c-3.8-1.2-12.2-3.9-18.5-5.9-17.7-5.6-63-18.5-64.8-18.5-1 0-3.9 3.2-6.6 7"/><path d="m244.2 232.3-4.3 4.4 5 4.6c2.8 2.6 5.3 4.7 5.7 4.7.9 0-.4-16.2-1.4-17.2-.4-.4-2.7 1.2-5 3.5"/></svg>