<svg xmlns="http://www.w3.org/2000/svg" width="682.667" height="512" version="1.0" viewBox="0 0 512 384"><path d="M0 192v192h33.6l1.2-10.8c2.5-22.4 1.5-28-9.3-53.2-15.6-36.5-20-56.1-21.2-95-1.2-42.4 3.9-75.9 17.8-116.8 3.4-9.7 6.5-18.4 6.9-19.2.5-.9-.3-2.8-2.6-5.6-1.9-2.2-3.4-5-3.4-6.2 0-2.8 3.7-5.2 8.1-5.2 8.8 0 57.9 20.9 63.4 27 1.1 1.2 2.8 2.6 3.8 3.2 6.7 3.5 86.1 32.6 116.9 42.8 1.7.5 3 .5 3.3-.1.7-1 0-1.2-3-.9-1.8.2-1.7-.2.8-2.8 1.6-1.6 3.3-4.7 3.8-6.8 1.5-6.6 1.5-6.6-4.8-5.9-5.4.6-5.7.5-3.9-.9 1.8-1.5 1.4-1.6-5.5-1.6-7.4-.1-7.4-.1-5.1-2 2-1.7 2.1-1.9.5-2.3-1.4-.4-1.3-.5.4-.6 2.9-.1 4-2.1 1.2-2.1-2 0-1.8-.4 1.7-3.5 2.1-1.9 4.2-3.5 4.6-3.5s7.2-7.8 15.1-17.3c16.6-19.9 20.9-23.6 35.6-30.8 4-2 4.6-2 8-.6 4.1 1.8 10 3.2 18.6 4.7 7.1 1.2 18.7 6.7 23.3 11 6 5.8 10.7 17.6 14.7 36.7.7 3.6-.7 4.5-2.4 1.5-.9-1.6-1-1.6-1.6.3-2 6-3 7.7-5.6 9.6-1.6 1.1-2.9 1.5-2.9.9s-1.5.1-3.4 1.5c-2.5 1.9-3.5 2.2-3.9 1.3-.4-1.1-.7-1.1-1.8 0-1.1 1-1 1.8.6 4.8s1.7 3.7.4 4.5c-.7.5-1.9.9-2.5.9s-1.6 1.1-2.2 2.4c-.6 1.4-2.4 3.3-3.9 4.3s-3.9 3.1-5.2 4.6c-1.8 2.2-3 2.7-4.7 2.3-1.3-.4-2.4-.2-2.4.3 0 2.1 7.4 6.9 13 8.4 4.5 1.3 7.2 2.9 11.7 7l5.8 5.3 32.5 8.8c17.9 4.8 33.8 9.1 35.3 9.7 2.2.6 3.3.5 4.4-.6 1.9-1.9 2.6-1.9 5.4.4 2.3 1.9 2.4 1.9 4.6-.5 2.3-2.5 4.8-2.4 6.9.5 1 1.3 1.4 1.3 2.8.2 1.4-1.2 1.9-1.1 3.4.3 1 .9 2.5 1.6 3.3 1.6 2 0 3.9 2 3.9 4.2 0 2.4 1.6 2.3 2.3-.2.9-3.7 5-2 5.8 2.4.3 1.2 1.6 2.3 3.4 2.8 5.1 1.5 46 10.5 65.8 14.6l18.7 3.9V0H0z"/><path d="M82.2 111.3c-2.9 3.7-19.3 46.2-22.1 57.3-5 19.8-9.1 53-9.1 74.5 0 23.2 2.3 34.7 15.7 77.8 8.7 28.1 8.7 24.1-.2 45.1-3 6.9-5.7 13.7-6 15.2l-.7 2.8h91.1l6.8-4.7c3.7-2.5 12.3-9.2 19.1-14.7 6.8-5.6 14-11.5 16-13.1 13.1-10.4 36.3-30.9 39.3-34.6 2-2.4 7.8-10 13-16.9l9.4-12.5-1-5.2c-.8-4.2-1.7-5.7-5.1-8.5-15.7-12.6-25-21.3-27-25-1.9-3.7-1.8-10.8.5-16.7 1-2.6 4.7-9.1 8.3-14.4 4.4-6.5 6.3-9.9 5.7-10.9-1.8-2.8-1-9 1.8-12.7 2.5-3.2 2.7-4.3 2.8-13.1.1-5.2.5-10.6.9-12l.8-2.5-2 2.4c-1.8 2.2-2 2.3-2.9.7s-1.2-1.5-3.6 1.3c-2.9 3.5-3.7 3.8-3.7 1.6 0-1.7-1.6-2-2.5-.5-.4.6-1.1.8-1.6.4-.5-.3-.7-.9-.4-1.4s.1-1.9-.6-3.1c-.9-1.7-1.3-1.9-2-.8-1.5 2.5-3.1-.4-2-3.4 1.3-3.3-.2-3.6-2.3-.5-1.4 1.9-1.6 2-2.2.4-.4-1-.2-2.2.5-2.9 2.8-2.8-.9-5.9-3.9-3.2-2.2 2-2.7 1.9-2.6-.6.1-1.9-2.1-3-18.9-8.9-22.1-7.8-55.8-20.4-80.2-30-11.1-4.4-18.1-6.6-19.7-6.3-1.4.3-3.9.1-5.5-.5-2.2-.8-3.2-.7-3.9.1M280 153.5c0 .8.4 1.5 1 1.5.5 0 .7-.7.4-1.5-.4-.8-.8-1.5-1-1.5s-.4.7-.4 1.5m33.7 34.1c-2.4 2.5.8 10.9 7.5 19.6 4.7 6.1 6 10.4 5.7 18.7-.3 7.5.5 12.1 2 12.1.5 0 2.8-.7 5.2-1.5 2.4-.9 14.1-4.1 25.9-7.2 11.8-3 22.3-5.9 23.3-6.4 1.8-1 2.1-4.4 1.1-12.1l-.6-4.4-9.2-2.3c-10.1-2.6-56.2-15.6-58.7-16.6-.8-.3-1.8-.2-2.2.1m105.4 33.6c-5.6 9.8-16.5 18.7-28.9 23.8-8.7 3.5-38.1 14.1-47.8 17.1-8.9 2.9-15.7 2.9-20.9.2l-4.1-2.1-1.6 4.1c-.9 2.5-1.5 6.8-1.4 10.3.1 5.9.3 6.4 4.9 11.2 3.7 4 4.7 5.8 4.7 8.5 0 1.8-.5 3.8-1 4.3-1.7 1.7 5 13.7 12.4 22.6 9.7 11.7 19.3 27.6 18.3 30.3-.7 1.6-4.8 2.4-7.7 1.3-1.7-.6-2.1-.5-1.7.6.5 1.3 1.8 5.4 8.1 26.1l1.3 4 79.1.3 79.2.2V243.3l-21.2-6.6c-21.9-6.8-66.8-19.7-68.4-19.7-.5 0-2 1.9-3.3 4.2"/><path d="m244.8 235.4-3.7 4.3 5.4 5.3 5.4 5.3-.4-7.9c-.3-7.7-1.1-11.4-2.4-11.4-.3.1-2.3 2-4.3 4.4"/></svg>