<svg xmlns="http://www.w3.org/2000/svg" width="682.667" height="512" version="1.0" viewBox="0 0 512 384"><path d="M0 192v192h37.8l1.2-10.3c1.9-15 .4-21.4-11.4-49-13.4-31.5-16.9-43.8-20.1-71.3-1.8-15.1-2-52.8-.4-67.2 2.9-26.8 8.2-50.6 17.4-77 3-8.6 5.5-16 5.5-16.3 0-.4-1.6-2.4-3.5-4.5-1.9-2.2-3.5-4.3-3.5-4.7 0-2.3 2.4-4.8 5.9-5.8 3.4-1 4.9-.8 12.2 1.6C51 82.8 77.5 93.7 86 98c3.3 1.7 7.7 4.6 9.8 6.4 2.7 2.4 8.9 5.2 23.2 10.6 36.1 13.4 95.1 34 97.6 34 1.9 0 3.1-2.6 3.9-8.9.7-4.9.6-5.3-1.1-4.8-1.1.3-4.1.9-6.9 1.2-4.6.5-4.8.5-2.6-.8 3.2-1.9.7-2.8-4.5-1.6-6.1 1.4-7.2 1.1-4.5-1.1l2.3-2h-2.3c-2 0-1.7-.4 1.6-2 3.4-1.7 3.6-2 1.3-1.7-2.3.4-2.6.2-1.7-1.4.5-1 1.8-2.4 2.9-3.2 2.7-1.9 8.4-9.3 17.9-23.2 4.5-6.6 10.2-14.1 12.6-16.7 5-5.3 13.8-11.7 20.4-14.9 4.1-2 4.5-2 8.5-.5 2.2.9 8.5 2 13.8 2.6 9.4.9 16.4 2.8 22.1 5.7 8.3 4.2 15.6 14.7 19.6 28.3 1.3 4.1 2.8 9.1 3.5 11.1 1.2 3.4 1.2 3.6-.5 3.2-1.1-.3-1.9-1-1.9-1.5s-.5-.6-1-.3c-.6.4-1 1.4-.8 2.3.5 3.4-6.4 12.3-7.8 10-.4-.5-.9-.6-1.3-.2-1.1 1.6-5.5 4.9-4.7 3.6.5-.8 0-1.2-1.3-1.2-2.7 0-2.8 3-.2 6.1 1.9 2.4 1.9 2.4-1.2 5.5-1.8 1.7-5.8 5.8-9 9.2-3.9 4.2-6.2 5.9-7.3 5.5-1.2-.4-1.5-.1-1.2 1.3.4 2.1 6 6.2 9.7 7 6.9 1.4 11.9 4.1 16.5 8.7 5.6 5.7 2.8 4.7 45.1 15.6 20.2 5.3 31.3 7.7 31.9 7.1 1.5-1.5 4.7-1.2 6.8.7 1.8 1.6 2 1.5 4.4-1 1.4-1.5 2.8-2.7 3.2-2.7 1.6.1 4.4 2.9 3.7 3.9-.3.6-.2 1.1.4 1.1.5 0 1.3-.5 1.6-1 1-1.6 4.5-1.2 5.2.6.3.8 1.2 1.3 2.1.9 2-.7 4.2 1.3 4.2 3.9.1 2 .1 2 1.5.3 1.8-2.4 5.9-1.9 6.3.8.2 1.1.7 2.3 1.1 2.7 1 1.1 78.3 17.8 82.3 17.8.5 0 .8-50.6.8-112.5V0H0z"/><path d="M78.1 128.5C64.3 162 60.5 175 57.1 200c-2.7 19.6-2.9 22.5-3.6 37.5-1.3 27.6 1.8 44.7 15.9 88.5 4.2 12.9 7.6 24.8 7.6 26.4s-2.5 9.1-5.5 16.7c-3 7.5-5.5 14-5.5 14.3s25.2.6 56 .6h55.9l6.8-5.9c3.8-3.2 10.4-9.8 14.8-14.6 4.4-4.9 8.8-9.6 9.7-10.6 9.7-10.2 25-29.2 33.1-41.4 5.5-8.3 10.9-16 11.9-17.2 1.7-1.8 1.9-2.7 1-5.2-.6-1.6-.8-3.8-.5-4.9.3-1.5-2.5-4.3-12.9-12.9-15.7-13-19.3-16.9-20.8-22.2-1.9-7.3.3-13.6 10.2-28.5 4.2-6.3 5.6-9.2 4.9-9.9-2.2-2.2-1.3-9.1 1.7-12.6 2.8-3.4 2.8-3.4 1.5-9.5-.8-4.2-.9-7.2-.3-9.6 1.6-5.6 1.3-6.6-1-4.5-1.1 1-2.2 2.7-2.6 3.9-.7 2-.7 2-1.6-.3l-.8-2.4-2.5 2.3c-2.2 2.1-2.3 2.1-1.8.2.2-1.1 0-2.3-.6-2.6-.5-.4-.8-1.4-.5-2.4.4-1.2-.1-1-1.5.7-2.7 3-3.7 2.1-2.2-2 1.5-4.3.5-5-2.5-1.6-2.4 2.8-2.4 2.8-2.4.5 0-1.3.4-2.8.9-3.4 2-2.1 2.2-5.2.4-5.8-1.2-.5-2.7.4-5.1 3.1-2 2.3-3.1 3-2.6 1.8 2.5-7.1 3.3-6.4-17.3-13.4-10.3-3.5-26.7-9.3-36.3-12.8-9.6-3.6-20.4-7.5-24-8.8s-13.7-5.1-22.5-8.5c-12.7-4.8-17.4-6.2-22.7-6.4l-6.7-.3zm132.9-7.4c-2.2 1.8-2.2 1.9-.3 1 1.2-.6 2.5-1.6 2.8-2.1.9-1.5.3-1.2-2.5 1.1m12.6 15.4c-.9 2.6-.7 3.2.5 1.2.6-1 .9-2.1.6-2.3-.2-.3-.7.2-1.1 1.1m57.4 19.9c0 .9.5 1.6 1 1.6.6 0 1-.4 1-.9 0-.6-.4-1.3-1-1.6-.5-.3-1 .1-1 .9m34.7 37.3c-.5 2.9 3.3 10.9 8.7 18.2 3.8 5.2 5.9 12.5 5.3 18.5-.3 3.2 0 6.3.8 8.3l1.4 3.2 4.2-1.7c2.3-.9 15.1-4.4 28.3-7.7l24.1-6-.1-7.8c-.1-4.3-.4-8-.6-8.3-.3-.3-10.6-3.2-22.9-6.5s-28.1-7.5-35-9.4c-7-1.9-12.9-3.5-13.1-3.5-.3 0-.8 1.2-1.1 2.7m107.2 31.5c-4.3 7.1-13.5 15.8-20.6 19.5-6.1 3.3-30.8 12.5-50.3 18.8-13.9 4.5-20.3 4.9-27.5 1.6-5.8-2.6-6-2.6-6-.3 0 .9-.6 2.7-1.3 3.9-.6 1.2-1.2 5.4-1.2 9.4v7.3l4.6 4.7c4.7 4.8 6.1 8.8 4.1 12-1.5 2.4 5 14.9 12.3 23.4 8.9 10.3 19.5 28.1 18.4 30.9-.6 1.6-6.9 1.7-9.3.2-1-.7-1.3-.5-.9.5.3.8 2.2 7.1 4.3 14.1l3.8 12.8H512V244.4l-3.2-1.1c-8.1-2.9-80.2-23.3-82.2-23.3-.2 0-1.9 2.4-3.7 5.2"/><path d="m245.6 238.7-3.9 4.4 5.4 5.5c5.1 5.2 5.4 5.3 6 3.1.5-1.9-2.4-16.6-3.3-17.2-.2-.1-2.1 1.8-4.2 4.2"/></svg>