<svg xmlns="http://www.w3.org/2000/svg" width="682.667" height="512" version="1.0" viewBox="0 0 512 384"><path d="M0 192v192h38.7l.7-4.6c1.1-8.2.6-21.4-.9-27.6-.9-3.3-5-13.7-9.1-23.1-12.3-28.3-16.8-42.2-19.8-62.2C7 249.6 6 236.5 6 218.6c0-39.3 5.5-70.8 19.5-111.4L30 93.9l-3.6-4.4c-4.3-5.3-3.9-8 1.3-10.1 3-1.3 4.2-1.3 9.6.1 14.6 3.7 53.2 20.6 58.2 25.5 1.7 1.6 4.6 3.6 6.5 4.3 9.4 3.9 62.6 23 87.3 31.3l27.7 9.3 1.4-2.2c.8-1.2 1.7-4.4 2.1-7.1.5-4 .4-4.8-.8-4.3-.8.3-3.6.8-6.3 1.2l-4.9.6 2.8-1.6c1.6-.9 2.7-1.8 2.5-2-.3-.3-10 1.1-13.8 2-2.4.6-2.4.6.5-2 2.6-2.3 2.7-2.6.8-2-3.4 1-2.8-.3 1-1.9l3.2-1.4-2.9-.1-2.9-.1 4.8-4.8c2.6-2.6 9-11.2 14.2-19.2 12.5-18.9 16.6-23.7 27.5-31.5 9.2-6.6 12.7-7.7 16.8-5.5 1 .6 7 1.4 13.2 1.9 12.9 1.1 19.9 3.3 27.8 8.9 6.4 4.4 11.4 12.9 15.9 26.7 1.6 4.9 3.3 9.9 3.7 11 .8 1.9.7 2-1.9.2L319 115v2.7c0 1.6-.8 3.9-1.8 5.4-2.4 3.5-5.9 6.8-6.6 6.2-.2-.3-1.9.5-3.5 1.7-2.3 1.6-2.9 1.7-2.5.6s.1-1.6-1-1.6c-2.2 0-2 3.6.4 7.1l2.1 2.8-3.1 1.6c-1.6.8-3 2.1-3 2.8-.1.6-2.5 3.8-5.5 7.1-4.1 4.4-5.9 5.7-7.5 5.3-3.3-.8-2.5 2.8 1.3 5.7 1.8 1.4 5.4 3 8.1 3.6 6.9 1.5 11.9 4.4 15.9 9 4 4.7 3.8 4.6 50.1 16.5 18 4.6 26.2 6.3 27 5.5 1.7-1.7 5.5-1.1 6.8 1 1.2 1.9 1.3 1.9 4-1 2.4-2.7 3-2.9 5.2-1.9 1.6.8 2.2 1.7 1.8 2.8-.5 1.4-.3 1.4 1.1.3 1.9-1.6 6.3-1.2 5.9.6-.1.9.6 1 2.3.6 2.1-.5 2.7-.1 3.9 2.7 1.3 3.1 1.4 3.1 2.5 1.2 1.5-2.9 5-1.9 5.8 1.7.5 2.6 1.1 2.9 10.7 5 27.6 5.9 34.4 7.4 51.1 10.6 9.9 1.9 18.8 3.7 19.8 4 1.6.5 1.7-5.3 1.7-112V0H0z"/><path d="M77.6 130.9c-14.4 35.7-18 49.2-21.6 80.6-2.5 22.1-2.7 48.8-.5 62.5 2.3 13.6 4.5 21.9 14 51.1 4.7 14.3 8.5 27.2 8.5 28.7s-2.5 8.8-5.5 16.2-5.5 13.6-5.5 13.7c0 .2 26.1.3 58.1.3h58.1l4.2-3.4c4-3.4 14.5-15.3 31.4-35.7 11.6-14.2 16.1-20.3 22.7-30.9 3.3-5.2 8.1-12.4 10.6-16 3.6-4.9 4.5-6.9 3.8-8.2-.5-.9-.9-3-.9-4.6 0-2.6-1.4-4.1-9.3-10.5-12.7-10.2-21.5-18.5-23.3-21.8-.8-1.5-1.4-5.2-1.4-8.1 0-6.4 2.4-11.9 10.5-24.2 4.3-6.5 5.5-9 4.6-9.9-2-2-1.3-8.2 1.5-12.2 2.4-3.6 2.5-4 1.4-10.4-.8-4.8-.8-7.5 0-9.5.5-1.5.7-3.2.4-3.7-.7-1.2-4.1 2.5-5 5.5-.7 2-.7 2-1.6-.3-.8-2.3-.9-2.3-2.8-.6-1.9 1.8-2 1.7-2.1-.6 0-1.3-.4-3.3-.8-4.4-.8-1.9-.9-1.8-2.1.7-1.8 3.8-3 2.5-1.7-1.7 1.4-4.6.1-5.7-2.8-2.1-2.2 2.7-2.2 2.7-2 .5.2-1.3 1-3.7 1.9-5.3 2.9-5.7-.2-6.2-5.5-1l-3.8 3.7 1.2-3.4c.7-1.9 1.6-3.9 2-4.6.5-.8-5.2-3.1-18.5-7.6-26.5-8.9-42.9-14.8-73.3-26.2-19.5-7.4-27-9.8-30.1-9.6-2.3.1-5.2-.3-6.5-.8-2.4-.8-2.6-.5-8.3 13.8m132.7-8.3-2.8 2.6 3.3-2.2c2.9-2 3.9-3 2.8-3-.3 0-1.8 1.2-3.3 2.6m13.2 14.5c-.4.6-.5 1.2-.2 1.5.2.3.7-.2 1-1.1.7-1.7.1-2-.8-.4m57.5 19.3c0 .8.7 1.6 1.5 2 1.3.4 1.4.2.5-1.4-1.3-2.3-2-2.6-2-.6m35.7 35.2c-2.3 2.4 1.1 11.4 7.5 19.4 3.9 5 5.8 11.2 5.8 19.4 0 8.6 1.8 12.3 5.2 10.5 1.2-.6 13.4-4 27.1-7.5 13.8-3.4 25.6-6.9 26.4-7.7 1.1-1.1 1.3-3 .7-8.6l-.7-7.1-3.6-.9c-34.6-9-58.4-15.3-66.1-17.7-.9-.3-1.9-.2-2.3.2m107 33.6c-4.4 6.9-15.4 17.1-21.9 20.4-5.7 2.9-27.3 10.8-47.3 17.4-16.2 5.3-22.6 5.7-30.2 1.9-4.8-2.3-5.3-2.4-5.3-.8 0 1-.5 3-1.1 4.6-.6 1.5-1.1 6-1.1 10l-.1 7.2 4.6 5c4.8 5.1 6.1 9.3 3.6 11.8-1.8 1.8 5.2 14.3 14.3 25.7 8.1 10.1 16.8 24.6 16.8 28.1 0 1.4-.8 1.6-5 1.3-2.8-.1-5-.1-5 .2s1.8 6.1 3.9 13l3.9 12.5 79.1.3 79.1.2V243.4l-5.7-1.6c-3.2-.8-13.7-3.8-23.3-6.6-15.9-4.6-54.6-15.2-55.5-15.2-.3 0-2 2.4-3.8 5.2"/><path d="m245.7 239.4-3.7 4.4 5.2 5.1c4.7 4.4 5.4 4.8 6 3 .7-1.8-1.8-14.6-3.2-16.2-.4-.4-2.3 1.2-4.3 3.7"/></svg>