<svg xmlns="http://www.w3.org/2000/svg" width="682.667" height="512" version="1.0" viewBox="0 0 512 384"><path d="M0 192v192h40.7l.7-5.3c1.8-15.6.2-23-10.5-47-4.5-10-9.6-22.4-11.5-27.5-17.1-46.9-17.6-116-1.2-173.2 3.4-12.1 9.6-30.6 11-33.4.8-1.5.2-2.6-3.1-6-3.7-3.8-4.1-4.5-3.2-6.9 1.4-3.7 7.6-5.5 13.4-3.8 18.5 5.5 53.6 20.6 58.6 25.4 2.7 2.5 7.5 4.8 19.1 9 55.9 20.2 100.2 34.8 101.1 33.3.4-.6 1-3.9 1.4-7.3l.7-6.1-3.9.9c-5.3 1.2-10.3 1.2-8.3-.1.8-.5 1.1-1 .5-1.1-2.5-.3-6.3-.1-10 .6l-4 .7 2.9-2c2.5-1.8 2.6-2.1 1-2.4-1.4-.4-1-.7 1.6-1.5 3.1-1 3.2-1.1 1-1.3-1.4-.1-2.8-.2-3.1-.2-.3.1 2.2-2.7 5.5-6.1 3.4-3.4 9.2-11.2 13-17.2 3.9-6.1 9.3-13.8 12-17.3 4.7-5.7 18.2-17.4 23.3-20.1 2.7-1.4 7.8-1.4 10.4-.1 1.1.6 8.2 1.5 15.8 1.9 13.4.8 14.2.9 21.7 4.7 7.1 3.5 8.4 4.6 12.6 10.9 3.9 5.6 12.8 25.2 12.8 28 0 .3-.8.4-1.8.1-1.4-.5-2 .3-3.1 3.9-1.4 4.8-7.1 11.8-7.1 8.8 0-1.5-.2-1.4-1.4.2-.8 1.1-2.6 1.9-4.2 2-3.7 0-4 1.6-1 5.2l2.5 3-2.9 2.7c-1.7 1.4-3 3.2-3 3.9s-1.4 2.6-3.1 4.3c-1.7 1.6-3.7 4.1-4.5 5.5-1.6 3.2-7.2 4.5-9 2.1-1-1.3-1.1-1.3-1.7 0-.8 2.2 9.9 9.5 15.8 10.8 6.5 1.5 9.4 3.1 15.1 8.7l4.9 4.9 33.5 8.3c18.4 4.6 34.5 8.7 35.7 9.2 1.5.5 2.5.3 3.3-.7 1.7-2 4.6-1.8 7 .6 2 2 2 2 3.6-.5 2-3.1 6.3-3.4 7.1-.5.4 1.6.8 1.8 1.9.9 1.6-1.3 6.8-.3 5.9 1.1-.3.5.7.8 2.1.7 2.2-.2 2.9.4 4 3.3.7 1.9 1.3 2.8 1.3 1.9.1-.9.8-2.2 1.6-2.9 1.3-1 1.9-1 3.5.5 1.1 1 2 2.6 2 3.5 0 1.1 1 2 2.8 2.3 21.2 4.4 54.2 11 63.2 12.7 6.3 1.1 12.5 2.3 13.8 2.6l2.2.4V0H0z"/><path d="M79.9 125.9c-8.7 20.9-16.3 43-19.3 56.8-2.6 11.9-5.7 40.7-6.3 58.8-.9 27.4 1.9 42.1 16.5 85.8 9.4 28.4 9.5 29.8 3.4 44.5-2.3 5.6-4.2 10.7-4.2 11.2 0 .6 21.1 1 58.7 1h58.7l5.4-5.8c8.3-8.8 38.8-47.7 45-57.2 3-4.7 8.5-13 12.1-18.5s6.5-10.7 6.3-11.5-.4-3.1-.5-5.1c-.2-3.4-1-4.3-10.5-11.9-22.2-17.7-25-21.3-23.9-31.5.6-6.1 1.8-8.7 9.9-21.2 5.2-8.1 5.8-9.4 4.8-11.4-1.6-3-.6-8.4 2.3-12.2 1.7-2.4 2.2-3.9 1.6-5.7-.4-1.4-.7-5.3-.8-8.7-.1-5.1-.4-6.1-1.6-5.7-1 .4-1.5 0-1.5-1.1 0-1.7-.1-1.7-2 0-1.1 1-2.2 2.7-2.6 3.9-.7 2-.7 2-1.6-.3-.8-2.2-.9-2.3-2.7-.7-1.7 1.6-1.9 1.6-2.6-.6-.4-1.3-.6-2.9-.6-3.6.3-2-1.7-1.3-2.4.9-1.2 3.6-2.6.6-1.5-3.1 1.3-4.4.8-4.7-2.4-1.3l-2.7 2.8.5-2.6c.2-1.5 1.2-4.1 2.1-5.9 1.4-2.7 1.5-3.4.3-4.1-.9-.6-2.8.7-6.2 3.9l-4.9 4.7 1.8-3.5c1-1.9 2.2-4.3 2.7-5.3.6-1.2.4-1.9-.4-2.2-.7-.3-13.9-4.7-29.3-9.9s-41-14.2-57-20.1c-23.1-8.4-30.3-10.6-35.2-10.8l-6.3-.3zm236.8 67.8c-.5 2.8 2.5 9.1 8.9 18.6 3.6 5.2 5.9 14.1 4.9 18.8-.9 4.1 2 10.3 4.3 9.4 1.8-.7 33.4-8.9 45.9-12 10.6-2.5 10.7-2.7 9.7-11.6l-.9-7.4-22.5-5.7c-12.4-3.2-28.4-7.4-35.7-9.3-7.2-1.9-13.3-3.5-13.6-3.5s-.7 1.2-1 2.7m109.2 29c-6.2 10.3-16.2 19.3-26.3 23.8-2.9 1.3-13.2 5.2-22.7 8.6-36.3 13-42.4 14-52.3 9l-5.6-2.8.6 3.2c.3 2 .1 3.5-.8 4.2-.9.8-1.3 3.6-1.2 9.5l.1 8.3 4.6 4.7c4.7 4.8 5.4 7.3 3.5 11.4-1.4 3.1 4.2 13.4 14 25.6 8.8 11 17.7 26 16.8 28.4-.5 1.2-1.8 1.5-5.7 1.2-5.9-.4-5.8-1.7-1.4 15.4l2.8 10.8H512l-.2-71.2-.3-71.2-18.5-5.3c-10.2-3-27.9-7.8-39.5-10.8-11.5-3-22-5.8-23.1-6.1-1.7-.4-2.6.2-4.5 3.3"/><path d="m245.8 239.4-3.7 4.2 5.2 5.2c2.9 2.9 5.6 5.2 5.9 5.2.4 0 .7-1 .6-2.3 0-3.3-3.1-16.7-3.7-16.6-.3 0-2.3 2-4.3 4.3"/></svg>