<svg xmlns="http://www.w3.org/2000/svg" width="682.667" height="512" version="1.0" viewBox="0 0 512 384"><path d="M342 13.9c-1.3.4-3.9 2.6-5.7 4.9-5.9 7.7-7.9 19.7-4.9 29.5 1.7 5.5 1.3 6-6.2 7.6-26.2 5.5-48 23.8-54.5 45.8-2 6.7-3.3 9.1-7 13-3.2 3.4-1.9 4.7 1.5 1.6 1.7-1.5 1.8-1.5 1.2 1.8-.4 2.5-.3 3 .5 1.9 1.8-2.6 2.4 1.5.9 6.2-1.7 5.2-1.3 8.5.8 6.7 1.2-.9 1.4-.6 1.4 2 0 3.2 1.9 4.5 2.1 1.3.1-.9.7.3 1.4 2.8s1.3 3.9 1.4 3.1.8-.5 2.2 1c1.1 1.3 1.7 1.8 1.3 1-.5-.9-.3-1.2.4-.7.7.4 1.2 1.2 1.2 1.8 0 1.2 5.9 6.8 7.2 6.8.4 0 .5-1.5.1-3.3-.5-3-.5-3.1 1.2-1.5 2.7 2.5 1.2 8.1-3.6 13.3-2.1 2.3-3.9 4.8-3.9 5.6s1.6 2.5 3.5 3.8c2.5 1.7 3.6 3.3 4.1 6 .7 3.4 3.4 8.3 6 10.6.6.5 1.9 3.1 2.9 5.7 2.3 6.2 3.6 7.2 8.5 6.5l4-.5v3.6c0 2.1-.4 5.3-.9 7.3-.7 2.9-.5 3.8.9 4.7 1.3.8 1.9 3.2 2.4 10.6l.7 9.5-4.7 9.8c-2.6 5.4-5.3 10.5-5.9 11.3-.7.8-1.5 3-1.9 4.9-.3 1.8-1.5 4.9-2.7 6.7-1.9 3.1-2.5 3.4-6.8 3.4-3.6 0-5.3.5-6.6 2-1.7 1.9-1.8 2.7-.7 9.1 1.7 10 1.6 10.5-3.2 17.3-2.4 3.3-5.8 8.2-7.5 10.8-2.8 4.2-3.5 4.7-5.2 3.7-3.1-1.6-15.7-3.8-37.9-6.4-11.3-1.4-21.2-2.5-22.1-2.5s-2.9-1.8-4.4-4.1c-2.4-3.4-2.9-5.1-3-11.2-.2-8.3-2.5-17.2-5.6-21.1-3.7-4.7-7.4-5.9-16.4-5.3-4.4.3-8.8.9-9.7 1.2-1.4.6-1.8-.2-2.4-4.4-.8-6.5-2.8-5.6-2.2 1l.5 4.8-6.6 2.2c-8.9 2.9-13.7 5.4-14.6 7.6-.4 1-1.7 5.2-2.9 9.4-2 6.6-2.1 8-1 11.2.7 2 1.5 6.2 1.9 9.3.8 8 2.3 10.9 9.4 18.6 5.7 6.2 6.9 7 14 9.2 4.3 1.4 11.8 3.2 16.6 4 4.8.9 8.9 1.7 9 1.8.2.2-.1 4.6-.6 9.8-.6 5.2-.9 15.5-.7 22.7l.3 13.3h126.3c75.8 0 126.2-.4 126.2-.9 0-1.4-6.8-13.9-10.2-18.9-4.9-7.2-6.8-12.4-7-20.2l-.3-7.3 6-1.7c8.9-2.5 14.9-5.8 13.6-7.4-.8-.9-.3-2 1.9-4.1 1.6-1.5 2.7-3.1 2.5-3.5s-3-.5-6.2-.2c-4.4.4-8.4 1.7-16.5 5.8-12.4 6.2-11.8 6.6-12.4-7.2-.2-5-.8-10.3-1.3-11.8-.6-1.4-.8-3.3-.5-4.1s.1-5.4-.6-10.2c-.6-4.8-1.3-11.9-1.6-15.8l-.5-7 3.6 6.3c2.2 3.7 4.1 6 4.7 5.6s.8-.2.4.4c-.3.6-.2 1.3.4 1.7s1-2.5 1-8.3c0-4.9.3-11.8.7-15.3l.7-6.4 2.7 8.5 2.7 8.5.1-9.3c.1-5.9.5-9.1 1.1-8.7.6.3 1 2.3 1.1 4.3s.5 4.8.9 6.2c.7 2.3.8 2.2.9-1 .2-3.4.3-3.3 3.8 3.5 5.2 10.3 5.7 10.2 4.2-.4-.6-4-.8-7.5-.6-7.7s1.7 1.4 3.2 3.6 3 3.9 3.1 3.7c.2-.2-.8-3.7-2.2-7.8-3.1-9.3-5.9-22.5-7.3-35.1-1.4-12.7-1.3-15.8.4-8 1.9 8.7 6.7 20.4 13.2 31.9 5.1 9 9.3 15.4 9.3 14 0-.3-1.8-5.8-3.9-12.3-2.1-6.6-4.2-13.3-4.6-14.9l-.6-3 3.1 3.5c2.5 2.9 3 3.1 2.5 1.2-1.1-3.7.2-2.5 5 4.9 2.5 3.9 4.8 6.9 5.1 6.7.2-.3-.7-4.9-2-10.4-1.4-5.4-3-13.1-3.6-16.9-10.1-65.3-13.9-82.4-24.6-111.8-3-8.1-5.4-16-5.4-17.6 0-6.8-7.8-23.6-14-29.9-6-6.3-12.1-8.7-22-8.7h-8.5l-5.5-8.4c-3-4.7-7.2-10.5-9.3-12.9-2-2.4-5.3-6.8-7.2-9.8-3.2-5-3.8-5.4-7.4-5.4-2.1 0-5.1-.2-6.7-.4-1.6-.3-4-.1-5.4.3m90.7 191.3c-.3.8-.6.5-.6-.6-.1-1.1.2-1.7.5-1.3.3.3.4 1.2.1 1.9m-13 47c-.3.8-.6.5-.6-.6-.1-1.1.2-1.7.5-1.3.3.3.4 1.2.1 1.9m-5.5 16.7c1.5 5.8 2.6 10.6 2.4 10.8-.6.6-7.6-20.9-7.6-23.2.1-2 .1-2 1.2 0 .6 1.1 2.4 6.7 4 12.4m-17.8 13.3c-.4.6-1 .5-1.5-.3-1.4-2.2-1-3.3.6-1.9.8.7 1.2 1.7.9 2.2"/></svg>