<svg xmlns="http://www.w3.org/2000/svg" width="682.667" height="512" version="1.0" viewBox="0 0 512 384"><path d="M0 192v192h48.8l.6-2.3c1-3.9.6-14-.9-21.2-1-4.9-4.5-13.2-11.9-28-14.6-29.3-18.6-40-23.1-60.7-4.6-21.5-6-36.9-5.9-66.8 0-38.3 2.7-56.3 14.3-96.3L25.1 98l-3.6-3.1c-4.6-4.1-4.8-8.2-.5-10.4 3.9-2 7.1-1.9 16 .6C58.4 91 86.6 101.8 91.4 106c2.4 2.1 9.5 4.7 31.6 11.3 25.5 7.7 60.2 17.6 67.1 19.2 2.4.6 2.8.1 5.7-6.2 1.7-3.7 4.7-12.3 6.7-19 1.9-6.7 4.5-14.6 5.7-17.5 2-4.8 3.3-7.1 8.5-14.8.9-1.4 2.8-4.2 4.1-6.3 3-4.5 7.4-7.1 11.1-6.4 1.6.3 5-.6 9.1-2.5 9.3-4.3 15.4-5.8 24.1-5.8 9 0 12.5 1.1 19.9 6.1 5.4 3.8 23.4 21.2 21.5 20.8-3.4-.6-4.4.1-3.6 2.4.6 1.4.5 4.5-.3 8.1-.9 4.7-1.3 5.5-2.4 4.4-.7-.7-1.2-.9-1.1-.3.4 1.6-2.4 6.7-3 5.6-.4-.6-1.2-.6-2.1-.1-1.2.7-1.1 1.2.4 2.9 1 1.1 2.7 2.3 3.7 2.6 2.3.8 2.5 3.8.4 5.5-.9.8-1.3 2.1-.9 3.5.3 1.3 0 3.3-.6 4.6-.7 1.2-1.7 4.2-2.4 6.7-.6 2.6-1.9 5-3.1 5.6-1.1.6-2.2 1.3-2.5 1.6-.7.7-3.8.6-4.6-.3-1.3-1.3-2.6-.8-2 .8.3.8.9 2.3 1.3 3.2.5 1.2.2 1.5-1 1-.9-.3-1.7-.3-1.7.1.1 2.8 9.5 8.6 16.5 10.1 7.1 1.6 12 4.5 16.6 9.9l3.5 4.1L349 173c17.3 3.3 33.2 6.5 35.2 6.9 2.8.7 4 .5 4.9-.5 1.6-1.9 4.6-1.7 6.7.4 1.8 1.8 1.9 1.8 3.8-1 2.2-3.3 5.3-3.4 6.9-.1 1 2 1.3 2.1 2.7.7 1.7-1.7 6.3-1 5.2.7-.3.6.5.7 2.1.3 2.2-.5 2.7-.2 3.7 2.4 1.1 3 1.2 3 2.8.9 2-2.5 4.6-1.8 5.9 1.6.9 2.2 2 2.6 11.8 4.1 17.3 2.8 57.2 8.4 64.6 9.1l6.7.7V0H0z"/><path d="M78 121.4c-15.4 43.1-18.9 58.9-21.1 93.4-1 16.2-1 23.8-.1 37 1.9 25.7 5.3 38.4 20.4 76.7 4.4 11.1 8.2 22.3 8.5 25.1.5 4.2-.1 7-3.6 17-2.2 6.6-4.1 12.3-4.1 12.7s23.1.7 51.4.7h51.3l10.1-12.3c30.2-36.6 45.5-56.4 53.7-69.7 3.6-5.8 8.3-13 10.5-16 3.8-5.4 3.9-5.6 2.7-9.8-1-3.9-2.4-5.3-12.2-13-13.6-10.7-20.3-16.8-22.1-20.4-3.8-7.3-.7-18.1 9.4-33.1 3.7-5.4 4.7-7.8 4.1-9.2-1.6-4.1-.9-9 1.7-12.9 2.1-3.1 2.5-4.4 1.8-6.8-1.2-3.9-2.5-3.8-4.5.2-1.1 2.2-1.8 2.9-2.3 2.1-.6-.9-1.3-.8-2.7.5-1.8 1.6-1.9 1.6-1.9-.4 0-1.2-.4-2.2-1-2.2-.5 0-1-.9-1-2.1 0-1.1-.4-1.7-1-1.4-.5.3-1 1.5-1 2.6 0 3.5-1.9 2-2.2-1.9-.4-4.7-1.8-4.8-3.3-.2l-1.2 3.5-.7-3.2c-.4-1.7-.3-4 .2-5 1.4-2.7 2.4-10.6 1.3-9.9-.5.4-2.6 3.3-4.6 6.6s-3.8 6-4.1 6c-1 0 .6-7 2.4-10.6 1.1-2.1 2.3-4.9 2.7-6.2.7-2.3.6-2.3-2.4-.8-4.4 2.3-4.8 2-1.7-1.3l2.8-2.9-6.8-2c-7.4-2.2-13.6-3.7-14.4-3.5-.3.1-1.3.5-2.3.8q-1.8.75-1.2-.6c.4-1.1-5.9-3.2-25.2-8.8-14.2-4.1-35.7-10.6-47.8-14.4-18-5.7-23.4-7-29.7-7.2l-7.7-.2zm119.9 12.3-2.4 2.8 2.8-2.4c2.5-2.3 3.2-3.1 2.4-3.1-.2 0-1.4 1.2-2.8 2.7M318 182.1c0 3.1 2.8 8.7 8.6 16.9 4.2 6 4.5 7.2 5.4 16.8.9 10.4 1.6 11.2 7.8 8.8 2.6-1 14.7-4.8 27-8.6 12.3-3.7 22.8-7.2 23.3-7.7 1.1-1.1.2-12.2-1.1-14.3-.6-1-65.4-14.9-69.7-15-.8 0-1.3 1.3-1.3 3.1m106.1 24.8c-4.8 8-12 15.4-19.4 19.9-5.3 3.2-25.5 11.8-49.2 21-10.2 4-13.1 4.7-19 4.7-5.5 0-7.8-.5-10.8-2.3-2.1-1.2-3.9-2.2-4.1-2.2-.1 0-.1 1.3.2 2.9.2 1.5-.3 4.2-1.2 5.9-1 2-1.6 5.6-1.6 10v6.8l5 5.2c5.1 5.3 6.1 8.4 3.9 12-.9 1.5-.4 3.3 2.6 9.3 2 4.1 5.5 9.5 7.6 12 8.8 9.7 21.6 30.6 20.6 33.3-.5 1.2-5 1.4-9.8.4-1.6-.3-1.6-.7 2 12.2 1.5 5.2 3.6 13.2 4.6 17.7l1.8 8.3H512V218.3l-5.2-1.1c-2.9-.6-11.4-2.5-18.8-4.2s-23.9-5.3-36.7-7.9l-23.2-4.9z"/><path d="m247 228.5-4.3 4.4 5.6 5.6c3.1 3 5.8 5.5 6.1 5.5 1.9 0-.1-16.6-2.3-19.2-.4-.5-2.7 1.2-5.1 3.7"/></svg>