<svg xmlns="http://www.w3.org/2000/svg" width="682.667" height="512" version="1.0" viewBox="0 0 512 384"><path d="M0 192v192h51v-11.1c0-6.8-.6-13.4-1.6-17.2-.8-3.3-6.2-15.3-11.9-26.6-11.8-23.6-14.1-28.9-18.3-42.2-7-22-10.2-44.2-10.9-77.4-.9-39.9 2.4-63.7 14.6-105.9 2.2-7.4 2.1-7.9-2.1-11.4-3.9-3.3-3.8-7.6.2-9.7 1.6-.8 4.2-1.5 5.8-1.5 9.6 0 57.3 16.5 63.6 22 3.3 2.9 4.4 3.3 41.6 14.1 40.5 11.8 57.2 16 58.5 14.9.6-.5 2.4-5.1 3.9-10.2 7.2-24.3 10-32.1 13.7-37.8 2.1-3.3 4.7-7.7 5.8-9.8 2.9-5.7 6.1-8.1 11.7-8.8 2.7-.4 8.7-2.4 13.3-4.6 23.3-11.2 35.2-9 57.8 11 5.5 4.9 6.1 5.7 4.6 6.5-2.6 1.4-2.6 1.4-1.5 3.4 1.2 2.1-.5 13.6-1.9 12.8-.4-.3-1.1.6-1.5 2-.4 1.6-1.2 2.4-2 2.1-1.6-.6-3.5 1.6-2.6 3 .4.6 2.2 1.9 4 2.8 3.7 1.9 3.7 1.9 1.6 5.1-.9 1.3-1.3 3.2-1 4.2s-.3 5.2-1.3 9.3c-1.5 6.1-2.2 7.6-3.9 7.8-1.2.2-1.9.9-1.6 1.6.5 1.4-2.5 1.4-6 0-1.6-.6-1.8-.4-1.3.9 2.2 5.4 2.2 5.3.4 3.8-1.5-1.2-1.7-1.1-1.7.5 0 2.5.8 3.4 5.8 6.8 2.3 1.6 6.5 3.3 9.4 3.8 7.2 1.3 12.6 4.3 17.4 9.5s5.3 5.3 54.9 14.3c6.6 1.2 13.9 2.5 16.2 2.9 3.2.6 4.3.5 4.7-.5.7-1.8 3.7-1.8 6.2.1 2.6 2 2.9 1.9 4.2-1 1.4-3.1 4.6-3.3 6.5-.4.9 1.3 1.7 1.6 2.2 1 .9-1.6 4.5-1.4 5.1.3.3.8 1.5 1.1 2.9.8 2.1-.4 2.7.1 3.9 2.9 1.3 3.1 1.4 3.1 2.1 1 .9-2.9 4.6-2.5 6 .7.6 1.3 1.9 2.5 3 2.7 3.9 1 35.3 5.5 55.5 8 11.3 1.4 21.5 2.8 22.8 3.2l2.2.5V0H0z"/><path d="M78.9 117.2c-1.9 3.5-12 35.2-14.8 46.5-4.8 19-7.1 41.2-7.1 67.3 0 34.3 3.7 50 22.9 98.4 8.8 22.1 8.8 23.1 2.6 41.1-2.5 7.2-4.5 13.1-4.5 13.3 0 .1 21.7.1 48.2 0l48.2-.3 8.9-10.5c4.9-5.8 14.3-17 21-25 6.6-8 12.8-15.2 13.7-16 4.1-3.6 21-25.3 26.5-34 3.2-5.2 7.8-12.1 10.2-15.2 4.8-6.3 4.7-5.9 3.3-11-.9-3-3.1-5.2-12.3-12.4-20.5-16.1-23.7-20-23.7-28.2 0-6 2.6-12.3 9.5-22.8 5.5-8.3 6.2-9.9 5.4-12.1-1.5-4-1-7.4 1.7-12 1.8-3.2 2.4-5.2 1.9-7-.6-2.5-.7-2.5-1.9-.7-.7 1-1.6 3.2-2 4.9-.7 2.6-.9 2.8-1.8 1.2-.9-1.8-1.1-1.8-2.9-.1-1.8 1.6-1.9 1.6-1.9-1 0-1.5-.4-2.5-.9-2.1-.5.3-1.1-.5-1.3-1.7-.4-2.2-.5-2.1-1.8.7l-1.3 3-.7-4.2c-.9-6-1.7-6.2-3.3-.7l-1.4 4.8-.6-3.7c-.3-2.1-.2-5 .3-6.5.4-1.5 1.1-4.2 1.4-6.1.5-2.9.4-3.2-.9-2.1-.8.7-2.9 3.6-4.6 6.6-3.3 5.9-5.5 8.1-4 4.1.6-1.4.7-2.7.5-3-.3-.3.3-2.2 1.4-4.4 1-2.1 2.2-5 2.6-6.6l.7-2.7-3.8 1.5-3.7 1.6 2.2-2.3c1.7-1.9 2-3 1.4-5.3-.7-2.5-1.6-3.1-7.2-4.6-3.4-1-6.7-1.6-7.3-1.2-.5.3-1.3 0-1.7-.7-.5-.9-1.8-.7-5.1.9-5.4 2.6-5.3 2.6-3.2-.5l1.7-2.7-2.4 1.3c-2.2 1.2-2.4 1.1-1.3-.2s-1.1-2.2-17.5-6.8c-10.3-2.8-31.5-9-47.2-13.7-21.7-6.5-30-8.6-34.8-8.7-5.1-.1-6.6.3-7.3 1.6m239.2 59.9c0 3.3 2.2 7.6 8.7 17.5 4.1 6.3 6.6 14.5 5.7 19.1-.4 2.4-.1 4.2 1 5.9 1.5 2.3 1.7 2.3 4.5.9 1.6-.8 13.8-4.8 27.2-9 14-4.3 24.8-8.2 25.5-9.1.8-1.1.9-2.4.2-4.1-.5-1.3-.9-3.7-.9-5.3 0-3.9-2-5.6-7.7-6.5-5.5-.8-58.6-11.2-62-12.1-2.1-.6-2.3-.3-2.2 2.7m108.6 20.1c-6.1 10.1-8.4 13.2-12.6 17.1-8.2 7.7-15.7 11.5-48.9 24.6-25.8 10.2-29.9 10.9-39.1 6.4l-4.1-2v3.9c0 2.1-.6 4.9-1.4 6.1-.9 1.4-1.4 5-1.4 9.4 0 6.9.1 7.4 3.1 9.9 5.9 5 8.5 11.2 5.7 14-1.9 1.9 6.6 17.9 13.1 24.8 6 6.2 17.9 25.5 17.9 28.9 0 1.3-1 1.7-4.3 1.7-2.4 0-4.8-.5-5.4-1.1-2.4-2.4-2.1 1.5 1.1 15.2 1.9 7.9 3.9 17.4 4.6 21.2l1.2 6.7H512V212.4l-12.7-2.8c-12.1-2.6-70-14.6-70.9-14.6-.2 0-1 1-1.7 2.2"/><path d="m247.4 224.8-4.2 4.8 5.9 5.5c3.3 3 6.1 5.5 6.2 5.6.2.1.4-1.2.5-3 .3-3.3-2.8-17.7-3.7-17.7-.3 0-2.5 2.2-4.7 4.8"/></svg>