<svg xmlns="http://www.w3.org/2000/svg" width="682.667" height="512" version="1.0" viewBox="0 0 512 384"><path d="M0 192v192h52v-11.3c0-6.7-.6-13.7-1.5-17.2-.8-3.3-6.6-16.4-12.9-29-6.3-12.7-13-27.4-15-32.8C10.7 261.6 5.5 213.3 9.5 171c2-21.9 5.4-38.9 13.2-66.7l2.5-9.2-3.6-3.7c-4.5-4.6-4.7-7.8-.6-9.9 1.6-.8 4.4-1.5 6.2-1.5 10 0 57.6 16.3 64.1 22 2.5 2.1 8.7 4.3 27.9 9.9 31.7 9.2 64.7 18.1 66.9 18.1 1.7 0 4.2-6 9.4-23.5 3.2-10.6 7.2-19.8 11.3-25.7 1.6-2.4 4.1-6.2 5.6-8.6 3-4.8 7.8-8.2 11.6-8.2 3.6 0 9.4-2.1 18.3-6.5 6.9-3.3 8.9-3.8 17.1-4.3 8.5-.4 9.9-.2 15 2.1 7 3.2 14.6 8.3 21.1 14.2 2.8 2.5 5.3 4.5 5.8 4.5.4 0 .7.5.7 1 0 .6-.3.9-.7.9-.5-.1-1.6-.1-2.6 0-1.5.1-1.6.4-.6 2.3 1.8 3.4 1.2 10.9-1.2 13.1-1 1-1.9 2.4-1.9 3.1 0 .8-.9 1.6-2 1.9-3.2.8-2.4 3.7 1.6 5.3 3 1.3 3.5 1.9 2.9 3.7-.4 1.2-.8 3.8-1 5.7-.1 1.9-.8 6.6-1.6 10.3-1.1 5.6-1.8 6.9-3.6 7.3-1.3.4-2.1 1-1.8 1.4.8 1.2-2.7 2.2-3.9 1-.5-.5-1.6-1-2.4-1-1.2 0-1.1.5.3 2.6 1.9 3 1.3 4.3-1.1 2.3-1.6-1.3-1.7-1.1-1 1.6.4 1.6 1.1 3.1 1.6 3.3s2.6 1.5 4.6 2.8c2 1.4 5.8 2.9 8.5 3.4 6.9 1.3 12.8 4.6 17.6 9.8l4.2 4.5 22.8 4.3c44.5 8.5 47.1 8.9 49.4 6.8 1.9-1.7 2.1-1.7 4.9.4l2.9 2.2 1.7-2.5c2-3.1 6-3.4 6.9-.4.6 1.9.8 1.9 2.5.4s2.1-1.5 3.9-.3c1.2.8 1.8 1.7 1.6 2-.3.3.6.3 1.9.1 2-.4 2.8 0 3.8 2.2l1.2 2.6 1.8-2.3c1.4-1.9 2.1-2.1 3.5-1.2 1 .6 1.9 2 2.1 3.1.2 1.5 1.3 2.2 4 2.7 7 1.2 31.7 4.6 51.7 7.1 11 1.3 21.7 2.7 23.7 3l3.8.5V0H0z"/><path d="M79.4 115.1c-2 3.3-12.7 37.6-15.8 50.9-4.4 18.7-5.1 26.5-5.1 61 0 44.3.1 44.7 24.9 108.2 2.8 7 4.6 13.4 4.6 15.8 0 2.2-2.2 10.5-4.9 18.5l-5 14.5h90.6l5.4-5.8c5.5-5.9 19.4-21.7 32.9-37.2 4.1-4.8 11.8-13.4 17-19.1 9.4-10.4 13.3-15.4 27.5-36.2 7-10.2 7.5-11.1 6.9-14.9-.6-3.6-1.7-4.8-14.3-14.8-7.5-5.9-15.1-12.3-16.9-14.2-8.1-8.5-6.7-18 5.1-36.1 4.9-7.6 5.5-9 4.7-11.3-1.6-4.2-1.1-7.9 1.6-11.9 1.4-2 2.4-4.5 2.2-5.4-.5-2.7-3.2-1.8-4.3 1.6-1.3 3.8-2.5 5.3-2.5 3 0-2.4-1.5-2.1-2.8.5-1 2.2-1.1 2.1-1.1-.9-.1-2.6-.4-3.1-1.7-2.6-1.4.5-1.6.2-1-2.1.4-1.8.3-2.5-.4-2.1-.5.3-1 1.1-1 1.6 0 .6-.7 1.7-1.4 2.5-1.3 1.2-1.5.8-1.8-3.3-.3-4.5-.4-4.7-1.5-2.3-.6 1.4-1.5 3.8-1.9 5.5l-.8 3-.6-3.5c-.3-1.9-.3-4.4.1-5.5.3-1.1.9-4.3 1.3-7l.8-5-2.7 3.5c-1.5 1.9-3.6 5.2-4.6 7.3-1.1 2.2-2.2 3.7-2.5 3.4-.6-.6 1-7.1 3.4-13.4 1.9-5 1.9-5.2.2-4.3-3.6 1.9-4.6 1.2-4.2-2.6.3-2.6.1-3.5-.7-3-.7.5-1.1-.2-1.1-1.9 0-2.9-.2-3.1-9-4.9-4.4-.9-7.5-1-9.5-.4-1.6.6-4.1 1.2-5.5 1.6-2.2.5-2.4.3-1.1-1.1 1.2-1.5 1.1-1.7-.5-1.8-1.1 0-1.4-.3-.6-.6 2.4-.9 1.2-2.1-3.5-3.2-7.7-1.9-59.7-16.9-72.3-20.8-11.1-3.4-25.4-5.1-26.6-3.2M318 174.6c0 3.2 3.3 10.3 7.2 15.5 5 6.6 7.2 12.1 7.3 18.4.3 7.9 1.2 10.8 3.3 10.1 1-.3 11.8-3.7 24.2-7.6s24.5-7.8 26.9-8.7l4.3-1.6-.7-6c-1-9-1.2-9.2-11.7-11.1-11.7-2.1-55.5-10.5-58.5-11.3-2-.4-2.3-.1-2.3 2.3m106.3 24.2c-4.9 8.9-14.7 18.1-24.5 22.9-9.1 4.5-44.1 19-52.8 21.8-7.3 2.5-14.4 2.4-20.2-.3l-4.8-2.1v4.3c0 2.3-.5 4.7-1.1 5.3s-1.1 4.7-1.1 9.3v8.2l4 4.2c5.2 5.3 6.6 8.6 4.6 11.4-1.3 1.9-1.1 2.8 2.2 9.4 2 4 6.2 10.4 9.3 14.3 10.7 13.3 19.1 26.6 19.1 30.3 0 1.7-.6 2-3.7 1.9-2.1-.1-4.3-.6-5-1-.6-.4-1.8-.4-2.7-.1-1.2.4-1.3 1.1-.5 3.1 1 2.8 6.3 26.1 7.3 32.8.4 2.2.9 5.2 1.2 6.7l.6 2.8H512l-.2-87.2-.3-87.2-19.5-4.2c-23-5.1-60.3-12.4-62.8-12.4-1 0-2.9 2.3-4.9 5.8"/><path d="m247.2 223-4.3 4.8 6 5.2c6.3 5.4 7.7 5.7 7.6 1.8-.2-3.5-3.6-16.8-4.4-16.7-.3.1-2.5 2.3-4.9 4.9"/></svg>