<svg xmlns="http://www.w3.org/2000/svg" width="682.667" height="512" version="1.0" viewBox="0 0 512 384"><path d="M337 14.7c-4.2 2.2-7.6 8.5-9.2 17.1-1.1 6-.9 8.6 1.8 20.3.6 2.5.3 2.7-5.6 3.8-14.8 2.9-28.3 10.4-39.8 22-8.8 8.9-11.1 12.8-15.1 25.9-1.5 4.9-3.3 8.6-5.8 11.2-3.4 3.9-2.8 5.7.9 2.3 2-1.8 2.3-.7.8 3.3-.9 2.3-.8 2.5.4 1.5 2-1.6 2.8.9 1.5 5.1-.5 1.8-.9 4.6-.9 6.3l.1 3 1.4-2.5c1.3-2.4 1.4-2.4 2.1 2.7.7 5.7 2.3 7.5 1.7 2l-.3-3.2 1.2 3.1c1.5 3.5 5.8 8.4 5.8 6.5 0-.7.5-.9 1-.6.6.3 1 1.5 1 2.6s.4 1.8.9 1.4c.6-.3 1.5.3 2.1 1.4 1.3 2.5 4 1.7 4-1.1 0-1 .5-1.6 1-1.3 1.7 1 1.1 7.8-.9 10.9-1.1 1.6-3.2 4-4.8 5.3l-2.8 2.3 4.2 3.8c2.3 2 4.5 5 4.9 6.6s2.6 5.8 5 9.4c2.4 3.5 4.4 7 4.4 7.7s.9 2.4 2.1 3.9c1.8 2.3 2.6 2.6 5.6 2l3.6-.7-.7 5.4c-.4 3-1 6.4-1.3 7.7-.3 1.2-.1 2.2.3 2.1 2.6-.4 2.9.9 3.2 12l.3 12-4.9 10.3c-2.8 5.7-5.5 11.9-6.1 13.8-1.8 5.6-3.1 6.5-8.8 6.5-4 0-5.8.5-7.4 2.1-1.9 1.9-2 2.6-1 7.9 2.1 11 1.8 12-6.1 22.4-4 5.3-7.3 9.7-7.4 9.9s-2.6-.4-5.6-1.3c-2.9-.8-13.8-2.9-24.3-4.5-28.3-4.5-31.8-5-32.6-4.4-.4.2-2.2-1.6-3.8-4-2.7-3.8-3.1-5.4-3.1-10.8 0-12.8-4.5-23.2-11.5-26.5-2.6-1.3-4.8-1.4-11.1-.7-11.4 1.2-10.8 1.4-11.4-2.9-.7-5.3-2.5-4.6-2.5 1v4.6L156 264c-10.3 3.6-12.8 5.4-14.1 10.4-.6 2.2-1.8 6.2-2.7 8.7-1.3 4.2-1.3 5 .2 9.4.9 2.7 1.6 6.5 1.6 8.4.1 5.2 2.9 10.6 9.5 18.3 5.3 6.4 6.2 6.9 13.4 9.2 4.2 1.3 10.8 2.9 14.6 3.5 11.8 2 11.7 2 11 4-1.3 4.3-2.6 14.5-3.5 29.1-.6 8.5-1.3 16.3-1.6 17.2-.5 1.7 6 1.8 128 1.8 87.8 0 128.6-.3 128.6-1 0-1.7-4.9-10.9-9.6-18.2-5.4-8.4-7.4-14.3-7.4-21.8v-5.9l5.2-1.6c2.8-.8 5.6-1.5 6.1-1.5.4 0 2.9-1.2 5.4-2.6 3.2-1.9 4.1-2.9 3.1-3.5s-.6-1.5 1.5-3.7c1.5-1.5 2.7-3.1 2.7-3.5s-2.2-.7-4.9-.7c-3.7 0-7.3 1.2-15.5 5-5.9 2.7-10.8 5-11 5-.4 0-1.7-7.6-2-12-.9-12.4-2-22.7-3.2-30.5-.8-5-1.4-10.4-1.4-12l.1-3 2.6 4.3c1.4 2.4 2.7 4.1 2.9 4 .2-.2-1.6-5.8-4-12.3-4.2-11.6-6.2-20.5-4.7-20.5.5 0 2.5 6 4.6 13.2 6 21.5 6.3 21.7 6.5 5.3l.2-14 2.9 8.4c1.6 4.6 3.1 8.7 3.5 9 .7.6-.3-17.2-1.3-22.9-.6-3.2-.5-3.4 1-2.1 1.3 1.1 1.7 3.1 1.7 9.7 0 4.9.4 8.4 1 8.4 1.1 0 1.3-1.6 1-6.8-.1-1.7.2-3.2.7-3.2.4 0 2.3 2.7 4.1 6s3.5 6 3.9 6c.3 0 .3-1.4.1-3.2l-.5-3.2 2.3 2.7c3.6 4.2 3.7 1.6.5-8-3.6-10.5-6.7-25.8-7.5-36.8-.4-6.5-.4-7.2.4-4 1.6 6.5 8.1 20.4 13.7 29.5 5.9 9.5 10 14.9 8.8 11.5-.4-1.1-2.3-6.2-4.1-11.3-3.9-10.6-4.2-12.7-1.4-9.3 2.6 3 2.6 1.1 0-6.3-1-3.1-1.5-5.4-1-5.1.4.3 3.4 4.4 6.5 9.1s5.9 8.3 6.2 8.1c.2-.3-1-5.8-2.6-12.3-3.1-12.3-4.1-18.2-9.1-51.1-4.6-30.3-10.4-53.2-19.1-75.1-1.6-4-2.9-8.5-2.9-10.1 0-4.2-3.4-14-7.1-20.7-8.3-15-15-19.4-29.7-19.4h-8.9l-5.1-7.8c-2.8-4.2-7.5-10.5-10.4-13.9s-6.5-8-8-10.2c-2.4-3.6-3.3-4.1-6.5-4.1-2.1 0-5.4-.3-7.3-.6-2.3-.3-4.7.1-7 1.3m59.4 264c.4 3.7.9 7.8 1.3 9 .3 1.3.1 2.3-.5 2.3-1.1 0-3.2-9.8-3.2-15.2 0-6.2 1.7-3.5 2.4 3.9"/></svg>