<svg xmlns="http://www.w3.org/2000/svg" width="682.667" height="512" version="1.0" viewBox="0 0 512 384"><path d="M0 192v192h54v-13.9c0-7.7-.5-16.3-1.2-19.3-.6-2.9-6.1-15-12.1-26.8-16.6-32.6-21.5-46.4-26.1-73.5-4-23.1-4.9-37.2-4.3-63.2.8-30.9 3.5-49 12.3-81.2 1.9-6.7 3.4-12.8 3.4-13.4s-1.6-2.8-3.6-4.8c-3-3.1-3.5-4.2-3-6.4 1.2-4.9 8.4-5.8 21.2-2.5 11.2 2.9 39.1 12.4 45.9 15.6 3.1 1.5 5.9 3.3 6.2 4 .2.7 1.6 1.7 3.1 2.3 2.5 1 24.7 7.4 31.7 9.1 1.7.4 13 3.5 25.3 6.9 12.2 3.3 22.9 6.1 23.6 6.1 2.1 0 5.4-5.8 12.1-21.5 8.6-19.7 22.2-38.7 28.8-39.9 11.1-2.1 14.5-3.2 19.4-6.2 7.9-4.7 15.4-6.8 24.3-6.8 6.7 0 8.3.4 14.5 3.6 3.9 2 11 6.5 15.8 10.1 8.2 6 8.6 6.5 6.2 7.1-2.2.6-2.4.9-1.4 2.7 1.7 3.3 1.6 10.4-.2 12.5-.9 1.1-2.1 3.2-2.7 4.9-.6 1.8-1.1 2.3-1.1 1.2-.1-2.4-2.1-1.1-2.1 1.4 0 1.8.7 2.3 6.9 4.4 1.1.4 1 1-.4 3.1-.9 1.4-1.4 3.3-1.1 4.1.4.8.1 5.3-.6 9.9-.9 6.4-1.6 8.5-2.9 8.9-1 .4-1.6 1.2-1.3 1.9.5 1.4-1.7 1.4-6.5 0-2.4-.7-2.4-.7-.8 1.7 2.3 3.1 2.1 4.2-.3 2.9-1.5-.8-2-.8-1.9.2.2 4.8 6.7 9.5 15.6 11.4 8.2 1.7 11.9 3.7 17.3 9.5l4.5 4.8 30.6 5.5c37.6 6.7 40.9 7.2 40.9 5.7s4.1-1.3 6.4.4c1.6 1.2 2.1 1.1 4.3-1.5 2-2.5 2.8-2.8 4.4-2 1 .6 1.9 1.7 1.9 2.6 0 1.2.4 1.2 2.5-.2 2.4-1.6 2.7-1.5 4.5.1 1 .9 2.4 1.4 3 1 1.5-.9 4 1.3 4 3.6 0 2.5 1.6 2.4 2.3-.1.7-2.9 3.2-2.5 5.6.9 1.8 2.4 3.1 3 9.3 3.9 14.1 2.1 70.7 9.2 73.4 9.2.2 0 .4-41.4.4-92V0H0z"/><path d="M79.1 115.5c-3.8 10.2-11 33.3-13.5 43.6-5.7 23.4-8.2 65.9-5.2 90.9 2.5 21.2 5.3 30.6 20.1 67.7 7 17.8 9.5 25.1 9.5 28.5 0 2.6-2 10.5-5 19.6-2.7 8.3-5 15.9-5 16.7 0 1.3 4.8 1.5 38.8 1.5h38.8l7.9-9.8c4.4-5.3 22.4-24.1 40-41.7 25.3-25.2 33.6-34.2 39.4-42.5 4.1-5.8 9.2-12.9 11.4-15.7 3.5-4.7 3.8-5.6 2.9-8.2-.6-1.6-.8-3.1-.6-3.4.3-.3-3.5-3.5-8.3-7.3-17.4-13.4-24.1-19.4-25.8-23-3.7-7.8-.6-18.6 9.5-33.5 3.9-5.6 4-6 3.3-11.9-.5-5.3-.3-6.5 1.6-9 2.2-3.1 2.5-5.2 1.1-8.5-.7-1.9-.9-1.8-1.9.7-.7 2-1.8 2.8-3.5 2.8-1.9 0-2.6.7-3.1 3-.6 2.9-2.5 4.3-2.5 1.8 0-.6-1-.3-2.2.8l-2.1 1.9.6-3.3c.6-3 .5-3.3-1.3-2.7-1.5.5-2 .2-2.1-1.2 0-1.5-.2-1.4-.9.4-1.5 3.8-3 2.6-3-2.4s-.8-5-2.7 0c-1 2.7-1.2 2.9-1.2.9-.1-1.3-.5-2-1.1-1.7-1.3.8-1.3.4.4-3.6.7-1.9 1.7-4.7 2-6.4l.7-2.9-2.2 1.9c-1.2 1.1-3.7 4.2-5.5 7-4.3 6.3-4.3 4.2 0-6 1.9-4.4 3.3-8.1 3.1-8.3s-1.3.2-2.5.8c-3.6 1.9-3.5.3.4-4 4.1-4.5 4.8-7.1 1.4-4.6-1.3.9-3.6 2.3-5.3 3.2-2.6 1.5-2.8 1.5-1.7.1 1.1-1.3 1.1-1.5-.2-1.3-.8.1-2.3.9-3.3 1.7-3.3 2.9-4.2 3-3.5.7.4-1.6.2-1.9-.9-1.3-1.2.8-1.2.6 0-.8.9-1.2 1-2.1.3-3-.5-.6-1.1-2.1-1.3-3.1-.5-2.6-11.4-5.4-19.3-5-4.8.3-5.6.1-4.7-1 1.4-1.7-.6-2.5-14.4-6.1-5.5-1.5-21.7-6.1-36-10.2-20-5.8-27.6-7.6-32.8-7.7l-6.7-.1zm239.3 53.1c-.4 1.6-.2 3.5.6 4.8.8 1.2 2 3.4 2.8 5.1.9 1.6 2.8 4.6 4.4 6.6 4.6 6 6.8 11.8 6.8 18.5 0 9.9.5 10.1 14 5.4 6.3-2.1 18.5-6 27-8.5 8.5-2.6 16.1-5.2 16.9-6 1.2-1.2 1.2-2.4.1-7.7-.7-3.5-1.6-6.6-1.9-7-.3-.3-15.9-3.4-34.6-6.8-18.6-3.4-34.3-6.4-34.7-6.6-.4-.3-1 .7-1.4 2.2M425 191.9c-4.3 8-14.5 18.1-22.8 22.4-7.7 4-44.7 19.5-53.9 22.6-8.3 2.8-14.5 2.7-21.1-.4l-5.4-2.5.7 4c.5 2.9.2 4.7-.9 6.4-1 1.6-1.5 4.8-1.5 10v7.7l5 5c5 5 6.3 9.1 3.7 11.7-.9.9-.6 2.4 1.2 6.4 3 6.5 8 14.4 11.2 17.8 6.8 7.1 19.6 27.9 18.3 29.9-.5 1-5.9.8-10.3-.2-1.4-.4-2-.2-1.6.5 1.2 1.9 6.1 22.1 8.4 34.3 1.2 6.6 2.4 13 2.6 14.2l.4 2.3h153V202.5l-15.7-3.4c-12.1-2.5-66.9-13.1-68-13.1-.1 0-1.6 2.6-3.3 5.9"/><path d="M248 218.1c-2.3 2.7-4.1 5.1-3.9 5.2s2.8 2.4 5.7 5c7.6 6.9 8.7 5.3 5.5-8.1-.9-3.9-2-7.2-2.3-7.2-.4 0-2.6 2.3-5 5.1"/></svg>