<svg xmlns="http://www.w3.org/2000/svg" width="682.667" height="512" version="1.0" viewBox="0 0 512 384"><path d="M0 192v192h56v-14.3c0-9.3-.5-16.4-1.5-20.2-.8-3.3-7.1-17.3-14-31-13.2-26.5-17.8-38.3-21.9-56.6-9.3-41.4-9.8-86.7-1.7-128.7 2.2-11.4 8.5-36.3 10.1-40.1.9-2 .6-2.9-3-6.4-2.2-2.3-4-4.7-4-5.4 0-2 3.6-5.2 6.7-5.9 3.5-.9 17.7 2.5 37.8 9.1 18.7 6.2 26.4 9.5 29.1 12.3 2.2 2.3 4.4 3 48.9 15.2l33 9 2.8-3.2c1.5-1.8 6-10.1 10.1-18.3 4-8.3 9.1-17.3 11.2-20 2.2-2.8 5-6.6 6.2-8.7 3.5-5.6 9.6-10.6 13.9-11.3 8.7-1.4 10.1-1.9 16.3-5.7 12.7-7.6 26-9.8 34.9-5.7 8.7 4.1 12.6 6.3 18.5 10.6 3.3 2.4 6.7 4.8 7.5 5.3 1.4.8 1.4 1-.3 2.3-1.4 1-1.6 1.8-.9 3.3 1.5 3 1.4 12.4-.2 12.4-.7 0-1.6 1.7-2.1 3.7-.4 2.4-.9 3.1-1.2 2-.4-1.8-.4-1.8-1.7 0-1.7 2.2-.5 3.9 4.2 5.8 3.4 1.4 3.4 1.4 1.7 4.1-1.4 2-1.5 3-.7 4.3.6 1 .8 2.3.4 3-.5.7-.9 3.8-1 6.9-.1 5.1-.5 6-3.4 8.4-2.4 2-3.9 2.5-6.1 2.1-2.6-.6-2.7-.4-1.7 1.5 1.5 2.8 1.4 3.1-.8 2.5-1.5-.4-1.8 0-1.4 2.1.7 3.7 8.3 8.5 15 9.6 8.6 1.4 15 5.3 19.5 11.8 1.7 2.6 5.8 3.4 48.3 10.7 20.9 3.5 25.2 4 26.3 2.9 1.8-1.8 4.1-1.8 6.3.2 1.6 1.4 1.9 1.4 3.5-1.1 2.2-3.4 6.5-3.2 7.4.5.5 2.1.7 2.2 1.3.7.4-1 1.7-1.7 3.2-1.7 1.9 0 2.5.5 2.5 2.2s.3 1.9 1.2 1c1.9-1.9 3.7-1.4 5 1.3 1 2.2 1.2 2.3 2.3.9 1.5-2.1 4.8-1.4 5.9 1.3.8 1.7 2.4 2.3 8 3.2 11 1.6 71.5 9.1 73.6 9.1.7 0 1-29.4 1-90.5V0H0z"/><path d="M92.4 108.9c-.3.3-2.9.6-5.6.6h-5.1L77.8 121c-6.5 19.3-11.6 37.9-13.9 50.5-2 10.7-2.2 15.7-2.3 46-.1 32.1 0 34.6 2.2 45 2.7 12.5 8.9 30.6 18.7 54.5 9 22.2 9.8 24.7 9.1 29.1-.3 2.1-2.6 9.7-4.9 17.1-2.4 7.3-4.7 15-5.1 17.1l-.7 3.7h72.6l6-7.7c6-7.6 32.4-34.5 63.1-64.3 16.5-15.9 17.1-16.6 23.9-26 2.1-3 6.3-8.7 9.2-12.6 5-6.8 5.2-7.2 4.1-10.7-.9-2.8-3.3-5.3-11.7-11.8-5.8-4.6-13.2-10.5-16.3-13.1-12.2-10.4-11.4-20 3.4-42.3 3.4-5.1 3.8-6.3 2.9-8.3-1.5-3.2-1.4-6.8.4-10.1 1.1-2.2 1.2-3.7.4-6.5-1.2-4.3-1.6-4.4-2.9-1.1-.5 1.4-1.6 2.5-2.2 2.4-2.7-.3-3.5.2-4.7 2.7-.9 2.1-1.4 2.4-2.6 1.4-1.1-.9-1.5-.9-1.5-.1 0 .6-.5 1.1-1.1 1.1-.8 0-.9-1.1-.5-3.2.5-2.5.4-3-.6-2-1.7 1.7-2.8 1.5-2.9-.6 0-1.4-.2-1.4-.7-.2-1.5 3.2-3.2 2-3.2-2.2 0-4.5-.9-4.4-2.7.5-1 2.7-1.2 2.9-1.2.9-.1-1.3-.5-2-1.1-1.7-1.4.9-1.3.3 1-4.6 1.1-2.4 2-5.3 2-6.4 0-1.6-.7-1.3-3.8 2-2.1 2.2-4.3 4.9-4.9 6-.7 1.1-1.4 1.8-1.6 1.5-.3-.3 1.2-4.4 3.3-9.2 3.8-8.6 3.8-8.7 1.3-7.7-4.6 1.7-4.7.9-.5-3.4 2.3-2.3 4.2-4.8 4.2-5.5 0-1.4-2.6-1.6-3.5-.2-.3.5-2 1.9-3.7 3.2-2.6 1.8-3 1.9-2.5.5.3-.9.2-1.7-.4-1.7s-.7-.6-.3-1.3c.4-.6-.6-.1-2.2 1.3s-4 3.4-5.3 4.5l-2.5 2 2.4-3.5 2.5-3.5-3 1.9-3 1.9 3-3.4c1.7-1.8 2.3-2.8 1.4-2.1-2 1.5-3 .5-2.3-2.4.5-2 0-2.4-4.7-3.8-2.9-.9-6.5-1.6-8-1.6s-3.1-.5-3.4-1c-.4-.6-2.4-.8-4.8-.4-2.7.4-3.7.2-2.9-.4 1.5-1 .9-1.3-44-13.9-17.5-5-32-8.7-32.4-8.4m226.3 55.8c-1.2 1.1-.8 5 .7 6.2.8.6 2 2.6 2.7 4.4s3 5.5 5.2 8.4c4.4 5.9 6.7 12.5 6.7 19.2 0 7.4.6 7.7 9.1 4.6 4.1-1.4 16.4-5.3 27.4-8.6s20.6-6.6 21.4-7.4c1.1-1.1 1.2-2.2.3-5.7-.6-2.4-1.3-5.4-1.6-6.8-.5-2.4-1.2-2.7-11.3-4.4-5.9-1-21.7-3.8-35-6.2-27.6-5-24.8-4.6-25.6-3.7m107.2 24c-4 7-12.5 16.2-18.8 20.3-5.1 3.2-42.2 19.2-55.8 24-10.8 3.8-16.3 3.9-23.5.2l-5.4-2.7-.1 6c-.1 3.3-.5 9.7-.8 14.3l-.7 8.3 4.6 4.9c3.6 3.8 4.6 5.7 4.6 8.3 0 1.8-.4 3.7-1 4.3-1.3 1.3 6.1 15.6 11 21.5 9.6 11.5 20 27.8 20 31.4 0 1.8-5.1 2.1-8.2.4-1.1-.6-2.2-.8-2.5-.6-.2.3.7 4.3 2 8.9 2.8 9.1 6.9 27.2 8.9 38.5l1.2 7.3H512V199.3l-5.2-1.1c-2.9-.6-12-2.5-20.1-4.2-8.1-1.6-23.4-4.6-33.9-6.5-10.5-2-20.1-3.8-21.3-4.1-1.9-.5-2.8.3-5.6 5.3"/><path d="m248.8 215.3-4.6 5.4 6.4 5.7 6.3 5.7.7-2.7c.6-2.5-1.8-14.8-3.5-18.2-.5-.8-2.2.6-5.3 4.1"/></svg>