<svg xmlns="http://www.w3.org/2000/svg" width="682.667" height="512" version="1.0" viewBox="0 0 512 384"><path d="M0 192v192h56.5l-.1-16.8c-.1-19.8-1-23.1-11.8-43.2-18.8-34.8-25.2-54.1-30.3-91-2.2-16-2.5-63.6-.5-78 2.4-17 6.2-34.6 11.4-53.8l3.1-11.3-3.7-3.8c-5.4-5.5-4.8-8.6 2.1-10.9 4.1-1.4 15.8 1.3 39.5 9.2 17.3 5.7 23.1 8.2 28.4 12.1 2.8 2.2 22.8 8.1 61.9 18.5 6.6 1.7 13.4 3.6 15 4.1 2.8.9 3.3.7 6.5-2.9 1.9-2.2 7.1-10.8 11.4-19.2 4.3-8.3 9-16.6 10.5-18.4 1.5-1.7 4.8-6.1 7.4-9.8 4.9-6.9 11.2-11.2 15.9-10.7 1.3.1 3.6-.3 5.1-.9 1.6-.7 3-1.2 3.2-1.2s2.3-1.3 4.7-2.9c6.6-4.5 15.6-7.1 24.1-7.1 9.3 0 15.3 2.5 28.5 11.7 8.2 5.7 9.1 6.6 7.6 7.7-1.4 1.1-1.5 1.6-.3 3.7 2.1 3.9 1.3 13.9-1.1 12.4-.4-.3-1.1 1.2-1.5 3.3-.6 3-.9 3.3-1.5 1.7-.7-1.9-.7-1.9-1.4.2-.9 3-.2 4 4 5.8l3.5 1.5-1.7 2.9c-1.4 2.4-1.5 3.2-.5 4.5.7.8.9 2.1.5 2.8-.4.6-.9 3.9-1.2 7.2-.5 7.6-3 10.5-8.7 9.9l-3.8-.4 1.7 2.7c1.7 2.5 1.7 2.6-.3 1.9-1.7-.5-2.1-.2-2.1 1.9 0 3.4 7.6 8.4 14.6 9.7 8.5 1.6 12.5 3.7 17.9 9.4l5 5.2 30 5.2c16.5 2.9 32.3 5.6 35 6.1 3 .5 5.4.5 6-.1 1.2-1.2 6.2-1.2 7 .1 1 1.6 2.1 1.2 3.5-1.5 1.7-3.1 4.4-3.2 6.4-.3 1.2 1.7 1.8 2 2.8 1 1.6-1.6 4.5-1.5 5.1.2.3.8 1.5 1.2 3.1.9 2.1-.4 2.6-.1 3.2 2.1.7 2.8 2.4 3.6 2.4 1.1 0-2.6 4.9-1.9 6 .9.7 2 1.9 2.6 7.7 3.5 8.2 1.3 71.2 9.1 73.9 9.1.2 0 .4-40.5.4-90V0H0z"/><path d="M81.4 111.9c-5.2 12.5-15.3 48.6-17.3 61.8-2.2 14.3-3.3 46.4-2.2 63.5 1.7 26.8 4.6 37.4 21.6 79.7 5.2 13.1 9.5 24.7 9.5 25.8 0 1.2-2.3 9-5 17.4-2.8 8.5-5.3 17.3-5.7 19.6l-.6 4.3h69l9.9-11.2c15.3-17.6 21.2-23.5 46.6-46.9 13-12 26.3-24.9 29.7-28.6 9.1-10.3 25.1-32.6 24-33.8-.5-.5-.9-1.7-.9-2.6 0-1-6.6-7-15.7-14.3-8.7-6.9-16.7-13.8-17.8-15.3-1.6-2.2-2-4.4-2-10.3 0-6.9.3-8.1 3.9-14.5 2.2-3.9 5.5-9.3 7.3-12.1 3.3-4.9 3.4-5.4 2.3-9.1-1-3.2-.9-4.6.3-7.5 1.2-2.8 1.3-4.4.4-7.7-1.3-4.7-2.2-5.2-3.1-1.5-.5 2-1.2 2.5-2.7 2.1s-2.5.2-3.7 2.4c-1.8 3-3.2 3.8-3.2 1.7 0-.9-.3-.9-1.2 0-1.9 1.9-2.6 1.4-2-1.3.3-2 .1-2.4-1.2-1.9-1.2.5-1.6 0-1.6-1.6 0-2.2-.1-2.2-2.6.6l-2.7 2.8.7-4.9c.9-5.8-.4-5.3-2.9 1-1.5 3.9-1.5 3.9-1 .7.3-2 .1-3.1-.5-2.7-1.5.9-1.2-.8 1-5.6 3-6.7 2.6-8.4-1.1-4.7-1.6 1.7-4.1 4.7-5.5 6.7-3.5 5.2-3 1.7 1.1-6.8 1.9-4 3.5-7.5 3.5-7.8 0-.2-1.4-.2-3.1.2l-3.1.7 4.6-4.8c6-6.2 4.7-8.2-2.1-3.4-2.9 2.1-4.4 2.8-4 1.8.7-1.9-1.9-3.3-2.9-1.6-.5.7-.2.8.6.3q1.35-.75.6.3c-.4.7-1.2 1.2-1.8 1.2s-2.7 1.2-4.7 2.7l-3.6 2.8 2.3-2.9c2.5-3.2 2.2-4.6-.5-2.5-1 .7-.4-.2 1.2-2.1 1.7-1.9 2.3-2.9 1.5-2.3-2.1 1.6-4.2.3-3-1.7.6-.8 1-1.8 1-2.1 0-.6-11.1-4.1-14-4.4-.9 0-2.1-.4-2.8-.9-.7-.4-3.1-.5-5.2-.1-3.2.5-3.9.4-3.5-.7.4-1-1.4-1.9-6.7-3.2-4-1.1-19.9-5.5-35.3-9.9-22-6.2-29.6-8-35.3-8.1l-7.3-.2zM318.5 165c-.5 1.5.1 3.3 1.9 5.9 1.4 2 2.6 4.1 2.6 4.7 0 .5 2 3.6 4.4 6.9 4.7 6.2 6.6 11.6 6.6 18.8 0 2.4.6 5.1 1.3 6.1 1.3 1.7 1.7 1.7 8.8-.9 4.1-1.4 16.1-5.3 26.8-8.5 10.7-3.3 20.1-6.6 20.9-7.4 1.3-1.3 1.3-2.3.1-8.3l-1.5-6.8-4.4-.7c-7-1.2-60.1-10.6-63.6-11.4-2.7-.5-3.3-.3-3.9 1.6m-77.5 6.1c0 .5.5.7 1 .4.6-.3 1-.8 1-1.1 0-.2-.4-.4-1-.4-.5 0-1 .5-1 1.1m184.5 17.4c-4.8 8.7-13.5 17.2-22.2 21.8-7.8 4.1-44.4 19.3-54.7 22.7-8.4 2.8-15.5 2.3-22.2-1.4-3.8-2.1-4.5-2.3-3.9-.8 1.5 3.8 1.6 6.8.4 9.7-.7 1.6-1.3 6.5-1.3 10.9l-.1 7.8 4.8 4.8c4.9 4.9 6 8.6 3.2 11-1.2 1-.9 2.3 2.5 9s9.9 16 14.7 20.9c3.9 3.9 14.5 22.9 13.7 24.3-.7 1-7.3.6-9.2-.6-2.2-1.3-2.2-.2-.2 7 3.2 11.1 6 23 8.4 35.9l2.3 12 75.1.3 75.2.2V198.2l-2.2-.5c-11.8-2.5-50.3-10.1-61.8-12.2-8-1.4-15.5-2.8-16.6-3.1-1.8-.5-2.8.5-5.9 6.1"/><path d="m248.8 214.4-4.6 5.1 6.3 5.7c3.5 3.2 6.6 5.8 6.9 5.8 1.8 0-1.2-19.1-3.3-21.1-.3-.3-2.7 1.8-5.3 4.5"/></svg>