<svg xmlns="http://www.w3.org/2000/svg" width="682.667" height="512" version="1.0" viewBox="0 0 512 384"><path d="M0 192v192h57.5l-.6-18.2c-.3-10.1-1.1-20-1.8-22-.6-2-4.5-10.1-8.7-18C21 277.2 14.5 252.6 13.3 200c-.9-39.3 2.6-65.2 13.8-103.4l2.1-6.9-3.7-3.7c-5.1-5.2-4.7-8.7 1.2-10.8 4-1.5 4.7-1.4 16.2 1.6 24.9 6.7 47 14.8 51.2 18.8 2.2 2.1 9 4.3 38.9 12.5 20 5.4 37.3 9.9 38.5 9.9 3.6 0 10.2-8.4 17-21.9 4.1-8.2 8-14.5 10.8-17.6 1.1-1.1 3.6-4.5 5.7-7.6 5-7.3 10.1-11.7 14.5-12.4 1.9-.3 5-.7 6.8-1 1.7-.3 6.1-2.3 9.7-4.5 9.3-5.7 15.1-7.5 24.5-7.4 9.7 0 15.2 2.3 29.1 12 9.3 6.5 11 7.9 7.7 6.7-1-.4-1.4-.2-1 .4s.1 1.3-.5 1.6c-1 .3-1 .7-.1 1.9.7.8 1.3 3.5 1.4 5.9.2 4.6-1.7 8.9-5.5 12-2.4 2-1.5 3.6 3 5.5 3.8 1.6 4 2.1 1.9 4.8-.9 1.2-1.1 2.5-.6 3.5.4.9.3 5.4-.3 10.1-.9 6.9-1.5 8.5-2.9 8.8-1 .2-1.6.9-1.4 1.6.5 1.4-1.6 1.3-6.3 0-2.5-.8-2.5-.7-.7 1.9 2.2 3.4 2.2 4-.3 2.7-3.2-1.7-2.6 2.5.8 5.6 3.7 3.5 6.9 5 12.2 5.9 7.3 1.1 13.2 4.3 18 9.5 4.6 5 4.6 5 15.6 7 37.9 7 58.9 10.2 60.6 9.1 2.5-1.5 5.3-1.4 6.8.4 1.1 1.4 1.6 1.2 3.9-1.5 2.8-3.4 5.5-3.3 6.7.2.5 1.8.7 1.8 2.3.3 2.1-1.8 5.1-1.1 5.1 1.2 0 1.2.3 1.3 1.5.3 1.8-1.5 3.3-.6 4.7 2.8l1 2.7.9-2.3c1.2-3.1 4.5-2.8 6.1.5 1.2 2.6 1.9 2.8 14.3 4.5 14 1.9 49.8 6.2 60.8 7.3l6.7.7V0H0z"/><path d="M92.8 108.1c-.7.5-3.1.6-5.4.3l-4.1-.6-2.6 7.4c-6.5 18.1-12.8 40.5-15.2 54-3.9 21.7-4.4 68-1 87.3 2.7 15.4 7.6 30.3 19.6 59.6 3.8 9.2 7.6 18.8 8.4 21.3 1.8 5.3 1.9 5-4.9 25.7-2.5 7.5-4.8 15.2-5.1 17.2l-.7 3.7h66.7l2.8-4c8.3-11.8 36.5-39.7 63.7-63.1 18-15.6 24-21.8 36.3-38.3 13.3-17.8 13.5-16.7-4.7-31-20.6-16.3-23.1-19.4-22.4-28 .5-5.9 3.9-13.4 10.9-24.1 4-6.1 4.7-8 3.9-9.5-1.8-3.3-1.1-8.5 1.5-12.4s3.1-5.6 1.6-5.6c-.5 0-1.2 1.1-1.5 2.5-.9 3.4-2.2 2.4-3.1-2.2l-.7-3.8-1.4 2.8c-1 1.8-2.3 2.7-3.8 2.7-1.8 0-2.7.8-3.5 3.2-.9 2.5-1.4 3-2.1 1.9-.7-1.2-1.1-1.2-2.4-.2-1.4 1.2-1.6 1-1.6-1.3 0-1.6-.5-2.6-1.5-2.6-.8 0-1.5-.6-1.5-1.3 0-.9-.3-.8-.9.2-.7 1.1-.9 1.1-1.4 0q-.6-1.5-.6.3c-.1 1-.4 1.8-.9 1.8-.4 0-.6-1.9-.4-4.1.5-4.8-1.2-4.7-2.3.1-.4 1.6-1.1 3.3-1.7 3.6-.6.4-.8-.2-.3-1.6s.2-2.5-.6-3c-1-.7-.9-1.3.3-3.2.9-1.4 2.1-4.1 2.6-6.1l1-3.7-2.5 2c-1.5 1.1-4 3.8-5.6 6.1-1.6 2.2-3.1 3.8-3.4 3.5-.2-.2 1.4-4 3.6-8.5 2.3-4.4 4.1-8.3 4.1-8.6 0-.6-2.3-.1-5.8 1.3-.7.2 1-2 3.9-4.9 4.7-4.9 5.1-5.4 3.1-5.7-1.2-.2-3.4.5-4.9 1.6-1.6 1-3.9 2.5-5.3 3.2-2.5 1.3-2.5 1.3-.7-.8 1.4-1.5 1.5-2.2.6-2.8-.7-.4-1.7-.1-2.3.7s-2.2 2.3-3.5 3.4l-2.4 2 .8-2.4c.5-1.7.4-2.1-.5-1.6-.9.6-.9.3-.1-1.3.8-1.5.8-2.3-.1-2.8q-1.05-.75-.3.6c.5.8.4 1.1-.2.7s-.8-1.7-.6-3c.4-2.2-.1-2.5-7.4-4.5-4.3-1.2-9.8-2.4-12.3-2.8s-4.9-1-5.5-1.4c-.5-.4-7.1-2.4-14.5-4.4-7.4-1.9-23.5-6.4-35.7-9.9-13.8-4-22.7-6.1-23.5-5.6m226.9 54.5c-1.4 1.4-.7 5.6 1.3 8.1 1.1 1.4 2 3.1 2 3.7s2 3.8 4.4 7c4.8 6.4 6.6 11.2 6.6 17.3 0 5.9 1.9 10.6 3.9 9.7 5.8-2.5 16.1-5.9 33.1-11 10.7-3.2 20.2-6.6 21.2-7.6 1.4-1.4 1.6-2.3.8-4.3-.6-1.5-1-3.8-1-5.3s-.4-3.3-.8-4c-.5-.7-10.4-2.9-23.8-5.2-23.5-4.2-41.4-7.5-44.9-8.5-1.1-.4-2.4-.3-2.8.1M426 187.7c-4.8 8.4-14 17.5-21.8 21.6-9.7 5-46.8 20.4-56.2 23.3-8.8 2.7-19.5.9-25.3-4.3-1.7-1.6-1.7-1.6-.2 1.3 1.7 3.3 2 10 .5 10.9-.5.3-1 4.5-1 9.2v8.6l4.5 4.8c4.6 4.9 5.8 9.2 3.4 11.6-1.8 1.8 5.3 14.8 14.1 25.8 7.4 9.4 17 24.8 17 27.3 0 1.6-7.2 1.6-8.8 0-.8-.8-1.5-.9-2.2-.2s.1 5.6 2.5 15c1.9 7.6 4.5 20.1 5.8 27.6l2.2 13.8H512v-93.5c0-51.4-.3-93.5-.7-93.5-.5 0-9.8-1.8-20.8-4.1-23.9-4.8-57.2-10.9-59.6-10.9-1 0-3 2.2-4.9 5.7"/><path d="m249.1 214.1-4.4 4.9 5.9 5.5c5.7 5.3 7.3 6.3 7.5 4.7.7-3.7.6-6.2-.1-8.7-.5-1.7-1.4-4.9-2-7.3-.6-2.3-1.4-4.2-1.8-4.1s-2.7 2.3-5.1 5"/></svg>