<svg xmlns="http://www.w3.org/2000/svg" width="682.667" height="512" version="1.0" viewBox="0 0 512 384"><path d="M333.8 14.9c-8.4 4.2-11.9 23.1-6.8 36.6.6 1.5.9 2.9.8 3-.2.1-3.4 1-7.3 2-14.8 3.8-26.8 10.6-37.3 21.3-7.7 7.9-11.3 14.1-14.8 25.4-1.9 6-3.8 10.1-6.1 12.8-3.6 4.1-3 5.2 1.2 2.4l2.5-1.6-1.6 3.8c-1.5 3.6-1.5 3.7.2 2.4 1.6-1.4 1.7-1.1 1.2 4.6-.6 6 .5 10.9 1.4 6.8.3-1.2.7-.5 1.3 2.1 1.1 5.5 2.4 7.8 2.6 4.5.1-2.5.1-2.5.7-.2.4 1.3 1.1 2.3 1.6 2.2s1.2.4 1.7 1.2c.5.7 1.2 1.3 1.7 1.3.4 0 2.3 1.7 4.1 3.7 3.9 4.5 6.6 5 5.9 1.3-.4-2-.3-2.3.8-1.4 2.9 2.4.4 10.1-4.6 14.3-3.8 3.2-3.4 5.6 1.4 8.4 2.3 1.4 3.6 3.1 4.1 5.3.7 3.2 3.8 8.4 6.2 10.4.7.5 2.2 3.2 3.3 6 2.3 5.4 3.4 6.5 6.8 6.5 1.9 0 2.2.5 2.2 4.4 0 2.5-.4 5.6-1 7-.7 2-.6 2.6.9 3.1 2.1.6 3.1 6.5 3.1 18.5 0 6.9-.4 8.3-4.5 16.5-2.5 4.9-4.5 9.7-4.5 10.5s-.9 2.9-2 4.7c-1.7 2.9-2.2 3.1-5.1 2.3-3.5-1-8.4.5-10.8 3.3-1.3 1.6-1.1 7.6.5 15.7.6 3.4-14.1 23.4-16.5 22.5-6-2.4-40.5-9.1-56.1-11-4.9-.6-5.8-1.1-8.2-4.6-2.2-3-2.8-5.1-2.8-9.2-.1-10.7-3.4-21-8.2-25.3-4.4-4.1-8.5-4.8-17-3-4.2.9-8 1.6-8.3 1.6s-.5-1.7-.5-3.8c0-4.2-1.3-7.1-2.4-5.3-.4.6-.6 3-.5 5.3.4 4.7.7 4.4-10.2 8.8-4.2 1.7-8.3 3.9-9.1 4.8s-2.4 5.4-3.7 9.8c-2.2 7.7-2.2 8.5-.8 13.5.9 3 2 8 2.6 11.2.8 4.7 2 6.9 6.6 12.5 3.1 3.8 6.8 7.5 8.3 8.4 3.4 2 15.5 5.3 25 6.8 6.2 1 7.2 1.5 6.7 2.9-1.3 3.2-4.6 21.9-6.1 34.5-.8 7.1-1.9 13.7-2.4 14.7-.6 1-1 2-1 2.3s58.7.6 130.5.6c88.7 0 130.5-.3 130.5-1 0-1.6-5.9-12.9-9.2-17.8-4.6-6.7-6.7-12.3-7.4-19.9-.7-7.9-.4-8.4 6.6-9.8 6.7-1.3 17.3-7.5 12.8-7.5-.7 0 .2-1.5 2-3.3s3.2-3.6 3.2-4-2.4-.7-5.2-.6c-4 .2-7.6 1.3-14.2 4.6-4.9 2.3-9.6 4.3-10.3 4.3-.8 0-1.3-1.3-1.3-3.4 0-1.9-.5-3.8-1.1-4.2-.6-.3-.8-2-.5-3.8.3-1.7.1-5.8-.5-9.1s-1-6.9-1-8c.1-2.8-2.9-21.6-3.6-22.8-.4-.6 0-.8 1-.4 1.4.5 1.4.2.1-3.5-1-2.8-1.1-4.5-.4-5.2s1-.4 1 1c.1 1 .7 3 1.4 4.3 1.3 2.3 1.3 2.3 1.9-1.3.3-2.1.4-7.6.1-12.4l-.4-8.7 2.7 7.7c1.6 4.2 3.2 8 3.7 8.5s.6-3.8.2-10.1c-.5-7.6-.4-10.6.3-10.1.6.3 1.1 2.7 1.2 5.3 0 2.6.4 5.6.9 6.7.7 1.6.9 1.2 1-2 .2-2.2.2-4.3.1-4.8-.4-2.9 5.6 1.8 9.4 7.3 2.6 3.8 3 4 3.8 2.3.6-1.4-.1-4.6-2.2-10.8-3.3-9.1-6.6-26.1-7.5-38l-.5-7 1.3 5c1.8 7.4 8.7 21.3 15.2 31.1 5.7 8.5 8.5 11.6 7 7.8-.5-1-2.3-5.9-4.1-10.7-2.8-7.4-3-8.6-1.4-7.1 2.4 2.2 2.4 1.5-.6-7.9-1.4-4.3-2.5-8.3-2.5-8.9s3 3.2 6.8 8.5c6.1 8.9 9.5 12.3 7.7 7.9-3.3-7.8-6.7-26.5-12.5-68.2-2.7-18.8-8.2-41.1-14.3-58-2.5-6.9-4.9-14.8-5.2-17.5C423.9 78 417 64 409.4 56.4c-5.3-5.3-12-7.6-21.7-7.4-3.9.1-7.7.2-8.3.1s-2.4-2.2-4.1-4.9c-1.6-2.6-5.8-8.2-9.4-12.5-3.5-4.3-8.2-10.1-10.4-12.9l-4.1-5-7.1-.3c-5.2-.2-8.1.2-10.5 1.4m74 241.2c-.3.8-.7.3-1.1-1-.4-1.7-.3-2.1.5-1.3.5.5.8 1.6.6 2.3m2.8 10.7c-1 .9-3.5-5.8-2.9-7.5.5-1.4 1-.8 2 2.6.7 2.5 1.1 4.6.9 4.9m-14.4 7.4c.5 2.4 1.1 7.7 1.3 11.8l.4 7.5-1.5-4c-1.6-4.2-3.2-21.5-1.9-20.3.4.4 1.2 2.7 1.7 5m3.8 21.9c0 .6-.4.7-1 .4-.5-.3-1-1.1-1-1.6 0-.6.5-.7 1-.4.6.3 1 1.1 1 1.6"/></svg>