<svg xmlns="http://www.w3.org/2000/svg" width="682.667" height="512" version="1.0" viewBox="0 0 512 384"><path d="M0 192v192h62v-14.8c0-19.7-1.4-24.7-13.4-47.2-10.4-19.6-15.1-29.8-18.9-41.5C21.5 255.8 17 223.7 17 191c0-27.2 3.9-54 12.2-84.8l4.1-15.3-3.6-3.7c-4.6-4.7-4.8-7.6-.5-9.8 4.4-2.3 11.2-1.4 27.3 3.4C82 88.5 94.9 93.5 98.8 97.2c1.5 1.3 3.6 2.7 4.7 3 44.5 12.4 61.4 16.7 63.4 16.1 2.3-.6 2.3-.7.5-1.4-1-.4-3.4-.8-5.3-.8-2.9-.1-3.2-.3-2.1-1.6.7-.8.9-1.5.4-1.6-.5 0 1.6-.9 4.6-2l5.5-1.9-4.5.5-4.5.6 5.6-2.4c7.9-3.3 11-5.7 19-15 9.5-11 25.4-26.2 30.7-29.3 3.1-1.9 5.9-2.7 10.1-2.9 5.9-.2 6.8-.6 17.1-6.3 6.5-3.6 15.6-6.2 21.8-6.2 6 0 16.7 4.8 28 12.7 5 3.5 9.2 6.6 9.2 6.9s-.4.2-1-.1-1-.1-1 .5-.4.8-1 .5c-1.4-.9-1.2.8.3 2.9 1.7 2.4 1.2 11.2-.8 13.2-.8.9-1.5 2.4-1.5 3.4 0 1.1-.7 1.7-1.7 1.6-3.1-.2-1.9 2.8 1.7 4.6 3.8 1.9 3.8 1.9 2.6 6.1-.5 1.7-.4 3.2.3 4.1.9 1.1.9 1.6.1 2.1-.7.4-1 1.6-.7 2.6s.1 2.2-.4 2.5-.9 2.3-.7 4.5c.3 5.2-3.7 9.1-8.4 8.2l-3-.6 1.7 2.7 1.8 2.7-2.6-.6c-2.5-.7-2.6-.6-1.4 2.4.6 1.7 1.6 3.1 2.1 3.1s2.3 1.1 4 2.4c1.8 1.3 5.7 2.8 9.3 3.4 3.5.6 8.3 2.3 10.8 3.7 4.3 2.6 9.5 7.7 9.5 9.5 0 1.3 4.8 2.4 31.5 7 13.2 2.3 27.6 4.8 31.9 5.5 7.3 1.3 8.1 1.3 9.9-.2 1.7-1.6 2-1.6 4.8-.1 2.8 1.7 3 1.7 4.5-.7 1.8-2.8 4.5-3.2 6.3-1.1q1.2 1.5 4.5.9c2-.3 3.6-.1 4 .6.4.6 1.8 1.1 3.1 1.1 1.5 0 2.6.7 3 2.1.6 1.9.8 1.9 2.4.4 2.2-1.9 4.9-1 6.1 2 .6 1.5 2 2.5 4.2 2.9 3.5.6 42.6 5.6 61.6 7.9l11.2 1.3V0H0z"/><path d="M87 111.5c-3.8 10.9-5.5 15.8-8.9 27-7 22.8-8.5 30.6-10.6 55.5-1.9 22-1.9 34.9 0 52 2.6 22.6 5.6 32.8 22 73 10.2 25.2 10.1 23.7 3.1 44.3-2.4 7.3-4.7 14.9-5.1 17l-.7 3.7h19.1c21.5 0 19.8.7 22.7-9 2-6.6 8.2-14.6 21-27 15.1-14.6 20.9-18.4 55.9-36.1 32.5-16.5 38.9-21.1 54.9-40 8-9.4 7.7-10.1-11.4-25.2-17.8-14-20.2-16.8-20.8-24.2-.4-4.7 0-6.5 3-12.7 1.9-4 5.6-10.4 8.2-14.3 4.1-6 4.6-7.3 3.7-9.3-1.8-3.8-1.2-7.5 1.8-12 2.9-4.4 2.9-5.3.4-14.2-.6-2-7 5.2-9 10.1-1.7 4.3-3.3 5.1-3.3 1.6 0-1.2-.4-2.8-.9-3.6-.7-1-1.2-.8-2.4.9-1.1 1.6-2.1 2-3.6 1.5-1.6-.5-2.4.1-3.7 2.7-1.4 2.6-1.9 2.9-2.2 1.5-.2-1.2-.9-1.6-2.3-1.2-1.7.6-1.8.3-.9-1.9 1-2.7.5-3.2-2-1.6-.9.6-1.7.5-2.2-.3-.6-.9-.8-.9-.8.1 0 1.1-.3 1-1.5-.1-1.1-1.1-1.2-2.3-.5-4.6 1.1-4.1-.4-4-2.1.1-.8 2-1.5 2.6-1.7 1.7-.3-.8-.9-1.7-1.5-2-.6-.4-.2-1.8 1-3.5 3-4.3 5.5-9.4 4.5-9.4-.4 0-3.5 2.4-6.7 5.2-6.4 5.8-6.6 4.8-.7-4 5.6-8.3 5.5-7.9 1.9-7.4l-3.2.4 4-3.5c4.4-3.9 4.6-3.7-4.9-6.1-4-1-6.5-1.2-7.7-.5-2.6 1.3-3.3 1.1-1.9-.5 1-1.3.7-1.4-1.7-1-1.5.3-3.5.7-4.4 1-.9.2-1.9-.2-2.2-1-.4-1.1-.1-1.3 1.1-1 1.6.5 1.6.5.1-.5-.9-.6-11.6-3.8-23.8-7.1-12.1-3.3-30.1-8.3-39.8-11.1-13.6-3.9-19.5-5.2-25.2-5.3-6.5-.1-7.4.1-8.1 1.9m88 8.1c8.9 2.5 12.1 2.7 12.7.7.5-1.5-2-2-12.7-2.6l-8.5-.5zm40.6 6.6c-3 1.5-3.6 2.2-2.5 2.9 2.4 1.5 4.8 1 5.9-1.2 1.8-3.3.7-3.9-3.4-1.7m109.1 38.4c-1.2 1.2-.8 5.1.7 6.3.8.6 2 2.6 2.7 4.4.6 1.8 2.9 5.4 4.9 8.2 4.2 5.7 6 10.2 6 15.4 0 2 .5 5.3 1.1 7.4 1.2 4.4.3 4.3 11.9.2 4.1-1.5 15.6-5.2 25.5-8.2s18.6-6.1 19.4-6.8c1.1-1.1 1.1-2.2.1-6.7-.7-2.9-1.5-6-2-6.8-.8-1.6-.8-1.6-39.5-8.5-14.3-2.5-26.9-4.8-28-5.1s-2.4-.2-2.8.2m106.4 24.6c-1.9 3.4-6.4 9.1-9.9 12.5-8.1 8-19.6 13.8-55.7 28-18.7 7.3-22.6 7.7-32.9 3-5-2.3-5.5-2.4-4.6-.7 1.4 2.7 1.2 8.2-.5 10.4-1 1.3-1.5 4.4-1.5 8.9v7l5 5.3c5.1 5.4 6.4 9.6 3.8 12.2-1.7 1.7 4.7 14.1 11.7 22.7 7.6 9.4 12.6 16.7 16.4 24.3 2.8 5.5 3 6.3 1.5 6.9-2.1.8-10.3-1.3-12.5-3.3-.8-.8-1.8-1.4-2-1.4-.3 0 .5 6 1.8 13.2 1.2 7.3 2.8 20.6 3.4 29.5l1.3 16.3H512V198.2l-7-1.6c-6.5-1.4-46.9-9.2-60.5-11.7-3.3-.6-6.9-1.3-8-1.5-1.6-.4-2.7.7-5.4 5.8"/><path d="m253.8 214.4-4.7 5.2 6.7 6.3 6.7 6.2.3-4.2c.3-3.9-2.3-16.5-3.7-18-.3-.4-2.7 1.7-5.3 4.5"/></svg>