<svg xmlns="http://www.w3.org/2000/svg" width="682.667" height="512" version="1.0" viewBox="0 0 512 384"><path d="M0 192v192h68.7l.7-4.6c1-7.6.7-17.4-.9-24.9-1.1-5.2-4.9-13.8-15-34-14.5-29-18.7-39.9-22.9-60.6-4.3-20.6-5.7-34.3-6.3-59.4-.7-33.2 2.1-56.5 10.9-89.5 5.8-22 5.7-19.5 1.3-24-3-3-3.6-4.4-3.1-6.3 1.3-5.5 9.7-5.9 26.2-1.2C85 86.8 102 93.1 107.4 97.3c3.2 2.5 9.4 4.6 33.5 11.2 16.3 4.5 35.6 9.7 42.9 11.5 12.9 3.3 13.2 3.3 14.6 1.4 1.9-2.6 1.1-3.5-2.5-2.7-4.1.8-19.4-1.8-15.9-2.7 2.2-.6 2.1-.8-1.5-1.4-6.6-1.2-11.1-2.4-9.2-2.5.9-.1 1.7-.6 1.7-1.1 0-.6 1.2-1 2.8-1.1 1.5 0 2.1-.3 1.5-.6-1.6-.6-1.7-3.3-.2-3.3.5 0 .7.4.4 1-.3.5-.1 1 .4 1 .6 0 1.1-.6 1.2-1.3 0-.6 2.6-2.4 5.8-4 4.4-2 8.5-5.4 16.3-13.5 15.8-16.3 27.2-26.7 31.3-28.6 2.1-1 6.1-2 9.1-2.1 4-.3 6.8-1.2 11.2-3.9 8.6-5.4 15.7-7.8 24.7-8.3 6.6-.5 8.8-.2 12.5 1.4 2.5 1.1 5.3 2.3 6.3 2.7 1.1.3 6.6 3.9 12.4 7.8 8.2 5.7 10.1 7.4 8.6 7.9-1 .3-2.2.4-2.6.2-.5-.3-.4.4.3 1.7 1.6 2.9 2.1 9.5 1 12.4-1.2 3.1-6 8.2-7.4 7.8-.6-.2 0 .8 1.2 2.1 1.3 1.4 3.5 2.8 4.8 3.1 2.4.6 3.4 3.9 1.5 5.1-.5.3-.7 2.1-.4 4 .4 2.4.2 3.5-.7 3.5s-.9.4-.3 1.2c1 1.2.3 12.3-.7 13.1-3.3 2.4-5.8 3.3-7.5 2.6-4-1.6-4.7-1.1-2.9 2.2 1.5 3 1.5 3.1-.1 2.6-1.3-.6-1.5-.3-1 1.6.4 1.2 1.4 2.6 2.2 3.2.9.5 3.1 2 5.1 3.3 1.9 1.3 6.2 2.8 9.5 3.3 8.1 1.3 12.6 3.8 18.3 10.3l4.9 5.4 17.5 3.1c40.6 7.1 46.6 8 54.1 7.6 5.2-.2 8.5-.8 10.3-2 2.3-1.5 3.3-1.6 6.6-.6 2.2.6 5.9 1.6 8.3 2.3 2.3.6 4.8 1.6 5.6 2.2.7.6 2.8.9 4.7.7 2.8-.2 3.6.2 4.6 2.3 1.3 3.1.7 2.9 21.3 5.6 8.8 1.2 20.7 2.8 26.5 3.6 5.8.7 10.9 1.4 11.3 1.4s.7-40.7.7-90.5V0H0z"/><path d="M90.6 126.8c-6.2 19.1-11 36.7-12.5 46.2-.6 3.6-1.8 16.2-2.6 28-1.3 17.3-1.4 24.4-.5 36 2.4 32.4 5.1 42.2 26.4 94 3.1 7.4 5.6 15 5.6 16.8 0 1.9-2.2 10.2-5 18.6-2.7 8.4-5 15.8-5 16.4 0 .9 3.8 1.2 13.5 1.2 7.4 0 13.4-.3 13.3-.8-.2-1.1 2.3-6.3 4.8-9.7 1.2-1.7 2.5-4 2.8-5.2 1.3-4.3 8.5-12.1 19.1-20.7 18.7-15.3 26.2-19.5 59.1-33.2 40-16.6 46.3-20.7 64.1-41.9 3.9-4.7 4-5.1 2.8-7.6-.8-1.5-3.8-4.6-6.7-7-24.5-20.1-27.7-23.1-29.7-27.2-1.2-2.4-2.1-5.7-2.1-7.5 0-5.2 3.9-13.9 10.7-24 5.7-8.4 6.3-9.9 5.4-11.9-.6-1.3-1.1-3.4-1.1-4.6 0-2.2 3.4-8.7 5.1-9.7.5-.3.3-3.5-.5-7l-1.3-6.5-1.8 4.3c-1.5 3.7-2 4.1-3.3 3s-1.5-1-.9.5c.4 1.1.3 1.6-.3 1.2s-1.8 1.2-2.8 3.4c-1.7 3.6-1.9 3.8-3 2-.7-1-1.2-2.7-1.2-3.6-.1-1.6-.2-1.6-1.6.2-.9 1.3-2.4 1.9-3.9 1.7-1.9-.3-2.8.3-3.7 2.5-.8 2.1-1.2 2.4-1.5 1.1s-.9-1.5-2.8-.8c-2.1.8-2.5.5-3.4-2.1-1-2.8-1.2-2.9-2.7-1.5-.8.9-1.7 1.6-1.8 1.6-.3 0-.7-2.7-.7-6-.1-2.1-.2-2.2-1.2-.9-.7.9-1.8 1.4-2.4 1.2-1.5-.5-1.7-3.5-.4-4.9.5-.5 1.6-2.6 2.5-4.8 1.5-3.6 1.5-3.8-.1-2.5-1 .8-3.2 2.9-4.9 4.6-1.7 1.8-3.5 3.3-3.9 3.3-1.8 0 .8-6.5 4-10.3 4.3-5 4.4-6.1.5-5.4-4.1.9-3.7-.3 1.3-3.7l4.2-2.9-3.5-1.5c-1.9-.9-6-1.6-9.2-1.6-3.1 0-5.4-.4-5.2-.7.8-1.4-2.3-1.6-4.7-.3-3 1.7-5 1.8-4.4.1 1-2.6-1.6-3.8-18-8.2-9.4-2.5-28-7.7-41.5-11.5-18.8-5.2-26.1-6.8-31.2-6.9h-6.7zm135.5 1.6-2.4 1.4 2.3.7c1.5.5 2.5.3 3.1-.6 1.9-3.1.8-3.6-3-1.5M339 168.8c0 1.7.5 3.4 1.1 3.8.6.3 2.2 3 3.5 5.8 1.4 2.8 3.8 7.2 5.5 9.7 2.1 3.3 3.4 6.9 4.3 12.5 2.1 13.4.6 13 21.3 6.3 9.8-3.2 21.9-7 26.8-8.5 12.1-3.6 12-3.5 10.5-12.4-.7-3.9-1.7-7.3-2.4-7.5-.6-.2-15.5-2.9-33.1-6s-33.2-5.9-34.7-6.2c-2.6-.5-2.8-.3-2.8 2.5m109.9 22.9c-5.3 9.4-15 18.3-25.6 23.7-5.1 2.5-11.4 5.4-14 6.5-2.6 1-12.5 5-21.8 8.8-21.2 8.7-25.7 9.9-32.5 8.4-2.8-.6-6.9-2-9-3.1l-4-2.1.6 4.1c.5 2.8.2 4.7-.9 6.3-1 1.6-1.5 4.7-1.4 10.1v7.9l4.9 5c5 5.1 5.9 8 3.6 11.7-1 1.6-.7 3 2.5 9.2 2.1 4 5.6 9.5 7.8 12.3 9.2 11.6 12.9 16.8 16.8 23.9 2.2 4.1 4.1 8 4.1 8.6 0 1.5-6.5 1.2-10.5-.4-4.2-1.8-4.2-2.1-1.6 10.5 1.1 5.2 2.7 15.9 3.7 23.9.9 8 1.8 15.1 2 15.7.3 1 15 1.3 69.4 1.3h69V197.2l-4.2-1c-5-1.2-52.9-10.2-54.6-10.2-.6 0-2.5 2.6-4.3 5.7"/><path d="M265.7 216c-2.6 2.8-4.7 5.5-4.7 5.9 0 1.2 10.7 11.1 11.9 11.1s1.2-.2 1.4-4c.1-2.1-3.1-18-3.7-18 0 0-2.2 2.3-4.9 5"/></svg>