<svg xmlns="http://www.w3.org/2000/svg" width="682.667" height="512" version="1.0" viewBox="0 0 512 384"><path d="M0 192v192h87v-8.8c0-13.4-1.6-17.9-15.5-43.7-10.2-19.1-10.7-20.3-14.9-30.6-7.2-18.3-11.3-34.8-14.8-60.4-3.3-23.5-3.2-64.4.1-86.5 2.2-14.8 8.9-44.6 12.9-57.6l1.9-6.2-4.6-4.1c-4.4-4.1-4.5-4.2-3.1-6.8.9-1.5 3.2-3.3 5.7-4.2 4-1.4 4.9-1.4 14 .8 22.7 5.5 60.3 19.2 60.3 22 0 1.2 4.6 2.7 37 11.5 33.5 9.1 35.6 9.5 36.4 6.9.4-1.1 1.6-2.5 2.9-3.1 1.8-.9 1.9-1.1.5-1.1-1-.1-1.8-.6-1.8-1.2 0-.5.4-.7 1-.4.5.3 2.2-.2 3.7-1.2s2.8-1.7 3-1.6c.9.8 2.3.2 1.8-.7-.3-.6-.2-1 .3-1s1.8-.8 3-1.8c1.1-.9 3-2.4 4.2-3.2s7.1-7.3 13.2-14.3c6-7.1 11.6-13.1 12.4-13.4.7-.3 3-2.8 5.1-5.5C256.3 61.5 263.1 57 268 57c2.5 0 5.5-1.2 9.9-4.1 8.6-5.6 17.9-8.9 27-9.5 6.8-.5 8.4-.3 15.3 2.4 4.2 1.6 9 3.9 10.6 5.1 1.7 1.2 3.4 2.1 3.9 2.1s2.7 1.6 4.9 3.6c2.1 1.9 5.3 4.2 6.9 5.1 2.1 1.1 2.5 1.8 1.5 2-4.3 1.2-4.3 1.3-2.9 2.9 1.6 1.9 1.2 12.3-.5 14.4-.8.8-2.2 3.1-3.1 5-1.6 3.2-1.9 3.3-2.6 1.5-.8-1.8-.8-1.7-.6.5.1 1.8 1.3 3 3.8 4.3 3.7 1.8 3.7 1.8 3.4 7.5-.2 3.1-.4 5.7-.5 5.7s-.4 2-.6 4.4c-.3 3.2.1 5 1.3 6.3q1.65 1.8.3 1.8c-.6 0-2.1 1.1-3.2 2.5s-2.5 2.2-3.1 1.8c-.7-.4-.8 0-.4 1.1.6 1.4.3 1.6-1.6 1.1-6-1.7-5.7-1.8-5.1 1.4.4 1.9.2 3.1-.4 3.1-2.4 0 .3 3.9 3.6 5.4 2.1.9 5.1 2.5 6.7 3.5 1.7 1.1 5.9 2.5 9.5 3 8.4 1.4 14.7 4.7 18.6 9.8 1.8 2.3 3.4 4.7 3.6 5.3.4 1.3 5 2.3 44.8 9.1 19.2 3.3 29.6 4.6 29.8 4s3-1.1 6.2-1.1 6.2-.5 6.5-1c.8-1.3 9.2-1.3 10.1.1.3.6 1.7.8 3.1.4 1.6-.4 3.2-.1 4.2.8 1.8 1.6 6 2.8 10.7 3 3.4.2 6.4 2.2 6.4 4.2 0 1.7 1.4 2.2 9.3 3l6.7.7V0H0z"/><path d="M115.5 111.2c-.2.7-1.6 4.4-3 8.3-4.1 10.9-12.1 38.2-14.4 48.6-4 18.8-6 56.3-4.2 80.1 2 25.9 5.1 37.6 19.6 73.3 4 9.9 8.6 20.7 10 24 4.3 9.5 4.3 15.1.2 27.8l-3.5 10.7h25.6l.5-2.8c.3-1.5 1.8-3.4 3.4-4.4 1.5-.9 5.6-4.1 9-7.1 6.5-5.5 25.6-16 61.3-33.4 52.3-25.5 58.9-30 80-54.1 5.1-5.9 6.2-7.7 5.4-9-.6-1-9-8.3-18.6-16.4-22.3-18.6-23.3-19.9-23.3-29.2.1-8.4 2.3-13.3 11.7-26.4 6-8.3 6-8.4 4.9-12.3-1-3.3-.9-4.5.4-7.4.9-1.9 2.3-3.9 3.1-4.6.8-.6 1.4-2.1 1.4-3.2 0-1.8-.2-1.7-2.6.8-1.9 2.1-2.8 2.5-3.4 1.5-.4-.7-1-.8-1.4-.2-.3.5-1.8.8-3.4.6-2.4-.3-3.1.2-4.5 2.9-1.4 2.8-1.6 2.9-1.6.9-.1-2.5-.1-2.5-3.6-1.2-2 .8-2.7.7-3.2-.5-.3-1-1.2-1.3-2.4-1-1.4.5-1.9.1-1.9-1.3 0-2.6-1.1-3.4-2.7-2.1-1 .9-1.3.6-1.3-1.5 0-1.4-.3-2.5-.7-2.5-2 .3-2.3-.3-1.2-2.4 1-1.8.6-1.7-2.1.8-3.4 3.1-3.7 2.5-1.5-2.9.7-1.5.5-1.7-1.3-1.2-1.7.6-2.1.3-2-1.6.1-1.3 1.2-3.7 2.5-5.5 2.7-3.7 2.9-4.5.8-3.7-2 .8-1.9.2 1-5.1 1.4-2.5 2.4-4.9 2.1-5.4-1.3-2-6.9-2.1-10.1-.1-4.1 2.5-5.3 2.6-3.1.1 1.7-1.9 1.7-1.9-2.5-.5-2.3.8-5.1 2-6.1 2.5-1.8.9-1.8.8-.8-1 1-1.9.9-2-1.6-1.1-2.2.9-2.5.8-1.7-.2.6-.7 1-2.4.8-3.8-.2-2.4-1.2-2.8-23.6-8.8-12.9-3.4-34.5-9.4-48.1-13.2-19.2-5.4-26.3-7-31.3-7-4.4 0-6.7.4-7 1.2M206 120c1.4.4 3.4.8 4.5.9 1.6.1 1.7-.1.5-.9-.8-.5-2.8-.9-4.5-.9-2.9.1-2.9.1-.5.9m16 4c3.6 1.2 7.2 1.2 6.5 0-.3-.6-2.5-1-4.8-.9-3.6.1-3.8.2-1.7.9m152.5 45.8c-1.3 1.3-.2 4.8 2.5 7.9 1.7 1.8 3 4.5 3 5.8s1.6 5.3 3.5 8.8 3.8 8.5 4.1 11.3c.4 2.7 2 7.2 3.6 10.1l2.9 5.2 5.2-1.9c2.9-1 14.2-4.6 25.2-8 24.7-7.5 28.2-8.8 28.8-10.4.3-.7-.2-4.3-1-8-1.2-5.1-2.1-7-3.7-7.6-1.1-.5-7.9-1.9-15.1-3.1-7.1-1.2-23.2-4.1-35.8-6.4-12.5-2.3-22.9-3.9-23.2-3.7m120.7 22.4c-.5.7-1.7 2.9-2.7 4.7-5 9.8-14.6 19.1-25.4 24.6-9.1 4.5-47.1 20.1-58.1 23.8-10.5 3.5-17.9 2.9-27.5-2.2-2.7-1.4-5.3-2.7-5.6-2.9-.3-.1-.4 2-.1 4.8.3 3.2 0 5.5-.8 6.5s-1.3 4.7-1.3 10v8.5l5.1 5c5.4 5.5 6.7 8.8 4.5 11.9-1.2 1.8-.9 3 2.8 10.8 2.4 4.8 6.6 11.7 9.4 15.3 8.3 10.5 17.4 24.8 18.9 29.7.6 2 .4 2.1-3.7 1.9l-4.4-.2 3.8 11.5c2.1 6.4 4.8 15.3 6 19.9l2.1 8.2H512V193.4l-7-1.2c-8.7-1.5-8.5-1.5-9.8 0"/><path d="m292.2 221-5.3 5.8 7.3 6.6 7.3 6.6.3-4.4c.2-2.4-.4-7.1-1.2-10.4-.9-3.3-1.6-6.9-1.6-8.1 0-3-.9-2.5-6.8 3.9"/></svg>