<svg xmlns="http://www.w3.org/2000/svg" width="682.667" height="512" version="1.0" viewBox="0 0 512 384"><path d="M0 192v192h93v-5.3c0-3-.5-8-1.2-11.3-1.1-5.6-2.9-9.5-20.9-44.4-14.4-27.9-20.7-49.8-24.9-86.5-1.4-12.7-2-24.4-2-39.7 0-32.7 3-53.8 13.2-91.6l4.1-15.3-4.1-4.2c-3.2-3.3-4-4.7-3.5-6.5.8-3.1 5.2-5.2 11.2-5.2 5.2 0 26 5.7 47.2 12.8 14.3 4.9 18.6 6.8 22.1 10 2.8 2.6 4.3 3.1 49.8 15.3 20.7 5.6 27 6.9 29 6.2 1.4-.5 2.4-1.6 2.2-2.3-.4-1.9 2.6-4 5.7-4 2.7-.1 8.7-2.9 6.3-3-.7 0 .6-1.7 3-3.8 2.4-2 6.4-6.1 8.9-9.1 2.4-2.9 5.1-6.1 6-7s3.3-3.8 5.3-6.4c3.5-4.8 10.6-13 17.6-20.8 2.5-2.8 4.9-4.2 8.5-5.1 2.8-.7 7.5-2.8 10.5-4.8 14.1-9.2 33-12.7 42.7-7.8 1.5.8 6.2 3.2 10.3 5.3s9.1 5.2 11 7 4.6 4 6 5c2.4 1.7 2.4 1.7.3 1.2-1.8-.4-2.3-.1-2.3 1.3 0 1.1.5 2.2 1 2.5.6.3 1 3.5 1 7.1s-.4 6.3-.9 6c-.9-.6-4.1 5.2-4.1 7.3 0 .6-.7 1.1-1.5 1.1-.9 0-1.2-.6-.8-1.7s.3-1.4-.5-.9c-2.7 1.7-1.2 4.7 3.3 6.7 4.9 2.2 5.2 2.6 3.1 5.4-1 1.4-1.1 2.5-.4 4.1.6 1.3.7 3.1.3 4.1-1.5 3.7-1.5 8.7.2 10.5 1.1 1.3 1.2 1.8.3 1.8-.6 0-2.1 1.1-3.2 2.5s-2.5 2.2-3.1 1.8-.8 0-.5.9c.5 1.2-.1 1.4-3 1.1l-3.7-.4-.3 4.5c-.2 3.9.1 4.6 2 5.1 1.3.4 4.4 2 7 3.7 3.1 1.9 6.9 3.2 11.3 3.9 10 1.4 16.9 5.4 21.2 12.3 1.4 2.2 2.6 4.2 2.7 4.3.4.5 21.5 4.3 48.5 8.9 20.5 3.4 27.6 4.3 28.1 3.4.5-.8 2.6-1.1 5.9-.9 3.2.3 5.2 0 5.5-.7.7-1.8 7.8-2.3 10.1-.7 1.1.7 3.2 1.3 4.7 1.3 1.6 0 3.6.4 4.6.9 3.1 1.5 8.8 3.1 11.4 3.1 1.7 0 3.4 1 4.7 2.8l2 2.7.1-89.3V0H0z"/><path d="m128 110-6.5.5-6.1 18.4c-7.9 23.6-13.1 44.7-14.4 58.6-2.3 23.6-2.7 43.6-1.3 61.8 1.5 20.9 2.9 28.3 8.3 44.5 3.9 11.7 5.8 16.6 19.4 49.7 3.6 8.8 6.6 17.4 6.6 19.1 0 1.6-1.4 7-3 11.9-1.7 4.9-3 9-3 9.2s6.2.3 13.9.3h13.8l9.7-6.4c11.4-7.7 16-10.2 28.6-15.6 12.4-5.4 36.1-17.7 53.4-27.9 7.6-4.5 14-8.1 14.2-8.1.1 0 4.7-2.9 10.1-6.5 15.5-10.3 20.4-14.9 41.6-39.8.9-1.1 1.7-2.3 1.7-2.7 0-1.1-6.2-7.1-14-13.3-10.3-8.4-23.9-20.4-26.5-23.6-7.4-8.8-5-18.6 9.3-38.3 5.3-7.4 6.1-9 5.3-10.7-1.5-2.7-1.4-6.1.4-9.5 1.7-3.2 1.4-3.9-1.8-4.3-1.7-.2-2.5.4-3.5 2.9-1.1 3-1.2 3.1-3.1 1.4-1.2-1.1-1.7-2.5-1.4-3.4.4-1.2-.1-1-2 .7-1.4 1.2-3 2-3.6 1.6-.6-.3-1.1 0-1.1.7s-1-.3-2.1-2.2l-2.1-3.4-1.4 2.4-1.3 2.5-.1-2.7c0-1.5-.5-3.9-1.2-5.3l-1.2-2.6-1.7 2.3c-2.4 3.2-3.1 2-1.4-2.7 1.5-4.7 1.2-5.5-1.3-3.2-1 1-2 1.7-2.3 1.7-1 0-.1-5.8 1.4-8.7 1.2-2.2 1.3-3.3.5-3.5-.8-.3-.8-1 .1-2.6.6-1.2.7-2.2.2-2.2s.4-1.4 2.1-3.2l3-3.2-2.7-.9c-1.8-.6-3.1-.5-4.3.5-.9.7-3.3 2.2-5.2 3.2l-3.5 1.9 2.5-2.8c1.4-1.6 1.8-2.4 1-1.9-.8.4-2.1.9-2.8 1-.8.2-3.1 1.4-5.3 2.8-4.7 3.2-5.8 3.3-3.3.4 1.9-2.1 1.9-2.1-.5-1.5-1.8.4-2.1.3-1.2-.6 1.3-1.3 1.5-3.1.3-2.3-.4.3-.8-1-.8-2.7.1-3.1-.1-3.3-6.9-5.3-3.8-1.2-20-5.7-35.9-9.9-15.9-4.3-36.2-9.8-45-12.4-13.9-4-17-4.5-22.6-4.1m89.5 6c-.8 1.3.5 1.3 2.5 0 1.3-.8 1.3-1-.2-1-.9 0-2 .4-2.3 1m168.2 54.7c-1.4 1.3-.6 3.4 2.8 7.9 2 2.7 3.5 5.7 3.5 7.3 0 1.5 1.3 5.2 3 8.2 1.6 3 3.2 7.4 3.6 9.9 1 6.4 7.1 17.3 9.3 16.5.9-.4 4.3-1.6 7.6-2.7s6.9-2.3 8-2.8 7.4-2.5 14-4.5 14.1-4.2 16.7-5 5.3-1.5 6.1-1.5 2.7-1 4.2-2.1c2.3-1.9 2.6-2.7 2-5.3-.4-1.7-1-5.1-1.4-7.6l-.6-4.5-6-1.2c-3.3-.6-11.6-2.1-18.5-3.3-19.4-3.4-50.3-9-52.1-9.6-.8-.2-1.8-.1-2.2.3m122.9 25c-3.4 7.1-10.6 16.2-16.6 20.8-7.3 5.6-17.6 10.4-49.1 23.1-28.3 11.3-32.8 12.2-43.9 8.4-3.6-1.2-7.9-3.3-9.7-4.6-4-3-4.5-3-3.3.2 1.4 3.7 1.2 7.7-.5 10-1 1.3-1.4 4.5-1.5 9.9v7.9l5.3 5.4c5.1 5.2 5.2 5.3 5.2 11.5 0 5.3.6 7.5 4.3 14.9 2.4 4.8 6.3 11.1 8.6 14.1 5.2 6.3 14.7 20.6 17.2 26 1.6 3.3 1.6 3.9.4 4.7-.8.6-2.3 1-3.2 1-1.5 0-1.5.6.7 6.3 1.4 3.4 4.1 11.3 6.1 17.4l3.6 11.3H512v-96c0-52.8-.4-96-.8-96-.5 0-1.6 1.7-2.6 3.7"/><path d="m300.2 222.3-5.2 5.3 7 6.9c5.8 5.7 7.2 6.7 8.1 5.5 1.8-2.7-1.4-23-3.6-23-.6 0-3.4 2.4-6.3 5.3"/></svg>