<svg xmlns="http://www.w3.org/2000/svg" width="682.667" height="512" version="1.0" viewBox="0 0 512 384"><path d="M0 192v192h99v-3.8c0-7.1-3.6-17.7-10.5-30.8-18.9-35.9-23.9-47-28.9-65.1-6.7-23.8-9.6-46.7-10.3-80-.8-36.5 2.3-59.4 13-98.8l4.4-16-4.4-4.6c-3.9-4-4.3-4.8-3.4-7.1 1.4-3.6 6.7-5.2 14.5-4.4 10.3 1.1 57.3 15.9 64.6 20.4 1.4.9 3.2 2.3 4 3.3 1.8 2.1 76.7 22.8 82.6 22.9 1.2 0 3.3-1.1 4.8-2.5s3.6-2.5 4.6-2.5c2.4 0 7-2.1 7-3.1 0-.5-.7-.6-1.5-.2-.9.3 1.4-2.3 5.1-5.8 3.6-3.5 10.2-11.6 14.7-17.9 4.4-6.3 9.9-13.8 12.2-16.5 2.3-2.8 5.2-6.7 6.5-8.9 2.2-3.7 8.3-7.5 12.1-7.6.9 0 2.2-.7 2.9-1.5 2.3-2.8 13.8-8.6 21.2-10.7 5.6-1.6 9.1-1.9 15.7-1.6 7.9.5 9.4.9 19.1 5.8 5.8 2.9 11.9 6.6 13.5 8.4 1.7 1.7 4.1 3.9 5.5 4.9l2.5 1.8-2.4-.7c-2.2-.6-2.3-.4-1.6 1.7.4 1.3.7 3.2.8 4.1s.4 1.5.8 1.3c.6-.4.1 8.9-.7 11.3-.2.7-.8 1.1-1.3.8s-1.7 1.3-2.6 3.7c-1.7 4-1.8 4.1-2.5 1.7l-.6-2.5-.8 2.3c-1 2.9.5 4.8 5 6.2 3.4 1.1 4.4 3.2 2.3 4.6-.6.4-.8 2-.4 4 .3 1.9.3 4-.2 4.7-1.6 2.6-1.1 8.2 1.1 10.6l2.1 2.3-2.1-.6c-1.7-.5-2.3-.2-2.8 1.9-.4 1.4-1.4 2.5-2.2 2.5-1 0-1.4.6-1 1.5.6 1.6-.9 2.1-1.8.6-.3-.4-1.7-.6-3.1-.3-1.7.3-2.5 1.1-2.5 2.6-.1 2.1-.1 2.1-1.7.1l-1.6-2 .8 2c.4 1.1 1 3 1.2 4.3.3 1.3 1.5 2.5 2.8 2.8s4.7 2.1 7.5 3.9c3.8 2.4 6.8 3.5 11.3 4 10.6 1.2 18.9 6.1 22.7 13.4 2.1 4.2-.8 3.4 35 9.7 33.1 5.8 44.5 7.4 44.8 6.4.2-.6 2.9-1 6.1-1 3.1 0 6.1-.4 6.6-.9 1.8-1.6 8.2-2 10.1-.7 1.1.8 3.5 1.6 5.4 1.8 1.9.3 4.3.8 5.3 1.3 1.6.7 1.7-3.8 1.7-85.4V0H0z"/><path d="M133.8 109.7c-3.2.2-5.8.5-5.8.6s-2.7 8.3-6.1 18.2c-6.9 20.7-12.3 40.7-13.9 51.5-2.9 20.4-3.8 56.9-1.9 77 2.1 22.4 6.1 36.8 19.6 69.4 12.2 29.5 15.3 37.5 15.3 39.9 0 1.2-1.1 5.7-2.4 9.9l-2.4 7.8h41.1l6.3-4c7.4-4.7 14.1-7.8 23.9-11 7.2-2.4 15.9-6.4 25.6-11.7 14.5-8 50.8-33.2 61.3-42.4 4-3.6 18-19.3 24.3-27.4.9-1.1 2.7-3.2 4-4.7 1.7-1.8 2.2-3.1 1.7-4.1-1-1.6-5.9-5.9-22.9-20.2-15-12.6-19.4-17-21.1-21.1-3.7-8.8.8-20.5 14.2-36.9 4.5-5.5 4.6-6 3.5-9-.6-1.8-.9-3.9-.6-4.7.6-1.5-2.1-8.8-3.2-8.8-.3 0-1.9 1.3-3.4 3-2.8 2.9-2.9 2.9-3 .7 0-2.1-.1-2.1-.9-.2-.7 1.7-.9 1.7-.9.2-.1-.9-.8-1.7-1.6-1.7s-1.5-.6-1.5-1.3c0-.8-.4-.7-1 .3-.5.8-1 1.3-1 1s-.6-2.2-1.4-4.3l-1.3-3.9-2.1 3.4c-1.7 2.6-2.2 2.9-2.2 1.3 0-1.1.4-3.5.9-5.2 1.1-3.6 0-5.1-1.9-2.8-.7.8-1.6 1.5-1.9 1.5-.9 0 .2-9 1.2-10.8.6-.8.2-1.2-.9-1.2-1.4 0-1.5-.3-.6-1.2.7-.7 1.2-2.1 1.2-3.1s.9-3 2-4.4 2-3 2-3.4c0-1.5-2.7-1-4 .7-.8.8-2.2 2-3.3 2.6-1.7.9-1.9.8-1.4-.6.5-1.3.3-1.5-1.2-.7-1 .6-2.2.7-2.6.3-.5-.4-.5-.1-.1.5.4.8.2 1.3-.5 1.3s-2.8 1.2-4.8 2.7l-3.6 2.8 1.8-2.9 1.9-2.8-2.4.7c-2 .7-2.1.6-1-.8 1.1-1.3 1.1-1.5 0-1.3-.7.1-1.9.6-2.7 1-1.1.7-1.2.6-.5-.5.4-.8.9-2.3.9-3.4s.3-2.5.7-3.1c.4-.7.2-1.6-.5-2.2-.6-.6-10.2-3.3-21.2-6.2-22.6-5.8-44.1-11.6-72.2-19.6-10.5-3-19.3-5.3-19.5-5.2s-2.9.3-6 .5M266 150.9c0 .5-.7 1.2-1.6 1.5-1.4.5-1.5.4-.4-.9 1.4-1.7 2-1.9 2-.6m-38-31.1c0 .5.7.9 1.5.9s1.2-.4.9-.9c-.3-.4-.9-.8-1.5-.8-.5 0-.9.4-.9.8M397.5 173c-.4 1.4.3 2.8 2.5 5 3.3 3.3 5 6.8 5 10.6 0 1.4 1.1 4.6 2.4 7.2 1.2 2.6 2.8 6.8 3.5 9.4.6 2.6 2.5 7.1 4.2 10 4.7 8 4.6 7.9 8.2 6.4 1.8-.7 15.3-5 30-9.6 18-5.6 27.1-8.9 27.7-10 1.2-2.2-1.9-15.7-3.7-16.5-.8-.2-15.6-3-32.9-6-17.4-3.1-34.7-6.2-38.6-7-3.8-.8-7.1-1.5-7.3-1.5s-.6.9-1 2m112.4 43.6c-4 4.8-14 9.8-46 22.9-21.2 8.6-35.4 13.5-39.6 13.5-4.9 0-15.1-2.8-19.3-5.2-1.9-1.2-5-3.5-6.9-5.2l-3.3-3.1 1.6 3.2c1.8 3.5 2.2 12.8.6 13.8-.5.3-1 4.6-1 9.4v8.7l4.1 3.9c5.6 5.5 7.2 8.9 6.5 13.7-.6 3.4.1 5.3 5 14.9 3.1 6 7.1 12.8 9.1 15.1 4.2 5.1 11.1 15.7 15.2 23.4 2.6 4.9 2.8 6 1.6 6.7-.8.4-2 .5-2.5.2-1.6-1-1.3.2 3.1 12 2.2 6 4.8 12.9 5.6 15.2l1.6 4.3H512v-84.5c0-46.5-.2-84.5-.4-84.5s-.9.7-1.7 1.6"/><path d="m310.4 223.4-6.2 6.1 7.9 7.3c5.9 5.6 7.9 6.9 8 5.5.1-1 .3-2.9.5-4.3.3-2.5-1.9-15-3.3-18.8-.7-1.8-1.4-1.4-6.9 4.2"/></svg>