<svg xmlns="http://www.w3.org/2000/svg" width="682.667" height="512" version="1.0" viewBox="0 0 512 384"><path d="M328.8 16c-4.7 3.7-6.8 9.9-6.8 20.5 0 6.4.5 10.8 1.6 13.5 1 2.4 1.3 4.5.8 4.9s-4 1.6-7.8 2.6c-14.7 3.9-29.5 13.6-39.4 26-4.9 6.2-6.5 9.3-8.7 16.3-4 12.9-4.6 14.3-7.8 17.9-2.9 3.3-2.3 4.2 1.4 2.3 2.2-1.2 2.3-1.1.8 2.6-1 2.8-1 2.8 1 .9 2.1-1.8 2.1-1.8 2.1 1.3 0 1.7-.5 4.3-1 5.8-1.2 3.1-.3 7.5 1 5.3.6-.9 1.1-.4 1.5 1.7 1.2 5.5 1.6 6.1 2.5 3.9.8-1.9.9-1.9.9.1.1 2.3 2.4 4.8 3.4 3.7.4-.3.7-.1.7.5s.7.9 1.5.6c.8-.4 1.5-.2 1.5.4 0 1.3 5.2 6.6 6.8 6.9.7.2 1.2-.8 1.2-2.3 0-1.4.4-2.3 1-1.9 2.8 1.8-.9 13.3-5 15.5-3.2 1.7-2.4 4.7 1.9 7.4 2.8 1.8 4.1 3.5 4.6 5.8.4 1.8 2.2 5.1 4 7.3s4.4 6.4 5.9 9.3c1.7 3.3 3.6 5.6 5.2 6.3 2.3.8 2.6 1.4 2.2 5.2-.3 2.3-.8 5-1.3 6-.6 1.4-.2 2 1.4 2.4 1.8.4 2.1 1.3 2.1 5.2 0 2.6.5 8.3 1 12.6l1 8-4.5 8.9c-2.5 4.9-4.5 9.6-4.5 10.4 0 .7-.7 2.6-1.6 4.1-1.5 2.6-1.9 2.7-7.5 2.3-4.8-.4-6.4-.1-8.1 1.4-1.9 1.8-2 2.6-1.4 11 .7 10.2 1.3 8.6-8.9 21.9-3.9 5.1-5.4 6.4-7 5.9-15.6-4.1-23.7-6-38.4-8.9-9.6-1.9-18.7-3.5-20.3-3.5-1.5 0-2.8-.4-2.8-.9s-1.1-2.2-2.3-3.8c-1.9-2.3-2.6-4.8-3.5-13.2-1.3-12-3.9-18.3-9.3-22-3.1-2.1-4.1-2.3-11.4-1.8-4.4.3-9 .9-10.2 1.2-1.9.6-2.2.2-2.8-3.9-.4-2.5-1.1-4.6-1.6-4.6-1 0-1.1.5-1.3 6.5-.1 4-.1 4-6.4 6.2-3.5 1.1-8 3.2-10 4.6-3.3 2.2-3.9 3.4-6 11-2.2 8.1-2.3 8.9-.9 13.4.8 2.7 1.8 6.9 2.1 9.6.8 6.4 2.5 9.5 9.8 17.1 5.5 5.6 7.2 6.7 13.3 8.6 3.8 1.1 10.4 2.6 14.5 3.2s7.8 1.3 8.1 1.7c.4.3-.4 4.9-1.7 10.1-1.4 5.2-3.6 16-5 24s-3.4 16.4-4.4 18.8l-1.9 4.2h132.5c90.4 0 132.4-.3 132.4-1 0-1.6-4.6-10.5-10.3-19.7-4.7-7.9-5-8.6-5.5-17.1l-.5-8.8 5.4-1.2c8.1-1.8 16.5-6 15.1-7.4-.9-.9-.4-2 2-4.5l3.2-3.3-4.5-.1c-6.8-.2-7.3-.1-16.3 4.2-4.6 2.1-8.6 3.9-8.9 3.9-.6 0-1.8-7.2-2.2-13-.2-2.5-.8-7.4-1.4-11-.5-3.6-1.8-11.2-2.7-17s-1.6-11.4-1.4-12.5c.1-1.1.1-7 .1-13-.1-11.8.6-12.4 3.5-2.8 1.5 5.2 3.3 7.7 3.5 5.1.3-2.7-.2-13.4-.7-16.3-.4-2.2-.3-2.6.5-1.5.6.8 1.3 3.8 1.7 6.7.4 3.1 1 5 1.6 4.7.5-.4.8-1.7.5-3-.8-4.4 1.4-3.7 6.8 2.1 5.2 5.5 5.4 5.6 6 3.3.4-1.4-.6-5.9-2.4-11.4-3-9-6.1-26-6.1-33.1l.1-3.8 2.1 5c5 11.6 16.8 31.5 18.7 31.5.5 0-.4-3.4-2-7.6-3.4-8.8-3.3-8.5-1.4-7.8 1 .4 1.4.1 1.1-.7-.2-.8-1.4-4.4-2.6-8.1-3.7-11.7-2.3-12.3 4.5-1.9 5.6 8.5 8.4 11.4 7.1 7.3-4-12.7-6.9-30.1-10.6-64.2-2.2-20.5-8.1-45.4-15.4-64.4-1.9-5-3.7-11.5-4-14.4-.8-6.5-3.6-13.8-8.2-21.3-8.1-13.4-17-18.5-31.1-17.6l-8.1.5-5.6-7.7c-3-4.2-8.1-10.4-11.3-13.8s-7.1-7.7-8.6-9.7l-2.8-3.6h-8.3c-6.8 0-8.8.4-10.8 2m68.7 266c.5 1.9.9 5.1 1 7 .2 1.9.6 4.5 1 5.7.4 1.4.3 2.3-.3 2.3-1.4 0-4.3-10-4.9-17-.5-5-.4-5.3 1-3.5.8 1.1 1.8 3.6 2.2 5.5"/></svg>