<svg xmlns="http://www.w3.org/2000/svg" width="682.667" height="512" version="1.0" viewBox="0 0 512 384"><path d="M0 192v192h59c32.5 0 59-.1 59-.3 0-2.1-6.4-16.5-11.6-26-19.3-35-25.7-50-31.8-74.3-7.4-30-11-72.9-8.6-104.9 1.9-25.9 6.3-49.3 16-84.1l2.2-8.1-4.6-4.4c-4.4-4.1-4.7-4.6-3.7-7.2 1.3-3.4 6.3-5.7 12.3-5.7 4.9 0 21.2 4.1 40.1 10.1 20.5 6.5 30.7 10.6 35 14 4.4 3.5 5.8 4 63.8 19.3 15.7 4.1 30 7.7 31.6 7.8 2.3.2 4.5-.9 8.8-4.2 6.1-4.7 11.7-12 25.2-32.5 4.6-7.2 10.2-14.8 12.2-17 2.1-2.2 4.9-5.6 6.2-7.5 3.8-5.6 5.2-6.9 9.8-8.5 2.3-.8 6.8-3 9.9-5 8.1-4.9 16.5-8.1 26.4-10 10.6-2 13.9-1.3 28.8 5.5 6 2.8 11.4 5 11.9 5 1.7 0 11.2 11.8 9.9 12.2-1 .4-1 1-.1 3 .6 1.4.9 2.8.7 3.1-.3.3-.7 3.1-.9 6.2-.2 3.9-1 6.4-2.3 7.9-1.1 1.1-2.5 3.1-3.1 4.4-.7 1.2-1.6 2-2.2 1.7-1.5-1-1 2.2.7 3.9.8.9 2.4 1.6 3.5 1.6 2.2 0 2.5 2.1.7 4.9-.9 1.5-.9 2.6-.1 4.3s.8 3 0 4.4c-1.9 3.3-1.4 6.3 1.5 9.1 3.5 3.3 3.6 4.5.2 3.3-3.5-1.4-3.7-1.3-3.1 1 .3 1.3-.2 2.5-1.5 3.4-1.1.8-1.7 1.9-1.4 2.5.5.7 0 .8-1.6.3-3.5-1.3-6.1-.4-5.5 1.9.7 2.6-.7 2.4-2.6-.4-2.4-3.6-2.9-1.4-.8 3.6 1.6 3.7 2.5 4.6 5.3 5.2 1.8.4 5.2 2.1 7.6 3.8 3.6 2.6 5.9 3.3 13.9 4.3 11.4 1.5 17.2 4.5 22 11.7 1.7 2.5 3.3 5.1 3.5 5.7.1.5 3.8 1.7 8 2.5 8.2 1.5 60.3 10.5 61.3 10.5.3 0 .5-38.7.5-86V0H0z"/><path d="m156.6 108-6.9.5-6.8 20.5c-7 21.1-13 43.9-14.9 57-1.8 11.6-2.5 68-1 81.3 2.3 21.3 8.6 41.5 24.4 78.5 11 25.8 13 31.3 12.4 35.3l-.5 3 49.1-.3 49.1-.3 7-4.4c21-13.3 57-47.1 73-68.6 5-6.6 9.2-12.2 9.5-12.5s2-2.4 3.9-4.8l3.3-4.3-2.3-2.6c-1.3-1.4-8.7-8-16.4-14.6-18-15.6-27.3-24.5-29.1-27.9-1.7-3.3-1.8-12.2-.2-16.9 1.4-4.3 8.8-15.9 14.2-22.4 2.3-2.8 4.7-5.7 5.3-6.6 1-1.2 1-3 .2-7.7-.6-3.4-1.5-6-1.9-5.7s-1.3-.2-2-1c-1.8-2.1-3-1.8-3.1.7 0 2.2-.1 2.2-.9.3-.5-1.1-.9-3.6-1-5.5-.1-3.7-.2-3.6-3.7 1.7-1.1 1.6-1.2 1.3-1.1-2.1.2-2.4-.3-4.1-1-4.4-.7-.2-1.2-1.3-1.2-2.4 0-2-.1-2.1-2-.3-2.4 2.1-2.4 2.1-.5-3 1.8-5.2 1.9-7.6.1-6.9-2.1.8-2.6-4.1-.6-7.4 3.3-5.4 3.4-6.9.3-8-2.5-.9-3.2-.5-7.2 3.2-3.4 3.2-4.1 3.6-3.1 1.6l1.3-2.5-2.8 2.5c-1.6 1.4-2.5 1.8-2 1 .4-.8-.6.1-2.3 2-2.9 3.3-3 3.3-2.6 1 .5-2.3.4-2.4-.9-.8-2 2.5-2.2 2.3-2.5-2.5-.2-2.3-.4-5.3-.5-6.7s-.6-2.6-1.1-2.7-1.2-.6-1.6-1.3c-.4-.6-12.8-4.2-27.6-8-14.8-3.7-30.5-7.8-34.9-9-7.2-1.9-51.2-14-57.5-15.8-1.4-.4-5.6-.5-9.4-.2m284 67.5c-.3.9.4 2.1 2 3.1 1.4.9 3.6 3.7 5.1 6.1 2.1 3.6 2.5 5.3 2 9-.6 5.2 1.9 11.9 7.1 19.6 1.7 2.3 4.2 6.5 5.7 9.2 1.5 2.8 3.1 5.3 3.4 5.8.6.6 13.5-2.9 23.6-6.4 1.7-.6 5.9-1.9 9.5-2.9s8-2.4 9.8-3l3.2-1.2v-28.6l-6.2-1.1c-50.9-9.2-61.9-11.1-63.1-11.1-.8 0-1.7.7-2.1 1.5"/><path d="m342.4 227.3-6.6 6.4 8.4 8.6 8.4 8.7 1.2-5.6c.6-3.2.8-6.4.3-7.7-.5-1.2-1.4-5.5-2.1-9.5-.7-3.9-1.7-7.2-2.1-7.2-.5 0-3.8 2.8-7.5 6.3m92.6 18.2c0 .3.9 2.2 2 4.2 2.3 4.4 2.6 10.2.6 14.1-.9 1.9-1.2 5.1-.8 11 .5 8.2.5 8.3 4.9 13 2.5 2.6 5.4 6.4 6.5 8.5 1.8 3.6 1.8 4 .3 6.3s-1.3 2.9 4.1 13.6c3.1 6.2 8.4 15.1 11.8 19.8 13 17.9 18.5 27.5 16.7 29.3-.8.8-1.6.8-2.9.1-3.6-2.3-3.8-.3-.7 9.1l3 9.5H512v-67.5c0-37.1-.2-67.5-.5-67.5-.2 0-3.9 1.4-8.2 3.1-13.7 5.5-27.6 9.9-31.3 9.9-5.1 0-17.8-3.7-22.9-6.7-2.5-1.4-6.4-4.3-8.6-6.5-4-3.5-5.5-4.5-5.5-3.3"/></svg>