<svg xmlns="http://www.w3.org/2000/svg" width="682.667" height="512" version="1.0" viewBox="0 0 512 384"><path d="M0 192v192h61.5c38.8 0 61.5-.4 61.5-1 0-2.4-4.8-12.7-12-25.5C91.8 323 83.6 302 78.2 274c-1.9-9.8-2.6-14.5-5.2-34.5-1.8-13.6-2.4-47.8-1.1-63 1.4-15.8 4.1-34.2 7.2-47.8 2.1-9.4 9.4-37 10.6-39.7 1.4-3.3 1-4.3-3.3-8.2-4.2-3.9-5.3-6.8-3.6-9.5C84 69.4 90.6 67 94.6 67c5.2 0 24 4.9 45.8 12s29.1 10.1 32.7 13.6c2.7 2.6 5.1 3.3 60.4 17.9 37.5 9.9 35 9.7 41.9 4.6 6.5-4.9 11.1-10.4 21.1-25.7 7.8-11.8 14.5-20.6 20.4-26.6 5-5.2 7.1-7.7 7.1-8.7 0-2 10.9-7.9 16-8.5.3-.1 1.9-1.1 3.5-2.2 11.6-8.2 32.2-13.2 43.2-10.5 2.6.7 8.4 2.9 12.8 5s9.8 4.6 12.1 5.5c2.7 1.2 5 3.1 6.5 5.7 1.3 2.1 2.7 3.9 3 3.9s1.4.7 2.5 1.6c1.8 1.5 1.8 1.5 0 1-1.6-.5-1.7-.3-1.1 2.1.8 3.1.8 7.8-.1 13.6-.5 3.4-1.9 5.7-6.6 10.7-2.3 2.5-1.2 5.7 2.3 6.9 3.3 1.1 3.5 1.9 1.5 4.6-1 1.4-1.1 2.6-.4 4.6.6 1.8.6 3.4-.1 4.8-1.8 3.2-1.3 4.9 2.6 9.2s3.8 4.5-2.4 2.2c-.6-.2-1.4.9-1.8 2.6s-1.1 3.1-1.7 3.1-.7.7-.4 1.6c.5 1.2.2 1.5-1.1.9-2.1-.8-2.2-.8-4.5-.6-1.1.1-1.8.9-1.8 2.3 0 2-.1 2-1.9.4-3.2-2.9-4-1.4-1.7 3.4 1.8 3.8 2.7 4.6 5.7 5 1.9.4 5.6 2.1 8 3.8 3.8 2.7 5.9 3.4 13.3 4.2 4.8.6 10.4 1.7 12.4 2.6 4.6 1.9 10.8 7.7 13.3 12.6 2.3 4.4.2 3.8 30.8 9.2l24.1 4.2V0H0z"/><path d="M164.5 106.7c-3.3.2-6.3 1-6.7 1.6-1 1.6-12 34.7-15.8 47.6-6.8 23.2-9.6 52.2-8.7 89.6.9 39.4 4.8 54.2 28.5 109.6 4.3 10.2 8.7 20.9 9.6 23.7l1.8 5.2h107l3.1-2.2c5-3.5 18.8-14.8 23-18.7 2.1-2 5.3-4.9 7-6.5 15.8-14.3 30.6-30 39.8-42.1 2.5-3.3 7.4-9.8 10.9-14.3l6.4-8.4-7-6.7c-3.8-3.6-11.6-10.7-17.4-15.6-15.1-13-22.9-20.5-24.4-23.4-4.5-8.8-1.9-19.3 7.8-32 2.3-2.9 5-6.6 6.1-8.1s3.2-4.3 4.8-6.2c2.4-3.1 2.6-3.8 1.6-6.7-.6-1.8-.9-5.1-.6-7.4.5-4 .5-4.1-1-1.9-2.1 3-3.3 2.8-3.3-.6v-2.7l-2 2.5-2 2.5v-10l-2.3 3.5-2.2 3.5-.3-3.8c-.2-2.4-.7-3.5-1.4-3.1-.8.5-.9-.6-.5-3.4.3-2.3.3-4.2.1-4.2-.3 0-1.6 1.2-2.9 2.7l-2.4 2.8 2.4-6.8c2.6-7 2.5-7.3-.4-5.7-1.6.8-1.8.6-1.6-1.8.1-1.5 1.1-4.7 2.3-7.2 1.1-2.4 1.9-4.7 1.6-5.1-.2-.4-2.6-1.2-5.2-1.9l-4.8-1.1-4.4 4c-2.9 2.6-4.8 3.7-5.4 3.1-.7-.7-2.2.1-4.6 2.2-1.9 1.8-2.9 2.6-2.2 1.8 1.7-1.9 1.5-3.5-.2-2.1-1.2 1-1.3.8-.9-1 .4-1.5.2-2-.5-1.5-.7.4-1-1.1-.9-4.9l.3-5.5-4.6-1.4c-2.5-.8-9.4-2.7-15.5-4.2-14.8-3.5-62.5-16.2-86.3-23-10.6-2.9-19.3-5.3-19.5-5.2-.1.1-2.9.3-6.2.5M326 131c-.9 1.6-.8 2 .5 2 .8 0 1.5-.9 1.5-2s-.2-2-.5-2c-.2 0-.9.9-1.5 2m131 45c0 1.1.4 2 1 2 .5 0 2.8 2.4 5.1 5.2l4.1 5.3-.6 7-.6 7 8.2 12.6c4.6 7 8.8 13.5 9.4 14.5 1.1 1.8 1.3 1.8 7.5-.4 3.5-1.2 7.3-2.4 8.4-2.7s4.4-1.3 7.3-2.2l5.2-1.7v-19.3c0-19.2 0-19.3-2.2-19.8-2.4-.5-51.7-9.5-52.4-9.5-.2 0-.4.9-.4 2"/><path d="m354.3 228.9-7.2 6.7 8.9 8.9c6 6 9.1 8.4 9.4 7.4 2-6.1 2-9.7.4-16.2-1-3.8-1.9-8.4-2-10.3s-.7-3.4-1.3-3.4c-.5.1-4.2 3.1-8.2 6.9m96.4 18.7c-.3.3.3 2 1.4 3.7 2.2 3.7 2.6 13.3.7 16-.9 1.2-1.2 4.4-.8 10.6.5 8.2.7 9.1 3.2 11 3.9 3.1 9.8 11.5 9.8 14 0 1.2-.5 2.9-1.1 3.9-1.5 2.5 7.6 21.5 15.6 32.2 3.5 4.7 8.9 12.5 11.9 17.5 7.3 11.5 8.5 15.8 3.9 14.1-1-.4-2-.7-2.3-.8-.3 0-1.3-.4-2.2-.9-1-.5-1.8-.8-1.8-.7 0 .2 1.1 3.7 2.3 7.8l2.4 7.5 9.1.3 9.2.3V259.2l-7.7 2.6c-17.1 5.6-33.6 1.7-47.6-11.3-3.8-3.5-4.9-4-6-2.9"/></svg>