<svg xmlns="http://www.w3.org/2000/svg" width="682.667" height="512" version="1.0" viewBox="0 0 512 384"><path d="M0 192v192h64.5c50.9 0 64.5-.3 64.5-1.3 0-.6-3.6-7.7-8.1-15.7-24.3-44.2-33.1-67.6-38.8-104-8.2-52.5-5.6-106.7 7.4-152.5.8-2.8 2.9-10 4.6-16.2l3.2-11.2-4.7-4.4c-5.4-5-5.8-7.7-1.5-11 5.9-4.3 14.1-3.5 39.4 3.9 30.7 8.8 46 14.6 50.7 19.1 2.1 2 7.8 3.9 28.5 9.4 31.9 8.6 68.2 17.9 69.9 17.9.7 0 1.1-.8 1-1.7-.2-1.1 1.5-3 4.8-5.3 5.7-4 11.9-11.2 20.8-24.5 7.5-11 11.5-15.8 25.5-30.2C341.7 46 343 45 348.5 43.5c3.3-1 9.2-3.5 13-5.6 9.7-5.2 18.5-7.9 28.5-8.5 7.5-.6 9.4-.3 15.9 2 4.1 1.4 8.8 3.4 10.6 4.5 1.7 1 5.4 2.6 8.1 3.5 6.2 2.1 7.4 3.1 10.7 8.3 1.5 2.4 3.2 4.3 3.7 4.3.6 0 1 .5 1 1.1 0 .5-.5.7-1.1.3-.8-.4-.9.1-.3 1.7 1.6 4.8.5 12.2-2.9 18.9-1.8 3.6-3.8 6.4-4.3 6.3s-1 1.1-1.1 2.7c-.2 2.3.3 3 2.7 3.9 2.8.9 4 3.4 2.2 4.5-.5.3-.9 4-.9 8.3-.1 7.6 0 7.9 3.5 11.7 2.3 2.5 3 3.7 1.9 3.2-5.5-1.9-6.7-1.9-6.7.2 0 1.2-.5 2.4-1.1 2.8-.6.3-.9 1.5-.6 2.5.6 2.1-1.2 2.6-3 .8-.6-.6-2.1-.8-3.3-.4-1.7.5-2 1.2-1.5 3.2l.6 2.4-2.3-2c-4-3.8-4.5-2.4-1.6 5.1.8 2.3 1.7 2.8 4.3 2.8 1.8 0 4.8 1.1 6.9 2.5 6.6 4.5 9.2 5.4 17.2 6 10.3.9 19.3 4.9 23.5 10.7 1.6 2.3 2.9 4.6 2.9 5.2.1 2.8 2.7 3.8 17.6 6.6 8.7 1.6 16.7 3 17.7 3 1.6 0 1.7-4.6 1.7-83V0H0z"/><path d="M164.9 109.7c-2.9 6.9-13.9 41-16.9 52.8-4.1 16-5.9 31.1-6.9 56.4-2.2 57 1.8 76.6 28.3 138.4 5.8 13.7 10.6 25.2 10.6 25.8 0 .5 22.5.9 58.1.9h58.1l4.1-3.3c3.8-2.9 20.6-17.3 30.2-25.7 13.9-12.2 32.2-32.8 48.4-54.3 5.3-6.9 6.8-4.5-14.9-23.5-22.8-20.1-30.8-28-32.1-32-.6-2-.9-6.1-.6-9.3.7-7.6 4.5-14.5 16.1-29.1 5.2-6.4 8.5-11.3 7.8-11.6-.7-.2-1.2-1.6-1.2-3.1s-.3-3.1-.7-3.5-.7-1.9-.8-3.3c0-3.2-2.1-4.2-3-1.4-.7 2.4-2.5 2.8-2.5.6 0-2.1-1.9-1.9-2.8.2-.5 1.2-.9.2-1.2-3.2l-.6-5-1.3 2.7c-1.9 3.7-3.4 3.5-2.9-.2.4-2.4.1-3-1-2.5-1.1.4-1.3 0-.9-1.7 1.2-4.7 1.9-10.3 1.4-9.8-.3.3-1.9 2.2-3.6 4.4-3.6 4.5-3.9 4.1-1.1-1.5 3.3-6.3 4.2-9.1 2.8-8.3-2 1.3-5.1 1.3-3.8 0 1.4-1.4 1.3-2.9-.2-2-.7.5-.5-.3.4-1.6 2.7-3.9 4.9-9.3 4.1-10-.5-.4-4.1-1.5-8.2-2.5-5.3-1.3-7.5-1.5-8-.6-1.4 2.2-7.3 5.9-8.7 5.4-.8-.3-3 .7-4.9 2.1-2.2 1.7-3.2 2.1-2.9 1.1.3-.8.1-1.5-.5-1.5-.9 0-.9-.5-.1-2 .6-1.2.7-2 .1-2-.5 0-.8-1.6-.7-3.6.4-4.5-1.1-5.5-13.4-8.4-14.3-3.4-55-14.2-81.7-21.6-20.1-5.6-25.1-6.7-32.2-6.8l-8.4-.1zm171.2 16.4c-1.8 2.2-3.1 4.2-2.9 4.4.3.3 1.9.8 3.6 1.1l3.2.6v-5.1c0-2.8-.1-5.1-.2-5.1-.2 0-1.8 1.9-3.7 4.1M474.5 175c-.4.6 1.6 3.4 4.4 6.2 3.1 3.1 5.6 6.6 6.3 9.1 1.1 3.5 1 4.4-.9 7.8l-2.1 3.8 5.2 6.9c2.8 3.9 7.6 10.8 10.5 15.6 3 4.7 5.9 8.6 6.6 8.6s2.6-.5 4.4-1.1l3.1-1.1v-24.9c0-13.7-.3-24.9-.6-24.9-1 0-32.9-6-34.6-6.6-.9-.2-1.9 0-2.3.6M355 183.1c0 .5.5.7 1 .4.6-.3 1-.8 1-1.1 0-.2-.4-.4-1-.4-.5 0-1 .5-1 1.1"/><path d="M372.9 224.6c-1.3 1.5-4.9 4.8-8 7.4l-5.6 4.7 8.9 9.1c4.9 5.1 9.3 9.2 9.8 9.2s.7-.8.5-1.8c-.1-.9.1-2.2.5-2.7 1.7-2.3 1.6-6.9-.1-14.3-1.1-4.2-1.9-9.2-1.9-11 0-3.9-.9-4-4.1-.6m94.5 24.8c-.3.8.2 2.8 1 4.5 2.6 5 3.1 11.6 1.2 14.6-1.5 2.2-1.6 4.1-1.1 11.8l.7 9.2 4.7 5c8 8.5 9.6 12.1 6.7 16-1.2 1.6-.6 3.2 4.6 13.9 3.3 6.7 8.8 15.9 12.3 20.6 3.4 4.7 7.9 11.1 10 14.2 2.1 3.2 3.9 5.8 4.1 5.8s.4-21.8.4-48.5c0-48.2 0-48.5-2-48.5-4.9 0-17.8-3.4-22.9-6-3.1-1.5-8.4-5.3-11.8-8.4-3.3-3.1-6.4-5.6-6.7-5.6-.4 0-.9.6-1.2 1.4m39.4 129.1c1.1 4.1 2 5.5 3.4 5.5 1.5 0 1.8-.8 1.8-4.3 0-3.7-.4-4.6-2.5-5.5-4.1-1.9-4.3-1.5-2.7 4.3"/></svg>