<svg xmlns="http://www.w3.org/2000/svg" width="682.667" height="512" version="1.0" viewBox="0 0 512 384"><path d="M326.6 15.9c-1.5.9-3.9 4.1-5.4 7.1-3.7 7.6-4.2 16.6-1.3 25.5 1.2 3.7 2.1 6.8 1.9 7-.2.1-3.9 1.4-8.4 2.8-22 7-40.3 23.7-46 41.9-4.4 14.1-5.5 16.8-8.1 19.8-2.8 3.4-2.4 3.8 1.2 1.4l2.5-1.6-.6 3.3c-.4 2.4-.3 3 .4 2 1.5-2.1 2.3 1.6 1.4 5.9-1 4.2-.4 8 .8 6 .6-.9 1.2.1 2.1 3.1l1.2 4.4.8-3c.6-2.8.7-2.8.8-.5.2 2.8 3 8.4 3.1 6.1 0-1.1.4-.9 1.5.5 1.1 1.5 1.5 1.6 1.5.4.1-.8.7-.2 1.4 1.3.7 1.6 1.4 2.7 1.7 2.5.6-.4 4.9 2.8 4.4 3.4-.3.2.1.5.9.5 1.1 0 1.3-.8.9-3-.4-2.1-.3-2.8.5-2.3 1.5.9 1.5 7.1.1 9.9-.6 1.2-2.5 3.6-4.1 5.4-3.4 3.6-3.2 4.4 2.3 7.9 3 1.9 3.9 3.1 3.9 5.2 0 1.8 1.3 4.2 3.6 6.8 1.9 2.1 4.6 6 5.9 8.6 1.4 2.5 3.6 5.5 5.1 6.7 2.6 2 2.6 2.3 1.6 7.3-.8 4.5-.8 5.4.6 6.4 1.3 1 2 4.3 2.9 14.3 1.1 12.5 1.1 13.4-.9 17.9-1.1 2.6-2.9 5.9-3.9 7.4-1.1 1.4-1.9 3.3-1.9 4.3 0 .9-.7 2.9-1.5 4.5-1.4 2.7-1.7 2.8-7.2 2.3-4.9-.4-6.2-.2-8.5 1.6-2.7 2.2-2.7 2.3-2.1 11.5l.6 9.2-4.4 5c-2.4 2.8-5.8 6.8-7.5 8.9l-3 3.9-8-2.6c-8.1-2.7-47.7-11.8-51.3-11.8-1.1 0-3.2-1.7-4.8-3.8-2.5-3.2-3.1-5.1-4.1-14-1.5-13.3-4.5-19.2-11.6-22.9-2.9-1.5-10-1.4-18.6.3-2.8.6-3 .4-3.6-3.5-.9-5.7-3-4.7-2.6 1.2l.3 4.5-5.3 1.7c-7 2.3-11.9 4.9-13.9 7.1-.8 1.1-2.5 5.5-3.8 9.9-2.1 7.7-2.1 8.2-.5 12.5.9 2.5 1.6 5.6 1.5 7-.3 5.5 3 11.8 9.7 18.9 5.9 6.1 7.5 7.2 13.3 9 3.7 1.1 10.3 2.5 14.8 3.2 4.4.7 8.1 1.6 8.1 2.1s-1.1 4.8-2.5 9.6-4 15.5-5.9 23.9c-1.9 8.3-4.6 17.4-6 20.2s-2.6 5.3-2.6 5.6 27 .5 59.9.5c47 0 60-.3 60.4-1.3q.6-1.35.6 0c.1 1.7 147.1 1.9 147.1.3 0-1.3-4.5-10.2-10.4-20.4-3.5-6.1-4.6-9.2-5.1-14.2-1.1-9.5-.5-10.8 5.5-12.2 9.1-2.1 18.9-7.2 13.8-7.2-.7 0 .2-1.5 2-3.3s3.2-3.6 3.2-4-2.4-.7-5.4-.7c-4.1 0-7.3.9-14 4-4.7 2.2-8.9 4-9.2 4-.4 0-.4-1-.1-2.1.3-1.2-.1-4.2-.9-6.6-.9-2.5-1.3-5.1-1-5.9.6-1.4.2-3.8-4.4-28.3-1.2-6.2-1.9-12.5-1.5-13.8.4-1.7 0-3.2-1.1-4.4-1.2-1.3-1.7-4.2-2-10.6-.5-9.8-.4-9.8 2.6.6 2.8 9.7 4.3 8.3 3.9-3.7-.2-5-.1-8.8.4-8.5.4.2.8 3.7.8 7.6.1 6.7.2 6.9 1 3.2.5-2.2 1-4.6 1.1-5.3.1-.6.5-1.2.9-1.2.7 0 5.9 5.7 9.6 10.6 1.4 1.7 2 2.1 1.6 1-.4-1.3-.3-1.7.5-1.2 1.1.7.9-4.5-.4-6.5-2.7-4.5-8.2-39.9-6.2-39.9.3 0 2.1 3.7 3.9 8.2 3.1 7.8 13 25.1 15 26.4 1.1.7.4-2.7-2.3-10.5-2.2-6.5-2.2-6.7-.3-5.1s1.9 1.8-1-9.2c-1.4-5.1-2.5-9.8-2.5-10.3 0-.6 2.9 3.5 6.5 9 3.5 5.5 6.5 9.2 6.5 8.1 0-1-1.1-7.3-2.4-14-1.3-6.6-3.2-20.7-4.1-31.1-3.4-39.8-7.5-60.3-16.6-84.1-1.7-4.3-3.6-11.3-4.4-15.6-1.9-11.1-9.3-24.9-16.9-31.5-5.2-4.7-13.9-7.6-20.6-7-3 .3-6.5.8-7.6 1.2-1.8.6-3.1-.5-8-6.7-3.2-4-8.8-10.5-12.4-14.3-3.7-3.9-7.6-8.4-8.8-10.1-2.1-3.1-2.3-3.1-10-3.1-5.5 0-8.7.5-10.6 1.6m71.5 268.9c.1.9 0 2.7-.1 4s.3 2.9.9 3.5c.5.7.9 2.6.9 4.3-.1 1.7.2 3.6.6 4.3.4.6.3 1.1-.2 1.1-.8 0-6.2-17.2-6.2-19.8 0-2 4 .5 4.1 2.6m-106.4 95.4c-.3.8-.6.5-.6-.6-.1-1.1.2-1.7.5-1.3.3.3.4 1.2.1 1.9"/></svg>