<svg xmlns="http://www.w3.org/2000/svg" width="682.667" height="512" version="1.0" viewBox="0 0 512 384"><path d="M0 192v192h168.8l-8.3-16.5c-13.9-27.5-19.3-42.7-26.9-75.5-2.3-10-5.4-30.9-7.1-48-6-59.8-.5-111.3 18.9-176l3.5-11.5-6.1-5.6-6.1-5.7 1.4-3.9c2.1-5.4 7.2-7.8 16.4-7.7 9.2.2 36.2 6.9 71 17.6C241 56 252.1 60.9 254.3 64c1.7 2.4 5.3 3.4 72.7 19.5 50.7 12.1 66.4 15.5 70.2 15.4 3 0 3.1-.1 1-1-1.3-.5-2-1.3-1.7-1.9.4-.6 1-.8 1.5-.5.4.3 2.8-.4 5.2-1.5l4.3-2-4 .1c-2.2.1-5.1 0-6.5 0l-2.5-.1 2.8-1.5c1.5-.8 3.4-1.2 4.2-.8.8.3 1.5 0 1.5-.6s1.2-1.7 2.7-2.4c2-1.1 3.2-3.2 5.3-9.8 1.6-4.6 4.1-10.7 5.8-13.4 1.7-2.8 4.8-7.9 6.9-11.4 6.7-11.1 16.8-18.7 28.3-21.2 4.5-1 5.1-1.4 8.1-6.7 3.2-5.8 14.8-17.8 21-22l3.4-2.2H0z"/><path d="M249.8 82.3c-1.3.4-5 .7-8.3.5l-6-.3-2.6 6.5c-4.7 11.6-17.8 52.2-20.8 64.5-6.4 26-8.6 48.5-8.6 89 .1 31.1 1.7 48.9 6.2 68 3.7 15.8 13.6 42.7 24.5 66.8l3.1 6.7h209.4l2.9-2.8c8.8-8.7 17.5-18.6 29.4-33.7 7.5-9.5 21.3-26 22.1-26.3.9-.4-9.4-10.6-29.6-29.5-19.7-18.5-30.9-29.9-34.3-34.9-2.3-3.6-2.7-5.2-2.7-11.7 0-6.3.5-8.6 2.8-13.2 3.6-7.4 10.2-16 22.5-29.4 7.7-8.3 9.8-11.3 9-12.2-.6-.7-1.1-3.7-1.2-6.6-.1-4.7-.3-5.3-2.1-5.2-1.1.1-2.5 1.2-3.1 2.4-1.2 2.3-1.2 2.3-1.8.3-.4-1.2-1.3-1.9-2-1.6-1.6.6-4.6-2.1-4.6-4.2 0-.8-.7-1.4-1.5-1.4s-1.5-.7-1.5-1.5c0-2.2-1.6-1.8-3.8 1s-3.7 3.3-2.8 1c1.1-2.9-.4-1.5-2.3 2.3-1.1 2-2 3.3-2.1 2.8 0-.5-.7-.2-1.7.5-1.5 1.3-1.6 1.1-1.1-1.4.3-1.7 0-3.4-.8-4.1-1-1-1.1-2.2-.4-4.7 1.2-4.2 1.2-4.2 0-3.4-.6.4-1-1.1-1-3.6 0-3.4-.3-4-1.2-3.1-.7.7-1.6 1.2-2 1.2-.9 0-.4-4.2.8-6.2.4-.7-.4-.3-1.8.9-3.8 3.6-4.2 2.7-.8-2 3.1-4.3 5.1-13.7 3-13.7-.5 0 1.9-2.8 5.3-6.2l6.2-6.1-3.5-.9c-6-1.5-7.7-1.2-12.7 2.4-5.7 4.2-13.9 8.8-15.5 8.8-.7 0-.3-.7.8-1.5 1.8-1.5 1.7-1.6-1.6-.9-1.9.3-4.6 1.4-6 2.4-4.5 3.1-5.4 3.4-4.5 1.9.4-.8 1.5-2.2 2.4-3.3 1.6-1.8 1.5-1.8-1.7-.2-3.3 1.7-3.3 1.7-2.2-.5.7-1.2.8-1.9.3-1.6-.4.3-1.5-.2-2.3-1.1-1.3-1.4-1.2-1.5.3-.9 1.1.4 1.6.3 1.2-.4-.4-.5 0-2 .8-3.3.9-1.3 1.2-2.8.7-3.6-.5-.7-.3-2.1.3-3.2 1.5-2.4-.7-4.3-6.1-5.3-8.5-1.5-85.8-20.4-124.4-30.3-13.6-3.5-19.3-4.6-21-3.9"/><path d="M496.4 221.1c-2.6 2.9-24.6 20.5-26.2 21-.9.3.6 2.4 4 5.9 2.9 3 10.6 11.6 17.2 19 6.5 7.4 12.8 14.1 13.8 14.8 1.7 1.3 1.8 1.2 1.2-1.5-.4-1.5-1.9-4-3.5-5.5-1.5-1.4-3.1-3.8-3.5-5.3-1-3.9.2-10.5 2.4-13.5 1.9-2.5 1.9-3 .5-8.1-.8-3-1.7-10.1-2-15.9-.7-12.5-1.2-13.9-3.9-10.9"/></svg>