<svg xmlns="http://www.w3.org/2000/svg" width="682.667" height="512" version="1.0" viewBox="0 0 512 384"><path d="M0 192v192h87.5c48.1 0 87.5-.2 87.5-.4s-3.4-7.3-7.5-15.7c-21.3-44-31.2-88-34.6-153.4-1-20.9-.8-29.3 1.7-56.5 2.6-29 8.3-57.5 17.8-90 2.9-10.2 5.6-19.2 6-20 .4-1-1.3-3.1-5.4-6.4-5.1-4.2-6-5.5-6-8.2 0-5.5 1.7-7.8 6.9-9.7 8.3-2.9 13.5-2.3 42.4 4.9 30.2 7.5 60.6 16.7 68.4 20.8 1.7.8 4.1 2.7 5.2 4.2 1.9 2.4 5.5 3.4 39.8 11.5C370.7 79.6 430.8 93 434.4 93c.9 0 1.5-.3 1.4-.8-.1-.4.3-1.6.9-2.7s1.6-6.8 2.2-12.7c1.2-11 1.9-13.5 7.3-24.8 1.7-3.6 3.8-8.1 4.7-10s4.5-6.4 8.2-10c7.2-7.4 15.2-11.8 23.2-12.7 4-.5 5.1-1.1 6.2-3.4 1.3-2.4 4.8-7.6 9.4-14C499.2 0 494.6 0 249.6 0H0z"/><path d="M265.6 73.1c-1 .6-4.9.9-8.7.7l-6.8-.4-6 16.6c-22 61.3-26.2 82.7-27.7 140-1.6 57.1 4.5 89.5 26.2 140.3l5.8 13.7H369l120.5-.1 6-8.6c3.3-4.8 8.4-11.8 11.2-15.7l5.3-7.1v-46l-14-12.9c-19.4-17.9-34.2-33.4-36.4-38-1.4-2.9-1.7-5.6-1.4-11 .7-12.6 6-21.2 26.9-43 5.7-6 10.7-11.3 11.1-12 .3-.6-.2-2.9-1.3-5-2.3-4.8-2.4-7.9-.3-10 1.4-1.5 1.4-1.7 0-3.2-.9-.8-1.6-2.1-1.6-2.7 0-.7-.9-.1-2 1.3l-2 2.5V169l-.1-3.5-2.4 2.8c-1.4 1.5-2.8 4.7-3.2 7-.6 3.7-.7 3.9-1.4 1.7l-.6-2.5-1.2 2.5c-1 2.3-1.1 2.1-.8-1.9l.3-4.3-2.1 2.4c-1.1 1.4-3 3.8-4.3 5.4l-2.3 2.9.5-3.1c.3-1.8-.1-4-1-5.2-1-1.5-1.2-2.7-.4-4.6.6-1.7.6-2.6 0-2.6s-1-2.3-1-5.1c0-4.6-.1-4.9-1.6-3.5-1.9 1.9-4 1.1-2.4-.9.8-1 .7-1.4-.6-1.7-1.7-.3-1.7-.4 0-2.1 1-.9 1.4-1.7 1-1.7-.3 0-.1-.7.7-1.6 1-1.3 1-1.7 0-2.4-1-.5-1-.9-.2-1.5.7-.4 1-2 .7-3.9-.4-2.6 0-3.7 2.4-6 1.7-1.5 3-3.2 3-3.7 0-.6.8-2.7 1.9-4.9 2.1-4.3 1.7-5.6-2-6.5-2-.5-3.3.1-6.5 3.1-11.1 10.4-20.7 17.3-16.3 11.7 1.3-1.7 1.3-1.7-1.3 0-1.6 1-2.8 1.5-2.8 1.1 0-.3-1.6.8-3.5 2.5-4.4 3.8-5.3 3.9-3 .4 1.7-2.5 1.7-2.6 0-1.9-1.1.4-2.4-.1-3.5-1.4-1.6-1.9-1.7-2.5-.4-6.5.7-2.5 1-4.5.7-4.5s0-.7.7-1.5c1-1.2.9-1.5-.6-1.6-1.1 0-1.4-.3-.7-.5.7-.3.9-1.2.6-2.1-.3-.8 0-1.9.8-2.4s.9-.9.3-.9c-.7 0-1.4-.8-1.6-1.8-.4-1.3-3.3-2.4-12.4-4.4-6.5-1.5-20-4.6-29.9-6.8-23.2-5.3-118.3-28.4-125.5-30.5-.8-.2-2.3.1-3.4.6"/><path d="M504.8 237.7c-3.7 2.7-6.7 5.2-6.7 5.8 0 .5 3.1 4.3 6.9 8.3l7 7.4v-13.1c0-7.2-.1-13.1-.3-13.1-.1 0-3.2 2.1-6.9 4.7"/></svg>