<svg xmlns="http://www.w3.org/2000/svg" width="682.667" height="512" version="1.0" viewBox="0 0 512 384"><path d="M0 192v192h89.5c49.2 0 89.5-.2 89.5-.4s-2-4.4-4.4-9.2c-16.1-32.7-26.6-71.8-32.6-120.9-2.7-21.5-3.8-70.1-2.1-92 2.6-35.1 8.6-66 21.3-109.9 3.9-13.5 4.9-18.1 3.9-18.4-.7-.2-3.8-2.8-6.8-5.7-4.9-4.7-5.5-5.6-4.9-8.1 1.5-6.4 2.8-8.3 5.9-9 1.8-.3 3.8-1.1 4.5-1.6 3.3-2.7 21.3.2 55.2 8.8 45 11.6 63.2 18 67.6 23.8 2 2.6-2.2 1.6 90.4 22.2C414.9 72 462.3 82 464.5 82c1.2 0 1.5-1.8 1.5-9.5 0-5.1.5-11.8 1.1-14.7 1.3-6 5.9-18.7 9.7-26.6 5.1-10.7 16.8-20.7 29.4-25.3 4.2-1.6 5.8-2.7 5.8-4C512 0 505.2 0 256 0H0z"/><path d="M280.1 62.8c-2.2 1-4.6 1.2-8.3.8-2.9-.4-5.7-.7-6.3-.7-2.2-.2-20 51.7-27.9 81.1-9.8 36.6-12.5 111-5.7 157 3.3 22 8.9 40.5 21.2 70.5l5.2 12.5H512V283.7l-9.3-9.6c-11.8-12.3-14.2-15.5-15.7-21.6-2.9-11.6 3.3-25.1 19.8-43l5.2-5.6-.1-20.2c-.1-18-.2-19.9-1.5-17.7-1.2 2.1-1.4 2.2-1.2.5.1-1.1-.1-2.5-.4-3.1-1-1.6-1.2-7.6-.4-10.1 1-3-1.6-2.1-3.3 1-.9 1.7-1 .5-.5-5.8.3-4.4.5-8.7.5-9.5s.6-3.1 1.4-5c3-8.2 5.7-17.8 5.4-19.5-.3-1.2-1.7-2.2-3.9-2.8-3.5-.9-3.6-.8-11 7.1-6.4 6.8-20 18.6-16.3 14 2.1-2.5.1-3-2.4-.6-1.3 1.2-2.3 1.8-2.3 1.3s-1.2.2-2.7 1.6c-1.7 1.5-2.2 1.7-1.3.5 1.4-1.8 1.3-1.9-1.2-1.4-2.6.5-2.6.5-1-2.1.9-1.4 1.2-2.2.5-1.8-1.7 1-2.9-4.1-1.4-5.6 1.3-1.3 1.5-6.7.2-6.7-.5 0-1.1.3-1.4.7-.2.5-.2.2 0-.5.1-.8.3-2.3.3-3.3 0-1.3.4-1.8 1.2-1.3.7.5.8.3.2-.7-.4-.8-1.1-3.2-1.4-5.4l-.5-3.9-8-1.8c-44.2-9.6-69-15.1-74-16.3-3.3-.8-24.2-5.7-46.5-11-22.3-5.2-44-10.3-48.2-11.3-6.9-1.7-8-1.7-10.7-.4"/></svg>