<svg xmlns="http://www.w3.org/2000/svg" width="682.667" height="512" version="1.0" viewBox="0 0 512 384"><path d="M0 192v192h90.1c85.4 0 90.1-.1 89.4-1.7-22.9-57.8-34.5-122.5-34.5-192 0-55.4 7.5-102.6 26.3-166L176.4 7l-4-3.5-3.9-3.4L84.3 0H0zM300.6 2.4c9.4 3.7 14.2 6.4 15.5 8.9.6 1.2 1.3 2.3 1.3 2.4.5.6 132.7 27.4 169.5 34.3 11.9 2.3 22.4 4.3 23.4 4.6 1.6.5 1.7-1.2 1.7-26V0H403.3L294.5.1zm7.9 35.1c-3.5 1.6-10.3 1.9-13.8.6-1.3-.5-2.9-.6-3.5-.2-2.8 1.7-23.8 63.7-30.6 90.3-9 34.9-11.1 56.5-11.1 113.8 0 49.3 1.8 68.8 9.1 97 3.1 11.9 12 38.4 14.5 43.2.9 1.7 7.7 1.8 119.9 1.8h119V78.2l-3.7-.7c-8.7-1.5-102.5-21-108.8-22.5-2.2-.5-18.6-4.2-36.5-8-17.9-3.9-36.4-8-41.1-9-9.9-2.3-9.4-2.3-13.4-.5"/></svg>