<svg xmlns="http://www.w3.org/2000/svg" width="682.667" height="512" version="1.0" viewBox="0 0 512 384"><path d="M0 192v192h90c49.5 0 90-.1 90-.3 0-.1-.9-2.5-1.9-5.2-3.5-9.2-11.1-36.2-14.6-51.7-10.9-48.7-16.1-101.2-15.2-151.3.4-16 .8-30.4 1-32 .3-1.7.8-6.6 1.1-11 1.3-15.1 4.7-39 8.2-57 4.5-23.1 16.1-69.1 18.5-73.6C178 .1 175.5 0 89 0H0zM427 .6c1.5.4 84 15.4 84.6 15.4.2 0 .4-3.6.4-8V0l-43.2.1c-23.8.1-42.6.3-41.8.5m-93.3 12c-2.8 1.5-16.6 2.2-18.7.9-1.9-1.2-3.8 3.3-17.3 41.7-2.5 7-6.8 20.1-9.6 29-17.8 57.6-21.5 84.3-21.5 157.8-.1 43.7.9 59.3 5.5 88 2.2 13.3 7.3 33.5 11.7 46.2l2.7 7.8H512l-.2-169.2-.3-169.2-3.5-.8c-1.9-.4-14.3-2.8-27.5-5.3-13.2-2.6-49.9-9.8-81.5-16.2s-58.6-11.7-60-11.9-3.8.3-5.3 1.2"/></svg>