<svg xmlns="http://www.w3.org/2000/svg" width="682.667" height="512" version="1.0" viewBox="0 0 512 384"><path d="M0 192v192h179.8l-1.9-6.3c-24.4-79.2-33.7-173-25.4-256.7 3.1-30.6 9.6-66 18.5-100.7 2.8-10.5 5-19.4 5-19.7S136.4 0 88 0H0zM325.1 1.7c-1.1 2.2-12 32.6-18.4 51.3-16.6 48.7-24.8 83.8-27.6 117.5-2.1 25.5-3.3 64.8-2.8 89.5 1.2 48.8 5.6 81.5 15.9 116.7l2.1 7.3H512V25.2l-4.7-.6c-2.7-.4-13.1-2.3-23.3-4.2S460.8 16 455 15c-17.4-3.2-47.6-8.9-63.6-12.1C377.2.2 375 0 351.2 0c-22.9 0-25.2.2-26.1 1.7"/></svg>