<svg xmlns="http://www.w3.org/2000/svg" width="682.667" height="512" version="1.0" viewBox="0 0 512 384"><path d="M0 192v192h114c62.7 0 114-.4 114-.8 0-.5-.6-5.7-1.4-11.8-.8-6-1.7-14.7-2-19.4s-1.1-15.5-1.6-24c-.6-8.5-1.3-17.3-1.6-19.5-.2-2.2-.9-13.7-1.4-25.6-.5-11.8-1.4-29.8-2-40-2.9-52.2-3.7-122.6-2-176.4 1.3-41.8 2.2-58.7 3.5-64.3L220 0H0zM509.2 15.7c-1.2 4.9-4 15.7-6.2 24.1-6.6 25.3-12.7 67.2-15.2 104.2-1.9 27.6-2.2 40.7-2.2 105.5-.1 67.7.1 76.4 2.2 102.1 1.2 15.5 2.2 29.1 2.2 30.3 0 2 .5 2.1 11 2.1h11V195.5C512 91.8 511.9 7 511.7 7s-1.3 3.9-2.5 8.7"/></svg>