<svg xmlns="http://www.w3.org/2000/svg" width="682.667" height="512" version="1.0" viewBox="0 0 512 384"><path d="M330 17c-1.4.4-4.4.8-6.8.9-9.8.2-14.2 6.7-14.2 20.9 0 5.6 2.3 15.6 4.1 17.8.6.7-1.6 2-6.4 3.8-23.1 8.9-42.3 29.2-45.1 47.6-1.1 7.2-3.6 13.8-6.3 17-2.7 3.3-2 3.9 1.6 1.3 2.4-1.6 2.4-1.6 1.7 1.2-.6 2.5-.5 2.7.9 1.5s1.6-.6 1.4 6.4c-.1 4.2.1 7.9.5 8.3.3.3.6-.1.6-1 0-3.1 1.8-1.8 2.4 1.8.8 4.1 2.5 4.8 2 .7-.4-2.7-.4-2.7.7.3 1.5 3.9 2.9 5.6 4 4.9.5-.3.9 0 .9.6s.6 1 1.3.8 2.7 1.3 4.5 3.2c1.7 1.9 3.2 3 3.2 2.3s.6-1 1.4-.7c1.1.4 1.3 0 .9-1.5-.8-3 .6-2.6 1.8.5 1.3 3.5-.4 8.5-4.3 13-3.3 3.8-3.1 4.5 2.1 7.9 2.5 1.5 4 3.3 4.4 5.2.3 1.6 2.4 4.9 4.7 7.4 2.3 2.4 4.8 5.7 5.7 7.4.8 1.6 2.2 3.8 3 4.7 1.6 1.7 1.5 9.5-.1 13-.7 1.5-.3 1.8 1.8 1.8 2.4 0 2.6.3 2.5 3.7-.2 3.7 1.8 21.1 2.6 22.3.2.3-1.4 4.1-3.5 8.4-2.2 4.3-4.2 9.2-4.6 10.8-.5 2.5-1 2.9-2.7 2.3-5.5-1.6-10.5-1.7-13.5-.1l-3.2 1.7v19.8l-7.2 8c-4.8 5.2-7.8 7.7-8.8 7.4-17.1-6.3-53.5-16.7-56-16-1.4.3-2.9-.7-5.3-3.9-3.1-4-3.4-5-4-13.5-.7-10.4-4-18.7-9-22.4-3.1-2.2-10.1-2.6-19.4-1.1l-5.2.8-.3-4.3c-.4-5.7-2.3-4.8-2.4 1.1l-.1 4.5-7.8 3.2c-9 3.7-12.1 6.3-13 10.7-.4 1.7-1.3 5.2-2.2 7.9-1.3 4.3-1.3 5.1.3 10 1 2.8 1.7 6.1 1.6 7.2-.8 6.8 10.1 21.6 18.6 25.3 4.1 1.8 15.9 4.5 23.2 5.4 2.9.4 3-.3-1 11.3-1.7 4.9-4.7 14.6-6.6 21.5-2 7.5-5.6 17-8.9 23.8-3 6.3-5.5 11.5-5.5 11.8 0 .2 27.5.3 61.2.2l61.2-.3 4.1-12.5c2.2-6.9 4.4-13.2 4.8-14 .7-1.6.2 11.3-.9 21.2l-.7 5.8h72.2c39.6 0 72.1-.2 72.1-.4 0-1.2-4.9-11-8.4-17-5.5-9.4-5.6-9.7-6.2-19.8l-.5-8.7 3.8-1c2.1-.5 5.2-1.3 6.8-1.7 1.7-.4 4.8-1.6 6.9-2.6 3-1.5 3.6-2.2 2.5-2.9s-.7-1.5 1.9-3.9c1.7-1.6 3.2-3.2 3.2-3.5s-2.6-.5-5.9-.5c-4.5 0-7.5.8-13.3 3.4l-7.5 3.4-1.8-8.1c-1-4.5-2-9.3-2.1-10.7s-.7-4.5-1.4-7c-.6-2.5-1.3-6.1-1.6-8s-1.3-6.8-2.4-10.8c-1.5-6.2-1.6-7.4-.4-7.9 2.2-.8 1.6-3.4-1.6-7.7-3.1-4.1-4.7-10.9-3.5-14.7.7-2 1-1.7 2.7 3 2.6 6.9 4 5.5 4-4.1l-.1-7.3 3 6.4c1.6 3.5 3.2 6.1 3.4 5.9.3-.3-.2-4.9-1-10.4-1.2-8.5-2.2-27.6-1.5-32.4.1-.8 1.4 3.1 3 8.7 2.7 9.9 9.2 26.7 11.2 28.8.6.6.7-.5.3-3-2.6-18.3-3.1-22.6-2.5-23 .4-.3 1 .5 1.3 1.6s1.4 2.3 2.5 2.6c1.1.2 2.8 2.3 3.8 4.4 3.1 7 3.6 5.8 3-7.2-.3-6.8-.8-22.8-1.1-35.4-.3-12.7-.8-25.7-1.1-29-1.9-21-7.9-47.3-14.9-65.5-1.9-4.7-3.6-11.1-4-14.3-1.1-9.9-12.2-27.6-21.1-33.5-6-4-19.2-5.6-24.7-3.1-3.4 1.5-4.5.6-22.1-16.6-8.1-8-14.8-14.5-14.9-14.4s-1.3.5-2.7.9m-1.3 197.2c-2.1 1.7-2.2 1.6-2.5-.9-.2-1.4-.1-3.7.3-5.2l.7-2.6 1.8 3.5c1.8 3.5 1.8 3.5-.3 5.2m74.2 33c0 .7-.4 2.2-.9 3.3-.7 1.7-.9 1.5-.9-1.3-.1-1.7.4-3.2.9-3.2.6 0 1 .6.9 1.2m-7.5 38c.2 2 .7 4.2 1.2 5 .4.7.9 3.5 1 6.3l.2 5-1.9-6c-1.1-3.3-2.2-9.6-2.4-14-.4-6.8-.3-7.4.6-4 .5 2.2 1.1 5.7 1.3 7.7m5.6 22.9c0 .6-.4.7-1 .4-.5-.3-1-1.1-1-1.6 0-.6.5-.7 1-.4.6.3 1 1.1 1 1.6"/></svg>