<svg xmlns="http://www.w3.org/2000/svg" width="682.667" height="512" version="1.0" viewBox="0 0 512 384"><path d="M0 192v192l90.3-.3 90.2-.3 12.5-3.5c6.9-2 13.7-3.9 15.1-4.2 1.6-.4 3.7-2.4 5.4-4.9 1.5-2.4 3.9-5.6 5.4-7.1 3.9-4.3 14.9-9.5 22.8-10.7 3.7-.6 7.4-1.7 8.2-2.5 1.3-1.2 1.6-1.1 2.6.8.6 1.2 1.7 2.1 2.3 2 .9-.2 1.2 3.9 1.2 15.2V384l33.8-.1h33.7l-5-1.9c-2.7-1.1-7.5-2.6-10.5-3.5-4.1-1.1-7.4-3.1-13-8-12-10.3-15.4-12.5-20.7-13.1-8.2-.9-9.1-1.3-11-4.5l-1.8-3.1-.5 3.4-.5 3.3-2.2-2.5-2.3-2.4V0H0z"/></svg>