<svg xmlns="http://www.w3.org/2000/svg" width="682.667" height="512" version="1.0" viewBox="0 0 512 384"><path d="M322.5 18.7c-7.3 1-10.5 2.4-13.2 5.9-2.3 3.1-2.7 4.7-3.1 12.3-.3 6.9 0 9.8 1.8 15 1.1 3.5 1.8 6.7 1.3 7.1-.4.4-2.8 1.5-5.3 2.4-13.1 5-28.7 17.7-36.5 29.6-4.8 7.4-5.8 10.2-8 21.5-.9 5.1-2.6 9.7-4.5 12.8-2.9 4.7-2.5 5.1 1.4 1.8 1.8-1.5 1.9-1.4 1.4 1.6-.4 2.6-.2 3 .9 2.2 1.1-.9 1.3.4 1.4 7.2.1 4.6.3 7.6.6 6.6.7-2.6 2.1-2 2.8 1.3.9 4.2 2.6 4.8 2 .8l-.5-3.3 1.2 3.2c1.6 4 3.8 6.4 3.8 4.3 0-1.3.2-1.3 1 0 .5.8 1.3 1.5 1.7 1.5s2.3 1.5 4.2 3.2c3.4 3.2 6.1 3.4 6.1.4.1-1.4.2-1.3 1.1.2 1.6 2.8.2 8.3-3.2 12.2-3.8 4.3-3.4 6.4 1.4 9 2.5 1.4 4 3 4.6 5.1.5 1.7 2.6 4.9 4.8 7.1 7.9 8.1 10.6 15.4 8.4 23-.7 2.5-.6 3.3.6 3.7.8.3 1.9.4 2.4 0 1.2-.7 1.1 2.7-.1 4.6-.6 1-.5 2 .4 3 .8.8 1.9 5.4 2.6 10.2l1.2 8.7-3.4 7.3c-1.9 4-3.9 8.6-4.4 10.3-.7 2.2-1.5 2.9-3 2.6-1-.2-4.4-.5-7.6-.8-4.8-.4-6-.1-7.7 1.6-1.8 1.8-2.1 3.3-2.1 10.7v8.7l-6.7 7.6c-3.7 4.2-7 7.9-7.3 8.4-.3.4-3.4-.4-6.8-1.8-13.3-5.4-48.7-15.8-51.2-15-1.3.4-2.2-.1-3.1-1.7-.6-1.3-1.9-3.2-2.9-4.3-1.2-1.4-1.9-4.5-2.3-10-.8-9.6-2-14.2-5-18.5-4.9-7.3-9.2-8.6-22.8-6.6l-5.7.8-.7-4.1c-.9-5.7-2.5-5.2-2.5.8v5l-5.7 2.1c-12.5 4.5-13.7 5.6-16.4 16.2-2.2 8.5-2.2 8.9-.6 13.5.9 2.7 1.7 6.1 1.7 7.8.1 4.6 3.2 10.4 9.5 17.2 5 5.5 6.5 6.5 12.4 8.3 3.6 1.1 10 2.6 14.1 3.4 5.6.9 7.4 1.6 7.1 2.7-.2.8-2.3 7.2-4.6 14.4-2.4 7.2-5.3 16.8-6.5 21.5-1.2 4.8-4.8 13.7-8.1 20.4-3.2 6.5-5.9 12.1-5.9 12.2 0 .2 27.6.4 61.4.4h61.4l1.4-3.7c.8-2.1 3-9.1 4.9-15.5 1.9-6.5 3.7-11.8 4.2-11.8 1 0 .8 6.6-.7 19.7l-1.2 11.3H434l-1.5-3.8c-.9-2-3.7-7.5-6.2-12.2-5.6-10.4-6.3-12.5-6.9-22.1l-.5-7.6 6.7-1.7c8.7-2.2 15.2-5.5 13.3-6.7-1.1-.7-.7-1.4 1.9-3.5 1.7-1.4 3.2-3 3.2-3.5s-2.5-.9-5.4-.9c-4.1 0-7.4.9-13.2 3.5-8.4 3.9-9.3 3.7-9.4-2-.1-1.7-.7-4.8-1.5-7s-1.5-5.3-1.5-6.9-.7-5.5-1.5-8.5c-.8-3.1-2.3-9.6-3.3-14.4-1.9-8.7-1.9-8.8.1-10.2 1.9-1.3 1.9-1.5-2.2-8-2.4-3.7-4.5-8.3-4.8-10.4-.8-5 1-3 3.2 3.6 3 9.3 3.7 7.6 3.3-7.5-.1-7.8 0-13.8.3-13.4.4.4 1.7 3.5 2.9 7 2.6 7.1 4.4 9.1 3.6 4-.3-1.8-.8-5-1.1-7-1.4-8.7-2.3-24-1.6-26.6.9-2.9.8-3.3 4.2 10.2 1.2 4.5 6.9 19 9.2 23.2 2 3.6 2.1 1.9.3-7.6-.8-4.1-1.7-10.9-2-15l-.7-7.5 5.7 10.8c3.1 5.9 5.8 10.7 5.9 10.5.8-.9-1.8-77.3-3-88-2.3-19.2-6.7-37.7-13.5-55.3-2.1-5.5-4.1-12.1-4.4-14.6-1.6-13.7-12.9-30.9-23.8-36.3-4.2-2.1-6.6-2.6-12.9-2.6-4.3 0-8.9.5-10.2 1.1-3.1 1.4-7.7-1.6-16.9-11.1-3.7-3.8-8.6-8.3-10.8-9.9-2.3-1.6-5-4.1-6.1-5.5-2.1-2.6-3.4-2.8-10.4-1.9M280.9 157c0 1-.3.8-.9-.5-1.2-2.7-1.2-4.3 0-2.5.5.8.9 2.2.9 3m47.6 51.7 1.8 3.7-2.8 2.3c-1.5 1.3-2.9 2.3-3 2.1-.7-.7.8-12.7 1.5-12.3.4.3 1.5 2.1 2.5 4.2m72.4 43.3c.1 1.3 0 1.3-.9 0-.5-.8-.9-2.4-.9-3.5v-2l.9 2c.5 1.1.9 2.7.9 3.5m-5.5 40c.5 3.7.5 4.1-.4 2.1-.6-1.4-1.3-5.2-1.5-8.5-.4-5.3-.3-5.6.5-2.1.4 2.2 1.1 6 1.4 8.5"/></svg>