<svg xmlns="http://www.w3.org/2000/svg" width="682.667" height="512" version="1.0" viewBox="0 0 512 384"><path d="M0 192v192h186.8l3-7.8c1.7-4.2 3.3-10 3.6-12.7.3-2.8 1.6-7.8 3-11.2 3.1-7.5 3.3-9.6.9-8.9-7.2 2.2-19.7 4.6-24.1 4.6-4.7 0-5.3-.2-6.2-2.6-.7-1.8-.7-3 0-3.9 2.4-2.9 22.8-10.3 37.2-13.5 5.3-1.2 6.1-1.7 8.9-6.1 6-9.4 15.3-15.3 27.5-17.4 7.3-1.3 10.5-1.3 13.7 0 1.6.7 1.7-7 1.7-151.9V0H0zm261 113.3c0 1.4-.5 1.6-2.5 1.1l-2.5-.6V384h32c17.6 0 32-.2 32-.6 0-3.1-3.4-14.4-4.4-14.4-.8 0-1.3-1.9-1.5-5.8-.2-7.5-1.1-12.1-2.7-15.4-.8-1.5-1.4-2.9-1.4-3.1s3.9 1.1 8.8 2.9c10.1 3.8 20.1 5.9 23.5 5 3.2-.8 4.2-4.4 1.9-6.9-2.7-3.1-16.5-9.5-29.5-13.9-11.7-3.9-12.5-4.3-22.5-12.8-11.2-9.5-15.1-11.3-23.2-10.3-4.1.4-4.6.2-6.2-2.4-1.3-2-1.8-2.3-1.8-1"/></svg>