<svg xmlns="http://www.w3.org/2000/svg" width="682.667" height="512" version="1.0" viewBox="0 0 512 384"><path d="M0 192v192h186v-2.9c0-1.5 1.4-6.1 3.1-10.2 1.6-4.1 3.2-9.4 3.5-11.9s1.9-8.5 3.6-13.3 2.9-9 2.6-9.2c-.2-.2-3.7.4-7.7 1.5-8.8 2.2-19.1 3.5-21.9 2.6-2.7-.9-3.5-4.6-1.5-6.8 2.6-2.9 15.2-7.4 39.4-13.8 2.5-.7 4.1-2 5.6-4.7 3.3-5.9 9.1-10.9 16.8-14.5 6.4-3 7.8-3.3 16.7-3.3h9.8V0H0zm261.1 106.4c-.1 1.4-.6 1.7-2.6 1.2l-2.5-.6v85h33c28.5 0 33-.2 33-1.5 0-2.8-5.1-18.9-6.4-20.4-.9-1-1.5-4.7-1.8-9.6-.2-4.9-1-9.3-2.1-11.4-2.1-4.2-2.1-4.4.1-3.2 4.8 2.6 24.2 8.1 28.5 8.1 2.9 0 5.7-2.4 5.7-4.8 0-3.7-17.7-12.8-34.4-17.6-6.6-2-9.1-3.3-16.3-9.2-15.2-12.4-14.1-11.9-25.4-12.9-5.5-.5-6.8-1-7.7-2.8-.9-1.9-1.1-2-1.1-.3"/></svg>