<svg xmlns="http://www.w3.org/2000/svg" width="682.667" height="512" version="1.0" viewBox="0 0 512 384"><path d="M0 192v192h94.1c89.3 0 94.1-.1 93.3-1.7-2-4.6-1.5-9.9 1.5-17.8 1.8-4.4 3.6-11 4.1-14.6s1.8-8.5 3-11c2.5-5.7 2.7-9.2.3-8.5-4.4 1.4-21.1 4.6-24 4.6-4 0-7.3-4.1-5.6-6.9 1.6-2.5 16.7-8.7 30.4-12.5l12.4-3.3 4.5-6.4c7.5-10.4 19.8-16.2 33.5-15.7l8 .3.3 46.8.2 46.7h64.8l.6-2.3c.3-1.2.6-3.8.6-5.7 0-4.1-4.7-18.9-6.7-20.8-.8-.9-1.3-3.9-1.3-8.8 0-4.3-.6-9-1.4-10.9s-1.3-3.5-1-3.5 4.7 1.3 9.7 2.9c15.6 5 19.3 5.6 22.2 3.7 5.5-3.6 1.9-7.7-12.6-14.5-4.6-2.2-12.6-5.3-17.8-7.1-8.2-2.7-10.7-4.2-18.8-10.8-13.2-10.8-13.6-11-22.5-11.8-4.8-.4-8.2-1.2-8.9-2.1-1-1.1-1.4-1.1-2-.1s-1.3 1-2.6.2c-1.7-1.1-1.8-8.4-2.1-146.8L256 0H0z"/></svg>