<svg xmlns="http://www.w3.org/2000/svg" width="682.667" height="512" version="1.0" viewBox="0 0 512 384"><path d="M0 192v192h196l-3.9-5c-5.7-7.2-6.1-11.4-2.2-23.2 1.7-5.1 3.1-11 3.1-13 0-2.1 1.1-7.1 2.4-11.2s2.2-7.7 1.9-7.9c-.2-.3-2.5.2-5.1.9-8 2.5-20.4 4.3-22.7 3.4-3.7-1.4-3.8-4.9-.4-8.1 3.2-2.9 18.1-9.2 31.2-13 7.6-2.3 7.8-2.4 12.7-9.1 8.3-11.3 18.1-16.1 33.2-16.2l9.8-.1V0H0zm261 90.9c0 .9-.8 1.1-2.5.7l-2.5-.6v101h59.9l1.9-2.8c2.3-3.2 4.2-9.4 4.2-13.9 0-4-3.8-15.9-6.1-19.3-1.3-1.9-1.8-5.1-2.1-12.7-.3-9.3-.2-10.1 1.3-9.2 3.4 1.8 18 6 22.8 6.6 4.5.5 5 .3 6.6-2.1 1.8-2.7 1.8-2.7-1.3-5.9-4.2-4.3-14.5-9.8-27.6-14.7-9.5-3.6-11.7-4.9-20.8-12.6-5.6-4.7-11.3-9.1-12.7-9.8s-6.2-1.6-10.5-2c-5.8-.4-8.2-1.1-9.2-2.3-.9-1.3-1.3-1.4-1.4-.4"/></svg>