<svg xmlns="http://www.w3.org/2000/svg" width="682.667" height="512" version="1.0" viewBox="0 0 512 384"><path d="M0 192v192h204.1l-3.1-4.3c-1.7-2.3-5.1-7.2-7.7-10.9l-4.6-6.8.6-6.7c.4-3.8 1.6-9.7 2.7-13.1 1.1-3.5 2-8.8 2-11.7s.7-7.2 1.5-9.5c.8-2.4 1.4-4.4 1.2-4.6-.1-.2-3.8.7-8.2 2-11.7 3.4-17.9 4-19.9 2.1-2.3-2.4-2-4.8 1.2-7.7 3-2.8 15.3-9.2 24.7-12.7 12.7-4.8 13-5 17.4-11.6 2.3-3.5 5.4-7.3 6.9-8.3 11-7.8 28-12 35.5-8.7 1.6.7 1.7-6.1 1.7-135.4V0H0zm261 80.4c0 1.2-.6 1.5-2.5 1l-2.5-.6V384h53.8l.7-2.7c.3-1.6 2.2-4.4 4-6.3 8.8-9.1 9.4-22.1 1.6-36.5-2.4-4.4-2.6-5.8-2.3-12.6l.3-7.6 9.2 3.4c5.1 1.9 11.5 3.7 14.4 4 4.9.5 5.3.4 6.4-2 1-2.2.9-3.1-.5-5.1-3-4.7-20.7-15.2-33.8-20.1-2.6-.9-4.9-2.3-5.2-3-.7-2-20.7-17.6-24.5-19.2-2.5-1.1-5.2-1.3-9.2-.9-5.3.6-5.8.5-7.8-2-1.5-2-2.1-2.2-2.1-1"/></svg>