<svg xmlns="http://www.w3.org/2000/svg" width="682.667" height="512" version="1.0" viewBox="0 0 512 384"><path d="M0 192v192h200.6l5.2-11.9 5.3-11.9-.8-8.9c-.6-5.9-1.2-8.7-2-8.6-2.9.6-4.7-7.2-3.1-13.2 1-3.7.9-4.5-.5-6-.9-.9-2-2.8-2.3-4.3s-1.2-4.7-2-7.1c-1.8-5.6-1.7-10.5.1-15.6 2-5.4 1.9-6-1.2-12.4-2.4-4.9-2.8-6.8-2.8-14.8 0-5.1-.1-9.3-.3-9.3-.1 0-2 .9-4.2 2-4.8 2.4-11.2 2.6-13.5.4-3.4-3.4.5-14 8.3-22.6 1.9-2.1 6.6-6.2 10.3-8.9 6.4-4.8 10.3-9.3 17.9-20.7 2.3-3.5 5.4-6.5 9-8.7 9.9-6 24.9-9.2 30.1-6.5 1.9 1 1.9 3.2 1.9 95v94h27.6c26 0 27.6-.1 26.8-1.8-.9-1.7-1.7-64.5-.9-67 .4-1 1-.9 2.9.3 2.4 1.6 2.5 1.6 4-1.4.9-1.6 1.6-4.1 1.6-5.5 0-3.4-2.8-13.9-5-18.8-1.8-4-1.8-4.3-.1-6.7 3.1-4.7 4.1-8.1 4.1-14.1v-5.9l3.5 1.5c7.5 3.1 13.5.8 13.5-5.2 0-7.4-9.8-20.6-22.3-29.9-3.9-3-7-6.3-8.4-9-1.3-2.4-4-5.6-6-7.2-2.1-1.5-6.3-4.9-9.3-7.5-6.8-5.7-8.8-6.5-18.7-7.3-4.3-.4-9-1.1-10.5-1.7l-2.8-1V0H0zm318.5 55.2c6.8 7.1 7.3 9.3 1.7 6.4-5.9-3-13.1-13.6-9.3-13.6.5 0 3.9 3.2 7.6 7.2"/><path d="M192.6 245.7c-7.3 7.2-7.3 9.2.1 5.5 5.5-2.8 7.5-5.4 7.1-9.2l-.3-3.2zm19.6 87.8c0 1.6.2 2.2.5 1.2.2-.9.2-2.3 0-3-.3-.6-.5.1-.5 1.8m1 9c-.1 2.2.3 5.8.7 8 .8 3.4.9 3.6.9 1 0-1.7-.3-5.3-.8-8-.7-4.9-.7-4.9-.8-1"/></svg>