<svg xmlns="http://www.w3.org/2000/svg" width="682.667" height="512" version="1.0" viewBox="0 0 512 384"><path d="M0 192v192h195.7l3.3-9.3c1.7-5 5-13 7.2-17.7l4-8.5-.6-19c-.6-20.2-1.1-23.5-3.1-23.5-.8 0-2.3-2.6-3.5-5.8-1.7-4.3-2.1-7.1-1.7-11.8.3-4.8.1-6.4-1.4-8.3-2.8-3.4-2.4-6.9 2.3-21.3l4.1-12.9-2.3-1.6c-2.3-1.6-8.2-13.5-9.4-19-.6-2.8-1.2-3.2-5.3-3.8-7.7-1.1-11.3-7.3-9-15.5 1.3-4.9 13.5-16.6 21.7-20.9 6.9-3.6 12.8-9 17.9-16.4 2.3-3.4 4.8-5.4 9.5-7.7 7.7-3.8 17.9-5.8 22.7-4.4l3.4 1 .3 113.2.2 113.2h60.1l-.6-2.3c-.4-1.2-2.3-6.4-4.2-11.5l-3.4-9.2.6-27.8c.3-15.2.5-31.8.5-36.7l-.1-9 2.7 3.9c2.4 3.5 2.7 3.7 4.3 2.2 3-3.1 1-23.4-3.3-33.1-1.5-3.3-3.9-8.8-5.3-12.3-2.8-7.1-2.7-7.5 3.5-19.7l3-5.8 6.1-.1c5.1-.1 6.5-.5 8.7-2.7 3.4-3.4 4.2-9.4 1.9-14-4.3-8.3-13.6-16.9-24.2-22.2-2.8-1.5-6.1-4-7.3-5.7-1.2-1.6-4.2-4.4-6.8-6.1-2.6-1.8-6-4.5-7.7-6-4.5-4.2-10-6.2-15.2-5.4-3.1.4-5.7.1-8.8-1.1l-4.5-1.7V0H0zm313.1 5.8c6 4.9 10.9 10.6 10.9 12.6 0 3.9-8.9 2.6-11.1-1.6-.6-1.3-1.9-3.2-2.9-4.3-1.8-2.1-3.6-10.5-2.2-10.5.4 0 2.8 1.7 5.3 3.8"/><path d="M197.3 197.9c-5.9 4.6-10.5 9.9-10 11.5.5 1.5 8.1 2 10.7.6 1.4-.7 2-2.1 2-4.3 0-1.8.9-5.1 2-7.5 1-2.3 1.5-4.2 1-4.2-.4 0-3 1.7-5.7 3.9m14.9 121.6c0 1.6.2 2.2.5 1.2.2-.9.2-2.3 0-3-.3-.6-.5.1-.5 1.8m.9 11.1c.1 2.7.5 6 1 7.4.5 1.6.6-.1.2-4.5-.7-8.3-1.3-9.9-1.2-2.9"/></svg>