<svg xmlns="http://www.w3.org/2000/svg" width="682.667" height="512" version="1.0" viewBox="0 0 512 384"><path d="M0 192v192h98.6c95.6 0 98.5-.1 97.9-1.9-.6-2.1 4-15.7 9.8-28.6l4-8.9-.6-17.6c-.8-21.2-1.5-27-3.3-27-1.6 0-2.6-1.8-4.7-8-1.1-3.4-1.3-5.8-.6-9.4.7-4.1.6-5.2-1.1-7.6-2.9-4.1-2.5-7.3 2.6-22.5l4.6-13.6-4.1-4.4c-2.3-2.5-4.1-5-4.1-5.7 0-.8-1-3.1-2.2-5.3-1.1-2.2-2.4-5.3-2.7-7-.6-2.5-1.4-3.2-5.3-4.3-10.1-2.8-12.9-11.9-6.3-20.5 4-5.2 13-12 22.1-16.5 4.5-2.3 8.2-5.3 13.4-11.1 9.7-10.7 15.7-13.5 28.5-13.6h9l.3 116.7.2 116.8h29.4c27.6 0 29.5-.1 30-1.8.6-1.9-1.9-10.4-5.4-18.7-2.8-6.5-3.5-23.3-1.9-46 .7-9.9 1.1-21.6 1-25.9-.2-7 0-7.8 1.3-6.7.8.7 1.8 2.1 2.1 3.2 1.8 5.7 6.2-1.5 5.1-8.4-.4-2.3-1.1-7.4-1.5-11.2-.8-6.5-2.5-11.3-10.4-28.8l-2.1-4.9 2.3-4.4c1.3-2.4 3.4-7.2 4.5-10.7l2.2-6.2 5.1.3c8.2.6 13.7-3.3 14.8-10.3 1.3-8.5-9.6-20.3-26.2-28.2-4.2-2-7.5-4.3-7.8-5.4-.4-1.1-1.9-2.6-3.4-3.4-1.5-.7-5.2-3.4-8.2-5.8-7.6-6.2-8.9-6.7-16.9-6.7-3.9 0-8.6-.6-10.5-1.4l-3.5-1.5V0H0zm311.9-4.1c6.6 4.3 13.4 11.5 12.9 13.7-.2 1.5-1.4 2-5.5 2.2-5 .3-5.1.2-5.8-2.8-.4-1.7-1.8-4.4-3.2-6.1-2.3-2.7-4.9-9.9-3.5-9.9.3 0 2.6 1.3 5.1 2.9"/><path d="M198 188.3c-7.3 4.9-12.9 11.2-11.3 12.8.5.5 3.7.9 6.9.7l5.9-.3.6-4.5c.3-2.5 1.6-6.2 2.8-8.3 1.3-2.1 2.1-4 1.9-4.2-.2-.3-3.3 1.4-6.8 3.8m14.2 128.2c0 1.6.2 2.2.5 1.2.2-.9.2-2.3 0-3-.3-.6-.5.1-.5 1.8m.9 12.3c-.1 5.5.2 7.3 1.2 6.9 1.3-.4 1.3-1.1-.2-9.2l-.8-5z"/></svg>