<svg xmlns="http://www.w3.org/2000/svg" width="682.667" height="512" version="1.0" viewBox="0 0 512 384"><path d="M0 192v192h193.9l1.6-3c.9-1.7 1.3-3.9 1-4.9-.6-2.1 4.4-16.4 9.9-28.4 4.2-9 4.3-11.1 2.5-39-1.1-16.8-1.2-17.1-4-19.9-4.1-4.2-5.5-9.5-3.9-15.2 1.1-4.1 1-4.7-.9-7.4-2.8-3.9-2.7-7.7.5-16.5 1.4-3.9 3.2-9.5 4.1-12.2.8-2.8 2.4-6.2 3.5-7.7 1.8-2.6 1.8-2.9.2-5.9-.9-1.8-3.2-4.8-5-6.7-1.9-2-3.7-4.7-4-6.1-.2-1.4-1.4-4.3-2.4-6.3-1.1-2-2-4.4-2-5.3s-.8-1.8-1.7-2.1c-1-.4-4.2-1.7-7.2-3.1-5.6-2.7-8.1-6.3-8.1-11.9 0-7.3 12.1-16.8 31.1-24.3 4.1-1.6 7.3-3.9 11.7-8.6 5.1-5.4 6.9-6.6 12.3-8.3 8.1-2.5 16-3.6 19.9-2.7l3 .7V384h62.1l-1.5-2.8c-.8-1.6-1.3-3.8-1-4.9s-1.4-6.9-3.7-12.9l-4.3-10.9-.4-17c-.2-9.4.2-23.8.9-32 .7-8.3 1.2-18.2 1.1-22l-.2-7 2.7 4.4 2.7 4.4 1.9-2.4c1.4-1.8 1.7-3.4 1.4-6.9-2.3-19.8-2.4-20.6-7.6-32.5-2.8-6.6-6.3-13.1-7.6-14.5-1.5-1.5-2.1-3-1.6-3.6 1.2-1.3 7.8-17.2 8.8-21.2.8-3.2 1-3.4 6.3-3.6 10.1-.5 18-6.7 18-14.2 0-3.7-4.1-9.8-9.8-14.2-4.2-3.4-18.2-10.7-22.5-11.7-1.4-.4-3.7-2-5.1-3.6s-3.2-2.9-4-2.9-3.8-1.9-6.6-4.1c-5.4-4.2-13.3-6.9-25-8.5l-5-.7V0H0zm313.9-19c6.5 3.7 13.1 9.9 13.1 12.1 0 1.2-5.2 3.5-10.2 4.4l-3.8.7v-6.1c0-5.6-.2-6.2-3-8.3-1.7-1.2-3.7-3.5-4.5-5.1-1.8-3.6-1.3-3.4 8.4 2.3M302 335.6c0 1.4-.4 2.3-.9 2s-.7-1.5-.4-2.6c.7-2.8 1.3-2.5 1.3.6"/><path d="M200.5 170.4c-6.3 3.4-11.2 7-13.6 10-2.5 3.2-1.7 4.6 4 6.5 7.3 2.4 10.1.6 10.1-6.8 0-1.5 1.1-4.2 2.5-6.1 2.4-3.3 3.3-6.1 1.8-5.9-.5.1-2.6 1.1-4.8 2.3M212.2 313c0 1.9.2 2.7.5 1.7.2-.9.2-2.5 0-3.5-.3-.9-.5-.1-.5 1.8m.8 13.1v6.4l1.9-2.4c1.7-2.2 1.7-2.7.4-6-2.2-5.2-2.3-5.1-2.3 2"/></svg>