<svg xmlns="http://www.w3.org/2000/svg" width="682.667" height="512" version="1.0" viewBox="0 0 512 384"><path d="M0 192v192l94.8-.1h94.7l3.3-5.1c2.4-3.5 3.5-6.4 3.7-9.7.3-5.1 4.4-16.8 10-28.5l3.8-7.7-.7-14.7c-.4-8.1-1.1-20.1-1.6-26.7s-1-12.4-1-12.8c0-.5-.4-.6-.9-.3s-2-.5-3.5-1.9c-2-1.9-2.6-3.3-2.6-6.8 0-2.4.5-5.8 1.1-7.5.9-2.7.8-3.5-1-5.8-3-3.8-2.6-8 1.5-19.2 2-5.3 4.1-10.9 4.6-12.4.6-1.5 2.7-4.3 4.7-6.1 3.4-3 3.6-3.5 3.3-8.6-.3-5.8-3.5-11.8-7.8-14.6-3.5-2.3-5.8-6.3-5.6-9.9.2-3-.2-3.3-5.8-5.9-6.9-3.2-12.4-7.7-14.6-11.8-5.5-10.7 4.9-20.5 28.2-26.4 9.5-2.4 10.1-2.7 15.9-8.5 7.4-7.3 14.5-10.7 24.3-11.6l7.2-.7V384h33c18.2 0 33-.4 33-.8s-1.4-2.7-3.1-5c-2.2-3-3.2-5.5-3.4-9-.1-2.6-2.1-9.7-4.5-15.7l-4.2-11 .7-29c.4-16 1-33.3 1.3-38.5l.7-9.5 1.9 4.3c2.4 5 3.9 5.3 5.7 1.1 1-2.5 1-4.3.1-8.8-.7-3.2-1.2-7.9-1.2-10.5 0-7-9.2-28.8-14.2-33.5-3.1-2.9-3.8-4.3-3.8-7.3 0-2-.7-4.3-1.5-5.2-2.1-2.1-1.9-2.9.5-1.6s4 .6 4-1.8c0-.9.7-3.4 1.5-5.7.8-2.2 1.9-5.9 2.5-8.1.9-3.8 1.3-4.2 4.9-4.7 13.3-1.7 25.9-13.7 23.2-22-2.5-7.6-15.1-15.8-29.7-19.4-6.2-1.5-7.4-2.3-13.3-8.4-3.7-3.6-8.4-7.5-10.6-8.6-4.8-2.5-13-4.3-19-4.3H256V0H0zm318-35.9c5 3 9 7 9 8.9 0 2.3-2.6 4.4-9 7.4-8.2 3.8-8.8 3.6-8.3-2.7.3-2.8.9-6.5 1.4-8.1s.9-4 .9-5.2c0-2.9 1.5-3 6-.3m-16.5 173.7c-1.3 1.3-2.3-2.2-1.2-4.2s1.2-2 1.5.7c.2 1.6.1 3.2-.3 3.5"/><path d="M193.9 154.9c-2.9 1.5-6.2 4-7.3 5.5l-2 2.6 2.5 2.6c3 3.2 9.9 6.9 9.9 5.3 0-.6 1.4-2.7 3-4.6 3-3.4 3.7-7 2.4-12.1-.8-2.9-2-2.8-8.5.7m18.3 156.6c0 2.7.3 7.1.6 9.6l.7 4.6 2.1-3.2c2.1-3.1 2.1-3.3.3-6.9-.9-2-2.2-4.9-2.7-6.4-.9-2.4-1-2.2-1 2.3"/></svg>