<svg xmlns="http://www.w3.org/2000/svg" width="682.667" height="512" version="1.0" viewBox="0 0 512 384"><path d="M0 192v192l94.3-.1h94.2l3.9-6.1c2.6-3.9 3.9-7.2 3.9-9.2-.2-4.3 2.1-11.1 8.4-25.5l5.5-12.5-.6-12c-2-36.4-2.5-41.8-4.3-43.1-1-.7-2.1-1.1-2.6-.8-.4.2-1.4-1.2-2.3-3.3-1.5-3.7-1.4-5.4 1.1-14.1.2-.6-.5-2.3-1.6-3.6-2.7-3.6-2.4-7.3 1.7-18.4 5.5-15.2 6.5-17.1 9.9-19.7 2.5-2 3.1-3.1 2.8-5-1-4.8.4-7.5 4.2-8.2 4.2-.8 3.7-2-1.9-4.4-3-1.2-4.7-2.8-5.6-4.9-.7-1.8-2.2-3.4-3.6-3.7-2.5-.6-6.4-6-6.4-8.7 0-.9-1.2-2.4-2.7-3.3-14.1-8.5-18.3-13.1-18.3-19.8 0-7 6.7-13.4 18-17.1 3-1 6-2.2 6.6-2.6.6-.5 1.3-.6 1.7-.3.3.3 3.1 0 6.2-.7 5.2-1.1 5.9-1.7 9.1-6.5 3.4-5.1 9.8-10.1 15.8-12.4 1.6-.6 6.5-1.4 10.8-1.7l7.8-.6V384h33.5c18.4 0 33.5-.3 33.5-.7s-1.7-3.2-3.7-6.1c-2.4-3.5-3.6-6.4-3.6-8.5.1-3.6-3.8-16.1-7-22.2-1.9-3.9-2-5-1.2-35 .4-17.1 1-34.8 1.4-39.5l.6-8.5 1.9 4.2c2.3 4.9 3.8 5.4 5.4 1.8 1.5-3.1 1.5-7.5.2-10.9-.5-1.4-1.1-5.4-1.3-9-.3-4.5-1.6-9.1-4.2-15.3-6.2-14.6-7.4-16.8-10.5-19.1-2.3-1.7-3-3-3-5.6 0-4.7-.9-6.6-3-6.6-2.7 0-3-1.1-1-4.3 1.5-2.4 1.9-2.6 3-1.2 2.2 2.7 4.7 1.6 4.1-1.8-.1-.5.8-3.7 2-7.2 2.1-6.3 2.1-6.3 7.9-8.3 12.3-4.2 22-13.3 22-20.9 0-5-5.5-10.9-14-15.1-4.1-2-7.8-4.1-8.2-4.6-.3-.5-2.8-1-5.5-1.1-6.3-.3-10.1-1.9-11.2-4.7-1.4-3.5-9.2-11.3-13.6-13.5-5-2.5-13-4.3-19.5-4.3h-5V0H0zm318.1-40.4c2.9 1.5 8.9 7.1 8.9 8.3 0 2.3-5 6.6-11.2 9.7-3.9 1.9-7.2 3.3-7.5 3.1-.2-.3.1-2.4.7-4.8.7-2.3.9-5.6.6-7.1-.3-1.6 0-4.9.6-7.3 1.3-4.9 1.9-5 7.9-1.9M302 324.5c0 3.6-1.3 4.7-2.4 1.9-.5-1.4.9-5.4 1.9-5.4.3 0 .5 1.6.5 3.5"/><path d="M194.4 150c-10.1 4.9-10.8 9.6-2.1 15.2l4.2 2.7.3-2.2c.2-1.2 1.5-3.4 2.9-4.9 1.5-1.5 2.9-4.6 3.4-7.3 1.4-7.5.5-7.9-8.7-3.5m17.7 161c-.1 3 .2 7.2.5 9.3l.7 3.8 2.4-3.6 2.3-3.5-2.9-5.7-3-5.8z"/></svg>