<svg xmlns="http://www.w3.org/2000/svg" width="682.667" height="512" version="1.0" viewBox="0 0 512 384"><path d="M0 192v192l93.8-.1h93.7l4.3-6.5c3.2-4.8 4.4-7.8 4.6-11.2.4-5.3 4.1-15.8 9.7-28.1l3.9-8.4-1.1-22.1c-1.5-31.7-1.8-33.9-4.9-34.6-3.8-.9-5.6-5.4-4.2-10.7 1.6-5.9 1.5-9.8-.3-11.3-2.4-2-1.8-7.3 1.9-16.8 1.8-4.8 3.9-10.4 4.5-12.4.7-2.2 2.9-5.2 5.2-7.2 3.4-2.8 3.9-3.8 3.3-6-.3-1.4-.3-3.7 0-5 .5-1.9 1.4-2.5 5.6-3 3-.4 5-1.2 5-1.9 0-2-6.2-7.4-9.1-8.1-1.6-.3-3.5-2-4.7-4.1-1.2-1.9-3.2-3.7-4.5-4-1.3-.4-3.1-2-4.1-3.6-.9-1.6-4.1-4.4-6.9-6.3-10.8-7-16.4-15.5-14.6-22 1.7-5.9 6.9-9.8 18.4-13.8 3.1-1.1 4.1-2.1 4.9-4.6 1.1-3.9 1.8-4 4.4-.7 3.4 4.4 6.8 3.2 11.4-4 7-11 15.2-15.5 28.3-15.5h7.5v272h34c18.7 0 34-.4 34-.8 0-.5-1.8-3.4-4.1-6.6-3.2-4.4-4.1-6.7-4.3-10.4-.2-2.6-2-8.9-4.2-14.2l-3.9-9.5V317c0-14 .4-32.3.9-40.5l.9-15 2 4.3c1.3 2.6 2.7 4.2 3.6 4 2.5-.5 3.6-6.3 2.2-11.7-.7-2.7-1.4-7.5-1.5-10.7-.4-8.1-9.4-29.1-14.2-33.4-2.7-2.4-3.4-3.7-3.4-6.7 0-5.2-.7-5.9-6.2-6.7-2.7-.4-4.8-1-4.8-1.4s1.9-2.4 4.3-4.3c3.3-2.8 4.6-3.4 5.8-2.6 2.1 1.3 5.7.1 4.2-1.4-.7-.7-.3-2.5 1.1-5.6 1.8-3.9 2.9-4.9 8.4-7.3 17.3-7.9 25.1-19.9 19-29-2.3-3.3-9.2-8.1-13.9-9.5-3.6-1.1-4.6-2.2-5.3-6-.4-1.9-1-3.5-1.5-3.5-.4 0-2 1.3-3.5 2.9-3.4 3.6-7.1 3.1-9.5-1.2-3.8-6.9-10.2-13.6-15.6-16.3-4.5-2.2-7.5-2.8-15.1-3.2l-9.4-.5V0H0zm316.3-44.4c13.7 6.9 13 12.4-2.4 20.4-6.5 3.4-8.1 3.9-7.4 2.4 2.8-6.7 3.8-12.6 2.7-15.8-.9-2.4-.9-3.9 0-6.4.7-1.8 1.4-3.2 1.6-3.2.1 0 2.6 1.2 5.5 2.6m-14.8 178.2c-.3.3-1 .1-1.7-.6-.8-.8-.7-1.9.3-4.4l1.4-3.3.3 3.9c.2 2.1.1 4.1-.3 4.4"/><path d="M196.5 145.5c-5.7 2.4-10.5 6.6-10.5 9.2 0 1.8 7.4 8.6 12 11.1l4 2.1-2.5-3.7c-3.3-4.9-3.2-6.7.9-10.3 1.9-1.6 3.5-3.8 3.5-4.7s.1-2.6.3-3.6c.4-2.8-1-2.8-7.7-.1M212 313.9v10.5l3.1-4.9c3-4.8 3.1-5 1.4-7.7-.9-1.6-2.3-4.1-3.1-5.6-1.3-2.5-1.4-1.9-1.4 7.7"/></svg>