<svg xmlns="http://www.w3.org/2000/svg" width="682.667" height="512" version="1.0" viewBox="0 0 512 384"><path d="M0 192v192h93c55.7 0 93-.4 93-.9s2.3-4.4 5.2-8.7c3.9-5.9 5.2-8.6 5.1-11.3-.1-3.9 2.9-12.9 8.8-26.4 4.5-10.3 4.7-12.4 2.8-46.7-1.1-19.2-2.1-24.9-4-21.9-1.1 1.8-3.8.3-4.5-2.7-.4-1.4-.1-5.7.6-9.4 1.1-6 1.1-7-.4-9.1-2.4-3.4-2.1-5.1 3.1-19.2 3.8-10.3 5.4-13.5 8.5-16.5 3.5-3.4 3.8-4 3.2-7.8-.7-4.9.3-5.9 6.9-6.8l4.7-.7-.1-4.2c-.1-2.3-.4-5.3-.8-6.7-.6-2.2-1.1-2.5-4.9-2.2-5.8.5-10.9-2.7-20.8-13-17.7-18.5-16.7-29.8 3.4-35.4 3.4-.9 6.2-2.2 6.2-2.7s-.7-5.4-1.6-10.7c-1.3-8.7-1.3-10.2 0-13.4 1.8-4.4 2.9-4.1 8 2.4l3.9 5 4-4.6c6.1-7 10.4-8.7 22.4-9.2l10.3-.4V384h35c20.5 0 35-.4 35-.9s-2.3-4.4-5.1-8.5c-4.1-6.1-5.1-8.6-5.3-12.4-.2-2.8-2.2-9.4-4.9-16.4l-4.7-11.6v-12.9c0-7 .7-22.9 1.4-35.3.8-12.4 1.2-23.8.9-25.4-.8-3.9.9-2.7 3.2 2.4 2.3 5 4.1 5.1 5.5.2.9-3 .9-5-.4-9.9-.9-3.3-1.6-7.9-1.6-10.2 0-5.8-9.2-27.5-13.6-32.1-2.7-2.9-3.4-4.4-3.4-7.6 0-4.9-1.4-6.4-6-6.4-5.9 0-6.5-.9-5.2-7.6 1.4-6.6 1.8-7.2 3.4-5.6 3.5 3.5 12-.5 23.3-11 8.9-8.3 13.5-15.7 13.5-21.5 0-6-7.6-12.5-17.8-15.2-3.3-.9-4.2-1.6-3.8-2.9 1.9-6.6 3.7-19.6 3.2-22.6-1.1-5.6-2.5-5.5-8.2.8l-5.2 5.7-3.3-4.6c-5.2-7.3-10-9.6-22.2-10.6-5.6-.4-11-.8-11.9-.9-1.7 0-1.8-3.1-1.8-50.5V0H0zm318.2-44.8c3.5 2.4 4.5 6.1 2.7 9.5-1.8 3.3-14.7 15.3-16.5 15.3-1.7 0-1.7-.4 0-3.8 1.8-3.7 2.7-10.4 1.6-12.2-.6-1-.3-1.8 1-2.7 1.1-.8 2.5-3.2 3.1-5.4 1.4-4.4 2.8-4.5 8.1-.7M297 175c0 1.1-1.1 1.3-3.4.4-.8-.3-1.2-1.2-.9-2 .4-1 1-1.1 2.4-.3 1 .5 1.9 1.4 1.9 1.9m-18 16.2 1.3 5.3 1.2-4c1-3.7 1.1-3.8 1.8-1.5 1.4 5.3 1 6-3.8 6-4 0-4.6-.3-6.1-3.1-1.5-3-1.5-3.2.7-5.5 1.2-1.3 2.5-2.4 2.9-2.4.3 0 1.2 2.4 2 5.2M301.1 319c-.7 4-.9 4.2-1.5 2-.4-1.4-.2-3.9.5-5.5 1.5-4 2.1-2.1 1 3.5"/><path d="M194.5 145.4c-1.4 1.4-2.5 3.6-2.5 4.9 0 3.1 4.2 8.8 11.5 15.6 5.7 5.4 5.8 5.4 7 3.2 1-2 .9-2.6-1.2-4.7-1.3-1.3-3-2.1-3.8-1.8-1.7.7-4.1-.9-5.5-3.6-.8-1.4.1-2.4 4.6-5.4 3-2 5.2-4.1 4.9-4.6-.3-.4-2.7-1.6-5.3-2.6s-5.2-2.2-5.9-2.7c-.8-.6-2.1 0-3.8 1.7m21.3 25.7c-2.7 1.5-2.1 3.1.9 2.7 1.7-.2 2.9-1 3.1-2.1.4-1.9-1.4-2.2-4-.6m-4.8.9c0 .5.5 1 1.1 1 .5 0 .7-.5.4-1-.3-.6-.8-1-1.1-1-.2 0-.4.4-.4 1m24 13c0 .8-.8 3.4-1.7 5.9l-1.7 4.4-1.1-3.9-1.1-3.9-.8 3.8c-.9 5-.3 5.7 4.9 5.7 4 0 4.6-.3 6.1-3.1 1.5-3 1.5-3.2-.8-5.8-1.2-1.4-2.6-3-3-3.6-.5-.5-.8-.3-.8.5m-23 126c0 4.9.2 9 .4 9s1.8-2.3 3.6-5l3.2-5-3.6-4-3.6-4z"/></svg>