<svg xmlns="http://www.w3.org/2000/svg" width="682.667" height="512" version="1.0" viewBox="0 0 512 384"><path d="M0 192v192h93c52.2 0 93-.4 93-.9s2.3-4.4 5.2-8.7c3.9-6 5.1-8.8 5-11.4-.1-3.8 4-15.7 9.4-27.7 3-6.6 3.4-8.4 3.4-16 0-14.3-2-47.7-3.1-50.1-.8-2.1-1-2.2-2.5-.7s-1.7 1.4-3-.3c-1.9-2.7-2-6-.4-12.5 1.2-5.4 1.2-6.2-.5-9.4-2.2-4-2-4.8 4.3-21.3 2.8-7.6 5-11.5 7.6-14.2 3.3-3.3 3.6-4.1 3-7.2-.8-4.8.7-6.4 6.8-7.2l4.9-.7-.3-5.1-.3-5.1-3.6.3c-2.4.2-4.8-.4-7-1.7-5.3-3.2-18.1-16.4-21.7-22.5-5.6-9.1-5.3-14.6 1-21.6 2.3-2.5 12.2-6.4 14.9-5.8 1.6.3 1.6.8-.8-14.4-1.7-10.9-1.2-17.7 1.3-18.5.6-.2 3.4 2 6.2 4.8l5.1 5.2 2.2-2.7c3.7-4.7 11.4-7.9 20.4-8.4 4.6-.3 9-1.1 10.3-2l2.2-1.4V384h35c19.3 0 35-.4 35-.9s-2.3-4.4-5.2-8.7c-3.4-5.3-5.1-8.9-5-10.9 0-3.7-2-10.5-6.6-21.5l-3.5-8.5.8-24c.4-13.2 1.1-30.3 1.4-38l.6-14 2.4 4.8c1.4 2.6 3 4.7 3.7 4.7s1.8-1.6 2.4-3.5c.9-2.8.8-4.8-.4-9.8-.9-3.5-1.6-8.2-1.6-10.5 0-2.8-1.6-7.9-4.5-14.8-2.5-5.7-4.5-10.9-4.5-11.5 0-.5-1.8-2.9-4-5.3-3.5-3.8-4-4.9-4-9 0-5.1 0-5.1-7.2-6.1-4.6-.6-4.8-.7-4.8-4 0-5.7.6-6.3 5.5-5.7 3.5.3 5.3-.1 8.7-2.1 6.1-3.6 18.8-16.7 22.1-22.9 5-9.2 2.3-16.8-7.5-21.9-2.1-1.1-3.8-2.4-3.8-2.9s-1.3-.7-2.9-.4c-1.6.4-3.2.1-3.5-.5-.4-.6.2-5.4 1.3-10.6 2.5-11.2 2.7-18.4.6-21.1-1.4-1.8-1.7-1.7-7.2 4-3.7 3.8-5.9 5.4-6.2 4.5-.2-.8-2.3-3.3-4.5-5.5-4.4-4.5-8-5.9-18.1-7-3.4-.4-7-1.5-8.4-2.6-1.3-1-3.2-1.8-4.2-1.8-1.8 0-1.9-1.8-1.9-48V0H0zm315-44.4c5.8 3.9 6.4 7.3 2.3 13.5-2.6 4-13.6 13.9-15.4 13.9-.5 0-.9-.7-.9-1.6 0-1.1.5-1.4 1.6-1 1.2.4 1.4.1.9-1.4-.3-1 .1-3 .9-4.3.9-1.3 1.9-4.5 2.3-7.2.6-4.6.5-4.9-2.8-7.6-1.9-1.5-3-3.1-2.6-3.5s1.3-.2 1.9.4c1.8 1.8 4.6 1.4 6-.8 1.5-2.4 2.6-2.5 5.8-.4m-18.8 24.9c.8-.9 4 3.3 3.3 4.4-.7 1.2-5.4 1.5-7.8.5-1.2-.4-1.3-1.2-.4-4 .9-3.1 1.2-3.3 2.7-1.9.9.8 1.9 1.3 2.2 1m-18.1 13.7c0 1.3.6 3.9 1.3 5.8l1.3 3.5.7-3.9c.6-2.9 1-3.6 1.7-2.5.5.8.9 2.6.9 4.1 0 2.3-.5 2.7-4.1 3.3-4.5.8-5 .5-6.9-4.3-1.2-3.1-1.1-3.5 1.1-5.7 3-3 3.9-3.1 4-.3m23.1 131.9c-.7 3.5-1 4-1.5 2.3-.7-2 .9-8.2 1.8-7.2.3.2.1 2.4-.3 4.9"/><path d="M200 144.8c-1.9.9-4.1 2.9-4.9 4.4-1.4 2.4-1.4 3 .2 6.4 2.4 4.9 7.8 11.4 13.3 15.9l4.4 3.6v-2.5c0-1.8-.4-2.4-1.5-2q-2.85 1.2 0-3.6c1.9-3.3 1.9-5 0-5-.8 0-2.3-.9-3.2-2-1.2-1.4-2-1.6-3-.9-1.6 1.4-3.9.6-5.2-1.9-.9-1.7-.3-2.5 4.9-5.8 3.3-2.1 6-4.2 6-4.6 0-.8-5.3-3.8-6.7-3.8-.4 0-2.4.8-4.3 1.8m15.6 26.4c-.9 1.2-1.6 2.8-1.6 3.5 0 1.8 3.6 2.6 6 1.3l2.1-1.1-2.1-3c-1.2-1.6-2.3-2.9-2.5-2.9s-1.1 1-1.9 2.2m18 17.3-1.9 6-.8-3.3c-1-4.8-1.6-4.9-2.4-.2-.4 2.3-.5 4.3-.3 4.5.1.2 2.4.6 4.9 1l4.5.7 1.9-4.1c1.7-3.9 1.7-4.2 0-6.1-1-1.1-2.1-1.7-2.6-1.5-.4.3-.9-.2-1.1-1.2-.2-.9-1.2 1-2.2 4.2M212 311.3c0 4.8.2 8.7.4 8.7.1 0 1.7-2.3 3.5-5.2l3.2-5.1-3.5-3.6-3.6-3.6z"/></svg>