<svg xmlns="http://www.w3.org/2000/svg" width="682.667" height="512" version="1.0" viewBox="0 0 512 384"><path d="M0 192v192h94.5c52 0 94.5-.4 94.5-.9 0-.4 1.6-2.9 3.6-5.5 2.7-3.6 3.6-5.8 3.9-9.4.2-4.4 6-20.4 10.7-29.5 1.8-3.7 2-5.3 1.5-16.1-.9-21.9-2.7-44-3.9-48.1-1-3.7-1.1-3.8-2.1-1.8-2.1 4.7-5.7 2.4-5.7-3.7 0-2.1 2.6-12.5 3.4-13.9.3-.5-.1-1.4-.9-2.1-2.4-2-1.7-7.1 2.1-15 2-4.1 4.5-9.8 5.5-12.7 1.1-2.8 3.4-6.4 5.2-8 2.8-2.4 3.2-3.4 3.2-7.7 0-4.6.2-5 3-5.9 1.7-.5 3.1-1.1 3.3-1.2s-2.3-2.9-5.6-6.1C206.1 186.2 201 177 201 169.1c0-2 .5-4.3 1-5.1.6-1 .3-2.1-1.2-3.7l-2.1-2.2 2.9-3.1c1.6-1.6 3.8-3 4.9-3s2.9-.7 4-1.6c1.7-1.3 1.8-1.6.5-2.4-.8-.5-2.7-1-4.2-1s-3-.5-3.3-1c-.4-.6-2.2-1.7-4.1-2.5-3.7-1.5-4.5-3.5-1.4-3.5 1.4 0 2-.7 2-2.4 0-3.2 2.4-4 4.6-1.5.9 1 3 1.9 4.7 1.9 2.6 0 2.9-.3 2.3-2.3-.3-1.2-1.4-7.1-2.3-13.1-2.7-18.4.1-22.6 9.7-14.5l4.9 4.2 3.6-3.1c3.1-2.8 11.6-6.2 15.2-6.2.7 0 4-2.7 7.3-6.1l6-6.1V0H0z"/><path d="M256 238v146h34c18.7 0 34-.3 34-.8 0-.4-1.6-2.7-3.5-5.1-4-5-3.7-4.3-4-9.6-.1-2.2-2.3-9.2-5-15.5-4.2-10.3-4.8-12.5-5.2-21-.3-5.2.2-21.3 1.1-35.7s1.3-27.6 1-29.2c-.9-4.5.2-3.8 3.1 2 1.4 2.8 3.1 4.9 3.8 4.6 2.7-.9 3.1-5.6 1.3-14.4-.9-4.9-1.9-10.4-2-12.3-.2-2-1.8-6.4-3.5-9.8s-4-8.6-5.1-11.5-3.4-6.6-5-8.2c-2.5-2.4-3-3.6-3-7.7 0-3-.5-5-1.2-5.2-5.3-1.6-5.3-1.5-.5-5.2 5.3-4.2 13.1-13.2 15.7-18.4 2.6-5.1 3.4-10.3 2.1-14.2-1.1-3.4-6.6-9.7-11.4-13.3-2.7-2-2.7-2-.8-4.5 1.6-2 2.1-2.2 3.5-1.1 2.4 2 4.4.6 5.2-3.4.9-4.9-.4-5.9-4.9-4-4.4 1.8-5 1-3.8-4.7.6-2.4 1.7-8.9 2.6-14.5 1.4-8.5 1.4-10.9.4-13.8-1.7-4.7-3.9-4.5-9.8 1-2.6 2.5-5.2 4.5-5.8 4.5-.5 0-2-1.2-3.4-2.6-2.9-3.1-8.1-5.9-12.9-6.9-2.4-.5-5.1-2.4-8.5-6.1-9.4-10-8.5-24.8-8.5 140.6m46.7-72.5c.8.9 2.3 1.3 3.3 1 4-1.3 5.4 7.7 2.1 13.1-2.3 3.8-10.1 11.4-15.4 15.1-3.5 2.4-3.9 2.5-5.4 1-1.5-1.4-1.4-2 .9-6.9 1.4-2.9 2.9-6.4 3.3-7.6l.7-2.4 1.5 2.2c1.4 2 1.7 2.1 2.5.5.9-1.5 1.1-1.5 3 .2 2.1 1.8 2.1 1.8 1.4-1.9-.6-3.2-.4-3.7.9-3.2 2 .8 1.9.1-.5-4.7-1.2-2.3-1.8-4.8-1.5-6 .8-2.3 1.2-2.4 3.2-.4m-26.8 31c.1-1 4.1 4.5 4.1 5.6 0 .9-5.7 1.7-6.8 1-2-1.3-2.3-5.1-.5-7.7l1.7-2.7.7 2.4c.4 1.3.7 1.9.8 1.4M301 323.7c0 2.6-.3 3.4-1.1 2.6-.9-.9-.3-6.3.7-6.3.2 0 .4 1.7.4 3.7M212 163c0 .6-.8 1.3-1.7 1.7-9.6 3.4-5.7 14.4 10 28 5.2 4.6 7.1 4.4 6.2-.4-.8-4.6-2.3-7.5-3.4-6.8-.5.2-1.9-1.5-3.2-4l-2.4-4.5-1.6 3.2c-1.7 3.2-3.1 2.6-2.4-1.1q.45-2.1-1.2-2.1c-1.1 0-1.3-.5-.8-1.8 1.6-3.6 3.4-11.5 2.9-12.3-.7-1.2-2.4-1.1-2.4.1m22.7 35.5c-2 4.1-2 4.5-.8 4.5 1 0 3.6-6.8 2.9-7.6-.3-.2-1.2 1.2-2.1 3.1m-22.6 116.7c0 1.3.3 4.1.7 6.3l.7 4 2.3-3.8c1.2-2.1 2.2-4 2.2-4.2s-1.3-1.3-3-2.5l-3-2.1z"/></svg>