<svg xmlns="http://www.w3.org/2000/svg" width="682.667" height="512" version="1.0" viewBox="0 0 512 384"><path d="M0 192v192h188.9l4.1-5.7c3-4.2 3.9-6.4 3.5-8-.6-2.5 4.8-18 9.7-27.8 3-5.9 3-6 2.5-18.5-1-20.7-3.4-48.6-4.2-50-.6-.9-1.3-.7-2.7 1.1-1.8 2.4-1.9 2.4-3.3.5-.8-1.1-1.5-3.4-1.5-5 .1-3.5 2.1-11.4 3.4-13.4.5-.8.2-2-.8-3.1-2.5-2.7-1.9-6.2 2.2-15.3 2.2-4.6 4.5-10 5.1-12.1.7-2 2.9-5.4 4.9-7.5 3.1-3.2 3.6-4.4 3.6-8.7.1-4.2.4-5 2.1-5.3 4.8-.8 4.6-1.3-2.8-9.2-9.8-10.4-13-16.8-12.5-24.7.2-3.2.8-6.6 1.2-7.6.6-1.3.5-1.6-.6-1.2-.8.3-2-.1-2.7-.9-1-1.2-.8-2.1 1-4.5 2.1-2.9 3.2-3.6 5.3-3.2.4.1 1.9-.5 3.3-1.4 2-1.3 2.2-1.9 1.2-3.1-.6-.8-1.9-1.2-2.9-.9-1.6.5-10.4-3.7-11.5-5.6-.4-.5.2-.9 1.3-.9 1.3 0 1.8-.7 1.8-2.1-.1-1.2.7-2.6 1.6-3.2 1.4-.9 2.2-.7 4.1 1.1 2.3 2.2 5.2 2.9 6 1.4.2-.4-.4-5.4-1.4-11.2-2.2-12.4-2.3-17-.7-20.5s3.2-3.2 9.2 2l5.3 4.5 1.9-2.1c2.6-2.8 8.2-5.6 14.1-6.9 3.8-.9 5.7-2.2 9.4-6.1 2.5-2.7 5.1-4.9 5.7-4.9.9 0 1.2 33.6 1.2 145v145h33.5c18.4 0 33.5-.2 33.5-.4s-1.6-2.8-3.6-5.7c-2.4-3.6-3.3-6-3-7.5.5-2-5.5-19.7-8.9-26.5-1.8-3.4-2-25.4-.5-40.7.6-5.5 1.2-16.3 1.3-24.1.1-7.7.3-14.1.4-14.1.2 0 1.4 2.3 2.8 5.1s3.1 4.9 3.8 4.6c2.7-.8 3.1-5.6 1.4-14-.9-4.5-1.7-9.6-1.7-11.3 0-1.6-1.7-6.6-3.8-11-2.2-4.3-4.4-9.5-5.1-11.5-.6-2-2.7-5.4-4.6-7.6-2.7-3.1-3.4-5-3.7-8.9-.3-4.5-.5-4.9-2.9-5.2-2.6-.3-2.3-.8 5.5-8.5 9.4-9.3 13.6-16.6 13.6-23.5 0-2.4-.5-5.3-1.2-6.5-1.7-3.3-7.5-9.8-10.3-11.7-2.4-1.6-2.4-1.6-.6-4.4 1.2-1.7 2.1-2.4 2.5-1.7 1.1 1.8 4.4 1.3 5.6-.8 1.3-2.5 1.3-6.8 0-7.6-.5-.3-2.4.1-4.1 1-1.8 1-3.5 1.3-4 .8s-.1-5.5 1.1-11.9c2.4-13 2.8-20.1 1.1-23.2-1.7-3.2-3.6-2.8-9 2.3-2.6 2.5-5.1 4.5-5.4 4.5-.4 0-3-1.8-5.9-4-3.3-2.4-7.2-4.4-10.3-5-4-.9-5.6-1.9-8-5-1.6-2.1-4.5-4.7-6.2-5.7l-3.3-1.8V0H0zm305.3-24c2.1 0 4.7 3.8 4.7 7.1 0 4-5.6 11.5-13 17.5-10.6 8.6-12.7 7.3-7.8-4.7 2.8-6.9 3.4-7.8 4.2-6 1.1 2.5 2.2 2.7 3 .5.5-1.4.9-1.3 2.7.7l2 2.4-.6-3.8c-.5-2.9-.3-3.7 1-3.7 1.9 0 1.9-.3-.5-5.1-1.3-2.4-1.8-4.8-1.5-6 .6-1.9.8-1.9 2.4-.5 1 .9 2.5 1.6 3.4 1.6M284 193.5c0 .8-.2 1.5-.4 1.5s-.6-.7-1-1.5c-.3-.8-.1-1.5.4-1.5.6 0 1 .7 1 1.5m-14.3 2.7c-.3.8-.6.5-.6-.6-.1-1.1.2-1.7.5-1.3.3.3.4 1.2.1 1.9m9.3 7c0 .5-1.1.8-2.5.8s-2.8.1-3.1.2c-.4.2-1.3-.6-2-1.8-1.3-1.8-1.2-2.4.7-4.9l2.2-2.7 2.4 3.8c1.2 2.2 2.3 4.2 2.3 4.6m22 122.5c-.1 3.1-.3 3.5-1.1 2-.6-.9-.7-2.6-.4-3.7 1-3 1.5-2.4 1.5 1.7"/><path d="M209.2 166.9c-5.8 5.3-4 12.4 5.6 22.4 4.4 4.5 11 9.2 11.8 8.4 1.3-1.2-.8-8-3-10.1-1.3-1.1-3.1-3.6-4.1-5.5l-1.7-3.4-1.9 2.9c-1.9 3-2.3 2.7-1.9-1.4.1-2-.2-2.3-2-1.7l-2.1.7 1.9-3.9c2.5-4.9 3.5-11.3 1.9-11.3-.7 0-2.7 1.3-4.5 2.9m20.5 25.8c-.4.3-.7 1.1-.7 1.7s.5.5 1.2-.2c.6-.6.9-1.4.7-1.7-.3-.3-.9-.2-1.2.2M212 317.2c0 1.3.3 4 .7 6.2l.6 3.8 2.3-3.8c1.3-2.2 2.4-4.1 2.4-4.4s-1.3-1.4-3-2.3c-3-1.8-3-1.8-3 .5"/></svg>