<svg xmlns="http://www.w3.org/2000/svg" width="682.667" height="512" version="1.0" viewBox="0 0 512 384"><path d="M0 192v192h192l2.6-4c1.7-2.6 2.7-5.3 2.6-7.4-.1-3.6 3.5-14.4 8.7-25.9 2.6-5.9 3.1-8 3-14.5 0-4.3-.5-10.4-1-13.7s-1.4-13.3-1.9-22.2c-.4-8.9-1.4-17.1-2-18.4l-1.2-2.2-1.9 2.4c-1.6 2-2 2.2-2.9.9-2-3-2.2-6.2-.7-11.3 2.6-8.4 2.9-10.4 1.8-11.1-2-1.3-1.1-7 2-13.1 1.7-3.3 4.4-9.3 6.1-13.2 1.9-4.8 4-8 5.9-9.4 2.6-1.8 2.9-2.5 2.3-5.4-.9-4.8.2-7.2 3.7-7.9l3-.6-7.4-7.2c-9.4-9.4-13.2-16.6-12.5-24.1.3-2.8.9-6 1.3-6.9.5-1.3 0-2-1.9-2.8-1.4-.5-2.6-1.4-2.6-1.9 0-1.9 5.5-7.1 7.6-7.1 1.1 0 2.9-.9 3.8-1.9 1.7-1.9 1.7-2-.3-3-1.3-.7-2.2-.8-2.6-.1-.4.6-3.1-.3-6.8-2.2-5.1-2.5-5.8-3.2-4.2-3.8 1.1-.4 2.2-1.8 2.5-3.1.7-2.9 4.1-3.7 6-1.4.7.8 2.6 1.5 4.2 1.5 2.3 0 2.8-.4 2.4-1.8-.3-.9-1.2-5.8-2.1-10.7-2.4-14.5-1.8-22.5 2-22.5.8 0 3.9 2 6.9 4.4l5.4 4.5 2.3-2.6c2.8-3 8.7-5.8 14.2-6.8 2.8-.6 4.7-1.8 7-4.7 1.8-2.2 4.4-4.6 6-5.4l2.7-1.5V0H0zm256 48v144h32.5c17.9 0 32.5-.3 32.5-.7 0-.3-.7-1.4-1.5-2.3-1.9-2.1-4.9-9.4-3.6-8.5.6.3 1.1.2 1.1-.3 0-1.5-4.6-14.5-7.9-22.2l-3.3-7.5.6-14c.3-7.7 1.1-24.4 1.9-37l1.3-23 2.2 4.2c5.7 10.8 7.6 4 4.2-15.2-.7-3.9-1.8-8.6-2.5-10.5-3.5-9.3-9.4-21.5-12.1-24.8-2-2.6-3-5.2-3.4-8.7-.4-4.2-.8-5-2.7-5.3-1.3-.2-2.3-.6-2.3-.8 0-.3 3.5-4 7.8-8.2 13.4-13.1 15.9-21.7 9.3-32.1-1.7-2.6-3.1-5.2-3.1-5.8 0-.5-1.6-1.8-3.5-2.9-4-2.1-4-2.1-1.6-5.3 1.6-2.1 2.1-2.2 4.1-1.1s2.5 1 3.7-.6c1.5-2.1 1.7-7 .3-7.9-.5-.3-2.3.1-3.9 1-5.4 2.7-5.9 1.5-3.9-8.3 3.5-16.9 3.2-27.6-.8-28.9-.6-.2-3.6 1.9-6.8 4.7l-5.8 5.1-3.4-3.1c-4.2-3.6-7.8-5.5-12.4-6.5-2.2-.5-5.6-2.7-9.2-6.1-3.1-3-6.1-5.4-6.7-5.4-.8 0-1.1 42-1.1 144m47-70.5c.7.8 1.8 1.5 2.4 1.5 1.5 0 4.6 5.2 4.6 7.7 0 4.9-11.4 17.4-19.8 21.7-4.7 2.4-4.9.6-.9-9.6 3-8 3.4-8.5 4.6-6.6.9 1.5 1.6 1.7 2.4.9s1.6-.6 3 .7c2 1.7 2 1.6 1.4-2.1-.5-3.1-.3-3.8.8-3.3 2 .7 1.9-.8-.6-5.5-2.7-5.4-1.2-9.4 2.1-5.4m-18.6 27.1c1.1 2.8.6 3.9-.9 2-.8-1.1-1.5-2.3-1.5-2.8 0-1.4 1.8-.9 2.4.8m-14.7 3.6c-.3.8-.6.5-.6-.6-.1-1.1.2-1.7.5-1.3.3.3.4 1.2.1 1.9m5.9-.5c-.3.3.1 1.5.9 2.7 2.5 3.5 1.9 4.6-2.5 4.6-2.5 0-4-.5-4-1.3 0-2.2 4-7.8 5.1-7.1.6.3.8.8.5 1.1M302 326.9c0 1.7-.4 3.2-.9 3.5-1.2.8-2.3-2.3-1.6-4.5 1-2.9 2.5-2.2 2.5 1"/><path d="M209.8 170.4c-3.1 3-3.8 4.4-3.8 7.5 0 6.3 7.6 15.7 18.3 22.6l2.7 1.7v-3.6c0-4-2.6-10-3.9-9.2-.4.3-1.8-1.3-3.1-3.6-2.1-3.8-2.4-4-3.7-2.3-.7 1.1-1.3 2.2-1.3 2.7 0 .4-.4.8-1 .8-.5 0-.7-1.3-.3-3.2.5-2.6.4-3-1-2.5-2.1.8-2.1-.5-.1-4.4.8-1.7 1.4-4.6 1.2-6.6l-.3-3.5zm19.9 25.8c-1.9 5-1.9 5.4-.2 3.7.9-.9 1.5-2.5 1.3-3.5-.5-1.8-.5-1.8-1.1-.2M212 322.9c0 6.8.9 7.7 3.7 3.5 2.7-3.8 2.7-3.8-1.9-6.5-1.6-.9-1.8-.5-1.8 3"/></svg>