<svg xmlns="http://www.w3.org/2000/svg" width="682.667" height="512" version="1.0" viewBox="0 0 512 384"><path d="M0 192v192h192.5l2.4-3.6c1.6-2.2 2.5-4.9 2.4-7.1-.1-3.6 3.6-14.7 8.7-25.9 2.6-5.8 3-7.8 2.9-15.3 0-4.7-.5-10.9-1-13.6-.6-2.8-1.6-12.4-2.3-21.5-.6-9.1-1.5-17.3-2-18.3-1-2.1-2.6-2.2-2.6-.1 0 2.8-3.4 1-4.4-2.3-.6-2.4-.4-4.7.9-8.8 1.8-6 2-8.1 1-13.2-.6-2.6.3-5.4 4.5-14.5 7.2-15.9 7.1-15.7 10.2-18.3 2.5-2.1 2.8-2.9 2.2-6.4-.8-4.8.7-7.1 4.5-7.1 2.3 0 1.9-.7-5.2-7.7-4.2-4.2-8.8-9.9-10.2-12.7-2.9-5.7-3.3-13.5-1.1-17.9 1.1-2.1 1.2-2.7.2-2.7-.7 0-2.1-.7-3.2-1.5-1.7-1.3-1.7-1.6-.3-2.8.8-.6 1.8-1.9 2.1-2.8.3-.8 2.4-2.1 4.7-2.7 2.2-.7 4.3-1.7 4.7-2.3.9-1.5-1.6-3-4-2.5-1.9.5-10.9-3.5-12.1-5.4-.3-.5.3-1 1.4-1 1.6 0 2.1-.6 2.1-2.5 0-3.5 2.3-4.1 5.8-1.5 3.4 2.5 7.8 2 6.7-.7-.3-.9-1.4-6.9-2.5-13.5-1.6-9.8-1.7-12.5-.7-15.6.7-2 1.9-3.8 2.7-4 .9-.1 4 1.8 6.9 4.3l5.4 4.6 2.6-2.4c4.2-3.8 7.7-5.6 13.1-6.8 4-.9 5.7-1.9 8.3-5.1 1.7-2.2 4.4-4.6 6-5.4l2.7-1.5V0H0zm256 48v144h65.2l-1.6-2.2c-2.5-3.5-3.7-6.9-3.1-8.7.6-1.9-2.7-12.3-7.4-22.8-2.7-6.3-3.1-8.2-3.1-16.3 0-5 .5-13.3 1-18.3.6-5.1 1.4-17.7 1.8-28.2l.7-18.9 2.5 4.7c8.8 16.6 7-14.6-1.9-33.6-2.2-4.8-4.1-9.3-4.1-10.1 0-.7-1.8-3.3-3.9-5.8-3.4-3.9-4-5.2-4.3-9.9s-.6-5.4-2.5-5.7c-1.3-.2-2.3-.6-2.3-1 .1-.4 2.3-2.4 5-4.5 6-4.6 13.3-14.6 15.1-20.5 1.5-5.1.1-11-3.7-15.5-1.3-1.6-2.4-3.7-2.4-4.8 0-1-.3-1.9-.7-1.9-.5 0-2.3-.9-4-2l-3.3-1.9 2.6-2.7c1.9-1.8 3-2.2 3.7-1.5 1.6 1.6 4.4 1.3 5.1-.5.3-.9.6-2.9.6-4.5 0-2.3-.5-2.9-2.1-2.9-1.1 0-2.9.4-3.9 1-2.1 1.1-5.3.3-4.4-1.1.9-1.5 4.4-23.2 4.4-27.4s-1.7-8.6-3.6-9.2c-.6-.2-3.6 1.9-6.7 4.6l-5.7 5-5.2-3.9c-2.9-2.1-7.3-4.4-9.9-5-3.6-.9-6-2.5-10.2-6.6-3-3-5.9-5.4-6.5-5.4-.9 0-1.2 36-1.2 144m49.9-68c4.7 4.5 5.2 7.7 2.2 12.6-3.8 6.2-17 17.4-20.5 17.4-2 0-1.5-2.6 2-11.4 1.3-3.3 2.4-6.6 2.4-7.5 0-1.1.5-.9 1.6.7 1.2 1.7 1.9 2 2.9 1.2.9-.7 1.6-.6 2.5.5 1.5 1.8 3.4 2 2.7.2-1.8-5-1.9-6-.3-5.4 2.2.9 2-.8-.5-5.3-2.1-3.6-2.1-7-.1-7 .5 0 2.8 1.8 5.1 4m-20.7 28.4c-.9 1.5-3.2-4.1-2.5-6 .5-1.4.9-1.1 1.8 1.7.7 1.9 1 3.8.7 4.3m-15.2-.9c0 .8-.4 1.5-1 1.5-.5 0-.7-.7-.4-1.5.4-.8.8-1.5 1-1.5s.4.7.4 1.5m6.5 2.5c2.2 4.3 1.9 5-2.5 5-4.6 0-4.5.1-2.6-4.5 1.8-4.3 3.1-4.4 5.1-.5m25 126.8c-.6 2.3-.8 2.4-1.6.9-.7-1.1-.6-2.4.2-3.9 1.5-2.8 2.4-.9 1.4 3"/><path d="M209.1 171.5c-4.2 4.8-4.2 9.5 0 15.8 3 4.6 14.6 14.7 16.8 14.7 1.4 0 1.4-6.2-.1-9.5-.6-1.4-1.7-2.5-2.4-2.5s-2.3-1.8-3.5-4l-2.3-4.1-1.6 3.1c-1.9 3.7-3.1 3-2.3-1.2.5-2.8.4-3-1.6-2.3-2.2.7-2.2.6-.7-1.7.9-1.4 2-4.5 2.5-7.1 1.1-5.9-.4-6.2-4.8-1.2m21 23.5c0 .3-.5 2.1-1.1 4-.9 3.1-.8 3.3.6 1.8.9-.9 1.4-2.6 1.1-3.9-.2-1.3-.5-2.2-.6-1.9M212 324.9c0 2.8.3 5.2.8 5.5.4.2 1.7-1.3 2.9-3.4l2.1-3.9-2.4-1.6c-1.3-.8-2.6-1.5-2.9-1.5s-.5 2.2-.5 4.9"/></svg>