<svg xmlns="http://www.w3.org/2000/svg" width="682.667" height="512" version="1.0" viewBox="0 0 512 384"><path d="M0 192v192l96.7-.2 96.7-.3 2.3-3.4c1.4-2.1 2.3-4.9 2.3-7.2 0-3.9 4-15.9 8.6-25.5 2.5-5.3 2.6-6 1.9-16.2-.4-5.9-1.4-12.3-2.2-14.2-1.2-2.7-1.5-6.8-1.4-18 .2-12.7-.1-15-1.8-18.3-1.7-3.4-2-3.6-2.6-1.7-.7 2.3-1.6 2.5-3.3.8s-1.5-7.4.4-12.8c1-2.9 1.3-5.9.9-9.1-.6-4.3-.2-5.7 6.4-19.3 3.9-8 8-15.2 9.1-15.8 1.6-1 2-2.4 2-7 0-5.3.2-5.8 2.6-6.4s2.3-.9-5.5-8.9c-4.5-4.5-9-10.2-10.1-12.6-2.3-5.2-2.6-13.3-.5-16.9 1.8-3.1 1.8-4 .2-4-.7 0-1.8-.5-2.4-1.1-1.6-1.6 3.2-7.9 6.1-7.9 1.1 0 3-.8 4.1-1.6 2-1.5 2-1.5.1-2.9-1.2-.9-2.4-1.1-3-.6-.7.5-3.1-.3-6.3-2.1-5.3-3-6.7-4.8-3.8-4.8.8 0 1.5-.9 1.5-2 0-1 .8-2.4 1.9-2.9 1.4-.8 2.3-.6 3.7 1 2.1 2.3 7 2.3 6.7-.1 0-.8-1.1-6.8-2.2-13.4-1.7-9.3-1.9-12.7-1.1-15.7 1.4-5.2 3.8-5.1 10.1.2l4.9 4.1 3.9-3.2c3.7-2.8 8.5-4.9 15.1-6.4 1.4-.3 3.8-2.4 5.3-4.6 1.6-2.2 4.2-4.7 5.8-5.5l2.9-1.6V0H0zm256 48v144h32.5c17.9 0 32.5-.2 32.5-.5s-1-1.9-2.1-3.5c-1.4-1.8-2-3.7-1.7-5.4.6-2.7-2-11-7.3-23.2-3-7-3-7.2-2.6-21.5.5-14.1 2.4-51 3-55.9.3-2.4.4-2.3 2.2 1.2 2.4 4.7 4.3 5.5 5.5 2.2 1.3-3.4 1.3-5.2-.5-12.7-.8-3.5-1.7-7.9-1.9-9.8s-2.5-8-5-13.5c-2.5-5.6-4.6-10.6-4.6-11.1s-1.7-2.9-3.7-5.2c-3.3-3.9-3.6-4.8-3.4-9.7.2-5 0-5.4-2.3-6-2.4-.6-3.7-2.4-1.8-2.4 1.3 0 14-13.2 16.2-16.8 4.8-7.8 4.5-17.4-.6-23.5-1.3-1.6-2.4-3.5-2.4-4.3 0-.7-1.8-2.5-4-3.9l-3.9-2.5 2.4-2.5c2.1-2.3 2.6-2.5 4.5-1.3 1.8 1.1 2.3 1 3.6-.6 1.6-2.2 1.9-7.2.4-8.1-.5-.3-2.3.1-3.9 1-2.7 1.4-6.1 1.2-6.1-.4 0-.3.4-2.2 1-4.1 2.2-7.9 4-25 2.9-27.7-2.4-6.3-4.2-6.2-11.6 1l-4.2 4-4.3-3.7c-2.7-2.3-6.5-4.3-10.1-5.3-3.9-1.1-6.7-2.6-8.5-4.7-3.2-3.6-8.1-7.6-9.3-7.6-.5 0-.9 63.6-.9 144m53.6-64.7c3.2 6-.6 13-11.9 22-10.7 8.6-12.2 7.1-7-6.9 2.6-7.1 2.7-7.1 4.4-5 1.6 1.9 1.8 1.9 2.4.4.6-1.6.9-1.6 2.7.5l1.9 2.2-.6-4.4c-.5-3.9-.4-4.3 1-3.1 2.1 1.8 1.9-.1-.6-5.4-1.2-2.4-1.9-5.1-1.6-6 .6-1.4 1-1.3 4.2.5 2 1.2 4.3 3.5 5.1 5.2m-23.7 25.2c.1 1.8 0 1.8-1.5-.3-1-1.4-1.3-3-.8-4.5l.8-2.2.7 2.5c.4 1.4.7 3.4.8 4.5M271 200c0 1.1-.4 2-.9 2s-.7-.9-.4-2 .7-2 .9-2 .4.9.4 2m6.9 3.7 2.1 4.3h-4.6c-4.5 0-4.6 0-3.9-2.8.6-2.4 3.5-6.6 4-6 .2.2 1.2 2.2 2.4 4.5m24.1 125c-.1 3.5-.2 3.6-1.5 1.9-1.1-1.4-1.1-2.2-.2-3.7 1.6-2.6 1.7-2.5 1.7 1.8"/><path d="M209.1 171.9c-5.3 4.9-5.7 8.6-1.5 15.8 2.2 3.8 12 12.5 17.2 15.2 1.9 1 2.3.9 2.9-.5.8-2.2-2.6-13.1-3.7-11.4-.5.8-1.5-.1-3.1-2.9-1.2-2.3-2.6-4.1-2.9-4.1-.4 0-1.3 1.2-2 2.7l-1.4 2.8-.4-2.5c-.2-1.4-1-3-1.8-3.7-1.4-1-1.4-1.5-.1-4 1.9-3.7 3-10 1.9-10.7-.5-.3-2.8 1.2-5.1 3.3m21.1 25.7c-.1 1.5.2 2.2.8 1.9 1.2-.7 1.3-3.2.2-3.9-.4-.2-.9.7-1 2m7.8 3.9c-.6 1.5-1.5 3.6-2.2 4.8-.9 1.9-.9 2 .3 1 2.5-2 5-7.1 3.9-7.8-.5-.3-1.5.6-2 2m-26.3 126.2c.7 7 .8 7.2 2.8 3.1 1.8-3.6 1.8-3.8 0-5.8-2.7-3-3.3-2.5-2.8 2.7"/></svg>