<svg xmlns="http://www.w3.org/2000/svg" width="682.667" height="512" version="1.0" viewBox="0 0 512 384"><path d="M312 25.2c-1.4.5-4.7 1.4-7.3 2-2.6.5-6 2.1-7.6 3.4-5.6 4.7-6.5 17.1-2.1 27.2 1.1 2.4 2 4.8 2 5.2 0 .5-2.6 2.3-5.7 4-17.8 10-31.7 25.8-35.8 40.5-.7 2.7-1.6 7.8-2 11.3-.7 7.1-2.8 13.8-5.2 16.4-2.6 2.9-1 3 2.2.1l2.8-2.7-.6 3.8c-.6 3.5-.5 3.7.8 2s1.4-1.5 1.5 2.6c.1 5.1 1.7 13.8 1.9 10.2.1-2.3 2.1-3.2 2.1-.9 0 .7.7 2.2 1.5 3.3 1.4 1.8 1.5 1.7 1-1.1l-.5-3 1.1 3c1.4 3.5 3.1 4.9 4.1 3.2.5-.8.9-.6 1.4.6.3.9 1.2 1.7 1.8 1.7.7 0 2.5 1.3 4.1 3 4.1 4.2 4.7 3.7 2.4-1.7-2.3-5.3-1.8-5.2 1.8.4 2 3.1 2.3 3.3 1.9 1.3-.5-2.4-.4-2.4.9-.6 2.7 3.6 1.4 9.6-3.3 14.8-2.9 3.2-2.3 4.4 3.3 6.8 3.1 1.3 4.4 2.6 5 4.7.3 1.5 3.3 5.4 6.6 8.5 5.9 5.8 5.9 5.8 5.9 11.7 0 3.3-.4 7.1-1 8.5-.7 2-.6 2.7.6 3.4 1.3.7 1.4 1.5.5 4.7-1.1 4.1-.2 5.9 2.6 4.8 1-.4 1.3 1.7 1.3 10.5 0 9-.4 11.9-2.1 15.9-1.1 2.6-2.5 5.8-3 7-.8 2.1-.9 2.1-4.1.5-4.5-2.3-11-2.2-13.7.2-1.7 1.5-2.1 3.2-2.2 8.5-.2 9.8-.8 11.1-8.6 19.5l-7.2 7.7-8.8-3.4c-11.2-4.5-43.1-14.1-45.9-13.9-1.4.1-3.3-1.3-5.4-4-3-3.7-3.4-4.8-3.5-11.2-.3-13.8-5.4-24.1-13.1-26.6-2.8-.9-5.4-.9-11.5 0-4.4.7-8.2 1.1-8.4.8-.2-.2-.6-2-.8-4.1-.5-5.2-2.2-4.2-2.2 1.3v4.4l-7.1 2.7c-9.6 3.5-13.1 6.2-14.3 10.7-.6 2-1.6 5.8-2.2 8.3-1 3.7-1 5.5.1 9.5.8 2.7 1.3 5.7 1.1 6.8-.5 3.5 3.1 11 8.3 17.1 2.8 3.3 5.5 6.3 6.1 6.7 2.5 1.9 12.3 4.9 20.2 6.3 4.8.8 8.8 1.7 9 1.9.2.1-.4 2.3-1.2 4.7-2.2 6-6.2 24.2-7 31.4-.4 3.3-2.6 10.9-5 17-2.3 6-4.5 12.2-4.9 13.7-.3 1.4-.9 3.3-1.2 4.2-.6 1.5 4.9 1.6 59.4 1.6 52.4 0 60.1-.2 60.6-1.5.3-.8 1.9-8.1 3.6-16.2 2.7-13.4 4-17.9 4-14.2 0 3-2 25.6-2.5 28.6l-.6 3.3H358c38.5 0 70-.4 70-.9 0-.4-2.5-5.7-5.6-11.7-5.8-11.2-7.5-17-7.6-26.3 0-6.1.5-6.6 7.1-7.6 5.9-.9 13.5-4.5 12.3-5.7-.6-.6.3-2.2 2.6-4.2l3.5-3.3-4.9-.7c-4.3-.5-6.2-.1-13.7 2.9-4.9 2-9.2 3.3-9.6 3-.5-.2-1.1-3.2-1.5-6.6-.4-3.3-1.2-7.2-1.7-8.6s-1.2-4.4-1.5-6.7c-.2-2.2-1.1-6.6-1.9-9.6-.7-3-1.8-8-2.4-11s-1.4-6.6-1.8-7.9c-.5-2-.3-2.2 1.4-1.7 1.2.4 2.5.1 3.3-.9 1-1.2.7-2.3-1.8-6.2-4.8-7.4-6.2-11.7-6.2-18.5 0-5.5 2-16.2 3.3-17.5.3-.2 1.7 2.9 3.1 6.9l2.6 7.3-.6-6.9c-.4-4.8-.3-6.6.5-6.2.7.5 1.1-.2 1.1-1.6 0-1.3 1.7 2.7 3.9 8.8 2.1 6.1 4.1 11.6 4.5 12.3 1 1.5 2.6 1.4 2.1-.2-.3-.6-.9-3.9-1.4-7.2-.8-5.6-.8-5.8.8-3.8.9 1.2 2.7 4 4.1 6.2 1.3 2.3 2.6 4.1 3 4.1.3 0 .5-20.1.5-44.8-.1-49.1-.6-56-6.5-82.2-3.4-15-5.3-20.7-10.4-30.7-1.9-3.9-3.8-9.6-4.4-13.5-1.3-8.3-3.7-13.6-9.5-21.3-4.8-6.4-10.1-11.1-15.7-14-5.1-2.6-15.9-3.2-21.4-1.1-4 1.5-4.8 1.6-7.3.3-1.5-.8-4.2-1.8-5.9-2.1-1.7-.4-5.5-2.8-8.5-5.4C329.5 33.5 322 28 320.7 28c-.5 0-2.1-.8-3.5-1.9-2.1-1.4-3.3-1.6-5.2-.9M325.5 207c1.7 3.5 2.5 6.3 1.9 6.8-.5.4-2.6 2.3-4.7 4.2l-3.9 3.5.7-9.5c1-13.5 1.7-14 6-5"/></svg>