<svg xmlns="http://www.w3.org/2000/svg" width="682.667" height="512" version="1.0" viewBox="0 0 512 384"><path d="M0 192v192h195l2-3.2c1.3-2 1.8-4.2 1.5-5.6-.6-2.3 3.9-16 7.6-23.4 1.5-3 1.9-6 1.9-14.6 0-9.7-.3-11.4-2.5-15.6-2.8-5.3-3-8.8-1.3-21.7.9-7.2.9-9.6-.2-12.9-1.1-3.2-1.1-5.1-.3-8.3 1.2-4.6 1.2-4.5-3.8 2.4-3.7 5.2-5.4-3.7-2.3-12.2.9-2.4 1.6-6.1 1.5-8.2 0-2.9 2-7.7 7.5-18.5 4.1-8.1 8.3-15.5 9.2-16.5 1.3-1.4 1.6-3.3 1.4-7.3-.4-5.3-.3-5.5 2.7-6.5l3.2-1.1-8.4-8.7c-4.5-4.7-9.3-10.8-10.6-13.4-2.5-5.2-3.1-13-1.2-16.4.8-1.6.7-2.4-.9-3.8-1.9-1.7-1.9-1.8.7-5.1 1.4-2 3.4-3.4 4.7-3.4 1.1 0 3-.7 4-1.5 1.5-1.1 1.7-1.7.7-2.9-.6-.8-2-1.2-3-.9-1 .2-4.1-.7-7-2.1-5-2.6-6.6-4.6-3.6-4.6.8 0 1.5-.8 1.5-1.9 0-3.4 2.4-4.3 5.4-2 2.9 2.3 7.2 2.2 6.9-.1-.1-.8-.9-5.1-1.7-9.5-1.9-9.7-2.1-20.6-.4-22.3 2-2 3.7-1.4 8.9 3.5 5 4.7 5.1 4.7 6.7 2.7 2.9-3.5 7.7-6.3 13.7-7.8 3.8-1 6.3-2.4 7.7-4.2 2.7-3.3 7.1-7.4 8-7.4.5 0 .8 64.1.8 142.5V384h65l-2-3.7c-1.1-2-1.7-4.6-1.4-5.8.5-2.1-3.9-15.2-7.6-22.6-2-3.8-2.1-5.2-1.6-20.2.4-8.9.8-18.9 1-22.2.3-3.3.6-12.2.8-19.7.2-7.6.6-13.8 1-13.8.3 0 1.5 1.6 2.7 3.5 2.5 4.4 3.6 4.4 5 .2.9-2.6.8-4.8-.4-9.8-.8-3.5-1.5-7.8-1.5-9.4 0-1.7-1.6-6.4-3.6-10.5s-4.5-9.9-5.5-12.9-3.1-7-4.6-9c-2.3-3-2.7-4.4-2.5-8.4.4-5.2-.9-7.7-3.9-7.7-1.1 0-1.9-.5-1.9-1 0-.6.4-1 .9-1s4.5-3.6 8.9-8c12-11.9 15.7-21.2 11.6-29.3-2.4-4.7-7.2-9.9-11.5-12.4-2-1.3-4-3-4.3-3.9-.6-1.5-.4-1.5 1-.3 1.4 1.1 1.8 1.1 2.9-.4.9-1.2 2-1.5 4.3-1.1 2.4.5 3.2.2 4.2-1.5 1.5-3 .9-7.6-1-7.4-.8.1-2.9.7-4.7 1.4s-3.5 1-3.8.7.2-4.6 1.1-9.4c2.1-11.3 2.4-25.4.5-27.7-1.6-2-3.4-1.2-10.3 4.6l-4.8 4-2.7-2.8c-3.2-3.2-9-6-14.5-7-2.6-.5-4.5-1.8-6.8-4.7-1.8-2.1-4.7-4.7-6.6-5.5l-3.4-1.7V0H0zm309.4-18.6c1.7-.7 4.6 4.2 4.6 7.9s-5.3 10.8-12.2 16.3c-7.3 5.9-10.4 7.7-11.8 6.9-1.2-.8-1.3-5.2-.1-5.9.4-.3 1.9-3.3 3.1-6.6 2.1-5.7 2.4-6 4-4.5 1.3 1.2 2 1.3 2.5.5s1.3-.6 2.7.7c2.1 1.8 2.1 1.8 1.4-2.1-.6-3.3-.5-3.8.8-3.3 2 .8 2 .6-.5-4.7-1.3-2.5-1.9-5.1-1.5-6.1.6-1.6.8-1.6 3.1-.1 1.3.9 3.1 1.3 3.9 1M273 202c0 1.1-.4 2-.9 2s-.7-.9-.4-2 .7-2 .9-2 .4.9.4 2m8 4.1c0 .4.3 1.4.6 2.3.5 1.3-.2 1.6-4.5 1.6-2.8 0-5.1-.2-5.1-.5 0-.8 2.3-4.8 3.9-6.7 1.3-1.7 1.5-1.6 3.2.4 1.1 1.1 1.9 2.5 1.9 2.9m22 124.6c-.1 3.5-.2 3.7-1.5 1.9-1-1.3-1.1-2.4-.4-3.7 1.4-2.8 1.9-2.3 1.9 1.8"/><path d="M213 171.5c-.7.8-1.8 1.5-2.5 1.5-4.4 0-5.9 9.1-2.5 14.8 4.4 7.1 18.2 18.4 20.1 16.5 1.5-1.5 0-8.3-2.3-10.2-1.1-.9-2.9-3.3-4-5.3l-2.1-3.8-2.3 3.8-2.3 3.7-.1-4.2c0-3.5-.3-4.1-1.6-3.6-1.5.5-1.5.3 0-2.5 2-3.9 3.3-12.2 1.9-12.2-.6 0-1.6.7-2.3 1.5m18 28.1c0 .8.5 1.2 1 .9.6-.4.8-1.1.5-1.6-.9-1.4-1.5-1.1-1.5.7m14 .9c0 .5.5 1.7 1 2.5s1 1 1 .5c0-.6-.5-1.7-1-2.5s-1-1.1-1-.5m-6.8 5L236 210h4c2.6 0 4.3-.5 4.6-1.4.6-1.5-2.2-7.6-3.4-7.6-.4 0-1.7 2.1-3 4.5m-26.6 127c.3 2.7.8 5.1.9 5.3.1.1.8-1.1 1.5-2.8 1.2-2.9 1.1-3.3-.9-5.3l-2.2-2.2z"/></svg>