<svg xmlns="http://www.w3.org/2000/svg" width="682.667" height="512" version="1.0" viewBox="0 0 512 384"><path d="M0 192v192h97.9c109.2 0 100.1.7 100.6-7.3.2-2.4 2.3-9.3 4.6-15.3 4-10.2 4.3-11.7 4.7-22.2.3-10 .1-11.5-1.7-14.1-4.1-5.7-4.4-7.8-2.6-20.3 1.4-9.3 1.5-12.4.5-15.2-.9-2.7-.9-4.4 0-7.1 2-6 .8-7.4-2.3-2.6-3.7 5.5-5.2 4.9-5.1-2 .2-7.5 3-18.3 6.6-25.4 1.7-3.3 4.9-9.6 7.1-14s4.9-9 6-10.2c1.6-1.8 1.8-3 1.3-6.6-.9-5.7-.1-7.4 4-8.7l3.5-1.2-8.1-8.1c-10.2-10.3-14.5-18.3-13.7-25.4.2-2.7.8-5.6 1.2-6.6.5-1.2.3-1.7-.8-1.7-.8 0-2-.6-2.6-1.4-.9-1-.8-1.5.4-2 .8-.3 1.5-1.2 1.5-2 0-1.8 3-3.6 5.8-3.6 1 0 2.7-.9 3.7-2 1.7-1.8 1.6-1.9-1.1-2.5-7.7-1.7-16.9-7-12.2-7 .7 0 1.3-1.1 1.3-2.5 0-3.2 3-3.8 5.9-1.1 3.1 2.9 7 1.8 6.2-1.8-.3-1.4-1.3-7.6-2.2-13.8-1.9-12-1.3-17.5 1.9-18.1.9-.2 4 1.7 6.9 4.2l5.2 4.6 3.1-2.9c3.8-3.6 7.9-5.7 13-6.7 3.1-.5 5.3-2 9.8-6.8l5.7-6.1V0H0zm256 50v142h32.7c32.3 0 32.6 0 30.8-2-1.1-1.2-1.7-3.4-1.7-6.2.1-2.8-1.4-7.8-4.5-15.2-4-9.7-4.7-12.2-5.1-20.1-.2-5 .1-14.2.8-20.5.6-6.3 1.2-18.6 1.3-27.2.1-8.7.5-15.8.8-15.8s1.4 1.6 2.5 3.5c1 1.9 2.4 3.5 3.2 3.5 1.8 0 3.5-4.9 2.8-8.5-2.7-15.6-3.9-20.1-6.4-25.2-1.7-3.2-4.2-8.7-5.6-12.2-1.4-3.6-3.4-7.3-4.3-8.4-1.3-1.4-1.8-3.6-1.8-8 0-6-.1-6.2-3.3-7.7l-3.4-1.6 4.2-2.9c2.2-1.6 6.6-5.5 9.6-8.8 13.6-14.7 14.1-27.6 1.3-36.2-5.9-3.9-8.9-6.6-8.9-7.9 0-.6.7-.2 1.5.9 1.5 1.9 1.5 1.9 3.1-.3 1.2-1.8 1.8-2 3.3-1 3.3 2 5.1.3 5.1-4.7 0-4.9-.6-5.3-5-3-4 2.1-6.1 1.1-5-2.3 1.4-4.1 4-21.6 4-26.8 0-8.9-3.4-10.7-9.7-5.1-7.4 6.4-6.9 6.3-10.8 2.8-4-3.4-8.7-5.7-14.3-6.7-2.7-.5-4.9-2-8-5.6-2.9-3.2-5.2-4.8-6.8-4.8H256zm49.5-68c.8 1.3 4.5 1.3 4.5-.1 0-1.6 2 0 4 3.3 2.9 4.8 1 9.9-6.5 17.2-3.4 3.4-8 7.4-10.3 9-4 2.7-4.3 2.8-6.1 1.2-1.8-1.7-1.8-1.8.4-5.9 1.3-2.3 2.9-6.1 3.6-8.5l1.3-4.4 1.4 2.8c1.3 2.5 1.6 2.6 2.7 1.1 1-1.5 1.3-1.4 3.3.6l2.2 2.1-1-3.4c-1.4-4.7-1.3-5.5.5-4 2 1.6 1.9 1.1-.5-4.5-1.1-2.6-2-5.3-2-6.1 0-1.6 1.6-1.9 2.5-.4m-31.9 30.6c-.4.9-.9 1.5-1.1 1.2-.3-.3-.3-1.3.1-2.2s.9-1.5 1.1-1.2c.3.3.3 1.3-.1 2.2m6.4-.1c.7-.5 4 5.4 4 7.1 0 .4-10.3-.7-10.9-1.2-.2-.1 1-2.1 2.5-4.3 1.9-2.5 3-3.4 3.2-2.5.2.8.8 1.2 1.2.9m23.5 129.4-.7 2.6-1.3-2.5c-1.1-2-1-2.8.4-4.9l1.6-2.5.3 2.3c.2 1.3.1 3.5-.3 5"/><path d="M214 172.5c-.7.8-2.1 1.5-3.1 1.5-2.5 0-4.2 4.4-3.5 8.9.3 1.8 2.1 5.4 4.1 7.9 4.2 5.4 14.3 14.2 16.3 14.2s.7-7.8-1.7-10.5c-1.1-1.1-2.8-3.5-3.9-5.4l-2-3.3-2.1 3.8-2 3.9-.1-4.2c0-3.3-.3-4.1-1.5-3.7-1.9.7-1.9.1-.1-3.4 1.7-3.4 2.9-11.2 1.7-11.2-.5 0-1.4.7-2.1 1.5m17.7 28.6c.4 1.3.8 1.8 1.1 1 .2-.7-.1-1.8-.6-2.3-.8-.8-.9-.4-.5 1.3m7.6 4.9c-1.3 2.1-2.3 4.1-2.3 4.4 0 .4 2 .6 4.5.6s4.5-.5 4.5-1c0-1.8-2.9-8-3.7-8-.4 0-1.8 1.8-3 4m6.7-2.6c0 .8.5 1.8 1 2.1.6.3 1-.1 1-.9s-.4-1.8-1-2.1c-.5-.3-1 .1-1 .9m-34.6 130.2c.3.9.6 2.5.6 3.7.1 2 .2 2 1.1.4 1.1-2 .3-5.7-1.3-5.7-.5 0-.7.7-.4 1.6"/></svg>