<svg xmlns="http://www.w3.org/2000/svg" width="682.667" height="512" version="1.0" viewBox="0 0 512 384"><path d="M0 192v192h196.9l1.2-2.2c.7-1.2 1.2-3.8 1.1-5.6-.1-2 1.8-8.2 4.3-14.6 4.3-10.7 4.5-11.7 4.5-21.1s-.2-10.3-3-14.4c-3.4-4.9-3.9-10.6-1.9-21.6.6-3.3 1.2-9.8 1.3-14.5.2-4.7.6-9.5 1-10.8 1.1-3.4-.6-2.6-3.8 1.8-1.7 2.2-3.5 4-4.2 4-1.3 0-2.4-2.2-2.4-5.1 0-3.8 7.4-24.5 10.2-28.7 1.6-2.3 4.5-7.5 6.5-11.5 1.9-4 4.2-8 5-8.9 1-1.2 1.6-4 1.7-8.5l.1-6.8 4.1-1.4 4.2-1.5-5.5-5c-7.9-7.2-15-17.7-16-23.4-.4-2.6-.7-4.9-.6-5.2 0-.3.4-2.2.7-4.4.6-3.2.5-3.8-.8-3.3-.8.3-2-.1-2.7-.9-.9-1.1-.8-1.8.5-3.2.9-1 1.6-2.4 1.6-3 0-1.2 3.6-2.6 4.8-1.8.4.3 2.1-.6 3.8-1.9l2.9-2.3-3-.7c-8.1-1.8-18-7.5-13.1-7.5.9 0 1.6-.8 1.6-2 0-2.7 2.6-3.6 4.8-1.8 2.2 1.9 5.6 2.8 7.2 1.8.9-.6.8-2.4-.4-8-2.3-10.2-3.1-22.1-1.7-24.8 1.8-3.3 4-2.7 9.3 2.5l4.8 4.7 3.2-3.1c4-3.7 8.1-5.9 13.1-6.8 2.7-.5 5.1-2.1 8.4-5.6 2.6-2.7 5-4.9 5.5-4.9.4 0 .8 63.4.8 141v141h32c31.4 0 32 0 31-1.9-.5-1.1-1-3.5-1-5.4 0-3.6-3.4-14-7.6-23.4l-2.6-5.8 1.1-22c.7-12.1 1.6-24.7 2.1-28s.6-8.8.1-12.3c-.4-3.4-.4-6.2 0-6.2s1.6 1.6 2.8 3.5c2.3 4 3.6 4.4 5.2 1.4 2.2-4.1-1.1-22-6-32.9-2.2-4.7-4.9-10.7-6-13.5-1.2-2.7-2.8-5.7-3.7-6.6-1-1.1-1.4-3.4-1.2-7.5.3-5.8.2-5.9-3-7.5l-3.3-1.7 4.9-3.5c9.8-7.2 17.9-17.3 20.2-25.3 2.2-7.4-2.7-16.2-11.4-20.6-5.2-2.6-7.6-4.7-7.6-6.6 0-1.2.3-1.1 1.4.4 1.4 1.8 1.6 1.8 3.2.2 1.2-1.2 2.3-1.4 4-.8 2.6 1 3.5 0 4.8-5.3 1-4.1 0-4.9-4.1-3.2-5.6 2.4-6.7 2-6-1.8 3.8-20.5 4.6-27.3 3.6-30.9-.5-2.2-1.6-4.1-2.4-4.4-1.7-.7-7 2.4-10.4 6-3 3.1-4.2 3.2-6.7.5-2.6-2.8-8.2-5.6-14.1-6.9-3.7-.9-5.8-2.2-9.5-6.1-3.2-3.3-5.6-4.9-7.3-4.9H256V0H0zm314.9-15.4c3 3.8 2.6 8.2-1.1 13.9-2.9 4.3-10.9 11.5-17.3 15.5-2.2 1.3-2.6 1.2-4.4-.5-2.3-2-2.8-4.7-1-4.2.7.1 2.2-2.4 3.5-5.7 1.3-3.2 2.6-6.1 2.8-6.4.3-.3 1.4.6 2.5 1.9 1.8 2.2 2 2.2 2.1.5 0-1.9 0-1.9 2.2 0l2.1 1.9-.6-3.7c-.4-2.9-.3-3.6.9-3.1 1.9.7 1.8 0-.6-4.7-1.9-3.7-2.6-7-1.5-7 .3 0 1.4.6 2.6 1.2 1.7 1.1 2.2 1 3-.5 1.4-2.3 2.4-2.2 4.8.9m-40.3 30.1c-1.1 1.1-1.7-.4-.9-2.3.7-1.8.8-1.8 1.1-.1.2 1 .1 2.1-.2 2.4m6.4-1.2c.5-.3 1.9 1.3 3.1 3.6l2.1 4.2-4.7-.7c-2.6-.3-5.4-.6-6.2-.6-1.1 0-1.1-.4-.2-2.3 1.8-3.4 4.3-6 4.7-4.8.2.6.8.9 1.2.6M304 332c0 4.2-1.4 5.4-2.5 2-.5-1.7.9-6 2-6 .3 0 .5 1.8.5 4"/><path d="M215.2 172.6c-.5.8-2 2.1-3.3 2.7-2.7 1.4-3.4 4.2-2.4 9.4.4 2.5 2.9 5.8 8.7 11.9 4.4 4.6 8.7 8.4 9.6 8.4 2 0 .8-7.7-1.7-10.5-1-1.1-2.5-3.3-3.4-5l-1.5-2.9-2.1 3.4-2.1 3.5v-3.3c0-2.6-.4-3.2-2.1-3.2-2.1 0-2.1 0-.1-3.3 1-1.8 1.9-5.3 2-8 .2-5-.2-5.7-1.6-3.1m16.8 28.3c0 .6.4 1.3 1 1.6s.7-.1.4-.9c-.7-1.8-1.4-2.1-1.4-.7m-1.4 3.6c-.3.8-.1 1.5.4 1.5 1.3 0 2.2-1.8 1.1-2.4-.5-.3-1.1.1-1.5.9m9.6 3L238 212h4.5c2.5 0 4.5-.2 4.5-.5 0-1.2-3.3-8.5-3.9-8.5-.3 0-1.6 2.1-2.9 4.5m6.8-2.8c0 1.3.5 2.3 1 2.3 1.3 0 1.3-1.1 0-3-.8-1.2-1-1.1-1 .7m-35 134c0 2.1.3 2.4.9 1.4.5-.8.7-2 .4-2.8-.8-2.1-1.3-1.5-1.3 1.4"/></svg>