<svg xmlns="http://www.w3.org/2000/svg" width="682.667" height="512" version="1.0" viewBox="0 0 512 384"><path d="M0 192v192h98.4c84.9 0 98.5-.2 99.6-1.5.6-.8 1.3-3.6 1.4-6.2.3-4.5 5.8-20.6 7.7-22.8.5-.5.9-5.7.9-11.6 0-8.5-.3-10.9-1.6-12-2.5-2.1-5.4-8.6-5.4-12.3 0-1.9.9-9.4 1.9-16.8 1.1-7.3 2.2-15.7 2.5-18.7l.6-5.5-4.9 4.8c-5.3 5.2-6.1 4.9-6.1-2.2 0-4.5 7.7-23.8 11.4-28.7 1.5-1.9 4.5-7.1 6.6-11.4 2.2-4.4 4.4-8.2 5-8.6.8-.5.9-2.4.5-5.5-.9-6.8-.1-8.7 4.6-10.1 2.1-.7 3.9-1.5 3.9-1.8s-2.8-3.3-6.1-6.6c-11.5-11.2-17.5-23.5-15-30.6 1.5-4.3 1.4-4.8-.8-4.2-1.3.3-2.3-.2-3-1.6-.8-1.4-.8-2.1-.1-2.1.6 0 1.5-1.1 2-2.5.7-1.8 1.7-2.5 3.7-2.5 1.6 0 3.9-.9 5.3-2 2.1-1.7 2.3-2.1 1-3-.8-.5-2.2-.7-3-.5-.8.3-2.8-.4-4.5-1.5-1.6-1.1-3.7-2-4.6-2s-2.2-.7-2.9-1.5c-1-1.2-1-1.5.4-1.5.9 0 1.6-.8 1.6-1.9 0-1 .7-2.4 1.5-3.1 1.2-1 2-.8 4.1.9 2.8 2.2 5.9 2.7 6.9 1.1.3-.5-.4-6.7-1.5-13.8-1.8-10.5-2-13.6-1.1-17 1.5-5.5 3.3-5.4 9.3.5 3.6 3.5 5.2 4.5 6.2 3.8.7-.6 3.2-2.4 5.5-4.2 2.5-1.9 6.5-3.6 9.6-4.3 3.7-.8 5.8-1.8 6.8-3.4.9-1.2 2.9-3.6 4.6-5.2l3.1-2.9V0H0zm256.7-90.3c-.4.3-.7 64-.7 141.5V384h32c31.4 0 32 0 31-1.9-.5-1.1-1-3.6-1-5.5 0-3.4-6.3-22.1-8.1-24-1.3-1.4-1.1-26.5.3-42.6.7-7.4 1.1-17.3 1-22l-.2-8.5 2.1 2.4c1.1 1.3 2.4 3.1 2.9 4 .9 1.4 1.2 1.4 2.6-.4 1.1-1.5 1.4-3.3 1-7-1.2-12.4-2.5-18.4-4.9-23-1.4-2.8-3.9-8.7-5.6-13.2-1.8-4.4-3.8-8.7-4.6-9.3-1.1-.9-1.5-3.3-1.5-8.2 0-6.8-.1-7-3-8.1-1.6-.6-3-1.4-3-1.7s1.4-1.4 3.2-2.5c5.3-3.1 16.6-15.2 19.4-20.7 2.2-4.2 2.5-6.2 2.2-10.9-.5-7.3-3.8-11.8-11.2-15.4-5.7-2.8-9.1-5.7-8-6.8.4-.4 1.3.1 2.1 1.1 1.1 1.5 1.4 1.5 2.6.2.7-.9 2.4-1.4 3.9-1.2 2.2.3 3-.2 3.8-2.3 1.2-3 1.3-7.5.3-7.5-.4 0-2.7.7-5 1.6-2.4.9-4.5 1.5-4.7 1.3s.5-4.5 1.5-9.4c3.8-18.6 3.5-29.5-1-29.5-1 0-4.4 2.1-7.5 4.6l-5.7 4.6-3.8-3.5c-3.7-3.4-6.1-4.4-14.8-6.7-2.9-.7-5.1-2.2-7-4.6-3.7-4.7-8.9-7.5-10.6-5.7m61.3 81.6c0 6-8.3 15.5-20.1 23.1-2.5 1.5-2.7 1.5-4.7-.1-1.1-1-2.3-2.9-2.7-4.3-.5-1.9-.4-2.2.4-1 1 1.3 1.2 1.3 2.1 0 .6-.8 1.8-3.6 2.7-6.3 1.9-5.1 2.4-5.5 4.3-3.2 1 1.2 1.5 1.3 2.1.3.6-.9 1.2-.8 2.8.6 2 1.8 2 1.8 1.4-1.8-.5-3.1-.3-3.5 1.1-3s1.3.1-.4-3.7c-2.9-6.5-2.5-9.9.9-6.7 1 1.1 1.6.8 2.9-1.1l1.6-2.3 2.8 3.1c1.9 2.1 2.8 4.2 2.8 6.4m-42.7 22.5c-.3 1.2-1 2.2-1.5 2.2s-.7-.3-.5-.8c.2-.4.7-1.6 1.1-2.6.9-2.5 1.7-1.6.9 1.2m5.1-.6c-.5.8-.2.9.9.5 1.2-.5 1.8.1 2.3 2.1.4 1.5 1.1 3.3 1.7 3.9.7 1-.3 1.3-4.7 1.3-5.5 0-5.7-.1-5.1-2.3.4-1.2 1.7-3.2 2.8-4.5 2.2-2.4 3.3-2.9 2.1-1m24 127.7c-.5 3.3-.9 3.9-2 3-1.9-1.5-1.8-3.8.3-6.1 2.2-2.4 2.5-1.9 1.7 3.1"/><path d="M215.3 173.2c-.4.7-1.7 1.8-2.8 2.4-2.9 1.6-3.2 8.2-.6 13.1 1.1 2.2 5.2 7 9.3 10.8 7.2 6.8 7.3 6.9 7.6 4.2.4-2.9-2.4-9.3-5.7-13.7l-1.9-2.4-1.3 2.7c-1.7 3.7-2.9 3.4-2.9-.9 0-3.1-.2-3.5-1.5-2.4-1.9 1.6-1.9.7 0-3.1 2.7-5.2 2.5-14.9-.2-10.7m16.8 30.5c-.7.8-1 1.7-.7 2 .9.9 2.9-1.3 2.5-2.5-.2-.6-1-.3-1.8.5m9.2 3.9c-2 4-2 4.4-.5 4.5.9.1 2.8.3 4 .4 2.1.2 2.3-.1 1.8-2.7-.3-1.6-1.2-3.8-1.9-4.8-1.2-1.7-1.4-1.5-3.4 2.6m5.7-3.1c0 1.8 1.9 4 2.6 3.2.4-.4 0-1.5-.9-2.4-.9-1-1.7-1.3-1.7-.8m-21.4 105c-.9 2.6-.7 3.2.5 1.2.6-1 .9-2.1.6-2.3-.2-.3-.7.2-1.1 1.1m-13.5 30.1c0 1.1.3 1.4.6.6.3-.7.2-1.6-.1-1.9-.3-.4-.6.2-.5 1.3"/></svg>