<svg xmlns="http://www.w3.org/2000/svg" width="682.667" height="512" version="1.0" viewBox="0 0 512 384"><path d="M0 192v192h98.9c68.2 0 99.2-.3 99.6-1.1.4-.5.8-3.1 1-5.7.1-2.7 1.9-8.6 4-13.7 3.3-7.8 3.9-10.3 4.2-18.4.4-8.8.3-9.5-2-12-4.9-5.2-7.7-10.3-7.7-14.1 0-2.1 1.3-9.6 2.9-16.6 1.6-7.1 3.2-15.5 3.6-18.8.7-5.5.7-5.8-1.1-4.8-1.1.6-3 2.2-4.3 3.6-6.5 7-8.1-1.4-2.6-13.9 1.4-3.1 2.9-5.4 3.4-5 .5.3 1.2-.8 1.6-2.5.4-1.6 3-6.2 5.9-10.2 3-4 6.5-9.6 8-12.5 1.4-2.8 3-5.4 3.6-5.8.5-.3 1-3.6 1-7.3s.4-7.2.8-7.8 2.4-1.7 4.5-2.3l3.8-1.3-4.5-3.9c-6.3-5.6-14.3-16.5-16.2-22.3-1.4-4.3-1.5-8.3-.3-13.6.3-.9-.3-1.5-1.3-1.5s-2.2-.5-2.8-1.1c-1.5-1.5 1.9-7.4 4.4-7.4 1 0 3.4-1 5.3-2.1 3.5-2.2 3.1-3.8-.8-3.9-2.3 0-12.9-5-12.9-6 0-.4.7-1 1.5-1.4.8-.3 1.5-1.5 1.5-2.6 0-2.6 2.3-2.6 5.9.1 3.4 2.5 7.7 1.9 6.6-.9-1-2.7-3.5-20.3-3.5-25 0-5.1 1.4-8.2 3.8-8.2.9 0 3.8 2.1 6.3 4.6l4.8 4.7 4.2-3.7c3.7-3.1 11.8-6.6 15.4-6.6.7 0 3.1-2.2 5.3-4.9l4.2-5V0H0zm257.8-88.9c-1.7.9-1.8 8.7-1.8 140.9v140h62.8l-.3-5.3c-.3-4.9-4.6-18.1-8-24.7-1.1-2.1-1.5-6-1.5-13.7 0-13.7 1.7-37.8 2.9-41.9.6-2 .5-4.9-.1-7.8-.5-2.5-.8-5.8-.6-7.3l.3-2.8 2.3 3.7c2.9 4.7 4.7 4.8 6.1.5.8-2.4.7-4.9-.4-10.2-.8-3.9-1.5-8.1-1.5-9.5s-1.4-5.4-3.1-9c-2.4-5.1-3.1-8.1-3.3-14-.2-5-1.3-10.3-3.2-16-2.8-8.3-3-8.5-6.4-9l-3.5-.5 4.8-3.4c6.4-4.4 15.2-13.4 18.2-18.5 2.8-4.9 3.9-10.3 3-14.6-1-4.6-6.9-10.7-13.5-14-6.1-3.1-8.7-5.4-7.1-6.4.6-.4 1.5.3 2.1 1.4 1 1.8 1.4 1.9 2.7.8.9-.7 2.4-1.2 3.4-1 2 .3 4.3-2.8 5.3-7.1.8-3.2-.6-3.5-6-1.2-2 .8-3.9 1.3-4.3 1-.4-.2 0-3.5 1-7.3 2.8-11 4.3-25.2 3-28.5-1.8-4.5-3.7-4.4-10.2.7l-6 4.7-3.1-2.6c-4.3-3.7-9.9-6.3-14.9-7.1-3.3-.6-5.2-1.8-8.8-5.5-5-5.1-7.6-6.4-10.3-4.8m59.3 74.8c3.3 3.3 3.9 8.3 1.5 12.9-2.3 4.4-14.1 14.7-19.9 17.3-2.4 1.1-3 1-5.2-1.1-1.4-1.3-2.5-3.1-2.4-3.9 0-1.1.2-1.2.6-.4 1.2 3 2.1 1.5 6.5-9.7l.9-2.5 1.8 2.4c1.3 1.7 2 2 2.6 1.2.5-.9 1.2-.8 2.7.6 2 1.8 2 1.8 1.3-1.5-.5-2.4-.3-3.3.8-3.8 1.3-.5 1.3-1.1-.4-4.7-2.6-5.8-2.5-6.9.7-6.1 2 .5 2.6.2 3.1-1.5.7-2.8 1.9-2.7 5.4.8m-41 29.2c-.5 1.3-1 1.9-1 1.2-.1-1.5 1-4.5 1.5-4 .3.2 0 1.5-.5 2.8m8.1.4c.4.5.8 2 .8 3.2 0 1.3.5 2.2 1.1 2 .6-.1 1.3.3 1.6 1 .3.8-.5 1.1-2.4.8-1.5-.2-4.3-.4-6-.4-3.9-.1-4-.5-1.3-4.9 2-3.2 4.6-3.9 6.2-1.7m19.9 129.2c-.8 1.6-1.1 1.5-2.1-.8-1-2.2-.9-3.1.6-5.5l1.9-2.8.3 3.7c.2 2-.1 4.5-.7 5.4"/><path d="M214.3 175.9c-3.9 3.5-4.3 7.3-1.4 12.9 2 3.9 14.6 17.2 16.3 17.2 2 0 .1-7.5-3.3-12.8l-3.2-5.3-2.1 3.3-2.1 3.3-.3-3.7c-.2-2.7-.7-3.5-1.8-3.1-1.8.7-1.8.1.5-4.4 1.4-2.7 1.8-4.7 1.3-7.1l-.7-3.3zm17.4 30.1c-.6 2.3.3 2.6 2.1.8 1.6-1.6 1.5-2.8-.2-2.8-.7 0-1.6.9-1.9 2m11.5.7c-.5 1.6-1.3 3.6-1.7 4.5-.6 1.5-.1 1.8 2.9 1.8 2 0 3.6-.4 3.6-.9 0-1.2-2.9-8.1-3.4-8.1-.2 0-.9 1.2-1.4 2.7m5.8.6q0 2.7 1.5 2.7c1.3 0 1.4-.4.4-2.3-1.7-3.3-1.9-3.3-1.9-.4m-22.4 92.4c-.4 1.6-1.4 5.2-2.3 8-1.3 4.3-1.3 5.6-.3 6.8 2 2.4 2.7.7 3.4-8.8.6-8.8.3-10.9-.8-6"/></svg>