<svg xmlns="http://www.w3.org/2000/svg" width="682.667" height="512" version="1.0" viewBox="0 0 512 384"><path d="M303.5 28.2c-8.2 2.8-9.7 4-12.1 9.5-2.1 4.8-1.7 10.5 1.2 19.1 2.4 7.2 2.4 7.8.8 8.7-20.1 11.6-36 29.4-39.2 44-.6 2.7-1.4 8-1.7 11.7-.4 4.1-1.6 8.7-3 11.5-2.8 5.3-2.6 6.4.4 3.4l2.1-2.1v2.6c0 1.4.4 2.3.9 2 1-.6 2 4.9 2.2 11.4l.1 4.5 1.2-2.9 1.3-2.9.6 2.4c.3 1.3 1.3 3.3 2.1 4.4 1.4 1.9 1.5 1.8.6-1.4-1.3-4.6-.5-5.2.9-.8 1.2 3.4 4.1 5.8 4.1 3.4 0-.7.5-.4 1.1.5.5 1 1.6 1.8 2.3 1.8s2.5 1.3 4.1 3c1.6 1.6 3 2.8 3.2 2.6s-.3-2-1.1-4c-1.9-4.5-1.2-4.6 1.4-.4 1.4 2.3 2 2.8 2 1.5 0-1 .5-1.5 1-1.2 1.4.8 1.3 8.1-.1 10.8-.6 1.2-2.1 3.2-3.2 4.4-2.6 2.9-1.7 4.8 3.6 7.1 3.4 1.5 4.7 2.7 5.1 4.8.4 1.7 2.9 4.9 6.1 7.8l5.5 4.9v7.6c0 4.2-.4 8.2-.9 9-.7 1-.4 1.9.7 2.7 1.4 1 1.5 1.8.6 5.2-1 3.8-1 4 1.2 3.7 1.8-.2 2.3.4 2.8 3.4 1.4 8.8.7 16.7-2.4 24.1-1.7 4.1-3.2 7.5-3.4 7.7-.1.2-1.7-.4-3.4-1.3-4.2-2.1-10.8-2.1-13.1 0-1.4 1.3-1.9 3.7-2.3 10.6l-.5 9-7.9 8.3c-4.4 4.7-8.3 8.1-8.9 7.7-3.6-2.6-49-17-53.7-17-1.5 0-3.5-1.5-5.7-4.1-2.9-3.5-3.3-4.6-2.7-7.7.7-4.8-1.1-15.5-3.6-21-3.7-7.9-11-10.6-22.8-8.4-3 .6-5.8.7-6.2.3s-.9-2.2-1.1-4.1c-.5-4.5-2.2-3.6-2.2 1.2 0 4.5-.6 5.1-6.9 7.2-2.7.8-6.8 2.7-9.1 4-3.8 2.3-4.3 3.1-6.3 10-2.6 8.8-2.7 11.5-.7 16.2.8 1.9 1.2 4.1.9 4.9-1.1 2.8 2.7 11.2 8.1 17.7 6.3 7.6 10.9 9.9 25 12.5 4.4.8 8.5 1.7 9.2 1.8.8.3.4 2.9-1.3 9.2-1.3 4.8-3.3 15-4.4 22.5s-2.9 15.7-4 18.2c-1.6 3.8-3 8.3-6.6 20.9-.5 1.6 2.6 1.7 59.3 1.5l59.8-.3 1.7-10c3.2-18.2 3.8-20.2 3.3-10.5-.3 4.7-.8 11.3-1.1 14.8l-.7 6.2h69.7c39.8 0 69.6-.4 69.6-.9s-2.7-6.2-6.1-12.7c-5.9-11.6-6.1-12.2-6.6-21.5l-.6-9.6 6.4-1.2c6.8-1.4 16.9-5.9 13.4-6.1-1.7-.1-1.3-.6 1.8-3.1 2-1.7 3.7-3.5 3.7-4 0-2.1-11.1-.9-18.6 2.1-8.3 3.4-10.4 3.3-10.4-.2 0-1.3-.7-5.2-1.6-8.8-.8-3.6-1.7-7.9-1.9-9.5-.2-1.7-.9-5-1.5-7.5s-1.7-7.7-2.5-11.5c-.8-3.9-1.8-8.7-2.4-10.8-.8-3.4 0-5 1.4-2.7.3.5 1.5 1 2.6 1 2.8 0 2.4-2.8-1.1-8-5.3-7.9-7.2-17.7-5.1-26 .5-1.9 1.2-4.7 1.5-6.3.4-1.5 1-2.7 1.4-2.7.5 0 1.8 3.1 3.1 7 2.5 7.9 3.6 9 2.6 2.7-.3-2.3-.9-5.8-1.1-7.7l-.5-3.5 1.5 2.5c.8 1.4 1.6 2 1.6 1.5 0-.6 1.8 3.5 4 8.9 3.9 9.9 6.9 14.9 5.6 9.3-.3-1.5-.9-4.8-1.2-7.5l-.6-4.7 4.1 6.2c2.2 3.5 4.2 6.3 4.4 6.3s.2-10.2-.1-22.6c-.3-14.1-.1-22.9.5-23.3s.7-7.2.1-19.1c-1.3-28.8-2.7-42.3-5.9-58.2-3.2-16.2-6.3-25.8-11.4-35.9-1.9-3.6-3.7-9-4.1-12-.9-7.2-2.7-12-6.5-17.7-4.6-6.8-13.8-16-18.4-18.4-5.4-2.8-16.5-3.5-22.4-1.5-4.2 1.5-4.9 1.5-10.5-.4-3.9-1.3-8.5-4-12.6-7.4-3.6-2.9-9.9-7.1-14-9.2l-7.5-3.9zm22 179.2 2.9 5.9-2.4 1.6c-1.4.9-3.5 2.7-4.7 4l-2.3 2.4v-6.4c0-8.4 1-14.1 2.4-13.6.6.1 2.4 2.9 4.1 6.1"/></svg>