<svg xmlns="http://www.w3.org/2000/svg" width="682.667" height="512" version="1.0" viewBox="0 0 512 384"><path d="M0 192v192h197.8l1.6-2.5c.9-1.4 1.2-2.5.6-2.5-2.1 0-.9-5.9 3.6-17.5 6-15.5 6.1-16.1 6.9-35.3.6-13.8.4-17-1-21.3-1.4-4-1.6-6.9-1.1-12.7.6-6.6 3.4-21.7 5.2-27.9 1-3.5-3-4-6.7-.9-4.8 4.1-5.5 3.5-6.2-4.9-.8-9.2.4-12.5 4.4-12.5 2 0 3-.6 3.5-2.2.4-1.3 3.8-6.9 7.7-12.6 5.1-7.6 8.1-11 11.3-12.8 3.7-2.2 4.4-3.1 4.4-5.7 0-4.2.9-5.3 4.8-6.2l3.2-.7-5.9-3.8c-13.4-8.7-20.1-17.1-20.1-25.4 0-6.1 3.5-12.5 8.5-15.6 1.9-1.2 3.5-2.3 3.5-2.6 0-.9-5.6-3.1-6.8-2.7-1.6.6-5.4-2.6-4.6-3.8.3-.5 1.6-.9 3-.9 1.3 0 2.4-.4 2.4-.9s2.1-.6 4.6-.3c4.2.4 4.6.3 4.1-1.4-1.3-4.2-3.7-20.2-3.7-24.5 0-2.5.6-5.3 1.3-6.3 1.7-2.3 3.8-1.1 8.6 4.9l3.4 4.3 3.6-3.8c2.1-2.2 5.7-4.5 8.9-5.6l5.2-1.9V0H0zm271-79.8c-2 1.3-5.9 2.5-9 2.8l-5.5.5-.3 42.7-.2 42.6 3.1 2.6c1.7 1.4 2.5 2.6 1.9 2.6-.7 0-1 .8-.7 2 .4 1.6 0 2-1.9 2H256v174h65.1l-2-2.9c-1.2-1.6-2.1-4.3-2.1-6s-1.3-6.7-3-11.3c-2.7-7.5-2.9-8.4-1.5-10.4.8-1.3 1.5-3.7 1.5-5.4 0-2.7 2.3-9.3 4.9-14 .4-.8 7.5-6.3 15.7-12.2 8.2-6 18.2-13.3 22.2-16.3l7.2-5.6v-8.4c0-10.1-.9-11.4-9.4-14.1-4.1-1.3-6.3-1.5-8.1-.8-1.4.5-9.5 7.9-18 16.4L313 308.4l.6-6.4c.3-3.6 1-8.1 1.5-10.1s.6-4.4.3-5.3-.2-1.6.4-1.6c.5 0 1.4 2.6 1.8 5.7 1 6.6 3.5 8.3 5.6 3.8 1.4-3.1-.4-11.6-3.3-15.4-2.4-3-2.4-3.4.6-6.9 3.3-3.9 3.3-9.2-.1-17.9-4.3-11.2-6.2-19.2-5.7-23.3.9-6.8-.3-10.6-4.1-12.4-3.5-1.7-13.3-4.2-19.9-5.2-3.6-.5-3.8-.7-3.2-3.4.5-2.1.2-2.9-1-3.2-1.1-.2-.6-1 1.9-3l3.5-2.8 1.8 3.8c1.9 3.8 9 8.3 10.2 6.4.3-.5 2.4-1.5 4.6-2.2 9.9-3.1 21.3-10.6 25.4-16.6 5.8-8.3 4.4-17-3.8-25.2l-4.7-4.7 2-4.7c1.1-2.6 1.7-5 1.5-5.3-.3-.2-2.2.1-4.2.7s-3.9.9-4.1.7.4-3.8 1.5-7.9c6.3-25.3 4.2-33.9-5.8-23.5-2.3 2.5-4.5 4.5-4.8 4.5s-2-1.7-3.8-3.7c-4.1-4.7-9.9-7.2-18.4-8-4.4-.4-8.2-1.4-10.8-2.9l-4.1-2.3zm56.2 61.5c6.8 7.4 6.5 14.2-1 19.4-3.6 2.5-18 8.9-20.1 8.9-1.7 0-1.4-1.5 2.1-9.5 2.4-5.5 3.4-7.1 4.1-6 .4.8 1.4 1.5 2.1 1.5.8 0 1.9.7 2.6 1.5 1.8 2.2 3.2 1.8 2.5-.7-.6-1.7-.4-2 .9-1.5 1.8.7 2.3-1.7.6-2.8-1.5-.9-1.2-3.7.7-8.1.9-2.2 1.6-4.2 1.5-4.7-.4-1.6 1.5-.6 4 2"/><path d="M218.3 175.8c-.7 2.9 1.2 7.3 4.5 10.5 3.4 3.2 17.2 11.7 19 11.7 2.1 0 .5-5.7-3.1-11l-3.1-4.4-1.3 3.2c-1.3 3.2-3.8 3.7-2.6.5.5-1.3.2-1.5-1.4-1.1-2.1.6-2.1.6-.2-3.6 1-2.2 1.9-4.6 1.9-5.2 0-1.5-4.3-2.8-9.3-2.8-3.1-.1-3.9.3-4.4 2.2m34 29.2c-2 2.4-2.1 2.9-.7 3.4 3.4 1.3 4.4.6 4.4-2.9 0-4.2-.8-4.3-3.7-.5m-38.6 112.3c-1.3 7.3-1.8 23.2-.7 21.5.9-1.4 2-8.3 3.3-21 .5-3.9-2-4.4-2.6-.5m5.9.9q-3.3 16.05 2.4 4.8c2.4-4.8 2.4-4.7 0-6-1.6-.9-2-.7-2.4 1.2"/></svg>