<svg xmlns="http://www.w3.org/2000/svg" width="682.667" height="512" version="1.0" viewBox="0 0 512 384"><path d="M0 192v192h98.6c91.8 0 98.8-.1 99.9-1.7.9-1.2 1-2.3.3-3.9-.8-1.7-.2-4.3 2.7-12 7.8-21.2 8.5-23.5 8.5-28.1 0-6.2 2.8-30.6 4.1-35.8.6-2.2 1.4-12.5 1.9-22.9.8-18.9.8-19-1.4-21.7-1.6-1.8-2.7-2.4-3.7-1.9-1.8 1.2-2.9-.7-2.9-5 0-2-.6-4.5-1.4-5.6-1.2-1.7-1.2-2.2 0-3.9.8-1 1.4-2.7 1.4-3.8 0-1.3.5-1.7 1.8-1.3s3.2-1.9 8.2-9.6c4.5-6.9 7.6-10.7 10.1-12.1 2.6-1.5 4-3.2 4.8-5.8.6-2 1.8-4.2 2.6-4.9 1.3-1.1.6-1.8-4.3-5.2-12.3-8.5-17.2-15.2-17.2-23.3 0-5.8 1.8-9.3 7.5-14.3 3.7-3.2 4.2-4.2 3.1-5.1-.7-.6-2.1-.8-3-.5-1.6.6-5.6-2-5.6-3.8 0-.4 1.1-.8 2.4-.8 1.4 0 2.8-.5 3.1-1 .3-.6 1.9-1 3.5-1s3.2.4 3.5 1c1 1.7 2.8 1.1 2.1-.7-.4-.9-1.6-6.9-2.7-13.4-3.4-19.3-1.2-24.1 7-15l4.7 5.2 4.5-4.4c2.5-2.3 6.1-4.7 8-5.3l3.4-1 .3-57.7L256 0H0zm272.2-80c-1.8 1.1-4.8 2-6.6 2s-4.8.3-6.5.6l-3.1.6v41.5c0 39.4-.1 41.6-2 45.3l-2 3.9 2 1.1c2 1.1 2 2.1 2 89v88h65.1l-2.6-3.7c-1.4-2.1-2.5-5-2.5-6.5s-.4-3.8-1-5.2c-.8-2.1-.3-3.4 3-8.3 4.4-6.3 5.1-10.7 2.8-17.1-1.2-3.2-1.1-3.6 1.2-5.1 5.4-3.5 9.8-8.3 11.4-12.3 1.4-3.9 3-5.2 14.6-12.7 7.2-4.6 14.1-9.5 15.4-10.8l2.4-2.4-1.8-6.5c-2.2-7.7-3.1-8.9-8.2-11.5-9.2-4.7-7.7-5.3-21.9 8.8L321 303.4l-3.7-1-3.8-.9.3-7c.2-3.9.7-8.6 1.1-10.5l.8-3.5 1.1 4c.7 2.2 1.2 5 1.2 6.3 0 3 2.7 3.9 4.6 1.6 2.4-3.1 1.1-10.7-2.6-15.4l-3-3.8 2.5-2.8c3.2-3.4 3.3-9.3.4-16.6-3.8-9.4-5-15.1-4.9-23.2 0-5.4-.4-8.6-1.4-10.2-1.8-2.6-9.8-5.8-17.1-6.8-8.3-1.2-8.8-1.4-8.1-4.6.3-1.8.1-3-.7-3.3-.7-.2 0-1.4 1.8-3 3.6-3.2 4.2-3.3 4.9-.9.4 1 1.6 3.2 2.9 4.8 2.2 3 5 3.5 9.2 1.9 1.1-.5 4.3-1.7 7-2.7 10.1-3.9 19.5-11 22.5-16.8 2.3-4.5 2.6-11.6.7-16.3-.8-1.8-3.5-5.3-6-7.8l-4.7-4.6 1.6-4.7c.9-2.6 1.4-5 1-5.3-.3-.3-1.9 0-3.6.7s-3.2 1.1-3.5.9c-.2-.3.5-3.8 1.6-7.9 2.2-8.6 3.5-20.5 2.5-24.4-1-4-4-3.2-8.7 2.4-2.3 2.7-4.5 5-4.8 5s-1.7-1.6-3-3.5c-3.1-4.5-10.8-8.2-19.1-9.1-3.6-.3-7.9-1.5-9.6-2.5-3.9-2.4-4.2-2.3-8.2.1m56 59.7q10.65 11.55-1.8 20.1c-3 2.1-17.5 8.2-19.4 8.2-1.7 0-1.1-2.5 1.9-9.3 1.6-3.6 2.6-6.9 2.3-7.4-.4-.4.2 0 1.4 1 1.1.9 2.6 1.7 3.2 1.7.7 0 1.2.3 1.2.8 0 .4.9 1.3 2 2 1.9 1.2 2 1.1 1.4-1.3-.5-2-.3-2.4 1-1.9 2 .8 2 .1 0-3.7-1-2-1.2-3.5-.6-4.2.5-.7 1.5-2.9 2.1-5 .7-2 1.6-3.7 2-3.7s1.9 1.2 3.3 2.7M262 204.8c-.5.2-1 1.2-1 2.3 0 2-.8 2.3-3.4 1.3-1.1-.4-1.6-1.9-1.6-4.3 0-5.1.9-5.6 4.2-2.4 1.6 1.5 2.4 2.9 1.8 3.1"/><path d="M219 173.9c-2 3.8-1.1 6.2 4.3 11.4 5.2 5 19.1 13.2 20.7 12.2 1.4-.9-.7-7.2-3.6-10.9-3.4-4.3-4.1-4.4-5.4-1.1-1.2 3.1-3.4 3.4-2.5.3.6-1.7.4-2-.9-1.5-2 .8-2-.3-.1-3.9.8-1.6 1.5-3.5 1.5-4.1 0-1.9-6.2-4.3-7.8-3-.9.7-1.6.7-2.4-.1-1.7-1.7-2.6-1.5-3.8.7m-1.4 126.6c-.6 1.7-3.2 20.7-4.1 30.5-.7 7.5.8 6.6 2.5-1.5 3.1-15.2 5-27 4.5-28.7-.8-2.2-2.1-2.3-2.9-.3m5.5 8.8c-.5 2.9-1.2 7-1.5 9.2l-.6 4 2.5-4.7c3.2-6.1 4.3-12.3 2.2-13.1-1.2-.5-1.8.5-2.6 4.6"/></svg>