<svg xmlns="http://www.w3.org/2000/svg" width="682.667" height="512" version="1.0" viewBox="0 0 512 384"><path d="M303 28.9c-7.8 2.5-9.7 3.7-11.7 7.4-2.6 4.9-2.3 15.8.7 22.6l2.4 5.4-2.1 1.6c-1.2.9-4.7 3.2-7.8 5.1-8.3 5.1-20.3 17.3-25.3 25.7-4.2 7.2-6.3 14.4-7.7 27.5-.4 3.2-1.8 7.9-3.1 10.5-2.1 3.8-2.2 4.4-.7 3.3 1-.8 2.4-2.1 3.1-3 1.2-1.3 1.3-1 .8 2-.3 1.9-.3 2.9 0 2.2 1.3-2.8 2.4-.8 2.4 4.5 0 3.2.3 6.9.7 8.3.7 2.5.7 2.5 1.3-.5l.6-3 2.1 4.5 2.2 4.5-.5-3.5-.4-3.5 1.3 3.5c1.2 3.4 3.7 5.2 3.7 2.7.1-.6 1-.1 2 1.2 1.1 1.3 2 2 2 1.5 0-.4 1.8 1 4 3.1 4.3 4.2 4.9 4.1 2.4-.6-.8-1.7-1.3-3.3-1.1-3.6.3-.2 1.1.5 1.7 1.7s1.8 1.9 2.5 1.6c2-.7 2.9 4.7 1.5 8.8-.6 1.8-2 4.2-3 5.1-3.3 3-2.5 5.2 2.7 7.7 3.7 1.8 4.9 3 5.5 5.5.5 1.8 1.3 3.3 1.7 3.3.5 0 3 2 5.5 4.6 5 4.9 4.7 3.4 3.2 17.6-.4 3.3-.1 4.9.9 5.8 1.7 1.4 2 5.6.5 6.5-.5.3-1 1.3-1 2.2 0 1.1.6 1.4 2.4.9 2.2-.5 2.4-.2 3 4.7 1.2 10.4.7 14.1-2.9 22.1-1.9 4.2-3.6 7.6-3.9 7.6-.2 0-1.7-.7-3.2-1.5-4.5-2.3-10.1-1.9-12.9.9-2.2 2.2-2.3 2.9-1.8 9.9l.6 7.5-6.3 6.8c-3.5 3.8-7.3 8-8.5 9.2l-2.2 2.4-3.9-2c-7.7-3.9-48.3-16.3-51.2-15.6-1.1.3-2.7-1.1-4.7-3.9-2.5-3.6-2.9-5.2-3.1-11.2-.3-14.3-5.5-24.4-13.6-26.6-2.9-.7-5.8-.8-10.3 0-9.5 1.7-9.5 1.7-9.5-3 0-2.8-.4-3.9-1.2-3.6-.8.2-1.3 2.2-1.3 4.8v4.3l-7.1 2.7c-9.6 3.5-13.1 6.2-14.3 10.7-.6 2-1.6 5.8-2.2 8.3-1 3.6-1 5.5 0 9 .7 2.4 1.2 5.5 1.2 6.9-.2 5.5 2.9 11.7 9.7 18.8 5.9 6.2 7.5 7.3 13.2 9 3.6 1.1 9.8 2.5 13.8 3.2 6 1 7.2 1.5 6.8 2.8-2.1 6.6-4.8 20.7-6.1 31.2-.9 8.1-2.5 15.3-4.4 20.6-1.6 4.5-3.4 10.5-3.9 13.3l-.9 5.1h117.6l1-5.3c.6-2.8 1.5-7.9 2.1-11.1.5-3.3 1.3-6.2 1.6-6.5.4-.3.4.5.1 1.9s-.9 6.7-1.3 11.7l-.7 9.3h69.2c39.5 0 69.1-.4 69.1-.9s-2.8-6.2-6.2-12.7l-6.1-11.9-.1-9.5-.1-9.4 5.7-1.2c7.1-1.4 14.8-4.3 14.8-5.5 0-.5-.6-.9-1.2-.9-.7-.1.5-1.6 2.6-3.4l4-3.4-5.5-.7c-4.9-.6-6.4-.3-14.3 3-4.8 2-9.1 3.3-9.4 3-.7-.7-3.6-13.8-5.2-23.3-.9-5.8-1.5-8.5-5.9-27.6-1.7-7.2-2.9-13.2-2.6-13.4.2-.2.9 1.4 1.5 3.7 1.1 4.4 3.3 7.1 5.6 7.1 2.4 0 2.7-2.8.6-5.7-6.9-9.9-9.2-20-6.6-30.2 2.4-9.9 2.8-10 5.4-1.6 2.7 8.5 4.1 9.8 2.9 2.7-.4-2.6-.8-5.6-.8-6.6-.1-2-.1-2 1.7 0 .9 1 3.2 5.7 5.1 10.4 1.8 4.7 4 9.2 4.8 10 1.2 1.3 1.3 1.3.9 0-.7-1.8-2.4-13-2-13 .1 0 1.4 1.9 2.8 4.2 1.4 2.4 3.5 5.4 4.6 6.8l2.1 2.5-.5-3.5c-.3-1.9-.8-12.9-1.2-24.4-.5-18.5-.4-20.8.9-20.3 1.2.5 1.4.1.7-2.2-.4-1.5-1.1-11.3-1.4-21.7-.9-24.9-2.1-35.9-5.7-53.7-3.1-15.5-7.2-27.9-11.4-35.2-1.5-2.4-3.2-7.7-4-12.3-.7-4.5-2.1-9.6-3.1-11.4-4.8-9.4-14.9-20.5-21.9-24.1-5.5-2.8-15.9-3.4-22-1.4-4.4 1.6-5 1.5-11.3-.5-4.4-1.4-8.9-4-13.2-7.3-7.1-5.6-10.4-7.6-16.4-10-4.6-1.8-4.6-1.8-11.6.4m21.9 178.3c2.8 5.4 3 6.3 1.6 7.1-.9.5-3.2 2.2-5.1 3.9l-3.4 3v-2.4c0-7.9 1.4-17.8 2.5-17.8.7 0 2.7 2.8 4.4 6.2"/></svg>