<svg xmlns="http://www.w3.org/2000/svg" width="682.667" height="512" version="1.0" viewBox="0 0 512 384"><path d="M0 192v192h98.4c92.8 0 98.4-.1 99.1-1.8.4-.9.7-3.3.6-5.2-.1-2.1 1.6-8.1 4.3-15 2.4-6.3 5.6-14.4 6.9-18 1.4-3.6 3.3-11 4.2-16.5 2.4-14.3 6.8-30.8 11.5-43.1 3.9-10.5 4-11.1 4-23.4 0-12.7 0-12.7-2.9-15.7-5.7-6-6.6-8.1-6.6-16.2 0-6.3.5-8.6 2.8-13.3 2.5-5.2 7.6-10.8 12.3-13.7 1.9-1.1 1.9-1.2 0-2.4-17.8-11.5-21.6-15.9-21.6-25.2 0-5.5 1-7.7 5.8-12.8 2.4-2.5 3.1-3.7 2.1-3.7-1.5 0-4.9-3-4.9-4.3 0-.4.8-.7 1.8-.7.9 0 3-.9 4.6-1.9 2.3-1.5 3.4-1.7 4.9-1 1 .6 2 .9 2.2.7s-.5-3.9-1.6-8.3c-2.8-11.8-3.5-21.5-1.6-24 1.5-1.9 1.7-1.9 6.5 2.8l5 4.9 4.4-4.5c2.6-2.6 6.3-5 8.9-5.9l4.4-1.5.3-57.1L256 0H0zm271.6-80.4c-1.6.8-4 1.4-5.5 1.4-1.4 0-4.3.3-6.3.6l-3.8.7v40.2c0 27.2-.4 41.2-1.1 43.4-.9 2.4-.9 3.5 0 4.4.8.8 1.1 25.9 1.1 91.4V384h63l-2-3.7c-1.1-2.1-2-4.1-2-4.4 0-.4 2.2-.9 4.8-1.3 7.3-1 12.2-7 12.2-15.1 0-5.2-1.4-7.8-8.3-15.8-5-5.7-6.3-7.7-5.5-9 .6-1.2-.2-3.8-3.1-9.4-3.8-7.4-4-8.5-5.1-22.3-.6-8-1.3-15.8-1.5-17.3-.6-6.4 2-8.3 4.3-3.1.7 1.3 1.7 2.4 2.4 2.4 2.2 0 8.8-6.6 8.8-8.7 0-3.4 2.6-3.4 9.3 0 3.4 1.9 9.3 4.2 13.1 5.3 5.8 1.6 7 2.4 8.5 5.2 3.5 6.8 20.1 17.7 28.7 18.9 3.2.4 4.1.1 5.2-1.6 1.1-1.9.3-3.5-7.9-15.8-7.8-11.6-9-14-8.5-16.6.5-2.3-.2-4.2-3.1-8.9-4.1-6.6-8.1-9.6-17.1-12.9-3.1-1.2-6.3-2.6-7-3.2-1.5-1.2-4.1 1.7-4.2 4.6 0 2.3-5.7 5.7-9.6 5.7-2.8 0-3-.2-2.6-2.8.4-2.8.2-2.9-6.5-4.1-10.3-1.8-9.8-1.2-9.5-15.2.2-9.6-.1-12.7-1.3-14.5-2-3-7.8-6-15.8-8-8-2.1-8.9-2.8-7.6-6.2.7-1.9.7-2.8-.2-3.1-1-.3 5.6-7.1 7.1-7.1 1.2 0 4 5.9 4.1 8.7 0 1.5.3 2.1.6 1.3.2-.8.7-2.2 1-3 .4-1.2.8-1.1 2.3.7 1.4 1.7 1.9 1.9 2.3.9.3-.8 2.8-2.1 5.5-3 6.3-2.1 13-6.4 19.3-12.3s7.9-8.9 7.9-15.1c0-5.6-3.8-12.5-8.8-16.1-2.9-2-3.1-2.4-2.5-7.1.6-5.3.4-5.6-2.8-3.9-4.2 2.2-4.7.7-2.7-8.8 2.3-11.4 2.4-21.6.2-23.4-1.7-1.4-3.1-.3-9.2 7.6l-2.4 3-3-3.8c-4.4-5.5-9.7-7.8-19.7-8.6-4.7-.4-9.5-1.3-10.7-1.9-1.6-.8-2.7-.8-4.8.4m56.6 54.4c2 1.7 4.2 4.6 4.8 6.5 2.1 6.3-2.2 11.3-15.7 17.9-9.1 4.5-11.6 4.7-10.7.8 1.5-6.8 5.4-14.1 5.4-10.1 0 .6.6.9 1.3.6.6-.2 2.2.5 3.5 1.6l2.2 2v-2.1c0-1.2.3-2.1.8-2.1 1.9.3 2.4-.2 1.3-1.5-.8-1-.7-2.2.4-4.9.8-2 1.5-5.5 1.5-7.7s.3-4 .8-4c.4 0 2.4 1.4 4.4 3m-66.8 36.7c-3.1 3.2-6.6-.5-4.8-5.2.6-1.4 1.1-1.2 3.5 1.1s2.6 2.8 1.3 4.1m42.4 87.9c1.8 14 1.5 14.8-2.3 6.2l-3.4-7.7 1.6-4.6c1-2.4 2-4.1 2.4-3.7.3.4 1.1 4.8 1.7 9.8m12 73.5-.1 3-2.4-2.2c-1.4-1.4-2.3-3.4-2.3-5.2v-3l2.4 2.2c1.6 1.5 2.4 3.4 2.4 5.2"/><path d="M223.3 166.5c-8.2 7.2-8 12.8.9 19.1 5.9 4.3 16.3 9.4 18.9 9.4 1.9 0 2.1-.4 1.5-3-.3-1.7-2.1-4.6-3.9-6.5-3.2-3.3-5-4.4-4.5-2.8.2.5-.5 1.9-1.5 3.3l-1.7 2.4v-2.8c0-2.5-.2-2.7-1.6-1.5-1.5 1.2-1.6 1.1-.9-1.1.4-1.4 1.1-2.9 1.6-3.5 1.6-1.7.9-3.4-2-4.9-2.1-1.1-3.1-1.2-3.9-.4-.9.9-1.8.6-3.7-1.2l-2.5-2.4 4.7-4.2c2.7-2.4 4.6-4.3 4.3-4.4-.3 0-2.9 2-5.7 4.5m1.8 132.7c0 .4-1.3 5.3-2.7 10.9-2.7 10.6-2.6 13.8.1 7.3 2.2-5.4 3.7-12.8 3.2-16.1-.2-1.5-.5-2.5-.6-2.1"/></svg>