<svg xmlns="http://www.w3.org/2000/svg" width="682.667" height="512" version="1.0" viewBox="0 0 512 384"><path d="M0 192v192h198.7l1.2-4.2c2.2-7.3 13.1-34 16.2-39.6 6.2-11.1 8.5-21.8 10.4-48.2 1.6-22.8.9-48-1.6-58.5-1-4.2-.9-5.9.5-10.7.9-3.1 2.8-7.1 4.3-8.9l2.7-3.2-2.2-1.6c-1.1-.9-4.2-3.1-6.7-5-8.8-6.5-12.4-17-8.7-25.4 1.1-2.4 2.5-4.8 3.2-5.2.8-.5.6-1.3-.9-2.6-2.3-2.2-2.7-3.9-.9-3.9.6 0 .8-.3.5-.7-.9-.8 6-4.2 8.6-4.3 1.3 0 1.7-.5 1.3-1.8-3-10.2-4.7-19.4-4.3-23.5.6-7.3 1.7-7.5 7.3-1.9l4.8 4.9 5.1-5.3c4.1-4.1 6.4-5.6 10.8-6.9l5.7-1.6V0H0zm265.7-68.5c-1.1.7-3.6 1.7-5.8 2l-3.9.7V384h78v-4.8c-.1-6.7-2.7-11.6-10.9-20.4-5.9-6.3-7-8-6.3-9.5.7-1.3.1-3.9-2.5-9.6-3-6.8-3.6-9.7-4.8-22.5-2-20.8-1.9-33.2.5-33.2.3 0 1.8 2.7 3.3 6 1.4 3.3 2.9 6 3.4 5.9.4 0 2.3-2.1 4.1-4.5 3.9-5.4 3.6-7.2-1.8-10.8-3.8-2.5-4-2.9-3.5-6.4.5-3.3-.9-10.5-3-15.6-.7-1.6-.5-1.8 2.6-1.1 1.9.4 7.2 2 11.9 3.6l8.5 2.8 2.2-2.1c1.2-1.1 2.7-3.6 3.3-5.4 1.3-3.9 1.2-3.9 7.4-1.8 3.5 1.2 6.7 1.5 11.5 1.1l6.6-.5 4.1 5.7c2.2 3.1 7.4 10.5 11.5 16.5 7.8 11.4 9.9 13.1 23 18 4.3 1.6 4.9 1.7 7.7.2 3.7-1.9 5.2-4.4 5.2-8.3 0-3-.8-4.1-25.4-32.5-8.5-10-10-12.3-9.8-14.7.4-4-1.2-6.7-5.7-9.5-3.5-2.3-8-6.4-14.5-13.5-2.8-3.1-3-3.2-10.9-2.9l-8.1.3-1.4 3.7c-1.3 3.5-1.3 3.8 1.2 7.1 3.1 4 3.1 4.5.6 7.7-1.7 2.2-1.9 2.3-2.5.7-.5-1.2-1.9-1.7-4.9-1.7-10.1-.1-27.6-3-37.1-6.2-5.5-1.9-10.5-3.7-11.1-4-2.2-1.4-.9-7.4 2.4-11.2 1.8-2 3.2-3.1 3.2-2.4 0 .9.3.9 1-.2s1.1-.8 2 1.5c.5 1.7 1.4 3.9 1.9 5l1 2 .1-2c.1-1.9.1-1.9 1.9.2 1.4 1.7 2 1.9 2.4.9.3-.7 2.1-1.6 4-2 4.1-.8 16.6-8.7 22-14 10-9.9 10.1-22.2.2-30.3-3.1-2.6-3.8-3.9-4.2-7.7-.5-3.7-.9-4.6-2.2-4.2-.9.3-2.9.8-4.5 1.2l-2.9.7.7-4.9c1.5-11.1 1.9-25 .7-27.2-2.1-3.8-3.8-2.7-11.8 7.7-.2.3-2-1.2-4-3.3-4.9-5-8.1-6.2-19.7-6.9-5.5-.4-10.4-1.1-11-1.7-1.4-1.4-3.7-1.2-5.9.5m61.4 52.6c3.7 2.6 6.2 7.4 5.5 10.4-1.1 4.5-16.5 15.7-23.3 17.1l-3.2.6 2.2-6.6c1.1-3.6 2.3-6.2 2.6-5.8.4.4 2.3 1.8 4.3 2.9 2.6 1.5 3.5 1.7 3.1.7-.3-.7.2-1.6 1-2 .9-.3 1.3-1.2 1-2s0-2 .6-2.8c.6-.7 1.2-4.3 1.3-7.9.2-3.7.7-6.7 1.1-6.7.5 0 2.2.9 3.8 2.1M305 290.8c0 2.2.2 7.5.5 11.8.4 6 .3 7.2-.5 4.9-1.6-4.9-2.5-20.5-1.1-20.5.6 0 1.1 1.6 1.1 3.8m-2.6 14.7.6 8-2.4-5.2c-2.1-4.5-2.3-5.7-1.3-8.8 1.5-5 2.4-3.3 3.1 6m14.9 69.8c.9.8 1.7 2.1 1.7 3 0 2.4-2.1 3.2-3.5 1.4-.7-1-1.7-1.7-2.4-1.7-.6 0-1.1-1.4-1.1-3 0-3.2.8-3.2 5.3.3"/><path d="M218.3 186.6c-1.1 2.9 2.7 8.1 8.6 11.8 5.5 3.5 5.6 3.5 6.4 1.4.9-2.5.1-3.6-1.5-2-1.8 1.8-3.3 1.5-1.8-.3.7-.9 1.4-3 1.6-4.8.4-2.8 0-3.4-2.6-4.4-1.7-.7-3.2-.7-3.6-.2-.8 1.4-2.2 1.1-4.4-1.1-1.8-1.8-2.1-1.9-2.7-.4m17.5 12-1.6 3.9 3.5 1.8c6.7 3.5 8.3.2 3-5.8l-3.4-3.8z"/></svg>