<svg xmlns="http://www.w3.org/2000/svg" width="682.667" height="512" version="1.0" viewBox="0 0 512 384"><path d="M0 192v192l101.2-.2 101.1-.3 5.4-13c2.9-7.2 7.8-18 10.8-24 5.2-10.5 5.5-11.5 6.5-22 2.3-26.6 3.2-53.8 2.7-90.1-.1-4.6.4-6.9 2.2-10l2.3-3.9-2.8-2c-5.6-3.9-13.1-12.6-14.4-16.6-1.7-5.2-.1-14.1 3.2-17.7 1.3-1.4 1.8-2.2 1.2-1.9s-2.1-.1-3.4-1c-2.2-1.6-2.2-1.7-.4-3 1-.8 1.9-1.9 1.9-2.6s1.1-1.4 2.5-1.5c1.4-.2 3-.8 3.7-1.4.7-.5 1.6-.7 2.1-.4.6.4.7-.7.2-2.7-.4-1.7-1.5-6.1-2.4-9.7-1.8-7.3-2.1-15.7-.6-18 .8-1.2 1.9-.5 6.2 3.8l5.4 5.2 1.7-3c2.5-4.1 7.1-7.4 14-10l5.7-2.1V0H0zm263.1-58c-1.3 1.1-3.4 2-4.7 2H256v248h39c21.5 0 39-.4 39-.8 0-1.4-3.3-5.7-8.8-11.4-3-3.1-5.1-6.1-4.8-6.7.4-.6.2-1.1-.4-1.1s-.9-.4-.6-.8c.7-1.2-1.6-8.3-5.5-17.2-3.4-7.5-3.4-7.6-3.7-25.5-.3-17.7.5-26.1 2.3-25.9.6.1 2.3 2.7 4 5.9l2.9 5.7 3.3-3.8c4.6-5.4 4.4-8.7-.7-12.2-3.3-2.3-3.9-3.2-4-6.4 0-2-1.4-7.6-3.1-12.4-2.9-8-3.1-9.2-2.3-15.3l.9-6.6 3.9.3c2.1.2 8.4 1.8 13.9 3.6l10.2 3.3 3-3.1c1.6-1.7 3.5-3.9 4-4.9.9-1.5 1.5-1.6 5-.6 2.1.6 6.5.9 9.6.7l5.8-.4 3 6.5c1.6 3.6 4.5 10.4 6.4 15.1 5.9 14.3 6.8 16.4 8.5 18.4 1.9 2.1 14.4 8.6 16.6 8.6 2.1 0 10.3-5.7 11-7.6 1.3-3.5.2-6-10.7-22.6-15.8-24.1-16.6-25.5-16-30.1.7-5.2-1.2-9.1-5.8-12.1-2.9-1.9-4.9-4.7-7.8-10.5-2.2-4.3-4.7-8.1-5.6-8.5-.9-.3-4.5-.6-7.9-.6-5.1 0-6.8.4-8.9 2.3-3.3 2.8-3.5 6.7-.6 10.6 2.2 3 2 3.9-1.6 8.5-1.1 1.4-1.8 1.6-2.7.8-.8-.6-7.5-1.8-15.1-2.6-7.5-.8-14.4-1.9-15.2-2.4-1.2-.6-.6-1.5 3.3-4 6.1-4 14.9-13.2 16.7-17.7 2.9-6.9 1.1-14.2-5.1-20.4-3-2.9-4.5-5.5-5-8-1-6.2-.9-6.1-5.4-4.4-2.2.9-4.3 1.4-4.6 1-.3-.3-.1-3.7.5-7.6 2.2-14.1 1-27.1-2.5-27.1-.7 0-3.2 2.3-5.5 5l-4.3 5-3-2.9c-5.5-5.2-9.1-6.4-19.8-6.5-6.3-.1-10.1-.5-11-1.4-1.8-1.8-4.9-1.4-7.7.8m65.9 53.8c4.6 4.4 4.9 6.7 1.8 10.8-3.2 4.1-3.7 4.5-9.8 8.5-6.9 4.6-11.9 7.1-13 6.7-.5-.2-.1-2.1.7-4.3s1.5-5.1 1.5-6.5.3-1.9.5-1.3c.3.7 1 1.3 1.7 1.3.8 0 2.5.9 3.9 2 3.3 2.6 3.5 2.5 2.9-.6-.3-1.7-.1-2.5.5-2.1s1.1-.3 1.2-1.6c1.1-18.7 1.4-19.2 8.1-12.9m-33.2 31.1c-1.5.5-2.1-.7-1.3-2.6.7-1.7.8-1.7 1.5.2.4 1.1.3 2.2-.2 2.4m11.2 93.7c0 8.7-.4 13.3-1 12.9-1.8-1.1-1.2-26.5.6-26.5.2 0 .4 6.1.4 13.6"/><path d="M219 197.8c0 2.7 4.1 7.5 9.5 11.2 5.2 3.6 5.5 3.6 5.5.9 0-1.9-.2-2-1.7-.8-1.5 1.3-1.6 1.2-.9-1.1.5-1.4 1-3.9 1.3-5.7.5-3.4 1-3.1-7.4-3.4-1.6 0-3.6-.8-4.5-1.6-1.7-1.5-1.8-1.4-1.8.5m18.2 10.6c-1.3 3.5-1 5.6.8 5.6.4 0 .6-.9.3-2-.4-1.4 0-2 1.1-2 1.9 0 2-1 .3-3.4-1.1-1.5-1.4-1.4-2.5 1.8"/></svg>