<svg xmlns="http://www.w3.org/2000/svg" width="682.667" height="512" version="1.0" viewBox="0 0 512 384"><path d="M0 192v192h216l5.1-10.1 5.1-10.2 1.4-22.1c.7-12.2 1.4-30 1.4-39.6s.5-20.4 1.1-24 1.4-12.1 1.8-19l.8-12.5-6-6c-7-6.9-9.6-12.1-9.7-18.8 0-4.9 2.2-10.6 4.7-12 1.9-1.2.5-2.9-1.8-2.2-1.1.4-2.6.2-3.3-.5-1.2-.9-1.1-1.7.5-5 2-4 3.6-4.9 5.6-2.9 1.4 1.4 5.5-1.1 4.8-3-.3-.7-1.6-5.7-3-11-2.5-10-2.4-18.6.2-18.6.6 0 3.2 1.9 5.8 4.2 2.5 2.4 4.9 4.3 5.4 4.3.4 0 1.3-1.1 1.9-2.5 1.5-3.3 8.1-7.9 13.7-9.5l4.5-1.3V0H0zm262.8-34.2c-1.8 1.6-4.1 3.1-5 3.5-1.7.6-1.8 6.8-1.8 111.7v111h67.7l-4.8-16.3c-2.7-8.9-4.9-17.7-4.9-19.5 0-2.8 1.5-13.8 3.6-26.1l.5-3.3 2.5 2.3c1.4 1.3 3.5 4.1 4.7 6.1 1.1 2.1 2.5 3.8 3.1 3.8s2.1-2.5 3.4-5.4c2.1-4.9 2.2-5.7 1-8.1-.8-1.5-3.2-3.6-5.3-4.8-3.4-1.9-4-2.9-5.1-7.9-.8-3.1-2.8-8.3-4.6-11.5-3-5.3-3.2-6.4-3.3-14.9 0-6.4-.5-9.6-1.5-10.9-1.8-2.2-9.8-5.9-17.1-8-5.6-1.6-5.6-1.6-6.3-6.1-.4-3.4-.2-4.9 1-6.1.8-.8 1.8-1.3 2.1-.9.4.3 1.2-.7 1.9-2.4 1.4-3.1 3.4-4.1 3.4-1.5 0 2.3 3.7 7.8 6.1 9.1 1.9 1 3.2.7 8.8-2.2 3.6-1.9 8.1-4.8 10-6.4 1.8-1.7 3.4-3 3.5-3s1.7.5 3.6 1c17.8 5.3 19.3 5.4 22 1.8.3-.4 3.2.2 6.4 1.4l5.8 2.2-.7 4c-.3 2.3-1.3 8.1-2 13.1-.8 4.9-2.3 14.8-3.4 22-2.9 18-2.9 17.7 2.5 23.5 6.3 6.8 10.4 6.6 20.2-.8l3.2-2.4v-31.4c0-29.9.1-31.4 1.8-31.4 2.6 0 5.5-3.5 4.8-5.7-.3-1-.8-3.3-1-5.2-.2-1.8-1.3-4.5-2.4-6-1.8-2.5-1.9-3.8-1.5-14.4l.5-11.7-2.7-1c-3.4-1.3-11.1-1.3-13.6 0-1.4.8-1.9 2.1-1.9 4.9 0 8.4-.7 9.7-7.6 13.1-5.1 2.5-6.7 2.9-8.4 2-1.1-.6-4.8-1.6-8.2-2.3-5.5-1.1-6.3-1.6-7.2-4.3-1.4-3.8-4.3-7.5-7.8-9.8-2.3-1.5-2.8-2.5-2.8-6.2 0-5.2-1.1-6-5.2-4-1.7.9-3.5 1.3-3.9.9-.3-.5-.3-3.5.1-6.8 1.8-13.3.9-25.7-2.1-28.9-.5-.6-2.9 1.1-6 4.3l-5 5.2-3.6-2.7c-5.3-4-9.8-5.3-18.7-5.4-5.3 0-8.5-.5-9.5-1.4-3.3-2.9-5.8-2.8-9.3.2m64.7 54.7 3 2.5-3-.6c-4.9-.9-5.5-1.3-5.5-2.9 0-2.2 2.1-1.8 5.5 1m-16 26.5c-.3.5-1.1 1-1.6 1-.6 0-.7-.5-.4-1 .3-.6 1.1-1 1.6-1 .6 0 .7.4.4 1"/><path d="M225 224.5c-.7.8-1.7 1.2-2.2.9-2.2-1.4 1.3 3.5 4.7 6.5 5.3 4.6 5.4 4.6 7-5.2.6-3.9-.4-4.7-3.4-2.8-.9.6-2.2.6-3.2.1-1.2-.7-2.1-.5-2.9.5m9 11.5c0 .5.5 1 1 1 .6 0 1-.5 1-1 0-.6-.4-1-1-1-.5 0-1 .4-1 1"/></svg>