<svg xmlns="http://www.w3.org/2000/svg" width="682.667" height="512" version="1.0" viewBox="0 0 512 384"><path d="M0 192v192h230.3l-.6-12.7c-.4-7.1-1.8-19.2-3.2-27.1-2.8-16.1-3.2-30.2-1.1-44.7 1.1-7.5 1.1-9.4 0-11.5-.7-1.4-2.8-6.3-4.5-11-2.6-6.9-3.2-10-3.2-16.3 0-7.5-.1-7.8-2.6-8.4-1.4-.4-3.1-.6-3.7-.5-1.4.3-1.7-11-.3-11.9.6-.3-.9-1.1-3.3-1.7-4.3-1.1-4.3-1.2-4.5-5.8-.3-6.2.8-7.4 6.6-7.3 6 .2 12.5-2.5 11.6-4.9-1.6-4.1-3.7-16.2-3.9-22.3-.2-10.5 2.8-12.3 11.6-6.9l4.9 3 3.7-2.9c2-1.6 5.7-3.5 8.2-4.2 2.7-.7 5.6-2.4 7.3-4.2l2.7-3.1V384h68.1l-2.5-4.3c-2.2-3.7-2.6-5.9-3.3-19-.4-8.1-.6-14.7-.3-14.7 1.1 0 5.5 3.3 9.3 6.9 4.5 4.2 5.1 3.7 6.1-5 .9-7.9-.2-9.9-5.7-9.9-5.2 0-6.4-.7-7.3-4.5-.6-2.8-4.3-8.8-6.8-11-.6-.6-2.3-2.4-3.7-4.2-2.5-3-2.6-3.5-2.1-12.5.4-8.3.2-9.6-1.6-11.8l-2-2.5 7.2-7.6c15.9-16.8 19.1-33.7 8-42-2.4-1.8-4.6-4.1-5-5.1-.3-1-1.4-2.3-2.5-2.9-2.7-1.4-2.1-5 1.1-6.6 3-1.5 5-4.1 5-6.4 0-1.3-.7-1.6-3.5-1.2-5.7.8-6.5-.6-5-8.2.6-3.6 1.4-6.7 1.6-6.9.3-.3 3.8-.8 7.9-1.2l7.6-.6 8.4 9.3c4.7 5.1 10.3 11 12.5 13.2 4 3.9 4.1 3.9 10.3 3.4 11.4-.9 12.1-3.2 5-18.3-.8-1.7-.5-2.6 1.6-4.9 3.1-3.4 4.4-9.1 2.5-11-.8-.8-7.1-3.4-14-5.8-10.6-3.7-13.4-5.2-16.8-8.6-2.2-2.2-4.8-4.1-5.7-4.1s-3.8-1.3-6.5-3c-4.1-2.5-5.7-2.9-10.4-2.6-4.7.2-6.8 1-12.1 4.5-3.8 2.5-6.3 4.8-6 5.6.3.9-1.1 1.4-4.7 1.8-2.8.4-5.5 1.1-6.1 1.7-2.1 2.1-5.1.8-11.2-5-7.3-7-10-7.6-14.5-3.1l-2.9 2.9V0H0zm307 34.6c0 .8-.5 1.2-1 .9-.6-.4-.8-1.1-.5-1.6.9-1.4 1.5-1.1 1.5.7m8.6 23.6c4.3 3.4 5.3 5 5.4 8.7 0 5.7-13.2 21.1-18.3 21.1-4.8 0-6.4-5.2-3.6-11.7 1.6-3.9 2.1-4.3 3.5-3.2 1.3 1 1.6.9 2.1-.9.6-2.3 1.8-2.8 2.8-1.2 1.1 1.7 2.7 1.1 2-.9-.7-2.2.4-5.3 1.6-4.6.9.6.5-4-.6-7.5-.9-2.7 1.4-2.6 5.1.2M295 272.6c0 .8-.5 1.2-1 .9-.6-.4-.8-1.1-.5-1.6.9-1.4 1.5-1.1 1.5.7m-6.9 9.7c3.5 3.8 3.6 4.7.5 4.7-3.7 0-8.6-1.2-8.6-2.1 0-1.7 4.4-8.2 4.8-7 .2.6 1.7 2.6 3.3 4.4"/></svg>