<svg xmlns="http://www.w3.org/2000/svg" width="682.667" height="512" version="1.0" viewBox="0 0 512 384"><path d="M302 30c-4.1 1.4-8.1 2.9-8.9 3.4-4 2.5-5.4 16.4-2.5 24.1 3.1 8 3.2 7.8-4.2 12.1-9.6 5.5-23 19-28.1 28.2-4 7.2-4.9 10.7-7.3 26.2-.6 4.1-2 9-3.1 10.9-2.4 4-2 4.8.9 2.1l2.2-2.1v2.1c0 1.2.4 1.9.9 1.6 1.3-.8 2.1 3 2.1 9.7 0 3.6.4 5.6 1 5.2.6-.3 1-1.6 1.1-2.8 0-1.7.5-1.2 1.9 1.8 1.7 3.6 1.9 3.7 2 1.5.2-2.3.3-2.2 1.2.7 1 3 3.8 4.7 3.8 2.4 0-.5 1-.1 2.3 1 6.1 5.2 8.1 6.8 8.5 6.5.2-.2-.4-2.1-1.2-4.2l-1.6-3.9 1.9 2.5c1.1 1.4 2.5 2.5 3.2 2.5s1.6 1.3 2 2.9c.8 2.9-1 8.3-4.2 12.7-1.8 2.4-.4 4.7 4 6.5 2.8 1.1 4.1 2.3 4.6 4.2.3 1.5 3.1 5 6.2 7.8l5.6 5.1-1 8.9c-.8 7.2-.7 9.1.4 9.7 1.5.9 1.7 4.5.4 8-.9 2.3-.7 2.5 1.3 2.3 2.1-.3 2.4.3 3.5 5.9.6 3.4 1.1 7.6 1.1 9.2 0 2.5-5.6 17.3-7.2 18.8-.3.3-2.2-.2-4.3-1.1-4.5-1.8-9.8-1.3-12.6 1.2-1.6 1.4-1.9 3.2-1.9 10.7v9l-7.9 8-7.9 8.1-5.8-2.7c-7.2-3.2-45.2-14.7-48.7-14.7-1.8 0-3.2-1.1-5.2-4.1-2.2-3.5-2.8-5.5-3-11.8-.4-9.8-2.7-17.1-6.8-21.5-4.1-4.3-8.4-5.2-18-3.9-4 .6-7.5.8-7.9.6-.5-.2-.8-2.2-.8-4.4 0-2.8-.4-3.9-1.2-3.6-.9.3-1.2 2-1 5l.3 4.5-5.8 2.1c-3.2 1.1-7.8 3.2-10.3 4.5-4.3 2.3-4.6 2.9-6.8 10.3-2.1 6.8-2.2 8.4-1.2 12.8.6 2.7 1.2 6.8 1.4 9s.9 5.3 1.5 6.9c1.9 4.8 11.3 15.7 15.3 17.7 4.2 2.1 18.8 5.9 23 5.9 1.5 0 2.9.3 3.1.7.3.5-.5 5.7-1.8 11.8-1.2 6-2.6 15.7-3 21.5-.4 6.1-1.5 12.4-2.6 15.2-1.8 4.6-4.2 13.4-5.3 19.5l-.5 3.3h116.6l1.1-5.2 1.1-5.3-.4 5.2-.4 5.3H356c45.3 0 69-.3 69-1 0-.5-3-7-6.6-14.2-6.5-13.2-6.5-13.3-6.2-20.6.4-8.2.8-8.7 7.7-9.6 6.1-.9 14.6-4.7 12.9-5.8-1-.6-.5-1.6 2-3.7 1.7-1.5 3.2-3 3.2-3.3s-2-.8-4.5-1.1c-3.8-.6-6.2 0-14.5 3.2-5.5 2.1-10.2 3.6-10.4 3.2-.2-.3-.6-2.4-1-4.6-.3-2.2-1.3-7.2-2.1-11-.8-3.9-2.1-10.4-2.9-14.5-.9-4.1-2.7-12.7-4.1-19.1-2.5-11.8-3.3-18.5-1.5-14.4.4 1.1 1.4 3.4 2 5.2 1.3 3.4 4.5 5.2 6.2 3.5.7-.7-.4-3.2-3.1-7.7-6.3-10.6-7.3-18.7-3.9-33.8l1.3-5.9 3.3 10.2c1.9 5.6 3.6 9.9 3.9 9.7.2-.3 0-3.1-.6-6.3-1.4-7.3-1.3-9.7.1-6.7.6 1.3 1.4 2.3 1.8 2.3.3 0 2.4 4.3 4.5 9.5s4.2 9.5 4.8 9.5c.5 0 .6-.8.2-1.8-.3-.9-.9-4-1.2-6.7l-.5-5 2.9 4.5c3.4 5.1 7.1 8.8 6 5.8-1.2-3.4-2.1-43.9-.9-44.7.7-.4.8-2.9.2-8.1-.5-4.1-1.1-15.5-1.4-25.2-1.1-33.1-7.6-64.5-16.6-80.3-1.8-3.2-3.2-7.5-3.8-12.2-.6-4-2.1-9.3-3.3-11.8-2.9-5.8-11.4-16.2-16.5-20.1-8.1-6.3-18.4-8.1-28-4.8-4.2 1.4-4.9 1.4-8.5 0-2.2-.9-4.8-1.6-5.9-1.6-1 0-4.3-2-7.3-4.4-7.8-6.3-12.8-9.4-18.3-11.4-4.9-1.8-5-1.7-12.4.8m22.4 177.4 2.9 5.8-4.4 3.8-4.4 3.8-.3-6.7c-.4-8 .5-13.4 2.1-12.9.7.2 2.5 3 4.1 6.2m-35.7 163.8c-.3.7-.5.2-.5-1.2s.2-1.9.5-1.3c.2.7.2 1.9 0 2.5"/></svg>