<svg xmlns="http://www.w3.org/2000/svg" width="682.667" height="512" version="1.0" viewBox="0 0 512 384"><path d="M0 192v192h227.2l-.7-3.2c-.4-1.8-2.5-8.9-4.7-15.6-3.9-12.1-4-12.9-4.7-31.7-.8-17.8-1-19.6-3.4-24.6-3.2-6.5-6.2-24.4-5.1-29.8.4-2 .6-4.1.5-4.8-.1-.6.3-1.4.9-1.8s-1.1-1.8-3.7-3.1-6.1-3.6-7.7-5c-2.7-2.4-2.9-2.8-1.8-5.7 1.1-3 1-3.4-2.3-6.4-3.9-3.6-4.2-4.5-2-6.3 1-.8 1.5-3 1.5-6.4 0-6.6 2-9.6 6.3-9.6 5.8-.1 7.2-2.1 6.9-10.3-.2-6 .1-7.9 2-11.2 2.7-4.7 5.7-5.4 14.8-3.6 4.9 1 6 .9 9.5-.9 2.2-1.1 4.4-2 5-2 2.1 0 3.4-4.4 4.5-14.2.5-5.4 1-10.4 1-11.3s1.3-2.1 2.9-2.6c2.5-.9 3.2-2.2 5.7-9.7l2.9-8.7.3 114.2.2 114.3h67.1l-1.6-3c-.9-1.7-2.5-7-3.5-11.8-1.1-4.8-2.2-9.7-2.6-11-.3-1.2-.4-2.2-.1-2.2 1.2 0 8.5 3.4 10.9 5.1 4.5 3.2 5.1 2.6 4.6-4.4-.5-5.9-3.3-13.7-4.9-13.7-.4 0-1.8.4-3.1.9-6.5 2.3-7.6 2.3-8.3-.7-.7-3.3-4.7-7.4-11.9-12.2l-4.8-3.3.7-5.1c.3-2.8 1.2-5.8 1.8-6.6 4.6-5.6 10.7-22.7 10.7-29.7-.1-7-3.8-12.6-10.8-16.2-2.8-1.4-4.2-2.8-4.2-4.1 0-2.5 4.1-12 5.2-12 .4 0 1.2-.9 1.9-2.1.9-1.8.7-2.5-1.7-5l-2.7-2.9 2.6-3.7 2.6-3.7-3.4-4.8c-3.3-4.5-3.5-5.3-3.5-12.6 0-9.9-1.3-12.6-6.4-13-2.1-.2-5.8.4-8.4 1.2-2.5.9-4.9 1.3-5.2.9-3.4-4.1-8-10.1-8-10.5 0-.3 1.1-.9 2.4-1.2s3.5-2.1 4.9-4c2.4-3 2.7-4.6 3.2-14.7l.6-11.4 3.6-3.1c3.5-3.1 3.5-3.1 3.1-10.2-.3-5.8-.8-7.6-2.8-9.7l-2.4-2.5 3.2.6c4 .8 4.3-1.2.7-4.6-2.9-2.7-3.2-7.4-1.4-24.5.6-5.5 1.2-14.5 1.5-20 .2-5.5.8-12 1.3-14.5 1.7-8.3.8-15.9-2.1-19.5-.4-.5-.8-2-.8-3.3 0-1.5-.4-2.1-1.1-1.6-.7.4-1 .1-.7-.7.2-.7.1-1.8-.4-2.4-.5-.5-2.2-3.2-3.9-5.8-4.2-6.9-5.7-6.1-9.3 4.3-3.6 10.6-4.5 22.9-4.5 62.6-.1 25.9-.3 28.3-2 30.5-1 1.3-2.8 4.2-3.9 6.4l-2.1 4-.1-76.3V0H0zm303.1 90.1c3.8 4.1 3.8 8.2-.2 16.2-4.5 9.1-5.2 9.7-8.4 5.9-1.9-2.3-4-3.4-8.3-4.3-3.1-.7-6.1-1.6-6.6-2-.4-.4-.5-2.2-.1-4l.7-3.3 1.9 2.2c1.7 2.1 1.8 2.2 2.7.5.5-1 1.2-3.1 1.6-4.8l.8-3 1.8 2.5 1.8 2.4 1.3-4.2c1.2-4.1 1.3-4.2 3.2-2.5 1.9 1.8 1.9 1.7 1.2-1.5-.6-2.8-.4-3.2 1.5-3.2 1.2 0 3.5 1.4 5.1 3.1"/></svg>