<svg xmlns="http://www.w3.org/2000/svg" width="682.667" height="512" version="1.0" viewBox="0 0 512 384"><path d="M0 192v192h219.1l-.7-2.3c-1.6-5-2.4-9.5-2.4-14.2 0-6.4-.9-9.5-2.6-9.5-2.4 0-11.9-10.6-14.9-16.6-4.2-8.2-4.2-17.6-.3-25.3 2-3.7 2.5-5.8 1.9-6.9-.9-1.8-1.4-5.2-1.2-8.8.1-1.2 1.3-3.8 2.7-5.9l2.5-3.8-2.5-2.6c-1.4-1.5-2.6-3.8-2.6-5.2s-.7-4.9-1.6-7.8c-.8-2.9-1.3-5.9-1-6.7s0-3.5-.6-5.9c-1.1-4.2-1.1-4.5 1.5-6.5 2.6-2.1 5-8.3 6.2-16.4.7-4.5 4.7-8.6 8.4-8.6 5.8 0 5.8-.1 6.5-26.9.4-16.9.7-18 4.8-19.3.5-.2 1.6-4.4 2.3-9.3 1.5-10 4-18.1 6.3-20.7 1.3-1.6.5-6.7-8.3-51-9.3-46.6-9.7-49.6-9.1-57.7.3-4.7 1.2-11.1 1.9-14.1 1.6-7.2 4.2-7.9 9.3-2.5 7.4 7.9 7.7 9.1 14.4 59.1 7.6 57.7 6.5 52.2 10.6 53.9 3.5 1.4 4.5 4.2 1.9 5-5.1 1.6-5.1 1.7-2.9 2.5 1.2.5 2.9 1.9 3.8 3.2 1.5 2.1 1.6-3.8 1.6-75.5V0H0zm255-27.3c0 3.5.3 4.4 1 3.3 1.3-2 1.3-6.7 0-7.5-.6-.4-1 1.2-1 4.2m-1.6 10.7c-.8 1.7-.8 4 .2 8.7l1.2 6.4.1-8.8c.1-4.8 0-8.7-.1-8.7-.2 0-.8 1.1-1.4 2.4m1.9 27.1c0 2.2.2 3 .4 1.7.2-1.2.2-3 0-4-.3-.9-.5.1-.4 2.3"/><path d="M251.6 209.1c-1 .6-3.3.9-5.2.6-3.4-.6-3.4-.5-3.4 3.3 0 3.7.2 3.9 2.3 3.1 1.3-.5 3.6-.4 5.7.3l3.5 1.1.3 83.3.2 83.2h60.2l-.6-2.4c-.3-1.3-.9-3.2-1.3-4.2-.5-1.3 1.3-.7 7.1 2.4 4.3 2.3 8.2 4 8.7 3.6 1.4-.9 1.1-4.5-1.2-11.1-2.6-7.9-3.6-8.7-8.6-7.4-5.5 1.5-7.3 1.4-7.3-.7 0-3-3-6.2-10.1-10.8-4.3-2.7-6.9-5.1-6.9-6.1s1.1-4.1 2.4-7c3.2-6.7 4.9-15.4 4.1-20.3-.4-2.1-1.9-5.8-3.4-8.2-2.7-4.3-6.1-12-6.1-13.8 0-.6.9-1 2-1 2.6 0 2.5-.8-.4-3.9l-2.4-2.6 2.4-5.9c2.7-6.8 5.2-9.9 7.1-9.2 1.8.7 1.6-.7-.9-5.9-1.8-3.7-2-4.8-.9-5.4 1-.6.6-2.3-1.9-7.7-1.8-3.8-3.8-7.2-4.6-7.7-.7-.4-1.6-2.8-2-5.3-.7-4.6-4.5-10.4-6.8-10.4-.7 0-3-1.3-5.2-2.8-5.3-3.8-8.5-5-10.9-4.2-1.5.5-3.3-.4-7.2-3.8-5-4.3-5.3-4.8-5.3-9.4 0-5-.3-5.4-3.4-3.7m37.6 103.4c1.9-.8 8.8 6.9 8.8 9.8 0 2.7-2.2 9.7-3 9.7-.4 0-1.5-1.8-2.5-3.9-1.8-4.2-5.3-6.2-12.7-7.6-2.9-.5-3.5-1-3.1-2.6.6-2.2 1.4-2.4 3-.8 1.7 1.7 3.1.3 3.8-4.3.7-4.1.7-4.1 2.4-1.9 1 1.3 2.3 2 3.3 1.6m-87.6 7.6c-.8 1.3-1.8 4.3-2.2 6.6-.5 3.4-.1 5 2.2 9.3 1.6 2.9 4.7 6.7 6.9 8.5 7.1 5.7 6.9 5.9 6.1-4-.7-9.7-2.7-14.5-8.4-19.9l-3-2.8z"/></svg>