<svg xmlns="http://www.w3.org/2000/svg" width="682.667" height="512" version="1.0" viewBox="0 0 512 384"><path d="M0 192v192h216.9l-.6-7.3c-.8-11.5-1.4-13-5.3-14-2.2-.5-5.7-3.2-9.7-7.2-5.3-5.5-6.5-7.5-8.4-13.5-1.8-6.1-2-7.6-.9-11.9.6-2.8 2.4-7 4-9.4 2.5-4 2.7-5.1 2.3-10.8s-.2-6.8 2.1-10.2l2.6-3.8-2.4-2.4c-1.8-1.8-2.7-4.3-3.5-9.7-.6-4-1.1-8.7-1-10.3.1-1.7-.2-4.6-.6-6.7-.6-3.2-.4-3.9 2-6 3.3-2.8 4.4-5.5 5.5-13.2 1-6.6 3.1-9.4 8.3-11.2l3.2-1.1.6-8.9c.4-4.9.7-14.9.8-22.1.1-13.2.1-13.3 2.6-13.9 2.6-.6 2.5-.5 4.5-13.9.6-3.9 2.4-9.8 4-13.2l2.9-6.3-9.9-43.2c-5.5-23.8-10.9-46.7-11.9-50.9-1.9-7.2-1.9-8.2-.5-18 2-14.8 2.6-16.3 5.6-16.7 1.9-.2 3.3.7 6 4 6.2 7.7 8.4 12.7 10.2 23.3 1.9 12 7.8 49 11.1 70.5 3.1 19.3 3.2 20 4.9 20 .8 0 2.4.8 3.7 1.9 2 1.6 2.1 2.1 1 3.5-.8.9-2 1.5-2.9 1.4-.8-.2-1.7.3-1.9.9-.3.7.2 1.3 1 1.3 2.1 0 5.7 4.8 5.7 7.6 0 1.2.5 2.6 1.1 3 1.4.8.4 9.7-1.6 13.6-1.1 2.3-1 4.2 1 14l2.3 11.3.1-102.3L255 0H0z"/><path d="M252.7 211.5c-2.4 3.3-8.9 3.5-11 .5-1.3-1.9-1.5-1.4-2.1 5.1-.3 4-.4 7.4-.2 7.7.3.2 1.7-.5 3.2-1.7 2.9-2.3 7.4-2.7 10.5-1.1 1.8 1 1.9.7 1.9-6 0-3.8-.1-7-.2-7-.2 0-1.1 1.2-2.1 2.5M255 304v80h29.1c21.7 0 28.8-.3 28.3-1.2-.5-.8 0-.9 1.7-.3 1.3.4 5.3 1 8.7 1.2l6.4.5-.7-3.4c-.4-1.8-1.7-5-2.8-7.1-1.7-3-2.6-3.7-4.2-3.2-1.1.3-3.7.9-5.7 1.2-3.4.5-3.8.3-3.8-1.6 0-2.7-4.1-7.2-11-11.9-6.6-4.5-7-6.2-4.1-15.7 3.7-12 2.4-20.8-4.4-28.1-3.5-3.7-3.2-7.7.3-4.2 1.6 1.6 1.5 0-.2-5l-1.5-4.1 2.7-.3 2.7-.3-2.7-2.5-2.8-2.5 2.4-5.2c2.9-6.1 6-9.5 8.1-8.7 1.9.8 1.9.5-.5-5.7-1.5-3.8-1.8-5.4-1-5.9s.4-2.4-1.4-6.4c-1.4-3.1-2.6-6-2.6-6.5 0-.4-1.1-1.8-2.5-3.1-1.5-1.4-2.7-3.9-3.1-6.8-.7-4.5-4.2-9.2-6.9-9.2-.6 0-2.7-1.2-4.6-2.6-4.3-3.2-9.4-5.4-12.8-5.4-1.4-.1-4.2-1.4-6.1-3-1.9-1.7-3.8-3-4.2-3s-.8 36-.8 80m38.4 21.5c1 2 1.6 5.2 1.4 7.3l-.3 3.7-2.1-3.6c-2.1-3.6-6.2-5.8-13.6-7.3-2.9-.7-3.4-2-1.9-4.5.8-1.2 1.2-1.2 2.6.2 2.1 2.2 3.1 1.6 3.9-2.4l.6-3.1 3.9 3.1c2.1 1.7 4.6 4.7 5.5 6.6m-93.6-1.8c-6.5 7.5-4.7 18 4.1 25.1 5.7 4.6 7.4 5.2 9.5 3.7 1.5-1.2 1.7-2.2 1.1-8.2-.9-7.9-2-10.4-7.6-17-5-5.8-5.1-5.8-7.1-3.6"/></svg>