<svg xmlns="http://www.w3.org/2000/svg" width="682.667" height="512" version="1.0" viewBox="0 0 512 384"><path d="M0 192v192h188.8l.4-4.3c.4-3.4.1-4.7-1.8-6.7-3.3-3.7-5.4-9.6-5.4-15.5 0-6.6 1.5-11 5.2-15.8 2.9-3.7 3-4 1.9-8.4-1.5-5.7-.7-9.4 2.5-12.4l2.4-2.3-2.9-3c-3-3.2-4.2-7-4.4-14.2-.1-2.2-1.1-5.7-2.2-7.7-1.9-3.6-1.9-3.6.2-5.9 1.1-1.3 2.3-4.2 2.6-6.6.6-5.1 3.1-8.2 6.1-7.9 1.9.2 2.1-.4 2.6-5.9.5-6.6 2.4-9.8 6.4-10.8 3-.7 3.6-4.1 3.6-22.1 0-19.1.7-24.5 3.2-24.5 2.2 0 2.3-.1 4.7-11.7 1.9-8.9 4.8-16 7.8-19.4 1.2-1.5.5-7.8-5.7-51.5-7.8-54-7.9-55.2-3.9-69.4 2.4-8.9 3.5-10.6 5.6-8.8 1.9 1.6 8.5 11.5 10.1 15.1.7 1.6 2.3 16.4 3.7 33s3.2 38.2 4 48c.8 9.9 1.5 18.6 1.5 19.6 0 .9 1.3 2.2 3 2.8 5.1 1.9 5 6.9-.1 5.6-1.3-.4-1.9 0-1.9 1.1 0 .9.4 1.6 1 1.6 1.9 0 5 4.4 5 7.1 0 1.5.5 3.1 1.1 3.5 1.4.8.4 6.7-2.2 12.1-1.9 4-1.9 4.7-.6 17.5.7 7.3 1.2 13.8 1 14.4-.7 2-6.2 4.4-9.5 4.2l-3.3-.3-.3 6.8-.3 6.9 3.6-3.5c4.1-4 8.4-5.4 11.4-3.8 1.1.6 2.2 1.1 2.5 1.1s.6-54.5.6-121V0H0z"/><path d="M248 313.5V384h47.5l-4.3-3.9-4.2-3.9v-8c0-4.5-.6-10.1-1.4-12.4-.8-2.4-1.7-5.7-2.1-7.4-.3-1.8-1.9-5.3-3.6-7.8-3-4.8-4.1-8.8-1.3-4.8 2.2 3.2 3.1 2.7 3.9-2.4.6-4.4.7-4.5 2.6-2.8 1.6 1.5 1.9 1.5 1.9.2 0-.9-.7-3.2-1.5-5.2-1.5-3.4-1.4-3.6.5-3.6 2.5 0 2.5-.8-.1-3.6l-2-2.2 3-6.1c1.7-3.3 4.1-6.6 5.3-7.2 1.3-.6 2.4-1.3 2.6-1.4.1-.1-.7-2.4-1.9-5-2-4.6-2.1-4.9-.4-6.1 1.7-1.3 1.6-1.7-1-7.6-1.5-3.5-3.6-7-4.7-7.9-1.3-1-2.4-3.5-2.9-6.9-1.2-7.5-3.8-9.8-12.3-11.1-3.7-.5-7.1-.7-7.6-.4s-3.5-2.2-6.7-5.6C247 240 248 233.1 248 313.5m25.7 29c2.5 1.2 6 6.1 5.1 7-.2.2-2.7-.2-5.6-.7-4.3-.9-5.2-1.4-4.6-2.7.3-.9.9-2.4 1.1-3.4.6-2.1.3-2 4-.2m-83.4 3.8c-3.3 3.6-4.3 6.3-4.3 11.4 0 3.2.7 5.6 2 7.3 1.1 1.4 2 2.3 2 2s.7-5.5 1.4-11.5c.8-6.1 1.3-11.1 1.2-11.2-.1-.2-1.2.7-2.3 2m3.8 6.5c-1 16.2-.9 17.1 2.6 19.3l3.1 2-.5-11.8c-.4-8.5-1.1-12.4-2.2-14-.9-1.2-1.8-2.3-2.1-2.3s-.7 3-.9 6.8m8 10.1c.2 10.4.7 13.4 2 12.5 1.5-.9 1-16.6-.6-19.4-1.4-2.3-1.5-1.8-1.4 6.9m-10.4 17.8c-.5 2.8.7 3.6 5.3 3.1l3.3-.3-4.1-2.6-4-2.7z"/></svg>