<svg xmlns="http://www.w3.org/2000/svg" width="682.667" height="512" version="1.0" viewBox="0 0 512 384"><path d="M0 192v192h183l.6-2.8c.3-1.5.9-3.9 1.4-5.4.6-1.8.5-3-.4-3.7-2.2-1.8-6.4-10.5-6.6-13.6-.6-9.3 0-13.3 2.9-17.5 2.3-3.5 2.7-4.8 2-6.7-2-5.4-.7-11.2 3.5-14.5l2.1-1.7-3.3-3.2c-1.7-1.7-3.2-4-3.2-5.1s-.7-3.2-1.6-4.8c-1.5-2.5-1.6-2.9-.1-5s1.4-2.5-1-5.7l-2.6-3.4 2-3.7c1.1-2 2.3-5.2 2.7-7.1.8-4.6 2.3-6.1 5.7-6.1h2.9v-6.6c0-5.9.3-6.8 2.9-9.5 1.6-1.6 3.8-2.9 4.9-2.9 2.4 0 2.8-3.1 3.8-27.2.6-16.2.7-16.7 2.9-17.2 1.9-.5 2.6-2 4.4-8.8 2.4-9 6.5-18.8 9.2-21.7 1.5-1.6 1.6-2.9.9-9.7-.5-4.4-1.8-16.7-3-27.4-1.1-10.7-3-28.3-4.1-39-1.2-11.1-1.9-22.3-1.6-26 .6-7.6 5.5-23 7.4-23.7 2.8-1.1 11.1 10 12.6 16.7.3 1.4 1.3 21.2 2.2 44 1.8 47.8 2.2 54 3.8 54 .6 0 1.9.7 2.9 1.7 1.7 1.6 1.8-1.1 1.8-84.5V0H0z"/><path d="M235 176c0 .6.7 1.3 1.6 1.7.9.3 2.2 2 3 3.7l1.3 3.1.1-4.8c0-4.6-.1-4.7-3-4.7-1.6 0-3 .5-3 1m6.2 15c0 1.9.2 2.7.5 1.7.2-.9.2-2.5 0-3.5-.3-.9-.5-.1-.5 1.8m-2.6 10.4c-1.6 3-1.7 4.8-1.1 14.2.4 6 .9 11.7 1.1 12.8.8 4.4-5 8.4-10.6 7.2l-3-.6v11.2l3.5-3.1c3.8-3.3 7.5-4.7 10-3.7 1.3.5 1.5 9.4 1.5 72.6v72h46.1l-3.1-3.9-3.1-3.8 1.1-10.8c.6-6 1.3-11.2 1.6-11.7.9-1.4-2.5-12.9-4.7-15.9-1.5-2.2-1.9-3.7-1.4-6 .6-2.8.8-2.9 2.4-1.5 2.8 2.5 3.1 1.9 1.6-2.5-1.9-5.4-1.9-5.9.5-5.9 2.6 0 2.5-.6-.6-3.4l-2.6-2.2 2.2-4.5c4-7.7 6-10 8.2-9.3 1.1.3 1.8.2 1.6-.2-5.1-10.5-5.4-12.4-2.2-12.4.8 0 1.4-.2 1.4-.4 0-1.6-6.3-13.4-7.8-14.7-1.3-1.1-2.1-3.5-2.6-7.7-1-8.9-2.8-10.6-11.3-11-3.7-.2-7.6-.4-8.6-.5s-5.4-3.7-9.9-8.2l-8.1-8 .2-20.8c.2-11.4.1-20.7-.1-20.7s-1.2 1.5-2.2 3.4m37.7 142.9c.9 1.8 1.9 5 2.3 7.2.7 3.9.6 3.9-1.2 2.4-2.2-1.9-7.8-3.9-10.8-3.9-4.1 0-4.9-1.3-3.5-5.9s2.6-5.2 3.8-1.9c.8 2.3.9 2.2 2.7-.9 1.7-2.9 2-3.1 3.6-1.7.9.9 2.3 3 3.1 4.7m-91-.1c-2.2 2.8-4.3 7.8-4.3 10.5 0 3 3 9.5 4.7 10 .6.2 1.5-3.5 2.2-8.6 1.1-7.7 1-9.3-.2-11.1-1.1-1.6-1.6-1.8-2.4-.8m4.7 14.1c-.9 6.2-1 9.1-.3 9.8.8.8 1.3-1 1.8-6.3 1.1-11.2.1-13.5-1.5-3.5m3.8 3.4c-.3 7.9.3 11.5 1.7 10.2.2-.3 1-4 1.6-8.2.9-6 .9-8-.1-9.2-2.3-2.8-2.9-1.5-3.2 7.2m-7.2 16.4c-1 5-.7 5.9 1.4 5.9 1.6 0 2-.7 2-3.4 0-1.8-.6-3.9-1.4-4.5-1.1-.9-1.5-.5-2 2m6.4 3.9c0 1.1.7 2 1.5 2s1.5-.6 1.5-1.4-.7-1.6-1.5-2c-1-.4-1.5.1-1.5 1.4"/></svg>