<svg xmlns="http://www.w3.org/2000/svg" width="682.667" height="512" version="1.0" viewBox="0 0 512 384"><path d="M0 192v192h182.9l1.1-5.5c1.2-5.8 1.1-6-3.1-11.5-6.1-8-6.5-20.1-.8-28.1 1.5-2.2 1.7-3.8 1.2-9.2-.6-6.5-.5-6.7 2.5-9.5l3.1-2.9-2.9-2.9c-1.6-1.6-3-3.7-3-4.6 0-1-.7-3.3-1.6-5.2-1.5-3.1-1.5-3.6-.1-5.6 1.5-2.1 1.4-2.5-.9-5.5-2.9-3.8-2.9-4.3-.4-7.5 1.1-1.4 2-3.7 2-5.2s.5-3.9 1.2-5.3c1-2.2 1.7-2.6 3.9-2.1 3.8.7 4.8-.9 4.2-6.8-.7-6.8 1.3-10.9 5.9-12.2 3.1-.9 3.3-1.3 4-6.4.4-3 .9-12.7 1.2-21.5.4-15.9.4-15.9 2.9-16.8 2.1-.7 2.9-2.3 5.2-10.5 3-10.5 4.5-14 8.1-18.8l2.3-3.1-4.1-40.4c-2.3-22.3-4.2-46-4.2-52.9-.1-11.3.2-13.3 2.8-20.5 1.5-4.4 3.2-8.4 3.7-8.9 3-3.2 12.4 10 13.4 18.8.4 4 3.5 85 3.5 92.5 0 1 1.1 2.3 2.5 2.9l2.5 1.2v-42.9c0-23.5.3-61.7.7-84.9l.6-42.2H0z"/><path d="M238.7 172.9c-.3 1.4-1.1 1.8-2.6 1.4s-2.1-.1-2.1 1.1c0 .9.7 1.6 1.5 1.6.7 0 1.8.7 2.3 1.6.7 1.2 1 .6 1.5-2.7.6-4.6.3-6.3-.6-3m.4 17.1c-.1 4.5.2 6 .9 5 1.2-1.8 1.2-6.8 0-9.5-.6-1.4-.9 0-.9 4.5m-1.9 11c-1 1.6-1.1 5.4-.6 15.9l.7 13.7-2.9 2.3c-2.2 1.8-3.8 2.2-6.6 1.8l-3.8-.5v4.3c0 2.4-.3 5.2-.7 6.2s1.4 0 4.1-2.5c3.8-3.5 5.3-4.3 7.9-4l3.2.3-.4 72.7-.4 72.8h48.5l-3.1-3.2c-1.8-1.8-3.5-4.4-3.8-5.8-.4-1.4.1-7.5.9-13.6 1.9-12.5 1.3-17.1-2.8-24.1-1.7-3-2.3-5-1.8-6.8.6-2.5.7-2.5 2.7-.8 2.2 2 2.2 2.5.1-6.2-.5-2.1-.3-2.5 1.7-2.5 2.3 0 2.3 0-.5-2.9l-2.9-3 3.5-6.3c2.4-4.3 4.2-6.4 5.6-6.6 2.7-.4 2.7-.9.2-6.3-2.5-5.6-2.5-6.9 0-6.9 1.1 0 2-.2 2-.4 0-1.7-6.3-13.5-7.9-14.8s-2.1-2.9-2.1-6.3c0-5.1-2.1-9.9-4.8-11.4-1-.5-5.1-1-9.2-1.2l-7.5-.2-8.5-8.1-8.5-8.1-.5-19.8c-.4-16.7-.7-19.4-1.8-17.7m38.9 143.2c1 2.1 1.9 5.1 1.9 6.7v3.1l-3.2-2c-1.8-1.1-5.3-2.2-7.8-2.6-7-1-7.2-1.3-4.9-6.4 1.8-4.1 2.2-4.3 3.3-2.8 1.8 2.4 2.5 2.3 3.7-.8.9-2.6 1-2.6 3-.8 1.2 1.1 3 3.6 4 5.6m-94.2 2c-2.6 5.1-2.2 11.2 1.1 15.9 2.2 3 2.4 3.1 3.1 1.2 1.7-4.5 2.2-16.4.9-18.9-1.8-3.3-2.6-3-5.1 1.8m8.3 5.8c0 1.9.2 2.7.5 1.7.2-.9.2-2.5 0-3.5-.3-.9-.5-.1-.5 1.8m2.5 8.2c-.3 5.1-.1 9.7.4 10.2 1.1 1.2 1.5-.1 2.6-9.2.7-6.2.6-7.5-.8-8.8-1.5-1.3-1.7-.7-2.2 7.8m-3.1-3c-1 3.1-1.3 9.8-.6 10.3.5.3 1-2.2 1.2-5.5.3-5.9.1-7.2-.6-4.8m-3 20.9c-.9 4.7-.8 5.9.8 5.9 1.9 0 2.8-6.1 1.1-7.8-1-1.1-1.3-.8-1.9 1.9m5.1 1.6c-1.3 1.2-.7 4.3.8 4.3.9 0 1.5-.9 1.5-2.5 0-2.4-1-3.2-2.3-1.8"/></svg>