<svg xmlns="http://www.w3.org/2000/svg" width="682.667" height="512" version="1.0" viewBox="0 0 512 384"><path d="M0 192v192h182.6l1.2-6.1 1.1-6.2-3.4-4c-5.6-6.5-7.5-11.4-7.5-19 0-5.3.6-7.9 2.6-11.8 2-4.1 2.4-5.9 1.9-9.4-.7-4.5.2-7.3 3.8-11.3l2.1-2.2-3.2-3c-2-1.8-3.2-3.8-3.2-5.5 0-1.4-.6-3.4-1.2-4.5-1-1.6-1-2.4 0-4 1.7-2.7 1.5-3.8-.8-6.7-2.5-3.2-2.5-4.8 0-8 1.1-1.4 2-3.6 2-4.9 0-3.9 2.2-7.5 4.4-7.3 4.5.3 4.6.1 4.3-6.4-.2-7.5 1.8-11.4 6.3-12.4 1.7-.3 3.1-.6 3.1-.7.1 0 .7-9.8 1.3-21.6l1.1-21.4 2.4-.6c2.1-.5 2.8-1.9 5.1-10.1 2.6-9.1 6.4-17.4 9.7-21.1 1.3-1.4 1.2-3.6-.1-18-3.4-36.1-5.8-67.8-5.9-76.3 0-7.3.5-10.5 2.7-17 1.5-4.4 3.4-9.1 4.3-10.5l1.6-2.4 3.8 4.3c7.9 8.9 7.7 7.8 8.9 53.6.5 22.6 1 44 1 47.8 0 5.5.4 7 2 8.4 2.7 2.3 2.7 6.3 0 6.3-2.6 0-2.6 1.2 0 2.8 1.8 1.1 2 1 2-.8 0-1.1.5-2 1-2 1.4 0 1.3-3.7-.2-4.6-.8-.5-1-21.4-.5-84.1l.6-83.3H0z"/><path d="M236.1 186.5c0 9.8 0 9.9 1.5 6.5 1-2.4 1.3-4.9.9-7.9-1.4-9.3-2.4-8.7-2.4 1.4m-1.7 12.6c-.8 1-.9 5.1-.3 13.7.4 7.1.4 13.4-.1 14.7-1.2 3-6.3 5.7-9.3 4.9-2.2-.5-2.5-.1-3 3.3-1.3 7.7-1.1 7.9 3.8 3.4 3.5-3.2 5.3-4.1 7.3-3.9l2.7.3-.4 74.3-.3 74.2h25.1c13.8 0 25.1-.1 25.1-.3 0-.1-1.8-2.3-4.1-4.7l-4-4.5.5-9c.3-5 .8-12.3 1.2-16.3.6-6.8.4-7.7-2.5-13.6-3.5-7.2-3.1-12.2.7-8.4 1.5 1.5 1.5.9-.2-4-1.6-4.4-1.3-5.2 1.8-5.2 1.9 0 1.8-.3-.9-2.4l-3-2.5 3.5-6.8c2.6-5 4.1-6.9 5.8-7.1 2.7-.4 2.7-.3.2-5.2-2.5-5-2.5-7 0-7.7 1.2-.3 1.9-.8 1.7-1.2-.1-.3-1.6-3.3-3.1-6.6-1.5-3.2-3.6-6.5-4.7-7.3-1.2-.8-1.9-2.5-1.9-4.5-.1-5.6-1.8-11.1-4.2-13-1.9-1.6-3.3-1.8-9.5-1.2l-7.3.7-6.9-7.4c-3.8-4-8-8-9.5-8.7l-2.6-1.4-.2-19c-.2-14.2-.6-18.7-1.4-17.6m36.9 137.6c1.4 2.1 3.1 5.1 3.6 6.6 1.3 3.3 1.5 8.1.4 7.5-4.7-2.4-9.5-4.1-12.6-4.6-2.1-.2-3.9-.8-4.2-1.2-.2-.4.4-2.9 1.4-5.6l1.9-4.9 1.3 2.8c1.2 2.7 1.4 2.7 2.6 1.1.7-1 1.3-2.6 1.3-3.6 0-2.8 1.5-2.1 4.3 1.9m-92.3 6.5c-1.1 2.4-2 5.2-2 6.2 0 3 3.9 10.5 6.1 11.7 2.4 1.2 2.5.8 3.4-8.8.5-6.5.4-7.5-1.6-10.3-1.3-1.6-2.7-3-3.1-3-.5 0-1.8 1.9-2.8 4.2m11.6 10.9c-.8 7.8-.8 13.4 0 12.6.3-.3 1.2-4.1 2-8.4 1.1-6.4 1.1-8 0-9.1s-1.4-.2-2 4.9m-1.6 25.4c0 2.5.5 4.5 1 4.5.6 0 1-2 1-4.5s-.4-4.5-1-4.5c-.5 0-1 2-1 4.5"/></svg>