<svg xmlns="http://www.w3.org/2000/svg" width="682.667" height="512" version="1.0" viewBox="0 0 512 384"><path d="M0 192v192h181.7l.7-4.6c1.2-9.3.8-11.3-3.3-16.3-10-12.1-11.5-22.3-4.6-32.6 1.9-2.7 2.2-4.1 1.6-5.8-1.3-3.4-.2-7.8 2.7-11l2.6-2.7-3.1-3.3c-1.8-1.8-3.2-4.3-3.2-5.7s-.3-4-.7-5.8c-.4-1.9-.2-3.8.5-4.6.9-1.1.6-2.2-1.4-5.1-3-4.5-3-4.7-.5-7 1.2-1.1 2-3.1 2-4.9 0-4.6 2.2-8.1 5-8.2 5-.1 5-.1 4.4-6.7-.6-7.6 1.6-12 6.4-13 2.8-.6 3.1-1 3.6-5.9.4-2.9 1-12.5 1.4-21.3.7-15.6.8-16 2.9-16.3 1.9-.3 2.8-1.9 5.4-10.5 3-9.6 6.4-17.1 9.7-20.9 1.1-1.3 1.3-3.7.8-11-.4-5.1-1.5-23.5-2.6-40.8s-2.2-34.1-2.4-37.4q-.45-5.85 1.5-13.5c2.2-8.4 6.3-18.1 7.7-18.1 1.3 0 4.6 4 7.8 9.5l2.9 5 .5 47.9c.4 37.1.8 48 1.7 48.4 1 .3 1.3-16.3 1.3-80.7V0H0z"/><path d="M233 165.4c0 1.6-.5 2.6-1.5 2.6-.8 0-1.5.5-1.5 1.1 0 .7.9.9 2.3.5 1.2-.3 2.5-.6 3-.6 1.3 0 .7-3.7-.8-5-1.3-1.1-1.5-.8-1.5 1.4m-.9 24.3c-.7 9.8-1.1 19.6-.9 21.8.3 2.2.5 0 .6-4.9.2-7 .8-10.3 2.8-15.3 2.3-5.8 2.4-6.9 1.4-11.6-2-9.7-2.7-8-3.9 10M229 226c-1.4 1.1-4.1 2-6.2 2H219v11l4.1-4c2.3-2.2 5.2-4.3 6.5-4.6 1.8-.5 2.4-1.3 2.4-3.5 0-3.4.2-3.4-3-.9m3 76.9c0 39.5-.3 73.9-.6 76.5l-.7 4.6h27.2c14.9 0 27.1-.3 27.1-.7 0-.3-2.5-3.2-5.5-6.4l-5.5-5.8v-7.4c0-4.2.7-10.3 1.6-13.6 1.8-7.3.7-15.5-2.9-21.1-2.5-3.9-2.6-8-.1-5.9 2.1 1.8 2.8.4 1.5-3.2-1.7-4.9-1.4-5.7 1.7-5.2l2.7.4-3.2-2.9c-1.8-1.5-3.3-3.2-3.3-3.7 0-.4 1.7-3.7 3.7-7.2 2.9-4.9 4.1-6.2 5.5-5.7 2.3.7 2.3-.6-.3-6-2.3-4.6-2-8.2.6-7.2.8.3 1.5.1 1.5-.3 0-1.6-6.3-13.6-7.7-14.6-.8-.6-1.6-3.9-2-8-.5-5.4-1.1-7.4-3-9.3-2.2-2.1-3.1-2.4-7.6-1.9-2.9.3-6.3.9-7.7 1.2-2.2.6-3.2-.2-7.5-5.6-4.7-5.8-12.7-12.9-14.6-12.9-.5 0-.9 32.3-.9 71.9m37.5 30.2c2 2.8 3 5.6 3.3 9.6l.5 5.6-2.9-2.2c-1.6-1.1-5.6-2.6-8.9-3.3s-6.1-1.3-6.2-1.3c-.7-.4 3-9.5 3.8-9.5.5 0 1.3 1 1.8 2.2.8 2.2.9 2.1 2.7-1.5 1-2 2.1-3.7 2.4-3.7.4 0 2 1.8 3.5 4.1m-17.5 7.4c0 .8-.4 1.5-1 1.5-.5 0-.7-.7-.4-1.5.4-.8.8-1.5 1-1.5s.4.7.4 1.5m-74.3-4.7c-4.8 5.3-4.1 13.3 1.7 19.1 1.9 1.9 3.8 3.2 4.1 2.9.4-.3.9-3.9 1.2-8 .5-7.1.4-7.6-2.4-11.6-2.8-3.9-3.1-4-4.6-2.4m10.4 14.4c.1 4.5.2 4.9.9 2.3 1.1-4.4 1.1-7.5 0-7.5-.6 0-.9 2.3-.9 5.2m-.9 7.8c0 1.4.2 1.9.5 1.2.2-.6.2-1.8 0-2.5-.3-.6-.5-.1-.5 1.3m-.9 21.5c0 2.7.2 3.8.4 2.2.2-1.5.2-3.7 0-5-.2-1.2-.4 0-.4 2.8"/></svg>