<svg xmlns="http://www.w3.org/2000/svg" width="682.667" height="512" version="1.0" viewBox="0 0 512 384"><path d="M0 192v192h179.7l1.1-10.2 1.1-10.2-4.9-4.9c-10.4-10.3-12.7-21.3-7-32.2 2-3.9 2.8-6.5 2.4-8.1-.8-3.1 1.3-8.2 3.9-9.5 1.9-1.1 1.8-1.3-1.8-4.5-2.3-2.2-3.5-4-3.1-5 .3-.9.1-3.5-.5-5.9-.9-3.5-.8-4.7.5-6.7 1.5-2.3 1.5-2.6-.5-4.4-3.7-3.4-4.3-5.4-2.1-7.7 1.1-1.2 2.2-4 2.5-6.1.8-4.8 2.8-7 6.4-7.1 2.8 0 2.8-.1 3.3-8.1.3-4.5 1.1-8.8 1.8-9.6.7-.9 3-1.8 5.1-2.2l3.9-.6.7-7.2c.3-4 .9-13.4 1.3-20.8.7-12.8.8-13.5 3.1-14.6 1.8-1 3.2-3.6 6-12.1 2-6.1 5.3-13.8 7.5-17.2l3.8-6.3-1.1-21.1c-.6-11.7-1.6-31.2-2.1-43.4l-1.1-22.2 2.7-9.2c2.9-10.2 4.9-15.5 6.2-16.3 1.2-.7 5.9 3.8 7.9 7.7l1.7 3.2.7-4c.4-2.2.8-16 .8-30.8L230 0H0zm229.3-89c0 3 .2 4.3.4 2.7.2-1.5.2-3.9 0-5.5-.2-1.5-.4-.2-.4 2.8m-1 49c0 2.5.2 3.5.4 2.2.2-1.2.2-3.2 0-4.5-.2-1.2-.4-.2-.4 2.3m.6 8.2c-.2 6.5.2 29.3.5 29.6.2.2 1.4-1.4 2.7-3.4 3.5-5.7 2.4-19.2-1.6-20.8-2.8-1-1.6-2.6 1.5-2 3.6.8 4.1-1.5 1-4.6-2.8-2.8-4-2.5-4.1 1.2m-.9 48.3V219l-3.2 2c-1.8 1.1-4.3 2-5.4 2-1.9 0-2.3.7-2.6 4.5-.2 2.5-.1 4.5.1 4.5s1.9-1.4 3.8-3c1.8-1.7 4.3-3 5.3-3 2 0 2 1.1 2 79v79h28c15.4 0 28-.4 28-.8 0-1.3-5.3-8.3-8.5-11.2-4.5-4.2-5.4-6.9-5-15.6.2-4.3.8-9.5 1.4-11.4 2.4-7.6.2-21-3.8-23.4-.6-.4-1.1-1.7-1.1-2.8 0-2 .1-2 1.8-.5 2.9 2.6 3.2 2 1.7-2.4-1.9-5.4-1.9-5.9.5-5.9 2.6 0 2.5-1-.5-3.9l-2.5-2.4 3.3-6.1c3-5.2 3.8-6.1 6.1-5.9 1.4.1 2.6 0 2.6-.1 0-.2-1.2-2.9-2.6-6-2.5-5.6-2.5-7.6.2-7.6.8 0 1.4-.4 1.4-.9 0-2.1-5-11.8-6.9-13.3-1.7-1.5-2.1-2.9-2.1-7.8 0-11.3-3.6-14.3-14.3-12.1l-5.8 1.2-8.6-9.1c-4.7-4.9-9.5-9.3-10.8-9.6-2.3-.6-2.3-.6-1.8-14.5.3-7.6.3-13.9-.1-13.9-.3 0-.6 4.7-.6 10.5m37.9 118.6c3.4 4.6 4.5 8.7 3.6 12.8l-.6 3-3.5-2.4c-2-1.3-5.6-2.7-8.2-3.1-2.6-.3-5-.8-5.4-1-.7-.5 1.8-7.3 3.3-8.8.5-.6 1.2 0 1.8 1.5.9 2.3 1 2.3 2.7-1.9.9-2.3 2.1-4.2 2.5-4.2.5 0 2.2 1.8 3.8 4.1m-18.3 9.5c-.4.9-.9 1.5-1.1 1.2-.3-.3-.3-1.3.1-2.2s.9-1.5 1.1-1.2c.3.3.3 1.3-.1 2.2"/><path d="M172.6 332.4c-3.1 6.6-1.7 12.3 4.7 18.4l3.4 3.3.6-3.8c1.4-8.3.8-12-2.5-16.8-1.7-2.5-3.5-4.5-3.9-4.5s-1.4 1.5-2.3 3.4"/></svg>