<svg xmlns="http://www.w3.org/2000/svg" width="682.667" height="512" version="1.0" viewBox="0 0 512 384"><path d="M0 192v192h177.7l1.2-11.6 1.2-11.6-5-5.2c-9-9.6-11.8-18.8-8.7-28.4 1-2.8 2.4-5.6 3.2-6.3 1.1-.9 1.4-2.2.9-4.6-.6-3.6 1.4-8.7 4-9.6 2.2-.9 1.9-2-1.3-4.1-2.4-1.6-3-3-4.1-9.3-1.1-6.7-1.1-7.7.4-9.3 1.7-1.8 1.6-2.1-.9-5-2.9-3.6-3.3-6.2-1.1-8 .8-.7 1.8-3 2.1-5.2.9-5 3.7-8.8 5.5-7.1 1.3 1.3 5.4-.1 4.5-1.6-1.1-1.8-.8-11.1.4-14 .9-2.4 2.2-3.4 5.4-4.3 2.2-.6 4.4-1.4 4.8-1.7s1.2-8.3 1.8-17.6c1.5-22.4 1.7-23.5 3.9-23.5 1.8 0 3.5-3.7 7.1-15.5 1.6-4.9 6.7-15.4 8.7-17.7 1.3-1.4 1.3-7 .2-45l-1.2-43.3 2.7-9.4c4.7-16.1 6.5-18 11.1-11.4l2.5 3.8V0H0zm227.2-93c.1 31.8.3 37.4.9 26 1.4-27.9 1.5-63.8.2-65.1-1.1-1-1.3 6.8-1.1 39.1m-.2 57.8c0 2.2.7 3 3.1 3.9 4 1.6 5.1-.8 1.9-4.3-3.1-3.2-5-3.1-5 .4m.2 22.4c.1 9.5.3 15.3.5 12.9.3-2.5 1.6-6.1 3.1-8.4 3.3-5 3.5-12.7.6-17.8-3.9-6.7-4.4-5.2-4.2 13.3m-.9 27.8c0 3 .2 4.3.4 2.7.2-1.5.2-3.9 0-5.5-.2-1.5-.4-.2-.4 2.8m-3.2 11.1c-1.3 1-3.3 1.9-4.6 1.9-1.9 0-2.3.7-2.8 4.2-.6 4.8-.2 5.8 1.6 3.6 1.3-1.6 7.1-5.8 8.1-5.8.3 0 .6 36.4.6 81v81h28.5c15.7 0 28.5-.2 28.5-.5 0-2.4-3.8-8.3-8.7-13.8l-6-6.6.2-8.8c.1-4.8.7-10.2 1.3-11.8 2.7-7.6 1.8-16.4-2.3-22.7-3-4.5-3.3-6.9-.7-4.5 2.9 2.6 3.2 2 1.7-2.4-2-5.5-1.9-5.7 1.3-5.1l2.7.5-2.7-3c-3.4-3.5-3.4-4.2-.7-9.6 3-5.8 4.7-7.6 7-7 2.4.7 2.4.5-.7-5.6-2.7-5.1-2.6-8.8.1-7.7.8.3 1.7.1 1.9-.3.7-1-5.2-12.2-7.2-13.8-1.1-.9-1.7-3.8-2.1-9.2-.8-10.7-2.4-12.5-10-11.6-3 .4-6.4 1.1-7.6 1.5-1.8.7-3.3-.5-10-7.7-4.3-4.7-9.3-9.4-10.9-10.4-2-1.2-3.3-2.9-3.6-4.8l-.5-2.9zM266.5 328c1.2 2.7 1.5 5 1.1 7.4-.8 4-1.2 4.2-3.5 2.2-2-1.7-7.7-3.6-10.8-3.6-3.2 0-3.7-2-1.8-6.6 1.6-3.9 1.6-3.9 2.9-1.6 1.5 2.8 3 1.5 4.1-3.6l.7-3.4 2.8 2.7c1.5 1.4 3.5 4.4 4.5 6.5"/><path d="M170.7 329.5c-2.2 4.6-2.1 7.7.3 12.4 1.8 3.6 6.3 8.1 8 8.1.4 0 1-3.3 1.3-7.3.5-6.5.3-7.4-1.8-9.7-1.2-1.4-2.8-3.5-3.4-4.8-1.6-3-2.4-2.8-4.4 1.3"/></svg>