<svg xmlns="http://www.w3.org/2000/svg" width="682.667" height="512" version="1.0" viewBox="0 0 512 384"><path d="M0 192v192h175.8l.5-2.3c.3-1.2.9-7.3 1.3-13.5l.7-11.2-5.1-5.3c-6.2-6.7-9.2-12.4-9.9-19.3-.5-4.6-.2-6.3 2.5-11.6 1.7-3.5 3.5-8.3 4.1-10.8.5-2.4 1.8-5 2.8-5.8 1.7-1.2 1.6-1.5-1.5-4-2.3-2-3.2-3.5-3.2-5.7 0-1.7-.5-4.7-1.1-6.8-.8-3.1-.7-4.3.6-6.3 1.7-2.6 1.1-4.8-1.9-7.4-2.2-1.7-2-4.2.4-6.3 1.1-.9 2-2.8 2-4.2 0-2.8 2.6-8.5 3.8-8.5.5 0 1.3.5 1.8 1 .6.6 1.8.8 2.7.4 1.4-.5 1.7-2.1 1.7-8.9 0-7.8.2-8.5 2.6-10.4 1.5-1.2 3.9-2.1 5.5-2.1 1.5 0 3-.4 3.3-.9s1.1-8.4 1.7-17.7c1.4-22.6 1.5-23.2 4.1-23.6 1.8-.2 2.8-2.2 5.8-11.3 3.9-11.8 5.9-16.2 9.5-21l2.2-3-1-41.7c-.9-41.4-.9-41.7 1.3-50 2.5-9.4 5.2-16.2 6.9-17.3.7-.4 2 0 3 .9 1.7 1.6 1.9 1.4 2.5-3 .3-2.6.6-14.1.6-25.5V0H0zm225-71.9c0 36.6-.3 72.8-.7 80.4l-.6 13.8-4.3 1.8c-3.6 1.6-4.2 2.4-4.6 5.4-.5 4.1.1 4.3 3.1 1.1 1.3-1.3 3.1-2.6 4.2-2.9 1.9-.5 1.9 1.2 1.9 81.9V384l34.8-.1c20.3 0 33.9-.4 32.7-.9-1.1-.5-3.9-.9-6.2-.9-4-.1-4.3-.3-5.3-4-1.1-4.2-3.4-7.5-9.2-13.3-2.1-2.1-3.8-4.8-3.9-6.1-.2-8.3.4-17.2 1.7-21.2.8-2.7 1.4-6.1 1.4-7.6 0-3.7-2.7-11.7-5.2-15.2-1.1-1.5-1.5-2.7-.9-2.7.5 0 1.3.4 1.6 1 1.6 2.6 2.3.5 1-3.1-1.9-5.2-1.9-4.9.5-4.9 1.1 0 2-.5 2-1 0-.6-.9-1.9-2-3-2.5-2.5-2.5-3.1 0-7.5 4.1-7.3 5-8.3 7-7.8 2.6.7 2.5-.5-.5-6-2.8-4.9-2.5-8.1.6-7.2 1.1.4 1.9.2 1.9-.3 0-1.8-6-13.1-7.4-13.9-.9-.5-1.5-3.4-1.8-8.3-.8-12.2-3.4-14.4-14.1-11.6l-6.2 1.6-2.3-2.8c-9.3-10.9-13.5-15.1-16.7-16.6-3.4-1.7-3.6-2-3-4.9.3-1.8.9-9.5 1.2-17.1.5-13.7.8-14.8 4.6-18.4 3.5-3.4 1.5-18.5-2.8-21-1.3-.6-1.4-1.1-.6-1.6.7-.4 1.8-.2 2.6.4s1.9.9 2.5.5c1.8-1.1 1.1-3.3-2.1-5.8-3.7-2.9-3.6.8-1.4-54.7 1.4-35.7 1.2-39.4-2.1-43-1.2-1.2-1.4 8.8-1.4 65.1M264.5 324c2.6 5.1 1.5 14.1-1.4 10.6-.7-.8-4.4-2.3-8.2-3.3-3.8-.9-6.9-2-6.9-2.4s.7-2.3 1.5-4.3c1.7-4 3.5-4.8 3.5-1.5 0 1.8.2 1.9 1.5.9.8-.7 1.5-1.6 1.5-2.1 0-.4.4-1.9 1-3.3l.9-2.6 2.6 2.6c1.4 1.3 3.2 3.8 4 5.4"/><path d="M169.6 324.5c-2.8 4.3-3.1 8.7-.8 13.1 1.8 3.5 7.9 10.1 8.7 9.2.1-.2.5-3.5.9-7.5.5-4.8.3-7.3-.4-7.8-.6-.4-2.4-2.7-3.9-5.2l-2.8-4.4z"/></svg>