<svg xmlns="http://www.w3.org/2000/svg" width="682.667" height="512" version="1.0" viewBox="0 0 512 384"><path d="M0 192v192h85.5c47 0 85.5-.3 85.5-.8 0-.4.7-6.5 1.5-13.7 2.4-21.2 2.3-21.8-3.4-28-10.5-11.5-12.4-23-5.7-33.5 1.2-1.9 2.8-5 3.4-6.9.7-1.8 1.9-3.9 2.8-4.6 1.5-1 1.3-1.5-2-4l-3.6-2.7v-8.1c0-5.7.4-8.5 1.5-9.7 1.3-1.5 1.2-2-1-5-3-4-3.1-6.1-.6-8.4 1-.9 2.1-3.5 2.4-5.8.7-5.4 2.7-7.4 5.5-5.7 3.2 2 4.1.2 3.2-5.6-.9-5.1.3-11.7 2.4-13.4.6-.5 2.7-1.3 4.6-1.8 3.4-.9 3.5-1 4.1-7.4.4-3.5.7-11.9.8-18.6.1-8.4.5-12.6 1.4-13.3.6-.6 1.9-1.6 2.8-2.3s3.1-5.6 4.8-11.1c3.5-10.8 6-16.4 9.8-21.4l2.5-3.4-.7-40.6c-.7-40.2-.7-40.8 1.5-48.7 1.2-4.4 3.1-10.4 4.2-13.3 1.8-4.8 2.3-5.3 4.4-4.9l2.4.4V0H0zM220 74c0 16.8-.3 53.2-.7 80.9-.4 34-.3 50.2.4 49.8.5-.3 1.3-6.6 1.6-13.8.5-12.8.6-13.3 3.6-17 2.5-3.1 3.1-4.7 3.1-8.8 0-5.8-1.3-9.7-4.2-12.9-2.3-2.3-1.1-3 2.3-1.2 3.5 1.9 3.6-1.7 0-5.4-3.8-3.9-3.7-.8-1.4-51.3 1.8-40.6 1.7-42.6-2.8-48.3-1.8-2.5-1.9-2.1-1.9 28m-4.3 134.5c-3.4 1.4-4.7 3.1-4.7 6.2s1 2.9 4.9-1.1c4.1-4.2 4-6.8-.2-5.1m3 55.7c-.4 29.3-.7 68.3-.7 86.5V384h27.5c23.8 0 27.5-.2 27.5-1.5 0-1.9 1.1-1.9 3.6 0 1.1.8 4.1 1.5 7.1 1.5 4.8 0 5.2-.2 5.8-2.8.3-1.6.1-4.1-.4-5.5-.9-2.3-1.6-2.7-5-2.7-5.7 0-7-.8-8.1-4.9-.5-2-3.4-6.5-6.3-10l-5.4-6.4-.5-9.4c-.4-6.8-.1-10.6.9-13.6 2-5.8 1.2-13.5-2-19.7s-3.3-6.9-.7-4.5c2.3 2.1 2.6 1 1.1-4.3-.8-2.8-.7-3.2.9-3.2 3 0 3.1-1.5.5-4-1.4-1.3-2.5-2.8-2.5-3.4 0-.5 1.5-3.4 3.2-6.3 2.8-4.5 3.6-5.3 5.5-4.8 2.8.7 2.9-.3.4-5.2-2.9-5.7-3-7.7-.3-8.1 1.2-.2 2.2-.8 2.2-1.4 0-2.2-5.9-13.6-7.3-14.1-1.1-.4-1.6-2.7-1.8-8.5-.5-9.8-2.1-12.2-8.3-12.2-2.3.1-5.8.7-7.9 1.4l-3.7 1.4-6.5-7.8c-7.5-8.9-12.4-13-15.8-13h-2.4zm39.6 47.4c2.9 3.4 4.5 9.8 3.3 12.9-.5 1.5-.9 1.5-3.9-.4-1.8-1.1-5.2-2.3-7.5-2.7s-4.5-1-4.8-1.5c-.2-.4.3-2.5 1.2-4.6l1.6-3.8 1.3 2.9c1.1 2.7 1.3 2.8 2.2 1 .6-1 1.3-3.1 1.7-4.7.8-3.4 1.5-3.3 4.9.9"/><path d="M165.9 314.7c-2.7 4.7-3.1 8-1.3 11.6 1.7 3.4 7.3 9.7 8.6 9.7.4 0 .8-2.9.8-6.5 0-5.5-.5-7.4-3.1-12-1.7-3-3.2-5.5-3.3-5.5s-.9 1.2-1.7 2.7m11.2 62.5-.1 6.8h3c3.5 0 3.5.1 1.2-4.7-1.1-2.1-2.4-4.9-3-6.3-.9-2.1-1.1-1.5-1.1 4.2"/></svg>