<svg xmlns="http://www.w3.org/2000/svg" width="682.667" height="512" version="1.0" viewBox="0 0 512 384"><path d="M0 192v192h167.7l.6-4.7c.3-2.7 1.2-12.8 1.8-22.5l1.3-17.7-4.3-4.6c-5.9-6.4-9.1-13.6-9.1-20.5 0-5.5.7-7.3 7-18.9l3-5.5-3-2.5c-2.4-2.2-3-3.6-3.5-8.6-.6-5.1-.3-6.7 1.7-10.6l2.4-4.6-2.3-3.4c-2.8-4.1-2.9-6-.3-7.6 1-.7 2.2-2.9 2.6-5 .9-5.1 2.2-6.4 5.8-6.1l3.1.3-.4-7.1c-.3-7.6 1.6-13.4 4.3-13.4 2 0 2.6-2.3 2.6-9.3 0-3.4.3-12 .7-19.1.5-10.9.9-12.9 2.3-13.3 1.2-.3 2.8-3.8 5-10.6 4.3-13.4 7.1-19.5 10.5-23.5l2.8-3.3-.6-42.2-.7-42.2 3.3-10.9c3.9-13.1 5.4-14.7 9.8-9.8L217 40V0H0zM216.7 78.7c-.4 20.2-.7 49.2-.7 64.3v27.4l3.1-3.4c2.9-3.1 3.1-3.7 2.7-9.7-.3-4.4-1-7.1-2.6-9.2-2.8-3.8-2.8-4 .4-3.8 3.9.3 3.9-1.6.2-5.3l-3.2-3.3 1.7-39.6c2-46 2.1-48.8.3-51.9-1.1-2-1.4 3.4-1.9 34.5m-1.6 104.8c-.4 13.7-.9 15.4-5.1 18.3-3.2 2.1-3.5 2.8-4.1 8.5-.3 3.4-.4 6.4-.3 6.6.2.2 2.5-2.1 5.3-5l4.9-5.4-.5 88.7-.6 88.8H271v-4.5c0-2.5.4-4.5.9-4.5s3.4 2 6.4 4.5c3.1 2.5 6 4.5 6.6 4.5 1 0 2.6-11.4 1.9-14.6-.2-1.5-1.6-2.1-6.1-2.8-5.5-.8-5.7-1-6.7-4.6-.5-2-2.5-5.6-4.2-7.9-7.8-10.1-7.3-8.8-7.2-20.1.1-5.8.4-13 .9-16 .6-4.4.3-6.7-1.4-11.5-1.2-3.3-2.5-6.9-2.8-8l-.6-2 2.3 2 2.3 2-.6-2.5c-.4-1.4-1-3.5-1.3-4.8-.5-1.6-.2-2.2.9-2.2 2.8 0 3-2.1.3-4.9l-2.6-2.7 3.3-4.9c2.4-3.6 3.9-5 5.5-4.9 2.8.1 2.8-1.9.1-7.5-2.1-4.5-1.3-7.6 1.7-6.4.8.3 1.4-.1 1.4-1 0-2.5-6-14.5-7.6-15.1-1-.4-1.4-2.3-1.5-6.8-.1-8.2-.9-10.7-3.9-12.9-2.3-1.7-2.9-1.8-7.5-.5-2.7.8-5.7 1.7-6.6 2-1.2.5-3.6-1.6-8.8-7.8-8.5-9.9-12.9-13.1-17.1-12.2l-3 .5-.3-16.7c-.2-14.2-.3-15-.6-5.7M257 306.7c2 3.1 3 6 3 8.5 0 2.1-.1 3.8-.3 3.8-.1 0-2-.9-4.2-2s-5.1-2-6.5-2c-4.4 0-5.5-1.4-4-4.9 1.5-3.7 2.3-3.9 3.7-.9.9 2.1 1 2 2-.8.6-1.6 1.4-3.7 1.7-4.7.8-2.5 1.3-2.2 4.6 3"/><path d="M173 283c0 .5.5 1 1.1 1 .5 0 .7-.5.4-1-.3-.6-.8-1-1.1-1-.2 0-.4.4-.4 1m-9.3 26c-3.3 5.6-2.1 10.5 4.4 17.1l2.9 3v-7c0-5.2-.5-8.1-2.1-11.1-2.8-5.2-3.2-5.4-5.2-2m10.4 60.2L174 384h6c3.3 0 6-.3 6-.7 0-.3-1.7-3.6-3.7-7.2s-4.7-10-6-14.1l-2.2-7.5z"/></svg>