<svg xmlns="http://www.w3.org/2000/svg" width="682.667" height="512" version="1.0" viewBox="0 0 512 384"><path d="M0 192v192h163.9l.6-4.2c1.1-8.6 3.5-38 3.5-43.9 0-5.4-.4-6.5-4-11.2-2.1-2.9-4.6-6.9-5.5-9-2.9-7-1.4-18.8 3.1-23.8.8-.9 2.3-3.3 3.4-5.3l1.8-3.6-2.8-1.5c-2.5-1.3-2.9-2.2-3.5-8-.9-7.7-.3-10.4 2.9-14.2l2.4-2.8-2.3-3.4c-2.5-3.5-2.3-5.1.7-9 1-1.3 1.8-3.2 1.8-4.3 0-3.8 1.9-5.9 5.2-5.6l3.1.3-.2-7.2c-.2-5.1.3-8.1 1.5-10.4 1.5-2.9 1.6-5.8 1.2-23-.5-19.4-.5-19.7 1.6-20.7 1.6-.7 2.8-3.1 4.5-9.3 3-10.8 6.9-20.6 9.4-24.3 1.9-2.7 2-3.8 1.4-25.5-.4-12.4-1.1-31.7-1.7-42.9-1-20-1-20.4 1.5-30.2 2.9-11.5 4.3-15 6.1-15 2.4 0 7.5 5.2 9.6 9.8 2 4.6 2 5.3 1.3 48.7-.6 39.8-.6 44.2.9 45.4s1.6-4.1 1.6-64.3V0H0z"/><path d="M213 134.2c0 1.9-.5 2.8-1.6 2.8-1.4 0-1.4.2-.3 1.6.8 1 1.5 1.2 1.7.5.2-.6 1-1.1 1.8-1.1 1.8 0 1.8-2.1-.1-4.6-1.4-1.8-1.4-1.8-1.5.8m-.2 17.1c-.3 7.2-.8 10.1-2.1 11.5-1.4 1.5-1.7 4-1.7 14.6 0 7-.5 13.6-1 14.7-.6 1-2.4 2.6-4 3.4-2.9 1.5-3 1.7-3 9 0 6.7.2 7.5 1.9 7.5 1.1 0 3.6-1.9 5.6-4.3l3.7-4.2-.6 90.2-.7 90.3h56.8l.7-8c.5-5 1.2-8 1.9-8 .6 0 3.5 2.3 6.4 5.2l5.2 5.1 1.1-2.8c.6-1.6 1.4-5.7 1.7-9.1l.6-6.1-5.8-.9-5.7-.9-1.9-5.1c-1-2.7-3.8-7.3-6.1-10l-4.3-5 .1-17.4c.2-14.9-.1-18.2-1.7-22.5-2.4-6.3-2.5-8.2-.4-6.5 2.3 1.9 2.9.6 1.7-4-.8-3.2-.7-4 .3-4 2.5 0 2.7-2.1.6-4.4-2.7-2.9-2.7-3.2 1.1-8.8 2.4-3.5 3.8-4.6 5-4.2 2.3.7 2.4-2.9.3-6.6-2.1-3.8-1.8-5.9 1.1-7 1.4-.6 2.4-1.3 2.2-1.8-.2-.4-1.8-3.7-3.6-7.5-1.7-3.7-3.8-7-4.7-7.3-1.1-.5-1.5-2.3-1.5-7.9 0-5.8-.4-7.7-2.1-9.9-2.4-3-4.2-3.2-11.9-1.1l-5.5 1.5-3-3.7c-8.5-10.5-16-17.3-19.3-17.3-.5 0-2.6 1.1-4.6 2.5l-3.8 2.6.4-21.6c.2-17.8.6-21.7 1.8-22.5 1.8-1.1 2.1-12.4.3-15.4-.8-1.5-1.1.1-1.5 7.7m42.7 149c3 5.3 3.5 11.3.8 10.2-5.3-2.2-9-3.4-11-3.5-2.7 0-2.7 0-.7-4.8l1.6-3.7 1.2 3 1.2 2.9 1.7-4.2c.9-2.3 1.9-4.2 2.1-4.2.3 0 1.7 2 3.1 4.3m-85.1-25.8c.3.9.6 1.9.6 2.1s.7.4 1.5.4c2.1 0 1.9-1.3-.6-2.9-1.9-1.1-2.1-1.1-1.5.4m-7.8 26.7c-2.7 3.8-2 9.2 1.5 13.3 1.7 1.9 3.5 3.5 4 3.5 1.8 0 1-11-1.1-15-1.1-2.2-2.2-4-2.5-4-.2 0-1.1 1-1.9 2.2m10.3 15.1c-.1 2-.2 4.2-.3 4.9-.1.6.4 1.3 1 1.5 2 .7 2.8-6.7 1-8.6-1.5-1.4-1.6-1.2-1.7 2.2m-1.3 21.8c-.3 3-.7 14.5-.8 25.7l-.3 20.2h18.7l-.6-2.7c-.4-1.6-1.9-5.1-3.3-7.8-1.4-2.8-4-7.8-5.8-11.3-3.1-6-5.5-16.2-5.5-23.4 0-6.1-1.8-6.6-2.4-.7"/></svg>