<svg xmlns="http://www.w3.org/2000/svg" width="682.667" height="512" version="1.0" viewBox="0 0 512 384"><path d="M0 192v192h159.6l1.7-15.8c.9-8.6 2.2-22.7 2.7-31.2.6-8.5 1.2-16 1.5-16.7.2-.6-.8-2.6-2.2-4.5-8.6-11.3-8.6-27.7 0-34.5 4.1-3.2 4.2-4.3.6-7.3-3.2-2.7-3.4-3.1-3.4-9.7 0-6 .4-7.5 2.9-11.3 2.5-3.7 2.7-4.6 1.6-6.4-2.8-4.5-2.9-7.3-.4-9.7 1.3-1.2 2.4-3.2 2.4-4.4 0-3.6 2.8-6.6 5.6-5.9 2.4.6 2.4.6 2.4-6.9 0-4.2.5-8.8 1.2-10.2.9-1.9.9-6.8-.1-20.7l-1.2-18.1 2.4-2.1c2-1.7 2.9-4.2 4.7-13.1 1.2-6.4 3.4-13.6 5.2-17.3 2.7-5.3 3-6.9 2.5-11.5-1-8.5-10.6-79-11.1-81.1-.6-2.2 2.9-21.8 4.4-25.4.5-1.2 1.8-2.2 2.7-2.2 2.3 0 7.7 5 10.8 10 2.3 3.7 2.5 5.3 5 49.1 2.3 38.2 2.9 45.6 4.3 46.6.9.7 1.9 1.3 2.4 1.3.4 0 .8-25.1.8-55.8 0-30.6.3-58.7.7-62.5l.6-6.7H0z"/><path d="M208.7 128.9q-.45 2.1-2.1 1.5c-2.2-.9-2 .9.3 2.3 1.6 1 2 .8 3.1-1.3 1-1.7 1-2.8.3-3.5s-1.2-.4-1.6 1m.3 12.1c0 3-.3 7.4-.6 9.7-.6 4.6.1 5.4 2.2 2.5 1.7-2.2 1.7-10.9-.1-14.7-1.3-3-1.3-3-1.5 2.5m-1.4 16.5c-.3.9-.6 2.6-.5 3.8.1 1.6.4 1.2 1-1.2 1-3.4.6-5.5-.5-2.6m.6 13c0 1.6.2 2.2.5 1.2.2-.9.2-2.3 0-3-.3-.6-.5.1-.5 1.8m0 10.5c-.1 4.6.1 5.2 1 3.3.8-1.6.8-3.2 0-5.5-.9-3.2-1-3.1-1 2.2m-3.9 8.4c-3 1.9-3.3 2.5-3.3 7.3 0 8.3 1.8 10.4 5.6 6.6 1.6-1.7 1.7 2.8 1.1 89.5l-.6 91.2h57.6l.6-4.8c.4-2.6.9-7.8 1.3-11.5s1.1-7 1.6-7.3c.6-.4 3.4 1.7 6.3 4.6 2.9 2.8 5.5 4.8 5.7 4.3 1.5-2.5 3.9-12.3 3.6-14.4-.2-2-1.1-2.5-5.7-3.4-5.2-1-5.4-1.2-6.6-5.2s-4.1-8.8-7.7-12.7c-2.1-2.3-2-1.7-2.3-12.6-.3-13.1-2-29.3-3.3-31.6-1.2-2.2-.6-6.4.9-6.4.5 0 .9.5.9 1.1 0 .5.5.7 1.1.3.7-.4.9-2.1.5-4.2-.4-2.6-.1-3.8 1.1-4.7 1.5-1.1 1.5-1.5-.5-4s-2-2.9-.7-5.4c2.8-5 5.2-7.4 6.9-6.8 2.1.8 2.2-3.3 0-7.4-1.2-2.4-1.3-3.3-.3-4.5.7-.8 1.8-1.3 2.6-1s1.3-.2 1.3-1.3c0-2.8-5.7-14.9-7.5-15.9-1.2-.6-1.8-3-2.2-8.8-.3-4.9-1.1-8.6-2.1-9.7-1.8-2-6.3-2.2-12.9-.5-4.5 1.1-4.7 1-7-1.8-11-13.4-15.6-17.4-19.8-17.4-1.2 0-4.1 2-6.5 4.5s-4.8 4.5-5.2 4.5-.8-2.9-1-6.4l-.3-6.3zm50.6 104.9c2.8 5.9 2.8 8.1-.1 7.2-1.3-.4-4.3-1.2-6.8-1.8s-4.6-1.1-4.8-1.2c-.1-.1.5-1.9 1.4-4.1l1.7-3.9 1.2 2.8 1.2 2.9 1.3-3.1c.7-1.7 1.6-3.1 2-3.1.5 0 1.8 1.9 2.9 4.3M171 266c0 2.2 3 6.1 4.1 5.5 1.5-1 1-3.5-.8-4.2-1-.4-2.1-1.1-2.5-1.7-.5-.7-.8-.5-.8.4m-8.2 25.7c-.9 1-1.9 2.8-2.2 4-.8 2.5 1.3 8.2 3.7 10.1 1.7 1.5 1.9 1.1 3-6.2.4-2.4-1.6-9.6-2.7-9.6-.1 0-1 .8-1.8 1.7m8.8 13.8c-1.1 2.9-.7 6.3 1 7.9 2.5 2.5 3.4 1.9 3.4-2.2 0-4.5-3.2-8.7-4.4-5.7m-2 18.4c-.8 1.3-2.6 33.9-2.6 47.8V384h12.5c11.2 0 12.5-.2 12.5-1.8 0-4.1-4.7-17.2-8.2-22.8-4.8-7.8-7.4-15.3-8.3-24-.4-3.8-.8-7.6-1.1-8.4-.5-1.9-4.1-4.2-4.8-3.1"/></svg>