<svg xmlns="http://www.w3.org/2000/svg" width="682.667" height="512" version="1.0" viewBox="0 0 512 384"><path d="M0 192v192h167.8l2.2-12.3c3.7-20.4 6.9-33.6 11.5-47.2l4.3-13 .1 15.7c.1 9.3.5 15.9 1.1 16.3.6.3 1-.4 1-1.7 0-6.5 11.2-43.8 13.1-43.8 1.3 0 1.2.8-1.6 11.2-4.4 17-8.1 39.5-10.1 61.5-.3 3.9-1.2 8-2 9-1.2 1.6-1.4-.1-1.5-12.2l-.2-14-1.2 7.5c-.7 4.1-1.6 11-2 15.3l-.8 7.7h93.5l-.6-2.7c-.4-1.6-2-5.7-3.7-9.2-5.2-11.3-3.9-11.1 8.3.9 8.5 8.4 11.8 11 13.8 11 1.4 0 3.1-.5 3.7-1.1.8-.8 1.7-.8 3.1 0 1.2.6 7.1 1.1 13.3 1.1h11.2l-6.9-5.1c-10.4-7.8-13.6-11-12.3-12.5.8-1 .1-2.1-2.8-4.6-8.4-7.3-29.5-27.2-29.9-28.3-.3-.7 0-5 .5-9.6.8-6 1.7-8.9 3.1-10.3 1.9-2 2-2 5.9 2.4 2.6 2.9 4.3 4.1 5 3.5 1.3-1.4 6.1-13.1 6.1-14.9 0-1.7-2.1-2.6-6-2.6-3.1 0-4.2-1.1-5.8-5.7-.6-1.7-2.7-5.7-4.7-8.8-3.7-5.8-5.6-12.5-4.8-16.8.9-4.7-1.6-10.7-5.3-12.9-3.6-2.1-3.6-2.3.7-7.8 2.5-3.1 7.9-15.6 8.1-18.7.1-.6.6-.9 1.3-.7.7.3 1-.7.8-2.8-.2-2 .4-4.7 1.6-6.8 1.1-1.9 2.5-4.7 3.1-6.1.6-1.5 2.4-5.1 3.9-8 2.5-4.7 3.2-5.4 5.6-5.2 1.5.1 3.8 1.2 5.1 2.4 2.1 1.9 2.6 2 5.4.9 2.9-1.2 7-6.4 7-9 0-.7-2.9-5.8-6.4-11.4-5.2-8.4-6.2-10.7-5.8-13.4.6-4.2-1.3-8.6-6.2-14.5-2.9-3.4-4.4-4.6-5.8-4.1-1 .3-1.8 0-1.8-.6 0-.7.9-1.4 2-1.7s2-.9 2-1.4c0-1.3-4.8-4.1-5.9-3.5-1.2.8-3.4-2.4-10.6-15.4-3.2-5.8-8.8-15.9-12.5-22.5s-8.2-14.7-10-18c-10.9-20.1-13.5-23-23.2-26-2.3-.7-6.8-2.5-9.9-4-9.3-4.6-10.3-2.8-7.3 12.7 1.9 9.6 2.9 11.7 9.9 21.8 12 17.4 22.1 32 27.2 39.4 3 4.3 7.7 11 10.4 14.8 2.8 3.9 5.3 7.6 5.5 8.2.3.7-1.1 2.5-3 3.9l-3.4 2.7-5.4-2.5c-2.9-1.4-6.7-2.5-8.5-2.5-2.5 0-4.6-1.3-9.4-5.5-3.4-3-6.7-5.5-7.4-5.5-2.2 0-7.1 4.7-10.5 10-1.8 2.8-3.8 5-4.6 5-.7 0-3.5 2-6.1 4.5-2.5 2.5-4.8 4.5-5 4.5-.1 0-2.4-1.6-5-3.6l-4.8-3.7-.5 11.9-.5 11.9-1.2-6.6c-1.7-8.7-1.6-11.8.3-15.4 1.5-2.7 1.7-12.1 2.2-84.3l.5-81.2H0zm182.5-1c.4.6 1.5.8 2.6.5 1.8-.6 1.9.1 1.9 16.8 0 14.6-.3 17.7-1.6 18.7-3.3 2.8-3.6 4.8-1.2 9.2l2.3 4.3.5-7.4c.5-7 .7-7.5 3.5-9.1 1.7-1 3.3-1.6 3.6-1.4.6.4 0 3.6-1.6 9.1-.6 1.7-.3 2.3.9 2.3 1.1 0 1.6.9 1.6 3.2v3.1l2.3-2.1 2.2-2.1 2.3 3.4c1.2 1.9 2.2 4.9 2.2 6.6 0 3.2 0 3.2 2.1 1.3l2.1-1.9-2.1 3.7c-1.2 2-2.8 3.8-3.5 4.1-1.3.5-6.2-3-12.1-8.7l-3-2.8-.9 5.3-.8 5.4-2.5-3c-3.3-4-6.3-10.4-6.3-13.7 0-3.5 3.3-12.4 5.6-14.9 1.4-1.5 1.4-2.1.4-3.4-.7-.8-1.8-1.5-2.6-1.5-2.2 0-2.6-2-1.3-6.6 1-3.1 1.9-4.4 3.2-4.4 1.4 0 1-.8-1.9-3.5-3-2.9-3.4-3.7-2.4-4.9.6-.9.9-2 .5-2.6s-.4-1.7-.1-2.5c.6-1.7 3.2-2 4.1-.5m7.5 66.5c1 1.2 1 1.8 0 3-1.9 2.3-3 1.8-3-1.5s1.1-3.8 3-1.5m5 5.4c0 .9-3.2 3.4-6.7 5.5-2.8 1.6-1.1-2 2-4.2 3.4-2.4 4.7-2.7 4.7-1.3m-8 1.5c0 .8-3.9 5.4-8.7 10.1l-8.8 8.7 8-6.6c4.4-3.6 8.3-6.6 8.7-6.6.3 0 .8.7 1 1.5.2 1.3.9 1.1 3.8-1l3.5-2.6.6 2.4c.3 1.3.9 5.2 1.3 8.8.7 6 .5 6.9-2.7 13.4-1.9 3.9-4.2 8.7-5 10.7-.9 2.1-1.9 3.8-2.3 3.8s-.4-7.5 0-16.6c.7-19 1.3-18.4-8.5-8.9-7.3 7.1-12.9 15.1-17.3 24.8-5 11-6.4 16.2-7.7 28.9-.9 8.5-1.6 11.8-2.5 11.8-.8 0-1.6 1.2-2 2.7-.3 1.6-.9 3.7-1.4 4.8-.7 1.8-.9 1.8-1.9-.9-1.4-3.5-.1-10.5 6.4-35 5.1-19 8.6-27.1 16.2-37.3 4.2-5.7 17.3-18.3 19-18.3.2 0 .3.6.3 1.4m19.7 60.3c-.3 1-.5.4-.5-1.2 0-1.7.2-2.4.5-1.8.2.7.2 2.1 0 3m-1 7c-.3 1-.5.4-.5-1.2 0-1.7.2-2.4.5-1.8.2.7.2 2.1 0 3"/></svg>