<svg xmlns="http://www.w3.org/2000/svg" width="682.667" height="512" version="1.0" viewBox="0 0 512 384"><path d="M0 192v192h165.5l.1-8.8c.1-10 6-36.6 12.2-55.5l3.7-11.2.3 17c.1 9.3.7 17.4 1.2 17.9.7.7 1 .1 1-1.4 0-7.1 9.9-40.3 15.8-53 4.1-9 5.3-7.9 1.9 1.7-7 19.3-10.6 38.1-15.2 78.8-.4 3.3-1.4 7.3-2.4 9-1.6 2.9-1.6 2.7-2.1-10l-.5-13-1.9 13c-1 7.2-2.1 13.6-2.3 14.2-.4 1 10.1 1.3 50.6 1.3 48 0 51.1-.1 51.1-1.8 0-3-3.6-14.5-6.2-19.7-3.1-6.2-5.2-12.4-4.4-13.2 1.1-1.2 19.8 16.3 24.3 22.6 1.1 1.6 2.1 2 4.1 1.5 1.5-.4 3.2-1.1 3.9-1.6 1.8-1.5 5.1.8 7.3 5.2 3.3 6.4 4.9 7 18.5 7 6.6 0 11.5-.4 11-.8-.6-.4-2.4-2.6-4.1-4.9-3.4-4.7-6.7-7.5-16.8-14.3-4-2.7-6.4-5-6.1-5.8s0-1-.6-.6c-.7.4-.9 0-.5-1.4.5-1.5-.1-2.6-2.1-4.2-1.5-1.2-9.2-8.3-17.1-15.8l-14.3-13.7.7-8.5c.5-6.6 1.1-9 2.7-10.8l2.1-2.2 4.2 4.1c4.7 4.6 4.5 4.7 8.1-4.1 3.3-7.9 3.1-8.8-2.2-9.5-4.8-.8-5.8-1.6-7-5.5-.4-1.4-2.5-5-4.6-8.1-3.9-5.8-5.4-10.3-6.4-20.1-.4-3.2-1.4-6.7-2.5-8.1l-1.9-2.3 9.9-11.2c10.4-11.8 16.8-17.8 23.4-22 2.3-1.4 4.7-3.3 5.4-4.4 1.5-2 4.3-2.3 7.2-.8 1 .5 2.5.7 3.4.4 1.9-.7 7.6-9.5 7.6-11.8 0-1-1.6-4.7-3.6-8.3-2.7-4.8-3.4-6.7-2.5-7.6 2-2 1.3-7.4-1.4-10.5-1.4-1.7-2.5-3.9-2.5-4.9 0-2.2-2.2-4.4-6-6-1.8-.7-3.4-3-5.2-7.4-7.9-18.7-17.8-40.2-19.3-41.9-1-1.1-3.1-2-4.6-2-3 0-5.4-1.9-6.4-5-.3-1.1-1.3-2-2.1-2-.7 0-2.5-1.8-3.9-4-1.8-2.8-3.2-4-4.9-4-3.9 0-5 2.5-5.4 12.4l-.4 9.1 6.4 11c3.6 6.1 8.5 14.4 11 18.5 2.4 4.1 6.6 11.2 9.2 15.7l4.7 8.1-1.3 8.1c-1.2 7.8-2.8 10.9-2.8 5.5 0-2.5-.2-2.6-3.9-2-2.1.3-5.2.3-6.9 0l-2.9-.6-.5-13.1c-.5-12.9-1.9-19.4-4.8-21.2-1.9-1.1-5.3.3-9.5 4-2.2 1.9-4.3 3.5-4.6 3.5s-2.1-.8-4-1.7c-2-1-6-1.7-10.1-1.8-5.8-.1-7.2-.5-9.6-2.7-4.2-3.9-7.4-5.8-9.8-5.8-2.5 0-7.4 5.1-9.3 9.7-.7 1.7-3.1 4.3-5.3 5.8-2.1 1.4-4.9 4.2-6 6.1-2.3 3.9-1.8 4-9-2.5-2.1-1.9-3-2.2-4.1-1.2-1.2.9-1.3-10.5-.9-78.9l.5-80H0zm185.5-14.5c1.6 6.9 1.6 7-.5 8.4-1.3.9-2 2.4-2 4.7s-.5 3.4-1.4 3.4c-2 0-2.3-.8-2.7-5.5-.3-3.6-.1-4 1.9-3.8 2.1.3 2.2-.1 2.2-7.4 0-4.2.2-7.4.4-7.2.3.2 1.2 3.6 2.1 7.4m101 9.5c.3.5.1 1-.4 1-.6 0-1.1-.5-1.1-1 0-.6.2-1 .4-1 .3 0 .8.4 1.1 1m-6.1 3.2c2 .9 2.3 1.4 1.5 2.5-2.1 2.5-6.4.8-5.3-2 .7-2 .6-2 3.8-.5m-92.4 7.9c0 .5-1.1 1.1-2.4 1.5-2.1.5-2.5 1.3-2.8 5.2-.4 6.1-2.2 6.1-2.5-.1-.2-3.5.2-4.7 1.2-4.7.9 0 1.5-1 1.5-2.5 0-2.3.2-2.4 2.5-1.3 1.4.6 2.5 1.5 2.5 1.9m-2 13.6c-.1 1-.7 2.9-1.5 4.3-1.4 2.5-1.4 2.4-1.5-1.8 0-3.1.4-4.2 1.5-4.2.8 0 1.5.8 1.5 1.7m11.1 7.7c.6-.3.3 1.1-.5 3.1-2 4.6-2 4.4.3 3.8 1.4-.4 2 .1 2.3 1.8.4 3.1 2.4 3.5 3.2.7.7-2.2.8-2.2 2.1.7 1.8 4.2 2.9 10.5 1.8 10.5-1.5 0-12.9-11.3-15.2-15.1-3-4.9-2.7-8 1.2-10.4l3.2-2.1.3 3.8c.2 2.2.7 3.6 1.3 3.2M186 231.2c0 1.1 2.5 4.1 9.3 11.3 3.1 3.4 5.7 6.7 5.7 7.3 0 .9-16.2 12.2-17.5 12.2-.3 0-.5-8-.5-17.8.1-15.8.2-17.5 1.5-15.8.8 1.1 1.5 2.3 1.5 2.8m26 7.2c0 1.5-2.8 4.2-3.6 3.4-.2-.3 0-1.7.6-3.2 1-2.7 3-2.8 3-.2m-13.5 18.4c-3.5 3.1-13.8 10.4-14.9 10.6-2.2.3-9.1 6.3-13.1 11.3-3.2 3.9-2.5 3.5 4-2.7 10.2-9.8 11.3-7.5 1.3 2.8-13.5 13.9-19.5 24.8-22.8 41.4-1.2 5.7-2.7 10.7-3.3 11.3-.7.5-1.9 3-2.7 5.5-.9 2.9-1.5 3.9-1.8 2.7-.3-1.3-.7-1.5-1.6-.7-1 .7-.8-1.3.6-7.2 7-29.8 12.6-43.7 21.7-53.9 6.6-7.4 16-14.7 17-13.1.5.8 2.9-.3 7.7-3.8 3.8-2.7 7.3-4.9 7.9-5 .6 0 .6.3 0 .8m1.6 8.4c.4 2.8-.1 4.7-2.8 9.4-3.4 5.9-8.2 15.7-12.2 24.8-1.2 2.7-2.4 4.7-2.7 4.4s-.2-7.6.2-16.2l.7-15.6 7.1-5.4c3.9-3 7.5-5.3 8.1-5.2.5.1 1.3 1.9 1.6 3.8m11.2 35.4c.7 4-2.1 20.7-5.9 35.9-2.8 10.9-4.8 14.7-3.9 7.5 3.4-28.8 6.7-47 8.5-47 .4 0 1 1.6 1.3 3.6"/></svg>