<svg xmlns="http://www.w3.org/2000/svg" width="682.667" height="512" version="1.0" viewBox="0 0 512 384"><path d="M302.2 28.9c-8.7 3.1-11.8 6.1-12.8 12.7-.7 5 .7 14 3.1 18.7 1.8 3.5 2.4 2.9-10 10.8-9.8 6.4-18.1 14.7-23.4 23.6-5.3 9-6.8 13.4-8 24-1 9.5-2.3 13.5-5.5 17-2.3 2.6-1.1 3 2.2.7 2.1-1.4 2.2-1.4 2.2.8 0 1.8.2 2 .9.9 1-1.6 1.8 1.4 2.6 9.9.5 5.9.6 5.9 1.5 3 .7-2.5.8-2.5 2 .9 1.2 3.1 1.4 3.3 2.1 1.5.6-1.5.8-1.6.8-.2.1.9.8 2.4 1.7 3.3 1.4 1.3 1.9 1.4 2.5.4s.9-.9 1.5.4c.3.9 1.2 1.7 1.8 1.7.7 0 2.7 1.6 4.6 3.5 1.8 1.9 3.5 3.3 3.7 3.1.3-.2-.7-2.8-2.1-5.8-1.5-2.9-1.8-4.2-.9-2.9 1 1.4 2.6 3.4 3.6 4.5 1.6 1.8 1.8 1.8 1.3.3-.3-1.1-.2-1.6.4-1.2.6.3 1 2.8 1 5.4 0 3.5-.7 5.8-2.6 8.6-3.3 4.9-2.8 6.6 2.3 8.9 3 1.4 4.4 2.7 4.8 4.6.3 1.4 2.8 4.6 5.5 7 5 4.4 5 4.5 5 10.5 0 3.3-.5 7.7-.9 9.9-.8 3.4-.7 3.9 1.1 4.4 1.8.4 2 1.1 1.6 5.3-.4 3.4-.1 4.9.9 5.3.7.3 1.3 1.6 1.3 2.8 0 1.3.7 5.3 1.5 9.1l1.4 6.7-3.3 7.8c-3.7 8.5-2.6 7.9-12.8 6.6-4.1-.6-4.9-.3-7.3 2-2.6 2.6-2.7 2.9-2 11l.7 8.3-7.8 8.2-7.9 8.2-6.5-2.9c-7.8-3.5-42.9-15.2-45.8-15.2-1.1 0-3.5-1.9-5.6-4.4-3.2-4-3.5-4.8-3-8.8.8-5.9-2-18.3-5.1-23.1-4.4-6.6-10.1-7.8-24.5-5.2-3.5.7-3.6.7-3.8-3.1-.3-4.4-1-5.7-2.4-4.8-.6.4-.8 2.4-.4 5l.5 4.3-5.7 2c-3.1 1.2-7.7 3.2-10.2 4.5-4.2 2.3-4.7 2.9-7.3 10.7-2.6 7.6-2.7 8.8-1.6 12.9.6 2.5 1.5 6.8 1.9 9.6 1.1 7.2 3.2 11 9.8 18.1 5.1 5.5 6.5 6.4 13.7 8.6 4.4 1.4 10.6 2.8 13.8 3.2 6.3.8 6.4 1 4.6 8-.5 2.2-1.4 11.6-1.8 21-.5 9.7-1.6 19.3-2.5 22.3-.8 3-1.8 8.7-2.2 12.8l-.7 7.4h123.7c68 0 123.6-.3 123.6-.7s-2.6-5.9-5.7-12.1c-6-12-7.4-18.3-5.6-25.2.9-3.3 1.3-3.5 7.9-5.1 11.5-2.8 15.9-4.9 12.3-6.1-.6-.2.6-1.7 2.6-3.3 3.4-2.6 3.6-2.9 1.9-3.6-4.3-1.7-10.2-.8-20.2 3.1-5.7 2.2-10.7 3.8-11.2 3.5-.4-.3-1.1-3.3-1.5-6.7-.4-3.5-1.4-8.2-2.2-10.6-.7-2.3-1.2-4.6-.9-5 .2-.4-.2-3.7-1-7.2-.8-3.6-1.5-7.2-1.5-8-.1-1.5-5.3-26.4-6.6-31-1.3-5 2.4-.2 4.7 6 2 5.3 4 7.8 4 5 0-.6.8-.5 2 .2 1.5 1 2.2 1 3.2 0s.9-1.8-.4-4c-5.1-8.2-5.7-10-6.4-19.9s.1-21.3 1.4-21.3c.4 0 2.5 4.5 4.6 10s4.3 10 4.7 10c.5 0 .5-1 0-2.3-.4-1.2-1.1-3.6-1.5-5.2-.6-2.8-.5-2.9.9-1.1 1.9 2.5 1.9 1.1.1-6.7-.7-3.1-1.2-5.7-1.1-5.7.2 0 3 5.6 6.3 12.5 3.4 6.9 6.4 12.5 6.8 12.5.3 0 .3-.8-.1-1.8-.6-1.6-4.5-18.9-4.5-20.1 0-.3 2 2.4 4.5 6.1 4 6 6.5 8.8 6.5 7.4 0-.4-.7-5.2-1.5-10.9-.9-5.6-1.5-13.8-1.5-18.2.3-12.8-1-52-2.1-64-1.9-20.6-8.4-46.3-14.9-58.9-2-3.8-3.4-8.4-4-12.8-1.6-13.1-12.1-28.2-24-34.7-5.7-3.1-7.3-3.5-13.5-3.5-4.1 0-8.5.7-10.7 1.6-3.4 1.5-3.9 1.5-7.5-.3-2-1-4.7-1.9-5.9-1.9-2.2 0-5.1-1.9-11.6-7.6-3.5-3.1-17.6-10.5-19.4-10.3-.5.1-4.2 1.3-8.2 2.8m21.7 178.9 2.9 5.8-4.9 4.3-4.9 4.2v-3.9c0-8.4 1.3-16.2 2.6-16.2.8 0 2.7 2.6 4.3 5.8"/></svg>