<svg xmlns="http://www.w3.org/2000/svg" width="682.667" height="512" version="1.0" viewBox="0 0 512 384"><path d="M0 192v192h283.2l-.7-3.6c-1.3-7.4-5.7-21.1-9.1-28.5-2.1-4.8-3.4-9.2-3.4-11.8v-4.2l6.1 4.8c3.4 2.6 9.8 8.7 14.3 13.5 6.2 6.8 8.5 8.7 10 8.2 1.2-.4 1.6-.2 1.2.5-.4.6-.2 1.1.4 1.1s1.3-.7 1.6-1.5c1.3-3.4 6.1-.8 8.8 4.7.6 1.2 2.5 2.9 4.1 3.7 1.7.9 4.7 2.6 6.8 3.9 3.7 2.3 4 2.3 5.9.6 1.6-1.6 2.1-1.6 2.8-.4 1.4 2.2 1.2 4-.5 4.6-.8.4-1.5 1.5-1.5 2.5 0 1.7.8 1.9 7.5 1.9 4.1 0 7.5-.3 7.5-.8 0-.4-.7-2.9-1.5-5.6-2.1-6.9-8.7-15-15.7-19.4-10.8-6.7-14.3-9.7-14.3-12.1 0-1.6-4.9-6.8-17-18.2l-16.9-16 .2-4.2c.6-9.4 1.5-14.3 3-16s1.8-1.5 5.7 2.3c2.2 2.2 4.3 4 4.7 4 .9 0 5.8-12.7 5.8-14.9 0-1.5-1-2-5.4-2.5-5-.7-5.4-.9-6-3.8-.3-1.7-2.6-5.8-5-9.2-4.9-6.9-6.5-11.1-7-18.2-.2-2.7-.5-5.6-.7-6.4-.8-2.9 24.9-18.1 36.6-21.6 8.6-2.6 8.8-2.9 8.2-9.6-.5-6 .5-8.1 2.6-5.6 1.2 1.5 7.5 4.4 8.1 3.7 7.4-9.2 8.7-11.4 8.2-13.8-.3-1.4-.8-4.5-1.1-6.8-.6-3.5-1.8-5.4-6.9-10.5-4.1-4.2-7.7-9.1-10.5-14.6-2.4-4.5-4.7-8.2-5.2-8.2-.4 0-2-2-3.5-4.5-2.9-5-4.1-5.2-9.9-1.3-2.2 1.5-3.6 3.7-4.9 7.9l-1.9 5.8 3.2 6.5c1.8 3.6 3.7 6.8 4.2 7.2.6.3 2.3 2.4 3.9 4.6 2.7 3.7 2.8 4.1 1.4 7.3-.8 1.9-1.3 3.8-1.2 4.2.2.5-.8.8-2.2.9s-6.9 3.1-12.2 6.7c-5.4 3.7-9.9 6.7-10.1 6.7-.3 0-1-1.3-1.7-3-1.1-2.8-1.1-4.8.6-12.7.9-4.7-.3-8.2-3.1-9.3-2.9-1.1-2.4-4.4.6-3.5 2.6.9 4.8-3.1 4.2-7.8-.6-4.2-1.2-4.3-7.3-2.2-2.4.8-4.5 1.3-4.7 1.1-.3-.2-.9-5.1-1.4-10.8-1.1-12.9-2.5-19.1-5.1-22.3-2.7-3.5-5.2-3.1-10.3 1.6-4.3 4-4.5 4-8.1 2.9-2.2-.8-6.9-1.1-12-.8l-8.4.4-4.6-3.8c-7.3-6-10.3-4.9-15.5 5.9-1.3 2.6-3.7 6-5.5 7.5-1.8 1.6-3.8 4.5-4.4 6.3-.6 1.9-1.4 3.5-1.8 3.5-.3 0-2.8-2.1-5.4-4.7-4-3.9-4.8-4.4-5.4-2.9-1.1 2.7.2 12.5 2.6 19.5 1.7 5.2 1.9 6.6.8 7.2-1.7 1.2-2.1 1.1-4.1-.4-1.7-1.1-1.8-7-1.7-90.5V0H0zm179.4-10.5c-.4.8-.8 1.5-1 1.5s-.4-.7-.4-1.5.4-1.5 1-1.5c.5 0 .7.7.4 1.5m6.4 7.5c1.7 1.1 3.2 2.4 3.2 3 0 .5-2 1.5-4.5 2.1-4.8 1.2-5.1 1.8-3.4 6.8 1.1 3.2 2.4 4 3.1 1.9.3-.9 1.2-.8 3.2.6 2.1 1.3 2.6 2.3 2.2 4-.8 3.1 1.8 11.6 4.4 14.3 1.1 1.2 2 2.6 2 3 0 .5 2.3 3.3 5.1 6.2 3.5 3.6 4.8 5.8 4.4 6.9-.4 1-.9 3-1.2 4.7-.3 1.6-1 3.8-1.5 4.7-.7 1.4-21.9 14.8-23.4 14.8-.2 0-.4-16.6-.4-36.9 0-41.2-.2-40.3 6.8-36.1m12.2 21c0 2.3.4 2.8 1.6 2.3 1.4-.5 1.5-.3.4 1.7l-1.2 2.2-1.9-2.8c-1.9-3-2.4-5.6-1.3-6.7 1.2-1.2 2.4.4 2.4 3.3m75.7 2.2c-.3.8-.6.5-.6-.6-.1-1.1.2-1.7.5-1.3.3.3.4 1.2.1 1.9M214 229c0 .5-.4 1-1 1-.5 0-1-.5-1-1 0-.6.5-1 1-1 .6 0 1 .4 1 1m-15.5 34.4c-5 7.7-14.3 25.4-17.6 33.6-1.3 3.3-1.4 2.8-1.9-10.5l-.5-14-6.2 6.2c-10.1 10-15.1 18.7-21.7 37.2-4.3 12-4.3 12-6.6 11.4-1.7-.4-2-1.1-1.5-2.7.4-1.1 1-4.4 1.5-7.1.9-6.2 9.1-26.1 13.8-33.5 4-6.5 11.1-14 17-18.1l4.2-3 .1 2.3c.1 1.3 0 3.4-.1 4.7-.2 2.2.2 2.1 5.7-2.1 8.3-6.5 17.5-12.8 18.4-12.8.5 0-1.6 3.8-4.6 8.4m4 15.8c-4.5 11.3-8.9 26-11.5 38.8-2.7 13.4-7.2 47.1-6.6 49.4.5 1.9-3.5 10.9-5.4 12.1-.6.4-1-3.3-1.1-10.7l-.1-11.3-1.7 7.7c-1 4.3-2 8.1-2.4 8.4-.3.3-1.3-1.1-2.1-3.1-1.1-2.6-2-3.5-3.1-3.1-.8.3-2.1.9-2.9 1.2-1.1.4-1.6-.7-2.1-4.8-.5-4.4.1-8.3 4-23.3 4.8-18.9 8.9-32.7 10.5-35.4.6-1 1 5.7 1.1 19.4l.1 21 2.3-10.6c3.2-14.2 7-27.6 10.7-37.9 3.5-9.6 12.7-28.5 13.4-27.7.3.3-1.1 4.7-3.1 9.9m10.6 7c1.9 3.5.4 15.8-4 33.2-3.7 14.3-8 25.4-8.9 22.7-.5-1.6 2.7-26.3 4.8-36.4 2.5-12.4 5.2-21.7 6.1-21.7.5 0 1.4 1 2 2.2"/><path d="M178.3 351.5c0 2.2.2 3 .4 1.7.2-1.2.2-3 0-4-.3-.9-.5.1-.4 2.3"/></svg>