<svg xmlns="http://www.w3.org/2000/svg" width="682.667" height="512" version="1.0" viewBox="0 0 512 384"><path d="M0 192v192h172v-17.8c0-15.9-.2-18.3-2.1-22.1-1.8-3.9-2.2-4.2-5-3.6l-2.9.7v-5.4c0-3.8 1.4-9.6 4.9-19.8l4.9-14.5.2 21.5c.1 24.1.2 24.1 5.6 2.6 7.8-31.3 17.2-55.5 28.2-72.4 2.7-4.1 3.4-.8.8 3.9-4.5 8.1-11.7 28.1-15.2 41.8-4.8 19.1-9.2 41.1-8.6 43.3.4 1.8.6 1.8 2.8-.3 3.7-3.5 4.1-1.4 1 4.9-7.6 15.2-11.8 25.9-11.7 29.5 0 2.1-.4 4.7-.9 5.8-1.1 1.9 0 1.9 56.5 1.9 35 0 57.5-.4 57.5-.9 0-4.9-9.4-38.7-13-46.6-4.1-9-5-11.9-5-15.4 0-5.1 1.2-11.4 1.9-10.4.3.5 2.2 2.1 4.1 3.7 6.3 5.2 18.8 17.5 24 23.6 2.7 3.4 5 5.8 5 5.4 0-.5.5-.3 1.2.4.9.9 1.7.7 3.4-.9 2.6-2.5 5.1-1.6 8.4 3.1 1.1 1.6 3.8 3.7 5.8 4.7 2 .9 5 2.5 6.5 3.6 2.6 1.8 2.9 1.8 4.6.3 1.6-1.5 1.9-1.5 3.4.2 2.2 2.5 2.1 3.8-.4 5.6-1.2.8-1.9 2.2-1.7 3.3.4 1.9 1 2 4.2.7 1.7-.7 1.8-.4 1.2 2.9-.6 3-.4 3.7.9 3.7.8 0 1.5.4 1.5 1 0 .5.4 1 1 1 1.8 0 4.3-6.5 4.2-11.1-.2-10.6-6.8-19.2-20.2-26.4-6.8-3.8-9-5.4-8.7-6.7.3-1.1 0-1.5-.9-1.1-1 .4-1.2 0-.8-1.1.4-1.2-4.1-6.3-16-18.1L286 291.9l-.6-9.7c-.6-8.8-.5-9.9 1.3-11.5 1.9-1.7 2.1-1.6 6.5 2.3 2.6 2.2 4.8 4 5.1 4 1 0 3.8-11.2 3.5-13.8-.2-1.5-1-2.8-1.8-2.9-8.1-1-8.9-1.4-9.5-4.3-.3-1.6-3.3-6.2-6.6-10.2-5.1-6.3-5.7-7.5-4.4-8.4 2.8-2 17.2-3.7 26-3 7.3.5 8.5.4 10.7-1.4 1.4-1 3.1-3.3 3.8-5 1.4-3.3 2.1-3.6 4.9-1.8 1.5.9 2.9.4 8.4-3.6 8.3-5.9 10.1-10.1 7.2-16.6-1-2.2-2.6-4.7-3.6-5.6s-2.3-4-2.9-6.9-1.9-6-3-7c-1.7-1.5-2.1-1.5-6 .5-4.5 2.3-10.6 8.2-12 11.5-.5 1.2-.2 3 .6 4.7 2 3.9 1.8 4.4-2.3 4.4-2.1 0-7.7.8-12.5 1.7s-11.6 1.9-15.3 2.3l-6.6.7 3.6-5.4c4-6.1 7.4-14.5 8.2-20.1.7-4.8-2.1-13.5-5.5-17.2-1.5-1.6-4.6-3.7-6.8-4.7-4.8-2.2-7-4.4-5.4-5.4 1.1-.7 1.4-8.6.4-12.2-.6-2.1-.8-2.2-3.5-.7-3.5 1.7-4.9 1.2-4.9-2 0-3.5-3.9-17.5-6-21.6-1.1-2.1-3.1-4.7-4.6-5.9-2.3-1.8-2.9-1.9-5.3-.7-1.4.8-3.9 2.7-5.6 4.2-2.7 2.6-3.7 2.9-10 2.9-4 .1-9.2.8-12.2 1.9l-5.2 1.7-4.7-3.5c-2.6-2-5.7-3.6-7-3.6-3.1 0-5.8 3.8-7.8 11.1-1 3.4-2.6 7.5-3.7 9.3-1 1.7-1.9 4.3-1.9 5.8 0 3.9-1.4 3.5-6.4-1.9l-4.3-4.6-.7 3.7c-.5 2.8 0 5.7 2.4 12.4 4.4 12.1 4.5 12.8 2.4 13.6-.9.4-2.2.2-2.8-.4-1.5-1.5-4.3-1.2-4.9.4-.7 1.8 4 6.6 6.4 6.6 1 0 2.9.5 4.3 1.1 3.5 1.6 2 4.2-3.3 5.8-2.3.6-4.1 1.6-4.1 2.1 0 1.7 6.3 7.5 6.8 6.2.2-.7.9-.9 1.5-.5.7.5 2.3.8 3.7.8 1.8 0 2.4.5 2.2 1.7-.3 2 1.4 2.5 2 .6.3-.7 1.3.2 2.3 1.9s2.7 3.4 3.7 3.7c1.1.2 1.9 1.2 1.8 2.3-.4 3.1 0 3.6 1.5 2.3 1.3-1.1 1.8-.6 3.5 3.3 3 6.8 3.4 10.1 1.7 12.8-.9 1.3-1.9 5.5-2.3 9.4-.8 8.5-1.4 10.1-5.6 15.9-2.6 3.5-5.2 5.4-11.8 8.7-4.7 2.3-9.7 5-11.1 6s-3.1 1.9-3.7 2.1c-1.4.3-1.8-163.3-.5-227l.6-35.2H0zm279.9-14.4c6.5 7.4 5.2 17.7-3.4 26.8-2.2 2.4-4 3.5-4.6 2.9-.5-.5-.6-4.8-.3-10.1.6-7.9.9-9.2 2.5-9.2 1 0 2.1.4 2.4 1 1.2 1.9 2.5 1 2.5-1.8 0-1.5-.7-4.8-1.5-7.5-1.6-5.3-.9-5.9 2.4-2.1M263 204c1-1.6 2.5 1.1 3.4 6.2.5 2.8.3 3.8-.6 3.8-.7 0-2.3.3-3.5.6-3.1.8-3-1.3.1-2.7 2.7-1.3 2.8-3.6.3-5.1-.9-.5-1.7-1.7-1.6-2.6q0-1.8.6-.3c.4 1 .7 1.1 1.3.1m-47.3 10.7c.2.6-.4 1.3-1.3 1.7-2.1.8-2.6.3-1.8-1.8.7-1.8 2.5-1.7 3.1.1m42.3.3c-2 1.3-3.3 1.3-2.5 0 .3-.6 1.4-1 2.3-1 1.5 0 1.5.2.2 1m-71.2 52.2c-2.7 5.1-6.8 13.5-8.9 18.8-2.2 5.2-4.4 10.4-4.9 11.5-.6 1.3-.9-2.8-.7-11.7.2-13.3.3-13.8 2.8-16.3 2.7-2.7 14.9-11.4 16.1-11.5.3 0-1.6 4.1-4.4 9.2m-14.3.9c0 1.7-1 4-2.1 5.2-4.9 5.3-9.6 12-15.7 22.3-6.5 10.9-7.4 11.7-11.5 10.5-.1-.1.4-1.3 1.1-2.9.7-1.5 1.2-3.5 1-4.4-.8-3.3 22.8-33.8 26.1-33.8.7 0 1.1 1.3 1.1 3.1m42.9-1.5c.9 2.5.7 10.8-.5 16.6-3.2 15.7-11.9 39.4-15.1 41.4-1.1.7-1.1.6 1.7-15.1 2.5-14.7 5.8-27.9 9.4-38 1.1-3.2 2.1-6.1 2.1-6.2 0-1 1.9 0 2.4 1.3"/></svg>