<svg xmlns="http://www.w3.org/2000/svg" width="682.667" height="512" version="1.0" viewBox="0 0 512 384"><path d="M0 192v192h80.8l80.7-.1 2.7-5.7 2.6-5.7.1 5.7.1 5.8h127l-.9-2.3c-.5-1.2-2.5-4.9-4.5-8.2-2.2-3.7-3.6-7.3-3.6-9.3 0-1.9-.7-5.9-1.6-9-2.5-8.5-11.8-34.1-14.9-40.8-2.3-5.1-2.7-6.8-2.2-12.6.4-6.5 2.8-12.3 4.7-11.6 2.5.8 21.9 20.1 26.8 26.6 6.1 8.1 8.7 9.8 11.4 7.5 2.2-2 5.2-.9 7.9 2.8 1.1 1.6 3.9 3.9 6.2 5.1 2.3 1.1 5.3 2.9 6.7 4 2.4 1.9 2.5 1.9 4.2-.1l1.7-2.1 1.5 2.2c2.1 3 2 5.1-.3 7.2-2.3 2-1.7 4.6.9 4.6 1 0 2 1 2.4 2.4.8 3.1 3.5 4.1 5.1 1.9 2.2-3 2.5-6.9.9-12.9-2.7-10.4-7.2-15.6-19.3-21.9-6.4-3.4-9-6.2-8.3-8.9.2-.5-3.9-5.2-9-10.5-22.7-23.4-23.9-24.9-24.9-31-1.1-7-1.1-15.2 0-16.9.7-1.1 1.6-.9 4.7 1.1 2.2 1.3 4.7 3.4 5.8 4.5 1 1.2 2.2 1.9 2.6 1.7 1.2-.8 2.3-10.1 1.5-13.5-.6-2.8-1-3-4.8-3-4.9 0-6.2-.7-7.1-3.8-.7-2-.4-2.2 2.8-2.2 2 0 5.9.9 8.8 2 7.1 2.7 8.2 2.6 12.8-1.6l4-3.6 1 2.7c.6 1.5 1.6 2.5 2.3 2.2.6-.3 3.2-1.3 5.7-2.2 5.2-2.1 8.2-4.4 7.4-5.7-.3-.5.2-1.8 1.1-2.8 2.2-2.4 1.6-11.1-.9-13.8-1.2-1.5-1.6-4-1.6-11.6 0-12-.7-13.6-6.1-13.6-4.8 0-9.3 1.8-13.8 5.7l-3.4 2.9 2.5 8.1c2.6 8.4 2.3 11.2-1.1 9.4-.9-.5-4.4-.9-7.7-.9-3.4 0-11.2-.6-17.3-1.2-11.3-1.3-11.3-1.3-12.8-4.5-1.8-3.8-5.7-5.9-14.2-7.6-5.5-1.2-8.3-2.9-4.6-2.9.8 0 1.5-.8 1.5-1.8 0-1.4.4-1.2 2 .8l2 2.5-.1-6.5c-.2-10.4-.1-10.9 1.9-10.3 1.7.5 6.9 6.8 11 13.5 1.4 2.3 3.1 3.8 4.3 3.8 4.5 0 16.3-15.1 19.9-25.4 2.3-6.7 2.4-8.6.9-13.9-2.5-9-11.6-14.8-25.4-16.2-7-.7-7-.7-7.1-3.7-.1-1.7-.8-3.6-1.5-4.2-.8-.6-2.3-2.8-3.3-4.9-1.4-2.6-2.5-3.7-3.8-3.5-1.5.2-2.4-1.1-4.2-6.2-3.2-9.1-6.3-14.9-9.9-18.8-4.4-4.6-7.6-4.3-13.1 1.3-3.6 3.6-5.2 4.5-7.9 4.5-4 0-13.3 2.6-16.5 4.6-2.1 1.4-2.6 1.2-6.9-2.1-8.2-6.3-11.5-4.3-14 8.6-.9 4.6-2 10.1-2.5 12.2l-.9 3.8-3.5-3.1c-1.9-1.7-4-2.8-4.6-2.4-1.9 1.2-.2 10.7 3.1 18.3 3.2 7.2 3.3 7.5 1.5 8.8-1.1.8-3.1 1.7-4.6 2-1.6.3-2.8 1.2-2.8 1.9 0 2.1 7.9 6.7 9.4 5.5 1.6-1.4 4 .3 3.3 2.3-.4.9-2.2 2.6-4.2 3.7-1.9 1.2-3.5 2.4-3.5 2.9 0 1.2 3 3.4 3.6 2.7.4-.3 1.4.3 2.3 1.5 1.5 1.8 2 1.9 4 .7 1.9-1.1 2.5-1.1 2.8-.2.3.7 1 1.3 1.7 1.3s3 1.3 5.1 3c4.2 3.4 5.7 3.8 4.8 1.3-.4-1.1-.3-1.4.5-.9.7.4 1.2 1.8 1.2 3.1s.5 2.7 1.1 3.1c.6.3 2.1 2.9 3.4 5.6 2.1 4.6 2.2 5.3.9 8.3-.8 2-1.6 8.9-2 16.7l-.6 13.3-6.4 9.6c-5.2 7.8-7.7 10.5-13.2 14.2-3.7 2.6-8.6 6.3-11 8.4l-4.4 3.7.8-134.7.7-134.7H0zm278.9-39.2c3.4 1 6.9 3 9.3 5.2 3.3 3.2 3.8 4.3 3.8 8.1s-.8 5.4-5.3 11.4c-3 3.9-6.5 7.4-8 7.9-2.4.9-3.1.5-6.2-3-3.1-3.4-7.2-13-6.1-14.2.2-.2 1.3.1 2.4.7 1.2.6 2.4 1.1 2.9 1.1 1.6 0 1.3-5.3-.3-7.1-1.7-1.9-4.3-8.4-4.4-11.1 0-2 2.6-1.8 11.9 1M211 198.2c0 .4-.7.8-1.5.8-1 0-1.5-1-1.5-2.8.1-2.6.1-2.6 1.5-.8.8 1.1 1.5 2.3 1.5 2.8m9.6-.7c1 .8 1.4 1.5.7 1.5-1.9 0-4.3-1.1-4.3-2.1 0-1.3 1.4-1.1 3.6.6m-10.8 48.7c-.6 1.7-6.7 5.2-7.6 4.3s4.5-5.5 6.4-5.5c.9 0 1.4.6 1.2 1.2m-4.6 9.1c-4 4.8-20.2 54.8-20.8 64.2-.2 3.6-1.3 8-2.7 11-4.5 9.4-9 24.4-8.4 28.2.5 2.9 0 4.4-2.8 8.5l-3.5 5v-26.3c.1-23.4.2-26.2 1.5-24.5.8 1.1 1.5 2.7 1.5 3.5.1 4.1 3.4-3.6 9.6-22.3s14.3-38.8 17.9-44.3c1.6-2.4 4.6-4.1 7.4-4.2 1-.1 1.1.2.3 1.2M182 265.5c0 .2-.8 1.9-1.8 3.7s-4.3 9.1-7.3 16.3l-5.4 12.9-.5-10.8-.5-10.8-8.2 8.4c-4.5 4.7-9 8.4-10.2 8.5-1.9.2-2 0-.8-2.1.6-1.3 5.4-6.7 10.5-12.1 8.9-9.4 9.2-9.6 9.2-6.6v3.1l6.8-5.5c6.2-5 8.2-6.3 8.2-5m26.1 12.6c-.5 1.3-1 1.9-1 1.2-.1-1.5 1-4.5 1.5-4 .3.2 0 1.5-.5 2.8m-42.3 41c-4 2.6-4.8-3.7-1.6-12.3l2.3-6.3.3 8.9c.2 6.5-.1 9.2-1 9.7"/></svg>