<svg xmlns="http://www.w3.org/2000/svg" width="682.667" height="512" version="1.0" viewBox="0 0 512 384"><path d="M0 192v192h79c78.2 0 78.9 0 80-2 .6-1.1.8-2.4.5-2.9-.7-1.2 3-11 5-13.7 1.5-1.7 1.6-1 1.3 8.3l-.4 10.3h65.8c74.3 0 67 1 61.6-8.3-1.5-2.6-2.8-5-2.8-5.3s-1.8-3.2-4-6.4-4-6.7-4-7.8c0-3.9-4.1-15.7-16.1-45.9l-4.1-10.3 5.1-8.2 5.1-8.3 9.8 10.1c5.3 5.5 11.5 12.6 13.7 15.7 2.3 3.3 4.8 5.7 5.8 5.7s1.6-.4 1.3-.9 0-1.3.7-1.9c1.6-1.4 4.6.3 8.1 4.5 1.5 1.8 5.5 5.1 8.9 7.3 5.3 3.6 6.5 4 8.1 3s2.2-.9 3.2.5c1.6 2.1.4 4.9-2.6 6.5-2.9 1.6-2.4 3.3.8 2.8 2.5-.4 2.8-.2 2.4 2.3-.3 2.1.1 2.9 1.7 3.4 1.2.3 2.1 1 2.1 1.4 0 2.2 3.1.3 4.5-2.8 1.3-2.9 1.4-4.6.5-8.9-1.1-6.2-1-6-6.8-13.4-2.5-3.2-7.3-7.6-11-10-3.6-2.4-6.9-4.6-7.4-4.9s-1.1-1.2-1.2-2c-.7-3.6-2.9-6.4-15-19.4-7.2-7.6-14.3-15.2-15.7-16.8-2.9-3.2-3.9-7.9-3.9-18.8 0-8.4.8-8.7 7.8-2.4 2.8 2.5 5.3 4.2 5.6 3.7s.8-2.8 1.2-5.1c.9-5.7-1.9-11.1-5.7-11.1-3.7 0-5.9-.9-5.9-2.5 0-2 10.7-2.6 18.5-1 10.1 2.1 11 2 15.2-2.5 2.1-2.2 4.1-4 4.4-4s1.1 1.1 1.7 2.5c1.9 4.2 8.6 2.6 15.5-3.7 4.1-3.8 4.3-4.8 2.3-8.6-.8-1.5-1.8-4.5-2.2-6.7-.8-3.5-1.3-4-4.4-4.6-5.7-.9-7.8-2.6-11-8.9-2.4-4.8-3.6-6-6.6-7-5.8-1.9-14.6-.7-18.8 2.5-4.8 3.6-4.7 6.6.2 10.1 2 1.6 4.1 3.2 4.7 3.6.5.4-7.3.8-17.3.8-12.2 0-18.2-.4-18.2-1.1 0-.6-1.2-2.5-2.6-4.4-2.5-3.3-9.3-6.5-13.9-6.5-3 0-3.7-1-1.9-2.7 1.2-1.2 1.7-1.3 3-.2 1.3 1 1.4.7.9-3.2-.4-2.4-.8-5-1.1-5.7-.2-.7.3-1.5 1.1-1.8.8-.4 1.5-1.6 1.5-2.8.1-2 .2-2 2.5.6 2.7 3.2 3.2 3.4 3.7 1.4.4-1.9 2.1-.6 7.6 6.1 5.9 7.1 8.7 7.2 15.3.4 8.1-8.4 13.9-20.2 13.9-28.4 0-4.9-1.6-8.6-5.3-12.5-5.9-6.2-9.8-7.5-23.4-8-9.2-.3-12-.7-11.7-1.7.3-.7-1.8-3.9-4.5-7-2.8-3.2-5.1-6.1-5.1-6.5s-.9-1-2-1.3-2-1.3-2-2.2c0-3.5-8.4-18.7-11.9-21.6-5.2-4.3-8.5-3.9-14.1 1.6-3.8 3.8-5.5 4.7-10.5 5.6-3.2.6-7.9 2-10.3 3.2-3.4 1.6-4.8 1.8-6.1.9C183 99.3 179.9 98 178 99c-2.5 1.3-4.9 9.4-5.7 19.2-.3 4.3-.9 7.8-1.2 7.8s-1.5-.7-2.6-1.6c-1.9-1.5-2-1.3-2.5 4.8l-.5 6.3-1.8-3.9c-1.8-4-1.5-7.7.9-9.7 1.2-1 1.4-11 1.4-61.5V0H0zm169.3-44.8c-.2.5-1.1.8-1.9.8-1 0-1.4-1.3-1.4-4.8l.1-4.7 1.8 4c1 2.2 1.6 4.3 1.4 4.7m112.5-3.7c6.5 2.4 10.5 6.4 10.5 10.5 0 5.3-12.7 22-16.8 22-2 0-12.5-9-14.1-12.1-1.9-3.8-1.8-4.2 1.1-3.5 1.5.4 3.1.1 3.9-.6 1.2-1.1.8-2-2-5.9-1.9-2.6-3.4-5.8-3.4-7.2s-.4-2.9-1-3.2c-.5-.3-1-1.2-1-1.8 0-1.8 16.4-.5 22.8 1.8m-116.2 13.1c-.4 1.2-1 1.2-2.6.4-2.6-1.4-2.5-2.7.3-5 2.2-1.8 2.2-1.8 2.5.7.2 1.3.1 3.1-.2 3.9m5.4 3.9c3-.9 2.5.7-1.5 4.5l-3.5 3.4v-4.8c0-4.1.2-4.7 1.5-3.6.8.6 2.3.9 3.5.5m4.2 13.2c1.1.9 1.8 1.1 2.3.4 1.1-1.9 5.3-1.2 8.4 1.5 1.7 1.4 3.8 2.4 4.8 2.2 1.1-.2 1.9.4 2.1 1.7.3 1.1.8 2.2 1.2 2.5s1.4 2.1 2.2 4c1.2 2.8 1.4 7.2 1.1 21-.4 16.2-.3 17.8 1.6 21.4l2 3.9-4.3 6.1c-2.4 3.3-5.6 8.3-7.1 10.9-1.6 2.9-5.1 6.5-8.4 9-3.1 2.3-7.7 6.1-10.3 8.5l-4.8 4.5V169.1l3.8 1.6c2 .8 4.4 2.2 5.4 3m41.8 17c1.3 1.3 1.1 1.3-1.5.7-3.8-.9-4.5-1.3-4.5-2.5 0-1.3 4-.1 6 1.8m-9 56.7c0 2.7-1.3 4-6.3 6.1L198 255l1.6-3.3c1.4-3 5.6-6.6 7.7-6.7.4 0 .7 1.1.7 2.4m-6 15.5c-1.6 3.7-5.2 13.5-8 21.6-2.7 8.1-6.3 16.9-7.8 19.4-7.6 12.5-16.8 38.8-15.9 45.4.4 3 0 5.1-1.6 8.1l-2.2 4.1-.3-24.3c-.2-23.4-.3-24.4-2.2-24.9-2.5-.7-2.6-3.8-.2-8.9l1.7-3.9.3 6c.2 3.7.8 6.4 1.7 7.1.8.6 1.9 2.4 2.5 4l1.2 2.9 1.5-2.9c.9-1.7 3.7-9.2 6.4-16.7 5.5-15.8 13.4-35.4 15.5-38.7 1.4-2.1 6.4-4.9 9.1-5.1.8-.1.1 2.5-1.7 6.8m-19.9-1.1c-1.1 2.1-12 10.6-12.7 10-.4-.4 12.4-11.8 13.2-11.8.3 0 0 .8-.5 1.8m-5.1 10.5c0 .8-9.7 22.8-10.3 23.4-.4.3-.7-2.8-.7-7s-.3-7.7-.6-7.7-2 1.1-3.7 2.4c-1.8 1.4-4.3 3-5.7 3.6s-3.6 1.7-5 2.5c-1.3.8-2.6 1.2-2.9.9-.6-.6 16-17.4 17.2-17.4.4 0 .7.8.6 1.7-.5 5.5 0 5.6 4.9 1.4 4.1-3.5 6.2-4.8 6.2-3.8m91 8.1c0 .6-1.1 2.4-2.5 4.1l-2.4 3-.1-2.6c0-1.5.3-4.1.6-5.8.6-3 .8-3.1 2.5-1.5 1.1.9 1.9 2.2 1.9 2.8"/></svg>