<svg xmlns="http://www.w3.org/2000/svg" width="682.667" height="512" version="1.0" viewBox="0 0 512 384"><path d="M0 192v192h154.8l1.6-4.1c.9-2.3 1.6-4.2 1.4-4.4-.2-.1-1.7-.7-3.5-1.4-1.8-.8-4.2-2.9-5.3-4.9-1.8-3-2.1-4.7-1.7-11.5.4-7.1 1-9 5.7-18.4 4.6-9.3 5.1-10.8 4-12.8-1-1.9-.8-3.5 1-9.1 5.2-15.6 5.1-16.3 4.4 26.8l-.6 39.8h47.1c41.2 0 47.1-.2 47.1-1.5 0-1 1.1-1.5 3.5-1.5 3.4 0 5.5-1.6 12.2-9.1.7-.8 2.6-2.8 4.3-4.4 1.7-1.7 2.8-3.6 2.5-4.2-.2-.7.3-1.3 1.1-1.3 3.7 0-.1-6.6-13.2-22.9-8.6-10.7-11.3-16.2-5.3-10.5 2.6 2.4 3 2.5 2.6.9-.3-1.1-1.8-6.1-3.3-11.1l-2.7-9.2 2-2.8c3.6-5.1 10.2-19.1 12-25.4l1.6-6.1 3.7 3.6c4 3.9 5.2 4.2 7 2 1.8-2.1 2.9-1.9 4 .9.8 2.1 5.5 9 9.1 13.4.6.7 1.9 1 2.9.7 1.3-.4 2 0 2.5 1.4.8 2.6.1 3.8-3.8 6.1l-3 1.9 2.6 1.2c2 .9 2.5 1.7 2.1 3.3-.3 1.5.2 2.8 1.6 4.1 2.2 2 2.2 2 5-1.2 6.9-7.7 4.3-21.2-7-35.3-3.5-4.3-6-8.4-6-9.8 0-2.7-1.1-3.9-8.4-9.6-10.7-8.4-14.6-12.3-16.1-16.5-.8-2.3-3.5-8.9-6-14.7-2.6-5.8-4.4-10.8-4.2-11 .2-.3 2.7 1.6 5.5 4.1 5.5 5 6.3 4.8 6.5-1.9.2-5.3-1.3-7.3-6.4-8.1-2.2-.4-4.2-1.2-4.4-1.8-.2-.7-.6-2.5-1-4.1-.3-1.6-3.1-5.5-6.2-8.7-3.1-3.3-5.4-6.1-5.2-6.3.7-.6 14.9-2.5 26.9-3.7 13.7-1.3 33.6-1.6 40.3-.5 3.7.6 4.7.4 4.7-.7 0-1.9 3.2-4.7 5.4-4.7.9 0 1.9-.7 2.2-1.5.5-1.1 1-1.2 2.4-.3s2.1.8 3.3-.4c.9-.8 4-1.8 6.9-2.2s7.2-1.8 9.5-3.2c3.9-2.3 4.3-2.8 4.3-6.6v-4l-6.7.7c-3.8.3-7.8.9-8.9 1.2-1.7.3-2.3-.1-2.8-2.1-.8-3.1-2.9-3.3-10.6-1-4.5 1.3-5.5 1.4-6.7.2-1.1-1.1-2.7-1.3-7.1-.7-3.1.5-14.2 1.3-24.7 1.9-10.4.5-22.4 1.4-26.5 2-17.3 2.3-22.5 2.9-22.8 2.6-.2-.2-.9-2.7-1.7-5.6l-1.4-5.2 2.1 1.9c2 1.8 2 1.8 1.3-4l-.7-5.8 10.7 6.6c12.4 7.5 16.3 8.2 21.3 4.1 5.6-4.8 13.2-22.7 13.2-31 0-4.6-2.7-11.2-5.6-13.8-3.5-3.1-9.6-5-16-4.9-5.6 0-16.1 1.9-20.6 3.6-1.2.5-1.8.2-1.8-.6 0-1.9-3-4.8-4.5-4.3-2.4.9-8.3-6.5-10-12.5-2.3-7.8-7.9-19.1-10.9-22-3.2-3-5.8-2.4-12 3-4 3.6-5.6 4.3-9.9 4.6-2.9.2-7.6 1.5-10.4 2.8-3.3 1.5-5.5 2-5.9 1.4-1-1.7-8.6-6.9-10.1-6.9-1.1 0-1.3 6.8-1.3 38 0 32.5.2 38 1.5 38 .7 0 1.8.6 2.2 1.4s1.7 1.4 2.7 1.3c1.5-.2 2.7 1.3 4.9 5.8 3.5 7.2 4.5 12.8 2.6 15.1-2 2.5-2.3 16.8-.5 24.6 2.1 8.9 4.8 14.4 10 20.6 3.2 3.7 4.8 6.9 6.1 11.7l1.8 6.7-4.9 9.5c-4.5 8.8-5.6 10.1-13.8 16.6-7.1 5.7-8.5 7.3-7.4 8.1.8.6 1.3 1.7 1.1 2.3-.6 1.7 2.9 1.7 4.5.1 2-2 1.4 0-3.1 9.5-2.4 5.1-5.1 10.8-6 12.7-1.5 3.3-1.6-1.6-1.6-71.1-.1-41-.4-74.9-.7-75.2-.4-.3-1.5-.2-2.6.4-1.6.9-2.5.6-4.7-1.5-1.5-1.4-3.2-2.6-3.8-2.6-1.5 0-2.5-3.3-1.7-5.3.4-1.1-.5-2.7-2.4-4.6-3.5-3.5-4.6-5.9-3.3-7.5.4-.6 1.2-2.9 1.6-5.1.3-2.2 1.3-4.7 2.1-5.6 1.2-1.4 1.1-2.3-.6-7.4-2.1-6-2.4-9.2-1.4-11.9.9-2.3 2.4-2 5.5 1l2.7 2.6.7-4.8c1.5-10.6 3.7-18.5 6.1-21.3l2.4-2.9V0H0zm267.2-76.4c8.7 1.5 9.9 7.6 4.3 21.3-3.9 9.5-6.7 13.1-10.3 13.1-1.3 0-6.3-1.8-11.1-4.1-7.6-3.6-8.4-4.2-6.8-5.3 2.2-1.7 2.2-2.3-.8-5.8-2.1-2.4-2.4-3.6-1.9-6.8.5-3.3.3-4-2-5.5-1.4-1-2.4-2.1-2.1-2.5.3-.5 3.8-1.6 7.8-2.4 6.4-1.4 9.4-1.8 17.2-2.4 1.1-.1 3.7.1 5.7.4M231.4 164c.7 2.4.6 2.4-.8.6-.9-1.1-1.6-2.7-1.6-3.5 0-2.1 1.6-.2 2.4 2.9m-47.4 5.6c0 .7-.9 1.8-2 2.4-2.2 1.2-2.5.4-1.4-3.8.5-1.8.9-2 2-1.1.8.6 1.4 1.7 1.4 2.5m8.7-2c.2.6-.3 1.4-1.1 1.7s-1.6-.2-1.9-1.4c-.4-1.5-.1-1.9 1-1.7.9.2 1.8.8 2 1.4m68.7 61.5c2.6 6.1 4.6 11.2 4.4 11.4s-1.7-.9-3.4-2.4c-2.3-2.1-3.5-4.5-4.8-9.7-.9-3.8-1.9-7.7-2.2-8.7-.3-.9-.1-1.7.3-1.7.5 0 3 5 5.7 11.1m-4.9 29.9c.6 1-6.6 21-7.6 21-1.6 0-1.7-6.2-.1-15.7l1.6-10.2 2.8 2c1.5 1.1 3 2.4 3.3 2.9m11.9 10.3c.7 1.1.7 3.1-.2 6.4-1.5 5.8-10.2 23.6-11.8 24.1-.6.1-2.2-3.3-3.7-7.8l-2.5-8.1 2.8-6.7c1.5-3.7 3.5-8.9 4.5-11.5l1.7-4.8 4.1 3.4c2.2 1.8 4.5 4.1 5.1 5"/></svg>