<svg xmlns="http://www.w3.org/2000/svg" width="682.667" height="512" version="1.0" viewBox="0 0 512 384"><path d="M0 192v192h132l2.1-4.2 2.1-4.2-2.8-2.3c-1.6-1.3-2.7-2.9-2.6-3.6.2-.6.8-4.1 1.3-7.5.6-4.3 2.7-10.2 6.4-17.9 3-6.4 5.5-11.8 5.5-11.9 0-.2-.6-.3-1.2-.1-2.3.4-1.1-13.4 2.2-27 3.1-12.3 5.2-17.6 14.6-35.1l3.9-7.3.3 60.3.2 60.3 35.5.3c32.6.2 35.5.1 35.5-1.4 0-1.9 5-7 6.4-6.6 1.7.5 7.6-2.9 7.6-4.3 0-.8.9-1.5 1.9-1.5 2.5 0 7.8-4.4 9.7-8.3.9-1.6 2.7-4.1 4-5.4s2.4-3.2 2.4-4.3c0-1 .5-2 1.2-2.2 1.3-.5-7.6-14.3-15.1-23.3-4.3-5.1-4.7-6-3.1-6.3 1.8-.3 1.7-.8-1.2-6.7l-3.2-6.4 5.2-10.8c2.8-5.9 5.8-13.7 6.8-17.3 2.5-9.5 8.3-13.9 11.8-8.9.8 1.2 1.9 1.8 2.5 1.4 1.6-1 1.4 5.5-.5 13.1-.9 3.5-3.4 9.3-5.5 12.7-2.2 3.4-4.7 7.7-5.6 9.5-1.6 3.1-1.6 3.4-.1 4.3.9.5 2.4 1.6 3.2 2.5 1.4 1.3 2 .5 6.1-7.6 6.9-13.8 8.4-18.2 9.5-28.8 1.6-14.2 1.6-14.1 2.3-14.9.4-.3.7-2.7.7-5.2 0-5.9-3.6-12.5-7-12.9-1.4-.2-3-.8-3.7-1.4-.7-.5-2.3-.8-3.7-.6-2.5.3-6.2-3.3-15.4-15-3.6-4.5-3.3-5.6.5-2l2.3 2.2 2.1-2.1c1.4-1.4 2.1-3.5 2.2-6.9l.2-4.9-5.2-.9c-5-.8-5.4-1.1-6.3-4.6-.5-2-2.3-5-4-6.6-3.6-3.5-3.8-4.6-.6-3.8 1.7.4 2.8-.1 4.3-2 1.7-2.1 3.1-2.6 9.4-3.1 6.7-.6 7.8-.4 12.2 1.9 3.8 2.1 5.2 2.4 6.8 1.5 1.1-.5 2.9-.7 4-.4 1.5.5 2.9-.1 4.9-2 2.7-2.5 2.9-2.6 5.2-1.1 2.1 1.4 2.7 1.4 4.4.1 1-.8 3.1-1.5 4.6-1.5 3.5 0 7.8-1.7 10.3-4s3.1-2.4 32-6c13.2-1.6 25.7-3.3 27.9-3.6 7-1.1 10-7.4 3.5-7.4-1.6 0-16.2 1.6-32.4 3.6l-29.5 3.6-4.8-2.4c-4.4-2.2-5.8-2.3-22.7-2.2-17.4 0-18.1 0-20-2.2-1.9-2.1-2.3-2.2-13.5-1.4-20.8 1.6-19.4 1.8-22.9-4.6l-3-5.5 2.5-3.6c1.3-2 2.4-4.2 2.4-4.9 0-1.9 1-1.8 7.2 1.1 6.3 2.9 13.7 3.3 17.8.8 5.7-3.3 11-18.5 11-31.6 0-8.3-1.9-12.3-6.5-14.3-4.6-1.9-8.7-1.8-18 .6-4.3 1.1-8.1 2-8.5 2s-.5-4.8-.3-10.8c.6-13.5-.1-15.5-6-17.2-4.4-1.2-4.7-1.1-7.4 1.4-3.3 3.1-2.4 2.9-9.3 1.1-3-.8-8.4-1.5-11.9-1.5-5.3 0-6.9-.4-8.9-2.3-1.9-1.8-3.3-2.2-7.9-2-5.2.3-5.8.6-10.9 5.8L164 89v30.8c0 28.3.2 31.4 2 36.7 1.6 4.6 1.7 6 .8 6.7-2.4 1.5-2.8.8-2.8-5.3 0-5.7-.1-6.1-2.1-5.6-1.5.4-2.3 0-2.6-1.4-.4-1.4-1.1-1.8-2.5-1.3-1.9.6-1.9.5-.3-2.5 1.7-3.4 1.3-5.3-1-4.4-.9.3-1.5-.1-1.5-1.1 0-2.2-5.9-2.2-7.5.1-1.1 1.5-1.5 1.4-3.9-1.2-1.4-1.5-2.6-3.2-2.6-3.6 0-.5 1.7-1.3 3.8-2 4.5-1.3 8.2-5.6 6.1-7-.8-.5-3.6-.8-6.4-.7-4.4.3-5.1 0-6.4-2.4-2.2-3.8-.4-5.6 3.7-3.9 2.8 1.2 8.2.6 8.2-.8 0-.4-1.1-3.9-2.4-7.8s-3-9.6-3.6-12.6c-1.2-5.2-1.1-5.7 1.2-9.6l2.5-4.2 4.5 5.2 4.5 5.2 4.1-4.4 4.1-4.4.1-43.8V0H0zm254.6-80.2c1.8 1.2 3.4 4.9 3.4 7.9-.1 4.1-4.5 19.9-6.5 22.9-2.1 3.3-3.6 3.8-9 3-5.2-.8-6-1.9-7-9.6-.7-5-.6-5.3.9-4.1 1.3 1.1 1.6 1.1 1.7 0 .3-3.1-.5-4.5-4-7.5-2.2-1.9-3.7-4.2-3.9-5.8-.2-2.8.7-3.3 2.6-1.4.9.9 1.2.8 1.2-.4 0-2.1 1-2.7 6.9-4.3 5.2-1.5 12.1-1.8 13.7-.7M181 162.6c0 .2-.7.4-1.5.4s-1.5-.4-1.5-1c0-.5.7-.7 1.5-.4.8.4 1.5.8 1.5 1m-17 27.8-.1 25.1-2.3-4.9c-1.4-2.6-4-6.1-5.9-7.7-7.3-6-9-20.2-3.4-28.3l2.6-4-2.1-1.4c-2-1.5-2-1.6 2.3-3.7 3.4-1.8 4.8-2 6.6-1.2l2.3 1zm55-24.2c0 1 .2 1 .8 0 .6-.9 1.2-.5 2 1.3 1.2 2.5 1.1 2.6-1.4 2.3-3-.3-5.6-4.8-2.9-4.8.8 0 1.5.6 1.5 1.2m-50.5 59.2c2.5 8.2 1.3 20.7-2.9 32.1-1.4 3.7-1.5 2.5-1.5-18.5 0-20.2.1-22.3 1.5-20.5.8 1.1 2.1 4.2 2.9 6.9m89.5 15.9c0 2.1-3.7-.2-6.2-3.8-5.2-7.4-5.1-8 .6-2.5 3.1 3 5.6 5.8 5.6 6.3m-10-2.2c0 1.6-2.8-.3-3.3-2.3-.5-1.9-.5-1.9 1.4-.2 1 .9 1.9 2.1 1.9 2.5m-12 21.4c.9.8 3.4 1.9 5.6 2.4l3.9.9-4.2.1c-2.3.1-4.4.5-4.7 1s1.3 2.1 3.7 3.7c3.3 2.2 5.4 2.8 9.5 2.8 2.8 0 5.2.2 5.2.4 0 4.4-10.2 27.2-12.5 27.9-.5.2-2.3-2.3-4-5.5-1.6-3.1-5.2-9.7-7.8-14.5-5.2-9.3-5.3-10-2.2-17.4 1.5-3.6 4.6-4.4 7.5-1.8"/></svg>