<svg xmlns="http://www.w3.org/2000/svg" width="682.667" height="512" version="1.0" viewBox="0 0 512 384"><path d="M0 79v79h3.8c2 0 10.1.7 17.9 1.7l14.3 1.6 3.7-4.2c3.5-3.8 4.4-4.3 10.8-5.2 3.9-.6 9-1.6 11.5-2.4 6.6-2 43.9-3.5 70.6-2.8 24.8.7 26.5.4 22.2-4.1-1.3-1.3-3.8-3.9-5.6-5.9l-3.4-3.5 4.2-1.4c3.7-1.2 4.5-2 6-6 2.6-6.9 5.3-10.2 12.1-14.7 5.8-3.9 14.7-7.2 23.2-8.6 2.8-.4 3.8-1.1 3.6-2.3-.3-3.4.1-4.2 2.4-4.2 3.4-.1 6.2-2.9 9.1-9.5 3.1-6.9 8.4-12.8 14.1-15.7 2.2-1.1 5.4-3.6 7.2-5.6l3.2-3.7V212c0 128.8-.2 150-1.4 147.3-2-4.7-4.3-5.5-10.3-3.6l-5 1.6-.6 5.6c-.3 3.1-.8 9.1-1.2 13.3l-.6 7.8h19.1l.3-9.8.3-9.7 4.8 9.7 4.7 9.8h20.1c18.8 0 20.1-.1 19.4-1.7-.4-1-1.5-4.3-2.6-7.4-1-3.1-4.1-11.2-6.9-18l-5-12.4 2.3-1.8c6.9-5.5 7-5.7 6.3-12.4-.8-8.1-2.8-12.4-11.9-26-2.4-3.5-2.7-4.4-1.6-6.1 1-1.7 1-2.9-.1-6.4-2.7-8.1-14.8-31.3-19.7-37.6-8.1-10.7-7.8-9.7-7.7-22.8 0-13.9 1.8-20.7 7-26.4l3.4-3.7 4 3.7c3.3 3 5.2 3.9 9.3 4.4 2.9.4 6 .4 6.9.1 1.2-.5 2.1.6 3.7 4.9 1.1 3.1 2.3 7.3 2.6 9.4.2 2 .8 5.7 1.1 8.2.4 2.5.8 10.1 1 17 .1 6.9.3 13.5.3 14.7.1 1.2 1 2.4 2.1 2.8 1.3.4 2 1.5 2 3.1 0 3.1.6 3 3.4-.2 1.9-2.3 2.5-2.5 4.4-1.5 3.9 2.1 4.5.5 3.9-8.7l-.6-8.6 5 5c8.8 8.5 14.9 15.1 19.6 21.1 2.5 3.2 5.3 6.1 6.3 6.5s2.1 1.1 2.5 1.7c1 1.7 3.5 1.3 3.5-.5 0-1.1.6-1.4 2.1-.9 3.3 1.1 1.4-1.3-17.6-21.4-4.2-4.4-6.2-7.2-5-6.8 1.1.3 7.2 2.2 13.5 4 6.3 1.9 13.7 3.8 16.5 4.3 4.7.7 4.9.6 3.5-1.1-1.3-1.5-1.2-1.9.3-3 .9-.7 1.7-1.5 1.7-1.8s-4.4-1.5-9.7-2.8c-10.1-2.2-13.9-3.9-9-3.9 1.6 0 3-.7 3.4-1.6.3-.8-2-7.3-5.2-14.4l-5.7-12.8 2-2.9c1.5-2 2.7-6.9 4.2-17.3 1.2-8 3-19.2 4-24.9 2.2-11.8 1.8-13.3-3.5-15.6-4.2-1.7-5.6-4.7-5.8-13-.2-5.4-.4-6-2.4-6.3-3.1-.5-5.8-4.6-8.4-12.8-3.3-10.7-4-12.4-5.4-12.4-.8 0-1.9 1.6-2.6 3.7l-1.2 3.6-1.3-2.4c-.8-1.5-1.3-1.8-1.4-.9-.1 2.8-2-1.2-2-4.2 0-1.5-.4-3-1-3.3-1.6-1-1.2-2.3 1.1-3 1.7-.6 1.9-1.2 1.3-3.3-.4-1.5-.7-4-.8-5.6-.1-2.4-.7-3.1-3.2-3.8-3-.8-3-.8-4.2-10.9-1.4-11.5-2.7-16.5-5.1-19.7-1.5-2-1.9-2.1-5.4-.9-2 .8-4.6 2.3-5.7 3.4l-1.9 2.1-6.3-2.5c-3.5-1.4-7.4-3.5-8.8-4.8-4.7-4.3-8.3-5.5-13.9-4.6l-5.1.8V0H0zm298 50.9c0 2.1-1.6.2-2.4-2.9-.7-2.4-.6-2.4.8-.6.9 1.1 1.6 2.7 1.6 3.5m-28.5 6.5c1.9.8 3.5 2 3.5 2.5 0 .6.5 1.1 1 1.1 2.7 0 9.3 5.6 13.7 11.4 2.6 3.6 5.8 6.9 7 7.5 2 .9 2.1 1.4 1.2 4-.7 2.1-1.5 2.8-2.8 2.4-1.1-.3-2.2 0-2.5.6-.4.6-1.8 1.1-3.1 1.1-1.8 0-2.6.7-3.1 2.4-.5 2.2-.9 2.3-3.7 1.5-1.8-.5-5.2-.9-7.7-.9s-6.2-.3-8.2-.6c-3.4-.6-3.8-1-3.8-3.5 0-4.5-5.3-6.9-18.4-8.5l-4.8-.6 2.3-2.4c1.2-1.3 1.8-2.4 1.2-2.4s-1.3-.9-1.6-2c-.4-1.8-.2-2 1.6-1.4 1.2.4 2.5 1.1 2.8 1.7.4.5 1.2.6 1.8.3.6-.4 1.5.3 2 1.6.6 1.3 1 1.7 1 1 .1-2.1 2.9-1.3 3.3 1 .3 1.8.7 1.4 1.6-2 1.4-4.7 2.7-5.4 3.5-2 .4 1.3 1.2 3.1 1.9 4.1 1.1 1.5 1.3 1.1 1.4-3 0-2.8 1-6.9 2.4-9.8 1.3-2.8 2.2-5.3 2.2-5.8-.3-1 .4-.9 4.3.7m24.1 49.2c-.3.9-.6 2-.6 2.5 0 .6-.8.5-2-.1-2.9-1.6-2.5-4 .6-4 2 0 2.5.4 2 1.6m-8.9 36.6c-.3.8-.6.5-.6-.6-.1-1.1.2-1.7.5-1.3.3.3.4 1.2.1 1.9m15.1 4.6c.6 1.5 2.4 6.9 4.1 12.1l3 9.3-2.8-.5c-5.8-1.2-14.2-5.9-15.3-8.6-.9-2.4-.5-10.2.9-15.8.5-2.1.6-2.1 4.8-.6 3 1 4.6 2.2 5.3 4.1"/><path d="M186.5 109.9c-10.9 3.2-18.9 8.3-21.1 13.7-2 4.9-1.8 6.1 1.5 6.7 2.7.6 2.9.9 2.4 4-.6 3.8-.2 4.2 8.4 9.4 4.2 2.5 6.2 3.2 7.3 2.5 2.6-1.6 6.8-9.6 6.9-12.9.1-1.7 1-4.8 2.2-6.7l2-3.5-2-4c-2.6-5-2.6-6.8-.2-7.6 1.1-.3 2.5-1.2 3.1-2 1-1.3.8-1.5-1.6-1.4-1.6 0-5.6.8-8.9 1.8m11.1 33.6c-2.3 3.4-2.1 3.7 2.7 3.3 3.6-.3 4.2-.6 4.6-2.8.3-2.5.3-2.5-1.8-.6s-2.1 1.9-2.1-.2c0-2.9-1.4-2.8-3.4.3m-110.2 27c-.4 1.4-.5 2.8-.2 3 .3.4 16.6-3.8 19.3-4.9.6-.3-3.4-.5-8.7-.5-9.7-.1-9.8-.1-10.4 2.4"/><path d="M118.7 169.6c-2.2.8-8 2.3-13 3.3l-9.2 1.9 6 .1c6.5.1 9.9 1.3 7 2.5-1.4.5-1.5.9-.5 2.1.7.9 1.1 1.7.9 1.9-.2.3-4.7.5-9.9.7-7.2.1-10.4-.2-13.4-1.5-2.4-1.1-7.7-2-13-2.3-8.5-.5-9.3-.4-11.5 1.8l-2.4 2.3-8.6-1.7c-4.7-.9-11.7-1.6-15.4-1.6-3.9.1-7.4-.4-8-1-.7-.7-6-1.1-14.4-1.1H0v207h171.8l.7-6.3c.4-3.4.5-8.4.3-11.2l-.3-4.9-5-1.8c-2.7-1-6.5-1.8-8.4-1.8-2.4 0-3.2-.4-2.8-1.4.4-.9-.3-1.6-1.8-2-1.3-.3-4.4-2.2-6.9-4.1-2.6-1.9-5.3-3.5-6-3.5-.8 0-4.9-3.4-9-7.5L125 332l.3-6.4c.3-5.9.6-6.8 4.3-10.9 4-4.6 8.4-7 14.7-8.2 2-.4 4.1-1.3 4.7-2 .5-.7 2.4-5.2 4-10.1 1.7-4.9 3.5-9.8 4-10.9.4-1.1 3.8-10.8 7.4-21.6 5.7-17.4 6.6-21.1 7.6-32 2.2-25.3 3.1-32.5 4.5-37.9 2.4-9.1 2.5-9-5.4-9-9.5 0-11.8-1-13.1-5.9-.6-2.2-1.8-4.2-2.8-4.5-1.5-.5-18.3-2.8-29.1-4-2-.3-5.3.2-7.4 1"/></svg>