<svg xmlns="http://www.w3.org/2000/svg" width="682.667" height="512" version="1.0" viewBox="0 0 512 384"><path d="M310.5 24c-.3.5-2.8 1.3-5.7 1.9-2.8.7-6.6 2.1-8.4 3.1-6.3 4-8.1 14.9-4.3 26.2 1.1 3.3 1.8 6.6 1.5 7.3-.2.7-2.4 2.2-4.8 3.4-11.2 5.8-24.3 18.1-30.5 28.6-4.7 8-6.8 14.9-7.8 24.9-.7 7.3-1.7 10.3-4.8 14.8-2.2 3.3-1.2 3.6 2 .6l2.3-2.1v2.2c0 1.2.4 2 .9 1.7 1.3-.8 2.3 4.4 2 9.9-.3 4.8.6 6.9 1.8 3.9.5-1.5 1-1.1 2.5 2.2 1.4 3 1.7 3.3 1.3 1.1-.7-3.6.3-3.5 1.6.3.6 1.6 1.8 3 2.6 3s1.1-.5.7-1.3c-.9-1.4 2.5 1.2 7.9 6.2 4.1 3.9 4.7 3 1.7-2.9-2.6-5-1.9-5.2 1.1-.3 1.3 2 2.5 3.1 2.7 2.5.8-2.5 2.2.1 2.2 3.9 0 4.4-1.1 7.2-4.3 10.6-2.6 2.9-1.6 5.1 3.3 7 3.3 1.3 4.2 2.3 5 5.5.6 2.1 1.5 3.8 2 3.8s2.7 1.9 5 4.2l4.1 4.3-.4 8c-.3 4.4-.8 8.8-1.2 9.7-.6 1.5-.2 1.8 1.9 1.8 2.3 0 2.6.4 2.4 3.2-.1 1.8-.6 3.9-1.1 4.6-.7.8-.5 1.8.5 3 .9 1 2.1 5.8 2.8 11.2l1.2 9.5-3.2 7.5c-1.8 4.1-3.3 7.6-3.5 7.8-.1.1-1.5-.4-3.1-1.3-4.1-2.1-9.6-1.9-12.8.6-2.5 1.9-2.6 2.5-2.6 11.1 0 10 .1 9.8-9.1 19.5l-4.9 5.2-9.2-4.3c-10.5-4.9-39.4-15.6-42.4-15.6-1.1-.1-3.1-1.8-4.8-4.3-2.5-3.6-2.9-5-2.7-10.2.5-12.7-4.4-24.1-11.7-27.7-4.5-2.1-4.8-2.1-13.3-.7l-8.8 1.5-.6-4.8c-.9-6.1-2.5-5.3-2.5 1.2v4.8l-6.7 2.3c-9.6 3.1-14.1 6.3-15.3 10.8-.5 2-1.5 5.7-2.2 8.3-.9 3.8-1 5.8 0 9.3.7 2.5 1.2 5.8 1.2 7.4 0 6.6 4.4 14.3 13.1 23 3.3 3.3 14.4 7.3 23.6 8.6 2.9.4 5.5 1.1 5.8 1.6.3.4-.2 5-1 10.1-1 5.6-1.6 13.9-1.5 20.8.1 8.1-.3 13.1-1.5 17-.9 3-1.9 9.4-2.2 14.2l-.6 8.8h122.7c67.4 0 122.6-.2 122.6-.4 0-.3-2.5-5.6-5.6-11.8-5.5-11.2-5.5-11.4-5.2-19.1.4-8.8.7-9.2 7.9-10.1 6.9-.9 14.6-4.3 13.1-5.8-.9-.9-.2-2 2.6-4.3l3.7-3.2-5.2-.8c-4.8-.6-6.4-.2-17.4 4-9 3.4-12.4 4.3-13 3.4-.4-.6-1-4.2-1.4-7.8s-1.3-8-2-9.8c-.7-1.7-1.1-4-.8-5.1.2-1.1-.2-4.8-1-8.3-.9-3.5-1.5-7.1-1.5-7.9s-1.3-8.3-3-16.5c-1.7-8.3-2.8-15.2-2.6-15.5 1.4-1.3 6 2.9 7.2 6.5 1.4 4.5 4.6 7.7 6.7 6.8q3.15-1.05-.6-5.7c-1.7-2.2-2.3-5.3-3.6-19.2-.8-9.1-1.2-17.8-.8-19.2.7-2.6.8-2.6 2 1.3.7 2.2 2.8 7.4 4.8 11.5l3.5 7.5-.3-6c-.3-6.3-1.8-16.2-3.5-23-2-8.4-.7-7.6 2.4 1.5 3.5 10.1 10.8 25.4 12.7 26.5.7.5.9.1.5-1.1-2.1-6.9-4.7-19.1-4.4-21.3.3-2.4.6-2.1 3.5 2.9 3.9 6.6 7 10.6 7.6 10 .3-.3-.1-3.4-.9-7-1.5-7.5-2.1-16.9-3.4-55-1-29.3-2.3-40.2-6.9-58.8-3-12.1-5.2-18.4-10-28.7-1.6-3.3-3.3-9.1-3.9-12.8-.6-3.8-2.1-8.8-3.2-11.3-4.2-8.7-15.7-21.2-22.7-24.7-5.3-2.8-13.6-3.2-20.3-1.2-5.6 1.7-6.3 1.7-9.7.2-2.1-.9-4.9-1.9-6.2-2.3-1.3-.3-5.8-3.3-9.9-6.6-7.8-6.2-20.8-13.3-21.7-11.8m14 185.9c1.3 2.8 2 5.1 1.5 5.1s-2.5 1.4-4.5 3.1l-3.5 3.1v-8c0-9.7.6-12 2.7-9.9.8.8 2.5 3.7 3.8 6.6"/></svg>