<svg xmlns="http://www.w3.org/2000/svg" width="682.667" height="512" version="1.0" viewBox="0 0 512 384"><path d="M0 192v192h356.3l-.8-10.2c-.4-5.5-.9-10.7-1.2-11.3-.2-.7-2.3-2.1-4.6-3.1-13.3-6-18.7-12.8-18.8-23.9-.1-5.9 2.4-17.8 4.4-20.2.5-.7.6-3.4.2-6-1-7.7 6-36.6 12.2-50.3 4.5-9.9 7.7-22 5.5-20.6-.5.3-2.1-.5-3.6-1.7l-2.8-2.2 4.6-6.2c4.4-6.1 7.7-14.5 7.5-19.3-.1-1.4.2-4.6.6-7.3.6-3.9.4-5.1-1.1-6.8-1-1.1-1.7-3.2-1.6-4.7.2-2.6 0-2.7-5-3-8-.5-12.9-4.1-12-8.9.2-.6-.2-1.4-.7-1.7-.5-.4-1 .2-1 1.1-.2 5-2.2 21.5-3.2 26.3-3.1 15-13.4 26.9-31.4 36.2-6.1 3.1-12.2 6.1-13.8 6.7-2.6 1-2.7 1-1.7-1 1-1.7.8-2.1-1-2.6-3.8-1-1.5-2.7 9.6-7.4 12.8-5.3 18.6-9 24.3-15.6 7.6-8.8 10.5-17.4 11.7-34.6.8-10.9 1.9-9.6-11.1-12.1-9.1-1.8-28.1-3.6-37.1-3.6h-6.1l-.9 4.7-.9 4.8-12.6.3c-11.1.2-12.9.5-14.4 2.2-2.2 2.4-3.8 2.5-5.5.5-.8-.9-1.8-1.2-2.9-.7-1.7.9-7.3.7-16.1-.4-3-.3-27.1-.7-53.5-.8l-48-.1-6.2-4.2c-7.8-5.4-10.3-7.5-10.3-8.8 0-.5 1.7-2.1 3.8-3.4 2-1.3 5.5-3.6 7.6-5 6.6-4.4 10.7-4.3 71.6 1.5 33 3.1 32.1 3.1 34.3-.6 2.4-4 5.7-5.5 14.6-6.9 4.1-.7 8.1-1.7 8.8-2.3 1.6-1.3 62.7-1.7 78.8-.6 11.2.8 13.3.2 11.6-3.1-.7-1.1-1.6-2.1-2.2-2.1s-.8-.4-.5-.8c.3-.5-.8-2.2-2.4-3.7-1.7-1.6-3-3.2-3-3.6 0-1.3 6.9-2.8 14.9-3.3 4.1-.3 7.5-.7 7.7-.8.1-.2-.1-2.1-.6-4.3-1.6-6.7-1.1-15.6 1-20.3l1.9-4.2h-3.5c-2.4 0-3.4-.4-3.2-1.3.9-2.5 5.9-3.7 17.9-4.1 6.8-.3 13-.5 13.6-.5.7-.1 2.6-3 4.2-6.5q2.85-6.45 8.7-12c3.1-3.1 6.1-5.6 6.6-5.6.4 0 .8 65.2.8 144.9 0 128.3.2 145 1.5 146.1 1.3 1 1.9 1 3.3-.4 1-.9 2.9-1.6 4.3-1.6 2.5 0 3.5 1.7 9.9 16.2l2.1 4.8h22c20.5 0 22-.1 21.5-1.8-.3-.9-1.7-5.5-3-10.2s-4.1-12.9-6-18.4c-2-5.4-3.6-10.2-3.6-10.7s1-.9 2.3-.9 3.2-.7 4.3-1.5c1-.8 2.6-1.5 3.5-1.5 2.9 0 10.7-6 11.3-8.6.9-3.4-4.3-11.5-13.4-20.9-5.5-5.6-6.8-7.6-6.7-10 0-1.7-.9-5-2-7.5-2.7-5.7-7.3-17.9-7.3-19.2 0-.5 1-.2 2.2.6 1.2.9 2.8 1.6 3.5 1.6s3.5 1.6 6.2 3.5c5.7 4.1 7.5 4.5 6.5 1.2-.4-1.2-.7-2.8-.7-3.5 0-.6-.5-1.2-1-1.2s-.4-.7.3-1.5 1.9-1.5 2.6-1.5c.8 0 1.4-.8 1.4-1.8 0-2.1-2.7-6.2-4.1-6.2-1.1 0-11.1-7.9-25.2-20-6.8-5.7-9.6-8.9-11.9-13.4-2.8-5.6-2.9-6.1-1.7-11 1.4-6.2 3.1-9.8 7.2-15.1l3-4.1 3.6 3.9c3.2 3.4 4.3 3.9 8.8 4.2 2.9.2 6.2.9 7.4 1.5 1.1.7 3.6.9 5.4.6 4.6-.9 16.5 4.8 16.5 7.9 0 .8 1.8 2.1 4 3.1 2.8 1.3 4 2.4 4 3.8 0 1.2-1.9 8.2-4.1 15.6-6.7 22.6-7.1 24.6-6.6 35 .5 10.7 1.1 13.9 3.4 18.3 1.1 2.2 1.2 3.2.4 3.5-.6.2-.9.8-.5 1.3.3.5.1.9-.4.9-.6 0-1.3-.7-1.6-1.6-.3-.8-1-1.3-1.5-.9-.5.3-1.7-.5-2.6-1.7l-1.7-2.3.7 2.5c1.9 6.8 4.3 13.1 4.6 12.3.7-1.8 6.9.7 8.1 3.2 1.1 2.5 4.8 3.5 4.8 1.4 0-.6.9-.8 2.2-.4 1.7.6 2 .4 1.5-.9-.4-1-.3-1.5.3-1.1 1.7 1 1.2-.5-2.9-8.9-4.7-9.6-6.1-16.5-6.1-29.7 0-11.8 1.9-23.1 6.4-36.9l3.4-10.5h4.8c2.7 0 6.6.3 8.7.8 2.1.4 4.9.4 6.2.1l2.5-.6v-43.3c0-35.8-.2-43.5-1.4-44.4-.8-.7-3.8-4.8-6.6-9.2-5.5-8.2-7.5-9.4-7.5-4.3v3l-3.2-3.3c-4.6-4.5-7.2-5.8-7.9-3.9-.3.8-.3 1.9 0 2.4s-.7.9-2.2.8c-2.2-.1-2.6.3-2.4 1.9.3 1.7.1 1.6-1.7-.7-1.2-1.4-2.1-3.3-2.1-4.1 0-.7-.9-2.2-2-3.2s-2-2.4-2-3c0-1.9 2.9-2.6 5.2-1.4 1.6.8 2.3.8 2.9-.2 1.2-1.9 1.1-2.5-.5-3.8-.8-.7-1.2-2.1-.9-3.1.7-2.8-1.4-5-4.8-5-2.9 0-2.9-.1-2.9-5.8-.1-11.4-3.7-25.7-7.1-27.7-1.1-.7-4.9 2.2-4.9 3.7 0 .5-.5 1.5-1.2 2.2-1.7 1.8-13.9-2.4-18.5-6.4-3.9-3.4-7.2-4.5-11.1-3.5-1.5.3-4.6.6-6.8.5-3.3 0-4.8.5-7.5 3.1-2.6 2.4-12 6.9-14.6 6.9-.1 0-.3-16.4-.3-36.5V0H0zm475.2-61.9c-.1.6.3 1.8 1 2.6 1 1.2.8 1.8-1.1 3.2-2.1 1.6-2.1 1.8-.4 3.2 1 .8 3.8 2.5 6.3 3.8 5.9 3.2 7.5 4.6 10.4 9.5 1.3 2.3 3.7 5.2 5.3 6.4 2.9 2.2 2.9 2.3 2 8.2-.5 3.3-1.4 6-1.8 6-.5 0-.9-.4-.9-1 0-.5-1.9-2.2-4.1-3.7l-4.1-2.7-2.3 2.8-2.2 2.8-13.4-.1c-7.4-.1-15.1-.6-17.1-1.2-3.5-.9-3.8-1.3-3.5-4.1.3-4.3-2.6-5.6-14.7-7l-9.4-1.1 1.3-3.1c1.6-3.7 3.5-4.6 3.5-1.5 0 2.1.1 2.1 1.9.5s1.9-1.6 2.6 1.1l.8 2.8 1.3-3.3c1.6-3.8 2.9-4 4.5-1 1.2 2.2 1.3 2 2.6-3.1 1.2-4.6 2.5-6.5 7.6-11.6 7.4-7.2 10.6-9.8 9.2-7.5-.7 1.2-.6 1.3.7.3.8-.7 1.7-1 2.1-.7.3.3 1-.4 1.7-1.5.6-1.2 1.5-1.9 2-1.6s1.1.1 1.5-.4c.8-1.3 7.1 1.5 6.7 3m17.7 56.9c-1.3 3.5-1 3.4-5.7 1.4l-3.7-1.6 3-1.4c1.7-.7 4-1.3 5.2-1.4 2 0 2.1.3 1.2 3m-202.7 49.9c-1.2.7-6.2.4-6.2-.5 0-.2 1.7-.4 3.8-.4 2.3 0 3.2.3 2.4.9"/><path d="M361.9 106.5c-1.4.8-3.2 2.8-3.9 4.5-1.7 4.1-.7 14.5 2.1 20.9l2.1 5 3.3-2.2c1.8-1.2 3.1-2.5 2.9-2.9s.2-1 .9-1.5c.8-.4 2-1.9 2.6-3.1 1.1-2.1 1-2.6-.8-3.9-2.9-2-2.6-3.8.9-6.3 3.8-2.7 3.8-5.5.1-7.4-1.6-.9-3.1-2.2-3.4-3.1-.8-1.9-3.4-1.9-6.8 0m6.6 42.5c.3.5.8 1 1.1 1 .2 0 .4-.5.4-1 0-.6-.5-1-1.1-1-.5 0-.7.4-.4 1m31.7 233c0 1.4.2 1.9.5 1.2.2-.6.2-1.8 0-2.5-.3-.6-.5-.1-.5 1.3"/></svg>