<svg xmlns="http://www.w3.org/2000/svg" width="682.667" height="512" version="1.0" viewBox="0 0 512 384"><path d="M310.6 22.8c-.3.5-3.1 1.4-6.3 2.2-7.5 1.6-9.7 3.2-12.4 8.7-1.8 3.7-2.1 5.6-1.6 10.9.4 3.5 1.6 8.6 2.8 11.3 1.1 2.7 1.8 5.4 1.5 5.9-.3.6-2.5 2-4.8 3.2-8.2 4.3-14.4 9-21.4 16.2-11.2 11.6-16.6 22.3-17.9 35.8-.8 8.4-2.2 12.7-5.2 16.7-2.8 3.8-2.3 4.1 1.8 1.2 2.9-2 2.9-2 2.9-.1 0 1.1.4 2.2.9 2.4.7.3 1.8 7.3 2.1 14.3.1 1.7.3 1.6 1.1-.5 1-2.5 1-2.5 2.9 1.5l1.9 4-.5-3.5c-.4-3.2-.4-3.3.6-1.1 1.6 3.7 3.2 5.4 4 4.2.3-.7 3 1.1 6.4 4.1 6.1 5.4 6.7 4.9 2.9-2.5-2-3.9-.9-3.3 1.8.9 1.5 2.5 2.4 3.2 3 2.3q.75-1.35 1.5 1.5c.8 3.5-1.1 10.1-3.7 12.7-2.9 2.9-2 5.1 2.7 7.3 3.3 1.5 4.4 2.7 5.3 5.7.7 2.2 2 4 3.1 4.4s2 1.1 2 1.6c0 .6 1.4 2.2 3 3.6 2.8 2.3 3 2.9 3 9.8 0 4.1-.4 8.5-1 9.9-.5 1.4-.6 2.5-.2 2.5 3.2-.5 4.2.3 4.2 3.3 0 1.8-.4 3.9-.9 4.7-.6.9-.5 1.9.4 2.7.7.7 1.8 5.6 2.5 10.8l1.2 9.5-3.2 8.1c-2.9 7.3-3.5 8.1-5.4 7.5-1.2-.4-4.2-1-6.7-1.2-3.8-.4-5.1-.1-7.5 2-2.7 2.4-2.8 2.7-2.6 11.3l.3 8.9-6.8 7.4-6.8 7.4-6.4-3.2c-9.7-4.9-40.8-17.1-43.6-17.1-1.6 0-3-1-4.2-2.7-.9-1.6-2.4-3.6-3.2-4.6-1.1-1.3-1.5-4.2-1.6-10-.1-10.5-2.6-18.4-7.1-22.8-3-2.9-4.2-3.4-9.7-3.7-3.4-.2-8.6 0-11.4.6l-5.3.9-.2-3.1c-.2-5.3-.3-5.6-1.3-5.6-.6 0-1.1 2.2-1.3 4.9l-.3 4.9-6.1 2.1c-9.9 3.4-14.6 6.6-15.8 10.9-.5 2-1.6 6.1-2.4 9-1.1 4-1.3 6-.5 8 .6 1.5 1.5 5.4 1.9 8.8 1 8 2.8 11.6 9.5 19.1 6.3 7 10.7 9.1 24.5 11.7 4.6.9 8.5 1.8 8.7 1.9.1.2-.5 3.7-1.4 7.8-1.1 4.8-1.7 12.5-1.8 21.9-.1 9.6-.7 16.7-1.8 21-.9 3.6-1.9 9.8-2.3 13.7l-.7 7.3h122.7c67.4 0 122.6-.2 122.6-.5s-2.2-5-5-10.5c-4.9-9.7-5-10.2-5-18.9 0-10.1-.8-9.1 9.5-11.1 7.9-1.6 12.8-4 11.4-5.6-.7-.8-.1-1.9 2.2-3.8 1.7-1.5 2.9-2.9 2.7-3.1-.3-.3-2.5-.8-5-1.1-4-.6-6.3 0-16.7 4.1-6.7 2.6-12.1 5.2-12.1 5.8 0 3.4-1.1-1.3-2.5-10.2-.8-5.7-1.9-11-2.4-11.9-.4-1-.6-2.2-.4-2.9.2-.6-.1-3.8-.7-7-.7-3.2-1.4-7.2-1.6-9s-1.5-9.1-2.9-16.3c-2.4-12.7-3-17-2-17 .2 0 1.6.5 3 1.2 1.7.8 2.9 2.4 3.6 5.2 1.3 4.8 3.5 7.6 6.1 7.6 2.2 0 2.5-3.6.4-5.9-1-1.1-1.8-6-2.5-15.1-.6-7.4-1.3-15.6-1.6-18.3-.3-2.6-.2-4.7.2-4.7s2.5 4 4.6 8.9 4.5 9.7 5.3 10.7c1.4 1.8 1.4 1.8.4-.4-.6-1.2-.9-2.6-.6-3.1s-.5-6.6-1.8-13.7c-3.5-18.4-4-22.1-2.8-20.9.5.5 1.9 4.2 3 8 2.2 7.2 12.9 30.1 13.7 29.3.3-.3-.8-5.8-2.5-12.3-4.3-16.9-3.9-19.8 1.4-10.2 3.4 6.2 7.6 12 8.2 11.4.3-.2 0-2.4-.5-4.8-1.8-8.3-3-24.5-3.6-48.9-1.1-43.3-5.5-67.6-17.1-93.2-2.4-5.4-4.4-11.2-4.4-13 0-8.9-6.4-20.5-16.6-30.4-5.2-5.1-7.5-6.5-13.3-8.4-7.4-2.3-12.1-2.2-18.9.6-2.8 1.1-3.7 1.1-7.5-.6-2.3-1.1-5-2-5.9-2-1 0-4-2-6.7-4.4-6.2-5.5-12.1-9.5-18.9-12.9-6-3-5.9-3-6.6-1.9m13.3 186 2.8 5.7-4.3 3.2-4.4 3.3v-5.8c0-7.4 1-13.3 2.1-12.6.5.3 2.2 3.1 3.8 6.2"/></svg>