<svg xmlns="http://www.w3.org/2000/svg" width="682.667" height="512" version="1.0" viewBox="0 0 512 384"><path d="M0 192v192h512V173.3l-3.7-.7c-2.1-.3-6.6-.6-10-.6-6 0-6.3.1-6.3 2.5 0 1.3-.5 3.6-1.2 5-1.1 2.5-1.2 2.5-13.1 2.5-10.4 0-12.2.3-14.4 2-2.7 2.1-5.8 2.6-6.7 1.1-.3-.5-4.5-.9-9.3-.8-4.9 0-10.8-.6-13.3-1.3-3.6-1-12.4-1-45.5-.1-24.2.7-43.1.8-46.2.3-4.9-.8-9.3-3.2-17-9.2-1.8-1.4-3.3-2.8-3.3-3.1 0-1.5 5.7-6.1 11.3-9 5.8-3 6.7-3.2 17.2-3.2 6 0 26.5 1.4 45.3 3.2 42.1 3.8 42.9 3.8 44.2.8 1.9-4.6 3.9-5.9 10.6-7.3 3.8-.8 7.1-2 7.6-2.7.5-.8 8.1-1.3 27.2-1.5l26.6-.4V0H0z"/></svg>