<svg xmlns="http://www.w3.org/2000/svg" width="682.667" height="512" version="1.0" viewBox="0 0 512 384"><path d="M307.5 22.5c-2.2.8-5.3 1.6-6.9 2-9.7 2.1-12.9 16.7-7 31.5 2 5 2.1 4.9-8.5 10.9-7.1 4-18.5 14.2-23.4 20.9-6.8 9.2-9.6 16-11.1 26.7-1.7 11.6-3.1 16.1-5.9 19.2-2.3 2.6-1.1 3.1 1.9.8 1-.8 2.2-1.5 2.5-1.5 1.5 0 2.9 5.7 2.9 11.5 0 3.7.4 6.5 1 6.5s1-.7 1-1.7c0-2.2 1.2-.8 2.7 3l1.1 3.2.2-3 .2-3 1 3c1.2 3.4 2.9 4.9 3.9 3.4.3-.6 3.2 1.3 6.4 4.3 6 5.5 6.6 4.9 2.8-2.6-.8-1.5-1-2.5-.4-2.1.6.3 1.8 2 2.7 3.7 1.1 2.2 1.8 2.7 2.4 1.8 1.3-2.1 2.1 4.1 1 7.9-.5 1.9-1.9 4.4-3.1 5.7-2.9 3.1-2.1 5.6 2.8 7.9 3.1 1.4 4.4 2.7 4.8 4.7.4 1.5 3.3 5.5 6.6 8.8 5.8 5.8 6 6.1 5.5 10.3-.3 2.3-.7 6.4-.8 9.2-.3 4.4-.1 5 1.6 4.8 1.6-.1 1.8.5 1.4 4.8-.3 2.7-.2 5.2.2 5.4.4.3 1.1 3.1 1.5 6.2.3 3.2 1.1 7.5 1.6 9.6.9 3.4.6 4.9-2.7 12.8-2 4.9-3.8 8.9-3.9 8.9s-2.2-.7-4.6-1.6c-5.2-1.8-9.9-1.2-12.5 1.7-1.6 1.8-1.8 3.4-1.6 10.9l.3 8.7-6.6 7.6-6.6 7.5-10.7-5.3c-13.5-6.7-30.9-14.1-36.6-15.6-3.1-.8-5.3-2.2-7.4-4.8-2.7-3.4-3-4.5-3.5-13.6-.6-12.6-1.9-16.7-6.7-21.9l-3.9-4.1-11.5.2-11.5.1-.3-3.6c-.5-5.8-2.8-5.3-2.8.6v5l-5.2 1.7c-2.9 1-7.7 3.1-10.5 4.7-4.9 2.7-5.4 3.4-6.9 8.6-.8 3.1-2 7-2.6 8.5-.8 2.2-.7 4.1.5 8.5.9 3.1 1.9 7.8 2.2 10.3.7 5.2 4.2 11.2 10.8 18.1 3.4 3.7 5.7 5 12.2 7.1 4.4 1.4 10.3 2.9 13 3.3 2.8.3 5.3.8 5.7 1 .3.2-.1 2.8-.9 5.7-1 3.5-1.7 10.7-1.9 21.7s-.8 18.3-1.9 22c-.9 3-1.8 9.4-2.2 14.2l-.6 8.8h122.2c73.8 0 122.1-.4 122.1-.9s-2-4.8-4.5-9.6l-4.6-8.7.3-9.6.3-9.6 4.5-.8c11.3-2 18.6-5.2 15.9-6.9-1.1-.7-.6-1.5 2-3.6 3.1-2.4 3.2-2.7 1.5-3.4-4.6-1.8-10.2-.8-22.1 4l-12.2 4.8-.6-4.6c-.4-2.5-1.1-7.1-1.7-10.1s-1.2-7.5-1.4-10-.9-6.8-1.6-9.5c-.7-2.8-1.1-5.4-1-5.8.1-.5-.7-5.6-1.8-11.5-1.2-5.9-2.3-12.2-2.6-14.1-.2-1.9-.7-3.8-1-4.2-.3-.5-.2-1.8.1-2.9.6-1.9.8-1.9 3.6-.5 1.7.9 3.1 2.6 3.5 4.3 1.2 5.5 1.6 6.3 4 7.9 1.9 1.2 2.8 1.3 3.7.4s.7-2-.8-4.7c-1.1-2.1-1.8-5.1-1.7-7.2s-.4-10.2-1.2-18.2-1.3-14.6-1.2-14.7 2.3 4.7 5 10.8c2.6 6 5.2 10.9 5.8 10.9.5 0 .6-.5.3-1.1-.4-.6-.8-2.3-1-3.7-.1-1.5-1.2-7.7-2.3-13.7-1.2-6.1-2.4-13.9-2.7-17.5l-.5-6.5 3.9 11.1c3.7 10.8 12.9 30 13.8 29 .2-.2-.7-5.1-2.1-10.8-2.8-11.5-4-18.8-3.3-18.8.3 0 2.9 3.8 5.7 8.5 5.9 9.8 7.6 11.5 6.6 6.4-1.8-9.2-2.6-18.7-3.6-44.4-1.4-39.1-2.2-46.7-7.1-67.5-3.3-13.7-5.9-21.5-11.2-33-1.9-4.3-3.6-9.9-4-13.1-.9-9.5-8.9-22.8-19-31.8-7.1-6.4-18.3-8.6-28.3-5.6-4.5 1.3-5.2 1.3-10.9-.7-3.9-1.5-8.9-4.6-14.3-9-7.3-5.9-19.1-13.1-21.1-12.7-.3.1-2.4.7-4.6 1.4M324 209l2.9 5.8-4 2.7c-2.1 1.6-4.2 2.6-4.4 2.3-.9-.9.8-17.8 1.7-17.2.5.3 2.2 3.2 3.8 6.4"/><path d="M249.1 136.6c0 1.1.3 1.4.6.6.3-.7.2-1.6-.1-1.9-.3-.4-.6.2-.5 1.3"/></svg>