<svg xmlns="http://www.w3.org/2000/svg" width="682.667" height="512" version="1.0" viewBox="0 0 512 384"><path d="M309 20.8c-15.4 4.8-17.3 6.7-17.8 17.5-.3 5.5.1 8.6 1.7 13.2 1.2 3.3 2.3 6.6 2.4 7.4.1.9-2.8 3.1-7.1 5.5-21.6 12.1-34.7 29.1-37.7 49.2-1.8 11.8-3.1 16.2-5.8 19.1-2.9 3.2-1.5 3.9 2 .9l2.9-2.5-.4 3.2c-.2 2.2 0 2.8.6 1.9 1.4-2.1 2.2.9 2.3 9.1.1 6.6.2 7 1.3 4.4l1.2-2.8 1.4 4.2c1.3 3.9 1.5 4.1 2.1 1.8l.6-2.4.8 2.7c.7 2.8 3.4 3.9 3.6 1.5 0-.6.5-.2 1.1 1 .6 1.3 1.6 2.3 2.3 2.3.6 0 2.4 1.3 4 3 4.1 4.2 4.7 3.7 2.5-1.8-1.8-4.1-1.8-4.4-.3-2.6 1 1.2 2.4 3 3.1 4 1.1 1.7 1.2 1.7.6-.5-.4-1.6-.3-2.1.5-1.7 1.4.9 1.4 10.1 0 12.9-.6 1.2-2.1 3.2-3.2 4.4-1.7 1.9-1.8 2.5-.7 3.9.8.8 3 2.3 4.9 3.2 2.2 1.1 3.7 2.7 4.2 4.4.4 1.5 3.5 5.5 6.8 8.8 6.7 6.6 6.8 6.9 5.2 18-.9 5.7-.1 7.3 2.6 6.3 1.1-.5 1.4.2 1.2 2.8-.2 1.9-.7 4-1.2 4.6-.6.8-.5 1.8.2 2.7.6.7 1.8 5.5 2.7 10.5l1.6 9.2-3.7 9.2c-2 5.1-3.8 9.3-3.9 9.5-.2.1-1.9-.5-3.9-1.3-5.3-2.2-9.1-1.9-12.6 1.1l-3.1 2.6.7 8.7.6 8.7-6.4 7.2c-3.5 4-6.7 7.2-7.1 7.2-.5 0-2.5-1-4.6-2.3-2-1.3-6.2-3.5-9.2-4.9-3-1.5-11.3-5.4-18.4-8.7-7.1-3.4-13.9-6.1-15.2-6.1-1.6 0-3.2-1.4-5.5-4.6-2.8-4.1-3.1-5.4-3.3-12.7-.4-15.2-5.9-25.7-14.3-27.3-2.9-.6-14.3 0-18.5.9-.6.1-1.5-1.7-2-4.1-1.2-5.7-2.8-5.3-2.8.7v4.9l-4.7 1.7c-2.7.9-7.3 2.9-10.3 4.4l-5.5 2.9-2.9 8.8c-2.8 8.6-2.8 8.9-1.2 13.9.9 2.9 1.6 6.5 1.6 8.1 0 5.8 2.1 10.3 8.5 17.7 7.1 8.4 10.1 9.9 25.3 13.3l8.3 1.9-.6 3c-2.8 12.7-3.6 20.2-3.3 30.5.2 8.4-.2 13-1.3 17-.9 3-2 9.2-2.4 13.8l-.7 8.2h245.1l-4.9-10.2c-4.7-9.5-5-10.6-5-17.8 0-5 .4-8.1 1.3-8.7.6-.5 4.1-1.5 7.6-2.2 8.2-1.6 15.5-5.1 12.7-6-1.6-.6-1.3-1.1 1.9-3.5 2-1.5 3.4-3 3.1-3.3s-2.5-.9-4.8-1.4c-3.8-.7-5.8-.2-17.1 4.2-7 2.7-13.2 4.9-13.7 4.9-.6 0-1-1.2-1-2.8-.1-1.5-.7-6.1-1.5-10.2s-1.7-10.2-1.9-13.5c-.3-3.4-1-7.3-1.5-8.8-.6-1.6-1.1-4.3-1.1-6 0-1.8-1.1-8.8-2.5-15.6s-2.5-13.8-2.5-15.4v-2.9l3.2 1.9c2.1 1.2 3.6 3.1 4.3 5.3 1.6 5.4 3.4 8 5.5 8 3.2 0 3.3-1.9.1-6.8-3.4-5.3-7.4-14.2-6.7-15 .3-.2 1.9 2.4 3.6 5.9l3 6.4-.5-11.3c-.3-6.2-.8-14.1-1.1-17.5l-.5-6.2 1.9 4.5c4.6 10.9 7.5 16.4 7.9 14.9.2-.9-.6-6.1-1.7-11.5-1.2-5.4-2.3-14-2.6-18.9l-.5-9 3 8.9c3.1 9.3 13 30.1 13.8 29.2.3-.3-.4-4-1.5-8.3-1.2-4.3-2.4-10.3-2.7-13.3s-.8-6.6-1.1-8c-.2-1.4 1.7 1.1 4.3 5.5 6 10 8.1 13 8.8 12.4.2-.3.1-1.9-.4-3.6-1.6-5.7-3.1-23.8-4.1-50.8-1.1-29.4-2.5-41.4-7.1-60.5-3.3-13.8-6-21.7-11.3-33.2-2-4.5-3.9-10.5-4.5-14.7-.6-4.7-2-8.9-4.1-12.5-4.5-8-16.5-20.5-22-22.9-5.3-2.3-15.2-2.7-22-.9-4.1 1.2-5.1 1.1-10.5-1.1-3.3-1.3-7.8-4-10-6.1-4.9-4.6-10.8-8.8-18.3-13-5.6-3.1-5.8-3.1-10.2-1.8m15.5 189.6 1.7 4.4-3.3 3.1c-4.2 3.8-5.3 3.9-4.3.3.4-1.5.7-5.9.6-9.7l-.2-7 1.9 2.3c1.1 1.2 2.7 4.2 3.6 6.6"/></svg>