<svg xmlns="http://www.w3.org/2000/svg" width="682.667" height="512" version="1.0" viewBox="0 0 512 384"><path d="M0 192v192h239c131.5 0 239-.2 239-.3 0-.2-10.7-10.2-23.7-22.3-13.1-12-28.1-26-33.3-30.9-21.3-20-37.8-35.4-44-41.1-8.1-7.5-29.3-27.7-34.1-32.6-6.8-7-11.6-19.2-16.4-41.3-4.5-21-5.8-39.3-3.1-43.1 1.2-1.6 2.5-1.9 8.7-1.7 12.9.5 39.7 6.3 54.6 11.9 16.5 6.2 15.5 5.2 61.8 58.4 6.4 7.4 12.9 14.8 14.4 16.5 1.4 1.6 9.8 11.3 18.6 21.5s18.9 21.9 22.4 26c3.6 4.1 6.8 7.7 7.3 7.8.4.2.8-70.1.8-156.2V0H0z"/></svg>