<svg xmlns="http://www.w3.org/2000/svg" width="682.667" height="512" version="1.0" viewBox="0 0 512 384"><path d="M0 192v192h452.4l-8.5-8.3c-4.6-4.6-15.3-15.7-23.8-24.8-8.5-9-20.2-21.4-26-27.4-10.4-10.8-32.1-33.9-43.7-46.4-3.2-3.5-8.1-8.7-10.8-11.5-14-14.7-17.1-20.1-20.5-36-3.6-16.4-5.1-28.6-5.8-44.8-.7-17.7 0-21.2 4.5-22.1 8.7-1.8 49.4 9.1 69 18.4 9.3 4.5 14.3 8.9 23.2 20.5 3 4 13.6 17.7 23.5 30.5 16.8 21.7 28.3 36.8 45.9 59.8 3.9 5.2 9.7 12.8 12.9 17s8.8 11.5 12.4 16.4c3.6 4.8 6.7 8.7 6.9 8.7s.4-75.1.4-167V0H0z"/></svg>