<svg xmlns="http://www.w3.org/2000/svg" width="682.667" height="512" version="1.0" viewBox="0 0 512 384"><path d="M0 192v192h204c112.2 0 204-.2 204-.5s-2.1-3.5-4.7-7c-2.7-3.5-7-9.6-9.8-13.5-5.6-7.9-26.6-36.5-51.9-70.7-41.4-55.8-42.9-59.1-45.8-97.2-1.5-19.4-.2-38.1 3-45.5l2.2-4.9 6.5.6c7.5.7 19.4 4.7 39 12.9 23.7 10 38.2 19.3 44.1 28.3 1.9 2.7 4.7 6.9 6.3 9.2 3.9 5.5 29.8 48.8 34.8 58.3 6.4 12.1 16.6 29.9 22 38.5 2.8 4.4 6 9.8 7.2 12s3 5.3 4 7c1.6 2.7 9.3 15.7 14.1 24 .9 1.6 4.8 8.2 8.5 14.5s7.6 13.1 8.7 15c8.4 14.7 11.4 18.9 13.6 19h2.2V0H0z"/></svg>