<svg xmlns="http://www.w3.org/2000/svg" width="682.667" height="512" version="1.0" viewBox="0 0 512 384"><path d="M0 192v192h187c102.9 0 187-.3 187-.6 0-.7-11.9-23.4-13-24.9-.4-.6-5-9.3-10.3-19.5-5.2-10.2-11.2-21.4-13.2-25-2.1-3.6-6-10.6-8.8-15.5-2.7-5-9-15.8-14-24-11.7-19.5-21.6-39.1-25.1-49.6-1.5-4.6-3.9-10.8-5.2-13.7s-2.4-5.9-2.4-6.7-1.1-5.8-2.5-11.1c-2.4-9.1-2.5-10.8-2.1-28 .4-13.9.9-19.1 2.1-21.3.8-1.7 1.5-4.4 1.5-6.2 0-2.3 1-4.2 4-7.2l4.1-4 7.2.6c6.2.5 9 1.5 20.4 7.1 17.8 8.7 38.3 22.7 53.7 36.5 3.9 3.5 15.4 21.2 20 30.8 2.1 4.3 5.5 11.4 7.7 15.8 2.1 4.4 6.1 14.7 8.9 22.9 2.7 8.1 5.7 16.2 6.5 18 .9 1.7 1.8 5 2.1 7.4.2 2.4 1 5.6 1.8 7 .7 1.5 1.6 4 2 5.7.4 1.6 1.4 3.7 2.1 4.5 1.3 1.5 6.3 11.2 12.3 24 8.8 19 11.2 24.2 14.6 32 2.1 4.7 4.8 10.7 6.1 13.5 1.4 2.7 5.1 10.8 8.4 18l5.9 13 21.6.3 21.6.2V0H0z"/></svg>