<svg xmlns="http://www.w3.org/2000/svg" width="682.667" height="512" version="1.0" viewBox="0 0 512 384"><path d="M0 192v192h170.6c162 0 170.6-.1 170.1-1.8-.9-2.9-7.2-20.1-11.7-31.7-2.3-6.1-6-16.4-8.2-23-2.3-6.6-5.5-15.4-7.3-19.5s-3.8-9.3-4.5-11.5-2.8-7.1-4.8-11c-1.9-3.8-4-9-4.8-11.5-.8-2.6-5.2-12.2-9.9-21.4-9.1-17.9-12.3-27.3-14.9-44.1-.9-5.5-1.8-11.2-2.1-12.7-.2-1.5-1.5-4.5-2.9-6.5-1.4-2.1-2.8-5.6-3.2-7.8s-2.1-6.2-3.8-9c-2.8-4.5-3.1-5.7-3-13 .2-16.3.9-24.8 2.2-25.3.9-.3 1.1-1.9.6-6.2-.6-5.3-.5-5.8 1.5-6.5 1.8-.5 2.1-1.4 2.1-5.5 0-4.8.1-5 4-7 4.9-2.5 7.2-2.6 17.2-.6 9.3 1.8 12.4 3.2 22.2 9.9 14.5 10 45.1 39.2 51 48.6 6.6 10.3 16.2 29.7 19.3 38.6 4.1 12 8.2 27.9 8.7 34.3.2 2.6.9 7.2 1.6 10.2 1.6 6.5 1.6 13.3.1 13.8s-1.4 2.4.4 5.8c.8 1.6 1.5 3.6 1.5 4.5s1.5 4.8 3.4 8.5c1.8 3.8 7.9 20.2 13.6 36.4 5.6 16.2 11.9 34.4 14 40.5 2.1 6 4.8 14 6.1 17.8l2.4 6.7H512V0H0z"/></svg>