<svg xmlns="http://www.w3.org/2000/svg" width="682.667" height="512" version="1.0" viewBox="0 0 512 384"><path d="M0 192v192h325.2l-.6-2.2c-.3-1.3-2.9-9.7-5.6-18.8s-6.8-23.3-9-31.5c-2.3-8.3-6.1-21.2-8.5-28.8-2.5-7.6-4.5-14.6-4.5-15.5 0-1-1.8-5.5-3.9-10-2.2-4.5-4.3-9.8-4.7-11.9s-1-4.3-1.4-4.8c-.4-.6-1.3-2.8-2-5s-3.6-8.8-6.5-14.6c-7.2-14.5-10.6-28.2-11.2-45.4-.5-12.7-.6-13.1-3.8-18-1.8-2.8-3.5-6.8-3.8-9-.4-2.7-1.6-4.9-3.7-6.8-6.1-5.5-7.5-13.6-4.1-24.3 1-3.4 1.6-7.5 1.3-9.7-.3-2.7.1-4.3 1.3-5.7 1.6-1.7 1.7-2.5.7-5.9-1.7-5.5-1.5-6.9 1.1-7.3 2-.3 2.2-.8 2-5.1-.3-4.7-.2-4.8 3.4-6.3 7.8-3.3 27.7 1.5 39.2 9.5 12.3 8.5 41.8 40.6 53.8 58.6 13.7 20.4 20.9 43.3 22.7 72 .2 2.7.9 7.9 1.5 11.4.7 3.8.8 6.7.3 7s-1.2 2.3-1.6 4.3c-.4 2.1-1.1 3.8-1.6 3.8-1.6 0-1.1 3.3 1 6.8 3.8 6.2 7.3 15.8 13.2 36.2 3.2 11.3 7.4 25.2 9.2 31 4.4 13.8 6 18.9 8.6 28.5 1.2 4.4 2.8 10.1 3.6 12.8l1.6 4.7H512V0H0z"/></svg>