<svg xmlns="http://www.w3.org/2000/svg" width="682.667" height="512" version="1.0" viewBox="0 0 512 384"><path d="M0 192v192h154c92 0 154-.4 154-.9 0-1-2.3-11.1-9-39.1-2.2-9.1-5.8-25.1-8.1-35.5-2.2-10.5-4.9-22.6-5.8-27-1-4.4-2.9-10.7-4.3-14s-2.9-7.6-3.3-9.5c-1.5-7.6-4.7-16.4-9.9-27.7-6.5-14.1-7.6-20.3-7.6-43.3v-15.8l-3.5-4.2c-1.9-2.3-3.5-5.2-3.5-6.4 0-4.1-2.1-8.3-4.6-9.5-5.7-2.5-7.1-16.2-2.7-26.1 1.5-3.6 1.7-5.3 1-8.3-.7-3.1-.6-4.2.8-5.7 1.4-1.6 1.6-2.9 1-7.5l-.6-5.5h6.4l-.7-4.9c-.4-3.1-.3-5.2.4-5.6 2.6-1.6 12.1-1.7 15.8-.2 2 .9 6.9 2.4 10.7 3.3 6.1 1.4 8.2 2.6 16.1 8.9 5 4 11.9 10.6 15.5 14.7 3.5 4 6.9 7.8 7.4 8.4.6.6 2.6 3.2 4.5 5.8 1.9 2.5 6.9 9 11.1 14.4 9.2 11.9 12.8 17.9 21.4 36.3 2.8 6 4.8 12 5.4 16 .5 3.6 1.7 8.2 2.7 10.4 1.6 3.8 2 9.4 2.6 38 .2 8.7-.6 12.8-3.2 16.3l-2.7 3.7 2.3 4.5c3.2 6.5 5.7 14.2 10.9 34.5 6.8 26.6 16 63.8 18 73.2l1.8 8.3H512V0H0z"/></svg>