<svg xmlns="http://www.w3.org/2000/svg" width="682.667" height="512" version="1.0" viewBox="0 0 512 384"><path d="M0 192v192h259l-.4-2.3c-2.6-13-4.2-37.5-5.8-86.2-.5-18.7-1.1-37.6-1.3-42-.1-4.4-1-10.9-1.9-14.4-1.9-7.4-2-9-.5-12.8.8-2.2 1.2-2.4 1.9-1.3s1 .1 1-3.1c0-5-.7-6.4-2.5-4.9-1.3 1.1-3.2-2.6-9.1-18-3.6-9.4-3.6-9.6-3-21 .5-11.2 2-18.5 6.6-32l2.2-6.5-5.2-4.5c-4.4-3.8-5.1-5-4.5-6.9 1.1-3.5-1.8-6.9-6.2-7.3-3-.2-4.2-1-6-3.7-1.9-2.8-2.3-4.7-2.3-11.3 0-7.9 1.8-13.5 5.8-18 1.3-1.5 1.3-2.4.2-6.5-.9-3.1-1-4.8-.3-5 .5-.2 1.8-.9 2.7-1.6 1.5-1.1 1.5-1.6.1-6.2-2-6.7-2-6.6 2-4.9 1.9.7 3.7 1.4 4 1.4.4 0 .3-2.5-.1-5.6l-.7-5.7 4.3.7c4.9.8 11.4 3.9 15 7.1 1.4 1.2 4.3 2.6 6.4 3 2.2.3 6.3 1.5 9.2 2.6 10 3.8 21.9 19.4 33.9 44.5 2.6 5.4 8.2 15.7 12.5 22.9 8.7 14.4 9.3 15.6 15 30.4 3.3 8.6 4 11.5 3.9 16.5-.1 3.4 0 7.4.4 9.1 1.8 9.4 1.8 11.5-.3 19.6-1.2 4.6-2.6 8.8-3.1 9.3-.5.6-.9 2.7-.9 4.7 0 5-1.2 7.8-4.7 11.4-1.6 1.7-4 4.4-5.2 6.2l-2.2 3.2 2.1 6.3c1.1 3.5 2.4 8.6 2.9 11.4 1.1 5.9 7.5 53.5 9 67.4 2.5 22.2 5.1 44.8 5.7 49.3l.7 4.7H512V0H0z"/></svg>