<svg xmlns="http://www.w3.org/2000/svg" width="682.667" height="512" version="1.0" viewBox="0 0 512 384"><path d="M0 192v192h244.3l-.7-3.7c-2.5-14.6-3.6-63.9-2.5-118.8.4-17.6.2-24.4-.9-29-2.4-10.2-2.6-12.5-1-12.5.8 0 1.9.5 2.5 1.1 1.8 1.8 2.5-8.8.7-12.3-.9-1.6-1.8-2.7-2.1-2.4-1.1 1-4.3-3.6-5.4-7.8-.6-2.3-2-6.8-3.1-10.1-1.8-5.2-1.9-7.5-1.4-17.9.7-12.1 3-21.3 8.7-34.6l2.3-5.2-5.3-5c-4.2-3.9-5.2-5.4-4.7-7.2.9-3.5-1.8-6.4-5.5-6.2-2.4.2-3.9-.6-6.5-3.3-4-4.3-4.8-7.4-3.9-15 .7-5.9 3.2-11.8 6.6-15.4 1.7-1.8 1.9-3 1.3-7.3-.5-4.6-.4-5.3 1.5-6.3 2.5-1.4 2.6-3.4.6-9-1.3-3.8-1.3-4.1.4-4.1 1 0 2.4.7 3.1 1.5 1.7 2.1 4.3 1.9 3.6-.3-.3-.9-.8-3.4-1.2-5.5-.6-3.4-.4-3.7 1.7-3.7 3.5 0 12.1 4.3 16.5 8.3 2.7 2.3 6.3 4.1 11.4 5.6 6.9 2.1 8.1 2.8 14.7 9.6 7.4 7.6 9 10.6 27.2 48.5 2.2 4.7 7.4 14.8 11.5 22.5 10.1 18.8 12.2 25.2 13.1 39.5.4 6.3.8 14 .8 17 0 5.4-2.6 14.6-5.8 20.2-.8 1.4-1.5 4.2-1.5 6.1 0 4.1-3.6 10.3-6.5 11.3-1.1.4-2.1.6-2.3.5s-1.3 1-2.4 2.4c-1.9 2.5-2 2.8-.5 6.3 2.1 4.8 3.4 12.5 4.2 23.7.3 4.9 1.3 16 2 24.5.8 8.5 1.7 18.9 2.1 23 .3 4.1.8 7.8 1 8.1.2.4 1.1 11.4 2 24.5.8 13.1 2.1 27 2.7 30.8l1.2 7.1 93.8.3 93.7.2V0H0z"/></svg>