<svg xmlns="http://www.w3.org/2000/svg" width="682.667" height="512" version="1.0" viewBox="0 0 512 384"><path d="M0 192v192h222.2l-.7-2.7c-1.5-5.6-2.5-15.1-3.1-27.3-.8-16.6 3.7-76.1 6.7-88.9 1.2-4.9 3.1-32.6 2.9-42.4 0-3.2-.5-6.9-1.1-8.4-.5-1.4-1.4-9.3-2-17.6-.7-11.1-1.5-16.2-2.9-19.5-3.1-6.9-3.4-11.1-1.5-20.8 3.2-16.6 7.7-28.1 13.7-35 1.6-1.9 2.8-4 2.5-4.8-.6-1.5-9.2-7.6-10.8-7.6s-2.1-2.7-.9-4.9c.7-1.4.8-2.7.1-3.9-.8-1.6-1.7-1.8-4.8-1.2-4.5.8-8.3-.8-10.7-4.5-.9-1.4-2.1-2.3-2.6-2-1.5.9-1.2-17.9.2-21.2.7-1.5 3.2-4.9 5.5-7.5 4.3-4.7 4.3-4.8 2.8-7.7-2.3-4.6-1.9-6.8 1.6-8 3.3-1.1 3.3-1.6.3-9-2.4-5.9-1.4-6.7 3.4-2.6 1.7 1.4 3.2 2.5 3.5 2.5s-.1-2.3-.8-5.2c-.8-2.8-1.2-5.5-.9-6 1.4-2.3 10.6 3.5 18.9 11.7 3.3 3.3 6.5 5.6 8.6 6 7.1 1.6 13.5 5.2 18.2 10.5 7.2 8 9.2 12 15.8 32.1 6.5 19.5 7.7 22.2 17.5 39.6 3.7 6.5 8 16 10.2 22.6 3.4 10.2 3.8 11.9 3.1 17.3-.4 3.2-.3 9.7.2 14.4.9 7.5.7 9.2-1.1 14.5-1.3 3.8-3.2 7-5.2 8.7-2.5 2.1-3.3 3.7-3.9 8.3-.6 4.2-1.5 6.5-3.5 8.6-1.5 1.6-3.3 2.9-3.8 2.9-.6 0-2.3 1.5-3.8 3.4l-2.7 3.4.9 11.4c1.4 16.6 2.9 48.2 4 82.3 1.2 36.6 1.7 44.2 3.7 52.3l1.5 6.2H512V0H0z"/><path d="M228.1 197.2c.1 9.2.9 13 2.7 13.6s1.6-13.9-.2-18.3c-.8-1.9-1.7-3.5-2-3.5-.4 0-.6 3.7-.5 8.2m60.7 21.5c-2.7 3.2-2.9 4.2-1.3 7.4 2 3.8 3.2 2.9 4.4-3.4 1.1-6-.1-7.5-3.1-4"/></svg>