<svg xmlns="http://www.w3.org/2000/svg" width="682.667" height="512" version="1.0" viewBox="0 0 512 384"><path d="M0 192v192h109.5c87 0 109.5-.3 109.5-1.3 0-.6-.7-5.9-1.5-11.7-2-14.4-1.8-28.5.5-56 2.6-30.4 3.7-39.4 6-51.2 1.2-5.6 2-13.6 2-19.4 0-5.4.5-12.3 1.1-15.3 1-4.6.9-7.1-.5-13.7-.9-4.5-1.6-10.5-1.6-13.5 0-9.2-1.9-22.5-3.8-27.1-3-7-3.2-10-1.2-18.4 1.1-4.4 2-8.8 2-9.9.1-3.4 5.5-15.9 9.5-22 2.3-3.4 5.7-6.9 8.2-8.4 2.3-1.4 4.3-2.9 4.3-3.4 0-.4-1-.1-2.3.7-1.9 1.3-2.6 1.3-4.7.1-1.4-.8-3.6-1.9-4.9-2.5s-2.9-1.7-3.5-2.4c-.6-.8-2.3-1.6-3.8-2-2.6-.6-2.6-.7-1.2-3.4 1.6-3.1 1.6-3.3.6-4.9-.5-.8-1.9-.9-4.7-.3-2.7.6-4.4.5-5.4-.3-.8-.7-1.7-1-2-.7s-1.5-1-2.7-2.8c-1.4-2-2.4-2.7-2.7-2-.8 2.3-2.7-4.2-2.7-9.3 0-10 3-17.3 9.9-23.7l2.5-2.3-2.2-4.5-2.2-4.5 3.5-1.5c1.9-.8 3.5-1.7 3.5-1.9 0-.3-1.1-3.2-2.4-6.5-1.3-3.2-2.2-6.1-1.8-6.4.3-.3 2.4 1 4.7 2.9l4.3 3.4-1.6-6c-.8-3.3-1.2-6.3-.8-6.7 1.4-1.4 10.3 4.5 17.2 11.4 6.2 6.1 8 7.3 13.4 8.8 3.4 1 7.5 2.6 9.1 3.5 3.3 2 11.2 11.8 13.9 17.1 1.8 3.7 9.7 25.8 12.5 35 1.5 4.8 5.3 12.1 18.2 34.4 1.9 3.3 5 9.9 6.9 14.7 3 7.8 3.4 9.9 3.4 18.1 0 5.1.4 11.9 1 15.1 1.1 7.2-1 18.3-4 20.4-2.2 1.6-4.1 6.9-3.9 10.9.1 1.6-.6 4.9-1.7 7.4-1.6 4-1.9 4.2-2.4 2.2-.5-2.2-.7-2-3.4 2.2-3.1 5-3.7 5.3-5.6 3.1-.8-1-1-3.4-.5-8.2l.8-6.8-2.7 2.8c-1.4 1.5-2.6 3.6-2.6 4.6s-.3 2.1-.7 2.4c-1 1.1-3.2-2.6-3.3-5.5 0-3.8-1.6-4.3-2.9-1-1 2.4-.8 3.7 1.9 9.4 3.8 8.1 5 15.1 5 29.8 0 6.3.4 17.8 1 25.5.5 7.7 1.1 25 1.4 38.5 1 38.6 1.6 49.6 3.5 56.3l1.8 6.2 106.6.3 106.7.2V0H0z"/><path d="M226.7 137.9c-.4 1.7-.3 2.1.5 1.3.5-.5.8-1.6.6-2.3-.3-.8-.7-.3-1.1 1m.4 55.6c.1 9.1 1.1 15.7 2.6 16.2 3.3 1.1 2.3-16.7-1.2-21.3-1.3-1.7-1.4-1.2-1.4 5.1m47.9-4.7c0 1.2.9 3.6 2.1 5.4l2.1 3.3-.6-3.3c-.3-1.8-1.3-4.3-2.1-5.5l-1.5-2.1zm3 15.2c0 1.3.7 2 1.9 2 1.4 0 1.8-.5 1.4-2-.3-1.1-1.2-2-1.9-2-.8 0-1.4.9-1.4 2"/></svg>