<svg xmlns="http://www.w3.org/2000/svg" width="682.667" height="512" version="1.0" viewBox="0 0 512 384"><path d="M0 192v192h219l-.4-2.3c-3.5-16.4-3.6-33.4-.7-67.2 2.6-29.7 3.8-38.9 5.7-47.4 1.4-5.7 3.2-27 3.7-42.6.1-2.8-.3-7.5-1-10.5-.6-3-1.6-11.4-2.1-18.5-.7-10.1-1.5-14.8-3.7-21l-2.9-8.1 2.7-12.2c3.2-14.1 5.4-20.3 10-27.5 3.2-5 9.9-11.7 11.6-11.7.5 0 1.2-.8 1.5-1.7.6-1.6.6-1.6-1.2 0-1 .9-2.3 1.7-2.9 1.7-1.5 0-9.9-4.8-11.3-6.5-.7-.8-2-1.5-3-1.5-2.5 0-2.9-.8-1.7-3.9.6-1.5.7-3.5.4-4.4-.5-1.4-1.1-1.5-4.3-.3-4.8 1.6-8.7-.1-11.1-4.7-.9-1.8-1.8-2.6-2-1.9-1.2 3.3-2.3-.8-2.3-8.2 0-10.2 1.7-15.5 7.2-21.9l4-4.8-1.8-4.1c-1.8-3.9-1.8-4.1.1-5.4 1-.8 2.5-1.4 3.2-1.4 1.9 0 1.6-3.4-.8-9.1-1.2-2.7-1.9-5.2-1.6-5.5s2.4 1.2 4.8 3.3l4.2 3.8-.7-3.5c-1.8-8.8-1.9-10-.4-10 2.6 0 11.2 6.2 17.4 12.5 5.4 5.5 7 6.5 13.5 8.4 6.2 1.9 8.1 3.1 12.1 7.2 2.6 2.8 6 7 7.6 9.4 2.8 4.2 11.3 26.7 14.6 38.5.9 3.1 6.2 13.3 12.4 23.7 6 10 12.3 21.7 14.2 26 3 7 3.4 9.2 4.1 21.5.4 7.5 1 14.2 1.4 14.8.8 1.3-1.4 16.3-2.6 17-.5.3-1.3 4.2-1.9 8.5-1.6 11.5-2 13.1-2.9 11.6-1.1-1.7-4.1 1.2-4.1 3.9 0 2.8-1.9 3.4-4.1 1.4-1.6-1.5-1.9-2.6-1.4-6.3.3-2.5.1-5.3-.5-6.1-.8-1.3-1.1-1.2-2.4.5-.9 1.1-1.6 3.1-1.6 4.5 0 2-.2 2.2-1 1-.5-.8-1.5-1.5-2.1-1.5-.7 0-1.7-.9-2.3-2s-1.4-2.2-1.7-2.5c-.4-.3-1.2-2.4-1.8-4.8-.7-2.3-1.6-4-2.1-3.7-1.5.9-1.2 6.2.5 9.5.9 1.7 1.3 3 1.1 3-.3 0-1.2-1.2-2-2.8l-1.4-2.7-1.2 3c-1 2.6-.8 3.8 2 9.5 3.8 8 5 14.5 5 26.9 0 5.3.5 16.8 1 25.6s1.4 32.7 2 53.2c.7 28.6 1.3 38.7 2.6 43.7l1.6 6.6H512V0H0zm299.8 35.5c-.3.3-.9-.2-1.2-1.2-.6-1.4-.5-1.5.5-.6.7.7 1 1.5.7 1.8"/><path d="M227.1 198.9c.4 6 1 11.4 1.3 12 1.6 2.6 2.6-.5 2.6-8s-1.8-14.9-3.7-14.9c-.4 0-.5 4.9-.2 10.9m52.7-5.1c-.3 1.1 0 2.9.8 3.9 1.3 1.7 1.3 1.7 1.3-.2 0-1.1-.4-2.9-.8-3.9-.7-1.9-.8-1.9-1.3.2m2.2 8.2c0 1.4.5 3.2 1 4 .8 1.2 1 1 1-1 0-1.4-.5-3.2-1-4-.8-1.2-1-1-1 1"/></svg>