<svg xmlns="http://www.w3.org/2000/svg" width="682.667" height="512" version="1.0" viewBox="0 0 512 384"><path d="M0 192v192h218.3l-.7-4.3c-2.7-19-2.9-27.3-1.2-47.2 3.3-39.6 4.8-53.2 6.6-62.2 1-5 2.2-14.9 2.5-22 .3-7 1.1-14.6 1.6-16.8.7-2.7.7-5.9-.1-10-.6-3.3-1.7-13.3-2.5-22.1-1.1-12.8-1.9-17.5-4-22.5-1.4-3.4-2.5-7.6-2.5-9.3 0-4 4.6-24.6 6.7-30 2.8-7.2 10-17.4 14.2-20.2 4.6-3 5.3-3.9 1.7-2.3-2 1-2.9.8-5.1-1-1.5-1.1-3.1-1.9-3.5-1.6-.4.2-1.8-.7-3-2-1.3-1.4-3.4-2.5-4.7-2.5-2.7 0-2.7-.2-1.1-4.7 1.6-4.4.4-5.5-4.6-4.3-4.8 1-8.5-.5-10.6-4.5-1.3-2.4-1.5-2.5-2.6-1-1.8 2.4-3-10.1-1.6-16.8 1.5-7.6 2.5-9.7 7.1-14.9l4.2-4.7-2.1-4c-1.1-2.2-2-4.3-2-4.5 0-.3 1.6-1.2 3.5-2 4.1-1.7 4.2-2.2 1.4-8.6-1.2-2.7-1.9-5.4-1.7-6s2.3.6 4.8 2.7c2.6 2.2 4.1 3.1 3.7 2.1-.3-1-.9-4-1.3-6.8-.5-4-.4-5 .8-5 2.7 0 11.3 6.3 17.8 13 4.5 4.5 7.5 6.9 9.8 7.3 7.7 1.5 12.9 4.8 18.1 11.2 6.4 7.8 10.5 16.8 16.5 35.5 4.8 14.9 7.5 20.3 18.2 37.5 10.4 16.7 15.1 27.6 16.3 37.8.6 4.8.8 9.4.4 10.3-.3.9 0 4.1.7 7.1 1.1 4.5 1.1 7.7.2 17.2-2.3 21.5-2.4 22.1-3.7 22.1-.8 0-1.6 1.3-2 2.9-.5 2.3-1.1 2.9-2.7 2.6-1.1-.3-2.2-.6-2.4-.7-.1-.2-1.2-4.6-2.3-9.7-1.2-5.2-2.3-9.6-2.6-9.9-.5-.6-1 9.3-.7 14.1l.2 2.8-2.2-2.1c-1.2-1.1-2.6-2-3-2-.5 0-.7-.3-.5-.8.3-.4-.1-1.3-.9-2s-1.4-.8-1.4-.2c0 2.6-1.9.6-2.5-2.8-.7-4-4.9-11.2-6.5-11.2-1.9 0-1 3.2 2.6 9.3l3.6 6.2-3.6-3.4c-3.8-3.7-3.8-3.7-5.4 2.9-.7 3-.3 4.6 2.6 10.8 3.1 6.4 3.5 8.5 3.9 17 .2 5.3 1.1 23 1.9 39.2.7 16.3 1.4 36.3 1.4 44.5.1 20.4 1.6 45.3 3 49.2l1.2 3.3H512V0H0z"/><path d="M226.5 195.7c1.3 15.1 1.7 17.4 2.8 17 2-.6 2.1-14.5.2-19.4-2.4-6.3-3.6-5.3-3 2.4m69.1 13.6c.3 1 .9 1.5 1.2 1.2s0-1.1-.7-1.8c-1-.9-1.1-.8-.5.6"/></svg>