<svg xmlns="http://www.w3.org/2000/svg" width="682.667" height="512" version="1.0" viewBox="0 0 512 384"><path d="M0 192v192h108.6c89 0 108.5-.2 108.1-1.3-.3-.7-1-6.2-1.7-12.3-1.1-9.6-1-13.8.9-35.4 3.9-44.5 4.2-47.4 6.7-60.4 1.5-8.2 2.4-16.4 2.4-22.9 0-5.5.5-12.6 1.2-15.8 1-4.7.9-7.1-.5-14.2-.9-4.7-1.7-11.9-1.7-15.9 0-10.1-1.5-19.5-4-25.1-2.4-5.5-2.8-14.1-.9-22 4.9-21.1 8.3-28.9 16.3-36.8 2.1-2.2 3.2-3.9 2.5-3.9-.8 0-2.5-.9-3.9-2s-3.2-2-4-2-2.1-.9-2.8-2-1.8-2-2.5-2c-2.8-.1-3.8-1.6-2.7-4.4.7-1.8.7-3.3 0-4.6-.8-1.6-1.5-1.7-4.4-.9-6 1.7-9.2.3-11.8-5.1-1.4-2.9-1.7-3.1-1.7-1.3-.1 1.3-.5 2.3-1.1 2.3-1.3 0-1.3-15.5.1-21.9.8-3.7 2.3-6.4 5.6-10.2l4.6-5.1-2.1-4.4c-1.2-2.5-2.2-4.8-2.2-5.3 0-.4 1.8-1.5 4-2.4 4.6-1.8 4.8-2.7 2-9.7-2.4-6-1.2-6.5 3.8-1.8l3.5 3.3-.7-4.5c-.3-2.5-.9-5.5-1.2-6.8-.5-1.7-.2-2.2 1.2-2.2 3 0 14.2 8 19.8 14.1 4.4 4.9 6.3 6.2 11.4 7.8 8 2.6 10.1 4.1 15.6 11.1 6.3 7.9 11.6 19.8 17.3 38.3 4 13.1 5.8 17 12.7 28.7 4.4 7.4 10.4 18.1 13.4 23.8 6 11.5 7.8 19.2 8.6 37.2.3 5.8 1 13.9 1.6 18s1 10.8.8 14.8l-.2 7.4-2.4-2.9-2.3-2.8.7 3.7c.7 4.2-.3 9.6-1.5 8.2-.5-.5-2.8-5.2-5.1-10.4-6.1-13.7-7.2-16.1-7.6-15.7-.5.5 2.3 14.7 3.5 18 1.4 3.6 1.4 3.7-.3 3.1-.8-.3-2.8-3.7-4.6-7.7-1.7-3.9-3.9-8-4.7-9.2-1.4-1.9-1.4-1.8-.8 1.5.4 1.9 1.5 5.4 2.5 7.7 1.3 3 1.5 4.3.7 4.6-.9.3-.8.9.2 2.3.8 1-1.9-1.4-5.9-5.4s-7.4-7.1-7.7-6.8c-.2.2.3 1.9 1.3 3.8 1.7 3.3 1.7 3.3-.4 1.5-1.9-1.8-2-1.7-3.1 3.1-1.1 4.5-1 5.2 1.5 10.3 3.9 7.6 5.3 15.6 5.4 29.4 0 6.6.4 19.2 1 28 .5 8.8 1.4 32.8 2 53.3s1.3 37.9 1.6 38.7c.5 1.3 14.2 1.5 108 1.5H512V0H0z"/><path d="M240.9 116.7c-1.3 1.6-1.2 1.7.4.4.9-.7 1.7-1.5 1.7-1.7 0-.8-.8-.3-2.1 1.3M226.5 203c.3 6.3 1 11.9 1.4 12.3 4 4 4.1-12.8.2-19.8l-2.2-4zm61.8 0c.2 1.9 1.7 5.7 3.5 8.5 4.1 6.4 4 5.4-.2-4.2-2.9-6.6-3.5-7.2-3.3-4.3"/></svg>