<svg xmlns="http://www.w3.org/2000/svg" width="682.667" height="512" version="1.0" viewBox="0 0 512 384"><path d="M0 192v192h108.1c102.6 0 108.1-.1 107.4-1.8-1.9-4.4-1.7-26.5.4-49.2 3.6-39.7 4.1-44.1 6.2-55.2 1.9-10.2 4.2-35.9 4.1-46.3 0-2.8-.5-7.3-1.1-10-.5-2.8-1.4-11.3-2-19-.8-11.1-1.6-15.3-3.5-20-1.4-3.4-2.6-8-2.6-10.5 0-5 3.1-20.4 5.7-28.5 3.2-10 10.3-20.1 17.3-24.7l2.5-1.7-3 1.1c-3.1 1.1-5.6 0-13-5.7-1-.8-2.7-1.5-3.6-1.5-2.4 0-3.3-1.8-1.9-3.5.6-.8 1-2.4.8-3.7-.3-2.1-.7-2.3-5.9-2.1-4 .2-6-.2-6.9-1.2-.7-.8-1.6-1.3-2-1s-1.1-.6-1.4-2c-.7-2.6-2.6-3.5-2.6-1.3 0 .9-.4.8-1-.2-.5-.8-.7-5-.4-9.5 1-15.3 1.2-16.2 6-22L212 59l-2.5-5-2.6-5.1 5.1-2.1c2.7-1.1 5-2.4 5-2.9s-.9-3.3-2.1-6.4-1.9-5.8-1.7-6.1c.3-.2 2.3 1.2 4.6 3.2 4.4 3.8 4.5 3.7 3.3-3.9-.6-3.8-.5-5 .6-5.4 2.2-.9 14.5 8 20.3 14.5 3.8 4.3 6.3 6.3 9.4 7.2 15.9 4.6 24.8 17.8 35.1 51.8 4 13.3 5.7 17.3 13.8 31.5 16.5 29 16.9 30.1 19.7 60.2.5 6 1.5 15.3 2.2 20.5.6 5.2.8 11.3.4 13.5l-.8 3.9-1.8-2.4-1.8-2.4.1 5.4c.1 3-.3 5.5-.9 5.7-.9.3-9.4-16.1-9.4-18.3 0-1.1-4.2-7.5-4.6-7.1-.6.6 2.5 13.5 4.2 17.5 1.9 4.6 1.8 4.9-.7 2.6-1.2-1-3.4-4.4-4.9-7.4-2.9-5.6-5.9-10.1-6-8.8 0 .4 1.1 3.7 2.4 7.2 3.4 8.9.7 7.8-4.1-1.8l-3.6-7.1-1.2 3c-.7 1.6-.9 3.6-.5 4.5 4.1 8.3 5.9 12.4 5.6 12.7-.2.2-1.9-1.7-3.9-4.2-3.5-4.5-5.9-4.7-3.6-.3 1.1 2.1 1.1 2.2-.4 1-2.9-2.5-2.5 1.9 1 9.4 2.9 6.1 3.5 8.7 4.3 19 1 12.4 2.6 57.5 3.7 101.6l.6 25.8H512V0H0z"/><path d="M225.1 142.6c0 1.1.3 1.4.6.6.3-.7.2-1.6-.1-1.9-.3-.4-.6.2-.5 1.3m1.1 63.1c.3 10.7 1.1 13.9 2.9 12.8 1.5-1 1.1-16.2-.5-20-.8-1.9-1.8-3.5-2.2-3.5-.3 0-.5 4.8-.2 10.7"/></svg>