<svg xmlns="http://www.w3.org/2000/svg" width="682.667" height="512" version="1.0" viewBox="0 0 512 384"><path d="M0 192v192h213.5l.1-15.8c.2-19.2 4.7-68.4 7.5-82.4 1.1-5.7 2.5-17.3 3-25.8s1.2-17.6 1.5-20.1c.4-2.9 0-7-1-10.9-.9-3.4-1.6-9.4-1.6-13.3-.1-11.7-1.6-20.9-4.5-28.2-2.3-5.9-2.6-7.8-2.2-13.9.6-7.9 2.8-19.4 5.3-27.1 2.2-6.7 9.7-18.8 13.7-22 1.8-1.3 2.6-2.5 1.8-2.5-.7 0-3-1-5-2.2-2-1.3-4-2.3-4.4-2.3-.5 0-1.4-.7-2-1.6-.7-.9-2.5-1.9-4-2.3-2.2-.5-2.7-1.1-2.2-2.4 1.7-4 1.7-6-.2-7-1.5-.8-6.2-.9-7-.2-1.1.9-3.2.3-5-1.4-1.3-1.1-2.3-1.5-2.3-1-.1.5-.8-.7-1.6-2.6-1.2-2.8-1.7-3.2-2.5-2-.7 1-.9-2.4-.7-11 .4-13.5 1.4-16.4 7.2-21.9l2.4-2.3-2.9-5.3c-1.6-2.9-2.9-5.7-2.9-6.2 0-1.5 8-4.5 10.6-4s2.6.3-.2-9.3c-.7-2.4-1.2-4.6-.9-4.8.5-.5 6.5 4 6.5 5 0 .4.4.8.8.8s.6-3 .4-6.6c-.4-6.6-.4-6.6 1.9-5.9 4.6 1.5 13 7.8 19.3 14.7 4.9 5.3 7.7 7.4 11.6 8.8 7.2 2.6 9.4 4.2 14.5 10.8 8.1 10.1 12.9 21.5 20 46.7 2.8 10.2 5.4 16.3 11.6 28.2 14.2 27.1 17.9 39.6 16.5 56.3-.4 4.8-.1 10.1.7 14.6 2.4 12.2 2.1 31.2-.4 24.8-.5-1.3-.8-.5-.9 2.6v4.5l-1.9-2.4c-1.8-2.3-1.8-2.3-1.5 3.5.3 4.3.1 5.2-.5 3.4-.5-1.4-.9-1.9-1-1.3-.2 2.9-1.9.9-4.8-6-1.8-4-3.5-8.5-3.8-10-1.3-5-2.8-4.3-2.1.9.9 6.8 1.6 10.6 2.2 11.6.3.4.1.8-.5.8-.5 0-2.6-2.9-4.6-6.5s-4-6.5-4.5-6.5c-1.3 0-1.3 1 .5 6 1.4 4 1.4 4.2-.3 2.9-.9-.8-2-1.8-2.3-2.3-.4-.4-1.4 1.2-2.4 3.7-1.5 4-1.5 4.8-.2 7.3 3.6 7.1 4.7 13.8 5.3 33.3.3 10.8.9 26.8 1.4 35.6s1.2 28.7 1.6 44.2l.7 28.3H512V0H0z"/><path d="M224.1 145.6c0 1.1.3 1.4.6.6.3-.7.2-1.6-.1-1.9-.3-.4-.6.2-.5 1.3m.9 61.6c.1 7.5 1.2 15.4 2.4 16.6 3 2.9 3.5-13.2.6-19.6-1-2.3-2.1-4.2-2.5-4.2-.3 0-.5 3.3-.5 7.2"/></svg>