<svg xmlns="http://www.w3.org/2000/svg" width="682.667" height="512" version="1.0" viewBox="0 0 512 384"><path d="M310 16.6c-1.9.7-4.5 1.3-5.8 1.3-11 .3-15.6 15.8-9.6 32.1 1.5 3.9 2.5 7.2 2.3 7.4-.2.1-4.2 2.3-8.8 4.7-19.1 10-38 34-38.1 48.3 0 5.2-2.9 15.9-5.1 18.9-2.7 3.7-1.6 4.7 1.7 1.6l2.6-2.4-.6 3.5c-.5 2.2-.4 3 .2 2.2 1.2-1.8 2.2 3 2.2 11.2.1 5.8.1 6 1.4 3.1l1.2-2.9 1.7 4.2c.9 2.3 1.8 4.2 2 4.2s.2-1.5 0-3.3l-.3-3.2 1 3.1c1 3.2 4 5.4 4 3.1.1-.7.6-.5 1.4.5.7 1 1.6 1.8 2 1.8s2.3 1.6 4.2 3.7c1.9 2 3.7 3.4 3.9 3.1.3-.3-.3-2.6-1.4-5.2-2.5-5.7-2-5.9 1.2-.5 2 3.3 2.6 3.8 2.9 2.3.4-1.5.6-1.4 1.3.9 1.1 4.2-.3 9.4-3.7 13.3-3 3.4-3 3.5-1.2 5.5 1 1.1 3.3 2.7 5.1 3.4 2.5 1 3.5 2.2 3.9 4.5.4 1.7 1.7 3.9 3 4.9s2.4 2.3 2.4 2.8c0 .4.9 1.4 2 2.1 1.1.6 3.2 3.1 4.6 5.3 2.5 4 2.6 4.5 1.5 11.3-.7 5.2-.7 7.2.2 7.8.6.3 1.5.4 2.1.1.5-.4.7 1.3.3 4.5-.4 3.6-.2 5.2.7 5.5.8.3 1.8 4.1 2.6 9.5l1.3 9-3.9 9.9c-2.1 5.4-4.1 10.2-4.5 10.7-.4.4-3 .1-5.8-.9-5.6-1.8-8.4-1.4-11.9 1.9-2.2 1.9-2.3 2.7-2 11.1.3 9.9.3 10-7 17.9l-4.3 4.6-7.2-4.8c-11.6-7.9-34-20.6-36.4-20.7-1.3-.1-3.5-1.9-5.7-4.8-3.5-4.5-3.6-5.1-3.6-13 0-13.7-3.7-23.3-10.4-27.2-2.5-1.5-4.5-1.7-13.6-1.2l-10.8.6-.7-4.4c-.8-5.9-2.5-4.8-2.5 1.5v4.9l-6.7 2.1c-6.5 2-13.1 5.4-14.5 7.4-.5.6-1.9 4.9-3.4 9.5-2.1 6.9-2.3 8.8-1.4 11.5.6 1.7 1.5 6.2 2.1 10.1 1.1 8.1 3.8 13.1 11.1 20.8 4.6 4.8 6.3 5.8 13.3 8 4.4 1.4 10.2 2.8 12.8 3.2 3.9.6 4.7 1 4.1 2.4-3 7.1-4.7 17.6-4.9 31.1-.2 10-.8 16.2-1.9 20-.9 3-2 9.2-2.3 13.8l-.6 8.2h109.2l.4-2.8.4-2.7.2 2.7.1 2.8h67.5c37.1 0 67.5-.2 67.5-.5s-1.6-3.7-3.5-7.6c-3.5-6.8-3.6-7.3-3.3-16.7l.3-9.7 6.3-1.1c5.2-.9 13.2-3.6 15.2-5.2.2-.1-.2-.7-1-1.3-1.2-.8-.8-1.6 2.4-4.3l4-3.4-5.7-.7c-5.4-.7-6.5-.4-18.3 4.4-11.3 4.7-16.6 5.8-15 3.2.9-1.3-1.4-16.4-2.6-17.8-.6-.7-.7-2-.4-2.9.4-1 0-5.4-.9-9.8-1.2-6.6-3.6-20.1-7.2-40.8-1.1-5.9 6.1-1.9 7.7 4.3 1.2 4.4 4.4 8.3 6.3 7.6 1.5-.5 2.1-3.3 1.2-5.5-.7-1.8-1-3.9-1.9-19.7-.4-5.5-.9-12.3-1.1-15l-.5-5 2.4 6c2.5 6.4 7.4 16.5 8 16.5.5 0 .1-2.6-2.8-19.3-1.4-8.2-2.6-17.2-2.5-20v-5.2l3.3 10.5c3.1 10.3 13.1 32.8 14.1 31.8.3-.3-.4-4-1.4-8.4-1.1-4.3-2.2-9.7-2.5-11.9s-.8-6-1.1-8.5l-.5-4.5 1.5 2.9c6.8 12.8 13.9 22.6 12.1 16.8-1.6-5.1-2.7-17.3-3.6-39.2-1.2-30.7-1.7-37.8-3.6-51.5-2.9-20.6-10.5-48-17.1-60.9-1.4-2.7-2.9-7.9-3.4-11.5-1.2-8.3-4.6-15.7-11.1-24.3-7.7-10.1-13.3-14.2-22.4-16.4-5.2-1.2-12.2-.6-17.8 1.5-1.6.7-3.3.8-4 .3-.6-.5-3.1-1.6-5.5-2.6-2.4-.9-7.4-4.5-11.2-7.9-6.7-6-21.4-15.8-23.4-15.6-.5.1-2.6.7-4.5 1.5m14.2 201.1c-1.5 1.2-3 2.2-3.4 2.3-1 0-1-7.6-.1-12l.6-3.3 2.8 5.4 2.7 5.4zm83.7 54.8c.2 2-4.6-7.1-5.2-10-.4-1.9.4-.8 2.3 3 1.5 3.3 2.9 6.4 2.9 7M290.7 376.2c-.2 1.3-.4.5-.4-1.7-.1-2.2.1-3.2.4-2.3.2 1 .2 2.8 0 4"/></svg>