<svg xmlns="http://www.w3.org/2000/svg" width="682.667" height="512" version="1.0" viewBox="0 0 512 384"><path d="M0 192v192h210l.4-2.3c.3-1.2 1.2-10.5 2.1-20.7 2.6-31.1 3.5-39 6.1-51.7 1.8-9.1 2.4-15.5 2.4-24.8 0-6.8.5-14.4 1.1-16.7.9-3.2.9-6.2 0-11.8-.7-4.1-1.6-13.8-2.1-21.5-1.2-18.4-1.5-20.1-5-27.6-5.3-11.4-5.2-12.2 2.1-42.2 2.6-10.6 8-20.9 14-26.9 2.7-2.7 4.5-4.7 3.9-4.3-1 .6-7.7-3.1-13-7.3-1.5-1.2-3.7-2.2-4.8-2.2-2.8 0-3.4-1.3-1.7-3.6.8-1 1.5-2.7 1.5-3.6 0-1.7-3.8-5-4.9-4.4-.3.2-2.2.7-4.2 1-2.8.4-4.3.1-6.2-1.4-1.3-1.1-2.7-1.7-3-1.4s-1.1-1.1-1.7-3.2l-1.3-3.7-1.3 2.9c-1.2 2.5-1.3 1.3-.8-9.6.7-16.8.9-18.1 4.9-23.9l3.5-5-4-7.4-4.1-7.5 3.6-2.1c5.3-3.1 7.8-3.4 12-1.7 2.1.9 4 1.4 4.2 1.2s-.3-3.9-1.1-8.2-1.3-8.1-1.1-8.3c.3-.2 1.6.4 3 1.3 1.3.9 2.8 1.6 3.2 1.7.4 0 1.2-2.4 1.8-5.3 1.2-6.4 2.2-6.5 10.4-.8 8.4 5.7 14.8 11.7 17.6 16.5 2.1 3.5 3.5 4.6 8.4 6.4 6.7 2.4 10.1 5.5 17 15.6 8.1 11.7 13.9 27.1 18.7 49.5 1.8 8.6 5 18.4 10.1 31.4 7.5 19.1 11.6 33.9 12.9 46.8.5 5.3.4 6.8-.6 6.6-.8-.2-1.8 1.7-2.7 5.2-.8 3-2.1 7-3 8.9-1.2 2.7-1.3 4.1-.4 7.1 2 6.7 1.3 11-3.8 23.5-7.2 17.8-9.4 26.3-8.2 31.7.6 2.3 1.1 11 1.1 19.3 0 8.2.7 26.7 1.5 41s1.5 29.9 1.5 34.7v8.8h212V0H0z"/><path d="M222.1 225.5c0 3.3.5 8.7 1 12s1 6.6 1.1 7.2c.1.9.5 1 1.5.2.8-.8 1.3-3.5 1.3-7.8 0-7.3-1.2-12.7-3.5-15.6-1.3-1.8-1.4-1.5-1.4 4"/></svg>