<svg xmlns="http://www.w3.org/2000/svg" width="682.667" height="512" version="1.0" viewBox="0 0 512 384"><path d="M0 192v192h209.8l.6-3.7c.3-2.1 1.5-14.2 2.6-26.8 1.2-12.7 2.6-24.8 3.1-26.9.9-3.3.8-4.1-.5-4.8-1-.6-1.6-2.4-1.7-5.1 0-3.6-1.6-9.9-1.8-7.3-.1.5-.8.3-1.6-.4-2.9-2.4-1.8-7.8 3.8-17.3 6.7-11.6 8.2-16.5 7.2-25.4-.4-3.7-1.1-7.8-1.6-9.1-.5-1.4-1.3-10.2-1.8-19.6-.8-16.7-.9-17.3-4.2-23.5-5.6-10.9-5.4-14.8 2.3-44.9 3.1-12.3 8-21.3 15.1-27.8 3.4-3.1 5.2-5.1 3.9-4.5-1.9 1-2.9.8-6.9-1.6-2.5-1.5-5.6-3.8-6.8-5.1-1.2-1.2-3.1-2.2-4.1-2.2-3.4 0-4.7-1.5-3.5-3.8 1.7-3.3 1.3-7-.9-8.2-1.1-.6-2.4-.9-2.9-.6-.4.3-2.7.8-4.9 1.1-3.4.4-4.4.1-5.6-1.6-.8-1.2-1.8-1.9-2.3-1.6s-1.5-1-2.2-3l-1.4-3.6-1.3 2.4c-1.2 2.2-1.3 1.8-1.4-4.6 0-8.8 1.7-23.1 3.2-25.9.6-1.2 2.3-3.7 3.8-5.6l2.8-3.5-3.9-7c-2.1-3.9-3.9-7.5-3.9-8 0-.6 2.4-2.1 5.3-3.4 5-2.3 5.4-2.3 9.7-.8 2.4.9 4.6 1.5 4.7 1.3.2-.2-.3-3.5-1.2-7.5-2.2-10.5-2.1-10.8 1.9-7.7 1.9 1.4 3.7 2.6 3.9 2.6s.7-2.7 1.1-6c.8-7.3 1.8-7.5 9.6-2.3 4.8 3.2 17 14.8 22.2 21.2 1 1.1 3 2.3 4.5 2.7 8.5 2 18.4 13.2 26.1 29.4 5.4 11.4 8.3 20.9 12.3 39.4 1.6 7.6 4.5 17.5 6.3 22 12.7 30.5 22.2 66.6 17.6 66.6-.5 0-1-.5-1-1 0-.6-.4-1-1-1-.5 0-.9.3-.8.7.3 1.3-2.4 11.7-3.3 12.9-.6.7-.1 4.4 1 9.4l2 8.3-4.6 11.6c-9.9 25.1-10.5 27.3-11 42.1-.3 7.4 0 23.8.7 36.5.6 12.6 1.4 29.6 1.7 37.8l.6 14.7H512V0H0z"/><path d="M221.4 237c.5 10.8 1.8 16.6 3.6 15.5 1.3-.8 1.3-13.9 0-18.5-.5-2-1.7-4.5-2.6-5.5-1.4-1.8-1.5-1.2-1 8.5"/></svg>