<svg xmlns="http://www.w3.org/2000/svg" width="682.667" height="512" version="1.0" viewBox="0 0 512 384"><path d="M0 192v192h105c57.8 0 105-.3 105-.8 0-4.8 4.4-43.5 5.5-49.1.8-4.1 1.3-7.6 1-7.9s-1.3.2-2.3 1.1c-1 1-2.6 1.7-3.6 1.7-.9 0-2.8.7-4.1 1.6-2.2 1.5-2.8 1.5-4.7.2-2-1.4-2.4-1.3-3.8.4-3.5 4.4-7.5-2.1-6.8-11.2.2-3.9 0-4.6-1-3.8-2.1 1.8-3.6-.7-3.3-5.7 0-1.1 3.5-7.2 7.8-13.5 4.2-6.3 7.6-12.2 7.5-13.2 0-.9.8-2.4 1.9-3.4 1-.9 1.9-2.9 1.9-4.3 0-1.9 1.7-4.3 6-8.6l6-5.9V254c-.1-16.1-1.7-26.1-5.5-34.1-4.4-9.3-5.2-15.4-3.1-23.4.8-3.3 2.2-8.9 3.1-12.5 5.5-22.5 10.8-33.2 19.5-39.8 5.3-4 6.5-6 2.2-3.8-2.7 1.4-3.1 1.4-4.3-.1-.8-.9-2.9-2.2-4.7-3-1.8-.7-4.2-2.3-5.3-3.4-1.2-1.2-3.3-2.5-4.8-2.9-2.7-.7-2.8-1.2-1.6-7.5.7-4-2.7-6.8-6.5-5.2-4.8 1.9-6.3 1.8-9.3-1-1.7-1.6-2.6-2.2-2.2-1.4.5.9.4 1.2-.3.7-.6-.3-1.3-2-1.7-3.6-.8-3.6-1.8-3.8-3.3-.8-.9 1.8-1-.2-.6-8.7.9-18.3 1.8-22 6.3-27.9l4.1-5.2-3.5-6.5c-1.9-3.5-3.5-7.1-3.5-7.9 0-1.8 7.6-6 10.8-6 1.3 0 3.6.7 5.2 1.5 3.5 1.8 3.5 2 1.4-8-.9-4.2-1.3-7.9-1-8.3.4-.3 2.1.9 4 2.7 3.3 3.2 3.3 3.2 4 .9.3-1.3.6-4.2.6-6.6 0-2.9.5-4.4 1.6-4.9 3.4-1.3 23.2 15 28.6 23.5 1.2 2 3.6 3.7 6.6 4.8 7.1 2.7 10.5 5 13.9 9.2 13.2 16.5 19.7 32.2 26.2 62.7 2.3 10.9 4.7 18.1 10.7 32.5 11.4 27.8 21.1 68.2 13.9 58.4-1-1.4-1.5-.7-3 4.7-2.1 7.6-2.2 11.2-.5 19.9l1.3 6.5-6 15c-6.6 16.3-8.5 22.5-10.3 32.5-1.5 8.2-1.9 34.8-.9 50.5.5 6.6 1.1 17.5 1.5 24.3l.7 12.2H512V0H0z"/><path d="M220.3 244c.7 11.3 1.1 12.7 3.4 10.8 2.8-2.3-.2-20.8-3.4-20.8-.3 0-.3 4.5 0 10"/></svg>