<svg xmlns="http://www.w3.org/2000/svg" width="682.667" height="512" version="1.0" viewBox="0 0 512 384"><path d="M0 192v192h105c72.2 0 105-.3 105-1 0-5 3.6-31.7 5.6-41.3 1.9-9.6 2.4-15 2.4-27.3 0-8.4.5-16.5 1.1-18 1.1-3-.5-12.4-2.1-12.4-.5 0-3.7 3.5-7.1 7.7-7.7 9.7-8.5 10.3-12.6 10.3-3.7 0-5.7 2.3-6.8 8-.4 1.9-2 6.6-3.6 10.4-3.5 8.3-3.8 13.5-.9 14.3 2.5.7 2.1 2.5-.8 3.8-1.2.5-2.2 1.5-2.2 2.1 0 3-6.4 3.1-8.4.2-1-1.4-1.6-1.7-1.6-.9s.7 2.3 1.6 3.3c1.6 1.6 1.5 1.8-.1 2.4-3.4 1.3-6.9-.9-8.7-5.6l-1.7-4.5v4.6c-.1 5.5-1.8 7.5-4.7 5.5-2.1-1.6-2.5-8.2-1.1-19.2.8-6 .7-6.2-1.8-6.8-1.4-.4-2.5-1.2-2.5-2 0-1.7 4.8-8.2 8.9-12 1.7-1.7 3.1-3.4 3.1-4 0-.5 2-3.6 4.5-6.7 2.7-3.4 4.3-6.3 3.9-7.2-.3-1 .4-2.2 1.9-3.2 1.4-.9 2.7-2.9 3.1-4.5.4-2.4 2.1-4 7.8-7.7 8-5.1 13.1-9 22.6-17.2l6.3-5.4-.6-5.1c-.4-2.8-1.7-7.4-3-10.1-8-16.9-8.3-21.1-3-37.2 1.9-5.8 3.5-11.2 3.5-12 0-1.7 4.6-16.4 6.7-21.5 1.3-3.1 8.2-10.3 16.6-17.4 2.8-2.3 1.4-2.7-2.6-.8-3.4 1.6-3.7 1.6-6.3-.2-1.4-1-3.9-2.6-5.4-3.4-1.6-.8-4-2.7-5.4-4.3-1.4-1.5-3.4-2.7-4.6-2.7-2.1 0-2.9-3.3-1-4.5s1.1-6.2-1.3-7.7c-1.8-1.3-2.9-1.3-6.5-.3-4 1.2-4.5 1.2-7.1-1.1-1.6-1.3-3.1-2.1-3.4-1.8s-1.1-1.3-1.8-3.6l-1.3-4.2-1.8 2.4-1.8 2.3.5-4c.2-2.2.7-7.2 1-11.2.6-8.6 2.9-18.7 4.6-21.1.7-.9 2.8-3.3 4.7-5.3l3.4-3.6-3-5.9c-4.9-9.8-4.9-9.9.1-12.3 5.1-2.5 10.4-2.7 13.5-.5 2.7 1.9 2.7 1.6.6-9.4-.9-4.5-1.4-8.5-1-8.9.3-.4 2.1.8 3.9 2.5 1.8 1.8 3.6 3.2 3.9 3.2s.9-2.9 1.3-6.5c.3-3.6 1.1-6.8 1.7-7.1 2.8-1.7 26.9 19.6 29.7 26.2.9 2.4 2.7 3.8 6.9 5.8 8.6 3.9 10.9 5.7 16.4 13.2 10.4 14 17.5 32.5 23.8 61.8 2.4 11.2 4.5 17.6 8.7 26.9 14.2 31.7 17.1 39.9 19.8 57.2 2 12.1 1.9 14.1 0 12.5-1.3-1.1-1.5-.8-1.5 2.1-.1 1.9-.7 5.2-1.5 7.4s-1.5 7.4-1.5 11.5c0 14.6-2.3 23.3-10.2 40-5.3 11.1-8.7 26.7-9.8 44.5-.9 13.1-.5 38 .6 45.2l.5 3.3H512V0H0z"/></svg>