<svg xmlns="http://www.w3.org/2000/svg" width="682.667" height="512" version="1.0" viewBox="0 0 512 384"><path d="M0 192v192h105c57.8 0 105-.3 105-.8.1-4.8 3.5-29.9 5.5-39.7 2.1-10.7 2.5-14.9 2.2-27.8-.1-11.1.2-15.8 1.1-17.5 1.1-1.9 1.1-3.4.2-7.5-2.4-10.3-1-10.9-19.7 9-2.7 2.9-3.8 3.4-6.1 2.8-3.7-.8-5.5 1.3-7.7 9-.9 3.2-2.7 8-3.9 10.5-3.4 6.6-3.9 11.4-1.5 13.6 2.7 2.4 2.4 3.4-1.2 3.4-2.6 0-2.9.3-2.4 2 1 3.3-5.1 3-7.7-.3-1.7-2.2-1.8-2.2-1.8-.2 0 1.2.5 2.6 1.1 3.2 1.3 1.3.4 3.3-1.5 3.3-2.9 0-6.1-3.9-7.2-8.6l-1.2-4.9-.1 4c-.3 8-2.4 11-5.6 7.9-1.9-2-1.9-9 0-16.9s1.9-10.5 0-10.5c-4.2 0-2.3-7.4 3-11.4 5.1-4 15.4-18.1 14.8-20.5-.3-1.3.1-2.1 1.6-2.6 1.2-.3 2.8-2.2 3.6-4.1.9-2.2 3-4.3 6.1-6.1 10.6-6.3 17.7-11.2 25.3-17.3 7.5-6.1 8-6.7 8-10.6.1-2.8-1.2-6.6-4-12.5-3.5-6.9-4.3-9.7-4.7-15.9-.4-6.6 0-9 3.3-19.5 4.9-16.1 8.2-27.4 8.9-30.6.8-3.9 8.1-12.4 13.6-16 2.6-1.7 5-4 5.3-5 .5-1.8.3-1.8-3.4.3l-3.9 2.2-2.8-2.2c-1.5-1.2-4.4-3.1-6.4-4.2s-3.9-2.9-4.3-4c-.4-1.2-1.5-2-2.8-2-1.2 0-2.8-.4-3.6-.9-1.1-.7-1.1-1.3.3-3.2 3.6-5.2.4-10.6-5.6-9.6-1.8.3-4.1.8-5 1.2-1.2.5-2.5-.2-4.2-1.9-1.6-1.9-2.6-2.3-2.9-1.4-.2.7-1-.8-1.7-3.5-1.4-5.4-2.2-5.8-3.7-2l-1.1 2.8-.1-3c-.2-7 3.2-29 5.2-32.9.5-1 2.7-3.9 5-6.3l4-4.3-3.2-6.8c-3.7-8.1-3.8-9.9-.8-10.7 1.2-.4 3.8-1.4 5.7-2.2 3.2-1.5 3.7-1.5 7.4.6 2.2 1.1 4.1 2 4.3 1.8.1-.2-.4-4.5-1.3-9.6s-1.3-9.5-1-9.9c.4-.3 2.1.9 3.9 2.6 1.8 1.8 3.6 3.2 3.9 3.2s.8-2.7 1.2-5.9c1-8.4 2.3-9.1 8.8-4.7 2.9 2 8 6.3 11.4 9.6 5.7 5.6 8.2 8.8 12.7 16.2.9 1.5 3.3 3.2 5.4 3.9 6.2 2 10.6 5.5 15.5 12.2 11.8 16.3 16.9 29.3 24.2 62.4 3.5 15.9 4.5 18.5 17.6 47.3 5.5 12.1 11.2 30.4 11.5 37 .1 2.5.6 6.6 1 9.3.7 4.3.6 4.7-1 4.1s-1.7-.3-1.2 2.4c.4 2 0 4.2-1.1 6.4s-1.6 5.2-1.5 8.8c.4 10.3-1.6 25.3-4.6 33.6-3.9 11-5.3 13.7-6.2 12.3-1.3-2.1-4.6 6.2-6.3 16.1-1 5.2-2.4 10.5-3.2 11.7-1.1 1.8-1.4 7.9-1.4 31.8V384h210V0H0z"/></svg>