<svg xmlns="http://www.w3.org/2000/svg" width="682.667" height="512" version="1.0" viewBox="0 0 512 384"><path d="M0 192v192h209.9l.5-4.3c.3-2.3 1-8.4 1.6-13.5s2.2-15 3.6-22c2.3-11.2 2.5-14.2 1.9-25.2-.4-9.2-.2-13.9.8-17.7 1.2-4.5 1.2-6.1.1-10.5-.8-2.9-1.4-6.5-1.4-8.1v-2.8l-5.7 4.4c-3.2 2.5-8.6 7.5-12 11.2-5.9 6.4-6.4 6.7-9.8 6.2-2.9-.5-3.8-.2-5.5 2-1.1 1.4-2 3.5-2 4.5 0 1.1-1.7 5.7-3.8 10.2-5.1 10.8-5.6 13.8-3.2 16.9 2.8 3.6 2.5 4-2.1 3.4-3.9-.5-4-.5-2.3 1.4 1.5 1.7 1.5 1.9 0 2.5-3 1.2-6.6-.5-8-3.9l-1.4-3.2-.1 3.2c-.1 1.7.4 3.5.9 3.8.6.3 1 1.3 1 2.1 0 2.3-3.4 1.6-6.3-1.4-2.2-2.3-2.7-3.8-2.8-8.3l-.1-5.4-.9 5.5c-1.5 9.6-1.8 10.2-4.2 9.8-1.9-.3-2.2-1-2.5-5.9-.2-3.5.5-9 1.8-14 1.2-4.7 1.7-8.5 1.2-8.7-.5-.1-1.8-.9-2.8-1.7-1.8-1.3-1.8-1.5-.1-4.7 1-1.8 3.3-4.4 5.3-5.7 3.9-2.7 15.4-17.2 15.4-19.5 0-.8 1.3-2.4 2.9-3.6 1.6-1.1 3.1-3 3.3-4.3.2-1.6 2.6-3.4 9.8-7.2 10-5.3 18.1-10.6 26.7-17.4 6.6-5.2 6.7-6.7 1.1-18.1-3.7-7.4-4.3-9.5-4.6-16.5s.1-9.4 3.1-19c2-6.1 4.7-15.3 6.2-20.5s3.6-11.4 4.7-13.7c1.9-4 8.4-10.6 14-14.5 1.4-.9 2.8-2.5 3-3.6.5-1.8.4-1.8-3.3.2-3.2 1.8-4.1 1.9-5.6.8-1-.7-3.1-2-4.8-3-1.6-.9-4.3-3.2-6-5-1.7-1.7-4.1-3.2-5.4-3.2-2.8 0-3.8-2.6-1.7-4.9 3.9-4.3-.3-9.9-6.6-8.7-5.3 1.1-7.2.8-8.6-1.1-.7-1-1.8-1.8-2.5-1.8s-1.6-1.7-2.1-3.8c-1.1-4.3-1.9-4.6-3.4-1.5-1 2.1-1.1 2-1.1-1.2-.1-3.9 2.4-21.4 3.8-27.2.8-3.6 4.8-9.4 8.9-13.1 2-1.8 2-1.8-1.3-9.5-3.3-7.6-3.3-10.2 0-10.2.7 0 2.6-.7 4.1-1.5 3.8-2 5.3-1.9 9.1.4 1.7 1.1 3.3 1.8 3.6 1.5.2-.2 0-3-.4-6.2-.5-3.1-1.1-7.4-1.4-9.5-.7-4.6.8-4.8 5.1-.6l3.2 3.1.7-5.9c.8-7.6 1.6-8.7 5-7.9 3.4.9 24.7 22 26.8 26.7 1.9 4.2 3 5.2 7.5 6.7 5.5 1.9 10.9 6.9 16.8 15.8 9.5 14.3 15.2 30.3 21.5 59.9 2.9 13.7 3.9 16.8 12.5 35.5 5.4 11.6 10.9 25.5 12.8 32 3.7 12.4 5.7 29 3.6 29-.7 0-1.1 1.4-.9 3.7.1 2.1-.5 5.5-1.4 7.5-1.2 2.7-1.5 4.7-.9 7.4 1.4 7-.5 22.8-4.3 34.9-1.9 6.3-4 11.7-4.5 12-.6.3-1 .2-1-.4s-.6-.8-1.4-.5-1.2 1.2-.9 2q.45 1.35-.9.9c-1.8-.7-3.3 3.5-5.3 14.9-.8 4.9-2.2 9.7-3 10.6-1.3 1.4-1.5 6.3-1.5 30.3V384h210V0H0z"/></svg>