<svg xmlns="http://www.w3.org/2000/svg" width="682.667" height="512" version="1.0" viewBox="0 0 512 384"><path d="M0 192v192h210.7l1.2-12.3c.7-6.7 2.4-18 3.7-25 2.1-10.9 2.5-15.1 2.2-28-.2-11.1.1-16.1 1.1-18.4 1-2.6 1.1-3.9.2-6.5-.7-1.8-1.6-6.6-2.1-10.6-.4-4-1.1-7.6-1.4-7.9-.9-.9-16.4 8.4-23.6 14.2-8.8 7.1-10.3 7.8-13.4 6.4-3.4-1.6-5-.1-6.4 5.4-.6 2.3-2.8 6.9-4.8 10.2s-4.2 7.8-5 9.9c-1.2 3.4-1.2 4.2.1 6.2 3.2 4.9.2 6.2-4.1 1.8l-2.6-2.5.7 4c.5 3.2.4 4.1-.7 4.1-1.5 0-5.7-3.5-5.9-4.8-.8-7.5-2.1-7.7-1.8-.3.1 3.6-.2 6.6-.7 6.8-.6.2-2-.7-3.2-2-1.8-1.9-2.2-3.6-2.3-9.3-.1-4.7-.4-6.1-.9-4.4-2.8 9.3-3.5 11.1-4.7 12.1-2.3 2-4.3.2-4.3-3.9 0-3 3.9-14.9 8.5-25.4.6-1.4.2-1.8-1.8-1.8-1.3 0-3-.7-3.7-1.5-1.1-1.3-.9-2 1.1-4.1 1.3-1.4 4.4-3.8 6.9-5.2 5.8-3.4 17-14.3 17-16.5 0-1 1-2.1 2.3-2.6 1.2-.5 3.2-2.3 4.4-3.9 1.8-2.4 4.1-3.7 10.7-5.7 4.6-1.5 14.2-5.8 21.2-9.5l12.9-6.7-.1-5.4c0-3.5-1-7.5-2.7-11.4-3.8-8.5-3.7-17.1.3-28.5 4.4-12.5 8.1-24.9 8.9-30 .4-2.5 1.1-5.2 1.6-6 2.6-4.4 7.4-9.4 12.1-12.6 3.3-2.3 5.4-4.5 5.7-6 .2-1.4.2-2.3-.2-2.2-.3.2-2.3 1.2-4.4 2.3l-3.7 1.9-3.3-3c-1.7-1.7-4.4-3.6-5.9-4.4-1.5-.7-3-2.2-3.4-3.2-.3-1.1-1.9-2.1-3.5-2.5-3.8-.7-4.4-1.9-2.5-4.8 2.1-3.2 2-5.8-.2-7.8-2-1.9-7.7-2.3-8.7-.7-.8 1.3-4.5-.6-6.3-3.2-.7-1-1.7-1.6-2.1-1.3-.5.2-1.4-1.4-2.1-3.7l-1.2-4.2-2 2.5c-1.7 2.1-1.9 2.1-1.4.4.3-1.1 1-5.5 1.5-9.8.6-4.2 1.8-11 2.7-14.9 1.5-6.4 2.3-7.9 7.1-12.9l5.4-5.7-3.1-7.7c-1.7-4.3-2.9-7.9-2.8-8 .2-.2 2-1 4.2-1.9 4.8-2 10.5-2.1 13.3-.1 1.2.8 2.4 1.2 2.6.8.3-.5.2-5.2-.2-10.6-.7-10.5-.2-11.5 3.9-7.2 1.3 1.4 2.6 2.5 3 2.5s1.4-2.7 2.3-6c1.3-4.4 2.2-6 3.5-6 5.1 0 23.3 19.1 27.3 28.7 1.7 3.9 3 5.5 5.3 6.4 5.6 2.2 10.3 5.9 13.9 11.2 11.4 16.8 16.7 31.6 23.7 66.4 2.7 13.5 3.8 16.6 12.3 35.8 11.8 26.4 15.6 38.7 15.7 51 .2 10.9-.3 16.5-1.4 18.4-.5.7-1 8.4-1.1 17-.2 13.4-.7 17-3 25.6-3.4 12.6-4.4 14.4-4.6 8.5l-.1-4.5-1.5 5.7c-1.6 6.3-2.9 7.3-3.9 3.3-.4-1.4-.8-2.4-1.1-2.1-.7.7-3.4 11.5-4.9 19.9-.7 4.4-2 8.7-2.7 9.6-1.8 2-3.1 30.8-2.1 46.9l.7 11.2H512V0H0z"/><path d="M221.5 272.3c-.4 1-.5 2.1-.1 2.4 1 1 1.8-.4 1.3-2.4-.4-1.7-.4-1.7-1.2 0"/></svg>