<svg xmlns="http://www.w3.org/2000/svg" width="682.667" height="512" version="1.0" viewBox="0 0 512 384"><path d="M0 192v192h212v-4.3c0-6.5 1.9-20.9 4.5-34.9 2.2-11.1 2.4-14.3 1.8-26.5-.4-9.7-.2-15 .6-17.5 1-3 .9-4.6-.4-9.1-.9-3-1.5-7-1.5-8.8.1-4.7-1.1-12.9-2-12.9-3.2 0-23.4 7.2-31.3 11.1-9.8 4.9-14.3 5.9-16.5 3.7-1.4-1.4-1.2-1.7-4.6 5.5-1.5 3.1-4.5 7.9-6.6 10.5-4.6 5.8-7 10.4-7 13.2 0 2.5-2.1 2.6-4.3.2-1-1.1-1.4-2.7-1.1-4.2.5-2 .3-2.2-.5-1-.6.8-1.1 2-1.1 2.7 0 .6-.5 2.4-1 3.9l-1.1 2.7-2.4-2.3c-3-2.9-3-3 0-10.5 1.5-3.7 1.8-5.2.8-4-2 2.5-6.3 12.1-6.3 14 0 2.6-2.3 2.9-4.2.5-2.3-2.9-2.3-5.1.3-10.1 3.1-6.2 1.5-5.9-2.1.4-1.6 3-3.9 6.2-5 7.2-1.9 1.7-2.2 1.8-3.7.2-1.5-1.5-1.6-2.1-.4-5.4.8-2.1 2.6-5.6 4.1-7.8 5.5-7.9 13.1-20.8 12.5-21.3-.3-.3-2.1.2-4 1.1-3.2 1.5-3.5 1.5-5.7-.3l-2.3-2 2.5-2c1.4-1.1 5-2.7 8-3.6 7.3-2.1 20.8-9.5 21.6-11.7.3-.9 1.3-1.7 2.3-1.7s3.5-1.3 5.5-2.9c2.8-2.2 5.1-3 10.3-3.6 7.3-.8 26.6-5.4 32.3-7.7 3.2-1.3 3.5-1.9 4.5-7.4.8-5 .7-6.8-.9-11.4-2.4-7.2-1.7-16.1 2-25.5 5.9-15.2 10-28.5 9.1-29.4-2.6-2.6 4.9-12.9 13.9-19.2 2.5-1.7 4.3-3.8 4.6-5.3.7-3.5.1-3.7-3.8-1.4-2.9 1.7-4 1.9-6 1-1.3-.7-2.4-1.6-2.4-2.1s-1.6-1.8-3.5-3c-1.9-1.1-4-3.2-4.6-4.5-.7-1.5-2.3-2.8-4-3.1-4-.9-4.2-1.8-1.8-6l2.2-3.6-2.3-2.4c-2.5-2.6-5.9-3.2-9-1.5-1.4.7-2.4.4-4.4-1.7-1.4-1.4-2.6-3-2.6-3.5s-.4-.7-.9-.3c-.6.3-1.3-1-1.7-3-.8-4.5-1.8-5.1-3.3-1.8-.6 1.4-1.3 2.4-1.5 2.2-.5-.5 2-13.5 4-21.4.9-3.3 1.8-7.4 2.1-9 .4-1.9 2.8-5.2 6.6-8.9l6-5.8-2.4-7.5c-1.9-6.3-2.1-7.6-.9-8.3 2.6-1.6 12-2.3 14.6-1.1 1.4.6 2.9 1.1 3.3 1.1s1.1-4.5 1.4-10.1c.3-5.5.8-10.3 1.1-10.7.4-.3 1.9.7 3.6 2.3l2.9 2.8 2.4-5.5c1.4-3.1 2.9-5.8 3.4-6.1 2.9-1.8 20.3 16.8 24.6 26.1 1.4 3.2 2.8 6.9 3.1 8.4.4 1.8 1.6 2.9 3.7 3.7 6.5 2.2 11.4 8.1 18.4 22 6.4 12.7 9.8 24.9 14.6 52.9 2.7 16.4 3.4 18.5 11 37 4.4 10.9 9.6 25.1 11.4 31.7 3.4 12.3 5.3 27.5 3.5 27.5-.6 0-1 1.5-1 3.3 0 1.9-.7 5.6-1.5 8.3-.9 2.8-1.5 8.3-1.4 12.9.1 12.6-1.8 22-8.3 39.2-1.1 2.9-2.6 5.3-3.3 5.3-1.3 0-2 2.6-4.5 16.4-.5 3.3-1.8 6.8-2.7 7.8-1.5 1.7-1.7 5-1.8 29.6v27.7l105.3.3 105.2.2V0H0z"/><path d="M221.4 267.8c-.8.5-.8 1.7.2 4.2l1.2 3.5.1-4.3c.1-2.3 0-4.2-.1-4.2-.2 0-.8.4-1.4.8m89.2 29.8c-.4 1.4-.5 2.8-.3 3.1.3.2.8-.8 1.1-2.3.4-1.4.5-2.8.3-3.1-.3-.2-.8.8-1.1 2.3"/></svg>