<svg xmlns="http://www.w3.org/2000/svg" width="682.667" height="512" version="1.0" viewBox="0 0 512 384"><path d="M314 12c-.8.5-4 1.4-7 2-7.2 1.4-9.3 2.6-11.3 6-4.4 7.3-3.8 21 1.2 30.7l2 4-8.3 4.2c-20.9 10.6-36.8 29.1-40.2 46.7-3.1 16.5-3.6 18.4-6 22-3 4.4-2.4 5.6 1.2 2.3l2.7-2.4-.6 3.9c-.6 3.5-.5 3.7.8 2s1.4-.9 1.5 6.9c0 5.6.4 8.6 1 8.2.6-.3 1-1.8 1.1-3.3.1-2.6.1-2.6 1.5.8 3.1 7.3 3.4 7.7 2.9 3.5l-.5-4 1.2 3.5c1.3 3.8 3.9 6.4 4.9 4.9.3-.6 2.9 1.1 5.6 3.6 2.8 2.5 5.3 4.5 5.7 4.5.3 0-.4-2.1-1.5-4.6-2.6-6.3-1.7-6.8 1.6-.7 1.9 3.6 2.4 4.1 2 2-.3-1.7-.2-2.6.4-2.3 1.5.9 2.3 6.2 1.6 9.7-.4 1.7-2 4.6-3.7 6.4-3.7 4.3-3.1 6.8 2.2 9.1 3 1.3 4.2 2.6 5.1 5.3.7 2 3.3 5.6 5.9 8.1 6.7 6.4 9 10.7 9 16.9 0 2.9-.4 6.1-1 7.1-.8 1.5-.6 2 .9 2.5 2.2.7 3.4 5.4 1.9 7.3-.8.9-.6 1.7.8 3.1 1.3 1.1 2.4 4.4 3.3 9.5l1.3 7.8-4.7 12.3-4.7 12.2-5.1-1.9c-5.9-2.2-10.5-1.8-13.3 1.3-1.6 1.8-1.8 3.4-1.6 11.7l.3 9.7-5.3 5.7-5.3 5.8-8-6.1c-12.2-9.3-31.4-21.9-33.5-21.9-1.1 0-2.5-1-3.1-2.2-.6-1.3-2-3.3-3.1-4.4-1.6-1.8-2-3.9-2.2-12.5-.3-11.1-1.8-16.5-6.3-22.7-4-5.3-7.5-6.6-16.8-5.8-4.4.3-9 .9-10.2 1.2-2.1.6-2.3.3-2.3-3.2 0-4.5-1.5-7.8-2.4-5.4-.3.8-.7 3.5-.8 5.9l-.3 4.3-7 2.6c-3.8 1.3-8.8 3.7-11.1 5.3-3.8 2.5-4.2 3.4-6.4 11.5-2.1 7.9-2.2 9.2-1 13.8.7 2.8 1.4 6.5 1.6 8.1.5 6.7 2.6 11.3 8.5 18.4 6.8 8.2 9.9 9.9 23.1 13.2 4.6 1.1 8.4 2.2 8.6 2.4.1.1-.8 4.1-2.2 8.8-2.7 9.2-4.6 24-4.5 35.2 0 3.8-.4 8.2-1 9.7-.9 2.3-1.6 6.2-3.7 18.5l-.5 3.3h109.8l1.2-8.1c1.9-12.8 3.2-13.8 2.5-2.1l-.7 10.2H427l-3.2-6.3c-2.9-5.6-3.2-7.1-3.2-15.4-.1-5 .2-9.4.6-9.8s3.6-1.3 7.3-2.1c7.5-1.6 16.1-5.6 13.3-6.2-2.6-.5-2.2-1.3 2.1-4.7 3.6-2.8 3.7-3 1.7-3.7-5.6-1.7-10.3-.7-22.8 4.6l-12.7 5.4-.6-5.7c-.4-3.1-1.1-7.4-1.6-9.6s-1.4-7.8-1.9-12.3c-.5-4.6-1.4-8.9-2-9.7-.6-.7-.8-1.9-.5-2.7s-.8-8.2-2.5-16.4c-3.9-18.7-4.2-21.4-2.5-21.4 2.3 0 5.2 3.4 6.9 8.3 2.1 5.6 5 7.7 7.4 5.3 1.2-1.2 1.3-1.8.3-3-1.2-1.4-1.9-8.1-3.5-32.9-.2-4.4-.3-7.7-.1-7.5.1.1 1.6 3.8 3.3 8s4 9.4 5.1 11.5l1.9 3.8-.5-4.5c-.3-2.5-1.3-9.7-2.3-16-4.1-25.4-3.6-29.4 1.5-11.8 2.7 9.5 13 32.6 14 31.6.3-.3.1-1.7-.4-3.1-1.5-3.9-5.3-24.4-4.9-26.4.2-1.1 2.6 2.1 6.3 8.5 3.2 5.6 6.2 10.2 6.5 10.2s.1-3.3-.6-7.3c-.7-3.9-1.9-22.7-2.8-41.7s-2.3-39.7-3.2-46c-2.9-22-9.2-45.3-17.3-63.8-2.1-4.8-4.1-11-4.4-13.9-.8-7.1-4.1-14.4-10.2-22.3-6.1-8.1-12-13.5-16.9-15.5-6-2.5-15.7-3-21.4-1.1-4.9 1.5-5.2 1.5-10.1-.7-2.7-1.3-8.9-5.7-13.6-9.8S329 19.4 326.7 18c-2.4-1.4-5.7-3.5-7.4-4.8-3.6-2.5-3.3-2.5-5.3-1.2m11.3 205.8c-4.8 3.6-4.8 3.5-4.4-5.1l.3-8.2 2.9 6c2.7 5.6 2.8 6.1 1.2 7.3"/></svg>