<svg xmlns="http://www.w3.org/2000/svg" width="682.667" height="512" version="1.0" viewBox="0 0 512 384"><path d="M0 192v192h106c61.5 0 106-.4 106-.9 0-4.3 3.4-30.8 5-39 1.7-8.8 2-12.6 1.4-24.5-.4-9.5-.3-15.5.5-18.3 1-3.5.9-5.3-.4-9.7-.9-2.9-1.5-7.1-1.4-9.2.2-4.9-1.2-14.4-2.1-14.4-2.1 0-23.3 3.1-27.5 4-2.8.6-9 2.4-13.8 4.2-8 2.7-9.1 2.9-11.4 1.7-1.9-1-2.7-1.1-3-.3-1.3 4-19.2 24.4-21.3 24.4-.4 0-1.3-.7-2.1-1.6-1-1.3-1-2.1.5-4.7 1.4-2.6.9-2.3-2.9 1.8l-4.6 5-2-2.4c-2.5-3.1-2.4-3.6 1.2-6.8 1.7-1.6 3.5-3.7 4-4.8.6-1.1-2.2 1.3-6 5.4-7.3 7.7-9.5 8.4-10.7 3.6-.7-2.9-1.6-3.1-3.4-1-1.6 1.9-3.4 1.9-5 0-1.7-2.1-.4-4.9 4.2-9.2 2.2-2.1 7.2-7.5 11-12.1 7.9-9.3 8.3-11.8 2-10.8-6.9 1.1-7.4 1.1-8.5-.6-.8-1.2-.8-2.1-.1-2.8 1.1-1.1 21.6-6.5 29-7.6 2.4-.3 4.9-1.2 5.5-2s1.9-1.4 2.9-1.4c.9 0 3-1 4.6-2.2 2.5-2.1 4-2.3 13.9-2.4 10.8-.1 31.2-2.7 32.6-4.2 1.3-1.3 3.5-15.9 2.8-17.8-2.1-5.3 1.3-23.7 5.5-30.2 3.8-5.6 8.1-20.2 6.7-22.4-2.2-3.5 3.3-11.3 12.9-18.3 3.1-2.3 5-4.5 5.3-6.2.7-3.6.5-3.7-3.2-1.9-1.6.9-3.7 1.6-4.6 1.6-2.1 0-13.5-9.8-13.5-11.6 0-.7-1.6-1.8-3.5-2.4s-3.5-1.8-3.5-2.6.4-1.4.8-1.4c.5 0 1.4-1.2 2.1-2.6 1-2.4.9-3-1.1-5.1-1.9-2.1-3-2.4-6.4-2-3.8.4-4.5.1-7.8-3.4-2-2.1-3.6-4.5-3.6-5.3s-.3-2.2-.6-3.1c-.6-1.4-1-1.2-2.6 1.2-1.4 2-1.8 2.2-1.4.8.3-1.1 1.3-5.6 2.1-10 3.7-17.7 6.4-23.2 14.8-30l3.7-3-2-7c-2.4-8.3-2-9 6.7-10.1 4.4-.5 5.7-.3 7.3 1.1 1.1 1 2.3 1.5 2.6 1.2.4-.3 1.3-4.8 2-9.9 2.1-13.8 2.1-13.9 5.4-10l2.7 3.3 3.2-5.5c1.7-3.1 3.8-5.6 4.6-5.6 4.8 0 24.5 26.1 24.5 32.4 0 3.5 1.2 6.6 2.4 6.6 2.8 0 9.7 6.5 13.5 12.8 8.5 14.1 12.9 28.1 17.2 55.2 4.1 26 4.5 27.7 12.6 48.7 7.2 18.5 12 35.3 12.8 44.6.3 2.9.8 7 1.1 9.1.5 3.2.4 3.8-.8 3.3-1.1-.4-1.8 1-2.8 5.6-1.4 6.8-1.5 9.1-.5 18.3.7 5.8.4 7-4.3 19-5.8 14.9-8.5 24.3-10.6 36.8-.9 5.2-2.3 9.7-3.3 10.8-1.4 1.5-1.9 4.6-2.4 14.6-.9 16.6-1 34.7-.3 39.5l.7 3.7H512V0H0z"/><path d="M221.3 263.1c-.9 1.1-.9 2.6 0 6.4 1.1 4.7 1.2 4.8 1.5 1.7.2-1.7.2-4.6 0-6.4-.2-2.6-.5-2.9-1.5-1.7m-101.4 25.6-2.4 2.8 2.8-2.4c2.5-2.3 3.2-3.1 2.4-3.1-.2 0-1.4 1.2-2.8 2.7"/></svg>