<svg xmlns="http://www.w3.org/2000/svg" width="682.667" height="512" version="1.0" viewBox="0 0 512 384"><path d="M0 192v192h212.8l.6-9.3c.4-5 1.9-16.2 3.4-24.7 2.8-16.2 2.9-17.6 1.7-33.1-.5-6.5-.4-11.3.4-14.6 1-4.2 1-5.9-.4-10.7-.9-3.1-1.5-7.3-1.3-9.3.1-2.1-.1-7.7-.5-12.6l-.9-8.7-3 2.5c-2.9 2.5-3.2 2.5-21.3 2.5-12.9 0-20.6.5-26.1 1.6-7 1.5-8 1.5-10.3.1-2.5-1.5-2.8-1.4-7.9 3.4-8.1 7.5-16 10.8-21 8.7-1.5-.6-4.5-1-6.8-.9-2.4.1-4.5-.3-5.1-1.1-.8-.9-3.7-1.3-9.8-1.1-7.1.1-8.7-.2-9.2-1.5-.8-1.9 3.7-5.9 10.4-9.3 2.5-1.3 7.5-5.2 11.2-8.6 6.4-6.1 6.5-6.3 4.6-7.9-1.4-1.1-3.6-1.4-7.4-1.2-4.2.2-5.6-.1-6.5-1.4-.8-1.3-.8-2 .1-2.9 1.7-1.7 27.8-5 30.9-3.9 3.7 1.4 7 1.2 8.4-.5.7-.8 2.6-1.5 4.3-1.5s3.9-.8 4.9-1.7c1.8-1.6 2.4-1.6 10.8 0 4.8 1 14.4 2 21.2 2.3l12.3.6 3.9-16c3.2-13.3 3.7-16.5 2.8-19-1.2-3.6.5-7.6 7.3-17.1 4.4-6.1 6.9-13.5 5.5-16.1-.6-1-1-2.8-1-3.8 0-2 7.5-10.3 14.2-15.7 2.4-2 3.9-4.2 4.4-6.4.5-2.7.3-3.3-.7-2.8-.8.3-3.1 1.2-5.1 2.1L228 146l-6-5.9c-3.3-3.3-6-6.5-6-7.1s-1.3-1.6-3-2.1c-3.5-1.3-3.7-2.1-1-6.4l2-3.2-2.4-2.2c-1.7-1.6-3.8-2.4-7.1-2.5-3.9-.1-4.9-.6-6.3-2.9-.9-1.5-2.2-2.5-2.9-2.2-.9.3-1.3-.7-1.3-3.4 0-4.6-.8-5.6-2.7-3.3-1.3 1.5-1.4 1.3-.8-2.3.3-2.2 2.2-9.2 4.2-15.5 3.7-11.9 6-15.2 14.5-21.5l2.7-2-1.6-6.3c-1.9-7.5-1.5-8.1 5.9-9.3 4.1-.7 5.7-.5 7.5.7 3.1 2 4 1.2 4.8-3.9.9-5.7 3.6-16 4.5-17 .4-.5 1.7.4 2.9 1.9 1.2 1.6 2.5 2.3 3 1.8.4-.5 2.2-2.8 4-5.2 1.8-2.3 3.6-4.2 4.1-4.2 1.4 0 8.9 8.5 14.1 15.9 6.4 9.3 8.9 15.1 8.9 20.6 0 3.7.3 4.4 2.9 5.4 4.6 2 8.7 7 13.5 16.7 7.5 15 10.8 29 15.6 64.4 1.6 12.4 2.7 16.6 7.3 29 3 8 6.4 17.3 7.6 20.8 3 8.8 7 28.2 7.8 37.7.6 7.1.5 7.9-.9 6.7-1.3-1-1.7-.3-3.1 5.2-1.3 5.5-1.4 6.9-.2 10.2 2.3 6.3 1.8 10-3 22.4-5.8 15.2-9.2 27.2-11 38.4-1 6.1-2.1 9.6-3.5 11.1-1.6 1.7-2 3.5-2 9.1-.1 3.8-.5 11.6-1 17.4-.6 5.8-.7 15.1-.4 20.7l.7 10.3H512V0H0z"/><path d="M221.2 261c0 3.6.4 7.6.8 9 1.1 3.5 1.2-6.1.1-11.5-.8-3.7-.9-3.5-.9 2.5"/></svg>