<svg xmlns="http://www.w3.org/2000/svg" width="682.667" height="512" version="1.0" viewBox="0 0 512 384"><path d="M0 192v192h106.5c84.5 0 106.5-.3 106.5-1.3 0-5.5 2.5-25.8 4.6-37.5 2.3-12.5 2.4-15.1 1.5-20.6-1.4-8-1.4-18 0-23 .8-3 .7-5.1-.4-9.5-.8-3.1-1.6-10.3-1.6-16.1-.1-5.8-.3-11.4-.5-12.5-.3-1.1-.5-2.6-.5-3.4-.1-1-1-.7-2.8 1.1-4.7 4.5-7.6 5-18.1 3.7-8.8-1.1-20.4-.9-35.5.7-4.7.5-6.1.3-7.7-1.1-1.9-1.7-2.1-1.6-6.3 2.2-5.7 5.2-8.2 6.8-13.7 8.2-3.5 1-5.2 1-7.5 0-1.7-.6-4.9-1.3-7.2-1.4-2.4-.1-4.9-.7-5.6-1.4-.9-.7-2.4-.8-4.5-.2-1.7.5-3.3.7-3.6.3-.3-.3-2.7-.6-5.3-.6-4.1-.1-4.8-.4-4.8-2.1 0-1.5 2.1-3.1 7.8-6.2 9.1-4.8 18.2-11.4 19.7-14.2 1.4-2.7 0-3.3-8-4-5.7-.5-6.5-.9-6.8-2.8q-.3-2.1 1.5-2.7c4.9-1.5 21.8-2.8 29.4-2.2 7.5.6 8.8.4 9.3-1 .5-1.2 1.5-1.5 3.9-1.1 2.1.3 3.8-.1 5-1.1 1.6-1.4 2.8-1.4 13 .7 6.2 1.2 15.6 2.3 21.1 2.4l9.8.2 2.9-10c1.6-5.5 3.6-12.2 4.5-14.8 1.2-4 1.3-5.4.2-8.2-1.5-4.2-.3-7 7.2-17.3 5.3-7.3 8-14.6 6-16.6-2.9-2.9.8-8.9 10.5-16.6 4.9-3.9 6.4-5.7 6.8-8.2.2-1.8.3-3.4.2-3.6-.2-.2-1.7.4-3.4 1.2-1.6.9-3.9 1.6-5 1.6-1.9 0-13.1-10.2-13.1-12 0-.4-1.6-1.8-3.6-2.9l-3.6-2.1 2.6-3.1c2.4-2.8 2.5-3.2 1-5.3-1.4-2.3-8.4-4.3-10.4-3.1-.5.3-1.9-.8-3.1-2.5-1.3-1.6-2.9-3-3.6-3-.9 0-1.3-1.4-1.3-4 0-4.2-1.2-5.2-2.9-2.3-1.9 3.3-1.2-.9 1.8-11.3 5.4-18.3 7.4-21.9 15.4-26.9l4.4-2.8-1.3-5.1c-2-7.4-1.8-9.5.9-10 7.8-1.6 9.7-1.6 12.3 0 2.2 1.5 2.7 1.5 3.5.3.5-.8.9-2.1.9-3 0-2.7 4.1-17.4 5.1-18.4.6-.6 1.7 0 3.2 1.8l2.2 2.8 3.8-5c2-2.8 4.1-5.1 4.6-5.1 1.7 0 12.3 12.5 16.3 19.3 4.9 8.2 6.7 13 6.8 18 0 2.9.5 3.9 2.3 4.6 7.2 2.9 16.1 18.7 21.3 38.1 3 11.2 3.6 14.6 6.9 39 2.3 17.9 2.7 19.2 10 39.3 8 21.9 12.2 38.8 13.1 53.2.4 6.6.3 7.7-.7 6.1-1.1-1.8-1.4-1.3-3 4.6-1.7 6-1.7 7.1-.4 10.9 2.2 6.2 1.9 9.1-2.4 20.2-5.7 14.8-9.8 28.9-11.6 39.6-1 6.6-2.1 10.1-3.5 11.6-1.5 1.6-2 3.5-2 7.6 0 3-.5 10.8-1.1 17.4s-.8 16.6-.4 22.2l.7 10.3H512V0H0z"/><path d="M221.2 260c0 3.6.4 7.6.8 9 .7 2 .8 1.7.8-2 0-2.5-.3-6.5-.7-9-.8-4.4-.9-4.4-.9 2"/></svg>