<svg xmlns="http://www.w3.org/2000/svg" width="682.667" height="512" version="1.0" viewBox="0 0 512 384"><path d="M0 192v192h213l.4-2.2c.3-1.3.7-6.3 1-11.3s1.5-14.4 2.8-21c2.3-12.8 2.5-18.3 1.3-33.7-.5-6.8-.4-11.1.4-14.1 1.1-3.6 1-5.3-.4-10-.9-3.1-1.5-7.5-1.4-9.9.2-2.4.2-9.8.1-16.5L217 253l-4.8 4.9c-2.6 2.7-6 5.3-7.7 5.7-1.6.4-6.9.1-12-.7s-16.3-1.4-25.8-1.4c-16.5 0-16.8 0-18.6-2.4l-1.8-2.4-6.2 4.4c-5.9 4.2-6.6 4.4-12.9 4.3-3.7 0-8.7-.4-11.2-.8-10.5-1.7-17.7-2.1-21.3-1.2-3.1.7-4.2.6-5.5-.8-1.6-1.6-1.6-1.9.6-3.7 1.3-1 4.3-2.4 6.5-3 8.1-2.2 22.5-11.1 22.7-14.1 0-1.2-7.6-2.8-10.6-2.2-2.2.4-3.4 0-4.8-1.5-1.9-2.1-1.9-2.1 1.5-3.5 1.9-.7 8.4-1.9 14.4-2.5 9.5-1 11.6-1 15.4.3 5.8 2.1 7.8 2 9.1-.5.9-1.6 1.8-1.9 3.7-1.5 1.3.4 4 .1 5.8-.5 2.9-1.1 4.4-.9 11.1 1.1 4.2 1.2 13.2 3 20 3.9l12.2 1.7 5-15.4c4.2-12.5 4.9-15.8 4.1-18.1-1.4-3.9 0-6.8 7.5-16.4 6.2-8.1 9-14.7 6.6-16.2-3.1-1.9 1.6-9.1 11.1-17 4.3-3.4 5.8-5.4 6.2-7.8.2-1.8.3-3.4.1-3.6s-2.1.4-4.3 1.3c-4.5 2.1-7.3 1.5-9-1.7-.7-1.2-2.5-3.1-4.1-4.2s-3.2-3-3.5-4.3c-.3-1.4-1.7-2.7-3.5-3.4-3.6-1.2-3.7-2-.8-5.9l2.2-2.9-2.5-2.5c-1.8-1.8-3.6-2.6-6.4-2.6-3.2-.1-4.7-.8-7.3-3.7-2-2-3.6-5-3.9-7l-.6-3.5-1.9 2.2c-1 1.3-1.8 2.1-1.8 1.8 0-1.9 5.5-20.6 7.6-25.8 3-7.4 4.9-9.8 11.6-14.1 3.4-2.1 4.7-3.5 4.3-4.6-1.2-3.2-2.6-10.6-2.1-11.7.2-.7 3.2-1.5 6.7-1.9 4.9-.5 6.6-.3 7.9.9 2.3 2.1 3.3.7 5.4-7.9.9-3.8 2.4-8.5 3.2-10.4l1.4-3.5 3 2.8c1.7 1.6 3 2.5 3 1.9 0-.5 1.7-2.8 3.8-5.2 2.7-3.2 4.2-4.2 5.4-3.7 2.5 1 14.4 17.5 17.9 24.8 1.9 4 2.9 7.8 2.9 10.8 0 4.2.3 4.8 4.5 7.9 11.7 8.8 21.1 36.2 25 73.5 1.7 16.3 3 21.5 10.1 41 7.9 21.8 12.2 38.7 13.1 52.5.6 7.5.5 8.4-.9 7.2-1.3-1-1.7-.5-2.7 4-1.6 6.7-1.6 8.3 0 13.5 1.5 4.7 2 2.6-7 28.3-3.1 9-5.8 19.1-7.1 26.5-1.4 8.5-2.5 12.4-3.8 13.3-1.3 1-1.9 3.4-2.4 10.5-1.6 22.5-2 36.7-1.4 42l.7 5.7H512V0H0z"/><path d="M221.2 259c-.1 2.5.3 6.3.7 8.5l.9 4V267c.1-2.5-.3-6.3-.7-8.5l-.9-4z"/></svg>