<svg xmlns="http://www.w3.org/2000/svg" width="682.667" height="512" version="1.0" viewBox="0 0 512 384"><path d="M309 11.7c-3 .7-6.5 1.6-7.7 1.8-1.3.3-3.5 2.4-5 4.6-2.1 3.2-2.7 5.5-3.1 11.7-.4 7.5.5 11.5 5.2 22.3.6 1.3-.7 2.3-6 4.8-13.7 6.4-26.3 17.3-34 29.2-6.2 9.7-7.4 12.7-9 23.1-1.6 9.8-3.7 16.4-6.1 19-2.5 2.8-.6 3.4 2.3.7l2.7-2.4-.6 3.3c-.4 1.8-.3 3.1.2 2.8 1.1-.7 2.1 4.2 2.2 10.8.1 5 .1 5.1 1.3 2.2l1.3-2.9 1.7 5.1c1 2.9 1.9 5.2 2.1 5.2s.2-1.7-.1-3.8c-.4-3.4-.3-3.5.5-.9 1.3 3.8 3.2 6.1 4.1 4.8.3-.7 3 1 6.3 4 6.1 5.4 6.6 5.3 4.1-.6-2.3-5.5-.9-5.4 2.1.2 1.9 3.6 2.4 4.1 2 2-.4-1.8-.2-2.6.4-2.2.6.3 1.3 2.1 1.6 3.9.8 3.9-1.5 9.9-5.1 13.8l-2.6 2.6 2.2 2.2c1.2 1.2 3.5 2.6 5.1 3.2 2.1.7 3.1 1.9 3.8 4.5.6 2 2.9 5.3 5.4 7.7 6.9 6.5 9.7 11.6 9.7 17.8 0 2.9-.4 6-.9 6.8-.7 1-.4 1.8 1.1 2.8 1.7 1.2 1.9 2.2 1.4 5.8-.4 3.4-.2 4.4.8 4.4 1.8 0 2.1 1 3.6 10.3l1.3 7.6-4.1 10.8c-2.2 5.9-4.3 11.5-4.7 12.4-.6 1.5-1.1 1.5-5.6-.2-6.6-2.5-9.2-2.4-12.8.7l-3.1 2.6.6 9.1.7 9.2-4.9 5.8c-2.7 3.1-5.1 5.7-5.4 5.7-.4 0-2.4-1.5-4.6-3.3-10.2-8.7-31.2-23.9-33.8-24.4-1.9-.4-4-2.2-6.5-5.7-3.5-4.9-3.6-5.3-3.7-14.1q-.15-22.2-11.7-28.2c-2.5-1.3-4.9-1.4-13.3-.9-11.2.8-11.4.7-11.4-5.6 0-1.9-.4-2.8-1.2-2.5-.9.3-1.3 2.2-1.2 5.5l.2 5.1-6.7 2.2c-9.3 3-15.8 7.3-17 11.2-4.6 15.3-4.5 14.7-3.1 19.6.7 2.5 1.6 7.1 2 10.1.9 6.9 2.6 10.2 9.1 18 5.9 7.1 11.3 10.1 22.9 12.6 4.1.9 7.6 1.8 7.8 1.9.2.2-1.1 4.7-2.8 10.1-2.6 8.4-3.2 12.3-4 25.9-.5 8.8-1.5 18.2-2.3 21-.9 2.7-1.8 7-2.2 9.5-.3 2.5-.8 5.7-1.1 7.3l-.6 2.7h110l.6-5.3c.4-2.8 1.4-7.7 2.2-10.7l1.4-5.5-.4 10.7-.5 10.8h136.1l-2.8-4.8c-2.7-4.4-2.9-5.5-2.9-15.2v-10.5l6.9-1.7c7.6-1.8 14.6-4.7 14.6-5.9 0-.4-.6-.9-1.2-1.2-.8-.3.1-1.7 2.5-3.7 2-1.7 3.7-3.5 3.7-4 0-.4-2.8-.8-6.1-.9-5.3 0-7.8.6-18.5 5.4-6.8 2.9-12.5 5.1-12.8 4.7-.2-.4-.7-3.8-1.1-7.6s-1.3-8.6-2.1-10.7c-.7-2.2-1-3.9-.5-3.9.4 0 .2-3-.6-6.7-.8-3.8-1.6-8.6-1.8-10.8-.3-2.2-1.4-8.3-2.5-13.5-1.2-5.2-2.3-11.1-2.6-13-.2-1.9-.7-4.2-1.1-5-.8-2.2-1.4-7-.7-7 .3 0 1.7.6 3.3 1.4 1.9 1 3.1 2.8 4 5.8 1.5 5.1 3.7 7.8 6.3 7.8s3.2-2.4 1.5-5.2c-1-1.5-1.7-6.5-2.1-15.3-.4-7.2-.9-15.5-1.3-18.5-.6-6.4.5-5.9 3.2 1.5 3 8.2 6.5 15.8 7 15.3.3-.3.1-1.7-.4-3.2-.6-1.4-.7-2.6-.3-2.6s-.5-7.3-2-16.3c-3.1-18.5-3.1-18.7-2-18.7.5 0 2.1 4.4 3.6 9.7 2.8 10.2 12.2 31.3 13.9 31.3.5 0 .6-.8.2-1.8-1.1-2.5-4.2-17.9-4.8-23.5l-.5-4.9 4.3 7.4c7.5 13.1 8 13.8 8.9 13.8.4 0 .6-1 .3-2.3-1.3-4.8-2.6-20-3.2-34.7-2.5-66.4-7-92.5-21.1-124-2.1-4.7-4.1-11.1-4.5-14.2-1.6-13.7-15.1-32.7-26.9-38.1-5.9-2.6-16.1-3.3-22.3-1.4-4.6 1.5-5.1 1.4-9.7-.7-2.7-1.3-8.2-5.2-12.2-8.9-9.4-8.4-11.4-10-16.4-12.5-2.2-1.1-4.6-2.8-5.3-3.6-1.6-1.9-3.6-1.9-11.1.1M323.5 209c3.6 7 3.6 7.8.5 10l-3 2.1v-7.5c0-4.2.2-7.6.5-7.6.2 0 1.1 1.3 2 3"/></svg>