<svg xmlns="http://www.w3.org/2000/svg" width="682.667" height="512" version="1.0" viewBox="0 0 512 384"><path d="M0 192v192h213.7l.6-10.1c.4-5.6 1.8-17.4 3.3-26.3 2.4-14.4 2.6-16.8 1.6-22.9-1.5-8.6-1.5-17.9-.1-22.8 1-3.1.9-4.9-.5-9.8-.9-3.3-1.6-8.1-1.4-10.8.1-2.6.1-11.5 0-19.8l-.2-14.9-3.1 4.4c-1.8 2.5-5 6-7.1 7.7-4.7 3.9-9 4.2-21.5 1.8-4.3-.9-14.7-1.9-23.2-2.2-14.5-.6-15.5-.7-17.4-3-2.6-3-4.8-2.9-10.4.3-4.2 2.5-5 2.6-13.1 2-4.8-.3-10.5-1.1-12.7-1.7-2.5-.7-7.6-.9-13.6-.4-10.4.7-13.1-.3-9.3-3.4 1.1-.9 2.3-2.3 2.6-3.2.5-1.3 1.6-1.6 5.2-1.2 3.1.4 4.6.2 4.6-.6 0-.6.9-1.1 2-1.1 2.3 0 11.6-4.1 14.5-6.3 3.1-2.4.7-3.9-7.2-4.6-6-.5-6.8-.9-7.1-2.8s.4-2.3 5.2-3.3c8.2-1.7 24.3-1.7 29.3 0 4 1.3 4.4 1.3 6.6-.8 2-1.9 2.9-2.1 5-1.3 1.7.7 2.8.7 3.2.1 1-1.7 8.1-1.1 13.4 1 5.9 2.3 23.4 6 28.4 6 2.8 0 3.7-.5 4.3-2.3 1-3.3 7.2-19.7 8.9-23.4 1.1-2.5 1.2-4 .4-6-1.6-4.2-.5-6.6 7.8-16.4l7.7-9.2-.1-6c-.2-5.3.1-6.5 2.7-9.7 1.6-2 5.4-5.6 8.3-7.9 3.9-3 5.6-5.1 6.1-7.3.3-1.7.4-3.3.2-3.6-.3-.2-2.5.4-5.1 1.3l-4.5 1.8-6-6.2c-3.3-3.3-6-6.6-6-7.1 0-.6-1.1-1.5-2.5-2-2.8-1.1-4.4-3.8-2.8-4.9.6-.3 1.5-1.6 2.1-2.7 1.7-3.1-2.4-6.7-7.8-6.8-3.5-.1-4.4-.6-6.2-3.4-1.3-2.2-2.3-2.9-2.8-2.2-.4.6-1-1.1-1.4-4l-.7-5.1-2 2.3c-1.1 1.3-1.9 1.6-1.6.8.2-.8 1.7-5.8 3.2-11 4.4-15.4 8-21.8 14.8-26.5l5.9-4-.7-5c-1.4-9.4-1.7-8.9 4.9-9.7 4.7-.6 6.5-.4 8.3.7 2.7 1.8 2.5 2.2 6.8-11.7 3.2-10.1 4.6-11.9 6.5-8.3.7 1.4 1.7 2.5 2.1 2.5s2.4-2 4.5-4.5c2-2.5 4.2-4.5 4.9-4.5 1.9 0 9.5 9.2 14.4 17.4 5.4 9.1 8.4 17.2 7.7 21.1-.5 2.6 0 3.4 3.8 6.2 12 8.8 21.2 38.4 25.1 81.1.9 9.6 2 13.5 9.4 33.5 3.5 9.2 7.3 21.2 8.7 26.6 3.1 12.6 5.3 29 4.3 31.6-.4 1.1-.8 1.4-.8.7-.2-2.2-1.7-1.2-1.9 1.2-.1 1.4-.8 4.3-1.6 6.5-1.2 3.5-1.1 4.8.2 9.4l1.5 5.4-6.2 17.3c-5.3 15-8.2 26.1-10.6 41.2-.3 2.2-1.4 4.2-2.4 4.7-1.5.9-2 3-2.7 13.3-.5 6.8-.9 19.5-.9 28.3v16l106.3.3 106.2.2V0H0z"/><path d="M221.1 259c0 1.4.4 4.5.8 7l.8 4.5.1-5c0-2.8-.3-5.9-.8-7-.8-1.8-.9-1.8-.9.5"/></svg>