<svg xmlns="http://www.w3.org/2000/svg" width="682.667" height="512" version="1.0" viewBox="0 0 512 384"><path d="M0 192v192h213.6l1.3-13.8c.6-7.5 2.2-19.3 3.5-26 2-11.2 2.1-13 1-19-1.7-8.4-1.7-18.3-.3-23.3 1-3.1.9-4.9-.4-9.6-1.2-4.5-1.5-9.8-1.3-23.7.1-9.8-.1-19.7-.4-21.9l-.5-4.1-4.7 6.5c-2.6 3.5-6.7 7.7-9 9.2-5 3.3-7.8 3.3-23.9-.2-5.2-1.1-15.2-2.3-22.2-2.7-12.2-.7-12.7-.8-15.2-3.5-2.9-3.3-6.6-3.7-12.3-1.4-3.3 1.5-4.8 1.4-15.5-.1-7.4-1-15.1-1.5-20.6-1.2-4.9.3-9.6.1-10.5-.4-2.2-1.3-2-3.5.5-4.1 1.6-.4 1.9-1 1.4-2.8-.6-1.9-.4-2.1 1.6-1.6 9.8 2.2 9.2 2.2 8.4-.2-.7-2.4 1.3-2.9 4.4-.9 2.3 1.4 9-.4 12.5-3.4 1.8-1.5 1.9-1.9.6-2.8-.8-.5-3.7-1-6.5-1-5.8 0-7.8-1-7.3-3.5.4-2.5 4.1-3.3 17-4.1 9.7-.6 11.2-.5 16.4 1.6 3.6 1.5 5.9 2 6.1 1.3.2-.5 1-1.8 1.7-2.9 1.2-1.6 1.8-1.7 4-.6 2.2 1 3.1.9 5.1-.4 1.9-1.2 3.1-1.4 5.2-.6 1.6.6 5.9 2.2 9.8 3.6 6.6 2.5 28.2 7.3 28.8 6.5.2-.2 1.8-4.2 3.7-8.9 1.8-4.7 4.6-11.1 6.1-14.4 2.3-4.9 2.5-6.3 1.7-8.8-1.4-4-.4-5.9 8-14.9 8.1-8.7 9.3-11 8.5-16.7-.7-5.1 2-9.1 10.7-15.9 4.5-3.5 6-5.3 6.5-8 .7-3.9.2-5.1-1.7-3.6-.7.6-2.8 1.5-4.6 2.1-3.2 1.1-3.4 1-9.2-4.8-3.3-3.2-6-6.5-6-7.3s-1.1-1.8-2.5-2.1c-3.5-.9-4.1-3-1.6-6.2 1.9-2.4 1.9-2.8.6-4.7-1.8-2.5-9.2-5.1-9.8-3.4-.2.7-1.7-.8-3.4-3.1-1.9-2.6-3.3-3.8-3.6-3-.3.7-.6.2-.6-1.2-.1-1.4-.4-3.5-.7-4.7l-.6-2.2-1.9 2.2c-1.1 1.2-1.7 1.5-1.5.7 8-27.1 10.4-32.3 17.4-37.2 3-2 5.8-3.8 6.4-4s.5-2.8-.3-7.1c-.7-3.7-1-7-.6-7.3 1.1-1.1 12.1-1.3 13.4-.2 2.3 1.9 3.9 0 5.8-6.9 1.9-7.1 5.4-15.3 6.6-15.3.4 0 1.5 1.2 2.4 2.7l1.8 2.6 4.3-4.9c3.6-4.1 4.5-4.7 6.1-3.8 3.2 1.9 12.3 14.7 16.5 23.2 3.5 7.2 4 9 3.6 13.3-.3 2.7-.1 4.9.3 4.9 1.8 0 8.9 7.3 11.2 11.4 8.2 14.7 12.6 32.3 16.7 67.1 2.1 17.4 2.2 17.9 11 41.5 6.3 17 9.5 29.4 11.4 44 1.4 10 1.2 12.2-.7 11.4-.8-.3-1.3.9-1.5 3.1-.1 2-.8 5.1-1.6 6.9-1.2 2.8-1.2 4.1 0 8.5 1.2 4.9 1.2 5.7-1 11.4-1.3 3.4-2.6 7.9-3 9.9s-1.9 6.8-3.5 10.5c-3.2 7.9-5.7 17.3-6.6 25.8-.8 6.2-1.9 9.2-4.1 11-1.4 1.2-2.2 10.4-3 37.7l-.7 19.8H512V0H0z"/><path d="M222.3 263.5c0 2.7.2 3.8.4 2.2.2-1.5.2-3.7 0-5-.2-1.2-.4 0-.4 2.8"/></svg>