<svg xmlns="http://www.w3.org/2000/svg" width="682.667" height="512" version="1.0" viewBox="0 0 512 384"><path d="M0 192v192h213.6l1.2-12.9c.7-7.1 2.3-19 3.6-26.4 2.2-12.4 2.3-14.1 1-19.9-1.6-7.8-1.8-16.5-.3-22.4.9-3.5.9-5.5-.1-8.7-.9-2.8-1.4-11.7-1.6-27.1-.2-12.6-.7-23.3-1.1-23.7-.5-.5-3 2.1-5.7 5.7-5.5 7.4-11.3 11.7-15.9 11.8-1.8 0-8.8-1.2-15.5-2.7-6.8-1.5-17.2-3-23-3.3-13.7-.7-15.1-1-16.3-3.7-1.5-3.4-6.4-4.6-11.7-2.9-3.7 1.2-5.8 1.2-16.4-.3-7.8-1.1-15.3-1.6-20.9-1.3-6.1.4-9.4.2-10.5-.7-2-1.4-1-3.5 1.7-3.5 2.2 0 2.3-.4.8-3.2-1.1-2-1-2.1 3.3-1.5 2.4.3 5.2.9 6.1 1.3 1.5.5 1.7.2 1.1-2-.8-3.2.7-3.4 4.8-.5 2.4 1.8 3.4 2 5.4 1 1.3-.6 2.4-1.5 2.4-2s.8-.7 1.8-.5c.9.2 2.4 0 3.2-.5 2.6-1.7-.4-3.3-7.2-4-5.5-.5-6.3-.9-6.6-2.8s.4-2.3 5-3.2c2.9-.5 9-1.3 13.4-1.6 7-.6 8.9-.4 12.9 1.4 5.7 2.5 6.9 2.6 9.4.5 1.3-1.1 4.3-1.8 9-2 5.8-.3 8.3.1 13.2 2 5.2 2.2 12.2 4.1 27.2 7.5 3.8.9 3.9.9 5.7-3.3 1-2.4 2.9-6.7 4.3-9.7 6.1-13.3 6.7-14.9 6.1-19.3-.6-4.3-.6-4.4 7.6-13.2 4.5-4.9 8.6-9.8 9-10.9.4-1.2.6-4.1.3-6.6-.5-4.1-.2-4.8 3.7-9.2 2.3-2.6 6.1-6.1 8.5-7.7 3.3-2.2 4.4-3.8 4.9-6.6.4-2 .5-3.8.3-4s-1.7.2-3.3 1.1c-1.6.8-3.9 1.5-5.2 1.5-2.6 0-11.5-8.2-12.6-11.7-.4-1.1-1.8-2.4-3.2-2.7-3.4-.9-4-3.1-1.5-6.2 1.9-2.4 1.9-2.8.5-5-1.2-1.7-2.9-2.5-6.5-3-3.9-.5-5.4-1.3-7-3.5-1.1-1.6-2.5-2.7-3-2.4-.5.4-.9-.7-.9-2.4 0-1.6-.3-3.6-.6-4.5-.5-1.3-.9-1.2-2.5.7-1.4 1.8-1.1-.1 1.7-9.6 5.1-17.2 7.8-22.4 14.2-26.9 3-2 5.9-3.9 6.4-4 .8-.3.7-2.4 0-6.8-.7-3.8-.8-6.8-.3-7.3 1.4-1.4 11.2-1.7 13.2-.4 2.6 1.6 3.5.4 6.2-9 1.3-4.4 3.2-9.4 4.2-10.9l1.8-2.8 2.2 2.8 2.2 2.8 3.8-4.6c2-2.5 4.3-4.6 5-4.6 1.9 0 9.5 9 14.1 16.8 5.7 9.4 7.7 15.2 7.2 20.6-.2 2.5 0 4.6.4 4.6 1.7 0 8.8 7.4 11 11.3 8.6 15.3 13.1 33.6 17.3 70.2 1.5 13.3 2.8 18 11.8 42 5 13.6 8.4 26.8 10.1 40 1.1 9.2 1.1 12.9-.3 12-.5-.2-1.6 2.3-2.5 5.8-1.8 6.7-1.8 6.5-1 14.7.4 4.2.1 6.8-1.5 10.8-1.2 2.9-2.1 6.1-2.1 7.2 0 1-2 7.2-4.4 13.7s-4.9 15.4-5.6 19.8c-1.7 11.6-1.8 12.3-3.9 14.2-2.2 2.1-2.7 7.3-3.7 38.1l-.7 20.2H512V0H0z"/><path d="M222.3 263.5c0 2.7.2 3.8.4 2.2.2-1.5.2-3.7 0-5-.2-1.2-.4 0-.4 2.8"/></svg>