<svg xmlns="http://www.w3.org/2000/svg" width="682.667" height="512" version="1.0" viewBox="0 0 512 384"><path d="M0 192v192h213.8l.6-7.8c1-11.2 3.5-29.6 5.2-37.6 1.3-6 1.2-7.7-.1-14.2-1.8-8.7-1.9-15.9-.4-22 .9-3.5.9-5.5-.1-8.7-.9-2.8-1.4-11.8-1.6-27.4-.1-12.8-.5-23.7-.9-24.3-1-1.6-2.1-1.2-3.2 1.3-1.6 3.5-11.2 13.6-14.6 15.4-3.6 1.8-6.7 1.5-22-2-5.9-1.4-16-2.9-22.5-3.3-12.6-.7-14.7-1.3-15.7-4.4-.3-1.1-1.5-2-2.5-2s-2.5-.7-3.3-1.5c-1.2-1.2-2.1-1.2-4.7-.4-1.8.7-5.8.9-9.8.5-3.7-.3-13.8-.9-22.4-1.2-12-.5-16-1-17-2.1-1.4-1.7.3-3.3 3.7-3.3 1.5 0 1.6-.3.7-1.2-.7-.7-1.2-1.8-1.2-2.6 0-1.5.1-1.4 8.6.5 1.9.4 2.1.1 1.7-2.1-.6-3.1.2-3.2 4.5-.6 4.1 2.5 5.9 2.5 7.2-.1.9-1.5 1.5-1.8 2.4-.9 1.4 1.1 4.6.4 4.6-1.1 0-.9-4.1-1.7-10.5-2.1-3.3-.3-4.1-.7-4.3-2.5-.5-3.1 4.7-4.3 18.6-4.3 9.3 0 12 .4 15.5 2l4.2 2.1 1.8-2.3c1.5-1.8 3-2.2 9-2.4 6.1-.3 8.6.2 16.2 3.1 12.4 4.6 28.5 8 29.7 6.3.4-.7.8-1.6.8-2s2.7-6.3 5.9-13.1c5.2-11 5.8-13 5.4-17l-.5-4.5 8.8-9.2 8.9-9.2-.3-5.8c-.2-5.4 0-6 3.9-10.4 2.3-2.6 6-6 8.4-7.6 3.3-2.2 4.4-3.8 4.9-6.6.4-2 .5-3.8.3-4.1-.3-.2-1.9.3-3.6 1.1-1.6.9-3.9 1.6-5.1 1.6-2.4 0-11.4-8.4-12.4-11.7-.4-1.2-2-2.6-3.6-3.2-3.5-1.2-3.7-2.4-1-5.8 1.8-2.3 1.8-2.7.4-4.8-1.5-2.2-7.5-4.2-9.4-3-.5.3-2.1-1-3.5-3-1.5-1.9-3.1-3.2-3.6-2.9s-.9-.8-.9-2.5c0-1.6-.3-3.6-.6-4.5-.5-1.3-.9-1.2-2.5.7-1.4 1.8-1.1-.1 1.7-9.6 5.1-17.2 7.8-22.4 14.2-26.9 3-2 5.9-3.9 6.4-4 .8-.3.7-2.4 0-6.8-.8-4.2-.8-6.8-.2-7.4 1.4-1.4 10.1-1.7 12.8-.4 3 1.5 4 .4 5.8-6.8.9-3.2 2.7-8 4.1-10.8l2.5-5 2.3 2.6 2.2 2.6 4.2-4.4c2.3-2.4 4.6-4.4 5.2-4.4 2.8 0 13.9 15.5 18.4 25.5 2 4.6 2.6 7.2 2.3 11.3-.2 2.8 0 5.2.4 5.2 1.8 0 8.9 7.5 11.3 11.8 8.4 14.9 12.7 32.8 17 69.7 1.5 13.3 2.6 17.4 11.9 42.3 2.5 6.8 5.7 17.2 7 23.1 2.6 11.3 4.5 29.2 3 27.8-.5-.5-1.7 2.2-2.7 6-2 7.6-2 7.6-1.1 15.3.5 4.3.1 6.6-1.5 10.8-1.2 2.9-2.1 6.1-2.1 7.2 0 1-2 7.3-4.4 13.9-2.8 7.4-5 15.5-5.9 21.6-1 6.8-2 10.2-3.5 11.8-2.3 2.6-2.8 7.2-3.8 38.5l-.7 20.2H512V0H0z"/><path d="M222.3 263.5c0 2.7.2 3.8.4 2.2.2-1.5.2-3.7 0-5-.2-1.2-.4 0-.4 2.8"/></svg>