<svg xmlns="http://www.w3.org/2000/svg" width="682.667" height="512" version="1.0" viewBox="0 0 512 384"><path d="M311 9.6c-2.5.7-5.5 1.3-6.7 1.3-3.2.1-8 4.7-9.4 8.9-.7 2-1.2 6.9-1.2 10.8.1 6.5 1.1 10.3 5.9 21 .3.6-1.9 2.1-5 3.3-14.9 6.1-33 22.4-39.9 36.1-2.5 5-4.3 10.4-5.3 16-1.8 10.5-3.9 17.1-6.6 20.5-3 3.8-1.4 4.3 2.2.7l3.1-3.1-.6 3.7c-.5 2.7-.4 3.3.4 2.2 1.7-2.4 2.4 1.3 1.7 8.3-.3 3.5-.1 6.9.4 7.7.8 1.3 1 1.2 1.1-.5.1-1.1.1-2.3 0-2.8 0-.4.4-.7.9-.7.6 0 1 .6 1 1.2.1.7.7 2.6 1.6 4.3l1.4 3-.4-3.8q-.9-7.05 1.5 0c1.4 4.3 3.9 7.5 3.9 5 0-.9 2.4.7 5.7 3.8 3.2 3 6 5.2 6.2 5s-.4-2.3-1.3-4.6c-2.1-5.2-1.3-6.4 1-1.5 1.7 3.6 3.9 5.2 2.7 1.9-.4-1-.2-1.4.4-1 3.3 2.1 1.8 11.4-2.8 16.8-3.4 4-2.7 6 3 8.2 3.1 1.3 4.1 2.3 4.6 4.9.5 2.1 2.5 5 5.4 7.8 7.4 7 10.1 11.9 10.1 18.5 0 3.1-.5 6.5-1 7.6-.9 1.5-.7 1.9.5 1.9 2.1 0 3.8 4.6 2.5 7-1.3 2.5-1.3 3 .5 3 1.5 0 1.7.4 3.8 11.3l1.4 6.8-4.4 11.7c-2.4 6.4-4.6 12.3-4.8 12.9-.3.9-1.7.7-5.2-.8-5.5-2.4-11.3-2.1-14.4.7-1.9 1.7-2 2.7-1.4 11.4l.7 9.5-4.6 5.3c-2.5 2.9-4.8 5.3-5.1 5.3s-8.1-6.3-17.3-13.9c-10.7-8.9-17.9-14.2-20-14.7-2.1-.4-3.7-1.6-4.6-3.3-.8-1.5-2.3-3.5-3.4-4.5-1.8-1.7-2-2.7-1.5-8.6.7-8.6-1.7-20.2-5.5-25.9-4.4-6.9-9.7-8.4-23.9-6.8l-7.3.8v-4.6c0-3.4-.4-4.6-1.5-4.6-1.2 0-1.5 1.3-1.5 5.5v5.4l-6.5 2c-6.2 2-14.9 6.3-16 8.1-.3.5-1.7 4.8-3.1 9.7-2.4 8.4-2.5 9-1.1 14.3.8 3 2 8.2 2.6 11.4 1.1 6.3 3.2 9.9 10.6 18.3 4.2 4.8 5.4 5.5 14.1 8.3 5.2 1.6 10.3 3 11.4 3 3 0 3.2 1.4 1.1 7.2-4.1 11-5.2 17-6 31.5-.5 8.7-1.7 18.1-2.9 22.8-1.1 4.4-2.3 9.9-2.6 12.3l-.6 4.2 54.7-.2 54.8-.3 1.9-9.7c2.4-12.6 4.1-12.1 3.2.8l-.6 9.4h136l-2.7-5.3c-2.3-4.5-2.7-6.5-2.7-14.7l-.1-9.5 7.5-1.6c8.3-1.7 17.7-6 14.8-6.7-2.7-.5-2.2-1.7 1.9-5.1 2-1.7 3.5-3.3 3.2-3.5-.3-.3-3.2-.6-6.4-.7-5.3-.1-7.5.5-18.4 5.5-6.9 3.1-12.6 5.6-12.8 5.6s-.3-1.3-.3-3c0-1.6-.6-6.5-1.4-10.7-.8-4.3-1.9-11.1-2.5-15.2-.7-4.1-1.6-8-2.2-8.7s-.8-1.8-.4-2.3c.5-.9-.4-6.4-4.6-26.9-.5-2.4-1.2-4.8-1.5-5.4-1.1-1.8-1-6.8.1-6.8 2.3 0 5.4 3.2 6.6 6.8 1.8 5.4 5.1 9.2 7.2 8 2-1.1 2.2-3.6.3-5.7-.9-1.1-1.7-7.5-2.5-19.9-1.2-17.3-1-22.1.5-17.6 2.1 6.1 6.8 17.6 7.8 19 1.8 2.4 1.4-3.8-1.4-20.8-2.9-18.2-2.3-20.9 1.7-7.2 3 10.1 12.8 33.2 13.7 32.3.3-.2-.7-5.8-2-12.3-3.7-17.6-3.1-18.6 4-6.6 3.3 5.5 6.1 9.8 6.3 9.6s-.3-5.7-1.1-12.2c-.8-6.6-1.7-21.1-2.1-32.4-1.2-40.7-3-59-8-81-2.8-12.1-8.9-30.4-13.4-40.4-1.7-3.8-3.5-9.7-4-13.2-1.4-9.5-6.6-19.1-16.4-30-8-8.8-22.4-12.8-33.2-9.1-4.5 1.6-4.9 1.5-8.8-.4-2.2-1.2-7.7-5.3-12.1-9.3-8.2-7.3-16.7-13.6-18.4-13.6-.4 0-1.9-1.1-3.2-2.5-2.6-2.7-4.2-2.9-11-.9m13.3 209.8-2.8 2.4-.3-4.1c-.2-2.3 0-5.7.4-7.7l.7-3.5 2.4 5.2 2.4 5.3z"/></svg>