<svg xmlns="http://www.w3.org/2000/svg" width="682.667" height="512" version="1.0" viewBox="0 0 512 384"><path d="M0 192v192h214.7l.7-11.7c.4-6.5 1.8-18.5 3.2-26.7 2.2-12.8 2.4-15.8 1.5-21.1-1.4-7.8-1.4-18.9 0-23.8.8-3 .7-4.8-.6-8.8-.9-2.7-1.6-7.1-1.4-9.7.1-2.6.2-12.4.1-21.7-.2-15.7-.4-17.3-2.5-20.7l-2.2-3.8-6 7.3c-6.7 8-14.3 13.7-18.4 13.7-1.4 0-8.8-1.6-16.4-3.5-7.7-1.9-17.8-3.8-22.5-4.1-13.9-.8-15-1.1-16.7-4.4-.9-1.7-2.4-3-3.4-3-2.5 0-4.5-2.5-3.8-5 .5-1.9 0-2-7.1-2-7.4 0-18.2-1.5-34.7-4.7-9.2-1.8-11.5-2.8-11.5-4.9 0-1.3.9-1.5 4-1.2 4.3.4 4.9-.2 2.5-2.2-1.6-1.3-2.1-5-.6-5 .4 0 2 .9 3.3 2 1.4 1.1 3.7 2.4 5.1 2.9 2.5 1 2.6.9 1.7-1.5-.6-1.4-1-3.5-1-4.6 0-1.9.2-1.9 2.3-.5 1.5 1 2.9 1.2 3.8.6.8-.5 6.4-.9 12.4-.9 10.2 0 11.5.2 17.4 3l6.4 3 1.5-2.1c1.1-1.7 2.1-2 4.7-1.5 1.8.4 4.4.1 5.8-.5 2-.9 3.9-.5 12.3 2.9 7.6 3 28.9 9.2 31.8 9.2.2 0 3.8-6.5 8-14.4 6.6-12.7 7.4-14.9 6.9-18.1-.6-3.7-.4-4 8.4-12.4 4.9-4.7 9.4-9.5 10-10.5.6-1.1.8-3.6.6-5.7-.5-3.5-.1-4.2 4.7-9.3 2.9-3.1 6.8-6.5 8.6-7.6 2.3-1.5 3.4-3 3.9-5.6.3-2 .4-3.8.2-4.1-.3-.2-1.9.3-3.6 1.1-1.6.9-3.7 1.6-4.7 1.6-1.8 0-11.7-9.5-12.7-12.3-.4-.9-1.7-2.1-3.1-2.7-3.6-1.3-4.1-2.9-1.6-5.5 2.2-2.3 2.2-2.4.4-4.9-1.9-2.6-7.5-4.9-9.8-4-.7.3-2.3-1.1-3.7-3-1.3-1.9-2.7-3.2-3.1-3-.4.3-.8-1-.8-2.9 0-4.4-.8-5.1-3.1-2.4-1.4 1.8-1.1-.1 1.6-9.3 5.9-20.1 8.5-24.3 19-30.5 1.7-1 1.7-1.7.5-7.9-1.5-7.9-1.4-8 6.3-8.9 4-.5 5.5-.3 7 1 2.7 2.5 4.8.7 6.8-6.3 2.3-7.9 5.6-15.4 6.8-15.4.6 0 1.8 1.1 2.6 2.4l1.6 2.4 4.1-4.4C250.4 24 253 22 254 22c2.2 0 9.3 9.1 15.6 19.9 4.5 7.9 4.9 9 4.9 15.2 0 6.5.1 6.7 3.8 9.5 9.7 7.3 18 29.3 22.1 58.9.9 6 2.2 16.6 3.1 23.3 1.5 12.4 2 14.3 13.1 44.2 1.3 3.6 3.3 10.5 4.4 15.5 1.1 4.9 2.7 11.5 3.5 14.5s1.5 7.9 1.5 10.9c0 4.7-.2 5.2-1.3 3.7s-1.5-.8-3.1 6.1c-1.3 6-1.5 8.5-.7 10.6 1.8 4.6 1.3 11-1.4 17.4-4.4 11-9.3 28.6-10.9 39.8-1.4 9.3-2 11.3-4 13-2.3 1.9-2.5 3-3.6 19-.6 9.3-1 22.2-.8 28.5l.3 11.5 105.8.3 105.7.2V0H0z"/><path d="M222.2 260c0 1.4.4 3.8.8 5.5.7 2.7.8 2.7.8.5 0-1.4-.4-3.9-.8-5.5-.7-2.7-.8-2.7-.8-.5"/></svg>