<svg xmlns="http://www.w3.org/2000/svg" width="682.667" height="512" version="1.0" viewBox="0 0 512 384"><path d="M0 192v192h214.6l1.2-14.7c.7-8.2 2-18.6 2.9-23.3 1.9-9.5 2.1-17.6.9-29.7-.6-5.7-.5-10 .4-14.1 1-5 1-6.8-.3-11.3-1-3.9-1.5-11.4-1.6-26.3-.2-19-.4-21.2-2.4-25.2-1.1-2.4-2.4-4.3-2.8-4.2-.4.2-3.4 3.4-6.6 7.3-7 8.3-14.2 13.5-18.8 13.5-1.8 0-7.3-1.2-12.1-2.6-11.2-3.2-20.6-5-31.4-5.9-9.4-.8-11.6-1.6-12.5-4.4-.3-1.1-1.9-2.2-3.5-2.6-2.6-.6-3-1.1-3-3.9v-3.3l-10.2-1.2c-11.9-1.4-37.1-7.4-40.5-9.6-4.4-2.9-1.7-5.5 3.7-3.6l3.1 1-2.1-2.8c-2-2.9-2.7-6.1-1.2-6.1.4 0 2.3 1.3 4.2 2.8 1.9 1.6 4.3 3.1 5.3 3.5 1.5.6 1.6.2 1.1-3.3-.5-3.2-.4-4 .9-4 .9 0 2 .7 2.5 1.6.7 1.3 1.8 1.5 5 .9 2.3-.4 4.4-1.1 4.8-1.6.3-.5 1.1-.3 1.9.4.7.8 4.6 1.7 8.5 2.1 4.6.4 8.9 1.5 12.1 3.2l5 2.5 1.8-2.2c1.5-1.9 2.2-2.1 4.8-1.2 1.8.7 3.6.7 4.4.2 2.4-1.5 4.8-1 12.2 2.3 6.6 2.8 29.4 9.8 32.3 9.8.7 0 4-5.3 7.5-11.8 3.4-6.4 6.9-12.8 7.8-14.1.9-1.4 1.4-4 1.2-6.4-.3-4 0-4.3 9.7-13.7l10.1-9.6-.6-4.1c-.5-3.9-.3-4.5 4.7-9.7 2.9-3.1 6.8-6.6 8.6-7.7 2.4-1.4 3.5-3 4-5.5.3-1.9.5-3.7.2-3.9-.2-.2-2.5.4-5.1 1.3l-4.6 1.7-5.6-5.9c-3-3.3-5.5-6.5-5.5-7.2 0-.8-1.6-2-3.5-2.8-4-1.7-4.3-2.5-1.5-4.9 2.6-2.2 2.5-2.8-.9-6.1-2-1.9-4-2.8-6.5-2.9-2-.1-3.6-.4-3.6-.7 0-.4-1.3-2-3-3.6-1.7-1.7-3-4-3-5.5 0-3.6-1-4.2-3.1-1.6-1.4 1.7-1-.2 1.6-9.3 4.7-15.8 7.7-22.3 12.1-25.7 2-1.5 4.5-3.5 5.6-4.3 1.8-1.4 1.9-1.9.7-8.3-.9-4.6-.9-7.1-.2-7.8 1.8-1.8 11.5-2 14-.3 3.3 2.1 6 .3 7.4-4.9 1.6-6 6.6-16.7 7.8-16.7.5 0 1.7 1 2.5 2.2l1.6 2.2 4.5-4.4c4-3.9 4.7-4.2 6.9-3.2 1.4.6 4.8 4.4 7.6 8.4 9.5 13.5 14.4 25.4 12 29.7-1 1.9-.5 2.7 3.8 6.9 8.5 8.3 15.8 26.4 19.6 48.7.8 4.9 2.5 16.9 3.6 26.5 1.7 13.8 2.9 19.6 5.7 27.5 12.2 34.5 17.4 52.3 18 61.3l.4 6.7-1.9-2.3-1.8-2.4-1.6 8c-1.4 6.9-1.4 8.6-.2 11.9 2.1 6 1.7 9-3.1 23.2-5.2 15.7-8.1 27.2-9 36.1-.7 7-2.4 10.5-5.3 11.4-1.6.6-1.9 2.6-2.8 21.9-.5 11.6-.8 24.9-.6 29.5l.4 8.2H512V0H0z"/><path d="M213 115.9c0 .5.5 1.3 1 1.6.6.3 1 .2 1-.4 0-.5-.4-1.3-1-1.6-.5-.3-1-.2-1 .4m9.6 146.1c.4 3.6.8 6.7 1 6.9.9 1 .3-10.6-.6-11.9-.8-1-.9.5-.4 5"/></svg>