<svg xmlns="http://www.w3.org/2000/svg" width="682.667" height="512" version="1.0" viewBox="0 0 512 384"><path d="M0 192v192h214.8l.7-10.7c.6-10.5 2.1-22 4.8-37.3 1-5.4 1.1-8.5.4-11-1.5-5.2-1.5-23 .1-25.7 1-1.9 1-3.2-.6-8-1.5-4.7-1.9-9.7-2.1-27.2-.2-21.4-.3-21.4-3-26.3l-2.8-4.9-1.8 2.8c-2.8 4.3-14.7 16.3-17.7 17.9-3.7 1.9-9.5 1.8-16.9-.6-11.4-3.5-23.2-5.9-32.4-6.6-8.5-.7-9.2-.9-12-3.9-1.6-1.8-3.9-3.5-5-3.7-1.6-.3-2-1.1-2-3.9v-3.6l-9.4-1.1c-22-2.8-45.2-11-42.7-15.1.9-1.4 4.3-1.4 5.1-.1 1.5 2.5 2.4.7 1-2.1-.9-1.7-1.4-3.8-1-4.7.5-1.3 1.1-1 3.8 1.5 1.8 1.7 4.2 3.5 5.3 4.1 2.1 1.1 2.1 1 1.6-3.3-.5-4.9.8-6 3-2.5 1.7 2.6 8.5 2.8 10.4.2 1.3-1.6 1.4-1.6 2 .4.5 1.8 1.5 2.2 7.2 2.6 5.1.4 8.1 1.3 12.4 3.7 5.6 3.2 5.7 3.2 6.8 1.2 1.2-2.3 4.9-2.8 6.8-.9.9.9 1.5.9 2.4 0 2-2 5-1.4 15 2.8 9.2 3.8 26.4 9 30.1 9 .9 0 1.7-.4 1.7-1 0-.5 3.4-6.8 7.4-13.9 6.4-11.1 7.4-13.5 6.9-16.4-.6-4.1 2.3-7.8 12.2-15.7 6.7-5.4 8-7.5 7.6-12.7-.2-2.7.6-4.2 5-8.8 2.9-3 6.7-6.5 8.5-7.6 2.4-1.4 3.5-3 4-5.5.3-1.9.4-3.7.2-4-.3-.2-2.1.3-4.1 1.1-5.2 2.2-6.4 1.9-8.9-2-1.3-1.9-3.3-4-4.6-4.6-1.2-.7-2.5-2.3-2.9-3.7-.3-1.3-1.6-2.8-3-3.3-3.1-1.1-3.9-3.4-1.9-5.4 2.2-2.2 2.1-2.7-1.4-6-2.2-2.1-4-2.9-6.5-2.9-1.9 0-3.5-.3-3.5-.6 0-.4-1.3-2-3-3.6-1.7-1.7-3-4-3-5.5 0-3.6-1-4.2-3.1-1.6-1.4 1.7-1-.2 1.6-9.3 5.2-17.6 7.6-22.3 13.8-27.1l5.3-4.1-1.5-7c-1.4-6.6-1.4-7.1.3-8.3 2.4-1.8 11.6-1.7 14.4.1 3.5 2.3 5.5.4 9-8.8 1.8-4.6 4.1-9.4 5.2-10.8l2-2.5 2.1 2.4 2 2.4 4.9-4.8 5-4.9 4.2 4.6c5.3 5.6 14.1 20.3 16.4 27.1 1.4 4.2 1.5 5.6.5 8.4-1.2 3.1-1.1 3.5 1.9 5.9 7 6 13.2 18.4 17.4 35.4 3 11.7 3.9 17.3 7 42 2.4 18.7 2.8 20.2 8.7 36 3.4 9.1 6.8 19 7.6 22s2.7 9.3 4.3 14 3.2 11.7 3.5 15.5l.6 7-2.4-2.9-2.5-2.9-.7 4.9c-.4 2.7-1 6.2-1.4 7.8-.4 1.9 0 4.8 1.1 8 .9 2.8 1.7 6 1.8 7 0 1.1-2.5 9.6-5.6 18.9-3.8 11.7-6.1 20.7-7.3 28.9-1.7 11.8-3.3 15.8-6.5 15.8-1 0-1.6 1.7-2 5.7-1.2 12-1.8 37.6-1.1 45.8l.7 8.5H512V0H0z"/><path d="M213 117.1c.7 1.1 1.4 1.9 1.6 1.6.7-.7-.7-3.7-1.7-3.7-.6 0-.5.9.1 2.1m9.6 143.9c.4 3.6.8 6.7 1 6.9.9 1 .3-10.6-.6-11.9-.8-1-.9.5-.4 5"/></svg>