<svg xmlns="http://www.w3.org/2000/svg" width="682.667" height="512" version="1.0" viewBox="0 0 512 384"><path d="M0 192v192h214.8l.7-10.7c.6-10.4 2.1-21.6 4.8-37.2 1-5.9 1-8.7 0-14.5-1.6-9.4-1.6-14.3.2-20.2 1.3-4.5 1.3-5.3-.7-11.7-1.5-4.9-1.8-7.5-1.1-9 .5-1.2.6-3.3.2-4.7s-.7-9.4-.8-17.8c-.1-14.8-.2-15.4-2.9-20.2l-2.9-5-6.4 7.8c-11.1 13.3-17.7 16.3-28 12.7-9.3-3.3-24.8-6.7-34.3-7.6-9.9-.8-13.6-2.4-13.6-5.6 0-.7-1.3-1.6-2.9-1.9-2.6-.5-3-1.1-3.3-4.2l-.3-3.6-10.5-1.7c-19.6-3.1-41.5-11.1-40.8-14.7.4-1.8 2.9-2 6.2-.7 1.7.8 1.7.6.2-2.3-3.2-6.2-1.3-6.9 4.5-1.7 2.2 1.9 4.3 3.5 4.8 3.5s.6-2 .3-4.5c-.5-5.2.7-5.8 3.6-1.7 2.4 3.2 7.4 3.6 9.6.7 1.3-1.8 1.4-1.8 2.4.2.9 1.5 2.5 2.2 7.3 2.7 4.2.4 8 1.6 11.7 3.7l5.5 3.1 1.8-2.3c1.5-2.1 1.9-2.1 4.8-.9 2.5 1 3.4 1 4.6 0 1.9-1.5 5.2-.8 13.2 3.1 5.3 2.5 28.7 9.9 31.3 9.9.4 0 2.9-3.9 5.5-8.8 2.6-4.8 6.3-11.1 8.1-13.9 2.6-4.2 3.2-5.9 2.7-8.3-.9-4.5 1.2-7.5 10.2-14.8 9.3-7.4 9.9-8.4 9.6-13.5-.2-3.3.5-4.4 5-9.2 2.9-3.1 6.7-6.5 8.5-7.6 2.4-1.4 3.5-3 4-5.5.3-1.9.4-3.7.2-4-.3-.2-2.2.3-4.2 1.1-4.5 1.9-6.8 1.3-9.2-2.3-.9-1.5-2.6-3.3-3.6-4s-2.5-2.6-3.3-4.3c-.9-1.6-2.2-2.9-2.9-2.9s-1.9-.6-2.5-1.4c-1-1.2-.9-2 .5-4.1 1.6-2.4 1.6-2.7-.2-4.6-2.7-3-7.2-5.1-9.4-4.4-1.1.4-2 .3-2-.2 0-.4-1.4-2.3-3-4.2-1.7-1.8-3-4.4-3-5.6 0-3.3-1-3.7-3.1-1.2-1.4 1.7-1-.2 1.6-9.3 5.5-18.9 9.3-25.4 17.1-29.8 1.6-.9 1.7-1.5.6-6.2-1.8-7.9-1.6-10.7 1.1-11.4 4.2-1.1 11.2-.6 13.5 1 2 1.4 2.5 1.4 4.6.1 1.2-.8 2.8-3.5 3.5-5.8 1.8-6.2 7.1-15.9 8.7-15.9.7 0 1.8.9 2.4 2.1 1.1 2 1.3 1.8 6.1-2.6l5.1-4.7 3 2.8C267 31.1 278 50.5 278 56.9c0 1.7-.5 4-1.2 5-1 1.6-.7 2.3 2 4.6 11.1 9.3 19.4 33 23.2 66 3 26.4 4.1 31.5 10.2 47.9 3.3 8.9 6.8 19 7.8 22.6s3 9.8 4.5 13.9c1.5 4.2 2.9 10.6 3.2 14.5l.5 7.1-2.4-3.5-2.3-3.5-.8 5c-.4 2.8-1.1 6.3-1.5 8-.5 1.9-.1 4.7 1 8 2.5 7.3 2.3 9.7-2.7 24.5-5 14.9-6.9 22.6-8.5 34.3-1.1 8.5-2.3 11.7-4.4 11.7-.8 0-1.9.6-2.5 1.4-1.6 1.9-3.3 36.2-2.4 49.4l.6 10.2H512V0H0z"/><path d="M213 117.1c.7 1.1 1.4 1.9 1.6 1.6.7-.7-.7-3.7-1.7-3.7-.6 0-.5.9.1 2.1m9.6 143.9c.4 3.6.8 6.7 1 6.9.9 1 .3-10.6-.6-11.9-.8-1-.9.5-.4 5"/></svg>