<svg xmlns="http://www.w3.org/2000/svg" width="682.667" height="512" version="1.0" viewBox="0 0 512 384"><path d="M0 192v192h214.8l.6-9.8c.8-12.2 2.4-24.6 4.2-33.7 1.5-7.1 2-16.7 1.1-18.2-1.5-2.4-1.6-15.2-.2-20.6 1.4-5.5 1.4-6.2-.6-12.3-1.7-5.1-1.9-7.1-1.1-8.9.7-1.6.8-3.5.1-5.7-.5-1.8-.9-9.7-.9-17.6 0-13.9-.1-14.6-2.8-19.3-1.5-2.7-2.9-4.9-3.2-4.9s-1.9 2-3.7 4.3c-7.8 10.3-17.1 17.7-22.4 17.7-1.1 0-8.2-1.8-15.7-4-7.4-2.2-17.6-4.5-22.6-5.1-15.6-1.8-15.6-1.8-16.8-4.5-.7-1.4-2.6-3.1-4.4-3.9-2.7-1.1-3.2-1.8-3.1-4.6l.2-3.2-11-1.9c-12.8-2.1-20.9-4.6-31.7-9.5-7.6-3.5-9.8-5.7-7.8-7.7.7-.7 1.9-.5 4 .7 3.5 2.1 3.5 2.1 1.5-2.6-2.2-5.2-.2-5.5 5.2-.8 5 4.4 7 5.2 5.3 2.2-1.2-2.4-1.3-6.8-.1-7.6.5-.3 1.9.8 3.1 2.5 2.7 3.9 8.1 4.3 9.7.7l1.1-2.2 1 2.7c1 2.3 1.8 2.7 6.9 3.3 5.5.5 8 1.5 14.6 5.3 2.7 1.6 2.9 1.6 4.6-.7 1.5-2 2.1-2.2 3.9-1.2 1.1.6 3.9.8 6.4.5 3.6-.5 5.6.1 11.8 2.9 6.8 3.2 31.9 11.3 32.4 10.5.1-.2 3.8-6.6 8.1-14.3 6.4-11.3 7.8-14.6 7.6-17.6-.3-4.4 1.9-7.3 11.8-14.9 7.5-5.8 8.6-7.6 8.2-12.7-.2-2.7.6-4.2 5-8.8 2.9-3 6.7-6.5 8.5-7.6 2.4-1.4 3.5-3 4-5.5.3-1.9.5-3.7.2-3.9-.2-.2-2.5.2-5.1 1-5.4 1.6-4.5 2.1-12-6.6-5.9-7-6.3-7.3-8.2-8.4-1.7-1.1-1.7-1.2 0-3.9 1.8-2.7 1.8-2.7-1.2-5.8-1.9-1.9-4.2-3.1-6.3-3.3-3.9-.3-10-6.4-10-9.9 0-3.4-1-3.8-3.1-1.3-1.3 1.7-.9-.8 2-10.3 2.1-6.9 4.7-14.5 5.8-17 1.9-4.2 6.7-9.5 10.8-11.7 1.3-.8 1.4-1.6.6-5.4-1.6-6.7-1.4-11.6.5-12.3 3.1-1.2 11.5-.6 13.9 1 2.3 1.5 2.7 1.5 4.9.1 1.3-.9 2.7-2.8 3.1-4.4.8-3.4 5.9-14.1 8-16.7 1.4-1.8 1.5-1.8 3.3.5l1.9 2.3 4.8-4.2c2.6-2.3 5.1-4.2 5.5-4.2 2.4 0 14.4 17.2 18.6 26.6 2.5 5.7 3.2 13.8 1.3 15-.7.4.4 2.2 2.8 4.8 12.9 13.6 18 29.9 23.8 75.8 2.5 20.1 2.8 21.3 8.9 38 10.9 29.9 14.8 42.6 15.3 49.6l.5 6.7-2.5-3-2.5-2.9-.5 3.9c-1.8 11.8-1.8 13.2-.3 16.9 2.5 5.9 2 10.4-2.9 25-4.7 14.5-6.9 24-8.1 35-.7 6.8-1.7 8.7-5.9 11.2-2.6 1.5-3.3 8.8-3.4 36.6L302 384h210V0H0z"/><path d="M213 117.1c.7 1.1 1.4 1.9 1.6 1.6.7-.7-.7-3.7-1.7-3.7-.6 0-.5.9.1 2.1m9.4 141.3c.3 2.7.6 5.9.6 7.2s.4 2.4.8 2.4c1.1 0 .2-11-1-13-.6-1-.7.1-.4 3.4"/></svg>