<svg xmlns="http://www.w3.org/2000/svg" width="682.667" height="512" version="1.0" viewBox="0 0 512 384"><path d="M0 192v192h214.8l.7-9.8c.6-10 2.7-26.4 4.9-38.7.8-4.5.9-8.6.4-11.5-1.4-7.1-1.3-20.1.1-24.2 1-3.2.9-4.6-.8-10.3-1.4-4.6-1.8-7.2-1.1-8.9.5-1.4.5-3.9-.1-6.2-.4-2.2-.9-10.1-.9-17.8 0-13.1-.1-14.1-2.7-18.7-1.4-2.7-2.9-4.8-3.3-4.7-.4.2-3.5 3.6-6.9 7.6-7.2 8.4-12.9 12.9-17.6 13.8-2.2.4-6.6-.5-14.5-3-12.8-4.1-22.3-6.1-32.8-7.1-6.7-.7-7.5-1-9.8-4-1.4-1.9-3.5-3.5-4.7-3.7-1.9-.3-2.2-.9-2-4 .3-4.2.5-4.1-10.7-5.8-14.1-2.1-35-10.1-39.4-14.9-1.8-2-1.8-2.1-.1-2.7 1-.4 3.1-.2 4.6.3l2.9 1.1-1.5-2.8c-1.6-3-2-6-.9-6 .4 0 2.6 1.8 5 4 5.4 5 6.5 5.1 5.2.4-.6-2.5-.6-4 .1-4.7 1.2-1.2 3.7.6 4.6 3.4.9 2.7 7.1 2.7 8-.1.9-2.7 2.3-2.5 3.1.4.5 2.1 1.4 2.5 7.3 3.4 4.5.7 8.3 2 11.6 4.1l4.9 3.1 1.3-2.5c1.6-2.9 2.1-3 5.2-.9 1.7 1.2 2.6 1.3 3.4.5 1.8-1.8 4.5-1.3 13.1 2.6 8.8 4 31.6 11.4 32.9 10.6.4-.2 1.7-2.3 2.8-4.6 1.2-2.3 4.6-8.4 7.7-13.6 4.6-7.8 5.6-10.1 5.3-13.3-.3-4.2.8-5.5 14.8-17.8 4.7-4.2 5.1-4.9 5.1-9 0-4 .5-4.8 6.3-10.5 3.4-3.3 7.2-6.7 8.5-7.5 1.5-1 2.5-2.9 2.9-5.4.6-3.6.4-3.9-1.3-3.2-1 .5-3.5 1-5.4 1.3-3.6.5-3.7.4-15.3-12.7-.8-.8-2.2-2-3.1-2.5-1.7-1-1.7-1.2.4-4.7 1.7-3 1.9-4.1 1-5.8-.6-1.2-1.4-1.9-1.8-1.6-.3.4 0 1.2.6 1.8 2.6 2.6 1 3-1.7.4-1.7-1.7-4.3-2.9-6.1-3.1-3.7-.3-10-6.6-10-10 0-3.3-1-3.7-3.1-1.2-1.5 1.9-1.4 1 .7-6.3 5.6-18.6 7.6-23.4 11.8-27.6 2.3-2.2 4.8-4.5 5.7-5 1.5-.8 1.5-1.5 0-8.7-1.4-6.9-1.4-7.9-.1-8.7 2.3-1.5 12.8-1.2 15.3.4 2.6 1.7 6.4.6 7.3-2.1 1.4-4.2 6.5-14.7 8.5-17.5l2.2-3 1.8 2.3 1.7 2.3 5-4.2c3.1-2.5 5.6-4 6.6-3.6 4.2 1.6 18 24.1 19.7 32.2.9 4.4.8 5.7-.5 7.7-1.5 2.2-1.4 2.5 1.7 5.2 6.7 5.9 13.5 19.8 17.6 35.8 2.2 8.7 3.8 19.1 7.1 44.5 1.9 14.7 2.7 18.2 7.7 32 3.1 8.5 6.7 18.6 7.9 22.5 1.3 3.8 3.4 10 4.8 13.7 2.8 7.4 5 19.3 4 21-.4.6-1.5-.3-2.7-2.1-1.1-1.8-2.1-3-2.3-2.8s-.9 3.8-1.4 8c-1 7-.9 8.4 1.1 14.5l2.1 6.7-5.1 16c-4.6 14.2-6.7 23.4-8.6 38.8-.6 4.1-1.1 5.1-4 6.8-2.3 1.4-3.5 2.9-3.9 5.2-.3 1.8-.9 15.2-1.2 30l-.7 26.7H512V0H0z"/><path d="M222.6 260.5c.3 3.8 1.1 7.7 1.6 8.5.6 1 .7-.9.3-5.4-.3-3.8-1-7.7-1.6-8.5-.6-1.1-.8.6-.3 5.4"/></svg>