<svg xmlns="http://www.w3.org/2000/svg" width="682.667" height="512" version="1.0" viewBox="0 0 512 384"><path d="M0 192v192h214.8l.6-8.8c.8-10.7 3.1-28.9 5.1-40 1.1-6.1 1.2-9.5.5-12.5-1.3-5.7-1.2-19.7.1-23.6.9-2.5.8-4.4-.5-8.9-.9-3.2-1.6-7.6-1.6-9.7 0-2.2-.2-11.6-.4-20.9-.5-16.1-.6-17.1-3.3-22.2-1.5-3-3-5.4-3.3-5.4s-2.2 2.1-4.2 4.8c-8.7 11.3-16.6 17.2-23 17.2-1.8 0-8.7-1.8-15.3-4.1-6.6-2.2-17.8-5-24.9-6.2-12.3-2-13-2.2-14.7-5.2-1-1.6-2.9-3.2-4.1-3.6-1.9-.4-2.3-1.2-2.3-4.4v-3.8l-11-2.4C94.9 220.4 75 209.6 75 203.9c0-2 3.4-2.7 4.5-.9 1.3 2.1 2.2.8 2.1-3.1-.1-5.3 1.9-6.2 3.8-1.7.8 1.8 2.3 4.2 3.5 5.2 2 1.8 2 1.8 2.3-3 .3-5.6 1.6-6.1 3.9-1.4 1.5 3.1 4.4 6 6 6 .5 0 1.4-1.2 2.1-2.8 1.7-3.5 3.2-3.4 3.8.3.5 2.7 1 3 5.3 3.7 2.7.3 7.2 2.2 10.4 4.2l5.8 3.5 1.6-2.1c1.5-1.9 2-2 4.7-.9 2.3 1 3.5 1 5.2.1 1.9-1 3.7-.5 12.9 3.8 8.9 4.3 27.7 11.2 30.3 11.2.4 0 1.9-2.1 3.4-4.8 1.5-2.6 5.2-8.8 8.1-13.8 4.1-7 5.3-9.7 4.8-11.7-1-3.9 1.7-7.8 9.7-14.2 9.9-7.8 10.8-9 10.8-14 0-3.8.5-4.7 6.3-10.1 3.4-3.2 7.5-6.8 9.1-7.9 2.5-1.8 2.8-2.5 2.2-5.2-.7-2.9-1-3.1-3.2-2.2-4.7 1.7-6.7 1-11.6-4.3-2.6-2.9-5-5.9-5.3-6.8-.3-.8-1.9-2.3-3.5-3.2l-3.1-1.8 2.1-2.8c1.7-2.3 1.9-3.3 1.1-5.5-.6-1.5-1.5-2.7-2.1-2.7s-.3 1.1.6 2.5c2.1 3.3.7 3.2-2.7-.1-1.5-1.5-4-2.8-5.6-3-3.5-.4-9.3-6.5-9.3-9.8 0-3-1.5-4.2-2.4-2-.4.9-.9 1.5-1.2 1.2-.6-.7 4.8-19.2 7.7-26.5 1.3-3.2 3.8-6.8 6.7-9.4l4.5-4.2-1.3-7.9c-.8-4.8-.9-8.3-.3-8.9 1.6-1.6 13.7-1.3 16.4.4 4 2.5 6.4.7 10.4-7.9 1.9-4.3 4.7-9.3 6.1-11.2l2.7-3.4 2 2 2 2.1 4.8-4.1c2.9-2.4 5.4-3.8 6.3-3.5 2.4.9 11.1 13.4 15.6 22.2 4.9 9.5 6 15.3 3.6 18.9-1.5 2.4-1.5 2.6 1 4.5 3.6 2.8 9.5 12.4 12.7 20.6 5 13.1 7 23.1 12.2 61 2.2 16.4 2.9 19.5 8.5 35 3.4 9.3 7.1 19.2 8.2 22 4.5 11.1 6.8 18.9 7.4 25 .4 3.6.4 6.5.1 6.5s-1.5-1.6-2.7-3.6c-1.2-1.9-2.4-3.4-2.6-3.2s-.8 3.6-1.4 7.6c-1 6.5-.9 7.7.9 12.7 2.9 7.7 2.7 11.1-1.8 24.9-4.5 13.7-6.6 23.6-7.6 34.9-.6 7.2-.9 7.9-4 10.3-3.9 2.9-4.6 5.1-5 15.9-.2 4.4-.9 9.6-1.4 11.5-1.2 3.9-1.4 18.9-.4 29.2l.6 6.8H512V0H0z"/><path d="M222.6 260.7c.9 9.1 2.3 12.4 2.3 5.8.1-6.5-.9-12.5-2.1-12.5-.5 0-.6 2.9-.2 6.7"/></svg>