<svg xmlns="http://www.w3.org/2000/svg" width="682.667" height="512" version="1.0" viewBox="0 0 512 384"><path d="M0 192v192h107.5c101.7 0 107.5-.1 107.5-1.8.1-8 2.4-29.3 4.5-41.4 2-11.7 2.3-15.6 1.5-19-1.3-5.8-1.3-16.9.1-22.4.9-3.6.8-5.5-.4-10.2-.9-3.1-1.6-7.3-1.7-9.2 0-1.9-.2-11.2-.4-20.7-.4-16.6-.5-17.3-3.2-22.2-1.6-2.8-3.1-5.1-3.4-5.1s-3.6 3.6-7.3 8.1c-11 13-18.3 16.2-27.5 12.3-8.2-3.5-24.4-8.4-31.3-9.5-12.8-2-14.9-2.8-16-5.5-.5-1.5-2.3-3.1-4-3.7-2.8-1.1-3-1.4-2.4-4.9.7-3.7.6-3.7-3.7-4.8-19.5-4.9-28.9-9.5-35.2-17.4-4.5-5.6-5.8-8.3-5.1-10.6 1-3.1 2.4-2.6 5.8 2.3 1 1.5 1.2 1.1 1.2-2.7 0-4.3 1.9-8.1 3.6-7 .5.3.9 1.8.9 3.4 0 3.1 1.9 8 3.1 8 .4 0 .5-.8.3-1.8-.3-.9.5-3.2 1.7-5.1 1.6-2.7 2.3-3.1 3-2 .5.8.9 2.5.9 3.9.1 7.5 2.7 8.9 7.1 3.7l2.8-3.2.1 4.2c0 4.1.1 4.2 3.8 4.9 2 .3 6.3 2.2 9.5 4.1l5.9 3.5 2.1-2c1.9-1.9 2.2-2 4.9-.6q2.85 1.5 4.5.6c2.1-1.2 5.4-.2 13.3 4.1 3.6 1.9 11.7 5.4 17.9 7.8 9.5 3.5 11.6 4 12.3 2.8 13.2-22.1 15.4-26.7 15-30.2-.5-4.1.3-5 14.6-17.7 5.5-5 6.2-5.9 6.2-9.3 0-4.8 3.3-9.2 11.2-15.3 4.8-3.7 5.8-5 5.8-7.5 0-3 0-3-4.8-2.3l-4.7.6-5.3-6.2c-2.8-3.4-5.2-6.5-5.2-6.8 0-.4-1.4-1.5-3.1-2.4l-3.1-1.8 2.1-2.5c1.6-2.2 1.8-3.1.9-5.5-.5-1.7-1.4-3-1.9-3-.6 0-.5.8.1 1.9 1.7 3.4 1.1 3.4-2.5.2-2-1.7-4.6-3.1-5.9-3.1-3 0-8.6-6.2-8.6-9.5 0-2.9-1.6-4.1-2.4-1.9-.4.9-.9 1.5-1.2 1.2-.6-.7 4.8-19.2 7.7-26.5 1.3-3.2 3.8-6.8 6.5-9.2l4.3-4.1-1.6-7.4c-.9-4-1.3-8-1-8.9.9-2.4 11.2-3.2 15.8-1.2 6.3 2.9 8.2 1.7 13.4-8.3 2.5-4.8 5.4-9.8 6.5-11.1 1.9-2.2 2.2-2.3 3.8-.7 2.4 2.1 2.2 2.1 7.3-1.9 2.4-1.9 4.9-3.5 5.5-3.5 3 0 16.1 19.8 19.4 29.2 2.5 7.2 2.5 8.9 0 12.1l-2 2.5 2.6 2.1c3.6 2.8 9.5 12.4 12.7 20.6 5.1 13.2 7.1 23.4 12.2 61.6 2.3 16.9 3 19.9 8 33.4 3 8.1 5.5 15.3 5.5 15.9s1.6 4.5 3.5 8.5c4.3 8.9 7.7 21.6 7.3 26.8l-.3 3.8-2.5-4.2c-1.4-2.4-2.7-4.3-3-4.3s-.7 2.6-.8 5.7c-.2 3.2-.7 6.4-1.1 7.2-.5.9 0 3.4 1.5 6.6 3.9 8.9 3.9 10.8-.5 25.1-4.4 14.7-6.7 25.4-7.6 36.2-.6 6.5-1 7.5-3.6 9.4-3.6 2.7-4.9 6.5-4.9 14.2 0 3.4-.7 9.2-1.5 13.1-1.5 7.2-2 24.6-.9 32.9l.7 4.6H512V0H0z"/><path d="M222.5 259.5c1.1 11.7 2.5 13.9 2.2 3.3-.1-5.7-.7-9.2-1.5-10-1.2-1.1-1.3 0-.7 6.7"/></svg>