<svg xmlns="http://www.w3.org/2000/svg" width="682.667" height="512" version="1.0" viewBox="0 0 512 384"><path d="M0 192v192h107.5c101.7 0 107.5-.1 107.5-1.8.1-8 2.4-29.3 4.5-41.4 2-11.7 2.3-15.6 1.5-19-1.3-5.8-1.3-16.9.1-22.4.9-3.7.9-5.7-.4-10.7-.9-3.4-1.6-7.6-1.7-9.2-.6-36.3-.7-37.1-3.7-42.4-1.5-2.8-3.1-5-3.5-4.8-.4.1-3.3 3.3-6.5 7.2-10.3 12.2-17.5 16.1-25.3 13.7-1.9-.6-9.4-3.2-16.6-5.6-7.1-2.5-16.6-5.1-21-5.7-8.3-1.1-12.4-2.9-12.4-5.5 0-.8-1.6-2.2-3.5-3-3.4-1.4-3.5-1.6-2.9-5.3.6-3.8.6-3.8-3.2-4.6-9.9-1.8-22.4-6.7-27.4-10.6-6.5-5.1-12.3-13.7-11.8-17.5.4-4.1 3.1-4.1 5-.2l1.7 3.3v-2.8c.1-1.5.8-4.4 1.6-6.4 1.3-3 1.7-3.4 3.1-2.3 1.1 1 1.4 2.4 1 4.9-.4 2.3 0 4.5.9 6.1l1.4 2.5.1-3.1c0-3.6 3.1-8.1 4.8-7 .6.4 1.1 2.7 1 5.1-.3 6.5 1.6 7.9 5.1 3.7 3.2-3.8 5.7-4.3 4.7-1-1.4 4.6-1.2 5.2 2.4 5.8 3.8.7 6.1 1.8 11.7 5.6l3.7 2.5 1.7-2.2c1.5-2 2-2.1 4.6-1 1.7.7 4.2.9 5.6.6 2-.5 4.9.4 11.9 4.1 13.1 6.7 30.1 12.8 31.1 11.1.4-.6 4-6.9 8.1-13.8 6.2-10.8 7.2-13.1 6.8-16.3-.4-3.4 0-4.1 5-8.9 2.9-2.9 7.6-7 10.2-9.2 4.3-3.5 4.9-4.5 5.1-8.3.3-5.2 3.7-9.8 11.3-15.6 4.4-3.3 5.2-4.4 5.2-7.2V142l-4.3.6c-4.2.6-4.3.5-9.5-5.6-2.8-3.4-5.2-6.5-5.2-6.8 0-.4-1.4-1.5-3.1-2.4l-3.1-1.8 2.1-2.6c1.9-2.4 1.9-2.8.5-5.5-.8-1.6-1.7-2.9-2-2.9-.2 0 0 .9.6 1.9 1.7 3.4 1.1 3.4-2.5.2-2-1.7-4.6-3.1-5.9-3.1-3 0-8.6-6.2-8.6-9.5 0-2.9-1.6-4.1-2.4-1.9-.4.9-.9 1.5-1.2 1.2-.6-.7 5.2-20.6 7.8-26.8 1.1-2.5 3.9-6.5 6.3-9l4.3-4.5-1.9-7.5c-1.1-4.1-1.7-8-1.5-8.6.3-.7 3.2-1.5 6.6-1.9 4.9-.6 7-.3 10 1 6.4 2.9 8.3 1.7 13.5-8.4 2.5-4.8 5.7-9.9 7.1-11.2 2.4-2.2 2.6-2.3 3.8-.7 1.8 2.4 2.1 2.3 7.3-1.9 3.5-2.9 4.8-3.5 6.1-2.7 3.1 1.9 11.2 13.7 15.8 22.7 5 10.1 5.7 15.4 2.4 18.7-1.9 1.9-1.9 1.9.6 3.9 1.4 1.1 4.2 4.6 6.2 7.8 9 14 13.2 30.5 18.2 71.3 2.2 17.8 2.9 20.3 12.5 48.2 1.9 5.3 4.5 11.9 5.9 14.7 3.3 6.4 6.8 20.1 6.4 24.8l-.3 3.8-2.5-4.2c-1.4-2.4-2.8-4.3-3.1-4.3s-.7 2.6-.8 5.7c-.1 3.2-.6 6.3-1.2 6.9-.6.7 0 3 1.6 6.7 3.9 8.5 4.1 11.2 1 20.8-4.5 14.2-7.5 28-8.2 37.4-.6 8.6-.7 9.1-4.1 12.3s-3.6 3.8-4.4 13c-.5 5.4-1.6 12.6-2.4 16.2-1.5 6.9-1.8 19.7-.8 29.9l.7 6.1H512V0H0z"/><path d="M222.5 259.5c1.1 11.6 2.7 14 2.1 3.1-.3-4.9-1-9.4-1.7-10-.8-.8-.9 1-.4 6.9"/></svg>