<svg xmlns="http://www.w3.org/2000/svg" width="682.667" height="512" version="1.0" viewBox="0 0 512 384"><path d="M0 192v192h213.9l.5-4.3c.3-2.3.7-9.4 1-15.7s1.5-16.5 2.6-22.5c1.8-9.3 2-13.1 1.5-24.5-.6-11-.4-14.4.9-18.2 1.2-3.5 1.4-5.3.6-7.3-1.7-4.5-4.1-25.5-3.6-31.2.7-7.5-.9-20.3-3.1-24.1-1-1.8-2.1-3.2-2.4-3.2s-2.2 2.4-4.3 5.4c-5.8 8.4-14.6 16.3-19.2 17.2-4.1.7-4.6.6-22.6-4.9-6.5-2-15.9-4.1-21-4.7-12-1.4-12.6-1.6-14.3-5-.8-1.5-2.6-3.1-4-3.4-2-.5-2.5-1.2-2.5-3.9v-3.3l-8.7-1.2c-16.5-2.2-25.8-7.3-28.7-15.8-2-5.8-2.1-10.4-.3-12.9 1.9-2.4 3.7-1.1 3.8 2.8l.1 3.2.9-3.1c1.2-4.2 5.7-9 7.1-7.6.7.7.5 2-.6 4.3-.9 1.8-1.6 3.8-1.6 4.6 0 2.2 1.7 1.5 2.4-1.1.6-2.5 5.2-6.1 6-4.8.2.4-.1 2.7-.7 5-1.6 6 0 7.3 4.8 3.7 2.6-2.1 3.9-2.5 4.7-1.7s.8 1.5-.2 2.7c-1 1.3-.9 1.5.7 1.5 1.1 0 4.7 1.3 7.9 3 7 3.5 7.5 3.6 9.7 1 1.6-1.9 1.9-1.9 4.7-.5 1.8.9 3.1 1.1 3.5.5 1.1-1.7 5.4-1.1 10.5 1.5 7.1 3.6 18.4 8 26.7 10.3l7.3 2 7-13.6c5.7-11.1 7-14.5 7-18.3 0-4.5.2-4.8 8.9-13.1 6.3-6 9.2-9.7 10.1-12.4.7-2.1 1.7-5.1 2.3-6.6.5-1.5 4.3-5.9 8.3-9.8 6.1-5.7 7.4-7.5 7.4-10.1 0-3.1-.3-3.2-5.7-1.2-1.5.6-11.8-9.5-12.7-12.3-.3-1-2-2.7-3.6-3.6l-3.1-1.8 2.2-2.9c2-2.7 2-3 .5-5.7-1-1.9-1.5-2.3-1.6-1.2 0 .9.5 2 1 2.3.6.3 1 1.1 1 1.8 0 .6-1.5-.4-3.4-2.2-1.8-1.7-4.5-3.3-6-3.5-3.9-.4-8.5-5.3-9.3-9.8-.6-3.8-.6-3.8-2.6-2.1s-2 1.7-1.3-.1c.3-1.1 1.8-5.9 3.1-10.8 3.7-13.1 7-19.8 11.5-23.8l4-3.5-1.7-8.2c-1-4.5-1.5-8.5-1.1-8.8.3-.3 3.7-.9 7.6-1.2 5.5-.4 7.7-.2 9.5 1 4.5 2.9 7.3 1.2 11.7-7.2 2.2-4.2 5.6-9.4 7.6-11.6l3.5-4 1.6 2.2 1.5 2.2 4.5-3.4c2.5-1.9 5.1-3.5 5.7-3.5 4.5 0 19.4 24.2 21.1 34.2.6 3.2.3 4.6-1.4 6.8l-2.1 2.9 2.3 1.8c6.4 5 13.1 19.5 17.2 36.7 2.3 9.8 3.2 15.2 7.5 47.6 1.8 13.4 2.9 17.8 8.1 32.2 3.2 9.2 5.9 17.2 5.9 17.8s1 3 2.1 5.3c3.7 7.1 6.8 17.6 7.5 24.6.5 6.5.5 6.6-1.3 4.5-1-1.2-2.3-3-2.9-4-1.7-2.8-2.6-1.2-2.8 5.3-.1 4.4.5 7.4 2.6 12.5 3.4 8.2 3.4 10.2.3 20.1-3.2 10-6.2 25.9-7 37-.6 8.2-.9 8.9-3.6 10.9-1.6 1.2-2.9 3-2.9 3.9 0 1-.4 2-.9 2.3-.4.3-.9 4.3-.9 8.8-.1 4.6-.9 11-1.9 14.3-1.8 6.5-2.4 24.2-1 32.8l.8 4.7H512V0H0z"/><path d="M221.1 256.3c-.1 8.3 1.5 16.7 3.2 16.7 1.5 0 .2-16.8-1.6-21l-1.5-3.5z"/></svg>