<svg xmlns="http://www.w3.org/2000/svg" width="682.667" height="512" version="1.0" viewBox="0 0 512 384"><path d="M0 192v192h215.1l-.8-9.7c-1-12.4-.7-22.8 1.1-36.8.8-6 1.5-16.6 1.4-23.5-.1-8.5.3-13.9 1.3-17 1.2-3.7 1.3-5.7.3-11.5-.7-3.8-1.7-8.6-2.3-10.5s-1.4-11.4-1.9-21c-.5-10.3-1.4-18.4-2.1-19.8-1.2-2.2-1.4-1.9-7.5 6.5-6.2 8.7-13 14.6-18.4 16-1.5.3-4.4-.1-7.1-1.2-13.6-5.2-27.7-9.4-36.5-10.9-11.4-1.9-11.4-2-12.7-5.2-.5-1.4-2.2-3-3.9-3.5-2.4-.9-2.9-1.5-2.5-3.2.6-2.2.4-2.2-11.3-2.3-11.1 0-12.3-.2-18.5-3.1-8-3.8-11.7-8.7-11.7-15.7 0-5 1.3-6.5 3.7-4.4 1.2 1 1.7 1 2 .1.7-2.1 4.4-6.3 5.5-6.3 1 0 .8 2.3-.8 7.7-1 3.4.9 2.7 2.7-1 .9-1.7 2.3-3.3 3.3-3.5 1.4-.3 1.6.4 1.4 3.9-.3 3.6 0 4.4 1.6 4.7 1 .2 3.1-.6 4.7-1.7 2.5-1.9 3-2 3.5-.6.4 1 1.4 1.3 2.8.9 1.2-.3 5.3.6 9.1 2l7 2.5 2.1-2.7c1.9-2.3 2.4-2.5 4.7-1.5 1.4.7 4.1.9 6.1.6 2.9-.4 5.2.3 13.3 4.5 8.5 4.4 27.2 11.7 27.8 11 .1-.2 2.9-6.3 6.3-13.6 5.5-11.9 6.1-13.8 5.5-17.8l-.6-4.4 9-9c5-4.9 9.3-9.6 9.7-10.5 3.4-8.8 16.7-25.4 21.6-27 1.4-.5 2-1.5 2-3.7 0-2.7-.3-3-2.2-2.4-6.9 2-7.7 1.9-10-.9-1.3-1.5-3.5-3.9-4.9-5.3-1.5-1.5-2.9-3.7-3.3-5-.4-1.2-1.3-2.2-2-2.2s-2.1-.6-3.1-1.4c-1.9-1.4-1.9-1.5-.1-3.5s1.8-2.1-.5-5c-2.5-3.1-7.2-5.7-8.7-4.7-1.1.7-7.2-6.7-7.2-8.8 0-3.1-1.2-4.7-2.6-3.5-1.9 1.6-1.8.8 1.5-10.1 4.4-14.5 7.3-20.2 12.3-24.4l4.4-3.7-1.5-7.4c-.8-4.1-1.2-7.7-.9-8s3.4-1 6.9-1.5c5-.7 7-.6 9.3.5 5.1 2.6 7.2 1.1 12.1-8.5 2.5-4.8 5.7-9.8 7.1-11.1l2.6-2.4 1.8 2.2c1.5 1.9 2 2 2.9.9.6-.7 2.9-2.6 5.1-4.1 4-2.8 4.1-2.8 6.1-.9 3.4 3 9.6 12.7 13.9 21.6 4.2 8.5 5.4 17 2.8 19.6-.8.8-.3 1.9 2.1 4.4 6.4 6.6 12.2 19.3 16 34.9 1.9 8.1 4.2 23 7.6 50.2 1.2 9.8 2.6 15.6 6.1 25.5 2.6 7 5.5 15.6 6.6 19.2s2.9 8.7 4 11.5c3.6 9.1 5.7 16.2 6.4 22.4.7 6.8-.2 7.7-3 3-1.4-2.4-2.1-2.8-2.7-1.8-1.7 2.7-.9 8.8 2.1 16.2 3.4 8.5 3.7 12.2 1.5 19.3-3.4 11.1-6.6 27-7.4 37.4-.9 11.2-1.7 13.4-5.2 14.5-1 .4-1.9 1.4-1.9 2.4s-.3 2.1-.7 2.4c-.3.4-.5 3.5-.4 7s-.5 9.4-1.3 13.1c-2.1 8.8-2 13.7.4 27.9 1.1 6.5 2 12 2 12.3 0 .2 45.5.4 101 .4h101V0H0z"/><path d="M211.2 115c.7 1 1.4 1.8 1.5 1.6.6-.6-.9-3.6-1.8-3.6-.5 0-.4.9.3 2m6.5 137.5c-.6 6.4.5 17.5 2 19.8.3.4 1.1.3 1.9-.4 3-2.4.9-24.3-2.5-26.4-.5-.2-1.1 2.9-1.4 7"/></svg>