<svg xmlns="http://www.w3.org/2000/svg" width="682.667" height="512" version="1.0" viewBox="0 0 512 384"><path d="M0 192v192h214.3l-.7-5.3c-1.7-13.2-1.8-23.6-.2-35.5.9-6.8 1.6-18.3 1.6-25.6 0-8.9.5-14.9 1.5-18.2 1.9-6.4 1.9-16.5-.1-21.2-1-2.4-1.9-9-2.5-19.2-1.1-19.3-1.8-25.8-2.9-26.5-.5-.3-2.8 2.3-5.1 5.7-8 11.8-16.1 18.8-21.7 18.8-1.1 0-5.2-1.3-9.2-3-10.9-4.5-24.6-8.6-33-10-8-1.3-12-3.1-12-5.6 0-.8-1.6-2.2-3.6-3-2.6-1.1-3.4-1.9-3-3.2.5-1.5-.6-1.7-12.2-1.7-11.1 0-13.4-.3-18.5-2.4-6.8-2.8-13.7-10.5-13.7-15.3 0-3.2 2.7-5 4.1-2.7.6 1 1.2.4 2.4-2.4 2.1-5.1 4.5-4.9 4.5.3 0 4.8 1.1 5.2 2.7.9 1.5-3.9 3.6-3.3 4.3 1.2.4 2.9.9 3.4 3 3.1 1.3-.1 3.2-1 4.2-1.9 1.3-1.2 2.1-1.3 3.1-.5.7.6 2.9.9 4.8.6 2.3-.4 5.6.2 10 1.8l6.7 2.5 2.4-3.1c2.4-3 2.5-3 5.1-1.3 2.2 1.4 3 1.5 4.7.5 1.8-1.1 3.3-.6 12.3 3.9 11.9 6.1 27.9 12.5 28.9 11.5.4-.4 1.5-3 2.6-5.7 1.1-2.8 3.7-8.6 5.7-12.9 2.7-5.9 3.5-8.8 3.1-11.4-.6-4.9.9-7.4 9.8-16.2 4.2-4.1 7.6-7.9 7.6-8.4 0-1.4 8.8-14.4 12.9-19.1 1.9-2.2 5.4-5.5 7.8-7.4 3-2.3 4.3-4.1 4.3-5.9 0-2.1-.3-2.3-2.2-1.7-7 2.2-7.7 2-12.8-3.6-2.7-3-4.9-6-5-6.7 0-.7-1.6-2.2-3.5-3.4-3.5-2-3.5-2.1-1.9-4.5 1.5-2.4 1.5-2.6-1.7-5.9-2.1-2.2-4.2-3.4-5.9-3.4-3.1 0-9-5.8-9-8.9 0-3.6-1.1-5.3-2.6-4-2 1.6-1.8.7 2-11.1 5.1-15.8 6.2-18.1 11.7-23.1 5.1-4.6 5.1-4.6 4-8.5-.6-2.1-1.1-5.5-1.1-7.5 0-3 .4-3.8 2.3-4.3 3.6-.9 11.7-.7 13.8.5 1.1.6 3.3.8 4.8.4 2.3-.5 3.4-1.8 5.8-7.3 1.7-3.7 4.5-8.7 6.3-11.1l3.2-4.4 2 2.1 2 2 5.2-3.9c2.8-2.1 5.4-3.9 5.8-3.9 1.8 0 10.2 12.3 14.8 21.5 4 8 5 11 5 15 0 2.8-.5 5.6-1.2 6.3-.8.8-.1 2.2 3.1 5.8 2.4 2.5 5.8 7.9 7.7 11.8 6.7 14.6 9.4 27.8 14.9 72.3 1.4 11.5 2.5 15.7 8.1 31.3 3.5 9.9 6.4 18.7 6.4 19.6 0 .8 1.4 4.7 3.1 8.6 4.3 9.9 7.5 25.8 5.1 25.8-.5 0-1.7-1.6-2.8-3.5-1.2-2.3-2.1-3-2.6-2.2-1.5 2.4-.8 6.3 2.7 14.2 4.2 9.7 4.4 14 1.1 25.5-3.6 12.3-5.5 22.6-6.5 34.1-.8 9.9-.9 10.3-4.1 12.9s-3.3 3-4.1 12.8c-.5 5.6-1.4 12.1-2 14.4-.6 2.4-1.3 5.6-1.6 7.3-.4 2.5 1.8 17.6 4.3 29.8l.6 2.7H512V0H0z"/><path d="M211 114.1c.7 1.1 1.4 1.9 1.6 1.6.7-.7-.7-3.7-1.7-3.7-.6 0-.5.9.1 2.1m5 137c0 8.5 1.3 19.5 2.4 20.7.2.2 1.4-.2 2.6-.8 2.1-1.1 2.2-1.7 1.8-9.9-.5-8.4-2-13.6-5.2-17.6-1.4-1.9-1.5-1.3-1.6 7.6"/></svg>