<svg xmlns="http://www.w3.org/2000/svg" width="682.667" height="512" version="1.0" viewBox="0 0 512 384"><path d="M0 192v192h213.3l-.7-3.7c-2.7-16.3-3-22.1-1.3-33.4.9-6.3 1.9-18.4 2.2-26.9.4-10.4 1.3-17.9 2.6-22.8 1.6-6 1.8-8.4 1-13.2-.5-3.2-1.5-6.8-2.1-8s-1.5-10.3-2.1-20.3c-.9-18.4-1.5-23.7-2.7-23.7-.4 0-2.2 2.5-4 5.5-5.1 8.4-12.6 16.1-17.7 18l-4.4 1.7-15.1-5.6c-9.1-3.4-18.6-6.2-24.3-7.1-11.3-1.9-13.5-2.8-14.7-6-.5-1.4-2.1-3-3.5-3.5s-2.5-1.7-2.5-2.7c0-1.6-1.2-1.8-13.2-1.8-16.6 0-22.5-1.6-29.1-7.8-3.3-3-4.7-5.1-4.7-7 0-3.1 1.6-4.3 3.5-2.7 1.2 1 1.5.8 1.5-1.1.1-6.2 3.7-6.4 5.5-.3l1.2 3.9.9-3.4c1.3-4.5 2.8-4.9 4.4-1.1 1.3 3.2 3.6 3.8 7.3 1.9 4-2.2 14.5-1.9 21.2.5l6.3 2.3 2.3-3c2.4-3 2.5-3 5.6-1.3 2 1 3.4 1.2 3.8.6 1.2-1.9 4.5-1 13.7 4 5.1 2.7 13.5 6.5 18.6 8.4l9.4 3.5 1.5-3.7c.8-2 3.3-8 5.6-13.2 3.3-7.6 4-10.5 3.8-14.6-.2-4.9.1-5.5 4.7-11.1 2.7-3.2 6.4-7.2 8.2-8.7 1.9-1.5 4.2-4.4 5.3-6.4 1-2 2.9-4.8 4.2-6.2 1.2-1.4 3.6-4.5 5.3-7 3.7-5.5 8.6-10.5 12.4-12.8 2.2-1.3 2.8-2.3 2.6-4.2q-.3-2.55-1.8-2.1c-6.8 1.9-8.4 1.4-13.2-4.3-2.7-3-4.8-5.9-4.8-6.5s-1.2-1.8-2.7-2.8c-1.6-.9-3-1.8-3.2-2-.5-.3 2-5.5 3.1-6.3.3-.3 0-1.6-.8-3l-1.5-2.5.6 3 .6 3-3.3-3.2c-1.9-1.9-4.6-3.4-6.2-3.5-1.9-.2-3.5-1.3-5.1-3.5-1.2-1.8-2.5-3-2.8-2.6-.4.3-.7-1-.7-3 0-4.1-1.4-5.6-2.9-3-1.7 3-1.2.5 2-10.1 4.9-15.7 7.9-21.8 12.8-25.2 4.6-3.2 4.5-2.8 2.5-14.6-.6-3.4-.4-3.8 2-4.8 3.6-1.3 12.9-1.3 14.3.1.7.7 2.4.8 4.2.4 2.7-.6 3.7-1.8 7.2-8.8 2.2-4.5 5.1-9.5 6.5-11.1l2.6-3 1.7 2.3 1.7 2.3 4.3-3.6c2.4-2 5.1-3.6 6.2-3.6 4 0 17.3 21.5 20.1 32.3 1.1 4.3 1 5.2-.6 8l-1.8 3.2 2.9 2.5c9.5 8.1 17 29.8 20.8 60 5.3 42.5 5.1 41.7 10.9 57.5 3.1 8.2 5.9 16.6 6.2 18.5.4 1.9 1.6 5.3 2.7 7.5 3.4 6.8 5.5 14.2 6.3 21.6.7 7.8-.2 8.5-3.2 2.7-1.3-2.6-1.8-2.9-2.5-1.6-.6 1.1.2 3.9 2.7 9.1 3.5 7.5 6.7 17.4 5.9 18.7-.9 1.5-6.4 23-7.9 30.9-.9 4.6-1.6 10.6-1.6 13.5 0 7.2-1.7 12.7-4.1 13.3-3 .8-4.9 6.6-5.3 16.7-.2 5.1-1.2 11.5-2.3 14.6-1.7 5.3-1.7 5.9-.1 16 1 5.8 2.3 12.9 2.9 15.8l1 5.2H512V0H0zm120.1-2c1.8 1 4.9 5.9 4.9 7.9 0 3.9-7.8 5.3-14.2 2.7-5-2.1-6.4-4.1-4.4-6.1.9-.9 1.6-2.4 1.6-3.3 0-1.3 1.1-1.8 5.1-1.9 2.8-.2 5.9.2 7 .7"/><path d="M215.5 254.7c.4 8 .9 15.2 1.2 15.9.4 1 1 1 2.9.2 2.3-1.1 2.4-1.6 2.4-9.7 0-7.4-.4-9.4-3-14.9-1.6-3.4-3.2-6.2-3.6-6.2s-.3 6.6.1 14.7"/></svg>