<svg xmlns="http://www.w3.org/2000/svg" width="682.667" height="512" version="1.0" viewBox="0 0 512 384"><path d="M0 192v192h198.7l.6-13.8c.3-7.5 1.2-16.9 2-20.7.8-3.9 2.3-13.3 3.2-21s3.1-19.2 4.8-25.5c3.7-13.4 4.1-23.5 1.3-31.5-1.5-4.3-1.7-7.2-1.1-20.8.4-8.6.5-15.7.2-15.7-.4 0-2.2 2.4-4 5.3-1.9 2.9-5.6 7.2-8.2 9.5-6.5 5.7-8.7 5.8-23.5 1.1-12.4-4-19.8-5.6-29.8-6.8-8.2-.9-12.2-2.7-12.2-5.7 0-.7-1.3-1.5-3-1.9-2.5-.6-3-1.1-3-3.7v-3l-5.9.7c-7 .8-29.8-1-39.4-3.2-4.3-.9-7.1-2.1-7.4-3.1-.4-.9-.1-1.8.5-2 .7-.2 1.2-1 1.2-1.8 0-1.8 2.7-1.8 6.4.1 2.5 1.3 2.7 1.3 2.2 0-.9-2.5 1.6-2.7 7.8-.5 6.9 2.3 6.6 2.3 6.6 1 0-.5-1.5-1.2-3.4-1.6-3.3-.6-5.2-2.6-4.1-4.4.7-1.1 9.6-3 14-3 3.3 0 4.6-1.2 2.6-2.4-.4-.3-.6-1.6-.4-2.8.4-2.6-3.3-7.2-6.7-8.3-3.5-1.1-4.4-10.5-1-10.5.6 0 1-.9 1-2 0-3.4 3.1-9.9 5.1-10.5 1-.4 2.8-.3 4 0 1.1.4 3.4.1 5-.5 2.4-1 3.3-1 5.5.5 1.4.9 3.1 1.4 3.8 1.2 1.8-.7 4.2 1.5 5 4.6.4 1.6 2.2 4.5 4.1 6.4 1.9 2 3.5 3.9 3.5 4.3 0 1-5.7 9.7-6.9 10.4-.6.4-1.1 2-1.1 3.6 0 1.9-.8 3.5-2.6 4.7l-2.6 1.9 3.6 1.9 3.6 2 2.3-2.9c2.3-2.8 2.4-2.8 5.4-1.2 2 1 3.4 1.2 3.8.6 1.2-2 6.3-.9 14.4 3 7.2 3.5 27.9 10.5 28.7 9.8.1-.2.6-1.9 1.2-3.8s2.5-7.3 4.3-12c2.5-6.4 3.3-10.1 3.3-15.1.1-7.2-.1-6.8 9.4-17.6 3.5-4 7.5-9.4 8.9-12s6.9-9.1 12.4-14.5c11-10.8 11.9-13 6.7-16.3-1.7-1.1-4.7-4.3-6.6-7-1.8-2.8-4.5-6.2-5.8-7.8-1.3-1.5-3.2-4.6-4.1-7-1.8-4.8-3.3-6.8-3.3-4.6 0 .8.6 2.2 1.3 2.9.6.8-.4.1-2.3-1.6-1.9-1.8-4.9-3.9-6.5-4.7-6.1-3.1-7-5-6.9-15.1.1-8.6.4-9.5 4.4-17.6 2.3-4.7 5.2-9.5 6.3-10.7 1.9-2.2 2-2.5.4-12.5-1.1-7.3-1.3-10.6-.5-11.5 1.6-1.9 12-1.6 17.6.5 4.2 1.6 5.7 1.7 9.7.8 4.5-1 5.1-1.6 10.6-9.6 7.3-10.6 9.3-13 11.2-13 .8 0 1.8.7 2.1 1.6.5 1.3 1.2 1.1 4.4-1.4 7.3-5.7 7.6-5.7 12.2-.5 4.9 5.6 12.5 17.8 15.1 24.5 3.9 10 1.4 15.8-7.1 15.8h-4.4l4 3c7.8 5.7 14.5 18.7 19 37 2.3 9.7 5 28 7.9 54 .9 8 1.9 15.6 2.2 17s4.6 10.6 9.6 20.5c4.9 9.9 9.8 20.9 10.8 24.5 2.2 7.4 2.7 19.9.7 16.5-.6-1.1-1.7-2.5-2.4-3-.7-.6-2.7-3.9-4.6-7.5-3.9-7.6-4.6-6.3-2.9 5 1.4 8.9 1.4 13.1.1 11-1.3-2-1.3 1.5 0 8.9.5 3.1 1.4 12.6 2 21.1.5 8.5 1.7 18.4 2.6 22 2.6 10.8 2.6 12.2-.1 15-2.6 2.8-3.3 7.7-2.2 15.5 1.1 7.1-1.8 17.5-8.8 31.3l-5.8 11.4 1.8 8.6c.9 4.8 2.1 10.4 2.6 12.4l1 3.8H512V0H0z"/><path d="M212.4 247.4c.4 8.5 1 16.6 1.4 18l.7 2.6 3.3-2c2.8-1.7 3.2-2.5 3.2-6.2 0-6.5-2.5-17-5.4-22.7-1.5-2.8-2.9-5.1-3.3-5.1-.3 0-.3 6.9.1 15.4m85.9 42.6c-1.2 2.8-.5 6.6.9 5.2.5-.5.8-2.5.6-4.3-.4-3.3-.4-3.4-1.5-.9m2.7 14c0 1.1.6 2 1.4 2 2.4 0 2.8-1.8.6-3-1.7-.9-2-.8-2 1m8.6 43.5c-.9 2.6-.7 3.2.5 1.2.6-1 .9-2.1.6-2.3-.2-.3-.7.2-1.1 1.1"/></svg>