<svg xmlns="http://www.w3.org/2000/svg" width="682.667" height="512" version="1.0" viewBox="0 0 512 384"><path d="M0 192v192h196.7l.7-11.8c.4-6.4 1.6-16 2.6-21.2 1.1-5.2 2.6-15.1 3.5-22 1.6-12.9 4.2-24.7 7.7-35.3 2.1-6.6 1.9-12.3-.9-21.1-1.2-3.8-1.4-8.1-1.1-20.2.3-8.5.2-15.6 0-15.9-.3-.2-2.6 2.6-5.2 6.3-4.9 6.8-9.4 10.6-14 11.7-1.5.3-6.4-.6-12.5-2.5-13.5-4.2-24.6-6.7-33-7.5-7.5-.8-11-2.3-12-5.4-.3-1-1.8-2.1-3.5-2.4-2.2-.5-2.9-1.2-3.2-3.4-.3-2.8-.3-2.8-6.8-2.5-8.1.4-30-2.1-38-4.4-7.4-2-9-3.7-6.5-6.4 2.2-2.4 3.7-2.5 7.6-.4 3 1.5 3.1 1.5 2.4-.5-.7-2.4 1.3-2.8 4.7-1 1.7.9 1.9.8 1.4-.8-.8-2.6 2.8-4.2 10.9-5l6.2-.6-2-5.4c-1.6-4.2-3-6.1-5.9-7.9-3.3-2.1-3.8-2.9-3.8-6.3 0-3 .4-4 2-4.4 1.5-.4 2-1.4 2-4.1 0-4.5 2.4-10.4 4.5-11.2.9-.4 2.7-.1 3.9.6 2 1 2.8.9 5.1-.6 2.5-1.6 2.9-1.6 5.8-.2 1.8.9 4.4 1.9 5.9 2.2 2.2.5 3 1.5 3.8 4.7 1.1 3.8 2 5.1 6.4 8.2 2.5 1.8 1.7 5.1-2.8 10.3-2.1 2.5-3.6 5.3-3.8 7.4-.2 2.5-1.1 4-3.5 5.6l-3.1 2.1 4.2 2.1 4.3 2 2-2.6c1.9-2.5 2.3-2.6 5.1-1.6 1.7.7 3.6.8 4.3.3 2.5-1.6 5.3-.9 13.4 3 7.3 3.4 28.3 10.7 29 9.9.2-.2.7-1.9 1.3-3.8s2.5-7.3 4.3-12c2.7-6.8 3.3-9.7 3.1-14.6-.2-5.7 0-6.5 3.4-11 2.1-2.7 5.5-6.9 7.7-9.4 2.1-2.5 5-6.5 6.2-9 2.3-4.3 13.8-16.8 20.5-22l3.2-2.6-1.6-3.8c-.9-2.1-3.2-5.6-5-7.7-1.9-2.1-4.2-5.2-5.1-6.8-.8-1.7-2-3.1-2.6-3.1-1.8 0-3.6-2.4-6-8-1.3-2.9-2.5-4.8-2.7-4.1-.2.6.2 1.9.9 2.9.7.9-.5.1-2.6-1.9-2.2-2-5.5-4.4-7.3-5.3-4.4-2.3-5.5-5.5-5-15.6.4-8.2.7-9 5.7-18l5.2-9.5-1.1-6c-.6-3.3-1.2-8.9-1.3-12.5l-.2-6.5 7.3-.3c5.6-.2 8.3.2 11.9 1.8 4 1.8 5.4 1.9 10.2 1 3-.5 5.6-1 5.7-1 .2 0 3-3.5 6.2-7.8 3.3-4.2 7.6-9.3 9.6-11.2 3.4-3.2 3.7-3.3 5.3-1.7 1.5 1.5 2 1.4 6.5-1.9 3.1-2.3 5.4-3.3 6.6-3 4.7 1.5 19.8 27 20.9 35.2.4 3.3.1 4.3-2.2 6.4-2.2 2.1-3.6 2.5-8.6 2.5-5.7 0-5.9.1-3.7 1.5 4.8 3 9.8 9.3 13.2 16.3 7.3 15.2 10.1 27.7 14.7 64.2l3.1 25 7.1 14c3.9 7.7 8.5 16.9 10.3 20.5 5.3 10.6 9.5 30 6.4 30-.5 0-1-.3-1-.8 0-.4-1.2-2.1-2.7-3.8-1.6-1.6-4.6-6.9-6.7-11.7s-4.1-8.5-4.3-8.3c-.4.4 1.2 10.5 3.7 22.9.6 2.7 1 5.5 1 6.3 0 2-1.8 1.7-2.3-.4-.3-.9-.5 2.1-.5 6.8-.1 10.6 3 32.5 6.3 44.8 3.1 11.4 3.1 13.6.3 16.2-2 1.9-2.2 2.8-2 13.8.3 12.2-1.6 21-5.6 27.2-.9 1.4-3.7 6.4-6.3 11.2l-4.6 8.6 2.6 12.1 2.5 12.1H512V0H0z"/><path d="M94 219.6c0 .2.9.8 2 1.4s2 .7 2 .2c0-.6-.9-1.2-2-1.5s-2-.3-2-.1m9.8 1.1c.7.3 1.6.2 1.9-.1.4-.3-.2-.6-1.3-.5-1.1 0-1.4.3-.6.6m107.7 20.5c.8 11.9 2.1 24.8 2.7 25.4.3.2 1.7-.2 3.2-.9l2.8-1.2-.4-9.5c-.3-8.2-.8-10.5-3.7-16.8-1.9-3.9-3.8-7.2-4.3-7.2-.6 0-.7 4.1-.3 10.2m88.1 47.1-2.6 3.4 2 5.9c1.1 3.2 2.2 6.4 2.5 7.1.3.9 1.1.9 3.4 0 3.5-1.3 3.9-2.3 1.3-3.2-2.9-.8-4-4.4-3.4-10.8.2-3.1.2-5.7-.1-5.7s-1.7 1.5-3.1 3.3m11.6 58.7c-.7 1.1-1.2 2.5-1.2 3.2.1.7.8 0 1.6-1.5 1.8-3.3 1.4-4.6-.4-1.7"/></svg>