<svg xmlns="http://www.w3.org/2000/svg" width="682.667" height="512" version="1.0" viewBox="0 0 512 384"><path d="M0 192v192l96.8-.2 96.7-.3.2-4c.5-7.9 2.5-20.2 4.8-30 1.3-5.5 3.3-16.1 4.4-23.5s3.6-18.7 5.5-25c4-12.8 4.6-21.6 2.1-27.7-.9-2-1.6-7-1.6-11.7-.1-4.4-.4-11.4-.8-15.5l-.6-7.5-3.8 5.7c-2 3.1-5.6 7.1-8 8.8-5.4 3.9-8.7 3.7-26.2-1.9-7.8-2.6-16.8-4.7-22.5-5.3-9.7-1.2-14-2.8-14-5.4 0-.8-1.6-2.2-3.6-3-3.1-1.3-3.5-1.9-3-3.9l.6-2.3-12.8-.6c-14.2-.7-24.2-2.9-32.1-7.2-6.9-3.8-7.8-5-5.6-7.5 2.3-2.5 3.6-2.5 6.8 0s4 2.5 3.2 0c-.6-1.7-.2-2 2.7-1.9 1.8.1 6.9-.6 11.3-1.4 6.6-1.1 7.5-1.5 5.3-2.1-4.5-1.3-6-3.7-4.5-7.5 1.1-3 1-3.4-1.4-5.4-2.9-2.5-6.9-8.7-6.9-10.9 0-.8 1.3-2.9 2.9-4.7 2.5-2.8 2.8-3.6 2-6.9-.7-3.2-.4-4.5 2.3-9.2 1.7-3 3.2-5.6 3.3-5.8.2-.2 1.5.4 2.9 1.3 2.8 1.8 6.5 1.5 8.8-.8 1.4-1.5 4.8-1.9 4.8-.6 0 .4-.4.9-.8 1.1-1 .4.5 6.8 1.6 6.8.5 0 1.6-1.6 2.6-3.6l1.7-3.7 3 2.8c2.2 2.2 2.9 3.8 2.9 6.5 0 3.1.6 4.1 4.5 7 5.6 4.2 6 7.8 1.7 13.3-1.6 2-3.9 6.3-5 9.5-1.2 3.3-3.8 7.6-5.6 9.6l-3.5 3.6 4.2 2.1c4 2.1 4.1 2.1 5.7.2 1.2-1.6 2.9-1.9 8.5-2 6.1-.1 7.9.4 13.8 3.4 8.7 4.3 27.7 10.7 28.7 9.6.5-.4 1.3-2.4 1.9-4.3.5-1.9 2.4-7.3 4.2-12 3.3-8.7 3.5-10.2 2.4-15.7-.8-3.6.2-5.3 9.5-16.4 3-3.6 6.3-8.9 7.3-11.6 1-2.8 3.3-6.5 5.2-8.3 1.9-1.9 3.5-3.9 3.5-4.6 0-1.1 4.4-5.3 7.4-7.1 1.1-.7 1-3.4-.3-14.8-1.7-14-4.2-22-5.6-18.2-.4.9-.5 2.9-.3 4.2.8 3.8-1.1 3-2.8-1.2-.9-2-3.8-5.6-6.4-8-7.6-6.8-9.1-9.9-9.3-19-.1-6.2.3-8.9 2.2-13 1.7-3.9 2-5.6 1.2-7.1-1.1-2-6.1-30.3-6.1-34.5 0-1.9.6-2.6 2.8-3 4.5-.9 16.3 1 23.8 3.8 3.8 1.5 7.6 2.7 8.4 2.6 13.7-.7 15-1.2 24.4-9.7 8.8-8 15.4-12.7 17.5-12.1 1 .2 4.5-.8 7.7-2.4l5.8-2.9 2.3 2.2c3.5 3.2 12.9 20.4 15.4 28 2.7 8.4 1.9 11.6-3.5 13.7-3 1.1-5.5 1.2-11.8.5-9.2-1.1-10.6-.3-6.2 3.5 8.5 7.4 15.5 24.8 20.4 50.6 1.1 6 3.7 17.7 5.7 26 3.5 14 4.5 16.5 15 37.5 6.3 12.4 12.4 25.9 13.7 30 2.3 7.4 4.2 17 3.3 17-.3 0-2.4-4.7-4.7-10.5s-4.4-10.4-4.6-10.2.6 3.6 1.9 7.5c1.3 4 2 7.2 1.7 7.2-.4 0-3.4-5.7-6.7-12.8-8.1-17.2-8.4-17.9-7.9-16.1 7.1 25.4 7 24.9 7 39.9 0 9.3-.4 15.8-1.2 18.2-1.2 3.3-1 4.6 2.7 16 2.2 6.7 5.6 15.6 7.6 19.6 4.1 8.6 4.2 10 1.4 13.6-1.7 2.2-1.9 3.1-1 5.6.6 1.8.6 3 0 3-.5 0-.9 3.3-.9 7.3 0 7.7-1.8 15.5-5.2 22.2-2.6 5-15.1 20.1-18.1 21.6-1.2.7-2.3 1.3-2.5 1.4-.1.1 1.1 6 2.8 13.1s3.3 13.9 3.5 15.2l.5 2.2h193V0H0z"/><path d="M211 107.9c0 .6.4 1.3 1 1.6s.7-.1.4-.9c-.7-1.8-1.4-2.1-1.4-.7m-94.2 103.8c.7.3 1.6.2 1.9-.1.4-.3-.2-.6-1.3-.5-1.1 0-1.4.3-.6.6m94.3 20.2c-.6 1-.8 2-.6 2.3.2.2 1.1 7.3 1.9 15.7s1.7 15.5 1.9 15.7c.2.3 1.6-.1 3.1-.7 2.4-1.1 2.6-1.6 2.6-8 0-8.6-1.6-16.1-4.6-22.2-1.4-2.6-2.6-4.7-2.9-4.7-.2 0-.9.8-1.4 1.9m91.5 44.3c-1.6 5.7-3.4 11.4-4.1 12.7-1 2-.8 3.6 1.2 9.9 1.3 4.1 2.6 7.8 2.8 8.2.3.4 2.4-1.1 4.7-3.4 2.4-2.2 5.1-4.6 6.1-5.1 1.6-.9 1.7-1.4.6-3.7-.6-1.5-1.5-2.6-1.9-2.3-.3.2-.5-.8-.2-2.3.2-1.5-.1-4.3-.6-6.2l-.9-3.5-1.8 6.3c-1 3.4-2.1 6.4-2.5 6.7-.3.2-.5-2.2-.3-5.3.4-5.5.3-5.6-1.3-3.5-3.1 4.3-3.3 2.3-.3-5.9 1.6-4.4 2.9-9.2 2.9-10.5 0-4.9-1.7-1.9-4.4 7.9m5.1 36.9c-1.9 3-3.1 9.6-1.8 10.3 1.4.9 5.6-10.3 4.3-11.6-.7-.7-1.5-.3-2.5 1.3m3.8 37c-.4.6-.5 1.2-.2 1.5.2.3.7-.2 1-1.1.7-1.7.1-2-.8-.4"/></svg>