<svg xmlns="http://www.w3.org/2000/svg" width="682.667" height="512" version="1.0" viewBox="0 0 512 384"><path d="M310.7 1.5c-8.3 1.5-11.2 3.9-13.4 11.4-2.1 7.3-1.2 17 2.2 25.3 4 9.6 4 9.3.1 10.5-8 2.5-20.7 10.5-29 18.4-13.3 12.5-20.3 24.5-22.1 37.9-1.1 7.8-4.1 16-7.2 19.2-2.2 2.3-2.4 2.8-.9 2.8.9 0 2.9-1.2 4.3-2.6l2.6-2.6-.7 3.6c-.6 3.1-.5 3.5 1 2.9s1.6.1 1.2 6.5c-.3 3.8-.1 7.6.3 8.4.7 1 .9.9.9-.5 0-3.1 1.7-1.8 3 2.5l1.4 4.3.6-3 .6-3 .7 2.9c.7 2.7 2.9 5.6 4.1 5.6.3 0 .3-.8-.1-1.8-.5-1.4-.3-1.3 1 .3.8 1.1 2.1 2 2.8 2 .8 0 1.9 1.1 2.6 2.5s1.3 2.1 1.3 1.6 1.2.1 2.6 1.5l2.6 2.4-2.2-5.4c-2.8-7.1-1.7-7.8 1.4-1 1.8 3.9 2.5 4.8 2.5 3.1.1-3.7 2.1-1.4 2.1 2.4 0 4.4-2 9.2-5.3 12.8-3.3 3.5-2.5 5.5 3.2 8.1 3.3 1.5 4.3 2.5 5.1 5.7.6 2.1 2.1 4.5 3.5 5.4s2.5 2.2 2.5 2.9 1.1 2 2.4 2.8c4.1 2.7 7.6 10.2 7.6 16.4 0 3-.4 6.3-1 7.3-.8 1.5-.6 2 .9 2.5 2.2.7 3.2 4.6 1.8 7-.7 1.2-.4 2 1.1 3.1 1.4.9 2.2 3 2.6 7.1.4 3.2 1.2 7.5 1.7 9.5.8 3.2.3 5.4-3.6 16.9-2.5 7.3-4.7 13.4-4.8 13.6-.2.1-2.5-.9-5.2-2.2-6.4-3.3-12.4-3.3-15.4-.1-2.1 2.2-2.2 2.9-1.6 11.7l.7 9.4-3.2 3.8c-1.7 2-3.5 3.7-4 3.7s-4.4-4.4-8.7-9.8c-10.5-13.2-17.1-20.1-20.9-21.7-1.7-.7-4.6-3.5-6.5-6.1-3.3-4.7-3.4-5.3-3.9-17-.5-11.2-.8-12.6-4-19-5.5-10.8-11.4-13-27.4-10.4-3.3.5-6.1.8-6.4.6-.2-.2-.4-2.5-.5-5-.3-7.4-3.2-5.3-3.2 2.3v4.4l-7 2.4c-9.6 3.4-16.2 7.8-17.4 11.7-4.7 16.1-4.6 15.3-2.9 22.4.9 3.7 2.2 9.3 2.8 12.4.9 4.5 2.3 7.2 7 13.1 6.9 8.8 9.7 10.7 21.3 14.2 4.8 1.4 8.7 2.8 8.7 3s-1.4 3.8-3.1 8c-4.7 11.9-6.9 21.9-8 36.8-.5 7.5-1.4 14.9-1.9 16.2-1.2 3.2-4 15.1-4 17.1 0 1.2 7.7 1.4 54 1.4h53.9l1-3.8c.5-2 1.5-6.4 2.1-9.7.7-3.3 1.6-6.6 2-7.4 1.2-2.2 4 11.7 3.3 16.6l-.6 4.3h68.7c37.7 0 68.6-.3 68.6-.6s-.7-3-1.5-5.9c-.9-3.1-1.5-8-1.3-11.6l.3-6.2 8.5-2.2c4.7-1.1 10-3 11.8-4.2 3.1-1.9 3.2-2.2 1.5-3.2s-1.5-1.4 2.2-4.5c2.2-1.9 3.7-3.7 3.4-4s-3.2-.6-6.5-.7c-5.3-.2-7 .3-17.7 5.5-6.5 3.2-12 5.6-12.3 5.4-.6-.7-3.5-14.8-3.8-18.8-.4-4.1-2.1-12.9-9.6-47.9-.6-2.4-1.4-4.9-2-5.6-.5-.6-.7-1.5-.4-1.8.4-.3.1-2.1-.5-3.9-.9-2.9-.9-3.1.3-1.4.8 1 1.9 1.5 2.4 1.2s1.7 1.3 2.5 3.7c.9 2.3 2.6 6.8 3.7 10 2.3 6.1 4 7.4 4 2.9 0-1.6.9-3.5 2.1-4.5 1.9-1.7 2-2 .5-4-.9-1.2-2-3.1-2.5-4.3-1.4-3.1-2.6-32.4-1.4-32.4.6 0 2.7 4.3 4.8 9.5 3.6 9.2 6.4 13.8 4.8 7.8-.4-1.5-.7-4.4-.6-6.3s-.3-6-.9-8.9c-.6-3-1.1-6.9-1.2-8.5-.2-1.7-.6-5.4-1.1-8.1-1.1-7-.1-5.4 2.5 4 3 11 13.3 34.5 14.6 33.2.2-.2-.8-5.7-2.2-12.2-1.3-6.5-2.3-12.2-2.1-12.8.1-.5 2.6 2.9 5.4 7.5s5.9 9.1 6.9 9.8c1.5 1.3 1.6 1.2 1-1.5-1.8-9-2.5-18.4-3.1-40-.8-33-2.2-57-4.1-70-3-21.2-9.5-45.2-16.6-60.8-2.2-4.9-4.3-11.5-4.8-14.8-1.1-7.6-4.7-15.3-11.7-25-6.5-9.1-13.2-14.2-21.6-16.4-7.5-1.9-10.2-1.9-16.9.3-5.4 1.8-5.7 1.8-7.9.1-1.3-1-2.7-1.9-3.2-1.9-.4 0-4-3.3-8-7.3C343.3 15.3 331.9 6 330.3 6c-.5 0-2.2-1.4-3.8-3-3.2-3.4-4.7-3.5-15.8-1.5M324.5 211c3.5 6.8 3.6 7.6.4 9.9l-2.9 2.2.2-7.6c.1-4.1.3-7.5.4-7.5.2 0 1 1.3 1.9 3"/></svg>