<svg xmlns="http://www.w3.org/2000/svg" width="682.667" height="512" version="1.0" viewBox="0 0 512 384"><path d="M0 192v192h191.8l1.2-6.8c.7-3.7 2.7-11.7 4.5-17.7 1.8-6.1 4.7-16.2 6.5-22.5s5.1-15.8 7.5-21c6.7-14.9 7.6-19.2 6.9-31-.7-9.4-.6-10.3 1.5-13.1l2.2-2.9-5.2-8c-5.6-8.6-7.9-9.8-11.3-6.1-1 1-3.4 2.2-5.4 2.6s-4.9 1.6-6.5 2.7c-5.2 3.7-9.5 3.5-19.4-1-12.8-5.9-21.6-9.1-30.2-10.9-7.5-1.5-12.1-4.2-12.1-6.9 0-.8-1.3-2-3-2.9-2.1-1.1-2.9-2.2-2.7-3.8.2-2.1-.2-2.2-10-2.9-15.5-1-28.9-5.2-36.2-11.3-3.6-3.1-3.8-3.9-1.1-6.7 2-2.2 2-2.2 4.2-.2 1.3 1.1 3.1 2.6 4.1 3.4 1.7 1.2 1.8 1.1 1.2-1.3-.6-2.3-.4-2.7 1.3-2.7 1.2 0 2.3.4 2.7 1s1.5.6 3.1 0c1.4-.6 3.8-1 5.4-1 4.1 0 4.5-1.6 1-3.6-3.2-2-5.7-7-6.5-13.6-1.4-10.1-4-21.4-5.1-22.1-3.4-2-6.1-13.7-3.2-13.7.6 0 2.3-1.4 3.7-3.1l2.6-3.1 3.3 1.9c4.2 2.3 5.2 1 5.2-7 0-5.2-.2-5.8-1.8-5.3-3.4 1.1-5.5-2.6-5-8.6.6-5.4 3.5-9.2 6.2-8.2.9.3 2-.9 3.2-3.5 1.7-3.9 1.8-4 3-1.8.7 1.2 1.8 3.2 2.3 4.4 1.7 3.7 3.1 2.7 3.1-2.1 0-2.7.6-4.8 1.5-5.6.9-.7 1.7-1.1 1.9-.9.3.2 1.3 5.1 2.3 10.9 2.2 12.2 3.7 13.6 8.4 7.9l2.8-3.4 1.1 3c1.3 3.3 1.8 5.2 1.9 7.4.1 1.2.3 1.2 1.4-.1 1.4-1.9 5.7-.8 5.7 1.5 0 .7.9 3.2 2 5.5 2.5 5.1 2.5 7.9.1 16.7-1.1 3.9-2.2 9.2-2.5 12-.8 7.2-1.1 8.4-2.4 9.7-.7.7-1.2 2.3-1.2 3.5 0 1.3-.7 3.7-1.5 5.2-.8 1.6-1.7 4.8-2.1 7.1-.9 5.4-3.6 7.3-8.6 6-2.4-.7-4.5-.7-6.2 0-3.6 1.3-3.2 3 .8 3 1.8 0 6 1.3 9.2 3l5.9 2.9 2.5-2.4c2.2-2.1 2.8-2.2 5-1 1.4.7 3.9 1.1 5.7.8 2.6-.5 4.5.2 9.5 3.5 5.7 3.7 21.3 11.6 24.6 12.4.9.2 2.7-3.4 5.3-10.7 3.4-9.6 3.8-11.7 3.3-16.6-.6-5.4-.5-5.6 4.3-12 4.5-5.8 5-7.1 5.7-13.3.9-9.1.1-10-6.2-7-2.6 1.3-6.4 2.4-8.6 2.4h-3.8l.6-4.8c1.8-13 1.4-12.2 5.3-12.2 1.9 0 5.7.8 8.5 1.7 5.9 2.2 6.3 1.8 7.2-7.3 1.1-10.9 5.5-35 8.6-46.7 3.7-14.6 5.5-19.8 9.6-27.9 1.9-3.7 3.4-6.9 3.4-7.1s-1.1-.2-2.4 0c-1.7.4-2.8-.1-3.8-1.6-1.2-1.9-1.9-2-7.4-1.5-9.2 1-10.4 0-10.4-8.6 0-7.2 4.5-32.8 6-34.4 1-1 10.8.6 21.8 3.5 7.6 2 19.9 7.7 27.4 12.8 4 2.7 4.9 2.9 10.4 2.4 3.7-.3 6.9-.1 8.2.6 1.9 1 3.5.6 10-2.2 4.2-1.9 10.7-4.4 14.4-5.6 8.9-3 25.1-6.2 26.1-5.2.9.9-.5 13-3.4 27.5-3 15.2-8.2 19.8-16.6 14.6-3.9-2.3-4.1-1.8-.9 2.4 5.4 7.1 6.6 11 6.6 20.8 0 8.3-.3 10-3.1 15.8l-3 6.4 1.6 9.1c3.3 18.2 6.7 34 7.5 34.9.5.5 2-.1 3.6-1.3 1.5-1.2 4.1-2.1 6.1-2.1 2.7 0 3.5.5 4.3 2.6 1.4 3.7 1.3 14.1-.2 14.6-.7.3-3.4-.5-6-1.6s-5-1.8-5.3-1.5c-.2.3 1.1 8.2 3 17.5 4 19.6 5.2 28.9 6.1 46.9.8 15.1 1.7 17 7.2 16 4.1-.8 6.2.8 6.2 4.5 0 2.5 1.2 3.6 9 8.5 6.8 4.3 9.2 6.3 9.6 8.3.3 1.5.7 3.2.9 3.8.4 1.3 11 6.4 18 8.7 5.6 1.9 11.5 5.2 11.5 6.5 0 .5-.9 1.7-2.1 2.8-2 1.8-2.2 1.8-5.1.1l-3-1.7 2.1 3.2c3.5 5.3 6.8 12 8.1 16.5 1.2 3.8 1.1 4.5-.5 6.3-1 1.1-2.7 2.2-3.9 2.6-1.1.4-3.2 1.5-4.6 2.5-3.6 2.6-19 3.8-20.8 1.6-1.1-1.3-.9-1.8.8-3 2.2-1.5 2.2-1.5-2.3-8.1-4.1-6-5.8-9.6-8.4-18.1-.8-2.7-1.2-3-4.6-2.7-3.5.3-4.3-.2-12.1-7.8l-8.4-8.2-1.1 5.9c-2.5 13.1-3 14.1-2.4 4.9.4-6.5.3-8.7-.6-8.2-.7.5-1.1-.5-1.1-2.9 0-2.8-.7-4.3-3.2-6.6-4.1-3.6-4.8-3.6-4.8 0 0 4.3-1.7 4.7-3 .6-.6-1.9-1.5-3.3-1.9-3-.4.2-1.1 4.9-1.4 10.3-.6 9.2-.5 10.5 2.2 18.3 1.6 4.6 5.1 13.8 7.8 20.4 5.8 14 15.7 43.3 18.8 55.5l2.1 8.5 89.2.3 89.2.2V0H0z"/><path d="M297.5 136.5c.4 6 1.1 12.6 1.6 14.5s.9 5.2.9 7.2c0 2.8.5 3.8 2 4.3 2.6.8 4.3-.3 3.5-2.4-.4-.9-2.2-8.8-4.1-17.5-1.9-8.8-3.7-16.2-4-16.5s-.3 4.3.1 10.4M208.9 157c-.7 3.5-.4 4.8.7 3.8.3-.4.4-2.1.2-4l-.3-3.3zm-1.2 13.7c-.4.3-.7 1.3-.7 2.1 0 1.2.3 1.2 1.5.2.8-.7 1.5-1.6 1.5-2.1 0-1.1-1.4-1.2-2.3-.2m107.8 63c0 6.7.4 9.8 1.2 10 1 .4 1.1-1.8.7-8.9-.3-5.1-.9-9.6-1.2-10-.4-.4-.7 3.6-.7 8.9m-101.4-1.5c-.1 1.7-.7 2.8-1.5 2.8-1.2 0-1.2.5-.3 3 1.3 3.3 1.9 3.6 3.6 1.7.8-1 .7-2.5-.3-5.8-1.2-3.7-1.4-4-1.5-1.7m3.9 4.2c0 .9.5 1.6 1 1.6.6 0 1-.4 1-.9 0-.6-.4-1.3-1-1.6-.5-.3-1 .1-1 .9m-1 13.5c0 .5.4 1.2.9 1.5.4.3 1.4 2.6 2.1 5.1 1.6 5.6 2.9 4.7 3.2-2 .3-5 .3-5-2.9-5.3-1.8-.2-3.3.1-3.3.7"/></svg>