<svg xmlns="http://www.w3.org/2000/svg" width="682.667" height="512" version="1.0" viewBox="0 0 512 384"><path d="M0 192v192h191.9l1.2-5.8c2.7-13 14.3-51.3 18.3-60.7 7.2-16.6 7.8-19.1 7.5-31.7-.3-10.9-.2-11.4 2.4-15.2 3.9-5.5 3.6-8.4-2-20.3-1.3-2.9-1.7-3.1-3-1.8-.8.8-3.3 1.5-5.5 1.5-3.4 0-3.9.3-3.3 1.7.3 1 .9 3.1 1.2 4.8.6 3.5 4.8 15.6 6.4 18.8.7 1.2.8 1.9.4 1.5-.9-.9-13.4-20.9-13.8-22.2-.2-.6-2.5.8-5.1 3.1-4.8 4.3-9.6 6-13.9 5-1.2-.3-7.4-2.9-13.7-5.7-6.4-2.9-16.3-6.5-22.2-7.9-10.2-2.5-14.8-4.9-14.8-7.7 0-.8-1.3-2-2.9-2.9-2.1-1.1-2.8-2-2.4-3.4.6-2.4-.6-2.7-12.3-3.5-13.8-.9-28.3-5.8-35.1-11.9-2.8-2.5-2.8-3.2-.2-5.8l2-2 3.4 2.5c4 3.1 4.5 3.2 4.5.8 0-1.4 1-1.7 5.8-1.8 7.3-.1 11.5-1.1 10.9-2.7-.2-.7-1.5-1.3-3-1.5-1.4-.2-3-.9-3.5-1.5-1.6-2.1-4.5-12-4.4-15.1.1-1.7-.5-6.3-1.3-10.3s-1.5-8.8-1.5-10.8c0-2.7-.4-3.5-1.8-3.5-1.1 0-2.5-1.4-3.5-3.5-2-4.2-2.2-8.5-.4-8.5.7 0 2.5-1.2 4-2.6 2.7-2.5 2.9-2.5 6-1 1.8.8 3.6 1.1 4 .7 1.5-1.5 3.6-12.6 3.8-19.6.1-9.3 1-12.1 3.5-11.7 1 .2 2.1.8 2.2 1.3.2.5 1 .9 1.8.9 1 0 1.4-1.2 1.4-3.8 0-4.5.9-8.2 2-8.2 1.2 0 2.7 5.3 3.9 13.7.6 3.9 1.1 7.4 1.1 7.7 0 1.2 4.7.5 6.9-1 1.9-1.4 2.5-1.4 3.2-.3 1.9 3 2.1 6.2.5 13.9-2 10-1.4 12.1 2.3 8.1 2.4-2.5 2.7-3.6 2.5-9-.2-6.4.3-7.5 2.6-6 .8.5 1.1.9.7.9s-.3.9.3 2c.8 1.5.8 2-.2 2-.6 0 .1 1.3 1.6 2.9 2.2 2.2 2.9 4 2.8 6.8 0 6.9-3.1 23.9-5.1 29.2-1.2 2.8-2.1 6.7-2.1 8.5 0 3.6-3.3 14-5.1 16.2-.7.9-3.2 1.4-6.3 1.4-3.5 0-5.9.6-7.6 2l-2.5 2h3.6c2 0 6.2 1.3 9.4 2.9l5.8 2.9 2.9-2.1c2.4-1.8 3.2-1.9 4.9-.9 1.2.8 3.3 1 5.5.6 2.9-.5 4.3-.1 8.8 2.9 7.9 5.2 25.7 14 26.6 13 .4-.4 2.4-5.5 4.4-11.2 3-8.7 3.5-11.3 3-15.2-.6-4.1-.2-5.5 2.1-9.5 2.6-4.4 7.2-23 6.1-24.2-.3-.3-3.1.5-6.2 1.7-10.3 3.9-12.7 2.7-10.8-5.2.7-2.9 1.5-6.5 1.8-8 .7-2.7.9-2.8 4.9-2.2 2.3.4 5.9 1.4 8 2.2 2.1.9 4 1.4 4.2 1.1.3-.2 2.2-9.8 4.4-21.4 6.9-36.7 11-51.7 17.3-63.1 2.6-4.8 2.8-5.5 1.4-6.9-.9-.8-1.6-2.2-1.6-2.9 0-1.1-1.8-1.3-8.8-.8-10.4.7-11.5-.1-11.3-7.7.1-8.8 6.6-32.6 9.5-34.9.9-.7 2.3-.7 4.7-.1 1.9.6 6.3 1.7 9.9 2.4 10.1 2.2 16.8 5.1 27.9 12.1 8.7 5.6 10.5 6.4 12.3 5.4 2.2-1.2 10.4-.4 11.3 1.1.3.5 3.7-.5 7.7-2.1 10.6-4.4 16.1-5.9 28.6-7.8l11.2-1.8v3.6c-.1 8.6-7.7 36-11 39.5-1.7 1.7-2 1.8-5.1.2-1.7-.9-3.3-1.6-3.5-1.6-.1 0 1.3 2.5 3.1 5.6 6.2 10.2 6 21.1-.6 34l-4.2 8.1 1.7 9.4c2.8 15.3 5.7 28.3 6.5 29.2.5.5 2.4-.1 4.2-1.2 7.2-4.4 9.9-2 9.9 9 0 6.1-1.5 8.3-4.3 6.2-.6-.6-2.7-1.5-4.6-2.1-2.6-.9-3.2-.9-2.8.1.3.8 2.1 7.5 4.1 14.9 5 19 8.2 36.1 9.7 50.8.6 6.9 1.5 12.9 1.9 13.3.4.5 2.1.2 3.8-.7 6.3-3.3 7.8-2.1 8.4 6.4.3 3.2.9 3.8 7.4 7.3 5.9 3.2 7.6 4.7 9.5 8.5 2.6 4.9 4.7 5.9 19.4 9.7q13.5 3.45 13.5 6.6c0 2.4-3.5 3.3-7 1.9-4.9-2-5.1-.7-.9 4.5 4.7 5.9 10.9 16 10.9 17.9 0 1.8-3.5 4.8-5.2 4.4-.7-.1-2.5 1-4.1 2.5-1.9 2-3.3 2.6-4.8 2.2-1.1-.4-2.6-.2-3.4.5-2.2 1.9-11.4 2.2-13.2.5-1.2-1.2-1.2-1.9-.3-3 1-1.2.3-2.4-3.4-6.8-2.5-3-5.7-8-7.1-11.3-4-9.1-3.9-8.9-7.9-8.6-3.3.3-4.3-.3-9.9-5.4l-6.2-5.8-.6 7c-.3 3.8-.6 5.5-.7 3.8s-.5-5.3-.9-8c-.5-3.6-.8-4.3-1.4-2.9-.6 1.7-.8 1.6-.8-.8-.1-2.2-1.4-3.6-6.7-7.5-3.6-2.6-8.4-5.8-10.6-7.1l-4.1-2.5.7 4.3c.3 2.3.1 8.1-.5 12.7-1.3 9.6-2 7 9.8 35.8 6.9 16.8 18.3 50.2 20.4 59.9l1.2 5.7H512V0H0zm100.6-66.1c-.3 7.4-4.6 11.6-4.6 4.5 0-4.3 2.4-9.2 4.7-9.4.1 0 .1 2.2-.1 4.9"/><path d="M293.5 137.3c-.8 11.8-.3 14.4 3.1 15.9 1.9.9 2.4 1.9 2.4 4.8 0 4.1 1.8 6.4 3.9 5.1 1-.7 1-1.6.1-4.7-.6-2.1-2.4-9.9-3.9-17.3s-3.2-13.6-3.8-13.8c-.7-.3-1.3 3.2-1.8 10m-86.4 23.3c0 1.1.3 1.4.6.6.3-.7.2-1.6-.1-1.9-.3-.4-.6.2-.5 1.3m-1.2 12c-1.9 2.2-3.4 8.9-1.9 7.9 1.6-1 4.2-6.5 3.8-8.2-.3-1.3-.5-1.2-1.9.3M316 222.3c0 3-.3 8.8-.6 12.9l-.7 7.5 3.3 2.3 3.3 2.3-.7-7.4c-1.8-19.3-4.6-30.1-4.6-17.6m-105.3 14.1c-.4 1-.5 2.1-.2 2.4.9.9 1.7-.6 1.3-2.5-.3-1.7-.4-1.7-1.1.1m5.4 8.2c0 1.1.3 1.4.6.6.3-.7.2-1.6-.1-1.9-.3-.4-.6.2-.5 1.3m7.9 3.1c0 .4.5 1.5 1 2.3.8 1.3 1 1.3 1-.2 0-.9-.4-2-1-2.3-.5-.3-1-.3-1 .2m153.1 66.8c.1 1.9 1.8 5.1 1.8 3.5 0-.8-.4-2.2-.9-3s-.9-1.1-.9-.5"/></svg>