<svg xmlns="http://www.w3.org/2000/svg" width="682.667" height="512" version="1.0" viewBox="0 0 512 384"><path d="M0 192v192h191.9l1.2-5.8c1.4-6.8 11-40.5 14-49.4 1.2-3.5 3.2-8.3 4.4-10.8s3.5-8.1 4.9-12.5c2.4-7 2.7-9.4 2.6-19.8-.1-11.8-.1-11.8 3-15.3 1.6-1.9 3-4.3 3-5.2 0-1.9-5.5-11.2-6.6-11.2-.4 0-.2.6.4 1.2 1.6 2.1 2 8.8.4 8.8-.7 0-1.1-.3-.9-.8.3-.4-.1-1.3-.9-2-1.7-1.6-1.7-1.6.2 4.2 2.1 6 .9 7.4-1.3 1.7-.9-2.4-2.7-6.4-4-9l-2.2-4.6.4 4c.5 3.9.4 3.9-2.7-2.4-2.9-5.9-3.2-6.2-4.5-4.5-3.5 5-11.1 11.6-14.7 12.6l-3.8 1.2.6 5.5c.8 6.6-.4 5.8-2.7-1.9-1.5-5-2.1-5.8-6.2-7.8-2.8-1.4-5.5-2-7-1.6-2.8.7-6.5-1.1-6.5-3.2 0-1.8-2.8-2.9-15-6-12.4-3.1-13.9-3.9-15.1-7.3-.6-1.8-2-3.2-3.5-3.5-1.8-.5-2.4-1.3-2.4-3.5v-2.8l-10.2-.6c-15.7-.9-28.6-5.1-36.3-11.8-3.4-3-3.4-3.1-1.7-5.5 2.1-2.9 3.4-3 5.8-.3 1 1.1 2.7 2.5 3.7 3 1.5.9 1.7.7 1.2-1.4-.6-2.3-.4-2.5 3.7-2.4 4.9.1 11.9-.5 13-1 1.3-.7-2.5-4-5.2-4.6-3.6-.9-7.5-12.4-7.6-22.2 0-3.9-.6-9.8-1.3-13.3-1.2-5.8-1.2-6.6.8-11.2 1.3-3 2.1-7 2.1-10.4 0-5.7 1.1-7.6 3.4-5.7 1.5 1.3 2.6-.9 4.6-8.9.7-2.5 1.9-5.3 2.8-6.3 1.5-1.7 1.7-1.7 3.2.2.8 1.1 2.8 2.1 4.5 2.3 2.7.3 3 0 3.6-3.6.9-5.7 6-8.9 7.4-4.7.3 1 1.6 3.1 2.9 4.6 2.4 2.8 2.4 4.6-.4 13.8-.6 2.1-.8 4.6-.5 5.7.3 1 .8 2.8 1 4.1.2 1.2.6 2.3.8 2.6.2.2 2.3-2.1 4.6-5.1 4.2-5.4 6.6-7.2 7.5-5.7 1.2 1.9 3.5 15.7 3 18-.3 1.4-2 6.8-3.7 11.8-2.9 8.6-3 9.6-1.9 13.9 1.1 4.2 1 5-1.4 10.5-3.3 7.2-4.2 8-10.6 9-4.6.7-6.7 2-6.8 4 0 .4 3.4 2.3 7.7 4.3l7.6 3.7 2.3-2.2c1.6-1.5 2.9-1.9 4.1-1.4 1 .4 3.8.9 6.3 1 3.2.1 6 1.1 10 3.7 5.9 3.8 19.4 10.8 20.8 10.8.5 0 2-4.8 3.5-10.8 1.5-5.9 5.3-17.6 8.6-25.9 3.3-8.4 6.2-16.6 6.6-18.2l.6-3-5.1 1.5c-2.8.8-6.3 1.4-7.8 1.2-3.2-.4-3.3-2.1-.5-11.8l1.9-6.5 3.9.3c2.2.2 5.7 1.2 7.7 2.2l3.7 1.9 1.1-3.7c.6-2 1.7-8 2.5-13.2s2.3-15.6 3.5-23.1c3.2-21.5 7.7-34.6 17.5-51.5 2.6-4.4 1.5-6.6-2.7-5.3-4.9 1.4-15.6 1.3-17.3-.1-3.8-3.2-.7-18 7-33.5 4.6-9.3 4.3-9.2 18-5.5 8.9 2.4 17.8 6.9 27.5 13.9 6 4.4 6.9 4.7 11.2 4.3 2.7-.2 6.2.1 7.9.7 2.5.8 4.1.6 9.2-1.3 12.9-4.8 33.4-7.5 35.2-4.6 1.2 1.9-7.7 37-10 39.4-2 2.2-2 2.4-.3 6.2 4.3 9.9 3.2 19-4 32.4-4.1 7.5-4.7 8.2-5.2 6l-.6-2.5-1.3 2.3c-1.3 2.5-.6 11.3 2.4 28.2.8 4.7 1.5 8.8 1.5 9.3 0 .4 1.8-.2 4-1.3 2.1-1.1 4.6-2 5.5-2 2.1 0 3.5 4.1 3.5 10.6 0 6.1-1.4 7.5-5.7 5.5-2.9-1.3-4.1-.8-2.6 1.1.6.7 3.6 7.5 6.7 15.1 4.9 11.7 5.7 14.6 5.6 19.5-.1 3.9 1.1 10.8 4 21.7 2.3 8.8 4.3 16.2 4.5 16.4s1.8-.8 3.5-2.3c5.2-4.4 6.3-3.3 7 6.9l.5 7 6 2.7c11.4 5.3 13 6.3 14.5 9.5 2 4.4 5.8 5.6 25.7 8.4 4.5.6 9 1.7 9.9 2.3 1.5 1.1 1.5 1.4-.1 2.9-1.3 1.4-2.7 1.6-6.5 1.1-2.6-.3-5-.2-5.3.2-.2.5 3.5 5.4 8.3 10.9 5.2 5.9 8.9 10.9 8.9 12.2.1 2.4-2.9 4.6-5.1 3.8-.7-.3-1.8.5-2.3 1.7-1.3 2.9-5.3 3.6-6.2 1.1-.8-2.3-5.3-7.8-5.3-6.5 0 .6.8 2.4 1.7 4 1.5 2.6 1.5 3.2.3 4.7-.8 1-2.3 1.5-3.7 1.2-1.3-.2-2.8.2-3.4.9-1.8 2.2-5.7 1.7-7-.9-.7-1.2-3.6-4.9-6.6-8.1-2.9-3.3-6.5-8.4-7.9-11.3-3.3-6.7-4.6-7.8-7.3-6.2-2.5 1.6-4.8.5-12.8-6.3-7.5-6.4-36.9-24.5-38-23.5-.6.7 1.9 6.7 2.8 6.7 2.4 0 3 4.3 1.9 12.6-1.1 8.4-1 8.6 2.1 17.2 1.7 4.8 5.2 13.2 7.6 18.7 5.4 12.2 18.7 51.1 20.4 59.4l1.2 6.1H512V0H0z"/><path d="M291.2 133.5c-.7 2.2-1.2 5.5-1.2 7.3 0 1.9-.8 4.2-2 5.4-2.1 2.3-2.7 8.2-.9 9.3.6.4 2.1-.3 3.3-1.4 1.4-1.3 2.9-1.9 3.9-1.5 1.4.5 1.6.1 1.1-2.2-.3-1.6-1.1-7-1.8-11.9l-1.2-9zM114.5 212c.3.5.8 1 1.1 1 .2 0 .4-.5.4-1 0-.6-.5-1-1.1-1-.5 0-.7.4-.4 1m202.6 20c-.1 4.1-.4 8.4-.6 9.5-.4 1.5.4 2.6 3.1 4.3 2 1.3 3.7 2.2 3.8 2s-1.2-5.5-3-11.8l-3.3-11.5zm74.9 75.8c.6 1.3 1.4 2.1 1.8 1.8.3-.4-.2-1.4-1.2-2.4-1.8-1.6-1.8-1.6-.6.6"/></svg>