<svg xmlns="http://www.w3.org/2000/svg" width="682.667" height="512" version="1.0" viewBox="0 0 512 384"><path d="M0 192v192h191.7l1.2-5.8c2.7-12.6 13.5-48.2 17.3-57.2 7.4-17.2 8.8-22.5 8.8-32.1 0-4.8-.4-9.9-.9-11.2-.5-1.4-3.5-5.3-6.7-8.8-3.1-3.5-6.5-8.2-7.5-10.4-1.5-3.4-1.8-3.6-1.8-1.5 0 1.4.4 4.4.8 6.8 1 5-.1 4.4-1.9-1.1-1.3-4.3-2.1-4.4-7.5-1.7-2.2 1.1-4.8 2-5.8 2s-2.7.5-3.8 1c-1.5.9-2.6.6-5.3-1.5-3-2.3-3.7-2.4-6.1-1.3-1.4.6-3.5 2.8-4.5 4.7-1 2-3 4.9-4.4 6.6-1.4 1.6-2.9 3.8-3.2 4.7-.3 1-.9 1.8-1.4 1.8s.7-4.4 2.6-9.8c1.8-5.3 3.4-9.8 3.4-9.9s-2.4.1-5.3.4c-6.4.7-8.4-.9-6.7-5.2 1.4-3.6.9-4.1-5.2-5.5-12.7-2.9-12.9-3-14.3-6.4-.9-2.2-2.3-3.6-4.1-4-2.1-.6-2.5-1.1-2-3.1.7-2.6.4-2.7-14.4-4-12.3-1-26.3-6.1-32.7-11.8-2.8-2.5-2.9-3.9-.3-6.2 1.9-1.7 2-1.6 5 .9 3.9 3.2 5 3.3 4.7.3-.1-1.5.2-2.1 1.3-1.7 1.8.5 15.3 0 15.9-.6.2-.2-.5-1.4-1.7-2.7s-2.2-3.1-2.2-4-1.4-2.7-3.1-3.9c-3.4-2.5-7.3-8.7-8.3-13.1-.4-1.5 0-5.5.8-9 1.3-5.4 1.3-6.9 0-11.7-1.8-7-1.8-12.8.1-16.4.9-1.6 2-6.4 2.6-10.5.6-4.2 1.3-7.8 1.5-8s1.2.3 2.3 1.3c1.8 1.6 1.9 1.5 3.5-2.4.9-2.2 1.6-4.8 1.6-5.8.1-3.2 5-7.4 5-4.3 0 .5.5 2.2 1 3.7l1.1 2.7 2.4-2.3c1.4-1.3 2.5-1.8 2.5-1.1s.5.9 1 .6 1-1.6 1-2.9c0-1.2.4-2.6.9-3.1.5-.6 1.1-2.2 1.3-3.7.3-2.7.3-2.7 2.7-.9 2.4 1.9 2.5 2.1 1.5 9.3-.9 6.3-.8 8.2.9 13.8 1 3.6 2.5 7.2 3.3 8 1.2 1.2 1.6 1.1 3.3-.6 1-1.1 2.7-4 3.8-6.5 4.4-9.9 7.5-8.2 8 4.4.3 8.7-.2 12-4.1 25.9-2.4 8.7-2.4 8.7-.5 12.3 2.3 4.2 2.4 7.4.5 12-2.6 6.1-6.3 10.1-10.6 11.4-2.2.6-4.7 2.3-5.6 3.6-1.3 2-2.5 2.5-6 2.5-2.6 0-4.4.5-4.4 1.1 0 .8 1.3.9 3.9.5 3.2-.5 5 0 10.6 3l6.7 3.6 2.5-2.4c2.3-2.1 2.6-2.2 5.1-.7 2 1.1 3.4 1.2 5.4.5 2.3-.8 3.5-.4 8 2.4 7.9 5 15.2 9 16.4 9 .7 0 1.4-2.6 1.8-6 1.1-9.4 3.3-15.5 11.2-31 7-13.6 7.3-14.5 5.4-15.2-3.2-1.2-3.3-3.1-1-10.5 1.2-3.7 2.4-7.4 2.6-8.2.3-1 1.5-1.2 4.2-.8l3.8.5 2.7-10.2c1.5-5.5 4.1-16.6 5.7-24.6 5.6-26.9 11.4-42.9 19.4-53.4 3.5-4.5 3.6-4.8 1.5-4.2-1.3.4-6.1 1-10.7 1.3-7 .5-8.5.3-10.2-1.2-2.6-2.4-2.6-8.4-.1-15.8 2.6-7.6 9.4-21.7 11.7-24.6 1.9-2.2 2.1-2.2 5.6-.8 2.1.9 6.4 2.3 9.7 3.1 8.1 2.1 14 5.2 24 12.6 7.2 5.3 8.7 6 11.3 5.5 1.6-.4 4.9-.2 7.2.5 3.7 1 5.1.8 13.5-2 10-3.2 21.4-4.7 27.5-3.6 3.1.6 3.5 1 3.1 2.9C318 58.8 313.4 76 312 78c-1.7 2.5-1.7 2.7.3 6.5 1.7 3.2 2.1 5.7 2 12.6-.1 9.3-.9 11.8-7.9 23.4l-3.5 6 .3-3.8c.2-2 .3-3.7.3-3.7-.1 0-1.7 2.1-3.5 4.7-3.3 4.6-3.4 4.7-4.2 2.3-.8-2.7 0 20.7.8 25.2.3 1.6 1 2.8 1.5 2.8s.9 1.1.9 2.4c0 2.7 1.5 4.2 2.5 2.6.3-.5 1.9-1 3.6-1h2.9v6.7c0 5.3.6 7.9 3 12.9 11 23.4 13 31.1 9.3 36.4-1.4 1.9-1.8 4.5-1.8 11.5 0 4.9.3 9.8.7 10.8.8 1.8.9 1.8 3.6-.1 2.4-1.7 3-1.8 4.6-.7 2.2 1.7 3.3 9.3 1.8 12.2-1 1.8-.2 2.4 9.6 7 5.9 2.8 13.6 6.1 17.1 7.4 5.3 1.9 6.6 2.8 7.7 5.5 1.6 3.7 4 4.9 10.4 4.9 8.9.1 27.1 1.8 27.5 2.5.3.5.2 1.5-.1 2.4-.4 1.2-1.9 1.6-5.3 1.6-2.6 0-5.6.7-6.7 1.5-1.8 1.4-1.6 1.7 4.1 7 3.3 3.1 8.4 7.4 11.3 9.6 4 3 5.2 4.6 5 6.2-.2 1.7-1.1 2.3-3.5 2.5-2.5.2-3.3.8-3.3 2.2 0 2.6-4.6 3.8-6.3 1.8-1.7-2.1-8.2-6.8-9.3-6.8-.5.1.9 1.6 3.1 3.6l4 3.4-2.4 2c-2.3 2-2.3 2-5.5-.2-1.9-1.4-2.6-1.6-1.8-.6 1.1 1.4 1 2-.7 3.7L382 317l-5.7-4.4c-7.5-5.6-15.5-14.2-17.2-18.3-1.5-3.6-3.7-4.9-5.7-3.2-2.1 1.7-5.4.4-13-5.1-3.8-2.8-14.1-8.7-22.9-13.2-8.8-4.4-17-9-18.3-10.1l-2.2-2.1.6 3.5c.4 1.9 1.8 4.6 3.2 6.1 2.7 2.9 2.9 4.9 1.7 15.9-.8 6.6.8 11.7 10.1 32.7 5.8 13.1 18.3 49.3 20.5 59.5l1.2 5.7H512V0H0z"/><path d="M110.8 137.7c-.7 2.5.5 9.6 1.3 7.3.3-.8.2-3.3-.1-5.5-.4-3.2-.7-3.5-1.2-1.8m173.8 4c-1.9 6.8-1.7 8.2 1 11.8 3.3 4.3 4.6 3.5 4.2-2.6-.3-3.8-.6-4.4-2.5-4.2s-2.1-.1-1.6-3.2c.6-3.6-.2-4.9-1.1-1.8m-107.8 81.1c-2.4 5.2-2.8 8.6-.8 6.5 1-.9 4.2-11.5 3.7-12-.2-.1-1.5 2.3-2.9 5.5m219.1 77.6c.8.9 2.4 2.2 3.5 2.8 1.9 1 2 1 .7-.6-.8-.9-2.4-2.2-3.5-2.8-1.9-1-2-1-.7.6"/></svg>