<svg xmlns="http://www.w3.org/2000/svg" width="682.667" height="512" version="1.0" viewBox="0 0 512 384"><path d="M0 192v192h191.8l.7-4.7c1.2-8.3 13.4-49 17.4-58 2.1-4.9 5-12.5 6.5-17.1 2.6-7.6 2.7-9 2.1-17.7-.6-7.1-1.1-9.5-2.1-9.5-.8 0-1.4.7-1.4 1.5s-.4 1.5-1 1.5-.6.9 0 2.5l1 2.5-3-2.1c-1.6-1.2-4.3-4-6.1-6.1-1.7-2.2-3.3-3.8-3.4-3.6-.2.2 0 2.1.5 4.1.7 3.2.6 3.6-.6 2.6-1-.8-1.4-.8-1.4 0 0 2.3-1.8.9-5.5-4.4-2-3-4-5.5-4.3-5.5-.2 0-1 .7-1.7 1.6-1 1.4-1.6 1.1-4.8-2.6-3.1-3.7-4.2-4.2-8.1-4.5-2.5-.1-4.6 0-4.6.4 0 .7-16.4 17.8-19.9 20.6l-2.4 2 2.4-3.6c1.3-2 5-7.5 8.2-12.2 3.1-4.6 5.7-8.7 5.7-9.1 0-.3-1-.6-2.2-.6-2.6-.1-5.8-2.2-5.8-3.9 0-.6.6-2 1.2-3.1 1.7-2.7.4-3.5-9.2-5.5-11.3-2.4-14.3-3.7-15.8-6.8-.8-1.6-2.5-3.2-3.8-3.7-1.7-.7-2.4-1.7-2.4-3.5 0-1.7-.5-2.5-1.7-2.5-1 0-5.8-.5-10.8-1-15.2-1.8-28.9-6.7-34.7-12.5-2.6-2.6-2.7-2.8-1-5.1 2.1-2.9 3.4-3 5.8-.3 1 1.1 2.7 2.5 3.7 3.1 1.6.8 1.8.7 1.2-1.1-.9-3.1.3-4.6 2.4-2.7 1.1 1 2.1 1.2 3.1.6.8-.5 3.6-1 6.2-1 4.8 0 6.9-1.3 4.4-2.7-.8-.4-2.7-3.5-4.2-6.8s-4.7-7.8-7-10c-5.3-5-6.1-8.6-4.3-20.8 1.1-7.3 1.2-10.9.3-17.2-1.2-8.6-1.2-8.7 3.9-17.6 7.4-12.9 8.2-13.9 10.2-13.7 2.3.4 3.3 3.4 3.4 11 .1 5.8.8 8.8 2 8.8 1.4 0 4.4-10.4 4.7-15.9.1-3.1.2-6.2.3-6.9.2-2 2.2-1.4 2.8.9.4 1.5.8 1.7 1.4.8.6-1 1-.9 1.5.6.4 1.1 2 3.8 3.6 5.9 1.5 2.1 2.8 4.7 2.8 5.6 0 1 .8 2.7 1.7 3.9 2.7 3.3 5.4.8 6.1-5.5.8-8.3 2.3-11.9 5.2-11.9 2.2 0 2.5.5 2.8 4.3.2 2.3-.4 7.9-1.2 12.5-.8 4.5-1.3 10-1 12.2.4 2.3-.1 6.6-1 10.1-2.1 8.3-2 12.6.4 15.4 5.5 6.4 3.3 13.1-8.6 25.7-9 9.4-9.2 11.2-2.2 15l4.6 2.5 2.3-2.1c2.7-2.5 2.9-2.5 5.4-.7 1.4 1 2.6 1.1 4.6.4 2.4-.8 4.3-.1 14.6 5.6 6.5 3.7 12.2 6.5 12.8 6.3.5-.2 1.3-3 1.6-6.3.4-3.6 2.2-9.7 4.8-15.7 5.1-12 6.2-14.7 5.7-14.7-.3 0-1.3 1.5-2.4 3.2-9.8 16.7-13.7 22.9-15.3 24.4-2.5 2.3-2.4.8.6-6 1.4-3.1 2.3-5.6 2.1-5.6s-2.1 2.9-4 6.5c-3.9 6.9-5.6 8.7-5.6 5.8.1-7 7.3-21.4 17.1-33.8 10-12.6 15.6-21.2 18-27.5 4.1-10.9 7.1-20.5 8.9-28.9 4.9-21.9 6.1-26.5 9-35.2 4.4-13.1 8.5-21.3 13.1-26.1 2.1-2.3 3.7-4.3 3.5-4.5-.2-.3-2.2.1-4.4.7-2.3.6-6.9 1.1-10.3 1.1-5.5.1-6.6-.2-8.2-2.2-2.3-2.8-1.9-7.3 1.4-17.1 2.7-7.9 9.6-22.3 11.4-23.8 1.1-.9 2.7-.7 7 .9 3.1 1.2 6.6 2.1 7.8 2.1 3.7 0 15.7 6.3 24.2 12.8 8.3 6.2 8.7 6.4 22.5 7.2.8.1 5.6-1.3 10.5-3.1 7.6-2.7 10.5-3.2 18.5-3.3 8.9-.1 9.5 0 9.8 2 .4 3.1-6.7 32.4-8.8 36-1.7 2.9-1.7 3.2.1 6.5 4 7.8 3.1 22.4-1.9 29.7-1.4 2-3.8 6.2-5.3 9.2l-2.7 5.5.5-5 .5-5-3.4 4.8-3.5 4.8-1-3.3-.9-3.3-1.3 2.4c-.9 1.6-1.4 6.8-1.5 15.4l-.1 13 3.5 1.2c2.1.7 3.6 2 3.9 3.1.2 1 .9 2.3 1.7 2.7s1.4 1.9 1.4 3.4c0 1.4 1.4 4.2 3 6.3 3.1 3.9 9.8 16.9 14.4 27.8 3.2 7.5 3.4 14.6.6 18.2-1.7 2.2-2 4.1-2 15.8v13.3l7.8 3.5c12.5 5.8 23.6 10 29.3 11.4 4.2 1 6.3 2.2 9.2 5.4l3.8 4.1h18.2c17.5 0 18.2.1 18.2 2 0 1.6-1 2.2-5.6 3.1-6.4 1.3-7.9 2-7.9 3.8 0 1.5 12.6 11 19.8 14.9 3 1.6 5.6 3.6 5.9 4.3.8 2-1.6 4.4-4.3 4.4-1.4 0-2.4.6-2.4 1.5 0 2.5-3.7 3.7-6.7 2.2-2.4-1.3-2.8-1.2-4.8 1.1s-2.6 2.5-4.8 1.5-2.6-.9-3 .8c-.8 3.2-3.6 3.4-9.1.7-7.4-3.6-15.4-10.3-18.5-15.4-2.8-4.6-5.6-6.3-7.4-4.5-1.9 1.9-4.2 1.2-10.6-2.9-8.3-5.4-17.8-10.1-31.4-15.6-6.2-2.6-12.4-5.7-13.8-7.1-1.8-1.7-2.9-2.1-3.4-1.3-1.1 1.8.5 6.2 3.2 8.8 2.5 2.3 2.5 2.5 1.9 12.5l-.7 10.2 4 10c2.1 5.5 5.6 13.6 7.6 17.9 4.2 9.2 16.4 44.8 19 55.3l1.7 7.3H512V0H0zm150 96.4c0 .2-.8 1-1.7 1.7-1.6 1.3-1.7 1.2-.4-.4s2.1-2.1 2.1-1.3"/><path d="M284 148.5c0 1.9.4 3.5.8 3.5s.6-1.6.4-3.5-.6-3.5-.8-3.5-.4 1.6-.4 3.5m110.7 151.6c.7.7 1.5 1 1.8.7s-.2-.9-1.2-1.2c-1.4-.6-1.5-.5-.6.5"/></svg>