<svg xmlns="http://www.w3.org/2000/svg" width="682.667" height="512" version="1.0" viewBox="0 0 512 384"><path d="M0 192v192l95.7-.2 95.7-.3 1.4-6.5c2.5-11.9 12.3-44.4 15.8-53 2-4.7 5.1-12.9 6.9-18.2 3-8.7 3.3-10.4 2.8-17.6l-.6-8-4.5 1.9c-2.5 1.1-4.5 1.8-4.6 1.7-.1-.2-.6-1.6-1.1-3.2-1.4-4.2-2.9-4.2-4.5-.1-.8 1.9-1.7 3.5-2.1 3.5s-2.8-3.6-5.4-8.1c-2.6-4.4-4.9-7.9-5.2-7.6-.2.3 0 1.4.5 2.4 1.9 3.7 2.3 7.3.8 7.3-.8 0-1.7-.6-1.9-1.3-.3-.6-.6-.2-.6 1-.1 1.2-.5 2.5-1.1 2.8s-.7-.1-.4-.9c.3-.9.1-1.6-.5-1.6s-2.3-2.4-3.8-5.4l-2.6-5.4-4.7 5.7c-5.1 6.1-14.8 16.1-15.6 16.1-.6 0 .2-1.3 4.3-7.1 4-5.6 4.2-7.1.6-3.8-2.2 1.9-2 1.5.8-2.1 1.9-2.5 4.7-6.4 6.2-8.7l2.6-4.2-3.4-1.1c-4.1-1.4-5.1-2.6-3.5-4.5.6-.7.7-1.6.3-1.8-2.6-1.6-15.1-5.7-21.9-7.2-9.8-2.2-11.3-2.9-12.5-6.5-.6-1.7-2-3.1-3.5-3.4-1.7-.5-2.4-1.3-2.4-3.1 0-1.7-.6-2.5-1.7-2.5-1 0-5.8-.5-10.8-1-15.5-1.8-30.2-7.4-35.7-13.6-1.5-1.8-1.5-2.1.4-4.3 1.4-1.8 2.3-2.2 3.3-1.5.7.5 2.7 2 4.4 3.2l3.2 2.4-.6-2.5c-.7-2.5.8-4.6 2-2.7.4.7 3.1.8 7.3.4 9.3-.8 10-1.1 7.3-3.1-2.5-1.7-7.1-11.1-7.1-14.3 0-1.1-1-2.5-2.2-3.1-6.1-3.2-10.2-11.4-8-15.6.6-1.1 1-3.7 1-5.9-.1-2.1.4-6.4 1-9.4.8-3.7.9-6.8.2-9.5-1.7-7.1-1.2-11.2 1.5-13.9 1.4-1.4 2.5-3.2 2.5-4.1 0-.8.4-1.5.9-1.5s1.3-1 1.7-2.2c.4-1.3 1.9-4.2 3.4-6.6 2.4-3.9 2.9-4.2 4.2-2.9.9.9 1.7 4.4 2.1 8.8.3 4 1.1 7.7 1.7 8.3 1.5 1.5 4.5-2.5 6.5-9 .9-2.9 2.3-6 3.1-7 1.3-1.8 1.5-1.7 4.4 1.6 3.5 4.1 4.6 7.2 6.4 17.2.8 4 1.4 6.1 1.5 4.6.1-1.4 1.2-4 2.6-5.6 2.2-2.6 2.5-4 2.5-10.1 0-9.1 1.9-14.2 5-13.4 2.1.6 2.2 1 1.6 7.2-.4 3.6-1.1 12.9-1.6 20.6-.6 7.7-1.3 16.8-1.6 20.3-.5 5.7-.4 6.4 1.7 8.1 2 1.6 2.4 2.8 2.4 8.3 0 6-.2 6.7-4 11.2-2.2 2.7-5.4 6.3-7.1 8-2.8 2.8-5.1 6.8-6.8 11.9-.4 1.2.5 2.4 3.4 4.2 4.8 3 4.8 3 7.6.4 2-1.9 2.4-1.9 5-.6 2 1 3.6 1.2 5.3.6 1.8-.7 3.4-.3 7 1.7 2.5 1.5 7.4 4.2 10.8 6.1l6.1 3.4 1.2-5.8c.6-3.2 3.8-11.6 7.1-18.7 3.2-7.1 5.8-13 5.6-13.2-.1-.2-4.2 5.2-9 12s-9.7 13.1-10.8 14.1c-1.9 1.8-1.9 1.8-.7-1.1l3.1-6.2c3.3-6 1-4.5-3.2 2.3-4.1 6.5-6.8 8.6-5.6 4.2 2.3-7.7 9.6-19.9 17.4-29.1 4.7-5.5 9.3-10.8 10.2-11.7 8.2-8.3 15.5-26.4 21.4-53.4 4-18.6 6.2-26.4 10-35.8 3.4-8.3 9.6-18.2 12.5-19.7 3.2-1.7 1.7-2.3-2.8-1-6.7 1.8-16 1.5-18.3-.5-3.8-3.5-1.4-14.8 6.5-31.7 4.6-9.6 6.3-11.2 10.2-9.8 1.6.6 5.2 1.6 7.9 2.1 7.1 1.3 17.9 6.8 27.1 13.9 7.1 5.5 8.3 6 12.9 6.1 2.7 0 5.9.4 7 .8 1.3.5 5.1-.4 11.5-2.7 7.5-2.7 11.5-3.5 19.3-4l9.7-.5v3.7c0 5.6-6.9 33.3-8.9 35.7-1.6 2-1.6 2.3.6 6.7 4.2 8.2 2.6 23.1-3.2 30.7-1.4 1.9-3.5 5.4-4.6 7.7l-2 4.3.5-5 .6-4.9-3.7 5.3-3.7 5.3-1.1-3.2c-1.8-5.4-3.6-1.4-4.6 10.2-1.2 15-1.1 18.8.4 18.3.6-.3 2.5-.1 4.2.3 2.5.7 3.1 1.5 3.8 5.2.6 2.9 2.4 6.1 5.2 9.5 7 8.3 18.5 32.8 18.5 39.7 0 1.7-.9 4.5-2 6.3-1.8 3-2 4.7-1.8 16.6l.3 13.2 11 4.7c6.1 2.5 13.7 5.4 17 6.4 15.9 4.7 17 5.1 18.1 7.5.7 1.3 1.7 2.7 2.4 3.1.6.4 9.4.5 19.4.2 12.3-.3 18.5-.1 19 .6 1 1.7-2.3 4.2-5.4 4.2-3.6 0-8 1.9-8 3.5 0 2.6 10.7 10.5 20.4 15.1 3.2 1.5 6 3.3 6.3 4.1.7 1.7-1.5 4.3-3.6 4.3-.9 0-2.2.9-2.9 2-1.3 2.2-5.1 2.6-8.2 1-1.5-.8-2-.6-2.5 1-.7 2.1-4.6 3.7-6.4 2.5-.6-.3-2.1.5-3.3 2l-2.3 2.5-5.5-2.1c-6.6-2.5-13.5-7.4-18.4-13.1-7.1-8.2-6.4-7.8-9.5-6-2.7 1.5-3 1.4-13.7-4.6-6-3.3-16.3-8.2-22.9-10.7-18.1-6.9-19.7-7.7-21.5-10.8-1.4-2.3-1.9-2.5-2.4-1.2-1.3 3.4-.5 6.5 2.4 9.9l3.1 3.5-.7 9.9c-.8 11.1-.7 11.3 8.4 31.7 6.6 14.8 18.4 48.9 22.2 64.2l1.1 4.3H512V0H0zm158.1 100.3c-1 .9-1.1.8-.5-.6.3-1 .9-1.5 1.2-1.2s0 1.1-.7 1.8"/><path d="M96.7 151.7c-.4.3-.7 1.8-.7 3.2 0 2.1.5 2.6 2.5 2.7 2.7.2 3.2-1.4 1.5-4.7q-1.65-3-3.3-1.2m126.8 107.9c-.4 1.6-1.1 4.4-1.5 6.2-.5 1.8-.5 3 0 2.7 1-.6 3.3-10.6 2.6-11.3-.3-.2-.8.9-1.1 2.4"/></svg>