<svg xmlns="http://www.w3.org/2000/svg" width="682.667" height="512" version="1.0" viewBox="0 0 512 384"><path d="M0 192v192h190.8l1.6-7.1c3.2-13.6 13.5-47.6 17-55.5 6.7-15.3 8.6-22.4 8.6-32.4 0-9.2 0-9.2-2.3-8.6-2.1.5-2.4.2-2.4-2.7 0-1.7.3-3.7.7-4.2 1.3-1.9 2-4.6 1-4-.6.3-1 1-1 1.5s-1.5 3.3-3.4 6.2c-2.4 3.8-4.4 5.7-7 6.6-1.9.7-3.9 1.3-4.2 1.2-.4-.1-1.1.4-1.5 1.2-.5.8-.9-1.2-1-5.2-.1-6.4-.1-6.4-1.3-2.9-1.5 4.9-3.6 7.4-4.7 5.7-.7-1.1-.9-1.1-.9 0 0 .7-.4 1-1 .7-.5-.3-1-1.5-1-2.6 0-3.3-1.6-2.1-7.5 5.6-3.2 4.1-6 7.5-6.3 7.5-.2 0 0-.6.6-1.2 1.4-1.8 8.2-14.5 8.2-15.3 0-.4-.9-.5-2.1-.2-4.5 1.2-5.3-.2-8.4-14.5-1.1-5.1-2.2-7.9-3.3-8.3-6.3-2.5-15.5-5.5-20.2-6.5-12.6-2.7-13.1-2.9-14.5-6.4-.9-2.2-2.3-3.6-4-4-2.1-.5-2.4-1.1-1.9-3 .5-2.3.4-2.4-8.3-3.1-17.2-1.4-33.8-7.1-40.1-13.8l-2.2-2.3 2.5-2.4c2.5-2.3 2.5-2.3 4.8-.4 1.2 1.1 3 2.6 4 3.4 1.7 1.2 1.8 1.1 1.2-1.1-.6-2.5-.6-2.5 7.5-2.6 4.5-.1 9.1-.5 10.2-.8 1.8-.6 1.6-1-1.9-4-5.4-4.6-8.3-14.5-4.8-15.9 2-.7 1.9-4-.2-5.7-1.8-1.6-2.3-1.6-3.3.1-.5.8-1.8 1-3.5.6-3.7-.9-7.2-8.5-5.4-11.8.7-1.3 1.2-3.8 1-5.6-.1-1.9.6-7.3 1.5-12.2l1.6-8.9 3 3.5c4.7 5.3 5.9 4.6 5.7-3.1-.1-3.6-.5-6.5-.8-6.5s-1.4-1.7-2.4-3.8c-1.8-3.8-1.8-5.8 0-10.3.6-1.4 1.7-4.4 2.4-6.7 2.7-9.2 6-7.8 7 2.8.3 3.9.9 7.3 1.2 7.6 1.5 1.5 4.6-1.2 7.8-6.6 1.8-3.3 4.1-6 4.9-6 2 0 5.7 5.8 6.5 10.1.3 1.9.7 4.1.9 4.9.1.8.6 3.7 1.1 6.5.4 2.7 1.1 5.7 1.6 6.5.9 1.7.9 1.8 2.9-6.2.7-2.6 2-5.4 3-6.3 4.2-3.8 5.4 4.2 3.5 24.2-.7 7.3-.6 8.3.9 8.3.9 0 1.8 1.1 2.2 2.7.3 1.6 1 4 1.6 5.5 1.5 4 .1 8.3-4.3 13.4-2.1 2.5-3.9 4.8-3.9 5.2s-1.8 2.9-3.9 5.5c-2.2 2.6-4.3 6.2-4.6 8-.4 1.7-1.2 3.7-1.7 4.4-1.3 1.6-.7 2.4 3.5 4.7 3.5 1.8 3.5 1.8 6.5-.4 2.8-2.1 3.2-2.1 5.2-.7 1.6 1.1 2.9 1.3 4.6.7 3-1.2 4.9-.4 14.4 5.4 4 2.5 7.7 4.3 8.1 3.8.4-.4 1.7-4 2.8-8s4.8-12.5 8.2-19c6.9-13.1 6.8-13-5.4 2-11.9 14.7-13.5 15.3-5 2.1 1.8-2.9 3.2-5.3 3-5.3-.3 0-3.3 3.7-6.8 8.2-3.4 4.6-6.4 8.5-6.6 8.7s-.5.2-.7 0c-.7-.7 4.1-11.3 7.6-16.7 1.9-2.8 8.1-10.2 13.8-16.4 5.6-6.2 11.8-13.6 13.7-16.4 4.7-7 10.5-24.8 14.3-43.4 6.3-31.1 13.2-48.5 21.8-55.4 3-2.4 2.4-2.8-1.9-1.6-5.8 1.7-16.9 1.4-18.8-.4-2.2-2.3-1.8-8.9 1-17.4s10.5-24.1 12.3-24.8c.7-.3 3.7.4 6.5 1.5 2.9 1.1 5.9 1.7 6.7 1.4 2.9-1.1 16.6 6.5 28.3 15.7 4.7 3.7 6 4.2 11.4 4.6 3.4.2 6.9.4 7.7.5.8 0 5.4-1.3 10.2-3 4.8-1.8 12.6-3.6 17.3-4.2 10.6-1.3 11.9-.6 11 5.5-1.4 8.6-7.5 31.9-8.9 34.1-1.4 2.1-1.3 2.7.5 6.5 1.1 2.3 2.3 6.3 2.6 8.8.7 6-1.9 16.5-5.1 20.6-1.3 1.7-3.5 5.3-5 8.1l-2.6 5 .6-4.3c.3-2.3.3-4.2 0-4.2s-2 2.1-3.8 4.7c-2.7 3.9-3.3 4.4-3.6 2.8-.5-2.8-1.5-3.6-3.1-2.6-1.3.8-2 5.8-3.5 25.1-.5 6.5-.4 7.3.8 5.7 1.1-1.5 2-1.6 4.8-.9 2.9.7 3.3 1.2 3.4 4.4.1 2.8 1.3 5 5.9 10.3 5.9 7 16.3 27 18.7 36 1.1 4.1 1 5-1 8.8-1.8 3.6-2.2 6.1-2.4 17.4l-.3 13.2 7.5 3c13.5 5.3 18.4 7 27 9.1 9.2 2.3 13 4.2 13 6.5 0 2 7.1 4 9.7 2.7 1-.6 8.5-1.4 16.6-1.8 14.5-.7 14.7-.7 14.7 1.4 0 2.6-.8 3.1-5.5 3.7-4.4.5-8.8 3.1-8.2 4.8.6 1.9 13.6 10.1 21.2 13.4 5.2 2.2 7 3.4 7 4.9 0 1.2-.8 2-2.2 2.2-1.2.2-2.9 1.5-3.8 2.9-1.5 2.3-2.2 2.5-6.1 1.9-3.7-.5-4.8-.2-6.5 1.5-1.4 1.4-2.8 1.9-4.4 1.5-1.8-.5-2.7-.1-3.4 1.3-1.6 2.9-3.6 3.2-9.7 1.2-7.2-2.4-15-7.9-20.3-14.1l-4.2-5-2.9 1.7c-2.7 1.6-3 1.5-8.2-1.1-17-8.8-21.6-10.8-34.2-15.2-12.6-4.3-14.1-5.1-16.6-8.6-3.1-4.2-4-3.6-4 2.9 0 2.6.8 4.2 3.1 6.4 3 2.8 3.1 3.2 2.5 8.6-1.5 13.8-.5 17.7 9.1 38.8 5.2 11.5 16.3 42.9 19.8 56l2.3 9 89.1.3 89.1.2V0H0zm142.5-75c.7 2.3-.2 6-1.6 6-.5 0-.9-1.8-.9-4 0-4.2 1.4-5.4 2.5-2"/><path d="M183.7 263.7c-1.1 1-.8 5.1.3 5.8.6.4 1-.8 1-2.9 0-3.7-.2-4.1-1.3-2.9"/></svg>