<svg xmlns="http://www.w3.org/2000/svg" width="682.667" height="512" version="1.0" viewBox="0 0 512 384"><path d="M0 192v192h190.6l1.3-6.2c2.2-11.2 12.7-46 16.6-55.3 8.9-21.3 10.4-28.2 8.7-39.4l-.7-4.3-5 4.3c-9.3 7.9-8.5 7.5-8.1 4.2.2-1.7 1.9-5.6 3.7-8.8 4.1-7.3 2.7-6.6-3.7 1.9-5.2 7-7.5 8.8-6.6 5.4.6-2.5.1-2.3-7.4 3.4-6.2 4.7-7.2 4.8-4.4.5 2.2-3.3 6-11.4 6-12.5-.1-.4-1.9 1.3-4.1 3.8-3.2 3.6-4.1 4.2-4.9 3-1-1.7-1.2-1.6-3.4 2.5l-1.6 3 .1-5.5c0-10.5-1.9-17.2-3.5-12.3-.8 2.2-4.8 7.4-4.2 5.3.3-.8 1.6-5.3 3.1-9.9 2.4-8 2.8-12.5.4-6.5-.6 1.6-2.2 5.8-3.5 9.3-1.4 3.6-2.7 6.7-3.1 7-.6.7.4-14.1 1.3-18.9.6-2.7.3-3.1-3.2-4.6-2.2-.9-9-2.9-15.2-4.5-11.9-2.9-13.7-3.8-14.7-7-.4-1.1-1.8-2.4-3.1-2.9q-2.4-.9-2.4-3.3c0-2.3-.4-2.4-10.7-3.5-13.7-1.4-25.2-4.8-32.6-9.5-6.8-4.4-7.7-6.1-4.9-8.8 2.7-2.4 3.4-2.4 5.8.2 1 1.1 2.7 2.5 3.6 3 1.6.8 1.7.7.8-1.6-.8-2.1-.7-2.5 1-2.5 1 0 2.1.4 2.5.9.3.6 1.8.6 3.8 0 1.7-.5 4.5-.9 6.2-.9 1.6 0 3.7-.4 4.5-1 2.1-1.3-.2-5.1-4.3-7-2.5-1.2-3.4-2.6-5-7.7-1.8-5.7-1.8-6.3-.3-7.8.9-.9 1.6-2.5 1.6-3.4 0-1 .7-2.4 1.5-3.1 2.3-1.9 1.8-3.9-1.7-6-4.2-2.5-4.6-2.5-5.4.4-.8 3.5-3 3.9-5.3 1.1-2.8-3.7-3.6-9.1-1.6-12.1.9-1.5 1.9-5.6 2.2-9.7.9-13.5 3.6-17.1 7.8-10.4 1.1 1.8 2.4 3.2 2.9 3.2s1.8-2.4 2.9-5.4l2.1-5.3-2.1-9.8c-1.6-7.7-1.8-11.2-1.1-16.6 1-8.4 1.3-9.4 3.2-9.4 1.7 0 3 6.8 2.4 13-.4 4.5-.5 4.4 2.5 2.8 1.2-.7 3.6-1.3 5.2-1.3 2.3 0 3.1-.5 3.3-2.3.2-1.2.7-2 1.2-1.7s1.2 0 1.5-.6c1.3-2 5.3 6.5 6.9 14.6.8 4.4 1.9 9.3 2.3 10.8l.8 2.8 2.8-2.1c1.4-1.2 3.2-3.9 3.8-6.1 1.1-3.6 2.2-4.4 2.5-1.6 0 .7.2 7.2.2 14.5.2 11.6.4 13.3 2 13.9 2.5 1 3.2 2.3 3.2 7.1 0 2.4.4 5.2 1 6.2 1.7 3.2.1 7.8-3.5 9.9-2.2 1.3-3.5 3-4 5.2-.7 3.2-5.2 12.1-8.1 16.4-.8 1.1-1.4 2.6-1.4 3.5 0 .8-.6 2.7-1.4 4.2-1.5 2.9-1.2 3.4 3.2 5.7 1.9 1 2.7.9 5.3-.9 2.8-2 3.1-2.1 5.4-.6 1.8 1.2 3.1 1.3 4.9.7 2.6-1 2.3-1.1 15.6 6.2 3.6 2 7 3.7 7.6 3.7.5 0 2.1-3.3 3.3-7.3 1.3-3.9 4.8-11.9 7.7-17.6 3-5.7 5.4-10.6 5.4-10.9s-3.2 2.9-7.1 7.1-7.4 7.5-7.8 7.2c-.5-.2-1.8.7-2.9 2-2.1 2.4-4.2 3.3-4.2 1.8 0-1.2 6.2-11.7 9.3-15.8 1.7-2.2 5.4-6.5 8.1-9.5 14.1-15.5 16.6-19.3 20.4-31 1.6-5.2 4.4-17.8 6.2-28 1.7-10.2 4-21.9 5-26 3.8-14.8 10.5-28.1 16.7-33l2.8-2.1-2.5.6c-5.4 1.4-19 1.8-20.5.5-2.4-2-1.9-10.8 1.1-19.2 3.5-9.7 10.1-22.8 11.9-23.4.8-.3 3.8.2 6.7 1.2 2.8.9 6.6 1.8 8.2 1.9 5.2.3 16 6.5 26.1 15 4.3 3.6 5.8 4.3 11.5 4.9 9.2 1 8.6 1.1 18.1-2.3 9.1-3.3 23.5-5.8 26.4-4.7 1.5.5 1.6 1.4 1.1 5.7-1.1 8.4-6.3 28.6-8.3 32.8l-1.9 3.9 2.2 4.3c4.4 8.4 2.6 22.5-3.9 31.1-1.4 1.8-3.5 5.4-4.5 7.8l-1.9 4.5.4-5.5.5-5.5-3.2 4.7c-3.9 5.9-5 6.6-5 3.5 0-3.4-1.1-4-2.8-1.6-.9 1.3-1.7 6.4-2.3 14.2-.5 6.7-1.1 13.5-1.4 15.2-.4 2.7-.3 2.8.9 1.2 1.1-1.5 2-1.6 4.8-.9 2.9.8 3.3 1.2 3.3 4.4 0 2.8 1.1 4.6 5.8 9.9 4.2 4.6 7.7 10.3 12.8 20.4 8.2 16.4 9.1 20.1 6 24.3-1.9 2.7-2.1 4.3-2.1 17v14.1l12.8 4c7 2.2 17.1 4.9 22.5 6 10 2 12.7 3.2 12.7 5.7 0 2.3 7.2 3.6 10.6 2 3.4-1.7 26.3-4.1 29.3-3.1 4.1 1.3 1.7 5.5-3.1 5.5-3.7 0-8.8 2.6-8.8 4.5 0 2.8 11.9 9.4 21.5 11.9 3.2.8 6.5 2.2 7.4 3.1 1.5 1.6 1.4 1.8-.3 2.8-1 .7-3 2.2-4.4 3.4-1.8 1.7-3.7 2.3-7.3 2.3-2.6 0-5 .4-5.4.9-.3.5-2 1.3-3.7 1.6-1.8.4-4.4 1.7-5.9 2.8-5.8 4.2-19.4-.6-29.4-10.4-4.5-4.3-6-4.7-8.6-2.3-1.7 1.5-2.6 1.2-13.6-3.9-10.4-4.9-22.7-9.2-36.1-12.7-5.1-1.3-10.5-5.8-12.3-10.2l-1.3-3.3-1.2 4c-1.9 6.3-1.6 8.2 1.7 11.6l3.2 3.2-.7 10.1-.7 10.1 4.5 11c2.4 6 6.2 15 8.4 20 4.6 10.5 16.5 45.4 18.3 53.8l1.2 5.7H512V0H0z"/><path d="M124.2 133.5c0 1.6.2 2.2.5 1.2.2-.9.2-2.3 0-3-.3-.6-.5.1-.5 1.8m-21.1 21.4c-1 .6-.9 1 .5 1.5 2 .8 2.5.4 1.6-1.1-.4-.7-1.3-.9-2.1-.4m77.4 108.7c-.4 1.6-1.1 4.4-1.6 6.3-.4 1.9-.5 3 0 2.5 1.1-1.2 3.3-10.5 2.7-11.1-.3-.3-.8.8-1.1 2.3"/></svg>