<svg xmlns="http://www.w3.org/2000/svg" width="682.667" height="512" version="1.0" viewBox="0 0 512 384"><path d="M0 192v192h189.9l1-3.8c.5-2 1.6-6.4 2.4-9.7 3.9-15.6 11.7-40.8 15-48.5 6.1-14.2 9.7-25.9 9.7-31.6 0-2.9-.3-5.5-.8-5.7-.4-.3-3.3 1.5-6.5 3.9-3.3 2.4-6.3 4.2-6.8 3.8-.5-.3.1-2.4 1.2-4.7l2.1-4.2-4.1 4c-2.9 2.7-4.1 3.4-4.1 2.3 0-3.1-2-2.9-6.3.5-2.3 1.9-5.4 4.2-7 5.2-2.6 1.7-2.7 1.7-2.1-.1.4-1.1 1.5-2.8 2.4-3.9 2.2-2.5 5.5-8.9 4.3-8.3-.4.2-2.9 1.4-5.5 2.6-2.7 1.3-5.4 3.5-6.3 5-1.8 3.4-1.9 1.3-.4-5.6.7-2.8.9-6.9.5-9.7l-.8-4.8-3.8 4.4-3.9 4.4 3.5-9c2-5 3.8-9.6 4.1-10.2.3-.7.2-1.3-.1-1.3s-2.7 4.2-5.2 9.2c-2.6 5.1-4.9 8.8-5.1 8.1s.3-5 1.1-9.6c.9-4.6 1.6-9.1 1.6-10 0-1.7-13.2-6.4-24.5-8.7-7.1-1.4-10.5-3.3-10.5-5.9 0-1.2-1.1-2.3-3-3-2.2-.7-3-1.6-3-3.4 0-2.4-.3-2.5-8.2-3.2-16.3-1.3-33.3-6.9-39.5-13.1-2.3-2.3-2.4-2.5-.6-4.9 2.2-3 3.4-3.1 5.9-.4 1 1.1 2.7 2.5 3.7 3 1.5.9 1.7.7 1.2-1.3-.6-2.3-.4-2.3 7.9-2.5 4.7-.1 9.3-.6 10.3-1.2s1.2-1.1.6-1.1c-.8 0-1.3-1.3-1.3-3 0-2.5-.4-3-3.5-3.6-4.2-.8-4.5-1.2-6.7-8.8-1.4-5.3-1.5-6.4-.2-9.6.8-1.9 2.4-4 3.7-4.5 3.5-1.6 3.1-3.9-1.8-8.9-2.5-2.6-4.5-5.2-4.5-5.9s-1.1-2.3-2.5-3.5c-2.4-2.3-2.4-2.8-1.9-11.5.3-5.1.7-10.1.9-11.3.7-3.3 3.5-2.4 6.2 2l2.6 4 1.5-3.1c.8-1.7 2.3-3.3 3.2-3.6 1.5-.4 1.7-1.7 1.4-11.3-.3-7-.8-11-1.6-11.5-1.7-1.1-2.3-13.5-.8-18.7 2.1-8.1 6.8-2.7 5.5 6.4-.5 3.6-.3 4.3 1.9 5.8 4.6 3 5.4 6.2 7.2 29.8.7 8.6 2.2 10.3 5.1 6 1.2-1.8 1.9-5.1 2.1-10.3.3-6.6 0-8.3-2.2-13.1-2.9-6.1-3.3-9.5-1.2-12.3 1.3-1.8 1.4-1.7 3 .6.9 1.5 2 6.5 2.6 12.1.5 5.2 1.2 10.3 1.6 11.2.7 1.7 3.4 2.2 3.4.6 0-.6 1.3-1 3-1 4.1 0 5 2.4 4.8 12.2-.2 9.2.4 11.2 3.2 10.3 2.1-.7 3 1.8 3 9.1 0 2.7.5 5.5 1 6 1.7 1.7-.8 6.1-4.1 7.5-2.2.8-2.9 1.8-2.9 3.8 0 1.4-1.1 5-2.5 7.9-1.4 3-2.5 5.9-2.5 6.6 0 .6-1.2 2.9-2.6 5-1.5 2.2-3 5.3-3.4 7s-1 3.8-1.4 4.6q-.6 1.5 2.7 3.6l3.3 2.1 2.8-2.4c2.6-2.2 3-2.3 5.2-.9 1.7 1.2 3 1.3 4.8.6 2-.7 3.5-.3 7.8 2.1 9.9 5.5 19.7 10.3 20.2 9.9.2-.3 1.6-4.8 3-10.1 1.4-5.5 4.2-12.6 6.6-16.7 2.2-3.9 4-7.5 4-7.8 0-.4-2.5 1.9-5.6 5.2-3.1 3.2-5.1 5.1-4.4 4.1 2.7-3.7-.1-1.4-3.3 2.8-3.4 4.4-3.5 4.4-4 2-.6-3.4 3.9-10.7 14.5-23.7 4.6-5.7 9.8-12.3 11.5-14.8 4.7-6.8 8.1-19.4 11.3-41.2 3.6-23.9 5.3-31.9 9.3-42.3 3.4-9 7.4-15.6 12.1-19.8 3-2.8 3-2.8.6-2.2-1.4.4-6.1.9-10.6 1.2-7.7.5-8.2.4-9.8-1.8-.9-1.3-1.6-3.8-1.6-5.5 0-6.4 10.5-32.1 14.5-35.4 1.4-1.1 2.4-1.1 6.9.3 2.9 1 6.3 1.7 7.5 1.7 5 0 17.2 7.1 28.7 16.8 3.8 3.3 6.3 3.9 17.4 4.3.8.1 5.4-1.3 10.2-3 4.8-1.6 12.4-3.5 16.9-4.1 10.2-1.2 11.4-.6 10.4 5.9-1.1 7.8-6.5 28.4-8.3 32.1-1.7 3.4-1.6 3.7.5 8 4.3 8.8 2.4 22.9-4.2 31.5-1.4 1.9-3.4 5.4-4.4 7.7l-1.8 4.3.4-5.5.5-5.5-4.1 6c-3.9 5.8-4.6 5.9-4.4.7.1-.6-.3-1.2-.7-1.2-1.9 0-2.8 3.2-3.4 12.5-.4 5.5-.9 12.2-1.3 15-.5 4.3-.4 4.8.9 3.7 1.2-.9 2.3-.9 4.8-.1 2.9 1.1 3.2 1.5 2.7 4.3-.4 2.7.3 3.9 5.2 9.4 8.3 9 21 33.2 21.1 40 0 1.9-.9 4.5-2 5.9-2.2 2.8-2.5 8.6-1.4 22.5l.7 7.5 10.1 3.1c10.7 3.2 15.6 4.4 27.6 6.7 5.5 1.1 7.9 2.1 9.2 3.7.9 1.2 3.1 2.7 4.9 3.3 2.8 1 3.9.9 6.5-.7 4.1-2.4 28.4-3.9 30.9-1.8 2.3 1.9 0 4-4.4 4-2 0-5.1.9-7 2.1-3.1 1.9-3.2 2.1-1.7 3.8 2.6 2.9 13.3 7.3 21.6 9.1 6.1 1.2 7.5 1.9 7.5 3.4 0 1-.9 2.4-1.9 3-1.1.6-2.9 1.9-4 2.9-1.3 1.1-3.6 1.7-6.7 1.7-2.8 0-5.1.6-5.8 1.4s-2.4 1.7-3.8 2.1c-1.5.3-4 1.5-5.5 2.7-5.4 3.8-16.6.5-27.6-8.1-5.2-4.1-7.6-5-8.7-3.1-1.2 2-6.7.9-13.5-2.5-7.7-3.9-18.2-7.5-30.5-10.6-4.4-1.1-9.7-2.7-11.7-3.6-3.7-1.6-7.9-6.6-9.4-11.3-.7-2.4-.8-2.3-2 1.5-2.2 7-1.8 10.5 1.8 14.2l3.2 3.3-1 9.2c-1 9.2-1 9.4 2.2 17.8 1.8 4.7 5.1 12.5 7.4 17.5 4.6 10.1 18 48 19.9 56.5.7 3 1.5 6.3 1.8 7.2.4 1.7 5.5 1.8 89.9 1.8H512V0H0zm94-22.6c0 1.2-.6 3.1-1.4 4.1-1.2 1.6-1.6 1.7-3 .6-1.7-1.5-2.4-11.7-.7-10.6.5.3 1.3 0 1.6-.6.9-1.3 3.5 3.5 3.5 6.5"/><path d="M101.8 151.4c-2.4 1.8-2.2 2.4.7 2.2 1.7-.1 2.5-.7 2.5-1.9 0-2-.9-2.1-3.2-.3m10 3.1c.2 1.4.6 2.5.8 2.5s.4-1.1.4-2.5-.4-2.5-.9-2.5c-.4 0-.6 1.1-.3 2.5m1.5 58.2c.9.2 2.5.2 3.5 0 .9-.3.1-.5-1.8-.5s-2.7.2-1.7.5"/></svg>