<svg xmlns="http://www.w3.org/2000/svg" width="682.667" height="512" version="1.0" viewBox="0 0 512 384"><path d="M0 192v192h189.7l.6-4.3c1.4-9.7 14.3-52.9 18.2-60.7 1.3-2.5 3.4-8.2 4.8-12.7 2.1-7 2.3-8.1.8-7.5-1.4.5-1.4.4-.1-1.4 1.4-1.8 1.4-1.8-.6-.1-1.1.9-2.6 1.7-3.2 1.7s-1.6.8-2.1 1.7c-.9 1.5-1 1.3-1.1-1.4 0-2.5-.3-3.1-1.6-2.6-1.4.5-1.5-.2-.9-6 .4-3.7.4-7.9 0-9.4l-.7-2.8-2 3.8c-2.4 4.7-3.1 4.4-1.7-.7.6-2 .8-4.9.6-6.4-.4-2.5-.5-2.5-1.1-.6-.4 1.2-1.8 4.3-3.1 7l-2.3 4.9-.1-6.4c-.1-5.8-.3-6.3-1.5-4.6s-1.3 1-.9-5.2l.5-7-3.3-.7c-1.8-.3-8.6-2.9-15.1-5.7s-17-6.4-23.4-7.9c-12.1-3-13.9-3.9-14.9-7.1-.4-1.1-1.8-2.4-3.1-2.9q-2.4-.9-2.4-3.3c0-2.2-.5-2.4-11.2-3.5-13.5-1.4-25.8-5-32.4-9.5-6.5-4.4-7.2-5.9-4.5-8.6 2.4-2.4 4.1-1.9 7.5 1.8 2.4 2.6 4 2.7 2.6.2-.5-1.1-1-2.2-1-2.5 0-1 3.8-.7 4.5.4.4.6 1.5.6 3.1 0 1.4-.6 3.9-1 5.5-1s2.9-.5 2.9-1c0-.6-.5-1-1.2-1-.8 0-.9-.3-.2-1 1.9-1.9.3-7-2.7-8.5-1.6-.9-3.4-2.5-4.1-3.8-2.1-3.8-4.1-22.8-2.5-24.4.4-.4 1.7-.1 2.8.6 1.8 1 2.4 1 4-.5 2.8-2.5 2.4-5.8-1.6-12.8-2.9-5.2-3.5-7.3-3.5-12 0-4.8.3-5.9 1.9-6.3 2.4-.6 4.1-4.4 4.1-9.1 0-5.2 1.3-6.9 2.8-3.7.6 1.4 1.7 2.5 2.4 2.6.7 0 2.3.2 3.4.4 1.9.4 2.1 0 2-4.8 0-6.2.9-8.4 3-6.6 1.9 1.6 2.7 6.7 1.7 11.3-.9 4.3-2.9 5.8-3.6 2.9-.3-1.4-.6-1.2-1.7 1.2-1.5 3.7-2.5 10.9-1.7 12.9 1 2.6 6.7-.1 8-3.8 2.3-6.6 13.9-28.7 15.3-29.3 5-1.9 6.9 12.4 3.6 26.8-1.8 8.3-1.8 8.7-.1 12l1.7 3.4.6-2.8c.3-1.5.8-3.8 1.1-5.2.7-3.1 3.5-3.3 6-.5 2 2.3 1.6 8.4-.9 10.8-1.7 1.7-3.6.8-3.6-1.9 0-1-.4-1.9-1-1.9-.5 0-.7 1.4-.4 3.2.4 1.8.8 6.7 1.1 10.8.4 6.4 0 8.6-2.1 14.4-1.4 3.8-2.6 8.4-2.6 10.3s-.7 4.1-1.5 5c-.9.8-1.3 2.3-1 3.3.4 1.1-.3 2.3-2 3.4-1.4.9-2.5 2.5-2.5 3.7 0 1.1-.7 2.2-1.5 2.5-1.9.8-1.1 2 2.6 4 2.8 1.4 3.2 1.3 5.5-.5 2.4-1.9 2.9-1.9 5.4-.6 1.5.8 3 1.2 3.3.9 1.6-1.7 7-.2 13.7 3.8 9.9 5.8 23.8 11.9 24.5 10.8 2.1-3.3 3.2-10.3 2.3-13.4-.9-2.8-.6-4.8 1.6-11.7 1.5-4.6 3.8-10 5.1-11.9 5.2-7.6 7.9-15.2 8.3-23.1.4-6.8.7-7.8 2.7-8.7 2.7-1.2 3-3.2 4.5-25.2.6-8.5 1.5-18.7 2.1-22.5 3.1-23.1 11-43.3 19.2-49.4l3.2-2.3-3 .6c-15.3 3-20.5 1.4-20.5-6.4 0-5.1 5-18.7 10.3-28 4.8-8.5 6.1-9.2 13.5-6.3 2.6 1 5.5 1.6 6.4 1.5 3.1-.5 12.2 4.6 21.6 12.3 7.3 5.9 9.9 7.5 12.5 7.5 1.8 0 4.7.4 6.5.9 2.5.8 4.4.5 9-1.4 6.6-2.7 19.4-5.5 25-5.5 4.9 0 6.6 1.8 5.7 6.2-2 9.9-6.7 27.8-8.1 31-1.6 3.5-1.5 3.9.7 8.5 4.1 8.2 2.9 21.9-2.6 29.4-1.3 1.9-3.5 5.4-4.7 7.8l-2.3 4.4-.5-3.8-.5-3.9-3 4.5c-1.6 2.4-3.1 4.6-3.3 4.9-.6.9-2.2-2.5-1.7-3.8.5-1.5-1.1-1.6-2-.1-.4.6-.4 7.4 0 15 .7 13.6.8 14.1 3.1 14.9 1.9.7 2.4 1.7 2.4 4.3s1.1 4.5 5.4 9.1c4.9 5.3 14.1 19.6 19.5 30.3 2.5 5 2.8 12.4.5 15.8-1.3 2-1.4 4.3-.7 15.6l.8 13.3 5 1.3c9.2 2.5 23.9 5.3 32.5 6.2 7.3.8 8.7 1.3 10.5 3.5 1.1 1.4 3 2.6 4.2 2.6s2.5.5 2.8 1c.4.6 1.7.3 3.4-.9 4-2.8 10.2-4 20.9-4.1 9.5 0 13.2 1 13.2 3.4 0 1.7-2.2 2.6-6.5 2.6-3.6 0-8.5 1.8-8.5 3.1 0 1.7 4.9 4 10.8 5 5.1.9 7 .8 10.9-.5 6.1-2.1 6.3-2 6.3.9 0 1.9-1.4 3.3-6.2 6.5-3.4 2.2-6.6 4-7.1 4-1 0-9 3.5-11.7 5.1-7.8 4.7-13.2 5-21.5 1.1-10.5-5-13.3-5.7-15.6-3.6-2.2 1.9-3.2 1.7-20.9-4.5-4.7-1.6-15-4.3-22.9-6-10.8-2.3-15.1-3.6-16.9-5.3-2.5-2.3-8.1-13-8.3-15.8-.2-2.4-3.7 12.2-3.8 15.7-.1 2.3.8 4.3 3.1 6.8l3.1 3.6-1 9.1-1.1 9.1 4.3 10.6c2.3 5.8 6.5 15.8 9.2 22.1 5.1 11.6 17.6 48.4 18.8 55.2l.7 3.8H512V0H0z"/><path d="M286.2 142.5c0 1.6.2 2.2.5 1.2.2-.9.2-2.3 0-3-.3-.6-.5.1-.5 1.8M111 212c-1.1.7-.1 1 3.5.9 3.7 0 4.5-.3 3-.9-2.7-1.2-4.7-1.2-6.5 0"/></svg>