<svg xmlns="http://www.w3.org/2000/svg" width="682.667" height="512" version="1.0" viewBox="0 0 512 384"><path d="M0 192v192h190v-2.8c.1-5.7 12-47.8 16.7-58.6 6.8-15.6 9.3-24.4 9.3-32.3 0-4.7-.4-7.2-1-6.8-.5.3-1 1.6-1 2.8 0 1.8-.2 1.9-1 .7-.5-.8-.7-2.5-.3-3.7.3-1.3.2-3.5-.2-5.1-.7-2.5-.8-2.5-1.5-.7-.5 1.1-.9 3.9-.9 6.2-.1 5.6-1.8 5.5-3.2-.2-1.2-4.8-2.8-6.8-3-3.8-.1 2.1-2.8-10.1-3.6-16.5-.6-4.6-.9-4.8-3.7-2.7-3.1 2.3-10.4 1.8-16.6-1.1-10.6-5-22.6-9.2-31-10.9-10.1-2-11.8-2.8-13-6.1-.5-1.3-2.1-2.9-3.5-3.6-1.6-.7-2.5-1.9-2.5-3.3 0-2.1-.6-2.3-8.7-3-16.4-1.3-34.3-7.4-39.8-13.5-1.6-1.8-1.6-2 .2-4.4 1-1.4 2.1-2.6 2.5-2.6s2.3 1.4 4.1 3c4.2 3.6 4.6 3.7 3.9.5-.4-2.6 1.4-3.5 3.3-1.6.6.6 2.4.5 4.8-.2 3-.9 3.7-1.6 3.3-3.1-.3-1 0-3 .5-4.4.8-2.1.5-3-1.9-5.6-4.4-4.6-5.5-7.4-4.8-11.8.4-2.5.1-4.8-.9-6.8-1.7-3.3-2-10.6-.5-11.5.5-.3 1.8-.2 2.7.4 5.2 2.7 7.3-6.1 3.3-13.9-1.1-2.2-2-5.9-2-8.5 0-2.5-.4-4.5-1-4.5-.5 0-1-1.6-1-3.5 0-2.8.5-3.7 2.4-4.5 2.4-.9 4.6-5.8 4.6-10.2 0-1.5.4-1.6 2.7-.7 1.4.5 3.2.8 3.9.5 1-.4 1.2 2 .7 11.6-.6 11.6-.6 12 1.3 11 2-1.1 2.6-1.2 4.8-1.2.9 0 2.1-2.2 3.2-5.8 4.5-15.3 10.5-29.1 12.9-29.9.6-.2 2 .3 3 1.1 2.8 2 3.4 16.8 1.1 24.6-2.4 8.2-2.1 11.8 1.8 18.3 4.6 7.6 5.6 16.7 2.8 25.2-1.1 3.3-2.3 8.2-2.6 10.9s-1.3 6.2-2.1 7.9c-1 1.9-1.2 3.4-.6 4.1 1.5 1.8-7.2 9.6-9.3 8.4-.9-.5-2.3-.5-3.1-.1-1 .6.3 1.8 5 4.3l6.5 3.5 2.1-2.2c2.1-2 2.4-2.1 5-.7 2 1 3.5 1.1 5.2.5 2.6-1 2.3-1.2 14.7 5.7 4.1 2.3 10.7 5.4 14.6 7l7.1 3 3.2-11c2.5-8.6 3-11.9 2.5-15.7-.7-5.5-.1-6.8 6.5-15.3l4.5-5.6-.3-9.5c-.2-7.7.1-9.7 1.4-11.1.9-.9 2.2-1.6 3-1.6 2 0 2.3-1.6 3-15.6 1.4-29.7 4.3-48.2 9.4-61.5 3.4-8.7 8-16.3 11.9-19.7l2.7-2.3-2.5.5c-1.4.4-5.2.9-8.5 1.2-5.2.5-6.4.3-8.8-1.6-3.4-2.7-3.5-6.6-.6-15.3 2.7-8.1 10.3-22.8 13.2-25.5l2.3-2.2 5.2 2c2.9 1.1 6.5 2 8 2 3.7 0 13.8 6.1 22.6 13.6 6.5 5.5 7.7 6.1 13.1 6.8 8.4 1.1 8.2 1.1 16-1.9 5.4-2.1 9.3-2.9 17.1-3.3 6.5-.3 10.4-.1 10.8.6.7 1.1-5.1 26.3-7.9 34.6-1.7 4.8-1.6 5 .6 9.5 4.2 8.4 2.5 22.7-3.7 30.8-1.4 1.8-3.4 5.4-4.5 7.8-1.1 2.5-2.1 4.5-2.3 4.5s-.2-2.1.1-4.8l.4-4.7-3 3.5c-1.7 1.9-3.1 4.1-3.1 4.7 0 2.3-1.8 1.4-2.4-1.2-.4-1.4-1.1-2.3-1.6-2-1.1.7-1.3 9.3-.3 21.3.6 7.7.8 8.4 3.1 9.3 2.1.8 2.4 1.4 1.9 4.4-.5 3.1-.3 3.7 2.4 5 1.6.9 2.9 2 2.9 2.5 0 .6 1.5 2.7 3.3 4.7 4.1 4.7 16.4 24.9 18.3 30 1.8 5.3 1.7 8.3-.6 12-1.9 3.1-1.9 4-.8 16.3l1.1 13 4.1 1.1c8.3 2.2 17.9 4 29.7 5.3 10.9 1.3 12.5 1.7 14.6 4 1.3 1.4 3.2 2.6 4.3 2.6 1 0 2.1.4 2.5 1 .3.5 2.1-.2 4.1-1.5 4.3-2.9 11.4-4.5 20.4-4.5 7.6 0 11.7 1.2 12.7 3.6.8 2.2-1.5 3.5-5.2 3-3.2-.4-9.5 1.7-9.5 3.2 0 1 4.4 3.2 6.5 3.2.8 0 1.5-.5 1.5-1 0-1.6 2.7-1.2 3.4.5.9 2.4 5.3 1.8 7.1-.9 2.1-3.2 7.8-3.1 8.3.1.2 1.6-1.2 3.4-6 7.2-3.5 2.8-6.8 5-7.5 5.1-.6 0-5.9 2.3-11.6 5.1-11.6 5.6-11.4 5.6-22.2.9-6.4-2.9-11.4-3.4-13.6-1.4-1.6 1.4-2.5 1.5-6.5.5-2.6-.7-5.9-1.8-7.4-2.6-3.5-1.8-16.5-5.1-31.9-8.1-13.5-2.6-15.4-3.6-19.6-10.9-1.3-2.2-2.9-5.9-3.6-8.3-.7-2.3-1.3-4.1-1.5-3.9-.2.1-1.2 4.4-2.3 9.5-2.1 9.6-1.8 12.5 1.4 15.2s3.6 4.7 2.4 13.4c-1.1 8.1-1.1 8.6 1.6 15.7 1.5 4.1 5 12.3 7.8 18.4 7.5 16.6 18.9 49.4 22.1 63.8l.6 2.7h180V0H0zm117.9-68.8c.1 1.6-.3 2.8-.9 2.8-.5 0-1-.7-1-1.5s-.4-1.5-1-1.5c-1.5 0-1.2-4.8.3-5.3 1.4-.5 2.5 1.8 2.6 5.5"/><path d="M285.5 141.2c-.2 1.3-.1 3.9.4 5.8.8 3.3.9 3.1 1-2.3.1-5.9-.5-7.4-1.4-3.5m-174 70.8c-.4.6 1.2 1 4.2.9 3.6 0 4.3-.3 2.8-.9-2.8-1.2-6.3-1.2-7 0"/></svg>