<svg xmlns="http://www.w3.org/2000/svg" width="682.667" height="512" version="1.0" viewBox="0 0 512 384"><path d="M0 192v192h187l.5-2.3c.3-1.2 1.2-5.4 2.1-9.2 3-13.4 11.5-42.7 14.6-49.8 7.5-17.7 9.8-25.6 9.8-33.5 0-10.3-1.4-18.2-3.9-22.3l-2.1-3.4.4 5c.3 2.8.8 6.3 1.2 7.9 1.1 4.4-1.3 2.3-2.7-2.3-1.3-4.5-7-8.1-9.5-6-.8.6-2.3.9-3.4.6-1.5-.4-2.5.5-4.6 4.2-4 6.8-13.5 21.1-14.1 21.1-.3 0 0-.7.7-1.5s1-1.5.7-1.5 1.6-4.6 4.3-10.3c2.8-5.6 5-10.5 5-10.9s-1.3-.5-2.8-.2c-3.9.8-5.4-1.3-4.2-5.7.6-1.8 1-4.1 1-5 0-2.2-16.6-8.5-29.5-11.2-10.8-2.2-12.2-2.9-13.6-6.4-.5-1.3-2-2.8-3.4-3.3-1.7-.6-2.5-1.7-2.5-3.3 0-2.3-.3-2.4-9.5-3-10.4-.7-23.7-3.7-29.6-6.8-2.1-1-5.4-3.3-7.4-5-3.4-3-3.4-3.1-1.7-5.5 2.2-3 3.3-3 6.2.1 2.8 3 5 3.3 4.3.6-.4-1.8 0-2 3.3-1.8 9 .3 23.4-.4 23.4-1.2 0-.5-1.7-1.3-3.7-1.8-3.7-.8-5.6-3.1-7.9-9.8-.6-1.7-.8-1.6-1.3 1-.5 2.3-1.2 3.1-3.3 3.3-3.7.4-5.9-3.1-5.7-9.4 0-3.2-.8-7.1-2.6-11.4-1.4-3.6-2.9-8.6-3.2-11.2-.6-4.6-.5-4.7 3.2-6.5 5.6-2.7 6.3-4.3 4.2-10.2-.9-2.7-1.7-6.6-1.6-8.7l.1-3.9 1 3.5c1.2 4.3 2.7 6.2 4.4 5.6 1.4-.6 3.1 5.5 2 7.3-.4.5-.1 1.3.5 1.7.6.3 1.5 0 2-.7.6-1.1 1.1-1.1 2.1-.1 1.9 1.9 2.6 1.5 3.3-2.1.4-1.7 1.2-3.5 1.7-3.8.6-.4 1.3-5.4 1.7-11.2.3-5.8 1.1-11.1 1.8-11.8 1.9-1.9 4.7 3.7 5.2 10.7.1 1.4 5.1 3.7 5.1 2.4 0-1.7 2.5-1.1 3.7.9.7 1.1 2.2 2.1 3.5 2.3 3.5.5 6.7 9.5 6.8 18.9 0 5.7.4 8 1.6 9 1.4 1.2 4.9 7 6.6 11.2.9 2.1-4.1 8.2-7.5 9.1-1.3.3-4.1 2.6-6.2 5.2-2.2 2.6-5.8 5.4-8.2 6.5-2.4 1-4.3 2.5-4.3 3.3s2.8 2.8 6.2 4.5l6.2 3 2.2-2c1.3-1.2 2.8-1.8 3.5-1.4.6.5 3.7.9 6.8 1 4.5.1 6.8.9 11.6 3.8 9.1 5.5 17.5 9 18 7.5.2-.7 1.1-4.7 2-8.8 1.1-4.9 4.2-12.9 9.2-23 4.1-8.5 7.7-16.6 7.9-18 1.2-10.2 3.2-17.3 5-18.8 1.8-1.4 2.3-3.7 3.3-14.2 4-41.7 10.7-63.8 23.5-77.9l3.1-3.3-4.5.7c-11.4 1.9-15 0-15-7.7 0-7.1 9.2-28.3 15-34.6l2-2.2 5.3 2.1c2.8 1.2 6.9 2.3 9 2.4 4.3.3 11.3 4.6 21.6 13.4 6.4 5.6 7.5 6.1 13.8 7.1 5.8.9 7.5.8 10.8-.6 2.2-.9 6.3-2.3 9-3 5.5-1.5 18.3-1.8 20.3-.5 1.1.6.4 4.6-3.3 19.2l-4.6 18.5 2.6 5.7c4 9.2 3 20.7-2.8 29.2-1.8 2.6-4.2 6.6-5.4 8.9-2.3 4.2-2.6 4.1-2.3-.7.2-4-1.6-3.3-4.5 1.8-2.4 4-2.8 4.3-4.2 2.9-1.4-1.3-1.7-1.1-3.3 1.8-1.2 2.4-1.9 6.7-2.3 15.1-.5 11.3-.5 11.8 1.4 11.2 1.1-.4 3.3-.3 5 0 2.9.7 3.1 1 2.7 4.3s0 4.1 5.3 9c9.3 8.6 24.9 32.8 24.9 38.7 0 1.1-.9 3.5-2 5.3-1.9 3.1-1.9 3.9-.8 15.5.6 6.7 1.4 12.5 1.8 12.9.9 1.1 24.2 3.7 35.4 3.9 8.3.1 10.2.5 11.8 2.1 1.1 1.1 3.5 2.2 5.4 2.5s3.4 1 3.4 1.5 2-.5 4.4-2.2c3.3-2.2 6.1-3.2 10.5-3.7 6.6-.6 7.3-1.5 4.5-5.9-.9-1.3-1.4-2.8-1-3.1 1.2-1.2 7.6 3 8.2 5.4.8 2.9 2 3 2.7.2.3-1.1-.3-3.5-1.5-5.4-2.3-4-1.6-6.5 1.2-4 .9.8 2.4 1.3 3.2 1 1-.4 2.6.6 4.3 2.7 2.5 3 2.7 3.7 2.1 9.3-.5 5.6-.9 6.3-5.8 11.1-6.2 6-14.9 9.3-26.6 10.1-7.1.6-7.3.6-7.9 3.5-.5 2.6-.9 2.8-3.5 2.3-2.2-.5-3.5-.2-5.1 1.4-2.1 1.9-2.5 1.9-8.7.5-18.5-4.1-25.6-5.4-37.5-6.5l-13-1.2-4.8-4.9c-2.7-2.7-5.1-4.7-5.5-4.4-.5.5 2.5 9.5 7.8 23.1l1.9 5-2.2-2.7c-1.2-1.5-4.4-6.9-7.1-12s-5.3-9.9-5.9-10.6c-1.3-1.7-5.2-1.5-6.7.3s.3 7.8 3.3 10.8c1.8 1.8 1.9 2.8 1.3 11.8-.6 9.8-.6 10 3.3 20.1 2.1 5.7 5.9 15 8.4 20.8s5.5 13 6.6 16c7.1 19.6 10.1 28.5 12.2 36.2l2.4 8.8H512V0H0zm107.3-56.8c2.3 5.5 4 15.2 3 17.1-.3.4-1.6-.3-3-1.7-2.1-2.1-2.5-3.2-2-6 .3-1.8.1-3.8-.5-4.4-1-1-.3-8.2.7-8.2.3 0 1.1 1.5 1.8 3.2"/><path d="M281.1 146.1c0 1.5.6 3.2 1.4 3.9 1.3 1 1.5.9 1.5-.9 0-1.2-.4-2-.9-1.6-.5.3-1.2-.5-1.4-1.7-.4-2.1-.4-2-.6.3m-178.8 18.6c-1.7.6-1.6 3.5.1 5.9 1.4 1.8 1.5 1.8 2.1-.8.8-3-.4-5.7-2.2-5.1m82.4 62.6c-1.1 2.9-.9 4.3.4 3 .6-.6.9-1.9.7-2.9-.3-1.8-.4-1.8-1.1-.1m113.4 5.3c0 1.1.3 1.4.6.6.3-.7.2-1.6-.1-1.9-.3-.4-.6.2-.5 1.3m1.4 6.4c.4 1.9 1.1 3.9 1.6 4.4.4.5.3-.8-.2-3-1.4-5-2.4-6-1.4-1.4"/></svg>