<svg xmlns="http://www.w3.org/2000/svg" width="682.667" height="512" version="1.0" viewBox="0 0 512 384"><path d="M300.9 2.7c-3.9 10.2-3.1 22.1 2.2 33.3 1.6 3.4 2.7 6.5 2.4 7-.3.4-1.7 1.1-3.2 1.5-14.7 3.6-36.1 20.4-45.5 35.6-4.4 7.1-8.8 18.7-8.8 23.3 0 3.7-3.8 13.7-6.6 17.3-3.4 4.5-2.5 5.2 1.9 1.3l3.5-3-.4 4.2c-.3 3.2-.2 3.8.5 2.3.7-1.4 1 .7 1.1 7.5.1 8.6.2 9.3 1.4 7l1.4-2.4 1.1 4.2c1.2 4.3 3.3 5.1 2.5.9-.2-1.3.1-1 .7.8 1.6 4.2 4.1 6.9 5 5.4.4-.8.9-.4 1.4 1 .3 1.2 1.2 2 1.9 1.9.7-.2 2.7 1.4 4.5 3.5 1.9 2.1 3.6 3.6 3.8 3.3.3-.3-.3-2.8-1.2-5.6-2.4-7.3-1.3-7.1 1.8.3 2.1 5 2.6 5.6 2.6 3.4.1-4.1 2.1-2.3 2.1 1.9 0 4-2.1 8.7-5.7 12.6-3.4 3.5-2.7 5.7 2.7 8.4 3.9 1.9 4.7 2.9 5.6 6.6.8 3.4 1.6 4.5 4 5.3 1.9.7 2.8 1.6 2.6 2.6-.2.9.8 2.5 2.1 3.6 1.3 1 3.6 3.8 5.1 6.2 2.5 3.9 2.8 5.1 2.4 11-.3 3.6-.8 7.4-1.3 8.4-.4 1-.4 1.7.1 1.6 4.2-.7 5.7 1.9 3.4 6.1-.8 1.4-.6 2.1.6 2.8 1.2.6 2.1 3.6 3 9.3.7 4.6 1.6 10 1.9 11.9.5 2.6-.3 6.4-3.4 15.4-2.2 6.5-4.4 12.3-5 12.9s-3.2-.2-7.2-2.2c-6.7-3.3-9.4-3.7-13.3-1.9-3.4 1.5-3.9 3.6-3.2 13.2.6 7.2.4 8.5-1.4 11.5-1.2 1.8-2.5 3-2.9 2.5-.5-.5-2.6-4.2-4.7-8.2-7.2-13.4-12.5-20.5-17.3-22.9-2.4-1.2-5.3-3.7-6.3-5.5-1.1-1.8-3-4.3-4.1-5.6-1.9-2-2.1-3.6-2.2-14-.2-16.9-4.1-26.7-12.2-30.7-3.5-1.7-16.3-2-22.5-.6-3.8.9-3.8.9-4-2.3 0-1.7-.1-3.8-.2-4.6s-1-1.6-2-1.8c-1.7-.4-1.8.1-1.4 4.7.6 5.9.7 5.7-8 8.8-7.1 2.5-15.8 7.8-16.7 10.2-.4.9-1.7 5.3-3 9.9l-2.2 8.3 1.9 8.2c1 4.5 2.3 10.2 2.9 12.7 1 4.5 6.4 12.4 13 19 2.6 2.7 5.7 4.3 12 6.3 4.6 1.6 8.9 3 9.6 3.2.8.3.2 2.7-2.1 7.7-6.7 14.4-9 24-10.6 43.2-.5 6.9-1.9 15.4-2.9 18.9-1.1 3.4-2.3 7.7-2.6 9.5l-.7 3.2h108.9l1.2-5.3c.7-2.8 1.5-8 1.8-11.5.3-3.4.9-6.2 1.3-6.2.3 0 1.7 5.2 3 11.5l2.3 11.5h138.3l-.4-10.3-.4-10.2 6.3-1.4c9.6-2.1 21-8.1 15.4-8.1-2.3 0-1.8-1.3 2-5 1.9-1.8 3.2-3.7 2.9-4.2-.3-.4-3-.8-6-.8-4.6 0-7.2.9-17.5 6-6.6 3.3-12.4 5.8-12.8 5.6-.5-.3-1.1-2.9-1.5-5.7-.4-2.9-1.4-6.5-2.2-8.1s-1.2-3.7-.9-4.7c.7-2.2-2.2-15.8-3.5-16.6-.5-.3-.6-1.3-.3-2.1.6-1.5-2.2-14.6-5.9-27.9-3-10.7-3.2-13.1-1.4-13.8 1.7-.7 2.9 1.5 5.6 9.8.7 2.2 2.2 5.8 3.4 8l2 4 .6-4.9c.4-2.8 1.2-5.2 1.8-5.4 1.8-.6 1.4-3.6-.7-6.3-1.4-1.9-2-5.4-2.9-16.6-1.4-19.6-.9-20.8 4.3-8.9 2.3 5.3 4.4 9.9 4.7 10.2 1 .9-.1-12-1.7-21.1-1-5-1.9-11.3-2.1-14-.4-4.2.2-3.1 3.4 7 2.1 6.6 5.9 16 8.5 21 5.9 11.7 9.6 16.6 6.7 9-1.3-3.5-5-20.3-5-22.9 0-1.1 2.8 2.3 6.7 8.2 3.6 5.6 6.8 10 7 9.8s-.3-5.3-1.1-11.2c-.9-6.2-2-26.2-2.6-45.9-.5-19.3-1.2-37.9-1.6-41.5-2.6-30.1-9-57.1-18.8-80.4-2.4-5.6-4.6-12.3-5-15.1-1.5-11.7-15.6-33.4-24.9-38.2-9.6-4.9-18.3-5.5-30.4-1.8-1.8.6-3.8-1-12-9.5-5.4-5.6-12.7-12.4-16.3-15.1L334.5 0H302zm25.9 212.5 2.1 4.8-2.9 2c-3.6 2.6-4.3 2.5-3.4-.3.4-1.2.7-4.7.6-7.7-.3-6.1.5-5.9 3.6 1.2"/></svg>