<svg xmlns="http://www.w3.org/2000/svg" width="682.667" height="512" version="1.0" viewBox="0 0 512 384"><path d="M0 192v192h186.7l1.2-6.7c1.8-10.2 12-45.8 15.4-53.8 6.6-15.8 10.6-28.3 9.9-30.9-.9-3.5-2.8-2.8-2.4.9.2 2 0 2.6-.6 1.7-1.2-1.8-1.9 0-2.8 6.8-1 7.8-2.6 4.8-2-3.9.5-7.2.4-7.4-1-4.6l-1.4 3 .6-4.2c.4-3 .1-4.9-1-6.5-1.6-2.2-1.6-2.2-1.6 1.4 0 2-.5 4-1 4.3-.6.3-1 .1-1-.4 0-.6-.6-1.1-1.4-1.1s-2.5-3-4.2-7.3c-1.5-3.9-3.5-8.8-4.6-10.7-1-1.9-1.8-5.3-1.8-7.6v-4.2l-11.8-5c-6.5-2.7-15.8-5.9-20.7-7.1-16.2-3.9-16.6-4-17.6-7-.6-1.6-2.1-3.1-3.9-3.8-2.2-.8-2.7-1.5-2.3-3.1.6-2.4-.8-2.7-13.7-3.6-13.5-1-31-7.6-34.6-13.1-1.1-1.7-1-2.3.7-4.3l1.9-2.4 3.9 3.1c4.7 3.7 5 3.8 4.3.6-.5-2.6 1.4-3.5 3.4-1.5.8.8 1.9.8 3.8 0 1.5-.5 4.5-1 6.7-1 3.3 0 3.9-.3 3.9-2 0-2.1-1.5-3.9-8.3-9.8-4.7-4-7.5-10-8.7-18.9-.5-3.7-1.3-9.6-1.9-13-1.1-7.3-.4-13.8 1.7-15.5 1.2-1 2-.6 4.7 2.6 2.9 3.4 3.3 3.6 4.7 2.2.9-.8 1.9-4.3 2.3-7.6.7-6.2 2.7-9.5 5.1-8.6.8.3 3.3-1.7 5.8-4.6l4.5-5.2 2.4 2.2c2.9 2.8 5.7 2.9 5.7.2 0-1.5.7-2 2.9-2 2.7 0 2.9.4 4.5 7 1.9 7.8 5.1 15.7 7.2 17.8.7.7 1.8 3.1 2.5 5.4.7 2.9 1.3 3.7 1.9 2.8.5-.8.7.4.4 3.1-.5 3.8-.4 4.1.7 2.4 2.3-3.7 3.6-4.6 4.6-3.2 2.1 2.6 2.2 4.9.3 9.2-1.1 2.5-3 5-4.2 5.6-2 .9-4.9 5.7-10.2 16.9-.7 1.4-1.9 2.5-2.8 2.5-2.5 0-6.5 2.5-7.6 4.9-2.5 4.9-2 6.6 3.1 9.3l4.7 2.6 2.5-2.3c2.3-2.2 2.5-2.2 5.1-.5 1.9 1.2 2.9 1.4 3.7.6 1.9-1.9 4.5-1.2 13.5 3.9 4.8 2.7 9.3 5 10 5 .6 0 1.4-1.2 1.7-2.8 1.5-6.8 6.6-17.5 13.2-27.7 9.3-14.1 14.3-22.8 15.9-27.5.7-2.1 3-15.2 5-29.1 2-14 4.9-30.5 6.4-36.7 3.4-13.2 9.1-25.8 14.8-32.3l4-4.5h-7.5c-8.4.1-10.3-1.2-10.3-6.9 0-8.3 14.4-37.5 18.4-37.5.6 0 3.5 1.1 6.5 2.5 3.7 1.8 5.7 2.2 6.6 1.5 1.7-1.4 11.8 4.9 20.6 13 4 3.6 7.7 6.8 8.4 7.2s4.3.8 8.1 1c5.2.1 8.3-.4 12.9-2.2 4.7-1.9 7.9-2.4 15.2-2.5 5 0 9.4.3 9.7.6.6.6-2 12.4-6.1 27.1l-2.6 9.7 2.6 5.9c4.6 10.3 3.1 22.6-3.9 31.8-2 2.6-4.2 6.1-5 7.8l-1.3 3.1-.1-3.6c0-5.5-1.1-5.4-4.7.3-1.8 2.9-3.3 4.4-3.3 3.5 0-2.9-1.9-1.9-3.9 2.1-1.4 2.8-2.1 7-2.7 15.7-.6 11.1-.6 11.9.9 10.6 1.1-.9 2.8-1.1 5.3-.6 3.5.6 3.6.8 3.2 4.3-.4 3.3 0 4.1 5.7 9.7 6 5.9 16.1 20 21 29.2 2.9 5.3 3.2 11.3.9 14.8-1.4 2.2-1.5 4-.5 15.1.5 7 1.2 12.8 1.4 13 1 1.1 20.5 3.6 32.6 4.3 12 .7 13.6 1 15.2 3 1.1 1.3 2.9 2.1 4.7 2.1 1.7 0 3.2.6 3.5 1.2.2.9 1.7.4 4.6-1.6 2.7-1.9 4-3.5 3.6-4.4-.4-1.1.3-1.3 3.7-.9 2.4.3 5.4.7 6.8.9 3.2.4 3.8-2.3 1.4-6.8-1-1.8-1.5-3.6-1.1-4 1.1-1.2 6 2.9 7.8 6.4l1.6 3.2.7-3.1c.4-2 .1-3.8-.9-5.2-1.6-2.3-2-5.7-.7-5.7.4 0 1.5.7 2.5 1.5 1.1.7 2.5 1.1 3.3.8 3.7-1.4 7 11.5 4.5 17.9-1.1 3-7.4 9.4-10.9 11.2-3.3 1.7-14.8 4.3-22.3 5.1-5.3.6-5.7.8-6.6 3.8-.8 2.9-1.2 3.2-4.5 2.9-2.5-.2-3.7.2-4.2 1.3-.8 2.2-4.9 1.9-14.1-1.1-4.4-1.4-16.4-3.8-26.7-5.3-17.7-2.6-19-2.9-21.9-5.7-4-3.8-8.3-13-10.6-22.6-1-4.3-2-7.8-2.3-7.8s-1.9 6.5-3.7 14.4c-3.4 15.9-3.2 18.9 1.7 24.1 2.2 2.4 2.2 2.7 1.2 11.7-.9 8.8-.9 9.6 1.5 16.3 1.4 3.8 4.8 11.9 7.5 17.9 6.7 14.9 17.7 45.6 22.3 61.9l1.6 5.7H512V0H0zm205.7 121.2c-.3.8-.6.5-.6-.6-.1-1.1.2-1.7.5-1.3.3.3.4 1.2.1 1.9"/><path d="M282.4 148.1c-.3.6-.1 1.6.5 2.2.8.8 1.1.5 1.1-1.1 0-2.4-.5-2.8-1.6-1.1m-166.1 63.6c.9.2 2.5.2 3.5 0 .9-.3.1-.5-1.8-.5s-2.7.2-1.7.5m64.9 9.1c-2.4 3.7-4 5.6-3.6 4.2.6-2.2.5-2.3-1-1.1-.9.7-1.6 1.7-1.6 2.1 0 .6 5.2 3 6.6 3 .4 0 4.5-14.2 4.2-14.5-.2-.2-2.3 2.6-4.6 6.3m5.1 1.3c-1.8 4.6-2.7 8.1-2.1 8.5.5.3 1 .4 1.2.3.5-.9 4.6-16.2 4.4-16.4s-1.7 3.2-3.5 7.6"/></svg>