<svg xmlns="http://www.w3.org/2000/svg" width="682.667" height="512" version="1.0" viewBox="0 0 512 384"><path d="M0 192v192h186.7l.7-4.8c1.1-8.4 12.3-47.4 16.6-57.7 3.4-8.1 8-20.9 8-22.3 0-.2-.5 0-1.1.4-.8.5-1-.2-.7-2.3.2-1.6-.1-3.5-.8-4.1s-1.4-1.7-1.6-2.4c-.7-2-3.8.9-3.9 3.6-.1 1.5-.4 1.1-1-1.2-.5-1.7-1.3-3.2-1.8-3.2s-1.7-1.9-2.7-4.3l-1.8-4.2-1 3.8c-.6 2.5-1.4 3.6-2.3 3.3-.7-.3-1.3-.1-1.3.4 0 .6-.4 1-.8 1-1.2 0-5.3-16.9-6-24.2-.2-3.2-1-6.2-1.7-6.8-2.5-2.1-20.3-8.8-29.1-10.9-17.1-4.3-16.6-4-17.7-7.1-.7-1.8-2.2-3.3-4-4-2.2-.7-2.8-1.4-2.4-3 .6-2.2-.4-2.5-13.3-3.5-13-1.1-27.3-6.1-33.7-11.8-2.8-2.5-2.8-3.2-.3-5.7l2.1-2.1 3.7 3.1q6.45 5.25 4.2.9c-1.5-2.7-.6-3.5 2.2-2.2 1.3.6 3.2.7 4.3.2 1.1-.4 3.9-.8 6.3-.8 4.1-.1 4.2-.2 3.5-2.9-.3-1.5-2.5-4.6-4.9-6.9-2.3-2.3-4.5-5.4-4.8-6.9-.4-1.5-1.6-3.8-2.6-5.1-1.9-2.5-3.1-7.2-5-20-1.4-10-1.3-14.9.5-16.7.9-.8 1.5-1.8 1.5-2.1-.1-.3 0-1.1.3-1.8.5-1.5 4.7 1.9 4.7 3.9 0 1.5.6 1.9 4.3 2.8l2.8.7-.7-8.5c-.8-10.6-.2-13.6 3-13.6 1.4 0 3.8-1.1 5.4-2.5 3.8-3.2 6.3-3.2 9.1.1 1.8 2 2.8 2.4 4.9 1.9 3.5-.8 4.4-1.8 4.5-4.9.3-4.4 1.7-2.9 1.7 1.7 0 3.1 1.2 6.6 4 12.2 2.2 4.3 4.4 8.1 4.9 8.4 3.4 2.3 6 22.7 3.6 29-.7 2-2.3 6.3-3.5 9.6-3.1 8.4-3.8 9.5-6.3 9.5-3.2.1-6.5 3.3-8.2 8.1-.8 2.3-1.5 4.3-1.5 4.4 0 .2 2.1 1.5 4.6 2.9l4.6 2.6 2.5-2c2.2-1.7 2.8-1.8 5.1-.6 1.8 1 3.2 1 5.2.3 2.9-1.1 2.6-1.2 16.2 6.2l7.7 4.2 1.1-4.3c2.1-8.3 6.3-17 14.5-29.6 15.4-23.9 14.7-21.8 20-60.7 4.7-34.8 12.2-56.5 22.4-65.2l2.6-2.2-6.7.6c-6.2.5-6.8.4-9.2-2-1.4-1.4-2.6-3.7-2.6-5.2 0-6.4 9.4-27.2 15.6-34.3l3.1-3.6 6.2 2.6c3.4 1.5 6.3 2.2 6.7 1.7 1.1-1.8 12.7 5.5 20.5 12.9 7.6 7.2 8 7.4 14.7 8.4 5.7.8 7.4.7 9.9-.5 6.9-3.6 22.8-6 27.7-4.1 2.3.9 2.1 2.9-2.6 20.9l-4.2 16.3 2.7 6.1c1.7 3.9 2.7 8 2.7 11.1 0 6.6-3.1 16.1-6.9 20.8-1.7 2.2-4 5.9-5.1 8.3l-2 4.4.5-4.7c.8-6.4-.8-6.8-4.2-.8-1.5 2.7-3.2 5-3.6 5-.5 0-.6-.4-.2-.9.3-.5.1-1.2-.4-1.6-.6-.3-1.9 1.2-3 3.3-1.4 2.8-2.1 7-2.7 15.6l-.7 11.8 2.1-1.3c1.5-1 2.9-1.1 4.9-.3 2.3.8 2.8 1.5 2.8 4.5 0 2.9 1 4.5 6.3 9.9 7.1 7.3 17 21.3 20.7 29.2 2.9 6.2 3.2 10.4.9 13.6-1.4 2-1.5 4.1-.9 13.4 1.1 17 .4 15.9 12.1 18 5.4 1 15.7 2.2 22.8 2.7 12 .9 13.1 1.2 15.3 3.5 1.3 1.4 3.5 2.6 4.8 2.6s2.5.5 2.7 1c.5 1.7 10.7-3.2 10.8-5.2 0-1.6.4-1.6 4.8-.3 8.2 2.5 8.6 2.4 7.8-4.1l-.7-5.7 2.3 1.5c1.3.8 3.2 3.2 4.2 5.3l2 3.9.9-2.7c.6-1.8.5-3.9-.2-5.9-1.6-4.6-1.4-5.2 1.4-3.4 1.3.9 3.1 1.6 3.9 1.6 2.4 0 4.6 4.1 4.6 8.8 0 13.9-12.7 21.7-37 22.5-6.3.2-6.5.3-6.8 3s-.5 2.8-4.3 2.2c-2.1-.4-3.9-.3-3.9.2 0 .4-.9 1.4-1.9 2-1.6 1-3.6.7-11.3-1.8-10.4-3.4-17.9-5-34.7-7.5-10.1-1.5-11.7-2-14.9-4.8-3.9-3.4-8-11.7-10.6-21.6-.9-3.6-2-7.2-2.3-8s-2 5.2-3.8 13.3c-3.7 16.3-3.6 18.7 1.3 23.9 2.5 2.7 2.5 2.8 1.4 12-1.1 8.9-1 9.6 1.4 16.2 1.3 3.7 4.9 12.3 7.8 19 6.5 14.7 15.9 40.2 20.2 55.1l3.2 11 91.1.3 91.1.2V0H0zm155-27c.6 1.2.8 3 .5 4.1-.7 2-5.2 5.6-6 4.7-.7-.6 2.8-10.8 3.7-10.8.4 0 1.2.9 1.8 2"/><path d="M282.7 146.7c-.3.5-.1 1.7.4 2.8.7 1.7.8 1.7.8-.8.1-2.7-.4-3.4-1.2-2m-165.4 65c.9.2 2.3.2 3 0 .6-.3-.1-.5-1.8-.5-1.6 0-2.2.2-1.2.5m65.1 5.9c-2.2 3.2-4 5.1-4.4 4.4-.4-.6-1.1 0-1.9 1.6-.6 1.5-1 2.8-.9 2.9.7.6 10.1 4.5 10.3 4.3.2-.3 1.8-6.4 4.1-15.8.3-1.4-1.2 1.1-3.4 5.5-4.7 9.2-5.2 8.8-1.8-1.3 1.4-4 2.3-7.2 2.1-7.2s-2.1 2.5-4.1 5.6"/></svg>