<svg xmlns="http://www.w3.org/2000/svg" width="682.667" height="512" version="1.0" viewBox="0 0 512 384"><path d="M0 192v192h185.7l1.3-6.3c2.7-13.1 13.9-50.6 17.8-59.2 2.1-5 5-12.3 6.3-16.3l2.3-7.2-2.3-4.8c-2.1-4.1-2.5-4.4-3.2-2.7-.4 1.1-.8 3.6-.9 5.5s-.4 2.7-.7 1.7c-.6-2.4-2.1-2.1-2.5.5-.3 2-.6 1.8-2.4-1.7-2.7-5.1-5.2-14.7-6.7-25.5l-1.2-8.5-3 .3c-2 .2-8-1.7-16.7-5.2-7.5-3.1-17.6-6.5-22.5-7.7-4.8-1.2-10.5-2.6-12.6-3.1-2.9-.7-4.1-1.6-4.8-3.8-.7-1.8-2.1-3.2-4.1-3.9-2.5-.9-2.9-1.5-2.4-3.4.6-2.4.5-2.4-10.2-3-15.5-.8-29.9-5.4-36.4-11.5-3.3-3.1-3.4-3.6-.7-6.3l2-2 3.5 3c4 3.6 4.8 3.8 3.9 1.2-.7-2.3 1.1-3.7 2.8-2.2.8.6 1.8.6 2.7.1.8-.6 7.1-1 13.9-1 11.9 0 12.5.1 18.2 3.1 5.8 3.1 6 3.1 8 1.3 1.6-1.4 2.5-1.6 4.7-.8 1.7.6 3.7.6 5.2.1 2.2-.8 4.4 0 13.5 4.6 12.8 6.5 21 9.8 21.9 9 .3-.4.6-2.1.6-3.9 0-5.3 3.7-15.6 11.1-31.2 3.9-8.1 8-16.9 9-19.6 1.8-4.5 3.7-16.7 5.4-35.1 2-22.4 6.2-42 11.7-54.7 3-7 9.5-17.8 10.8-17.8.3 0 1.5-.6 2.6-1.4 1.7-1.3 1.1-1.4-5.6-.9-6.8.5-7.8.3-10.4-1.8s-2.8-2.6-2.2-7.3c.3-2.8 2.4-8.8 4.6-13.5 4.3-8.9 12.6-22.1 14-22.1.4 0 3.3 1.1 6.5 2.6 3.2 1.4 6.4 2.3 7.2 2 2.2-.9 12 5.9 20.4 14.1 5.1 4.9 8.1 7.2 9.1 6.8.9-.4 3.4-.1 5.7.5 3.7 1 5.1.7 13-2 8.6-2.9 19.3-4 23.5-2.4 2.3.9 2 3.5-2.4 21.2l-4 16 2.5 5.1c4.8 9.6 4.1 20.7-2.2 30.7-1.5 2.5-4 6.6-5.5 9.2l-2.7 4.6-.3-4.4-.3-4.5-3 4.7c-3.1 4.9-4.5 5.9-4.5 3.3s-1.6-1.6-3.5 2.3c-1.4 2.8-2 6.5-2.2 15.2-.3 7-.1 11 .5 10.2.7-1 1.8-1.1 4.3-.4 3.1.8 3.4 1.2 3.3 4.4-.1 3.1.8 4.5 6.6 10.6 3.7 3.8 10.2 12.1 14.5 18.5 6.5 9.7 7.9 12.4 8.3 16.6.3 3.5 0 5.8-1 7.4-1.4 2-1.4 3.7.1 15.4.9 7.2 1.9 13.4 2.2 13.7 1.1 1.2 25.6 5.6 35.7 6.4 9.4.8 10.6 1.2 12.8 3.6 1.4 1.5 3.6 2.6 5 2.6 1.7 0 2.8.7 3.1 1.9.5 1.9.6 1.9 5.1-.1 4-1.8 5.8-2 14.7-1.4 5.5.3 12.6 1.4 15.8 2.4 5.8 1.7 5.9 1.7 5.4 4.9-.7 4-.1 4.1 4.3.8 3.8-2.8 6-3.2 6-1 0 .8.7 1.5 1.6 1.5 1 0 1.4.7 1.2 2.2-.9 6.6-37.7 12.5-51.4 8.3-2.7-.8-5-1.5-5.1-1.5s-.3 1-.5 2.2c-.3 2-.8 2.3-4.4 2-3-.2-4.3.1-4.7 1.2-.9 2.2-3.6 2-11-.8-8.3-3.1-20.3-6-35.1-8.6-6.6-1.1-13.1-2.7-14.4-3.6-3.5-2.3-7.8-9.8-10.8-18.8-1.5-4.5-2.9-8.5-3.2-9.1-.9-1.5-4.4 15.6-4.3 21 .1 2.7-.4 6.2-1 7.7-1 2.5-.8 3.1 2 5.7 1.7 1.6 3.1 3.3 3.1 3.8 0 .4-.5 4.7-1.1 9.5-1 8.7-1 8.8 2.4 18 2 5.1 5.2 12.9 7.3 17.3 4.5 9.6 18.3 48.1 20.9 58.3l1.9 7.2H512V0H0zm126.7-79c.4 2.2.5 4.5.3 15.2 0 5.4.4 10.7 1 11.8 1.1 2.1 4 2.8 4 1 0-.6.6-1 1.4-1 1.5 0 4.6-6.8 4.6-10.1 0-2.3 1.7-5.9 2.8-5.9 3.9 0 5.3 28.4 1.9 39-1 3-1.8 7.7-1.8 10.3.1 5-4.1 14.9-7.3 17.6-.8.7-1.8 2.7-2.1 4.4-1.3 6.5-2.5 8.2-8.3 11.3-8.2 4.5-13.7 4.4-18.6-.2-2-1.9-3.5-4.1-3.4-4.9.2-.8-2.2-4-5.2-7l-5.4-5.6.2-6.6c.1-3.6.6-7.1 1.2-7.7.6-.9.6-2.4 0-4.7-1.2-4 .1-15.1 3-24.9 1-3.6 2.2-7.8 2.5-9.3.6-3 3-4.6 4.7-2.9 1.1 1.1 5.8-2.3 5.8-4.2 0-1.1 3.9-9.5 5.3-11.3.7-1 1.2-.9 2.4.3 1.2 1.1 1.8 1.2 2.9.3.8-.6 1.4-1.6 1.4-2.2s1-2.5 2.2-4.3c2-2.9 2.4-3.1 3.2-1.6.6.9 1.1 2.4 1.3 3.2m283.7 109.5c1 2.2 2.7 5.1 3.7 6.4 1.5 1.8 1.6 2.7.8 3.7-1.4 1.7-3.6 1.8-4.1.2-.3-.7-2.4-1.1-5.9-.9-4.3.1-5.9-.2-7.2-1.7-1.6-1.8-1.6-2.2-.1-5.8 2-4.8 4.1-6.5 7.9-6.1 2.4.2 3.4 1 4.9 4.2M406 240c0 .5-.2 1-.4 1-.3 0-.8-.5-1.1-1-.3-.6-.1-1 .4-1 .6 0 1.1.4 1.1 1"/><path d="M135.2 151.4c-3 1.4-3.8 4.8-2.3 9.7 1.1 3.6 1.4 3.9 3.9 3.3 3.2-.8 4.2-2 4.2-5.2 0-2.1-2.5-9.3-3.2-9.1-.2.1-1.3.7-2.6 1.3M96 173.5c0 1.5.4 2.4 1 2 .6-.3 1-1.2 1-2s-.4-1.7-1-2c-.6-.4-1 .5-1 2m88.1 50.6c-2.4 3.9-2.7 5.9-.8 5.9 1.2 0 4-8 3.2-8.9-.2-.2-1.3 1.2-2.4 3m110.1-.1c0 1.9.2 2.7.5 1.7.2-.9.2-2.5 0-3.5-.3-.9-.5-.1-.5 1.8M413 262.6c0 .9.7 1.4 1.7 1.2 2.5-.5 2.8-2.8.4-2.8-1.2 0-2.1.6-2.1 1.6"/></svg>