<svg xmlns="http://www.w3.org/2000/svg" width="682.667" height="512" version="1.0" viewBox="0 0 512 384"><path d="M300.8 2.7c-2 4.9-1.5 19 1 26.4 1.3 3.6 2.9 7.5 3.7 8.5 2.3 3.1 1.8 3.9-3.7 5.9-12.3 4.3-23.5 11.6-33.6 21.7-11.8 12-17.6 22.6-20.3 37.1-1.4 7.8-4.5 15.4-7.7 18.9-3.4 3.7-1.2 3.6 3.1-.1l3.3-2.9-.4 3.5c-.3 2.7-.1 3.4.8 2.8 1-.6 1.1 1.2.5 8.5-.5 6.7-.4 9.1.4 8.6.6-.4 1.1-1.6 1.1-2.7 0-3.7 1.8-1.8 3.1 3.3l1.3 5.3.6-4 .6-4 .8 4c.8 4.1 3.6 7.2 4.7 5.3.4-.6 1-.1 1.4 1.1.3 1.1 1.1 2.1 1.6 2.1.6 0 .7-.6.4-1.3-.4-.6.4-.1 1.7 1.3s3.5 3.6 5 4.9l2.7 2.4-1.9-5.2c-2.9-7.6-2.3-8.5 1.1-1.6 2 4.1 2.8 5.1 2.5 3.2-.4-2.9.8-3.7 1.8-1.1 1.7 4.4-1.6 14.2-5.5 16.7-3.7 2.3-1.9 5.7 4.8 9.1 2.5 1.3 3.4 2.5 4 5.8.7 3.7 1.3 4.4 4.1 5.3 2.4.7 3.2 1.4 2.9 2.7-.3 1 .7 2.7 2.3 4.2 1.6 1.3 4 4.5 5.4 6.9 2.5 4.2 2.6 4.8 1.7 11.3-1 6.7-.2 10.2 2 8.8.5-.3.9.8.9 2.5 0 1.6-.4 3.3-1 3.6-1.5.9-1.2 2.5.5 2.5s1.8.4 4.1 15.2l1.6 10.6-3.7 11.4c-4.9 14.9-5 15-12 11.4-8.1-4.1-12.7-4.5-15.8-1.4-2.3 2.3-2.4 2.9-1.9 12.4.4 8.2.2 10.2-1.1 11.2-1.4 1.2-2.2 0-6.6-8.9-6.2-12.5-10.4-18.1-15.6-21-2.2-1.2-4.3-2.8-4.8-3.5-.4-.7-2.4-3.4-4.4-6.1l-3.6-4.7-.2-12c-.2-14.3-2-20.9-7.2-26.7-4.8-5.3-9.1-6.4-21.3-5.1-5.2.6-9.7.8-9.9.6-.2-.1-.6-2.4-.9-4.9-.7-6.3-2.6-5.2-3 1.6l-.3 5.5-6.7 2.2c-7.8 2.5-16.7 7.8-18 10.8-.6 1.2-2 5.8-3.2 10.3-2.1 7.7-2.1 8.4-.7 14.4.9 3.4 2.1 9.1 2.8 12.5 1 5.5 2.1 7.5 7.3 14 7.3 9.1 10.5 11.4 20 14.4 3.9 1.2 7.4 2.5 7.9 2.8.4.3-.5 3.1-1.9 6.1-7.2 14.9-9.8 24.9-11.4 43.9-.7 8.3-2.1 16.6-3.6 21.6-1.3 4.4-2.4 8.8-2.4 9.7 0 1.6 3.9 1.7 54.4 1.7h54.4l1.1-5c.6-2.8 1.1-6.5 1.2-8.3 0-1.8.3-5 .7-7.2.8-3.9.8-3.8 2.5 4.5.9 4.7 2.2 10.2 2.8 12.2l1 3.8h139.1l-.7-8.9c-.8-10.2-1-9.9 8.5-12.1 3-.7 8-2.6 11-4.3 5.3-3.1 5.4-3.2 2.7-3.7l-2.8-.5 4-4c2.3-2.1 4.1-4.3 4.1-4.7s-2.7-.8-6-.8c-5.4 0-7.3.7-18.1 6.1-6.7 3.3-12.4 5.7-12.7 5.4-.8-.8-4.3-14.4-4.4-17 0-3.8-3-16.5-3.9-17.1-.6-.3-.7-1.3-.4-2.2.5-1.7-6.7-33-8.1-35.4-.4-.6-.8-2.1-.9-3.2-.1-1.2-.5-3.2-.9-4.6-.6-2.3-.6-2.4.7-.7.8 1 2 1.6 2.7 1.5.7-.2 2.4 2.9 4 7.2 3.3 8.4 6 14 6.9 14 .3 0 .4-2.1.2-4.6-.2-3.6.1-4.9 1.3-5.6 2.1-1.2 2-2.3-.3-5.6-1.5-2.1-2.2-5.7-3-15.5-1.8-21.3-1.4-22.2 4.4-9.2 2.1 4.7 4.2 8.8 4.8 9.2s.8 0 .4-1.1c-1.5-3.8-2-6.9-1-6.3.5.3-.4-6.3-1.9-14.6-1.6-8.4-2.7-16.1-2.6-17.2.2-1.1 1.8 2.7 3.6 8.5 3.2 10.3 11.8 29.5 15.3 34.1 1.5 2 1.3.5-1.1-9.1-1.6-6.3-3-13.1-3-15 0-3.3.2-3.1 5 4.5 5.3 8.7 10.6 15.3 9.6 12.1-2.1-6.5-3.6-24.2-4.5-52.1-.6-17.6-1.3-36.7-1.6-42.5-1.6-28.6-8.6-59.9-19-84.5-2.3-5.5-4.5-12.3-4.8-15-.9-6.5-8.2-21.2-14.7-29.3-8-9.9-16.4-14.2-27.5-14.2-3.4 0-8.1.7-10.5 1.5-5.1 1.8-4.7 2.1-16.9-10.8-5.2-5.3-11.5-11.3-14.1-13.2L338.2 0H302zm26 219.3c-1.3 1.1-2.6 1.9-3 2-1 0-1-3.2-.1-9.6l.6-4.9 2.4 5.3 2.3 5.4z"/></svg>