<svg xmlns="http://www.w3.org/2000/svg" width="682.667" height="512" version="1.0" viewBox="0 0 512 384"><path d="M0 192v192h185.7l1.7-8.2c3.1-14.4 12.5-46 16.2-54.3 2-4.4 4.7-11.4 6.1-15.5l2.4-7.4-5.2-11.3c-3.1-6.8-6.1-15.2-7.4-21.1-1.2-5.3-2.6-9.6-3.1-9.5s-2.7.9-4.9 1.7c-4.6 1.6-5.9 1.3-23-5.8-6.1-2.5-14.8-5.5-19.5-6.6-15.5-3.7-15.7-3.8-16.8-7-.7-1.9-2-3.2-3.6-3.6-1.8-.4-2.6-1.3-2.6-2.9 0-2.1-.5-2.3-9.5-2.9-14.9-1.1-31.1-6.3-37.2-11.9-2.6-2.4-2.9-4.2-.9-6.3 1.9-1.9 2.3-1.8 5.8 1.1 3.7 3.2 4.6 3.2 4 0-.5-2.6.6-3.3 2.5-1.4.9.9 2 .9 4.4 0 1.7-.6 7.6-1.1 13.1-1.1 9.2 0 10.3.2 16.7 3.4 6.8 3.3 6.9 3.4 8.8 1.4 1.6-1.5 2.4-1.7 4.6-.9 1.4.6 4.1.7 6 .4 2.9-.4 4.9.2 10.9 3.5 11.4 6.3 23.8 11.4 24.3 9.9.2-.6 1.3-5.1 2.4-9.8 1.2-5.2 4.7-14.3 9-23.5 7-15 11.1-25.8 11.1-29.2 0-1 .4-2.2.9-2.8.5-.5 1.6-8.9 2.5-18.7 1.9-19.5 4.5-36 7.1-45.2 4.4-15.3 12.1-30 17.7-33.7 2.2-1.5 1.8-1.6-5.9-1.1s-8.2.5-10.7-2c-1.5-1.5-2.6-3.7-2.6-5.2 0-6.3 11.6-30 17.2-35.3l2.5-2.2 5.5 2.4c3.1 1.4 6.4 2.3 7.4 2 2.7-.7 12.6 5.9 21.4 14.2 6.2 5.8 7.7 6.8 10.4 6.6 1.7-.2 4.4.2 6 .8 2.3.8 4.3.5 11.7-2 9.9-3.4 20-4.7 24.1-3.1 3.3 1.2 3.4.2-2.4 23.3l-3.9 15.7 2.6 5c4.8 9.5 2.9 23.2-4.5 33.1-2.2 2.9-4 5.9-4 6.5s-.6 2-1.4 3.1c-1.3 1.7-1.4 1.5-.9-2.4.7-5.4-.9-5.5-3.9-.2-1.3 2.2-2.6 4-2.9 4-.4 0-1-1.2-1.4-2.8-.7-2.6-.8-2.5-3.1 2.7-2 4.5-2.4 7-2.4 15.5v10.1l3 .1c4.3.2 6 1.9 5 5.3-.7 2.4-.1 3.3 5.2 8.7 6.5 6.4 18.1 22 22.2 29.8 3 5.6 3.3 10.1 1 13.4-1.4 2-1.4 3.5-.4 13 2.1 18 1 16.4 13.1 18.9 5.7 1.2 16.4 2.8 23.7 3.6 11.5 1.2 13.5 1.7 14.8 3.5.8 1.2 3.1 2.4 5 2.8 2.7.5 3.5 1.1 3.1 2.4-.4 1.4.3 1.4 5.5-.8 5.8-2.3 6.4-2.3 16.4-1.2 13.2 1.4 16.6 2.5 16.2 5.4-.2 1.6-1.2 2.2-4.2 2.6-2.2.3-4.1 1.1-4.4 1.7-.8 2.5 2.7 2.4 7.6-.1 5.3-2.7 7.1-2.2 5.2 1.4-1.4 2.5.2 2.7 5.6.4 3.7-1.5 3.8-1.5 5.6.8.9 1.2 1.8 2.6 1.8 3.1 0 2.2-16.4 5.1-35 6.2-10.1.6-13.9.1-21.1-2.9-1.2-.5-1.8-.1-2.2 1.5-.5 1.8-1.1 2.1-3.9 1.6-2.4-.3-3.9.1-5.4 1.4-2.1 2-2.2 1.9-13-1.6-9.8-3.2-28.2-7.2-40.6-9-2.8-.3-6-1.6-7.6-3-3.4-2.8-8.2-11.7-10.7-19.5-1-3-2.1-5.8-2.4-6.3-.6-.6-4.1 12.8-4.1 15.6 0 .4.9.7 2 .7 1.6 0 2 .7 2 3 0 4.5-2.9 11-4.6 10.3-2.2-.8-1.7 1.5.6 2.7 3.6 1.9 4.1 4.3 2.9 14-1 8.7-1 9.3 1.7 16.3 1.4 3.9 5 12.6 7.9 19.2 5.6 12.7 18 47.4 21 58.7l1.8 6.8H512V0H0zm120.7-83.8c-.3.8-.6.5-.6-.6-.1-1.1.2-1.7.5-1.3.3.3.4 1.2.1 1.9m-6.6 13.5c0 2.8-.7 8.2-1.5 12-1.6 7.3-1.2 11.9 1 12.7 1.8.7 2.3-.2 3.5-7 2.1-11.1 4-12.8 9-7.6 3.2 3.3 4 5.5 4 11.8.1 6.7 1.5 10.9 4.3 12.2 1.8.8 2.5.6 3.5-1 2.2-3.6 3.4-.7 2.2 5.4-.7 3-.9 6.2-.5 7.1.3 1-1.1 6.1-3.4 12-2.3 5.6-4.4 12.6-4.8 15.5-.5 4-1.4 6.1-3.7 8.3-4 4-6.5 4.9-14.2 4.9h-6.3l-4.1-5.7c-2.3-3.2-4.1-6.6-4.1-7.5 0-1.7-4.5-6.6-9.4-10.3-2.4-1.8-2.7-2.8-3-8.8-.2-3.7 0-7 .4-7.2.5-.3 2.4.4 4.4 1.6 4.3 2.5 5.6 1.9 5.6-2.7s-1.6-7.4-4.1-7.4-3.9-3.6-3.9-10.3c0-6 1.8-10.2 4.3-10.2 1 0 2.1-.5 2.5-1.2.4-.6 1.9-1.4 3.4-1.8 2.6-.7 3.8-3.5 3.8-8.7 0-2 5.4-14.2 7.4-16.7 1.6-2.1 3.9 4.2 3.7 10.6m28.9 19.1c0 1.5-.4 3.2-.9 3.7-.5.6-1.1 2.6-1.4 4.5-.3 2.5-.4 1.8-.5-2.2-.1-3.1.1-6.3.4-7.2 1-2.6 2.4-1.8 2.4 1.2m-48.4 59c-.9.9-3.7-.8-3.1-1.8.5-.8 1.1-.7 2.1.1.8.6 1.2 1.4 1 1.7m316.9 19.4c2.2 2.4 5.5 5.1 7.3 6 4.1 2.2 4.1 4.7.2 9.1-1.6 1.9-3 3.9-3 4.3 0 1.3-6.3 5.3-10 6.4-4.6 1.3-6.2-.1-5.4-4.9.6-3.6.5-3.7-4.5-6.1-2.8-1.3-5.2-2.8-5.2-3.4-.3-2.5.3-4.2 2-5.7 1.1-.8 2-2.4 2.3-3.4.4-2.2 7.2-6.5 10.3-6.5 1 0 3.7 1.9 6 4.2"/><path d="M294.2 225c0 1.9.2 2.7.5 1.7.2-.9.2-2.5 0-3.5-.3-.9-.5-.1-.5 1.8m-111 1.5c-.6 1.4-.8 2.5-.3 2.5.8 0 2.3-4.1 1.7-4.7-.1-.2-.8.8-1.4 2.2M408 262c0 .5.6 1 1.4 1s1.8-.5 2.1-1c.3-.6-.3-1-1.4-1-1.2 0-2.1.4-2.1 1"/></svg>