<svg xmlns="http://www.w3.org/2000/svg" width="682.667" height="512" version="1.0" viewBox="0 0 512 384"><path d="M0 192v192h185.6l1.3-6.3c2.4-11.9 13.2-48.2 16.7-56.2 4.1-9.2 9.4-24.2 9.4-26.6 0-.9-2-5.2-4.5-9.5-2.6-4.6-5.5-11.9-7-17.4-3.3-12-3.7-13-4.1-13-.2 0-1.8.9-3.6 2-3.9 2.3-9.8 2.6-13.7.6-7.5-3.9-24.8-10.2-35.1-12.7-11-2.7-14-4.3-14-7.5 0-.7-1.4-1.7-3.1-2.3-2.6-.9-3-1.5-2.5-3.4.6-2.4.5-2.4-10.2-3-16-.8-31.2-5.8-37.1-12.1l-2.5-2.6 2.2-2c2.7-2.5 2.8-2.5 6.4.5s5.3 3.3 3.8.6c-1.2-2.3.4-3.9 2.3-2.3.7.5 2.1.6 3.2.1 1.1-.4 7.2-.8 13.6-.8 11-.1 11.9 0 17.8 3s6.3 3 8.1 1.4c1.4-1.3 2.6-1.5 4.7-.9 1.5.4 4.3.7 6.1.5 2.4-.2 6.8 1.5 16.5 6.3 7.3 3.6 14.4 6.8 15.8 7.2 2.6.5 2.7.4 4.4-7.3.9-4.3 4.2-13.4 7.2-20.3 10.1-22.6 12-27.5 12.8-32 .4-2.5 1.3-5.4 2-6.5s1.8-8.3 2.5-16c3.4-39.4 11.2-66.8 22.4-78l4.3-4.3-8.4.6c-7.8.4-8.5.3-10.8-1.8-1.4-1.3-2.5-3.3-2.5-4.5 0-6.1 10-27.9 16.5-36.1l2.2-2.8 6.2 2.8c3.4 1.5 6.7 2.5 7.4 2.3 2.9-1 13.7 6 22.7 14.7 5 4.8 6 5.4 11.5 6.1 8.8 1.1 9.3 1 17.2-1.9 8-2.9 17.2-4.2 22.8-3.2l3.7.7-.7 4.2c-1 5.8-6.3 27.5-7.7 31.4-1 2.8-.9 3.8 1.1 7.4 5.3 9.3 3.5 22.9-4.4 34.5-2.5 3.6-4.5 7.2-4.5 8s-.5 1.4-1 1.4c-.6 0-.8-1.6-.4-4.2.9-5.1-.5-4.5-4.3 1.9l-2.7 4.7-.8-3.2c-.5-1.8-1.1-3.2-1.3-3.2-1.6 0-3.5 8.7-4.1 19-.6 10.4-.5 12 .8 11.5.8-.3 2.7-.1 4.2.5 2.3.8 2.7 1.5 2.4 4.2-.3 2.8.5 4.2 5.7 9.6 7.4 7.9 18.9 23.9 22.2 31 2.7 5.6 2.6 10-.1 13.1-1.4 1.6-1.2 3.7 2.2 24.1l.7 4.5 11 2.2c6.1 1.2 15.7 2.7 21.5 3.3 13.9 1.3 15 1.6 16.6 3.9.8 1.1 2.8 2.2 4.4 2.6 1.7.4 3 1.3 3 2.2 0 .8.6 1.2 1.2 1 8.8-3.7 11.7-4 22.1-2.9 12.3 1.3 15.9 2.7 15.5 5.6-.3 1.9-1 2.1-7 2.1-7 0-8.9.8-7 2.7.9.9 1.6.7 3-.5 2.4-2.2 3.2-2.1 3.2.2 0 2.9 2 3.1 7.2.5 4.9-2.5 7.2-1.8 4.6 1.3-1.2 1.5-.9 1.6 2.2 1 1.9-.3 4.4-.9 5.6-1.2 1.5-.5 2.5 0 3.8 2 1.1 1.6 1.4 3.1.9 3.6-1.6 1.6-22.5 4-36.3 4.2-11.1.2-14.1-.1-16.9-1.6-4.2-2.1-3.8-2.1-4.4.4-.5 1.8-1.1 2.1-3.7 1.5-2.3-.4-3.9-.1-5.7 1.3-2.2 1.8-2.8 1.9-6.6.6-18.5-6-29.7-8.6-46.9-11-2.8-.4-6-1.6-7.6-3-3.5-2.9-8.2-11.7-11.2-21l-2.3-7-1.8 8c-1 4.4-1.8 8.3-1.8 8.7-.1.3.8.4 1.9.1 1.8-.5 2 0 2 3.4 0 4.9-1.8 10.3-3.4 10.3-.7 0-1.8-.6-2.5-1.3-1.1-1-1.2-.7-.6 1.3.4 1.4 2 3.7 3.6 5.2 3.3 3.1 3.2 2.6 1.9 13.6-1.1 8.2-1 8.5 2.4 17.5 1.9 5.1 5.5 13.7 7.9 19.3 4.9 10.8 17.2 45.5 20.2 56.6l1.8 6.8H512V0H0zm111.9-78.2c0 4-.6 9.2-1.3 11.5-1.8 5.5-2.7 11.7-1.7 11.7.4 0 1.4 1.1 2.1 2.5s1.9 2.5 2.6 2.5c1.2 0 3.6-6.2 4.9-12.7 1-5.2 3.1-6.1 6.4-2.9 2.5 2.4 2.9 3.7 3.8 12.3 1.1 9.9 1.7 11.2 7 14.2.8.4 2 3.3 2.7 6.3 1.2 5 1.1 6.1-.5 10-3.3 8-5.7 17.3-6.3 23.6-.4 5-1.1 7-3.7 10.1-2.7 3.4-3.7 4-7.7 4.3-2.6.1-6.6.2-9 0-3.8-.3-4.6-.8-7.7-5-1.9-2.6-3.7-5.8-4-7.2-1.1-4.4-5.9-11-9.1-12.5-1.7-.8-3.6-2.1-4.3-2.9-1.4-1.7-2.6-15.6-1.3-15.6.5 0 2.1.9 3.5 2s3.6 2 5 2c2.2 0 2.5-.6 3.6-5.7.6-3.1 1.1-6 1.1-6.3 0-.4-2-1.3-4.4-1.9-5.3-1.3-6.1-3.3-5-12.8.6-6.5 1.7-8.4 3.6-6.5.7.7 1.7.8 2.7.3 2.7-1.5 3.6-1.3 4.1.9.8 3.4 2.5 2.8 2.8-1 .6-8.7 3.5-21.5 5.9-26 3.2-6.3 4.1-5.2 4.2 4.8m-19.4 83.3c1.2 1.9-.5 2.3-2.2.6-1.6-1.6-1.6-1.7-.1-1.7.9 0 2 .5 2.3 1.1m321 21.5c2.8 2.5 6.2 5.2 7.8 6 3.2 1.7 3.5 4.7.6 7.2-1.1.9-3.1 3.9-4.3 6.7-2.1 4.7-2.6 5.1-8 6.7-3.1 1-6.3 1.8-7 1.8-1.7 0-2.6-2.2-2.6-6.6 0-2.8-.6-3.8-3.2-5.4-1.8-1.1-4.1-2-5-2-1.9 0-3.4-4-2.4-6.5.3-.8 1.7-1.9 3-2.5 1.7-.6 2.6-1.8 2.8-3.7.2-2 1.2-3.2 3.8-4.5 5.9-2.9 8.9-2.3 14.5 2.8"/><path d="M281.4 149.1c-.3.6-.1 1.6.5 2.2.8.8 1.1.5 1.1-1.1 0-2.4-.5-2.8-1.6-1.1m12.8 76.4c0 1.6.2 2.2.5 1.2.2-.9.2-2.3 0-3-.3-.6-.5.1-.5 1.8m-111.6 1c-.9 2.6-.7 3.2.5 1.2.6-1 .9-2.1.6-2.3-.2-.3-.7.2-1.1 1.1"/></svg>