<svg xmlns="http://www.w3.org/2000/svg" width="682.667" height="512" version="1.0" viewBox="0 0 512 384"><path d="M0 192v192h185.7l1.1-6.4c1.7-8.9 11.8-43.6 15.2-52.1 1.5-3.9 4-9.9 5.5-13.3 2.6-6.3 2.6-6.4 1.5-17.5-.9-7.7-1.9-12.2-3.2-14.5-1.1-1.7-2.1-3.2-2.2-3.2-.2 0-1.7.7-3.5 1.6-4.4 2.2-5.7 1.3-6.5-4.2-1-7.3-.8-9.4.9-9.4.8 0 1.5-.7 1.5-1.6 0-.8-.4-1.3-.9-1s-1.4-.7-1.9-2.4c-1-2.7-1.3-2.9-3.7-2-4.7 1.8-7.7 1.1-20.4-4.9-11.1-5.2-21.5-8.9-33.1-11.8-2.3-.6-4.3-2-5.8-4.3-1.3-1.9-3.4-4.1-4.8-4.8-1.7-.9-2.3-1.9-1.9-3.1.5-1.6-.4-1.9-9.2-2.4-14.8-.9-30.1-5.9-37-12-2.8-2.5-2.8-3.2-.3-5.7s3.2-2.5 5.6.1c1 1.1 2.7 2.5 3.7 3.1 1.7.9 1.7.7.7-1.2-1.5-2.8.1-5 2.3-3.2 1 .8 2.4.9 4.8.2 1.9-.6 7.9-.7 13.9-.4 8.8.6 11.4 1.1 16.4 3.6l5.8 2.9 2.2-2c1.8-1.7 2.4-1.8 4.5-.6 1.4.7 4.1 1.1 6 .8 2.9-.3 4.8.3 9.6 3.2 6.9 4.3 21.6 11.8 22 11.3.1-.2 1.2-4 2.4-8.5 1.2-4.8 5.2-14.6 9.6-23.5 6.6-13.5 7.7-16.3 8.7-24.1.6-4.8 1.6-8.7 2.2-8.7s1.7-.4 2.4-.9c1.5-.9 4.7-14.4 5.7-24.1 2.1-20.6 6.7-41.6 12-54.2 3.8-9.1 6.5-13.2 11.3-17.4l3.5-3.1-6.4 1.3c-11.2 2.4-16.5 1.5-19-3.2-1-2-.9-3.4.5-8.6 3.4-12.1 13.9-31.8 17-31.8.7 0 3.5.9 6.2 1.9 2.7 1.1 6.6 2.2 8.7 2.6 4.1.6 16.7 8.7 24.4 15.5 4.4 3.9 5.4 4.3 10.8 4.6 3.3.2 6.9.4 8 .5s6.1-1.3 11-3.2c10.4-3.8 25.1-5.3 27.2-2.7.9 1 .3 5.1-2.8 17.7-2.1 8.9-4.6 17.8-5.5 19.6-1.5 3.2-1.5 3.7.5 9 3.7 9.8 2.5 21.1-3 29.3-1.6 2.4-3.8 6.1-4.9 8.3-2.6 5-3.4 5-2.5-.1.4-2.2.4-4 .2-4-.3 0-2 2.3-3.9 5.1l-3.3 5.1-.8-3.2c-1.5-6-2.7-1.6-3.4 12.8-.6 13.3-.5 14.2 1.3 14.7 4.2 1.4 4.9 2.2 4.6 5.8-.3 3.1 0 3.6 2 3.9 1.3.2 2.4 1.1 2.7 2.3.2 1.1 1.6 3.4 3.1 5.1 3.6 4.1 16.2 22.9 18.9 28.2 2.5 4.9 2.6 8 .5 12.5-1.5 3.1-1.5 4.3 0 15.1.9 6.5 1.6 12.1 1.6 12.6 0 .4.7 1 1.5 1.4 4.3 1.6 41.8 6.5 44.7 5.8.4-.1 1.5.9 2.5 2.2s3.5 2.6 5.5 3c2.7.5 3.6 1.1 3.2 2.1-.5 1.1.9.8 5-1 6.2-2.7 10.6-3 22.5-1.5 13.5 1.8 16.2 6.5 4.1 7.2-3.8.2-7.2.7-7.6 1.1-1.1 1.1.9 2.8 3.7 3.1 1.3.1 3.3.6 4.3 1.1 1.3.6 2.9.3 4.8-.8 4.1-2.3 6.2-2.2 5.5.3-.6 2.4-.6 2.4 4 .5 4.5-1.9 6.3-1.9 6.3 0 0 .8.7 1.5 1.5 1.5 2.1 0 1.9 2.6-.2 3.5-2.6 1-28.6 5.2-36.8 6-6.6.6-10.9-.1-17.7-3-1.3-.5-1.8-.2-1.8 1 0 1.5-.6 1.7-3.7 1.2-2.9-.5-4.2-.2-5.9 1.4l-2.1 1.9-10.9-3.4c-6-1.9-17-4.4-24.4-5.5-18-2.9-22.1-3.9-24.4-5.9-3.3-3-6.9-9.5-9.6-17.6-2.8-8.2-3.3-8.2-4.5-.2-.5 3.4-.4 4.6.5 4.6 1.8 0 .4 7.6-2.1 11.8-2.6 4.5-2.4 6.3 1.1 9.4 3.3 2.9 3.5 4.1 2 15.2-.8 6.5-.6 7.5 2.5 16 1.8 5 4.9 12.7 6.9 17.1 2.1 4.4 6.8 16.8 10.6 27.5 6.7 18.7 8.5 24.3 11 33.7l1.1 4.3H512V0H0zm125.6-79.8c4.3 8.2 6.9 26.5 5.4 37.2-1.1 7.3-1 7.9.8 9.2 2.5 1.7 3.2 9.8 2.2 26.8-.7 12-.9 12.9-3.5 15.6-2 2.1-4.1 3-7.9 3.5-2.8.4-5.8 1.1-6.8 1.6-1 .6-2.6.4-4.3-.5-1.5-.8-3.3-1.2-4-1-1.6.7-5.5-4.7-7.6-10.6-2.2-6-7.7-19.8-9.3-23.5-.8-1.7-1.7-4.1-2.1-5.5s-1.6-3.6-2.6-4.9c-1.1-1.3-1.9-2.9-1.9-3.6s-.7-1.8-1.5-2.5c-2.3-1.9-1.7-13.3.7-13.8 1.2-.2 2.1 1.1 3.3 4.7.9 2.8 2 5.1 2.5 5.1s1.1.9 1.5 1.9c.4 1.3 1.2 1.7 2.5 1.4 1.1-.3 2-.6 2-.7.5-1.1 2.9-18.9 3-21 0-1.8 1.2-4 3.4-6.2 2.7-2.7 3.5-4.4 4.1-8.9.7-6 1.4-6.6 4.5-3.5 1.1 1.1 2.7 2 3.6 2s2.3.8 3 1.7c1.2 1.7 1.4 1.5 2.6-1.5.7-1.7 1.6-3.2 2-3.2s.8-.7.8-1.5c0-2.6 1.9-1.7 3.6 1.7m286.6 90.5c.9 1 1.8 2.7 2 3.8s1.5 2.6 3 3.3 3 2.1 3.3 3.2c.3 1 1.5 2.2 2.6 2.5 1 .4 2.5 1.8 3.2 3.2 1.5 2.7.9 5.6-2.6 12-.9 1.8-1.7 4.1-1.7 5.1 0 1.1-.7 2.5-1.5 3.2s-1.5 1.9-1.5 2.6c0 1.4-4.3 3-5.7 2.1-.5-.3-2.6.3-4.8 1.3-3.8 1.8-4 1.8-8.3-.4l-4.4-2.1.6-4.6c.6-4.1.4-4.8-1.6-6.1-1.3-.8-3.5-1.8-5-2.2-3.2-.7-5.8-5.1-5.8-9.6 0-3.5 1.9-4.7 5-3 3.2 1.7 4.8-.4 5.1-6.5.3-5.4 1.2-6.3 6.4-6.5 1.7 0 4.1-.7 5.5-1.5 3.3-1.9 4.4-1.8 6.2.2"/><path d="M118 203.1c0 .5.5.7 1 .4.6-.3 1-.8 1-1.1 0-.2-.4-.4-1-.4-.5 0-1 .5-1 1.1m165.7-56.4c-1.1 1-.8 6.1.3 6.8.6.4 1-1 1-3.4 0-4.2-.2-4.6-1.3-3.4m-103.5 74.6c-2.5 6.9-2.6 7.7-1.3 7.7.9 0 4.5-12.9 3.8-13.6-.2-.2-1.3 2.4-2.5 5.9m31.9 72.7c0 3.3.1 3.4 1 1.1.6-1.6.6-2.8-.1-3.5q-1.05-1.05-.9 2.4"/></svg>