<svg xmlns="http://www.w3.org/2000/svg" width="682.667" height="512" version="1.0" viewBox="0 0 512 384"><path d="M301.1 3.7c-2.3 8.2-.7 19.5 4.3 29.7l3.2 6.5-6.1 2.1c-18.1 6.5-35.3 19.8-44.9 34.9-5.8 9-7.1 12.2-9.5 23.8-2.1 9.6-3.7 13.6-7.8 19-2.9 4-1.6 4.3 2.8.6l3.2-2.8-.6 5c-.4 3.5-.3 4.3.3 2.7.5-1.2 1.1-2.2 1.3-2.2s.2 4.4 0 9.7c-.3 7.1-.1 9.4.6 8.3.6-.8 1.1-2.4 1.1-3.4 0-3 1.3-1 3.2 4.7l1.6 5.2.2-4 .2-4 .9 3.4c.6 1.8 2 4.3 3.1 5.5 2 2 2.1 2 1.4.1-.6-1.8-.5-1.8 1.3.2 1 1.2 2.1 1.9 2.5 1.6.3-.3 2.4 1.4 4.5 3.8 4.4 4.8 4.9 4.4 2.6-2.1-2.5-7-1.6-7 1.3 0 2.5 6.2 2.7 6.3 3.2 3.5.5-2.5.7-2.7 1.3-1.2 1.6 4.2-.8 11.8-5.2 16.4-3.5 3.7-2.4 6.1 4.6 9.7 2.5 1.3 3.4 2.5 4 5.8.7 3.7 1.3 4.4 4.1 5.3 2.3.6 3.2 1.5 3.2 3 0 1.2 1.2 3.2 2.6 4.6 1.4 1.3 3.7 4.3 5.1 6.7 2.2 3.8 2.4 4.9 1.8 10-.4 3.1-1.1 6.4-1.6 7.3-.7 1.3-.3 1.8 1.7 2.3 2.4.6 2.6 1 2.1 4.3-.4 2.3-.2 4.2.6 5.1.7.8 2.1 7.1 3.2 13.9 1.7 10.1 1.8 13 .9 15.3-.7 1.6-2.1 6-3.2 9.9s-3 8.4-4.2 10l-2.1 3-5.1-3.1c-6.7-4.2-13.7-4.9-16.8-1.8-2 2-2.1 2.8-1.5 10.3.7 8.6-.5 15.3-2 11.2-.4-1.1-2.9-6.6-5.6-12.1-5-10.5-9.3-16-14-17.6-1.7-.6-4-3.1-6.3-6.7-1.9-3.2-4.2-6.4-5-7-1.2-1-1.2-1.9-.4-4.3 1.5-4.2.4-16.8-2.2-25.1-4.1-13.2-11.5-17.5-27.3-15.7-4.2.5-8.1 1.1-8.6 1.4-1 .7-2.1-2.7-2.1-6.7 0-1.8-.5-2.7-1.6-2.7-1.2 0-1.5 1-1.3 5.1.3 5.8.2 5.9-9.1 9-7.7 2.6-15.4 7.9-16.8 11.7-.6 1.5-1.9 6-2.8 9.9-1.6 6.9-1.6 7.7 0 15.5 1 4.6 2.2 10.4 2.8 12.9.7 3.3 2.8 6.9 7.8 13.1 7.1 8.8 10.1 10.8 21 13.9 2.5.7 4.8 1.5 5.3 1.9.4.3-1 4.4-3.2 9.1-6.1 12.9-8.8 23.8-10.5 41.6-.8 8.7-2.4 18.9-3.5 22.8-1.2 3.8-2.1 7.8-2.1 8.7 0 1.7 3.2 1.8 54.4 1.8h54.4l1.1-6.3c.6-3.5 1.1-9.3 1.2-12.8.1-7.3.3-6.8 3.9 9.3l2.2 9.8h141.3l-.3-8.8-.4-8.8 5.9-1.3c6.5-1.4 18.5-7 17.7-8.3-.3-.4-1.5-.8-2.7-.8-1.8 0-1.4-.7 2.8-5l4.9-5h-6.7c-6.3 0-7.4.4-19.1 6.5-6.8 3.6-12.7 6.2-13 5.7s-.8-2.9-1.2-5.3-1.1-5.3-1.7-6.4-1.2-4-1.4-6.5c-.1-2.5-1-7-1.9-10-.8-3-1.8-7.1-2-9-.8-5.6-7.4-32.3-8.5-34.3-.5-1-.7-2.2-.4-2.7s-.1-2.6-1-4.6c-2-4.9-1.9-6.4.4-3.5 1 1.3 2.3 2.1 2.9 1.7.6-.3 2.5 3.2 4.6 8.7 2 5.1 4.3 10.2 5.1 11.3 1.3 1.8 1.4 1.7 1.5-1.6 0-1.9.6-4.6 1.4-6 1.1-2.2 1.1-2.9-.4-5.5-1.3-2.1-2.1-7.1-2.9-16.4-1.7-21-1.7-21 3.4-9.7 4.3 9.7 7.7 15.1 5.9 9.6-.4-1.4-.8-3.6-.7-5 0-1.4-1-7.9-2.2-14.5-1.3-6.6-2.5-13.4-2.8-15-.3-1.7-.2-3.6.2-4.3s2.1 3.2 4 9.5c3.1 10.1 11.9 29.3 15.6 33.8 1.7 2 1.7 2 1 0-1.4-4.2-6.5-26.5-6.5-28.2 0-1 2 1.3 4.5 5.2 5.4 8.7 9.7 14.6 10.3 14.1.2-.3-.4-5-1.3-10.7-1-6.3-1.9-21.9-2.5-41.3-.5-17.1-1.2-35.6-1.5-41.1-1.8-30.5-8.7-61.9-18.7-85.5-2.3-5.2-4.7-12.7-5.5-16.5-3.1-15-16.8-34.9-27.8-40.4-6.2-3.1-19-4-25.3-1.8l-4.4 1.5-13.7-13.9L343.3 0h-41.2zm25.4 219c-1.5 1.3-2.8 2.3-2.9 2.1s0-3.7.3-7.8l.4-7.5 2.5 5.4 2.5 5.5z"/></svg>