<svg xmlns="http://www.w3.org/2000/svg" width="682.667" height="512" version="1.0" viewBox="0 0 512 384"><path d="M0 192v192h185.6l1.2-6.8c1.7-10.4 12.5-45.5 18-58.8 9.2-22.1 9.5-23.2 8.4-26.2-.5-1.5-1.8-5.8-2.8-9.6-1.5-6.2-1.8-6.7-2.6-4.5-.9 2.2-.6 4.1 1.9 11.8.3 1-.3.7-1.4-.8-1.3-1.4-2-1.8-2.1-1 0 .8-.7 6.8-1.5 13.4l-1.3 12-.8-8.9c-.7-7.7-4.8-27.2-6-28.4-.2-.2-1.3.1-2.4.7-2.4 1.3-5.9 1.4-6.6.3-.2-.4-.7-3.9-1.1-7.8-.7-6.7-.6-7.1 1.4-7.7 1.6-.4 2.1-1.3 2.1-4.1 0-4.2-.8-4.5-4-1.1-3 3.2-10.2 5.9-13.5 5.1-1.4-.4-7.5-5.3-13.5-10.9-5.9-5.6-13.5-11.7-16.7-13.6-10.8-6.4-12.3-7.8-12.3-11.7 0-2-.6-3.7-1.4-4s-1.6-1.4-1.9-2.4c-.4-1.4-1.9-2-7.3-2.5-13.2-1.4-26.1-6.3-32.6-12.3-3.7-3.4-3.5-4.6.8-7.2l3.5-2.2 2.3 2.1c2.1 1.9 2.3 2 3.9.4 1.2-1.2 4-1.8 10.7-2.1 4.9-.3 9-.6 9-.9 0-1.6-2.4-4.4-5.3-6.1-3.1-1.8-3.4-2.5-4-7.8-.5-5.2-1-6.3-4.2-9.1-3.4-2.9-3.6-3.5-3-7.1.4-2.8 1.2-4.2 2.6-4.5 2.9-.8 2.5-5.1-.8-7.5l-2.6-1.9 1-7.7c.9-6.1 1.7-8.3 4-10.9 2-2.3 3.4-5.4 4.3-9.8.7-3.5 2.1-8.2 3-10.4s2-5.8 2.4-8c1.2-7 5.6-20.3 7.1-21.5 2.4-2 6-.4 7.8 3.6 1.5 3 1.6 4.6.8 8.8-1.2 6.2-2.3 29.1-1.3 25.6.5-1.4 1.3-2.5 2-2.4s1.9.2 2.7.2c1 .1 1.5 1.3 1.5 3.3 0 3.8 2 3.4 3.3-.7.6-1.6 1.9-4.2 3-5.7l2-2.9 2.2 2.9c3.7 4.6 4.6 8.9 5.1 25.8.3 8.8 1 17.9 1.6 20.2.7 2.9.7 5.1 0 7.5-.6 1.8-1.2 4.4-1.4 5.8-.2 1.7-1.1 2.7-2.8 3-1.5.3-3.1 1.8-4.1 3.8-.9 1.8-4.7 6.2-8.3 9.8-3.7 3.7-6.6 6.7-6.4 6.9.2.1 2.3 1.3 4.7 2.5 4 2 4.8 2.1 8.8 1 4-1.2 4.6-1.1 6.6.7 1.2 1.1 3.4 2.3 4.9 2.7 1.8.4 4.3 2.7 7 6.4 6.7 9 11.9 15.2 12.9 15.2 1.5 0 3.5-5 6.3-15.5 1.5-5.5 3.3-11.1 4.1-12.5 7.3-13 8.7-16.3 7.1-17.2-1.4-.8-1.6-2.1-1-8.6.9-10.1 1.5-11.2 6.4-11.2 3.3 0 4-.4 4.4-2.3.3-1.2 2.1-9.9 4-19.2 2-9.4 4-21.6 4.6-27.2 1.5-15.8 6.2-30.6 12.1-38.2 1.4-1.7 1.6-2.8.9-4.1-.6-1-1-2.8-1-4 0-1.7-.4-2-1.7-1.5-1 .4-5 1-8.9 1.2-6.3.5-7.4.3-9.3-1.6-2.9-2.9-2.7-8 .8-18.9 2.7-8.3 9.5-23.2 10.6-23.2.2 0 4.6 1.2 9.7 2.6 11.6 3.3 21.1 7.7 31.2 14.7 7.1 4.9 8.1 5.3 10.6 4.4 2.1-.8 4.3-.7 8 .1 4.9 1.1 5.7 1 16.9-2.8s32.1-7.4 33.7-5.7c1.5 1.5-4 24.6-9.2 38.4-1.8 4.8-4.2 5.6-8.4 2.6l-2.4-1.7 2 2.9c4.5 6.6 5.9 11.6 5.8 20.5 0 8.2-.2 8.8-5.2 18.5-2.8 5.5-5.1 9.2-5.1 8.1-.1-1.5-.4-1.6-1.6-.6-1.3 1.1-1.5 4.3-1.3 20.9l.3 19.6 2.5-.1c1.4-.1 4.1-.5 6-.8 5.8-1.1 6.6.1 5.2 8.6l-1.1 7.3 4.6 8c9.7 16.5 11 21 7.8 25.9-1.5 2.2-1.4 3.5.2 14.1l1.7 11.8 11.1-.6c6-.4 13.5-1.3 16.5-2.2 7-1.9 11-1.9 14.6 0 1.6.8 3.9 1.5 5.1 1.5s2.6.7 3.1 1.6c.8 1.4 1.4 1.3 5.2-1.1 3.7-2.3 6.1-2.9 15.4-3.7 8.8-.8 11.9-.7 15 .3 5.2 1.9 6.6 4.1 4.1 6.9-1.7 1.9-1.7 2.2-.3 3.7 1.5 1.4 1.9 1.4 5.2-.6 3.2-2 3.7-2.1 4.2-.7.3.9 1.4 1.6 2.3 1.6 2 0 4.1 1.9 4.1 3.7 0 1.9-3 2.9-23.5 8-14 3.5-19.2 4.4-23.2 4-3-.3-5.3-.1-5.3.4s-1.3.9-2.8.9c-1.8 0-3.7 1-5.1 2.6-2.5 2.9-1.1 2.9-18.6.4-3.9-.5-12.8-.6-20-.3-12.9.7-14 .7-18.3.5-1.2-.1-3.9-2-6.1-4.2-4.3-4.4-5.1-4.8-5.1-2.3 0 .9-1 3.6-2.1 6.1-1.7 3.4-2.6 4.3-4.1 3.9-1.9-.5-1.9-.5-.2 1.4 1.5 1.6 1.6 3.2 1 12.3-.6 10.1-.6 10.6 2.8 19.7 1.9 5.2 5.2 13.4 7.4 18.4 3.8 8.6 17.9 49.5 20.2 58.2l1.1 4.3H512V0H0zm401.4-41c1.9 0 3.7-.6 3.9-1.3 1.1-2.7 2.8 1.8 2.2 6.1-.8 6.6.2 9 4.6 11.2 2.1 1.1 4.4 1.9 5.1 1.8 1.1-.3 4 6.4 5.3 12.6.7 3.3 1.2 3.1 1.9-.7 1.5-8.4 3.6-9.1 3.6-1.1 0 4.1-.5 6.3-2.1 8.2-1.8 2.4-2 3.6-1.5 10.2l.6 7.5-5.7 10.4c-3.2 5.7-6.6 10.9-7.6 11.5-1.4.9-2.6.6-5.6-1-3.8-2.1-4-2.1-5.8-.3s-2 1.8-7.8-.5c-6.8-2.8-8.1-4.2-9-9.9-.4-2.3-2.2-7.8-4.1-12.1-1.9-4.4-3.4-8.3-3.4-8.8s-.9-2.8-1.9-5.1c-1.1-2.4-2.1-5.6-2.3-7.1-.3-3.3 1.7-4.7 2.6-1.8.4 1.1 2.4 3.8 4.5 6.1l3.8 4.1.6-4.9c.3-2.8 1.3-6.1 2.2-7.5 1.6-2.4 1.3-6.6-.4-6.6-.5 0-1.4-1.3-2.1-3-1.3-3.1-.7-6.6 1-5.5.5.3 1.2-.7 1.5-2.2 1.5-7.3 7-13 10.7-11.1.9.4 3.2.8 5.2.8"/><path d="M216.2 89.9c-.7 2.1-1.2 4.5-1.1 5.2 0 .8.7-.8 1.5-3.5.9-2.6 1.3-5 1.1-5.2s-.9 1.3-1.5 3.5M138 131.1c0 1.1.4 1.8 1 1.4.5-.3.7-1.2.3-2-.7-2.1-1.3-1.9-1.3.6M295.7 238c-.7 1.7-2.8 19.2-2.4 19.6.2.2 8.7-1.7 9.5-2.2.2-.1-.8-3-2.2-6.5-1.3-3.5-2.9-7.8-3.4-9.4-.7-2.1-1.1-2.5-1.5-1.5m108.6 5.7c-2.7.5-3 1.8-.7 2.7 2.6 1 4.1.7 6.5-1.4l2.4-1.9-3 .1c-1.6 0-4 .3-5.2.5m-211.6 11.9c-1.4 1.4-.8 6.4.8 6.4s1.7-1 .6-4.8c-.3-1.3-.9-2-1.4-1.6"/></svg>