<svg xmlns="http://www.w3.org/2000/svg" width="682.667" height="512" version="1.0" viewBox="0 0 512 384"><path d="M0 192v192h185.6l1.2-6.8c1.7-10.1 12.7-45.9 17.7-57.5 2.4-5.6 5.5-13.7 7-17.9 2.4-7 2.6-8.2 1.5-13-.6-2.9-1.8-6.7-2.6-8.3-1.4-2.9-1.4-2.7-.9 3.4.5 5.8.4 6.3-.9 4.6-1.3-1.8-1.5-1.4-2 4-.4 3.3-1.1 8.7-1.5 12-.8 5.6-.9 5.7-1 1.7 0-2.4-1.2-9.4-2.6-15.5-1.4-6.2-2.8-12.2-3-13.5-.5-2.1-.7-2.2-3.5-.7-5.9 3.1-7.4 1.5-8.2-8.7-.4-5.5-.4-5.6 2.4-6.2 2.7-.5 2.8-.8 2.8-6.1 0-3-.3-5.5-.6-5.5-.4 0-2.4 1.8-4.5 4-6.9 7.1-13.5 9.6-19.3 7.4-.9-.3-5.9-5.5-11.1-11.4-5.2-6-12.3-13-15.7-15.6-8.4-6.2-9.8-8-9.8-12.1 0-5-3.3-7.8-10-8.6-12.1-1.5-23.3-6.1-30.2-12.5-3.5-3.2-3.5-5 0-6.3 1.5-.6 3.4-1.5 4.3-1.9.9-.5 2.1-.4 2.6.1s2.2.5 4.3-.1c1.9-.6 7.2-1 11.7-1 8.1 0 8.2 0 7.4-2.3-.4-1.2-2.3-3-4.2-3.9-5.5-2.7-5.9-3.4-5.9-10 0-5.8-.2-6.3-4-9.8-5.2-4.8-5.3-8.9-.2-10.5 3-.9 2.7-5.6-.5-7-2.7-1.2-3.6-5.6-2.4-12.1 1.4-7.3 2-8.5 6.2-12.6 2.4-2.4 4.2-5.4 4.9-8 .6-2.4 1.8-6.6 2.6-9.3.8-2.8 1.6-6.6 1.9-8.5.8-7.1 3.5-19.6 5.1-23.8 2.6-6.9 7.2-5 9.4 4 1 4 .9 5.5-.6 10-1.2 3.5-1.9 8.7-2 15.4-.2 11.2.6 14.1 3 10.9.8-1.1 1.2-2.3 1-2.7-.3-.5.2-.8 1.1-.8 1.4 0 2 .9 4.1 6.5.4 1.1.8 4 .8 6.5.1 3.3.5 4.5 1.6 4.5s1.6-1.5 2-5.5c.4-4.3 1.1-6.1 3.3-8.3 1.5-1.5 3.2-2.7 3.6-2.7 1.8 0 4.2 15.8 4 26.1-.1 5.9.3 11.6 1 13.2 2.6 6.6.4 17.9-3.9 20-1.4.7-3 2.7-3.6 4.5-.5 1.8-4.4 6.9-8.6 11.2l-7.5 8 4.4 2.5c3.4 1.9 4.9 2.2 6.3 1.5 2.8-1.5 7.6-1.2 9 .6.8.8 2.7 2.1 4.4 2.8 2.3 1 4.3 3.5 7.8 9.7 2.6 4.6 5.6 9.5 6.7 10.8l1.9 2.5 4.7-9.4c3.6-7.2 4.5-10 4.1-12.3-.6-3.1 2.5-9.9 5.9-12.7 1.4-1.2 5.5-8.1 5.5-9.3 0-.3-.9-.7-2.1-1-2-.5-2-1-1.4-8.4 1-11.3.9-11.1 6.3-11.5l4.6-.3 3.3-16.5c1.8-9.1 3.9-22.4 4.8-29.5 2.4-19.9 6-32.2 11.5-39.3 1.7-2 1.7-2.5.3-5.3-.8-1.6-1.2-3.6-1-4.3.5-1.1-.1-1.2-2.6-.5-1.8.5-6 .9-9.4.9-6.6 0-8.8-1.2-9.9-5.5-1.2-4.8 9.1-34.5 12.8-36.8 1.2-.8 4-.3 11 1.7 12 3.6 19.3 7 29.7 13.9 7.4 4.8 8.7 5.4 10.8 4.4 1.7-.8 4.1-.7 8.6.2 5.9 1.2 6.5 1.1 12-1.4 3.3-1.4 9.1-3.4 13-4.5 9.3-2.5 25.9-4.3 26.7-2.9 2.4 3.8-7.9 41.2-11.8 42.6-.8.4-3.2-.3-5.3-1.5l-3.7-2.1 4 7.7c3.9 7.5 4 7.8 3.6 16.7-.4 8.5-.7 9.6-5.7 19.9l-5.3 10.8.4 17.2c.2 9.4.7 17.6 1.1 18.3.6.9 1.6.8 4.2-.3 1.9-.8 4.8-1.4 6.5-1.4h3v6.3c0 3.4-.4 7.6-.9 9.4-.8 2.8-.4 4 3.6 10.5 8.6 14 10.1 18.8 6.9 23.3-1.1 1.7-1 3.6 1 13.4 1.3 6.2 2.5 11.6 2.9 11.9.9 1 12.5-1.8 20.8-5 6.6-2.5 8.7-2.9 14.3-2.5 4.3.3 7.2 1.1 8.5 2.3 1.9 1.7 2.2 1.7 8.2-1.4 5.9-3.1 6.7-3.2 17.7-3.2 13 0 16.5 1.1 16.5 5 0 1.8-.6 2.6-2.2 2.8-3.3.5-3.1 4.2.1 4.2 1.3 0 2.9-.7 3.6-1.5 1.6-2 3.6-1.9 4.4.1.3.9 1.2 1.4 1.9 1.1 3.8-1.4 6.4 4.3 2.8 6.2-2.8 1.6-38.6 10.1-42.1 10.1-4.1 0-9.5 2.4-10.8 4.7-.9 1.6-2.9 1.9-16.4 2.4-9.9.4-18.7 1.4-25.1 2.9-11.3 2.5-14 2-19.4-3.2l-3.3-3.2-2 4.6c-2.9 6.7-4.2 7.4-8.3 4.9-4.8-3-5.7-2.6-1.7.7l3.3 2.8-.6 10.7c-.7 10.4-.6 10.9 2.7 19.9 1.9 5.1 5 12.7 6.9 16.8 3.3 7.1 18.3 50.6 20.7 59.7l1.1 4.3H512V0H0zm394.9-55c2.6 0 6.8 6.7 7.5 12.1.4 2.7 1.5 5.4 2.6 6.4s2 1.5 2 1c0-.4.7-.2 1.5.5 1.2 1 1.8 1 3.1-.1 2.1-1.8 3.4.5 5.2 9.1 1.6 7.6 3.1 10.9 3.2 6.9 0-3.3 2.4-9.2 3.3-8.2.4.3.7 2.8.7 5.4 0 3.4-.5 5.1-1.7 5.7-1.3.8-1.5 2.2-1.3 6.8.7 11.2.5 13.9-1.6 17.9-1.1 2.2-3.6 6.9-5.4 10.5s-4 7.3-4.8 8.2c-1.8 2.2-5 2.3-7.9.3-1.9-1.3-2.4-1.3-5.1.2s-3.4 1.6-7.3.3c-6.3-2-9.4-5.6-10.8-12-.6-3-2.5-8.9-4.1-13-3.3-8.5-7.4-21.9-6.8-22.5.2-.2 2.4 1.5 4.9 3.8l4.6 4.2 1.1-4.7c.6-2.6 2-5.7 3-6.9 1.1-1.1 2.4-3.7 2.9-5.8.9-3.2.7-4.2-1.4-7.1-2.6-3.8-3-9.5-.9-12.2 2.5-3.3 9-7.9 10.4-7.3.7.3 2.2.5 3.1.5"/><path d="M217.1 85.7c-.1.6-.4 2-.7 3-.5 1.7-.5 1.7.6 0 .6-1 .9-2.3.6-3-.3-.9-.5-.9-.5 0m-2 6.9c0 1.1.3 1.4.6.6.3-.7.2-1.6-.1-1.9-.3-.4-.6.2-.5 1.3m185.2 145.1c-.7.2-1.3.9-1.3 1.4 0 1.5 3.6 1 5-.6 1-1.2.9-1.5-.6-1.4-1.1 0-2.5.3-3.1.6m-102.8 3.4c-1.5 4.1-3.4 16.4-2.7 17.1.5.5 2.5.1 4.6-.7 2-.9 4.1-1.3 4.6-1 1.6 1 1.2-.6-2.1-8.5-3.6-8.6-3.7-8.7-4.4-6.9m-103.1 17.2c.2 2.1.6 4 1 4.4 1 1 .7-5-.4-6.7-.7-1.1-.8-.4-.6 2.3"/></svg>