<svg xmlns="http://www.w3.org/2000/svg" width="682.667" height="512" version="1.0" viewBox="0 0 512 384"><path d="M0 192v192h185.5l1.7-8.8c2.3-11.9 12.6-44.5 17.7-56.5l4.2-9.8-1.5-15.7c-1.6-15.2-2.4-21.2-3.1-21.2-.1 0-2.3 1.1-4.8 2.5-4.5 2.5-7.1 2.5-8.1 0-.3-.8-.8-4.1-1.2-7.4-.6-5.8-.6-6 1.8-6.6 1.3-.3 3.6-.1 5.2.4l2.7 1.1-.7-10.7c-.3-6-1-11.2-1.4-11.7-.5-.4-2 1.1-3.5 3.4-4.7 7.4-13.6 15.7-18.1 16.9-4.2 1.1-9.3.3-12-2-.8-.7-3.9-6.1-6.9-12.1-5.4-10.7-8-14.9-15.1-23.7-3.3-4.2-3.6-4.9-3.2-10.5l.3-6-5.5-1.2c-11.8-2.4-22.5-8.6-25.6-14.6-1.3-2.6-1.2-2.9 1.8-6.4l3.2-3.6 13.8.7c12.4.6 13.9.5 14.4-1 .4-.9.2-2-.3-2.4-.6-.3-1.4-1.7-1.8-3.1-1.1-3.5-3.5-6-5.9-6-1.2 0-2.6-.4-3.3-.8-3.3-2.1-4.3-13-1.9-20.4 2.4-7.3 2.6-11.9.8-17.3-1.3-3.8-2.3-5.1-4.2-5.5q-6.3-1.5-3.6-12c3.2-12.5 3.1-12.3 13.7-14.2 5.2-.9 11.7-1.7 14.6-1.7 4.9-.1 5.3.1 8 3.9 3.8 5.4 4 5.4 5.7-2.1.3-1.5 2.3-4.3 4.3-6.3l3.8-3.7 1.2 2.8c.7 1.5 1.2 4.9 1.3 7.4 0 3.6-.5 5-2.5 6.9-4.8 4.5-5.8 15-1.4 15 1.1 0 2.7.9 3.7 2.1.9 1.1 2.9 2.7 4.3 3.4 2.4 1.3 2.6 1.8 2.3 8S177 148 174.8 148c-1.4 0-3.7 5.6-4.4 10.9-.5 3.9-1.6 6.3-4.1 9.4-2 2.3-3.9 5.2-4.4 6.4-.5 1.4-2.3 2.6-5.1 3.4-2.4.7-5.1 1.9-6 2.7-1 .8-3 1.3-4.8 1-1.6-.3-3-.1-3 .3 0 1.6 9.5 7 11.5 6.5 1.1-.3 3-.9 4.1-1.2 1.4-.4 2.7 0 3.5 1.1.8 1 3.3 3.6 5.7 5.9 3.5 3.4 4.6 5.4 6.1 11.2 1 3.9 2.3 7.9 2.9 9 1 1.9 1.1 1.9 1.8-.1.4-1.1 2.1-4.1 3.7-6.7 1.9-3.2 2.6-5.4 2.2-6.8-1.3-4.2.7-8.2 7.6-15.1 3.8-3.8 6.3-6.9 5.6-6.9s-1.8.5-2.4 1.1-2 .8-3.2.4c-1.9-.6-2.1-1.4-2.1-8.9 0-10.2.7-11.1 8.4-10.2l5.3.6.7-5.8c.3-3.1 1.7-14 3-24.2 1.4-10.2 2.9-22.8 3.5-28.2 1.3-11.8 5.1-24.1 9.1-29.7l3.1-4.2-3 1.6c-4.2 2.1-5 1.9-6.6-1.7l-1.3-3.3-7.2.4c-11.6.5-12.9-2.2-9-18.9 1.1-4.7 3.2-11.8 4.6-15.9l2.7-7.3 3.5.5c8.9 1.5 26.5 8.2 36.2 13.7 10 5.8 10.3 5.9 14.4 4.8 3.5-.9 5.2-.8 8.9.4 2.5.8 5 1.2 5.4.8 1.4-1.3 20.5-8.1 26.7-9.5 3.4-.7 9.9-1.7 14.5-2.1l8.4-.7-.6 6.2c-.6 5.1-3.4 22.1-5.3 31.8-.3 1.5-1.8 2.8-4 3.8-5 2.1-6.8 1.9-11.5-1.1-2.3-1.4-4.3-2.4-4.5-2.2-.2.3 1.5 4.1 3.8 8.6 3.8 7.4 4.2 9 4.6 16.9.3 6.7 0 9.9-1.3 13.3-1 2.5-1.7 5.6-1.7 7 .4 15 2.4 46.6 3.1 47.3.5.5 2.2.2 4-.8 1.8-.9 4.9-1.5 6.9-1.3l3.7.3.3 7.6c.2 6-.1 8-1.3 9.3-1.5 1.4-1.8 1.4-4.1 0-1.3-.9-2.6-1.5-2.9-1.3-.2.2 3 4.8 7.1 10.2 8 10.5 9.3 13.5 7.7 17.8-.9 2.4-.5 4.2 3 12.3 2.2 5.2 4.4 9.3 4.8 9.1.4-.3 2.5-3.8 4.8-7.9 3.1-5.6 4.7-7.6 7.3-8.6 1.8-.7 4.3-2.2 5.5-3.3 2.1-1.8 2.3-1.9 6.6-.2l4.3 1.6 5.4-3.3c5.1-3.2 5.8-3.3 16.9-3.6 6.4-.2 12.8.1 14.2.7 5.2 1.9 3.9 10.2-1.3 8.5-2-.6-2.4 1.1-.8 3.6.8 1.2 1.3 1.3 3 .2 2.9-1.8 3.7-1.5 5.3 1.7 2.4 4.8.1 6.2-18 10.7-14.6 3.6-14.9 3.7-15.7 7.5-1 5-3 7.3-9.3 10.9-6.7 3.8-12.2 8.4-17.7 14.9-4.7 5.7-7 7-11.9 7.1-5.1 0-9.8-2.3-12.7-6.2l-2.4-3.2-1.5 5.9c-1.9 7-4 8-9.5 4.5-1.9-1.1-3.7-1.7-3.9-1.3-.5.9-3.2 14.1-4.2 21-.7 4.5 3 15.9 11.3 34.8 3.6 8.2 16.5 46.1 19.2 56.2l1.1 4.3H512V0H0zm371.5-89.1c.3.5.1 1.2-.5 1.6-.5.3-1-.1-1-.9 0-1.8.6-2.1 1.5-.7m8.4 7.7c2.5 11 5.2 19.2 6.9 20.8.9.9 4 3.4 6.8 5.5 9.9 7.6 12.9 23.5 6.7 35.6-1.6 3.3-3.8 8.6-4.8 11.7-2.2 7.3-5.9 11.6-10.5 12.3-6.3 1-9.4 1.7-11.1 2.8-2.5 1.6-6.6 0-11.4-4.4-5.6-5.2-7.9-10-8.1-17.4-.1-3.3-1.7-11.1-3.4-17.2-1.8-6.2-2.9-12-2.6-12.9.5-1.3 1-1.3 3.6.6 4 2.8 5.2 1.8 4.5-3.4-.5-3.4-.2-4.7 1.6-6.9 1.2-1.6 3.2-3.2 4.4-3.7 2.6-1 10.5-15.9 10.5-19.9 0-1.4.7-3.5 1.5-4.5.8-1.1 1.5-2.8 1.5-3.9 0-4 2.6-.8 3.9 4.9m-258.5 25.3c1.6 1.7 1.6 2 .1 3.5-.9.9-2.1 1.6-2.6 1.6-1.5 0-2.8-4.3-1.7-5.8 1.4-1.6 2.2-1.5 4.2.7"/><path d="M388.3 212.8c-2.5.4-3 1.7-1.2 2.8.6.3 1.8-.1 2.7-1 1.9-1.8 1.5-2.3-1.5-1.8M298 234.6c0 1-1.7 12.1-2.6 17.4-.6 3-.8 3.2-1.5 1.5-.7-1.6-.8-1.5-.6 1 .1 1.8.8 3.1 1.8 3.3 1.3.2 1.7-1.8 2.7-11.4.7-6.4 1-11.9.7-12.2s-.5-.1-.5.4m6 12.9c-1.3 10.5-.8 12.5 2.8 10.6 1.1-.6 3.2-1.1 4.6-1.1s2.7-.3 2.9-.8c.3-.4-1.6-4.7-4.3-9.5l-4.7-8.8zM203 261c0 .5.5 1 1.1 1 .5 0 .7-.5.4-1-.3-.6-.8-1-1.1-1-.2 0-.4.4-.4 1m89.5 6c-.3.6.1 1.3 1 1.6 1.9.8 3 0 2-1.5-.8-1.4-2.2-1.4-3-.1m-80.4 24.2c-.1 1.4-.6 2.8-1.2 3s-.9 2.4-.7 5.3l.3 5 1.7-5c1.3-3.6 1.5-5.8.9-8l-.9-3z"/></svg>