<svg xmlns="http://www.w3.org/2000/svg" width="682.667" height="512" version="1.0" viewBox="0 0 512 384"><path d="M0 192v192h185.5l1.7-8.8c2.2-11.3 12.8-45.1 17.4-55.6 6.5-14.7 6.4-13.6 4.3-29.5-1-7.9-2-15-2.3-15.7-.7-1.8-4.6-1.7-7 .1-4.8 3.6-6.9 1.3-8.1-8.8l-.7-5.7h4.3c2.4 0 5.1.4 5.9.9.8.6 1.7.8 2 .6.7-.4-.4-10.4-2.3-19.4l-1.3-6.3-1.9 3.7c-2.9 5.4-12.5 15.6-16.2 17.1-1.8.8-4.7 1.4-6.5 1.4-3.8 0-9.6-3.2-10.5-5.8-2.7-7.4-11.9-24.9-16.1-30.6-5.6-7.4-6.9-11.5-5.2-16 .6-1.6.9-3.1.7-3.3s-3.3-1.2-6.9-2.2c-11.2-3-18-8.2-21.5-16.2-.8-1.8-.8-3.1 0-4.5 2.2-4.1 3.8-4.5 12.2-3.8 4.4.4 10.8.8 14.2.8 3.3.1 5.9.4 5.7.8-.2.3 1.6 2.3 4.1 4.4 4.5 3.7 4.6 3.7 8.7 2.3 3.8-1.2 4.2-1.2 5.2.6s3.5 4.3 7.6 7.8c1.7 1.4 3.1 5.2 6 15.6l1.2 4.4 2.9-5.4c2.1-3.7 2.8-6.1 2.4-7.9-.9-4.1 1.1-8 7.8-14.9 5.2-5.3 5.7-6 3-4.7-5.4 2.7-6.3 1.5-6.3-7.9 0-9.7.9-11.1 6.8-10.2 8.3 1.4 7.6 1.8 8.4-5.3.4-3.6 1.7-13.9 2.7-23 1.1-9.1 2.3-20.1 2.6-24.4.7-9.2 3.8-25.1 5.8-29.8.8-1.8 2.6-4.4 4.1-5.7 3.7-3.4 3.2-4.7-.8-2.2-4.7 3-7.5 2.7-8.7-.7-.9-2.7-1.1-2.8-7.7-2.4-5.4.3-7.1.1-8.1-1.2-2.6-3.1-1.1-17.8 3.5-34.6l1.8-6.2 3.6.6c9.1 1.4 22.5 6.1 34 11.8 12.3 6.2 12.6 6.2 20 6 4.1-.2 8.1.1 8.9.6.9.7 3.3.1 7.5-1.8 9.8-4.4 22.1-8 33.8-9.7 6-.8 11.1-1.3 11.5-1 .3.3-.2 6.1-1.1 12.9-.8 6.8-1.8 15.2-2.2 18.8-.6 6.8-2.4 10-5.5 10-1 0-2.1.4-2.4 1-1.1 1.8-4.6 1.1-10.1-2.1-5.8-3.3-6.4-3.1-3.6.9 1.1 1.5 3.3 6.7 5 11.5 3.5 9.7 4.1 17.5 1.8 23.9-1 2.8-1.1 6.1-.5 13 .4 5.1 1.3 16.7 1.8 25.7s1.2 16.5 1.5 16.8c.2.2 1.8-.3 3.5-1.1 1.6-.9 5-1.6 7.6-1.6h4.5v8.4c0 7.5-.2 8.5-2 9.1-1.1.3-3-.1-4.4-1-5.2-3.5-4.4-.7 2 6.5 8.4 9.6 9.8 12.2 9.1 17.7-.4 3.6.2 5.7 3 11.5 1.9 3.9 3.8 6.7 4.2 6.2.5-.5 1.6-3.4 2.6-6.4 1.7-5.5 5.8-11 8.1-11 .7 0 2.1-1.2 3.2-2.7 2-2.7 2.1-2.7 6.6-1.5s4.7 1.1 9.5-2.2c4.6-3.3 5.5-3.5 15.9-4.2 13.3-.8 15.7-.3 17.8 3.8 1.5 3 1.5 3.2-.2 4.5-1 .7-2.9 1.3-4.3 1.3-3.5 0-5.3 1.3-4.5 3.3.4 1.2 1.1 1.4 3.1.6 3.5-1.3 5.3-1.1 5.3.6 0 .8.5 1.5 1 1.5.6 0 1 .9 1 2 0 2.4-5 5.1-14 7.5-15.2 4-13.8 3.1-14.5 8.7-.6 4.4-1.4 5.6-7.7 11.6-3.8 3.7-9.9 11-13.4 16.3-3.6 5.3-7.6 10.1-9 10.8-5.4 2.4-11.9.9-16.5-4l-2.8-3-.7 4.6c-.3 2.5-1.5 5.6-2.5 6.8l-1.8 2.2-4-2.2c-2.2-1.3-4.4-2.3-4.9-2.3s-1.6 5.8-2.6 12.9c-1 7.2-2.1 14.6-2.6 16.6-.8 3.7.4 7.4 9.3 28 3.2 7.6 16.3 46.1 18.7 55.2l1.1 4.3H512V0H0zM174.4 84.2c.7 1.2.7 3-.2 6.3-.7 2.5-1.2 7.7-1.2 11.5 0 6.6.1 7 2.9 8.4 1.6.9 3.8 3.1 4.9 5.1 1.2 1.9 2.8 3.5 3.7 3.5 1.2 0 1.5 1.3 1.5 6.2 0 5.4-.4 6.8-3.5 11.2-3.1 4.5-4.8 9.7-7.1 21.1-.2 1.1-1.7 3.6-3.4 5.5-1.6 1.9-3 3.9-3 4.4 0 2.1-4.5 5.6-7.1 5.6-1.6 0-4.4.8-6.4 1.7-3 1.4-3.8 1.5-4.4.4-.5-.8-1.4-1-2-.7-.6.4-1.1.1-1.1-.7s-.9-2.2-2-3.2-2-2.3-2-3c0-1.4-3.6-4.6-7-6.4-4.2-2-5.3-4.8-5.1-13 .1-5.4.7-8.1 2-10 2.6-3.6 4.4-10.8 3.5-14-.4-1.4-.8-3.3-.9-4.1-.6-4.7-1.6-6-5.1-6-2.8 0-3.6-.5-4.5-2.8-1.4-3.7-.7-9.6 2.1-16 2.5-5.8 4.6-6.6 8-3.2 1.7 1.7 2.1 1.8 2.6.5.4-.8 1.7-1.5 3-1.5 2.6 0 9.7-3.4 11.5-5.6 2-2.5 4.5-1.5 8.3 3.1 2.1 2.5 4.1 4.5 4.6 4.5s1.2-1.7 1.5-3.8c1.1-6.2 1.6-7.3 3.2-7 .9.2 2.1 1.1 2.7 2m197.5 18.5c.7 1.6 2.3 6.1 3.6 10.1 2.7 8.5 7.9 15.9 11.5 16.4 2.9.4 7.5 6.5 9 12.1 1.5 5.3.3 13.9-3 21.3-1.5 3.3-3.1 7.8-3.4 10-1.1 6.4-5.6 13.7-9.1 14.7-1.6.5-4.3 1.5-6 2.2-5.6 2.5-11.1 3.3-13.8 2.1-3.5-1.5-11.5-11-13.9-16.6-1.7-3.9-1.8-5-.8-8.1.9-2.7 1-4.5.1-7-1.9-5.9-5.1-19.1-5.1-21.2 0-1.6.5-1.8 2.7-1.2 1.5.3 3.2.7 3.8.8.5.1 1.2-2.5 1.5-5.8.6-7.1 2.5-10.2 6.5-10.7 3-.3 3.2-.5 7.8-10.3 3.9-8.1 5.8-11.5 6.6-11.5.4 0 1.3 1.2 2 2.7M126 129.5c0 2.2-1.3 2.5-3.1.9-1.5-1.3-1.6-2.1-.7-3.7 1-2 1.1-2 2.4-.2.8 1 1.4 2.4 1.4 3"/><path d="M152 114c0 1.1.2 2 .4 2s.6-.9.9-2 .1-2-.4-2-.9.9-.9 2m144.2 46c0 1.4.2 1.9.5 1.2.2-.6.2-1.8 0-2.5-.3-.6-.5-.1-.5 1.3m4.1 70.5c0 2.7.2 3.8.4 2.2.2-1.5.2-3.7 0-5-.2-1.2-.4 0-.4 2.8m-.7 8.7c-.3.7-.7 3.7-1 6.6-.7 6.9-1.9 8.8-2.7 4.2l-.6-3.5-.2 3.2c0 1.7-.5 3.5-1.1 3.8-1.8 1.1-1.1 2.3 2 3.3 3.6 1.3 3.8.7 4.2-11.1.3-7.5.1-9-.6-6.5m7 5c-.3 2.9-.6 7.3-.6 9.7 0 4.2.1 4.3 2.8 3.7 1.5-.4 3.9-1 5.5-1.3 1.5-.3 2.7-.8 2.7-1.1 0-.6-9.1-16.2-9.5-16.2-.1 0-.5 2.4-.9 5.2m-12.5 22.7c-1.1.7-.8 1.4 1.5 3.4 2.8 2.4 2.9 2.5 3.2.6.7-4.2-1.5-6-4.7-4m-82 26.1c-.1 4.5.2 6 .9 5 1.2-1.8 1.2-6.8 0-9.5-.6-1.4-.9 0-.9 4.5"/></svg>