<svg xmlns="http://www.w3.org/2000/svg" width="682.667" height="512" version="1.0" viewBox="0 0 512 384"><path d="M0 192v192h185.5l1.7-8.8c2.2-11.2 12.8-45 17.4-55.6 2-4.4 4.7-11.2 6.1-15l2.5-7-2.2-13.5c-1.2-7.5-2.5-13.9-2.9-14.3-.3-.4-2.8.7-5.5 2.3-4.3 2.7-5 2.9-6.3 1.6-.8-.8-2.1-4.3-2.8-7.7-1.3-6.1-1.3-6.2 1.2-7.3 2.3-1 3.2-.9 11.1 2 1.4.6 1.8-7.2.3-8.1-.4-.3-1.2-5.1-1.6-10.7-.3-5.5-.9-9.8-1.3-9.5-.3.4-1.1 4.1-1.8 8.4-.9 6.3-1.2 7-1.4 3.7-.1-2.2-.2-4.3-.1-4.8.2-1.6-1.3-.4-6.3 4.8l-5.2 5.5h-6.2c-8.4 0-10.7-2.2-16.7-16.7-2.7-6.4-6.8-14.1-9.5-17.8-6.7-9.1-7.9-13.4-5.9-20.4.3-.9-1.2-1.9-4-2.9-5.5-1.9-13.6-9.7-14.6-14-.4-2-1.6-3.6-3.3-4.4-3.6-1.8-3.8-3.3-.8-6.3 2.7-2.7 6.5-3.2 12.6-1.6 1.9.5 6.1 1.5 9.4 2.1 4.6.9 6.8 2.1 10.3 5.3 3.3 3 4.7 3.7 5.5 2.9 2.2-2.2 5.8-1.4 7.6 1.8.9 1.6 2 3 2.4 3 .3 0 2 1.1 3.7 2.5 2.9 2.5 3.8 4.5 6.1 13.3 1.4 5.5 3 4.5 3-1.9 0-5.7 1-8 5.4-12.8 2.3-2.5 2.6-3.1 1-2.3s-2.6.8-3.9-.2c-1.5-1-1.7-2.5-1.4-8.9.3-4.1.8-7.9 1.2-8.4 1.4-1.3 9.2-.6 12.5 1.1 3.9 2 3.9 2 4.7-13.9 1.6-32.1 5.3-66.4 7.8-71 .5-1.1 2.3-3.7 4-5.8l3-3.9-5.1 2.6c-6.2 3.1-8.8 3.3-9.7.6-.5-1.7-1.5-2-6.5-2-5.1 0-6.1-.3-7.1-2.2-2.3-4.3.9-38.4 3.7-39.5 1.7-.6 20.4 4 28.4 7 3.6 1.3 10.1 4.3 14.6 6.5 5.5 2.8 8.5 3.8 9.5 3.1 1.9-1.2 10.6-1.1 12.9.1 1.5.8 3.8.2 10.1-2.6 12.6-5.6 18.5-7.4 30.4-9.5 6.1-1 11.6-1.9 12.4-1.9 1.2 0 1.3 3.1.7 19.2-.4 10.5-1.1 20-1.7 21-.7 1.3-2.1 1.8-4.9 1.8-2.1 0-4.2.4-4.5 1-1.1 1.8-4.6 1.1-10.1-2.1-3-1.7-5.4-2.8-5.4-2.4 0 .3 1.3 2.3 2.9 4.3 3.8 4.8 7.6 17.7 7.5 25.7-.1 3.3.2 11.6.7 18.5 1.8 26.7 3 42.6 3.5 44.7l.4 2.2 4.5-2c2.5-1.1 6-1.9 7.8-1.7 2.9.3 3.2.7 3.9 4.8 2 11.4-.3 14.8-7.8 11.2-2.5-1.3-4.9-2.1-5.1-1.8-.3.2 2.5 3.3 6.1 6.9 7 6.8 8.9 10.3 8.5 15.2-.3 3.4 1.9 9.7 3.1 9 .5-.3 1.1-2.4 1.5-4.8 1.2-6.8 3.4-11.2 6.6-13.1 1.7-1 3.4-2.9 3.9-4.2 1.2-3.1 3.6-4 7.2-2.6 2.5.9 3.2.7 5.8-1.5 4.1-3.4 3.8-4.3-1.4-4.3-4.8 0-4.1.6-14.3-12.4-2.5-3.3-5.2-7.1-5.9-8.5-1.8-3.3-1.8-8.6-.1-10.3 2.1-2.1 2.5-4 1.5-7.3-2-6.3-3.7-15.2-3.8-19.3 0-3.6.4-4.4 2.4-5.2 3.2-1.2 4.6-3.9 4.6-8.9 0-3.1.6-4.6 2.7-6.6 3.7-3.4 5.4-3.1 8.1 1 1.2 1.9 2.6 3.5 3 3.5 1.9-.1 4.5-3.3 6.2-7.7 1.9-5.1 1.9-5.1 4.3 3.2 4.4 15.1 7.8 18 11.8 10 1.2-2.5 2.8-4.5 3.5-4.5s2.9 2.6 4.9 5.7c3.4 5.5 3.6 6.1 3 11.8-1.3 13.3-2.2 18.2-3.9 21.4-1.3 2.5-1.6 4.5-1.1 7.8.5 3.8.2 5.4-2.6 11-2.7 5.4-4 6.8-7.5 8.6-2.4 1.1-4.6 2.7-4.9 3.5-.4 1.2 1 1.3 9 .7 10.3-.8 13.7.2 14.8 4.5.7 2.8-1.4 4.6-6.6 5.4-4.7.7-8.7 2.9-7.4 4.2.4.4 1.3.2 1.9-.4 2.1-2.1 4.7-1.3 6.4 1.9 1.5 3 1.5 3.3-.3 5-1 1.1-5.2 3.6-9.3 5.6l-7.5 3.8.3 4.1c.3 3.4-.4 5.1-4.3 11-5.8 8.5-9.4 15.6-13 25.6-3.8 10.6-5.8 12.3-14.6 12.3H324l-.6 4.8c-.4 2.6-1.5 5.8-2.4 7l-1.8 2.2-3.8-2-4.6-2.3c-1.1-.6-1.7 2.9-2.9 18.3-.6 8.2-1.5 15.4-2 15.9-.5.6-.9-3.9-1-11-.1-12.4-1-22.9-2.2-24-.7-.8-6.5 1.4-7.3 2.8-.3.5.2 1.8 1.1 2.8 1.4 1.6 1.7 3.6 1.6 10.5-.1 4.7-.4 9.1-.7 9.8-.6 1.6 4.3 15.7 9 25.8 4.3 9.6 18.4 50.5 21.6 62.6l1.1 4.3H512V0H0zM181 63.6c0 1.4-.4 2.3-.9 2s-.7-1.5-.4-2.6c.7-2.8 1.3-2.5 1.3.6m-9.7 3.6c1.6 2.9 4.2 7.8 5.8 10.8 2.6 4.7 3 6.4 2.7 11.4-.3 5.6-.2 6 2.1 6.6 1.7.4 2.7 1.6 3.3 3.8.7 2.5 1.8 3.6 4.8 4.8 2.9 1.2 4.2 2.4 5 4.9 1 2.9.8 4-1.6 8.7-1.5 3-3.5 9.5-4.4 14.8-1 5.6-3.4 13.2-5.5 18.3l-3.8 8.6-6.5 2.2c-5.3 1.8-6.8 1.9-8.7.9-1.7-.9-2.8-.9-4.3-.1-2.9 1.5-2.9 1.5-4.8-2.2-.9-1.7-2-3.4-2.3-3.7-.4-.3-2-2.3-3.7-4.5-1.6-2.2-4.3-5.3-6-7-3-3-3-3.1-3-13l.1-10 3.2-1.4c5.6-2.5 6.2-7.1 3.7-29.4-.7-5.8.5-12.1 3.4-18.5 1.9-4.2 2.9-4 4.2.8.5 2.2 1.5 5.7 2 7.9.6 2.1 1 5 1 6.4 0 3.4 3 9.7 4.6 9.7 2.7 0 5.4-5.2 5.4-10.1 0-4.4-.3-5-3-6.4s-3-2-3-6.2c0-5 3.4-13.3 5.4-13.3.6 0 2.4 2.4 3.9 5.2M132.5 106c.9 2.8-.4 6.8-1.6 4.9s-1.1-6.9 0-6.9c.5 0 1.3.9 1.6 2"/><path d="M303.1 242c-.2 3.6-.7 7.6-1.1 9-.7 2.3-.8 2.3-1.1-1-.2-3.4-.2-3.4-.6-.6-.4 2.2-.7 2.6-1.4 1.5-.7-1.2-.9-1.1-.9.3 0 .9-.2 2.2-.5 3-.5 1.3 5.1 4.5 6.1 3.5.3-.2.3-5.3.1-11.3-.2-7.9-.4-9.1-.6-4.4m7.3 6.2c.4 7.1.8 9.2 1.8 8.9.7-.2 3.2-1.1 5.6-1.9l4.3-1.5-2.4-2.6c-1.3-1.4-3.8-4.7-5.6-7.4-1.8-2.6-3.4-4.7-3.7-4.7-.2 0-.2 4.2 0 9.2m-96.1 21.3c-.9 2.5.4 2.9 1.7.6.7-1.5.7-2.1 0-2.1-.6 0-1.3.7-1.7 1.5"/></svg>