<svg xmlns="http://www.w3.org/2000/svg" width="682.667" height="512" version="1.0" viewBox="0 0 512 384"><path d="M0 192v192h185.6l1.2-7c.6-3.8 2.5-11.1 4.1-16.2s4.2-13.4 5.7-18.3c1.5-5 4.7-13.7 7.2-19.5 8.3-19.5 10.2-25.6 9.2-28.7-.5-1.5-2.1-8.2-3.5-14.8-1.5-6.6-3-12.4-3.5-12.9s-2.7.2-5.3 1.7c-5.4 3.2-7 2.4-8.7-4.3-.6-2.5-1.3-5.2-1.6-6.1-.7-2.5 3.7-3.2 8.8-1.4 2.5.8 4.6 1.1 5.2.5.5-.5.4-3.5-.3-7.2-.6-3.6-1.1-8.5-1.1-10.9 0-5.7-1.3-8-2.9-5.1-.6 1.1-3.1 2.8-5.6 3.8-3.9 1.4-5.2 1.5-8.8.5-5.7-1.7-8.1-4.2-10.7-11-6-15.3-7.8-19.2-12.2-25.9-5.2-8.1-6.7-13-4.9-16.8 1.8-4.1 1.3-6.1-2-7.4-3.8-1.6-6.9-6.4-6.9-10.8 0-3.5-2.1-6.2-6.9-8.7-4-2-4.3-6-.7-7.7 3.9-1.7 23.2 4.4 26.8 8.6 2.5 2.8 2.9 3 4.9 1.7 1.9-1.1 2.4-1.1 3.3.1 4.8 6.3 5.7 7.1 6.8 6 2.1-2.1 3.8-1.3 3.8 1.7 0 1.7.5 3.3 1 3.6.6.4 1-1.1 1-3.7 0-2.4.5-4.9 1.2-5.6 1.7-1.7 5.7-1.4 10.6.8 3.2 1.4 4.4 1.6 4.7.7.5-1.4 4.5-48.4 5.1-59.7.5-11.2 4.1-25.4 7.6-29.7 1.5-2 2.8-3.9 2.8-4.3 0-.5-2.5.5-5.5 2.2-3.9 2.1-6.8 2.9-10.5 3-3.6 0-5 .4-5 1.4 0 .8-.3 1.4-.8 1.4-1.2 0 .3 12.2 1.9 15.5 2.3 4.5 2 25.1-.3 28.8-2.5 3.7-5 11.3-4.8 14.5.4 5 0 6.1-2.6 8.5-3.8 3.5-9.3 5-14.6 3.7-2.4-.5-6.2-1-8.4-1-4.6 0-6.1-1.2-7-5.7-.4-1.8-1.7-3.6-3.5-4.7-4.5-2.7-6.2-6.8-4.8-11.6 1.2-4.1 1.2-4-3.6-10.6-.7-1-.6-2 .3-3.4 1.4-2.3.6-10.3-1-9.4-.5.3-.7 1.2-.4 2s0 1.4-.6 1.4c-.7 0-.8-1.4-.4-4.1.4-2.6.3-3.8-.4-3.4-.6.4-1-.5-1-1.9s.6-2.6 1.3-2.6c2.4-.1 5.5-3.7 7-8.1 1-3 2.1-4.4 3.4-4.4 3.8-.1 4.2-1.3 4.2-11.8 0-11.3.8-15.5 3.5-17.1 1.4-.9 2.2-.6 4.1 1.8 2.1 2.7 2.5 2.8 5.6 1.7s3.6-1 5.4 1.2c1.1 1.3 2.5 3.3 3.1 4.3 1 1.7 1.3 1.4 3.9-2.6 2.6-4.2 2.8-4.3 4.2-2.4 1.4 1.7 1.5.6.9-10.8-.4-10-.3-12.7.8-13.1 4.9-1.9 24.5 2.5 39.5 8.8 10.5 4.4 11.1 4.6 15.1 3.4 3.3-1 5.1-1 8.9 0 4.8 1.2 5.1 1.1 13-2.8 11-5.6 20.8-8.7 32.6-10.4 7.5-1.1 10.2-1.2 10.7-.4.7 1.2 1.4 17.4 1.2 32.5 0 9.2-1.4 11-7.3 9.4-2.4-.6-4.3-.6-4.7-.1-1 1.6-5.4.9-10.4-1.6-2.7-1.4-5.2-2.5-5.5-2.5-.4 0 1 1.9 3 4.2 2 2.4 4.2 6.5 5 9.3 1.7 6 5.2 41.4 6 61 .3 7.7.8 15.9 1.1 18.2l.6 4.2 3.9-1.9c2.1-1.1 5.6-2 7.7-2 4.5 0 5.2 1.1 5.2 9.5v5l2-3.3c1.1-1.8 2-3.9 2-4.7 0-1.8 1.6-2 2.6-.3.4.7 1.3-.2 2.3-2.3 1.3-2.8 2.2-3.5 5.2-3.7 2.6-.2 4.6-1.3 7.5-4.3 3.7-3.8 3.7-3.9 1.4-3.9-1.4 0-3.4-.7-4.5-1.6-1.2-.9-3-1.2-4.7-.9-2.3.6-2.9.2-3.8-1.9-.5-1.4-1.7-2.6-2.5-2.6-1.5 0-1.5.1-.1 1.6.9.8 1.6 2.4 1.6 3.5 0 2.7-4.5 2.5-6.5-.3-1.4-2.1-1.4-2.4.6-3.9l2.1-1.6-3.3-2.6-3.4-2.6 1.9-3.5c2.7-5 1.6-8.3-3.7-10.5-7-3.1-8.1-4.9-7.3-12.8.5-4.8 1.3-7.4 2.8-9 1.8-2 2.1-3.5 2.2-15l.2-12.8 4.8-9.8c2.6-5.3 5.4-9.7 6.1-9.7.8 0 1.9 1.7 2.5 3.9s1.9 4.9 2.9 6.2l1.8 2.3 3.2-3.4c1.7-1.9 3.1-2.9 3.1-2.2 0 .6.5 1.2 1 1.2.6 0 1-.9 1-2s.7-2 1.5-2 1.5.4 1.5.9 1.8 2.9 4 5.2l4.1 4.4 2.4-3c2.1-2.6 2.4-4 2.5-11.5 0-4.7.4-9.1.9-9.8 1.6-2.6 3.1 4.7 3.1 14.8 0 6.4.5 11 1.5 13.4 2.7 6.4 2.7 14.4 0 20.6-2.4 5.5-2.4 8.2 0 11 .7.8 1.6 4 1.9 7.1.6 4.8.3 6.3-2.3 12.3-1.7 3.7-4.7 8.6-6.7 11-3.7 4.1-8 14.6-6.2 14.6.6 0 3.7-.7 7-1.6 7.4-1.9 13.7-1.5 15.2.8 1.6 2.6-.1 4.7-5.2 6.7-5 2-6.9 3.6-5.3 4.5 3.1 1.9.2 9.7-4.6 12.8-3 1.8-3.4 2.4-2.7 4.7 1.7 5.5.8 10-3.9 19.8-2.7 5.6-6 14.9-7.8 21.8-1.7 6.6-3.7 13.1-4.6 14.3-.8 1.3-3.5 3.3-6 4.4-6.3 2.8-11.3 1.8-17-3.5l-4.5-4.1.7 11.4c.4 6.3.8 11.6 1 11.8.1.1 1.8-.5 3.8-1.3s5-1.5 6.7-1.5h3l-.6 5.7c-1.1 9.4-2.8 11-8.4 7.8-4.7-2.7-5-2.2-5.1 7.7-.2 11.1-1.5 25.5-1.8 19.3-.5-11.3-2.9-26.5-4.4-27.9-2.3-2.4-4.5-.9-5.6 3.7-.8 4-.9 4.1-1 .9-.1-3.3-.7-3.8-3-2.3-1.2.7-1 1.4.8 3.6 2 2.6 2.1 3.5 1.5 13.4-.6 10.1-.5 11 2.4 18.6 1.6 4.4 4.7 11.8 6.7 16.4 4.2 9.5 14.5 39.1 18.5 53.1l2.7 9.5 91.7.3 91.6.2V0H0z"/><path d="M320.1 87.2c-.1 1.6.4 2.8.9 2.8 1.2 0 1.2-.8 0-3.5-.8-1.8-.9-1.7-.9.7m-2.7 95c1.4 2.4 2.6 2.3 2.6-.1 0-1.3-.6-1.9-1.9-1.8-1.5.1-1.7.4-.7 1.9M212.1 244c-.1 4.8-.5 9-1.1 9.6-.5.5-.5 1.5-.1 2.3.7 1.1 1.2 1.1 3 0 2.5-1.6 2.5-1.2.2-11.9l-1.9-8.5zm92-5.4c0 .6-.6 4.8-1.2 9.3-.8 6.1-.8 8.6 0 9.4s1.4.8 2.2 0 .8-3.8.2-10.5c-.6-5.1-1.1-8.8-1.2-8.2m-8.1 13.3c0 .5-.3 1.6-.6 2.5-.4 1.1-.1 1.6 1 1.6 1 0 1.6-.9 1.6-2.5 0-1.4-.4-2.5-1-2.5-.5 0-1 .4-1 .9m-84.3 13.3c-.6 1.7.4 12.1 1.2 13 .4.4.8-.4.9-1.9s1.4-4 3-5.6l2.7-2.9-2.4-1.9c-2.7-2.2-4.7-2.4-5.4-.7m1.5 17.8c0 1.4.2 1.9.5 1.2.2-.6.2-1.8 0-2.5-.3-.6-.5-.1-.5 1.3"/></svg>