<svg xmlns="http://www.w3.org/2000/svg" width="682.667" height="512" version="1.0" viewBox="0 0 512 384"><path d="M0 192v192h186v-2.5c0-3.9 12.4-43.1 17-53.5 2.3-5.2 5.7-13.9 7.6-19.4 3.4-9.6 3.5-10.1 2.8-20.1-.6-10.1-.6-10.2 2-12.8 1.5-1.5 3.1-2.7 3.6-2.7.6 0 1-.7 1-1.5 0-1.8-9.8-6.7-11.3-5.8-.9.6-.7 9.2.9 27.8.4 4.4.4 7.7 0 7.4-.3-.3-2-7.9-3.6-16.8s-3.2-16.6-3.5-17.1c-.4-.6-2.3-.1-4.5 1s-4.6 2-5.5 2c-1.8 0-3.3-3.6-4.2-9.7-.6-4.3-.6-4.3 2.6-4.3 1.7 0 4.7.6 6.6 1.4 2 .9 3.7 1.1 4 .6.6-.9-.1-13.4-1.1-19.8-.5-3.2-.5-3.2-3.4-1.7-5.5 2.8-13.2 1.3-17.7-3.6-1.2-1.3-3.8-7.1-5.8-12.9-4-11.2-6.3-16.2-10.4-22.5-4.8-7.2-6.5-13.6-4.2-16.1.4-.5 1.1-2 1.4-3.4.4-2.1-.2-3-3.6-5.5-2.3-1.7-4.3-3.7-4.4-4.5s-.5-3.6-.8-6.3c-.6-4.5-.9-4.9-5.6-7.3-4.4-2.2-5-2.8-4.7-5.2.6-4.8 4.3-5.1 15-.9 5.6 2.2 10.1 3.5 11.5 3.1 1.7-.5 2.2-.1 2.8 2.4 1 4.8 3.1 5.9 5.8 3.4 1.8-1.7 2.6-1.9 3.5-1 .7.7 1.2 1.9 1.2 2.8 0 2 2.3 7 3.2 7 .4 0 1.4-1 2.3-2.2 1.3-1.9 1.8-2.1 3.5-1 1.1.6 3 1.2 4.2 1.2 1.3 0 4.2.9 6.5 2 2.4 1 4.5 1.5 4.7 1.1.3-.4 1-6.8 1.6-14.2.5-7.4 1.5-18.6 2.1-24.9s1.2-16.5 1.4-22.5c.2-12.4 3-23.7 7.1-29.2 3.8-5 2.9-5.4-3.3-1.7-4.4 2.7-6.5 3.4-8.8 3-4.8-.9-5.7.3-4.1 5 4.9 13.9 5.6 17.9 4.5 24-.6 3.2-1.9 7.5-2.9 9.4-1.9 3.8-4.3 12.2-4.4 15.5 0 1.1.3 3.3.7 4.8.7 2.5.3 3.3-2.9 6.2-5.8 5.3-11.8 6-22.9 2.7-5.7-1.7-6-2-6.2-5.1-.2-4.7-2.7-7.9-6.9-8.7-4.7-.9-7.7-5.4-6.9-10.2.9-4.7 2.6-8.2 4-8.2.7 0 1.5-1 1.9-2.3.9-3.4.7-4-.9-3.3-.9.3-1.5 0-1.5-.8s.5-1.6 1-1.8c.7-.2.1-3.1-1.6-7.3-2.2-5.9-2.5-8.1-2.2-14.2.3-4 1-7.8 1.5-8.5.6-.7 1.3-2.5 1.7-3.9 1.7-7.5 9.6-1.2 9.6 7.7 0 5.2 1.1 7.9 2.9 7.3.7-.3 1.2-4.5 1.5-11.4.3-9.6.1-11.3-1.5-13.1-3.7-4-3.5-22.5.3-27.2.9-1 1.5-.9 2.9.4 1.1 1 1.9 2.3 1.9 3s.6 1.5 1.2 1.7c1 .4.9.6-.1.6-.9.1-1 .5-.3 1.3.6.9.6 3.4-.1 7.6-.9 5.7-.6 8.4.9 7 .3-.4.9-4 1.3-8.2s1.2-8.1 1.9-8.8c2.1-2.1 4.6.4 6.2 6.1.8 2.8 1.8 5.1 2.1 5.1 1.2 0 4.9-9.8 4.9-12.9V34l8.1.5c11.5.7 19.6 2.8 33.2 8.7 8.7 3.7 12.2 4.7 13 3.9 1.4-1.4 11.2-1.5 13.7-.1 1.4.7 4-.1 11.6-3.9 5.5-2.7 13-5.8 16.8-7 7.8-2.4 25.1-4.9 26.2-3.8.4.4 1.2 8.8 1.7 18.7.8 14.2.7 18.6-.3 21.1-1.3 3.1-1.4 3.1-6.7 2.6-2.9-.3-5.5-.1-5.8.4-1.1 1.6-5.1 1-10-1.6-2.6-1.4-4.9-2.4-5.2-2.1-.2.2 1 2 2.7 3.9 1.7 2 3.7 5.5 4.5 7.9 2.1 6.2 4.3 27.4 6 57.3.9 14.3 1.7 26.5 2 27.2.3.9 1.5.7 4.7-.7 2.4-1.1 6-2 8.1-2 2.6 0 3.7-.4 3.7-1.5 0-1.7 2.5-2 3.5-.5 1.2 1.9 2.4 1 4.4-3.5 2.2-5 2.6-5.2 5.2-2.9 1.5 1.4 1.9 1.2 4.8-1.8 1.7-1.8 3.1-3.5 3.1-3.8 0-1.1-6.3-4-8.6-4-1.4 0-3.6.7-4.9 1.6-3 2-5.8 1.1-8.5-2.7-2.8-3.8-1.7-5.5 2.1-3.2 2.1 1.3 3.2 1.4 4 .6 1.7-1.7.2-3.3-3.1-3.3-1.7 0-4-1.1-5.8-2.9l-3.1-2.8 2-3.7c1.7-3.3 1.9-4.4 1-8.9-.6-2.9-1.2-6.3-1.3-7.7-.2-2-.8-2.5-2.8-2.4-1.4.1-2.8-.4-3.2-1-.6-.8-1.1-.7-1.7.3-1 1.6-.9-1.9.4-8.7.9-5.1 2.2-6.2 3.1-2.7.7 3 2.4 3.3 2.4.5 0-1.1-.4-2-1-2-1.3 0-1.3-16.7 0-17.5.5-.3 1.5.3 2.2 1.5 1.8 2.9 4.6 2.5 5.5-.8.4-1.5.6-5.6.5-9.2 0-3.6-.2-9.9-.3-14s.3-8.6.9-10c.9-2.3 1.1-2.1 1.7 2.7.8 5.6 2.2 6.6 4.3 3.3.9-1.5 2.1-1.9 5-1.7 4.3.2 5.2 1.1 5.2 4.9 0 2.5.4 2.8 3.1 2.8h3.1l-.5 6.2c-.3 3.5-1 8.7-1.7 11.7-1.7 7.9-.4 9.8 2.6 3.6 1.3-2.8 2.3-5.5 2.4-6.1 0-.5 1.3-2.3 3-3.9 2.2-2.1 3.2-2.5 4.2-1.7 1.8 1.5 3.5.3 4.3-3 .4-1.5 1.3-2.9 2.1-3.2 3.1-1.2 4.5 7 2.3 13.3-.9 2.6-1.4 2.9-2.5 2-1.7-1.4-1.6-1.5-3.2 3.2-1.4 4.1-.6 9.9 1.4 9.9.8 0 1.4.5 1.4 1.2 0 .6.9 2.1 2 3.3 1.7 1.8 2 3.6 2.1 9.9.1 4.2-.3 8.2-.9 8.9-.5.7-1.6 3.4-2.5 6.1s-2.7 6.3-4 8c-4.2 5.6-7 11-7.7 14.8-.7 3.7-.7 3.8 1.9 3.2 1.4-.4 4.4-1.3 6.6-2 5-1.7 10.7-1.8 12.3-.2 2.8 2.8 1.4 5.4-4.4 8l-5.6 2.5-.1 5.7c-.2 4.9-.6 6.1-2.9 8.1-1.5 1.3-3.3 2.5-4 2.7-1.1.4-1 1 .1 3.1 2.5 4.8 1.8 10.6-2.7 20.2-2.3 5.1-5.4 14.6-7.2 22-4 16.8-4.6 18.2-8.9 21-7.4 4.6-14.2 4.1-19.6-1.5-1.6-1.7-3.2-3-3.6-3-.7 0-1 26-.3 27.2.2.3 1.7 0 3.2-.7 3.6-1.8 8.9-2.7 9.6-1.6 1.1 1.7-.8 11.5-2.5 13.2-1.8 1.8-2 1.8-6.4-.1l-4.5-1.9-.1 10.2c-.1 9.6-1.4 25-1.8 21.7-.1-.8-.8-7.7-1.5-15.2-1.2-12.5-2.4-16.8-4.6-16.8-.4 0-1.1 1-1.5 2.2-.6 2-.8 2-1.2.5-.5-2-.8-2-3.4-.6-1.9 1-1.9 1.1.7 4.2s2.7 3.3 2.1 13.8c-.6 10.1-.5 11.1 2.4 19 1.6 4.6 4.3 11.1 5.8 14.5 3.9 8.2 8.8 21.6 15.7 42.6l5.8 17.8H512V0H0z"/><path d="M187.4 58.6c-.4 1.6-1 3.1-1.4 3.4s-1 3.6-1.2 7.3c-.5 6.3-.5 6.7.9 4.7 1.1-1.5 2.2-2 3.7-1.6 1.9.5 2.1.1 1.9-2.7-.2-4.2-1.9-12.6-2.6-13.4-.3-.3-.9.8-1.3 2.3M325 146c0 .5.5 1 1 1 .6 0 1-.5 1-1 0-.6-.4-1-1-1-.5 0-1 .4-1 1m-118.1 84c-.4 4.8.3 25.3.9 27.1.6 1.4 1 1.5 2.3.6 1.5-1.1 1.4-2.3-.2-14.7-2-14.4-2.6-17-3-13m6.2 16.7c-.1 8 .1 9.3 1.5 9.3s1.6-.7.9-4.8c-2.3-14.3-2.2-14.2-2.4-4.5m89.7 9.3c-.7 4.6-.4 6.1 1 4.4.4-.5.5-2.7.2-4.9l-.5-4z"/></svg>