<svg xmlns="http://www.w3.org/2000/svg" width="682.667" height="512" version="1.0" viewBox="0 0 512 384"><path d="M0 192v192h96c80.8 0 96-.2 96-1.4 0-.7 1.6-4.9 3.6-9.2 2-4.4 5.4-12.7 7.5-18.6 3.8-10.7 3.8-10.7 3.2-22-.6-12.3.3-16 4.8-19.2 1.8-1.2 2-2.1 1.5-4.9-.9-4.7-4.6-6.4-7.4-3.4-1.6 1.7-2.4 4.7-3.4 13.7l-1.3 11.5-.7-12.8c-.3-7.1-.9-13.1-1.2-13.5-.3-.3-2.2 0-4.3.6-6.1 1.9-8.7-.6-9.9-9.8l-.7-5.3 3.7.6c2 .3 5.1 1.3 6.8 2.1 1.7.9 3.3 1.6 3.5 1.6.1 0 .3-8.8.3-19.5v-19.6l-3.1 2.3c-2.4 1.8-4.3 2.3-8.7 2.2-11.4-.1-15.4-4.6-20.8-23.5-3.5-12.4-5.3-16.7-11.9-28.9-3.6-6.5-3.7-7.2-2.1-15.6.2-1.2 1.1-3.3 2-4.7 1.7-2.4 1.6-2.5-1.6-4.5-6.2-3.9-7.9-6.5-8.5-13.2l-.6-6.2-5.3-3.4c-7.5-4.8-8.3-6.7-4.5-10.4 1.6-1.7 3.9-3 5.1-3 1.7 0 2-.3 1.3-1.3-.6-.6-1.6-4.2-2.3-8-1-5.3-1-7.3 0-9.7 2.3-5.5-.2-17.2-5.3-24.7-2.4-3.5-3.8-7.4-5.2-13.9-1-4.9-2.9-12.3-4.2-16.4-3.4-10.5-2.2-17 3.3-17 1.6 0 2.4-.7 2.6-2.3.2-1.7 1.1-2.3 3.5-2.5 3.2-.3 12.3-7.5 12.3-9.7 0-.7.9-2 2-3 2.9-2.6 2.8-13.8-.2-20.7-1.8-4.3-2-5.5-1-8.2.7-1.8 1.2-4.4 1.2-5.9V0H0zM159 .4c0 .2.7.6 1.5 1 .8.3 1.5.1 1.5-.4 0-.6-.7-1-1.5-1s-1.5.2-1.5.4m25 1.3c0 2.4 5.4 5.5 6.9 4 .8-.8 1.1-.8 1.1.1 0 1.7 2.1 1.5 3.5-.5 1.6-2.2 3.2-1 4 3 .4 1.7 2.3 6.3 4.2 10.2 3.4 6.9 4.8 12.4 6.1 23.9l.7 6L222 53c6.3 2.5 14 5.9 16.9 7.4 4.4 2.3 5.9 2.6 7.3 1.7 2.2-1.4 12.3-1.5 14.8-.1 1.4.8 3.3.1 8.7-3 7.3-4.3 15.5-7.6 27.1-11 6.8-2 7.2-2.2 7.2-5 0-1.6-1.3-5.1-2.8-7.7-7.5-12.8-9.2-24.1-4.7-30.7 1.4-2 2.5-3.9 2.5-4.1 0-.3-25.9-.5-57.5-.5-54.1 0-57.5.1-57.5 1.7m128 .1c0 2.3 3.5 5.7 7.3 7.1 1.5.6 3.2 2.1 3.8 3.5 1.5 3.3 4.4 4.2 11.3 3.6 4.9-.5 6.2-1 8.3-3.5 2.5-3.1 3.8-5.8 4.9-10l.6-2.5h-18.1C313.2 0 312 .1 312 1.8m53.5-.1c.5 1 1.6 5.8 2.7 10.8 2.3 11.5 3.5 14.2 7.8 18.6 12 12.2 13.5 15.7 12.7 30.9-.4 7.8-1.4 13.8-2.9 18.7l-2.3 7.3h-3.7c-2.6 0-3.8.5-4.3 1.7-.3 1-2 2.9-3.8 4.2-4.2 3.1-4.6 6.1-.9 6.1 6.2 0 7 .8 7.2 6.3.3 11.1-.5 27.5-1.6 32.4-.2 1.2-1.6 2.9-3 3.6l-2.7 1.4 3.1.6c3.4.7 6.8 4.8 5.9 7.1-.3.8-3 2.8-5.9 4.5-7.3 4.1-7.4 4.2-8.2 10.2-.9 6.9-1.9 8.5-6.7 11-2.2 1.1-3.9 2.3-3.7 2.7 5.5 10.4 5.7 13.6 1.7 22.9-4.4 10-7 18.7-9.8 33-1.6 8.1-3.4 15.9-3.9 17.3-2.4 6.1-10.8 11-18.9 11-2 0-3.3.5-3.3 1.2s-1.1-.1-2.5-1.7l-2.5-3 .6 11c.3 6 .1 13.7-.4 17l-.8 6-.8-9c-.4-5-1-9.7-1.3-10.5-.6-1.4-3.1 14.2-3.6 21.7-.1 1.7-.5 2.9-.9 2.6-.5-.2-.8 1-.8 2.7 0 2.7.3 3.1 1.8 2.5.9-.4 4.1-1.2 6.9-1.8 4.7-1 5.4-.9 6.6.7s1.1 2.9-.4 8.3c-1.9 6.8-3.3 9.3-5.3 9.3-.7 0-3.4-1.4-6-3-2.6-1.7-5.1-2.8-5.6-2.5-1.2.8-2.8 9.6-3.5 20-.6 8.3-.4 9.7 2.5 18 1.6 4.9 5.2 13.8 7.8 19.7l4.7 10.8H512V0h-73.6c-69.7 0-73.6.1-72.9 1.7"/><path d="M361 145c-.8.5-1.2 1.2-.8 1.5 1 1 4.9-.5 4.3-1.6-.8-1.1-1.6-1.1-3.5.1m-207 7.5c0 1.8 3.9 3 5.3 1.6s.8-1.9-2.6-2.5c-1.9-.3-2.7 0-2.7.9m172.5-.6c-1.1.3-3.1 1.4-4.5 2.3-3.8 2.6-9.2 4.6-11.9 4.3l-2.4-.2.7 17.1c.7 18.4 1.1 21.6 3.1 21.6 5.2 0 8.1-9.6 7.7-25.7-.2-5 .1-9.4.7-9.7.5-.4 2.3 1.1 4.1 3.1 3 3.7 3.2 3.7 4.6 1.9.8-1.2 1.4-4.2 1.4-7.3 0-4.1.4-5.5 1.6-6 1.6-.6 2.1-.2 6 5.2 1.3 1.7 1.6 1.8 2.4.5 1.5-2.3 1.3-2.7-3.2-4.8-5.6-2.6-7.8-3.1-10.3-2.3M168 161c0 .5.5 1 1.1 1 .5 0 .7-.5.4-1-.3-.6-.8-1-1.1-1-.2 0-.4.4-.4 1m19 .8c-1.9.8-4.5 1.6-5.7 1.9-2.7.6-3.6 3.9-1.9 7.1l1.3 2.5 3.2-4.7c5.1-7.4 7.2-5.5 5.3 4.8-1.1 5.6-1 6.6.8 10.1 1.1 2.2 2 5 2 6.2 0 2.4 3.2 6.3 5.1 6.3 2.5 0 4.9-2.3 5.3-5.3.3-1.7.7-9.1 1-16.4l.5-13.1-6.7-.4c-3.9-.2-8.1.2-10.2 1m20.1 125.9c-.1 3.6.3 6.3.9 6.3 1.2 0 1.2-3 .1-8.5-.8-3.8-.9-3.7-1 2.2"/></svg>