<svg xmlns="http://www.w3.org/2000/svg" width="682.667" height="512" version="1.0" viewBox="0 0 512 384"><path d="M0 192v192h193.7l2.6-5.8c2.3-5.2 5.4-13.2 7.9-20.7.5-1.7.9-8.7.8-15.7-.1-13.3.9-17.5 4.7-19.7 1.4-.7 1.6-1.5.8-3.7-2.7-7.5-6.3-2-7.2 11-.3 5.3-.9 9.9-1.3 10.1-.4.3-1.1-4.4-1.4-10.3-.4-6-1.1-11.4-1.5-12-.6-1-1.7-1-5.4 0-4.1 1-4.8 1-6.5-.5-2.5-2.2-4.7-12.4-3.1-14.3 1.2-1.5 6.3-.8 9.4 1.3 4.8 3.2 4.9 2.7 4.1-18.7-.4-11-.9-20.6-1.2-21.4-.4-1.1-1.2-1-4.2.5-4.8 2.5-10.5 2.4-16-.2-5.2-2.6-8.5-7.2-10.7-15.4-.9-3.3-2-7.1-2.5-8.5-.4-1.4-1.5-5-2.4-8s-3-8-4.6-11c-6.1-11.2-7.4-14.5-7.4-19 0-5.3.8-8.4 2.8-11.5 1.5-2.3 1.4-2.5-2.7-5-6-3.8-7.7-6.6-8.5-13.8l-.7-6.2-5.5-3.3c-6.7-4-8-6.2-5.7-10.2 2.1-3.5 2.2-9.6.1-16.7-1.5-5.3-1.5-5.5.5-7.7 1.6-1.6 2.1-3.5 2.1-7.2 0-2.8-.5-5.5-1.1-6.1s-1.2-2.9-1.5-5.2c-.2-2.3-1.9-7-3.8-10.4-3.9-7-5.8-14-8.1-30.2-1.7-12.5-1.9-18.1-.5-19 .5-.3.7-1.2.3-2-.3-.9.1-1.5.8-1.5 2.9 0 4-1.6 3.1-4.1-.5-1.3-1.2-3.8-1.6-5.4-.6-2.4-.5-2.8.5-1.8.7.7 3.2 1.3 5.5 1.3 3.8 0 5-.7 11.3-6.2 3.9-3.4 7.4-7.2 7.7-8.3.4-1.1 2.4-3.8 4.4-6.1 4.1-4.5 5.8-7.2 7.6-12.2l1.2-3.2H0zM203 1.2c0 .7.9 2.8 2 4.6 3.2 5.2 6.3 23 6.1 34.7-.1 5.5.2 10.5.6 11.1.5.6 3.5 2.1 6.8 3.4 3.3 1.2 10.5 4.3 16 6.7 7.9 3.6 10.3 4.3 11.7 3.4 2.3-1.4 10.6-1.4 14.5 0 3.2 1.1 3.2 1.1 23.3-10 1.6-.9 2.7-7.1 1.2-7.1-.5 0-.7-1.1-.4-2.5.4-2.5.5-2.5 3.1-.8 6.8 4.5 7.4 4.5 9.9 1.6 2.5-3.1 5.2-11.1 5.2-15.6 0-1.6-2.5-7.9-5.5-14.1-3-6.1-5.7-12.3-6-13.9L291 0h-44c-34.5 0-44 .3-44 1.2m114-.3c0 .5.7 1.6 1.5 2.5.8.8 1.5 2.1 1.5 2.9s.9 2.2 1.9 3.1c1.9 1.7 2 1.7 2.6-1.8.4-2 1-3.6 1.4-3.6.3 0 1.7-.9 3.1-2l2.5-2h-7.2c-4 0-7.3.4-7.3.9M370 2c0 1.1.5 2 1 2 .6 0 .9.4.8.9-.3.9 3 4.2 16.6 16.9 8.1 7.7 10.1 18 6.8 35.7-1.2 6-2.4 13.3-2.7 16.2l-.7 5.1-4.8.7c-4.5.6-5.1 1-6.6 4.5-1.1 2.4-2.9 4.3-5 5.3-2.2 1.1-3.1 2.2-2.9 3.4.2 1 .4 2.4.4 3 .1.7.8 1.3 1.6 1.3s1.5.4 1.5 1c0 1.6 7.6 1.2 9-.5 2.3-2.7 3.3 0 1.5 3.6-1.5 2.8-1.6 4.1-.5 10.3 1 6.2 1 7.9-.5 13-1.1 3.8-1.5 7.5-1.1 10.2.7 5.5-.6 9.1-3.9 10.6l-2.5 1.1 2.1 2.3c3.5 3.8 2.3 7.4-3.6 10.6-6.9 3.6-7 3.8-8.5 10.7-1.1 5.1-1.9 6.7-4.9 9.1-1.9 1.7-4.1 3-4.8 3-2.3 0-2.5 2.1-.5 4.3 2.3 2.5 4.2 6.9 4.2 9.8 0 1.1-2.2 7.8-5 14.9-3.5 9.2-6 17.9-8.6 30.7-2.8 13.8-4.1 18.5-6 21.1-3.6 4.6-9.2 7.2-15.9 7.2H321l-.1 3.2-.1 3.3-.8-3.4c-.4-1.8-1.6-4.1-2.5-5-1.6-1.5-1.7-1.3-1 3.2 1 7.5.7 29.9-.5 31.1-.7.7-1-1.2-1.1-6-.1-10.6-1.5-12.3-2.3-2.9-.4 4.4-1.2 10.6-1.8 13.8s-.9 5.9-.7 6.1 3.2-.3 6.7-1.2c6.2-1.6 6.4-1.6 7.8.2 1.8 2.5 1.8 5.5-.2 12.1-2 7-3.9 7.6-10.5 3.5-3.2-1.9-5.5-2.8-6.1-2.2-1.6 1.6-3.7 11.4-4.4 20.3-.7 8.4-.6 9 3.6 20.5 2.3 6.6 4.9 13.1 5.6 14.6l1.5 2.8H512V0h-71c-70.3 0-71 0-71 2m-44.9 155.1c-1.3.5-3.9 2.3-5.7 3.9-1.9 1.6-5 3.2-7 3.6l-3.7.7.7 17.5c.8 18.6 1 20.2 3.2 20.2 2.9 0 5.4-3.9 5.4-8.3 0-2.3.7-6.7 1.5-9.7 1-3.9 1.3-7.8.8-13.3-.5-6.6-.4-7.7 1-7.7.9 0 2.8 1.6 4.3 3.5 3.7 4.9 5.4 3.3 5.4-5.1 0-6.9-.6-7.4-5.9-5.3"/><path d="M340.1 161.6c0 1.1.3 1.4.6.6.3-.7.2-1.6-.1-1.9-.3-.4-.6.2-.5 1.3m-149.3 6.1c-1.1.3-2.1 2.6-3.3 7.7-1.6 7.2-1.5 7.4.6 11.1 1.2 2.1 2.6 6 3 8.8.5 2.8 1.4 5.4 2 5.8 1.1.7 6.6-.4 7.7-1.6.4-.3.8-7.7 1-16.3l.4-15.7-4.8-.1c-2.7 0-5.6.1-6.6.3m-12.8 4.9c0 2 1.7 2.6 2.4.8.8-2.1.8-2.1-.9-2.1-.8 0-1.5.6-1.5 1.3m27.3 125.6c.3 6.4 1 8.8 2.3 7.6.3-.4-.1-3.7-1-7.5l-1.5-6.8z"/></svg>