<svg xmlns="http://www.w3.org/2000/svg" width="682.667" height="512" version="1.0" viewBox="0 0 512 384"><path d="M0 192v192h196.8l1.6-4.2c.8-2.4 2.5-6.8 3.6-9.8l2-5.5-2.1-17c-1.2-9.3-2.4-17.4-2.8-17.8s-2.8.1-5.2 1.1c-6.5 2.8-8.2 1.8-10.3-6.1-1.4-5.2-1.5-7-.6-8.7 1-1.9 1.7-2.1 4.8-1.5 2 .4 4.9 1.3 6.4 2.1 2.5 1.3 2.9 1.3 3.4 0 .7-1.8-1.2-25.9-2.5-33.1-.6-2.8-1-7.1-1-9.7l-.1-4.8-3.2 2c-8.2 5-21.9-.3-25.6-9.8-.6-1.5-2.8-8.6-4.8-15.7-3.6-12.9-5.2-16.9-11.2-27.5-3.6-6.3-5-13.3-3.2-15.5.6-.8.9-1.8.6-2.3s.4-2.3 1.5-4c1-1.8 1.9-3.5 1.9-3.7 0-.3-2.3-1.9-5.1-3.7-5.4-3.3-7.9-7.3-7.9-12.5 0-5.3-1.2-7.3-6.4-10.4-2.8-1.7-6.2-4.2-7.7-5.5-2.4-2.3-2.5-2.6-1.6-10.4.7-6.5.6-8.9-.7-12.7-2-5.7-2.1-9.3-.2-9.3 3.6 0 4.4-10.1 1.6-19.5-.6-2.2-1.4-5.1-1.7-6.5-.4-1.4-2-4.7-3.6-7.4-6.1-9.9-10.7-35.4-9.3-51.3.4-3.8.9-11 1.2-16.1.4-6.9.9-9.2 1.9-9.2.8 0 1.7.4 2 1 .3.5 2.3 1 4.3 1 3.1-.1 4.8-1.1 11-6.8 4.5-4.3 7.6-7.9 8.1-10l1-3.2H0zM207.6 5.2c.3 2.9 1 7.5 1.5 10.1s.9 7.4.9 10.7c0 3.2.4 6.1.9 6.4.4.3 1 4.1 1.3 8.5.4 7.3.7 8.3 3.9 11.9 3.2 3.7 3.7 3.9 7.9 3.5 3.7-.4 4.8-.1 6.4 1.6 1.1 1.2 2.5 2.1 3.2 2.1s1.4 1 1.6 2.2c.2 1.3 2.1 3.4 4.5 5.1 3.4 2.2 4.6 2.6 6.2 1.7 2.6-1.3 11-1.3 14.9.1 2.8.9 3.8.7 9.2-2.2l6-3.4V45.8l2.5.4c2.9.6 3-.2 1.3-6.6-1-3.7-.9-5 .2-7.2 2-3.6 3.8-4.1 5.6-1.5 2.2 3.1 6.8 2.8 9.1-.7 3.3-4.7 4.3-8.1 4.3-13.9 0-5.6-1.6-12.8-3.3-15.1C295 .3 284.8 0 250.9 0h-43.8zM314 3c0 1.6.4 3 1 3 .5 0 .7.6.4 1.3-.2.7.6 2.3 1.9 3.5l2.4 2.3 1.1-4.3c2.3-9.4 2.5-8.8-2.4-8.8-4.2 0-4.4.1-4.4 3m80-1.9c0 .6 1.3 2.6 2.9 4.4s3.9 6.3 5.1 9.9c2.7 8.2 2.4 20-.8 36.1-1.2 6-2.5 13.2-2.8 15.9-.4 3.6-.9 4.5-1.7 3.7-1.6-1.6-6.4-1.4-9.2.5-1.3.8-3.8 3.8-5.6 6.5-1.7 2.7-3.5 4.9-4 4.9s-.9 1.9-.9 4.3c0 3.7.6 4.9 3.7 8 2 2 4 3.7 4.4 3.7 1.3 0 5.7-5.2 7-8.2 1.5-3.6 3.6-3.6 4.3-.1.8 3.6-.1 7.9-2.2 11.5-1.5 2.5-1.5 3.2.1 9.5 1.7 7 1.7 9.8-.2 14.6-.6 1.6-1.1 5.4-1.1 8.6 0 9.5-.7 11.5-4.8 13.6-2.1 1.1-3.9 2-4 2.1-.2.2.2 1.8.9 3.8 1.6 4.4.7 5.6-6.6 9-4.8 2.2-5.5 2.9-6.5 6.8-2.4 9.4-3.2 11-7.2 13.9-2.3 1.6-4.7 2.9-5.5 2.9-1.8 0-1.7.7.9 4.3 1.5 2 2.3 5 2.6 8.8.4 4.9-.1 7.1-3.6 15.6-4.8 11.7-5.3 13.6-9.7 34.8-2.2 10.9-4 17.4-5.4 19.4-3.1 4.3-12.2 8.4-17.7 7.9l-4.4-.3v5c-.1 5.9-1.4 4.4-2.4-2.7-.4-2.7-1.3-4.9-2.2-5.2-1.1-.4-1.4-.1-1 1.2 1.1 3.9 1.8 22.7 1.1 30.4-.9 9.1-1.1 9.1-2.3.3l-.8-6-1.3 11.3c-.7 6.3-1.1 11.5-.9 11.8.3.2 1.8 0 3.4-.5 5.2-1.7 12.4-2 12.4-.6 0 .8.4 1.5.9 1.7 1.1.4-2.2 14.3-3.9 16.3-1.8 2.1-2.8 1.9-9-2-6.5-4.2-6.2-4.5-9.6 9.6-3.1 13-3 16.6.6 26.9 1.7 4.7 3 8.6 3 8.7 0 .2 45.5.3 101 .3h101V0h-59c-42.8 0-59 .3-59 1.1m-68.7 162.8-2.2.6 3 4.5c1.7 2.5 3.4 4.6 3.9 4.8 1.2.4 3.2-6.2 2.4-8.1-.3-1-1-1.7-1.4-1.7-.5 0-1.4-.2-2.2-.4-.7-.2-2.3-.1-3.5.3m-6.1 1.9c-1.2.4-3.9 2-5.9 3.6l-3.6 2.9.7 16.6c.7 18 1.1 21.1 3.1 21.1 2.7 0 4.3-3.1 4.9-9.7.4-3.7 1.3-9.1 2.1-11.8.8-3 1.3-8.8 1.2-14.2-.1-5.1-.2-9.2-.2-9.2 0 .1-1 .4-2.3.7m-121.5 7.4c-1 .5-2.7.8-3.8.5-2.9-.8-7 3.3-8.5 8.3-1.2 3.9-1.1 4.6.6 7 1.8 2.6 3.2 7.4 4.5 15.3.6 3.7.7 3.8 3.8 3.2 1.8-.4 3.7-1.3 4.3-2.1 1.3-1.6 2.8-29.9 1.7-31.9-.6-1-1.3-1.1-2.6-.3m6.5 136.8c0 1.4.2 1.9.5 1.2.2-.6.2-1.8 0-2.5-.3-.6-.5-.1-.5 1.3m1.9 20.4c-1.8 3.3-1 4.9 1.1 2.2.9-1.2 1.3-2.8.9-3.4-.5-.9-1.2-.5-2 1.2"/></svg>