<svg xmlns="http://www.w3.org/2000/svg" width="682.667" height="512" version="1.0" viewBox="0 0 512 384"><path d="M0 192v192h198.3l-.7-4.7c-1-7.5-2.3-8.1-8.9-3.9-3.1 2-6 3.6-6.5 3.6-2 0-4.1-3.9-5.6-10.7-1.5-6.7-1.5-7.3.2-10.2 1.9-3.4 3.7-3.7 9.4-1.7l3.7 1.3-.2-20.9c-.2-17.3-.4-20.1-1.3-16.6l-1.1 4.3-.7-8.6c-.5-4.7-.6-11.1-.5-14.2.3-4.8.2-5.6-1.1-5-.8.4-4.3.9-7.8 1.1-5.3.3-6.9 0-10.7-2.3-6.2-3.6-9.2-8.6-12.7-21.2-4.3-15.7-4.5-16.5-5.7-20.1-.5-1.9-3-7.1-5.4-11.6-6.6-12.1-8.1-17.2-6.7-22.1.6-2.2 2-5.8 3.1-8 1.9-3.7 1.9-4.1.3-5-5.8-3.4-11-7.3-12.6-9.5-1-1.4-2.4-5.4-3-8.9-.8-4.3-1.8-6.8-3.2-7.8-7.1-5-13.1-8.3-15.2-8.3-3.2 0-14.9-6.6-17.5-9.8-1.3-1.7-1.8-3.4-1.4-4.7.4-1.1 1-3.6 1.4-5.6.9-4.1 4-8.8 5.8-8.9 1.4 0 9.3-8 9.3-9.3 0-.9-6.2-14.6-9.5-21-1.5-2.9-1.1-5.7 1-5.7 1.6 0 4.7-3 6.4-6.1.9-1.8 1.1-4.3.7-7.5-.4-2.7-.6-6.3-.5-7.9.7-13.4.7-13.6-4.5-21.3-6-9.1-11.2-21.2-12.7-29.6-.6-3.6-.9-11.6-.7-17.9.3-10.1.6-11.9 2.6-14.6L88.1 0H0zM210.1 3.7c.5 2.1.9 5.1.9 6.6 0 4.7 4 12.6 7.1 14.2 1.5.8 3.4 1.2 4.2.9s3.2-3.5 5.3-7.1l3.8-6.5 5.2.6c2.9.3 5.9.9 6.8 1.2 5 1.9 2.2 31.5-4.4 47.3-1.5 3.6-3 9.4-3.4 12.8l-.6 6.2 4.2 2.5c3.9 2.3 4.5 2.4 6.5 1.1 2.7-1.8 13.5-2 16.5-.4 2.1 1.1 1.8 1.3 22.6-9 2.9-1.4 3-1.6 1.3-1.9-1.2-.2-2.9-1.8-3.8-3.5-2.9-5.6-6.3-24.4-6.3-34.7 0-5.2-.7-13.5-1.6-18.5-.8-4.9-1.3-10.4-.9-12.2l.6-3.3h-11.7c-10.7 0-11.8.2-13.5 2.2-1.1 1.1-1.9 2.5-1.9 3 0 .4-.9.8-2.1.8s-1.9-.5-1.7-1.2c.3-.7-.5-2.1-1.8-3C239.5.3 237 0 224.2 0h-15zM312 2.9c.5 1.4 1.1 5.5 1.5 9.1.3 3.6 1 7.2 1.5 8 .7 1 1 1.1 1 .2 0-2.3 3.8-1.2 6.3 1.8 2.3 2.7 2.7 2.8 4.1 1.4 1.3-1.2 1.6-3.9 1.6-12.5v-11l-8.4.2-8.4.2zm83.4 1.2c-2.4 3.9-2.5 4.2-1 7.4 2 4.2 2 5.7-.4 12.9-2.4 7-2.5 13.1-.6 28.6.9 6.9 1.3 15.3.9 21-.3 5.2-.1 11.1.4 13 .9 3.3 1.2 3.5 4.6 3.2 2.6-.3 3.7.1 3.7 1 .1.7.9-.2 1.8-2 2.1-3.9 7-6.8 8.6-5.2.7.7 1.1 6.3 1.1 14.3.1 12.5.2 13.5 2.9 18.7 2.3 4.3 2.9 6.7 2.7 10.8-.2 4.9-3.2 13.8-4.3 12.7-.3-.3-1.3.4-2.3 1.5s-2.5 2-3.3 2-3 1.1-4.7 2.5c-1.8 1.3-5.1 3.1-7.4 3.8-4.6 1.6-9.8 5.8-12.8 10.2l-2 3 3.6-.3c5.5-.5 10.5 3.2 10.9 8.1.3 3.7.3 3.8-6.1 6.6l-6.5 2.9-2.7 7.4c-3.3 8.7-6.1 11.9-12.6 14.8-2.7 1.1-4.9 2.3-4.9 2.6s1.1 2.2 2.5 4.2c4.1 6 3.6 13.7-1.9 27-4.2 10.1-6.9 20.4-11.5 44-1.1 5.6-2.7 11.5-3.6 13.2-4 7.7-18.9 13.5-25.6 9.9-1.9-1-2-.8-1.4 2.3.3 1.8.1 6.7-.5 10.8-1.3 9.4-3.3 40.1-2.6 40.7.2.2 1.8-.3 3.5-1.1 1.7-.9 5.1-1.9 7.5-2.2 3.8-.4 4.7-.2 5.5 1.5 2.4 4.4.3 18.2-3.1 20.5-1.8 1.3-2.6 1.1-8-2.1-3.4-2-6.4-3.1-6.9-2.6-.4.4-1.1 3.4-1.5 6.6l-.7 5.7H512V0H398zm-52.2-1.9c-2.4 2.4-.7 9.8 2.3 9.8 2 0 2.8-4 1.6-7.2-1.2-3.3-2.4-4.1-3.9-2.6M175.3 13.9c-1.2 3-3.3 13.5-3.3 16.5 0 1.2.9 3.2 1.9 4.5l1.8 2.4 3.2-2.2c1.7-1.2 3.1-2.7 3.1-3.2 0-.6.7-1.8 1.6-2.7 2.9-2.8 1.3-9.5-3.3-14l-4-3.9zm20.6 161.3c-.1.7-.1 3.4.1 5.9l.2 4.6-5.9 2.5c-3.2 1.4-7 2.8-8.5 3.2-1.9.4-3 1.6-3.8 4.1-1.1 3.3-.9 4 1.8 8.3 3.4 5.3 5.2 11 5.2 16.4 0 2 .5 4.9 1 6.3.9 2.3 1.4 2.6 3.8 2 1.5-.3 3.2-1.3 3.8-2.1s1.6-10.3 2.3-22.1c.6-11.5 1.4-22.9 1.7-25.6.3-2.9.1-4.7-.6-4.7-.5 0-1.1.6-1.1 1.2m117.2 1.7c-1.2.8-1.2 4.3-.2 23.3 1.5 28.9 1.7 30.5 4.2 31.9 1.2.6 2.3.8 2.7.5.3-.4.9-5.7 1.3-11.9.5-7.6 1.6-13.7 3.3-19 2.2-6.6 2.5-8.7 1.8-14.4-.4-4.2-1.2-6.9-2.2-7.4-3-1.6-8.3-3.9-8.9-3.9-.3 0-1.2.4-2 .9m21.5 7.6c.4.8 1 1.2 1.5.9 1.1-.6.2-2.4-1.1-2.4-.5 0-.7.7-.4 1.5"/><path d="M191.1 351.2c.1 1.3.5 3.6.9 5.3.7 2.6.8 2.2.9-2.3 0-2.9-.3-5.2-.9-5.2-.5 0-.9 1-.9 2.2m113 2.4c0 1.1.3 1.4.6.6.3-.7.2-1.6-.1-1.9-.3-.4-.6.2-.5 1.3m5 21.1c-1.6 5.5-1.4 9.3.4 9.3 1.2 0 1.5-1.4 1.5-6.5 0-3.6-.2-6.5-.5-6.5-.2 0-.9 1.7-1.4 3.7"/></svg>