<svg xmlns="http://www.w3.org/2000/svg" width="682.667" height="512" version="1.0" viewBox="0 0 512 384"><path d="M0 192v192h173.2l-.7-4.3c-.4-2.3-.7-4.4-.8-4.7 0-.3.6-1.7 1.3-3.3 1.4-2.9 3.6-3.3 10.1-1.8l3.6.8-.1-21.1c-.1-11.6-.4-19.5-.7-17.6-.5 3.2-.6 3.1-1.3-2.4-.5-3.2-.6-9.9-.4-14.8.5-8 .4-8.8-1.1-8.2-.9.4-4 .9-6.9 1.2-7.2.6-13.1-1.8-18.1-7.4-3.2-3.7-4.3-6.2-7-16.1-5.5-20.5-8.2-28-12.3-35-2.2-3.7-4.6-8.5-5.4-10.7-1.6-4.5-1.8-11.2-.4-12.1.6-.3 1-1.8 1-3.3s.7-3.6 1.5-4.6c.8-1.1 1.5-2.3 1.5-2.8 0-.4-3.1-2.8-6.9-5.2-5.2-3.4-7.3-5.5-9-8.8-1.1-2.4-2.1-5.1-2.1-5.9 0-4.9-2.2-8.6-6.2-10.9-5.2-2.8-8.8-5.9-8.8-7.6 0-.7-1.3-1.5-3-1.9-1.6-.3-4.7-1.5-6.9-2.6-2.2-1-4.5-1.9-5.1-1.9-.5 0-1-.3-1-.8 0-.4-2.2-2-5-3.5-2.7-1.5-5.4-3.6-5.9-4.5s-.7-4.8-.4-8.5c.5-6.1.9-7 4-9.7 2.3-2 4.4-3 6.7-3 3.7 0 5.8-1.9 7.4-6.7.9-2.8.5-4.5-3.4-14.5-2.5-6.2-5.1-12.5-6-14-1.4-2.6-1.3-2.9 2.4-6.7 4-4.1 6.2-10.4 6.2-17.9.1-2 .7-4.8 1.5-6.2 2.9-5.1 1.9-9.9-4.2-20-11.1-18.7-14.2-28.1-16-48.3L74.7 0H0zM98.5 3.4c-.4 1.9-.2 4.3.4 5.4 1.2 2.3 2.8 9.2 3.6 15.3 1.6 14.2 3.3 18.5 7.4 19.2 1.4.2 3.3.7 4.2 1.1 2 .9 2.2-.4 2-11.8 0-4.9.3-10.5.9-12.5 1.3-5-.3-14.4-2.9-17.3-1.2-1.2-2.1-1.6-2.1-1 0 .9-1 .8-3.6-.3-2-.8-4.9-1.5-6.5-1.5-2.4 0-2.9.5-3.4 3.4m68.8 7.2c.4 8.6.8 11 2.3 12.5 1.8 1.7 2.1 1.7 5.4.1 5.7-2.7 12.3-10.3 13.8-15.6 2.1-8 2.6-7.6-10.4-7.6h-11.7zm47.4-7.9c.9 1.6 2.7 3.9 4 5.1 2.4 2.3 2.5 2.4 4.5.6C225 6.7 228 1.9 228 .5c0-.3-3.4-.5-7.5-.5H213zm31.6 10.5c-.1 8.2-.8 16-1.9 20.3-2.6 11.1-5.6 20.7-7.5 24-1.2 2.2-1.8 6.2-2.2 15.6l-.5 12.7 4.5 3.1c4.1 2.9 4.7 3.1 6.2 1.7 2.3-2.1 13.5-3.8 16.7-2.5 2.8 1 4.8.4 3.8-1.3-.4-.6.1-.8 1.5-.3 1.2.4 4-.1 6.6-1.1 3.5-1.3 4.5-2.2 4.5-3.9 0-4.1 1.3-8.6 2.3-8.2.6.2 1.5 1.2 2.1 2.2 2.7 4.8 3.2 4.9 11.2 2 4.1-1.5 7.6-3.1 7.9-3.5.3-.5 0-2.9-.7-5.4-1.1-4.2-1.4-4.5-4.3-4.4-1.8.1-3.7-.2-4.3-.6-.6-.3-1.3-.2-1.7.4-1.1 1.8-4.2 1.1-5.7-1.3-1.3-2-3.9-12.3-5.3-20.8-.3-1.9-.9-10-1.5-18-.5-8.3-1.6-16.4-2.5-19.2L273.8 0h-27.3zM313 .9c0 .6.4 1.2.9 1.5.4.3 1.1 2.4 1.4 4.6.7 5.1 2.2 7 5.7 7 2.1 0 3 .7 4 2.9 1.2 3.1 3.8 4.8 5.1 3.4.4-.4 1.4-4.2 2.2-8.3.9-4.1 1.9-8.5 2.3-9.8.6-2.2.6-2.2-10.5-2.2-6.3 0-11.1.4-11.1.9m49.4.5c-1.2 3.2 0 6.1 2.9 6.4 2.6.3 2.7.1 2.7-3.7 0-3.7-.2-4.1-2.5-4.1-1.4 0-2.8.6-3.1 1.4m31.9 3.8c.3 2.9 1 10 1.5 15.8 1.2 11.9 2.9 26.6 3.9 32.5.4 2.2.7 11.1.7 19.9.1 13.8.3 16 1.8 16.9 2.3 1.5 8.6-.7 11.4-3.9 2.4-3 4.8-2.4 6.9 1.6 1 2 1.3 5.2.9 12.4-.6 11.3.6 14.3 6.7 17 3.6 1.6 3.9 2 3.9 5.9 0 2.3-.7 5.3-1.5 6.7s-1.7 3.2-2.1 4c-1.1 2.2-4.4 6.4-4.4 5.5 0-.4-.6-.3-1.2.3-.7.5-3.2.8-5.5.6-3.7-.3-4.9.2-10.4 4.2-6.6 4.9-10.8 9.2-10.9 11.1 0 .7-1.5 3.8-3.4 7l-3.4 5.8 3.9.6c4.6.6 9.9 5.2 9.9 8.5 0 2.6-1.7 4.1-8.3 7.4-4.5 2.3-5.2 3.1-7.8 9.3-4 9.4-5.5 11.3-12.7 14.9-7.3 3.6-7.7 4.1-5.6 5.9 2.2 1.8 5.4 9.4 5.4 12.6 0 1.4-2.4 8.7-5.4 16.2-6.2 15.7-9.5 28.6-13.1 51.1-2.1 12.9-12.1 20.8-25.3 19.8l-5.8-.4-.1 7.5c-.1 4.2-.6 15.9-1.2 26.1s-.8 19.5-.5 20.7c.6 2.1.6 2.1 4.7.2 2.3-1 6-1.9 8.2-1.9q7.5 0 5.4 8.7c-.5 2.1-.9 4.8-.9 6v2.3h172V0H393.8zM316 49.1c0 3.2 1.5 6.9 2.9 6.9 1.1 0 2.2-6.6 1.4-8.6-.3-.8-1.4-1.4-2.4-1.4-1.5 0-1.9.7-1.9 3.1m-3.7 133.6c.4 3.2 1.2 14.8 1.7 25.8 1.6 29.1 2 31.9 4.7 32.3 2.6.4 2.9-1.1 3.7-15.3.3-6.1 1.4-11.9 3.4-18 4.8-14.5 4.1-23.5-1.6-23.5-1.5 0-3.8-1-5.2-2.3-1.4-1.2-3.4-2.1-4.4-1.9-1.4.3-1.7 0-1.3-1.2.4-.9.1-1.6-.5-1.6-.7 0-.9 1.8-.5 5.7m-117.1 2.4c-.2 1.6-5 6.5-9.2 9.2-1.3 1-4 1.7-6 1.7-3.2 0-3.6.3-4.8 4-1.3 4.4-.9 5.8 3.4 11.5 2.7 3.7 4.1 8.7 5 18.8.5 6.3.9 7.7 2.1 7.3.8-.4 2.5-.9 3.8-1.2s2.6-1.3 2.9-2.1c.9-2.4 3.8-42.7 3.3-47-.2-2.1-.4-3.1-.5-2.2m142.3 3.2c-.4 1-.5 2-.3 2.3.8.7 3.8-.7 3.8-1.8 0-.5-.4-.7-.9-.4-.5.4-1.1 0-1.4-.6-.3-.9-.7-.7-1.2.5M188.7 362c-1.2 4.4-.8 10 .7 10 1 0 1.2-1.3.9-5.3-.6-6.9-.8-7.6-1.6-4.7m125.1 0c-.4 1.4-.8 3.8-.8 5.5.1 2.5.2 2.7 1.1 1.2.6-.9.9-3.4.7-5.5-.3-3.3-.4-3.5-1-1.2"/></svg>