<svg xmlns="http://www.w3.org/2000/svg" width="682.667" height="512" version="1.0" viewBox="0 0 512 384"><path d="M0 192v192h182.1l-.6-11.7c-.4-6.5-.7-19.5-.8-28.9v-17.1l-3.8 1.9c-5.1 2.4-9.8 2.3-16.4-.6-9.6-4.3-12.1-8.1-16.4-24.9-5-19.3-6.9-24.8-13.2-37.4-6.2-12.3-8.6-21.2-6-22.7.6-.4 1.1-1.9 1.1-3.3 0-1.3.9-3.8 2.1-5.4 1.1-1.6 1.7-3.3 1.4-3.9-.4-.6-2.9-2.2-5.6-3.6-10.3-5.2-14.3-10.8-17.3-24.5-.4-1.8-2.1-3.4-5.8-5.4-6-3.2-8.7-6-8.8-9.2 0-2.5-2.8-8.2-5-10.1s-9-4.8-13-5.6c-4.3-.7-8-3.2-8-5.2 0-2.1-6.1-7.3-8.6-7.4-1.1 0-2.9-.9-3.9-2-1.7-1.8-1.7-2.5-.5-7.6.7-3 1.7-5.7 2.2-6 .4-.3.8-1.2.8-2 0-3.6 5.6-6.2 9.2-4.3 1.3.6 4.3 2.8 6.8 4.9 5.3 4.4 8.5 5.6 9.6 3.8 1.8-2.8.2-13.4-3.3-22.8-2-5.2-3.9-12.7-4.4-16.5-.4-3.9-1.1-9.5-1.5-12.6-.5-4.1-.2-7.3 1-11.5 2.1-7.3 3.9-11.1 5-10.4 1.2.8 3-3.1 3.6-8 .3-2.5 1-4.4 1.6-4.3 1.6.3 2.6-9.6 1.4-13.7-1.7-5.8-1.3-11.7.9-13.2 1-.7 2.5-3.3 3.2-5.7.8-2.7 2.1-4.7 3.6-5.4 1.2-.5 2-1.3 1.8-1.7-.3-.4.7-1.6 2.1-2.6 1.6-1.2 3.2-4.2 4.4-8.3 3-9.5 3.3-9.1-7.4-9.1-9.2 0-9.4.1-10 2.5-.3 1.3-1.9 3.9-3.4 5.7-1.6 1.8-3.2 4.2-3.6 5.2-.6 1.8-.8 1.7-2.4-1-1-1.6-2.4-4.5-3.2-6.4-2.4-6.3-.3-6-37.1-6H0zM243 8.2c-2.1 13.5-3.8 20.8-5.5 23.4-1.2 1.9-1.7 6.3-2.1 21.7-.2 10.5-.9 25-1.4 32.1-.5 7-.7 13.2-.4 13.7s2.5 2 4.9 3.5c3.4 1.9 4.8 2.3 6.3 1.5 2.8-1.5 13.9-2.1 17.2-1 2.2.8 3.4.7 5.3-.6 2.2-1.4 2.4-2 1.6-5.3-.5-2-.9-5.4-.9-7.5s-.9-5.5-2-7.7c-2.1-4.1-2.6-8.5-1.2-9.4.5-.3 2.6 1.3 4.7 3.4 2.2 2.2 4.7 4 5.7 4 2 0 4.3-3.2 5.3-7.3.4-1.5 1.1-2.7 1.6-2.7.8 0 1.8-4.2 2.2-8.8.2-3.9 2.6-2.4 5.7 3.8 1.2 2.5 3.9 6.7 5.9 9.4 2 2.8 4.3 6.8 5.1 9 1.3 3.5 2 4.1 4.4 4.1h2.8l.3-17.5c.2-11.1.8-18.6 1.6-20.5.7-1.7 1.5-5.3 1.8-8 .6-4.9.7-5 3.8-4.7 2.4.3 3.5-.2 5-2.3 1-1.4 3.1-3.9 4.6-5.6 2.7-2.7 2.9-3.6 3.2-11.7.1-4.8 0-10.6-.3-13-.5-4.2-.5-4.2-4.7-4.2-2.8 0-4.7.6-5.8 1.8-2.5 2.7-4.7 8.7-4.7 12.6 0 1.9-.4 3.8-1 4.1-.5.3-1 1.7-1 2.9 0 1.3-.7 2.9-1.5 3.6-1.2 1-2.1.6-5.1-1.9-2.1-1.6-4.1-2.8-4.5-2.6-.3.3-1.2-.9-1.9-2.5-1.8-4.4-3.9-5.8-5.5-3.7-.6.9-2.3 1.8-3.6 1.9-2.3.3-2.4.1-2.7-8l-.3-8.2h-41.7zM366 .4c0 .3 1 2.2 2.2 4.3 2 3.3 2.3 5.3 2.5 16.8 0 7.1.2 13.4.2 14 .3 1.8 3-3.9 3.1-6.3 0-1.2.7-2.5 1.5-2.8.8-.4 1.5-1.6 1.5-2.8 0-1.1.9-3.6 2-5.4 1.5-2.5 2-5 2-10.7V0h-7.5c-4.1 0-7.5.2-7.5.4m47.6 24.4c.6 22.1.5 25.2-1 28.1-1.5 2.8-1.6 4.8-.7 17 .6 9 1.5 14.9 2.5 16.9.9 1.7 1.6 3.8 1.6 4.7 0 2-.1 2 6.8-1.6 3.3-1.8 6.7-4.4 7.6-6 2-3.5 3.9-3.6 6.7-.8 2 2 2.1 2.9 1.6 12.6l-.5 10.4 2.7 1c1.4.6 4.3.8 6.5.4 5.4-.8 6.6.6 6.6 7.4 0 6.7-2.2 14.6-5 17.9-4.2 5.1-13 5.1-15.5.1-1.1-2-2.3-2.9-4-2.9-1.4 0-2.5.4-2.5 1 0 .5-.6 1-1.4 1-1.3 0-3.7 5.8-7.1 17.2-.9 3.1-2.2 6.2-3 6.8-.7.6-1.5 2.3-1.8 3.8-.7 3.4-7.2 15.2-10.3 18.5-2.5 2.7-2.2 3.7 1.2 3.7 2.3 0 9.4 7 9.4 9.4 0 2.5-3.4 5.5-8.4 7.3-4.7 1.7-5.2 2.2-9.2 10.2-5.4 10.6-8.1 13.3-16.3 16.7s-7.7 3-5.8 5.2c5.2 5.8 6.1 16.3 2.1 25.7-6.3 14.8-9.7 25.9-13.4 44.8-2.2 11.1-4.5 21.4-5.1 23-.7 1.5-2.9 4.5-5.1 6.6-5 5.1-11.9 7.5-20.1 6.9l-6.2-.4-.3 16.6c-.1 9.1 0 19.5.4 23.2l.6 6.8H512V0h-99z"/><path d="M58 150c0 1.1 1.2 2.6 2.9 3.4 2.6 1.4 3 1.4 3.6-.2.4-1.1-.1-2.3-1.5-3.4-2.9-2.4-5-2.3-5 .2m254.6 29.5c-.3.9.1 7.4.9 14.5.9 7.2 2.4 24.5 3.4 38.6 1.7 25.1 2.1 27.3 5.3 27.4 1 0 1.6-4.7 2.2-16.7.3-5.6 1.3-12.2 2.1-14.5.8-2.4 1.5-5 1.5-5.9 0-.8 1.1-3.8 2.5-6.5 1.7-3.4 2.5-6.5 2.5-10.2 0-4.8-.2-5.2-2.4-5.2-1.9 0-2.8-1.1-5-5.9-1.4-3.2-2.6-6.2-2.6-6.6 0-1.1-5.7-6.5-6.9-6.5-1 0-1.5-1.4-1.2-3.3.2-1.4-1.7-.7-2.3.8M194 188.8c0 .7-.9 2.2-1.9 3.3s-2.4 4-3 6.3c-.7 3-2.3 5.5-5.1 8-3.5 3.1-4.7 3.6-9 3.6-4.5 0-5.2.3-6 2.5s-.3 3.7 3.4 9.8c5.2 8.5 6.2 12.1 7.2 24.4.3 5.1 1 9.3 1.4 9.3 1.3 0 7.8-2.9 8.3-3.7.3-.5 1.5-12.1 2.7-25.8 1.2-13.8 2.5-27.5 3-30.5.4-3.1.4-6.2-.1-7-.6-1.1-.8-1.1-.9-.2m122.8 189.7c-.6 4.9-.4 6.4.8 5.3.3-.3.4-2.8.2-5.4l-.3-4.9z"/></svg>