<svg xmlns="http://www.w3.org/2000/svg" width="682.667" height="512" version="1.0" viewBox="0 0 512 384"><path d="M0 192v192h64c52.6 0 64-.2 64-1.3 0-2.2-6.7-25.7-9.5-33.7-1.5-4.1-4.5-10.2-6.6-13.5-5.5-8.8-8.9-16.6-9.6-22.3-.6-5.3 1.8-17 4.3-20.9 1.6-2.5 1.1-2.8-12.4-9.8-4.5-2.4-8.6-5.4-10.7-7.9-3.6-4.5-9-14.9-10-19.5-.7-3.3-3.3-5.9-9.1-9.1-3.9-2.1-6.4-5.4-6.4-8.4 0-1.8-2.5-3.8-9.5-7.5-11.7-6.4-14.3-8.2-16.6-11.6-1.8-2.5-3.4-3.6-6.2-4.1-2.1-.3-4.1-1.2-4.4-2s-1.1-1.4-1.9-1.4-1.4-.1-1.5-.3c-1.3-6.7-1-8.8 2.1-12.7 1.7-2.2 3.6-3.7 4.1-3.4 1 .6 9.9-4.6 9.9-5.9 0-.4 1.4-.7 3-.7 1.7 0 3-.5 3.1-1.3 0-.6.3-3.9.5-7.1.7-10.1-2.8-17.3-14.7-29.8-7.7-8.2-7.2-6.7-9.3-28.3-2.7-26.9-2.9-35.3-1.2-42.9 2.5-10.4 4.3-13.8 7.5-13.4 2.1.2 2.9-.4 4.3-3.2 1-1.9 2-5.2 2.3-7.3.9-5.5 3.5-5 3.3.7-.1 8.4 3.5 14.6 7.7 13 1.2-.5 1.6-1.8 1.4-4.8-.3-7.3 0-8.4 2.8-9.8 1.5-.7 3.7-3.1 5-5.3 2.7-5 5.5-8.4 6.8-8.5.6-.1 2.5-2.5 4.4-5.4 2-3.3 4.7-6 6.7-7 1.9-.8 3.4-2.1 3.4-2.8 0-.6.3-.8.7-.5 1.6 1.7 8.7-12.6 9.7-19.6l.7-4.7h-29C37.1 0 24 .2 24 .5s.5 1.4 1.2 2.4c1.4 2.3-.1 17.3-1.8 17.8-4 1.3-6-9.4-2.9-15.3C23.2.2 22.9 0 11 0H0zM160 .9c0 .6.5 1.3 1 1.6.6.3 1 1.5 1 2.6s1.4 4.1 3.1 6.5c2.5 3.6 3.5 4.4 5.2 3.9 2.6-.8 6.7-5.4 6.7-7.6 0-2.4 4-6.2 5.3-5 .8.6 1.8.5 3-.4 2.4-1.8 9.4 0 11 2.9.8 1.4 1.3 9.4 1.5 24.1.1 12.1.5 22.9.7 24.1.3 1.4 2 2.7 4.8 3.8 4.1 1.5 4.4 2 6.7 8.9 4.1 12.1 8.4 14.7 14.1 8.5 4.1-4.5 3.6-11.6-1.4-19-1.6-2.3-2.1-4-1.6-5.3.4-1.1.8-5.1.8-8.8.1-5.5.4-6.9 1.9-7.4 3.7-1.4 4.2-3.1 5.1-17 .5-7.6 1.2-14.6 1.6-15.6.7-1.6-1.4-1.7-34.9-1.7C174 0 160 .4 160 .9m114.7 3.3c1.3 7 .9 14.1-1.1 18.5-1.5 3.3-2.8 4.6-6.2 6-3.3 1.3-4.5 2.5-5 4.5-.3 1.5-1 3-1.5 3.3-.5.4-.9 1.5-.9 2.7 0 3-4 15.7-5.5 17.1-1.5 1.6-4.8 7.7-4.1 7.7.3 0 .1 1.2-.5 2.7s-1.2 5.7-1.5 9.3c-.2 3.6-.8 9-1.4 12-1.9 11-1.9 12-1 12 .6 0 1.1-.1 1.3-.3.2-.1 1.8 1 3.6 2.5 2 1.7 4.4 2.8 6.2 2.8 5.4 0 6.9 1.5 6.9 7 0 4.6-2.5 12-4 12-.8 0-2.1 3.1-7.1 16-4.7 12.1-6.9 15.1-14.5 19.3-5.1 2.8-7 3.4-8.4 2.7-1-.6-2.5-1-3.2-1s2.2 1.9 6.5 4.1l7.8 3.9 4.5-1.5c3.8-1.3 5.2-1.3 10.2-.1 3.2.7 6.7 1.9 7.9 2.6 1.8 1.2 3 .8 10.2-3.4 5.2-3.1 8.1-5.4 8.1-6.5 0-1 1.3-3.8 3-6.2 1.6-2.4 3-5.2 3-6.2 0-2.8 3.7-2 5.7 1.3.9 1.7 2.1 3 2.4 3 2.7 0 2-12.9-.9-17.2-.9-1.4-3-4.5-4.7-6.8-2.9-4.2-3-4.9-3.1-14.9-.1-11.8-1-18.3-3-22.4-.8-1.5-1.2-2.7-.8-2.7s.2-.6-.3-1.3c-2.7-3.3-2.1-9 1.2-12.3 1.1-1.2 1.5-3.9 1.5-10.9 0-12.2 1.6-23.7 4.2-30.3 2.4-6.1 4.5-6.7 8-2.1 4 5.3 6.7 7.9 8.1 7.9 2.9 0 9.7-7.1 10.8-11.4.6-2.2 2.2-6.6 3.4-9.6 1.3-3 2.7-8.3 3.1-11.8l.7-6.2h-50.5zm191-1.8c1.7 2.3 2.5 2.5 12.2 2.8 10.1.3 10.5.4 12.5 3.1 1.9 2.6 2.1 4.1 2.1 20 0 10.4-.6 19.9-1.4 24-1.3 6.7-1.7 22-1 48.2.3 14.5-.6 24-2.2 23-.5-.3-.6 0-.3.8.4 1-.6 1.6-3.5 2.1-2.3.3-4.1 1-4.1 1.5 0 .4-3 1.8-6.7 3s-7.4 2.7-8.1 3.4c-2.6 2.1-5.2 1.5-5.9-1.2-2.5-10.7-8.9-14.2-14.7-8.2-2.6 2.7-2.8 3.5-2.4 7.9.5 5 3.6 10.4 6.2 10.8.7.1 2.5 1.4 3.9 2.8 3.3 3.3 5.5 3.3 6.3.1.9-3.4 2.9-3.1 6.5 1 2.8 3.1 3.2 4.4 3.6 10.9.3 5-.3 11.2-1.6 18.7-1.2 6.2-2.1 12.7-2.1 14.4-.1 3.8-4.9 11.6-12.5 20.2-10 11.1-12.8 13.8-17 16.3-4.5 2.6-8.5 6.4-8.5 7.9 0 .6 1.7 1 3.8 1 7.4-.3 15.2 5.5 15.2 11.4 0 3.3-3.1 6.6-7.8 8.1-4.2 1.4-5.3 2.5-10.2 9.8-10.1 15.1-19.1 22.3-30.6 24.4-6 1-6.8 2.1-4.4 6 1.2 1.8 2.5 6 3.1 9.3 1.3 7.3.1 11.9-7 27.8-5.9 13.1-8.4 20.9-12 37.5l-2.8 12.8H512V0h-48.1zM183 261.1c-1.9 2.8-3.3 6.1-3.2 7.3.3 4.4-3.1 6.1-11.6 5.8-7.5-.3-7.6-.4-11-4.2-1.8-2.2-3.9-4-4.5-4-.7 0 .3 1.4 2.1 3 1.7 1.6 3.2 3.4 3.2 3.9s.4 1.1.9 1.3c2 .7 8 12.2 9.1 17.2.5 2.8 1.4 11.3 1.9 18.9s1.1 14 1.3 14.2c.6.6 9.2-1.5 10.2-2.5.4-.4 1.6-10 2.7-21.2 1.7-19.1 3.2-32.5 4.5-41.1.8-5.3-1.3-4.8-5.6 1.4m140 26.1c0 3.5.7 13.5 1.5 22.3s1.5 17.1 1.5 18.5c0 1.8.3 2.1.9 1.1.5-.7 1.2-7.9 1.5-16 .4-8 1.2-17 1.7-19.9 1.2-5.8.8-6.7-4.3-10.3l-2.8-2z"/></svg>