<svg xmlns="http://www.w3.org/2000/svg" width="682.667" height="512" version="1.0" viewBox="0 0 512 384"><path d="M0 192v192h114l-1.7-3.7c-1-2.1-3.9-7.2-6.5-11.3-8.2-13.1-10.3-18.5-10.2-26.5 0-7.2 1.7-14.9 3.6-17.3 1.5-1.8.7-2.5-9.8-7.6-14.6-7.1-19.6-12.7-25.5-28.9-3.1-8.4-3.4-8.9-7.6-10.9-6.1-2.8-7.7-5.6-6.8-11.4.3-2.5 1.5-6.6 2.5-9 1.1-2.4 1.5-4.4 1-4.4-.6 0-1-.6-1-1.3 0-.8-.9-2.2-2-3.2s-2-2.4-2-3.2c0-.7-.4-1.3-.9-1.3-2.2 0-8.1-4.7-9.8-7.8-1-1.8-3.4-4.2-5.3-5.4-1.9-1.1-5.4-4.4-7.8-7.4-4.3-5.4-6.8-6.7-7.8-3.9-.5 1.2-1.3.8-3.8-1.9-1.7-1.8-4.3-3.6-5.8-4-2.8-.6-5.6-4.2-4.2-5.4.4-.4.9-.1 1.1.5.3.7 1.1 1.3 1.9 1.3s1.4.4 1.4 1c0 2.4 3.2.7 5.5-3 1.4-2.3 3-3.8 3.4-3.5.5.2 1.2-2 1.6-5 .3-3 1.5-6.4 2.5-7.7 1.7-2.2 7-16.5 7-19 0-.6-.7-1.9-1.5-2.8-1.3-1.4-1.2-1.9 1-4.3 3.5-3.7 3.1-5.9-2-11.7-3.9-4.4-4.5-5.6-4.5-9.6 0-4.4-1.8-9.3-4.7-12.5-1.7-2-4.3-11.2-4.3-15.4 0-1.7-.6-3.9-1.3-5-4.2-6.3-4.8-10.6-5.1-37.6-.3-20.8 0-27 1.1-29.7.7-1.8 1.1-3.8.7-4.3-.9-1.6 3.5-5.7 7-6.5 2.7-.6 2.9-.8 1.1-1.5-1.9-.7-1.9-.8.2-.8 1.3-.1 2.7.8 3.4 2.1 2.4 4.5 7.2 7.5 13.5 8.3 5 .6 5.1.6 6.5-2.6.7-1.8 2.6-4.8 4.2-6.6 2.5-2.8 3-4.4 3.6-11.7.8-8.6 2.7-13.1 7.1-17.1 1.1-1 2-2.2 2-2.7C55 .4 42.6 0 27.5 0H0zM56 1.1c0 .5.5.7 1 .4.6-.3 1-.8 1-1.1 0-.2-.4-.4-1-.4-.5 0-1 .5-1 1.1M202 4c2.6 5 2.5 9.4-.2 16-1.8 4.4-2 5.6-1 8.4.7 1.8 1.2 5.4 1.2 7.9 0 3.4.5 5.2 1.9 6.3 1.8 1.6 1.8 1.8-.5 6.8-1.3 2.8-2.4 6.4-2.4 7.9 0 3.8 2 11.7 3 11.7 2 0 4-1.3 4-2.6 0-2.3 3.7-1.6 5.9 1.2 1.4 1.8 2.1 4.1 2.1 7.2 0 5.2 1.8 7.1 6.7 7.2 1.7 0 3.4.4 3.7.9.3.4 2.8.6 5.5.3l4.9-.4-.5 4c-.8 6.3.2 9.2 3.4 9.2 3.8 0 6.3 2.6 5.7 6q-.6 2.7.9 3.3c1 .4 1.8-.6 2.7-3.4.9-2.5 2.4-4.5 4.6-5.8 1.7-1.1 5.1-4.5 7.4-7.6s4.7-5.8 5.4-6.1 2.4-2.8 3.7-5.7 3.9-7.1 5.7-9.4c3-3.7 3.3-4.8 2.8-8-1.1-6.2-2.7-9.3-4.7-9.3-1.1 0-1.9.4-1.9.9s-1.6 1.9-3.5 3.1-4.3 3.5-5.2 5.1c-1 1.6-2 2.9-2.4 2.9s-3 2.2-5.8 4.9c-3.9 3.6-5.3 5.8-5.9 8.7l-.7 4-4.3-.9c-5.3-1-7.4-4-8.4-12.1-1.1-8.2-1.1-9.8 0-10.5.5-.3 1.9-2.8 3.1-5.5 1.6-3.7 2.1-6.9 2.1-13.1 0-7.5-.2-8.3-2.6-10.6-1.4-1.3-3.2-3.6-3.9-5-1.2-2.3-1.1-2.8 1-5.5 1.3-1.6 2.4-3.7 2.5-4.7 0-.9.5-1.7 1-1.7.6 0 1-2.3 1-5V0h-40zm66.3 5.1c.5 8 .9 9.5 3.1 11.8 1.4 1.5 2.6 3.2 2.6 3.8s1.1 3.6 2.5 6.7c1.8 4 2.9 5.4 4 5 2.1-.9 1.9-5.6-.6-11.3l-2-4.8 2.5-5.5c1.8-3.9 3.3-5.7 5-6.2 1.7-.4 2.6-1.6 3.4-4.6l1-4h-22.1zm169.2 8.6c.2 14.3.5 17.9 1.6 18.1.8.1 2.2 2.1 3.1 4.3 1.4 3.2 2.2 4 3.9 3.7 2.4-.4 4.2-4.8 5.8-14.5.5-3.4 1.8-8.1 2.8-10.4 1.6-3.7 2.4-4.4 6.3-5.3 4.3-1.1 4.4-1.2 6.1-7.4l1.7-6.2h-31.5zm69.9-16c.9 2.8 1 21.4.2 25.3-.4 1.9-1.6 5.3-2.5 7.5-2.1 4.6-4.1 19.8-4.1 30.8 0 5.5.6 8.7 2.2 12.3 1.7 3.9 2.3 7.3 2.6 17.1.5 15.3-1.1 22.7-8.3 37.8-2.9 6-5.5 12.8-5.8 14.9-.4 2.2-2 5.9-3.6 8.1-3.1 4.3-5.2 9.3-7.6 17.8-.8 2.6-2.7 7.3-4.4 10.5-4.2 8.3-9.9 23.8-11.2 30.7-1.2 6.7-5 13.9-8.4 16.1-4 2.6-11.7 15.6-13.6 22.8-.5 2.3-1.9 5.3-3 6.9l-2 2.7h2.3c3 0 9 4.1 10.4 7.1 1.8 3.8 3.4 9.4 3.4 11.5 0 2.6-3.9 6.3-7.6 7.2-2.1.6-3.5 2-5.1 5.4-1.3 2.6-6.2 8.8-10.9 13.7-9.2 9.7-15.6 13.6-26.1 16.1-2.9.7-5.3 1.7-5.3 2.3 0 .7.7 3.7 1.5 6.7 2.9 10.7 1.9 15.9-5.7 32-4.3 9-7.8 17.3-7.8 18.6 0 .2 28.1.4 62.5.4H512V0h-2.6c-2 0-2.4.4-2 1.7M416 30.5c-.5 1.4-.6 3.3-.3 4.2.8 2 3.5 4.3 4.4 3.7.3-.2 1.2.9 2 2.4l1.4 2.7.3-4.2c.6-8.3-5.4-15.1-7.8-8.8m18.2 7.7c-.7.7-1.2 2.4-1.2 3.8 0 2.6-1.5 3.9-6.3 5.4-2.7.9-3.1 3.3-1.2 7.5 1.6 3.6 2 3.9 6.8 4.4 3.3.3 5.5 0 6-.7 1.6-2.5 1.9-6.2.8-10-.7-2.3-1.5-5.8-1.8-7.9-.5-3.9-1.2-4.4-3.1-2.5"/><path d="M260.8 51.2c-.3 1.5-.1 3.2.3 4 1.4 2.2 2.1.2 1.1-3.3-.8-3.4-.9-3.4-1.4-.7M499.2 67c0 1.9.2 2.7.5 1.7.2-.9.2-2.5 0-3.5-.3-.9-.5-.1-.5 1.8m-34.7 10c-5.1 2.1-11.5 12.8-11.5 19.2 0 8.3 5.1 22.9 8.5 24.2.9.3 3.1.6 4.8.6 2.5 0 3.7-.7 5.3-3.3 6.1-9.5 5.9-8.5 6.2-22.3l.4-13.1-3.4-3.2c-3.3-3.1-6.4-3.8-10.3-2.1m-178.2 40.8c-2.5.3-3.8 1.3-6.3 5.2-2.6 4.1-3.1 5.8-2.9 9.7.5 9.1 0 12.3-1.7 12.3-3.2 0-8.5 3.3-10.1 6.3l-1.5 3-2-4.4c-2.4-5.2-3.3-5.9-7.4-5.9-2.7 0-3.4-.7-6.7-6.6-2-3.7-3.7-7.6-3.7-8.8 0-1.5-1.3-2.8-4.2-4.4-6.3-3.3-7.8-3-7.8 1.7 0 2.7-.8 4.9-2.9 7.4-1.8 2.4-3.3 5.8-4 9.9-1.3 6.5-3.6 11.2-5 10.4-.4-.3-1.7.2-2.9 1-1.6 1.1-2.2 2.5-2.2 5.5 0 3.5-.4 4.1-3.4 5.6-2.8 1.3-3.6 2.3-4.1 5.5-.4 2.2-.5 4.1-.3 4.2 1.7 1.5 18.4 5.7 21 5.3 2.2-.3 5.3.4 9.1 1.9 4.6 2 6.2 2.2 7.9 1.3 3.1-1.7 16.2-.8 18.5 1.3 1.7 1.6 2.3 1.5 8.8-.3 3.9-1 9.5-3.1 12.5-4.6s8.7-3.2 12.5-3.8c4.4-.7 6.9-1.6 6.7-2.3-.1-.7.2-1.2.7-1.2.8 0-.7-9.6-2.8-17.5-.6-2.2-1.1-7.1-1.1-10.8 0-5.9-.3-7.1-2.5-9.3-3.4-3.4-5.1-7-5.9-12.6-.7-5-1.4-5.5-6.3-5m2.7 55.7c0 1.3-.6 2.7-1.2 3.1-.7.4-1 .3-.5-.1.4-.5-.2-1.9-1.4-3.1-2.5-2.7-1.8-4.9 1.2-3.4 1.1.6 1.9 2.1 1.9 3.5m-107.7 120c-3.7 2.6-18.5 5.2-22.5 3.9-1.3-.4-2.4-.6-2.6-.5-.1.1-1.6-.6-3.2-1.4-4.1-2.1-3.8-.6.6 2.9 6.7 5.3 10.9 17.9 12.4 37.4.5 6.8 1.2 12.7 1.4 13.1.3.4 3.2.1 6.5-.8 6.9-1.8 6.6-1.3 7.6-14.6.3-4.4 1-13 1.6-19.1 1-11.4 1.8-23.5 1.6-23.3-.1 0-1.7 1.1-3.4 2.4m142 7.2c1 15.7 3.7 48.7 4.3 52.3 1.1 6.5 2.4.7 3.3-15.3.6-10.3 1.5-16.7 2.6-19.3 5.1-12.1 5.7-17.4 1.9-17.4-.7 0-3.4-2-6.1-4.5-2.6-2.5-5.2-4.5-5.7-4.5s-.6 3.9-.3 8.7"/></svg>