<svg xmlns="http://www.w3.org/2000/svg" width="682.667" height="512" version="1.0" viewBox="0 0 512 384"><path d="M0 5.7c.1 5.7.1 5.7 1.4 2.8 2.2-4.8 4.7-5.8 10.3-3.9 10 3.4 12.5 5.6 14.4 12.9 1.5 5.5 2.6 6.5 6.8 6.5 3.6 0 3.8-.2 5.4-5.3.9-3 1.7-6.3 1.7-7.4s1.1-4.1 2.5-6.7L44.9 0H0zM197.5 1c.3.5.7 4.2.9 8.2.2 5.4 1.3 10.5 4.4 19.5 4.8 13.9 5 16.6 2.1 22.5-1.7 3.5-1.9 4.8-1 7.1 1.2 3.1 2.8 3.1 8.8-.3 3-1.8 3.2-1.8 4.8-.1.9 1.1 1.7 3.9 1.8 7 .1 3 .7 5.3 1.5 5.6.6.2 1.2.9 1.2 1.5 0 1.9 7.1 12 8.4 12 2.1 0 5.6 4.5 5.6 7.1 0 2.8.8 4 3.5 5.5 1.5.8 2.1 2.3 2.3 5.8.3 4.5.1 5-4.6 9.7-2.7 2.7-5.2 4.5-5.6 4.1s-.5.4-.2 1.8c1.1 5.5 1.6 14.9.8 15.4-.5.3-2.1 3.6-3.6 7.3-4.2 10.1-4.8 11.3-6.4 11.3-.7 0-2.6.9-4.1 2-2.5 1.7-2.9 2.8-3.5 9.2-.6 6.1-.3 8.1 1.5 12.8 4 10 5 10.2 13.5 2.2 3.6-3.3 6.9-5.6 7.8-5.4 2.6.6 4.4-1.5 5.2-6.1.5-3.2.8-3.7 1.4-2.3.6 1.7.7 1.8 1.3.3.4-1.1 1.8-1.7 3.6-1.7 1.7 0 3.4-.6 3.8-1.3 1.3-1.9 7.1-3.7 7.8-2.3.3.6.3-3.6 0-9.4-.4-7-1.2-11.8-2.4-14.5-4-8.8-4.4-10.3-3.2-13.6 1.4-4.1 1.4-12.4-.1-18.8-.8-3.6-.8-5.8-.1-7.3 5.2-11.5 5.8-15.8 2.3-15.8-2.6 0-4.4-2.8-4.2-6.1.2-2.5-.3-3.2-3.1-4.4-1.9-.8-3.8-2-4.4-2.7-1.3-1.5-3.8-50.4-3-56.3.3-2.2.9-5.5 1.3-7.3l.6-3.2h-23.6c-15 0-23.5.4-23.1 1m239.3 1.2c-.1 1.3-.2 7.7-.2 14.3-.1 9.9-.4 12.6-1.9 14.9-2.7 4.1-5.6 21.6-3.5 21.6.4 0 .8.9.8 2 0 3.1 4.7 7 8.4 7 2.9 0 3.3.5 5.4 5.8 1.2 3.2 2.2 6.1 2.2 6.5s.9 1.7 1.9 2.9c1.1 1.1 1.7 2.6 1.4 3.4s-.1 1.4.4 1.4c.6 0 1.5 1.7 2.1 3.8 2.2 7.2 12.1 18.6 17.2 19.7 3.8.8 9-1.3 9-3.7 0-1 .6-1.8 1.3-1.8.8 0 2.2-.9 3.2-2s2.5-2 3.4-2c1.8 0 7.1-5.9 7.1-8 0-2.3 5.4-12.3 6.5-12.2.6.1 1.2 1.4 1.5 2.9s1.3 4 2.3 5.5c2.2 3.2 2.4 9.1.9 20.3-1.8 12.9-2.4 15.5-3.3 15.5-.5 0-.9.5-.9 1.1 0 1-3.3 9-5 12.1-3 5.5-3.6 6.3-4.2 6.8-.3.3-1.4 3.2-2.3 6.4-1 3.3-2.7 6.9-3.9 8.1-2.3 2.3-4.8 6.9-6.1 11.5-.4 1.4-2.7 6.5-5 11.5-3.8 8.1-4.4 10.2-5.5 21-1.6 17-1.7 17.3-5.3 24.7-2.2 4.6-4.4 7.6-7.2 9.6-4.4 3.2-6.2 7.5-8.5 20.7-1.5 8.2-2.2 9.3-8.2 14-5.4 4-9.3 12-6.7 13.6.8.5 2.1.9 2.9 1 6.4.3 16.2 4.9 17.8 8.2 2.5 5.4 3.4 8.8 2.8 11.2-.7 2.7-5.9 6.5-8.8 6.5-1.1 0-2 1-2.4 2.8-1.3 5.9-2.8 8.2-10.9 16.5-9 9.2-15.4 13-27.3 16.3-6 1.7-6.3 1.9-5.8 4.3.4 1.4.9 6.4 1.3 11.1.5 7.8.3 9.2-2.1 15-1.5 3.6-3 7.3-3.3 8.2-.5 1.7 2.6 1.8 56.6 1.8H512V192c0-162-.2-192-1.4-192-1 0-1.5 2.7-2 10.9-.8 11.8-1.4 13.9-6.9 25-4.1 8.2-5.2 17.3-2.2 18.5 2.9 1.1 1.7 3.3-1.6 2.8-3-.4-3.1-.6-2.5-4.3.7-4.3-.7-8-4.8-12.3-1.9-2.1-3.3-2.6-7.2-2.6-2.7 0-5.4-.4-5.9-.8-.6-.4-2.1-3.4-3.4-6.7-1.2-3.3-2.9-6.8-3.8-7.7-2-2.2-3-12.2-1.4-13.2.6-.4 1.1-2.7 1.1-5.2V0h-16.5c-16.4 0-16.5 0-16.7 2.2m21.8 16.5c-.3 1.6-.8 6.4-1.1 10.8s-.9 9.8-1.2 12c-.6 3.6-.7 3.8-1.4 1.5-1.1-3.9-1.1-23 .1-23 .6 0 1-.9 1-2 0-1.2.7-2 1.6-2 1.2 0 1.4.7 1 2.7m-4.9 27.5c-.3.8-.6.5-.6-.6-.1-1.1.2-1.7.5-1.3.3.3.4 1.2.1 1.9M.1 126.5c-.1 58.8.2 75.4 1.2 76.4 1 1.1 1 1.4 0 1.8S0 224 0 294.6V384h100.2l-2.2-3.8c-3.4-5.7-6-14-6-19.3 0-4.3 1.7-12.6 3.5-17.2.6-1.3-.1-2-3.1-3.2-6.2-2.5-14.5-6.8-18.6-9.8-4.6-3.3-10.6-12.2-13.7-20.4-4.8-12.3-5.1-12.9-8.5-14.1-5.1-1.9-6.9-4.4-6.3-8.9 1.3-8.5 2.1-10.4 6.2-14.7l4.3-4.4-3.5-5.6c-1.9-3.1-3.8-5.6-4.2-5.6-1.2 0-1.5-3.9-.5-8.6.5-2.6.1-3.5-2.6-5.7-1.7-1.5-3.7-2.7-4.4-2.7s-2-2.5-3-5.5c-1.4-4.4-2.6-6.2-5.9-8.6-2.3-1.7-6.1-5.5-8.5-8.5-2.3-3-4.7-5.4-5.2-5.4-.6 0-1-1.5-1-3.3 0-2.4-.3-2.8-1-1.7s-1 .7-1-1.8c0-2 .4-3.1 1-2.7 1.7 1 1.1-4.1-1-9.8-1.9-5-2-6.4-1-16.3.5-6 1.5-14.3 2.1-18.4 2-13.3 2.1-17 .9-20.1-.7-1.6-1.3-7.1-1.4-12.2-.3-11.2-1.8-16.3-6.1-20.2-2.7-2.4-3.5-4-4-8.1-.6-5.1-.6-5.1 1.8-4.7 3.4.7 3.9-.7 2.3-6.3-.8-2.7-1.9-8.2-2.6-12.3-.6-4-1.6-8.3-2.2-9.5-.6-1.1-2-4.6-2.9-7.6C.2 51.6.1 53.3.1 126.5m262.5-52.9c-.9 2.4-.7 6.4.3 6.4 1.1 0 2.1-2.5 2.1-5.6 0-2.7-1.5-3.2-2.4-.8m31.8 45.9c-.4.8-.4 2.2 0 3 1.3 3.4-8.3 4.8-11.7 1.8-1.8-1.7-1.9-1.7-3.2 0-.7 1-1.3 4.6-1.3 8.3 0 5.7-.4 6.8-2.7 9.2-1.5 1.5-4.3 5.1-6.2 8l-3.5 5.4 1 8.8c.5 4.9.7 10.1.4 11.6-.3 1.9-.1 2.5.7 2 .7-.5 1.8.9 3 3.6 2.3 5.5 3.9 6.8 8.9 7.1 2.2.1 3.8.5 3.5.9-.4.8 2.3.5 10.7-1.2 2.5-.5 6.8-1.2 9.5-1.6 6.7-.8 8.5-1.3 8.5-2.6 0-.6-1.6-4.7-3.6-9.1-2.8-6.2-4-10.7-5.1-18.6-.7-5.8-2.7-14.6-4.4-19.4-2.6-7.8-2.8-9.3-1.8-12.2 1.3-3.4.7-6.5-1.1-6.5-.6 0-1.3.7-1.6 1.5M183.5 293c-1.9 3-22.1 9-30.7 9-2.9 0-5.9.4-6.7.9s-1.5 3.1-1.7 6.4c-.3 5.1-.1 5.7 2.4 7.3 12.1 7.9 16.3 17.3 17.5 39.2.2 4 .6 7.4.8 7.6s3.4-.4 7.1-1.3c8-1.9 7.1.8 9.4-27.6.9-11 2.1-24.8 2.8-30.8 1.1-9.8.8-13.5-.9-10.7m138.9 8.7c.4 5.4 1.1 12.7 1.6 16.3s1.6 16.4 2.6 28.5c1.5 20.1 2.3 24.9 3.9 23.3.3-.3 1-6.8 1.5-14.4.8-13.5 4-27.4 6.1-27.4.5 0 .9-.7.9-1.5 0-.9.9-3.4 2-5.6 4.4-8.4 4.4-8.3-1.1-13.8-2.7-2.7-5.6-5.4-6.3-5.8-.8-.4-3.5-2.7-6-5.1-2.4-2.3-4.8-4.2-5.2-4.2s-.4 4.4 0 9.7"/></svg>