<svg xmlns="http://www.w3.org/2000/svg" width="682.667" height="512" version="1.0" viewBox="0 0 512 384"><path d="M.1 46.7c0 28 .4 45.9.9 44.6.7-1.6 1.7-2.1 4.1-2.1 1.8.1 3.5-.4 3.7-1 .2-.7.8-1.2 1.4-1.2 1.4 0 3.7-2.5 4.8-5.5.6-1.5.9-6.9.8-12l-.2-9.4 5.5-5 5.4-5-.3-7.3c-.1-4-1.1-10.8-2.2-15s-2.3-12.2-2.6-17.7L20.7 0H0zM62 1c0 .5.5 1 1 1 .6 0 1 .5 1 1.1s1.6 3.4 3.5 6.3c3 4.6 3.5 6.1 3.5 11.4 0 7.3.6 9.2 3.1 9.2 1.7 0 1.9-.8 1.9-6.4 0-7.4.8-10.1 4.2-13.7 3.7-4 6.8-8.1 6.8-9 0-.5-5.6-.9-12.5-.9C66.8 0 62 .4 62 1m146-.4c0 .3.7 1.2 1.5 2 1.5 1.5 10.6 2.7 11.5 1.5.3-.4 1.6-1.5 3-2.4 2.4-1.7 2.2-1.7-6.8-1.7-5 0-9.2.3-9.2.6m87.5.4c.3.5 1.7 1 3.1 1 1.3 0 2.4-.5 2.4-1 0-.6-1.4-1-3.1-1s-2.8.4-2.4 1m174.4.7c.5 1 2.3 3.1 4.1 4.8 3.9 3.7 5.7 9.9 6.9 23.5.9 9.7 2.8 17.7 5 20.4.5.6 1.2 3.9 1.6 7.4.7 6.5 2.7 9.2 6.7 9.2 1.5 0 1.8.9 1.8 5.7-.1 3.2-.8 8.5-1.6 11.8-2.6 10.1-3.4 16.6-3.3 27 .1 11.5.2 10.9-3.9 19.5-4.5 9.1-4.3 15.3.9 37.4 2.4 10.2 2.4 17.5-.1 25.6-2.6 8.1-5 25.1-5 35.2 0 10.7-4 24.8-7.7 27.1-.7.4-2.2 4-3.4 8-2.1 7.1-5 11.7-7.5 11.7-.7 0-1.6 1.7-2 3.7-.9 4.7-12 18.3-15 18.3-.7 0-2.5 1-4.1 2.2-1.5 1.3-3.7 2.8-4.8 3.4-1 .6-2.2 2.2-2.6 3.6-.3 1.3-1.9 3.8-3.5 5.5-5.2 5.5-8.4 9.7-8.4 10.9 0 2.3-4.5 2.3-13.9-.2-5.3-1.3-12.5-2.7-16.1-3.1-5.8-.5-7.2-.2-11.5 2-2.8 1.4-7.5 5-10.5 8.1s-6 5.6-6.7 5.6-1.3.4-1.3.9-1.4 1.3-3.2 1.6c-2.3.5-4.4.1-7.9-1.6-2.7-1.3-4.9-2.7-4.9-3.1s-1.7-3.3-3.8-6.5-4.4-7.7-5-10c-1.8-6.1-10.7-23.3-13.7-26.6-3.2-3.3-5-3.5-4-.5 2.7 8.9 3.2 20.9 1.4 31.4-.9 5.2-.7 9 1 21.6 1.1 8.4 2.5 21 3.2 28.1l1.2 12.7h8.1c6.5 0 8.6-.4 10.2-1.8 1-1 3.3-2.6 5.1-3.7 2-1.2 3.7-3.4 4.7-6 .9-2.3 3.1-5.7 4.9-7.5 1.7-1.9 2.5-3 1.7-2.5-1.3.8-1.3.7-.1-.8.7-.9 2.3-1.7 3.5-1.6 2 0 2.1.1.1.9-1.9.8-1.9.9.2.9 1.2.1 4.2 1 6.8 2.1s5.1 2 5.6 2 3-2.1 5.6-4.7c2.6-2.5 5.6-4.8 6.7-4.9 1.2-.2 4.6-1.2 7.6-2.3 9.7-3.4 46.6-6.1 56.1-4.2 8.3 1.7 10.8 4.9 12.6 15.8.7 4.2-3.2 8.1-8.5 8.5-4.1.3-4.8 2.1-2.4 7.1l1.3 2.7H512V0h-21.5c-20.2 0-21.5.1-20.6 1.7m-223.2 7c-.7 1.8-1.1 7.1-1 14.6L246 35l-3.8 7.2c-3.6 7-3.7 7.6-4.3 21.3-.5 10.3-.4 14.5.6 16 .6 1.1 1.5 4.9 1.8 8.4.9 8.3 5.1 16.5 8.8 16.9 2 .2 2.8-.2 3.3-2 1.4-5.5.6-10.3-2.9-15.8-4.1-6.3-4.2-7-1.5-7 1.1 0 2 .4 2 .9s2.4 3.3 5.4 6.3c2.9 2.9 6.9 8.3 8.7 11.8l3.4 6.5 12.1.3 12 .4 1.2-2.6c2-4.4 1.6-23.6-.7-29.3-1-2.6-2.1-6.8-2.5-9.1-.4-2.4-2.5-7.8-4.8-11.9-4.1-7.5-6.3-9.3-11.3-9.3-1.7 0-4.8-2.4-10.2-8-4.3-4.4-8.1-8.8-8.5-9.7-.3-1-.7-5.3-.7-9.5-.1-9.3-.6-10.8-3.7-10.8-1.7 0-2.8.8-3.7 2.7m12.5 129.8c-1.9 4.1-1.5 10.2.8 12.5 2.6 2.6 4.2 2.5 6.6-.3 4.4-5.2 5.2-7.9 3.2-12.2-.9-2.1-1.8-2.5-5.3-2.5s-4.4.4-5.3 2.5M.1 260.2 0 384h24.5c13.5 0 24.5-.1 24.5-.3s-1.4-3.2-3.2-6.8c-2-4.1-3.2-8-3.2-10.8-.1-4.1-.3-4.5-3.2-5.3-4.6-1.2-6.7-4-6.1-8 1.7-10 2.2-11.2 5.6-13.5 4.6-3.1 9.6-3 23.9.8 6.4 1.7 16.2 4.2 21.7 5.5 11.9 2.8 22.1 7.6 24 11.3.7 1.4 2.5 3.7 3.9 5l2.6 2.4 5.4-1.8c4.8-1.6 5.8-1.7 8.3-.5 1.5.7 3.3 1.3 4 1.2.6-.2 1.8 1.7 2.5 4 1.1 3.2 2.4 4.8 5.3 6.5 2.2 1.2 5.8 4 8.1 6.2l4.1 4.1H178v-3.2c0-4.4 3.8-38.3 5-44 .7-3.3.5-6.5-.5-11.5-.8-3.7-1.5-10.7-1.5-15.6 0-4.8-.4-8.7-.9-8.7-.6 0-2.1 1-3.5 2.2-1.3 1.3-3.4 3-4.6 3.8s-3.2 2.2-4.4 3.1c-3.5 2.6-7.7 3-11.1.9-2.5-1.6-4.7-1.8-13-1.6-9.8.3-10.2.4-19.5 5.3-5.2 2.8-11.2 5.3-13.2 5.7s-5.7 1.5-8.1 2.6c-5.2 2.3-9 1.6-13.8-2.4-3.1-2.7-4.3-3.1-11.6-4-5.9-.8-9.9-3.5-11.9-7.8-1.8-4.1-4.7-6.4-8.4-7-2-.2-2.5-1.2-3.5-5.9-.6-3.1-1.9-6.7-2.8-8-1-1.3-2.9-4.2-4.4-6.4s-3.2-4.5-3.8-5c-.6-.6-2.4-3.3-4-6-1.6-2.8-3.9-6.3-5.2-7.8-2.4-3-4.3-8.6-4.3-12.9 0-1.5-.9-3.5-2-4.6-2.1-2-3.1-8.8-5-33.7-1.2-15.9-2.2-22.2-4-25.5-.7-1.3-1.6-5.9-2.1-10.2-.5-5-1.6-9.5-3.2-12.5-2.3-4.5-3.8-9-5.2-15.7-.3-1.6-1.9-4.1-3.4-5.5s-3-3.3-3.4-4.1c-.3-.8-.6 54.2-.6 122.2"/></svg>