<svg xmlns="http://www.w3.org/2000/svg" width="682.667" height="512" version="1.0" viewBox="0 0 512 384"><path d="M.1 8.2v8.3l1.5-4c.9-2.2 2.2-5.9 2.9-8.3L5.8 0H0zm256.2-5.5c-1.1 4.7-.8 17.6.6 22.6 1.2 4 1.2 6.1.2 11.8-.7 3.8-1.7 6.9-2.2 6.9-2.1 0-4.9 6.6-4.9 11.7 0 4.1.5 5.8 2.6 8.3 2.4 2.8 3.1 3.1 6.4 2.5s3.8-.4 4.4 1.7c.3 1.3.6 4.5.6 7.2 0 6.5 1.8 12.2 5.5 17.7 1.7 2.5 3.7 6 4.4 7.7 1.1 2.6 1.9 3.2 4.4 3.2 3.1 0 11.6-4.3 11.8-6 .2-1.3.5-2.2 1.2-4 3.8-9 4.4-14.6 2.7-24.1-.5-3-1.4-10.4-1.9-16.6-.7-8-1.8-12.9-3.6-17.2-2.7-6.5-3.4-16.2-1.6-23.1.5-1.9 1.1-5.6 1.4-8.3l.5-4.7H257zm235.2 1c4.9 5 6.5 8.9 6.5 16.4 0 4.9-.7 7.4-3.5 13.2-1.9 3.9-3.5 8.3-3.5 9.7 0 3.4 1.9 9 3.1 9 .5 0 .9.5.9 1.1 0 1.3 2.5 3.9 3.7 3.9s4.2 4.1 7.8 10.5c3.4 6.3 4.1 12.7 2.6 27-.7 6-1.5 14.1-1.8 17.9-.7 8.2 1.5 34.9 3.3 39.1 1.1 2.5 1.3-10.3 1.4-74.3V0h-24.3zM258 98.5c0 3.6 2.6 8.1 4.9 8.8 1.2.3 2.5 1.7 3.1 3.1 1.9 5 5.9 4.3 6-1.1 0-1.4-1.1-2.8-3-3.9-1.6-1-3.4-3.1-4.1-4.6-2-4.9-6.9-6.5-6.9-2.3M0 246v138h178.8l1.3-8.8c1.6-11 1.6-16.6-.1-26.9l-1.3-8.3h-4.2c-2.7 0-4.7.6-5.6 1.6-1.4 1.7-4.9 1.6-15.4-.6-2.7-.5-7.8-1.4-11.1-2-3.4-.5-8.3-1.9-11-3.1-5.5-2.3-7.1-2.2-16.4 1.3-12 4.6-23.3 4.5-29.2-.1-1.3-1.1-3.3-3.6-4.3-5.8-1.1-2.1-3.8-6-6-8.7-3.9-4.8-5.9-7.7-10-14.6-1.1-1.9-3.9-5.4-6.1-7.9-2.3-2.5-4.5-5.7-4.9-7-1.4-4.5-10.5-13-18.7-17.3-5.2-2.8-8-4.9-8.3-6.3-.2-1.1-1.1-5.5-1.9-9.9-.8-4.3-2.2-8.6-3-9.5s-2.7-4.5-4.2-8.1-3.5-7.3-4.3-8.4c-1.2-1.4-1.5-3.6-1.3-8.9.1-4.2-.4-9.2-1.2-12.2-2.8-9.1-5.9-40-5.4-51.8.4-9.4 2.6-14.2 6.4-14.2 4.1 0 2.5-9.9-2.8-17.7-1-1.4-1.8-3.5-1.8-4.5 0-2-6.6-16.3-7.5-16.3-.3 0-.5 62.1-.5 138m510.8-64.8c-.2 1.3-1 2.4-1.8 2.4-.8.1-2 .2-2.5.3-.6 0-2.1 2.1-3.5 4.6s-2.8 4.5-3.2 4.5c-.3 0-1.8 2.5-3.3 5.5l-2.6 5.5 3.1 3.9c2.4 2.9 3.5 5.7 4.5 11.7 2.4 13.6 1.9 19.3-2.5 28.9-.5 1.1-1.4 3.1-2 4.5-.5 1.4-1.4 3.2-1.9 4-2.1 3.2-7.1 14.7-7.1 16.1 0 1.5-4.6 8.9-6.2 10-.5.3-1.3 3.5-1.8 7-1.2 8.5-5 16.9-7.5 16.9-1.6 0-23 12.5-26.2 15.3s-4.3 6-2.4 7.1c.4.3 1.1 2.7 1.4 5.3.4 2.7.9 6 1.3 7.5.5 2.4.3 2.8-2.2 3.5-1.6.4-7.2.7-12.4.7-8.6 0-10.1-.3-16-3.2-7.3-3.6-12.8-4.1-20.5-1.8-2.6.8-6 1.2-7.6.9-4.5-.9-12.4 1.6-18.4 5.8-3 2.1-5.5 3.6-5.5 3.2 0-.3-.6 0-1.4.6-1 .9-3.7 1-8.8.5-8.4-.7-11.4-2.8-15.4-10.6-1.8-3.6-2.4-6.3-2.4-11.5 0-3.7-.3-7.7-.6-8.8-.5-1.9-16-11.3-17-10.3-.2.3.9 3.2 2.5 6.4 4.2 8.7 5.5 20.6 3.5 31.4-1.4 7.4-1.4 9.2 0 19 .9 6 1.6 12 1.6 13.4v2.6h186V281.5c0-56.4-.2-102.5-.4-102.5-.3 0-.6 1-.8 2.2m-235 50.5c-1.7.3-3.8 1.8-5.2 3.6-2.6 3.6-5.7 12.7-5.9 17.8-.2 3.2 0 3.4 2.8 3.3 1.7-.1 6.9-1.7 11.5-3.5 9.4-3.8 10.2-4.9 8-11.5-1.2-3.5-6.6-10.5-7.9-10.3-.3.1-1.8.4-3.3.6"/></svg>