<svg xmlns="http://www.w3.org/2000/svg" width="682.667" height="512" version="1.0" viewBox="0 0 512 384"><path d="M0 51.5C0 79.8.2 103 .4 103s1.1.3 2 .6c1.1.4 1.7-.4 2.2-3.3.5-2.1.6-4.3.5-4.8-.7-1.9 0-14 .9-17.6.6-2 1.2-6.3 1.5-9.5.5-5.1 1-6.3 3.9-9 3.2-3 4.6-5.3 5.2-8.4.7-3.8 3.7-12.1 4.5-12.5.4-.3 2-3.3 3.5-6.5 1.5-3.3 3-6 3.3-6 .4 0 1.3-2.3 2-5.1.8-3.1 1.6-4.6 2.1-3.9.4.7 1 .8 1.3.4.5-.9 7-.8 17.7.2 3 .2 6 .1 6.5-.3 2.4-1.9 7.3-10.3 7.9-13.6l.7-3.7H0zm269.5-40.3c.4 6.2 1.1 11.4 1.6 11.6s.9 1 .9 1.7c0 2.6 3 3.3 8.2 1.7 8.8-2.5 11.3-6.5 10.3-16.5-1-10.3-.3-9.7-11.7-9.7h-10zm240.6-8c.1 1.8.5 4.4.9 5.8.6 1.9.8 1.1.9-3.3.1-3.2-.3-5.7-.9-5.7-.5 0-1 1.5-.9 3.2M0 311.4V384h179.8l1.6-4c2.1-5.3 1.3-7.1-3.3-6.9-8.5.2-13.2-.3-13.7-1.5-.5-1.4-3.5-1.3-13.9.5-8 1.4-27.7 3-34.4 2.9-7.6-.2-13.1-3.5-12.2-7.4.1-.5-2.6-.6-6.3-.2-4 .4-6.7.3-7.1-.4-.3-.5-1.3-1-2.1-1-.9 0-3.5-1.6-5.8-3.5-2.4-1.9-4.7-3.5-5.1-3.5-1.3 0-11.9-5.3-12.6-6.3-.3-.5-1-.9-1.5-.9-2.2-.2-7.1-2.8-8.8-4.7-1-1.1-2.2-1.8-2.7-1.6-.4.3-1.5-.5-2.3-1.7-1.1-1.5-1.6-1.8-1.7-.8-.1 2.5-2.7-5.3-2.8-8.4-.1-1.6-1.7-6.9-3.6-11.7-3-7.7-3.5-10-3.5-17.5 0-13.5-2.9-20.5-12.4-29.9-2.3-2.2-4.9-5.4-5.8-7-2.4-4.2-4-6.6-5.8-8.6-.9-1-2.7-4.1-4-6.8-1.4-2.8-2.8-5.1-3.2-5.1s-1.4-1.5-2.1-3.3c-.8-1.7-2.1-3.8-3-4.6-1.6-1.2-1.7 3.8-1.7 71.3m256.3-37.8c-1.8 1.4-3.3 3.2-3.3 4s-.6 1.4-1.4 1.4c-2.7 0-3.6 5.2-3.1 17l.5 11.5 3.2.3c4.1.4 9.9 2.9 11.5 5 1.2 1.4 1.8 1.3 6.5-.8 15.7-6.9 25.8-12.2 25.8-13.3 0-1.8-6.1-9.3-11.1-13.7-2.2-1.9-6.4-5.9-9.3-8.8-5.2-5-5.7-5.2-10.8-5.2-4.2 0-6 .6-8.5 2.6M510.5 333c-.3.5-1.3 1-2.2 1-3.7 0-19.1 8.9-24.3 14.1-3 3-6.8 6.3-8.3 7.5s-2.9 3-3.1 4c-.6 3.2-8.3 17.4-9 16.7-.3-.3-.6-.1-.6.6 0 1-1.2 1.1-4.7.7-9.5-1.3-16.9-.7-24.4 1.9-4 1.4-7.8 3-8.3 3.5-.7.7 14 1 42.7 1H512v-26c0-14.3-.2-26-.4-26-.3 0-.8.4-1.1 1m-192 33.7c.4 1 1.2 3.1 1.8 4.8.5 1.6 1.4 3.9 1.8 5 .5 1.1 1.3 3.2 1.9 4.7l1 2.8h56.8l-1.4-3c-1.6-3.1-6.3-6-9.8-6-1.2 0-3.1-.7-4.3-1.5-1.6-1.1-4.1-1.4-10.1-1-4.4.2-9.4 0-11.1-.5-2.1-.6-3.1-.5-3.1.2 0 1.8-7.7 0-15.5-3.7-8.4-4-9-4.1-8-1.8"/></svg>