<svg xmlns="http://www.w3.org/2000/svg" width="682.667" height="512" version="1.0" viewBox="0 0 512 384"><path d="M0 15.7c0 8.6.2 15.4.5 15.1.7-.7 2.5-14 3.2-23.6C4.2.4 4.1 0 2.1 0S0 .4 0 15.7m0 312V384l35.8-.1c19.6 0 35-.3 34.2-.6-.8-.2-6.5-2.9-12.7-5.9-6.1-3-12.1-5.4-13.3-5.4s-3.4-.8-4.8-1.9c-1.5-1-5-3-7.8-4.4-4.2-2.2-5.4-3.4-7.1-7.4-1.2-2.6-2.4-6.4-2.8-8.3s-1.1-4.1-1.6-5c-2.4-4.7-3.9-10.7-3.9-15.9 0-6.2 2.4-13.6 4-12.6.6.4 2.4-.3 4-1.5 3.6-2.5 3.8-5.4 1-11-1.1-2.2-2-4.4-2-5.1 0-2-4.5-10.9-5.5-10.9-.5-.1-1.9-1.5-3-3.2-1.1-1.8-4.4-4.9-7.4-6.9-3-2.1-5.8-4.3-6.2-5.1-.5-.7-.9 24-.9 54.9m262.4-16.5c-1 2.4-2.1 4.5-2.5 4.8-1.6 1.3-3.3 6.1-4.4 12.2l-1.1 6.8h3.1c1.7 0 4 .7 5.1 1.5 2.7 2 4.8 1.9 10.4-1 5.8-3 5.9-3.1 6.1-8.6.2-5.6-.4-7.8-2.2-8.9-.8-.5-1.5-1.4-1.5-2-.1-.5-.2-1.5-.3-2.1-.2-1.9-6.5-6.9-8.7-6.9-1.5 0-2.6 1.2-4 4.2m247.1 28.5c-1.1.2-3.1 1.9-4.4 3.8s-5.3 6.1-9 9.2c-3.6 3.2-8.4 7.5-10.5 9.5-2.2 2.1-4.4 3.8-4.8 3.8s-.8 1-.8 2.2-1.6 3.8-3.5 5.8c-1.9 1.9-3.7 5-4.1 6.8l-.6 3.2H512v-22.5c0-12.4-.1-22.4-.2-22.4-.2.1-1.2.4-2.3.6m-348.7 41.7c-1.6.8-4.5 1.7-6.5 1.9-2.3.2-1.2.4 3 .5 6.1.2 6.7 0 6.7-1.8 0-2.4.2-2.3-3.2-.6"/></svg>