<svg xmlns="http://www.w3.org/2000/svg" width="682.667" height="512" version="1.0" viewBox="0 0 512 384"><path d="M0 331.5V384h31.1l-5.6-6.4c-3.2-3.6-7-7-8.6-7.7-1.6-.6-2.7-1.4-2.4-1.7s-.5-1.6-1.7-2.9c-1.2-1.2-2.2-3.1-2.3-4.2s-.7-2.7-1.5-3.6c-3.3-4-5.2-12.2-6.2-26.5l-1-14.4 3.2-7.3c4.3-9.8 4.4-14.8.1-23.6C3.2 282 1.4 279 .9 279S0 302.2 0 331.5m510.3 11.2c-.7.2-1.3.9-1.3 1.4 0 2-7.3 12.5-10.9 15.6-3.2 2.8-3.6 3.7-3.4 7.5 0 2.4 1 6 2.1 8.1 1.6 2.9 1.9 4.5 1.2 6.3l-1 2.4h15v-21c0-11.6-.1-21-.2-20.9-.2 0-.9.3-1.5.6m-262 5c.9.2 2.3.2 3 0 .6-.3-.1-.5-1.8-.5-1.6 0-2.2.2-1.2.5"/></svg>