<svg xmlns="http://www.w3.org/2000/svg" width="682.667" height="512" version="1.0" viewBox="0 0 512 384"><path d="M17.1 173.9c-1.9 2.3-4 4.1-4.8 4.1-.9 0-1.3.6-.9 1.5.3.8.1 1.5-.5 1.5s-3.3 2.4-6 5.2L0 191.5V384h40c37.4 0 40-.1 40-1.8.1-.9.7-6.3 1.4-12l1.3-10.2-9.6-4.6c-8.2-3.9-10.8-4.7-18.1-5.2l-8.5-.7-1.8-5.5c-2.6-8-4.6-9.4-12.8-8.6-5.3.6-6.8.4-7.9-.8-1.1-1.4-1.5-1.4-3.7.4-1.4 1.1-2.9 2-3.3 2-1.7 0-1.9-5.4-.5-11.7 1.1-4.5 1.2-6.9.5-7.1-1.4-.5-1.3-2.8.3-4.4 2.2-2.1 3.9-5.8 2.8-5.8-1.2 0 5.4-13.1 7.2-14.2.7-.4.8-.8.4-.8-1 0 4.5-10 5.6-10 .4 0 .7-.7.7-1.6 0-.8.5-1.2 1-.9.6.4 1-.5 1-1.9s.6-2.6 1.3-2.6c.8 0 .7-.4-.3-1-1.2-.8-1.2-1.2-.3-1.8.7-.4 1.7-3.5 2.2-6.8 1.4-9.3 9.3-29 11.1-27.9 1.1.7 2-2 2-5.8 0-1.8.9-4 2.2-5.4 1.1-1.2 2.3-3.5 2.4-5 .2-1.6.8-6.5 1.5-11 1.3-9.2-.1-18.8-3.3-22.6-1-1.1-1.8-2.7-1.8-3.5 0-4-12.2-11.2-19.1-11.2-2.4 0-4.1-.6-4.7-1.6-.5-.8-2.6-1.8-4.8-2.1-3.7-.5-4.2-.2-7.3 3.6m87.2 182.9c-1.5.9-2.8 4.3-5.9 15.2-1.4 4.7-2.7 9.3-3 10.2-.5 1.6.2 1.8 5.9 1.8 9.1 0 9.7-.9 9.7-14.3 0-6.2-.4-10.7-1-10.7-.5 0-.7-.7-.4-1.5.5-1.1-.1-1.5-1.7-1.5-1.3 0-2.9.4-3.6.8m23.7 5.4c-.7 3.2-2.9 18.8-3 20 0 1.7 3.1 1.8 51.7 1.8h51.7l-2.7-2.8c-1.5-1.5-3.2-4.3-3.9-6.2-2.9-7.8-5.9-11.8-9.5-12.5-1.8-.3-3.8-.3-4.4.1-.6.3-11.2.8-23.6 1-12.3.2-26 .8-30.3 1.4-4.9.7-8.6.7-9.7.2-3.5-1.8-9-3.2-12.6-3.2-2 0-3.7.1-3.7.2"/></svg>