<svg xmlns="http://www.w3.org/2000/svg" width="682.667" height="512" version="1.0" viewBox="0 0 512 384"><path d="M0 192v192h39.4c36.7 0 39.5-.1 40-1.8 1.1-4.1 2.5-13.3 3.1-20.8l.7-8-6.5-2.8c-5.4-2.3-7.7-2.7-13.5-2.5-8.2.4-9.5-.4-11.1-6.5-1.5-6.2-2.9-6.9-13.4-7.4-7.6-.3-9.6-.8-11.5-2.5-2.2-2-2.3-2-5.9-.3-2.9 1.4-3.8 1.5-4.4.4-1.3-2-1.1-3.9 1.2-10.9 1.4-4.2 1.7-6.5 1-6.7-2-.7-1.2-2.9 1.7-4.8 2.8-1.8 4.5-3.6 6.2-6.6.8-1.3.6-1.5-1-1.1-2.7.7-2.5-.8.4-4 1.3-1.4 2.1-2.9 1.8-3.2-.4-.3.1-.3 1 0 1.9.7 4.9-3 4.1-5.1-.6-1.6 4.4-8.4 6-8.1.7.1 1.1-.4.9-1.1-.1-.8.1-1.1.6-.8.4.2 2.3-1.1 4.2-3 2.7-2.8 3.1-3.7 2-4.4-1-.6.6-3.5 7.2-12.7 7.7-10.7 13.4-19.7 16.8-26.3 1.2-2.3 1.2-2.4-.4-1-1.6 1.3-2 1.2-3.1-.3-.7-.9-2.5-1.9-4.1-2.2-3.7-.7-6.5 1.7-9.2 7.8-1.2 2.6-2.9 5-3.9 5.4s-2.2 1.2-2.6 2c-.4.7-1.4 1.3-2.1 1.3-2.2 0-3.6-4.8-3.6-11.9 0-8.2 1.4-10.3 9.9-15.6 6.9-4.3 6.7-3.7 8.1-23.9 1.1-15.9 1.8-20.5 3.3-22.4 1.3-1.6.3-20-1.2-21.5-1.4-1.4-1.5-6.7-.1-6.7.6 0 1-2.8 1-6.4 0-5.5-.7-8-5.9-19.7-3.2-7.4-7-15.7-8.4-18.6-1.3-2.9-3.5-8.5-4.7-12.5-2.4-8-2.3-15.9.5-23.7.8-2.3 1.1-4.2.7-4.3s-3.3-.2-6.4-.2c-4.5-.1-6.1-.6-8.2-2.5-3.4-3.2-2.8-5.2 3.7-11.8 3.9-4 4.8-5.6 4-6.4-.9-.9-2.6.2-6.9 4.7l-5.7 5.9-.8-3c-.7-2.3-.4-3.6 1.1-5.7 1.1-1.5 2-3 2-3.3 0-.9-7.3 2.5-9.5 4.4-3.9 3.5-5 3.3-1.6-.2 5.7-6 10.3-8.7 17.2-9.8 3.5-.7 7.1-1.5 7.9-1.9.9-.5 2.4-.1 4.1 1 2.5 1.9 2.6 1.9 7.4-.6 5.9-2.9 10.4-3.1 13.9-.3 3.1 2.4 3.3 5.2.6 8.6-2.5 3.2-2.7 5.8-.3 4.9 5.7-2.2 10.6-2.6 16.6-1.2 8.3 2 15.7 5.3 15.7 7.2 0 .9-.5 1.2-1.2.8s-.3.4.9 1.8c2.3 2.4 2.6 7.1.9 12.6-.5 1.6-.2 2.1 1.6 2.4 1.8.2 2.3.9 2.1 2.8-.1 1.4.1 3.2.4 4 .4.8.7 2.6.8 4s.5 3.5.9 4.7c.5 1.7 0 2.7-2.4 4.4-3.6 2.7-3.7 3.6-.6 9.7 1.6 3.1 3.7 5.5 6 6.7 2 1.1 3.6 2.2 3.6 2.5s1.4 1.4 3 2.3c1.7 1 4 3.7 5.1 5.9 1.2 2.3 4.1 5.9 6.6 8.2 3.6 3.3 5.3 4.1 8.5 4.2 2.2 0 4.3.6 4.7 1.3.7 1 1.3.9 3-.5 1.1-1 2.1-2.2 2.1-2.7 0-.4 1.3-3.5 3-6.9 1.6-3.3 3.2-7 3.4-8.1.2-1.2.7-3.9 1.1-6 .5-2.4 1.7-4.4 3.4-5.6l2.7-1.9 1.3 2.9c1 2.2 1.9 2.9 4.2 2.9 5 0 6.2-3.9 7-23.5.4-9.4 1.5-20.8 2.4-25.5s1.9-10.8 2.1-13.5c.5-5.9 2-14.1 3.8-21 .8-2.8 1.8-7 2.4-9.5s1.4-5.3 1.7-6.3C185.2.1 180.4 0 92.6 0H0z"/><path d="M174.8 116.8c-2.5 1.5-2.8 2.2-2.8 7.2v5.6l-4.7 1.2c-2.7.6-6.7 1.5-9 1.8-2.4.4-4.3 1-4.3 1.4s-.8 1-1.8 1.2c-2.7.7-6.7 11.9-5.3 14.6.6 1.1.8 2.2.5 2.4-.3.3 1.8 5.4 4.7 11.4 8.8 18.7 8.8 18.8 3.3 12.6-2.7-3.1-5.2-5.1-6-4.8s-1.3.2-1.3-.2c.3-1.8-.2-3-1.5-3.5-1.2-.5-1.2-.2 0 2.1.8 1.5 1.4 3.1 1.4 3.6s.9 2.8 1.9 5c4.1 8.8 3.7 9.5-2.3 3.3-3.1-3.1-6-5.7-6.4-5.7-1.4 0-.5 8.2 1 9.1 1 .7 1 .9-.2.9-1.2.1-1.1.3.3 1.1.9.5 1.7 1.5 1.7 2.2 0 .8-.4.6-1.1-.3-.8-1.2-1-1-.5 1 .3 1.4 1.1 5.1 1.7 8.2.6 3.2 1.5 5.8 1.9 5.8.5 0 .7 1.1.6 2.5-.2 1.3.3 4.6 1 7.2 6.1 22.9 8 29.8 12.3 44 1.7 5.6 3.1 11.1 3.1 12.1s1.1 5 2.4 8.8c2.9 8.4 3.9 13.7 2.6 12.9-1.2-.7-.2 2.4 1.4 4.4 1.5 2 1.3 42.6-.3 44.5-.6.7-3.3 1.6-5.9 2-4.3.5-5.4 1.2-9.6 6.1-5.3 6.2-5.6 6.3-17.1 3.9-6.3-1.3-7.9-1.4-8.5-.3-.5.7-1.1 5.6-1.5 10.8-.3 5.3-1 12.2-1.4 15.3l-.8 5.8h51.3c57.6 0 52.4.8 52.4-8.3 0-4.6-.4-5.6-3.8-9.2-5.7-5.9-8.2-12.7-8.2-22.2 0-6.3-.6-9.3-3-15.3-1.8-4.6-2.9-9.4-3-12.4 0-4.1.5-5.4 3.4-8.6 2.4-2.7 3.8-5.5 4.6-9.6.7-3.3 1.9-7.9 2.7-10.2.7-2.4 2.9-10.8 4.8-18.5 3.2-13.6 3.4-15 3.4-34.2.1-22.1-.7-39.7-1.9-39-.4.2-2-2-3.5-4.9-2.3-4.4-3.7-5.8-8.1-7.9-3.4-1.7-5.4-3.3-5.4-4.4 0-1-.7-2.7-1.5-3.7-.8-1.1-1.5-2.7-1.5-3.6s-.8-2.5-1.8-3.6c-.9-1-2.5-3-3.4-4.4s-5-6.2-9.1-10.8c-4.5-4.9-7.8-9.5-8.2-11.4-.4-1.7-1.6-4.6-2.7-6.5-1.4-2.4-1.9-4.3-1.4-6.5.3-1.7.1-3.6-.4-4.3-.6-.7-1.4-3.1-1.8-5.3l-.7-4.1zm-39.7 10.6c.2.2 1.4.9 2.7 1.5 1.8 1 2.2.9 2.2-.4q0-1.5-2.7-1.5c-1.4 0-2.4.2-2.2.4m8 8.2c0 1.1.3 1.4.6.6.3-.7.2-1.6-.1-1.9-.3-.4-.6.2-.5 1.3m-67.7 62.6c.3 1 .2 1.8-.2 1.8-.5 0-1.8 3.3-3.1 7.3-1.7 5.8-2 7.9-1.2 10.1.6 1.5 1.1 5.1 1.2 7.9v5.2l3.7-7.6c5.7-11.7 6.3-13.6 4.9-16.7-.6-1.5-1.4-2.9-1.8-3.2-.3-.3-1.4-1.9-2.3-3.5-1-1.7-1.5-2.2-1.2-1.3m30.4 157.1c-2 .5-3.8 1.6-4.1 2.5-1.4 4.5-6.7 24.8-6.7 25.4 0 .5 2.5.8 5.5.8 4.9 0 5.9-.4 8.6-3.1l3-3.1-.7-10.6c-.3-5.9-.9-11.2-1.3-11.8-.4-.7-1.8-.7-4.3-.1"/></svg>