<svg xmlns="http://www.w3.org/2000/svg" width="682.667" height="512" version="1.0" viewBox="0 0 512 384"><path d="M0 192v192h78.8l1.1-4.8c1-4.4 3.1-20.6 3.1-24.5 0-2.9-6.5-5-17.5-5.6l-10-.6-1.5-4.7c-2.3-7.2-3.3-7.9-14.5-8.5-8.6-.5-10-.9-12-3-2.1-2.4-2.3-2.4-5.3-.9-1.7.9-3.6 1.6-4.2 1.6-1.7 0-1.1-7.6.9-13 1.6-4.3 1.7-5.2.5-5.7-2.3-.9-1.6-3.3 1.3-4.4 1.6-.5 3.8-2.4 5.1-4.2 2.2-3.2 2.2-3.2.2-3.5l-2-.3 2.1-3c1.1-1.6 2.7-2.9 3.4-2.9 1.9 0 4.7-4.3 4-6.1-.3-.8.7-2.6 2.2-4.1 9.4-9.1 12.2-12.3 11.2-12.9-1.4-.8-1.3-.9 7.3-12.6 9-12.2 22.9-36 22.8-39-.1-.5-1.6-2.6-3.5-4.8-4.1-4.7-6-3.6-3.9 2.3 1.5 4.5.7 13.1-1.3 13.9-.8.3-1.9-.1-2.6-.9s-2.4-1.9-3.8-2.5c-2.3-1-3-.8-5.2 1.5-1.4 1.5-3.5 4.8-4.6 7.4-1.1 2.7-2.7 4.8-3.5 4.8s-1.9.8-2.5 1.7c-.9 1.7-1.1 1.7-2.7.1-1.7-1.7-2.7-6-2.7-12.3-.1-6.5 1-8.2 8.8-13.1 7.2-4.5 7.4-4.9 8-9.3.3-2.5 1.1-7.8 1.7-11.7.8-5.4.7-7.7-.2-9.4-1.5-2.9-3.6-11.6-4.5-19.2-.5-3.5-.1-11.3 1-20.5l1.7-14.8-5.6-18c-3-9.9-6.7-21.3-8.1-25.4-2.7-8.1-3.1-13.9-1.4-22.2 1.8-9 2.1-8.4-4.8-8.1-5.7.4-6.4.2-8.8-2.3-1.4-1.6-2.5-3.2-2.5-3.8 0-1.5 4.8-7.8 8.2-10.7 2.6-2.3 2.7-2.7 1.4-4.5-1.4-1.9-1.5-1.9-5.3 1.1-5.2 4.2-5.9 4.5-7.7 3.8-1.4-.5-1.4-1-.1-4.2.9-1.9 1.4-3.6 1.3-3.7-.2-.1-3.6.5-7.5 1.5-4 .9-7.3 1.5-7.3 1.3s2.8-1.7 6.3-3.3c8.2-3.8 24.8-5.8 28.5-3.4 2.1 1.4 2.5 1.4 4.1 0 2.2-2 8.5-4.6 11-4.6 2.6 0 8.1 4.7 8.1 7 0 .9-.9 2.9-2 4.3-2.7 3.4-2.6 5.1.3 4.2 7.9-2.4 10.6-2.6 17.2-1 8.5 1.9 16.8 5.6 14.2 6.2-1.8.5-1.8.6-.1 2.4 2.4 2.6 3.5 10.6 1.8 12s-.9 2.7 2.3 4c1.3.5 2.2 1.3 1.9 1.8-.4.5.1 4 1 7.7l1.5 6.8-3.7 3.1c-3 2.5-3.6 3.6-3.1 5.6.8 3.1 5.7 8 13.5 13.6 3.5 2.4 7.1 5.8 8 7.5 2.8 5 7.1 9.6 13.3 14 6.4 4.4 9.9 9.1 9.9 12.9 0 1.3-.9 4.4-2 6.8-3.4 7.4-2.8 10.2 4.3 19.4 6 7.9 9.1 12.7 8.1 12.7-.6 0-10.4-6.8-12.6-8.8-3.3-2.9-2.1 1.6 1.7 6.2 4.9 6.1 4.8 10.1-.2 5.4-2.9-2.7-2.9-2.1-.3 10.8 3 14.5 9.4 37.8 16 58.6 1.6 4.7 3.6 11.9 4.5 16 .9 4 2.8 9.9 4.1 13.1s2.7 8 2.9 10.5c.3 2.6 1.1 7.4 1.7 10.7.5 3.3 1.1 13.1 1.1 21.7.1 17.4-.4 18.8-5.8 18.8-4.9 0-6.3.8-9.6 5.6-4.5 6.6-5.5 6.9-17.6 4.8-6.7-1.1-10.7-1.4-11.3-.8s-1.5 7-2 14.4c-.6 7.4-1.3 14.4-1.6 15.7l-.6 2.3h109.5l-.7-4.7c-.6-4.2-2.8-10.3-5.8-15.8-5.1-9.1-10.8-22.1-10.8-24.4 0-1.6-.6-3.1-1.4-3.4s-3.7-4-6.6-8.3c-4.2-6.2-5.4-9-6.1-13.8-1.1-7.8-1.2-27.3-.1-28 .5-.3 1.4-3.1 2.1-6.3s1.8-6.4 2.4-7.2c.6-.7 3.4-5.9 6.2-11.5 4.6-9.3 5.4-10.3 9.9-12.7 7.1-3.9 10.2-7.2 11-11.7.3-2.2 1.5-5.9 2.6-8.3 1.6-3.5 2-6.6 2-15.4 0-6.1.7-14.3 1.5-18.3 1.5-6.9 1.4-7.6-.3-11.5s-4.6-8.6-8.8-14.5c-1.7-2.5-11-7.2-14.2-7.2-1 0-3.6-1.5-5.8-3.4-2.1-1.8-5.5-4.2-7.4-5.2-9.9-5.5-11-6.6-16-17-2.7-5.6-5.4-11.9-5.9-14-.5-2.2-2.1-6.8-3.5-10.4-3.2-7.9-5-17.4-7.2-39-1.2-11.8-2.2-17.4-3.5-19.8-3-5.2-2.4-12.6 1.7-21.7.7-1.7 1.8-4.8 2.4-7 2.9-10.5 4.2-15.3 4.9-19.3l.8-4.2H0z"/><path d="M105.2 356.1c-2.1.6-3.6 1.9-4.2 3.5-1.2 3.1-6 21.8-6 23.3 0 .7 2.2 1.1 5.4 1.1 4.4 0 6-.5 8-2.4 2.4-2.2 2.6-3 2.6-11.3 0-9.2-.8-15.4-1.9-15.2-.3 0-2.1.5-3.9 1"/></svg>