<svg xmlns="http://www.w3.org/2000/svg" width="682.667" height="512" version="1.0" viewBox="0 0 512 384"><path d="M0 192v192h78.9l1-5.3c1-4.8 3.1-21.4 3.1-24.5 0-.7-2.1-2.2-4.7-3.4-3.9-1.7-5.8-1.9-12.3-1.4-8.5.8-10.2-.1-11.4-6-1.2-5.6-3.6-6.8-14.7-7.2-9.6-.4-10-.5-11.9-3.3l-2.1-2.8-3.4 2c-1.9 1.1-3.9 1.8-4.5 1.4-1.6-1-1.2-7 1-12.6 1.9-4.7 1.9-5.2.4-6.3s-1.5-1.4.1-2.9c.9-.9 2-1.7 2.5-1.7s2.3-1.8 4-4.1l3.2-4-2.8.7-2.7.7 2.9-4c1.5-2.2 3.4-3.9 4-3.6 1.5.6 3.4-2.7 3.4-5.8 0-1.5 2.6-4.7 7.8-9.5 5-4.8 7.1-7.4 6-7.4-1 0-1.8-.2-1.8-.5s2-3.1 4.4-6.2c9.1-12 15.9-22.9 22.1-35.4 3.6-7.1 6.5-13.1 6.5-13.3 0-.4-5.7-2.6-6.7-2.6-.2 0-.2.4.2.9.3.5.1 1.2-.5 1.6s-.8 1.1-.5 1.6c.4.5.1.9-.5.9-.7 0-1 .7-.6 1.5.3.8.1 1.5-.4 1.5-.6 0-1 1.5-1 3.3s-.6 4.2-1.4 5.3c-1.3 1.7-1.5 1.7-2.1.2-.4-.9-2.2-1.9-4.2-2.3-4.3-.8-6.7 1.1-9.4 7.1-1.1 2.3-3.5 5.4-5.5 6.9-3.4 2.6-3.8 2.7-4.9 1.2-1.5-2.1-2.7-11.9-1.9-15.5.9-3.6 3.6-6.5 10-10.4 5.8-3.4 6.2-4.2 3.8-7.3-2.6-3.4-7.3-20.1-8.6-30-1.3-11-.3-20.2 3.8-34.7l2.5-8.7-2.6-16.3c-1.5-9-4-20.8-5.7-26.3-4.2-13.9-4.1-13.2-2.4-22.4C42.7 61.3 43 62 35.8 62.6c-5.4.5-6.6.3-8.5-1.4-3.5-3-2.9-6.4 2.2-12.3 3.3-3.9 4.3-5.8 3.9-7.3-1.1-3.5-2-3.9-7.3-2.6-5.5 1.3-8.8.2-7.7-2.7.4-.9-.6-1.3-3.7-1.4-4.7 0-8.6-1.2-7.1-2.2 1.7-1 21.5-1.2 26.9-.3 2.8.5 5.7 1.5 6.6 2.2 1.3 1.2 2.1 1 5.4-1.3 2.1-1.4 5.8-2.8 8.2-3.1 3.6-.4 4.8-.1 6.8 1.8 3 2.8 3.1 5.5.6 9.4-1.1 1.7-1.8 3.3-1.6 3.7.3.4 3-.2 6-1.4 5.3-1.9 5.8-1.9 13.4-.4 9.9 2 16.4 4.6 13.8 5.6-1.6.6-1.6.8.6 2.9 1.8 1.7 2.5 3.4 2.5 6.7.1 2.4-.3 4.7-.8 5-1.7 1 .2 3.5 2.6 3.5 1.9 0 2.3.5 2.3 2.7 0 1.6.5 5.4 1.2 8.5l1.2 5.7-3.1 3c-1.8 1.6-3.2 3.5-3.2 4.3 0 2.9 5.7 8.8 13 13.6 5.5 3.7 8.3 6.3 10.4 9.8 1.5 2.7 5.1 6.7 7.9 8.9s7 5.9 9.4 8.1c3.7 3.6 4.3 4.7 4.3 8.3 0 2.3-.7 5.6-1.6 7.4-2.2 4.2-3 19.2-1.3 23.2.7 1.6 1.3 3.6 1.4 4.3 0 .7 1.4 2.4 3 3.7l3 2.5-3.8-1.5c-3.7-1.5-3.7-1.5-3.3.7.3 1.3 1.2 6.1 2.1 10.8 2.3 12.1 7.4 31.2 14.8 55.5 3.6 11.5 6.8 22.6 7.2 24.5s1.8 6 3.2 9c1.3 3 3.1 9.1 3.9 13.5s1.9 9.9 2.5 12.2c.5 2.3.9 10.9.9 19.2 0 16.7-.2 17.1-7 17.1-2.4 0-3.9.8-5.9 3.1-7.6 9.1-7.8 9.2-12.9 8.5-2.6-.3-8.4-.9-12.9-1.3l-8.1-.6-.6 4.4c-.3 2.4-.8 8.4-1.1 13.4-.4 4.9-.9 10.2-1.2 11.7l-.6 2.8h115.4l-.6-2.3c-.4-1.2-2-4.5-3.5-7.2-1.5-2.8-3.7-7.7-4.9-11-1.3-3.3-2.7-6.8-3.3-7.9-3.9-7.2-5.3-9.4-7.4-11.4-1.4-1.3-2.9-3.5-3.5-4.9-.5-1.3-1.3-2.2-1.7-1.9-.4.2-2.3-1.9-4.2-4.7-1.9-2.9-4.8-6.8-6.6-8.7-4.5-4.9-6.2-8.7-7.4-16.6-.6-3.7-1.9-8.4-2.8-10.4-1.4-2.8-1.7-6.4-1.7-18 0-13.1.2-14.9 2.2-18.8 1.3-2.3 3-7.7 3.9-12 .9-4.2 2.1-8.6 2.6-9.7 3-5.6 12.4-10.9 15.2-8.6.8.6 2 .9 2.7.6 3.2-1.3 4.7-5.2 5.4-14.4.4-5.1 1.3-10.5 2.1-11.9.8-1.5 1.4-3.3 1.4-4.1 0-2.4 4-8 5.4-7.5 2.3.9 4.9-6.3 4.3-12-.7-7.2-5.9-17-9.7-18.6-3.7-1.5-8.3-5.7-9.4-8.5l-.8-2-.8 2c-.8 2-.9 2-.9-.1-.1-1.1-.9-2.9-2-4-1-1.1-2.4-3.1-3.1-4.5-.9-1.6-1.5-1.9-1.8-1.1-.5 1.6-9.8-14.3-10.8-18.5-.4-1.5-1-3.3-1.4-3.8-1.6-2.4-2.9-9.9-3.5-20.5-.4-6.3-1-13.1-1.5-15s-1.1-6-1.5-9c-.9-7.8-4.3-21-5.7-22.8-.8-.9-1.6-6.9-2.1-15.1-.7-11.8-1.3-19.1-1.9-25.1-.1-.8.2-4.3.6-7.8l.7-6.2H0z"/><path d="M167 288.5c0 .5.5 1.7 1 2.5s1 1 1 .5c0-.6-.5-1.7-1-2.5s-1-1.1-1-.5m-62.3 68.2c-3.4.5-3.8 1.4-7.1 14.2-1.5 5.7-3 10.9-3.3 11.7-.4 1.1.8 1.4 5.5 1.4 5 0 6.5-.4 8.6-2.4 2.3-2 2.6-3.1 2.6-8.7 0-9.3-1.1-16.9-2.4-16.8-.6.1-2.3.4-3.9.6"/></svg>