<svg xmlns="http://www.w3.org/2000/svg" width="682.667" height="512" version="1.0" viewBox="0 0 512 384"><path d="M0 192v192h78l.9-2.2c.4-1.3 1.3-6.8 2-12.3.6-5.5 1.4-11.6 1.6-13.6.5-3.6.4-3.7-4.1-4.9-2.7-.8-7.2-1.1-11.2-.8-3.7.3-7.3.3-8 .1-.7-.3-2.4-2.9-3.7-5.9-2.7-6-2.8-6.1-15.4-6.7-7.8-.4-8.6-.6-10.6-3.1-2.2-2.8-2.3-2.8-5.5-1.1-6.2 3.2-7.6-.4-4-11.1 1.1-3.3 1.5-6 1-6.2-2-.7-1-4.2 1.2-4.7 1.3-.3 3.3-2.1 4.6-4 2.6-4.1 2.7-4.5.7-4.5-1.4 0-1.4-.3 0-3 .9-1.7 2-3 2.6-3s.7-.6.3-1.3c-.6-.9-.4-.9.8.1 1.4 1.1 1.8 1 2.8-.8.6-1.1.8-2.5.5-3-.8-1.2 3.2-8 4.6-8 .6 0 3-2.1 5.5-4.7 3.2-3.3 4.1-4.9 3.2-5.4-.9-.6-.7-1.6 1.2-4.1 8.4-11.4 17.9-26.6 23.5-37.8 3.6-7.1 6.5-13.2 6.5-13.4s-.8-.6-1.7-.9c-1-.3-3.5-1.2-5.6-2.1-2.3-1-3.6-1.2-3.2-.5.5.8.1.9-1.5.4-2-.6-2.2-.5-1.6 1.1 2.3 5.7 1.7 16.4-.8 16.4-.8 0-1.6-.6-1.9-1.4s-2-1.7-3.7-2.1c-4-.9-6.7 1.5-10 8.5-1.3 2.8-2.9 5-3.5 5-.7 0-1.9 1-2.7 2.2l-1.5 2.2-1.8-2.7c-2.3-3.5-2.6-16.6-.5-19.2.8-1 4.5-3.8 8.2-6.1 6-3.9 6.7-4.7 7.5-8.6.7-3.3.5-4.9-.7-7-1.9-3.4-2.5-2.1-1.1 2.6.5 2 .6 3.6.1 3.6s-1.1 1.4-1.5 3.1c-.7 2.9-.9 3.1-4.6 2.7-3.5-.3-3.8-.2-3.3 1.9.4 1.3.4 2.3.1 2.3-1.5 0-9.2-7.3-10.3-9.7l-1.2-2.8-.1 4.2c-.1 3.8-.4 4.3-2.5 4.3-1.9 0-2.5.7-3.1 3.6-.7 4.1-1.3 3.9-3.2-1.4-1.8-4.9-2.6-29.1-1.2-36.2 2.2-11.5 7.1-23.7 13.7-34 3.8-6 4.6-10.1 5.8-31.5.6-9.5.4-12.2-1.6-20-2.1-8.5-2.4-18.1-.8-29 .2-1.5-.2-1.9-1.7-1.7-9.7 1.4-10 1.4-12.7-.8-4.3-3.3-3.6-6.8 2.7-14.3 3.1-3.6 3.2-4 1.9-6.7-1-1.9-4-4.2-9.2-7C11.4 32.2 3 26.3 3 24.8c0-.5 2.5.5 5.5 2.2 5.5 3.1 5.9 3.1 5.5-.4-.1-1.3.2-1.6 1.2-1 1.2.7 10.4 7.1 15 10.4 2 1.4 2.1 1.3 1.6-1.2-.4-1.9-.1-2.5.9-2.1.7.3 1.3.8 1.3 1.2s.9 1.7 2.1 2.9l2 2.2 4.3-3.1c5.8-4.1 11.2-4.8 14.8-1.9 3.2 2.5 3.7 6.3 1.2 9.8-.9 1.3-1.4 2.6-1.1 2.8.3.3 2.8-.2 5.6-1.2 6.2-2 14.7-1.6 23.4 1.1 5.5 1.8 7.5 3.5 4 3.5-1.4 0-1.2.5.9 2.7 2.7 3 4.6 10.7 2.8 11.8-1.5.9-.2 2.5 2.1 2.5 1.2 0 1.9.7 1.9 2 0 1 .4 2.9.9 4.2s1.5 4.2 2.2 6.6c1.2 4.2 1.2 4.3-2.1 7-2.7 2.3-3.2 3.3-2.6 5.5.9 3.6 6.9 9.5 13.9 13.6 3.4 2 6.6 4.8 7.9 7 3.1 5.3 7.5 9.7 14.6 14.8 9.5 6.9 10.8 10.6 7.1 20.3-4.9 12.8.3 47.5 13.6 90 .8 2.5 2.6 8.3 4.1 13 1.4 4.7 3.2 10.3 3.9 12.5.8 2.2 1.7 5.8 2.1 8s2 6.7 3.5 9.9c1.6 3.3 3.6 9.4 4.5 13.6.8 4.1 2 8.6 2.5 10 1.3 3.6 2.1 32.8.9 35-.6 1.1-2.5 1.9-5.7 2.3-3.5.4-5.1 1.1-6.3 2.9-.8 1.2-2.9 3.8-4.8 5.7-3.1 3.2-3.4 3.3-9 2.7-23.6-2.6-22.7-3-23.6 9.6-.3 5.1-.9 11.9-1.2 15.1l-.7 5.7h58.2c31.9 0 58.1-.3 58.1-.7 0-.3-1.3-3-3-5.9-1.6-2.9-3.7-8.6-4.6-12.6-1.9-8.3-4.2-14.7-8.5-23.1-1.6-3.1-2.6-5.7-2.2-5.7s.2-.5-.5-1.2-1.2-1.9-1.2-2.8c0-2.4-9.7-13.7-13.4-15.4-1.9-.9-3.6-2.3-4-3.1-.3-.8-1.2-1.5-2-1.5-.9 0-2-.9-2.6-2.1-.7-1.1-1.4-1.8-1.7-1.5-.3.2-1.5-.6-2.8-2-1.2-1.3-2.6-2.4-3.1-2.4-1.1 0-7.4-10.6-7.4-12.4 0-.7-.7-2.1-1.5-3.2-.8-1-1.5-2.7-1.5-3.8 0-1-2.2-6.3-5-11.8-2.7-5.5-5-10.6-5-11.3 0-.8-.8-2.1-1.7-3.1-1.9-1.8-2.5-6.3-3.9-26.4-.6-9.9-.5-10.8 2-16.7 1.4-3.4 2.6-7.2 2.6-8.3s.4-2 .9-2 1.4-1.3 2-3c.6-1.6 1.6-4.3 2.2-5.9.6-1.5 2.1-3.4 3.3-4 1.3-.8 4.6-5.9 8.1-12.7 3.2-6.3 6.1-11.4 6.4-11.4 1.4-.1 10-8.8 11.4-11.5 2.8-5.9 4-13.5 3.3-22.4-.6-8.6.1-14.6 3.9-31.6 1.5-6.8 2.3-43.9 1.6-78-.1-6.1.3-13.7.8-17 .6-3.3 1.1-6.3 1.1-6.8 0-.4-48.1-.7-107-.7H0z"/><path d="M97.3 180.6c0 2 .5 3.3 1.1 3.1 1.5-.5 1.7-5.4.2-6-.9-.4-1.3.6-1.3 2.9m6.2 177.3c-2.8.6-3.1 1.2-5.7 10.6-1.5 5.5-3 11.2-3.4 12.7l-.6 2.8h6.4c9.3 0 9.9-1 9.6-15.3-.3-12.1-.3-12.1-6.3-10.8"/></svg>