<svg xmlns="http://www.w3.org/2000/svg" width="682.667" height="512" version="1.0" viewBox="0 0 512 384"><path d="M0 14.4v14.4l3.3.7c1.7.4 6 2.3 9.3 4.1 3.4 1.9 6.8 3.2 7.6 2.9s3 .5 4.9 1.7c7.4 5 8.3 5.1 13.1 1.3 3.2-2.6 5.3-3.5 8.1-3.5 7.5 0 10.6 4.7 7.5 11.5-.6 1.4-.9 2.7-.7 3 .3.2 2.7-.7 5.4-2.1 4.4-2.2 5.8-2.5 11.5-1.9 8.6.8 17 2.6 17 3.7 0 .4-.5.8-1.2.8-.6 0 0 1.2 1.4 2.7 1.4 1.6 2.6 3.5 2.6 4.3s.3 3 .8 4.9c.5 2.7.4 3.2-.6 2.6-.8-.5-1.1-.3-.8.6.2.8 1.7 1.5 3.1 1.7 2 .3 2.7.9 2.7 2.6 0 1.2.4 2.6.9 3.2.4.5 1.6 3.1 2.4 5.7 1.6 4.8 1.6 4.9-.8 7.3-4.2 4.2-4.2 6.7.1 11.4 2.1 2.3 5.8 5.1 8.3 6.3 4.2 2 8.3 5.6 15.9 14.4 1.9 2.1 6.5 6 10.4 8.8 10.1 7.2 11.5 10.6 7.8 20.3-1.2 3-2 7.6-2 11 0 7.6 2.6 30 4.4 38.7 2.4 11.4 11.2 42.7 17.6 62.4 1.6 5.2 3 10.4 3 11.5 0 1.2 1.4 5 3 8.5 5.1 10.7 8.8 28.3 9.4 44.9.5 13.2.3 14.5-1.5 16.3-1.1 1.1-3.3 1.9-5.3 1.9-3.8 0-5.8 1.5-8.2 6.2-2.2 4.3-7 6-13.5 4.8-2.8-.6-8.5-1-12.5-1-6 0-7.5.3-8.2 1.7-.5 1-1.2 6.7-1.6 12.6s-.9 12.1-1.3 13.7l-.6 3H263v-4c0-3.2-.5-4.3-3.1-6.2-1.7-1.3-3.4-2.3-3.8-2.3-.5 0-3.2-2-6.1-4.5-2.8-2.5-6.1-4.9-7.1-5.4s-1.9-1.3-1.9-1.8-.4-.6-1-.3c-.5.3-1-.1-1-1 0-.8-4-5.8-8.9-11-5-5.3-9.3-10.5-9.7-11.8-.4-1.2-1.4-3.3-2.4-4.7-.9-1.4-2.5-4.8-3.5-7.5-1-2.8-2.1-5.2-2.5-5.5-1.3-.9-3.8-7.3-5.8-14.5-3.2-11.5-4.2-22.8-4.2-48.6 0-16.7-.5-27.4-1.5-33.9-.8-5.2-1.7-12.4-2-16-1.1-12.5-2.5-17.2-6.4-20.9-2-1.9-3.5-3.9-3.3-4.4.1-.5-.2-.6-.7-.3-1.6 1-2.4-1.3-2.7-7.8-.9-19.6-2.2-28.5-4.8-31.6-.7-.8-1.8-2.9-2.5-4.7-.7-1.7-2.1-3.9-3.2-4.9-2.4-2.1-2.6-10.8-.4-16.1.8-2 1.5-6.6 1.5-10.5 0-5.8.4-7.5 2.4-10.1 4.1-5.5 8.3-13.9 11.1-22 2.7-8 9-19.7 10.6-19.7.5 0 3.5-2 6.6-4.4 12.7-9.7 14.5-13.4 14.7-29.1.1-6.1.6-12.7 1-14.8l.9-3.7H0z"/><path d="M0 109.2c.1 70.7.2 78.1 1.6 76.3 2.7-3.6 3.5-5.3 2.4-6-.5-.3 1.5-3.5 4.6-7.1 3-3.6 7.6-10.8 10.2-16.2 2.6-5.3 7.7-15.3 11.4-22.2 9.2-17.2 10.3-24.5 6.1-40-1.1-4.5-1.2-7.4-.5-14.5.6-5 .8-9.3.6-9.7s-2.1 0-4.1.8c-4.6 2-9.2 1.1-12.3-2.1-2.1-2.2-2.2-2.7-1-5.5.7-1.7 2.6-4.9 4.2-7.1 4.4-6.2 3-9.3-6.6-14.1-3.4-1.7-7.9-4.5-10.1-6.2-2.2-1.8-4.6-3.6-5.2-4C.3 31 0 46.8 0 109.2m58.1 55.3c-1.3 2.8-2.1 6.4-2.1 9.7l.1 5.3 1.8-5c1.7-4.7 3.5-14.5 2.7-14.5-.2 0-1.3 2-2.5 4.5"/><path d="M80.1 163.2c-.5 1.5-1.9 4.6-3 6.8s-2.2 5.9-2.6 8.3c-1.1 6.4-3 13.1-7.5 25.5-3.9 10.6-4.1 11.7-3.1 16.3 1.1 5.2.5 12.5-1.1 13.5-.5.3-1.8-.3-2.9-1.5-2.4-2.6-7-2.7-9.1-.4-.9 1-2.8 4.2-4.2 7-1.4 2.9-3.2 5.3-3.9 5.3s-1.8 1-2.5 2.1c-1.9 2.9-3.1 1.4-4.6-5.8-.8-3.9-.9-7.1-.3-9.4.9-3.3.7-3.5-8-11.9-5.3-5.2-9.6-10.2-10.7-12.8-1.1-2.3-2.2-4.2-2.5-4.2-1.2 0-2.8 1.6-4 3.7-1.9 3.7-4.1 2.9-4.1-1.5 0-2.6 1.1-5.8 3.5-9.8l3.5-5.9-6.5 6.6-6.5 6.7V384h38.9c36.2 0 39-.1 39.5-1.8 1-3.3 2.5-13.8 3.2-21.4l.7-7.8-3.9-1.6c-3.1-1.3-5.1-1.5-10.1-.7-8 1.2-9.9.4-11.4-4.6-2-6.7-3.8-7.6-13.9-7.3-8 .2-9 .1-10.3-1.9-1.4-2-1.6-2-4.7-.4-1.7.9-3.8 1.4-4.6 1.1-1.9-.7-1.8-8.1.1-13.7 1-2.8 1.2-4.5.5-4.7-2-.7-.9-3 3.5-7.7 4-4.1 4.4-4.9 3-5.9s-1.3-1.5.7-4.2c1.3-1.7 2.9-2.9 3.5-2.7.8.3 1.5-1 1.9-3.5.5-3.1 2.1-5.6 7-10.8 3.5-3.7 6.4-7.4 6.4-8.1 0-.8-.5-1.1-1.2-.7-1.3.8-1.5 1.1 6.9-11.4 5.7-8.6 18.8-33.5 23.6-44.9 1.6-3.6 1.6-4.8.6-8.3-1.1-3.5-1-4.6.4-7.6 1.8-3.8 2.1-11.3.8-24.9-.4-4.4-.3-9.8.1-11.9 1.1-4.9.4-7-1.1-3.4m16.9 4c-.1.2-.3 3-.5 6.3s-.7 8.5-1 11.5l-.5 5.5 2.6-4.9c2.2-4.1 2.5-5.9 2.2-10.5-.3-3-1-5.7-1.7-5.9-.6-.2-.9-.8-.5-1.3.3-.5.3-.9 0-.9s-.6.1-.6.2"/><path d="M48 216.1c0 .5.5.7 1 .4.6-.3 1-.8 1-1.1 0-.2-.4-.4-1-.4-.5 0-1 .5-1 1.1m119 73.6c0 .4.5 1.5 1 2.3.8 1.3 1 1.3 1-.2 0-.9-.4-2-1-2.3-.5-.3-1-.3-1 .2m-65.2 69c-1.1.3-2.2 2.1-2.9 4.6-.6 2.3-1.9 7.3-3 11.2-1 3.8-1.9 7.5-1.9 8.2 0 2.2 12.3 1.7 14.3-.5 1.8-2 2.3-12.8 1.1-20.5-.6-3.2-1-3.7-3.3-3.6-1.4.1-3.4.3-4.3.6"/></svg>