<svg xmlns="http://www.w3.org/2000/svg" width="682.667" height="512" version="1.0" viewBox="0 0 512 384"><path d="M0 16v16l2.8 1.2c1.5.6 4.1 1.7 5.7 2.4 1.7.7 7.9 2.8 13.8 4.8L33.1 44l4-3.4c6.8-5.7 12.3-5.4 16.5 1 1.2 1.7 1.1 2.5-.5 5.7-1 2-1.6 3.8-1.4 4.1.3.3 2.8-.7 5.6-2.1 4.7-2.3 5.9-2.5 13.2-2C79.3 48 86 49.6 86 51c0 .5-.8.7-1.7.3-1.1-.3-.5.7 1.4 2.7 1.8 1.8 3 3.6 2.8 4.1-.3.4 0 1.7.7 2.9 1 1.5 1 2.4.1 3.9-1.4 2.3-.8 3.1 2.4 3.1 1.8 0 2.3.6 2.3 2.4 0 1.4.4 2.7.9 3s1.6 2.9 2.5 5.7c1.7 5.2 1.7 5.2-.7 7.8-2.2 2.3-2.7 4.5-1.8 8.2 0 .3 1.3 1.9 2.9 3.5 2.6 3 16.2 11.1 16.2 9.8 0-.3.6-.1 1.3.5 1.1.9 1.6 0 2.6-4.5 1.2-5.3 4.6-12.5 6.3-13.2.4-.2 1.2-1.9 1.8-3.8s1.5-3.2 1.9-3c.4.3 1.3-1 2-2.7 3.4-8.1 5.8-12.1 8.8-14.7 1.7-1.5 2.9-3.2 2.5-3.6s.1-.4 1.1-.1c1.1.4 2 .1 2.3-.7.5-1.4 4.6-1.5 7.5-.2 1 .4 2.3.6 3 .5.8-.1 2.8.4 4.4 1.1 7.4 3.3 26.7 1.7 31.5-2.5 1.4-1.2 4.1-3.2 6-4.5 5-3.4 10.4-8.1 10.6-9.4.1-.6 1.6-4.5 3.3-8.7 3-7.5 5.1-21.5 5.1-34.7V0H0zm0 94.2v75.2l3-2.9c1.9-1.8 2.6-3.1 1.9-3.6-.8-.5-.8-.8 0-1.3.6-.4.9-1.1.6-1.5-1-1.7 6.8-17.7 13.2-27.2C35.8 123.7 38 119 38 108.2c0-2.6-.7-7.5-1.6-10.7-1.2-4.4-1.5-8.8-1.1-16.8.2-5.9.2-10.7-.2-10.7-.3.1-1.7.7-3.1 1.5-5.8 3.3-14 .2-14-5.3 0-1.5 1.6-5.2 3.7-8.1 3.4-5.1 3.5-5.6 2.2-8-.9-1.6-4.6-4.2-9.9-6.9-4.7-2.3-9.7-5.1-11.2-6.2L0 34.9zM157.3 150c-1.3 1.4-17.5 2.2-16.7.9.3-.5 0-.9-.6-.9-.7 0-1 .7-.7 1.5.4.8.1 1.7-.5 2.1-1.7 1.1 0 26.1 2.7 40 1.3 6.6 3.3 15.2 4.3 19 4.2 14.6 11.4 39 14.2 47.2 1.5 4.8 3.1 10.3 3.5 12.2s2 6.2 3.6 9.5c4.4 9.2 7.2 23.7 7.9 41 .3 8.2.2 16-.2 17.2-.5 1.6-1.8 2.4-4.5 2.8-6.4 1.1-6.8 1.4-9.7 6-1.6 2.4-3.7 4.7-4.8 5-1 .4-7.4.3-14.2-.1-16.7-.9-16.2-1.3-17 12.8-.4 6.2-1 12.8-1.3 14.6l-.5 3.2h64.5c52.9 0 64.7-.3 65.6-1.4.6-.8 2.6-1.6 4.4-2 1.7-.4 4.8-2.2 6.8-4.2 3.3-3.2 3.9-3.5 5.9-2.4 3.2 1.7 4.8-.1 3.1-3.4-1-1.8-2.1-2.4-4.7-2.3-2.5.1-3.9-.5-5-2.1-.8-1.3-2.1-2.2-2.7-2-.7.1-3-.7-5.2-1.7s-5.1-2-6.5-2.2-3.2-1.4-4-2.6-2.3-3-3.2-3.9c-1-1-1.8-2.1-1.8-2.5 0-.8-3.2-3.7-11.1-10.1-2.6-2-6.4-6.1-8.5-9-7.5-10.2-10.6-13.7-12.8-14.3-1.1-.3-2-1-1.9-1.5s-1.9-.9-4.5-1c-4.7-.1-7.3-2.1-10.1-7.8-8.8-18.2-9.4-19.9-8.8-26.7.4-4.2 1.4-8.2 3.1-11.2 1.3-2.6 3-6.4 3.7-8.5.6-2 1.5-4.2 1.9-4.7.4-.6 1-3.5 1.4-6.5.3-3 1-8 1.5-11 2.7-16.2 3.3-20.3 4-28.5.4-5 .4-10.6 0-12.5s-1-5.1-1.3-7c-.4-2.1-2.4-5.5-5.1-8.5-4.5-5.1-5.9-7.9-8.9-17.5-2.2-7.1-4.2-11.5-5.8-12.7-3-2.4-17.7-4.1-19.5-2.3m-78.8 15.7c-1 2.7-2.1 5.2-2.5 5.8-.5.5-1.3 3.6-1.9 6.8s-3.5 13.1-6.6 21.9c-5 14.6-5.4 16.5-4.4 19.6 1.3 3.9.7 11.8-1 13.5-.8.8-1.6.5-3.1-1.1-4.2-4.5-9.2-1.7-13.4 7.6-1 2.3-2.5 4.2-3.1 4.2-.7 0-1.9 1-2.8 2.2-2.2 3.3-3.6 1.4-4.9-6.3-.9-5.8-1.4-6.7-4.7-8.9-5-3.5-6.2-3.7-2.6-.6l3 2.6-4.2-2c-4.3-2.2-14-13.7-18.1-21.5-1.2-2.2-2.1-3.4-2.2-2.7 0 .7-.4 1.1-.8.8-.5-.3-.7-3.3-.5-6.8l.4-6.2-2.6 2.4-2.5 2.3V384h38.9c36.2 0 39-.1 39.5-1.8.8-2.5 2.3-13.6 3.1-21.9l.7-7.3-2.8-1.1c-1.8-.7-5.9-.9-11-.5-9 .7-9.3.6-11.3-5.5-2.1-6.4-3.9-7.3-13.3-6.6-7.7.6-8.4.5-9.9-1.5s-1.8-2-4-.4c-5.9 4.1-8.1-.2-5.4-10.6 1-4.1 1.2-6.4.5-6.6-1.8-.6-1.1-2.4 2.5-5.9 4.6-4.5 6.1-7.3 4-7.3-.9 0-1.5-.3-1.3-.8 2.4-4.8 3.3-6.2 4-6.2.5 0 .6-.5.2-1.2q-.75-1.05.6-.3c1.5.9 3-1.1 3-4.3 0-1.3 1.6-3.9 3.5-5.9s3.2-4 2.8-4.6c-.3-.5-.1-.7.4-.4.6.4 2.3-.9 3.7-2.7 2.8-3.7 3.3-5.2 1.4-4-1.3.8-1 .3 9.6-17.1 7.3-11.8 13.7-24.5 18.5-36.5 3-7.4 3.1-7.6 1.5-11.7-1.6-4-1.6-4.4.2-7 1.7-2.5 1.9-4.9 1.9-23 0-11.2-.3-20.3-.6-20.3-.4 0-1.4 2.1-2.4 4.7m17.2 11.4c-.4 5.7-.9 11.5-1.3 12.9-.7 2.8 4.9-6.2 6-9.7.8-2.5-.7-9-2.7-11.7-1.2-1.7-1.5-.6-2 8.5"/><path d="M51.6 178.7c-.4.5-1.3.8-1.9.8-.7 0-1.7 2-2.4 4.5s-2 7-2.9 10-1.8 6.7-2.1 8.2-.8 2.6-1.2 2.3c-.4-.2-.8.2-.8 1s.5 1.1 1.1.8c.7-.4.7-.1-.1.8-1.5 1.8-2.2 8.9-1.2 11.1 1.1 2.1-1.8 1.9-3.1-.2-1.4-2.3-2.1-.5-1 2.5.7 2 .8 3.1 0 3.9-1.7 1.7-1.1 2.7.8 1 .9-.9 4.6-3.5 8.2-5.8l6.5-4.2 1.2-8c.6-4.3 1.2-9.7 1.2-11.9l-.1-4-1.4 3.4c-.8 1.8-1.7 3.2-1.8 3-.2-.2.3-4.6 1-9.8 1.4-9.3 1.4-10.8 0-9.4m-18.9 50.8c-.4.8-.1 1.7.6 2.1s.9.4.5-.1c-.4-.4-.3-1.4.3-2.2.7-.8.8-1.3.1-1.3-.5 0-1.2.7-1.5 1.5m70.1 129.2c-2.2.3-3 1.2-3.8 4.1-3 10.8-5 18.8-5 19.9 0 .9 1.9 1.3 6.3 1.3 9.8 0 10.9-2.4 9.1-19.9-.7-6.5-.5-6.3-6.6-5.4"/></svg>