<svg xmlns="http://www.w3.org/2000/svg" width="682.667" height="512" version="1.0" viewBox="0 0 512 384"><path d="M0 19.9v20l5.7.6c3.2.4 8.4 1.6 11.7 2.7 3.2 1 6.5 1.8 7.5 1.7.9-.2 2.7.1 4 .5 1.8.6 3 .2 5.5-2.2 6.2-5.9 9.8-6.6 14.5-2.6 3.3 2.7 3.9 6 2 9.6-1.6 3-.7 3.1 5.2.3C59.5 49 63.3 48 66.3 48c5.5 0 20.1 3.2 17.4 3.8-1.8.4-1.7.6.5 3 2.8 3.1 5.3 10.5 3.8 11-2.4.8-.9 3.2 2 3.2 2.5 0 3 .4 3 2.3 0 1.3.3 2.7.7 3.1s1.5 2.8 2.5 5.4c1.9 5 2.1 4.2-2.8 10.9-1.2 1.7-1.3 2.6-.4 4.3 1.8 3.4 6.9 7.7 13.8 11.5 4.2 2.4 7.5 5.3 10.1 8.9 4 5.3 8 8.8 15.9 13.9 8.3 5.4 9.4 9.7 5.7 22.7-2.8 9.9.6 37.6 7.7 62 1.6 5.8 3.8 13.4 4.9 17 1 3.6 4 13.3 6.8 21.6 2.7 8.3 5.3 16.9 5.7 19 .3 2.2 2 6.8 3.6 10.3 4.7 10 7 23.1 7.4 42 .4 17.4 0 19.1-4.1 19.1-4.2 0-8 2-10.2 5.5-4 6.1-5.7 6.7-16.9 5.6-5.5-.5-11.7-.6-13.9-.2-3.9.6-4 .7-4.6 5.6-.3 2.8-.9 9.4-1.3 14.8l-.7 9.7h119.9l-.5-4.3c-.2-2.3-1.1-6-2-8.2-1.3-3.6-2-15.6-.9-17.3.6-1-1.2-11-2.6-14.7-1.5-3.9-6.9-10.6-14-17.5-3.1-3-6.3-6.9-7.2-8.5-1.8-3.6-10.8-13-18.9-20-6.8-5.8-10.2-11.1-11.2-17.5-.3-2.5-1.2-7.4-2-11-.7-3.6-1.9-9.7-2.5-13.5-.6-3.9-2.1-11.4-3.2-16.7-1.2-5.8-1.8-11.4-1.4-13.9.7-5.3 2.6-12.3 3.5-12.9 3-2.1 6.4-20.1 5.6-29.3-.9-8.9 2.1-51.7 3.8-54.4.3-.5.9-3 1.2-5.4s1-6 1.6-8.1c.5-2.1 1.2-5.5 1.4-7.6.2-2 .8-5 1.4-6.5 1.3-3.4 1.4-12.3.2-16.3-4-13-4.3-14.8-3.9-23.2.4-7.6.9-9.5 3.9-14.8 1.9-3.3 4.1-6.9 4.9-8 2-2.6 6.9-5.6 8-4.9.5.3 1.1.1 1.4-.4s2.1-1.2 4-1.5c1.8-.4 4-1.4 4.9-2.4 2.1-2.4 5.3-13.7 5.6-20l.2-5.2H0z"/><path d="M0 104.9c0 34.2.2 62.1.4 62.1s2-2.5 4.1-5.6c2-3.2 8.3-10.7 13.9-16.8 5.5-6.1 10.9-12 11.9-13.1 3.3-3.7 6.7-12 7.3-18.1.5-4.9.2-7.7-1.6-13.5-1.7-5.7-2.1-9.4-2-16.9.3-11.9.4-11.4-2.2-9.6-2.9 2-9.7 2-12.6 0-3.3-2.3-2.9-6.9 1.2-13.4 3.1-5 3.3-5.5 1.9-7.6-1-1.5-4.5-3.3-10.6-5.4-5.1-1.8-9.8-3.4-10.4-3.7-1-.4-1.3 12.3-1.3 61.6m76.4 63.8c-1.7 4.3-3.8 10.9-4.7 14.8-1 3.8-3.8 12.8-6.4 19.8-4.5 12.5-4.6 13-3.4 17.8 1.4 5.2.7 12.9-1.2 12.9-.6 0-1.8-.6-2.6-1.4-.9-.7-2.8-1.6-4.3-2-2.2-.5-3.1-.1-5.2 2.7-1.4 1.8-3.3 5-4.1 7.1-.9 2.1-2.4 4-3.5 4.3-1 .3-2 1.3-2.3 2.4-1.6 5.9-5-1.6-5.1-11.1 0-8.1 1-9.6 10.6-15.7 3.2-2.1 6.1-4.7 6.3-5.8 1.6-7.1 5.6-35.7 5.1-36.2-.1-.1-2.1 2.3-4.4 5.5-4.9 6.8-14 16.9-11.7 13 .9-1.5 1.3-3.3.9-3.9q-.6-1.05.3-.6c.6.4 1.3-.2 1.6-1.2.3-1.4.1-1.8-.9-1.4s-1.2 0-.8-1.1c2.7-7.1-15.3 14.3-18.9 22.3-1.1 2.5-2.8 5.7-3.8 7-1.6 2-1.9 2.1-1.9.6 0-1.7-.1-1.7-2 0-1.1 1-2 2.5-2 3.2 0 1.9-4 5.2-6.2 5.3q-1.65 0-1.2 1.5c.4.8.1 1.5-.5 1.5-.7 0-1.4-.7-1.7-1.5-.4-.8-1-1.5-1.5-1.5-.4 0-.9 35.3-.9 78.5V384h77.8l.6-2.5c.8-3 3.6-24.1 3.6-26.6 0-2.8-7.1-4.4-13.8-3-6.7 1.3-8.6.4-10.4-5.1-.8-2.3-2.6-5.1-4-6.1-2.4-1.8-3.1-1.9-9.4-.7-6.1 1.2-6.8 1.1-8-.5s-1.5-1.6-4.3.5c-1.7 1.1-3.5 1.9-4 1.6-1.7-1.1-2-7.2-.6-13.1.8-3.5 1-6.1.4-6.3-1.7-.7-.9-2.8 2.6-6.6 3.2-3.5 4.9-7.6 2.5-6.1-2.5 1.6 1.3-6.3 4.2-8.6 1.1-.9 2.2-2.8 2.3-4.2.3-2.5 3.9-7.8 9.3-13.6 1.2-1.4 2-3.1 1.7-3.8-.2-.8-.1-1.1.5-.8.5.3.8-.3.8-1.2-.1-1 2.9-7 6.6-13.3 8.5-14.3 10.6-18.5 17.2-33.9l5.4-12.4-1.8-4.9c-1.7-4.8-1.7-4.9.5-8.7 2.1-3.7 2.2-4.7 1.9-23.2-.2-10.6-.8-19.5-1.3-19.6-.5-.2-2.3 3.2-3.9 7.4m19.2 1.5c-1.7 14.3-2.5 23.2-2.1 23.6.7.7 6.5-10.2 7.1-13.5.6-3.2-1.9-12.7-3.6-13.8-.5-.3-1.1 1.4-1.4 3.7m8.7 188.6c-1.7.2-3.6.9-4.1 1.5-1.1 1.3-6.2 19.6-6.2 22.1 0 1.3 1.2 1.6 6.3 1.6 9.3 0 10.2-1.2 9.4-13.4-.3-5.2-.9-10.1-1.4-10.8-.4-.7-2.1-1.2-4-1"/></svg>