<svg xmlns="http://www.w3.org/2000/svg" width="682.667" height="512" version="1.0" viewBox="0 0 512 384"><path d="M0 21.9v21.8l7.6.7c4.1.4 8.7 1.2 10.2 1.7 1.5.6 4.8 1.2 7.5 1.3 3.9.2 5.1-.2 7-2.2 5-5.4 11-6.6 15.8-3.1 3.3 2.3 3.7 5.4 1.3 10.1-.9 1.6-1.2 2.9-.7 2.7l6.6-3.3 5.8-2.9 10.2 1.2c5.6.6 10.6 1.6 11.1 2.1.7.7.3 1-.9 1-1.6 0-1.4.5 1.2 2.7 3.2 2.9 6 10.8 4.2 11.9-1.9 1.1-.8 2.5 1.8 2.2 2.1-.2 2.8.2 3.1 1.7.3 1.9 2.1 6.6 4.4 11.1 1.1 2.3.1 5.1-2.6 7.4-4.5 3.6.5 10.6 12.4 17.3 4.7 2.6 8.3 5.5 9.7 7.7 3.5 5.3 7.2 8.9 13.3 12.8 12.1 7.6 13.6 10.9 9.9 21.8-2.2 6.5-2.2 7.1-1.1 21.1 1.8 21.7 3.7 29.5 19.2 80.5 3.3 10.8 6 20.3 6 21.2s1.6 5.4 3.5 10c5.2 12.7 7 23.2 7 43.1v16.9l-3.5.9c-6.8 1.6-7.9 2.2-11.2 6.7l-3.4 4.5-14-.3c-7.6-.1-14.5.1-15.2.6-1.1.8-3.1 17.3-3.2 26.4v2.8h59c58.1 0 59.1 0 58-1.9-.5-1.1-1-3.2-1-4.8s-.8-4.4-1.9-6.3c-1.3-2.6-2-6.8-2.5-16.3-.4-7.1-1.1-13.8-1.5-15-1.8-4.7-2.2-14.2-1-20.5 1.2-5.9 1.1-6.7-.6-10-1.5-2.8-3.2-4-6.9-5.4-2.7-.9-5.2-1.7-5.5-1.6-3.8.4-6.9-3.9-7.7-11-.9-7.9-2.6-14.5-4.2-16.1-3.2-3.2-7.2-9-7.2-10.4 0-1.8-4.4-12.6-6.9-16.9-1.2-1.9-5-6-8.5-9.1-5.8-5.1-6.6-6.3-7.2-10.4-.8-5.2 1-19 3.1-24 .8-1.8 1.9-8.6 2.5-15 1-11.4 2.3-17.3 4.4-20.2.6-.7 1.3-11 1.7-23 .5-16.7 1.1-23.5 2.7-30.1 2.9-12.1 3.3-13.8 4.2-20 .8-5.4 2.8-11 3.9-11 .3 0 .4-2.2.3-5-.2-2.7 0-5 .5-5 .4 0 2.5-1.5 4.6-3.3 4.3-3.7 6.3-10 6.5-20.7.2-8.9 1.9-15.7 4.1-16.3 1.2-.3 2.1-1.8 2.5-4.2.4-2.1 1.2-4.5 1.7-5.4.7-1 .7-5.7.2-13.1L219.5.5 109.8.2 0 0z"/><path d="m0 106.1.1 59.4 4.2-5c2.3-2.8 9.6-10.6 16.2-17.5 12.9-13.3 14.6-16.1 16.6-25.5 1-5.2.9-6.8-.7-12.5-1-3.7-2-11.5-2.4-18.3-.3-6.4-.8-11.7-1.2-11.7-.4.1-2.4.8-4.4 1.6-3.7 1.5-6.2 1.2-10.1-1.3-3.8-2.5-3.7-4.9.2-11.9 5.2-9.6 4.5-10.7-8.8-13.8-3.4-.8-7-1.8-7.9-2.1C.1 46.8 0 50 0 106.1m78.2 56.6c.1.5-.4 3.6-1.1 7-.9 4.3-1.7 6-2.6 5.7-1.4-.6-1.9.7-3 7-.4 2.2-3.1 10.9-6.2 19.5-5 14.1-5.4 15.8-4.4 19.2 1.6 5.3 1.4 11.4-.4 12.9-1.3 1.1-1.8 1-2.8-.3-.7-.8-2.6-1.8-4.3-2.2-2.9-.5-3.5-.2-6.3 3.6-1.7 2.4-3.1 4.9-3.1 5.6s-1.7 3.1-3.8 5.4c-3.4 3.5-4 3.8-5.1 2.5-.7-.9-1.6-5.4-1.8-10l-.6-8.5 3.5-3.3c1.8-1.8 5.6-4.9 8.3-6.8 4.9-3.4 5-3.7 6.1-10.5.6-3.9 1.4-9.6 1.7-12.9.5-5.2.4-5.6-.9-4-1.4 1.8-1.4 1.8-.7 0 .4-1.2.3-1.7-.4-1.3-.5.4-3.4 5.8-6.3 12.1-3 6.3-5.8 11.3-6.2 11-.5-.3-.6-1.1-.2-1.7.3-.7-.3-.2-1.4 1-1.1 1.3-2.3 2.3-2.6 2.3s-.6-1-.7-2.3-.8-.1-1.8 3c-1.8 5.5-3.1 7.7-3.1 5 0-.8-.7-2.3-1.7-3.2-1.3-1.4-1.4-2.4-.6-6.1.6-2.4.9-4.4.7-4.4-.1 0-2.8 3.6-5.9 8.1-5.7 8.1-7.4 9.5-5.5 4.4.7-1.9.7-3.1-.1-4.1-.6-.7-.8-2.1-.6-3.1.3-1 .9-2.9 1.2-4.3l.7-2.5-2.7 2.5c-1.5 1.4-4 4.3-5.5 6.6-1.6 2.2-3.6 4.1-4.4 4.1-1.4 0-1.4-.2-.2-1.6.8-.9 1.9-3 2.5-4.6 1.1-2.9 1-2.9-2.4.9L0 218.3V384h77.8l.7-2.7c.6-2.4 3.5-24.4 3.5-26.4 0-1.8-7.4-3-14.3-2.4-8.3.8-8.3.7-11.1-6.8-2.1-5.7-4-6.4-12.2-4.7-5 1.1-6 1-6.8-.3s-1.3-1.2-3.7.5c-1.5 1.1-3.2 1.7-3.8 1.4-1.9-1.2-2.2-7-.7-13.3 1.2-5.4 1.2-6.3 0-6.3-2 0-1.8-.8 1.1-4.2 2.7-3.2 3.3-5.3 1.2-4.3-.6.4-.3-.1.8-1s1.9-2.3 1.7-3c-.3-1.5 2.2-6.9 4.3-9.5.7-.8 1.5-2.7 1.8-4.1.4-1.4 2.5-4.9 4.7-7.6 2.2-2.8 4-5.4 4-5.8s1-1.5 2.3-2.6c1.2-1 1.7-1.8 1-1.9-1.7 0-.9-1.9 4.9-11.7 6.5-11 15.8-29.8 20.1-40.4 3.2-8 3.3-8.9 2.1-11.9-1.9-4.5-1.7-7.3.7-11.9 2-3.9 2-4.6.9-17.1-1-10-1-14.1-.1-17.7 1-3.7.9-4.8-.1-5.4-1.6-1.1-2.9-1.1-2.6-.2m17.5 5.3c-.3 1.4-1 7.5-1.6 13.7s-1.4 12-1.7 13c-1.1 3.6 2.8-2 5.8-8.5 3.3-6.8 3.3-9.4-.1-16.7-1.8-3.8-1.9-3.9-2.4-1.5m6.8 191.9c-2.8.6-3.1 1.2-5.6 10.1-4.1 14.4-4.2 14 4 14 9.1 0 9.6-.6 8.7-11.8-.3-4.8-.9-9.7-1.2-11-.7-2.3-1-2.4-5.9-1.3"/></svg>