<svg xmlns="http://www.w3.org/2000/svg" width="682.667" height="512" version="1.0" viewBox="0 0 512 384"><path d="M312 1.4c0 3.2 4.2 14.5 7 19 1.7 2.6 3 5 2.8 5.1-.2.2-3.1 1-6.6 1.9-20.9 5.3-41.5 18.8-52.9 34.6-7.6 10.5-10.8 17-13.2 27-2.3 9.2-6 17.2-9.9 21.2-1.4 1.6-2.2 2.8-1.6 2.8 1.6 0 7.4-3.9 7.4-5 0-.5.4-1 .9-1s.3 2.6-.4 5.7c-1.4 6.1-1.2 8.2.5 4.2.7-1.8.9.2.5 7.1-.4 7.9-.2 9 .7 6.7.7-1.5 1.5-2.7 1.8-2.7s1.2 2.7 1.9 6c1.7 7.7 2.9 8.5 2.5 1.7l-.3-5.2 1 4.5c.6 2.5 1.4 4.7 1.8 5s1.1 1.4 1.5 2.5c.5 1.5.9 1.6 1.5.6.7-1.1 1.2-.9 2.1.9 1 1.8 1.4 2 2.1.9.6-1.1 1.2-.6 2.1 1.8.7 1.8 1.7 3.3 2.2 3.3s2 1 3.3 2.2l2.4 2.2-1.6-4.4c-2-5.8-1.2-6.3 1-.6 2.1 5.6 3.2 5.9 2.7.8-.2-2.8-.1-3.3.7-2.2 1.6 2.2 1.3 8.7-.5 12.3-.9 1.8-3.2 4.9-5.2 6.9l-3.6 3.8 2.9 3c1.6 1.6 3.5 3 4.2 3 2.5 0 5.3 3.9 5.3 7.3 0 3.6 2.5 6.7 5.4 6.7 3.8 0 5.6 1.9 5.6 6 0 2.8.5 4.2 1.9 4.9 1 .6 3.1 3.2 4.6 5.7 2.4 4.2 2.7 5.4 2.2 10.8-.3 3.4-.9 7.2-1.3 8.5-.5 1.6-.4 2.2.4 1.7.6-.3 1.3-.2 1.7.3.3.6 1.2.8 2 .4 1.8-.6 2 1.9.4 4.9-.7 1.3-.8 2.3-.1 2.7.5.3 1.7 5.5 2.6 11.6.9 6 2.1 13 2.7 15.5.8 3.7.6 5.4-1 9.7-1.9 5.1-10.4 15.9-14.8 18.9-2.2 1.4-2.3 1.3-2.3-.9 0-4-4.9-12.3-10-17.1-2.6-2.5-6-6.7-7.5-9.4-1.4-2.6-4.4-7.1-6.5-9.9l-3.9-5.2.6-10.8c.6-12.9-.6-20.5-4.7-29-4.9-10-11.9-12.8-28.5-11.3-5.5.5-10.1.7-10.3.5s-.5-2.3-.7-4.7c-.2-2.8-.8-4.3-1.6-4.3-1 0-1.4 1.5-1.4 5.4 0 6 .2 5.8-11.8 10.2-3.2 1.2-7.3 3.3-9 4.8-1.8 1.5-4 3.1-5 3.4-2.3.9-4 5.1-6.2 15.4l-1.8 8.2 3.4 14.2 3.4 14.2 6.6 8.1c7.2 8.9 11.1 12 17.3 13.8 2.3.6 4.5 1.5 5 2 .6.4-.9 4.7-3.7 10.5-6.9 14.4-9.6 26.1-10.8 47.8-.6 11.6-1.7 20.7-3 25.4-1 4.1-1.9 8.1-1.9 8.8 0 1 8 1.3 41.8 1.3h41.8l1.9-4.9c2.2-5.9 3.5-5.7 3.5.5v4.4h13v-5.8c.1-6.3 1.3-5.6 2.5 1.6l.7 4.2H382c76.8 0 79.8-.1 80.3-1.9.3-1.3 2.4-2.3 7.1-3.6 3.7-1 9.2-3.4 12.4-5.4l5.7-3.6-3.4-.5-3.4-.5 4.1-4.8c2.3-2.7 4.2-5.2 4.2-5.7s-2.9-.7-6.7-.3c-6 .6-8.1 1.4-19.3 8-7 4-13.5 7.3-14.6 7.3-2.3 0-5.3-7.8-5.9-15.5-.2-2.8-1.1-7.5-2-10.5s-2-7.8-2.5-10.5c-.4-2.8-2.2-10.4-4-17s-3.6-13.8-4.2-16c-.5-2.1-1.4-4.5-1.9-5.2-.6-.7-.8-1.7-.5-2.2.4-.6 0-2.7-.9-4.8-1.8-4.3-2.7-11.3-1.5-11.3 1.6 0 3.8 3 4.5 6 .9 3.9 2.3 3.9 1.7 0-.6-4.5.5-3.6 3.2 2.2 1.2 2.9 3 5.9 3.9 6.7.9.7 3.4 4.7 5.4 8.9s3.8 7.1 4.1 6.4c.4-1.2-3.6-38.5-4.4-41.5-1.1-3.8.7-1.3 4.7 6.3 4 7.8 6 10.1 3.9 4.6-3.3-8.9-6.2-25.8-6.6-39.1-.3-10.6-.1-13.2.7-10.5 6.8 23.5 13.6 39.5 21.7 51 2.7 3.9 2.8 4.3-2-12.5-1.9-6.6-3.8-15.2-4.2-19l-.7-7 4.3 7.5c5.7 9.8 11.5 18.5 13.5 20.2 1.5 1.2 1.6 1 1-1.3-2.9-11.7-4.7-30.8-6.2-65.2-.9-20.8-2.2-43.3-3.1-50-3.5-28.8-9.6-53.4-18.8-76.2-2.9-7.2-6.1-16.1-7-19.9-3.5-14.3-14-30.6-24.1-37.5-7.5-5.1-12.8-6.4-22.6-5.8l-8.9.7-5.6-7.5-5.6-7.5h-32.9C317.4 0 312 .2 312 1.4m20.4 221.2c.4 1.5.2 2.4-.9 2.8-1.2.4-1.5-.2-1.5-3.1 0-3.8 1.2-3.6 2.4.3"/></svg>