<svg xmlns="http://www.w3.org/2000/svg" width="682.667" height="512" version="1.0" viewBox="0 0 512 384"><path d="M0 23v23l2.3.4c1.2.2 5.6 1.2 9.7 2.2 4.1.9 8.6 1.7 9.9 1.6s2.9.3 3.6.8c.9.7 1.6.5 2.6-.7.8-.9 3.2-2.9 5.3-4.5 5-3.6 9.4-3.7 13.1-.2 2.8 2.6 2.9 4 .9 10.4-.8 2.5-.7 2.5 1.7.7 5.1-3.7 8.7-4.7 17.1-4.6 10.8.2 14.3.9 14.3 3.2 0 1 .6 2.2 1.4 2.6 1.8 1.2 5.2 10.9 4 11.6-1.8 1.2-.8 2.6 1.7 2.3 2.2-.3 2.8.4 5.5 6.5 3.4 8.1 3.6 10 .9 12.7-4.7 4.7-.4 10.7 12.6 18 5.5 3 7.8 4.9 9.8 8.4 1.6 2.8 5.2 6.3 9.3 9.3 11.3 8.1 14.3 11.4 14.3 16.1 0 2.2-.7 5.9-1.5 8.2-2.9 8.1-1.3 32.3 3.4 52 2.6 11.2 12.3 44.1 16.5 56 1.8 5.2 3.9 11.9 4.6 14.9s2.5 8.2 4 11.5c4.3 9.4 7 24.9 7.3 41.1.2 7.7 0 15-.4 16.2-.6 1.5-1.9 2.3-5.1 2.8-5.8 1-7.2 1.9-9.9 6.1-3.1 5-7.3 6.6-14 5.4-7.4-1.4-18.4-1.3-19.7.2-.6.7-1.3 7-1.7 14l-.8 12.8H204v-7.8c0-8.5-1.9-13-7.2-17.2-5.8-4.5-13.5-18.3-15.7-28-.7-3-1.8-7.5-2.3-10-.6-2.5-1.7-5.5-2.4-6.6-.8-1.3-1.1-4.1-.9-6.8.2-2.5 0-4.4-.5-4.1-.4.3-1-.4-1.3-1.5s-.2-2.2.2-2.5c1-.5 1.2-71.5.3-82.1-.8-8.4.9-32.1 2.3-34.4.5-.8 1.1-9.3 1.5-18.9.5-15 .9-18.1 2.7-21.1 2.4-4.3 5.3-12.6 5.3-15.5 0-1.4 1-2.4 3-3.2 1.7-.6 3.4-2.3 4-3.8.5-1.4 2.1-4.1 3.4-5.8 7.6-10.1 6.9-24.8-1.6-32.3-2.7-2.4-4.2-5.2-7.2-14-2.1-6-6.3-15.6-9.3-21.4-12.3-23-12.8-24.3-14-39.8l-.5-7.2H0z"/><path d="M.1 125.8c.1 67.6.3 75.2 1.5 70.7 5.5-18.9 7-22.1 20.5-42.2 4.9-7.2 10.3-16 12.1-19.5 3-5.8 3.3-7.1 3.3-15.3 0-6.7-.6-10.6-2.3-15.5s-2.2-8.9-2.3-16.3c-.1-10.2-.6-11.2-4.5-8.2-4.7 3.6-14.3-.1-14.4-5.5 0-1.7 2.4-6.8 5.3-11.1 1.7-2.6 1.7-2.8-.5-5.2-1.5-1.7-5.1-3.4-10.5-5.1L0 50.2zm94.1 53.9c-.7 6.5-1.5 13.1-1.8 14.8-.5 2.9-.5 2.9 1.1 1 3.2-3.9 6.5-11.5 6.5-14.9 0-2.9-3.3-12.6-4.3-12.6-.1 0-.9 5.3-1.5 11.7M79.4 191c-.6 2.5-2 8.4-3 13.2-1.7 8.2-3.4 11.5-3.4 6.8 0-1.8-3.8-17.1-4.4-17.7-.1-.2-1.3 2.3-2.6 5.4-2.4 5.7-2.4 5.7-.8 17.8.8 6.6 1.3 12.2 1.2 12.4-.2.2-1-1-1.7-2.8l-1.3-3.2-1.2 2.6c-.7 1.4-1.2 3.6-1.2 4.8 0 5.7-3.1 9.1-4.6 5.2-.4-.9-1.9-1.5-3.8-1.5-4 0-6.8 2.8-9.2 9-2.2 5.8-7.2 11-8.4 8.9-1.4-2.1-3-10.4-3-15 0-3.4.7-4.7 4-8.2 3.7-3.7 4-4.4 3.3-7.6-.4-2-.7-6.2-.7-9.3.1-3.2-.3-5.5-.8-5.2-.4.3-.8-.1-.8-.8s-1.6.4-3.5 2.4c-2 2.1-3.9 3.8-4.4 3.8-.4 0-3.7 3.6-7.2 8-5.7 7.1-6.5 7.8-7.3 6-.9-2-1.1-1.9-4.4 1.2-2.9 2.8-3.3 3-2.8 1.1.9-2.8-.6-3.6-3-1.8-2.5 1.9-3.5 1.9-2.7-.2.4-1.1.3-1.4-.5-.9-.9.5-1.2 20.5-1.2 79.7V384h38.9c36.2 0 39-.1 39.5-1.8.3-.9 1-5.7 1.6-10.7s1.3-10.3 1.5-11.8c.7-4.3-4.5-6.1-14.7-5.3-7.2.6-7.8.5-9.2-1.6-.9-1.2-1.6-3-1.6-3.9s-.9-2.8-2.1-4.3c-1.9-2.5-2.3-2.6-10.1-2.1-4.4.2-8.6.9-9.4 1.6-.7.6-2.1.8-3 .5-1.5-.6-1.6-1.9-1.1-10.1.3-6.3.2-9.5-.5-9.5-.6 0-.3-1.1.6-2.5s1.4-2.9 1.1-3.4c-.2-.5.2-1.2 1.1-1.5.8-.3 1.3-1 1-1.5-.8-1.3 2-8.9 5-13.5 1.4-2.1 2-3.5 1.4-3.1-1.7 1.1.6-3.1 4.2-7.6 1.6-2 3.3-4.9 3.7-6.5.5-1.6 1.4-2.8 2-2.6.7.1 1-.2.6-.8-.3-.5-.2-1 .4-1s.8-.6.6-1.3c-.3-.6 2-5.5 5.1-10.6 7-11.8 16-30 20.4-41l3.3-8.3-1.7-4.9c-1.8-4.8-1.7-4.9.3-8.3 1.9-3 2.1-4.7 1.9-11.8l-.3-8.3z"/><path d="M48.2 209c-.1 1.4-.5 4.3-.8 6.5-.4 3.2-.3 3.6.6 2.2.6-.9.9-3.9.7-6.5s-.4-3.6-.5-2.2m54.5 152.7c-1.7.3-3.2 1.3-3.7 2.6-.9 2.1-5 17.8-5 19.1 0 .3 3.6.6 8 .6h8v-2.7c0-6.4-2.3-20.3-3.4-20.2-.6.1-2.4.4-3.9.6"/></svg>