<svg xmlns="http://www.w3.org/2000/svg" width="682.667" height="512" version="1.0" viewBox="0 0 512 384"><path d="m.2 24.7.3 24.8 6.4.7c3.6.4 7.6 1.2 9 1.7 1.5.5 4.7 1.1 7.3 1.4 4.2.4 5 .1 7.5-2.6 5.5-5.8 11.3-6.7 16.1-2.4 2.4 2.2 2.8 5.6 1.1 8.9-1.6 3-.7 3.1 4.4.2 3.1-1.7 6.6-2.7 10.4-2.9C69.2 54 81 55.7 81 57.1c0 .5-.6.9-1.2.9-.7 0-.1 1 1.5 2.3 2.9 2.3 4 5.1 4 10.4.1 2.7.5 3.2 2.6 3.5 1.4.2 2.6.7 2.6 1.3 0 1 2.7 7.4 4.5 10.7 1.5 2.6 1.2 3.9-1.2 6.5-1.2 1.2-2.2 3.3-2.4 4.6-.3 3.2 6.3 9.8 14.5 14.5 4.2 2.4 7.6 5.3 9.6 8.2 1.7 2.5 6 6.6 9.6 9.2 3.5 2.5 8.4 6.4 10.8 8.7 4 3.8 4.3 4.4 3.9 8.3-.3 2.4-1.3 7.3-2.4 11-1.8 6.4-1.8 7.2-.1 22 2.2 20.4 3.9 27.2 18.3 74.3 2.5 8.2 5.4 18.1 6.4 22 1 3.8 3.3 11 5 15.9 4.1 11.7 5.1 19 5.6 38.1.5 17.9.3 18.5-6.3 18.5-2.3 0-4 .8-5.3 2.3-8.8 10.1-8.6 10-14.3 9.3-20.1-2.4-21.4-2.2-22.1 2.7-.3 1.7-.7 7.4-.9 12.5l-.4 9.2H192v-4.8c0-2.6-.9-7.3-2-10.5-1.1-3.1-2-7.4-2-9.5s.9-6.5 2-9.7c1.4-4.1 2-8.4 2-14.5 0-4.7.5-9.1 1-9.6 1.2-1.2 3.4-18.8 2.7-21.4-.5-1.9 3.8-5 7-5 3.7-.1 5.1-2.3 5.6-9 .2-3.6.1-8.8-.3-11.5-.4-2.8-.4-5.1.1-5.3s.2-1.3-.6-2.6c-1.3-2-1.3-2.3.5-3.6 1.1-.8 2.2-3.1 2.6-5.6.3-2.4 1.2-4.5 2-4.8 2.8-1.1.8-13-2.5-15-1.2-.8-5.2 1-4.9 2.2.1.4-.4 3-1.1 5.9-.7 2.8-1.2 6.2-1.1 7.5.4 4 .1 4.6-2.6 5.2-3.6.9-13.1-1.5-15.4-3.9-5.6-5.9-6.1-6.7-6.6-12.4-.8-6.8-.2-7.5 5.6-6.2 3.9.9 4.2.8 5.1-1.6 1.3-3.4 0-11.9-2.5-16.7-1.2-2.2-4-5.4-6.3-7.1-4.7-3.4-6.8-7.8-7.8-16.5-.7-6.3-4.9-17.5-7.6-20.6-1.1-1.1-1.9-3-1.9-4.1s-.8-4-1.9-6.4c-1-2.4-2.2-6.8-2.5-9.8-.4-3-1.4-6.8-2.3-8.5-2.3-4.5-8.3-19.9-8.3-21.4 0-.7-1.4-3.9-3-7.2-5.6-11.2-7.9-19-10-34.5-.6-4.4-1.6-10.6-2.2-13.7-1.9-10.4 3.9-33 7.3-27.7.7 1.1.9.9.9-.8 0-1.2.8-2.8 1.8-3.5 1.1-.7 2.4-2.2 3-3.4 1.4-2.7 1.6-16 .3-20.4-.6-1.9-1.1-6.3-1.1-9.7V0H0z"/><path d="M0 218.4V384h39.5c21.7 0 39.5-.1 39.5-.3 0-.1.7-5.4 1.5-11.7.7-6.3 1.1-11.8.7-12.2-.4-.3-3.1-1.3-6-2.2-4-1.1-6.5-1.3-10.9-.6-6.7 1.1-8.3.2-10.2-6-1.9-6.6-3.3-7.3-11.9-6.5-5.4.5-7.7.4-8.2-.5-.6-.9-1.4-.8-3.3.5-1.5.9-3.1 1.4-3.7 1-1.5-.9-.7-21.9.9-23.9.7-.8 1.3-2.4 1.4-3.5.1-1.2.5-2.1 1-2.1.4 0 .7-.6.5-1.3-.3-1.8 2.5-8.7 3.6-8.7.5 0 .6-.3.3-.7-.4-.3.1-1.2 1.1-2 .9-.8 1.1-1.2.4-.8-1.5.7 2.1-5.7 5.7-10.2 6.1-7.6 7.2-9.3 6.7-10.2-.4-.5 2-5.1 5.2-10.3 13.4-21.2 26.7-48.7 25.7-52.8-1.7-6.6-1.6-7.8.4-11.1 2.6-4.2 2.6-7.9.2-16-1.6-5.1-3.9-15.8-4.1-18.8-.1-.3-1 1.2-2.2 3.3-2.4 4.7-2.5 7.8-.3 23.4.8 6.4 1.7 13.2 2 14.9.7 6-1.1 3.4-4-5.5-1.5-4.8-3.1-9.1-3.5-9.6-.5-.4-1.1 1.4-1.5 4-.3 2.7-.9 6-1.2 7.4l-.6 2.5-.6-2.5c-.6-2.2-1-1.6-3.3 4.5-2.3 6.3-2.4 7.2-1.1 10.3 2 4.7 1.4 13.6-.9 14-1.1.2-1.8-.3-1.8-1.2 0-1.2-1-1.6-3.5-1.6-2.9 0-3.9.6-5.9 3.8-1.3 2-3 5.7-3.7 8.1-.7 2.3-1.9 4.5-2.6 4.8s-1.3 1.4-1.3 2.4-.7 1.9-1.5 1.9c-1.4 0-2.1-1.9-4.5-11.6-.6-2.3-1.7-4.7-2.5-5.4-1.3-1.1-1.5-.8-1.5 2 0 3.2 0 3.3-2 1.5-1.1-1-2-1.3-2-.7 0 .7-.9.3-2-.8s-2.4-2-3-2c-.5 0-2-3.5-3.3-7.8-2.1-6.5-2.5-10.6-3.1-27.3-.7-19.1-.6-19.7 1.8-27.2 1.4-4.3 5.3-13.3 8.7-20 11.5-23 12.9-26.9 12.9-36.1 0-6.2-.6-10.1-2.5-15.6-2-5.9-2.5-9.3-2.5-17.2 0-10.3-.5-11.3-4.4-8.3-2.5 1.9-6.9 1.9-10.6 0-5-2.6-4.8-6 .5-14.5 2.5-3.9 2.5-4.3 1.1-6.5-1.5-2.3-3.1-2.9-17.8-7.1-1.7-.5-1.8 7.8-1.8 165m94.2-34.9c-.6 7.6-1 14-.8 14.2.2.3 1.6-2.1 3.2-5.2 3.2-6.7 3.4-12.3.7-18.6l-1.9-4.3z"/><path d="M20.3 225.5c0 2.2.2 3 .4 1.7.2-1.2.2-3 0-4-.3-.9-.5.1-.4 2.3m18.3 2.4c-.4.7-.5 1.5-.2 1.8.9.9 1.9-.4 1.4-1.8-.4-1.1-.6-1.1-1.2 0m64.1 135.8c-3.2.5-2.9 0-6.1 11.5l-2.4 8.8h16l-.7-7.5c-.8-8.8-1.7-12.8-3.1-13-.5-.1-2.2 0-3.7.2"/></svg>