<svg xmlns="http://www.w3.org/2000/svg" width="682.667" height="512" version="1.0" viewBox="0 0 512 384"><path d="M0 25v25h3.8c2.1 0 6.5.7 9.7 1.6 7.1 1.8 14.4 2.4 15.1 1.2.4-.5 2.4-2.3 4.6-3.9 5.2-3.7 10.5-3.9 13.5-.7 3.2 3.7 3.4 4.5 1.9 8.3-1.8 4.2-1.2 4.3 4.5 1 3.7-2.1 5.7-2.5 12.2-2.5 8.9 0 17.7 1.8 15.5 3.1-1 .7-.8 1.3 1 2.7 2.4 1.9 3.4 4.7 3.6 10.2.1 3 .5 3.5 2.5 3.5 1.8 0 2.6.7 3.1 2.5.4 1.4 1.7 4.5 2.9 6.9 2.6 5.4 2.6 5.5.2 8.9-3.6 5-3.6 7 .1 10.4 1.8 1.7 3.2 3.4 3.1 3.7s3.3 2.4 7.4 4.6c5.7 3 8.3 5.1 10.5 8.5 3.7 5.5 6.3 7.9 15 13.5 10 6.6 11.5 10.9 7.8 21.5-2.4 6.7-2.5 12.5-.4 28.8 2 17 5.7 31.2 18.1 70.2 3.1 9.6 6.2 20 6.8 23 .7 3.1 1.9 6.9 2.7 8.5 5 9.8 8 26 8.2 44 .3 16.5-.2 18.5-4.3 18.5-5 0-7.6 1.6-11.4 6.9L154 360h-5.7c-3.2 0-7.6-.5-9.7-1-2.2-.5-6.1-.6-8.7-.3-4.8.6-4.8.6-5.3 4.7-.3 2.2-.7 7.8-1 12.4l-.4 8.2H190v-4.4c0-2.4-.7-6.3-1.5-8.6-1.7-4.8-2-11.2-.6-13.8.5-.9 1.5-4.9 2.1-8.7 1.2-6.7 1.1-7.4-1-11.5-1.2-2.5-2.6-6.5-3.1-9-.4-2.5-1.7-9.7-2.9-16-1.8-10.1-2-12.6-1.1-20.7.6-5 1.1-12.4 1.1-16.4 0-13.7 2.6-17.4 14.3-20 3.6-.8 5.6-1.7 5.5-2.5-.2-.7.1-1.3.6-1.2 1.5 0 2.6-2.5 2.6-6.3 0-1.9.4-3.9 1-4.5 1-1-.6-6.5-3.4-11.9-.9-1.7-1.6-3.6-1.6-4.3s-1.6-3-3.5-5c-2-2-3.8-4.7-4.1-5.9s-1.4-2.5-2.3-2.8c-1-.3-2.8-2.4-4.1-4.8-1.3-2.3-2.9-4.7-3.6-5.2-2-1.6-3.3-7.3-4.8-20.4-.8-6.8-1.9-12.8-2.5-13.4s-1.1-1.9-1.1-2.9c0-1.8-4.3-8.8-6.3-10-.7-.4-2.5-.8-4-.8s-2.9-.6-3.1-1.3c-3.2-12.1-3.9-16.3-3.8-22.1.1-4.8-.5-8.3-1.8-11.5-1.1-2.5-2.1-6.9-2.3-9.6-.3-2.8-1.3-7.1-2.5-9.5-7.4-16.5-8.5-20.1-10.7-33.3-.3-2-1-3.7-1.5-3.7s-1.1-2.1-1.5-4.8c-.3-2.6-1.2-7-2-9.7-.8-2.8-1.7-7.3-2-10-.3-2.8-1-8.6-1.5-13s-1.2-11.7-1.6-16.3l-.7-8.2H0z"/><path d="M0 218.5V384h39.5c21.7 0 39.5-.3 39.5-.8 0-.4.7-5.4 1.5-11.2s1.5-10.8 1.5-11.2c0-.3-2.3-1.4-5.1-2.3-3.8-1.3-6.7-1.5-11.6-1-7.5.8-9.8-.5-10.9-6.1-1-5.6-3.3-6.8-11.8-6.1-5.8.4-7.8.2-8.7-.9-1-1.2-1.6-1.1-4.1.4s-3 1.5-3.9.2c-1-1.5-.5-12.2.8-16.9.4-1.7.3-2.2-.5-1.7-2 1.2-1.3-1.3 1.2-4.7 3.4-4.7 4.2-6.2 2.6-5.2-1 .6-1.1.4-.4-.6.5-.8.9-1.6.9-1.9s1.1-3.1 2.4-6.2c1.4-3.6 2.8-5.5 3.5-5.1.6.3.8.3.4-.2-1-1 1.8-6.1 5.8-10.9 1.9-2.2 3.4-4.8 3.4-5.8 0-1.1.4-1.7.9-1.3.5.3 1.2.1 1.6-.5.3-.5.1-1-.4-1-.6 0 1.1-3.5 3.8-7.8C60.4 262 69.7 245 75 233c4.8-10.9 5.1-11.7 4-15.5-.8-2.9-.8-4.8 0-6.9.8-2.3.6-4.9-1.5-13.5-1.3-5.8-2.9-12.6-3.3-15.1l-.8-4.5-1.3 4c-.7 2.2-1.6 10.8-2 19.2-.3 8.3-.9 15.4-1.3 15.8-.6.7-2.8-5.7-2.8-8.3 0-.7-.4-1-1-.7s-1 1.7-1 2.9c0 1.3-.7 2.9-1.5 3.6s-2 3-2.6 5.1c-1 3.2-.9 4.6.5 8.4 2.2 5.6 1.4 12.5-1.4 12.5-1 0-2-.7-2.4-1.5-.3-.9-1.8-1.5-3.4-1.5-2.4 0-3.3.8-5.4 4.7-1.5 2.7-3.1 6.6-3.7 8.8-1.4 5.1-4.6 9.4-6 8-.6-.6-1.9-4.5-2.9-8.6-2.2-8.8-4.7-13.9-3.7-7.7.6 4.1 0 4.8-2.1 2-.8-.9-1.4-1.2-1.4-.5 0 2-5.7-1.8-7.1-4.7-4-8.7-5-14-6.1-32.5l-1.1-19 2.6-8.2c1.5-4.5 5.8-14.4 9.6-22.1C36.8 135.5 38 132 38 122.5c0-6.1-.6-10-2.5-15.6-2.1-6.1-2.5-9.1-2.4-16.7.1-5.1-.1-9.5-.4-9.8s-1.6.1-2.9 1c-3.5 2.5-10 2.1-13.2-.9-3.1-2.9-3-4.1 1.6-12.3 2.7-5 2.8-5.5 1.4-7.7-.9-1.4-3.3-2.9-5.3-3.4-2.1-.6-6-1.7-8.8-2.6C2.8 53.7.4 53 .3 53 .1 53 0 127.5 0 218.5M94.3 184c-.7 7.4-1 13.6-.8 13.8s1.5-1.9 2.9-4.7c3.1-6 3.4-12.8.8-18.5l-1.8-4z"/><path d="M20.6 224.5c.4 2.7.8 5.2 1 5.4.8.9.2-6.5-.7-8.4-.6-1.3-.7-.4-.3 3m18.4 5.6c0 .5.5.7 1 .4.6-.3 1-.8 1-1.1 0-.2-.4-.4-1-.4-.5 0-1 .5-1 1.1m62.5 134.8c-1.4.6-2.7 3.3-4.6 9.9l-2.7 9.2h16.1l-.7-6.8c-1.2-11.8-1.6-13.2-4-13.1-1.1 0-3 .4-4.1.8"/></svg>