<svg xmlns="http://www.w3.org/2000/svg" width="682.667" height="512" version="1.0" viewBox="0 0 512 384"><path d="M0 24.9v24.8l6.4.7c3.6.3 8.3 1.3 10.5 2 2.1.8 4.8 1.2 5.9.9 1.1-.2 2.9 0 4 .6 1.6.8 2.4.5 4.8-2C35 48.3 39.1 46 41.9 46c2.6 0 8.1 4.7 8.1 7 0 1.1-.5 3.1-1.2 4.5-1.5 3.4-.5 4.1 2.9 1.8 3.9-2.8 8-3.9 13.8-3.7 7.9.2 16.5 1.5 16.5 2.5 0 .5-.6.9-1.2.9-.7.1-.2 1 1.2 2.1 2.9 2.5 5.3 10.2 3.6 11.9-1.4 1.4.9 2.9 3.5 2.3 1.3-.4 1.9 0 1.9 1.2 0 .9.6 2.9 1.3 4.3.8 1.5 2.1 4.2 3.1 6.1 1.6 3.2 1.6 3.5-.1 5.9-3.5 4.9-4.2 6.5-3.3 8.2 1.4 2.7 9.4 9.3 15.4 12.9 4 2.3 6.7 4.8 8.7 8.1 2.1 3.5 5.4 6.5 11.8 10.9 4.8 3.3 9.6 7.1 10.5 8.5 2.1 3.4 2 8-.4 14.4s-2.6 14.5-.5 30.4c1.9 14.2 5.4 28.1 14 54.8 3.6 11.3 7.7 24.3 9.1 29s3.5 10.7 4.6 13.5c2 4.8 5.7 15.5 6.5 18.4.8 3.1 1 .3.4-4.1-.4-2.6-.5-4.9-.2-5 2.1-1 4.1-7.3 4.1-13 0-8.4 2.3-20.2 4.6-23.4 1.1-1.5 2.4-3.4 2.9-4.3.6-.9 1.2-1.8 1.5-2.1s1.6-2.2 3-4.2c1.4-2.1 2.8-3.8 3.3-3.8.4 0 .7-.7.7-1.5s.8-1.9 1.9-2.4c3-1.7 7.5-11.9 7.4-17.1-.1-5.1-4.2-21-6.7-25.8-.9-1.7-1.6-4.5-1.6-6.2 0-1.6-.4-3-.8-3s-1.3-2.6-2-5.9c-2.5-12-3.7-28.2-3.7-49.6 0-21.2.1-22.2 2.4-27.3 1.7-3.5 2.7-4.8 3.3-4 .5.9.8.4.8-1.2 0-1.5.5-3.1 1-3.6.6-.6 1.5-7.8 2-16 .6-8.2 1.2-16.5 1.5-18.5.5-3.7-1.5-7.9-3.9-7.9-.7 0-2.2.9-3.4 2s-2.5 2-3.1 2c-.5 0-1.1.7-1.5 1.5-.3.8-1 1.5-1.6 1.5-1.1 0-5.6 4.4-6.2 6-.2.4-2.8.9-5.8 1-7.5.3-8 .2-8-1.6 0-.9-.9-3.3-1.9-5.3-1.7-3.2-4.6-12.1-7-21.7-.5-1.8-1.6-4.7-2.5-6.5-1.2-2.4-1.8-7.3-2.3-17.1L149.7 0H0z"/><path d="M0 218.4V384h79l.5-2.3c.4-2 2.5-18.2 2.5-19.8 0-.4-1.6-1.5-3.7-2.4-3-1.4-5.1-1.6-12-1.1l-8.4.7-1.4-3.8c-3.6-9.1-3.1-8.8-12.7-8.9-5.5 0-9.2-.5-10.2-1.3-1.3-1.1-2-1.1-4.1.3-1.3.9-2.9 1.6-3.4 1.6-1.8 0-2.2-7.5-.7-13.8.8-3.4 1-6 .5-5.6-1.8 1.1-.8-3.4 1.2-5.2 1.1-1 1.8-2.6 1.6-3.6-.3-1 0-2.1.5-2.5.7-.3.8-.1.4.5-1.1 1.8 0 1.4 1.5-.5 1-1.1 1-1.4.1-.9-2.3 1.4-1.3-2.1 2.1-7 1.9-2.7 3.7-6.1 4-7.5.4-1.4 1.7-3.7 2.9-5.1 2.8-3 8.1-9.8 9.3-11.7.5-1 .4-1.2-.3-.7-2.1 1.3-1.3-.2 5-10.2 7.6-12 16.5-29 21.2-40.2 2-4.7 4.1-9.3 4.7-10.4.8-1.3.8-2.1 0-2.9-1.7-1.7-1.3-7.9.5-10.6 1.5-2.1 1.6-3.7.5-16.6-.7-7.8-1-16.3-.6-18.8.5-3 .3-4.7-.5-5.2-.6-.4-1.4-.5-1.6-.2-.3.3-1.1 6-1.9 12.8-1.8 15.5-3.9 26.7-5.4 28.2-.8.8-1.1 0-1.2-3.3 0-2.5-.4-5.4-.8-6.4-.6-1.6-1-1.2-2.3 2.5-.8 2.4-2.9 8.3-4.7 13.1-3 8.4-3.1 8.9-1.6 12.4 3.1 7.4.8 18-2.7 12.5-3.4-5.5-10.2 0-12.3 9.9-.8 3.8-4.5 11-5.7 11-.8 0-4.8-12.8-4.8-15.3 0-.9-1.2-3.3-2.6-5.4-1.5-2.1-2.4-2.9-2.1-1.8s.8 3.6 1.2 5.5l.7 3.5-2.6-3c-2.8-3.4-3.5-2.3-1 1.5 1.2 1.7.7 1.5-1.4-.8-1.7-1.7-3.6-3.2-4.2-3.2-1.1 0-3.7-5.5-6.5-13.6-1-3-1.7-9.7-2-19.3-.3-8-.8-16-1-17.8-.8-4.7 2.4-13.3 13.6-36.4 12.9-26.6 13.9-32.4 8-49.1-1.5-4.5-1.9-7.8-1.7-15.3.1-5.2 0-9.7-.2-10-.2-.2-1.5.3-2.7 1.1-3.7 2.4-10.2 2.1-13.1-.7-3.1-2.9-2.7-6 1.6-13.1 2.8-4.5 2.9-5 1.5-7.2-1.1-1.6-3.7-2.9-9.3-4.4-4.2-1.1-8.5-2.4-9.4-2.7C.1 52.8 0 61.1 0 218.4M94.6 184c-.4 6.7-.4 12.5-.2 12.8.3.3 1.5-1.7 2.7-4.4 2.3-5.5 2.2-13.1-.4-17.9-1.3-2.6-1.4-1.9-2.1 9.5"/><path d="M20 225.2c0 1.8.5 4 1 4.8.7 1.1 1 .4 1-2.7 0-2.3-.4-4.5-1-4.8-.6-.4-1 .7-1 2.7m25.6-.6c-.5 1.4-.4 1.5.9.4 1.7-1.4 1.9-2 .6-2-.5 0-1.2.7-1.5 1.6m-6.9 7.1c-.4.3-.7 1.1-.7 1.7s.5.5 1.2-.2c.6-.6.9-1.4.7-1.7-.3-.3-.9-.2-1.2.2m122.8 121c-.8 1-2.8 3.3-4.2 5.2l-2.7 3.4-9.1-.8c-11.8-1-18.5-.9-19.7.3-.6.6-1.3 6-1.6 12.1l-.5 11.1h35.7c23.6 0 35.5-.3 35.1-1-.3-.5-1.4-1-2.3-1.1-.9 0-3.5-1.1-5.7-2.4s-4.9-2.8-6-3.3c-1.2-.6-2.7-1.7-3.4-2.6s-1.7-1.6-2.2-1.6c-2.5 0-6.2-5.5-8.5-12.7-1.4-4.3-2.7-8-2.9-8.1-.2-.2-1.1.5-2 1.5M102 365.9c-2.1.6-2.8 1.9-4.7 8.6-1.2 4.4-2.3 8.3-2.3 8.7 0 .5 3.4.8 7.6.8h7.6l-.6-6.8c-1.3-12.9-1.4-13-7.6-11.3"/></svg>