<svg xmlns="http://www.w3.org/2000/svg" width="682.667" height="512" version="1.0" viewBox="0 0 512 384"><path d="M0 24.9v24.8l6.9.7c3.9.3 8.1 1 9.4 1.5s4.4 1.2 6.8 1.4c2.4.3 5.1.8 6 1.2 1 .3 1.9 0 2.2-.7.9-2.4 8.4-6.9 11.5-7 6.5-.2 9.7 5.1 7.2 11.8-1.3 3.3-.6 4.2 1.8 2.1 5-4.6 12.6-5.6 25.4-3.5 5.9.9 6.8 1.3 5.4 2.3-1.5 1.1-1.4 1.4.6 2.7 3 2 5.4 9.4 3.7 11.5-1.6 1.8.3 3.3 3.2 2.6 1.3-.4 1.9 0 1.9 1.2 0 .9.6 2.9 1.3 4.3.8 1.5 2.2 4.4 3.2 6.5l1.8 3.7-2.7 2.9c-1.7 1.8-2.5 3.4-2.1 4.2.5.8.4 1-.3.5-2.5-1.5-1 1.5 3 6.1 2.2 2.6 7.1 6.5 10.8 8.7 4.7 2.7 7.4 5 8.9 7.7 2.3 4 10 11 16.3 14.8 7.9 4.7 9.6 10.9 5.8 20.9-2.4 6.4-2.6 14.7-.5 29.8 2.1 15.3 5.2 26.3 16.6 60.6 5.4 16.5 9.9 30.5 9.9 31.3 0 .7 1.3 4.1 3 7.6 1.6 3.5 4.2 11.6 5.8 17.9 2.6 10.3 2.9 12.9 2.8 27.4l-.1 16-3 .8c-1.6.4-4.2.9-5.7 1.2-1.7.4-3.5 2-5.2 5.1-1.5 2.4-3.5 4.9-4.6 5.5s-6.9.8-15.2.4c-10.4-.5-13.7-.3-15 .7-1.3 1.1-1.9 3.8-2.4 11.6l-.7 10.3h103.4l-2.3-3.3c-1.3-1.7-2.8-4-3.3-4.9-.6-.9-2.2-3.5-3.7-5.7-8-11.7-7.8-11.4-13.5-26.6-1.6-4.2-2.8-11.4-4.2-25-.5-4.4-1.5-9.3-2.2-11-2-4.1-8.9-11.5-10.9-11.5-1.1 0-2.9-2.2-4.8-5.8-1.7-3.1-3.9-6.6-5-7.8-2.6-2.8-9.2-15-9.2-17.1 0-.8-.8-3-1.9-4.7-1-1.7-2.9-5.8-4.1-9.2-2.3-6.5-2.3-5.9 1.3-28.1.8-4.3 3.8-9.3 5.7-9.3 1 0 2.9-1.4 4.1-3.2 2.1-2.8 2.3-2.9 3-1.2.6 1.5.8 1.6.8.3.1-.9 2.5-4.1 5.4-7.1 2.8-2.9 6.3-7.6 7.6-10.3 2.3-4.7 2.5-5.9 2.5-23 0-13-.5-20.6-1.8-27.5-1-5.2-2.2-13.8-2.7-19-.4-5.2-1.5-14.5-2.4-20.5-.9-6.7-1.3-13.3-.9-16.9.7-5.9 2.6-11.1 3.7-10 .3.3 1-.4 1.7-1.5.6-1.2.7-2.1.3-2.1s-.2-.5.5-1.2 1.2-2 1.2-3c0-.9.9-3.9 2.1-6.5 4.6-10.5 8.1-18.1 11.1-23.7 4.2-8.1 5.7-14.2 6.4-26.9l.7-10.7H0z"/><path d="M0 218.5V384h79.8l.5-4.3c.4-2.3.9-7.2 1.3-10.9.6-6.7.6-6.8-2.1-7.8-1.6-.6-6.6-.9-11.3-.8l-8.6.3-1.8-5c-2.7-7.3-3.7-7.8-14-7.1-8.1.6-8.8.5-9.8-1.4l-1.1-2-2.8 2.1c-1.6 1.2-3.4 1.8-4 1.5-1.4-.9-1.4-8.7 0-14.5.7-3.1.7-4.6-.1-5.1-1.1-.7-.3-4 .9-4 .4 0 1.9-1.8 3.3-4 1.5-2.2 2.3-3.9 2-3.9-2 .3-2.1-.4-.6-3.4.9-1.7 2.6-4 3.8-5 1.1-1 1.4-1.6.6-1.2s-.6-.1.4-.9c1.1-.9 1.7-1.6 1.3-1.6-1.2 0 2.9-7.3 5.2-9.4 1.1-1 1.8-2.3 1.5-2.7-.3-.5 0-.9.5-.9.6 0 1.1-.7 1.1-1.6s.5-1.2 1.2-.8c.8.5.9.2.5-.9-.4-1-.1-1.7.6-1.7s1.3-.8 1.4-1.8c.1-.9 3.4-7.1 7.3-13.7 7.6-12.7 16.3-30.2 21-42.1 2.1-5.3 2.7-8.2 2.3-10.8-.4-2.4 0-5 1.2-7.5 1.6-3.5 1.6-4.8.2-18.1-1-9.8-1.2-15.4-.5-17.8.8-2.7.6-3.8-.6-5-1.4-1.4-1.6-1.3-2.6 1.2-.5 1.5-1 3.5-1 4.5 0 .9-.4 2.1-.8 2.6-.5.6-1.4 3-2.1 5.5s-4.2 12.6-7.8 22.5l-6.5 18 1.6 4.5c2 5.5 2.1 10 .3 12.5-1.5 2-3.7 1.3-3.7-1.2 0-1-.6-1.3-1.6-.9-.9.3-2.2.6-3 .6-1.8 0-6 8.3-6.9 13.7-.4 2.4-1.1 4.5-1.6 4.9-.5.3-.7.9-.4 1.4.7 1.2-2.4 3.5-3.5 2.4-.9-1-5-16.2-5-18.9 0-.9.9-3 2.1-4.6 1.1-1.6 1.6-2.9 1-2.9s-1.1-.9-1.1-1.9c0-4.8-1.3-5.2-3.1-1.1-1.1 2.3-1.9 5.2-1.9 6.4-.1 2-.1 2-1.5-.4l-1.3-2.5-.4 3.5-.4 3.5-1.5-3.5-1.6-3.5.4 5 .4 5L25 244c-2.1-2.4-2.2-2.4-1.7-.3s.2 2-2.9-1c-6.1-5.6-7.4-12.3-7.4-36.6 0-20.4 0-20.7 2.9-28.2 1.6-4.2 6.3-13.7 10.5-21.2 11.6-20.9 12.1-22.5 12-34.2 0-7.9-.5-11.2-2.2-15.5-1.9-4.5-2.2-7.3-2.1-15.5.1-11 .5-10.5-6.7-8.4-3.7 1.1-4.5 1-7.8-1-4.6-2.9-4.6-5 0-12.6 4.9-8.3 4.1-9.6-8.5-13.5-5.2-1.7-9.9-3-10.3-3S0 127.5 0 218.5m95.1-37c.2 4.4-.1 9.9-.5 12.2-.4 2.4-.5 4.3-.1 4.3 1.2 0 4.5-8.6 4.5-12.1 0-3.8-1.7-9.7-3.2-11.4-.6-.6-.9 2-.7 7"/><path d="M17.1 225.5c.1 4 .1 4 1.1 1.2.7-2.1.7-3.2-.1-4s-1.1 0-1 2.8m25 1.7c-.1 2.7.3 4.8.8 4.8 1.8 0 5.3-6 4.6-7.8-.6-1.5-.8-1.4-2 .8l-1.4 2.5-1-2.5c-.9-2.2-1-2-1 2.2m-2.6 6.8c.3.5.8 1 1.1 1 .2 0 .4-.5.4-1 0-.6-.5-1-1.1-1-.5 0-.7.4-.4 1m64.7 133c-1.9.5-3.8 1.2-4.2 1.6-.8.9-4 12.2-4 14.3 0 .7 2.6 1.1 7.1 1.1h7.2l-.7-8.2c-.4-4.6-1-8.6-1.4-8.9s-2.2-.3-4 .1"/></svg>