<svg xmlns="http://www.w3.org/2000/svg" width="682.667" height="512" version="1.0" viewBox="0 0 512 384"><path d="M0 25v25h5.3c2.9 0 8.7.9 12.7 1.9 4.1 1.1 7.7 1.8 8.2 1.5.4-.3 1.7 0 2.9.6 1.8 1 2.6.8 5.3-1.8 6.2-5.9 11.4-6.8 15.9-2.7 3.1 3 3.3 4.4 1.1 8.6-.8 1.7-1.4 3.3-1.1 3.5.2.2 2.5-.8 5.1-2.2 4.6-2.6 5.3-2.7 15.6-2.2 10.8.6 16 1.8 12.6 3.1-1.4.6-1.2 1.1 1.3 3.4 3 2.9 4.9 9.7 3 10.9-1.5.9 0 2.4 2.4 2.4 1.6 0 2.5.9 3.3 3.2.6 1.8 1.9 5.3 2.9 7.8l1.8 4.5-2.7 3.9c-1.4 2.1-2.6 4.4-2.6 5.1 0 2.1 9.2 10.9 15.3 14.5 3.8 2.3 6.6 4.9 8.2 7.6 2.8 4.7 6.9 8.6 14.9 13.9 3.1 2 6.3 4.7 7.1 5.8 2.1 3 1.9 8.8-.6 17.1-1.7 5.6-2 8.6-1.5 14.3 1 11.9 3.8 29.8 4.7 30.1.5.2.9 1.5.9 2.8 0 3.7 3.2 14.8 9.9 34.9 3.4 9.9 6.1 18.2 6.1 18.5s.5-.2 1-1c1.5-2.3 1.2-8-1-21.9-2.4-15-2.9-16.7-9-29.6-8-16.8-9.4-22.2-8.6-32.3.6-7.8 2.5-12.5 5.6-14.5 1.1-.6 2-1.7 2-2.4s.7-1.3 1.6-1.3c2.5 0 7.4-5.9 7.4-8.9 0-1.5.4-3.1 1-3.7.5-.5 2-4.1 3.2-7.9 1.7-5.3 2.7-7 4.1-6.9.9.1 1.7-.2 1.7-.7s.7-.9 1.5-.9c2.8 0 6.6-3.2 8.1-6.8 3.3-8 1.8-32.2-4.2-65.7-1.7-9.8-2.5-44.7-1.1-52.3L172 0H0z"/><path d="M0 218v166h79.8l.5-2.3c.3-1.2.9-6.1 1.3-10.8l.7-8.6-3.3-.7c-1.9-.3-6.8-.3-11 0l-7.7.7-2.3-5.8c-2.8-6.9-4.5-7.7-14.6-6.8-6.5.5-7.6.4-8.8-1.2-1.2-1.7-1.4-1.7-3.9 0-1.4.9-3 1.4-3.5 1.1-1.9-1.1-2.2-7.3-.7-13.1 1.1-4 1.2-6.1.5-6.3-1.3-.5-1.3-3.2 0-3.2s6-7.2 5.4-8.2c-1-1.5.5-5.6 2.9-7.9 1.2-1.2 1.6-1.9.9-1.4-1.1.6-1.1.3 0-1.4.7-1.2 1.6-2.1 2.1-2.1.4 0 .6-.4.3-.9-.4-.5 1-3 2.9-5.5s3.2-4.6 2.8-4.6c-.3 0 .6-1.1 2.2-2.4 1.5-1.3 2.4-2.9 2.1-3.5-.4-.6 0-1.1.9-1.1s1.3-.5 1-1c-.4-.6 2.8-7.1 6.9-14.4 8.1-14.2 12.9-24 19.4-40.1 3.2-7.8 4-10.8 3.6-13.6-.4-2.4 0-4.7 1.1-7 1.6-3.1 1.7-4.4.5-16-.7-7-1-15.4-.7-18.8.7-6.2-.7-8.6-1.9-3.4-1.8 8.2-2.9 11.5-6.1 18.8-4.1 9.2-7.6 18.4-10.5 27-1.9 5.7-1.9 6.2-.3 10.8 2.9 8.2.4 16.9-3.5 12.2-3.7-4.4-8.8 1.9-11.5 14.2-2.6 11.8-4.3 11.2-8.2-3l-2.6-9.6 3.1-4.8c2.9-4.4 3-4.9 1.5-6.5-2.1-2.3-3.3-2.3-3.3.1 0 1.1-.5 2.3-1 2.6-.6.3-1-.3-1-1.4 0-4.8-1.2-5.3-3.1-1.1-1.1 2.3-1.9 4.8-1.9 5.6 0 2.1-2 1.7-2.1-.4 0-1.1-.5-.7-1.3 1.2l-1.3 2.9-1.1-3.9-1-3.9-.1 6-.2 6-1.7-2.8c-1.9-3-3.5-3.7-2.5-1 .6 1.7.6 1.7-1 .1-.9-.9-1.7-2.5-1.8-3.5 0-1.6-.1-1.6-.8.2-.7 1.7-1 1.2-2-2.5-.6-2.5-1.6-6.2-2.2-8.4-.6-2.1-.8-5.9-.5-8.5.4-2.5.8-11.4 1-19.6.4-14.4.6-15.3 3.8-23 1.9-4.4 6.9-14.2 11.2-21.9 10.6-19 11.9-22.4 11.9-32.1 0-5.8-.6-10.1-2.4-15.5-2.1-6.5-2.4-8.8-1.9-16.9.6-10.3.1-11.1-4.6-8.6-1.6.8-3.8 1.5-4.9 1.5-3.2 0-8.5-3.7-8.5-6 0-2.4 3.4-9.6 5.8-12.3 1.5-1.6 1.5-2 0-4.4-1.3-2.1-3.8-3.4-11.9-6C5.2 53.5.4 52 .3 52 .1 52 0 126.7 0 218m95.4-31.2-.1 10.7 1.8-4c1-2.2 1.9-5 1.9-6.3 0-3-2.1-11.2-2.9-11.2-.3 0-.7 4.8-.7 10.8"/><path d="M43.1 224c0 2.5.2 5.5.5 6.8.6 2.2.7 2.2 3-1.2 1.3-1.9 2.4-4.3 2.4-5.3-.1-1.3-.5-1-1.6 1-1.8 3.4-2.5 3-3.4-2l-.8-3.8zM16 225.9c0 1.7.2 3.1.4 3.1.8 0 1.3-5.1.5-5.6-.5-.3-.9.9-.9 2.5m160.4 104.7c.8 18 .5 19.4-4.3 19.4s-7.1 1.2-9.2 4.7c-4.5 7.2-4.8 7.3-20.4 7.3-9.8 0-14.6.4-15.7 1.3s-1.7 3.9-2.2 10.9l-.6 9.8h51c28 0 51-.2 51-.4s-1.6-2-3.5-4c-4.8-4.9-6.7-8.1-7.1-11.8-.7-5.6-5.6-14.2-11.6-20.5-3.3-3.4-6.7-7.2-7.6-8.5s-1.9-2.5-2.2-2.8-1.7-2.1-3-4c-1.4-1.9-3.1-4.2-3.8-5s-3.2-4.1-5.4-7.3c-2.3-3.1-4.6-5.7-5.1-5.7-.7 0-.8 5.9-.3 16.6m-74.8 38.3c-1.3.5-2.5 2.9-3.7 7.2-1 3.5-1.8 6.7-1.9 7.1 0 .5 3.2.8 7 .8h7v-4.9c0-8.6-.9-11.1-3.9-11-1.4 0-3.5.4-4.5.8"/></svg>