<svg xmlns="http://www.w3.org/2000/svg" width="682.667" height="512" version="1.0" viewBox="0 0 512 384"><path d="M0 23.9v23.9l6.8.7c3.7.4 10.1 1.5 14.2 2.5 13.4 3.2 14.4 3.3 16.6.9 4.6-5.1 11.4-6.3 15.8-2.8 3 2.3 3.3 5.6 1.1 9.9-.9 1.7-1.3 3-1 3s2.9-1.2 5.8-2.6c4.6-2.4 5.9-2.6 12.7-2.1 9.2.6 17 2.7 17 4.4 0 .7-.6 1.3-1.2 1.3-.7 0-.1 1.1 1.4 2.4s2.5 2.6 2.3 2.8c-.3.2 0 2 .5 3.8.7 2.4.6 3.6-.1 4.1-.7.4-.9 1.2-.5 1.8.8 1.3 4.2-.5 4.4-2.3.1-2 4.1-13.1 4.3-12.1.1.5.6-.8 1.1-3 .6-2.2 1.4-13 1.8-24 .7-21 1.9-27.4 6.7-35.8.2-.4-24.4-.7-54.6-.7H0zM166 1.4c0 .7.7 1.9 1.5 2.6s1.5 1.8 1.6 2.4c0 .6 1.8 2.6 4.1 4.4 6.1 4.9 9.5 9.8 10.7 15.4 1.2 5.5.6 11.4-1.4 13.8-4.5 5.4-6.2 18.8-3.1 24.8.7 1.5 1.9 5.3 2.6 8.5.6 3.2 2.1 7.9 3.2 10.4 1.4 3.1 1.8 5.5 1.3 7.9-.7 3.8-.6 3.8-3.8 2.3-4.2-1.9-11.1 1.3-18.3 8.6l-6.4 6.3v7.4c0 4-.3 10.2-.6 13.9-.5 4.8-.3 6.9.7 8 .8.7 1.3 2.5 1.3 3.9-.2 3.1-2.1 8-3.1 8-.5 0-1.3.8-1.8 1.9-2 3.7-8.7 12.1-9.7 12.1-.6 0-2.1 1.1-3.4 2.6-1.7 1.8-2.4 2.1-2.4 1 0-2.5-1.5-1.9-1.7.6-.2 1.3-.6 4.5-.9 7.2-.5 3.6-.3 4.7.6 4.1q1.2-.75.9 2.1c-.3 4.6 0 6.6 1.1 5.9.6-.4.7-1.3.1-2.3-.5-.9-.5-2.6 0-3.7.4-1.1.8-1.4.8-.8.1.7 1.2 1.3 2.6 1.3 2 0 2.6.7 3.6 4.2.6 2.4 1.9 5.2 2.9 6.3s2.1 2.9 2.4 4.1c.3 1.1 2 3.6 3.6 5.4 2.9 3.3 3 3.8 2.7 10.7-.3 6.4-.7 7.7-3.3 10.6-1.6 1.7-3.4 3.5-4 3.9-1.6 1-2.7 7.7-1.6 9.1.5.7 1.5 3.4 2.2 6.2.7 2.7 3.3 11.1 5.7 18.5s5 16.2 5.8 19.5c.7 3.3 2.5 8.9 4 12.4 3.6 8.5 6.6 22.6 7.1 33.1.2 4.7.6 11.3.8 14.8.7 8.9-.2 10.9-5.9 11.8-4.2.6-8.5 3.4-8.5 5.5 0 .4-1.2 2.2-2.6 3.9l-2.7 3.1-13.7-.7c-7.7-.4-13.9-.3-14.2.2s-.9 5.1-1.2 10.1l-.8 9.3h87.1c47.9 0 87.1-.1 87.1-.3 0-2.1-4.8-9.2-8.2-12.1-6.3-5.5-6.6-5.6-8.5-5.6-3.5 0-9.2-4.8-9.8-8.4-.4-2-1.6-3.8-2.9-4.5-2-1.1-2.6-.9-5.5 1.8-1.8 1.7-3.9 3.1-4.7 3.1s-1.9.9-2.6 2-1.8 2-2.5 2-1.3.4-1.3 1c0 .5-.4 1-1 1s-1-3.5-1-8.5c0-5.7.4-8.5 1.1-8.5 1.9 0 .4-16.9-2.2-25.3-1.2-3.9-3-8.1-3.9-9.2-1-1.1-2.5-3.5-3.5-5.4-1.5-3.1-10.2-14.7-15.7-21.3-1.2-1.4-3.8-3.4-5.7-4.3-1.8-.9-5.4-3.4-8-5.5-6-5.1-8.4-5.1-13.1 0-2.8 3-4.1 3.8-5.9 3.3-2.8-.7-6.1-7.1-6.1-11.7 0-1.9-.9-5.4-1.9-7.8-2-4.5-7.2-10.8-9-10.8-1.7 0-6.1-4.6-6.2-6.6-.5-4.8 0-5.4 3.3-4.7 1.8.3 4.4 1.2 5.8 2 3.5 1.8 7.1 1.6 9.9-.6 2.3-1.7 2.3-2.1 1.7-12.2-.3-5.7-.9-12.3-1.2-14.7-.4-3.1-.2-4.8.9-6 2.6-3 5.4-9.5 7.2-16.7 1-3.9 2.6-8.9 3.6-11.3 2.4-5.4 2.5-16.1.3-25.2-2.1-9.2-3.3-17.7-4.3-31.5-.5-7.8-1.4-13.1-2.4-15.2-1-1.8-1.7-5-1.7-7.1 0-3.2.5-4.1 2.5-5 1.4-.7 3.5-1.2 4.5-1.2 1.1 0 2-.5 2-1 0-.6 1.8-1 4-1 2.5 0 4 .5 4 1.2 0 .9.2 1 .8.2.4-.6 3.7-1.8 7.4-2.7 7.7-1.7 15.2-6.2 15.6-9.5.2-1.2.8-2.2 1.3-2.2s2-2.1 3.3-4.8c1.3-2.6 3.3-6.7 4.5-9 1.3-2.4 3.8-6.5 5.7-9.2 1.9-2.6 3.4-5.2 3.4-5.7 0-.6.7-1.6 1.6-2.4 2-1.7 7.2-11.9 9-17.8.7-2.5 1.7-10.1 2-16.9l.7-12.2h-50.1c-42 0-50.2.2-50.2 1.4m4 181.6c0 .5.7 1 1.5 1 1.3 0 1.5 1.7 1.3 11.7l-.3 11.8-2.6.3c-2.2.3-2.9-.3-4-2.7-.8-1.7-1.8-3.1-2.2-3.1-.5 0-.6-.9-.2-1.9.3-1.1.7-2.8.9-3.8.4-1.9 2.3-9.4 3.2-12.6.6-1.8 2.4-2.4 2.4-.7m68.6 178.3c1.8 1.2 3.4 2.9 3.4 3.7 0 .9-1.8 3.4-4 5.5s-4 4.3-4 4.8c0 2.1-5.8 5.2-11 6-18.7 2.6-24.9 1.7-30.5-4.6-5.4-6-5.8-7.1-3.3-9.7 1.9-2 2.6-2.1 8.7-1.5 3.6.4 9.1 1.5 12.1 2.6 6.3 2.2 9 2.4 9 .6 0-.7 1.2-2 2.8-2.9 1.5-1 2.1-1.8 1.5-1.8-2.3 0-1.3-1.8 1.3-2.4 1.5-.4 3.3-1.4 4.2-2.2 1.8-1.8 4.9-1.2 9.8 1.9M0 216.9V384h80.9l.5-4.3c.3-2.3.7-6.3.9-8.9l.4-4.7-4.3-1.7c-3.5-1.3-6-1.5-12.4-1l-8 .7-1.5-3.8c-3.8-9.7-5.1-10.5-14.8-9-4.8.7-6.2.6-7.6-.7-1.6-1.4-1.9-1.4-3.3.1-.9.8-2.4 1.3-3.2 1-1.9-.8-2.2-10.9-.5-15.4.7-1.9.7-2.9 0-3.1-1.7-.6-1.3-3.9.5-4.6.9-.4 1.4-1.3 1-2.2-.4-1-.2-1.3.6-.8s.9.2.5-.9c-.3-1-.2-1.7.2-1.7.5 0 1.2-.7 1.5-1.6s.2-1.2-.4-.9c-1.4.8 3.1-7.8 4.4-8.7.6-.4 1.1-1.1 1.2-1.5.1-2.2 3.5-8.2 6.3-11.3 1.7-1.9 3.1-4 3.1-4.6 0-.7.7-1.5 1.6-1.8.9-.4 1.4-1.3 1-2.1-.3-.8-.1-1.5.4-1.5.6 0 1-.6 1-1.3 0-.6 3.2-6.6 7.1-13.2s8.8-15.4 11-19.6c5.6-11.2 13.9-32.3 13.9-35.4 0-1.4.7-4 1.6-5.7 1.4-2.6 1.4-4.1.4-11.5-.7-4.7-1.6-8.1-2-7.6-.4.4-1.8 4.8-3 9.6-1.3 4.8-2.6 8.4-3 8s-.4-5.5.1-11.3c1.1-14.1 1.1-18.9 0-17-.5.8-1.4 4-1.9 7-.6 3.1-3.6 12.7-6.7 21.4l-5.6 15.8 2.1 3.4c2.5 4.3 2.7 11.6.4 13.5-1.4 1.1-1.8 1.1-2.9-.4-2.5-3.5-5.4-2.1-8.1 3.8-1.4 3-2.4 6.5-2.3 7.7.2 1.3 0 2.9-.5 3.6-.4.7-.5 2.3-.2 3.6.6 2.3-2.7 6.6-3.7 4.9-.3-.4-1.7-5.3-3.3-10.7l-2.8-9.9 3-5.7 3-5.7-2.8-3.2c-1.5-1.7-2.8-4.1-2.8-5.4-.1-5.5-1.7-4.5-4.1 2.3-1.9 5.6-2.5 6.6-3 4.8-.5-2.1-.6-2-1.8 1.2-1.1 3-1.4 3.2-2 1.6-.7-1.8-.8-1.8-1.5.5l-.6 2.4-1.5-2.5c-1.4-2.4-1.4-2.4-1.5-.3 0 3.3-2 3.9-2.1.6-.1-2.1-.4-1.6-1.4 2.2-1.1 4.2-1.4 4.6-2 2.7-.4-1.2-1.1-2.2-1.6-2.2s-.6.8-.3 1.7c.4 1.3.1 1.1-.8-.3-.7-1.2-1.8-1.9-2.5-1.7-1.3.5-1.8-.9-3.3-9.6-.9-5-.8-8.4.5-17.1.8-5.9 1.3-11.4 1-12.2s-.2-5 .3-9.5c1.1-9.2 5.4-19.3 16.3-37.8 10.2-17.4 11.4-20.5 11.4-31 0-6.6-.6-10.9-2.2-16.1-2-6.4-2.2-8.1-1.4-16.5.5-5.2.5-9.8.1-10.3-.5-.4-1.9-.1-3.1.8-3 2.1-8.3 2.1-11.4 0-3.7-2.4-3.3-6.7 1.1-13.1 3.5-5 3.6-5.4 2.1-7.7-.9-1.3-3.8-3.2-6.4-4.1-2.6-1-7-2.5-9.8-3.5-2.7-1-6-2.1-7.2-2.5L0 49.9zM96 103c0 1.1.4 2 .9 2s.7-.9.4-2-.7-2-.9-2-.4.9-.4 2m1.2 85.5c0 5.5.1 5.7.9 2.7.7-2.2.7-4.3 0-6-.8-2.3-.9-1.7-.9 3.3"/><path d="M15.2 225c0 1.4.2 1.9.5 1.2.2-.6.2-1.8 0-2.5-.3-.6-.5-.1-.5 1.3m31 2c-.1 2.5.3 5.4.7 6.5.7 1.8 1.1 1.5 3-2.2 2.4-4.9 3-9.6.5-5.1-.8 1.6-1.7 2.8-1.9 2.8s-.9-1.5-1.4-3.3c-.9-3.2-.9-3.2-.9 1.3M43 303c-.6 1.1-.8 2-.6 2 .3 0 1-.9 1.6-2s.8-2 .6-2c-.3 0-1 .9-1.6 2m63.5 66.5c-.5.2-2.1.6-3.6.9-2.1.4-2.7 1.5-3.8 5.8-.8 2.9-1.6 5.9-1.8 6.5-.4 1 1.3 1.3 6.6 1.3h7.2l-.6-6.2c-.9-9-1.1-9.3-4-8.3"/></svg>