<svg xmlns="http://www.w3.org/2000/svg" width="682.667" height="512" version="1.0" viewBox="0 0 512 384"><path d="M0 23.4v23.3l11.2 1.7c6.2 1 12.1 2.2 13.1 2.8 1 .5 3.3 1 5 1 1.8 0 4 .5 5 1 1.5.8 2.8.3 5.9-2.2 5.5-4.4 11.9-5.2 15.3-2 2.9 2.7 3.2 6.5.9 9.8-1.9 2.8-1.2 2.8 5.3 0l5.3-2.3-.7-12.5c-.5-11.1-.4-12.7 1.1-13.9s2.3-1.3 4.9-.2c1.8.6 6.2 1.5 9.9 1.8 5.4.5 7 .3 8.3-1.1.9-.9 2.5-1.6 3.6-1.6 1 0 1.9-.4 1.9-.8 0-1.1 6.9-.7 10.3.7 1.6.6 3.1 1.1 3.5 1.1s1.3.9 2 2 2.1 2 3.1 2c1.1 0 2.3.4 2.6 1 1 1.5 4.3 1.2 5.3-.6.7-1.2 1-1.3 1.9-.2 1.7 2.2 4.3 9.7 4.3 12.4 0 1.4.5 3.4 1 4.5 2.6 4.8 3.2 21.5 1.1 30.6-.6 2.6-1.3 8.4-1.5 12.8-.3 4.4-1 9.6-1.5 11.5-.6 1.9-1.1 4.5-1.1 5.8 0 1.2-1 3.8-2.3 5.7-2.1 3.4-2.4 3.5-6.7 2.9-2.5-.3-5-1.2-5.6-2s-1.7-1.4-2.5-1.4c-.7 0 .3 1.1 2.2 2.5s5 4.9 6.9 7.7c2 2.9 7.1 8.1 11.5 11.6s8.6 7.5 9.3 8.9c2 3.6 1.7 8.1-.8 13.6-3.3 7.4-3.6 16.2-1 32.3 2.9 18.5 5.9 29.4 19.6 71.7 3 9.2 5.4 17.4 5.4 18.3s1.4 4.7 3.1 8.6c3.7 8.4 7 22.5 7.6 32.5l.5 7.1 7.9-.5c5.3-.4 7.9-.2 7.9.5 0 .6 2.1 2.1 4.6 3.3 4.2 2.2 8.5 6.2 14.2 13.5 1.8 2.2 2.2 3.7 1.8 6.4-.3 1.9-.6 5.6-.6 8.1 0 6.5-3.9 11-9.6 11.1-6.9.1-10.4-1.1-10.4-3.4 0-1.2-.2-1.9-.5-1.6-.7.6-6.5-4.9-6.5-6.1 0-.4-1-1.6-2.1-2.7-1.2-1-2.8-3.4-3.6-5.2-1.2-3-1.7-3.3-4.1-2.7-1.5.4-4.5 1.1-6.7 1.5-2.5.5-4.5 1.7-5.5 3.1-.8 1.3-2.8 3.9-4.4 5.7l-2.9 3.3-13.4-.7c-7.3-.4-13.3-.5-13.4-.3 0 .2-.4 4.6-.7 9.7l-.7 9.2h98.8c54.3 0 98.7-.2 98.7-.4s-1.1-2.9-2.5-6-2.5-6.3-2.5-7.2c0-.8-1-1.8-2.2-2.3-1.3-.5-4.4-2.7-7-5-2.5-2.3-5.1-4.1-5.7-4.1s-1.1-.6-1.1-1.3c-.1-.6-2.6-3.2-5.8-5.7-6.8-5.4-10.5-9.1-15.4-15.6-2.1-2.7-5.5-6.7-7.5-8.9-4.1-4.4-9.3-11.6-9.3-12.9 0-.4-1.6-2.4-3.5-4.4-1.9-2.1-4.7-5.2-6.3-7-1.6-1.7-3.2-3.2-3.7-3.2-.4 0-2.8-1.7-5.3-3.7-2.5-2.1-5.3-3.8-6.1-4-.9-.1-1.7-.6-1.9-1.2-.2-.5-1.3-2-2.5-3.4s-3.8-4.8-5.7-7.6c-1.9-2.9-4.6-6.5-6-8.1-7.8-9.1-12.6-20.6-17.7-42.5-3.9-16.8-6.5-24.8-9.1-28.5-5.2-7.1-4.9-14 1.3-28.5 4.8-10.9 5.5-14.9 4.4-24.6-2.1-19.8-2.7-22.4-6.3-29.9-2.7-5.7-3.8-9.8-4.7-17.2-1.1-9-1.1-10 .8-14.5 1.1-2.6 2.4-6.6 2.7-8.8 1.1-6 2.8-10.8 4.8-13.1 1-1.1 1.8-2.3 1.8-2.7s1.3-3.5 2.8-6.9c1.6-3.5 3.2-7.6 3.6-9.2.7-2.6 6.4-12.3 9.1-15.2.5-.6 2.8-3.3 5-5.9s6.2-7 8.8-9.8c4.7-4.8 6-7 7.3-12.2l.6-2.5H0z"/><path d="M0 216v168h82v-4.8c0-2.6.3-6.4.6-8.4.6-3.7.5-3.9-3.2-5.4-3-1.3-5.7-1.5-12-1-9.2.7-10.1.2-12.3-7-1.9-5.8-4.4-7-12.7-5.7-5.3.7-6.9.7-8-.4-1.1-1.2-1.7-1.1-3.8.2-1.4.9-2.9 1.4-3.4 1.1-1.8-1.1-2.1-6.3-.8-12.7.9-4.1 1-6.6.4-7-.7-.4-.6-1.3.1-2.6.5-1.1.7-2.4.3-2.8-.4-.5-.1-.5.5-.1 1.2.6 1.8-.5 1.4-2.7 0-.4.6-.7 1.5-.7 1.4 0 1.5-.2.3-1.7-1.2-1.4-1.2-1.6 0-.9.9.6 1.2.5.9-.5-.6-1.7 1.8-6.9 4.1-8.7 1.2-1 1.3-1.2.1-.6s-1.2.4.1-1.2c.9-1 2-2.9 2.3-4.1.4-1.2 2.7-4.6 5.1-7.5s4.1-5.6 3.9-6c-.3-.5 0-.8.6-.8s.8-.5.5-1c-.3-.6-.1-1 .4-1 .6 0 1.1-.6 1.1-1.4s3.1-6.7 7-13.1c8.3-14 15.4-28.3 20.9-42.3 6.4-16.1 7.9-23.7 6.3-32.2l-.8-4.5-1.9 8.3c-1.1 5.2-2.2 7.9-2.8 7.3-.5-.5-.7-7.1-.5-15.4.2-11.8.1-14.1-1-12.6-.7 1-1.7 4.2-2.2 7.1-.6 2.9-1.9 8-2.9 11.3-1.1 3.3-2.5 8.5-3.2 11.5s-1.8 5.9-2.4 6.5c-.7.5-1.8 2.7-2.4 4.7-1 3-.9 4.2.3 6.7 1.8 3.4 2.2 13.6.5 14.6-.5.4-1.8 0-2.8-.9-3.8-3.5-6.5-1.1-9 7.9-.8 3-.8 4.1.2 4.7.9.6.9 1-.2 1.7-1 .6-1.2 1.9-.7 4.6.5 2.4.4 3.5-.3 3.1-.5-.4-1.4.1-1.9 1.1-.8 1.4-1.2 1.2-2.6-1.5-.9-1.7-1.6-3.8-1.6-4.7s-.9-4.3-2-7.6l-2-6 5.5-10.5c3-5.8 5.5-11.2 5.5-12 0-2.4-1.5-1.6-2.6 1.3-1 2.8-1.1 2.8-2.6-2.2l-1.6-5 .4 4.2c.2 2.4.6 6.2.9 8.5l.5 4.3-3-3.5c-1.8-2-3.3-5.2-3.7-7.5l-.6-4-2.3 5c-1.3 2.7-2.3 6-2.3 7.3-.1 1.3-.5 2.1-1.1 1.7-.5-.3-.7-1.3-.4-2.3.2-.9-.3-.2-1.2 1.7-1.1 2.4-1.8 3.1-2.3 2.2-.6-1-1-.9-1.4.3-.9 2.4-2.7 1.9-2.8-.7 0-1.9-.2-1.8-1.1.7l-1.1 2.9-1.3-2.9c-.9-2.1-1.2-2.4-1.2-.9.2 4.1-.2 6.5-1.2 6.5-.5 0-1-.7-1-1.6 0-1.1-.5-1.4-1.6-1-1.2.5-1.5.2-1-1 .5-1.3.3-1.4-.7-.6-2.2 1.9-3.5-.1-4.8-7.2-.9-5.3-.9-9.7-.1-18.5.7-6.4 1.4-15.3 1.6-19.9.6-10 3.1-16.4 13.9-35.3 12.5-22 14-25.7 14-35.2.1-5.7-.6-10.6-2.2-16-2-7.1-2.2-8.7-1.3-17 1-9.3.4-12.3-2-9.9-.7.7-3.5 1.2-6.3 1.2-5.5 0-8.5-1.9-8.5-5.4 0-2.2 2.6-7.3 5.6-10.9 3.9-4.6 1.5-7.4-9.2-11.1-3.8-1.3-9.3-3.3-12.1-4.5L0 48zm103-103c0 .5.5 1 1.1 1 .5 0 .7-.5.4-1-.3-.6-.8-1-1.1-1-.2 0-.4.4-.4 1m-6 79.2c0 3.6.4 3.5 1.4-.5.4-1.6.2-2.7-.4-2.7-.5 0-1 1.4-1 3.2"/><path d="M15.6 225.6c-.4 1.4-.5 2.8-.3 3.1.3.2.8-.8 1.1-2.3.4-1.4.5-2.8.3-3.1-.3-.2-.8.8-1.1 2.3m87.5 145.3c-1.9.5-2.8 1.8-3.8 5.6-1.9 7.6-2.1 7.5 5.2 7.5s7.2.2 5.9-9.4c-.7-4.9-1.5-5.3-7.3-3.7"/></svg>