<svg xmlns="http://www.w3.org/2000/svg" width="682.667" height="512" version="1.0" viewBox="0 0 512 384"><path d="M0 192v192h83v-2.3c0-1.2.3-4.5.6-7.3.6-5.1.6-5.1-2.6-6.2-2.4-.9-4.9-.9-10 0-7.9 1.4-9.2.8-11.1-5-2.2-7-3.3-7.5-13-6.8-7.5.6-8.8.4-9.3-1-.6-1.5-.8-1.5-3.2.1-1.4.9-3.1 1.4-3.9 1.2-1.9-.8-2.4-6.5-1-13.2.7-3.4.9-6.1.4-6.3-1.3-.5-1.1-1.8.4-3.4.7-.7 2.2-3 3.4-5 1.7-2.8 1.8-3.5.6-3.1-1.1.5-1-.4.7-3.8 1.3-2.4 3.1-5.5 4.1-6.8 1.1-1.3 1.9-3 1.9-3.8 0-1.1 7.1-12.4 9-14.3.3-.3.5-1.2.5-2s.6-1.4 1.3-1.2c.8.1 1.1-.2.7-.7-.3-.6 2.6-6.7 6.5-13.6 8.2-14.5 12.3-23.2 19.1-40.5 2.7-6.9 6.1-15 7.5-18.1 2.6-5.5 2.6-5.8 1.4-14.4-1.4-9.7-2-9.6-4.6.7-.9 3.8-1.8 6.8-2.1 6.8-.5 0 .2-15.9 1.2-26.5l.5-5-1.9 4c-1.1 2.2-2 4.9-2 6-.1 2.5-5.9 23-7.7 27-.7 1.7-1.9 5.2-2.6 7.8-1.1 4.1-1 5.1.5 7.6 1.7 2.9 2.3 10.4 1.1 13.5-.8 2-3 2.1-3.8.1-1.6-4.3-6 .6-7.2 8.3-.6 3.7-.4 4.1 1.7 4.4 2.4.4 2.4.5-.5 1.6-2.1.9-2.6 1.7-2.1 3 1.6 3.9 1.6 5.2 0 6.9-1.7 1.6-1.8 1.6-3.5-.4-.9-1.2-2-4.6-2.4-7.5s-1.2-7.1-1.8-9.3c-.9-3.5-.8-4.8 1.5-10.3l2.5-6.3-2.4-2.9c-1.4-1.6-3.1-4.8-3.7-7.2l-1.3-4.2-1.9 6.3c-1.4 4.6-2.1 5.8-2.5 4.5-.6-1.5-1-1.2-2 1.9-1.5 3.9-4.5 5.1-5.3 1.9-.3-1.4-.6-1.3-1.4.8-1.1 2.5-1.1 2.5-2.6-2-.3-.8-.6.2-.6 2.2-.1 3.9-1.5 5.8-2.5 3.3-.3-.8-.9-1.5-1.3-1.4-2.2.4-4.4-.2-3.9-1 .3-.5 0-1.1-.8-1.4q-4.05-1.5-3-32.4c.5-18.6.7-20.3 3.5-27.6 1.6-4.4 6.4-14.5 10.7-22.5 9.1-17.2 11.4-22.7 12.3-30.2.6-5.1-.5-14.2-3-24.2-.8-3.5.8-19.2 2.3-21.6 1.1-1.8-2-3.5-4.3-2.3-2.9 1.6-8.3 1.3-10.9-.5-3.7-2.6-2.9-6.5 2.7-12.6l4.9-5.3-2.2-2.8c-1.2-1.5-2.5-2.7-2.9-2.7-1.6 0-23.5-10.9-24.3-12.1-.5-.9-.2-1 1.2-.5 1 .4 5.7 1.6 10.4 2.6 4.7 1.1 10.5 2.6 12.9 3.5 2.4.8 5.3 1.5 6.5 1.5 1.1 0 2.9.7 3.9 1.4 1.6 1.3 2.4 1.1 6.9-1.7 6.4-4 10.9-4.1 14.6-.4l2.7 2.7-2.4 4.5c-1.3 2.5-2.2 4.8-1.9 5 .3.3 3.1-.4 6.4-1.5 4.3-1.5 7.1-1.9 10.4-1.4 6.5.9 17 4.3 17 5.4 0 .6-.5 1-1.2 1-.6 0-.2 1 .9 2.2 2.4 2.6 4 11.3 2.3 12.3-1.4.9-.3 2.5 1.9 2.5 1.3 0 2.1 1.4 3 5.2.7 2.9 1.7 6.6 2.4 8.2 1 2.7.8 3.2-2.6 6.1-2 1.8-3.7 3.9-3.7 4.8s1.4 3.2 3.1 5.2c1.8 2 2.5 3.5 1.8 3.5s-.2.7 1.1 1.7c8.1 5.4 13.6 10.3 16.5 14.9 1.8 2.8 5.5 6.9 8.1 9 10.5 8.4 12.4 10.8 12.4 15.3 0 2.4-1 6-2.2 8.4-2.1 3.8-2.3 5.4-2.2 18.7.2 19.1 1.8 26.2 15.5 67.3 6 18.1 10.9 33.3 10.9 33.9s1.8 5 3.9 9.7c2.2 4.7 4.5 10.8 5.2 13.6.6 2.7 1.9 7.5 2.8 10.5 1.2 4 1.6 9.5 1.6 20.5v14.9l-2.5.8c-1.4.4-3.7 1-5.2 1.3-1.9.3-3.8 2.2-6.3 6-2.1 3-4.4 5.6-5.3 5.7-1 .1-7.6.2-14.9.2-8.8.1-13.6.5-14.4 1.3-.6.6-1.5 4.4-1.8 8.2l-.7 7.1H387l-.1-3.3c0-1.7-.6-6.5-1.3-10.5-1-5.6-2-8-4.2-10.3-3-3.1-8.4-6.3-9.2-5.4-.3.3-.1.5.4.5s-.8 1.1-2.8 2.5c-3.7 2.5-6.8 3.3-6.8 1.6 0-.4-1.8-2.1-4-3.6-3.1-2.2-4-3.4-4-5.7 0-1.9-1-4-3-6-1.7-1.6-2.8-3.4-2.5-3.8.3-.5-.3-1.3-1.2-1.9-1.6-.9-1.8-2.7-1.8-17.8 0-10.3.6-19.8 1.4-24.5 1.2-6.5 1.2-8.2.1-10.2-1-2-1.1-5.1-.4-14.3 1.2-16.5.7-26.8-1.5-31.2-1.5-2.9-2-7.4-2.6-23.6-.4-11-.8-21.6-.9-23.5s-.8-4.6-1.5-5.9c-1-1.8-1.2-5.1-.6-13.3.6-10.3.5-11.1-1.8-15.6-1.3-2.6-3-7.4-3.7-10.7-1.4-6.6-2.8-8.3-9.2-10.9-8.4-3.5-9.3-4.1-12.6-10.5-1.8-3.5-5.5-9-8.2-12.1-3.5-4.1-5.8-8.1-8.1-14.1-4.9-13.5-8.2-21.3-9.5-22.6-.7-.7-3.6-6.1-6.5-12s-6.3-11.9-7.5-13.3c-1.3-1.4-3.9-6.3-5.9-11-1.9-4.7-5.8-13-8.5-18.5-2.8-5.5-6.2-12.8-7.7-16.2L248.5 0H0zM511.3 3.5c0 2.2.2 3 .4 1.7.2-1.2.2-3 0-4-.3-.9-.5.1-.4 2.3m-1.9 68.2c-.9 2.1-1.9 6-2.2 8.6-.4 4.3-.2 5.2 2.2 7.3l2.6 2.5V79c0-6-.2-11-.4-11s-1.2 1.7-2.2 3.7m-58.6 67.2c-2.1 2.7-3.8 5.3-3.8 5.8 0 .4-1.5 2-3.4 3.5-2.6 2.1-3.6 2.4-4.7 1.5-.7-.7-.6-.3.3.8 1.6 2 1.8 2.4 1.8 4.6 0 .5.4.8.8.5 1-.6.3 6.4-.9 8.9-.8 1.6-.2 4.7 2 12.6 2.4 8 3.1 12.8 3.2 19.5.1 4.9.4 10 .8 11.4s2.9 4 5.7 6c7.2 5 13.5 12.6 19 22.7 2.6 4.8 8.3 13.9 12.6 20 12.7 18.1 14.8 22.7 16.4 36.8.7 6.6 1.8 15.1 2.4 19 1 6.4.6 20.7-.7 24.1-.7 1.9-3.3 1.8-3.3-.1 0-.8-.4-1.5-1-1.5-.5 0-.7 1.3-.4 2.9.7 3.5 0 4-6.8 4.5-7.9.7-9.8 1.7-16.8 9.6l-6.4 7.3-10.9-.6-10.8-.5-8 4.1-8 4.2.6 5c.3 2.7.8 6.7 1.1 8.7l.6 3.8H512V275.7c0-59.5-.4-107.5-.9-106.7s-1.1 3.9-1.4 6.8c-.4 2.9-1.3 6.7-2.2 8.4-.8 1.7-1.5 3.9-1.5 4.8s-.9 2.6-2 3.8-2 2.6-2 3.2c0 2.2-3.3.4-4.9-2.6-1-2-3.4-4-7.3-5.8-3.3-1.6-5.9-3.6-6-4.5 0-.9-.2-3.6-.3-6.1-.8-13.9-4-22.7-8.7-23.7-1.9-.4-3.1-1.6-4.2-4.4-.9-2.2-1.6-4.6-1.6-5.5s-1.8-3.3-4.1-5.5c-5.9-5.6-9.2-5.4-14.1 1m-24.6 51.6c-.8 3.3-1.6 7-1.9 8.1-.4 1.7.2 2.4 2.7 3.2l3.1 1.1-.7-3.2c-.4-1.7-1-5.9-1.3-9.2l-.6-6z"/><path d="M22 226.2c0 1.9.2 2 1 .8 1.3-1.9 1.3-3 0-3-.5 0-1 1-1 2.2m30.3-.7c.3 1.1.9 4 1.2 6.4.4 2.6 1 3.9 1.5 3.1.7-1.1-1.3-9.7-2.6-10.9-.4-.3-.4.3-.1 1.4m116.4 76.6c.4 1.3.8 1.8 1.1 1 .2-.7-.1-1.8-.6-2.3-.8-.8-.9-.4-.5 1.3m233.9 61.6c-.5 1.9-.8 8.9-.7 16l.1 4.3h7.1c5.4 0 7-.3 6.6-1.3-.3-.7-1.5-4.9-2.7-9.2-2.9-10.6-3.5-11.5-7-11.5-1.9 0-3 .6-3.4 1.7m-299.8 11.5c-.9.7-2.1 3-2.6 5l-1 3.8H112v-10h-3.8c-2.1 0-4.5.6-5.4 1.2"/></svg>