<svg xmlns="http://www.w3.org/2000/svg" width="682.667" height="512" version="1.0" viewBox="0 0 512 384"><path d="M0 192v192h41.4c46.7 0 41.8.9 43.1-8.2l.6-4.7-3.8-1.6c-2.8-1.2-6.2-1.5-12.8-1.3l-8.9.3-1.9-5c-2.9-7.8-3-7.8-12.4-7.2-5.8.4-8.3.3-8.6-.6-.2-.8-1.1-.7-2.9.5-2.2 1.4-2.8 1.5-3.7.4-1.6-1.9-.8-22 .9-24 .6-.9.8-2.1.4-2.7q-.6-1.05.3-.6c.6.4 1.4 0 1.7-.9.3-.8.2-1.3-.3-.9-1.2.7 3.6-9.2 6.2-12.9 1.2-1.6 1.5-2.6.7-2.1-1.6 1-.9-.4 2.7-5.2 1.3-1.8 2-3.3 1.6-3.3s-.3-.4.3-.8 2-2.4 3.1-4.4c1.1-2.1 2.4-3.4 2.8-3s.5 0 .4-.8c-.2-.8 3.5-8.3 8.3-16.5 9.2-15.9 14.6-26.8 20.9-42.8 2.2-5.4 5-12 6.3-14.5 2.1-4.4 2.2-5.3 1.4-13-1.5-13.9-2.2-14.1-5.1-2.2l-2.6 10.5.6-13.9c.4-9 .2-13.7-.4-13.3s-1.3 2.8-1.7 5.4c-.3 2.7-2.9 12.2-5.7 21.2-5.1 16.3-5.1 16.4-3.4 19.4 1.2 2.1 1.7 4.8 1.6 8.6-.2 6.3-1.8 8.1-4.4 5-2.3-2.8-4.1-1.3-5.6 4.5-.6 2.4-1.3 5-1.7 5.9-.4 1.2.2 1.7 2.8 1.9l3.3.4-3.7 1.7c-3.5 1.6-3.6 1.8-2.7 5.2.8 2.8.7 3.9-.6 5.1-2.4 2.5-4.2.2-5-6.4-.3-3.1-1.1-7.6-1.7-9.9-.9-3.6-.6-5.4 2-13.5 3-9.2 5.5-21.7 3.1-15.6-1.2 3.2-2.5 3.6-3.3 1-.3-.9-.3.8 0 3.8l.5 5.5-3.6-3.9c-1.9-2.2-3.5-4.9-3.6-6-.1-1.2-.8.1-1.7 2.9-1.4 4.4-1.7 4.7-2 2.2-.5-4-1.8-3.3-3.2 1.8-1.5 5.2-2.9 6.6-3.7 3.6-.7-2.6-2.3-1.8-2.4 1.2-.1 1.5-.5.9-1.4-1.8l-1.3-4-.2 6c-.1 5.7-.1 5.9-1.5 3.5-.8-1.4-1.4-1.9-1.5-1.3 0 .7-.5 1.3-1.1 1.3s-.9-.7-.6-1.4q.6-1.5-.9-.9c-.9.3-1.4-.1-1.4-1.2 0-.9-.4-1.4-1-1-1.4.9-5.5-15.7-4.5-18.4.4-.9.6-8.9.6-17.8 0-16 0-16.2 3.4-24.8 1.8-4.7 6.5-14.3 10.4-21.3 11.5-20.9 13.2-25.4 13.4-34.7.1-4.4-.4-11.6-1.2-16C44 100 44 97 45 90.5c1.8-12.4 1.8-13-.5-12.7-9.8 1.4-10 1.4-12.8-.8-3.5-2.8-3-4.7 3.3-12l4.8-5.6-2.2-2.5c-1.1-1.4-7-5-13.1-7.9-6-2.9-11.9-5.9-13-6.7-1.9-1.5-1.9-1.5.5-.9 22.2 5.8 32.4 8.9 34.2 10.4 1.2 1 2 .8 4.1-.8 2.9-2.3 8.9-5 11.2-5 .8 0 2.9 1.3 4.7 2.9l3.2 2.8-2.2 3.7c-2.3 3.9-2.8 6.6-1.3 6.6.5 0 2.5-.7 4.4-1.5 5-2.1 12.3-1.9 20.3.6 8.3 2.6 9 2.9 7.3 4-1.1.6-.9 1.3.7 3.1 2.3 2.4 3.8 10.4 2.3 11.4-1.7 1-.9 3.3 1.4 3.6 1.4.2 2.2 1 2.3 2.3.1 1.1.4 2.7.6 3.5.3.8 1.1 3.5 1.8 6l1.2 4.4-3.6 2.9c-4.2 3.4-4.5 5.5-1.1 9.5 3 3.5 3.1 4.4.8 3.5-1-.3 2 2.1 6.5 5.4 6.2 4.5 9.1 7.4 11.3 11.2 1.8 3.2 5.7 7.4 10.4 11.2 4.1 3.4 8.1 7.2 9 8.5 2.1 3.3 1.9 8.6-.7 13.6-2 3.7-2.3 6.2-2.6 16.8-.5 17.9 2 29.2 17 76.4 3.3 10.5 6.8 22.2 7.7 26.1 1 3.8 2.8 9 4 11.4 4.4 8.5 7.3 24.1 7.8 41.4.3 10.7.1 16.2-.7 17.1-.6.8-3.1 1.7-5.5 2.1-4 .6-4.8 1.2-8.1 6-1.9 3-4.4 5.7-5.5 6-1.2.4-7.1.4-13.3 0-8.8-.6-11.4-.4-12.3.6-.6.8-1.4 4.4-1.8 8.1l-.7 6.8h257.4l-.6-3.3c-.3-1.7-.8-7.2-1.1-12.2-.4-5-1.1-10.4-1.6-12.1-1-3.2-4.3-5.4-8.3-5.4-4.3 0-5.9-2.3-6.4-8.8-.2-3.5-1-6.6-1.8-7.3-1.7-1.4-1.9-4-.3-3.6 1.9.4 2.1-2 .3-3.8-2.4-2.3-3.6-9.5-1.8-10.2 1.7-.6 1.8-4.8.2-6.4-.8-.7-1.2-3.1-1.1-5.8.2-3.7 0-4.1-.6-2.1-1.8 5-1.1-16.4.9-29.5 1.1-7.2 2.4-22.5 3-34 .6-11.6 2-27.3 3.1-35 1-7.7 1.9-14.9 1.9-15.9 0-1.8-.1-1.8-2.3.2-2 1.9-4.7 2.9-4.7 1.8 0-.2 1.8-3.4 4-7s4-7.7 4-9.2c0-2.4-.6-2.1-7.7 4.5-4.2 3.9-8.1 7.1-8.5 7.1-1.1 0-1.7 1.2 7.6-14.3l7.7-12.7-2-3.4c-2.6-4.1-2.7-9.2-.3-12.9 1.1-1.5 4.5-4.9 7.8-7.5 3.2-2.6 7.2-6.7 8.9-9.1 3.7-5.5 10.8-12.6 15.7-15.8 4-2.7 7.8-8.2 7.8-11.3 0-1.1-1.5-2.6-3.7-3.8-3.3-1.7-3.8-2.3-3.6-5.3.1-1.9.3-5.7.4-8.6.1-4.5.5-5.2 2.5-5.7 2.9-.8 3-1.7.4-4.1-2.5-2.3-2.5-5-.1-9.8 1-2 1.4-3.7.8-3.7-2.4 0 3.4-4.5 9.8-7.6 7.6-3.7 10.5-4.1 18.2-2.1l5.2 1.4 7-8.9c3.8-4.9 7.7-10.9 8.7-13.3 1.8-4.8 2.9-5.3 6-3.1 1.7 1.3 2.3 1.1 6-2 3.7-3 4.3-3.2 5.5-1.8s1.5 1.4 3.1-.6c2.4-3 2.3-2.5-1.4 6.6-3.6 8.9-8.1 17-14.5 26.1l-4.4 6.2 3 4.1c1.6 2.2 3.6 7.1 4.6 11 2.8 11.5.3 21-14 52.5-1 2.2-1.4 8-1.3 22 0 13.2-.4 21-1.4 25.6-.8 3.6-1.1 7.4-.7 8.6.4 1.1 1.2 7.8 1.7 14.9.9 11.9 1.2 13 3.4 14.4 4.3 2.8 11 10.5 17.3 20 3.4 5.2 10.1 14 14.8 19.5 12.9 15 16.4 21.7 19.3 37.2 4.4 23.4 4.7 26.4 3.5 34.4-1.3 8-2.8 10.9-3.7 7.1-.9-3.4-2.4-2.6-2.4 1.2 0 2.6-.5 3.6-2 4.1-1.1.3-2.4.4-2.8.1-.5-.3-3.5.2-6.7 1-6 1.6-6.2 1.7-16.7 13.8l-3.4 3.8-11.5.7c-11.3.6-11.6.7-18.7 5-4.4 2.6-7.8 4.1-8.8 3.7-1.7-.7-1.7 2.3.2 16.1l.6 4.3H512V0H0z"/><path d="M460 35c-.8.5-2.8 1-4.5 1-2.7 0-3.4.7-7.1 8-3.7 7-4 8.1-2.7 9.2s2 .7 4.5-2.2c3.6-4.2 11.2-14 12.2-15.8.9-1.4-.3-1.6-2.4-.2M23.2 226c0 1.9.2 2.7.5 1.7.2-.9.2-2.5 0-3.5-.3-.9-.5-.1-.5 1.8m28.9-.4c0 1.1.3 1.4.6.6.3-.7.2-1.6-.1-1.9-.3-.4-.6.2-.5 1.3m115.4 78.6c.4 1.3 1.1 2.7 1.6 3.3.5.5.4-.5-.2-2.3-1.2-3.6-2.4-4.4-1.4-1m328.6 23.4c0 1.1.3 1.4.6.6.3-.7.2-1.6-.1-1.9-.3-.4-.6.2-.5 1.3m-95.2 32.1c-2.3.6-2.9 3.3-2.9 14.5v9.8h7.6c4.1 0 7.3-.3 7.1-.8-.3-.4-1.9-6-3.7-12.5-3.3-12-3.5-12.3-8.1-11m-293.7 14.6c-3.7.7-4.6 1.4-5.8 4.2-.8 1.9-1.4 3.9-1.4 4.5s2.7 1 6.5 1h6.5l-.1-3.8c-.1-6.2-.8-6.9-5.7-5.9"/></svg>