<svg xmlns="http://www.w3.org/2000/svg" width="682.667" height="512" version="1.0" viewBox="0 0 512 384"><path d="M0 192v192h85v-2.3c0-1.2.3-3.9.6-5.9l.7-3.8-5.8-2.6c-4.9-2.3-6.7-2.6-12.5-2.2-3.7.3-7.5.1-8.3-.4-.9-.4-2.3-3.2-3.1-6.2-2-6.8-4.7-8.2-14.1-7.2-5.5.6-6.7.4-8.2-1.2-1.7-1.7-1.9-1.7-5 .1l-3.3 1.9-1-2.7c-1.3-3.5-1.2-6 .4-12.3.8-2.8 1-5.2.5-5.2-1.5 0-1-1.5 1.1-4 1.2-1.3 1.8-3 1.5-3.7-.2-.8 0-1.1.5-.8.6.3 1.1 0 1.2-.7 0-.7.2-1.8.2-2.4.3-2.7 4.2-9.3 5.3-8.9 1 .3 2.4-1.9 2.8-5 .1-.6.3-1.5.4-2 0-.6 3-4.1 6.5-7.9 4-4.2 6.2-7.5 5.9-8.5-.2-.9 1.7-4.5 4.5-8.1C70.3 262.8 86 234.4 86 227.4c0-2.2.7-6.1 1.5-8.8.8-2.6 1.9-11.5 2.5-19.6.5-8.1 1.4-16 2-17.4 1.3-3.5 1.3-3.6-.7-3.6-2.2 0-7.8 10.4-9.3 17.3-.5 2.6-3.5 11.7-6.5 20.2S70 231.4 70 231.9c0 .6.9 2.5 2 4.3 1.2 2 2 5.1 2 7.9 0 6.9-3.3 9-5.3 3.5-.8-2.5-3.7.9-5.6 6.5-2.6 7.9-2.6 8.5.1 9.3 2.5.6 1.6 2.2-1.6 2.8-1.1.2-2.3 1.5-2.7 3.1-.9 3.3-2.8 5.9-3.9 5.2-.4-.3-1.1-5.4-1.5-11.4-.7-10.2-.5-11.5 1.9-18.8 2.8-8.4 7-28.3 6.1-29.1-.3-.3-.5-.1-.5.4 0 .6-.6 1.8-1.3 2.9-1.1 1.4-1-.5.4-8.1 1-5.4 1.8-11 1.8-12.4-.1-2.4-.1-2.4-1.1.4-.8 2.1-1.3 2.5-1.9 1.5-1.2-2.1-3.7 4.7-6.4 17.5-1.8 8.9-2.4 10.6-3 8.3-.8-3.1-2-3.4-3.4-1-1 1.7-1 1.6-1.1-.2 0-1.1-.5-2.7-1.1-3.5-.8-1.1-.9.5-.5 5.8.7 7.8-.1 8.6-3 3l-1.6-3.2-1.4 3.2c-1.6 3.8-2.7 4.2-1.8.7.3-1.4.3-3.3 0-4.2-.6-1.4-1-1.2-2.5 1.3-1 1.6-2.3 4.3-2.9 5.9-.6 1.7-1.1 2.4-1.1 1.6-.1-1.1-.6-1-2.1.4-2 1.8-2 1.7-2-.8 0-1.4-.5-2.9-1.2-3.3-.8-.5-1 .7-.5 4.4.7 5.6-.5 6.9-2.1 2.4l-1-2.7-.2 3c-.1 2.6-.3 2.7-.9 1-.5-1.1-.7-2.3-.4-2.8.2-.4-.3-.7-1.1-.7-.9 0-1.6-.7-1.6-1.6 0-.8-.4-1.3-.8-1-1.7 1.1-3.3-13.7-2.2-21.9.5-4.4 1.2-10.5 1.5-13.5 1.4-14.7 1.9-16.8 5.6-24.2 2.1-4.2 6.6-11.6 10.1-16.5 20.1-28.6 20.4-29.2 20-44.3-.2-6.3-.4-13.5-.4-16-.1-4.2 1.3-13.6 2.6-17 .3-.8.2-2.1-.3-2.9-.7-1.1-1.5-1.1-4.3-.1-5.7 2.1-11.8-.6-11.8-5.1 0-1.1 2.3-4.4 5.1-7.4 5-5.3 5-5.4 3.5-8.3-1-2-3.2-3.6-6.8-5.2-7.2-3-20-10.1-19.5-10.7.3-.2 2.9.2 5.9 1.1 2.9.8 10.3 3 16.3 4.7 6.1 1.7 11.8 3.8 12.8 4.7 1.5 1.4 1.9 1.4 3.5 0 5.2-4.6 12-6 16-3.2 2.8 1.9 2.8 4.7.1 9-2.9 4.8-1.8 5.6 4.9 3.3 4.8-1.7 6.5-1.8 10.7-.9 10.8 2.2 21.5 7 15.8 7-1.4 0-1.3.3.5 2 1.2 1.2 2.2 2.4 2.3 2.8.5 4.9.3 8.9-.4 9.9-1.2 1.6 0 3.3 2.3 3.3 1.4 0 2 .7 1.9 2.2 0 2.5 1.4 9.3 2.5 11.9.5 1.2-.5 2.6-3.3 4.9-2.3 1.7-4.1 3.6-4.1 4.2 0 .5 1.4 3 3.1 5.5 3 4.3 3 4.4.8 3.3-2.7-1.3-3.4-1.8 8.3 6.7 4 2.9 7.5 6.4 8.8 8.8 1.2 2.2 6.5 8 11.6 13 8.6 8.3 9.4 9.3 9.4 12.8 0 2.1-.8 5.4-1.9 7.5-6.7 13.3-5.3 28.5 6.9 74.2 3.9 14.6 8.2 31.4 9.6 37.5 1.4 6 3.7 14.4 5 18.6 2.7 8.6 2.9 10.3 1.2 9.3-.8-.5-.9-.2-.5 1 .4 1 .7 2 .7 2.2 0 .3.4.3.8 0 2.7-1.7 5.7 42.8 3.2 47.5-.6 1-2.6 2.1-4.8 2.4-6.2 1.1-6.6 1.3-9.6 6-4 6.4-5.1 6.8-17.2 6-11.7-.8-10.6-1.7-11.9 9.3l-.6 5.2h250.2l-.5-3.3c-.3-1.7-.8-5.9-1.1-9.2-1.1-11.3-1-11.2-6.7-11.9-4.2-.6-5.9-1.5-10.2-5.6-3.4-3.2-6.3-5-8.9-5.5-4.9-1-6-3.2-5.2-10.5.4-3.8.3-6-.4-6.4-1.6-1-1.3-3.6.4-3.6s1.9-.9.5-3c-.5-.8-1-1.1-1.1-.5-.2 2.1-1.7-4.2-1.8-7.6-.1-2.9.3-3.6 1.7-3.5 1.5.1 1.8-1.1 2.2-9.1.5-9.6-.5-11-2-2.7-.6 3.7-.7 2.6-.3-4.6.3-5.8 2-15.9 4.3-26 4.9-21.2 4.6-19.3 7.5-42 1.3-10.7 3.4-24.7 4.6-31 1.4-7.5 2.2-15.9 2.3-24 .1-11.7-.1-12.9-2.7-18.4-4.7-10.1-4.2-11.5 7.2-22.6 5.4-5.2 10.6-10.9 11.5-12.7.9-1.7 4.8-5.7 8.8-8.8s7.3-6.3 7.4-7.1c.1-.7 1.2-2.5 2.3-4 2.9-3.7 2.7-5-1.5-8.8l-3.6-3.3 1.2-5.4c.6-3 1.1-6.6 1.1-8.2 0-2.2.4-2.7 2.3-2.7 3.3 0 3.7-.9 2.1-4-1.6-3.2-.7-8 2.1-11.1 1-1.1 1.4-2.2 1.1-2.5-1.2-1.3 2.6-3.7 9.5-6.1 6.4-2.2 7.5-2.3 12.2-1.2 2.8.6 6.9 2 9.1 3l3.9 1.9 6.1-5.8C455 36.1 458 33.6 458 34.6c0 .5-3.1 5.4-7 10.8-3.8 5.3-7 9.9-7 10.2 0 1.5 2.9-.3 7.8-5.1 3.1-3 5.1-5.5 4.5-5.5-3.1 0-.9-3.3 3.5-5.2 2.6-1.2 5.3-2.9 6-4 .7-1 1.9-1.8 2.6-1.8.6 0 2.9-1.8 5.1-4 2.1-2.2 4-3.8 4.3-3.6.2.2-.8 2.2-2.2 4.4-2.6 4.1-2.5 5.2.4 5.2 1.7 0 5.7 3.6 4.9 4.4-.2.2-2.8 1.3-5.7 2.4-4.5 1.7-5.3 1.8-6 .5-.7-1.2-1.2-1-2.6 1.2-1 1.4-4.9 6-8.8 10l-7 7.4 2 3.3c3 4.9 4.6 14.7 4.7 28.3 0 10.4.3 12.5 2.2 16.1 2.6 4.9 9.9 11.7 22.9 21.5 5.3 4 12.1 9.5 15.2 12.4 5.4 5 10.9 8.5 13.2 8.5.7 0 1-23.6 1-76V0H0z"/><path d="M428.6 137.5c.3.8-.1 2.3-.9 3.5-1.3 1.8-.7 3.8 5.8 21.3 4 10.5 7.5 21 7.8 23.2 4.7 32.1 4.9 32.7 8.2 36.4 1.8 2 5.4 7.2 8.1 11.6 2.6 4.4 9.2 12.9 14.6 19 13.6 15.4 18.2 22.4 20.6 31.5 1.1 4.1 3.6 13.3 5.6 20.5 3.6 13 4.9 25.5 2.5 25.5-.5 0-.8-.4-.5-.9s-.1-1.1-.9-1.5c-1.1-.4-1.5.2-1.5 2.7-.1 2.8-.2 3-1.1 1.3-.8-1.2-1.4-1.5-1.8-.7-.4.6-2.3-1.4-4.6-4.9-2.1-3.3-4.2-6-4.7-6-1.2 0-1 .6 1.7 6 3.1 6.1 3.1 7.1.2 9.8-1.6 1.5-5.5 2.7-13.2 4.2-12.1 2.4-14.1 3.5-23.2 12.7l-5.1 5.3-7.9-.6c-11.8-1-16.1-1-17.4.3-1.1 1.1-.5 8 1.7 22.5l.6 3.8H512l-.1-91.3v-91.2l-2.2 4.7c-1.2 2.6-3.5 5.7-5.2 7-1.6 1.2-2.5 1.6-2 .9.6-1 .1-1-1.6.2-2.5 1.8-4 2.2-3.8.9.4-2.2-.3-3-2.3-2.4-1.7.4-2 .2-1.5-1.1.4-1.1.1-1.7-.8-1.7-1.1 0-1.2-.5-.5-2.6.6-1.4 1-3.5 1-4.6v-2.1l-1.9 2.1c-2.5 2.9-3.1 2.8-3.1-.7 0-4.2-1-6.6-2.1-4.9-.6.9-.9.8-.9-.7 0-1.1-1.3-4.7-3-8-1.6-3.3-3-6.5-3-7.1s-.9-1.9-1.9-2.8c-1.1-1-2.3-3.1-2.6-4.7-.8-3.4-4.4-8-8.8-11.1l-3.2-2.3 3.2 4c3.5 4.2 3.6 6 .1 2.9-2.1-1.9-2.1-1.9-1.4.1.4 1.1-2.3-.9-5.9-4.5-6.4-6.3-6.5-6.4-5-2.8.8 2.1 1.5 4 1.5 4.3 0 1.2-17.7-17.2-21.9-22.8-4.4-5.8-5.5-6.8-4.5-4.2M510 158c0 .5.5 1 1 1 .6 0 1-.5 1-1 0-.6-.4-1-1-1-.5 0-1 .4-1 1"/><path d="M417.6 170c.9 4.4.9 8.1-.1 20.2l-.8 9.7 6.8 3c3.8 1.7 7 3 7.1 2.8.2-.2-1.2-5.1-3.1-11-1.9-5.8-3.5-11.7-3.5-12.9-.1-1.3-1.7-5.2-3.6-8.8-2.9-5.4-3.4-5.9-2.8-3m-325.9 2.5c-.4.8-.2 1.7.3 2 .6.4 1-.3 1-1.4 0-2.5-.6-2.7-1.3-.6m310.5 9c0 2.2.3 4.9.8 6 .7 1.7.9 1.5.8-1 0-1.7-.4-4.4-.8-6-.7-2.9-.8-2.8-.8 1M16.5 220c-.4 1.7-.5 3.4-.2 3.6.2.3.7-1 1.1-2.7.8-4.2 0-5-.9-.9m376 144.2c-.3 2.4-.5 7.7-.3 11.8l.3 7.5 7.7.3 7.7.3-.9-2.8c-.5-1.5-1.9-6.3-3.1-10.6-2.3-8-2.5-8.2-8.6-10.1-1.9-.6-2.2-.2-2.8 3.6m-283.7 9.2c-4.7 1.4-5.5 2.3-6.3 6.9l-.7 3.7H114v-6c0-3.3-.3-6-.7-5.9-.5.1-2.5.6-4.5 1.3"/></svg>