<svg xmlns="http://www.w3.org/2000/svg" width="682.667" height="512" version="1.0" viewBox="0 0 512 384"><path d="M0 192v192h85l.5-2.3c.2-1.2.6-4 .7-6.2.3-3.9.2-4.1-4.7-6.4-4.2-2.1-6.3-2.5-12.7-2.3-8.6.2-9.8-.6-11.3-7.6-1.1-5.4-5.4-7.4-14.1-6.6-6.4.5-7.3.4-9.1-1.5-1.7-1.9-2.1-1.9-3.9-.6-1 .8-2.6 1.5-3.6 1.5-2.2 0-3.3-6.6-1.9-11.7.6-2.1 1.1-5.5 1.1-7.6 0-2 .4-3.7 1-3.7.5 0 1.9-1.8 3-4 2.2-4.3 2.5-5.4 1.1-4.5-.5.3 0-1.3 1.2-3.5 1.4-2.4 2.9-4 4.1-4 1.3 0 1.7-.5 1.3-2-.3-1.1 0-1.8.7-1.7.6.1 1-.8.9-1.9-.1-1.2.8-3.3 2.1-4.7s2.1-2.9 1.7-3.3q-.45-.6.6 0c1.5.8 8.9-7.9 8.5-10-.2-.9 3-5.9 7.1-11.2 15.8-20.6 28.4-42.9 27.2-48.3-.4-1.9.4-5.9 2.4-12.1 1.7-5.1 4-14.5 5.1-20.8s2.8-13.4 3.7-15.8c.9-2.3 1.4-4.4 1.1-4.7-.2-.2-2 0-3.9.6-2.9.9-4 2.2-7.2 8.2-2.1 4-3.7 8-3.7 9 0 1.1-2.9 9.7-6.5 19.2-3.6 9.6-6.5 18-6.5 18.7 0 .8.6 2.3 1.4 3.4s1.8 4.8 2.2 8.2c.6 5.3.4 6.3-1.1 6.8-1.6.6-2.9-.4-3.8-3-.2-.5-1.2-.4-2.3.2-2.5 1.3-7.5 15.3-5.7 15.9 1.6.6 1.7 3.4.2 3.1-.6-.2-2.1 1.5-3.4 3.7-1.2 2.1-2.7 4.1-3.2 4.2-1.1.4-2.3-9.6-2.3-18.4 0-3.2 1.1-8.1 2.9-13 2.5-6.8 7.1-25.1 7.1-28.3 0-2.3-1.7-.8-2.9 2.6-.7 1.9-1.4 3.4-1.6 3.2-.1-.2.6-4.8 1.6-10.3s1.8-11.1 1.8-12.5c0-2.4 0-2.4-1.4.5-1.1 2.4-1.4 2.6-1.5 1-.2-4.1-3.9 5.1-6.2 15.8s-3.8 13.5-3.8 7.4l-.1-3.2-1.6 3-1.6 3-1.4-3.5c-1.2-3.3-1.2-3-.7 3.9.7 7.9-.2 8.7-3.1 3-1.8-3.4-3.5-3-3.5.7 0 1.4-.4 2.2-1 1.9-.5-.3-1-2.3-1.1-4.3v-3.7l-1.7 2.4c-.9 1.3-2.2 3.8-2.8 5.5-.7 1.9-1.7 3-2.7 2.8-.8-.1-1.7.5-1.9 1.5-.3 1.1-.9-.1-1.5-2.7l-1.1-4.5-.1 4c-.2 5.2-1.5 7.6-2.5 4.3-.5-1.4-.9-1.8-1.3-1-.4.9-1 .7-2.2-.7-1-1.2-2-1.8-2.4-1.5-.3.3-1-2.7-1.7-6.7-1.1-6.4-.9-9.4 1.3-26.9 3.1-24.4 4.4-27.1 23.5-52.8 14.1-18.8 16.5-25.8 14.5-41.9-1.1-9.1-.5-15.8 2.2-23.5 1.7-5 .3-6.4-5.1-4.9-3.1.9-4.5.7-7.4-.7-5.3-2.6-5-5 1.3-11.9 5.3-5.6 5.4-6 4.1-8.4-.9-1.8-3.6-3.6-8.1-5.5-3.7-1.6-9.2-4.3-12.2-6.1S21.3 41 20.8 41c-.4 0-.8-.4-.8-.9 0-.9 7.1.9 22.5 5.5 4.4 1.3 8.7 2.4 9.6 2.4s2.4.9 3.4 2c1.6 1.7 2 1.8 3.4.6 5.4-4.6 14.4-6.1 17.4-2.8 2.3 2.5 2.1 4.8-.4 8.3-3.4 4.9-2 6 4.7 3.7 5.4-1.8 6.1-1.9 12.7-.4 8.3 1.9 17 5.7 14.4 6.3-1.6.4-1.6.6.3 3 2.1 2.7 2.8 10.7 1 11.8s-1.1 2.3 2.1 3.4c2.1.7 2.9 1.5 2.6 2.6-.4.8 0 3.9.8 7 2 7.4 2 7.3-2 9.6-4.1 2.5-4.7 6.5-1.5 9.4 1.2 1 1.9 2.4 1.6 3-.2.7 2.9 3.6 7 6.5 5.4 3.9 8.2 6.7 10.3 10.6 1.7 2.9 5.2 7 7.8 9.1 10 8 12.3 11 12.3 15.9 0 2.7-.9 6.1-2.2 8.7-2.1 3.9-2.3 5.5-2.2 19.7v15.5l10.1 40.5c5.6 22.3 10.4 42.3 10.8 44.5.3 2.2 1.5 6.8 2.7 10.2 1.1 3.4 1.8 7.2 1.5 8.5-.4 1.2 0 2.9.7 3.8 2.3 2.6 3.7 17.6 3 32.5-.7 15.3-1.2 16.5-6.8 16.5-3.8.1-5.5 1.3-8.5 6.3-3.4 5.5-4.9 6-16.6 5.2l-10.3-.7-.6 2.8c-.3 1.6-.8 5-1.2 7.7l-.6 4.7H379l-.5-3.8c-1.2-8.7-2.5-19.4-2.5-20.4 0-.6-1-.8-2.6-.4-4.9 1.3-9.4-.5-14.5-5.5-3.4-3.4-5.9-5-8.6-5.5-6.1-1.1-6.6-1.9-5.9-9.5.6-5.4.4-6.8-.9-7.9-1.5-1.3-1.4-1.5.7-3.2 2.3-1.8 2.3-1.8.3-3.3-1.5-1.2-2-2.9-2.1-8.3-.2-3.7 0-5.7.2-4.5 1 4.3 2.9 1.3 3.2-5 .1-3.4.4-7.3.6-8.7.1-1.4.1-1.9-.1-1.2-.8 2.2-2.3.2-2.3-3.1.1-3.6 1.2-8.9 6.3-29.2 2-7.7 4.5-21.4 5.7-30.5s3-21.2 4-27c3.7-20.7 4.2-25.7 3.8-36.5-.3-9.7-.6-11.6-3-16.2-4.6-8.8-3.6-11.7 7.4-21.2 4-3.5 8.9-8.9 10.9-12 2.3-3.5 6-7.3 9.9-10.1 3.4-2.5 7-5.2 7.9-6s1.2-1.2.7-.8c-2.4 1.9-2.5.5-.2-2.5 3.5-4.5 3.3-6.8-.9-10.6-2.6-2.3-3.4-3.7-3-5.4.3-1.2.6-3.2.8-4.4s.6-2.6 1-2.9c.4-.4.7-2 .7-3.5 0-2.1.5-2.8 2.3-3.1 1.7-.2 2.1-.8 1.9-2.8-.9-7-.4-10.1 2.3-13 1.2-1.4 1.4-2 .5-2-3.1 0 4-4.2 10.3-6.2 7.7-2.3 12.6-1.8 20.8 2.2l4.1 1.9 5.2-5.2c9.5-9.5 13.6-13.1 14.1-12.5.3.2-2.9 5.2-7 10.9-4.2 5.7-7.1 10.5-6.5 10.7s3.5-1.8 6.4-4.4c5.8-5.3 7.5-7.7 4.9-6.7-2.8 1.1-.9-2.1 2.8-4.4 7.5-4.9 10.3-7 14.5-10.7 4.8-4.2 5.5-3.9 2.3 1.3-1.1 1.8-1.9 3.4-1.7 3.5s1.6.6 3.3 1.2c4.9 1.6 4.3 3.8-1.6 6.3-3.1 1.2-5.5 1.7-5.9 1.2-.3-.5-4.7 3.5-9.8 9.1-8.5 9.1-9.2 10.1-7.8 11.6 3.8 4.3 7.2 20.7 5.6 27.7-1.2 5.4-.1 13.4 2.6 18.7 2.1 4.3 7.1 8.7 16.4 14.5 4.1 2.6 8.9 5.7 10.6 7s3.4 2.3 3.8 2.3c1.2 0 11.8 8.1 16.8 13l4.8 4.6V0H0zm344.8 112c0 .9-.3.7-.8-.5-.5-1.1-.8-2.9-.8-4 0-1.6.2-1.5.8.5.4 1.4.8 3.2.8 4"/><path d="M426.5 142.2c-.3.7 2.7 9.4 6.5 19.3 6.6 17 7.2 19.1 10.1 37.5 2.8 17.3 3.4 19.8 5.9 23 1.5 1.9 5.3 7.7 8.4 12.8s9.6 13.9 14.5 19.6c13.3 15.5 16.7 21 19.1 30.7 2.8 11.4 3.9 15.4 6.2 22.4 1.1 3.3 2.2 10 2.5 15l.4 9-2-2.5-2.1-2.5-.1 3.5c0 1.9-.3 2.9-.6 2.2-.2-.6-.9-.9-1.4-.6-1.2.7-5.3-3.5-7.4-7.7-.9-1.6-2-2.9-2.5-2.9-1.3 0-1.3.1 1 5.1 4.4 9.7 1.5 12.8-13.5 14.9-10.3 1.4-11.4 2-20.8 10.8l-6.9 6.5-8.7-.8c-10.5-.9-14-1-14.8-.2-.5.6 1 15.2 2.4 23.5l.5 3.2H512V208.5l-3-1.7c-1.7-1-3-2.5-3-3.7 0-2.5-2.2-3.2-3.7-1.2-1.1 1.4-1.2 1.3-1.3-.7 0-3.3-2-6.8-3-5.3-.5.8-1.6-.3-3.4-3.3-1.5-2.5-3.2-4.6-3.8-4.6s-.9-.3-.5-.6c.7-.7-5.9-9.7-6.7-9.2-.3.2-1.8-1.7-3.4-4.2-2.6-4.1-3.8-4.9-12-8.1-5.1-2-9.2-3.5-9.2-3.3s1.1 2 2.5 4c2.9 4.2 3.3 6.3.8 4.3-1.5-1.2-1.6-1.2-1 .5.4 1-2.2-1.3-5.9-5.3-3.7-3.9-6.9-7-7.2-6.7-.2.3.3 2.3 1.2 4.6.9 2.2 1.3 4 1 4-1.4 0-12.8-12.9-17.5-19.8-2.7-3.9-5.2-7.2-5.5-7.2-.2 0-.7.6-.9 1.2"/><path d="M416.6 169.1c.5 1.3.8 9 .6 17.1-.2 11.4.1 14.8 1 14.8.7 0 3.9 1.3 7.1 2.9 3.1 1.5 5.7 2.6 5.7 2.5s-1.6-4.9-3.5-10.7c-1.9-5.7-3.5-11.5-3.5-12.8 0-2.8-5.2-14.3-7-15.4-.9-.6-1-.1-.4 1.6m-322.6 4c0 1.1.5 1.7 1 1.4.6-.3 1-1.3 1-2.1s-.4-1.4-1-1.4c-.5 0-1 .9-1 2.1m308 10c0 2.4.5 5.1 1 5.9.7 1 .8-.2.4-4-.8-6.9-1.4-7.7-1.4-1.9M16.7 216.3c-.4 1-.7 2.8-.6 4 0 2.1.1 2.1 1-.2.5-1.4.8-3.2.7-4-.3-1.3-.5-1.3-1.1.2m375.5 155.9.3 11.3 7.7.3 7.7.3-.9-2.8c-.4-1.5-1.8-6-2.9-9.8-1.8-6.3-2.4-7.3-5.6-8.8-6.5-3.1-6.6-3-6.3 9.5m-282.9 1.1c-3.8.9-4.4 1.4-5.8 5.5-.8 2.5-1.5 4.7-1.5 4.9s3.2.3 7 .3h7v-6c0-6.5.2-6.4-6.7-4.7"/></svg>