<svg xmlns="http://www.w3.org/2000/svg" width="682.667" height="512" version="1.0" viewBox="0 0 512 384"><path d="M0 192v192h88.8l1.1-6.3c.6-3.5 1.1-6.9 1.1-7.6 0-2.1-6.7-4.1-13.9-4.1-3.8 0-7.6-.3-8.5-.6s-2.3-3.1-3.2-6c-.9-3.3-2.4-6-3.7-6.9-1.2-.7-6.2-1.7-11.2-2-6.5-.5-9.8-1.2-11.7-2.6-2.6-1.8-3-1.8-5.7-.4-4.2 2.1-4.6 2-5.9-2.1-.9-2.9-.7-4.5.9-9.1 1-3.1 1.7-6.4 1.4-7.3-.3-1 1.2-3.5 4-6.5 2.5-2.8 4-5.1 3.5-5.3-.6-.2-1-.8-1-1.4 0-1.5 3.6-5.8 4.3-5.1 1.1 1 3.8-1.9 3.3-3.4-1.1-2.7 2.1-6.5 11.9-14.3 4.3-3.4 5.3-4.6 4-5-1.9-.7-1.1-1.9 8.5-13 7.3-8.5 13.8-17.3 19.5-26.5l4.7-7.4-2.1-5.6c-2.8-7.3-2.6-12.2.4-19.8 1.4-3.4 4.3-12.4 6.5-20 2.2-7.7 4.5-14.6 5.1-15.3 1.3-1.6.6-3-.9-2-1.6 1-7.7 12.8-9.1 17.6-.7 2.5-4.7 11.6-8.7 20.2l-7.5 15.7 2 4c1.2 2.2 2.4 6.5 2.7 9.5.6 5.3.6 5.6-1.6 5.6-1.3 0-2.4-.8-2.7-2-.3-1.1-1.4-2-2.4-2-2 0-6.7 8.2-8.9 15.7-.7 2.2-2.8 5.6-4.7 7.4-4.8 4.5-5.6 3-4.9-10.4.5-10.1.8-11.3 5-20 2.4-5 5.3-12.4 6.4-16.2C69.3 215 77 187 77 186.4c0-.3-.8 0-1.8.5-1.1.6-3.2 5.2-5.6 12.5-2.1 6.4-4.2 11.6-4.6 11.6s-1.3 1.4-1.9 3.2c-1.8 5.1-2 2.8-.5-5.7.8-4.4 1.2-9.4.8-11-.4-2.4-.3-2.7.6-1.5s1.1 1.2.8.1c-1.6-5.7-6.4 2.8-10 17.7-2.4 9.5-3.8 11.7-3.8 5.7v-3.4l-2.5 2.5c-1.7 1.7-2.5 3.6-2.5 5.9 0 4.5-1.6 4.5-3.7 0-1.7-3.5-3.3-4.6-3.3-2.2 0 .7-.6 2.2-1.4 3.3-1.3 1.7-1.4 1.5-1-2.6l.6-4.5-2.1 2.5c-1.1 1.4-2.6 4-3.2 5.7-1 3.1-2.9 4.5-2.9 2.3 0-.6-.4-1-1-1-.5 0-1 .7-1 1.6 0 2.3-2 .6-2.1-1.9-.1-1.2-.6-.2-1.1 2.2-.6 2.9-1.3 4-1.8 3.1-.4-.7-1.3-.9-1.9-.6-.6.4-1.1 0-1.1-.8 0-.9-.7-1.6-1.5-1.6-1.6 0-2-1.5-3-9.8-.5-4.9.1-10.2 2.7-22.7.5-2.8 1.8-8.9 2.8-13.7 2.2-10.7 6.2-17.4 20.4-34.1 12.9-15.1 18.2-22.6 20.1-27.9 2.1-6.1 2.8-15.6 1.6-20.8-1.1-4.7.5-14.9 3.4-21.7 1.9-4.4.3-5.6-6.5-4.7-4.5.6-5.4.4-7.5-1.6-1.4-1.3-2.5-2.8-2.5-3.5 0-.6 2.7-3.7 5.9-6.9l5.9-5.8-1.7-2.9c-1.1-2.1-3.7-3.8-9.1-6-8.5-3.5-17.7-9.2-16-9.7 1.4-.5 15.5 3.2 22.5 5.9 2.8 1 6 1.9 7.3 1.9 1.2 0 3.1.9 4.2 2 1.9 1.9 2 1.9 6.2-.5 5.3-3 11.7-3.3 14.1-.7 2.2 2.5 2.1 4.4-.4 7.6-2.9 3.7-1.9 6 2.3 4.9 1.8-.4 5.8-.8 8.8-.7 8.6.1 23 5.5 19.8 7.5-.9.6-.8 1.2.6 2.7 2.2 2.6 2.9 10.9.8 11.7-2 .7-1 2.8 1.7 3.5 2.4.5 2.6 1.1 3.3 13 .3 4 0 4.6-2.9 6.5-1.8 1.1-3.2 2.8-3.3 3.8 0 2 4.9 11.7 5.9 11.7 2.1 0 12.4 9 14.2 12.5 2.7 5.1 4.1 6.7 11.4 12.8 3.2 2.7 6.8 6.1 7.8 7.4 2.6 3.2 2.5 8.9-.1 13.3-2.8 4.9-4.6 16.8-3.8 25.8q1.2 13.35 7.5 37.2c3.8 14.2 12.7 52.9 13.6 59 .4 2.5 1.4 6.9 2.2 9.8s1.2 5.9 1 6.7c-.3.7-.3 1.6 0 1.9.7.7.8 1.3 2.1 12.5 1 7.6.1 37.5-1.1 38.7-.3.3-2.7.9-5.2 1.2-3.4.3-5.1 1.1-6.3 2.9-.9 1.4-3 4.1-4.7 6l-2.9 3.6-7.6-.8c-4.1-.4-9.3-.8-11.4-.9l-3.9-.1-1.7 7.8-1.7 7.7h123.4c98 0 123.3-.3 123.3-1.3-.1-2.5-4-25-4.5-25.5-.2-.3-3.1.1-6.4.8s-6.8.9-7.8.5c-1-.5-2.4-.7-3.1-.6-.8.1-4-2.3-7.2-5.3-3.4-3.2-6.8-5.6-8-5.6-5.7 0-7.3-3.9-5-12 .6-2.2.6-3.8 0-4.4-1.5-1.5-1.2-4.9.4-4.3 1 .4 1.2 0 .9-1.4-.3-1-.9-1.9-1.3-1.9-1.2 0-2.2-6.5-1.4-9.4.3-1.5 1.1-2.3 1.9-2 1 .4 1.5-.7 1.9-3.8 1.2-9.5 1.4-14 .5-12.7-.6 1.1-.9 1-1.5-.4-1-2.6.1-7.6 5.1-25.2 2.6-8.7 5.7-22.6 7.1-30.9 3.2-19.7 5.9-35.9 8-47.1 1.1-6.4 1.5-12.4 1.1-21-.4-10.4-.8-12.8-3.1-17.8-4.3-9-3.9-9.8 11.2-24 3.4-3.2 7.1-7.4 8.1-9.5 1.2-2.2 4.6-5.6 8.8-8.6 4.6-3.4 7.6-6.4 9.1-9.3 3.1-6 2.8-8-1.4-10.5-3.3-2-3.5-2.3-2.9-5.7.4-2 .8-4.3.9-5.1.2-.8.5-2.2.9-3 .3-.8.5-2.4.4-3.5-.1-1.4.5-2.1 2.1-2.3 2.5-.4 2.9-2.5.8-4.4-1-.9-1.1-2-.4-3.7.5-1.4.7-3 .4-3.7s.4-2 1.4-2.9c1.1-1 1.8-2.1 1.5-2.5-1-1.6 3.7-4.8 10.2-6.9 6.1-2 7.7-2.1 12.6-1.2 3.1.6 7 1.7 8.7 2.6l3.1 1.6 9.5-9.6c5.3-5.2 10-9.5 10.6-9.5.5 0-2.5 5-6.7 11.1-4.1 6.2-7.3 11.4-7 11.7.7.7 11.5-9.9 11.5-11.3 0-.5 1.6-2.1 3.6-3.4 2-1.4 4-3.5 4.5-4.8s1.5-2.3 2.3-2.3 3.5-2.4 6-5.2c4.9-5.6 5.9-5.2 2.6 1.1-2 4-1.8 5.1 1 5.1 1.7 0 5.7 3.6 4.9 4.4-1.1 1.2-11.2 4.4-12.3 4-.7-.3-2.5 1.1-4 3.1-1.5 1.9-4.9 6-7.7 9.2-2.7 3.1-4.9 6-4.9 6.5s.9 2.1 2 3.6c3 4.1 4.9 15.4 4.8 28.2-.2 12.6 1.9 20.9 6.4 25.8 3 3.2 11.5 8.9 21.3 14.2 12.6 6.9 19.6 11.8 24.7 17.3l4.8 5.2V0H0zm341 106.6c0 .8-.4 1.2-1 .9-.5-.3-1-1.3-1-2.1s.5-1.2 1-.9c.6.3 1 1.3 1 2.1"/><path d="M411.4 159c.3 1.4.6 3.1.6 3.7 0 .7.5 1.3 1 1.3 1.5 0 1.2-3.4-.6-5.6-1.5-1.8-1.5-1.8-1 .6m-1.4 5.5c0 .2.9 2.8 1.9 5.7 1.1 2.9 2.7 8.9 3.6 13.3 2.8 13.1 4.6 18.6 6.3 19.2 1 .4 4.1 2.1 7 4 2.9 1.8 5.4 3.3 5.6 3.3s-2-6-5-13.3c-3-7.2-5.4-14.1-5.4-15.1 0-1.5-6-13.8-7.5-15.4-.5-.5-6.5-2.1-6.5-1.7m-307 8.4c-.6 1.1-.6 2.2-.1 2.5s1.1-.5 1.3-1.9q.9-4.5-1.2-.6m337.6 4.1c.8 6 7 33.8 8.8 39.9.8 2.7 2.8 7.9 4.4 11.7 1.7 3.8 3.4 8.6 3.7 10.7.5 2.5 3.7 7.9 9.7 15.9 9.4 12.8 15.3 22.6 16.8 27.9.5 1.7 1.4 6.4 1.9 10.4.6 4 2.1 11.1 3.5 15.7 2.7 9.5 4.1 19.6 3.1 22.8-.7 2.1-.7 2.1-2.7.4-1.9-1.8-1.9-1.8-1.3.9.4 1.5.4 2.7-.1 2.7-1.9 0-7.4-4.7-9.5-8.2-3.3-5.3-4.2-4.7-1.9 1.2 4 10.1 2.2 12.4-10.5 13.4-10.6.8-13.7 2.1-22.2 9.9l-6.6 6-7.8-.6-7.7-.6.8 3.7c.4 2 1.4 8.1 2.1 13.4l1.3 9.8H512V191.5l-6.2-4c-3.4-2.2-6.9-3.9-7.6-3.7-.8.2-1.1-.1-.8-.6.3-.6-.2-.8-1.4-.5-2.3.6-2.5 1.4-.7 3.2 1 1.1.9 1.3-.1.7-.6-.4-.3.9.9 2.8q2.1 3.6.9 3.6c-1 0-1 .3 0 1.5 1.5 1.8 0 2-2 .2-.8-.7-.7-.2.3 1.3 5.8 8.9 6.5 11.2 2.1 7.2-3-2.6-14.3-11.2-14.9-11.2-.2 0 .6 2 1.9 4.4s2.6 5.6 3 7.1c.6 2.4-.1 1.9-5.3-3.4-6.4-6.4-11-8.7-5-2.5 2.5 2.7 2.8 3.4 1.2 2.5-1.3-.6-2.3-1.6-2.3-2.1 0-.6-.6-1-1.3-1s-4.8-3.9-9.1-8.6c-5-5.5-8.2-8.2-8.8-7.6s-.5 1.8.3 3.3l1.2 2.4-2.4-2c-1.6-1.4-1.2-.4 1.5 3.5 3.5 5 2.8 4.5-6.8-5l-10.7-10.5zm-40.2 8.4c1 4.2 3.5 10 4.1 9.4.5-.4-3.3-10.9-4.2-11.8-.3-.3-.3.8.1 2.4M113.9 191c-8.3 17.6-9.9 21.3-9.9 23 0 3.4 1.6 2.2 5.7-4.3 5.4-8.6 6.5-11.7 6.1-17.3l-.3-4.9zM44 306.1c0 .5.5.7 1 .4.6-.3 1-.8 1-1.1 0-.2-.4-.4-1-.4-.5 0-1 .5-1 1.1M401.5 362c-1.1.5-3.2.9-4.7.9-2.7.1-2.8.3-2.8 6 0 3.2.3 7.9.6 10.5l.7 4.6h7.9c7.1 0 7.9-.2 7.4-1.8-3.7-12.7-5.9-19.8-6.5-20.3-.3-.4-1.5-.3-2.6.1m-288.4 11.4c-4.4 1.1-5 1.9-6.5 7.8l-.6 2.8h14v-6c0-6.6.1-6.5-6.9-4.6"/></svg>