<svg xmlns="http://www.w3.org/2000/svg" width="682.667" height="512" version="1.0" viewBox="0 0 512 384"><path d="M0 192v192h90.8l.6-4c1.8-12.5 1.9-11.5-.9-12.8-1.4-.7-5.6-1.2-9.3-1.2-7.7 0-10.6-1.5-11.6-5.7-1.2-5-2.8-8.1-4.4-8.9-1-.4-6.1-1-11.4-1.3-8.4-.6-10.1-1-12.3-3.1-2.5-2.3-2.6-2.3-6-.7-4.8 2.3-5 2.2-6.3-1.9-.9-3.1-.8-4.5.9-8.8 1-2.8 1.9-6.6 1.9-8.4 0-2 .6-3.5 1.5-3.8.8-.4 1.2-1.1.8-1.7-.3-.5-.2-.7.4-.4.5.4 2.3-.7 3.8-2.3 1.6-1.7 2.3-3 1.7-3-2.1 0-1.3-2.8 1.3-4.8 1.3-1.1 2.1-2.2 1.7-2.6-.3-.4.1-.4 1-.1 1.9.8 4.9-3 4.1-5.2-.6-1.5 5.2-8.3 7.1-8.3.6-.1 3.1-1.9 5.6-4 4-3.6 4.2-4 2.2-4h-2.3l2.3-2.9c1.3-1.5 5.8-6.8 10.2-11.7 9-10.2 22.6-30.2 22.6-33.3 0-2.3-1.5-2.9-2.3-.9-.6 1.7-3.5-5-4.3-9.9-.5-3 .2-6 2.9-13.3 2-5.2 5-14.2 6.8-20 1.7-5.8 3.4-11.2 3.7-12 .2-.8-.8.2-2.3 2.3-1.4 2.1-3.5 6.6-4.7 9.9-1.1 3.4-5.2 13-9.2 21.3-7.1 14.8-7.3 15.3-5.8 18.1 1.7 3.2 4.2 15.1 3.4 15.9-1.4 1.3-4 .2-5-2-2.3-4.9-6.3-.3-11.2 12.9-1.4 3.7-3.2 6.3-5.7 8.2-3.4 2.6-3.7 2.6-4.9.9-1-1.3-1.2-4-.8-9.9.7-10 1.6-13.2 6.5-22.2 5.4-9.8 8.2-18.5 11.8-35.7 3.4-16.5 3.5-16.7 2.2-16.7-.5 0-2.3 3.7-4.1 8.2-2.9 7.9-10.1 23.1-10.6 22.6-.1-.2.5-3.7 1.3-7.8s1.6-9.7 1.7-12.4l.2-4.8-2.1 2.7c-2.2 2.7-7.8 18.1-9 24.7-.4 2.1-1.2 3.5-1.7 3.2-.5-.4-.8-1.7-.5-3 .5-3-.6-3.9-2.3-1.9-.7.8-1.7 1.2-2.3.8s-.8 1-.5 4.1c.7 5.6-.7 5.7-3.8.2l-2.1-3.8-1.1 3.1c-.6 1.7-1.6 3.1-2.1 3.1-.7 0-.7-.8-.1-2.6 2.9-7.6-.5-6.2-4.4 1.9-2.3 4.7-2.6 5-3.2 2.8l-.7-2.3-1.3 2.3-1.3 2.4-.1-2.8c0-1.6-.4-2.6-1-2.2-.6.3-1 1.9-1 3.5s-.5 3.2-1 3.5c-.6.3-1 0-1-.8s-1.1-1.8-2.5-2.1c-3.9-1-4.8-3.9-4.2-13.5.6-8.8 1.8-15.4 5.8-32.1 2.8-11.9 7.5-19.2 23.9-37.5 6.3-7.2 13-15.1 14.8-17.7 4.7-6.8 6.6-15.3 5.8-25.8-.5-6.9-.2-9.9 1.5-16 1.1-4.1 2.1-8.6 2.2-10 .2-2.4 0-2.5-5.1-2.2-5.7.3-8.6-.8-10.2-3.9-1-1.7-.3-2.8 4.9-8.2l6-6.3-1.8-3c-1.3-2.1-3.5-3.6-7.4-5.1C50.4 45 38 38 38 36.7c0-1.4 11.4 1.6 24.8 6.4 3 1 6.1 1.9 7 1.9s2.5.9 3.7 2c2.1 1.9 2.1 1.9 7-.5 6.1-3.1 10.7-3.2 13.5-.3 2.6 2.8 2.5 4-.5 7.6s-2.5 6.7.9 5.5c1.1-.4 5.5-.8 9.6-.8 6.4 0 8.5.5 14.4 3.3 5.3 2.5 6.7 3.5 5.8 4.4s-.8 1.6.4 2.9c1.6 1.8 1.6 9.5.1 12.9-.5 1.1.1 1.9 2 2.6 2.8 1 2.8 1.2 2.8 9.4s0 8.3-3 10c-6.2 3.4-3.3 10.3 7.9 18.4 4.5 3.4 7.5 6.5 9.5 10.1 1.8 3.2 5.7 7.6 9.8 11 3.7 3.1 7.6 6.8 8.7 8.2 2.5 3.2 2.4 8.8-.2 13.8-1.2 2.2-2.7 7.5-3.4 11.8-1.7 11.2-.2 21.3 8.6 57.1 4.1 16.6 8.6 35.7 10.1 42.6s3.3 15.3 4.1 18.8c.8 3.4 1.2 7.2.9 8.2-.4 1.2-.2 2 .4 2s1.1.5 1.1 1.1c0 .5-.4.7-1 .4-1.5-.9-1.2 1.2.7 4.8 1.3 2.6 1.6 5.9 1.4 18.2-.1 8.2-.5 17.5-.9 20.5-.8 5.8-.5 5.6-9.2 7.4-1.7.4-3.4 2-4.9 4.6-3.3 5.9-6 7.4-12.4 6.6-2.8-.3-8-.9-11.3-1.2l-6.2-.7-1.6 7.1c-.9 3.9-1.6 7.6-1.6 8.1 0 .8 37.4 1.1 122.5 1.1 97.4 0 122.5-.3 122.5-1.3-.1-.6-1.1-6.6-2.3-13.2l-2.2-12H356l-5.3-5.1c-4.1-4-6.3-5.3-9.6-5.9l-4.4-.7.6-7.9c.4-4.9.3-7.9-.3-7.9s-1-.9-1-2c0-1.2.7-2 1.6-2 1 0 1.4-.7 1.2-1.8-.2-.9-1-1.6-1.7-1.4-.7.1-1-.2-.7-.7.4-.5.2-2.1-.3-3.4-1.2-3.1-.1-7.2 1.9-7.2 1.1 0 1.7-1.7 2.2-6.5.4-3.6 1-7.5 1.3-8.7.3-1.3.1-2.3-.5-2.3-.5 0-1 .8-1 1.7 0 1.1-.3 1.4-1 .7-1.4-1.4.1-8.9 5.4-27.6 4.6-16.1 6.4-24.9 9.1-43.8.9-6.3 3-18.5 4.7-27 2.5-13 2.9-17.2 2.6-27-.3-10.3-.6-12.2-3-16.9-1.6-2.9-2.8-6.9-2.8-8.9 0-3.3 1-4.6 10.3-13.7 5.6-5.5 10.9-11.4 11.8-13.1s4.8-5.5 8.5-8.3c7.1-5.4 12-12.5 11-15.9-.3-.9-2-2.5-3.7-3.5-3.1-1.7-3.1-1.8-2.5-7.5.4-3.1.8-7.1.9-8.7.2-2.3.7-3.1 2.5-3.3 1.9-.3 2.3-.8 1.7-2.5-1.6-5-1.5-7.4.3-11 1.3-2.3 1.6-3.7.8-3.7-2.3 0 4.9-5 10.1-7 6.8-2.5 12.8-2.5 19.6 0l5.4 2 9.3-9.5c5.2-5.2 9.7-9.5 10.2-9.5.8 0-5.5 10.8-10.5 17.7-1.7 2.4-2.7 4.6-2.3 5 .7.7 5-3.6 15.7-15.7 6.3-7.1 15.3-15.9 15.8-15.4.2.2-.4 2.3-1.5 4.6-1 2.3-1.4 4.3-.9 4.5 3.3 1.1 6 3.1 6.3 4.4.4 2.2-9.5 6.4-11.3 4.9-1-.8-1.9-.2-3.6 2.2-1.2 1.8-4.3 5.8-6.9 8.8-6.4 7.6-6.4 7.6-4.1 11.4 4 6.4 6.1 18 5.4 29.2-.5 8.7-.3 11.1 1.6 17.2 1.3 4.3 3.4 8.6 5.2 10.6 1.6 1.9 10.8 8.6 20.2 15 12.6 8.3 19.2 13.5 24.5 19l7.2 7.6V0H0zm21.5 39c.3.5.1 1-.4 1-.6 0-1.1-.5-1.1-1 0-.6.2-1 .4-1 .3 0 .8.4 1.1 1"/><path d="M411.4 160c.3 1.4.6 2.8.6 3.2 0 .5.5.8 1 .8 1.5 0 1.2-2.2-.7-4.5-1.5-2-1.5-1.9-.9.5m.2 7.7c2.9 7 3.4 8.4 5.9 18.4 4 15.5 4.7 16.8 12 21.7 3.6 2.3 6.5 4.1 6.5 3.9s-2.4-5.8-5.4-12.3-6.1-14.2-6.9-17c-2.2-7.3-7.6-16.4-10.4-17.5-3.5-1.3-3.5-1.3-1.7 2.8m63.5 11c2.1 2.6 3.9 6.1 3.9 7.5 0 .6 1.1 2.8 2.5 4.8s2.7 4.5 2.9 5.6c.3 1 .8 2.8 1.2 3.8.5 1.4.4 1.7-.4 1.2-1.3-.8-1.7.6-.5 1.8 1 1 1.1 4.6.1 4.6-.4 0-.8-.5-.8-1.2 0-.6-.3-.9-.6-.6-.3.4.2 2 1 3.7 3.1 6 1.4 5.5-4.9-1.4-3.7-4-6.5-6.4-6.6-5.5-.1.8 0 3.9.1 6.9.2 6.1-.8 6.1-3.5.1-1.1-2.4-2.1-3.6-2.5-2.9-.5.7-1.6-.1-3-2.1-2.8-3.9-3.7-3.3-1.5 1 2.9 5.7.1 2.4-4.9-5.7-8.2-13.1-10.8-16.9-10.2-14.6 1 3.3-1.1 3.7-2.8.6-2.5-4.7-1.8-1 1.4 6.8 3 7.2 3 7.3.6 4.4l-2.5-3 3 11.5c1.7 6.3 5.1 15.8 7.6 21 3.2 6.4 4.8 11.3 5.3 15.5.6 5.4 1.4 7.1 8.1 16.5 10.6 15.1 13.5 21 14.8 30.5.7 4.4 2.3 12.7 3.7 18.5 3.2 12.8 4.4 27.2 2.3 26.8-.8-.2-1.9-1-2.6-1.8-1-1.3-1.2-1-1.3 1.5 0 2.3-.3 2.7-1 1.5-.5-.8-1-1.1-1-.6 0 1.7-5.8-4.5-7-7.5-1.2-2.8-3-3.9-3-1.9 0 .6.7 2.7 1.5 4.7 1.7 4 1.9 7.1.6 9.2-.6.9-4.7 1.9-11.5 2.7-11.4 1.4-13.1 2.2-22.6 11.2-4.2 3.9-6.7 4.7-12.6 3.8-3.5-.4-4.4-.3-4.4.9 0 2.2 3 21.7 3.6 23.7.5 1.7 3.4 1.8 42.5 1.8H512l-.2-95.1-.3-95.2-8.1-4.3c-4.5-2.4-9.3-4.5-10.6-4.8-1.4-.2-5.7-2-9.6-4-8-4-10.3-4.6-8.1-1.9m-76 3.1c-.1 6.6 4.1 15.2 7.5 15.2 1.4 0 .9-1.5-4.9-14l-2.5-5.5zm-287.4 17.8c-5.6 11.8-6.7 14.7-5.7 15.9.7.8 1.6 1.5 2.1 1.5 1 0 7.6-10.1 10-15.5 1.8-4 2.7-16.5 1.2-16.5-.5.1-3.9 6.6-7.6 14.6M399 362l-4.5 1.8.3 6.9c.1 3.7.6 8.1 1 9.8.8 3 .9 3 8.5 3.3 4.2.2 7.7-.1 7.7-.5-.1-2.4-6.7-22.7-7.5-22.9-.6-.1-3 .6-5.5 1.6m-283.2 11.2c-4.4.9-4.8 1.3-6.2 5.6-.9 2.5-1.6 4.7-1.6 4.9s3.1.3 6.9.3h6.9l.6-3.1c1-5.1.7-8.9-.6-8.8-.7.1-3.4.6-6 1.1"/></svg>