<svg xmlns="http://www.w3.org/2000/svg" width="682.667" height="512" version="1.0" viewBox="0 0 512 384"><path d="M0 192v192h96.7l1.2-8c.7-4.4.9-8.5.6-9-.3-.6-3.5-1-7-1-9.4 0-11-.9-12.9-7.3-2-7-4.5-8.7-13.9-9.3-11.3-.8-13.4-1.3-16.7-4.1-3.1-2.5-3.1-2.6-7-.8-4.2 1.9-6 1.4-6-1.5 0-1-.4-2.2-1-2.5-.8-.5 1.7-8.6 3.7-11.9.4-.6.7-2.3.7-3.9.1-1.8.8-3.4 2-4.1 1.1-.6 3.2-2.2 4.8-3.5 2.5-2.2 2.6-2.5 1.1-3.6s-1.1-1.7 3.5-4.9c3.4-2.5 4.9-4.2 4.5-5.2-.6-1.6 5.6-8.8 9.2-10.6 1.1-.5.7.2-1 1.7l-3 2.7 3-2c1.7-1.1 4.8-3.7 7-5.7 3.8-3.5 3.9-3.6 1.3-3-1.6.3-2.8.4-2.8.2 0-.3 3.4-4 7.6-8.3 9.4-9.8 18.7-21.6 24.8-31.4 4.9-7.9 5.7-10.6 3-9.6-.9.4-2.3.1-3.2-.6-.8-.7-1.7-1.2-1.9-1.1-1.4 1.1-2.3-.5-3.3-5.3-1.3-6.3-.2-11.2 5.1-23 4.3-9.4 8.1-20.8 6.5-19.5-.7.6-1.6 2.5-1.9 4.1-.4 1.6-4 10.5-8.2 19.9-4.1 9.3-7.5 17.5-7.5 18.2 0 .8.6 2.6 1.4 4.1 1.8 3.5 3.9 13.5 3.1 14.8-1.1 1.8-3.4 1.1-5.1-1.5-.9-1.4-2.4-2.5-3.2-2.3s-3.8 4.8-6.6 10.3c-3.5 6.8-5.7 10.1-7.1 10.4-1.1.2-2.3.8-2.6 1.4-.4.5-1.9.7-3.4.3l-2.8-.7.6-7.7c.7-9.4 2.3-13.9 7.5-22.1 5.1-7.8 7.1-13.1 12.1-31.8 2.2-8.2 5.6-18.1 7.5-22 2-4 3.6-8.5 3.6-10-.1-2.6-6.4 9.4-15 28.4-1.3 2.9-2.5 5.1-2.7 4.9s.5-4.1 1.7-8.6 1.9-8.4 1.7-8.6c-.1-.2-2.1 3.8-4.2 8.9-3.2 7.5-4 8.8-4.5 6.8-.5-2.2-.7-2.1-2.4 1.8-3.2 7-3.5 5.6-1-5.1 1.4-5.5 2.3-10.3 2.1-10.5-1.1-1-8.3 14.5-10.8 22.9-1.4 5.2-2.9 6.3-2.9 2.4 0-5.6-3.4-3.6-4.5 2.6-.4 2.1-1.1 3.8-1.6 3.8s-.9-.1-.9-.3c0-.1-.6-2-1.4-4.1l-1.4-4-1.6 3.2c-2.1 4.1-3.8 4.2-2.5.2 2-5.7.3-5.1-3.3 1.1-3.6 5.9-3.8 6.1-4.7 3.8l-.9-2.4-1 2.5-1.1 2.5v-2.8c-.1-3.5-1.6-2.8-2.4 1.1-.4 1.8-1.2 2.8-2.5 2.9-1.5.1-1.9-.3-1.5-1.8.4-1.4 0-1.9-1.6-1.9-2 0-2.1-.5-2.1-7.8 0-9.9 1.9-18.4 9.6-43 1.8-5.7 10.2-16.7 20.9-27.2 12-11.7 20.4-22.2 22.8-28.3 1.6-4.1 2-7.4 1.9-15.5 0-8.8.4-11.7 2.9-19.4 1.7-5 2.8-9.7 2.5-10.4-.3-.8-2.8-1.4-6.7-1.6-5.2-.3-6.4-.7-7.7-2.6-1.5-2.3-1.3-2.5 4.8-8.2l6.4-5.9-1.5-3.1c-1.1-2.4-3.1-3.8-9.1-6.4-4.3-1.9-9.3-4.7-11.2-6.2-6.9-5.7-3.9-5.8 11.5-.3 6.3 2.2 12.6 4.3 14.1 4.6 1.4.3 3.6 1.5 4.8 2.8 2.2 2.3 2.2 2.3 6.3.5 7.9-3.4 10.2-3.4 13.7-.3l3.2 2.9-3.1 3.3c-1.7 1.8-3.1 4.2-3.1 5.3 0 1.8.5 1.9 6.8 1.3 5.4-.6 7.9-.3 13 1.4 7.8 2.7 15.5 7.3 12.9 7.9-1.5.3-1.6.5-.2 2.5 1.8 2.5 2 9.7.3 9.7-.6 0-.8.3-.5.6.3.4.2 1.5-.4 2.5-.7 1.5-.6 2 .6 2.4.8.3 2.2.7 3 1 1.3.4 1.4.9.5 2.5-.6 1.1-.8 2.5-.4 3.1.3.6.7 3.4.8 6.2.1 5.1 0 5.2-3.8 7s-3.8 1.9-3.2 6c.7 4.4.9 4.7 11.5 13 3.5 2.7 7 6.5 8.2 8.8 2.1 4.2 9.9 12.6 14.5 15.6 2.6 1.7 6.4 8.1 6.4 10.8 0 .9-1.1 3.5-2.5 5.8-4.7 8.2-5.7 26.7-2.1 42.7.7 3.6 3.6 15.3 6.4 26 2.7 10.7 6.6 26.9 8.7 36 2 9.1 4.5 20.4 5.6 25.2s1.7 9.9 1.3 11.3c-.3 1.4.1 5.3 1.1 8.8 1.4 5.3 1.5 8.7.8 23.9-.5 9.7-1.1 18-1.5 18.3-.3.4-2.7.9-5.2 1.3-4 .6-4.9 1.3-8.3 6.2l-3.9 5.5-5.4-.2c-3-.1-9.4-.5-14.2-.8l-8.7-.7-1.1 4.3c-.6 2.4-1.3 5.2-1.6 6.1-.2 1-.7 2.7-1 3.8-.5 2-.1 2 120.1 2H383l-.5-2.2c-.3-1.3-1.6-7-2.9-12.8-2.6-11.2-4.2-13.5-8.6-12.6-6.9 1.6-12 1.8-13.4.7-1.1-.9-1.5-.9-1.9.1-.2.8-2.2-.5-5.3-3.6-3.2-3.3-6.7-5.6-9.9-6.7l-5-1.8v-7.5c0-4.1-.3-7.8-.8-8.2-1.2-1.3-.8-3.4.8-3.4 1.9 0 2-3.6.1-4.3-1.7-.7-2.6-7.6-1.3-9.9.6-.9 1.6-1.4 2.2-1.2.8.4 1.4-2 1.9-7.5.3-4.4.9-8.8 1.3-9.8.6-1.5.5-1.6-.9-.3-.8.8-1.3 2.4-1 3.5.3 1.4.2 1.7-.6 1-1.6-1.4.1-12 4.3-28 4.1-15.5 5.9-24.7 8-41.5.8-6.9 2.9-19.9 4.6-29 2.7-14.3 3.1-18.1 2.7-28.1-.5-10.6-.8-12.2-3.8-18.3l-3.2-6.7 1.8-4c.9-2.2 4-5.9 6.8-8.2 7-5.7 9.3-8.3 13.2-14.3 2-3.2 6.2-7.3 10.7-10.8 7.2-5.4 9.7-8.9 9.7-13.7 0-1-1.6-2.5-3.7-3.7-3.2-1.6-3.8-2.4-3.6-4.8.1-1.6.3-5.5.4-8.6.3-5 .6-5.8 2.6-6.3 2.6-.6 3-2.7.9-4.4-2-1.6-1.4-8.6.9-11.1 1-1.1 1.3-2 .7-2-2.9 0 .7-3.3 7-6.5 7.9-3.9 15.1-4.6 22.3-2 2.2.8 4.1 1.5 4.1 1.5.1 0 3.6-4.2 7.8-9.4 4.2-5.1 8.3-10 9.3-10.7 1.5-1.3 1.6-1.1.9 1.6-.4 1.6-3 7-5.7 11.8-2.8 4.9-4.8 9.4-4.6 10 .4 1.3 15.9-17.6 17-20.8.5-1.3 1.6-2.7 2.6-3s3.3-2.6 5.1-5.2c3.7-5 4.7-4.6 3.1 1.3-.6 2.1-.9 3.8-.8 3.9 4.4 1.7 7.7 3.8 7.7 5 0 .8-2.3 2.6-5.1 4-4 2.1-5.4 2.4-6.5 1.4-.8-.6-1.6-1-1.7-.8-.2.2-1.6 2.4-3.1 4.9-1.6 2.5-4.6 6.8-6.8 9.6l-3.9 5.2 3 4.8c3.3 5.5 7.6 19.7 6.6 22.2-.3.9-.6 5.6-.6 10.4 0 8.6 1.8 17.1 4.8 23.3.8 1.6 10.4 11.8 21.3 22.5 12.2 12 22.5 23.1 26.8 29 3.8 5.2 7.9 10.4 9.1 11.4l2.1 1.9V0H0z"/><path d="M395.6 173.3c-1.3 4.9-.5 12.3 1.8 17.3 2 4.3 3 5.3 7.5 7.2 2.8 1.1 5.1 1.9 5.1 1.7s-3.1-6.7-6.9-14.4c-5.5-11.2-7-13.6-7.5-11.8m62 8.9c1.4 4.3 2.3 9.3 2.3 12.7-.1 3.1.4 8.1 1.1 11.1 1.4 6.3 1.4 11.3 0 11.8-.6.2-1.3 2.1-1.6 4.3-.4 2.1-1 3.9-1.4 3.9s-1.9-3.2-3.4-7c-1.5-3.9-3.1-7-3.5-7-.5 0-.8 1.5-.9 3.2-.1 2.2 1.3 5.6 3.9 10 5.1 8.4 7 14.7 6.8 21.9-.2 5.2.1 6.1 4.3 12 10.1 14.5 14.7 26.1 14.8 37.6 0 2.3.9 7.9 2 12.5 2 8.3 2.8 25.8 1.2 25.8-.4 0-1.3-.5-2-1.2-.9-.9-1.2-.7-1.2 1 0 1.5-.6 2.2-1.8 2.2-1.8 0-4.5-3.1-7.1-8.3-.8-1.5-1.9-2.7-2.4-2.7-1 0-.8 1.2 1.3 8.8 1.8 6 .8 6.8-10 7.5-9.9.6-11.1 1.2-20.8 9.9-4.6 4.2-5.8 4.8-9.7 4.8-2.4 0-4.7.4-5 1-.3.5-.1 3.6.4 6.7.6 3.2 1.5 8.8 2.2 12.6l1.1 6.7H512v-95.5c0-85.8-.2-95.5-1.6-95.5-.9 0-1.2.5-.8 1.2.5.8-.2.9-2.4.5-3.5-.7-4.3.6-1.4 2.2 1.5.9 1.5 1-.4 1.1-1.2 0-4.1-.7-6.4-1.5-3.8-1.3-4.1-1.3-3 0 2.7 3.2-4.6.5-10-3.7-2.5-2-8.3-4.8-10.8-5.4-.7-.1-5.4-3-10.3-6.3-5-3.4-9.2-6.1-9.3-6.1-.2 0 .7 3.2 2 7.2m-335.3 8.7c-2.3 4.7-5.9 11.6-7.9 15.2l-3.7 6.6 1.9 2.7c1 1.4 2.5 2.5 3.3 2.3 1.8-.3 10.4-13.9 12.1-19.1 1.3-4.1 1-14.1-.6-15.5-.5-.5-2.7 2.8-5.1 7.8m297.2-4.9c2.2 4.5 2.9 5.2 2 2-.4-1.4-1.4-3.2-2.2-4-1.2-1.2-1.1-.7.2 2m1.8 9.5c1.2 3 2.3 5.3 2.4 5.2.9-.9-1.3-8.6-2.7-9.5-1.6-1-1.6-.6.3 4.3m5.4 2.5c-2.2 6.2-1.7 7.8 2.9 11.6 2.4 2 4.7 3.5 4.9 3.2.3-.2-1.3-4-3.4-8.4-2.4-4.8-4.1-7.3-4.4-6.4m-315.6 27.7c0 1.6.3 2.2.6 1.3.3-.8 1-2.1 1.6-2.8.7-.8.5-1.2-.7-1.2-1.1 0-1.6.8-1.5 2.7m288.2 134.7c-2.3 1.2-4.4 2.4-4.8 2.7-1.1 1.2 1.6 17.3 3.2 19.1 1.2 1.4 3.2 1.8 8.5 1.8 6.1 0 6.9-.2 6.4-1.8-5.8-18.5-7.8-24.2-8.4-24.1-.4.1-2.6 1.1-4.9 2.3m-279 13.3c-2.7.4-3.4 1-4.7 5-.9 2.6-1.6 4.8-1.6 5s2.9.3 6.4.3c7.1 0 7.6-.4 7.6-7.1 0-4.2.2-4.2-7.7-3.2"/></svg>