<svg xmlns="http://www.w3.org/2000/svg" width="682.667" height="512" version="1.0" viewBox="0 0 512 384"><path d="M0 83.6c0 66.5.3 83.4 1.3 82.8.6-.4 1.9-1.3 2.8-2 3.7-3.3 30.9-13.1 59.3-21.5 24.9-7.3 32.6-11.6 46.6-26.2 21.5-22.5 34.6-34.9 39.1-37.2 4.9-2.5 19.2-4.9 26.3-4.3 3.7.3 3.9.1 5.3-3.7 1.8-5.3 1.1-7.8-4.3-13.5-4-4.3-4.4-5.1-3.4-7 1.3-2.5 2.8-2.2 11.3 2.3 5 2.6 6.2 2.9 9 2 1.8-.5 5.1-.8 7.4-.6 3.9.4 4.3.2 5.9-3.2.9-2.1 2.7-4.2 4-4.7 2.3-1.1 2.6-1.8 5.9-11.3 2.6-7.5 4.8-12.5 5.6-12.5.4 0 .9-.8 1.2-1.9.4-1.6 13.4-11.1 15.3-11.1.3 0-.5 1.5-1.8 3.2-3.8 5.1-4.4 6.5-1.7 4.2 5.1-4.4 5.1-3.5.1 2.7-4.6 5.7-9.5 13.8-11.5 19.3-.7 1.7-.6 1.8 1.7.3 1.4-.9 2.6-1.2 2.8-.7.2.6 2 .5 4.6-.2 2.3-.6 4.6-.7 5-.3s.1 1-.5 1.2c-.7.3-2.3 1.3-3.5 2.3l-2.3 1.9 4-.9c3.5-.8 6.5-.3 4 .7-4.8 1.8-15.9 8.4-15.7 9.3.3 1.4-2.3 6.3-4.2 7.9-1.4 1.2-1.3 1.7 1 4.6 1.4 1.8 3 4.9 3.5 6.9.8 2.7 2.1 4.2 6.2 6.5 8.5 5 9 5.6 7.7 8.1-.9 1.6-1.7 2-3.3 1.5-1.2-.3-4.7-.9-7.8-1.2-5.4-.5-5.7-.5-9.2 3.2l-3.6 3.7 5.5 6.1c3 3.4 6.9 9 8.7 12.6 2.9 6 3.2 7.3 3.5 19.4.3 9.4.1 12.8-.7 12.3-.7-.5-1.1.3-1.1 2.4 0 1.8-.4 2.9-1 2.5-.5-.3-1-1.5-1-2.6 0-2.4-1.7-2.5-2.4-.1-.4 1-2 3.2-3.8 4.8-1.7 1.6-2.7 2.3-2.3 1.5.9-1.5-.6-.9-3.5 1.4-2.1 1.7-5.2 2.7-4.5 1.5.4-.6-.5-1-2-1s-2.4-.4-2-1c.3-.6-.3-1-1.4-1-2.7 0-3.7 4.1-2.1 8 1.5 3.6.9 4.6-3.1 5.4-1.8.3-3.8 1.5-4.5 2.5-.8 1-2.6 2.2-4.1 2.6-1.6.3-4.3 1.8-6.1 3.2-2 1.5-4.1 2.3-5.3 2-3.9-1-2.9 1.9 2.6 7.8 8 8.5 17.3 28.3 16.2 34.2-.2 1.3.2 3.9 1.1 5.6.8 1.7 1.7 5.3 1.8 8.1l.3 5.1-1-3.8c-1.5-5.3-3.4-4.2-3.2 1.9.2 6.8.4 7.7 2 9.3 1.1 1 2 1.1 3.6.4 10.5-4.9 27.8-11.3 30.3-11.3 1.2 0 2.5-.3 2.7-.8.3-.4.8-4.5 1.1-9.2.8-9.5 2.2-15.1 4.2-16.3.8-.4 1.4-1.2 1.4-1.7s1.1-2.6 2.5-4.7c2.6-3.7 2.6-3.7.5-4.5-5-1.8-.7-4.1 7.4-3.9 8.4.1 15.2 2.9 12.8 5.3-.8.8-.3 2.7 2.5 7.5 3.2 5.9 3.6 7.2 4.1 16.8.4 9.7.6 10.5 2.5 10.5 1.8 0 27.9 9.8 31.9 12 2.5 1.4 3.1 1.2 2.4-.6-.4-1.1-.2-1.5.7-1.1 1 .4 1.8-1 2.6-4.9 1.1-4.6 1-5.7-.3-7.6l-1.5-2.1-.9 2.4c-1.9 5.1-2.2 5.2-1.7.6.3-2.7 1.2-6.4 2.1-8.2.9-1.9 1.3-3.9.9-4.5-1-1.6 2.2-11.5 6.5-20 3.7-7.4 7.4-12.4 13.3-18.2 3.2-3 2.8-5.1-.7-4.2-1.5.4-3.2-.2-5.2-1.8-1.6-1.4-4.5-3.1-6.4-3.8-1.9-.8-4.2-2.2-5.2-3.2s-2.9-1.8-4.3-1.8c-3.3 0-4.1-2.2-2-5.8 1.6-2.7 1.6-3.1.1-6-.9-1.8-1.9-3.2-2.2-3.2s-.2.4.1 1c.3.5.1 1-.5 1-.7 0-1 .7-.6 1.5.7 1.9.2 1.9-3.7-.1-2.1-1.1-3.2-1.3-3.5-.6-.2.8-1.2.6-2.8-.4-1.8-1.2-2.4-1.3-2.4-.4 0 2.1-4-2.1-6.2-6.5-2.1-4-2.1-4-3.1-1.5l-1 2.5-.7-2.5c-1.3-4.1-1-16.9.5-25.4 1.7-9.4 4.1-13.4 14.3-23.5l7.5-7.4-3.2-6.4c-2.8-5.8-3.3-6.3-5.2-5.3-1.1.7-2.2 1-2.3.8s-2.8-3.1-6-6.5l-5.7-6.1 1.5-3.1c.9-1.6 2.5-3.6 3.7-4.5l2.1-1.4-4.1-10.1c-2.3-5.5-4.1-10.3-4.1-10.7 0-1.5 5.1 4.1 8.1 8.8 1.7 2.6 3.3 4.8 3.4 4.8.6 0-1.3-5.4-4.4-12.7-1.7-4-3.1-7.5-3.1-8 0-1 8.8 8.2 12 12.6 1.4 1.9 3.5 4.4 4.7 5.5 1.8 1.8 6.5 9.5 16.1 26.3 1.3 2.4 2.7 4.5 3.2 4.8.4.3 3.7-.2 7.2-1.1 4.9-1.3 8.8-1.5 17.8-1 16.9 1 19.3 2.4 40.5 23.3 18.4 18.2 24.9 23.5 32.3 26.3 5.6 2.2 18.5 3.7 38.2 4.5 16.1.7 37.6 3 42.4 4.4 1.7.5 5.2 1.4 7.9 1.9l4.7.9V0H0z"/><path d="M370.5 178c1 1.1 2 2 2.3 2s-.3-.9-1.3-2-2-2-2.3-2 .3.9 1.3 2m6 6.8c1.8 2.8 3.9 4.5 5.9 5.1 1.7.4 3.3.6 3.6.4.5-.4-4.6-4.7-9.3-7.7l-3-2zm-248.2 9.1c-1.8 1.5-3.3 3-3.3 3.4 0 1.5 6.4-2.3 7.2-4.2 1-2.8 0-2.6-3.9.8M383 193c1.4.4 4.1.8 6 .8h3.5l-4-.9c-2.2-.4-4.9-.8-6-.7-1.6 0-1.5.2.5.8m9.3 2.7c.9.2 2.5.2 3.5 0 .9-.3.1-.5-1.8-.5s-2.7.2-1.7.5m-137.6 9.4c-.9.5-2.4 2.3-3.2 3.8-1.3 2.6-1.3 3 .5 4.6 1.1 1 2 2.7 2 3.7 0 1.4.6 1.9 2.3 1.6 1.7-.2 2.3-1.1 2.5-3.5.2-1.7 1-3.7 1.7-4.3 1.3-1 1.2-1.6-.1-4.1-1.5-3.1-2.8-3.5-5.7-1.8m135.8-.1c2.2.5 4.5.9 5 1 .6.1 1.9.1 3 0 2.7-.3-5.2-1.9-9-1.8-2.6 0-2.4.1 1 .8m1.3 2.7c.7.3 1.6.2 1.9-.1.4-.3-.2-.6-1.3-.5-1.1 0-1.4.3-.6.6m12 1c1.7.2 4.7.2 6.5 0 1.7-.2.3-.4-3.3-.4s-5 .2-3.2.4m86.7 6.7c2.6.9 3.3 1.5 2 1.6-1.6.1 16.3 5.9 18.8 6 .4 0 .7-1.7.7-3.8v-3.7l-7.8-.3c-4.2-.1-9.9-.4-12.7-.7l-5-.5zm-103.3 3.7c.3 1.9 1.9 10.8 3.6 19.9 2.4 12.9 3.2 20.6 3.6 35.5.6 17 .9 19.5 3 24 3.8 8.2 8.2 12.4 14.6 14 3 .8 7.5 2.1 10 2.9s7.9 2.1 12 3.1c9.8 2.1 17.3 5.1 23.8 9.5 2.9 1.9 6.8 4.4 8.6 5.5 4.9 2.9 13.9 10.8 24.1 21 5.9 5.9 11.1 10.1 15.3 12.2l6.2 3.2V228.2l-4.2-.7c-2.4-.4-9.7-1.7-16.3-3s-16-2.8-21-3.5c-4.9-.6-9.7-1.4-10.6-1.6-3.4-.9-1.3 2.8 3.3 5.7 2.7 1.8 4.7 3.4 4.4 3.6-.2.3-3.6-.7-7.6-2.1-3.9-1.4-7.3-2.6-7.6-2.6-.6 0 .7 1.6 6.6 8.3l4.5 5.1-12.9-6.8c-7.1-3.7-14.8-8-17-9.6-4.1-2.8-4.2-2.8-23.6-3.2-10.7-.3-20.3-.8-21.4-1.3-1.7-.7-1.8-.4-1.4 2.6M114 225c-5.2 1.6-13.8 3.6-19 4.6-10.2 1.9-11.8 2.7-21.6 11.6l-5.8 5.3 2.2-3.8c1.2-2.1 2.2-4 2.2-4.3 0-1.3-3.2 0-6.5 2.6-2.1 1.6-4 3-4.2 3-.3 0 1.4-2.4 3.7-5.3 3.9-4.8 4-5.2 2.1-5.5-2.7-.4-28.7 10.7-50.3 21.6L0 263.2V384h45.7l6-6.3c8.2-8.3 18.3-20.8 27.8-34.2 7.7-10.8 13.8-18.7 20.2-25.5 9.7-10.5 12.5-13.9 15-18.5 2.7-4.9 2.8-5.5 3.4-25.5.6-19.1 2.5-33.5 6.5-49.4.7-3.1 1.4-3.1-10.6.4M14 242.8.5 249.5l-.3 5.3-.3 5.3 4.3-2.7c6-3.9 13-9.5 12.4-10.1-.2-.3-1.4.1-2.6.7-1.5.8-2 .8-1.6.1 1.2-1.8 6.6-4.2 7.8-3.5.6.4.8.3.4-.4-.3-.6-.1-1.5.6-2.1 5.1-4.2 7.2-6 6.8-6-.3 0-6.6 3-14 6.7m241.1-5.9c-1.1.7-1.3 3.5-.9 14.5l.5 13.5-5.4 12.3c-3 6.8-6.4 13.3-7.6 14.4-1.2 1.2-7.6 4.1-14.2 6.4s-18.4 6.9-26.2 10.1c-14 5.8-22.2 7.5-23.8 4.9-4-6.5-2.3 15.1 4.1 52 1.4 8 2.7 15.5 3.1 16.7l.5 2.3h150.5l.7-31.3c.4-17.1.9-33.4 1.2-36.1.6-4.8.6-4.9-1.7-4.1-6.9 2.2-9.2 1.8-24.4-4.5-8.2-3.4-19.9-7.9-25.8-10.1-16.5-6-15.4-5-22-19.6l-5.9-12.8.4-14.4c.3-14.4-.1-16.1-3.1-14.2"/><path d="M221.5 260.5c-12.4 6.8-24 12.5-28.7 14.4-2.8 1.1-3.8 4.3-1.8 5.6 1 .6 7.7-1.1 24-6 4.1-1.2 9.9-2.8 12.8-3.5 2.8-.7 5.4-1.5 5.6-1.9.9-1.5 1.8-15.1 1-15.1-.5 0-6.3 3-12.9 6.5m55.5-4.3c0 1.3.3 4.6.6 7.5.7 5.1.7 5.1 5.3 6.3 4.2 1.1 8.4 2.3 30.5 9 7.1 2.1 9.1 1.7 8.4-1.5-.3-1.9-.8-2.2-7.3-5-2.2-.9-11-5.4-19.6-10.1-8.5-4.6-16.1-8.4-16.7-8.4-.7 0-1.2 1-1.2 2.2"/></svg>