<svg xmlns="http://www.w3.org/2000/svg" width="682.667" height="512" version="1.0" viewBox="0 0 512 384"><path d="M0 90.5c0 50.3.4 90.5.9 90.5.4 0 3.1-1.8 5.9-4.1 5-4.1 13.9-8.4 28.7-14.1 7.1-2.7 38.7-13.9 44.1-15.6 5.4-1.8 16.6-9.4 23-15.7 3.9-3.9 9.9-10.9 13.3-15.7 7.3-10.3 27.7-31.2 34.1-34.9 4.9-2.9 19.4-5.5 26.8-4.7 3.9.3 4.2.2 5.8-3.4 2.2-4.9 1.3-7.9-4.2-13.8-3.9-4.2-4.4-5.1-3.4-6.9 1.5-3 3.6-2.6 11.1 1.7 6 3.5 6.7 3.7 9.4 2.5 1.8-.8 4.8-1.1 7.5-.7 4.3.5 4.6.4 5.7-2.5.6-1.7 2.5-3.9 4.3-4.8 2.3-1.3 4.4-4.1 7.5-10.3 2.3-4.7 5.8-10.1 7.6-12.1 3.4-3.6 9.2-7.3 10.1-6.3.3.2 1.8-.2 3.4-1.1 1.6-.8 3.8-1.5 4.9-1.5 1.8 0 1.8.2-.5 2.1l-2.5 2 3.3-.6c1.7-.4 3.2-.4 3.2-.2 0 .3-2.5 1.9-5.5 3.6-4.9 2.8-11.9 10.1-18.8 19.5-2 2.8-2 2.9-.1 2.2 4.2-1.7 13.9-3.3 14.5-2.4.3.5 1.5.9 2.5.8 1.1-.1 2.8-.2 3.9-.1 1.8.2 1.8.3-.5 1.6-2.5 1.4-2.5 1.4-.2 1.5 4 0 2.3 1.9-2.5 2.6-2.7.4-7.6 1.5-10.9 2.5-5 1.6-6.4 2.4-7.4 4.8-.6 1.6-2 3.7-3.1 4.6-1.8 1.7-1.8 1.8.7 5 1.4 1.9 3 4.9 3.5 6.8.8 2.8 2.3 4.4 7.3 7.6 7.5 4.7 8.4 5.8 6.3 7.8-1.4 1.4-2.3 1.4-7.6.3-7.1-1.5-11-.4-14 3.9l-1.9 2.6 3.9 4.5c11 12.5 13.9 20 13.9 35.8 0 9.2-.2 10.3-1.6 9.8s-1.6-.1-1.1 2.9c.7 4.3 0 4.6-1.5.5l-1-3.1-2.7 4.3c-2.4 3.8-7.7 9.4-5.7 6 1-1.7.2-1.5-3.6.8-3.9 2.4-5.5 2.6-3.8.5 1.5-1.8 1-1.8-2.5-.5-2.3.9-2.6.8-2.1-.5.7-2-1.8-2-3.4 0-1 1.2-1 2.4-.1 5.4 1.6 5.5 1.4 6.1-1.9 6.1-1.8 0-3.7.8-4.8 2.1-.9 1.1-2.6 2.5-3.8 2.9-1.3.5-3.2 3.6-5.3 8.5l-3.2 7.7 2.5 2.3c3.2 2.9 11.2 18.8 12.7 25.2.6 2.6 2.2 7 3.5 9.7 1.3 2.8 2.4 6.4 2.4 8v3.1l-1.9-2.8-1.8-2.8-1.7 2.6c-1.5 2.3-1.6 3.3-.5 7.8l1.2 5.1 1.8-2.3c1.2-1.5 1.9-1.8 1.9-.9 0 .8-.5 1.9-1.2 2.6-1.9 1.9-.5 1.5 10.9-3.4 15.4-6.6 23.3-9.5 24.3-8.9.5.3 1.1-.4 1.5-1.5.5-1.5-.2-2.7-2.5-4.6-3.3-2.9-2.8-5 1.3-5.6 1.8-.2 2.3-1.2 2.9-5 .3-2.6 1.6-6.1 2.7-7.7 2.6-3.7 2.6-3.7-.5-4.5-1.7-.5-2.4-1.2-2-2.1.3-.8-.3-1.7-1.5-2-2.5-.8-2.4-2 .3-3.9 2.3-1.7 7.9-2 11.2-.7 1.1.4 3.9.3 6.3-.2 3-.7 5.4-.7 8.3.2 4.4 1.3 4.9 3.4 1.1 3.9-1.8.3-2 .6-1 1.8.9 1.1.7 1.6-1.2 2.3-1.3.5-2.8.6-3.2.4-.5-.3.3 1.3 1.7 3.6 1.5 2.3 2.9 6.2 3.3 8.7.5 4 1 4.7 4.1 6 3.5 1.4 3.5 1.4 1.6 3.6-1 1.3-2.5 2.7-3.2 3.3-1.9 1.5-.6 4 2.1 4.1 2.2.2 8.1 2.4 25.5 9.8 6.7 2.8 8.2 3.1 7.7 1.8-.4-.9-.9-2.6-1.1-3.7-.4-1.9-.4-1.9.5 0 .5 1.2 1.6 2.7 2.4 3.4 1.4 1.1 1.7.9 2.3-1.6.3-1.5.8-3.5 1-4.4.2-.8-.4-3.3-1.5-5.4l-1.9-3.9-1.6 3.2c-.9 1.8-1.8 3.2-2 3.2-.9 0 1.3-8.1 3.2-11.6 1.1-2.1 2.5-6.1 3.2-8.8 1.1-4.9 7.7-18.9 11.2-23.9l2.1-2.9-3.1-7.8c-3.6-9-7.9-14-12.3-14-3.3 0-3.8-2-1.7-6.5.9-2.1.8-3.2-.6-6.2-.9-1.9-2-3.3-2.3-2.9-.3.3 0 1.3.8 2.3 1.2 1.5 1.2 1.6-.3 1-1.3-.4-1.5-.2-1.1 1 .5 1.2.1 1.4-1.8.8-1.3-.4-2.9-1.2-3.6-1.7s-1.4-.5-1.8.2-1.2.7-2.5 0c-2.5-1.3-3.3-1.3-2.4.2.4.7-.5.2-2-1.2-1.6-1.4-3.7-4.3-4.9-6.5l-2-4-.9 2.8c-1.8 5.1-2.8 1.6-2.8-9.4 0-13.5 2.2-23.8 6.2-29.7 1.6-2.4 6.1-7.4 9.9-11.2l6.9-6.8-3.2-6.9c-1.7-3.7-3.3-7-3.4-7.2-.2-.1-1.3.4-2.6 1.3-1.2.9-2.7 1.6-3.3 1.6-.5 0-3.9-3.2-7.4-7.1l-6.5-7.2 4-3.7c2.2-2 4.6-3.9 5.4-4.2 1.4-.4.6-2.9-5.4-17.1-2.4-5.5-.7-4.5 4.7 2.9 2.7 3.6 5.1 6.3 5.4 6.1.2-.3-1.4-4.6-3.8-9.6-2.3-5-4-9.4-3.7-9.6.5-.5 4 3.7 16.6 19.5 2.6 3.2 12.9 19.4 17.8 27.8 1.5 2.6 2.3 3.2 3.9 2.7 6.5-2.1 13.6-3.5 17.8-3.5 7.7 0 18.9 2.1 23.4 4.4 5 2.5 24.4 21.3 32.1 31.1 9 11.4 16.3 18.5 22.6 21.7s20.4 6.2 34.1 7.2q36.45 2.85 55.8 10.2c2 .8 4.2 1.4 4.7 1.4.7 0 1-27 1-76V0H0z"/><path d="M298 152c0 .5.5 1 1.1 1 .5 0 .7-.5.4-1-.3-.6-.8-1-1.1-1-.2 0-.4.4-.4 1m83 47.2c.5 1.3 1.6 4.9 2.5 8 1.7 6.2 1.1 5.9 10.3 6.3 2.3.1 4.2 0 4.2-.2 0-.9-13.7-14.1-15.8-15.2-2-1.1-2.1-1-1.2 1.1m-257.4 12.1c-5.6 6.6-5.8 7.9-1.3 6.5 2.9-.9 3.6-1.8 5-6.1.9-2.8 1.5-5.3 1.3-5.4-.2-.2-2.4 2-5 5m131.1-1.7c-1.5 1.5-.7 4.5 1.1 4.2.9-.2 1.7-1.2 1.7-2.2 0-2-1.6-3.1-2.8-2m131.3 5.6c0 .4.7.8 1.6.8 1.4 0 1.4.3.4 1.5-1.1 1.3-.8 1.5 1.6 1.5 2.2 0 2.6-.3 1.4-1-1.1-.7.4-1 4.9-1 3.5 0 6.2-.2 5.9-.5-.8-.9-15.8-2.1-15.8-1.3m20.5 10.8c-1.1.5-3.6.9-5.4.9-6.1.2-1.9 2.1 5.7 2.8 7.5.6 8.7 0 5.4-3-2.1-1.9-2.8-2-5.7-.7M198 227.6c0 .8.5 1.2 1 .9.6-.3 1-1 1-1.6 0-.5-.4-.9-1-.9-.5 0-1 .7-1 1.6m113.6-.7c-.3.5.1 1.4.9 2.1 1.3 1 1.5.9 1.5-.9 0-2.1-1.4-2.8-2.4-1.2m77.7 2.7c1.4 1.5 19.4 4 24.9 3.4 4.7-.5 3.9-.7-7.2-1.8-6.9-.7-13.8-1.6-15.5-1.9s-2.6-.2-2.2.3m1.7 3.4c.8.5 2.6 1 3.9 1 3.2 0 2.4-.6-1.9-1.4-2.5-.4-3.1-.3-2 .4m82.5-.1c-.3.5-.2 1.2.3 1.5.9.5 12.8 5.1 28 10.6l10.2 3.7v-9.3l-6.7-1.6c-3.8-1-10.3-2.2-14.6-2.8-4.3-.5-8.7-1.4-9.7-2-2.4-1.3-6.7-1.3-7.5-.1m-74 2.1c2.5 1.1 18.6 1.2 20.1.2.7-.4-4-.8-10.5-.9-6.9 0-10.8.2-9.6.7m47.9 2.2c.1 1.1 1.7 3.6 3.6 5.4 1.8 1.9 3 3.4 2.6 3.4s-3.4-1.4-6.7-3.1c-3.4-1.7-6.3-2.8-6.6-2.6-.7.8 2.3 6 4.7 8.2 1.2 1.1 2.6 2.8 3.2 3.9 1.2 2.2 1.3 2.3-10-5.6l-8.3-5.8-5.7 1.6c-7.2 2.2-21.2 2.9-27 1.4-2.5-.6-4.8-.7-5.3-.3-.4.4-.1 3.7.7 7.3.7 3.6 1.6 15.3 1.9 26 .6 18.7.7 19.7 3.4 25.5 1.6 3.3 4.2 7.5 5.7 9.3 3.1 3.4 5 4.1 28.9 10.6 10.4 2.9 26 9.4 27.5 11.6.3.4 2.7 2.3 5.3 4.4 9.5 7.2 17.1 14.2 24.8 23.3 6.6 7.6 18.9 18.3 21.3 18.3.3 0 .6-29 .6-64.4v-64.3l-8.7-1.8c-4.9-.9-14.2-3.3-20.8-5.2s-15.6-4.3-20-5.4c-4.4-1-9.7-2.3-11.7-2.8-3.4-.8-3.7-.7-3.4 1.1M116 247.9c-2.7 1.6-17.3 5-24.5 5.7-4.2.4-8 1.4-9.7 2.5-2.6 1.9-2.6 1.9-2.1 0 .4-1.5 0-1.8-2.5-1.7-1.6.1-3.8.8-4.8 1.6-1.7 1.4-1.8 1.4-.6-.2 1.5-1.9 1.2-2.2-5.3-3.7-5-1.2-5.2-1.1-15 3.5-5.5 2.6-17.6 8.8-27 13.9C3.6 280.8 1 282.2 1 281.6c0-.5 16.4-12.2 27.8-19.9 7.7-5.1 8.5-6 4.5-5.5-3.7.5-4.3-.6-1.2-2.2 1.1-.7 1.8-1.4 1.6-1.7-.5-.4-10.6 4.7-26.2 13.4l-7 3.8-.3 57.3L0 384h53.9l6.9-9.3c3.8-5 11.9-16.6 18-25.7 10.6-15.9 13.1-19.2 26.9-34.9 3.5-3.9 7.2-9 8.4-11.2 2.4-4.8 4.3-20.6 3.3-28-.6-4.1.6-17.3 2.2-25.2.6-2.8-.7-3.5-3.6-1.8m120.5 7c-.6.4-4.4 2.6-8.5 4.8-4.1 2.1-11.8 6.5-17.2 9.6-5.3 3.2-11.1 6-13 6.3-4.8 1-5.8 2.1-5.1 5.7.3 1.8.7 3.3.8 3.4.1.2 7.5-2 16.6-4.9 9-2.8 19-5.8 22.1-6.6l5.7-1.4.6-6.7c.3-3.6.8-7.6 1.1-8.9.5-2.3-1.3-3-3.1-1.3m35.9 1.3c.3 1.3.8 5.3 1.1 9 .6 6.5.7 6.7 3.8 7.3 1.8.4 11.1 3.2 20.7 6.1 9.6 3 18.3 5.7 19.3 6 2.9.9 2.1-3.3-1.3-6.6-1.7-1.7-3.5-3-4.1-3s-5.3-2.5-10.4-5.5c-12.4-7.3-27.6-15.5-28.7-15.5-.4 0-.6 1-.4 2.2m-20.2 22.5c-1.7 3.8-3.7 8.5-4.5 10.5-1.9 4.6-3.8 5.8-17.2 10.9-6.1 2.2-17.1 6.7-24.5 9.8-21.7 9.3-20.3 9-26.2 5.8l-5-2.8.6 8.8c1.4 16.7 5.4 38.8 10.7 58.5l1 3.8H260c40.2 0 73-.1 73-.3.1-.1.7-11.2 1.5-24.7s1.8-29.4 2.2-35.4l.6-10.9-4.5 2.7c-2.5 1.4-5.2 2.6-6 2.6-.9 0-7.6-2.5-14.9-5.6-7.4-3.1-20.1-8.2-28.2-11.4-8.2-3.2-15.6-6.5-16.5-7.3-.9-.9-3.7-6.1-6.1-11.6-2.5-5.6-4.8-10.1-5.1-10.1-.4 0-2.1 3-3.8 6.7"/></svg>