<svg xmlns="http://www.w3.org/2000/svg" width="682.667" height="512" version="1.0" viewBox="0 0 512 384"><path d="M0 99.5c0 54.7.2 99.5.5 99.5.9 0 14.8-9.6 17.6-12.1 1.4-1.3 3.5-2.9 4.5-3.5 3.6-2 15.9-8.2 20.4-10.2 2.5-1.1 8.5-3.8 13.3-6.1 4.9-2.2 9.2-4.1 9.8-4.1.5 0 1.7-.4 2.7-1 .9-.5 4.4-2.1 7.7-3.5 10.3-4.5 14.3-7 21.4-12.8 6.7-5.6 15.3-17 20.1-26.6 5.7-11.3 25-33.1 34.1-38.4 5-2.9 18.4-5.2 25.5-4.4 4.9.5 5.6-.1 6.7-6.1.8-4.1-.9-7.8-5.9-12.6-3-3-3.4-3.7-2.4-5.5 1.5-2.8 2.3-2.7 10.8 1.8 7.1 3.8 7.5 3.9 10.8 2.5 2.1-.9 4.8-1.2 7.2-.8 3.5.6 3.8.4 5.5-3.1 1-2.2 2.9-4.1 4.8-4.9 2-.8 4.2-3.3 6.5-7.2 7.6-12.6 14.4-17 27.9-17.9 5.8-.4 5.9-.4 3 1l-3 1.4 2.9.1c3.7 0 2.5 1.3-2.9 3-5.1 1.6-11.4 6.2-19 13.9-6.2 6.3-6.3 6.8-2 5.1 6.6-2.5 26.7-.6 22.4 2.1-1 .6-1.1.9-.1.9.6 0 1.2.4 1.2.9 0 .4-3.3 1.1-7.2 1.4-4 .3-9.7 1.1-12.6 1.7-4.6 1-5.5 1.6-6.4 4.1-.6 1.6-1.9 3.4-2.9 4-1.9.9-1.8 1.1.6 4.4 1.5 1.8 3.1 5 3.6 7 .8 2.8 2.1 4.3 5.6 6.3 2.5 1.5 5.8 3.7 7.2 4.9 2.4 2 2.5 2.3.9 3.9-1.5 1.5-2.3 1.6-7.9.4-5.5-1.2-6.5-1.1-9.4.4-1.8 1-3.8 2.8-4.5 4.1-1.1 2.1-.8 2.9 3.9 8.5 2.8 3.4 6.4 8.5 7.8 11.3 2.5 4.8 2.8 6.3 3.1 19.1.3 9.9.1 13.6-.7 13.2-.7-.5-1.1.5-1.2 2.6l-.1 3.3-1-2.7-1-2.8-3.1 4.7c-1.8 2.6-3.8 4.9-4.6 5.1q-1.35.45-.6-.9c.5-.7-.7-.1-2.7 1.4-3.9 3-6.9 3.8-4.8 1.2 1.5-1.8 1-1.8-2.5-.5-2.3.9-2.6.8-2.1-.5.9-2.3-2.2-1.8-3.4.6-.8 1.5-.8 2.9-.1 5.1 1.6 4.6 1.4 5.6-1.6 6-2.6.3-2.8.7-5 11.8-1.2 6.3-2.9 13.2-3.7 15.2-1.4 3.6-1.3 4 1.5 9.1 1.5 2.9 3.6 8.1 4.4 11.6.9 3.4 2.8 7.9 4.1 9.8 2.7 4 3.8 7.5 3.1 9.5-.2.7-1.1-.3-2-2.2-.8-1.9-1.6-2.8-1.6-1.9-.1.9-1.1 2.8-2.2 4.3-1.7 2.1-2 3.6-1.6 6.8.8 5.9 1.9 6.3 5.1 1.5 2.6-3.8 2.8-3.2.9 2-.3.7-.3 1.3 0 1.3s6.8-2.7 14.4-6c7.7-3.3 15.4-6.3 17.1-6.6 3.8-.8 4.1-2.1.9-3.3-1.3-.5-2.9-1.6-3.6-2.4-1.1-1.4-.7-1.9 2.8-3.7s4.1-2.5 4.1-5.3c0-1.8.9-4.9 1.9-7 1.8-3.4 1.8-3.7.2-3.7-2.5 0-3.2-1-2-3.1.8-1.7.6-1.9-2-1.9-4 0-3.2-2 1.9-4.9 3.4-1.9 4.5-2 7.8-1.1 3 .7 5 .7 8.7-.4 5-1.6 8.3-1 11.7 2.1 2.2 1.9 1.3 3.6-1.4 2.7-1.7-.5-1.9-.3-1.3 1.5.5 1.7.2 2.1-1.8 2.1-3.6 0-3.8.9-1.2 4.8 1.4 2 2.8 5.7 3.1 8.2.5 4 1.1 4.9 4.2 6.5 4.3 2.4 4.4 3.5.3 5.5-3.6 1.8-3.6 3.2.1 3.6 1.5.1 9 3 16.7 6.3 7.7 3.4 14.3 6.1 14.6 6.1s.1-.9-.5-1.9c-2-3.9-.9-4.5 1.5-.8 1.4 2 3 3.7 3.4 3.7.5 0 1.2-2 1.5-4.4.6-3.5.3-5-1.6-7.9-2.8-4.3-3.5-4.5-4.9-1.1-.5 1.5-1.2 2.4-1.5 2.1-1-.9 1.6-7.9 4.7-12.8 1.6-2.5 2.9-5.5 2.9-6.7s1.1-4.7 2.5-7.9c2.5-5.5 2.5-5.9 1.1-10.4-1.7-5.2-4.6-21.8-4.6-26.5 0-2.1-.7-3.6-2.1-4.6-2-1.3-2.1-1.7-1-4.9 1.3-4.2.7-6.5-1.9-7.2-1.3-.3-1.7 0-1.3.9.7 1.8-.1 1.8-3.7-.1-2.2-1.1-2.9-1.2-3.3-.2-.4.9-.7.9-1.8-.1-1.7-1.6-4.2-1.6-3.3 0 .3.7-.7-.1-2.4-1.8-1.6-1.7-3.8-4.6-4.7-6.5l-1.8-3.4-1 2.9c-1.6 4.9-2.7.9-2.7-10.4 0-12.1 1.9-21.5 5.7-28 1.5-2.5 6-7.7 10-11.7l7.3-7.2-4.1-8.8c-2.4-5.2-4.3-8.2-4.6-7.3-.9 2.5-3.5 5-5.2 5-.9 0-3.1-2.2-4.9-4.9-1.8-2.6-4.3-5.8-5.7-7.1-2.2-2.1-2.3-2.4-.8-4.6.8-1.3 3.1-3.4 5.2-4.6 2-1.2 3.7-2.2 3.9-2.3.1-.1-1.4-4.1-3.4-8.9s-3.4-8.9-3.1-9.2 2.7 2.4 5.4 5.9c2.6 3.6 4.9 6.4 5.1 6.2s-1.5-4.4-3.7-9.4c-2.3-5-4.1-9.4-4.1-9.7 0-4.1 22.7 26.5 33.4 44.9 2.3 4.1 3.2 4.8 4.9 4.3 14.1-4 17.2-4.3 29-2.5 10.1 1.6 13.5 3.7 25.1 15.2 10.5 10.5 16.4 17.8 20.7 25.7 4.1 7.6 13.9 19.8 18.8 23.3 6.5 4.7 14 6.9 40.9 12.2 12.9 2.5 26.1 5.6 29.5 6.9s8 3 10.2 3.6c2.2.7 4.5 1.6 5 2 1.2.8 9.7 3 11.9 3 1.4 0 1.6-8.7 1.6-84.5V0H0z"/><path d="M303 152.9c0 .5.5 1.3 1 1.6.6.3 1 .2 1-.4 0-.5-.4-1.3-1-1.6-.5-.3-1-.2-1 .4M176 176c0 1.8 5.3 6.6 5.8 5.2.5-1.5-1.3-3.9-4-5.3-1.2-.7-1.8-.6-1.8.1m155.3 1.7c-4.5 2.7-4.8 3-3.4 5.2.7 1 1.7.6 4.6-2.1 5-4.6 4.3-6.4-1.2-3.1m-76.8 33.2c-1 1.7 1.5 4.5 2.9 3.1.7-.7.5-1.5-.6-2.6s-1.8-1.3-2.3-.5m131.9 14.3c.3 1.2 1 4.6 1.6 7.4l1.1 5.2 4.2-.5c2.3-.3 4.3-.6 4.4-.7 0 0-2.6-3.2-5.8-6.9-4.3-4.9-5.8-6.2-5.5-4.5m122.1-.1c.5.7-.6.8-3.2.5l-3.8-.6 3 1.4c6.5 2.9 7.5 3 7.3.2-.2-1.8-.8-2.6-2.1-2.6-1 0-1.5.5-1.2 1.1m-310.2 2.5c-.3.8 0 2.1.6 2.7 1 .9 1.6.8 2.6-.7.8-1 1.2-2.3.9-2.7-.9-1.5-3.4-1-4.1.7m111.2-.6c-.7 1.1 1.2 5 2.5 5 1.2 0 2.3-3.7 1.5-5s-3.2-1.3-4 0m200 5c-1.1.5-1.4.9-.6.9 1.1.1 1.1.4.1 1.6-1 1.3-.9 1.5.9 1.5 1.6 0 2-.6 1.9-2.5-.1-1.4-.3-2.5-.3-2.4 0 0-.9.4-2 .9m-388.6 5.1c-2 2.8-2 3.1-.4 2.8 1-.2 2.2-1.6 2.6-3.2.9-3.5.5-3.4-2.2.4m269.7 1.7c-.5.9-.1 4.8.5 4.5.2-.1 2.7-.5 5.6-.9 4.7-.6 5.1-.8 4.2-2.5-.7-1.4-2.1-1.9-5.4-1.9-2.4 0-4.6.4-4.9.8m117.4 3.7c0 .2.9.9 2 1.5 1.6.9 2 .8 2-.5 0-.8-.9-1.5-2-1.5s-2 .2-2 .5M397.5 248c-4.5 1.5-5 2-5 4.6v2.9l9.5.5c7.8.4 8.8.6 5.5 1.2-2.2.4-6.1.5-8.7.2-3.9-.4-4.8-.2-4.8 1 0 1.1 1.3 1.6 4.8 1.9l4.7.3-4.7.2c-2.8.1-4.8.7-4.8 1.3 0 .8 2.3 1 7.8.6 10.8-.9 18.2-1.9 18.2-2.5 0-1.2-4.5-4.2-6.4-4.2-1.4 0-1.7-.3-.8-.8 1.8-1.2-5.3-9.2-8.1-9.1-1.2.1-4.4.9-7.2 1.9m57.5 1.9c0 1.7 35.6 20.6 46.3 24.6 2.6 1 4.6 2 4.3 2.2-.7.7-32.5-10.3-42.6-14.7-18.7-8.3-17.9-8.1-23.9-5.1-2.8 1.5-4.8 3.1-4.4 3.5.4.5 0 .6-1 .3-2.6-.9-8.3 2.1-6.8 3.6 1.9 1.9 1.2 3.1-.7 1.4-2.1-1.9-3.5-2.1-6-.7-2.7 1.5-18.3 5.8-22.2 6.2-3.4.3-3.5.4-4.3 5.8-1.7 12.4 1.1 25.1 7.5 33.5 2.6 3.5 4.4 4.8 8.3 6 2.8.8 7.3 2.3 10 3.4 2.8 1 8.8 2.9 13.5 4.1 10.5 2.8 20.9 7.9 27.4 13.4 11.8 9.9 21.3 19.8 28.1 29.2 9 12.3 14.9 17.4 19.9 17.4h3.6V267.3l-11.7-3.8c-6.5-2-14.3-4.8-17.4-6-7-3-27.9-8.6-27.9-7.6"/><path d="M431.3 251.2c-.5.7-.9 2.2-.9 3.3.1 1.7.7 2 4.3 1.8 2.4-.1 5-.6 6-1.2 1.5-.8 1.1-1.3-3-3-5.7-2.5-5.2-2.4-6.4-.9m-428 3.4c-2.5 1-3.3 2-3.3 3.9v2.5l5-3.6c2.8-2 5-3.8 5-4 0-.8-3.6-.2-6.7 1.2m81.6 1.9c-2.6 1.8-7.3 4.8-10.5 6.7l-5.9 3.3 6.8.8c3.8.4 9 .3 11.5-.2 3.2-.6 3.8-.9 2-1s-2.8-.7-2.8-1.6c0-1-1-1.5-2.7-1.5h-2.8l3.3-2c3.9-2.4 4.3-2.5 3.5-.4-.4 1.2.2 1 2-.7 2.8-2.3 3.7-6.9 1.5-6.9-.7 0-3.4 1.6-5.9 3.5m20.3-.6c-1.2 1.7-2.2 3.3-2.2 3.6 0 1 2.8.5 9.6-1.6 7.4-2.3 7.3-3.2-.6-4.4-4.2-.6-4.7-.5-6.8 2.4m125.3 2.3c-4.9 2.7-13.5 7.6-19 10.9-5.6 3.2-11.6 6.2-13.5 6.5-1.9.4-3.8 1.2-4.2 1.8-1.2 1.7-.9 7.6.2 7.6.6 0 9.4-2.7 19.5-6s19.2-6 20.2-6c3.6 0 4.4-1.7 5.3-10.5.5-4.9.8-9 .7-9.1s-4.2 2.1-9.2 4.8m42.3 1.5c.9 11.7 1.3 12.7 5.9 13.5 2.2.3 10.8 2.9 19 5.6 16.2 5.4 21.3 6.7 21.3 5.7 0-2.1-10.8-11-19.5-16.1-12.1-7.1-25.6-14.4-26.5-14.4-.4 0-.5 2.6-.2 5.7m149.2-3.9c0 .5.6 1.6 1.3 2.6 1.1 1.6 1.7 1.7 3.6.6 2.2-1.1 2.2-1.2.4-2.5-2-1.6-5.3-2-5.3-.7M6.5 261.4c-5.1 2-6 2.7-6.3 5.1l-.4 2.7 6.2-4.3c5.2-3.6 8-6 6.8-5.8-.2 0-3 1-6.3 2.3"/><path d="M32.9 274.6C8.6 289.8 5 291.9 5 291.1c0-.9 4.6-5.5 9.5-9.6 2.8-2.3 2.6-2.3-3.5.6-3.6 1.7-7.5 3.5-8.7 4L0 287v97h59.8l4.8-7.2c2.6-4 7.9-12.7 11.7-19.3 9.9-17.3 16.7-27 26.2-37.9 4.7-5.3 9.7-11.5 11.1-13.7 3.6-5.7 5.7-16.7 4.9-25.4l-.6-7-15.2-.1c-12.7 0-17.1-.5-26.7-2.6-12.7-2.9-12.5-3-21.6 3.3-6.4 4.4-32.6 20-33 19.7-.1-.2 4.7-4.2 10.8-8.8 20.5-15.8 27.1-21.9 20.2-18.8-2 .9-2.7.9-3.3 0-.5-.8-5.4 1.7-16.2 8.4m221.3.4c-6.1 13.9-8.3 18-10.4 19.4-1.3.8-7.5 3.5-13.8 5.9-6.3 2.5-18.5 7.5-26.9 11.1-8.5 3.6-16.4 6.6-17.5 6.6-1.2 0-3.6-.9-5.4-2s-3.5-2-3.8-2c-.7 0 .2 10.8 1.7 22 1.5 10.3 6.1 29.3 10.5 43.3l1.6 4.7h69.9c55.2 0 69.9-.3 69.9-1.3 0-.6.5-4.1 1-7.7 1.3-9.4 5.3-60.1 4.7-60.6-.3-.3-2 .4-3.8 1.5-1.9 1.2-4.4 2.1-5.7 2.1-1.2 0-7.9-2.5-15-5.6-7-3-19.5-8.2-27.8-11.5-8.4-3.3-15.9-6.8-16.7-7.7-.9-1-3.6-6.4-6.1-12.2l-4.5-10.4z"/></svg>