<svg xmlns="http://www.w3.org/2000/svg" width="682.667" height="512" version="1.0" viewBox="0 0 512 384"><path d="M318.6 2.7c.9 4 5 12.9 7.4 16.4 2.4 3.3 2.7 3-6.5 4.9-18.6 3.8-35.7 13-49 26.4-11.7 11.8-17.8 21.8-21.1 34.2-1.8 7.1-6.7 16.9-10.2 20.8l-2.7 2.8 2.5-.7c1.4-.4 3.5-1.7 4.8-2.8 2.7-2.5 2.9-1.3.7 5.8-1.5 5.2-1.2 7.4.5 3.4.7-1.7.8.1.5 6.6-.4 7.3-.3 8.6.6 6.7.7-1.2 1.5-2.2 1.9-2.2s1.3 2.8 2.1 6.2l1.3 6.3.6-5c.5-4.5.6-4.7 1.3-2.2.4 1.5.5 3.2.1 3.8-.3.6.1 1.8.9 2.7.7.9 1.7 2.6 2.2 3.7.7 2 .7 2 1.4.1.7-1.7.9-1.5 2.1 1.5 1.2 3.3 1.3 3.4 1.9.9l.7-2.5 1.2 2.2c.7 1.2 1.2 2.9 1.2 3.8s.4 1.4.9 1.1 1.4.1 2.1.9c1.5 1.8 3.1 1 2.4-1.3-.2-.9.4-.1 1.3 1.8l1.7 3.5.4-3.3c.4-4 2.2-3.3 2.2.9 0 4.5-2.7 10-7.1 14.5-3.6 3.6-3.9 4.4-3 6.3.7 1.1 3 3 5.2 4.1 4 2.1 5.9 5.1 5.9 9.4 0 2.7 2.5 5.1 6 5.9 4.8 1.2 6.4 3.1 6.2 7.5-.2 2.9.2 4.4 1.5 5.4 1 .7 3.4 3.7 5.2 6.6 3.4 5.4 3.6 7.7 1.4 16.9-.4 1.8 0 2.3 2.2 2.9 2.3.6 2.6 1.1 2.2 3.8-.2 1.7-.1 3.8.4 4.6 1.3 2.6 5.1 32.7 4.4 35.2-.7 2.4-7.3 9.8-8.7 9.8-.4 0-1.5-1.4-2.4-3.2-.9-1.7-3.5-5.2-5.9-7.7s-5.5-7.2-6.9-10.4-4.6-8.8-7.2-12.4c-4.4-6.5-4.5-6.7-3.5-10.9 1.6-6.2 1.3-16.4-.5-24.7-4.1-18.2-11.8-24.1-30.4-23.3-4.7.2-9.7.7-11.1 1.1-2.5.6-2.7.4-3.3-4.4-.4-2.8-1.1-5.1-1.5-5.1-1.5 0-2.2 3.2-1.5 7.5l.6 4.1-9.2 3.4c-5.3 2-10.5 4.8-12.5 6.6-1.9 1.7-3.6 2.9-3.9 2.7-1.3-1.3-4.8 6.1-6.7 14.5-2.4 10.6-2.5 9.7 2.4 28.8 2.8 10.6 2.4 9.8 9.9 19.1 7.1 8.8 9.5 10.7 15.9 12.8 2.7.9 4.9 1.8 4.9 1.9 0 .2-1.8 4.1-3.9 8.7-5.5 11.7-7.9 21.8-9.6 40.4-.8 8.8-1.8 17.1-2.1 18.5s-1 7.7-1.5 14c-.4 6.3-1.1 13.2-1.5 15.3l-.7 3.7h67.8l4.9-10c7-14.5 7.6-14.6 7.6-1.1V384h14l.1-3.3.1-3.2.9 3.3 1 3.2h163.4l7.5-2.4c4.1-1.2 10-3.8 13-5.7l5.5-3.4-3.8-.3-3.8-.3 4.5-5.4c2.5-2.9 4.6-5.6 4.6-6.1 0-.4-3-.4-6.8-.1-6.1.5-7.8 1.2-19.2 8-6.9 4.1-13.8 7.8-15.5 8.1-2.8.6-3.1.4-4.3-3.1-.8-2.1-1.5-5.8-1.7-8.3-.4-5.8-2.2-13.4-4-17-.8-1.6-1.2-3.5-.9-4.3s-1.1-7.7-3.1-15.3-4.1-15.8-4.6-18.2c-.4-2.3-1.4-5.2-2.1-6.5-.7-1.2-1.1-2.8-.9-3.6.1-.7-.4-3-1.3-5-1.8-4.6-1.5-12.6.4-12.6.8 0 2.1 2.4 3.1 5.8 1 3.3 2.1 6.2 2.4 6.5.4.4.4-.3.1-1.6-.8-2.4.8-3.1 1.8-.7.3.8 1.2 1.5 1.9 1.5.9 0 3.4 4.4 6.1 10.8 2.6 5.9 5.3 11.6 6.1 12.6 1.5 2 1.5 2 1.5 0s-3.5-32.8-4.6-40.7c-.4-2.6-.4-4.7-.1-4.7s1.9 2.8 3.5 6.2c1.6 3.5 3.7 7.2 4.6 8.3 1.6 1.9 1.6 1.9.6-.7-1.5-4.3-5.9-24.7-6.7-31.3-.5-3.3-.6-9.8-.3-14.5.5-7.4.6-8 1.3-4.5 1.6 9 8.4 27.4 13.9 37.9 6 11.4 10.5 18.1 9.4 14.1-.3-1.1-2-7.4-3.9-14-1.8-6.6-3.7-14.9-4-18.4l-.7-6.4 6.7 11.2c6.5 10.8 14.1 20.8 12.9 16.7-2.8-8.6-5.2-31.8-6.1-58.6-2.5-72.4-7.4-102.6-23-141.4-2.9-7.3-5.6-15.2-6-17.6-1.8-10.8-11.3-27.9-19.9-35.8-7.3-6.8-13.9-9.2-24.6-9.2h-8.9l-4.8-7-4.8-7H318zm-48.9 141.5c-.3.8-.6.5-.6-.6-.1-1.1.2-1.7.5-1.3.3.3.4 1.2.1 1.9m62.3 80.3c0 .8-.2 1.5-.4 1.5s-.6-.7-1-1.5c-.3-.8-.1-1.5.4-1.5.6 0 1 .7 1 1.5"/></svg>