<svg xmlns="http://www.w3.org/2000/svg" width="682.667" height="512" version="1.0" viewBox="0 0 512 384"><path d="M0 192v192l36.7-.2 36.7-.3 6.6-16c11.3-27.5 13.9-32.2 25-46 3.1-3.9 6.8-9.8 8.3-13.2 3.1-7.4 2.8-8.2-.7-1.6-1.4 2.7-5 7.5-8.1 10.8l-5.5 6 2.1-5c1.2-2.8 2.3-6.4 2.6-8l.4-3-2.8 3.1c-1.5 1.8-4.1 4.9-5.8 7-2.9 3.8-2.9 3.8-3.6 1.4-.6-2.5-.6-2.4-4.9 2-3.9 4.1-4.1 4.2-2.6 1.3.9-1.8 1.6-4 1.6-5-.1-1.7-.1-1.7-1.4 0-.7.9-1.8 1.7-2.4 1.7s-1.3.8-1.6 1.7c-.3 1-.3-.5 0-3.2l.5-5-1.6 3c-2.5 4.5-3.9 5.6-3.1 2.2.5-2 .3-2.7-.5-2.2s-.9.1-.5-1.4c.3-1.1.9-3.1 1.2-4.3.6-2 .5-2.1-.9-1-2.3 1.9-2.7.2-1.1-4.3 5-13.6 6.2-18.7 6.9-28.5.6-9.4 4.2-31.3 6-36.5 1.7-4.9 9.1-22.6 12-29 15.4-33.2 20.3-48.7 22.4-70.5 1.9-19 5.9-31 13.6-40.5 5.9-7.3 18-19.2 21.2-20.9 3.6-1.8 18-3.6 23.5-2.9 3.4.5 3.9.2 4.8-2.2.5-1.4 1-4.4 1-6.6 0-3.2-.7-4.7-4.1-8.4-3.8-4.1-4.1-4.8-3.1-7L180 49l7.6 4.6c7.1 4.1 8 4.4 10.6 3.3 1.7-.7 4.9-.9 7.6-.6 4.6.5 4.9.4 6.5-2.6 1-1.8 3.3-4.2 5.2-5.5 1.9-1.2 3.5-2.8 3.5-3.5 0-.8 2.1-5.6 4.6-10.7 3.6-7.4 6-10.8 11.5-16.2 3.8-3.7 7.4-6.8 8-6.8 1.2 0 1 .4-3.9 6.9l-2.4 3.1 3.6-2.1c4.8-2.8 4.6-1.2-.5 3.6-3.6 3.6-14.3 19.4-13.6 20.2.2.1 2.1-.6 4.2-1.7 6.1-3.1 7.4-2.5 3.5 1.6l-3.5 3.5 4.3-.7c2.3-.4 4.2-.4 4.2-.1s-2.7 2.2-6 4.2c-4.6 2.8-6 4.2-6 6 0 1.4-1.3 3.9-2.9 5.8-2.9 3.3-2.9 3.3-1 5.7 1 1.4 2.6 4.8 3.4 7.5 1.4 4.6 2.1 5.4 8 9 3.6 2.2 6.5 4.3 6.5 4.6s-.6 1.2-1.2 2.1c-1.2 1.5-1.8 1.5-7.5.1-7.3-1.8-11.1-.9-14.2 3.6l-1.9 2.7 4.9 5.9c2.7 3.3 6.2 8.5 7.6 11.5 2.4 4.9 2.8 6.9 3.1 18.1.3 10.6.1 12.8-1.2 14.2-1.2 1.1-1.5 2.4-1 4.3s.4 2.5-.5 2c-.6-.4-1.1-1.8-1.1-3.2 0-2.8-1.6-3.2-2.4-.6-.4 1-2.3 3.4-4.3 5.3s-3.3 2.8-2.8 2.1c.6-1.1.3-1.2-1.3-.3-1.2.6-2.4 1.6-2.7 2.1-.3.6-1.5 1-2.7 1-1.7 0-1.8-.2-.8-1.5 1.1-1.4 1-1.4-1.5-.5-3.1 1.2-4.8.4-2.5-1 1.2-.8 1.1-1-.6-1-4.2 0-5.2 3.5-2.9 10.6.6 1.9.2 2.2-3.4 2.8-3.8.6-4 .8-4.7 5.2-1.1 7.7.2 30.4 2.1 35.4.9 2.5 2.1 7 2.6 10 .8 5.2 7.2 22.5 8.8 24.3 1.2 1.2 25.8-10.8 28.6-14 1.9-2.1 2.4-4 2.5-7.8 0-2.8.4-6.6.9-8.6.7-3.3.6-3.6-1-3.2-2.4.7-2.4-.8.1-5.7 2.3-4.6 6.6-6.2 16.9-6.4 6-.1 6.4 0 9.2 3.4 3.4 4 3.8 6.5 1 5.7-1.7-.4-1.9-.1-1.6 2.2.3 1.4 1 6.2 1.7 10.6 1 7.3 3.1 12.4 5.1 12.5.4 0 4.8 2 9.8 4.5s9.4 4.3 9.9 4c1.3-.8 9.8-15.9 13-22.9 3.9-8.8 6.6-21.7 7.1-33.6.5-12.7-.7-16-5.7-16-1.7 0-2.4-.6-2.4-1.9 0-1.1.5-2.3 1-2.6 2.3-1.4-.4-11.5-3.1-11.5-.6 0-.6.7.1 2 .9 1.7.8 1.9-.7 1.3-1.6-.6-1.6-.5-.4 1s1.1 1.7-.3 1.7c-.9 0-2.8-.7-4.2-1.6-2.3-1.5-2.4-1.5-1.8.1.7 1.6.5 1.6-2.6 0-1.9-1-2.9-1.2-2.5-.5.5.8.3 1.1-.6.8-.7-.2-2.9-2.8-4.9-5.6-2.9-4.5-3.5-4.9-4.2-3.3-1.5 4-2.5 2.8-3.2-3.7-2.1-22.6 1.5-33.5 15.8-47.5l6.1-6.1-3-5.8c-1.6-3.2-3.5-5.8-4.1-5.8-.5 0-3.2-2.5-5.8-5.6-4.8-5.5-4.8-5.6-3.7-9.4 1-3.4.8-4.4-2-10.6-8-17.7-8-18.5-.2-8.3 2 2.7 3.8 4.7 4 4.5.3-.2-1.6-4.8-4.1-10.2l-4.6-9.9 3.7 4c2.1 2.2 5.7 6.2 8.1 8.8s4.7 4.5 5.2 4.2c2.7-1.7 8 4.9 8 9.9 0 1.4 3.1 7.3 7 13.5l7.1 10.9 2.9-1.4c6-3.1 15.8-4.3 24.9-3.3C355 77.4 357.6 79 369.6 92c12.4 13.5 16.6 21.7 18.8 37 4.5 31.1 5.7 37.3 8.6 46.5 1.8 5.5 5.5 15.4 8.2 22 18.5 44.4 19.4 47.1 23.7 76 1.6 10.4 3.2 19.9 3.6 21 .6 1.7.4 1.7-1.4-.4-2.8-3.1-2.6-2.1.6 4.7 2.1 4.3 2.8 7.3 2.8 12.2.1 3.6.5 7.4.9 8.5l.7 2-1.5-2c-.8-1.1-2.2-2.9-3.1-4-1.6-2-1.6-1.9-1 .5 1.8 6.9 1.8 6.7.1 4.6-.9-1-1.3-2.3-.9-2.9.3-.6.1-.7-.5-.3-.7.4-1.7-.3-2.3-1.8-.7-1.4-1.8-2.7-2.5-3-1-.4-.9.3.2 2.9 2.1 5.2 1.7 6.2-1.4 3.2-2.9-2.7-5.2-3.5-5.2-1.7 0 1.9 4.2 5.1 6.3 4.8 1.2-.1 2.7.1 3.3.4.6.4 2.1.9 3.5 1.2 14 2.9 22.7 8.1 35.2 20.9 10.1 10.2 11.3 11.9 17.3 23.8 3.5 7.1 6.4 13.6 6.4 14.4 0 1.2 1.8 1.5 11 1.5h11V0H0z"/><path d="M298.5 153c.3.5.8 1 1.1 1 .2 0 .4-.5.4-1 0-.6-.5-1-1.1-1-.5 0-.7.4-.4 1M176 176.9c1.2 2.3 2.9 3.5 3.7 2.7.7-.7-2.6-4.6-3.9-4.6-.5 0-.4.9.2 1.9m157.7-.1c-2.3 2.5-2.4 5-.1 3.2 2-1.7 3.7-5 2.6-5-.5 0-1.6.8-2.5 1.8m-23.5 55.7c-.7 1.4-1.2 3.2-1.2 4s-.4 1.5-.9 1.5c-.9 0-5.1 6.1-5.1 7.4 0 .3.7.6 1.5.6 1.4 0 3.3-3.4 6.9-12.3 1.7-4.1.6-5.2-1.2-1.2m-81.2 25c-4.7 3-8.9 5.6-9.3 5.7-.5.2.1 2.4 1.1 4.9l2 4.6 7.5-2.5c7.2-2.4 7.5-2.6 8.1-6.1.8-5.1.7-12.1-.1-12-.5 0-4.6 2.5-9.3 5.4m44 2.5c0 9.7 1.2 10.3 6.3 3.1 3.3-4.5 3.4-5 1.9-6.3-2.1-1.8-7-4.8-7.7-4.8-.3 0-.5 3.6-.5 8m15.6 6.5c-3.1 4-3.3 5.5-.8 5.5s6.8-7.5 4.8-8.3c-.9-.4-2.5.8-4 2.8m-35.9 8.3c-4.9 13.5-5.5 14.4-12.7 17.9-3.6 1.8-6.9 3.4-7.4 3.6-.9.3 3.2 13.4 4.4 14.2 1.3.8 25-24.3 25-26.5 0-1.1-1.1-4.8-2.5-8.2s-2.5-6.7-2.5-7.5c0-3.2-1.7-.7-4.3 6.5m-42.6-4.8c0 .8.6 2.8 1.4 4.5 1 2.3 1.3 2.5 1.4 1 0-1.1-.6-3.1-1.4-4.5s-1.4-1.9-1.4-1m91 3.8-2 2.9 7.7 3.1c4.2 1.8 8.3 3.2 9 3.2 1.6 0 1.6-5.2 0-6.8-.7-.7-1.9-1.2-2.8-1.2s-3.3-.9-5.5-2-4-2-4.1-2c-.2 0-1.2 1.3-2.3 2.8m-105.5 3.1c-1.1 1.2-1.5 2.7-1.1 4.4.6 2.3.9 2.4 3.6 1.5 3.7-1.3 4.1-2 2.9-5.2-1.1-3.1-3-3.3-5.4-.7m66.1 21.1c-3.8 3.3-7.1 6.1-7.5 6.1-.4.1-1.8.2-3.2.3s-5 1.8-8.2 3.8l-5.6 3.7 2.6 7c1.5 3.9 3.1 7.1 3.7 7.1 1.2 0 17.7-16.8 25.4-25.8 4.3-5.1 5.2-6.6 4-7.3-2.6-1.7-4.4-.9-11.2 5.1"/><path d="M276.6 306.9c-4.2 4.9-10.4 11-13.9 13.6-3.4 2.7-6.7 5.5-7.4 6.2-1.3 1.6-6.3 2.5-6.3 1.1 0-.4-1.1-.1-2.5.8s-2.2 2-1.9 2.5-.1.7-.8.4c-1.5-.6-7.8 3-7.8 4.4 0 .5 2 5.7 4.4 11.5 2.4 5.9 3.8 10.2 3 9.5-.8-.6-1.4-1.5-1.4-2 0-.7-4.1-6.5-9.7-13.8-.2-.3-.9.3-1.6 1.3-1.1 1.5-1.9.5-6.4-8.6-5-10.1-6-12.3-10.2-22.1-1.1-2.6-2.2-4.7-2.6-4.7-.3 0-5.2 2.2-10.9 5-5.7 2.7-11.2 5-12.3 5-1 0-3.5-.9-5.6-1.9l-3.7-1.9v6.2c0 9 3.4 30.9 7.5 48.4 1.9 8.4 3.5 15.5 3.5 15.8 0 .2 31.7.4 70.3.4h70.4l.7-24.1c.4-13.2 1-24.8 1.3-25.7.6-1.5.4-1.5-1.5.2l-2.1 1.9 1.9-5.5c1.7-5 3-16.2 1.9-17.3-.3-.2-2.3.4-4.4 1.5-2.2 1.1-4.7 2-5.6 2-1 0-10.1-4.2-20.3-9.4l-18.5-9.4z"/><path d="M223.5 304.2c.4 1.3 1.1 2.7 1.6 3.3.5.5.4-.5-.2-2.3-1.2-3.6-2.4-4.4-1.4-1m171.5-.5c.2 2.2 6.9 11.9 8.5 12.2 1.5.3 1.3-.4-1.3-3.3-1.7-2-3.9-5-4.7-6.6-1.5-2.9-2.5-3.8-2.5-2.3m9 2.4c0 .6 1.2 3.2 2.6 5.8 1.9 3.4 3.8 5.1 6.7 6.4l4 1.7-1.9-2.2c-7-8.1-11.4-12.6-11.4-11.7m-177.9 3c-.1.3 1.7 5.4 3.9 11.5 2.2 6 4 11.5 4 12.1 0 2 1.1 1.5 4.6-1.8l3.2-3.1-3.1-4.9c-3.8-6.2-5.6-7.8-6.7-6-.9 1.5-1.4.9-4.2-4.9-.9-1.9-1.7-3.3-1.7-2.9M432 376.7c0 3.1 2.4 7.3 4.1 7.3 2.5 0 2.4 0-1.1-4.5-1.6-2.1-3-3.3-3-2.8"/></svg>