<svg xmlns="http://www.w3.org/2000/svg" width="682.667" height="512" version="1.0" viewBox="0 0 512 384"><path d="M0 192v192h37c24.3 0 37-.3 37-1 0-.6 3.3-9 7.4-18.8 7-16.7 12-26.8 16.6-33.2 1.1-1.5 2-4.3 2-6.2l-.1-3.3-1.8 3.4-1.9 3.5-.7-3.2c-.3-1.7-.4-4.1 0-5.2s.2-2-.4-2-1.1-1-1.2-2.3c0-1.2-.3-1.6-.6-.9-.2.6-.9 1-1.4.7-1-.7-.3-7.5 1.7-16.5 1.1-4.9 1.2-8.6.6-15-1.1-10.7-.7-33.8.7-41 1.4-6.8 4.9-18.5 10.8-35.5 10.3-30 14.1-45.6 15.8-65 2.2-26.3 6.3-35.9 21.7-51.7 5.7-5.8 11.4-11.2 12.8-12.1 3.2-2 17-3.9 23-3.1 4.3.6 4.7.4 5.8-2 2.4-5.4 1.5-9.9-2.9-15-3.7-4.2-4.1-5-3-7.2 1.2-2.7.2-3.1 10.9 3.6 4.8 3 5.5 3.1 8.2 2 1.9-.8 5-1 7.8-.7 4.7.5 4.9.5 6.7-2.9 1-1.8 3.1-3.9 4.6-4.6 2.3-1 3.3-2.6 5-7.8 3.2-9.9 7.6-17.5 14.5-24.8 6.5-6.9 8.3-7.3 3.9-.8-3.2 4.7-3.2 5.6 0 2.6 4.3-4 3.9-1.4-.7 4.2-4.5 5.5-12.5 19.8-11.1 19.8.4 0 2.3-.9 4.1-2 4.8-3 6-1.4 2 2.7l-3.3 3.5 3.8-.7c2-.4 3.7-.5 3.7-.2s-2.2 2.1-4.9 4c-3.5 2.6-5 4.4-5.5 6.8-.3 1.8-1.7 4.5-3.1 5.9l-2.5 2.6 2.4 3.5c1.4 2 2.8 5.3 3.2 7.3.6 3.3 1.5 4.4 7.5 8.2 6.3 4.1 6.8 4.6 5.6 6.5-.8 1.4-1.8 1.8-3.2 1.3-1.1-.3-4.8-.8-8.1-1.1-5.8-.5-6.3-.3-9.5 2.5-2.5 2.3-3.1 3.4-2.4 4.5.6.8 3.4 4.5 6.2 8.3 7.4 9.7 8.8 14.3 8.8 28.7 0 9.5-.3 12.1-1.5 13-.9.7-1.4 2.1-1.2 3.2.3 1.3.1 1.7-.6 1-.6-.6-1.2-1.9-1.4-3-.4-1.8-.6-1.6-2 1-2 3.7-6.8 8.4-6.8 6.6 0-.8-1.3-.4-3.4 1.2-3.4 2.7-4.9 2.7-3.9 0 .5-1.3.3-1.3-1.6-.3-2.5 1.3-4.4.4-2.1-1 1.2-.8.9-1-1.1-1-4.8 0-6.2 3.6-3.4 9 1.4 2.7 1.4 3-.5 4-1.1.6-2.4.8-2.9.5-1.6-.9-4 .6-6.2 4.1-1.6 2.7-2.2 5.7-2.6 13.2l-.6 9.8 4.9 9.2c3.5 6.8 4.9 10.5 5 14 .1 2.6.7 6 1.3 7.5.6 1.6 1.1 4.5 1 6.5v3.7l-1.7-5c-1.2-3.8-1.7-4.5-2-2.7-.4 2.7 1.6 9.2 2.9 9.2.5 0 .9 1 .9 2.3s.6 3.1 1.3 4.1c1.2 1.7 2.4 1.3 17.3-5.8 8.9-4.3 16.6-8.6 17.5-9.8 2-2.7 3.2-18.5 1.5-19.1-.7-.2-.6-1.7.3-4.6 1.4-5 4.7-6.8 13.9-7.7 7.4-.8 10.6.6 13.2 5.5 1.9 3.8 1.4 6.1-1 4.6-1.3-.8-1.3-1 .5 4.9.8 2.7 1.5 7.2 1.5 10s.4 5.7.9 6.4c.8 1.4 26.5 14.2 28.5 14.2 1.7 0 7.5-9.3 9.2-14.8.8-2.6 1.6-7 1.8-9.7.2-3.6 1.5-7.4 4.5-13 4.1-7.8 4.1-7.9 4.1-18.8 0-9.3-.3-11.5-2-14.2-2.1-3.4-4.5-4.9-6.1-4-.5.3-1.8.1-2.9-.5-1.9-1-1.9-1.2-.3-4.4 1.3-2.9 1.4-3.9.4-6.5-.7-1.6-2.2-3.8-3.4-4.8l-2.1-1.8 1.7 2.7c1.6 2.6 1.6 2.7 0 2.1s-1.6-.5-.4 1 1.1 1.7-.3 1.7c-1 0-2.6-.5-3.7-1-1.3-.8-1.9-.7-1.9 0 0 .6-1.3.4-3.1-.6-3-1.5-3.2-1.5-2.5.2 1.2 3.1-5.3-3.6-7.4-7.5-1.6-3.3-1.8-3.4-2.4-1.3-2 6.1-3.6-.4-3.6-14.3 0-16.7 2.5-22.6 15.2-36l6.7-7.1-3.2-5.7c-1.8-3.1-3.6-5.7-4.2-5.7-1.4 0-11.5-10.4-11.5-11.9 0-.7.7-2.5 1.5-4.1 1.4-2.7 1.3-3.3-2.1-10.7-5.2-11.3-6.5-14.3-6-14.3.3 0 2.6 2.7 5.2 6s4.9 5.8 5.1 5.6c.3-.2-.5-2.2-1.6-4.4s-3.2-6.6-4.6-9.8l-2.5-5.9 3.7 4c2.1 2.2 5.7 6.2 8 8.8 2.4 2.5 4.9 4.4 5.6 4.1 2-.7 5.8 3.9 6.8 8.4.5 2.3 4.1 9 8 15l7.2 10.9 4.1-1.8c9.4-4.1 24.5-4.6 34-1 2.7 1.1 18.3 16.2 23.4 22.7 4 5.2 8.6 15.4 10.1 22.5.7 3 1.6 10.1 2.2 15.9 2.2 24.7 6.3 44 15.3 72.6 1.4 4.4 3.9 13.5 5.6 20.4 2.8 11.4 3.1 14 3.1 29 0 9.1-.4 19.8-1 23.9-.7 5.7-.6 9.4.5 15.8.8 4.6 1.2 8.8.9 9.3s-.3 2.6.1 4.8c.7 4.5 1.1 4.7 16.4 8.6 17.8 4.5 26.6 10.2 42.2 27.3 4.9 5.4 16.8 27.5 16.8 31.3 0 1.9.6 2 11 2h11V0H0z"/><path d="M299 152.9c0 .5.7 1.2 1.6 1.5 1.4.5 1.5.4.4-.9-1.4-1.7-2-1.9-2-.6m37 23.2c0 .5.5.7 1 .4.6-.3 1-.8 1-1.1 0-.2-.4-.4-1-.4-.5 0-1 .5-1 1.1M255 210c0 .5.5 1 1 1 .6 0 1-.5 1-1 0-.6-.4-1-1-1-.5 0-1 .4-1 1m18 48.9v7.9l4 .7c3.7.6 4.4.4 7.5-2.7 1.9-1.8 3.5-3.6 3.5-4 0-.3-3.4-2.7-7.5-5.2L273 251zm-45-1c-5.2 3.4-10.2 6.5-11 7-1.3.8-1.2 1.4.3 4.6 1 2 2.3 3.5 3 3.3.6-.2 4.9-1.7 9.4-3.3 9.3-3.4 9.9-4.2 8.5-12.8l-.7-4.8zm24.1 17.9c-1.9 5.3-4.3 10.7-5.4 11.9s-4.6 3.5-7.9 5c-3.2 1.4-5.8 2.9-5.8 3.3 0 .3.6 1.4 1.3 2.3 1.1 1.6 2.2 1.3 13.2-4.3 17.3-8.7 16.1-7.1 12.4-17.6-1.7-4.9-3.5-9.2-3.8-9.6-.4-.4-2.2 3.6-4 9m41.6-6c-2.9 3-2.7 4.2.8 4.2 1.2 0 2.7-1.1 3.8-2.9 2.8-4.8-.4-5.7-4.6-1.3m-88 2.9c-1.1 1.8.5 5.3 2.4 5.3 1.1 0 1.9-.4 1.9-.9 0-1.6-3.7-5.4-4.3-4.4m102.8 4.5c-1.5 2.2-1.4 2.4 1.2 3.4 6.8 2.8 7.3 2.8 7.3-.3 0-1.6-.5-3.4-1.2-4.1-1.9-1.9-5.6-1.4-7.3 1M195 282c0 .5.5 1 1.1 1 .5 0 .7-.5.4-1-.3-.6-.8-1-1.1-1-.2 0-.4.4-.4 1m68 10c-3.4 1.9-18.4 8-19.5 8-.4 0-.3-.5.1-1.2.5-.8.2-.9-1-.5-1 .4-2.9 1-4.2 1.3s-2.4.9-2.4 1.3c0 .3 1.6 2.4 3.6 4.5 1.9 2.2 4.7 5.3 6 6.9l2.5 3 4.2-1.9c5.4-2.4 17.1-10.1 22.2-14.6l4-3.5-5.2-2.7c-6.2-3.1-5.8-3-10.3-.6"/><path d="M222.3 300.2c-1.3.6-2.3 1.5-2.3 2 0 1.6 8.1 14.7 11 17.8 1.5 1.6 3 3.5 3.3 4.2s4.2 5.4 8.6 10.5c4.5 5.1 8.1 9.5 8.1 9.9 0 .3-1.8-.8-3.9-2.5-4.6-3.7-5.6-3.9-4-.9 1 1.8.6 1.7-2.7-.9-4.8-3.8-18.8-18.3-23.4-24.3-1.9-2.5-4.3-5.5-5.3-6.7l-1.9-2.2-8.8 4.5c-9.8 4.9-13.8 5.4-18.7 2.4l-3.3-2v5.3c0 8.7 2.8 29.2 6.6 47.7 1.9 9.6 3.8 17.8 4 18.2.3.4 32.4.8 71.5.8H332v-39.5l-7.2.3-7.3.3 7.3-7.3c3.9-4 7.2-7.7 7.2-8.1 0-1.3-2.2-.7-5.1 1.4-3.2 2.3-3.3 2.2-1.9-1.7.6-1.5.8-3.4.5-4.2-.4-1.2-1.2-.9-3.8 1.4-6.3 5.9-7.2 6.1-3.7.9 1.8-2.8 4.1-6.2 5.1-7.6 2-3 1.6-3.9-1.6-3.9-2 0-13.6-5.6-27.6-13.2l-5.6-3.1-5.7 4.3c-5.3 3.8-27.2 15-29.6 15-.5 0-.6.8-.3 1.7.6 1.5.4 1.6-.8.6-.9-.8-2-.9-2.9-.3-2.1 1.4-6.3 1.3-5.4-.1.4-.8-.1-.9-1.7-.4-1.3.3-3.2.9-4.3 1.2q-1.8.45-1.2-.6c.4-.6 1.2-1.1 1.8-1.1s1.9-.7 2.9-1.6c1.7-1.5 1.3-2.1-6.9-10.5-4.8-4.9-8.9-8.8-9.2-8.8s-1.5.5-2.7 1.1m210 77.1c.4 1.1 1 3 1.3 4.3.4 1.7 1.3 2.4 3 2.4 2 0 2.3-.3 1.5-1.7-.5-1-2.2-2.9-3.7-4.3-2.2-2-2.6-2.1-2.1-.7"/></svg>