<svg xmlns="http://www.w3.org/2000/svg" width="682.667" height="512" version="1.0" viewBox="0 0 512 384"><path d="M0 192v192h72.6l8.4-18.3c12.1-26.2 14.2-29.7 29.2-49 1.4-1.8 1.5-3 .7-7.2-.5-2.8-1.4-13.3-1.8-23.5-.8-16.7-1.2-19.2-3.7-25.4-2.6-6.6-2.7-7.1-2-20.4.5-9.9 1.8-19.1 4.7-33.2 2.2-10.7 5.1-24.7 6.4-31s3.3-18.9 4.5-28c4.1-33.3 6.9-40.2 23.2-57.2 13.6-14 16-15.2 30.7-15.4l11.4-.2 1.3-3.2c2.4-5.7 1.5-8.8-4.9-15.6-2.4-2.7-2.7-3.5-1.8-5.3.7-1.2 1.6-2.1 2-2.1 1 0 12.9 6.6 14.8 8.2.8.6 1.9.5 3.4-.3 1.3-.7 4.3-.9 7.4-.6 5 .5 5.2.4 6.9-2.8 1-1.9 3-3.9 4.5-4.5 1.9-.8 3.8-3.6 7.5-11.3 4-8.5 6-11.4 12-17.3 4-3.9 8.2-7.3 9.5-7.7 1.9-.5 1.7 0-1.4 3.5-3.9 4.3-4.1 5.7-.3 3.7 1.4-.7.2 1-3 4.6-4.8 5.2-14.7 20.4-13.8 21.2.2.2 2.4-.5 4.9-1.6 6-2.6 11.7-3.7 11.7-2.3 0 .6-1.6 1.9-3.5 2.8-4.5 2.1-5.7 3.9-2.2 3.2s5.7.8 2.6 1.7c-8 2.4-11.7 4.7-12.3 7.6-.3 1.6-1.7 4.1-3.1 5.5s-2.5 2.7-2.5 2.9 1.1 2.1 2.5 4.1 2.5 4.7 2.5 6c0 1.8 1.8 3.7 7 7.5 3.9 2.8 7 5.4 7 5.8s-.6 1.5-1.3 2.6c-1.3 1.7-1.6 1.7-6.2.1-7.2-2.4-10-2.1-14.1 1.7l-3.6 3.3 5.5 7.4c7.7 10.1 10.2 17.2 10.2 28-.1 9.6-1.2 16.3-2.5 15.5-.5-.3-1 .7-1.2 2.2l-.4 2.8-1.1-2.5-1-2.5-1.6 3c-1.8 3.7-5.3 6.9-6.5 6.1-.5-.3-2 .2-3.3 1.2-1.3.9-3.3 1.8-4.3 1.9-1.9.3-1.9.3 0-1.8 1.9-2.2 1.9-2.2-.3-1-2.8 1.4-5.6 1.4-4.7 0 .4-.7 0-1-1.1-.7-3.3.6-4.1 3.3-2.2 7.2 1.6 3.4 1.6 3.6-.3 4.6-1 .5-3 1-4.5 1-1.4 0-2.8.7-3.1 1.5s-2.4 2-4.6 2.7c-4.2 1.2-6.2 3.5-7.3 7.9-.5 1.9 0 3.4 2 5.7 4.7 5.6 15.3 25.2 16 29.5.3 2.3 1.5 6.5 2.7 9.4 1.1 2.9 1.8 5.8 1.5 6.5s-1-.2-1.7-2c-1.2-3.3-1.2-3.3-2.4-1-.9 1.8-.9 3.4.3 7.5 1.3 4.7 1.6 5.1 2.8 3.5 1.3-1.5 1.3-1.5.7.8-.4 1.4-.9 3.1-1.1 3.7-.3.7-.2 1.3.2 1.3.3 0 8-3.8 17-8.5 9.1-4.7 17.4-8.5 18.5-8.5 1.9 0 2-.6 2-10 0-8.8.3-10.7 2.5-15 2.9-5.7 6.5-8 12.4-8 4.4 0 10.1 3.9 10.1 6.9 0 .9.7 2.6 1.5 3.7 1 1.4 1.4 4.7 1.5 11.7 0 8.4.2 9.8 1.8 10.3.9.3 9.2 4.3 18.3 8.9 9.1 4.7 16.9 8.5 17.3 8.5.7 0 .3-1.9-1.2-6-.5-1.2-.3-1.3.9-.3 2.3 1.8 5.2-7.4 3.4-10.7-1.2-2.2-1.2-2.2-2.5 1.1-.6 1.9-1.4 2.9-1.6 2.3-.3-.6.2-3.1 1.1-5.5s2.2-6.9 2.8-9.9c.7-3 3-8.6 5.2-12.4s4.7-8.1 5.5-9.6c.9-1.5 3.2-5 5.3-7.8 3.6-5.1 3.7-5.3 2.3-8.6-1.1-2.7-2.4-3.7-6.4-5-2.8-1-5.3-2.4-5.6-3.2-.3-.7-1.7-1.4-3.1-1.4-1.5 0-3.5-.5-4.6-1-1.8-1-1.8-1.3-.3-4.1 1.8-3.5 1.3-6.3-1.7-9.9-2-2.4-2-2.4-1.4-.3.4 1.6.2 2.3-.7 2.3-1 0-.9.3.2 1 2.2 1.4-2.5 1.3-5.2-.1-1.5-.8-1.9-.8-1.4 0 .9 1.4-.9 1.4-3.5.1-1.4-.8-1.9-.7-1.9.1 0 1.7-4.9-3-6.6-6.4-1.6-2.9-3.4-3.6-3.4-1.2 0 .8-.4 1.5-1 1.5-2.9 0-3.5-25.1-.7-34.1 1.7-5.7 8.5-15.6 15.1-21.8 2-1.9 3.6-3.9 3.6-4.4s-1.4-3.4-3.1-6.4c-2.5-4.4-3.4-5.2-4.5-4.2-1.1.9-2.6-.1-7.4-5.2-6.3-6.8-6.5-7.9-3-12.9 1.8-2.4 1.7-2.6-2.7-11.3-7.8-15.6-7.4-15.8 3.8-2.4 2.6 3.2 2.3 1.9-1.3-5.4-4.2-8.3-5.8-11.9-5.4-11.9.2 0 5.1 5.3 10.8 11.7 9.2 10.4 25.9 32.8 27.4 36.8.4 1.1 1.1 1.2 2.4.5 6.3-3.4 12-4.5 22.5-4.5 14.2 0 16.6 1.2 30.2 15.3C386.2 107.9 389 115 393 149c1.1 9.6 3.6 26 5.5 36.5 6.8 37.4 7.5 42.8 7.5 56.4 0 10.2-.4 13.9-1.6 16.3-1.3 2.5-1.7 7.2-2 22.2-.2 10.5-1 22.5-1.7 26.6-.8 4.1-1.4 7.6-1.3 7.7.4.5 17.6 5.5 28.9 8.3 18.1 4.6 25.1 8.6 38.3 21.9 9.5 9.5 11.9 12.5 16.6 21.5 3.1 5.7 6.1 12 6.8 14l1.2 3.6H512V0H0z"/><path d="M299 152.4c0 .2.8 1 1.8 1.7 1.5 1.3 1.6 1.2.3-.4s-2.1-2.1-2.1-1.3m-44 57.1c0 1.4.5 2.5 1 2.5.6 0 1-1.1 1-2.5s-.4-2.5-1-2.5c-.5 0-1 1.1-1 2.5m.2 28c0 1.6.2 2.2.5 1.2.2-.9.2-2.3 0-3-.3-.6-.5.1-.5 1.8m17.8 19.3v6.7l5.8 2.1c3.1 1.2 12.1 5.1 20 8.8 7.8 3.6 14.6 6.6 15.1 6.6 1.6 0 2.1-3 .9-5-.7-1.1-2.6-2.2-4.3-2.6-1.6-.4-10.5-5.8-19.7-12-9.1-6.3-16.9-11.4-17.2-11.4s-.6 3-.6 6.8m-45.6.3c-20.1 13.9-23.4 16-26.2 16.5-3.2.7-5.8 4.3-4.9 6.8.5 1.3 1.5 1.1 6.4-1.3 13.7-6.7 30.5-14.2 33.3-14.7 2.8-.6 3-1 3-4.8 0-4.7-.9-8.6-1.9-8.6-.4 0-4.7 2.8-9.7 6.1m25 15.5c-1.6 5.3-3.7 10-5.2 11.7-1.4 1.5-7.1 5-12.6 7.9-5.6 2.8-14.4 7.7-19.6 10.8-21.3 12.8-23.6 13.5-30.4 10l-3.9-1.9.6 12.7c.6 13.4 1.7 20.1 6.8 44.9l3.2 15.3H330v-16.3c0-8.9.3-25.4.7-36.5l.6-20.4-3.9 2.1c-6.5 3.5-8.7 2.9-25.5-6.7-8.5-4.9-19.9-11.2-25.4-14.1s-11-6.2-12.2-7.3-3.3-5.8-4.8-10.6-3.1-9.1-3.5-9.6c-.5-.5-2.1 3.1-3.6 8"/></svg>