<svg xmlns="http://www.w3.org/2000/svg" width="682.667" height="512" version="1.0" viewBox="0 0 512 384"><path d="M0 192v192h74.5l4.5-9.8c2.4-5.3 6.5-14.2 9.1-19.7l4.6-10-.8-12c-.4-6.6-.8-14.2-.8-16.9-.1-4.2-.3-4.7-1.6-3.6-1.3 1-1.5.9-1.5-1.1 0-4.6 4-27 7.1-39.4 3-12.2 3-12.7 1.4-16.7-1.5-3.8-1.5-5.1 0-16.7 1.6-12.4 5.4-26.9 14-54.1 4.2-13.2 8.2-31.4 10.6-47.5 1.7-11.8 4.4-21.5 7.9-28.6 3.7-7.3 20.7-24.9 28.4-29.4 4.5-2.6 5.9-2.9 16-3.2l11.1-.3.9-2.9c1.3-4.5 0-7.8-5-12.5l-4.6-4.3 1.7-3.2c1.6-3.2 1.8-3.3 6.8-2.9 2.9.2 7.9 1.7 11.2 3.3 3.6 1.7 8.1 2.9 11.1 3.1 4.6.3 5.2.1 6.2-2.1.6-1.3 2.6-3.4 4.5-4.6 2.2-1.5 4.7-4.8 7.2-9.6 4.8-9.4 11.5-16.8 19.6-21.6 8.1-4.7 10.4-4.8 4.7-.1-6.1 5.1-6.9 6.7-2.2 4.8 5.6-2.3 5.9-1.2.7 2.6-4.5 3.4-18 19.6-17.1 20.6.3.2 2.2-.2 4.4-.9 5.3-1.9 14.4-3 14.4-1.8 0 .5-.9 1.3-2.1 1.6-1.9.6-1.9.8-.3 1.9 1.5 1.1.6 1.7-6.6 4.2-7.7 2.7-8.4 3.1-10 6.9-.9 2.2-2.5 4.6-3.4 5.4-1.4 1.2-1.4 1.6.8 4.2 1.4 1.6 2.7 3.8 3.1 4.8.3 1.1 2.9 3.7 5.8 6 2.9 2.2 6.3 5.1 7.6 6.5 2.3 2.4 2.3 2.5.5 5.5-2.5 4.2-4.2 4.5-11.4 2.1-5.7-1.9-6.4-2-8.6-.5-4.9 3.2-4.9 5 .1 11.2 2.6 3.1 6.1 8.4 7.8 11.7 2.8 5.6 3.1 7.1 3.5 18.2.3 7.4 0 12.9-.6 14-.9 1.7-1.1 1.6-1.8-1-.9-3.6-2.4-1.6-2.4 3.4 0 2.5-.3 3.1-1.1 2.3s-2.1 0-4.7 2.9c-2 2.2-3.8 3.5-4 2.9-.2-.7-1.5-.3-3.5 1.1-3.3 2.4-6.8 3.1-6.1 1.3.3-.7-.9-1.1-3.1-1.2l-3.6-.1.3 5.1c.3 5.1.2 5.2-2.7 5.5-1.6.2-3.9 1.2-5 2.1-1.1 1-2.7 2-3.5 2.3s-2.5 3.3-3.8 6.7l-2.4 6.1 2.1 2.9c1.9 2.7 7 11.8 11.5 20.5 1.1 2.2 2.1 5.8 2.2 8.2.1 2.3 1 5.6 1.8 7.2.9 1.7 1.6 4.4 1.6 5.9-.1 2.8-.1 2.8-1.7-.7l-1.5-3.5-.9 3c-.5 1.8-.4 4.5.2 7 1.4 5.3 2 6 3.1 4.4.7-1 .8-.5.4 1.3-.4 1.6-.4 2.8-.1 2.8.4 0 7.7-3.6 16.3-8s16.5-8.2 17.5-8.4c1.5-.5 1.7-1.8 1.7-9.9 0-15.4 4.6-22.7 14.3-22.7 3.4 0 5.3.6 7.6 2.6 1.7 1.4 3.1 3.2 3.1 3.9s.7 2.6 1.5 4.1c1 2 1.5 5.9 1.5 12.2 0 8 .2 9.3 1.8 9.8.9.2 8.7 4.1 17.3 8.4 8.6 4.4 15.9 8 16.3 8 .3 0 .4-1.2 0-2.8-.4-1.8-.3-2.3.4-1.3 1.1 1.6 1.5 1 3.1-4.9.8-3 .9-5.3.3-7l-1-2.5-1.7 3.5-1.6 3.5.6-4.5c.3-2.4 1-5 1.6-5.6.6-.7 1.2-3.3 1.3-5.7s1.1-6.1 2.2-8.3c4.4-8.6 9.6-17.8 11.4-20.4 1.1-1.6 2-3.4 2-4.2 0-2.6-4.9-11.8-6.3-11.8-.8 0-2.2-.9-3.1-1.9-1-1.1-3.2-2.1-5-2.3-3-.3-3.1-.4-2.8-4.7.2-3.7-.2-4.9-2.5-7.3-1.4-1.5-3.2-2.8-3.7-2.8-.6 0 .1 1.2 1.7 2.5 3.4 3 3.4 3.7.1 2.5-1.4-.6-4.8-1.1-7.6-1.2-5.1-.2-7.3-1.9-11.5-8.4-.7-1-1.2-1.5-1.2-.9.3 2.4-.2 3.5-1.5 3.5-2 0-3.1-12.5-2.3-25.4.8-12.2 2.9-17.1 11.7-26.8l6.2-6.8-5.3-9.2c-2.9-5.1-6.4-11.1-7.8-13.3s-2.6-4.5-2.7-5c-.1-.6-2.9-6.9-6.2-14-8-17.4-8.5-19.2-3.7-13.5 2.1 2.5 6.7 8.2 10.2 12.7 3.6 4.6 7 8.3 7.7 8.3s2.1-.6 3.2-1.4c1.8-1.4 1.7-1.8-3.5-12.4-2.9-6-5.2-11.4-5-12 .7-2 19.8 20.3 27.7 32.1 4 6.2 7.7 11.5 8.1 11.9.3.4 2.9 0 5.6-.8 3.7-1.2 7.7-1.4 15.2-1.1 12.9.6 15.5 2 29.7 16.1 14.9 14.8 18 21.5 22 47.6 2.4 15.8 5.4 29.3 9.1 41.5 10.3 33.8 12.7 43.2 14.2 56.4 1.2 10.2 1.3 14.3.5 16.5-.7 1.7-.8 3.5-.3 4.5 2.6 4.9 11.1 42 11.1 48.5 0 3.3-.2 3.7-1.5 2.6s-1.5-.5-1.5 4.1c0 9 .4 9.4 7.8 11.4 12.1 3.2 21.5 9.1 33.3 21.2 8.9 9 11.7 12.6 16.7 21.8 3.3 6 6.4 12.2 6.7 13.8l.7 2.7H512V0H0z"/><path d="M299.2 72.2c0 1.9 1.4 5.4 3 8 2.8 4.5 4.8 6.1 4.8 3.8 0-1.2-6.8-15-7.4-15-.3 0-.4 1.5-.4 3.2m-71.3 184.5c-5.2 3.7-13 9.1-17.4 12-12.4 8.2-12.5 8.3-12.5 10.3 0 1.1.2 2 .4 2s7.8-3.5 16.8-7.9c9.1-4.3 18.1-8.4 20.1-9 3.6-1.2 3.7-1.4 3.7-6.4 0-8.4-.5-8.5-11.1-1m45.6-3.5c-.4 1.9-.5 4.9-.3 6.8.3 2.9.8 3.4 4.3 4.5 2.2.7 11.2 4.7 19.9 8.9 10.7 5.2 16.3 7.3 16.9 6.7 1.4-1.4-1.7-4.7-6.3-7.1-1.9-1-9.1-5.8-16-10.7-6.9-5-13.8-9.8-15.2-10.7l-2.7-1.8zm-21 18.9c-1.5 5-3.7 10.2-4.9 11.5-1.1 1.3-7.9 5.6-15.1 9.5-7.1 4-16.4 9.3-20.6 11.9-15.7 9.9-20.6 11.4-27.1 8.6-1.6-.7-1.8-.1-1.8 6 .1 10.4 5.2 38.9 11.1 60.6l1 3.8h130.7l.7-15.3c.3-8.3 1.1-21.5 1.6-29.2s.9-16.9.9-20.4c0-5.6-.2-6.2-1.7-5.5-6.7 2.9-11.2 1.4-28.3-9.1-4.7-2.9-13.9-8.3-20.5-12-6.6-3.6-13-7.6-14.1-8.8-1.2-1.2-3.4-6.4-4.9-11.5-1.6-5-3.1-9.2-3.5-9.2s-1.9 4.1-3.5 9.1"/></svg>