<svg xmlns="http://www.w3.org/2000/svg" width="682.667" height="512" version="1.0" viewBox="0 0 512 384"><path d="M0 192v192l45.2-.2 45.2-.3 5.8-16.3c3.1-9 7.7-20.6 10.2-25.6 4.6-9.6 5-12 4.7-28.1-.2-6.2-1.8-2.4-2.6 5.9-.3 3.9-.9 7.9-1.2 8.9-1 3.8-2.9-2.6-4.2-14.6-1.7-15.2-1-28.7 2.5-43.6.8-3.5 1.2-7.2.9-8.1-.3-1 .6-5.3 2-9.6 3.1-9.8 3.1-11 0-5.9-3.3 5.3-3.2 2.4.1-6.2 10.1-26.4 14.7-49.1 16.9-83.3 3-44.6 6.2-57.5 16.2-65.5 9-7.2 12.3-10.8 12.3-13.5 0-3.6-1.1-4.8-5.7-6.4-8.8-3.1-13.3-7.5-13.3-13.2 0-4.2 6-6.2 30.8-9.9 2.3-.4 4.2-1 4.2-1.5 0-.4-3-1.5-6.7-2.4-9-2.3-14.1-4.6-18.6-8.6-3.8-3.3-5-7.6-2.3-8.6.7-.3 5.6.5 10.8 1.8l9.4 2.3-5.1-8c-6-9.4-8.5-15.2-8.5-20V0H0zM161.3 5.2c6.6 6.6 10.9 12.8 14.9 21.5 3 6.7 3.1 6.7 3.9 3.8.4-1.7 1.2-6.3 1.8-10.3.9-6.2 2.1-9.5 6.9-19.5.2-.4-7.1-.7-16.2-.7H156zm36.2 4.5c-1.5 5.4-4 13.3-5.5 17.5-1.5 4.3-2.5 7.8-2.3 7.8.3 0 2.4-1.6 4.6-3.6 4.2-3.6 23.9-13.8 29-15 6.1-1.4 1.3 4.8-10.3 13.4-3 2.2-9.4 6.1-14.2 8.7-6.4 3.4-8.8 5.2-8.8 6.6 0 1 .2 1.9.4 1.9 4 0 19.2 3.7 23.9 5.8 7.8 3.6 8.9 4.9 8.5 10.4l-.3 4.3-7.4 2.5c-7.8 2.6-8.9 3.8-9 9.6-.1 2.6.6 3.6 3.8 5.7 2.2 1.5 5.2 4.3 6.7 6.4 1.6 2.1 5 6.1 7.5 9 6.9 7.7 9.3 13.3 9.7 22.6.4 6.7.1 8.5-2.1 13-1.4 2.8-3.1 7-3.8 9.2l-1.4 4-.5-4.5c-.3-2.7-.8-4-1.3-3.3-.9 1.4 1.4 38.8 4 64.3.9 9.1 1.6 17.8 1.5 19.3l-.1 2.8 4.2-2.2c2.3-1.2 4.9-2.5 5.7-2.9 1.1-.5 1.7-3.8 2.5-13.5 1-12.4 1.1-12.8 3.9-15 2.6-2.1 7-3.4 12.7-4 .9-.1 3.4 1 5.5 2.5l3.9 2.6.7 11.9c.4 6.6 1.3 13 2 14.3s2.8 3.1 4.8 4c1.9.9 3.8 1.8 4.1 1.9.4.2.9-1.1 1.2-2.9 1-5.5 6.7-74.5 6.7-80.6 0-1.4-1.7-3.9-4.2-6.3l-4.3-4.1v-10.6c0-11.8.6-13.5 8.5-23.2 5.4-6.6 5.4-6.5 2.3-12.2-9.9-18.1-12.3-40.4-6.8-62.4 1.5-6 3.1-11.6 3.6-12.4.5-.9.9 2.7.9 9.3 0 22.8 3.3 40 10.2 54.5l4 8.2 3.5-2.1c11-6.8 19.9-9.3 31.7-8.7 10.5.5 16.7 3 24.3 10.1l4.5 4.1 1.7-2.3c1-1.3 2.6-4.7 3.6-7.5s2-5.7 2.3-6.4c.3-1-.1-1-2.1-.1-1.4.6-3.2.9-4 .6s-4.1-3.8-7.3-7.7c-6.2-7.7-6.3-8.5-1.3-12.2 1.6-1.2 5-2.1 9.8-2.5 6.6-.6 7.4-.8 8.3-3.2 1.1-2.8 1.3-19.4.3-24.2-.4-1.7-.2-2.9.4-2.9 1 0 4.8 11.1 7.1 20.8 1 4.3 1.5 5.2 2.9 4.7 2.9-1.2 8.9-1.8 11.6-1.1 1.4.4 4.3 2.3 6.5 4.3l4 3.6-4.8 5.1c-2.7 2.8-5.6 6.3-6.6 7.8-2.4 3.7-3.3 3.5-5.2-1.2-.9-2.2-2.8-4.9-4.3-5.9l-2.7-1.9-.1 6.6c0 8.2-3.4 21.4-7.3 29.3l-3 5.9 1.9 3.8c4.3 8.4 6.3 21.2 8.6 53.8 2.3 33.6 6.1 53.5 15 78.8 4.8 13.9 5.1 15.1 3.3 14-.8-.5-.9 0-.4 1.7 7.5 27.2 10.1 43.9 9.4 60.9l-.4 10.7 5.5 1.8c7.8 2.4 19.9 9 24.5 13.3 9.4 9 17.8 20.4 22.7 30.8 2.7 5.7 5.2 11.8 5.6 13.4l.6 3H512V0H200.3z"/><path d="M295.1 176.5c-.7 8.2-2.3 24.4-3.6 36-2.2 19.4-2.3 21.1-.8 22.2 2.5 1.9 3.3 1.6 3.3-1.1 0-1.4.5-3.7 1.2-5.3 1.4-3.3 1.6-7 2.4-33.3.3-10.7.1-22.7-.3-26.5l-.9-7zm-80.6-.3c-.6 10.1-.3 25.9 1 42.8.2 3 1 8.1 1.7 11.3 1.3 5.3 1.5 5.6 3.2 4.4 1.8-1.3 1.8-2-.3-22.8-1.1-11.8-2.6-27-3.2-33.9s-1.2-12.6-1.4-12.8-.6 4.8-1 11m20.6 71.2c-3 3.2-2.7 9.3.4 8.8 2.5-.5 2.2.2 3-6 .8-5.8 0-6.4-3.4-2.8m38.3 3.1c.8 6.7.9 7 3.1 6.2 1-.4 1.5-1.9 1.5-4.4-.1-2.9-.7-4.2-2.7-5.7l-2.6-1.9zm-20.2 8.7c-1.2 3.5-2.4 8-2.8 10.1-.7 3.9-3.4 7.2-12.2 14.8-4 3.4-4.2 3.8-4.3 9.5 0 3.2-.4 8.1-.8 10.9l-.7 5-1.3-5.8c-1.2-5.5-2.4-7.1-3.4-4.5-.3.7-.6-.4-.6-2.6l-.1-3.8-2.7 1.8c-2.8 1.8-23.3 18.5-23.3 18.9 0 1.4 16.1 28.5 18.9 31.9 1.5 1.8 1.5 1.8-1.4.3-1.6-.8-4-2.8-5.2-4.4-1.2-1.7-5-6.3-8.4-10.3-5.9-6.8-6.4-7.2-7-4.9s-.7 2.2-1.7-1.1l-1-3.5-.1 5.3c-.1 6.9 1.9 16.7 8.1 38.9l5 18.3h105.4l2.2-29.8c2.6-34.6 2.7-36.3.6-30.8-2.1 5.7-2.8 5.8-2 .1l.6-5-11 11.7c-6.1 6.5-12.5 12.7-14.1 13.9-2.9 2.1-2.9 1.9 1.1-3.7 12.1-17 18.7-28.2 17.3-29.4-4.2-3.9-23.9-19-24.7-19-1.1 0-3.5 4.8-7 13.5-1.5 4-1.6 3.9-1.4-8l.1-12-5.2-4.1c-7.2-5.6-6.8-5-9.6-14.8-1.4-4.9-3.1-9.9-3.8-11.3-1.3-2.3-1.4-2.2-3.5 3.9m33.6.2c-.3 1.7.1 3.1 1.3 4.2 2.7 2.4 2.9 1.5.9-2.9-1.7-3.7-1.8-3.8-2.2-1.3m-64.2 2.2c-.4.9-.4 1.9-.1 2.2.2.3.7-.3 1.1-1.2s.4-1.9.1-2.2c-.2-.3-.7.3-1.1 1.2m180.5 46.6c-1.3 9.1-1.3 9.2.9 11 2.5 2.1 5 2.4 5 .6 0-2.2-3.2-18.3-3.9-19.6-.4-.7-1.3 2.9-2 8"/></svg>