<svg xmlns="http://www.w3.org/2000/svg" width="682.667" height="512" version="1.0" viewBox="0 0 512 384"><path d="M0 192v192h92.6l3.8-11.3c5.9-17.5 11.3-30.8 15.1-37.1 4-6.6 4-7.1 2-18.1-.8-4.4-1.4-12.6-1.5-18.3 0-5.7-.4-11.1-.8-12-.5-1-.1-6.1 1-12.6 1.1-6.7 1.4-11.4.9-12.4-.6-1-.4-3.3.5-6.1.8-2.9 1-4.9.4-5.7-.7-.7 0-4.4 1.9-11 7.5-25.3 10.7-46.5 14.6-95.9 2.8-35.2 5-42.5 16.1-53.6 7.1-6.9 7.5-7.6 6.9-10.8-1.3-6.8-2-7.6-8.2-9.4-7.2-2-10.1-4.2-10.9-8.4-.8-4.3 1.9-5.9 13.9-8.3 5.2-1.1 11-2.6 12.8-3.4 1.9-.8 4.2-1.7 5.2-2 3.3-1 1.7-2.2-5.3-4-14.3-3.8-24-10.3-24-16.3 0-2.5.1-2.5 4.9-1.9 2.7.4 7.4 1.5 10.5 2.5s5.6 1.6 5.6 1.3-1.1-2.2-2.3-4.1c-7.2-10.8-9-14.1-10.5-19.3L143.5 0H0zm113.3 60.5c-.3.9-.8 1.4-1 1.1-.3-.3-.2-.9.2-1.5.9-1.6 1.5-1.3.8.4M159.5 6.2c5.7 6.3 14 19.3 15.1 23.5.4 1.3 1 2.3 1.4 2.3.9 0 1.4-3.1 2.4-14.1.3-3 1.5-8.1 2.6-11.4 1.1-3.2 2-6 2-6.2 0-.1-6.6-.3-14.6-.3h-14.6zM194.7.7c-.4.3-.7 1.8-.7 3.2 0 2.6-5.1 23.9-6.6 27.6-.5 1.3.7.7 4.2-2.1 8.2-6.9 27.4-17.1 29.6-15.8 2.3 1.4-8.2 12.6-17.8 19.1-3.3 2.2-8.3 5.3-11.1 6.9-9.2 5.1-7.1 6.9 11.2 9.9 4.6.7 10.4 2.2 12.9 3.4 4.4 1.9 4.6 2.2 4.6 6 0 3.4-.4 4.3-2.8 5.5-1.5.8-4.5 1.7-6.5 2.1-4.5.9-6.7 4.3-6.7 10.4 0 3.4.5 4.2 3.4 6 4.8 3 21 21.3 23.5 26.6 1.2 2.6 2.4 7.6 2.7 11.8.5 6.2.2 8.4-2.4 16-3.2 9.7-4.2 11.4-4.2 7.3 0-1.6-.4-2.5-1-2.1-1.4.9-1.2 13.9.5 36.5 1.6 20.1 4.3 45.1 4.9 45.7.5.6 7.2-2.5 8.4-3.9.6-.8 1.3-6.5 1.6-12.7.3-9.1.8-11.6 2.3-13.3 2.7-3.1 7.6-4.8 13.6-4.8 4.6 0 5.7.4 8.1 2.9 2.8 2.9 2.9 3.4 3.1 14.6.2 9.7.5 11.9 2.1 13.6 1.9 2.1 7.3 5.3 7.9 4.7s3.4-27.3 5-47.3c2.1-27 2-35.1-.6-40-1.2-2.2-2.8-5.3-3.6-6.9-.9-1.5-1.8-5.6-2-9-.6-8 2-15 8.8-23.4l5-6.3-3.5-8.2c-5.5-12.8-6.9-19.5-6.9-33.7 0-13.2 1.4-20.8 6.7-35.4 2.7-7.2 4.3-10.1 3-5.1-.5 1.7-.8 11.8-.8 22.5 0 16.9.3 20.7 2.2 28.5 2.2 8.8 8 22.8 9.1 22.3.3-.2 3.3-1.7 6.7-3.5 9-4.7 17.4-6.6 26.9-6.1 10 .5 16.8 3.5 24.8 10.8 6.5 6 6.1 6.1 11.1-3 3-5.5 7.1-16.1 5.4-13.9-1.6 2-4.9 3.1-6.4 2.1-2.7-1.8-11.4-15.1-10.8-16.6 1.1-2.9 8.9-5.8 15.1-5.5l5.7.3 1.4-4.5c.9-2.9 1.2-7.6.9-13.6-.5-10.3.5-13.9 2.2-7.7 1 4 3.5 14.6 4.6 19.8.5 2.3 1 2.7 2.8 2.1 1.2-.3 4-.9 6.3-1.2 3.6-.5 4.5-.1 7.8 2.7 6.5 5.7 6.5 6-1.4 14-6.7 6.8-9 7.9-9 4.2 0-2.2-3.7-8.2-5-8.2-.5 0-1 1.2-1 2.7 0 3.6-2.5 15.7-4.4 21s-4.1 9.6-8.2 15.9c-3.3 5-3.4 5.2-1.9 8.7 2.3 5.6 4.3 19.1 6.5 45.2 4.4 50.8 5.8 60.4 13 86.2 4.1 14.6 4.8 18.1 3 15.3-1.4-2.1-1.2-.6.6 5.6.9 3.1 1.3 6.2 1 7-.3.9 0 4.8.8 8.7.8 4 1.7 9 2 11.2.8 5.9.9 28.5.1 32.7-.7 3.6-.7 3.7 3.2 4.3 19.6 3.5 33 11.9 48.3 30.4 4.9 5.9 13.8 23.3 15.6 30.5l.6 2.6H512V0H353.7c-87.1 0-158.7.3-159 .7m25.4 206.9c0 3.9-.5 9.5-1.1 12.5-.7 4-.6 6.5.3 9.7 1.2 3.8 1.4 4.1 3.1 2.9 1.8-1.3 1.8-1.9-.2-16.8-1.8-13.8-2-14.6-2.1-8.3"/><path d="M290.7 209.5c-3.5 22.5-3.4 21.5-1.7 23 2.4 2.2 2.8 1.9 4-2.5.7-2.8.8-5.9 0-10.2-.5-3.5-1.1-8.3-1.3-10.8l-.2-4.5zm-54.6 35.9c-1.2 1.4-.5 7.3 1 8.2.5.3.9-.7.9-2.3 0-1.5.3-3.8.6-5.1.7-2.4-.7-3-2.5-.8m36.9.4c0 4.2 1.3 8.4 2.1 7 1.4-2.1 1-6.4-.6-7.8-1.2-1-1.5-.9-1.5.8m-19.8 10.9c-1.1 3.2-2.4 7.4-2.8 9.3-.9 4.8-2.9 8.5-5.9 10.8-1.4 1.1-2.5 2.6-2.5 3.4s1.8 9.3 4 18.8 3.8 17.5 3.5 17.8-.5 0-.5-.6-.7-1.7-1.5-2.6c-1.2-1.2-8.4-16.8-12.4-27-.6-1.7-2.6-.3-14.8 10.2l-14.1 12.1.5 8.8c.5 8.2.4 8.6-1.1 6.7-.8-1.2-1.8-4-2.2-6.3-.8-4.9-1.7-5.7-3.8-3.5-1.1 1.1-1.6 3.4-1.6 7.8 0 5.9.3 6.7 5 13.4 2.8 4 4.7 7.2 4.4 7.2-.4 0 .1 1 1.2 2.3 5 5.7 4.3 5.7-1.8-.1-6.7-6.2-9.4-7.7-8.4-4.5.3 1 1 3.8 1.6 6.3s3.2 11.8 5.7 20.7l4.6 16.3h100.5l.6-2.8c.6-3.1 2.2-21.5 3.2-37.2l.7-10.5-2.4 2.1c-16.2 14.1-16.3 14.1-13.5 9.9 1.5-2.2 3.3-4.3 3.9-4.7.8-.5.5-.8-.8-.9-1.1 0-1.5-.3-.8-.5.6-.3 3.7-3.9 6.9-8 5.4-7.1 5.6-7.6 5.1-12.1-.3-2.9-1.2-5.2-2.3-6-1.7-1.3-2-.9-3.5 5.2-.8 3.5-1.9 6.8-2.2 7.2-.4.3-.7-3.4-.7-8.4v-9.1l-13.5-11.4c-7.5-6.2-14-11.4-14.5-11.6-.6-.2-1.3.5-1.6 1.5-1.5 4.1-8.5 18.3-12.8 25.8-4.5 7.9-6 8.8-3.1 1.8 1.3-3.2 7.9-26 9.2-32 .4-1.6-.6-3.5-3.1-6.4-2-2.4-3.6-5.1-3.6-6.2 0-2.1-4.8-16.8-6-18-.4-.5-1.7 1.8-2.8 5m-26.4-.3c-.3 1.4-.2 2.6.3 2.6 1.4 0 2-2 1.1-3.6-.8-1.4-1-1.2-1.4 1m56.9-1.8c-1.1 1.1-.8 4.2.4 4.9 1.6 1 1.9.2 1.1-2.9-.4-1.5-1.1-2.4-1.5-2m109.6 55c-.6 3.2-1 6-.9 6 0 .1 1.1.5 2.3.8 2 .7 2.2.5 1.6-3.1-.3-2.1-.8-5.1-1.2-6.7-.6-2.7-.8-2.4-1.8 3m-273.6 8.7c-1.1 2.9-.9 5.3.4 4 .6-.6.9-2.1.7-3.4-.3-2.1-.4-2.2-1.1-.6"/></svg>