<svg xmlns="http://www.w3.org/2000/svg" width="682.667" height="512" version="1.0" viewBox="0 0 512 384"><path d="M0 192v192l48.1-.2 48.2-.3 6.1-18c3.4-9.9 7.2-20.1 8.3-22.7 2.7-5.9 10.2-17.6 15.7-24.4l4.2-5.1-1.2-8.4c-.7-4.6-1.4-12.5-1.4-17.4l-.2-9-2.1 6.5c-1.8 5.4-2.2 6-2.5 3.7-.2-1.5.4-7.6 1.2-13.5 1.9-12.8 1.9-14.7.2-10.7-1.3 2.9-1.3 2.8-.9-2 .3-2.8 1.8-11.5 3.3-19.5 4.7-24.2 5.8-34.3 6.9-64.5 2.4-63 4-70.8 18.1-88.3 3.9-4.8 4.8-6.6 4.1-8-.5-.9-1.7-3.8-2.6-6.5-1.9-5.3-3.7-6.6-11.5-8.2-5.1-1.1-5.5-1.4-5.8-4.2l-.3-3.2 7.7-1.2c6.4-1.1 8.3-1.9 11.2-4.6 1.8-1.7 5.4-4 7.8-4.9 6.8-2.6 6.2-3.5-4.8-6.5-3.9-1.1-9.5-3.2-12.5-4.6-6.1-3-13.3-10.2-13.3-13.3 0-2.8 3.5-2.6 14.6.9l9.2 2.8-4.4-6.8C146 13.5 142 5.3 142 2.2V0H0zM153.1 1.7c.8 1 2.4 2.9 3.7 4.3 3.2 3.4 12.6 17.6 14.8 22.2 1 2.1 2.1 3.8 2.4 3.8.4 0 1-4.2 1.3-9.3s1.5-12.2 2.6-15.7c1.2-3.6 2.1-6.6 2.1-6.8 0-.1-6.4-.2-14.1-.2-13.3 0-14.1.1-12.8 1.7m37.1 7.5c-.6 5.1-1.8 11.8-2.6 14.8s-1.3 5.6-1.2 5.7 2.4-1.6 5.1-3.7c5.9-4.7 22.6-15 24.3-15 4.4 0-4.4 13.3-13.4 20.4-3.1 2.4-8.3 5.9-11.5 7.8-7.6 4.3-7.7 6.2-.1 7.7 3.2.6 6.9 1.9 8.2 2.8 1.6 1.1 5 1.8 10 2.1 9.7.4 10.2.6 9.8 3.9-.2 2.1-1 2.9-3.5 3.6-1.7.5-4.7 2.2-6.5 3.7-2.9 2.4-3.3 3.4-3.8 9.3l-.5 6.6 3 1.3c1.6.6 7.2 5.2 12.3 10.2 10.6 10.2 14.3 16.4 16.1 26.6.9 5.6.8 7.9-1.1 17.2-1.2 6-2.5 10.8-3 10.8s-.7.4-.3.9c.3.5.1 1.2-.5 1.6-.5.3-1 1.5-1 2.5s-.4 2-1 2.2-.7 2.4-.1 6.3c.5 3.3 1.2 18.4 1.5 33.5.4 15.1.9 28.5 1.2 29.7.6 2.1.7 2.2 3.3.5 6.6-4.2 8.9-11.1 7.4-22-.5-3.9-.3-4.6 2.7-7.7 2.9-3 4-3.4 10.6-4 6.9-.7 7.5-.6 10.6 1.9l3.3 2.5v10.8c0 10 .2 11.1 2.5 14.1 2.6 3.5 7.6 6.7 8.3 5.4.3-.4.8-9.9 1.1-21.2.4-11.3.9-26.6 1.2-34.1.4-11.5.2-14.9-1.5-21.5-1.1-4.4-2.5-12.4-3.1-17.9-1.6-15.8.5-24.2 8.4-32.8l3.6-3.9-1.7-3.6c-5.7-12.8-6.6-17.2-6.6-31.7 0-9.9.4-15.8 1.6-20.3 2.1-7.8 10-26.9 10.5-25.4.2.6-.3 5.3-1.2 10.4-2.4 14.7-2.9 25.6-1.6 34.3 1.4 9.9 3.7 18.9 6.2 23.8L299 83l4.8-2.3c13.2-6.7 30.2-7.5 42-2.2 4.3 1.9 7.8 4.5 11.2 8.2 2.7 2.9 5.3 5.3 5.8 5.3C365 92 378 71.5 378 68c0-.6-.8-.9-1.8-.6-2.2.7-4.5-1.6-9.7-9.7-2-3.2-3.4-6.5-3.1-7.3 1-2.6 7.5-4.6 14-4.2l6 .3 1.2-4c.7-2.2 1.3-8.1 1.3-13.2.1-15.1 2.4-12.3 5.2 6.4.7 4.6 1.7 8.3 2.3 8.3s2.7-.5 4.7-1c2.6-.7 4.6-.7 6.5 0 3.1 1.2 9.4 6.8 9.4 8.3 0 .5-3.2 4-7.2 7.9l-7.2 7-2.2-4.9c-2.8-6.6-5.1-7.5-5.9-2.5-2.7 15.6-8 27.9-16.5 38.1l-5.8 6.8 1.5 3.4c3.7 8.8 5.7 25.7 6.8 58.4 1.4 44.8 2 50.1 7.6 78.9 3 15.4 3.7 22.4 1.9 19.6-1.3-2.1-1.3.1.5 13 .8 5.8 1.4 11.6 1.4 13v2.5l-1.3-2.4c-1.1-2.1-1.4-1.2-2 8.5-.4 6-.9 11.8-1.2 13-.5 1.8.5 2.4 8.3 5.2 4.8 1.6 13 4.2 18.1 5.6 16.1 4.5 27.7 12.8 40 28.7 4.9 6.2 15.2 27.5 15.2 31.3 0 1.4 2.5 1.6 23 1.6h23V0H191.4z"/><path d="M228.7 138.9c-.4 1.8-.6 5.4-.6 8l.1 4.6.9-6c1.1-7 .8-11.9-.4-6.6m54.6 8.6c0 2.2.2 3 .4 1.7.2-1.2.2-3 0-4-.3-.9-.5.1-.4 2.3m-48.1 96.8c-2.1 2.2-3.1 7.7-1.4 7.7 2-.1 3.5-2.1 4.2-5.9.8-4.7.3-5.1-2.8-1.8m38.4 1.9c.6 3.9 2.5 6.8 4.6 6.8 1.6 0 .8-6.7-.9-8.2-3.9-3.3-4.4-3.2-3.7 1.4m-20.4 6.3c-1.2 3.3-2.6 8.2-3.2 11-.9 4.1-2.2 6.1-7.1 11.1l-6 6.1 1.6 8.4c.9 4.6 2.9 14.7 4.5 22.4 4.7 23.1 5.2 25.6 4.7 26.1-.8.8-14.5-36-16.8-45.4-.7-2.8-1.5-5.2-1.9-5.2-.3 0-2.7 2.2-5.4 4.9l-4.8 4.9.7 14.4c.9 18.5-.2 17.8-4.4-2.7l-.8-4-.6 3.5c-.3 1.9-.9 10.5-1.2 19-.5 13.8-1.4 18.5-3 16.9-.2-.3-1.7-5.7-3.3-12l-2.9-11.4-1.2 3.9c-.8 2.1-1.3 5.9-1.3 8.5 0 4.6 4.5 22.9 10 41.1l2.8 9.5 47.1.3 47 .2.6-3.7c.4-2.1 1.3-12.6 2.2-23.3 1.5-18 1.5-20.2-.1-28.8-.9-5-1.8-9.2-1.9-9.2-.2 0-1.3 4.4-2.6 9.7-1.2 5.4-3 11.4-3.8 13.3l-1.5 3.5-.8-7c-.4-3.9-1.1-13.3-1.6-21l-.8-14-1.2 6c-1.8 8.4-4.2 16.8-4.7 16.3-.2-.2 0-6.9.5-14.8l1-14.5-4.8-4.2c-5.3-4.8-6.2-5.1-6.2-2.3 0 4.1-14.6 45-16.1 45-.9 0-.1-8 1.6-15.5.8-3.9 2.9-14 4.6-22.5l3-15.5-6.4-6.5c-5.7-5.8-6.5-7.1-7.1-11.5-.4-2.8-1.9-7.7-3.4-11l-2.8-5.9z"/></svg>