<svg xmlns="http://www.w3.org/2000/svg" width="682.667" height="512" version="1.0" viewBox="0 0 512 384"><path d="M0 192v192h97.8l5.7-17.3c8.5-25.7 12.9-33.9 28.7-53.6 4.9-6.2 6.4-8.8 5.7-9.7-.6-.7-1.3-7.2-1.6-14.5l-.6-13.3-1.9 6.9c-3.7 13.8-4.2 12.9-2.3-4 1.7-14.9 1.7-15.9.4-12.6-2.7 6.8-1.7-2.3 4.3-38.4 2-11.6 2.2-17.1 2.4-51.5.1-52.4 1-60.6 7.1-72 4-7.4 7.3-12.1 11.6-16.8 2.3-2.3 2.7-3.2 1.5-3.2-1 0-1.8-1.3-2.3-3.8-1.3-7.1-4.9-10.3-13.3-11.7-4.1-.7-7-3.4-5.7-5.4.3-.5 3.7-1.5 7.6-2.1 5.9-1 7.5-1.7 10-4.4 1.6-1.8 5.2-4.3 7.9-5.6 2.8-1.3 4.9-2.8 4.7-3.4s-4.4-2.2-9.3-3.6c-4.9-1.5-11.1-3.7-13.7-4.9C138 35.8 130 28.4 130 25.4c0-3.2 1.5-3.1 14.9.9l10.9 3.4-5.7-8.6C144.2 12.4 141 5.6 141 2c0-2-.9-2-70.5-2H0zM156.1 7.9c7.3 8.1 13.9 17.3 16 22.3.6 1.5 1.5 2.8 2 2.8.8 0 1.3-2.3 1-4.4-.4-2.3 2.2-17.2 3.9-22.2 1.1-3.2 2-5.9 2-6.1 0-.1-7.2-.3-16.1-.3h-16zm34.9-3c0 4.9-2.4 20.3-3.7 23.7-.5 1.4.3 1.1 3.2-1.2 7.3-5.7 22.4-15.4 24-15.4 2.5 0 1.7 3.4-2.3 9.6-4.5 6.9-12.2 13.8-20.7 18.6-3.3 1.9-6 4-6 4.8s2 1.8 5.5 2.5c5.9 1.2 9 2.5 10.8 4.8.9 1 2.3 1.2 5.9.6 2.7-.4 6.3-.8 8.1-.8 2.9-.1 3.2.2 3.2 2.7s-.6 3-3.9 4.1C209.3 60.6 206 65 206 71c0 2.7-.2 5.5-.5 6.2-.4.9.8 2 3.2 3.1 2.1.9 8.3 6 13.9 11.4 9.5 9.3 10.2 10.2 12.5 17.3 3 9.3 2.9 17-.4 32.9-1.7 8.4-2.2 12.7-1.6 16.2 1.4 8.6 3.2 48.2 2.5 55.9l-.6 7.5 3.4-4c3.8-4.4 5.6-12.1 3.9-17.2-2.2-6.8 2-11.7 11.1-13.1 10.5-1.7 17.3 2.3 16.6 9.6-.9 9.6-.3 16.3 1.7 18.5 1.1 1.2 2.3 3 2.6 3.9.4 1 1.1 1.8 1.6 1.8.7 0 .8-2.9.4-7.8-.5-7.5 1.1-43.6 2.5-55.2.5-3.8.1-8.1-1.1-14-1.4-6.7-1.7-11.1-1.3-21.1.7-14.8 2.2-20.1 7.8-26.4l4.1-4.6-2.7-6.2c-8.9-21-7.1-45 5.3-68.2 3.5-6.7 3.6-6.6.6 9.5-3.3 18.3-.8 46.7 4.7 54.3 1.3 1.7 1.6 1.7 7-.8 9.3-4.3 19.7-6 28.2-4.6 9.7 1.6 18.4 6 23.9 12.1 2.7 3 5.1 4.8 5.9 4.4 2.1-.9 9.2-10.3 13.2-17.6 4.1-7.7 4.2-8 1.9-7.7-3.6.3-4.3-.3-9.2-7.8-4.8-7.2-5-7.8-3.4-9.5 2.4-2.7 8.2-3.9 13.7-2.9 4.5.8 4.7.8 6.2-2 .9-1.7 1.7-7.3 2.1-13.9.3-6 .9-10.7 1.4-10.5.4.3 1.5 4.9 2.4 10.3.9 5.3 1.8 10.6 2 11.7.4 1.9 1 2.1 6.9 1.7 6.4-.4 6.4-.4 11 3.8l4.6 4.2-7.1 6.9c-3.9 3.8-7.3 6.9-7.5 6.9s-1.2-1.7-2.3-3.8c-1-2-2.8-4.5-3.9-5.5-2-1.9-2.1-1.8-2.8 3-1 6.8-5 18.8-8.6 25.5-1.7 3.1-5.7 8.8-8.9 12.7l-5.9 6.9 2 4.4c3.2 7.2 4.3 23.6 4.1 60.1-.2 36 .3 42.9 5 73.2 3.2 20.9 3.5 24.9 1.8 22.5-.8-1.1-.9.4-.5 5.5.4 3.8.8 10.4 1.1 14.5l.5 7.5-1.9-6.3c-1.1-3.5-2.1-6.8-2.3-7.3s-.4 6.3-.5 15c-.2 18.4-.2 18.4 9.5 21.2 3.2 1 8.4 2.6 11.7 3.7s8.9 2.8 12.5 3.8c20.1 5.4 38.6 22.5 48.4 45 2.6 5.9 5 12 5.3 13.5l.6 2.9H512V0H191z"/><path d="M230.7 136.4c-1 2.5-.9 6.4.2 7 1.2.8 2.1-4.3 1.2-6.8-.7-1.8-.8-1.8-1.4-.2m48.4 3.1c.1 1.1.5 3.3.9 5l.8 3 .1-3.5c0-1.9-.4-4.2-.9-5-.8-1.2-1-1.1-.9.5m-44.4 104c-2.2 2.1-2.5 3-1.7 4.5.6 1.1 1.4 2 1.9 2 1.8 0 3.2-3 2.9-6l-.3-3zm39.1 1.5c.5 5.1 3.4 7.1 5 3.6.9-2 .7-2.8-1.7-5-1.5-1.4-2.9-2.6-3.2-2.6-.2 0-.3 1.8-.1 4m-20.7 5.7c-1.2 3.2-2.7 8-3.2 10.8-.8 4.4-1.9 6-9.3 13.5l-8.4 8.5-.6 27.8c-.6 28-1.7 37-3 24.4-.3-3.5-1.3-7.7-2-9.3-.8-1.6-2.3-7-3.3-11.9l-1.8-9-.9 18.7c-.5 10.4-1.2 18.8-1.6 18.8-1.1 0-2.7-5-6.1-18.5-2.4-9.8-2.7-10.5-2.8-6.3-.1 5.8-2.7 17.1-4.8 21.2-1.8 3.4-1.6 4.5 4.4 25.1 2 6.6 4 13.7 4.5 15.7l1 3.8h90.6l.5-3.3c.4-1.7 1.3-10 2.2-18.4l1.7-15.2-3-6.3c-3-6.3-5.2-15.3-5.2-21.5 0-6.3-1.6-3.2-4.4 8.4-1.5 6.5-3.3 12.9-4 14.2-1.2 2.1-1.4 1.6-1.9-5.4-.4-4.3-.7-13-.7-19.3 0-6.4-.3-11.3-.6-11-1.2 1.2-4.3 18-5.6 29.9l-1.3 12.4-.6-7.5c-.4-4.1-1-18.6-1.4-32.3l-.8-24.7-7.9-7.1c-8.5-7.7-10.2-10.2-11.1-16.5-.6-3.7-5.2-15.4-6-15.4-.3 0-1.4 2.6-2.6 5.7"/></svg>