<svg xmlns="http://www.w3.org/2000/svg" width="682.667" height="512" version="1.0" viewBox="0 0 512 384"><path d="M0 192v192h98.5l5.9-17.8c7.1-21.2 12.4-32.2 20.9-43.4 3.4-4.6 8.3-11 10.8-14.3 6.2-8 7.5-11.1 7.4-16.5-.1-2.5-.2-6.9-.3-9.8s-.6-5.1-1-4.8c-.5.3-1.7 3.9-2.7 8-1.9 7.6-3.8 10.5-2.9 4.4 1.6-10.7 3.1-24.4 2.7-24.8-.2-.2-.8.2-1.3 1-.9 1.3-1 1.3-1 0 0-.8 1.4-12.3 3.1-25.5l3.2-24-1.3-31c-1.4-33.9-1.4-56 0-67.2.8-5.8 1.9-8.9 5.6-15.5 2.6-4.6 6.5-10.4 8.6-13.1 2.2-2.6 3.5-4.7 3-4.7-.6 0-1.8-2.5-2.7-5.5-1.8-6.4-4.4-8.5-11.3-9.3-5.6-.6-7.2-1.6-7.2-4.7 0-1.9.9-2.6 4.8-3.8 2.6-.9 6.1-1.8 7.8-2.2 1.7-.3 4.1-1.6 5.3-2.9s4.4-3.3 7.1-4.6c7.4-3.5 7-4.1-4.5-7-10.5-2.7-19.5-7.2-24.9-12.5-4.8-4.6-6-8.5-2.8-8.5 1 0 6.7 1.4 12.7 3 5.9 1.7 10.9 2.9 11.1 2.8.1-.2-1.5-2.7-3.7-5.6-5.4-7-9.5-15.1-10.4-20.1l-.7-4.1H0zm138 77c0 .5-.4 1-1 1-.5 0-1-.5-1-1 0-.6.5-1 1-1 .6 0 1 .4 1 1M154.8 8.6c7.4 7.8 16.1 19.4 17.8 23.7 1.3 3.5 2.2 1.5 2.8-6.6.6-6.9 2.8-15.5 6.1-24C182.2.1 181 0 164.4 0h-17.9zm35.9 1.1c-.4 5.4-1.3 12.4-2 15.5l-1.4 5.7 4.1-3.3c4.7-3.8 13.7-9.6 19.5-12.5 5.3-2.7 6-1.4 2.7 5.4-3.2 6.5-12.7 15.5-21.9 20.9-3.7 2.1-6.7 4.3-6.7 4.7 0 .5.2.9.4.9 2.7 0 11.6 2.4 13.5 3.7s4.8 1.7 11.1 1.8c8.3 0 8.5.1 8.8 2.5.2 2.1-.4 2.8-4.3 4.4-6.6 2.7-8.5 5.6-8.5 13v6.1l4.3 2.3c6.9 3.7 20.3 17.1 23.2 23.3 3.9 8.7 5.1 18.1 3.6 29.1-.7 5.1-1.7 11-2.2 13.1-.7 2.7-.6 6.6.5 14 1.8 11.3 3.6 35.1 3.6 46.5 0 5.5.3 7.3 1.3 7 2.1-.8 3.1-9.5 1.6-14-1.1-3.4-1.1-4.4.2-6.6 2.9-5.1 6.3-6.7 14.5-6.6 7.1.1 7.6.2 10.9 3.4 3.8 3.6 4.1 5.2 2.4 10.9-1.2 4.1-.1 12.2 1.7 12.8.7.2 1.3-5 1.8-15.9.3-9 1.4-22.4 2.3-29.8 2-16.1 2-18.2.3-28.4-1.1-6.5-1.1-10 0-19 1.6-14.3 3.1-19.2 7.8-24.6l3.9-4.4-2.4-5.2c-6.9-15.2-7-37.1 0-55.4 2.9-7.7 8.7-19.4 9.3-18.8.2.3-.8 6-2.2 12.9-2.3 11-2.5 14.1-2.2 27.9.4 13.6.8 16.3 3 22.3 1.4 3.8 2.9 7.1 3.2 7.4.3.4 2.3-.3 4.5-1.5C306 78.3 316.1 76 324 76c12.5 0 24.1 4.9 31.4 13.3l4.3 4.8 4.4-4.8c4.8-5.1 11.5-15.7 12.5-19.9.6-2.3.4-2.5-1.4-2-1.6.5-2.8-.3-5.4-3.6-1.9-2.4-4.5-6-5.8-8.1l-2.3-3.9 2.2-2.1c1.9-1.9 3.2-2.2 10.6-2.1l8.4.1 1.1-3.1c.6-1.7 1.3-7.7 1.7-13.4.3-5.6 1-9.9 1.4-9.5.5.5 1.5 5.3 2.4 10.8 2.2 14.2 1.6 13.2 8.4 12.7 5.9-.4 5.9-.4 10.6 4.2l4.6 4.7-5.7 5.2c-7.5 6.9-8.5 7.5-9.8 5.2-3.1-5.1-5.2-7.9-6.5-8.3-1-.3-1.2 0-.8 1.2.8 1.9-3 15.8-6.1 23-2.9 6.4-7.7 13.3-13.6 19.3l-5 5.3 1.7 3c3.8 6.4 4.6 28.6 2.5 77.7l-1.2 29.2 3.3 26.1c1.8 14.4 3 26.4 2.7 26.7s-.8-.7-1.2-2.1c-1.4-5.8-1.4-1.3.2 11.3.8 7.2 1.4 13.7 1.1 14.4-.2.6-1.3-1.7-2.3-5.3l-1.9-6.5-.6 9.5c-.6 10.5-.2 12 5.7 20.1 2.9 4 4 4.7 9.1 5.8 3.2.8 6.9 1.9 8.3 2.6s7.6 2.7 13.9 4.4c17.7 4.9 27.3 11.7 41.9 29.8 4 4.8 14.2 27 14.2 30.7 0 1.4 3 1.6 24.5 1.6H512V0H191.3z"/><path d="M232.2 139.5c0 1.6.2 2.2.5 1.2.2-.9.2-2.3 0-3-.3-.6-.5.1-.5 1.8M278 141c0 1.8.4 2.9 1 2.5.6-.3 1-1.5 1-2.5s-.4-2.2-1-2.5c-.6-.4-1 .7-1 2.5m-42.4 100.8c-1.9 2.2-1.9 6.3.1 6.9.7.3 1.5-1 1.8-3.1 1-4.9.3-6.2-1.9-3.8m38.7 2c.6 4.9 1.1 5.7 2.6 4.7 1.8-1.1 1.2-5.1-1-7.1l-2.2-1.9zm-21.2 6.2c-1.2 2.7-2.6 7.3-3.1 10.1-1.1 5.9-2.2 7.4-11.8 16.4-5.2 4.9-7.3 7.6-7.8 10.1-.5 2.9.2 14.3 2.2 33.8.8 7.7-.9 6.7-2.6-1.6-1.7-8.4-3-9.5-3.1-2.7-.1 2.9-.5 10.3-.8 16.4-.7 10.6-.8 10.9-2.1 7.6-1.2-3.1-1.4-3.3-2.1-1.5q-.75 1.8-.9-3.6c0-3-1.2-9.6-2.5-14.5l-2.4-9-.1 5.2c0 10.2-3.6 22.8-8.3 29.6l-1.9 2.8 5.3 17.5 5.2 17.4h89.4l.6-6.8c4.9-53.3 4.8-51.9 2.7-59.5-3.6-12.9-4.3-11-3.7 10.5.2 10.9.1 19.6-.3 19.3s-2.1-3.3-3.8-6.7c-2.7-5.7-4.8-15.1-5.5-24.8-.2-2.9-.6-2-2.4 5-1.3 5.2-2 10.4-1.8 13.5.3 2.7.2 4.2-.1 3.3-.9-2.9-2-2.1-3.3 2.2-2.3 7.6-3.1 3.3-2.5-12.3.4-9.1.2-16.2-.4-17.7-.9-2.3-1.1-2-2.2 3.4-.6 3.2-1.8 7.5-2.6 9.5-1.3 3.4-1.3 3-.8-5.4.3-5 1-12.6 1.5-17 1.7-15.1 1.7-15-5.8-22.4-10.9-10.7-12.2-12.5-13.3-18-1.1-5.7-4.8-15.1-6-15.1-.4 0-1.7 2.2-2.9 5m-48.5 62.5c-1 2.2-2.1 6.8-2.4 10.2-.4 5.8 1.2 18.1 2.8 21.3 1.3 2.3 2.1-8.3 1.8-22.5l-.3-13z"/></svg>