<svg xmlns="http://www.w3.org/2000/svg" width="682.667" height="512" version="1.0" viewBox="0 0 512 384"><path d="M0 192v192h98.6l3.8-11.7c9.1-28.3 13.4-37 27.1-54.8 5.2-6.8 11-14.9 12.8-18.2l3.4-5.8-.7-10c-.4-5.5-.8-9.1-.9-8s-1.3 5.6-2.7 10l-2.4 8 .5-7.5c.3-4.1.8-10.4 1-14 .4-4.8.3-6-.5-4.5-1.2 2.4-.5-8.9 1.6-24.5 2.4-18.1 2.7-34.1 1-60.7-1.8-27.6-2-55.4-.7-64.8 1-6.9 8.3-21.1 14.3-28 2.7-3.1 3.4-4.4 2.4-4.8-.7-.3-1.7-2.2-2-4.3-1.1-5.4-5.2-9.1-11.2-9.9-5.8-.9-7.4-2-7.4-5.1 0-2 .9-2.6 6.6-4.4 3.6-1.1 7.2-2 7.8-2 .7 0 2.2-1.1 3.5-2.3 1.2-1.3 4.4-3.4 7.1-4.7 2.8-1.3 4.9-2.8 4.7-3.4s-4.2-2.1-8.8-3.2c-12.2-3.2-19.2-6.6-25.4-12.5-9.4-8.9-7.3-10.4 8.6-6 6.1 1.8 11.4 2.9 11.6 2.7.3-.3-1.5-3.1-4-6.3-5.5-7-9.7-15.6-9.7-20.1V0H0zM151.1 5.7c7.3 6.9 15.6 17.1 19.3 23.5 1.6 2.7 3.1 4.8 3.5 4.8.5 0 1.1-3.7 1.4-8.3.5-7 2.8-15.8 6.2-24 .7-1.6-.6-1.7-17.8-1.7h-18.6zm39.3 2.6c-.1 4.5-.9 11.1-1.7 14.7-.9 3.6-1.4 6.7-1.2 6.9s2.1-1 4.2-2.6c5.4-4.2 20.6-13.3 22.2-13.3 2 0 .6 5.7-2.6 10.3-3.9 5.6-12 12.6-19.6 17.1-3.7 2.1-6.7 4.2-6.7 4.7 0 .4 2.4 1.3 5.3 1.9s6.5 1.8 8.1 2.8c2.5 1.5 4 1.6 10.4.9 7.7-1 8.5-.7 9.6 3 .6 1.9 0 2.6-4.6 4.9-2.9 1.5-5.8 3.4-6.5 4.3-1.9 2.5-2.5 6.7-1.8 11.1.6 3.3 1.3 4.3 3.8 5.4 3.4 1.4 11.5 8.3 18.5 15.6 7.8 8.2 11.1 21.5 9.3 36.7-.7 5.4-1.6 11.3-2.1 13.2-.6 2.4-.5 6.4.5 12.5 1.6 9.9 4.5 42.1 4.5 49.8 0 2.6.4 4.8.9 4.8 1.7 0 2.4-8.9 1.1-13-1.5-4.6-.9-6.8 3-10.5 2.8-2.7 3.5-2.9 11.1-2.8 7.7 0 8.1.1 11.5 3.4 3.2 3.1 3.5 3.7 2.9 7.4-1 5.7-.8 14.6.2 15.6.5.5 1.4-7.2 2.2-18.3.6-10.6 1.9-24.3 2.8-30.3 2-13 2-14.4.3-25.7-1.1-7.4-1-10.3.4-20.6 1.9-13.7 3-17.1 7.9-22.7l3.4-3.9-2.2-5.1c-8.5-19.6-6.7-43.1 5.2-66.9 1.9-3.7 3.7-6.6 4-6.2.3.3-.2 3.6-1.1 7.3-5.3 22.3-4.8 44.4 1.3 58.5l2 4.7 4.3-2.4c17.6-9.7 42-6.2 54.4 7.9 5 5.7 4.8 5.8 12-3.8 4.1-5.4 10.4-16.5 10.4-18.2 0-.3-1.1-.4-2.3 0-2.8.7-4.4-.9-10.1-9.7-2.9-4.6-3.5-6.2-2.6-7.2 2.1-2.5 7.8-3.7 13.9-3 5.6.6 5.7.6 7-2.2.7-1.5 1.5-6.4 1.8-10.8.2-4.4.7-9.1 1-10.5l.5-2.5.9 2.4c.5 1.4 1.4 5.9 2 10 1.8 13.1 1.2 12.3 6.9 11.5 5.6-.7 9.9 1.3 13.7 6.4l2.1 2.9-6.3 5.6c-3.5 3.1-6.7 5.7-7.2 5.7s-1.7-1.6-2.7-3.5-2.7-4.2-3.6-5c-1.7-1.5-1.8-1.4-2.5 2.7-2.2 14.1-8 26.5-17.5 37.5-6.7 7.9-7 8.4-5.6 10.6 3.8 5.7 4.6 34.1 2.1 72.2-2 30.3-1.9 38.8 1 63.5 1.4 11.8 2.4 22.4 2.4 23.5v2l-1-2c-.9-1.9-.7 6 .6 20.5l.5 5.5-1.6-5c-3.2-10.4-3.2-10.4-3.3-.3l-.1 9.6 5.3 7.9c5 7.5 5.4 7.9 11.2 9.5 3.3 1 8.7 2.6 12 3.7 3.3 1 9.4 2.9 13.5 4.1 14.9 4.4 23.9 10.9 36.3 25.9 5.9 7.2 14.5 24.1 16.2 31.9l.7 3.2H512V0H190.5z"/><path d="M231.6 137.8c-.2.4-.1 1.4.5 2.2.7 1.2.9 1 .9-.8 0-2.3-.5-2.8-1.4-1.4m46.4 2.5c0 2.3.4 3.6 1 3.2 1.3-.8 1.3-3.5 0-5.5-.7-1.1-1-.5-1 2.3m-41.8 100.9c-.6.8-1.5 2.9-1.8 4.6-.5 2.5-.3 3.2.9 3.2 1 0 1.8-1.2 2.3-3.4.8-4.5.2-6.3-1.4-4.4m37.8 1.2c0 3.4 1.8 6.9 3.1 6.1 1.6-1 1-5.1-1.1-7-2-1.8-2-1.7-2 .9m-20.9 7.6c-1.2 2.7-2.6 7.1-3.1 9.7-1.3 7.2-1.5 7.5-10.1 15.3l-7.9 7.4v5.6c0 3.2.5 11.5 1.1 18.7 1.4 17.4.9 21.3-1.5 10.8-2.9-12.7-3.8-12.4-3.1.8.7 12.1-.1 25-1.5 24.2-.4-.2-1.3-2.5-2-5.1-1.2-4.2-1.5-4.5-2.6-2.9-1.1 1.5-1.2 1.3-.7-1.9.3-2.3-.2-7-1.3-11.9l-1.9-8.2-.6 6c-.3 3.3-1 8.2-1.4 11-.9 5.8-7.3 20.1-8.5 18.9-.4-.5-.4-3.6 0-6.9 1-7.6 1.1-24.8.2-30-.7-3.9-.8-3.7-3.6 6.9l-2.9 11 2.1 9.6c1.1 5.3 4.3 17.6 7.2 27.3l5.3 17.7h89.3l1.7-17.8c3.3-34.2 3.3-34.7.2-47.3-2.4-9.6-3-10.9-3.8-8.8-.5 1.4-.7 10.3-.4 20.6.3 10.1.3 18.3 0 18.3-.2 0-1.9-3.3-3.8-7.2-3.1-6.9-5.4-17.2-5.6-25.5l-.1-3.8-1.4 5c-.7 2.7-1.4 8.1-1.5 12-.1 3.8-.4 6-.6 4.8-.7-3.7-1.7-2.7-3.7 4l-1.9 6.2-.9-4.5c-.5-2.5-.7-11.1-.6-19.2.2-8 .2-14.5 0-14.3-.2.1-1.4 4.5-2.7 9.6l-2.4 9.4.4-10c.3-5.5.8-15.2 1.1-21.5l.6-11.5-5.8-5.6c-10.3-9.8-11.3-11.2-12.4-16.7-1-5.7-4.8-15.2-6-15.2-.4 0-1.7 2.2-2.9 5m-31.4 89.2c-.3.8-.6.5-.6-.6-.1-1.1.2-1.7.5-1.3.3.3.4 1.2.1 1.9"/></svg>