<svg xmlns="http://www.w3.org/2000/svg" width="682.667" height="512" version="1.0" viewBox="0 0 512 384"><path d="M320 1.5c0 2.6 4.3 12.9 6.7 16.1 1.2 1.7 2.3 3.5 2.3 4.1s-3.2 1.5-7 2.2c-11.8 1.9-28.6 8.7-38.6 15.5-7.1 4.8-16.5 13.8-22.1 21.3-6.3 8.4-9.2 14-11.8 22.9-2.3 7.8-5.8 14.6-10.2 19.4-2.1 2.4-3 4-2.1 4 1.6 0 5.8-2.7 7.5-5 1.1-1.3 1.2-1.2 1.3.7 0 1.2-.4 3.2-.9 4.5-.4 1.3-1.1 3.6-1.5 5.3-.7 2.9-.7 2.9.9 1 1.6-2 1.6-1.9 1.1.5-.4 1.4-.9 5.2-1.2 8.5l-.7 6 2.1-2.3 2-2.3 1.3 5.8c1.7 8 2.9 8.8 2.3 1.7-.3-4.2-.2-5.3.5-3.9.5 1.1 1 3.2 1 4.7.1 3.4 4.1 10.4 4.1 7.3.1-1.5.5-1.1 1.9 1.5 1.6 2.9 1.9 3.1 2.4 1.5.4-1.7.7-1.5 1.8 1.2.7 1.8 1.9 3.3 2.6 3.3.6 0 1.7.8 2.3 1.7.9 1.5 1.2 1.5 1.7.4.4-1 .9-.8 1.9 1 1.3 2.3 1.3 2.3 1.4-1.4 0-2.6.4-3.6 1.1-3.1 1.6 1 .3 8.8-2.2 13.3-1.1 2-3.3 4.6-5 5.6-4.7 3.2-3.8 5.2 5.5 11.8 2 1.4 2.6 2.6 2.6 5.7 0 4.4 1.9 6.8 6.1 7.7 4.6.9 7.1 3.9 6.3 7.7-.5 2.7-.1 3.8 1.9 5.7 1.3 1.3 3.8 4.8 5.6 7.8 2.8 4.6 3.2 6.1 2.9 10.5-.3 2.8-.8 5.9-1.2 6.9-.5 1-.5 1.7 0 1.6s1.9-.1 3.1 0c1.9.1 2.3.6 2.2 3.3-.2 3 1.7 17.8 4 31.8 1.1 6.5-.1 10-4.7 14.3l-3 2.8-2.2-3.3c-1.3-1.8-4-5.1-6-7.3-2.1-2.2-4.6-6.2-5.6-8.9-.9-2.6-4.2-8.5-7.2-12.9l-5.4-8.1 1.3-4.3c1.5-5.5.7-21.8-1.5-28.8-2.5-8.1-6.7-13.9-12-16.5-4.3-2-5.8-2.2-18.1-1.8l-13.3.4-.6-4.9c-.6-4.2-.9-4.7-2.2-3.6-1.2 1-1.4 2.4-.9 5.9l.6 4.7-8.9 3.2c-5.9 2.2-10.6 4.7-14.2 7.6-6.2 5.1-7.6 7.3-8.6 13.5-.4 2.5-1.3 6.2-2 8.3-1.2 3.4-1.1 4.8 1.7 15.5 4.7 17.6 5.3 19 13.4 28.4 6.6 7.6 8.2 8.9 13.5 10.9 3.3 1.2 6 2.3 6 2.6 0 .2-1.3 2.9-2.9 6.1-4.5 8.9-7 17.6-9.1 31.5-1.1 7-2.7 15.4-3.5 18.7s-2.2 8.8-3.1 12.2c-1.2 4.8-1.5 8.9-1 17.3.3 6 .9 12 1.2 13.2l.6 2.3h62.3l3.4-7.1c4.1-8.4 10.2-18.9 11.1-18.9.3 0 .4 5.9.2 13l-.4 13H299l.1-3.8.1-3.7 1.2 3.5 1.3 3.5 80.4.3c79.7.3 80.5.3 87.9-1.9 4.1-1.2 10.3-3.7 13.8-5.7l6.3-3.7-3.2-1-3.1-1.1 4.1-4.4c2.2-2.5 4.1-4.8 4.1-5.3 0-.4-2.8-.7-6.2-.7-6 0-6.9.3-17.2 6.6-19.5 11.6-20 11.8-22.1 6.7-.9-2.1-1.4-4.6-1.2-5.5.6-2.1-3-17.7-4.4-19.5-.6-.7-.9-1.9-.6-2.7s-1-7.7-2.9-15.3c-2-7.6-4.2-16.6-5-20.1-.9-3.4-2-6.2-2.6-6.2s-.7-.7-.4-1.5c.3-.9-.1-4.1-.9-7.2-1.7-6.3-2-13.3-.6-13.3 1.5 0 2.8 2.4 4.1 7.8 1.1 4.9 3.3 8.7 2.3 4-.4-2.3-.4-2.3 1.2-.3.9 1.1 2.1 1.9 2.8 1.8.7-.2 2.1 1.9 3.1 4.5 4.2 10.3 9.8 21.6 10.3 20.5.2-.6-.5-9.2-1.6-19s-2.3-20.1-2.6-22.8l-.6-5 2.2 4c4.6 8.7 7.1 12.6 7.6 12.2.2-.3 0-1.4-.5-2.4-1.3-2.4-5.9-23-6.9-30.8-.5-3.3-.6-9.8-.3-14.5.5-8.4.5-8.4 1.3-3.6 1.9 11.2 12.8 37.3 20.4 48.8 3.2 4.8 4.1 4.2 2-1.4-2.6-7.1-6.5-22.9-7.2-29.3l-.6-6 3 5.3c7.1 12.6 19.1 28.9 16.8 22.9-.4-1.1-1.6-6.7-2.6-12.6-1.9-10.2-2.6-21.3-5.1-74.6-2.2-47.6-8.3-79.4-21.4-113.3C452.5 70.3 450 63 450 62c0-3.3-5.7-17.8-9.4-23.8-5.9-9.7-12-15.8-19.4-19.4-5.9-2.9-7.6-3.3-15.1-3.3h-8.4l-5.1-7.7-5.1-7.8h-33.7c-29 0-33.8.2-33.8 1.5M269.4 144c.4 2.4.3 2.8-.2 1.5-1.4-3.1-2.4-8.3-1.3-6.5.5.8 1.1 3.1 1.5 5"/></svg>