<svg xmlns="http://www.w3.org/2000/svg" width="682.667" height="512" version="1.0" viewBox="0 0 512 384"><path d="M0 192v192h98.6l5.2-15.8c7.5-22.4 13.1-33.1 25.7-49.2 13.4-17.1 17.8-25.7 18.3-35.4.5-9.1-.9-7.8-3.3 3.2-1 4.6-2.2 8.5-2.7 8.8s-.7-.5-.4-1.8c1.1-5.2 2.8-25.5 2.3-26.9-.3-.8-.6-.2-.6 1.3-.1 1.5-.5 2.9-1 3.2s-.7-1.3-.5-3.7c3.8-41.7 4.1-47 2.4-60.2-1.6-12.7-4-55.7-4-70.5 0-19.2 1-24 7.1-34.6 2.8-4.9 6.4-10.5 7.9-12.4l2.7-3.5-2.5-6.3c-2.7-7.1-4.8-8.6-13.4-9.7-3.1-.4-4.8-1.1-4.8-2 0-.7-.3-2-.6-2.9-.7-1.8 3-3.9 10.9-5.9 3.1-.8 7.1-2.7 8.8-4.1 1.7-1.5 4.7-3.3 6.5-4.1 4.7-2 4.4-4.2-.8-5-5.5-1-15.1-4.1-21.3-7.1-5.3-2.5-14.5-10.8-14.5-13.1 0-2.1 6.4-1.6 16.9 1.3 5.1 1.4 9.4 2.4 9.6 2.2s-2.1-3.5-4.9-7.3C142 15 138 6.7 138 2.6V0H0zM154.7 11.4c6.6 6.8 12.1 13.6 13.8 16.9 1.7 3.2 3.3 5.7 3.7 5.7.8 0 1.4-3.3 2.3-12.2.4-4.8 2.7-12.3 6-20.1.7-1.6-.6-1.7-18-1.7h-18.7zm35-5.7c.2 3.3-.5 9.7-1.5 14.8-1.1 4.9-1.8 9.2-1.7 9.3.2.2 2.7-1.4 5.7-3.6 8.3-6.2 19.6-12.5 21.3-11.8 5 1.9-10.1 20.3-21.3 26-5.8 3-8.9 5.3-8.1 6 .3.3 3 1 5.9 1.6 3 .6 6.3 1.6 7.5 2.4 1.6 1 4.3 1.3 10.8.9l8.6-.6.7 2.8c.6 2.3.2 3.2-1.6 4.7-1.2 1-2.8 1.8-3.5 1.8-2 0-6.6 4.1-7.6 6.9-.6 1.4-.7 4.7-.4 7.2.6 4.1 1.1 4.9 3.8 6 1.8.7 7.5 5.3 12.8 10 10.7 9.8 13 13.7 15.5 26.6 1.3 6.7 1.2 9-.1 19-.8 6.3-1.7 11.8-2 12.3-.3.6.3 6.7 1.5 13.7 1.1 7.1 2.9 21.8 3.9 32.8 1.5 16.7 1.9 19.2 2.6 15.3.4-2.9.3-6-.4-7.9-1.9-5.4-1.3-8.3 2-11.5 2.9-2.8 3.3-2.9 11.6-2.7 7.5.3 9 .6 11.9 2.8 2 1.5 3.4 3.5 3.4 4.7 0 5.7 1-.2 2.5-14.1.9-8.5 2.3-19 3.1-23.4s1.2-8.7.9-9.5c-2-5.4-2.5-17.4-1-28.7 1.7-13 4-19.3 8.7-24.2l3-3.1-3.3-8.4c-3.2-8-3.3-8.8-3.4-22.8 0-10.8.5-16.2 1.8-21 1.7-6.4 12.4-29.7 13.2-28.9.2.3-.5 3.8-1.5 8-2.6 9.9-5 26.5-5 33.6 0 6.4 2.9 20.5 5.5 27l1.6 4.1 4.9-2.5c2.7-1.4 7.7-3.1 11.2-3.9 16.7-3.6 31.3.3 42.4 11.4l5.7 5.7 5.3-5.8c2.9-3.3 7.1-9.5 9.4-13.9 3.8-7.3 4-7.9 2-7.3-2.8.9-5.9-2-10.7-9.8-3.9-6.5-3.6-7.8 2.4-9.8 3.2-1 8.9-.7 12.7.7 2.5 1 4.5-5.2 5.2-16.5.4-5.6 1-10.1 1.4-10.1.9 0 4 16.4 4 20.8v3l6.3-.2c6.9-.1 11.1 2 13.6 6.8 1.4 2.5 1.2 2.8-4.9 8.6-3.5 3.3-6.7 6-7.1 6-.5 0-1.8-2-3-4.4-3.7-7.9-4.4-7.6-6.7 2.4-3 12.8-8.7 24-17.1 33.7-6.2 7.2-6.8 8.3-5.7 9.9 2.2 3.2 3.6 14.4 3.6 28.5 0 14.8-2.5 57.8-4 70.4-1.4 11.2-1.2 23.2.9 44 1.7 17 1.7 23.1-.1 17.5-.5-1.6-.6-.4-.3 3 .2 3 .7 9.5 1 14.5l.5 9-1.8-6.5c-2.8-9.8-3.3-10.2-2.8-2.3.5 7.8 2.1 11.9 8.9 22.1 3.9 5.8 4.7 6.4 10.2 8.2 3.3 1 8.7 2.8 12 3.9 3.3 1 8.9 2.7 12.5 3.7 22 5.9 41.3 24.2 51 48.2l4.5 11.2H512V0H189.4z"/><path d="M232.2 139.5c0 1.6.2 2.2.5 1.2.2-.9.2-2.3 0-3-.3-.6-.5.1-.5 1.8m45.8.8c0 2.3.4 3.6 1 3.2 1.3-.8 1.3-3.5 0-5.5-.7-1.1-1-.5-1 2.3m-7.9 62.1c-.8 2.9-.9 5.4-.3 7.7.8 3.1.9 2.8 1.5-4 .4-4.1.6-7.5.4-7.7-.1-.2-.9 1.6-1.6 4M236.2 219c0 1.4.2 1.9.5 1.2.2-.6.2-1.8 0-2.5-.3-.6-.5-.1-.5 1.3m38.9-.4c0 1.1.3 1.4.6.6.3-.7.2-1.6-.1-1.9-.3-.4-.6.2-.5 1.3m-.9 24.9c0 1.6.2 2.2.5 1.2.2-.9.2-2.3 0-3-.3-.6-.5.1-.5 1.8m-37 1c0 1.6.2 2.2.5 1.2.2-.9.2-2.3 0-3-.3-.6-.5.1-.5 1.8m16.3 6.9c-1.4 3.3-3.1 8.5-3.8 11.5-.9 4.9-2 6.5-7.7 12.6-6.2 6.6-6.7 7.4-7.3 12.8-.4 3.4-.1 10.7.8 18 .8 6.7 1.8 14.4 2.1 17.1.9 7.4-1 4.8-3.1-4.1-3-13.1-3.7-11.2-3.1 9.2l.6 19-2-4c-1.1-2.2-2-4.5-2-5.1 0-.7-.7-1.4-1.5-1.8-1-.3-1.5-2-1.5-4.8-.1-2.4-1.2-8.4-2.5-13.3l-2.5-9 .6 6.6c.7 8.3-1 18.7-4.3 26.4-4.9 11.3-5.1 11.1-4.5-5.3.5-15.5-.4-27.8-1.8-25.2-.4.8-1.8 5.9-3 11.3-1.4 6.2-2.6 9.4-3.1 8.6-.4-.8-.5-3.3-.2-5.8.4-3.2.3-4.2-.5-3.7-1.4.9-1.6 12.2-.2 13.1.5.3.7 1.2.4 1.9-.6 1.5 2.4 13.4 8.2 33.3l3.9 13.3h90.2l1.2-11.7c2.8-26.9 3.8-43.7 2.7-47.3l-1-3.5-.6 5.5c-.6 6.3-1 5.5-3.6-6.5-.9-4.4-2-8.7-2.4-9.4-1.4-2.6-2.3 11.7-1.7 26.7.4 12.5.3 14.1-.9 12.4-5-7.1-8.7-23-7.9-33.5l.5-6.2-2.5 8.5c-1.3 4.7-2.6 10.2-2.8 12.2s-.8 4.2-1.3 5c-.6.7-1.8 3.4-2.8 6.1-1 2.6-2 4.7-2.3 4.7s-.3-8.2.1-18.3c.7-19.2 0-21-3.1-8.4-1.8 7.4-3.8 10.2-2.9 4.2.3-2.2.8-6.7 1.1-10 .4-3.3 1.1-9.2 1.6-13.1.7-4.9.6-9.2-.1-14-1-6.5-1.4-7.2-7-12.9-6-6.1-7.9-9.5-8.1-14.3 0-1.5-1.3-5.4-2.9-8.7l-2.8-6z"/></svg>