<svg xmlns="http://www.w3.org/2000/svg" width="682.667" height="512" version="1.0" viewBox="0 0 512 384"><path d="M0 192v192h98.6l4.7-14.3c6.9-20.5 13.9-33.8 25.1-48.2 5.2-6.6 11-14.4 12.8-17.4 4.6-7.7 7.8-17.5 7.7-24.1l-.1-5.5-1.9 8c-2.5 10.8-4 15.8-4.4 15.3-.3-.2 0-4.4.5-9.4.5-4.9 1.1-11.6 1.4-14.9.5-5.8.5-5.9-.9-3-1.5 2.9-1.5 2.8-1-3 2.7-35.8 2.8-39.9 1.1-55-2-19-4.6-61.9-4.6-78 0-6.8.5-14.8 1.1-17.7 1.3-6.3 8.9-20.3 14.2-26.3 2-2.4 3.3-4.5 2.8-4.7-.5-.1-1.9-3-3.2-6.3-2.2-5.4-2.8-6.1-6.4-7.2-2.2-.7-5.6-1.5-7.6-1.8-2.9-.4-3.8-1.1-4.3-3.1-1-3.7.4-4.8 9.2-7.4 4.2-1.3 9-3.4 10.6-4.7 1.6-1.4 4.7-3.1 6.8-4 3.8-1.5 4.9-3 2.6-3.8-.7-.2-5.4-1.5-10.5-2.9-12.3-3.4-17.4-5.9-23.9-11.8-5.4-5-7-8.8-3.6-8.8.9 0 6.8 1.4 13.1 3 6.3 1.7 11.6 2.9 11.7 2.7.2-.2-1.7-2.9-4.2-6.1-5.6-7.1-9.1-13.9-10-19.4l-.7-4.2H0zM152.4 9.7c5.4 5.4 11.8 13.1 14.4 17.1 2.9 4.6 4.8 6.8 5.3 6 .3-.7.9-4.8 1.2-9 .4-4.6 1.8-10.8 3.6-15.7l3-8.1h-37.3zM189 5.9c0 3.2-.7 9.6-1.6 14.1-.8 4.5-1.3 8.4-1.1 8.6s5.5-3 11.8-7.1c16.1-10.6 20-9.8 11.9 2.2-4.2 6.3-11.9 12.9-21.2 18.2-3.2 1.8-5.8 3.6-5.8 4.1 0 .4 2.1 1.1 4.8 1.5 2.6.4 6.2 1.4 7.9 2.2 2.3 1.1 5.6 1.4 11.5 1.2 7.8-.4 8.3-.3 9.4 2 1.7 3.4 1 4.5-4.7 7.2-6.7 3.1-7.9 5-7.9 12.5 0 6.2 0 6.2 3.5 7.4 5 1.6 21.6 16.8 24.2 22.1 5.2 10.5 6.6 20.4 4.8 34-.8 5.8-1.7 11.2-2 12.1-.4 1 .1 5.7 1 10.5.9 4.9 2.7 19.4 3.9 32.3 1.8 18.5 2.5 22.7 3.1 19.6.5-2.5.4-5.1-.4-7.1-2.1-5.8-1.4-9 2.5-12.5 3.6-3.1 3.7-3.1 11.7-2.6 8.6.6 12.1 2.2 14.3 6.5 1.1 2.1 1.2 1.9 1.7-2.1.4-2.4.9-7.5 1.2-11.3.3-3.9 1.4-11.5 2.2-17 2-11.7 2-14.4.5-24.8-.9-6.3-.9-10.1.4-20 1.7-13.4 3.5-18.4 8.3-23.9l3.1-3.6-3-9.1c-6.8-20.2-4.5-42.1 6.7-63 4-7.5 5.9-9.9 4.9-6.1-3.9 14.1-5 22.2-5 37-.1 13.3.3 16.5 2.2 22.5 3.2 10.2 3.2 10.2 8.5 7.6 5.1-2.5 16.4-5.1 22.3-5.1 12.2 0 24.3 5 32.3 13.5 2.9 3 5.3 5.5 5.5 5.5.9 0 11.8-14.6 14.4-19.2 3.5-6.4 4.1-9.1 1.7-8.1-2.1.7-4.6-1.7-9.7-9.4l-4.2-6.6 2.3-1.8c3.1-2.5 8.1-3.3 13.6-2.1 4.4.9 4.6.9 6.1-1.9.9-1.7 1.7-7.2 2.1-13 .6-9.5 1.6-13 2.6-9.2.5 1.6 1.1 5.6 3.2 18.6l.6 3.9 3.9-.7c2.2-.4 5.5-.2 7.3.4 3.5 1.2 10.2 7.3 9.6 8.8-.2.4-3.1 3.4-6.5 6.5-5.6 5.4-8.4 7-8.4 5 0-.4-1.4-3-3.2-5.8l-3.1-4.9-2.3 9.7c-3.4 14.2-11.6 29-21.3 38.2-2.8 2.7-2.9 3.1-1.7 5.5 3.2 6.1 3.9 14.2 3.2 36.6-.7 25.9-1.9 45-4.3 66.9-1.4 13.8-1.5 18.1-.4 32 2.4 32.1 2.3 29.5.6 26.1l-1.5-3 .5 3.5c.2 1.9.7 7.3 1 12s.8 10.1 1.1 12c.9 6.3-1.5.7-3.7-8.3l-1.9-8.2.5 6.9c.5 8 5 18.7 11.4 27.1 3.3 4.3 4.6 5.2 9.7 6.7 3.2.9 8.6 2.5 11.9 3.6s9.6 3 14 4.3c10.7 3.1 20.5 9 29 17.5 10.2 10.3 14.7 16.6 20 28.6l4.8 10.8H512V0H189z"/><path d="M278 140.3c0 2.3.4 3.6 1 3.2 1.3-.8 1.3-3.5 0-5.5-.7-1.1-1-.5-1 2.3m-46.4.2c.4.8.8 1.5 1 1.5s.4-.7.4-1.5-.4-1.5-1-1.5c-.5 0-.7.7-.4 1.5m37.9 64.7c-.3 1.3-.1 3.6.4 5.3.8 2.7.9 2.5 1-2.3.1-5.5-.5-6.7-1.4-3m-16 47.3c-1.4 3.3-3.1 8.2-3.6 10.9-1.1 5.9-3.6 10.1-8.7 14.7l-3.9 3.5-.7 10.5c-.4 5.9-.3 13.9.2 18.4.6 4.4 1.3 10.9 1.6 14.5l.5 6.5-2.3-7.8c-1.3-4.3-2.7-8.1-3.1-8.5s-.5 7.2-.1 16.8c.7 21.2 0 21.1-6.5-.7l-4.4-14.8-1.1 11.1c-.9 7.9-2 13-4.1 17.9-4.3 10.4-5.1 9.5-4.5-4.8.5-13.2-.5-28.5-1.7-27.1-.5.5-1.9 5.8-3.2 11.9l-2.4 11-.5-6c-.5-6-.6-6-2-3.1-1.2 2.5-1.2 4 .2 12.5 1.5 8.6 6.1 26 10.4 39.3l1.6 4.8h90.5l.7-4.7c1.1-8.7 3.6-38.7 3.6-43.9 0-2.8-.6-6.6-1.2-8.5l-1.3-3.4-.5 6.5-.5 6.5-2.4-11c-1.3-6.1-2.7-11.6-3.1-12.4-1.2-2.2-2.3 19-1.7 31.3.5 9.2.4 10.6-.7 9-5.3-7.5-9.4-25.6-8.3-36.2.5-4.4-.3-2.3-3.7 9.4-4.2 14.3-7 22.4-7.9 22.4-.2 0-.1-7.5.1-16.6.5-18.2-.4-20.4-3.3-8.4-1 3.9-1.9 6.9-2.1 6.7-.3-.2.3-6.7 1.1-14.3 1.4-12.7 1.4-25.8-.1-33.4-.3-1.4-2.9-5.1-5.9-8.3-4.5-4.9-5.4-6.6-6.3-11.5-.6-3.1-2.2-8.2-3.5-11.2l-2.5-5.5z"/></svg>