<svg xmlns="http://www.w3.org/2000/svg" width="682.667" height="512" version="1.0" viewBox="0 0 512 384"><path d="M0 192v192h49c45.6 0 49-.1 49.8-1.8.5-.9 2.4-6 4.1-11.2 1.8-5.2 5.5-14 8.2-19.5 4.4-9.1 7.3-13.4 22.9-33.5 8.2-10.7 8.8-12.5 9.4-29 .4-9.8.3-13.7-.4-12-.6 1.7-.7-3.6-.3-15.5 1-24.6.9-26.2-1-41-2.8-21.7-4-44.5-4.1-76l-.1-30 5.9-10.5c3.2-5.8 6.9-11.8 8.2-13.3 2.6-3.1 2.5-5-.6-12.3-2.2-5.1-2.9-5.6-11-6.9l-6.5-1.1-.3-3.7c-.3-3.5-.1-3.8 4-5.6 2.4-1 5.9-2.2 7.8-2.6s6.1-2.5 9.4-4.6c3.2-2.2 6.5-3.9 7.2-3.9 2.6 0 1.4-3-1.3-3.5-6.7-1.5-20.2-5.9-24.6-8.2-6.8-3.4-13.9-10.1-13.5-12.7s3.4-2.4 16.7 1c5.2 1.3 9.5 2.3 9.7 2.1.2-.1-2-3.2-4.8-6.7C138 14.5 134 6.7 134 2.7V0H0zM150.1 9.2c5.2 5.1 11.6 12.6 14.3 16.6 2.6 4 5 7.2 5.1 7 .2-.2.8-4.4 1.4-9.4.6-5.1 2.2-12.4 3.4-16.3l2.3-7.1h-35.9zM186.9.7v5.8c.1 2.7-.7 8.9-1.7 13.7-1.8 8.7-1.6 9.2 2.3 5.8 3.7-3.2 21.4-14 23-14 .8 0 1.5.9 1.5 2 0 6.7-11.8 19.9-23.8 26.5-3.9 2.2-7.2 4.3-7.2 4.7s1.7 1 3.8 1.3c2 .4 5.1 1.2 6.7 1.8 1.7.6 7.7 1.3 13.5 1.6l10.5.6V54c0 3.2-.4 3.6-5.3 6-2.9 1.4-5.7 3.2-6.2 4s-1 4.5-1 8.1v6.6l4.3 1.7c5.9 2.3 21.2 16.6 24.3 22.8 4.5 8.8 5.7 16 5 28.8-.3 6.3-1.1 13.4-1.6 15.7-.7 3.1-.6 6.6.5 13 .8 4.9 2.1 15.3 2.9 23.1.8 7.9 1.7 14.6 2 15 .3.3.6-.1.6-.9 0-1.7 4.6-6.3 7.3-7.2 1-.4 5.2-.4 9.4 0 6.4.5 8.1 1.1 10.9 3.5 3.9 3.4 3.9 3.3 4.9-9.2.4-4.7 1.5-13.9 2.6-20.6 1.5-9.4 1.7-13.1 1-16.5-2.2-9.5-.6-32.7 3-43.7.6-1.8 2.8-5.3 4.9-7.7l3.9-4.5-3.1-8.2c-2.6-7-3.2-10.1-3.6-19.9-.7-17.8 3.1-32.3 12.6-48.9 3.5-6.1 4.2-4.7 1.7 3.5-5.9 19.3-5.8 46.3.2 61l1.6 4 4.6-2.2c5.6-2.8 16.8-5.3 23.6-5.3 14 0 28.7 7 35.8 17l1.8 2.5 5.8-6.3c5.2-5.5 13.1-18.3 13.1-21.1 0-.6-.7-.8-1.5-.5-.8.4-2.3 0-3.2-.7-2-1.7-10.3-14.4-10.3-15.8 0-2.6 6.3-4.3 13.6-3.9 6.9.5 7.3.4 8.3-2 1-2.1 3-17.6 3.1-23.7 0-1.2.3-1.5.9-1 .7.8 3 12.8 4.4 23.5.2 1.2 1.5 1.4 6.4 1.2 6-.4 6.2-.3 10.7 3.8 4.1 3.8 5.9 7 3.8 7-.4 0-3.3 2.5-6.6 5.5-3.2 3-6.2 5.5-6.7 5.5s-1.7-1.7-2.8-3.8c-2.4-4.8-4.9-7-5.5-5.1-.2.8-1.4 5-2.6 9.4-3.8 14-9.6 24.4-19.5 35l-4.6 5 1.8 3.9c1.6 3.5 1.8 7.1 1.8 28.1 0 36.5-2.4 76.1-5.5 91.6-.6 2.9-.6 10.7 0 20.5 1.2 20 1.2 28.9-.1 25.4-.5-1.5-.6 3.2-.3 12 .6 16.4 1.4 18.8 8.8 28.7 3.2 4.5 5.3 6.3 6.8 6.3 1.3 0 5.5 1.2 9.3 2.6 3.9 1.4 11.3 3.6 16.5 5 12.7 3.4 21.9 8.2 30.6 16.3 10.1 9.2 17 18.2 21.5 27.9l3.8 8.2H512V0H349.5C260.1 0 187 .3 186.9.7"/><path d="M231 139.5c0 .5.5 1.7 1 2.5s1 1 1 .5c0-.6-.5-1.7-1-2.5s-1-1.1-1-.5m47 3.1c0 2.1.4 3.3 1 2.9.6-.3 1-1.9 1-3.6 0-1.6-.4-2.9-1-2.9-.5 0-1 1.6-1 3.6M240.6 209c.4 4.1.8 7.6.9 7.8s.6-1.7.9-4.1c.5-3 .2-5.4-.9-7.8-1.5-3.3-1.5-3.2-.9 4.1m29.6-2.3c-.6 1-.7 3.4-.3 5.3l.7 3.5.7-4.9c.8-5.4.4-6.8-1.1-3.9m4.9 15.9c0 1.1.3 1.4.6.6.3-.7.2-1.6-.1-1.9-.3-.4-.6.2-.5 1.3m-21.7 35.1c-1.4 3.2-3 8-3.6 10.8-1.3 6.4-2.3 8.2-6.5 12.6l-3.5 3.7-1 15.7c-.8 13.1-.7 17.2.7 25.2 1.8 10.2 1.4 13.2-.7 6.2l-1.3-4.4-.3 4c-.1 2.2-.7 4.9-1.2 6s-1.1 5.4-1.2 9.5l-.3 7.5-6-18-6-18-.2 11.1c-.2 12.2-1.1 16.8-5.1 25.3l-2.6 5.6-.6-19.5c-.7-22.7-2-27.8-3.9-14.6-.6 4.7-1.8 10-2.6 11.8l-1.4 3.3-.1-5.5c-.1-6.7-1.5-5-2.4 3.1-.8 6.3-.2 9.5 5.5 30.2l4.1 14.7h93.5l1.2-14.8c.6-8.1 1.4-18.3 1.8-22.6.4-5.3.3-7.7-.4-7.3-.6.4-1.4-1.1-1.9-3.6l-.8-4.2-.6 5-.5 5-1.7-7c-.9-3.9-2-9.2-2.4-11.9-1.3-9.3-2.7-1.9-3.3 18.3-.6 18.8-.7 19.5-2.2 16.6-4.5-8.3-6.1-15.7-6.1-28.5-.1-9.6-.3-11.7-1-9-1.5 5.9-8.6 27.3-10.2 31-1.5 3.5-1.5 3.4-1.7-6-.1-6.3-.4-8.7-.9-7-.7 2.1-.8 1.9-.9-1.7-.1-4.9-1.6-6.4-2.5-2.7-1.4 5.5-1.5 1.5-.1-7.3 1-7.1 1.1-13 .4-25.7l-.8-16.6-4.4-5.4c-3.5-4.2-4.7-6.7-5.5-11.2-1-5.5-4.7-15.4-5.8-15.4-.2 0-1.6 2.6-3 5.7m-106.7 30.2c-1 5.1-1.6 9.5-1.4 9.8.8.8 3.9-13.4 3.5-16.3-.2-1.9-1 .5-2.1 6.5m217.4-2.2c-.1 2.6 1.9 12.6 2.5 12 .2-.2-.2-3.5-1-7.3-.7-3.8-1.4-5.9-1.5-4.7"/></svg>