<svg xmlns="http://www.w3.org/2000/svg" width="682.667" height="512" version="1.0" viewBox="0 0 512 384"><path d="M0 192v192h301.8l.5-2.8c.3-1.5.9-6.7 1.3-11.6.6-7.4.4-9.1-.8-10-.9-.6-2.1-4.3-2.8-8.4-.6-3.9-1.6-7.2-2-7.2-1.3 0-2.3 10-2.4 23.3-.1 7.3-.5 11.6-1.1 11.4-.5-.2-2.3-3.5-3.8-7.3-2.4-5.7-3-8.9-3.4-18.2-.3-6.1-1-11.2-1.4-11.2-.5 0-.9.1-.9.3 0 .4-7.9 22.8-9.1 25.9-.6 1.6-1.6 2.8-2.2 2.8-1 0-.3-22.7 1-29.8.8-4.7-1.2-3.9-3.1 1.3-.9 2.5-2.3 6.5-3.2 9s-2.1 4.5-2.5 4.5c-1 0-.3-22.1 1.2-39.5 1.3-15.5 1.3-15.1-3.1-19.8-2.6-2.9-4.3-5.9-5.1-9.3-2.3-9.7-5.6-19.8-6.6-20.1-1.5-.5-6.9 11.4-8.3 18.1-.9 4.4-2.1 6.7-6 10.9l-4.8 5.2.9 21c1.1 28.2 1.1 32.7 0 32-.6-.3-2.2-4.6-3.8-9.5-4.3-14-5-12.1-3.4 9.4.5 6.1.5 11.9.1 13-.7 1.8-1 1.5-2.7-2.4-1.1-2.5-3.4-9-5.1-14.5-4.3-13.7-5.2-14.6-5.2-6 0 9.5-1.5 17.9-4.4 25-3.6 8.9-4.7 8.3-4.6-2.7.1-9.1-1.3-23.4-2.4-24.5-.9-.9-2.6 4.5-2.6 8.2 0 1.9-.4 3.7-1 4-1.6 1-1 8.4 1.4 18 1.3 5 2.1 9.3 1.7 9.7-1.1 1.3-106.3-2-107.2-3.3-1.8-2.9 8.8-21.1 22.6-38.4 10.3-13.1 13.1-16.7 14.3-19.1 1.5-2.8 2.5-33.1 1.1-33.6s-1.5-3.3-.6-23.3c.6-12.1.5-21.3-.2-28-1.7-14.7-1.7-112.2-.1-120 1.3-6.2 10.4-22.7 16.1-29.3 3.2-3.6 3.2-5-.2-13-2-4.6-6.2-7.2-11.8-7.2-1.6 0-4.2-.4-5.6-1-2.3-.9-2.6-1.5-2.3-4.7s.9-4.1 4.3-6c2.2-1.2 7-2.9 10.7-3.9 3.8-.9 7.1-2 7.4-2.5s2.8-2.1 5.5-3.4c5.6-2.9 6.1-4.2 2.2-5.1-17.2-3.8-27-7.9-35.4-14.8-6.6-5.3-8.4-8.5-5.9-10.1.6-.4 6.7.8 13.6 2.5 6.9 1.8 12.8 2.9 13.1 2.6s-.7-2.2-2.3-4.3c-4.5-5.9-9-12.6-9.7-14.6C131.1.1 127 0 65.5 0H0zM152.1 6.6c3.5 3.6 8.3 9.3 10.6 12.7s4.5 6.1 5 6c.4-.1 1.3-4.4 2-9.5.6-5.1 1.4-10.8 1.8-12.6l.8-3.2h-26.5zM186 4.3c0 2.4-.5 6.9-1.1 10.1s-.8 6-.5 6.3 2.7-1 5.3-2.9c8.9-6.4 20-12.8 22.1-12.8 3.1 0 2.8 3.4-.7 9.5C207 21.5 199.9 28 190 34c-4.7 2.8-8.5 5.4-8.5 5.7s3.4 1.5 7.5 2.6c5.7 1.5 9.9 2 17.2 1.8 9.3-.3 9.7-.2 11.3 2.3 2.9 4.4 1.7 6.8-5.1 10-8 3.7-9.6 7.2-7.8 16.3.4 2.3 1.4 3.3 4.1 4.2 2 .7 6.3 3.8 9.7 6.8 16.5 14.8 18.3 17.6 21.1 32.6 1.8 9.6 1.1 20-2.2 33.5-1.2 5.2-1.3 8.2-.4 18.1.6 6.6 1.1 16.9 1.1 23 0 12.2.5 12.9 5.1 8.5 3.1-3 7.1-3.4 16.3-1.6 4.4.9 6.8 2 9.2 4.3 3.9 3.8 3.8 3.9 5.4-8.1.6-4.7 2.3-13.9 3.8-20.5 1.8-8.5 2.4-13.9 2.1-18.5-.8-12.4-.1-22.5 2.4-34.7 2.9-13.6 4.4-17.2 9.5-22.5l3.6-3.8-2.1-6.7c-1.2-3.8-2.7-9.2-3.4-12.2-1.6-7.5-.6-26.6 2-36.6 2-7.4 11.3-27.9 13.2-29.1 1.3-.8 1.1 2.5-.5 7.8-5 16.4-5.8 45.3-1.7 59.2 2.5 8.5 3.2 9.2 6.2 7.2 3.2-2 11.9-4.2 20.4-5 14.2-1.5 31.2 4.8 40 14.7 2.5 2.7 4.5 5.3 4.5 5.8 0 2.4 3.3.4 8-4.9 5-5.5 14-19.5 14-21.7 0-.6-1.3-1.5-2.8-2.1-3.7-1.4-12.7-15.4-11.7-18.3.9-3 6.5-4.4 14.8-3.6l7.3.7 1.1-3.9c.7-2.1 1.7-8.4 2.4-14.1 1.8-14.9 2.8-13.7 5.2 5.9l1.2 9.4 3-.2c6.7-.4 12.4 1.7 16 6 4.1 4.7 4.3 6.2 1.3 7.8-1.3.6-4.4 3.2-7 5.7-2.8 2.7-5.2 4.3-6.1 3.9-.8-.3-2.5-2.5-3.8-4.8s-2.9-4.4-3.4-4.6c-.6-.2-2.1 3.6-3.4 8.4-4.6 16.7-10.1 26.3-21.9 38.5l-6.5 6.7 1.9 3.8c1.7 3.3 1.9 6 1.8 20.8-.2 24.4-5.2 80.8-9.8 110-1.9 11.4-2.4 18.8-2.4 31.2 0 9.4-.4 16.8-.9 17.5-.6.7-1.3 7.9-1.6 16.1l-.5 14.7 5.5 7.8 5.5 7.8 10.2 3.3c5.5 1.8 11.2 3.7 12.6 4.1 1.4.5 6.9 2.3 12.3 4 14.7 4.6 21.3 8.7 31.6 19.6l8.9 9.4H512V0H186z"/><path d="M282 148c0 1.8.4 2.9 1 2.5.6-.3 1-1.5 1-2.5s-.4-2.2-1-2.5c-.6-.4-1 .7-1 2.5m-44 68.9c0 5.5 1.2 6 2.3 1 .4-1.6.1-3.3-.8-4.5-1.3-1.7-1.4-1.4-1.5 3.5m30.8.3c-.3.7-.2 2.4 0 3.7.5 2.3.6 2.4 1.3.6 1.1-2.8 1.1-5.5 0-5.5-.5 0-1.1.5-1.3 1.2m-36.7 39.4c0 1.1.3 1.4.6.6.3-.7.2-1.6-.1-1.9-.3-.4-.6.2-.5 1.3M137.6 298c-1.1 2.8-2.3 13.1-1.6 13.5.4.2 1.5-1.9 2.4-4.8 1.3-3.8 1.5-5.8.8-7.7-.8-1.9-1.1-2.1-1.6-1M365 310c.1 3.1.7 6.6 1.6 8 1.4 2.3 1.4 2 .9-4.5-.8-8.7-2.5-11.1-2.5-3.5"/></svg>