<svg xmlns="http://www.w3.org/2000/svg" width="682.667" height="512" version="1.0" viewBox="0 0 512 384"><path d="M320.3 2.8c.7 3.6 4.8 12.6 7.6 16.8l2.1 3.1-7.7 1.3c-12.4 1.9-28.6 8.4-38.9 15.4-15.7 10.6-30.5 29.8-33.8 44-1.2 5-7.6 17-10.9 20.5-3.1 3.2-3.1 3.3-.7 2.6 1.4-.4 3.7-1.9 5.3-3.3 3.2-3 3.4-2 1.2 5.3-.8 2.7-1.2 5.1-1 5.4.3.2.5-.1.5-.7 0-.7.4-1.2.9-1.2.4 0 .5 1.9 0 4.2-1.1 5.9-1.1 11.8.1 11.8.5 0 .7-.6.4-1.4-.3-.7.1-1.6.9-1.9 1.2-.4 1.8.9 2.8 5.9 1.5 7.7 2.7 8.4 2.2 1.1-.2-3.8-.1-4.7.6-3.2.5 1.1 1 2.9 1 4.1.1 1.1.9 3.6 1.8 5.4 1.4 2.9 1.7 3.1 2.3 1.5s.9-1.3 2 1.6c1.2 3.3 1.3 3.3 1.9 1l.6-2.4 1.3 2.7c.6 1.5 1.2 3.4 1.2 4.2s.5 1.2 1.1.9c.6-.4 1.6.1 2.4 1.1 2 2.7 2.6 1.3 1.4-3-1.8-6.4-.3-5 1.6 1.6l1.9 6.3.6-4.5.7-4.5.1 5.3c.2 6.3-1.4 9.9-6.4 14-4.7 3.9-4.2 6.8 1.6 10.1 4.6 2.6 6.1 4.9 5.8 9-.3 3.7 1.2 5.5 6 6.9 5.6 1.7 7.5 4.2 6.2 7.8-1 2.4-.8 3.1 1.5 5.3 1.4 1.4 4.2 5.1 6.2 8.1 3.1 4.9 3.5 6 3 10.5-.2 2.7-.8 5.8-1.2 6.8s-.4 1.7.1 1.6c4-.7 5.1.2 5.1 3.8 0 2.1.8 9 1.7 15.3 3.6 24.5 3.5 25.3-2 29.5l-3.7 2.8-2.1-2.9c-1.1-1.6-3.7-4.7-5.8-6.9-2-2.3-4.6-6.5-5.8-9.5s-4.4-8.9-7.2-12.9l-5-7.5 1.2-5.3c2.6-10.7-.7-29.9-6.5-38.3-1.6-2.2-4.6-4.9-7.1-6.1-4-1.9-5.8-2.1-17.9-1.7l-13.4.3-.6-4.8c-1-6.8-3.1-5.6-2.8 1.6.2 5-.1 5.7-2 6.2-7.3 2.1-17.8 7-20.3 9.6-1.5 1.6-3.3 2.9-4.1 2.9-1.8 0-2.9 2.4-5.6 13.8l-2.6 10.2 2.3 8.3c1.3 4.5 3.1 11.1 4 14.7 1.5 5.6 2.8 7.8 9.7 15.7 7 8.2 8.6 9.4 13.9 11.4 6.1 2.2 6.7 2.8 5 4.5-1.4 1.4-6.9 15.1-8.5 21.3-.8 3.1-2.2 10.8-3.1 17.1s-2.9 15.7-4.5 20.9c-2.4 7.7-2.9 11.1-2.9 19.5 0 5.5.3 12.5.6 15.4l.7 5.2h62.3l3-6.2c2.5-5.4 11.9-20.8 12.6-20.8.2 0 .1 6.1 0 13.5l-.4 13.5h14.1l.4-3.2.3-3.3.8 3.2.9 3.3h161.8l8.1-2.6c12.8-4.2 22-10.4 15.4-10.4-1.4 0-2.6-.3-2.6-.6s1.8-2.7 4-5.2 3.7-4.9 3.3-5.2c-.5-.4-3.6-.4-6.9-.1-5.3.6-7.7 1.6-17.2 7.4-9.7 5.9-17 9.7-18.7 9.7-1 0-3.6-7.5-3.2-9.2.6-2.2-2.7-16.4-4.3-18.3-.7-.8-1-2.4-.7-3.4.5-1.9-5.5-28-6.9-30.3-.4-.6-.8-2.6-1-4.4s-.9-4.4-1.6-5.6c-.7-1.3-1.3-3.4-1.5-4.8-.1-1.4-.8-6-1.4-10.3-.7-4.2-.9-8-.6-8.3 1.4-1.4 3.4 1.8 4.6 7.1.7 3 1.7 5.7 2.2 6 .5.4.6-.2.2-1.2-.6-1.7-.5-1.7 1.4 0 1.1.9 2.4 1.7 3 1.7s2.7 4.2 4.8 9.3c4.7 11.3 7.9 16.8 8.3 14.6.2-.9-.9-11.2-2.3-22.9s-2.5-21.8-2.5-22.4c.1-.6 1.9 2.4 4.1 6.6 3.9 7.7 5.7 10 4.5 5.5-2.1-7.4-6.5-28.9-6.7-32.7-.1-2.5-.1-8.1 0-12.5l.3-8 1.3 6.5c2.7 13.1 13.1 37.4 20.8 48.3 2.3 3.4 3.1 3 1.7-.9-3.5-9-9.2-35.4-7.7-35.4.2 0 3.4 5.1 7.1 11.2 6.6 11 13.6 20.4 12.2 16.4-.4-1.1-1.6-7.2-2.6-13.5-1.9-11-2.5-19.3-5-73.1-2.5-51.7-9-84.5-24-120.9-1.5-3.7-3-8.5-3.4-10.9-.3-2.3-1.8-7.3-3.3-11-9.6-23.9-25.6-36.6-43.5-34.5l-4.6.6-5.4-8.1-5.3-8.2h-67.7zm-52.6 136.4c-.3.8-.6.5-.6-.6-.1-1.1.2-1.7.5-1.3.3.3.4 1.2.1 1.9"/></svg>