<svg xmlns="http://www.w3.org/2000/svg" width="682.667" height="512" version="1.0" viewBox="0 0 512 384"><path d="M0 192v192h255.6l-.7-6.3c-.5-3.4-1.7-9.8-2.9-14.2-1.6-5.9-2.1-10.7-2-18.5.1-5.8.1-11.2.1-12.1-.1-.8-2.2-4.2-4.7-7.5-6.4-8.3-7.4-10.4-8.4-19.3-1.1-10.1-3.5-16.1-6.1-15.6-1 .2-2.3.6-2.8 1-1.7 1-5.8 10.8-6.6 15.4-.6 3.5-1.8 5.4-5.9 9.5-2.9 2.8-6 5.7-6.9 6.4-1.4 1.1-1.7 3.4-1.7 15 0 7.6-.4 14.2-.9 14.7-.5.6-1.7 5.9-2.7 12-1 6-2.3 11.3-2.9 11.7-1.4 1.1-4.7 1-4.1-.1.3-.5-.1-1.4-.9-2.1-1.2-1-1.6-.9-2 .3-.4.9-2.7 1.6-6.7 2.1-5.9.6-9.7.3-36.3-2.9-6.6-.8-21.4-2.4-33-3.6-22-2.2-24.5-2.9-29-8.1-1.1-1.3-1.8-2.8-1.7-3.4.1-.7 2.6-3.6 5.6-6.6 14.8-15.2 16.9-20.6 15.6-40.1-.5-7.3-1.4-14.8-1.9-16.7-1.8-5.6-1.3-16.5 1.4-32.5 1.4-8.3 3-21.3 3.6-29 1.7-24 4.6-45.3 14.9-109.3 2.6-15.5 4.7-25.6 6-28.1 2.5-4.9 10.7-15.8 17.7-23.5 5.9-6.4 6.1-7.7 2.5-15.4-2.1-4.6-4.7-6-13.7-7.6-8.1-1.4-9.7-2.5-9.3-6.6.5-4.4 7.4-8.5 17.4-10.3 8.5-1.6 19.4-6 20.1-8.2.2-.6-4.1-2.3-9.4-3.9-11.6-3.4-26.5-10.1-31.1-14.1-3.1-2.6-3.2-2.8-1.6-4.6 1.7-1.9.2-1.9-61.4-1.9H0zM197 1c0 1.1 1.4 1.1 5 0 2.2-.7 2.1-.8-1.2-.9-2.1-.1-3.8.3-3.8.9m28.6 1.9c-2.6 5-10.3 10.7-21.6 16.2-6.1 2.9-11 5.6-11 5.9 0 1 12.9 4 24 5.6 15.7 2.2 16.2 2.5 18.4 6.7 1.7 3.6 1.7 3.9.1 5.7-1 1.1-4.2 2.8-7.2 3.7-7.3 2.3-9.3 4.4-9.3 9.6 0 6.8.9 8.6 5.4 10.9 5.4 2.7 23.7 21.1 26.5 26.5 3.5 7.1 5.3 16.8 4.8 26.3s-2.6 16.6-9.1 30.8c-3.2 7.1-4.8 12.3-5.9 19.2-.8 5.2-3 15.2-4.8 22.2s-3.1 12.9-2.8 13.3c.3.3 2.3-.2 4.4-1.1 4.7-1.9 7.9-1.4 16.3 2.8 4.1 2 7.2 4.3 8.5 6.5 1.2 1.8 2.7 3.3 3.3 3.3s1.9-2.1 2.9-4.8c1-2.6 5.7-12.6 10.5-22.2 7.1-14.4 8.8-18.6 9.3-23.9.8-7.8 5-23.3 8.3-30.6 1.3-3.1 2.4-6 2.4-6.6s1.4-4.4 3.1-8.6c2.4-5.6 4.6-9 8.7-13l5.5-5.5-1.9-9.7c-4.1-20.7-1.5-54.4 4.3-57 1.9-.9 2.7-.8 4 .5 1.4 1.4 1.7 4.7 1.7 22.7.2 30.6 2 35.3 12.7 32.9 2.8-.7 8.9-1.2 13.7-1.2 19.7 0 34.2 7.5 44.6 23.3 2.1 3.2 4.1 5.7 4.4 5.7 1.8 0 14.9-16.2 19.9-24.7l2.4-4.2-1.9-3.8c-1-2.1-4-7.7-6.5-12.4-2.6-4.7-4.7-9.3-4.7-10.2 0-1 1.5-2.6 3.3-3.8 2.7-1.7 4.2-1.9 9.2-1.4 12.8 1.3 11.8 1.5 13.5-3.7.8-2.6 2.1-5 2.9-5.3 2.6-1 8 1.6 11.3 5.6 1.8 2.1 4.2 4 5.3 4.2s3 .9 4.3 1.6c2.7 1.4 8.2 9.7 8.2 12.2 0 1-2.2 2.9-5.5 4.8-3 1.7-6.1 4-6.7 5.1-.7 1.1-1.7 2-2.1 2-.5 0-3-2.3-5.7-5.1-4.5-5-7-5.8-7-2.3 0 3.2-5.3 17.2-9.5 25.1-5.2 9.8-8.6 14.3-18.3 24.3l-7.2 7.5.6 8.5c1.3 17-6.4 53.6-29.8 141.5-1 3.8-2.5 15.1-3.3 25-1.3 16.6-1.6 18.6-4.8 26-3.4 8-5.7 19.4-5.7 28.4 0 4 .6 5.6 4.5 10.8 7.4 9.9 2.3 9.3 79 9.3H512V0H227.1z"/></svg>