<svg xmlns="http://www.w3.org/2000/svg" width="682.667" height="512" version="1.0" viewBox="0 0 512 384"><path d="M0 192v192h115.1c106.4 0 115.1-.1 114.5-1.6-.9-2.5-2.5-14-2.7-20.6-.2-5.1-.7-6.3-5.2-12-6.9-8.9-8.4-12.2-9.7-21.8-1.6-11-2.7-13.8-6.4-16.1-6.1-3.7-8.2-1.8-10.6 10-1.4 6.8-5.7 13.7-9.9 15.7-4.1 2.1-5 4.7-5.7 16-.4 6-1.1 12-1.7 13.4s-1 2.8-.9 3.2c.4 1.7-5.8.7-22.8-3.7-9.9-2.5-53.7-11.5-56.3-11.5-5.2 0-15.8-7.8-18.2-13.5-.5-1.1-.9-16.2-1-33.5-.2-32.6.1-37.1 4.3-53 1.1-4.1 2.9-10.9 4-15.1s3-13.4 4.2-20.5c3.3-19.5 8.2-37.9 20.1-74.9 1-3.3 3.6-11.9 5.8-19 2.2-7.2 5.3-17.5 7-23 1.6-5.5 3.7-12.5 4.6-15.6s2.9-7.6 4.5-10c2.9-4.5 15-16.5 25-25.1l5.4-4.6-1.7-5.5c-2.7-8.4-3.9-9.4-14.3-11.6-10.9-2.2-13.4-3.4-13.4-6.4.1-5.4 9-11.3 19.2-12.7 6.3-.9 22.1-5.8 19.3-6-.5 0-.4-.4.4-.9 1.1-.7.5-1.3-2.4-2.5C167.2.2 157.2 0 83.4 0H0zM228.5 1.5c-1.6.8-6.5 2.5-10.8 3.8s-7.9 2.8-8 3.3c-.3 1.2 14 6 21.8 7.4 8 1.4 19.3 4.8 22 6.6 2.8 1.8 5.4 8.4 4.5 11-.6 1.5-2.7 2.4-8.6 3.8-4.4 1-8.5 2.3-9.1 2.8-2.9 2.4-.2 16.8 3.1 16.8 2.7 0 19.9 19 25.7 28.3 4.1 6.7 6.1 12.7 6.6 20.3 1.3 17.2-4.9 31.8-21.2 49.2-2.8 3-7.2 9.7-10.2 15.4-2.9 5.5-5.8 10.8-6.6 11.7-.7.9-3.9 5.8-7.1 11-6.1 10-6.5 12.7-1.8 11.8 4.1-.8 9.5 2 16.2 8.7 4 3.9 6 6.7 6 8.3 0 5 3 3.8 10-3.8 3.7-4.1 11.5-12.1 17.3-17.8 6.4-6.3 11.5-12.3 13.2-15.5 1.4-2.8 3-5.8 3.5-6.6.4-.8 1.3-2.6 1.9-4 .7-1.4 2.3-4.3 3.6-6.5 1.4-2.2 2.9-5 3.5-6.3.5-1.2 2.7-4.6 4.9-7.5 2.2-2.8 6.2-9.2 9-14 6.4-11 10.8-16.5 16-19.7l4-2.5-.6-19.5c-.5-19 .7-37.4 2.7-39.4.4-.4 2.6 0 4.9 1l4.1 1.8.1 8.5c.1 4.7.1 10.2 0 12.1 0 1.9.4 6.8.8 10.7.8 6.2 1.4 7.7 4.1 10.4 3.1 3.1 3.3 3.2 10.3 2.6 6.6-.5 13.6.1 19.5 1.7 1.2.3 3.1.8 4.2 1 4.3 1 14.3 7.1 18.9 11.7 2.9 2.9 6.6 8.2 9.4 13.7l4.7 8.9 5.1-5.1c2.8-2.8 7-7.4 9.3-10.1 2.2-2.8 4.9-5.9 5.9-7s2.4-3.1 3.1-4.5 1.8-3.4 2.5-4.6c1.4-2.1.9-3.8-8-28.1-2.2-6-1.9-7.3 2.2-9.7 3.6-2.1 11.1-1.8 16.9.7 1.9.8 3.9 1.5 4.5 1.5.5 0 1.2.9 1.6 1.9.6 1.5.8 1.3 1.4-1.2 1.3-4.9 4.4-10.5 6-10.5 2.8 0 11.7 3.9 13.1 5.7.8 1 2.3 3.6 3.4 5.8s3.4 6.5 5 9.5c4.1 7.9 3.7 14-.9 14-.8 0-2.6 1.1-4 2.4-4.5 4.3-5.9 3.8-11.6-4l-5.1-7.2-2.3 5.1c-1.3 2.7-3.6 8.1-5.1 11.8-1.6 3.8-4.2 8.8-5.9 11.3s-3.1 4.8-3.1 5.1c0 1.8-13.5 17.9-21.7 26.1l-9.3 9.1v6.6c0 8.9-1.9 17.5-7.9 34.7-6.1 17.9-6.6 19.1-20.3 51.3-6.1 14.4-13.5 32.5-16.5 40.2s-6.1 15.3-6.8 17c-4.6 10-5.4 13.7-6.4 28.7-.8 13.1-1.4 16.5-4.1 23.8-1.7 4.6-3.6 9.3-4.4 10.5-.7 1.1-1.7 3.9-2.1 6.3l-.7 4.2H512V0L371.8.1C255.1.1 231 .4 228.5 1.5"/></svg>