<svg xmlns="http://www.w3.org/2000/svg" width="682.667" height="512" version="1.0" viewBox="0 0 512 384"><path d="M0 192v192h94c51.7 0 94-.2 94-.4s-4.4-3.1-9.7-6.4c-17.4-10.7-17.7-11-19.6-18.8-1-3.8-1.7-7.8-1.7-8.9-.1-2.1-2.2-5.5-3.5-5.5-.4 0-2.4-1.4-4.4-3-2-1.7-4.1-3.5-4.7-3.9-1-.8-3 4.7-3.8 10.4-.7 4.7-3.1 4.1-16.1-3.9-19.1-11.8-30.9-17.7-50.5-25.5-19.9-7.9-36.1-16.2-42.7-21.8-4.1-3.6-5.8-5.9-8.3-12.1-2.7-6.4-3.1-8.4-2.6-12.8.6-4.9 4.4-15.5 7.9-21.9 2.6-4.8 3.4-6.5 6.7-15 1.7-4.4 4-9.8 5-12.1 1-2.2 2.6-6.5 3.5-9.5s2-6.3 2.5-7.4c.4-1.1 2.5-7 4.5-13 3.8-11.2 13-32.8 17-40 1.2-2.2 4.6-8.5 7.5-14 3-5.5 14.8-25.3 26.3-44C112.9 75.9 122.9 59 123.8 57c1.8-4.5 9.7-17.9 12-20.5 5.6-6.5 16.6-13.8 36.5-24.4 11.3-6 12.4-7.1 11.1-10.5-.6-1.4-9.6-1.6-92-1.6H0zM299.2 3.3c3.6 3.3 7.8 12.5 7.8 17.4 0 2.8-1.6 3.2-13 3.5-9.7.3-9.7.3-8.6 9.2.6 4.6 1.4 5.9 7.6 12.6 5 5.4 8.8 11.1 13.9 20.5 11.8 21.9 13.9 27.9 14.7 41 1 15-3.5 28.4-12.9 39.2-6.7 7.5-22.1 13.8-36.7 15-7 .5-11.6 1.9-27.5 8.5-2.7 1.1-6.1 2.2-7.5 2.5-1.4.2-3.4.9-4.5 1.3-1.1.5-5 2-8.6 3.4-9.8 3.6-12.9 5.4-12.9 7.6 0 1 .6 2.3 1.3 2.7 4.7 3.1 9.3 19 7.7 27.3-1.3 6.9-.3 7.4 10.5 5 6.2-1.4 14.4-2.2 26.5-2.7 12.1-.4 18.6-1 21-2 1.9-.9 5.5-2.3 8-3.3 13.5-5.3 22.7-9.3 32.7-14.4 6.1-3.1 11.4-5.6 11.8-5.6.3 0 1.1-.4 1.8-1 .7-.5 7.3-6 14.7-12.1s16.5-12.9 20.3-15.1c3.7-2.2 6.9-4.4 7.2-4.7 1.3-2.3 10.6-48.1 13.5-67.2.9-6 2.5-9.9 4-9.9.5 0 1.7 1.2 2.7 2.7 1 1.6 2 3 2.4 3.3 1.8 1.5 1.6 10.8-.7 25.4-2.7 17.5-2.9 23.7-1.3 28.7 1.2 3.7 3.6 6.2 5.1 5.3.5-.3 5.1-.5 10.2-.5 14.6.2 24.5 4.5 33.4 14.7 5.5 6.2 8 11.7 9.9 21.6.9 4.6 1.7 8.9 1.9 9.5.5 1.8 12-7.2 23-17.9 8.9-8.7 11.2-10.5 16.1-12.7 3.1-1.4 3.8-7.9 2.3-20.9-2.5-21.9-2.5-21.6.3-23.1 1.9-1 3.6-1.1 7.6-.2 2.9.6 5.6 1.1 6.1 1.1.6 0 1-22.6 1-59.5V0H403.8L295.5.1zm210.2 171.4c-1.1 1-3.6 2.6-5.6 3.7-2.1 1-4.5 2.6-5.6 3.5-2.6 2.3-5.9 4.1-7.5 4.1-.8 0-4.1 2.6-7.3 5.8s-11.2 10-17.6 15.1c-10 8-12 10-12.8 13.2-2.6 9.5-6.5 19.6-9.7 25.3-7.8 13.3-25.4 37.4-47.7 65.1-6.7 8.2-15.6 19.8-19.9 25.7-7.7 10.5-29.7 45.4-29.7 47 0 .4 37.4.8 83 .8h83V278.5c0-58-.1-105.5-.3-105.5s-1.2.8-2.3 1.7"/><path d="M294.5 211.7c-3 .8-4.7 2.5-3.6 3.6 1.3 1.3 3.7.3 5.1-2.2.6-1.2.9-2 .8-2-.2.1-1.2.4-2.3.6M170 235.4c0 2.5 2.7 7.3 4.5 7.9 1.8.8 1.8.8.1-3.5-1.8-4.3-4.6-6.9-4.6-4.4"/></svg>