<svg xmlns="http://www.w3.org/2000/svg" width="682.667" height="512" version="1.0" viewBox="0 0 512 384"><path d="M0 82.5c0 45.4.3 82.5.6 82.5 1 0 4.2-4.2 10.9-14.1 3.6-5.3 7.2-10.2 8-10.9s1.5-1.8 1.5-2.5c0-.8.4-1.5.9-1.7s6.8-8.2 14.1-17.8c22.9-30.6 35.4-44.3 80-87.7 17.2-16.7 20.7-20.3 25.4-26.6l2.8-3.7H0zM358 2c.6 1.1 1.4 2 1.8 2 1.5 0 4.1 5.8 4.7 10.6.7 5 .7 5.1-2.4 6.4-2.8 1.1-3.9 1-10.4-1.4-9.7-3.5-11.6-3.4-10.7.9.1.5.6 3.6 1 6.7.9 6.2.8 6 9.2 20.5 5.7 9.8 11.8 25.3 14.3 36.8.2.5 1.5 5.9 3.1 12 2.5 9.7 2.8 12.8 2.8 26 0 16-1.2 23-6 35.4-2.6 6.8-7.9 15.6-11.9 19.9-1.4 1.5-2.5 3-2.5 3.3 0 1.8-14.2 10.9-20.1 12.9-6 2-7.4 2.1-13.5 1.1-9.6-1.5-18.1-6-25.6-13.5-3.5-3.5-8.9-7.7-12.3-9.4-3.3-1.7-9.8-5.4-14.5-8.2-17.2-10.4-35.4-17.9-40.6-16.6-2.1.6-2.4 1.2-2.4 5.4 0 4-.8 5.8-5.1 12.2-2.8 4.1-7.4 9.6-10.2 12.1-3.4 3.1-4.8 5.1-4.4 6.1.3.9 3.3 3.1 6.7 4.9 7.4 3.9 17.6 13.1 25.5 23.1 9.8 12.2 11.6 13.8 21.5 18.8 30 15.1 55.6 20.1 76.6 15 7.2-1.7 18.3-5.4 23.9-7.9 5.1-2.3 30.4-14.3 33.4-15.9 2.1-1 5.3-4.4 8.2-8.7 7.3-10.6 21.5-39.5 24.6-50 .4-1.1.9-2.2 1.2-2.5.8-.7 2.7-5.9 6.2-17 1.6-5.2 3.6-11 4.4-12.8s1.5-3.8 1.5-4.5c.1-.7.9-3 2-5.2s1.9-4.6 2-5.3c0-1.5 1.5-1.5 4.1-.1 1.1.5 1.6 1.5 1.3 2.1-.5.8-.1.9 1 .5 1-.4 1.5-.3 1.1.3s-.8 2.7-1 4.8c-.6 6.8-1.6 11.6-4.2 19.7-3.8 11.9-10.8 31.2-13.8 38-1.9 4.2-2.8 8.2-3.1 13.4l-.4 7.3 4.2-.5c2.4-.2 7.4-1 11.2-1.8 6.1-1.1 7.7-1 14.3.6 10.5 2.6 18.3 9.3 23.7 20.5 2.9 6.1 3.1 7 2.8 16.5-.1 5.5-.4 11.5-.5 13.3l-.2 3.3 12.5.4c8.1.3 13.7 0 15.8-.7l3.2-1.2V0h-77.5c-77.3 0-77.6 0-76.5 2M138 181.3c-5.2 3.2-5.7 3.8-6.6 9.7-1.1 6.6-.3 21.2 1.1 21.7.6.2 3.3-4.1 6-9.4 4.6-9 5-10.4 5-16.7 0-3.8-.4-7-1-7.2-.5-.1-2.6.7-4.5 1.9M0 300.9V384h155.3l-7.9-8.3c-19.6-20.5-32.6-36.2-55.4-66.7-17.8-23.9-22.9-30.1-32.4-39.3-6.5-6.3-20.2-16.8-25.7-19.7-3.8-2.1-4.9-3-19.6-17.8L0 217.9zm261.4-61.4c.8.8 2.5 1.5 3.8 1.5l2.3-.1-2.5-1.4c-3.5-2-5.6-2-3.6 0m245.5 34.9c-.7.8-11 1.5-22.4 1.5l-11.1.1-3.4 5.7c-14.9 25-30.6 40.2-79 75.9-23.4 17.3-33 24.6-33.5 25.5-.4.5 29.1.9 76.9.9H512V274h-2.3c-1.3 0-2.6.2-2.8.4"/></svg>