<svg xmlns="http://www.w3.org/2000/svg" width="682.667" height="512" version="1.0" viewBox="0 0 512 384"><path d="M0 60.1v60l4.8-2.6c5.3-2.9 7.6-4.8 20.9-17.5 4.9-4.7 11.8-11 15.4-14 3.5-3 10.2-9.1 14.9-13.5s11.2-10.3 14.5-13c3.3-2.8 6.2-5.3 6.5-5.6 1.1-1.3 21.2-16 31.5-23 6.1-4.2 18.4-12 27.5-17.4s17.9-10.6 19.5-11.6C158.4.1 156.8 0 79.3 0H0zM380.6 3.7c1.5 2.1 3.1 4 3.4 4.3 1.6 1.2 14.9 20 17.5 24.5 3.4 6.2 3.9 16 .9 18.2-2.4 1.8-2.2 1.9-10-3.2-3.8-2.4-7.5-4.5-8.2-4.5-.9 0-1.1 1.9-.7 7.7.8 11 1.6 16.6 2.5 17.8 1.8 2.3 8 25.7 9 34 1.3 11.8 1.3 38.7-.1 47.8-3.8 26.1-13.2 46.2-28.5 61.4-18.4 18.3-41 25.3-56.9 17.7-8.9-4.2-16.4-15.6-18-27.4-.3-2.5-2.6-8.6-4.9-13.5-16.2-33.6-18.8-38.1-26.8-46.8-5.5-5.8-7.7-6-11.2-.7-1.6 2.4-3.7 4.2-5.4 4.6-1.5.4-5.1 1.8-8.1 3.1s-7.8 2.6-10.8 3c-3 .3-6.3 1.3-7.4 2.2-1.9 1.6-1.9 1.7 1.1 6.1 6 9 8.2 18 9.9 41.6.9 11.2 1.2 12.5 4.7 19 7.4 13.6 12.9 21.1 23.3 31.5 11 11.1 17.6 15.4 31.5 20.6 12.9 4.9 40.5 5.5 60 1.3 5-1.1 10.4-2.2 12-2.4 15.7-2.7 19.9-5.2 37.6-22.7 5.5-5.5 16.7-18.6 22.1-25.9 4.5-6.1 11.9-17.1 11.9-17.7 0-.3 1.1-2 2.3-3.7 1.3-1.7 5-8.1 8.2-14.1 3.2-6.1 6.7-12.2 7.7-13.7 1-1.4 1.8-3.3 1.8-4.2s.3-1.6.8-1.6c.4 0 1.6-1.8 2.6-4 1.8-3.8 3.6-5.2 3.6-2.9 0 .5.5.7 1.2.3.8-.5.9.2.5 2.5-.4 2-.3 3 .3 2.6.6-.3 1-.5 1-.3-.1 1.5-6.1 17.2-6.7 17.7-.5.3-1.5 2.2-2.3 4.1s-1.7 3.7-2 4-1.2 2.1-2 4c-1.7 4.2-14.4 24.6-21.5 34.5-2.8 4-5.7 8.7-6.4 10.6s-1.9 4.9-2.7 6.6L416 251h3.3c1.8 0 5.9-.7 9-1.5 7.4-1.9 13.1-1.9 21.6.1 8 1.8 12.6 5.6 16.9 13.9 3.4 6.7 3.4 15.9-.1 26.9-1.4 4.3-2.4 8.3-2.1 9 .2.6 2.8 1.1 5.8 1.2 2.9 0 6.6.6 8.2 1.2 4.4 1.8 18 4.3 26.2 4.9l7.2.5V0H377.8zM150.1 134.1c-6.2 2.3-8.1 4.2-12 12.4-8.1 17-6.8 18.5 5.5 6.7 10.6-10.1 14.4-15.1 14.4-19 0-2.6-.8-2.6-7.9-.1M0 275.2V384h134.4l-3-3.2c-3.7-4-15.1-19.5-20.5-27.8-17.4-27-27.2-46.7-47.7-96-12.7-30.6-19.3-40.2-38.2-55.6-3.6-2.9-7.5-6.8-8.5-8.7-1.1-1.8-3.3-5.5-5-8.1-1.6-2.5-4.9-7.7-7.2-11.4L0 166.5zm234-40.6c0 1.7 2.8 4.9 3.6 4.1.4-.4-.2-1.7-1.4-3-1.2-1.2-2.2-1.7-2.2-1.1m207.2 97.2c-16 16.6-33.7 27.8-70 44.3-7.6 3.4-14.4 6.5-15.2 7s33.6.9 77.3.9H512v-58.9l-13.7.3c-13.6.2-14.6.1-43.3-5-2.1-.3-4.2 1.4-13.8 11.4"/></svg>