<svg xmlns="http://www.w3.org/2000/svg" width="682.667" height="512" version="1.0" viewBox="0 0 512 384"><path d="M0 52.5C0 96.4.2 105 1.4 105c.7 0 1.9-.6 2.5-1.4s4.1-2.8 7.7-4.5c3.5-1.7 9.7-5.9 13.7-9.3 15.6-13.5 23.3-19.6 32.7-26 1.4-.9 4.3-3.3 6.5-5.3 9.9-9 35-26.6 52.7-36.9 5.3-3.1 16.7-9.2 25.5-13.6L158.5.1 79.3 0H0zM385.7 1.2q10.95 14.1 11.4 15.3c.2.5 3 5 6.2 9.9 11.1 16.7 12.9 20.7 13 28.6.1 5.8-.2 7.2-1.9 8.4-1.7 1.3-2.3 1.2-5.6-.6-2-1.2-5.1-3.4-6.9-5-1.7-1.6-3.6-2.7-4.2-2.5-2.1.7-.7 19.8 2.4 32.9 4.4 18.6 5.5 31.6 4.1 49.5-3 38.1-13.6 65.1-33.7 84.8-7.5 7.5-21.9 17.5-25.1 17.5-.7 0-1.5.4-1.8.8-1.3 2.1-14.4 4.7-23.6 4.7-8.6 0-10.1-.3-15.5-3-11.4-5.7-17.3-17.2-16.2-31.7.5-5.4.2-8.9-.8-11.7-.8-2.2-2.3-9.1-3.4-15.3-4-22.5-11.9-42.7-17.8-45.9-2.4-1.3-2.7-1.2-5.4 2.1-2.5 3-3.7 3.5-9.6 4.4-3.8.5-10.9 1-16 1-5.1.1-9.6.6-10.2 1.1-.7.7-.4 2.4.9 5.3 4.3 9.6 4.4 22.2.4 43.2-1.9 10.1-1.8 12.6 1 22.2 6.6 22.7 13.9 35.5 27.5 48.6 19.1 18.1 45.7 24.8 85.1 21.3 20.1-1.8 24.3-3 34.5-9.6 7.4-4.8 22.8-17.8 31.8-26.9 9.9-9.9 27.1-31.5 33.8-42.3 1.9-3.2 5.2-8.4 7.2-11.5 2-3.2 3.7-6.2 3.7-6.8 0-.5.5-1 1-1 .6 0 1-.7 1-1.5s.4-1.5.8-1.5c.5 0 1.9-2 3.1-4.5 1.9-3.8 2.5-4.3 4-3.3 2 1.2 2.2 7.1.2 9.1-.6.6-1.1 1.7-1.1 2.4 0 2-8.1 17.9-9.9 19.3-.3.3-1.4 2.2-2.3 4.3-2.1 4.5-15.9 23.7-23.7 32.8-8.9 10.5-9.1 10.9-12.2 16.8-3.5 6.7-3.1 7 7.4 4.7 12.8-2.8 17-2.9 25.2-1.1 8.9 2 12.3 4.8 16.3 13.5 3.5 7.7 3.1 14-1.5 25.2-1.9 4.9-3.3 9.1-3 9.4.3.4 2.6.7 5 .9 2.4.1 5.5 1 6.8 1.8 1.3.9 4.9 2 8.1 2.6 3.1.5 7.4 1.8 9.5 2.7 2.7 1.2 6.8 1.7 14.1 1.8 7.9.1 10.5.5 11.2 1.6.6.9 1-60.4 1-162.3V0h-63.6c-50.8 0-63.4.3-62.7 1.2M157.5 118.6c-4.6 1.6-10.1 7.3-14.4 14.9-3.1 5.5-4.8 10.5-3.6 10.5.4 0 2.8-1.7 5.4-3.8 2.5-2.1 7.2-5.6 10.5-7.7 6.2-4.2 13.6-11.9 13.6-14.1 0-1.8-6.1-1.7-11.5.2M0 264.3V384h63c34.7 0 63-.3 63-.6 0-.4-1.2-2.1-2.7-3.9-11.1-13-29.7-44.8-39.8-68-9.2-21.1-12.6-30.6-27.5-77-2.3-7.2-6.5-17.7-9.3-23.4-5.3-10.7-7.9-13.7-23.3-28.1-3.8-3.6-7.2-8-9.4-12.3-1.9-3.8-4.3-8.2-5.2-10-1-1.7-2.2-4.2-2.8-5.6-.5-1.5-1.5-3.5-2.2-4.6s-1.9-2.9-2.5-4C.2 144.9 0 168.1 0 264.3m225-35.6c0 1.9 1.1 4.3 2.1 4.3 1.3 0 1.1-1.4-.6-3.6-.8-1-1.5-1.4-1.5-.7m208.4 114.4c-5.4 5.1-13.2 11.4-17.2 14-10.1 6.7-28.5 15.8-42.9 21.4-6.8 2.6-12.3 4.9-12.3 5.1s34 .4 75.5.4H512v-41h-9.7c-20.5-.1-35.7-2.3-56.9-8.5-1.6-.5-4.2 1.4-12 8.6"/></svg>