<svg xmlns="http://www.w3.org/2000/svg" width="682.667" height="512" version="1.0" viewBox="0 0 512 384"><path d="M0 192v192h44c24.2 0 44-.4 44-.8 0-.5-.9-5.1-2-10.3-1.2-5.2-2.4-10.8-2.7-12.4-.3-1.7-1.2-4.2-2-5.7-.7-1.5-1.3-2.9-1.2-3 .1-.4-1.5-4.4-5.6-13.8-10.1-23.1-18.8-55.9-22.1-83-2.4-19.1-2.3-54.5 0-84.7 2.1-26.5 1.7-34-2.6-42.9-2.1-4.5-10.8-12.6-14.8-13.9-2.3-.7-2.6-2-6.9-24.5-6.5-35-6.5-33.9.5-44.8 3.8-6 5.4-7.5 9.9-9.7 3-1.4 7-2.5 8.9-2.5s7-1.6 11.3-3.6c8.7-4 12.3-5.6 13.8-6 .6-.2 4.9-1.9 9.7-3.8 4.8-2 9.4-3.6 10.2-3.6s1.8-.5 2.1-1c.3-.6 1.3-1 2.1-1 .9 0 4.1-1.2 7.2-2.6 3.1-1.5 9.3-4.2 13.7-6.1s8.1-3.6 8.4-3.9c.2-.2-28-.4-62.7-.4H0zM424 1.1c0 1.2 3.5 16.5 6 26.4 1 3.8 3.9 11.7 6.5 17.5 5.9 13.5 13.5 36.2 17.1 51.4 2.6 11.4 2.7 12.4 1.6 21.3-1.2 9.3-3.2 14.3-5.8 14.3-.8 0-2.5-2.2-3.8-4.8-4.7-9.2-4.9-9-8.4 10.1-1.8 9.5-3.7 21-4.2 25.7-3.7 30.9-16 59-37.4 85.6-14.2 17.6-34 32.3-54.6 40.4-18.6 7.4-42.7 9-61.5 4.1-22.4-5.8-40.2-20.8-43.5-36.4-1.3-6.6-.7-10.6 2.5-16.2 3.3-5.7 6.1-7.9 14.1-10.9 4-1.5 8-3.6 8.9-4.6 1-1.1 4.1-3.4 6.9-5.1 15.9-9.9 19.5-12.7 28.4-21.8 7.6-7.8 13.6-17.6 13-21.4-.2-1.6-1.5-2.5-4.9-3.4-3.3-1-4.9-2.1-5.8-4-.7-1.5-2.5-4.3-4-6.2-1.5-2-4.3-6.9-6.1-10.9-3.5-7.6-5.8-10-7.8-8-.7.7-1.2 1.8-1.2 2.5 0 1.8-5.6 7.9-9.5 10.3s-15.3 6-29 9.1c-11.6 2.6-15.5 4.9-26.1 15.4-11.5 11.4-18.6 23.7-22 38.1-2.3 9.6-1.5 28.3 1.6 37.4 10.6 31.6 42.1 59.3 81.5 71.5 14.8 4.6 32.1 4.5 55.6-.5 28.3-6.1 58.6-21 84.4-41.7 7.4-5.9 25.2-22.1 31.5-28.5 3.6-3.7 5.4-3.7 4.5-.1-1 4.1-10.6 15.3-21.9 25.6-19.9 18.2-32.9 27-58 39.4-5 2.5-11 5.9-13.4 7.6-4.1 3-4.2 3.2-2.1 3.9 1.3.5 5.5.4 9.8-.3 4.2-.7 16.2-1.3 26.7-1.3l19-.1 4.2 2.7c5.2 3.5 7 7 6.8 12.9-.1 3.9-1 5.7-6.4 12.7-3.4 4.5-6.2 8.3-6.2 8.5s1.1.2 2.4 0c1.5-.3 3.1.2 4.2 1.4 1.7 1.7 3.6 3 13.3 9.5 5.1 3.5 7.4 3.8 25 3.8h17.8l6.4-6.9c3.5-3.8 8.1-8.9 10.3-11.2 4.5-5.1 4.6-5 6.6 6.6 2.2 12.5 1.4 11.5 8.6 11.5h6.4V0h-44c-30.5 0-44 .3-44 1.1M216.5 70.5c-7.1 1.6-15.5 5-15.5 6.4 0 .5 3.5.9 8.3.8 4.5-.1 14.5.2 22.2.6 15 .9 18.9.1 15.1-2.8-2.9-2.2-16.7-6.5-20.6-6.4-1.9 0-6.2.7-9.5 1.4M207 182c-1.2 1.6-1.7 3-1.3 3 .5 0 1.9-1.4 3.1-3 1.3-1.7 1.8-3 1.3-3s-1.9 1.3-3.1 3"/></svg>