<svg xmlns="http://www.w3.org/2000/svg" width="682.667" height="512" version="1.0" viewBox="0 0 512 384"><path d="M0 192v192h32.6c30.7 0 32.6-.1 31.9-1.8-.3-.9-1-6.9-1.6-13.2-.7-10-1.9-23.5-3.3-39-.3-2.5-2.3-10.8-4.6-18.5-2.2-7.7-5.5-21.9-7.2-31.5-3.1-17-3.2-18.3-3.3-46.5 0-23.1.4-31.3 1.8-40.5 2.8-18.2 6.4-34 12.2-54.5 9.4-33.4 10.4-40.4 6.4-47.4-2.2-3.9-9.7-9.5-14.1-10.6-1.5-.4-2.8-1.6-3.2-2.9-.9-3.5-2-49.9-1.2-53.7.5-3.1 4.7-9.1 10.9-15.8 3.6-3.9 10-6.1 18-6.1 4 0 7.9-.5 8.7-1 1-.6-13.3-1-41.2-1H0zM448.5 9.2c.4 5.1 1.1 11.8 1.5 14.8.5 3 1.2 11.6 1.5 19 .6 11.3 1.3 15.8 4.5 27.5 6.6 24 10.3 45.1 11.6 65 .6 8.7.3 11.4-2 20.8-2.4 10.2-5.8 17.1-8 16.4-.5-.2-1.7-2.5-2.6-5.2-2-6.1-3.4-6.6-4.8-1.8-.5 2.1-3.3 10.3-6.2 18.3-2.8 8-6 17-7 20-3.6 10.7-11.6 28.1-16.5 35.9-4.9 7.7-7.4 11.1-13.8 18.8-30.1 36-69.7 56.3-110.7 56.6-12.2.1-17-.5-30-3.8-29.9-7.5-54.1-28-62.6-53.1-5.7-16.9-1.9-33.4 9.1-39.2 3.8-1.9 12.8-1.9 17.7.2 2.1.9 6.3 1.6 9.5 1.6s9.6.7 14.3 1.5c19.2 3.4 38.2 1.2 49.7-5.7 6.7-4 7.2-5.6 3.3-8.8l-3-2.5.6-8c.3-4.4 1.2-11 2-14.7 2.4-11.3 1.5-15.9-2.4-12.6-3.4 2.9-8.1 4-14.7 3.6-5.7-.3-8.4-1.3-21.3-7.8l-14.7-7.5-11.8-.3c-14-.4-22.3 1.2-33.6 6.5-9 4.3-8.5 3.9-18.5 13.8-6.7 6.5-9 9.7-12.9 17.5-6 12-7.7 18.9-8.1 32-1 29.6 12.6 59.8 37.8 84.3 13.2 12.7 26.9 21.7 39.2 25.6 28.9 9.1 60.5 10.5 90.7 4.1 22.1-4.8 54.4-18.1 67.3-27.7 1.7-1.3 3.5-2.3 4.1-2.3.5 0 1.8-.9 2.8-2s2.4-2 3.2-2c.7 0 1.3-.5 1.3-1 0-.6.6-1 1.4-1s2.1-.6 2.8-1.3 3.3-2.8 5.8-4.7 4.7-3.8 5-4.2c.7-.9 7-2.3 7-1.5 0 .5-5.8 6.4-11.4 11.5-2.6 2.4-3.3 2.9-17.1 12.3-8.6 5.8-9.6 6.4-18.1 10.9-6.7 3.7-26.6 12-35.2 14.9-3.5 1.1-12.7 3.6-20.6 5.5-27.9 6.8-26.9 7.4 14.1 9.2 23.6 1 33.2 1.8 37.1 3 9.4 3 12.7 10.1 8 17.1-1.3 1.8-2.6 3.3-3 3.3-.5 0-.8.4-.8 1 0 .7 21 1 61 1h61V0h-64.1zM252 63.8c0 1 2.5 2.2 10.5 4.8 2.8.9 11.3 4.9 19 8.9s15 7.6 16.3 8c3.4 1 2.7-1.6-1.5-5.6-7.9-7.4-13.4-11.1-20-13.4C269 64 252 62.1 252 63.8"/><path d="M223.5 154c-.3.5.1 1 .9 1s1.8-.5 2.1-1c.3-.6-.1-1-.9-1s-1.8.4-2.1 1"/></svg>