<svg xmlns="http://www.w3.org/2000/svg" width="682.667" height="512" version="1.0" viewBox="0 0 512 384"><path d="M0 192v192h33.7c30.4 0 33.5-.2 31.6-1.5-3.4-2.4-8-7.2-11.5-12.1l-3.2-4.4-.7-30.3c-.4-17.9-1.1-31.3-1.7-32.9-1.8-4.5-6.1-30-7.3-44.1-1.4-16-.6-45.9 1.6-60.7 4-25.8 9.7-46.4 20.7-74.5C75 93.5 77 87.4 77 81.2c-.1-4-.6-6.4-1.9-7.8C73 70.8 63 65 60.7 65c-3.5 0-3.9-3.3-2.8-25.3C58.5 28 59.3 16 59.6 13c.6-5.7 2.7-11 4.4-11 .6 0 1-.5 1-1 0-.6-11.5-1-32.5-1H0zM392 2c1.4 1.1 4 2.7 5.7 3.7 3.1 1.7 3.4 1.7 6.2 0 1.6-.9 4-1.7 5.4-1.7s3.5-.9 4.8-2l2.4-1.9H403L389.5 0zm68.6-.9c.3.6.9 17.4 1.1 37.3.4 30.8.7 37.5 2.4 45.6 6.1 29.3 7.3 39.7 7.3 63l.1 19.5-3.4 10c-3.4 10.3-7.6 17.8-9.5 17.2-.6-.2-1.8-2.8-2.7-5.8l-1.6-5.4-1.8 4c-.9 2.2-3.5 8.3-5.7 13.5-4.9 11.5-19.4 40.8-23.3 47-24.3 38.6-65.5 67.1-108 74.5-13.4 2.4-35.1 2.4-46.5 0-32.4-6.6-58.1-24-72.8-49-5.8-9.9-9.3-21.2-10-31.7-1-18.2 4-30.3 15-36q10.65-5.55 21.3 4.2c1.7 1.5 5.5 3.7 8.5 5 3 1.2 8.1 3.7 11.3 5.6 15.4 9 26.4 12.6 38.7 12.8 10.3.1 15.5-.7 18.4-2.9 1.8-1.3 1.8-1.5-.3-4.1-2.6-3.4-2.6-3.9.3-9.4 1.3-2.5 2.7-5.6 3.1-7s2.7-5.7 5.1-9.6 4.4-8 4.4-9.2c0-1.9-.4-2-6.8-1.5-9.5.7-14.3-1.5-23.1-10.9-3.8-4-9.5-10.1-12.7-13.6-5.5-5.8-6.6-6.5-16.4-9.9-9.1-3.2-12-3.8-21.5-4.1-14.3-.5-20.8.8-32.5 6.4-8.1 4-10.8 6-18.1 13.4-6.8 7-9.5 10.6-13.2 18.1-11.5 23-12.7 50.6-3.2 78.1 7.8 22.9 26.2 48.3 44.9 62 10.6 7.8 35 17.5 53.6 21.2 36.4 7.3 74.7 3.1 111.5-12.1 10.3-4.2 29.2-14.1 37.8-19.7 9.3-6 12.2-7.2 13.3-5.5.4.7.3.9-.4.5-.6-.3-1.7.1-2.4 1-6 7.3-14.3 13.1-31.5 22-28.2 14.4-50.8 20.6-89.2 24.4-10.9 1.1-11.7 1.3-10.7 2.8 1 1.7 32.5 6.3 43.6 6.4 7.8.1 32.4 3.2 36 4.5 4.8 1.8 10 6.3 10 8.8 0 1.3 7.8 1.5 65.5 1.5H512V0h-26.1c-18.8 0-25.8.3-25.3 1.1"/><path d="M281 66.8c0 .4 2.8 2.4 6.3 4.4C294 75 302.6 81.6 310 88.5c2.5 2.3 6.7 5.9 9.4 8.1l4.9 3.9-.6-3.3c-.4-1.8-1.1-3.8-1.7-4.5-.5-.6-3.2-4-6-7.4-7.5-9.3-15-14.2-27.2-17.7-6.3-1.8-7.8-2-7.8-.8m-44.8 78.8c1.2 1.1 7 1.6 6.3.5-.3-.6-2-1.1-3.7-1.1s-2.9.3-2.6.6"/></svg>