<svg xmlns="http://www.w3.org/2000/svg" width="682.667" height="512" version="1.0" viewBox="0 0 512 384"><path d="M0 192v192l54.3-.1c30.2 0 53.1-.4 51.7-.9-22.6-7.5-37.6-11.9-42.5-12.5-8.7-1.1-11.8-2.8-17.1-9.2-8.1-10.1-8-9-6.4-36 1.6-28.3 1.5-33.3-.5-44.9-4.4-24.7-4.2-59.6.5-87.2 6.1-35.4 13.1-53.5 44.9-115.5 4.1-8 5.3-16.3 2.8-20.1-1.6-2.4-13-7.6-16.7-7.6-3.4 0-3.5-4.5-.6-25C72 14.3 73.5 4.3 73.7 2.7l.6-2.7H0zM389.2.6c.3.3 5.9 4.5 12.4 9.5 8.9 6.6 12.4 8.8 13.9 8.3 1.1-.3 4.5-1.3 7.5-2.1 7.3-2 9-3.8 9.9-10.6l.8-5.7h-22.5c-12.4 0-22.3.2-22 .6m80.3 1.1c2.4 5.6 3.6 10.1 4.1 15.1.6 5.7-.7 33.6-2.7 59.2-.9 12.2-.8 14.9 1.2 28 2.9 19.7 3.7 55.6 1.6 72-1.7 12.4-6.8 27.2-12.2 35-3.6 5.2-5.2 5.1-6.1-.5-.3-2.5-1-4.5-1.5-4.5s-2.9 4.2-5.5 9.2c-3.7 7.7-12.6 22.9-20.4 35.3-18.6 29.5-40.2 49.2-69.5 63.5-19.9 9.7-33.5 13.7-53.5 16.1-66.8 7.7-127.8-36.1-131.7-94.6-1-15.8 3.9-32.7 12.1-41.7 3.8-4.2 11.5-8.5 16.9-9.3 5.3-.9 11.2 2.5 14.5 8.2 1.5 2.6 5.2 7.4 8.2 10.7 3.1 3.4 7.3 8.3 9.5 11.1 4.8 6.2 12.7 14.1 17.8 17.8 12 9 34.7 14.2 32.8 7.5-1.4-5-1.2-5.6 4.1-10.8 2.9-2.9 8.5-7.9 12.3-11.3 3.9-3.3 7.4-6.6 7.8-7.3 1.2-2.1-.1-3.4-3.1-3.4-5 0-10.1-2-13.3-5.3-3.6-3.6-6.1-8.7-10.9-22.7-4.6-13.2-6.2-16.1-11.4-20.4-2.5-2-5.1-4.2-5.8-4.9-5.3-5-19.1-11.8-27.6-13.6-7.5-1.6-21.7-1.4-28.7.4-3.3.9-10.1 3.6-15.2 6.1-20.4 10.1-34.9 29.5-42 56.2-2.3 8.4-2.6 11.8-2.7 25.7 0 13.1.4 17.6 2.2 25.1 5.9 24.8 18.2 48.2 33 62.9 18.7 18.4 49.5 33.8 79.5 39.6 9.6 1.9 36.7 4.1 40.5 3.3.9-.1 6-.5 11.2-.8 22.9-1.2 50.8-9.4 79.5-23.2 6-2.9 11.3-5 11.7-4.8 1.5 1 .8 2.5-1.7 3.4-1.4.5-2.5 1.4-2.5 1.9 0 1.2-20.5 11.2-31.6 15.5-26.5 10-41.8 12.7-77.2 13.3-29.5.6-31.6 1.1-18.2 4.8 13.5 3.7 24 5.6 56 10 9.6 1.4 19.1 2.9 21 3.5 2.2.6 31.5 1 81.7 1H512V0h-21.6c-20.2 0-21.6.1-20.9 1.7M413 328.5c-.7.8-1.9 1.5-2.6 1.5-.8 0-1.4-.7-1.4-1.5 0-1 1-1.5 2.6-1.5 2.2 0 2.5.2 1.4 1.5"/><path d="M317.1 84.8c5.2 5.3 11.4 12.6 13.9 16.1 11.7 16.6 13.2 18.4 14 17.1 2.1-3.4-9-23.9-16.7-31-5.1-4.7-16.9-12-19.4-12-.6 0 3 4.4 8.2 9.8m-60.7 58.7c2.2 1.7 3.6 1.9 3.6.6 0-1-2.4-2.1-4.3-2.1-.7 0-.3.7.7 1.5M126.5 381.6c-1.6.8-3.1 1.7-3.4 2-.2.2 6.3.4 14.5.3l14.9-.1-5.5-1.8c-6.9-2.3-16.5-2.5-20.5-.4"/></svg>