<svg xmlns="http://www.w3.org/2000/svg" width="682.667" height="512" version="1.0" viewBox="0 0 512 384"><path d="M0 192v192h78.2c43 0 77.9-.2 77.7-.4-1.4-1.4-19.2-10.1-26-12.7-9.6-3.7-13.3-3.6-20.3.9l-4.9 3-9.6-3.3c-5.3-1.8-15.6-5.8-22.8-8.9-7.3-3.1-15.4-6.1-18-6.7-12.5-3-16.7-6-22.8-16.3-2.5-4.3-2.7-5.2-2.3-13.4.3-4.8 1.7-17.9 3.2-29.1 2.5-18.3 2.7-21.4 1.7-29.7-1.8-15.6-1.4-46.4.9-63.2 6.4-45.7 20.9-81 52.6-127.7 13.8-20.4 17-27.6 14.4-32.5-1.1-2-6-4.7-9.9-5.5-.9-.2-2.9-.8-4.4-1.4s-4.1-1.2-5.7-1.3c-3.3-.2-3.3.4.1-14.5 1-4.5 2.1-10 2.4-12.1.2-2.2.9-5.1 1.4-6.6L87 0H0zM388.4 1.3c3 1.9 16.9 12.3 19.1 14.4C419.8 27 427.4 33 428 32.1c.3-.7 2.9-1.5 5.6-2 9.6-1.5 10.6-2.5 13.1-12.6 1.2-4.9 2-9.2 1.7-9.6-.2-.3.6-1.5 1.7-2.5 1.2-1 2.5-2.7 3-3.6.9-1.7-.9-1.8-32.8-1.7-26.6 0-33.4.3-31.9 1.2"/><path d="M473.2 7.2c8 8.5 10.3 12.9 11.6 21.8 1 6.4-.3 24.3-2.7 40-5.1 32.1-5.4 36.7-4.1 56.2 1.8 25.9.3 49.6-4.6 73.3-1.6 8.2-10.8 28.4-15.6 34.5-3.4 4.3-5.8 4-5.8-.9 0-4.6-1.5-6.2-2.6-2.9-.4 1.3-1 2.5-1.3 2.8-.4.3-2.9 4-5.5 8.3-9.3 15.1-25.8 36-38 48.3-40.7 40.7-100.9 58.1-152.5 44.2-23.4-6.3-41.9-16.7-57.6-32.3-32.3-32-41.5-76-23.1-111 4.3-8.2 13.2-17.5 20.3-21 7.5-3.8 17.5-4.2 22-.9 3.7 2.7 6.3 8 6.3 12.8 0 2.2.9 5.8 2 8 1 2.3 3.3 8.8 5 14.6 4.2 14.3 9.9 25.6 16.2 32.6 6.3 6.9 16 13.4 20 13.4 2.5 0 2.8-.3 2.8-3.5 0-2.9.5-3.7 2.8-4.7 1.5-.6 5-2.1 7.7-3.4 2.8-1.2 8.5-3.4 12.8-4.8 7.2-2.2 11.7-4.8 11.7-6.6 0-.4-1.2-1-2.7-1.3-5.2-1.1-9.4-4.6-11.5-9.5-1.9-4.2-2.1-6.2-1.8-17.7.7-24.7.9-23.5-4.5-34.1-3.6-7.2-6.5-11.2-11.5-16.2-9.2-9.2-11.3-10.7-20.8-14.7-22.8-9.5-50.5-5.2-70.9 11.2-35.8 28.7-47.7 80.1-30.1 129.8 5.9 16.7 14.7 30.5 27.4 43.1 26.4 26.1 59.9 42.1 99.2 47.4 7.9 1.1 39.4 1.5 45.7.5 19.2-2.7 43.9-8.4 49.5-11.4.8-.4 4.3-1.6 7.7-2.7 3.5-1 6.3-2.3 6.3-2.7 0-.5.4-.6.9-.3s2-.3 3.4-1.4c2.5-2 6.7-2.7 6.7-1.3 0 2.4-16.3 10.3-31 15.1-24.4 8-40 10.5-65 10.6-18.8.1-28.6-.8-44.7-4-4-.8-8.7-1.4-10.5-1.4-3.2.1-3.1.2 2.4 3.1 6.4 3.3 18.4 7.4 35.8 12.2l11.5 3.2 109.8.3 109.7.2V0h-45.6zM400.5 341c-.3.5-1.4 1-2.3.9-1.4 0-1.3-.2.3-.9 2.7-1.1 2.7-1.1 2 0m-2.5 2.5c0 .2-.7.5-1.5.9-.9.3-1.5 0-1.5-.9s.6-1.2 1.5-.9c.8.4 1.5.7 1.5.9"/><path d="M334 90.5c0 .4 2 3.7 4.4 7.4 5.7 8.6 11.7 20.5 15.5 30.6 5.3 14.4 6.2 16.1 7.2 14.2 1.2-2-.3-11.4-3.3-20.7-2.7-8.7-6.9-15.8-13-22.5-5-5.4-10.8-10.3-10.8-9m-60.9 55.2c3 3.9 3.9 4.5 3.9 3 0-1.4-3.1-4.7-4.5-4.7-.4 0-.1.8.6 1.7"/></svg>