<svg xmlns="http://www.w3.org/2000/svg" width="682.667" height="512" version="1.0" viewBox="0 0 512 384"><path d="M0 192v192h156.4l-12.7-8c-7-4.4-14.7-9.2-17-10.8-6.3-4.4-14.7-8.4-19.1-9.3-3.7-.6-8.3.3-9.6 1.9-.3.4-1.9 1.5-3.6 2.4-3 1.7-3.3 1.6-10-1.1-3.8-1.5-14.1-6.5-22.9-10.9-8.8-4.5-18.4-8.6-21.3-9.2-7.2-1.6-11.8-5.5-16.8-14.1-5.2-8.9-5.1-10 3.7-50.4 1.9-8.5 2.2-13.5 2.4-33 .1-17.5.7-26.3 2.3-37 8.2-54.5 27-94.6 66.8-142.1 17.2-20.6 18.8-22.9 18.8-28.2.1-4.9.6-4.4-7.7-8.4-1-.5-2.2-.6-2.7-.3s-1.1.1-1.4-.4-3.5-1.2-7.1-1.6c-3.6-.3-6.5-1-6.5-1.4s1.4-4.8 3-9.9c1.7-5.1 3-9.9 3-10.7C98 .2 91.2 0 49 0H0z"/><path d="M360.5 3.1c3.3 1.6 8.4 3.7 11.3 4.5 5 1.5 5.9 1.5 12.4-.2l7-1.8 4.1 2.3c6.7 3.8 17.2 13 30.6 26.4 10.7 10.8 12.6 12.3 13.8 11.1.8-.8 3.4-1.4 6.1-1.4 7.1 0 10.5-2.5 12.1-9.1 3.6-14.9 6.6-18.8 14.6-18.9 4.7 0 5.2.2 10 5.4 11.1 12 14.7 22.6 12.5 37.4-1.2 8.4-5.7 31.7-6.9 35.7-.5 1.6-1.4 5.5-2 8.5s-1.7 8.7-2.6 12.7c-1 4.7-1.5 12.8-1.5 23.5 0 26-2.3 46.8-7.6 68.3-2.8 11.3-3.5 13.4-7.7 22.5-4.2 8.9-15.5 26-17.2 26-.8 0-1.5.4-1.5 1 0 .5-.4 1-1 1-.5 0-1-1.8-1-4s-.3-4-.7-3.9c-.5 0-4.4 4.8-8.8 10.7-7.4 9.8-34.5 38.2-42.5 44.5-29 22.8-58.3 34.4-95.6 37.8-25.7 2.3-54.7-3.4-77.9-15.3-10.8-5.5-24.9-15.5-32.4-23-19.8-19.5-31-41.6-34.8-68.6-1.4-9.9-1.5-12.8-.4-22 1.2-9.5 5.4-25 8.4-30.7 2.8-5.6 10.1-15.6 14.5-20.2 15.1-15.6 36.6-20.8 48.2-11.4 4 3.2 5 6.6 3.7 13.1-1.1 5.8-2.4 20-3.3 37.1-.6 12.4-.5 14.2 1.7 21.4 1.2 4.2 3.9 10.3 5.9 13.4 3.4 5.2 10.1 12.1 11.8 12.1.4 0 1.4-1.5 2.2-3.3l1.5-3.2 16-.1c21.1-.2 21.5-.2 21.5-1.4 0-.6-1.8-2.6-3.9-4.6-4.7-4.1-6.6-9.1-5.7-14.5.3-2.2 3.8-10.6 7.6-18.7 6.8-14.3 7-15.1 7-22.4 0-21.3-8.4-38.6-25-51.3-6.8-5.2-9.8-6.8-18-9.4-28.4-9.1-59.4-.3-83.3 23.4-11.9 11.8-21 26.6-26.5 43-5.2 15.6-5.7 19.4-5.7 42 0 19.7.2 21.6 2.7 31 6.9 25.2 17.1 42.1 37.8 62.4 32.3 31.8 78 49.4 126.6 49 23.7-.1 59.6-6.3 73.1-12.5 1.7-.7 3.8-1.4 4.6-1.4.9 0 1.8-.4 2.1-.9s1.9-1.1 3.5-1.3c1.7-.2 2.8-.1 2.5.4-.3.4-1.1.8-1.8.8s-2.5 1.1-4 2.5c-1.4 1.3-2.6 2.2-2.6 1.9 0-.2-1.7.4-3.9 1.5-2.1 1.1-7.1 2.9-11.2 4s-9 2.5-10.9 3c-7.2 2.1-17.1 4.2-25.7 5.4-11.5 1.6-44.5 1.5-55.3-.1-11.6-1.8-30.6-6.5-41.4-10.1-12.1-4.2-14.5-4.1-8.1.3 5.9 3.9 15.5 8.5 29 13.8 16.3 6.4 1 5.8 139.1 5.8H512V0l-78.7.1-78.8.1z"/><path d="M356.3 113.7c.3 1 2.1 6.4 4.1 12 3.6 10.6 6 22.5 7.5 37.6.5 4.8 1.1 9.1 1.5 9.4 1.4 1.5 2.6-5.8 2.6-16.5 0-16.5-2.5-25.2-10.9-38.4-3.5-5.6-5.9-7.6-4.8-4.1M289.1 155c0 .8.4 2.4.9 3.5.7 1.9.8 1.9 1.5.2.5-1.2.2-2.4-.9-3.5-1.3-1.3-1.6-1.4-1.5-.2"/></svg>