<svg xmlns="http://www.w3.org/2000/svg" width="682.667" height="512" version="1.0" viewBox="0 0 512 384"><path d="M320.5 2.7c.4 1.6 2.6 6.7 5 11.5l4.4 8.7-3.7.6c-27.9 4.6-47.7 15.7-64.2 36.1-6.3 7.8-9.3 13.4-13.1 24.7-2.5 7.5-6.9 15.4-10.3 18.6-5 4.7-2 5 4.2.4 3.6-2.7 3.8-2.3 1.7 3.7-1.8 5.1-1.9 6.4-.4 5.4.8-.5 1 0 .6 1.7-.3 1.3-.8 5.1-1.1 8.4-.5 5-.4 5.6.6 3.7 1.7-3.4 3.1-2.1 4.4 4.2 1.6 7.7 2.8 8.5 2 1.1-.5-4.2-.4-5.6.3-4.5.6.8 1.1 3 1.1 4.7 0 1.8.4 3.3.9 3.3s1.2 1.5 1.6 3.2c.6 2.9.8 3.1 1.5 1.3s.9-1.7 2.3 1.5c1.4 3.3 1.5 3.3 1.9 1 .4-2.5.5-2.4 1.9.7.8 1.7 2.8 4.2 4.4 5.4l2.8 2.3-.6-2.4c-.4-1.4-.9-4.3-1.2-6.5-.5-3.7-.4-3.7.9 1 .8 2.7 1.9 6.1 2.5 7.5l1 2.5v-2.7c.1-4.2 2.1-4.5 2.1-.3 0 4.7-3.2 10.8-7.5 14.2-5.3 4.2-4.7 5.8 4.9 12.6 2.1 1.5 2.6 2.6 2.6 6.2 0 4.6 2.4 7.5 6.1 7.5.9 0 2.7.8 4 1.9 1.8 1.5 2.3 2.7 2.1 5.9-.2 3 .2 4.4 1.7 5.4 1 .7 2.9 3.1 4.2 5.3 1.2 2.2 3.1 5 4.2 6.2 2 2.2 2 6.8.1 13.2-.5 1.6-.4 2.2.4 1.7.6-.3 1.3-.2 1.7.3.3.6 1.3.7 2.2.4 1.3-.5 1.5-.2 1.1 1.5-.6 2 1.3 18.4 3.2 29.1 1.8 9.7 1.4 11.3-3.3 15.9l-4.3 4.2-5.2-6.2c-2.8-3.5-6.7-9.6-8.7-13.6-1.9-4.1-5.5-10.3-8-13.9-2.5-3.5-4.3-6.8-4-7.3 1.7-2.7 2.3-17 1-24.2-2.2-12.6-6.8-20.8-13.7-24.4-3.8-2-20.5-3-26.5-1.6-3.8.9-4.2.8-4.7-1.2-.3-1.1-.6-3.3-.6-4.9 0-1.7-.5-2.7-1.4-2.7-2.1 0-2.7 3-1.6 7 .8 2.9.7 3.7-.7 4.7-.9.7-2.2 1.3-2.9 1.3-2.5 0-15.8 6-16.7 7.5-.4.9-2.5 2.6-4.6 3.9-3.2 2.1-4 3.3-5.3 8.3-4.2 15.9-4.2 16.1-1.5 25.8 1.4 5 3.1 11.2 3.8 13.9 2.1 8.2 15.4 23.5 22.9 26.3 2.5.9 4.9 1.9 5.3 2.3s-.6 3.5-2.2 7.1c-3.4 7.2-7 20.4-9.6 35.4-1 5.5-2.9 12.9-4.2 16.4-2.9 7.7-3.8 18.1-2.8 32.4l.7 10.7h61.4l3.3-6.8c3.7-7.6 11.6-20.5 13.4-22 .9-.8 1.1 2.4.8 13.9l-.3 14.9h14.1l.4-3.2.3-3.3.8 3.2.9 3.3h161.5l9.4-3.3c5.1-1.8 11.3-4.6 13.8-6.2l4.5-3-3.8-.3-3.8-.3 4.5-5.4c2.5-2.9 4.6-5.6 4.6-5.9 0-.4-3-.4-6.7 0-6.1.5-8 1.3-18.8 7.8-6.6 3.9-13.5 7.6-15.2 8.3-3.2 1.1-3.3 1.1-4.9-2.3-.9-1.8-1.4-4.1-1-4.9.7-2-2.2-15.4-4.1-18.3-.8-1.3-1.2-3-.9-3.8.5-1.4-5.8-28.7-7.2-30.9-.3-.5-.7-1.6-.7-2.5-.4-3.6-1.7-8-2.5-8-.5 0-.9-1.2-.8-2.8 0-1.5-.4-5.1-1.1-8.1-1.4-6.6-1.4-12.1-.1-12.1s2.5 2.6 4 9.3c.7 3.2 1.8 6.1 2.3 6.4s.6-.3.2-1.6c-.7-2.4 1-2.9 1.9-.6.3.8 1.1 1.2 1.8 1 .9-.4 2.1 1.7 3.7 5.7 3.1 8.2 9.1 20.1 9.7 19.5.3-.3-.4-9-1.6-19.3-1.2-10.4-2.3-20.9-2.6-23.4l-.5-4.5 4 7.7c4.1 7.8 7 11.4 5.1 6.2-1.8-4.6-5.8-22.5-6.8-30.4-.5-4.1-.7-10.9-.2-15 .4-4.1.8-6.2.9-4.7.2 5 8 26.7 12.7 35.6 7.9 14.9 13.5 22.6 10.4 14.5-2.5-6.4-6.8-24.3-7.5-30.4l-.6-6.5 3.1 5.5c4.2 7.5 15.3 24 16.1 24 .4 0 .1-2.6-.6-5.8-2.8-12.5-4.5-30.3-6-64.7-2.3-50.8-5.7-77.3-13.5-105.2-2.8-9.8-10.1-30.8-12.1-34.5-.5-1-1.4-4.4-2-7.5-3.4-18.1-15.8-37-28.6-43.3-6.1-3-7.7-3.4-15-3.3h-8.2l-5.3-8.3-5.3-8.4H320z"/></svg>