<svg xmlns="http://www.w3.org/2000/svg" width="682.667" height="512" version="1.0" viewBox="0 0 512 384"><path d="M0 192v192h149.3l-6.4-4.9c-11.9-8.9-29.3-25.7-42.9-41.2C78.6 313.6 75.8 311 70.5 311c-2.6 0-3.6.8-5.9 4.5C63 318 61.4 320 61 320c-1.9 0-14.2-9.5-31.4-24.3-4.3-3.7-9.9-7.6-12.4-8.8-2.6-1.1-5.5-2.7-6.5-3.7-2.9-2.6-6.8-11.7-8-18.7l-1.1-6.4L8 243.3c3.4-8.1 8.4-19.8 11-25.8 3.6-8.3 5.1-13.7 6.4-22C31.7 155.3 51.9 111 78.8 79c10.2-12.2 27.3-28.6 39.3-37.7 5.2-3.9 16.2-11.4 24.4-16.6 25.1-16 29-18.9 29-21.7V.5L85.8.2 0 0zM366.6 7.1c10.2 7.4 15.8 12 30.4 24.9 12 10.7 19.3 16 21.9 16 1.3 0 3.4-.9 4.8-2s3.4-2 4.4-2c3.3 0 14.6 14.2 26.4 33.3l8 13 5.9.3c3.2.2 6.1.5 6.3.8.3.2 1.8 0 3.3-.6 2.1-.7 3.9-2.8 6.5-7.6 5.3-9.6 9-13.2 13.6-13.2 2.1 0 4 .4 4.4 1 .3.5 1.1.7 1.9.4 1.2-.5 5.7 5.1 6.9 8.6.3.8.6-16.8.6-39.3L512 0H356.8z"/><path d="M213.5 91.7c-6.1.8-19.2 4.7-26 7.7-15.5 6.8-26.2 14.2-38.5 26.6-28.3 28.6-41.4 63.8-38 102.4 3 34.6 17.3 67.7 40.9 94.4 23.5 26.6 60.2 48.4 95.6 56.7 19.2 4.5 17.7 4.5 144.3 4.5H512V253.7c0-84.9-.4-129.7-1-128.7-.5.8-3.1 6.4-5.6 12.5-2.5 6-7.2 16.8-10.4 24-6.1 13.5-6.6 15-10 33-6.3 32.6-22.2 70.7-37.9 90.9-7.5 9.6-29.7 29.7-31.9 28.8-.7-.2-.8-.7-1.1-4-.1-.7-2.1.3-4.8 2.4-21.5 16.1-46.3 29.3-69.8 37.2-43.3 14.5-89.3 11.4-129-8.8-25.6-12.9-47.8-33.3-61.7-56.5-6.6-10.9-12.8-26.4-15.9-39.5-12.3-51.5 11.4-106.2 55.5-127.9 14.4-7.1 26.2-9.6 41.8-8.8 28.5 1.2 50 16.4 51.6 36.3.4 5.7.2 6.3-2.5 9.4-2.5 2.8-3.8 3.3-9.3 4-3.6.4-7.8 1.2-9.5 1.9-1.6.7-7.2 2.1-12.5 3.1-18.3 3.6-30.5 9.8-38.8 19.8-4.8 5.8-9.2 14.2-9.2 17.8 0 2.2.3 2.5 2.2 2.1 2.3-.6 5.8 1.6 5.8 3.7 0 2.4 12 29.6 13.1 29.6.4 0 1.5-2.6 2.5-5.7 1.2-3.6 2.9-6.4 4.7-7.7 3.7-2.8 13.2-3.2 25-1.2 15.3 2.6 18.5 2.3 29.5-2.9 7.8-3.7 10.8-5.8 16.7-11.8 11.5-11.7 16.4-23.9 16.4-40.7.1-11.2-2-19.5-7.6-31-4-8.1-6.1-10.9-13.8-18.5-12.9-12.8-26.8-20.2-45.2-24-6.7-1.4-27.9-1.9-35.8-.8"/><path d="M381.2 206.3c-4.6 13.9-13.6 30.5-23.5 42.8-6.3 7.9-6.6 10.3-.7 4.6 11.9-11.4 19.3-22.4 23.7-35.2 2.1-6 4.3-19.5 3.2-19.5-.2 0-1.5 3.3-2.7 7.3M146 326.4c0 .8.3 1.3 8.3 10.6 11.7 13.8 31.7 30.4 51.5 42.7l6.7 4.2h18l18-.1-7-1.8c-15.6-4-37.8-13.6-52-22.3-8.1-5-23.1-16.3-31.9-24-9.9-8.8-11.6-10.1-11.6-9.3"/></svg>