<svg xmlns="http://www.w3.org/2000/svg" width="682.667" height="512" version="1.0" viewBox="0 0 512 384"><path d="M0 108.7C0 212.3.1 217.3 1.7 215c1-1.4 2.9-4.6 4.3-7.2s6.2-10.8 10.8-18.3c6.9-11.3 9-15.7 12.2-26 15-48.1 41.7-87.8 79.3-117.9 13.3-10.7 26.1-18.7 43.2-27.1 14.3-7.1 20-9.5 35.9-15.1 3.8-1.3 7.2-2.6 7.4-2.9.3-.3-43.4-.5-97.1-.5H0zM361 .4c0 .2 3.3 2.8 7.3 5.9 17 12.9 32.1 28.3 50.9 51.7 17.6 22 19.9 23.8 23.4 18.5.9-1.4 2.6-2.5 3.8-2.5 3.5 0 10.7 12.5 21.2 36.5 2.6 6 5.3 11.9 6.1 13 1.2 1.8 1.3 1.8 1.3.1 0-1.5.5-1.7 2.3-1.1 1.2.4 4.5 1 7.3 1.2 4.7.4 5.2.3 6.9-2.3 2.4-3.7 3.2-4.8 8.2-10.2 3.6-4.1 4.6-4.7 8.2-4.7h4.1V0h-75.5C395 0 361 .2 361 .4M188.8 87.7c.7.3 1.6.2 1.9-.1.4-.3-.2-.6-1.3-.5-1.1 0-1.4.3-.6.6M175.7 92c-23.6 9.8-45.8 31.3-58.6 56.7-14.5 28.9-18.7 65.5-11.6 100 7 34.2 27 68.4 54 92.5 19.9 17.8 42.9 31.2 68.4 39.9l8.5 2.9H512V274.7c0-106.1-.1-109.1-1.9-106.2-1 1.6-4.6 7.7-8 13.5s-8.5 14-11.2 18.3c-3.6 5.6-6.3 11.8-9.3 21-11.4 34.9-28.4 65.5-49.4 88.8-11.4 12.5-32.6 27.9-45.9 33.2-4.2 1.6-4.3 1.6-4.3-.3 0-1.8-.2-1.8-3.7-.5-2.1.7-7.7 3.1-12.4 5.3-22.6 10.6-57.8 18.2-83.9 18.2-27.5 0-57.8-7.5-80-19.7-42.7-23.7-70.6-60.4-80.6-106.3-2.9-13.1-2.6-42.8.5-56.9 2.7-12.2 8-27.6 11.9-34.1 1.4-2.5 2.7-5 2.8-5.6.3-1.9 5.2-8.8 8.3-11.8 1.7-1.6 2.8-3.2 2.6-3.7-.3-.4 1-2 3-3.6 1.9-1.5 3.5-3.3 3.5-4 0-.6 1.6-2.8 3.5-4.9 1.9-2 3.5-4.3 3.5-5 0-.8.7-1.4 1.7-1.4.9 0 1.3-.3 1-.7-.4-.3.9-1.7 2.8-3s3.5-2.8 3.5-3.3c0-.6.7-1 1.6-1 .8 0 1.3-.4 1-.9s.2-1.2 1.1-1.5c.9-.4 1.9-.2 2.3.4.3.5 1.2-.6 1.9-2.5s1.8-3.5 2.5-3.5c.8 0 1.9-.7 2.6-1.5s1.6-1.3 2-1c.5.3 1.9.1 3.2-.4 2-.9 1.8-1-1.7-1-2.2 0-7 1.3-10.8 2.9M0 312.5V384h72c39.6 0 72-.4 72-.8s-1.5-1.6-3.2-2.7c-4.6-2.6-32.3-30.5-38.9-39-9.5-12.2-25.9-36.2-25.9-38 0-.9-13.4-22.2-15.3-24.3-4-4.3-7.8-2.6-10.8 5.1-.9 2.3-2.1 4.3-2.7 4.5-1.6.5-7.7-5.3-21-20.3-6.8-7.7-14.3-15.4-16.6-17.2-2.4-1.7-5.3-4.7-6.5-6.7-1.3-2-2.5-3.6-2.7-3.6S0 273.2 0 312.5"/><path d="M114.1 292.2c1.5 5.6 8.7 18.8 16.4 30.3 12.9 19.3 32.4 39.2 54.6 55.8l7.6 5.8 15.9-.3 15.9-.3-7.5-2.9c-35-13.6-64.6-36.2-86.2-65.6-7.2-9.8-15.8-22.9-15.8-24 0-.5-.4-1.1-.9-1.5-.6-.3-.6.7 0 2.7"/></svg>