<svg xmlns="http://www.w3.org/2000/svg" width="682.667" height="512" version="1.0" viewBox="0 0 512 384"><path d="M0 98.7v98.6l2.8-3.9c1.5-2.1 4.9-7.1 7.4-10.9 2.6-3.9 7.6-11 11.1-15.8 3.5-4.9 6.9-10.5 7.6-12.5C48.9 96.9 86 51.7 136.5 23.4c12.1-6.8 25.5-12.6 41.5-18L193.5.1H96.8L0 0zm366.2-94c9.3 7 31.9 29.4 40.8 40.5 4.3 5.3 13 17.5 19.4 27.1 12.1 18 14.9 21.7 16.7 21.7.6 0 2.4-1.4 4.1-3.2 2.3-2.5 3.3-3 4.6-2.1 2.5 1.5 10.3 17.7 14.2 29.4 4.9 15 6.8 18.9 8.5 18.2.8-.3 2.6.2 4 1.1 3.9 2.6 10.2 2.4 12.3-.3 4.5-6 12-13 14.4-13.6 1.4-.4 3.6-.2 4.7.5l2.1 1.1V0H359.8zM169.3 86c-15.2 6.8-35.6 24.9-46.5 41.5-16.3 24.6-24.4 50.1-25.5 80.5-2.1 59.1 27.9 115.2 80.8 150.5 10.8 7.3 32 17.8 45.2 22.4l8.9 3.1H512V176.6l-2 2.2c-1.1 1.2-2 2.3-2 2.6 0 .6-6.2 9.9-7.1 10.6-.3.3-1.4 2.1-2.4 4s-2.3 3.9-3 4.5c-.7.5-3.4 4.1-6.1 8-2.6 3.8-5.1 7.2-5.5 7.5-.8.6-7.9 14.5-7.9 15.4 0 1.7-9.9 23.4-14.8 32.6-22.5 42.2-54.5 73.1-90.3 87.3-5.6 2.2-7 2.5-9.6 1.5-2.5-.9-4.3-.7-12.1 2-37.9 13-78.7 15.2-114.7 6.1-68.4-17.4-118.3-76.9-121.2-144.4-1.3-31.7 7.3-62.8 25.5-92 6.9-11.1 21.1-26.9 29.2-32.5 10.2-7.1 10.9-10.2 1.3-6M0 304.5V384l72.8-.1h72.7l-2.9-2.2c-30.7-22.9-56.7-56.3-76.9-98.9-9-19-10.3-21.4-13.4-23.7l-2.7-2.2-2.7 3.2c-1.5 1.8-2.7 3.5-2.6 3.8.4 1.1-2.6 9.1-3.4 9.1-.9 0-13.6-15.6-22.4-27.5-3.2-4.4-8.7-10.8-12.2-14.2L0 225.1z"/><path d="M100 268c0 3.2 6.3 20 11.5 30.5 13.8 28.5 37.7 56.8 64.9 77.3l10.9 8.2h17.1l17.1-.1-10.5-4.3c-30.7-12.8-52.9-28.7-74.9-53.6-10.9-12.3-18.8-24.5-28.2-43.5-4.3-8.8-7.9-15.3-7.9-14.5"/></svg>