<svg xmlns="http://www.w3.org/2000/svg" width="682.667" height="512" version="1.0" viewBox="0 0 512 384"><path d="M0 88.6v88.6l7.2-9.4c7.2-9.2 13.7-17.5 18.5-23.3 1.4-1.7 5.7-9.8 9.7-18C50.6 95 66.9 72.7 90.5 51.1c22.9-20.9 49.9-36.7 80-46.7l13-4.3L91.8 0H0zM366.7 7.4c27.1 22.7 46.2 47.8 67.8 88.9 1.7 3.2 4.3 7.2 5.9 8.9l2.9 3.2 2.2-2.6c1.3-1.5 2.5-3.2 2.7-3.9.8-2.5 3.6.1 6.6 6.3 3 6.1 4 9.2 9.8 28.5 2.9 10.1 3.8 11.2 10.2 13.6 6.7 2.6 8.2 2.2 14.2-3.8 7-7.1 11.3-9.2 14.9-7.4 1.4.8 3.8 2.6 5.4 4.1l2.7 2.8V0H357.9zM146.5 91.3c-1.6 1.2-3.2 2.4-3.5 2.7s-2.7 2.3-5.3 4.4c-4 3.3-8.4 8.1-16 17.6-12.7 15.8-23.5 40.4-28.3 64.5-2.1 10.7-2.9 35.4-1.5 47.1 7.2 58.3 42.8 108.8 97.2 137.7 11.4 6.1 21.1 10.1 36.7 15.3L236 384h276V280.5c0-56.9-.2-103.5-.4-103.5s-1.3 1.7-2.4 3.9c-2.5 4.7-7 11.1-13.9 19.5-2.9 3.6-5.3 6.8-5.3 7.3s-.8 1.6-1.7 2.5c-1 .8-2.9 3.1-4.3 4.9s-5.1 6.4-8.2 10.3c-3.4 4.2-8.8 13-13.4 22-9.7 19.2-11.1 21.7-20.5 35.6-7.6 11.3-21.9 28.3-30.2 35.9-24.2 22.2-54.1 37.9-73.7 38.6-4.1.2-12 1.2-17.5 2.3-19 3.8-27.5 4.5-48.2 3.9-22.2-.6-32.8-2.1-50.3-7.4-28.3-8.5-51-22.2-70.9-42.9-12.7-13.2-21.9-26-29.1-40.9-12.7-26.1-16.7-45.4-15.7-76.2.3-9.8.8-18.9 1.2-20.3.3-1.4.8-3.9 1.1-5.5 1-5.9 7-26 9.3-31 1-2.2 2.4-5.7 3.2-7.8.7-2 1.7-3.7 2.1-3.7s.8-.7.8-1.5c0-1.2 3.4-7.1 5.9-10.1.4-.5 1.4-2.1 2.1-3.5.7-1.3 3.7-5.2 6.6-8.6 3-3.3 5.4-6.4 5.4-6.8 0-.5 1.4-2.1 3.1-3.7 3.8-3.7 3.4-5.4-.6-2.5M0 295v89h74.5c41 0 74.5-.2 74.5-.4s-2.6-2-5.7-4.1c-16.1-10.7-34.5-28.4-48.2-46.5-14.6-19.3-25.6-39.3-34.6-62.5-2.6-6.6-6.2-15.9-8.1-20.7-6.5-16.7-9.7-16.9-15.2-1.1l-1.9 5.3-2.5-2.8c-3.3-3.7-8.3-10.7-15.8-22.7-3.5-5.5-8.7-12.8-11.7-16.2L0 206z"/><path d="M90.1 249.5c-.2 9.3 9.1 36.1 18.7 53.5 6.3 11.5 19.1 29.4 29 40.5 10.1 11.4 20 20.5 35.1 32.2l10.6 8.3 22-.1c12.1 0 21.1-.4 20-.8-1.1-.5-4.9-1.8-8.5-2.9l-11.4-3.8c-7.2-2.6-27.1-12.9-34.9-18.3-3.7-2.5-7.6-5.1-8.5-5.6-.9-.6-1.9-1.2-2.2-1.5s-3.2-2.8-6.5-5.5c-14-11.5-28.5-27.7-38.4-43-8.6-13.1-19.9-37.9-23.9-52.5l-1-3.5z"/></svg>