<svg xmlns="http://www.w3.org/2000/svg" width="682.667" height="512" version="1.0" viewBox="0 0 512 384"><path d="M0 67.7v67.6l2.1-1.9c10.5-9.4 29.5-29.3 32.5-34 15-23.8 22.8-34 37.8-49 7.2-7.1 16.7-15.7 21.1-18.9s9.4-6.8 11-8c5.6-4.1 24-14.2 31.5-17.4 4.1-1.8 8.9-3.8 10.5-4.6 2.6-1.2-7-1.4-71.7-1.4L0 0zm358.6-57.5c27.5 26.3 46.3 55.8 60.1 94.7 2.4 6.8 4.7 12.9 5.1 13.5s.7 1.3.8 1.6c.7 4.4 5.9 8.4 7.1 5.4.3-.8 1.4-1.4 2.5-1.4 2.6 0 6.4 8.6 8.3 18.7 2.2 12.1 3.8 18.3 4.7 18.9.4.3.8 1.5.8 2.7 0 1.7 1.2 2.8 4.8 4.4 4.6 2.1 9.2 2.2 9.2.2 0-.5.5-.9 1.1-.9.5 0 3.1-1.6 5.7-3.6 3.6-2.7 5.3-3.4 7.2-2.9 1.4.3 3 .6 3.6.7 1.5.2 4.7 4.4 5.1 6.6.1 1 .3 5.7.3 10.7.2 17.1-2.6 21.8-29 48.8-12.5 12.8-19.5 20.9-25.8 29.9-17.1 24.6-23.2 32.1-38 46.6-19.4 19.1-42.5 33.5-66.2 41.5-18.9 6.4-23.8 7-50.1 6.9-32-.2-49.9-2.5-70.4-8.9-16.3-5.2-39-16-51-24.5-25.2-17.7-37-28.3-48-43-8.7-11.5-13.3-19.1-19.2-31.8-3.5-7.7-4.2-8.7-3.8-5.5 1.7 10.9 9 29.3 17.2 42.9 4.5 7.5 15.5 22.2 22 29.5 13.8 15.4 35.7 31.7 57.1 42.6 6.2 3.1 11.2 5.9 11 6.1-.8.7-8.5-2-15.3-5.3-9.3-4.7-25.4-14.2-27.5-16.3-.3-.3-3.2-2.5-6.5-5-20.9-15.8-41.3-41.4-53.3-67-4.8-10.3-13.2-34.6-13.2-38.2 0-1.3-.5-3-1-3.8-.8-1.3-1-1.2-1 .3 0 5.6 3.7 22.8 7.1 33.2 11.6 35 32.8 65.8 66.5 96.7 14.5 13.2 15.3 14.2 13.9 15.9-1.5 1.5-1.5 2.4-.3 7.3l1.3 5.6H512V0H347.8z"/><path d="M0 276.3V384h137.8l.4-7.3c.4-9 .1-9.5-17-22.9-41-32.4-66.2-74.2-78.1-129.8-1.7-8-3.8-17.7-4.7-21.7-.9-4.2-2.3-7.8-3.5-8.9-1-.9-2.1-1.5-2.2-1.3-1.5 1.9-4.5 7.9-5 10-.4 1.4-1.4 4.2-2.2 6.3-1.5 3.6-1.7 3.7-2.9 2-2.5-3.6-9.3-16.9-14-27.6-2.7-5.9-5.7-11.4-6.7-12.4-1.9-1.7-1.9.2-1.9 105.9"/></svg>