<svg xmlns="http://www.w3.org/2000/svg" width="682.667" height="512" version="1.0" viewBox="0 0 512 384"><path d="M0 37.1v37.1l3.8-2.8c2-1.5 3.9-3.1 4.2-3.4s3.4-2.8 7-5.5c3.6-2.8 7-5.5 7.6-6 .7-.6 3.2-2.5 5.5-4.4 2.4-1.9 7.1-6.6 10.4-10.5C49.4 28.8 62.2 15.5 72.3 6.3 75.4 3.5 78 .9 78 .6S60.5 0 39 0H0zM326 .9c0 .4 2.7 3 6.1 5.6 5.4 4.3 25.8 26.1 28.4 30.5.5.9 3.7 5.7 6.9 10.6 10.9 16.2 20.8 38.5 25.5 57.1 3.4 13.3 5.3 27.8 6 45.5.7 20.1.8 20.3 10.3 19.9 6.7-.2 8.8.9 11.7 6.7 3.4 6.6 1.8 23.6-2.9 30.2-1.1 1.5-2 3.3-2 3.8 0 .6-.3 1.2-.7 1.4-.5.1-2.7 2.7-5.1 5.5-2.4 2.9-9.4 9.6-15.5 15-16.7 14.5-21.9 20-28.7 30.3-2.3 3.5-6 8.5-11.3 15.4-3.6 4.8-10.9 12.7-15.6 17-2.5 2.3-5.4 5-6.5 6.2-1.2 1.1-5.4 4.4-9.3 7.3-4 3-7.3 5.7-7.3 6s-1.4 1.2-3 1.9c-1.7.8-3.7 2.1-4.5 2.9-2.8 2.8-36.7 19.1-43.3 20.9-3.7 1-6.9 2.1-7.2 2.4-.8 1.1-25.9 5.9-36.1 7-12 1.2-28.3 1.2-37.9-.1-4.1-.6-10.2-1.4-13.5-1.8-10.6-1.5-30.7-7.1-41.2-11.6-9.5-4.1-12.7-4.9-17.9-4.6-2.7.1-5.8 5.8-6.6 11.8-.6 4-.4 4.4 4.1 8.5 2.6 2.4 5.8 5 7.1 5.8 4 2.5 11.5 9.8 10.8 10.5-.9.9-10.6 3.6-15 4.2-4.7.6-14.9-4.3-21.8-10.4-7.5-6.7-13.3-23.6-14.5-42.5-.4-5.1-1.4-11.1-2.3-13.3S65.9 296 59 288c-16.1-18.6-17.3-20.3-25.4-33.7-9.5-15.7-17.6-35.5-22.5-54.8C8.8 190.2 6 171 6 164.2c0-4.6-4.5-30-5.5-31-.3-.3-.5 56-.5 125.1V384h512V0h-93c-51.1 0-93 .4-93 .9"/></svg>