<svg xmlns="http://www.w3.org/2000/svg" width="682.667" height="512" version="1.0" viewBox="0 0 512 384"><path d="M0 25.5C0 47.5.2 51 1.5 51c.8 0 1.5-.4 1.5-.8 0-.5 1.9-3.1 4.3-6 7.2-8.9 8.7-11 8.7-12.5 0-.9.3-1.7.8-1.9.4-.2 4.3-5 8.7-10.8 4.3-5.8 9.2-11.5 10.7-12.8 1.6-1.3 3.3-3.3 3.9-4.3C41 .1 40.4 0 20.5 0H0zM345.3 8.2c4.1 4.6 9.1 10.8 11.2 13.8s4.1 5.7 4.4 6c2.9 2.3 16.5 27.8 20.6 38.5 11.2 29.3 14 43.4 15.5 79 .6 14.6 1.3 22.2 2.4 25 2 5.2 2 17.2.1 24.3-2.1 7.6-7.6 19.4-9.7 21-1 .7-1.8 1.9-1.8 2.7 0 .7-1 2.2-2.3 3.2-1.2 1-3.2 3.4-4.4 5.3s-3 4.4-4 5.5c-1.1 1.1-3.5 5.2-5.5 9.1s-5 9.2-6.7 11.9-3.1 5.3-3.1 5.9c0 .5-2.3 3.6-5.1 6.8s-4.8 5.8-4.6 5.8c.9 0-6.4 8.1-17 18.7-6.1 6.2-11.5 11.3-11.9 11.3-.5 0-1.7.9-2.9 2-2.7 2.7-12.1 10-12.9 10-.4 0-3.4 2-6.8 4.5-3.4 2.4-7.6 5-9.5 5.6-1.8.6-3.3 1.5-3.3 2s-.6.9-1.3.9-2.9 1.1-4.9 2.5-4.4 2.5-5.3 2.5c-1.4 0-5.3 1.8-6.5 3-.9.9-22.2 8.1-28.5 9.7-7.1 1.7-14.1 3-21 3.8-2.7.4-8.3 1-12.3 1.6-9.5 1.2-28.9 1.1-37.2-.1-3.6-.6-10.1-1.5-14.5-2.1-7.1-.9-11.3-1.9-26-6.1-2.2-.6-10.7-3.8-18.9-7s-15.1-5.6-15.5-5.3c-.3.3 1 1.8 2.9 3.2 5.3 4 14 12.8 14 14.1 0 .8-2.3 1.2-6.5 1.2-3.6 0-8.5.5-11 1.2-4.3 1.2-4.7 1.1-13.2-3.3-14.5-7.3-20.9-15.6-25.8-33.5-2.5-9-6.2-15.7-13.1-23.4-14-15.8-21.2-24.8-26.4-33-8.9-14.2-9.5-15.2-12.9-23-1.9-4.1-3.6-7.7-3.8-7.9-.1-.2-.3 35.4-.3 79.2V384h512V0H337.8z"/></svg>