<svg xmlns="http://www.w3.org/2000/svg" width="682.667" height="512" version="1.0" viewBox="0 0 512 384"><path d="M345 4c1.1 2.2 2.5 4 3 4s1.2 1 1.6 2.2c.4 1.3 2.4 5 4.5 8.4 2.2 3.4 3.9 6.7 3.9 7.4 0 .6.8 2.4 1.9 3.8 2.2 3.2 5.5 10.4 6.9 15.2.6 1.9 2.5 7.1 4.2 11.5 8.4 21.6 13.3 57.8 11.1 82.5-1.1 12.5-2.6 26.1-3.6 31.2-.3 1.6-.7 4-1 5.5-.3 1.6-1.8 6.8-3.5 11.8-1.6 4.9-3 9.5-3 10.2s-.4 1.3-.8 1.3c-1 0-5.2 8.5-5.2 10.4 0 1.2-8 18.3-11.2 24.1-.6 1.1-1.9 3.3-2.7 5-.9 1.6-2.4 3.6-3.3 4.3-1 .7-1.8 1.8-1.8 2.4s-1.6 3-3.5 5.4c-1.9 2.3-3.5 4.7-3.5 5.2 0 1.8-3.4 7.6-3.8 6.4-.4-1.4-5.2 1.4-5.2 3.1 0 1.2-11.9 13.9-17 18.1-1.9 1.5-3.4 3.2-3.2 3.7.1.5-.9 1.4-2.4 1.9-1.4.6-2.2 1.5-1.9 2.1.4.6-.2 1.3-1.4 1.6s-2.1.9-2.1 1.3c0 .5-.9 1.1-2 1.5-1 .3-4 2.6-6.5 5.1-2.5 2.4-5.2 4.4-5.9 4.4s-2.1.9-3.1 2-2.6 2-3.7 2c-1 0-2.6.9-3.5 2-1 1.1-2.7 2-3.8 2-1.2 0-3.2 1.1-4.5 2.5s-2.9 2.5-3.6 2.5c-.6 0-3.8 1.6-6.9 3.5-3.2 1.9-7.4 3.8-9.4 4.1-2 .4-3.8 1-4.1 1.5-.3.4-2.1 1.1-4 1.4s-3.9 1-4.4 1.6c-.6.5-2.1.9-3.4.9s-2.1.4-1.8.9-1.6 1.2-4.2 1.6-5.1 1.1-5.7 1.5c-.5.4-3.7 1.3-6.9 1.9-3.3.6-6.2 1.5-6.5 2-1.7 2.6-58 3-72.1.5-16.3-2.9-18.3-3.3-19.4-4.4-.5-.5-2.8-1-5.1-1s-5-.7-6.1-1.5c-1-.8-2.7-1.5-3.7-1.5-2.7 0-26-9.6-36.2-14.8-7.7-4-30-18.2-31.5-20.1-.3-.3-3.6-3.1-7.5-6.2-3.8-3.1-11.4-10-16.7-15.4L0 264.7V384h512V0H343z"/></svg>