<svg xmlns="http://www.w3.org/2000/svg" width="682.667" height="512" version="1.0" viewBox="0 0 512 384"><path d="M308 1.9c.5 1.1 1.4 2.2 1.9 2.6.5.3 1.3 2 1.6 3.8.4 1.7 1.3 4.3 2.1 5.7 2.3 4.4 4.2 9.4 5.4 14 .7 2.5 2.3 8.1 3.6 12.5s2.8 11.1 3.4 15c.5 3.8 1.5 10.3 2.1 14.3 1.3 9.1.7 49.9-.8 52.7-.6 1.1-1.4 4.6-1.7 7.8-.4 3.3-1.1 7-1.7 8.4-.5 1.3-.9 3.9-.9 5.8s-.4 3.6-.9 3.9-1.1 1.8-1.4 3.3c-.9 4.3-4.9 15-8.9 23.4-1.9 4.1-3.9 8.5-4.2 9.7-.4 1.2-1.1 2.2-1.6 2.2s-1.1.9-1.5 1.9c-1 3.2-12.8 22.6-16.3 26.7-1.8 2.1-6 7.2-9.3 11.2s-7.8 8.4-9.9 9.8-3.7 3.1-3.4 3.8-.8 1.9-2.3 2.7-4.5 3-6.5 4.9c-5.6 5.3-9 8-12 9.8-1.6.9-2.8 2-2.8 2.4s-.7.8-1.5.8-2.3.9-3.2 2c-1 1.1-2.1 2-2.6 2s-2 .9-3.4 2-3.2 2-3.9 2c-1.3 0-8.4 4.4-9.4 5.9-.6.9-9.6 5.1-10.9 5.1-.5 0-2.2.7-3.7 1.5-1.6.8-3.6 1.5-4.6 1.5-.9 0-1.8.4-2 .9-.4 1.1-18.3 7.1-21.3 7.1-1.2 0-4.1.7-6.4 1.5-12 4.2-42.8 6.5-61.6 4.6-14.7-1.6-39.8-6.9-49.5-10.6-2.5-.9-5.2-1.8-6-1.9-5-.8-35.4-16.4-43.3-22.3-4-2.9-7.5-5.3-7.9-5.3-.5 0-.8 28.6-.8 63.5V384h512V107.4l-3.6-3.5c-2-1.8-4.2-4.6-4.9-6-1.3-2.3-1.2-2.8.3-4.2.9-.8 3.2-1.8 5-2.2l3.2-.7V0H409.5C308.2 0 306.9 0 308 1.9"/></svg>