<svg xmlns="http://www.w3.org/2000/svg" width="682.667" height="512" version="1.0" viewBox="0 0 512 384"><path d="M276.1 8.5c4.5 13.3 5.9 19.2 8.4 35.5 2.4 15.2 2.8 24.6 1.6 38.5-1.4 16.3-1.9 19-7.1 42-.6 2.7-1.7 6.3-2.5 8-.8 1.6-3 7.3-5.1 12.5-3.4 8.8-15.2 30.3-18.8 34.2-.9 1-1.6 2.1-1.6 2.5 0 .5-1.5 2.4-3.3 4.3-1.7 2-5.2 6-7.7 9-5.9 7.2-16.1 17.1-27.2 26.5-1 .8-1.8 1.2-1.8.7 0-.4-.4-.2-.8.4-1.6 2.3-13.4 10.3-19.9 13.4-2.3 1.1-4.7 2.6-5.5 3.3-1.7 1.7-6.6 3.9-16.3 7.2-4.4 1.5-8.4 3.1-9 3.5-1.3 1-16.1 5.3-25.5 7.4-9.3 2-27.2 3.6-40.5 3.5-11.6 0-37.6-3.4-43.5-5.6-.8-.3-2.2-.7-3-.8-3.8-.4-36.1-12.6-38.5-14.5-.5-.4-2.7-1.7-4.8-2.9L0 235v149h245.6c156.5 0 245.3-.3 244.9-1-.3-.5 0-1.8.6-2.8 1-1.5.9-2.4-.4-4.3-1-1.3-1.7-3.9-1.7-5.9 0-6.8 7-30.3 14.7-49.3l7.8-19.2.3-82.9c.3-89.1.5-84.6-4.9-84.6-1.5 0-3.8-1.3-5.8-3.4-3.3-3.4-3.3-3.6-2.7-9.8.4-3.5 1.1-7 1.6-7.8.6-1-1.2-3.3-6.7-8.5-5.9-5.6-7.4-7.7-7.1-9.6.5-3.7 4.2-4.9 15.6-4.9H512V0H273.2z"/></svg>