<svg xmlns="http://www.w3.org/2000/svg" width="682.667" height="512" version="1.0" viewBox="0 0 512 384"><path d="M255.6 2.7c.3 1.6.9 3.7 1.4 4.8 1.3 2.9 3.7 12.2 4.6 17.5.4 2.5.9 5.4 1.1 6.5s.9 8.5 1.5 16.4c2 25.5-2.1 56.2-10.1 75.6-3.2 7.7-6.5 15.3-7.4 17-.6 1.1-2.5 4.7-4.2 8.1-1.7 3.3-4.2 7.6-5.6 9.5-1.3 1.9-2.9 4.1-3.4 5-2.8 4.4-8.3 11.5-10.2 13.2-1.2 1.1-4.3 4.6-6.9 7.8-2.6 3.3-5.3 5.9-6.1 5.9-.7 0-1.3.6-1.3 1.4 0 .7-1.2 2.1-2.6 3.1-1.4.9-3.9 2.9-5.4 4.3-5.2 5-9 8.2-9 7.7 0-.3-3 1.7-6.6 4.5-3.7 2.7-7.3 5-8 5s-2.6 1.1-4.2 2.5c-2.7 2.2-8 4.9-20.3 10.3-2.5 1-8.1 3-12.5 4.2-4.3 1.3-8.4 2.7-8.9 3.1-.6.4-2.9 1-5.1 1.2-2.3.3-5 1-6.1 1.5-5.8 3.2-54.7 4-68.3 1.2-15.9-3.2-41.9-11.8-47.5-15.6-4.7-3.3-4.5-6.3-4.5 79.1V384h241.6c211.1 0 241.5-.2 240.4-1.5-.6-.8-.9-2.3-.5-3.4.3-1.1-.1-3.4-1-5.1-1.9-3.8-1.7-5.1 3.6-22.5 4-12.7 5.6-17.2 11.9-32.5 1.8-4.1 4-10 5-13 5.6-17.1 6.1-19.1 5.5-22.3-.5-2.5.1-4.8 2.2-9.3l2.8-5.9.3-31.9c.3-29.4.1-32-1.5-33.8-2.2-2.5-2.1-9.3.1-13.6 1.3-2.5 1.6-6.9 1.6-23.6v-20.5l-3.5-2.7c-2.6-1.9-3.2-3-2.5-3.9 1.5-1.8-1.7-4.1-6.5-4.8-2.8-.4-4.8-1.6-6.8-3.9-2.8-3.2-2.9-3.5-2.3-11.6l.6-8.3-7-6.7c-3.8-3.7-7-7.5-7-8.4 0-3.9 4.4-5.1 20.1-5.6l14.9-.5V0H255z"/></svg>