<svg xmlns="http://www.w3.org/2000/svg" width="682.667" height="512" version="1.0" viewBox="0 0 512 384"><path d="M237 2.3c0 1.3.4 2.7.9 3.2 2.8 3.2 6.3 28.5 6.2 45.6-.2 24.4-3.3 43.2-10 59.4-4.3 10.4-5.4 13.3-5.8 15.2-.3 1.3-.9 2.3-1.4 2.3s-.9.9-.9 2-.4 2-.9 2-1.2.9-1.6 2c-.3 1.1-2.2 4.2-4.1 6.9-1.9 2.8-3.4 5.3-3.4 5.6 0 .6-2.9 4.7-7 9.9-5.1 6.4-16.7 18.8-21.6 23.1-3.2 2.7-7.9 6.8-10.4 9-2.6 2.2-6.2 4.9-8.1 6s-5.4 3.2-7.9 4.8c-2.5 1.5-6.3 3.6-8.5 4.7s-4.7 2.4-5.5 2.9c-4 2.5-18.3 8.2-27 10.9-9.4 2.8-28.3 5.9-41.5 6.7-18.6 1.2-47.3-3.3-65.5-10.3-4.1-1.6-8.7-3.2-10.2-3.6L0 210v174h237.6c211 0 237.5-.2 236.4-1.5-1.2-1.5-2.1-6.5-2.3-14-.1-3.6 3.1-15.3 6.8-24.5 14.4-36.4 19.9-53.1 19.6-60.5 0-1.7.5-4.6 1.3-6.5s2.6-8.2 4.2-14c1.5-5.8 4-14.3 5.5-19 2.7-8.3 2.8-8.8 1.9-21-.5-6.9-1-12.8-1-13.1s-2-1.9-4.4-3.4c-4.6-2.9-6.6-5.9-6.6-9.9 0-3.6 2.7-10.3 6.1-15.4 3.6-5.2 5.9-14 6.6-24.8l.4-7.1-2.8-.6c-1.5-.3-4.2-1.9-5.8-3.5-1.7-1.6-4.1-3.5-5.4-4.1-1.7-1-2-1.6-1.2-2.4.6-.6 1.1-1.5 1.1-2 0-1.1-6.4-3.7-9.2-3.7-1.3 0-3.6-1.4-5.3-3.2-2.6-2.7-2.9-3.8-2.8-8.7.1-3.1.6-6.7 1.1-8.1.8-2.2.2-3.1-6.4-9.5-7.9-7.5-9.1-10.5-5.2-12.6 1.9-1 24.2-2.7 37.6-2.9h4.2V0H237z"/></svg>