<svg xmlns="http://www.w3.org/2000/svg" width="682.667" height="512" version="1.0" viewBox="0 0 512 384"><path d="M219 1.4c0 .8.4 1.7.9 2 1 .6 2.2 6.4 2.9 13.1.2 2.2.5 14.8.5 28 .2 20.2-.1 25.3-1.7 32-2.5 10.9-9.1 30.6-12.1 36.6-.8 1.5-1.5 3.7-1.5 4.9 0 1.1-.4 2-.8 2s-1.9 1.8-3.2 4c-1.4 2.2-2.8 4-3.2 4-.5 0-.8.9-.8 2s-.4 2-1 2c-.5 0-1 .6-1 1.4 0 .7-1.2 2.7-2.7 4.3-1.6 1.7-4.2 5.1-6 7.4-4.7 6.5-12.6 14.9-14.1 14.9-.6 0-1.2.4-1.2.9 0 .9-5.7 7.1-6.6 7.1-.3 0-1.1.6-1.9 1.2-.7.7-2.7 2.4-4.5 3.8s-3.8 3.1-4.5 3.7c-.8.7-1.8 1.3-2.4 1.3s-1.1.4-1.1 1c0 .5-.6 1-1.3 1-.8 0-2.2.9-3.2 2s-2.4 2-3 2c-.7 0-1.8.7-2.5 1.5-1.1 1.4-4.6 3.2-10.5 5.5-1.1.4-4.4 1.9-7.3 3.4-3 1.4-5.8 2.6-6.3 2.6s-2.8.9-5.2 1.9c-2.3 1.1-5.5 2.2-7.2 2.4-1.6.3-5.5 1.2-8.5 2.1-22.7 6.5-63.6 4.4-88.5-4.4-3.3-1.2-6.8-2.4-7.8-2.7-1.6-.5-1.7 4.4-1.7 93.6V384h233.5c128.4 0 233.5-.4 233.5-.8 0-.5-.3-1.2-.7-1.6-.8-.7-.9-1.6-1.8-10.1-.6-5.4-.2-7.3 4.1-20 2.6-7.7 5.6-16 6.6-18.5 6.8-15.7 10.2-27.3 15.3-52.5 2-9.9 4.7-21.8 6-26.5 1.4-4.7 3.2-10.8 4-13.5 1.1-4 1.2-7.3.5-17-.5-6.6-1-12.8-1-13.7s-.9-2-2-2.3c-3.8-1.2-7.9-5.6-8.6-9-.8-4.4 1.6-11.5 6.2-18.2 2.5-3.6 3.8-6.8 4.3-10.6.8-5.8 2.9-10.1 6.4-12.9 2.1-1.6 2.1-1.7.4-3.6-1.2-1.3-1.5-2.2-.8-2.7 2.5-1.5.9-2.6-2.7-2-3.3.5-4.4.2-7.3-2.2-1.9-1.5-3.6-3-3.9-3.4-.3-.3-1.8-1.3-3.5-2.2-1.6-.9-2.4-1.6-1.7-1.7.6 0 1.2-.8 1.2-1.8 0-2-4.2-4.2-8-4.2-1.7 0-3.8-1.3-6-3.5l-3.4-3.5 1.1-7.8 1.2-7.7-7.5-7.2c-4.1-4-7.4-8.1-7.4-9.1 0-3.2 4.8-4.4 20.5-5.3 8.3-.4 19.2-1.1 24.3-1.4l9.2-.7V0H365.5C238.6 0 219 .2 219 1.4"/></svg>