<svg xmlns="http://www.w3.org/2000/svg" width="682.667" height="512" version="1.0" viewBox="0 0 512 384"><path d="M189.4 1.7c3.4 8.7 4 39.5 1.2 55.3-1.8 10.3-6.9 26.2-11.6 36.4-1.7 3.5-3 7.2-3 8 0 .9-.7 1.9-1.5 2.3-.9.3-2.5 2.4-3.7 4.7-3.4 6.7-12 17.6-21.8 27.4-5 5.1-9.4 9.2-9.8 9.2s-2.9 2-5.6 4.5c-2.6 2.4-5.7 4.7-6.7 5-1.1.4-1.9 1-1.9 1.5 0 .4-1.2 1.1-2.7 1.5-1.5.3-3 1-3.3 1.4-.5.7-14.9 8.3-19.5 10.2-5 2.1-17.6 5.7-24 6.9-3.8.7-8.3 1.6-9.9 2.1-4.2 1.3-35.3 1.1-43.8-.2-4-.7-10.2-2-13.7-3-3.5-1.1-6.7-1.9-7.2-1.9S0 217.1 0 278.5V384h226.5c180.5 0 226.5-.3 226.5-1.3 0-.6-.7-3.5-1.5-6.2-2.2-7-.8-14 7.6-40.5 7.8-24.2 9.9-33.2 12.9-54 1.1-8 3.6-21 5.6-29 4-15.8 4.2-18.3 3-34l-.8-10.5-4.2-2.6c-2.3-1.4-4.9-4.1-5.8-5.9-1.4-3-1.4-3.8-.1-8.4.8-2.8 3.3-7.8 5.5-11 2.9-4.1 4.5-8 5.5-12.5 1.1-5.2 2.1-7.4 5-10.3 3.4-3.5 3.5-3.7 1.5-4.9s-2-1.3.2-3.1c2.1-1.9 2.1-1.9-2.4-1.3-4.3.5-4.9.3-10.5-4.1-3.7-2.8-6-5.4-6-6.6 0-2.6-3.2-4.8-7.1-4.8-2.5 0-4.2-.9-6.8-3.6-1.9-2-3.3-4.1-3.1-4.7.2-.7.6-4.4 1-8.3l.6-7-5.9-4.7c-6.6-5.2-9.9-10.4-7.9-12.5 1.9-1.8 10.7-2.9 33.7-4.2 22.7-1.3 23.6-1.1 33.8 4.8l5.2 3.1V0H350.4c-150.6 0-161.6.1-161 1.7"/></svg>