<svg xmlns="http://www.w3.org/2000/svg" width="682.667" height="512" version="1.0" viewBox="0 0 512 384"><path d="M172.6 2.2c1.3 3.9 1.6 30.8.4 40.3-1.4 10.5-2.7 16-6.5 27-3.3 9.7-10.2 24.2-12.5 26.5-.3.3-1.4 2.1-2.4 4-1.1 1.9-3.3 4.8-4.8 6.5-1.5 1.6-2.8 3.5-2.8 4 0 .6-1.3 2.1-3 3.5-1.6 1.4-3 3-3 3.6 0 .5-2 2.5-4.5 4.4s-4.5 4-4.5 4.7-.5 1.3-1.2 1.3-2.2 1.1-3.3 2.3c-1.1 1.3-3.1 3-4.4 3.7-2.8 1.4-3.4 1.9-7.5 5.5-1.6 1.4-3.5 2.5-4.2 2.5s-1.4.3-1.6.7c-.1.5-3.3 2.4-7 4.3-3.8 1.9-6.8 3.8-6.8 4.2 0 .5-1.1.8-2.5.8-2.7 0-7.6 1.9-8.7 3.5-.4.5-.8.7-.8.2 0-.4-1.2-.1-2.7.6-1.6.8-9.3 2.7-17.2 4.2-13.2 2.5-15.9 2.7-31 2.2-13.2-.4-17.9-.9-23.1-2.6C3.4 159 .4 158 .3 158c-.2 0-.3 50.8-.3 113v113h439.3l-.9-3.3c-.5-1.7-.9-8.6-.8-15.2.1-11 .5-13.6 5.2-31.5 5.9-22.8 6.4-25.6 9.6-50 2.1-16.1 5.7-35.6 8.5-45.6.4-1.6.4-5.5 0-8.5-.4-2.9-.8-8.4-.8-12.1-.1-8.4-.5-9.3-5-11.9-5.2-2.9-7.5-7-6.7-12.1.8-4.7 3.5-10.3 7.1-14.6 1.6-1.9 3.1-5.6 4-9.7 1.4-7 2.2-8.4 7-12.7 2.8-2.6 2.9-2.9 1.2-3.9-1.8-1-1.8-1.1 0-3.1 1.8-2.1 1.8-2.1-2.9-1.4-4.5.7-4.9.5-10.5-4-3.5-2.9-5.7-5.5-5.6-6.5.3-2.5-2-4-6.7-4.5-2.9-.3-5-1.3-7.2-3.5l-3.1-3 .6-8.9.6-8.8-4-2.8c-5.6-3.8-9.9-9-9.9-11.9 0-3.4 3.5-4.2 24.5-5.7 28.8-2.1 32-1.9 39.6 2.1 3.5 1.8 7.5 4.3 8.8 5.4 4.3 4 10.8 13.1 14.4 20.4 2 3.9 4.1 7.4 4.7 7.8.7.4 1-19.5 1-61.9V0H171.8z"/></svg>