<svg xmlns="http://www.w3.org/2000/svg" width="682.667" height="512" version="1.0" viewBox="0 0 512 384"><path d="M170.4 3.7c1.7 10.3 1.8 26.2.1 37.3-.9 6.3-2 12.8-2.6 14.5-4.3 14-7.2 22.3-8.5 24.2-.8 1.2-1.4 2.7-1.4 3.3s-2.2 4.7-5 9.1c-2.7 4.4-5 8.3-5 8.5 0 .9-9.2 11.9-10.6 12.7-.8.4-1.4 1.3-1.4 2s-2 2.8-4.5 4.7c-2.4 1.9-4.4 4.1-4.5 4.7 0 .7-.4 1.3-1 1.3-.5 0-2 1.1-3.4 2.5s-3 2.5-3.6 2.5c-.5 0-1 .4-1 1 0 .5-.5 1-1 1-1.1 0-1.8.5-6.4 4.5-1.6 1.4-3.5 2.5-4.2 2.5s-1.4.3-1.6.7c-.1.5-3.3 2.4-7 4.3-3.8 1.9-6.8 3.8-6.8 4.2 0 .5-1.1.8-2.5.8-1.3 0-5.3 1.3-8.7 2.8-10.2 4.6-27.3 7.3-47.8 7.4-17 .2-21.4-.4-30.7-3.9C.3 155.9 0 179 0 269.9V384h434.2l-.6-2.3c-.4-1.2-1.1-5.4-1.7-9.2-1.4-10.5-.2-19.7 6.6-49.5 1.9-8.5 4.4-23.4 5.5-33 2.1-17.4 5.7-38.7 8.7-50.9 1.2-4.9 1.3-6.9.4-8.3-.6-1-1.1-4.4-1.1-7.6 0-11.6-.9-14.7-4.7-16.7-9.7-5.3-9.9-13.9-.4-27.1 2.7-3.7 4.2-7.2 4.7-10.2.9-6.1 2.7-9.5 6.4-12.2 2.8-2 3-2.4 1.6-3.9s-1.4-1.9.1-3.4c2.3-2.3.9-3.3-2.5-1.7-1.5.8-3 1.5-3.3 1.7-.3.1-3.2-1.7-6.3-4.2-3.1-2.4-6.2-4.5-6.9-4.8-.9-.3-.9-.9 0-2.4 1-1.8.7-2.2-2.4-3.7-1.9-.9-4.3-1.4-5.2-1.1-1.6.5-6.4-3.1-7.4-5.7-.4-1-.8-1-1.6.2-1.1 1.6-.5-7.9.8-13.5.7-2.8.2-3.6-7.1-10.6-4.3-4.1-7.8-8.3-7.8-9.3 0-3 6-4.3 26-5.7 28.4-2 31.2-1.8 39.3 2.1 5.5 2.6 8.1 4.7 13.1 10.5 3.4 4 7.6 10 9.3 13.4 1.8 3.4 5.7 8.9 8.7 12.3l5.6 6.1V0H169.8zm325.2 210.9c-.9 2.5-.7 7.2.4 7.9.6.4 1-1.3 1-4.4 0-5.3-.4-6.2-1.4-3.5"/></svg>