<svg xmlns="http://www.w3.org/2000/svg" width="682.667" height="512" version="1.0" viewBox="0 0 512 384"><path d="M170.4 3.7c1.7 10.3 1.8 26.2.1 37.3-.9 6.3-2 12.8-2.6 14.5-4.3 14-7.2 22.3-8.5 24.2-.8 1.2-1.4 2.7-1.4 3.3s-2.2 4.7-5 9.1c-2.7 4.4-5 8.3-5 8.5 0 .9-9.2 11.9-10.6 12.7-.8.4-1.4 1.3-1.4 2s-2 2.8-4.5 4.7c-2.4 1.9-4.4 4.1-4.5 4.7 0 .7-.4 1.3-1 1.3-.5 0-2 1.1-3.4 2.5s-3 2.5-3.6 2.5c-.5 0-1 .4-1 1 0 .5-.5 1-1 1-1.1 0-1.8.5-6.4 4.5-1.6 1.4-3.5 2.5-4.2 2.5s-1.4.3-1.6.7c-.1.5-3.3 2.4-7 4.3-3.8 1.9-6.8 3.8-6.8 4.2 0 .5-1.1.8-2.5.8-1.3 0-5.3 1.3-8.7 2.8-10.2 4.6-27.3 7.3-47.8 7.4-17 .2-21.4-.4-30.7-3.9C.3 155.9 0 179 0 269.9V384h432.2l-.7-2.8c-.3-1.5-.9-9-1.2-16.7-.5-13.6-.4-14.6 4.1-36.5 2.5-12.4 5.4-30.3 6.5-39.7 2.1-17.9 3.9-29.2 7.2-45.1 1.5-7.6 1.7-10.5.9-16.5-.6-3.9-1.2-9.7-1.6-12.9-.5-5-.8-5.7-3.4-6.8-3.5-1.4-6.5-4.6-7.9-8.2-1.5-3.9.9-11 6.3-18.7 2.8-3.9 4.7-7.9 5.1-10.4 1-6.5 2.4-9.4 6.2-12.3 2.7-2.1 3.2-2.8 2.2-4-.9-1.1-.8-1.8.5-3.3 2.4-2.6.6-3.4-3.7-1.6-3.4 1.4-3.5 1.4-9.1-3-3.1-2.4-6.1-4.5-6.8-4.7-.8-.3-.7-1 .1-2.7 1.4-2.5 1-3.4-1.7-3.7-.9-.1-2.7-.6-3.9-.9-1.6-.5-2.3-.3-2.3.6 0 .7-1.8-.4-3.9-2.5-2.2-2.1-4.4-3.6-4.9-3.2-1.1.7-.6-6.6.9-13.4 1-4.2.9-4.5-1.8-6.5-5.2-3.7-10.4-8.8-11.8-11.6-1.3-2.4-1.2-2.8.5-4.4 1.6-1.4 5.7-2.1 22.2-3.3 30.2-2.3 33-2.2 41 1.7 4.6 2.2 8.4 5.1 11.9 8.9 5.6 6.1 12.9 16.8 12.9 19 0 .7 2.8 4.4 6.3 8.1 3.4 3.8 7 7.9 7.9 9.2 1.6 2.3 1.7-1.3 1.8-66.9V0H169.8zM495.5 208c.3.5.8 1 1.1 1 .2 0 .4-.5.4-1 0-.6-.5-1-1.1-1-.5 0-.7.4-.4 1m-1.1 2.8c-1.5 1-1.1 25.9.5 27.5.6.6 1.1.8 1.1.5s.5-3 1-5.9c1.4-7.1 1.5-17 .2-17.8-.5-.3-1.2-1.6-1.3-2.8-.3-1.4-.8-2-1.5-1.5"/></svg>