<svg xmlns="http://www.w3.org/2000/svg" width="682.667" height="512" version="1.0" viewBox="0 0 512 384"><path d="M170.4 3.7c1.7 10.3 1.8 26.2.1 37.3-.9 6.3-2 12.8-2.6 14.5-4.3 14-7.2 22.3-8.5 24.2-.8 1.2-1.4 2.7-1.4 3.3s-2.2 4.7-5 9.1c-2.7 4.4-5 8.3-5 8.5 0 .9-9.2 11.9-10.6 12.7-.8.4-1.4 1.3-1.4 2s-2 2.8-4.5 4.7c-2.4 1.9-4.4 4.1-4.5 4.7 0 .7-.4 1.3-1 1.3-.5 0-2 1.1-3.4 2.5s-3 2.5-3.6 2.5c-.5 0-1 .4-1 1 0 .5-.5 1-1 1-1.1 0-1.8.5-6.4 4.5-1.6 1.4-3.5 2.5-4.2 2.5s-1.4.3-1.6.7c-.1.5-3.3 2.4-7 4.3-3.8 1.9-6.8 3.8-6.8 4.2 0 .5-1.1.8-2.5.8-1.3 0-5.3 1.3-8.7 2.8-10.2 4.6-27.3 7.3-47.8 7.4-17 .2-21.4-.4-30.7-3.9C.3 155.9 0 179 0 269.9V384h215.1c184.1 0 215-.2 214.6-1.4-.3-.8-1.1-5.1-1.8-9.6-1.7-11.9-.6-26.7 3.5-47.5 2-9.8 4.5-26 5.6-36 2.5-21.6 3.3-27.2 6.6-43.5 2-10.1 2.3-13.3 1.5-17-.6-2.5-1.3-8.1-1.6-12.5-.6-7.6-.8-8.2-3.5-9.3-3.8-1.7-7.9-6-8.6-8.9-1-3.9 1.6-11.1 6.3-17.4 3.4-4.5 4.6-7.2 5.5-12.1.9-5.5 1.6-6.8 5.4-10.4 3.2-3 4-4.4 3.2-5.2-.9-.9-.7-1.6.6-3.1 2.4-2.7.5-3.5-3.7-1.5l-3.4 1.6-5.6-4.5c-3-2.4-6-4.6-6.7-4.9-1-.3-1-.9-.2-2.5 1-1.8.8-2.2-1.6-3.1-5.1-1.9-6.1-2.1-6.4-1.2-.2.6-2-.6-4.1-2.5-2.1-2-4.2-3.3-4.6-3-.9.5-.3-8.6.9-13.4.9-3.3.7-3.6-7-11.1-4.4-4.2-8-8.2-8-8.8s1.2-1.9 2.6-2.9c2-1.2 7.4-2 22.7-3.2 30.5-2.3 31.1-2.2 40.3 2.4 6.6 3.3 8.9 5.2 14.1 11.4 3.4 4.1 7.4 9.9 8.9 13s5.6 8.6 9.1 12.4c3.4 3.7 7.6 9.3 9.2 12.5l3 5.7.1-73.3V0H169.8zM493 201.8c0 .4.6 1.4 1.3 2.1 1 1.1 1 1.4 0 1.8-.7.3-1.3 1.3-1.3 2.4s-.7 2.2-1.6 2.6c-1.1.4-1.3 1.3-.9 3.5 1.8 7.9 2.2 14.7 1.2 19.3-.9 4.3-.8 5.5.8 7.8.9 1.5 2.1 2.7 2.6 2.7 3 0 5.6-18.6 3.9-27.2-1.5-8-4.1-15.8-5.2-15.8-.4 0-.8.4-.8.8m13.1 52.8c-.9 2-.9 3-.1 3.8.9.8 1.1.7.9-.4-.1-.8.1-2.3.6-3.3.4-1 .5-2 .3-2.2-.3-.3-1 .7-1.7 2.1"/></svg>