<svg xmlns="http://www.w3.org/2000/svg" width="682.667" height="512" version="1.0" viewBox="0 0 512 384"><path d="M320 2c0 2.7 3.4 11.1 6.5 16 1.4 2.2 2.5 4.4 2.5 4.9 0 .4-2.8 1.2-6.2 1.5-31.3 3.6-64.4 29.1-73.3 56.6-2.9 8.9-7.5 18-11.4 22.3-3.4 3.7-3.4 3.9-1.1 3.2 1.4-.4 3.7-1.9 5.3-3.3 3.2-3 3.5-1.8 1.2 4.8-1.8 5.1-1.9 6.4-.4 5.4.8-.5.9.6.4 3.7-1.2 8-1.5 11.4-.9 10.1.3-.6 1-1 1.5-.7.5.4.6-.1.3-1-.4-1.1-.2-1.4.9-.9.8.3 2 3.1 2.8 6.7l1.3 6.2.7-5c.3-3 .6-3.9.7-2.1.2 3.3 3.3 10.5 4.5 10.6.5 0 .6-.4.2-.9-.3-.5-.1-1.2.4-1.5s1.2.5 1.5 1.9c.6 2.4 2.6 3.5 2.6 1.4 0-2.2 1.8.2 2.4 3.2.3 1.8.9 2.9 1.3 2.6.3-.4 1.5.1 2.6 1 2 1.8 2 1.7 1.4-1.4-1.7-8.4-1.5-9.2.5-2.6 2.4 7.8 3.8 9.3 3.8 4 .1-2.5.3-2.8 1-1.6 1.8 3.1-1.7 11.6-6.8 16.5-5.4 5.2-5.2 6 1.9 11 3.9 2.7 4.5 3.6 5 7.9.5 4.9 2.6 7.5 6.1 7.5 1.1 0 3 1.1 4.3 2.4 2 2 2.3 3.1 1.9 5.6-.5 2.4-.1 3.7 1.8 5.8C291.1 208 298 219 298 221c0 .9-.5 3.1-1.1 4.9-1.3 3.6-.9 4.3 2.4 4.6 2.3.3 2.4.5 1.2 4.2-.3 1.3-.2 2.3.3 2.3s1.2 3.5 1.6 7.7c.4 4.3 1.4 11.2 2.2 15.3 2 10.4 1.8 11.6-1.8 15.3-6 6-6.5 6.2-8.2 3-.8-1.5-3.1-4.6-5.1-6.8s-5.3-7.6-7.4-12-5.5-10.2-7.5-12.9l-3.8-4.9 1.2-6.4c1.4-7.2.8-17.6-1.4-26.1-2-7.4-6-13.8-10.8-17-3.7-2.4-5.2-2.7-14.8-3-5.8-.2-12.2.1-14.3.6l-3.7 1-.6-4.9c-.4-2.7-1-4.9-1.5-4.9-1.8 0-2.6 3.4-1.7 6.8.5 1.9.6 3.8.1 4.2-.4.4-4.4 1.9-8.7 3.5-4.4 1.6-9.5 4.2-11.5 6-2 1.7-4.4 3.5-5.4 3.8-2.3.9-4.2 5.5-6.5 16-1.9 8.1-1.9 8.5-.1 15.3 1.1 3.8 2.6 9.8 3.4 13.4 1.8 7.4 2.5 8.6 10.9 18.9 5 6.1 7.2 7.9 12.4 10.3 3.4 1.5 6.2 3.1 6.2 3.3 0 .3-1 2.5-2.1 4.7-3.6 7.1-5.9 14.7-8.9 30.1-1.6 8.2-4.4 19-6.1 24-3.1 9.1-3.2 9.4-2.6 23.2.4 7.7.9 15.2 1.3 16.7l.6 2.8H266l4-8.3c4.4-8.9 13.9-23.7 15.3-23.7.5 0 .7 1 .4 2.2-1.2 4.9-1.9 19-1.3 24.2l.7 5.6h7c6.8 0 6.9 0 7-2.8l.1-2.7 1 2.7 1 2.8h160.7l8.3-2.6c4.6-1.5 11-4.3 14.2-6.3l6-3.6-3.9-.5-4-.5 3.5-4c7.3-8.3 7.4-7.8-.9-7-6.8.7-8.3 1.3-18.9 7.7-6.4 3.9-13 7.7-14.7 8.4-3.1 1.3-3.2 1.2-4.8-2.1-.9-1.9-1.4-4.1-1.1-5 .8-1.9-2.4-15.3-4.3-18.3-.8-1.3-1.2-3-.9-3.8.3-.9-1-7.7-3-15.2-1.9-7.5-4.1-16.1-4.8-18.9-.7-2.9-1.8-5.9-2.5-6.7-.6-.7-.9-2-.5-2.9.3-.8-.2-2.9-1.1-4.7-1.1-2.1-1.5-5-1.3-9.1.3-6.5 1.8-7.8 3.1-2.7 2.7 10.7 2.9 11.4 3.7 9.3.7-1.9.9-1.8 2.1.8 1 2.3 1.4 2.6 1.9 1.2.4-1.2 1.2-.3 2.7 3.2 1.2 2.6 3.9 8.4 6 12.8 3.5 7.6 3.7 7.8 4.1 4.7.2-1.8-.4-9.5-1.3-17-.8-7.5-1.8-16.4-2.1-19.7l-.5-6 4 7.4c4.5 8.2 6.9 11.5 5.2 6.8-3.7-9.8-7.3-28.9-7.7-41.7-.4-9.7-.3-13.1.5-12 .6.8 1.1 2.9 1.1 4.6 0 4.2 8.2 26.2 13.2 35.4 7.8 14.4 12.8 21.2 9.7 13.4-2.8-7.3-6.9-23.8-7.4-30-.4-4.9-.3-6.3.4-4.7 1.5 3.4 16 25.1 17.2 25.9.9.5 1-.2.6-2.2-.4-1.6-1.5-8.3-2.6-14.9-1.8-10.6-2.5-20.9-4.6-65.5-2.5-50.7-8.4-82.5-22-118.4-3-8-5.5-15.4-5.5-16.5s-1.2-5.3-2.6-9.3c-5.5-15.4-16.1-29.1-25.9-33.7-3.7-1.8-7.4-2.5-14.1-2.9l-9.2-.5-5.3-8.3-5.4-8.4h-33.2C320.9 0 320 .1 320 2"/></svg>