<svg xmlns="http://www.w3.org/2000/svg" width="682.667" height="512" version="1.0" viewBox="0 0 512 384"><path d="M170.4 3.7c1.7 10.3 1.8 26.2.1 37.3-.9 6.3-2 12.8-2.6 14.5-4.3 14-7.2 22.3-8.5 24.2-.8 1.2-1.4 2.7-1.4 3.3 0 2.9-17.3 28.4-20.6 30.3-.8.4-1.4 1.4-1.4 2.1 0 .8-1.2 2.1-2.6 3.1-4.2 2.7-6.4 4.9-6.4 6.2 0 .7-.4 1.3-1 1.3-.5 0-2 1.1-3.4 2.5s-3 2.5-3.6 2.5c-.5 0-1 .4-1 1 0 .5-.5 1-1 1-1.1 0-1.8.5-6.4 4.5-1.6 1.4-3.5 2.5-4.2 2.5s-1.4.3-1.6.7c-.1.5-3.3 2.4-7 4.3-3.8 1.9-6.8 3.8-6.8 4.2 0 .5-1.1.8-2.5.8-1.3 0-5.3 1.3-8.7 2.8-10.2 4.6-27.3 7.3-47.8 7.4-17 .2-21.4-.4-30.7-3.9C.3 155.9 0 179 0 269.9V384h402v-5.3c0-2.8-.5-10.6-1.1-17.2-1.2-12.4-.9-16.3 3.6-51 .8-6.1 1.4-12.8 1.5-15v-4l-4.6-.3c-5.1-.3-7.2-2.1-9.4-8-1.3-3.7-.5-5.7 6.7-18.2 1.7-3 5.4-11.6 8.1-19l5-13.5-1.4-9.9c-.7-5.5-1.1-10.4-.8-10.8.3-.5-1-1.6-2.8-2.6-1.8-.9-4.7-3.1-6.5-4.9-2.6-2.5-3.3-3.9-3.3-7 0-4.6 2.8-10.9 7-16.1 2.1-2.6 3.5-6 4.5-10.8 1.4-6.9 3.5-9.9 9.1-13.3 1.8-1 1.8-1.2.2-2.5-1.7-1.2-1.7-1.4.2-3.1 2.7-2.5 1.5-3.8-2-2-3.4 1.8-5 1.3-11.2-3.6-2.6-2-5.3-3.9-6-4.1-1-.4-1-.9.2-2.2 1.3-1.6 1.2-2-.5-3.3-1.2-.9-3.2-1.2-5.2-.9-2.8.4-3.7 0-6.2-3.1-1.6-1.9-3.4-3.2-4-2.9-1.4.9-1.4-3.8 0-12.1 1.1-6.3 1.1-6.3-1.7-8.6-12-9.3-14.6-14.5-8.1-16.6 3.2-1 41.2-3.6 49.4-3.3 2.4 0 7.2 1.6 11.7 3.7 6.5 3.1 8.6 4.7 13.6 10.8 3.3 4 7.4 9.9 9.2 13.1 1.8 3.3 6.3 8.9 9.9 12.5 6.9 7 10.4 11.9 15.1 21.3 1.6 3.2 4.6 7.1 7 9.2 6.9 5.6 16.1 17.1 19.5 24.4l3.1 6.7.1-95.3L512 0H169.8z"/><path d="M455.1 172.5c0 .5.6 1.9 1.4 2.9.8 1.1 1.5 1.5 1.5 1 0-.6-.7-1.9-1.5-3-.8-1-1.4-1.5-1.4-.9m12.3 23.6c-1.6 1.7-1.6 2.2-.4 2.9.8.6 2.1 1 2.9 1 1.1 0 1.1.4-.2 1.8-1 1-1.4 2.2-1.1 2.5.4.4.2 1.2-.4 2-.8 1-.1 3.7 2.9 11l3.9 9.7-1.1 18.3c-1.3 21.7-1.1 23 8.2 42.6 7 14.7 12.6 24 22.3 37.1l7.1 9.5.3-9.5c.2-5.2.2-23.9 0-41.5l-.3-32-2.9-5.8c-1.6-3.1-3.5-5.7-4.1-5.7s-1.8-1.8-2.5-4c-2-6.2-9.7-16.9-19.2-26.8-4.7-5-9.4-10.5-10.4-12.2-2.2-3.6-2.5-3.6-5-.9m-16.9 26c.3 2.3 1 4.9 1.5 5.9.5.9.7 2.6.4 3.7-.5 1.8 1.9 8.3 3 8.3.2 0 .1-3.9-.2-8.8-.3-5.6-1.1-9.5-2.1-10.9-2.4-3.3-3.1-2.8-2.6 1.8"/></svg>