<svg xmlns="http://www.w3.org/2000/svg" width="682.667" height="512" version="1.0" viewBox="0 0 512 384"><path d="M170.4 3.7c1.7 10.3 1.8 26.2.1 37.3-.9 6.3-2 12.8-2.6 14.5-4.3 14-7.2 22.3-8.5 24.2-.8 1.2-1.4 2.7-1.4 3.3 0 2.9-17.3 28.4-20.6 30.3-.8.4-1.4 1.4-1.4 2.1 0 .8-1.2 2.1-2.6 3.1-4.2 2.7-6.4 4.9-6.4 6.2 0 .7-.4 1.3-1 1.3-.5 0-2 1.1-3.4 2.5s-3 2.5-3.6 2.5c-.5 0-1 .4-1 1 0 .5-.5 1-1 1-1.1 0-1.8.5-6.4 4.5-1.6 1.4-3.5 2.5-4.2 2.5s-1.4.3-1.6.7c-.1.5-3.3 2.4-7 4.3-3.8 1.9-6.8 3.8-6.8 4.2 0 .5-1.1.8-2.5.8-1.3 0-5.3 1.3-8.7 2.8-10.2 4.6-27.3 7.3-47.8 7.4-17 .2-21.4-.4-30.7-3.9C.3 155.9 0 179 0 269.9V384h395.3l-.7-21.2c-.6-17.3-.4-23.1.8-30.8 1.8-10.5 4.6-33.9 4.6-38.3 0-2.6-.1-2.7-5.7-2.7-3.2 0-6.5-.6-7.4-1.3-1.7-1.3-4.9-7.3-4.9-9.1 0-.6 1.8-4.5 4-8.6 6.9-12.9 10.7-21.1 15-32.8 4.2-11.2 4.2-11.2 3.1-18-.7-3.7-1.3-7.7-1.4-9-.1-1.2-1-2.5-2-2.8-2.7-.9-7.6-5.4-9.3-8.5-2.2-4.3.4-12 6.8-20.1 1.9-2.4 3.2-5.6 3.8-9.2 1.1-7 2.2-8.9 6.8-12.3 2-1.5 3.9-2.9 4.2-3.1s-.3-.9-1.2-1.6c-1.7-1.2-1.7-1.4.2-3.1 2.7-2.4 1.6-3.7-1.8-1.9-4 2.1-5.1 1.8-10.3-2.6-2.6-2.2-5.2-4-5.8-4-1.8 0-2.3-2-1-3.7 1.1-1.3 1-1.7-.6-3-1.1-.8-3.4-1.3-5.1-1.1-3.3.2-7.5-2.4-8.7-5.5-.4-1-1.2-1.5-1.8-1.1-1.1.7-.8-5.1.7-14.2.5-2.7 0-3.5-5-7.8-3-2.6-6.5-6.1-7.7-7.7-2.2-3.1-2.2-3.1-.2-5.1 2.3-2.2 10.2-3.1 38.4-4.3l16.6-.7 6.9 3.2c3.8 1.7 8.4 4.6 10.3 6.3 4.1 3.9 13.1 15.9 15.6 20.7 1 1.9 5 6.9 8.9 11 4.1 4.3 9.1 11.1 11.8 15.8 3.2 5.9 7.8 11.7 15.5 19.7 11.1 11.7 15 18.1 18.2 30.2.6 2.2 2 5.2 3.1 6.5 1.9 2.3 1.9 1.7 2-100V0H169.8z"/><path d="M449.2 174c.7 1 1.4 1.8 1.5 1.6.6-.6-.9-3.6-1.8-3.6-.5 0-.4.9.3 2m12.3 22c-1.7 1.9-1.7 2 .9 3.1 2 .9 2.3 1.5 1.5 2.5-.6.7-.8 1.7-.5 2.2.3.6 0 1.5-.8 2.1-1.1.9-.6 2.6 2.7 9.4l4 8.2.8 18.5c.8 19.8 1.6 27 3.1 31 .6 1.4 1.4 5.5 1.9 9.2 1.6 12.3 12.9 31.8 32.1 55.1l4.8 5.8v-88.2l-2.5-5.4c-1.4-3-4.6-7.5-7-10.1-2.5-2.6-4.5-5.2-4.5-5.7 0-2.1-8.7-12.5-16.9-20.3-4.7-4.5-10.4-10.7-12.6-13.7-2.2-3.1-4.3-5.7-4.6-5.7s-1.4.9-2.4 2M444 220.5c.1 2.7.7 6.1 1.5 7.5.7 1.4 1.1 3.7.8 5.2-.4 2 .3 3.8 2.6 7 3.6 4.9 3.8 4.3 2.1-7.5-1.5-10.1-1.7-10.8-4.5-14.2l-2.5-3z"/></svg>