<svg xmlns="http://www.w3.org/2000/svg" width="682.667" height="512" version="1.0" viewBox="0 0 512 384"><path d="M170.4 3.7c1.7 10.3 1.8 26.2.1 37.3-1.7 12.1-2.1 13.5-6.7 27-4.5 13.1-6.6 17.5-12.6 27-6.7 10.5-8.4 12.9-11.8 16.4-1.9 1.9-3.4 3.9-3.4 4.4s-1.2 1.7-2.6 2.7c-4.2 2.7-6.4 4.9-6.4 6.2 0 .7-.4 1.3-1 1.3-.5 0-2 1.1-3.4 2.5s-3 2.5-3.6 2.5c-.5 0-1 .4-1 1 0 .5-.5 1-1 1-1.1 0-1.8.5-6.4 4.5-1.6 1.4-3.5 2.5-4.2 2.5s-1.4.3-1.6.7c-.1.5-3.3 2.4-7 4.3-3.8 1.9-6.8 3.8-6.8 4.2 0 .5-1.1.8-2.5.8-1.3 0-5.3 1.3-8.7 2.8-10.2 4.6-27.3 7.3-47.8 7.4-17 .2-21.4-.4-30.7-3.9C.3 155.9 0 179 0 269.9V384h382.1l-.3-23.7c-.3-22.2-.1-24.8 2.4-39.3 2.5-13.7 5.9-46.1 5.8-54.5l-.1-3-1.3 2.5c-.7 1.4-1.7 4.3-2.1 6.5-.3 2.1-1.3 5.2-2.2 6.8-.8 1.6-1 2.6-.4 2.3.6-.4 1.6.4 2.3 1.9 1 2.2.9 2.9-1 4.7-1.6 1.7-3.2 2.1-7.2 2-6.5-.1-9.6-2.1-11.1-7.2-1.1-3.6-1-4.4 1.8-9.7 1.6-3.2 4.4-8.1 6.1-10.8 1.8-2.8 5.9-11.4 9.1-19.2 3.3-7.8 6.6-15.2 7.5-16.5.9-1.2 1.6-4 1.6-6.1 0-3-.6-4.4-3-6.4s-2.8-2.8-1.9-3.9c.8-1 .8-1.4.1-1.4-.6 0-2.7-1.6-4.7-3.7-2.9-3-3.5-4.3-3.5-8 0-4.8 2.6-10.6 7.1-16.3 1.8-2.3 3.3-5.7 4-9.5 1.4-6.9 3.8-10.9 8.1-13.1 2.8-1.5 2.9-1.6 1.3-3.4-1.6-1.7-1.5-1.9.4-2.9 1.1-.6 1.8-1.7 1.5-2.5-.5-1.2-.9-1.2-3.2 0-4 2-4.9 1.8-10.2-2.6-2.6-2.2-5.3-4-5.8-4-1.8 0-2.4-1.8-1.2-3.9.8-1.7.6-2.2-1.1-3.2-1.2-.6-3.4-.9-4.8-.6-2.2.5-3.4-.1-5.9-2.9-1.8-1.9-3.7-3.2-4.3-2.9-.6.4-.8-.2-.5-1.7 1.1-5.1 1.6-17.8.8-17.8-.5 0-3.7-2.6-7-5.8-4.6-4.3-6.2-6.4-6.2-8.4 0-3.9 3.3-4.5 31-5.9 22.9-1.1 23.6-1 28.7 1 11.4 4.5 17.1 10.2 26.8 26.5 2.4 4.1 7 10.2 10.2 13.4 5.4 5.4 11.3 14.7 13.7 21.2.5 1.4 5.6 7.4 11.4 13.5 8.5 9 11.1 12.5 14.2 19 2 4.4 4 9.6 4.4 11.6.7 3.8 2.4 5.7 9.4 10.4 2.4 1.6 5.4 4.2 6.8 5.8l2.4 2.9V0H169.8z"/><path d="M449.7 196.7c-1.2 1.2-.7 2.1 1.3 2.6 1.7.4 2 1 1.4 3.4-.4 1.5-1 3.2-1.5 3.7-.4.5 1.3 5 3.8 10 4.1 8.1 4.9 10.9 7.4 25.6 1.6 9.1 4.1 20.5 5.6 25.5 1.9 6.2 2.8 11.9 3.1 18.3.3 8.8.2 9.4-1.7 9.9-1.2.3-2.1.7-2.1.9 0 3 13.8 24.8 25.7 40.7 7.4 9.9 12.1 16.5 17 23.6l2.3 3.4v-111l-2.7-2.4-2.7-2.4 2.4 3.5 2.4 3.5-2.8-2.5c-2.3-2.1-2.6-2.2-2-.5.4 1.1-1.6-.7-4.5-4-6.7-7.6-9.6-10.4-8.5-8.5.4.8-1.8-1.2-5-4.5s-5.5-5.4-5.1-4.8c1.4 2.8-.5 1.1-2.6-2.4-1.3-2-7.8-9-14.5-15.6-6.7-6.5-12.7-13-13.3-14.3-1.1-2.4-2.2-3-3.4-1.7M432 220.5c0 2 .7 5.2 1.5 7.2.8 1.9 1.5 4.9 1.5 6.5 0 1.8 1.5 4.9 4.3 8.5 2.3 3.2 4.7 6.6 5.4 7.8 1.2 2 1.2 2 1.3-.1 0-1.2-.7-4.1-1.6-6.5-.8-2.4-2.4-7.9-3.4-12.2-1.8-7.4-5.8-14.7-8.1-14.7-.5 0-.9 1.6-.9 3.5m78 22.5c1.3 2.3 2 2.6 2 .6 0-.8-.7-1.6-1.5-2-1.3-.4-1.4-.2-.5 1.4"/></svg>