<svg xmlns="http://www.w3.org/2000/svg" width="682.667" height="512" version="1.0" viewBox="0 0 512 384"><path d="M170.4 3.7c1.7 10.3 1.8 26.2.1 37.3-1.7 12.1-2.1 13.5-6.7 27-4.5 13.1-6.6 17.5-12.6 27-6.7 10.5-8.4 12.9-11.8 16.4-1.9 1.9-3.4 3.9-3.4 4.4s-1.2 1.7-2.6 2.7c-4.2 2.7-6.4 4.9-6.4 6.2 0 .7-.4 1.3-1 1.3-.5 0-2 1.1-3.4 2.5s-3 2.5-3.6 2.5c-.5 0-1 .4-1 1 0 .5-.5 1-1 1-1.1 0-1.8.5-6.4 4.5-1.6 1.4-3.5 2.5-4.2 2.5s-1.4.3-1.6.7c-.1.5-3.3 2.4-7 4.3-3.8 1.9-6.8 3.8-6.8 4.2 0 .5-1.1.8-2.5.8-1.3 0-5.3 1.3-8.7 2.8-10.2 4.6-27.3 7.3-47.8 7.4-17 .2-21.4-.4-30.7-3.9C.3 155.9 0 179 0 269.9V384h373.8l.7-3c.4-1.7.4-10.8 0-20.3-.7-17-.7-17.4 2.8-34.7 2-9.6 4-21.1 4.6-25.5 1.6-12.2 4.2-40.7 3.7-41.2-.9-.9-5.4 8.5-6 12.6-.4 2.4-1.4 5.7-2.2 7.3-.9 1.7-1.1 2.7-.5 2.4 1.6-1 3.3 3.1 2.2 5.3-1.4 2.4-3.2 3.1-9 3.1s-8.4-1.7-10-6.8c-1.2-3.6-1.1-4.2 1.8-10 1.7-3.3 4.4-8.2 6-10.8 1.7-2.6 5.8-11.3 9.2-19.3s6.8-15.3 7.5-16.2c2.2-2.5 1.8-11.2-.6-13.4-1.2-1-1.9-2.4-1.6-3.1s-1.3-3.1-3.5-5.2c-5.8-5.9-5.1-11.4 3.2-23.2 2.8-4 4-7 4.5-11 .6-4.9 1.2-6 5.6-10.3 3.8-3.7 4.7-5.1 3.9-6.1s-.7-1.7.4-2.6c1.3-1.1 2.1-4 1.2-4-.2 0-1.9.7-3.6 1.6-3.7 1.9-5.6 1.2-10.7-3.5-1.7-1.6-4-3.2-5.3-3.6-1.7-.5-2-1-1.2-1.8 3-3-.9-6.9-6-6.1-2.6.4-6-1.9-7.2-4.9-.4-1.1-1.2-1.5-1.8-1.1-1.1.7-.8-6.6.6-15.4.4-2.3-.4-3.4-5.5-7.5-7.2-5.7-9.9-10.2-7.7-12.4 1.9-1.9 12-3 35.4-3.8l19.2-.6 7.3 3.4c4.7 2.1 8.7 5 11.2 7.7 4.5 5 13.6 18.9 13.6 20.8 0 .7 1.8 3.1 4 5.3 8.4 8.5 13.2 15.7 18.3 27.9.9 1.9 3.3 5.3 5.4 7.4 12.9 13.3 19.7 24.1 23.2 37.2.9 3.5 2 4.7 7.1 7.8 5.5 3.4 15.7 14.4 17.3 18.6.3.8.6-49.5.6-111.8L512 0H169.8z"/><path d="M444 197.9c0 .5.5 1.3 1 1.6.6.3 1 .2 1-.4 0-.5-.4-1.3-1-1.6-.5-.3-1-.2-1 .4m2.5 5.1c-.3.5-.4 1 0 1 .3 0 .1.9-.5 2-.9 1.7-.3 3.6 3.4 10.8 3.5 6.8 5.5 12.8 9.1 27.6 2.6 10.4 5.8 21.9 7.2 25.5 3.4 8.9 4.5 24.7 1.8 25.7-1.1.5-2.2.1-3-.9-2.2-3-1.5 6.3.7 10.8 3.2 6.3 10.6 18.2 17.8 28.2 15.1 21.3 18.8 26.7 23.8 35l5.2 8.8v-128l-4.1-3.4-4.1-3.4 2.7 4.4c1.6 2.4 3.2 4.7 3.8 5 .5.4.8 1.2.6 1.8-.3.7-1.7.4-4.1-.9-3.4-1.8-3.7-1.8-3.1-.2.6 1.4.4 1.5-.9.4-1-.8-1.7-.9-2-.3-.1.6-3.3-1.9-6.9-5.4-3.6-3.6-6.5-6.7-6.3-7s.1-.3-.2 0c-.4.2-2.9-1.6-5.6-4-2.8-2.5-5.4-4.3-5.9-4-.4.3-1.7-1.2-2.8-3.4s-3.3-5.1-4.8-6.4c-1.6-1.4-5.3-4.8-8.3-7.5-3-2.8-6.8-6.9-8.5-9.1-3.1-4.2-4-4.8-5-3.1m-18.9 15.7c-.7 2.1.1 6.8 1.4 9.4.6 1 1 3.3 1 5.2s.9 4.5 1.9 5.9c1.1 1.3 4.3 5.8 7.1 9.9 5.6 7.9 5.6 7.3.5-6.6-1.8-5-3.8-11-4.5-13.5s-2.5-6.2-4-8.3c-2.4-3.2-2.9-3.6-3.4-2"/></svg>