<svg xmlns="http://www.w3.org/2000/svg" width="682.667" height="512" version="1.0" viewBox="0 0 512 384"><path d="M170.4 3.7c1.7 10.3 1.8 26.2.1 37.3-1.7 12.1-2.1 13.5-6.7 27-4.5 13.1-6.6 17.5-12.6 27-6.7 10.5-8.4 12.9-11.8 16.4-1.9 1.9-3.4 3.9-3.4 4.4s-1.2 1.7-2.6 2.7c-4.2 2.7-6.4 4.9-6.4 6.2 0 .7-.4 1.3-1 1.3-.5 0-2 1.1-3.4 2.5s-3 2.5-3.6 2.5c-.5 0-1 .4-1 1 0 .5-.5 1-1 1-1.1 0-1.8.5-6.4 4.5-1.6 1.4-3.5 2.5-4.2 2.5s-1.4.3-1.6.7c-.1.5-3.3 2.4-7 4.3-3.8 1.9-6.8 3.8-6.8 4.2 0 .5-1.1.8-2.5.8-1.3 0-5.3 1.3-8.7 2.8-10.2 4.6-27.3 7.3-47.8 7.4-17 .2-21.4-.4-30.7-3.9C.3 155.9 0 179 0 269.9V384h366.9l.7-3.6c.7-4 .8-10 .4-26.9-.2-9.7.2-12.9 3.4-27 2.1-8.8 4.2-18.3 4.7-21 .8-4.2 6.9-50.7 6.9-52.4-.1-2-8 14.2-8.5 17.4-.4 2.2-1.6 5.7-2.5 7.7-1.8 3.7-1.8 3.7.2 3.5 3.1-.3 3.2 1.7.4 4.9-2.1 2.5-3.1 2.9-7.1 2.7-5.9-.2-9-2.3-10.5-6.9-1.1-3.2-1-4.2 1.1-8.8 1.3-2.8 3.8-7.2 5.6-9.7s6.2-11.4 9.8-19.8 7.4-16.6 8.5-18.1c2.9-4 2.6-9.9-.5-12.9-2.7-2.5-3.2-4.1-1.2-4.1.6 0-.2-1.1-2-2.5-6.8-5.4-6.3-12.9 1.6-24.3 2.8-4 4.3-7.4 5-11.7.9-5.3 1.6-6.5 5.7-10.3 4-3.6 4.4-4.4 3.3-5.8-1.1-1.3-1-1.7.4-2.5.9-.6 1.7-1.7 1.7-2.4 0-1.9-.4-1.9-4.2.1-2.9 1.5-3.2 1.5-5.7-.5-1.4-1.1-4.5-3.3-6.8-4.8-3.5-2.4-4-3.2-3.6-5.5.6-3.1-2.3-5.2-5.9-4.3-2.4.6-7.8-3.4-7.8-5.6 0-.6-.6-.9-1.3-.6-1 .4-1.1-1.2-.6-7.2.4-4.2 1-8.3 1.3-9.1.4-1-.9-2.5-3.5-4.5-5.7-4.2-10.9-10.1-10.9-12.5 0-3.7 3.6-4.3 30-5.3l25.5-1 7.5 3.7c6.2 3 8.4 4.8 12.4 10 2.7 3.5 6.7 9.6 8.8 13.6s6.3 9.9 9.3 13.1c5.1 5.6 11.2 16.5 14.9 26.9.9 2.5 3.9 6.9 6.6 9.8 10.9 11.6 17.8 23.5 19.5 34 .6 3.8 1.3 4.7 6.5 8.2 8.6 5.8 16.2 14.8 21.4 25.3l4.5 9.2V121.2L512 0H169.8z"/><path d="M440.9 206.6c-1.1 1.4-.6 3 3.8 11.8 2.9 5.7 6.5 14.9 8.2 21.2 1.7 6.1 5.4 17.8 8.1 25.9 4.2 12.4 5 15.8 5 22.1 0 7.9-1.3 10-4.6 7.3-1.4-1.1-1.5-1-1.2.7.1 1.2-.3 2.8-1.1 3.8-1.2 1.4-.7 2.9 3.8 11.8 2.8 5.6 9.8 17.2 15.5 25.7 16 24.2 21.2 32.5 25.2 40.1 2.9 5.7 4 7 6 7h2.4V254.1l-3.2-2.2c-1.8-1.3-3.6-2.8-4-3.4-.5-.6-.8-.6-.8.3s-.8.7-2.7-.5l-2.8-1.8 2.6 3.5c1.4 1.9 2.8 4 3.2 4.6.8 1.4-2.2 1.1-5.2-.5-1.4-.8-2.1-.9-1.7-.2 1 1.5-.7 1.4-2.3-.2-1.1-1-1.3-1-.7 0 1.5 2.7-1.2 1.1-6.5-3.7-17.3-15.7-16.8-15.4-18.6-13.9-1.1.9-1.4 1-.9.1.4-.7.2-1.2-.4-1.2s-.8-.5-.5-1c.3-.6.2-1-.4-1s-1.8-1.4-2.6-3c-.9-1.7-4.6-6.1-8.4-9.8-3.7-3.7-8.3-8.6-10.3-11-3.2-3.8-3.7-4.1-4.9-2.6m-17.1 12.9c-.3.3-.1 2.5.4 4.8s1.2 6 1.5 8.2c.3 2.6 2.2 6.3 5.2 10.5 2.6 3.6 5.8 8.2 7 10.2 1.3 2.1 2.4 3.8 2.6 3.8s-2.1-6-5.1-13.2c-3-7.3-5.4-13.9-5.4-14.7 0-1.3-4.7-10.1-5.4-10.1-.1 0-.5.2-.8.5"/></svg>