<svg xmlns="http://www.w3.org/2000/svg" width="682.667" height="512" version="1.0" viewBox="0 0 512 384"><path d="M170.4 3.7c1.7 10.3 1.8 26.2.1 37.3-1.7 12.1-2.1 13.5-6.7 27-4.5 13.1-6.6 17.5-12.6 27-6.7 10.5-8.4 12.9-11.8 16.4-1.9 1.9-3.4 3.9-3.4 4.4s-1.2 1.7-2.6 2.7c-4.2 2.7-6.4 4.9-6.4 6.2 0 .7-.4 1.3-1 1.3-.5 0-2 1.1-3.4 2.5s-3 2.5-3.6 2.5c-.5 0-1 .4-1 1 0 .5-.5 1-1 1-1.1 0-1.8.5-6.4 4.5-1.6 1.4-3.5 2.5-4.2 2.5s-1.4.3-1.6.7c-.1.5-3.3 2.4-7 4.3-3.8 1.9-6.8 3.8-6.8 4.2 0 .5-1.1.8-2.5.8-1.3 0-5.3 1.3-8.7 2.8-10.2 4.6-27.3 7.3-47.8 7.4-17 .2-21.4-.4-30.7-3.9C.3 155.9 0 179 0 269.9V384h180.5c171.2 0 180.5-.1 180.6-1.8 0-.9.4-11.4.9-23.2.8-21.3.9-21.7 5.3-37.7 4.6-16.4 7.3-30.6 10.2-53.3.9-6.9 1.8-13.4 2.1-14.5s-1.3 1.1-3.6 4.9c-2.2 3.8-4.6 9.2-5.2 12s-1.7 6.3-2.4 7.8c-1.7 3.3-1.8 4.6-.2 3 2.9-2.9 3.9.7 1.2 4.6-1.2 1.8-2.5 2.2-6.4 2.2-7.4 0-9.5-1.2-10.9-6.2-1.1-3.8-1-4.9 1-9.3 1.2-2.8 2.9-5.9 3.9-7 1.9-2.2 7.6-13.1 16.4-31.7 5.9-12.3 7.4-19.8 4-19.8-.8 0-1.3-.4-1-.9s-.1-1.2-1-1.5c-1.4-.5-1.4-.9-.3-2.3 1.2-1.4 1.2-1.7 0-2.1-2.5-.8-6-4.9-6.7-7.7-1-4 1.4-10.8 6.2-17.7 2.4-3.4 4.4-6.8 4.4-7.4 0-.7.5-3.6 1.1-6.4.9-4.4 1.8-5.7 6-9 4.7-3.7 4.8-4 2.9-5l-2.1-1.1 2.2-1.8c2.9-2.4 1.7-4.8-1.4-2.6-3 2.1-5.6 1.9-8.3-.8-4.2-4-6.4-5.7-7.3-5.7-1.7 0-2.2-1.9-1.1-3.9.8-1.7.6-2.2-1.1-3.2-1.2-.6-3.4-.9-4.9-.6-2.1.5-3.3 0-5.4-2.2-1.4-1.5-2.6-3.2-2.6-3.9s-.7-1.2-1.6-1.2c-1.3 0-1.4-.9-.8-5.7.4-3.1 1-6.8 1.4-8.2.5-2.2-.4-3.5-6.7-9.6-7.8-7.5-9.2-10.8-5-12.4 1.2-.5 13.2-1.4 26.7-2.1 24.1-1.2 24.6-1.1 29.9 1 10.7 4.2 16.8 10.5 24.1 25 2.1 4.1 5 8.6 6.5 10 6.1 5.5 13.9 20.1 16.5 31.1.7 2.7 2.8 6.6 5.2 9.5 11.1 13.4 18.8 28 18.8 35.6 0 2.4.9 3.9 4.1 6.7 8.6 7.4 15.9 14.4 15.9 15.3 0 .4 1.6 3.1 3.5 5.8s3.5 5.3 3.5 5.6c0 .4 1.5 3.9 3.4 7.8 3.5 7.4 4.5 14.6 2 14.2-.7-.1-2.4-1.1-3.6-2.2-4-3.5-6.2-5-5.4-3.7.9 1.6-.6 1.7-2.2.1-1.9-1.9-1.4.2.8 2.9 1.1 1.4 2 2.9 2 3.3 0 .9-3.2.6-4.8-.4-.7-.4-2.4-.9-3.7-1-1.7-.2-2.2.1-1.8 1.3.3.9-2.1-.9-5.3-4s-7.7-7.1-9.9-9-5.2-4.7-6.7-6.3c-1.7-1.6-2.6-2.1-2.2-1.1 1.3 3.2-3.4-.6-4.8-3.9-.7-1.7-2.8-4.6-4.8-6.6s-6.3-6.8-9.5-10.6-6.2-7-6.6-7.2c-1.1-.4 4.9 12.8 6.6 14.8.7.8 3.3 8 5.8 16 2.4 8 6.5 20.3 9.1 27.3 4 11.2 4.6 13.8 4.6 20.8 0 8.5-1.2 10.6-4.7 7.8-1.5-1.2-1.6-1.2-.9.6.5 1.3.1 2.4-1.3 3.5-2 1.5-2 1.5.2 6.5 3.6 8.3 11.9 23.1 21.7 39 12.3 19.9 13.3 21.6 18.2 31.2l4.2 8.3H512V0H169.8z"/><path d="M420 221.3c0 1 .7 3.4 1.5 5.4.8 1.9 1.5 5 1.5 6.7 0 2.2 1.5 5.2 4.8 9.8 2.6 3.7 5.2 7.5 5.9 8.5s-.8-3-3.2-9c-2.4-5.9-4.9-12.4-5.5-14.5-1.2-4.6-4.9-9.7-5-6.9"/></svg>