<svg xmlns="http://www.w3.org/2000/svg" width="682.667" height="512" version="1.0" viewBox="0 0 512 384"><path d="M170.4 3.7c1.7 10.3 1.8 26.2.1 37.3-1.7 12.1-2.1 13.5-6.7 27-4.5 13.1-6.6 17.5-12.6 27-6.7 10.5-8.4 12.9-11.8 16.4-1.9 1.9-3.4 3.9-3.4 4.4s-1.2 1.7-2.6 2.7c-4.2 2.7-6.4 4.9-6.4 6.2 0 .7-.4 1.3-1 1.3-.5 0-2 1.1-3.4 2.5s-3 2.5-3.6 2.5c-.5 0-1 .4-1 1 0 .5-.5 1-1 1-1.1 0-1.8.5-6.4 4.5-1.6 1.4-3.5 2.5-4.2 2.5s-1.4.3-1.6.7c-.1.5-3.3 2.4-7 4.3-3.8 1.9-6.8 3.8-6.8 4.2 0 .5-1.1.8-2.5.8-1.3 0-5.3 1.3-8.7 2.8-10.2 4.6-27.3 7.3-47.8 7.4-17 .2-21.4-.4-30.7-3.9C.3 155.9 0 179 0 269.9V384h353.8l.6-4.8c.3-2.6 1-11.9 1.5-20.7 1-16.4 1.4-18.4 8.1-40.9 2.1-7.2 4.6-16.5 5.4-20.6 2.1-9.8 6.7-40.2 6.2-40.7-.8-.8-5.6 8.7-6.6 13.2-.6 2.6-1.7 6-2.5 7.6-1.8 3.4-1.9 4.7-.3 3.1 1.9-1.9 2.8-1.4 2.8 1.2 0 3.3-3.5 5.6-8.5 5.6-6.2 0-8.9-1.9-9.9-6.8s.5-9.3 6.2-17.7c1.9-2.8 6.6-11.5 10.5-19.5 3.8-8 7.8-15.7 8.8-17.2 2.8-3.9 2.5-9.7-.6-12.7-1.7-1.6-2.4-3-2-4.2.4-1.1.2-1.9-.2-1.9-.5 0-2.4-1.4-4.1-3.1-2.7-2.7-3.2-3.8-3.2-8.1 0-5.3 1.5-9 6.5-15.5 2.3-3 3.6-6.3 4.5-10.8 1.1-6 1.7-7 6.1-10.7 4.3-3.8 4.6-4.3 3.1-5.5-1.6-1.2-1.6-1.4.1-2.7 1.6-1.2 2.4-3.6 1.2-3.6-.4 0-2 .7-3.7 1.6-3 1.5-3.1 1.5-8.9-3-3.2-2.5-6.4-4.6-6.9-4.6-1.4 0-1.3-2.3.2-3.8 2-2-1-4.3-5.3-4-2.9.1-4.5-.4-6.4-2.2-1.4-1.3-2.5-3-2.5-3.8 0-1.2-.3-1.2-1.6-.2-1.3 1.2-1.4.8-.9-4.1.4-3 1.1-7.2 1.7-9.3l1-3.9-6.1-5.5c-3.4-3-6.9-6.8-7.7-8.4-2.9-5.6-1.6-6 25.8-7.4 20.8-1.2 25-1.1 29.3.1 6.7 1.9 13.4 6.3 17.7 11.6 3.5 4.3 10.8 17.5 10.8 19.5 0 .6 1.8 2.8 4.1 4.9 2.2 2.2 5.5 6.7 7.4 10 3.5 6.3 8.5 21 8.5 24.9 0 1.3 1.5 4.3 3.4 6.7 10.1 13.4 17.6 29.3 17.6 37.7 0 2.4.8 4.1 2.8 6 1.6 1.5 5.4 5.1 8.4 8 5.9 5.5 11.9 14.8 15.9 24.2 1.2 3 3.1 6.7 4.1 8.1 1.5 2.3 1.6 2.8.3 3.9-1 .8-1.1 1.8-.5 3.5.8 2.1.6 2.3-1.3 1.9-1.2-.2-2.7-.9-3.2-1.6-.6-.7-2.1-2.2-3.3-3.2-2.3-2-2.3-2-1.6 0 .7 1.6.5 1.7-.8.7-2.5-2.1-2.9-.2-.6 3.1 1.2 1.7 1.5 2.5.8 1.8-1.8-1.5-3.4-1.6-2.4 0 .4.6-.3.4-1.6-.5-1.8-1.2-2.8-1.4-4.3-.5-1.8.9-2.9.2-8.7-5.8-7.8-8.1-16-15.4-16-14.2 0 2.2-4-2.1-5.8-6.1-2.2-5-6.9-11.1-8.5-11.1-.6 0-.6.5 0 1.2.9 1.3 2.7 6.9 8.2 24.8 1.6 5.2 4.6 14.1 6.6 19.8 2.9 8.4 3.6 11.8 3.7 18.2 0 8.8-.5 10.4-3.4 9.7-1.1-.3-1.7-.3-1.4 0 .3.4-.3 1.6-1.4 2.8l-1.9 2.1 4.3 9.6c4 8.8 6.6 13.9 14.2 27.3 10.9 19.4 18.4 33.2 21.3 39.3l3.5 7.2H512V0H169.8z"/><path d="M417.6 223.5c.4 1.6 1.1 3.8 1.5 4.7.5.9.9 3 .9 4.7 0 1.9 1.5 5.1 4 8.7 2.2 3.2 4 5.4 4 5.1 0-.4-1.6-4.5-3.5-9.1-1.9-4.7-3.5-9.4-3.5-10.4 0-1.1-.9-3-2-4.3l-2-2.4z"/></svg>