<svg xmlns="http://www.w3.org/2000/svg" width="682.667" height="512" version="1.0" viewBox="0 0 512 384"><path d="M170.4 3.7c1.7 10.3 1.8 26.2.1 37.3-1.7 12.1-2.1 13.5-6.7 27-4.5 13.1-6.6 17.5-12.6 27-6.7 10.5-8.4 12.9-11.8 16.4-1.9 1.9-3.4 3.9-3.4 4.4s-1.2 1.7-2.6 2.7c-4.2 2.7-6.4 4.9-6.4 6.2 0 .7-.4 1.3-1 1.3-.5 0-2 1.1-3.4 2.5s-3 2.5-3.6 2.5c-.5 0-1 .4-1 1 0 .5-.5 1-1 1-1.1 0-1.8.5-6.4 4.5-1.6 1.4-3.5 2.5-4.2 2.5s-1.4.3-1.6.7c-.1.5-3.3 2.4-7 4.3-3.8 1.9-6.8 3.8-6.8 4.2 0 .5-1.1.8-2.5.8-1.3 0-5.3 1.3-8.7 2.8-10.2 4.6-27.3 7.3-47.8 7.4-17 .2-21.4-.4-30.7-3.9C.3 155.9 0 179 0 269.9V384h347.6l1.7-9.3c.9-5.1 1.7-11.3 1.7-13.8 0-10.2 2.3-22 7.6-38.3 5-15.5 10.4-36.1 10.4-40 0-1.1-.7-.8-2.5.9-1.8 1.9-3.5 2.5-6.7 2.5-5.5 0-8.4-2-9.9-6.9-1-3.4-.8-4.3 1.6-9.2 1.5-3 4-7.2 5.5-9.4s6.6-11.7 11.4-21.1c7.9-15.6 8.7-17.6 8-21-.3-2.2-1.5-4.9-2.6-6.1s-1.7-2.6-1.4-3.1c.3-.6-1-2-2.9-3.2-8.2-5-8.5-12.8-1-24 3.1-4.6 5.2-9.2 6-12.9 1.4-6.3 2.4-9.1 3.4-9.1.3-.1 2.2-1.4 4.1-3 3.2-2.8 3.3-3.1 1.6-4.3-1.8-1.3-1.8-1.4.4-3 3.4-2.4 1.6-3.9-2.5-2-3.6 1.7-4.2 1.4-11.7-5.1-.9-.8-2.6-1.9-3.7-2.6-1.8-.9-1.9-1.4-.9-3 1.7-2.6 0-4.2-4.5-4.5-4.3-.3-8.7-3.2-8.7-5.7 0-1.8-.2-1.9-1.6-.7-1.8 1.4-1.8 1.5.2-13.7.5-3.9.4-4.2-4.8-8.6-6.6-5.6-9.8-10.9-7.9-13.1 1.6-2.1 5.4-2.5 27.1-3.4 24.4-.9 25.6-.8 32.2 2.1 9.8 4.3 15.8 11 21.4 23.6 1.5 3.6 4.7 8.7 7.1 11.3 2.3 2.7 5.6 7.6 7.2 11 3.2 6.6 7.1 20.2 7.1 24.9 0 1.5 1.5 5.1 3.4 8 9.9 15.7 12.5 22.5 15.1 40 .4 2.7 1.6 4.5 5.1 7.3 7.6 6.3 16.3 20.3 20.5 33 .7 2.2 1.9 4.9 2.6 6 1.7 2.6 1.6 4.5-.2 4.5s-1.8.5-.4 3.2c2 3.7.1 3-5.1-1.8-2.8-2.6-4.8-4-4.4-3.1.5 1.3.2 1.6-1 1.1s-1.5-.1-1.3 1.2c.1 1.1.7 2.5 1.1 3.3.7 1.1.6 1.2-.5.5-.8-.5-2.3-.9-3.4-.9-1.1-.1-3.1-.7-4.5-1.5-2.3-1.2-2.4-1.2-1.1.4.8.9 1.1 1.9.8 2.2s-2.2-1.6-4.3-4.2c-2.2-2.7-7.4-8.3-11.6-12.6-11.8-11.9-12.1-9-2.3 20.1 2.9 8.8 3.5 11.9 3.5 19.3 0 8.5-.1 8.8-2.5 9.4-6.3 1.6-4.5 6.3 21.7 57.4 6.9 13.5 13 26 13.6 27.7l1.1 3.3H512V0H169.8zm274 237.9c.3.8.2 1.2-.4.9s-1-1-1-1.6c0-1.4.7-1.1 1.4.7"/><path d="M415 223.1c0 .8.7 2.4 1.5 3.5 1.8 2.4 1.9.7 0-2.6q-1.35-2.4-1.5-.9m2.1 8.9c0 2 .8 4.6 1.9 6 1.8 2.3 2 2.3 1.9.5 0-1.1-.9-3.8-1.9-6l-1.9-4zm-46.3 29.2c-.9 1.3-2 4.7-2.7 7.6-.6 2.9-1.8 6.6-2.6 8.2-.9 1.7-1.1 3-.6 3s1.2-.6 1.4-1.3c.4-.9.8-.8 1.6.3.5.8 1.2 1.2 1.3 1 .6-.8 3.8-20.4 3.4-20.7-.2-.2-1 .7-1.8 1.9"/></svg>