<svg xmlns="http://www.w3.org/2000/svg" width="682.667" height="512" version="1.0" viewBox="0 0 512 384"><path d="M170.4 3.7c1.7 10.3 1.8 26.2.1 37.3-1.7 12.1-2.1 13.5-6.7 27-4.5 13.1-6.6 17.5-12.6 27-6.7 10.5-8.4 12.9-11.8 16.4-1.9 1.9-3.4 3.9-3.4 4.4s-1.2 1.7-2.6 2.7c-4.2 2.7-6.4 4.9-6.4 6.2 0 .7-.4 1.3-1 1.3-.5 0-2 1.1-3.4 2.5s-3 2.5-3.6 2.5c-.5 0-1 .4-1 1 0 .5-.5 1-1 1-1.1 0-1.8.5-6.4 4.5-1.6 1.4-3.5 2.5-4.2 2.5s-1.4.3-1.6.7c-.1.5-3.3 2.4-7 4.3-3.8 1.9-6.8 3.8-6.8 4.2 0 .5-1.1.8-2.5.8-1.3 0-5.3 1.3-8.7 2.8-10.2 4.6-27.3 7.3-47.8 7.4-17 .2-21.4-.4-30.7-3.9C.3 155.9 0 179 0 269.9V384h339v-3.4c0-1.9.9-6.3 2-9.9s2.5-10.3 3.1-14.9c1.3-10.7 3.8-20.7 8.7-33.8 4.7-12.8 7.7-22.6 9.5-31.2l1.4-6.5-3.1.2c-8.9.7-13.7-6.4-10-14.7 1-2.4 3.4-6.6 5.2-9.3 1.9-2.8 6.6-11.5 10.4-19.4l7.1-14.3-1.3-8.2c-.6-4.4-1.2-8.7-1.3-9.5 0-.7-2.1-2.6-4.6-4.1-4.7-2.9-8.1-7.4-8.1-10.7 0-2.6 4.6-12 7.9-16.2 1.9-2.3 3.3-5.7 4-9.4 1.3-7.3 2.2-8.8 7.2-12.8 3.9-3.1 4-3.3 2.3-4.6-1.8-1.3-1.8-1.5.5-3.2 2.7-2.1 1.3-3.8-1.8-2.1-3.3 1.7-5.1 1.2-10-2.8-2.5-2.1-5.4-4.2-6.4-4.5-1.5-.6-1.6-1-.7-2.8.6-1.1.9-2.6.7-3.3-.7-1.7-5.3-2.6-6.6-1.3-1.1 1.1-7.1-4-7.1-6.2 0-.7-.6-1.1-1.5-.8-1.1.5-1.3 0-1-2.1.2-1.5.7-5.6 1-9.2l.5-6.5-6.5-6.5c-6.8-6.8-8.4-10.9-4.7-12.6.9-.5 13.2-1 27.3-1.2l25.5-.3 5.9 2.7c3.2 1.5 7.5 4.6 9.7 6.8 3.7 3.8 11.8 18.3 11.8 21.1 0 .6.9 2 2.1 3.1 1.1 1 3.4 3.8 5 6.2 6.8 10 8.3 15.1 9.9 31.8.6 6.8 1.5 10.5 3.7 15 6.5 13 10 27.8 8.7 37.2-.5 4.5-.3 5 4.4 11.2 8.6 11.2 10.2 15.1 15.3 36.4 1.7 7.1 1.8 9 .8 9.7-.7.4-1.6.6-2 .3-.4-.2-.4.9.1 2.6 1.2 4.2-.1 3.7-4.9-1.8-2.3-2.6-3.8-3.8-3.5-2.7.5 1.9.5 1.9-.9.2-1.8-2.2-3-.2-1.5 2.5 1.2 2.5-.3 2.3-3.8-.4-2.5-2.1-2.7-2.1-2.1-.3.8 1.8.7 1.8-1.4-.1-1.1-1-2.4-1.7-2.7-1.6-.3.2-2.1-2-4-5-3-4.7-3.3-4.9-2.9-2.3.2 1.6 1.6 7.5 3.1 13 2.2 8.2 2.6 11.2 2 16.5-.3 3.6-.6 7.6-.6 9-.1 3.6 6.1 18.6 16.7 41 10 20.9 14.3 31.1 16.9 40.2l1.7 5.8H512V0H169.8z"/></svg>