<svg xmlns="http://www.w3.org/2000/svg" width="682.667" height="512" version="1.0" viewBox="0 0 512 384"><path d="M170.4 3.7c1.7 10.3 1.8 26.2.1 37.3-1.7 12.1-2.1 13.5-6.7 27-4.5 13.1-6.6 17.5-12.6 27-6.7 10.5-8.4 12.9-11.8 16.4-1.9 1.9-3.4 3.9-3.4 4.4s-1.2 1.7-2.6 2.7c-4.2 2.7-6.4 4.9-6.4 6.2 0 .7-.4 1.3-1 1.3-.5 0-2 1.1-3.4 2.5s-3 2.5-3.6 2.5c-.5 0-1 .4-1 1 0 .5-.5 1-1 1-1.1 0-1.8.5-6.4 4.5-1.6 1.4-3.5 2.5-4.2 2.5s-1.4.3-1.6.7c-.1.5-3.3 2.4-7 4.3-3.8 1.9-6.8 3.8-6.8 4.2 0 .5-1.1.8-2.5.8-1.3 0-5.3 1.3-8.7 2.8-10.2 4.6-27.3 7.3-47.8 7.4-17 .2-21.4-.4-30.7-3.9C.3 155.9 0 179 0 269.9V384h336v-3.9c0-2.1 1.1-7.2 2.4-11.3 1.4-4.1 3-11.2 3.6-15.9.7-5.5 3.7-16 8.5-30.4 10.6-31.5 12.6-40.6 8.5-38-.5.3-2.5-.1-4.4-.9-2.7-1.1-3.7-2.3-4.7-5.5-1-3.5-1-4.7.6-8.3 1.1-2.4 3.1-6.1 4.6-8.3 3.1-4.7 9.5-17.3 13.4-26.7 2.7-6.5 2.7-6.8 1.6-16.1-1.4-11.7-1.5-12.2-5.2-13.7-4.8-2-7.9-6.5-7.9-11.3 0-4.9 3.1-12.1 6.6-15.8 1.5-1.6 3.2-5.4 4.3-9.5 2.3-8.8 3.4-10.9 7.1-13.1 3.3-1.9 3.7-3.2 1.8-5.2-1.1-1-1-1.4.5-2.2 1.6-.9 2.6-4.5 1-3.7-.5.2-2 1-3.5 1.7-2.5 1.3-3 1.1-6-1.3-4-3.2-6.7-5.2-9.3-7-1.9-1.4-1.9-1.5-.2-3.4 1.8-2 1.8-2.1-.3-3.2-1.1-.6-3.1-1-4.3-.8-2.7.3-8.7-3.7-8.7-5.9 0-.9-.6-1.3-1.5-.9-1.3.5-1.5-.2-.9-4.7.3-2.8 1-6.8 1.5-8.7.8-3.3.6-3.6-6.1-10.6-7-7.2-8.3-10.1-5.6-12.3.9-.8 9.8-1.4 26.8-1.8l25.4-.6 5.5 2.5c10.1 4.6 16.1 11.5 21.4 24.3 1.6 3.8 4.6 9 6.8 11.5s5 6.8 6.3 9.6c2.9 6.6 5.5 19.9 5.3 27.8-.1 3.8.5 7.6 1.6 10.1 5.8 13.5 7.5 20.7 7.5 31.4-.1 5.8-.1 11.8-.1 13.3 0 1.6 1.7 5.4 3.8 8.5 6.9 10.4 9.1 17.2 11.3 35.3 1.4 12 1.4 12.9-.8 12.3-1.6-.4-1.8 0-1.4 2.6.6 4.4-1.4 3.9-3.8-.9-1.9-3.8-5.5-6.8-6.8-5.6-.3.3-.1 2.2.5 4.1l1.1 3.5-2.6-1.9c-1.5-1-3.1-1.9-3.5-1.9-.5 0-1.2-.4-1.5-.8-.4-.4-.1-.4.6 0 1.4.8 1.7-1 .2-1.9-.5-.3-1-.1-1 .5s-.5.8-1.2.4c-.6-.4-.8-.3-.5.4.4.5 1.1 6.1 1.6 12.4 1.3 14.7 4 22.3 20.1 56.8 7.8 16.5 16 38.7 16 43 0 1.9.8 2 20 2h20V0H169.8z"/></svg>