<svg xmlns="http://www.w3.org/2000/svg" width="682.667" height="512" version="1.0" viewBox="0 0 512 384"><path d="M170.4 3.7c1.7 10.3 1.8 26.2.1 37.3-1.7 12.1-2.1 13.5-6.7 27-4.5 13.1-6.6 17.5-12.6 27-6.7 10.5-8.4 12.9-11.8 16.4-1.9 1.9-3.4 3.9-3.4 4.4s-1.2 1.7-2.6 2.7c-4.2 2.7-6.4 4.9-6.4 6.2 0 .7-.4 1.3-1 1.3-.5 0-2 1.1-3.4 2.5s-3 2.5-3.6 2.5c-.5 0-1 .4-1 1 0 .5-.5 1-1 1-1.1 0-1.8.5-6.4 4.5-1.6 1.4-3.5 2.5-4.2 2.5s-1.4.3-1.6.7c-.1.5-3.3 2.4-7 4.3-3.8 1.9-6.8 3.8-6.8 4.2 0 .5-1.1.8-2.5.8-1.3 0-5.3 1.3-8.7 2.8-10.2 4.6-27.3 7.3-47.8 7.4-17 .2-21.4-.4-30.7-3.9C.3 155.9 0 179 0 269.9V384h334v-5.4c0-3.1.8-7.2 1.9-9.7 1.1-2.4 3.1-10.3 4.5-17.6 1.5-7.8 4.7-19.1 7.9-28 5.2-14.3 10.7-33.1 10.7-36.7 0-1-1.1-1.9-3-2.3-3.4-.6-6-4.5-6-8.7 0-3 2.4-8.4 6.1-14.1 2.7-4.3 8.7-17.8 11.8-26.8 1.8-5.2 1.8-5.9.2-16.7-1.5-10-1.9-11.5-4.1-12.8-4.5-2.8-7.2-5.7-8.6-8.9-1.2-2.9-1.2-3.8.7-8.8 1.1-3.1 3.6-7.6 5.5-10.1 2.1-2.7 3.9-6.6 4.5-9.7 1.5-7 3.1-9.9 7.4-13.1 3.5-2.7 3.6-2.9 1.9-4.7-1.7-1.9-1.7-2 .4-3.5 3-2.1 1.7-4-1.4-2-3.5 2.4-5.5 1.9-9.4-2-1.9-2-4.5-4-5.7-4.5-2.4-.9-2.9-2.5-1.4-4.8.7-1 .4-1.9-.7-2.8-2.2-1.6-6.2-1.7-6.2-.1-.1 1.9-7-6.1-7-8.1 0-1.4-.2-1.4-1-.1-1.3 2.1-1.3-6.1.1-11.9l1-4.4-7.1-7.2c-3.8-4-7-8-7-8.9 0-.8 1.1-2.3 2.4-3.1 1.9-1.3 6.7-1.6 27.7-1.8l25.4-.2 5.7 2.8c3.1 1.5 7.3 4.4 9.3 6.5 3.3 3.3 12.5 20.2 12.5 22.8 0 .6 1 1.9 2.1 3 2.6 2.3 6.7 8.5 9.2 13.9 2.4 5.3 4.9 20.7 4.3 26.9-.3 3.6.2 6.6 1.8 11 1.3 3.4 3.3 10.1 4.6 14.9 2.2 8.3 2.3 9.5 1.2 19.5-1.3 12.6-1.1 15.2 1.7 18.8 1.2 1.5 3.3 6.3 4.7 10.8 2.1 6.6 2.7 10.6 3 21.6.2 7.4.6 14 .9 14.7.2.7 0 1.5-.6 1.8-.5.4-.7 1.1-.4 1.6s-.1.6-.9.3c-1.1-.4-1.9.5-2.9 2.8l-1.3 3.3-1.9-5c-1-2.8-1.9-5.1-1.9-5.1-.1-.1-1.2-.5-2.5-.9-2.2-.7-2.3-.5-1.9 2.8.2 2 0 3.3-.4 3.1-1.4-.9-.9 2.1 2.1 12.2 3.7 12.5 7.8 22.6 18.7 46.2 9.8 21.3 13.4 30.7 16 41.6l1.8 7.6H512V0H169.8z"/></svg>