<svg xmlns="http://www.w3.org/2000/svg" width="682.667" height="512" version="1.0" viewBox="0 0 512 384"><path d="M170.4 3.7c1.7 10.3 1.8 26.2.1 37.3-1.7 12.1-2.1 13.5-6.7 27-4.5 13.1-6.6 17.5-12.6 27-6.7 10.5-8.4 12.9-11.8 16.4-1.9 1.9-3.4 3.9-3.4 4.4s-1.2 1.7-2.6 2.7c-4.2 2.7-6.4 4.9-6.4 6.2 0 .7-.4 1.3-1 1.3-.5 0-2 1.1-3.4 2.5s-3 2.5-3.6 2.5c-.5 0-1 .4-1 1 0 .5-.5 1-1 1-1.1 0-1.8.5-6.4 4.5-1.6 1.4-3.5 2.5-4.2 2.5s-1.4.3-1.6.7c-.1.5-3.3 2.4-7 4.3-3.8 1.9-6.8 3.8-6.8 4.2 0 .5-1.1.8-2.5.8-1.3 0-5.3 1.3-8.7 2.8-10.2 4.6-27.3 7.3-47.8 7.4-17 .2-21.4-.4-30.7-3.9C.3 155.9 0 179 0 269.9V384h166.2c129.3 0 165.9-.3 165-1.2-1.8-1.8-1.5-5.1 1.3-12.4 1.4-3.6 3.6-12.3 5.1-19.2 1.4-7 5.2-20.6 8.4-30.2 6.1-18.5 10.3-35.3 9-36.7-.4-.4-1.3-2.5-2-4.5-1.1-3.5-.9-4.3 2.8-12 2.2-4.6 4.3-10.6 4.7-13.3.4-2.8 1.8-9.3 3.2-14.5 2.1-8.1 2.3-10.2 1.4-14.5-.5-2.8-1.3-8-1.7-11.6-.7-7.7-.6-7.6-6-11.2-8.9-6-8.9-13 0-25.6 3.3-4.6 4.6-7.6 5.1-11.4.6-4.3 1.5-5.9 5.1-9.6 4.8-4.7 5.4-6.5 2.7-7.6-1.6-.6-1.5-.8.7-2.5 2.8-2.1 2.2-3.7-.8-2.1-3.1 1.7-5.2 1.3-7.8-1.2-4.9-4.7-6.1-5.7-7.2-5.7-1.8 0-2.4-1.8-1.2-4.1 1.5-2.8.2-4.1-4.4-4.4-3.9-.3-8.6-3.5-8.6-6 0-1.1-.5-1.5-1.5-1.1-2 .7-2-4-.1-11.4l1.4-5.5-6.4-6.2c-6.4-6.3-8.6-10.5-6.5-12.6 1.4-1.4 26.3-2.8 42.1-2.4 10.6.3 12 .6 17.7 3.5 9.5 4.9 14.6 11.2 20.4 25.1 1.7 4.2 3.9 8.3 4.8 9.1 2.9 2.6 6.6 8.3 9 14 1.9 4.5 2.4 7.8 2.8 18.5.4 10 1 14.6 2.8 20 3.7 11.1 4.8 18.3 4.1 26-2.5 27.1-2.5 26.6-.9 30.9.8 2.2 1.7 8.1 2 13.1.4 7.6.1 10.5-2.1 18.9-1.4 5.4-2.6 11.9-2.6 14.3 0 7.9 8.9 30.5 24.8 63.3 7.9 16.2 11.6 26.3 13.4 36.9l1.2 7.1H512V0H169.8z"/></svg>