<svg xmlns="http://www.w3.org/2000/svg" width="682.667" height="512" version="1.0" viewBox="0 0 512 384"><path d="M170.4 3.7c1.7 10.3 1.8 26.2.1 37.3-1.7 12.1-2.1 13.5-6.7 27-4.5 13.1-6.6 17.5-12.6 27-6.7 10.5-8.4 12.9-11.8 16.4-1.9 1.9-3.4 3.9-3.4 4.4s-1.2 1.7-2.6 2.7c-4.2 2.7-6.4 4.9-6.4 6.2 0 .7-.4 1.3-1 1.3-.5 0-2 1.1-3.4 2.5s-3 2.5-3.6 2.5c-.5 0-1 .4-1 1 0 .5-.5 1-1 1-1.1 0-1.8.5-6.4 4.5-1.6 1.4-3.5 2.5-4.2 2.5s-1.4.3-1.6.7c-.1.5-3.3 2.4-7 4.3-3.8 1.9-6.8 3.8-6.8 4.2 0 .5-1.1.8-2.5.8-1.3 0-5.3 1.3-8.7 2.8-10.2 4.6-27.3 7.3-47.8 7.4-17 .2-21.4-.4-30.7-3.9C.3 155.9 0 179 0 269.9V384h330v-4.3c0-2.4.9-7 2-10.2 1.1-3.1 3.1-11.5 4.5-18.6s4.8-19.9 7.5-28.5c6-18.5 8.9-30.2 10-40.4 1.2-11.5 4.8-31.3 7.6-42.5 2.1-8.1 2.4-10.6 1.5-13.5-.6-1.9-1.3-6.9-1.6-11-.4-4.2-.9-8-1.3-8.6s-2.4-2-4.5-3.3c-2-1.2-4.4-3.2-5.2-4.4-3.2-4.6-1-14.4 4.9-21.4 2.5-3 4.6-8 6.1-14.6.3-1.6 2.4-4.8 4.7-7.3 3.9-4.2 4-4.5 2.4-6.3-1.7-1.8-1.7-2 .3-3.1 1.2-.6 2.1-1.8 2.1-2.6 0-1.3-.2-1.3-2.2 0-3.4 2.4-5 2-9.9-2.4-2.4-2.2-4.6-4-4.9-4s-1.1-.4-1.8-.9c-1.2-.7-1.2-1.2 0-3 1.1-2 1.1-2.4-.7-3.7-1.1-.8-3.2-1.4-4.6-1.2-3 .3-7.3-2.8-8.4-6.1-.6-1.8-.9-2.1-1.6-1-1 1.5-.1-9.9 1.1-14.1.6-2.1-.3-3.5-6.1-9.6-4-4.2-6.9-8.1-6.9-9.3 0-4.1 3-4.6 29.6-4.6h25l6.9 3.5c8.4 4.3 13.9 10.8 19.1 22.9 2 4.6 5.4 10.7 7.6 13.4 2.2 2.8 5 7.2 6.3 9.7 2.8 5.5 4.9 18.9 4.3 26.6-.4 4.2.1 7.2 1.7 11.7 1.3 3.4 3.1 9.7 4.1 13.9 1.6 6.9 1.6 8.8.5 16.5-2.3 15.8-3 26.8-2.1 30.9 1.9 8 1.2 19.8-1.6 27.1-1.4 3.7-2.8 7.8-3.1 9-1.1 4.8 10.7 35.3 24 61.9 11.5 22.8 14.9 31.1 17.9 43.8l2.3 9.6H512V0H169.8z"/></svg>