<svg xmlns="http://www.w3.org/2000/svg" width="682.667" height="512" version="1.0" viewBox="0 0 512 384"><path d="M319.7 5.2c1.7 5.8 3.6 9.9 6.4 14 1.1 1.4 1.9 3 1.9 3.6 0 .5-3.5 1.5-7.7 2.2-23.6 3.8-46.9 17.6-59.9 35.5-1.6 2.2-3.5 4.6-4.2 5.4-1.9 2-5.7 9.9-7.7 16.1-2.6 8-7.9 18.1-11.4 21.9l-3.1 3.3 2.7-.7c1.6-.3 4-1.8 5.5-3.2l2.6-2.5-.9 3.8c-1.5 5.8-2.1 22.1-.9 22.9.5.3.7 0 .4-.8s.1-1.4 1-1.4c1 0 1.9 1.8 2.6 5.4 1.4 6.6 2.9 6.9 2.4.5l-.3-4.7.9 4.1c1.1 5.2 5 11.9 5.1 8.9 0-1.5.4-1.2 1.5 1.2 1.5 3.4 3.8 4.6 2.8 1.5-.5-1.4-.3-1.4 1 .2.9 1.1 1.6 2.8 1.6 3.7 0 1 .5 2.1 1.2 2.5.7.5.8.3.3-.7-.5-.8.1-.5 1.3.5 2.2 1.9 2.2 1.9 2.2 0 0-1.1-.4-3.5-1-5.3-.5-1.9-.8-3.7-.5-3.9.5-.5.7.1 3 8 1.7 6.5 3.3 7.7 2.7 2.2-.3-2.6-.1-3.5.7-3 3.1 1.9-.1 11.7-5.6 17-2.3 2.2-4.3 4.8-4.3 5.7 0 1.7 2.8 4.5 7.2 7.2 1.9 1.2 2.9 2.8 3.3 5.4 1.2 6.6 1.5 7.2 5.5 8.4 5.4 1.6 7.4 4.1 7.2 8.8-.2 2.6.3 4.3 1.4 5.2 1 .8 3.7 4.4 6.1 8.2 4.4 6.8 5.2 10.3 3.4 15.1-.9 2.2-.7 2.5 2 3.1 3 .7 3.5 1.9 1.9 4.5-.6.9-.5 1.7.1 2.1.6.3 1.6 5.3 2.4 11s1.9 12.8 2.4 15.8c.6 2.9 1.1 5.9 1.1 6.6 0 1.2-8.9 10.5-10.1 10.5-.3 0-1-1-1.6-2.3-.6-1.2-3-4.5-5.5-7.2-2.4-2.8-5.5-7.7-6.8-11-1.3-3.2-4.6-8.8-7.2-12.2l-4.8-6.4 1.2-5.2c1.4-6.9.4-21.6-2.1-29.7-1.1-3.6-3.4-8.2-5.2-10.3-5-6.1-7.9-7.1-20.4-7.2-6 0-12.3.2-14 .5-2.9.5-3 .3-3.6-3.7-.6-4.8-1.2-5.8-2.9-4.8-.8.5-1 2.3-.6 5.6.6 4.5.5 5-1.6 5.9-1.3.5-5.7 2.3-9.8 4-4.9 1.9-9.3 4.6-12.6 7.8-5 4.5-5.2 5-7.4 14.7l-2.3 10 3.7 14.4 3.7 14.5 7.4 9.1c7.2 8.9 9.1 10.4 17.7 13.5l2.8.9-1.9 3.3c-3.4 5.9-7.1 18-10.5 34.3-1.8 8.8-4.3 18.6-5.4 21.7-3 7.9-3.7 17.6-2.2 31.2l1.2 11.6H265l3-6.7c3.4-7.5 15.6-26.3 17.1-26.3.5 0 .6 1.7.2 4.2-.5 2.4-.8 9.7-.8 16.3v12l7.3.3c7 .3 7.3.2 6.7-1.8-.3-1.1-.2-2 .3-2s1.2.9 1.5 2c.5 2 1.3 2 81.4 2l80.8-.1 8-2.7c8-2.7 18.5-8.1 18.5-9.5 0-.4-1.3-.7-3-.7-3.3 0-3.8-1.1-1.5-3 .9-.7 3-3.1 4.7-5.3l3.2-4-7.3.7c-6.6.7-8.2 1.3-18.9 7.8-6.4 3.9-13.1 7.7-14.8 8.4-3 1.3-3.1 1.2-4.7-2.1-.9-1.9-1.4-4.1-1.1-5 .7-1.7-2.2-14.6-4.1-18.5-.7-1.4-1-3-.8-3.6s-1.2-7.4-3.2-15c-2-7.7-4.2-16.3-4.9-19.1-.7-2.9-1.8-5.9-2.5-6.7-.6-.7-.9-2-.5-2.9.3-.8-.1-2.8-.9-4.4-1.2-2.3-2.3-11.9-1.8-15.7.3-2.6 3 2.2 4.1 7.4 1.2 5.8 3 9 3 5.4 0-1.3.4-1.1 2 .7 1.4 1.7 2 2 2 .9 0-.8 2.3 3.6 5.1 9.9 2.7 6.3 5.7 12.3 6.5 13.5 1.3 1.9 1.4 1.9 1.4-1.6 0-2-1.1-12.3-2.5-22.9-1.4-10.7-2.5-19.9-2.5-20.4 0-.6 1.8 2.3 4 6.4 3.8 7.3 7.2 11.9 5.5 7.6-1.3-3.4-4.5-17.4-6.4-28.5-1.4-7.6-1.7-12.6-1.2-18l.7-7.5.8 5c2.1 12.2 15 41.4 22.3 50.3l2.3 2.7-2-5.7c-3.3-10.1-6.8-24.1-7.4-30.3l-.7-6 2.4 4.5c3.2 6 11.9 19.3 15.3 23.3l2.7 3.2-.7-2.9c-3.9-15.6-5-27.7-7.6-78.6-1.2-24.8-1.7-31.1-3.6-46-3.6-27.5-9.1-50.1-17.9-73.5-2.9-7.7-6-17.2-6.9-21-3.3-13.9-14.3-31.7-23.4-37.7-6.2-4.2-13.1-6-20.7-5.6l-6.7.3-5.7-8.7-5.6-8.8h-67.4z"/></svg>