<svg xmlns="http://www.w3.org/2000/svg" width="682.667" height="512" version="1.0" viewBox="0 0 512 384"><path d="M170.7 6.2c.4 3.5.7 12.8.6 20.8-.1 15.3-2.6 29.4-7.2 40.5-1.1 2.7-3 7.7-4.3 11-2.3 5.9-4.9 10.6-12.1 21.7-2 3.1-3.7 5.9-3.7 6.2 0 .2-1.9 2.4-4.2 4.8-2.4 2.4-6.2 6.5-8.6 9.1-2.3 2.6-4.5 4.7-4.8 4.7-.4 0-1.7 1-3.1 2.2-1.4 1.3-3.2 3-4.2 3.8-3.6 3.3-14.9 10.8-19.3 12.8-2.5 1.2-4.9 2.6-5.3 3.1-.3.6-2.9 1.7-5.7 2.6-2.8.8-8.5 2.8-12.7 4.4s-9.8 3.4-12.6 4c-6.6 1.4-30.3 3-38.5 2.5-7.6-.5-21.6-2.3-23.6-3.1C.2 156.9 0 173.4 0 270.4V384h320.8l1.6-13.7c.9-7.6 2.1-17.5 2.7-22 .5-4.6 2.5-13.4 4.4-19.5 5.6-18.7 8.2-29.6 10.9-46.4 3.7-22.3 6.4-37 8-43.2 1.3-4.6 1.3-7.1 0-18.5-.9-8.4-1.9-13.3-2.7-13.6-.7-.2-2.9-2.1-5.1-4.3-3.7-3.6-3.8-4-3.4-9.2s2.3-9.2 8.3-17.4c1.3-1.8 2.9-5.8 3.6-8.8.8-3.6 2.4-6.8 4.7-9.5 3.2-3.7 3.4-4.4 2.5-7-1-2.5-.9-3.1.8-3.9 1-.6 1.9-1.5 1.9-2.1 0-.5-1.3-.3-3 .6-1.6.8-3.1 1.5-3.3 1.5s-2.4-2-4.9-4.4-5.6-4.9-6.8-5.6c-2-1.1-2-1.3-.6-2.9.9-1 1.6-2.3 1.6-2.9 0-1.1-3.4-2.4-7.1-2.6-2.2-.1-5.9-3.9-5.9-6 0-2-1.7-2.9-2.3-1.4-1.3 3.1-.6-5.2.9-11l1.6-6.4-3.3-3.6c-1.9-2-3.6-3.9-3.9-4.2-5.5-5.3-6.4-10.5-2.2-12.1 2.8-1.1 19.3-.7 40.6 1.1 10.1.9 11.4 1.2 17.6 4.9 9.1 5.4 13.6 11.8 19.6 27.7 1.2 3.4 3.7 7.7 5.4 9.5 6.1 6.5 10.2 17.5 12.1 31.9.5 4 1.9 8.6 3.8 12 6.4 11.9 9.1 20.5 9.1 29.1 0 4.4.5 11.1 1.1 14.8.8 4.5.8 8.2.2 11.2-.7 3-.6 5.4 0 7 .6 1.3 1 7.1 1 12.9 0 9.3-.3 11.2-2.8 16.5-2.5 5.4-2.8 5.7-3.4 3.6-.6-2.2-1-1.8-3.4 3.6-1.5 3.3-2.7 6.6-2.7 7.3s-1.2 2.8-2.6 4.7l-2.5 3.3 3.1 8.5c4.6 12.6 10.2 24.2 19.4 40.5 12.6 22.2 17 30.7 21.1 40.7l3.8 9.3H512V0H169.9z"/><path d="M378.1 149.7c.6.7 1.5 1.3 2 1.3s.6-.6.3-1.3c-.3-.8-1.1-1.4-1.9-1.4-1.1 0-1.2.4-.4 1.4m13.7 51.9c0 .5-.2 1.3-.3 1.9-.2.5-.3 2.3-.4 3.8-.1 2-.7 3.1-2.2 3.4-1.9.5-2 1.1-1.4 5.6.4 2.8.8 8.1.9 11.8.1 6.4.4 7 5.3 13.9 4.1 5.6 5.4 6.9 5.9 5.6 1.5-3.9-.5-24.1-3.4-34.9-2.7-10-4-13.3-4.4-11.1m34.2 21c0 1 .5 2.6 1 3.4.8 1.1.9.7.4-1.5-.8-3.7-1.4-4.5-1.4-1.9"/></svg>