<svg xmlns="http://www.w3.org/2000/svg" width="682.667" height="512" version="1.0" viewBox="0 0 512 384"><path d="M170.4 3.7c.4 2.1.9 8.6 1.3 14.4.8 14.8-2.6 37.2-7.6 49.4-1.1 2.7-3 7.7-4.3 11-2.3 5.9-4.9 10.6-12.1 21.7-2 3.1-3.7 5.9-3.7 6.2 0 .8-5 5.6-5.9 5.6-.4 0-1.2.9-1.7 1.9-1 2.1-9.1 11.1-10 11.1-.4 0-1.7 1-3.1 2.2-1.4 1.3-3.2 3-4.2 3.8-3.6 3.3-14.9 10.8-19.3 12.8-2.5 1.2-4.9 2.6-5.3 3.1-.3.6-2.9 1.7-5.7 2.6-2.8.8-8.5 2.8-12.7 4.4s-10.1 3.4-13.1 4c-6.8 1.5-29.3 2.9-38 2.4-7.4-.4-21.5-2.2-23.6-3C.2 156.9 0 173.4 0 270.4V384h312.5l1.8-18.3c1.4-15.1 2.6-22 7.2-40.1 3.8-15.1 6.6-29.4 9-46.4 2-13.4 4.5-28.6 5.6-33.6 1.8-7.7 2-11 1.4-21.6-.8-15.8-1-16.5-5.1-19.1-3.6-2.2-6.4-6.5-6.4-9.8 0-3 4.3-12.1 7.8-16.4 1.7-2 3.9-6.8 5.1-10.5 1.1-3.7 3.2-8.2 4.6-10.1 2.7-3.7 3.2-7 1.3-8.9-.8-.8-.5-1.4 1.5-2.3 2.9-1.3 3.8-3.6 1-2.4-4.7 2-5.8 1.6-9.8-3.2-2.1-2.6-4.8-5.4-5.8-6.2-1.7-1.2-1.7-1.4-.1-3.2 2.3-2.6 1.2-4.5-3.1-5.3-4.5-.9-7.5-3.8-7.5-7.2 0-2.2-.2-2.5-1.5-1.4-2.3 1.9-1.9-2.7.9-10.6l2.5-6.7-3.9-5.1c-8.5-11.2-8.4-15.6.2-15.6 7 0 20.5 1.8 30.8 4 4.7 1 10.1 2.1 12.1 2.3 4.3.6 13.6 6.4 17.3 10.8 3.9 4.6 8 13.2 11 22.9 1.5 4.9 3.8 10 5.4 12 1.6 1.9 3.7 5.1 4.7 7 1.8 3.5 6.5 20.9 6.5 24.3 0 1 1.7 4.9 3.9 8.5 6.5 11.3 10.1 20.5 11.2 29.2.5 4.4.9 8.6.8 9.3-.7 3.6 1.8 14 4.6 19.7 3.6 7.1 6.7 20.7 5.9 25.5-1.1 6.3-1.5 7.6-2.3 7-1-.6-2.2 5-2.6 12.4-.3 6-1.4 8.1-2.8 5.6-.9-1.6-1.2-1.3-2.7 2.5-2.3 5.9-4 6.3-4 .9 0-2.4-.5-6.9-1.2-10.1l-1.2-5.7-1.3 3.7c-.7 2-1.3 4.8-1.3 6.1v2.4l-2-2.3c-1.1-1.3-2-1.9-2-1.5 0 .5-.9-.1-2-1.3-1.5-1.6-2-3.5-2-7.5 0-3-.3-6.9-.7-8.8-.5-2.7-.8-2.9-1.3-1.4-.4 1.2-.9-.8-1.3-5-.9-9-3.8-19-8.3-28.5-3.6-7.5-6.1-14.6-10.5-29.3-1.2-4.2-2.7-7.7-3.2-7.7s-.6 2.8-.2 6.9c.6 6.4.5 6.9-1.7 8.7-1.5 1.2-2.5 3.1-2.6 5.4-.2 1.9-.7 3.9-1.2 4.4-1.5 1.5-1.2 8.3.6 12.4.9 2 1.6 5 1.5 6.5-.1 1.9 1.8 5.5 6.3 12 8 11.6 10.7 16.9 15.2 30.4 6.9 20.4 11.6 31.8 18.6 45.3 3.8 7.4 7.8 14.6 8.8 16 4.2 6 15.5 28 19.6 37.8l4.3 10.7 31.1.3 31 .2V0H169.7z"/><path d="M369 149.8c0 .5.7 1.5 1.5 2.2s1.5.8 1.5.2c0-.5-.7-1.5-1.5-2.2s-1.5-.8-1.5-.2m41.1 123.8c0 1.1.3 1.4.6.6.3-.7.2-1.6-.1-1.9-.3-.4-.6.2-.5 1.3"/></svg>