<svg xmlns="http://www.w3.org/2000/svg" width="682.667" height="512" version="1.0" viewBox="0 0 512 384"><path d="M170.4 3.7c3.4 19.1.5 46-6.9 65.7-3.6 9.6-10.5 23.1-15.4 30-2.2 3.3-4.1 6.3-4.1 6.7 0 1.1-4.9 5.9-5.9 5.9-.4 0-1.2.9-1.7 1.9-1 2.1-9.1 11.1-10 11.1-.6 0-2.2 1.3-7.5 6.2-1 1-3.8 2.9-6.1 4.4-2.4 1.5-4.5 3-4.8 3.3-.6.8-4.5 3-9.2 5.3-2 1-3.9 2.2-4.3 2.8-.3.5-2.9 1.6-5.7 2.5-2.8.8-8.5 2.8-12.7 4.4-13.2 5-21.9 6.2-44.6 6.2-12.3.1-24.3-1.1-29.8-2.7-1.6-.5-1.7 5.3-1.7 113V384h297.7l1.2-14.8c1.4-17.9 3.7-30.5 9-48.2 4.6-15.1 7.7-29 11.6-52 1.5-8.5 3.7-20 4.9-25.5 2.1-9.2 2.2-11.1 1.3-23l-1-13-4.8-4.5c-4.1-3.8-4.9-5.2-4.9-8.1 0-4.3 2.8-10.5 7.5-16.5 1.9-2.6 4.4-7.6 5.5-11.2s3.1-8 4.4-9.6c2.9-3.9 4-7.2 2.6-8.1-1.7-1-1.1-3.3 1-4 1.1-.3 2-1.3 2-2.1 0-1.1-.4-1.2-1.9-.4-3.8 2-5.7 1.1-9.1-4.3-1.9-2.8-4-5.6-4.7-6-1.7-1.1-1.6-3.2.2-4.7.8-.7 1.5-1.6 1.5-2 0-1-5-3.1-5.9-2.6-1.2.8-5.1-5-5.1-7.5 0-1.4-.5-1.9-1.5-1.6-2.1.9-1-4.4 2.5-11.7l2.8-6-3.9-7.1c-4.7-8.6-5.1-13.2-1.4-14.1 3.1-.8 28.5 4.9 33.6 7.5 1.9 1.1 6.1 2.4 9.2 3.1 6 1.2 12.7 5.7 17.9 11.8 3.4 4.1 6.5 12.3 8.9 23.9 1.2 5.8 3.4 12 5.9 17 3.3 6.4 4.3 9.8 5.6 18.6 1.3 9.2 2.3 12.2 6.4 20.5 6.7 13.4 8.7 20.1 9.4 31.2.8 12.4 1.7 15.7 5.4 20.9 1.7 2.3 4.5 8.4 6.1 13.4 2.7 8 3.1 10.5 2.9 18.7-.1 5.2.2 11.5.7 13.9.7 3.9.6 4.4-.8 3.8-1-.4-1.8-.1-1.9.6 0 .7-.2 1.6-.3 2.2-.2.5-.3 1.6-.4 2.2-.2 2.6-1.8 1.2-3.2-2.9-.7-2.3-2.6-5.5-4.1-7.2-3-3.3-3.3-3-3 3.9.1 1.6-.1 2.4-.4 1.7-.3-.6-1-1-1.5-.6-.5.3-.9 0-.9-.5 0-.6-.6-1.1-1.4-1.1s-1.7-.8-2-1.7c-.6-1.3-.9-1.4-1.5-.5-.5.9-1.8-1.5-3.6-6.5-1.5-4.3-3-8-3.4-8.3s-2-3.8-3.5-7.8c-1.6-3.9-3.1-7.2-3.4-7.2-.2 0-.2.7.2 1.5.3.8.2 1.5-.3 1.5-.4 0-1.1-2.5-1.4-5.4-.3-3.6-1.8-7.7-4-11.8-1.9-3.5-5.4-11.7-7.8-18.3-2.3-6.6-4.5-12.3-4.8-12.7s-1.7.2-3 1.3c-1.8 1.5-2.1 2.2-1.2 3.3 1.3 1.5.5 4.5-1.6 6.1-1 .8-1.1 1.8-.2 4.5.5 1.9 1.1 6.9 1.1 11 .1 7.5.1 7.5 6.3 16.5 8.5 12.2 9.5 14.4 15.8 34.6 8.9 28.3 12.5 36.7 28.7 66.9 4.2 8 10.1 20 13.1 26.8l5.3 12.2H512V0H169.7z"/></svg>