<svg xmlns="http://www.w3.org/2000/svg" width="682.667" height="512" version="1.0" viewBox="0 0 512 384"><path d="M170.4 3.7c3.4 19.1.5 46-6.9 65.7-3.6 9.6-10.5 23.1-15.4 30-2.2 3.3-4.1 6.3-4.1 6.7 0 1.1-4.9 5.9-6 5.9-.5 0-1.2.9-1.5 2-.4 1.1-2.4 3.4-4.6 5.2-2.1 1.7-3.9 3.7-3.9 4.5 0 .7-.5 1.3-1.1 1.3-1 0-2.3 1-8 6.2-1 1-3.8 2.9-6.1 4.4-2.4 1.5-4.5 3-4.8 3.3-.5.6-2.3 1.7-10 5.9-2.5 1.3-5.6 3.1-7 3.8-1.4.8-3 1.4-3.7 1.4-.6 0-4.7 1.4-9 3.2-4.3 1.7-9.6 3.5-11.8 4-17.5 3.8-52.5 3.9-64.8.2-1.6-.5-1.7 5.3-1.7 113V384h291.6l1.7-17.2c1.9-19.1 3.6-26.5 10.2-45 5.4-15.6 8-25.6 13.9-54.8 2.6-12.4 5.2-25.1 6-28.3 1-4.4 1.1-8.7.5-18.5-.8-11.6-1.1-12.8-3.1-14.2-10.3-6.8-10.4-13.9-.5-28.3 2.4-3.6 4.9-8.5 5.6-11 .6-2.5 2.7-6.6 4.7-9.2 3.4-4.5 3.6-5.6 2-9.6-.5-1.1.1-1.9 2-2.8 3.4-1.5 2.3-2.6-2.4-2.2-3.4.2-4-.2-6.5-3.9-1.5-2.3-2.7-4.5-2.7-4.9 0-.3-.9-1.5-2.1-2.5l-2.1-1.8 2.1-1.9c2.9-2.7 2.7-3.4-1.9-4.9-4.4-1.5-7-4.6-7-8.6 0-2.1-.3-2.4-1.4-1.5-2.3 1.9-.3-6 3.1-12l2.9-5.2-3.3-5.5c-4.9-8.3-5.6-14.4-1.6-15.9 2.1-.8 26.3 5.2 32.8 8.3 2.8 1.2 7.7 3 10.9 3.9 5 1.4 7 2.7 12.1 7.8 7.1 7.2 9.5 12.8 11.9 27.8.9 6.4 2.5 11.7 4.4 15.5 3.3 6.7 4.8 13.1 5.8 25.4.5 5.5 1.5 10.3 3.1 14 7.3 16.3 8.5 20.9 8.9 33.8.4 14.2.5 14.8 5 21.7 1.8 2.9 4.5 8.9 5.9 13.3 2.2 6.9 2.6 9.6 2.3 17.4-.1 5.1.1 11.3.6 13.7.9 4.2.8 4.3-1.3 3.6-1.9-.6-2.1-.4-1.5 1.8.3 1.4.1 3.4-.4 4.4-.9 1.6-1.3 1.2-3-2.7-1.1-2.5-2.2-5.3-2.6-6.3-.3-1-1-1.6-1.5-1.2-.5.3-1.3 0-1.7-.6-1.2-2-2.2 1.2-1.4 4.2.5 1.6.6 2.9.2 2.9-1.2-.1-5.8-2.9-4.8-3 .6 0 .1-.6-.9-1.4-1.1-.8-2.3-1.2-2.7-1-.3.2-1.4-1.7-2.4-4.3-5.3-14.5-11.2-26.8-11.4-23.8-.1 1.1-.8-1.4-1.5-5.6s-2-8.7-2.8-10c-.9-1.3-3.2-6.9-5.2-12.4-4.7-12.8-5.9-14.2-4.8-5 .4 3.8.7 10.3.6 14.4-.2 7-.1 7.6 3.6 13 6.7 9.9 10 17.7 15.5 36.9 7.9 27.4 10 32.6 25.1 64.2 5.7 11.8 11.8 25.4 13.6 30.2l3.4 8.8H512V0H169.7z"/></svg>