<svg xmlns="http://www.w3.org/2000/svg" width="682.667" height="512" version="1.0" viewBox="0 0 512 384"><path d="M170.4 3.7c3.4 19.1.5 46-6.9 65.7-3.6 9.6-10.5 23.1-15.4 30-2.2 3.3-4.1 6.3-4.1 6.7 0 1.1-4.9 5.9-6 5.9-.6 0-1 .5-1 1.1 0 2-17.7 18.5-24.5 22.7-2.2 1.4-4.2 2.8-4.5 3.1-.5.6-3.6 2.4-6.7 3.9-1 .5-3.1 1.7-4.8 2.6-7 3.9-25 10.7-33 12.4-15.6 3.3-50.2 3.1-61.8-.4-1.6-.5-1.7 5.3-1.7 113V384h144.5c114.9 0 144.5-.3 144.5-1.3 0-4.1 3.3-28.4 4.6-34.7.9-4.1 4.3-14.9 7.6-23.9 6.7-18.8 10.3-31.9 14.8-54.6 1.8-8.8 4.2-20.5 5.5-26 2.1-9 2.2-11.3 1.5-22.7l-.8-12.8-5.1-4.6c-4.6-4.1-5.1-5-5.1-8.7 0-5.1 2.6-11.1 6.9-15.9 1.8-2.1 4-6.4 5.2-10.4 1.2-3.8 3.6-8.7 5.3-10.9 4.6-5.7 4.9-6.4 3.6-8-1.5-1.8-.6-4.5 1.5-4.5.8 0 1.5-.6 1.5-1.4 0-1.1-1-1.3-3.9-.9-3.7.5-4 .3-7-4-1.7-2.5-3.1-4.9-3.1-5.2 0-.4-1-1.5-2.2-2.5l-2.2-1.7 2.2-1.2c1.2-.6 2.2-1.8 2.2-2.5 0-1.4-4.7-3.9-5.9-3.2-.7.5-4.4-5-4.7-6.9 0-.6-.2-1.6-.2-2.3-.1-.7-.6-1.1-1-.8-.4.2-.9-.5-.9-1.6-.2-2.2 5-13.2 6.6-14.2.5-.4-.6-3.2-2.5-6.3-3.4-5.7-4.9-10.5-4.2-14 .5-2.5 5.5-2.8 12.6-.8 3.1 1 9.1 2.6 13.2 3.7 4.1 1 8.7 2.7 10.1 3.7s5 2.4 8 3c5.6 1.2 13.3 6.4 17.8 12.2 3.4 4.4 6 12.5 7.6 23.2 1 7.2 2.3 12.1 4.5 16.5 3.3 6.8 4.9 15.8 5 27.5 0 5.2.7 8.4 2.8 13.5 6.1 14.2 7.4 20.7 7.6 35.4.1 10.7.5 14.1 1.7 15.5 6.5 7.7 12.7 29.1 9.9 34.4-.9 1.6-.9 4 .1 10 1.2 7.6.8 10.9-1.1 7.9-.7-1.1-1-.5-1 2.1 0 6.1-2.6 5.8-4.6-.6-1.2-3.6-2.1-5.2-3.1-4.8-.7.3-1.3-.2-1.3-1.1 0-1.9-1.9-2.2-2.1-.4-.1.7 0 2.4.1 3.8.2 2.1 0 2.2-1.4 1.1-.8-.7-2-1-2.5-.7-.6.4-1.5-.3-2.2-1.5-.8-1.5-1.3-1.8-1.9-1-.4.7-1.4-1.2-2.5-4.6-1.7-5.7-5-14.1-8.3-21.5-.9-2.1-2.2-3.8-2.9-3.8-.8 0-1.2-1.7-1.1-4.8.1-2.9-.6-6.2-1.9-8.7l-2.1-3.9-1.4 4.9-1.4 5 4.7 7.3c4.6 7 8.7 17.6 12.5 32.2 5 19.6 10.5 34.4 21.4 58 8.2 17.9 15.2 34.6 17.1 40.7l1.2 4.3H512V0H169.7z"/></svg>