<svg xmlns="http://www.w3.org/2000/svg" width="682.667" height="512" version="1.0" viewBox="0 0 512 384"><path d="M170.4 3.7c2.5 14.1 1.6 33.1-2.5 51.8-2.5 11.5-12.4 33.4-19.8 43.9-2.2 3.3-4.1 6.3-4.1 6.7 0 1.1-4.9 5.9-6 5.9-.6 0-1 .5-1 1.1 0 2-17.7 18.5-24.5 22.7-2.2 1.4-4.2 2.8-4.5 3.1-.5.6-3.6 2.4-6.7 3.9-1 .5-3.1 1.7-4.8 2.6-7 3.9-25 10.7-33 12.4-15.6 3.3-50.2 3.1-61.8-.4-1.6-.5-1.7 5.3-1.7 113V384l143.2-.2 143.2-.3 2.2-14.5c3-20.3 3.5-22.5 10.8-42.7 8.5-23.5 10.7-31.5 16-57.3 2.5-11.8 5.1-24.3 5.9-27.6 1.1-4.5 1.3-9.8 1-19.5l-.6-13.4-5.3-5c-4.7-4.4-5.4-5.6-5.4-8.9 0-4.3 3.9-12.8 7.6-16.7 1.4-1.5 3.4-5.5 4.5-8.9 2.2-7 4.7-11.6 7.8-14.2 2.2-1.9 2.8-5.3 1.1-6.3-1.7-1.1-1.1-2.5 1.5-3.5 3.9-1.5 2.9-2.8-1.7-2.3l-4.3.5-4.6-7c-4.6-6.9-4.6-7.1-2.8-8.8 2.7-2.4 2.4-3.2-2-4.5-4-1.2-7.1-5-7.1-8.8 0-2.3-1.5-2.8-2.3-.9-.3.7-.3-.3 0-2.2s2-6.2 3.8-9.6l3.3-6.1-3.9-7.8c-2.1-4.2-3.9-8.5-3.9-9.4 0-4 4.8-5.2 12-3.1 1.9.6 7.8 2.2 13 3.6s10.7 3.4 12.1 4.4c1.5 1 4.4 2.2 6.5 2.5 9.6 1.7 19.9 11.4 23.3 21.8 1.1 3.4 2.5 10.1 3.1 14.9.7 5.8 2 10.8 4 15.1 3.7 7.8 5.1 15.4 4.9 26.7-.1 7.4.4 10.2 4 21.7 3.9 12.2 4.2 14 4.1 23.5-.2 18.4-.2 18.4 3.5 25.2 6.4 11.5 9 24.9 6.3 32.2-.9 2.5-.9 4.5 0 8.3.7 3.2.8 5.9.2 7.3-.5 1.3-.9 1.8-1 1.3-.1-.6-.6.5-1.3 2.4-1.9 5.4-3.2 4.7-5.2-2.5-1-3.6-2-6.2-2.4-5.7-.3.4-1.3.8-2.1.8-1.1 0-1.4.9-1.2 3.2.3 2.6 0 3.2-1.2 2.7-.9-.3-1.6-1-1.6-1.5s-.7-.9-1.6-.9c-.8 0-1.3-.3-1.1-.8.3-.4-.1-1.3-.9-2-2.1-2-1.8 1.4 1.1 11.8 4 14.2 9.9 30 17.3 46 6.4 13.8 12.5 28.9 15.4 37.7l3 9.3H512V0H169.7z"/></svg>