<svg xmlns="http://www.w3.org/2000/svg" width="682.667" height="512" version="1.0" viewBox="0 0 512 384"><path d="M317.5 3.2c1 4.4 4.9 13.2 7.6 16.9 1.2 1.7 1.9 3.2 1.7 3.4s-3.5.9-7.3 1.5c-20.4 3.3-45.3 17-56.2 31-2.3 3-5.4 6.9-6.8 8.7-3.3 4-8 13.6-9.5 19.4-1.8 6.5-7.8 17.9-11.2 21.1-1.7 1.5-2.5 2.8-1.8 2.8 1.6 0 5.1-1.9 7.7-4.2l2.1-2-.9 3.9c-1.1 4.5-2 24.5-1.1 22.3 1.2-2.6 4.2-2.4 4.2.2 0 1.3.7 4.5 1.4 7.3l1.4 5-.4-7.5c-.3-5.2-.1-6.7.5-5 .5 1.4.9 4 1 5.7.1 1.8.5 3.3 1 3.3s1.2 1.1 1.5 2.5c.4 1.4 1.1 2.3 1.6 2 .6-.4.8-1.1.5-1.6-.4-.5-.3-.9 0-.9s1.1 1.3 1.6 3c1.2 3.3 2.9 4 3 1.2 0-.9.9.1 2 2.3 1 2.2 1.9 3.5 1.9 3 0-.6 1 .1 2.1 1.5l2.1 2.5-.7-3.5c-1.6-8.6-1.4-9.9.6-3.3 2.3 7.9 3.5 9.1 4.2 4 .3-2.9.4-2.9.5.8.2 5.4-2.7 11.4-7.1 14.8-4.5 3.4-4.6 4.9-.7 7.9 8.2 6.3 8.3 6.4 8.3 9.9 0 3.7 3 7.9 5.7 7.9 1 0 2.9.9 4.3 2 2.1 1.7 2.4 2.6 2 5.9-.5 3.3-.2 4.1 1.6 5 1.1.7 3 2.9 4 5 1.1 2.1 3.2 5.3 4.7 7 2.7 3.2 2.9 6.6.9 13-.6 1.7-.5 2.2.3 1.7.7-.4 1.2-.2 1.2.4 0 .7.8.9 2 .5 2.2-.7 2.6.5.8 2.3-1 1-1 1.7 0 3.3.7 1.1 1.7 5.9 2.3 10.7.5 4.8 1.6 11.8 2.4 15.7.8 3.8 1.5 7.1 1.5 7.3 0 1-9.5 10.2-10.5 10.2-.6 0-1.6-1-2.2-2.3-.6-1.2-3-4.5-5.5-7.2-2.4-2.8-5.2-7-6.3-9.5-2.8-6.4-7.3-14.1-10-17-2.2-2.3-2.3-2.9-1.3-7 1.3-5.7.4-22.9-1.6-29.5-2.3-7.7-7-14-12.1-16.5-4-1.9-5.9-2.1-17.5-1.9-7.1.2-13.2.1-13.5-.3-.3-.3-.6-2.2-.7-4.2-.1-2.8-.5-3.6-1.7-3.4-1.2.3-1.6 1.6-1.6 5.6v5.3l-8.8 3.4c-5.3 2-10.2 4.5-12.1 6.4-1.8 1.7-3.7 3.1-4.4 3.1-2.4 0-5.3 8.5-7.8 22.5-.3 1.9.9 8.3 3.4 17.1 3.8 13.7 4.1 14.4 10.1 21.7 7.4 9.1 9.9 11.2 16.2 13.4l4.7 1.7-2.4 4.7c-3.8 7.7-7.1 18.5-9.4 31.4-1.1 6.6-3.5 16.4-5.2 21.7-3 9.6-3.1 10.1-2.5 24 .4 7.9.9 15.5 1.3 17l.6 2.8h58.7l5.3-10.3c5.4-10.2 14.5-23.6 16.2-23.7.4 0 .5.8.1 1.7-.4 1-1 8.7-1.3 17l-.4 15.3h7.1c7.1 0 7.1 0 7.2-2.8l.1-2.7 1.1 2.8 1.1 2.7h162.1l7.7-2.5c7.5-2.4 18.2-7.7 19.4-9.6.3-.5-1.1-.9-3.1-.9h-3.7l3.4-4.1c7.1-8.8 7.2-8.3-.5-7.7-6.3.5-7.8 1.2-18.9 7.9-6.7 4.1-13.6 7.9-15.3 8.6-3.1 1.1-3.3 1-4.8-2.3-.9-1.8-1.4-4-1.1-4.9.7-1.6-2.2-14.5-4.1-18.5-.6-1.4-1-3.3-.8-4.2.4-1.5-.7-6.1-6.3-26.3-.7-2.8-1.8-6.9-2.4-9.2s-1.5-4.5-2.1-4.8c-.5-.4-.7-1.5-.4-2.5s-.1-3.6-1-5.7c-2.3-5.4-3-14.3-1.1-14.3.8 0 1.7.8 1.9 1.7.3 1 1 4 1.7 6.6.9 3.4 1.7 4.6 2.7 4.3.7-.3 1.6.1 2 1 .5 1.3.7 1.3 1.4.2.6-.9 1.5.4 3.1 4.2 1.2 3 4.2 9.3 6.5 14l4.3 8.5-.6-7c-.3-3.9-1.4-13.8-2.5-22-2.7-21-2.6-21.4 2-12.7 4.4 8.2 5.7 10 4.7 6.2-5-19.6-6.8-29.6-7.2-40.5-.3-8-.1-11.5.5-10.5.6.8 1.3 3.3 1.6 5.5 1.1 6.9 8.5 25.4 14.7 36.4 5.7 10.2 10.1 16.3 8.4 11.6-2.4-6.6-7.5-25.8-8.1-30.5-.3-3-.9-6.4-1.1-7.5-.3-1.1.8.4 2.5 3.3 5.1 9.1 16.5 25.6 16.8 24.5.2-.6-.5-5.7-1.7-11.4-2.3-11.3-3.2-22.1-5.5-65.9-1.6-30.8-1.9-34-4.1-50.5-3.5-25.9-9.5-50.1-17.9-71.5-2.9-7.4-6-16.7-6.9-20.5-2.6-11.3-9.8-24.5-17.5-32.4-8.3-8.5-14.3-11.1-26-11.1h-7.8l-5.7-8.5L384 0h-67.2z"/></svg>