<svg xmlns="http://www.w3.org/2000/svg" width="682.667" height="512" version="1.0" viewBox="0 0 512 384"><path d="M170.4 3.7c1.5 9 1.8 23.7.7 32.5-1.8 13.3-3.9 23.7-5.8 28.3-.9 2.2-2.4 5.8-3.3 8-4.4 10.7-5.6 13.3-7.7 16.7-1.3 2.1-2.3 4.1-2.3 4.5s-.8 1.6-1.9 2.7c-1 1.2-2.9 4.1-4.2 6.5-2.6 4.7-6.4 9.1-7.9 9.1-.6 0-1 .5-1 1.1 0 1.3-13.7 14.9-15 14.9-.5 0-1.7 1.1-2.7 2.3-1 1.3-3.9 3.6-6.3 5.2-2.5 1.5-4.7 3.1-5 3.4-.5.6-3.6 2.4-6.7 3.9-1 .5-3.1 1.7-4.8 2.6-7 3.9-25 10.7-33 12.4-15.6 3.3-50.2 3.1-61.8-.4-1.6-.5-1.7 5.3-1.7 113V384h141.5c134.1 0 141.5-.1 141.5-1.8-.1-5.8 7.2-33.2 12.6-47.4 7.2-18.9 10.1-27.7 12.9-38.4 1.4-5.3 2.4-9.8 2.3-9.8-4.5-2.2-5.9-3.4-7.3-6.5-1.5-3.5-1.5-3.9.6-8.6 1.2-2.8 5.4-12.9 9.3-22.7 6.9-16.8 7.2-18 7.5-26.6.3-12-.5-15.9-3.4-16.6-1.2-.3-3.7-2.2-5.4-4.1-5-5.8-4-12.4 3.6-22.7 2.1-3 4.4-7.8 5.4-11.7 1.6-5.5 2.6-7.2 6.4-10.6 4.4-3.9 5.6-6.7 3.5-8-1.7-1.1-1.1-2.5 1.6-3.5 3.7-1.4 2.1-2.9-2.6-2.3-3.3.5-4.1.2-4.7-1.3-.7-1.9-4-6.5-7-9.6-1.5-1.7-1.5-2 .7-4.3 2.7-2.8 2.7-2.7-2-4.5-5-1.9-5.9-2.8-7.1-7.2-.9-3.5-1.2-3.8-2.6-2.6-1.4 1.1-1.5 1.1-.6-.7.6-1.1.9-2.5.7-3-.2-.6 1.1-3.9 2.9-7.5l3.2-6.5-3.8-6.5c-2.9-5.1-3.7-7.4-3.5-10.5.3-3.7.6-4 3.4-4.3 3.7-.4 26.3 5.1 31.9 7.8 2.2 1 6.6 2.5 9.8 3.4 14.7 3.7 23 15.8 25.3 36.6.4 3.7 1.8 8.6 3.2 11.5 5.2 10.3 6.1 15.3 5 27.2-1.4 14.2-1.4 14.7.6 22.8 2.6 11.1 3.1 22.8 1.3 32.5-2.8 14.9-2.9 17.1-.8 22.5 2.9 7.6 3.6 19.9 1.7 27.4-.9 3.5-1.6 7.9-1.6 9.8 0 2-.5 5.2-1.1 7.3-1 3.3-.7 5 3.6 17.5 2.6 7.6 8.4 22.4 13 33 9.2 21.1 13.9 34.4 15.7 44.1l1.3 6.4H512V0H169.7z"/></svg>