<svg xmlns="http://www.w3.org/2000/svg" width="682.667" height="512" version="1.0" viewBox="0 0 512 384"><path d="M170.4 3.7c.4 2.1.9 8.7 1.2 14.8.5 9.1.2 13.7-2 26.7-2.3 13.8-3.5 18.1-7.6 27.3-.5 1.1-1.9 4.5-3.1 7.5-1.3 3-3.3 7.2-4.6 9.2-1.3 2.1-2.3 4.1-2.3 4.5-.1.5-1.4 2.4-3 4.3-1.7 1.9-3 4-3 4.7s-.4 1.3-1 1.3c-.5 0-1 .7-1 1.5 0 1.6-4.6 6.5-6 6.5-.6 0-1 .6-1 1.2 0 1.4-13.7 14.8-15 14.8-.5 0-1.7 1.1-2.7 2.3-1 1.3-3.9 3.6-6.3 5.2-2.5 1.5-4.7 3.1-5 3.4-.5.6-3.6 2.4-6.7 3.9-1 .5-3.1 1.7-4.8 2.6-6.2 3.5-23 10.1-30 11.7-16.2 3.8-52.5 4-64.8.3-1.6-.5-1.7 5.3-1.7 113V384h142c134.6 0 142-.1 142-1.8 0-.9 1.6-8.5 3.5-16.7 3.3-14.6 5.3-21.1 12.8-42 4.5-12.7 8.1-25.7 10.1-36.5 2.4-12.9 5.6-32.3 5.6-33.7 0-.7-1.8.7-4 3.1-2.8 3-4.5 6.1-5.5 9.7-1.3 5.1-1.2 5.5.8 7.7 2.5 2.7 1.7 4.9-2.7 7-4.2 2.1-9.3.7-11.6-3.1-2.8-4.5-2.6-6.2 2.5-16.5 5.3-11 20.8-37.4 22.9-39.2 2.4-1.9 2.1-10.2-.4-12.5-1.1-1-2-2.4-2-3.1s-.9-1.8-2.1-2.4c-2.7-1.5-5.9-6.9-5.9-10.2 0-3.8 3.2-10.7 7.2-15.5 2.7-3.1 3.9-5.9 4.9-10.9 1.2-6.1 1.7-7 6.7-11.4 4.7-4.2 5.2-5.1 4.3-6.8-1.6-2.9-1.4-3.9.9-4.5 3.7-1 2.1-2.5-2.2-2-4.6.5-4 1-9.4-7.9-.6-1.1-2-2.5-3-3.3-1.8-1.3-1.8-1.4.5-3.9 2.8-2.9 2.8-2.8-1.9-4.6-5-1.9-6.9-3.8-7.6-7.6-.3-1.9-1-3.1-1.5-2.8-1.9 1.2-.7-4.6 2.1-10.2 1.6-3.2 3-6.2 3-6.5 0-.4-1.8-3.8-4-7.5-5.7-9.8-5.2-14.4 1.6-14.4 1.8 0 4.3.4 5.6.9s6.8 1.8 12.2 3c5.4 1.1 11.7 2.9 13.9 4 2.3 1.1 6.5 2.5 9.3 3.1 3.6.8 7 2.6 11 5.9 7.9 6.3 11.8 14 14 27.6 1 6.2 2.7 12.2 4.5 15.7 5.2 10.8 6.2 16 4.8 27.3-1.5 13.1-1.5 13.7.6 22.5 1.6 6.8 2 15.3 1.3 31 0 2.5.9 14.6 2.2 27 3.1 30 3.1 36.5.1 46.3-2.5 7.7-2.5 7.8-.6 13 1 2.9 4.7 11.7 8.3 19.7 15.5 35 18 41.5 22.2 58.7l1.1 4.3H512V0H169.7z"/></svg>