<svg xmlns="http://www.w3.org/2000/svg" width="682.667" height="512" version="1.0" viewBox="0 0 512 384"><path d="M170.4 3.7c.4 2.1.9 8.7 1.2 14.8.5 9.1.2 13.7-2 26.7-2.3 13.8-3.5 18.1-7.6 27.3-.5 1.1-1.9 4.5-3.1 7.5-1.3 3-3.3 7.2-4.6 9.2-1.3 2.1-2.3 4.1-2.3 4.5-.1.5-1.4 2.4-3 4.3-1.7 1.9-3 4-3 4.7s-.4 1.3-1 1.3c-.5 0-1 .7-1 1.5 0 1.6-4.6 6.5-6 6.5-.6 0-1 .6-1 1.2 0 1.3-13.6 14.8-14.9 14.8-.4 0-1.9 1.3-3.3 2.9s-4.4 3.9-6.7 5.2c-2.3 1.2-4.1 2.6-4.1 3.1 0 .4-.6.8-1.2.8-.7 0-2.4.9-3.8 2s-3.1 2-3.8 2c-.8 0-2.7.9-4.3 2.1-6.2 4.4-31.4 12.3-42.5 13.3-16.3 1.5-42.4.5-50.7-2-1.6-.5-1.7 5.3-1.7 113V384h285v-2.1c0-5.7 6.9-32.7 13-50.9 8.9-26.4 10.1-31.3 15-59.8 2.2-13 4.3-24.8 4.6-26.2.5-1.9-1.4-.4-7.4 5.7-4.6 4.6-8.4 9.4-8.8 11-.4 1.5-1.1 3.3-1.6 4-.7.8-.3 2.1 1.1 3.9 1.2 1.5 2.1 3.3 2.1 4 0 2.2-4.3 4.4-8.7 4.4-3.5 0-4.5-.5-6.2-2.9-3.9-5.4-2.4-11 6.6-25.4 2.7-4.3 17.3-23.7 21.4-28.5 3.7-4.2 3.8-8.8.4-12.1-1.4-1.2-2.3-2.6-2-3 .2-.5-1-2.1-2.6-3.7-1.7-1.6-3.5-4-4-5.3-1.4-3.6 1.4-11.7 6.1-17.9 3-3.9 4.4-7 5.4-12 1.3-5.9 2-7.2 5.8-10.4 2.4-2.1 4.6-3.8 5.1-3.8 1.1 0 .9-3.8-.3-4.5-1.7-1.1-1.1-2.5 1.5-3.7 4-1.8 2.9-2.8-2.4-2.1-4.5.5-4.9.4-5.6-1.8-.4-1.3-1-2.6-1.4-2.9-.3-.3-2.1-2.4-3.9-4.7-3.1-4.1-3.2-4.2-1.2-5.3 3.1-1.7 2.4-3.5-2.2-5.1-3.4-1.2-4.7-2.4-6.4-5.7-1.1-2.4-2.3-4-2.6-3.6-1.9 1.9.1-7 2.7-12.1l3.1-6-3.8-5.9c-6-9.4-6.1-15.6-.1-15.6 4.2 0 28.6 6 32.3 7.9 1.9 1 5.2 2.1 7.3 2.4 10.3 1.6 20.1 10 24.1 20.6 1.4 3.6 3.2 10.4 3.9 15.1.9 5.9 2.5 10.9 5.3 16.4 3.7 7.5 3.9 8.6 4.2 18.5.2 5.8-.1 12.5-.6 14.9-.7 3.1-.6 5.4.4 8.8.7 2.5 2 9.4 2.8 15.3 1.4 9.8 1.4 11.4 0 16.2-1.3 4.2-1.4 6.1-.5 8.4.5 1.6 1.5 8.4 2.1 15s1.8 17.4 2.6 24c.8 6.7 1.4 13.9 1.4 16 .1 3.9-3.5 20.4-5 23.5-.4.8-.2 2.8.5 4.5.7 1.6 2.8 6.6 4.6 11s6.1 13.8 9.4 21c8.6 18.1 13.2 29.9 15.8 40.7l2.3 9.3 45.7.3 45.7.2V0H169.7z"/></svg>