<svg xmlns="http://www.w3.org/2000/svg" width="682.667" height="512" version="1.0" viewBox="0 0 512 384"><path d="M170.4 3.7c.4 2.1.9 8.7 1.2 14.8.5 9.1.2 13.7-2 26.7-2.3 13.8-3.5 18.1-7.6 27.3-.5 1.1-1.9 4.5-3.1 7.5-1.3 3-3.3 7.2-4.6 9.2-1.3 2.1-2.3 4.1-2.3 4.5-.1.5-1.4 2.4-3 4.3-1.7 1.9-3 4-3 4.7s-.4 1.3-1 1.3c-.5 0-1 .7-1 1.5 0 1.6-4.6 6.5-6 6.5-.6 0-1 .6-1 1.2 0 1.3-13.6 14.8-14.9 14.8-.4 0-1.9 1.3-3.3 2.9s-4.4 3.9-6.7 5.2c-2.3 1.2-4.1 2.6-4.1 3.1 0 .4-.6.8-1.2.8-.7 0-2.4.9-3.8 2s-3.1 2-3.8 2c-.8 0-2.7.9-4.3 2.1-6.2 4.4-31.4 12.3-42.5 13.3-16.3 1.5-42.4.5-50.7-2-1.6-.5-1.7 5.3-1.7 113V384h286v-2.3c0-6 6.8-34.3 12.5-51.7 8.3-25.7 8.9-27.8 14.1-58.4 2.4-14.3 4.8-28 5.3-30.4.4-2.3.6-4.2.4-4.2-.3 0-3.5 2.7-7.1 6.1-3.7 3.3-8.6 7.2-10.9 8.5-3 1.8-4.3 3.4-4.8 5.7-.4 1.8-1.2 3.7-1.7 4.4-.7.9-.3 2.1 1.1 3.9 1.2 1.5 2.1 3.3 2.1 4 0 2.1-4.2 4.4-8.1 4.4-2.9 0-4.3-.7-6.3-3.1-4.4-5.2-4.3-7 1-16.5 4-7.2 7.5-11.4 19.7-23.6 9.3-9.4 14.7-15.6 14.7-16.9 0-1.1-1.1-3-2.5-4.3s-2.5-2.9-2.5-3.6-1.3-2.8-3-4.7c-4.9-5.6-4.2-10.7 3.4-22.2 3.3-4.9 4.6-8 5.1-12.1.6-5 1.2-6 6.2-10.7 4.8-4.5 5.3-5.4 4.4-7.1-1.5-2.9-1.4-3.1 1.4-4.2 4.1-1.6 3-3-1.9-2.4l-4.4.6-4.1-6c-2.2-3.4-4.6-6.4-5.2-6.7-.7-.5-.3-1.4 1-2.6 1.2-1.1 2.1-2.4 2.1-2.8 0-.9-4.8-2.5-6.6-2.3-.6.1-1.7-.9-2.4-2.3s-1.7-2.5-2.2-2.5c-.4 0-.8-1.1-.8-2.5s-.5-3.3-1.1-4.3c-.9-1.4-.4-3.2 2.1-8.6l3.3-6.8-4.2-7.8c-5.5-10.4-5.3-14 1-14 3.9 0 27.7 5.8 32.4 7.9 2.2 1 6.3 2.3 9 3 5.7 1.4 10.5 4.2 15.3 9.2 5.7 5.8 9 14.1 11.2 28.4.6 3.9 2.4 9.3 4 12.5 4.9 9.2 6 13.5 5.9 22.9-.1 4.7-.4 9.9-.8 11.6-.4 1.8 0 5.9 1.1 10 1 3.8 2.3 11.1 3.1 16.2 1.1 8 1.1 9.9-.3 15-1.2 4.7-1.3 6.5-.4 9.3.7 1.9 1.5 8.4 1.9 14.5.3 6 1.3 16.5 2.1 23.2 1.9 16.1 1.8 20.5-.6 28.8-1.1 3.8-1.7 7.7-1.5 8.7.4 1-.1 2.1-1.2 2.6-1.2.7-1.4 1.4-.7 2.4.6.7 1.9 3.5 2.9 6.3 1.7 4.8 5 11.9 16.4 35.8 5.9 12.2 9.4 21.6 12.6 33.2l2.2 8 45.2.3 45.1.2V0H169.7zM305 113c0 .5-.5 1-1.1 1-.5 0-.7-.5-.4-1 .3-.6.8-1 1.1-1 .2 0 .4.4.4 1"/></svg>