<svg xmlns="http://www.w3.org/2000/svg" width="682.667" height="512" version="1.0" viewBox="0 0 512 384"><path d="M170.4 3.7c.4 2.1.9 8.7 1.2 14.8.5 9.1.2 13.7-2 26.7-2.3 13.8-3.5 18.1-7.6 27.3-.5 1.1-1.9 4.5-3.1 7.5-1.3 3-3.3 7.2-4.6 9.2-1.3 2.1-2.3 4.1-2.3 4.5-.1.5-1.4 2.4-3 4.3-1.7 1.9-3 4-3 4.7s-.4 1.3-1 1.3c-.5 0-1 .7-1 1.5 0 1.6-4.6 6.5-6 6.5-.6 0-1 .6-1 1.2 0 1.3-13.6 14.8-14.9 14.8-.4 0-1.9 1.3-3.3 2.9s-4.4 3.9-6.7 5.2c-2.3 1.2-4.1 2.6-4.1 3.1 0 .4-.6.8-1.2.8-.7 0-2.4.9-3.8 2s-3.1 2-3.8 2c-.8 0-2.7.9-4.3 2.1-6.2 4.4-31.4 12.3-42.5 13.3-16.3 1.5-42.4.5-50.7-2-1.6-.5-1.7 5.3-1.7 113V384h286.7l1.8-10.8c3.4-20.8 5.6-30.4 10.6-46 6.5-20.4 8.3-28.2 12.5-54.7 1.9-12.1 4.2-24.8 5-28.3.7-3.5 1.4-7.8 1.4-9.7 0-6.7-.3-6.7-10.8-1.8-15.8 7.3-17.6 8-20.9 8.8-2.7.5-3.7 1.6-5.6 5.4-2.2 4.6-2.2 4.9-.5 7.7 2.4 3.8 2.3 4.1-1.3 5.9-6.3 3.3-14.4-2-14.4-9.4 0-3.3 1-5.1 6-11.1 5.3-6.4 7.7-8.2 19.5-15.2 7.4-4.3 15-8.5 16.8-9.3 2.4-1 3.2-2 3.2-3.9 0-1.5-.5-2.6-1.1-2.6-.5 0-.8-.4-.5-.9s0-1.3-.7-1.9-1.3-4.2-1.5-9.1c-.3-8.7 1-12.6 6.4-19 2.1-2.6 2.8-4.7 3.3-10.1.7-7.6 2.4-10.2 8.7-13.6 3.4-1.9 3.6-2.5 1.9-6.7-.6-1.4-.2-2 1.4-2.4 1.1-.3 2.1-1.1 2.1-1.8 0-.9-1.3-1.1-4.2-.8-4.1.5-4.4.3-6.3-3.3-1.1-2-3.2-5-4.8-6.7l-2.8-3 2.1-2.2c2-2.1 2.7-4.6 1.3-4.4-.5.1-2.2-.2-4-.6-3.7-.8-6.3-4.2-6.3-8.1 0-1.9-.4-2.5-1.5-2-1 .4-1.5-.1-1.5-1.4 0-2 4-11.2 6.2-14.2 1-1.4.9-2-.4-3.5-3.4-3.8-6.9-12.2-6.6-15.5.3-2.9.7-3.3 3.7-3.6 4.4-.4 28.7 5.4 32.7 7.9 1.7 1 3.8 1.9 4.6 1.9 5 0 12.2 3.4 17.7 8.5 7.1 6.6 9.5 11.8 12.6 27 1.5 7.4 3.5 13.4 5.9 18.3 4.3 8.4 6.1 17.6 5.3 27.4-.5 5.6-.1 8.1 1.9 14 3.4 10.2 5.5 24.1 4.4 29.8-.8 4.4-.5 13.2 2.1 47.5 1.4 19 1.3 22.3-.7 29.4-.8 3-1.3 6.5-1 7.7.5 1.9.2 2.4-1.4 2.4s-2-.7-2.1-3.3c0-2.8-.1-3-1-1.1-1.4 2.7 3.7 15.3 17.9 44.4 10.7 21.7 18.2 40.6 18.2 45.6v2.4h90V0H169.7z"/><path d="M356.2 231c0 1.4.2 1.9.5 1.2.2-.6.2-1.8 0-2.5-.3-.6-.5-.1-.5 1.3"/></svg>