<svg xmlns="http://www.w3.org/2000/svg" width="682.667" height="512" version="1.0" viewBox="0 0 512 384"><path d="M316.5 3.2c1.1 4.7 4.2 11.7 7.2 16.1 1.4 2 2.4 3.9 2.1 4.2-.2.3-4 1.1-8.4 1.9-22.4 3.9-47.8 19.4-58 35.3-1.9 2.8-3.8 5.5-4.4 5.8-1.6 1-6.5 11.3-8.9 18.9-3.1 9.5-6.6 16.1-10.7 20.2-5.1 4.9-.1 4.1 5.4-.9 2.7-2.5 2.9-1.2.7 5.9-1.7 5.8-1.8 6.4-.5 4.4.7-1 .8.9.4 6.2-.5 5.4-.3 7.8.4 7.8.6 0 .9-.6.6-1.3-.3-.8.2-1.4 1-1.4 1.7 0 2.1 1 3.1 7.4.9 6.1 2.3 5.3 1.9-1l-.4-5.2 1 4c1.6 6.4 4.1 11 5 9.4.7-1 1.2-.6 2.1 1.4s1.5 2.4 2.5 1.6c.9-.7 1.5-.1 2.4 2.6.7 2 1.5 3.4 1.8 3.1s1.4.1 2.4 1.1c2.2 1.9 2.1 2.2.3-4.7-.9-3.5-1.1-5.8-.5-6.4.7-.7 1-.1 1 1.5 0 3 2.8 11.9 4.2 13.4.6.6.7-.4.3-2.8-.5-2.4-.4-3.7.4-3.7 1.7 0 1.3 6-.8 10.6-1 2.2-3.6 5.5-5.6 7.2-3.5 2.8-3.8 3.3-2.7 5.6.6 1.4 2.9 3.4 5 4.5 4.3 2.2 5.2 3.6 5.2 8.5 0 3.7 2.1 6 6.5 7 4.8 1.2 6.4 3.2 5.8 7.3-.5 2.9-.1 3.9 2 5.9 1.5 1.4 3.4 3.9 4.3 5.7 1 1.8 2.8 4.6 4 6.3 2.7 3.5 2.9 5.3 1 10.6-1.4 4-1.2 4.2 3.2 4.1 1.4-.1 1.6 1.6.3 3.6-.6.9-.5 1.9.4 2.7.7.7 1.6 3.9 1.9 7.1.8 6.3 3.4 21.8 4.2 24.5.4 1.2-1.2 3.6-4.7 7.3-2.8 3-5.5 5.5-5.9 5.5s-1.1-1-1.7-2.3c-.6-1.2-3.1-4.5-5.5-7.2-2.5-2.8-6.1-8.4-8-12.5s-5.2-9.7-7.2-12.3l-3.7-4.9 1.1-7.4c1.3-8.6.7-16-2.1-25.9-2.5-8.7-5.7-13.5-11.2-16.6-3.8-2.2-5.4-2.4-15.7-2.4-6.3 0-12.5.4-13.7.8-2.1.8-2.3.4-2.9-4.3-.9-6.6-2.9-6-2.9.8 0 2.7-.2 5.3-.6 5.6-.3.3-4.3 1.9-8.9 3.5-5 1.8-9.6 4.2-11.5 6.1-1.7 1.6-3.6 3-4.3 3-1.8 0-5 5.8-5.7 10.4-.4 2.3-1.3 6.3-2.2 9.1-1.4 4.9-1.4 5.3 2.6 19.9l4 14.8 7.4 8.7c6.8 8 11.9 11.9 17.6 13.4 1.9.5 1.8.9-1.8 9.3-4.1 9.5-6.1 17.2-8.6 32.3-.9 5.2-2.7 12.8-4.1 16.9-2.7 8-3.2 16.7-1.8 34.4l.7 8.8h59.3l5.2-10.2c5-9.8 14.5-23.8 16.1-23.8.5 0 .5 1.9 0 4.3-.4 2.3-.8 9.9-.9 16.9V384h6.9c6.4 0 7-.2 7.4-2.3l.4-2.2.8 2.2.7 2.3h162.9l8.1-2.6c4.4-1.5 10.8-4.3 14.2-6.3l6.1-3.6-3.8-.3c-4-.3-4.6-1.2-2.2-3.2.9-.7 3-3.1 4.7-5.3l3.2-3.9-7 .4c-6.6.4-7.5.7-19 7.9-9.8 6.1-17 9.9-18.9 9.9-.7 0-2.9-6.7-2.7-8.4.2-2.8-2.6-15.2-4.2-18.5-.7-1.4-1.1-3.3-.9-4.2s-1.2-7.9-3.3-15.5c-2-7.7-4.1-15.7-4.6-17.9s-1.6-5-2.4-6.3c-.8-1.2-1.2-2.7-.8-3.3.3-.6-.1-2.9-1-5.2-1.8-4.9-2.5-14.1-1.1-14.4 1-.3 1.3.5 3.6 9.2 1.1 4.2 1.4 4.6 1.9 2.6.6-2.4.6-2.4 2.3 1 1.5 3.2 1.7 3.2 1.7.9.1-2.8.3-2.5 8.1 14.7 2.3 5.1 4.6 9.3 5.1 9.3.9 0 .8-1.5-2.3-25.4-2.7-21.2-2.7-21.5 2.2-12.8 2.2 4.1 4.2 7.2 4.4 7s-1.2-6.4-3.1-13.8c-2.9-11.3-3.6-15.7-3.9-27-.4-10.4-.2-12.7.6-10 4.1 14 7.6 23.6 11 30.3 4.9 9.9 11.6 21.4 12.9 22.2s1.4 1.1-1.4-7c-4.3-12.9-9-35.2-6.6-31.5.6.8 3.5 5.5 6.6 10.5 5.7 9.3 11.7 17.5 12.2 17 .2-.1-.8-6.1-2.1-13.1-2.7-13.8-2.7-14-5.7-66.4-2.6-46.1-6-69.5-14.1-97.4-2.2-7.7-4.5-14.8-5.1-15.9-2-3.8-8.5-22.3-9.2-26.2-1.6-9.3-8.1-22-16.4-32.2-7.1-8.8-19.3-13.9-30.3-12.7l-5.6.6-4.2-6.9c-2.3-3.7-4.7-7.6-5.5-8.6-1.2-1.6-4.1-1.7-35-1.7h-33.8zm11.7 224c-.9.9-1.2.7-1.2-1.2s.3-2.1 1.2-1.2.9 1.5 0 2.4"/></svg>