<svg xmlns="http://www.w3.org/2000/svg" width="682.667" height="512" version="1.0" viewBox="0 0 512 384"><path d="M170.4 3.7c.4 2.1.9 8.7 1.2 14.8.5 9.1.2 13.7-2 26.7-2.3 13.8-3.5 18.1-7.6 27.3-.5 1.1-1.9 4.5-3.1 7.5-1.3 3-3.3 7.2-4.6 9.2-1.3 2.1-2.3 4.1-2.3 4.5-.1.5-1.4 2.4-3 4.3-1.7 1.9-3 4-3 4.7s-.4 1.3-1 1.3c-.5 0-1 .7-1 1.5 0 1.6-4.6 6.5-6 6.5-.6 0-1 .4-1 .9 0 1.1-13.7 15.1-14.8 15.1-.5 0-2 1.3-3.4 2.9s-4.4 3.9-6.7 5.2c-2.3 1.2-4.1 2.6-4.1 3.1 0 .4-.6.8-1.2.8-.7 0-2.4.9-3.8 2s-3.1 2-3.8 2c-.8 0-2.7.9-4.3 2.1-6.2 4.4-31.4 12.3-42.5 13.3-16.3 1.5-42.4.5-50.7-2-1.6-.5-1.7 5.3-1.7 113V384h286.6l1.8-13.3c2.7-21.2 3.6-25.2 9.8-45.2 6.3-20.5 8.2-29.1 12.8-56.9 1.6-10 3.8-22.2 4.8-27.3 1.1-5.3 1.6-9.7 1.1-10.5-.5-.7-.9-4-1-7.3 0-3.3-.4-7.9-.7-10.3-.7-3.9-1.1-4.4-5.9-6.7-2.9-1.3-5.3-2.1-5.3-1.7 0 1.7-4 3.1-6.4 2.3-1.9-.8-2.8-.6-4.2 1.1-4.3 4.6-6.8 5.1-23.1 4.4-8.3-.3-16.4-.9-18-1.2-2-.4-3.4.1-5.1 1.6-1.3 1.2-3.5 2.5-5 2.9-3 .8-4.1 4.3-2.2 6.5.8 1.1.7 1.8-.5 3-.9.9-1.9 1.6-2.1 1.6-1.3 0-5.2-2.5-8.1-5.3-4.4-4.1-4.6-9.3-.5-13.7 5-5.4 14.3-7.9 35.1-9.5 20.3-1.5 22.8-2.3 19.8-6.6-1.7-2.4-.8-4.9 1.9-4.9.7 0 1.2-1.1 1.2-2.8-.1-4.5 1.7-6.6 8.4-10.2 9.4-4.9 12.8-7.8 14.8-12.5 1.5-3.6 2.8-4.7 7.4-6.9 5.5-2.6 6.6-3.9 4.6-5.1-1.7-1.1-1.1-3.3 1.1-4 3.4-1.1 1.6-3-2.7-2.7-3.4.3-4.2-.1-5.2-2-2.9-5.6-5.2-9-6.7-10.2-1.6-1.2-1.5-1.5 1.1-4.2 2.7-2.7 2.8-2.9.9-3.2-1.1-.2-2.6-.9-3.3-1.5-.7-.5-1.5-.7-1.9-.3-.9.8-4.3-4.4-4.3-6.7 0-1-.7-2.8-1.6-4.2-1.4-2.2-1.4-2.7.7-6.7 1.2-2.4 3-5.4 4-6.6 1.8-2.3 1.8-2.5-2.1-10.3-2.2-4.3-4-8.7-4-9.7 0-2.5 2-4.2 5-4.2 4.2 0 27.1 6.9 31.7 9.6 2.3 1.3 5 2.4 6 2.4 3.2 0 11.7 4.7 16.1 8.9 5.9 5.6 9 13 11.4 26.9 1.5 8.6 3 13.8 5.9 19.7 3.2 6.8 4 9.7 4.9 19 .9 8.1 2 12.8 4.1 17.6 4.1 9.4 7.6 21.5 8.2 28.1.3 3.2 1.1 7.3 1.8 9.3 1 2.8 1.1 6.6.1 18.9-.6 8.4-.9 19.3-.6 24.2.4 4.9.7 13.9.8 20.1 0 6.1.4 11.5.9 11.9 1.3 1.3.7 2.4-1.3 2.4-1.3 0-2.5-1-3.2-2.8-1.6-4-2.3-.3-.8 4.4 1.4 4 .7 5.3-1.8 3.8-1-.7-2.1-3.3-2.6-6.7-.5-3.2-1.3-5.7-1.8-5.7-3.2 0 3.8 18.5 18.9 49.3 7.5 15.3 15.3 32.7 17.3 38.5l3.8 10.7 44.6.3 44.6.2V0H169.7z"/><path d="M355.6 214c-.4 3.6-.6 7.6-.6 9 .1 1.4.1 4.2 0 6.3 0 2.7.8 5.1 2.7 7.8 3.4 4.7 4.3 4.9 4.3.9 0-2.6-4.3-26.2-5.4-29.5-.2-.6-.6 1.9-1 5.5"/></svg>