<svg xmlns="http://www.w3.org/2000/svg" width="682.667" height="512" version="1.0" viewBox="0 0 512 384"><path d="M170.4 4.7c2 16.4 1.8 24.8-.8 40.5-2.3 13.8-3.5 18.1-7.6 27.3-.5 1.1-1.9 4.5-3.2 7.5-1.2 3-3.3 7-4.5 8.9-1.3 1.9-2.3 3.9-2.3 4.5-.1.6-1.4 2.7-3 4.6-1.7 1.9-3 4-3 4.7s-.4 1.3-1 1.3c-.5 0-1 .7-1 1.5 0 1.6-4.6 6.5-6.1 6.5-.5 0-1.2.7-1.5 1.5-.8 1.9-13.1 14.5-14.2 14.5-.5 0-2 1.3-3.4 2.9s-4.4 3.9-6.7 5.2c-2.3 1.2-4.1 2.6-4.1 3.1 0 .4-.6.8-1.2.8-.7 0-2.4.9-3.8 2s-3.1 2-3.8 2-2.9 1-5 2.3c-8.1 5-30.7 12.1-41.8 13.1-16.3 1.5-42.4.5-50.7-2-1.6-.5-1.7 5.3-1.7 113V384h284.7l1.7-12.7c2.6-19.2 4.1-26.2 10.1-44.8 7.5-23.5 9.8-33.4 13.9-59.5.9-5.2 2.7-15.3 4.1-22.4 1.6-8.1 2.2-13.2 1.6-14-.5-.6-1.2-4.3-1.5-8.1-1.1-11.6-1.6-13.5-3.3-13.5-2.6 0-8.3-4-9.8-7-.8-1.6-1.5-4.3-1.5-6v-3.1l-2.9 2c-3.7 2.6-6.1 2.6-9.5 0-2.3-1.8-2.7-1.8-3.2-.5-.8 2-4.4 2.1-6.9.2-1.6-1.1-2.4-1.1-5.9.5-2.3 1-5.7 1.9-7.7 1.9-3.3 0-26-6.3-34-9.4-2.1-.9-5.2-1.2-7.6-.9-2.2.3-5.7 0-7.8-.7-3.1-1-3.9-1-5.2.3-1.2 1.1-1.3 1.9-.4 3.6 1 1.7.9 2.1-.4 2.1-.9 0-1.3.5-1 1 1.3 2.1-2.2.8-5.2-2-2.9-2.6-3.3-3.6-3.3-7.8 0-3.8.5-5.3 2.3-7 4.9-4.7 6.5-4.6 34.7.3 14.4 2.5 26.6 4.8 27.1 5.1s2.2-.3 3.9-1.3c2.3-1.3 3-2.4 3-5 0-2.8.3-3.2 2.8-3 2.3.2 2.8-.2 3-2.6.5-3.8 3.4-5.4 13.2-6.8 5.9-.8 10.3-2.2 15-4.6 3.6-1.9 8.6-3.9 11.3-4.4 2.6-.6 4.7-1.3 4.7-1.5 0-.3-.7-1.6-1.6-2.9-1.6-2.4-1.5-2.5 1.1-3.5 3.9-1.5 2.6-3.3-2.4-3.4-4.1-.1-4.4-.3-7.1-5.4-1.5-2.9-3.6-6.2-4.5-7.2-1.7-1.9-1.7-2.1.9-4.1 1.4-1.1 2.6-2.5 2.6-3.1s-.3-.9-.6-.5c-.4.3-1.9 0-3.5-.9-2.2-1.1-2.9-1.1-2.9-.2 0 .7-.9-.5-2-2.7s-2-5-2-6.3-.4-2.1-.8-1.8c-1.3.8-.7-4.5.8-7.4.7-1.4 2.3-3.9 3.6-5.7l2.4-3.1-3.1-7.2c-3.6-8.5-3.7-14.3-.3-14.8 3-.4 29.8 8.4 32.6 10.8 1.3 1.1 4.9 2.7 8.2 3.6 7.4 2.2 16.4 10.1 19.4 17.1 2.1 5 5.2 20.3 5.2 26.3 0 1.9 1 5.5 2.1 8 4.1 8.9 5.8 15.3 6.5 24.1l.7 9 4.1 3.2c6.2 4.8 6.7 5.7 6.1 10.4-.2 2.4-.1 4.3.4 4.3 1.2 0 2.3 6.2 1.2 7.3-.5.5.7 3.8 3.1 8.3 4 7.4 4 7.5 3.7 17.2-.5 17-.4 22.5.9 31.1.9 6.4.9 10.1.1 14.9-1.4 8-.7 15.6 1.6 18.2 1.7 1.9 1.7 2 0 2.6-1.3.5-2.5-.1-4.2-2.2l-2.4-2.9.7 3c.4 1.6 1.1 3.8 1.5 4.7 2.3 4.5-.8 5.3-4.1 1.1l-2.1-2.8.5 2.5c.3 1.4.8 3.8 1.2 5.4.6 2.5.4 2.8-1 2.3-.9-.4-1.6-.2-1.6.2 0 1.8 9.1 22.2 18.3 41.1 5.2 10.7 11.2 24.8 13.4 31.2l3.8 11.7 45.8.1H512V0H169.8z"/><path d="M353.6 219c-.4 1.9-.3 4.7.2 6.1.6 1.4.8 3.6.5 5-.3 1.7.8 4.1 3.7 8.2 2.3 3.2 4.4 5.6 4.7 5.4.2-.3-1.4-5.8-3.5-12.3-2.2-6.6-4.2-12.8-4.4-13.9-.4-1.5-.7-1.1-1.2 1.5"/></svg>