<svg xmlns="http://www.w3.org/2000/svg" width="682.667" height="512" version="1.0" viewBox="0 0 512 384"><path d="M170.4 4.7c2 16.4 1.8 24.8-.9 40.6-2.8 17-3.2 18.7-4.6 18.7-.5 0-.9.8-.9 1.7-.1 1-.9 3.6-2 5.8s-2 4.7-2 5.5c-.1.8-1.1 3.3-2.3 5.6-1.2 2.2-3.1 5.8-4.2 8-1.1 2.1-3.7 6.1-5.7 8.9-2.1 2.7-3.8 5.5-3.8 6.2 0 .6-1.8 2.7-4 4.6s-4 3.6-4 3.9c0 .7-12.2 13-14.2 14.3-3.8 2.5-13.3 10-13.6 10.7-.2.4-.9.8-1.5.8-.7 0-2.3.9-3.7 2s-3.1 2-3.8 2-2.9 1-5 2.3c-8.1 5-30.7 12.1-41.8 13.1-16.3 1.5-42.4.5-50.7-2-1.6-.5-1.7 5.3-1.7 113V384h283.5l1.9-13.8c2.1-15.7 5.9-31.5 10.9-45.2 4.9-13.3 9.1-31 13.2-55.5 2-11.6 4.3-23.8 5-27.3 1.7-7.2 1.9-11.8.6-12.6-.5-.3-1.2-4.3-1.6-8.9-.3-4.6-1-8.9-1.4-9.5-.4-.7-2.7-2.2-5.1-3.5-8.9-4.5-10.7-11.5-5.6-21.5 1.5-3 2.6-5.6 2.4-5.8s-4.2 2.1-8.8 5.1c-10.5 6.7-13.5 7-17.2 1.7l-1.5-2.2-1.8 2-1.8 2-2.6-2.4c-2.4-2.3-3-2.4-7.1-1.5-7.3 1.7-13.6.5-30-5.5-8.5-3.2-17.7-6.2-20.5-6.8-2.7-.5-6.7-1.8-8.7-2.9-4.4-2.3-7.1-2.4-8.7-.5-.9 1.1-1 2-.1 3.5 1.1 2.2-.3 3.1-1.6 1-.4-.8-.9-.7-1.5.2-1.4 2.4-5.9-2.8-5.9-6.9 0-10.5 9.7-14 23-8.2 3.9 1.7 14.1 4.5 23.7 6.6 9.2 1.9 18.6 4 20.9 4.5 5.7 1.5 11.1-.8 11.6-4.8.3-2.8.5-2.8 4.8-1.6 1 .3 2.1-.7 3-2.9l1.5-3.3H286c7.2-.1 14.1-.7 18.5-1.8 3.9-.9 7.9-1.7 9-1.7s2.7-.4 3.5-1c1.2-.7 1.2-1.2-.4-2.9-1.9-2.1-1.4-4.1 1-4.1.8 0 1.4-.7 1.4-1.5 0-1.1-1.1-1.5-4-1.5-3 0-4.2-.5-4.7-1.8-.4-.9-2.3-4.3-4.4-7.4l-3.7-5.6 2.4-2.3c1.3-1.2 2.4-2.6 2.4-3 0-.6-4-2.1-6.3-2.3-1.4-.2-3.6-4.9-3.7-8 0-2.1-.4-2.7-1.5-2.2-1.2.4-1.3.2-.6-1.3.6-1 .8-2.1.5-2.4-.7-.7 2-5.8 5.1-9.5l2.5-3-3.1-7.7c-1.7-4.5-2.9-8.9-2.7-10.8.3-2.8.7-3.2 3.4-3.5 3.7-.4 28.7 8.8 31.8 11.7 1.2 1 3.7 2.2 5.6 2.6 9 1.8 19.3 11.4 22.3 20.6.9 3 2.3 11.1 3.1 17.9 1.1 9.1 2.2 14.1 4.1 18.2 1.8 4 2.9 8.7 3.6 15.5.8 8.3 1.3 10 3.1 11.3 1.2.8 4.4 3.2 7.1 5.4 4.9 3.8 4.9 3.9 4.3 8.2-.4 2.9-.2 4.4.5 4.4.6 0 .8.7.5 1.7-.4.9-.1 2 .6 2.4 1.1.7 1.1 1.2 0 2.9-1.1 1.8-1 2.5.8 5 6.1 8.6 7 14.9 4.8 34.1-.9 8-.8 11.5.2 16.5.6 3.5 1.3 11.8 1.5 18.4.2 9.5.6 12.5 1.9 13.9.9 1 1.6 2.3 1.6 2.9 0 2.1-2.8 1.3-4.9-1.4-2.7-3.5-2.7-1 0 4 2.8 5.3 1.1 6.9-3 2.8-3.5-3.4-3.8-2.8-1.6 2.5 1.8 4.2 1.3 5.3-1.6 3.5-1.1-.7-2.4-1-2.9-.7-1.2.8 5.5 17.4 15.5 38 9.6 19.9 15.4 33.8 18 43.2l1.8 6.3H512V0H169.8z"/><path d="M354.1 232.1c-.1.9.7 2.5 1.7 3.6.9 1 1.4 1.4 1 .8s-1.2-2.2-1.7-3.6c-.6-1.5-1-1.8-1-.8"/></svg>