<svg xmlns="http://www.w3.org/2000/svg" width="682.667" height="512" version="1.0" viewBox="0 0 512 384"><path d="M170.4 5.2c1.9 15.1 1.8 21.9-.4 36.5-1.2 8.2-3.1 16.8-4.1 19.2-1.1 2.4-1.9 4.9-1.9 5.5-.1.6-.9 2.9-2 5.1s-2 4.7-2 5.5c-.1.8-1.1 3.3-2.3 5.6-1.2 2.2-3.1 5.8-4.2 8-1.1 2.1-3.7 6.1-5.7 8.9-2.1 2.7-3.8 5.5-3.8 6.2 0 .6-1.8 2.7-4 4.6s-4 3.6-4 4c0 1.1-13.2 13.7-14.5 13.7-.7 0-1.5.6-1.8 1.4-.6 1.6-19 14.6-20.6 14.6-.6 0-2.8 1-4.9 2.3-8.1 5.1-30.7 12.1-42.1 13.2-16.3 1.5-42 .4-50.4-2.1-1.6-.5-1.7 5.3-1.7 113V384h281.7l2.2-13.3c3-17.5 6-29.1 12.1-47.2 6.1-17.9 8.1-26.2 12.1-49.5 1.6-9.6 3.9-22.2 5-27.9s1.9-11.8 1.6-13.5-1.2-7.3-2-12.4c-.7-5.1-1.6-9.4-1.8-9.5-.2-.2-1.9-.9-3.7-1.7-1.7-.7-4.6-2.8-6.3-4.8-2.9-3.3-3.1-3.9-2.7-9.6.3-4.8 1.1-7.4 3.6-11.4 1.8-2.9 3.2-5.5 3.2-5.8 0-1.1-6.7.9-15.9 4.8-10.8 4.5-13.9 4.6-16.1.3-.8-1.7-1.6-3.2-1.7-3.4s-1.4.4-2.9 1.3c-1.4 1-2.7 1.6-2.8 1.4-.2-.2-1-1.4-1.9-2.7-1.5-2.2-2.2-2.4-8.9-2.2-8 .2-12.9-1-31.8-7.9-15.2-5.5-19-6.7-22.2-7.4-1.4-.3-4-1.7-5.6-3.1-4.1-3.5-7.8-3.3-10 .5-2.1 3.7-3.2 3.8-3.2.2-.1-2.3-.2-2.4-1.1-1-1.2 2.1-1.8 2.2-4.2.3-1.7-1.2-1.8-1.8-.7-4.9 1.7-5.1 6.2-7.6 13.9-7.6 5.3 0 7.3.6 13.9 4 6.2 3.2 10.7 4.6 22.7 7 8.3 1.6 17.5 3.7 20.6 4.6 4 1.2 6.7 1.4 9.9.7 3.8-.7 4.5-1.3 5.2-4.1.8-3.1 1-3.2 3.1-1.7 3.1 2.1 4 1.9 6-1.6 1.7-3.1 1.9-3.1 7-2.5 13.3 1.7 31.4 2.4 35 1.5 3.6-1 3.8-1.1 2.3-2.8-2.1-2.3-2-3.8.4-5.1 3.4-1.8 2.4-3.2-2-2.5-3.7.6-4.1.5-6-2.7-1.1-1.8-2.8-5-3.7-7.1-.9-2-2-3.7-2.5-3.7-1.5 0-.8-2.6 1.2-4.3 2.7-2.3 2.5-3.4-.6-4.1-3.7-1-7.4-5.4-7.4-8.9 0-2.3-.3-2.8-1.6-2.3-1.4.5-1.5.4-.4-.9.7-.9 1-1.8.7-2.1-.8-.8 2.4-7 5.6-10.8l2.4-3-2.9-7c-1.8-4.4-2.8-8.4-2.6-10.6.3-3.1.7-3.5 3.4-3.8 3.6-.4 27.6 8.7 30.8 11.6 1.1 1.1 4.6 2.7 7.7 3.6 6.1 1.7 12.8 6.9 17.1 13.3 3 4.4 5.4 14.8 6.4 27.8.4 6.2 1.4 10.9 3.1 15 1.6 3.7 2.8 9.1 3.3 14.3.4 4.6 1.1 8.7 1.6 9.1s3.9 2.9 7.7 5.5c6.9 4.9 8.5 7.5 7.3 12-.3 1.4-.1 2.8.4 3.1.6.4.8 1.1.4 1.6-.3.5-.1 1.6.6 2.4.8 1 .8 1.8 0 3.2-1 1.5-.4 3 3 8.8l4.2 7-.6 12c-.3 6.6-.9 16.6-1.2 22.2-.5 7.9-.3 11 .8 14 .9 2.1 1.9 7.7 2.3 12.6.5 6.2 1.3 9.4 2.6 11.1 2.4 3 2.4 3.6 0 3.6-1.1 0-2.9-1.2-4.1-2.8l-2.1-2.7.7 2.5c.3 1.4 1.2 3.5 2 4.7s1.4 3 1.4 3.8c0 2.9-3.4 1.1-5.7-3-2.9-5.1-3.1-1.9-.3 4.2 2 4.6 1.4 6.1-1.5 3.9-1.6-1.1-2.1-1.1-3.2 0-1.7 1.7 2 11.5 14.1 37.1 9.8 20.9 13.3 29.3 17.1 41.6l2.6 8.7H512V0H169.7z"/></svg>