<svg xmlns="http://www.w3.org/2000/svg" width="682.667" height="512" version="1.0" viewBox="0 0 512 384"><path d="M170.4 4.7c1.7 14.2 1.8 24.1.3 32.3-.9 4.7-1.9 11-2.2 14-.4 3-1.6 7.5-2.6 9.9s-1.9 4.9-1.9 5.5c-.1.6-.9 2.9-2 5.1s-2 4.7-2 5.5c-.1.8-1.1 3.3-2.3 5.6-1.2 2.2-3.1 5.8-4.2 8-1.1 2.1-3.7 6.1-5.7 8.9-2.1 2.7-3.8 5.5-3.8 6.2 0 .6-1.8 2.7-4 4.6s-4 3.7-4 4c0 .9-10.2 10.7-11.1 10.7-.5 0-.9.7-.9 1.5s-.9 1.5-1.9 1.5-2.1.6-2.4 1.4c-.6 1.6-19 14.6-20.6 14.6-.6 0-2.8 1-4.9 2.3-7.9 4.9-30.6 12.1-41.5 13.1-15.8 1.5-42.8.5-51-2-1.6-.5-1.7 5.3-1.7 113V384h281.6l2.3-14.2c2.6-16.4 5.5-28.1 10.6-42.3 5.2-14.5 9-29.6 12.5-49.5 1.6-9.6 4.2-23.7 5.6-31.3 2.1-10.8 2.4-14.3 1.6-16.2-.6-1.3-1.7-6.3-2.3-11.1l-1.2-8.6-4.1-1.8c-6.2-2.7-8.8-6.1-9.4-12-.4-4.5 0-6 3.4-12.5 2.1-4.1 3.5-7.7 3.2-8-.6-.7-9.4 2.4-18.1 6.4-9.3 4.2-12.4 4.1-14.3-.4-1.6-3.9-2.2-4.1-4.9-2.1-2 1.4-3.5.7-4.7-2.5-.5-1.3-1.9-1.5-8.5-1.1-7.5.4-8.5.1-23.8-5.3-8.8-3.2-17.6-6.5-19.5-7.5-1.9-.9-5.3-2.1-7.5-2.4-2.2-.4-6.1-2.1-8.6-3.7-5.4-3.4-8.2-3.6-10.9-.9-2.6 2.6-4.3 2.6-3.5-.1.6-1.8.5-1.9-1.3-1-2.9 1.5-3.5 1.4-2.9-.8.3-1.4 0-1.7-1.4-1.4-2.4.7-2.4-.4.1-4.4 3.7-6.2 16.8-6 30 .5 5.4 2.6 12.2 4.9 18.5 6.2 5.5 1.2 13.6 3.1 18 4.2 12.7 3.3 20.5 2.7 20.5-1.6 0-3.2.9-3.8 3.4-2.1 2.6 1.9 4.6 1.9 4.6.1 0-.8.8-2.4 1.8-3.6 1.8-2.2 2.1-2.3 6.8-1 7.1 1.8 30.1 3.1 34.8 1.9l3.8-1-2.2-2.4-2.3-2.4 2.7-1.2c4.2-1.9 3.3-4-1.5-3.7-3.9.3-4.3 0-6.6-3.7-1.3-2.2-2.6-4.7-3-5.5-.3-.8-1.5-2.6-2.7-3.9-1.3-1.4-1.7-2.5-1-2.8.6-.2 2-1 3-1.8 1.8-1.4 1.8-1.5-.6-3.2-1.4-1-2.9-1.8-3.5-1.8-1.5 0-4.5-5.3-4.5-8 0-1.9-.4-2.3-1.7-1.8-1.6.6-1.6.5-.5-1 .8-.9 1.1-2 .8-2.6-.3-.5 1.4-3.9 3.9-7.6 4-6.1 4.3-6.9 3.1-8.8-2.2-3.6-4.8-12.4-4.4-15.4.2-2.2.9-2.9 3.1-3.1 3.3-.4 25.4 7.8 31.1 11.5 2.1 1.3 6 3.1 8.6 3.9 5.3 1.6 13 7.8 16.4 13.3 3.3 5.4 4.5 10.7 5.6 24.5.7 9.4 1.5 13.6 3.1 16.7 1.2 2.5 2.5 7.8 3.1 13.6l1.1 9.6 5.5 4.1c10.3 7.6 11.5 9.2 10.9 13.6-.3 2.4-.1 4 .5 4s.7.7.4 1.6c-.4.9-.2 2.2.4 2.9.8 1 .8 1.9-.1 3.3-1 1.6-.9 2.5 1 5 1.2 1.7 3.1 5.2 4.2 7.7 2 4.4 2 5.9 1.4 26.3-.6 18.1-.4 22.3.8 25.2.8 1.9 1.8 7.4 2.2 12.3.5 6.2 1.3 9.4 2.6 11.1 2.4 3 2.4 3.6 0 3.6-1.1 0-2.9-1.2-4-2.8l-2-2.7.9 3.4c.5 1.9 1.4 3.9 2 4.5.5.5 1 1.8 1 2.9 0 3.6-3.5 1.2-6.3-4.3-2.5-4.9-2.7-5.1-2.1-2 .3 1.9 1.4 5.4 2.4 7.7 2 4.6 1.4 6-1.5 3.9-1.6-1.1-2.1-1.1-3.3 0-1.1 1.2-1.1 2.1-.1 5.2 1.9 5.7 6.8 16.8 16.4 37.2 8.1 17.1 16.5 39.1 16.5 43.2 0 1.7 2.9 1.8 47.5 1.8H512V0H169.8z"/><path d="M372.8 212.2c-.4 1-1 6.4-1.4 12-.6 9.9-.5 10.5 2 14.8 2.5 4.4 2.6 4.4 2.5 1.5-.2-9-2.5-29.7-3.1-28.3"/></svg>