<svg xmlns="http://www.w3.org/2000/svg" width="682.667" height="512" version="1.0" viewBox="0 0 512 384"><path d="M170.4 4.7c1.7 14.2 1.8 24.1.3 32.3-.9 4.7-1.9 11-2.2 14-.4 3-1.6 7.5-2.6 9.9s-1.9 4.9-1.9 5.5c-.1.6-.9 2.9-2 5.1s-2 4.7-2 5.5c-.1.8-1.1 3.3-2.3 5.6-1.2 2.2-3.1 5.8-4.2 8-1.1 2.1-3.7 6.1-5.7 8.9-2.1 2.7-3.8 5.5-3.8 6.2 0 .6-1.8 2.7-4 4.6s-4 3.7-4 4c0 .9-10.2 10.7-11.1 10.7-.5 0-.9.7-.9 1.5s-.9 1.5-1.9 1.5-2.1.6-2.4 1.4c-.6 1.6-19 14.6-20.6 14.6-.6 0-2.8 1-4.9 2.3-7.9 4.9-30.6 12.1-41.5 13.1-15.8 1.5-42.8.5-51-2-1.6-.5-1.7 5.3-1.7 113V384h281.5l2.3-14.8c2.7-16.8 4.6-24.4 10.9-42.7 5.7-16.7 8.6-28.3 11.8-47 1.4-8.3 3.9-22.3 5.6-31.3 2-10.7 2.7-16.7 2.1-17.5-.5-.7-1.5-4.6-2.1-8.7-1.8-11.7-1.9-11.8-4.8-12.5-6.2-1.4-10.3-7-10.3-14 0-3.8.9-6.6 3.5-11.5 1.9-3.5 3.5-6.8 3.5-7.3 0-1.4-4.4 0-16.1 5-5.9 2.4-11.7 4.3-13 4.1-2-.3-3.9-2.5-5.2-6.3-.2-.5-1.5-.2-3 .8-3.4 2.2-3.2 2.2-4.7-1.3l-1.2-3-7.2.7c-6.7.5-8.1.3-19.7-3.7-6.8-2.4-15.5-5.6-19.4-7.2-3.8-1.7-9.3-3.6-12.1-4.3s-6.9-2.4-9-3.9c-4.3-2.9-9.5-3.4-11.4-1.1-1.3 1.6-4 2.1-4 .7 0-.4.5-1.3 1.2-2 .9-.9.9-1.2-.3-1.2-.8 0-2 .5-2.7 1.2-1.7 1.7-2.8 0-1.4-2.3 1.1-1.8 1-1.9-1.3-1.3-3.2.8-3.2-.7-.1-4.3 2.3-2.7 2.8-2.8 11.3-2.8s9.3.2 16.9 4.2c5.6 2.9 11.5 4.9 20 6.8 6.5 1.5 15.9 3.8 20.7 5.1 11.6 3.2 18.6 1.9 18.7-3.5 0-1.3 1.4-1.2 5.3.4 1.3.6 2 0 2.8-2.3 1.4-4.1 3.3-4.5 11-2.8 7.1 1.7 31.7 2.6 33.7 1.3 1-.7.9-1.3-.3-3-2-2.8-1.9-3.4.5-4.2 1.1-.3 2-1.3 2-2.1 0-1.1-.9-1.3-3.8-.8-3.7.6-3.8.5-6.2-4.1-3.5-6.6-4.4-8.1-6-10-1.3-1.5-1.1-1.9 1.3-3.7 2.5-1.8 3.7-4.1 2-3.6-.5.1-1.9-.4-3.3-1.2-1.4-.7-2.6-1.1-2.8-.9-.8 1.3-4-6.2-3.5-8.2.5-1.8.3-2.1-1.1-1.6-1.1.4-1.5.3-1.1-.4.4-.5.8-2.1 1-3.4q.3-3.15 6.9-12c.6-.9.1-3.3-1.6-7.1-5.2-11.7-4.5-16.3 2.5-15.1 4.7.8 24.2 8.6 28 11.2 1.8 1.2 5.5 2.9 8.2 3.8 6.4 2.2 10.1 4.9 15.2 10.9 5 6.1 6.9 12.6 8.2 28.8.7 8.2 1.6 12.9 3.1 16.4 1.5 3.3 2.4 7.8 2.8 13.3l.5 8.3 6.6 4.9c10.1 7.5 11 8.8 10.9 14.8-.1 3 .4 5.9 1.2 6.8 1.1 1.3 1.1 1.8-.2 3.1-1.4 1.4-1.1 2.3 2.6 8.7l4.1 7.1-.3 16.6c-.1 9.1.2 20.5.8 25.5 2.4 21.5 3.7 28.5 5.3 30.3 2.2 2.4 2.1 3.2-.2 3.2-1.1 0-2.9-1.2-4-2.8l-2-2.7.9 3.4c.5 1.9 1.4 3.9 2 4.5.5.5 1 1.8 1 2.9 0 3.6-3.5 1.2-6.3-4.3-2.4-4.8-2.7-5.1-2.1-2 .4 1.9 1.5 5.4 2.6 7.9 2.2 5.1 1.8 6-1.7 3.7-1.4-.9-2.5-1.2-2.5-.6 0 .5-.7 1-1.5 1s-1.5.2-1.5.4c0 1.2 9.4 22.6 16.7 38.1 9.1 19.2 13.8 30.8 16.9 41.7l1.9 6.8H512V0H169.8z"/><path d="M370.2 218.8c-1.6 11.8-1.5 16.7.3 20.2.8 1.5 2.4 5.9 3.5 9.7l2 6.8-.6-13c-1.2-24.3-1.9-31.8-3-32.2-.6-.2-1.5 3.1-2.2 8.5"/></svg>