<svg xmlns="http://www.w3.org/2000/svg" width="682.667" height="512" version="1.0" viewBox="0 0 512 384"><path d="M170.4 4.7c1.7 14.2 1.8 24.1.3 32.3-.9 4.7-1.9 11-2.2 14-.4 3-1.6 7.5-2.6 9.9s-1.9 4.9-1.9 5.5c-.1.6-.9 2.9-2 5.1s-2 4.7-2 5.5c-.2 2.4-7.7 16.1-12.6 23-1.9 2.6-3.4 5.2-3.4 5.8s-1.8 2.6-4 4.5-4 3.7-4 4c0 .9-10.2 10.7-11.1 10.7-.5 0-.9.7-.9 1.5s-.9 1.5-1.9 1.5-2.1.6-2.4 1.4c-.6 1.6-19 14.6-20.6 14.6-.6 0-2.8 1-4.9 2.3-7.9 4.9-30.6 12.1-41.5 13.1-15.8 1.5-42.8.5-51-2-1.6-.5-1.7 5.3-1.7 113V384h281.5l1.8-11.8c3-19.2 4.6-25.7 11.2-45.7 6.2-18.7 9.3-32 13.5-56.5 1.2-6.9 3.1-17.2 4.2-22.9 2-10.5 2-12.3-.1-24.1-.7-3.6-1.4-7.9-1.7-9.6-.3-2.5-1.1-3.4-3.2-3.9-4.3-1.1-8.9-5.2-10.2-9.1-1.6-4.7-.6-9.6 3.5-17.1 1.9-3.4 3.1-6.4 2.6-6.7-1.1-.7-8.8 1.7-18.1 5.8-11.7 5.2-13 5-15.4-2.7-.6-1.8-.7-1.7-3.4.2l-2.8 2-1.7-2.9c-1.7-2.7-1.9-2.8-10.4-2.7-8.3.1-9.6-.3-24.2-5.6-8.4-3.2-16.6-6.4-18.1-7.2s-4.8-1.9-7.4-2.5c-2.5-.5-6.6-2.3-9.3-4-5.3-3.4-6.6-3.6-10.7-1.5-3.7 1.9-3.9 1.9-3.3-.6.5-1.8.2-2-2.4-1.4-3.2.7-3.6 0-1.4-2.5 1.4-1.5 1.2-1.6-1.5-1.2-3.5.5-3.8-.6-1-3.6 2.7-2.9 5.9-3.6 13.8-2.9 5.3.4 8.4 1.4 15.4 5.1 4.8 2.5 11.8 5.2 15.5 6 3.8.8 11.3 2.5 16.8 3.6 5.5 1.2 11.5 2.8 13.4 3.6 1.8.8 4.4 1.2 5.7.9s3.5-.7 4.8-1c1.6-.3 2.5-1.4 3-3.5.6-3 .6-3.1 3.5-1.5 3.7 1.9 4.1 1.9 4.1.1 0-.8.8-2.4 1.9-3.7l1.8-2.3 7.9 1.7c8.6 1.8 32.1 2.7 34.2 1.3 1.1-.6.9-1.3-.9-3.2l-2.2-2.3 2.7-1.2c4.2-1.9 3.3-4-1.5-3.7-3.9.3-4.3 0-6.6-3.7-1.3-2.2-2.8-5.2-3.4-6.7-.6-1.4-1.8-2.9-2.7-3.3-1.4-.6-1.2-1 1.3-3.1l3-2.4-2.5-2c-1.4-1.1-3-2-3.6-2-1.8 0-4.4-4.6-4.4-7.5 0-1.5-.4-2.4-1-2-.5.3-.8-.7-.5-2.5.4-3.3 5.9-12.6 7.7-13.2.7-.3 0-3.2-2.1-8.2-1.9-4.7-3.1-9-2.9-10.9.3-2.8.7-3.2 3.4-3.5 3.5-.3 28 8.9 31.1 11.7 1.1 1.1 4.7 2.7 7.9 3.7 4.7 1.5 7.2 3.1 12.1 7.9 7.5 7.5 8.9 11.6 10.4 29.7.8 9.7 1.6 14.2 3.6 19 1.5 3.7 2.8 9.3 3.2 13.7l.6 7.5 8 6.1c7.8 5.9 8 6.2 8.2 10.5.1 2.5.2 4.9.3 5.5.1.5.2 1.4.1 1.9-.1.4.3 1.4.9 2.1.8 1 .8 1.9-.1 3.3-1 1.6-.9 2.4 1 5 5.4 7.7 6 10.6 6.1 28.7.1 9.3.5 20.4 1 24.5 2.3 19.8 3.7 28 5.3 29.8 2.2 2.4 2.1 3.2-.2 3.2-1.1 0-2.9-1.2-4-2.8l-2-2.7.9 3.4c.5 1.9 1.4 3.9 2 4.5.5.5 1 1.8 1 2.9 0 3.6-3.5 1.2-6.3-4.3-2.4-4.8-2.7-5.1-2.1-2 .4 1.9 1.5 5.4 2.6 7.9 2.2 5.1 1.8 6-1.7 3.7-1.4-.9-2.5-1.2-2.5-.6 0 .5-.7 1-1.5 1s-1.5.2-1.5.5c0 1.5 7.5 18.7 16.9 38.9 6 12.9 12.7 28.8 14.8 35.5l3.8 12.1H512V0H169.8z"/><path d="M368.7 220.2c-2.2 14.3-2.1 16.1.3 22.6 1.1 2.9 2.6 9.9 3.3 15.5l1.3 10.2 1.4-6.9c1.3-7 1.1-14.4-1-39-.6-6.8-1.4-11.5-2.3-12.3-1.1-1.2-1.6.3-3 9.9"/></svg>