<svg xmlns="http://www.w3.org/2000/svg" width="682.667" height="512" version="1.0" viewBox="0 0 512 384"><path d="M170.4 4.7c1.7 14.2 1.8 24.1.3 32.3-.9 4.7-1.9 11-2.2 14-.4 3-1.6 7.5-2.6 9.9s-1.9 4.9-1.9 5.5c-.1.6-.9 2.9-2 5.1s-2 4.7-2 5.5c-.2 2.4-7.7 16.1-12.6 23-1.9 2.6-3.4 5.1-3.4 5.6s-1.8 2.5-4 4.4-4 3.8-4 4.2c0 1-10.1 10.8-11.1 10.8-.5 0-.9.7-.9 1.5s-.9 1.5-1.9 1.5-2.1.6-2.4 1.4c-.8 2.1-19.3 14.6-21.6 14.6-1.2 0-2.1.3-2.1.8 0 1.6-17.2 8.6-31.5 12.7-11.3 3.3-54.4 3.1-63.1-.2C.2 156.9 0 173.4 0 270.4V384h282v-2.5c0-3.7 3.9-27.1 5.6-34 .9-3.3 4.3-14.3 7.5-24.5 6-18.4 7.4-24.6 14.6-64 4.2-22.8 4.2-24.4 1.6-38.3l-1.8-9.8-4.5-2c-9.8-4.2-11.7-13.2-5.3-25 2-3.8 3.4-7.2 3-7.6-.9-.8-10 2.1-20.8 6.7-4.3 1.9-8.4 3-9.3 2.7-.9-.4-2.4-2.3-3.2-4.3-1.5-3.5-1.5-3.5-4-1.9-2 1.3-2.8 1.4-4 .4-.8-.6-1.4-1.7-1.4-2.4 0-.9-2.8-1.4-9.7-1.7-8.9-.4-11.2-1-25.3-6.3-8.5-3.2-16-6.1-16.6-6.6-.5-.5-3.7-1.5-7-2.4-3.2-.8-7.2-2.5-8.7-3.6-4.3-3.1-8.6-4.1-12.5-2.8s-5.1.6-3.2-1.7c1.2-1.4 1-1.5-2.3-.9-3.1.6-3.6.5-3.2-.8.4-.8 1.6-2 2.8-2.6 1.9-1 1.7-1.1-1.5-.6-4.3.7-4.9-.5-2-3.6 1.5-1.5 3.3-1.9 8.3-2 8.3-.1 10.7.5 21.2 5.8 6.8 3.4 12.9 5.3 26 8.4 9.5 2.2 18.6 4.5 20.3 5.1 2.2.8 4.6.8 7.5.2 3.5-.7 4.4-1.4 5.3-4.1 1-2.9 1.3-3 3-1.7 2.9 2 3.9 1.8 5.8-1.6 2-3.5 3.7-3.7 13-1.5 7 1.6 29.6 2.5 31.6 1.2 1-.7.9-1.3-.3-3-2-2.8-1.9-3.4.5-4.2 1.1-.3 2-1.3 2-2.1 0-1.1-.9-1.3-3.9-.8-3.7.6-4 .4-5.7-2.7-1-1.9-1.7-3.8-1.6-4.2s-.5-1-1.3-1.3c-.8-.4-1.5-1.3-1.5-2.2 0-.8-.8-2.4-1.7-3.4-1.7-1.9-1.6-2 .7-3.9l2.5-1.9-3-2.4c-1.6-1.3-3.3-2.2-3.6-2-.7.4-2.1-2.9-3.4-7.4-.4-1.2-1-2-1.4-1.8-.4.3-.6-.5-.5-1.7s.3-2.7.3-3.2c.1-.6 1.9-3.4 4.2-6.4l4-5.3-2.1-5.4c-4.6-11.3-4.4-16.4.6-16.4 2.1 0 8.5 2.2 23.8 8.2 1.6.6 4 2.1 5.5 3.3 1.4 1.2 5.3 3 8.6 4.1 4.8 1.4 7.3 3.1 12.2 7.9 5.4 5.3 6.4 6.9 8.2 13 1.1 3.9 2.3 11.9 2.6 18 .5 8.4 1.2 12.3 3.2 17 1.4 3.3 2.7 8.7 3 12 .7 9.6.9 9.9 8.7 15.9 4.2 3.1 7.9 6.4 8.5 7.3.5 1 .8 4 .7 6.8-.2 2.7.2 5.8.8 6.7.7 1.3.7 2.1-.1 2.9s-.1 3 2.8 8.3l3.9 7.2.6 21.5c.3 12.1 1.1 23.8 1.9 26.9.7 3 1.6 9 2 13.3.5 5.2 1.4 8.5 2.6 10.1 2.4 3 2.4 3.6 0 3.6-1.1 0-2.7-1-3.5-2.2-1.4-2-1.6-2-1.6-.4 0 1 1 3.4 2.1 5.3 2.4 3.8 2.1 4.8-1.1 3.8-1.3-.4-3.1-2.7-4.6-5.8-2.9-6.3-2.2-1.7.9 5.6 2.3 5.5 1.8 6.7-1.8 4.3-1.6-1-2.5-1.2-2.5-.5 0 .6-.9.9-1.9.6-1.9-.5-1.9-.4.1 5.2 2.7 7.1 9.5 22.3 19 42.1 4 8.5 9.1 21 11.3 27.8l3.9 12.2H512V0H169.8z"/><path d="M367.7 216.8c-.9 4.2-1.7 9.3-1.7 11.2s-.5 5.3-1 7.4c-1.1 5 2.2 20.3 6.8 30.6l1.5 3.5 1.3-5c.6-2.8 1.2-7.5 1.3-10.5.1-6.4-3.5-42.6-4.4-44-1.4-2.2-2.2-.6-3.8 6.8"/></svg>