<svg xmlns="http://www.w3.org/2000/svg" width="682.667" height="512" version="1.0" viewBox="0 0 512 384"><path d="M170.4 4.7c1.7 14.2 1.8 24.1.3 32.3-.9 4.7-1.9 11-2.2 14-.4 3-1.6 7.5-2.6 9.9s-1.9 4.9-1.9 5.5c-.1.6-.9 2.9-2 5.1s-2 4.7-2 5.5c-.2 2.4-7.7 16.1-12.6 23-1.9 2.6-3.4 5.1-3.4 5.6s-1.8 2.5-4 4.4-4 3.8-4 4.2c0 1-10.1 10.8-11.1 10.8-.5 0-.9.7-.9 1.5s-.9 1.5-1.9 1.5-2.1.6-2.4 1.4c-.8 2.1-19.3 14.6-21.6 14.6-1.2 0-2.1.3-2.1.8 0 1.6-17.2 8.6-31.5 12.7-11.3 3.3-54.4 3.1-63.1-.2C.2 156.9 0 173.4 0 270.4V384h282v-3c0-10.5 6.3-39.1 12-55 4.9-13.5 8.7-28.9 12.5-51 1.9-11.3 4.5-25.4 5.7-31.3 1.7-8.6 1.9-11.2.9-13-.6-1.2-1.7-6.2-2.4-11.1-1.2-8.4-1.5-9-4-9.7-4.5-1.2-8.4-4.7-10.1-9-2.1-5.2-1.5-8.4 3.1-16.8 5.3-9.9 4-10-16.5-1.8l-10.4 4.2-2.4-2.8c-1.3-1.6-2.4-3.5-2.4-4.3 0-1.8-1-1.8-3.9.2-1.9 1.4-2.5 1.4-3.2.3-.5-.8-.9-1.9-.9-2.5 0-.7-3.6-1.3-9.7-1.6-10.2-.6-15.8-2.3-39.8-12.2-4.4-1.8-9.6-3.6-11.5-4-1.9-.3-5.3-1.9-7.5-3.4-3.4-2.3-4.9-2.7-10.3-2.5-5.9.1-6.2 0-4.8-1.6 1.4-1.5 1.2-1.6-2.7-1.3l-4.2.3 2.3-2c2.9-2.5 2.8-2.8-.8-2.3-3.7.5-3.8-.7-.5-3.8 2.4-2.3 2.8-2.3 11.3-1.3 7.3.8 10.3 1.7 17.8 5.5 6.6 3.4 12.5 5.3 22.9 7.7 7.7 1.8 16.9 4.1 20.4 5.2 6 1.8 8.5 1.9 14.4.3 1-.3 1.7-1.5 1.7-2.8 0-3.2.9-3.8 3.4-2.1 2.9 2.1 4.3 1.9 5-1 1-3.8 3.5-4.6 9.7-2.9 6 1.6 29.9 3.6 32.7 2.8.9-.3 2.3-.8 3.1-1 1.1-.4.9-1-.9-2.9l-2.3-2.4 2.6-1.2c3.5-1.6 2.4-3.6-2-3.5-3.2.1-3.9-.4-6-3.9-1.3-2.2-2.8-5.2-3.4-6.8-.6-1.5-1.5-2.7-2-2.7-1.6 0-1-2.6 1.1-4.5 1.9-1.7 1.9-1.8-.5-3.7-1.4-1.1-2.9-1.7-3.4-1.3-1.3.8-4.1-4.7-4.1-8.1 0-2.3-.2-2.5-1.7-1.3-1.5 1.3-1.5 1.2-.5-.7.6-1.2.9-2.4.6-2.7-.8-.8 2.2-6.2 5.6-10.1l3-3.3-2.6-6.4c-1.5-3.5-2.7-8.4-2.8-10.9-.1-4.1.1-4.5 2.5-4.8 3.2-.4 28.5 9.1 31.3 11.7 1.2 1.1 3.5 2.3 5.1 2.7 7.3 1.7 14.8 7.3 20.2 15 2.7 3.9 5.1 14.9 5.7 26.6.3 6.6 1.1 11 2.4 14.1 2.2 5 4.1 13.1 4.5 19.2.2 3.6.8 4.4 7.6 9.6 8.5 6.6 10.2 9 9.1 13.1-.5 1.6-.5 3 .1 3.4.5.3.7.9.4 1.4s0 1.9.7 3c1.1 1.7 1.1 2.2-.2 3-1.2.7-.8 2.2 2.7 8.7l4.1 7.8.7 21.9c.4 13.1 1.2 23.7 2 26.5.8 2.5 1.7 8.1 2 12.4.5 5.2 1.3 8.5 2.6 10.1 2.4 3 2.4 3.6 0 3.6-1.1 0-2.7-1-3.5-2.2-1.5-2.1-1.6-2.1-1.6-.3 0 1.1.9 3.3 2 5 2.5 3.8 2.5 4.7-.2 4.3-1.5-.2-3.1-2-5-5.8-3.2-6.3-2.9-2.7.5 5.3 2.3 5.5 1.8 6.7-1.8 4.3-1.4-.9-2.5-1.3-2.4-.9.3 1.9-.2 2.3-2.1 1.3-1.1-.6-2-.8-2-.5 0 1.7 9.9 24.5 17.1 39.2 9.4 19.5 13.7 29.7 16.9 40.5l2.3 7.8H512V0H169.8z"/><path d="M367.6 215.8c-.8 3.8-2 10.4-2.5 14.8-.6 4.3-1.1 8.6-1.3 9.4-.6 3.6 6.9 27 9.5 29.6.7.7 2.7-11.4 2.7-16.3 0-2.3-.9-11.9-2-21.4-1.2-9.5-1.9-17.8-1.6-18.5s-.4-2-1.4-2.9c-1.7-1.6-1.9-1.3-3.4 5.3"/></svg>