<svg xmlns="http://www.w3.org/2000/svg" width="682.667" height="512" version="1.0" viewBox="0 0 512 384"><path d="M314 1.7c.1 2.9 4.3 12.5 7.8 17.5 3.7 5.4 4.7 4.6-7.8 6.8-11.6 2-27.1 9.4-39.5 18.6-8.6 6.4-12.1 10.1-17.9 18.4-6.4 9.1-7.9 12.2-11.5 22.9-4 11.8-6.5 16.7-10.4 20.8-4.1 4.4-1.2 4.5 3.8.2 4-3.5 4.3-2.8 2 4.7-1.8 6.1-1.8 5.9.2 4.3 1.5-1.2 1.6-1.2 1 .4-.3.9-.9 4.8-1.3 8.5-.6 6.5-.6 6.6 1.1 4.3 2.1-2.8 2.9-1.9 4 4.6 1 6.4 2.7 6.5 2 .1-.4-3.7-.2-4.7.4-3.3.5 1.1 1 3 1 4.2.1 3 3.3 8.1 4.8 7.6.6-.2 1.4.5 1.8 1.6.7 2.3 2.5 2.9 2.5.8.1-1.9 3 2.5 3 4.6 0 1.1.4 1.5 1.2 1.1.6-.4 1.7.1 2.5 1.1 1.2 1.8 1.3 1.7 1.4-.6.1-2.2.2-2 1.7 1.1l1.6 3.5.6-4c.5-3.4.6-3.6 1.1-1.5 1.1 5.2-1.1 11-5.7 15.6-2.4 2.5-4.4 5.1-4.4 5.8 0 1.5 5.5 6.6 7 6.6 1.9 0 4 3.3 4 6.3 0 4.4 2.2 7.3 6.1 8.1 4.8.9 6 2.4 5.3 6-.4 2.6 0 3.8 2.6 6.6 6 6.6 10 13.9 10 18.2 0 2.1-.5 4.9-1.1 6-1.2 2.3.5 4.2 3 3.3 1-.4 1.2.1.7 2.1-.4 1.5-.2 3.2.5 4 .6.7 1.7 5.3 2.4 10.1.8 4.9 1.9 12.1 2.7 16.1l1.2 7.4-5.7 5.5-5.8 5.6-3.5-5.4c-2-3-4.8-6.8-6.4-8.4-1.5-1.7-4.2-6-6-9.6-1.7-3.6-4.9-8.9-7-11.7-3.5-4.6-3.8-5.4-2.9-8.4.5-1.8.9-6.7.9-10.8-.1-15.1-4.7-28.2-11.9-33.8-3.6-2.7-3.8-2.7-18.9-2.7H223l-.1-3c0-1.7-.4-3.8-.8-4.8-1.2-3.3-3.1.5-2.9 5.7l.3 4.7-8.8 3.3c-5.3 2-10.2 4.7-12.1 6.5-1.8 1.7-3.7 3.1-4.3 3.1-2 0-3.3 2.7-5.8 12.3-3.1 11.9-3.1 11.7 0 23 5.2 18.8 5.2 18.8 13 27.8 6.3 7.5 8.2 9 13.3 11l5.9 2.3-2.7 5.5c-4.4 8.9-6.9 17.6-9.5 33.1-1.3 8-3.2 16.7-4.1 19.5-1.2 3.8-1.7 9.3-1.8 23.3l-.2 18.2H233l30.5-.1 4.3-9.2c4.3-9.2 15.4-25.7 17.3-25.7.6 0 .8.4.5.8-1.2 1.9-2.8 23.6-2.1 28.7l.6 5.5h7c6.5 0 6.9-.1 7-2.3v-2.2l.9 2.3.9 2.2h165.3l8.6-3.1c4.8-1.6 10.9-4.4 13.6-6.2l4.9-3.1-3.2-1.1-3.3-1.1 4.1-4.9 4.1-5-5.9-.3c-6-.3-6.2-.2-17.3 6.9-11.6 7.4-18.2 10.8-20.8 10.9-1.8 0-5.2-7.3-4.4-9.4.6-1.7-2.2-15.5-3.6-17.1-.4-.5-.8-2.6-.9-4.5 0-1.9-1.7-9.3-3.6-16.5-2-7.2-4.1-15.3-4.6-18-.6-2.8-1.6-5.7-2.4-6.5-.7-.8-1-2.1-.8-2.8.3-.8-.2-3.2-1-5.5-2.3-6.4-3.2-14-1.5-13.5.7.3 1.9 2.7 2.5 5.3 1.9 7.5 2.4 8.4 3.3 6 .7-1.8.9-1.8 1.5-.3.4.9 1.2 1.5 1.9 1.2.9-.3 2.6 2.6 5.1 8.3 4.1 9.7 7.5 16.3 8.5 16.3.8 0 .3-5.4-2.6-26.8-1.3-10-2.4-18.6-2.4-19s1.8 2.6 4 6.7c2.1 4.1 4.3 7.8 4.8 8.3s-.9-6-3-14.4c-3.3-12.9-4-17.2-4.2-27.5-.2-6.7.1-12 .5-11.7.5.3.9 1.7.9 3 0 4 5.7 20 10.9 30.4 4.9 9.9 11.9 21.5 12.6 20.8.2-.2-.9-4.6-2.6-9.8-5.6-17.9-7.7-33-3.5-25 4.3 8 15.4 24 16.7 24 .4 0-.4-5.1-1.7-11.2-2.5-11.5-4.3-33.6-6.4-75.1-2.2-44.9-9.4-81.5-22-112.8-2.7-6.8-5.8-15.7-6.9-19.9-2.5-9.9-6.8-18.9-13.2-27.4-9.3-12.2-18.5-17.1-31.9-16.9l-7.5.2-5.4-8-5.4-7.9h-33.9C316.3 0 314 .1 314 1.7m-49.3 141.5c-.3.7-.5.2-.5-1.2s.2-1.9.5-1.3c.2.7.2 1.9 0 2.5m1 4c-.3.8-.6.5-.6-.6-.1-1.1.2-1.7.5-1.3.3.3.4 1.2.1 1.9m62.7 77.4c.6 1.6 0 3.4-1.2 3.4-.4 0-.7-1.1-.7-2.5 0-2.8 1-3.3 1.9-.9"/></svg>