<svg xmlns="http://www.w3.org/2000/svg" width="682.667" height="512" version="1.0" viewBox="0 0 512 384"><path d="M170.4 4.7c1.7 14.2 1.8 24.1.3 32.3-.9 4.7-1.9 11-2.2 14-.4 3-1.6 7.5-2.6 9.9s-1.9 4.9-1.9 5.5c-.1.6-.9 2.9-2 5.1s-1.9 4.6-2 5.4c0 1.9-8.5 17.4-12.7 23.2-1.8 2.6-3.3 5-3.3 5.5s-1.8 2.5-4 4.4-4 3.8-4 4.2c0 1-10.1 10.8-11.1 10.8-.5 0-.9.7-.9 1.5s-.9 1.5-1.9 1.5-2.1.6-2.4 1.4c-.8 2.1-19.3 14.6-21.6 14.6-1.2 0-2.1.3-2.1.8 0 1.6-17.2 8.6-31.5 12.7-11.3 3.3-54.4 3.1-63.1-.2C.2 156.9 0 173.4 0 270.4V384h282v-4.3c0-9.6 5.1-33.4 10.9-51.4 7.7-23.5 9.2-29.9 14.1-58.8 2.3-13.2 4.7-26.8 5.5-30.3 1.3-5.4 1.3-6.7.1-9-.8-1.5-1.7-5.4-2-8.7-1.1-9.9-1.3-10.3-5.9-12.3-6-2.7-8.8-6.2-9.4-11.7-.5-3.9 0-5.7 3.1-11.9 3.9-7.9 4.3-9.6 2.4-9.6-2 0-12.6 3.5-19.5 6.4-8.9 3.7-11 3.5-13.2-1.4l-1.8-4-2.6 2-2.5 2-1.3-2.9c-1.3-2.8-1.5-2.9-10.8-3.4-8.6-.4-11.3-1.1-25.7-6.5-8.8-3.3-17-6.4-18.1-7s-4.1-1.6-6.6-2.2c-2.6-.5-6.7-2.3-9.4-4-5-3.2-7.5-3.6-11.9-2-3.2 1.2-4.2.6-2.4-1.5 1.1-1.3.8-1.5-1.9-1.5-3.2 0-4.2-1.6-1.6-2.6.8-.4 1.5-1.1 1.5-1.6 0-.6-.7-.8-1.5-.4-.8.3-2.2.3-3.1-.1-2.8-1.1 2.3-5.3 6.5-5.3 7 .1 17.3 3 24.4 6.9 6 3.3 10.6 4.7 25.6 8.1 10.1 2.2 19.4 4.6 20.8 5.4 3.8 2 11.2 0 12.6-3.3.6-1.4 1.2-2.8 1.4-3 .1-.2 1.4.4 2.9 1.3 1.4 1 2.7 1.6 2.9 1.4.1-.2 1-1.8 1.9-3.6 1.9-3.6 2.9-3.8 10.6-1.7 8 2.2 29.1 3.8 32.5 2.5 2.6-1 2.7-1.2 1.1-2.9-2.2-2.4-2-3.8.5-4.6 3.3-1.1 1.6-3-2.4-2.7-3.2.2-3.8-.1-5.4-3-.9-1.8-1.6-3.7-1.5-4.1s-.5-1-1.3-1.3c-.8-.4-1.5-1.3-1.5-2.2 0-.8-.7-2.4-1.6-3.4-1.6-1.6-1.5-1.9.7-3.8 2.4-2 2.4-2 .4-3.5-1.1-.8-2.6-1.9-3.2-2.5-.7-.6-1.3-.8-1.3-.4s-.9-.5-2-1.9-2-3.7-2-5.2c0-2.5-.2-2.6-1.7-1.4-1.6 1.3-1.7 1.2-.5-.2.7-.9 1.2-2.1 1.1-2.5-.4-2.4.5-4.4 4.2-9.3l4-5.3-1.9-4.7c-5-11.6-5.1-17.1-.2-17.1 3.6 0 28.1 9.5 30.7 12 1.1.9 4.6 2.5 7.8 3.5 7.7 2.2 17.3 11.4 19.8 19 2 6.1 3.7 17.1 3.7 24.8 0 3.9.8 7.7 2.6 12 1.7 3.9 2.9 9.1 3.3 14.1.6 6.2 1.1 8.2 2.7 9.5 1.2.9 4.8 3.7 8.2 6.3 6.6 5.1 8.4 8.6 6.3 12.1-1 1.5-1 2.1-.1 2.7.6.4 1 1.1.9 1.6s.1 1.7.6 2.7c.4 1 .2 2.3-.4 3.1-.9 1.1-.2 3.1 3 9.1l4.2 7.8.9 22.1c.5 14.8 1.3 23.4 2.2 26.1.8 2.2 1.8 7.5 2.2 11.8.5 6.2 1.2 8.5 3 10.7 2.1 2.5 2.2 2.9.7 3.4-1 .4-2.5-.2-4-1.5-2.9-2.8-3-1-.1 4.1 1.3 2.1 2 4.2 1.6 4.5-1.3 1.4-4.6-1.6-6.7-6-1.2-2.5-2.3-4.5-2.6-4.5-.5 0 1.8 7.7 3.5 11.3 1.6 3.2.9 4.3-1.8 2.8-1.3-.7-2.2-.7-2.9 0-.8.8-1.8.4-3.3-1.1l-2.2-2.2.7 2.4c1.9 6.2 10.2 25.2 16.3 37.6 7.6 15 15.5 34 18.2 43.6l1.7 6.1 47.6.3 47.7.2V0H169.8z"/><path d="M368.1 213.5c-1.8 6-4.3 25.3-4.2 31.3.1 3.6 1.1 7.5 3 11.5 1.6 3.4 3.4 8 4.1 10.2s1.6 4.4 2 4.8c.3.4 1.3-3.1 2-7.9 1.2-7.8 1.2-10.1-.8-25.8-1.2-9.4-2.2-18.7-2.2-20.7 0-1.9-.6-4.4-1.4-5.4-1.3-1.8-1.5-1.7-2.5 2"/></svg>