<svg xmlns="http://www.w3.org/2000/svg" width="682.667" height="512" version="1.0" viewBox="0 0 512 384"><path d="M170.4 5.7c.3 3.2.8 7.4 1.1 9.3 1.1 8-3 41.3-5.9 46.7-.9 1.8-1.6 3.8-1.6 4.5-.1.7-.9 3.1-2 5.3s-1.9 4.6-2 5.4c0 1.9-8.5 17.4-12.7 23.2-1.8 2.6-3.3 5-3.3 5.5s-1.8 2.5-4 4.4-4 3.8-4 4.2c0 1-10.1 10.8-11.1 10.8-.5 0-.9.7-.9 1.5s-.9 1.5-1.9 1.5-2.1.6-2.4 1.4c-.8 2.1-19.3 14.6-21.6 14.6-1.2 0-2.1.3-2.1.8 0 1.6-17.2 8.6-31.5 12.7-11.3 3.3-54.4 3.1-63.1-.2C.2 156.9 0 173.4 0 270.4V384h280.6l1.3-10.3c2-16.4 4.7-28.5 10.6-46.4 7.2-21.7 8.9-28.7 12.5-50.1 1.7-9.7 4.2-23.6 5.6-30.9 2.3-12.1 2.4-13.5 1.1-17.5-.8-2.3-1.8-7.2-2.1-10.8l-.7-6.5-5.2-2.5c-6.1-2.9-8.6-6.2-9.4-11.7-.4-3.4.1-5.3 3.6-11.9 2.2-4.3 3.7-8.2 3.2-8.7-1-1-10.1 1.2-19.5 4.8-10 3.8-13.7 3.3-14.8-2-.2-1.1-1-1.9-1.8-1.8s-2.4.3-3.5.5c-1.2.2-2.3-.5-2.9-1.8-.9-1.9-2-2.2-10-2.7-8-.4-11.3-1.3-27.6-7.1-10.2-3.7-20.6-7.3-23.3-8.1-2.6-.7-6.9-2.7-9.5-4.5-4.3-2.9-5.1-3.1-10.2-2.5l-5.5.7 2-2.2 2-2.2-4.2.7c-5 .8-5.8-.6-1.5-2.9l2.7-1.5-3.1-.1c-4 0-4.8-.9-2.7-3.2 3.5-3.9 17.9-1.3 30.1 5.3 6.1 3.3 10.3 4.6 26 7.9 10.3 2.2 19.7 4.5 20.9 5.1 3.5 1.8 12.7 0 13.1-2.6.6-3.2 1.9-3.8 4.3-2.1 3.2 2.2 3.5 2.1 4.8-1.4.9-2.7 1.5-3 5-3 2.2 0 5.2.5 6.8 1.1 7 2.7 33.3 4.5 33.3 2.3 0-.3-.7-1.6-1.6-2.9-1.5-2.2-1.4-2.5.5-3.7 3.6-2.2 2.6-3.9-1.8-3.2-3.9.6-4 .5-6.1-3.7-2.8-5.7-4.3-8.3-5.9-10.3-1.1-1.3-.9-1.9 1.4-3.9l2.7-2.3-4-1.9c-4.3-2.1-7.2-5.9-7.2-9.5 0-2-.2-2.1-1.7-.9-1.6 1.3-1.7 1.2-.4-.4.8-.9 1.1-2 .8-2.3-.8-.9 2.6-7.4 5.9-11.3 2.6-3.1 2.6-3.3 1.1-6.9-5.6-13-5.8-17.3-.8-18 2.7-.4 25.3 8.1 30.5 11.5 2.1 1.3 6.1 3.1 9 4 4 1.2 6.5 2.9 11.7 8.1 5.9 6.1 6.7 7.4 8.3 13.7 1 3.8 2 11.5 2.3 17 .5 7.8 1.2 11.6 3.4 17.2 1.6 3.9 2.9 8.5 2.9 10.1s.3 5 .6 7.6c.6 4.3 1.2 5 7.9 10.1 8.6 6.6 10.4 9.3 8.6 13.2-.9 2-.9 2.8 0 3.3.6.4.8 1.3.4 1.9-.4.7-.1 1.8.5 2.6 1 1.2 1 1.8.1 2.9-1 1.2-.4 2.9 2.8 8.8 4.5 8.2 4.6 9 6.1 35.4.5 9.3 1.4 18.3 2.1 20 .6 1.6 1.7 7.4 2.4 12.8 1.1 8.1 1.8 10.3 3.5 11.6 1.1.9 1.8 1.9 1.4 2.3-1.4 1.4-4.2.7-5.7-1.5-1.1-1.6-1.6-1.9-1.6-.8-.1.9 1 3.2 2.4 5.3 2.2 3.2 2.4 3.8 1 4.3-2.1.8-4-1-6.5-6.2-1.2-2.4-2.3-4.4-2.5-4.4-.7 0 1.4 6.2 3.6 10.7 2.5 5.1 2 6.3-1.6 3.9-1.4-.9-2.5-1.2-2.5-.6 0 1.8-2.9 1-4.5-1.3-.8-1.2-2.5-5.3-3.6-9-1.1-3.8-2.3-6.7-2.6-6.4-1.1 1.2 9.2 28.8 17.3 45.8 13.4 28.6 16.9 36.6 20.5 47.6l3.3 10.3H512V0H169.7z"/><path d="M368.6 212.9c-.6.9-3.7 25.5-3.7 29.1-.1 5.5 1.7 15.1 3.2 18.2 1.1 2.1 1.9 4.1 1.9 4.6s.7 2.7 1.7 4.8l1.6 3.9 1.3-6.5c1.8-9.3 1.7-12.4-1.2-30.8-1.4-9.1-2.6-18-2.7-19.8-.3-3.6-1.2-5.1-2.1-3.5"/></svg>