<svg xmlns="http://www.w3.org/2000/svg" width="682.667" height="512" version="1.0" viewBox="0 0 512 384"><path d="M170.4 5.7c.3 3.2.8 7.4 1.1 9.3 1.1 8-3 41.3-5.9 46.7-.9 1.8-1.6 3.8-1.6 4.5-.1.7-.9 3.1-2 5.3s-1.9 4.6-2 5.4c0 1.9-8.5 17.4-12.7 23.2-1.8 2.6-3.3 5-3.3 5.5s-1.8 2.5-4 4.4-4 3.8-4 4.2c0 1-10.1 10.8-11.1 10.8-.5 0-.9.7-.9 1.5s-.9 1.5-1.9 1.5-2.1.6-2.4 1.4c-.8 2.1-19.3 14.6-21.6 14.6-1.2 0-2.1.3-2.1.8 0 1.6-17.2 8.6-31.5 12.7-11.3 3.3-54.4 3.1-63.1-.2C.2 156.9 0 173.4 0 270.4V384h279.9l.5-3.3c.3-1.7 1.5-9 2.6-16.2 2.5-15.7 3.7-20.6 9.6-37.7 6.8-20.2 8.9-29.3 14.9-64.8.9-5.2 2.5-14 3.6-19.5 1.6-7.6 1.8-10.4.9-12-.6-1.1-1.6-5.8-2.3-10.5l-1.2-8.4-5-2.5c-2.7-1.4-6-4.1-7.2-6-3.4-5.1-3-9.6 1.7-18.5 2.5-4.6 3.6-7.7 2.9-8.1-1.4-.9-9.5 1.1-18.5 4.6-11.2 4.3-14.4 3.9-15.9-2.3-.7-2.7-.8-2.7-3.7-1.2-1.6.9-3.1 1.4-3.3 1.2-.1-.2-.7-1.2-1.3-2.4-.9-1.8-2.4-2.2-9.5-2.7-8-.7-28.4-6.7-45.5-13.6-2.9-1.1-6.1-2.1-7-2.1-1 0-4.2-1.6-7.2-3.6-5-3.2-5.9-3.5-10.7-3-5.4.6-6.8-.3-3.5-2.4 1.3-.9.8-1-2.5-.7-5.3.6-6-1.7-1-3.2l3.2-.9-3.7-.1c-2-.1-3.9-.5-4.2-.9-.7-1.2 3.1-5.2 5-5.2 5.6 0 17.9 3.7 25 7.5 6.9 3.7 10.6 4.9 26 8 9.8 2.1 19.5 4.4 21.3 5.1 4.8 2 14.1.2 14.1-2.6 0-2.7 1.6-3.3 4.8-1.6 2.7 1.4 2.8 1.4 3.9-1.5 1-2.5 1.6-2.9 5.1-2.9 2.3 0 5.3.5 6.9 1.1 7 2.7 33.3 4.5 33.3 2.3 0-.3-.7-1.5-1.6-2.8-1.4-2.3-1.4-2.5.7-4 2.8-1.9 1.8-3.1-2.7-3.1-3.2 0-3.7-.4-6.7-6-1.8-3.3-3.8-6.4-4.4-6.8-1.9-1.2-1.6-2.7 1.2-4.9 1.4-1.1 2.5-2.4 2.5-3s-.3-.8-.7-.5c-.3.4-1.7 0-3.1-.9-1.3-.8-2.6-1.3-2.9-1-.8.7-4.3-6.4-4.3-8.7 0-1.7-.2-1.8-1.7-.6-1.2 1-1.5 1-.9.1.4-.7.9-2.5 1.2-4s2.3-5.3 4.5-8.4c3.1-4.6 3.7-6.1 2.9-7.5-1.9-3.5-5-12.4-5-14.7 0-3.2 2.4-5 5.9-4.3 4.9 1 27 9.9 28.9 11.7 1 1 4.5 2.5 7.6 3.4 8.2 2.4 17.7 11.7 20.1 19.6 1.7 5.9 3.5 18.8 3.5 25.7 0 2.4 1.1 6.7 2.6 9.9 1.6 3.6 2.9 8.6 3.4 14.2 1 9.6 0 8 12 18.1 5.1 4.3 5.2 4.5 4.7 8.8-.2 2.4 0 4.6.5 4.9s.7 1.2.4 1.9c-.2.7.1 1.8.7 2.4.8.8.7 1.5-.5 2.7-1.5 1.5-1.4 2 1.3 6.4 5.4 8.8 5.9 11 7.4 33.9.8 12 2 23.1 2.6 24.7s1.7 7.2 2.4 12.4c1 7.4 1.7 9.8 3.4 11.1 2.7 2.2 2.7 2.9-.3 2.9-1.4 0-3.2-1-4-2.2-1.1-1.5-1.6-1.8-1.6-.8 0 .9 1.1 3.2 2.5 5.2 3 4.4 3 4.8.7 4.8-2.4 0-4.7-2.5-6.7-7.3-.8-2-1.7-3.7-1.9-3.7-.8 0 1.2 6 3.5 10.7 2.5 5.1 2 6.3-1.6 3.9-1.4-.9-2.5-1.2-2.5-.6 0 1.8-2.9 1-4.5-1.3-.8-1.2-2.5-5.3-3.6-9-1.1-3.8-2.3-6.6-2.6-6.3-1.5 1.5 11.4 35 20.7 53.5 6.7 13.5 13.2 29 17 40.3l3.2 9.8H512V0H169.7z"/><path d="M368.7 213.5c-1.8 4.6-3.6 28.2-2.7 35.6.9 7.3 5.8 23.9 7.1 23.9.8 0 2.9-11.4 2.9-15.8 0-1.8-.7-7.8-1.6-13.5-.9-5.6-2.4-15.2-3.3-21.2-1.1-7.5-1.9-10.4-2.4-9"/></svg>