<svg xmlns="http://www.w3.org/2000/svg" width="682.667" height="512" version="1.0" viewBox="0 0 512 384"><path d="M170 3.8c0 2.1.5 6.3 1 9.3 1.7 9-2 42.1-5.4 48.6-.9 1.8-1.6 3.8-1.6 4.5-.1.7-.9 3.1-2 5.3s-1.9 4.6-2 5.4c0 1.9-8.5 17.4-12.7 23.2-1.8 2.6-3.3 5-3.3 5.5s-1.8 2.5-4 4.4-4 3.8-4 4.2c0 1-10.1 10.8-11.1 10.8-.5 0-.9.7-.9 1.5s-.9 1.5-1.9 1.5-2.1.6-2.4 1.4c-.8 2.1-19.3 14.6-21.6 14.6-1.2 0-2.1.3-2.1.8 0 1.6-17.2 8.6-31.5 12.7-11.3 3.3-54.4 3.1-63.1-.2C.2 156.9 0 173.4 0 270.4V384h279.7l1.8-11.8c2.7-18.5 5.2-28.8 10.9-45.9 6.8-20 8.7-27.9 13.1-53.8 2-11.6 4.5-25.2 5.6-30.3 1.9-8.5 1.9-9.6.6-12.5-.8-1.8-1.8-6.4-2.2-10.2-.8-7.7-1.7-9.5-4.8-9.5-1.1 0-3.9-2-6.3-4.4-3.9-3.8-4.4-4.8-4.4-8.9 0-3.3 1-6.5 3.5-11.3 1.9-3.7 3.5-7.3 3.5-8.2 0-1.9-4.6-1.1-17.4 3.4-12.1 4.2-14.9 4.3-16.4.9-.7-1.4-1.2-3.2-1.2-4 0-1.9-1-1.9-4 .2-1.4 1-2.5 1.3-2.7.6-1.3-3.8-3.1-4.6-11.9-5.3-6.9-.6-12.6-2-25.5-6.3-9.1-3.1-17.9-6.3-19.5-7.2-1.6-.8-4-1.5-5.4-1.5s-5-1.6-8-3.6c-5.2-3.3-5.9-3.5-11.4-3-5.9.6-5.9.6-4.1-1.4s1.7-2-1.9-2c-4.2 0-4.6-2-.5-3.1 2.2-.5 2-.7-1.3-1.4-2.1-.4-3.8-1.1-3.8-1.5 0-1.4 3.7-4 5.9-4 5.3 0 17.3 3.6 25.1 7.5 5.9 3 11.7 5 19 6.5 5.8 1.2 15.3 3.2 21.1 4.6 5.8 1.3 11.7 2.4 13.2 2.4 4.1 0 7.7-1.8 7.7-3.8 0-2.8 1-3.3 3.4-1.7 2.8 2 4.3 1.9 5.1-.5 1.2-3.7 3.7-4.1 11.9-2 10.6 2.8 27.4 4.4 31 3l2.9-1.1-2.3-2.4-2.3-2.4 2.7-1.2c4.2-1.9 3.3-4-1.5-3.7-3.9.3-4.3 0-6.5-3.7-1.4-2.2-2.9-4.9-3.4-6-.6-1.1-1.5-2.8-2.2-3.7-1-1.4-.8-2 1.5-3.8 1.5-1.2 2.7-2.6 2.7-3.2s-.3-.8-.7-.5c-.3.4-1.7 0-3.1-.9-1.3-.8-2.6-1.3-2.9-1-1 1-4.3-5.3-4.3-8 0-1.4-.4-2.3-.9-2-2.4 1.5-.3-5.4 3.3-10.8l4.2-6.2-2.2-5c-4.9-11.1-4.8-16.4.1-16.4 3.4 0 28.4 9.7 31 12 1.1.9 4.7 2.6 8 3.6 4.8 1.4 7.2 3 12.2 7.9 7.4 7.4 8.9 11.5 10.4 29.5.8 9.1 1.8 14.1 3.6 18.4 1.3 3.2 2.8 9.5 3.3 14 1 8.9-.3 7 13.3 19 2.8 2.5 3.7 4.1 3.7 6.4 0 1.7-.5 3.4-1 3.7-.7.4-.7 1.1-.2 1.8 1.6 2 2.2 6 1.1 7.3-.7.9.3 3.7 3.4 9.7 4.2 7.8 4.5 9.1 5.1 18.3 1.6 23.5 2.6 34.4 3.7 37.1.6 1.5 1.7 7.1 2.4 12.3 1.1 7.3 1.8 9.9 3.4 11.1 2.7 2.2 2.6 2.9-.3 2.9-1.4 0-3.2-1-4-2.2-1.1-1.5-1.6-1.8-1.6-.8 0 .9 1.1 3.2 2.5 5.3 2.2 3.2 2.4 3.8 1 4.3-2.1.8-4.5-1.3-6.6-6.1-1-2.2-1.9-3.2-1.9-2.3 0 1 1.1 4.3 2.5 7.4 2.7 6.1 2.6 7.5-.4 5.7-1-.7-2.8-.9-3.9-.6-2.6.6-5.5-3.8-7.2-10.9-.7-2.6-1.6-5.1-2.1-5.4-1.4-.8-1.1.6 2.5 11.2 4.6 13.5 8.7 23.4 20.1 47.4 8.9 18.7 16.5 38.3 16.5 42.4 0 1.5 4.4 1.6 48.5 1.6H512V0H170z"/><path d="M368.7 214c-1 2.5-3.1 21.4-2.9 27 .2 6.7 2.6 20.8 4.6 26.5l2.4 7 1.3-3c2.1-5.3 1.5-21.7-1.4-38.5-1.4-8.5-2.8-16.6-3-18-.2-1.8-.5-2.1-1-1"/></svg>