<svg xmlns="http://www.w3.org/2000/svg" width="682.667" height="512" version="1.0" viewBox="0 0 512 384"><path d="M170.6 9.7c1.9 21.1-1.1 44.1-7.6 58.8-1 2.2-2.1 5.6-2.5 7.5-.7 3.3-3.3 8.9-4.6 10-.3.3-1.4 2-2.4 3.9-3.2 6.4-13.6 21.1-15.6 22.1-1 .6-1.9 1.7-1.9 2.5 0 .7-.9 1.7-2 2s-2 1-2 1.5c0 1-8.9 10-9.9 10-.3 0-1.4.8-2.2 1.7-3.5 3.8-13.5 10.2-27.9 17.8-4.9 2.6-18.6 7.4-27.5 9.6-14.7 3.6-53.8 3.8-63.1.2C.2 156.9 0 173.4 0 270.4V384l139.2-.2 139.2-.3 2.7-16c3.1-18.9 4.3-23.3 10.8-42.5 6.1-17.9 8.2-26.3 11.6-45.5 1.4-8.3 4-22.2 5.6-30.9 2.3-11.9 2.8-16.5 2-18-.8-1.7-3.1-15.2-3.1-18.5 0-.5-2-1.6-4.5-2.5-10.3-4-12.5-13.4-6-25.3 1.9-3.5 3.5-6.6 3.5-6.8 0-1.6-6.6-.4-25.9 5-5 1.3-5.6 1.3-7.3-.2-1-.9-1.8-2.6-1.8-3.8 0-3.2-.9-3.6-4.1-2-3.6 1.9-3.9 1.9-3.9-.4 0-3-2-3.8-11-4.5-8.4-.6-20.3-3.7-39.5-10.1-5.5-1.8-11.3-3.6-12.9-4-1.6-.3-4.9-2.1-7.4-3.8-4-2.9-5.1-3.2-10.6-3l-6.1.3 2.5-2.1 2.5-2-4.2.6c-3.5.5-4.3.4-4.3-.8 0-.9 1.2-2 2.8-2.5l2.7-1-3-.1c-4.6-.2-5.8-1.4-3.5-3.4 4.1-3.5 18.6-.7 30.1 5.9 5.7 3.3 8.4 4 25.8 7 10.7 1.8 20.7 3.8 22.2 4.5 1.8.7 4.9.9 8.3.5 5-.7 5.5-1 6.1-3.6l.6-2.9 3.4 2 3.3 2 1.4-2.8c1.7-3.7 5.2-4 13.1-1.3 3.4 1.2 9.4 2.5 13.2 2.9 3.9.4 7.5.9 8 1.1 1.5.6 9.5-.9 9.5-1.8 0-.4-.7-1.6-1.5-2.6-2-2.6-1.9-3.3.5-3.9 1.1-.3 2-1.2 2-2 0-1.2-.9-1.4-3.9-1-3.8.5-4 .4-6-3.5-1.1-2.2-2.5-4.3-3.1-4.7-.5-.3-1-1.3-1-2.2s-.8-2.2-1.7-2.9c-1.7-1.2-1.6-1.5 1.1-4.3 1.6-1.7 2.6-3.4 2.3-3.8-.4-.3-.7-.1-.7.6 0 .8-1.3.3-3.2-1.1-1.8-1.3-3.5-2.3-3.8-2.3-.9.1-3-4.7-3-6.7 0-1.5-.5-1.8-1.6-1.4-1.4.5-1.5.4-.5-.8.6-.7.9-2 .6-2.8s1.3-4.2 3.5-7.7l4.1-6.3-3.1-7.3c-6.1-14.7-4-16.3 13.2-10.5 12.1 4.1 17 6.2 19.8 8.4.8.7 4.2 2 7.4 3 4.6 1.4 7.3 3.1 11.8 7.3 7.4 7.2 9.5 12.5 10.9 28.5.7 8.9 1.7 13.7 3.5 18.1 2.1 4.9 4.4 17.3 4.4 23.9 0 1 3 4.3 6.7 7.3 8.6 7.1 10 9.5 7.9 13.7-2 3.8-2 3.8 0 3.8 1 0 1.4.6 1.1 1.4-.3.7 0 1.9.6 2.5.9 1 .8 1.5-.6 2.5-1.6 1.2-1.4 1.9 2.7 9.7l4.4 8.4 2.2 21c1.2 11.5 3 23.9 4 27.5s2.2 9.6 2.5 13.4c.5 5.4 1.2 7.3 3.1 9.1 1.3 1.2 2.1 2.5 1.7 2.8-1.3 1.4-4.2.6-5.7-1.5-1.1-1.5-1.6-1.8-1.6-.8 0 .9 1.1 3.2 2.5 5.3l2.6 3.7h-2.5c-1.8 0-3.2-1.1-5.1-4.2-3-4.8-2.5-1.8.7 4.5 2.2 4.4 1.7 5.7-1.4 3.8-1.7-1.1-2.2-1.1-3 .1-1.4 2.1-5.3-3.2-7.9-10.9-1.3-3.7-2.5-6-2.7-5.1-.8 3.7 8.6 28.1 19.6 50.9 9.1 19 14.1 31 17.3 42.2l2.3 7.7H512V0H169.8z"/><path d="M366.2 220c-1.5 8.7-1.4 17.4.4 23.5.8 2.7 1.7 8.9 1.9 13.6.5 8.4 3.8 20.9 4.8 17.9.3-.8 1-4.7 1.6-8.5 1-6.1.9-8.5-.9-18-1.2-6.1-3-16-4.1-22-2.5-14.2-2.4-14.1-3.7-6.5"/></svg>