<svg xmlns="http://www.w3.org/2000/svg" width="682.667" height="512" version="1.0" viewBox="0 0 512 384"><path d="M170.6 9.7c.5 5.4.8 13.2.7 17.3-.3 11.9-4.2 32.4-7.8 40.5-.7 1.6-2 5.3-2.8 8.1-1.4 4.8-3.4 9.2-4.8 10.4-.3.3-2.2 3.4-4.3 7-5.6 9.8-11.4 17.8-13.6 19-1.1.6-2 1.7-2 2.5 0 .7-.9 1.7-2 2s-2 1-2 1.5c0 1.2-8.5 9.6-10.5 10.3-.8.4-1.5 1.3-1.5 2.2 0 .8-.5 1.5-1.2 1.5s-3.7 1.7-6.8 3.8c-4.5 3.2-13.8 8.6-21 12.3-4.2 2.1-18.6 7-26.5 9-14.7 3.6-53.8 3.8-63.1.2C.2 156.9 0 173.4 0 270.4V384h277.8l.5-2.3c.3-1.2 1.5-8 2.7-15.2 2.7-16.7 3.9-21 10.9-41.8 6.5-19.3 8.7-28.4 13.1-53.7 1.6-9.6 3.9-22.2 5-27.9 1.6-7.9 1.9-11 1.1-13-.9-2.2-3-14.4-3.1-17.7 0-.6-2-1.9-4.5-2.8-10.3-4-12.5-13.4-6-25.3 1.9-3.5 3.5-6.6 3.5-7 0-1.1-10.3.9-19.5 3.8-11.6 3.7-13.6 3.6-15.2-1.1-1.1-3.4-2.1-3.9-5.4-2.6q-1.5.75-2.7-1.8c-1.2-2.7-2.9-3.2-14.7-4-4.6-.3-12.4-2.2-23-5.6-8.8-2.9-18.8-6-22.1-6.9-3.4-.9-8.1-3-10.5-4.6-3.8-2.6-5.3-3-10.8-2.9-6.4.1-6.4.1-4.2-1.8l2.3-1.8h-3.5c-4.3 0-5.7-1.7-2.5-2.9 2.2-.9 2.2-1-.9-1.6-1.8-.4-3.3-1.1-3.3-1.5 0-1.5 3.7-4 5.9-4 5 0 18.4 4.3 26.3 8.3 7.2 3.8 9.9 4.6 20.8 6.2 6.9 1 15.4 2.4 19 3.2 12.6 2.8 21 2.8 21 0 0-.7.4-1.8.9-2.6.7-1.1 1.3-1.1 3.2.3 3.2 2.2 3.6 2.1 5.4-1.4 1.9-3.7 3.5-3.8 13.8-.5 4.3 1.4 9.9 2.5 12.5 2.6 2.6 0 5.6.4 6.7.8 1.7.7 9.3-.3 10.3-1.4.2-.2-.3-1.4-1.2-2.7-2.1-2.9-2-3.5.4-4.1 1.1-.3 2-1.2 2-2 0-1.2-.9-1.4-3.9-1-3.8.5-4 .4-6.3-3.7-3.3-6.1-4.2-7.6-5.8-9.5-1.2-1.4-1-1.9 1.4-4.2l2.7-2.5-3.3-1.7c-1.8-.9-3.6-1.3-3.9-.9-.7 1.1-3.9-5.7-3.9-8.3 0-1.5-.5-1.9-1.5-1.5-1.2.4-1.3.2-.6-1.3.6-1 .8-2.1.5-2.4-.7-.7 2.1-6.2 5.2-10.3l2.4-3-3.1-7.3c-1.8-4.3-2.9-8.5-2.7-10.4.3-2.8.7-3.2 3.6-3.5 3.9-.4 25.7 7 30.7 10.4 1.8 1.2 4.8 2.5 6.6 2.9 5.7 1.2 10.2 4 15.6 9.7 6.2 6.7 8 11.7 9.4 27.7.7 7.2 1.9 13.1 3.1 16 3.2 7.2 3.7 9.7 3.9 18.1.1 4.3.5 8.2.8 8.8.3.5 3.9 3.7 7.9 7.1 6.2 5.3 7.2 6.6 7.2 9.4 0 1.8-.6 3.9-1.2 4.5-.9.9-1 1.5-.2 2 1.7 1.1 2.6 6.2 1.4 7.7-.8.9 0 3.3 3.1 8.9 4.1 7.7 4.1 7.8 6.5 28.9 1.3 11.7 3.2 24.6 4.3 28.7s2.2 10.1 2.5 13.4c.3 4 1.1 6.5 2.5 8 1.2 1.2 2.1 2.5 2.1 2.9 0 1.3-3.9.7-5.4-.9-2.4-2.4-2.1.7.4 3.9 1.9 2.4 2.6 4.7 1.4 4.7-1.7 0-4.7-2.5-6.4-5.3-3-4.8-2.4-1.2.7 4.4 2.9 5.5 2.6 7-1.2 4.5-1.4-.9-2.5-1.2-2.5-.6 0 .5-.7 1-1.5 1-2 0-5.2-5.2-7.2-12-.9-3-1.8-4.8-2-3.9-.2.8 1.6 7.1 4.1 14 5.4 15.1 6 16.5 14.8 34.8 8 16.7 14.3 32.1 17.8 43.3l2.4 7.8H512V0H169.8z"/><path d="M366.7 216.6c-.4 1.1-1.1 6.5-1.7 12-.7 7.8-.6 10.8.4 13.9.8 2.2 1.7 7.6 2.1 12 .7 8 4.2 22.1 5.3 21 .3-.3 1.1-4 1.8-8.3 1.2-7.4 1.1-8.5-2.6-27.7-2.1-11-4-21.1-4.2-22.5-.3-2.3-.4-2.4-1.1-.4"/></svg>