<svg xmlns="http://www.w3.org/2000/svg" width="682.667" height="512" version="1.0" viewBox="0 0 512 384"><path d="M170.7 9.7c1.9 22-.5 39.7-8.4 61.8-2.7 7.5-5.4 13.7-6.4 14.5-.3.3-1.4 2-2.4 3.9-3.2 6.4-13.6 21.1-15.6 22.1-1 .6-1.9 1.7-1.9 2.5 0 .7-.9 1.7-2 2s-2 1-2 1.5c0 1.2-8.5 9.6-10.5 10.3-.8.4-1.5 1.3-1.5 2.2 0 .8-.5 1.5-1.2 1.5s-3.7 1.7-6.8 3.8c-4.5 3.2-13.8 8.6-21 12.3-4.2 2.1-18.6 7-26.5 9-14.7 3.6-53.8 3.8-63.1.2C.2 156.9 0 173.4 0 270.4V384h277.8l1.7-9.7c3.8-22.1 5.9-30.5 11.9-48.2 7.1-20.9 9.4-29.9 13.1-51.6 1.4-8.3 3.7-20.8 5.1-27.9 2.1-10.6 2.4-13.6 1.5-16.5-.6-2-1.5-6.9-2.1-11s-1.3-7.7-1.5-8.2c-.3-.4-1.8-1-3.5-1.4-1.6-.3-4.5-2.5-6.6-4.7-3.4-3.9-3.6-4.3-3.2-9.8.3-4.4 1.3-7.2 4.1-12l3.7-6.2-4.2.7c-2.4.4-8.1 2.1-12.8 3.7-11.9 4.1-11.7 4.1-14.4 3.4-1.9-.5-2.7-1.5-3.2-4.1-.7-4-.6-4-4.3-2.1-2.6 1.4-2.8 1.3-4.5-1.5s-2-2.9-9.4-2.9c-6.4 0-10.7-.9-24.2-4.9-9.1-2.8-19.1-5.9-22.2-7-3.2-1.2-6.5-2.1-7.4-2.1-1 0-3.8-1.3-6.4-3-5-3.2-7.7-3.8-12.7-2.6-3.2.7-4.6-.5-2.3-1.9 2.2-1.3.8-2.3-2.5-1.8-2.8.4-3.5.2-3.5-1.1 0-.9.6-1.6 1.4-1.6s1.8-.4 2.1-1c.4-.6-.5-.7-2.3-.4-3.8.8-4.9-.9-2.2-3.6 3.8-3.8 16.7-1.6 30.2 5.1 6.6 3.3 10.1 4.2 26 6.9 10.1 1.7 19.5 3.5 21 4.1 3.3 1.4 13.8.3 14.3-1.4 1.4-5 1.3-4.9 3.7-3.3 3 2.1 4.1 2 5.3-.6 1.8-4 3.7-4.3 11.7-2 9.3 2.8 25 3.9 30.2 2.2l3.8-1.2-2.3-2.5c-2-2-2.1-2.5-.9-3.3.8-.5 1.8-1 2.3-1 .4 0 .7-.6.7-1.4 0-1.1-1-1.3-3.9-.9-3.7.5-4 .3-5.6-3-.9-2-2.3-4.1-3.1-4.8-.8-.6-1.4-1.6-1.4-2.2s-.8-1.9-1.7-2.9c-1.5-1.7-1.5-2 .5-3.9 3-2.7 2.8-3.4-1.8-4.9-2.2-.7-4-1.9-4-2.7 0-.7-.4-1.3-.9-1.3s-1.2-1.6-1.5-3.5c-.4-2-1.1-3.3-1.5-3.1-.4.3-.6-.5-.5-1.7s.3-2.7.3-3.2c.1-.6 1.7-3.5 3.7-6.5l3.5-5.4-3.1-6.7c-4-8.6-3.9-14.2.1-14.7 3.3-.4 25.7 6.9 31.4 10.2 2.4 1.5 5.2 2.6 6.2 2.6 3.4.1 10.8 4.1 15.1 8.3 7.4 7.1 9.7 13.4 11.2 29.7.6 7.3 1.5 11.4 3.5 15.7 2.1 4.6 2.8 8.2 3.5 17.2l.9 11.4 4.8 4.3c2.6 2.4 5.1 4.3 5.5 4.4.3 0 1.6 1.6 2.8 3.5 2 3.3 2.1 3.7.6 6.7-1.2 2.3-1.3 3.4-.5 3.9 1.6 1 2.1 6.2.6 7.1-.8.5.1 3.2 3.1 9.2 2.3 4.7 4.4 10.5 4.7 12.8.3 2.4 1.4 12.6 2.6 22.8 1.1 10.2 2.6 20.3 3.4 22.6.7 2.2 1.6 7.3 1.9 11.2.4 7 1.8 11.2 3.6 11.2.6 0 1 .4 1 1 0 1.6-3.2 1.2-5.2-.7-2.5-2.3-2.4 0 .3 4.4 1.2 1.9 1.9 3.6 1.6 3.9-1.3 1.3-4.5-.9-6.3-4.1-2.7-5.1-3-3.4-.4 3 2.4 6 2.1 7.8-.9 5.1-1.7-1.6-1.9-1.6-2.5 0-.6 1.5-.9 1.4-3.2-.7l-2.6-2.4 2.1 5.2c1.2 2.9 3 7.4 4 10 1 2.7 4.9 11.1 8.6 18.8 8.5 17.8 14.6 32.7 18 43.7l2.6 8.8H512V0H169.8z"/><path d="M366.2 221.1c-2.9 7.2-.9 33.1 3.5 46.4 2.3 7.1 2.7 7.7 3.6 5.5 2-5.4 1-20-2.6-37.5-3-14.5-3.6-16.6-4.5-14.4"/></svg>