<svg xmlns="http://www.w3.org/2000/svg" width="682.667" height="512" version="1.0" viewBox="0 0 512 384"><path d="M170.7 9.7c.4 5.4.7 13.2.6 17.3-.3 8.1-3 27.3-4.3 30.5-.5 1.1-1.2 3.1-1.5 4.5-1.8 6.9-8.2 22.8-9.6 24-.3.3-1.4 2.1-2.4 4-2.5 4.9-11.4 18-14.2 21-9.3 9.8-16.4 16.8-17.8 17.3-.8.4-1.5 1.3-1.5 2.2 0 .8-.6 1.5-1.3 1.5s-3.2 1.4-5.4 3c-4.4 3.3-23 14-24.2 14-.4 0-3.6 1.2-7.2 2.6-14.2 5.7-24 7.5-44.1 8.1-16.9.5-31.4-.5-36.4-2.4C.2 156.9 0 173.4 0 270.4V384h278l.5-2.3c.2-1.2 1.4-7.8 2.5-14.7 2.7-16.2 4.9-24.4 11-41.8 6.1-17.5 9.1-29.1 12.5-49.2 1.4-8.5 3.7-21.4 5.2-28.5 2.1-10.9 2.4-13.7 1.5-17.5-.6-2.5-1.4-6.8-1.7-9.5-1.2-9.4-1.5-10.3-4.2-11-3.5-.8-8.2-4.5-9.9-7.7-2.4-4.6-1.7-9.2 2.6-17.3l4-7.7-3.2.7c-1.8.4-8.7 2.5-15.3 4.7l-11.9 4-1.8-2.2c-1-1.2-1.8-3-1.8-3.9 0-2.8-1.2-3.2-3.8-1.5-2.1 1.4-2.6 1.4-3.3.3-.5-.8-1.2-2-1.7-2.6-.5-.8-4.5-1.5-10.3-1.9-9-.6-37.2-7.6-43.9-10.9-1.4-.7-4.4-1.5-6.8-1.8-2.3-.3-6.4-1.9-9.1-3.6-5.2-3.4-7.1-3.7-12-2-4.1 1.4-5.3.3-2.1-2.1l2.4-1.8-4.7.5c-3.2.4-4.7.2-4.7-.6 0-.6.7-1.4 1.5-1.7 2-.8.9-2.4-1.6-2.4-2.3 0-2.4-.4-.2-3 3.3-3.8 18.1-1.6 30.1 4.4 6.2 3.1 9.5 3.9 26.8 6.6 10.8 1.7 20.5 3.5 21.5 4.1 2.5 1.3 10.5.1 12.4-1.8.8-.8 1.5-2.1 1.5-2.9 0-1.8.4-1.8 4.1.1 2.8 1.5 3 1.5 3.8-.8 1.9-4.9 3.5-5.2 11.9-2.6 6.3 2 9.8 2.4 19.4 2.4 13.1 0 15.5-.9 12.3-4.5-1.6-1.8-1.7-2.3-.5-3 .8-.6 1.8-1 2.3-1 .4 0 .7-.6.7-1.4 0-1.1-1-1.3-3.9-.9-3.8.5-4 .4-6.3-3.7-1.3-2.3-2.9-5.3-3.6-6.6s-1.7-2.4-2.3-2.4c-1.6 0-1-2.5 1.1-4.3 1.1-.9 2-2.1 2-2.6 0-.7-3.6-2.2-6.2-2.5-1.5-.2-4.8-5.6-4.8-8.1 0-1.4-.4-2.4-.8-2.1-2.8 1.7 1-9.4 5.1-14.8 1.3-1.8 1.1-2.7-1.9-9-3.9-8-4.4-13.1-1.5-14.1 1-.3 3.8-.1 6.2.5 8.2 1.9 24.9 7.9 27.8 9.9 1.6 1.2 4 2.1 5.3 2.1 4 .1 10.1 3.5 16 9.2 4.8 4.7 5.9 6.4 7.7 12.6 1.2 3.9 2.4 10.8 2.8 15.4.4 5.3 1.4 10.4 3 14.3 4.2 10.3 5.2 15.1 4.6 22.8l-.6 7 7.6 7.2c6.3 5.9 7.7 7.7 7.7 10.2 0 1.7-.7 3.6-1.6 4.4-1.4 1.2-1.4 1.4.2 2.6 1 .7 1.5 1.6 1.1 1.9-.4.4-.2 1.3.5 2.1.8 1 .7 1.6-.5 2.6-1.4 1.1-1.2 2.1 2.5 9.5 3.3 6.9 4.2 10 4.9 17 3.2 32.3 3.9 38 4.9 40.7.7 1.6 1.6 7 2 12 .7 7.3 1.3 9.2 3 10.5 1.1.9 1.8 1.9 1.4 2.3-1.2 1.2-3.7.8-5.7-1.1-1.1-.9-1.8-1.3-1.6-.7.3.5 1.4 2.7 2.4 4.7 1.1 2.1 1.6 4 1.3 4.3-1.3 1.3-5-1.8-7-5.8-1.6-3.5-1.8-3.7-1.3-1.2.3 1.6 1.5 4.8 2.5 6.9 2.2 4.6 2 5.4-1.5 3.8-1.5-.7-2.6-.8-3-.1-.4.5-1.1.7-1.6.4-.5-.4-.9-.2-.9.3 0 1.6 7.8 19.8 13.7 32.2 8 16.6 13.6 30.2 16.8 40.7l2.8 9.3H512V0H169.8z"/><path d="M366.7 222c-2 13.2-.5 34.5 3.1 45 2.5 7 2.7 7.3 3.3 4.5 1.8-8.2.3-22.6-5.5-52.5-.1-.8-.6.5-.9 3"/></svg>