<svg xmlns="http://www.w3.org/2000/svg" width="682.667" height="512" version="1.0" viewBox="0 0 512 384"><path d="M170.7 9.7c.4 5.4.7 13.4.6 17.8-.3 8.6-2.8 26.7-4.3 30-.5 1.1-1.2 3.1-1.5 4.5-2 7.6-8.6 24-9.7 24-.5 0-.8.6-.8 1.3 0 1.4-6.1 11.4-8.4 13.8-.9.9-1.6 1.9-1.6 2.4 0 2.2-22 25.5-24.1 25.5-.5 0-.9.7-.9 1.5s-.6 1.5-1.3 1.5c-.6 0-3.5 1.6-6.2 3.6-2.8 1.9-8.3 5.3-12.2 7.5-4 2.2-7.5 4.4-7.8 5-.4.5-1.6.9-2.9.9-1.2 0-2.6.3-2.9.6-1.1 1.1-10.6 4.3-20.7 7-8 2.2-12.4 2.7-28.2 3.1-16.9.5-31.4-.5-36.4-2.4C.2 156.9 0 173.4 0 270.4V384h279l.5-2.3c.2-1.2 1.4-7.8 2.5-14.7 2.7-16.3 4.1-21.4 10.5-40.3 7.8-22.6 9.3-28.7 14.6-58.7 1.7-9.6 3.9-21.5 5-26.3 1.4-6.3 1.6-9.3.9-10.7-.5-1-1.5-5.4-2.1-9.7-1.6-11.9-1.7-12.3-4.1-12.3-1.1 0-4.1-2-6.6-4.5-4.4-4.4-4.4-4.6-4-10 .3-3.8 1.4-6.9 3.6-10.5 1.8-2.8 3.2-5.4 3.2-5.6 0-1-6.4.8-15.4 4.2-4.8 1.9-10.1 3.4-11.7 3.4-2.4 0-3-.5-4-4-1.4-4.4-1.7-4.6-4.5-2.5-2.6 2-3.1 1.9-3.8-.8-.5-2.3-1.1-2.4-11.7-3.1-11.3-.7-28.8-3.9-41-7.6-3.6-1.1-8.3-2-10.5-2s-5.6-.9-7.7-2c-4.8-2.6-10.1-2.6-13.8.1-3 2.1-3.7 1.3-1.9-2.2 1-1.8.8-1.9-3-1.3-4.3.7-5 0-2.2-2.3 1.6-1.3 1.5-1.4-.9-.9-3.5.8-4 0-2.2-3.4 1-2.1 2.4-3.1 5-3.6 6.1-1.1 17.4.3 24.8 3.1 5.6 2.1 11 3.1 26.5 4.6 10.7 1.1 20.7 2.4 22.1 3 2.8 1.1 11 .4 14.2-1.3.9-.5 1.7-1.8 1.7-2.8 0-2.4.3-2.4 4.1-.5 2.9 1.6 3 1.6 4-1.4 1.5-4.2 3.5-4.5 12.6-2.1 4.3 1.2 10.8 2.1 14.5 2.1 7 .1 17.8-1.7 17.8-2.9 0-.4-.7-1.8-1.6-3-1.4-2.1-1.4-2.3 1-3.2 4-1.5 3.2-3.1-1.3-2.4-3.7.6-3.9.4-7-4-1.7-2.6-3.1-5.1-3.1-5.5 0-.5-1-1.5-2.2-2.4l-2.3-1.5 2.3-2.4c1.2-1.3 2.2-2.7 2.2-3 0-.6-3.6-2-5.7-2.2-1.8-.2-5.3-5.2-5.3-7.6 0-1.4-.5-2-1.3-1.7-2.3.9-1.1-4.8 2.4-11.5l3.4-6.3-3.8-7.5c-4.4-8.6-4.7-13.3-.9-13.8 3-.5 28.8 6.5 32.7 8.8 1.7 1 5.4 2.3 8.4 2.9 6.7 1.4 10.5 3.7 16.3 9.8 5.2 5.6 8.3 14.3 9.7 26.8.5 5.4 1.8 10.1 3.8 14.5 4.8 10.3 5.8 15.7 4.7 25l-.9 8 6.3 6.3c7.1 7 8.2 9.5 5.7 13.3-1.3 2.1-1.4 2.8-.5 3.4 1.8 1.1 2.1 5.6.6 6.9-.9.8-.3 2.9 2.7 9.1l3.9 8.1.9 20.2c.5 11.1 1.6 23.8 2.4 28.2s1.7 11.4 2 15.4c.4 5 1.1 8.1 2.2 9.4 1.5 1.6 1.5 1.9.3 2.8-1.1.6-2.1.2-3.7-1.7-1.9-2.1-2.3-2.2-2.3-.7.1 1 .7 2.9 1.5 4.3 1.9 3.4 1.8 4-.5 4-1.5 0-2.7-1.5-4.5-5.2-2.2-4.7-2.4-4.9-1.9-1.8.4 1.9 1.3 5 2 6.9 1.8 4.3 1.8 5.5-.1 4.7-.8-.3-1.5-.2-1.5.2 0 2 8.4 21.5 18 41.7 2.9 6 7.3 17.2 9.8 24.7l4.6 13.8H512V0H169.8z"/><path d="M369 236.7c.1.5.7 3.3 1.5 6.3 1.2 4.5 1.4 4.7 1 1.5-.3-2.2-.5-5-.5-6.3 0-1.2-.4-2.2-1-2.2-.5 0-1 .3-1 .7m2.7 15.8c-.9 2.7-1.2 14.3-.4 15.1 1.6 1.6 2.8-5.3 2-11.1-.6-4.1-1.1-5.4-1.6-4"/></svg>