<svg xmlns="http://www.w3.org/2000/svg" width="682.667" height="512" version="1.0" viewBox="0 0 512 384"><path d="M170.7 9.7c.4 5.4.7 13.4.6 17.8-.3 8.6-2.8 26.7-4.3 30-.5 1.1-1.2 3.1-1.5 4.5-2 7.6-8.6 24-9.7 24-.5 0-.8.6-.8 1.3 0 1.4-6.1 11.4-8.4 13.8-.9.9-1.6 1.9-1.6 2.4 0 2.2-22 25.5-24.1 25.5-.5 0-.9.7-.9 1.5s-.6 1.5-1.3 1.5-3.1 1.3-5.3 2.9c-4.7 3.5-22.9 14.1-24.2 14.1-.4 0-3.7 1.2-7.3 2.6-14.2 5.7-24 7.5-44.1 8.1-16.9.5-31.4-.5-36.4-2.4C.2 156.9 0 173.4 0 270.4V384h280v-2.6c0-3 3.5-23.2 5.5-31.9.7-3.3 3.9-13.2 7-22 5.4-15.5 10.1-33.2 12.5-46.5.6-3.6 2.7-15.1 4.7-25.5 2-10.5 3.6-20.1 3.5-21.5-.1-2.1-2.3-15.4-3.7-22.5-.3-1.2-1.8-2.6-3.8-3.3-1.8-.6-4.6-2.6-6.3-4.3-2.5-2.6-2.9-3.8-2.9-8.8.1-4.6.7-6.6 3.3-11 1.8-2.9 3.1-5.5 2.8-5.8-.2-.3-5.1 1.2-10.8 3.2-5.7 2.1-12 3.9-14 4.2-3.9.5-4.3.2-6.2-6-.5-1.6-.8-1.7-3.5-.2-3.8 1.9-3.8 1.9-4.5-.9-.5-2.2-1-2.3-12.3-2.9-8.3-.4-16.4-1.7-27.3-4.2-8.5-2-18.6-4.2-22.5-4.9-3.8-.6-8.6-2-10.6-3-4.3-2.2-7.9-1.6-10.9 1.6-2.5 2.7-3.7 1.7-2.1-1.8 1-2.3 1-2.6-.5-2-.9.3-2.7.9-4.1 1.2-2.3.6-2.4.4-1.8-1.6.6-1.9.4-2.1-1.5-1.5-2.1.7-2.2.5-1.6-2.1 1.3-5.2 2.7-5.8 13.3-5.9 8.1 0 11.2.5 17.8 2.7 6.2 2.1 12.1 3 26.5 4.3 10.2.9 20 2.1 21.8 2.6 2.9 1 8.6.6 13.5-.7.9-.3 1.7-1.4 1.7-2.4 0-2.7 1.7-3.3 4.2-1.6 3.1 2.2 3.4 2 4.7-1.4.5-1.7 1.7-3.3 2.5-3.6s4.7.3 8.8 1.4c11.7 3.3 14.9 3.5 24.7 1.7 5-1 9.1-2 9.1-2.3s-.8-1.4-1.7-2.5c-1.7-1.9-1.7-2 .5-3.4 3.3-2.2 2.7-3.2-1.6-2.6-3.6.5-3.8.3-7.1-4.8-1.9-3-4.1-5.9-4.9-6.6-1.5-1.3-1.3-2.4 1.4-6.1 1.6-2.1 1.5-2.2-.4-2.2-1.2 0-2.4-.5-2.7-1-.3-.6-1.4-1-2.4-1-1.9 0-5.1-5.3-5.1-8.5 0-1-.5-1.3-1.2-.9-2.1 1.3 0-6.8 3.2-11.8l3-4.9-4-7.5c-2.2-4.2-4-8.6-4-9.8 0-2.7 1.8-4.6 4.2-4.6 3 0 29.4 7.7 31.9 9.3 1.3.8 4.4 1.8 6.9 2.2 6.3 1 10.7 3.5 16.6 9.3s8.9 13.4 10.5 26.6c.6 5.5 2.1 10.8 4.7 16.6 3.6 8.2 3.7 8.9 3.8 20.7v12.2l6.2 6.5c6.6 6.8 7.5 9.5 4.5 12.9-1.7 1.8-1.7 1.9 0 2.8 1 .6 1.5 1.5 1.1 2-.3.5-.1 1.6.6 2.4.9 1 .7 1.6-.6 2.3-1.6.9-1.5 1.7 2 9.3l3.8 8.4.9 20.5c.5 11.3 1.4 23 2 26s1.4 9.9 1.8 15.2c.5 6.9 1.2 10.3 2.4 11.6.9 1 1.4 2.2 1 2.5-1.4 1.5-3.4.5-5.3-2.6-2.5-4.1-2.6-1.5 0 4 1 2.4 1.5 4.5 1 4.8-1.9 1.2-4-1-5.9-5.8-2.5-6.6-2.7-3-.1 4.3 1.5 4.5 1.6 5.6.5 6.2-1.7 1-.5 4.1 12.2 31.8 9.4 20.2 14.8 33.9 17.3 43.7l1.1 4.3H512V0H169.8z"/><path d="M370.2 238c0 1.4.2 1.9.5 1.2.2-.6.2-1.8 0-2.5-.3-.6-.5-.1-.5 1.3m1.8 17.2c0 1.9-.3 5.7-.6 8.4-.4 4.2-.3 4.6.7 2.9.7-1.1 1.2-4.6 1.1-7.9-.1-6.3-1.2-9.3-1.2-3.4"/></svg>