<svg xmlns="http://www.w3.org/2000/svg" width="682.667" height="512" version="1.0" viewBox="0 0 512 384"><path d="M170.7 9.7c.4 5.4.7 13.4.6 17.8-.3 8.6-2.8 26.7-4.3 30-.5 1.1-1.2 3.1-1.5 4.5-2 7.6-8.6 24-9.7 24-.5 0-.8.6-.8 1.3 0 1.4-6.1 11.4-8.4 13.8-.9.9-1.6 2-1.6 2.6s-2 3.2-4.5 5.9c-2.5 2.6-4.5 5-4.5 5.2 0 .3-11.9 11.8-15.7 15.1-4.9 4.3-29 19.1-31.1 19.1-.4 0-3.7 1.2-7.3 2.6-14.2 5.7-24 7.5-44.1 8.1-16.9.5-31.4-.5-36.4-2.4C.2 156.9 0 173.4 0 270.4V384h279.6l1.2-8.3c2.8-18.2 5.8-30.2 12.7-51.2 6.4-19.3 10.9-36.8 13-51.5.4-2.5 2.3-12.6 4.2-22.5 2.4-12.6 3.2-18.5 2.5-19.6-.6-.9-1.6-6-2.3-11.3-1.2-9.1-1.5-9.9-3.8-10.8-11.4-4.3-13.7-14.1-6.1-26.1l3-4.7-2.8.6c-1.5.4-7 2.2-12.2 4-5.2 1.9-10.7 3.4-12.3 3.4-2.7 0-2.9-.3-5.2-6.8-.4-1-1.2-.8-3.5.8-2.4 1.7-3 1.8-3 .6 0-3.5-2.9-4.6-12-4.6-5 0-13.1-.9-18.7-2-5.4-1.2-13.1-2.7-17.1-3.5s-8.2-1.9-9.2-2.5c-1-.5-3.9-1-6.5-1s-6.3-.9-8.5-2c-5.5-2.8-8.2-2.5-11.9 1.2l-3.1 3.2v-2.5c0-1.4.6-3.1 1.3-3.8 1.3-1.5.9-1.4-3.5.9-3.4 1.6-4.7.7-3-2.1 1.2-1.9 1.1-1.9-.8-.9-2.6 1.4-4.3.5-3.1-1.8.5-.9 1.2-2.5 1.5-3.4 1.3-4.3 17.4-5.1 28.1-1.3 5.4 1.9 11.2 2.9 25 4 9.9.9 20.1 2 22.7 2.6s7.1.8 10.3.4c4.8-.6 5.8-1.1 6.8-3.4.6-1.4 1.2-2.8 1.3-3 .2-.1 1.3.4 2.6 1.3 3.1 2.2 3.8 2 4.9-1.3.6-1.6 1.7-3.2 2.5-3.5s5.8.5 11.1 1.9c5.2 1.4 10.8 2.5 12.5 2.5 3 0 18-2.9 18.7-3.6.2-.2-.4-1.3-1.5-2.5-1.8-2-1.8-2.1.1-3.5 1-.8 2.2-1.4 2.7-1.4.4 0 .8-.4.8-1s-1.8-.7-4.2-.4l-4.3.5-3.4-5.6c-1.8-3.1-3.9-5.9-4.7-6.2-2-.7-1.7-2.7.6-4.8 2.5-2.3 2.5-3.5.1-3.5-1.1 0-2.2-.4-2.6-1-.3-.5-1.2-.7-1.9-.4-1.5.6-4-2.8-5-6.9-.3-1.5-1.1-2.5-1.6-2.2-2 1.2-.2-6.3 2.8-11.9l3.1-5.8-3.9-7.5c-4.3-8-4.9-11.3-2.5-13.3 1.3-1.1 4.2-.7 16.3 2.4 8.1 2.1 16.1 4.6 17.7 5.6 1.7 1 5 2.1 7.5 2.5 6.2 1 10.6 3.5 16.5 9.1 6.1 5.9 8.9 12.7 10.9 26.4.9 6.2 2.4 11.8 4.3 16 4.9 10.4 5.8 15.6 4.6 25.2l-1 8.3 6.4 6.7c6.6 7 7.6 9.6 4.8 13.5-1.4 2-1.4 2.3.2 3.2 1 .5 1.5 1.3 1.1 1.7-.5.4-.3 1.3.3 2 .7.9.5 1.5-.9 2.3-1.8.9-1.7 1.4 1.9 8.6 4.1 8.6 4.5 10.7 5.5 37 .3 8.8 1 18 1.6 20.5.5 2.5 1.3 8.9 1.7 14.3.6 7.9 1.1 10 2.7 11.1 1.9 1.4 1.9 1.5 0 2.2-1.4.5-2.5 0-4.3-2-2.7-3.2-2.9-2.2-.7 3.4.9 2.3 1.3 4.4 1 4.8-1.3 1.3-4.1-1.6-5.8-5.9-1.4-3.7-1.7-4-1.7-1.7-.1 1.5.4 3.9 1.1 5.5.6 1.5 1.2 4.8 1.3 7.3.2 3.4 3.1 10.7 11.5 29 6.2 13.4 13.1 30.2 15.4 37.2l4.1 12.8H512V0H169.8z"/><path d="M372.2 262c0 1.9.2 2.7.5 1.7.2-.9.2-2.5 0-3.5-.3-.9-.5-.1-.5 1.8"/></svg>