<svg xmlns="http://www.w3.org/2000/svg" width="682.667" height="512" version="1.0" viewBox="0 0 512 384"><path d="M170.7 9.7c.4 5.4.7 13.4.6 17.8-.3 8.8-3.1 28.4-4.3 30-.4.5-1 2.3-1.4 4-1.6 7-8.6 24.5-9.8 24.5-.5 0-.8.6-.8 1.3 0 1.4-6.1 11.4-8.4 13.8-.9.9-1.6 2-1.6 2.6s-2 3.2-4.5 5.9c-2.5 2.6-4.5 5-4.5 5.2 0 .3-11.9 11.8-15.7 15.1-4.9 4.3-29 19.1-31.1 19.1-.4 0-3.7 1.2-7.3 2.6-7.3 2.9-18.4 5.9-27.7 7.4-12.5 2.1-43.6 1.1-52.5-1.6-1.6-.5-1.7 5.3-1.7 113V384h279.6l1.8-10.8c3.3-19.9 5.4-28.7 10.6-43.2 8.1-23.1 10.6-32.8 15.6-62 1.3-8 3.4-18.9 4.5-24.4 1.7-7.8 1.9-10.6 1.1-13.5-.6-2-1.6-7.4-2.3-12-1.1-8-1.3-8.4-4.4-9.7-1.8-.7-4.7-3-6.5-5-3-3.4-3.2-4.1-2.8-9.4.3-4.3 1.2-7 3.6-10.6 1.7-2.7 3-4.9 2.9-5.1-.4-.4-8.2 2.1-17.6 5.6-4.6 1.7-9.2 2.9-10.2 2.6-1.1-.4-2.3-2.3-2.9-4.6l-1.1-4-3.1 1.8c-2.3 1.4-3.2 1.5-3.5.5-1.3-3.5-3.4-4.2-12.8-4.2-8.7 0-34.9-4.5-46.5-8-1.9-.5-5.1-1-7-1s-4.8-.7-6.5-1.6c-3.9-2-8.3-1.1-11.3 2.4l-2.3 2.7.4-3.3c.4-3.6.1-3.8-2.7-1.7-2.9 2.2-3.9 1.8-3.2-1 .6-2.3.5-2.4-1.3-1.3-2.3 1.4-3.7.6-2.5-1.4.5-.7.9-2.2.9-3.3 0-2.9 4.8-4.8 13.5-5.3 6-.3 9.2.1 16 2.1 5.9 1.8 12.9 2.9 23 3.7 8 .6 18.3 1.5 23 2.2 5.5.7 10.1.7 13 .2 3.9-.8 4.5-1.3 4.8-3.7.4-3.1.9-3.2 3.6-1.2 3 2.2 4.4 1.8 5.1-1.5.8-3.7 2.8-3.8 14.7-1 4.6 1.1 9.9 2 11.9 2 4.4 0 17.9-2.9 17.9-3.9 0-.4-.7-1.7-1.6-2.9-1.4-2.1-1.4-2.3 1-3.2 3.9-1.4 3.1-2.9-1.1-2.3-3.7.4-3.9.2-9-6.7-5.2-7-5.2-7.1-3.3-9 2.9-2.9 2.5-3.7-1.8-4.5-3.8-.6-5.6-2.8-7.6-8.9-.5-1.6-.9-1.6-2.4-.5-1.5 1.2-1.6 1.2-.4-.2.7-.9 1-2.3.7-3.1s1-4.5 2.9-8.2l3.6-6.8-4.1-7.8c-4.9-9.4-4.9-12.4 0-12.8 3.9-.4 26.8 5.2 32.1 7.8 1.9.9 6.1 2.2 9.3 2.9 4.5 1 7.2 2.4 11.7 6.2 8.4 6.9 11.9 14.7 14 30.6.6 4.7 2 9.9 3.4 12.5 4.8 9.1 5.9 14.3 5.4 25.9l-.6 10.7 5 4.9c7.2 7 8.2 9.2 5.7 13.2-1.7 2.8-1.7 3.2-.3 3.8.8.3 1.3 1.2 1 1.9s-.1 1.6.5 2c.7.4.4 1.3-.6 2.4-1.4 1.6-1.3 2.3 2 9.6l3.7 7.9.9 22c.5 12.1 1.4 24 1.9 26.4.6 2.4 1.4 8.7 1.7 14 .3 5.9 1.1 10.2 1.9 11.2 1.9 2.1 1.8 2.9-.5 2.9-1.1 0-2.7-1-3.5-2.2-1.5-2.1-1.6-2.1-1.6-.3.1 1.1.7 3.1 1.5 4.5 1.9 3.4 1.8 4-.5 4-2.1 0-3.6-2.3-5.7-8.5l-1.3-4 .6 4.5c.3 2.5 1.2 6.2 1.9 8.4.8 2.1 1.1 4.4.9 5-.5 1.2 3.5 10.5 13.9 33.1 8.2 17.9 12.3 28.1 14.8 37.2l2.2 8.3H512V0H169.9z"/></svg>