<svg xmlns="http://www.w3.org/2000/svg" width="682.667" height="512" version="1.0" viewBox="0 0 512 384"><path d="M170.7 9.7c.4 5.4.7 13.4.6 17.8-.3 9-2.9 27.7-4.2 30.3-.5.9-2.1 5.5-3.6 10.2-3.1 9.8-6.6 18-7.7 18-.5 0-.8.6-.8 1.3 0 1.4-6.1 11.4-8.4 13.8-.9.9-1.6 2-1.6 2.6s-2 3.2-4.5 5.9c-2.5 2.6-4.5 4.9-4.5 5.1 0 1.4-15.7 15.5-21.9 19.7-8.4 5.8-23.5 14.6-24.9 14.6-.5 0-4.3 1.3-8.3 2.9-11.8 4.7-24.1 7.2-39.8 8.1-15.2.9-30.3-.1-39.4-2.6-1.6-.5-1.7 5.4-1.7 113V384h140c77 0 140-.2 140-.5s1.4-8.3 3-17.8c2.4-13.4 4.6-21.8 10.1-37.9 7.4-22.1 10.6-34.7 14.5-57.8 1.3-8 3.4-19.1 4.6-24.7 2.1-9.9 2.1-10.6.5-19.5-.9-5.1-1.9-10.9-2.2-12.8-.5-2.9-1.3-3.9-4.8-5.6-2.3-1.1-5.3-3.6-6.5-5.5-3.1-4.5-2.5-11.3 1.7-18.1 2.2-3.5 2.6-4.8 1.6-4.8-.8 0-6.2 1.8-12 4s-11.4 4-12.4 4c-2.3 0-3.7-1.6-4.6-5.3-.8-3.1-1.4-3.3-4.1-1.2-2.6 2-2.9 1.9-4.2-1-1.1-2.4-1.5-2.5-10.4-2.5-8.7 0-36-4.4-44.8-7.2-1.9-.6-5.4-1-7.6-.9-2.3.1-6-.6-8.3-1.5-5.4-2.1-8.8-1.2-10.6 2.9-1.1 2.6-1.5 2.9-2 1.4-.4-.9-.5-2.6-.2-3.7.7-2.6-.5-2.5-2.8 0-2.2 2.4-3.5 2.6-3.5.4 0-1.4-.2-1.4-1.6-.3s-1.6 1-1.3-1.6c.2-1.7-.1-3.6-.5-4.4-.6-.9-.1-2 1.5-3.2 5.6-4.3 16.3-5.1 28.7-2 4.2 1.1 16.7 2.7 27.7 3.7 30.2 2.5 34 2.3 35.1-2.2.5-1.8 1.1-2.3 2.3-1.8 4.3 1.8 5.9 1.6 6.3-.6.6-4.2 3-4.6 12.1-2.2 10.1 2.6 17.6 2.8 26 .5 3.4-.9 6.4-1.8 6.6-1.9.2-.2-.4-1.5-1.3-2.9-1.6-2.5-1.6-2.6.9-3.5 3.8-1.4 3-2.9-1.4-2.3-3.7.5-3.9.4-8.1-5.6-2.4-3.3-4.7-6.1-5.1-6.1-1.5 0-1-1.9 1.1-4 3.3-3.3 2.9-3.8-3.5-4.3-1.4-.1-2.5-.5-2.5-.8s-.9-1.6-2-2.9-2-3.4-2-4.8c0-2-.3-2.2-1.4-1.3-2.2 1.8-.1-7.1 2.9-12.8l2.6-4.6-4.1-7.8c-7.4-14.4-5.5-15.7 15-10.7 7.4 1.8 15.1 4.1 17 5 1.9 1 5.6 2 8.2 2.4 5.9.9 16 7.4 19.4 12.6 3.8 5.7 6.1 12.8 7.4 22.1.8 6.1 2.1 10.4 4.8 15.9 3.7 7.5 3.7 7.6 4 22l.3 14.5 4.8 5c7.1 7.3 7.8 9.1 5.1 12.7-2 2.8-2.1 3-.4 4.2.9.7 1.4 1.8 1 2.4-.3.6-.1 1.4.5 1.8.9.5.7 1.1-.6 2-1.7 1.3-1.6 1.8 1.9 9.6l3.7 8.3.9 23.5c.5 12.9 1.4 25.1 2 27 .5 1.9 1 7.3 1 12 0 6.1.4 9.2 1.6 10.8 1.4 2 1.4 2.3-.2 2.9-1.1.4-2.3-.2-3.5-1.8-2.3-2.9-2.4-1.1-.4 3.8 1.8 4.3 1.8 4.3.2 4.3-2.2 0-4.5-3.2-5.6-7.8-1.3-5.9-2.3-6.7-1.5-1.2 1.1 7.3 5.2 18.6 12.6 34.5 10.1 21.5 19.3 44.2 20.8 51.3l1.3 6.2H512V0H169.9z"/></svg>