<svg xmlns="http://www.w3.org/2000/svg" width="682.667" height="512" version="1.0" viewBox="0 0 512 384"><path d="M170.7 9.7c.4 5.4.7 13.4.6 17.8-.3 9.1-2.9 27.8-4.2 30.3-.5.9-2.1 5.5-3.6 10.2-3.2 9.8-6.7 18-7.7 18-.5 0-.8.6-.8 1.3 0 1.4-6.1 11.4-8.4 13.8-.9.9-1.6 1.9-1.6 2.4 0 3.1-20.9 24.1-30.7 30.8-8.6 5.9-23.7 14.7-25.1 14.7-.5 0-4.3 1.3-8.3 2.9-11.8 4.7-24.1 7.2-39.8 8.1-15.2.9-30.3-.1-39.4-2.6-1.6-.5-1.7 5.4-1.7 113V384l140.1-.2 140.2-.3 2.8-16.7c2.8-16.8 4.2-21.9 11.9-44.3 5.3-15.4 8.2-26.9 12-48.5 1.8-9.6 4.3-22.8 5.6-29.3 1.6-7.7 2.1-12.4 1.5-13.5-.5-.9-1.4-5.3-2-9.7-1.7-12.1-1.7-11.9-6-13.9-4.9-2.1-8.1-6.4-8.8-11.4-.4-2.9.3-5.2 3-10.5l3.6-6.7-2.7.6c-1.5.4-6.7 2.2-11.6 4.1-10.9 4.2-13.7 4.1-15.3-.7-1.2-3.6-2.5-4-5.4-1.4-2.2 2-2.6 1.8-3.3-1.6l-.6-3.1-10.2.2c-10.6.2-19.1-1.1-39.1-5.7-6.5-1.5-12-2.3-13.7-1.9-1.9.4-4.4 0-7.2-1.3-2.4-1-5-1.7-5.8-1.4-2.8.9-4.8 3.3-4.3 5.3.3 1 0 1.9-.6 1.9-1.3 0-2.5-4.4-1.6-6.2.3-.7-.8.3-2.5 2.2-2.9 3.3-3.1 3.4-3.6 1.3-.4-1.4-1.1-2-2.1-1.6-1.1.4-1.4 0-1.2-1.8.2-1.3 0-2.9-.4-3.6-1.3-2 .4-4.1 4.9-6.2 5.4-2.6 16.5-2.8 23.9-.6 2.7.9 11.7 2 20 2.5 8.2.6 18.9 1.5 23.8 2.1 12.7 1.6 19.7.1 19.7-4.2 0-2 1-2.4 2.6-1 .5.5 1.9 1.2 3 1.5 1.8.5 2.2.1 2.7-2.4.4-1.7 1.4-3.3 2.2-3.7.9-.3 5.3.4 9.8 1.6 9.8 2.5 16.8 2.7 26 .5 7-1.7 7.8-2.6 5.1-5.5-1.6-1.7-1.5-1.9 1-2.8 3.2-1.3 3.6-3.5.4-2.5-1.3.4-2.8.9-3.5 1.1-.6.2-3.2-2.5-5.7-6.1-2.6-3.5-5.2-6.7-5.9-6.9-.8-.3-.5-1.2 1.1-2.9 2.5-2.7 2.8-4.4 1-4.6-.7-.1-2.4-.3-3.8-.4-3.2-.4-4.4-1.6-6.1-6.1-.7-2.1-1.8-3.6-2.5-3.3-1.9.7-.6-5.2 2.6-11.8l3.1-6.3-4.1-7.6c-4.3-7.9-4.7-11.2-1.8-13 1.9-1.2 27.8 4.4 33.8 7.3 1.9 1 5.5 2 7.8 2.4 6.1.9 11.2 3.7 16.9 9.3 5.8 5.7 8.6 12.6 10.7 25.9.9 6.3 2.5 11.3 5.2 16.9l3.9 8v28.2l5.1 5c6.1 6 6.9 8.4 4.2 11.8-1.9 2.5-1.9 2.7-.3 3.9 1 .7 1.5 1.8 1.1 2.4-.3.6-.1 1.4.4 1.7.8.5.6 1.3-.4 2.4-1.4 1.6-1.3 2.5 1.9 9.9l3.4 8.1 1 23.8c.5 13.1 1.5 25.4 2 27.3.6 1.9 1.1 7.4 1.1 12.2s.5 9 1 9.3c.6.3 1 1.3 1 2.1 0 2.2-3.6 1.6-4.9-.8-1.1-2.2-1.1-2.1-.7.7.3 1.6.8 4.3 1.2 6 .7 2.9.7 2.9-1.7 1.4-1.4-1-3.1-3.8-4.1-7-1.7-5-1.7-5.1-1.3-1.4.6 5.3 7.8 23.9 15.5 40 9 18.9 13.4 29.7 17 41.2l3.2 10.3H512V0H169.9z"/></svg>