<svg xmlns="http://www.w3.org/2000/svg" width="682.667" height="512" version="1.0" viewBox="0 0 512 384"><path d="M170.7 9.7c.4 5.4.7 13.4.6 17.8-.3 9.1-2.9 27.8-4.2 30.3-.5.9-2.1 5.5-3.6 10.2-3.2 9.8-6.7 18-7.7 18-.5 0-.8.6-.8 1.3 0 1.4-6.1 11.4-8.4 13.8-.9.9-1.6 1.9-1.6 2.4 0 3.1-20.9 24.1-30.7 30.8-8.6 5.9-23.7 14.7-25.1 14.7-.5 0-4.3 1.3-8.3 2.9-11.8 4.7-24.1 7.2-39.8 8.1-15.2.9-30.3-.1-39.4-2.6-1.6-.5-1.7 5.4-1.7 113V384h280.5l2.8-17.3c2.4-14.5 4.1-21 10.7-40.9 6.7-19.9 8.6-27.2 12-45.5 2.2-12 5.2-27.7 6.7-35 1.9-9.5 2.3-13.6 1.6-14.5-.6-.7-1.7-5.7-2.3-11l-1.2-9.7-5.2-2.9c-2.8-1.6-5.7-4.1-6.5-5.5-2.1-4-1-12.7 2.3-17.7 1.5-2.3 2.5-4.4 2.3-4.7-.3-.2-4.7 1.2-9.8 3.2-17.1 6.6-18.1 6.6-19.4.4-.7-3.3-1-3.4-4.5-1.5-2.3 1.3-2.5 1.2-3.5-1.1-1-2.5-1.2-2.6-11-2.4-8.1.1-13.4-.5-27.5-3.5-9.6-2-20.9-3.9-25-4.3-4.1-.3-8.5-1.2-9.7-1.9-3.3-1.9-7.3.3-7.3 4 0 3.8-1.7 3.6-2.8-.5l-.9-3.2-1.3 2.7c-1.3 2.8-3 3.7-3 1.7 0-.6-.7-.9-1.5-.5-1.2.4-1.5-.3-1.5-2.9 0-1.9-.4-3.5-1-3.5-1.8 0-1.1-2.6 1.4-4.9 2.6-2.5 10.3-5.1 14.9-5.1 1.6 0 6.6.9 11.1 1.9 4.8 1.2 15.5 2.4 26.6 3.1 10.2.6 20 1.6 21.7 2.1 3.9 1.2 14.3-.7 14.9-2.8 1.4-4.7 1.2-4.5 3.6-2.9 3.2 2.3 4.7 2 5.4-.9 1-4.1 3.3-4.6 11.5-2.5 9 2.4 18.1 2.5 26.2.4 7.9-2 8.2-2.2 6-4.6-1.7-2-1.7-2.1.5-3.5 3-2.1 2.8-3.5-.4-2.3-3.8 1.5-4.2 1.3-6.8-2.8-1.3-2.1-3.9-5.3-5.6-7.1l-3.3-3.2 2.3-2.4c1.3-1.4 2.2-2.6 1.9-2.8-1.3-1.2-6.8-3.4-6.4-2.6.4.5.2.9-.4.9-.5 0-2-2.2-3.4-4.9-1.9-3.9-2.7-4.7-3.7-3.8-1 1-1 .8-.3-.8.6-1.1.8-2.6.5-3.4-.2-.7 1-4.3 2.7-8l3.3-6.6-4.2-7c-2.8-4.8-4-7.9-3.8-10 .3-2.7.7-3 4.4-3.3 4.2-.3 28.8 5.1 30.8 6.8.7.5 4.5 1.6 8.6 2.4 5.9 1.3 8.5 2.4 12.9 5.9 3.1 2.4 6.6 5.8 7.8 7.5 2.8 4.2 6.4 16 7.3 23.7.4 3.8 1.7 8 3.6 11.5 4.8 8.9 5.7 13.5 5.2 27.2l-.5 12.3 5.4 5.7c5.7 6 6.6 9.3 3.6 12.4-1.6 1.5-1.6 1.7.1 3 1 .7 1.5 1.7 1.2 2.3-.4.5-.1 1.3.4 1.6.8.5.6 1.3-.5 2.6-1.6 1.7-1.5 2.3 1.8 10.1l3.5 8.3.7 21c.4 11.8 1.3 24.3 2.2 28.5.9 4.7 1.3 9.7.9 13.5-.5 4.4-.2 6.8.9 8.9 1.9 3.6 1.9 3.6-.5 3.6-1 0-2.4-.9-3-2.1-1.9-3.5-2.3-1.3-.7 3.5 1.8 5.1.7 6.8-2.4 4-1-.9-1.9-1.5-1.9-1.2 0 1.3 10.6 25.9 15.9 37.1 8.5 17.7 14.1 32 17.1 43.4l1.1 4.3H512V0H169.9z"/><path d="M380 292c.5 1.8 1.2 3.5 1.6 3.9.9.9-.7-5.3-1.7-6.3-.5-.5-.4.5.1 2.4"/></svg>