<svg xmlns="http://www.w3.org/2000/svg" width="682.667" height="512" version="1.0" viewBox="0 0 512 384"><path d="M170.7 9.7c.4 5.4.7 13.4.6 17.8-.3 9.1-2.9 27.8-4.2 30.3-.5.9-2.1 5.5-3.6 10.2-3.2 9.8-6.7 18-7.7 18-.5 0-.8.6-.8 1.3 0 1.4-6.1 11.4-8.4 13.8-.9.9-1.6 1.9-1.6 2.4 0 1.4-7.1 9.6-15.5 18-7.3 7.2-15.5 13.3-32.3 23.7-3.3 2.1-6.7 3.8-7.5 3.8s-4.8 1.3-8.8 2.9c-11.8 4.7-24.1 7.2-39.8 8.1-15.2.9-30.3-.1-39.4-2.6-1.6-.5-1.7 5.4-1.7 113V384h281v-2.3c0-7 6.5-36 11-49.3 10-29.2 11.7-35.8 16-61.4 1.2-6.9 3.3-18.1 4.6-25 2.1-10.3 2.4-13.1 1.5-16.5-.9-3.3-3-16.1-3.1-18.7 0-.4-1.7-1.6-3.9-2.7-9.5-4.9-11.7-12.9-6.1-23 1.7-3 3-5.5 3-5.7 0-.4-9.4 3-16.7 6-8.6 3.6-10.1 3.4-12-1.2-2-4.8-1.7-4.7-5.1-2.3l-3 2.1-.6-3-.5-3H255c-10.3 0-30.5-2.9-42.4-6.1-2.2-.6-6-1.1-8.5-1.1s-6.4-.6-8.8-1.4c-3.8-1.3-4.5-1.3-6.8.2-1.9 1.2-2.3 2.2-1.9 4 .9 3.7-1.4 2.9-2.4-.9l-.9-3.2-1.1 2.7c-1.3 3.1-1.5 3.2-4.3 1.8-1.1-.6-1.9-2.1-1.9-3.5s-.4-2.5-1-2.5c-2.2 0-.8-4.1 2.3-6.3 6.5-4.9 13.9-5.9 23.7-3.2 3 .9 15.1 2.2 26.7 3 11.7.7 21.8 1.7 22.4 2 .6.4 4 .4 7.6 0 6-.6 6.6-.9 7.6-3.6.8-2.1 1.6-2.7 2.7-2.3 4.4 1.8 5 1.6 6.1-1.6 1.1-3.1 1.4-3.2 5.3-2.7 2.2.3 7.6 1.3 11.9 2.2 7.6 1.7 8.1 1.7 17.5-.5 5.3-1.2 9.8-2.4 10-2.5.2-.2-.4-1.5-1.3-2.9-1.7-2.5-1.6-2.6.9-3.6 1.4-.5 2.6-1.5 2.6-2.1s-.7-.8-1.6-.5c-5.4 2.1-6.2 1.9-8.7-2.1-1.4-2.2-3.9-5.3-5.6-7-3-3-3-3.1-1.1-4.8 2.8-2.5 2.4-3.8-1.6-5.7-3.3-1.5-3.5-1.5-3 0 1 3-2.5-1.9-4.5-6.3-1-2.2-1.9-3.6-1.9-3 0 .5-.4.4-.9-.4-1-1.5 1.5-8.9 4.6-14.2 1.6-2.6 1.5-2.9-2.6-9.7-3.2-5.3-4.2-7.9-3.9-10.4.3-2.9.7-3.3 3.6-3.6 3.9-.4 26.2 4.4 31.7 6.8 2.2 1 6.3 2.1 9 2.5 6.2.9 7.6 1.6 14.4 7.3 3.5 3 6.2 6.4 7.7 9.7 2.9 6.2 5.4 15.8 5.4 20.4 0 2 1.6 6.5 3.9 11 5.2 10.2 6.5 16.4 5.8 27-.3 4.7-.8 9.4-1.2 10.3-.5 1.1 1 3.5 4.9 7.7 5.8 6.4 6.8 9.2 4.1 12.7-1.8 2.4-1.9 3.4-.2 3.4 1.9 0 2 5.8.1 6.8-1.2.7-.9 2.1 2.3 8.8l3.8 7.9.7 21c.4 11.5 1.3 24.1 1.9 28 .7 3.8 1.1 10.8 1 15.4-.1 6.6.2 8.8 1.5 10.2 1.5 1.7 1.5 1.9.1 2.5-2 .7-3.6-.2-4.8-3-.8-1.7-.9-1.4-.5 1.4.3 1.9.8 4.6 1.2 5.9.6 2.1.4 2.3-1.4 1.9-1.2-.4-2.2-.5-2.2-.3 0 1.1 11.6 27.8 15.2 35 5.6 11.2 12.9 29.5 15.9 39.7l2.2 7.8H512V0H169.9z"/><path d="M379 289.5c0 .5.5 1.7 1 2.5s1 1 1 .5c0-.6-.5-1.7-1-2.5s-1-1.1-1-.5"/></svg>