<svg xmlns="http://www.w3.org/2000/svg" width="682.667" height="512" version="1.0" viewBox="0 0 512 384"><path d="M170.7 9.7c.4 5.4.7 13.4.6 17.8-.3 9.3-3 28.4-4.2 30-.5.5-1.2 2.6-1.6 4.5-1.3 6.6-8.4 24-9.7 24-.5 0-.8.6-.8 1.3s-1.9 4.2-4.2 7.6c-2.4 3.5-4.7 7.1-5.3 8-5.9 9.5-21.7 25.1-33.1 32.6-15 9.8-21.1 13.5-22.7 13.5-.8 0-4.8 1.3-8.8 2.9-22.1 8.8-58.5 11.3-79.2 5.5-1.6-.5-1.7 5.4-1.7 113V384h281.5l3.3-17.5c1.8-9.7 4.9-22.1 6.8-27.8 11.9-33.8 13.6-39.7 17.4-59 2.1-11.1 5.1-25.9 6.6-32.9 2.3-10.8 2.5-13.4 1.6-17-.6-2.4-1.4-6.8-1.7-9.8-1.1-10-1.5-11-4.8-12.4-4.1-1.7-8.6-6.2-9.4-9.4-.5-2.3.1-5.3 2.4-12.6.5-1.5-.3-1.3-4.8 1.4-11.5 6.7-13.8 7-16.1 1.9-1.5-3.4-2.4-3.6-5.4-.8l-2.2 2-1.1-3.2c-1.1-3.1-1.1-3.1-5.8-2.3-2.7.5-8.8.9-13.8.8-10.1-.1-35-3.7-37-5.4-.9-.8-2.6-.8-5.9.1-3.3.8-5.4.8-7.7 0-4.6-1.6-9.8 1.8-5.4 3.5.8.4 1.5 1 1.5 1.5s-.7.9-1.5.9-1.5.4-1.5 1c0 .5-1.3 1-2.9 1-2 0-3.7-.9-5.5-3.1-4.4-5.2-3-11.2 3.5-14.8 3.8-2.2 3.9-2.2 31.6-1.1 15.3.6 29.5 1.5 31.6 2 2.8.6 5.2.4 9-.9 4.3-1.5 5.3-2.2 5.5-4.4.3-2.5.6-2.7 4.1-2.1 3.6.6 3.8.5 4.4-2.4.8-3.8 2.9-4.5 9.7-3.2 7.5 1.4 15.8 1.2 20.5-.6 2.2-.9 6.3-2.3 9-3.1 6.2-1.9 6.2-1.9 4.2-4.1-1.6-1.8-1.6-1.9.8-3 1.4-.6 2.5-1.6 2.5-2.2 0-.7-.6-.8-1.9 0-3.6 1.8-5.5 1-12-5.1-5.9-5.6-6.2-6.1-4.7-7.8 3.1-3.4 1.5-4.8-4.7-4.3-1 .1-2-.5-2.3-1.3-.4-.8-1.2-1.5-1.9-1.5s-1.6-1.4-2-3c-.4-1.7-1.1-2.8-1.6-2.5-2 1.3-2-4.9.1-11.5l2.2-6.9-5.1-6.3c-4.3-5.3-5.1-6.9-4.9-9.8l.3-3.5 11.2.3c6.2.1 14.1.7 17.5 1.2 3.5.6 10.1 1.4 14.8 1.9 16.1 1.6 24.4 8.5 30.1 25 1.1 3 1.9 6.7 1.9 8.2s1.1 4 2.4 5.6c4.2 4.9 8.7 15.1 9.7 21.6.5 3.4.6 10.7.3 16.3-.5 8.1-.3 11.1 1 15.2 1 2.9 2.6 9.3 3.6 14.3 1.7 8.4 1.8 9.7.4 18.2-1.1 6.7-1.3 10.2-.5 12.7.5 1.9 1.4 8.9 2 15.5s1.9 19.3 2.8 28.2c1.4 13.1 1.5 17.3.5 22.4-1.1 5.9-1 6.7 1.9 15.3 1.7 5 5.6 14.7 8.6 21.6 12 27.2 17.6 40.9 20.1 49.7l2.7 9.3H512V0H169.9z"/></svg>