<svg xmlns="http://www.w3.org/2000/svg" width="682.667" height="512" version="1.0" viewBox="0 0 512 384"><path d="M170.7 9.7c.4 5.4.7 13.4.6 17.8-.3 9.3-3 28.4-4.2 30-.5.5-1.2 2.6-1.6 4.5-1.3 6.6-8.4 24-9.7 24-.5 0-.8.6-.8 1.3s-1.9 4.2-4.2 7.6c-2.4 3.5-4.7 7.1-5.3 8-5.8 9.3-21.9 25.2-32.7 32.3C96.6 145.9 91.5 149 89.9 149c-.9 0-5 1.3-9 2.9-11.8 4.7-24.1 7.2-39.8 8.1-15.2.9-30.3-.1-39.4-2.6-1.6-.5-1.7 5.4-1.7 113V384h283v-2.3c0-6.2 6.6-33.7 11.1-46.7 12.1-34.4 12.5-35.9 21-79.9 3.7-19.1 4-21.9 3-26.5-.6-2.8-1.4-8.1-1.7-11.7-.4-3.7-.9-7.1-1.3-7.5-.3-.5-2.3-1.8-4.4-2.8-5.8-3-8-6.6-7.5-12.6.1-2.8.2-5 0-5s-2.3 1.4-4.7 3c-5.5 3.8-7.7 3.8-10.7 0l-2.3-3-2.5 2.3-2.5 2.4-1.7-2.8-1.6-2.7-6.4 1.5c-4.1 1-9 1.3-13.8 1-9.5-.6-29.5-4.3-33.7-6.2-2.5-1.1-3.9-1.2-6.3-.3-1.8.6-5.3.8-7.9.4-3.5-.5-5.1-.3-6 .7-.8 1.1-.5 1.6 1.6 2.6 2.5 1.1 2.5 1.3.7 2.5-4.7 3.3-10.1 1.9-12.6-3.5-2.7-5.4-.6-9.6 6.6-13.5 3.1-1.7 12.2-1.4 52.2 1.7 11.9.9 13.5.9 17-.8 3.2-1.5 4-2.4 4.4-5.3.3-2.3.8-3.1 1.3-2.3.5.7 1.9 1.3 3.2 1.3 1.8 0 2.5-.7 3-3 .4-1.6 1.2-3.3 1.8-3.7.7-.5 6.2-.8 12.2-.8 10.3 0 11.4-.2 17.5-3.1 3.6-1.8 8-3.5 9.8-3.9 3.2-.7 4.1-1.8 2.2-3-1.6-1-1.2-2.3 1-3 1.1-.3 2-1.1 2-1.7s-.7-.7-1.7-.3c-4.5 1.9-5.9 1.5-10.6-2.9-2.7-2.4-5.6-4.7-6.4-5-1-.4-1.3-1.2-.8-2.4 1.8-4.3 1.7-5.2-.4-5.3-4.7-.3-5.7-.5-7.8-1.7-1.3-.7-2.6-2.4-2.9-3.7-.6-2.6-2.3-3.4-2.5-1.3 0 .7-.5 0-.9-1.6-1.1-3.4-.6-7.7 1.5-13.5l1.5-4.3-5.5-6.1c-5.6-6.2-7.2-9.4-6.1-12.2.5-1.4 3-1.5 18.3-1.2 33.7.9 35.3 1 41 4 2.9 1.5 6.6 4.4 8.3 6.5 3.9 4.7 10 17.1 10 20.5 0 1.4 1.8 4.9 4 7.8 2.3 3 5.3 7.9 6.8 10.9 2.6 5.3 2.7 6.1 2.8 22.5 0 10.7.5 18.1 1.3 19.9.6 1.6 2.1 7.1 3.2 12.4 1.9 8.6 2 10.4.9 17.6-.7 4.5-1.2 10.6-1.1 13.7.1 3-.3 6.7-.8 8.2-.8 2-.6 3.4.7 5.9 1.3 2.6 1.7 6.3 1.9 17.3 0 7.7.6 17.6 1.1 22 .6 4.4.8 9.9.5 12.1-.8 6.5 6.1 25.8 21.5 59.9 4.4 9.8 11.3 28.9 12.6 35.2l.8 3.3H512V0H169.9z"/></svg>