<svg xmlns="http://www.w3.org/2000/svg" width="682.667" height="512" version="1.0" viewBox="0 0 512 384"><path d="M170.7 9.7c.4 5.4.7 13.4.6 17.8-.3 9.3-3 28.4-4.2 30-.5.5-1.2 2.6-1.6 4.5-1.3 6.6-8.4 24-9.7 24-.5 0-.8.6-.8 1.3s-1.9 4.2-4.2 7.6c-2.4 3.5-4.7 7.1-5.3 8-5.8 9.3-21.9 25.2-32.7 32.3C96.6 145.9 91.5 149 89.9 149c-.9 0-5 1.3-9 2.9-11.8 4.7-24.1 7.2-39.8 8.1-15.2.9-30.3-.1-39.4-2.6-1.6-.5-1.7 5.4-1.7 113V384h283.5l3.3-17.1c1.9-9.4 5.2-22.4 7.4-28.8 10.5-30.7 12.9-38.7 15.7-53.1 1.6-8.5 4.6-23.9 6.6-34.2 2.5-12.9 3.3-19.2 2.7-20.5-.5-1-1.2-4.7-1.6-8.3-1.3-12.3-1.7-13.9-3.8-14.6-3.2-1-9.8-7.4-9.8-9.5 0-2-2.4-2.6-3.5-.9-1.1 1.9-4.9 1-7.8-1.8-2.4-2.3-3-2.5-3.7-1.2-2.7 4.5-2.8 4.5-4.8 2l-2-2.4-6.8 2.2c-3.8 1.2-8.2 2.2-9.8 2.2-4 0-32.3-6.8-36.3-8.7-2.9-1.3-4-1.4-7.2-.3-3.1 1-4.6 1-7.6 0-3.1-1-3.9-1-4.6.1-1.4 2.3-1 2.9 1.9 2.9l2.7.1-2.8 2.4c-3.1 2.8-4.5 3-8 1.4-3-1.3-4.7-4.8-4.7-9.4 0-3.7 4.1-8 8.8-9.2 3.8-.9 47.9 2.8 55.9 4.7 3.9.9 4.7.8 8.4-1.6 2.6-1.6 3.9-3 3.5-4-1-2.6.3-4.1 3.4-3.6 2.6.4 3 .1 3-2 0-4.6 1.9-5.7 11.5-6.7 10.2-1.1 12.6-1.8 20.4-6.6 3.1-1.8 7.1-3.6 8.9-4 3.4-.7 3.9-1.4 2.1-3.2-.8-.8-.5-1.4 1-2.2 1.2-.7 2.1-1.6 2.1-2.2 0-.5-1.4-.2-3 .6-3.1 1.6-3.1 1.6-9-3.4-3.3-2.7-6.5-5.1-7.1-5.3-.9-.3-.9-.9 0-2.5 1.9-3.7 1.4-5.1-1.9-4.8-1.7.1-3.3.5-3.6.8-.9.9-7.4-6-7.4-7.8 0-.8-.6-1.4-1.2-1.3-1.5.3-1.8-7.4-.5-13.2.6-3.3.3-3.9-5.3-9.8-6.8-7.3-7.9-9.7-5.6-12.1 1.5-1.4 4.9-1.6 27.4-1.6 27.6 0 29.7.3 37.4 5.9 4.4 3.1 10.9 13.2 13.4 20.8 1.4 3.9 3.4 7.8 4.7 8.8 1.2 1 4.2 5.7 6.7 10.5l4.5 8.8v15.6c0 11.8.5 16.8 1.7 20.6 2.1 6.3 5.1 22.3 4.3 23.5-.4.7-2.5 24-2.7 30 0 .8.5 4.2 1.2 7.5.9 4.5.9 8.6.1 17-.8 7.5-.8 13.1-.1 17.5.5 3.6 1 8.9 1 11.8 0 6.4 6.2 24 16.2 46.2 9.9 22 15.1 35.2 17.8 45.2l2.3 8.8H512V0H169.9z"/></svg>