<svg xmlns="http://www.w3.org/2000/svg" width="682.667" height="512" version="1.0" viewBox="0 0 512 384"><path d="M170.7 9.7c.4 5.4.7 13.4.6 17.8-.3 9.3-3 28.4-4.2 30-.5.5-1.2 2.6-1.6 4.5-1.3 6.6-8.4 24-9.7 24-.5 0-.8.6-.8 1.3s-1.9 4.2-4.2 7.6c-2.4 3.5-4.7 7.1-5.3 8-5.8 9.3-21.9 25.2-32.7 32.3C96.6 145.9 91.5 149 89.9 149c-.9 0-5 1.3-9 2.9-11.8 4.7-24.1 7.2-39.8 8.1-15.2.9-30.3-.1-39.4-2.6-1.6-.5-1.7 5.4-1.7 113V384l142.3-.2 142.2-.3.3-3c1.1-10.3 7.9-37.2 13.2-51.9 7.2-19.9 10.1-30.9 13.5-50.4 1.4-8.1 3.9-21.6 5.7-30 2.3-11.7 2.8-15.9 2-17.5-.6-1.2-1.3-5.4-1.7-9.2-1-12-1.3-13.1-5-14.8-1.8-.9-4.6-3.1-6.1-5-2.4-3.1-3.2-3.5-6.2-3-2.9.5-3.7.2-5.7-2.3l-2.3-2.8-1.9 3.2-2 3.2-2.2-2.4-2.2-2.4-3.9 1.9c-9.3 4.5-11.3 4.6-28.1.4-8.5-2-17.4-4.6-19.7-5.7-3.9-1.8-4.8-1.9-8.2-.8-2.7.9-4.6 1-6.7.2-1.9-.6-3.6-.6-4.6 0-2.5 1.3-2.1 2.8.8 2.8 2.5 0 2.5.1.9 2.5-1.2 1.8-2.5 2.5-4.8 2.5-3.9 0-4.9-.7-7-4.7-2.1-4.3-2-6.5.6-9.8 3.6-4.6 7.6-5.7 19.1-5 10.1.7 45.3 5.1 46.7 6 .4.2 2.4-.7 4.4-2.2 3.3-2.1 3.7-2.9 3.3-5.3-.6-2.6-.4-2.8 2.6-2.6 2.9.1 3.2-.2 3.7-3.4.5-3.7 3.5-6 7.8-6 6.3 0 16.5-3.3 21-6.8 4.7-3.6 10.1-6.1 13.5-6.2 1.8 0 2.5-2 .7-2-1.9 0-1-2.8 1-3.3 1.1-.3 2-1.1 2-1.7 0-.9-.8-.7-2.5.4-3 2-5.2 2-6.2.2-.9-1.7-8-6.9-10.7-7.9-1.7-.7-1.7-.9-.2-3.2.9-1.4 1.4-2.9 1.2-3.4-.9-1.3-5.4-1.9-6.5-.8-1.5 1.5-6.8-3.3-7.5-6.8-.5-2.2-.9-2.6-1.5-1.6-1.6 2.5-2.2-2.3-1.2-8.9.6-3.5 1.3-6.5 1.5-6.8.3-.3-2.6-3.8-6.4-7.9-12.2-12.8-11-13.6 22.5-13.7 27.3-.1 29.1.2 37.3 6.3 4.7 3.5 10.7 12.6 13.2 20.2 1.2 3.5 2.9 7.1 3.9 7.9 2.4 2 8.5 11.4 10.6 16.5 1.4 3.1 1.8 7.5 2 20 .1 9.6.6 17.2 1.4 18.9 2.3 5.7 5.3 21.7 4.6 25.5-.3 2-1.2 9.6-1.9 16.9-1.1 11-1.1 14 .1 18.4 1.4 5.6 1 17.5-.9 23.5-1.3 4.4.7 24.6 3.4 33.8 2.4 8.6 10.4 28.2 19.3 47.5 6.8 14.8 10.9 25.5 14 36.7l1.8 6.3H512V0H169.9z"/></svg>