<svg xmlns="http://www.w3.org/2000/svg" width="682.667" height="512" version="1.0" viewBox="0 0 512 384"><path d="M170.7 9.7c2.7 32.5-4.4 62.3-20.6 86.2-2 2.9-4 6.1-4.6 7-3.9 6.3-25.3 29.1-27.4 29.1-.4 0-1.6.9-2.6 2s-2.1 2-2.5 2c-.8 0-7 3.7-16.5 9.8-2.7 1.7-5.7 3.2-6.6 3.2s-5 1.3-9 2.9c-20.8 8.2-46.4 10.8-70.9 7-3.6-.5-7.3-1.2-8.3-1.5-1.6-.5-1.7 5.3-1.7 113V384h284.7l2.3-12.3c3.3-17.8 6.1-28.3 12.3-45.8 6.4-17.8 8.6-25.9 12.2-44.9 1.4-7.4 3.9-20.7 5.6-29.5 2.8-14.2 3-16.7 2-22.5-.5-3.6-1.3-9-1.6-12-.9-8.1-1.3-8.8-5.1-10.6-2-1-4.5-3-5.6-4.5-1.7-2.3-2.4-2.6-3.9-1.6-1.5.9-2.4.6-4.9-1.8l-3.1-3-2.1 2.8-2 2.8-2.3-2.1-2.2-2-6.8 3.1c-6.5 3.1-7 3.2-13.4 2.2-9.2-1.4-30-7-32.7-8.8-1.8-1.1-2.9-1.2-5.4-.3-1.8.6-5.3.8-8 .5-2.9-.4-5.2-.1-5.9.6-1.3 1.3-1.5 2.8-.3 2.6 2.1-.4 4.2.2 4.2 1.1 0 .5-.8 1-1.7 1-1.5 0-1.6.2-.4.9 1.2.8.9 1.1-1.2 1.6-4.1 1.1-7.5-.2-9.2-3.5-5.2-10 3.1-17.7 17.8-16.5 12.9 1.1 41.1 4.6 45 5.6 3.3.9 4.1.7 7.1-1.8 2.9-2.2 3.4-3.2 2.9-5.4-.5-2.5-.2-2.8 2.8-3.1 3.2-.3 3.4-.5 3.1-3.5-.4-3.7 1-4.7 7.8-5.8 8.9-1.5 16.5-4.4 21.2-8.4 3-2.4 6.6-4.3 9.9-5.1 3.6-.9 4.8-1.5 4-2.3-1.7-1.7-1.3-3.5 1-4.2 1.1-.4 1.9-.9 1.7-1.1-.3-.2-1.9.2-3.7.9-2.9 1.1-3.4 1-4.9-.9-.9-1.1-4-3.6-6.9-5.4-5-3.2-5.1-3.3-3.7-5.6 2.1-3.1 1.1-4.4-3.2-4.4-2.6 0-3.3.3-2.8 1.2.5.7-.8-.1-2.9-1.7-2-1.7-3.9-4-4.3-5.3-.6-2.1-.7-2.2-2-.5-1.2 1.7-1.3 1.6-1.2-.7 0-1.4.5-5.8 1-9.9l.9-7.3-6.5-6.8c-7.5-7.7-8.6-11.3-3.9-13.1 1.4-.5 13.8-1.1 27.7-1.2l25.1-.2 5.2 2.7c9 4.8 16.7 14.7 20.3 26.3.7 2.2 3 5.9 5.1 8.2 8.3 9.1 11.6 20.7 10.6 36.9-.6 8.1-.3 10.1 1.8 16.3 4 11.9 5.1 20.8 3.6 29.8-.8 4.3-1.3 10.2-1.2 13.2.1 2.9-.3 6.6-.9 8.2-1 2.2-.9 4.1.5 9.4.9 3.6 1.4 7.3 1.1 8.3-.3.9-.6 3.9-.7 6.7-.2 2.7-.9 6.8-1.7 9-1 3-1.2 6.5-.7 13.4.9 11.7 7.9 33.2 18 55.1 12.7 27.3 18.2 41.6 20 51.3l.7 3.7H512V0H169.9z"/></svg>