<svg xmlns="http://www.w3.org/2000/svg" width="682.667" height="512" version="1.0" viewBox="0 0 512 384"><path d="M170.7 9.7c2.7 32.5-4.4 62.3-20.6 86.2-2 2.9-4 6.1-4.6 7-3.9 6.3-25.3 29.1-27.4 29.1-.4 0-1.6.9-2.6 2s-2.1 2-2.5 2c-.8 0-7 3.7-16.5 9.8-2.7 1.7-5.7 3.2-6.6 3.2s-5 1.3-9 2.9c-20.8 8.2-46.4 10.8-70.9 7-3.6-.5-7.3-1.2-8.3-1.5-1.6-.5-1.7 5.3-1.7 113V384h142.9c135.3 0 143-.1 143.4-1.8.3-.9 1.3-6 2.2-11.2 3-16.6 6.3-27.5 12.9-43.7 9.7-23.9 13.8-38.4 21.7-76.7 2.5-12.5 3-16.2 2.1-17.7-.7-1-1.9-6-2.7-11.1-.9-5.1-1.8-10.2-2-11.3s-2.6-3.2-5.3-4.7-5.5-3.4-6.2-4.3c-1.8-2.2-2.6-1.9-4 1.5-1.4 3.5-1.7 3.6-4.2 1.3-1.5-1.4-2.2-1.5-3.6-.5-6.2 4.4-12.1 7.2-15.3 7.2-4 0-30.9-6.6-32.2-7.9-.6-.6-2.6-.3-4.9.5-2.2.8-5.8 1.4-7.9 1.4-2.9 0-4.1.5-4.9 2.1-1 1.7-.8 2.1.9 2.6 2.3.6 2.9 2.3.9 2.3-1 0-1 .2 0 .8 2.1 1.4.3 4.4-2.2 3.6-3.6-1.1-6.7-4.9-7.3-9-.6-5 2.6-10.1 8.1-12.8 5.7-2.8 22-3.2 37.8-.9l12.6 1.9 3.4-3.2c3.1-2.8 3.3-3.3 2.1-5-2-2.7-1.6-3.4 2.1-3.4 4.2 0 5-1 3.5-4.4-1.5-3.3-.3-4.8 5.3-6.6 8.4-2.7 16.3-7.3 20.9-12.1 3.6-3.9 5.6-5.2 9.7-6.1 2.9-.7 5.2-1.6 5.2-2.1 0-.4-1.1-1.8-2.4-3-6.7-6.3-10.3-9.4-11.7-9.9-1.1-.4-1.4-1.5-1.1-3.8.3-2 .1-3-.5-2.7-.6.4-1.9 0-2.9-.7-1.2-.9-2.3-1.1-3-.5-1.5 1.2-5.8-2.2-7.8-6.3-1.9-3.6-2-8.7-.5-14.1l1-3.8-7-7.5c-7.8-8.2-8.9-11.3-4.6-13.2 1.8-.8 10.6-1.2 27.1-1.2 22.3 0 24.8.2 28.7 2 10.1 4.8 18.3 14.9 22.5 27.7 1.1 3.3 3.6 8.3 5.6 11.1 6.6 9.2 7.9 14.5 8.1 33.2.1 12.9.5 17.9 2 23 2.3 7.8 2.6 24.3.7 31-1 3.3-1.1 5.7-.3 8.9.7 3.3.6 5.3-.6 8.5-.9 2.6-1.2 5.8-.9 8.7.8 6-1 22.6-2.6 25.1-1.2 1.8-.8 4.3 2.9 18.9 5.5 21.7 10 35.2 21 62.4 4.9 12.1 10 25.5 11.3 29.8l2.4 7.7H512V0H169.9z"/></svg>