<svg xmlns="http://www.w3.org/2000/svg" width="682.667" height="512" version="1.0" viewBox="0 0 512 384"><path d="M170.7 9.7c2.7 32.5-4.4 62.3-20.6 86.2-2 2.9-4 6.1-4.6 7-3.9 6.3-25.3 29.1-27.4 29.1-.4 0-1.6.9-2.6 2s-2.1 2-2.5 2c-.8 0-7 3.7-16.5 9.8-2.7 1.7-5.7 3.2-6.6 3.2s-5 1.3-9 2.9c-20.8 8.2-46.4 10.8-70.9 7-3.6-.5-7.3-1.2-8.3-1.5-1.6-.5-1.7 5.3-1.7 113V384h287.6l1.8-10.8c2.7-15.8 5.8-25.7 14.6-45.7 9.7-22.4 11.5-27.7 18.3-54.5 8.8-34.6 9.3-37.2 7.3-40.1-.8-1.4-2.4-7.1-3.3-12.8-1.7-10-1.9-10.3-6-13.7l-4.1-3.4-1.2 3.5c-1.1 3.4-1.2 3.4-3.6 1.8-2.4-1.5-2.6-1.4-7.8 3.5-3 2.8-6.5 5.4-7.8 5.7-1.6.4-6.3-1-14.2-4-11.9-4.7-14.3-5-21.8-2.9-2.2.6-2.3 4.4-.4 8.3 2.1 4 .7 5.9-3.1 4.1-1.5-.7-3.6-1.4-4.7-1.4-2.2-.1-6.6-6.2-6.6-9.2 0-3.5 5.7-10.3 10.3-12.3 9.9-4.2 13.4-4.4 26.7-1.6l10.9 2.2 2.1-2.2c2.3-2.4 2.6-4.5.9-6.2-.9-.9-.2-1.6 2.9-2.9l4.2-1.6-1.7-2.8c-.9-1.5-1.3-3.4-1-4.2s3.4-2.9 6.9-4.6c7.6-3.8 14.3-9.2 18.6-14.9 3-3.9 5.2-5.1 12.5-6.7 1.5-.4 2.7-1 2.7-1.5s-2.6-3.5-5.7-6.8c-6.4-6.5-8.6-9.1-10.3-12.3-.6-1.2-1.4-1.9-1.7-1.6s-2.7-.6-5.4-1.9c-3.9-2-5-3.2-5.8-6.2-1.5-5.2-1.4-7 .6-12.6l1.7-4.7-3.6-3.8c-4.8-4.9-8.8-11-8.8-13.3 0-4.7 8.9-6.5 24-4.8 5.8.7 14.1 1.1 18.4 1.1 6.4-.2 8.9.2 13 2.1 7 3.3 15.2 10.9 16.7 15.5.6 2 1.7 4.8 2.5 6.2 1.7 3.3 4.4 11.9 4.4 14.1 0 1 1.1 3.5 2.5 5.5s3.2 6 4.1 8.8c2.1 6.6 2.9 22.4 1.6 31-.9 5.5-.8 8 .4 13 .9 3.3 2.1 7 2.8 8.1 1 1.6 1.4 12.2.6 14.5-.1.3-.2.9-.1 1.3s-.4 1.7-1 2.8c-.8 1.6-.7 3 .5 5.9.8 2.1 1.8 6 2.2 8.7.5 4.1.2 5.8-2 10.1-2.6 5-2.8 7.5-3.8 31.7-.2 3.3 5.6 29.2 10.2 45.6 1.6 5.8 6.9 21.5 11.9 35 4.9 13.4 9.7 27.4 10.7 31.1l1.8 6.8H512V0H169.9z"/><path d="M248.1 211.6c0 1.1.3 1.4.6.6.3-.7.2-1.6-.1-1.9-.3-.4-.6.2-.5 1.3"/></svg>