<svg xmlns="http://www.w3.org/2000/svg" width="682.667" height="512" version="1.0" viewBox="0 0 512 384"><path d="M170.7 9.2c1.6 18.7-.4 39.6-5.2 53.8-1.4 4.1-2.8 8.3-3 9.3-.8 3.6-8.6 18.4-12.5 23.8-2.2 3-4.6 6.8-5.5 8.5-2.6 5.1-29.3 31.4-31.8 31.4-.5 0-7.9 4.5-16.2 9.8-2.7 1.7-5.7 3.2-6.6 3.2s-5 1.3-9 2.9c-20.8 8.2-46.4 10.8-70.9 7-3.6-.5-7.3-1.2-8.3-1.5-1.6-.5-1.7 5.3-1.7 113V384h289v-2.8c0-4.3 3.8-20.9 6.7-29.7 1.4-4.4 4.8-12.7 7.6-18.5 11.5-24.6 13.9-31.2 22-62 7.6-28.8 8.4-33.6 6.3-39.1-.9-2.4-2.3-8.5-3.1-13.4-1.2-7-2-9.4-3.8-10.7-3.1-2.4-3.7-2.2-3.7 1.2s-1.4 3.8-4.2 1.3c-1-.9-2-1.4-2.1-1.2-8.1 10.7-11.5 12.9-16.8 10.6-1.9-.8-5.4-2.8-7.8-4.5-2.5-1.6-4.9-2.9-5.5-2.7s-2.4.6-4 1c-2.6.5-2.8.9-2.2 4 2.1 12.2 2.3 11.5-2.7 8.8-1.8-.9-3.8-1.6-4.6-1.4-.7.1-2.6-1-4.2-2.5-2.3-2.2-2.9-3.6-2.9-7 0-3.8.5-4.7 4.3-7.9 8.9-7.7 21.1-10.8 27.7-7 3.4 2 4.7 1.8 6-.6.9-1.6.8-2.5-.6-4-1.6-1.8-1.6-1.9.2-1.9 1 0 2.8-.7 3.9-1.5 1.9-1.5 1.9-1.6.1-4.6-2.2-3.7-1.9-4.1 8.5-11.4 5.2-3.6 9.5-7.7 12.6-11.9 5.1-6.8 6.8-8.1 13-9.2 5.1-.9 5.3-1 4-3.8-.7-1.4-1.5-2-1.8-1.4-.4.6-1.2.1-1.9-1.3-2.7-5-12.7-15.7-17.8-18.9-3.2-2-5.5-4.2-5.8-5.7-.9-3.3.2-10.7 2.1-14.4 1.6-3 1.6-3.1-2.8-8.2-5.1-6-6.7-8.8-6.7-11.5 0-5.2 10.2-8 22.8-6.2 4.2.6 11.8 1.5 16.7 2 12.2 1.1 21.5 3.8 22.5 6.4.4 1.2 1.8 3 3 4.1 3.1 2.8 5.6 8.1 6.9 14.5 2.5 13.3 4 18.9 6.7 25 2.6 6 2.8 7.5 2.8 19 0 6.9-.2 15.9-.4 20.1-.5 7.2-.4 7.7 2.5 11.3 6 7.5 6.1 7.9 3.6 11.5-2.1 2.9-2.2 3.3-.7 4.4 1.8 1.3 1.7 4.7-.1 6.9-.9 1-.7 2.7.7 6.8 3.1 8.8 2.6 13.6-1.7 20-3.5 5.3-3.7 5.8-4.1 16.1-.3 8.1-.1 11.8 1.2 15.5.9 2.7 2.9 11.4 4.5 19.4 4 19.8 7.6 33 13.2 49 3.8 10.6 13.4 39.8 15.5 46.7.3 1 9.9 1.3 43.9 1.3H512V0H169.8z"/></svg>