<svg xmlns="http://www.w3.org/2000/svg" width="682.667" height="512" version="1.0" viewBox="0 0 512 384"><path d="M170.7 9.7c1.7 21.2-.1 38.8-5.7 54.8-1.1 3.3-2.3 6.8-2.5 7.8-.8 3.6-8.6 18.4-12.5 23.8-2.2 3-4.6 6.8-5.5 8.6-1.8 3.4-24.8 27.3-26.3 27.3-.5 0-1.7.9-2.7 2s-2.1 2-2.5 2c-.8 0-7 3.7-16.5 9.8-2.7 1.7-5.7 3.2-6.6 3.2-1.7 0-8.1 2.3-11.1 4-1.7 1-4.6 1.8-16.3 4.5-3.3.8-12.3 1.9-20 2.6-12.1 1-15.8 1-26.6-.4-7-.9-13.4-2-14.3-2.3-1.5-.6-1.6 8.9-1.6 113V384h147.5c81.1 0 147.5-.3 147.5-.8 0-.4.7-5 1.5-10.2 2.1-13.7 7.4-26.8 19.4-48 8.8-15.5 13.6-26.8 21.4-50 3.6-10.7 8.1-23.3 10.1-28 2-4.6 3.6-8.5 3.6-8.7 0-.1-2-2.2-4.5-4.6-2.5-2.5-4.6-5.4-4.6-6.6-.3-4.2-.4-4.6-1.9-4.6-.8-.1-3.7.9-6.5 2.2-2.7 1.3-5.8 2.3-6.8 2.3-3.4 0-7.5-2.9-8.6-6.1-1-2.8-.7-3.8 1.9-8.5 1.9-3.2 2.7-5.5 2-5.9-1.9-1.2-1.1-5.3 1.1-6 1.6-.5 1.9-1.2 1.4-2.8-1.9-6.2-1.8-6.5 3.2-11.9 2.8-2.9 8.2-9.4 12.2-14.5s8.5-10.2 10.2-11.3c2.5-1.8 2.9-2.8 2.9-6.6 0-2.4-.4-4.4-1-4.4-.5 0-1-1-1-2.3 0-1.8-.2-1.9-1-.7s-1 1.2-1.1-.5c0-2-.1-2-.8 0-1 2.6-1.8-2.4-2.7-17.5-.6-11-.5-11.8 2-17.4 1.4-3.2 2.6-6.3 2.6-6.8 0-.6-1.3-2.7-2.9-4.7-1.6-2.1-3.2-4.8-3.6-6.2-.7-2.9.3-3.6 11.5-7.5 10.2-3.6 30-4.6 38.1-1.9 7.5 2.4 16.2 7.1 19.4 10.5 3.3 3.4 2.7 4.8-4.3 11.1-4.8 4.4-4.9 4.4-3.6 7.9 2.5 6.9 1.7 13.2-2.6 22.9-2.2 4.9-4 10-4 11.5 0 1.4-.9 3.5-2 4.6-2 2-2 2-2 0 0-1.1-.4-2-1-2-.5 0-1 1.6-1 3.4 0 3.1.6 3.9 5.4 7.1s8.6 8.2 8.6 11.3c0 1.7 4.9 11.5 9 18.1 4.5 7.3 5 10.5 1.9 13.7l-2.1 2.2 2.9 1.5c2.5 1.4 2.6 1.6 1 2.3-3 1.1-3.9 5-2.6 11.3 1.9 9.4.3 13.1-8.1 18.7-3.9 2.5-7 4.8-7 5.1 0 .2 1.6 3.2 3.6 6.5 5.8 10 8.4 19.5 11 40.3 2.8 22.6 5.4 36.1 10.4 55 2.1 7.7 5 19.3 6.5 25.8l2.8 11.7H512V0H169.9z"/><path d="M394.7 219.6c-1.1 1.1-.8 4.4.4 4.4.5 0 .7.4.4 1s.1.7.9.4c.9-.3 1.6-1.2 1.6-1.8 0-1.8-2.5-4.8-3.3-4"/></svg>