<svg xmlns="http://www.w3.org/2000/svg" width="682.667" height="512" version="1.0" viewBox="0 0 512 384"><path d="M170.7 9.7c1.7 21.2-.1 38.8-5.7 54.8-1.1 3.3-2.3 6.8-2.5 7.8-.8 3.6-8.6 18.4-12.5 23.8-2.2 3-4.6 6.8-5.5 8.6-1.8 3.4-24.8 27.3-26.3 27.3-.5 0-1.7.9-2.7 2s-2.1 2-2.5 2c-.8 0-7 3.7-16.5 9.8-2.7 1.7-5.7 3.2-6.6 3.2-1.7 0-8.1 2.3-11.1 4-1.7 1-4.6 1.8-16.3 4.5-3.3.8-12.3 1.9-20 2.6-12.1 1-15.8 1-26.6-.4-7-.9-13.4-2-14.3-2.3-1.5-.6-1.6 8.9-1.6 113V384h295.6l1.6-4.7c.9-2.7 1.9-7.3 2.1-10.3.7-7.7 7.6-23.3 19.3-43.6 11.9-20.6 18.5-34.8 24.7-53.4 2.6-7.7 7.6-19.8 10.7-26 3.3-6.6 3.9-9 1.6-7.1-1.2 1-1.3.1-1-5.6.3-4.8.1-6.2-.5-4.8-.8 1.7-1 1.7-1 .3-.2-3.3-3.3-3.8-9.3-1.3-5 2-6.1 2.2-9.2 1.1-6.5-2.2-8.1-6.8-5-14.2 1.6-3.7 1.5-3.9-.7-5.7l-2.3-1.8 2.7-2.5c2.5-2.3 2.5-2.6 1.2-5.8-1.3-3.1-1.3-3.6 1.4-7.7 1.6-2.4 3.8-5.5 5.1-6.9 1.2-1.4 3.8-5.2 5.7-8.5s5.5-8.3 7.9-11.2c4.7-5.5 5.2-7.8 2.9-12.2-.8-1.6-1.2-3.1-.9-3.4s.2-1.2-.2-1.9c-1.2-2-1.3-4.4-.4-16.6.9-10.7 4.1-25.3 6.2-27.9.7-.9.3-2.3-1.1-4.6-2.6-4.2-2.7-7.3-.3-8.5 1.8-1 14.8-4.3 24-6.1 7.6-1.6 21.9-1.3 27.6.4 6 1.8 13 7 15 11 1.3 2.6 1.3 3.2-.1 5.6-.9 1.4-3.5 4.1-5.9 6-3.4 2.7-4.2 3.8-3.6 5.4.4 1.1.7 5.4.7 9.5 0 6.9-.3 8.1-3.4 13-4.5 7.2-7.1 10.1-8.5 9.3-.6-.3-.8-.3-.5.1 1.1 1.2-2.8 10.1-4.5 10.4-1.2.3-1.6-.5-1.6-3v-3.3l-2.5 3c-3.5 4.4-3.2 4.9 5.7 8 6.9 2.4 12.4 8.2 14.4 15.2 1.7 6.1 5.1 13.3 8.9 19.3 3.7 5.7 3.9 7.4 1 10.9l-2.7 3.1 2.7 1.2 2.6 1.1-3 2.8c-2.7 2.4-2.9 3-2.1 6 2.9 9.9.3 16.4-8.1 20.9-3.2 1.7-5.9 3.3-5.9 3.5 0 .3 2.2 4.6 4.9 9.7 6 11.2 8.4 20.5 10.6 39.8 2.5 23.2 3.4 28.1 9.5 55 3.2 14 6.3 28.1 7 31.2l1.1 5.8H512V0H169.9z"/><path d="M404 140c-.6 1.1-.8 2-.6 2 .3 0 1-.9 1.6-2s.8-2 .6-2c-.3 0-1 .9-1.6 2"/></svg>