<svg xmlns="http://www.w3.org/2000/svg" width="682.667" height="512" version="1.0" viewBox="0 0 512 384"><path d="M170.7 9.7c1.7 21.2-.1 38.8-5.7 54.8-1.1 3.3-2.3 6.8-2.5 7.8-.8 3.6-8.6 18.4-12.5 23.8-2.2 3-4.6 6.8-5.5 8.6-1.8 3.4-24.8 27.3-26.3 27.3-.5 0-1.7.9-2.7 2s-2.1 2-2.5 2c-.8 0-7 3.7-16.5 9.8-2.7 1.7-5.7 3.2-6.6 3.2-1.7 0-8.1 2.3-11.1 4-1.7 1-4.6 1.8-16.3 4.5-3.3.8-12.3 1.9-20 2.6-12.1 1-15.8 1-26.6-.4-7-.9-13.4-2-14.3-2.3-1.5-.6-1.6 8.9-1.6 113V384h153c139.4 0 153.1-.1 153.7-1.6.3-.9 0-2-.7-2.4-1-.6-.8-1.4.9-3.5l2.1-2.8-2.5-3.3c-1.4-1.8-2.5-3.7-2.5-4.3s1.5-3.1 3.4-5.6c1.9-2.4 6-8.6 9.1-13.7 6.1-9.8 16.6-26 17.5-26.8.6-.5 5.9-8.6 10.4-15.8 2.8-4.5 9.7-18 13.6-26.7 2-4.3 2.1-5.4 1-8-.7-1.6-1.8-5.2-2.6-7.9-1.3-4.5-1.3-6.9.1-21.9.2-2.9 0-4.5-.5-4.2-1.3.8-1.3-.8.1-3.7.6-1.4.7-3.2.1-4.7-.8-2.2-1-2-2.6 2.3-1.3 3.3-2.3 4.6-3.2 4.2s-1.8.4-2.5 2.1c-.5 1.4-1.1 2.4-1.4 2.2-.2-.2.1-5.1.6-10.9s.7-13 .3-16.1c-.5-5.4 1.7-25.4 3.7-33.1.5-2.1 1.4-9.3 1.9-16 .9-12.9 2.7-19.3 7.6-26.9 1.4-2.3 3.2-5.9 4-8.1 2.2-6.4 8.5-20.1 10.5-23 1.1-1.4 4.3-4.2 7.3-6.2s5.7-4.5 6.1-5.5c.9-2.9 4.8-3.9 22-5.7 21.2-2.1 33.1-.9 35.6 3.7 2 3.8-.1 8.8-6.2 15.4l-5.9 6.3 1 7.2c.8 6 .8 7.4-.5 8.6-.8.9-1.5 1.9-1.5 2.3 0 1-10.9 13.4-12.2 13.9-.5.2-.6-.9-.2-2.5.6-2.5.1-2.2-4.4 2.7-2.7 3.1-6.6 6.4-8.6 7.5-6.1 3.3-5.6 6.5 1.2 6.5 8.5 0 16.8 8.2 20.8 20.4 1.3 4.2 3.8 10.3 5.4 13.5 3.4 6.6 3.8 11.5 1.3 14.3-1.6 1.8-1.5 1.9.5 3.4l2.2 1.5-2.8 2.9c-2.6 2.6-2.8 3.3-2.4 8.2.6 7.5-1.5 12.2-6.2 13.9-4.6 1.7-4.6 3.2.3 11.8 7.4 13.1 8.9 18.2 17.1 57.6 1.7 8.2 4.7 21.1 6.5 28.5 5.6 22.6 8.3 35.2 9 42.8l.8 7.2H512V0H169.9z"/><path d="M353.1 220.6c0 1.1.3 1.4.6.6.3-.7.2-1.6-.1-1.9-.3-.4-.6.2-.5 1.3m-.9 4.4c0 1.4.2 1.9.5 1.2.2-.6.2-1.8 0-2.5-.3-.6-.5-.1-.5 1.3m-1.1 5.6c0 1.1.3 1.4.6.6.3-.7.2-1.6-.1-1.9-.3-.4-.6.2-.5 1.3"/></svg>