<svg xmlns="http://www.w3.org/2000/svg" width="682.667" height="512" version="1.0" viewBox="0 0 512 384"><path d="M170.7 9.7c1.7 21.2-.1 38.8-5.7 54.8-1.1 3.3-2.3 6.8-2.5 7.8-.8 3.6-8.6 18.4-12.5 23.8-2.2 3-4.6 6.8-5.5 8.6-1.8 3.4-24.8 27.3-26.3 27.3-.5 0-1.7.9-2.7 2s-2.1 2-2.5 2c-.8 0-7 3.7-16.5 9.8-2.7 1.7-5.7 3.2-6.6 3.2-1.7 0-8.1 2.3-11.1 4-1.7 1-4.6 1.8-16.3 4.5-3.3.8-12.3 1.9-20 2.6-12.1 1-15.8 1-26.6-.4-7-.9-13.4-2-14.3-2.3-1.5-.6-1.6 8.9-1.6 113V384h156.3c152.4 0 156.1-.1 153.8-1.9l-2.4-1.9 2.1-2.7c2.8-3.5 2.7-3.9-.3-6.9-3.2-3.2-3.2-5.3 0-8.6 2.3-2.5 6.3-8.1 31.6-45.7 9.1-13.4 14.4-22.6 19.4-33.1l3-6.4-4-7.4-4-7.5.3-13.5c.1-8.8-.1-13.3-.8-12.9-1.2.8-1.3.3-.1-2.8.6-1.4.6-3.8.2-5.4-.8-2.7-.8-2.7-2.4 2.2-1.3 4.5-1.6 4.7-2.3 2.6-.7-2.4-.7-2.3-2.6 1l-1.9 3.4.5-9.5c1.4-23.6 3.1-39.9 5.1-48 .7-3 1.5-10 1.8-15.6.7-11.7 3.5-20.6 8.9-28.1 1.9-2.7 4.1-6.7 4.8-8.9 3.1-9.5 11.5-22.3 17.7-26.9 2.3-1.7 6.9-4.8 10.3-6.9 7.3-4.6 13-5.5 35.3-5.5 16.9-.1 20.7 1 20.7 6.1 0 3.9-1.6 6.5-8.1 13.3l-4.8 5 1.5 5.5c1.6 6.3 1.8 11.4.4 10.5-.6-.3-1-.2-1 .3 0 1.3-5.6 8.2-6.2 7.7-.3-.3-2.6 1.7-5.1 4.4s-4.8 4.4-5 3.8c-.2-.7-3.2 1.4-6.6 4.6-3.6 3.4-6.7 5.7-7.5 5.4-1.3-.5-2.6 1.2-2.6 3.2 0 .5 2.5 1.1 5.6 1.5s7 1.4 8.5 2.3c3.9 2.3 10.4 11.8 11.9 17.3.6 2.5 2.9 8.3 5 13s4.1 10.4 4.4 12.7c.6 4 .4 4.3-1.6 4.3-2.1 0-2 .2 1 3.3 3.5 3.6 3.9 5.2 1.8 6.4-1.6.9-6.9 10.4-7.8 14.1-.4 1.4-1.9 2.8-3.7 3.5-4.2 1.6-4 3.9 1.4 13.4 5.6 10.1 8.3 17.7 14 39.4 2.6 9.5 7.8 28.1 11.6 41.2 8.2 28.3 10.9 39.6 11.2 48.3l.2 6.4H512V0H169.9z"/><path d="M362.1 258.2c0 1.8.4 4.2.9 5.3.6 1.5.9.8.9-2.7.1-2.6-.3-5-.9-5.3-.6-.4-1 .7-.9 2.7"/></svg>