<svg xmlns="http://www.w3.org/2000/svg" width="682.667" height="512" version="1.0" viewBox="0 0 512 384"><path d="M170.7 9.7c1.7 21.2-.1 38.8-5.7 54.8-1.1 3.3-2.3 6.8-2.5 7.8-.8 3.6-8.6 18.4-12.5 23.8-2.2 3-4.6 6.8-5.5 8.6-1.8 3.4-24.8 27.3-26.3 27.3-.5 0-1.7.9-2.7 2s-2.1 2-2.5 2c-.8 0-7 3.7-16.5 9.8-2.7 1.7-5.7 3.2-6.6 3.2-1.7 0-8.1 2.3-11.1 4-1.7 1-4.6 1.8-16.3 4.5-3.3.8-12.3 1.9-20 2.6-12.1 1-15.8 1-26.6-.4-7-.9-13.4-2-14.3-2.3-1.5-.6-1.6 8.9-1.6 113V384h156c94.7 0 156-.4 156-.9s1.2-2.4 2.6-4.1l2.7-3.1-3.7-3.6c-2-1.9-3.6-4-3.6-4.6s1.1-2.2 2.4-3.6c1.3-1.5 6.3-8.2 11.2-15.1 23.4-33.2 30.5-44.4 37.9-59.1l3.5-6.9-1.5-5.4c-.9-3-2.2-5.9-2.9-6.5-.8-.7-2.4-3.5-3.6-6.4-1.9-4.3-2.4-7.3-2.5-16.7-.3-16.2-.4-16.7-1.4-15.1-.6 1-1.1.6-1.9-1.5-.6-1.6-1.1-2.3-1.1-1.6-.1.7-.6 1-1.1.7-.6-.4-1-.3-.9.2.1.4.1 1.5 0 2.3-.1 1.3-.3 1.3-1 0-.4-.8-.4-5.6.1-10.5.4-5 1-12.4 1.3-16.6s1.6-13.3 3-20.2c1.4-7 2.5-15.3 2.5-18.5 0-11.9 3-21.8 9.3-30.9 4.3-6.1 4.2-5.9 7.4-13.3 5.7-13.4 16.6-25.3 26.4-28.9 1.9-.7 5.1-2.1 7.3-3.3 3-1.6 7-2.2 18.5-3 17.9-1.2 26.2-.5 29.7 2.5 2.2 2 2.4 2.6 1.5 5.1-.6 1.5-3.9 5.7-7.3 9.2-6.1 6.4-6.1 6.4-5 10.1 2.7 9.6 2.6 11.7-1 15.7-1.8 2.1-5.6 5.3-8.4 7.2-2.8 1.8-5.6 4.6-6.3 6.1-.9 2-1.5 2.3-2 1.4-.7-1-1.2-.9-2.3.5-.7 1.1-3 3.4-5 5.3-3.4 3.1-3.9 3.3-6.8 2.2-2.7-.9-3-.9-2.1.3.7.8 1 2 .9 2.7-.2.9 1.5 1.6 5.2 2.1 3 .5 6.8 1.8 8.5 3 4 2.7 9.8 11.7 12 18.8 1 3 3.3 8.6 5.2 12.5 1.8 3.8 3.3 8 3.3 9.2s.9 2.7 2 3.3c2.6 1.4 2.5 2.9-.2 3.9-2.2.8-2.2.9.9 2.4 4.7 2.5 4.8 4.3.6 12.4-3.1 6-4.2 7.3-6.2 7.3-1.4 0-3.7 1.4-5.8 3.6-4 4.3-4 5.3 1.3 14.5 4.6 8.1 9.5 20.2 12.5 30.4 1.2 4.4 7.6 22.7 14 40.7 12.9 35.7 15.8 45.5 16.6 56.5l.6 7.3H512V0H169.9z"/><path d="M383 241.6c0 .8.5 1.2 1 .9.6-.4.8-1.1.5-1.6-.9-1.4-1.5-1.1-1.5.7"/></svg>