<svg xmlns="http://www.w3.org/2000/svg" width="682.667" height="512" version="1.0" viewBox="0 0 512 384"><path d="M171.4 21.2c0 22.4-1.1 30.3-6.3 44.8-4.2 12-11.8 27.7-13.7 28.4-.8.3-1.4 1.2-1.4 2s-.6 2.1-1.3 2.8-2.3 3-3.6 5c-1.2 2.1-2.7 3.8-3.2 3.8s-.9.4-.9.9-1.2 2.2-2.7 3.8c-1.6 1.6-4.7 5-7.1 7.6-2.3 2.6-4.6 4.7-5 4.7s-2.1 1.5-3.8 3.2c-3.4 3.7-8.8 7.8-10.2 7.8-.5 0-1.5.6-2.1 1.4-1.3 1.5-18.5 11.6-19.8 11.6-.5 0-3.9 1.3-7.8 2.9-3.8 1.5-8.8 3.1-11 3.5s-4.4 1.1-5 1.6c-2.1 1.7-29.5 4.2-38.5 3.5-12.2-.9-25-2.7-25.6-3.6-.3-.5-.9-.9-1.5-.9-.5 0-.9 43.4-.9 114v114l160.1-.2 160-.3 1.7-2.8c1.6-2.7 1.6-2.9-.3-3.9-1.1-.7-3.3-2.4-4.8-4l-2.9-2.8 3.9-4.4c4.9-5.5 26.4-36.3 32.9-47.1 2.6-4.4 7.6-13.5 11-20.3l6.3-12.3-1.9-4.2c-1.1-2.3-2-4.8-2-5.6s-1.5-3.7-3.4-6.5c-4.7-7-5.8-12.1-6-26.1-.1-11.3-.7-14.5-2.5-14.5-.4 0-1.2 1.2-1.8 2.7-1 2.5-1.1 2.2-1.1-3.2 0-3.3.3-8.5.8-11.5.5-3.3.4-7.2-.2-9.7-1.1-4.7.7-15 4.4-25.6 1.5-4.2 1.9-7 1.5-10.8-.7-5.8 1.5-17.8 4.5-24.8 1.1-2.5 3.7-6.9 5.9-9.8 2.1-2.9 4.8-7.6 5.9-10.5 2.2-5.8 8-15.7 12.1-20.5 3.6-4.3 12.4-10.1 17.2-11.4 2.3-.6 4.9-1.5 5.7-2 4.4-2.7 7.9-3.2 23.7-3.7 19.9-.5 24 0 25.4 3.1 1.5 3.3-.1 6.5-6.7 13.6l-5.7 6.2 1.7 7.5 1.6 7.5-2.4 3.2c-2.6 3.4-7.9 7.7-9.4 7.7-.6 0-2.6 1.8-4.6 4s-4 4-4.5 4c-.6 0-1.4.6-1.8 1.3-.4.6-2.5 2.7-4.7 4.5-3.7 3.2-4.6 3.4-9.1 1.6-1.9-.7-1.9-.6-.4 1.2.9 1 1.4 2.4 1.2 3.1-.3.7 1.5 1.4 5 1.8 3 .4 6.6 1.4 8 2.3 4.4 3 9.9 11.3 12.7 19.6 1.6 4.5 4 10.3 5.4 13s2.6 6.2 2.6 7.8c0 2.1.7 3.2 2.5 4 3 1.4 3.2 2.8.5 3.5-1.9.5-1.8.8 1.3 2.9 1.9 1.3 3.7 3 4.1 3.9.3.8-.8 4.5-2.4 8-1.7 3.6-3 7-3 7.7s-1.4.9-4.2.5c-3.6-.5-4.5-.2-7 2.3-1.6 1.6-2.8 3.9-2.8 5.3s2.2 6.3 4.9 10.9c2.6 4.5 6.3 12.1 8.1 16.8 9.3 24.3 13 33.2 21.2 51 16.3 35.4 18.8 41.9 20.5 54.6l1.6 11.4H512V0H171.5z"/><path d="M382.5 240.7c.4 3.8.9 6.9 1 7.1.2.2 1.2-1.2 2.4-3.1l2.1-3.5-2.2-3.6c-1.3-1.9-2.7-3.5-3.1-3.6-.5 0-.5 3-.2 6.7M372 267.4c0 .8.5 1.8 1 2.1.6.3 1-.3 1-1.4 0-1.2-.4-2.1-1-2.1-.5 0-1 .6-1 1.4"/></svg>