<svg xmlns="http://www.w3.org/2000/svg" width="682.667" height="512" version="1.0" viewBox="0 0 512 384"><path d="M173.7.7c-.2.5.1 6 .6 12.3 1.7 18.9-2.2 44.9-9 59.9-5.6 12.5-9.5 20.6-10.3 21.1-.4.3-2.4 3.2-4.5 6.5s-4.4 6.7-5.2 7.5c-.7.8-2.5 2.8-4 4.5-5.3 6.2-11.4 12.5-11.9 12.5-.3 0-2.2 1.6-4.2 3.5-11.2 10.5-37 24.2-50.2 26.7-3 .5-5.9 1.3-6.5 1.7-4.6 3.4-41.9 4.6-55.5 1.8-4.1-.8-8.7-1.8-10.3-2.2l-2.7-.7V384h168.5c92.7 0 168.5-.2 168.5-.4s-1.5-1.4-3.4-2.5c-4.9-3.1-5.1-4.7-1.2-10.5 12.6-18.9 22.3-34.9 28.3-46.6 7-13.7 16.3-35.6 16.3-38.5 0-.8-1.2-2.1-2.6-2.7-1.8-.8-3.8-3.6-6.1-8.3-1.9-3.8-4.5-9-5.8-11.5-2.8-5.2-3.6-10.3-4-25-.2-5.8-1-16.7-1.9-24.2l-1.5-13.7 2.3-7.8c1.3-4.3 3.1-9.4 4-11.4.8-2 1.8-7.1 2.1-11.5 1.3-16.3 4-24.7 11.2-34.6 2.1-2.9 4.9-8 6.2-11.3 4.1-10.3 10.3-18.9 17.3-24 3.5-2.5 8.1-5 10.3-5.6s6-2 8.5-3.1c3.8-1.7 7.3-2.1 23.5-2.6l19.1-.5 2.9 2.6 3 2.5-1.9 3.4c-1 1.8-4.3 5.8-7.3 8.9l-5.4 5.5 1.6 5.9c.8 3.3 1.5 6.8 1.5 7.9 0 3-4 8.2-8.3 10.8-2.1 1.3-7 5.4-11 9.1-10.1 9.6-11 10.1-14.8 8.8-2.6-.9-2.9-.9-2 .3.7.8 1 2 .9 2.7-.2.9 1.8 1.7 6 2.5 9 1.6 15.3 8.3 19.3 20.3 1 3.3 3.5 9.2 5.4 13.2s3.5 8.6 3.5 10.1c0 1.7.5 2.8 1.4 2.8.7 0 1.9.7 2.6 1.6 1.1 1.3 1 1.6-.9 2.1-2.1.5-2 .7 1.4 3 4.1 2.8 4.3 4.6 1.5 10.9-1.1 2.4-2.5 5.6-3 7-.9 2.4-1.4 2.6-4.9 2.1-3.4-.4-4.3-.1-7.1 2.8-3.8 4-3.8 4.3 3.3 16.3 2.8 4.7 6.6 12.2 8.4 16.7 5.9 13.7 12.9 27.9 18.7 37.4 3.1 5.1 5.6 9.4 5.6 9.6s2.2 3.6 4.8 7.7c15 22.6 21 33.4 25.2 45.6l1.9 5.7.1-186.8V0H343.1c-93 0-169.2.3-169.4.7"/><path d="M386.7 229.2c-.5 1.5 0 14.2.9 19.6.4 2.9.7 3.2 2 2.1.9-.7 2.6-3.4 3.9-6 2.1-4.1 2.2-4.9 1-5.9-.8-.7-2.8-3.5-4.3-6.2-1.9-3.2-3.1-4.5-3.5-3.6m-9.2 40.9c.8 5.1 2.1 7 3.1 4.5.9-2.3-.8-7.8-2.5-8.4-1-.3-1.2.5-.6 3.9"/></svg>