<svg xmlns="http://www.w3.org/2000/svg" width="682.667" height="512" version="1.0" viewBox="0 0 512 384"><path d="M181.5 21.2c0 17-.4 23-1.8 29.8-1.1 4.7-2.3 9.4-2.8 10.5s-1.6 4.2-2.5 7c-2.9 8.9-9.8 23.3-12.4 26.3-.9.9-2.6 3.5-4 5.7-3.6 6.1-5.9 8.8-13.6 16.7-9.4 9.7-17.3 16.7-20.4 18.1-1.4.7-3.2 1.9-4 2.8-1.5 1.7-16 9.3-23 12.2-1.9.8-4.8 2-6.5 2.7-10.8 4.5-27.2 7.1-45.5 7.1-15 0-29.2-1.6-38-4.5-.8-.2-2.7-.7-4.2-1L0 154v230h356.7l1.1-2.4c.6-1.4 2.3-6 3.8-10.3 1.4-4.3 5.8-14.3 9.7-22.3 8.8-18.2 12.5-26.9 19.2-44.5 6.4-17.1 10.7-31.8 9.9-33.9-.3-.9 0-2.4.7-3.3.8-.8 4.2-7.3 7.6-14.2 5.8-11.9 6.1-12.7 4.5-14.4-.9-1.1-2.9-4-4.3-6.5-3-5.6-5.4-6.5-6.3-2.5-.6 2.9-2.3 21.3-3 31.8-.2 3.2-.8 6.1-1.5 6.3-.6.2-1.1 1.1-1.2 2 0 1.1-.2 1.2-.6.4-.2-.6-1.5-1.2-2.8-1.2-2.3 0-2.4.2-1.9 5.5.6 6 0 6.6-4.1 3.9-3.2-2.1-12.1-17-13.6-22.7-.7-3-.8-8.1-.4-14.9.4-5.6.7-17.3.6-25.8-.2-15-.1-15.8 2.9-23.8 1.7-4.6 3.7-9.7 4.5-11.2.8-1.6 1.9-7.8 2.4-13.8 1.4-15 5.2-26.1 11.7-33.2 1.2-1.4 3.4-5.6 4.8-9.4 6.2-16.5 17.3-27.9 29.8-30.6 2.9-.6 5.7-1.5 6.4-2.1 1.8-1.5 21.9-3.1 33.7-2.7 8.8.3 10.1.5 11.7 2.5 2.6 3.3 1.6 5.6-5.8 13.5-5.9 6.3-6.4 7.1-5.4 9.3.6 1.3 1.4 4.6 1.8 7.3.8 6.5-1.2 10.3-7.4 13.8-5.8 3.4-9.2 6.3-9.2 8.1 0 .7-.5 1.3-1 1.3-.6 0-3.3 2.1-6.1 4.7-4 3.7-5.6 4.6-8.3 4.5-3-.1-3.3.1-2.9 2.2.4 2 1.3 2.5 5.1 3.1 2.6.4 6.1 1.3 7.9 2.2 3.6 1.7 10.3 11.4 12.3 17.8.7 2.2 3 7.9 5.1 12.6 2.2 4.8 3.9 9.6 3.9 10.7s1.2 2.8 2.7 3.7c2.6 1.7 2.6 1.8.7 3.2-2 1.5-1.9 1.7 2.9 4.4 2.1 1.2 2.2 4 .3 8.2-.8 1.8-2.2 4.9-3 6.9-1.4 3.6-1.8 3.8-5.9 3.8-8.2 0-11 6.4-6.2 14 3.8 6.1 9.7 18.1 15.9 32.3 7.7 18 20.8 40.7 30.7 53.6 1.9 2.3 1.9-1.9 1.9-164.8V0H181.5z"/></svg>