<svg xmlns="http://www.w3.org/2000/svg" width="682.667" height="512" version="1.0" viewBox="0 0 512 384"><path d="M185.5 19.7c0 17.1-.3 21.2-2.3 30.3-2.8 12.5-3.9 15.9-8.5 26.5-4.9 11.5-8.6 18.3-11.9 21.8-1.5 1.8-2.8 3.6-2.8 4.2 0 .5-1.3 2.5-2.8 4.4-3.2 4-19.8 21.1-20.5 21.1-.3 0-2.5 1.8-4.8 4-2.4 2.2-4.9 4-5.5 4-.7 0-1.9.8-2.6 1.9-1.2 1.7-22.1 12.2-29.8 15-1.9.7-8.9 2.6-15.5 4.3-11.1 2.8-13.3 3-29.5 3-17.7 0-28.8-1.5-42.4-5.7-2.7-.8-5.3-1.5-5.8-1.5-.4 0-.8 52-.8 115.5V384h367.5l2.8-10.3c1.6-5.6 6.9-19.2 11.7-30.3 11.7-26.5 16.2-38 21.6-54.9 7.8-24.1 9.5-28.7 14.5-38.4 4.8-9.3 4.9-9.5 3.1-11.5-1-1.2-2.9-3.8-4.1-5.9-2.8-4.6-5.1-4.9-5.1-.7 0 1.7-.9 4-2 5.2-1.3 1.4-2 3.6-2 6.2 0 4.2-1.5 13.1-3.4 20.6-1 3.6-1.6 4.5-3.2 4.3-1.5-.2-2.4.7-3.2 3.1-.7 1.8-1.2 4-1.2 4.9 0 4.5-6.4-1.1-11.9-10.2-3-5.1-4.3-8.6-4.9-13.3-1-7.2-.1-20.3 1.6-23.4 1.1-2.2 1.3-4.9 1.2-21.9 0-9.3 2-17.4 6.2-25.8 1.2-2.5 2.2-7.6 2.8-14.5 1.5-16.7 4.2-24.8 11.3-34.3 1.8-2.4 4.3-7.1 5.6-10.4 5.4-14.7 16-25.7 28-29.1 3.1-.9 7.4-2.2 9.7-2.9 5.8-1.9 36.1-3.1 40.6-1.6 6.7 2.2 5.8 6.5-3.4 15.8-5.8 5.9-6.1 6.4-5 8.9.7 1.4 1.5 5.1 1.8 8.3.6 5.3.4 5.8-2.7 8.9-1.8 1.8-4.7 4-6.3 4.9-4 2-7.6 5.3-7.6 7 0 .7-.5 1.3-1 1.3-.6 0-3.3 2-5.9 4.5-3.8 3.6-5.5 4.5-8.3 4.5-3.2 0-3.5.2-3.1 2.4.5 2.2 1.2 2.6 6 3.2 4 .5 6.4 1.4 8.8 3.6 4.5 3.8 9 11.2 10.8 17.4.8 2.7 2.9 7.8 4.6 11.3 1.8 3.4 3.4 7.9 3.5 9.9.2 2 1 3.8 1.7 4 .8.3 2 .9 2.7 1.5 1.1.8.9 1.3-.8 2.2-2.2 1.2-2.2 1.2 1.4 3.4 4.4 2.8 4.5 4.2.4 13.2l-3.1 6.9h-4.2c-7.9 0-10.7 6.5-6.1 13.8 4 6.4 9.1 17.1 14.6 30.7 5.7 14 12.5 27.9 17.7 36.2 1.8 2.9 3.3 5.5 3.3 5.8s1.1 2.3 2.5 4.3l2.5 3.7V0H185.5z"/></svg>