<svg xmlns="http://www.w3.org/2000/svg" width="682.667" height="512" version="1.0" viewBox="0 0 512 384"><path d="M295 .9c0 3.6 5.2 15 9.6 20.6 3.5 4.7 3.7 6.5.5 6.5s-16.3 4.9-24 9.1c-14.6 7.8-28.8 20.4-34.8 30.7-1.5 2.6-3.7 6-4.8 7.7-2.7 3.7-6 13.1-7.4 20.6-1.5 8.7-5 16.6-9.5 21.6-1.1 1.3-1.6 2.3-1.2 2.3 1.6 0 5.2-2.3 7.5-4.8l2.3-2.7-.7 3.5c-1.8 9.5-1.8 10.6-.4 8.7 1.2-1.5 1.4-.5 1.1 7.5-.2 9.2-.2 9.3 1.5 6.3l1.7-3 2 6.5c1.9 6 2.1 6.2 2.4 3.2l.3-3.3 2.7 5c1.6 3.3 2.8 4.7 3.3 3.9s1.2-.3 2 1.5c1.5 3.3 3.3 3.6 2.3.5-.6-2-.5-2.1.9-1 .9.7 1.9 2.8 2.3 4.5.4 1.8.9 2.6 1.2 1.9.3-1 1.1-.7 2.9 1l2.6 2.3-.7-3-.6-3 1.5 2.7c2.1 3.7 3.2 3.5 2.8-.5-.3-2.4-.2-2.9.6-1.7 2.9 4.1.1 13.9-5.3 18.9-4.4 4.2-3.5 6.3 4.6 10.4 3.8 2 4.4 2.7 5.2 6.9.9 4.8 2.5 6.1 8.1 7 1.6.3 1.9 1 1.7 3.5-.3 2.5.2 3.5 2.2 4.8 1.4 1 4.2 4.3 6.1 7.5 2.9 4.8 3.5 6.7 3.5 11.3 0 3.1-.4 6.7-1 8.1-.7 2.1-.6 2.6 1 3.1 1.1.4 2.4.4 2.9.1 1.4-.9 1.9 1.6.8 4-.6 1.5-.5 2.8.6 4.5.8 1.3 2 6 2.7 10.3.7 4.4 1.8 10.4 2.6 13.4.8 2.9 1.1 6 .7 6.7-1 1.7-14.2 12.5-15.3 12.5-.4 0-1.2-1.2-1.8-2.7-1.2-3.4-8.2-12.9-11-14.9-1.1-.7-3.8-4.6-6-8.6s-5-8.2-6.1-9.3c-2.1-1.8-2.2-2.5-1.6-10.5 1.2-16.5-3.7-32.8-11.8-39.4-3.8-3-4.2-3.1-14-3.1-5.6 0-12.3.3-14.9.7l-4.7.7-.8-5c-1.1-6.6-2.8-5.9-2.8 1.3v5.6l-6.5 2.3c-14.9 5.1-21.4 10-23.4 17.3-4.1 15.4-4.2 15.8-1.2 28.4 4.2 17.6 4.2 17.6 11.9 26.4 8.1 9.5 8.8 10.1 14.8 12.4 6.1 2.4 6.3 2.7 4 6.5-6.6 11.3-10.1 27.2-10.8 48.4-.4 12.3-1.1 18.3-2.9 25.7-1.3 5.3-2.4 10.4-2.4 11.2 0 1.4 3.9 1.6 35 1.6 28 0 35-.3 35-1.3 0-3.6 17.2-32.9 18.5-31.5.2.2-.1 5.5-.6 11.8s-.6 13.6-.2 16.3l.6 4.7H378c52.7 0 96-.4 96.2-.8s3.1-2 6.6-3.5c6.9-2.9 15.2-8.3 15.2-9.7 0-.5-1.6-.6-3.5-.3s-3.5.3-3.5-.1 1.8-3.1 4-5.9c2.1-2.9 3.6-5.5 3.2-5.8-1.3-1.3-12.4.9-14.6 2.9-8.3 7.4-23 16.2-27.2 16.2-1.6 0-9.9-16.9-11.5-23.5-.7-2.8-1.7-5.3-2.2-5.6-.5-.4-.7-1.6-.4-2.8.4-1.8-3.6-21.1-6.2-29.6-.5-1.7-1.3-4.6-1.6-6.5-.4-1.9-1.2-4.4-1.8-5.5s-1.1-3.1-1.3-4.5c-.1-1.4-.5-4.4-.8-6.7-.6-4.8.4-5.6 2.4-1.8.9 1.7 1.6 2.1 2.1 1.4.4-.7 3 3.6 6.2 10.2 4.8 10.1 9.6 18.1 8.2 13.9-.2-.8-.7-5.1-1-9.5s-1.4-12.7-2.5-18.5-1.9-11.9-1.9-13.5c-.1-2.8.2-2.6 3 2.5 1.6 3 3.7 6.2 4.5 7 1.4 1.3 1.4 1.1 0-2.5-4.2-11.1-6.9-25.1-7.2-38-.4-12.9-.3-12.9 1.1-7.4 2.2 8.9 8.9 24.6 14.7 34.9 5.2 9.2 9.9 16.3 10.4 15.7.2-.1-1.1-4-2.7-8.7-3.4-9.6-6.5-21.4-7.3-28-.5-3.8-.3-4.2.7-2.6.7 1 3.4 5.3 6.1 9.5 5.4 8.6 12.7 18.3 13.2 17.8.2-.2-.7-5.3-2.1-11.3-2.4-10.6-4.3-27.3-6.5-59.4-4.2-60.3-11.9-95.2-28.9-131.1-3.2-6.8-6.6-15.1-7.5-18.4-3.1-10.3-9.8-21.7-18.5-30.8-9-9.6-23.3-13.6-35.7-10.1-1.7.5-3.2-.8-8-6.5L365.6 0h-35.3c-19.5 0-35.3.4-35.3.9m32 225.7c0 .7-.9 1.8-1.9 2.4-1.8.9-2 .7-1.9-3 0-3.9.1-4 1.9-2.4 1.1.9 1.9 2.3 1.9 3"/></svg>