<svg xmlns="http://www.w3.org/2000/svg" width="682.667" height="512" version="1.0" viewBox="0 0 512 384"><path d="M208.7 16.7c.7 24.1-1.5 38.3-9 56.7-3.1 7.6-9.8 20.6-13.2 25.6-9.1 13.5-26.1 30.8-35.4 36-1.5.8-3.8 2.6-5.1 3.8-3 2.9-20.3 11.3-28.5 14-19.3 6.4-24.5 7.2-47.5 6.9-17.4-.3-21.9-.7-29.5-2.6-10.3-2.5-17.1-4.9-20-6.8-1.1-.7-2.8-1.3-3.9-1.3s-2.7-.6-3.5-1.4c-.9-.7-4.2-2.5-7.3-3.9L0 141.1V384h416l1.1-2.8c.6-1.5 2.6-8.4 4.4-15.3 2.6-9.7 5.7-17.6 13.8-35 11.4-24.2 17.6-38.6 21.2-49.1 1.9-5.4 2.1-7 1.1-8.4-1-1.3-1.7-1.4-3.4-.5-1.1.6-2.9 1.1-4 1.1s-3.3.7-4.8 1.5c-1.6.8-4.4 1.5-6.1 1.5-2.7 0-3.4-.4-3.9-2.8-.3-1.5-1.3-4.9-2.1-7.6-2.6-8-1.3-22.7 2.6-31.3 3.4-7.3 3.5-8.4 2.5-24.5-.5-9.2-.3-11.9 1.5-18.8 1.2-4.4 2.9-9.6 3.7-11.5.9-2.3 1.4-6.5 1.3-12.7-.3-15 3.1-26.5 10.5-35.8 2-2.5 3.6-4.9 3.6-5.4s1.2-3.6 2.7-7c7.5-17 16.1-24.3 32.8-27.7 5.3-1 11.4-1.9 13.6-1.9h3.9V0H208.1zm298.8 132.8c-2.2 1.9-4.7 3.5-5.7 3.5-1.7 0-4.8 2.5-4.8 3.9 0 .4 2.6 1.2 5.8 1.8 3.1.6 6.5 1.4 7.5 1.8 1.5.6 1.7-.1 1.7-6.9 0-4.2-.1-7.6-.2-7.6-.2 0-2.1 1.6-4.3 3.5"/><path d="M465 242c-1.3 1.3-2 3.3-2 5.8 0 2.1-.7 4.7-1.5 5.9s-1.6 2.9-1.8 4c-.2 1-.7 2.5-1 3.3s-.8 2.7-1.1 4.2c-.5 2.2-.3 2.8 1.1 2.8 2.1-.1 14.5-24.3 13.6-26.6-.8-2-5-1.7-7.3.6"/></svg>