<svg xmlns="http://www.w3.org/2000/svg" width="682.667" height="512" version="1.0" viewBox="0 0 512 384"><path d="M237.4 3.2c1.9 10.8 1.8 24.6-.3 37.3-2.2 13.1-4.8 24.2-6.1 26-.4.5-1.5 3.5-2.5 6.5s-2.4 6.4-3 7.5c-.7 1.1-1.6 3.1-2 4.4-.4 1.4-1.2 2.9-1.6 3.5-.9 1.1-4.2 6.2-9.2 14.3-1.5 2.3-6.3 8.1-10.9 12.8-4.5 4.7-8.8 9.5-9.6 10.6-.7 1-1.8 1.9-2.4 1.9-.5 0-3.2 1.8-5.8 4s-5 4-5.4 4c-.3 0-2.9 1.8-5.8 4s-6.3 4-7.5 4-2.5.4-2.8 1c-1.5 2.4-21.4 9.9-31.5 12-3 .6-7.7 1.5-10.5 2.1-8.5 1.8-39.4.5-50.5-2.1-5.2-1.2-10.9-2.8-12.7-3.6-1.7-.8-3.6-1.4-4.1-1.4-.6 0-2.3-.6-3.9-1.4-1.5-.8-5-2.5-7.8-3.8-2.7-1.3-5.2-2.5-5.5-2.8s-2.5-1.4-5-2.5c-2.4-1.1-6.3-3.7-8.5-5.7-2.2-2.1-4.3-3.8-4.7-3.8-.7 0-6.1-4.6-11.8-10-1.5-1.4-3.4-3.1-4.3-3.9C.1 116.8 0 125.9 0 250.4V384h230.5c225.7 0 230.5 0 229.3-1.9-.9-1.5-.7-2.9 1.3-7.2 1.4-3 3.2-7.4 3.9-9.9.8-2.5 6.6-14.8 12.8-27.5 18.4-37 20.5-41.7 20.7-46.3.2-3.2-.1-4.2-1.4-4.3-.9-.1-.5-.4.9-.9l2.5-.7-2.8-.8c-1.5-.4-3.9-.4-5.3-.1-3.8 1-5.4-.9-5.4-6.5 0-2.6-.7-7.4-1.5-10.6-2.1-8.1-1.9-20.7.4-27.5 2.1-6 2.1-17.3.2-25.8-.6-2.5-1-6.6-1.1-9.1 0-4.8 2.9-17.6 5.6-24.4 1.2-2.9 1.4-5.6.9-10.7-1.2-12.1 3.3-28.6 10-36.6 1.3-1.5 3.8-6.1 5.6-10.2s3.6-7.9 4.1-8.5c.4-.5.8-26.5.8-57.7V0H236.8z"/></svg>