<svg xmlns="http://www.w3.org/2000/svg" width="682.667" height="512" version="1.0" viewBox="0 0 512 384"><path d="M248.7 18.2c.5 16.2.3 19.6-1.7 29.3-5.2 26-16.7 49.3-33.2 67.1-21.4 23.1-45.7 36.9-75.8 43.1-6.5 1.3-13.3 1.7-28.5 1.7-18.2-.1-20.8-.3-29.5-2.6-11.6-3.1-21.8-6.8-25.3-9.1-1.4-.9-3-1.7-3.4-1.7-1.6 0-14.3-7.1-14.3-8 0-.5-.8-1.1-1.9-1.5-1-.3-2.9-1.5-4.2-2.7-1.3-1.1-4.7-3.8-7.5-5.9-2.8-2.2-7.1-6.3-9.5-9.2-2.4-2.8-6.5-7.6-9.1-10.5L0 103v281h478.3l-1.8-2c-1.8-1.9-1.7-2.2 1.7-9.8 2-4.2 4.1-9.3 4.8-11.2.8-1.9 7.6-15.8 15.2-30.7L512 303v-8.4c0-8-.1-8.5-2.2-8.8-1.9-.2-2.3-1-2.6-4.8-.2-2.5-1.4-8-2.8-12.3-2.6-8.6-3.1-16.4-1.2-24.8 1.4-6.8 1.3-21.9-.3-32.7-1.4-9.3-.7-14.9 3.7-28 2-5.9 2.3-8.5 1.8-14-.3-4.5 0-9.3 1.2-14.7 1.6-7.1 1.8-16 2.1-81.3L512 0H248.2z"/></svg>