<svg xmlns="http://www.w3.org/2000/svg" width="682.667" height="512" version="1.0" viewBox="0 0 512 384"><path d="M271.8 19.2c.3 14.9 0 21.1-1.2 27.3-2 9.7-7 25.3-10.2 31.8-1.3 2.7-2.4 5.5-2.4 6.3s-.4 1.4-.9 1.4-1.3 1-1.7 2.2c-.3 1.3-2.2 4.4-4 7.1-1.9 2.6-3.4 5.1-3.4 5.5 0 1.2-10 13.1-15.7 18.7-5.6 5.6-18.8 16.5-19.9 16.5-.4 0-1.6.7-2.6 1.7-2.1 1.9-5.3 3.8-8.8 5.3-1.4.5-3.2 1.5-4 2-4.9 3.3-24.1 10.2-33.5 12-3.3.6-7.6 1.6-9.5 2.1-3.5 1-34.8.6-42.5-.6-5.5-.8-15.4-3.4-19.2-5.1-1.7-.8-3.6-1.4-4.2-1.4s-1.9-.4-2.9-.9c-.9-.5-5.7-2.9-10.7-5.2-17.6-8.5-28.1-16.7-42.9-33.9-11.3-12.9-22.8-33.3-26-46-.9-3.6-2.1-6.9-2.6-7.4-.6-.6-1-2.5-1-4.3S1.6 51 1 51c-.7 0-1 56.2-1 166.5V384h256c170 0 256-.3 256-1 0-.6-.4-1-.9-1-1.8 0-2.2-4-.7-6.2 1.4-2 1.6-21.2 1.6-189V0H271.5z"/></svg>