<svg xmlns="http://www.w3.org/2000/svg" width="682.667" height="512" version="1.0" viewBox="0 0 512 384"><path d="M291 .8c0 4.2 6.6 17.7 11.3 23.1l2.9 3.4-9.8 3.2c-20.8 6.9-40.3 20.9-49.9 36-2.1 3.3-4.9 7.6-6.1 9.5-3 4.6-5 10.5-7.4 21.5-2.1 9.4-7.2 21.3-9.6 22.2-1.6.6-1.9 2.3-.4 2.3.5 0 2.6-1.5 4.6-3.3l3.7-3.2-.6 6.5c-.5 4.4-.4 6 .3 5s1 1.1 1 7c0 8.5.1 8.5 1.9 6.1l1.8-2.4 2.1 5.9 2 5.9.2-4 .2-4 1 3.4c.5 1.8 1.5 4 2.3 4.7.7.8 1.6 1.9 1.8 2.6.4 1.1.7 1.1 1.5 0 .6-.9 1.2-.5 2.1 1.5 1.3 2.6 1.4 2.7 2.1.8.6-1.8.9-1.7 2.9 1.5 1.1 1.9 2.1 3.1 2.1 2.6s1.2.1 2.6 1.5l2.6 2.4-.6-2.5c-.5-1.9-.2-1.6 1.3 1l2 3.5.1-4c0-3 .3-3.6 1-2.5 2.5 3.9-.3 13.3-5.4 17.9-4.4 4.1-3 7.3 4.6 10.4 3.1 1.3 3.9 2.3 4.8 5.9 1.5 5.5 3.6 7.8 7.2 7.8 2.5 0 2.8.3 2.8 3.4 0 2.5.6 3.8 2.5 5 1.3.9 4 4.1 6 7.1 3.1 4.9 3.5 6.3 3.5 12.1 0 3.6-.5 7.4-1 8.5-1.1 1.9 0 2.5 3.9 1.9 1.1-.1 1.2.7.7 3.8-.3 2.2-.2 4.2.3 4.4.7.3 6 24.2 6.4 29.2.1 1.3-2.3 4.1-7.3 8.3-4.1 3.5-7.7 6.3-8 6.3s-1.8-2.4-3.3-5.3c-1.5-3-4.9-7.6-7.5-10.3s-6.5-7.8-8.6-11.4c-2.2-3.6-4.8-7.5-5.9-8.7-1.8-2-2-3.8-2.2-16-.2-15.5-1.5-21.1-6.8-28.9-4.9-7.3-9-9-21.2-8.6-5.5.1-11.5.7-13.3 1.2-3.7 1-3.9.7-4.5-5.5-.3-2.6-.9-4-1.8-4-1.8 0-2.4 4.7-1 8.5l1 2.9-8.1 3c-4.4 1.7-8.3 3.1-8.6 3.1-.7 0-8.2 5.6-11.4 8.4-.9.8-2.1 3.2-2.6 5.3s-1.5 6-2.2 8.8c-2 7.2-1.7 10.5 1.9 24.5 2.7 10.3 3.9 13.4 7.1 17.5 9.2 11.9 13.7 15.5 23.4 18.9 1.3.4 1.5 1 .8 1.9-1.8 2.3-7.3 16.1-9.3 23.6-1.4 5.3-2.3 13.3-3 26.3-.6 12.2-1.6 21.6-2.9 27-1.1 4.6-2 9.1-2 10 0 1.7 2.3 1.8 34.9 1.8h34.9l5-10.2c4.7-9.7 12.9-22.4 13.8-21.5.2.2-.1 4.8-.6 10.3-.6 5.4-.8 12.5-.4 15.6l.6 5.8H377c52.7 0 96-.3 96.2-.8.2-.4 3.2-2 6.8-3.5 6.9-2.9 16.3-9 15.4-10-.3-.3-2.1-.3-4 0s-3.4.3-3.4-.1 1.9-3.2 4.1-6.2c2.3-3 4-5.6 3.8-5.9-.3-.2-3.2 0-6.5.4-5.4.8-7.1 1.7-16.2 8.6-9.3 7-19.2 12.2-20.7 10.7-.3-.4-2.7-4.9-5.2-10.2-4.9-10.4-7-16.6-8.3-25-.4-3-2.2-10.7-3.9-17-1.8-6.3-3.4-13.1-3.7-15s-1.2-4.5-2.1-5.8c-.8-1.3-1.2-2.9-1-3.5.2-.7-.2-2.9-.9-5-.8-2.3-.9-3.7-.3-3.7s.7-.9.3-2.2c-.6-2-.5-2.1 1-.9.9.7 1.6 2.1 1.6 3 .1 1.5.2 1.4 1.3-.1 1.1-1.4 1.9-.4 5.6 8 2.3 5.3 5.3 11.5 6.7 13.7l2.4 4-.4-9.5c-.2-5.2-.9-10.9-1.5-12.5-1-3.1-4.3-24.6-3.8-25.1.2-.2 2 2.8 4.1 6.6 4.4 8.1 6.2 9.8 4.1 3.9-4.3-12-7.7-29.6-7.9-39.5-.1-10.2.6-12.7 1.7-5.9.9 5.7 8.5 24.3 13.5 33 5.2 9.2 10.2 16.8 10.7 16.3.2-.2-1.6-6.6-3.9-14.3-2.4-7.7-4.6-16.5-5-19.5l-.6-5.5 2.2 3.5c5.6 9.1 17.2 25 18 25 .6 0 .7-.8.3-1.8-.4-.9-1.7-6.9-3-13.2-2.2-10.7-3.2-20.3-7-68-1.7-20.9-2.8-29.8-5.6-45.5-4.7-25.9-13.3-53.4-22.9-72.5-3.1-6.3-6.5-14.2-7.5-17.5-4.5-15.7-18.2-34-30.1-40-6.6-3.3-17.9-4.6-23.5-2.6-3.9 1.3-4.5 1-10.8-6.7L361.9 0h-35.4C307 0 291 .4 291 .8M326 227c0 .4-.9 1.5-2 2.5-2 1.8-2 1.7-2-3.1l.1-4.9 1.9 2.4c1.1 1.3 2 2.7 2 3.1"/></svg>