<svg xmlns="http://www.w3.org/2000/svg" width="682.667" height="512" version="1.0" viewBox="0 0 512 384"><path d="M0 192v192h512V0H342.9l.8 5.2c.4 2.9.7 12.3.6 20.8-.1 12.8-.6 17.2-2.7 25.5C337 70.1 331.3 84 323.8 95c-2.1 3-3.8 5.9-3.8 6.4 0 1.1-10.7 13.5-15.9 18.6-3.1 2.9-13.8 11.6-22.3 18-1.4 1.1-3.1 2-3.7 2s-1.1.4-1.1.9-1.5 1.4-3.2 2.1c-1.8.6-4.2 1.7-5.3 2.3-7.7 4.2-21.7 9.5-29 10.9-2.7.5-7 1.5-9.5 2.1s-12.8 1-23 1c-15.4 0-20.1-.3-28-2.1-5.2-1.2-10.4-2.3-11.5-2.5s-4.2-1.4-7-2.7c-2.7-1.2-7.4-3.3-10.3-4.6s-5.7-2.4-6.1-2.4c-.5 0-1.1-.3-1.3-.8-.1-.4-2.8-2-5.8-3.6-6.5-3.5-12.2-7.8-23.1-17.4-7.2-6.3-17.7-19.7-23.5-30-7.8-13.7-10.3-18.4-10.3-19.9-.1-.7-1.7-6.1-3.7-12-2.5-7.6-3.9-13.8-4.5-20.8-.5-5.5-1.1-11.1-1.4-12.5s0-8.2.8-15.3L72.6 0H0z"/></svg>