<svg xmlns="http://www.w3.org/2000/svg" width="682.667" height="512" version="1.0" viewBox="0 0 512 384"><path d="M0 192v192h512V0h-78.6c-74.5 0-78.6.1-77.9 1.7.4 1 1 8.6 1.3 16.9.4 13.5.1 16.6-2.3 29-1.4 7.6-3 14.3-3.5 14.9-.4.5-1.1 2.6-1.5 4.5-1.1 5.1-10.3 23.7-16 32.5-5.4 8.2-23.8 28.5-25.9 28.5-.4 0-2.1 1.4-3.8 3-1.6 1.7-4.4 3.8-6.1 4.7-1.7.8-3.7 2.2-4.5 2.9-.7.8-1.9 1.4-2.7 1.4-.7 0-1.5.6-1.8 1.4s-2.1 1.7-3.9 2.1-4.4 1.6-5.7 2.6c-1.3 1.1-3 1.9-3.7 1.9s-2.8.9-4.6 2-4 2-4.9 2-2.9.7-4.5 1.5-6.8 2.1-11.4 3c-4.7.9-10.2 2.1-12.2 2.7-2.4.7-9.7.9-21 .5-16.1-.5-19.5-1-36.3-5.1-4.2-1-6.6-1.9-17.8-7-3.2-1.4-6.2-2.6-6.6-2.6-.5 0-1.1-.3-1.3-.8-.1-.4-2.8-2-5.8-3.6-5.1-2.7-8.1-4.9-16.5-11.5-5-4.1-20.5-20.4-20.5-21.6 0-.7-.9-2-2-3-2.2-1.9-12-18.7-12-20.4 0-.5-.3-1.1-.7-1.3-1.3-.5-5.3-10-6.9-16.3-.8-3.3-1.9-6.4-2.5-6.9-.5-.6-.9-2.4-.9-4.2s-.5-3.4-1.1-3.6c-.5-.2-1.4-5.3-1.9-11.3-.5-6.1-1.2-12-1.6-13.3s-.2-5.6.4-9.5c.6-4 1.3-9.6 1.6-12.5l.5-5.2H0z"/></svg>