<svg xmlns="http://www.w3.org/2000/svg" width="682.667" height="512" version="1.0" viewBox="0 0 512 384"><path d="M0 192v192h512V0H368.5l.4 19.6c.2 15.8 0 20.9-1.4 26.7C365 57 361 69.8 358.3 76c-4.4 10-5.7 12.4-9.5 18.3-2.1 3.2-3.8 6.1-3.8 6.4 0 2.8-25 28.2-32.5 33-2.7 1.8-5.7 3.9-6.6 4.8-.9.8-2 1.5-2.6 1.5s-1.6.6-2.2 1.4c-.7.8-2.7 1.8-4.4 2.2-1.8.3-3.4 1-3.7 1.4-.7 1.1-13.7 7-15.4 7-.7 0-2.6.7-4.3 1.5-1.6.8-7.4 2.5-12.9 3.7-8.3 1.8-12.9 2.2-28.4 2.2-22.7 0-35.6-2.3-50.5-8.9-17.5-7.9-21.1-9.9-34-19.6-10.4-7.7-26.4-25.9-32-36.4-2-3.9-5.3-9.9-7.3-13.4-3.1-5.5-4.4-9.3-6.9-19.9-.3-1.2-.9-2.2-1.4-2.2s-.9-1.5-.9-3.4-.4-3.7-.9-4c-2-1.3-3.2-30.9-1.7-43.9l.8-7.7H0z"/></svg>