<svg xmlns="http://www.w3.org/2000/svg" width="682.667" height="512" version="1.0" viewBox="0 0 512 384"><path d="M0 192v192h512V0H393.4l.4 17c.5 19.2-.9 29.7-6.1 46-5 16-11 27.6-22.7 44.4-5.4 7.7-23.9 24.9-30.5 28.3-1.6.9-3.4 2.2-3.8 2.9-.4.8-1.7 1.4-2.7 1.4-1.1 0-2 .4-2 .9 0 1.3-20.8 11.1-23.5 11.1-.7 0-1.7.4-2 1s-1.5 1-2.6 1c-1 0-2.7.4-3.7.9-.9.5-5.1 1.5-9.2 2.1-4.1.7-8.6 1.6-10 2.1-4.8 1.8-36.5.4-47.5-2-18.5-4.1-40.6-13.9-50.8-22.6-2-1.7-5.1-4.1-6.9-5.5-5-3.7-17.4-16.8-22.1-23.4-4.3-6-11.2-17-12.4-19.6-.3-.8-1.3-2.3-2.1-3.3-.8-.9-1.2-1.7-.8-1.7s-.1-1.5-1.2-3.3c-1.1-1.7-2.4-5-2.7-7.2-.4-2.2-1.4-5.3-2.2-6.9-2.1-4.2-4-12-4.9-21.1-1.1-9.6-1.2-33.5-.2-38.8l.7-3.7H0z"/></svg>