<svg xmlns="http://www.w3.org/2000/svg" width="682.667" height="512" version="1.0" viewBox="0 0 512 384"><path d="M287 1.3c0 4.7 6.8 18.4 11.8 23.9 1.4 1.5 2.4 2.9 2.1 3.1-.2.3-3.8 1.4-7.9 2.7-20.9 6.2-42.6 23.3-53.8 42.4-4.8 8.3-9.2 19.7-9.2 24.2 0 5.2-6.3 20.8-9.4 23.3-.9.8-1.6 1.8-1.6 2.2 0 1.6 5.7-1.9 8-4.8l2.1-2.8-.6 4.5c-.3 2.5-.9 5.6-1.2 6.9-.4 1.8-.3 2.2.7 1.6s1.2.8.8 6.9c-.4 5.5-.2 7.6.7 7.6.7 0 1.7-1 2.2-2.3.8-1.7 1.2-1.8 1.6-.7.3.8 1.3 3.7 2.3 6.5 1.6 4.6 1.8 4.8 2.5 2.5.4-1.6.7-1.9.8-.8.1 1 .5 1.8 1.1 1.8.5 0 1.6 1.2 2.4 2.7 1.3 2.4 1.5 2.5 1.6.8 0-1.8.3-1.6 2.6 1 1.4 1.6 2.2 2.4 1.8 1.6-.4-.9-.2-1.2.7-.9.8.2 1.8 1.4 2.4 2.6.5 1.2 1.4 2.2 1.9 2.2s1.8.7 2.8 1.7c2.2 2 2.3.5.3-4.4-2.7-6.3-1.5-6 1.5.4 3.1 6.8 4.5 8 3.8 3.4-.2-1.7-.1-2.8.4-2.5 1 .6 1.1 5.9.2 10.3-.4 1.7-2.4 5.1-4.6 7.6-3.4 3.8-3.8 4.7-2.8 6.5.6 1.2 3.2 3 5.8 4.1 5.3 2.3 6.2 3.3 6.2 7 0 3 2.6 5.7 6.6 6.8 2.3.6 2.9 1.3 2.9 3.6.1 1.8.9 3.4 2.4 4.3 1.2.9 4 4.1 6.2 7.3 3.4 5 3.9 6.5 3.9 11.3 0 3-.5 6.7-1 8.2-1.2 3.1.2 4.8 3.3 3.8 1.9-.6 2.2 1.5.8 5.1-.5 1.3-.3 2.4.5 3 .6.5 2.3 6.8 3.7 14 1.4 7.1 2.8 13.7 3.2 14.7.5 1.2-1.5 3.3-7.6 8.3l-8.2 6.6-3.1-5.8c-1.7-3.1-5.4-8.1-8.3-10.9-2.8-2.9-6.1-7-7.2-9.2-1.1-2.1-3.6-6-5.5-8.5-3.5-4.6-3.5-4.7-2.9-12.4.6-8.7-.9-20-3.8-27.8-2.3-6.2-8.5-12.9-13.5-14.5-3.5-1.2-16.5-.8-25 .6-3.2.6-3.2.5-3.9-4.5-.4-3.2-1.2-5.1-2-5.1-2 0-2.6 2.9-1.4 7.3 1.3 4.8 1.4 4.7-9.2 8.2-4.1 1.4-9.1 3.9-11 5.5s-3.9 2.9-4.5 3c-2.2 0-4.2 4.6-6.5 14.9-1.9 8.8-2.1 10.9-1.1 14.4.7 2.3 2.1 8.1 3.2 12.9 2.3 10.6 3.2 12.2 11.8 22.3 6.6 7.7 8.4 9 18.6 12.8.5.1-.1 2.2-1.4 4.6-6.5 12.9-8.9 23.6-10 45.1-.6 12-1.6 21.7-3 27.5-1.1 5-2.2 9.8-2.4 10.7-.4 1.7 1.8 1.8 35.5 1.8h36l3.5-7.7c3.8-8.4 12.4-22.3 13.8-22.3.4 0 .6 1 .2 2.2-1 3.8-1.9 22.3-1.2 25.2l.6 2.6h96c52.8 0 96-.4 96-.8s2.2-1.6 5-2.6c5.7-2.1 18.4-9.9 17.4-10.8-.3-.4-2.1-.4-4-.1s-3.4.3-3.4-.1 1.8-3.1 3.9-6c2.2-3 3.8-5.5 3.6-5.7s-2.8-.3-5.8-.1c-5 .3-6.2 1-16.6 8.7-9.7 7.1-19.5 12.5-20.5 11.4-1.7-1.8-10.1-20.5-11.2-24.8-.8-3-1.9-6.1-2.5-6.7-.6-.7-.8-1.8-.4-2.4.7-1.1-2.9-16.1-6.1-26-.8-2.5-1.6-5.2-1.8-6-1-5.7-1.9-9-2.6-9-.5 0-.8-1.2-.8-2.7 0-1.6-.5-4.2-1.2-5.8-.7-1.7-1.4-4.1-1.6-5.5-.2-2.4-.2-2.4 1.2-.6 1 1.4 1.4 1.6 1.4.5.1-1 .5-.8 1.6.6.8 1.1 2 1.9 2.7 1.8.7-.2 3 3.7 5.2 8.5 2.1 4.8 4.8 10.2 5.8 11.9 2 3.5 4.2 4.5 3.3 1.5s-.9-8.6-.1-10.6c.5-1.1.2-2.8-.8-4.5-1.4-2.5-6.2-28.9-5.4-29.8.2-.1 1.3 1.6 2.5 4 5 9.8 9.2 14.9 6.3 7.5-.5-1.3-2.4-7.7-4.2-14.3-2.5-9.5-3.2-14.5-3.5-24-.3-8-.1-11.3.5-10 .5 1.1 1 3 1 4.2.1 3.4 8.4 23 14.1 33.4 5.1 9.2 12.1 18.8 10.4 14.4-5.4-15-12.2-42.5-9-37.1 2.5 4.3 14.5 21.9 16.5 24.2 1.2 1.4 2.4 2.4 2.7 2.2.2-.3-.7-5.4-2.1-11.4-1.6-6.9-3.4-21.1-5-38.9-5.5-62.6-6.7-71.3-13.6-98.5-4.5-18.1-10.4-34.7-18.4-51.5-3.2-6.6-6.8-15.2-8-19.1-5.4-17-19.9-34.7-32.3-39.5-6-2.3-14-2.9-22.7-1.7l-5 .8-5.1-6.3-5-6.2-35.7-.3C293.5 0 287 .2 287 1.3m38 226.4c0 1.1-3 3.3-4.4 3.3-.8 0-.7-3.9.1-6.9l.6-2.4 1.8 2.4c1 1.3 1.9 2.9 1.9 3.6"/></svg>