<svg xmlns="http://www.w3.org/2000/svg" width="682.667" height="512" version="1.0" viewBox="0 0 512 384"><path d="M0 192v192h512V0h-82.3l.7 5.6c3.9 33-1.6 57.7-19.6 89.5-5.1 9.1-18.4 24.3-28.8 33-9.7 8.1-15.8 12-28.5 18.2-14 6.9-18.1 8.3-31.5 11-16.5 3.4-28.8 4.2-39.7 2.7-11-1.5-28.1-4.8-30.8-5.9-1.1-.5-4-1.7-6.5-2.6-6.1-2.4-11.9-5.1-15.5-7.2-11.6-6.8-23-15-28.5-20.5-10.3-10.4-15-15.6-15-16.6 0-.6-.3-1.2-.7-1.4-1.5-.6-7-8.3-7.8-10.8-.4-1.3-2.2-4.5-4-7.1-3.8-5.4-6.7-11.9-9.1-20.4-.9-3.3-2-6.4-2.5-7-.5-.5-.9-2.3-.9-4s-.4-3.5-1-4.1c-.5-.5-1.5-6.8-2.1-13.9-1.5-16.7-1.5-17.2-.6-28.8l.8-9.7H0z"/></svg>