<svg xmlns="http://www.w3.org/2000/svg" width="682.667" height="512" version="1.0" viewBox="0 0 512 384"><path d="M0 192v192h512V0h-70.2l.7 2.2c1.4 4.3 1.4 34.9 0 42.9-2.1 12.1-10.4 35.6-15.1 43.1-1.3 2.1-2.4 4.2-2.4 4.8 0 .5-.4 1-1 1-.5 0-1 .6-1 1.3s-2.2 4.1-5 7.5c-2.7 3.4-5 6.5-5 6.8 0 2.3-28.3 27.4-30.9 27.4-.6 0-1.1.4-1.1 1 0 .5-1.1 1.2-2.5 1.6-1.4.3-2.5 1-2.5 1.5 0 .7-2.9 2.2-16.5 8.4-6.8 3.1-16.4 6.3-22.5 7.4-3.6.7-8.4 1.7-10.7 2.2-7.9 1.7-25 2.3-32.6 1-12-2-28.1-5.2-30.2-6.1-1.1-.4-4-1.5-6.5-2.5-9.7-3.7-27.1-13-29-15.5-.3-.4-2.3-1.8-4.5-3.2-3.6-2.2-16.1-14.4-22.3-21.6-5-5.8-11.1-14.7-11.7-17.2-.4-1.3-1-2.7-1.3-3-3.1-2.3-12.2-21.8-12.2-26.2 0-.9-.5-2-1-2.3s-1-1.7-1-3.1-.5-3.4-1.1-4.5c-2.5-4.7-4.3-38.5-2.6-49.7l.8-5.2H0z"/></svg>