<svg xmlns="http://www.w3.org/2000/svg" width="682.667" height="512" version="1.0" viewBox="0 0 512 384"><path d="M0 192v192h512V0h-57.3l.8 4.7c1.1 6.1 1.1 26.8.1 35.3-.8 7.6-5 24.1-7.1 28.4-.8 1.6-1.5 3.4-1.5 3.9 0 1.9-6.3 14.7-7.2 14.7-.5 0-.7.3-.5.7.2.5-.4 2.1-1.4 3.8-1 1.6-2.3 3.9-2.8 5-2.4 5.5-17.6 22.6-27.7 31.4-9.6 8.3-27.3 18.6-42.9 24.9-5.4 2.2-15.5 4.8-22 5.6-2.2.3-7.1 1.1-11 1.7-23.1 3.6-62.4-5.4-83.5-19.2-11.9-7.7-15.6-10.7-24.9-19.9-5.8-5.8-11.9-12.6-13.5-15-1.7-2.5-4-5.6-5.2-7s-2.5-3.6-2.9-5-1.1-2.7-1.5-3c-3-2.3-10-19.5-14.8-36.5-3.2-11.2-4.7-37.8-3-49.8L183 0H0z"/></svg>