<svg xmlns="http://www.w3.org/2000/svg" width="682.667" height="512" version="1.0" viewBox="0 0 512 384"><path d="M0 93.7c0 87.8.1 94.3 1.9 101.8 1 4.4 2.4 12 3 17C6 220.9 8.8 240.7 11 256c.5 3.6 1.2 11.2 1.5 17s1 14.5 1.5 19.5c.6 4.9 1.4 13.7 1.9 19.5s1.2 11.9 1.6 13.7c1.2 5.2 0 8-4.1 9.3-3.3 1.1-3.6 1.5-3 4.4 1.1 6.6 2.6 14.3 3.5 18.1.5 2.2 1.4 6.2 2 9 .6 2.7 1.6 6.8 2.2 9s1.3 5 1.6 6.2l.5 2.3H512V0h-18.5v19.7c0 10.9-.3 21.4-.7 23.3-1.7 9.5-3.9 18.3-4.9 19.5-.4.5-1 2.7-1.4 4.7-.4 2.1-1.1 3.8-1.5 3.8s-1 1.7-1.4 3.8c-.3 2.2-1.6 5.4-2.8 7.3-1.3 1.9-3.9 6.5-5.8 10.3-1.9 3.7-5.2 8.7-7.3 10.9-2.1 2.3-4.4 5.3-5.2 6.7-2.1 4-18.6 19.4-26.5 25-1.9 1.3-3.7 2.7-4 3-.3.4-2.5 1.7-5 3.1-2.5 1.3-4.7 2.7-5 3-.9 1.2-15.2 6.9-17.2 6.9-1 0-1.7.4-1.3 1 .7 1.2-9.1 3.7-29.3 7.5-9.3 1.7-31.7 2.1-32.7.5-.3-.6-2.7-1-5.3-1s-7.2-.7-10.2-1.6c-3-.8-7.1-1.9-9-2.3-4.5-1.1-12.6-4.3-22-8.8-9.4-4.4-8.5-3.9-16.9-9.7-10.7-7.4-35.1-31.9-35.1-35.4 0-.6-.6-1.5-1.2-1.9-5.1-3.3-19-37-20.5-49.8-.3-2.8-1-5.3-1.5-5.6-1.1-.7-1.5-29.6-.5-37.7l.8-6.2H0z"/></svg>