<svg xmlns="http://www.w3.org/2000/svg" width="682.667" height="512" version="1.0" viewBox="0 0 512 384"><path d="M0 55.7v55.8l5.4 2.3c4.3 1.9 6.6 3.9 10.9 9.3 6.9 8.6 9.7 15.9 13.7 36.4 2.1 10.3 3.3 16.1 8 37.7 1.1 4.7 2.4 13.5 3 19.4s1.3 11 1.5 11.3c.7 1.2 4.4 30 5 39.1.8 12.2 4.2 46.3 5.6 55.7 1.3 9.3.8 11-4.2 12.5-3.5 1-3.9 1.5-3.5 3.4.4 1.3 1.8 7.6 3.1 14.1 3.2 14.5 5.3 23.8 6.7 28l1 3.3H512l-.1-158.8c0-151.4-.2-163.9-2.6-151.7-.2 1-.9 2.8-1.7 4-.7 1.1-1.6 3.2-2 4.7-.3 1.6-1.1 2.8-1.6 2.8-.6 0-1 .8-1 1.9 0 1-.6 2.4-1.4 3s-2 2.6-2.7 4.4c-1.3 3.2-2.9 5.5-6 8.6-.9.9-2.9 3.4-4.5 5.6-3.8 5.4-11.7 14.5-12.5 14.5-.4 0-2.4 1.7-4.6 3.7-5.6 5.4-9.3 8.3-10.4 8.3-.6 0-2.1 1-3.4 2.3-1.4 1.2-4.2 3.1-6.2 4.2-2.1 1-4.5 2.4-5.3 3-2.5 1.9-14 6.5-16.1 6.5-1.1 0-1.8.4-1.4 1 .7 1.2-9.1 3.7-29.3 7.5-8.8 1.6-32.7 2.1-33.6.6-.3-.4-3.8-1.1-7.8-1.4s-9.1-1.2-11.3-2-6.2-2.2-9-3c-9.2-2.9-13.5-4.7-17.3-7.1-2-1.3-4.7-2.6-5.9-3-3.1-1-20.2-12.8-23.9-16.4-6.8-6.7-18.1-19.3-20.4-22.7-1.4-2-3.5-4.8-4.6-6.3-7-8.9-17.8-36-20.4-51.2-1.3-7.5-1.9-30.7-1-41l.4-5.5L122.2.2 0 0z"/></svg>