<svg xmlns="http://www.w3.org/2000/svg" width="682.667" height="512" version="1.0" viewBox="0 0 512 384"><path d="M282 1.4c0 3.2 6.5 16.6 10.6 21.9 2.5 3.3 4.4 6 4.2 6.1s-2.3.8-4.8 1.5c-12.1 3.5-27.7 12.5-38.8 22.7-5.7 5.1-16.2 18.5-16.2 20.5 0 .5-1.3 2.8-2.8 5.3-2.7 4.3-4.2 8.7-7.6 24.1-2.1 8.9-4.2 14-8 18.9-2.9 3.7-2.9 3.8-.5 2.6 1.3-.7 3.7-2.4 5.3-3.9l2.8-2.6-.4 6.7c-.2 3.7 0 6.2.4 5.5.4-.6.8 2.6.8 7.3.1 8.2.1 8.4 1.6 5.7 1.9-3.5 2.8-2.9 5 3.6 1.4 4 1.9 4.7 2.2 2.9.4-2.3.4-2.3 2.7.9 1.4 1.7 2.6 3.7 2.9 4.3.3.7.8.6 1.4-.3.8-1.1 1.2-.9 2.2.9.9 1.7 1.4 1.9 2 1 .6-1 1.4-.4 2.9 2.1 1.2 1.9 2.1 3 2.1 2.5s1.1.1 2.5 1.4c3 2.8 3 2.8.5-4.5-1.1-3.2-1.8-6-1.7-6.2.2-.2 1.6 2.6 3.2 6.2 1.5 3.6 3.3 6.5 4.1 6.5 3 0 .2 7.9-4.8 13.6-3.8 4.3-3.3 5.8 3.3 9.2 5.1 2.6 6.9 4.6 6.9 7.9 0 3.2 3.4 6.3 6.8 6.3 2.6 0 2.8.3 2.4 3-.3 2.4.1 3.2 1.9 4 1.4.6 4.2 3.8 6.3 7.1l3.9 6-.5 8.9c-.5 9-.4 9.5 3 9.1 1.4-.2 1.6 1.8.2 5.3-.7 2.1-.6 2.6.5 2.6.8 0 1.7 1 2 2.2 1.5 6.9 5.5 27.4 5.5 28.4 0 .9-10.9 10.4-14.6 12.7-.9.5-2.3-1.1-4.4-5.1-1.7-3.2-5.1-7.8-7.6-10.2-2.4-2.5-5.6-6.5-7.1-9s-4.2-6.7-6.1-9.3l-3.5-4.8-.2-13.7c-.2-15.3-1.5-20.8-6.5-28.4-4.4-6.6-9.4-8.8-19.6-8.7-4.3 0-10.1.4-12.9.8-5.7 1-6.5.4-6.5-5.1 0-4.1-1.2-5.5-2.9-3.4-.8.9-1 3.2-.5 6.3l.6 5-6.3 2.2c-10.7 3.8-13.7 5.3-16 7.7-1.2 1.3-2.8 2.4-3.5 2.4-1.8 0-4 5.4-6.4 15.7l-2.1 9.1 1.9 6.9c1.1 3.7 2.5 9.6 3.2 13 1.5 7.6 3.6 11 12.3 20.7 5.7 6.3 7.7 7.9 12.7 9.7 3.3 1.2 6 2.3 6 2.4s-1.8 4.1-4 8.8c-5.7 12.1-7.9 23-8.6 41.7-.4 11.2-1.2 18.5-3 26.3-1.3 5.9-2.4 11-2.4 11.2 0 .3 16.5.5 36.8.5h36.7l5.2-10.8c2.8-5.9 6.2-12.1 7.5-13.9l2.4-3.2-.4 14-.5 13.9h96c52.8 0 96.3-.4 96.9-.9.5-.4 3.2-1.7 5.9-2.7 2.8-1 7.7-3.6 11-5.8l6-4.1-4.2-.3-4.2-.3 4-5.6c2.1-3.1 3.9-5.9 3.9-6.3s-2.7-.3-6 .2c-5.4.7-7.1 1.6-16.6 8.7-6.1 4.6-12.7 8.7-15.6 9.7-2.7.9-5.1 1.4-5.2 1.3-1.8-2-8.8-18-10.1-23-.9-3.5-2.1-6.9-2.5-7.4-.5-.6-.8-2.4-.8-4.1.1-2.7-1.1-7.3-7.3-29.9-1.1-3.9-2.6-8.2-3.4-9.8-.8-1.5-1.2-3.3-.9-4 .2-.7-.2-3-1.1-5-.8-2-1.5-4.7-1.4-5.9.1-2.1.2-2 1.4.7.9 1.9 1.4 2.3 1.5 1.3 0-1.5.4-1.6 2.3-.7 1.6.7 4.2 4.9 8.1 13 3.1 6.5 6.2 11.9 6.7 11.9.6 0 .8-1.7.3-4.6-.4-3-.2-5.4.6-6.9 1-1.9.9-2.7-.8-5.1-1.5-2.1-2.7-6.9-4.1-16.8-1.2-7.7-1.9-14.1-1.7-14.4.3-.2 1.8 2.2 3.5 5.4 3.3 6.6 7.7 13.1 6.6 9.9-3.6-10.4-8.7-34.3-9.1-43l-.5-10 3.5 10c1.8 5.5 4.5 12.6 5.9 15.8 3.2 7.1 12.9 23.6 16 27.3 2.1 2.4 1.9 1.3-1.9-10.4-3.8-11.5-6.9-25-6-25.9.2-.2 2 2.4 4 5.7 4.6 7.4 14.8 21.1 15.3 20.6.2-.2-.7-5.9-2.2-12.7-2.5-12.1-3.6-20.8-7.5-63.9-3.4-37.2-6.9-57.8-14.4-83.1-4.8-16.4-7.8-24.2-15-39.2-3.5-7.3-7.2-16-8.1-19.2-4.5-15.8-18.5-33.6-31.3-40.1-4.9-2.4-6.9-2.8-14.2-2.8-4.7 0-10.2.4-12.4.8-2.4.6-4 .5-4.5-.1-.3-.6-2.8-3.6-5.5-6.7L353.7 0h-35.8C288.3 0 282 .2 282 1.4m-20 160.9c0 1.8-.2 1.9-1 .7-1.3-2-1.3-4.3 0-3.5.6.3 1 1.6 1 2.8m60 62.3 2.2 3.5-2.2 2.4c-2.7 2.9-4 2.5-3.5-1.3.2-1.5.4-3.9.4-5.5.1-1.5.3-2.7.5-2.7s1.4 1.6 2.6 3.6"/></svg>