<svg xmlns="http://www.w3.org/2000/svg" width="682.667" height="512" version="1.0" viewBox="0 0 512 384"><path d="M0 192v192h22.8l.6-3.3c.3-1.7 1-8.2 1.6-14.2.6-6.1 1.3-12.4 1.5-14 .5-3.6 1.4-17 1.9-28s-.2-14.4-3-15.7c-1.3-.6-2.4-1.8-2.4-2.6 0-.9-.7-2.3-1.6-3.3-1.5-1.7-1.2-2.5 3.4-11.1 4.5-8.5 5.1-10.2 6.2-20.3 2.1-17.1 1.7-26.4-1.3-38.3-3.9-15-3.7-18.8 2-35.2 1.5-4.3 1.7-6 1.1-10.5-.2-1.3.6-2.4 2.5-3.3 2.5-1.2 2.7-1.7 2.7-8 0-6.4-.2-6.8-3.3-9.3-1.7-1.4-4-2.8-4.9-3.2-1-.3-1.6-1.2-1.3-1.9.3-.8-1.5-2.2-4.4-3.6-8.2-4-10.2-6.2-10.8-11.5-.3-2.6 0-7.5.7-11 1.2-5.3 2.1-7 6.6-11.7 8.1-8.5 15-12.2 23.8-12.8 6.4-.4 8.1-.1 13.3 2.2 6.8 3.1 14.1 10.8 17.9 19.1 2.5 5.3 6.5 20.5 8.4 32 .7 3.8 2.5 12.4 4.1 19 2.8 11.5 4.6 21.8 6.8 39 .6 4.4 1.8 12.3 2.6 17.5.9 5.2 2.4 19.9 3.5 32.6s2.8 30.9 4 40.4c1.1 9.6 1.8 18.1 1.5 19-.3 1-2.4 2.4-4.6 3.3-3.1 1.2-3.9 2-3.5 3.4.3 1 1.7 7.2 3.1 13.8 3 14.3 5.3 23.8 6.7 28.2l1 3.3H512V122.7l-3.4 3.7c-1.9 2-3.8 3.6-4.3 3.6s-1.6.9-2.6 2c-.9 1.1-2.2 2-2.9 2s-2.4 1.2-3.7 2.6c-1.4 1.4-4.5 3.6-7 5-2.5 1.3-5.3 2.8-6.1 3.3-2.6 1.6-14.1 6.1-15.5 6.1-.7 0-1.5.5-1.7 1.1-.3.9-11.2 4.1-18.8 5.5-1.4.3-6.1 1.2-10.5 2-8.5 1.7-24.6 1.5-40-.4-7-.9-28.3-7.2-31-9.2-.5-.4-2.1-1.1-3.5-1.5s-3.6-1.5-5-2.5-3.6-2.1-5-2.5c-2.9-.9-14.1-8.4-15.3-10.3-.4-.6-1.2-1.2-1.6-1.2-1.3 0-12.3-10.1-20.4-18.7-3.2-3.5-9.7-12.5-9.7-13.5 0-.4-1-1.8-2.2-3.2-3.9-4.2-4.8-5.5-4.8-6.9 0-.8-.7-2-1.4-2.7-.8-.6-2.3-3.5-3.2-6.3-.9-2.9-2.3-6.1-3-7.2s-1.5-3.5-1.8-5.4c-.2-1.9-.9-3.7-1.5-4.1-.6-.3-1.4-2.8-1.7-5.6-.4-2.7-1-5.4-1.4-5.9-1.6-2.1-3.2-24-2.8-38l.4-14.5H0z"/></svg>