<svg xmlns="http://www.w3.org/2000/svg" width="682.667" height="512" version="1.0" viewBox="0 0 512 384"><path d="M0 192v192h74.8l.5-2.3c.3-1.2 1-6.7 1.7-12.2.6-5.5 1.5-14.3 2.1-19.5 1.3-11.5 2-32.2 1.2-36.8q-.6-3.3-3-4.5c-1.3-.6-2.2-1.7-2.1-2.6.2-.9-.5-2.3-1.6-3.2-2-1.6-1.9-1.8 3.1-10.5 4.8-8.3 5.3-9.6 6.3-18.9 2.6-24.1 2.5-26-1-39.5-4.1-16-3.5-24.2 2.6-37.7 1.4-3.1 1.9-5.5 1.4-5.8-2-1.2-1-5.2 1.5-6.3 2.3-1.1 2.5-1.7 2.5-7.9 0-6.5-.1-6.9-3.4-9.6-1.9-1.5-4-2.7-4.5-2.7-.6 0-1.1-.8-1.1-1.8 0-1.2-1.6-2.6-4.7-4.1-11.2-5.2-13.2-10.2-9.8-23.6 1.4-5.2 2.4-6.8 7.7-11.8 9-8.6 13.6-10.9 22.4-11.5 9.8-.6 15.2 1.4 21.9 8.3 8.8 9 13.6 20.9 17.5 43.5 1.1 6.3 3.3 16.9 4.9 23.5 3.2 13 3.4 14.2 5.6 31.9.8 6.6 1.7 12.7 2 13.5 1.2 4.3 3.7 25.2 5.5 47.6 1.1 13.7 2.4 27.5 2.9 30.5s1.2 9.6 1.6 14.6l.7 9-4.2 1.3-4.2 1.2.7 4.7c.7 4.5 6 28.4 8.5 38.4l1.2 4.8H512V265.2c0-65.3-.4-118.2-.8-117.6-.4.5-2.3 1.6-4.2 2.3s-4.8 1.9-6.5 2.6c-5.8 2.5-17.1 5.5-20.6 5.5-1.9 0-5.9.7-8.8 1.6-9.3 2.7-41.4.7-53.6-3.5-10.5-3.5-14.9-5.2-18.2-6.6-1.7-.8-3.4-1.5-3.8-1.5s-1.8-.9-3.2-2-3.3-2-4.2-2c-1.5-.1-11.4-6.1-15.7-9.7-1.2-1-3.8-3.2-5.9-4.8-6.2-5.1-18.6-17.8-21.3-21.8-1.3-2-2.9-3.7-3.3-3.7-.5 0-.9-.6-.9-1.4 0-.7-1.4-3.1-3.1-5.2C334 92.5 324 71.7 324 68.5c0-1.3-.7-2.8-1.5-3.2-.8-.5-1.9-3.5-2.4-6.8-.6-3.3-1.8-9.8-2.6-14.5-1.3-6.6-1.5-12.5-1.1-26.3l.5-17.7H0z"/></svg>