<svg xmlns="http://www.w3.org/2000/svg" width="682.667" height="512" version="1.0" viewBox="0 0 512 384"><path d="M0 192v192h108.9l.6-3.8c.4-2 .8-4.8 1.1-6.2.9-5.3 4-47.8 3.9-53.5-.2-9.9-.3-10.5-3.1-11.7-1.6-.8-2.4-1.8-2.1-2.9s-.4-2.1-1.9-2.7l-2.3-1.1 5.4-9.8c5.2-9.4 5.5-10.3 6.7-21.3 1.9-17.3 1.6-26.9-1.5-38.5-3-11.2-3.4-18.9-1.2-24.2.8-1.9 1.5-4.4 1.5-5.4 0-1.1 1.1-4.2 2.4-6.9s2-5.2 1.5-5.6c-.5-.3-.9-1.6-.9-3 0-1.7.8-2.7 2.5-3.4 2.3-.9 2.5-1.4 2.5-7.7 0-6.5-.1-6.9-3.4-9.6-1.9-1.5-4-2.7-4.5-2.7-.6 0-1.1-.8-1.1-1.8s-1.9-2.6-5-4.1c-9.7-4.8-11.7-8.2-10.6-17.9 1.3-10.7 6.6-18.1 18.1-25.1 4.9-3 6.8-3.5 13.6-3.9 7-.4 8.5-.2 13.1 2.1 14 6.8 20.7 20.5 26.9 54.7 1.1 6.3 3.1 15.8 4.4 21 2.1 8.7 3.5 16.6 6.5 38.5.6 4.4 1.7 12.3 2.5 17.5s2.1 18.7 3 30 2.5 27.5 3.6 36c1 8.5 1.9 17.1 1.9 19.1 0 3.3-.3 3.7-4 4.8-2.2.6-4 1.6-4 2.1 0 1.9 5.2 27.1 7.5 36.3 1.4 5.4 2.5 10 2.5 10.2 0 .3 71.3.5 158.5.5H512V157.2l-6.2.5c-3.5.3-8.4 1.1-11 1.9-5.4 1.8-26.3 1.5-39.3-.5-9.6-1.4-23.3-5.5-32.2-9.6-1.7-.8-3.4-1.5-3.8-1.5s-1.8-.9-3.2-2-3.5-2-4.7-2-3.2-.9-4.4-2-2.5-2-3-2-1.7-.9-2.7-2-2.3-2-3-2c-.6 0-3.1-1.8-5.5-4s-4.6-4-4.9-4c-1.4 0-18.2-18.2-21.5-23.2-1.9-2.9-4.5-6.4-5.7-7.8s-2.9-4.1-3.8-6-1.8-3.7-2.1-4-1.3-2.3-2.2-4.5-3-7.4-4.8-11.4c-4.2-10.3-7.1-22.6-7.9-35.1-.7-10.2-.5-27.7.4-33.3L341 0H0z"/></svg>