<svg xmlns="http://www.w3.org/2000/svg" width="682.667" height="512" version="1.0" viewBox="0 0 512 384"><path d="M0 192v192h125.8l.6-4.2c1.5-10.1 4.5-45.1 4.7-54.3.3-15.2.3-15.2-3.2-17-1.6-.9-2.9-2.1-2.6-2.8.2-.6-.5-1.9-1.6-2.7-1.8-1.5-1.7-1.8 3.2-10.1 4.7-8 5.1-9.1 6.5-20.4 2.3-17.2 2.1-27.5-.8-38.6-3.4-13.2-3.7-17.4-1.5-24.4 1-3.3 1.9-6.7 1.9-7.6s.9-3.6 1.9-6c1.4-3.1 1.7-4.9 1-6.7-1-2.6.3-5.2 2.6-5.2 1.9 0 2.5-2.4 2.5-9.1 0-5.4-.2-6.1-2.5-7.1-1.4-.6-2.5-1.5-2.5-2s-1.2-1.3-2.6-1.8c-1.4-.6-2.4-1.6-2.2-2.2.3-.7-1.6-2.2-4.1-3.4-8.6-4.1-10.4-6.3-10.9-13.1-.7-9.5 1.7-16 8.2-22.5 7.8-7.7 14.3-11 23.1-11.6 6.3-.4 8-.1 13.2 2.2 5.8 2.6 11.1 7.7 15.5 14.8 3.9 6.3 7.9 20.2 11.8 41.8 1.1 5.8 3.1 15 4.5 20.5 1.3 5.5 2.9 14 3.5 19 .6 4.9 1.5 11.9 2.1 15.5 3.4 20.8 4.3 29 7 60.5.5 7.1 1.9 20 2.9 28.6s1.6 16.6 1.3 17.8c-.3 1.4-1.9 2.5-4.4 3.2-3.2 1-3.8 1.6-3.4 3.3.3 1.2 2.1 9.5 4 18.6s4.1 18.7 4.8 21.5l1.3 5 150.2.3 150.2.2V270.9c0-107.2-.1-113-1.7-112.5-1 .2-3.6 1-5.8 1.6-4.7 1.3-24.9.9-37.5-.9-9.5-1.3-23.7-5.5-32.7-9.6-1.7-.8-3.5-1.5-4-1.5-.6 0-1.8-.9-2.8-2s-3.1-2-4.6-2-3-.4-3.4-.9c-.7-1.2-8.4-6.5-10.7-7.4-1-.3-1.8-1.1-1.8-1.7 0-.5-.6-1-1.4-1-.7 0-2.1-1.1-3-2.5s-2.2-2.5-2.9-2.5c-1.4 0-17.9-17.1-19.7-20.6-.7-1.3-1.7-2.4-2.1-2.4-.5 0-1.8-1.8-2.9-3.9-1-2.2-2.3-4.1-2.7-4.3-.8-.3-2.1-2.7-10-18.1-1.7-3.4-3.2-7-3.2-8-.1-1-.6-2.8-1.3-4-1.5-2.7-1.7-3.6-2.9-11.1-.5-3.3-1.5-6.6-2.2-7.4-.9-1.1-1.2-7.6-1.1-24.9l.1-23.3H0z"/></svg>