<svg xmlns="http://www.w3.org/2000/svg" width="682.667" height="512" version="1.0" viewBox="0 0 512 384"><path d="M0 192v192h157.8l.6-3.3c1.1-6.1 4.6-47.2 4.7-56.2.3-14 .3-14.3-3.1-16-1.8-.9-2.7-2.1-2.4-2.9s-.3-1.9-1.5-2.5l-2-1.1 2-3.8c1.2-2 3.4-6.1 5.1-9 2.4-4.2 3.3-7.5 4.4-16.5 2.4-19 1.8-31-2.1-43.7-2.3-7.4-2.4-13.1-.4-19.5 1-3.3 1.9-6.7 1.9-7.6s.9-3.6 1.9-6c1.4-3.1 1.7-4.9 1-6.7-1-2.6.3-5.2 2.6-5.2 1.9 0 2.5-2.4 2.5-9.1 0-5.4-.2-6-2.5-6.9-1.4-.5-2.5-1.4-2.5-2s-1.2-1.5-2.6-2c-1.4-.6-2.4-1.6-2.2-2.2.3-.7-1.6-2.2-4.1-3.4s-5.9-3.3-7.5-4.7c-2.6-2.1-3-3.2-3.4-9-.6-9.5 1.6-15.3 8.5-22.1 17.6-17.7 38.5-15.4 51.7 5.9 3 4.8 7.1 18.1 9.5 30.5 2 10.7 4.2 20.7 7.6 35.5.8 3.3 1.9 10.3 2.6 15.5.6 5.2 2.2 16.2 3.5 24.5 1.3 8.2 2.8 20.8 3.4 28 .6 7.1 1.8 19.7 2.6 28 .8 8.2 2 19.5 2.5 25s1.2 10.7 1.5 11.7c1.1 3.7-.7 6.7-4.7 7.9-3.2 1-3.8 1.6-3.4 3.3 2.2 9.8 4.8 22.1 5.6 26.6.5 3 1.4 6.6 1.8 8 .5 1.4 1.4 4.4 2 6.7l1.2 4.3H512V161.2l-7.2-.5c-22.3-1.4-45.8-7.7-55.7-15-1.3-.9-3.4-1.7-4.7-1.7-1.2 0-2.5-.4-2.9-.9-.7-1.2-9.3-7.1-10.3-7.1-.5 0-2.7-1.8-5-4-2.2-2.2-4.5-4-4.9-4-.9 0-18.3-18-18.3-18.9 0-.3-1.6-2.6-3.5-4.9-1.9-2.4-3.7-5.2-4-6.3-.4-1-1-1.9-1.6-1.9-1.5 0-12.4-22.4-14.4-29.6-1-3.5-1-3.5-1.8-5.4-.3-.8-1.6-6.4-2.8-12.4-1.9-9.7-2.1-13.2-1.7-29.8l.5-18.8H0z"/></svg>