<svg xmlns="http://www.w3.org/2000/svg" width="682.667" height="512" version="1.0" viewBox="0 0 512 384"><path d="M0 192v192h172.8l1.1-8.2c2.8-21.1 5.2-58.9 3.9-63.4-.5-1.8-1.8-3.6-3.3-4.2-1.4-.7-2.5-1.8-2.3-2.6s-.5-2.1-1.5-2.8c-1.7-1.3-1.5-1.9 3.4-10.2 4.9-8.4 5.2-9.4 6.5-20 2.1-17.7 1.8-27.6-1.3-39.1-3.6-14-3.9-18-1.4-24.3 1.2-2.9 2.1-6.1 2.1-7.2s.9-3.7 2-5.8c1.5-2.9 1.8-4.5 1.1-6.9-.9-3.2.1-5.3 2.5-5.3 1.8 0 2.4-2.5 2.4-9.1 0-5.4-.2-6.1-2.5-7.1-1.4-.6-2.5-1.5-2.5-2s-1.1-1.3-2.5-1.8-2.2-1.5-2-2.2c.3-.8-1.1-2-3.7-3.1-2.4-1-5.8-3-7.7-4.6-3.1-2.5-3.5-3.5-3.9-8.8-.4-6.3 2-17.3 3.8-17.3.6 0 1-.5 1-1.1 0-2.1 9.5-9.9 15.6-13 18.2-9.1 36.6 1.6 44.5 25.7 1.5 4.7 3.3 10.9 3.8 13.7.6 2.9 2.2 10.8 3.6 17.7 1.3 6.9 3.6 17.8 4.9 24.2 1.4 6.4 3 16.2 3.6 21.8.5 5.6 1.2 10.5 1.5 10.9.8 1.5 4.4 31.7 6 51.1.9 10.7 2.2 24.6 3 30.8s1.5 14.2 1.5 17.7v6.4l-4 1.2c-3.3 1-3.9 1.6-3.5 3.3.9 3.6 5.5 25.9 6.6 31.1.5 2.7 1.6 7.1 2.5 9.7l1.6 4.8H512V272c0-100.2-.2-112-1.5-112-13.4 0-37.2-6.3-48.8-12.8-3.1-1.8-6.4-3.2-7.3-3.2s-2.8-.9-4.2-2c-1.5-1.2-6.5-5-11.2-8.6-10.3-7.9-9.8-7.3-19-17-4.2-4.4-9.4-10.6-11.5-13.9-2.2-3.3-4.3-6.1-4.7-6.3-1.1-.5-12.8-25.2-12.8-27 0-1-.6-2.6-1.4-3.7-.7-1.1-2.4-6.7-3.6-12.5-2-9.1-2.3-13.3-2.3-31.8V0H0z"/></svg>