<svg xmlns="http://www.w3.org/2000/svg" width="682.667" height="512" version="1.0" viewBox="0 0 512 384"><path d="M0 192v192h194.9l.5-4.2c2.5-19.8 4.5-42.4 4.7-54.8.3-14.7.3-14.8-3.2-16.5-1.9-1-2.9-2.2-2.5-3 .3-.8-.3-1.9-1.2-2.5-1.4-.8-1.5-1.1-.3-1.9.7-.5 1.1-1.4.7-2s1.1-4.2 3.4-8.1c3.8-6.5 4.2-8 5.6-19.8 1.8-15 1.3-31.5-1.2-38.2-3.7-9.9-2.3-27.6 3-37.9 1.2-2.2 1.3-3.6.6-5.6-1.2-3.1-.6-4.3 2.6-5.5 2.2-.9 2.4-1.5 2.4-7.7 0-6.5-.2-6.9-3.3-9.4-1.7-1.4-4-2.8-5.1-3.2s-1.6-1.3-1.2-2.2c.4-1-.6-1.7-3.2-2.5-2.1-.5-5.7-2.8-8-5-4-3.9-4.2-4.4-4.2-9.9 0-8.7 2.3-15.2 7.3-20.3 5.8-5.9 12.9-10.4 19.5-12.3 6.4-1.9 10.2-1.5 18.4 2.2 6 2.7 12.3 9.5 16.5 17.8 2.7 5.2 7.9 24 9.2 33.2.6 3.9 2.5 13.1 4.2 20.5 3.2 14.3 4.5 21.7 5.9 34.3.5 4.4 1.8 14.1 3 21.5 1.1 7.4 2.5 20.5 3 29.1.9 14.5 5.5 56.5 6.5 59.9.6 2.1-.6 3.6-3.5 4.3-5.6 1.5-5.7-1.2 1 30.7.6 2.5 1.8 7.6 2.9 11.5l1.9 7 115.6.3 115.6.2-.2-112.7-.3-112.7-4.2-.8c-4.9-.8-20.9-6.1-27-8.9-2.4-1-4.7-1.9-5.2-1.9s-1.1-.5-1.3-1c-.2-.6-1.9-1.6-3.8-2.3s-4.8-2.1-6.3-3.2c-10.5-7.5-20.4-15.3-21.6-16.9-.8-1-2.5-2.8-3.9-4-2.6-2.3-15.2-17.2-15.2-18.1 0-.3-1.5-2.6-3.4-5.2-4.4-6.1-9.8-17.1-12.5-25.1-1.2-3.5-2.6-7.1-3.1-8-1.9-3.7-4.9-21.3-5.4-32.2-.3-6.3-.2-15.9.2-21.3l.7-9.7H0z"/></svg>