<svg xmlns="http://www.w3.org/2000/svg" width="682.667" height="512" version="1.0" viewBox="0 0 512 384"><path d="M0 192v192h100.4c94.8 0 100.5-.1 101-1.8.8-2.9 3.6-30.8 4.9-48.8 1.3-18.8.8-22.9-3-24.7-1.3-.5-2.3-1.7-2.3-2.5 0-.9-.7-2.4-1.7-3.4-1.4-1.6-1.4-1.8 0-1.8 1 0 1.3-.6 1-1.9-.3-1.2 1-4.4 3.2-8.1 3.6-5.9 3.8-6.9 5.7-22.8 2.1-18.6 1.9-23.7-1.7-36.8-2.8-10.2-3.1-16.9-1-22.1.8-1.9 1.5-4.6 1.5-6 0-1.3 1.1-4.6 2.5-7.3 1.5-2.9 2.1-5.1 1.5-5.5-1.8-1.1-1-4.4 1.5-6.1 2.3-1.5 2.5-2.3 2.5-8.3v-6.7l-4.5-3.4c-2.5-1.9-4.4-4.1-4.3-4.9.2-1.1-.5-1.6-2.3-1.7-2.9-.1-7-2.7-10.8-6.7-2.1-2.4-2.3-3.2-2-11.5.4-8.1.7-9.5 3.4-13.4 7.2-10.2 22.7-18.8 31.4-17.4 10 1.6 19.8 9.1 25.5 19.6 3.5 6.4 7.1 19.3 10.1 35.8 1.3 7.5 3.6 18.4 4.9 24.2 1.4 5.8 3 15 3.6 20.5s2 15.8 3.1 23c1 7.1 2.3 19.5 2.9 27.5 1.8 25.2 3 38 5.2 54.6 1.1 8.9 1.8 16.9 1.5 17.7-.3.9-1.4 1.4-2.4 1.3-1-.2-2.4.3-3.2 1.1-1.2 1.2-1.1 2.7.3 10.1 1.8 9.5 4.7 22.2 7.3 32l1.6 6.2H512V271c0-99.3-.2-113-1.5-113-1.7 0-18.5-5.5-23.5-7.7-15-6.6-15.4-6.8-21.1-10.8-2.4-1.7-5.2-3.4-6.1-3.8-1-.3-1.8-1.1-1.8-1.7 0-.5-.5-1-1.1-1-1.4 0-2.8-1.2-14.7-13.1-5.2-5.2-10.1-10.6-11-12.1-.9-1.6-2-2.8-2.4-2.8s-1.5-1.5-2.4-3.3c-.9-1.7-2.7-4.4-3.9-5.8-5.1-6.2-12.5-23.7-17.2-40.9-2.5-8.9-2.6-11-2.7-32.2L402.5 0H0z"/></svg>