<svg xmlns="http://www.w3.org/2000/svg" width="682.667" height="512" version="1.0" viewBox="0 0 512 384"><path d="M0 192v192h219l.5-2.3c1-4.6 3.5-28.8 4.5-43.7.6-8.5 1.3-16.9 1.6-18.7 1-5.2-.4-9-3.7-10.3-1.6-.7-2.9-1.9-2.9-2.8 0-.8-.7-2.4-1.7-3.4-1.4-1.6-1.4-1.8 0-1.8 1 0 1.3-.6 1-1.8-.2-1 1-4.3 2.7-7.3 3.5-5.8 4.1-9 6.5-32.8 1.5-15.1 1.4-17.2-2.5-30-2.3-7.4-2.5-14-.5-19.6.8-2.2 1.5-4.7 1.5-5.5s1.1-4.1 2.4-7.2c1.3-3.2 2.1-6 1.8-6.3s-.7-1.6-.9-2.9c-.2-1.6.4-2.6 2.2-3.4 2.3-1.1 2.5-1.7 2.5-7.9 0-6.5-.1-6.9-3.4-9.6-1.9-1.5-4-2.7-4.6-2.7s-1-.8-.8-1.8c.4-2.6-1.1-4.5-2.7-3.2-.9.7-2.7-.1-6.9-3.2l-5.6-4.1v-8.4c0-4.9.6-9.7 1.4-11.7 4.7-11.2 24-23.1 34.3-21.1 18 3.4 28.4 19.3 34.3 53.1 1.2 6.5 3.2 16.5 4.5 22.2 3.2 13.3 4.4 21.2 5.5 34.7.5 6 1.4 14.8 2 19.5s1 17.3 1 28 .5 31.2 1.1 45.5c1.1 26.1 2.3 35.2 8.3 59.5.8 3 1.7 6.7 2 8.3l.6 2.7h207l-.2-113.7-.3-113.6-8.5-3.2c-4.7-1.7-11.2-4.4-14.5-6-3.3-1.5-7.4-3.4-9.2-4-1.7-.7-4.9-2.6-7.1-4.4-2.2-1.7-4.3-3.1-4.7-3.1-3 0-31-28.3-34.2-34.5-.9-1.7-2.2-3.8-3-4.7-3.4-3.9-11.6-20.5-13.4-27.2-.6-2.2-1.5-4.6-1.9-5.1-.4-.6-1.9-5.7-3.2-11.5-2-9.2-2.3-13.1-2.3-31.8V0H0z"/></svg>