<svg xmlns="http://www.w3.org/2000/svg" width="682.667" height="512" version="1.0" viewBox="0 0 512 384"><path d="M0 192v192h221l.4-2.3c1.2-5.5 2.7-18.6 4.1-36.2.8-10.5 1.8-22.5 2.1-26.7l.7-7.7-3.7-1.8c-2.3-1-3.6-2.3-3.4-3.3.2-.8-.6-2.3-1.7-3.2-1.7-1.5-1.7-1.7-.3-1.8 1.1 0 1.5-.6 1.1-2-.3-1.1-.1-2.6.5-3.3 5.1-6.2 6.2-10.9 8.6-35.7 1.5-15.1 1.5-15.7-.5-23.5-3.9-15.2-4.5-20.3-2.7-25.4.9-2.5 1.9-6.1 2.3-8 .4-1.8 1.5-5.2 2.5-7.4 1.4-3 1.6-4.7.8-6.6-.8-2.2-.6-2.9 1.5-4.6 1.8-1.5 2.6-3.3 3-7 .7-6.3.2-7.6-4.8-11.5-2.2-1.8-4-3.9-4-4.8 0-1.1-1-1.7-2.8-1.9-1.5-.1-4.6-1.6-6.7-3.3-2.2-1.8-4-2.8-4-2.3 0 .4-.5.1-1-.7s-1-5.3-1-9.9c0-10.1 2.2-15.3 9-21.4 6.6-5.8 11.2-8.5 18.1-10.4 6-1.7 6.2-1.7 13.3.7 7.9 2.7 14.3 8.3 19.2 16.6 3.7 6.2 8 20.8 10.5 34.9 1.1 6.6 3.3 17.4 4.9 24 5.3 22.2 7.8 54 8.5 104.3.6 45.2.6 45.3 9 80.9l2.7 11.3H512V157.1l-2.1-1.1c-1.1-.7-4.9-2.1-8.2-3.2-5.4-1.7-21-8.5-24.3-10.6-6.5-4-12.5-8.4-14.9-11-1.6-1.8-3.4-3.2-4-3.2-1.8 0-24.5-24.6-24.5-26.6 0-.3-1.5-2.7-3.3-5.3-7.7-10.6-14.2-26.5-18.8-45.6-1.8-7.5-2.1-12.1-2.2-27.5 0-10.2.3-19.5.7-20.8l.7-2.2H0z"/></svg>