<svg xmlns="http://www.w3.org/2000/svg" width="682.667" height="512" version="1.0" viewBox="0 0 512 384"><path d="M273.3 3.7c.9 5.2 7.2 17.8 11.3 22.3 1.9 2.1 3.4 4.1 3.4 4.6s-2.8 2-6.3 3.3c-8.5 3.2-18.2 9-27.1 16.1-16.1 12.8-26.6 30-31 50.6-3 14.4-4.8 19.7-8.2 24.1-3.7 4.9-2.3 5.1 2.8.4l4.4-4 .1 11.9c.1 13.3 1.1 16.7 2.9 10.5.7-2.2 1.3-3.2 1.3-2.3.1.9.7 2.9 1.5 4.5.8 1.5 2 4.3 2.7 6.2 1.1 2.9 1.4 3.1 2 1.5.7-1.8.8-1.8.8.1.1 1.6.3 1.7 1 .6.8-1.2 1.2-1 2.2 1.2 1.4 3.1 2.9 3.6 2.9.9 0-1.1.7-.6 2 1.5 1.1 1.8 2.2 3.3 2.5 3.3.4 0 .3-.5 0-1-.3-.6-.2-1 .3-1 1.3 0 4.2 3.4 4.2 5 0 .7.3 1 .7.7.3-.4 1.2-.2 2 .5 2.1 1.7 2.6.3.9-3.1-1.7-3.2-2.1-6.1-.8-6 .4 0 2.2 3.1 4 6.9 3.8 8 3.6 10-1.4 16.6-1.9 2.4-3.4 4.8-3.4 5.2 0 1.4 4.3 4.8 7.8 6.2s5.2 3.6 5.2 6.9c0 2.9 3.7 6.4 6.1 5.8 1.6-.4 2.1.1 2.6 2.5.3 1.6 1.6 3.6 2.9 4.4 1.3.9 3.7 3.8 5.5 6.5 3 4.8 3.2 5.3 2.6 12.7-.3 4.2-.8 8.4-1.2 9.4-.4 1.1 0 1.8 1.5 2.3 1.8.6 2.1 1.3 1.7 3.8-.3 2.4.1 3.7 1.8 5.3 1.5 1.4 2.4 3.8 2.9 7.5.4 3 1.6 8.8 2.7 13.1 2.9 11.6 3.5 10.1-8.9 20.6-3.5 2.9-4.5 3.3-5.3 2.1-.5-.8-.9-1.8-.9-2.2 0-2-9-14.6-11.8-16.5-1.6-1.2-4.8-5.2-7-8.9-2.2-3.8-4.9-7.6-6-8.6-1.8-1.6-1.9-2.7-1.5-12 1.1-20.5-4.7-35.9-15.2-40.3-3.7-1.5-15.3-1.8-24.2-.5-5.8.8-6.3.4-6.3-5.4 0-3.9-1.2-5.1-3-3-.8.9-1 3.1-.5 6.2l.6 4.8-9.5 3.3c-5.2 1.9-10.3 4.3-11.3 5.4s-3 2.6-4.5 3.4c-2.8 1.4-4 4.5-7.3 17.9-1.7 6.8-1.7 7.2.3 14.5 1.1 4.1 2.5 10.3 3.2 13.7 1.4 7 2.1 8.2 10.8 18.6 5.5 6.5 7.3 7.9 13 10.3 3.7 1.5 6.9 2.9 7.1 3.1.2.1-1.2 3.8-3.2 8.2-6.7 14.6-9.6 30-9.7 51.1 0 6.1-.7 12.2-2 17-1.1 4.1-2 8.1-2 8.7 0 1 8.4 1.3 38.8 1.3h38.8l1.8-4.3c.9-2.3 3.3-6.9 5.2-10.2l3.5-6-.6 4.3c-.4 2.3-.4 7 0 10.2l.7 6h190.5l6.3-2.6c6.8-2.7 15-7.9 15-9.4 0-.5-1.6-.6-3.5-.3s-3.5.2-3.5-.1c0-.4 2.1-3.4 4.6-6.7l4.5-5.9h-3.8c-6.4 0-9.8 1.5-20 9.1-8.5 6.3-17 10.9-20.3 10.9-1.5 0-7.3-12-7.7-16-.5-4.8-3.3-15.3-4.3-16.5-.5-.6-.8-2.4-.8-4 .1-1.7-1.1-7.1-2.5-12-1.4-5-2.9-10.7-3.2-12.8-.4-2-1.1-4-1.6-4.3s-.9-1.7-.9-3.2-.9-4.5-1.9-6.6c-1.1-2.1-1.8-4.3-1.5-5s-.4-3.2-1.5-5.6c-2-4.5-1.8-7.4.3-4.5.6.9 1.8 1.5 2.5 1.3s3.6 4.3 7.1 11.1c7.1 13.6 8 14.8 8 10 0-2.3.6-3.8 2-4.7 2.7-1.7 2.5-3.1-1.1-7.5-2.8-3.4-3.4-5.3-5.5-18-1.3-7.8-2.5-15.3-2.7-16.5-.7-3.5 1.3-1.1 5.2 6.3 1.8 3.3 4.1 7.1 5.2 8.5l2 2.5-.7-2.5c-.4-1.4-.9-3.6-1-5s-1.6-7.2-3.3-13c-3.8-12.7-7.1-32.2-4.8-28.9.1.2 2.5 6 5.2 12.9 2.8 6.8 7.9 17.2 11.5 23.1 6.9 11.3 11.7 17.9 10.5 14.4-6.9-19.6-11.1-34.2-10.1-35.2.1-.2 3.3 4.1 7.1 9.4 6.7 9.6 11.2 14.9 12 14.1.3-.2-.9-5.8-2.5-12.4-2.7-11.1-5.4-32.4-8-62.4-4.6-52.9-13.4-89.4-30-123.6-3.3-6.8-6-12.7-6-13.2 0-2.9-4.4-13.7-8.1-20.2-5.8-10-17.8-22.1-25.3-25.6-7.8-3.6-15.9-4.2-25.1-1.9l-7.4 1.9-6.2-6.7-6.1-6.7h-72.1zM318.9 223c1.7 2.8 3.1 5.4 3.1 5.8-.1.4-1.9 2.7-4 5.1l-4 4.4v-10.2c0-5.5.4-10.1.9-10.1s2.3 2.3 4 5"/></svg>