<svg xmlns="http://www.w3.org/2000/svg" width="682.667" height="512" version="1.0" viewBox="0 0 512 384"><path d="M0 192v192h112.5c61.9 0 112.5-.4 112.5-.8 0-.5.9-8.9 2-18.8 1.7-16.1 4-44.9 4-50.9 0-1.6-1.1-2.9-3.5-4.4-2.2-1.2-3.3-2.5-2.9-3.4.3-.8-.2-1.7-1-2-2.1-.8-2-2.7 0-2.7 1.3 0 1.4-.3.4-1.5s-.6-2.4 2-6.6c3.5-5.8 4.2-8.9 6.6-32.1l1.7-16.8-2.7-10.3c-3.7-14.1-3-25 2.5-37.4 1.4-3.3 1.6-4.9.9-6.9-1.1-2.8.1-5.4 2.5-5.4 1.6 0 2.5-3.2 2.5-9.2 0-4.2-.4-4.9-3.9-7.7-2.1-1.7-4.4-3.1-5-3.1-.7 0-.9-1-.5-2.6.6-2.5.5-2.6-2.2-2-2.4.5-3.6 0-7.1-3.3-3.1-2.8-4.3-3.4-4.4-2.2 0 1.2-.2 1.1-.9-.4-1.3-3-1.2-16.2.2-20.9 2.9-9.9 20.5-22.1 31.8-22 10.9 0 21.7 7.8 28 20.4 3.1 6 7.6 21.9 9.5 33.3.9 5.1 3.1 15.7 5 23.7 2.1 9.2 3.8 19.5 4.5 28.1.5 7.5 1.6 16.3 2.3 19.5.8 4.3 1.1 17.7.9 48.3l-.2 42.3 3.5 17.7c2 9.7 4.8 22.7 6.3 28.8l2.7 11.3H512V156.4l-5.7-1.8c-9.2-2.9-25-10.2-31.5-14.6-3.3-2.2-6.2-4-6.5-4-.9 0-17.8-15.4-21.4-19.4-1.9-2.3-5.9-7.3-8.8-11.1-2.9-3.9-5.8-7.7-6.5-8.5-4.5-5.7-15.4-31-17.9-42-3.5-14.8-4.5-41.4-2.1-52.3l.6-2.7H0z"/><path d="M250.1 173.6c0 1.1.3 1.4.6.6.3-.7.2-1.6-.1-1.9-.3-.4-.6.2-.5 1.3"/></svg>