<svg xmlns="http://www.w3.org/2000/svg" width="682.667" height="512" version="1.0" viewBox="0 0 512 384"><path d="M0 192v192h227.8l1.1-8.2c1.9-13.8 4.1-38.5 4.7-52.3l.6-13-3.4-1.5q-3.3-1.5-3-3.3c.2-.9-.4-2-1.3-2.3-2-.8-1.9-2.4.2-2.4 1.3 0 1.4-.3.5-1.2s-.4-2.6 2.2-7.2c3.2-5.8 3.5-7 5.7-27.8l2.2-21.7-2.7-10.6c-3.7-14.1-2.9-23.2 3-36.3 1.3-2.8 1.9-5.2 1.4-5.2-.6 0-1-1.4-1-3.1 0-2.2.5-3.2 2-3.6 1.4-.4 2-1.4 2-3.2 0-1.4.3-4.3.6-6.3.6-3.3.3-4.1-3-7.3-2-1.9-4.3-3.5-5.1-3.5-1.1 0-1.4-.7-.9-2.5.5-1.9.2-2.5-1.1-2.5-.9 0-1.3.4-1 1 1.2 2-3.1-.3-5.4-2.9-1.5-1.7-2.1-2-1.7-.9.9 3-.3 2-2.3-2-1.5-2.7-2-3.2-2.1-1.7 0 1.7-.2 1.7-1 .5-1.7-2.7-1.1-17.1.9-21.5 2.5-5.5 12.9-15 19.8-18.3 14.6-6.7 30.5.4 39.2 17.6 3.3 6.4 7.6 21.3 9.5 32.7.9 5.5 3 15.4 4.6 22 3.6 15.2 4.7 21.8 5.6 33 .3 4.9 1.3 12.6 2.1 17 1 5.7 1.7 21.7 2.3 56.5l.8 48.5 3.6 16.5c2 9.1 4.3 18.9 5.1 21.7l1.6 5.3H512l-.2-114.1-.3-114.1-9-3.3c-12.2-4.4-21.4-8.7-27.2-12.7-2.6-1.8-5.3-3.5-5.9-3.8-4-1.7-29.4-26.4-29.4-28.5 0-.6-1.2-2.2-2.6-3.6-1.4-1.3-3.3-3.8-4.1-5.4-.9-1.7-1.9-3.2-2.3-3.5-.9-.7-9.3-18-12.1-25-2.4-6.1-5.4-18.7-6.9-29.5-1.2-7.9-1.2-30.1 0-36.3l.7-4.2H0z"/><path d="M252.1 170c0 1.4.4 3.4.9 4.5.7 1.7.9 1.6.9-1 0-1.7-.4-3.7-.9-4.5-.8-1.2-1-1-.9 1"/></svg>