<svg xmlns="http://www.w3.org/2000/svg" width="682.667" height="512" version="1.0" viewBox="0 0 512 384"><path d="M0 192v192h227.8l1.1-8.2c1.8-12.8 4.1-39 4.7-52.8l.6-12.5-3.4-1.5q-3.3-1.5-3-3.3c.2-.9-.4-2-1.3-2.3-2-.8-1.9-2.4.2-2.4 1.3 0 1.4-.3.5-1.2s-.5-2.4 2-6.7c2.8-5.1 3.3-7.3 5.4-25.1 3-24.5 2.9-25.2-.2-36.1-3.6-12.5-2.7-22.7 3.2-35.7 1.3-2.8 1.9-5.2 1.4-5.2-.6 0-1-1.4-1-3.1 0-2.2.5-3.2 2-3.6 1.4-.4 2-1.4 2-3.2 0-1.4.3-4.3.6-6.3.6-3.3.3-4.1-3-7.3-2-1.9-4.4-3.5-5.2-3.5-1.2 0-1.5-.6-1-2.6.6-2.4.5-2.6-1.7-2-1.3.3-3.2-.1-4.4-.9-1.1-.8-2.3-1.1-2.7-.7-.4.3-.4-.2 0-1.2.5-1.3.4-1.7-.4-1.2-.6.4-1.7-.5-2.6-2.1-1.3-2.4-1.5-2.5-1.6-.8 0 1.7-.2 1.7-1 .5-.5-.8-1-5.1-1-9.5 0-10.2 1.8-14.2 9.8-21.8 15.8-14.9 32.2-14.8 44.9.2 3.1 3.6 6.3 8.1 7.1 10.1 2.9 7 7 21.8 8.6 31.5 1 5.5 3.3 16.8 5.2 25.2 1.9 8.3 3.9 20.2 4.4 26.5.6 6.2 1.7 15.3 2.5 20.3 1 5.7 1.9 22.2 2.5 45.5.5 20.1 1.2 40.9 1.5 46.3.4 7 .3 9.7-.5 9.2-.7-.4-.9.1-.6 1.7.3 1.2 2.2 9.7 4.1 18.8 2 9.1 4.2 18.9 5 21.7l1.6 5.3H512l-.2-114.1-.3-114.1-9-3.3c-12.2-4.4-21.4-8.7-27.2-12.7-2.6-1.8-5.3-3.5-5.9-3.8-4-1.7-29.4-26.4-29.4-28.5 0-.6-1.2-2.2-2.6-3.6-1.4-1.3-3.3-3.8-4.1-5.4-.9-1.7-1.9-3.2-2.3-3.5-.9-.7-9.3-18-12.1-25-2.4-6.1-5.4-18.7-6.9-29.5-1.2-7.9-1.2-30.1 0-36.3l.7-4.2H0z"/><path d="M252.1 170c0 1.4.4 3.4.9 4.5.7 1.7.9 1.6.9-1 0-1.7-.4-3.7-.9-4.5-.8-1.2-1-1-.9 1"/></svg>