<svg xmlns="http://www.w3.org/2000/svg" width="682.667" height="512" version="1.0" viewBox="0 0 512 384"><path d="M0 192v192h227.8l1.1-8.2c1.8-12.8 4.1-39 4.7-52.8l.6-12.5-3.4-1.5q-3.3-1.5-3-3.3c.2-.9-.4-2-1.3-2.3-2-.8-1.9-2.4.3-2.4 1.4 0 1.4-.2.3-.9s-.8-1.9 1.7-6.4c3.5-6.1 4.1-9.6 6.8-34.9l1.7-16.6-2.6-9.6c-3-10.6-3.3-18.1-1.2-24.1.8-2.2 1.5-4.8 1.5-5.8s1.1-4 2.5-6.7c1.4-2.8 2.1-5 1.5-5-.5 0-1-1.4-1-3.1 0-2.2.5-3.2 1.9-3.6 1.6-.4 2.1-1.8 2.7-7 .6-6.3.6-6.6-2.3-9.3-1.6-1.5-3.8-3.2-5-3.8-1.5-.8-2-1.8-1.6-3.3.5-1.9.3-2.1-2.4-1.5-2.5.6-3.3.3-4.7-1.9-.9-1.4-2.1-2.3-2.6-2s-1.6-.7-2.4-2.2l-1.5-2.8-.2 2.5-.1 2.5-.8-2.5c-1.4-4.3-1.1-15.4.6-20.2 3.1-9.3 18.1-20.7 29.4-22.3 9.8-1.4 22.3 6.6 29.5 18.9 3.2 5.5 7.9 22 10.4 36.6 1.1 6.3 3.4 17.3 5 24.5 1.7 7.1 3.5 18.2 4.1 24.5s1.7 16 2.5 21.5c.7 5.5 1.6 18.8 1.9 29.5 1.2 39.6 1.6 51.7 2.2 61.4.5 7.3.3 9.7-.5 9.1-.8-.4-1 .1-.7 1.7.3 1.2 2.2 9.7 4.1 18.8 2 9.1 4.2 18.9 5 21.7l1.6 5.3H512l-.2-114.1-.3-114.1-9-3.3c-12.2-4.4-21.4-8.7-27.2-12.7-2.6-1.8-5.3-3.5-5.9-3.8-4-1.7-29.4-26.4-29.4-28.5 0-.6-1.2-2.2-2.6-3.6-1.4-1.3-3.3-3.8-4.1-5.4-.9-1.7-1.9-3.2-2.3-3.5-.9-.7-9.3-18-12.1-25-2.4-6.1-5.4-18.7-6.9-29.5-1.2-7.9-1.2-30.1 0-36.3l.7-4.2H0z"/><path d="M252.1 170c0 1.4.4 3.4.9 4.5.7 1.7.9 1.6.9-1 0-1.7-.4-3.7-.9-4.5-.8-1.2-1-1-.9 1"/></svg>