<svg xmlns="http://www.w3.org/2000/svg" width="682.667" height="512" version="1.0" viewBox="0 0 512 384"><path d="M0 192v192h227.8l1.1-8.2c1.8-12.8 4.1-39 4.7-52.8l.6-12.5-3.4-1.5q-3.3-1.5-3-3.3c.2-.9-.4-2-1.3-2.3-2-.8-1.9-2.4.3-2.4 1.4 0 1.4-.2.3-.9s-.8-1.9 1.8-6.5c2.9-5.3 3.3-7.1 5.8-28.2l2.6-22.6-2.6-10.3c-3-11.5-3.3-18-1.2-24 .8-2.2 1.5-4.8 1.5-5.8s1.1-4 2.5-6.7c1.4-2.8 2.1-5 1.5-5-.5 0-1-1.4-1-3.1 0-2.2.6-3.2 1.9-3.6 2.1-.5 3.1-4.1 3.1-10.7 0-3.4-.5-4.5-3.3-6.7-1.7-1.4-4-2.8-4.9-3.2-1.1-.4-1.5-1.3-1.1-2.6.4-1.8.1-2.1-2.3-2.1-1.5 0-3.9-1-5.2-2.3-1.4-1.2-2.2-1.6-1.8-1 .4.7.5 1.3.2 1.3s-1.3-1.4-2.2-3.1c-1.2-2.4-1.8-2.8-2.4-1.8-1.4 2.2-2.3-3.7-1.7-11.1.7-8.7 3.2-13.4 10.1-19.8 12-10.9 23.7-13.5 34.7-7.7 6 3.2 13 10.8 16.6 18 3.2 6.5 7.1 21 9.7 36 1.4 7.7 3.6 18.8 5 24.6 1.3 5.9 3 16 3.6 22.5.6 6.6 1.7 16.8 2.5 22.9.7 6 1.6 22.2 2 36 .3 13.7.8 34.7 1.1 46.5.4 19.7.8 22.8 4 37.5 1.9 8.8 4.1 18.4 4.9 21.2l1.6 5.3H512l-.2-114.1-.3-114.1-9-3.3c-12.2-4.4-21.4-8.7-27.2-12.7-2.6-1.8-5.3-3.5-5.9-3.8-4-1.7-29.4-26.4-29.4-28.5 0-.6-1.2-2.2-2.6-3.6-1.4-1.3-3.3-3.8-4.1-5.4-.9-1.7-1.9-3.2-2.3-3.5-.9-.7-9.3-18-12.1-25-2.4-6.1-5.4-18.7-6.9-29.5-1.2-7.9-1.2-30.1 0-36.3l.7-4.2H0z"/><path d="M253.2 172c0 1.9.2 2.7.5 1.7.2-.9.2-2.5 0-3.5-.3-.9-.5-.1-.5 1.8"/></svg>