<svg xmlns="http://www.w3.org/2000/svg" width="682.667" height="512" version="1.0" viewBox="0 0 512 384"><path d="M0 192v192h227.8l1.1-8.7c1.9-14.5 2.1-16.1 3.6-35.3.8-10.1 1.5-20.8 1.5-23.6 0-4.9-.2-5.3-3.5-7.3-2.2-1.2-3.3-2.5-2.9-3.4.3-.8-.2-1.7-1-2-2.2-.8-2-2.7.2-2.7 1.3 0 1.4-.2.3-.9s-.8-1.9 1.7-6.2c2.8-5 3.3-7.1 5.8-28.4l2.6-23-2.7-10.7c-2.9-11.2-3.1-21.6-.6-24.1.6-.6 1.1-2.4 1.1-3.9 0-1.6 1.1-5.1 2.5-7.8 1.4-2.8 2.1-5 1.5-5-.5 0-1-1.4-1-3 0-1.7.4-3 .9-3 2.6 0 4.1-3.4 4.1-9.4 0-6.1-.1-6.2-4.2-9.4-2.3-1.8-4.5-3.2-4.9-3.2s-.5-.8-.2-1.9c.6-2.3-1.3-3.7-3.1-2.2-1 .8-2.4 0-5.9-3.3-2.6-2.6-4.8-3.9-5-3.3-1 3-1.6-10.4-.7-15.2 1.3-6.7 3.8-10.8 10.1-16.5 18.5-16.7 38.4-12.6 50.2 10.3 3.8 7.3 7.8 21.6 10.2 36.1.8 5.2 2.8 15.4 4.5 22.6 1.6 7.2 3.4 18.5 4 25 .5 6.6 1.6 16.8 2.4 22.9.9 6.8 1.7 25.6 2.1 49.5.4 21.2 1 43 1.5 48.6.9 9.4 5.2 31.4 8.6 43.1l1.5 5.3H512l-.2-114.1-.3-114.1-9-3.3c-12.2-4.4-21.4-8.7-27.2-12.7-2.6-1.8-5.3-3.5-5.9-3.8-3.8-1.6-26.4-23.3-29.3-28.1-.9-1.5-3.6-5.6-6.1-9-4.6-6.4-11.4-19.5-14.6-27.9-.9-2.5-2-5.4-2.4-6.5-1.1-2.8-4.1-16.9-5.1-24-1-7.3-1-30.5.1-36.3l.7-4.2H0z"/><path d="M253.3 172.5c0 2.2.2 3 .4 1.7.2-1.2.2-3 0-4-.3-.9-.5.1-.4 2.3"/></svg>