<svg xmlns="http://www.w3.org/2000/svg" width="682.667" height="512" version="1.0" viewBox="0 0 512 384"><path d="M0 192v192h227.8l.6-3.3c1.1-6 4.6-44 5.3-56.8l.6-12.8-3.7-1.7c-2-1-3.5-2.3-3.2-3s-.2-1.8-1-2.4c-2-1.7-1.8-3.1.4-2.3 1.5.6 1.5.5.4-1-1.2-1.4-1-2.4 1.7-6.9 2.7-4.8 3.2-7.2 5.1-23.3 3.5-30.5 3.4-28.1.6-37.9-2.9-10-3.3-18-1.1-23.3.8-1.9 1.5-4.6 1.5-6 0-1.3 1.1-4.6 2.5-7.3 1.4-2.8 2.1-5 1.5-5-.5 0-1-1.3-1-2.8 0-2.1.7-3.2 2.5-4 2.3-1.1 2.5-1.6 2.5-8.4l-.1-7.3-4.5-2.9c-3.4-2.1-4.4-3.3-4.1-4.7.5-1.9-.1-2.2-3.8-2-1.2.1-3.7-1.4-5.8-3.4-2-1.9-4.1-3.5-4.7-3.5-1.7 0-1.6-12.7.2-19.4 1.3-5.4 11.4-15.4 19.2-19 8.8-4.2 14.9-4.5 22.5-1.1 14.3 6.5 23 23.3 27.5 53.6.8 5.2 2.1 12.2 2.9 15.4 3.2 12.6 5.6 26.4 6.2 36 .3 5.5 1.2 14.5 2 20 .8 6.1 1.6 25.8 2 50.5.4 22.3 1.1 44.5 1.6 49.4.9 8.6 5.5 30.9 8.5 41.3l1.5 5.3H512l-.2-114.1-.3-114.1-9-3.3c-12.2-4.4-21.4-8.7-27.2-12.7-2.6-1.8-5.3-3.5-5.9-3.8-3.6-1.5-29.4-26.3-29.4-28.2 0-.7-4.5-7.1-8.4-11.9-1.6-2-9.8-18.6-12.7-25.9-2.4-6.1-5.4-18.7-6.9-29.5-1.2-7.9-1.2-30.1 0-36.3l.7-4.2H0z"/><path d="M253.3 172.5c0 2.2.2 3 .4 1.7.2-1.2.2-3 0-4-.3-.9-.5.1-.4 2.3"/></svg>