<svg xmlns="http://www.w3.org/2000/svg" width="682.667" height="512" version="1.0" viewBox="0 0 512 384"><path d="M0 192v192h227.8l.6-3.3c1.5-8 5.6-55.6 5.6-64.2 0-4.7-.3-5.1-3.3-6.5-1.8-.8-3.2-2.3-3.2-3.2 0-1-.9-2.4-2-3.2-1.8-1.4-1.9-1.5-.2-1.6 1 0 1.5-.5 1.2-1.1-.4-.6.6-3.6 2.3-6.7 2.7-5.2 3.2-7.8 5.7-28.7l2.6-23-2.5-9.5c-3-11-3.3-18.5-1-23.8.9-2 1.6-4.7 1.5-6 0-1.3 1-4.5 2.4-7.2 1.4-2.8 2.1-5 1.5-5-2.1 0-1-5 1.5-6.6 2.3-1.5 2.5-2.2 2.5-8.8l-.1-7.1-4.5-2.9c-3.4-2.1-4.4-3.3-4.1-4.7.5-1.9-.2-2.3-3.6-1.9-1.1.1-2.6-.8-3.4-1.9-.8-1.2-1.8-1.9-2.3-1.6s-1.6-.7-2.4-2.2-1.5-2.2-1.6-1.5c0 .7-.4 1-1 .7-1.4-.8-1.3-13.6.2-19.3 2.5-10 18.7-22 30.9-23 10.6-.8 22.6 7.5 29.1 20.3 2.9 5.6 7 20.4 8.8 31.5.6 4.1 2.7 14.7 4.6 23.5 3 14.4 5.2 29.8 5.1 36.5 0 1.4.7 7.4 1.6 13.5 1.1 7.9 1.7 22.1 2.2 51 .6 41.3.9 49.1 2.6 58.5 1.7 9 5.9 28.1 7.5 33.7l1.5 5.3H512l-.2-114.1-.3-114.1-9-3.3c-12.2-4.4-21.4-8.7-27.2-12.7-2.6-1.8-5.3-3.5-5.9-3.8-3.6-1.5-29.4-26.3-29.4-28.2 0-.7-4.5-7.1-8.4-11.9-1.6-2-9.8-18.6-12.7-25.9-2.4-6.1-5.4-18.7-6.9-29.5-1.2-7.9-1.2-30.1 0-36.3l.7-4.2H0z"/><path d="M253.3 172c0 2.5.2 3.5.4 2.2.2-1.2.2-3.2 0-4.5-.2-1.2-.4-.2-.4 2.3"/></svg>