<svg xmlns="http://www.w3.org/2000/svg" width="682.667" height="512" version="1.0" viewBox="0 0 512 384"><path d="M263 .3c0 .2 1.1 3.6 2.5 7.7 3 8.8 5.9 13.9 11.5 20.3 2.3 2.6 4.1 4.9 3.9 5s-3.1 1.5-6.4 3q-44.4 21-54 67.2c-2.9 14.3-5.6 22.1-8.5 25.3-4.7 5.1-1 4.2 4-.9 4.3-4.5 4.3-4.4 4.5 4.1.2 15.2.6 19.5 1.6 17.2.5-1.3 1-3.6 1.1-5.2.3-3.8.8-3.1 4.2 5.7 2.6 6.8 4.5 9.8 3.3 5.3-.3-1.1-.1-1.8.4-1.4.5.3.9 1.3.9 2.2 0 1.2.3 1.3 1.2.4 1-1 1.6-.5 3 2 1.6 3.2 1.7 3.2 1.8.8l.1-2.5 2.4 3c1.4 1.6 2.5 2.6 2.5 2 0-.5 2 1.1 4.5 3.5 4.5 4.5 5.7 4.2 3.1-.8-1.4-2.8-1.9-8.2-.6-8.2.4 0 2.4 3.4 4.4 7.5 3.4 6.8 3.6 7.9 2.6 10.9-.6 1.9-2.5 5.3-4.1 7.6-4.4 6.1-3.9 7.1 5.6 11.2 2.2 1 3.4 2.4 4.4 5.6 1 3.3 2.2 4.7 4.6 5.9 1.9.9 3.6 2.6 3.9 3.9.3 1.2 1.5 2.6 2.6 2.9 1.2.4 3.2 2.4 4.7 4.6 2.5 3.8 2.6 4.3 1.9 13.1-.4 5-1.1 9.9-1.7 11-.8 1.4-.6 1.8.7 1.8 1.2 0 1.5.7 1.2 2.7-.3 1.6-.8 3.5-1.2 4.4-.9 2.1 2.1 3.4 4 1.8 1.5-1.2 1.4-1.5 3.8 11.6.9 4.4 2.4 11.7 3.4 16.2l1.8 8.1-5.4 4.9c-3 2.6-5.7 4.9-6.1 5-1 .4-9.3-8-13-13.1-1.8-2.5-4.6-5.3-6-6.2-1.5-.9-4.6-4.6-6.9-8.2-2.3-3.7-5.1-7.8-6.2-9.2-1.8-2.3-1.9-3.1-1-8 .7-3.8.7-8.4 0-14.8-1.7-15.6-6.5-24.8-14.8-28.5-4.1-1.7-6-1.9-17.3-1.5l-12.7.6-.7-4.4c-.7-4.7-1.5-5.3-3.5-2.9-.9 1.1-1 2.5-.2 5.6 1 3.8.9 4.1-1.6 5-13.1 4.8-16.8 6.6-20.5 9.6-5.8 4.9-6.2 5.6-9.1 16.9-2.4 9.5-2.4 10.4-1 15.5.8 3 2.3 9.4 3.4 14.3 2 8.8 3.3 11.3 10.5 19.6 7.1 8.2 9.1 9.7 15.8 11.9 3.7 1.3 6.7 2.4 6.7 2.5 0 .2-1.8 4.1-3.9 8.7-6.3 13.4-8 21.8-9.2 43.4-.5 10.5-1.6 21.3-2.4 24.2-.8 2.8-1.5 5.4-1.5 5.7s18.9.6 42 .6h41.9l1.2-2.2 1.2-2.2.8 2.2.8 2.2h194.2l5.2-2.6c2.9-1.4 6.6-3.6 8.2-5l3-2.4h-8.6l4.5-5.9c2.5-3.3 4.6-6.3 4.6-6.6 0-.9-11 .4-13.2 1.6-.9.5-6.2 4.1-11.8 8-8.7 6.2-13.2 8.4-18.9 9.2-1.5.2-6-12-6.1-16.6 0-3.6-3-15.9-4.1-17.2-.5-.5-.9-2.3-.9-4 0-1.6-1.6-9.1-3.6-16.5-1.9-7.4-4.1-15.8-4.8-18.6-.7-2.7-1.6-5.6-2.1-6.4-.4-.7-.9-2.6-1-4.2-.2-1.5-.8-3.5-1.5-4.4-.9-1-1-1.8-.2-2.6 1.6-1.6 2.5-.6 7.6 9.5 2.7 5.2 5.9 10.8 7.1 12.4l2.3 2.8-.5-2.7c-.5-2.4-.2-2.7 2.8-3 2.9-.2 3.5-.7 3.7-3 .3-2.1-.7-3.9-4.3-7.7-5.2-5.5-5.7-7-8.6-23.6-3.6-20.9-3.7-24.8-.4-17 2 4.8 12.2 22.2 13.5 23 .6.4.4-1-.5-3.2-.9-2.1-1.9-4.4-2.2-5.1-.3-.6 0-1.2.5-1.2.7 0 .6-1.5-.4-4.2-2.6-7.5-8.6-29-8.1-29.4.8-.8 2.4 2 5.8 10.1 3.7 8.6 14.3 26.2 19 31.7l2.9 3.3-2.1-5.5c-6.1-15.7-9.7-28-8.2-28 .4 0 3.2 3.4 6.2 7.5 4.8 6.6 12.1 14.7 12.1 13.4 0-.2-.9-3.6-2-7.4-4.6-15.8-7-32.3-10-67.5-2.6-30.8-5-49.7-8.2-63-5.3-22.5-13.7-46.9-21.2-61.7-2.5-5.1-4.6-10.3-4.6-11.5-.1-4.3-4.6-15.3-9.2-22.3-6.5-9.9-17.3-20.5-24.4-24-5.2-2.6-7-2.9-14.9-2.9-8.1.1-11.4.8-18.7 3.8-1.2.6-3.4-1.1-8.4-6.3L336.5 0h-36.7c-20.3 0-36.8.1-36.8.3m50.6 217.6c1.1 1 3.5 4.1 5.2 6.9l3.3 5-2.7 2.9c-1.5 1.5-4.2 5.2-6.2 8.2-4 6.2-5.1 5.6-4.8-2.4.1-2.8.3-8.9.4-13.8.2-9.3 1-10.4 4.8-6.8m-6.8 35.4c-1.6 3.3-1.8 3.3-1.8-.1 0-2.4.4-3 1.5-2.6 1.2.5 1.2 1 .3 2.7"/></svg>