<svg xmlns="http://www.w3.org/2000/svg" width="682.667" height="512" version="1.0" viewBox="0 0 512 384"><path d="M0 192v192h227.8l.5-2.3c1.1-4.3 5.7-55.9 5.7-63.7 0-3.2-.5-3.8-3.6-5.3-2.4-1.2-3.4-2.2-3-3.2.3-.9-.3-1.9-1.4-2.5-2.8-1.5-2.6-3.3.2-2.4 2 .6 2.1.5.9-1-1.2-1.4-1-2.3 1.2-6.4 1.9-3.6 3-7.8 4.1-17 5.2-40.3 4.9-35.1 2.2-44.9-3.6-13-3.9-16.1-2.1-22.3.9-3 2-7.1 2.4-9s1.8-5.4 3-7.7c1.2-2.4 1.7-4.3 1.1-4.3-.5 0-1-1.3-1-2.8 0-2.1.7-3.2 2.4-4 2.4-1.1 3.6-5 3.6-12.2 0-3-.7-4.1-4.2-6.8-2.3-1.8-4.5-3.2-5-3.2s-.6-1.1-.2-2.4c.4-1.6.1-2.5-1.1-3-1-.4-1.4-.2-.9.5 1.6 2.6-4.3-.6-7.9-4.2-2.8-3-3.7-3.5-3.8-2.2 0 1.3-.3 1.1-1.1-.7-1.5-3.7-.2-16.6 2.3-21.7 2.7-5.6 10.6-12.6 18.4-16.3 16.2-7.7 32-1 41.4 17.7 3 6 6.9 21.1 8.7 33.8.8 6 2.8 17.1 4.4 24.5 3 14.5 5.6 32.3 4.7 33.7-.3.4.1 4.4.9 8.8 1 5.5 1.7 23.7 2.4 57.3.7 35.6 1.4 51.5 2.4 57 1.6 8.6 6 28.4 7.7 34.4l1 3.8H512l-.2-114.1-.3-114.1-9-3.3c-16.6-5.9-26.7-11.4-39.8-21.7-5.1-4-22.7-21.7-22.7-22.9 0-.8-4.4-7.1-8.4-12-1.6-2-9.8-18.6-12.7-25.9-2.4-6.1-5.4-18.7-6.9-29.5-1.2-7.9-1.2-30.1 0-36.3l.7-4.2H0z"/><path d="M254.3 172.5c0 2.2.2 3 .4 1.7.2-1.2.2-3 0-4-.3-.9-.5.1-.4 2.3"/></svg>