<svg xmlns="http://www.w3.org/2000/svg" width="682.667" height="512" version="1.0" viewBox="0 0 512 384"><path d="M0 192v192h228l.5-2.3c.9-4.2 5.5-55.9 5.5-62.8 0-.8-1.6-2.3-3.5-3.2-2.2-1-3.5-2.4-3.5-3.6 0-1-.7-2.1-1.5-2.5-2-.7-1.9-2.6.2-2.6 1.3 0 1.4-.3.5-1.2s-.6-2.1 1.3-5.4c2.4-4.1 3.7-11.4 7.8-43.9 1.4-10.9 1.4-11-1.5-22-3.3-13-3.4-15.8-.8-22.7 1.1-2.9 2-6.3 2-7.6 0-1.2.8-3.9 1.9-6 1.2-2.4 1.7-5 1.4-7.4-.4-3-.1-3.8 1.9-4.9 3.4-1.8 3.8-2.7 3.8-10v-6.6l-4.7-3.7c-3-2.3-4.8-4.5-4.8-5.9 0-1.6-.6-2.1-2.8-2.2-1.8 0-4.1-1.3-6.5-3.5-2-1.9-4-3.4-4.4-3.2-1.2.3-.9-13.4.3-18.3 2-7.9 11.9-17.2 22.8-21.5 12.3-4.8 25.3-1 33.3 9.8 2.3 3.1 5 7.3 6 9.3 2.8 5.9 6.6 21.6 8.8 36.5 1.1 7.6 3.1 19.1 4.4 25.4 2.5 11.6 4.6 27.5 4.5 34 0 1.9.5 6.9 1.1 11 .7 4.2 1.6 29.3 2 57 .5 27.5 1.3 51.5 1.9 54 .5 2.5 2.1 9.8 3.5 16.2s3 13.5 3.6 15.7l1.1 4.1H512V154.4l-5.8-1.8c-8.3-2.6-22.9-9.4-28.5-13.3-2.6-1.8-5-3.3-5.5-3.3-.4 0-2.3-1.5-4.2-3.3s-5.5-4.7-8-6.4c-9.7-6.6-24.6-25.9-32.9-42.8-11-22.1-14.5-36.4-14.6-59 0-8.3.4-17.1.8-19.8l.8-4.7H0z"/><path d="M254.1 171.2c0 .7.4 2.2.9 3.3.8 1.8.9 1.7.9-.7.1-1.5-.3-3-.9-3.3-.5-.3-1 0-.9.7"/></svg>