<svg xmlns="http://www.w3.org/2000/svg" width="682.667" height="512" version="1.0" viewBox="0 0 512 384"><path d="M0 192v192h113.9c107.7 0 114-.1 114.5-1.8.6-2.2 5.6-56.8 5.6-61.9 0-.7-1.7-2.1-3.7-3.1-2.3-1-3.8-2.4-3.8-3.5 0-1-.8-2.3-1.8-2.8-2.2-1.3-1.3-3.1 1.1-2.2 1.5.6 1.5.5.3-1-1.1-1.4-1-2.3 1.2-5.9 2.5-4.5 5-18.7 7.8-45 1.2-11.4 1.2-11.8-1.4-21.7-3-11.3-3.3-16.8-1.1-22.6.9-2.2 1.9-5.8 2.4-8.1.5-2.2 1.9-5.7 3-7.7 1.2-2.1 1.7-3.7 1.1-3.7s-1.1-1.4-1.1-3c0-2.3.6-3.3 2.5-4.2 3-1.4 3.4-2.6 3.6-10.7.1-5.1-.2-6.6-1.6-7.3-.9-.6-2.4-1.9-3.3-2.9s-2.2-1.9-2.9-1.9c-1.8 0-2.6-1.9-1.4-3.4.8-1 .7-1.7-.4-2.6-.8-.7-1.5-.8-1.5-.3 0 2-3 .8-7.1-2.9-2.3-2.1-4.5-3.8-5-3.8-1.2 0-1.1-11.5.2-17 1.4-6.1 4.3-10.2 11.3-15.7 6.8-5.4 16.7-9.3 23.5-9.3 10.3 0 21.2 8.4 27.7 21.2 3.1 6.1 6.9 21.9 9 36.8.8 6.3 2.6 17 4 23.8 2.9 14.3 5.5 33.2 4.8 34.4-.3.5.2 7 1.2 14.6 1.4 11.1 1.8 22.2 1.8 58.2l.1 44.5 3.2 14.5c1.7 8 3.9 17.5 4.8 21.3l1.7 6.7H512V152.2l-3.1-.7C501.7 149.9 475 137 475 135c0-.4-1.4-1.3-3-2-1.7-.7-3.4-1.8-3.8-2.4s-2.7-2.7-5.2-4.6c-4.8-3.8-18.6-17.9-20.4-20.9-.6-1-3.7-5.6-6.8-10.3-5.6-8.3-11.8-20.6-11.8-23.1 0-.7-.4-1.7-.8-2.3-1.3-1.4-3.8-9.1-5.2-15.9-.7-3.3-1.6-7.4-2-9-2-7.2-2.9-33.4-1.5-40.9l.7-3.6H0z"/><path d="M255.3 172.5c0 2.7.2 3.8.4 2.2.2-1.5.2-3.7 0-5-.2-1.2-.4 0-.4 2.8"/></svg>