<svg xmlns="http://www.w3.org/2000/svg" width="682.667" height="512" version="1.0" viewBox="0 0 512 384"><path d="M0 192v192h113.9c62.7 0 114.2-.3 114.4-.8.3-.4 1.2-9.5 2.1-20.2 1-10.7 2.1-24.4 2.6-30.4s.7-11.3.4-11.7c-.3-.5-2.1-1.6-4-2.4-2.8-1.1-3.4-1.9-2.9-3.4.4-1.4 0-2.1-1.5-2.6-2.7-.9-2.6-2.5.3-2.5 1.8 0 1.9-.2.7-1-1.3-.8-1.2-1.5.8-5.2 2.5-4.6 5.9-23.2 8.3-45.4 1.2-12 1.2-12.3-1.4-22.1-3.2-11.9-3.4-17.5-.7-24.5 1.1-2.9 2-6.4 2-7.8s1.1-4.4 2.5-6.8c1.3-2.3 2-4.2 1.4-4.2-.5 0-.9-1.3-.9-3 0-2.2.7-3.3 2.9-4.4 2.3-1.2 2.9-2.4 3.5-6.2 1.2-9 1-9.6-4.8-14.4-3.8-3.1-5.2-4.8-4.5-5.6.6-.7.4-1.6-.6-2.4-.9-.7-1.5-.8-1.5-.2 0 1.6-2.3.9-4.8-1.6-1.2-1.2-2.6-2.2-3.1-2.2s-1.3-.9-1.6-2-1.3-2-2.2-2c-1.4 0-1.5-1.2-1.1-8.3.8-11.6 3-16.2 11.3-23 24.7-20.4 49.6-9 57.9 26.5 1.4 5.7 3 14.7 3.7 19.9.6 5.1 2.7 17.5 4.5 27.4 1.9 10.2 3.8 24.5 4.4 33 .6 8.2 1.5 18.8 2 23.5.6 4.7 1 27.2 1 50v41.6l2.9 15.6c1.7 8.6 3.8 18.6 4.7 22.2l1.6 6.6H512l-.2-117-.3-117-10.5-4.4c-5.8-2.3-12.1-5.2-14-6.4s-4.2-2.5-5-2.8c-.8-.4-2.5-1.6-3.7-2.7s-3.1-2.5-4.1-3.1c-17-10-39-36.9-47-57.6-5-12.8-6.2-16.6-8.3-25.5-2-8.6-2.3-12.7-2.4-28.7V0H0z"/><path d="M255.2 171c0 1.9.2 2.7.5 1.7.2-.9.2-2.5 0-3.5-.3-.9-.5-.1-.5 1.8"/></svg>