<svg xmlns="http://www.w3.org/2000/svg" width="682.667" height="512" version="1.0" viewBox="0 0 512 384"><path d="M0 192v192h114.5c108.4 0 114.5-.1 114.5-1.8 0-.9.9-12.7 2-26.2 2.7-33.6 2.8-31.5-2-34-2.4-1.2-3.7-2.5-3.4-3.3s-.2-2-1-2.7c-1.8-1.4-1.1-3.4.7-2.3.7.4.6 0-.2-1-1.1-1.4-1-2.3 1.3-6 2.5-4.5 5.6-20.5 8.8-46.5 1.2-10.2 1.2-10.3-2.1-23.7-3.1-12.5-3.2-13.9-2.1-18.7.7-2.9 1.9-6.6 2.7-8.1.7-1.5 1.1-3.2.8-3.7s.5-3.1 1.8-5.7c1.7-3.5 2.3-5.9 1.9-9-.4-3.9-.2-4.4 2.2-5.3 3.3-1.2 4.6-4.6 4.6-11.8 0-5.7 0-5.8-5-9.7-3.9-3.1-4.9-4.5-4.8-6.5.3-2.1-.1-2.5-2.7-2.5-2.2 0-4.1-1.1-6.7-3.7-2-2-3.9-3.4-4.2-3.1-1.1 1.1-1.8-5.2-1.2-10.5 1-10.1 2.4-13.2 8.4-19.1 9.8-9.6 23.4-15.2 32.4-13.2 6.5 1.5 13.2 5.6 17.8 10.9 8.4 9.7 12.5 22.5 16 49.7 1.1 8.2 2.9 19.5 4 25s2.5 14.9 3.1 21c.5 6 1.6 17.8 2.4 26 1.1 10.7 1.5 28.2 1.5 60.3v45.1l4 19.3c2.2 10.6 4 19.6 4 20 0 .5 44.5.8 99 .8h99V142.4l-8.2-3.4c-21.6-8.7-44-27.3-57.4-47.7-5.5-8.3-15.9-27.3-15-27.3.3 0-.6-2.8-2-6.2-1.3-3.4-2.4-7.2-2.4-8.4 0-1.3-.5-2.6-1.1-2.9-.5-.4-.8-1.2-.6-1.8.2-.7-.3-3.5-1.1-6.2-1-3.5-1.5-10.1-1.6-21.7L422.5 0H0z"/><path d="M256.3 172c0 2.5.2 3.5.4 2.2.2-1.2.2-3.2 0-4.5-.2-1.2-.4-.2-.4 2.3"/></svg>