<svg xmlns="http://www.w3.org/2000/svg" width="682.667" height="512" version="1.0" viewBox="0 0 512 384"><path d="M260.5 3.7c1.5 8.5 7.2 19 14.3 26.5 2 2.1 3.4 3.9 3.1 4.1-.2.2-4 2.3-8.4 4.6-10.2 5.4-21.1 13.7-28.1 21.5-6.1 6.6-11.7 14.8-12.9 18.7-.4 1.3-1.8 4.4-3 6.9-1.3 2.5-3.7 11.2-5.4 19.3-3.3 15.2-5 20.3-8.3 24.9-2.8 4-.3 3.5 3.9-.7 1.9-1.9 3.7-3.5 3.9-3.5s.4 2.8.4 6.2c0 3.5.3 9.4.7 13.3l.7 7 1.1-5.5 1.2-5.5 1.2 3c.6 1.6 2.3 5.8 3.8 9.3l2.6 6.3 1.7-2.6 1.7-2.6 1.3 3.1c1.7 4.1 3.4 5.1 2.8 1.6l-.5-2.7 3.1 3.3c4.2 4.3 10.8 9.9 11.3 9.5.2-.2-.4-1.8-1.3-3.5-.8-1.7-1.4-4.9-1.2-6.9l.3-3.8 3.8 7.2c2 4 3.7 8.2 3.7 9.3 0 3.2-2.8 9.2-5.7 12.2-2.5 2.6-2.5 2.8-1 5.2.9 1.3 3.3 3 5.4 3.6 5.2 1.7 6.1 2.6 7.4 7.2.8 3.1 1.7 4.3 4.5 5.4 2 .8 3.4 2.1 3.4 3.2 0 .9 1.4 2.5 3.1 3.4l3 1.8-.4 17.2c-.2 9.5-.7 18-1.1 18.9-.9 2.1 2.1 3.4 4.1 1.7 2-1.6 2.9 0 3.6 6.6.4 2.8 1.9 11.4 3.3 19l2.7 14-3.8 3.2-3.8 3.2-6.1-4.2c-3.4-2.3-8.5-6.7-11.5-9.9-2.9-3.1-6.1-5.9-7-6.2s-2.9-2.8-4.6-5.5c-1.6-2.8-4.3-6.4-6.1-8.1-2.9-2.8-3.1-3.4-2.3-6.7 2.8-12.2-2-34.7-9-41.9-4.7-4.9-7.4-5.5-22.3-5.1l-13.9.3-.6-3.8c-1.1-7.2-4.8-5.4-3.9 1.9.5 4 .4 4.2-3.2 5.7-14.4 6.1-16.4 7.2-20.6 11.7-3.5 3.8-4.6 5.8-5.6 10.6-.6 3.2-1.8 7.9-2.5 10.3-1.5 4.5-1 7.1 5.3 28.9 2.1 7.4 14.3 21.4 21.6 24.8 2.8 1.3 5.7 2.4 6.4 2.4s2.1.4 3.1 1c1.7.9 1.6 1.4-1.4 7.8-7 14.6-9.2 25-10.5 49.4-.5 9.5-1.2 18.5-1.6 20l-.6 2.8h284.1l5-3.1c6.2-3.9 6.5-5.4 1-4.5l-4.1.7 5.7-6.7c3.1-3.6 5.4-6.9 5.1-7.1-.3-.3-3.1-.2-6.4.2-5.1.6-7.4 1.7-17.3 8.1-10.5 6.9-17.5 10-20.1 9.2-1.4-.5-4.9-11.9-5.3-17.3-.5-5.7-3.1-16.4-4.5-18-.7-.8-1-2.2-.6-3.1.6-1.5-4.6-24.5-6.6-29.4-.6-1.4-1.3-4.1-1.5-6s-1.1-4.5-1.9-5.8c-.8-1.2-1.2-2.6-.9-3.1.2-.5-.2-2.7-1-5-2.6-7.4.4-4.3 5.5 5.7 2.7 5.3 5.8 10.8 6.9 12.2l2.1 2.5v-2.8c0-2.4.2-2.6 1.9-1.7 3 1.6 5.9 1.2 7.1-.9.5-1.1 1-2.2 1-2.5s-2.7-3.6-6.1-7.2c-3.3-3.7-6.6-7.9-7.3-9.3-1.9-3.6-5.8-27-5.4-32.2l.3-4.4 3.8 7c5.1 9.7 12.6 21.3 12.7 19.7 0-.7-.6-2.5-1.4-4-.7-1.5-1.7-3.8-2.1-5.2-.7-2.3-.7-2.4 1-1s1.8 1.3 1.1-.5c-1.1-2.7-4.9-14.5-7.6-23-1.2-3.9-2.4-7.7-2.7-8.5-.4-1-.2-1.2.4-.5.6.5 2.8 5.1 5 10 3.8 8.8 19.6 33.5 21.3 33.5.5 0-.2-2.4-1.5-5.3-3.2-7.3-8.5-22.5-8.5-24.5 0-.9 1.5.2 3.7 2.9 7.1 8.3 14.5 15.5 14 13.4-.3-1.1-1.7-6.1-3.1-11-3.7-12.2-6.1-29.9-8.5-61.5-2.5-32.2-2.8-34.4-5.2-49.5-4.1-25.1-13-54.4-22.3-73.4-3-6.3-4.6-10.8-4.6-13.3 0-9-8.4-23.4-20.9-35.9-9.1-9-14.3-11.9-24.1-13.4-5.2-.7-18 1.6-21.7 4-2.9 2-3.7 1.6-13-6.9L332.2 0h-72.4zm54.2 214.5c1.1 1.3 3.4 4.3 5 6.8l3.1 4.5-3.4 3.9c-1.9 2.1-5.7 8.4-8.6 14-2.8 5.6-6 11.4-7 13.1l-1.9 3 .3-6c.3-5.9.3-6 3.1-5.7 3 .4 3.6-1.3 1.5-5.1-.7-1.3-1-6.8-.9-14.7.1-11.3.4-12.7 2.2-14.3 2.8-2.3 4.1-2.2 6.6.5"/></svg>