<svg xmlns="http://www.w3.org/2000/svg" width="682.667" height="512" version="1.0" viewBox="0 0 512 384"><path d="M0 192v192h114.5c108.4 0 114.5-.1 114.5-1.8 0-.9.9-13 2-26.7 1.1-13.8 2-25.5 2-26.1s-1.8-1.9-4-2.9c-2.9-1.3-4-2.4-4-4 0-1.3-.7-2.6-1.6-2.9-2.1-.8-.8-2.7 1.4-1.9 1.6.5 1.6.5 0-1.2s-1.5-2.1 1.3-7c3-5.3 4.6-13 8.4-40.3 2-14.4 1.9-16.3-1.5-29.5-3.5-13.6-3.7-18.8-1-25.9 1.1-2.9 2-6.1 2-7.1s1.1-3.9 2.3-6.5c1.7-3.4 2.3-5.8 1.9-8.9-.3-3.4-.1-4.2 1.6-4.7 3.6-1.2 5.2-4.1 5.9-10.9l.6-6.5-4.2-4c-2.4-2.2-4.9-4.3-5.7-4.6-.9-.4-1.4-1.6-1.2-3.3.3-2.5 0-2.8-2.5-2.8-1.7 0-3.6-.9-4.5-2.1-1-1.1-2.1-2-2.5-2-.5.1-1.5-1-2.2-2.4s-1.7-2.3-2.2-2c-1.4.8-1.6-6.1-.3-13.2 1.5-8.8 5.3-14.5 13.2-20 16.5-11.6 28.6-12.3 42.1-2.4 3.8 2.7 10.1 12 12.7 18.7 2.8 7 6.5 24.9 8 37.9.6 5.8 2.2 16.3 3.5 23.5 3.1 16.2 4.5 27.2 4.6 35 0 3.3.7 12.7 1.5 21 1.2 11.9 1.3 23.6.8 56.5l-.6 41.5 3.6 18c2 9.9 3.9 18.8 4.2 19.7.5 1.7 6.1 1.8 99 1.8H512V132.2l-4.7-2.1c-5.3-2.4-12.3-6.3-16.8-9.4-5.8-4.1-17.5-14-17.5-14.8 0-.5-.3-.8-.8-.6-1 .3-6.6-6-15.1-17.3-7-9.4-18.2-30.4-19.6-36.7-.3-1.8-1.1-3.5-1.6-3.8-.5-.4-.9-1.9-.9-3.4s-.9-5.4-1.9-8.7c-2.4-7.2-3-11.9-3-25.2L430 0H0z"/><path d="M257.3 171.5c0 2.2.2 3 .4 1.7.2-1.2.2-3 0-4-.3-.9-.5.1-.4 2.3"/></svg>