<svg xmlns="http://www.w3.org/2000/svg" width="682.667" height="512" version="1.0" viewBox="0 0 512 384"><path d="M0 192v192h114.5c114.4 0 114.5 0 114.5-2 0-2.9 2.9-41.6 3.5-46.7.4-4.1.3-4.3-3.8-6.5-2.8-1.6-4.1-3-3.9-4.1.2-1-.4-2-1.3-2.3-2.3-.9-1.8-2.4.8-2.4 2.1-.1 2.1-.1.3-1.5-1.8-1.3-1.7-1.6 1.3-7 3.3-5.9 4-8.8 8.1-36.3 2.6-17.4 2.5-19.6-1-33.8-3.5-14-3.7-20.4-1-27.6 1.1-2.9 2-6.1 2-7.1s1.1-3.9 2.4-6.5c1.6-3.3 2.2-5.7 1.8-8.1-.4-3 0-3.8 3.3-6.5 3.5-3 3.8-3.6 4.2-10.1l.5-7-5.6-4.9c-4.5-3.9-5.5-5.3-5-7.1.6-2.4-1.6-4.9-2.4-2.7-.3.9-.9.9-2.4.1-2.6-1.4-7.8-6.7-7.8-7.9 0-.5-.7-.7-1.5-.4-1.2.5-1.5-.4-1.5-4.4 0-12.8 4-21.9 12.3-28.1 10.3-7.6 16.9-10.1 26.7-10.1 5.7 0 7.7.5 13.1 3.4 5.4 2.8 7.2 4.5 11.5 10.7 7.2 10.2 12.2 27.2 13.9 46.9.4 4.1 2.2 16.5 4.1 27.5 2.3 12.8 3.9 25.9 4.5 36.5.5 9.1 1.4 19.9 1.9 24 .7 4.9.8 22.4.4 51.1-.7 46.8-.9 43.9 4.7 70.6 1 5.1 1.9 9.5 1.9 9.8s44.3.5 98.5.5H512V254.5c0-113.4-.2-129.5-1.5-129.5-.8 0-3.1-1-5.2-2.3-2.1-1.2-5.3-3.1-7.1-4.2-9.3-5.5-33.2-27-33.2-29.8 0-.6-1.8-3.2-3.9-5.7-5.6-6.6-11.7-16.4-13.7-21.8-1-2.6-2-5.2-2.4-5.7-.3-.6-1.7-4.4-2.9-8.5-1.3-4.1-3.2-10.1-4.3-13.3-1.3-4-2.1-9.8-2.5-19.7l-.6-14H0z"/><path d="M257.3 172c0 2.5.2 3.5.4 2.2.2-1.2.2-3.2 0-4.5-.2-1.2-.4-.2-.4 2.3"/></svg>