<svg xmlns="http://www.w3.org/2000/svg" width="682.667" height="512" version="1.0" viewBox="0 0 512 384"><path d="M0 192v192h229v-2.3c0-1.2.7-11.2 1.5-22.2 2.1-27.9 2.2-26.1-2.2-28.3-2.4-1-3.8-2.4-3.8-3.5s-.8-2.5-1.8-3.2c-2-1.5-.8-2.8 1.7-1.9 2.1.8 2-.6-.1-2.2-1.7-1.2-1.6-1.7 1.8-8.1 2-3.7 3.9-8.6 4.3-10.8 6.6-41.6 6.7-43.4 2.1-60.5-3.1-11.7-3.2-20.8-.5-26.9 1.1-2.4 2-5.4 2-6.7 0-1.4 1.1-4.6 2.3-7.2 1.7-3.3 2.3-5.9 2-8.7-.4-3.6-.1-4.2 2.7-5.7 3.8-2.1 5-5.3 5-12.8 0-4.9-.3-6-2.3-7.2-1.2-.9-3.7-2.9-5.5-4.6-2.6-2.5-3.1-3.6-2.6-5.6.7-2.8-1.2-3.6-3.3-1.5-.7.7-1.8.1-3.6-2-1.4-1.7-3-3.1-3.5-3.1s-1.4-1.2-2.1-2.7c-1-2.2-1.4-2.4-2.2-1.2-1.4 2.2-1.1-9.7.5-16.4 1.8-7.8 5.3-12.7 13.2-18.3 11.2-8 23.7-11.1 32.1-7.9 16 6 23.8 17.5 28.8 42.5 1.3 6.3 2.6 14.9 3 19 .6 6.6 3.7 26.2 6.4 40.5.5 2.8 1.2 10.2 1.6 16.5.3 6.3 1.3 18.1 2.1 26.2 1.1 11.3 1.4 25.5 1.2 61.5l-.3 46.8 2.9 14.2 3 14.3H512V119.3l-2.7-1.3c-2.7-1.4-11.3-7-12.3-8-.3-.3-3.4-2.9-7-5.7s-9-7.7-12.1-10.9c-5.9-6.3-18.6-23-21.7-28.5-2-3.7-8.3-19.3-10.1-24.9-.6-1.9-2-6.6-3.1-10.3-1.3-4.3-2.3-11.3-2.7-18.3L439.7 0H0z"/></svg>