<svg xmlns="http://www.w3.org/2000/svg" width="682.667" height="512" version="1.0" viewBox="0 0 512 384"><path d="M0 192v192h229v-3.3c0-1.7.7-11.5 1.5-21.7 1.9-24.8 2.2-22.6-2.5-25-2.7-1.4-4-2.7-4-4.1 0-1.1-.7-2.2-1.5-2.5-2.3-.9-1.8-2.4.7-2.4 2.1 0 2.1-.1.5-1.7-1.5-1.6-1.4-2.1 2.2-8.7 4-7.3 5.9-15.5 9.2-40.1 1.4-10.4.3-22.6-3.1-33.5-2.9-9-2.9-19.9-.1-27 1.1-3 2.1-6.3 2.1-7.3s1.2-4.1 2.6-6.9 2.2-5.4 1.7-5.7c-.4-.3-.9-1.8-1.1-3.3-.2-2.1.4-3 2.7-4.3 4.7-2.4 6.1-5.2 6.1-12.4 0-6.4 0-6.4-4.7-10.8-2.6-2.3-5.1-4.3-5.5-4.3-.5 0-.7-1.5-.6-3.3.3-3 .1-3.2-2.5-2.9-2.8.3-7.3-3.4-9.9-8.1-.7-1.4-1.2-1.6-1.8-.8-1.3 2.2-2.1-1.8-1.4-7.3 1.3-11.4 3.5-16.8 8.8-22.1 9.5-9.5 23-15.2 33.6-14.2 6.9.6 15.6 5.2 20.3 10.7 9 10.7 13.3 23 16.3 47.5.9 7.1 3.1 21.8 4.9 32.5 3.5 20.2 4.4 28.4 5 43 .1 4.7.8 13.7 1.5 20 .8 8 .9 24.9.5 56l-.6 44.5 2.9 14.5 2.8 14.5 98.2.3 98.2.2V112.2l-4.3-3.1c-2.3-1.7-4.6-3.4-5.2-3.8-.5-.5-3.7-2.9-7-5.5C479.4 87.4 464.8 68 455.7 47c-4.5-10.4-9.5-29.8-10.4-40.2l-.6-6.8H0z"/><path d="M258.2 174c0 1.4.2 1.9.5 1.2.2-.6.2-1.8 0-2.5-.3-.6-.5-.1-.5 1.3"/></svg>