<svg xmlns="http://www.w3.org/2000/svg" width="682.667" height="512" version="1.0" viewBox="0 0 512 384"><path d="M0 192v192h113.9c107.7 0 114-.1 114.5-1.8.6-1.9 2.8-37.3 2.4-37.7-.2-.1-2.1-.9-4.3-1.7-3-1.2-4-2.1-4-3.8 0-1.2-.9-2.8-1.9-3.6-1.9-1.3-1.8-1.4 1.5-1.4h3.4l-2.5-2-2.5-1.9 3.3-5.8c6.8-11.9 8-15.5 10.1-29.8 2.4-17.4 1.6-33.9-2.6-49.8-3.3-12.5-3.4-21.1-.4-28.5 1.1-2.9 2.1-6.2 2.1-7.3s1.4-4.7 3.1-8c1.6-3.4 2.6-5.8 2.1-5.5s-1-1.1-1-3.3c-.1-3.4.3-4.1 3.2-5.6 4.8-2.6 6.6-6.3 6.6-13.2v-5.9l-6.4-5.9c-4.8-4.4-6.2-6.3-5.4-7.2 1.9-2.3.2-4.3-3.1-3.7-2.4.5-3.2.1-4.6-2-1-1.4-2.1-2.4-2.5-2.1s-1.6-1.2-2.5-3.2c-1.6-3.3-1.9-3.5-2.5-1.8-1.3 3.6-1.9-3.5-.9-10 2.5-15.6 8.2-23.1 23.4-30.6 7.5-3.7 9.6-4.3 16.8-4.7 7.6-.4 8.6-.2 13.9 2.6 3.2 1.7 7.3 4.2 9.2 5.7 3.4 2.6 11.3 15.1 13.5 21.5 2.2 6.3 5.2 23.3 6.6 37.5.8 7.7 1.9 16 2.4 18.5 4.2 19.4 7.1 41 7.1 53 0 4.1.6 10.6 1.2 14.5.8 4.7 1.2 25.9 1.2 65.5.1 45.3.4 59.7 1.4 63.7l1.4 5.3H512V84.1l-2.3-2.3c-1.3-1.3-2.5-2.3-2.8-2.3s-2.5-2.3-5-5c-2.4-2.8-5.7-6.4-7.2-8.1s-4-4.9-5.5-7.2c-1.5-2.2-4.8-7.1-7.3-10.9C477.6 41.9 468 20 468 16.5c0-.8-.5-2.4-1-3.5-.6-1.1-1.4-2.9-2-4s-1-3.6-1-5.5V0H0z"/><path d="M259.1 174.6c0 1.1.3 1.4.6.6.3-.7.2-1.6-.1-1.9-.3-.4-.6.2-.5 1.3"/></svg>