<svg xmlns="http://www.w3.org/2000/svg" width="682.667" height="512" version="1.0" viewBox="0 0 512 384"><path d="M0 192v192h113.9c98.8 0 114-.2 114.4-1.5.4-.8.9-8.9 1.3-18l.7-16.5-4.2-1.7c-3.6-1.4-4.2-2-3.8-4 .3-1.5-.2-2.7-1.2-3.3-1.3-.8-1.2-.9.7-1 2.8 0 2.8-1.3 0-3.2l-2.1-1.4 5-9c5.6-9.8 7.5-15.3 9.6-28.9 2.1-12.7.6-33.8-3.4-49.7-3.4-13.7-3.6-19.3-.8-26.8 1.1-3 2.4-7.3 2.8-9.5s1.7-5.8 2.8-8c1.3-2.6 1.9-5.4 1.7-8-.4-4 1.6-7.5 4.2-7.5 2.2 0 5.2-6.3 5.6-12.3l.5-5.7-5.1-5c-2.8-2.8-6-5.7-7.1-6.4-1.7-1.2-1.7-1.6-.5-3 1.1-1.5 1.1-1.9-.3-3.4-1.1-1-1.7-1.2-1.7-.4 0 2.3-3.5 1.2-5.5-1.7-1-1.6-2.3-2.7-2.7-2.5-.5.3-1.5-1.1-2.4-3.2-1.1-2.7-1.8-3.4-2.4-2.4-1.7 2.8-2.1-5.6-.5-13 2.8-13.1 9.3-20.8 23.4-27.8 6.7-3.3 8.4-3.7 16.8-4 8.6-.4 9.9-.2 15 2.3 7.6 3.8 11.4 7.4 16.2 15.5 7.1 12 9.7 22.2 13.1 51.8 1.1 9.9 2.2 18.6 2.5 19.3 2.1 6.1 7.9 49.7 6.9 52.3-.3.8.2 8.1 1.2 16.3 2 17.3 2.2 43.1.6 85.8-1 26.1-.9 29.8.6 37l1.7 8 97.3.3 97.2.2V72.7l-4.5-4.5c-2.5-2.4-4.5-5-4.5-5.7s-.6-1.5-1.4-1.8-3.1-3-5-5.9c-2-2.9-5-7.1-6.7-9.3-5.5-7.2-14.9-28.8-14.9-34.3 0-1.3-.4-2-1-1.7s-1-.3-1-1.4c0-1.2-.4-2.1-1-2.1-.5 0-1-1.4-1-3V0H0z"/><path d="M259.2 173c0 1.4.2 1.9.5 1.2.2-.6.2-1.8 0-2.5-.3-.6-.5-.1-.5 1.3"/></svg>