<svg xmlns="http://www.w3.org/2000/svg" width="682.667" height="512" version="1.0" viewBox="0 0 512 384"><path d="M0 192v192h227.7l.7-5.2c.3-2.9.6-7.3.6-9.9 0-4.5 0-4.5-5-6.6l-5-2.1 1.7-4.3c1.6-4.2 1.6-4.3-.5-5.7-1.2-.8-2.2-1.9-2.2-2.5 0-.5 2.2-4.8 4.9-9.6 3.7-6.5 5.7-11.6 8.2-21.1l3.2-12.5-.6-19c-.5-17.3-.9-20.3-4.1-33.3-2-7.9-3.6-16-3.6-18 0-4.1 2-11.4 4.4-16 .9-1.7 1.6-4.4 1.6-5.9s1.4-5.2 3-8.2c1.7-3 2.7-5.7 2.3-6-.5-.3-.9-2.3-1-4.4-.1-3.3.3-4 3.5-6.1 6.5-4.1 7.6-6 8-13.7l.4-7-4.6-4.4c-2.5-2.5-4.6-4.9-4.6-5.5s-1.1-1.6-2.5-2.2c-2.8-1.3-3-2-1.3-4.8 1-1.5 1-2.2 0-3.2-.9-.9-1.5-1-2-.2-1.1 1.8-5.1-.2-7-3.6-1.9-3.3-3.4-4-2.6-1.3.6 2.4-1.2-1.2-2.7-5.2-1-2.7-1.2-2.8-1.9-1-2 4.9-1.5-7.4.6-16 3.2-12.4 9-18.8 24.4-26.3 9.5-4.7 9.5-4.7 20-4.7h10.5l7.3 4.4c4 2.4 8.3 5.6 9.6 7.1 3.4 4.1 10.1 17.6 12 24 1.9 6.8 5.2 29.3 6.1 42 .4 5.2 2.4 19.9 4.6 32.6 2.5 14.9 4 27.8 4.4 36.5.3 7.4 1.2 19.2 2 26.4 1.9 16.3 2.2 42.1 1.1 87.3l-.9 35.2H512V15.1l-2.2-4.8c-1.3-2.7-2.7-5.1-3.3-5.5-.5-.4-.6-.8-.2-.8s.3-.9-.3-2c-1.1-2-2.1-2-253.5-2H0z"/></svg>