<svg xmlns="http://www.w3.org/2000/svg" width="682.667" height="512" version="1.0" viewBox="0 0 512 384"><path d="M0 192v192h228v-3.8c0-2 .3-5.3.6-7.3.6-3.5.5-3.7-3.2-4.9-7.5-2.4-7.6-2.6-5.8-6.8.9-2 1.8-4.2 2.1-4.8.2-.6-.7-1.4-2.1-1.8-1.4-.3-2.6-1.2-2.6-1.8s2.4-5.5 5.4-10.7c6.9-12.3 11.6-30.5 11.6-44.6 0-16.1-1.8-31.6-5.1-44-3.7-14.2-3.7-23.6.1-32 1.2-2.8 2.3-6.4 2.5-8.2s1.7-5.6 3.4-8.6c3.2-5.6 3.8-7.2 2.2-6.3-.5.3-.8-1.3-.7-3.6.2-3.5.8-4.7 3.2-6.3 5.9-4 7.4-6 8.5-12 1.4-7.6.8-9.6-4.6-14.9-2.5-2.4-4.5-4.9-4.5-5.5s-1.1-1.7-2.5-2.3c-2.8-1.3-3-2-1.3-4.8 1-1.6 1-2.3-.5-3.7-1-1.1-1.7-1.3-1.7-.5 0 2.4-4.5.5-6.8-2.8-3-4.5-3.6-5-2.8-2.3 1.5 4.7-.3 2.1-2-2.9-1.3-4.1-1.9-4.8-2.4-3.3-1.3 3.7-1.9-2.3-.9-8.6 2.5-15.3 9.2-24.7 22.7-31.7 18.1-9.4 31.5-9.5 44.8-.5 7.4 5.1 8.3 6.1 13.3 15.4 6.8 12.6 9 22.7 11.6 52.8.8 9.5 3.1 26.9 5 38.5 3 18.7 5 37.2 5.2 49.1.1 2.2.9 11.6 1.8 21 1.9 19.3 2.1 50.2.5 75.5-.5 9.1-1 21.6-1 27.7V384h190V0H0z"/></svg>