<svg xmlns="http://www.w3.org/2000/svg" width="682.667" height="512" version="1.0" viewBox="0 0 512 384"><path d="M0 192v192h107c58.9 0 107-.2 107-.5 0-.2-1.2-1.1-2.7-2l-2.8-1.6 3.7.6c4.5.7 5.7-.9 2.3-3.1-1.4-.9-2.5-2.2-2.5-2.9 0-.8 3-6.8 6.6-13.4 7.3-13.3 9.2-19.5 12.3-39.8 1.8-11.5 1.9-15 1.1-27-1.2-16.9-1.5-18.7-5.1-33.8-4-16.5-3.7-25.2 1.4-35.1.8-1.6 1.7-4.8 2-7 .2-2.3 2.1-6.9 4.1-10.3 1.9-3.4 3.2-6.1 2.7-6.1-.4 0-.8-2.2-.9-4.8-.1-4.2.3-5 2.6-6.4 1.5-.9 4.4-3.2 6.5-5.1 3.4-3.2 3.8-4.2 4.6-10.6.9-6.8.8-7.4-1.7-11.1-1.4-2.2-2.9-4-3.2-4-.4 0-2-1.9-3.6-4.3-1.5-2.3-4-5.2-5.4-6.4l-2.5-2.1 2.4-2.6 2.5-2.6-2.2-2.2c-1.9-1.9-2.2-2-2.2-.5 0 .9-.4 1.7-1 1.7-.5 0-1-.4-1-1 0-.5-.6-.7-1.4-.4-1 .4-2.2-.8-3.6-3.5-2.3-4.6-3-5.1-2.4-1.9.3 1.7.1 1.5-1-.7-.9-1.7-1.5-4-1.6-5.3 0-2.3-1.9-3.2-2.1-1 0 .7-.5 0-1-1.7-1-3.4-.1-7.6 3.9-18 5.6-14.8 20.9-25 42.5-28.5 13.1-2.1 25.4 2.5 36.3 13.7 5.3 5.4 11.8 20.7 13.9 32.9.8 4.9 2 19.2 2.5 31.9.9 21.6 2.1 33.7 5.5 56.6 1.6 10.2 3.6 36.8 3.3 43.4-.1 2.2.6 12.3 1.6 22.5 1.6 16 1.7 24.3 1.2 61.2L329 384h183V0H0z"/></svg>