<svg xmlns="http://www.w3.org/2000/svg" width="682.667" height="512" version="1.0" viewBox="0 0 512 384"><path d="M0 192v192h211.7l6.1-11.8 6.2-11.9 3.6-21.9 3.6-21.9-1-16.5c-.8-12.9-1.8-19.8-4.6-31.5-2-8.3-3.6-16.4-3.6-18.2 0-5.4 2.1-13.5 5.1-19.5 1.6-3.2 2.9-7.1 2.9-8.9 0-1.7 1.6-5.9 3.5-9.3 3.6-6.5 4.5-12.2 2.3-14.5-1.1-1-.7-1.7 1.7-3.6 14-11.2 13.7-10.6 15.1-22.8.5-4.8.4-5.7-1-5.7-.8 0-2.5-1.8-3.6-4s-2.5-4-3-4c-.6 0-1-.7-1-1.5 0-.9-.6-1.8-1.4-2.1s-1.7-1.7-2.1-3.1c-.3-1.4-1.7-3.5-3.1-4.5l-2.4-2 2-2.5c2.5-3.2 2.5-4.5.1-7.4l-1.8-2.3.5 3.3c.4 3 .3 3.2-1.4 2.3-2.5-1.3-4.7-3.9-6.7-7.7-1.3-2.4-1.6-2.6-1.7-1-.1 3.2-1.6-.2-2.5-5.4-.7-4.4-.8-4.4-2.1-2-1.2 2-1.4 2.1-1.2.4.1-1.1-.1-2.5-.5-3.2-.8-1.3 3.2-13.1 7-20.6 2.9-5.9 9.3-12.4 15.7-16.2 7.8-4.6 21.1-8.5 30.8-9.2 13.5-.9 21.1 1.7 31.7 11 7.8 6.8 10 10.1 13.9 21 5.1 14.1 6.3 24.5 6.7 57.2.3 23.1.9 33.7 2.9 51.9 1.5 12.5 2.8 30.5 3.1 40 .3 9.4 1 24.5 1.6 33.6 1.4 20.3 1.7 63.7.6 82.3l-.9 13.7H512V0H0z"/></svg>