<svg xmlns="http://www.w3.org/2000/svg" width="682.667" height="512" version="1.0" viewBox="0 0 512 384"><path d="M0 192v192h218.8l1.6-4.2c.9-2.4 3.4-13.5 5.7-24.8 4-20.1 4.1-20.8 3.4-35-.8-19.1-2.1-28.4-5.3-40.5-2.1-8.1-2.6-12.2-2.6-22 0-11.7.1-12.2 3.7-20.2 2-4.5 3.7-9.2 3.7-10.5s1.8-5.5 4.1-9.3c4.3-7.3 5.7-14 3.3-14.9-2.7-1-1.3-3.6 3.9-7.4 2.8-2.1 5.8-4.7 6.6-5.6.8-1 2.6-2.3 4.1-3.1 2.4-1.2 2.7-2.2 3.8-10.1 1.2-9.3 1.1-10.4-1.7-10.4-1.1 0-2.4-1.2-3.1-2.9-.6-1.6-2-3.7-3.1-4.7-1-.9-1.9-2.3-1.9-3.1 0-.7-.7-1.6-1.5-1.9-.8-.4-1.5-1.5-1.5-2.6s-1.4-3.3-3-4.8c-3.6-3.4-3.7-3.7-.5-6.2 3-2.3 3.1-3.5.5-6.8-1.9-2.4-2-2.4-2-.3 0 1.9-1.3 2.3-4 1.3-.3-.1-.9-.2-1.3-.1-.5.1-.6-.3-.2-.9.3-.5.2-1-.3-1s-1.5-1.8-2.2-4-1.7-4-2.1-4c-.5 0-.5.7-.2 1.7.4 1 .2 1.4-.5.9-.6-.3-1.4-3.2-1.8-6.3-.6-5.4-.7-5.5-2.1-3.2l-1.4 2.4.6-2.8c.3-1.5.1-2.7-.4-2.7-1.4 0 2.1-9.7 6.5-18.1 9.4-17.9 27.7-27.2 53.9-27.3 11.4-.1 12.3.1 18.5 3 7.4 3.5 17.6 12.5 21.9 19.4 3.8 5.8 8.7 22.1 10.2 33.5.8 6.3 1 17.5.5 37-.6 25.8-.4 30.1 2 54.5 3 29.4 3.9 60.9 3.9 128.7l-.1 39.3H512V0H0z"/></svg>