<svg xmlns="http://www.w3.org/2000/svg" width="682.667" height="512" version="1.0" viewBox="0 0 512 384"><path d="M0 192v192h220.7l2.1-8.8c1.1-4.8 3.3-14.8 4.8-22.3l2.8-13.6-1.7-21.9c-1.2-16.6-2.4-24.9-4.7-34.4-5.2-21.6-5.1-30.1.8-43 1.3-3 2.8-7.3 3.2-9.5.5-2.3 2.7-7.3 4.9-11.2 2.3-4.1 3.8-7.9 3.5-8.8-.4-.8-.1-2.2.6-3 1-1.3.9-1.9-.5-3.5-2.1-2.4-1.5-4.3 2.2-6.6 1.5-1 4.9-3.7 7.5-6.1s5.4-4.3 6.2-4.3c1.8 0 2.2-1.3 3.5-11.3 1.4-10.1 1.4-9.9-.6-9.3-2.4.7-3.7-.2-5.8-4.4-1-1.9-2.1-3.7-2.4-4-1.4-1.2-5.1-7-5.1-8.2 0-.6-1.4-2.7-3.2-4.5l-3.1-3.3 2.6-2.4c3.2-3 3.3-4.3.6-7.6-1.7-2.2-1.9-2.3-1.7-.5.2 1.2-.2 1.9-.9 1.7-.7-.1-1.3.3-1.3.9 0 1.9-4.5-3.5-6-7-.8-2.1-1.6-2.8-2-2.1-1 1.7-1.6.3-2.5-5.5-.6-4.5-.8-4.8-2.1-3.1-1.2 1.7-1.3 1.2-1-3.7.4-7.6 8-22.9 14.7-29.8 5.7-5.8 15.6-10.9 27.4-13.9 22.2-5.8 37.8-2.7 51.5 10.3 9.1 8.6 10.8 11.5 15.4 25.2l4.1 12 .1 40.5c0 34.3.4 44 2.3 63.5 2.5 25.8 3.6 64.1 3.6 125.2V384H512V0H0z"/></svg>