<svg xmlns="http://www.w3.org/2000/svg" width="682.667" height="512" version="1.0" viewBox="0 0 512 384"><path d="M0 192v192l111.2-.2 111.3-.3 3.3-12.5 3.3-12.5-.6-18.5c-.8-25.3-1.9-34.9-6.2-52.5-5.3-21.8-4.9-30.2 2.2-44.5 1.2-2.5 2.5-6.2 2.8-8.2s2.5-7 4.8-11c2.5-4.2 3.8-7.3 3.1-7.6-1.3-.4-.5-3 1.7-5.5 1.4-1.7 1.4-1.9-.2-2.8-.9-.6-1.7-1.8-1.7-2.7 0-2.2 12.9-13.8 17.5-15.7 2.1-1 3.6-2.4 3.9-3.8.6-2.6 2.6-16.2 2.6-17.4 0-.5-1.6-.7-3.5-.5-3.3.4-3.6.2-5.5-4.2-1-2.5-2.4-4.6-3-4.6-.5 0-1-.8-1-1.8 0-.9-.9-2.3-2-3s-2-2.1-2-3.2c0-1-1.4-3.5-3.1-5.5l-3.2-3.6 3.1-3c3-3 3-3 1.4-5.9-2-3.4-3.2-3.8-3.2-1.1 0 1.4-.5 1.8-2.1 1.4-1.1-.3-2.3-1.2-2.6-1.9-.3-.8-.8-1.2-1.3-.9-.4.2-1.2-1.3-1.9-3.5-1.4-4.7-3.5-6.6-2.6-2.3.5 2.1.4 2.4-.4 1.3-.6-.8-1.3-4.1-1.7-7.4-.7-5.7-.7-5.8-2.3-3.7-1.5 2-1.6 2-1.5-2.2.3-7 6.6-21.2 13.6-29.9 9.8-12.4 37.3-21.3 58.1-18.7 11.4 1.3 19.4 5.4 27.5 13.8 9.3 9.7 11.6 13.4 15 25.1 4.8 16.5 5.6 25.2 4.6 51-1.1 29.5-.6 42.1 3.6 88 .6 5.8 1 24.3.9 41.2 0 16.9.3 31.3.7 31.9.8 1.4.7 51.7-.2 61.6l-.6 7.3H512V0H0z"/></svg>