<svg xmlns="http://www.w3.org/2000/svg" width="682.667" height="512" version="1.0" viewBox="0 0 512 384"><path d="M0 192v192l111.7-.2 111.7-.3 1.3-5c3.2-12 4.5-22 3.9-31-.4-5-1.1-15.7-1.6-24-.8-11.6-1.9-18.7-5.1-32-3.6-14.8-4.1-18.1-3.7-25.5.4-7.1 1-9.9 4.2-17 2.1-4.7 4.1-10.1 4.5-12.1.5-2 2.4-6.6 4.4-10.2 2.2-4 3.4-7.3 3-8.6-.3-1.2.4-3.2 1.6-4.9l2.1-3-2.2-1.4c-2.2-1.4-2.2-1.6-.5-4.1.9-1.5 3-3.3 4.5-4.1s4.5-3.3 6.6-5.5c2.2-2.2 5.2-4.3 6.7-4.6 1.6-.4 3.2-1.1 3.5-1.7.4-.5 1.2-5.5 1.8-11l1.2-10-3.3.7c-3 .5-3.5.3-5.1-2.6-.9-1.7-2.7-4.4-4-6s-2.1-3.3-1.7-3.9c.3-.5-.1-1-.9-1-.9 0-2-1.6-2.7-4-.7-2.2-2.3-4.7-3.6-5.5-3-2-2.9-3 .7-6.7l3-3-2.2-3.1c-2.1-2.9-2.3-2.9-2.8-1.1-.4 1.8-.9 1.9-3.7 1.2-1.8-.5-3.2-1.2-3.1-1.6s-.4-2.1-1.1-3.7c-.7-1.7-1.7-3.9-2.1-5-.8-1.7-.9-1.6-1 1l-.1 3-1-2.5c-.6-1.4-1.1-4.9-1.2-7.7-.1-2.9-.3-5.3-.4-5.3s-.9 1.2-1.8 2.7l-1.6 2.8.6-2.8c.3-1.5.1-2.7-.4-2.7-1.5 0 4.7-15 9.5-22.6 2.4-4 6.2-8.8 8.4-10.8 12-10.8 39.4-17.8 57.6-14.7 10.5 1.9 18.1 6 26.4 14.4 9.3 9.4 11.1 12.7 15.7 27.7l3.8 12.5.1 44.5c0 37.3.4 48.3 2.2 68 1.9 20.7 2.2 31.2 2.4 88.7l.3 65.3H512V0H0z"/></svg>