<svg xmlns="http://www.w3.org/2000/svg" width="682.667" height="512" version="1.0" viewBox="0 0 512 384"><path d="M0 192v192h112.4c95.9 0 112.5-.2 112.9-1.4.3-.8 1.1-5 1.7-9.3 1-6.2.9-12.8-.3-32.8-1.4-22.9-1.9-26.2-5.2-39-6.3-24-6-36.7 1.6-51.7 1.6-3.1 2.9-6.9 2.9-8.3s1.8-5.9 4.1-10c2.2-4.1 3.6-7.5 3-7.5-1.9 0-1.2-2.1 2-6.1l3.1-3.9-2.2-1.8c-1.9-1.5-2.1-2.2-1.1-3.9.6-1.2 2.5-3.2 4.2-4.4 1.8-1.2 5-4.1 7.3-6.4 2.3-2.2 5.7-4.5 7.6-5.1 3.9-1.1 4.3-2.3 5.5-15.6l.7-7.7-2.8.8c-4.1 1.1-5.3.4-7.5-4.5-1-2.5-2.5-4.7-3.4-5-.8-.4-1.5-1.3-1.5-2.1s-.9-2.6-2-4-2-3.3-2-4.2-1.4-2.8-3.2-4.3l-3.3-2.7 3.3-3c1.7-1.6 3.2-3.3 3.2-3.7s-1-2.3-2.2-4.3l-2.3-3.6-.6 3-.5 3-1.7-3.5-1.7-3.5.6 3.4c.6 3.2.6 3.3-1.3 1.4-1-1-2.7-4.1-3.8-6.8-1.7-4.6-1.9-4.8-2.5-2.5s-.8 2.1-1.5-1.5c-.5-2.2-.9-5.7-.9-7.7l-.1-3.8-1.5 2.5c-4.8 8-2.1-5.7 3.3-17 7.7-15.8 13.6-22.1 25.7-27.7 22-10.2 51.6-10.5 65.5-.8 4.5 3.2 17 15.8 20.2 20.5 1.1 1.6 3.8 9.1 5.9 16.5l3.9 13.5.1 45.5c.1 39.9.4 48.1 2.4 67 1.8 16.2 2.4 29.1 2.7 52.5.2 17.1.6 46.9.9 66.2l.7 35.3H512V0H0z"/></svg>