<svg xmlns="http://www.w3.org/2000/svg" width="682.667" height="512" version="1.0" viewBox="0 0 512 384"><path d="M0 192v192h225.8l.6-3.1c.8-4.4.7-21.4-.4-41.4-.8-16.6-2.3-25.4-7-42.5-4.5-16.4-3.7-30.1 2.6-42.7 1.9-3.7 3.4-7.7 3.4-8.9 0-1.3 1.8-5.8 4-10 3.1-6 3.7-8 2.8-9.1s-.6-2 1.3-4.1c5.3-5.8 5.4-6.1 3.1-8.2-2.8-2.7-1.8-5.5 3.2-8.9 2.2-1.6 5.7-4.5 7.6-6.5s5.1-4.1 7.1-4.6c4-1.1 4.1-1.3 5.5-15.8l.7-7.2h-4.2c-4 0-4.3-.2-6-4.3-1-2.3-2.6-4.8-3.5-5.6-.9-.7-1.6-2.1-1.6-3.1s-.6-2-1.3-2.3-1.9-2.3-2.5-4.5c-.7-2.4-2-4.3-3.1-4.7-3.4-1-3.4-3.6-.1-6.6 1.6-1.5 3-3.1 3-3.4s-1.1-2.2-2.4-4.2c-2.3-3.3-2.4-3.4-2.8-1.2-.4 3.3-2.2 2.9-2.9-.7l-.7-2.9-.1 3-.2 3-2-2.4c-1-1.3-2.5-4.4-3.1-6.9-1.1-4.3-1.2-4.4-2.1-2.1-.9 2.1-1.1 1.5-2.1-4.6-1.1-6.9-1.1-6.9-2.8-4.5-1.6 2.5-1.6 2.5-1.4-2 .4-6.4 5-17 11.8-27.2 4.5-6.6 7.2-9.6 11.8-12.7 15.1-10 42-15.5 58.1-11.7 10.9 2.5 17.6 6.3 26 14.6 10.6 10.6 13.1 14.7 16.9 28 5.7 20.4 6.8 35.4 4.9 72.1-1.1 21.7-1 26.6.5 41.5 5.2 53.3 5.8 61.8 5.4 84.9-.2 12.6-.2 36.6 0 53.2l.2 30.3h158V0H0z"/></svg>