<svg xmlns="http://www.w3.org/2000/svg" width="682.667" height="512" version="1.0" viewBox="0 0 512 384"><path d="M0 192v192h225.9l.6-2.2c.9-2.6-.2-37.6-1.6-51.3-.5-5.5-2.5-15.6-4.4-22.5s-3.9-15.6-4.6-19.4c-2-11.7.3-23.8 6.7-34.9 1.3-2.3 2.4-5.5 2.4-7.1s1.8-6.2 4.1-10.2c3.1-5.7 3.7-7.4 2.5-7.4-2.6 0-1.9-1.6 3-7.1 4.3-4.8 4.5-5.3 2.7-6-2.9-1-3.5-3.5-1.5-5.7 5.4-6 14.6-13.6 17.9-14.7 4.4-1.5 4.8-2.5 5.8-15.3l.7-9-3.9.5c-3.8.5-3.9.4-6.2-4.5-1.3-2.8-3-5.3-3.7-5.6-.8-.3-1.4-1.2-1.4-2.1 0-.8-.9-2.4-2-3.5s-2-2.9-2-4-1.4-3.2-3-4.7c-3.5-3.1-3.8-4.8-1-6.3 4-2.1 4.3-4.6 1.1-9.1-2.9-3.9-3-3.9-2.8-1.3.1 1.5-.4 2.9-1 3.1-.9.3-1.3-.5-1.3-2.4 0-1.5-.5-3.5-1.1-4.3-.7-1.1-.9-.3-.4 3 .6 4.5.6 4.5-1.3 2.3-1-1.1-2.7-4.7-3.8-8l-1.8-5.8-.6 3.5-.6 3.5-.7-3.4c-.4-1.8-.7-5.7-.7-8.5l-.1-5.1-1.7 3-1.7 3-.3-3.4c-.2-1.8.2-4.7.9-6.5 6.5-16.3 13.8-27.9 20.8-33 19.7-14.5 55.7-18.5 75.5-8.4 4.1 2.1 18 15.5 23 22.1 1.5 2.1 3.5 6.2 4.3 9 .8 2.9 2.7 9.2 4.1 14.2l2.6 9 .2 48.5c.1 44 .4 51 2.7 75.5 1.8 18.7 2.6 33.5 2.7 48 0 11.6.1 22.8.1 25s.4 11.2.9 20c.6 8.8 1 23.5 1 32.7V384h155V0H0z"/></svg>