<svg xmlns="http://www.w3.org/2000/svg" width="682.667" height="512" version="1.0" viewBox="0 0 512 384"><path d="M0 192v192l113.3-.2 113.2-.3-.3-15c-.4-21.3-2-42.1-3.6-48.5-.8-3-2.8-10.9-4.6-17.5-5.2-19.8-4.4-29.6 3.6-45.7 1.9-3.7 3.4-7.8 3.4-9.2 0-1.3 1.6-5.2 3.5-8.6 3.9-6.9 4.2-8 2-8-1.8 0-2-1.6-.3-2.7 2-1.2 8.8-9.2 8.8-10.2 0-.5-.9-1.1-2-1.4-3.4-.9-2.6-5.2 1.7-8.4 2-1.5 5.5-4.6 7.8-6.8 2.2-2.3 5.6-4.5 7.4-5.1 4.1-1.1 4.7-2.6 5.7-15.4l.6-8.8-4 .5-4 .5-2.2-5c-1.2-2.8-2.8-5.3-3.6-5.6s-1.4-1.2-1.4-2.1c0-.8-.9-2.4-2-3.5s-2-2.9-2-4.1c0-1.1-1.7-3.5-3.7-5.4l-3.8-3.4 3.9-3.5 3.8-3.5-2-2.8c-1-1.5-2.4-3.7-3.1-4.8-1-1.7-1.1-1.6-.5 1.3.5 2.9.3 3.3-1.3 3-1.2-.2-2-1.5-2.4-3.8l-.6-3.5-.2 3.2c0 1.8-.5 3.3-1 3.3-.9 0-4.2-7.7-5.4-12.5-.4-1.5-.5-1.4-.6.7-.2 4.5-2.1 3.2-2.2-1.5-.1-2.3-.4-5.6-.8-7.2l-.7-3-1.7 3-1.6 3 .4-4.5c.7-8.9 10.6-28.7 18.3-36.6 5.4-5.6 11.3-8.8 23.4-12.9 14.6-4.9 29.3-6.4 40.9-4.3 12.6 2.3 19 5.8 28.4 15.2 13.6 13.7 14.2 14.7 19.2 33.6 4.5 17 5.6 35.2 4.1 65.9-1.6 32.2-1.7 31.3 2 69.6 3.3 34 4.5 67.1 4.7 125.3V384H512V0H0z"/></svg>