<svg xmlns="http://www.w3.org/2000/svg" width="682.667" height="512" version="1.0" viewBox="0 0 512 384"><path d="M0 192v192h226v-11.8c0-19.2-1.8-42.2-4-50.3-1-4.1-3.1-11.7-4.5-16.9-5.1-18.6-4.4-29.8 2.7-43.7 2.1-4.1 3.8-8.9 3.8-10.6.1-1.9 1.7-5.9 4-9.7 3.5-5.9 3.7-6.5 1.9-6.8-2.7-.5-2.4-1.3 2.2-5.7 2.2-2.2 5-5.2 6.1-6.7l1.9-2.8-2.5-1c-3.4-1.3-3.4-4.5 0-7.3 1.5-1.2 5.2-4.5 8.3-7.3s6.9-5.6 8.6-6.1c3.3-1.1 3.7-2.4 5-16.4l.7-7.6-3.9.1c-3.6.1-3.9-.1-6.1-4.7-1.3-2.6-2.9-5-3.7-5.4-.8-.3-1.5-1.3-1.5-2.3 0-.9-.8-2.5-1.9-3.4-1-.9-2.1-3-2.5-4.6-.3-1.7-2-4.3-3.7-5.8l-3.2-2.9 3.6-3.2 3.5-3.3-3-4.9c-3.5-5.5-4.2-6.1-2.7-2.2.6 1.6.6 3 0 3.6-1.5 1.5-3.1-.1-3.1-3.1 0-1.5-.5-3.4-1-4.2-.7-1.1-.9-.2-.5 3 .3 2.5.2 3.9-.1 3.2-.3-.6-.9-1-1.3-.7-.8.4-4.1-8.5-4.1-11.1 0-.8-.5-1.4-1.1-1.4-.7 0-.8 1.1-.4 3 .4 1.7.2 3-.3 3-.9 0-2.1-7.6-2.2-14-.1-3.7-.2-3.6-3.7 1.7-2.3 3.3-.2-6.6 2.9-14.1 9.5-23.1 19.7-33.2 40.1-39.5 18.1-5.6 34.6-6.3 48.1-2.1 9.3 2.9 13.6 5.8 22.9 15.4 9.9 10.1 12.7 14.3 15 22 7.2 24.7 8.2 34.8 7.1 72.1-1.2 44.7-1.3 42.3 3.1 86.5.9 8.6 1.8 28.8 2 45.5.2 16.5.9 36.7 1.4 45 .6 8.2 1.1 20.5 1.1 27.2V384h151V0H0z"/></svg>