<svg xmlns="http://www.w3.org/2000/svg" width="682.667" height="512" version="1.0" viewBox="0 0 512 384"><path d="M0 192v192h226.3l-.7-18.3c-.9-23.5-2-31.3-6.3-46.1-5.3-18-5.5-19.2-5.6-30.1-.1-10.8 1.6-16.9 7.3-26.6 1.8-2.9 2.6-5.5 2.3-7.1s.8-4.7 3.1-9c4.1-7.3 4.2-7.8 2.1-7.8-2.5 0-1.8-1 4.4-6.9 6.4-6 8.6-10.7 5.7-12.3-.9-.5-1.6-1.8-1.6-3 0-2.5 12.2-14.6 16.6-16.4 3.5-1.5 3.5-1.5 5-18.2l.6-7.2-3.3.2c-3.1.3-3.6-.1-5.4-3.8-1.1-2.3-2.8-5.1-3.7-6.1-1-1.1-1.8-2.4-1.8-3 0-.5-.9-1.8-1.9-2.7-1-1-2.2-3.2-2.5-5-.4-2-1.8-4.1-3.6-5.5-3.4-2.5-3.8-4.4-1.2-6.3 1-.7 2.7-2.7 3.7-4.3 1.1-1.7 1.5-2.7 1-2.2-.4.4-1.7-.1-2.7-1-2.1-1.9-4.8-2.6-4.8-1.2 0 .5-.4.9-1 .9-.5 0-1-.6-1-1.4s-.4-1.8-1-2.1-.7.1-.4.9c.7 1.9-.9 2.1-2.4.3-.6-.7-1.7-3.4-2.4-6-1-4-1.4-4.5-2.4-3.3-.9 1.3-1.3.5-2.3-4-.7-3.1-1-7.2-.7-9.2l.7-3.7-2.6 4.2c-3 5-3.8 5.4-2.9 1.5 2.8-12.1 12.3-31.5 19.6-39.6 11.7-13.1 45.9-22.5 68.5-18.7 11.4 2 19.6 6.5 29.4 16.2 4.6 4.6 9.8 10.2 11.5 12.4 4.7 5.9 9.7 22.2 12.6 41 1.5 9.2 1.5 60.7.1 77.5-.9 10.6-.7 13.6 3.2 53.5 1 9.3 2.1 32.5 2.5 51.5s1.4 44.3 2.1 56.2l1.3 21.8H512V0H0z"/><path d="M229.1 128.6c0 1.1.3 1.4.6.6.3-.7.2-1.6-.1-1.9-.3-.4-.6.2-.5 1.3m9.9 3.1c0 .4.5 1.5 1 2.3.8 1.3 1 1.3 1-.2 0-.9-.4-2-1-2.3-.5-.3-1-.3-1 .2"/></svg>