<svg xmlns="http://www.w3.org/2000/svg" width="682.667" height="512" version="1.0" viewBox="0 0 512 384"><path d="M0 192v192h226v-13.4c0-19.3-1.6-31.9-5.6-45.9-6.4-21.8-6.7-23-6.7-33.2 0-11.1 1.3-16.2 6.8-25.6 2.2-3.7 3.1-6.5 2.8-8.1s.7-4.8 2.9-8.9c1.8-3.5 3.4-6.7 3.6-7.2.2-.4-.6-.7-1.7-.7-3.2 0-2.6-1.3 2.4-5 4.6-3.4 9.5-10.7 9.5-14 0-1-.7-2.3-1.5-3s-1.5-1.7-1.5-2.2c0-1.3 13-13.7 16.1-15.3 2.9-1.5 3.3-3.1 4.5-17.8l.7-7.7h-3.2c-2.8 0-3.4-.5-4.7-3.8-.9-2-2.7-4.9-4.1-6.4-1.4-1.4-2.2-3.1-1.9-3.6s-.5-1.7-1.9-2.6c-1.5-1-2.5-2.6-2.5-4.1s-1.3-3.6-3.5-5.6c-4-3.7-4.4-5.5-1.4-6.4 1.1-.4 3-2.7 4.2-5.1 2-4.3 2-4.5.3-6.2-1.8-1.6-1.8-1.6-.6.7 1.6 3.2-.3 5.4-2.4 2.6-1.6-2.3-4.6-2.9-4.6-.9 0 2.7-2 1.4-2.1-1.4-.1-2.2-.2-2.3-.6-.5-.7 3.5-2.9 1.7-4.9-4.3-1.8-5.4-3.3-6.9-3.5-3.7-.2 3-2.7-7.9-2.8-12.2l-.1-4-2.5 4c-2.4 3.8-2.5 3.9-1.9 1 2.8-14 11.5-32.1 19.7-41.1 4.6-5 7.7-7.3 14.1-10.4 17.5-8.4 42.7-12.2 57.9-8.6 11.4 2.7 16.7 5.8 27.5 16.4C344.4 81.2 347 84.9 350.3 95c7.4 22.5 9.3 40.5 8.1 77.5-1.3 37.7-1 52.6 1.6 79 1.3 14.3 2.3 33.4 2.6 50.5.4 24.7 1 39.5 3 71.8l.7 10.2H512V0H0z"/></svg>