<svg xmlns="http://www.w3.org/2000/svg" width="682.667" height="512" version="1.0" viewBox="0 0 512 384"><path d="M0 192v192h226.9l-.5-11.2c-1.4-35.6-.9-32.3-8.9-59.2-5.9-19.8-4.9-33.4 3.4-47.9 2-3.6 2.8-6 2.4-7.9-.4-2 .6-4.6 3.5-9.8 4.1-7 4.1-7 1.6-7-3.5 0-3-1 2.7-5.3 7.4-5.8 10.6-13.1 7.7-17.7-1.1-1.8-.5-2.7 5.7-9 3.8-3.8 7.5-7 8.2-7 .8 0 1.7-1 2.2-2.2 1.3-3.2 3.4-21.8 2.6-22.6-.3-.4-1.6-.7-2.8-.7-1.6 0-2.9-1.3-4.7-4.8-1.4-2.7-3.3-5.3-4.2-5.8-1-.6-1.8-1.8-1.8-2.8s-.9-2.6-2-3.6-2-2.7-2-3.8c0-1-1.6-3.4-3.5-5.1-4-3.7-4.3-4.9-1.7-6.8 1-.7 2.7-2.5 3.6-4 1.5-2.4 1.6-2.8.3-2.8-.8 0-2-.7-2.7-1.5-.7-.9-1.5-1.3-1.8-1s-1.2-.1-2-.8c-1.3-.9-1.4-.9-.8 0 .4.7.3 1.3-.3 1.3-.5 0-1.4-1.2-2-2.8l-1.1-2.7.3 3.3c.3 3 .2 3.2-1.2 1.7-.9-.9-2.6-4.4-3.8-7.8l-2.1-6.2-.2 4c-.1 3.7-.2 3.8-1.1 1.5-.6-1.3-1.3-6-1.6-10.4l-.6-7.9-2.1 3.9c-3.1 6-3.2 1.9-.1-7.2 4.3-12.8 12.1-27 18.4-33.4 11-11.2 34.4-19 56.9-19 19.3 0 27.6 3.6 42.5 18.4 5.7 5.6 11.1 11.3 12 12.6 2.6 4 6.5 15.9 9.1 27.6 4.2 18.5 5 31.7 4 62.4-1.2 38.2-1 52.1 1.6 78 1.4 14.9 2.3 32.4 2.6 51.5.2 15.9.9 36.2 1.4 45 .6 8.8 1 20.6 1 26.2V384h147V0H0z"/><path d="M238 132.8c0 .5.7 1.5 1.5 2.2s1.5.8 1.5.2c0-.5-.7-1.5-1.5-2.2s-1.5-.8-1.5-.2"/></svg>