<svg xmlns="http://www.w3.org/2000/svg" width="682.667" height="512" version="1.0" viewBox="0 0 512 384"><path d="M0 192v192h227.5l-.3-11.8c-.5-22.8-2-34.3-5.8-46.9-6.2-19.8-6.5-21.5-7.1-30.9-.6-10.5.9-17 6.3-27.4 2.1-4 3.2-7.3 2.8-8.6-.3-1.3.9-4.9 3.4-9.7l4-7.7h-2.4c-3.5 0-3-1.1 2.6-5.3 6.6-4.9 9.4-10.5 8.6-16.7l-.6-4.7 6.3-5.9c3.4-3.2 7-6.4 7.9-6.9 1.2-.7 2-3.5 2.7-10 1.5-12.7 1.5-15.6-.4-14.9-2.1.9-4.4-1.3-6.2-5.8-.8-2.1-2.4-4.3-3.4-4.9-1.1-.5-1.9-1.7-1.9-2.7 0-.9-.9-2.3-2-3-1.2-.7-2-2.3-2-3.8 0-1.7-1.2-3.6-3.5-5.7-4.1-3.6-4.3-5.1-1.1-7.2 3.4-2.3 5.2-6.9 3.7-9.8-.9-1.9-1-1.9-.6-.2.2 1.1.1 2.6-.4 3.4-.7 1-1.2.8-2.5-1-.9-1.4-1.6-1.8-1.6-.9 0 1-.5.8-1.6-.6-1.3-1.6-1.5-1.6-1-.2.3 1 .1 1.8-.4 1.8s-1.3-1.2-1.7-2.8l-.7-2.7-.6 3c-.7 3-.7 3-3.3-2.5-1.5-3-2.7-6.4-2.7-7.5-.1-1.8-.2-1.7-1.4.5l-1.4 2.5-.7-3.5c-.3-1.9-.6-4.6-.7-6 0-1.4-.2-3.8-.5-5.5l-.5-2.9-2.1 3.9c-1.1 2.2-2.2 3.5-2.4 2.8-.7-1.9 5.3-18.5 9.8-27.4 9-17.9 16.7-24.4 36.7-30.9 12.6-4.1 27-6.3 35.6-5.6 17.3 1.6 24.8 5.2 38.9 19.1 11.3 11.2 12.3 12.6 15.6 22 8.1 22.7 10.6 44 9.4 79.5-1.2 36.7-.8 53.5 1.6 79.4 1.3 14.2 2.3 34.2 2.7 52.5.3 16.3.9 37.7 1.5 47.5.5 9.9.9 21.2.9 25.3v7.3h147V0H0z"/></svg>