<svg xmlns="http://www.w3.org/2000/svg" width="682.667" height="512" version="1.0" viewBox="0 0 512 384"><path d="M0 192v192h231l.6-2.7c.9-3.6-1.4-34.1-3.2-42-.7-3.5-3.5-12.4-6-20-7.5-22-7.5-34.5-.3-49.9 2.2-4.7 3.2-8.1 3-10.6-.2-2.8.8-5.6 3.9-11.2l4.1-7.5-3.8-.3-3.7-.3 6.5-5.2c5.7-4.5 6.8-6 8.3-10.6.9-2.9 1.4-6 1.1-6.8-.6-1.7 3.8-7.9 8.6-12.1 2.8-2.4 3.2-3.4 4-11 .4-4.5 1.1-10.2 1.4-12.6.3-2.6.1-4.1-.5-3.7-1.7 1-4.7-1.3-5.9-4.5-.5-1.7-3-5.4-5.4-8.3-2.5-2.9-4.8-6.6-5.2-8.4-.3-1.8-1.4-3.5-2.4-3.8s-2.6-1.4-3.6-2.5c-1.7-1.8-1.6-2 1.9-5.3 2-1.9 3.6-4.2 3.6-5.2s-.3-1.5-.7-1.2c-.3.4-1.7-.3-3-1.5s-2.3-1.6-2.3-.9-.4.9-1 .6c-.5-.3-1-.1-1 .4 0 2.3-1.8.9-2.8-2.2l-1.2-3.2.5 3.2c.2 1.8 0 3.3-.5 3.3-1.1 0-5.9-10.2-6.1-12.9-.1-.9-.5-.3-.9 1.4l-.7 3-1.1-2.8c-.7-1.5-1.5-5.5-2-9l-.8-6.2-2.2 4c-1.9 3.5-2.1 3.7-2.1 1.5-.1-3.6 5-19.3 9.2-28.2 6.4-13.9 13-20.9 25.2-26.7 26-12.5 52.2-14.4 70.2-5.3 4.2 2.2 20.5 16.6 25.3 22.3 5.8 7.1 12.2 27.9 15.1 49.4 1.9 13.7 2.1 18.1 1.5 49.8-.3 20.9-.2 38.6.4 44.5 4.3 41.2 5 52.6 5 81.1 0 31.5 1.2 58.4 3.2 71.8l1.2 8.3H512V0H0z"/></svg>