<svg xmlns="http://www.w3.org/2000/svg" width="682.667" height="512" version="1.0" viewBox="0 0 512 384"><path d="M0 192v192h114.5c63 0 114.5-.3 114.5-.8 0-.4.7-4.7 1.5-9.7 2.8-17 1.2-30.2-6-49.4-9.1-24.5-9.6-36.9-2.4-53 1.8-3.9 2.9-8.1 2.9-10.8 0-3.1 1.1-6.6 4-12.3l4-7.9-4.1-.3-4-.3 6.9-5.7c5.5-4.5 7.3-6.7 8.6-10.3.8-2.5 1.3-5.2.9-6.1-.5-1.3 5.2-9.4 8.4-11.9.7-.6 2-5.5 2.8-10.9 2-13.4 2-15.3-.5-16.1-1.1-.4-3.1-2.8-4.5-5.4-1.3-2.7-3.1-5.1-4-5.4-.8-.4-1.5-1.3-1.5-2.1 0-.9-.9-2-1.9-2.6-1.1-.5-2.2-2.3-2.6-3.9-.3-1.7-2.1-4.1-4.1-5.6-3.8-2.9-4.3-4.9-1.6-6.4 1-.5 2.7-2.8 3.7-5.1 1.8-3.9 1.8-4.2.1-5.8s-1.8-1.6-.9.3c1.6 3.2.5 5-1.9 2.9-2.4-2.3-4.8-2.6-4.8-.8 0 2.8-1.7 1.3-2.8-2.4-1-3.3-1-3.4-.6-.5.3 1.8.1 3.3-.4 3.3-1.2 0-6.2-9.3-6.2-11.5 0-.8-.4-1.5-.9-1.5s-.8 1.5-.6 3.2c.8 6.4-1.4.2-2.8-7.8l-1.4-7.9-2.1 4c-2.7 5.2-2.8 2.6-.2-8.1 2.3-9.8 8.3-24.1 12.8-30.7 9.7-14 35.1-25.3 59.2-26.4 22.2-1 32.2 3.4 52.2 23.4 8 8 15.2 28.2 18.7 52.8 2 13.4 2.2 18.7 2 51.5-.1 20.1.1 38.1.5 40 3.1 17 7.4 91.5 5.7 98-.4 1.4-.2 10.8.4 21 1.1 16.7 1.6 19.8 5.1 31.7l3.8 13.3H512V0H0z"/></svg>