<svg xmlns="http://www.w3.org/2000/svg" width="682.667" height="512" version="1.0" viewBox="0 0 512 384"><path d="M0 192v192h225.5l2.4-17.8c1.3-9.8 2.2-19.8 1.9-22.3-.3-2.4-2.9-10.6-5.7-18.2-5.4-14.6-8.1-25.1-8.1-32 0-5.2 2.6-15.7 5.6-22.5 1.8-4.1 2.1-5.8 1.4-7.8-.8-2-.2-4.2 3.5-12.1 2.5-5.3 4.5-9.8 4.5-10.1 0-.2-1.8-.2-4 .2-2.2.3-4 .2-4-.3s3.2-3.7 7-7.1c6.7-6 10.6-11.9 9.6-14.6-.4-1.2 3.1-7.1 6.5-10.9 1.2-1.3 2.1-4.9 2.8-10.5 1.5-12 1.4-17.7-.4-18.3-.8-.4-2.1-2.1-2.9-3.9-.7-1.8-3.4-5.5-6-8.3-2.5-2.7-4.8-6.2-5.2-7.8-.3-1.6-1.5-3.2-2.8-3.7-1.2-.4-2.7-1.5-3.4-2.3-1.3-1.5-.7-4.7.9-4.7 1.1 0 4.2-6 3.5-6.8-.3-.3-.6.1-.6.8 0 .9-.6.8-2-.5-2.3-2.1-5-2.8-5-1.4 0 .5-.4.9-1 .9-.5 0-1-.8-1-1.8 0-1.4-.2-1.4-.9-.3-1.2 1.9-3.5-.3-6.1-6.1-1.1-2.4-2-3.5-2-2.6 0 1-.4 1.8-.9 1.8-1 0-3.1-7.8-3.1-11.8 0-4.3-1.2-4.7-3.2-1l-1.7 3.3-.1-3.4c0-3.8 2.3-13.3 5.1-21 7.1-19.2 13.8-27.1 30-34.9 30.7-14.9 59.7-14.8 76.3.4 2 1.9 5.2 4.4 7 5.7 11.9 8 20.6 27 25.8 56.2 2 11.8 2.3 16.3 2.4 49.5.2 33.4.5 39.1 3.5 67.5 2.9 27.9 3.2 34.4 3.4 65.5l.2 34.5 5 12c2.8 6.6 6.1 15.7 7.3 20.3l2.2 8.2H512V0H0z"/></svg>