<svg xmlns="http://www.w3.org/2000/svg" width="682.667" height="512" version="1.0" viewBox="0 0 512 384"><path d="M0 192v192h105c57.8 0 105-.3 105-.7s1.6-11.9 3.6-25.6l3.5-24.8-3.5-8.2c-4.6-10.9-7-22.4-6.3-29.7.4-3.1 2-9.6 3.7-14.3 2.3-6.7 2.8-9.2 2-10.6-1.6-3.1-1.2-4.8 3-13.8 2.2-4.7 4-8.7 4-8.9s-1.2.1-2.6.6c-3.2 1.2-6.4 1.3-6.4.1 0-.5 4-5.3 8.8-10.8 12.2-13.6 13.8-17.1 16.4-35.1l2.1-14.7-2.6-4c-2.4-3.8-4.7-6.7-10.2-12.8-1.4-1.5-2.5-3.7-2.5-4.7 0-1.1-1.2-2.6-2.8-3.4s-3.5-2.2-4.2-3.1c-1.2-1.4-1-2 1.3-4.1 3.3-3 3.3-3.5.4-6.2-2.8-2.7-5.2-2.9-4.3-.5.6 1.5.4 1.5-1.4-.2-1.1-1-2-1.3-2-.7 0 2.7-3.2-.4-5.7-5.5-2.2-4.5-2.8-5.2-3.4-3.7-.6 1.7-.8 1.6-1.8-1-.6-1.6-1.5-5.2-1.9-8l-.8-5.1-2.2 4-2.2 4 .1-4.5c.4-13.6 8.3-35.7 15.9-44.4 10-11.3 33.3-22.1 53.7-24.7 7.5-.9 10.3-.8 17.7.6 10.1 1.8 14.4 3.7 23.5 10.4 11.5 8.3 16.8 13.8 20.1 21 12.1 25.6 15.2 44 15.5 92.6.2 22 .8 37.8 1.9 47.5 2.9 26.9 4.5 47.4 5.2 68l.7 20.5 10.5 18.4c9.5 16.5 14.2 26.4 19.6 41.4l1.8 4.7H512V0H0z"/></svg>