<svg xmlns="http://www.w3.org/2000/svg" width="682.667" height="512" version="1.0" viewBox="0 0 512 384"><path d="M0 192v192h88.5c48.7 0 88.5-.2 88.5-.4s1.5-8.4 3.4-18.3c3.9-20.3 12.9-54.4 17.9-68.1 1.9-5.1 3.1-9.5 2.6-9.8-1.3-.8-1.1-6.8.3-10.1.6-1.5 2.6-5.3 4.4-8.3 4.3-7.2 13.2-41.6 17.9-69.3 1.7-9.8 1.7-9.9-.4-11.3-1.2-.9-2.8-3.1-3.6-5s-2.5-3.8-3.9-4.4c-1.4-.5-2.9-1.7-3.4-2.7-1.3-2.4-.3-7.2 1.9-9.4 2.1-2.1 2.5-4.4.9-5.4-.6-.3-1-.1-1 .4 0 .6-.6 1.1-1.4 1.1s-1.8.5-2.2 1.2c-.5.7-.2.8.7.3 1.1-.6 1.2-.5.1.6-.9 1-1.7 1.1-3 .3-1-.6-2.9-.8-4.4-.3-1.6.4-2.8.4-2.8 0 0-.3-1.6-3-3.5-6-1.9-2.9-3.5-5.9-3.5-6.6 0-.8-.6-2-1.4-2.7-.7-.8-1.7-3.7-2.1-6.5-.8-5.9-2.5-6.2-4.6-1-1.2 3.1-1.2 3.1-1.7.8-.7-4.3 1.8-14.2 7.4-28.5 6.2-15.8 10.9-24.2 16-28.4 8-6.7 30.8-16.6 43.8-19.2 8.1-1.6 21-1.7 27.6-.1 9.6 2.4 18.8 7.6 34.6 20 10.7 8.3 19.9 29.3 23.4 53.3 2.5 17.1 2.2 31.4-1.7 70.8-2.5 25.9-2.5 25.9-.7 61.3.6 11.1.8 11.9 3.6 15.4 1.6 2.1 3.3 4 3.6 4.3.4.3 4.1 4.3 8.2 9 7.4 8.4 25.2 28.1 29.8 33 10.6 11.2 28.5 36.9 31.8 45.6l1.7 4.4H512V0H0z"/></svg>