<svg xmlns="http://www.w3.org/2000/svg" width="682.667" height="512" version="1.0" viewBox="0 0 512 384"><path d="M0 192v192h155.9l1.1-4.3c3.7-13.8 5.5-19.3 11.8-36.3 3.8-10.4 11.8-28.8 17.7-40.9s11.8-24.9 13.2-28.5c4-10.5 14.8-47.4 18.3-62.5 1.7-7.6 3.3-14.2 3.6-14.6.8-1.4-.9-3.9-4.1-5.7-4.5-2.7-5.5-7.9-2.4-12.2 2.7-3.5 2.2-4.2-3.2-4.7-3.5-.4-4.1-.2-3.6 1.1.8 2-.3 2-3.1 0-2-1.4-2.2-1.4-2.2.1 0 .9-.6 1.5-1.2 1.3-1.6-.6-7.7-10.8-7.8-13 0-.9-.7-2.4-1.6-3.2-.8-.9-1.8-4.1-2.1-7.1s-.9-5.5-1.3-5.5-1.5 1.9-2.4 4.2l-1.8 4.3-1-2.8c-2.3-6.3 5.3-30.2 15-47.7 5.5-9.7 10-13.7 23.2-20.4 16.5-8.4 37.8-13.5 50.5-12.1 12.2 1.3 18.5 4 34.7 14.8 14.7 9.8 15.5 10.5 21 18.7 7.7 11.3 12.3 25.5 14.3 44.1 1.6 15.5.4 35.5-4 64.9-4.6 31.4-5.5 38.4-5.5 46.5v8l6.5 8.7c7.9 10.4 24.4 27.3 45.5 46.3 8.5 7.7 19.3 17.8 23.9 22.5 8.9 8.9 22.8 25.9 26.5 32.2l2.1 3.8H512V0H0z"/><path d="M256.2 225.3c-1.5 3.5-1.5 4.7-.2 4.7 1.4 0 2.2-2.4 1.8-5.2-.4-2.2-.5-2.2-1.6.5m-56.6 124.8c-1.4 4.6-2.8 10-3.1 11.9l-.5 3.5 1.4-4c3.2-9.2 5.8-18.6 5.3-19.1-.3-.3-1.7 3.2-3.1 7.7m4.9 15.1c-.4 1.3-.9 3.6-1.1 5.2-.2 1.7-.8 3.2-1.3 3.5-.4.4-.7 2.1-.6 3.8q.15 3.3-1.2 3.3c-.7 0-1.3.7-1.3 1.6q0 1.5 2.1 1.2c1.9-.3 2.5-1.6 4-9.3 1-5 1.9-9.6 1.9-10.3 0-2-1.7-1.3-2.5 1m125.4 9.5c0 .5-.2 2.7-.5 5l-.4 4.3h11.4l-4.9-5c-5.2-5.2-5.5-5.5-5.6-4.3"/></svg>