<svg xmlns="http://www.w3.org/2000/svg" width="682.667" height="512" version="1.0" viewBox="0 0 512 384"><path d="M0 192v192h42.6l7.2-7.6c8.1-8.5 43.8-39.8 49.5-43.3 2-1.2 6.1-5.3 9-9.1 8.7-11.2 21.3-24.6 54.8-58.5 17.4-17.6 36.6-37.5 42.8-44.3 9.9-10.9 23.8-30.1 27.1-37.4 1.3-2.7.6-8.3-.9-7.4-1.2.8-3.8-2.4-6-7.6-1.5-3.2-2.3-7.8-2.7-15.9-1.1-18.8.9-26.2 10.9-40.1 2.1-2.9 5.2-7.8 7-10.8 3.9-6.6 18.4-18.2 29.2-23.4 14.3-6.9 34-11.6 48.2-11.6 9.8 0 25.5 3.3 35.8 7.4 19.1 7.7 32.2 20 40.8 38.5 3.1 6.5 3.2 6.8 3.3 23.6.3 44.2-4.3 82.3-13.3 110.3-1.9 6.2-3.4 11.4-3.2 11.6s3.3 1.8 6.9 3.7c7.6 3.9 18.2 14.2 31 29.9 15.6 19.2 37.4 41 57.5 57.5 7.2 5.9 13.2 11 13.5 11.4s5.1 4.6 10.8 9.4l10.2 8.8V0H0z"/><path d="M201.5 259.6c-.9 1.4-2.4 3.3-3.3 4.3-3 3-10.3 12.1-9.9 12.1.3 0 1.7-.6 3.2-1.4 2.7-1.4 4.9-4.3 9.9-12.9 2.8-5 3-6.5.1-2.1M135 356.8c-11.9 10.8-26 25.3-26 26.7 0 .3 1 .5 2.1.5 1.4 0 6.8-4.6 15.8-13.8 12.4-12.4 19.6-21.3 17.4-21.2-.4 0-4.6 3.5-9.3 7.8m231 20.7v6.5h13c7.2 0 13-.2 13-.4 0-1.1-11-7.6-16.7-10-9.1-3.8-9.3-3.7-9.3 3.9m-240.9 1.2c-2.3 2.7-3.6 5-2.9 5.2 1.1.4 3.3-2.1 6.2-7.1 2.5-4.1 1.3-3.4-3.3 1.9"/></svg>