<svg xmlns="http://www.w3.org/2000/svg" width="682.667" height="512" version="1.0" viewBox="0 0 512 384"><path d="M0 175.1v175.1l3.8-2.3c2-1.2 4.9-3.1 6.4-4.1 1.4-1 2.8-1.8 3.1-1.8s7.3-3.8 15.6-8.5 19.1-10.6 24-13.3c8.1-4.2 11.1-6.7 29.5-24.9 11.3-11.1 25-23.7 30.3-28 5.4-4.3 10.9-8.7 12.3-9.9 3.9-3.4 13.9-10.5 50.5-35.8 15.2-10.5 28.4-20.3 38.6-28.7l4.6-3.8 1.6-10.8c.9-5.9 1.8-15.8 2.1-21.8.9-21.6 10.6-43.9 28.3-65.7 20.3-24.7 39-34.2 70.3-35.5 28.1-1.1 52.6 6.6 73 23.1 6.6 5.3 12 13.3 12 17.6 0 .9.9 2.5 2 3.5 4.5 4.1 11.9 17.2 13.4 23.9 1.8 7.8 2.1 23.6.5 32.1-1.2 6.4-6.3 17.4-10.2 22.1-1.3 1.6-4.3 6.6-6.6 11.2-3.5 7-4.4 8.2-5.7 7.2-1.1-1-1.4-1-1.4 0 0 .8-.3 1.1-.6.8-.3-.4-2.2 1.2-4.1 3.3-2.4 2.7-3.9 3.6-4.4 2.8-1.8-3.1-5.3 12.1-7.3 32.1-.9 8.4-1.5 11.4-2.5 11.2-.8-.2-1.1.7-.9 2.5.3 2.5 1.2 3.1 9.3 6 5 1.8 11.5 4.2 14.5 5.5 11.9 4.7 31.8 20.8 30.5 24.7-.3 1.1-.1 2.2.4 2.5.5.4 5.6 6.8 11.3 14.4 13.9 18.6 30.2 37.2 50.6 58.2l17.1 17.5.1-188.8V0H0z"/><path d="M117 274c-.8.5-1 1-.5 1 .6 0 1.7-.5 2.5-1s1.1-1 .5-1c-.5 0-1.7.5-2.5 1m-4.5 4.1c-.4.6-.5 1.2-.2 1.5.2.3.7-.2 1-1.1.7-1.7.1-2-.8-.4m-3.3 1.6c-.6.2-1 .9-.6 1.4.8 1.4 2.1 1.1 2.1-.6 0-.8-.1-1.5-.1-1.4-.1 0-.7.3-1.4.6m-3.6 3.8c-1.1.8-1.6 1.5-1.1 1.5.4 0-1 1.3-3.1 2.9-5.1 3.7-17.6 16.7-14.7 15.2 1.2-.6 2.9-1.9 3.9-2.8 1-1 2.2-1.8 2.8-1.8.6-.1 1-.6.8-1.3-.1-.7.1-1.1.6-1 .4.2 3.3-2.3 6.4-5.5 3.1-3.1 5.5-5.7 5.1-5.7-.3 0 0-.7.7-1.5 1.6-1.9 1.1-1.9-1.4 0m-11 62.6c-4.9 3.2-9.2 5.9-9.6 5.9-1.2 0-10 10.5-15.4 18.4-2.7 3.8-4.2 6.7-3.5 6.4.8-.3 7.3-4.6 14.4-9.6 12.5-8.7 13.2-9.4 18.7-18.1 3.2-5 5.4-9.1 5-9-.4 0-4.7 2.7-9.6 6m-17.1 29c-3.3 2.3-7.3 5.3-8.8 6.5l-2.9 2.4h3.7c4.5 0 8.8-3.1 12-8.7 1.3-2.4 2.3-4.3 2.2-4.3s-2.9 1.9-6.2 4.1m296.5 2.5v6.4h27.5l-2.5-2c-3.6-2.9-13.6-7.6-19.7-9.4l-5.3-1.5z"/></svg>