<svg xmlns="http://www.w3.org/2000/svg" width="682.667" height="512" version="1.0" viewBox="0 0 512 384"><path d="M0 136.6c0 75.1.4 136.4.8 136.2.9-.3 8.8-6 25.9-18.6 4.8-3.5 13.9-9.6 20.2-13.5 24.4-14.9 40.7-21.5 86.1-34.7 43.3-12.6 48-14.2 48.5-16.4.2-1.2 1.8-10.1 3.6-20 4.1-23.1 10.6-42.1 18.3-53.9 2.9-4.5 7.5-12.3 10.1-17.2 11.1-20.7 22-33.6 36.7-43.4 18-12 44.8-19.8 71.3-20.8 12.8-.4 14.9-.2 23.9 2.1 10.1 2.6 27.4 10.4 35.6 16 6.6 4.5 20.6 18.8 28.3 29.1 3.7 4.9 6.7 9.3 6.7 9.7 0 .5-.7.8-1.5.8-1 0-1.3.8-1 2.7.8 5.6 1.2 24 .6 30.3-.4 4.6-1 6.4-1.9 6.2-.8-.1-1.1.1-.8.6s-.3 2.6-1.4 4.7c-1 2.1-2.2 5.8-2.6 8.2-.5 3.2-1 4.1-1.7 3.4-1.8-1.8-2.7-1.3-2.7 1.4 0 1.5-.5 2.4-1.2 2.2-1-.1-1.4 2.3-1.6 9l-.3 9.2-3.2-1.7c-1.7-.9-3.7-2.3-4.3-3.1-.8-1.1-1.2.3-1.7 6-.7 8.8-6 29-8.9 33.7-2.2 3.7-5.4 6-8.8 6.7-1.3.2-2.4.6-2.6.8-.4.3 2.3 16.2 3.3 19.2.9 3.1 1.2 10.5.4 10.5-.4 0-2-2.3-3.5-5-2.3-4.3-11.2-12.7-12.3-11.7-.3.4 3.6 17.9 4.1 18.5.2.1 8.6 3.1 18.7 6.6s22.9 7.9 28.4 9.9c5.5 1.9 12.9 4 16.5 4.7 6.9 1.2 11.4 3.8 16.9 9.4 3.7 3.8 3.5 5.1-1 6.1-1.6.4-2.9 1.1-2.7 1.5.6 1.6 46.3 71.2 60.3 91.7 6 8.7 7.4 10.2 9.8 10.3h2.7V0H0z"/><path d="M173.5 232.9C167.9 237 151 248 150.4 248c-1.1 0-32.4 21.3-37.9 25.8-9 7.2-16.5 13.6-16.5 13.9 0 .2 1.5.2 3.3 0 2.1-.2 7.4-3.2 14.3-7.9 6-4.2 19.5-12.8 29.9-19.3 32.7-20.2 34.2-21.2 34.9-24.7 1.3-6.7.9-7-4.9-2.9m181.5 6.8c0 1.1.7 2.3 1.5 2.7 1.9.7 1.9-.3 0-2.8-1.5-1.9-1.5-1.9-1.5.1m-235.5 2.8c-4.9 1.9-9.9 3.9-11 4.4-1.1.6-6.5 2.9-12 5.2s-10.9 4.8-12 5.4c-1.1.7-5.6 3.2-10 5.5-4.4 2.4-9.6 5.3-11.6 6.4-4.6 2.6-22.4 14.9-29.5 20.3l-2.9 2.2 12.6.1h12.7l9.8-8.7c12.3-10.7 37.5-29.3 39.8-29.3.3 0 5.1-2.9 10.6-6.5s10.5-6.5 11-6.5 1.2-.5 1.5-1c.8-1.3 1.5-1.5-9 2.5m53 8.8c-1.6 1.3-8.6 6.1-15.5 10.7s-12.7 8.7-13 9c-.3.4-1.2 1-2 1.4-3.5 1.6-6.4 3.6-5.5 3.6.6 0 .3.5-.5 1s-2.2.7-3.1.5c-.9-.3-2.2.1-2.9 1-.8 1-.9 1.5-.2 1.5.6 0 .9.6.6 1.4-.4 1.2.1 1.3 3.3.5 2.1-.5 8.8-1.8 14.8-3 16.2-2.9 16.2-2.9 18.3-5.3 2.6-2.8 8-15.2 8.8-20.4.4-2.3.5-4.2.3-4.2s-1.7 1.1-3.4 2.3M118.1 281c-3.1 2.6-1.7 2.6 1.6 0 1.4-1.1 2.2-2 1.7-2-.5.1-2 1-3.3 2m32.8 29.2c-.9.7-4.1 4.1-7.3 7.5-5.5 5.9-5.6 6.1-2.6 5 3.1-1.2 13-10.9 13-12.8 0-1.3-1.3-1.1-3.1.3M134 313c-3 .7-19 2.2-52.4 5-8.8.7-8.9.7-12.5 4.8-2 2.2-6.5 7.3-9.9 11.1-6 6.6-6.2 7.1-3.5 6.6 1.5-.3 8.9-1.4 16.3-2.6 7.4-1.1 18.2-3.2 24-4.5 11.7-2.7 23.3-5.3 26.8-6 2.5-.5 11.1-8 14.4-12.6 2.1-3 2.1-3-3.2-1.8M0 330.1V343l3.3-.1c2.8-.1 4.7-1.7 15.1-13l11.8-13-15.1.2-15.1.1zm61.4-7.9C52.8 331.4 44.9 341 46 341s15.7-14.8 20-20.3c3.5-4.4 0-3.3-4.6 1.5m31.1 18.9c-5.5 1-14.3 2.3-19.5 2.9-21.3 2.4-25.9 3.3-27.7 5.3-1.7 1.9-1.7 1.9.2 1.4 1.1-.3 7.2-1.1 13.5-1.7 12.1-1.2 30.7-4.6 42.5-7.9 8.8-2.4 4.5-2.4-9 0m-54.6 8.6c-1.3 1.6-1.2 1.7.4.4s2.1-2.1 1.3-2.1c-.2 0-1 .8-1.7 1.7m54.4 12.7c-2.9.7-6.7 2.4-8.5 3.8-5.2 3.8-6.7 4.4-2.8 1 3-2.7 3.2-3.1 1.4-3.2-5.4-.1-32.9 4.4-37.4 6-1.4.6-3.4 1.1-4.5 1.3s-5.5.9-9.7 1.7c-7.4 1.2-7.9 1.4-11.8 6.1l-4.1 4.9h60l12.5-11.1c6.9-6.1 12.6-11.3 12.6-11.5 0-.6-2-.3-7.7 1m287.7 9.3c0 1 .3 4.2.6 7l.7 5.3h18.9l-2.7-3.2c-3.4-4.1-13.1-10.8-15.6-10.8-1.1 0-1.9.7-1.9 1.7m-270.5 7.5c-2.8 2.9-3.7 4.1-2 2.8 5-4.3 8.7-8 7.8-8-.5 0-3.1 2.4-5.8 5.2M86 382.5c-.8.9-.8 1.5-.2 1.5 1.2 0 2.6-1.9 1.9-2.6-.2-.2-1 .2-1.7 1.1"/></svg>