<svg xmlns="http://www.w3.org/2000/svg" width="682.667" height="512" version="1.0" viewBox="0 0 512 384"><path d="M0 126.3v126.3l8.8-1.3c4.8-.8 16.8-2.5 26.7-3.9s22.7-3.2 28.5-4c5.8-.9 12.3-1.5 14.5-1.5 3.6.1 10.8-1.7 16-3.9 1.1-.5 3.4-1.1 5-1.3 1.7-.3 5.5-1.3 8.5-2.2s8.1-1.8 11.2-1.9c3.3-.2 6.8-1 8.3-2s2.9-1.5 3.2-1.3c.4.5 9.9-2.5 15.5-4.8 2.1-.9 2.4-2.5 3.8-25.3 1.1-18.5 1.7-21.2 8.1-40.7 3.1-9.2 3.8-12.7 3.9-17 .1-12.1 7.3-30.2 17.8-44.8 14.5-20.2 45.6-41.3 75.5-51.2 15.5-5.1 21.5-6 30-4.6 4 .7 9.9 1.7 13.2 2.2 16.6 2.8 36.1 8.8 46.5 14.6 8.7 4.8 11.2 6.7 9.9 8-.8.8-.7 1.3 0 1.7 1.5 1 1.4 2.6-.1 2.6-3.9.1-3.9 1.8.3 7.7 3.9 5.8 4.1 6.4 4.4 14.4.1 4.6.6 9.7 1.1 11.4.6 2.5.5 2.8-.7 1.8-1.2-.9-1.4-.5-1.6 2.4-.1 2-.6 3.9-1.1 4.2s-1.2 1.6-1.6 2.9c-.4 1.2-1.1 2-1.6 1.7-1.1-.7-4 3.4-4 5.8 0 1-.4 1.5-1 1.2s-1-.2-1 .4c0 2.1 4.7 3.6 12.5 4.1l8 .5-.2 4.5c-.1 2.5-.5 6.2-.8 8.2-.6 3.2-.3 4.3 1.9 6.9 2.9 3.4 3.3 8 1.1 11.9-2.3 4.1-1.9 8.4 1 10 2.9 1.5 4.2 4.7 2.6 6.3-1.4 1.4-1.4 8 0 13 .5 2.1.7 4.7.4 5.8-.7 2.1-9.2 6.9-12.3 6.9s-12.1 5-14.1 7.9c-3.4 4.8-3.6 7.7-.8 11.5 1.4 1.8 3.9 5.6 5.6 8.4l2.9 5-2.5.7c-1.9.4-2.4 1.1-2 2.6.5 1.9.4 2-1.6.5-5.2-3.8-5.5-3.8-6.2-.5-.4 1.7-.4 5-.1 7.4l.7 4.3 14.2 6.1c15.2 6.7 25.9 9.4 41 10.7 8.6.7 9.1.8 14.3 5.1 3 2.5 5.3 5 5.1 5.6-.2.7-2.5 2.2-5 3.4-2.6 1.3-4.7 2.6-4.7 3 0 .5 3 4.4 6.6 8.8s9.8 13.4 13.6 20c3.9 6.6 7.6 12.7 8.3 13.5s2.3 3.5 3.6 5.9c1.3 2.5 8.7 15.1 16.5 28l14.1 23.6 20.1.3 20.2.2V0H0zm113.8 83.2c-.3.3-.9-.2-1.2-1.2-.6-1.4-.5-1.5.5-.6.7.7 1 1.5.7 1.8m3.3 4.2c1.3 1.6 1.2 1.7-.3.4-1.7-1.3-2.2-2.1-1.4-2.1.2 0 1 .8 1.7 1.7m-94.2 5c-.8.9-2.6 3-4.1 4.7-1.6 1.7-2.8 3.4-2.8 3.7 0 1-7 5.2-7.6 4.6C8 231.3 23 217 23.9 217c.2 0-.3.8-1 1.7"/><path d="M119.5 259c-13.9 3.5-39.2 8.5-51 10-4.9.7-11.7 1.5-15 2-3.3.4-16.6.8-29.5.9s-23.6.3-23.7.5c-.2.2-.2 6.2-.1 13.4l.3 13.1 10-6.5c14.7-9.7 27.6-15.9 37-17.8 4.4-.9 14.5-2 22.5-2.6 20.4-1.3 32-3.3 43.5-7.5 5.5-2 11.1-4 12.5-4.5s2.1-.9 1.5-1c-.5-.1.6-.8 2.5-1.5 5.5-2.1 1.5-1.5-10.5 1.5"/><path d="M116.5 268c-15.4 5.3-21.8 6.4-44.9 8-22 1.5-28.5 2.9-40.7 9.1-10.7 5.3-27.4 15.8-26.6 16.6.3.2 5.1-1.9 10.8-4.7 12.1-6.1 24.8-9.1 45.9-10.9 7.4-.7 18.5-2.2 24.5-3.5 11.1-2.4 33.4-10.1 34.7-12 .4-.6.8-.7.8-.3 0 .9 6.1-2.3 7.2-3.8.4-.6.8-.6.8-.2 0 1.1 4-1.2 4-2.3 0-1.5-1.4-1.2-16.5 4m24 9.7c-5.8 3.5-14 6.9-33.5 13.9-10.4 3.8-31.1 7.6-50.5 9.3-6.6.6-15.4 1.9-19.5 2.8-8.1 1.7-27.6 10.4-33.5 14.8l-3.6 2.8.3 15 .3 15.1 10.5 3.4c48.9 15.7 42.6 14.5 70 13.7l23.5-.8 3.1-3.3c6-6.3 32.4-42.2 32.4-44 0-.2 1.8-3.3 3.9-6.7l4-6.2.7-16.8c.6-14 .5-16.7-.7-16.7-.8.1-4.1 1.7-7.4 3.7M.9 303.7c-1.3 1.6-1.2 1.7.4.4.9-.7 1.7-1.5 1.7-1.7 0-.8-.8-.3-2.1 1.3"/></svg>