<svg xmlns="http://www.w3.org/2000/svg" width="682.667" height="512" version="1.0" viewBox="0 0 512 384"><path d="M0 137.6C0 286-.2 279.2 4.9 277.5c1.3-.4 2.7.1 4.1 1.5 4 4 15.7 6.3 18 3.5 2-2.5 3.7-1.7 4.4 2 .4 1.9 1 3.4 1.4 3.3s2.7.2 5.2.6c5.7.9 40.7-.9 42.3-2.2.7-.5 2.6-1.4 4.2-2.1 2.4-.9 1.3-1-6.5-.6l-9.5.5 4-1.9 4-1.8-15.5-.4c-11.7-.3-16.2-.8-18.4-2-2.7-1.5-1.8-1.6 16.5-2.2l19.4-.6 20.9-5.5c11.4-3.1 20.9-5.6 21-5.6 0 0 .1-13.4.2-29.7l.1-29.8 3.2-12.5c2.7-10.1 3.3-14.2 3.1-21.5-.6-33.2 18.8-63.6 56.5-88.4 10.4-6.9 34-18.4 43.4-21.2 6.7-2 8.7-2.1 21.4-1.5 22.1 1.1 46.1 6.4 61.3 13.7 8.1 3.8 9.6 5.1 7.4 6.4-.6.3-1 1.3-1 2.2s-.8 2.1-1.7 2.8c-1.5 1.1-1.2 1.9 3.6 7.9 2.9 3.6 4.8 6.6 4.2 6.6s-.5 1.3.4 3.3c.8 1.8 1.2 4.2 1.1 5.3-.2 1 .3 3.4 1.1 5.2 1 2.3 1.1 3.8.3 5.2-.6 1-.9 2.4-.8 2.9.2.5-1.4 2.7-3.4 4.9-2.1 2.2-3.8 4.5-3.8 5 0 1.9-2.6 3.2-3.8 2-.8-.8-.9-.5-.5 1 .2 1.1 1.6 3.1 3 4.4 2.2 2.1 3.4 2.3 10.9 2.2 8.1-.1 8.5 0 9 2.3.4 1.3.3 4.3 0 6.6-1.1 6.7-.9 7.6 2.8 11.8 2 2.1 3.6 4.2 3.6 4.5s-.9 2.4-2 4.6c-2 4.3-2.6 8.5-1.2 10.3.4.6 1.8 1.8 3.2 2.6 2.3 1.5 2.5 2.3 2.6 8.5 0 3.8.4 9.2.8 12.1l.9 5.1-3.9 2.5c-2.2 1.3-5.7 3-7.9 3.7-7.6 2.3-12.2 5.7-14.5 10.5-3.6 7.4-3.7 11.7-.5 15.9l2.7 3.5-2.1 2.2c-1.2 1.3-2.1 3.1-2.1 4.1 0 1.1-.4 1.6-1 1.3-.6-.4-1 .8-1 2.9 0 6.2 3.9 10.5 14.1 15.3 10 4.8 16.9 6.2 32 6.6 9.1.3 9.9.4 14.7 3.7 2.7 1.9 5.6 4.4 6.2 5.4 1.4 2.2.3 3.4-6 6.9l-3.3 1.8 8 8.2c4.4 4.5 9.7 11.1 11.8 14.7 2.2 3.6 10.5 16.4 18.5 28.5 8.1 12.1 16.9 25.5 19.6 29.7l4.9 7.7 37.8.1H512V0H0zm67.3 146.1c-.7.2-1.9.2-2.5 0-.7-.3-.2-.5 1.2-.5s1.9.2 1.3.5m37.5 37c-9.2 4.8-16.6 8.8-16.5 9 .6.5 12-1.7 15.2-2.9 1.7-.7 6.7-3.2 11.2-5.7 6.6-3.6 8.3-5.1 8.3-6.9 0-1.2-.3-2.2-.7-2.2-.5 0-8.3 3.9-17.5 8.7M62.5 319c.3.5 1.7 1 3 1s2.7-.5 3-1c.4-.6-.8-1-3-1s-3.4.4-3 1M0 328v5h9.9l-2.2-5c-1.9-4.2-2.6-5-4.9-5-2.7 0-2.8.2-2.8 5m120.5 18c-.3.5-.1 1 .4 1 .6 0 1.1-.5 1.1-1 0-.6-.2-1-.4-1-.3 0-.8.4-1.1 1m-103 3.6c-1.1.2-5.5.6-9.7.9l-7.8.7V384h114.6l2.3-3.1c1.7-2.3 2.7-5.7 3.7-13.3.7-5.5 1.4-11.8 1.4-14v-3.8l-3.7.7c-2.1.4-5.6 1.3-7.8 2.1-2.2.9-11 3.5-19.5 6-15.2 4.5-15.7 4.5-26 3.9-18.6-1.1-20.8-1.6-31.7-7.8-9.4-5.4-10.9-5.9-15.8-5.1"/></svg>