<svg xmlns="http://www.w3.org/2000/svg" width="682.667" height="512" version="1.0" viewBox="0 0 512 384"><path d="M0 176v176h3.4c5.2 0 5.5-1.1 4-14-.7-6.3-1.7-18.3-2-26.5l-.7-15.1 4.3-3.7c2.4-2 4.9-3.7 5.5-3.7s2.4 2.6 4 5.7c2.8 5.7 2.9 6.3 3.7 28.2.5 12.3 1.2 22.9 1.6 23.6.5 1 2.4.6 8.1-1.8l7.4-3.1-.7-7.5c-2.1-22-2.5-28.2-2.6-34.9q0-11.55 3-4.2c.7 1.7 1.8 3.4 2.5 3.8 1 .5 1.6 6.1 2.2 19.9.5 10.5 1.1 19.5 1.4 19.8 1.5 1.5 16.6-5.5 32.4-15 6.9-4.1 12.7-7.5 13-7.5.2 0 3-1.7 6.2-3.8s6.7-4.2 7.7-4.6c1.8-.6 1.9-1.5 1.2-15.4-.3-8.1-1.1-21.7-1.7-30.2-1.4-19.4-.6-41.2 2-55.3 1.1-6 2.4-11.4 2.8-12 .4-.7.8-7.7.8-15.7.1-17.3 1.4-23.1 8.5-37.5 10.1-20.5 29.8-39.8 57.2-55.8 16.2-9.6 30.3-15.6 41.8-17.7 9.3-1.8 35.8 1.4 58 7 10.9 2.7 28.2 10.8 25.2 11.8-.6.2-1.2 1.2-1.2 2.2 0 .9-1 2.4-2.2 3.2-2.2 1.5-2.2 1.5 3.5 7.9 3.1 3.5 5.3 6.5 4.8 6.7s-.3 1.5.5 3 1.4 4 1.4 5.5c0 1.6.5 3.8 1.1 4.9 1.5 2.8 1.9 6.8.6 6.8-.6 0-.8.3-.4.6.8.9-6.3 9.5-7.3 8.9-.5-.3-.6.4-.3 1.5.4 1.3-.3 2.6-1.8 3.9l-2.4 2 2.3 2.3c2 2.1 3.1 2.3 11.2 2.2 8.9-.1 9-.1 9.7 2.4.3 1.4.2 4.7-.4 7.3-.7 3.8-.6 5.3.6 7.3.9 1.5 1.9 2.6 2.3 2.6s1.5 1.4 2.4 3.1c1.5 2.9 1.4 3.4-.6 8.1-2.7 6.2-2.1 9 2.5 11.7 3.7 2.2 4.1 3.1 2.5 6.1-.8 1.4-.6 3.9.5 8.5.8 3.7 1.5 7.6 1.5 8.8-.1 2.7-5.6 6.7-12.4 9-9.6 3.3-14.5 9.1-16.4 19.5-.8 4.5-.7 5.4 1 6.9 2 1.8 1.7 6.3-.4 9-.6.7-.7 1.3-.2 1.3s.2.5-.6 1c-1.1.7-1.2 1.3-.5 2.3 10.3 14.1 10.5 14.4 17.3 17.2 6 2.5 8.4 2.8 21.7 3.4l15 .6 4.5 3.5c4.3 3.4 6.9 6 7 7 0 .3-2 1.8-4.5 3.3-2.5 1.6-4.5 3.2-4.5 3.6 0 .3 3.2 3.8 7.1 7.6 3.8 3.9 9 9.9 11.4 13.5 4 6.1 30.1 42.4 39.7 55.2l4.3 5.8H512V0H0z"/><path d="M60.5 338c-4 1.8-10.4 4.3-13.7 5.4-2.2.7-2.4 2.6-.2 2.6 1.9 0 14.1-5.7 17.3-8.2 3-2.3 1.8-2.2-3.4.2m-26 9.4c-1.6.6-3.9 1.7-5 2.3s-2.4 1.2-3 1.3c-1.1.2-.8 2 .5 3.4 1.4 1.4 13-4.5 13-6.6 0-2-1.1-2.1-5.5-.4M0 357.6v4.5l4.8-.7c2.6-.3 4.8-.8 5-.9.2-.2 0-1.9-.3-3.9-.7-3.5-.9-3.6-5.1-3.6H0zm101 13c-3 2.5-8.2 6.5-11.5 9l-6 4.6 5-.5c2.8-.2 8-1.8 11.8-3.5l6.7-3.1v-5.6c0-3-.1-5.5-.2-5.4-.2 0-2.8 2.1-5.8 4.5"/></svg>