<svg xmlns="http://www.w3.org/2000/svg" width="682.667" height="512" version="1.0" viewBox="0 0 512 384"><path d="M0 192v192h71v-12.3c0-6.7-.9-24.8-2-40.2s-2.5-41-3.1-57c-1.2-30.5-1-33.5 3.7-55.1.9-4.1 1.1-9.5.7-16.5-1.5-26.3 9.2-50.2 32.2-72.2 14.1-13.6 28.8-23.8 48.5-33.6 20.9-10.3 31.6-13.2 44-11.9 34.5 3.8 50.3 7.3 66.4 14.9 4.1 1.9 6.3 4.9 3.6 4.9-.5 0-.7.7-.4 1.5.4 1-.3 1.8-2 2.5-1.4.5-2.6 1.1-2.6 1.3s2.4 3 5.4 6.2c4.3 4.7 5.6 6.9 6.6 11.4.6 3.1 2 7.4 3 9.7 1.2 2.8 1.5 4.6.8 5.8-.5.9-.6 2.1-.3 2.6.3.6-.1 1.3-1 1.6-.9.4-1.4 1.3-1.1 2.1s-.4 1.8-1.9 2.5c-1.4.6-2.8 2-3.1 3.2-.4 1.2-1.5 2.8-2.5 3.7-2.9 2.5-2.3 4.5 2.1 6.3 4.7 1.8 8.1 2 13 .6 5.1-1.5 6.3.6 5.5 9.3-.6 6.8-.6 6.8 2.9 10.8 4 4.4 4.2 5.6 2.1 12.1-1.7 4.9-.8 9.8 1.8 9.8.8 0 2.2.9 3.2 2 1.5 1.7 1.6 2.4.7 4.6-1 2-.9 3.9.3 9 .8 3.6 1.5 7.5 1.5 8.8 0 2.8-6.4 7.6-14.1 10.6-6.6 2.6-9.6 5.3-12 10.5-3.1 6.9-3.9 12.1-2.2 14.5 1.4 2 1.4 3.5-.2 10.2-.6 2.2.3 3.9 5.1 10.2 4.9 6.3 6.8 7.9 11.2 9.7 4.9 2 6.5 2.1 18.2 1.6l12.8-.7 6.2 4.1c3.4 2.3 6.4 4.9 6.8 5.7.3 1-.8 2.8-3.4 5l-3.9 3.4 5.5 4.6c7.9 6.7 12 11 26 26.7 6.8 7.7 13.3 14.9 14.4 16.1 1.2 1.1 5.6 6 10 10.7l7.9 8.7H512V0H0z"/></svg>