<svg xmlns="http://www.w3.org/2000/svg" width="682.667" height="512" version="1.0" viewBox="0 0 512 384"><path d="M0 83.5c0 45.9.2 83.5.5 83.5.2 0 3.3-1.5 6.7-3.4 18.4-10.1 44.1-19.8 57.2-21.6 6.3-.9 8.6-.9 12.4.4 2.6.8 7.9 1.8 11.7 2.2 16.3 1.5 44.1 9.4 58.3 16.6 9.8 4.9 10.3 5.2 8.4 6.7-3.6 2.9-3.4 4.9.8 10.2 2.2 2.8 4 5.7 4 6.5 0 .9.5 1.2 1.2.8.6-.4.8-.3.5.3-.4.6-.1 2.8.6 4.9.7 2.2 1.2 7.7 1.1 12.4-.2 12.9-.3 14.2-1.4 13.5-.5-.3-1 .2-1 1.3 0 1-1.8 3.3-4 5.1-2.3 1.8-3.7 3.7-3.4 4.3.5.8.1.9-1 .5-1.4-.6-1.5-.3-.5 1.4.6 1.2 3.1 3 5.6 4.1 4.5 2 7.9 2 15.4.3 4-1 5.4 3.1 3.8 11.1l-1.2 6.2 3.6 4.3c4 4.7 4.8 9 2.2 12.5-.8 1-1.5 3.6-1.5 5.6 0 3.3.5 4.1 4.1 6.4 3 1.9 3.9 3 3.4 4.2-1.6 4.1-1.7 8.6-.1 13.6 1 3 1.6 6.7 1.4 8.3-.4 3.5-7.6 9.2-17.8 14-7.3 3.4-12 6.8-12 8.5 0 .5 1.4 2.7 3.1 4.8l3.1 3.9-2 2.1c-1.2 1.3-1.8 2.9-1.5 3.8.5 1 .2 1.3-.6.8-.8-.6-.7.2.3 2.3 1.8 3.4 1.8 3.5-1.8 2.1l-2.5-.9.6 7.2c.3 4 .7 7.4.9 7.6.1.2 4.9 1.9 10.6 3.8 10.3 3.5 10.3 3.5 18.9 2.3 6.5-.8 10.1-.8 15.3.1 7.3 1.2 8.9 2.8 6.2 5.8-1.6 1.8-1.4 1.9 5.1 3.5 3.7.9 12.1 2.7 18.6 4.1l11.9 2.5H512V0H0z"/></svg>