<svg xmlns="http://www.w3.org/2000/svg" width="682.667" height="512" version="1.0" viewBox="0 0 512 384"><path d="M0 83.1c0 66.1.3 83 1.2 82.6 25.5-11.5 43.7-15.6 54.9-12.4 2.9.8 8.6 1.8 12.4 2.2 13.8 1.2 41 9.4 56 16.7 12.3 6 12.1 5.9 10.3 7.2-3.3 2.5-2.8 5.5 1.8 11.6 2.4 3.2 4.4 6.4 4.4 7.2s.5 1.9 1.1 2.5c.5.5 1 3.4 1.1 6.4 0 3 .6 6.9 1.4 8.7 1 2.4 1 3.1.1 2.5-.9-.5-.8-.2.1.9 1 1.3 1 1.7-.3 2.2-.8.3-1.5 1.5-1.5 2.6 0 1.2-.4 1.9-.9 1.6s-1.2 1-1.6 3c-.4 2.3-1.1 3.4-1.9 3.1-1.3-.5-5.2 5-4.2 6 .3.3-.1 1.1-.8 1.7-2.3 1.8-.1 5.5 4.1 7.3 2.8 1.1 5.4 1.3 10.7.8 7.6-.7 8.6-.2 8.6 4.7 0 1.5-.5 4.7-1.2 7.2-1.1 4.2-1.1 4.4 2.4 8.7 4.8 5.9 5.5 8.7 2.9 13-3.1 5-2.7 7.5 2 12.1 2.8 2.8 3.8 4.5 3.3 5.7-1.5 3.5-1.5 8 0 13.1.9 3 1.6 6.5 1.6 7.8 0 3.8-7.3 9.7-18.7 15.2-5.7 2.7-10.3 5.3-10.3 5.7 0 .5 1.6 2.8 3.5 5.1 3.6 4.6 3.6 4.4-.7 9.3-1.7 1.8-1.7 2 .4 5.4l2.1 3.6-3.4-2c-1.9-1.2-3.7-2.1-4.1-2.1-.5 0-.6 1.9-.4 4.2.3 2.4.5 6.1.5 8.3l.1 4 10.8 3.7 10.7 3.6 81-.1 81-.2 24.5-2.8c13.5-1.6 26.8-2.6 29.5-2.4 2.8.3 7.6 1.7 10.9 3.1l5.8 2.6H512V0H0z"/></svg>