<svg xmlns="http://www.w3.org/2000/svg" width="682.667" height="512" version="1.0" viewBox="0 0 512 384"><path d="M0 83.6v83.6l2.2-.5c17.5-4.1 22.7-4.5 31.5-2.7 2.6.5 9.9 1.7 16.2 2.6s12.4 2 13.5 2.4c1.2.4 4.1 1.3 6.6 2 14.6 4 49.9 18.9 47 19.8-4.5 1.5-7.5 7.1-4.7 8.9 1.7 1.1 6 7 8.1 11.3 1 2 1.9 6.2 2.1 9.8.1 3.5.7 6.8 1.4 7.5 1.3 1.3 1.5 5.1.2 4.3-1.1-.7-2.2 1.8-2.8 6.9-.3 2.2-.9 4.1-1.4 4.3s-.9 1-.9 1.8c0 .7-.6 1.1-1.4.8-3-1.2-4.9 11.3-2 13.6 1.7 1.5 10.3 1.8 15.1.6 2.9-.8 3.4-.6 4.5 1.9 1 2.2.9 3.8-.3 8.5-1.4 5.4-1.4 6.1.3 9.4 1 2 2.2 3.6 2.7 3.6 1.1 0 3.1 4.7 3.1 7.4 0 1.2-.7 3.1-1.5 4.2-2.1 2.8-1.9 8.6.5 11.2 1.2 1.2 2.5 2.2 3 2.2 1.6 0 2.2 4.1 1 7.1-1 2.4-.9 4.1.4 9.4 2.6 10.5 2.4 11.6-3.8 16.9-3 2.6-8.8 6.2-12.9 8.1-4.1 1.8-7.7 3.7-8 4.2s1 2.9 2.9 5.2c3.4 4.3 3.4 4.4 1.4 6.1-1.1 1-2 2.2-2 2.9 0 1.5-1.3 1.4-3-.2-.7-.6-.1.9 1.4 3.6 3 5.2 2.6 5.6-2.2 2.7-1.8-1.1-3.5-2-3.8-2-.6 0 .2 5.7 1.2 9.2.5 1.7 5.2 1.8 80.4 1.8h80l10.2-3c9.4-2.7 47.9-12.9 57.2-15.1 9.9-2.4 37.6 6.5 48.3 15.5l3.1 2.6H512V0H0z"/></svg>