<svg xmlns="http://www.w3.org/2000/svg" width="682.667" height="512" version="1.0" viewBox="0 0 512 384"><path d="M0 87v87h2.2c1.2 0 4.7.4 7.7 1 3.1.5 10.3 1.6 16.1 2.4 17 2.4 35.9 8.4 55.9 17.7 5.7 2.7 10.7 4.9 11.2 4.9 1.8 0 .8 3.3-1.6 5.1-2.3 1.9-2.4 3.8-.2 6.4 2.3 2.7 10.7 18 10 18.2-1 .4-.8 10.1.3 12.7.4 1.1 0 3.8-1 6.7-1 2.6-1.5 5.3-1.1 5.8.3.7 0 .8-.9.5-1.1-.4-1.6 0-1.6 1 0 .9-.8 2.5-1.7 3.5-2.3 2.7-2.5 4.7-1.2 10.5l1.2 4.9 7.9-.6c7.7-.5 8-.4 9.1 2 .8 1.8.8 3.9-.1 8.2-1.6 7.6-1.7 7.2 2.3 12.2 3.8 4.9 4.6 10 2 13.5-2.9 3.9-1.6 9.7 3.2 13.9 2.4 2 2.5 2.3 1.2 5.8-1.1 3.2-1.1 4.6.4 10.1 1.8 6.7 2.1 10.4 1.1 13-.8 2.1-10.6 9.3-16.4 12-8.3 3.9-8.5 4.2-4.5 8.9 3.2 3.8 4.6 6.5 2.7 5.3-.8-.5-4.2 2.8-4.2 3.9 0 .3 34.7.5 77.2.5h77.2l17-6.7c9.4-3.6 23.2-9 30.6-12s15.3-5.8 17.5-6.3c5.6-1.3 14.4-1.2 22.5.1 5.6 1 8.8.9 18.2-.5 41.3-6.2 71.3.5 89.8 20l5.1 5.4H512V0H0z"/></svg>