<svg xmlns="http://www.w3.org/2000/svg" width="682.667" height="512" version="1.0" viewBox="0 0 512 384"><path d="M220.5 3.2c3.8 17.3 10.3 27.8 25.5 40.6l3.4 3-5 4.6c-7.5 6.7-15.7 17.1-20.2 25.6-5.5 10.3-9.3 28-10.7 49.2-.5 7.7-1.4 12.1-4 19.3-.5 1.4.2 1 2.4-1.3 1.7-1.7 3.2-3.2 3.4-3.2.3 0 .7 2.4 1.1 5.2.3 2.9 1.3 7.8 2.1 10.8l1.4 5.5-.3-5.3c-.2-2.8 0-5.2.3-5.2 1.3 0 9.9 9.6 11.5 12.7 1.6 3.2 4.4 4.7 3.2 1.8-.7-1.9-.1-1.9 3.2.2l2.7 1.8-2.3-3.2c-1.3-1.8-2.7-3.5-3.2-3.8-.6-.4-1-1.1-1-1.8 0-.6 2.5 1.3 5.5 4.3s5.5 5.1 5.5 4.6c0-.4 2.2.8 4.9 2.8 5.7 4.2 6.9 4.5 4.7 1.1-2.1-3.2-1.1-3.1 3.9.4 3.7 2.5 4 3.1 3.8 7-.1 2.4-1.3 6.1-2.7 8.5-3.1 5.3-2.2 7.1 4.7 9.1 4.5 1.3 5.2 1.9 5.5 4.2.6 4.9 0 40.6-.8 47.8-.8 7.5-.1 9.6 2.5 7.5.8-.7 1.8-1.1 2-.8.6.6 3.7 40.5 4 51.3.1 4.4.5 8.8.9 9.7.6 1.4-3.6 17-5 18.7-.4.4-3.3-2.1-17.7-15.3-10.6-9.8-15.1-12.6-19.8-12.6-2.7 0-4.3-.8-7-3.6-1.8-2-4.5-4.2-5.9-4.9-2.3-1.2-2.6-2.2-3.7-11.4-2.2-18.3-9.9-33.2-18.8-36.7-4.4-1.6-5.5-1.7-16.9-.2-6.6.8-12.8 1.7-13.6 1.9q-1.5.45-1.8-2.4c-.5-3.9-2.7-2.8-2.7 1.4-.1 3.1-.7 3.8-8.2 8.9-4.5 3-9.3 6.6-10.7 7.9-3.6 3.4-5.3 9.9-6.1 22.3-.6 9.9-.4 11.2 1.8 16.5 1.3 3.2 3.2 8.5 4.2 11.8 1.6 5.1 2.9 7 8.9 12.9 12.6 12.1 15.2 13.3 32.4 14.3 5 .3 9.2.9 9.2 1.3s-.9 3.3-2.1 6.6c-2.3 6.8-6.9 25-6.9 27.6 0 1.7 6.3 1.8 119.1 1.8h119.1l-.5-2.3c-.4-1.2-1.1-5.6-1.8-9.7-.6-4.1-1.8-8.8-2.6-10.3s-1.1-3.7-.8-4.7-.1-5.4-.9-9.7c-1.3-7.2-4-31.6-5-47.3-.3-3.6-.8-7.5-1.2-8.7-.8-2.9.5-2.9 5.6-.3 2.7 1.4 4.2 2.9 4.6 4.8 1.3 6.1 3.6 12.2 5.5 14.6 2.5 3.2 7.8 5 11.2 3.7 5-1.9 4.2-4.7-3.8-13.1-6.9-7.4-9.5-12-15.6-28.5l-5.1-14-.6-15.3c-.3-9.5-.1-15.7.5-16.3.7-.7 1.9 1.7 3.7 6.8 2.5 7.1 13.7 28.7 15.5 29.7.4.3-1.4-4.9-4.1-11.6-2.7-6.6-4.7-12.3-4.5-12.5s1.7 1.6 3.3 3.9c5.8 8.7 16.6 23 16.9 22.6.3-.2-1.3-4.6-3.5-9.6-2.2-5.1-4-9.7-4-10.3s2.3 1 5.1 3.5c2.9 2.6 5.4 4.5 5.6 4.2.3-.2-1.4-5.4-3.7-11.6-3.9-10.8-7.3-23-6.5-23.8.2-.2 1.6 1.5 3.1 3.7 1.5 2.3 2.8 4 3 3.9.1-.2-1.2-4.6-3-9.8-3.6-10.4-5.9-23.2-3.1-17.5.8 1.6 2.6 5.7 4 8.9 1.4 3.3 2.7 5.7 2.9 5.5s0-2.4-.5-4.9-1.5-17.8-2.3-34c-1.8-34.2-2.7-43.2-6-59.5-5-24.3-13.3-44.3-24.5-59.5-4-5.3-6.3-9.5-7.1-13-3-12.7-17.4-30.4-30.9-38.4L368.9 0h-32.6l-4.5 3-4.5 3-6.7-1.7c-5.4-1.3-7.6-1.4-11.4-.5-4.3 1-5 .9-8.4-1.4L297 0h-77.2zm102.2 212c1.1 1.3 3 4.1 4.3 6.3s3 4.9 3.7 6.1c1.4 2.2.9 3-13 20.2-2.1 2.6-6.2 9.4-9.2 15.2s-7 12.1-9 14c-3.7 3.6-4.2 3-2.5-3 .6-1.9 2.4-9.5 4-16.8 1.5-7.4 3.1-13.6 3.5-14 .3-.4 1.5-.7 2.7-.7 1.9 0 2-.7 2.3-10.1.3-12.5.7-13.8 5.3-16.9 4.5-3.1 5.3-3.1 7.9-.3m83.8 16.4c.8 4.3 1.2 8 1 8.2-1.2 1.2-4.5-8.3-4.5-13 0-7.4 1.9-4.9 3.5 4.8m-116.8 64.8c-1.9 3.5-4.1 6.2-5.1 6.4-1.6.3-1.8 0-1.2-1.9.4-1.3 2.1-8.7 3.7-16.4 1.7-7.7 3.3-14.7 3.7-15.5.3-.8.9 3.6 1.3 9.9l.8 11.4z"/></svg>