<svg xmlns="http://www.w3.org/2000/svg" width="682.667" height="512" version="1.0" viewBox="0 0 512 384"><path d="M0 102.4v102.3l4.7 1.3c2.7.7 5.3 1.6 5.8 1.9.6.3 3.7 1.5 7 2.6 3.3 1.2 11.5 4.8 18.2 8 11.4 5.4 14.4 7.5 10.9 7.5-2.8 0-2.6 5.3.5 10.6 1.6 2.8 2.9 6.3 2.9 7.8 0 1.4 1.2 4.5 2.6 6.7 3.7 6 4.7 13.8 2.6 20.5-1.1 3.4-2.2 5.2-2.9 4.9-1.2-.4-1.7 2-1.6 6.3.1.7-.5 1.1-1.2.8-1-.4-1.2.1-.5 2.2 1.7 5.4 2 9.2.8 8.9-.7-.1-1.5 1.6-1.8 4.1-.6 3.9-.4 4.3 1.8 4.9 1.3.3 4.4.1 6.9-.4 4.1-1 4.5-.9 6 1.4 1.4 2.2 1.5 3.3.4 8.9-1.3 6.3-1.3 6.3 1.9 11.5 3.9 6.5 4.6 10.2 2.6 15.6-1.3 3.8-1.3 4.8 0 9.3.8 2.7 1.9 5 2.4 5s1.4.9 2 2c.8 1.5.7 2.5-.3 4-1.2 1.7-1.1 3.1.5 10.2 1 4.6 1.6 9.3 1.3 10.5L73 384h151.3l15.2-8.5c12.8-7.1 15.7-9.2 18.5-13.2 1.9-2.7 7.3-8.8 12-13.7 29.2-30.4 70.9-48.9 106.5-47.3 14.2.6 21.8 2.7 32 8.8 8.9 5.3 13.3 9.5 20.2 19.2 11.5 16.3 18.2 34.5 18.3 49.4v5.3h65V0H0z"/></svg>