<svg xmlns="http://www.w3.org/2000/svg" width="682.667" height="512" version="1.0" viewBox="0 0 512 384"><path d="M0 192v192h111.6l3.5-4.3c5.3-6.4 14-18.9 30.8-44.2 8.4-12.7 17-24.8 19.1-27 2-2.2 4.3-5.5 5-7.4 1.4-3.4 22.2-31.9 34.2-46.8 3.7-4.5 7.2-9.1 7.8-10.2 1.6-3.1 4.8-4.5 11.5-5.1l6-.5 1.7-12.5c.9-6.9 2.2-17.7 2.8-24 2.4-25.7 3.4-28.2 15.8-38.7 6.7-5.7 10.9-6.8 14.4-3.6 1 .9 2 1.4 2.3 1.1.3-.2 1.8-4.8 3.4-10.2 3.1-10.7 5.1-13.5 11.9-16.7 3.5-1.7 5.5-2 10-1.6 7.8.8 10.3 3.5 10.3 10.8 0 3-.6 7-1.4 8.9-1.8 4.4-2.9 10-1.9 10 .4 0 4.1-2.9 8.2-6.5s9-7 10.8-7.6c4.9-1.6 11.4.4 18.9 5.7 6.6 4.7 9.8 8.4 10.8 12.6.7 2.5.7 2.6 5.2 1.2 8.5-2.6 13.6.4 22.3 13 2.3 3.4 3.3 6 3.2 8.3-.1 1.8.7 4.8 1.8 6.6 2.7 4.4 2.6 13.4-.3 27.2-3.5 16.5-8.7 23.4-21.2 28.1-5.7 2.1-12.7 2.6-15.5 1.1-2.4-1.3-2.7-1.1-8.3 5-3.3 3.5-9.2 8.5-13.2 11.1l-7.3 4.8 2.5 2.9c1.4 1.7 4.6 5.4 7.2 8.4 18.8 22.1 28 43.5 22.7 53-1.2 2.1-1.2 3.1 0 6.4 1.7 4.9 1.8 16.4.1 19.7-1 2.1-13.1 11.8-23.8 19.2-2.3 1.6 3 1.7 93.4 1.7l95.7.1V42h-5.5c-4.2 0-5.5-.4-5.5-1.5 0-.8-1.1-1.7-2.4-2.1-1.4-.3-3.2-1.7-4.1-3-.8-1.3-2.2-2.4-3-2.4s-1.4-.3-1.4-.8c.3-2-.2-3.2-1.6-3.2-.8 0-1.5-.6-1.5-1.3-.1-1.5-5.1-8.3-6.5-8.6-1.9-.5-3.5-2.4-3.5-4.2 0-1.1-.5-1.9-1-1.9-1.3 0-5-8.3-5-11.1C471 0 466.9 0 235.5 0H0z"/></svg>