<svg xmlns="http://www.w3.org/2000/svg" width="682.667" height="512" version="1.0" viewBox="0 0 512 384"><path d="M0 192v192h98.8l3.9-4.7c3.9-4.7 15.7-20.7 22.1-30 17.6-25.5 29.3-41.2 32.3-43.1 2.2-1.5 3.9-3.8 4.8-6.5.8-2.3 3.7-7.1 6.4-10.7 16.6-21.3 32.3-40.3 34.8-42.1 1.6-1.1 2.9-2.6 2.9-3.4 0-4.2 7.2-5.7 16.9-3.4 4.2.9 4.5.8 7.6-2.4 3.2-3.3 3.4-3.9 4.6-15.6 1.3-13.1.3-30.7-2.7-46.1-1.8-9.4-1.8-15.6.1-24.4 2.8-13.1 6.9-16.7 14.6-12.7 6 3.1 8.4 5.5 9.9 10 1.1 3.4.9 4.7-1.4 12.3-2.8 9.3-3.1 10.8-1.7 10.8.5 0 2.5-5.1 4.4-11.3 3.4-10.7 4.6-15.4 10.1-38.7 3.8-16 9.1-34.2 11.4-38.6 6.4-12.2 13.2-19 17.5-17.5 2.9 1 5.7 6.8 7.3 15.5 2.7 13.7 2.4 15.5-5.3 31.2-6.3 12.8-7.1 15.1-8.1 23.7-.7 5.3-1.2 10.1-1.2 10.8 0 1.6 3.2-2.7 12.5-16.6 5.3-8 10.4-14 18.6-22 12.2-11.8 16.5-14.5 27.7-17.1 6.2-1.5 7-1.5 10.6 0s3.8 1.8 3.3 5.1c-.3 1.9-.2 3.7.3 4s.5 1.7-.1 3.2c-.5 1.4-.7 3.3-.4 4.3.3.9.1 4.8-.5 8.6s-1.3 8.6-1.4 10.6l-.3 3.7 3.6-1.6c9.2-4 19.5-4.1 24.5-.2 2.5 1.9 2.6 2.4 2.1 9.1-.3 3.9-.8 7.5-1.1 8-.7 1.1-1.4 6.9-1.4 11.2.1 2.8-.1 2.8-3.7 2.3-2.8-.5-3.4-.4-2.3.4s.8.9-1.5.5c-7.1-1.3-16.4-.1-23 2.9-3.7 1.8-3.7 1.8 11.7 1.9l12.7.1 4.1 4c2.2 2.2 4.3 5 4.6 6.2.6 2.1-1.9 9.7-5.5 17-1.2 2.7-2.2 3.3-4.7 3.3s-3.4-.6-5-3.8c-1.2-2.3-2.8-3.8-4.2-4-3-.5-25.4 7.4-26.9 9.5-.7.9-1.3 2.4-1.3 3.3 0 2.7-8.8 25-12.6 31.9-7.9 14.4-18.3 26.3-29.9 34.2-3.3 2.2-6.1 4.2-6.3 4.3-.1.2 3.6 4.3 8.4 9.2 18.9 19.5 33.8 41.1 36 52.1.6 2.8.2 3.7-2.6 6.3-2.9 2.7-3.1 3.4-2.2 5.3 3.9 7.8 5.3 14.9 3.8 19.4-.4 1.2-5.9 5.8-12.4 10.4-6.4 4.5-12.1 8.6-12.6 9-.6.5 42.7.9 99.2.9H512V52h-4c-2.8 0-4-.4-4-1.4 0-1.6-2.7-2.9-4.1-2-.5.3-.8.2-.7-.3.3-.9-6.9-7.7-8.8-8.4-1.5-.5-10.4-8.7-10.4-9.6 0-.3-1.8-3-4-5.9s-4-6-4-6.9c0-.8-.5-1.5-1-1.5-1.6 0-5-8.7-5-12.6V0H0z"/><path d="M354.2 130.1c-1.3.5-3.4.6-4.7.3-2.2-.5-8.2 1.7-12.9 4.8-6.6 4.3-12.4 11.3-18.8 22.7l-2 3.4 2.9-1.8c1.5-1 5.4-3.9 8.6-6.4 15.7-12.3 18.4-14.3 21-15.7 3.2-1.7 9.3-7.2 8.6-7.8-.2-.2-1.4 0-2.7.5"/></svg>