<svg xmlns="http://www.w3.org/2000/svg" width="682.667" height="512" version="1.0" viewBox="0 0 512 384"><path d="M211 1.2c.1 2.5 4.8 17.6 6.8 21.4 3.4 6.7 9.9 14.1 17.7 20.2l7.4 5.9-4.6 4.4c-18.3 17.7-27 40.4-27.7 71.9-.3 12.9-.9 16.5-3.3 21.3-1.4 2.7-1.3 2.8.6 1.8 1.1-.6 2.4-1.9 3-2.9 1.4-2.5 1.9-1.5 3.7 7.4 1.8 9.1 3.4 11.8 2.7 4.7l-.5-4.8 5.9 6.1c3.2 3.4 6.6 7.2 7.5 8.5 1.4 1.9 1.9 2.1 2.6 1 .8-1 1.4-1.1 3.3-.1 2.2 1.1 2.1.9-.6-2-2.2-2.3-2.4-3-1-2.3 1.1.6 2.6.8 3.3.6.6-.3 1.2 0 1.2.6 0 1.7 14.3 10.8 14.7 9.4.3-.9 1.3-.8 3.9.4 3 1.5 3.4 2.1 3.4 5.7 0 2.5-1 6-2.5 8.7-2.3 4.4-2.3 4.7-.7 6.2 1 .9 3.7 2 6 2.6 5.1 1.1 6.2 1.9 4.2 3.1-1.2.7-1.2 1.3-.1 3.2.9 1.8 1.2 8.8.9 28.1-.2 19.9 0 25.8 1 26.2.6.2 1.2 0 1.2-.5 0-.6.6-1 1.4-1 1.1 0 1.6 2 2.1 7.7.8 10.1 4.5 49.3 4.8 51.3.1.8-1 5.3-2.5 10s-3.2 10.4-3.8 12.7l-1.1 4.2-14.2-9.4c-20.9-13.9-26.3-16.8-29.8-16.1-2.5.5-3.7-.2-8.4-4.4-3-2.8-5.9-5-6.4-5-.4 0-1.3-4.4-2-9.8-1.8-15.3-5.5-25.1-12.2-32.3-5.3-5.7-8.7-6.5-22.1-5.1-6.2.6-12.3 1.5-13.6 1.8-1.8.5-2.4.2-2.9-1.5-.8-3.2-2-2.5-3 1.6-.7 3.1-1.9 4.3-7.5 7.7-13.6 8.3-16.4 12.9-17.3 28.2-.8 13.4-.8 13.5 1.5 18.5 1.1 2.4 2 5 2 5.7s1.3 4.6 3 8.5c2.7 6.4 4 8 11.6 14.7 4.7 4.1 9.5 7.8 10.6 8.2 3.4 1.4 14.1 2.7 23.1 2.9 4.8.2 8.7.6 8.7 1 0 .3-1.3 5.8-3 12-1.6 6.3-3 12-3 12.6 0 1 24.6 1.3 119.5 1.3H426l-.1-4.3c0-5.7-2.3-17.7-3.8-20.5-.7-1.3-1-3.4-.7-4.6.3-1.3-.1-5.6-1-9.7-1.7-8.4-7.6-57-7-57.6.2-.2 2 .2 3.9 1 3.1 1.3 3.7 2.2 5.1 7.4 2.6 9.5 5.6 14.6 9.9 16.6 4.1 2 7.5 1.7 10.1-.9 2.1-2 1-4.1-6.3-11.9-6.7-7.2-10.5-14.2-15.9-29l-4-11-.5-18.8c-.3-10.3-.1-18.9.3-19.2.5-.3 1.8 2.5 3.1 6.2 1.2 3.8 3.3 9.3 4.6 12.3 2.7 6.1 11.4 21.3 11.9 20.8.2-.2-1.4-4.6-3.5-9.8-3.9-9.9-5.5-14.9-4.2-13.4.4.5 3.8 5.5 7.6 11.2 3.8 5.6 8 11.2 9.3 12.5l2.4 2.2-1.7-4c-.9-2.2-2.8-6.8-4.1-10.3l-2.4-6.4 5 4.3c2.7 2.3 5.2 4 5.5 3.8.2-.3-1.6-6.1-4.1-12.9s-5-14.7-5.5-17.5c-.5-2.7-1.2-5.8-1.5-6.8-1.1-3.5 1.2-1.5 4.5 3.9 1.8 3 3.5 5.4 3.7 5.2.1-.2-1.2-4.9-3-10.4-1.9-5.5-3.7-12.6-4-15.9l-.7-6 3.6 8c2 4.4 3.9 8.2 4.1 8.4 1.1 1.2 1.1-1.1-.1-6.9-.7-3.6-2-16.4-3-28.5-.9-12.1-2.3-27.6-3.1-34.5-4.4-35.2-16.2-67.2-32-86.7-4.6-5.6-6.6-9.1-7.5-12.8-2.3-9.6-12.6-22.9-24.9-32.2L368.9 0h-21.5c-20.4 0-21.6.1-23.7 2.1-1.8 1.7-2.9 1.9-6.2 1.3-5-1-13.9-1-18.7 0-3 .7-4.2.5-6.4-1.3C289.8 0 289 0 250.4 0 219.5 0 211 .3 211 1.2m49 171.1c0 .5-.7.4-1.5-.3s-1.5-2-1.5-2.9c.1-1.3.3-1.3 1.5.3.8 1.1 1.5 2.4 1.5 2.9m61.2 40.9c.8.7 3.6 4.6 6.2 8.7 5.4 8.4 5.5 7.8-2.8 16.6-4.6 4.9-12.6 15.7-12.6 17.1 0 .3-1.5 2.7-3.4 5.3-1.8 2.5-4.1 6.1-5 7.8-1.6 3.3-4.1 4.7-3 1.8.4-.9 1.8-7.7 3.3-15.3 2.5-12.6 2.9-13.7 4.9-13.7 3.1-.1 4.6-1.9 3.4-4.1-.7-1.4-.1-20 .7-22.1.2-.4 5.5-3.2 6.2-3.3.3 0 1.2.6 2.1 1.2m87.3 23.4c.9 6.7.7 6.7-3.1-.1-3.8-6.9-5.5-18.9-2.4-17 .5.3 1.2 0 1.6-.7.8-1.3 2.6 6.9 3.9 17.8m-113.7 32.3c.7 7.1.8 11 .1 12.3-.6 1.1-1.1 2.9-1.2 4.1-.3 2.9-8.5 19.7-9.7 19.7-1.3 0-1.3-.1 1.4-11.5 1.3-5.5 3.2-15 4.1-21 .9-6.1 1.9-12.1 2.1-13.4.9-4.5 2.2-.6 3.2 9.8"/></svg>