<svg xmlns="http://www.w3.org/2000/svg" width="682.667" height="512" version="1.0" viewBox="0 0 512 384"><path d="M0 192v192h91.8l2.5-3.3c1.3-1.7 3.6-4.5 5-6.1 1.3-1.5 6-7.7 10.3-13.7 4.4-6 12.4-17.1 17.9-24.7 5.5-7.5 11.3-15.7 13-18.1 1.6-2.4 5.3-6.4 8.2-9s5.8-6.2 6.5-8.2c1.4-4.1 6.5-10.7 26-34.1 8.2-9.7 15.7-18 16.8-18.3 1.1-.4 2-1.5 2-2.5 0-2.5 3.7-5 7.3-5 1.6 0 5.1 1 7.8 2.1l5 2.2 3.3-3.7c1.9-2 4.3-3.6 5.5-3.6 2.4 0 2.5-.3 4.1-15.3.6-5.9 1.8-13 2.7-15.7 1.6-4.9 1.6-5.1-1.2-11.7-1.6-3.8-4.8-10.9-7.3-15.8-6.5-13.1-9.2-20.9-9.2-26.5 0-4.9.1-5.1 5.8-9.5 7.4-5.8 10.2-5.9 15.3-.5 3.1 3.3 4.5 6.1 7.4 15.5 2 6.3 3.8 11.5 4 11.5.5 0 3.1-9.5 3.9-14 2.3-13.6 3.6-35.1 3.6-59.6 0-25.4.1-27.8 2-31.4 2.1-4 2.3-4.2 10.5-5.8 11.2-2.3 11.4-2.3 13.1.2.8 1.4 2 6.6 2.6 11.8 1 8.2.8 11-1.3 24.3-2.4 15.6-3.7 47.5-1.9 47.5.5 0 6.2-10.9 12.8-24.3 12.7-25.6 17.5-33.8 24.4-41.3 6.4-7 8.6-7.8 17.1-6.4 8.2 1.4 13.7 4.2 13.7 7.1 0 2.3-3 8.4-5.7 11.7-1 1.2-2.7 3.4-3.8 4.8s-3.2 4-4.6 5.8c-12.1 14.4-37.4 63.6-32.8 63.6.5 0 10.9-10 23.2-22.3 24.8-24.6 30.9-29.3 38.7-29.1 5.9.1 12.2 1.9 15.2 4.3l2.3 1.9-1.9 3.4c-1.1 1.8-2.5 3.8-3 4.4-.9.8-14.5 11.8-20.1 16.2-.5.4-3.7 2.9-7 5.4-6.9 5.4-8.1 6.7-15.6 16.3-2.9 3.8-5.8 7.3-6.4 7.7-2.3 1.7 2.4.6 9-2.1 19.9-8.1 37.9-12.8 44.2-11.6 4 .7 9.3 5 9.3 7.5 0 2.8-8.3 7.5-20.5 11.5-6 2-14.4 5.3-18.5 7.3-8 3.9-23 12.1-23 12.6 0 1.4-4.5 18.3-6.2 23.1-7.5 21.6-21.6 41.2-36.2 50-3.6 2.2-6.5 4.3-6.3 4.6.1.4 4.8 5.6 10.4 11.6 21.6 23 38.3 45.9 38.3 52.2 0 1.1-1.6 3.3-3.5 4.8-4.2 3.3-4.2 4.2-1.1 9.6 1.4 2.3 3 6.4 3.7 9 1.4 5.8 1 6.4-10.6 14.4-4.4 3.1-8.4 6-8.9 6.4-.6.5 43.4.9 100.7.9H512V59h-4c-2.2 0-4-.5-4-1 0-.6-.9-1-2-1s-2-.7-2-1.5-.4-1.5-1-1.5c-.5 0-1.8-.9-2.9-2.1-1.1-1.3-2.4-1.8-3.2-1.4-.8.5-1 .4-.5-.3.8-1.3-8.1-10.2-10.1-10.2-.7 0-1.6-.6-2-1.4s-2.3-3-4-5c-1.8-1.9-3.3-3.9-3.3-4.2 0-.4-1.8-3.1-4-6s-4-5.7-4-6.1-1.1-3.1-2.5-5.8C461.2 8.7 460 5 460 3.2V0H0z"/></svg>