<svg xmlns="http://www.w3.org/2000/svg" width="682.667" height="512" version="1.0" viewBox="0 0 512 384"><path d="M0 192v192h84.5l6.6-8.8c3.6-4.8 11.7-15.9 17.9-24.7 18.3-25.7 23-31.9 26.6-34.4 1.9-1.4 3.6-3.6 3.9-5.3.6-2.3 23.5-32.5 26.5-34.8.3-.3 3.7-4.2 7.4-8.8 3.7-4.5 7.2-8.2 7.7-8.2s1.9-1.5 2.9-3.3c1.1-1.9 3.6-4.2 5.5-5.3 3.5-1.9 3.6-1.9 9.8.3l6.2 2.2 2.5-2.3c3.2-3 6.3-4.6 8.9-4.6 1.2 0 2.1-.6 2.1-1.3 0-4.5 4.4-28.3 6.2-34l2.3-6.9-3.9-10.6c-8.4-23.4-9.6-27.5-9.6-33.2 0-4.6.4-6.2 2.4-8.3 6.4-6.9 14.2-3.6 21.4 9.2 2.8 5 3.1 5.2 3.6 3 1.9-8.7 3.6-31.3 4.2-55.4.7-31.8 1.3-34.5 7.7-37.9 4-2.2 5.6-1.5 8.3 3.5 3.6 7.1 4.6 15.1 5.4 44 .4 16.4 1.1 29.3 1.7 30.4.9 1.5 2.3-.8 9.1-14.6 14.8-30.3 23.9-43.6 34.1-50 5.1-3.3 7.3-3.6 9.2-1.3 2 2.4-.1 8.5-9.6 28.4-9.9 20.9-14.1 31-18.8 45-4.1 12.6-5 16-4.1 16 .4 0 9.3-8.6 19.8-19.1 14.7-14.7 20.8-20.1 26.6-23.5 9.9-5.8 14.5-7.3 16.6-5.2 3.7 3.7-2.9 14-19.3 29.8-6.3 6.2-12.2 13.2-16.5 19.7-3.8 5.5-6.8 10.3-6.8 10.6s4.8-1.4 10.8-3.7c24.5-9.7 38.9-13.2 46.6-11.2 8.5 2.1-4.4 12.5-28.4 22.7-7.1 3-24 12.6-26.1 14.8-.8.9-2.6 6.3-3.8 12.1-4.4 20.2-9.5 31-21.7 46.2-4.5 5.5-7.8 8.6-18.3 16.4-.2.2 3.6 4.5 8.4 9.6 15 15.8 31.2 36.9 36.7 47.7 3.8 7.3 3.6 9.9-.7 13.6l-3.5 3 2.7 5.3c1.5 3 2.8 7.7 3.1 10.7.5 5.6-.2 6.9-5.8 10.7-2.4 1.6 3.3 1.7 100.3 1.7l102.7.1-.2-153.8c-.3-152.9-.3-153.7-2.3-153.8-3.9-.2-4.4-.4-5-2.4-.4-1.1-1.2-1.9-1.9-1.8-1.2.3-3.3-1.2-6.4-4.5-.9-.9-2.1-1.7-2.7-1.7-.7 0-2.2-1.1-3.5-2.5-1.2-1.3-2.6-2.2-3-2-.9.5-6.5-5.4-7.3-7.8-.4-.9-1.5-1.7-2.5-1.7-1.8 0-5.2-2.9-5.2-4.4s-7.2-10.6-8-10.1-4.6-4.5-4.2-5.7c.1-.4-1.4-4.1-3.3-8.3-1.8-4.1-3.1-7.5-2.7-7.6.4 0-.3-.4-1.5-.9-1.3-.5-2.3-1.7-2.3-2.5 0-.9-.7-2.3-1.5-3.1-.8-.9-1.5-3.3-1.5-5.5V0H0z"/></svg>