<svg xmlns="http://www.w3.org/2000/svg" width="682.667" height="512" version="1.0" viewBox="0 0 512 384"><path d="M0 192v192h78.8l2.4-2.8c1.2-1.5 10.8-14.8 21.2-29.4 10.7-15 20.4-27.5 22.3-28.8s3.7-3.7 4.4-5.8 4.8-8.2 9.3-13.7c15.7-19.6 31.7-38.3 33.1-38.9.9-.3 2-1.7 2.5-3 1-2.8 7.6-6.6 11.3-6.6 1.4 0 4.4.7 6.7 1.5 4 1.4 4.5 1.4 6.4-.3 2.5-2.1 6.3-4 9.1-4.4 1.6-.3 2.1-1.4 2.8-5.8 1.6-11.2 3.8-21.7 6.3-30.1l2.6-8.6-4.5-13.4c-5.3-15.4-7.7-24.5-7.7-28.5s3.3-9 7.1-11c5.5-2.8 12.5.7 16.8 8.4.5.9 1.2 1.4 1.5 1.1 1.5-1.5 3.7-25.8 4.1-46.4.8-32.5.9-33.1 5.5-37.7 4.4-4.5 8.2-5 10.5-1.5 3.8 5.8 5.3 17.3 5.8 44.2.3 14.3.9 27.3 1.4 28.8.8 2.6 1.6 1.3 11.2-17.5 5.7-11.2 11.7-22.3 13.4-24.8 6.6-9.6 17.6-19.5 22.2-20 4-.5 4.5 0 4.5 3.9 0 4.4-1.3 7.9-7.5 20.1-9.6 19.1-21.7 49.7-24 61-.7 3.2.5 2.2 14.1-11.6 18.1-18.3 25-24.1 34.9-29 6.5-3.2 7.9-3.6 10-2.6 1.4.6 2.5 2 2.5 3 0 3.6-8.3 14.8-19.5 26.2-10.4 10.7-16.8 18.9-20.9 26.7-1.9 3.9-1.4 4 5.1 1.2 2.6-1.1 10.7-4.1 17.8-6.6 14.7-5.1 28.2-6.8 31.9-4.1 1.8 1.4 1.7 1.6-1.3 5-4.2 4.8-11.2 9.2-21.3 13.4-11.9 5-23.6 11-29 14.9-3.8 2.8-4.8 4.2-5.3 7.2-1.2 7.1-5.3 22.8-7.5 28.5-3.4 9.2-13.4 23.5-22.7 32.6l-8.5 8.3 8.4 8.7c19.7 20.5 36.3 44.2 38.4 54.9.5 2.5 0 3.7-2.6 6.7l-3.2 3.6 2.3 5.3c1.5 3.5 2.3 7.2 2.3 11.4l.1 6.3H512V90h-2.4c-1.4 0-2.8-.5-3.2-1.1-.5-.8-.8-.8-1.4 0-.9 1.5-3.8.4-4.5-1.8-.5-1.6-4.6-4.3-6.8-4.5-.4-.1-1.8-1-3-2.2-1.2-1.1-3-2.3-4-2.7s-1.5-1.1-1.2-1.7c.3-.5 0-.7-.8-.4s-2.7-1-4.4-3c-1.6-2-3.3-3.3-3.6-2.9-.4.3-.7.1-.7-.6s-.5-.9-1-.6c-.6.4-.9.3-.8-.2.3-1-6.5-7.3-7.8-7.3-.5 0-2.2-2-3.7-4.5-1.6-2.5-3.5-4.5-4.3-4.5s-2-1.2-2.6-2.8c-.7-1.5-2.6-4.5-4.3-6.7-6.1-8-8.4-12.1-10.1-18.2-.9-3.5-2.5-7.2-3.6-8.2-1.4-1.6-1.8-3.6-1.8-9.1V0H0z"/></svg>