<svg xmlns="http://www.w3.org/2000/svg" width="682.667" height="512" version="1.0" viewBox="0 0 512 384"><path d="M0 192v192h36.9c30.8 0 37-.2 37.4-1.4.5-1.4 3.7-5.8 25.6-36.4 5.7-7.9 11.4-15 12.7-15.9 1.3-.8 3.3-3.4 4.3-5.7 2.7-5.9 32.9-43.7 42.3-52.8 2.1-2.1 3.8-4.2 3.8-4.6 0-.5 1.7-1.8 3.9-3 4.2-2.4 11.8-2.9 15.3-1.1 1.6.9 3.3.4 9.2-2.6l7.3-3.7 2.2-13.4c1.2-7.4 3.5-17.2 5.1-21.9l2.8-8.4-4.3-13.9c-7.8-25.1-8.1-28.9-1.9-34.8 5.7-5.6 10.6-5.8 16.1-.4 2.8 2.7 3.2 2.9 3.7 1.3 1.5-5.4 2.8-20.7 3.5-44.3.6-16.6 1.4-27.8 2.1-29.9.8-2.1 2.9-4.3 5.8-6.2 5.3-3.3 7.5-2.7 9.8 2.7 3.4 8.2 4.4 17.3 4.5 42.2.1 13.6.4 25.8.8 27.2.6 2.3.9 2 3.6-3.5 6.7-13.8 18-34.4 22-40.1 5.4-7.5 10.7-12.3 16.9-15.4 3.6-1.7 5.3-2 6.5-1.3 3.1 2 1.5 8-6.8 25.2-4.3 9.1-9.1 19.5-10.6 23.1-3.9 9.2-12.5 34.1-12.5 35.9 0 .9 5.5-4.2 12.3-11.3 14.1-14.9 24.1-23.3 33.8-28.2 7.4-3.7 11-4.2 12.9-1.9 2.6 3.1-3.3 12-18 27-11.1 11.3-24.7 30.5-21.6 30.5.2 0 2.8-1.1 5.7-2.4 24.5-10.7 49.9-14.9 49.9-8.2 0 3.4-12.8 12-25.5 17.1-11 4.4-23.4 11-27.9 14.7-2.7 2.2-3.5 3.7-4 7.7-1.3 9.7-5.9 25.7-9.4 32.6-4.4 8.8-12.9 20.3-20.6 27.8l-5.9 5.7 5.5 5.8c9.9 10.3 11.9 12.6 17.2 19.2 13.5 16.7 23.6 34.4 23.6 41.2 0 1.4-1.2 4-2.6 5.8l-2.6 3.1 2.1 5.8c1.1 3.2 2.1 7 2.1 8.5v2.6h217V103l-5.9-3c-3.4-1.7-6.1-2.5-6.3-1.9-.5 1.4-3.8 0-3.8-1.7 0-.8-.8-1.5-1.7-1.5-1-.1-2.5-.3-3.3-.4s-2.1-.3-2.7-.4c-.7 0-1.3-1-1.3-2.2 0-1.1-.4-1.7-1-1.4-.5.3-1 .1-1-.4 0-.6-.3-1-.7-.9-2.2.4-14.5-7.2-17.9-11.1q-2.25-2.55-2.4-1.2c0 1-1 .5-3-1.4-1.8-1.7-2.6-3.1-2-3.5 1.1-.7-6.1-7.1-9.2-8.3-1-.3-1.8-1.4-1.8-2.3 0-1-1.8-4.1-4-7s-4-5.7-4-6.1c-.1-.4-1.4-2.4-3-4.3-1.7-1.9-3-4.2-3-5.2s-.3-1.8-.8-1.8c-.4 0-2-4.5-3.7-10-1.6-5.5-3.7-10.9-4.7-12-1.4-1.4-1.8-3.5-1.8-8.5V0H0z"/></svg>