<svg xmlns="http://www.w3.org/2000/svg" width="682.667" height="512" version="1.0" viewBox="0 0 512 384"><path d="M0 192v192h28.8l28.7-.1 10-14.6c5.5-8 11.9-16.4 14.1-18.7 2.3-2.3 4.9-5.7 5.8-7.6 1.3-3 18.7-25.7 25.9-34 1.2-1.4 4.4-5.2 7.1-8.5s6.5-7.5 8.3-9.3 3.3-3.7 3.3-4.2 2.6-2.6 5.7-4.7c5.7-3.7 6-3.8 15.3-3.8 7.4 0 10-.4 12-1.8 1.3-.9 3.2-1.7 4.2-1.7 1.6 0 2.5-2.8 4.4-14.5 1-6.7 4.3-19.7 6.5-25.6l2-5.6-4-14.8c-2.8-10-4.1-16.9-4.1-21.1 0-6.2 0-6.3 4.8-10.3 5.6-4.9 8.4-5.8 12.9-4.2 1.9.7 3.7 1.1 3.9.8 1.2-1.2 3.3-24.5 3.8-43.7.8-28.1 1.6-30.9 9.8-35.1 5.1-2.6 6.5-2.4 8.7 1.2 3.6 5.9 4.6 15 4.6 41.9 0 14 .4 25.7.8 26 .5.3 4.4-6.5 8.8-15 9.8-18.8 11-20.9 17.2-28.8 5.4-6.9 14.8-13.2 19.8-13.2 2.5 0 2.9.4 2.9 2.9 0 3.9-1.7 8.3-9.3 24.1-7.8 16.3-22.1 54-20.4 54 .2 0 7.7-7.3 16.7-16.3 14.4-14.1 17.5-16.7 24.2-19.9 10-4.9 12.1-5.3 14.2-3.3.9.9 1.6 2 1.6 2.4 0 2.4-8.8 14.3-16.6 22.4-5 5.2-10.4 11.2-12.1 13.4-3.4 4.3-11.7 18.3-11.1 18.8.2.2 3.4-1 7.3-2.6 21.7-9.3 42.7-13 46.6-8.3.9 1.1.8 1.9-.4 3.6-2 3.1-15.8 11.3-23.8 14.2-13.4 4.9-29.4 14.2-30.8 17.9-.5 1.2-1.1 4.9-1.5 8.2-1.1 9.7-5.5 24.5-9.2 31.3-3.8 7-9.3 14.7-16.7 23.5l-4.9 5.7 7.5 7.8c26.9 27.6 42.6 58.2 34.2 66.6-.8.8-1.5 2.2-1.5 3 0 1.4 11.8 1.6 123 1.6h123V123.2l-5.2-.5c-5.9-.4-9.3-1.5-18.8-6.1-3.6-1.7-7.2-3.1-8-3.2-3.8-.2-8-1.8-10.6-4-1.5-1.4-3.4-2.2-4.1-2-.7.3-1.3.1-1.3-.5 0-.5-1-1.4-2.2-2-6.4-2.8-13.3-8.7-14.4-12.1-.3-1-1.4-1.8-2.4-1.8-1.1 0-3.2-1.3-4.8-2.8s-3.5-2.6-4.2-2.4c-.9.3-1.1-.2-.8-1.6.6-2.1-3.9-7.3-7.4-8.5-1-.4-1.8-1.5-1.8-2.5 0-1.1-.7-2.5-1.5-3.2-2.1-1.7-13.5-20.8-13.5-22.5 0-.7-.3-1.5-.8-1.7-.9-.4-4.1-9.6-5.8-17.1-.8-3.3-2.1-6.8-2.9-8-1.1-1.5-1.5-4.8-1.5-11.4V0H0z"/></svg>