<svg xmlns="http://www.w3.org/2000/svg" width="682.667" height="512" version="1.0" viewBox="0 0 512 384"><path d="M0 192v192h37.9l2.2-3.3c1.3-1.7 4.4-5.6 7.1-8.5 2.6-3 4.8-5.9 4.8-6.5.1-.7 1.3-2.8 2.8-4.8 10.1-13.6 21.5-27.7 37.9-47.1 6.9-8.2 15.3-14.1 21.9-15.6 2.1-.4 6.5-.7 9.6-.5 4.3.3 6.8-.2 9.6-1.6l3.9-2 2.3-12.3c1.2-6.7 3.7-16.5 5.5-21.8l3.2-9.5-2.9-9.5c-3.6-12.3-4.8-18.2-4.8-24.1 0-6.6.4-7.3 7.3-12 5.1-3.5 6.5-4 9.8-3.6 3.8.5 3.9.4 4.8-3.1 1.9-7.5 3.1-19.3 4.1-41.2.6-12.4 1.5-24.2 1.9-26.3 1.2-4.9 3.4-7.3 9.4-10.4 5.4-2.7 6.6-2.3 9.3 2.9 3.9 7.5 4.6 19.6 3 48.3-1.3 20.7-.5 20.8 9.3 1.4 4.6-9 9.8-18.7 11.6-21.4 4.8-7.4 12.5-15 18.4-18 12-6 12.7-.9 2.7 20.5-3.7 8-7.1 15.4-7.6 16.5-.4 1.1-1.5 3.6-2.3 5.5s-2.5 6.2-3.7 9.5c-2.3 6.5-9 25.8-9 25.9s7.5-7.4 16.7-16.5c15.2-14.9 17.6-16.9 25.3-20.7 9.6-4.7 11.5-5 13-2.3 2 3.9-3.1 12.1-16.4 26.2-7.4 7.9-17.6 21.5-17.6 23.5 0 .3-.9 1.7-2 3.1-2.9 3.8-2.5 4.5 1.8 2.7 2-.9 9.3-3.7 16.2-6.1 10.2-3.7 14.2-4.6 21.5-5 8.1-.5 9.2-.3 11.5 1.6l2.5 2.1-4 3.5c-5.2 4.5-14.9 9.6-25.9 13.6-4.9 1.7-12.7 5.7-17.6 9-7.7 5-9 6.2-9.4 9.1-4.8 29.5-9.3 41.2-22 56.3-7.8 9.4-7.8 7.7.1 15.8 17.6 18 30.2 37.5 33.5 51.6l1.1 5.1H512V152h-8c-7.9 0-8 0-8-2.5 0-1.4-.6-2.5-1.3-2.5-.8 0-2.7-.6-4.3-1.4s-4.8-1.6-7-1.8c-2.3-.3-5.3-1.2-6.8-2.1-1.4-.9-3.4-1.7-4.5-1.7s-2.3-.5-2.7-1.1c-.5-.8-.8-.8-1.3 0s-1.3.5-2.7-.6c-2.8-2.5-9.5-5.9-11.1-5.5-.7.2-1.3-.1-1.3-.7 0-1.1-5.6-4.1-7.8-4.1-.8 0-3.6-1.8-6.2-4s-5-4-5.4-4c-.3 0-2.4-2-4.7-4.5s-4.5-4.2-5-4c-.4.3-2.2-1.3-4-3.5-1.7-2.1-3.5-3.7-3.9-3.5-1 .6-6.9-6-8-9.1-.6-1.4-2-2.8-3.3-3.3-1.2-.5-2.7-1.9-3.3-3.2-3.3-7.1-4-8.3-5.5-8.6-.8-.3-2.4-2.9-3.4-5.9s-2.4-5.8-3-6.2-1.9-2.9-2.9-5.5c-1-2.7-2.6-5.6-3.6-6.5-2.1-2.1-7-16.8-7-21.1 0-1.7-.4-3.1-1-3.1-.5 0-1-1.8-1-4s-.4-4-1-4c-.5 0-1-1.8-1-4s-.4-4-.9-4-1.2-3.6-1.6-8l-.7-8H0z"/></svg>