<svg xmlns="http://www.w3.org/2000/svg" width="682.667" height="512" version="1.0" viewBox="0 0 512 384"><path d="M0 192v192.1l14.6-.3 14.7-.3 3.9-6.5c4.1-6.8 20.2-27.3 37.1-47.3 13.8-16.4 23.7-22 37.5-21.6 4.8.1 11.2-1.2 11.2-2.4 0-2.9 5.8-27.8 7.9-34l2.8-8.4-3.4-11.9c-4-13.5-5.1-23-3.4-27.1.6-1.5 3.7-4.5 6.9-6.6 4.9-3.3 6.3-3.8 9.9-3.4l4.2.4 1-5.1c2.1-10.5 3.1-20.7 4.1-41.6 1.5-30.3 2.1-32.1 11.6-36.8l5.6-2.7 2.3 2.7c4.7 5.5 6.4 21.1 4.6 43.7-.8 9.4-.9 17.4-.4 20.1l.9 4.5 10.4-19.9c11.7-22.1 17.9-30.1 27.6-35.6 5.9-3.3 9-3.6 10.7-.8 1.3 1.9-.3 6.1-10.6 28.3-3.5 7.7-7.7 17.4-9.2 21.5-4.2 11.4-9.3 26.5-9 26.8.1.1 7.1-6.7 15.6-15 16.6-16.5 26.7-23.7 34.5-24.6 9.7-1.1 5.6 7.9-12.7 27.8-8.4 9.3-21.7 28.5-20.4 29.8.2.2 4.1-1.2 8.7-3.1 15.9-6.8 24.4-9 34.2-8.9 7.3 0 9.2.3 10.2 1.7.7.9 1.1 2.2.8 2.9-.9 2.4-16.3 11.7-23.1 14-13.6 4.7-26.9 12-31.4 17.2-.9 1.1-2.2 5.5-2.8 9.9-3.3 21.2-8 33.1-19 47.3-3.9 5.1-7.1 9.6-7.1 9.9 0 .4 3.7 4.5 8.3 9.2 10.5 11 12.2 13.1 17.9 21.6 4.9 7.4 11.8 21 11.8 23.2 0 1.1 28.2 1.3 146.5 1.3H512V174.1l-3.7-1c-2.1-.5-6.9-1.7-10.8-2.7-3.8-.9-8-1.7-9.3-1.7-1.3.1-2.1-.2-1.8-.5s-2.6-1.8-6.5-3.4c-4-1.6-7.4-2.6-7.7-2.3-.3.2-2.1-.4-4.1-1.4s-5.5-2.6-7.8-3.6-4.4-2.3-4.7-3.1c-.3-.7-2.2-1.6-4.3-2s-5.6-2.1-7.8-3.8-6.1-4.1-8.6-5.4c-2.6-1.2-5.2-2.9-5.9-3.7s-2.1-1.5-3.2-1.5c-1 0-1.6-.5-1.3-1 .3-.6-.1-1-1-1-1.9 0-8.1-4.7-14.4-11-2.5-2.5-4.8-4.4-5.2-4.3-1 .3-3.6-2.9-4-4.9-.2-.9-3.5-4.3-7.4-7.5-3.8-3.2-7.5-7-8.2-8.3-.7-1.4-1.8-2.9-2.5-3.5-.8-.5-2.4-3.3-3.6-6-1.2-2.8-2.2-4.3-2.2-3.5-.1 1.3-2.8-3.9-3.4-6.5-.5-2.2-4-8.5-4.7-8.5-.4 0-1.3-1.7-2-3.8-.7-2-1.8-4.2-2.4-4.7-.7-.6-2.5-5.1-4-10-1.5-5-3.2-9.4-3.6-9.9-.5-.6-.9-2.2-.9-3.7s-.4-3-.9-3.3-1.2-3.3-1.6-6.6-1.1-6-1.5-6c-1.2 0-4-13.1-4-18.9V0H0z"/></svg>