<svg xmlns="http://www.w3.org/2000/svg" width="682.667" height="512" version="1.0" viewBox="0 0 512 384"><path d="M0 192v192h16.6l11.5-14.7c6.3-8.1 12.2-15.5 13.1-16.4.9-1 3.8-4.4 6.4-7.6s5-6 5.3-6.3 1.8-2.1 3.3-4.1c2.9-3.9 13.7-10.9 20.4-13.3 2.3-.8 8.3-1.8 13.3-2.1 8.2-.7 9.2-1 9.6-2.9.2-1.1 1.3-6.7 2.4-12.4 1.1-5.6 3.3-14.1 4.9-18.8l2.9-8.5-3.5-11.2c-4.2-13.7-5.4-26.7-2.8-29.6 2.4-2.7 13.1-9.1 15.1-9.1.9 0 2.5.5 3.5 1 1.1.6 2.1.6 2.4.1 1.6-2.5 4.7-28.1 5.6-46.1 1.6-30.6 2.1-32.7 9.3-37.3 7.4-4.7 8.2-4.9 10.6-2.4 5.1 5.5 6.5 21 4.7 50.4-.5 7.8-.6 15-.2 15.9.5 1.4 3-2.5 9.3-14.6 13.5-25.9 19.8-34.1 30.6-39.7 6.2-3.1 9.1-2.8 9.5 1.1.4 3.2-.3 5.3-6.4 18.2-8.8 18.9-20.1 47.5-21.9 55.9-.7 3-.7 3 2.6-1 6.7-8.1 21.6-22.9 27.9-27.7 3.5-2.7 9.7-6.5 13.6-8.5 6-2.9 7.5-3.3 9.3-2.4 1.1.7 2.1 2 2.1 2.9 0 3.5-7.7 14.6-17.6 25.2-6.4 7-12.2 14.5-15.9 20.6-3.1 5.2-5.5 9.7-5.3 9.9.2.3 3.3-.9 6.7-2.6 3.5-1.6 11.2-4.5 17-6.5 8.8-2.9 12-3.5 18.9-3.5 8.4.1 12.2 1.1 12.2 3.5 0 3.2-13 11.8-23.1 15.3-11.3 3.9-20.8 8.5-27.5 13.5-6.1 4.6-6.1 4.6-6.8 10.9-1.2 10.5-6.2 28.4-10 35.6-2 3.7-6.3 10.4-9.6 14.7-5.6 7.4-7.1 10.6-5.2 10.6 1.5 0 16.1 15.4 21.2 22.4 2.8 3.8 6.8 10.2 9.1 14.2l4 7.4H512l-.2-91.6-.3-91.7-6.5-1.7c-3.6-.9-8.5-2.2-11-2.9-2.5-.6-5.8-1.4-7.5-1.7-1.6-.3-3.9-1.2-5.1-1.9s-3.9-1.7-6-2.1-5.5-1.4-7.4-2.2c-1.9-.9-3.9-1.5-4.3-1.4-1.3.3-6.7-2.8-6.7-3.8 0-.6-.3-.9-.7-.9-1.8.3-7.3-1.4-7.3-2.3 0-.5-.4-.7-.9-.3-.6.3-2.6-.4-4.5-1.5-2-1.1-3.6-1.7-3.6-1.4s-1.3-.4-2.9-1.5c-1.6-1.2-3.5-2.1-4.2-2.1-.6 0-3-1.5-5.3-3.4-2.3-1.8-5.4-4-7.1-4.8-1.6-.9-5.9-3.8-9.5-6.4-3.6-2.7-7-4.9-7.5-5-1.6-.2-9.8-8.3-11-10.8-.6-1.2-1.6-2.1-2.2-2.1s-3.1-2-5.6-4.5-7-6.9-10.1-9.8-5.6-5.9-5.6-6.7-.3-1.5-.8-1.5c-.4 0-1.3-1.2-1.9-2.8-.7-1.5-2.4-4-3.8-5.6s-2.5-3.2-2.5-3.5-1.3-2-2.8-3.6c-1.5-1.7-3.9-5-5.3-7.5-1.3-2.5-2.7-4.7-3.1-4.8-.5-.2-.8-.8-.8-1.3s-1.6-3.2-3.5-5.9-3.5-5.2-3.5-5.5-1.1-2.8-2.5-5.7c-1.4-2.8-2.5-5.9-2.5-6.7 0-.9-1.4-4.9-3-9-1.7-4-3-7.9-3-8.6 0-.8-.6-2-1.3-2.7s-1.9-4.5-2.6-8.3c-.8-3.9-1.7-7.7-2.1-8.5-1.8-3.7-3.4-12.2-3.8-19.8l-.3-8.2H0z"/></svg>