<svg xmlns="http://www.w3.org/2000/svg" width="682.667" height="512" version="1.0" viewBox="0 0 512 384"><path d="m0 188.7.1 188.8 2.5-3c1.4-1.7 4.3-5.3 6.4-8.1 8.6-11.5 25.1-20.7 39.8-22.4 4-.4 7.5-1 7.8-1.3s1.6-5.5 3-11.6c1.4-6.2 3.6-14.1 5-17.7L67 307l-4.5-15.6c-4.5-15.6-5.4-21.9-3.5-25.5 1.1-2 10.5-8.4 14.7-10 1.7-.6 3.5-.4 6 .6 2 .8 3.8 1.4 4 1.1 1.5-1.4 5.5-28.7 6.8-45.6 1.8-23.8 3-32.1 5.1-36.2.8-1.6 4.3-4.7 7.6-6.9l6.1-3.9 2.4 2.2c2.6 2.5 3.7 5.9 5.3 17.3.9 6.5.9 10.8-.5 22.9-1.4 12.7-1.9 29.6-.9 29.6.2 0 2.9-4.8 6-10.8 17.3-32.6 22.1-39.3 33.4-46.8 7-4.7 9.5-5.2 11.4-2.2 1.3 2.2-.6 8-7.6 22.8-7.3 15.4-12.4 27.8-17.9 43-2.7 7.4-4.9 13.6-4.9 13.8s7.5-7.3 16.8-16.6c10.8-11 19.2-18.5 23.7-21.4 9.7-6.2 10.9-6.8 14.4-6.8 2.8 0 3.1.3 3.1 3.3 0 4.8-5.8 13.2-17.6 25.8-6.7 7.1-11.8 13.7-15.7 20.4-3.1 5.4-5.6 9.9-5.4 10.1s3.2-1 6.8-2.7c3.5-1.7 11.1-4.6 16.8-6.5 8.5-2.8 12-3.4 18.7-3.4 14.4 0 16.9 3.1 8.1 9.7-7 5.3-11.9 7.8-21.9 10.9-9.2 2.9-18.9 7.7-25.9 12.9-4.4 3.2-4.7 3.7-5.8 10.2-3.4 20-9.4 35.5-18.5 47.5-5.3 7-6.6 9.8-4.8 9.8 1.2 0 14.3 13.2 18.7 18.8l4 5.2H512V259.2l-4.2-.7c-14.2-2.1-30-5.8-44.8-10.2-13.2-4-31.8-11.1-34-12.9-.8-.7-3.3-1.5-5.5-1.9s-6.4-2.3-9.2-4.2c-2.9-1.9-7-4.1-9-5-2.1-.8-5.1-2.6-6.6-3.9-1.6-1.3-3.7-2.4-4.8-2.4-1 0-1.9-.4-1.9-.9s-.9-1.2-1.9-1.6c-1.1-.3-3.9-2.1-6.3-4-2.3-1.9-4.8-3.5-5.5-3.5s-2.8-1.4-4.6-3c-1.9-1.7-3.8-3-4.1-3-.4 0-1.9-1.4-3.3-3-1.3-1.7-2.9-3-3.5-3-1.2 0-14.8-11.2-14.8-12.2 0-.4-.4-.8-1-.8-1.8 0-23.6-22.8-29.5-31-2.2-3-5.4-7-7.2-8.9s-3.3-4-3.3-4.8c0-.7-.4-1.3-.9-1.3-.4 0-1.6-2-2.5-4.5-1-2.5-2.3-4.5-2.9-4.5-.7 0-2.7-2.8-4.6-6.3-1.9-3.4-3.8-6.5-4.3-6.8s-1-1.6-1.3-2.9c-.2-1.3-1.4-3.1-2.5-4.2-1.1-1-2-2.5-2-3.2s-.8-2.4-1.8-3.7-2.9-5.7-4.2-9.7c-1.4-3.9-2.8-7.2-3.1-7.2-.4 0-1.1-1.5-1.4-3.3-.4-1.7-1-3.7-1.4-4.2-1.1-1.6-4.8-11.5-6.6-17.5-.9-3-2.3-7.1-3-9-1.3-3.3-3-10.3-7.5-30.7-1.1-5-2-11.4-2-14.2V0H0z"/></svg>