<svg xmlns="http://www.w3.org/2000/svg" width="682.667" height="512" version="1.0" viewBox="0 0 512 384"><path d="M0 151.6c0 144 .1 151.6 1.8 150.8 4.6-2 8.1-1.2 12.5 2.7l4.4 3.8 1.7-5.2c4.3-13.9 8-33.9 9.6-52.2 1.3-13.8 3.6-27.6 5.5-32.2 1.4-3.2 12.5-12.3 15-12.3 2.4 0 5.4 5.6 6.4 12.1 1.5 8.8 1.3 19.7-.4 30.9-.8 5.2-1.7 14.7-2.1 21-.6 10.2-.5 11.3.9 10 .8-.8 6.1-9.6 11.7-19.5 5.7-9.9 11.9-20.3 13.9-23 8-11.2 22-22.9 26.8-22.3 2.6.3 2.8.6 2.7 4.7-.1 3.5-2.1 8.3-9.7 23.1-9.4 18.2-18.5 38-23.4 50.9-3 7.9-3.6 8.4 15.8-10.9 26.6-26.3 45.5-38.4 47.5-30.4 1 3.8-6.3 13.8-19.1 26.5-9.9 9.7-24.6 29.1-23.1 30.6.3.3 4.7-1.3 9.8-3.5 17.8-7.6 33.9-10.4 43-7.3 5.5 1.8 5.4 3.4-.5 8.6-6.3 5.6-10.5 7.9-18.3 9.9-14.2 3.7-34.1 13.4-36.3 17.6-.5.8-2.6 7.3-4.7 14.5-2.1 7.1-6.1 17.6-9 23.3L77.3 384H512v-40h-7.7c-17.2 0-68.2-7.6-83.1-12.4-2.6-.8-6.3-1.7-8.2-1.9-1.9-.3-6.3-1.7-9.7-3.1-3.5-1.4-7-2.6-7.9-2.6s-3-.6-4.7-1.4c-9.4-4-15.8-6.6-20.7-8.1-3-1-5.9-2.1-6.5-2.5-1.7-1.3-16.8-9-17.7-9-.5 0-3.3-1.5-6.3-3.3-3-1.7-7.9-4.6-10.8-6.2-5.9-3.3-16.5-10.3-18.5-12.3-.7-.6-1.8-1.2-2.4-1.2s-1.8-.7-2.7-1.5c-.9-.9-6.6-5.3-12.7-9.8-17.6-13.1-26.3-20.1-26.9-21.9-.3-.9-1.5-2-2.5-2.3-1.1-.4-2.6-1.2-3.2-2-12.6-13.2-16.1-17-20.6-22.2-2.9-3.3-6.6-8-8.4-10.4-1.7-2.4-3.6-4.9-4.2-5.6-2.1-2.4-3.2-3.9-6.4-8.5-1.8-2.5-3.8-5.2-4.4-6-.7-.7-2.1-2.9-3-4.8-2.1-4-4-7.3-4.9-8-.4-.3-2.1-3.4-4-7-1.8-3.6-3.9-7.1-4.6-7.8s-1.3-2-1.3-2.8-.4-1.4-1-1.4c-.5 0-1-.7-1-1.5s-1.1-3.9-2.5-6.9-2.5-6-2.5-6.6-1.6-4.1-3.5-7.7-3.5-7.2-3.5-8c0-.7-.4-1.3-1-1.3-.5 0-1-.7-1-1.5 0-.9-.9-3.5-2-5.7-1.1-2.3-2-5-2-5.9 0-1-1.3-4.6-2.9-8.1s-3.5-9.1-4.1-12.6c-.7-3.4-1.6-6.2-2.1-6.2-.4 0-1.1-2.1-1.4-4.8-.4-2.6-1.3-6.4-2.1-8.5s-1.7-6.4-2-9.5c-.3-3.2-1-7.1-1.5-8.7-.6-1.7-1.2-4.8-1.5-7s-.9-5.1-1.4-6.5c-.4-1.4-1.1-7-1.5-12.5-.6-10-.9-13.4-2.1-23.3l-.6-5.2H0z"/></svg>