<svg xmlns="http://www.w3.org/2000/svg" width="682.667" height="512" version="1.0" viewBox="0 0 512 384"><path d="M0 157.2c0 86.4.2 156.9.4 156.7 1.3-1.4 7-30.8 8.7-44.8 3.6-31.5 5.6-37.5 14.4-43.4 3-2 6.4-3.7 7.5-3.7 6.6 0 8.7 21.3 4.7 47-2.2 13.8-3.1 29.4-1.7 28.5 1.2-.8 4.3-5.5 8.7-13.5 4.9-9 14.2-24.1 18.8-30.5 7.4-10.4 22.8-23.5 27.6-23.5 5.7 0 3.3 10.2-6.1 26-5 8.4-18.3 35.3-23 46.5-2.3 5.5-4.6 10.8-5.1 11.8-1.8 3.3.7 1.6 7.1-4.9 9-9.2 30.3-28.2 38.5-34.4 9.2-7 16.5-10.5 19.9-9.6 6.3 1.6.8 10.6-17.3 28.6C92.4 304.6 78 322.4 78 325.1c0 .4 4.2-1.1 9.3-3.3 14.5-6.3 26.3-9.1 36.8-8.6 7.7.3 9.1.6 11.1 2.6l2.3 2.3-5 4.5c-6.4 5.7-10.9 8.1-19.8 10.4-4 1-9.9 2.8-13.1 3.9-6.6 2.3-20.5 10.2-22.8 12.9-.8.9-3.2 7.1-5.2 13.7-2.1 6.6-4.7 13.7-5.7 15.7-1.1 2.1-1.9 4-1.9 4.3s100.8.5 224 .5h224v-11.6l-22.2-1.3c-12.3-.7-24.8-1.6-27.8-2.1s-10.7-1.4-17-2c-6.3-.7-11.9-1.6-12.5-2-1.1-.8-5-1.7-14-3-9.3-1.3-16.4-2.9-18.6-4-1.1-.6-4.6-1.5-7.7-2-3.1-.6-5.8-1.4-6-2-.2-.5-1.4-1-2.6-1s-2.6-.4-3.2-1c-.5-.5-5-2.1-9.9-3.5-5-1.4-11.6-3.9-14.8-5.5-3.1-1.7-6.4-3-7.3-3s-2.8-.6-4.2-1.4c-5-2.7-15.9-7.6-16.8-7.6-.5 0-4.4-2.2-8.6-4.9s-9.8-5.9-12.3-7c-2.6-1.1-6-3.2-7.7-4.6s-4.9-3.5-7.1-4.6c-2.2-1.2-4.5-2.5-5.1-3-1.3-1-12.9-8.9-15.4-10.4-6.2-3.7-12-8-11.6-8.6.2-.4-1.2-1.4-3.1-2.3-4.5-2.2-13.2-9.5-21.5-18.1-9.3-9.7-10.1-10.5-16-15.5-7-6-9.1-8.1-11.5-11.5-1.1-1.6-3.4-4.5-5.1-6.5-1.7-1.9-4.1-5.1-5.4-7-1.4-1.9-3.5-4.6-4.8-5.9-1.4-1.3-3.1-4-3.9-6-.9-2-1.8-3.8-2.2-4.1s-2.2-3.2-4-6.4c-1.8-3.3-3.8-6.5-4.5-7.1-.6-.6-2-2.9-3.1-5.1-1.1-2.1-2.2-4.1-2.5-4.4-1.3-1.3-6-11.7-6-13.2 0-.9-.6-2.3-1.3-3-2.5-2.5-10.4-20.5-12.7-28.8-1.8-6.5-3.1-10-3.9-10-.4 0-.8-1.1-.9-2.5s-1.1-4.3-2.2-6.5c-1.1-2.1-2-5.3-2-6.9s-.5-3.3-1-3.6-1-1.4-1-2.3c0-1-.9-3.5-2-5.7s-2-5.2-2-6.7-.7-4.4-1.6-6.5c-3-7-3.3-7.8-4-13.3-.7-6-3.8-19.2-4.8-20.9-.4-.6-.2-1.1.5-1.1s.9-.8.5-2.3c-.3-1.2-1.1-5.6-1.7-9.7-.5-4.1-1.2-8.6-1.5-10-1-5.8-2.3-17.1-3-25.8l-.6-9.2H0z"/></svg>