<svg xmlns="http://www.w3.org/2000/svg" width="682.667" height="512" version="1.0" viewBox="0 0 512 384"><path d="M0 121c0 66.5.4 121 .8 121 .5 0 2.8-1.4 5-3 5-3.6 5.5-3.6 8.1-.9 4.6 5 5.1 23.2 1.2 47.3-1.2 7.8-2.1 17-1.9 21l.3 7.1 3.1-5c1.8-2.8 8-12.9 14-22.5 11.8-19.1 21.9-30.8 32.7-38 7-4.7 9.4-5 10.3-1.3 1 3.8-1.3 9.1-11.9 28.1C47.4 300.3 34 327.7 34 331.3c0 .6 4.6-3.4 10.3-9 12.7-12.6 33-29.9 42.1-36 11.2-7.5 18.6-9.1 18.6-3.9 0 4-6.1 11.8-19.6 25.1-12.3 12.1-27.2 30-26 31.2.3.3 4.3-1.1 8.8-3.1 9.8-4.3 27.3-8.6 34.3-8.5 6.8.1 13.6 2 14.9 4.2.9 1.5.4 2.4-3.4 5.8-6.2 5.4-12.2 8.4-22.1 10.9-12 3-20.3 6.4-28.7 11.8l-7.3 4.7-3.3 9.7-3.2 9.8h161.5c135 0 161.2-.2 159.6-1.3-1.1-.8-7.4-3.1-14-5.1-12.5-3.9-17.1-5.6-21.8-8.1-1.6-.8-3.7-1.5-4.8-1.5s-7.4-2.7-14.1-6c-6.6-3.3-12.7-6-13.4-6s-1.7-.6-2.1-1.3-3.9-2.9-7.8-4.9c-12.9-6.5-18.1-9.4-19.6-10.6-.8-.7-4.3-3.1-7.9-5.4-3.6-2.2-8.4-5.4-10.8-6.9-2.3-1.6-4.6-2.9-5-2.9s-1.9-1.1-3.3-2.4-4.5-3.4-6.8-4.5c-2.2-1.2-4.1-2.6-4.1-3.1s-1.2-1.6-2.6-2.3c-1.4-.8-6.3-4.9-10.9-9.3-4.5-4.3-10.1-9.3-12.5-10.9-6.1-4.3-15.9-13.5-17.8-16.7-.9-1.6-2.1-2.8-2.7-2.8-.5 0-2.5-1.6-4.4-3.5-1.8-1.9-5.5-4.4-8.1-5.6-5-2.3-8.8-6.9-12.5-15.4-4.1-9.4-9-19.1-10.3-20.4-2.6-2.6-6.2-9-6.2-11 0-1.1-.3-2.1-.7-2.3-1.3-.5-6.3-8.3-6.3-9.6 0-.7-1.1-2.9-2.3-5-3-4.7-11.8-23.2-16.4-34.2-1.9-4.7-4.1-9.9-4.8-11.5-.7-1.7-1.8-5.7-2.5-8.9-.7-3.3-1.9-6.6-2.6-7.4-.8-.7-1.4-2.2-1.4-3.2s-.4-2.2-1-2.5c-.5-.3-1-1.4-1-2.3s-.7-3-1.5-4.6c-.8-1.5-1.5-3.9-1.5-5.2 0-2.3-2.2-9.8-4-13.9-.5-1.1-1.1-4-1.3-6.5-.3-2.5-1.5-7.7-2.7-11.5-2.4-7.6-3.6-14.6-4.6-27-.4-4.4-1-8.2-1.3-8.5-1.5-1.1-3.1-19.5-3.1-35.4V0H0z"/></svg>