<svg xmlns="http://www.w3.org/2000/svg" width="682.667" height="512" version="1.0" viewBox="0 0 512 384"><path d="M190.7.7c-1 .9-.8 7.7.2 8.8.5.6 1.4 2.8 2.1 5 2 6.4 6.5 14.6 11.1 20.3 3.5 4.5 14.4 13.5 21.5 17.8 1.6 1 1.4 1.6-2.8 6.7-6 7.4-11.3 16.1-14.5 23.9-3.5 8.7-6.7 34.1-5.8 46.3s.7 16.2-1 20.3c-2 4.7-1.9 4.9 1 2.2 1.4-1.3 2.8-2.1 3.1-1.8.3.4 1.4 3.2 2.4 6.5 1 3.2 1.9 4.8 1.9 3.5.1-1.2.4-2.2.7-2.2 1.1 0 13.4 11.5 13.9 13.1.4 1 1.7 1.5 4 1.5 4.1-.1 4.3-.7 1.1-4.9-1.2-1.8-2.7-3.9-3.1-4.7-1-1.7-1.4-1.9 7.2 4.8 6.6 5 14.9 9.7 18.8 10.6l3 .6-3.7-3.5c-3.4-3.2-4.8-5.5-3.3-5.5 1.7 0 6.6 3.3 7.5 4.9 1.7 3.3 1.2 11.8-1.1 16.3-1.8 3.6-1.9 4.2-.6 5.5.8.9 3.7 1.9 6.3 2.4 4.7.9 6.8 2.4 5.7 4.1-.2.5-1.3.6-2.4.3-2.1-.7-2.4.3-.9 3.7 1.2 2.8 4.1 46.2 3.3 50-.6 3 1.2 3.9 3.4 1.7 1.5-1.5 2-.4 3.2 8.1 2 14.3 6.1 40.5 7 45.4.6 3.2.6 5.9-.1 7.5-2.1 5.6-5.6 22.2-6.3 29.7-.4 4.3-.9 8.2-1.1 8.5-.2.4-4.1-.4-8.6-1.7-18.1-5.2-56.3-13.5-59.4-12.9-2.3.4-3.5 0-5-1.6-1-1.2-3.7-3.2-5.9-4.5l-4.1-2.3-1.2-9.4c-2.3-18.1-7.2-28.8-15.7-34.5-5.6-3.7-9-3.9-24-1.8-5.3.8-9.7 1-10.7.5-1.3-.7-2.2-.2-3.8 2.1-1.2 1.7-5.4 5.3-9.4 8-13.4 9-15.4 12.9-15.3 29.5 0 9.3.4 12.5 1.9 15.4 1 1.9 1.8 5 1.8 6.9 0 6.2 5.5 16 12.7 22.6 3.6 3.4 7.8 6.9 9.2 7.8 2.4 1.7 11.7 1.8 153.5 1.8h150.8l-.6-3.3c-.3-1.7-.8-5.2-1.1-7.7-1.7-13.6-2.8-19.6-4.1-21.6-.8-1.2-1.2-3.2-.9-4.5.7-3-1.9-16.4-3.5-18.4-.7-.8-1-2.4-.7-3.5.4-1.7-1.1-10.4-2.9-16.3-.5-1.7-.3-1.6 3.3.3 4.5 2.4 9 2.6 12.1.4 3.7-2.5 2.7-5.4-4.4-12.9-8.8-9.4-12.1-14.4-16.6-24.6-3.5-8.3-3.7-9.1-4.2-23.5-.4-8.2-.9-20.2-1.2-26.7-.4-8.3-.2-11.7.5-11.2.6.3 1.1 1.5 1.1 2.5 0 3.4 8 22.2 13.7 32.3 5.8 10.1 8.6 13.6 5.7 7-3.1-7.1-5.4-13.3-5.4-14.5 0-.7 2.7 2.6 6 7.2 3.2 4.7 7.1 9.8 8.5 11.5l2.6 3-1.6-4c-1.9-4.6-5.5-14.8-5.5-15.3 0-.2 2 1.3 4.5 3.4 2.5 2 4.5 3.3 4.5 3 0-.4-2-6-4.5-12.6-4.8-12.4-10.8-34.2-10.3-36.9.2-.9 1.5.6 3.1 3.6 3.7 7.2 9.8 16.6 10.3 16 .3-.2-.9-4.2-2.6-8.8-2.7-7.5-7.2-26-6.5-26.7.1-.1 2.4 3.6 5 8.3 2.7 4.7 5 8.4 5.1 8.2.2-.2-.5-3-1.6-6.3-1.1-3.2-4-18.1-6.4-32.9-5.5-32.6-8.3-45.4-13.5-60.5-8.5-25-17.5-41.4-30.6-55.9-5.4-6-7.8-9.6-8.6-12.5-1.5-5.9-9.6-16.5-18.1-23.5L362.5 0 334 .4c-15.7.2-29.4.5-30.5.6s-5 0-8.6-.2c-5.3-.2-7.6.2-11.7 2.1l-5.1 2.4-3.9-2.6-3.8-2.7h-39.5c-21.8 0-39.9.3-40.2.7m220.7 247.8c1.6 8.8-6.5-12.1-8.5-22-1.9-9.9-1.9-11.8.2-17.2 1-2.5 1.5-.5 4.4 16.2 1.8 10.4 3.6 20.8 3.9 23m-86.6-28.1 6 9.4-3.5 3.4c-1.9 1.8-5.8 6.4-8.8 10.3-2.9 3.8-6.3 7.9-7.5 9l-2.3 2 .6-6.8c.7-8.1 1.1-8.7 4.4-8.7 2.3 0 2.5-.3 1.9-3.3-.3-1.7-.9-8-1.2-14l-.7-10.7h2.5c2.1 0 3.6 1.6 8.6 9.4m-32.1 8.8c-.2 1.3-.4.5-.4-1.7-.1-2.2.1-3.2.4-2.3.2 1 .2 2.8 0 4m4.7 12.3c.2 1.1 1 7.5 1.7 14.3l1.3 12.3-3.1 6.3c-1.7 3.5-4.5 10.3-6.1 15.2-3.6 10.6-7.1 18.9-7.7 18.2-.3-.2.2-4.2 1-8.9 2.4-13.3 4.5-29.8 4.5-35.6V258h3.5c3.9 0 4.1-.6 2-6.5-.8-2.2-1.4-5.9-1.5-8.2 0-3.5.3-4.2 1.9-4 1.1.1 2.2 1 2.5 2.2m13.4 14.5c-.7 1-1.4 1.7-1.7 1.5-.4-.4 1.8-3.5 2.5-3.5.2 0-.1.9-.8 2"/></svg>