<svg xmlns="http://www.w3.org/2000/svg" width="682.667" height="512" version="1.0" viewBox="0 0 512 384"><path d="M.1 226.2 0 298l4.8-3.7c5.2-4 10.1-6.3 13.2-6.3 1.6 0 2 .7 2 3.1 0 4-3.9 11.7-12.9 25.3L0 327.2v26.9l7.2-5.8c14.4-11.7 23.8-18.4 30.7-21.8 7.4-3.8 13.7-4.6 14.7-2 1.5 3.7-12 18.8-28.5 32.1-7.5 6-23.1 23.6-21.4 24.1.5.2 5.4-1.3 10.9-3.3 12.8-4.7 28.5-7.5 35.1-6.3 7.7 1.5 11.2 2.9 12.4 5.2 1 1.8.8 2.5-2.2 4.9l-3.3 2.8H102c43.8 0 46.3-.1 44-1.7-5.6-3.8-20.6-17.8-39.5-36.8-18-18.1-20.5-20.3-24.6-21.3-7.5-1.9-8.9-3.6-10.5-13-1.2-7-2.2-9.2-5.9-14.5-2.4-3.4-5.6-8.5-7.1-11.2-1.5-2.8-3-5.2-3.4-5.5-1.2-.8-6.3-9.2-8.3-13.5-1-2.2-2.2-4.2-2.6-4.5-1.6-.9-26.1-51.9-26.1-54.2 0-.5-1.5-4.6-3.4-9.1S10.2 187.1 9 183c-1.3-4.1-2.7-8-3.1-8.6-.5-.6-1.3-3.5-1.9-6.5s-1.5-6.3-2-7.4-1.1-2.9-1.3-4c-.3-1.1-.5 30.3-.6 69.7"/></svg>