<svg xmlns="http://www.w3.org/2000/svg" width="682.667" height="512" version="1.0" viewBox="0 0 512 384"><path d="M179.8 3.2c-.2 6.2.3 8.6 3.7 16.8 4 9.3 7.5 14.8 13.5 20.8 4.7 4.7 16 12.9 20.3 14.7l2.7 1.1-4.1 5.5C205.5 76 201.2 86.6 199.5 103c-2.3 21.4-2.4 25.3-1 33.4 1.3 7.6 1 13.4-1.1 19.1-.7 1.8-.5 1.8 1.8-.3 2.9-2.6 2.9-2.7 5.2 4.5 1 2.9 2 5.3 2.3 5.3s.3-.7 0-1.5c-1.1-2.8 1.3-2.6 4.5.5 1.8 1.7 4.5 3.8 6 4.7 1.4.9 3.2 2.6 3.8 3.8.8 1.5 2.1 2.1 4.6 2.2 3.6.1 3.6 0 .2-4.9-2.9-4.1-2.2-4.1 4 0 7.1 4.9 18 10.4 19.4 10 .6-.2-.9-2.1-3.5-4.2-2.5-2-5.8-5.4-7.4-7.4l-2.8-3.7 3.1 2.2c1.7 1.2 3.7 2.9 4.4 3.8.7.8 3.2 2.4 5.6 3.5 6.5 2.8 8.2 9.4 4.7 18.1-2.1 5.3-1.1 7 4.8 8.4 5.2 1.3 6.9 4.5 2.4 4.5-2.2 0-2.6.3-2 1.7.4 1 1.1 2.9 1.5 4.3 1.1 3.5 4.3 43.2 3.8 46.9-.5 3.2 1.1 4.8 3 2.9s3 .1 4.2 7.5c.7 3.9 3.2 17.1 5.7 29.2 4.4 21.7 4.4 22 2.9 27.5-2.6 9-3.6 15.8-4.5 28.3-.5 6.5-1 12-1.2 12.2-.3.2-4.7-.3-9.9-1.1-13.6-2.1-40-4.3-58-4.9-14-.4-15.7-.7-18-2.6-1.4-1.2-4.2-3.1-6.2-4.1-3.5-1.8-3.8-2.4-3.8-6.2 0-16.5-8.5-35.2-18.2-40-3.5-1.8-9.9-2-17.9-.7-12.6 2.2-13.9 2.2-13.9.6 0-2.5-1.8-1.7-3.5 1.4-.8 1.7-4.1 4.7-7.2 6.8-11.6 7.6-14.8 10.6-17.3 16.4-2 4.7-2.1 6.2-1.5 15.8.4 6.1 1.5 13.1 2.6 16.4 1 3.1 1.9 6.9 1.9 8.3s1 4.8 2.1 7.5l2.1 4.9h170.9c136.5 0 170.9-.3 170.9-1.3 0-.6-.5-2.8-1-4.7-.6-1.9-1.3-5.8-1.6-8.5-1-9.4-3.4-20.6-4.9-22.8-.8-1.2-1.2-3.1-.9-4.4.6-2.4-2.1-15.3-3.9-18.8-.6-1.1-1-3.1-.8-4.5.1-1.4-.3-3.8-.8-5.3-1-2.7-.9-2.9 3.4-4.7 3.9-1.7 4.5-2.3 4.5-5 0-2.5-1.3-4.3-6.9-9.8-6.9-6.6-13.1-15.7-13.1-19 0-1-.9-3.4-2-5.5-1.1-2-2-4.6-2-5.7 0-1.2-.7-3.5-1.6-5.1-2.2-4.4-5.5-49.7-3.5-48.4.6.3 1.1 1.1 1.1 1.6 0 4.3 17.9 39.5 21 41.4.5.3-.6-3.1-2.5-7.6-2-4.5-3.4-8.4-3.1-8.6.2-.2 2.9 3.1 5.9 7.4 9.8 13.6 10.8 14.4 7.1 5.3-2.6-6.5-2.4-10.2.5-7.7 3.8 3.3 4 2.6 1.5-4-1.5-3.7-3.4-9.5-4.3-12.8-1-3.3-3.2-9.8-4.9-14.5-3.3-8.9-6.5-21.5-6-23.2.2-.6 1.7 1.6 3.2 4.8 3.2 6.6 13.5 22.8 14.1 22.2.2-.2-1.2-4.5-3.1-9.6-3.3-8.8-7.9-26-7.2-26.8.2-.2 2.5 3.3 5.2 7.7 2.6 4.4 5 7.8 5.2 7.6.3-.3-.4-2.9-1.6-5.8-1.1-3-4.5-17.1-7.6-31.4-7-32.8-10.3-45.7-15.2-59.8-8.4-23.6-20.4-44.4-33.9-58.4-4.8-5-7.3-8.5-8.2-11.5-.7-2.3-2.6-6.1-4.2-8.4-3.7-5.4-16.5-17.3-19.5-18-1.3-.3-19.1-.4-39.6-.2l-37.3.3-5.7 2.9-5.7 2.9-5-3.2L259 0h-79zm224.6 211.1c2 12 2 13.2 0 8.7-2.7-6.2-4.4-14.3-3.8-17.9.9-4.7 1.8-2.5 3.8 9.2m-86.2-1.1c1.3 1.8 4.3 6.3 6.7 10l4.3 6.7-5.7 6.8c-7.7 9.4-12.6 14.6-13.1 14.1-.2-.3-.1-3.2.2-6.6.6-5.7.9-6.2 3.1-6.2 2.8 0 3.9-2.1 2.4-4.9s-2.7-23.1-1.4-23.1c.6 0 2.1 1.5 3.5 3.2m-25.4 12.9c.8 1.5 1.1 4.3.7 7.7-.3 3.5-.2 5.1.5 4.7.5-.3 1-.1 1 .5 0 .7.6 1 1.4.7 1-.4 1.6.7 2.1 4.1.3 2.6 1.3 7.9 2.1 11.8l1.4 7.2-4 8.3c-2.3 4.6-6.1 14.9-8.7 22.9-6.5 20.8-7.3 21.1-4.8 1.9.8-6.3 1.8-17.1 2.2-24.2l.6-12.7h2.7c3.4 0 4.5-2.3 2.6-5.3-1.2-1.8-3.6-21.1-3.6-28.7 0-2.7 2.1-2.2 3.8 1.1m115.2 7.4c0 .5-.5.3-1-.5s-1-2-1-2.5c0-.6.5-.3 1 .5s1 1.9 1 2.5m-95 17.9c0 .2-.8 1-1.7 1.7-1.6 1.3-1.7 1.2-.4-.4s2.1-2.1 2.1-1.3"/></svg>