<svg xmlns="http://www.w3.org/2000/svg" width="682.667" height="512" version="1.0" viewBox="0 0 512 384"><path d="M247.5 359.2c-4.3 2.7-7.3 6.1-9.1 10.1-1 2.3-2.7 5.2-3.7 6.4-2 2.2-2 2.2.4 4.2l2.4 2-2.2.1c-1.3 0-2.3.4-2.3 1s8 1 22.1 1c17.2 0 22-.3 21.6-1.3-.2-.6-1-1.1-1.6-1-1.6.4-1.4-.9.5-3.6 1.6-2.2 1.6-2.4 0-3.3-.9-.5-1.6-1.6-1.6-2.5 0-4.8-8.1-12.6-13.5-13-1.6-.1-4.8-.4-7-.8-2.5-.3-4.8-.1-6 .7M72.5 383c-.4.6 3 1 9.7.9 8.5-.1 9.5-.3 5.8-1-6.4-1.1-14.8-1.1-15.5.1m345.5 0c-1 .7 1.9.9 9 .9 8.9-.1 9.7-.3 5.5-.9-7.1-1.1-12.8-1.1-14.5 0"/></svg>