<svg xmlns="http://www.w3.org/2000/svg" width="682.667" height="512" version="1.0" viewBox="0 0 512 384"><path d="M244.3 336.1c-2.4 1.8-5.2 5.2-6.3 7.5-1.1 2.4-2.7 4.7-3.7 5.3-1.7.9-1.7 1 .1 3s1.8 2.1.1 2.1c-1.3 0-1.5.3-.7 1.2 1.1 1.4 2.7 8.6 2.4 10.5-.2.7.1 1.3.5 1.3.9 0 1 .7 1.5 6.5.3 2.6-.2 3.3-3.4 4.8-4.3 2.1-4.9 4.4-1.5 5.2 1.2.3 12.3.4 24.7.3 20.3-.3 22.5-.5 22.5-2 0-.9-1.6-2.8-3.5-4.1s-3.4-2.9-3.3-3.5c.2-.6.5-2.6.7-4.4.8-5 1.6-11 2.1-14.2.4-2.2.2-2.7-1-2.2-1.9.7-1.9-.4.1-3.2 1.4-2 1.4-2.3 0-2.8-.9-.3-1.6-1.2-1.6-1.8 0-2-4.7-7.7-7.9-9.7-1.8-1.1-6-2.1-10.3-2.4-7.2-.7-7.4-.6-11.5 2.6M77.5 353c-1.2.4-2.6 1.5-3.4 2.3-.7.9-1.8 1.4-2.4 1.1-.7-.2-2 .9-3 2.6-1 1.6-2.7 3.5-3.8 4-1 .6-1.9 2-1.9 3.1 0 1.2-1.3 2.8-3.5 4l-3.4 2.1 2.7 2.3 2.7 2.4-3.3.1c-3 0-3.2.2-2.2 2.1.7 1.1.9 2.7.6 3.5-.5 1.2 3.3 1.4 24.5 1.4 13.8 0 24.8-.4 24.5-.8-1.1-1.8-1.4-9.7-.4-10.9.7-.9.7-1.7-.2-2.8-.6-.8-.9-2.3-.5-3.4.7-2.2-2.2-7.5-5.5-9.8-4.5-3.1-17.2-5.1-21.5-3.3m335.3 2.3c-2.5 2.4-4.2 5.2-5.3 9.1-.9 3-2.4 6-3.3 6.5-1.5.9-1.5 1.1 0 2.8 1 1.2 1.3 2.4.8 3.8-.5 1.1-.9 3-.9 4.2l-.1 2.3h51.2l-.6-2.3c-.3-1.2-.6-3-.6-4.1 0-1.4-.5-1.7-2.5-1.2-3 .8-3.1.3-.5-3.5l2.1-2.8-2.6-.7c-1.6-.4-2.8-1.5-3.1-3.1-.4-1.4-2.6-4.6-5-7.1-4.6-4.8-4.8-4.9-20.4-6.8-5.3-.6-5.6-.5-9.2 2.9"/></svg>