<svg xmlns="http://www.w3.org/2000/svg" width="682.667" height="512" version="1.0" viewBox="0 0 512 384"><path d="M254.8 285.8c-.6 2.2-2.8 3.1-2.8 1.2 0-.6-.5-1-1.2-1-.9 0-.9.3 0 1.2 1.8 1.8 1.5 2.6-1 3.1l-2.3.4 2.3.8c1.2.4 2.2 1.1 2.2 1.5 0 1.3-6.7 6.8-10.6 8.6-1.9.9-3.8 2.3-4.1 3.1-.3.7-1.4 1.3-2.5 1.3-1.5 0-1.8.5-1.3 2.2.4 1.3 1.8 3.4 3.1 4.9 2 2.1 2.4 3.5 2.4 9 0 3.6.3 6.9.7 7.3 1.1 1.1 1.2 7.9.1 9.9-.5 1-2.9 2.7-5.4 3.7-4.6 2-5.3 3.3-3 5.9 1.2 1.3 1.2 2.6.4 6.9-.8 3.7-.8 5.6-.1 6.3s.9 5 .5 11.5l-.5 10.4h22.1c15.8-.1 22.3-.5 23-1.3.6-.7.9-7.9.9-17-.2-13.4 0-15.8 1.3-16.2.9-.3 1.6-1.4 1.7-2.5.1-1.4-1.4-2.7-6.3-5-5.7-2.7-6.4-3.3-6.4-5.9 0-1.6.5-4.2 1-5.6.8-2.2 1.3-2.5 2.4-1.6 1.8 1.5 2.8-1.1 2.1-4.9-1.7-8.3-1.8-11-.1-11.6 1.1-.4 1.6-1.8 1.6-4.6 0-2.6-.4-3.7-1.1-3.2-.6.3-1.4.2-1.8-.3-.3-.5-3.1-2.6-6.3-4.7-8-5.2-8.7-6.3-5.2-7.8 2.8-1.1 2.8-1.2.7-1.5-2.4-.5-3-1.8-1.3-2.8.6-.3 1-1.1 1-1.7s-.9-.3-2 .7c-1.9 1.7-2 1.7-2.8-.5l-.9-2.4zM91.2 297.1c-.8 1.2-1.9 1.8-2.9 1.5-2.5-1-3.6.5-1.7 2.5 1.3 1.5 1.4 2.2.4 3.3-.6.9-1 2.1-.8 2.8.6 1.6-5.2 6.3-10.9 9-2.4 1.1-4.3 2.6-4.3 3.4 0 .7-1.1 1.6-2.5 2-3.5.9-3.2 3.6.9 8.2 3.2 3.5 3.4 4.1 2.6 7.6-.9 4.2-.2 6.7 2.9 10.6 1.4 1.7 2.1 2 2.1 1 .1-1.5 6 4.6 6 6.1 0 .9-16.4 8.9-18.2 8.9-.8 0-1.9.5-2.6 1.2-1.4 1.4-1.6 4.8-.3 4.8 1.5 0 3.5 6.2 3.2 10.2l-.3 3.8h53.5l-.5-6.5c-.5-5.7-.3-6.7 1.3-7.6 3.8-2 2.2-4.5-5.4-8.8-4.1-2.2-8.6-4.3-10.1-4.7-3-.7-3.8-1.7-3.1-3.6.8-1.9 7.2-6.1 8.4-5.4 1.3.8 2.5-7.4 1.8-12.4-.4-3.2-.1-4.2 1.9-6.1 2.9-2.7 3.6-10.6.9-9.5-.9.3-1.8-.1-2.1-.8-.3-.8-1.3-1.7-2.2-2-3.3-1.1-13.2-8.5-13.2-9.8 0-1.2 3.2.2 7.1 3.3l3.6 2.8 1.2-2.5c1.8-3.9 1.3-5.3-2.1-6.8-1.8-.8-5-2.2-7.2-3.1-2.1-.9-4.1-2.6-4.3-3.6-.7-2.5-1.5-2.4-3.1.2m332.3.5c1.8 1.3 1.9 1.7.5 4.1-.8 1.4-2.4 3.1-3.5 3.7s-2.2 1.3-2.5 1.6c-2.1 2.3-6.6 5-8.3 5-2.4 0-9.7 4.8-9.7 6.3 0 .6-.7 1.9-1.6 2.9-1.6 1.6-1.5 2 .8 5.5 2.2 3.4 2.3 4.1 1.2 6.8-1.8 4.1-1.7 7.2.3 13.1 2.3 7 4.2 9.7 5.8 8.4 1-.8 1.5-.8 2.1.1.5.8.3.9-.6.4-1-.6-1.2-.4-.7.7.4 1.1-.3 2-2.3 2.8-2.6 1.1-10 10.4-10 12.6 0 .6.5 1.5 1.2 2.2s1.1 3.2.9 5.7l-.3 4.5h56l-.8-3.3c-.4-1.8-1.6-4.6-2.6-6.2s-1.7-3.7-1.6-4.7c.6-3.1-1.3-4.9-8.7-8.3-8.4-3.8-9.9-5-7.7-5.8 1-.4 1.6-.1 1.6.8 0 1.3.3 1.3 2 .3 1.1-.7 2-1.7 2-2.1 0-.5 1.1-2.2 2.5-3.9 2.7-3.2 3.3-8.6 1.4-13.5-.9-2.5-.7-3.1 2-5.4 2.2-1.8 3.1-3.4 3.1-5.5-.1-3.5-2.4-6.9-4.3-6.1-1.2.4-7.2-4-14.5-10.9-2-1.8-2-2.2-.7-4 3-4 1.3-9.4-2.9-9.4-2.1.1-2.1.1-.1 1.6"/></svg>