<svg xmlns="http://www.w3.org/2000/svg" width="682.667" height="512" version="1.0" viewBox="0 0 512 384"><path d="M478 263.7c-2.1 5.5-16 41.8-19.6 51.3-1 2.5-1.9 4.6-2 4.8-.4.6-4.8-2-5.6-3.2-.4-.6-.8-2.3-.8-3.7s-1.4-4.7-3.1-7.2c-3-4.6-3.1-4.8-1.8-9.7 1.4-5.4 1-6.7-1.8-5.5-2.5 1.1-6.4 1.2-6.9.3-.3-.5-.9-.6-1.4-.3-.4.3-4.3-1-8.5-2.8-7-3-7.9-3.7-9.9-7.7-1.2-2.7-2.9-4.6-4.1-4.9-1.9-.3-1.9-.3-.2 1.7 1.9 2.1 3.2 9.8 1.7 10.7-.4.3-2.1 4.1-3.6 8.5-1.7 4.8-3.5 8.2-4.5 8.5s-2.4 1.6-3.3 2.9c-1.4 2.3-1.4 2.4 1.5 3.6 3.6 1.5 5.4 4.8 6.2 11.3.4 2.6 1.6 6.5 2.7 8.7 1.2 2.3 2.5 5.2 3 6.6 1 2.4.9 2.5-2.7 2.2-3.7-.3-3.8-.2-3.7 3.2 0 1.9.3 6.8.8 10.9.8 7.9 2.1 9.9 8.5 13.3 3.7 2 6.1 7 6.1 12.8v4h37v-7.8c0-4.3-.7-10.1-1.5-13-1.4-4.7-1.4-5.3.3-8.2 2.8-4.5 8.4-6.9 18.7-8.1 7.8-.8 9.7-1.5 15-4.9 3.3-2.1 7.6-4.5 9.7-5.3 6.6-2.7 7.8-4.8 7.8-13.1 0-6.9-1-10-2.4-7.7-.3.5-2.4.7-4.6.4-3.5-.5-4-.3-4 1.4 0 1.4-1.1 2.3-3.7 3.2-3.8 1.1-23.6 5.8-28.3 6.6-1.4.2-4.1.9-6 1.5-4.4 1.3-4.2 1.3-3.5-1 .3-1.1.2-2.7-.3-3.6-.6-1.1.3-4.5 2.9-11.2 11.8-30.1 20.1-51.9 20.2-53.1.1-.8-.3-1.6-1-1.8-.6-.2-2.1 2.1-3.3 5.4M450.3 333c-.3 1.1-1.3 2-2.2 2-1.4 0-1.4-.2-.1-1 2.2-1.4-.6-1.3-3.3.1-1.6.9-1.4.5.8-1.7 3.2-3.2 5.7-2.8 4.8.6m7.7-.5c-.7.9-1.5 1.3-1.7 1.1-.7-.7.7-2.6 1.9-2.6.6 0 .6.6-.2 1.5m-198.7-66.2c.3 2 .1 2.5-.6 1.8-1.6-1.6-3.1-1.3-1.8.3 1 1.1.8 1.7-.6 2.5-1 .6-1.3 1.1-.8 1.1.6 0 1.6.4 2.3.9 1 .6.2 2.4-3.3 7.5-2.6 3.6-5.3 6.6-6.2 6.6-1 0-1.3.6-.9 1.6.3.8.2 1.2-.3.9-2.3-1.3-2.1 1.9.2 4.3 1.5 1.6 2.7 4.3 3 6.7.2 2.2 1 6.9 1.6 10.5.7 3.5.9 8.1.6 10.3-.6 3.4-1 3.8-3 3.3-3.5-.9-4.8 3.6-2.6 8.9 3.6 8.8 5.3 11.4 8.2 12.4 3.7 1.3 6.1 6.6 6.1 13.3 0 2.8.6 5.2 1.4 5.9 2.1 1.8 1.7 3.3-2.2 8-3.2 3.9-6.4 9-6.4 10.4 0 .3 9 .5 20 .5 13.5 0 20-.3 20-1.1 0-.6-.9-3.2-2.1-5.9-2-4.6-2-4.9-.4-7.4 1.5-2.2 1.6-4.1 1-13.1-.5-7.1-1.3-11.6-2.6-14.2-2.3-4.6-2.3-4.6 0-3.3 1.1.5 3.2 1 4.8 1 1.5 0 5.8 1.2 9.5 2.7l6.8 2.6 2.5-2.3c3.4-3.2 3.2-5.2-1.5-11.4s-5-7.3-1.2-5.1c4 2.4 7.4.7 10.2-5 3.6-7.4 1.2-15.7-5-17.7-2.2-.8-6.4 1.7-7.9 4.6-.8 1.4-2.1 2.8-2.9 3.1-2.6 1-8-.6-8.5-2.5-.3-1.1-1.8-2-4.1-2.4-4.2-.8-5.4-.3-6.6 3-.5 1.3-1.7 2.4-2.5 2.4-1.3 0-1.5-.7-1-3.8.9-5.3 1.4-6.4 2.4-5.8 1.1.7-.6-8.5-1.9-9.8-1.4-1.4-1.2-4.8.4-7.2 1.3-1.8 1.2-2.3-.9-5-2.2-2.7-2.5-2.8-4-1.3-1.6 1.6-2.2 1.4-8.1-2.4-4.7-3-6.1-4.4-5.4-5.3q1.2-1.2-.6-1.8c-1.4-.5-1.4-.9-.3-2.4 1.3-1.5 1.2-1.6-.4-.3-1.9 1.5-1.8 1.5-3.6-1.4-1.1-1.8-1.2-1.8-.8.8M282 318c0 .5-.6 1-1.4 1s-1.8-.5-2.1-1c-.3-.6.3-1 1.4-1 1.2 0 2.1.4 2.1 1m7 1c1.3 2.4-.2 2.7-2.4.4-2-1.9-2-2.4-.1-2.4.8 0 1.9.9 2.5 2m-178.1-38.9c-.7 1.3-1.7 1.9-2.9 1.6-1.3-.3-1.6 0-1.3 1.4 1 3.7-1.9 7.5-9.1 11.7-3.9 2.3-7.9 4.8-8.8 5.4-1.4 1-2.1.9-3.6-.5-1.8-1.6-2-1.6-3.6.2-1.1 1.2-1.4 2.1-.7 2.5.6.4 1.5 2.4 2.1 4.6.9 3.4.8 4.3-1.5 7.6-3.2 4.7-3.1 5.6.3 11.3 1.7 2.8 3.1 6.7 3.5 10 .4 2.9 1.3 6.4 2.2 7.7l1.5 2.3-8.7-.3c-9.5-.3-14.5-2.1-23.8-8.1-6.4-4.2-10.8-5.2-13.9-3.1-1.4.8-5.5 1.8-9.3 2.2-7.5.7-11.3 2.5-11.3 5.3 0 1.9 1.4 1.9 8.8.5 3.1-.6 9.2 1.1 9.2 2.5 0 .4-.5 1.2-1.2 1.9-2 2 .1 2.7 3.1.9 2.6-1.5 3.3-1.6 7.2-.2 4.8 1.7 7.1 3.4 6.4 4.5-.3.4.2 1.3.9 1.9 1 .8 1.6.9 2.1.1.9-1.5 2.5-1.2 2.5.6 0 1.1.6 1.4 2 .9 1.5-.5 2-.2 2 1.1s.6 1.5 2.8 1.1c2.1-.4 3.3 0 5.1 1.9 1.3 1.3 2.9 2.4 3.7 2.4s2.5 1.8 4 3.9c2.3 3.5 2.4 4.3 1.5 7.8-.6 2.1-1.1 5.3-1.1 7v3.3h40l-.4-2.3c-2.9-14.7-2.9-14.1-.7-17.8 2.2-3.6 2.8-6.9 1.1-6.9-.5 0-1.8-1.7-2.9-3.8s-2.7-4.4-3.5-5.1c-1.7-1.4-2.2-3.6-.7-2.7.5.3 2.3-.8 4.1-2.4 1.8-1.7 3.7-3 4.2-3 1.1 0 .5-15.5-.7-19.6-.5-1.6.2-3 2.9-5.6l3.6-3.5-2.8-.6c-2.2-.5-3.5-1.9-6-6.7-2.9-5.7-3-6.4-1.7-8.3 2.1-3 1.9-4.7-1-8.9-1.4-2-2.5-4.8-2.5-6.2 0-3.1-1.5-3.4-3.1-.5"/></svg>