<svg xmlns="http://www.w3.org/2000/svg" width="682.667" height="512" version="1.0" viewBox="0 0 512 384"><path d="M469 288.2c-5.6 16.7-10.5 30.6-10.9 31-.3.4-2.4.2-4.4-.4-3.2-1-3.7-1.5-3.3-3.3.8-3-1.2-9.6-3.6-12.2-1.8-2-2-3-1.4-8.8.5-5.3.4-6.5-.8-6.5-.8 0-1.8.5-2.1 1.1-1 1.4-7.3.3-16.8-2.9-7.1-2.5-7.8-3-8.8-6.2-1.4-4.3-2.7-6-4.5-6-1.2 0-1.1.7.4 3.7 1.9 4.1 2.1 8.5.4 10.5-.5.7-2 4.3-3.1 7.9-1.6 4.7-2.9 7-4.6 7.9-2.5 1.4-4.5 5.2-2.9 5.7 4.8 1.6 6.8 4.1 8 9.8.6 3.3 2.5 8.8 4.2 12.2 1.6 3.4 2.8 6.4 2.5 6.7-.3.2-1.6 0-3-.7-3.6-1.6-4.4.4-3.9 9.3.8 11.3 1.2 13.4 3.1 14.5 10.9 6.4 13 9.3 13 17.7v4.8H463v-9.8c-.1-5.7-.7-11.3-1.5-13.7-1-2.8-1.1-4.3-.3-5.2.6-.7 1.4-2.8 1.7-4.5.4-2.1 1.6-3.7 3.1-4.5 1.4-.7 3.2-2.1 4.1-3.1 3.2-4 21.9-10.2 30.5-10.2 2.4 0 5.9-.8 7.8-1.7l3.6-1.8v-16l-4-.3c-3.4-.2-4 0-4 1.7 0 1.3-.6 1.9-1.9 1.8-1 0-3.6.7-5.7 1.6-3.2 1.4-13.3 4-32.1 8.2-1.5.4-2.5-.1-3.2-1.4-.8-1.5 1-8 8.5-30.2 5.2-15.5 10.1-29.6 10.8-31.3 1.3-3.1 1.1-5.6-.4-5.6-.4 0-5.3 13.6-11 30.2m-17.4 44.3c-2.3 1.7-3.6 1.9-3.6.6 0-1.1 1.8-1.9 4-2 1.1 0 1 .3-.4 1.4m-191.5-66.8c-.1 2.6-1.1 2.9-2.9 1.1-.9-.9-1.2-.9-1.2 0 0 .7.5 1.2 1 1.2 1.8 0 1 1.7-1.2 2.8-2.3 1-2.3 1.1.5 1.1 1.5.1 2.7.6 2.7 1.2 0 2.3-9 12.9-11 12.9-.7 0-1 .8-.7 2 .4 1.7.2 1.8-1.5.9-2-1.1-2-1 .1 2 1.2 1.7 2.6 3.3 3.1 3.6.6.4 1 2.1 1 3.8.1 1.8.7 5.9 1.5 9.2s1.5 8.4 1.5 11.4v5.3l-3-.4c-5-.7-5.4 3.9-1.1 13.6 2.3 4.9 3.9 7.1 6.9 9 3.1 1.9 4.2 3.4 5.1 7 .6 2.5 1.1 5.8 1.1 7.5 0 1.6.7 3.4 1.5 3.8 1.3.8 1.2 1.3-.3 4-.9 1.7-2.5 4.2-3.4 5.5-.9 1.2-2.4 4-3.3 6L255 384h39.9l-.9-2.8c-.5-1.5-1.4-4.1-2.1-5.9-1.1-2.6-1.1-3.6.1-5.7 1.9-3.6.7-22.7-1.8-27.7l-1.9-3.7 3.6.5c2 .3 7.1 1.6 11.4 3 7.4 2.4 7.9 2.4 9.7.8 3.6-3.3 3.4-5.3-.9-11-2.3-3-4.4-6.3-4.8-7.2-.6-1.7-.5-1.7 1.4 0 7.9 6.9 17.4-7.1 11.4-17-3.6-5.7-9.5-5.6-13.2.3-2 3.3-2.4 3.5-5.8 2.9-2-.3-4.1-1.2-4.6-2-1.6-2-8.2-3-10-1.5-1.2 1-1.6.8-2.4-1.1-1-2.7-.5-4.3 1.1-3.3.6.4.8-.1.5-1.2s-.9-3.5-1.3-5.4c-.3-1.9-1.2-4.2-1.8-5.2-.9-1.4-.7-2.5.6-4.9 1.4-2.4 1.5-3.3.5-5-1.5-2.5-4.4-3.4-6.2-1.9-1 .8-2.7.2-7.5-2.9s-5.9-4.2-4.6-4.7c1.4-.6 1.2-.9-1.3-2.1-1.6-.8-3.2-2.5-3.4-3.6-.4-2.2-.4-2.2-.6 0m28.6 51.8c.3.9.3 1.9-.1 2.2-.7.7-3.6-1.6-3.6-2.8 0-1.5 3-1 3.7.6"/><path d="M263 267.1c0 .5.5.7 1 .4.6-.3 1-.8 1-1.1 0-.2-.4-.4-1-.4-.5 0-1 .5-1 1.1m-150.3 12.7c-1.1 1.2-2.5 1.8-3.5 1.5-1.2-.5-1.4-.2-.9 1.1 1.2 3.1-3 8.4-9.2 11.5-3.1 1.6-6.7 3.8-8.1 4.9-2.2 1.8-2.6 1.8-4.8.4-3.2-2.1-5-.3-3.4 3.3 1.7 3.7 1.5 7-.8 11.2-2.6 4.8-2.5 6.5.3 11.1 1.6 2.4 2.6 6 3.1 10.6.5 4.8 1.2 7.3 2.4 8.2 2 1.5 1.9 1.5-6.8 3.5-8.2 1.8-16.6 1.5-23.5-1-6.7-2.5-14.3-3.5-16-2.1-.6.5-4.8 1.2-9.3 1.6-7.2.6-8.5 1-10.2 3.2-1.1 1.4-2 3.3-2 4.4 0 1.6.3 1.7 2 .8 1.6-.9 1.9-.8 1.3.6-.3.9-.2 1.5.3 1.3.5-.3 2.1-1 3.5-1.8 2-1 3.5-1 6.7-.1l4.2 1.1-1.5 2.9c-1.3 2.6-1.3 3-.1 3 .8 0 2.7-1.1 4.3-2.4 2.6-2.2 3.3-2.3 8.3-1.4 8.6 1.5 8.5 1.5 6.6 4.2-1.4 2.2-1.4 2.6 0 3.7 1.1.9 1.8.9 2.6.1 1.8-1.8 2.8-1.4 2.8 1 0 1.7.3 1.9 1.2 1 2-2 2.8-1.3 1.7 1.4-1.3 3.6-.7 3.9 4.2 2.5 4.1-1.2 9.3-.7 11.7 1.1.7.6 1.2 3.3 1.2 6.4v5.4h40l-.5-2.8c-2.3-12.6-2.3-14.6-.2-18.8l2-4.2-2.2-2.3c-1.1-1.2-2.1-2.7-2.1-3.2s-.9-2.1-2-3.7c-1.6-2.3-1.7-3-.6-3.9.7-.6 1.6-.8 1.9-.4.4.3.7.1.7-.5 0-.7.7-1.2 1.5-1.2 2.8 0 3.7-5 3.1-15.7l-.6-10.2 3.5-2.8 3.5-2.8-2.7-.5c-2.2-.4-3.5-1.8-6.1-6.8-3.1-5.8-3.2-6.3-1.8-8.4 2.2-3.1 2-5.4-.8-9.1-1.3-1.8-2.6-4.5-2.8-6.1-.3-2.8-.3-2.8-2.1-.8M91.5 344c.3.5.1 1-.4 1-.6 0-1.1-.5-1.1-1 0-.6.2-1 .4-1 .3 0 .8.4 1.1 1"/></svg>