<svg xmlns="http://www.w3.org/2000/svg" width="682.667" height="512" version="1.0" viewBox="0 0 512 384"><path d="M479.6 260.8c-.3.5-5.1 14.2-10.6 30.3-5.5 16.2-10.2 29.9-10.5 30.6-.3 1-1.3.9-4.2-.1-3.8-1.3-3.8-1.3-3.5-6.4.4-5.1-1.2-9.6-4.2-12.1-1.9-1.6-2.1-6.9-.4-10.6 1.6-3.4-.3-5.6-3.2-3.7-1.1.6-2.7 1.2-3.6 1.2-3.4 0-20.7-6.5-21.1-8-1.3-4.5-3.4-8-4.8-8s-1.4.3-.1 2.7c1.8 3.8 1.5 8.9-1.1 14.4-1.1 2.6-2.4 6.1-2.8 7.8-.4 2-1.7 3.7-3.5 4.6-4 2.1-5.2 6.4-1.7 6.5 2.9.1 5.5 3.8 6.2 8.8.4 2.8 2.2 8.4 4.1 12.3 3.6 7.5 3.7 9.4.5 6.5-1.7-1.6-2-1.6-3.6 0-1.4 1.4-1.6 3-1 9.8.5 7 .8 9.7 1.4 12.8 0 .3 2.6 2 5.6 3.7 6.5 3.7 8.8 7.5 8.9 14.8l.1 5.3H463v-9.8c-.1-5.6-.7-11.3-1.5-13.6-1.2-3.4-1.2-4.2.1-6 .8-1.1 1.4-3.1 1.4-4.3 0-1.4 1-2.8 2.8-3.7 1.5-.8 3.5-2.3 4.6-3.5 3.1-3.4 23.5-9.1 32.6-9.1 2.2 0 5.1-.5 6.5-1.2 2.5-1.1 2.6-1.4 2.3-9.2l-.3-8.1-3.2-.3c-2.8-.3-3.3 0-3.3 1.7q0 2.1-1.5 1.5c-.8-.3-2.9 0-4.7.6-7.2 2.7-35.3 8.7-37 7.8-1.5-.7-.7-3.7 7.3-27.6 4.9-14.7 9.9-29.1 11.1-32 1.4-3.6 1.8-5.6 1.1-6.3s-1.3-.7-1.7-.1m-219.1 4.8c.5 2.1-1.5 4.6-4.5 5.7-1 .4-.7.6.8.6 3.7.2 2.7 2.8-4.3 11.4-1.6 2-3.8 3.7-4.8 3.7-1.1 0-1.5.4-1.1 1.2.5.8.2.9-.9.5-2.3-.9-2.1-.3 1.2 3.5 2.1 2.5 3 4.7 3.4 8.8.4 3 1.3 9.3 2 14 .8 4.7 1.2 8.9.9 9.4-.2.4-2 .6-3.8.3-4.4-.7-5.1 1.6-2.8 8.5 2.4 7.3 5 11.4 8.8 13.6 3.5 2.1 5.6 7.1 5.6 13.4 0 2 .6 4.1 1.4 4.7 1.8 1.5 1 4.8-2.1 8.5-2 2.3-5.3 8.8-5.3 10.2 0 .2 8.8.4 19.5.4s19.5-.3 19.5-.6-1-2.8-2.2-5.5c-2-4.7-2-5.2-.5-8.3 1.3-2.8 1.4-5 .6-14.2-.6-6.4-1.5-11.7-2.4-13.1-2-3.1-1.9-3.4 1-2.3 1.4.5 3 .7 3.7.5.7-.3 4.4.8 8.3 2.4 7.6 3.2 9.7 3 11.7-1.5 1-2.1.7-3-1.9-6.7-4.8-6.7-4.8-6.7-1.3-6.1 7.1 1.5 12.6-10.6 8.5-18.6-3.2-6.2-8.1-6.5-12.7-1-3.1 3.7-3.6 3.9-7.2 3.3-2.5-.4-4-1.2-4.3-2.4-.5-1.9-7.3-3.1-9.8-1.6-1.1.6-1.5.2-1.6-1.3-.1-1.1-.2-2.6-.3-3.3-.1-.6.4-1.1 1-1 1.4.3.1-6.7-1.8-10.5-1-2-.9-2.9.5-5.3 1.3-2.4 1.4-3.4.5-4.9-1.6-2.5-3.6-3.2-5.6-2.1-1.2.7-3.1-.1-7.5-3.2-5.1-3.5-5.6-4.3-4.3-5.3 1.5-1 1.4-1.2-.5-1.7s-2-.8-.9-2.1c.8-1.1.9-1.6.1-1.6-.6 0-1.1.4-1.1 1 0 1.8-1.7 1.1-2.9-1.3-1-2-1.1-2-.6-.1m27 53.5c1.1 1.7-.1 2.1-1.5.4-.8-.9-.8-1.5-.2-1.5s1.4.5 1.7 1.1"/><path d="M256 266.4c0 .2.8 1 1.8 1.7 1.5 1.3 1.6 1.2.3-.4s-2.1-2.1-2.1-1.3m-144 14.1c-.7.8-1.9 1.5-2.6 1.5-.8 0-1.4.9-1.4 2.1 0 3.6-3.6 7.4-10.2 10.9-3.5 1.8-7.1 4-8 4.8-1.6 1.4-2 1.3-3.8-.3-1.9-1.7-2.2-1.7-3.7-.2-1.2 1.2-1.3 1.9-.6 2.9.6.7 1.4 2.9 1.8 4.9.5 2.9.2 4.3-1.9 7.4-3 4.3-3.3 6.7-1.1 8.5.8.7 1.5 1.9 1.5 2.7 0 .9.6 1.3 1.4 1 1.1-.4 1.3.8 1.3 5.8-.1 4.3.5 7.1 1.6 8.9 2.1 3.1 2.2 4.6.2 4.6-.9 0-5.2 1.8-9.8 3.9l-8.2 4-7-1.5c-10.2-2.2-19.4-2.9-20.8-1.5-.6.6-4.4 1.1-8.6 1.1-8.3.1-10.4 1-12.1 5.5-1.3 3.4-.8 4 1.9 2.6 1.7-1 2-.9 1.5.4-.7 1.8.3 1.9 3.5.1 1.9-1.1 3-1.1 6 0 2 .7 3.5 1.6 3.5 2.1-.1.4-.5 1.8-.9 3-.9 3.3 1.3 2.9 5.2-.7 2.7-2.6 3.5-2.9 5.8-2 1.5.6 4.5 1 6.8 1.1 2.3 0 5.1.4 6.2.9 1.8.7 1.8.8-.8 1.5-3 .8-5.2 3.8-4.3 6.1.5 1.3.9 1.2 3.1-.2 2.4-1.6 2.5-1.6 2.5.7 0 1.8.3 2 1.2 1.1.7-.7 1.8-1.2 2.6-1.2 1.2 0 1.1.4-.2 2.5-.9 1.3-1.6 2.7-1.6 2.9 0 .3 2.6.3 5.9 0 7.2-.8 13.1.9 13.1 3.7 0 1.8.9 1.9 19.6 1.9h19.6l-.7-4.8c-1.6-9.8-1.5-12.9.5-16.8 1.1-2.1 1.6-4 1.1-4.3-1.3-.9-7.1-11-7.1-12.4 0-.7.4-.6 1 .3.7 1.1 1 1.1 1 .2 0-.7.8-1.2 1.7-1 2.8.5 4.8-4.8 4.8-12.7 0-3.9-.4-8.5-.8-10.3-.8-3-.5-3.6 2.8-6.7 3.1-3 3.3-3.5 1.6-3.5-2.2 0-4.8-3.3-7.5-9.7-1.7-3.8-1.7-4.3-.2-6.4 2.2-3.2 2-4.6-1.4-8.8-2-2.6-2.7-4.4-2.3-5.9.6-2.5-.9-2.9-2.7-.7m-20 64.7c0 1.3-2.3.5-2.8-1-.2-.7.2-1 1.2-.6.9.3 1.6 1.1 1.6 1.6m-14.1 20.7c1.4.4 2.7 1.3 2.9 2 .4 1.2-.8 1.3-6.6.8-9.2-.9-12-1.9-7.2-2.8 4.6-.8 8-.8 10.9 0"/></svg>