<svg xmlns="http://www.w3.org/2000/svg" width="682.667" height="512" version="1.0" viewBox="0 0 512 384"><path d="M261.1 267.9c-.1 2.1-.3 2.2-1.8 1-1.5-1.3-1.5-1.2-.6.6.9 1.5.8 2.2-.5 3.2-1.6 1.1-1.6 1.2.1 1.3.9 0 1.7.4 1.7 1 0 1.6-10.1 15-11.4 15-.6 0-1.7.4-2.5.9-1.1.7-.9 1.5 1.1 4.2 2.4 3.2 2.5 3.8 1.7 11.4-1.1 11-1 17.6.1 15 .7-1.7.9-1.5.9 1.2.1 1.8.6 3.3 1.1 3.3.6 0 1 .4 1 .9s-2.1 1.3-4.7 1.7c-4.2.8-4.8 1.3-5.1 3.5-.4 3.2 4.7 12.2 9.1 16.1 3.8 3.4 4.9 10.8 2.3 15.9-1.5 3.1-1.5 3.4.2 5.3 2.1 2.3 1.9 3.9-1.6 10.4L250 384h38l-2.8-5.8c-2.6-5.1-2.7-6-1.5-8.4 1.7-3.3 3.3-11.8 3.3-17.2 0-3.8.3-4.3 3.2-5.4 3-1.1 3.6-.9 10.2 3.3 3.8 2.5 7.5 4.5 8.2 4.5 1.8 0 5.6-5.1 5-6.7-.4-.9.5-1.6 2.5-2 4.5-.9 8.1-6.3 8.7-12.8.4-4.7.1-5.7-2.1-7.9-3.2-3.2-3.5-3.2-8.1-.1-2 1.4-4.6 2.5-5.7 2.5-2.9 0-7.8-3-8.5-5.2-.6-1.9-5.3-4.8-7.7-4.8-.8 0-2 .7-2.8 1.6-.7.8-2.1 1.3-3.2 1-1.1-.2-2.7 0-3.7.7-1.4.8-2.2.8-3.4-.2-1.7-1.5-2.2-4.6-.6-3.6.6.4 1-.8 1-2.9 0-2.2.7-4.3 1.9-5.5 2.6-2.6 3.1-6.9 1.4-11.3-1.4-3.5-1.4-4 .6-7.3 1.9-3.2 1.9-3.6.5-4.2-.9-.3-2.5-.1-3.4.5-1.4.9-1.9.8-2.4-.3-.3-.8-3.5-3.7-7.2-6.6-5.8-4.6-6.4-5.4-5-6.5 1.5-1.1 1.5-1.2.1-1.8-1.1-.4-1.4-1.3-1-2.8.6-2.1.5-2.2-.8-.6-1.3 1.7-1.5 1.6-2.5-.5l-1.1-2.2zm48.4 72.1c.7 3.5.7 3.5-1 1.2-.9-1.2-2.1-3.7-2.6-5.4-.9-3.2-.9-3.2 1-1.3 1.1 1.1 2.2 3.6 2.6 5.5M420 267.3c.1.7.7 2.3 1.5 3.7 1.9 3.4 1.9 5.4-.1 4.6-1.1-.4-1.4-.1-1.2 1.2.3 1.6-7.5 15.9-9.5 17.3-.4.3-.5 1.3-.1 2.2.7 1.8-1.1 2.4-2.1.7-1-1.6-2.3-1.2-2.7.7-.3 1.1.9 3 2.7 4.8 2.8 2.6 3.2 3.7 3.4 8.9.1 5.1 1 8.2 5.3 19.9.7 1.8 1.3 2.5 1.8 1.7s1.1-.6 2.1.6c1.3 1.6 1.1 1.7-2.5 1.1-2.1-.3-4.7-1.4-5.7-2.3-1.7-1.5-1.8-1.5-2.4.9-1.2 4.5.1 20 2.1 25.4 2.4 6.6 3.4 7.5 7.8 7.5 3.9 0 4.1.3 5.2 8.3 1.3 9.4 1.5 9.4 20.2 9.5H462v-11.8c-.1-7.6-.6-13.1-1.5-15.7-1.3-3.6-1.3-4.3.1-7 1-1.9 3.1-3.6 5.3-4.5 3.3-1.2 19.9-2.2 38.9-2.2h7.2v-15.5l-4.2.5c-6.8.8-38.8.2-41.4-.8-2-.8-2.2-1.3-1.5-3.2.5-1.3 4.8-12.4 9.6-24.8s9.2-23.7 9.8-25.2c.8-2.1.8-3.1 0-3.9-1-1-1.5-.5-2.3 1.7-1.1 3.1-4.2 11.2-14.4 37.4-6.7 17.5-7.1 18-14.4 19.4-4.7.8-5-1-1.7-10.9 3-9.2 2.6-12.8-1.6-17.4-2.2-2.4-1.9-7 .6-9.1 1.5-1.3.9-4.6-1.1-5.4-.8-.3-2.5-.1-3.8.6-2.1.9-3.2.6-7.3-1.7-2.6-1.5-6.5-3.6-8.5-4.7-2.9-1.4-3.8-2.5-3.8-4.4 0-1.4-.7-3.8-1.5-5.3-1.5-3-4.5-4.9-4.5-2.8M98.6 282.5c-.3.8-1.2 1.5-1.9 1.5-.9 0-1.4 1.1-1.4 2.7-.1 1.6-.2 3.7-.4 4.8-.5 2.8-15.7 14.9-17.2 13.7-1.3-1.1-5.1 0-6.2 1.8-.4.6 0 1.9.9 2.9 2.4 2.7 4 7.9 2.8 9.4-.6.6-1.3 2.8-1.7 4.8-.6 3.2-.3 3.9 2.9 6.7 2 1.7 3.6 4 3.6 5.1 0 3 2.1 7.3 5.1 10.3 3 2.9 2.3 3.8-2.8 3.8-2.9 0-8.3 5-8.3 7.7 0 1-.9 3.6-2 5.8s-2 4.6-2 5.5c-.1 3.2-2.9 5.1-9.6 6.5-3.8.8-7.9 1.5-9 1.5-1.2 0-3.3.9-4.6 2-1.4 1-2.8 1.6-3.2 1.3-.3-.4-1.6-.1-2.9.6-1.2.6-4.2 1.5-6.7 2-3.2.6 2 .9 17.6 1 15.9.1 22.3-.2 23.2-1.1s1.2-.9 1.2 0 5 1.2 19.5 1.2H115v-2.9c0-1.7.4-3.2 1-3.6.5-.3.9-4.2.9-8.7 0-7.5-.3-8.5-3.5-13.5-3.9-6.1-4.2-7.8-1.5-7 1.5.4 2.5-.7 4.6-4.5 2.3-4.2 2.6-5.7 2.1-9.9-.4-2.6-1.3-6.7-2.1-9-2-5.5-1.9-6.3 1-9.7 1.4-1.7 2.5-3.4 2.5-3.8 0-.5-1.7-1.6-3.9-2.5-2.1-.9-5-3.2-6.4-5.1-2.4-3.1-2.5-3.8-1.5-6.5 1.1-2.8.9-3.4-2.5-7.4-2-2.3-3.7-5.3-3.7-6.6 0-2.6-2.5-3.2-3.4-.8M1.3 378.7c-.7.2-1.3 1.6-1.3 2.9 0 2.2.4 2.4 5 2.4 4.3 0 5-.3 5-2 0-3-4.9-4.9-8.7-3.3"/></svg>