<svg xmlns="http://www.w3.org/2000/svg" width="682.667" height="512" version="1.0" viewBox="0 0 512 384"><path d="M421.7 264.6c-.3.4 0 1.6.8 2.8 2.1 2.9 2 6.7-.1 5.9-1.1-.4-1.5-.1-1.3 1.3.2 1-1.6 4.8-3.9 8.3s-4.2 6.8-4.2 7.3c0 .4-.7.8-1.6.8-1.3 0-1.5.6-.9 2.7.6 2.6.6 2.7-1.3 1-2.4-2.2-3.2-2.2-3.2.1 0 1 1.4 3.1 3 4.7 2.7 2.6 3 3.5 3 9.1 0 6.8 5.6 24.6 7.1 22.3.5-.9 1.1-.8 2.4.4 1.5 1.6 1.5 1.7-1.2 1.7-1.5 0-4.1-.7-5.7-1.5-1.5-.8-3.2-1.2-3.7-1-1.4.9-.9 19.2.7 23 .8 1.9 1.4 4.5 1.4 5.8 0 3.7 4.3 7.1 7.9 6.4 2.8-.6 3.1-.4 4.1 3.2.6 2.1.7 4.6.4 5.4-.3.9.1 2.6 1 3.9.9 1.2 1.6 3 1.6 4 0 1.7 1.4 1.8 16.8 1.8h16.7l.2-12.3c.2-8.9-.2-13.5-1.3-17.1-1.5-4.5-1.5-5 .2-7.3 3.2-4.2 7.2-4.9 30.2-4.8l21.2.1V335c0-8.5.2-8.3-8.4-6.5-2.3.4-5.8.3-9-.4-4.2-.9-10.7-1.4-28.3-2.1-.7 0-1.3-.5-1.3-1 0-.6 4.6-12.6 10.2-26.8 5.7-14.1 10.3-26.1 10.3-26.6s-.5-1.1-1.1-1.3-3.6 6.1-6.9 14.4c-11.8 30-16.1 39.8-17.5 40.2-.8.3-3.4.6-5.8.9l-4.2.4.2-5.1c.1-2.8.5-5.1.8-5.1 1 0 3-6.5 3-9.7 0-1.7-1.1-4.7-2.5-6.7-2.9-4.3-3.1-6.3-.9-9.5 1.3-1.8 1.4-2.8.5-4.7-1.2-2.8-2.7-3-5.1-.9-1.5 1.3-2.4 1-9.5-3.5-4.4-2.8-8.2-5-8.6-5s-1.1-2-1.4-4.4c-.7-4.3-3.5-8.3-4.8-7m-159.6 3.3c-.1 2-.4 2.2-1.3 1.3-1.8-1.8-3.3-1.5-1.8.3 1 1.2 1 1.9.2 2.7s-.7 1.4.5 2.3c1.4 1 .9 1.9-3.6 7.5-2.8 3.5-6.5 7-8.2 7.7-3.2 1.3-3.2 1.4.2 6.3 1.4 2.2 1.5 3.7.6 12.9-.7 7.7-.7 10.9.1 12.2.7 1 1.2 3 1.2 4.4 0 1.9-.6 2.6-2.7 3.1-4.9 1-5.3 1.3-5.3 3.8 0 4.4 4 11.5 9.8 17.2 2.8 2.9 3 9 .3 14.2-1.6 3.1-1.7 4-.7 5.5.7.9 1.6 1.4 1.9 1 1.5-1.4.5 2.5-1.8 7.5-1.4 3-2.5 5.6-2.5 5.8s8.3.4 18.5.4c12.8 0 18.5-.3 18.5-1.1 0-.6-1.2-3.3-2.7-5.9l-2.7-4.7 2.2-5.1c1.2-2.7 2.5-7.5 2.8-10.7.6-4.9 1-5.8 3.3-6.6 1.4-.6 2.9-1.5 3.3-2.2.5-.8 3 .4 7.7 3.7 7.6 5.1 10.3 5.4 12.2 1.2.8-1.6 1.9-2.3 3.9-2.3 3.6 0 5.6-1.6 8.1-6.4 2.5-4.9 2.5-11 0-14l-1.9-2.3-5 2.3c-3.5 1.7-5.8 2.2-7.8 1.7-2.9-.8-7.3-4.4-7.4-6.1 0-1.6-6.8-5.8-8.5-5.1-.8.3-1.5 1-1.5 1.5s-2.8.8-6.1.7c-4.7-.2-6.5-.7-7.5-2.1-1.9-2.6-1.7-4.4.2-2 1.5 1.9 1.5 1.7.9-2.3-.5-3.4-.3-4.7 1-6.2 1-1.1 2.2-1.7 2.7-1.4.4.3.8.2.6-.3-.1-.4.2-2.2.6-4 .5-2.2.2-4.1-.9-6.3-1.5-3-1.5-3.3.5-6.7 2.4-4 2.2-4.5-1.8-4.7-1.9-.1-5-2-9.3-5.6-3.5-3-6.6-5.5-6.8-5.7-.2-.1.2-.9.9-1.8 1-1.2 1-1.5 0-1.5-.8 0-1.1-.9-.7-2.6.3-1.8.1-2.2-.6-1.5-1.6 1.6-2.5 1.4-3-.7-.3-1.2-.5-.9-.6.7m47.2 71.7c1 1.3 1.7 3.5 1.5 4.7-.3 2.2-.3 2.2-2-.3-3.6-5.6-3.2-9.5.5-4.4M95.4 282.5c-.4.8-1.5 1.5-2.5 1.5-1.6 0-1.7.3-.7 2.5.8 1.9.8 2.8-.3 4.1s-1.1 1.8-.2 2.1c.7.3-2.5 3.5-7 7.2-6.7 5.6-8.5 6.6-9.9 5.7-1.4-.8-2.2-.6-3.9 1l-2.1 2.1 2.7 4.4 2.8 4.3-1.7 4.7c-2 5.5-1.2 8 3.2 10.3 2 1 3.1 2.7 4 6.3.8 2.9 2.5 5.9 4.2 7.5 3.1 2.8 2.5 3.8-2.3 3.8-3.8 0-7.4 4.1-9.6 10.9-1.2 3.6-2.1 7.5-2.1 8.8 0 3.7-3.2 5.9-12.1 8.2-4.6 1.2-10.2 3-12.4 4.1l-4 2h36.8c36.7 0 36.8 0 36.2-2-.4-1.2-.1-2.8.6-3.6.7-.9 1.4-4.6 1.5-8.3.2-5.4-.2-7.5-2.3-11.6-1.4-2.8-3.4-6-4.5-7.1-1.8-2-1.8-2.2-.1-2.9 1-.5 2.3-.7 2.9-.7.6.1 2.1-2 3.4-4.7 2.5-5.5 2.3-9.4-1-19.1l-1.9-5.5 2.5-3.7c1.3-2.1 2.4-4.1 2.4-4.5 0-.5-1.9-1.6-4.2-2.7-5.6-2.3-9.7-6.7-8.7-9.2 1.3-3.2 1-4-2.2-8-1.7-2.2-3.6-5.1-4.1-6.7-1.1-3-2.6-3.5-3.4-1.2M.7 376.7c-.4.3-.7 2.1-.7 4v3.3h6.1c5.2 0 6-.2 5.5-1.6-.3-.9-.6-1.9-.6-2.4 0-2.9-8.1-5.5-10.3-3.3"/></svg>