<svg xmlns="http://www.w3.org/2000/svg" width="682.667" height="512" version="1.0" viewBox="0 0 512 384"><path d="M422 262.7c0 .5.7 1.7 1.5 2.7 1.9 2.5 2 5.7.1 5-1.7-.6-3.1 1.2-1.6 2.1.6.4-.1 2.1-1.8 4.3-1.6 2-4 5.6-5.3 7.9-1.3 2.4-3 4.3-3.7 4.3-.9 0-1.1.7-.6 2.2.6 2.2.6 2.2-1.3.5-1.8-1.6-3.3-1.4-3.3.4 0 .5 1.4 2.5 3.2 4.4 2.8 3.3 3.1 4.2 2.9 9.4-.2 4 .5 7.8 2.4 13.1 1.5 4.1 2.9 8.2 3.2 9 .3 1.1.6 1.2 1.2.2s1.1-1 2.1.3c1.1 1.3.8 1.5-2.2 1.5-1.8 0-4.3-.7-5.5-1.5-2-1.4-2.2-1.4-2.7.2-.8 3-.6 20.2.4 20.8.4.3 1.1 2.7 1.5 5.5.4 2.7 1.6 6.1 2.7 7.5 2 2.6 6.1 3.4 7.4 1.4 1.1-1.9 2.7 2 2.6 6.6-.1 2.7.4 4.8 1.3 5.5 2 1.7 1.9 5-.2 6.6-1.5 1.1 1.1 1.3 16.5 1.4 10 0 18.2-.3 18.2-.8 0-.4.2-6.3.5-13.2.3-9.5 0-13.7-1.2-17.6-1.5-4.7-1.4-5.3.2-7.7 1-1.7 2.6-2.7 4.1-2.7 1.2 0 2.6-.5 3-1.1.4-.7 2.1-.9 4.8-.4 2.2.4 12.1.8 21.9 1l17.7.2v-7.3c0-8.1-1.2-9.4-6.6-7.4-1.9.8-4.2.8-7.4.1-2.5-.5-10.3-1.5-17.3-2.1-13.9-1.2-16.1-1.7-15.3-3.4 2.2-5.2 19.5-48.4 19.8-49.5.2-.7-.2-1.5-.8-1.8-.7-.2-2.7 3.6-4.9 8.9-2 5.1-6.8 17-10.6 26.3l-7 17.1-4.2.2c-5.3.2-7.7-.5-7.7-2.4 0-.7 1-4.1 2.1-7.5 2.5-7.2 2.1-12.7-1.1-17.1-2.2-3-2-5.9.5-8.5 3.2-3.1-1.5-7.6-5.3-5.2-1.7 1.1-2.9.6-8.9-3.4-3.8-2.6-7.7-4.9-8.6-5.3-1.2-.4-1.7-1.8-1.7-4.8 0-2.3-.5-4.7-1.2-5.4-1.3-1.3-3.8-1.6-3.8-.5m-158.9 3.7c-.1 2.5-.3 2.7-1.7 1.5-1.3-1.1-1.4-.9-.9 1.4.5 1.7.3 2.7-.4 2.7-.6 0-1.1.4-1.1 1 0 .5.7 1 1.5 1 2.1 0 1.9 1.4-.6 3.6-1.2 1-3.5 3.8-5.1 6.1-2.3 3.4-3.5 4.3-5.8 4.3-3.8 0-4.2 1.8-1.3 5.7 2.3 3 2.4 3.5 1.4 8.9-1.5 7.7-1.4 18.5 0 18.2.6-.2 1.3 1.1 1.5 2.9.4 3 .2 3.3-4.4 4.5-3.5 1-4.8 1.9-5 3.5-.4 2.5 7.1 14.9 9.9 16.4 2.8 1.4 2.6 9.9-.3 15-2 3.6-2 4-.5 5.7 2.2 2.4 2.1 3.9-.3 9-1.1 2.2-2 4.6-2 5.2s6.4 1 19 1c21.4 0 20.4.5 14.8-7.9l-2.9-4.4 2.6-5.9c1.4-3.2 2.9-7.5 3.2-9.4.5-2.9 1.3-3.9 3.9-5 1.9-.8 3.4-1.9 3.4-2.4 0-1.9 2.7-.9 8.5 3.1 6.3 4.4 9.3 4.7 11.1 1.1.9-1.9 1.3-2 1.7-.8.9 2.4 5.1 1.9 8.1-.9 4.5-4.2 6.8-12.1 5-16.9-.7-1.8-5.9-2.2-6.9-.6-.8 1.4-8.1 1.3-10.8-.2-2.7-1.4-3.8-2.6-5.7-6.2-.8-1.5-2.7-3.5-4.2-4.4-2.5-1.5-2.8-1.5-4.6.1-1.6 1.4-2.4 1.5-5 .6-1.8-.6-3.9-.8-4.8-.5-1.8.7-6.1-1.9-7.5-4.6-.9-1.7-.8-1.9.8-1.4 1.7.5 1.8.2 1.5-3-.3-2.6 0-3.9 1.4-4.9 1-.7 2.2-1.1 2.7-.8.4.2.7.1.6-.4-.1-.4.1-2.1.6-3.7.5-1.8.3-4.2-.4-6.3-1.1-2.9-1-3.9.8-7.3l2-3.8-3.7-.7c-5.1-.9-17.1-11.7-15.3-13.8.9-1.2.8-1.6-.5-2.1s-1.5-.9-.6-1.8c.7-.7 1.2-1.7 1.2-2.2 0-.6-.5-.5-1.2.2-1.8 1.8-2.6 1.5-3.1-1.1-.4-1.8-.5-1.7-.6.7M312 347c-.1 1-.9.6-2.5-1.3-1.4-1.5-2.5-3.6-2.5-4.5.1-1.3.7-.9 2.5 1.3 1.4 1.6 2.5 3.7 2.5 4.5M93 281.9c-.6 1.1-1.6 1.8-2.3 1.6-.8-.4-1.2.8-1.2 4 0 2.5.4 4.5.9 4.5s-1.1 1.8-3.5 3.9-6 5.3-7.9 7.1c-2.5 2.2-4.1 2.9-5.7 2.5-1.5-.3-2.9.2-4.2 1.7-1.8 1.8-1.9 2.4-.7 3.7.7.9 2.1 3.1 3 4.8 1.5 3 1.5 3.5 0 6.4-2.1 4.1-1.1 7.3 2.9 9.8 2.3 1.4 3.8 3.3 4.6 6 .6 2.2 2.3 5.3 3.6 6.9 1.4 1.7 2.5 3.2 2.5 3.5s-1.7.8-3.7 1.2c-2.1.3-4.6 1.2-5.5 1.9-2.1 1.6-5.8 12.5-5.8 17.2 0 4.5-2.6 7-9.7 8.9-11.4 3.2-13.7 4-14.1 5.2-.3 1 7 1.3 34 1.3h34.3l.2-3.3c.1-1.7.6-6.3 1.2-10 1-6.6.9-7.1-1.9-12.7-1.6-3.2-3.4-6.1-4-6.5-2-1.2-1-4.5 1.5-5.5 2.9-1.1 5.5-6.3 5.5-10.9 0-1.6-1.1-6.1-2.5-9.9s-2.5-7.4-2.5-7.9c0-.6 1.1-2.7 2.5-4.8 2.5-3.6 2.6-4.9.2-5-2.6-.2-8.7-3.6-10.1-5.7-.9-1.2-1.6-3.8-1.6-5.7 0-2.4-.9-4.4-3.5-7.2-1.9-2.2-3.5-4.8-3.5-5.8 0-2.8-1.7-3.5-3-1.2M2.3 373.7c-2 .4-2.3 1.1-2.3 5.4v4.9h8.8c8.5 0 8.6-.1 6.4-1.8-1.2-.9-3-3.3-4-5.2-1.7-3.6-3.8-4.3-8.9-3.3"/></svg>