<svg xmlns="http://www.w3.org/2000/svg" width="682.667" height="512" version="1.0" viewBox="0 0 512 384"><path d="M421.5 262c1.8 3.5 1.9 6.1.3 5.7-.7-.1-1.2.6-1 1.5.1.9-1.3 4.2-3.3 7.2-1.9 3-3.5 5.9-3.5 6.4s-.7 1.5-1.5 2.2-1.5 2.2-1.5 3.3c0 1.6-.3 1.8-1.2.9-.7-.7-1.8-1.2-2.5-1.2-2.3 0-1.4 3.8 1.7 6.8 2.6 2.7 3 3.8 3 8.7 0 3.4 1 8.7 2.6 13.3 2.4 7.4 4.4 11.1 4.4 8.3 0-.7.5-.9 1-.6 1.7 1.1 1.1 2.5-1 2.5-1.2 0-3.4-.7-5-1.5s-3.1-1.2-3.4-.7c-1.1 1.8-.3 20.5 1 23 .8 1.5 1.4 4.1 1.4 5.9 0 5.5 7.3 11.9 9.5 8.3 1.4-2.2 2.5.4 2.5 5.6 0 3.9.4 5.6 1.5 6 2.4 1 1.8 3.5-1.7 7.1l-3.2 3.3h18.5c18.3 0 18.6 0 19.7-2.3.6-1.2 1.3-8.1 1.7-15.3.5-11 .3-13.8-1.1-17.3-1.4-3.6-1.5-4.6-.4-6.7 1.9-3.4 7.8-4.8 16.5-3.8 3.8.4 13.4.8 21.3.8l14.2.1v-7.1c0-8.3-.8-9.1-7.1-7.3-3.2 1-4.5.9-7.6-.5-2.2-.9-7.7-1.8-13.3-2.2-11.9-.6-18.6-1.7-18.3-2.9.1-.6 4.6-11.9 10.1-25.2 6-14.8 9.6-24.7 9.1-25.5s-1.1-.9-1.7-.3c-.5.6-4.6 10.4-9.2 22-12.5 31.5-11.3 29.3-15.7 29-2.1-.1-5-.3-6.5-.4-3.2-.1-3.6-2.3-1.4-7.4 4.5-10.5 4.5-10.8 1.1-17.1-2.8-5.3-3.1-7.4-1.2-10 2.9-4-.7-8.8-4-5.5-1.2 1.2-2.6.7-14.5-6-4.6-2.6-5.8-3.8-5.8-5.7 0-3.4-2.7-8.4-4.6-8.4-1.3 0-1.3.3.1 3M264 266.6c0 1.4-.3 1.4-1.5.4-1.8-1.5-2 .1-.3 1.8.9.9.7 1.3-.6 1.8-1.5.6-1.5.7.1 2 1.6 1.2 1.6 1.5.3 2.6-.9.7-3.3 3.4-5.4 6-3 3.7-4.5 4.8-6.8 4.8-3.8 0-4.5 2.2-1.7 5.9 2.1 2.8 2.1 3.3 1 10.6-1.4 9.4-1.4 18.5-.1 18.5.6 0 1-.6 1.1-1.3.1-.6.4-.1.8 1.3 1 3.3-.3 4.8-5.2 5.7-3.5.7-4.2 1.3-4.5 3.5-.3 2.8 6.9 15.2 9.4 16.2 2.5.9 1.8 10.3-1.1 15.2-2.4 4.2-2.5 4.3-.6 5.6 2.1 1.5 2.1 5 .1 8.8-.7 1.3-1.6 3.6-2 5.1l-.9 2.9H286l-2.6-5.3c-1.4-2.8-3.3-6-4.1-6.9-1.4-1.6-1.3-2.3.9-7 1.4-2.9 2.9-6.8 3.3-8.6.5-2.6 1.3-3.4 3.6-3.9 1.6-.3 3.4-1.2 4-1.9 1.9-2.3 5.8-1.6 9.9 1.6 4.4 3.5 7.5 3.8 9.2 1 1.6-2.5 2.8-2.6 2.8-.1 0 3 2.6 4.6 5.4 3.3 3.9-1.7 8.7-9.6 8.9-14.5l.2-4.2-7.2.3c-7.1.3-13.3-1.5-13.3-3.8 0-.6-.6-1-1.4-1-.9 0-1.2-.7-.9-1.9.5-1.9-1.8-5-5.3-6.9-1.4-.8-2.3-.7-3.7.6-1.6 1.4-2 1.4-4.5 0-1.5-.8-4.5-1.8-6.6-2.1-2.1-.4-4.9-1.6-6.2-2.8-2.7-2.5-3.2-4.4-.9-3.5 1.1.4 1.5-.2 1.5-2.4 0-1.8 1.1-4.2 2.9-6.2 3.9-4.5 4.6-7.3 2.7-10.4-1.5-2.2-1.5-2.7-.1-5.3.8-1.7 1.9-3.3 2.5-3.6 1.7-1 1.1-2.8-.7-2.1-.9.4-2 .1-2.4-.6-.5-.7-1.4-1.3-2.2-1.3-.7 0-4.2-2.6-7.8-5.8-5.8-5.3-6.2-6-4.6-7.2s1.6-1.3-.5-1.8c-1.8-.5-2-.9-1-1.9 1.7-1.7 1.5-3.3-.3-1.8-1 .9-1.5.9-1.5.1 0-.6-.4-1.1-1-1.1-.5 0-1 .7-1 1.6m48 81.7c0 .6-1.1-.4-2.5-2.3s-2.5-3.6-2.5-3.9c.1-1.1 5 5 5 6.2M91.4 280.5c-.4.8-1.5 1.5-2.6 1.5-1.3 0-1.7.4-1.1 1.2.4.7.8 3 .8 5.1 0 3.4-.6 4.3-7.2 10.3-5.8 5.2-7.7 6.3-9.6 5.9-1.9-.5-2.8 0-4.2 2.1-1.3 2-1.4 2.9-.6 3.2.6.2 2.1 2.1 3.2 4.3 1.5 3 1.7 4.4.9 5.8-2.1 4.1-1.2 7.8 2.8 11 2.5 1.9 4.3 4.4 5 6.9.7 2.1 2.1 4.7 3.2 5.7 2.8 2.5 2.6 3-1.8 4.3-2.1.7-4.6 2-5.4 2.9-1.9 2.2-4.8 11.5-4.8 15.5 0 5.2-1.5 6.5-10.8 9.4-4.8 1.4-9.4 3-10.2 3.5s-3.3 1.8-5.5 2.8l-4 1.9 37.6.1 37.6.1.1-4.3c.2-6.1.8-11.9 1.6-14.4s-3.9-12.6-7.3-15.7c-2.1-1.9-3-5.3-1.1-4.1.6.3 1 .1 1-.6 0-.6.8-.9 1.9-.6 1.5.3 2.3-.4 3.4-3.2 2.9-6.7 2.9-7.8-.3-17.1-3.1-9.4-3.1-10 .3-13.7 2-2.2 1.6-4.3-.7-4.3-.8 0-1.9-.7-2.6-1.5s-2.1-1.5-3.2-1.5c-1 0-3-1.1-4.3-2.4-2-2-2.3-3.1-1.9-5.5.5-2.5.1-3.7-2.6-6.7-1.8-2.1-3.7-5-4.2-6.6-1.1-3.1-2.5-3.6-3.4-1.3M0 376.9v7.1h25.5l-5.9-3.3c-4.1-2.3-6.3-4.3-7.5-6.7-1.5-3.3-2-3.5-6.9-3.8l-5.2-.3z"/></svg>