<svg xmlns="http://www.w3.org/2000/svg" width="682.667" height="512" version="1.0" viewBox="0 0 512 384"><path d="M416.7 239.7c-.4.8-.3 1.8.8 7.8.7 3.9-6.4 20.8-9 21.3-.9.2-2.6 1.3-3.6 2.3-1.9 1.9-1.9 2 2.1 5.7 3.5 3.2 4.2 4.5 5 9.7.5 3.3 1.8 8.7 2.9 11.9 2.5 7.1 2.5 7 .6 6.2-3.5-1.3-4 .1-3.3 8.7 1 12.8 2.2 17.8 4.9 20 1.3 1 3.3 1.7 4.5 1.4 1.8-.3 2.6.3 3.5 2.4 1 2.7.9 4.8-.6 12.5-.5 2.1-.2 3.4.9 4.3 1.7 1.5 1.2 3.6-1.9 7.1-1.3 1.4-2.9 3.8-3.7 5.5-1.4 2.8-5.8 15.7-5.8 17 0 .3 11.3.5 25.1.5h25.2l-.7-4.2c-.4-2.3-1.8-7.5-3.2-11.6q-2.4-7.35-1.5-9c1.2-2.4 4.1-20.1 4.1-25.3 0-2.4-.9-6.4-2-8.8s-2-4.4-2-4.6c0-.1 1.9-.5 4.1-.9 2.7-.4 7.8.1 14.9 1.6l10.7 2.2 5.3-3.4c3-1.9 7.6-4.5 10.2-5.7 7.1-3.3 7.8-4.3 7.8-11v-5.9l-3 .2c-1.7.1-3.3-.2-3.6-.7-.3-.6-1.1-.5-2 .1-.7.7-3 1.2-5.1 1.2-2.1-.1-9.9-.1-17.3-.2s-15-.4-16.8-.8l-3.3-.7 6.6-6.8c5.7-6 6.3-7.1 5.4-8.9-1-1.9-1.7-1.4-9.6 7.1s-8.7 9.1-12.4 9.1H447l.3-4.9c.1-3.5.5-4.6 1.3-4 .8.7 1.4-.1 1.9-2.3 1.2-5.8.6-11.9-1.5-14.5-2.4-3.1-2.6-7.3-.5-11.4 1.4-2.6 1.4-3 0-3.5-.8-.4-2.2-.1-2.9.6-1.8 1.4-6.4.3-16.4-4.2-6.8-3.1-7.3-3.5-8.3-7.5-1.1-4.2-3.3-7.1-4.2-5.6m-144 3.4c-.3 1.2-1 1.8-1.6 1.4-.6-.3-1.1-.1-1.1.6 0 .6-.8 1.8-1.7 2.6-1.7 1.4-1.7 1.4 0 .9 3-.9 1.9 1.1-2.9 5.3-3.4 3-5.6 4.1-7.8 4.1-5.4 0-7.3 4.1-4.1 8.7 1.5 2.2 1.5 2.8-1.5 16.7-.5 2.2-.5 4.9.1 6.2.5 1.4.5 4.1.1 6.2-.7 3.2-1.4 3.9-5.2 5.3-5.2 1.9-6 4-3.1 8 1.1 1.5 3 5.7 4.2 9.3l2.2 6.5-2.3 7c-2.2 6.7-2.2 7.1-.6 9.6 1.6 2.4 1.6 2.9.2 6.8-1.4 3.8-5.1 34.6-4.2 35.4.1.2 11.8.2 25.9.1l25.5-.3-5.2-13c-5.5-13.5-10.6-24.7-12.8-27.8-1.1-1.5-1-2 .6-3.3 1.1-.8 3.2-1.4 4.6-1.4s3.5-.7 4.6-1.5c2.8-2.1 4.7-1.8 7.4 1 1.3 1.4 3.2 2.5 4.1 2.5 2.1 0 4.4-3.7 4-6.2-.1-1 .2-1.8.8-1.8 1.7 0 3.4 7.1 2.8 11.5-.9 5.9.7 7.1 5.9 4.4 11.2-5.9 14.6-14 6.6-15.5-4.6-.8-10.2-3.6-12.3-6-.9-1.1-2.2-4.2-2.8-6.9-1.5-6.2-4.6-9.8-7.2-8.5-1.4.8-2.2.4-3.9-2-1.8-2.5-2-3.6-1.2-6 1.1-2.9 1-2.9-3.6-4.3l-4.7-1.3.3-4.5c.3-3.5 1-4.9 3.4-7 2.8-2.3 3.1-2.9 2.6-7.2-.5-3.9-.2-4.9 1.8-6.8 2.7-2.6 3.1-5.4.9-6.3-.8-.3-1.5-1.2-1.5-2.1 0-1.8-1.2-1.9-2.8-.3-.9.9-1.2.8-1.2-.5 0-.9-.3-1.7-.7-1.7-.5 0-2.7-2.2-5-4.9-3.9-4.5-4.1-5-2.8-7.5 1.2-2.2 1.2-2.6-.1-2.6-1.7 0-1.8-1.2-.2-2.8.9-.9.9-1.2 0-1.2-.7 0-1.2.4-1.2 1 0 .5-.5 1-1.1 1s-.9-.7-.5-1.5c.3-.8.2-1.5-.3-1.5s-1.1.9-1.4 2.1m7.5 53.1c-.7.7-1.2.8-1.2.2 0-1.4 1.2-2.6 1.9-1.9.2.3-.1 1.1-.7 1.7M94.3 253c-.4 1.5-1.1 2-2.5 1.7-1.6-.5-1.9-.1-1.8 2.1.5 6.9.1 7.7-7.6 14.6-6.6 6-7.9 6.8-9.5 5.8-1-.7-2.3-1.2-2.9-1.2-1.7 0-1.1 5.7 1.1 9.4 1.8 3.2 1.9 4 .8 7.3-1.8 5.5-1.3 8.4 2.1 11.1 1.7 1.3 3 3 3 3.8 0 3.2 3.2 9.3 4.6 8.7 3.1-1.2 1.2 2.4-2.1 4-5.2 2.5-7.2 6.6-7.2 14.3 0 3.5-.6 7-1.3 7.8-.6.8-4.8 2.7-9.3 4.2-4.5 1.4-8.7 3.3-9.3 4-.6.8-1.8 1.4-2.6 1.4s-1.8.4-2.4 1c-.5.5-4.9 1.4-9.8 1.9-8.3 1-9 .9-13.5-1.3-3.2-1.7-5.1-3.5-6.1-5.8-1.8-4-4-4.5-12.2-2.8L0 346.3V384h126.1l-1.7-3.3c-.9-1.7-3-4.8-4.5-6.7-2.2-2.5-2.9-4.5-2.9-7.5 0-2.3-.5-6.7-1-9.8-1-5.3-.5-12.9 1.5-20.7.5-2-.4-3.9-4.4-9.2-3.3-4.3-4.9-7.3-4.5-8.3.4-.9 1.3-1.4 2-1.1 2.2.8 5.7-7.1 5.6-12.4 0-2.6-1.1-7.2-2.2-10.4l-2.2-5.8 2.5-3.5c2.8-3.9 2.6-6.7-.4-5.8-1.2.4-3-.6-5.8-3.4-3.7-3.7-4-4.3-3-6.8 1.5-4 .5-6.5-4-9.8-2.6-1.9-4.1-3.8-4.1-5.2 0-3-2-4-2.7-1.3M78.6 357.2c.9 1.8 2.3 4.1 3.1 5 1.9 2.2 1 4.8-1.6 4.8-1.1 0-2.4.7-2.9 1.6-.7 1.3-2.7 1.7-9.8 1.8-7.6.1-9.5-.2-12.9-2.3-3.5-2-8-5.5-4.9-3.8.7.4 1.7 0 2.4-.9.7-.8 1.9-1.2 2.7-1 .8.3 3.3-.4 5.6-1.6 4.7-2.4 14.8-6.7 15.9-6.8.4 0 1.5 1.5 2.4 3.2"/></svg>