<svg xmlns="http://www.w3.org/2000/svg" width="682.667" height="512" version="1.0" viewBox="0 0 512 384"><path d="M418.4 233.3c-.3.8 0 3.3.5 5.5 1 3.6.8 4.6-2.3 11-1.8 3.9-3.6 8-3.9 9.1-.3 1.2-1.3 2.4-2.4 2.8-1 .4-2.7 1.5-3.7 2.5-1.9 1.7-1.8 1.8 2.2 6.2 3.4 3.7 4.2 5.3 4.2 8.3 0 2.1 1.1 7.3 2.4 11.5l2.4 7.8H412l.5 6.2c.2 3.5.9 8.1 1.5 10.3s1.5 6 2 8.5 1.1 5.2 1.5 6.1c.6 1.7 4.6 3.9 7 3.9 2.5 0 2.6 1.9.6 6.4-1.7 3.9-1.7 4.7-.5 7.1 1.9 3.7 1.8 4.9-.7 7.1-3 2.7-4.6 6.1-8 17.2-1.7 5.3-3.3 10.5-3.6 11.4-.5 1.7 1.2 1.8 26.7 1.8 22 0 27.1-.3 26.7-1.3-.3-.7-1.3-5.1-2.2-9.8-1-4.6-2.6-10.8-3.7-13.6-1.1-2.9-1.7-5.7-1.4-6.1.3-.5 1.4-5.1 2.6-10.2 2.4-11.2 2.6-19.7.5-24.7-2.6-6.3.6-6.6 17.9-1.9l9.9 2.6 5.6-2.9c3.1-1.5 8.2-3.6 11.4-4.5l5.7-1.7v-7.3c0-6.7-.2-7.4-2.2-7.9-1.2-.3-2.8-.2-3.7.2-2 1.1-6.8.8-25.5-1.2-8.1-.9-15.3-1.4-16-1.1-.6.4 2.6-3.1 7.2-7.7 7.6-7.9 9.5-11 7.3-12.3-.5-.3-5 3.7-10.2 8.9l-9.3 9.5h-11.7l.6-3.8c.4-2 1.6-6.3 2.7-9.5 1.8-4.9 1.9-6.4.9-9.6-.6-2.1-1.8-4.4-2.6-5.1-1.9-1.6-1.9-2.8.1-8.6 1.6-4.8 1.3-6.4-.8-4.6-2.1 1.7-8.5.3-17.3-4-8-3.8-8.3-4.1-9.4-8.3-1.2-4.7-2.8-6.5-3.7-4.2m56.6 46c0 .2-1.2 1.4-2.7 2.8l-2.8 2.4 2.4-2.8c2.3-2.5 3.1-3.2 3.1-2.4m-205.3-44.1c-.5 2-1.2 2.6-2.4 2.1-1.1-.4-1.4-.3-.9.6.5.7.1 1.8-.9 2.5-1.7 1.2-1.7 1.3 0 2 1.5.5 1 1.3-3.1 4.9-2.6 2.3-5.8 4.3-7 4.4-3.5.3-6.4 2.2-6.4 4.1 0 .9.7 3 1.5 4.6 1.1 2 1.3 4 .8 6-.4 1.7-.7 7.9-.8 13.8 0 11.9-.6 13.1-7.2 14.4-4.1.8-4.3 2.9-.9 8.2 4.8 7.4 5.7 18.2 2 25.3-1.2 2.5-1.2 3.2.3 6.4 1.5 3.1 1.5 4.2.5 8.2-.7 2.5-1.5 8.9-1.8 14.2-.2 5.3-.6 13.5-.9 18.4l-.5 8.7h55.9l-1.5-4.3c-2.4-6.7-19.1-40.2-20.8-41.7-1.9-1.5-2.1-4.4-.3-5.7.6-.6 2.9-1.4 5.1-1.7 2.1-.4 4.7-1.3 5.7-1.9 1.7-1 2.3-.7 4.5 2 1.4 1.8 3.3 3.3 4.3 3.3 2.6 0 5.1-3.2 5.1-6.5 0-6 1.9-.8 2.2 5.9.4 9 1.9 10.1 8.4 6.7 10.2-5.5 13-16.1 4.2-16.1-6.3 0-12.9-4.7-13.6-9.7-.4-3.6-4-10.3-5.8-11-.8-.3-2 0-2.8.6-1.9 1.6-5-3.1-3.8-5.7 1.5-3.2.8-4.6-3-5.5l-3.8-.9.7-5.6c.3-3.2 1.4-6.8 2.5-8.1 1.4-1.9 1.7-3.4 1.2-7-.5-3.8-.2-5 1.5-6.8 2.4-2.5 2.6-4.1.7-6.6-1.5-2-3.2-2.2-3.9-.5-.3.7-.6.3-.6-1-.1-1.3-.5-2.1-1-1.8-.9.6-10.1-8.9-10.1-10.4 0-.5.7-1.5 1.5-2.3 1.3-1.3 1.3-1.6-.1-2.1-1-.4-1.4-1.2-1-2.2.5-1.4.4-1.5-.8-.5s-1.5.7-1.8-1.6l-.3-2.8zm11.3 54.4c0 .8-.5 1.2-1 .9-.6-.4-.8-1.1-.5-1.6.9-1.4 1.5-1.1 1.5.7M94.5 246q-.6 2.1-2.4 1.5c-1.5-.4-1.7.2-1.5 4.5.1 4.9.1 4.9-7.2 11.4-6.4 5.8-7.6 6.5-10.2 6-4.3-.9-4.9 2-1.9 8.1 2.3 4.4 2.3 4.9 1 8.8-1.8 5.2-1.1 7.8 2.7 10 1.7 1.1 3 2.6 3 3.8 0 3.4 2.8 8.9 4.6 8.9 2.3 0 .2 2.4-3.4 3.9-4.1 1.7-6 6.4-6 15 0 8.7 0 8.7-10.3 12.1-4.1 1.3-8.8 3.3-10.5 4.5-2 1.4-6.9 2.7-13.7 3.9-10.2 1.6-10.8 1.6-14.2-.1-2-1.1-4.3-3.4-5.3-5.3-2-4.2-4.8-4.8-13.4-3L0 341.3v37.6l4.3 2.6 4.4 2.5h60.1c33.1 0 60.2-.2 60.2-.5 0-1.5-8-15.3-10.4-17.9s-3-4.1-3.4-10.1c-.7-9.6-.5-13.2.7-19 2.5-12.1 2.8-10.6-3.8-18.3-5.7-6.6-5.9-7-3.8-7.7 1.2-.4 2.7-.7 3.3-.6 1.5.2 5.4-8.5 5.4-12.2 0-3.5-2.6-12.3-4.2-14.4-.6-.8-.1-2.5 1.6-5 3.3-4.8 3.3-6.3 0-6.3-1.6 0-3.9-1.3-6-3.4-3.2-3.2-3.4-3.8-2.8-7.6.6-4 .5-4.3-4-8.5-2.5-2.5-4.6-5.3-4.6-6.5 0-2.6-1.7-2.6-2.5 0M80.4 352c2.8 4.2 2.6 7.5-.5 6.7-1-.3-2.5.4-3.5 1.4-1.5 1.6-3.2 1.9-12.3 1.9-8.7 0-11-.4-13-1.9l-2.3-1.8 5.8-1.8c3.3-1 7.9-2.8 10.4-4 11.7-5.6 12-5.6 15.4-.5m4.6 23.3c0 .4-.9.3-2-.3s-2-1.5-2-2c0-.6.9-.5 2 .2s2 1.6 2 2.1"/></svg>