<svg xmlns="http://www.w3.org/2000/svg" width="682.667" height="512" version="1.0" viewBox="0 0 512 384"><path d="M256.7 207.4c-.6 1.6-1 1.6-2.4.5-1.3-1.1-1.5-1.1-.9-.1.5.8.1 1.9-1 2.7-1.8 1.3-1.8 1.4-.1 1.5 3.3 0 1.7 2.8-4.8 8.5-5 4.5-6.8 5.5-7.8 4.6-1.1-.8-1.7-.5-2.7 1.3-1.1 2.1-.9 2.9 2 7.1 2 2.9 2.9 5 2.3 5.8-.5.7-.7 2.3-.6 3.7 1 11.1 1.7 15.6 2.6 16.1.9.6-9.4 5.9-11.5 5.9-.6 0-.7 1.6-.4 3.7.9 6.3 1 10.6.2 14.1-.6 2.4-.3 4 1.2 6.5 1.7 2.6 1.9 4.3 1.5 9.8-.4 4.7-.1 7.3 1 9.4 1.3 2.5 1.3 3.3-.1 6.4-3 7.2-2.7 24.7 1 58.8l1.1 10.3h22.4c21.6 0 22.4-.1 21.8-1.9-.4-1.5-.1-1.9 1.7-1.9 2.6.1 13.3-4.3 15.1-6.1.7-.7 1.7-2.9 2.3-4.9 1.5-5.1-1.1-10-12.5-23.8-5.1-6.2-11.4-15.3-14.6-21-3-5.6-6.7-11.4-8-12.8-2.5-2.7-3.3-6-1.6-7 .4-.3 1.1-2.6 1.4-5.1.2-2.5.8-4.9 1.1-5.3.4-.3 2.3 1 4.2 3.1 2.9 3 3.9 3.5 5.4 2.7 1-.6 2.1-1.4 2.4-1.9.7-1.1 1.5-31.1.9-32.7-.2-.7-1.3-1-2.3-.7-2.8.7-7.2-.6-6.7-2 .2-.7.8-1.2 1.3-1.2s1.7-.5 2.8-1.1c2-1.2 2-3.9-.3-18.2-1.1-6.3-1-7.7.3-9.7 2.3-3.5 2.1-6.4-.3-5.8-1.4.4-3.5-1.2-7.9-5.8-5.8-6.2-6.8-8.8-3.3-9 1 0 .8-.4-.8-1-2.3-.9-2.4-1-.5-3.2s1.9-2.2-.2-.5c-1.1 1-2.3 1.8-2.7 1.8-.3 0-.7-.8-.9-1.8-.3-1.6-.4-1.6-1.1.2M96 214.9c-.6 1.1-1.6 1.8-2.3 1.6-.9-.4-1.1.8-.9 4.3l.4 4.8-7.1 6.3c-5.5 4.8-7.6 6.1-9.1 5.6-1.2-.4-2.7-.1-3.5.5-1.6 1.3-2.1 6-.7 6 .5 0 1.6 1.6 2.5 3.6 1.3 2.6 1.5 4 .6 5.5-1.9 3.6-.7 8.2 2.8 10.4 2.2 1.4 3.5 3.2 4.2 6.2.6 2.3 1.5 4.5 2.1 4.8 1.5.9 1.2 3.5-.3 3.5-.8 0-2.4 1.1-3.7 2.5-2.1 2.3-2.4 3.6-2.7 11.8-.4 16.3-1.4 18.1-13.8 24.6-3.3 1.8-7.5 4.3-9.3 5.6-2.1 1.5-5.3 2.6-9 3-3.1.3-7.2 1-9.1 1.5-4.8 1.3-11.7-1.7-12.7-5.5-1.2-4.8-4.5-5.3-19.1-2.4l-5.3 1v16.2c0 15.8.1 16.2 2.3 17.2 3 1.5 27.2 14.2 43.9 23.1l13.7 7.4h40.5c29.9 0 40.6-.3 40.6-1.1 0-.7-2-4.8-4.4-9.3s-7.8-15-12-23.4-8.6-16.2-9.8-17.4c-1.9-1.9-2.2-3.1-2-10.7.3-8.6 1.4-15.9 3.4-21.6 2.7-7.6 2.4-8.8-3.7-14.8-5-5.1-6.5-8.7-3-7.3.8.3 1.9-.2 2.5-.9.7-.8 1.6-1.2 2.1-.9s1.8-1 2.9-2.8c2.6-4.4 2.6-12.1-.1-19.3-2-5.4-2-5.7-.3-8.3 2.3-3.4 2.8-6.2 1-6.2-2.5 0-7.6-3.1-9.6-6-1.1-1.5-2-4.3-2-6.2 0-2.5-.8-4.2-3.5-6.7-1.9-1.8-3.5-4.1-3.5-5.1 0-2.8-1.7-3.4-3-1.1M82.4 322.8c-.1.7-.2 2.4-.3 3.9-.1 1.9-1.1 3.5-3.1 4.8-1.6 1.1-3.2 1.8-3.4 1.5-.3-.3-1.1.4-1.9 1.4-1.2 1.7-2.8 2-10.6 2-5.6.1-9-.3-8.9-.9s.8-.9 1.4-.7c1.3.3 4.5-1.5 17-9.1 7.6-4.6 10-5.3 9.8-2.9M48 333c.8.5 1.1 1 .5 1-.5 0-1.7-.5-2.5-1s-1-1-.5-1c.6 0 1.7.5 2.5 1m28 12c0 .5-.2 1-.4 1-.3 0-.8-.5-1.1-1-.3-.6-.1-1 .4-1 .6 0 1.1.4 1.1 1m6.8 1.8c.3.9-.2 1.3-1.4 1-.9-.1-1.9-.9-2.2-1.6-.3-.9.2-1.3 1.4-1 .9.1 1.9.9 2.2 1.6m340.6-128.7c.3 1.9.8 4.4 1 5.6.3 1.3 0 2.5-.6 2.9-.5.3-2.9 4.6-5.3 9.5-2.3 4.8-4.5 8.5-4.8 8.2-.7-.6-6.7 1.9-6.7 2.9 0 .4.9.9 2 1.3 3 .9 6 5.4 6 8.9 0 1.7.7 7.5 1.7 12.9 1.2 7.1 2 9.6 2.9 9.3.8-.3 1.6-.1 2 .5 1 1.6-1.7 3.9-4.6 3.9-2.6 0-2.8.3-3.4 5.4-.6 4.3-.4 6 1 8 .9 1.4 2 2.6 2.4 2.6s1.1.8 1.4 1.7c.3 1 1.3 2.9 2.1 4.3 2.4 4 1.9 11.7-1 16.6-2.5 4.3-2.5 4.4-.6 5.6 2.4 1.4 1.9 5.1-1 8.3-2.5 2.8-3.7 6.3-6.4 18.7-1.3 5.8-3.9 14.7-5.8 19.7l-3.4 9.1h37c30.3 0 36.8-.2 35.9-1.3-1.8-2.1-12.5-24.4-16-33.2-1.8-4.4-4.2-9.7-5.5-11.8l-2.3-3.7 4.5-9.1c5.1-10.2 5.9-16.8 2.9-22.8-1-1.9-1.8-3.8-1.8-4.3 0-2 11 .8 19.9 5.1l9.6 4.6H512v-14l-6.8-2.3c-3.7-1.3-11.2-3.6-16.7-5.2s-11.9-3.5-14.2-4.2l-4.3-1.3 11.8-14.4c15.4-18.8 14.8-17.9 13.3-19.4-1-.9-1.7-.6-3.4 1.4-1.2 1.5-7.4 9-13.7 16.8-6.3 7.7-12.2 14.1-13.1 14.1s-2.4-.9-3.4-2c-1.2-1.4-2.5-1.7-4.6-1.3-1.5.3-4.5.2-6.5-.1-3.4-.7-3.5-.8-2-2.5.9-1 1.6-3.4 1.6-5.5 0-2.2.4-3.5 1-3.1.6.3 1-.4 1-1.6s.6-2.7 1.4-3.3c.7-.6 1.6-2.7 1.9-4.8.4-2.8 0-4.3-1.8-6.8-2-2.7-2.2-3.6-1.3-6.8.5-2 1.4-4.1 1.9-4.7 1.7-1.7.9-2.1-3.8-2.1-3.7 0-6.4-.9-11.8-4-3.8-2.1-7.8-4.1-8.9-4.4-1.4-.4-2.3-2-3.1-5.5-1.2-5.7-4.2-8-3.1-2.4"/></svg>