<svg xmlns="http://www.w3.org/2000/svg" width="682.667" height="512" version="1.0" viewBox="0 0 512 384"><path d="M306.5 5.7c-5.1 1.2-14.5 6.7-18.8 11-4.6 4.6-4.7 4.6-12 4.9-4 .1-9.1 1-11.5 1.9-3.9 1.6-8.5 5.8-9.4 8.7-.3.9-2.8.2-8.4-2.4-12-5.5-22.3-7.8-35.1-7.9-5.9 0-13 .5-15.7 1.1s-6.8.8-9.1.5c-3.7-.6-4.6-.3-9 3-2.6 2-6.2 4.2-7.9 4.7-6.1 2.1-12.1 10.2-10.6 14.3.4 1.1.5 3.4.3 5.1-.4 2.2.2 3.8 2 6 1.3 1.6 3.9 5.5 5.7 8.6 3.5 6.3 14.6 17.3 19.7 19.4 2.7 1.2 14.8 8.6 16.1 9.8.2.3-1.2 4.4-3.2 9.3-5.7 14.3-6.5 20-5.6 41.3.5 12 1.4 20.6 2.4 24.5 1 3.3 1.6 7.8 1.6 10-.2 5.7-.2 5.9 1.5 4.5 1.2-1 1.6-.8 2.4 1.1 3 7.7 4.4 10.9 4.8 10.6.2-.2-.1-1.6-.6-3.1-1.3-3.4-.8-3.3 4.2.8 2.3 1.8 5.8 4.2 7.7 5.1 1.9 1 4 2.5 4.6 3.3 1.5 2.1 7.5 2.7 6.8.7-.8-2-.2-1.9 4.3.4 2.1 1.1 6 2.9 8.7 4.1l4.9 2-.7 11.8c-.9 14.8-1.1 15.5-4.3 14.7-2.4-.6-2.5-.5-1.8 3.3.3 2.2.1 13.8-.6 25.8-.6 12-1.2 23.2-1.3 24.9-.1 2.6.2 3 2.2 2.8 2.7-.3 5.9 2.7 6.8 6.4 2.5 11.3 13.2 39.2 16.2 42.3 1.2 1.3 1.3-1.9.7-23.1-.8-24.5-.7-24.7 1.4-25.8 2.2-1.2 2.8-5 1.1-6.7-.6-.6-.6-6.7 0-16.9 2-33.7 2-31.4-.1-32.6-1.4-.7-1.9-2.1-1.9-5.3 0-2.3.3-4.6.7-4.9.3-.4 2.5 1 4.8 3.1 2.3 2 6.1 5 8.4 6.5 3.8 2.7 4.1 3.1 4.1 7.6 0 2.7-.5 7.2-1 10.1-1.1 5.7-.3 7.4 3.2 6.6 2.4-.6 3 .5 6.8 11.9 3.7 11.3 13.3 31.6 13.8 29.2.2-.9-.4-6.5-1.3-12.4-.8-5.9-1.8-14.7-2.2-19.6-.5-7.8-.4-9.1 1.1-9.9 1.4-.8 1.5-1.9 1-7.1l-.6-6.2 7.2-7c6.7-6.4 7.3-6.8 8.4-5.1.6 1.1 1.9 2.8 2.9 3.9 1.1 1 3 5.1 4.4 9 1.3 3.9 3.3 8.7 4.3 10.8 1.9 3.7 1.9 3.8-.1 8.3-1.1 2.6-4.2 7.3-6.9 10.5-7.1 8.6-11.7 16.2-13.1 21.7-1 3.8-2.5 6.1-7 10.4-7.5 7.2-8.2 9.8-6.8 25.4 1 11.2.4 28.9-1.8 45.8l-.6 4.8h88.2c48.4 0 88.1-.1 88.1-.3s-.7-2.5-1.6-5.1c-2.3-6.7-1.1-6.8 2-.2l2.7 5.6H485c6.1 0 11-.3 11-.6 0-1.3-8.6-18.4-11.5-22.9-1.8-2.8-3.8-6.6-4.4-8.5-.7-1.9-3-6.2-5.1-9.5-2.2-3.3-4.7-7.6-5.6-9.5-1.9-4.1-11.1-20.1-16.3-28.1-2-3.1-4.4-7-5.3-8.5-1.8-2.9-2.2-3.6-6.9-10.9-3.2-4.9-12.9-24.8-12.9-26.4 0-1.7 2.8 0 7 4.2 5.5 5.4 13.2 11.8 13.7 11.4.7-.7-7.3-15.2-13.5-24.5-6.7-9.9-13.6-22.1-13-22.7.2-.3 2.2 1.8 4.3 4.6 3.7 4.8 20.9 21.4 24.1 23.2.8.5-1.7-3.8-5.5-9.5-6.7-10.1-12.6-20.6-11.9-21.4.2-.2 2.7 1.6 5.5 3.9 2.9 2.3 6.6 5 8.2 6l3.1 1.8-1.2-2.8c-.7-1.5-4-7.5-7.4-13.3-5.3-8.9-11.1-21-10.1-21 .2 0 3.2 3.6 6.6 8 3.5 4.4 6.5 8 6.7 8s-1.2-3.6-3.1-8c-3.8-9-8.6-24-17.4-54.5-14.3-49.9-27.3-78.3-43.7-95.6-2.9-3.1-5.6-6.9-5.9-8.5-1.4-6.4-4.9-13.6-8.7-17.9C353.6 16.7 330 4.9 315.1 5.1c-3.6.1-7.5.3-8.6.6m-73.4 191c1.3 1.6 1.2 1.7-.3.4-1-.7-1.8-1.5-1.8-1.7 0-.8.8-.3 2.1 1.3m8 4.2c2.6 1.1 4.9 2.7 5.3 3.6.3.8.3 1.5 0 1.5-.8 0-11.4-7.1-11.4-7.7 0-.2.3-.2.8 0 .4.3 2.8 1.4 5.3 2.6"/></svg>