<svg xmlns="http://www.w3.org/2000/svg" width="682.667" height="512" version="1.0" viewBox="0 0 512 384"><path d="M264.1 191.7c-.8 1.5-1.1 1.5-2.7.3-1.5-1.2-1.6-1.2-.9-.1.5.9.2 1.9-1.1 2.8-1 .8-1.7 1.7-1.4 2.1.2.4-1.5 1.8-3.9 3.1-3.7 2-4.7 2.2-6.3 1.2s-2.3-1-3.6.2c-1 .8-2.5 1.7-3.4 2-2 .7-2.2 1.9-.8 6.5.6 2.4.5 4.9-.4 8.5-.9 3.5-1 5.8-.4 7 .8 1.5.6 1.8-.8 1.5-.9-.1-2.2-1.9-2.9-3.8-.9-2.8-2-3.8-5.1-4.8-3.6-1.2-4-1.1-5.6.7-1.8 2.3-2.8 2.7-2.8 1.1 0-.6-1.1-2.8-2.5-5-1.9-3-3.2-4-5.1-4-6.3 0-11.4 7.8-10 15.2.9 4.9 6.6 10.3 10.1 9.4 2.4-.6 2.5-.5 1.9 2.1-.4 1.6-1.8 6.3-3.2 10.6l-2.5 7.8 2 2.7c2.2 2.9 2.3 2.9 15 1.9l6.1-.5-1.5 3.6c-2.3 5.5-3 22-1 25.8 1.3 2.4 1.3 3.3.2 5.4-2.1 4.1-4.4 16-5.5 28.6-1.6 17.9.9 33.9 6.2 40 1.5 1.6 1.8 3.8 1.8 11.2v9.2h12.1l-.7-7.4c-.4-4.9-.3-7.6.4-8 .6-.4 4.1-.8 7.7-1s7.1-.8 7.8-1.4c.7-.5 2.5-1.2 4-1.4 2.4-.5 3-.1 4.6 3.1.9 2 2.6 6.4 3.6 9.8l1.8 6.3h5.4c4.8 0 5.3-.2 5.3-2.3 0-2.8-2.3-11.1-4.4-15.9-1.7-4-1.6-4.2 3.1-5.3 3.7-.8 10.3-8 10.3-11.2 0-2.7-4.2-8.9-9.5-13.8-6-5.7-12.6-16.4-16.9-27.5-2.1-5.2-5.3-11.9-7.3-14.8-3.4-4.9-3.5-5.4-1.9-7.1 1.1-1.2 1.6-3.3 1.5-6.2-.2-6 2.2-11.5 5.5-12.3 4.3-1.1 10.3-12.9 9.4-18.7-.3-2.1-.9-2.4-5.1-2.7-4.3-.3-4.6-.5-3.2-1.9 1.2-1.1 1.3-1.8.4-2.9-.6-.7-.7-1.9-.3-2.5.5-.9 1.1-.7 2.1.6 1.4 2 1.7 1.3 1.3-3.4-.4-4.5 2.3-15.6 4.4-17.9 1.6-1.8 1.8-2.5.7-3.1-.9-.6-1-1.1-.2-1.5.6-.4 1.1-1.2 1.1-1.8s-.9-.3-2.1.8c-2 1.8-2 1.8-1.3-1 .5-2 .4-2.7-.4-2.2-1 .6-8.2-8.7-8.2-10.6 0-.4 1-1 2.1-1.3 1.7-.6 1.8-.9.8-1.5-1.1-.7-1-1.3.5-2.9 2.3-2.5 1-2.8-1.7-.4-1.9 1.7-2 1.7-1.5-.5.7-2.6.3-2.9-1.1-.5M230.5 243c.3.5-.1 1-1 1s-1.3-.5-1-1c.3-.6.8-1 1-1s.7.4 1 1M98.4 195.9c-1.6 1.2-2.1 2.8-2.1 5.9 0 3.9-.5 4.7-6.3 10.2-3.9 3.7-7.2 6-8.6 6-5.9 0-6.7 2-3 7.5 2.1 3 2.3 4.3 1.9 9.2-.5 5.7-.4 5.8 3.1 8.2 2.5 1.6 3.9 3.5 4.6 6.2.6 2.2 1.5 3.9 1.9 3.9.5 0 1.2.7 1.5 1.6.4 1-.3 1.8-2.3 2.5-2.1.7-3.1 2-4 5-.7 2.2-.9 4.4-.6 4.9s-.6 3.9-2 7.6c-1.4 3.6-2.5 7.6-2.5 8.9 0 4.8-2.2 8.1-8.7 13-3.7 2.7-8.4 6.7-10.6 8.7-4 3.8-5.2 4.2-15.8 5.3-7.3.8-14.8-1.9-16.8-6.1-.8-1.6-1.9-3.3-2.5-3.7-1.3-.9-10.2-.3-19.4 1.4L0 303.2v28.5l36.1 17.7c27 13.3 36.3 18.4 37.1 20.1 1 2.3 5 4.1 6.8 3 .5-.3 1.1-.1 1.5.5.3.5 1.5 1 2.7 1 1.9 0 2 .4 1.4 5l-.7 5h28l.7-4.5c.7-5.2 2.5-7.5 5.8-7.5 1.2 0 5.6-1.7 9.6-3.8 7.1-3.6 7.5-4 7.4-7-.3-5.8-16.4-42.5-21.9-49.6-2.3-3.1-2.5-3.8-1.6-7.7.6-2.4 1.1-6.9 1.1-9.9 0-3.1.4-6 1-6.6.9-.9 2.5-6.9 3.7-14 .6-3.9-2-9.4-4.6-9.4-1.8 0-4.8-5.6-3.6-6.8.3-.3.5-.1.5.5 0 .8 1.2.8 4 .1 7.7-2 10-11.2 5.7-23.2l-2.4-6.4 2-3.6c2.1-3.6 2.1-3.6.1-5.1-1-.8-2.6-1.5-3.4-1.5-.9 0-3.2-1.7-5.3-3.8-2.8-2.8-3.5-4.3-3-6 .4-1.7-.2-3.1-2.3-5.3-1.5-1.6-2.4-2.9-1.8-2.9.5 0 .1-.5-.8-1.1-1-.5-1.8-1.6-1.8-2.4 0-2.2-1.3-2.4-3.6-.6M83.9 307.6c.4-.3.8.6.9 2 .1 1.8-.5 2.7-2.3 3.4-1.4.5-2.5 1.4-2.5 2 0 2.2-8 5.1-13.3 4.8-4.2-.2-4.9-.5-3.7-1.5.8-.6 3.6-3 6.1-5.2 2.5-2.3 6.6-5.6 9-7.5l4.4-3.4.3 2.9c.2 1.6.7 2.7 1.1 2.5m341.9-100.4c-.3.7 0 3 .5 5 .8 3.4.6 4.2-2.6 9-1.9 2.9-4.4 7.2-5.6 9.5-1.2 2.4-2.5 4.2-2.9 4.2-.4-.1-1 0-1.4.1-1.5.5-2.8.8-4.2.9-2.2.2-1.3 2.3 2.7 6.2 3.5 3.5 3.7 4.1 3.7 9.9 0 3.3.5 9.2 1.1 13.1 1 5.6 1.4 6.7 2.5 5.8s1.4-.8 1.4.5c0 1.7-2.9 5.1-4.9 5.7-.7.3-1.5 3-1.8 6.2-.5 5.1-.3 6.1 2.2 9.7 3.8 5.4 3.3 12.5-1.3 19.2-3.7 5.4-3.9 6.4-1.3 7.8 2.2 1.1 1.8 4-1.1 8.1-1.1 1.4-3.5 8.4-5.4 15.5s-5.6 17.6-8 23.3c-2.5 5.7-4.8 11.9-5.1 13.7l-.6 3.4h40c30.9 0 40.3-.3 41-1.2.6-.7 1.1-2.9 1.1-4.8.1-2.9-.9-4.4-5.7-9.5-3.2-3.3-6.5-7.2-7.4-8.6-1.8-2.7-8.7-19.7-8.7-21.3 0-.5-1.6-4.2-3.6-8.3l-3.6-7.3 4.6-7.1c4.9-7.7 6.1-11.6 5.4-17.6-.6-5 1.9-7.5 6.4-6.6 1.8.3 3.8.9 4.3 1.3 1.6 1.2 8.5 5.1 14.8 8.2 5.5 2.8 5.9 2.8 12.3 1.7 3.7-.6 9.1-.9 12-.6l5.4.6v-8c0-7.3-.2-7.9-2-7.9-1.1 0-6.1-1.6-11-3.5s-9.8-3.5-10.8-3.5-4.5-.9-7.7-2-6-1.8-6.3-1.6c-.2.3-1.1-.1-1.9-.9-1.3-1.3-1.1-2 1.5-5.7 3.5-5.2 19.6-28.1 22.5-32 1.9-2.6 2-3 .5-4.4-1.5-1.5-1.7-1.4-2.9.7-1.6 3.1-18 26.7-23.6 34.1-3.8 5-4.6 5.6-6.6 4.9-1.2-.5-2.1-1.6-1.9-2.4.5-2.7-2.8-3.6-9-2.4-3.2.6-6 .8-6.3.5-.3-.2.4-2.2 1.4-4.4 1.1-2.1 2.9-5.9 4.1-8.4s3-6.1 4-8c1.7-3.4 1.7-3.6-.1-6.2-2.3-3.1-2.4-8.2-.4-12.2 1.9-3.5 1.6-4-1.8-2.7-1.7.7-2.8.7-3.2 0-.4-.5-1.1-.7-1.6-.3-.5.3-3.1-1-5.7-2.9s-6.6-4.4-8.9-5.7c-3.5-1.9-4.4-3-4.9-5.9-.8-5-1.2-6.1-2.3-6.1-.5 0-1.1.6-1.3 1.2"/></svg>