<svg xmlns="http://www.w3.org/2000/svg" width="682.667" height="512" version="1.0" viewBox="0 0 512 384"><path d="M270.1 184.7c-.9 1.6-1.2 1.6-2.2.3-.9-1.3-1-1.2-.5.3.4 1.2-.1 2-1.4 2.5-1 .4-1.8 1.1-1.7 1.6s-2.2 1.7-5.2 2.7c-4.7 1.6-5.6 1.7-8.1.4s-2.9-1.2-5 1-2.2 2.9-1.2 6.1c.9 3.1.8 3.9-1.4 7.1-2.5 3.7-2.7 7.1-.5 11.1 1.6 3 .7 4-1.6 1.9-1-.8-3.8-2.6-6.3-3.9-3.4-1.8-4.4-2.9-4.2-4.4.3-2.6-3.1-4.9-7.3-4.9-2.3 0-3.1.5-3.3 2.2-.2 1.3-.7 2.3-1 2.3-1.9 0-5.4-3.5-6.7-6.7-.8-2-2.3-4.2-3.2-4.9-4.1-2.9-11.2 5.4-11.3 13.2 0 6 5.8 10.4 9.2 7.1 1.7-1.7 5.8-4 6.3-3.5 1.4 1.3.4 10.6-1.9 18.1-4.8 15.9-4 16.8 12.7 16.1l11.8-.4-2.1 3.9c-1.6 3.3-2 5.9-2 14.5 0 5.9.5 11.6 1.2 13.1.9 2.1.8 3.3-1 7.3-3.7 8.1-11.2 34.9-11.2 40.1 0 2-.5 5.5-1 7.9-1.2 5 .9 13.9 3.8 16.5 2.5 2.2 7.8 4.7 9.9 4.7 1.7 0 1.8.7 1.5 7.1-.3 3.9.1 9.7.8 13l1.3 5.9h8.6l.3-12.2.3-12.2 3-.8c1.7-.4 6.4-1 10.6-1.3l7.6-.4 2.1 4.7c1.2 2.6 3.5 8.5 5 13.2l2.8 8.5 4.2.3 4.2.3v-5c0-6.5-1.7-14.6-4.2-19.5l-2-3.8 4.7-4.2c2.5-2.2 4.8-5 4.9-6.1.5-3.1-1.8-7.9-7.8-16.1-5.8-7.9-8.8-14.9-13.2-30.7-1.6-5.8-3.9-11.5-5.6-13.8-3.1-4.4-3.5-6.1-1.4-7.8 1.1-.9 1.3-2.6.9-6.5-.7-6.4.9-10 5.7-12.4 2.5-1.3 4.2-3.4 6.7-8.5 3.1-6.1 3.3-7 2.1-9.5-1.1-2.1-2-2.6-4.2-2.4-1.6.2-3.2-.2-3.6-.8-1.1-1.9.1-5.2 1.6-4.6 1 .4 1.4-.3 1.4-2 0-5.2 4.1-16.2 6.6-17.9 2.7-1.8 3.2-3.5.9-3.5-1.2 0-1.4-.7-.9-2.8.7-2.4.6-2.6-.9-1.3-1.1.9-1.7 1-1.8.2-.2-1.9-.5-2.5-3.1-7.9-2.4-4.7-2.5-5.3-1-6.1.9-.5 1.3-1.3.9-1.7s0-1.6 1-2.6c1.8-2 .4-2.5-1.6-.6-1.1 1.1-1.2.9-.6-1 .8-2.6 0-2.9-1.4-.5m-31.7 38.1c.2.4 0 1.4-.5 2.2-.8 1.3-1 1.3-1.9 0-.5-.8-1-1.8-1-2.3 0-1 2.8-.9 3.4.1m5.9 5.2c-.6 2.1-1.8 2.6-2.8 1.1-.4-.7 1.7-2.8 3.2-3.1 0 0-.1.9-.4 2m-15.5 3.6c2.6 1.8 2.9 3.4.7 3.4-.9 0-2.7.7-4.1 1.6-3.3 2.2-3.8 1.4-1.8-3 2-4.1 2.2-4.2 5.2-2m-126.2-45.1c-.3.8-1.1 1.5-1.8 1.5-.9 0-1.2 1.3-.9 4.6.3 4.5.2 4.8-5.9 10.9-3.9 3.9-6.8 6.1-7.7 5.8-1.8-.7-6.3 1.6-6.3 3.3 0 .7 1.1 2.9 2.3 4.8 2 2.8 2.3 4.3 1.9 9-.4 5.1-.3 5.6 1.9 6.5 3.9 1.7 5.9 3.7 5.9 6.1 0 1.2.9 3.4 2.1 4.8 1.9 2.5 1.9 2.6.2 3.3-3.2 1.2-5.5 4.6-4.8 6.9.4 1.4-.5 4.7-2.9 9.8-1.9 4.2-3.7 9.8-4.1 12.3-.5 4.2-1.1 4.9-6.8 9.1-3.4 2.5-7.3 5.1-8.7 5.8s-3.7 2.4-5.2 3.9c-2.1 2.1-4.2 2.8-11 3.7-8.1 1.1-8.4 1.1-14.5-1.7-3.5-1.5-6.3-3.4-6.3-4.2s-.9-2.2-2-3.2c-1.9-1.7-2.5-1.7-13.2-.1-6.2.9-12.1 1.9-13.1 2.2-1.6.5-1.7 1.8-1.5 13.5l.3 13 17.5 8.3c56.3 26.6 53.3 25 53.7 28.8.2 1.9 1.3 4 2.5 5 2.1 1.6 7.4 3.3 9.2 2.9 2.5-.5 3.5 2.2 2.9 8.9-.3 3.7-.3 8 .1 9.4.6 2.6.8 2.6 9.5 2.6h8.9l2.7-7.3c1.5-3.9 3.2-8.4 3.7-10 .9-2.3 1.6-2.7 4.7-2.7 5.5 0 22.1-8.3 22.1-11.1 0-3-4.7-16.1-9-25.4-2.1-4.4-4.8-10.5-6.1-13.5-1.2-3-3.7-7.5-5.5-10-2.5-3.6-3-5-2.3-6.8.5-1.2 1.2-6 1.5-10.5.4-4.5 1.3-9.5 2.1-11 .8-1.6 1.3-3.8 1.1-5-.1-1.2.3-3.6 1-5.2 1.6-3.9-.3-9.1-3.9-10.9-1.4-.7-2.5-2.2-2.6-3.6s0-1.9.3-1.3c.4 1 1 1 2.7.1 1.2-.7 2.9-1.2 3.7-1.3.8 0 2.6-2.2 3.9-4.9 2.3-4.6 2.4-5.2 1.2-10.8-.7-3.3-1.9-7.5-2.8-9.4-1.7-3.5-1.4-5 1.9-9.7 1.5-2 .4-3.1-4.9-4.6-4.1-1.2-9.4-7-8.7-9.4.4-1.2-.5-3.5-2.4-6-1.6-2.3-3.2-5.2-3.6-6.5-.8-2.5-2.1-2.9-3-.7m-17 110.6c.2 2.3-.4 3.7-2.4 5.5-1.5 1.3-3.2 2.4-3.9 2.4-.6 0-1.3.4-1.5.9-.1.5-3.2 1.3-6.8 1.7-6 .7-6.4.6-5.1-.9.7-1 1.9-1.7 2.5-1.7.7 0 2.3-1.2 3.7-2.6 2.9-3.2 12.1-9.5 12.8-8.8.3.2.6 1.8.7 3.5m345.9-97.7c.7 5.1.5 5.6-3 10.1-2 2.6-4.5 6.5-5.5 8.5-2 4-3.6 5-7.6 5-3.3 0-3.1 2.9.4 6.4 2.8 2.5 2.9 3.3 3.5 13.9.6 9.4 2.3 20.3 2.6 15.9.1-.7.5-1.1 1.1-.7 1.4.9-.8 5.1-3.6 6.6-2.5 1.3-2.5 1.5-2.9 13.4-.1 2.2-.9 5.4-1.8 7.2-2.1 4-2.2 7.2-.1 10.1 1.4 2 1.4 2.4-.5 5.1-2 2.8-2 2.8-.1 6.4l2 3.6-2.5 3.7c-1.4 2.1-3.2 6.3-4.1 9.3-4.2 15.6-7.7 24.4-13.3 33.9-6.7 11.3-6.3 15.3 2.1 22.1l5.1 4.1h26.8c21.4 0 26.9-.3 26.9-1.3 0-.7 2.3-3 5-5.1 7-5.3 7.2-7.3 2.3-16.5-2.6-4.9-5-11.5-6.8-18.6-1.4-6.1-3.3-13.7-4.1-17s-2.6-7.9-4-10.3c-2.9-5-2.8-5.3 2.4-12.5 4.1-5.4 6.2-10.3 6.2-14.4 0-3.9 7.1-9.6 9-7.1 1 1.3 18.5 11.9 20.5 12.4 1.1.3 4.9-.2 8.5-1 3.6-.9 8.6-1.6 11.3-1.6h4.7v-15.9l-5.7-1.6c-3.2-.9-7.2-2.3-8.9-3-1.7-.8-6.2-2.1-10-3-3.8-.8-8.4-1.9-10.2-2.4-1.8-.6-3.9-.8-4.7-.5-2.5 1-.9-4.1 3.9-12.4 2.5-4.5 4.6-8.3 4.6-8.6 0-.2 1.6-3.2 3.6-6.7 2.4-4.3 3.3-7 2.9-8.6-.3-1.3-.9-2.3-1.3-2.3s-3.8 6.2-7.7 13.7c-10.9 21.1-14.5 26.1-14.5 19.9 0-3.3-2.3-5-4.9-3.7-2 1.1-9.1 1.5-9.1.6 0-.3.4-1.3 1-2.3.5-.9 2.1-4.2 3.5-7.4 1.4-3.1 3.2-5.8 3.9-6.1 2.1-.8 2.7-7.5 1.1-10.8-2-3.7-1.9-5.7.4-10.2 1.9-3.8 1.6-5.2-.9-3.7-2.2 1.4-5.9.1-10.8-3.7-2.4-1.8-6.3-4.5-8.7-5.8-3.9-2.3-4.3-3-4.9-7.5-.5-3.5-1.1-5-2.2-5-1.3 0-1.4.9-.9 5.4"/></svg>