<svg xmlns="http://www.w3.org/2000/svg" width="682.667" height="512" version="1.0" viewBox="0 0 512 384"><path d="M271.3 176.1c.8 2.5-3.5 5.6-10 7.3-5.9 1.6-9.3 1.4-9.3-.5 0-.6-1-.5-2.1.2-1.9 1-2.1 1.7-1.5 5.9.5 3.6.3 5-.9 6-.8.7-2 2.9-2.6 5-.9 3.1-.9 4.4.5 7 .8 1.8 1.3 3.7 1 4.2-.7 1-4.2.1-6.4-1.7-.8-.7-3.2-1.8-5.2-2.5-3.3-1-3.8-1.6-3.8-4.2 0-2.5-.3-2.9-2-2.5-1.2.3-2 0-2-.7s-1.4-1.2-3.2-1.1c-2.6 0-3.4.5-3.6 2.2-.6 4.3-5.6 1.8-9.8-4.8-2.8-4.4-5.1-4.9-8-1.7-4.4 5-5.4 10.5-3 16.3 1.8 4.2 3.9 4.5 8.6 1 4.5-3.3 6.9-3.3 6.2 0-.2 1.4.1 3.1.7 3.9.8 1 .9 2 .2 3.3-1.2 2.3-5.1 14-5.8 17.6-.4 1.9 0 3.4 1.3 4.9 1.7 1.8 2.6 1.9 7.9 1.3 3.3-.3 9-.7 12.6-.8l6.7-.2-2 4c-1.8 3.5-2 5.1-1.5 13.5.4 5.2 1.2 10.9 1.8 12.5 1 2.6.9 3.7-1 7.4-1.2 2.3-3.8 8.8-5.7 14.4s-6 15.3-9 21.4c-6.3 12.8-7.3 17.2-5.1 22.6 1.9 4.3 5.7 6.9 15 9.9l6.9 2.2-.5 5c-.2 2.8.4 8.7 1.4 13.2 1 4.7 1.5 9.9 1.2 12.3l-.6 4.1h5.1c5.7 0 7-1.6 5.2-6.4-1.2-3.3-1.3-25.6-.1-27.5.7-1 3.2-1.4 9.7-1.4 7.9.1 8.9.3 10.4 2.4 2 2.5 8.1 21.2 8 24.5 0 1.2.3 3.6.6 5.3.6 2.9.9 3.1 4.9 3.1 4.2 0 4.3-.1 4.9-4 .4-2.5.2-4.9-.5-6.3-.7-1.2-1.6-6.1-2-10.8-.5-5.5-1.6-10.3-3-13.3-2.1-4.3-2.2-4.6-.6-6.4 2.3-2.5 2.2-9-.4-16-5.7-15.6-7.1-20.6-9.4-31.9-2.4-12.1-3.8-16.4-7.1-21.5-1.7-2.6-1.7-2.8.1-4.8 1.7-1.9 1.7-2.5.6-6.9-1.6-6.3.2-11.3 4.6-12.9 3.3-1.1 6.4-5.5 8.8-12.2 1.4-3.9 1.4-4.6-.1-6.7-1.2-2-2.1-2.3-4.4-1.8-1.7.4-3.1.2-3.6-.6-.4-.8-.3-.9.4-.5s1.2.2 1.2-.4.4-.8 1-.5c.9.6 2.4-3.3 1.8-5.1-.1-.5.6-4 1.6-7.7 1.4-5.1 2.6-7.3 4.7-8.8 2.9-2 3-4.9.2-4.9-1 0-1.4-.7-1-2 .3-1.4 0-2-1.1-2-.8 0-1.3-.3-1-.6.4-.3-.4-2.8-1.7-5.6-2.2-4.7-2.2-5.3-.8-7.4.8-1.3 1.2-2.4.8-2.4s-.2-.7.5-1.5c1-1.2.9-1.5-.4-1.5-1.1 0-1.4-.4-1-1.3.5-.7.1-.7-1 .2-1.5 1.3-1.9 1.3-2.8 0-.8-1.2-.9-1.2-.5.2M240 215.6c0 .8-.7 1.4-1.5 1.4s-1.5-.2-1.5-.4-.3-1.1-.6-1.9c-.4-1.2 0-1.4 1.5-1 1.2.3 2.1 1.2 2.1 1.9m4.4 1.6c-.5.7-.1.9.9.5 1.4-.5 1.7 0 1.7 2.3 0 3.7-1.3 4.5-3.5 2-1.8-2-1.4-7.7.5-6.5.6.4.7 1.1.4 1.7m-12.6 7.6c.2.7-.3 1.2-1.1 1.2s-2.6.9-3.9 2c-3.5 2.7-4.1 1.5-1.7-3.2 1.9-3.7 2.2-3.9 4.2-2.5 1.1.7 2.3 1.9 2.5 2.5m40.9-.6c-.3.8-.6.5-.6-.6-.1-1.1.2-1.7.5-1.3.3.3.4 1.2.1 1.9M104.8 178c-1 1.2-1.7 3.5-1.6 6.1 0 4.1-.4 4.7-6.3 10.1-3.5 3.1-7.3 5.8-8.4 5.8s-2.9.7-4 1.6c-1.9 1.4-1.9 1.5.7 6.2 2.1 3.9 2.5 5.6 2.1 9.8l-.5 5.1 4.1 2.4c2.2 1.2 4.1 2.5 4.2 2.8 0 .3.2 1.6.3 2.9.2 1.3 1 3 1.9 3.9 1.5 1.6 1.4 1.9-1.5 4.3-2.3 1.9-3.1 3.5-3.2 6-.1 1.9-1.5 6.4-3.3 10-1.7 3.6-3.7 8.4-4.3 10.7-1.2 4.6-4.6 7.6-14.7 12.7-2.9 1.4-5.6 3.2-6 3.9-1.1 2-6.6 3.4-14.8 4.1-8.8.7-15-1.4-17.5-5.9-1.5-2.6-2.2-3-6.6-3.2-2.7-.2-9.4.5-14.9 1.5l-10 1.7-.3 12.1-.3 12 14.8 6.6c8.1 3.7 18.9 8.5 23.8 10.9 15.3 7.1 32.9 15 34.7 15.6 1.4.4 1.6 1.4 1.1 5.2-.5 4.1-.2 5.1 1.6 6.8 2 1.8 3.6 2.5 10 3.9 3 .6 3.2 2.2 1.2 9.9-2.4 8.9-2.7 16.3-.8 18.8 1.1 1.5 2.8 1.7 12.5 1.5l11.3-.3-3.5-7-3.5-6.9 3.5-6.2c3.6-6.4 6.5-8.4 12.2-8.4 1.4 0 6.7-2 11.8-4.5 10.3-4.9 10.4-5 8.1-12.6-2.8-9-17.1-42.2-19.4-44.9-2.1-2.6-2.2-3.3-1.3-7.2.5-2.4 1-6.2 1-8.4 0-2.3.6-6.4 1.4-9 4-13.8 3.7-21.1-.9-23.2-1.6-.8-2.5-2-2.5-3.4 0-1.5.3-1.9.8-1.1.6 1 1.4.9 3.5-.2 1.5-.8 3.1-1.3 3.4-1.2 1.6.5 5.3-6.8 5.3-10.2 0-4-2.1-12.6-3.9-15.9-.9-1.8-.8-2.9.9-6.3 2.1-3.9 2.1-4.1.3-5.5-1-.7-2.7-1.4-3.9-1.4-2.9 0-8.2-5.9-9-10-.4-1.9-2-5-3.6-6.8-1.5-1.8-2.8-4.2-2.8-5.2 0-2.4-1-2.4-3.2 0M88 285.9c0 2.1-1 3.5-4.4 5.9-3.9 2.8-5.2 3.2-10.8 3.1-6.2-.1-6.3-.1-3.3-1.5 1.7-.8 6.1-3.7 10-6.4 3.8-2.7 7.3-4.6 7.7-4.4.4.3.8 1.8.8 3.3m346.3-100.1c.5 4.6.3 5.4-2.3 8.4-1.6 1.8-4.6 6.1-6.6 9.5-3.5 6-3.8 6.3-7.6 6.3-3.5 0-3.8.2-2.8 2 .6 1.1 2.2 3.2 3.6 4.7 2.2 2.3 2.5 3.5 2 6.8-.2 2.2-.2 8.2.1 13.2.5 7.1.9 9.3 2 9.3 2.3 0 1 2.3-2.8 4.8-2.1 1.4-3.4 3.2-3.4 4.5-.1 3.8-2.8 11.1-5.7 15.4-3.5 5.2-3.5 6.8-.2 11.7 2.3 3.3 2.5 4.2 1.5 5.8s-.9 2.4.3 4.3c2.1 3.2 2 4.7-.5 8.9-1.1 1.9-3.3 9.1-4.9 15.9-3 12.9-6.2 21-12.4 31.1-2 3.3-3.6 7-3.6 8.3 0 4 7.5 11.1 13.6 12.9 5.1 1.5 9 2.2 12.6 2.3.9.1 2.1 1.3 2.6 2.8.8 2.4.5 3.2-2.1 6l-3.1 3.3H435v-5.5c0-3.9.4-5.7 1.4-6.1 2.8-1.1 5.4 1.5 6.7 6.6l1.3 5h13.5l-1-3.2c-.5-1.8-.9-5.9-.9-9 0-5.5.2-5.9 3.5-8 4-2.6 5-5.1 4.2-11.1-1.9-13.8-9.7-40.3-14.6-49.3-1.7-3.2-3.1-6.2-3.1-6.8 0-.5 2.1-3.6 4.6-6.8 4.8-6.2 6.9-11.5 5.9-14.9-1.6-5 7.2-8.1 11.1-3.8 2.6 2.8 13.7 10.7 16.9 11.9 2.2.9 4 .5 10.3-2.4 4.3-1.8 9.4-3.7 11.4-4 2.2-.4 4.2-1.5 4.8-2.6 1.3-2.4 1.3-15.3.1-14.5-.5.3-1.3 0-1.6-.6-.5-.7-2.1-.8-4.2-.4-3.3.6-12.3-1.6-14.9-3.6-.6-.5-5.6-1.8-11.1-3s-10.6-2.5-11.3-2.9c-1-.6.6-4.7 6.2-16.6 6.9-14.6 8.1-18.4 5.8-18.4-.5 0-3.6 5.3-6.8 11.7-8.6 16.9-9.4 18.2-11.7 18.3-1.1 0-3.9.3-6.2.6-2.4.3-4.3.4-4.3.2s.9-2.1 2-4.3 2-5.3 2.1-7c.1-2.9.1-2.9.9-.5.4 1.4.8 1.9.9 1.2s1.2-3 2.6-5c2.8-4.1 3.1-7.5 1.1-11.1-1.5-2.7-1.4-3.2 1.6-9.9 2.2-4.9 1.9-5.9-1-4.1-2.5 1.6-4.9.5-13.9-6.3-3.5-2.6-6.9-5-7.7-5.5-.8-.4-1.8-3-2.3-5.7-1.2-7-3.8-7.7-3-.8"/></svg>