<svg xmlns="http://www.w3.org/2000/svg" width="682.667" height="512" version="1.0" viewBox="0 0 512 384"><path d="M270.3 146.6c1.5 2.5-1.9 6.2-8.8 9.7-5.7 2.8-7.4 3.2-9.3 2.4-3.4-1.6-4.7.3-3.1 4.6 1.1 3.1 1 4-1.1 8.2-2.2 4.5-2.2 4.9-.7 8.1.9 1.9 2 3.4 2.5 3.4.4 0 .6 1.6.4 3.6l-.4 3.7-6.1-.7c-3.3-.3-7-.6-8.3-.6-1.6 0-2.4-.7-2.6-2.2-.4-2.7-5.4-4.3-9.2-2.8-2.2.8-2.5 1.4-2 3.5.5 2.2.3 2.5-1.9 2.5-3.7 0-7.7-1.9-11.5-5.4l-3.2-3-2.3 2.2c-1.8 1.8-2.2 3.3-2.1 8 .1 5.8 2.2 11.5 4.7 12.5.8.3 3.1-1.3 5.6-3.9 2.3-2.4 4.8-4.4 5.7-4.4.8 0 1.2.4.9 1-.3.5.1 2.5 1 4.3 1.5 3.1 1.4 3.7-1 11.1-4 12.4-1.1 14.2 13 8.3 3.3-1.3 7.4-2.7 9.2-3l3.2-.6-1.5 3.4c-2 5-1.7 9.5 1.2 18.5l2.6 7.9-1.9 2.8c-2.3 3.3-3.7 7.1-9.2 24.8-3 9.7-4.8 13.8-6.9 16-8 8.2-10.3 15.8-6.3 20.2 1 1.1 4.9 3.3 8.5 4.9s6.6 3.2 6.6 3.6c0 .5 1.1.8 2.3.8 2.3 0 2.4.2 1.9 7.3-.3 4.7.2 10.3 1.2 15.3.9 4.4 1.3 9.6.9 11.7-.3 2.3-.1 4.7.7 6.2.9 1.7 1 3.7.4 7.2l-.9 4.8-9 .5c-5 .3-9.6.9-10.2 1.3-1.8 1.2-1.6 6.2.3 7.8 2.4 2 59 1.7 61-.3 2.3-2.3 2.4-7.2.4-15.7-1.1-4.3-1.9-9.9-1.9-12.2-.1-14-1.1-25.8-2.5-29.1-1.9-4.5-2.2-11.3-.7-15.1s1.4-12.4-.3-23.2c-.8-5-1.7-11.9-2.1-15.5-.9-9.9-2.5-17.1-4.6-21-2.3-4.3-2.4-5.8-.3-8.2 1.6-1.6 1.5-2.1-.4-6.7-2.6-6.3-1.5-10.9 3.1-13.1 2.2-1.1 4-3.4 6.5-8.3 3.2-6.6 3.3-6.9 1.7-9.4-1.3-1.9-1.8-5.7-2.2-14.8-.5-11.8-.4-12.4 1.6-13.4 2.7-1.5 2.7-4-.2-6.6-2.8-2.6-8.2-13.9-7.3-15.4.4-.6.9-2.6 1.1-4.4.2-2.6-.1-3.3-1.6-3.4-1.1-.1-1.9.3-1.9.9s-.7.5-1.7-.3c-.9-.8-1.4-.9-1-.3m-25.5 48.8c.7 3.4-1.5 4.2-4.3 1.6-2.4-2.2-2.4-2.5-.8-3.2 2.8-1.1 4.7-.5 5.1 1.6m7.7.1c0 1.3-.8 2.1-2.2 2.3-1.9.3-2.3-.1-2.3-2.3s.4-2.6 2.3-2.3c1.4.2 2.2 1 2.2 2.3m-30.5 3.6c0 .5-.4.9-1 .9-.5 0-1-.7-1-1.6 0-.8.5-1.2 1-.9.6.3 1 1 1 1.6m57.6 2.6c-1 1-1.9-.5-1-1.8.6-1.1.8-1.1 1.2 0 .2.7.1 1.5-.2 1.8m-13.4 120.2c1.4.2 2.9 4.3 5 13.4 2.5 11.1 2.9 19.2 1.6 31.3l-1 9.1-3.7-.8c-2-.5-5.4-.9-7.6-.9-5.1 0-5.7-.5-7.8-6-1.9-5.2-2.2-8.6-.7-9.5.9-.6.4-4.8-.8-7-.7-1.1-.4-15.2.4-24l.6-6 6.6.2c3.7.1 7 .2 7.4.2M109.5 150c-.3 1.1-1.1 1.9-1.7 1.7-.8-.1-1.1 1.3-.9 3.8.2 3.8-.2 4.4-6.3 10.3-3.6 3.4-7.3 6.2-8.3 6.2-3.8 0-6.3 1.3-6.3 3.1 0 1.1.4 1.9.8 1.9 2 0 4.2 6 3.6 9.9-.9 5.7.1 8.4 3.5 9.9 2.2 1 3.3 2.4 4.1 5.1.5 2 1.6 4.5 2.4 5.6 1.9 2.5 2 3.5.2 3.5s-4.6 3.8-4.6 6.3c0 1-.9 3-2 4.4s-2 3.3-2 4.2-1.7 4.1-3.8 7.1c-3.8 5.6-9.2 9.8-19.4 15-3.1 1.7-6 3.5-6.5 4.3-1.4 2.3-6.3 3.7-12.7 3.7-5.5 0-6.7.4-8.9 2.6-2.6 2.5-4.7 2.5-4.7 0 0-.7-.9-2.1-2-3.1-2-1.8-2.5-1.8-12.3-.2-5.6.9-12.8 1.9-16 2.3l-5.8.7.3 10.5.3 10.6 16.5 7.1c35.9 15.4 62.6 26.4 65.4 27 2.5.5 2.8.9 2.3 3.4-.7 3.4 2.2 7.1 5.6 7.1 4.8 0 5.2 1.4 2.4 7.8-1.4 3.4-2.8 7.6-3.1 9.4s-.8 4.6-1.1 6.2c-.6 4.1 1.4 7.3 10.6 17 6.2 6.6 8.3 9.6 9 12.7 1.5 6.3 2.5 6.9 12.8 6.9 10.2 0 9.3.8 7.6-7.3-.3-1.7-1.5-3.1-2.9-3.7-2.9-1-6.6-8.8-8.5-17.5-.8-3.3-2.4-8.5-3.8-11.5-4.1-9.3-1.4-13.6 9.7-15.2 6.4-.8 16.7-5.3 18.4-8 1.5-2.5-.7-14-6-31.4-4.7-15.3-7.3-21.4-10.6-25-2.8-3.1-3.7-19.8-1.3-24.4.9-1.7 1.5-4.7 1.3-6.5-.1-1.9.1-3.7.5-4.1.9-.9.9-6.6.1-8.8-.3-.9-1.4-1.6-2.3-1.6-1 0-2.3-1.1-2.9-2.5-1.6-3.4-1.5-4.6.3-3.9 2.3.9 8.3-1.5 10.5-4.3 2.7-3.4 2.6-8.4-.4-17.4-2.4-7.4-2.4-7.4-.5-10.7 2-3.5 2.4-5.3 1.2-5-.5.1-2.4-.5-4.4-1.4-4.7-2-8.9-7.6-8.9-11.6 0-2.1-1-4.3-3-6.5-1.6-1.9-3-4.4-3-5.6 0-2.7-1.7-2.7-2.5-.1M92.6 254.1c1.8 5.9 1.8 5.9-1.6 7-1.6.6-3 1.5-3 2s-.9.9-2.1.9c-1.1 0-2.8.7-3.7 1.6-1.3 1.3-3 1.5-8.8 1.2q-7.2-.45-10.5.9c-1.8.7-3.9 1.1-4.7.8-2.2-.8 2.6-5.7 4.9-5 1 .3 2 .1 2.4-.5.3-.5 1.3-1 2.2-1s4.6-2 8.2-4.4c9-5.9 13.4-8.5 14.5-8.2.5.1 1.5 2.2 2.2 4.7m-40.9 8.2c2.4.9 3 1.6 2.4 2.6-.8 1.2-1.6 1.2-5.5.1-4.5-1.2-5.3-2-3.9-3.3.9-1 3.3-.7 7 .6M86 275.5c1.8 2.2.8 2.7-3 1.3-3-1-3.2-1.2-1.4-1.9 2.8-1.1 3-1.1 4.4.6m8.2.4c2.6-1.4 3.4-.4 2 2.6-1 2.2-1.4 2.3-4.4 1.3-4.3-1.4-4.3-1.5-2.8-3.3.9-1.1 1.7-1.2 2.3-.6.7.7 1.7.7 2.9 0M424 150.6c0 .3.7 1.8 1.5 3.4 1.9 3.6 1 6.3-1.7 5.4-1.6-.5-1.9-.2-1.4 1.3.5 1.4-1.1 3.6-6.3 8.6-3.8 3.7-7.4 6.7-8 6.7-.7 0-1.9.6-2.6 1.4-1.2 1.1-1 1.9 1.2 5.1 2.4 3.6 2.5 4 1.3 9-1.3 5.5-.9 7.7 3.4 17.8l1.7 3.8-3.5 1.4c-2 .8-4.1 1.5-4.8 1.5-.7.1-3.1.9-5.3 2-5.4 2.6-9.9 2.5-12.5-.2-3.6-3.9-12.8-3.9-16.7-.1-2.4 2.2-1 8.8 2.6 12.8 1 1.1 3.1 4.2 4.6 7 5.5 10.1 8.8 10.9 18.8 4.6 9.7-6.2 9.7-6.3 5.5 7.9-3 10-3.1 11.5-1.4 12.9 2.1 1.8 2 3.7-.4 7.5-1 1.8-2.4 6.3-2.9 10.1-6.5 44-6.5 44.1-3.3 50.2 1.5 2.7 6.9 7.3 8.7 7.3 1.4 0 2 1.3 3 7 .5 2.6 0 4.9-1.9 9-2 4.2-2.6 7.2-2.6 12.5-.1 3.8-.7 8.8-1.5 11-2.3 6.4-2.2 6.5 5 6.5h6.5v-3.3c0-1.9 2-9.3 4.5-16.6 2.7-7.9 4.5-15 4.5-17.7 0-5.2.4-5.4 8.5-5.7l5.8-.2 2.2 6.5c1.2 3.6 2.5 9.2 2.9 12.5s1.2 10.2 1.8 15.2l1.1 9.3h5.4c4.7 0 5.3-.2 4.5-1.6-.5-.9-.5-3.4-.1-5.8 1.1-5.8 1.1-18.5-.1-22.6-.6-1.9-1.5-6.4-2.1-10-1.1-6.9 0-11 2.9-11 1.8 0 11-6 13.6-8.9 3.2-3.6 1.3-7.1-14.8-26.9-2.3-2.9-6.2-8.9-8.5-13.5-2.4-4.5-5.7-10.3-7.3-13l-3-4.7 4.2-8.5c3.6-7.2 4.2-9.3 3.8-12.9-.3-2.4-.1-5.1.4-6 1.3-2.3 7.4-2 11.6.6 3.8 2.3 11 4 11.7 2.7.3-.4 3.1-1 6.3-1.4 3.1-.3 7.6-1.3 9.9-2.1 3.1-1.1 5.1-1.3 7.7-.5 6.7 1.8 6.1-3.6-1.1-9.5-5.9-4.9-8.9-6.5-12.9-6.8-1.7-.2-3.5-.5-4-.8-.5-.2-3.1-.5-5.9-.6-5.8-.2-16-3.1-14.8-4.3 1.5-1.4 26.3-5.7 26.3-4.5 0 .6.4.5.9-.3s1.6-1.1 3-.6c2.7.8 6.1-.2 6.1-1.9 0-.7-.9-2.1-1.9-3-1.6-1.5-2.5-1.6-5.3-.7-4.2 1.3-32.9 6.3-33.4 5.8-.3-.2.7-3.6 2.1-7.4 3-8.3 3-9.4.8-15.5-1.7-4.7-1.7-4.8.6-7.9l2.3-3.1-2-2.7c-1.4-1.8-2.9-2.6-5.2-2.7-2.3 0-4.9-1.4-9.1-4.7-5.1-4.1-5.8-5.1-5.3-7.3.8-3.2-1.2-8.1-3.7-8.7-1-.3-1.9-.3-1.9-.1m55.3 58.1c-.7.2-1.9.2-2.5 0-.7-.3-.2-.5 1.2-.5s1.9.2 1.3.5"/></svg>