<svg xmlns="http://www.w3.org/2000/svg" width="682.667" height="512" version="1.0" viewBox="0 0 512 384"><path d="M271.7 142.1c-.3 1.2-1 1.8-1.5 1.5-.8-.5-2.1 1.8-2.6 4.7 0 .4-1.2 1.3-2.6 2.1-1.4.7-4.8 2.7-7.7 4.4s-5.5 2.7-5.8 2.2c-.8-1.3-4.5-1.3-4.5 0 0 .6.7 2.6 1.5 4.6 1.3 3.2 1.3 3.7-.5 6.7-2.6 4.2-2.5 6.4.5 10.7 1.9 2.8 2.3 4.3 1.9 7.2-.4 2-1.2 3.9-1.8 4.1s-4.5.1-8.6-.3-7.1-.8-6.7-.9c.4 0 .3-1-.3-2.2-.7-1.1-1.7-1.8-2.5-1.6-.7.3-1.7.1-2.2-.4s-2-.4-3.7.3c-2.2 1.1-2.6 1.8-2.3 4.1.3 2.2-.1 2.9-2 3.3-3.2.9-7.2-.3-11.6-3.4-5.1-3.4-7.1-2.3-7.5 4.3-.6 8.9 5.4 19 8.3 13.9.5-1 2.5-3.4 4.4-5.4l3.4-3.5.8 2.8c.4 1.6 1.3 3.4 1.9 4.2.8.9.5 3-1.1 7.8-2.4 7.4-2.1 9.4 1.6 10.3 1.9.5 4.2-.4 9.3-3.4 3.7-2.2 8.1-4.3 9.7-4.6l3.1-.7-.4 6.8c-.4 6.5.1 8.8 3.8 17.8 1.1 2.7 1 3.4-1.3 6.8-1.4 2.1-5 11.2-8 20.3-4.3 12.8-6.6 18.2-10.6 24.2-7.8 11.9-7.1 15 4.5 20.4 3.8 1.7 7.2 3.6 7.5 4.1s1.5.7 2.5.5c1.3-.2 1.8.2 1.6 1.2-1.3 5.4-1.2 12.7.2 20.6 1.2 6.8 1.4 9.9.6 12s-.7 3.5.4 5.9c1.2 2.4 1.3 3.9.4 7.3l-1 4.2h-6.3c-3.4 0-7.6.5-9.4 1.1-2.9 1-3.2 1.5-2.9 4.7.3 3.1 1 4 5.2 6.7l4.9 3 24.2.3 24.1.3 1.3-2.8c1.3-2.8 1.7-15.5.5-17.4-1.4-2.4-3.2-12.4-2.3-13.5.5-.6.5-2.4-.1-4.4-.5-1.9-.7-6.4-.4-10.1.5-5.1.2-7.9-1.2-12-2.5-7.4-2.5-8.9 0-12.9 1.8-2.9 2.1-5 2.1-13 0-12.8-4.8-42.4-8.1-50.1l-2.5-6 2.1-1.7 2.1-1.7-2.1-5c-2.6-6.1-2-12.2 1.4-13.5 2.3-.8 7.6-7.1 7.6-9 0-.6.7-2.2 1.6-3.5 1.2-1.9 1.4-2.8.5-3.8-.6-.8-.8-1.7-.4-2 .3-.4-.6-.7-2-.7-2.5 0-2.7-.3-2.6-4.3 0-3.7.1-3.9 1-1.8.5 1.3 1.2 2.1 1.5 1.8.6-.5-.1-6.4-2.1-19.7-.2-1.7.5-3.4 2.2-5.2 2.5-2.6 2.3-5.4-.3-4.4-.9.3-1.4-.2-1.4-1.4 0-1.1-.4-2-.9-2s-2.3-2.7-4.1-6.1c-2.4-4.7-2.9-6.4-2-7.4.7-.8.9-1.9.5-2.5s-.1-1.8.7-2.7c1.1-1.4 1-1.6-.8-1.1-1.7.4-2 .2-1.7-1.3.3-1.1.3-1.9 0-1.9-.2 0-.7.9-1 2.1M253 188.4c0 .3-.4.8-1 1.1-.5.3-1 .1-1-.4 0-.6.5-1.1 1-1.1.6 0 1 .2 1 .4m0 5.1c0 .8-.9 1.5-1.9 1.5-2.4 0-3.6-1.6-1.9-2.3 2.4-1 3.8-.7 3.8.8m-7 1.5c0 1.2-4.5 2.4-6 1.5-.5-.3-.8-1.1-.5-1.6.8-1.2 6.5-1.2 6.5.1m-23.5 6c.3.5.1 1-.4 1-.6 0-1.1-.5-1.1-1 0-.6.2-1 .4-1 .3 0 .8.4 1.1 1M262 318c5.5 0 5.5 0 8.6 14 1.8 8.4 2.1 30 .4 34.5-1 2.6-1.1 2.7-7.8 2-3.7-.4-7.2-1.1-7.7-1.5-2-1.6-3.9-10.2-2.8-13 .6-1.6.6-3.6.1-5.1-.9-2.3-.3-24.7.8-29.7.3-1.6 1-2.2 2-1.8.9.3 3.7.6 6.4.6m162-173.5c.7.8.9 1.5.5 1.5s-.2.7.5 1.5c1.4 1.6.4 5.5-1.4 5.5-.6 0-1.8-.6-2.5-1.3-1-1-1.1-.7-.6 1.3.5 2.1-.3 3.4-4.9 7.9-3.6 3.5-6 5.2-7 4.8s-2 .1-2.6 1.2c-.6 1.2-1.7 1.7-2.9 1.4-1.5-.4-1.9-.1-1.6 1.4.2 1 .4 2.1.4 2.5.1.3 1.3 2 2.7 3.7 2.3 2.8 2.5 3.5 1.5 6.3-1.7 4.9-1.3 10.8 1.4 17.2 1.3 3.3 2.3 6.1 2.1 6.3-.5.6-14.6 3.4-23.3 4.7l-8.3 1.3-2.7-2.9c-3-3.2-5.5-3.5-10.6-1.3-2.4 1-3.6 2.2-4 4-.5 2.7 2.3 9.8 4.4 11 .6.4 3 3.8 5.4 7.5 6.8 10.6 8.7 10.9 20.2 4 3.6-2.2 7.4-4 8.5-4 1.9 0 2 .4 1.4 4.2-.4 2.4-1.7 7.6-2.8 11.6-1.7 5.9-1.9 7.7-1 9 2.4 3.4 2.4 4.4.3 8.2-1.4 2.6-3.2 9.8-5.1 20.7-1.6 9.2-3.4 19.5-4.1 22.9-.8 4.5-.8 7.2.1 10.3 1.2 4.6 7.1 11.8 10.6 13.2 3.3 1.2 4.4 10.7 1.8 15.8-1.4 2.8-1.8 6.2-1.9 14.8-.1 6.5-.7 12.5-1.5 14.3-1 2.3-1 3.4-.1 4.3.6.6 1.1 1.9 1.1 2.9 0 1.5.8 1.8 4.4 1.8 5.6 0 7-1.7 6.3-7.2-.4-3 .4-7.7 3-17.2 2-7.2 3.8-15.7 4.1-18.9.5-6.7 1.1-7.3 9.9-7.9l6.2-.4 2.5 7.2c2.6 7.2 5.4 23.8 6.3 37.2l.5 7.2h12.1l-.8-3.7c-.5-2.1-1-9.6-1.1-16.8-.1-8.6-.7-14.7-1.8-18-.9-2.8-1.9-8.3-2.3-12.3-.5-6.6-.4-7.2 1.3-7.3 1 0 3.3-.9 4.9-2 1.7-1 3.9-2.3 5-2.8s3.2-2 4.7-3.4c2.4-2.2 2.6-2.9 1.7-5.9-.5-1.9-4.6-7.4-9.8-13.1-6.8-7.4-10.2-12.1-14.2-20-2.8-5.6-6.7-12.5-8.5-15.3-1.8-2.9-2.9-5.6-2.4-6 2-2.2 7-17 7-20.7 0-6.3 1.1-7.4 4.6-5 1.6 1.1 4.4 2.5 6.2 3.1 3 1 4 .8 8-1.3 2.6-1.4 5.4-2.5 6.2-2.5s2.9-.9 4.5-2c1.7-1.1 4-2 5.2-2 3.6 0 4-3.7.6-7.2-4.3-4.5-11.5-9-12.7-7.8-.6.6-1.3.4-2.1-.7-1-1.3-1.5-1.3-3.4-.3-1.3.6-2.1.7-1.7.2.9-1.5-1.6-2.1-3.6-.9-1.2.8-2.3.6-4.5-.8l-2.8-1.9 9-1.7c14.8-2.8 27.6-4.2 28.7-3.1 1.4 1.4 3.8.3 3.8-1.8 0-.9-.9-2.5-2-3.5-1.6-1.5-2.5-1.6-6.7-.6-5.2 1.2-28.3 5.1-30.1 5.1-.7 0-.6-1.2.4-3.5 1.8-4.4 1.8-13.6 0-18-1.4-3.3-1.4-3.6 1-6.4 1.3-1.6 2.4-3.4 2.4-4 0-1.9-5.2-5.9-8.5-6.7-1.6-.3-4.8-2.2-7.2-4.2-4-3.3-4.2-3.8-3.7-7.6.5-3.3.1-4.6-1.6-6.4-2.3-2.5-5-3.1-3-.7m52.1 55.4c-.7.5-4.1 1.2-7.5 1.5-3.3.4-7.7 1.1-9.6 1.6-4.3 1-16.5 2.2-15.8 1.5.4-.4 13.5-2.9 28.8-5.4 4.8-.8 6.3-.5 4.1.8m-83.1 12c-.8.5-4 1.1-7 1.4l-5.5.6 6-1.4c7.3-1.6 8.4-1.7 6.5-.6m-4.9 4.8c-.5 1-2.1 2.9-3.5 4.2-2.3 2.2-2.8 2.3-4.1 1-.8-.8-1.2-2.3-.9-3.6.6-2.1 2.3-2.9 7.2-3.2 1.9-.1 2.1.2 1.3 1.6M109 147.9c-.9.9-1.6 3.5-1.7 5.6-.1 3-.8 4.5-3 6.3-1.5 1.3-4.6 4-6.8 6s-4.4 3.5-4.9 3.3c-2.1-.5-6.6 1.2-6.6 2.5 0 .8.4 1.4.9 1.4 2 0 3.9 6.6 3.4 12.2s-.5 5.6 3.1 8c2.4 1.5 3.9 3.5 4.6 5.8.5 1.9 1.7 4.6 2.7 5.9 1.3 1.9 1.4 2.6.4 2.9-2.7.9-5.1 4.3-5.1 7 0 1.6-.9 3.7-2 4.7s-2 2.6-2 3.5-1.8 4.2-4 7.2c-3.5 5-5.2 6.2-14.6 10.9-5.8 2.9-10.8 5.8-11.1 6.6-.7 1.7-6.7 3.3-12.6 3.3-5.1 0-8.4 1.3-10.4 3.9-1 1.4-1.3 1.2-2.2-1.2-1.9-4.8-4.3-5.1-20.7-2.8-8.2 1.2-15.3 2.6-15.7 3s-.6 5-.5 10.1l.3 9.3 7.5 3.3c19.8 8.7 72.8 30.6 75.3 31.1 2.6.5 2.8.9 2.4 3.7-.7 4.8 1 7.3 5.9 8.6 2.4.7 4.4 1.3 4.4 1.4s-1.2 2.7-2.6 5.7c-5.4 11.1-6.6 16.8-4.3 21.2.7 1.2 5.1 6.3 10 11.3 6.2 6.5 9.1 10.3 10 13.3.7 2.2 1.6 4.1 2.1 4.1 1.2 0 1 4.4-.4 5.8-.9.9 1.9 1.2 12.7 1.1 11.3 0 13.6-.2 12.1-1.2-4.3-2.6-6.6-5.7-6.6-8.7 0-2.9-2.9-7-5-7-1.4 0-5.6-8.8-6.5-13.5-.4-2.2-2.2-7.4-4.1-11.5-3.1-6.6-3.3-7.8-2.3-10.3 1.4-3.3 3.3-4.2 12.5-5.8 3.7-.6 10-2.7 14.1-4.5 7-3.2 7.3-3.5 7.3-6.8 0-12.3-15.5-54.6-20-54.6-.5 0-.6-1.3-.4-2.9.3-1.7-.2-4.3-1-6-2-3.8-2-10.5 0-13.5.8-1.3 1.5-4.4 1.5-6.8 0-2.3.2-6.4.4-9.1.3-4.1.1-4.7-1.5-4.7-1.1 0-2.6-1.2-3.5-3-2.1-4.1-1.9-5.1.9-4.4 1.7.4 3.1-.1 4.5-1.5 1.3-1.3 2.1-1.6 2.1-.9s1.2 0 2.5-1.5c3.3-3.7 3.2-8.5-.1-17.7l-2.5-7.1 2-3.5c1.2-1.9 2.1-3.7 2.1-3.8 0-.2-1.8-1.1-4-2-6.1-2.4-9.9-7.2-10-12.4 0-2.3-.4-4.2-.8-4.2-.5 0-1.9-2-3.1-4.5-2.5-4.9-2.9-5.1-5.1-2.6M93.4 249.6c1.9 6 1.4 7.3-2.6 7.4-1 0-1.8.4-1.8 1 0 .5-1.2 1-2.6 1s-2.3.4-2 .9c1 1.5-2.2 2.1-11.3 2.1-5.3 0-9.2.5-9.9 1.2-.9.9-1.8.9-3.8-.1-2.6-1.1-2.6-1.2-.8-3.2 1-1.1 2.6-1.8 3.6-1.6 1 .3 2.1.1 2.4-.4s1.4-.9 2.6-.9c1.1 0 3.3-.9 4.9-2.1 3.4-2.4 18.1-10.9 19-10.9.3 0 1.3 2.5 2.3 5.6m-39.2 8.2c.4.4.4 1.3-.1 2-.6.9-1.7.9-5.4-.4-6.2-2.1-6.2-3.9 0-3 2.6.3 5.1 1 5.5 1.4m32.2 12.7c.6 1.6-.3 1.9-2.9.9-1.3-.5-1.4-.8-.3-1.5 1.9-1.2 2.5-1.1 3.2.6m11.7 3.4c-1.1 1.9-1.3 1.9-5.6.4-3.7-1.2-4.3-1.8-3.4-2.9.7-.9 1.7-1.1 2.8-.5 1 .6 2.5.4 4.1-.4 2.1-1.1 2.5-1.1 2.8 0 .2.8-.2 2.3-.7 3.4"/></svg>