<svg xmlns="http://www.w3.org/2000/svg" width="682.667" height="512" version="1.0" viewBox="0 0 512 384"><path d="M424.7 128.6c1.5 3.1 1.5 3.6.3 4.4-.8.6-2.7 1-4.2 1-1.8 0-2.6.4-2.2 1.3 1 2.6-14 11.2-18.1 10.5-1.8-.4-2.5-.2-2.1.7.2.7 0 1.7-.6 2.3-.8.8-.3 2.4 1.5 5.4 2.1 3.6 2.4 5 1.8 8.4-.4 2.3-.6 6.7-.3 9.8.4 5.1.2 5.8-2.2 7.7-1.4 1.1-2.6 2.9-2.6 4 0 1.5-.7 1.9-3.9 1.9-2.2 0-4.1.4-4.3.9-.1.5-5.7 1.8-12.3 2.9l-12 2-2.1-2.5c-1.8-2.3-2.5-2.5-6-1.9-5.5 1.1-7 2.1-8.3 5.6-.9 2.8-.8 3.2 1.3 4 2.2.8 11.6 13.3 15.8 20.9 1.5 2.6 2.3 3.1 5.6 3.1 4.2 0 10.5-3.6 15.6-8.9 1.9-1.9 4-3.1 5.6-3.1h2.7l-1.4 6.2c-2 9.6-2.8 21.4-1.4 22.2 1.5 1 1.3 4.7-.4 7-.8 1.1-3.3 7.8-5.6 15-2.2 7.2-5.8 16.9-8 21.5-4.8 10.4-5.6 14.4-3.5 19.4 1.8 4.1 7.8 9 13.4 10.8 2 .6 4.2 1.6 4.9 2.1 2.2 1.7 2.6 8.5.7 14-1.8 5.6-1.6 19.6.5 25.1.8 2 .8 4.1-.1 7.4-.8 3.5-.8 5 0 6.4 1.5 2.3 1.5 4.2.1 8.9-1.1 3.6-1.4 3.8-7 4.9-3.3.7-5.9 1.6-5.9 2 0 1.2 19.9 2.2 31.5 1.6 5.5-.2 11.1-.5 12.5-.5 5.1-.1-.5-1.8-8.2-2.5-12.5-1.1-12.3-.8-12.2-22.2 0-17.3 2.5-40.2 4.6-42.9.4-.6 1.8-.9 3.1-.7 2.1.4 8.4-.7 11.9-2.2 1.4-.6 2.3.5 4.4 5.2 3.4 7.6 10.6 35.7 10.4 40.6 0 2.3.7 5.1 2 7.2 2 3.2 2 3.6.5 6.6-1.2 2.3-1.5 4.4-1 7.5l.6 4.4h8c8.1 0 9.3-.7 6.4-3.6-2.3-2.4-4.7-12-4.1-16.2.4-2.5.1-4.7-.9-6.7-.9-1.6-2-7.5-2.5-13.2-.9-10.4-1.7-14.3-5-24.3-.9-3-2-6.9-2.3-8.7-.6-3-.4-3.3 3.1-4.4 5.4-1.8 7.9-3.7 8.6-6.5.7-2.7 0-4.2-8.6-17.5-2.7-4.2-7.5-14.3-10.8-22.5-3.2-8.1-6.8-16-8-17.5-2.3-3.3-2.4-4.1-.8-5.7 1.2-1.2 4.8-16.8 4.8-21 0-1.6 1-2.6 3.8-3.7 4.7-1.9 6.1-4.2 6.7-11 .6-5.7-.3-7.3-5-10-1.7-1-1.6-1.3 1.2-4.5 2.9-3.3 3.6-3.6 14.9-5.3 6.6-1.1 12.4-1.8 12.9-1.7 5 1.1 7-1.3 3.6-4.4-2-1.9-.4-2-24.7 2.9-2 .4-2.1.2-1.6-4 .2-2.5-.1-6.6-.8-9.1-1.2-4.2-1.1-4.7.9-7.4 2.9-4 3.2-7.6.7-7.3-1.1.1-2.5-.5-3.2-1.2-.8-.7-1.7-1.5-2.1-1.7-.5-.1-2.7-2.5-5-5.2-4-4.5-4.2-5-2.8-6.9 2.1-3 1.9-6.3-.5-8.7-3.1-3.1-4.1-2.4-2.3 1.6m36.8 48.3c.3.5-.3 1.2-1.2 1.5-3.4 1-13.6 2.6-14 2.2-.4-.3 8.9-2.9 10.9-3.1.3 0 1-.3 1.4-.8 1-1 2.2-.9 2.9.2m-77 15.1c.3.6-.1.7-.9.4-1.8-.7-2.1-1.4-.7-1.4.6 0 1.3.4 1.6 1m-3.8 2.8c-1 1-1.7 2.4-1.7 3 0 1.2-6.1 8.2-7.1 8.2-.9 0-4.4-6-5.1-8.8-.5-1.7-.3-2.2.6-1.9.8.3 3.8 0 6.7-.8 7.9-1.9 8.5-1.9 6.6.3m-116.6-57.9c-.1 1.9-.4 2.1-1.5 1.1-1.2-.9-1.5-.8-1.5.9-.1 1.2-.1 3-.2 4 0 1.1-3.1 4.6-6.8 7.9-5.5 4.9-7 5.8-8.5 5-3.1-1.7-4 .5-1.7 4.2 1.6 2.8 1.9 4.4 1.4 9.4-.5 5.9-.4 6.2 2.7 8.9 2.7 2.4 3.1 3.5 2.8 6.3-.4 3.3.5 4.6 1.5 2.1q.6-1.35.6 0c.1 1.7-2.9 3.1-11.2 5.5l-7.2 1.9-1.7-2.1c-1-1.2-2.4-2-3.2-1.7-.7.3-1.7.2-2.2-.3s-1.9 0-3.2 1c-1.9 1.6-2.2 2.6-1.7 4.9.5 2.4.2 3.2-1.5 4.1-2.8 1.5-9.3 1.5-13 0-4.1-1.7-6-.7-6 3.2 0 3.7 2.8 10.5 5.4 13.1 3 2.9 5.3 2.1 7.4-2.6 1-2.3 2.6-4.8 3.4-5.4 1.2-1.1 1.7-.9 2.6 1.3 1 2 .9 3.1-.4 5.5-1.9 3.7-1 6.7 2.2 7.5 1.8.5 4.1-.5 9.4-4.2 6.2-4.2 7.4-4.7 9.8-3.8 2.3.8 2.8 1.7 3.4 5.9.4 2.7 1.9 7.8 3.4 11.3l2.7 6.3-2.2 2.3c-1.2 1.3-6.1 11.5-10.8 22.7s-9.6 22.9-10.9 25.9c-4.1 9.5-3.3 11.2 7.7 16.5 4.1 2 8 4 8.7 4.3 1.5.8 2.5 21.5 1.3 26-.4 1.5-.3 3.9.3 5.4.7 1.9.6 3.4-.2 5.2-1 2.2-1.8 2.6-5.4 2.6-2.4 0-5.9.8-7.8 1.8-3 1.4-3.5 2.2-3.5 5.2 0 3.1.5 3.8 5.3 6.6 2.9 1.8 7.2 3.5 9.6 3.8 2.4.4 5.2 1.3 6.2 2 1.7 1.3 1.6 1.5-1.3 2.9-1.6.9-5.4 1.9-8.4 2.2-9.8 1.2-15.9 2.6-15.9 3.8 0 .7.7 2.3 1.6 3.5 1.2 1.7 2.5 2.2 5.8 2.2 4.1 0 4.3-.1 3.8-2.6l-.5-2.7 6.4.7c4.7.5 6.8 1.2 7.8 2.6 1.3 1.9 2.6 2 20.5 2l19.1-.1 1.9-2.6c1.9-2.6 1.9-2.6-.5-4.5-5.3-4.2-5.9-4.8-5.9-6.6 0-1 1.8-3.5 4.1-5.5 4.9-4.5 4.7-6.5-.6-9.3-3.2-1.6-4.2-2.9-5.3-6.5-1.6-5.1-2.4-13.6-2.3-23 .1-3.7-.3-7.7-.7-9-.8-2.1-.4-2.5 3.9-4.5 4-1.9 4.9-2.9 5.8-6.1 1.8-6.3 1.3-15.2-1.5-25.3-1.4-5.2-3.7-15-5-21.7-1.3-6.8-2.8-13.3-3.5-14.5-2.4-4.5-2.6-7.2-.7-8.8 1.9-1.5 1.9-1.6-.1-6.3-2.7-6.2-2.8-12.1-.2-13.9 2.9-2.1 9.3-12.7 8.9-15-.2-1.5-1.3-2.4-3.5-3-3.7-1-3.9-1.5-1.8-4.2.9-1.2 1.2-2.9.8-4.5-.5-2.2-.4-2.4.9-1.4 1.2 1 1.5 1 1.5-.5 0-.9-.4-2.2-.9-2.9-.5-.6-2-4.7-3.3-9l-2.5-7.8 2.1-2.8c2.2-3 1.8-4.7-1-4.7-.9 0-4.1-2.9-6.9-6.5-5.2-6.4-6.2-8.5-4.1-8.5.8 0 .8-.4-.1-1.5-.6-.8-.9-2.4-.5-3.7.6-2.2.5-2.2-.9-.5-1.4 1.8-1.5 1.7-1.9-1-.3-2.4-.4-2.4-.6-.4m2.1 177.4c3.2 5.1 5.5 32.4 3 34.9-.6.6-3.3.8-7.2.3-7.3-.9-7.7-1.5-7.4-12.5.3-12.1 2.3-23.8 4.3-24.4 2.3-.6 6.4.3 7.3 1.7M110.3 143.9c-.3 1.2-1.1 2.1-1.7 2.1s-1.2 1.7-1.2 4.1c-.1 2.8-.7 4.5-2.1 5.4-1.1.8-4.4 3.3-7.4 5.7-3 2.3-6.3 4.1-7.4 4-4.3-.5-5 1.2-2.5 6.2 1.8 3.9 2 5.1 1.1 7.8-.6 1.7-1.1 3.8-1.1 4.8 0 1.7 2.9 5.3 5.6 6.8.9.5 1.8 2 1.9 3.4.3 2.9 3.3 9 4.9 10.1.7.4.3.9-1 1.3-2.2.6-5.8 5.7-4.7 6.8.3.3-.1 1.4-.9 2.3-.9 1-2.1 3.4-2.7 5.3-2.2 6.6-4.5 8.2-17.6 12-4.4 1.3-8.4 2.9-9 3.5-1.2 1.5-5 2.5-13.5 3.5-3.6.4-7.5 1.1-8.7 1.5-1.7.5-2.4.1-3.5-2.1-2.3-4.8-3.4-5-19.5-2.6-8.1 1.3-15.8 2.5-17 2.8-2.2.4-2.3.9-2.3 9.3v8.9l4.7 2c2.7 1.1 15.4 6.3 28.3 11.5 12.9 5.3 29.1 11.9 36 14.8 6.9 2.8 14.6 5.4 17.3 5.6 2.6.3 4.7.8 4.7 1.3 0 .4-1.3 3.7-3 7.3-1.6 3.7-3 7.6-3 8.7 0 2.2 5.6 8 7.7 8 1.9 0 1.7.3-2.7 6.6-4.7 6.8-6 12.7-3.5 17.3.9 1.8 5.5 6.2 10.2 9.9 11.5 8.9 17.3 14.2 17.3 15.8 0 .7-1 1.6-2.2 2-6.7 2-19.3 13.2-17.3 15.3 1.1 1 20.2 1.3 39.3.6l18.3-.7-1.4-2.2c-.8-1.1-3.5-3.3-6.2-4.7-3-1.7-5.3-3.8-6.1-5.7-.7-1.7-2.6-3.8-4.2-4.6-3.1-1.6-6.6-6.1-5.8-7.5.3-.4-.9-2.2-2.7-3.9-6.3-6.2-7.5-7.8-10.1-13.5-1.5-3.1-3.9-7.1-5.4-8.8-2.4-2.9-2.5-3.3-1.1-5.8 1.3-2.4 2-2.6 8.4-2.7 3.9 0 9.9-.6 13.5-1.2 7.2-1.2 22.8-8.4 23.7-11 .9-2.1-1.8-9.5-8.2-22.7-2.9-6.1-7-14.6-9-19s-4.7-9.1-5.9-10.5c-1.3-1.4-2.4-3.8-2.4-5.5s-1.2-5.5-2.6-8.5c-2.7-5.8-2.7-6.1-2.3-20.4.1-6.5-.1-9-1.1-9.4-1.1-.4-5.2-7.2-5.2-8.5 0-.3 1.1-.5 2.5-.6 5-.3 5.5-.5 5.5-1.9 0-.9.3-1.2.7-.9.3.4 1.5 0 2.5-1 2.4-2.2 2.3-8-.4-17.1l-2.1-7.3 2.2-3c1.3-1.7 2.1-3.2 1.9-3.3-.1-.1-1.9-1-3.9-1.9-4.3-2-9.3-9-8.6-11.9.7-2.5-.5-5.7-3.2-8.5-1.2-1.2-2.1-3.1-2.1-4.2 0-2.8-2-3.7-2.7-1.2m-16.5 95.8c.5 1.6 1.3 3.5 1.6 4.4.5 1.2-.2 2-2.4 2.9-1.7.7-3.4 1-3.7.6-.4-.3-1.5.2-2.6 1.1-2.4 2.3-15.2 2.5-21.4.4-6.1-2-5.5-3 2.2-3.1 1.1 0 3.6-.8 5.5-1.7 3.7-1.7 18.1-7.2 19.2-7.3.3 0 1.1 1.2 1.6 2.7M105 261c0 1.2-.8 1.2-3.5 0-1.8-.8-1.7-.9.8-.9 1.5-.1 2.7.3 2.7.9"/></svg>