<svg xmlns="http://www.w3.org/2000/svg" width="682.667" height="512" version="1.0" viewBox="0 0 512 384"><path d="M427 107.3c0 .7.5 1.8 1.1 2.4s.8 2.1.4 3.3c-.6 1.8-1.3 2.1-4.1 1.8s-3.4-.1-3.4 1.4c0 2-8.2 7.8-11 7.8-.8 0-2.6.7-3.8 1.6-1.3.9-3.2 1.4-4.3 1.1-1.6-.4-1.9 0-1.9 2.7 0 1.7.7 4.2 1.6 5.4 1.3 1.9 1.4 3.1.5 6.7-.8 3.2-.8 6.5 0 12.2.6 4.3 1.3 8.1 1.5 8.5 1.1 1.8-1.9 1.7-3.2-.1-2-2.9-4.8-2.6-7.3.6-1.7 2-3.6 2.9-8.6 3.8-6.2 1.2-6.5 1.2-8.6-1.1-4-4.3-13.6-2.4-16.1 3.2-1.4 3.2-1.4 3.4.2 3.4 3.2 0 4.1 2.7 4.7 13.5.6 10 .8 10.8 3 11.8 3.2 1.4 8.5-.4 14.7-4.9 3.3-2.5 6.2-3.8 8.9-4 3.8-.2 3.9-.2 3.2 2.4-.4 1.5-1.1 6.6-1.5 11.5-.8 8.5-.4 12.2 1.9 16.5.8 1.5.7 2.3-.5 3.3-1.9 1.5-5.7 8.9-7.4 14.4-2 6.3-8.7 18.7-12.2 22.5-7.8 8.5-9.7 11.8-9.2 15.8.6 5.5 7.9 10.8 20.4 14.8 3 .9 6.1 2.1 6.8 2.7 1.7 1.3 1.5 7.8-.4 14.5-1.3 4.3-1.5 7.4-.9 13.7.9 9.7.9 13 0 17.3-.5 2-.3 3.8.5 4.7 1 1.2 1 2.4-.1 6-.7 2.5-1.6 4.5-1.9 4.6-.3 0-3.2.2-6.6.3-8.6.5-11.8 2.2-12.2 6.6-.2 2.8.3 4.1 2.3 6 2.9 2.7 3.1 3.8.9 5.4-1.2.9-1.4 2.1-.7 6.1l.8 5 5.3.3c4.8.3 5.3.1 6.2-2.2 1.1-3 2.1-3.2 5.3-1.2 4.4 2.8 13 3.6 37.5 3.6h24.7l-2.8-2.5c-1.7-1.6-2.7-3.6-2.7-5.3 0-1.6-.5-3.3-1.2-4-.9-.9-.8-2.5.1-6.7 1.4-6.1.8-9.1-3.5-17.9-2.8-5.7-2.9-7.5-1-10.1q1.35-1.8.6-5.1c-.5-2.2-.1-5.7 1.3-10.6 1.7-6.4 1.8-8 .8-12.8-.7-3-1.9-8.6-2.7-12.4-.8-3.9-1.7-10.3-1.9-14.4s-1.5-11.3-2.9-16c-1.4-4.8-3.7-14.1-5.1-20.7-2.7-13-5.1-20.5-6.6-20.5-1.7 0-.9-4.6 1.2-6.3 1.3-1.2 1.8-2.4 1.4-3.5-1.6-4-1.6-8.1 0-13.4 1.2-4.4 2.5-6.4 5.5-8.8 2.2-1.8 4.1-4.3 4.5-6 .8-3.8-.4-12-1.9-12-2-.1-5.2-3-4-3.8.6-.4 1.9-2.2 2.8-3.9 1.9-3.8.6-3.4 24.1-7.3 22.9-3.8 23.5-4 23.5-5.1 0-.5-1-1.5-2.3-2.3-2-1.3-2.9-1.4-7.7-.1-3 .8-11.1 2.3-17.9 3.5s-12.9 2.2-13.4 2.3c-.6.1-.9-1.7-.8-4.6.1-2.7-.3-6.3-1-7.9-1.1-2.8-1.1-3.3 1-4.9 1.3-1 2.4-2.4 2.5-3.1s.6-2 1.1-2.8c.5-.9-.1-.7-1.4.5l-2.2 1.9.6-2.6c.6-2.2.4-2.6-1.2-2.3-1.3.3-3.2-1.4-6.7-6.2-4.8-6.5-4.8-6.6-3.2-9.3 2.1-3.6 2-6.3-.2-8.3s-3.2-2.1-3.2-.4m49 46.7c0 1.1-1.3 1.5-15 3.5-5.8.9-12.7 2-15.3 2.6-5.5 1-7.3 1.1-6.5.3.6-.6 31.8-7.1 35.1-7.3.9-.1 1.7.3 1.7.9m-87 17c0 .5-.7 1-1.5 1-2.7 0-6.3 2.2-7.4 4.6-1.2 2.8-3.3 3.3-2.5.6 1.7-5.1 2.7-6.1 6.8-6.5 2.3-.2 4.2-.4 4.4-.5.1-.1.2.2.2.8m38.7 126.7c1.4 3.2 3 6.9 3.6 8.3 1.2 3 1.1 19.3-.2 23.6-.5 1.8-.5 3.7 0 4.6.6 1 .4 2.9-.5 4.9-1 2.4-1.2 5.5-.9 10.3.4 4.6.2 7-.6 7.5-.6.4-5.1-.1-9.9-1-4.8-1-9.9-1.8-11.5-1.9-2 0-3.3-.9-4.7-3.3-2.2-3.5-2.6-7.2-.9-8.2.6-.4.8-2.6.4-5.8-.7-5.6 1.6-24.8 4.1-34.3.8-3.1 1.2-5.9.9-6.4-.9-1.5 1.8-2.5 8.5-3.1 3.6-.3 7.1-.7 7.8-.7.7-.1 2.5 2.4 3.9 5.5m-167.6-184c0 1.4-.8 2.3-1.7 2.3-.8 0-1.3.4-.9.9.3.6-.3 1.4-1.2 2-1 .6-1.2 1.1-.5 1.1 3 0 .9 4.8-4.7 10.7-4.5 4.8-6.1 5.9-7 5-1-.9-1.5-.8-2.6.7-1.3 1.7-1.1 2.3 1.5 5.5 2.5 2.9 3 4.5 3 8.8s.4 5.5 2.5 7.1c1.3 1.1 2.3 2.1 2.1 2.3-.9 1.1-1.6 6-.7 5.5.5-.3 1.2.2 1.5 1.1.7 1.8-.9 3.3-3.6 3.3-3.5 0-4.4 1-4 4.4.5 4-1.3 5.6-3.3 3-1-1.5-1.6-1.6-2.6-.7-.6.6-1.7.9-2.4.7-.7-.3-2.3 1.1-3.5 3.1-2.1 3.4-2.1 3.7-.5 5.5 1.5 1.7 1.6 2.2.4 3.6-2.3 2.8-7.8 4.6-11.8 3.9-2.9-.5-4.1-.2-5.5 1.4-1.7 1.8-1.7 2.1.3 5.9 2.1 4.2 6.8 8.6 10.1 9.7 2.1.7 6-1 6-2.5 0-.6.9-1 1.9-1s4.2-2.3 7-5c2.9-2.8 6.3-5.5 7.6-6 2.2-.8 2.7-.5 4.9 3.3 1.4 2.3 3.2 6.1 4.1 8.4l1.6 4.1-3 4.3c-1.7 2.3-3.1 4.5-3.1 4.9s-3.5 8.8-7.8 18.6c-9 20.5-10.5 25-10 31.9.3 4.8.4 4.9 5.8 7.6 3 1.6 6.3 2.8 7.2 2.9 2.7 0 3 1.6 1.3 6.6-.9 2.7-1.5 7.7-1.5 12.2.2 19.2-.9 24.2-5 24.2-2.2 0-6 4.5-6 7 0 3 5.6 6.6 15.4 10 2.8.9 5.1 2.3 5.1 3.1 0 1.3-13 5.9-17 5.9-1.1 0-2.7.5-3.5 1-1.3.8-1 1.8 1.7 6.9l3.3 6.1-3.1 3.1c-3 3-3.3 3.1-9.2 2.5-6.8-.6-9.1.2-8.5 3 .4 2.5 4.4 4.4 9.1 4.4 3 0 3.9-.5 4.6-2.3 1.4-3.7 3.4-4.7 13.4-6.7 8.2-1.7 10-1.7 13.8-.6 5.6 1.7 17.7.4 19.9-2.2.8-.9 2.7-2.5 4.3-3.5 1.5-.9 2.7-2.6 2.7-3.7 0-1.4 1.1-2.2 4-3 2.1-.6 4.2-1.5 4.5-1.9.7-1.3-2.3-4.1-4.4-4.1-2.7 0-4.7-2.8-3.3-4.2.7-.7 1.2-2.5 1.2-4.1 0-1.8 1.1-4.2 3-6.4 3.7-4.1 3.9-7 .6-7.9-2.1-.5-2.7-1.6-4.2-8.2-.9-4.3-1.8-9.5-1.9-11.7 0-2.2-.6-4.9-1.2-6s-1.3-5-1.6-8.8c-.6-6.6-.6-6.7 1.8-6.7 1.4 0 3.9-1.3 5.7-2.9 4.1-3.6 4.1-6.6-.1-18.6-2.6-7.7-3.3-11.7-4.5-27.2-.8-10-1.9-19-2.5-20.1-1.5-2.9-1.4-5.1.5-6.9 1-1 1.3-2.4.9-3.7-.4-1.2-1.3-4.7-2.1-8-1.3-5.2-1.3-6.1.1-8.2.8-1.3 1.5-3.1 1.5-4.1s1.2-3.6 2.7-5.8 2.8-4.5 2.9-5.2c.1-.6-2.3-2-5.5-3.2-8.5-3.2-8.5-3.1-6.1-8.4 1.7-3.9 2-5.8 1.4-11-.3-3.4-1.2-7.6-1.9-9.3-1.1-2.7-1-3.5.7-6.3 2-3.1 2-3.2.3-4.5-1-.7-2.7-1.1-3.7-.8-1.2.3-3.7-1.2-7.3-4.3-5.2-4.4-7-7.5-4.3-7.5.6 0 .4-.6-.7-1.3-1.2-1-1.4-1.6-.7-2.1.7-.4 1.2-1.2 1.2-1.8s-.9-.3-1.9.6c-1.9 1.7-2 1.7-2.4-1.1-.3-2.2-.4-2.3-.6-.6m9 173.5c2.1 1.8 7.1 13.3 8.1 18.8 1 5.1 1 11.1.2 15.2l-.6 2.8h-10.2c-10.1 0-10.3-.1-11.4-2.6-.8-1.7-.9-3.1-.2-4.4.5-1 1-3.7 1-5.9 0-3.6 1.5-11.5 4.1-21.4.9-3.3 1.3-3.7 4.2-3.7 1.8 0 4 .6 4.8 1.2m-20.3 69.5c.6 1.9-2.5 1.6-3.2-.3-.4-1.1-.1-1.4 1.1-1.2.9.2 1.8.9 2.1 1.5M111 120.5c-.7.8-1.9 1.5-2.7 1.5-1.1 0-1.3.7-.9 2.3 1 4-.5 6.5-6.5 10.7-3.2 2.2-6.5 4.7-7.3 5.5-1.1 1.2-2.1 1.3-4.1.5-4.9-1.9-5.6.1-2.4 6.8 1.8 3.6 1.9 4.8 1 6.8-2.1 4.6-1.4 8.7 1.8 10.9 2.2 1.4 3.1 3 3.6 6.1.4 2.7 1.6 5.2 3.6 7.2l3.1 3.2-2.5.9c-2.6 1-5.4 7.1-4.2 9.1.4.6.2 1.6-.3 2.3s-1.3 3.2-1.6 5.7-1.3 5-2.2 5.7-5.1 1.9-9.3 2.8-8.3 2-9.1 2.6c-3.3 2-6.3 2.9-12.7 3.5-3.8.3-8.1 1.3-9.7 2-3.7 1.8-6.4 1-7.2-2-1.1-4.4-3.7-4.6-23-1.7L.5 215.6l-.3 8-.2 7.9 22.2 8.9c12.3 4.9 32.2 12.9 44.3 17.9 19.9 8.1 22.4 8.9 26.8 8.4 2.6-.4 4.7-.2 4.7.2s-.9 3.4-2 6.6c-2.5 7.3-2.5 10.1 0 14.8l2.1 3.8-3.6 5.7c-5.9 9.6-4.6 13.1 9.5 24.8 5.5 4.5 8.2 7.5 9 9.9.6 2 2 4 3.1 4.5 2.8 1.5 2.3 2.9-1.5 4.5-4.2 1.8-12.9 7.5-13.5 8.9-.2.5-1.3 1.9-2.5 3.1s-2.1 3.4-2.1 5c0 2.4-.5 3.1-2.5 3.3-1.4.2-8.6 1.9-16 3.9-7.4 1.9-16.1 4.2-19.3 5l-5.8 1.5-4.2-2.8c-2.3-1.6-5.5-3.9-7-5.1-1.7-1.3-4.2-2.3-6-2.3s-10.2 2.4-18.7 5.3l-15.5 5.2-.3 5.2-.3 5.3h33.3c31.7-.1 33.2-.2 31.3-1.8-4.8-4.1-4.8-4.7-.2-7.1 2.3-1.1 6.5-2.7 9.2-3.5 2.8-.7 7.2-1.9 9.8-2.7 6.2-1.7 8.1-.6 8.5 5 .2 2.5.9 4.4 1.8 4.8 1.6.6 1.9 3.3.4 3.3-.5 0-1 .4-1 1s6.9 1 18.8 1h18.8l7-5.8c3.8-3.1 8.5-6.5 10.6-7.4 6.6-3 5.6-7.9-2.8-13.6-2.6-1.7-3.4-2.8-2.8-4 .4-1 .9-3.1 1.2-4.9.3-2.7-.3-3.9-4.6-8.3-3-3.1-5.2-6.3-5.4-7.9-.2-1.8-1.3-3.1-3.6-4.2-1.8-.9-4.7-3.5-6.5-5.6-1.7-2.2-5.6-6.8-8.4-10.2-2.9-3.4-5.3-6.6-5.3-7 0-.5 1.6-2.3 3.6-4.1 2.5-2.1 4.1-2.9 5.3-2.4 3 1.4 12.8 1.6 15.2.3 1.3-.7 3.7-1.4 5.4-1.6 3.4-.4 11.3-5 12.9-7.5 1.2-2-.6-10.5-6.7-30.8-4.5-15.1-6.3-19.4-10.1-22.9-2.4-2.2-2.5-2.6-1-4.2 1.4-1.5 1.3-2.3-1.4-8.2-2.8-6.2-9.2-25.3-9.2-27.6 0-.5-1.1-2.7-2.5-4.7-2.5-3.6-3.4-7.1-1.6-5.9 1 .6 3.4-1.5 5.8-5.2 1.8-2.7 2-11.8.3-17.3-1.5-5.1-1.3-6.5 1.5-9.8 2.5-3 3.3-4.8 1.6-3.8-1.7 1.1-5.8-1.9-9-6.5-2.7-4-3.1-5.3-2.6-8.2.6-2.9.2-4.2-1.9-7-1.4-1.9-2.6-4.1-2.6-5 0-2.3-1.6-2.9-3-1.2m-11.6 97.1c.9 2 1.5 3.8 1.3 4s-2.6.7-5.3 1.1c-2.7.3-5.5 1.2-6.2 2-1 .9-4.2 1.3-11 1.2-10.4-.1-16.1-1.1-12.9-2.3.9-.3 2.5-.9 3.5-1.3.9-.3 2.3-.5 3-.4s4.5-.9 8.5-2.3c4-1.3 8.9-2.8 11-3.1 2-.4 4-1.1 4.3-1.6 1-1.7 2-.9 3.8 2.7m-42.8 2.5c2.4.6 4.4 1.6 4.4 2.1 0 1-2.8.6-7.5-1.2-1.4-.5-2.5-1.2-2.5-1.5 0-.7.5-.7 5.6.6m52.4 17.5c0 1.1-.6 1.4-2.2.9-3.9-1.2-4.4-2.5-1-2.5 2.2 0 3.2.5 3.2 1.6"/></svg>