<svg xmlns="http://www.w3.org/2000/svg" width="682.667" height="512" version="1.0" viewBox="0 0 512 384"><path d="M279 83.3c0 2-1.1 2.2-2.8.5-.9-.9-1.2-.9-1.2-.1 0 .7.5 1.5 1 1.8 1.6 1 1.2 2.5-.7 2.6-1.4 0-1.3.3.5 1.1 1.2.6 2.2 1.4 2.2 1.8 0 1.2-10.6 12-11.7 12-.6 0-1.6.6-2.2 1.4-.9 1.1-.6 2 1.3 4.3 2.3 2.7 2.6 4.1 3 14.4.6 11.8-.5 17.4-3.2 16.4-.7-.3-1 0-.7.5.3.6.1 1-.4 1-3.9 0 2.6 16.7 7.9 20.2 3.8 2.6 6.4 8.8 5.6 13.1q-.6 2.85.9 3.3c2.4.9 1.8 3.8-1.6 8-1.8 2.2-4.9 7.6-6.9 12.1-5.3 11.3-9.4 17.5-18.3 27.1-4.3 4.6-8 9.5-8.3 10.8-1.4 5.7 3.7 11 12.4 12.9 1.7.3 3.2.9 3.2 1.1 0 .3-1.2 3-2.6 6.1-1.4 3.3-2.9 9.1-3.5 13.7-.6 4.5-1.8 10.6-2.8 13.8-1.1 3.1-1.5 6-1.1 6.5.5.4.1 4.2-.9 8.3-1.6 6.8-1.8 11.7-.6 17.6.6 3 5.5 4.6 20.6 6.9 5 .8 6.5 2.7 3.9 5-5.4 4.9.1 9.9 14.8 13.7 17.9 4.7 23.8 6.7 25.7 8.8 1.3 1.5 3.1 2 6.6 2 4 0 5.1.4 7.3 3.1 1.4 1.7 2.6 3.9 2.6 4.9s.5 2.2 1 2.5c1.2.7 10.7-2.2 11.5-3.5.3-.5-2.1-1.6-5.2-2.5-7.2-2.1-9.9-4.5-10.1-8.8-.1-2.9.5-3.7 4.3-6.2 2.5-1.5 4.5-3.1 4.5-3.6 0-.4-2.6-1.7-5.7-2.9-5.9-2.2-11.7-5.4-14.1-7.7-.7-.7-1.8-1.3-2.3-1.3s-.9-2.4-.9-5.3c0-7.1-3.2-12.6-8.7-15.2-2.3-1.1-4.4-2.9-4.7-4-.9-3.3-.7-7.4.5-9.4.9-1.3.9-2.6.1-4.9-.8-2.4-.6-4.4 1-9.9 1.7-5.5 1.9-8.4 1.5-15.7-.4-6.7-.3-9.2.8-10.2 3.5-3.6 7.5-21.6 7.5-34.1 0-10.9-1.6-23.2-3.6-28.4-1.4-3.3-1.4-4 0-6.6 1.2-2.4 1.3-4.9.7-14-.5-6.1-1.1-11.6-1.5-12.1-.9-1.5 5.9-.3 11.2 2 6.3 2.6 8.7 2.3 11.3-1.3l2.2-3.2-2.3-4.4c-1.3-2.4-2.1-4.5-1.9-4.6.2-.2 2.1-1.6 4.2-3.2 7.4-5.5 9.1-14.3 3.8-19.6-3.9-3.9-6.1-3.7-10.9 1.1-3.3 3.4-4.5 4-6.6 3.4-1.5-.3-3.1-1.5-3.7-2.5-1.2-2.3-7.7-2.7-8.5-.5-.3.8-1.6 2.2-2.9 3-2.4 1.6-2.4 1.6-1.8-2.2.3-2 1-3.9 1.5-4 1.3-.6.9-4.8-.8-9.2-1.5-3.7-1.5-4.2 0-6.6 1-1.4 1.4-3.3 1.1-4.5-.8-2.4-4.4-4-6.5-2.9-.9.6-2.8-.2-5.5-2.3-6.1-4.7-6.1-4.6-3.9-6.2 1.9-1.4 1.8-1.4-.4-1.5-2 0-2.1-.3-1.2-2 1.1-2.1-.3-2.9-1.6-.8-.5.7-1.1.5-2.1-.7-1.2-1.7-1.3-1.7-1.3-.2M278 254c2.5.5 6 1.1 7.9 1.2 3 .3 3.6.7 4.4 3.7.5 1.9.6 9.1.3 16-.4 6.9-.6 14.6-.6 17.1s-.5 5.9-1.1 7.7c-1 3-1.3 3.2-7.7 3.7-3.7.3-9.8 1-13.5 1.6-3.8.6-7.3.8-7.8.5s-1.6-3.1-2.5-6.1c-1.4-5-1.4-5.7 0-7.9.9-1.3 1.6-3.7 1.6-5.2 0-3 7.4-27.2 9.7-31.6 1-2 1.9-2.7 3.1-2.2.9.3 3.7 1 6.2 1.5m40.9 81.9c3.8 1 3.5 2.4-1.1 4.9-5.3 2.8-6.3 2.8-8.2 0-2.9-4.1-2.1-5.8 2.7-5.7 2.3.1 5.3.4 6.6.8M129.5 91c-1 1.1-2.1 1.7-2.5 1.5-.4-.3-1 1.4-1.3 3.8-.6 4.5-1.9 6-10.4 11.2-5.1 3.2-7.4 3.7-8.5 2-.5-.6-1.3-.4-2.4.7-1.6 1.6-1.6 2 .3 6.4 2 4.6 2 4.8.3 8.7-2 4.4-1.5 7.5 1.9 11.2 1 1.1 2.2 4.1 2.5 6.7.6 4.1 1.2 4.9 4.4 6.6 4.6 2.4 4.7 4.4.3 5.3-5.9 1.2-6.9 3.2-7.4 14.9-.9 18.4-2.3 21.5-12.7 27.6-2.5 1.5-5.7 3.8-7.3 5.2-2.2 2.1-4.2 2.7-10.4 3.3-7.3.7-8 .6-19.1-3.4-9.7-3.5-11.8-4.7-13.2-7.2-1.3-2.3-2.5-3.1-5.2-3.3-3.3-.3-22 2.5-33.5 5L0 198.3v13.3l46.2 19.8c44.3 19 46.3 19.8 51 19.2 2.6-.4 4.8-.4 4.8-.2 0 .3-1.1 1.6-2.5 3s-2.5 2.9-2.5 3.5c0 1.8 6.5 9.5 9.5 11.1 2.4 1.3 3.2 2.5 3.8 6.6.5 2.7 2.8 11 5.2 18.4s4.6 15.3 5 17.5c1.2 8.5 1.2 8.7-2 9.9-1.7.6-4.4 2-6 3.1-4.4 3-11.6 10.7-11.2 11.9.3.7 2.7 1 6.1.9 3.1-.1 5.6.2 5.6.7s-.8 2.5-1.7 4.5c-1.4 2.9-1.5 4.1-.6 6.6.7 1.7 1 3.6.7 4.2-.5 1.4-27.3 13.7-29.7 13.7-.9 0-4.6-2.1-8.4-4.7-3.7-2.5-10.2-7-14.3-9.8s-9.6-6.6-12.3-8.5l-4.7-3.4-10.3 3.3c-5.6 1.8-14.8 4.9-20.5 6.9L.9 353.3l.3 3.7c.3 3.5 1.3 4.6 13.8 14.9L28.4 383h74.9l-1.9-2.1c-1.4-1.6-1.6-2.2-.5-2.8 1.8-1.2 5-.2 8.7 2.6 2.9 2.1 4 2.3 16.3 2.3 10.1 0 14.1-.4 16.7-1.6 4.6-2.2 10.4-8.8 10.4-11.9 0-2.1 1.2-3 8.7-6.5 8.6-4 14.3-8.2 14.3-10.5 0-2.9-8.6-7.9-19.3-11.1-2.7-.9-5-2.3-5.4-3.2-.3-.9-1.2-3.2-2-5.1-1-2.3-1.3-4.7-.8-7.8.5-3.3.3-4.9-.9-6.1-.8-1-2.1-4.9-3-8.8-1.2-6.2-6.2-17.5-9.8-22.5-.9-1.3-.3-2.8 3.1-7.7 3.5-5.2 4.7-6.2 7.9-6.7 8.4-1.4 9.9-1.9 17.4-5.8 5.4-2.8 8.5-5.1 10-7.4 2-3.3 2-3.5.3-7.4-1-2.1-2.1-3.9-2.5-3.9-1.1 0-10.5-17.6-14-25.9-1.6-4-4.6-9.1-6.5-11.2-3.9-4.4-4.2-5.5-1.9-8 1.5-1.6 1.5-2.2 0-6.6-.8-2.6-2.5-9.6-3.6-15.5-1.9-9.8-1.9-11-.6-13.7 1.4-2.6 1.4-3 0-4.2-2.1-1.7-4.7-8.1-3.5-8.8.4-.3 1.8-2.2 3-4.1 2.5-4.2 2.9-13.6.7-19.8-1.4-3.9-1.3-4.1 1.6-7.6 1.6-2 2.6-3.7 2.1-3.7-.4-.1-1.7-.2-2.8-.3-1.3-.1-1.9-.7-1.7-1.9.2-.9-.1-1.7-.6-1.7s-2.1-1.7-3.6-3.9c-2.7-3.8-2.7-3.9-1-7.5l1.8-3.6-3.7-3.8c-2-2.1-3.7-4.8-3.7-6 0-2.7-1.1-2.8-3.5-.2M115 197.9c0 .4-1.1 1.3-2.5 1.9-2.5 1.2-2.5 1.2-.9-1.3 1.5-2.2 3.4-2.6 3.4-.6m1.6 17.2c-.8 1.9-1.7 4.2-2 5.1-.6 2.1-2.9 2.2-7 .5l-2.9-1.3 6.4-4.1c3.5-2.3 6.5-4.1 6.7-3.9.1.2-.4 1.9-1.2 3.7M138 333.7c0 1.7-2.9 3.1-7.9 3.9-3.6.6-4.1.4-4.1-1.2.1-2.9 2.4-6.5 5.1-8 2.2-1.1 2.6-1 4.6 1.4 1.2 1.5 2.2 3.2 2.3 3.9m-24 32.4c0 .8-1.2 2.6-2.6 4-2.3 2.2-3.4 2.4-12.2 2.4-13.2 0-13.4-1.5-1.2-7.7l9.2-4.6 3.3 2.1c1.9 1.2 3.4 2.9 3.5 3.8m314.3-268c2 1.2 2.3 4.9.5 6.7-.7.7-2.2 1.2-3.5 1.2-1.5 0-2.1.5-1.7 1.4.3.8-2.4 3.5-7 7.1-4.2 3.2-7.6 6.2-7.6 6.6 0 1.3-3.4 1.1-4.8-.3-1-1-1.5-1-2.2.1-.6 1 .1 2.8 2.1 5.8 2.8 4 2.9 4.6 1.8 7.7-2 5.5 1.7 26.4 4 22.7.6-1 1-1 1.6-.1 1.2 1.9-.2 2.4-8.3 2.5-6.5.1-7.8.4-8 1.9-.3 1.3-1 1.6-2.4 1.2-1.2-.3-3.7.2-5.6 1-2.1.8-6.8 1.4-11.9 1.4h-8.4l-1.7-3.2c-.9-1.7-3-4.6-4.7-6.4l-3-3.2-6 2.2c-5.2 1.8-6.3 2.7-8.3 6.5-1.6 3.1-2 4.7-1.2 5.5.5.5 1 .6 1 .1 0-.4.9 0 2 1 1.4 1.3 2.9 1.6 5.5 1.2 4.1-.7 5.3.2 10.5 7.9 1.9 2.7 3.8 5.2 4.4 5.6 2.1 1.4 8.6.8 16.1-1.6l7.5-2.4.2 3.2c.1 1.7.3 4.2.3 5.6.4 6.3 1.7 10.9 3.3 11.3 1.4.4 1.3.6-.5 1.2-2.9.9-2.9 1.6.3 4.6 2.5 2.4 2.6 2.4 4 .5.8-1.1 1.4-2.6 1.4-3.4 0-3 3.4-.5 4.7 3.5 1.4 4.2 1.4 4.3-1.4 7.1-1.5 1.6-5.6 7.3-9 12.8-3.4 5.4-9.4 13.5-13.2 17.9-7.3 8.3-10.1 12.8-10.1 16.4 0 4.9 10.2 12.3 25 18.1 5.9 2.3 6.5 2.8 6.8 5.6.2 1.8-.8 5.2-2.3 8.3-1.9 3.7-2.8 7.4-3.2 12.9-.3 4.2-1.2 9-2 10.6-.9 1.7-1.3 4.1-.9 5.8.9 4.3-1.8 8.8-5.2 8.8-4 0-10.4 2-12.4 3.8-2 1.7-2.3 5.4-.7 8.3.6 1.1 6 4.4 12.1 7.4 6 2.9 10.5 5.6 9.9 5.9-.6.4-2.6.3-4.4-.3-1.7-.6-6.2-1.7-9.8-2.6-6.5-1.5-6.9-1.5-15 1.1-11.9 3.7-17.3 9.2-11.2 11.5 3.3 1.2 8.3.2 8.3-1.7 0-.9 2.9-2.8 6.6-4.6 6.4-3 6.9-3.1 11.8-1.8 2.8.7 7.4 2.3 10.2 3.6s5.6 2.4 6.2 2.4c1.6 0 7.4 9.1 6.8 10.6-.3.8-1.2 1.4-2 1.4-2 0-5.9 5.7-5.2 7.5.4 1.2 3.1 1.5 14.4 1.5q13.8 0 15-1.2c.9-.9 2.1-.9 5 0 5.4 1.6 10.8 1.4 16.7-.6 3.9-1.3 5-2.2 5-3.8 0-1.1.6-2.8 1.3-3.7 2.6-3.1-.6-7.6-8.2-11.2-6-2.9-6.1-6.1-.2-11.9 2.5-2.4 4.6-5.3 4.6-6.4 0-2.8-6-7.5-11.5-9-2.7-.7-5.6-2.4-7-4-3-3.3-4.2-8.8-2.6-11.3.6-1.1 1.1-3 1.1-4.4s1.2-4.9 2.7-7.8c2.4-4.6 2.7-6.3 2.8-15.6v-10.4l4.5-1.3c3.4-1 4.9-2.1 6.3-4.6 1.7-3.2 1.7-3.5-.7-10.3-1.3-3.9-3.1-8.6-3.9-10.5-2-4.5-5.3-18.9-6.2-26.5-.4-3.3-1.4-7.5-2.1-9.4-1.9-4.6-1.7-7.5.5-9.5 1.8-1.7 1.9-2 .5-5.9-1.1-3-1.3-6.1-.9-10.8.6-5.5 1.1-7 3.6-9.3 2.4-2.3 2.9-3.5 2.7-6.8-.1-2.2-.6-4.2-1-4.4-.4-.3-.8-1-.8-1.6 0-.8 3.2-.9 10.4-.4 7.2.4 10.7.3 11.1-.4 1.4-2.3-3-3.7-13.8-4.3-11.2-.7-16.6-2.5-15-4.9.5-.9.8-.9 1.1 0 1 3.1 4.6-.2 8.7-8 2.9-5.5 3.3-12.4.9-16.9-1.4-2.9-1.4-3.2.9-6.2 4-5.4 4-5.6.7-5.2-2.3.3-3.2-.1-4.1-1.8-.7-1.2-3.6-5-6.5-8.3-3.5-4-4.9-6.4-4.1-6.7.7-.2 1.9-1.6 2.6-3 1.2-2.3 1.2-2.9-.3-5.2-1-1.4-2.6-2.5-3.9-2.5-2 .1-2 .2-.4 1.1m-83.1 66.1c-.7.7-1.2.8-1.2.2 0-1.4 1.2-2.6 1.9-1.9.2.3-.1 1.1-.7 1.7m34.5 3.4c-.3.3-1.2.4-1.9.1-.8-.3-.5-.6.6-.6 1.1-.1 1.7.2 1.3.5m72.6 1.1c-2.3.2-6.4.2-9 0s-.7-.3 4.2-.3c5 0 7.1.1 4.8.3m-76.3.8c0 .2-.9.9-1.9 1.4-1.4.8-2.2.7-3.1-.4-1.1-1.3-.8-1.5 1.9-1.5 1.7 0 3.1.2 3.1.5m44.7 112.7c.5.7 1.7 4.2 2.5 7.8 1.6 6.7 1.3 12-1.4 19.5-1.4 4.2-2.8 10.2-3.6 15.5l-.7 4.5-7-.3c-8.8-.4-10.7-1.9-8.2-6.1.9-1.6 1.7-4.5 1.7-6.5s2.3-9.6 5-17c2.8-7.4 5-14.2 5-15 0-.9 1-2.1 2.3-2.6 3-1.2 3.3-1.2 4.4.2"/></svg>