<svg xmlns="http://www.w3.org/2000/svg" width="682.667" height="512" version="1.0" viewBox="0 0 512 384"><path d="M273.6 81.4c.6 1.6.4 1.7-1.7 1.1-2.1-.7-2.2-.6-1.1.8.8.9 1.1 2.1.8 2.6-.4.5.1 1.4 1 1.9 1.5.8 1.4 1.5-1.5 6.6-1.8 3.1-3.6 5.6-4.1 5.6-.4 0-.6.9-.3 2 .4 1.6.1 2-1.8 1.8-3.4-.4-3.2 3 .2 6.2 2 1.8 3.2 4.5 4.4 10 1 4.1 2.1 7.9 2.5 8.5.4.5.5 2.5.3 4.3-.4 2.7-1 3.3-2.7 3-1.1-.1-2.7.1-3.3.5-1.5.9-1.7 4.9-.4 7.5.5.9 1.9 3.9 3.1 6.5 1.2 2.7 3 5.1 3.9 5.3 3.7 1.2 4.7 2.3 6.2 6.9 1.2 3.6 1.4 5.6.7 7.4-.8 2.1-.6 2.9 1.1 4.2 2.1 1.7 2.1 1.7-1.6 7-2 3-5.2 9.6-7 14.9-4.4 12.3-8.7 20.1-14.3 26.4-7.3 8.2-9.2 11.4-8.4 13.9 1.3 4.3 3.8 7 8.1 8.8 2.4 1 4.3 2.1 4.3 2.4s-1.2 2.9-2.6 5.8c-1.7 3.3-3.1 8.5-3.9 14.3-.7 5.1-1.9 10.3-2.6 11.6-.7 1.2-1.3 4.1-1.4 6.3s-.7 6.4-1.3 9.4c-2.2 9.9-1.8 11.7 3.6 15.6 3 2.2 6.8 3.9 10.5 4.6 3.2.6 6 1.5 6.2 2 .3.4 0 1.9-.6 3.3-1 2-.9 3 .5 5.1.9 1.4 2.2 2.5 2.8 2.5s2.1.9 3.3 2c1.6 1.5 4.4 2.2 11.6 2.9 10.1 1 29.4 5.7 34.7 8.5 2.2 1.1 4.7 1.5 8 1.2 4.6-.4 4.8-.3 9.4 4.6l4.7 5 3.2-1.8c4.1-2.4 3.9-3.7-.8-4.6-11.5-2.2-17-10-9.7-13.8 3.9-2.1 2.8-3.6-3.8-5.4-9-2.4-19.7-6.9-20.3-8.4-.3-.7.6-2.8 2-4.6 2.8-3.6 3-5.7 1.4-10.5-1.3-3.8-5.4-6.1-12.2-7-5.9-.7-7.5-3.1-5-7.7.8-1.7 1.3-4.4 1-6.4-.2-1.9.4-6.9 1.5-11 1.2-4.7 1.8-9.9 1.6-14-.3-6.2-.2-6.5 2.2-7 4.6-.9 7.7-3.9 9-8.6 2.7-9.6-1.1-42.7-6.5-56.2-1.5-3.7-1.6-4.6-.4-7.5 2.1-4.9 1.9-21.3-.3-25.6-1-1.9-1.8-3.5-1.8-3.5 0-.3 12.5.3 17.2.9 7.3 1 10.2.2 11.7-3.1 1-2.2.8-3.1-.9-5.9-1.1-1.8-2.6-5-3.4-7.2-1.3-3.8-1.3-4.2.7-6.1 1.8-1.8 1.9-2.5.9-4.7-1.1-2.3-1-2.5.6-1.6.9.5 3 2.4 4.5 4 3.4 3.7 3.7 3.7 6.9 1.1 4.8-3.7 5.4-12.4 1.3-18.6q-3.6-5.7-9.9 2.1c-3.3 4-4.2 4.5-7.8 4.5-2.6 0-4.5-.6-5.3-1.6-1.7-2.5-5.9-2.6-8.4-.3-1.2 1.1-2.1 2.5-2.1 3.2 0 1.4-10.7 6-12.1 5.2-1.3-.9-1.1-2.8.6-6.1 1.6-3.1 1.2-6.3-1.3-10.6-1.3-2.2-1.3-3.2-.4-5.3.7-1.4 1.2-3.5 1.2-4.5 0-2.2-3.5-4.6-4.5-3-.7 1.2-5.8 1.4-6.9.2-.4-.4-1.1-.7-1.4-.7-2 0-7.1-2.9-6.6-3.6.3-.5-.2-1.2-1-1.5-.9-.3-1.6-1.3-1.6-2.1s-.5-1.1-1.1-.8c-.6.4-1.7-.1-2.5-1.1-1.4-1.8-1.4-1.8-.8 0m40.9 43.1c0 2.5-2.8 3.1-4.9 1-2.5-2.5-1.9-3.7 1.7-3.3 2.4.2 3.2.8 3.2 2.3m-7.9 1.9 2.2 3.4-2.3 1.2c-4 2.1-5.8 1-6.1-3.8-.2-3.7 0-4.2 1.9-4.2 1.4.1 3 1.4 4.3 3.4m-21.8 124.1c2.8.9 5.7 1.4 6.4 1.3 1.7-.4 1.9 25.3.2 29.6-.8 2.1-.9 3.7-.2 5.2.8 1.7.7 3.3-.5 6.1l-1.5 3.8-9.8 1.2c-5.5.6-11.6 1.4-13.6 1.8l-3.7.7-1.6-5.6c-1.5-5.2-1.5-5.9-.1-8.1.9-1.3 1.6-3.7 1.6-5.3 0-3.3 7.9-25.6 10.5-29.5 2-3.2 4.7-3.4 12.3-1.2m35.4 77c3.2.4 6 1 6.3 1.5 1 1.6-6.2 6.2-8.5 5.5-1.1-.3-2-1.1-2-1.6s-1.9-.9-4.2-.9c-2.4 0-5-.5-5.8-1-2.3-1.6 2.5-5.2 5.9-4.6 1.4.3 5.2.8 8.3 1.1M134.5 88c-1 1.1-2.5 1.8-3.2 1.6-1.5-.6-1.7.5-.4 1.9 1.9 2.1-1.8 7.3-7.3 10.5-3.1 1.7-5.8 3.6-6.2 4.1-.3.6-2.2.8-4.4.4-5-.8-5.7.5-3 6.2l2.2 4.6-2.1 3.8c-2.8 4.9-2.7 6.1.9 11.1 1.9 2.6 3 5.3 3 7.4 0 3.6 1.8 8.4 3.2 8.4.4 0 .8-.6.8-1.2 0-.7 1-.2 2.3 1 1.9 1.9 2 2.4.7 3.2-.8.5-2.5 1-3.7 1-4.3 0-6 3.1-7.3 13.1-.6 5.2-1.9 12.2-2.7 15.7-1.6 6.2-1.7 6.3-9.2 11.2-4.2 2.8-8.6 6-9.9 7.2-1.9 2-3.5 2.3-10.5 2.6-7.6.3-9 0-19.6-4-9.5-3.6-11.7-4.8-13.1-7.3-1.3-2.3-2.4-3.1-5.2-3.3-4.2-.4-37.8 5.4-39 6.6-.5.5-.8 3.5-.6 6.7l.3 5.8 13 5.7c88.5 38.8 79.9 35.7 91.5 33.4l3.5-.7-1.9 2.9c-1 1.6-2.9 4-4.2 5.5-1.3 1.4-2.4 3.2-2.4 4.1 0 1.7 6.3 7.8 8.1 7.8.6 0 .8 2.1.3 5.9-.6 5.6-.4 6.3 2.9 11.8 5.3 8.7 9.7 18.4 9.7 21.4 0 1.5.7 3.2 1.5 3.9 2.5 2.1 1.3 5.2-2.6 7.4-7.6 4.3-12 7.8-13.1 10.1-.6 1.4-1.5 2.5-2 2.5-1.5 0-.8 3 .7 3.1.8.1 2.5.2 3.7.3 3.2.2 3.3 2.2.4 5.7-3.3 3.8-3.3 5.6-.1 8.1 1.4 1.1 2.3 2.4 1.9 2.9-.3.5-4 2.6-8.2 4.5-4.2 2-9.3 4.4-11.3 5.5-6.3 3.3-10 2.6-18.7-3.6-23-16.6-27.6-19.5-30.6-19.5S9 345 3.8 347.6c-4.4 2.3-3.5 4.7 4.4 11 4 3.2 8.2 6.7 9.3 7.7s6.1 5.2 11.1 9.3l9.2 7.4h37.6c23.4 0 37.5-.4 37.1-.9-.3-.6-2.8-2.4-5.5-4.2-5.4-3.5-6.2-5.3-2.7-6.3 4.1-1.1 7.4-.6 10 1.4 5.5 4.4 11.8 6.2 18.7 5.6 11-1.1 18.4-4.7 23-11.1 1.7-2.3 3.8-3.8 6.5-4.6 5.9-1.6 17.5-8.9 18.8-11.7 1-2.2.8-2.8-2.3-5.3-3.9-3.3-15.9-8.5-21.6-9.5-3.4-.5-4.2-1.1-5.3-4.2-.8-2.1-1.4-6.4-1.5-9.8-.1-3.5-.7-6.8-1.5-7.7-.7-.9-1.9-4.8-2.6-8.6-1.3-6.7-4.7-14.7-8.6-20.3l-1.9-2.7 4-6.3c4.6-7 5.2-7.4 15.4-8.9 7.9-1.2 20.1-7.2 23.5-11.6l2-2.5-2-3.6c-1.1-2.1-4.4-6.8-7.4-10.6-3-3.9-8.2-12.3-11.5-18.8-3.3-6.4-7.1-12.5-8.3-13.5-3.3-2.6-4.1-5.3-2.1-6.8 1.6-1.1 1.6-1.8.3-7.6-1.2-5.4-1.5-14.8-1-29.6.1-2-1-4.8-2.8-7.5-2.9-4.3-3.2-6.2-.8-5.2 1.8.6 5.7-7.5 5.7-11.7 0-1.9-.7-6.1-1.5-9.4-1.6-5.8-1.6-5.8 1-8.5 3-3.2 3.1-4 .5-4-1.1 0-2-.7-2-1.5s-.4-1.5-.9-1.5-2.1-2-3.6-4.5c-2.4-4.2-2.5-4.7-1-6.7 2.1-3.2 1.9-5.4-1-7.6-1.3-1.1-2.1-2.2-1.8-2.6.3-.3-.1-.6-1-.6s-1.7-.8-1.7-1.8c0-3.5-1.5-4.4-3.5-2.2M116 193c0 .5-.5 1-1.1 1-.5 0-.7-.5-.4-1 .3-.6.8-1 1.1-1 .2 0 .4.4.4 1m3.7 14.7c-2 6.3-3.7 9.8-4.9 10.1-.7.1-3.5-.7-6.3-1.7-2.7-1.1-4.4-2-3.6-2.1.7 0 4-1.8 7.3-4 6.6-4.4 8.3-4.9 7.5-2.3m5 65.3c-1 2.7-2.7 4.1-2.7 2.2.1-2.4 1.4-5.2 2.5-5.2s1.1.6.2 3m11.3 49c0 .6 1 2.5 2.3 4.2l2.2 3-2.4 1.6c-1.3.9-3.1 1.7-4 1.8s-3.4.9-5.6 1.7c-2.2.9-4.1 1.2-4.3.7-.6-1.5 2.5-6.4 6.4-10.3 3.8-3.7 5.4-4.6 5.4-2.7m-21 35.2c3.5 2.5 3.8 4.8 1.1 7.2-2.3 2.1-23.3 3.6-24.5 1.8-.9-1.5.7-2.7 9.4-7.2 8.8-4.6 10.1-4.7 14-1.8"/><path d="M428 94.6c0 .3.7 1.2 1.5 2 .8.9 1.5 2.2 1.5 2.9 0 2.3-3.2 4.7-5.6 4.2-1.7-.3-2.3 0-2.1 1.3.1 1.1-2.9 4.2-8.2 8.5-7.2 5.8-8.6 6.6-10.2 5.7-3.9-2.4-4-.3-.2 5 2.2 3.3 2.4 4.2 1.5 6.4-1.4 3-1.5 7.7-.2 11.8.5 1.7 1.4 5.2 2.1 7.8 1.1 4.7 2.3 6 3.2 3.5q.45-1.2 1.2.6c.4 1 .5 2 .2 2.4-.4.3-4.2.6-8.7.7-6.9.1-8 .3-8 1.8 0 1.6-1.2 1.8-12 1.8h-11.9l-.7-3.5c-.3-1.9-1-3.8-1.5-4.1s-.9-1.4-.9-2.5c0-1.5-.7-1.9-3.2-1.9-6.7 0-17.3 6.8-15.4 9.9.3.5-.1 1.1-.9 1.5-.8.3-1.5.9-1.5 1.4 0 1 8 3.9 9.4 3.4 1.6-.5 3.6 2.1 5.6 7.6 1.2 3.2 2.8 6.3 3.7 6.9 2.5 2 8.2 1.6 15.9-1.1l6.9-2.3.3 8.3c.3 11.4.4 12.4 1.9 12.4 2.1 0 1.5 2.1-.8 2.7-2 .6-2 .6.2 2.9 1.2 1.3 2.8 2.4 3.5 2.4 1.7 0 3.3-3.1 2.6-4.9-.3-1 0-1.2 1.2-.8 1 .4 2.6.7 3.7.7s2.4 1.1 3.1 2.4c.9 2.2.7 2.8-1.9 5-1.7 1.4-5 6.3-7.3 10.8-6.2 12-9.9 17.4-17.3 25.8-5.6 6.3-6.7 8.1-6.7 11.1 0 5.9 6.5 11.1 23.4 18.4 8.9 3.8 9.9 6.3 5.5 13.3-1.9 3.1-3.4 7.5-4.2 12.2-.8 4.1-1.9 8.5-2.6 9.8s-1.1 3.5-1 5c.2 1.5-.2 4.1-.9 5.8-1.1 2.6-2.1 3.3-6.6 4.3-7.2 1.6-9.6 3.5-9.6 7.5 0 3.7 2.3 6.3 8.5 9.4 6.5 3.2 16.7 7.2 18.6 7.2 1 0 2.1.5 2.4 1 1 1.7-10.2.4-17.4-1.9-9.8-3.2-13.9-2.8-18.1 1.7-8.7 9.1-8.7 9.2-6.6 10.8 4.1 3 7.7 1.8 13.1-4.2l5.1-5.6 4.4 1.2c2.5.7 5.2 1.8 6 2.5s3.2 2 5.2 2.8c2.5 1.1 3.9 2.4 4.4 4.1.3 1.4 1.2 3 2 3.7 2 1.6 1.7 3.7-.6 4.4-1.1.3-2.9 2-4.1 3.7l-2.3 3.1 2.8 2.4c1.5 1.2 3.3 2.3 4 2.3.8 0 1.9.7 2.6 1.5.9 1.1 3.3 1.5 9.2 1.5h7.9l2.1-3.6c1.3-2.2 2.6-3.3 3.5-3 5.5 2.1 14.5 3.9 15.1 3 .4-.5 2.6-1.6 5-2.2 3.4-1 4.2-1.7 4.2-3.6 0-1.3.7-2.6 1.5-3 .9-.3 1.5-1.8 1.5-3.6 0-2.4-.8-3.5-4.2-5.7-7.7-4.8-8.8-6.2-8.8-10.9 0-3.4.5-4.7 2.6-6.3 1.4-1.1 2.9-3.3 3.3-4.9 1.2-3.9-2-7.7-8.3-9.8-2.5-.9-4.3-2-4-2.6.3-.5-.1-1.7-.9-2.6-2.4-2.7-4.3-10-2.9-11.4.7-.7 1.2-2.8 1.2-4.7 0-2 1-5.9 2.2-8.9 2-4.7 2.1-5.8 1-9.7-.7-2.5-1.2-6-1.2-7.9 0-3.1.3-3.4 4.5-4.6 3.5-1 4.9-2 6-4.4 1.3-2.8 1.3-3.8-.5-10.1-1-3.9-2.6-8.9-3.4-11.2s-2.3-9.9-3.2-17c-.9-7-2.3-14.8-3.1-17.3-1.8-5.6-1.8-7.8.1-9.9 1.2-1.3 1.4-3.7.9-12.9-.6-10.7-.5-11.4 1.6-13.6 2.4-2.5 3.2-8.3 1.8-12.2-.7-1.9-.3-2.2 3-2.8 2.1-.3 9.1-.6 15.5-.6 11.8 0 14.1-.7 11.1-3.1-1.3-1.1-5.2-1.3-18.1-1l-16.6.3 2.6-3.1c1.5-1.7 3.8-5.5 5.3-8.6 2.9-5.9 3-11.2.1-16.7-1.3-2.4-1.2-2.9 1.5-6 3.5-4.1 3.5-4.3.2-4.6-1.5-.1-3.1-.9-3.6-1.7-.4-.8-3.2-4.3-6.1-7.8l-5.4-6.3 1.9-2.3c2.5-3.1 2.4-6.6-.3-8.5-2.3-1.6-3.8-2-3.8-1m7 64.9c0 .8-.2 1.5-.4 1.5s-.6-.7-1-1.5c-.3-.8-.1-1.5.4-1.5.6 0 1 .7 1 1.5m28 3.5c1 .6-2.6.9-11 .8l-12.5-.2 10-.6c5.5-.3 10.5-.7 11-.8.6-.1 1.7.3 2.5.8m-84 4c-4.5 2.4-5 2.4-5 0 0-1.7.7-2 4.3-2l4.2.1zm44.3 118.7c1.8 8 1.6 10.6-1.3 23.8-.7 2.7-1.4 7.1-1.7 9.7l-.5 4.8h-4.3c-11.8 0-16.4-2.2-12.9-6.1.9-1 1.8-3.6 2-5.8.1-2.2 2.7-9 5.7-15.5 3.1-6.3 5.8-12.9 6.2-14.5.5-2.6 1.4-3.3 4.6-4 .3 0 1.3 3.4 2.2 7.6"/></svg>