<svg xmlns="http://www.w3.org/2000/svg" width="682.667" height="512" version="1.0" viewBox="0 0 512 384"><path d="M338.7 28c-6.4 1.6-14.7 5.9-18.5 9.5l-3.6 3.4-8.3-.6c-9.6-.7-15.2.9-19.8 5.7-3.5 3.6-5.2 3.7-11.3.6-13.1-6.6-27.4-8.5-41.5-5.4-5 1.1-11 2.3-13.2 2.5-2.2.3-5.5 1.7-7.4 3.1-1.8 1.5-6.1 4.2-9.5 6.2-11.5 6.6-13.1 16.3-4.8 28.8 2.3 3.5 4.2 6.7 4.2 7.1 0 1.6 13.8 13.9 18.6 16.7 6.2 3.5 6 3.4 4.8 4.2-3.3 2.2-11.3 20.9-11.9 27.8-.3 2.7-1 8.8-1.7 13.7-.7 5.6-.8 13-.3 20.5.8 13.1.8 18.6 0 22.1-.5 2-.3 2.3 1.5 1.8 1.8-.4 2.5.2 3.9 3.6 1.2 2.6 3.5 5.4 6.2 7.4 2.4 1.7 6.8 5 9.7 7.2 2.9 2.3 5.9 4.1 6.7 4.1.7 0 1.7.4 2 1 .3.5 1.1 1 1.7 1s.3-.9-.7-2q-4.8-5.25 6 1.5c12.4 7.8 11.4 5.3 7.8 20-1.8 7.1-3.7 13.1-4.4 13.5-.6.4-2 .5-3 .3-1.6-.4-1.9 0-1.9 2.7 0 3.6-10.4 45.3-12.1 48.7-1.6 3-.4 5.6 2 4.8 3-.9 3.8 1.6 5 15.5 1.1 12 4.5 34.3 5.7 37.5 1 2.5 2.1.8 2.9-4.2 1.2-8.8 7.5-39.8 8.6-42.1.6-1.5 1.5-2.2 2.4-1.8 2.1.8 3.4-2.3 2.3-5.5-.7-2.1 0-6.2 3.6-19 2.4-9 4.8-18.2 5.1-20.4.4-2.2 1.4-5.1 2.2-6.3 1.3-2.2 1.3-2.6-.7-4.4-1.5-1.4-2-2.7-1.6-4.2.4-1.1 1.1-4.3 1.7-6.9 1.2-5.5 2.9-5.9 6.2-1.5 1.9 2.6 1.9 2.8.2 13-.9 5.6-2.1 11.1-2.6 12.1-1.1 1.9 1.3 5.3 3 4.3 1.7-1.1 2.7 1.9 4 10.9.6 4.9 1.9 11.7 2.7 15 2.6 10.3 5.5 19.7 6 19.2.2-.2.9-8.4 1.4-18.2 1.2-21.6 1.6-24.2 4.1-24.8 1.6-.4 1.9-1.5 1.9-6.6 0-3.4.4-6.1.9-6.1s2.4.6 4.3 1.4c4.2 1.8 6.4.9 14.4-5.9 2.9-2.5 5.7-4.5 6.3-4.5s1.3 1.2 1.7 2.7c.3 1.6 1 4.1 1.4 5.8.5 1.6 1.4 5.6 2 8.9.7 3.2 3.2 9.9 5.6 14.9s4.4 9.9 4.4 10.9c0 1.1-1.4 3.3-3 5.1-4.7 5-13 21.8-13 26.4 0 3.2-.7 4.6-3.5 7.3-5.5 5.3-8.4 10.2-8.7 14.5-.2 2.2.3 10.2 1.1 17.7l1.5 13.8h90.8c49.9 0 90.8-.2 90.8-.5 0-1.1-8.1-19.7-16.5-38-6.2-13.4-8.7-20.1-8.6-22.6 0-2.7-.7-4.5-3.3-7.4-1.9-2.1-4.6-7-6.1-10.9-4.5-11.6-8.2-18.9-14.5-28.6-3.3-5-6-9.5-6-10.1s2.4 1 5.2 3.5c6.1 5.3 7.3 5.7 6.3 1.8-.4-1.5-.9-4.1-1-5.8-.2-1.7-2.3-7.1-4.8-12-3.8-7.5-6.3-14.1-8.2-21.4-.6-2.1.4-.6 6.7 10.3 2.7 4.8 5.2 8.6 5.5 8.4.2-.3-.4-3.4-1.5-6.9-2.5-7.9-5.2-21.4-9.7-48.2-7.1-42.1-8.2-47.4-15-69.9-3.5-11.8-12.4-30.5-18.2-37.9-3.8-5-4.8-7.1-5.8-13.2-1.4-8.3-3.7-13.2-9.2-19.6-16-19-41.6-31-57.6-27m-79.1 190.1c3.1 1.9 4.5 3.9 2.7 3.9-1.2-.1-7.9-5.9-6.9-6 .5 0 2.4.9 4.2 2.1"/></svg>