<svg xmlns="http://www.w3.org/2000/svg" width="682.667" height="512" version="1.0" viewBox="0 0 512 384"><path d="M274.1 65.7c-.1.8-.8 1-1.8.6-1.5-.6-1.6-.4-.5.9.7.8 1 2.3.6 3.2-.3.9-.1 2.2.5 3 .8 1 .6 2.5-1 6.2-3.4 8-4.2 9.4-5.6 9.4-.7 0-1.3.7-1.3 1.5s-.4 1.5-1 1.5c-1.8 0-1 2.9 1 3.5 2.6.8 3.7 3.1 4.6 9.3.6 4.9.3 6.9-2.7 18.4-.8 3.2-.5 4.4 2.3 9.9 2.1 3.9 4.5 6.9 6.5 8.1 2.6 1.6 3.3 2.8 3.9 6.4.4 2.8.2 5.6-.6 7.5-1 2.4-1 3.5 0 5.5 1.2 2.2 1.1 3.1-1.3 7.7-2.3 4.6-6.6 21.4-11.4 45-1.5 7.3-1.5 8.2.1 13.2.9 3 2.1 5.5 2.7 5.5 1.5 0 1 3.8-1.1 8.6-1.2 2.5-2.4 7.5-2.7 11.2s-1.2 7.9-2 9.5c-.9 1.9-1.1 3.3-.4 4.6.6 1 .6 2.2.2 2.7-.9 1-3.1 12.5-3.1 16.3 0 1.4 1.9 4.2 4.6 6.9 7.9 8.2 8.4 8.7 8.4 10.4 0 .9-.7 1.8-1.5 2.2-.8.3-1.5 1.4-1.5 2.5 0 2.8 4.8 8.1 7.4 8.1 1.2 0 2.7.5 3.4 1.2.6.6 4.7 1.5 8.9 1.9 4.3.3 13.4 1.8 20.3 3.3 6.8 1.4 16.3 2.9 21 3.2l8.5.6-3.2-2.7c-1.8-1.4-3.3-3.2-3.3-3.8s1.7-2.8 3.7-4.9c4.6-4.7 4-5.5-5.8-7.3-13.7-2.6-17.9-4.1-17.9-6.6 0-.5 1.7-1.7 3.9-2.8 9.8-5 12.5-10.1 7.5-14-2.3-1.8-4.1-2.1-12-2.1-8.2 0-9.5-.2-10.4-1.9-1.3-2.6-1.3-7.8.1-8.7.7-.4.9-2.1.5-4.2-.3-2.1.3-6.3 1.4-10.6 1.1-3.9 2-9.9 2-13.4 0-5.5.3-6.3 2.3-7.1 1.2-.5 3.7-1.5 5.5-2.3 1.7-.7 3.2-1.6 3.2-2 0-.5.9-.8 1.9-.8 3 0 7.1-5.6 7.1-9.6 0-4.2-1.1-6.4-5.7-12.2-3.8-4.7-4.3-5.9-7.9-22.2-1.4-6.3-3.6-13.8-4.9-16.6-1.7-3.9-2-5.5-1.2-7 3-5.4 4.6-19.8 2.8-24.7-1-2.5-.9-2.5 4.2-2.3 2.9.1 8.7 1 13.1 2.1l7.8 1.9 1.9-2.3c2.5-3 2.4-3.4-1.1-7.4-2.9-3.3-2.9-3.5-1.4-6.5 1.1-2.4 1.3-3.6.4-5.2-2.2-4.1 3.2-1.2 8.1 4.3 3.3 3.7 3.9 4 5.4 2.7 2.9-2.4 4.5-6.7 4.5-12 0-9.5-3.2-11.8-9.1-6.5-2.1 1.9-5 3.7-6.4 4.1-3.9 1-9-.8-9-3.1 0-2.7-5.2-3.9-8.2-1.9-1.3.8-2.3 2.1-2.3 2.8 0 .9-1.6 1.6-4.2 2-2.4.4-5.9.9-7.9 1.2l-3.6.6-1-4.9c-.8-4.1-.6-5.3.9-7.8 2.4-4 2.3-7.6-.3-10.9-1.3-1.7-1.9-3.5-1.5-4.9.3-1.2.4-2.5.3-2.8s.4-1.3 1.1-2.2c1.5-1.8 0-3.3-2-2-3.9 2.3-17.8-3.2-20.1-8-1-2.1-1.7-2.5-2.3-1.6-.5.9-.9.8-1.5-.7-.4-1-.8-1.4-.8-.7M306 116c0 2.3-.2 2.3-5.2.9-5.2-1.4-4.8-2.9.7-2.9 3.8 0 4.5.3 4.5 2m11 .3c0 .7-.6 2.2-1.4 3.2-1.3 1.8-1.5 1.8-3 .2-1-.9-2.2-1.7-2.7-1.7s-.9-.7-.9-1.5c0-1.1 1.1-1.5 4-1.5 2.6 0 4 .4 4 1.3m15 4.3c0 .8-.4 1.4-1 1.4-.5 0-1-.4-1-.9s-.3-1.8-.7-2.8c-.6-1.6-.5-1.6 1-.4.9.7 1.7 2 1.7 2.7m-37.4 129.8c-.8 20.8-1 24-1.7 25.1-.3.5-.9 2.1-1.2 3.5-.6 2.3-1.4 2.7-8.2 3.9-9 1.6-10.1 1-11-5.7-.3-2.6-1-5.6-1.4-6.7-.6-1.4-.4-2.8.5-4 .8-1 1.4-3.1 1.4-4.6 0-3 4.1-15.1 7.1-21.1 2-3.9 1.6-3.7 12.7-4.4l2.3-.2zm32.4 60.3c.3.3-.8 1.6-2.3 2.9-2.1 1.8-4 2.5-7 2.4-2.3 0-6 .2-8.3.6-3.2.4-4.3.2-4.7-.9-.6-1.6 3.1-4.7 6.8-5.7 2.1-.6 14.7 0 15.5.7M136 74c-.8 1.5-1.7 1.9-3.1 1.5-1.9-.6-1.9-.5-.9 1.5 1.9 3.6-.7 7.5-8.7 13-6 4.2-7.6 4.9-10.2 4.4-3.7-.8-3.9.1-1 5.8l2.1 4-2.1 5-2.1 5 2.2 3.2c1.2 1.7 2.8 3.7 3.5 4.4s1.3 2.1 1.3 3 .5 3.4 1.1 5.5c.8 3 1.6 3.9 4 4.4 3.7.7 3.3 2.5-.9 3.4-7.3 1.5-8.2 3.3-11.1 20.5-1.5 8.6-1.7 9-9.1 12.2-3.7 1.7-8 3.4-9.4 3.8-1.5.3-3 1.1-3.4 1.8-1.3 2.1-5.6 3.5-12.7 4.1-4.8.5-7.6 1.3-9.1 2.6-2 1.9-2.1 1.8-8.7-.7-5.1-2-7-3.3-8.6-6-1.7-2.8-2.6-3.4-5.3-3.4-5.9 0-40.1 6.9-41.6 8.4-1.8 1.8-.9 7.7 1.6 9.9 1.6 1.4 17.6 8.9 74.7 35l22 10 6-1.5c3.3-.9 6.3-1.3 6.7-1 .4.4-.6 3.4-2.3 6.7-2.5 5-2.7 6.1-1.6 7.3 1.2 1.1 1.2 2 0 5.5-.8 2.3-1.7 6.3-2 9l-.6 4.8 9.8 9.7c5.4 5.3 10.2 10.8 10.7 12.2.4 1.4 2.2 3.3 3.8 4.2 2 1.1 2.8 2.2 2.4 3.2-.3.9-1 1.6-1.5 1.6s-2.5 1.5-4.4 3.3c-1.8 1.7-4.5 4-5.9 5s-2.6 2.6-2.6 3.6-.7 2.4-1.5 3.1c-1.9 1.6-1.9 3.9 0 4.6 2.4 1 1.7 2.8-1.7 4.8-1.8 1.1-5.1 3.8-7.3 6.1-3.4 3.5-5.6 4.7-14 7.3-5.5 1.8-11 3.2-12.1 3.2-1.2 0-8.8-4.7-17-10.5-13.2-9.4-15.2-10.5-17.9-9.9-5.9 1.3-37.8 13.3-39.3 14.8-1.4 1.4-1.4 1.7.5 3.3 4.3 3.8 23.5 19.7 39.2 32.7L64.4 383h38.3c21.1 0 38.3-.4 38.3-.9 0-.4-2.6-2.5-5.7-4.6-11.3-7.5-20.4-14.6-19.8-15.5.9-1.5 7-1.2 11.5.6 4.4 1.8 12.9 1.4 19.2-.8 6.9-2.4 13.9-8.8 15.1-13.9.5-1.7 1.8-3.1 3.9-4 7.6-3.1 14.1-9 13.6-12.2-.3-2.2-10.1-7.9-16.5-9.8-2.4-.6-4.3-1.7-4.3-2.3 0-.7-.9-3-2-5.1-1.7-3.2-1.9-5.1-1.4-9.3.4-3.2.2-5.7-.4-6.5-.6-.7-1.6-4.3-2.2-8-1.2-7.7-3.2-13.4-6.8-19.2l-2.5-3.9 3.9-7.3c4-7.6 4.8-8.2 11.3-8.8 5.9-.6 16.2-5.7 18.7-9.3 2.2-3.2 1.4-5.5-6.4-18.5-3.7-6.2-8.1-14.8-9.7-19.1-2.1-5.6-4.2-9.2-7.2-12.3-4.5-4.5-5.3-6.7-2.9-7.6 1.2-.5 1.2-1.2 0-5.3-2.5-8.3-1.3-18.9 2.7-24.2 2.2-2.9 1.5-5.8-2.8-10.3-2.6-2.8-3.3-4.2-2.8-5.8.3-1.1 1.1-2 1.7-1.8 1.7.3 4.6-5.5 4.7-9.3.1-2-.6-6-1.5-9-2-7.1-1.9-8.8.4-11.4 3.5-3.9 3.8-4.9.9-4.4-2.1.4-2.9-.2-5.2-3.9-1.6-2.3-3.4-4.8-4.1-5.4-1-.8-.9-1.7.8-4.5 2.3-3.8 2.1-4.1-3.9-10-1.3-1.2-2.3-3.1-2.3-4.2 0-3-1.7-3.6-3-1.2m4.4 12.6c.3.8.2 1.2-.4.9s-1-1-1-1.6c0-1.4.7-1.1 1.4.7m-23.6 92.9c1.8 3.9 1.5 4.3-3 5.6-2.4.6-5.7 2.2-7.5 3.5-2.8 2.1-4.4 2.5-12.7 2.7-7.6.2-9.3 0-8.4-1 .6-.7 1.6-1.2 2.2-1.2 1.6.3 4-.7 15.6-6.6 5.8-2.9 11-5.4 11.6-5.4.6-.1 1.6 1 2.2 2.4m-36 8c.2.2.2 1.1-.2 2-.5 1.4-.9 1.4-4.3 0-6.2-2.6-6.5-3.9-.9-3.1 2.7.3 5.1.8 5.4 1.1m39 13.2c-1.3 5-1.8 5.6-3.1 4.5-.7-.5-4.1-1.9-7.7-3.2-7.9-2.8-8.7-3.4-5-3.7 1.7-.1 3 .4 3.4 1.3.4 1.1 1.1 1.2 2.2.6.9-.5 2.5-.7 3.5-.5 1 .3 2.8-.2 4.1-1.1 3.3-2.4 3.8-2 2.6 2.1m10.7 57c-.4 2.1-1 5.4-1.3 7.5l-.7 3.6-3.9-3.3-4-3.3 2.7-4.1c2-3.1 3.4-4.1 5.3-4.1 2.5 0 2.6.2 1.9 3.7m10.5 49.7c0 .3-.4.8-1 1.1-.5.3-1 .1-1-.4 0-.6.5-1.1 1-1.1.6 0 1 .2 1 .4m3 5.5c0 1.2-1.1 2.3-3.2 3-4.3 1.5-5.6-.1-2.2-2.8 3.3-2.6 5.4-2.7 5.4-.2M116.9 339l4.2 4.9-2 5.7c-2.2 6.5-3.1 7.4-8.7 7.4-3.3 0-5.6-1-11.8-5.2-4.3-2.8-8-5.7-8.3-6.5-.7-1.7 2.4-5.3 4.6-5.3 1.2 0 17.1-5.3 17.7-5.9 0-.1 2 2.1 4.3 4.9M440.7 79c2.1 3.5 1 6.3-2.6 6.8-1.2.2-2.5 1-2.7 1.7-.3.8-4 4.2-8.1 7.6-6.3 5.2-7.8 6.1-9.3 5.1-1.4-.8-2.2-.6-3.9.9l-2.1 2 3.1 4.6c3 4.3 3.1 4.7 1.9 8.3-2.4 7.3-.1 21.4 3.5 21.9.6 0 1 .6 1 1.3 0 1.9-4.7 2.6-8.1 1.2-3.8-1.5-5.4-.4-5.4 3.8 0 2.2-.8 3.2-3.8 4.7-2.1 1.1-4.4 2.7-5.2 3.6s-3 2.5-5 3.5l-3.7 1.9-1.6-2.7c-.9-1.5-3-4.2-4.6-6-2.8-3.3-2.9-3.3-5.9-1.8-1.7.9-3.8 2.6-4.6 3.8-1.8 2.6-2.2 10.8-.5 10.8.6 0 .9.9.6 1.9-.3 1.3.1 2.1 1.4 2.4 1.1.3 1.9.1 1.9-.4 0-2.1 4.2 1.9 6.1 5.8 2.2 4.5 3.4 5.3 8.3 5.3 2.6 0 5-1.5 11.6-7 4.5-3.9 8.8-6.9 9.3-6.7.6.2 2 1.6 3.1 3.1 1.7 2.2 2.1 4.2 2.1 9.7 0 4.6.4 7 1.2 7.4 2.3.8 1.4 4.4-1.8 6.7-1.7 1.3-6.4 7.2-10.4 13.3-4.1 6-11.7 15.4-17 20.9-11.4 11.9-12 13.9-5.5 20.4 3.9 3.9 15.1 9.2 19.3 9.2 4.3 0 5.7 1.8 5.7 7.5 0 4.7-.5 6.1-3.5 10.1-1.9 2.5-4.2 7.1-5 10.2-.9 3.1-2.7 7.9-4.1 10.5s-2.3 5.4-2.1 6.1c.3.8-.1 2.6-.9 4.2-.8 1.5-1.8 4.7-2.1 7-.4 3.5-1.1 4.4-3.9 5.7-4.1 2-5.2 5.5-2.9 9 2.9 4.5 8.9 7.5 19 9.6 15 3.1 14.5 4.2-2.2 4.8-6.5.2-12.7.6-13.8.8-2.8.6-9.6 9.7-9.7 13.2-.3 6.4.1 7.2 4 8.2 4.7 1.4 8.9 1.4 9.7.1.3-.6-.3-2.2-1.4-3.6l-2.1-2.7 2.8-5.1 2.7-5.1 6.5.2c6.6.2 14.6 1 18.8 1.9 1.5.3 2.2 1.2 2.2 2.7 0 2.7 4.3 7.1 8.3 8.6 1.5.6 3 1.9 3.3 2.8 1.5 4.5 4.9 10.9 6.3 12 .9.6 3.6 1.7 6.1 2.3 6.5 1.7 9.1 3.2 10.3 5.7.9 2.1 1.7 2.3 8.3 2.3 4 0 7.6-.4 7.9-1 .3-.5-1-4.3-3-8.3-1.9-4.1-3.5-8.1-3.5-9s-.4-1.8-.9-2.2c-.6-.3-.7-3.5-.4-7.3l.6-6.8-3.5-3c-2-1.6-3.9-4-4.3-5.4s-2.3-5.9-4.3-10c-2.8-5.9-3.6-8.9-3.8-14-.1-5.2-.7-7.3-2.8-10.4-3-4.5-3.3-7.2-1-9.7 1.4-1.5 1.5-2.3.5-4.7-.9-2.2-.8-4.1.5-9.2 1.1-4.4 1.4-7.8.9-10.9-1.5-8.7-1-20.2 1.9-43.6 1.8-14.9 2.1-27.2.6-31-.7-2-.6-3.5.4-5.8.8-1.8 1.7-5.4 2.1-8 .5-3.7 1-4.7 2.3-4.5.9.2 1.6-.2 1.5-.8-.1-.8 1.1-.9 4-.3 6.6 1.3 7 1.2 6.5-1.6-.3-1.4.1-3.3.8-4.2 1.7-2.3 1.7-7.3 0-9.5-.7-1-2.8-2.1-4.5-2.4-2.7-.6-3.2-1.1-2.9-3.3.1-1.4-.1-3.2-.6-3.9-.5-.8-.4-1.8.3-2.5 1.8-1.8 1.4-2.4-4-5.7-2.9-1.7-4.8-3.5-4.3-4 1.1-1 37-14 38.8-14 .7 0 2.1-.9 3.1-2 1.7-1.9 1.7-2-.8-3.1-2.2-1-4.2-.5-15.9 4.4-14.6 6-20.7 8.1-21.4 7.5-.2-.3.3-2.2 1.2-4.3 1.6-3.8 1.2-10-.8-13.8-.7-1.4-.2-2.8 2.1-5.9 3-4 3.3-7 .5-4.7-1.5 1.2-1.1 1.6-10.5-9.9-4.7-5.7-5-6.4-3.6-8 3.4-3.8 1.5-10.2-2.9-10.2-1.3 0-1.2.5.3 3m44.3 46c-.8.5-1.9 1-2.5 1-.5 0-.3-.5.5-1s2-1 2.5-1c.6 0 .3.5-.5 1m-8 3c-.8.5-1.9 1-2.5 1-.5 0-.3-.5.5-1s2-1 2.5-1c.6 0 .3.5-.5 1m-10 4c-.8.5-1.9 1-2.5 1-.5 0-.3-.5.5-1s2-1 2.5-1c.6 0 .3.5-.5 1m-72 27.4c0 .2-.7.7-1.6 1-.8.3-1.2.2-.9-.4.6-1 2.5-1.4 2.5-.6m31.5 99.6c.3.5 1.4 1 2.4 1 2.3 0 3.9 5.6 5.2 18.4.7 6.4.6 9.8-.3 12.2-.9 2.6-.9 3.6.1 4.8s.9 2.1-.3 4.5c-.9 1.6-1.6 3.9-1.6 5.1 0 2.7-.2 2.7-15.2 3.4-12.1.6-12.8.5-13.8-1.4-.9-1.7-.7-2.6.9-4.7 1.2-1.4 2.1-3.4 2.1-4.5 0-2.5 2.1-6.5 8.8-16.7 5.7-8.6 8.1-13.9 8.2-17.8 0-4.4 2-6.7 3.5-4.3m-82.4 70.4c1.8 2 4.1 3.6 5.1 3.6 1.8 0 7.6-4.5 6.8-5.3-.3-.2-3.8-.8-7.9-1.1l-7.4-.8z"/></svg>