<svg xmlns="http://www.w3.org/2000/svg" width="682.667" height="512" version="1.0" viewBox="0 0 512 384"><path d="M442.5 58.6c1.6 4 1.7 5.6.6 6.4-.7.4-1.3 1.3-1.4 2.1-.4 2.5-11.2 18.9-12.2 18.5-1.5-.5-4.5 1.3-4.5 2.7 0 .8 1.3 2.6 2.9 4.1 2.7 2.6 2.9 3.2 2.4 8.3-.6 5.8 2.3 20.6 3.9 19.7.4-.3.8 0 .8.5 0 1.7-3.1 1.3-5.4-.6-1.2-1-1.8-1.4-1.4-.9s.1 1.4-.6 2.2c-.8.8-1.3 2.9-1.1 5.1.1 2.1-.2 5.5-.8 7.6-.9 3.1-.7 4.4.6 6.7.9 1.5 1.7 4.1 1.7 5.7 0 4.2 2.6 7.3 6 7.3 3.3 0 4.1 1.8 2.8 6.4-.5 2.1-.3 3.4.7 4.6 2.3 2.5 1.8 4-2.5 7.7-2.1 1.9-6.3 7.3-9.1 12.1-5.3 8.8-16.2 23.5-19.4 26.2-3.1 2.6-6.6 9-6 11 .8 2.4 9.1 10 11 10 2.1 0 1.1 4-2.6 10.5-6 10.7-7.9 15.3-9.4 23.9-.8 5-2.3 10.1-3.2 11.5s-1.6 4.1-1.5 5.8c.2 1.8-.4 4.6-1.3 6.2-4.9 9.5 1.7 24.1 10.8 24.1 1.3 0 3.5.9 4.9 1.9 1.3 1.1 4.8 2.7 7.8 3.6 7.9 2.4 11.3 3.7 12.7 4.8 1.2.9 1 14.8-.3 19-.3 1 .2 2.7 1.2 3.8 2 2.2 16.4 9.3 25.9 12.8 3.3 1.3 6.5 2.7 7.2 3.2 1.8 1.6 11.9 2.4 12.7 1 1.4-2.2-.4-5.1-3.2-5.1-3.2 0-13.4-3.1-17.7-5.4-1.6-.8-5.8-2.8-9.3-4.2-4.4-1.9-6.2-3.2-6-4.3.5-2.5 9.2-1.5 16.7 2 7.7 3.5 13.3 5.1 17.9 4.9 2.6 0 3.5.4 3.9 2 .4 1.5 1.1 1.8 2.7 1.4 1.4-.3 5.2 1.1 10.9 4 8.6 4.5 11.8 5.2 16.5 4 2-.6 2.2-1.2 2.2-7.4 0-7.5-.8-8.8-7.3-11.5-2-.8-4.3-2.4-4.9-3.5-.8-1.3-2.4-2-4.4-2-1.9 0-4.1-.9-5.5-2.3-1.3-1.2-3.7-2.8-5.3-3.5s-4.8-2.9-7.2-4.8c-3.8-3.2-4.7-4.6-7-12.2-3.2-10.7-7.3-15.3-15.3-17.2-5.2-1.2-7.1-3.1-7.1-6.8 0-1.1.7-2.5 1.5-3.2.9-.7 1.5-2.9 1.5-5.4 0-2.2 1.6-8.6 3.5-14.1 2.6-7.4 3.5-11.7 3.5-16.5 0-11.5.8-13.8 5.1-16 2.1-1.1 4-2.3 4.2-2.7.3-.5 1.3-11.7 2.3-25.1 1.6-22.5 1.7-24.6.1-29.3-1.5-4.9-1.4-7.9.3-7.9.5 0 1.2-2.1 1.5-4.8.3-2.6 1.3-8.2 2.2-12.4 1.3-6.5 1.4-8.5.3-12.3-.9-3.4-1-4.9-.2-5.7 1.6-1.6 8.4-3.8 10.2-3.3.8.2 2.9.7 4.5.9 1.7.3 5 .9 7.6 1.4 2.7.5 7 .5 10.7-.2l6.2-1v-7.8c0-9.1 1.7-8.1-17-9.8-6.9-.7-12.6-1.3-12.8-1.5-.5-.4 2.8-6.7 12-23.3 4.4-7.9 8.1-14.9 8.2-15.6.1-.6 1.1-2.6 2.4-4.3 2.1-3 2.1-3.1.2-4.8-1.8-1.7-2.2-1.1-14.2 22.9L478.5 115h-5.2c-5.9 0-8.3-.7-8.3-2.4 0-.7 1.4-4.1 3.1-7.5 3.5-6.9 3.6-12.6.4-16.1-1.6-1.8-1.6-2.2.4-6.3 1.1-2.4 2.1-4.8 2.1-5.5 0-1.9-2.1-2.5-4.5-1.2-2.5 1.4-2.2 1.5-14.2-5.5-4.9-2.8-5.3-3.3-6-8-.6-3.7-1.3-5.1-2.7-5.3-1.5-.3-1.7 0-1.1 1.4m-5.9 179.8c2.7.7 5.6 1.6 6.2 2 2.5 1.5.2 34.1-2.8 39.6-.7 1.2-1 3.4-.7 4.9s-.2 4.3-1.3 6.6c-1.1 2.2-1.9 4.5-2 5.1 0 .7-2.5 1.5-5.7 1.9-3.1.4-9 1.8-13.1 3.2-8.7 2.9-8.8 2.8-13.7-7.5-1.5-3.2-1.5-3.6.5-6.8 1.1-2 2-4.8 2-6.4 0-3.8 10-26.9 15.2-35 5.7-8.9 6.9-10.2 8.7-9.4.9.3 3.9 1.2 6.7 1.8m52.3 104.5c.9.6 1 1 .2 1.6-1.6.9-4.4-.2-3.6-1.5.8-1.2 1.6-1.2 3.4-.1M287 63.9c0 2-.2 2.2-1.6 1-1.3-1.1-1.4-.9-.9 1.4.5 1.8.3 2.7-.5 2.7-1 0-1 .3 0 1.4.9 1.2.2 2.7-4.1 8-2.9 3.6-5.6 6.3-6.1 6-1.2-.7-4.8.5-4.8 1.7 0 .5.9 2.3 2.1 3.8 2 2.7 2 3.2.8 8.6-.8 3.8-2.3 6.8-4.1 8.7-3.2 3.3-3.4 3.8-1.4 3.8.8 0 1.4 1 1.4 2.2-.1 6.1.5 7.5 3.2 7 2.1-.4 2.3-.2 1.2.9-.7.8-2.7 1.9-4.5 2.5-4.3 1.4-4.5 3.5-.8 8.9 1.7 2.6 3.1 5 3.1 5.5 0 .6.9 1.5 2 2.2 2.7 1.7 2.7 9.5 0 14.8-1.9 3.7-1.8 7 .1 7 1.3 0 1.1 2.1-.4 5-1.9 3.7-3.5 10.4-4.7 20.5-.6 4.9-2.2 13.4-3.6 19-1.3 5.5-2.4 11.7-2.4 13.7 0 7.7 3.9 13.3 10.2 14.3 3.2.6 3.7.9 2.7 2.1-1.2 1.4-3.9 12.6-4.3 17.9-.5 6.6-3 15.6-4.7 17.6-1.1 1.2-1.9 2.6-1.9 3.2 0 .5 2.1 3 4.6 5.6 2.6 2.5 5.3 5.6 6.2 6.9 1.4 2.1 1.3 2.5-1.2 5-3.3 3.5-3.3 4.8.2 6.6 1.5.8 3.6 2.8 4.7 4.5 1.3 1.9 2.8 3.1 4.3 3.1 1.2 0 2.2.4 2.2 1 0 2 7.1 2.8 17.4 1.9 6.6-.6 12.1-.5 15.2.1 10 2.1 11.4 2.2 13.1 1.6 1.5-.6 1.3-1-1.5-3.2-1.8-1.4-3.2-3-3.2-3.5s1.6-2.7 3.7-4.9c2-2.3 3.2-4.4 2.7-4.9-.5-.4-4.8-1.3-9.5-1.9-10.3-1.4-16.4-3.4-16.4-5.2 0-.8 2.4-2.1 5.7-3.1 6.4-1.9 11.4-5.1 12.3-7.9.9-2.9-2-7.6-5.6-8.9-1.8-.6-5.8-1.1-9-1.1-5.5 0-5.9-.2-6.5-2.6-.4-1.4-.2-3.5.3-4.7.7-1.4.7-3.1.1-4.7s-.5-4 .1-6.7c.6-2.3 1.1-6.8 1.1-10v-5.9l4.5-1.9c2.5-1.1 4.5-2.3 4.5-2.8 0-.4.7-.7 1.6-.7s3.1-1.5 5-3.4c6-6 4.9-10.3-9.4-38.7-4.8-9.6-9.6-18.6-10.5-19.9-1.6-2.3-1.5-2.6.7-6.4 1.3-2.3 2.9-5.8 3.5-7.8 1-3.1 1.8-3.8 4.7-4.4 2-.4 3.8-1.3 4.1-2 .8-2.2 2.8-1.7 7.7 2.1 5.5 4.2 7 4.3 9.3.9 1.6-2.5 1.6-2.8 0-5.6-2.3-4-2.1-5.8.4-2.9 1 1.3 2.4 4.3 3 6.7.9 3.6 1.6 4.4 3.4 4.4 5.4 0 13.6-14.3 10.2-17.7-1.2-1.3-2.1-1.3-5.2-.3-2 .7-5.2.9-7.1.6-4.1-.8-8.4-4.6-8.4-7.4 0-1.2-1.3-2.8-3.2-4.1-3-1.8-3.5-1.9-5.6-.5-1.6 1.1-2.7 1.2-3.6.5-.6-.6-3.1-1.3-5.3-1.7-4.6-.7-10.3-3.8-10.3-5.5 0-.8.4-.8 1.3-.1 1 .9 1.3.4 1.3-2.4 0-2.5.8-4.2 2.7-6 3.2-2.9 4.3-6.7 2.9-9.8-1-2.3.5-7.7 2.7-9 1.9-1.2 1.2-2.9-.9-2.3-1 .3-2.4-.1-3.1-.9-.6-.8-1.4-1.2-1.8-.9-.4.2-3.3-2.2-6.5-5.4-4-4-5.5-6.2-5-7.4.3-1 .1-1.7-.5-1.7-.7 0-.7-.8 0-2.6.8-2.3.8-2.5-.5-1.5-1.1 1-1.6.9-2.5-.6-.9-1.6-1-1.6-1.1.6m6.5 176.3c.6 6.5.2 25.4-.6 26.2-.3.3-3.5.8-7.1 1.2-6.6.7-6.7.6-7.4-2-.3-1.4-.3-4.3 0-6.4.4-2 .8-4.8 1-6.2.3-2.2 5.7-14.1 7.9-17.8.5-.6 1.9-1.2 3.2-1.2 2.1 0 2.4.5 3 6.2m23 59.8c-.3.5-1 1-1.6 1-.5 0-.9-.5-.9-1 0-.6.7-1 1.6-1 .8 0 1.2.4.9 1M121.4 77.4c-.3.9-1.2 1.6-1.8 1.6-.8 0-1.1 1.5-1 4.2.1 2.5.7 4.2 1.4 4 .6-.1-2.2 2.8-6.1 6.5-4 3.8-7.9 6.7-8.8 6.6-2-.3-6.1 1.7-6.1 2.9 0 .5 1.2 2.5 2.7 4.5 2.4 3.1 2.7 4.4 2.5 9.4-.3 5.8-.3 5.9 3.3 8 2.1 1.3 4.2 3.6 5.1 5.8.8 2 2.7 4.8 4.1 6.3l2.5 2.6-4.5 2c-5.2 2.3-6.7 5.4-7.2 15-.1 3.1-.3 6-.4 6.4-.1.9-12.5 4.8-15.1 4.8-1 0-2.3.7-3 1.5-.7.9-2 1.3-2.7 1-.8-.3-2.1.1-2.8.9-.8.8-4.8 1.6-9.7 2-7.4.6-8.9.4-14.1-1.7-4.1-1.6-6.4-3.3-7.8-5.6-1-1.7-2.6-3.4-3.4-3.7-1.4-.6-40.8 7.1-42.7 8.2-1.4.9-.9 6.9.8 9.3 1.7 2.3 9.5 6.3 68.3 34.3l29.5 14.1 4.9-1.2c2.8-.6 5.2-.9 5.5-.7.9 1-2.1 10.8-4.4 14.2-2.3 3.3-2.4 3.8-1 5.9s1.4 2.8.1 6.6c-.8 2.3-1.5 6.3-1.5 8.8 0 5.9 2.2 8.1 13.5 14.1 4.4 2.3 9.2 5.4 10.6 6.9 1.5 1.4 3.7 3.4 5 4.4 1.6 1.2 2 2 1.2 2.3-.7.3-4.6 3.8-8.7 7.7-6.5 6.2-7.3 7.5-6.4 9.1 1.2 2.2-.9 4.3-5.2 5.2-1.4.2-4.5 1.2-7 2-2.5.9-7 2.3-10 3.1s-6.6 2.1-8 2.8-5 1.8-8 2.5l-5.6 1.2-12.4-8.6c-10.1-7-13-8.6-15-8.1-3.1.7-33.6 12.1-36.7 13.7-1.3.6-2.3 1.7-2.3 2.5 0 .7 12 11.3 26.7 23.5 14.8 12.2 30.8 25.5 35.6 29.5l8.8 7.3h61.4l3.8-2.5c2-1.4 3.7-3.2 3.7-4 0-.7-6.3-5.7-14-11.1-7.8-5.3-13.9-10.2-13.7-10.8s3-1.7 6.3-2.3c3.2-.7 6.6-1.7 7.5-2.2s3.7-1.2 6.2-1.6c5.8-.9 7.3-2.6 8.4-9.5l.8-5.5 4.5-.1c14.6-.3 27.9-6.9 28-14 0-3.5-19.6-16.2-25.5-16.4-1.5 0-5.9-6.9-6.1-9.4-.4-5.7-1.8-9.8-4-11.2-1.3-.9-3.5-3.7-5-6.2-1.5-2.6-5-6.8-7.7-9.4l-4.9-4.7 5.1-5.8c2.8-3.1 5.1-6 5.1-6.4s.9-.5 1.9-.2c1.1.3 4.6-.3 7.8-1.3s6.1-1.7 6.5-1.6c1.3.3 13.4-4 14.9-5.4.8-.8 2.2-1.4 3-1.4.9 0 2.8-1.3 4.4-3 2.6-2.8 2.8-3.2 1.5-5.6-.8-1.4-2.7-3.7-4.3-5-5-4.2-14.3-16.1-19-24.1-2.5-4.3-6.4-9.5-8.6-11.5-3.7-3.3-4.1-4-3-5.9.8-1.6.8-3.1 0-5.8-2.2-7.5-2.8-10.8-2.1-12.2.4-.8 1-3.7 1.4-6.6.6-4.7.3-5.7-2.9-11.2-1.9-3.3-4-6.3-4.5-6.6-.6-.3-1-1.3-1-2.1s.5-1.2 1-.9c.6.3 1 .2 1-.2 0-.5 1-1.3 2.3-1.8 1.4-.6 2.5-2.4 3.1-4.8.9-3.7-.3-8.8-4.7-19.9-.9-2.4-.7-3.3 1.2-5.8 2-2.8 2.1-5.7.1-4.5-.4.3-1.3-.2-2-1s-2.3-1.5-3.6-1.5c-2.7 0-7.4-5.6-7.4-8.9 0-1.3-1.6-4.1-3.5-6.4-1.9-2.2-3.5-4.9-3.5-5.8 0-2.4-1.9-3.4-2.6-1.5m-7 101.2c3.1 5.5 3.3 7.4.7 7.4-1 0-2.4.6-3 1.4-2.8 3.3-6.8 2.9-17.3-1.5-9.1-3.8-9.9-4.3-7.7-5.2 1.3-.5 3.5-1 4.9-1.2 1.4-.1 5.7-1.4 9.5-2.8 3.9-1.5 7.7-2.7 8.7-2.7.9 0 2.7 2 4.2 4.6M107.7 322c1.4 1.1 3.4 2 4.4 2 1.7 0 5.9 4.8 5.9 6.7 0 .5-2.4 3.4-5.3 6.6l-5.3 5.8-8.9-6.2c-5-3.4-9.3-6.7-9.7-7.3-1.5-2.3 3.2-5.1 16-9.5.2 0 1.5.8 2.9 1.9m227.3-9.3c0 .5 1.3 2.3 2.8 4.2 2.5 2.9 3.3 3.2 5.9 2.7 3.7-.9 6.8-3.9 6-6.1-.5-1.1-2.3-1.5-7.7-1.5-3.8 0-7 .3-7 .7"/></svg>