<svg xmlns="http://www.w3.org/2000/svg" width="682.667" height="512" version="1.0" viewBox="0 0 512 384"><path d="M441.5 57.6c1.5 3.7 1.7 6.4.5 6.4-.7 0-1 .7-.6 1.5.3.9-1.2 3.9-3.7 7.4-2.4 3.2-4.9 7.3-5.7 9-.7 1.9-1.8 3-2.6 2.7-.7-.3-2.1.3-3.2 1.3-2 1.7-2 1.7 1.3 4.4 3.4 2.7 3.4 2.8 2.8 9-.4 5.1-.1 7.5 2 13.6 1.5 4.1 2.4 7.7 2.2 8-.3.2-1.5-.1-2.8-.6-3.4-1.6-4.6-.4-4.2 4.2.1 2.2-.2 5.5-.7 7.3-.7 2.4-.6 4.4.6 7.9.9 2.6 1.6 5.7 1.6 7 0 3.4 4.5 7.6 7.1 6.8 1.9-.6 2-.3 1.8 3.9-.2 2.6.2 5.1.9 5.8 2 2 1.4 3.4-3.5 8.5-2.7 2.7-7 9-9.8 14.3-4.7 8.9-15 24-17.4 25.5-.6.3-2 2.3-3 4.4-1.5 2.8-1.7 4.1-.9 5.6 1.4 2.4 7.1 8.1 8.6 8.6 1.7.6-1.1 9-4.9 14.5-3.8 5.6-6.5 12.9-7.9 22-.6 3.8-1.8 8-2.7 9.4-.9 1.3-1.7 4.3-1.8 6.5s-1 6-1.9 8.4c-3.7 9.8 3 21.1 12.6 21.1 1.8 0 5.5 1.1 8.3 2.4 2.7 1.3 7.3 3.3 10 4.3l5 1.9v7.4c0 4.1-.4 9.3-.8 11.5-.8 3.7-.6 4.2 2.4 6.7 1.8 1.6 3.7 2.8 4.2 2.8.4 0 3.2 1.5 6 3.4 8.7 5.5 23.2 11.6 28.1 11.8 4.3.1 5.6-.8 5.6-3.8 0-2-.5-2.4-3.1-2.4-5.3 0-14-3.1-23.4-8.3-4.9-2.7-9.2-5.1-9.3-5.2-.2-.2-.1-1.3.3-2.5.5-1.7 1.2-2 2.8-1.5 1.2.4 4.6 1.1 7.5 1.6 3 .5 6.4 1.6 7.7 2.5 3 1.9 12 4.4 16.2 4.4 1.7 0 3.8.7 4.7 1.5.8.8 2.1 1.5 2.8 1.5s5.3 2 10.2 4.5c9 4.6 12.4 5.3 17.1 3.5 2.5-.9 2.6-1.3 2.3-7.7l-.3-6.8-7.7-3.8c-4.3-2-7.8-4.2-7.8-4.7 0-.6-.9-1-1.9-1-1.9 0-8.7-4.1-16.9-10.2l-4.4-3.2.7-6.7c.5-5.1.3-7.4-.9-9.7-2.7-5.1-7.7-8.2-15.6-9.6-4-.7-7.5-1.8-8-2.6-1.4-2.2-1.2-5.7.4-7.2.8-.8 1.6-3.7 1.9-6.4.2-2.7 1.9-8.6 3.6-13.2 1.9-5.1 3.1-10.4 3.2-13.5.1-2.9.5-7.6 1.1-10.4.8-4.6 1.3-5.4 3.6-5.9 5.1-1.3 10-4.3 10.5-6.7.6-2.2-.5-26.1-1.9-42.4-.4-4.3-1.2-9.2-1.9-11-1.1-2.6-1.1-3.5.1-5.1 1.3-1.9 3.3-10.9 5-22.9.4-2.5.1-6.2-.6-8.9-1.5-5.4-.8-6.6 5.5-8.6 3.3-1.1 5.6-1.1 13-.1 5 .7 11.6 1 14.8.7l5.7-.7v-6.9c0-6.4-.2-6.9-2.6-7.8-1.4-.6-5.2-1-8.4-1-3.3 0-9.3-.5-13.4-1.1l-7.5-1.1L491 92c6.1-12 11-22.3 11-22.8 0-.6-.8-.8-1.7-.5-1.1.3-5.8 8.6-12.3 22-5.8 11.8-11 21.9-11.7 22.5-.7.5-3.4.7-6.6.3l-5.4-.7 1-4.1c.6-2.2 1.8-4.8 2.8-5.8 3.1-3.1 3.4-8.2.8-13.5l-2.2-4.7 2.1-4.1c1.2-2.3 2.2-4.7 2.2-5.4 0-1.5-3.2-1.6-4.7-.1-1.3 1.3-5.1-.2-13.8-5.4-5.5-3.2-6-3.8-7-8.3-.7-3.5-1.5-5-2.9-5.2-1.5-.3-1.7 0-1.1 1.4m-3.5 63.5c0 .6-.4.7-1 .4-.5-.3-1-1.1-1-1.6 0-.6.5-.7 1-.4.6.3 1 1.1 1 1.6m2.5 116.2c4 1.5 4.5 2.3 4.5 8.7 0 6.6-2.6 25.3-4.2 29.5-.6 1.6-1.2 5.1-1.3 7.7-.1 2.5-1 5.7-1.9 6.9-.9 1.3-1.6 3.1-1.6 4 0 1.2-1.2 1.9-3.7 2.3-2.1.4-8.1 1.9-13.2 3.3-6.5 1.8-9.6 2.3-9.9 1.5-.2-.6-1.4-2.7-2.8-4.7-3.4-5.1-3.8-7.7-1.6-10.5 1-1.4 2.1-4.3 2.4-6.6.7-5 9-22.7 16.5-35.2l5.6-9.3 4.1.6c2.3.3 5.5 1.1 7.1 1.8m47.3 103.5c.2.7-.3 1.2-1.2 1.2s-1.6-.7-1.6-1.6c0-1.7 2.2-1.4 2.8.4m4.7 2.2c.3.5-.1 1-.9 1-.9 0-1.6-.5-1.6-1 0-.6.4-1 .9-1 .6 0 1.3.4 1.6 1m-203-280.3c-.4 1.3-1.2 2-2.1 1.6-1-.4-1.2 0-.8 1.1.3.9.1 2.3-.5 3-.9 1.1-.9 1.5.1 1.8 1.3.5.1 2.2-5.9 9.2-2.3 2.5-3.6 3.3-5.5 2.9-1.5-.3-2.9.2-3.7 1.1-1.1 1.3-.9 2.1.9 5.1 2 3.2 2.1 3.9.9 9.2-.7 3.1-2.1 6.5-3.1 7.5s-1.5 1.8-1.1 1.8-.2.7-1.3 1.5c-1.7 1.3-1.7 1.4-.1 1.5 2 0 2.2 2 .5 3.9-1.1 1.1-1 1.3.4.8 1-.4 1.7-.3 1.7.1-.5 3.2.2 5.1 1.7 4.5 1.2-.4 1.5-.2 1.2.8-.2.7-2.1 1.7-4.1 2.2-5.6 1.4-5.6 3.6.2 12.3 6 8.9 6.5 12.4 2.5 19.2-2.4 4.1-2.5 4.6-1 5.7 2 1.5 2 4.7 0 8.7-.9 1.7-2.4 8.1-3.4 14.2s-3.2 16.6-4.9 23.3c-3.6 14.3-3.4 18.7 1.1 23.9 2 2.2 4.1 3.4 6.8 3.9 2.2.4 3.7 1.1 3.4 1.6-.3.6-1 3.5-1.5 6.5s-1.3 7.9-1.8 11c-2 11.9-3.2 15.5-5.7 16.6-4 1.8-2.9 4.7 4.6 11.9 3.9 3.8 7 7.3 7 7.8 0 .6-1.3 1.7-3 2.6-3.6 1.9-3.9 4.2-.6 5.1 1.3.3 3.8 2.3 5.5 4.5 1.8 2.1 4.1 3.9 5.1 3.9s2.3.6 2.7 1.3c2.1 3.6 13.9 4.8 21.3 2.2 5.4-1.9 10.8-1.9 15.2-.1 3.4 1.5 7.8 1.2 7.8-.5 0-.4-1.3-1.6-3-2.6-1.6-.9-3-2.2-3-2.8s1.6-2.6 3.5-4.5 3.5-4 3.5-4.6c0-1.4-3.3-2.4-8-2.4-1.9 0-6.8-.7-10.7-1.7-5.7-1.3-7.3-2.1-7.3-3.4s1.5-2.3 5.2-3.4c8.1-2.4 12.8-5.9 12.8-9.5 0-5.4-6.2-9-15.7-9-4.9 0-6.3-2.3-4.3-7 .8-2 .9-3.4.1-4.8-.8-1.5-.7-3.6.5-8.2.9-3.6 1.3-7.7.9-9.6-.5-3.2-.3-3.5 3.2-5.1 2.1-1 4-2.1 4.3-2.4.3-.4 1.4-.9 2.5-1.3s3.4-1.8 5-3.3c4.6-4.1 4.1-8.6-3-23-3.2-6.5-6.9-14.3-8.2-17.3-5.6-12.6-6.6-14.6-8.6-17.4l-2-2.8 3.3-6.9c3-6 3.8-7 6.7-7.5 1.8-.3 3.7-1.2 4.4-2 1.8-2.1 4.1-1.7 7.9 1.6 4.1 3.4 6.1 3.7 8.3 1.2 2.1-2.3 2.1-4.1.2-6.6-2.2-2.9-1.8-4.5.5-1.8 1 1.2 2.4 4.7 3 7.7 1.4 7 2.9 7 9.1.6 4.4-4.6 6.8-9.8 5.5-12-.4-.5-3-.7-5.9-.4-7.6.8-14.6-3.1-14.7-8.1 0-1.1-1.4-3.2-3.2-4.8-3-2.6-3.3-2.7-5-1.1-1.7 1.5-2.1 1.5-5.7-.5-2.1-1.2-4.7-2.2-5.7-2.2-1.1 0-3.4-1.4-5.1-3.1-3.3-3-4.6-5.3-1.8-2.9 1.3 1.1 1.5.8 1.5-2 0-2.4.9-4.1 3.5-6.6 3.6-3.4 4.3-6.1 2.5-9.5-.9-1.5-.6-2.6 1.2-5.2 1.2-1.7 2.6-3.5 3.1-3.8 1.3-.9-.8-2-2.6-1.3-.8.3-1.7-.2-2-1-.4-.9-1.2-1.6-1.9-1.6s-3.7-2.5-6.7-5.6c-4.9-5-5.3-5.8-4.2-7.6 1-1.5 1-1.8 0-1.3-.9.6-1 .1-.7-1.9.4-2 .2-2.6-.8-2.2-.7.3-1.5-.3-1.7-1.2-.4-1.4-.6-1.3-1.2.5m3.6 171.2c0 .3.4 4.2.8 8.5.5 4.4.5 9.1.1 10.6s-.4 3.4.1 4.3c1.3 2.2-.8 6.4-3.5 7.1-3.2.9-10.4.7-11-.2-.9-1.5-.7-8.6.3-13.4 1.3-5.8 6.5-16.4 8.8-17.6 1.7-1 4.3-.6 4.4.7M120.6 76.5c-.3.8-1.2 1.5-2.1 1.5-1.7 0-2 1.6-.6 2.5.6.3.9 2.2.7 4.1-.3 2.9-1.6 4.8-6.5 9.5-4.9 4.8-6.6 5.8-8.4 5.4-1.8-.5-2.8 0-4 1.8-1.4 2.2-1.4 2.7-.2 3.7 2.4 2 5.5 7.9 4.4 8.5-.5.4-.9 2.4-.9 4.5 0 3.5.5 4.3 4 6.6 2.2 1.4 4.2 3.6 4.6 4.8.3 1.1 2 3.8 3.6 5.9 1.7 2.1 2.8 3.9 2.7 4-.2.2-2.1 1-4.1 2-4.7 2.1-6.5 6.2-6.3 13.9.2 3.5-.2 6.2-1 6.8-.6.5-4.3 1.7-8.1 2.6s-7.6 2.1-8.4 2.5c-3.9 2.3-7.1 3.3-14.8 4.5-8.3 1.3-8.4 1.2-14.7-1.6-4.6-2.1-6.8-3.7-8-5.9-1.4-2.8-2.1-3.1-6-3.1-5.4 0-38.5 6.7-40.2 8.2-1.7 1.4-1.6 4.3.2 7.9 1.6 3 4.1 4.3 49 25.9 6.6 3.2 20 9.6 29.8 14.4 18.1 8.7 20.5 9.4 26.6 7.6 1.9-.5 3.7-.7 4-.5.7.8-2.9 11.6-5.1 15.3-1.7 2.8-1.8 3.7-.9 5.5s.9 3.1-.4 6.6c-.8 2.4-1.5 6.3-1.5 8.6 0 5.3 2.6 7.8 14.4 13.7 4.4 2.2 9.9 5.9 12.2 8.1l4.2 4.1-3.1 3c-1.6 1.7-4 3.8-5.3 4.6-3.1 2.1-7.6 8.9-7 10.6.7 1.8-1.9 4.3-5.2 4.9-4.2.9-22.4 6.8-25.2 8.2-1.4.7-4.8 1.8-7.7 2.4l-5.1 1.2-12.1-8.7c-6.6-4.7-12.8-8.6-13.7-8.6-2.1 0-36.1 12.7-39.2 14.7-2 1.2-2.1 1.7-1 3 1.1 1.4 36.3 30.8 65.1 54.5l8.2 6.7 27.5.1h27.6l5.4-3.3c3.2-1.8 5.5-3.9 5.5-4.9s-5-5.1-12.5-10.4c-12-8.4-13.7-9.8-14-11.8-.1-.9 9-3.7 18.5-5.7 7-1.5 8-2.7 8-10.6v-6.6l8.1-.2c6.7-.1 9-.6 13.7-2.9 6.2-3.2 9.1-5.9 10.2-9.4 1.2-4.1-7.4-10.7-20.5-15.8-4.3-1.6-6-2.9-7.7-6-1.3-2.2-2-4.8-1.7-6 .8-3-2-8.9-4.9-10.9-1.4-.9-3.6-3.3-5-5.3-2.9-4.3-6.7-8.4-9.8-10.6l-2.2-1.5 4.3-5.3c5.8-7 6.8-7.8 10.6-7.8 1.8 0 4.5-.5 6.1-1.1 1.5-.6 5.5-1.8 8.7-2.5 3.3-.8 7.4-2.3 9.1-3.4 1.8-1.1 3.9-2 4.7-2 1.6 0 6.8-5.1 6.8-6.7 0-.6-3.1-4.2-6.8-8-7.6-7.7-11.3-12.6-16.6-22.8-2-3.9-5.5-8.7-7.8-10.8-3.6-3.3-4-4.1-3.5-7.2.3-2-.2-6.2-1.2-10-1-3.5-1.6-6.7-1.3-7s.9-3 1.3-6.1c.7-5.2.5-6.1-2.2-10.9-1.6-2.9-3.8-6-4.9-7-1.5-1.4-1.7-2.1-.9-3.2.6-.7 1.6-1.3 2.1-1.3 2 0 4.1-3.3 4.5-7.4.5-4.5-1.6-13-4.4-17.4-1.2-2-1.2-2.7.8-6.2 2.2-3.9 2.2-4 .3-5.5-1-.8-3-1.8-4.4-2.1-3.9-1-8-5.4-8-8.5 0-2.3-3.5-8-6.2-9.9-.3-.3-1-1.8-1.3-3.3-.8-3-2-3.5-2.9-1.2m-6.1 100.8c1.6 2.8 3.1 5.4 3.3 5.8.3.7-9.3 4.9-11.3 4.9-1.8 0-19.6-6.9-20.8-8-.5-.4 1.5-1.2 4.5-1.8 2.9-.6 8.5-2.2 12.3-3.5 3.9-1.4 7.5-2.6 8-2.6.6-.1 2.3 2.3 4 5.2m-7.9 142.6c.5.5 2.5 1.3 4.4 1.8 2.5.7 4 1.9 5.4 4.4l1.9 3.5-5.3 5.3c-2.9 2.9-5.8 5-6.6 4.7-1.8-.7-15.7-10.8-16.6-12.1-2.4-3.4 13.6-10.6 16.8-7.6m231.2-11.2-3.7.4 2.1 3.5c1.6 2.8 2.6 3.4 5.3 3.4 1.8 0 4.4-.9 5.9-2.1 2.1-1.7 2.4-2.4 1.6-4-1.1-1.9-2.5-2.1-11.2-1.2"/></svg>