<svg xmlns="http://www.w3.org/2000/svg" width="682.667" height="512" version="1.0" viewBox="0 0 512 384"><path d="M438.4 58.4c.3 1.3.9 3.1 1.2 4s.1 1.6-.5 1.6-.8.6-.5 1.3c.3.8-1.1 3.7-3 6.5-1.9 2.9-4 6.8-4.7 8.7-.9 2.4-2.1 3.6-3.9 4-1.4.3-3.1 1.4-3.8 2.5-1 1.7-.9 2.1 1.1 3.1 3.9 2 5.5 4.9 5 8.9-.3 2.1.4 7.2 1.6 11.8 2.6 9.9 2.5 9.5.1 8.2-1.7-.9-2.2-.7-2.9 1.2-1 2.9-.6 16.9.7 22.8 1.1 4.9 4.5 8.4 7.3 7.5 2.5-.8 3.5 3.5 1.9 7.5-1.1 2.6-1 3.3.4 4.9 2.1 2.4 1.1 4.9-3.3 8-1.9 1.4-5.2 6.6-9.6 15.4-3.7 7.2-8.9 16.4-11.6 20.2-2.7 3.9-5.4 8.5-6 10.3-1 2.9-.8 3.7 1.7 7.4 1.6 2.2 4.3 4.7 6.1 5.6s3.3 2.3 3.3 3.2c0 4.7-3 12.1-6.7 16.6-2.7 3.2-4.9 7.3-6.3 11.9-1.2 3.8-3.4 8.7-4.7 10.7-1.4 2.1-2.3 4.4-1.9 5.3.3.8-.3 3-1.4 4.7-2.1 3.8-2.7 8.5-1.6 14.5.9 5.2 5.6 9.7 11.2 10.8 2.2.4 4.1 1 4.4 1.4.9 1.4 9.6 6.1 11.2 6.1 3 0 6.6 14.7 4.8 19.4s-1.1 6.8 3.8 12c2.7 2.8 5.2 5.8 5.8 6.6.5.8 1.8 2 2.9 2.7 6.7 4.1 13.1 7.3 17.2 8.7 4.2 1.4 4.9 1.4 7 .1 4.2-2.8 2.9-4.1-7.3-7.3-6.3-2-7.8-3-13.7-9.1-3.7-3.8-6.7-7.3-6.7-7.8s.7-1.8 1.5-3c1.4-1.9 2.2-2.1 6.8-1.6 2.8.3 6.1 1.1 7.2 1.8 2.7 1.6 13.8 4.5 17.5 4.5 1.6 0 3.2.4 3.5 1 .3.5 1.2 1 2 1s4.1 1.6 7.4 3.5c9.8 5.8 13.5 6.7 19.8 5.3 3.9-.9 5.3-1.7 5.3-3 0-.9.9-2.2 2-2.8 1.6-.8 1.9-1.7 1.4-3.3-.9-3.1-3.5-4.9-14.4-10.4-5.2-2.6-9.8-5.1-10.1-5.6-.4-.5-3.5-2.3-7-4.1-8.9-4.4-9.4-5.6-4.2-10.7 5.4-5.2 6-7.1 3.3-11.3-3.6-5.9-10.6-8.9-23.8-10.1-6.6-.6-7.3-.9-7.8-3.2-.5-1.7 0-3.4 1.5-5.3 1.1-1.6 2.1-4.4 2.1-6.2s1.5-6.8 3.4-11.3c2.5-5.8 3.6-10.2 4.1-16 .9-11.1 1-11.4 5.6-12.1 2.2-.4 4.2-1.1 4.5-1.5.3-.5 1.2-.9 2-.9 2.7 0 9.2-5.4 9.8-8 .3-1.5-.9-6.2-2.9-11.5S473.3 201 472 193c-1.3-7.4-2.9-15-3.6-16.8-1.2-2.9-1.1-3.7.6-7 1.1-2 2-4.8 2-6.2s.7-5 1.5-8c1.9-7.1 1.9-13.3-.1-17.1-3.2-6.4 3.5-8.7 18.2-6.4 9.5 1.6 9.9 1.6 15.6-.6l5.8-2.1v-14.3l-4.9-1.2c-2.9-.7-8.6-.9-14.2-.6-5.2.3-10.9.1-12.6-.3l-3.3-.9 7.5-13.5c7-12.7 8.7-17 6.6-17-.8 0-15.6 24.9-17.3 29.2-.6 1.4-1.9 1.8-5.9 1.8h-5.1l.7-4.3c.4-2.3 1.3-4.5 2-4.9s1.8-2.8 2.5-5.2c1.1-4.1 1-4.9-1-9.2l-2.3-4.6 2.2-5.1c2.2-5.4 1.6-8.2-1.4-5.7-2.1 1.8-6.6.7-15.3-3.8-5.1-2.6-7.4-4.4-7.7-6-.3-1.2-.7-3.3-1-4.7s-1.2-2.5-2.1-2.5c-1.2 0-1.5.6-1 2.4m1.6 61.7c0 1.1-4.7 1.2-5.4 0-.3-.4.6-.6 2.1-.3 1.9.4 2.4.2 1.8-.8q-.75-1.35.3-.6c.7.4 1.2 1.1 1.2 1.7m3.6 117c3.4 1.2 3.8 7.4 1.3 19.3-1.2 5.5-2.8 12.1-3.6 14.6s-1.6 6.1-1.8 8c-.4 5.7-4.2 13-6.8 13-2.3.1-16.1 3.3-18.7 4.4-1.2.5-2.4-1-4.9-5.9l-3.4-6.6 2.7-2.7c1.4-1.6 2.6-3.7 2.6-4.9 0-2.1 6.1-12 14.2-22.9 2.4-3.4 5.5-8.9 6.8-12.3l2.3-6.1 3.6.6c2 .4 4.5 1 5.7 1.5m43.4 96.6c3.6 2.4 3.6 2.3 2.1 3.3-1.6.9-5.5-.3-7.7-2.4-1.1-1.1-1.1-1.6-.1-1.9 2.1-.9 3.2-.7 5.7 1M295.6 61.2c-.5 1.9-.8 2.1-1.6.8-.9-1.4-1.4-.7-1.1 1.3.1.4-.3 1.6-.9 2.7-.7 1.3-.6 2 .2 2.2.6.2-1.1 2.5-3.8 5.1-3.7 3.5-5.7 4.7-8.1 4.7-6.6 0-7.8 2-4.2 6.9l2.1 2.8-2.2 6.9c-1.1 3.8-3.3 8.2-4.8 9.8-2.6 2.7-2.6 2.8-.4 2.2 2.3-.8 2.9.3 1.1 2.1-.8.8-.6 2 .6 4.3 2.1 4 1.4 5.7-2.7 6.8-2.6.6-3.4 1.4-3.6 3.5-.2 1.5.1 2.7.6 2.7 1.5 0 7.2 12.7 7.2 16 0 1.7-.9 4.8-2 7-2.1 4.2-2.6 7-1.1 7 1.7 0 1.7 4.4-.1 7.5-.9 1.6-2.6 7.7-3.9 13.5-1.2 5.8-3.9 15.6-6 21.8-2.8 8-3.9 13-3.9 17 0 5.2.4 6.2 3.4 9.5 2 2.2 4.3 3.7 5.7 3.7 4.2 0 4.7 1 3.7 7.5-.5 3.3-1 7.1-1.2 8.5-.4 2.9-2.5 13.7-3.2 16.2-.3 1-1.7 2.3-3.2 3-5.3 2.6-3.4 7 5.3 12.5 2.2 1.4 5.3 4.2 6.8 6.3l2.7 3.8-2.5 1.6c-4.1 2.7-2.8 5.6 2.6 5.6 1.1 0 2.9 1.6 4.4 4.1 1.5 2.3 3.9 4.5 5.6 5.1 1.6.5 2.9 1.4 2.9 1.8 0 3.1 18.7 2.8 24.3-.3 3.7-2.1 3.9-2.1 7.1-.3 2.8 1.5 3.7 1.5 6 .5 2.6-1.2 3-1.1 5.5 1.9 2 2.5 3.4 3.2 6.1 3.2 4 0 8-2.3 8-4.6s-5.8-4.3-9.4-3.3c-1.7.5-4.3.9-5.7.9-2.7 0-9-3.7-9.6-5.6-.2-.7 1-2.6 2.8-4.3 1.8-1.9 2.8-3.6 2.3-4.1s-3.6-1.3-6.9-1.9c-17-2.8-19.1-5.6-8.5-10.8 8-3.9 9.4-5.8 7.9-10.2-1.3-3.7-6-6.1-12.1-6.1-3.1 0-4-.4-4.7-2.2-.5-1.3-.6-2.8-.2-3.3.3-.6.7-3.5.8-6.5.8-23 .8-22.4 3.6-23.4 1.5-.6 2.7-1.3 2.7-1.8 0-.4.8-.8 1.8-.8 2.5-.1 7.9-5.1 8.7-8 .4-1.7-.2-4.1-2.1-7.5-1.4-2.8-3.7-7-5-9.5s-4.2-10.6-6.5-18c-2.2-7.4-5.2-15.4-6.6-17.8l-2.4-4.3 2.5-4.3c1.7-2.9 3.7-4.8 5.8-5.5 1.7-.6 4-1.9 5-2.8 1.8-1.6 2.1-1.5 5.5 2.1 4.2 4.3 8 4.6 9.9.8l1.1-2.3.7 2.3c.3 1.3.6 3.8.6 5.5 0 3.8.1 3.8 3.8 1.9 3-1.6 12.2-10.9 12.2-12.4 0-1.1-3.4-2.2-6.8-2.2-3.3 0-9.9-3.6-11.8-6.5-.9-1.5-1.3-3.2-.9-4.5.6-1.9.4-2.1-1.4-1.5-1.6.5-2 .3-1.5-.8.3-.8-.2-2.4-1.2-3.5-1.4-1.6-2.1-1.8-3.5-.9s-2.2.7-3.8-.7c-1.1-1-1.9-2.3-1.8-2.9.1-.5-2-1.8-4.6-2.8-6.5-2.4-8.2-3.8-6.3-5.3.7-.6 1.7-2.4 2-3.9.4-1.5 1-2.6 1.5-2.3.4.3 2.1-.8 3.6-2.4 2.3-2.4 2.7-3.5 2.2-6.3-.5-3.5.8-6.7 4.2-9.6 1.2-1 1.3-1.5.4-1.8-.7-.2-1.5-.4-1.9-.3-.3.1-1.2-.7-1.9-1.7s-1.8-1.8-2.3-1.8-3.2-2.7-6-6.1c-4.8-5.7-5-6.2-3.4-7.7 1.5-1.6 1.5-1.7-.1-1.7s-1.6-.2-.1-2.5c1.9-2.9 1.3-3.3-1.2-.8-1.6 1.6-1.6 1.6-1-.5.4-1.2.3-2.2-.2-2.2s-1.2 1-1.6 2.2m-1.9 170.5c.9 3.8 1 25.9.1 26.9-.4.4-4.1.9-8.1 1.2l-7.4.4-.7-4.2c-1-6.2.2-12.6 3.7-19.5 3.4-6.9 4-7.5 8.4-7.5 2.7 0 3.4.5 4 2.7M120.5 74c-.5 1.5-1.2 1.9-2.7 1.4-1.7-.5-1.8-.3-.9 1.4 2.4 4.5.9 8.2-5.8 14.6-5.5 5.4-6.7 6.1-9.7 5.8-3.1-.3-3.4-.1-3.4 2.2 0 1.4.4 2.6.8 2.6s1.5 1.3 2.5 2.9c1.3 2.3 1.6 4.2 1.1 8.4-.6 5.3-.6 5.5 2.9 8.1 2 1.6 4.1 4.5 5.2 7.1.9 2.5 2 4.3 2.5 4 .4-.3 1.5.6 2.4 2 1.6 2.4 1.6 2.6-.1 3.1-4.5 1.4-6.7 3.1-7.9 5.9-1.2 3-1.2 10.3 0 12.3.8 1.4-3.6 3.8-10.6 5.6-2.9.8-7.5 2.6-10.2 4s-6.6 2.7-8.5 2.7c-2 .1-4.9.4-6.6.8-1.6.4-3.7.3-4.5-.1s-4.1-1.9-7.2-3.2c-3.2-1.4-5.8-3.1-5.8-3.9 0-2.2-3.4-4.7-6.5-4.7-3.7 0-37.5 6.9-39.7 8.1-2.1 1.1-2.3 4.7-.6 8.4.9 2.1 6.3 5.2 26.2 14.9 13.8 6.8 35.3 17.3 47.7 23.5 23.2 11.4 25.7 12.2 32.8 10.1l3.3-.9-.7 3.7c-.3 2-1.8 6-3.2 8.9-1.4 2.8-2.2 5.6-1.9 6.2.4.6-.2 3.8-1.4 7.2-4 12.3-2.9 14.3 11.5 20.9 6.4 2.9 9.9 5.2 12.3 8l3.3 4-3.4 3.2c-1.8 1.8-4.3 4.1-5.5 5-1.4 1.1-2.2 2.9-2.2 4.7 0 1.6-.6 3.1-1.5 3.5-.9.3-1.5 1.8-1.5 3.4 0 2.4-.6 3.2-3.2 4.2-1.8.7-4.6 1.9-6.3 2.6-1.6.7-6.4 2.4-10.5 3.8-4.1 1.3-9.3 3.1-11.5 3.9-9.4 3.4-9 3.5-22-5.8-10.8-7.7-12.4-8.5-15.5-8.1-3 .5-35.3 12.4-38 14.1-2.2 1.4-.4 3.5 12.3 14.1 17.4 14.6 40.4 33.7 54.1 45.1l11.1 9.2 21.4.1h21.4l7.6-4.1c13.1-7.1 13.6-8.3 5.8-13.4-12.3-8.2-20.2-14.1-20.2-15.3 0-1.3 13.5-6.4 19.9-7.6 5.2-1 5.6-2.1 3.9-10.5-1-5-1.2-7.6-.5-8.3.6-.6 4.1-1.4 7.9-1.7 10.7-1 21.9-8.5 20-13.4-.8-2.1-7-6.6-14-10.2-4.5-2.3-6.8-4.2-8.4-7-1.2-2.2-2-4.2-1.7-4.7.2-.4-.4-3.1-1.4-6.1-1.3-4.1-3.4-7-8.7-12.3-3.9-3.9-8.2-7.8-9.7-8.8l-2.7-1.8 4.6-5.8c4.4-5.4 5.1-5.9 10.8-7.1 3.3-.7 6.7-1.4 7.5-1.5 3.8-.4 10-2.6 12.1-4.2 1.3-1 3.6-2.3 5.1-2.9 1.5-.7 3.4-2.3 4.3-3.7 1.7-2.5 1.6-2.7-4.6-10.8-3.4-4.6-8.9-13.8-12.1-20.5-4-8.3-6.9-12.9-8.9-14.3-2.4-1.8-2.9-2.8-2.9-6.5 0-2.4-.8-7-1.9-10.3-1-3.3-1.5-6.6-1-7.3.4-.7.7-3.7.7-6.7-.1-4.7-.6-6.3-4.4-11.9-4.2-6.3-4.7-8.3-2-8.3.7 0 2.1-1.8 3.1-4 2.2-4.9 1.6-10.9-2.1-18.6l-2.6-5.5 2.7-3.4c2.3-3.2 2.7-6.4.5-5-1.1.7-8.1-3.3-10.2-5.9-1.2-1.4-1.6-3.1-1.3-5.1.5-2.5-.2-3.8-4-7.9-2.5-2.7-4.5-5.7-4.5-6.8 0-2.4-1.7-2.3-2.5.2m-8.5 94.9c0 .5 1.6 3.2 3.6 6.1 2.8 4.1 3.3 5.4 2.3 6.1-.8.5-1.8.9-2.2.9-.5 0-1.5.7-2.3 1.5-2.5 2.4-7 1.8-17.4-2.7-9.7-4-9.8-4.2-7.3-5.5 1.4-.7 3.3-1.3 4.2-1.3s4.8-1.3 8.6-2.9c7.3-3.1 10.5-3.7 10.5-2.2m-1.2 147.7c2.6.5 3.4 1.3 3.9 3.5.3 1.6 1.2 3.4 1.9 4 2.3 1.9 1.6 4.7-1.6 6.4-1.6.9-3 1.9-3 2.4 0 .4-1.1 1.3-2.3 1.8-2.1 1-3.4.4-11-5.3-4.8-3.5-8.7-6.8-8.7-7.3 0-2.4 11.1-7.3 15-6.6 1.4.3 4 .8 5.8 1.1"/></svg>