<svg xmlns="http://www.w3.org/2000/svg" width="682.667" height="512" version="1.0" viewBox="0 0 512 384"><path d="M285.6 45.1c-.4 1.5-1.9 3.2-3.3 4-2.1 1.1-2.2 1.5-.9 2.4 1.3 1 .9 1.8-2.9 5.5-2.5 2.4-5.9 4.9-7.7 5.4-1.8.6-3.8 2.2-4.5 3.6-1 2-.9 2.9.6 5.5 1.3 2.2 1.6 3.8 1 5.8-.4 1.6-.3 7.2.2 12.5 1.1 10.9 1 11.2-6.4 13.4-4.8 1.4-5.6 3.2-2.8 6.2 3.3 3.5 5.1 12 4 18.6-.5 3-1.5 6.5-2.1 7.7-.9 1.8-.8 2.9.6 5.6 1.7 3 1.7 3.6.2 8.7-1.2 4.1-1.6 9.4-1.6 21 .1 11.9-.3 16.6-1.5 20-.9 2.5-1.8 7-2.2 10.1-.5 4.8-.2 6.1 1.7 8.7 2 2.6 2.3 4.4 2.5 12.4.1 5.1-.3 10.3-.8 11.5-.7 1.5-.6 2.7.1 3.5.7.9.5 3.5-.6 8.6-1.3 6.1-1.4 8.1-.3 11.5.6 2.3 1.6 6.2 2.1 8.5.6 2.4 2.1 5.7 3.5 7.4 3 3.6 3.1 4.5.4 5.3-3.5 1.1-2.1 4.8 2.3 5.9 2.4.6 4 1.7 4.4 3 1.1 3.5 5.3 8.3 8.2 9.5 4.1 1.6 16.1 1.7 21.3.2 4-1.3 4.9-1.2 7.9.2 1.8 1 4 1.7 5 1.7 2.2 0 4 2 4 4.6 0 1.2.7 2.5 1.6 2.8 4.6 1.8 13.4-.5 13.4-3.5 0-2.5-2.9-3.8-8.2-3.7s-7.9-1.2-10.8-5.2c-2.2-3.2-2.1-7.2.4-11.3.9-1.5.7-2.1-.8-3.3-1.1-.8-3-1.4-4.2-1.4s-3.5-.7-5.1-1.4c-1.5-.8-3.6-1.7-4.6-2-2.5-.8-1.3-2.2 3.1-3.7 2-.7 5.4-2.3 7.5-3.7 3-2 3.7-3.1 3.7-5.6-.1-4-1.8-6.2-6.4-8.1-2-.8-3.7-2.3-3.8-3.3-.4-3.7-.8-14.1-.7-21.5 0-4.6-.6-9.7-1.6-12.7-1.9-5.7-1.6-6.6 2.4-7.5 1.6-.3 3.5-1.3 4.2-2.1.6-.8 1.6-1.4 2.2-1.4 1.9 0 3.6-3.5 3.7-7.4 0-6.7-3-15.8-8.5-25.6-2.9-5.2-7.1-13.1-9.3-17.6-2.2-4.4-4.7-8.6-5.6-9.3-3.5-2.9-.7-8.1 4.3-8.1 1.5 0 3.6-.7 4.7-1.5 2.7-2 2.9-1.9 5.3 2 2.2 3.7 5.5 4.7 8 2.2.7-.6 1.2-.8 1.1-.2-1 5.2 3 9.2 7.4 7.5 3.6-1.3 11.6-8.9 11.6-11 0-2.3-3.2-5-5.9-5-5.5 0-12.7-5.5-12-9.2.9-4.3-4.3-11.2-7.7-10.4-2.7.7-3.9-1.7-2.3-4.6.9-1.8.8-2.4-.7-3.5-1-.7-2.6-1.3-3.7-1.3-1.5 0-1.8-.5-1.3-2.3.3-1.2.6-3 .6-4s.4-1.6.9-1.2c.5.3 1-1.4 1.1-3.7 0-2.4.1-5.9.2-7.8s-.1-4.2-.5-5.1c-.5-1 .1-2.5 1.8-4.3 2.3-2.5 2.5-3.2 1.5-5.7-.8-1.7-1.7-2.6-2.6-2.2-.8.3-1.4 0-1.4-.6s-.6-.8-1.2-.6c-.7.3-3.5-2-6.1-5-4.3-4.9-4.6-5.6-3.5-7.5 1.1-1.7 1.1-2.2 0-2.9-.8-.5-1-1.5-.5-2.7.6-1.6.5-1.7-.9-.6s-1.7 1-2-1c-.4-2.3-.5-2.3-1.2.3m4.2 170.1c1.3 1.7 4.2 17.2 4.2 22.6 0 2.3.5 5 1.1 6 .9 1.4.8 2.6-.5 5-1.5 2.9-2.1 3.2-6 3.2-2.4 0-7 .3-10.4.6l-6 .7-1.2-4.4c-.6-2.4-1.5-5.9-2-7.6-.5-2.1-.4-3.5.2-3.9.5-.4.7-1.9.4-3.5-.7-3.9 2.2-17.1 4.2-18.7.9-.7 4.4-1.2 8.3-1.2 4.1 0 7 .5 7.7 1.2M441.7 44.6c-.4.4-.4 3-.1 5.8.5 4.4.3 5.7-1.7 8.7-1.3 1.9-3.7 6.3-5.3 9.7-1.6 3.3-3.2 5.9-3.6 5.7-.4-.3-2.2.2-3.9 1.1l-3.2 1.6 4 3.7c3.8 3.5 4.1 4.2 4.1 9 0 5.1 1.9 19.1 2.7 20.1.2.2.8-.1 1.2-.9.6-1 1-.9 1.5.5.6 1.5.1 1.6-3.9 1.1-2.5-.4-4.5-.3-4.6.1 0 .4-.2 2.7-.5 5.2-.5 4.5 1.9 14.4 3.7 15.6.5.3.9 2.5.9 5 0 3.4.6 5.1 2.4 6.8l2.3 2.4-2.1 3.7c-2 3.5-2 3.7-.3 4.9.9.7 1.7 1.6 1.7 1.9s-1.7 2.6-3.9 5c-2.1 2.5-5.3 8-7.1 12.4-4.6 11-8.6 18.9-13.1 25.5-5 7.3-6.8 11.8-5.9 14.3 1.4 3.6 8.4 9.3 12.8 10.5l4.2 1.1v5.5c0 5.2-.3 6-4.4 10.5-2.9 3.2-5 6.8-6 10.2-.8 2.9-2.7 6.7-4.1 8.6s-2.5 4.3-2.5 5.4c0 1-.9 3-2 4.4-1.5 2-2 4.1-2 9.2 0 12.3.4 12.9 15.6 24.2 7.2 5.2 8.3 6.4 8.7 9.7.4 2 1 5.7 1.4 8.2.6 3.2.5 5.5-.5 7.9-2.4 6.1-1.5 7 14 14.8 21.9 11 23.7 11.6 26.9 8.7 2.2-2 .9-5.4-1.9-5.4-2.1 0-14.5-4-15.2-4.9-.3-.4-3.5-2.1-7.2-3.9-7.1-3.3-8-4.8-4.9-7.6 1.7-1.5 2.7-1.6 7.3-.7 7.1 1.3 19.6 3.3 23.3 3.7 1.7.1 7.5 2.6 13 5.5 10.4 5.4 13.4 6 22.3 4.4 3.2-.6 4-1.1 3.2-2-.7-.9-.6-1.6.5-2.5 2-1.7 1.9-5.3-.3-7.3-1.8-1.7-21.1-11.7-22.5-11.7-.5 0-2-.9-3.4-2s-3.1-2-3.8-2c-2 0-11.4-6.4-11.4-7.7-.1-.7.8-2.7 1.9-4.5s2-4.6 2-6.1c0-6.3-8.9-13.3-18.1-14.4-7.9-.8-10.2-5.1-5.8-10.7 1.5-1.9 2-3.6 1.6-5.9-.2-1.8.2-4.5 1-6.1 3.2-6.2 5.5-14.5 6.6-23.5l1.2-9.3 5.8-3.2c3.2-1.8 6.7-4.2 7.9-5.3 2-2.1 2-2.2.4-9.5-.9-4-2.3-14.7-3-23.8-.9-10.4-2.1-18.2-3.2-20.9-1.1-2.8-1.3-4.5-.7-4.9 1.6-1 8.3-18.1 8.9-22.7.4-2.6 0-5.4-1-7.9-.9-2.1-1.3-4.2-1-4.7 1.1-1.9 7.8-.8 16.7 2.7 7.8 3 10 3.5 14.4 3 8.4-1 8.3-.8 8.3-9.6v-7.8l-4-1.6c-2.2-.9-5.5-1.6-7.3-1.6-1.7 0-6-.7-9.5-1.5s-6.8-1.3-7.3-.9c-2.7 1.6.1-1.9 8.6-11.1 5.8-6.2 9.5-11.1 9.5-12.4 0-1.2-.4-2.1-.8-2.1s-5.4 5.1-11.1 11.4-10.9 11.7-11.6 12c-.7.2-1.7 0-2.3-.6s-3.6-1.2-6.6-1.2c-5.6-.1-8-1.1-5.7-2.5.7-.5 1.5-2.7 1.8-5s.8-3.9 1.1-3.6c.7.7 3.3-4.4 4.3-8.5.6-2.7.4-4.2-1.1-6.7-1.6-2.7-1.7-3.8-.8-7 .5-2.1 1.4-4.2 1.9-4.8.5-.5.9-1.6.9-2.4 0-1.3-.2-1.3-1.6.1-1.3 1.2-2.3 1.4-4.1.7-1.4-.5-2.8-.7-3.3-.4s-2.6-.6-4.7-2.1c-2.1-1.4-5.9-3.6-8.4-4.9-4.2-2.2-4.7-2.8-5.2-6.6-.6-4.3-1.8-6.5-3-5.3m3.9 185.9c.4 2.3-.1 6.5-1.4 11.8-1.1 4.5-2.3 10.7-2.7 13.7s-1.4 6.8-2.2 8.4c-.8 1.5-1.2 3.8-.9 5 .3 1.3-.6 4.6-2.3 8.3l-2.9 6-5.3.7c-9.8 1.4-9.1 1.8-11.7-5.8l-2.3-6.9 2.5-2.6c1.4-1.5 2.6-3.3 2.6-4 0-2.2 2.7-6.4 9.8-15.5 5.9-7.5 7.3-10 8.7-15.8 1.6-6.4 1.9-6.8 4.6-6.8 2.4 0 2.9.5 3.5 3.5M488 327c0 .5-.7 1-1.5 1s-1.5-.5-1.5-1c0-.6.7-1 1.5-1s1.5.4 1.5 1"/><path d="M281 45.9c0 .5.5 1.3 1 1.6.6.3 1 .2 1-.4 0-.5-.4-1.3-1-1.6-.5-.3-1-.2-1 .4M117.6 58.5c-.3.8-1.2 1.2-2.1.9-1.7-.7-2.2 2.1-.5 3.1 2.4 1.5-.4 7.2-6.4 13.1-5.3 5.1-6.7 6-9.3 5.7-4.6-.6-5.1 3-1.2 7.5 2.3 2.5 2.9 4 2.4 5.6-2.1 6.3-1.8 8.2 1.8 11.3 1.9 1.7 4.4 5.1 5.5 7.7 1.2 2.5 2.6 4.6 3.1 4.6 2.1 0 1.1 2-1.7 3.4-4.5 2.3-5.4 5.1-4.3 13 .7 4.5.7 7.6 0 8.8-1 1.9-5.4 4.1-13.1 6.4-2.7.8-4.8 1.8-4.8 2.2 0 1.3-5.5 3.1-11.8 3.8-3.4.4-7.3 1.4-8.5 2.4-2.1 1.6-2.5 1.6-7.4-.6-2.9-1.3-5.3-3-5.3-3.8 0-2.7-5.1-5.7-8.4-5.1-12.9 2.5-36.4 7.9-37.8 8.7-2.1 1-2.3 3.2-.7 7.6.9 2.7 3.9 4.5 27.7 16.7 14.7 7.6 36.8 19 49.1 25.3 21.7 11.2 22.5 11.5 26.3 10.5l3.8-1v3.1c-.1 1.7-.9 5.6-2 8.6-2.5 7.1-2.5 13-.1 16.1 1 1.3 5 4.6 8.7 7.4 3.8 2.7 8.7 7.1 10.8 9.9 3.6 4.6 3.8 5.1 2.1 6-1 .6-3.1 2.3-4.7 3.9-1.6 1.5-3.3 2.7-3.8 2.7-1.9 0-4.2 4.8-3.2 6.6.8 1.4.4 2.2-1.4 3.7-1.3 1-2.4 2.7-2.4 3.7 0 1.1-1.6 2.8-3.7 4.1-2.1 1.2-5.2 3.5-7 5-1.7 1.5-4.9 3.2-7 3.9s-4.3 1.7-4.9 2.1c-1.5 1.2-10.4 3.9-12.8 3.9-1 0-6.7-3.6-12.7-8-11.9-8.8-13.6-9.3-21-6.1-2.4 1-10 4-16.9 6.6-6.9 2.7-13.3 5.6-14.3 6.5-1.8 1.6-.4 2.9 27 26 15.8 13.4 32.8 27.8 37.7 31.9 4.9 4.2 12 10.2 15.8 13.3l6.8 5.8h8.7c8.8 0 8.8 0 19.3-5.8 5.8-3.1 12.2-6.6 14.3-7.7 5.9-3.1 9.1-6 8.5-7.7-.3-.8-7.2-6.1-15.2-11.8-8-5.6-14.6-10.9-14.6-11.6 0-.8 1.2-1.6 2.8-2 4.9-1 8.6-2.7 13.8-6 6.5-4.2 7.7-5.7 8.3-10.7l.6-4.2 5.5-.5c8.6-.9 20-7.3 20-11.3 0-2.8-5.4-9.4-10.3-12.8-5.8-3.9-9.9-10.2-9.1-13.6.4-1.6-.2-2.9-2-4.6-1.4-1.3-4.2-5.6-6.1-9.5-2-3.9-5.9-9.4-8.7-12.3l-5.1-5.2 4.5-9.1 4.6-9.1 5.2-.3c2.9-.1 6.5-.9 8.1-1.7 1.5-.8 3.6-1.5 4.6-1.5 2.6 0 11.3-6.2 11.3-8.1 0-.9-4.3-8.7-9.6-17.5-5.3-8.7-10.5-17.6-11.5-19.7-1.1-2.1-3.7-5.5-5.9-7.6-3.4-3.3-3.9-4.4-3.9-8.2 0-2.4 0-8.2-.1-12.8-.1-4.9.3-8.8.9-9.4s1.1-1.8 1.1-2.7c0-1.8-9.8-15-11.1-15-.5 0-.9-.6-.9-1.3 0-.8 1.7-1.8 3.8-2.3 3.2-.8 3.9-1.5 5.2-5.2 1.3-3.8 1.3-4.9-.2-10-.8-3.1-2.2-7.1-2.9-8.9-1.2-3-1.1-3.5 1-6.3 2.1-2.9 2.3-6.8.2-5.6-1.2.8-6.3-1.9-9-4.8-1.8-1.9-2.1-3.1-1.6-5.5.5-2.6.1-3.5-3.6-7.3-2.3-2.3-4.5-5.3-5-6.5-1-2.6-2.4-3-3.3-.8m-5.1 99.2c3.5 5.3 3.3 6.9-1.2 7.8-2.1.4-4.6 1.4-5.6 2.2-1.2 1.2-4 1.7-10 1.8-12.3.2-15.9-2.1-8.6-5.6 6.5-3.2 21.4-9.8 22.1-9.8.4-.1 1.9 1.6 3.3 3.6M81 163c0 .4-.6 1.3-1.4 1.9-1 .8-2.1.7-4.7-.6-4.4-2.1-4.6-2.3-3-3.2 1.4-.9 9.1.7 9.1 1.9m26.5 14c.3.5.1 1-.4 1-.6 0-1.1-.5-1.1-1 0-.6.2-1 .4-1 .3 0 .8.4 1.1 1m8.8 2c.9 0 1.7.7 1.7 1.5 0 1.8-.7 1.8-4.9.4-3.5-1.2-4.3-3.5-.8-2.5 1.2.3 3 .6 4 .6m27.2 99.1c-.8 1.2-3.5 1.2-3.5 0 0-1.1 2.2-2 3.3-1.4.4.2.5.9.2 1.4m-29.4 28.8c.3 2.5 1.1 4.7 1.7 4.9 2.1.7 1.3 5.1-1 6.3-1.3.6-3.3 2.4-4.6 4s-2.8 2.9-3.4 2.9c-1.9 0-15.7-10.5-15.7-12.1-.1-1.5 4.9-5.9 6.8-5.9.5 0 3.3-1.1 6.3-2.5 7.4-3.5 9.2-3.1 9.9 2.4"/></svg>