<svg xmlns="http://www.w3.org/2000/svg" width="682.667" height="512" version="1.0" viewBox="0 0 512 384"><path d="M280 41.2c0 2.1-1.1 2.3-2.8.6-.9-.9-1.2-.9-1.2-.1 0 .7.5 1.5 1.1 1.9.8.5.6 1-.5 1.6-1.6.9-1.6 1.1-.1 2.2 1.4 1 .8 1.9-4.9 7.4-3.5 3.4-7.8 6.8-9.5 7.5l-3 1.3 2.5 3.2c2.1 2.6 2.6 4.5 2.8 10.9.2 4.3.7 10.1 1.1 12.9l.7 5-6.1 2.8c-3.3 1.5-6.1 3.1-6.1 3.7 0 .5.9 1.8 2 2.9s2 3.3 2 4.9c0 1.5.5 4.2 1.1 5.9.8 2.3.7 5.1-.6 11.6-1.4 7.6-1.4 8.9-.1 11.4s1.3 3.4-.1 7.3c-1.2 3.6-1.4 7.7-1 22.4.3 10.4.1 21.1-.5 25.3-.9 6.4-.8 7.7.8 10.7s1.6 3.9.5 8.7c-.9 3.8-1 6.9-.4 10.8.5 3 .7 9.3.5 14-1.1 18-.4 25.6 3 32.4 1.9 3.8 1.9 3.8-.1 6-1.7 1.8-1.9 2.5-.8 3.9.6.9 2.3 2 3.7 2.5s3.4 2.7 4.5 4.8c2.6 5.2 6.9 7.1 18.4 8.4 5.1.6 11.2 1.9 13.5 2.9 2.2 1 4.8 2.1 5.6 2.3 1 .3 1.5 1.8 1.5 4.4v3.9h6.2c4.7 0 6.7-.5 8-1.8 1.7-1.7 1.7-1.9-.1-3.3-1.1-.8-3.1-1.4-4.4-1.4-4.1 0-9.2-3-9.2-5.4 0-1.2-.7-3.2-1.6-4.4-1.5-2.2-1.4-2.6 1-6.2 1.4-2.2 2.6-4.2 2.6-4.5 0-1.1-6-5.9-10.1-8.2-4.5-2.5-4-3.2 4-5.8 6.1-2 10.1-5.4 10.1-8.5 0-2.7-5.2-8-7.8-8-2.5 0-4.8-7.9-3.2-11q1.05-1.8 0-4.5c-.5-1.4-1-6.4-1-11.1 0-5.3-.6-9.8-1.5-12.1-2.1-5.1-2-8.3.5-8.3 2.4 0 9.2-3.5 11.4-5.9 1.4-1.5 1.5-2.8.7-8.2-1.1-8.3-2.9-12.3-10-23.4-3.2-4.9-7.6-12.2-9.6-16-2.1-3.9-4.9-8.2-6.3-9.7l-2.4-2.7 1.8-4c1.1-2.2 2.4-4.1 3-4.1s1.7-.7 2.4-1.5c2.1-2.6 4.4-1.6 7.2 3.1 2.1 3.3 4.1 5.1 7.5 6.6l4.7 2.1 4.6-2.4c2.8-1.5 5.2-3.8 6.4-6l2-3.6-2.5-3.1c-1.7-2.1-3.6-3.2-6.5-3.6-5.7-.9-7.3-2.4-8.3-7.9-.5-2.7-1.9-5.9-3.1-7.2-1.5-1.6-2-3-1.5-4.5.7-2.2-1.1-5.4-2.6-4.5-1.5 1-5.9-.7-5.9-2.2 0-1 .6-1.2 2-.8 2 .6 2.5-.5 2.2-4.8-.1-.9.2-1.7.8-1.7.5 0 .7-1 .4-2.3-2.7-13.7-2.6-16.7 1-19.6 2.2-1.9.1-6-2.9-5.6-1.7.1-3.7-1.5-8-6.2-5.2-5.9-5.6-6.5-4-7.7s1.6-1.3.1-1.9c-1.7-.7-2.2-3.7-.6-3.7.6 0 1-.5 1-1.2 0-.6-.8-.4-1.9.6-1.8 1.7-2 1.7-3-.1-1-1.7-1-1.7-1.1-.1m7.2 169.4c1.2.4 2.3 3.5 4.1 11.7 3.1 13.7 3.9 21.8 2.5 25.8l-1 3-11.6-.3-11.7-.3-1.2-5.4c-1.3-6.2-1-21.1.7-28.8 1.1-5 1.3-5.2 4.8-5.5 6.7-.6 11.7-.7 13.4-.2M442.7 42.8c-.4.5-.2 2.4.3 4.3 1.2 4.5 1 5.5-2.9 11.4-1.7 2.7-4.2 7.1-5.4 9.7-1.2 2.7-2.7 4.8-3.4 4.8-.6 0-2.3.4-3.8 1l-2.6 1 4 3.8c3.1 3 3.9 4.3 3.4 6.1-.9 3.7 1.9 23.2 3.3 22.7.7-.3 1.5.2 1.8 1 .4 1.1-.4 1.4-3.9 1.4h-4.4l-.6 5.3c-.6 4.7-.3 6 2.3 10.8 1.6 3 3.3 7 3.6 8.9.4 1.9 1.2 4.8 1.8 6.3.9 2.4.7 3.3-1.6 6.5s-2.4 3.8-1.1 4.8c2.3 1.7 1.8 3.7-1.9 7.7-1.9 2.1-4.8 7.4-6.6 12-4.4 11.1-9.2 20.6-14.1 27.7-2.2 3.2-4.2 7.4-4.5 9.2-.5 2.9 0 3.8 3.8 7.6 2.7 2.6 6.1 4.7 8.8 5.5l4.5 1.3.3 5.6c.3 5.4.1 6-4.1 11.1-2.5 3.1-4.9 7.4-5.7 10.3-.7 2.7-2.4 6.3-3.7 8s-2.3 3.8-2.3 4.7-.9 3.1-2 4.9c-2.6 4.2-2.8 16.3-.4 21.4 1.9 4 8 10.1 10.9 11 1.1.4 4.2 2.2 6.8 4.2 4.4 3.1 4.8 3.8 4.3 6.4-.3 1.8 0 4.1.9 5.8 1.4 2.8 1.6 5 1.2 14.9l-.2 4.3 13.6 4.7c7.4 2.6 14.2 5.2 15 5.7 2.3 1.5 8.2 3.4 10.6 3.4 1.2 0 2.8-.7 3.7-1.5 1.7-1.8 1.1-4.5-1.1-4.5-.8 0-6.7-1.8-13.1-3.9-6.4-2.2-13-4.2-14.5-4.6-3.3-.7-4.5-3.1-2.5-5.1 1.3-1.3 3.1-1.3 15.4.5 7.6 1.2 15.2 2.1 16.7 2.1s3 .7 3.3 1.5c.4.8 1.3 1.5 2 1.5.8 0 5.2 1.8 9.6 4 9.2 4.5 9.2 4.5 16.5 2.8 3.9-.9 5.3-1.7 5.3-3 0-.9.4-1.9.9-2.2 1.2-.8.1-5.3-1.8-7-2.4-2.2-19.3-10.6-21.3-10.6-.9 0-2-.5-2.3-1-.3-.6-2.7-2-5.3-3.1-2.6-1.2-5.6-2.9-6.7-3.9s-3-2.1-4.2-2.5c-1.6-.4-2.3-1.4-2.3-3.1 0-1.3.4-2.4.8-2.4 1.3 0 3.2-4.7 3.2-7.6 0-3.1-4.2-8.7-8.5-11.4-1.8-1.1-5.9-2.5-9.1-3.1-3.3-.6-6.2-1.6-6.6-2.2-1.3-2.1-.9-7.4.7-8.7.9-.7 1.5-2.9 1.5-5.4 0-2.2 1.4-7.7 3.1-12 2-5.2 3.4-11.2 4.1-17.5 1-9.6 2.5-13.1 5.6-13.1 1.5 0 7.9-4.4 9.5-6.4 1.9-2.5-3-46.4-5.9-53.4-1.3-3.2-1.1-3.8 3.6-13.7 5.4-11.1 6.4-17.4 3.5-22.5-2.7-5 2.5-5.6 12.3-1.4 13.3 5.8 15.4 6.4 21.3 5.7l5.9-.6v-8.2c0-9.1-.4-9.6-8.7-11.1-2.1-.3-6.9-1.5-10.7-2.5s-7.3-1.6-7.8-1.3c-2.6 1.6 2-4.2 11.6-14.6 9.2-10.1 12.5-15 9.8-15-.4 0-6.3 6.1-13.1 13.5-12 13.3-15.3 15.6-16.8 11.9-.4-1.1-1.4-1.4-3.3-1-1.6.3-4.4.2-6.3-.1-3.5-.5-3.5-.6-2.1-2.8.9-1.3 1.6-3.7 1.6-5.4.1-1.6.6-2.9 1.1-2.8.6.1 1.3-.7 1.5-1.8s1-2.4 1.8-3c2-1.5 2-7.6.1-10.6-1.7-2.6-1.3-5.5 1.9-13.4.7-1.7.6-1.8-.8-.7-2.6 2.1-8.1.8-14.9-3.4-3.6-2.1-7.4-4.4-8.4-5-1.3-.7-2.2-2.6-2.6-5.3-.6-4.3-2.2-7-3.2-5.3m1.7 185.4c.6 3.1-2.1 21-4.5 30.3-.6 2.2-1.3 6-1.6 8.5-.2 2.5-1.3 6.3-2.4 8.6-1 2.2-1.9 4.6-1.9 5.2 0 .7-1.3 1.2-2.9 1.2s-4.7.7-7 1.5l-4.2 1.5-1.6-3.8c-2.5-5.9-2.8-11-.9-13.1.9-1 2.1-3.5 2.7-5.4.5-1.9 4.1-7.6 7.9-12.6 8.5-11.2 8.5-11.2 10-18.9 1.1-5.4 1.5-6.2 3.5-6.2 1.7 0 2.4.7 2.9 3.2M117.2 53.7c-.8 1.5-1.8 2-2.9 1.6-1.3-.5-1.5-.2-.9 1.8 1.8 5.8.8 8.1-6.2 14.6-4.1 3.7-7.1 5.8-7.6 5.2-3.2-3-6.6 2.2-3.6 5.6 3.6 4.1 4.3 6.5 3 10.5-1.5 4.5-.3 7.3 3.9 9.5 1.9.9 3.2 2.6 3.6 4.4.3 1.7 1.5 4.1 2.6 5.5 2.1 2.6 1.8 4.6-.5 4.6-.7 0-2.2 1.3-3.4 3-1.7 2.2-2 3.5-1.3 5.2 1 2.7 1.3 12.5.5 15.1-.6 1.9-5.5 4.6-11.8 6.7-2.1.7-5.4 2.3-7.2 3.5-2.3 1.6-5.6 2.5-10.4 3-5.3.5-7.6 1.2-9.1 2.8l-1.9 2.1-4.5-2.2c-2.4-1.2-5.2-3.4-6.2-4.9-3.5-5.5-3.9-5.5-26.6-.3-22.5 5.1-21 4.5-20.4 9.2.9 6.4-5.3 2.6 60.2 36.9 31.1 16.2 37.7 19.3 41.2 19.3 3.9-.1 4.1.1 4.6 3 .2 1.7-.2 4.8-.9 7-3.2 8.8-1.5 12.8 9.3 22.2 4.3 3.7 8.4 8 9.1 9.6s2.3 3.4 3.7 4c3.3 1.5 3.1 2.4-.7 4.4-1.8.9-4 2.3-4.8 3-.8.8-3 2.6-4.8 4.1-2.5 1.9-3.3 3.2-2.9 4.9.2 1.5-.3 3-1.4 4s-1.9 2.5-1.9 3.6c0 1-.4 1.8-.9 1.8-.6 0-3.3 2.2-6.2 4.9-3 2.9-6.8 5.4-9.3 6.1-2.2.7-4.6 1.6-5.3 2.2-.6.5-3.9 1.8-7.3 2.8l-6.1 1.8-6.7-4.5c-3.7-2.5-8.9-6.3-11.7-8.5-4.1-3.3-5.5-3.8-8.1-3.4-2.3.5-26.2 9.6-37.1 14.3-2.9 1.2-.6 4.3 9.5 12.9 5.9 5 20.5 17.3 32.5 27.5 12 10.1 24.3 20.4 27.2 22.9 19.7 16.7 18.6 16 25.8 16 6.3 0 7.1-.3 21.4-8.1 19.5-10.7 21.3-11.8 21.3-13.4 0-.8-1.5-2.5-3.2-3.8-1.8-1.3-9-6.5-16-11.6-6.9-5-12.9-9.8-13.1-10.6-.6-1.5 1.3-2.5 4.6-2.5 3.5 0 9.9-2.6 10.9-4.4.5-.9 1.6-1.6 2.4-1.6 2.5 0 8.3-6.5 9-9.9.5-2.5 1.1-3.1 3.3-3.1 6.5 0 20.4-7.1 21.4-10.9.9-3.5-3.5-10.3-9.6-14.9-6.5-5-8.1-7.3-7.9-12 .1-2.3-.6-4-2.1-5.5-1.2-1.2-4-5.7-6.1-10.1-2.2-4.5-5.9-10-8.7-12.9l-4.9-5.1 3.6-8.5c2-4.8 4.1-9 4.6-9.6.4-.5 3.2-1.5 6.1-2.1 10.4-2.4 13-3.3 17.5-6.1 2.7-1.7 4.6-3.6 4.6-4.6-.1-.8-3.8-7.3-8.1-14.4-4.4-7-9.8-16-12.1-19.8-2.2-3.9-5.5-8.6-7.4-10.5-2.8-3-3.3-4.3-3.7-9.5-.6-10.4 0-18 1.7-21.2.7-1.2.9-3 .5-4-.7-2-8-11.1-10.2-12.9-1.6-1.3-1-3.8 1-4 .8 0 2.2-.2 3.1-.2 5-.5 6.1-12.6 2-21.1-2.7-5.5-2.7-6.2-.1-9.5 2.7-3.4 2-4.9-3-6.6-5.5-1.8-8.6-5.3-8.3-9.3.2-2.5-.5-4-3.6-7.2-2.1-2.2-4.3-5.3-4.9-7-1-3-1-3-2.1-.8m-4.9 101.8c2.4 5 2.2 5.3-2.5 6.7-2.4.7-4.8 1.8-5.3 2.6-.8.9-4.1 1.4-11 1.6-12.4.3-13.3.1-10.4-3 1.2-1.3 2.5-2.1 3-1.9.4.3 1 .1 1.4-.5.3-.5 1.4-1 2.4-1s5.2-1.8 9.5-4c4.2-2.2 8.5-4 9.5-4s2.4 1.5 3.4 3.5m-33 4.4c1.5.6 1.6.9.4 2.5-1.4 1.9-1.5 1.9-6 0-3.6-1.4-4.3-2.2-3.5-3.2 1.1-1.2 4.5-1 9.1.7m26.7 15c0 .4 2.5.7 5.5.6s5.5 0 5.5.1c0 .2-.4 1.4-1 2.8l-.9 2.5-4.8-2.3c-2.6-1.2-5.9-2.7-7.3-3.3l-2.5-1.2h2.8c1.5-.1 2.7.3 2.7.8m38 101.2c0 .5-.7.9-1.5.9-1.5 0-2-1.2-.9-2.3.8-.8 2.4.1 2.4 1.4m-29.9 28.4c.3 2.2 1 5 1.7 6.2 1.1 1.9.9 2.4-1.8 4.3-1.7 1.2-3.7 3.5-4.5 5.1-.9 1.6-2.2 2.9-3 2.9-2.4 0-15.5-10.1-15.5-11.9s5-6.1 7.2-6.1c.7-.1 3.6-1.2 6.3-2.5 7-3.4 8.9-3 9.6 2"/></svg>