<svg xmlns="http://www.w3.org/2000/svg" width="682.667" height="512" version="1.0" viewBox="0 0 512 384"><path d="M273.3 33.5c-1 1.7-1.3 1.7-2.9.5-1.6-1.4-1.6-1.3-.6.7 1 1.7.9 2.2-.5 2.7-1.5.6-1.5.8.1 1.9 1.5 1.1.9 1.9-5 8-5.3 5.5-6.9 6.6-8 5.6-.9-.7-1.4-.8-1.4-.1 0 .6-.7 1.2-1.6 1.4-1.2.2-.9 1.2 1.6 4.7 2.8 3.9 3.2 4.9 2.7 9s-.1 7.5 1.9 17.1c.5 2.3-.1 2.8-6 5.4-6.9 3.1-7.4 3.6-5.3 5.8.8.9 1.2 4.3 1 10.8-.1 5.2.3 10 .8 10.6.5.7.7 4 .4 7.5-.4 4.8-.1 6.6 1.1 8 1.4 1.6 1.4 2.1 0 6.3-2.6 7.7-1.6 38.5 2 58.9.4 2.2.1 6.2-.6 9.4-1.2 4.6-1.1 6.5 0 11.6.8 3.4 1.3 8.4 1.2 11.1s.2 5.4.8 6.1.6 2.3 0 4.4c-1.1 4-1.5 22.6-.5 26.4.5 1.8.3 3.8-.5 5.2-1 2-1 3 0 5.6.8 1.7 1.3 5 1.1 7.3-.1 3.6.2 4.4 2.6 5.8 1.5.9 4 2.9 5.5 4.3s4.7 3.4 7 4.4c2.4 1 5.5 3.1 7 4.6 3.1 3.1 2.6 5.3-1.8 8.1-1.5 1.1-2.1 2.1-1.6 2.6 1.4 1.4 12.6 2.2 14.6 1.1 1.5-.8 1.4-1.3-1.5-4.1s-3.2-3.7-3-8.4c.2-6.1 1-7.3 4.2-6.2 2.3.7 4.9.7 5.8-.2.2-.2-.6-1.2-1.9-2.2l-2.3-1.8 3.5-3.6c2.9-2.9 3.7-4.5 4.3-9.4.7-5.8.7-5.9-2.6-8.6-1.8-1.5-3.1-2.9-2.8-3.1.2-.2 4.4-1.7 9.4-3.3 7.8-2.5 9.1-3.3 10-5.7 1.2-3.5 0-5.7-4.3-7.7-3.6-1.7-5.2-5.8-5.8-15-.9-14.1-2.6-26-4.4-31.1-1.1-3.1-2-5.9-2-6.2s1.3-.8 3-1.2c1.6-.4 3.2-1.1 3.5-1.6.4-.5 1.5-.9 2.5-.9s3.2-1.1 4.7-2.4c2.3-2 2.8-3.2 2.8-6.8 0-5.6-2.8-10.7-11.6-21.6-3.9-4.8-8.7-11.6-10.6-15.2-3.4-6.1-6.2-10.7-9.9-15.7-1.4-2-1.4-2.4 0-4.5.9-1.2 1.6-3.4 1.6-4.8 0-4.8 1.4-5.2 4.9-1.5 3.8 4 5.3 4.3 8.1 1.5 1.8-1.8 2-2.8 1.4-7.3-.4-2.9-.7-5.7-.7-6.2.1-.6.4-4.9.7-9.7l.6-8.8-2.7-.6c-1.6-.3-3.3-.7-3.9-.9-1.2-.3-1.8-7.5-.6-7.4 4.4.7 4.7-.6 2.3-8.4-1.9-6.5-1.9-12.5 0-16.2 2.4-4.4 2.4-5.4 0-4.8-1.4.4-3.6-1.2-8-5.9-6.3-6.6-7.2-8.4-4.5-9.5 1.5-.6 1.5-.7 0-1.9-1.1-.8-1.3-1.4-.7-1.9.6-.3 1.1-1.1 1.1-1.7s-.9-.3-1.9.6c-1.9 1.7-2 1.7-2.3-.6-.3-2.2-.4-2.2-1.5-.3m13.1 174.4c3.6 11.3 5.8 20.9 5.7 24.3-.1 2 .4 4.6 1 5.6.8 1.3.9 3.1.3 5.8l-1 3.9h-25.9l-1.4-3c-1.7-3.5-2.5-23.5-1.3-33.5l.7-6.5 7.5-.5c13.9-.9 12.8-1.2 14.4 3.9m-14.7 80.8c4.3.7 5.8 2.5 4.3 5.2-1.3 2.5-2.6 2-8.5-3.4-3.5-3.2-3.7-3.6-1.5-3 1.4.3 4 .8 5.7 1.2M114 46.6c0 1.1-.5 1.4-1.6 1-1.3-.5-1.5-.2-.9 1.6 1.7 5.5.7 8.1-5.4 14-4.5 4.4-6.6 5.8-8.8 5.8-2.1 0-3.3.7-4 2.2-.9 1.9-.5 2.9 1.9 5.7 2.7 3 2.9 3.7 2.3 8.6l-.7 5.4 4 2.8c2.3 1.6 4.5 4.2 5.2 6.3.7 1.9 2 4 2.8 4.6 1.7 1.2.8 3.4-1.3 3.4-2.8 0-3.9 4.4-3.9 15.5-.1 13.3-.7 14.6-9.6 19.5-3.4 1.9-7 4.3-8 5.2-3.1 2.8-5.5 3.7-11.6 4.4-3.3.4-7 1.2-8.4 1.9-2.2 1.1-3.2 1-7.5-1.1-2.9-1.4-5.8-3.8-7-5.7-1.1-1.7-3-3.3-4.3-3.5-1.9-.3-25.7 4.7-38.1 7.9l-4.3 1.2.5 4.5c.3 2.4 1.1 5 1.8 5.7 1.4 1.3 29.1 16.1 73.2 39.2 17.6 9.2 24.6 12.4 27 12.3 5.6-.3 5.6-.3 4.6 3.2-1.2 4.5-1.1 10.5.2 13.1.7 1.2 4.3 6.1 8 10.9 3.8 4.8 7.6 10.5 8.5 12.8.9 2.2 2 4 2.5 4 .4 0 1.3.9 1.9 1.9.9 1.7.1 2.6-6.8 7.1-8 5.4-7.6 4.8-14.2 19.1-1.7 3.9-2.9 5-7 6.8-2.7 1.2-5.2 2.1-5.7 2.1-.4 0-2.1.7-3.8 1.6-3.8 2-11.4 4.4-14.1 4.4-1.2 0-7-3.6-12.9-8-9.6-7.1-11.2-8-13.9-7.4-3.9.8-35.7 13.3-37.4 14.7-2 1.6-1.1 3 4.3 7.7 2.8 2.4 7.3 6.2 10 8.6 2.8 2.3 17.6 15 33 28 15.4 13.1 31.6 26.8 35.9 30.6 6 5.2 8.6 6.8 10.9 6.8 2.6 0 13.3-5.1 32.7-15.8 6.8-3.7 11.1-7.2 10.8-8.7-.2-.7-8.2-7.1-17.8-14.2s-17.6-13.6-17.8-14.5c-.2-1.2 1.4-1.8 7.3-2.7 5.3-.9 8.4-2 10.4-3.7 1.6-1.3 3.5-2.4 4.3-2.4 2 0 7-5.5 8.3-9.1.8-2.6 2.1-3.5 8.4-5.9 9.3-3.7 12.1-6.2 12.1-11 0-5.1-2.5-9.7-7-12.8-4.4-3.1-6.3-6.3-5.4-9.6.4-1.6-.2-3.2-1.9-5.2-1.3-1.6-3.3-5.6-4.4-9-2.3-6.9-5.8-12.7-10.9-18.4l-3.6-3.9 1.5-4.8c.9-2.6 2.1-7.2 2.8-10.2 1.4-5.6 2.6-6.6 9.4-7.7 4-.7 16.3-6.4 16.9-7.9.2-.7-3.4-7.4-8.1-15.1-4.6-7.6-9.7-16.4-11.3-19.5-1.6-3-4.5-7.7-6.4-10.2-3.1-4.1-3.7-5.8-4.4-12.4-.7-5.8-.5-8.4.5-10.3.7-1.4 1.3-3.8 1.3-5.3 0-1.6.5-3.7 1-4.7 1.2-2.3-.3-6.8-3-8.7-2.5-1.8-8.4-9.3-7.7-9.9.3-.3 1.1-.7 1.9-.8 5.7-1.2 6.8-1.9 8.4-6.2 1.8-4.8 1.6-6.6-2.3-16.3l-2.5-6.3 2.1-2.9c1.2-1.5 2.1-3.3 2.1-3.8 0-1-5.6-4.1-7.5-4.1-2.2 0-6.5-5.6-6.5-8.4 0-1.7-1.3-4.3-3.5-6.9-2-2.3-3.8-5.2-4.1-6.4-.7-2.6-3.4-3.1-3.4-.7m-4.6 101.6c.3.7.7 3.2.9 5.6.5 4.1.4 4.4-2.4 5.4-1.6.5-2.9 1.4-2.9 1.9s-.7.9-1.6.9c-.8 0-2.2.7-3 1.5-1.6 1.6-15.8 2.2-18.1.7-1.7-1.1 1.2-4.6 3.2-3.8.9.3 1.8 0 2.1-.9.4-.8 1.4-1.5 2.4-1.5s3.1-1.1 4.7-2.4c3.1-2.6 12.3-8.4 13.6-8.5.4-.1.9.5 1.1 1.1m-31.2 10.6c1.2.5 1.5 1.1.8 2.2-.8 1.2-1.5 1.1-5.2-.7l-4.3-2.2H73c1.9 0 4.3.3 5.2.7m25.6 14c.2.7-.2 1-1.2.6-.9-.3-1.6-1.1-1.6-1.6 0-1.3 2.3-.5 2.8 1m7 0c1.9 1.3.4 4.1-1.9 3.5s-3.3-1.9-2.4-3.3c.7-1.2 2.5-1.3 4.3-.2m32.6 100.6c-.3.9-1 1.3-1.6 1-.5-.3-.4-1.2.3-2 1.5-1.8 2.2-1.3 1.3 1m-30.6 26.2c.1 1.6.8 4 1.5 5.3 1 2.1.8 2.6-2.6 5.7-2 1.9-3.7 3.8-3.7 4.3 0 1.8-3.8 4.1-5.6 3.4-2.9-1-12.2-8.2-12.8-9.9-.3-.8.6-2.2 2.3-3.5 3.2-2.4 18-8.8 19.6-8.4.6.1 1.1 1.5 1.3 3.1M442.6 51.3c.6 5 .4 5.7-2.7 9.9-1.9 2.5-4.6 6.9-6.1 9.7-2.4 4.3-3.2 5.1-5.7 5.1-1.6 0-3.4.6-4 1.4-1 1.2-.8 1.7 1.1 2.7 4.2 2.2 5 4.5 5.3 15.2s1.2 16 2.5 15.2c1.4-.9 2.2 1.5 1.1 2.9-.6.8-2.4 1.6-4 1.9-2.2.5-3 1.3-3.5 3.8-1 5.3-.7 8.3 1.4 10.9 1.1 1.4 2 3 2 3.6s.7 1.7 1.5 2.4c2.7 2.2 1.9 8.7-1.7 13.6-2.7 3.8-3 4.8-2 6.4 1.8 2.9 1.5 3.8-2.2 8.1-2.1 2.5-4.3 6.8-5.6 11.2-2.4 7.6-10.8 25.3-13.8 29.2-1 1.2-2.4 4.1-3.2 6.4l-1.3 4.2 4.3 4.4c4.5 4.6 7.1 5.9 13.2 7 4.3.7 5.8 2.7 5.8 7.9 0 2.8-.8 4.5-3.9 7.7-2.2 2.2-4.5 5.7-5.2 7.7s-2.3 5.1-3.6 6.8c-1.2 1.7-2.3 3.7-2.3 4.3 0 .7-.8 2.5-1.9 3.9-1.2 1.9-2 5.2-2.4 10.8-.3 4.5-1 9.1-1.6 10.2-.9 1.8-.7 2.6 1.9 5.5 1.6 1.9 6 5.1 9.7 7.1 3.8 2 7.8 4.5 9.1 5.5 2.3 2 2.9 4.6 1.2 5.6-1.5.9-1.2 4.3.8 7.2 1.2 2 1.7 4.7 1.7 10.1 0 8.4 1.3 10.2 7.4 10.2 6 0 20.9 2.8 23.3 4.3 7.1 4.5 13.8 4.1 13.8-.8 0-1.9-.5-2.5-2.3-2.5-1.2 0-6.3-1.4-11.2-3.1s-11.2-3.2-13.9-3.3c-3.8-.1-5.2-.5-5.4-1.7-.4-2.2 1.7-2.9 4.8-1.6 1.4.5 4.5 1 7 1.1s6.9.8 9.9 1.4c2.9.7 7.1 1.2 9.2 1.2 2.2 0 3.9.5 3.9 1.1s.7.8 1.6.5 2.8 0 4.2.8c7.5 3.8 14.5 6.6 16.5 6.6 1.2 0 4.2-.6 6.7-1.4 3.6-1.1 4.4-1.7 4.2-3.3-.2-1.2.4-2.3 1.3-2.6 3.3-1.3 1.6-4.6-4.4-8-3.2-1.9-6.9-3.8-8.2-4.2s-3.1-1.3-3.9-2-3.1-1.5-5-1.8-6.6-2.1-10.5-4.1c-3.8-1.9-8.9-4.4-11.1-5.5-5.6-2.6-5.9-3.5-1.9-5.4 4.1-2 7.5-7 7.5-11.2 0-4.7-7.2-10.8-15.2-12.9-3.4-.8-7.4-1.7-8.8-1.8-2-.2-2.6-.9-2.8-3.4-.2-1.9.3-3.6 1.2-4.4.9-.7 1.6-2.8 1.6-4.7s1.4-6.7 3.2-10.6c2.8-6.4 4.5-15.4 4.7-24.5.1-1.2.6-2.2 1.2-2.2 1.5 0 11.1-6.5 14.3-9.7 3.1-3.1 3.3-6 .7-14.5-1.1-3.5-3.6-12.2-5.7-19.3-2-7.2-4.6-15.1-5.6-17.7l-2-4.7 4.4-7.3c6.2-10.3 7.2-13.1 6.5-18.8-.4-3.2-.2-5.2.6-5.9 1.9-1.5 7.3.2 15.7 5 7.1 4 8 4.3 16.8 4.7l9.2.4v-8.1c0-7.3-.2-8.2-2.2-9.5-1.9-1.2-14.5-5.1-23.5-7.3-3.1-.7-2.9-2.6 1-6.9 9.2-10.5 22.7-28.1 22.7-29.7 0-2.7-1.5-2-4.6 2-9.5 12.7-26 31.3-27.5 31.3-1 0-2.6-1.1-3.5-2.4-1.4-2.2-2.1-2.4-6.2-2-7.3.8-7.7-.2-4-7.7 1.7-3.5 4-7.5 5-8.8 2.2-2.9 2.3-6 .2-10.4-1.5-3.2-1.5-3.7.5-8.2 2.5-5.6 2.7-7.2.7-5.5-2.5 2-6.8.8-14.1-4.1-3.8-2.5-7.7-4.8-8.6-5.1-1.1-.4-1.9-2.4-2.3-5.7-.5-3.5-1.1-5.1-2.1-5.1-1.2 0-1.4 1-.9 5.3m22.1 43.9c-.3.8-.6.5-.6-.6-.1-1.1.2-1.7.5-1.3.3.3.4 1.2.1 1.9M443 234c0 5.1-2.3 18-4.7 25.6-.8 2.9-1.3 5.8-1.1 6.5.3.8-.6 3.5-2 6-2.5 4.5-2.8 4.7-8.6 5.7-3.4.5-6.5.6-7 .2-.4-.5-1.2-2.8-1.6-5.1-.7-3.8-.5-4.6 1.6-6.8 1.3-1.3 2.4-3.2 2.4-4.2s2.4-4.4 5.3-7.6c9.9-10.9 10.4-11.8 11.2-18.5 1.2-10.2 4.5-11.5 4.5-1.8m40.8 88.7c.2.8-.5 1.3-1.7 1.3-2.1 0-3.5-1.3-2.4-2.4 1-1 3.6-.3 4.1 1.1"/></svg>