<svg xmlns="http://www.w3.org/2000/svg" width="682.667" height="512" version="1.0" viewBox="0 0 512 384"><path d="M269.6 32.4c.6 2.5.4 2.8-1 2.3-.9-.4-1.6-.2-1.6.3 0 .6.7 1 1.5 1 2.9 0 1.3 2.6-5.1 7.7-6.5 5.5-8.2 6.1-10.1 4.2-.9-.9-1.3-.6-1.8 1.4-.5 1.8.1 3.6 2 6.5 1.5 2.3 2.4 4.6 2 5.3-1.4 2.2-1.2 9.8.2 10.3.7.3 1.3 2 1.3 3.8 0 3-.5 3.6-4.2 5.3-3.1 1.5-4.9 3.2-6.5 6.4-1.4 2.7-2 4.8-1.4 5.4.9.9-2.1 10.3-3.9 12.1-2.2 2.2-1 5.6 3 8.4l4 2.7-.6 6.1c-.5 4.9-.3 6.7 1.2 8.9 1.4 2.1 1.5 3.1.7 4.5-3.9 6.1-4.2 34.7-.7 48 1.3 4.8 1.7 9.9 1.6 19.5-.1 8.9.3 14.7 1.4 18.2.9 3.2 1.2 6.8.8 9.3s-.2 4.5.5 5.4c.9 1 .8 3.5-.3 10.2-.9 4.9-1.9 10.2-2.4 11.9-.6 2.1-.5 4.1.6 6.8 1.1 3 1.2 4.4.3 6.3-.6 1.4-1.1 3.9-1.1 5.7-.1 1.8-.7 4.3-1.5 5.7-2.6 4.5-1.8 6.4 4.6 11.9 3.4 2.8 6.7 5.5 7.4 5.9 1.5.9 3.5 4.6 3.5 6.6 0 .8-1.8 2.6-4.1 3.9-2.2 1.4-3.7 2.7-3.2 2.9 1.6.9 13.4 3.1 13.9 2.6.3-.3-.2-2.1-1.1-3.9-1.7-3.6-1.4-5.2 2.4-11.4 1.7-2.8 2.2-3 7-2.8 5.2.2 6.5-.9 4-3.4-.8-.8.3-2.6 4.3-6.5 3.3-3.3 5.9-7 6.7-9.6 1.4-4.1 1.4-4.3-1.3-7.1-1.6-1.6-2.6-3.4-2.2-3.9.3-.5 4-1.7 8.2-2.7s8.5-2.6 9.6-3.7c2.7-2.7 2.3-6.3-1.2-9-3.6-2.8-6.5-12.1-5.6-17.7.3-1.9-.1-4.5-.8-6-.8-1.4-1.7-6.4-2.1-11.1s-1.6-11.1-2.6-14.2c-1-3.2-1.9-6-1.9-6.2 0-.3 2.5-1.3 5.5-2.1 6.2-1.8 10.5-6.3 10.5-10.8 0-3.8-3.4-9.3-10-16.3-6.8-7.3-10.9-13.3-15.7-22.8-1.9-3.9-4.9-8.6-6.4-10.4-3.4-3.8-3.4-4-1.4-7.8.8-1.6 1.5-4.1 1.5-5.7 0-2.7 1.3-3.6 2.5-1.7 2.1 3.3 7.5-1.1 7.5-6.1 0-1.5.7-4 1.5-5.5.8-1.6 1.5-3.8 1.5-4.9s.7-3.8 1.4-6c1.3-3.5 1.2-4.2-.2-5.8-.9-1-2.3-1.5-3.4-1.1-1.2.3-2.7-.1-3.9-1.2-2.2-2-2.5-3.4-.5-3.4 1.5 0 1.6-1.6.3-3.7-.5-.7.1-1.3 1.4-1.5 2.2-.3 3.7-4.2 2.1-5.2-.4-.2-.7-4.1-.6-8.5.1-6.3.5-8.6 1.9-10.1 2-2.3 1.3-5.9-.8-4.1-1 .8-2.6-.5-7-5.9-3.1-3.7-5.7-7.3-5.7-7.8s1-1.3 2.3-1.7c1.9-.6 1.9-.8.5-1.2-2-.5-2.3-1.8-.8-2.8.6-.3 1-1.1 1-1.8 0-.6-.7-.4-1.7.5-1.5 1.6-1.7 1.6-2.9 0-1.3-1.6-1.3-1.6-1.4 0 0 1-.3 1.8-.6 1.8-.4 0-1.3-.8-2.1-1.8-1.2-1.5-1.3-1.4-.7 1.2m15.8 172.8c.9 2.9 2.5 8.7 3.7 12.8s2.1 9 2 10.8c0 1.9.6 4.6 1.4 6 1.4 2.3 1.4 3.3.2 7.2-1.1 3.9-1.6 4.5-4 4.4-1.5 0-7.6-.1-13.6-.2l-10.9-.2-1.7-5c-1.1-3.4-1.3-5.5-.7-6.6s.6-2.8 0-4.6c-1.2-3.3-.6-26.3.6-27.5.4-.4 4.4-1.1 8.9-1.4s9.2-.6 10.4-.7c1.9-.2 2.5.6 3.7 5m-20.4 78c2.5 1.2 5.5 2.6 6.6 3.1 2.1.9 2.1 1-1.7 4.8-2.1 2.1-4.2 3.9-4.5 3.9-.4 0-2.7-1.6-5-3.6-4.5-3.6-5.4-6.3-3.1-8.9 1.6-1.9 2.5-1.9 7.7.7M113 43c0 .5-.6 1-1.4 1-1.1 0-1.3 1.3-1 5.3l.3 5.3-5.8 5.8c-4.6 4.5-6.3 5.7-7.9 5.2-1.4-.5-2.7 0-4.1 1.5-2 2.2-2 2.3-.3 4.3 3.9 4.5 4.9 7 4 10.3-.9 3.6.5 8.3 2.5 8.3 1.9 0 5.4 4 6.2 7.2.4 1.5 1.3 3.2 2.1 3.9 1.8 1.4 1.8 2.9.1 2.9-.7 0-2.2 1.2-3.4 2.8-1.5 2.1-1.8 3.3-1.1 5.1.5 1.6.3 6.3-.6 13-1.6 11.6-1.7 11.7-12.1 18.8-2.2 1.5-5.2 3.9-6.6 5.4-2 2.1-3.9 2.9-8.5 3.4-3.3.3-7.2 1.1-8.8 1.6-3.9 1.2-13.5-3.4-15.4-7.4-2.3-4.8-4.4-4.9-22.8-.6-24.7 5.7-25 5.8-24.6 9.4.4 3.9 2.7 7.3 6 9.1 6.9 3.8 61 32.7 71.7 38.3 6.6 3.5 13.9 7.5 16.3 8.9 3.6 2.1 5.2 2.4 9.5 1.9l5.3-.5-.4 6.9-.4 7 8.1 12.2c4.4 6.8 8.1 13.1 8.1 14.2 0 1 1.2 3.2 2.8 4.8 3.1 3.3 3.7 2.5-7 9.5-6.6 4.4-10.8 10-10.8 14.5 0 7.1-3.5 9.3-26.5 16.8-7.2 2.4-6.9 2.5-19.5-7-5.2-3.9-10.4-7.1-11.5-7.1-1.2 0-9.3 2.9-18.1 6.4-19.4 7.7-21.2 8.5-21.8 10.1-.4 1.1 89.5 79.1 93.3 80.8 2.1 1 5.4-.3 21.1-8.9 15.6-8.4 23.8-13.3 24.6-14.6.9-1.4-.2-2.3-20.3-17.1-8.8-6.4-16.8-12.6-17.8-13.7-1.7-1.8-1.6-1.9.6-2.4 1.3-.3 4.4-.7 6.9-1 7.5-.7 11-1.8 12.1-3.7.5-1.1 1.7-1.9 2.7-1.9 3 0 9.6-6.4 9.8-9.6.1-1.6.3-3.5.3-4.2.1-.6.8-1.2 1.7-1.2 2.3 0 11.6-4.6 14.2-7 4.4-4.1 2.3-12.4-4.9-19.1-3.4-3.2-3.8-4.1-3.3-6.8.5-2.4.2-3.7-1.3-5.4-1.1-1.2-3-5.4-4.1-9.2-2.1-6.9-8.1-17.6-11.5-20.4-2.1-1.7-2.1-4.1 0-14.8 1.6-8.1 1.8-8.6 4.9-9.9 1.9-.8 4-1.4 4.8-1.4 1.3 0 6.3-2.2 12.4-5.3 1.2-.6 2.2-2 2.2-2.9 0-1-3.5-7.9-7.8-15.5-4.4-7.6-9.6-16.9-11.6-20.6-2.1-3.7-5.1-8.2-6.7-9.8-3-3.1-3-3.2-2.6-11.8.5-9.2 1.1-13.5 2.9-19.3 1-3.3.8-4.1-1.3-7.3-1.3-1.9-2.7-3.5-3.1-3.5-1.2 0-6.2-8-5.4-8.7.3-.3.6-.1.6.5s1.9.2 4.5-1.1c7.4-3.6 8.2-9.5 3-22.1l-2.4-6 2.1-3.8c1.2-2.1 2-3.9 1.7-4-3.5-2.2-7-3.8-8.1-3.8-2.3 0-6.3-4.9-6-7.4.2-1.4-1.2-4.1-3.8-7.3-2.2-2.8-4-5.8-4-6.7s-.7-1.6-1.5-1.6-1.5.4-1.5 1m-5.2 106.1c-.3 1.6-.1 3 .2 3.1.4.2 1 1.3 1.4 2.5.6 1.9.1 2.5-2.8 3.7-2 .8-3.6 2-3.6 2.5 0 .6-.9 1.1-1.9 1.1s-2.1.7-2.5 1.5c-.6 1.8-10.9 2.1-15.2.5-2.6-1-2.6-1.1-.9-3 1-1.1 2.1-1.7 2.5-1.5 1.2.7 5.9-2.1 14-8.4 4.1-3.3 7.9-5.7 8.3-5.4.5.3.7 1.8.5 3.4m-28.9 10.5c.2.2.1.7-.2 1.1-.4.3-2.2-.1-4-1l-3.2-1.7 3.5.6c1.9.4 3.7.8 3.9 1M103 172c0 .5-.7.7-1.5.4-.8-.4-1.5-.8-1.5-1s.7-.4 1.5-.4 1.5.4 1.5 1m6.3 1.6c-.6 1.6-.6 1.6-2.7.8-1.3-.5-1.4-1-.6-2 1.4-1.6 4.1-.7 3.3 1.2m2.7 123.9c0 1.3.5 3.6 1.2 5 1.1 2.5.9 2.9-2.5 5.9-2 1.7-3.7 3.6-3.7 4.1 0 1.3-3.2 4.5-4.5 4.5-1.6 0-12.7-7.5-13.6-9.3-1.3-2.2 2.8-5.3 12.1-9.1 10.3-4.2 11-4.3 11-1.1m329.9-249c0 .6 0 3.5.1 6.6.1 4-.3 5.9-1.5 6.9-.9.7-3.4 4.4-5.7 8.2-4.2 7-6.1 8.8-9.7 8.8-3.5 0-3.3 1.8.8 5.5 3.6 3.2 3.9 3.9 3.4 7.5-.3 2.1-.2 8.2.2 13.5.6 8.4.9 9.4 2.1 7.8 1.3-1.7 1.3-1.7 1.4.4 0 1.2-1.2 3-2.7 4.2-4.9 3.7-5.2 4-5.9 7.8-.4 2.2-.2 4.2.5 5.2 2.3 3.2 5.1 10.3 5.1 13.1 0 1.6-1.6 5-3.6 8-3.3 4.8-3.4 5.3-2 6.9 2.2 2.5 2 3.4-1.8 8-2.1 2.5-4.5 7.3-6.2 12.3-2.9 8.9-7.9 20.1-11.6 25.8-2.5 3.9-4.8 9.7-4.8 12.2 0 2.9 10.1 10.6 15.6 11.8 7.9 1.7 8.2 1.9 9.4 5.6 1.1 3.3 1 3.7-2.9 7.9-2.3 2.5-4.7 5.7-5.3 7.3-.7 1.5-2.3 4-3.5 5.5-1.3 1.6-2.6 3.9-2.9 5.3-.3 1.3-1 2.4-1.4 2.4-1.3 0-2.8 5.1-3.3 10.8-.3 3.4-1.2 6.4-2.6 8.3-1.7 2.2-1.9 3.3-1.1 4.8 1.3 2.5 9 9.1 10.5 9.1.7 0 4 1.8 7.3 4 6.2 4 8 7.1 4.7 8.4-2 .7-1.9 3.6.2 6.6 1.2 1.7 1.7 4.7 1.9 10 0 4.1.2 7.8.3 8.1.3 1.4 6 2.8 14.1 3.3 11.8.9 13.4 1.2 16.2 3 1.3.9 4.5 1.9 7.1 2.2 5.3.8 7.7-.5 7.7-4.1 0-1.8-.4-2.1-2.6-1.7-1.4.2-5.1-.6-8.7-2.1-3.4-1.4-7.5-2.8-9.1-3.2-2.2-.5-2.6-.9-1.6-1.5.8-.5 2.1-.5 3.1 0 1.8 1 11.8 2.3 16.6 2.1 1.7-.1 3.4.3 3.8.9s1.6.8 2.6.5c1.1-.4 2.5-.2 3.2.3 2.4 1.9 14.4 6.2 17.4 6.2 4.5 0 11.6-3.3 10.1-4.8-.8-.8-.8-1.2.3-1.6 5-1.5 5-1.5 3.9-3.6-.6-1.1-4.8-3.9-9.3-6.1-4.5-2.3-8.5-4.6-8.8-5.1-.4-.6-2.6-1.1-5-1.2-2.9-.2-8-2-14.9-5.3-5.8-2.8-11.3-5.3-12.2-5.6-3.2-1.1-2-3.6 2.3-4.8 4.7-1.5 9.9-7.3 9.9-11.3 0-6.2-13.5-14.6-23.5-14.6-3.5 0-4.5-.4-5-2.1-.4-1.3-.1-2.7 1-3.8.9-1 1.8-3.6 2.1-5.7.3-2.2 1.7-6.6 3.2-9.9 1.7-3.9 3-9.4 3.7-15.5.7-6.6 1.4-9.4 2.3-9.2 1.5.3 10.6-6 14.3-9.8 4.4-4.5 4.5-8 .9-15.7-3.8-7.9-12-28.3-12-29.6 0-.5-1.1-3.1-2.4-5.7l-2.4-4.8 4.5-6.2c4.8-6.7 7.3-11.7 7.3-14.9 0-3.1 2.1-6.9 4.6-8.6 2.2-1.4 2.9-1.2 12 4.2l9.7 5.7h9.3l9.4.1v-7.1c0-7.1 0-7.1-3.7-9.7-2.1-1.4-6.5-3.3-9.8-4.1-11.7-2.9-15.6-4.1-15.7-5-.1-.8 1.5-2.9 18-24.4 9.4-12.3 11.7-16.2 9.3-16.2-.6 0-2.3 1.7-3.8 3.7-12.3 16.5-26.8 34.5-28 35-1.7.7-6.6-1.4-5.9-2.5.2-.4.1-1.4-.4-2.2-.7-1.1-2.5-1.4-7-1.2-3.3.2-6 .2-6 0 0-1.2 6.5-13.5 8-15.3 2.8-3.2 3.2-7 1.3-11-1.6-3.4-1.6-3.7.5-8.7 2.3-5.4 2.2-6.9-.3-4.8-2.2 1.8-5.2.7-14.6-5.6-8-5.4-8.4-5.8-9.2-10.3-.8-4.2-2.6-7.9-2.8-5.6m.1 188c0 4.9-3.4 21.4-5 24.4-.6 1.2-.9 3.4-.6 4.9.4 1.9-.1 3.5-1.8 5.6-2 2.4-3.5 3.1-8.7 3.8-7 .9-7.9.4-7.9-4.8 0-1.8.8-3.8 2-4.9 1.1-1 2-2.4 2-3.2s3.6-5.2 7.9-9.7c7.2-7.5 8-8.8 8.6-13.2 1.1-8.6 1.5-10 2.6-8.3.5.7.9 3.2.9 5.4m41 85c0 .8-.8 1.5-1.9 1.5-1 0-2.4-.7-3.1-1.5-1.1-1.3-.8-1.5 1.9-1.5 2.1 0 3.1.5 3.1 1.5m-39.2 7.2c.2.8-.6 1.3-2.2 1.3-2.6 0-4-1.2-2.9-2.4 1.1-1.1 4.6-.2 5.1 1.1"/></svg>