<svg xmlns="http://www.w3.org/2000/svg" width="682.667" height="512" version="1.0" viewBox="0 0 512 384"><path d="M279.1 26.7c-.9 1.5-1.2 1.6-2 .4-.7-1.1-1-.9-1.3 1-.2 1.4-.9 2.3-1.7 2.1s-1.1.3-.8 1.2c.4 1-1.5 2.1-6.9 4.1-6.3 2.3-8 2.6-10.1 1.6-2.9-1.4-6.2.4-4.3 2.3 1.8 1.8 1.1 6.4-1.5 10.2-2.9 4.3-3.1 6.1-1 11.1.9 2 1.3 4.3 1.1 5-.6 1.5-4.8 1.7-6.2.3-.6-.6-3-1.4-5.5-1.8-3.8-.6-4.4-1.1-4.7-3.4-.3-2.8-3.4-4.5-8.5-4.7-2.3-.1-2.9.4-3.4 3-.5 2.7-.9 3-3.2 2.4-1.4-.3-4.5-2.7-6.8-5.2-3.9-4.5-4.3-4.7-6.6-3.4-3.3 1.8-4.7 5.1-4.7 11.2 0 5.6 1.1 8.4 3.9 9.9 1.6.8 2.7.3 6.1-2.5 2.3-1.9 4.8-3.5 5.5-3.5 2.5 0 2.3 8-.3 15.5-3.4 9.9-3.7 11.9-1.7 13.8 2 2.1 6.3 2.1 13.4.2 3-.7 6.6-1.1 8.1-.8s3.7 0 4.9-.6c2.5-1.4 2.7-.4.4 2.1-2.5 2.8-3 14.2-.9 22.8 1.5 6.1 1.5 7.2.3 9.2-.8 1.3-3.2 7-5.2 12.8-4.7 13.1-6.8 17.3-11.6 23.1-10.8 13-7.1 22.4 12 29.9l6.1 2.5v6.1c0 3.3.7 8.3 1.5 11 1.1 3.8 1.2 5.7.4 8.2-.9 2.8-.8 3.6.6 5.2 1 1.1 1.4 2.6 1.1 3.8-.6 1.7-1.8 2-9.6 2.4-7.1.3-9.6.9-11.8 2.5-7.5 5.6-1.5 14 13 18.3 4.3 1.3 6.8 2.6 6.8 3.5 0 1.6-10 6.5-17.2 8.5-6.8 1.8-7.4 3-3.7 7.6 1.7 2.1 3.7 4.3 4.5 4.7 2.2 1.2 1.7 2.6-1.8 4.7-2.1 1.2-5.1 2-8 2-2.7 0-4.8.4-4.8.9 0 .6 1.6 2.2 3.6 3.7l3.6 2.8 2.5-3.3c1.4-1.7 5.2-4.5 8.4-6.2 6-3 6-3 14.6-1.8 8.2 1.1 8.7 1 10.2-.9.9-1.1 2.7-2.3 4.1-2.7s3.4-1.4 4.5-2.1c1.2-.9 4.7-1.4 9.2-1.4 6 0 7.7-.4 9.3-2 1.1-1.1 2.7-2 3.5-2 1.4 0 5.5-5.4 5.5-7.2 0-.4-1.3-2.2-3-4-3.6-3.9-3.9-7.7-1-13.3 2.2-4.4 2.5-9.1.9-15-.6-2.2-1.3-6.3-1.5-9-1-13.4-2.2-20.4-4.1-24.4-1.9-3.9-2-4.7-.7-7.7 2.1-5.1 1.7-9.8-2-21.3-1.9-5.8-4.1-15.1-5.1-20.6-1.9-11.8-3.1-16.1-5.6-19.7-2.3-3.2-2.4-4.6-.3-6.9 1.4-1.5 1.4-2.3.4-5.4-2.1-6.4.1-13.5 4.1-13.5 2.1 0 6-4.9 8.3-10.4 2.1-5.2 2-7.2-.6-9.8-2.5-2.5-2.5-4.6-.3-16.3 1-5.2 2-7.5 3.9-9.2 2.9-2.5 3.4-4.3 1-4.3-.9 0-1.4-.7-1.2-1.8.2-.9-.1-2.2-.8-2.7-.6-.6-2.1-3.9-3.4-7.4-2.2-6.1-2.3-6.4-.6-7.7 1-.7 1.5-1.8 1.1-2.4s-.1-1.7.5-2.5c1-1.2.9-1.5-.3-1.5-1 0-1.4-.6-1.1-1.5.8-2.1-.3-1.9-1.5.2m-36.7 42.9c2.5 1 1.9 2.7-.8 2.2-1.6-.3-3.4.3-5.3 1.8-4.3 3.5-5.8 2.9-2.6-1.1 2.7-3.4 5.2-4.2 8.7-2.9m6.1 1.4c-.8 1.4.8 1.3 2.2-.1.9-.9 1-.6.6 1-.4 1.4-1.1 2-2 1.7-.8-.3-1.7-.6-1.9-.6s-.4-.7-.4-1.5.5-1.5 1.1-1.5c.5 0 .7.4.4 1m-15.1 8.6c2 .8 2.1 2.4.2 2.4-.7 0-1.9.7-2.6 1.5-2 2.5-2.9 1.7-1.7-1.5s1.6-3.4 4.1-2.4m44.6 1.9c0 .8-.4 1.5-1 1.5-.5 0-1-.7-1-1.5s.5-1.5 1-1.5c.6 0 1 .7 1 1.5m-6.2 120.2c4.8 9.6 7.3 21 6.1 28.5-1.6 10.3-1.1 9.7-7.6 8.3-3.2-.7-7.9-1.6-10.5-2-5.6-.7-7.3-2.9-6.3-8.2.4-2.1.1-4.8-.6-6.4-.8-2-.9-6.1-.4-13.4l.7-10.5H270zm-15.5 69.1c5.3 2.3 2 6.1-4.2 4.7-1.7-.4-4.7.1-7.7 1.3-5.4 2.1-6.8 1.9-10.1-1.1-3.1-2.8-2.9-4.5.7-5.4 4.5-1.2 18.1-.9 21.3.5M104.1 38.9c-1.6 1.2-2 2.1-1.2 2.5.6.4 1.1 2.4 1.1 4.4 0 3.3-.8 4.6-5.8 9.5-4.2 4.1-6.3 5.6-7.5 5.1-1.2-.4-2.6.3-4.2 2L84 65.1l2.9 3.7c2.4 2.9 3 4.8 3.2 9.2.2 4.6.7 5.9 3.2 8.2 1.6 1.6 3.3 2.6 3.8 2.3 1-.7 3.1 3 2.2 3.9-.3.3.2 1.5 1.2 2.6 1.6 1.7 1.6 2.1.2 3.5-2.1 2.1-3.1 5.5-2 6.6.6.6.1 2.7-1.4 5.7-1.3 2.5-2.8 6.5-3.4 8.7s-1.5 5.1-2.1 6.5c-.9 2.5-9.4 9.3-15.6 12.4-1.8.9-3.5 2.3-3.8 3.1-.7 1.7-5.1 3.1-12.4 4-3 .4-6.2 1.1-7 1.5-2.3 1.3-10.5-3.4-12.8-7.5-1.8-3-2.6-3.5-5.9-3.5-2.1 0-10.7 1.6-19 3.6L0 143.3v16.3l16.8 9.6c9.2 5.3 23.5 13.5 31.7 18.3 40.4 23.4 40.9 23.7 44.5 23.7 1.9-.1 4.8-.6 6.4-1.2s3-.9 3.2-.8c.1.2-.6 3-1.7 6.3s-2.3 8.3-2.6 11.1c-.5 4.8-.3 5.3 3.2 9.2 2 2.3 7.9 7.3 13.1 11.3 5.2 3.9 9.3 7.7 9.1 8.3s-1.8 1.8-3.5 2.6c-4.8 2.3-7.3 4.1-12.1 8.9-4.2 4.1-4.4 4.6-4.2 9.6.1 3-.3 5.6-.9 6-2.3 1.4-22.7 8.7-28.6 10.2l-6.1 1.6-9.9-7.6c-5.5-4.3-10.9-7.7-12-7.7-2.2 0-22 7.6-33.7 12.9-3.7 1.7-6.7 3.7-6.7 4.4 0 .8 1.9 3.2 4.2 5.2 2.4 2.1 6.8 6.1 9.9 8.9 3 2.8 11.6 10.5 19 17.2 7.4 6.6 20.3 18.3 28.8 26C94.1 377.4 97.3 380 100 380c2.8 0 7.5-2.3 26.8-13.1 14.4-8 18.5-11 17.6-13.1-.3-.7-6.5-5.8-13.7-11.3s-16.9-12.8-21.4-16.3c-10.9-8.4-11.2-12.3-.6-9.3 4.5 1.3 17.1-.5 20.5-3 1.5-1 3.2-1.9 3.8-1.9s2.9-1.2 5.1-2.7c5.9-3.9 7.4-8.9 4.4-14.7-2.1-4-1.9-4.5 1.8-6.1 3.4-1.4 7-4.9 8-7.8.7-1.9-1.4-12.1-3.1-15.3-.6-1-2.6-3.3-4.6-5.1-2-1.7-3.6-4-3.6-5 0-2.3-3.5-6.3-5.6-6.3-.8 0-2.2-1.7-3.1-3.7-.8-2.1-2.1-4.2-2.8-4.8-.8-.5-2.3-3.4-3.5-6.4-1.1-2.9-3.4-7.3-5.1-9.8-2.8-4-3-4.7-1.9-7.4 1.5-3.4 5.2-5.7 10.6-6.4 4.5-.5 18.3-7.4 19.8-9.7 1.3-2.1-.4-7.4-6.8-21.1-2.4-5-6.1-13-8.3-17.7s-5.2-9.7-6.8-11.3c-2.7-2.7-2.8-2.9-2.1-10.8.4-4.5 1.2-9.1 1.7-10.2.6-1.1.9-3.6.5-5.5-.3-1.9 0-4.4.5-5.4 1.4-2.7.3-6.5-2.6-9.2s-4.6-7.9-2.2-7.1c.8.4 2.2-.1 3.1-1s2.2-1.5 2.9-1.2c1.9.6 4.7-4.4 4.7-8.4 0-4.2-3.6-16.5-5-17.4-1.6-1-1.2-3.5 1.2-6.7l2.1-3.1-3.2-2.9c-2.3-2.1-4-2.8-5.5-2.4-2.6.6-6.9-3.3-8.1-7.4-.7-2.2-4.1-7.8-5.6-9-.3-.3-.9-1.7-1.3-3.3-.8-3.2-1.3-3.3-4.5-.8M97.6 146l2.1 5.9-2.9.6c-1.5.4-3.4 1.2-4.1 1.8-5.2 5-14.1 6.9-19.3 4.1-4.8-2.6-4.4-3.3 4.1-6.9 2.2-1 5.1-2.8 6.5-4 2.7-2.4 10.1-7.5 11-7.5.3 0 1.4 2.7 2.6 6M66 153c0 1.3-1.1 1.3-3 0-1.2-.8-1.1-1 .8-1 1.2 0 2.2.4 2.2 1m32.7 14.5c.8 2.1-.1 2.8-2.7 2-1.7-.5-1.9-1-.9-2.1 1.5-1.8 2.8-1.8 3.6.1m5.3 126.9c0 4.7-.7 7.8-2.6 12.1l-2.7 5.7-4.4-.6c-3.3-.4-6.2-1.9-10.6-5.4-3.3-2.6-6.2-5.2-6.4-5.9-.5-1.5 5-4.8 14.9-8.8 11.8-4.8 11.8-4.8 11.8 2.9M441.7 45.5c.5 3.4-1.9 10.5-3.6 10.5-.4 0-3.2 3.3-6.2 7.4-4.7 6.4-5.7 7.4-7.9 6.9-1.4-.2-3.4.3-4.5 1.1-2 1.6-2 1.6.1 3.3 1.2 1 2.9 3 3.8 4.4 1.5 2.4 1.5 2.9 0 6.4-2 4.8-1.7 21.5.4 21.5 2.7 0 .5 3.4-4.3 6.8-3.6 2.5-4.9 4-4.7 5.5.1 1.1-.5 3-1.3 4.3s-1.5 3-1.5 3.7c0 .8-2.2 4.4-5 8-2.7 3.6-5 7.3-5 8.1s2 3.3 4.5 5.7 4.5 4.9 4.5 5.7c0 .7-1.1 2.8-2.5 4.6-1.5 2-3.6 7.7-5.6 15.6-3.6 14-5.2 18.2-10.3 26-4.7 7.1-4.6 9.9.4 15.4 3 3.2 5.4 4.7 9.9 6.1 5.5 1.6 6 2 6.6 5.3.6 3 .2 3.9-2.8 7.1-1.9 2-3.9 5-4.6 6.8-.7 1.7-2.1 3.9-3.2 4.9-1 .9-1.9 2.2-1.9 2.8s-.9 2.8-2 4.9c-1.5 2.8-2 5.6-2 11.6 0 5.8-.4 8.2-1.5 9.1-.8.7-1.5 2.1-1.5 3.1 0 2 7.7 9.9 9.7 9.9.7 0 2.8 2.5 4.7 5.5 2.6 4 4.8 6.1 8.6 8 7 3.6 6.7 5.5-1.5 9.8-2.7 1.4-7.3 3.3-10.2 4.2-7.5 2.4-8 3.4-3.5 8.1 2 2.1 4.6 5 5.7 6.4 2.2 2.7 10 9.4 14.3 12.2 3.6 2.4 8.5 2.3 10.7-.2 2.1-2.4 2.3-2.2-3.5-4.8-6.2-2.8-17.5-13.5-16.6-15.8.6-1.5 1.8-1.6 9.3-1.1 6.7.4 9 .9 10 2.2 1.6 2.3 8.8 5.5 12.2 5.5 1.5 0 3.3.6 3.9 1.2.7.7 2.8 1.1 4.8.9 2.2-.1 4.5.4 6.2 1.5 10.6 7.1 14.8 8.8 20.2 7.8 2.5-.4 6-.7 7.9-.6 2.5.1 3.1-.2 2.2-1.1-1.5-1.5-1.4-3.7.2-3.7 2.4 0 5.9 4 4.8 5.4-1.4 1.6 3 5.9 8.1 8 3.6 1.5 10.9 2.2 12 1.1s-16.2-17.2-25-23.3c-5.1-3.5-9.2-6.8-9.2-7.3s-1.3-.9-2.9-.9c-1.9 0-4.7-1.4-8.3-4.3-2.9-2.4-8-5.8-11.3-7.7-8.2-4.6-9.8-6-8.4-7.7.6-.7 1.7-1.3 2.4-1.3.8 0 2.7-1.7 4.4-3.7 5.6-6.8 3.5-12.8-6.4-18.4-6.7-3.8-8.7-8-5.5-11.4 1.5-1.5 1.9-3 1.5-4.6-.3-1.5.4-4.9 2.1-8.9 2.2-5.4 2.6-7.8 2.5-15.8-.1-12.1.3-13.5 5.1-16.7 5.8-3.8 7.3-8.1 5.7-16.4-2-11.3-9.3-33.7-13-39.9-1-1.8-1.9-3.5-1.9-3.7s2.5-3.2 5.5-6.6c5.8-6.5 7.2-10.3 6.1-16.3-.4-1.9-.2-3.7.3-4 1.8-1.2 8.8 2.8 15 8.6 3.5 3.3 7.8 6.7 9.7 7.5 3.1 1.5 3.8 1.5 10.6-.5 4-1.1 9.2-2.4 11.6-2.7 2.3-.4 4.2-1.1 4.2-1.6s1.6-.9 3.5-.9h3.5v-4.8c0-4.7-.1-4.8-4.6-7.1-3.1-1.4-5-1.9-5.7-1.2-1.1 1.1-9.7-1.2-11.2-3.1-2.2-2.8-4.7-4-12.1-5.9-4.2-1-8.4-1.9-9.4-1.9-2.2 0-4.5-2.6-3.1-3.4.6-.4.7-1.4.4-2.2-.3-.9.6-2.8 2.4-4.7 1.6-1.8 4.7-5.7 6.9-8.7 2.1-3 6.3-8.3 9.2-11.8 3.1-3.7 5.1-6.9 4.8-7.8-.8-2.2-2-1.7-4.6 1.8-1.3 1.8-7.4 9-13.4 16-10.9 12.7-11.1 12.8-15.3 12.8-4.6 0-5.4-1.1-2.4-3.2 1-.7 2.1-2.3 2.5-3.5.4-1.3 2.5-4.2 4.7-6.5l4-4.3-.6-7.1c-.5-6.7-.4-7.2 2.4-11.2 3.3-4.4 2.8-5.9-1.3-4.1-2.1 1-2.9.9-4.3-.3-1-.8-5.2-4.3-9.2-7.7-7.5-6.2-7.5-6.2-7.2-10.7.2-4.2-1-7.4-3-7.4-.4 0-.5 1.6-.2 3.5m-8.6 183.7c1.1 4.2.8 8.8-1 19.3-.5 2.7-1.2 7-1.6 9.5s-1.4 6.2-2.2 8.2c-1.4 3.3-2.1 3.8-4.8 3.8-1.8 0-5.9.3-9.1.6l-5.9.6-1.9-6.2c-1.6-4.9-1.7-6.5-.8-7.8.7-.9 1.9-3.1 2.7-4.7.7-1.7 3.7-5 6.5-7.4 6.7-5.7 9-9.5 9-15.1v-4.5l4-.3c3.8-.2 3.9-.2 5.1 4"/></svg>