<svg xmlns="http://www.w3.org/2000/svg" width="682.667" height="512" version="1.0" viewBox="0 0 512 384"><path d="M277 23.6c0 1.4-.3 1.4-1.5.4s-1.5-1-1.5.4c0 .9-.7 1.6-1.6 1.6-1 0-1.3.6-1 1.8.5 1.3-.3 2-3.6 3-2.3.7-5.8 2.1-7.8 3.1-3.2 1.5-3.9 1.6-5.8.3-3.3-2.2-4.3-.7-3.6 5.4.5 3.7.3 5.4-.4 5.4s-1.9 1.7-2.8 3.7c-1.4 3.6-1.4 4 .5 8.1 1.2 2.3 2.1 4.7 2.1 5.3 0 1.6-5.1 3.1-6.6 1.8-.7-.6-3.4-1.4-6-1.7-3.9-.6-4.9-1.2-5.4-3-.6-2.5-5.6-5.6-6.6-4.1-.4.6-1 .6-1.9-.1-1.7-1.4-3.9 1.3-3 3.9.3 1 .1 2.2-.4 2.5-1.8 1.1-8.6-2.4-10.6-5.4-1.6-2.4-2.6-3-5-2.8s-3.4 1.1-4.9 4.2c-1.7 3.4-1.7 4.5-.7 8.9 1.2 5.4 3.5 8.7 5.8 8.7.8 0 3.1-1.8 5.2-4 4.5-4.7 6.1-5 6.1-1.3 0 1.6.4 3.4.9 4.1.5.9-.2 4.5-2 9.5-3.4 9.9-3.5 10.9-.8 13.3 2 1.8 2.2 1.8 10.7-.3 4.8-1.2 10.6-2.4 13-2.6l4.2-.5-2.1 3.5c-1.8 2.9-2.1 4.5-1.6 10.6.2 4 1.2 9.3 2.1 11.9 1.6 4.6 1.6 4.9-.7 9.5-1.3 2.7-4.2 10.2-6.3 16.8-3.5 10.7-4.4 12.5-8.5 16.5-6.2 6.1-7.6 8.6-7.8 14.4-.2 4.4.1 5.1 3.9 8.7 3.3 3.2 12.7 8.5 15.8 9 3 .4 3.9 2 3.5 6.1-.3 2.4.2 7.3 1.1 11 .9 4.1 1.3 8.5 1 11.2-.4 2.7-.2 4.6.5 5 1.2.8 1.5 5.5.3 7.2-.4.6-3.9 1-8.2 1-7.8-.1-12.4 1.4-14.4 4.6-2.8 4.5 5.1 12.5 15.2 15.4 6.3 1.8 8.5 3.1 7.6 4.6-.9 1.3-10 5.3-16.7 7.2-3.2.9-6 2.3-6.3 3.1s1 3.4 3 5.8 3.6 4.9 3.6 5.5c0 2-4.6 4.2-9.9 4.9-5.6.6-6.2 1.5-2.8 4.4 3 2.5 4.2 2.4 6.1-.5.8-1.4 4.5-3.9 8-5.6 5.8-2.7 7.1-3 12.3-2.4 3.2.4 6.6 1.1 7.6 1.6 2.3 1.2 5.7.1 5.7-1.8 0-.8 1.2-1.9 2.8-2.4 1.5-.6 3.9-1.7 5.4-2.5 1.6-1 5.3-1.5 10-1.5 6.2 0 7.8-.3 9.3-2 1-1.1 2.6-2 3.6-2s2.7-1.3 3.9-3c2.4-3.4 2-4.8-2.9-9.4-2.2-2.1-3.1-3.9-3.1-6.2 0-1.8.4-3.5.9-3.8.5-.4 1.6-2.6 2.4-5 1.3-3.9 1.3-5.2 0-11.7-1.5-7.6-2.1-13-2.6-23.4-.1-3.5-1.2-8.4-2.6-11.7-2.3-5.4-2.4-6.2-1.3-12.2 1.1-5.9 1-7.6-1.3-18.3-1.5-6.5-3.2-16.4-4-22.1-.8-6.4-2.3-12.3-3.9-15.8-3.1-6.6-3.1-7.2-1-9.5 1.5-1.7 1.5-2.2-.1-6.1-1.4-3.6-1.5-4.8-.4-8.1 1-3 1.9-3.9 4.2-4.4 6.1-1.2 12.4-16.8 8.2-20.3-1.8-1.5-2-9.4-.5-18.5.7-4.7 1.6-6.5 3.7-8.3 2.6-2.1 2.7-2.4 1.1-3.6-1-.7-1.8-1.8-1.8-2.4s-.3-1.2-.8-1.4c-.4-.2-2-3.5-3.5-7.3-2.7-6.9-2.7-7-.8-8.6 1.5-1.2 1.7-1.9.8-2.8-.8-.8-.8-1.4.1-2.3 1.7-1.7 1.5-3.3-.3-1.8-1.3 1.1-1.4 1-.9-.4.3-.9.1-1.6-.5-1.6s-1.1.7-1.1 1.6m-34 44.9c0 .9-1 1.5-2.6 1.5-1.4 0-3.9.9-5.6 2.1-3.8 2.7-4.6 1.8-1.8-2 1.8-2.6 2.8-3.1 6.1-3.1 2.8 0 3.9.4 3.9 1.5m4.4-.3c-.5.8-.2.9.9.5s1.7-.1 1.7.7.5 1.6 1.2 1.8c.8.3.8.9.1 2.1-.9 1.7-1.1 1.6-2.8-.3-2.1-2.4-3-6-1.4-6 .5 0 .7.5.3 1.2M233 79.1c0 .5-.5.9-1.1.9-.7 0-1.8.8-2.5 1.7-1.6 2.2-1.9.1-.4-2.7 1-1.9 4-1.8 4 .1m45-.2c0 .6-.4 1.3-1 1.6-.5.3-1-.1-1-.9 0-.9.5-1.6 1-1.6.6 0 1 .4 1 .9m-6.3 126.6c2 5.7 3 10 2.7 11.8-.3 1.5-.1 3.3.5 4 .7.9.7 3.4.1 7.7-.5 3.6-1 6.9-1 7.5-.1 3-1.6 3.4-7 2-3-.8-7.2-1.5-9.3-1.5-3.1 0-3.9-.4-4.9-2.8-1-2.3-2.2-36.8-1.3-38.2.2-.3 4.1-.3 8.7 0l8.3.5zm-17.7 65c5.2 2.7 3.6 5.2-2.8 4.6-1.3-.1-4.7.7-7.6 1.8l-5.3 2-3.7-2.6c-4.3-3.1-4.6-4.8-.8-6.1 4.3-1.6 16.9-1.4 20.2.3M103 35c0 .5-.7 1-1.6 1-1.2 0-1.4.5-.9 1.7.5 1 .9 3.2 1 5 .1 2.7-.8 4.1-5.7 9-4.3 4.2-6.6 5.8-8.6 5.8-1.7 0-2.6.5-2.4 1.3.1.7-.5 1.5-1.3 1.8-2.2.9-1.8 2.5 1.4 6.2 2.4 2.8 2.8 4 2.4 7.3-.7 5 2.7 10.5 7 11.3 2.4.5 2.8 1 2.4 2.8-.4 1.3 0 2.9.8 3.8 1.3 1.5 1.3 2.1-.1 4.9-.9 1.8-1.3 4.2-1 5.4s-.1 2.8-.8 3.7c-.7.8-2.1 4.1-3.1 7.2-.9 3.1-2.6 7-3.6 8.7-2 3.3-9 8.8-15.8 12.3-2.4 1.2-4.6 3-4.8 3.9-.5 1.8-5.6 3.4-13.7 4.3-2.7.4-5.7 1.2-6.5 2-1.4 1.2-2 1.2-4.8-.2-1.7-1-4.2-3.3-5.5-5.2-3.2-4.8-5.6-4.8-22.7-.6C7.2 140.4.6 142 .4 142s-.4 4.2-.4 9.3v9.3l6.7 3.9c3.8 2.1 20.5 12 37.3 21.8 16.8 9.9 33.7 19.7 37.7 21.9l7.2 3.9 5.6-1.5c5.7-1.5 5.7-1.5 5 .7-5.9 18.8-5.6 19.6 14.1 35 6.2 4.9 8.4 7.3 8.4 9.3 0 .3-1.7 1.2-3.7 2.1-4.2 1.7-10.5 6.4-14 10.3-1.9 2.1-2.1 3.3-1.7 7.2.6 4.1.4 4.8-1.7 6.1-1.3.8-6 2.4-10.4 3.5-4.4 1.2-10.5 3-13.5 4.1-3 1-7.2 2.2-9.2 2.6-4.1.8-5.5 0-16.2-8.8-7-5.8-5.4-5.9-26.1 2.5C8.6 292.1 3 294.7 3 295.8c0 1 10.3 11 23 22.2 9.1 8.1 23.5 21.1 30.4 27.5 6.2 5.8 33.6 30.4 36.4 32.8 4.2 3.4 5.6 3.1 18.7-4C132 363 142 356.7 142 354.8c0-1-2-3.2-4.4-5-16.3-12.2-39.6-31.2-39.3-32.2.4-1.1 1.9-1.1 12.7 0 7 .8 15.7-1.1 17-3.7.6-1.1 2.1-1.9 3.5-1.9s4.1-1.6 6.5-3.8c4.4-4.3 5.2-8.4 2.5-13.2-2.2-3.8-1.9-4.5 2.5-6.5 6.6-3 8.7-8.4 5.5-14.4-.8-1.7-1.2-4.2-.9-6.2.5-3.1 0-3.9-4.5-8.4-3.2-3.1-5.1-5.8-5.1-7.2 0-1.6-1.1-3-3.5-4.4-1.9-1.2-3.5-2.7-3.5-3.5s-.8-2.2-1.9-3.3c-1-1-2.8-4.7-4-8.3-1.2-3.5-3.6-8.7-5.5-11.5-2.9-4.5-3.2-5.3-2.1-7.4 1.4-2.4 6.3-4.7 10.5-4.8 1.4-.1 6.2-2 10.8-4.2 7-3.6 8.2-4.5 8.2-6.7 0-2.4-13.1-36.8-16.8-44-.9-1.8-2.9-4.5-4.4-5.9-2.6-2.5-2.8-3.2-2.8-10.8 0-4.4.4-8.5.9-9 .5-.6 1.1-5 1.5-9.8.6-8.4.5-8.9-1.8-11-1.4-1.3-2.8-3.6-3.2-5.3-.4-1.6-.3-2.6.1-2.2s2-.1 3.4-1.1 3.1-1.6 3.6-1.4c1.5.5 4.5-5 4.5-8.2 0-3.6-3.8-16.2-5-17-1.6-1-1.1-5.1 1-7.7l1.9-2.5-2.2-2.7c-1.4-1.5-3.3-2.6-4.8-2.6-3.6 0-7.7-3.5-10-8.4-2.1-4.5-3.8-7.3-5.6-9.4-.7-.7-1.3-2.2-1.3-3.3 0-1-.7-1.9-1.5-1.9s-1.5.4-1.5 1m-7.7 107.6 2.6 6.5-2.5 1c-1.4.5-2.9.9-3.3.9-.5 0-1.4.7-2.1 1.5s-2.1 1.5-3.1 1.5c-1.1 0-1.9.6-1.9 1.4 0 3.4-17.5 2.9-19.6-.5-.8-1.4 3.5-5.9 5.1-5.3.7.3 1.5-.2 1.9-1.1.3-.9 1-1.3 1.6-1s4.6-2.1 9.1-5.4c4.4-3.4 8.4-6.1 8.8-6.1s1.9 2.9 3.4 6.6m-33.5 6.8c.3.4.1 1.1-.6 1.8-1.2 1.2-6.7-.5-7.9-2.5-.6-1.1 7.3-.4 8.5.7m27.5 15.8c.3 1 .9 1 2.3.3 1.1-.6 2.9-.9 4.2-.7 1.8.3 2.2.8 1.6 2.5-.3 1.2-.8 2.4-1 2.6-.6.7-10.4-4.1-10.4-5.1 0-1.3 2.8-.9 3.3.4M102.2 294c-.3 6.2-3.3 15.5-5.7 17.3s-9.1-.7-15.5-5.6c-9.5-7.4-9.6-7.5-5.2-10.4 2-1.4 5.9-3.2 8.7-4 2.7-.8 7-2.1 9.5-2.8 7.9-2.4 8.5-2 8.2 5.5M437.8 43.2c.3 3.2 0 4.5-1.4 5.5-1 .7-1.5 1.3-1.1 1.3s-1.1 1.9-3.4 4.2c-2.2 2.4-5.4 6.2-7 8.5-1.9 2.7-3.8 4.3-5 4.3-1.1 0-2.9.5-4 1.1-1.9 1-1.9 1.1.5 4 3.2 3.7 4 6.3 2.7 8.8-1.3 2.4-1.2 22.4.2 23.2 1.6 1.1-.1 2.8-5.9 6.1-4.3 2.4-5.3 3.4-4.9 4.9.5 1.5.1 1.9-1.9 1.9-4.6 0-7.4 3.8-10.2 13.7-2.4 8.6-2.5 9.5-1.1 11.7.9 1.3 3 2.7 4.7 3.1 1.6.4 3 1.1 3 1.6s.9 1.8 2.1 3l2.1 2.1-2.7 3.9c-1.4 2.2-3.3 7-4.1 10.7-4.5 20.2-5.6 24.1-8.4 29.9-4.8 9.9-4.8 11.1-.2 16.9 2.8 3.6 5.1 5.3 8 6.2 3.7 1.1 4.2 1.6 4.9 5.5.8 3.8.6 4.5-1.8 6.9-1.4 1.4-3.1 4.1-3.8 6-.7 1.8-2.3 5.5-3.6 8.3-4.7 10-5.4 13-5.6 22-.2 11.6-.5 10.6 3.8 14.9 2.1 2 4.7 5.6 5.8 7.9 1.2 2.4 4.3 5.8 7.3 8.1s5.2 4.7 5.2 5.8c0 2.1-8.5 6.3-16.5 8-10.7 2.2-10.5 3 6 20.4 6.2 6.6 7.4 7.4 10.7 7.4 2 0 4.3-.3 5.2-.6 2.1-.8 2.1-4.4 0-4.4-1.9 0-16.4-13.8-16.4-15.6 0-2 3.5-2.6 10.7-1.8 6 .6 7 1.1 10.2 4.5 2 2 5 4.1 6.6 4.5 1.7.3 3.7 1.3 4.5 2 .9.7 3.6 1.2 6.3 1.1 4.2-.2 5.2.2 7.1 2.6 1.2 1.5 2.5 2.7 3 2.7.4 0 2.7 1.5 4.9 3.2 3.9 3.1 4.6 3.3 12.7 3.3 9.4 0 12.1 1 15.9 5.7s14.4 8.2 18 5.9c1.1-.7.3-2-3.6-5.8-2.8-2.7-5.3-5.8-5.7-6.9-.4-1-3.5-4-6.9-6.7-3.4-2.6-8.1-6.2-10.4-8-2.3-1.7-4.5-4-4.8-5-.4-.9-1.5-1.7-2.5-1.7-1.7 0-11-8.5-11-10.1 0-.4-3.4-2.6-7.5-4.9-4-2.4-7.6-4.9-7.9-5.7-.5-1.3 2.9-3.3 5.8-3.3.6 0 2.9-1.7 4.9-3.8 6.5-6.6 4.2-12.9-6.9-18.7-6.6-3.4-8.5-7.1-5.9-11.2.8-1.2 1.5-3.9 1.5-6s.9-6.1 2-9c1.5-4.1 1.9-7.6 1.9-17 0-11.2.1-11.9 2.3-13.3 11.7-7.8 13-10.1 10.4-19.8-1.6-6.1-11-27.8-17-39.3l-2.4-4.5 5.3-6.3c5.6-6.6 6.8-9.7 5.8-15.5-1.1-7 4.1-5.8 14.8 3.5 3.9 3.3 8.3 6.5 9.7 7 2.6 1 10 0 24-3.1 5.7-1.3 7.2-1.3 7.2.4 0 .8 1.1 1.7 2.4 2s3.1.9 4 1.2c1.3.5 1.6-.1 1.6-2.9 0-2.1-.6-3.7-1.4-4s-1.2-1.4-.9-2.5c.3-1.4-.5-2.3-3.4-3.7-2.1-1-4.9-2.7-6.3-3.7-1.3-1.1-3.6-1.8-5-1.7-6.2.3-8.3-.2-10.9-2.9-1.4-1.6-4.4-3.5-6.6-4.2s-5.9-1.9-8.3-2.7-4.6-1.2-4.9-.9c-1 1-3.2-1.5-2.6-3 .3-.8 0-2-.5-2.7-.9-1 .8-2.7 7-7.2 9.6-7.1 24-16.5 25.1-16.5s.8-4.8-.3-5.5c-.6-.4-3.8 1.6-7.3 4.3-11.8 9.4-33.7 23.3-36 23-2.9-.4-2.8-2.6.2-4.1 1.4-.7 2.8-2.5 3.2-4 .4-1.6 1.9-3.8 3.2-5 4.6-4.1 5.9-9.4 3.7-15.1-1-2.7.1-6.5 2.8-9.8 1.7-2.1.6-4.1-1.9-3.5-1 .3-2.2.1-2.5-.4s-.9-.7-1.4-.4c-.6.3-4.4-2.4-8.7-6-7.7-6.6-7.7-6.6-7.4-11.1.2-4-1-7.4-2.8-7.4-.4 0-.5 1.9-.3 4.2m-8.3 181c1.5 1.4 1.2 25.6-.4 30.5-1.1 3.4-1.2 4.5-.2 5.7 1.1 1.3.9 2-.8 4.2-1.2 1.5-2.1 3.3-2.1 4 0 1-1.4 1.4-4.7 1.4-2.7 0-7.1.3-10 .6l-5.2.7-1.6-3.9c-2.6-6.2-2.9-9.3-1.2-11.2.8-.9 1.9-3 2.2-4.5.4-1.5 2.9-5.1 5.5-8 5.6-6.2 7.5-9.7 8.4-15.7.4-2.4 1.2-4.8 1.8-5.2 1.4-.8 6.9.1 8.3 1.4m51.1 116.3c.9 1.4 1.4 2.8 1.1 3.2-1 .9-5.7-2.6-5.7-4.2 0-2.4 2.8-1.7 4.6 1m22.9 15.5c.3.5.8 1 1.1 1 .2 0 .4-.5.4-1 0-.6-.5-1-1.1-1-.5 0-.7.4-.4 1"/></svg>