<svg xmlns="http://www.w3.org/2000/svg" width="682.667" height="512" version="1.0" viewBox="0 0 512 384"><path d="M274.3 18.6c-.3.8-1.1 1.3-1.8 1-.7-.2-1.8 1-2.5 2.9-1.1 2.8-2.6 3.9-9.2 6.9-7.4 3.3-8.1 3.4-10.3 2-3.1-2-3.8-.6-2.4 5 1 4.1.9 4.8-1 7.2-2.5 3.1-2.7 9-.6 11.8.8 1.1 1.5 3.2 1.5 4.8 0 2.1-.6 2.9-2.4 3.4-1.4.3-3.1.2-3.8-.2-.7-.5-3.5-1.1-6.3-1.4-4.3-.4-5-.8-5.3-2.8-.4-2.9-4.3-4.5-8.5-3.4-2.8.8-3.2 1.3-3 4.1.1 2.5-.2 3.1-1.4 2.7-.8-.3-2.5-.6-3.7-.6-1.3 0-4.4-1.8-6.9-4.1l-4.7-4-2.5 2.5c-2.1 2.1-2.5 3.5-2.5 8.1 0 6.2 2.1 12.2 4.5 13.2 1.2.4 3-.9 5.9-4.1 4.6-5 6.6-5.8 6.6-2.5 0 1.1.5 3 1.1 4.1.9 1.6.5 3.8-1.6 10.5-2.7 8-2.7 8.4-1 10.3 2.4 2.6 4.3 2.5 11.8-.5 3.4-1.4 8.1-2.8 10.5-3s4.8-.8 5.5-1.2.4.5-.5 2c-2.5 3.8-2.4 16 .2 22.8l1.9 5.2-2.3 4.1c-1.3 2.3-4.3 10.1-6.6 17.4-3.9 12.8-4.4 13.7-10.1 19.8-5.6 6-5.9 6.6-5.9 11.3 0 6.2 2.8 9.9 10.6 13.7 3 1.4 5.7 3 6 3.5s1.5.9 2.7.9c2 0 2.2.5 2.3 6.7 0 3.8.8 9.7 1.7 13.3 1.2 4.7 1.5 7.4.8 9.6-.6 2-.5 3.6.1 4.2.5.5.8 2.9.6 5.3l-.3 4.4-8.5.6c-4.7.3-9.5 1.1-10.8 1.8-2.9 1.5-3 6.9-.2 9.9 3 3.2 9.9 6.9 15.3 8.3 5.1 1.2 6 2 5.2 4.1-.6 1.5-10.1 5.3-15.8 6.3-2.1.4-4.7 1.5-5.9 2.4l-2.1 1.7 3.7 5.1c2 2.8 3.6 5.5 3.6 6.1 0 1.9-5.7 4.2-10.4 4.2-7.3 0-8.2.8-5 4.1 1.5 1.6 3.3 2.9 3.9 2.9.7 0 2.9-1.6 4.9-3.5s5.4-3.9 7.6-4.5 4.2-1.5 4.6-2.1c.7-1.1 12.8-.2 15.5 1.2 2.3 1.2 5.6 0 6.2-2.1.8-3.1 7.1-5 16.2-5 6.9 0 8.5-.3 10-2 1-1.1 2.6-2 3.6-2 2.1 0 5.9-4.5 5.9-7.1 0-1-2-3.5-4.5-5.6-4.2-3.4-4.5-4-3.9-7.3.3-1.9 1.5-5.5 2.6-7.9 2-4.4 2-4.6.1-13.5-1-5-1.7-9.8-1.5-10.6.3-1.7.4-.9-.7-12.5-.4-5.1-1.6-10.5-2.6-12.4-1.4-2.9-1.6-5-1-14 .5-8.3.2-13.4-1.4-23.1-1.1-6.9-2.2-15.7-2.6-19.5-.4-3.9-1.6-9-2.8-11.5-3.3-7.1-3.5-8.3-1.5-10 1.8-1.4 1.8-1.7.2-6.3-2.3-6.9-1.3-11.1 3.3-13.4 2.8-1.3 4.6-3.4 6.8-7.7 3.2-6.1 3.5-9.6 1-12.6-.9-1.1-1.2-4.8-1.1-12.8.2-10.8.4-11.3 3.1-14.2l2.8-2.9-2.2-2.3c-1.2-1.3-3.6-5.5-5.2-9.3-2.5-5.9-2.8-7.4-1.8-9.2.7-1.3 1-2.6.6-2.9-.3-.4-.2-1.5.4-2.5.7-1.5.6-1.7-.5-1.3s-1.3 0-.9-1.5c.6-2.4-.5-2.9-1.4-.5m-32.5 50.3c.3 2.2.1 2.3-2.7 1.8-2.3-.5-3.7-.1-6 1.8-4.1 3.5-4.6 3.1-2-1.3 2.9-4.7 3.7-5.3 7.4-5 2.3.2 3.1.9 3.3 2.7m7.7.4c0 3-.4 3.3-3.5 2.8-.5 0-1-1.4-1-2.9 0-2.2.5-2.8 2.3-3 1.9-.1 2.3.3 2.2 3.1m28.2 5.7c.1 1.1-.2 2.2-.8 2.5-1 .7-1.3-2.8-.2-3.8.9-.9.9-1 1 1.3M230 78.4c0 .3-.4.8-1 1.1-.5.3-1 .1-1-.4 0-.6.5-1.1 1-1.1.6 0 1 .2 1 .4M264.2 194c1.3 0 2.5 2.4 4.8 9.8 1.7 5.4 3 11.4 3 13.2v8.5c0 6.8-1.9 14.7-3.4 14.2-.6-.3-4.4-1.1-8.5-1.8-8.7-1.6-10.1-3.4-10-12.6 0-3.2 0-6.9-.2-8.3-.1-1.4-.2-7.2-.1-13l.2-10.5 6.2.2c3.5.1 7.1.2 8 .3m-11.4 76.7c3.3 2 2.2 3.7-2.9 4.5-2.4.3-5.7 1.1-7.2 1.7-4.6 1.8-7.1 1.3-10.2-1.9-3.8-4-2.6-5.1 6.2-6 7.7-.8 10.8-.4 14.1 1.7M100.4 31.4c-.3.9-1.2 1.6-2 1.6-1 0-1.1.6-.5 2.2 1.7 4.9.6 7.7-5.4 13.8-4.3 4.4-6.4 5.8-7.8 5.4-1.2-.4-2.6.3-4.3 2.1l-2.5 2.7 3.1 3.4c3.2 3.7 3.3 3.9 3 9.9-.1 4.6 2.9 9.5 6 9.5 2.5 0 4.3 2.5 3.5 5-.3 1.1-.2 2 .3 2 1.8 0 2.1 2.9.7 5.7-.8 1.5-1.5 4-1.5 5.4 0 1.5-.7 3.2-1.5 3.9s-1.5 2-1.5 2.9-1.3 4.3-2.9 7.6c-2.6 5.6-3.6 6.6-12.7 12.7-5.4 3.7-10.7 7.6-11.6 8.8-1 1.1-2.3 2-3 2-6.9.2-15.3 2.1-17.2 3.9l-2.3 2.1-2.6-2.4c-1.5-1.4-2.7-3.1-2.7-3.9 0-.7-1.1-2-2.5-2.7-2.3-1.2-4-1.1-14.3 1.4-6.4 1.5-13.2 3.2-14.9 3.8l-3.3 1v20.6l19.3 11.4c40.8 24.3 63.3 37.5 65 38.1s8.2-.4 11.9-1.8c1.4-.5 1.3.1-.3 5.1-1.1 3.1-1.9 7.6-1.9 9.8 0 5.1 1.7 7.2 15.5 19.1 5.5 4.8 10 9.4 10 10.3 0 1-1.3 2.4-3 3.2-5.9 3-11.3 7.2-14.4 11-2.7 3.4-2.9 4-1.6 5.4 1.6 1.6 1.9 4.4.7 6.4-.5.6-5.5 2.1-11.3 3.2-5.7 1.2-14.3 3.2-19 4.5-4.7 1.4-9.4 2.5-10.4 2.5s-5-2.6-8.9-5.7c-5.8-4.7-7.7-5.7-10.6-5.6-1.9.1-11.1 3.4-20.5 7.3-9.4 4-17.6 7.4-18.2 7.7-2.4 1-1.3 4 2.9 7.8 16.1 14.6 25.5 23.1 26.9 24.5 2.9 2.7 22 20.3 39.7 36.6 9.6 8.7 18.6 16.7 20.2 17.7 2.8 1.8 2.8 1.7 11.1-2.6 16.5-8.6 32.4-17.9 34.9-20.3l2.5-2.5-3.1-2.7c-1.7-1.5-11.7-9.5-22.2-17.7-10.5-8.3-19.1-15.6-19.2-16.3 0-2.1 3.1-2.6 6-.8 5.2 3 21 1.3 23.1-2.5.5-1.1 1.8-1.9 2.9-1.9 3.1 0 8.9-4 10.6-7.2 1.8-3.5 1.2-8.9-1.1-10.8s-1.8-3.6 1.5-5c5.9-2.5 8-4.8 8-9.1 0-2.2-.7-5.3-1.5-6.9-1.1-2-1.3-4.2-.9-7.1.7-4 .5-4.3-4.5-8.9-2.9-2.7-4.9-5.3-4.6-6.1.6-1.7-1.2-4.2-4.2-5.8-1.3-.6-2.3-1.9-2.3-2.7 0-.9-.9-2.7-1.9-4-1.1-1.4-2.2-4.2-2.6-6.4-.4-2.1-2.6-7.8-5-12.5l-4.3-8.6 3.1-2c1.8-1 4.6-1.9 6.3-1.9 1.8 0 6.9-1.9 11.4-4.1l8.2-4.1-.4-4.2c-.5-4-9.9-31.3-14.3-41.2-1.2-2.7-3.6-6.6-5.3-8.5-1.6-1.9-3-4.6-3.1-5.9 0-1.4-.3-4.4-.7-6.8-.4-2.9-.1-5.3.9-7.5.8-1.7 1.3-4.4 1-5.9s0-4.1.6-5.8c1.1-3.3 0-7.2-3-10-.8-.8-2.1-2.8-2.8-4.4-1.1-2.6-1-2.8.9-2.3 1.1.3 2 .1 2-.4s.7-.9 1.5-.9 1.5-.5 1.5-1.1c0-.5.5-.7 1.1-.4 1.8 1.2 4.9-3.6 4.9-7.5 0-4.3-2.5-13.3-4.8-17.2-1.5-2.6-1.5-3 .3-6.5 1.1-2.1 2.1-4.1 2.3-4.4.5-1-6.3-4.9-8.5-4.9-2.6 0-6.8-4.6-8.8-9.8-1-2.3-2.1-4.2-2.6-4.2s-.9-.7-.9-1.5-.4-1.5-.9-1.5-1.2-1.3-1.6-3c-.8-3.5-2.3-4.8-3.1-2.6M90 133c0 .8 4.3 10.9 5.7 13.2.2.4-1.5 1.2-3.7 1.9s-4.5 1.8-5.1 2.6c-.6.7-1.8 1.3-2.7 1.3-.8 0-2 .7-2.6 1.6-.9 1.2-3.2 1.6-9.1 1.8-7.6.2-8.4 0-16.8-4.1-8.9-4.4-10.2-6.3-4.4-6.3 4.1 0 5.9 1.2 5.1 3.3-1.1 3 2.5 3.2 5.5.3 1.5-1.4 3.5-2.6 4.4-2.6s1.7-.5 1.7-1c0-.6.8-1 1.9-1 1 0 3.6-1.4 5.7-3.1 4.7-3.8 12.5-8.9 13.6-8.9.4 0 .8.4.8 1m-3.9 30.2c.4.6 1.5.8 2.5.3 1.1-.4 3.1-.8 4.7-.9 2.5-.1 2.7.1 2.1 2.9-.3 1.6-1 3.4-1.4 3.8-.7.8-14-5.2-14-6.3 0-1 5.5-.8 6.1.2m12.6 124.6c2.1 1.3 1.5 12.1-1 18s-4.4 6.9-10 5.4c-4.5-1.3-19.6-13.1-19.7-15.4 0-2.1 8.1-5.2 21.5-8.1 3.4-.8 7.9-.7 9.2.1M432.8 36.2c.7.7 1.2 2.7 1.2 4.6 0 2.6-.5 3.5-2 3.9-1.1.3-1.9 1-1.8 1.7.1.6-1.7 3.1-4 5.6-2.4 2.5-5.5 6.2-6.9 8.2-1.4 2.1-3.2 3.8-4 3.8s-2.3.5-3.4 1c-1.9 1.1-1.9 1.2.7 4.6 2.5 3.2 2.6 3.8 1.5 7.3-1.4 4.9-1.4 9.7.1 17.7.7 4 1.5 6.1 2.2 5.7.6-.4.5 0-.2.9s-4.2 2.8-7.7 4.4c-4.4 1.8-6.5 3.3-6.5 4.4 0 3.4-2.2 3.9-8.4 2-6.3-2-9.8-1.5-12.2 1.8-1.9 2.5-1.7 7.7.6 12.2 1.1 2.2 2 4.9 2 6 0 2.9 5.3 8 8.3 8 1.4 0 4.3-1.7 7.1-4.1 5.3-4.7 5.8-3.6 1.7 3.7-2.8 5.2-2.7 7.6.3 9.6.6.4-.1 2.2-1.8 4.6-2 3-3.4 7.4-5.6 18.3-1.6 7.9-4 17.5-5.3 21.4-3.2 9.4-2.9 13.2 1.4 18.4 1.9 2.3 4.4 4.4 5.6 4.7 2.3.6 2.8 1.5 3.8 7.5.5 2.9.1 4.4-2.3 8-1.7 2.4-3.3 6.2-3.7 8.4s-1.6 5.7-2.7 7.8c-1 2.1-1.6 4.2-1.3 4.7s-.3 2.7-1.5 4.9c-1.6 3.3-1.9 5.2-1.5 9.8 1.1 10.5 1.6 12.3 4.5 15.6 1.6 1.8 3.2 4.5 3.5 6 .4 1.5 3.2 5.2 6.3 8.3 4.3 4.3 5.4 5.9 4.6 7.1-1.3 2.1-9.1 4.9-17.5 6.3-4 .7-7.3 1.8-7.6 2.5-.4 1.3 4.3 8.6 8.4 13 1.1 1.1 3.2 4.1 4.8 6.7 2.8 4.5 3 4.6 7.7 4.4 5.7-.3 8.2-2.1 5.7-3.9-3.1-2.4-14-15.7-13.5-16.6.3-.5 5-.8 10.3-.7l9.8.1.1 2.8c.1 2.8 4.4 7.7 6.9 7.7.7 0 2.1.7 2.9 1.6.9.8 3.6 1.7 6 1.8 3.8.2 5.1.9 9.7 5.6 7.9 7.8 10.3 9 17.8 9 7.2 0 12 2.2 13.9 6.4 1.6 3.5 8.3 7.5 14 8.3 2.6.3 5.3 1.3 6.1 2 .7.8 1.6 1.1 2 .8.3-.4-.2-1.1-1.2-1.6-.9-.6-1.7-1.4-1.7-1.9s-1-2-2.2-3.4c-1.3-1.3-3.4-4.6-4.8-7.2-2.2-4.3-25.3-28.4-27.1-28.4-.4 0-.9-.8-1.3-1.8-1.6-4.9-5.3-9.1-11.3-13.2-3.7-2.5-6.8-5-7-5.7-.3-.7 1.4-1.7 3.9-2.3 8.4-2.3 14.8-7.2 14.8-11.4 0-3.7-4.5-8.3-11-11.3-5.9-2.7-8-5.2-8-9.7 0-1.3.7-2.9 1.6-3.6 1.1-1 1.4-2.3.9-5-.4-2.5.1-6.1 1.5-10.9 1.9-6.2 2.1-8.2 1.4-14.4-.5-4-.7-9-.4-11.1.5-3.5 1.1-4.2 7-7.8 7-4.2 9.9-7.2 10-10.1 0-2.9-5.5-14.8-11.1-23.7-2.8-4.5-6.6-11.6-8.5-15.8s-4.1-8.3-4.9-9.2c-1.3-1.4-.9-2.3 3.1-7.3 5.3-6.8 6.4-9.4 6.4-15 0-6.4 1-7.3 5.6-4.9 2.2 1.2 6.2 3.9 8.9 6.3 2.8 2.3 5.9 4.5 7.1 4.9 1.1.5 7.2.5 13.4.1 9.9-.7 12-.5 16.3 1.1 6.2 2.4 10.1 2.1 10.5-.8.2-1.6-.6-2.5-3.2-3.8-2.4-1.1-3.3-2.1-3-3.4.6-2.3-10.1-9.1-14.2-9-5 .1-9.3-1.2-8.8-2.7.7-1.7-3-3.6-11.8-6.1-5-1.4-6.8-2.3-6.8-3.6 0-.9-.2-2.3-.5-3-.4-1.1 3.2-2.8 14.2-6.7 20.1-7.1 19.3-6.7 19-9.1-.4-2.7-1.4-3.5-2.9-2.2-.7.5-3.5 1.7-6.3 2.5-2.7.9-8.4 3-12.5 4.7-16.9 7.1-23 9.1-25.1 7.9-1.6-.8-1.8-1.3-.8-2.5.6-.8 2-1.4 3-1.4 1.1 0 2.5-1.4 3.5-3.3.9-1.7 2-3.4 2.3-3.7.4-.3 1.7-2 3-3.8 2.5-3.6 3.1-10.5 1.2-14-1.6-2.9-1.4-3.7 1.5-7.1 3.4-4 2.6-6.4-1.9-6-2.9.3-4.4-.6-10.9-6.5l-7.5-6.8.5-4.7c.4-4.8-1.2-8.1-4.1-8.1-.8 0-.7.4.1 1.2m50.8 56.7c-.3.5-1.6 1.1-2.8 1.4-1.3.2-3.2.8-4.3 1.1-1.1.4-.4-.2 1.5-1.3 3.7-2.1 6.5-2.7 5.6-1.2m-20.1 7c-.6.5-2.1 1.1-3.5 1.5-2.1.5-2 .3.5-.9 3.5-1.7 4.2-1.8 3-.6M424.7 221c.6 0 1.9 2.4 2.7 5.3 1.8 6.2 1.6 26-.3 29.5-.9 1.6-.9 2.6 0 4 1 1.5.9 2.4-.4 4.3-1 1.3-1.7 3.1-1.7 4.1 0 1.6-1.1 1.8-11.3 1.8h-11.3l-1.7-3.5c-2.1-4.4-2.1-7.4-.2-11.1.8-1.6 1.5-3.6 1.5-4.4 0-.9 2.5-5.4 5.5-10 5.5-8.5 5.9-9.3 7-16.2.6-3.8 2.6-5 7-4.2 1.1.2 2.5.4 3.2.4m45.1 123.9c.3.8-.1 1.2-.9.9-.7-.2-1.5-1-1.7-1.7-.3-.8.1-1.2.9-.9.7.2 1.5 1 1.7 1.7"/></svg>