<svg xmlns="http://www.w3.org/2000/svg" width="682.667" height="512" version="1.0" viewBox="0 0 512 384"><path d="M265 17.5c0 .9-.6 1.2-1.5.9-1.1-.4-1.3-.2-1 .9.4.8-.1 1.7-.9 2-.9.4-1.3 1.3-1 2.1.4.9-1.4 2.4-5.3 4.6-3.2 1.8-6.6 4-7.6 4.9-1.5 1.3-2.2 1.3-3.9.2s-2.3-1-3.5.2c-1.4 1.3-1.4 1.8.1 3.8 2 2.9 2 5.2.2 8.7-2.9 5.7-2.8 6.9.4 10.5 2.8 3.2 3 3.9 2.1 7.5-.7 3.3-.6 3.9.5 3.5 1.7-.6 1.9 1.3.2 2.3-.7.5-4 .9-7.3 1.1s-7.1.4-8.4.6c-1.9.1-2.6-.4-3.1-2.3-.4-1.9-1.3-2.5-3.8-2.6-1.8-.1-3.5.2-3.8.7s-.9.7-1.4.4c-1.4-.8-3.2 3.3-2.5 5.5.6 1.8.1 2-5 2-4.3 0-6.4-.6-9.2-2.4-4.3-2.9-5.8-2.5-7.3 2-1.8 5.4 2.9 19.4 6.6 19.4.8 0 2.5-1.8 3.8-3.9 1.4-2.2 3.5-4.7 4.8-5.5 2.2-1.6 2.3-1.6 2.6.6.2 1.3 1 3 1.9 4 1.3 1.4 1.3 2-.1 4.7-2.9 5.4-1.6 11.1 2.3 11.1.9 0 5.1-2.3 9.5-5.2 6.2-4 8.2-4.9 9.5-4.1.9.6 1.5 2.1 1.3 3.4-.4 3.1 1.5 11.2 4 17l1.9 4.7-2.9 5.3c-1.6 3-4.9 11.2-7.2 18.4-3 9.2-5.4 14.5-8 18-4.5 6-5.5 8-6.3 12.1-1 5.5 3.7 10.6 13.6 14.5 1.5.6 2.7 1.5 2.7 2s.9.9 2 .9c1.7 0 1.9.7 1.9 7.4 0 4 .5 9.3 1.1 11.7.7 2.4.9 6.3.6 8.7-.3 2.6-.1 5 .6 6.2.8 1.3.9 3 .2 5.7l-.9 3.8-7.6.5c-8.4.6-10.9 1.9-10.9 5.9 0 5.2 5.6 10 15.5 13.2 5.9 1.9 7 4.3 2.8 6-1.5.6-3.5 1.5-4.4 1.9-.9.5-4.1 1.1-7.2 1.5s-6.4 1.3-7.4 2c-1.7 1.3-1.7 1.6 1 6.9 3.4 7 3.4 7.9.1 10.5-2.2 1.7-4.1 2.1-10 2.1-8.5 0-9.4 1.1-4.3 5.4 3.7 3.1 4.4 3.2 6.3.5 2-2.9 6.5-5.5 13.8-8 5.5-1.8 6.8-1.9 12.2-.9 12.6 2.5 11.6 2.5 11.6-.4 0-2 .6-2.7 3.3-3.4 1.7-.5 4.3-.6 5.6-.2 4.1 1 15.3-.6 16.3-2.4.5-.9 1.7-1.6 2.7-1.6 1.6 0 4.9-2.9 6.5-5.8 1-1.7-3.2-8.2-6.1-9.3-3.3-1.2-3.9-3.5-2-7.5 2.4-4.8 3.2-15.3 1.7-19.9-.7-2.1-1.3-6.4-1.4-9.6 0-3.2-.4-6.1-.8-6.5-.5-.4-.5-3.7-.2-7.4.5-5.1.3-7.3-1-9.8-2.1-4.2-2-9 .4-14.3 2.8-6.2 2.5-14-1-36.8-2.2-14.1-3.6-20.3-5.3-23.1l-2.2-3.9 2.1-2.2 2.2-2.1-2.1-5.7c-2.4-6.5-1.8-10.7 1.6-12 2-.8 6.4-6.7 9.6-12.8 1.2-2.4.1-6.6-2.2-8-1.6-1-3.1-7.3-1.7-7.3.6 0 1 .8 1 1.7 0 1.2.3 1.4 1.1.6s.8-2.1.1-4.5c-.6-1.8-1.4-6.8-1.8-11-.6-7.4-.5-7.8 2-10.1 3.1-2.9 3.3-3.7.8-3.7-2.4 0-11.6-16.7-10.6-19 .4-.8.6-1.9.5-2.3 0-.4.4-1.7 1-2.9 1-1.8.9-2-.5-1.5-1 .4-1.6.1-1.6-.8 0-.8-.4-1.5-1-1.5-.5 0-1 .7-1 1.5M232 78c0 .5-.9 1.4-2 2-2.2 1.2-2.3 1-1.4-1.4.7-1.7 3.4-2.2 3.4-.6m28 118.1c.6 1 2 5.4 3.1 9.6 2.1 7.8 2.8 23 1.4 29.5l-.7 2.9-6.6-.7c-3.7-.3-7.2-1-7.7-1.4-1.8-1.4-3.9-10-2.7-11.2.6-.6.7-2.1.1-4.2-.8-2.6-.4-23 .6-26.1.1-.6 2.7-.9 5.9-.7 4.3.3 5.9.8 6.6 2.3m-13.3 74.6c1.2 1.9 1.3 2.6.3 3.8-.7.8-2 1.5-2.9 1.5s-3.6.7-6.1 1.6l-4.5 1.6-2.7-3.3c-2.6-3.1-3.5-5.9-2.3-7.1.3-.3 4.2-.5 8.6-.5 7.3.1 8.2.3 9.6 2.4M426.3 30.8c3.4 3.7 1.5 8.9-2.7 7.8-2.5-.6-3.8.8-1.5 1.6 1.4.5-12.8 14.3-14.7 14.3-.7 0-1.9.6-2.6 1.3-.6.6-1.8 1.2-2.4 1.2-2.7 0-2.4 2.2.6 6 2.9 3.7 3 4 1.5 6.3-3 4.6-3 11.6-.2 18.7 1.5 3.5 2.5 6.5 2.4 6.7-.2.1-3.9 1.1-8.3 2.1-6.2 1.4-7.9 2.2-7.8 3.5.2 2.2-7.3 6.1-13.2 7.1-3.7.5-4.4.3-5.8-1.9-1-1.4-3.3-3.3-5.2-4.2-3.3-1.6-3.7-1.6-7.1.2-3.8 2.1-5.7 5.3-4.1 7.2.5.7.5 1.4-.1 1.7-.5.4.8 2.5 3 4.9 2.2 2.3 5.1 6.1 6.6 8.5 4.7 7.9 8.8 8.2 19.8 1.2 7.9-5 10.5-6 10.5-3.9 0 .6-1.4 5.3-3.1 10.5-2.8 8.5-3 9.8-1.8 12 1.2 2.3 1.1 3-1.3 7.2-1.4 2.6-3.6 9-4.8 14.2s-3.3 13.3-4.6 17.9c-4 13.9-3.2 19.4 3.8 26.4 4.2 4.2 4.9 5.5 5.4 10 .5 4.3.2 6-1.7 9.7-1.5 2.9-2.6 7.2-3.1 12.4-.4 4.5-1.2 10.8-1.8 14.1s-1.4 8.2-1.6 11c-.3 2.7-1 5.4-1.5 5.9-2.6 2.7 2.2 14.6 9.2 23.2 2.2 2.6 3.8 5.2 3.6 5.8-.5 1.6-6.8 2.5-17.3 2.5-9.7.1-11.4 1-9.5 4.9 1.5 3 3.3 8.6 4.4 13.4.9 3.9 1.6 4.9 4 5.8 6.4 2.2 9.8.8 8-3.3-.6-1.2-1.6-4.2-2.2-6.7-.7-2.5-1.5-5.3-1.8-6.4-.5-1.7-.2-1.8 3.8-1.2 2.4.4 7.1 1 10.4 1.4 6.6.8 8.5 1.6 8.5 3.6 0 1.4 8.1 8.6 9.7 8.6 1.2.1 6.3 4.8 6.3 5.8 0 1.7 4 9.9 5.3 11 .7.6 4.2 1.8 7.6 2.6 7.8 1.8 11.5 4.9 10.7 8.8-.7 3.5 2.8 7.8 8.7 10.6 2.4 1.1 4.9 2.7 5.6 3.6 1.5 1.8 3.6 2.2 2.5.5-.6-1.1-1-3.5-1.8-12.4-.2-1.7-.4-3.7-.4-4.6-.2-1.6-7.9-13.7-10.8-17-.8-.8-1.4-2.8-1.4-4.2 0-1.5-.4-2.7-1-2.7-1.6 0-1.2-4.6.5-6s2-4.1.5-5.6c-.6-.6-1.9-2.6-2.9-4.5s-3.8-4.8-6.4-6.4c-2.5-1.7-4.5-3.4-4.3-3.9.1-.5 3.1-1.8 6.6-3 3.6-1.2 8.1-3 10-4.1 6.4-3.8 4.7-10-4.2-15.5-1.5-.9-3.7-2.9-4.9-4.4-2.7-3.4-3.8-11.4-1.8-12.6 1.1-.7 1.1-1.7.3-4.9-.8-3-.7-5.9.4-12.2 1.3-7.4 1.3-9-.2-16.8-2.7-14.3-2.8-14.2 5.7-18.5 16-8.1 16.1-11.3 1.4-27.5-3.6-3.9-7.1-9.2-9.2-14-2-4.2-4.9-10.2-6.5-13.4l-3-5.8 2.4-4.7c1.3-2.6 3.1-6.1 4-7.7.9-1.7 1.6-4.2 1.6-5.7 0-5.8 1-6.1 5.1-1.7l3.8 4.1 5.8-.6c4.5-.5 18.9-1.5 23.6-1.6 1.4 0 .7-3-1.2-4.9-1.1-1.1-1.7-2.2-1.4-2.4 1.3-1.4-2.8-6.3-6.4-7.6-2.1-.7-5.6-2.1-7.8-3.1s-4.8-2-5.8-2.4c-1.2-.4-1.7-1.4-1.5-3.5.3-3.5.8-3.8 8-4.6 8.4-.9 27.2-3.6 28.8-4.2 1.1-.3.8-1-1.4-3-2.2-1.8-3.6-2.3-5.5-1.9-5.4 1.3-36.7 6.6-39 6.6-2 0-2.1-.2-1.1-1.5.7-.8 1.8-1.5 2.6-1.5 3.7 0 9-15.8 7.4-22.3-.4-1.8-.9-3.7-1-4.2-.5-2 .1-3.4 2.6-6.4 2.3-2.8 2.7-6.4.7-5.9q-3.75.75-12.3-7.8c-5.7-5.7-6.3-6.7-5.2-8.4 2.7-4.3.5-11-3.5-11-1.4 0-1.4.2 0 1.8M475 95c0 .5-.8 1-1.9 1-1 0-3.4.2-5.2.5-2.7.4-2.5.2 1.1-.9 5.7-1.8 6-1.8 6-.6m-97.5 18c-.3.5-1.2.7-2 .3-2.1-.7-1.9-1.3.6-1.3 1.1 0 1.8.4 1.4 1m42.8 109.8c2 7.1 3.9 26.4 3.1 31.4-.4 2.4-.2 4.3.6 5.3 1.1 1.3-.1 5.2-3.4 11.2-.2.3-24.1-1.7-25.7-2.2-2.8-.9-4.4-7.8-2.5-10.8.9-1.2 1.5-3.8 1.4-5.7 0-2.1 1.8-8 4.4-14.5 2.5-6.1 4.8-13.1 5.2-15.7.8-5.2 1.6-5.6 10.7-5l4.6.4zM92.3 32.7c-1.7 1.1-2 2-1.4 3.2 2.1 3.9.7 7.5-5.5 13.4-4.4 4.1-6.6 5.6-7.9 5.1-1.1-.5-2.5.2-4.1 1.9-1.3 1.4-2.4 2.9-2.4 3.2s1.3 2.3 2.9 4.5c2.4 3.3 2.7 4.6 2.4 8.7-.4 4.1-.1 5.2 2.1 7.5 1.4 1.6 3.4 2.8 4.5 2.8 2 0 3.7 3.2 2.6 5-.3.5.3 1.9 1.4 3.1 1.8 2 1.9 2.4.6 4.3-.8 1.1-1.5 3.3-1.5 4.9s-.9 4-2 5.4-2 3.2-2 4-1.2 3.4-2.6 5.8c-2 3.5-4.4 5.5-11.3 9.5-4.9 2.7-9.3 5-9.9 5s-1.9 1.1-2.9 2.5c-1.6 2.2-3.2 2.8-10.8 3.9-6.9 1-9.2 1.8-10.6 3.5l-1.8 2.2-2.6-4c-1.4-2.3-3.1-4.1-3.8-4.2-4-.3-9.2.4-17 2.3L0 138.4v27.1l13.7 8.4c69.4 42.5 64 39.9 73.3 36.6 2.4-.8 4.5-1.4 4.6-1.2.2.2-.7 3.2-2.1 6.7s-2.5 8.1-2.5 10.2c0 4.5 2.6 7.4 17.3 19.2 8.5 6.8 11.6 10.6 8.9 10.6-1.9 0-13.3 8.3-15.6 11.3-3 3.9-3.2 5-1.1 6.7.8.7 1.5 1.8 1.5 2.6 0 3-2.9 4.1-12.9 4.7-9.9.7-16.3 1.9-27.3 5.1-6.9 2.1-7.9 1.8-13.8-3.4-2.5-2.2-5.3-4.2-6.3-4.6-2.1-.7-10.3 2.1-25.2 8.4l-11 4.7-.3 6-.3 6L13.1 315c6.7 6.3 13.6 12.9 15.3 14.5 1.7 1.7 12.8 12 24.6 22.9 11.8 11 23.9 22.3 26.9 25.3 3.1 3 6.3 5.3 7.6 5.3 3.6 0 39.9-20.1 44.5-24.6l2.5-2.5-2.6-2.2c-1.4-1.2-11.7-9.5-22.8-18.5s-19.9-16.7-19.6-17.3c.9-1.3 3.7-1.1 5.9.6 4 3 21.7 1.1 23.6-2.6.6-1 1.7-1.9 2.6-1.9 2.2 0 9.2-4.7 10.5-7.1.6-1.2.8-3.8.5-5.8-1.2-8.5-1.3-8.3 1.9-9.4 4.5-1.4 9.4-5.5 10.1-8.2.7-3-1-8.5-3.8-12.1-1.3-1.6-2.2-4.2-2.2-6.7-.1-3.7-.5-4.4-4.4-7-2.9-2-4.5-3.8-4.9-5.8-.3-1.6-1.6-3.8-2.9-4.8s-2.4-2.8-2.4-3.9-.7-2.7-1.5-3.6c-.8-.8-2.4-4.3-3.5-7.8s-3.5-9-5.5-12.2c-1.9-3.2-3.4-6-3.3-6.1.3-.1 6.7-1.9 16.3-4.4 2.2-.6 6.3-2.5 9-4.3 4.3-2.9 5-3.8 5.3-7 .2-2-.7-7-1.8-11-3.3-11.1-13.9-34.3-17.7-38.7-1.8-2.2-3.3-4.9-3.3-6 0-1.2-1.1-4.4-2.5-7.2-2.2-4.2-2.4-5.3-1.3-7.2.6-1.2 1.3-5.9 1.4-10.5.2-6.9-.1-8.7-1.5-10.1-1-1-2-2.6-2.3-3.7-.3-1-.9-2.6-1.3-3.6-.5-1.2.1-1.8 2.4-2.3 1.7-.4 3.1-1.1 3.1-1.6s.6-.9 1.4-.9c2.1 0 4.6-4 4.6-7.4 0-3.6-3.7-16.3-5-17.1-1.6-1-1.1-4.8 1.1-8.4 1.1-1.8 1.9-3.4 1.7-3.5-3.5-2.6-5.7-3.6-7.5-3.6-2.9 0-8-5.2-8.8-9-.4-1.6-2-4.7-3.6-6.9-1.6-2.3-2.9-5-2.9-6.1 0-2.4-1.7-2.5-4.7-.3m-6.4 105.5c4.2 8.2 4.3 9.7.1 9.8-.8 0-2.8.7-4.4 1.5-1.5.8-3.7 1.5-4.7 1.5-1.1 0-1.6.5-1.3 1.4.4 1-1 1.5-5.8 1.9-3.5.3-7.9.4-9.8.3-4.2-.3-22.2-9.5-21.7-11 .4-1.1 9.2-1.4 10.3-.4.3.4.1 1.6-.6 2.7-.9 1.8-.8 2.1.8 2.1 1 0 2.9-1.1 4.2-2.5s3.1-2.5 4.1-2.5 2.1-.5 2.4-1c.3-.6 1.5-1 2.5-1s3.1-1.1 4.7-2.4c2.8-2.3 13.3-8.6 14.4-8.6.3 0 2.5 3.7 4.8 8.2m6.1 22.6c0 .5-.7 2.9-1.6 5.5l-1.6 4.6-8.1-4.1c-7.6-3.8-8-4.2-5.9-5.1 1.7-.8 2.6-.8 3.1.1.8 1.3 10.8.5 11.7-.9.7-1.1 2.4-1.2 2.4-.1M92 287c1.1.6 1.5 2.8 1.7 8 .2 6.2-.2 7.8-2.4 11.4-3.2 5-3.9 5.6-8 5.6-2.5 0-5.4-1.8-13.7-8.6-5.8-4.7-10.6-9.1-10.6-9.7.1-2.1 8.2-5.2 18-6.8 9.2-1.6 11.9-1.5 15 .1"/></svg>