<svg xmlns="http://www.w3.org/2000/svg" width="682.667" height="512" version="1.0" viewBox="0 0 512 384"><path d="M418.9 24.6c1.6 2.1 1.8 3 .9 4.9-1.4 3-4 4-6.8 2.5-1.9-1-2-1-1.1.7.8 1.7-.2 2.8-8.1 8.6-8.7 6.5-9.2 6.7-11.4 5.2-2-1.3-2.4-1.3-2.4-.1 0 .8-.5 1.6-1.1 1.8-.8.3-.3 2.1 1.3 5.3 2.2 4.6 2.3 5.4 1.2 9.5-2.2 8.1-1.5 22 1.1 22 .7 0 1.6.7 1.9 1.6.5 1.3-.6 1.5-8.4 1.2-8.9-.3-9-.3-10.1 2.4-.9 2.2-1.9 2.8-5.8 3.3-2.5.3-7.4 1-10.9 1.6-6.9 1.1-9.6.3-10.7-3.1-.7-2.3-2.7-2.5-9.1-.9-3.7 1-4.8 1.8-6.3 5-1.8 3.7-1.6 4.5 1.2 4 1.7-.3 9.5 8.9 13.1 15.3 2.3 4.1 4.7 7.1 6.1 7.6 3.4 1.3 8.3-.6 15.8-6.1 3.4-2.5 7.4-4.9 8.8-5.2l2.6-.7-3.3 13.1c-2.9 12-3.1 13.2-1.7 15.9 1.3 2.7 1.3 3.2-.5 5.7-1.1 1.6-3.4 6.8-5.2 11.8-3.3 9.2-7.5 18.1-11.4 24.5-3.9 6.2-4.8 11.1-3 16.2 1.9 5.7 6 9.6 12.7 12.3 4.9 2 5.2 2.3 5.5 6 .2 2.1-.7 6.9-1.9 10.7-2.1 6.5-2.1 7.4-.9 15.2 1 6.3 1 9.1.2 11.5-.9 2.4-.8 3.7 0 5.1.9 1.4.9 2.8-.2 5.9-1.1 3.4-1.8 4.1-3.9 4.1-1.4 0-4.5.7-6.8 1.6-3.8 1.5-4.3 2-4.3 4.8 0 4 2.5 8 8.3 13.6 4.3 4 5.9 7 4 7-.5 0-3.2-.9-6.1-2-6.6-2.5-8.9-2.5-12.7 0-1.6 1.2-4.4 2.8-6.1 3.6-1.9.9-4.1 3.3-5.5 6-3 5.6-2 7.8 3.9 8.2 3.8.3 4.1.1 5.1-3.1 1.2-3.5 5-7.6 8.8-9.6 2.7-1.4 5-.5 12.2 4.3 2.9 2 6.1 3.6 7.1 3.6s3.5 2.1 5.5 4.6c3.1 3.8 3.6 4.9 2.7 6.3-2 2.7-5.2 9.4-5.2 10.7 0 1.6 5.7 6.4 7.5 6.4 2 0 3.7 3.7 3 6.1-.4 1.1-1.8 2.4-3.1 3-2.2.8-2.4 1.3-2 5.1.3 2.3 1.1 4.7 1.8 5.3.7.5 1.2 2.2 1 3.7-.4 3.5 1.1 3.6 2.6.3.6-1.4 1.8-2.5 2.5-2.5s2.3-1 3.4-2.3c1.2-1.2 3.5-3.5 5.2-5.1 2.2-2.1 3.1-3.9 3.1-6.1 0-3.3 2-10 4.2-14.4 1.2-2.2 1.7-2.3 7-1.7 3.2.3 5.8.2 5.8-.2 0-.5 1.8-1.6 4.1-2.6 3.7-1.7 4-2.1 3.5-4.7-.3-1.5-.1-3.1.4-3.4 1.3-.8 1.3-5.1 0-7.5-.6-1.1-3.1-3.1-5.5-4.6-2.5-1.4-4.5-3.1-4.5-3.8s2.2-2.3 5-3.5c2.8-1.3 5.2-3.1 5.6-4.3 2.1-6.7 2.6-16.8 1-19.3-2.5-3.8-4.1-14.3-2.5-16.1.9-1.1.8-2.3-.4-5.2-1-2.4-1.8-7.9-2.1-15.7-.2-7.4-1-13.5-2-16-.8-2.2-1.5-5.6-1.5-7.5-.1-3.2.3-3.7 5.1-6 4.1-2 5.4-3.2 6.4-6.2 1.2-3.4 1-4.1-1.7-9.4-1.6-3.1-3.5-6.4-4.2-7.3-3.2-3.7-6.8-11.3-10.2-21.6-1.9-6.1-4.7-12.7-6.1-14.8-2.3-3.5-2.4-4.1-1.1-5.5 1.5-1.7 3.7-8.8 5.9-18.7 1.2-5.4 2.1-6.5 5.4-6.5 3.5 0 6.3-4 7-10.2l.6-5.6-4.5-2.6c-5-2.9-5.3-5-1-6.1 1.4-.3 10.2-1.7 19.6-3 9.3-1.3 17.1-2.6 17.3-2.8.9-.8-.8-3.6-2.4-4.1-1-.3-7.7.5-15 1.8-7.2 1.2-13.4 2.1-13.6 1.8-.3-.2.4-1.8 1.5-3.5 2.1-3.6 2.6-13.4.9-16.8-.9-1.6-.4-2.7 2.6-6.5 2.8-3.4 3.4-4.8 2.5-5.4-.7-.4-2.1-.5-3.1-.3-1.2.3-2.3-.3-3.1-1.9-.6-1.2-3.3-5.3-5.9-8.9l-4.7-6.5 2.3-2.1c3.7-3.3 3.1-7.8-1.3-10.2-3.3-1.7-3.6-1.4-1.4 1.5M453.3 85c-1 1-26.2 4.4-27 3.7-.3-.3 1-.8 2.8-1.2 24.5-4.3 26.4-4.6 24.2-2.5m-85.8 11.9c-2.5 1-14.1 2.4-13.3 1.6.7-.7 9.1-2.2 12.8-2.3 2.2-.1 2.3 0 .5.7M366 100c0 .6-1.7 2.9-3.9 5.2l-3.9 4.2-2.1-4.2c-1.6-3.2-1.8-4.3-.9-4.7 4.9-1.6 10.8-1.9 10.8-.5m42.7 118.7c2.8 7.4 6.7 26.3 6.7 32.9.1 2.8.7 5.8 1.5 6.8 1.2 1.5 1.2 2.2-.2 5.2-1 1.9-1.7 5-1.7 6.9 0 1.8-.4 3.6-.9 3.9-.4.3-5.2-.6-10.6-1.9-5.4-1.4-11.2-2.5-13.1-2.5-7.7 0-10.9-3.9-8.5-10.5.7-2.1.8-4.1.2-5.6-.9-2.4 2.2-22.7 5.1-33.2l1.3-4.9 5.6-.4c3.1-.2 6.7-.8 8-1.3 4-1.6 4.3-1.3 6.6 4.6M247 26.1c0 1.9-.2 2-1.6.8-1.5-1.2-1.6-1.1-1 .8.4 1.2.2 2.4-.4 2.8s-.7 1.2-.1 2.3c1.4 2.6-11.5 13.2-15.2 12.5-4.1-.8-5.1 3-2 7.6 1.4 2.1 2.1 4.1 1.7 5s-.9 3.2-1.2 5.2c-.3 3.2 0 4 3.2 6.5 3 2.4 3.6 3.5 3.6 6.6 0 2.9.3 3.6 1.5 3.2.9-.4 1.5 0 1.5.9 0 1-2.1 2.1-5.7 3.3-3.2.9-6.9 2.5-8.3 3.4-4.4 3-6.8 3.3-7.9 1.1-1.5-2.7-7.5-2.3-10.7.8-2.2 2.1-2.2 2.4-.8 4.5 1.3 2.1 1.3 2.5-.1 3.6-2.2 1.8-11.7 2.5-15.6 1.1-2.7-.9-3.4-.8-4.5.7-.7.9-1.4 2.5-1.4 3.5 0 4 7.8 15.7 10.5 15.7.7 0 1.9-1.5 2.5-3.4 1.2-3.8 4.6-8.6 6-8.6.5 0 1 2.4 1.2 5.2.3 5.1.4 5.3 3.5 5.6 2.3.2 4-.5 6.5-2.6 4-3.4 8-6.2 9-6.2.3 0 .9.9 1.3 1.9.3 1 1.9 2.4 3.5 3.1 1.7.7 3 1.9 3 2.6 0 .8 1.4 4.2 3.1 7.5l3 6.1-3 4.6c-1.6 2.6-5 9.7-7.5 15.9-2.5 6.1-6 14.2-7.9 18-9.5 19.1-8.8 22 7.8 30.3l5 2.6.7 7.4c1.1 10.3 1.1 12.1.2 15.4-.4 1.9-.3 3.1.7 3.6 1 .7 1 1.4.1 3.4-1 2.2-1.8 2.6-5.6 2.6q-8.85 0-11.1 5.4c-1.7 4.1-.3 7.5 4.3 10.6s11 5.9 13.8 5.9c2.6.1 3.8 2.5 2 4-2.2 1.8-9.7 4.1-13.5 4.1-4.9 0-11.1 1.8-11.2 3.3-.2 1.7-.2 1.6 2 7.6 2.2 5.9 1.8 7.9-2.4 10.7-1.8 1.2-4.3 1.5-10.1 1.2-8.8-.4-9.8.4-5.9 5.1 3.2 3.8 6 4 8.7.6 2.5-3.3 4.3-4.2 13.8-7l7.8-2.3 7.7 1.9c6.3 1.6 8 1.8 9.2.7.9-.7 5.4-1.6 10.1-1.9 7.1-.6 8.9-1.1 10.3-2.8 1-1.2 2.6-2.1 3.6-2.1 3.1 0 10.2-9.2 9.5-12.3-.2-.9-1.7-2.4-3.3-3.2-5-2.6-4.8-5.8.6-11.6 5.5-5.9 5.6-8.3.5-11.7-4.2-2.8-6-6.7-6.6-14.1-.5-6.7-1.9-18-2.5-20-.2-.8.5-1.7 1.8-2 3.8-1 8.2-5.8 9.4-10.3 1.6-5.9.7-15.7-2.4-25.8-1.4-4.7-3.3-12.6-4.2-17.5-.9-5-2.5-11-3.6-13.4-2-4.7-2.5-8.1-1-8.1 2.1 0 2-3.6-.4-8.8-2.9-6.4-2.6-8.1 2.1-12.9 3.8-3.8 7.4-10.6 7.4-14 0-1.7-.7-2.4-2.7-2.9-5.5-1.2-5.6-1.2-3.4-4 1.2-1.5 2.1-3.3 2.1-4.1s.3-1.2.8-1c1.2.8.8-5.6-.6-8-.7-1.2-2.1-5-3.2-8.4-1.9-6.4-1.7-8.2 1.4-10.9 2.4-1.9 2-2.7-3-5.1-2.5-1.3-5-3.1-5.5-4-.5-1-1.5-2.4-2.1-3.1-4.7-5-5.1-5.8-3.9-7.2.9-1 .9-1.6.1-2.1-.6-.4-.8-1.6-.4-2.7.5-1.7.3-1.9-1.5-1.3-1.6.5-2 .3-1.5-.8.3-.8.1-1.8-.5-2.2-.7-.3-1.1.3-1.1 1.6m1.2 177.1c2 1.7 6.7 13.9 6.7 17.5-.1 1.5 0 3.5.2 4.3.1.8.1 3.2.1 5.4l-.2 3.9-6-.6c-3.4-.3-6.7-1-7.4-1.7-2.8-2.2-.9-26.3 2.2-28.8.9-.6 1.9-1.2 2.2-1.2s1.3.6 2.2 1.2m-19.8 65.4c4.4.6 4.6.8 4.6 3.9 0 3.7-1.4 5.2-5.8 6.1-3 .6-3.3.4-5.2-4.1-2.8-6.6-2.4-7.1 6.4-5.9M81 42.9c0 .6-.6 1.1-1.3 1.1-1 0-1.4 1.5-1.3 5.2.1 5.3.1 5.3-5.9 10.5-4.3 3.8-6.9 5.3-9 5.3-1.8 0-3.9 1-5.2 2.4-2 2.1-2.1 2.5-.7 3.7 3.2 2.7 4.7 7 4 12.5-.6 4.9-.4 5.4 2.5 7.8 1.7 1.4 3.7 2.6 4.5 2.6.9 0 1.4 1 1.4 2.7 0 1.6.9 3.9 2 5.3 2.1 2.7 2.6 5.5 1 6.5-.5.3-1 1.7-1 3.1 0 1.3-.4 3.2-1 4.2-.5.9-1.6 3.4-2.4 5.5-1.6 4-5.6 6.3-17.6 10.2-3 .9-6.2 2.6-7 3.6-1.1 1.3-4.1 2.3-10.5 3.3-4.9.8-9.9 1.7-11.1 2.1-1.7.5-2.5-.1-4.2-2.9-2.7-4.6-3.8-5-11.7-4.1l-6.5.7.2 20.1.3 20.1 24 15.3c13.2 8.5 27.1 17.4 31 19.8 7 4.5 11.2 5.5 16 3.6 1.2-.5 3.1-.2 5 .8 1.6.9 3.2 1.7 3.3 1.8.2.1-1 2.2-2.8 4.7-4.4 6.5-6.2 11.3-5.5 14.7.7 3.2 5.3 7.5 11.7 11.2 17.3 9.8 19.1 11.1 17.7 11.6-6.9 2.8-16.6 12.9-16.1 16.8.4 2.5 1.1 2.2-13.8 4.8-5.2 1-14 3.1-19.4 4.7-12 3.7-14 3.8-17.4.6-4.8-4.5-8-6.1-10.8-5.4-1.4.4-7 2.5-12.5 4.8L1 288.3v28.8l24.3 23.7c13.3 13 28.5 27.8 33.8 32.9l9.5 9.3h16.2l16.8-9.5c9.3-5.3 17.6-10.3 18.6-11.2 2.5-2.2 2.2-4.8-.6-6.7-6.7-4.4-41.1-34.1-41.4-35.7-.4-2.3 1.5-2.4 4.2-.4 2.5 1.9 10.8 1.9 18 .1 7.1-1.9 8.2-2.5 14.6-8.4 5.1-4.8 5.3-5 4.6-9-.5-3.4-.2-4.6 1.4-6.2 1.1-1.1 2.7-2 3.5-2 2.8 0 15-6 16.7-8.3 2.3-2.9 2.2-8.9-.2-13.6-2.2-4.4-8.9-9.6-17.3-13.6-3.9-1.9-5.9-3.5-6.3-5-.3-1.3-1.4-3.1-2.5-4.1-1-.9-1.9-2.6-1.9-3.6 0-2.6-1.8-5.8-3.3-5.8-.7 0-2.9-2.7-5-5.9-2.1-3.3-4.5-6.2-5.3-6.5-.7-.3-1.4-1.1-1.4-1.8 0-.9 1.3-1.2 4.5-1 2.6.3 6.2-.3 8.5-1.2 2.2-.9 5.3-1.6 6.8-1.6 4.6 0 19.2-8.2 21.2-11.9 2.4-4.6.7-9.5-9.5-26.1-2.9-4.7-7.1-11.9-9.5-16-2.3-4.1-5.6-8.9-7.2-10.7-1.7-1.7-2.8-3.7-2.6-4.5.3-.7-1-4-2.8-7.3-2.6-4.7-3.5-8-4.3-15-.6-5-1.9-11.4-3-14.4-1.7-4.5-1.8-5.5-.6-6.7.7-.8 1.9-1.4 2.5-1.4s.8-.5.5-1c-.3-.6.3-1 1.5-1 1.5 0 2.6-1.1 3.7-3.8 1.5-3.6 1.5-4-1.7-13.5l-3.3-9.8 1.9-3.7c1-2 2-4 2.2-4.5.2-.4-.2-.7-.8-.7s-1.8-.7-2.6-1.5c-.9-.8-2.6-1.5-3.9-1.5-2.9 0-8.5-6.2-8.5-9.3 0-1.3-1.3-4.4-2.9-6.9s-3.1-5.4-3.3-6.4c-.3-2-3.8-3.3-3.8-1.5m-9.5 96.8c.4 2.1 2.2 5.9 4.1 8.6 1.9 2.6 3.4 4.9 3.4 5.1s-1.7.4-3.7.5c-7.6.2-9.8.6-11.3 2.3-2.7 3.1-10.6 2.6-17.5-1.1-3.3-1.8-6.4-3.7-6.9-4.2-1.1-1 3.2-6.1 4.4-5.4.4.3 1.3-.1 1.9-.9.7-.8 2-1.2 3-.9 1 .2 4.2-.8 7.2-2.2 5.7-2.9 11.7-5.3 13.5-5.4.7-.1 1.5 1.6 1.9 3.6m-35.2 6c1.2.7-.3 2.3-2.1 2.3-.9 0-2.8-.9-4.2-2.1l-2.5-2 4 .7c2.2.4 4.3.9 4.8 1.1M85 166.9c0 1.3-2.1 7.1-2.6 7.1-.3 0-2.8-1.2-5.7-2.7l-5.2-2.7 5-1.2c6.2-1.5 8.5-1.6 8.5-.5m-4.5 118.6c3.2 3.1 3.1 3.9-.5 6.5-2.5 1.8-2.8 2.5-1.9 3.6.6.8 2 1.4 3.1 1.4 3.4 0 3.4 3.1 0 6-1.8 1.5-3.2 3.1-3.2 3.6s-1.1 2.2-2.4 3.9c-2.2 2.7-2.6 2.8-5.9 2-4.2-1.1-25-18.1-24.4-19.8.2-.7 1.2-1.3 2.3-1.5 1-.1 3.7-1.1 5.9-2.1 3.9-1.9 19.2-5.9 22.8-6 1-.1 2.9 1 4.2 2.4"/></svg>