<svg xmlns="http://www.w3.org/2000/svg" width="682.667" height="512" version="1.0" viewBox="0 0 512 384"><path d="M335 47.1c-5.8.8-21.5 8.3-25.8 12.3-1.3 1.1-3.1 3.7-3.9 5.6-2 4.8-1.2 15.9 1.8 22.5 1.3 2.7 2.4 5.5 2.5 6.2s-2.3 3.1-5.4 5.4c-15.2 11.4-23.5 20.3-30.6 33.1-5.1 9.3-6.4 13.5-8.7 26.8-2.1 12.6-4.1 19.6-7.1 24.7-2.4 4-1.8 4.1 2.6.8 1.8-1.4 3.6-2.5 4.1-2.5.4 0 .5 3 .2 6.6-.6 8.1.6 12.2 4 13 1.7.5 3.1 2.1 4.7 5.9 2.3 5.1 5.3 7.6 6.6 5.5.5-.8 1.7-.3 3.6 1.2 5.1 4.2 12.7 8.8 14.4 8.8.9 0 2.5.9 3.4 1.9 1.6 1.7 1.6 2.5.6 5.6-.7 2-2.5 5.2-4.2 7.1-3.8 4.3-3.1 6.6 3 9.4 5.6 2.6 7.2 4.4 7.2 8.3 0 2.3-.6 3.1-3 4-2.2.8-3 1.8-3 3.6 0 3.3-17.8 43-20.7 46.2-3 3.3-2.9 4 .7 6.1 3.2 1.8 3.2 1.2-.1 9.3-1.6 4-11.9 34.1-13.9 40.7-.8 2.5-.7 2.6 1.3 1.7 1.2-.6 3.8-3.1 5.7-5.6 1.9-2.6 4-5.2 4.7-5.9 2.2-2.1 19.3-26.7 19.4-27.8.1-.6.4.2.8 1.9.8 3.6 2.2 3.7 3.9.2.7-1.4 2.3-3.5 3.7-4.5 1.7-1.3 2.2-2.5 1.8-4-.5-2.1 8.6-25.3 10.9-27.7.5-.6 2.1-1 3.6-1 2.3 0 2.7-.4 2.5-2.5-.1-1.4.3-3.9.8-5.5.8-2.8 1.3-3.1 4.3-2.7 2.2.3 6.7-1 14-3.8 5.9-2.3 11.3-3.9 12.1-3.6s3.3 4.4 5.5 9.2c2.2 4.7 6.2 12.2 8.8 16.7l4.9 8.2-.4 10.2-.5 10.3-3.4 2.1c-4.5 2.7-7 7.8-10.6 21.4-2.7 10-2.9 11.5-1.8 16.2.8 3.7.8 6.3.1 9-.6 2.1-1.1 4.4-1.1 5 0 1 16 1.3 76.5 1.3H512v-55.8l-5.7-4.2c-4.8-3.5-6.3-5.4-8.8-10.9-1.6-3.6-5.9-10.4-9.4-15.1l-6.4-8.4 2.2-17.1c1.2-9.3 2.6-19.7 3.1-23 2.3-15.6 4-37.3 4-52.4-.1-27-3.7-47.1-11.9-65.5-2.9-6.6-3.7-9.4-3-10.7 1.5-2.8 1.1-9.2-1.1-16-4.3-14-19.9-33.8-31.7-40.1-11.3-6.1-24.1-7.2-35.5-2.8-4.9 1.9-5 1.9-11.6-.2-3.7-1.2-11-2.4-16.2-2.7-8.5-.5-10-.9-14-3.7-2.5-1.7-6.3-4-8.5-5.1-3.8-2-13.3-4.4-15.8-4.2-.7.1-3.7.5-6.7 1"/></svg>