<svg xmlns="http://www.w3.org/2000/svg" width="682.667" height="512" version="1.0" viewBox="0 0 512 384"><path d="M390.8 25.9c5.3 5.2-.1 11.6-7.3 8.6-1.9-.8-1.9-.8-.2 1.2s1.6 2.1-5.3 6.4c-12.8 8-15.4 9-19.2 7.4-2.5-1-2.3.9.7 7.3l2.4 5.2-2 3.5c-1.6 2.7-2 4.5-1.5 8.2.3 2.7.8 7 1.1 9.8.9 8 1.4 9.3 3.5 10 1.1.3 2 1.1 2 1.6 0 1.3-10 1.1-13.9-.2-2.9-1-3.5-.9-5.9 1.4-1.9 1.8-4.3 2.7-8.4 3.2-5.4.7-5.6.6-5.1-1.4.7-2.6-2.8-4.1-9.5-4.1-8.2 0-12 1.6-14.2 6-2.4 4.8-2.5 5.2-.2 4.8 1-.1 2.7.6 3.8 1.7 1.8 1.7 2.2 3.7 2.7 12 .7 11 1.6 12.5 7.1 12.5 3.5 0 12.5-3.9 17.1-7.4 5.1-3.9 13.7-4.1 10.7-.3-3.1 3.9-4.3 25.6-1.7 30.7 1.4 2.7 1.3 3.1-2 8-1.9 2.9-3.5 5.7-3.5 6.2 0 .6-2.2 5.6-4.9 11.2-3.5 7.2-6.9 12.4-12 18.1-9.5 10.7-11 15.7-6.7 22.9 2.4 4.1 9.9 9.4 16.8 12.1 10.4 3.9 9.8 3.4 9.8 7.6 0 2.1-.7 5.7-1.6 7.9-1.3 3.2-1.6 6.5-1.2 15.8.3 6.4 0 13-.5 14.5-.7 2-.6 3.5.3 5.2 1 1.8 1 3.1 0 5.9-1.1 3.5-1.3 3.6-6 3.6-6 0-15.7 3.5-16.4 5.8-1.9 6.4-1.7 8.8.8 12.5 3.2 4.7 3.2 5.5.1 6.7-2.1.8-2.5 1.7-2.7 5.2 0 2.4-.2 5.4-.2 6.8-.1 1.4-1.2 4.3-2.5 6.3-1.3 2.1-2.2 3.9-2 4.1 3.4 2.5 6 3.6 8.9 3.6 3.3 0 3.6-.3 5.8-5.9 1.2-3.2 2.2-6.5 2.2-7.2 0-.8.4-2 .9-2.8.8-1.2 1.6-1 4.8 1.2 2.1 1.4 5.9 3.1 8.5 3.7 3.7 1 5.2 2 7 4.9 5.5 8.5 6.1 11.1 2.8 13.4-3.4 2.4-8 8.9-8 11.3 0 1.7 1.2 3.3 4 5.2 2.1 1.5 4.1 3.3 4.4 4 .9 2.1-2.2 7.2-4.3 7.2-3 0-5.1 1.1-5.1 2.5 0 1 2.5 1.4 10.1 1.7 5.5.2 10.7-.1 11.5-.5.7-.4 1.8-2.5 2.4-4.7.7-2.4 2.2-4.7 4-6 2.3-1.6 3-2.9 3-5.5 0-2.2.9-4.5 2.7-6.5 2.4-2.9 3.1-3.2 6.7-2.7q4.05.6 6-.9c1.1-.8 2.9-1.4 4-1.4 1.2 0 3.2-.9 4.6-2 2.1-1.6 2.3-2.2 1.3-3.8-1.3-2.2-.8-3.2 1.7-3.2 1.2 0 2-1.1 2.4-3.1 1-5.1.8-5.7-3.4-10.3-3-3.2-4-5.1-3.9-7.2.1-1.6-.1-5.2-.5-8-.5-3.4-.4-5.4.3-5.9.6-.3 1.1-1.6 1.1-2.9s.7-3.6 1.5-5.3c1.1-2.1 1.2-3.8.6-6-.5-1.8-.7-3.4-.4-3.7s.1-1.1-.5-1.8c-.5-.7-1.7-3.7-2.6-6.6-1.4-4.8-1.4-5.6 0-7.7.9-1.4 1.2-3.3.8-4.9-.3-1.5.1-5.4 1.1-9.1 1.7-6 1.7-6.9.2-12.2-2.8-10.1-4.1-22.1-2.7-23.8 2.1-2.5 1.3-15-1.5-23.5-1.3-4.1-3.6-13.8-5-21.5-1.7-9-3.5-15.6-5.1-18.4-2.9-5.3-2.9-5.2-.4-8.1 2.3-2.6 2.4-3.8 1-7.6-1.9-4.9 3.8-20.4 7.5-20.4 2.1 0 5.6-4.7 6.2-8.3 1.1-6.8-.2-10-5.2-12.7-4.8-2.6-5.2-3.8-1.7-5.6 1.2-.6 3-1.8 4-2.7 1.6-1.5 9.2-2.7 36.2-5.7 14.2-1.6 15.8-1.9 16.3-3.3.9-2.3.7-3.2-.5-3.2-.7-.1-1.2-.6-1.1-1.3.4-1.5.8-1.5-7.4.2-3.7.8-12.4 2.2-19.3 3-6.9.9-13.9 1.9-15.7 2.2l-3.1.6 1.3-3.9c1.7-4.6 1.8-9.5.4-14.7-1-3.5-.9-4 1.8-6.8 2.4-2.5 4.2-8.5 2.2-7.2-.4.2-1.1-.1-1.4-.7-.4-.5-1.3-.8-2-.6-.7.3-1.9-1-2.9-3-.9-1.9-3.4-6.1-5.6-9.4l-3.9-5.9 2.9-2.8c4.3-4.4 2.5-9.8-4-11.7l-2.5-.7zm50.3 63.5c-1 1.2-3.8 1.7-18.6 3.2-2.7.3-8.3.9-12.3 1.5-8.4 1-10.8 1.1-10 .4.3-.3 8.1-1.7 17.4-3 9.3-1.4 17.4-2.7 17.9-2.9.6-.3 2.3-.5 3.9-.5 2.3-.1 2.6.2 1.7 1.3m-129.5 12.3c-1 1-1.9-.5-1-1.8.6-1.1.8-1.1 1.2 0 .2.7.1 1.5-.2 1.8m30.4.3c-.8.5-2.8.9-4.5.9l-3-.1 3-.8c1.7-.4 3.7-.8 4.5-.9 1.3-.1 1.3 0 0 .9m39.5 143.9c3.2 8.1 3.7 10.7 3.7 17.1-.1 11.4-.6 16.3-2 18.8-.9 1.5-1.1 3.8-.7 6.6.4 2.4.4 5.9 0 7.6-.6 2.6-1.1 3.1-2.9 2.7-1.1-.3-6.6-1.5-12.1-2.7-8-1.6-10.5-2.6-12.3-4.7-1.9-2.1-2.2-3.3-1.7-5.7.4-1.7.7-5.1.6-7.6 0-5.5 2.4-21.9 4.8-31.9 2.1-8.7 3.2-9.5 12.4-9.7l6.4-.1zM195.3 28.2c.5 3.3.1 3.4-2.7 1-2-1.7-2-1.7-.3 1.1 1.6 2.4 1.6 2.8.2 3.3-1.4.6-1.4.8.2 1.9 1.5 1.1 1.6 1.6.4 3.8-2.7 5.1-11.5 13.2-14.5 13.4q-8.25.3.6 9.6c2.2 2.3 2.8 4 3 8.5.3 5.2.6 5.9 3.5 7.7 1.8 1.1 3 2.6 2.8 3.2-.3.7-.8 2-1.2 3s-.2 1.4.4 1c1.1-.7 2.3 1.3 2.3 3.8 0 .8-1.9 2-4.2 2.6-5.6 1.6-6.2 2.2-4.7 4.7 1.1 1.7.9 2.5-1.4 5.5-2.4 3.2-3 3.5-6.6 3-2.2-.3-4.1-.1-4.5.5s-1.4.8-2.2.5c-1-.4-1.7.2-2.1 1.6-.3 1.1-.9 2.1-1.4 2.1-1.6 0-1 2.6 1 4.4 4.3 3.9-2.3 10-11.9 11.1-8.4.9-10 1.4-10 2.9 0 2.5 7.9 11.4 12.5 14.2 5.4 3.1 7 2.4 8-3.9 1.2-7.6 1.4-8.1 3.4-6.3 1 .9 2.9 1.6 4.3 1.6 2.4 0 11.8-6.4 11.8-8.1 0-1.6 3.7-.9 5.4 1 1 1 3.3 2.2 5.1 2.5 5.6 1.1 9.5 7.7 6.1 10.5-2 1.7-15.9 34.5-19 45.1-2.7 9-3.8 17.8-2.6 20 1 1.9 3.9 3.7 11.7 7.4 4.4 2.2 4.7 3 2.7 8.1-1.5 4-1.5 5.4-.4 11.9 1 5.7 1 7.8 0 9.6-.9 1.8-.9 2.7 0 4.5 2 3.7.6 6.9-3.8 8.8-3.9 1.7-7.2 6.6-7.2 10.8 0 2.9 5.5 7.6 13 11.2 9 4.3 9.8 5.9 3.7 7.3-1.7.3-4.1 1.3-5.1 2-1.1.7-5.3 2.1-9.4 3-4.2.9-7.6 2.2-7.9 3.1-.7 1.7 1.5 9.8 3.6 13.6 1.6 2.9 1.6 2.9-2.9 6.8-5 4.4-6.6 4.8-13.3 3.5-4-.7-5.1-.6-6.7.9-2.7 2.4-2.5 4.7.5 7.5 1.7 1.6 3.7 2.4 6.7 2.4 3.9.1 4.4-.2 6-3.3 1-1.9 2.8-4.1 4-4.7 8.4-4.6 19.2-8.5 20.4-7.5 2.7 2.3 10.8 4.3 15.2 3.7 7.3-1.1 14.2-3.6 14.2-5.2 0-.8.8-1.7 1.8-2.1 2.8-1 6.2-4.5 6.2-6.4 0-2.4 2.7-4.9 5.4-4.9 1.2 0 3.1-.6 4.1-1.4 1.7-1.2 1.8-1.7.7-4-.8-1.7-2.2-2.9-4.2-3.2-3.4-.7-3.8-2.3-1.4-5.9.8-1.3 1.7-4.1 1.9-6.1.2-2.1.9-4.3 1.7-4.9 2.8-2.3 6.6-7.1 7.2-9.2.5-1.7 0-2.8-2.2-4.8-2.2-1.9-3.2-3.9-3.6-7.3-1.1-7.7-2.7-14.5-4.4-18.2-1.7-3.8-5.2-13.4-4.9-13.6.1 0 2.3-.8 4.8-1.7 2.5-1 6.1-3.3 8-5.3 4.7-4.8 4.7-10.5.1-19.3-4.3-8.2-6.1-15.2-7.3-28.6-1.2-13.7-1.6-16-3.4-19.6-1.9-3.6-1.9-5.4.1-8.4 1.5-2.3 1.4-2.8-1.1-9.1-1.6-4.1-2.5-7.7-2.2-9.3 1.5-7 2.2-8.9 4.9-13 1.6-2.4 2.7-4.9 2.4-5.6-.2-.6-3.8-2.8-8-4.8l-7.5-3.6 2.5-5.8c2.2-4.9 2.4-6.3 1.5-9.3-.5-1.9-1.3-5.3-1.6-7.5-.4-2.2-1.3-5-2.1-6.3-1.3-2-1.2-2.6.8-6.1 2.1-3.7 2.1-4.1.6-5.8-.9-1-3.8-2.4-6.5-3.2-4.6-1.3-8.5-3.4-12.8-6.6-1.5-1.2-1.7-1.8-.7-2.4.9-.6.8-1.5-.6-4.4-1.3-2.7-2.1-3.4-2.9-2.6s-1.6.4-2.8-1.7l-1.6-2.9zm21.6 197.2c7 9.7 9.5 16.1 8.8 22.4-.7 6.5-1.3 6.8-11.4 5.5-7-.9-9-1.5-10.5-3.3-1.4-1.7-1.5-2.6-.7-4.2.6-1.1.8-3.6.5-5.6-.9-5.2 2-20.4 4.1-22 .9-.6 2-1.2 2.4-1.2s3.4 3.8 6.8 8.4m-28.1 72.4c.3 1.9-.1 2.3-1.5 2-1-.2-1.9-1.4-2.1-2.6-.3-1.9.1-2.3 1.5-2 1 .2 1.9 1.4 2.1 2.6M11.6 42.5c-.3.8-1.2 1.5-2 1.5-1.2 0-1.3.5-.7 2.2.5 1.3.5 3.4 0 4.7s-.7 2.6-.5 2.9c.3.2-1.4 1.8-3.7 3.6L.5 60.6.2 85.5C0 109 .1 110.4 1.9 112.4c1.8 1.9 1.9 2.6.9 6.4-.8 3.1-.7 4.6.1 5.6s.9 1.6.1 2.1c-1.2.8-1.3 5.5-.1 7.4 1.2 1.8.3 4.1-1.5 4.1-1.1 0-1.4 1.6-1.4 6.4v6.5l3.2-1c3.4-.9 4.8 0 4.8 3.4 0 1 2 4 4.5 6.6s4.5 5 4.5 5.2-3.7.4-8.2.4H.5l-.3 31.7C.1 214.7.1 229 .3 229s3-.9 6.2-2 6.1-2 6.5-2c.3 0 1.6 2.3 2.8 5.1l2.3 5-2.9 3.7c-4.3 5.5-5.2 7.6-5.2 12.3 0 3.7.6 4.8 4.3 8.4 2.4 2.3 10.3 7.6 17.5 11.9 7.3 4.3 13.2 8.1 13.2 8.5 0 .3-1.1 1.3-2.4 2.1-7.5 4.8-10.5 7.2-14 11.4-3.1 3.9-3.6 4.9-2.5 6.2 2 2.4-.1 3.6-12.9 7.4-11 3.3-11.7 3.7-12 6.3-.4 3.2-.2 3.3 6.8.7 9.9-3.6 12.4-2 9.9 6.7-1.1 4-1 4.6.4 5.5 2.8 1.5 1.9 3.4-3.4 7.4-2.7 2.2-5.6 5-6.2 6.4-.7 1.4-2.7 3.2-4.4 4L1 345.5V383h18c9.9 0 18-.3 18-.8 0-.4-5.2-5.9-11.5-12.2S14 358.2 14 357.8c0-.3 2.6-.9 5.8-1.2 8.3-.9 15-2.5 20.8-5.1C46.2 349 57 338.9 57 336.2c0-2.2 14.7-15.5 22.7-20.5 2.3-1.5 4.4-3.5 4.8-4.6.9-3.1-1.3-9.8-4.5-13.4-2.5-2.9-2.8-3.9-2.3-7.5s.2-4.7-1.7-6.7c-1.3-1.4-2.9-2.5-3.5-2.5-1.4 0-7.5-6.2-7.5-7.6 0-.6-1-2.1-2.3-3.4-1.2-1.4-2.1-2.9-1.9-3.3.7-2.2-1.3-5-4.3-6.3-2-.8-4.2-3-5.8-5.6-1.4-2.4-4.6-5.8-7.1-7.7s-4.6-3.9-4.6-4.4c0-.6.5-.5 1.3.1.6.5 3.7 1 6.7 1.1 7.5.1 25-6.2 31.9-11.5 4.8-3.6 5.1-4 4.5-7.4-1.4-7.5-5.4-19-10.2-29.6-6.5-14.1-8.7-18-13-22.6-1.9-2-3.2-4-2.8-4.6.3-.5-1.1-4.2-3-8.3-2-4.1-5.6-12.1-8.1-17.9s-6-13.3-7.9-16.7-3.4-6.3-3.4-6.6c0-.2 1.2-1.7 2.6-3.3s3-4 3.5-5.4c1.3-3.2.2-14.1-2-20-1.9-5-1.5-7.3 1.9-11.7l2-2.5-2.4-1.9c-1.3-1.1-3.5-1.9-4.9-1.9-3 0-11.2-9.1-11.2-12.6-.1-3.2-6.7-15.4-8.3-15.4-.7 0-1.5-.7-1.8-1.5-.4-.8-1-1.5-1.4-1.5s-1 .7-1.4 1.5m11.2 137.3c.9.7.9 1.9-.3 6-.9 2.9-2 5.2-2.5 5.2-.9 0-8.1-4.1-13.7-7.7l-2.7-1.8 5.9-1.1c7.4-1.4 11.6-1.6 13.3-.6"/></svg>