<svg xmlns="http://www.w3.org/2000/svg" width="682.667" height="512" version="1.0" viewBox="0 0 512 384"><path d="M384 23.2c2.6 2.8 2.5 4.1-.4 7.5-2.2 2.6-2.7 2.7-5.5 1.6-1.7-.6-3.1-.7-3.1-.2s.5.9 1 .9c2.6 0 .3 2.3-7.2 7.3-11 7.1-14.9 9-16.2 7.7-1.4-1.4-3.6-1.3-3.6.2 0 .6 1.1 3.5 2.5 6.3l2.4 5.2-2 3.9c-2.1 4.1-2.1 5.3 0 18.9 1.3 7.8 2.1 10.6 3.1 10s4 2.2 4 3.7c0 .6-1.4.8-3.7.3-2.1-.4-5.1-.8-6.8-1-1.6-.2-4.3-.7-5.8-1-2.1-.6-3.3-.2-5.1 1.4-1.7 1.6-4.3 2.3-12.6 3.2-9.5.9-10.6.9-11.7-.7-.7-1-1.3-2.4-1.3-3.1s-1.2-1.6-2.7-1.9c-1.6-.4-3-1-3.3-1.4s-4.1 0-8.5.9c-7.6 1.5-8.1 1.8-10.9 6-2.3 3.4-2.6 4.5-1.5 5.1.7.5 1.8.5 2.5-.1.8-.6 1.3-.3 1.7 1.1s1.3 2 3.5 2c2.6 0 3.3.6 5.4 5.2 1.4 2.9 3.3 7.7 4.2 10.6 1 2.9 2.6 5.7 3.6 6.2 3.5 1.9 10.9 1.1 16.7-1.6l5.6-2.7 1.9 2.4 1.8 2.4 2.5-2.8c1.4-1.6 3.3-2.7 4.3-2.5 1.8.4 1.8.2.6 14.1-.5 5.9-.3 9.2 1 14.1l1.7 6.3-2.4 3.7c-1.4 2-3.9 7.1-5.7 11.4-5.4 13.2-9.6 21.5-13.1 26.2-5.8 7.6-8.1 12.3-8.6 17.6-.4 4.3-.1 5.7 1.8 8.4 2.6 3.4 14.4 11 17.2 11 2.7 0 5.7 3.2 5.7 6.1 0 1.5-.7 4.6-1.6 7-.8 2.4-1.6 7.5-1.6 11.4-.1 11.8.8 29.9 1.6 31.7 1.1 2.4-3 9.9-4.9 9.1-2.2-.8-10.6 1.7-13.1 3.9-2.9 2.6-3.8 9.8-1.8 14.1.9 1.8 3.1 4.3 5 5.6 4.5 3.1 4.3 4.4-.3 3.7-8.8-1.5-11.5-1.1-13.7 2-1.1 1.6-3 3.8-4.2 4.9s-2.5 3.1-2.9 4.5-1.9 4.2-3.2 6.3c-1.4 2.2-2.3 4-2.1 4 .2.1 1.3.8 2.5 1.4 1.2.7 4 1.6 6.2 1.9 3.4.5 4.2.4 4.6-1.2 1.2-3.8 8-16.6 9.2-17.1 1.7-.7 10.9 2.5 12.4 4.3.6.8 3.7 2.1 6.8 3 6.9 2 7.1 2.2 7.3 6.7.1 2.1.7 4.2 1.5 4.8 2 1.7 1.6 3.8-1.4 6.9-4.2 4.1-8.3 10.1-8.3 12 0 1.8 2.7 4.5 7.2 7.3 2.1 1.3 5 1.7 12 1.7 5.1 0 9.8-.4 10.4-.8.7-.4 1.7-2.5 2.3-4.6.6-2.2 2.3-5.1 3.8-6.4 2.5-2.1 3.4-2.3 8.6-1.7 3.7.4 5.7.2 5.7-.5 0-.5.7-1 1.6-1s3.6-1 6-2.2c4.3-2.1 5.5-4 3.4-5.3-1.7-1-1.1-2.3 1.2-2.7 2.8-.4 4.2-5.1 2.7-9.5-1-3-5.3-7.6-8-8.5-.8-.3-1.1-3.3-1-9.3.3-13.4.7-17.3 2.1-19 1.5-1.9.6-11.1-1.7-15.6-2.3-4.6-1.7-17.4 1.2-27.6 1.6-5.7 1.6-6.5.1-11-.8-2.6-1.9-8.7-2.4-13.4-.7-7.5-.5-9.2 1-12 2.3-4.3 1.8-15-1.1-23.2-1.1-3.2-3.2-12.9-4.6-21.5-1.8-10.6-3.4-17.3-5.1-20.5-3-6-3-7.1-.2-9.7 2-1.8 2.1-2.4 1-5.3-1.7-4.7-1.5-7.8.9-15.3 1.8-5.6 2.6-6.8 5.4-8 4.5-1.8 6.6-6.6 5.8-13.2-.5-4.5-1-5.4-4.9-8.3-3.6-2.6-4.1-3.5-3.2-4.7 2.2-2.5 5.8-3.2 25.2-4.7 18.2-1.4 24.6-2.6 24.6-4.6 0-.5-1.1-.7-2.5-.5-3.1.6-4.2-.9-1.8-2.4 1.4-.9 1-1-2.2-.5-8.4 1.1-30.1 3.5-32.2 3.5h-2.2l2.4-5.3c2.7-5.8 3.1-9.6 1.4-16.3-1.1-4.3-1.1-4.7 1.8-7.7 2.2-2.4 2.8-3.8 2.4-5.5-.3-1.3-1-2.4-1.6-2.4-2.6-.3-4.5-1.1-4.5-2.1 0-1.2-6.5-11.3-9.3-14.4l-2-2.2 3.1-3.5c2-2.3 2.9-4.3 2.7-5.7-.6-3-4.4-6.9-6.7-6.9-1.8 0-1.8.1.2 2.2m39.8 70c-.3.7-2.5 1.6-4.9 1.9-7.8 1.1-27.4 2.1-26.7 1.4.5-.6 19.5-3.3 30.6-4.4.8 0 1.2.5 1 1.1m-134.2 8.5c-1 1-1.9-.5-1-1.8.6-1.1.8-1.1 1.2 0 .2.7.1 1.5-.2 1.8m40.4.4c-2.5.4-6.3.7-8.5.7-3.8-.1-3.8-.1 1-.8 2.8-.4 6.6-.7 8.5-.7 3.1 0 3 0-1 .8m-5 3.2c0 1.6-2.4 3.9-5.8 5.7-2.8 1.4-2.8 1.3-3.7-2.2-.6-2.5-.4-2.7 3.7-3.6 5.9-1.4 5.8-1.4 5.8.1m49.4 147.8c3.5 10.9 3.8 12.5 3.2 19.2-.4 3.9-.8 8.8-1 10.7-.1 1.9-.8 4.5-1.5 5.8-.7 1.4-1 3.6-.6 5.4.4 1.6.4 5.5 0 8.5-.6 5-.8 5.4-2.8 4.9-4-1.2-6.2-1.7-12.2-2.7-8.3-1.4-10.7-2.8-12.4-7.2-1.1-3.1-1.2-4.5-.3-7.1.7-1.8.9-5.2.6-7.7-.8-5.9 3.9-38.5 5.8-40.4 1.1-1.1 7.6-1.9 12-1.6l5.3.3zM186.8 26.7c.5 2.7.4 2.7-1.5 1-2.7-2.4-3.7-2.1-1.9.5 2 2.8 2 3.8.1 3.8-1.2 0-1 .5.5 2l2.1 2.1-5.5 6.2c-6.7 7.6-9.4 9.9-10.9 9.4-1.7-.6-4.7 1.1-4.7 2.6 0 .7 1.7 3.2 3.7 5.4 3.4 3.7 3.8 4.7 3.8 9.6 0 4.4.5 6 2.3 8 2.1 2.2 2.2 2.8 1.1 4.9-1.1 2-1.1 2.2.3 1s1.6-.8 1.1 2.9c-.6 4.1-.6 4.2 2 3.5 3.5-.8 3.6 1.1.1 2.4-1.4.6-3.9 1-5.5 1-3.1 0-3.7 1.6-1.9 5.1 1.5 2.7-3.4 9.2-6.2 8.3-1-.3-3.7-.3-5.8.1-3.3.6-4.3 1.3-5.7 4.2-1.6 3.5-1.6 3.6.7 5.3 2.1 1.6 2.1 1.9.9 4.5-1.9 3.8-7 6.2-14.9 7.2-6.1.8-6.5 1-6.8 3.6-.3 2.2.8 3.8 5.5 8.6 8.7 8.6 15.3 9.3 15.3 1.6 0-1.9.3-4.1.6-5 .6-1.5.8-1.5 2.5 0 2.7 2.5 8.3.1 13.3-5.7 4.1-4.8 6.9-6 7.9-3.4.3.8 2.4 2 4.7 2.6 3 .8 4.6 2.1 6.5 5l2.5 4-3.5 4.6c-1.9 2.5-3.5 5-3.5 5.4 0 .5-3.6 8.3-7.9 17.3-8.3 17.2-11.5 26.3-12.6 35.9-.7 5.6-.6 5.9 2.5 8.8 1.8 1.7 3.5 2.8 3.8 2.6.3-.3 1.9.2 3.6 1.1s3.8 1.9 4.6 2.3c1.6.8 1.6 1.3.4 13-.3 3.7-.1 8.3.4 10.4.9 3 .8 4.6-.5 7.7-1.4 3.6-1.4 4.1.1 5.8 2.4 2.7.5 7.1-4.2 9.6-4.8 2.6-8 8.3-6.7 12 1.3 3.6 7.7 8.1 15.6 10.9 7.2 2.7 8.3 4.1 4.2 5.6-1.5.6-5.5 2.4-8.8 4s-7.7 3.4-9.7 4c-5.5 1.7-6 2.8-4.1 9.1.8 3 2.1 6.6 2.9 8 1.2 2.4 1.1 2.8-3.4 7.2-4.8 4.7-4.8 4.7-11.8 4.7-7.5 0-9.4.9-9.4 4.7 0 4.6 9.9 8 15.1 5.3 1-.6 1.9-1.9 1.9-2.8 0-4.1 5.7-8.6 16.3-12.6 4.8-1.8 4.9-1.8 11.9.5 5.9 1.9 7.5 2 10.2 1.1 1.8-.7 4-1.2 4.9-1.2 2 0 8.9-3.1 9.9-4.5.4-.5.4-1.3.2-1.7-.3-.5.3-1.1 1.3-1.5 2.8-1 5.3-3.5 5.3-5.3 0-2.3 2.7-4.5 7.2-5.9 2-.7 3.8-1.7 4.1-2.4.9-2.4-1.2-5.5-4.2-6.2-3.5-.7-3.9-2.4-1.4-6.1 1-1.6 1.7-4.8 1.8-8 0-3.7.7-6.2 2.1-8.1 3.1-4.2 3.7-6.9 2.1-10-.8-1.5-1.9-6-2.5-9.8-1.8-11.2-3.1-16.7-4.3-18.1-.6-.7-1.6-3.5-2.4-6.1-.7-2.6-1.6-5.6-2-6.5-.5-1.3.3-2.2 3.2-3.6 4.7-2.5 9.8-7.8 10.7-11.2.5-2.4-2.6-14.2-4.5-16.5-1.5-2-2.9-10.2-3.4-21.1-.8-15.8-1.4-20.3-3.2-25.7-1.6-4.5-1.6-4.9.1-8.1 1.6-3 1.6-3.7.3-6.2-.7-1.6-2-5-2.7-7.6-1.7-6.3.3-16.8 3.8-20.3 3.1-3.1 2.6-6.6-1-7.6-1.5-.4-5.2-1.9-8.2-3.4l-5.5-2.7 2.5-5c2.4-4.8 2.5-5.4 1.5-12.9-.6-4.4-1.8-9.3-2.7-11-1.5-3-1.5-3.3.5-6 4-5.4 3.2-6.6-7.4-10.1-2.2-.7-6.2-3-8.9-5.1-4.4-3.4-4.7-3.9-2.7-4.4 2.1-.5 2.1-.6-.4-2.9-1.9-1.8-2.5-3-2-4.7.6-2.1.5-2.1-.9-.3-1.7 2.1-3.6 1.4-3.6-1.5 0-1-.4-1.9-.9-1.9-.4 0-.6 1.2-.3 2.7m17 196.3c.2.4 2.7 4.3 5.7 8.6s5.5 8.8 5.5 9.9.7 3.3 1.6 5c1.1 2.1 1.3 4.3.9 7.7-1.1 7.5-1.5 7.7-12.5 6.8-7.9-.7-9.7-1.2-11.2-3-2-2.5-2.3-5.5-.8-6.5.7-.4.9-2.4.5-4.8-.9-6 2-22.9 4.2-24.5 1.7-1.2 5.5-.7 6.1.8m-24.3 83.8c0 1.8-2 1.5-2.3-.4-.3-1 .1-1.5 1-1.2.7.3 1.3 1 1.3 1.6M0 112.3V182h3.1c2.9 0 3 .1 2.3 3.2-1.5 7.1-3.1 11.3-4.2 11.1-.9-.2-1.2 9.1-1.2 36.1l.1 36.4 12.2 8c6.7 4.4 13.2 8.5 14.5 9.1 2.9 1.5 2.8 2.4-.6 3.8-4.1 1.8-10.8 7.3-14.9 12.2-3.2 3.8-3.5 4.6-2.4 6.3 1.1 1.8.9 2.4-1.5 4.9-1.5 1.6-3.5 3.1-4.5 3.4-1.6.5-1.8 1.8-1.7 9.8 0 5 .6 9.9 1.1 10.9.8 1.2.8 2.3-.1 4-.9 1.6-1.2 6.3-1 14.7l.3 12.5h3c8.2-.1 20.9-5 25.5-9.9 1.3-1.4 2.9-2.5 3.6-2.5 1.6 0 5.2-4.5 6.9-8.7.8-1.8 1.8-3.3 2.3-3.3s4.2-3.2 8.3-7.1c4.1-4 9.7-8.7 12.6-10.6 2.9-1.8 5.7-4.2 6.3-5.3 1.6-3-.7-9.3-5.1-14.4-2.7-3-3.5-4.6-2.8-5.7 2.5-4 .5-8-6.3-12.2-1.6-1-3.9-3.9-5.3-6.6-1.3-2.7-2.9-5.2-3.4-5.5s-1.2-2.2-1.5-4.2c-.6-2.8-1.4-3.8-4.1-5-1.9-.8-4.1-2.7-4.9-4.2-1.8-3.5-8-9.9-12-12.3l-2.8-1.7 7 .5c5.8.4 7.9 0 12.8-2 3.3-1.3 8.7-3.4 12.2-4.7 3.8-1.4 8.2-4 11.1-6.6 4.5-4.1 4.8-4.6 4.1-7.6-4-17.2-16.4-44-24.1-52-2.5-2.6-4.1-5.2-3.7-5.6.5-.5-1.9-6.9-5.2-14.3-3.4-7.4-7.2-15.9-8.6-18.9-2.5-5.5-4-8.5-7.7-15.1l-2.1-3.6 3.7-3.7c3.6-3.5 3.7-3.9 3.7-10.6 0-4.6-.7-8.8-2-12.2-2.6-6.9-2.5-9.1.5-13.6 2.2-3.2 2.3-3.8.9-5.3-.8-.9-3.2-1.9-5.3-2.3-2.9-.4-4.5-1.5-6.7-4.3-1.5-2.1-3.1-4-3.4-4.3-.9-.7-2.3-4.2-2.6-6.5-.1-1.2-1.6-4.8-3.3-8L0 42.6zM.5 380c-.9 1.5.4 3 2.6 3s2.4-1.1.7-2.8c-1.5-1.5-2.5-1.5-3.3-.2"/></svg>