<svg xmlns="http://www.w3.org/2000/svg" width="682.667" height="512" version="1.0" viewBox="0 0 512 384"><path d="M86 18.7c0 3.8-1.4 4.2-4.7 1.1-1.3-1.2-2.3-1.7-2.3-1 0 .6 1.1 1.9 2.4 3 2.8 2.1 2.2 3.8-1.4 4.5l-2.5.4 2.6.2c5.1.2 5.3 2.4.7 8-4.1 5.1-6.3 6.3-10.3 5.8-1.2-.1-2.1.5-2.3 1.8-.5 2.5-3 4.5-4.8 3.8-1.9-.7-1.8 2.1.1 3.7 2.6 2.2 1.6 3.3-1.2 1.5-1.6-1-.1 1 3.2 4.4 5.4 5.5 5.9 6.4 5.7 9.9-.2 2.2.6 6.1 1.9 9.3 1.4 3.6 2.2 7.8 2.3 12.6.1 6.4-.2 7.5-2.5 10-4.2 4.7-5.5 7-2.2 3.9 2.7-2.4 3.1-2.6 2.7-.9-.3 1.1-1.8 2.7-3.2 3.4-1.5.8-3 1.8-3.4 2.4-1.3 1.7-.8 7.9.7 9.9.8 1.1 1.5 2.8 1.5 3.9 0 1.8 3.3 6.4 8 11.3 1.1 1.2 3.4 2.4 5 2.7 1.5.4 3.8 1.6 4.9 2.8 3 3.2 7.1 14.3 7.1 19.3 0 3 .6 4.8 2 6.1 2.9 2.6 2.5 6.6-1.3 12.3-1.9 2.7-4.6 8.9-6.1 13.8-7.1 23.4-13.7 37.7-21.1 45.7-2.4 2.7-5.2 6.5-6.3 8.5-1 2-2.7 5.3-3.7 7.2-2.2 4-2.1 10.7.1 13.1 1.8 2 11.7 5.9 14.9 5.9 1.3 0 2.6.3 2.8.8.3.4-.6 3.9-1.9 7.9-1.7 5.2-2.6 10.9-3.3 21-.6 8.7-1.5 15.2-2.5 17.5-1.2 2.7-1.4 5.3-1 9.1.7 6.3-1.7 17.1-4.6 20.2-1 1.1-1.9 3.1-1.9 4.5s-.3 6.5-.5 11.3c-.6 10.8 0 11.7 10.5 14.1C82.4 378.3 84 379 84 381c0 1.9 1.3 2 29.1 2.2 16 .2 29.4.1 29.9-.2.4-.3 1.1-1.6 1.5-3s2.5-4.4 4.5-6.6c5.2-5.6 6.8-9 8.1-17.1 1.5-9 .5-11.6-5.8-14.6-6.1-2.8-6.5-3.2-8.4-8.8-1.4-4.2-1.4-5.1-.1-8.4 1.3-3.1 1.3-4.6.4-8.2-1-3.6-.9-6.6.4-16.1 1.7-11.4 1.7-11.9-.3-19.6l-2-8 5.3-4.9c3.4-3.1 6.5-7.2 8.5-11.3l3.2-6.4-.6-12.8c-.8-17.6-9-56-13.8-64.1-2.5-4.3-2.7-8.4-.5-10.6.9-.9 1.6-2.6 1.6-3.8 0-5-5.2-28.4-7-31.4l-1.9-3.2 3.2-.3c1.8-.2 5 .3 7.2 1 12.5 4.1 19.1 3.5 22.5-2 1-1.7 1.6-3.8 1.2-4.7-.3-.9-3.5-6-7-11.3-6.4-9.6-7.2-12.8-3.5-12.8 2.8 0 8.1-3.7 9.6-6.7 4.5-8.7 2.8-17-4.9-24.3-5-4.7-5.6-5-10.7-5-6.4 0-9.7 2.4-12.8 9.5-1.9 4.3-4.9 6.1-4.9 3 0-.9-1.9-2.4-4.3-3.4-3.8-1.6-4.4-2.4-6-7.5-1.4-4.8-1.5-6.4-.6-9.7.7-2.1 1.6-3.9 2.1-3.9 1.7 0-.3-4.1-3.8-7.5-3.2-3.2-6.6-4.5-13.2-4.9-2.8-.2-11.2-4.5-11.2-5.8 0-.4 1-1.3 2.3-2l2.2-1.2-2.5-.6c-1.4-.4-2.4-1.3-2.4-2.2.1-.8-.5-1.5-1.2-1.5-.8 0-1.4.3-1.4.7s-.7.7-1.5.7c-1 0-1.2-.4-.5-1.2.5-.7.7-1.5.3-1.8-.3-.4-1.2.2-2 1.3-2 2.8-3.2 2.5-4.8-1.3l-1.4-3.2zm16.6 256.9c2.7 1.3 3.7 1.4 4.8.4 1.1-.8 2-.8 3.5-.1 2.5 1.4 6.8 1.4 7.6.1 2.2-3.6 3.8 2.4 6.5 25.3 1.1 9.5 1.4 16.1.9 17.5-1.2 3.2-1.1 8.9.1 9.7 1.5.9 1.2 6.2-.4 9.4-1.4 2.6-2 2.8-9.6 3.5-4.4.3-10.6 1.3-13.8 2.1-5.2 1.3-11.1 2-15.3 1.6-1.3-.1-1.6-1.1-1.3-5.8.2-4.3-.2-6.5-1.8-9.4l-2.1-3.7 2.2-3.5c1.6-2.5 2.1-4.9 2-8.4-.2-2.7.9-9 2.4-14.3 1.4-5.2 3.3-13.2 4.3-17.8 1.6-7.6 1.9-8.2 4.1-8.2 1.4 0 4 .7 5.9 1.6"/><path d="M289.2 32.5c9.7 5.5 3.5 19.3-6.5 14.4-1.8-.8-1.7-.6.5 1.5l2.7 2.4-2.7 1.8c-3.3 2.2-19.9 16.2-20.7 17.5-.4.5-1.7.6-3 .3-1.2-.3-2.6-.1-3 .5-.4.7-2 .9-4 .5-4.6-.8-5.2 1-1.7 5 1.6 1.9 3.7 5.5 4.7 8 1.6 4.2 1.6 4.8.1 8-.9 2-1.6 5.9-1.6 9.4 0 5.4.3 6.4 3 9.1 2.3 2.2 3.6 5 5.1 11.3 2.4 9.6 3.8 12.6 4 8.8.1-1.4.1-3 0-3.5-.1-.6 1.1.6 2.8 2.5s3 3.8 3.1 4.2c0 .8-3.5 1-17.6 1.3-5.7.1-7.6.6-9.3 2.2-2.9 2.7-11.3 4.3-22.5 4.3-15.3 0-15.8-.2-19.7-7.6-1.9-3.5-3.7-6.4-4.2-6.4-.4 0-1.7-1.1-2.9-2.5-3.1-3.5-4-3.4-21.3 2.2-7.3 2.4-8.9 3.7-12.5 10.4-2.6 4.9-2.9 6.3-1.9 7.5.8 1 1.5 1.2 2.3.4 1.6-1.6 3.4-1.2 4.1 1.1.7 2 1.1 2.1 9.9 1.4l9.2-.7 4.1 6.4c2.2 3.5 5.6 8.9 7.6 12 4.1 6.5 5.9 7.3 14.7 6.5 5.4-.5 5.8-.4 5.8 1.7 0 1.1.3 3.2.7 4.5.6 1.7.5 2.2-.3 1.7-1.3-.8-6.3 1.7-9.9 4.8-1.6 1.4-2.3 3.1-2.3 5.6 0 2-.5 4.1-1.1 4.7-.8.8-.8 1.7 0 3 .5 1.1.7 3 .4 4.3-.6 2.1-.4 2.2 2 1.6 3.3-.8 3.6 1.1.5 2.4-5.2 2.1-6.1 3.6-4.8 7.4.6 1.9 2 3.8 3.1 4.1 2.1.7 6.9-1.8 6.9-3.5 0-.5.7-.7 1.5-.4.8.4 1.5.1 1.5-.5s.6-1.1 1.4-1.1 1.7-.8 2-1.8c.4-1.1 1.7-2.5 3.1-3.2 1.3-.7 2.1-1.8 1.8-2.4-.4-.6.2-.4 1.3.4 6.1 4.8 9.4 5 19.6 1.5 3.9-1.4 8.9-2.5 11-2.5 3.7 0 3.9.2 6.2 5.2l2.3 5.3-3 3.4c-1.6 1.9-6.6 11.2-11.2 20.6-8.1 17-11.7 23.1-17 29-6.3 7.1-14.5 20.7-14.5 24.1 0 3.8 4.9 12 9 14.9 2.3 1.6 6.2 4.7 8.6 6.7 2.5 2.1 5.7 4.1 7.2 4.5 1.5.3 3.2 1.2 3.7 1.9.6.7 3 1.9 5.5 2.7 3.2 1.1 4.7 2.2 5.1 3.8 1.3 4.6.9 9.1-1.3 13.7-2.1 4.2-2.3 6.2-2.3 18.7 0 9.7-.4 15.1-1.4 17.7-2.2 5.7-.7 6.8 9.3 6.8h8.1l1.8-4.5c1.5-3.6 1.7-5.1.8-7.7-.9-2.8-.6-5.5 2.3-16.8 4.8-18.9 6.6-25 7.6-25 .5 0 1.5-.2 2.3-.5 1.1-.5 1.5 1.1 2.1 8 .5 6.7 1.6 11.1 5 20.1 3.8 9.7 4.3 12 3.5 14.4-.7 1.9-.7 3.5-.1 4.7.6 1 .8 3.1.5 4.6l-.5 2.7H306c10.1 0 10.1 0 9.4-2.3-.4-1.2-.7-3-.5-4 .2-1.7.3-8.2 0-13.5 0-1.5.3-5 .6-7.8.6-4.1.3-5.8-1.4-9.2-2.1-4.1-2.7-10.1-1.5-16 .5-2.5 1.2-3.1 4.2-3.7 5.3-1 14.2-4.5 14.2-5.6 0-.6 1.1-2.1 2.5-3.5 4.7-4.6 7.5-9.8 7.5-13.5 0-4.9-2.8-12.6-8.8-23.9-5.1-9.6-8.2-20.4-12.6-43-.9-4.7-2.8-10.8-4.2-13.6-2.8-5.6-2.8-7.9-.1-10.9 3.7-4 3.7-4.9.4-10-3.1-4.9-3.2-5.2-3.1-16.7 0-6.9.6-12.9 1.4-14.7.8-2.1 1.1-6.3.8-12.6l-.4-9.5H327c15.1 0 16.9-.8 12-5l-3.5-3-13.5.3c-7.4.1-14-.2-14.7-.6-1.5-1 2.1-5.5 5.5-6.8 1.2-.5 2.5-1.7 2.9-2.6.3-1 1.4-3.6 2.3-5.8 3.6-8.4 4.3-11.7 3.7-19.5-.3-4.2-1.3-9.5-2.3-11.8-1.5-4-1.5-4.4.1-7 1-1.5 2.9-3.9 4.2-5.3 1.6-1.7 2.1-2.9 1.4-3.3-.6-.4-1.1-.4-1.1-.1s-.6 0-1.4-.7-1.2-1.7-.9-2.1c.3-.5-.1-.8-.8-.6-3.4.4-4.8-.3-6.6-3.4-1.1-1.7-5.4-7.4-9.7-12.5-7.4-9-7.7-9.4-5.8-10.8 1.1-.7 2.2-2.5 2.4-3.9.4-2.1.3-2.3-.9-1.3-1.1.9-1.3.7-1-1.3.6-3.2-1.6-8.5-4-9.7-1-.5-3.4-1.3-5.3-1.6l-3.5-.7zm-64.4 114.2c-1.5.2-4.2.2-6 0s-.6-.4 2.7-.4 4.8.2 3.3.4m105.2.3c0 .6-3.3 1-7.9 1-4.4 0-8.3-.5-8.6-1-.4-.6 2.5-1 7.9-1 5.1 0 8.6.4 8.6 1m-111 3.9c-3.6 2-6 1.8-6-.5 0-1 1.3-1.4 4.8-1.4l4.7.1z"/></svg>