<svg xmlns="http://www.w3.org/2000/svg" width="682.667" height="512" version="1.0" viewBox="0 0 512 384"><path d="M231 25.2c5.6 3.8 6.4 10.5 1.8 14.8-2.4 2.2-6.8 2.6-9.9 1-2.6-1.5-2.6.6.1 2.2 1.1.7 2 1.6 2 1.9s-4.6 4.3-10.2 8.7c-5.7 4.4-11.9 9.4-13.8 11.1-4.4 4-7.5 4.8-10 2.6-2.2-1.9-5.2-.8-7.1 2.6-.9 1.8-.7 2.6 1.4 4.8 1.3 1.4 3.6 5.5 5 9l2.5 6.4-2.4 5.3c-1.3 3-2.6 7.1-3 9.2-.5 3.3-.2 4.3 3 8.1 2 2.4 4.2 5.3 4.7 6.3.6 1.1 1.3 1.7 1.6 1.5.2-.3 0-1.5-.6-2.6-.9-1.7-.9-2 .3-1.5.8.3 1.8 2 2.1 3.7 1.4 7.1 4.9 18.3 6 19.2.6.5 1.4 1.7 1.8 2.5.3.9.6.4.6-1.3l.1-2.8 3.4 3.3c1.9 1.8 3.3 3.5 3 3.9-.2.3-3.8 1.2-8 1.8-5.5.9-7.9 1-8.7.2-.6-.6-3.9-1.1-7.3-1.1-5 0-6.6.4-7.6 1.9-1 1.3-3.1 2.1-7.1 2.5-3.1.3-8.2.9-11.2 1.2l-5.5.5v-3.4c0-1.9-.6-4.7-1.4-6.3-1-1.9-1.2-3.3-.5-4.5 1.4-2.7 1.1-3.9-1-3.9-1.1 0-2.3-.5-2.7-1.1-.5-.8-3.6-1-10.3-.6-8.6.5-9.8.8-11.6 3-1.1 1.4-3.7 3.1-5.9 3.8-4.5 1.6-8.1 5-10.6 9.9-3.8 7.6-3.3 12.4 1 9.8 2-1.2 2.4-1.1 3.7.9 1.3 1.9 2.5 2.3 6.9 2.3h5.3l.6 5.5c.4 3 .4 8 0 11.1-.5 4.3-.3 6.1 1 8 1.6 2.4 1.5 2.6-.2 4-1 .7-3 1.4-4.5 1.4-1.9 0-3.2.9-4.8 3.5-1.2 1.9-2 4.3-1.8 5.3.1 1-.6 3.1-1.6 4.7-1.8 2.7-1.8 3.1-.3 5.6 1.3 2.4 1.3 3 .1 4-2 1.6-.6 3.2 2.3 2.4 1.8-.4 2.4-.2 2.1.7-.3.7-1.8 1.4-3.4 1.6-2.1.2-3.6 1.2-4.7 3.2-2.1 3.5-2.1 5.9-.1 8.8 1.8 2.6 5.6 2.8 12.4.8 3.6-1 4.9-2.1 6.6-5.2 1.4-2.8 3-4.2 5.5-4.9 1.9-.5 3.9-1.3 4.5-1.7.5-.4 3 .4 5.4 1.8 2.8 1.6 4.7 2.1 5.3 1.5.7-.7 1.7-.6 3 .1 2.1 1.1 9.7 0 18.7-2.8 2.5-.7 8.5-1.8 13.4-2.4s9.8-1.6 10.8-2.1c3.1-1.6 4.8-.4 4.8 3.5 0 4.8 2.9 11.9 4.5 11.2.8-.3 1.6.1 1.8.8 1 2.7-.8 7.3-4.4 11.3-4.9 5.3-7.3 10.4-14.4 29.3-3.1 8.5-8.2 20.9-11.2 27.5-6.9 15.1-14.3 36-14.3 40.4 0 4.7 9 14.1 13.4 14.1.7 0 3.2 1.5 5.6 3.4 2.3 1.8 5.9 3.9 7.9 4.6 5.1 1.7 7.2 5.1 8.4 13.6l1.1 7.5 14.1-.3 14-.3.3-3.5c.6-7.4 2.2-7.8 3.1-.7l.6 4.2 15.9.3 15.9.3-1.7-2.3c-.9-1.3-1.9-2.9-2.2-3.6-.9-1.8.6-10.3 1.7-9.6 1.2.7 7.7-1.4 10.9-3.6 1.4-.9 3-1.5 3.6-1.3 1.3.5 11.9-10.8 14.1-15.1 2.4-4.6.3-16.3-5.2-28.6-5.3-12.2-8.1-21.6-11-37.2-4.3-23.4-5.5-28-8.6-34.9l-3-6.6 3.2-5.2c3.2-5.2 3.3-5.3 2-10.9-2.5-11.4-7.9-44.3-9.2-56.2-1.8-16-2.4-14.4 5.1-15.2 3.6-.4 17.2-1.1 30.2-1.5 28.2-1 28.8-1.2 21.3-8l-5-4.5-6 .6c-16.1 1.9-44.1 4.3-44.7 3.9-.4-.2-.1-1.4.6-2.6 5-7.8 5.9-24.6 2.2-39l-2.2-8.8 2.4-3.7c1.4-2 3.6-4.9 4.9-6.3 2.8-3 2.2-3.7-3.1-4.1-3.2-.2-3.8-.6-4.3-3-.4-2.1-1-2.7-2.2-2.3-1.1.3-2-.4-2.9-2.3-1.3-2.9-15.8-20.5-19.5-23.6-1.4-1.3-1.8-2-1-2.3.7-.3 2.3-1.3 3.5-2.4 1.9-1.5 2.1-2 .8-2.8-.8-.5-1.8-.7-2.3-.4s-.7-.3-.3-1.3c.9-3.3 1-12.4 0-13.3-1.4-1.3-7.4-3.1-10.2-3.1-2.4 0-2.4.1.8 2.2m78.5 120.9c.4.6.5 1.2.2 1.5-.5.5-45.3 3.4-50.2 3.3-6.5-.2 3.9-1.7 20-2.9 8.8-.6 18.5-1.5 21.5-1.9 7.9-1.2 7.8-1.2 8.5 0m-144 9.9c-1.1.5-3.3.9-5 .9-2.6 0-2.7-.2-1-.9 1.1-.5 3.4-.9 5-.9 2.6 0 2.7.2 1 .9m-4.5 4.9c-1.5 2.9-2.7 3.3-3.3 1.1-.4-1.7.4-2.4 3.6-2.9.4 0 .3.8-.3 1.8M137.5 192c-.3.5-1.1 1-1.6 1-.6 0-.7-.5-.4-1 .3-.6 1.1-1 1.6-1 .6 0 .7.4.4 1m3.8 2.6c-.7 1.9-1 1.8-1.6-.5-.3-1.3-.1-1.8.9-1.4.7.2 1 1.1.7 1.9"/><path d="M6.5 35c.8 3.4-.3 3.8-4 1.4-3.4-2.2-3.2-.7.2 2l2.7 2.1-2.9.6c-2 .5-2.3.7-.9.8 1.1 0 2.7 1.3 3.5 2.7 1.3 2.5 1.2 2.8-1.9 5.5L0 53v21.7c0 21.5.1 21.9 2.9 29.8C6.6 114.9 6.2 123 2 123c-1.9 0-2 .6-2 13.3 0 13.2 0 13.3 2.9 16.4 1.6 1.8 4.2 3.5 5.8 3.8 6.3 1.4 6.9 2.1 10.3 11.4 2.8 7.7 3.2 10.1 2.7 15-.4 5.2-.2 6.1 1.9 8.4 3.1 3.4 3.1 7.3-.2 13.1-3.3 6-4.7 11.4-7.9 31.1-4 24.8-6 33.4-11 45.9L-.1 293l.1 45.5.1 45.5h23.2l-.6-4.5c-.2-2.5-1.3-5.5-2.3-6.6-1.7-1.9-1.7-2.2-.2-4.9 1.3-2.3 1.4-3.6.5-7.6-1.2-5.6-1.2-6.2-.2-24.7l.8-13.7 5.6-.2c8.6-.2 24.4.3 25.3.8 1.1.7 2.5 6.1 6.3 25 2.8 13.4 3.3 17.8 2.5 19.8-1.5 4-1.2 9.2.5 10.6.8.7 1.5 2.3 1.5 3.6 0 2.4.1 2.4 10 2.4 10.8 0 10.9 0 8.8-5.7-1-2.7-1-3.8 0-5.3 1.6-2.7 1.5-7.9-.3-11.3-1.2-2.4-1.3-4.4-.3-13.2 1.1-9.9.3-21.7-1.7-26.6-.6-1.6 1.4-2.8 5.8-3.4.9-.1 2.6-1 3.6-1.9.9-.9 2.7-1.6 3.9-1.6 3.3 0 6.9-1.7 10.3-5 1.8-1.6 3.5-3 3.9-3 2.1 0 11.4-10.7 13.6-15.7 2.4-5.4 2.5-6 1.3-12.2-1.3-6.6-4.6-13-14.7-28.5-4.4-6.9-13.6-24.4-20.1-38.5-1.9-4.1-5-9.6-6.8-12.2-1.8-2.7-3.3-5.7-3.3-6.8 0-2.4 2.5-7.3 3.3-6.4 2.6 2.6-2.4-31.4-5.5-37.7l-2.5-4.9 4.6-1.2c2.5-.6 9.6-1 15.6-.9 8.9.1 11.8-.2 15.2-1.8 4.7-2.1 8.3-6 8.3-9 0-1.6-3-6.6-5.1-8.2-1.2-1-10.6-14.7-13.4-19.5-1.6-2.7-2.9-6.2-3-7.7-.2-2.5.1-2.7 1.9-2.1 4.5 1.4 14.8-.8 18.4-4.1 4.1-3.7 5.5-7.4 4.9-13.5-.6-6.8-4.5-14.1-9.5-17.9-3.2-2.4-4.4-2.7-11.3-2.7-7.7 0-7.9.1-11.8 3.9-4 3.9-6.9 11-5.8 14.1.4.9.1 1.5-.7 1.5-1.7 0-3.8-2.4-2.9-3.3.3-.4 0-1.3-.6-2.1-1.5-1.8-16.2-1.9-17.3-.2-.5.7-1.7.2-3.3-1.5-2.3-2.3-2.5-2.8-1.4-5.2.7-1.5 1.6-2.7 2.1-2.7.4 0 .8-1.4.8-3 0-1.7-.4-3-1-3-.5 0-1.4-1.8-2-3.9-1.3-4.8-4.1-5.9-14.9-6-4.1-.1-8-.6-8.6-1.1-.7-.6-1.7-1-2.1-.9-1.4.3-6.8-1.3-8.2-2.4-.7-.6-1-1.7-.7-2.5.4-1.2-.1-1.3-2.5-.8-1.9.3-2.9.2-2.5-.4.3-.6.2-1-.4-1-.5 0-1.3.4-1.6 1-1.2 1.9-4.5 1-5.5-1.5-1.3-3.5-2.3-3.1-1.5.5m86.2 59.2c-.3.8-.6.5-.6-.6-.1-1.1.2-1.7.5-1.3.3.3.4 1.2.1 1.9m150-59.6c-.4.4-.7 1.9-.6 3.3v2.6l1-2.4c1-2.6.8-4.7-.4-3.5"/></svg>