<svg xmlns="http://www.w3.org/2000/svg" width="682.667" height="512" version="1.0" viewBox="0 0 512 384"><path d="M211 17.9c0 .6.5 1.1 1 1.1.6 0 2.2 1.1 3.5 2.5 6.5 6.4-1.1 19.3-9.2 15.6-3.3-1.5-4-.8-1.4 1.6 2.1 1.9 2 1.9-8.7 10-5.9 4.4-12.3 9.6-14.2 11.5-3.7 3.6-8.4 4.4-11.4 1.9-2.3-1.9-4.8-1-6.8 2.5-1.7 2.9-1.7 3.1.1 5 2.4 2.7 3.9 5.5 6.1 12l1.9 5.4-2.9 7c-4.1 9.4-3.9 11.2 1.7 18.4 5.7 7.5 6.9 8.7 5.4 5.9-.7-1.3-.7-2.4-.1-2.8.5-.3 1.4 1.4 2 3.7 3.5 14.1 5.5 20.4 6.6 21.4.8.6 1.4 1.7 1.5 2.5 0 .8.5.3 1-1.1.6-1.4 1.3-2 1.7-1.4s1.5 1.3 2.5 1.7c.9.3 1.7 1 1.7 1.5 0 1.3-22.3 3.6-26.6 2.8-2.5-.5-4.1-.3-5.3.7-.9.8-5.1 2-9.4 2.6-11 1.6-12.7 1.5-12.7-.8 0-1-.6-2.4-1.4-3-1.1-.9-1.2-2-.5-4.4 1.2-4.3 1.3-4.1-2.6-6-2.5-1.2-6.2-1.7-12.4-1.7-9.2 0-14.6 1.5-14.6 3.9 0 .8-2.1 2.1-4.7 3-5.5 1.9-8.2 4.2-11.3 9.6-3.1 5.5-3.7 8.8-2 11.1 1.3 1.8 1.4 1.8 2 .1 1-2.5 3.1-2.1 5.5 1.3 1.9 2.7 2.4 2.9 6.5 2.3l4.5-.6v6c0 3.3-.3 8.8-.6 12.2-.6 5.4-1 6.2-3.1 6.7-2.9.8-6.3 5.4-6.3 8.8 0 1.4-.8 4.1-1.7 6-1.5 3.3-1.5 3.7 0 5.4 2.1 2.3 2.2 3.8.2 4.6-2.5.9-1.7 2.8 1.2 2.4 1.4-.2 2.8.2 3 .8.2.7-.8.9-2.6.6-2.6-.3-3.3.1-5.5 3.7-2.6 4.1-2.6 4.1-.9 7.8l1.8 3.8h14l2.8-5.8c2-4.2 3.3-5.7 4.8-5.7 1.2 0 3.6-.7 5.5-1.6 3.5-1.7 3.8-1.6 9.1 1.6 4.8 2.8 14.6 3.6 23.4 1.7 4.1-.8 11.6-1.8 16.7-2.1 5-.3 10.8-1.2 12.6-2 3.2-1.3 3.6-1.3 5.2.5 1.3 1.4 1.7 3.4 1.5 7.5-.2 4.6.2 6.1 2 8 1.2 1.3 2.5 2.1 3 1.9.4-.3 1-.1 1.4.5 1.2 1.9-1.9 8.4-6 13-4.6 5-7.9 11.5-15.6 30-2.8 6.9-8.5 19.5-12.6 28-7.2 15-11.8 28.2-13.4 38.5-.5 2.7-1.1 6.5-1.5 8.3-.6 2.9-.2 3.8 2.7 6.9 1.9 1.9 6.3 4.8 9.9 6.5 19.5 9 23 11 23 12.9 0 1.8 1.2 1.9 32.8 1.9h32.9l2.2-2.4c1.3-1.4 2.9-2.2 3.6-2 2.8 1.1 19-9.7 21.1-14 .8-1.7 2.1-4.2 3-5.6 2.2-3.6 1-15.1-2.6-25.3-7.9-22.9-9.1-27.6-13.1-53.2-2.1-13.3-5.5-25.5-8.6-30.1-1.5-2.4-.7-5.6 2.8-10.6 2.3-3.1 2.3-3.3-.1-18.3-.6-3.9-1.5-10.3-2-14.4-.6-4-2.1-11.7-3.4-17s-2.9-13.7-3.4-18.6c-1.1-9.3-4.5-20.5-6.4-20.5-.6 0-.6-.6.2-1.5.7-.8 1.6-1.3 2-1 .5.3 1.5-.2 2.4-1.1.9-.8 2-1.2 2.6-.9.5.3 1 .2 1-.3s2.4-1.2 5.3-1.5c2.8-.3 14.8-1.7 26.5-3.2 21-2.6 21.3-2.6 23.9-.7 2.2 1.6 3.2 1.7 6.5.9 4.1-1 4.6-1.8 2.3-3.7-.8-.7-1.5-1.8-1.5-2.5s-2.2-2.9-5-4.9l-5-3.6-6.4 1.5c-9 2.1-37.3 6.5-42 6.5-3.2 0-3.7-.3-3.1-1.8 2.5-6.3 1.3-25.7-2.2-36.1-1.9-5.7-.6-8.8 6.7-15.8 2.7-2.7 2-3.7-3-4.9-3.5-.9-6.1-3.9-5.3-6.1.6-1.6.5-1.6-1-.4s-1.9 1-3.7-1c-1-1.3-1.9-2.7-2-3.1 0-1-15.6-19.8-18.3-22.1l-2.1-1.9L222 41c1.4-1.1 2.6-2.5 2.6-3.2.1-.7.2-2.2.3-3.3.1-1.7.3-1.8 1.1-.5 1.2 1.9 1.2 1.3.1-2.8-.6-1.9-.6-3.2-.1-3.2 1.2 0 .1-3-1.8-5.3-2.9-3.3-13.2-7.1-13.2-4.8m87.7 117.8c.7 2-13.3 3.7-15.6 1.9-1.1-.8-1.3-.8-.7.1.5 1-.5 1.2-4.1.8-3.5-.3-4.3-.2-2.8.5s.9.8-2 .3c-2.2-.3-4.1-.7-4.3-.8-.1-.1 4.2-1 9.5-1.9 5.4-1 10.3-1.9 10.8-2.1 2.2-.8 8.9.1 9.2 1.2m-148.2 20.4c-2.2.4-5.6.8-7.5.7h-3.5l3-.8c1.7-.4 5-.8 7.5-.8h4.5zm-11.5 6.8c-1.4 2.7-3.6 4-2.7 1.7.4-1 .7-2.2.7-2.7s.7-.9 1.5-.9c1.2 0 1.4.4.5 1.9m36.5 30.1c-.3.5-1.4 1-2.3.9-1.4 0-1.3-.2.3-.9 2.7-1.1 2.7-1.1 2 0"/><path d="m.2 191.2.3 146.3 9.5.1c5.2 0 10.1-.2 10.9-.6.7-.4 2.7-.2 4.3.4 2.3.8 3.2 2.1 4.3 6.1 2.7 9.4 8.6 38.5 8 39.5-.4.6 3.7 1 11.3 1h12l-1.2-3.3c-.6-1.7-1.4-3.7-1.9-4.4-.4-.6-.2-5.8.4-11.5 1.1-10.4.7-18.2-1.3-24.9-.9-3.2-.8-3.9 1.1-5.8 1.1-1.1 3.2-2.1 4.5-2.1 1.4 0 2.7-.4 3.1-1 .3-.5 1.2-.6 2.1-.3s2.4-.4 3.5-1.6c1.1-1.1 3.1-2.1 4.5-2.1 2.6 0 7.2-2 10.2-4.5.9-.8 4.8-3.8 8.7-6.7 3.8-3 7.6-6.7 8.5-8.3.8-1.7 2.5-4.7 3.8-6.7 1.9-2.9 2.3-4.5 1.8-7.2-.7-3.5-6.4-13.1-10.7-17.8-9.4-10.3-19.1-25-26.6-40.3C64 220.7 58.8 210.6 58 210c-3.6-2.9-6.7-12-4-12 .6 0 1-1.2 1-2.8 0-1.8.3-2.3.9-1.4 2 3.2 2-2.8 0-18.2-1.5-10.9-2.9-17.6-4.4-20.9l-2.2-4.7H52c1.5 0 4.4-.7 6.3-1.5 2.9-1.2 5-1.3 11.2-.5 12 1.5 21.6-1.6 24.2-7.7 1.9-4.6 1.3-5.9-6.3-14.2-3.3-3.5-7.5-8.9-9.6-12-2-3.1-4.6-6.8-5.7-8.3-1.2-1.4-2.1-3.8-2.1-5.3 0-2.7.2-2.7 4-2.1 5.2.8 15.7-1.8 18.8-4.7C95.7 91 98 85.8 98 81.9c0-7.7-6.9-18.9-13.7-22.3-4-2-13.4-2.1-17.1-.2C61.6 62.3 57 69.7 57 75.9c0 2.4-.4 2.9-1.6 2.4-1.1-.4-1.4-1.3-.9-3.2.4-1.4.3-2.3-.1-1.9s-1.3.3-2-.3c-1.5-1.2-14.4-1.6-16.2-.5-1.7 1-5.2-1.2-5.2-3.4 0-1 .6-2.5 1.4-3.2 2.1-2.1 3-7.4 1.3-8.1-.7-.3-1.9-2.3-2.5-4.5-1.4-4.6-2.1-4.9-14.2-5.6-4.1-.3-8.8-.9-10.3-1.5C5.1 45.5 3 45 1.9 45 0 45 0 47.1.2 191.2m68.3-94.1c1 3 .2 3.2-1.2.3-.6-1.3-.7-2.4-.3-2.4.5 0 1.2.9 1.5 2.1"/></svg>