<svg xmlns="http://www.w3.org/2000/svg" width="682.667" height="512" version="1.0" viewBox="0 0 512 384"><path d="M388.5 34.9c-6.3 2.5-13.6 7.1-16.7 10.4-3.3 3.7-5.2 11.9-4.3 18.6l.6 4.8-6.3 4.5c-3.5 2.4-11.4 7.3-17.5 10.8-15.2 8.5-25.9 17.2-34.3 27.7-7.8 9.9-11.1 17.1-14 30.9-1.8 8.8-4.1 14.2-8.1 19.3-2 2.5-1.7 4.3.3 2.3 1.7-1.7 3.8-1.5 3.8.3 0 .8.6 1.4 1.3 1.2.9-.1 1.2 2.1 1.3 8.3.1 10.8.1 10.8 2 10.6.9 0 2.1.8 2.8 1.9.6 1 1.7 2.5 2.4 3.3.6.7 1.2 1.7 1.2 2.1s1 .8 2.2.8c1.3.1 2.8.9 3.4 1.8.6.8 1.6 1.5 2.3 1.5.6 0 1.4.7 1.7 1.5 1 2.6 6.7 5.2 9.6 4.4 3.4-.9 3.8-.5 3.8 4.8 0 5.2-.9 7.1-6.1 13.4-2.2 2.6-3.9 5.3-3.9 6.2 0 1.4 7 6.7 8.9 6.7 1.1 0 3.1 5.5 3.1 8.7 0 1.5.9 2.7 2.5 3.5 3 1.4 4.8 6.8 3.5 10.4-.5 1.3-1.7 5.5-2.5 9.2-.9 3.7-2.2 7.7-3 8.9-1.9 2.8-1.9 3.3-.1 3.3.8 0 1.7.8 2 1.8.9 2.6-3.2 15.2-5.7 17.9-1.1 1.3-1.5 2.3-.9 2.3 5 0 2.4 11.4-8.1 36-7.5 17.7-7.2 16.1-3.2 14.7 3.6-1.3 17.8-17.4 26-29.7 2.5-3.6 6.6-8.3 9.3-10.5 3.9-3.2 5.3-5.2 7-10 9.5-27.9 10.9-31.5 13.4-33.5 5.3-4.1 6.9-3 11.3 7.6 2.2 5.3 5.9 13 8.3 17.2 3.9 6.9 4.1 7.7 3.2 11.3-.6 2-1.4 8.1-2 13.4-.5 6.3-1.4 10.3-2.4 11.4-5.7 6.3-7.4 27.2-3.6 45.8 1.1 5.4 2 10.1 2 10.5 0 .5 28.6.8 63.5.8H512v-32.5c0-31-.1-32.8-2.1-36.7-2.1-4.1-3.7-18.4-2-17.3.5.3 1.6-1 2.5-2.9 1.4-3 1.6-12.4 1.6-88.8 0-93.7-.2-97-5.9-109.4-5.8-12.5-15.7-25.7-22.1-29.6-10-6-23.7-8.2-34.8-5.7-4.8 1.1-5.1 1.1-9.8-2.1-2.7-1.9-7.3-5.6-10.3-8.2-6.7-6.1-15.6-12.2-22.4-15.4-6.1-2.8-12.3-3-18.2-.5"/></svg>