<svg xmlns="http://www.w3.org/2000/svg" width="682.667" height="512" version="1.0" viewBox="0 0 512 384"><path d="M89.2 2.7c-.6 1.5-1.4 4.7-1.7 6.9-.6 4.1-3.2 6.4-7 6.4-2.6 0-1.7 5.4 1.7 10.1l3.3 4.4-3.7-2.8c-2-1.5-3.9-2.7-4.2-2.7-1.7 0 .1 2.8 5.7 8.9 3.4 3.8 7.7 8.7 9.5 11l3.3 4.1-2.7 8.3c-2.1 6.1-2.8 10.2-2.9 16 0 7.5-.1 7.8-2.5 8.2-2.6.5-10.2 3.1-19.9 6.7-4.5 1.7-6 1.9-8.4 1-2.3-.9-3.6-.8-5.6.3-1.4.7-3.4 1.6-4.3 1.9-1 .3-1.8 1.5-1.8 2.6 0 1.6-.7 2-3 2s-2.8.4-2.3 1.6c.5 1.3 0 1.5-2.3 1.2-2.5-.3-2.9.1-3.8 3.1-.7 2.3-.6 3.9.2 5.2.7 1 .9 1.9.4 1.9-.4 0-1.4 1-2.2 2.2-1.2 1.9-1.5 6.4-1.5 23.8 0 11.8-.4 26-.9 31.5l-.9 10 2.8 3.3c3.7 4.5 9.5 7.2 15 7.2 5.1 0 10.7-2.5 25.4-11.5l9.1-5.4 3 2.9c1.7 1.6 4.3 3.3 5.8 3.6 6.1 1.5 16.1 10.5 19.9 17.9 5.8 11.2 7.3 17 7.3 27.5 0 9.3.2 10 2.3 11.2 1.2.7 2.7 1.1 3.2 1 1.7-.3 3.9 5.8 2.6 7.1-.6.6-1.1 2.4-1.1 4 0 2.1-1.8 5.1-6 10.4-6.5 8-10.2 14.6-15.1 27-9 22.8-23.2 52.4-30.1 62.7-2.1 3.2-6.5 9-9.7 13-6.2 7.6-11.6 15.8-14.4 21.8L50 384h174.2l-.5-3.3c-.3-1.7-.9-5.9-1.2-9.2-.4-3.3-1.5-11-2.6-17-1-6.1-3.2-22.3-4.9-36-4.6-38.4-6.3-46.3-12.5-58.5-1.9-3.6-2.9-7.1-2.9-10.4-.1-4.4.3-5.2 4.2-9.2 3.7-3.6 4.3-4.8 3.8-7.1-.3-1.5-1-8.4-1.6-15.3-2.7-31.8-5.4-47.5-9.4-54.6-2.5-4.5-2.3-5.7 1.1-6.8 1.2-.4 3.5-2.6 5-5 4-6.1 10-9.5 18.9-10.6 7.2-.9 14.6-3.9 19-7.8 1.1-.9 3.8-4.2 5.9-7.2 5.3-7.8 8.3-10.8 14.3-14.7 5.3-3.4 9.2-8.3 9.2-11.4 0-.9 1.1-2.4 2.4-3.2 2.2-1.5 3.2-4.8 3.7-12.7 0-1.2.9-1.5 3.3-1.2 7.1.8 14.6-5.4 14.6-12 0-3.6-1.7-7.8-4.2-10.6-2.3-2.4-7.6-3-9.5-1.1-.8.8-1.9.2-4.1-2.2l-3.1-3.4-2.8 2.7c-3.2 3.1-10.1 5.8-12.3 4.9-1.1-.4-1.5-2.1-1.5-5.6v-5l-7.7-.2c-7.4-.2-7.8-.1-10.2 2.8-1.5 1.7-2.6 3.5-2.6 4 0 .6-.5.7-1 .4-.6-.4-.4-1.2.5-2.2 2.7-2.6-.7-8.8-4.5-8.1-.8.2-2.8 3.1-4.4 6.5-1.6 3.5-3.5 6.3-4.2 6.3s-2.1 1.3-3 2.9c-1 1.7-2.1 2.8-2.6 2.5-.4-.3-.8-.1-.8.4 0 .8-3 1.6-22.2 5.7l-5.6 1.2-.7-3.5c-.3-1.9-.5-3.5-.3-3.7 1.2-1.2 84.2-45.9 95.8-51.6 4.1-2 8.4-4.6 9.5-5.8 1.8-2.1 1.8-2.4.3-4.9-2.7-4.4-8.1-4.2-15.9.6-8.2 5-36.9 20.6-57.4 31.2-8.8 4.5-19.7 10.2-24.2 12.6-8.4 4.5-9.4 4.9-9.1 3.6.1-.4-.4-2.7-1.1-5.1-1.1-4-1.1-4.8.8-8.1 1.1-2 1.8-4 1.4-4.3-.3-.4.2-2.5 1.2-4.6 1.4-3.2 1.6-5.3 1-10.6-.6-5.8-.9-6.6-2.5-6.2-1.3.3-2.3-.5-3.6-3.4-.9-2.2-2.2-3.9-2.7-3.9-.6 0-.7-.3-.4-.6.3-.4.2-1.5-.4-2.5C179 .1 177 0 140.7 0c-32.9 0-38.7.2-42.4 1.6-4 1.6-4.5 1.6-6.2 0S90.2.1 89.2 2.7M282 9c0 1.8-2.3 3.3-21.5 13.5-3.8 2-15.5 8.4-26 14-42.3 22.9-47 25.3-48 24.4-1.3-1.3.8-3 10-7.9 32.7-17.4 69.8-38.1 78.9-43.8 5.1-3.3 6.6-3.3 6.6-.2m-64.1 92.5c-2.4 4-3.6 4.3-8.1 1.5-3.4-2-3.3-2.1 3.2-3.9 6.7-1.8 7.2-1.6 4.9 2.4"/><path d="M214.6 60.9c-.4.7-.5 1.5-.2 1.8.9.9 1.9-.4 1.4-1.8-.4-1.1-.6-1.1-1.2 0"/></svg>