<svg xmlns="http://www.w3.org/2000/svg" width="682.667" height="512" version="1.0" viewBox="0 0 512 384"><path d="M92.6 1.6C92.3 2.5 92 4 92 5c0 2.5-2.6 5-5.2 5-1.2 0-2.9.7-3.9 1.6-1.7 1.6-1.7 1.9 1.6 7 1.9 3 3 5.4 2.5 5.4-.6 0-1-.4-1-.8s-1.3-1.6-2.9-2.5c-2.9-1.7-3-1.7-2.8.5.1 1.3 1.8 4.5 3.9 7.1 2.1 2.7 4.6 6.7 5.6 9s3.2 5.5 4.9 7.1l3 2.8-2.9 9.2c-2.9 9-3.3 14.9-1.3 21.2.6 1.9.2 2.2-3.9 2.8-2.7.4-5.3.3-6.6-.4-1.6-.8-3-.8-5.8.1-5.7 1.8-6.4 2.7-5.8 7.3.5 3.7.3 4.2-2.3 5.8-4.3 2.4-5.8 5.3-8.1 16.2-3.1 14.3-9.8 34.3-14.2 42.1-1.3 2.4-1.2 11.9.2 12.3.6.2 1 .9 1 1.6 0 1.7 4.8 6 8.9 8.1 6 3 14.9.9 26.5-6.3l3.8-2.4 3.2 3c1.7 1.6 4.6 3.4 6.4 4s6.2 3 9.7 5.3c7.1 4.7 10.1 9.3 14.9 22.7 2.1 6 2.6 9.1 2.6 16.9 0 7.4.4 10 1.6 11.4.9 1 2.1 1.6 2.8 1.3s2.1 1.1 3.1 3.1c1.9 3.3 1.9 3.6.2 6.4-.9 1.6-1.4 3.6-1.1 4.5.4 1-1.5 3.9-5.1 8.2-5.5 6.5-14.5 23.6-19 35.9-2.8 7.9-12.8 30.2-19.1 42.7C82.5 340 72.8 356.5 71 358c-1.1.9-6.3 10.4-10.2 18.3l-3.7 7.7H145c48.4 0 88-.3 88-.8-.1-3.1-3.2-22.4-4.4-27-1.9-7.2-5.7-30.4-9.6-58.6-3.1-22.7-5.8-33-10.9-42.1-2-3.5-2.7-5.9-2.4-8.1.3-1.8 0-4.1-.6-5.1-.8-1.7-.6-2.2 1.3-3.1 1.3-.6 3.5-2.6 4.9-4.4l2.6-3.3-1.9-19c-3.4-33.6-4-38.9-5.6-46.3-.9-4-2.6-8.7-3.9-10.5l-2.2-3.3 2.8-1.6c1.5-.9 3.7-3.5 4.9-5.8 1.5-2.9 3.2-4.6 5.8-5.7 2-.8 5.7-3.4 8.3-5.7 4.2-3.8 5.7-4.4 15.5-6.5 6-1.3 12.2-3 13.7-3.8s6.4-4.7 10.8-8.8c8-7.3 20.3-14.6 29.4-17.5 5-1.6 6.2-2.5 9.1-7.1 1.5-2.4 3.6-4.1 5.8-4.9 3.4-1.1 3.5-1.2 4.1-7.8.8-8 1.2-9.5 2.4-8.8.5.3 1.4-.1 2.1-.9s2.1-1.5 3.1-1.5 2.1-.5 2.4-1c.3-.6 2.9-1 5.7-1 6.3 0 12.1-3.1 14.3-7.6 1.9-4 1.9-5.7.1-9.2-4.6-9-13.1-8.9-18.7.2l-1.7 2.9.5-4c.5-4.1-.9-8.3-2.8-8.3-.6 0-2.5 1.1-4.3 2.5-1.8 1.3-4.9 3.2-7 4-4.9 2.1-6.1 1-6.1-5.3 0-4.1-.3-4.7-2.2-5-4.1-.6-6.3 1.5-6.3 5.8 0 2.2-.5 4-1 4-.7 0-.8-1.8-.4-4.9.6-4.3.4-5-1.5-6-3.1-1.7-5.8.2-7.3 5.2l-1.3 4.2-.5-4.5c-.5-4.4-.6-4.5-3.9-4.5-3.1 0-3.6.4-4.4 3.5-1.1 4.3-1.6 4.8-2.7 3-.7-1.1-1.1-1.1-2.4-.1-.9.8-1.6 2-1.6 2.7 0 .8-.4 1.4-1 1.4-.5 0-1-.8-1-1.8 0-1.2-.6-.8-2 1.3-1.1 1.6-2 4.2-2 5.7 0 1.9-.5 2.8-1.6 2.8-1.3 0-1.5-.7-1-3.1.5-2.6.4-3-.8-2-.8.7-1.7 2.3-2 3.6-.8 3-2.9 3.7-33.2 10.3-30.5 6.7-29.4 6.5-29.4 5.3 0-1 7-5.5 32.5-20.8 8.3-5 21-12.7 28.4-17.2 7.3-4.4 13.5-8.1 13.6-8.1.2 0 4.8-2.8 10.3-6.3 5.5-3.4 11.4-7 13.2-7.9 2-1.2 3-2.4 2.8-3.5-.3-1.5-1.6-1.8-8.4-2.1l-8.1-.3-15.4 9.7c-21.8 13.8-22 13.9-25.9 16.1-1.9 1.1-11.8 7.1-21.9 13.2-19.6 11.9-19.2 11.8-20.6 5.1-.4-1.9-1.6-5.3-2.7-7.6l-2-4.1 2.6-5.1c1.4-2.8 2.9-5.3 3.3-5.5.5-.3.8-3.1.8-6.4 0-4.9-.3-5.8-1.7-5.5-1.2.2-2.2-1.1-3.5-4.8l-1.8-5h-46.6C98.2 0 93.1.2 92.6 1.6m187.2 4.8c-.1.1-16.5 10.3-36.3 22.6S204 53.5 199.8 56.2c-6.6 4.1-7.8 4.5-7.8 2.9 0-1.4 8-6.7 31.8-20.9 17.4-10.5 37.1-22.6 43.7-27 8.4-5.5 12.1-7.4 12.3-6.5.2.8.2 1.6 0 1.7M103 101.5c.7.9.8 1.5.2 1.5-.5 0-1.2-.7-1.6-1.5-.3-.8-.4-1.5-.2-1.5s.9.7 1.6 1.5m6 7.8c0 .8.9 2.4 2 3.7 2.2 2.5 2.6 4 1 4-3.3 0-11-2.4-11-3.4 0-1.9 2.3-4.4 4.5-4.9 3.3-.8 3.5-.7 3.5.6"/></svg>