<svg xmlns="http://www.w3.org/2000/svg" width="682.667" height="512" version="1.0" viewBox="0 0 512 384"><path d="M95.7.7c-.3.5-.8 2.2-1.1 4-.9 3.9-2.7 5.5-7.4 6.3s-4.5 2.1 1.7 11.4c2.6 3.9 5.1 7.8 5.6 8.6s-2.4-1.3-6.5-4.7-7.8-5.9-8.2-5.7c-.4.3.8 2.5 2.7 4.9 1.9 2.5 4.4 7.3 5.7 10.7 1.2 3.4 3.7 8.2 5.6 10.7l3.5 4.5-1.7 5.1C94.7 59.4 94 65 94 69.2v7.6l-5.7 2c-3.2 1.2-9.3 2.4-13.6 2.7-5.9.4-8.8 1.2-11.7 3-3.6 2.3-3.7 2.5-3 6.5.7 3.7.5 4.4-2.1 6.9-3.2 3.2-3.4 4.4-4.8 24.6-.6 9-2.1 19.6-3.7 26.4-1.7 7.4-2.3 12.6-1.9 14.8.9 4.8 8 11.6 13.9 13.3 5.5 1.5 7 1 19.9-6.2l8.7-5 3.1 3.1c1.7 1.7 3.8 3.1 4.6 3.1 2.1 0 14.1 6.6 17.1 9.3 2.6 2.4 3.8 4.9 8.4 17.2 2.7 7.2 3 9 2.9 18.8-.2 10.2 0 10.9 2.1 12.7 1.5 1.2 2.5 1.4 2.9.8s1.5.4 2.4 2.2c1.4 2.6 1.5 3.8.6 5.2-.6 1-1.1 2.9-1.1 4.3 0 1.6-1.9 4.8-5 8.6-7.6 9.1-10.3 15-21.5 46.4-10.3 28.9-20 52.1-24.5 58.5-4.2 6.1-13 24.5-13 27.2 0 .5 39.8.8 88.5.8 51 0 88.5-.4 88.5-.9 0-4.1-5.1-23.1-10.5-39.1-3.6-10.7-9.7-31.7-13.5-46.5-5.6-21.6-7.9-28.9-11.6-36.4-6-12.2-6.5-18-1.8-22 1.7-1.4 3.6-3.5 4.2-4.6.7-1.4.3-9.8-1.4-29-2.8-31.4-4.4-41-7.8-47.1l-2.5-4.5 2.4-1.1c1.3-.6 3.7-3.6 5.4-6.8 2.7-5 3.6-5.9 6.7-6.5 2.4-.4 5.4-2.3 8.9-5.5 4.9-4.7 5.8-5.1 18.8-8.6 13.5-3.7 13.7-3.8 22.8-11.1 11.5-9.2 14.6-11.1 23.8-14.8 6.5-2.6 7.8-3.6 10-7.4 1.6-2.6 4-5 6.1-6 3.4-1.6 3.5-1.8 4.2-9 .6-6.1.5-7.8-.8-9.2-1.2-1.4-1.3-2.2-.4-3.8 1.4-2.6 4-2.7 9-.1 9.8 5 21.9-.4 22.2-9.9.2-6.7-4.5-12.1-10.5-12.1-2.4 0-8.7 5.6-8.7 7.7 0 .7-.4 1.4-.9 1.7-.5.4-.7-1.1-.4-3.3.5-3.9-.9-8.1-2.9-8.1-.6 0-3.7 1.8-7 4-6.9 4.6-9.8 5.1-9.9 1.7-.3-9.1-.4-9.2-2.7-9.5-1.3-.2-3.4.4-4.8 1.2-2.3 1.6-2.4 1.6-2.4-.9 0-1.8-.7-2.6-2.6-3.1-4.2-1.1-5.9 1.6-5.9 9.2 0 5.2-.3 6.4-1.5 6.1-1.2-.2-1.4-1.5-1.2-6 .4-6.5-.7-8.7-4.4-8.7-2.6 0-4.4 3.1-4.4 7.5 0 1.7-.6 2.5-2.2 2.7-1.7.2-2.7 1.5-3.8 4.6-1.6 4.7-1.6 4.6-15.5 7.6-6.8 1.4-47 10.5-49 11-.5.2-2.3.6-3.8 1.1-3.2.9-5.1-.4-4.1-2.8.6-1.6 4-3.7 19.9-12.2 3.9-2.1 13.3-7.3 21-11.5s21.4-11.7 30.3-16.5c9-4.9 16.6-9.6 16.9-10.4.3-.9.9-2.6 1.5-3.7.8-1.7.6-2.8-1.3-5.3-2.2-3-5.4-4.1-6.1-2.2-.6 1.8-27 17.3-61.9 36.4-9.7 5.4-17.9 9.7-18.2 9.7-.4 0-1.3-2.2-2-4.8-.8-2.6-2.4-6.3-3.5-8.1l-2.1-3.4 2.2-4c1.2-2.2 2.8-4.9 3.4-6.1.7-1.1 1.3-4.2 1.3-6.7 0-3.8-.4-4.8-1.9-5.2-1.3-.3-2.3-2-3.1-4.8-.6-2.4-1.3-5-1.5-5.7-.3-.9-10.3-1.2-45.4-1.2-24.7 0-45.2.3-45.4.7M271 15.5c0 2.6-2.6 4.6-4.9 3.7-.8-.3-1.1 0-.7.7.5.7.1.9-1 .4-1.2-.4-1.5-.3-1 .5.4.8.2 1-.7.6-.8-.3-1.8 0-2.3.7-.5.8-.3 1 .6.4.9-.5 1.1-.4.6.4-.4.6-1.1.9-1.6.6s-3.1.6-5.7 2.1c-2.7 1.5-8.2 4.6-12.3 7-4.1 2.3-16.7 9.4-27.9 15.8S193.6 60 193.4 60s-.4-.8-.4-1.8c.1-1.2 5.3-4.5 17.7-11.2 23.1-12.4 46.4-25.7 53.3-30.2 6.6-4.4 7-4.5 7-1.3m-8.1 52.4c.8 1.4.6 2.2-.8 3.5-1.8 1.6-1.9 1.6-1.6-1.6.4-4.7.8-5 2.4-1.9m-155.4 44.5c3.7-.5 4.5-.3 4.5.9 0 .8.3 2.3.7 3.3.5 1.5.1 1.6-4.3.9-10.8-1.6-14.8-4.9-10.8-9 1.5-1.5 1.8-1.4 3.5 1.5 1.8 3 2.2 3.1 6.4 2.4m11.1 5.4c-.9.8-2.6-1-2.6-2.6.1-1.5.2-1.5 1.5.2.8 1.1 1.3 2.1 1.1 2.4"/></svg>