<svg xmlns="http://www.w3.org/2000/svg" width="682.667" height="512" version="1.0" viewBox="0 0 512 384"><path d="M99.1 1.4c-.6.7-1.8 3.6-2.6 6.5-1.6 5.3-3.6 7.1-8 7.1-1.4 0-2.8.6-3.1 1.4-.5 1.3 3.6 9 8 15 1.3 1.7 2.7 3.8 3.1 4.6.8 1.3.7 1.3-1.1 0-1-.8-4.3-3.6-7.2-6.2-5-4.4-8.2-6-8.2-4 0 .5.8 1.6 1.8 2.5 2.3 2.1 4.6 6.9 6.8 14.5 1.1 3.7 3.3 8 5.1 10.2 3.5 4 3.5 4.2.7 18.7-.3 1.5-1.4 2.5-3.2 2.8-1.5.4-6.7 2.1-11.7 3.9-11.9 4.3-15.1 5.3-20.6 6.1-3.4.4-5.8 1.6-8.6 4.1-3.8 3.4-3.9 3.7-3.2 8.2.5 3.4.3 5.5-.8 7.7-1.6 3-1.4 10 .7 22.5.4 3 .9 13.5.9 23.2l.1 17.7 3.2 3.6c7.9 9.1 16.1 9.6 30.8 1.9l8.9-4.7 3.3 3.1c1.7 1.8 3.7 3.2 4.4 3.2s5.3 2 10.2 4.5l9.1 4.5 2.9 7.8c6.9 17.8 7.2 19.2 6 29.7-1 8.7-.9 9.7.7 11.6 1.1 1.1 2.6 1.8 3.4 1.7.9-.2 2.4.9 3.4 2.5 1.6 2.7 1.7 3.1.3 4.6-.9 1-1.6 2.9-1.6 4.4 0 1.6-2 5.2-5.2 9.4-2.8 3.7-6.3 9.5-7.8 12.8-2.7 6-3.8 9.1-17 50-8.2 25.5-9.8 29.8-15.8 42-5.2 10.6-9.2 20.3-9.2 22.2 0 1.1 15.8 1.3 89.5 1.3 80 0 89.5-.2 89.5-1.5 0-2.8-7.1-20.6-13.2-33.5-10.2-21.3-15.6-35.5-24.3-64.5-3.6-12.1-6.8-19.6-10.4-24.9-2.1-3.3-3-5.9-3.2-9.6-.3-4.8-.1-5.3 2.8-7.1 5.3-3.4 5.7-5.7 4.4-26.7-2.3-35.3-4.7-50.8-8.7-55.3-1.9-2.1-1.8-3.7.5-4.4 1-.3 3.2-3 4.7-6 1.6-3 3.4-5.5 3.9-5.5 3.7 0 9.4-2.7 12.2-5.8 3.1-3.3 4.4-3.9 18.4-7.3l15.1-3.8 11.7-11.9c7.7-8 13.3-12.8 16.7-14.5 7.3-3.7 11.2-7.3 12.4-11.5.7-2.7 1.9-4.1 4.2-5.2 3.2-1.5 3.3-1.7 3.6-8.4.2-4.8-.1-7.5-1.2-9.1-1.4-2.1-1.4-2.6.3-4.6l1.8-2.3 5.2 2.3c8.9 3.8 16.2 2.6 21-3.5 3.6-4.6 2-13.8-2.8-16.4-3.7-1.9-9.6-1.2-12.1 1.5l-2.4 2.6-1.6-3.3c-.8-1.8-2.3-3.4-3.2-3.6s-4 1.5-6.9 3.8c-7.2 5.6-9.2 5.2-9.9-2-.4-4.7-.8-5.5-2.7-5.8-1.2-.2-3.2.2-4.5.9s-3.6 1.2-5.1 1c-4.2-.4-5.7 1.5-5.7 7 0 2.6-.5 5.1-1 5.4-1.7 1-3-4.1-2.3-9.5.4-3.2.2-5-.5-5-2 0-4.2-3.2-4.2-6.1 0-3.5-1.6-6.9-3.1-6.9-.6 0-.9.5-.7 1.2.7 1.9-4.3 6.3-10.3 9.1-5.2 2.5-36.4 14.7-37.5 14.7-1.2 0 .3-2.3 1.7-2.6 2.6-.4 6.7-2.3 7.4-3.3.7-1.2-6.7 1.5-15.3 5.4-2.9 1.4-5.8 2.5-6.5 2.5s-1.7.4-2.2.8c-.6.5-2.9 1.6-5.2 2.5l-4.2 1.6-1.1-3.7c-.7-2-2.5-6.1-4.1-9-3.1-5.6-2.9-7.8 1.1-11.2 1.2-1 2-3.6 2.5-7.6.6-5.6.5-6.2-1.3-6.6-1.5-.4-2.3-2-3.3-6.4-.7-3.3-2.1-6.9-3.2-8.2l-2-2.2H148c-27.5 0-35.6.3-38.8 1.4-3.4 1.2-4.3 1.2-5.9.1-2.3-1.8-2.8-1.8-4.2-.1m164.8 38c-.2.2-6.5 2.7-13.9 5.6-23.4 9.1-51.4 20-53.7 21-1.7.7-2.3.6-2.3-.4 0-1.7 1.6-2.9 6-4.6 9.9-3.6 52.7-21.8 58.8-24.9l3.7-1.9.9 2.5c.4 1.3.6 2.6.5 2.7m2.7 3.2c-.3.9-.6 2.1-.6 2.7 0 .7-1 1.7-2.2 2.2-1.3.6-2.7 2.3-3.2 4-.6 1.6-1.1 3.1-1.2 3.3s-9.6 2.7-21 5.7c-37 9.5-44.6 11.5-45.6 12.2-.6.3-.9 0-.6-.8.4-1.3 70.3-30.5 73.7-30.8.8-.1 1.1.5.7 1.5m50 9.1c-1 1-1.9-.5-1-1.8.6-1.1.8-1.1 1.2 0 .2.7.1 1.5-.2 1.8m-54.8 18.4c1.2 1.8 1 2.5-1 5.4-1.2 1.8-2.5 3.2-2.8 3s-.3-2.6-.2-5.4c.4-5.5 1.8-6.5 4-3m-19.1 24.5c-3.2 3.1-4.9 3.8-11.9 5-7.9 1.4-12.4 1.1-11.3-.6.2-.4 1.7-1 3.2-1.3 1.6-.3 6.6-1.9 11.3-3.6 11.8-4.2 13.5-4.1 8.7.5m-154.2 13c1.8 5.3 4.4 5.6 12.9 1.9 3.1-1.4 6.1-2.5 6.6-2.5 1.2 0 3.7 5.8 4.6 10.7l.7 3.6-4.4-.7c-2.4-.4-7.2-1.8-10.7-3.2-6.9-2.7-7.2-2.7-11.8 2.6l-2.3 2.5.5-9c.2-5 .4-9.2.4-9.3 0-.2.6-.2 1.3 0 .6.3 1.6 1.8 2.2 3.4m31 14.3c-.2.2-1.1.1-2-.2-.9-.4-1.5-1.9-1.5-3.9l.1-3.3 1.9 3.5c1 1.9 1.7 3.7 1.5 3.9"/></svg>