<svg xmlns="http://www.w3.org/2000/svg" width="682.667" height="512" version="1.0" viewBox="0 0 512 384"><path d="M132.6 1.6c-1.6 1.6-1.4 2.6 1.1 5.5 1.2 1.4.8 1.8-3 3.3-5.4 2-6.6 2-8.9-.1-1.7-1.6-2-1.5-4.6.4-1.5 1.1-3.3 3.7-4 5.9-1.6 4.9-4.5 7.4-8.7 7.4-2.5 0-3.4.5-3.8 2.2-.6 2.1.3 3.8 7.2 14.8 1.7 2.9 2.3 3.2-7.5-4.8-5.6-4.6-7-5.2-5.4-2.2.8 1.4.8 2 0 2-.6 0-.3 1.4.7 3.2s1.8 5.3 1.9 7.8c.6 11.4 4 19.2 9.1 20.5 2 .5 2.4 1 1.9 2.8-.3 1.2-.6 3-.6 3.9 0 1.5-.9 1.8-4.4 1.8-7 0-8.9-1.2-11-6.8-1.3-3.3-2.9-5.5-4.5-6.3-1.5-.7-3.8-2.4-5.2-3.6-2.3-2.2-3.5-2.4-13.5-2.4-10.4-.1-23.6 2.1-32.5 5.3-2.9 1-7.5 6.2-10.6 11.9-2.7 5-5.4 9.1-7.5 11.5-2.8 3.1-1.5 10.1 2.3 12.2 2.3 1.4 2.6 2.1 2.2 4.7-.7 4.4 1.7 9.3 8.9 18.2 6.6 8.1 12.8 17.8 18.8 29.6 7.6 14.7 14.3 20.4 25.1 21.5 5.1.5 15.1-1.2 20.4-3.4 3.1-1.3 6.5-.4 6.5 1.7 0 .6 1.4 3.3 3.1 6 2.3 3.5 4 5 6.3 5.5 1.7.3 5.9 1.7 9.3 3.1l6.2 2.5 3.1 7.4c3.1 7.5 7 21.2 7 24.9 0 1.1-1.1 6.5-2.5 12l-2.5 10 2.4 2.4c2.1 2 2.7 2.2 4 1.1 1.3-1 1.6-1 1.6.3 0 .9 1 2.3 2.3 3.2 2 1.4 2 1.7.6 2.8-2.4 1.8-3.9 5.1-3.3 7.4.4 1.4-.6 3.6-3.1 6.9-2 2.6-4.9 7.3-6.5 10.5-2.5 4.9-8.4 22.4-11 32.4-1.1 4.2-7.6 26.5-10.5 35.5-3.4 10.8-10 29.1-11.7 32.5-.9 1.7-1.9 4-2.2 5.2l-.7 2.3H269l-3.2-5.8c-1.8-3.1-5.6-9-8.5-13-9.7-13.6-14-24.4-23.8-59.7-7-25.5-8.8-30.1-14.7-39.2-5.1-8-5.9-14-2.1-17.5 4.3-3.9 5.2-7.7 6.4-27 1.7-27.6.2-42.9-5.1-52.3-1.9-3.4-1.9-3.4.1-4 1.1-.4 2.7-2.2 3.6-4 1.4-2.9 2.3-3.5 6-4.1 2.4-.3 6-1.7 7.9-3 3.2-2.2 4.5-2.4 14.6-2.4 13.6 0 22.7-1.5 27.1-4.4 1.7-1.2 4.5-4.6 6.1-7.6 7.2-13.8 12.6-22.1 19.3-29.8 4.5-5.2 7.3-9.2 7.3-10.6 0-5.6 1.3-8.7 4.2-10.2 2.1-1.1 2.8-2 2.3-3.2-.4-.9-.9-3.3-1.2-5.2s-1.2-4.2-2-5.1c-1.2-1.4-1.1-1.9.6-4 2-2.5 2.9-2.4 11.7 1.2 4.5 1.8 10.1.4 14.1-3.6 5.8-5.8 4.1-15-3.7-19-4-2.1-8.4-1.9-10.5.5-1.5 1.7-2.1 1.8-3.4.7-.9-.7-2.8-1.9-4.4-2.7-2.5-1.2-2.9-1.2-5.5 1.2-1.5 1.4-3.9 3.3-5.4 4.3-2.7 1.7-2.7 1.7-3.3-1.2-1.8-8.5-1.9-8.7-5.8-9.6-4.4-1.1-6.7.3-6.7 3.9 0 2-.5 2.4-3.2 2.4-1.7 0-3.9-.7-4.8-1.5s-3.4-1.6-5.6-1.8l-3.9-.2-.5 5c-.5 4.5-.7 5-3 5-2.1 0-2.6.6-3.4 4.2-.7 3-1.6 4.5-3 4.9-5.2 1.4-32 9.8-40.2 12.4-5 1.7-11.2 3-13.8 3-4.5 0-4.7-.1-3.9-2.3.4-1.2.8-5.4.8-9.2-.1-7.8-3.3-16.4-8-21.1-2.9-2.9-2.7-5.9.5-6.9 1.1-.4 2.3-1.8 2.6-3.3s1-4 1.5-5.6c1.2-4 1.1-4.6-.6-4-1.2.5-1.5-.5-1.5-5.9 0-5.7-.4-7-2.7-9.8-1.5-1.7-4.2-3.8-6.1-4.6-2.9-1.2-3.7-1.2-5.6.1-2.1 1.3-2.7 1.2-6.5-1-2.4-1.3-5.3-2.4-6.6-2.4s-3.7-1.1-5.3-2.5c-4.1-3.4-10-3.4-15 0l-3.7 2.6-.9-2.6C147.8.4 147 0 143.7 0c-3.5 0-3.8.2-3.1 2.2l.6 2.3-2.4-2.3c-2.9-2.6-4.1-2.7-6.2-.6m138.8 80c.2.6 0 1.7-.4 2.5-.7 1.1-1.4.9-3.4-1-1.9-1.8-2.3-2.8-1.5-3.7.8-1 1.5-1.1 3-.1 1 .6 2.1 1.7 2.3 2.3m-167.1 0c2.7.5 3.7 1.1 3.7 2.5 0 1.6-.8 1.9-5.4 1.9-2.9 0-6.7-.3-8.4-.6-2.7-.6-2.9-.8-1.9-2.5 1.3-2 5-2.4 12-1.3m3.2 7.9c1.6.3 3.5 4 8.5 16.7 8.1 20.4 7.9 19.2 4.3 18.3-5.8-1.5-15.8-2.2-18.8-1.2-3.5 1.3-8.9 4.8-11.3 7.5-.9 1.1-2.7 2.3-4 2.7-2 .6-2.6-.2-6.6-8.8-4.5-9.6-9.2-23.3-9.8-28.2-.3-2.8-.1-2.9 6-4.2 3.4-.7 7.4-1.8 8.8-2.6 2.3-1.2 17.2-1.4 22.9-.2m154.1 17.7-6.4 12.3-6.9-.3c-5.4-.3-7.6-.9-10.8-3-3.6-2.4-4.9-2.7-12.7-2.7-4.7 0-8.5-.2-8.3-.6.2-.3 3.2-1.3 6.7-2.3s9.2-2.9 12.8-4.2 11.2-3.9 16.9-5.8c5.7-2 10.9-4 11.5-4.6.5-.5 1.6-1 2.3-1 .8 0-1.2 4.7-5.1 12.2"/></svg>