<svg xmlns="http://www.w3.org/2000/svg" width="682.667" height="512" version="1.0" viewBox="0 0 512 384"><path d="M139.4 1.6c0 1-1.4 2.2-3.7 3.1-3.7 1.5-3.9 1.5-6.3-.8L127 1.6l-3.4 3.3c-2 2-3.7 4.8-4.1 6.8-.5 2.7-1.4 3.8-3.9 4.8-1.8.8-4.2 1.2-5.3.9-1.7-.5-2.2 0-2.8 2.6s-.1 4.1 2.4 8.2c1.8 2.8 3 5.2 2.9 5.4-.2.2-2.6-1.5-5.3-3.6-2.8-2.2-5.3-4-5.7-4-.9 0 0 7.7 1.2 10 .7 1.3.7 2.7-.2 4.4-.8 2-.8 3.2 0 5.1.7 1.4 1.2 3.8 1.2 5.4 0 1.5.7 3.6 1.5 4.7 2.6 3.5 1.8 3.9-7.3 3.6-6.8-.3-11.1.2-19.2 2.2-9.6 2.4-10.8 3-14.6 6.9-2.2 2.3-4.8 5.5-5.8 7.2-1 1.6-3.5 4.3-5.6 5.9-3.4 2.6-3.8 3.3-3.3 6 .3 1.7 1.4 4.1 2.5 5.2 1.9 2.2 1.9 2.2-.1 6.3-2.5 4.8-2.4 5.3 3 19.8 2.5 6.6 5.1 16.8 7.4 28.7 1.9 10.1 4 19.6 4.7 21 1.4 3.3 10.7 9 16.9 10.6 5.9 1.5 11.1.2 20.1-5.1 3.6-2.1 7.1-3.9 7.6-3.9s2.2 1.6 3.6 3.5c1.5 1.9 3.9 3.8 5.4 4.1 5.1 1.2 11.1 4.4 12.3 6.5 2 3.9 6.6 18.3 7.9 24.9 1.2 6 1.1 7.2-1.3 16-1.4 5.2-2.8 10.2-3.2 11-.3 1 .4 2.5 1.9 3.9 2.1 2 2.8 2.2 4.1 1.1 1.2-1 1.5-1 1.5.3 0 .9.9 2.2 2.1 3 2 1.5 2 1.5-.5 5.2-1.9 2.8-2.3 4.2-1.6 5.5.7 1.4.2 2.8-2.3 6.1-7 9.3-10.4 17.3-15.2 35.9-9.1 35.1-16.7 59.6-23.9 77.3-2 4.8-3.6 9-3.6 9.3 0 .2 37.8.4 84.1.4h84l-.6-2.3c-.4-1.2-4.2-9.4-8.5-18.2-8.4-17.2-11.8-27.2-20.1-59.5-7.3-28.6-9.2-33.7-16-43.6-1.5-2.2-3.2-6.3-3.7-9.2-.9-5-.8-5.2 2.4-8.3 3.8-3.7 5-7.9 6.4-22.4 2.4-24.9.9-46.8-3.7-54.6-1.6-2.8-1.6-2.8 2.3-6.7 2.3-2.3 5.4-4.2 7.4-4.7 1.9-.4 5.1-1.5 7-2.5 2.8-1.4 4.5-1.6 8.5-.9 2.8.4 10.6.8 17.4.8 16.4.1 18.5-.9 26.3-12.1 6.2-9 14.4-17.9 22.4-24.5 4.3-3.5 5.4-5.1 6.4-9.3 1-4.4 1.8-5.4 4.7-6.8 2.8-1.3 3.3-2 2.7-3.7-.7-2-1.3-6.5-1.7-12-.3-4.1 2.6-4.4 9.2-.9 7.5 3.9 13.1 3.1 18.3-2.5 5.9-6.3 4.7-12.3-3.7-18-5.2-3.5-6.4-3.7-10.5-1.6-1.8.9-3.1 1.1-3.5.5-.3-.6-1.5-1-2.6-1-1 0-2.8-.5-3.8-1.1-1.4-1-2.5-.7-5.7 1.5-2.1 1.4-4.4 2.6-5 2.6-.7 0-1.5-2.3-1.9-5.1s-1.2-5.2-1.9-5.3c-.6-.2-2.6-.8-4.5-1.4-4.1-1.4-6.1-.2-6.1 3.5 0 2.1-.4 2.4-3.2 2.1-1.8-.2-3.6-.7-4-1.2-.4-.6-2.6-1.6-4.9-2.2-5.4-1.6-6.9-.6-6.9 4.6 0 3.9-1.8 5.8-3.8 3.8-1.3-1.3-4.2 2.8-4.2 5.8 0 2-1 2.5-7.2 3.9-9.1 2-25.3 5.5-29.2 6.2-1.6.2-4 .9-5.3 1.4s-7.8.9-14.4.9c-11.1 0-11.9-.1-11.9-1.9 0-1.1.4-2.2.9-2.6.5-.3 1.5-2.9 2.1-5.9 1-4.7.8-6.1-1.4-13.3-1.6-4.9-4-9.8-6.3-12.7l-3.7-4.8 2.5-2.2c1.4-1.2 3.3-4.4 4.2-7.1 2.1-6.1 2.1-6.9.1-6.1-1.4.6-1.6-.1-1.1-5.1.6-7.1-1.2-11.4-5.8-14.3-3.7-2.3-6.5-2.6-8.3-.8-.9.9-2.1.7-5.1-1C184.4.1 183 0 161.7 0c-19.9 0-22.5.2-22.3 1.6M280 87c0 1.1-.7 2-1.5 2-1.3 0-1.4-.4-.5-2 .6-1.1 1.3-2 1.5-2 .3 0 .5.9.5 2m-157.1 18.9c2.8 7.3 5.1 13.9 5.1 14.7s-.8 1.4-1.7 1.4c-2.1 0-12-2.4-14.5-3.5-1.2-.5-3 .7-6.7 4.6-3.5 3.7-5.2 4.8-5.6 3.8-1.1-3.1-2.1-31.4-1-32.1.5-.4 2.6-.8 4.5-.9 1.9 0 5.8-.6 8.5-1.3 2.8-.7 5.3-1 5.7-.7s3 6.6 5.7 14m156.4-13.3c.8.8-.3 3.4-1.4 3.4-.5 0-.9-.9-.9-2 0-1.9 1.1-2.6 2.3-1.4m-3.9 9.6c-.6 1.1-9.1 13.6-11.6 17.2-.4.6-3.1.4-7-.3-9.3-1.9-9.4-1.9-13.7-5.6-3.8-3.1-3.9-3.3-1.8-3.9 1.2-.3 8.7-2.3 16.7-4.5 16.1-4.3 18.5-4.7 17.4-2.9"/></svg>