<svg xmlns="http://www.w3.org/2000/svg" width="682.667" height="512" version="1.0" viewBox="0 0 512 384"><path d="M134 1.8c0 3.2-4.2 6.2-8.8 6.2-2.2 0-4.3.4-4.7.9-.3.5 1.3 4.3 3.5 8.5 2.2 4.1 4 8 4 8.6 0 .7-3-1.4-6.7-4.6-4-3.6-6.8-5.4-7.1-4.6-.2.7-.7 1-1.2.7-.4-.3.1 1.2 1.1 3.2 2.1 4.1 2.4 6.9.9 7.8-.9.6-.8 4.6.5 13.2.5 3.5 3.6 7.3 7.4 9.3l3.6 1.8-.2 9.1c-.2 8.9-.3 9.2-3.5 12.6-2 2.1-4.6 3.7-6.8 4-4.4.8-4.5.9-3.1 4.3.7 1.6 1 4.2.8 5.8-.3 2.3-1 3-3.7 3.5-4 .9-5.8 3-6.5 7.8-1 7.1-5.6 31-6.5 33.8-.5 1.5-1.8 6.2-3 10.3s-2.5 8.6-3 10c-3.5 11.2-3.5 11.1-1.3 14.9 3 5.4 11.7 11 18 11.7 6 .8 9.5-1 17.8-8.7 7.5-7 8.6-7 13.3-.7 4.4 5.9 7.5 13.8 9.7 24.6 2.2 10.7 1.9 14.3-2.2 26.5l-3.7 11 3 2.3c1.6 1.3 3.5 2.2 4.1 1.9.7-.2 2.5.7 4 2.2q2.85 2.55 1.5 3c-2.8 1-4.4 3.7-3.9 6.7.3 2.3-.3 4.2-2.3 7.1-7.9 11.5-9 15-19 59.5-3.4 14.8-9.8 39.1-11.6 43.5-.9 2.2-3.1 7.4-5 11.6-1.8 4.1-3.6 8.7-3.9 10.2l-.7 2.7h82.7c78.4 0 82.7-.1 82-1.8-.4-.9-1.7-5.7-3-10.7s-6.2-20.5-10.9-34.5c-4.6-14-11-33.8-14.1-44-6.2-20.2-10.1-29.6-14.4-35-3.5-4.4-5.6-8.6-6.4-12.7-.5-2.5-.1-3.9 1.9-6.2 6.6-7.9 10.8-27.7 10.9-51.6 0-14.9 0-15.1-3.2-21.9-1.8-3.7-3.1-7.2-2.8-7.6.3-.5 2.1-1.4 3.9-2 1.9-.6 3.7-1.7 4-2.5.3-.9 1.9-1.5 3.7-1.5s4.7-.5 6.6-1.2c2.9-1 5.3-.7 20 3 9.3 2.4 18.6 4.2 20.8 4.2 3.2 0 5.8-1.2 12.5-5.6 10.9-7.1 19.7-11.6 28.5-14.3 5.5-1.8 7.9-3.2 11-6.6 2.2-2.4 5.7-5 7.8-5.9 3.6-1.5 3.7-1.6 3.9-7.3.1-5.5.3-8.5.7-10.8 0-.5.6-.4 1.3.3s2.1 1.2 3.3 1.2c1.1 0 3.7 1.4 5.8 3.1 5.1 4.2 9.2 5.2 14.5 3.8 5.5-1.5 9.2-5.8 9.2-10.7-.1-4.6-1.4-6.8-6.8-11.7-3.8-3.3-4.7-3.7-8.2-3.2-2.7.3-4.3.1-5.1-.9-.6-.8-1.9-1.4-2.8-1.4s-2.1-.8-2.8-1.9c-1.1-1.8-1.3-1.8-6.5 0l-5.3 1.8-.3-4.5c-.3-4.1-.7-4.7-3.7-6-1.8-.7-3.6-1.8-4-2.4-1.2-1.9-3.3-1-4.4 2.1-.9 2.6-1.3 2.9-3.1 1.9-1.1-.6-2.9-2.8-4-5-1.1-2.1-2.4-4.1-3-4.5-.5-.3-5.8.1-11.8.9-5.9.9-21.3 2.3-34.2 3.1s-30.2 2-38.3 2.5c-8.2.6-16.7 1-18.9 1-3.9 0-4 0-3.3-3.3.4-1.7 1.3-3.5 1.9-3.9.7-.5 1.1-4.2 1.1-10 0-8.1-.4-10.1-2.8-15.3-1.5-3.2-4-7.5-5.4-9.4l-2.6-3.4 2.5-2.1c3.5-2.8 7.3-11.7 5.6-12.7-.9-.6-1.2-2.7-1-6.8C222.5-.9 226.4 0 177 0c-41 0-43 .1-43 1.8m185 74.3c0 2.1-5.9 3-35 5.4-56.1 4.6-66 4.9-66 2.3 0-.6.6-.8 1.4-.5s1.6.2 1.8-.2c.2-.5 15.2-1.8 33.3-3 30.5-2.1 60.5-4.8 61.3-5.6.7-.6 3.2.7 3.2 1.6m-10.2 6.7c.7.5 1 1.5.7 2.3-.4 1.1-3.8 1.4-18 1.3-9.7-.1-17.8-.4-18.1-.7s3.9-.8 9.3-1.2c8.3-.6 22.6-2 24.3-2.4.3 0 1.1.3 1.8.7m-75 10c.2.7-.3 1.2-1.2 1.2s-1.6-.7-1.6-1.6c0-1.7 2.2-1.4 2.8.4m73.2 9c0 .5-.9 1.9-2 3.2-2 2.3-2 2.3-2 .2 0-1.2.8-2.6 1.8-3.1 2.1-1.3 2.2-1.3 2.2-.3M154.5 116c.3.5-.1 1-1 1s-1.3-.5-1-1c.3-.6.8-1 1-1s.7.4 1 1m136.4.8c-1.3 1-4.1 2.9-6.3 4.2l-3.9 2.3-10-3.4-10-3.4 4.9-.6c2.7-.3 10-.7 16.3-.7 11.2-.2 11.3-.2 9 1.6"/></svg>