<svg xmlns="http://www.w3.org/2000/svg" width="682.667" height="512" version="1.0" viewBox="0 0 512 384"><path d="M141.1 4.4c-2.2 5.2-4.4 6.6-10 6.6-2.3 0-4.1.5-4.1 1 0 .6 1.6 4.2 3.5 8.1 2.3 4.5 3.4 7.7 3 9-.6 1.8-1.4 1.3-7.1-4.2-3.6-3.4-6.7-5.9-7-5.7-.2.3.4 2.6 1.3 5.2 1.4 3.7 1.5 4.9.5 5.5-.7.4-1.3 1.6-1.2 2.7.4 10.2.7 12.3 2.7 15.6 1.3 2.2 3.8 4.5 6 5.5 3 1.5 3.8 2.4 3.6 4.3-.7 7.8-.7 12.1 0 17.5s.5 6.3-1.4 8.4c-2 2.2-3.1 2.3-7.2.6-1.5-.6-1.6-.4-.7 2 .5 1.4 1 4.4 1 6.6 0 3.8-.1 3.9-4.1 4.5-5 .8-6.1 3-7.9 14.9-1.6 10.7-5.9 27-11.5 43.4L96 169.3l1.6 4.4c3.3 8.7 16.2 17.6 23 15.9 1.5-.4 6.2-4 10.3-8 10.5-10.2 11.1-10.2 14.9-1.9 4.2 9.2 6.2 17.2 6.8 27.3.5 8 .3 9.2-3.3 19.5-2.1 6-3.7 12-3.5 13.3.4 2.9 4.8 6 6.4 4.4.8-.8 1.5-.5 2.4 1.4 1.1 2.1 1.1 2.9 0 4.7-.8 1.2-1.4 3.8-1.3 5.8.1 2.6-.7 4.7-2.5 7.1-6 7.9-8.2 14.8-14.3 45.3-7.3 36.8-12.3 55.1-18.9 69.8L115 384h84.1c66.9 0 84-.3 83.6-1.3-.2-.6-1.7-5.2-3.1-10.2-4.2-13.7-6.8-20.7-14.1-37-3.6-8.3-9.6-22.4-13.1-31.5-11-27.9-11.6-29.3-15.2-35.5-1.9-3.3-4.7-7.6-6.3-9.7-4.6-5.7-4.7-8.7-.6-16 6.5-11.7 10.8-31.8 10.9-50.8 0-7.9-.4-10.8-2.6-17-3.9-10.9-3.9-10.9 1.9-13 2.8-.9 7.5-2.2 10.5-2.8 5.3-.9 6.2-.8 22 4.5 9.2 3.1 19.2 5.7 22.5 6 5.9.5 6.4.4 20.5-6.6 10.8-5.3 16.9-7.6 24-9.2 9.6-2 13.3-4.1 14.6-8.1.3-1.1 1.1-1.7 1.8-1.5.7.3 3-.5 5.2-1.7 3.8-2.1 3.9-2.3 4-7.7 0-5.9.8-7.9 2.8-7.9 1.7 0 10.5 4.7 13.1 6.9 3.9 3.5 8.2 4.5 12.8 3.2 10.2-3 12.8-11.2 6.2-19.1-1.9-2.3-3.5-4.6-3.5-5 0-2-5.5-3.6-8.9-2.6-2.7.8-3.5.7-4.3-.7-.5-.9-2-1.7-3.4-1.7s-2.2-.4-1.9-1 .1-1-.5-1-1-.8-.8-1.8c.3-1.8-1.2-2-6.7-.7-2.7.6-3.1.4-3.2-1.6-.2-2.8-2.3-5-5.1-5.2-1.1 0-1.9-.4-1.7-.7s-.3-1.4-1.1-2.5c-1.1-1.5-1.8-1.7-3.2-.9-.9.6-1.8 2-2 3.2-.4 2.7-5.3 2.5-6.7-.3-1.3-2.5-5.7-4.7-6.9-3.5-1.3 1.3-3.4-1.1-2.8-3.2.3-1.3 0-1.7-1.1-1.2-.9.3-2 2.4-2.4 4.7-.8 3.8-1.2 4.2-4.1 4.4-2.5.2-3.2-.1-3.2-1.5-.1-1.5-.2-1.5-1.5.2-.8 1.1-1.5 2.9-1.5 3.9 0 1.7-.5 1.9-4.7 1.4-11.9-1.5-20.1-1.9-21.9-1-1 .6-3.9.7-6.4.4l-4.5-.6 5.5-.5 5.5-.6-6.2-.4c-3.4-.3-6.1-.3-6 0 .2.6-.8 1-2.4 1-.5 0-.7-.5-.4-1 .3-.6-.2-1-1.2-1-3.6 0-36.3-2.4-36-2.6.6-.6 17.5-3.7 54.2-9.9 47-7.9 43.5-7.1 43.5-9.5 0-3.2-4-9.1-5.9-8.5-9.4 2.9-38.1 7-95.1 13.5-4.7.6-9.8 1.3-11.3 1.6-2.8.6-2.8.5-2.1-3.3.4-2.1 1.1-4 1.5-4.4 1.6-1 2.1-9.5.9-15.5-1.2-5.9-4.6-13.5-8.1-18.6-2-2.7-1.7-5.3.7-6.2.7-.3 2.5-2.9 3.9-5.8 2.2-4.5 2.3-5.3 1-6.1-.9-.5-1.3-1.7-1.1-3 1.9-9.2 1.9-9.4-2.4-14.1L220.9.1h-77.8zm190.7 69.8c-.2 1.9-1.2 2.4-5.3 3.1-9.3 1.6-32 4.8-34.2 4.8-1.3.1-2.3.5-2.3 1.1 0 .5-1 .8-2.2.7-1.3-.1-3.1.1-4.1.6-1 .4-3.2.5-5 .1-1.8-.3-2.6-.2-1.9.2 1.7 1.1-31.7 6.6-38.7 6.3-5.2-.1-7-.6-6-1.5.2-.2 4.9-1.1 10.4-1.9 19.6-3 64.2-10.8 74.5-13.1 14.1-3.1 15.2-3.2 14.8-.4M229.3 90.7c-.7.2-1.9.2-2.5 0-.7-.3-.2-.5 1.2-.5s1.9.2 1.3.5M242 99c1.2.7 1.2 1 .1 1-.7 0-1.1.6-.7 1.5.3.9 0 1.5-.8 1.5s-1.6-1.1-1.8-2.5c-.5-2.6.6-3.2 3.2-1.5m31.7-.4c-.3.3-1.2.4-1.9.1-.8-.3-.5-.6.6-.6 1.1-.1 1.7.2 1.3.5m41.3 19.8c0 .2-.7.9-1.5 1.6-1.3 1.1-1.4 1-.9-.4s2.4-2.3 2.4-1.2m-156 2.1c0 .8-.4 1.5-1 1.5-.5 0-1-.7-1-1.5s.5-1.5 1-1.5c.6 0 1 .7 1 1.5m138.7 7.3c2 .6 1.6 1-3 3.3l-5.2 2.5-6.3-2.6c-3.4-1.5-5.9-3-5.5-3.3.8-.9 17-.7 20 .1"/></svg>