<svg xmlns="http://www.w3.org/2000/svg" width="682.667" height="512" version="1.0" viewBox="0 0 512 384"><path d="M165 1.3c0 .7-1.6 2.8-3.5 4.7-3 2.9-3.6 3.1-5.1 2-3.9-3.3-6.3-2.1-9.9 5.4-2.4 4.9-5.7 6.8-10.7 6.2l-3.7-.4 1.9 4.7c1 2.5 2.6 6.1 3.5 7.8 1 2 1.4 4.2 1 5.4-.7 2-1.2 1.6-6.9-4-3.4-3.4-6.5-5.9-6.8-5.6-.3.4.1 2.4 1 4.6 1.4 3.6 1.4 4.1-.2 5.8-1.4 1.5-1.6 2.6-.8 5.4.6 2 .6 4 0 5-1.4 2.6 3.4 11.1 7.2 12.7 5 2.1 6 3.5 4.9 7.2-1.4 5-1.1 10.3 1.6 23.3 1.3 6.6 2.2 12.1 2 12.3s-1.3-.1-2.4-.8c-2.3-1.2-2.3-1.2-2.6 4.5-.3 7-.5 7.4-2.2 7.3-6.4-.5-8.4 1.9-10.5 12.4-.7 3.5-1.7 6.6-2.2 7-.6.4-.8 1-.4 1.3.8.9-3.5 13.5-11.1 32.3-5.5 13.5-6.2 16-5.8 20.3.9 8.6 10.1 17.6 19 18.6 5.2.6 7.7-1.2 15.9-11.6 3.3-4.2 6.7-8 7.5-8.4 3-1.8 5.8 5.7 8.8 23.2 1.9 10.9 1.3 15-3.9 27.8-4.2 10.3-4.2 14.8-.2 17.1 2.2 1.3 3 1.4 3.3.4.3-.6.8-1.2 1.3-1.2 1.1 0 1.9 6 .8 6.6-.4.3-.8 2.4-.8 4.8 0 2.9-.8 5.2-2.5 7.6-4 5.4-8.1 17.5-10.5 30.5-6 33.4-7.2 39.5-8.6 46-.8 3.8-1.9 8.6-2.4 10.5-2.9 10.7-5.8 20.7-6.5 22.2-.7 1.7 3.7 1.8 83.9 1.8H293l-1.9-4.8c-5.6-14-7.6-18.3-13-27.6-3.2-5.5-6.9-11.9-8.1-14.1s-4.3-7.6-6.8-12c-2.6-4.3-8-15.4-12.2-24.5-10.1-21.8-11.1-23.7-17.1-31.5-5.8-7.6-5.8-7.1-.4-19.5 5.4-12.5 7.1-18.3 9-31.1 2.2-14.4 1.6-25.8-1.7-35.7-2.1-6.2-2.3-7.4-1-8.4 2.5-2.1 8.4-3.7 11.3-3.1 1.6.3 4.2.1 5.8-.5 2.7-.9 4.1-.6 10.3 2.2 4 1.8 12.8 5.4 19.5 8 15.4 5.8 20.2 6 30.6 1.5 11.9-5.2 20.7-7.9 31.2-9.5 10.8-1.6 14.1-3.1 15.5-7 .8-1.9 1.5-2.3 3.2-1.9 1.4.3 3.6-.3 5.6-1.5 2.8-1.7 3.2-2.5 3.2-6.1 0-4.7 1.9-6.8 6.2-6.9 3.3 0 5.9 1 5.3 2-.3.4.7 1.2 2.3 1.8 1.5.5 4.4 2.4 6.6 4.1 4.6 3.7 9.5 4.8 14.6 3.2 5.2-1.6 8-5.3 8-10.7 0-3.6-.7-5.1-4.1-9.1-5.8-6.8-6.9-7.5-10.9-6.8-2.8.5-4 .2-5.5-1.4-1-1.2-2.9-2.1-4.2-2.1-1.4 0-2.1-.4-1.8-1s.2-1-.4-1-.8-.7-.5-1.5c.6-1.4-1.6-2.1-5.4-1.6-.7.1-2.4-1.2-3.8-2.9-1.4-1.6-3.4-3-4.5-3-1.2 0-2.1-.9-2.5-2.5-.9-3.7-4.3-3.3-5.1.5-.3 1.6-.9 3-1.4 3-2 0-5.9-2.4-5.9-3.7 0-.7-.7-1.3-1.5-1.3s-1.5-.4-1.5-.9c0-1.6-3.2-2.2-4.8-.9-1.2 1-1.4 1-.8 0 .4-.6.3-1.2-.3-1.2-.5 0-1.2.6-1.5 1.2-.3.7-.3.1 0-1.5.5-2 .2-2.7-.9-2.7s-1.7 1.5-2.2 5l-.7 5-3.1-1.7c-1.8-1-3.3-2.1-3.5-2.6-.8-1.6-2.4-.5-3.4 2.4-.9 2.7-1.4 3-3.8 2.6-10.5-2.2-25.2-3.8-26.3-2.9-.8.6-3 .7-6.2.1-2.7-.5-14.9-2.3-27-3.9-28.5-3.8-27.8-3.7-22-3.9 3.5-.2 4.4-.5 3-1-1.8-.7-1.8-.8.5-1.4 1.4-.3 7-2 12.5-3.7s18.8-5.8 29.5-9 25.5-7.7 32.9-9.9 15-4.4 16.8-4.7c4.4-.8 5-2.5 2.8-7.4-2.3-5.1-4.8-5.4-14.9-1.9-8.2 2.8-33.5 9.7-38.7 10.6-1.6.2-4.8 1.1-7.1 1.8-4.2 1.4-2 1.4 4.2 0l2.5-.6-2.6 1.5c-4.5 2.6-60.1 17.6-65.2 17.6-2.2 0-2.8-.4-2.3-1.6.3-.9.6-1.9.6-2.4 0-.4.7-.7 1.6-.6 1.3.1 2-1.3 2.8-5.6.7-3.1 1.8-6.3 2.5-7.2.7-.8 1.5-4.2 1.8-7.4q1.05-10.65-6.3-24c-4-7.3-4.1-8.3-1.4-10.7 1.2-1 3-3.9 4-6.3 2.3-5.1 2.4-5.6 1-4.7-.8.5-.9-1.7-.4-6.8l.7-7.5-4.3-4.6c-2.8-3-5.1-4.6-6.6-4.6-1.3 0-2.4.4-2.4 1 0 1.8-3.8 1-7.6-1.5-2-1.4-4.5-2.5-5.5-2.5-.9 0-3.1-1.1-4.7-2.5-4-3.4-10.5-3.4-14.6-.1-2.8 2.2-3.1 2.2-6.8.8-2.1-.8-3.8-1.9-3.8-2.4 0-.4-2.9-.8-6.5-.8-4.7 0-6.5.4-6.5 1.3m176.8 76.3c-.2 1.9-.7 2.4-2.1 2-1.1-.2-1.6-.2-1.3.1.6.6-6.2 2.8-45.4 14.6-36.7 11.1-47.7 14-49.5 13.3-1.1-.4-1.5-1-.9-1.6.5-.5 8.8-3.2 18.4-6s21.3-6.2 26-7.6c4.7-1.3 11-3.2 14-4 11.8-3.4 20.4-6.3 34.5-11.7 5.6-2.2 6.5-2.1 6.3.9M302 83c-1.8 1.2-4 1.3-4 .2 0-.4 1.2-.9 2.8-1 2.1-.1 2.3 0 1.2.8m-52 31.3c0 1.9-1 2.7-2.6 2-2.1-.8-1.7-3.3.6-3.3 1.1 0 2 .6 2 1.3m-87.5 15.5c-.8.8-2.5-1-1.9-2q.6-.9 1.5.3c.4.7.6 1.5.4 1.7M308 145.4c0 .2-2.4 1.2-5.4 2.1-5.2 1.6-5.5 1.6-9.2-.4l-3.9-2 9.3-.1c5 0 9.2.2 9.2.4"/><path d="M270.8 88.7c.7.3 1.6.2 1.9-.1.4-.3-.2-.6-1.3-.5-1.1 0-1.4.3-.6.6m-10.5 22c.9.2 2.5.2 3.5 0 .9-.3.1-.5-1.8-.5s-2.7.2-1.7.5m7.5 1c1.2.2 3 .2 4 0 .9-.3-.1-.5-2.3-.4-2.2 0-3 .2-1.7.4m9.5 1c.9.2 2.3.2 3 0 .6-.3-.1-.5-1.8-.5-1.6 0-2.2.2-1.2.5"/></svg>