<svg xmlns="http://www.w3.org/2000/svg" width="682.667" height="512" version="1.0" viewBox="0 0 512 384"><path d="M180.5 2.2c.4 1.3.9 3.5 1.2 5.1.5 2.6.4 2.7-2.2 1.7-4.4-1.7-5.5.3-2.7 5l2.3 4-3.7 3.3c-2 1.7-5.3 3.7-7.3 4.3-2.3.7-4.4 2.3-5.8 4.5-4.9 7.7-5.5 8.1-11.1 8.1-2.8-.1-5.2.2-5.2.6s1.2 2.9 2.5 5.7c1.4 2.7 2.5 6.3 2.5 7.9v2.9l-4.4-4.1c-6.8-6.3-11.2-8-8.7-3.4 1.6 2.9 1.4 5.7-.5 7.3-1.1.9-1.4 2.2-.9 4.7.4 2 .2 3.9-.6 4.8-1.9 2.3 2.3 7.6 8.5 10.9 1 .5 2.8 2.1 3.8 3.6 1.5 2 1.7 3 .8 5.3-2.7 7.2 0 27.5 6.4 48.5 3.5 11.4 3.4 12.5-.9 12.1-.3-.1-2.2.8-4.3 1.8-8.7 4.5-15 7.2-16.5 7.2-1.6 0-2 3.5-.7 5.5.4.5 1.3 2.6 1.9 4.6 1 3.2.9 4.1-1.3 8-1.3 2.4-2.7 5.9-3.1 7.8-.4 1.8-2.5 5.8-4.6 9-2.2 3.1-4.5 6.4-5.2 7.5-.6 1-1.7 2.4-2.2 3-.6.6-2.3 3.3-3.9 6l-2.8 4.8 1.8 4.2c3.4 7.6 14.1 15.6 20.8 15.6 4.5 0 9-3.5 13.9-10.7 6.3-9.3 9.4-12.9 10.2-12.1 1.4 1.3 3.4 17.2 3.5 26.8.1 10.5-1.1 15.7-6.6 27.7l-3.4 7.5 3.4 3.4c1.9 1.9 4 3.2 4.8 2.9.7-.3 1.9.5 2.7 1.7 1 1.6 1 2.3.2 2.6-2.1.7-3.2 3.9-2.2 6.5.8 2 .4 3.5-2.4 7.8-5.1 8.3-7.2 15.8-11.5 42.3-4.2 25.6-7.4 42.9-8.5 45.9-.7 1.6 3.7 1.7 82.6 1.7h83.2l-1.9-2.3c-12.8-14.4-25.8-31.8-33.4-44.7-1.8-3-6.8-12.5-11.1-21-7.7-15.3-13.8-25.6-17.6-29.5-1-1.1-2.6-3.1-3.5-4.4-1.6-2.2-1.5-2.5.7-6 1.3-2 3.1-5.6 4-8.1 1-2.5 3-7.7 4.5-11.5 3.6-8.8 7.1-25.9 7.2-34.5.1-3.9-.8-9.9-2.2-15-3.1-11.6-3.1-12.2.8-14.1 2.9-1.5 3.8-1.5 8-.3 2.6.8 6 1.2 7.6.8 2.5-.5 6.8 1.2 24.7 10.1 26.9 13.3 26.7 13.3 44.5 7.5 14.1-4.6 25-6.9 33.2-7 7.2 0 12.1-2.2 13.5-6 .8-2.1 1.6-2.9 2.7-2.4 3.5 1.4 4.7 1.3 7.9-.6 2.6-1.7 3.2-2.6 2.8-4.6q-.45-2.4.9-2.4c.7 0 2.9-.7 4.8-1.6 3-1.5 3.9-1.5 7.7-.2 2.4.7 4.3 1.9 4.1 2.6-.1.7.9 1.7 2.2 2.2 1.4.5 4.4 2.3 6.8 4 4 2.9 4.8 3.1 10.7 2.8 5.7-.4 6.7-.8 9.2-3.6 2-2.2 2.9-4.3 2.9-6.5-.1-3.7-1.3-5.6-6.5-9.7-4.7-3.7-8.9-3.9-13.8-.6-3.5 2.4-3.6 2.4-5.3.5-1.6-1.8-1.6-1.9.2-1.9 2.5 0 4.4-1.8 4.4-4.1s-7.3-7.5-11.6-8.3c-2.1-.4-3.4-1.3-3.4-2.2 0-.8-1.3-2.3-3-3.2-1.6-.9-3-2-3-2.5 0-.4-1.4-.7-3-.7-1.7 0-5-.9-7.5-2.1s-5.2-1.8-6.4-1.4c-1.2.3-3.1-.1-4.5-1.1-3.6-2.3-5.6-1.2-5.6 3 0 1.9-.4 3.8-1 4.1-.5.3-1 .2-1-.3s-1.3-1.5-3-2.2c-1.6-.7-3-1.6-3-2.1 0-1.9-3.1-.8-4 1.5l-.9 2.4-11.3-2.5c-9.2-2-28.6-6.1-41.8-8.9-1.4-.3-7-1.4-12.5-2.5s-11.6-2.4-13.6-3c-2-.5-4.9-1.1-6.5-1.3-13.2-1.7-13.5-1.8-11.7-3.1 2.4-1.7 43.7-23.1 76.8-40 14.9-7.5 27.6-14.3 28.3-14.9 1.1-1.1.9-2-.9-5.5-2.6-5.1-3.5-5-13.5 1-6.1 3.8-35 18.2-67.4 33.7-25.4 12.2-38.7 18.5-44.4 21.3-6.1 3-8.6 3.6-8.6 2 0-.5.7-4.6 1.6-9.2 1.7-8.9 3.3-13.3 3.4-9.1 0 1.3.4 2.1.9 1.8.9-.6 3.7-10.5 3.3-11.9-.1-.4.2-.7.7-.7 1.5 0 3.1-6 3.1-11.4 0-7.5-2.3-16-5.9-21.7-3.8-6.1-3.9-8.7-.6-12.5 1.4-1.6 2.5-3.3 2.5-3.7 0-.5 1-2.3 2.2-4 1.8-2.5 1.9-3 .5-2.4-1.9.7-1.8-.7.5-8.2 1-3.3.9-3.6-3.5-7.8-4.5-4.2-8.2-5.4-10.3-3.4-.9.9-10.4-3.2-17.4-7.7-4.3-2.7-7.3-2.8-11.4-.2l-3.2 1.9-6.2-2.9c-5.8-2.7-6.2-3.1-6.2-6.3 0-1.8-.7-5.7-1.5-8.5-1.6-5.2-1.6-5.2-5.7-5.2-3.7 0-4 .2-3.3 2.2M362 80.9c0 1.5-6.6 5.2-31.7 17.6-17.5 8.6-32 16.1-32.1 16.6-.2.5-.8.7-1.3.3-.5-.3-.9-.1-.9.4 0 1.1-15.9 8.8-17.2 8.5-.4-.2-.8.2-.8.8 0 .5-.4.8-.9.5-.5-.4-1.1-.3-1.3.1-.6 1.4-8.6 6.2-11.5 6.9-1.5.4-3.2 1.3-3.8 2-.7.9-1.5 1.1-2.5.4-.8-.5-1.2-1.1-1-1.3.3-.3 13.6-7.1 29.5-15.1 37.7-19.1 55-28.2 65.5-34.4 4.7-2.8 8.8-5.1 9.3-5.2.4 0 .7.9.7 1.9M245 141c-.8.5-1.7.7-1.9.4-.3-.3.1-.9.9-1.4s1.7-.7 1.9-.4c.3.3-.1.9-.9 1.4m22.9-.6c2.8 1 3.1 1.4 1.7 1.9-1 .4-1.4 1.2-1 1.9s-.7.3-2.6-.8c-6.2-3.6-4.9-5.5 1.9-3m53.1 37.2c-5.7 1.7-7.2 1.7-9.6-.1-1.7-1.3-1.1-1.4 6.1-1.4h8z"/></svg>