<svg xmlns="http://www.w3.org/2000/svg" width="682.667" height="512" version="1.0" viewBox="0 0 512 384"><path d="M234.6 2.4c.5 1.9 0 2.6-2.5 3.7-3.5 1.6-3.6 2-1.6 5.8 1.4 2.8 1.3 3-3.8 8.2-2.9 3-7.7 8.2-10.7 11.6-5.4 6.1-5.6 6.3-10.8 6.5-5.8.2-5.7 0-2.6 7.7 2.1 5.1.2 6-3.7 1.7-3.7-4.1-4.9-4.5-4.9-1.5 0 1.5-.4 1.9-1.6 1.5-1.3-.5-1.5-.1-1.2 1.8.4 2 0 2.6-1.6 2.8-1.7.2-2.2 1.1-2.4 4.3-.2 2.2-.8 4.5-1.4 5.2-2 2.4.1 7.1 4 9 2 1 4.9 3.6 6.5 5.8 2.7 3.9 2.7 4.2 1.7 11-1.6 11.3-1.2 25 1.1 34.5 1.1 4.7 2.5 11.2 3.1 14.5.7 3.3 1.5 6.2 2 6.5 1 .8 2.2 7 1.3 7-.4 0-1.8-.8-3.1-1.9-1.9-1.5-3.1-1.7-6.6-1-2.4.4-4.8.8-5.5.9-.6 0-1.4 1.8-1.8 4-.6 3.6-1 4-3.7 4-3.2 0-9.8 2.7-9.8 4 0 .5-.6 1.5-1.3 2.2s-2.4 2.9-3.7 4.8-2.7 3.7-3 4-1.4 1.8-2.4 3.5c-1.1 1.6-7.8 9-15 16.3s-13.8 14.5-14.8 16c-4 6-.2 17.9 7.1 22.8 6.9 4.5 11.9 3 30.4-9.4 12.6-8.5 15.7-9.9 22.9-10.5 8.1-.7 7.6-2.2 6.7 19.3-.8 17.9-2.6 25.1-9.9 39.4-2.1 4-1.4 7.6 1.4 7.6.7 0 3.1 1.6 5.2 3.5s3.3 3.5 2.8 3.5c-1.8 0-3.2 4.3-2.3 6.8.6 1.7 0 3.7-2.5 8.5-4.8 8.8-6.2 13.4-11.2 38.2-3.7 18.1-7.9 35.3-11.1 45.7-.5 1.7 3.3 1.8 70.6 1.8 39.1 0 71.1-.2 71.1-.5s-1.6-5.1-3.5-10.8c-1.9-5.6-5.9-18.3-9-28.2-11-35.3-15.9-46.6-24.6-57.2l-5-6.1 2.5-3.6c1.4-2 3.2-6 4.2-8.9.9-2.9 3.4-8.7 5.5-12.9 8.3-16.6 10.4-27.6 8-41.9-1.8-10.5-1.9-13.8-.6-15.6 1.2-1.6 1.5-1.6 5.1 0 2.2 1 6.2 2.1 9 2.5 3.9.7 7.2 2.4 15 7.8 21.4 15.1 31.7 20.9 39.3 22.4 6.8 1.3 10.1.1 21.6-7.7 11.1-7.5 19.5-11.8 30.4-15.4 9.6-3.3 11.6-4.7 13.2-9.6.9-2.7 1.6-3.4 3.4-3.1 3.1.4 7.4-2.1 8.1-4.6.3-1.2 2.2-3 4.2-4.2 3.2-1.8 4.3-1.9 7.9-1 2.3.6 4.8 1.8 5.5 2.7 2.4 2.9 11.8 8.1 15.7 8.6 8.4 1.1 15-3.5 15.8-11.1.5-4.2.3-4.8-3-8.1-2.5-2.5-4.4-3.5-6.6-3.5-3.8 0-8.6 2.3-10 4.7-.9 1.7-1.1 1.6-3.5-.6-2.3-2.2-2.4-2.6-1.1-4.5 3.9-5.4.6-9.4-8.6-10.4-5.3-.6-6.4-1-6.7-2.7-.6-3-2.2-4.5-4.7-4.5-2.7 0-4.1 1.5-4.8 5-.3 1.6-.5.8-.6-2-.2-8-.9-9.1-5-8.8l-3.6.3.2 6.3c.1 5.3-.1 6.3-1.4 5.8-.8-.3-1.9-.6-2.5-.6s-.8-.7-.4-1.5c.3-.8 0-2.8-.5-4.5-.9-2.4-1.7-3-4-3-2.4 0-3 .5-3.7 3.2-.8 3.4-4.2 5.2-4.2 2.4 0-.8-1-2.1-2.2-2.7-1.8-1-2.4-.8-3.9 1l-1.7 2.1-24.9-3.9c-13.6-2.2-34.2-5.3-45.8-7.1-20.4-3-25.9-4.4-25.9-6.5 0-1 35.7-26.2 52.7-37.2 9.1-6 9.7-6.9 8.1-13.1-1-3.5-3.6-2.7-12.1 3.6-7.1 5.3-42.6 28.4-63.1 41.1-8.8 5.4-12 6.4-10.7 3.3.4-.9 1.6-5.2 2.7-9.4 1-4.3 2.7-9.7 3.8-12 1.7-3.9 1.9-4 1.9-1.6.2 4.9 1.6 3.7 3.5-2.8 1-3.5 2.2-6.2 2.6-5.9 1.1.7 4-9.8 4-14.5 0-6.1-2.8-16.6-5.8-22.1-2.5-4.6-2.5-4.7-.9-9 .9-2.5 3-5.9 4.7-7.7 1.6-1.8 2.7-3.9 2.4-4.7s.4-3.5 1.6-6c2.1-4.4 2.1-4.6.4-7.3-2.8-4.3-4.5-5.1-9.1-4.5-3 .4-5 .1-6.7-1.1-1.4-.9-3.2-1.6-4.1-1.6-.8 0-3.2-1.6-5.2-3.5s-4-3.5-4.3-3.5c-.4 0-3.2.5-6.4 1.1-5.7 1-6 1-11-2.2-2.8-1.8-6.8-4.1-8.8-5.1-3.4-1.7-3.8-2.2-3.8-5.7 0-2.1-.3-5.3-.6-7-.6-3-.9-3.1-5.5-3.1-4.7 0-4.9.1-4.3 2.4M363 97.9c0 1.3-8.5 7.4-30.5 22-16.8 11-30.8 20.1-31.2 20.1-.3 0 5.2-4 12.3-9 23.9-16.6 25.9-18 33.3-23.2 4.1-2.9 9.2-6.8 11.3-8.6 4.7-3.7 4.8-3.8 4.8-1.3m-83 43.2c0 .5-1 .9-2.1.9-1.8 0-1.9-.2-.9-1.5 1.2-1.5 3-1.2 3 .6m-70 8c0 .5-.4.9-1 .9-.5 0-1-.7-1-1.6 0-.8.5-1.2 1-.9.6.3 1 1 1 1.6m183.4 23.1c-5.4 6.2-13.8 12.6-24.8 18.9l-8.1 4.7-4.5-3.8c-2.5-2.1-6.5-5.6-9-7.8l-4.5-4.1 11.6-.1c15.9 0 21.6-1.2 24.8-5.1 2.6-3.1 6.7-4.6 13-4.8l3.4-.1z"/></svg>