<svg xmlns="http://www.w3.org/2000/svg" width="682.667" height="512" version="1.0" viewBox="0 0 512 384"><path d="M449.8 2.5c-8.3 2.2-17.2 8.5-20.2 14.3-2.5 4.9-3.7 13.5-2.8 19.5l.9 5.6-4.1 1.5c-2.3.9-8.4 2.5-13.6 3.6-25.2 5.5-43 14.9-59.3 31.4-9.9 10-12.3 14.1-17.8 30.5-2.1 6.2-5 12.9-6.5 14.8-1.5 2.1-2.3 3.8-1.7 4.2 2.3 1.5 3.4 5.2 2.5 8.1-1.1 2.9 0 5 2.4 5 .7 0 1.4 2.8 1.9 7.5.4 4.1 1 7.5 1.5 7.5.4 0 1.5 1.6 2.4 3.5s2.3 3.5 3.1 3.5 2 .9 2.8 2.1c.8 1.1 2.4 2.1 3.6 2.2 1.1.1 2.1.6 2.1 1.1s.3.6.7.3c.3-.4 1.1-.3 1.7.2s2.5 1.1 4.1 1.2c3.7.5 4.6 1.6 3.8 4.9-1 4.3-3.5 8.4-7.9 13-5 5.2-4.8 6.3 2.1 11 4.1 2.8 4.5 3.5 4.5 7.1 0 2.9.7 4.7 2.5 6.5 1.4 1.4 2.5 3.1 2.5 3.9s.9 2 2 2.7 2 2 2 2.8c0 3.3-5.2 25.7-6.6 28.2-1.4 2.6-1.4 2.8.4 2.8 2.7 0 3.3 2.1 2.2 8.2-1.2 6.7-3.3 33.9-2.7 34.5.3.2.8-.5 1.2-1.6.3-1.2 1-1.9 1.5-1.6 1 .6 2.7-3 6.7-14 1.4-3.9 3.8-8.7 5.4-10.7 1.7-2.2 2.3-3.5 1.4-3.2-2.4 1-1.8-1.3 1.2-4 3.2-3 5-2.4 2.9.9-1.6 2.5-1.1 3.5 2.8 4.9 1.4.5 1.7 1.3 1.3 3.4-2 10.2-6.1 28-8.2 35.2-3.2 11-3.2 11.3.5 9.2 1.6-.9 3-2.1 3-2.5 0-.5.4-.6 1-.2.5.3 1.7-.7 2.6-2.2 1-1.5 3.2-5.1 5.1-8 1.8-2.8 3.3-5.8 3.3-6.7 0-.8.4-1.7.9-2 1.4-.9 7.1-12.3 7.1-14.2 0-.9.8-1.8 1.8-2 .9-.3 2.5-2.2 3.5-4.3 1.9-3.8 6.6-9.6 7.3-8.9.2.2-1 4.4-2.7 9.3-5.8 17.1-7.3 32.6-4.8 48.5.7 4.9.7 8-.1 11s-.8 5 0 7.5c.9 2.7.7 5.4-.9 13.7-1.1 5.7-2.3 14.9-2.7 20.5l-.7 10.3H512V42.1l-4.6-.7c-4.5-.6-11.4-5.3-11.4-7.6 0-1.5-10.4-11.2-18.5-17.3-2.1-1.7-4.6-3.6-5.5-4.3-2-1.8-14.5-9.8-16.2-10.4-.7-.3-3.4.1-6 .7"/></svg>