<svg xmlns="http://www.w3.org/2000/svg" width="682.667" height="512" version="1.0" viewBox="0 0 512 384"><path d="M273.5 1.2c-1.1.6-4.2 3.2-7 5.8-7.4 7-15.4 11.9-18.9 11.5l-2.9-.4.7 5.3c.5 4.9.3 5.6-2 8-1.5 1.4-3.1 2.6-3.6 2.6s0 1.6 1.2 3.6c1.2 1.9 2 3.8 1.6 4.1-.7.7 2.1 4.6 6.8 9.6 3.2 3.2 3.6 4.3 3.6 8.8 0 2.7-.4 6.9-1 9.2-.5 2.3-1.1 9.1-1.2 15.2l-.3 10.9-20 3.3c-11 1.8-27.4 4.4-36.5 5.8-9.1 1.5-19.9 3.3-24 4-4.1.8-12.2 2.1-17.9 3.1l-10.4 1.6-2.4-3.1c-3.1-4-9.7-7.4-12.5-6.5-1.1.3-4 0-6.4-.6-3.9-1.1-4.7-1.1-6.4.5-1.2 1.1-2.8 1.5-4.2 1.2-2.8-.7-4.5.2-4.9 2.8-.3 1.4-1.4 2.1-3.4 2.3-3.1.4-7.5 3.7-7.5 5.6 0 .6.7.2 1.5-.8 1.2-1.6 1.7-1.7 3-.6 2 1.7.6 3.2-2.8 3.2-3.7 0-4.3 3.4-.8 4.3 2.4.6 2.5.7.7 2-2.4 1.8-1.1 3.7 2.2 3.4 3.1-.3 8.7 2.3 10 4.7.5.8 2 1.7 3.4 1.8 2.6.3 9.8 5.2 9.8 6.7 0 .4-.5 1.9-1.1 3.2-1.4 3.2.1 5.6 10.1 16.2 6.7 7.2 15 18.8 23.6 32.7 5.8 9.6 18.3 12.5 31.7 7.4 6.7-2.5 18.6-9.6 29.7-17.7 5.8-4.2 7.1-4.8 10.2-4.2 4.7.7 9.6-1 15.3-5.3 4.1-3.2 7.5-3.9 7.5-1.6 0 .4-1.6 3.2-3.5 6.2-4.4 6.9-5.2 9.7-7 24-.8 6.3-2.2 18-3.2 26-.9 8-1.7 16.9-1.8 19.9 0 5.1.2 5.5 4.4 9.1 2.9 2.5 3.9 4 3.1 4.5-.7.5-1 2.3-.7 4.9.3 3.2-.4 5.8-3.4 12.1-5.7 12.2-7.5 23-10.4 61-.8 11.6-2 25.4-2.5 30.8-.6 5.4-1 10.9-1 12.2v2.5h177l-3.5-4.9c-2-2.7-8.3-9.6-14.1-15.3-18.3-17.9-23.8-26.5-47.3-74.8-6.6-13.6-9.1-17.7-14.4-23.5-4-4.3-6.2-7.6-6-8.6.3-.9 0-2.6-.6-3.7-1.5-2.8.2-6.9 4.1-10.3 3-2.4 3.2-3 3.8-12 .4-5.2 1.6-13 2.7-17.4 1.2-4.4 2.4-11.8 2.7-16.4.9-12 3.6-16.6 12.1-20.9 4.6-2.3 8-6.5 10.1-12.4 1.5-4.3 1.9-20 .8-29.5-.6-5-.9-5.3-4.3-6.3-2-.6-4.6-1.8-5.9-2.8-2.3-1.8-2.3-1.8-.7-6.7.9-2.8 3.7-9.4 6.1-14.7 2.4-5.4 4.4-10.4 4.4-11.1 0-1 2-1.8 5.8-2.5 7.3-1.4 41-6.8 57.5-9.2 12.6-1.8 15.7-2.9 15.7-5.5 0-1.8-10.1-10.5-12.2-10.5-.9 0-7 1.3-13.5 2.9-12.7 3.2-47.7 10.1-51 10.1-1.6 0-2.5-1.6-4.8-8.8-1.6-4.8-3.3-9.4-3.8-10.3-.7-1.1-.1-2.5 2.6-5.4 2.4-2.6 3.3-4.3 2.7-5s-.5-1.9.3-3.1c.8-1 2.6-4.2 4.1-6.9l2.9-5-4.2 4c-4.6 4.4-4.6 4.4-.2-5.8 2.3-5.3 2.6-7.1 1.1-6.2-1.9 1.2-4.7-1.5-6.5-6-1.5-4-2.1-4.6-3.9-4.1-1.8.4-3-.4-6-4.4-2.1-2.8-4.6-5-5.6-5s-2.3-.7-3-1.6C324 .9 319.1 0 303.8 0c-8.5 0-14.7.4-14.4.9 1.1 1.7-4.5 2.2-7 .6-2.7-1.8-6.1-1.9-8.9-.3m138.2 72.4c1.1 2.9-2.1 4.1-17.7 6.7-28.5 4.8-39.5 6.7-41.7 7.2-1.9.4-2.3.1-2.3-1.8 0-2.2.8-2.5 14.3-5.1 7.8-1.5 20.1-4 27.2-5.5 15.4-3.4 19.3-3.7 20.2-1.5M248 103.4c-3 1.6-9.2 3.1-18.5 4.5-14.2 2.2-29 4.6-33.5 5.5-1.4.3-4.3.8-6.5 1.1-9.8 1.2-12.5 1.8-12.5 2.7 0 .6-1.1.8-2.5.6-1.3-.3-2.6-.2-2.7.3-.2.4-5.5 1.7-11.8 2.7-8.5 1.5-11.7 1.7-12.2.8-1.2-1.8-1-2.1 1.5-2.2 1.2 0 5.6-.8 9.7-1.7 7.9-1.7 34.6-6.5 64.5-11.7 9.9-1.8 19.8-3.5 22-4 6.7-1.3 7.2-1 2.5 1.4m-3.1 10.3c2.5 11.8 2.7 10.9-2.1 12.1-2.4.5-6.8.8-9.8.5-4.6-.4-5.9-.1-7.7 1.7-1.3 1.1-2.3 2.9-2.3 3.9 0 1.4-1.5 2.2-6.5 3.6-8.6 2.3-14.1 6.3-15.5 11.2-.8 3.1-2.4 4.8-8.1 8.8-3.9 2.7-8 5.8-9 6.7-1 1-2.3 1.8-2.8 1.8s-1.1.7-1.5 1.5c-.3.8-1 1.5-1.6 1.5-1.6 0-11-15.2-16.4-26.5-5.5-11.3-7.1-13.5-10-13.5-1.2 0-1.6-.4-1.1-.9 1-.8 6.4-1.9 48-9.1 9.9-1.8 23.6-4.2 30.5-5.5s13-2.4 13.7-2.4c.6-.1 1.6 2 2.2 4.6M5.9 39.9c-.5 1.5-2.1 3.4-3.4 4.1L0 45.3V384h46.1l-.5-3.3c-.3-1.7-1-7.5-1.7-12.7-.6-5.2-3.1-17.4-5.6-27-2.4-9.6-6-26.6-7.9-37.8-4.4-25.6-6.8-32.9-14-41.5-1.7-2-2.2-3.5-1.8-5.6.5-2.4.1-3.2-2-4.6-4-2.6-3.2-4 3.4-5.8l6-1.7-2.1-5.3c-6.7-16.5-9.9-26-9.9-29 0-4.1 2.8-13.7 3.9-13.7.5 0 1.6-1.7 2.4-3.8.8-2 2.9-5.1 4.7-6.7 1.8-1.7 4.3-5.2 5.7-7.9s3.8-6 5.3-7.3c3.3-2.7 3.1-4.6-.9-8-2.5-2.2-2.5-2.3-.4-2.3 1.2 0 2.5.4 2.8 1 .3.5 1.1 1 1.6 1s.2-1.2-.7-2.6l-1.7-2.6 3.8 1.6c2.1.9 4 1.4 4.2 1.2s-.9-1.9-2.5-3.7c-2.1-2.5-2.7-4-2.3-5.8.6-2.4.7-2.4 3.9 1.3 3.7 4.2 4.1 3 1-3.4-1.2-2.5-2-4.8-2-5.3.1-.4-.2-.7-.6-.7-1.1 0-6.8-8.8-8.6-13.2-.8-1.8-1.7-6.9-2.1-11.3-.6-7.8-.6-8.1 2.4-12.2 1.7-2.4 4.7-5.8 6.8-7.6l3.7-3.4-2.8-2.6c-2.9-2.7-6.3-4.3-7.2-3.4-.3.3-1.7-.5-3-1.8-1.4-1.3-3-2.7-3.6-3.2-.5-.4-4.3-6.2-8.3-12.8-7.2-11.8-7.3-12.1-5.7-14.7 1.3-2.3 1.4-3.3.3-6.5-1-2.9-1-4.5-.1-6.8.8-2.1.8-3.1.1-3.3-.6-.2-.9-.8-.5-1.3.3-.5-.2-.9-1.1-.9s-2.1 1.3-2.6 2.9"/></svg>