<svg xmlns="http://www.w3.org/2000/svg" width="682.667" height="512" version="1.0" viewBox="0 0 512 384"><path d="M276.5 2c-1.6 1-6.1 5.4-10 9.6-5.3 5.6-7.8 7.6-9.8 7.7-2.4.2-2.7.5-2.2 2.6 1.8 7.1 1.8 8.3-.4 11.2l-2.2 3 2.1 2.8c1.1 1.6 2 3.6 2 4.5 0 2.5-2.8 3.1-5 1.1-2.8-2.6-9.2-1.2-12.5 2.7-3.9 4.6-5.7 8.8-5.2 11.6.3 1.7-.1 3-1.1 3.8-1.4 1-1.3 1.4.5 3.8 1.2 1.4 2.9 5.9 3.8 9.8 1 4 2.4 8.1 3.3 9 1.6 1.9 6.1 3.6 14.2 5.3l5.5 1.1-4.9.8c-12.2 1.9-23.6 7.3-23.6 11.2 0 1.6 1.2 1.3-24 6.5-10.7 2.2-26 5.4-33.9 7.1l-14.3 3-2.7-2.6c-1.5-1.5-4.3-3.1-6.2-3.7-5-1.5-18.6-2.2-19.4-.9-.3.5-2 1-3.6 1-2.2 0-3.2.6-3.9 2.5-.5 1.4-1.5 2.7-2.2 2.9-5.4 1.6-5.3 1.5-3.2 3.1 1.8 1.4 1.8 1.5-.6 3.4-1.4 1.1-2.7 1.6-2.8 1-.5-1.3-2.2-.1-2.2 1.7 0 .8.9 1.4 1.9 1.4 2.5 0 3.6 1.6 1.5 2.4-2.5 1-.6 2.6 3.2 2.6 1.9 0 3.4.4 3.4 1 0 .5.8 1 1.8 1 .9 0 2.3.9 3 2 .9 1.5 1.9 1.8 4.1 1.4 2.4-.5 3.6 0 6.6 2.8 3.7 3.4 3.7 3.5 2.1 6-1.8 2.8-2.1 2.3 9.5 16.5 5.1 6.2 10.6 14.7 20 30.6 3.1 5.3 3.8 5.9 8.8 7.4 7.6 2.2 15.2 1.3 23.2-2.7 6.1-3.1 20.4-13.9 28.5-21.5 3.2-3 4.4-3.5 8.6-3.5 5.1 0 7.6-1 12.2-5l2.9-2.5-1.3 2.5c-.7 1.4-1.9 3.2-2.6 4.1-.8.9-2.1 4.7-2.9 8.5-1.6 7.3-5.6 46.6-5.9 57.1 0 3.3-.4 5.9-.8 5.7-.3-.2-.4.5-.1 1.6s2.5 3.5 4.9 5.2c3.7 2.7 4.2 3.3 3.3 5.1-.6 1.1-.9 3.6-.5 5.5.4 2.5 0 4.3-1.3 6.1-6.4 9.3-9.1 20.8-13.6 57.6-2.8 23.1-6.2 46.9-7.5 52.7l-.8 3.8h175.9l-2.1-3.8c-1.2-2.1-6-8.2-10.8-13.6s-11.1-13.2-14-17.4c-5.9-8.4-21.8-39.7-27.1-53.2-5.8-14.7-11.9-25.5-18.2-32.3-4.5-5-5.9-7.2-5.9-9.5 0-1.7-.5-3.4-1.1-3.8-1.9-1.1.1-5.8 3.9-9l3.7-3.2.5-10.3c.4-5.7 1.6-15.1 2.7-20.9 1.2-5.8 2.6-13 3.1-16.1 1.4-7.5 5.6-14.3 10.4-16.5 4.4-2 8.9-8.2 10.7-14.6.9-3.1 1-8.2.4-18.3l-.8-13.9-3.5-1.1c-4.9-1.4-8-3.3-8-4.9 0-.8 3.4-8.2 7.5-16.4l7.6-15.1 6.7-1.5c5.6-1.2 37.6-7.9 55.6-11.6 4.8-1 7.6-2.5 7.6-4 0-.4-2.7-2.8-6-5.4l-6.1-4.6-8.2 2.5c-9.4 2.8-45.3 11.5-47.8 11.5-1.2 0-1.9-1.2-2.3-4.3-.4-2.3-1.7-6.8-3-10-2.4-5.7-2.4-5.8-.5-7 1.1-.7 3.1-2.8 4.5-4.9 2.1-3 2.3-3.9 1.3-5.6-1-1.6-.7-2.9 2-8.3l3.2-6.3-2.9 2.7c-2.5 2.4-7.2 4.4-7.2 3.2 0-.3 1.4-3.3 3-6.7 1.7-3.4 3-6.5 3-7 0-.4-1.3-.8-2.8-.8-3.6 0-5.7-1.6-8.1-6-1.4-2.7-2.6-3.6-4.9-3.8s-4.1-1.5-6.8-4.8C337 4.6 335 3 333.5 3c-1.2 0-2.8-.7-3.5-1.5-1.7-2-27.2-2.3-26.5-.2.4.9-1.4 1.1-7.7.9-4.6-.2-8.7-.8-9.2-1.3-1.7-1.5-7-1-10.1 1.1M412 73c0 1.6-.1 3-.3 3-.5 0-28 5.7-40.7 8.4-6.3 1.3-11.6 2.3-11.8 2.1s-.1-1.2.3-2.3c.4-1.4 1.8-2.2 4.3-2.7 2-.3 12.7-3 23.7-6C411.7 69 412 69 412 73m-179.7 39.9c-.5 2-6.4 3.8-8.5 2.5-.7-.4-.8-.3-.4.4.4.8 0 1.2-1.1 1.2-1 0-7.9 1.4-15.3 3-7.4 1.7-18.9 4.2-25.5 5.6s-12.8 2.7-13.7 3c-1.1.3-1.8 0-1.8-.9 0-1.7.8-1.9 14-4.8 5.2-1.2 13.1-2.9 17.5-3.9 4.4-.9 13.6-2.9 20.5-4.4s12.7-3 12.9-3.2c1.1-1 1.9-.2 1.4 1.5m3 7.6c3.1 2.7 3.3 3.5 1.2 3.5-2.5 0-5.5 4.1-4.5 6.1.8 1.5.4 1.9-2.8 3-6.2 2-15.4 7.3-17.3 9.9-1.9 2.5-2.6 6.1-1.8 8.9.2.8-.4 1.6-1.3 1.8-.9.3-5.2 3.7-9.5 7.8-5.6 5.3-8.1 7.1-9 6.3-2-1.6-7.6-11.8-11.9-21.8-3.6-8.4-4.6-9.7-7.9-11.3-2.1-1-3.4-2.2-2.9-2.7.5-.4 7.4-2.2 15.4-3.9s21.3-4.7 29.5-6.5c18.3-4.1 19.3-4.2 22.8-1.1M8.8 42.6c-.3.5-.8 2.2-1.2 3.8-.4 1.5-.9 2.6-1.2 2.3s-1.9.9-3.5 2.8L0 54.8V384h61l-.6-4.3c-1.3-9-3.5-17.8-7.7-31.7-4-12.9-5.7-20.3-11.3-49.3-2.1-10.7-4.8-17.7-10-25.3-2.4-3.5-3.9-6.6-3.4-6.9 1.9-1.2 1-3.6-2-5.3-1.6-.9-3-2.2-3-2.8s2.7-1.9 6-2.8 6-2.1 6-2.7c0-.5-2.3-6.4-5.2-13.2-6.2-14.8-7.7-21.2-6.6-28.4 1-6.4 3.7-11.4 8.8-16.8 2.2-2.2 4.6-5.6 5.4-7.6s3-4.9 4.8-6.5c3.7-3.3 3.8-5.5.2-7.8-2.6-1.8-3.3-3.9-.9-3 1.3.5 1.4.2.5-2.1-1.3-3.5-1.3-3.7.8-2.7.9.5 3.1 1.2 4.7 1.6l3 .7-3.2-2.2c-4.6-2.9-4.1-5.4.5-3 .9.4 3 1.1 4.7 1.5 2.8.7 2.8.6-1.5-3.1-2.7-2.5-4.1-4.4-3.6-5.2.6-.9 1.6-.7 4.2.8l3.5 2.1-1.2-2.3c-.6-1.2-2.2-3.6-3.5-5.4-1.7-2.2-2-3.3-1.1-3.6.8-.4.7-.6-.4-.6-2.1-.1-7.3-5.7-9.8-10.6-1.2-2.3-2.7-7.7-3.5-12-1.3-7.8-1.3-8.1 1-12.5 1.2-2.5 3.9-6.2 5.8-8.3l3.6-3.8-2.6-2.5c-1.5-1.3-3.8-2.4-5.1-2.4-2.7 0-10.7-5.1-11.6-7.3-.3-.7-4-6.2-8.2-12.1-7-10-7.5-10.9-6.1-12.5 2-2.2 2-4.5.1-7.5-1.2-1.8-1.3-2.9-.4-5.5 1-2.9.9-3.5-.8-5.3-1.2-1.1-2.3-1.6-2.5-1.2"/></svg>