<svg xmlns="http://www.w3.org/2000/svg" width="682.667" height="512" version="1.0" viewBox="0 0 512 384"><path d="M285 2c-2.1 1.1-5.9 5.1-9.4 9.9-4.6 6.3-6.5 8.1-8.4 8.1-2.2 0-2.4.3-1.7 2.7 1.4 5.5 1.7 11.5.7 12.5-1.2 1.2 1 6.1 4.6 10.7 1.7 2.1 1.7 2.7.6 6.5-.8 2.2-1.6 5.2-1.9 6.6-.4 2.5-.6 2.4-6.9-3.5-8.5-8-16.7-12.9-22.1-13.1-2.3-.1-6.4-1.1-9.1-2.3-5.9-2.6-8.7-1.7-10.6 3.6-.7 1.8-1.6 3.3-2.1 3.3s-.7 2.1-.6 4.7c.3 4.3.1 4.8-2.1 5.3-1.6.4-2.5 1.3-2.5 2.5 0 1.5 1 2.2 4.2 2.9 3.9.8 4.3 1.2 5.7 5.5 4.4 13.7 4.7 14.2 9.4 16.2 2.4 1.1 7.5 2.4 11.3 3 7.6 1.3 8.1 2.3 1.7 3.3-9.9 1.5-19.3 8.7-16.7 12.7 1.1 1.7 1.2 7 .1 8.4-.7 1.1-1.8 1.4-26.2 7-14.4 3.3-21 4.9-25.2 6.1-.9.3-2.8-.7-4.5-2.5-2.2-2.4-4.1-3.2-9.1-4-6.6-1-16.2-.4-16.2 1 0 .5-1.4.9-3.1.9-2.3 0-3.2.5-3.6 2-.3 1.1-2.1 2.7-3.9 3.6-3.6 1.7-4.5 3.4-1.9 3.4 1.3 0 1.4.4.5 2-.6 1.1-1.8 2-2.7 2s-2.1.8-2.8 1.7c-1.1 1.5-.9 1.9 1.2 3 1.4.7 3.8 1.3 5.4 1.3 1.8 0 2.9.5 2.9 1.4 0 1.6 5 3.6 9.2 3.6 2.1 0 4.1 1.1 6.4 3.4 3 3 3.3 3.7 2.3 5.9-1.4 3-.1 5.8 5.8 12 5 5.4 12.5 16.5 18.3 27.2 2.4 4.4 4.8 8.8 5.4 9.7 1.6 2.6 6 3.8 14.1 3.8 9.1 0 16-3.2 26.6-12.4 8.2-7.1 17.5-16.6 17.2-17.6-.1-.4 2.5-.8 5.8-.9 3.9-.1 5.8.2 5.4.8-2 3.3-7 53.6-6.7 67 .2 4.5 2.7 8.5 6.2 9.6 2.5.8 1.8 11.3-1 16.3-3.6 6.2-4.1 7.3-5.6 11.6-2.1 5.9-3.9 15.3-8.9 46.1-3.8 23.2-7.2 38.6-12.2 55.7-.5 1.7 4.1 1.8 86.6 1.8 59.9 0 87.1-.3 87.1-1 0-1.3-7.9-12.9-14.5-21.5-6-7.9-21.7-39.6-30-61-8.7-22.1-13.4-31-20.5-38.8-4.2-4.5-5.6-6.7-4.8-7.5.7-.7.5-1.9-.7-4-2.5-4.1-1.4-7.2 3.5-10l4-2.3-.6-9.2c-.5-7.1-.3-10.4 1-14.7.9-3 2.5-10.6 3.6-16.9 1.5-8.9 2.6-12.6 5.2-16.8 1.8-2.9 4-5.5 4.9-5.8 3.1-1 8.6-8.1 10.8-13.9 1.9-5.3 2.1-6.8 1.4-19.4l-.8-13.6-4.2-1.6c-2.4-.9-4.7-2-5.2-2.5-.6-.6.8-5.3 3.8-12.7 7.3-17.7 7.5-18 15.1-19.9 7.8-2 48.2-11.2 56.1-12.8 10.2-2.1 10.9-4.3 3.4-9.9-3.5-2.5-5.4-3.2-9-3.2-2.6 0-5.5.5-6.5 1-2 1.1-29 8.5-38 10.5-3 .7-6.5 1.5-7.7 1.9-2 .6-2.2.2-2.9-5.1-.3-3.2-1.5-8-2.5-10.6l-1.9-4.8 4.5-5.2c4.6-5.3 5.8-8.7 2.9-8.7-1.7 0-1.4-1.6 1.7-8.9 1.1-2.4 1.8-4.6 1.5-4.8-.2-.2-1.8.8-3.5 2.2-1.7 1.5-3.1 2.3-3.1 1.9s-.9.1-2.1 1.2c-1.9 1.7-1.9 1.4.6-4.1q4.5-10.05 4.5-11.1c0-.2-2-.4-4.5-.4-3.8 0-4.7-.4-6.2-2.8-3-4.9-5.6-7.2-7.3-6.7-1.1.4-3.5-1.1-6.8-4-2.7-2.5-5.7-4.5-6.6-4.5s-1.6-.5-1.6-1c0-1.4-25.7-1.3-26.5.1-.7 1-14.3.7-21-.4-1.9-.4-4.3.1-6.5 1.3m134 72c0 2.5-1.5 3.1-16.1 6.5-6.3 1.4-16.3 3.8-22.2 5.2s-11.1 2.3-11.4 1.9c-1.4-1.4 2.6-3.7 9.7-5.5 12.3-3.2 26.2-7 31-8.5 6.6-2.1 9-2 9 .4m-186 44.8c0 1-6.8 3-21.5 6.2-5.5 1.3-13.8 3.3-18.5 4.6-10 2.8-10 2.8-10 1 0-1 5.2-2.6 17.8-5.6 9.7-2.3 20-4.8 22.7-5.5 6-1.6 9.5-1.8 9.5-.7m120 .1c0 .6-.4 1.3-1 1.6-.5.3-1-.1-1-.9 0-.9.5-1.6 1-1.6.6 0 1 .4 1 .9m-111.3 7.5c0 1.1.3 2.9.7 3.8.6 1.3 0 1.9-2.9 2.7-4.6 1.2-16.2 8.7-17.6 11.3-.6 1.1-.9 3.6-.8 5.6.2 3.4-.4 4.4-7.3 11.7-6.4 6.7-7.8 7.7-9.1 6.7-1.5-1.3-8.8-15.5-12.6-24.5-1.5-3.6-2.8-5-5.1-5.9-1.7-.5-2.9-1.5-2.7-2.1s12.2-3.8 26.8-7.2c27.8-6.5 30.7-6.7 30.6-2.1M10.5 48.5c-1.1 5-1.4 5.7-2.5 5-.5-.3-1 0-1 .8s-.9 2.2-2 3.2c-1.2 1.1-2 3.1-2 5 0 2-.6 3.5-1.5 3.9C.2 66.9 0 85.5 0 225.5V384h37.5c29.6 0 37.5-.3 37.5-1.3 0-2.1-3.9-15.4-8.6-29.6-5.1-15.3-6.3-20.1-9.9-39.6-3.3-17.9-5.5-24.7-10.9-32.7-3.3-4.9-4.2-7.1-3.9-9.4.4-2.4-.1-3.2-2.8-4.8l-3.3-2 6.1-2c3.4-1.2 6.4-2.4 6.8-2.7.3-.4-2.4-7.6-6.1-16-6.6-15.1-6.7-15.6-6.7-24.1 0-9.5.1-9.9 7.7-18.8 2.5-2.9 4.6-6 4.6-6.7 0-.8 2.1-3.4 4.6-5.9 3.2-3.3 4.3-5.1 3.8-6.2-.4-1-.6-2-.6-2.5.1-.4-.7-.7-1.8-.7-1 0-2.9-.4-4.2-.9s-3.5-1.2-4.9-1.5c-1.5-.3-3.1-1.7-3.7-3.2l-1.2-2.6 2.7 2c1.6 1 3.9 2.5 5.3 3.2 2.3 1.2 2.4 1.2 1.1-.4-1.7-2.1-.7-3.3 1.4-1.6s2.9.7 1.5-2c-1.2-2.2-1.1-2.2 3.2-1.5l4.3.7-2.7-2.2c-3-2.3-3.8-4.6-1.4-3.7.8.3 3.2.9 5.3 1.2l3.8.6-2.7-1.8c-1.6-1-2.8-2.3-2.8-3s-.4-1.3-.8-1.3c-.5 0-1.7-.7-2.8-1.6-1.9-1.5-1.9-1.6.1-.9 1.1.4 3.1.9 4.4 1.1 1.4.3 2.8.7 3.3 1 1.6 1 .8-.7-2.8-5.9-2-2.8-4.7-5.8-6-6.5-1.4-.7-2.2-1.7-1.9-2.1.3-.5-.2-1.2-1.1-1.5-2.3-.9-6.1-10.1-7.9-19.2l-1.7-8.1 2.7-5.3c1.5-2.9 3.8-6.3 5.1-7.7 1.3-1.3 2.4-2.7 2.4-3 0-1.3-3.7-3.2-6.2-3.3-1.5 0-2.9-.4-3.2-.9-.3-.4-1.9-1.1-3.5-1.4-2.1-.5-4.7-3-10.1-9.9-4-5.1-9-11.1-11.2-13.4-3.4-3.6-3.7-4.2-2.3-5.4 2-1.6 1.9-6.4-.1-8.1-1.5-1.2-1.5-4 .1-8.2.5-1.2.2-1.7-.8-1.7-.9 0-2-.8-2.6-1.7-.8-1.5-1-1.3-1.6 1.2"/></svg>