<svg xmlns="http://www.w3.org/2000/svg" width="682.667" height="512" version="1.0" viewBox="0 0 512 384"><path d="M456.5 1.7c-.4 1-.9 6.1-1.2 11.3-.4 7.1-.1 10.6 1 14 .9 2.4 1.4 4.6 1.2 4.8-1 1-8.7 2.2-14.7 2.2-18.8 0-44.5 9.2-61.4 21.8-15.9 11.9-22.9 21.5-30.5 41.8-1.2 3.1-3.5 7.1-5.1 9-1.7 1.9-2.5 3.4-1.7 3.2.9-.2 1.4.6 1.4 2.4 0 1.4.3 2.9.7 3.3s.2 1.9-.3 3.3c-1.2 3.1-.5 5.2 1.6 5.2 1 0 1.5 1 1.5 2.9 0 2.7 2.3 15.3 3.6 19.3.3.9 1.4 2 2.4 2.3s2.2 1.5 2.5 2.5 1.5 2.2 2.5 2.5c1.1.4 2.6 1.2 3.4 2 1.1 1.1 1.7 1.1 4.1-.1 2-1 3.1-1.1 4.1-.3 3.9 3.2 1.5 9.8-6 16.6-2.5 2.3-4.6 4.5-4.6 4.8 0 .4 2.3 2.8 5 5.5 4.5 4.4 5 5.2 5 9.3 0 3.5.5 4.8 2.3 6 1.2.8 2.3 2.5 2.4 3.7s1.1 3.1 2.2 4.2c1.2 1 2.1 3 2.1 4.3 0 4.2-6 30-7 30.3-1.7.6-1.1 2.2.9 2.2 3.5 0 4.1 2.1 3.1 11.1-.5 4.6-1 13.3-1 19.3 0 9.5.2 10.7 1.5 9.6.8-.7 1.5-.9 1.5-.4.1 1.6 6-15.1 9.4-26.6.9-3.1 2.8-6.7 4.4-8.2 2.1-2 3.3-5 5.2-12.5 1.8-7.4 3-10.3 5-12 3.5-3.1 6-3 6 .2 0 3-3.6 20.1-4.9 23.1-1 2.3.1 5 1.7 4.1.5-.4 1.7.2 2.6 1.2 1.4 1.5 1.5 2.6.7 6.7-.5 2.7-1.5 9.6-2.1 15.4s-1.5 13.6-1.9 17.5c-.6 4.6-.5 7.2.2 7.7.7.4 1.2 8.2 1.5 20.2.3 10.8.9 19.6 1.3 19.6.5 0 .9-.5.9-1.1 0-.5.4-.8.9-.5.4.3-.3 4.3-1.6 8.8-2.7 9.5-6.3 29.1-6.3 34.9v3.9h110V7l-3.7-3.5-3.8-3.4-23.6-.1c-21.6 0-23.7.2-24.4 1.7"/></svg>