<svg xmlns="http://www.w3.org/2000/svg" width="682.667" height="512" version="1.0" viewBox="0 0 512 384"><path d="M446 2.8c0 6-3.7 7.6-13 5.6-3.2-.6-3.4-.6-2.1 1 1.2 1.5 1.2 1.9.1 2.6-.7.4-2 .5-2.9.2-1.4-.5-1.4-.4-.2 1.2 1.1 1.3 1.1 2 .3 2.8-1.7 1.7-14.9 2.9-17.7 1.6-3.5-1.6-12.7 2.2-16.8 6.9-1.7 2.1-6 6.5-9.4 9.8-5.7 5.5-6 6.2-4.7 7.9 1.7 2.4 1.8 6 .3 8.4-1.2 2 .1 5.1 4.2 10.4 2 2.5 2.1 3 .8 9.5-.7 3.7-1.3 6.9-1.4 7-.3.6-9.8-2.8-11.7-4.2-2.7-1.9-13.4-2.1-15.2-.3-2.3 2.4-6.6 10.5-6.6 12.6 0 1.1.5 2.4 1.1 2.7.6.4.8 1.4.5 2.2s.1 3.1.9 5.1c.9 2 1.3 4.2 1.1 4.9-.3.7.9 2.2 2.7 3.5 5.3 3.7 6 5.4 2.3 6.4-1.3.3-3.3 1.6-4.4 2.9-1.3 1.5-4 2.7-7.4 3.4-2.9.6-13.8 2.8-24.1 4.9-10.4 2.1-19 3.5-19.3 3.1-.3-.5-1.1-.6-1.9-.2-.8.3-1.5.1-1.5-.4s-1.5-2.6-3.4-4.6c-3-3.3-3.9-3.7-8.2-3.7-2.7.1-6.7.7-8.8 1.5-2.2.8-4.3 1.2-4.8.9-1.1-.7-11.3 6.1-13.3 8.9-.8 1.2-1.5 3.1-1.5 4.3s-.7 2.4-1.5 2.8c-2.3.9-1.8 3.3.9 4 1.3.3 3.8.3 5.5 0 2.6-.6 3.1-.3 3.7 2 .7 3 3.8 4.2 8.4 3.2 2.9-.5 4.1.6 2 1.9-1.2.8-1.3 5.8-.1 7 4.1 4.3 9.3 17.9 14.2 37 1.9 7.2 3.9 12.9 5.2 14.2 5 5.6 16.3 5.6 27.3.1 8-4.1 19.4-10.9 24.4-14.6 2.3-1.8 5.5-2.9 9.5-3.5 3.3-.4 7.6-1 9.6-1.3 5.4-.9 6 .7 3.9 9.1-1.5 5.4-1.9 10.8-1.9 23.5-.1 24.6 1.9 35.3 7.3 40.4 3 2.8 3.2 3.5 2.8 7.6-.3 2.8-1.5 5.8-3.1 8-4.8 6.2-8.7 14.3-12.4 25.5-2 6-6.1 18.9-9.2 28.5-8.4 25.8-15.8 42.3-24.3 53.8l-2.4 3.2H413c78.8 0 83.2-.1 82.5-1.8-.7-1.8-9.5-37.1-16.9-68-5-20.9-7.3-26.9-13.5-36.1-3.3-4.9-4-6.5-3.5-9 .7-3.4-.7-5.8-4-7-1.6-.7-1-1.3 4.1-4.1 3.3-1.8 6.5-4.1 7.1-5 .8-1.3.2-4.4-2.3-12.8l-3.3-11.1 2.5-14.8c3.2-19.8 6.2-26 15.3-31.6 2.3-1.5 4.6-4.4 6.8-8.7 3.2-6.2 3.4-6.8 2.7-14-.4-4.1-1-11.1-1.4-15.5l-.6-8-5.5-1.3c-3-.7-6.4-2.2-7.4-3.2-2-1.9-1.9-2.1 5.4-16.7 4.1-8.1 7.8-15.1 8.3-15.4.5-.4 4.1-1.2 8-1.8 10.8-1.8 14.7-3 14.7-4.6 0-1.9-.7-1.9-12.2.7-5.4 1.2-10 1.9-10.3 1.6-1.6-1.6 1.2-3.8 6.3-4.8 14.9-3 15.7-3.3 16-6.3.3-2.4 0-2.8-1.5-2.3-2.7.8-19.3 4.6-20.2 4.6-.5 0-1.3-2.4-1.9-5.3-.6-3-2.3-8-3.8-11.1-2.7-5.6-2.7-5.9-.8-6.9 2.7-1.5 8.4-7.8 8.4-9.4 0-.7-.7-1.3-1.6-1.3-1.8 0-1.3-2.1 2.3-9.5l2.5-5-6.2 6c-6.9 6.6-7 6.2-1.9-5.3 3.5-7.7 3.7-9.7 1-8.2-3.6 1.9-5.9 1.1-9.7-3.6-3.1-3.8-4.2-4.4-6.2-3.9s-3.3-.2-6.8-3.6c-3.4-3.3-4.7-4-6.7-3.5-1.6.4-2.9.1-3.7-.9-.7-.8-1.9-1.5-2.6-1.5-1.8 0-1.8-1.6.1-2.3 1.6-.7 5.5-7.8 5.5-10.2 0-1.1-1-1.5-3.5-1.5-2.1 0-3.5.5-3.5 1.2 0 .8-.3.9-.8.3-.4-.6-1.5-1.1-2.4-1.3-1.4-.2-1.8.4-1.8 2.6m-91 119.1c0 1.6-1.2 2-14.6 4.6-7.1 1.4-17.6 3.5-23.3 4.6-6.8 1.3-10.7 1.7-11.3 1.1-.7-.7 2.2-1.7 8.3-3.1 36.5-8.2 40.9-9 40.9-7.2m4.4 8.2c5.7 3.1 5.7 3.1 3.7 5-1.1 1.1-2.5 1.9-3.1 1.9s-.8.5-.5 1.1c1.6 2.5-.5 5.6-4.7 6.9-12.1 3.8-19.7 9.6-18.5 14 .3 1.3-.1 2.4-1.1 2.9s-4.6 3.2-8.1 6c-3.5 2.9-6.7 4.8-7.1 4.4-1.3-1.6-5.9-15.9-7.1-22.3-.6-3.6-1.7-8.1-2.5-10.1l-1.3-3.7 10.2-2.1c5.6-1.2 15.2-3.2 21.2-4.5 6.1-1.4 11.5-2.5 12.1-2.5.6-.1 3.6 1.3 6.8 3m-89.4.8c0 .5-.7 1.1-1.5 1.5-1.5.5-2-.5-.8-1.7.9-1 2.3-.9 2.3.2M88 47.2c0 3.2-.3 5.8-.7 5.8s-2-1.2-3.6-2.8c-2.9-2.7-3-2.7-2.4-.4.6 2.6-.1 5.4-1.2 4.7-.4-.2-1.5 1.1-2.4 3S75.5 61 74.8 61c-.7.1-.1.8 1.5 1.6 1.5.8 2.7 1.8 2.7 2.2s-4.2 5.1-9.3 10.4c-9.1 9.7-11.6 12.5-14.1 16.2-1.1 1.6-1.6 1.7-3.5.6-2-1-2.6-.9-4.7 1.1-1.3 1.2-3.4 2.3-4.6 2.4-3.5.2-3.6 3.9-.1 6 1.5.9 4.5 4.5 6.6 7.9l3.7 6.3-1.7 4.5c-1.4 4-1.5 5.4-.4 10.2 1 4.4 2 6.2 4.9 8.6 2.2 1.8 4.4 2.9 5.5 2.6 1.3-.3 1.7 0 1.3 1-.3.9.1 1.4 1.2 1.4 3.8 0 4.5 1.4 2.7 5.6-.8 2.1-2.7 5.2-4 7-2.2 2.9-2.3 3.2-.5 2.7 2.2-.6 2.5.4 1.1 4.1-1.2 2.9-5 4.8-15.1 7.4-4.1 1.1-10.1 3.2-13.3 4.8l-5.8 2.8-3.4-3.9c-1.9-2.1-3.5-4.2-3.5-4.7 0-1.5-2.7-.8-5.5 1.4-2.7 2.1-2.9 2.1-5.7.5s-2.9-1.6-6.8 2.2l-4 3.9v18c0 13.7.3 18.6 1.4 20.8 1.4 2.6 1.3 4.9-.2 4-.4-.2-.8.7-.8 2-.2 1.9.4 2.5 2.5 3 5.9 1.2 6.7 2.5 7.7 13.9.5 5.8 1 7.3 3.3 9.4 2.4 2.2 3.5 2.4 9.1 2.2 3.5-.1 7.3-.7 8.5-1.3 1.1-.5 7.3-6.4 13.7-13l11.7-12.1 5.5 2.2c6.4 2.7 7.7 4 10 10.4 1 2.6 2.9 6.1 4.3 7.7 4.3 5.2 12.4 22 11.7 24.4-.3 1.1-2.3 4.4-4.4 7.1-5.7 7.7-9 14.1-19 37-5 11.5-9.6 21.8-10.1 22.8-.5.9-2.3 5.2-4 9.5-1.7 4.2-3.6 9-4.3 10.7-3.4 7.8-4.7 11.6-6.6 18.5-1.1 4.1-2 7.8-2 8.2 0 .5 28.5.8 63.4.8h63.4l-1.9-5.7c-3.1-8.8-4.7-24.3-5.8-56.3-1-30.2-1.4-33.5-5.7-42.5-1.7-3.5-2.3-5.9-1.8-7.9.5-2.3.2-3.3-1.7-4.6l-2.2-1.8 2.1-.6c1.2-.4 2.2-1.4 2.2-2.1 0-.9.6-1.2 1.5-.8.9.3 2.4-.2 3.5-1.2 1.9-1.7 1.9-1.8-.4-6.4-3.1-6.1-7.3-19.1-8.6-26.8-.6-3.4-1.7-8.3-2.4-10.8-.8-2.5-1-4.7-.6-5 .8-.5 2.5-5.4 4.9-14.3.9-3.2 2.1-4.8 5-6.7 4.7-2.9 7.3-7.5 5.7-9.7-.6-.8-3.2-2-5.7-2.6-2.6-.6-7.5-2.5-11-4.2s-9-3.5-12.1-4.2c-3.6-.7-5.8-1.7-5.8-2.5s1.9-3.8 4.1-6.8c2.3-3 4.7-7.1 5.4-9.2 1.2-3.5 1.3-3.6 2.1-1.2.7 2.1.9 1.7 1.5-2.6.3-2.8.2-6.1-.3-7.5s-1.3-7-1.8-12.5c-.5-6.5-1.6-11.7-3-15-2.5-5.7-1.9-9.4 2.5-15.9 2-2.9 2.2-3.8 1.1-4.2-.8-.3-2.4 0-3.5.6-2.8 1.4-4.1.5-4.1-2.8v-2.7l-2 2.5c-1.1 1.4-2 2-2 1.5 0-1.7-10.1-11.6-19.8-19.4l-9-7.3 1.3-3.1c.7-1.7 2.2-3.4 3.4-3.9 3-1.1 2.6-2.1-.8-1.6-4.4.6-5.6-2.2-3-6.7 2.1-3.4 2.1-5.3.1-4.1-.5.3-1.8 2.3-2.7 4.3-1.6 3.3-1.9 3.5-2.6 1.8-.4-1.1-.8-3.1-.8-4.5-.1-1.4-.6-3.2-1.1-4-.7-1.1-1 .2-1 4.2M72.7 171.5c-.7 1.7-6.2 2.1-7.2.5-.3-.5.7-1.2 2.2-1.6 1.5-.3 3.3-.7 3.8-.9 1.5-.4 1.8.2 1.2 2M51 185c0 2.1-1.1 3.7-4.2 6.4l-4.3 3.5-1.2-4.2c-1.4-4.7-1.4-4.7 4.1-7.6 4.6-2.4 5.6-2 5.6 1.9"/></svg>