<svg xmlns="http://www.w3.org/2000/svg" width="682.667" height="512" version="1.0" viewBox="0 0 512 384"><path d="M223 60.2c0 3.3-.4 3.4-3.7.8-3.9-3-5-2.4-1.8 1 3 3.1 2.7 4.4-1 5.3-1.7.3-1.5.6 1.2 1.6 4.9 1.9 5.1 4.1.3 4.1-3.7 0-4.1.3-6.2 4.7-2.1 4.3-2.7 4.8-6 5.1-2.1.2-3.8.7-3.8 1.1s1.4 2.8 3 5.4c3.8 6 3.8 7.4 0 4.7-1.6-1.2-4.1-2.3-5.5-2.6-2.2-.4-2.4-.2-1.6 1.8.4 1.2.6 5.2.4 8.8-.5 6-.3 6.8 2.4 10.2 1.5 2 3.7 4.1 4.9 4.6 1.5.7 2.9 3.4 4.7 9.4 1.4 4.5 2.8 9.4 3.1 10.8.2 1.4.9 3.7 1.5 5.2.6 1.7.7 3.8.1 5.8-.5 1.7-.5 4.1-.1 5.3 1.9 4.9-2.5 10.7-7.9 10.7-4.4 0-5.6 1.1-6.5 6.2-.6 3-.3 4.3 1.4 6.4 1.2 1.5 2.1 4.1 2.1 6 0 1.8.5 3.6 1.1 4s2.5 3.6 4.1 7.2c3.5 7.7 5.5 9.6 12.6 11.9 3 1 5.8 2.6 6.4 3.7s2.3 6.4 3.8 11.7c2.7 9.6 2.8 14.8.6 20.1-.6 1.2.1 2.1 2.4 3.3 3.5 1.8 6.3 6.6 4.2 7.3-.6.2-1.2 1.7-1.2 3.4 0 2.1-1.1 4.3-3.4 6.8-4.2 4.7-8.2 11.4-10.7 18.2-2.2 5.8-10 28.3-9.9 28.3.2 0-1.1 3.4-4.2 11.5-5 12.7-13.7 28.5-20.9 37.7-9 11.5-11.4 14.7-15.4 21l-3.4 5.3h148.7l.7-8.5c.9-10.3-.4-21.9-5-44.5-7.3-36.1-10.6-48.7-15.7-60-1.4-3-2.7-7.6-3-10.2-.5-4.1-.3-4.8 1.8-5.8 4.2-2.3 4.5-5 3.5-27.5-1.2-24.8-2.6-30.7-8.5-37.4-2-2.3-2-2.4-.1-1.7 1.1.4 5.2 1 9.1 1.3 5.4.4 7.9.2 10.6-1.1 3-1.5 4.9-1.5 14.2-.7 12.3 1.2 18.6.6 23.6-2.1 3.8-2.1 8-7.4 8-10.1 0-1-2.7-7.1-6-13.6-4.6-9.2-12-28-12-30.7 0-.2.6-.4 1.3-.4.8 0 3-1.6 5-3.5 3.3-3.2 3.7-4.1 3.7-8.6 0-5.7-2.5-10.3-6.3-11.5-2.1-.7-2.1-.7-.2-1.5 5.5-2.1 13.2-.2 20.6 5.4 1.9 1.3 4.8 2.1 9.1 2.4 5.9.3 6.7.2 9.1-2.3 3.5-3.5 4-5.6 3.6-15.7-.4-7.2-.9-9.3-4.1-15.8-2-4-5.3-9-7.3-10.9-3.5-3.4-3.9-3.5-10.3-3.3-6.1.2-6.9.5-9.3 3.3-1.4 1.7-3.1 5.3-3.8 8.2-2.3 10-11 18.4-20.1 19.3-4.1.4-4.5-.1-4.2-4.6.1-1.6-5.1-5.3-6.1-4.2-.4.3-3.7.7-7.4.9-6.1.3-8.9 1.6-7.7 3.5.2.4.1.9-.3 1.1-.5.2-1.8 1.5-3.1 2.9-2.1 2.5-2.2 2.7-.7 6.9.8 2.3 1.5 4.6 1.5 4.9 0 .4-2 1.5-4.5 2.5-2.5 1.1-6.6 3.9-9.2 6.3-6.5 6.2-7.7 5.6-7.9-3.8-.2-7.9-1.7-12.2-5.5-16-1.7-1.7-1.8-2.2-.5-4.2 2.1-3.2 3-8.7 1.6-8.7-.9 0-1.1-1.4-.6-4.9.6-4.8.5-5-2.9-7.7-2.6-2-4.9-2.7-8.8-2.9-2.8-.2-8.3-1.4-12.1-2.8-7.4-2.8-8.7-2.7-13.4 1.6-2.8 2.6-5.9 1.2-5.4-2.4.2-1.8 0-2.1-.9-1.2-1.6 1.6-3.9.6-7.1-3.1l-2.7-3.1zm101 35.9c0 .6-.4.7-1 .4-.5-.3-1-1.1-1-1.6 0-.6.5-.7 1-.4.6.3 1 1.1 1 1.6m14.4 19.4c1.7 2.6 2 5.3.8 7.1-1.1 1.7-5.2 2.8-5.2 1.4 0-.7.9-1.4 2.1-1.7 1.1-.3 1.8-1.1 1.5-1.7-.2-.6-1.1-2.8-2-4.8-1.3-3.1-1.4-3.6-.2-3.2.8.3 2.2 1.6 3 2.9m4.7 1.4c.7-1.1.9-.9 1 .6.2 3.2-.2 4.9-1.4 5.7-2.1 1.3-2.3.9-1.8-3.5.2-2.3.6-3.6.9-2.8.4 1.1.6 1.1 1.3 0M280 122c0 .5-.8 1-1.7 1-1.5 0-1.6-.2-.3-1 1.9-1.2 2-1.2 2 0m26 .4c0 .8.3 2.1.6 3 .4 1.1 0 1.6-1.2 1.6-1.1 0-3.4.9-5.3 2.1-2.7 1.6-3.6 1.8-4.2.7-2.1-3.2-.5-6.5 3.7-7.8 4.4-1.3 6.4-1.2 6.4.4m-20 7.2c0 .9.9 2.9 2 4.5l2.1 2.8-4 2.6c-5 3.1-5.4 3.1-7 .1-2.3-4.2-2.1-8.9.3-10.3 3.1-1.8 6.6-1.6 6.6.3m22 26.4c0 .5-1 1-2.2.9-2.2 0-2.2-.1-.3-.9 1.1-.5 2.1-.9 2.3-.9.1-.1.2.3.2.9m11.7 5.6c-.3.3-1.2.4-1.9.1-.8-.3-.5-.6.6-.6 1.1-.1 1.7.2 1.3.5M214 163c0 .5-.5 1-1.1 1-.5 0-.7-.5-.4-1 .3-.6.8-1 1.1-1 .2 0 .4.4.4 1m228-7.1c-.8.5-6.7 1.1-13 1.4-8.3.5-13.8 1.3-19.8 3.2-7.5 2.4-8.4 2.9-9.7 6.2-1.9 4.4-1.9 4.7 0 3.9q1.5-.45 1.5 1.2c0 .9.3 2.6.6 3.7.4 1.7-.3 2.3-4.2 3.5-2.5.8-4.5 1.9-4.4 2.5.1.5.7.9 1.5.7.7-.1 1.6.2 2 .8.3.5 1.5 1 2.6 1 1 0 1.9.5 1.9 1.1s.7.9 1.5.5c.9-.3 1.5 0 1.5.9 0 1.4 5.7 3.5 9.7 3.5 3.4 0 8.9 10.7 18.4 35.3 1.2 3.2 3.2 6.5 4.4 7.3 2.9 1.9 15.6 5.4 19.5 5.4 6.3 0 27.7-6.9 40.6-13.1 3.4-1.6 6.8-2.7 7.6-2.5.7.2 2.8.7 4.6 1l3.2.5v-42.5l-3.9.2c-16.1.8-23.3 3.9-23.3 9.9 0 1.5-.6 2.5-1.5 2.5-.8 0-6 2.3-11.4 5.2-11.5 6-10.6 6.4-14.4-5.6-2.7-8.4-2.5-9.5 2-9.6 1.1 0 13-1.1 26.4-2.5 13.5-1.4 24.8-2.5 25.3-2.5.4 0 .8-.8.8-1.8 0-2 1.9-2.1-24.5.8-25.7 2.8-33.5 3.3-33.5 2.2s1.6-1.3 30.5-4.2c29.4-3 27.5-2.6 27.5-5.9v-2.7l-20.7 2.2c-11.5 1.3-24.4 2.7-28.8 3.2-8.6 1-10.2.5-10.7-3.1-.2-1.2-1.5-2.7-2.9-3.4-2.8-1.4-4.5-6.5-3.3-9.7.7-1.8-1.1-2.1-3.6-.7m-37.5 19.8c-.7 1.7-.8 1.7-1.5-.2-.9-2.4-.2-4.1 1.2-2.7.6.6.7 1.9.3 2.9m102.1 183.1c-2.7 5.3-6.2 11.6-7.8 13.9-1.5 2.3-2.8 4.4-2.8 4.8 0 .3-.9 1.5-2 2.7s-2 2.5-2 3c0 .4 4.5.8 10 .8h10v-17.5c0-9.6-.1-17.5-.2-17.5-.2 0-2.5 4.4-5.2 9.8"/></svg>