<svg xmlns="http://www.w3.org/2000/svg" width="682.667" height="512" version="1.0" viewBox="0 0 512 384"><path d="M245 74c.9 1.7.8 1.9-.7 1.4-1.3-.4-1.1 0 .6 1.4 2 1.6 2.1 2 .7 2.5-1.5.6-1.5.9.1 3.4 1 1.6 2.4 3.3 3.2 3.9 1.1.9 1.1 1.5-.3 4.2-.9 1.7-2.5 3.6-3.6 4.2s-1.8 1.6-1.4 2.1c.8 1.4-.5 6.1-1.6 5.4-.5-.3-1.1-.1-1.5.5-.3.5-1.4 1-2.5 1-1.4 0-1.8.7-1.6 3.2.1 2.7-.3 3.4-2.1 3.6-2.5.4-3.7 2.7-2.4 5 .7 1.2.4 2.3-.9 3.7-1.2 1.3-1.6 3-1.3 5 .4 2.5 1.6 3.6 7 6.5l6.5 3.5 2.9 8.5c1.6 4.7 3.4 10.3 4 12.5.5 2.2 1.2 4.7 1.6 5.5s1.2 4.1 1.8 7.2c1.3 6.4.9 6.8-6.6 6.8-4.5 0-6.5 1.6-7.3 5.9-.4 2.4-.1 4.1 1.3 6 1 1.4 2.1 4.4 2.4 6.5s1.5 4.8 2.6 6c1 1.2 2.6 3.9 3.5 6.1 2.1 5.1 6.8 9.3 11.5 10.1 2 .3 4 .7 4.5.8 1.2.3 5 11 6.6 18.5 1.3 6.4.4 12.9-2.7 17.7-1.2 1.9-1 2.2 2.7 3.9 5.9 2.7 6.6 3.9 4.1 7.1-1.3 1.7-1.9 3.5-1.5 4.6.4 1.3-.3 2.8-1.9 4.4-4.1 4.1-10.3 17.3-12.5 26.4-1.1 4.7-3.2 14.6-4.7 22-3.9 20.2-9.3 38.6-17.1 57.3l-2.3 5.7H374l-2.6-5.8c-6.5-14.4-15.6-39.9-24.8-70.1-3.1-10.1-7.5-21.9-9.8-26.3-2.2-4.3-3.8-8.7-3.5-9.7.2-1 0-2.6-.5-3.6-.8-1.4-.5-2.2 1.7-3.9 2.2-1.8 2.8-3.3 3.7-10.1.6-4.4 1.1-15.9 1.2-25.5l.1-17.6-3.2-6.2-3.2-6.1 6.2.4q6.15.3 10.2-1.2c3-1.2 8-1.6 20.5-1.7 19.1-.2 23.9-1.5 27.8-7.8 2.9-4.7 2.8-6.5-1.2-12.3-5.1-7.7-11.4-19.7-13.6-26.1-1.1-3.1-2-5.8-2-6s1.9-1.2 4.3-2.2c6.2-2.8 8.9-6.2 9.5-12 .4-4.4.1-5.2-2.8-8.5-4-4.6-3.2-5.1 8.2-4.5 7.3.4 9.3.9 17.1 4.8 9.5 4.7 11 4.7 13.4-.1 4.1-8-1.9-32.1-10.2-40.7-2.2-2.4-8.7-4.4-11-3.6-.7.3-2.7 3.5-4.5 7.2-1.9 3.7-4.6 8.3-6.2 10.4-5.1 6.5-18.4 13.9-23.6 13-1.8-.3-2.3-.9-2-3 .2-1.6-.5-3.5-1.7-4.8-1.7-1.8-3-2.1-9.9-1.9-6.6.1-8 .4-8.9 2.1-.5 1-2.4 3.1-4.1 4.5-2.6 2.3-2.9 3-2 5 1.5 3.4 1.2 8-.6 9-.8.4-4.2 2-7.5 3.4s-7.4 3.9-9.1 5.6c-3.9 3.8-14.1 7-15.5 4.8-.5-.8-.6-2.1-.3-2.9s.8-4.8 1.1-8.8c.5-6.5.3-7.7-1.6-10.3-1.4-1.9-1.7-2.9-.9-2.9.7 0-.3-1.5-2.2-3.3-3-2.8-3.6-4-3.8-8.2-.1-3.1.4-5.5 1.3-6.5 1.1-1.2 1.2-2 .2-3.9-1.3-2.7-2.3-3.3-8.2-5.1-2.2-.7-4.9-2.1-6.1-3.1-2.9-2.7-9.7-2-12.8 1.4-4.6 5-16.7 4.8-20.5-.3-1.4-2-2.6-2.7-3.8-2.3-1.1.4-2.4-.3-4.1-2.3-2.2-2.6-2.4-2.7-1.9-.7.4 1.9.2 2.1-1.3 1.3-1.1-.6-2.2-1.5-2.5-2-1.2-1.9-2.6-1-1.5 1m138.5 50.5c1.4 1.3 2.5 3.3 2.5 4.3 0 2-3.1 5.2-6.7 7.1-3.5 1.8-4 1.2-1-1.3 2.8-2.3 2.9-2.4 1.3-5.4-3.4-6.6-.9-9.6 3.9-4.7m-33.8 7.1c-.3.4-.2 1.5.4 2.5.8 1.6.6 1.9-1.5 1.9-1.3 0-3.1.6-3.8 1.2-.7.7-3 2.6-5 4.1l-3.8 2.8-1.2-2.6c-1.7-3.9.5-7.2 6.1-9 4.8-1.4 9.9-2 8.8-.9M326.3 142c.5 1.9 1.4 4.1 1.9 4.8 1.2 1.4-.1 2.7-6 5.9-4.1 2.2-5.9 1.3-9-4.7-2.6-5.1-2.1-6 4.3-8.4 5.9-2.2 7.7-1.7 8.8 2.4m-11.4 12.4 2.4 1.3-2.2 1.2c-2.5 1.4-5.1 0-5.1-2.5 0-1.7 1.8-1.7 4.9 0m35.1 12.1c0 .8-.9 1.5-2 1.5-2.2 0-2.7-1.5-.7-2.3 2.1-.9 2.7-.7 2.7.8m-93.3 6.7c-.3.7-.5.2-.5-1.2s.2-1.9.5-1.3c.2.7.2 1.9 0 2.5m252.7-16.5c-1.6.3-2 .9-1.7 2.4.4 1.2-.3 2.7-1.8 4.2-1.8 1.6-2.8 4.2-3.8 10-1.2 6.6-1.8 8.1-3.7 9-3.2 1.4-3 2.3.5 3 2.9.6 3 .7 2.6 6.4-.2 3.2-1.6 11.4-3.2 18.3-3.3 15.2-3.5 20.4-.8 22.4 3.2 2.4 10.3 5.6 12.5 5.6 2 0 2-.6 2-41 0-22.6-.1-40.9-.2-40.9-.2.1-1.3.4-2.4.6"/></svg>