<svg xmlns="http://www.w3.org/2000/svg" width="682.667" height="512" version="1.0" viewBox="0 0 512 384"><path d="M.7 60.7C.3 61 0 83.6.1 110.9c0 27.3.3 48.9.6 48.1s.9-1.7 1.3-2 1.7-3.9 3-7.9c2.1-6.8 2.2-8.7 1.7-21-.4-7.5-1.3-16.2-2.1-19.4L3.3 103l4-4.1c2.3-2.2 5.8-4.9 7.8-5.9 2.9-1.5 3.8-2.7 4.4-5.6.7-3.9-.3-5.4-3.7-5.4-1.3 0-1.8-.8-1.8-3 0-2.5-.5-3-3.7-3.9-2.1-.6-4.6-1.1-5.5-1.1-2.6 0-4-3.6-3.6-9.1.1-2.7.3-4.9.2-4.9 0 0-.4.3-.7.7M279 64.1c0 .6.5 1.9 1 3 1.5 2.7.1 2.4-3.3-.9l-2.9-2.7 1.6 3.2c.9 1.8 2.2 3.3 2.9 3.3.6 0-.4 1.1-2.5 2.3l-3.6 2.3 2.8 4.1 2.9 4.2-2 4c-1 2.2-1.9 4.4-1.9 4.9 0 .6-1.6 2.7-3.5 4.8-1.9 2.2-3.5 4.4-3.5 5.1 0 .6-1.3 2.1-3 3.3-2.2 1.5-3 3-3 5 0 1.8-.7 3.3-1.9 3.9-1.3.7-1.8 2.1-1.8 4.9 0 3.6.3 4 4.6 6 8.1 3.8 9.1 5.1 10.7 13.3.9 4.2 1.5 12.6 1.4 19.4 0 11.9 0 12-2.9 14.7-4.3 4-4.8 7.7-1.7 12.3 1.5 2.1 2.6 5 2.6 6.5s.7 3.4 1.7 4.1c.9.8 2.5 3.4 3.6 5.9 2.9 6.5 7.9 11 12.3 11 3 0 3.7.5 4.8 3.2 2.2 5.2 5.7 23 4.8 24.2-1.1 1.4-5.5 13.7-5 14 .1.2 2.1 1 4.3 1.8 4.6 1.8 5.6 4.3 2.5 6.5-1.6 1.1-2 2.2-1.6 3.9.5 1.7-.3 3.5-2.6 6.6-5.6 7.3-8.9 16.3-12 32.3-5.4 27.5-8.7 42.8-13.3 60-2.4 9.4-4.5 17.6-4.5 18.2 0 1 14.1 1.3 67 1.3 36.9 0 67-.2 67-.5 0-.2-2.9-4.2-6.4-8.9-8.4-11-10.5-17.5-23.1-70.9-2.7-11.7-4.8-18.1-8.1-24.7-5.4-10.8-6.6-17.3-3.6-18.9 1.1-.6 2.4-2.8 3-5.3 2.2-8.7 4.4-26.6 4.5-36.3.1-8.4-.2-10.8-2.1-14.9-1.2-2.7-2.2-5-2.2-5.2s2.9-.4 6.4-.4c3.6 0 7.5-.4 8.8-.9 1.5-.5 7-.3 14.8.6 6.9.8 16 1.3 20.3 1.1 7.6-.3 8-.4 11.3-4 2-2.2 3.4-4.8 3.4-6.3 0-1.3-2.3-5.9-5-10.2-4.9-7.4-10-17.4-11.5-22-.5-2 0-2.6 4.7-4.6 3-1.3 6.6-3.9 8.2-5.8 2.4-2.9 2.8-3.9 2.4-8.1-.3-3.1-1.3-5.7-2.7-7.1-1.1-1.3-2.1-2.6-2.1-3 0-1.2 9.4-.8 15.1.7 3 .8 9.4 3.8 14.2 6.6 7.1 4.2 9 4.9 10.6 4 6.3-3.3 5-27.5-2.3-41.8-2.6-5.1-4-6.2-8.1-6.2-1.3 0-2.7-.5-3-1-1.2-1.9-2.2-.9-7.5 7.1-5.8 8.8-12 14.1-20.7 17.7-8.8 3.7-17.1 2.3-13.3-2.3.9-1.1.7-2-1.4-4.2-2.2-2.3-2.9-2.6-4.4-1.7-1.4.9-2.4.9-4.2-.1-1.7-.9-3-1-4.3-.4-1 .6-2.6.7-3.7.4-1.3-.4-2 0-2.5 1.4-.3 1.1-1.4 2.3-2.4 2.6-4.1 1.3-5.3 3.9-4.3 9.4.8 4.3.7 5.1-.7 5.5-.9.3-4.1 1.2-7.2 2.1-3.1.8-8.1 3-11 4.8-5.4 3.2-20.1 7.3-22 6.2-.5-.4-.9-2.2-.9-4.2 0-2.9.3-3.5 1.8-3 2 .4 2 .2 2.1-8.6 0-1.7.5-2.6 1.1-2.2s1-1.7 1-5.8c0-5.1-.5-7-2.2-9.2-2.1-2.7-2.1-2.8 0-1.6 3.8 2 3.3 1.2-1.7-3.2-4.7-4.1-4.9-4.4-4.6-9 .2-2.7.8-5.4 1.4-6 2.3-2.3-.2-9.8-2.8-8.3-1.1.7-5.1-1.4-8.7-4.6-2-1.8-2.3-1.8-6-.2-2.2.9-4.6 2-5.4 2.5-4.7 2.8-6.6 3.1-12.1 2-3-.6-6.4-1.1-7.6-1.1s-3.1-1.5-4.8-4c-2.2-3.1-3.1-3.8-4.1-2.9-1.1.9-1.8.3-3.5-2.5-2.2-3.7-2.9-4.4-2.9-2.5M413.9 132c1 .5 2.4 2.3 3.1 4 1.1 2.7 1 3.3-.6 5.1-2.2 2.4-7.3 5.3-8.1 4.5-.9-.8.7-2.6 2.4-2.6 1.1 0 1.4-.6.9-2.3-.4-1.2-1-3.9-1.3-6-.6-3.9.2-4.6 3.6-2.7m-33.7 7.1c-.2 1.7-1.2 3.3-2.1 3.6-.9.4-3.7 2.1-6.2 4-5.4 3.8-6.4 4-7.9 1.4-2.8-5.3.3-8.7 9.5-10.5 3.9-.7 7-1.4 7.1-1.5 0 0-.1 1.3-.4 3m40 3.6c-.2.7-1 1.3-1.7 1.3-1 0-1.1-.7-.2-3.7 1.1-3.4 1.2-3.5 1.8-1.2.3 1.3.4 3 .1 3.6m-66.2 1.6c0 1.2.9 4.1 2 6.2 2.4 4.7 2.6 4.5-8.3 10.1L341 164l-3.3-2.2c-2.6-1.6-3.3-2.8-3.4-5.4l-.1-3.3 2.6 1.7c2.5 1.6 2.6 1.6 1.9-.1-1.2-3.2-1.9-6.7-1.4-6.7.3 0 2.3 1 4.4 2.2l3.7 2.3-2.3-3.8c-1.3-2.1-2.2-4-2-4.2.8-.7 7.5-2.3 10.2-2.4 2.2-.1 2.7.3 2.7 2.2M0 354.2V384h11.5c6.3 0 11.5-.2 11.5-.5s-1.3-3.2-3-6.5c-4.1-8.1-8.2-18.6-14.6-37L.1 324.5z"/></svg>