<svg xmlns="http://www.w3.org/2000/svg" width="682.667" height="512" version="1.0" viewBox="0 0 512 384"><path d="M469 23.6c-16.6 2.9-33.2 8.9-44 15.9-15.8 10.3-20.6 15-28.4 28.5-2.1 3.6-5.9 8.4-8.5 10.7-3.2 3-4.1 4.3-2.8 4.3 1.9 0 2.2 1.1.7 2.6-1.8 1.8-2.8 16.6-1.2 17.2.5.1.7 1.4.4 2.7-.2 1.4-.1 6.4.3 11.1.5 6.3 1.2 9.1 2.5 10.4 1 1 1.6 2.1 1.3 2.3-.3.3-.2 1.5.2 2.7.5 1.7 1.2 2 3.2 1.5 1.8-.4 2.9-.1 3.9 1.2.8 1.1 1.7 1.4 2.1.8 1.6-2.1 3-1.2 4 2.6s.9 4-2.8 7.2c-2.1 1.7-5.1 4.2-6.8 5.5-3.5 2.7-3.3 4.1 1.7 9.1 3.2 3.2 3.4 3.7 2.8 8.2-.6 4.1-.3 5.2 1.4 6.9 1.2 1.2 1.9 2.8 1.6 3.7-.3.8.2 2.7 1.3 4.1 1 1.5 2.1 5.3 2.5 8.6.6 5.7 2 9.5 3.8 10.7 1 .6-3.2 20.2-5.1 23.7-1.1 2-.9 2.2 1.3 2.2 1.4 0 2.8.4 3.1 1 .3.5.8 7 1 14.2.4 17.9 1.2 22.8 3.6 22.8 2.1 0 2.6-1.5 6.3-19.3 1.9-8.9 3.1-12.3 4.7-13.6 1.5-1.2 3-5.2 5.3-14 2.6-10.4 3.5-12.5 5.4-13.2 2.8-1.1 3 .9.2 4.3l-1.9 2.5 4.5-1.6c4.3-1.5 4.6-1.5 5.8.2.7.9 1.1 2.8.9 4.1-.4 1.9 0 2.5 1.7 2.8 1.2.2 2.9 1.5 3.8 3.1 1.7 2.7 1.6 2.8-1.3 5.2-1.7 1.3-5.9 4-9.5 5.9-14.7 7.9-17.5 14.4-25 60.2-3.2 19.4-3.6 24-1.9 24.6.7.2.7 2.8-.1 8.8-.6 4.6-1.3 8.8-1.6 9.1-.2.4-2.1 1-4.2 1.4-2 .3-4.8 1.4-6.1 2.5l-2.5 1.8 4.3 8.6c4.3 8.6 4.3 8.6 4.4 20.4 0 6.4-.2 12.3-.7 13-.6.9 11 1.2 53.3 1.2H512V27.5l-6.3-1.9c-4.6-1.4-9.8-2-20.2-2.2-7.7-.1-15.1 0-16.5.2"/></svg>