<svg xmlns="http://www.w3.org/2000/svg" width="682.667" height="512" version="1.0" viewBox="0 0 512 384"><path d="M57.4 26.1c-.3.6-1.4.9-2.4.6-1.7-.4-3.4 2.2-5.4 8.5-.3 1-1.3 1.8-2.3 1.8s-2.5.5-3.3 1c-1.3.8-1.3 1.4.4 4.4 1.8 3.3 1.8 3.5-.1 8.5-1.2 3.2-3 5.8-5.1 7.3C18.4 72.9 18.8 72.6 12 73.3c-3.6.3-7.2.9-8.1 1.2-3.5 1.3-3.9 5-3.9 38 0 30.5.1 32.6 1.9 34.4 1 1 2.4 2.7 3 3.7.9 1.4 1.4 1.5 1.7.6.8-1.8 6.4 6.2 6.4 9 0 1.3 1.2 5.9 2.7 10.3 2.1 6.3 3.5 8.8 6.6 11.7 2.3 2 4.4 3.6 4.8 3.5s1.5.7 2.3 1.8c1.5 2 1.5 2 1.6-.3 0-2.7 2.5-2.9 5.9-.6l2.3 1.7-3.3 2c-1.8 1.2-5 4-7.2 6.4-3.1 3.3-4.7 4.3-7.1 4.3-3.9 0-9.2 4.7-10.1 9-.3 1.6-3.1 6.2-6.1 10.2-5.7 7.7-6.4 10.4-3.9 15.2 1.4 2.7 1.4 3.4 0 7.5-1.9 5.5-1.9 9.4-.1 12.9 1.4 2.9 1.1 15.2-.5 15.2-.5 0-.9 24.6-.9 56.5V384h140.9l-2.5-6.7c-11-29.4-14.5-35.4-25.2-43.7-4.9-3.7-6.1-5.2-6.4-7.9-.2-2.2-1-3.5-2.5-4.2-4.6-2-2.1-6 5.5-9 2.3-1 4.2-2 4.2-2.5 0-.4-.7-2.2-1.7-4-1.2-2.4-1.7-6.5-1.9-14.9-.1-7.4-.9-15.1-2.3-21.1-2.5-11.3-2.6-14.7-.5-19 1-1.8 2.1-6.5 2.5-10.4.5-3.9 1.2-8.6 1.5-10.4.9-4.5-1.2-11.3-5.5-18-2-3.1-4.2-6.9-5-8.5-.8-1.5-1.7-2.7-2.1-2.7s-2.6-1.8-4.9-4.1c-2.5-2.5-4.7-3.9-5.6-3.5-1.1.4-1.5-.2-1.5-2.4 0-3.8 1.3-3.9 2.7-.3l1 2.8.8-2.8c.8-3.1 2.5-3.6 2.5-.7 0 2.8 1.5 2.5 2.9-.7l1.3-2.7 1.9 2.4 1.9 2.5V189q0-2.55.9-1.2c1.9 3 10.1-17.1 10.1-24.8 0-8.7-5.2-27.9-10.3-37.7l-2.1-4.1 2.4-5.3c1.4-3 4.4-7.5 6.8-10.2 5-5.7 5.3-7.2 1.2-6.4-2.6.6-2.9.4-2.7-1.6s-.3-2.2-5.8-2.7c-6-.5-6-.5-7.3-4.5-1.5-4.7-2.1-5.3-3.1-3.7-.5.9-2.5-.7-6.3-5.5-3.1-3.7-7.3-8.6-9.4-10.8-2.2-2.2-4.5-4.8-5.3-5.8-1.3-1.6-1.2-1.6 1.5-.2s2.9 1.3 4-.8c.6-1.2 1.9-5.3 2.9-9.1l1.8-7-3.3-2.7c-1.8-1.6-4.6-3.1-6.1-3.4-1.9-.4-2.6-1.1-2.2-2.1.3-.8.2-1.4-.3-1.3s-2.1-.1-3.6-.5c-2.3-.7-2.7-1.5-3.3-5.7-.7-5-3.5-8.3-5.1-5.8m373.2 43.4-.9 5-1.5-3.3c-1.9-4-3.2-4.1-3.2-.3 0 3.1-3.1 6.4-7.2 7.7-1.1.3-1.6.9-1 1.3 1.3.8 4.3 8.1 3.3 8.1-.8 0-8 7.2-17.8 17.6-3.3 3.5-6.2 5.5-9.3 6.4-2.5.8-5.4 2-6.5 2.7-1.2.7-3.2 1.5-4.5 1.7-1.4.2-2.7.5-2.9.5-.2.1 1 1.4 2.5 3 1.6 1.7 4.2 5.5 5.8 8.5 2.5 4.7 2.7 5.9 1.8 8.3-.6 1.5-2.3 7.5-3.7 13.3-2.7 10.9-6 17.3-9.8 19.1-1.2.6-3 2.1-4 3.5-1.6 2.2-1.6 2.4-.1 2.4 1.4 0 1.5.2.3 1.6-1.2 1.5-1.1 1.6 1.1.9 1.4-.4 3.1-1 3.8-1.2 1.8-.7 1.5.6-.6 2.5q-1.5 1.5-.6.9c.9-.6 1.1-.2.7 1.3-.3 1.2-1.2 2.4-1.9 2.7-1 .4-.3 1.4 2.1 3.3 1.9 1.5 3.1 3 2.7 3.4-.3.4.1.4.9.1 1.1-.4 2.2.3 3.4 2.1 1.7 2.6 1.7 2.7-.5 4.4-1.3 1-5 2.5-8.2 3.4-3.3.9-5.6 2-5.3 2.5s0 1.1-.7 1.3c-.7.3.9 2.7 4 6 3.2 3.4 5.8 7.3 6.8 10.3 1.9 5.5 5.9 12.8 7.8 14.4 1.4 1.2 1.4 3.5-.5 18.6-.9 7.8-3.6 14.7-9.7 24.8-1.2 2.1-2 4.2-1.7 4.7s3 1.7 6 2.6c3 1 5.5 2.1 5.5 2.6 0 .4-1.3 1.4-2.9 2.3-2.5 1.2-2.9 2-2.5 4.2.4 1.9-.8 5.4-3.9 11.8-4.7 9.3-5.6 13.2-8.7 35.5-1.8 13.2-4.9 27.6-7.6 35.8-.8 2.3-1.4 4.7-1.4 5.2 0 .6 21.8 1 59.1 1 46.9 0 59-.3 58.5-1.3-.2-.6-3.9-11.8-8.2-24.7-13.2-40.6-16.6-49.1-22-56.5-1.2-1.7-2.9-4.4-3.7-6.1-1.5-3-1.5-3.3 1.7-9.5 1.8-3.5 5-9.1 7.1-12.3 2.1-3.3 5.1-8.8 6.6-12.3 2.8-6.1 3.1-6.4 10.9-10.3 4.4-2.2 8.6-4 9.3-4 .8 0 4.3 2.7 7.9 6 6.8 6.2 15 11 18.8 11 1.2 0 3-.5 4.1-1 1.8-1 1.9-2.2 1.8-16-.1-14.3-.2-15-2.3-15.6-2-.6-3.6-2.2-3.6-3.6 0-.4 1.4-1.5 3-2.5l3-1.7v-39.4l-4.7-.5c-4.2-.4-5.1-.1-7.4 2.3-1.5 1.5-3.1 3.5-3.6 4.4-.8 1.5-1.7 1.3-8.4-1.8-4.3-2-10.6-4-14.7-4.6-5.4-.9-9-2.2-14-5.2-9.6-5.8-9.5-5.8-7.7-7.8 1.1-1.2 1.3-2 .6-2.5-1.3-.8-.4-5.4 1.5-7.4 1.1-1.2 1.2-1.1.7.9-.6 2.3-.3 2.2 4.5-1.4 2.9-2.1 5.2-3.4 5.2-3s1.8-2 4-5.4l4-6.1-2.4-6.5-2.3-6.5 2.6-5.3c1.4-2.8 4.3-6.8 6.4-8.9 2-2 3.7-4.1 3.7-4.7 0-1.8-2-2.4-3.5-1.2-1.1.9-2.1.7-4.5-1-1.6-1.2-3-2.6-3-3.2s-1.8-.8-4.4-.6c-4.4.3-4.4.3-16.1-11.1-7.8-7.7-11.2-11.6-10.4-12.1.9-.6.7-1.8-.8-4.9-1.8-3.6-1.9-4.3-.6-6.1 1.6-2.3.2-2.8-1.7-.5-2.1 2.6-2.9 1.7-3.2-3.8l-.3-5.2zm17.3 113.7c2.1 3.2 2.1 3.3 1.5.5-.3-1.5-.3-2.7 0-2.7 1.5 0 9.5 4.6 9.6 5.5 0 .5-1 2.2-2.3 3.7-2.1 2.6-2.4 2.7-6.6 1.7-4.6-1-10.1-4.3-10.1-6 0-.6.5-.7 1-.4.6.3 1.3-.2 1.7-1.2.6-1.8 2.3-4.3 2.8-4.3.2 0 1.3 1.5 2.4 3.2m27.7 11.9 7.4 4-2 4c-2 3.8-3.8 4.7-7.4 3.3-1.8-.7-2.2-4.9-.6-5.9 1.9-1.2-1.4-4.4-5.3-5-3.7-.7-3.8-.8-2.1-2.6.9-1 1.9-1.9 2.2-1.9.2 0 3.8 1.8 7.8 4.1"/></svg>