<svg xmlns="http://www.w3.org/2000/svg" width="682.667" height="512" version="1.0" viewBox="0 0 512 384"><path d="M73.5 26c-.3.5-1.5 1-2.6 1-1.3 0-2.6 1.4-4.1 4.4-1.6 3.5-2.9 4.6-5.9 5.5L57.2 38l2.1 3.9c2.1 3.8 2.1 3.9.2 8.2-2.6 6.2-3.7 7.2-14.5 14.4-8.3 5.5-10.3 6.4-15.5 6.9-4.6.5-6.5 1.2-8.1 3-2.5 2.8-8.3 3.7-10.9 1.6-1.4-1.2-2-1.1-4.4.3-1.6.9-3.1 1.3-3.5 1C1.3 76 0 79.4 0 84.2c0 3.6.4 4.8 1.8 5.3.9.3 2.4 1.6 3.3 2.8 1.8 2.4 7.9 16.5 7.9 18.2 0 .5-.9 2.8-1.9 5-2.5 5.3-5.1 17.3-4.4 20.8.3 1.5 1.7 3.7 3.1 5 1.4 1.2 3.8 3.5 5.5 5.2 1.6 1.6 3.4 3 4 3 1.8 0 6.6 7.8 6.7 10.8 0 4.4 4 17 5.9 18.7.9.8 2.4 2.6 3.4 4 .9 1.3 1.7 1.9 1.7 1.2 0-2.1 2-1.3 3 1.2 1.2 3.2 3.5 4.7 2.8 1.8-.4-1.2-.2-2.4.3-2.8 1-.6 7.9 2.4 7.9 3.5 0 .4-2.4 3.2-5.3 6.3-3.9 4.1-6.6 6-9.8 6.9-5.4 1.5-9.5 5.1-11 9.7-.6 1.9-1.8 4.2-2.6 5.1-.7.9-3.5 4.3-6 7.5l-4.6 5.9 2.2 4.3c1.7 3.2 2.2 5.2 1.7 7.6-1.8 8.5-1.8 10.1-.1 14.4 1.2 3.2 1.5 5.8 1 9.4-.7 5.4-1.3 5.8-12.3 7.5l-4.2.7v13.4c0 7.5.4 13.3.8 13 .5-.3 3.5-.9 6.8-1.5 3.2-.5 7.1-1.2 8.7-1.6 1.8-.5 2.7-.3 2.7.5 0 .6-.4.8-1 .5-1.8-1.1-5 1.5-5 4 0 2.3-.4 2.5-4.9 2.5-8.8 0-8.1-3.7-8.1 40.6V384h77.5c42.6 0 77.5-.4 77.5-.8 0-2.1-8.3-25.1-11.4-31.5-4.2-8.7-8.5-13.9-16-19.2-4.6-3.3-5.5-4.4-5.1-6.2.3-1.4-.2-3-1.3-4.1-1.8-1.8-1.8-1.9.2-4 7.8-7.6 7.7-7.6 8.3-18.1.5-10.4-.6-17.5-5.3-35.1-2.5-9.2-2.5-9.5-.8-13 1-1.9 2.1-6.7 2.5-10.5.4-3.9 1-9.1 1.4-11.6.9-5.9-.6-10.9-5.4-17.4-2-2.8-4.7-6.7-6-8.8-1.2-2-2.6-3.7-3-3.7s-2.4-1.6-4.4-3.5c-2.4-2.3-3.4-4.1-3-5.2.6-1.4.7-1.4 1.9.2 1.3 1.7 1.4 1.6 2.3-.8 1.3-3.3 2.8-4.2 3.5-1.9 1.3 4 3.8 1.8 8.4-7.7 4.6-9.3 4.7-9.9 4.7-18.6-.1-11.9-3.7-26.8-9.2-37.8l-2.4-4.7 2.7-4.8c1.5-2.6 5-7.1 7.8-10.1l5.1-5.3-3.2.4c-3 .4-3.2.3-2.7-1.9.6-2.2.4-2.3-4.9-2.3-6.2 0-6.7-.6-6.7-7.3v-4l-2.3 2.1c-1.3 1.2-2.6 2.2-2.9 2.2s-2.9-3-5.6-6.8c-2.8-3.7-6.7-8.3-8.7-10.2s-4.5-4.7-5.6-6.2c-2.1-2.9-2.1-3 3.7-1.3 1.9.6 2.4-.1 4.3-5.6 2.9-8.6 2.7-11.2-.9-14.2-1.6-1.4-4-2.9-5.2-3.3-1.3-.3-3.1-1.5-4.1-2.5-1-1.1-2.8-1.9-4.1-1.9-2.1 0-2.5-.6-3.1-5.3-.8-5.8-3.2-8.6-5-5.7m7.9 31.6c.5 1.4.4 1.5-.9.4-1.7-1.4-1.9-2-.6-2 .5 0 1.2.7 1.5 1.6m20.7 134.7c-1.3 1.3-2.6.3-1.6-1.2.3-.6 1.1-.8 1.7-.5.6.4.6 1-.1 1.7M27.5 296.1c.4.5-.7.9-2.4.9-3.9 0-4.9-1.7-1.1-1.8 1.6 0 3.2.4 3.5.9M451.8 64.6c-.5.4-.8 2-.8 3.5 0 3.7-1.4 4.4-2.8 1.4-1.7-3.7-2.8-3-2.4 1.2.3 3.6.2 3.9-4.1 5.8-2.7 1.2-4.2 2.4-3.8 3 .5.5 1.3 2.4 1.9 4.2 1 2.9.8 3.3-1.5 4.9-1.4.9-7 6.1-12.4 11.5-5.8 5.9-10.7 9.9-11.8 9.9s-2.3.5-2.7 1.1c-.3.6-1.5.9-2.5.6s-2.1-.2-2.4.3c-.2.4-2.5 1.3-5 2l-4.6 1.3 2.5 2.6c3.5 3.8 7 10.9 6.9 14.5 0 3.6-5.8 24.6-7.6 27.9-.6 1.2-3.4 4.5-6.1 7.4-3.9 4.1-4.5 5.1-2.6 4.6 2.2-.6 2.2-.6.5 2.1l-1.8 2.7 3.6-2.1c3.7-2.2 4.9-1.7 2.5.9-1.1 1.1-1 1.2.2.5.8-.4.1 1-1.7 3.2l-3.1 4 3.8 3.2c2.1 1.7 4.3 3.2 4.9 3.2 1.2 0 .3 5.8-1.2 7.7-.9 1.2-5.7 2.9-10.4 3.6-2.9.4-3.5 1.1-3.8 4.2-.3 1.9.4 2.9 2.5 4 4.2 2.2 6.6 5.8 8.9 13.3 1.1 3.8 3.2 8.5 4.5 10.5l2.5 3.7-1.4 10.8c-1.7 12.7-2.2 14.6-4.8 19.2-1.1 1.9-2.7 4.8-3.5 6.5-.8 1.6-2.4 4.2-3.4 5.7-1.1 1.6-1.7 3.2-1.4 3.6.3.5 3.3 1.9 6.8 3.2l6.2 2.2-2.7 1.4c-3.3 1.8-5 4.7-3.5 6.2.8.8.2 2.5-2.1 6.2-4.8 7.9-8 17.7-9.5 29.5-2.1 15.8-7.7 39.4-12.1 50.7-.7 1.7 2.5 1.8 58 1.8 55.4 0 58.6-.1 58.1-1.8-.3-.9-3.7-13.4-7.6-27.7-10.1-37-11.4-40.7-19.6-54.2-2.4-4-4.4-7.7-4.4-8.2 0-1.7 6.5-13.3 12.4-22.4 5.6-8.6 6-8.9 14.7-13.2 4.9-2.5 9.5-4.5 10.2-4.5s3.7 2.7 6.7 6.1c4.9 5.3 10.5 9.9 12.4 9.9.3 0 .6-16.7.6-37 0-35.2-.1-37-1.8-36.1-1.3.7-2.8.3-5.7-1.5-6.7-4.2-12.4-6.5-18.5-7.6-4.2-.7-7.5-2.1-11.2-4.8-9.7-7.1-9.4-6.8-7.9-7.9.9-.6 1.1-1.8.7-3.4-.7-3.1.2-6 1.9-5.3.7.2 2.8-.5 4.6-1.7 1.9-1.1 4-2.2 4.7-2.3 1.9-.3 7.2-6.4 7.8-9.1.4-1.3 1.1-2 1.9-1.7 1 .4.9-.9-.6-5.8-1-3.5-1.9-7.2-1.9-8.4 0-2.9 7.7-14.5 10-15.1 2.1-.6 3.5-3.6 2.5-5.4-.5-.7-1.3-.5-2.4.5-1.6 1.4-2.1 1.3-5.6-2-3.2-2.9-4.4-3.4-7-3-2.9.6-3.8-.2-15.3-12.3-10.3-11-12-13.1-10.5-13.9 1.5-.9 1.5-1.2-.4-4.5-1.9-3.1-2-3.7-.7-5.5.8-1.3 1-2.3.5-2.7-.6-.3-1.6.5-2.3 1.7-1.2 2.1-1.3 1.9-1.8-3.5-.3-3.3-.8-5.5-1.2-5.1m12.6 119.6-.7-3.3 4.7 3.1c2.5 1.7 4.6 3.3 4.6 3.6 0 .2-.9 1.3-2 2.4-2.4 2.4-7 2.6-11 .5-3.4-1.7-3.8-4-1.4-7.3l1.6-2.3 2.4 3.3 2.4 3.2zm19 10.1c1.6 1.2 1.4 1.3-1.8.9-2-.2-3.3-.8-3-1.3.8-1.3 2.7-1.1 4.8.4m8.2 5.3 3.4 2.6-1.8 3c-2.1 3.6-3.7 4.4-5.7 2.8-1.9-1.6-1.9-3.7-.1-7.2 1.3-2.4 1.2-2.7-.2-3.1-1-.3-1.1-.5-.4-.6.7 0 2.9 1.1 4.8 2.5"/></svg>