<svg xmlns="http://www.w3.org/2000/svg" width="682.667" height="512" version="1.0" viewBox="0 0 512 384"><path d="M88.6 26.2c-.9 1.2-1.6 1.7-1.6 1 0-2.8-2.3-.8-4.3 3.8-1.6 3.5-2.8 5-4.2 5-1.1 0-3 .3-4.2.6l-2.2.6 2.5 3.3c2.7 3.6 2.8 3-1.9 13.2-.5 1.1-5.1 4.8-10.1 8.2-7 4.6-10.7 6.4-15.2 7.2-3.7.7-6.6 1.9-7.7 3.2-2.2 2.5-10.3 3.2-12.5 1.1-1.7-1.8-2.7-1.8-4.2.1-.7.8-2 1.5-3 1.5-2.4 0-3.7 1.8-4.5 6.3-.6 3.2-.4 4.1 1.6 6.1 4.1 4.1 4.9 5.4 7.9 12.6 3.4 7.7 3.6 9.7 1.6 12.5-1.9 2.8-4.6 13.9-4.8 19.8-.1 4.7.2 5.2 5 9.8 2.7 2.6 5.3 4.5 5.8 4.1.4-.4.4.1.1 1q-.6 1.65.6 1.2c1.8-.6 5.3 6.1 6.2 11.6 1.1 8 4.7 18.9 6.7 20.7 1.1 1 2.7 1.8 3.6 1.8 1 0 2.1 1 2.7 2.2 1.3 3.1 2.5 2.9 2.5-.3v-2.5l4.1 2.3c2.3 1.3 4.4 2.9 4.7 3.6.2.7-1.9 3.7-4.8 6.6-3.9 3.9-6.3 5.6-8.9 6-4.9.8-7.8 3-9.7 7.4-.8 2-3 5.3-4.8 7.2s-4.8 5.6-6.6 8.3l-3.3 4.7 2.3 4.9c2.1 4.6 2.2 5.3 1 11.3-1.2 5.7-1.1 6.9.3 9.8 1.9 3.7 2.2 8.6.8 12.3-.8 2.1-2.3 2.8-9.8 4.6-4.8 1.1-11.4 2.3-14.5 2.7l-5.8.7v14.3c0 7.9.3 14.4.8 14.4.4 0 4.1-1.2 8.2-2.6 8.4-2.9 27.9-7.4 31.9-7.4 1.5 0 3.1.8 3.8 2 1.2 1.8 1 1.9-4.8 1.7-6.5-.1-8.3 1-7.6 4.9.4 2.1-.1 2.2-8.2 2.8-4.7.3-12.1.9-16.3 1.2l-7.8.6V384h85c74.5 0 85-.2 85-1.5 0-3.3-10.4-30.5-14.1-36.8-3.7-6.2-12.3-14.7-18-17.7-1.5-.9-1.8-1.5-.9-2.4.5-.8.7-2.1.4-3-.4-1.1.3-2.7 2-4.5 8.5-8.9 8.9-27 1-54.5-2.4-8.6-2.5-9-.8-12.5 1-2 2.1-7.2 2.6-11.6s1.1-10.1 1.4-12.7c.4-3.4.1-5.8-1.4-9-2.2-5-14.9-20.8-16.7-20.8-1.9 0-6.8-5.7-5.6-6.4.6-.4 1.1-.2 1.1.3 0 2 1.7 1.1 2.8-1.4 1.2-2.7 4.2-3.4 4.2-1.1 0 .8.4 1.7.8 2 1.2.7 8.6-12.8 11.1-20.1 1.8-5.5 2-7.1 1.1-13.5-1.8-12.8-4.5-23.2-8.9-33.4l-2.3-5.2 2.6-4c1.4-2.2 4.6-6.2 7.1-8.7 2.5-2.6 4.5-4.9 4.5-5.2s-1.1-.3-2.4-.1c-2.2.4-2.3.2-1.6-1.8q1.65-4.05-5.1-2.7c-3.9.8-4.9-.6-4.9-7.2l-.1-5-2.8 3.3-2.8 3.3-3.7-4.9c-2-2.7-3.6-5.2-3.6-5.4s-3.1-3.6-7-7.6c-3.8-3.9-7-7.6-7-8.1 0-1.3 2.8-2.2 3.5-1.1 1.5 2.5 4.4.9 5.9-3.3 4-11.3 4-11.6 1.2-14.6-1.4-1.5-4.2-3.3-6.3-4-2-.8-4.6-2.2-5.7-3.2-1.1-1.1-3-1.9-4.2-1.9-1.9 0-2.4-.7-3-4.8-1-7.2-3-9-5.8-5m11.6 33.3 1.1 2-2.4-2c-2.8-2.4-3.9-3.7-3.9-4.9 0-1.3 4 2.4 5.2 4.9m368.3 7.9c-.8 4.2-2 4.7-2.9 1.1-1.1-4.2-2.9-3-2.2 1.5.6 4.1 0 4.9-2.3 2.7-1.1-1-1.3-.9-.7.6.4 1.4-.1 2.1-2.3 3l-2.9 1.1 1.6 4.3c1.5 3.8 1.5 4.5.2 5.3-2.8 1.7-7.2 5.5-15.8 13.7-7.5 7-9.3 8.2-13.2 8.8-2.5.4-4.9 1-5.5 1.3-.5.4-1.9.7-3 .9-1.1.1-2.9.4-4 .7-1.1.2-2.2.5-2.4.5-.2.1 1 1.5 2.6 3.1 1.6 1.7 3.9 5.9 5.2 9.4 2.1 6 2.1 6.6.7 9.4-.9 1.7-2.8 7.7-4.2 13.4-1.7 6.8-3.5 11.5-5.2 13.7-6.9 8.7-6.8 8.6-4.8 7.8 1.9-.8 1.9-.1.1 4.8-.6 1.6-.1 1.4 2.4-.9 2.2-2.2 3.4-2.7 4.2-1.9 1.3 1.3-.1 4.4-3.5 8.1-2 2.3-2.1 2.4-.2 3.7 1 .8 2.3 1.6 2.8 1.7.6.2 1.1 2 1.2 4 0 2-.2 3.4-.6 3.2-.5-.3-.8.4-.8 1.6 0 2.6-4.9 5.6-10.6 6.5-4.6.7-5.6 1.5-6 5.1-.2 1.8.7 2.9 3.7 4.6 4.2 2.4 7.3 7.5 8.5 14.3.3 2.2 1.7 6.1 3.1 8.6l2.4 4.6L412 249c-2.1 11.1-5.3 19.2-11.6 29.1l-2.3 3.7 3.3 1.6c1.9.9 4 1.6 4.8 1.6.7 0 2 .6 3 1.3 1.5 1.2 1.3 1.5-1.3 3.2-2.4 1.6-2.9 2.5-2.5 4.6.3 1.8-.7 5.1-3.4 10.4-4.1 8.2-7 18.7-9.5 35-2.1 13.9-7.2 33.8-11.1 43.2-.5 1 11.6 1.3 58.1 1.3h58.7l-.6-2.2c-.3-1.3-3.6-13.7-7.2-27.6-8.4-32.6-11.1-40.4-18.4-53-3.3-5.7-6-10.9-6-11.5 0-.7.9-2.3 2-3.7s2-3 2-3.6 1.9-3.7 4.2-6.9c3.8-5.3 5-6.2 15.2-11 14.9-7 14.3-6.8 16.3-3.9 1 1.4 2.8 3.7 4 5.2l2.2 2.7.1-37.1v-37.1l-6.5-2.2c-3.6-1.1-7.1-2.1-7.8-2.1-1.9 0-17.4-11.8-18.2-13.8-.3-1 0-2.1.9-2.8 1-.7 1.6-2.6 1.6-4.8 0-2.8.4-3.6 1.8-3.6 1 0 2.3-.5 3-1.2s1.2-.8 1.2-.3.6.1 1.3-.8c.6-1 2.3-1.9 3.6-2.2 3-.6 4.6-2 8.3-7.3l3-4.4-1.6-6.5-1.7-6.5 2.6-4.4c1.5-2.5 4-6 5.6-7.8 3.7-4.3 3.7-6-.1-7.6-1.7-.7-3.5-2.2-4.1-3.2-.9-1.6-1.7-1.9-4.5-1.4-2.7.6-3.7.3-5.3-1.6-14.3-17-20.2-23.7-21.3-24.1-1-.4-.9-.9.5-2 1.7-1.4 1.7-1.8.3-5.2-1.1-2.6-1.3-4.2-.6-5.5 1.6-3.1 1.1-3.5-1.3-1.2l-2.4 2.2-.2-4.7c-.2-5.9-.8-6.5-1.6-1.9m7.6 116.7c.7 1.5 1.4 1.8 1.8 1 .5-.8 2.3.1 5.5 2.6 5.7 4.4 4.7 5.5-3.9 3.8-9.1-1.7-10.9-3.5-7.5-7.7 1.9-2.3 2.7-2.3 4.1.3m31.9 23.3c-.1 1.5-2.5 4.6-3.7 4.6-1.8 0-5.4-4.7-4.8-6.3.3-1 .7-2.4 1-3.3.4-1.3 1.1-1.1 4 1.2 1.9 1.4 3.5 3.1 3.5 3.8"/></svg>