<svg xmlns="http://www.w3.org/2000/svg" width="682.667" height="512" version="1.0" viewBox="0 0 512 384"><path d="M498 16c-18.6 1.6-36.1 7.5-52.1 17.6-12.3 7.8-16.4 11.5-22.5 20.7-2.6 3.8-6.8 8.5-9.5 10.5-5 3.9-5.9 5.2-3.4 5.2 2 0 1.9 1-.5 4-1.2 1.6-1.7 3.4-1.3 5.2.3 1.8-.2 3.6-1.6 5.6-1.9 2.7-2 6.2-.2 6.2.3 0 .5 5 .3 11-.3 8.6-.1 11.5 1.1 13.3.8 1.3 1.7 3.4 1.9 4.8.2 1.7 1 2.5 2.8 2.7 1.4.2 2.9.8 3.5 1.3.5.5 2.1.9 3.6.9 2 0 2.8.6 3.1 2.4.7 3.4-.6 5.2-6 8.2-6 3.5-8.2 5.4-8.2 7.1 0 .7 1.6 3.1 3.7 5.3 3.5 4 3.6 4.2 2.6 8.5-.8 3.4-.7 5.1.3 7.1.8 1.4 1.4 3.6 1.4 4.8s.5 2.7 1.1 3.3 1.5 4.9 2 9.5c.7 7 1.2 8.6 3.3 10.3l2.4 2-2.4 8.3c-2 6.9-4 12.2-6.2 16.4-.2.5.5.8 1.6.8 3.4 0 4.5 2.3 3.2 6.8-.6 2.2-1.5 11.9-2 21.5-1 19.3-1.3 21-7.1 41-2.1 7.6-3.9 14.7-3.9 15.7s-1 3.1-2.2 4.5l-2.3 2.6-3.5-2.1c-6.4-3.7-13.5-7-15.3-7-1.6 0-1.7 1.1-1.5 13.8l.3 13.7-4.2 6c-13.2 19-25.6 37.8-29.1 44.3L349 384h163V15l-2.7.1c-1.6.1-6.6.5-11.3.9m-40.3 187.8c.7.4 1.1 2.1 1 3.7-.2 2.4.2 3.1 2 3.3 2.4.4 3.9 3 2.4 4.5-1.6 1.6-19.5 8.5-20.8 8-1.9-.7-1.6-3.1 1-9.8 3.1-8.1 9.8-12.6 14.4-9.7"/></svg>