<svg xmlns="http://www.w3.org/2000/svg" width="682.667" height="512" version="1.0" viewBox="0 0 512 384"><path d="M204 11.5c-.6 1.4-1 3.1-1 3.6 0 1.8-4.1 4.9-6.5 4.9-3 0-3.1.4-.4 4.1l2.1 3-2.3 6c-2 5.4-3.1 6.8-10.7 12.9-4.6 3.7-9.6 7-11.1 7.3s-3.3 1.7-4.1 3.2c-1.4 2.7-1.6 2.7-8.9 2.1-4.2-.4-7.7-.9-8-1.1-.8-.9-3 3.2-4 7.4-.9 4-.7 4.4 2.6 7.7 4.4 4.4 8.7 13.6 8 17.2-.3 1.5-1.4 6.4-2.5 11s-1.7 9.3-1.4 10.6c.8 2.7 9.2 12.5 10.7 12.6 1.7 0 4.2 5.9 6.5 15 2.2 8.7 4.2 13 6.2 13 .6 0 1.7.8 2.4 1.7 1.3 1.7 1.3 1.7 1.4 0 0-1.4.5-1.7 2.3-1.1 1.2.3 2.4 1.1 2.5 1.5.2.5 1 .9 1.8.9s1.4.6 1.4 1.3c0 1.6-3.1 4.7-4.7 4.7-.5 0-1.8.9-2.8 2-2.3 2.6-10.8 7.4-15.7 8.9-2.8.9-4.1 2.2-5.7 5.4l-2.1 4.2 2.6 4.8 2.5 4.8-2.8 3.7c-1.6 2-3.4 4.8-4 6.2-3.6 8.2-6.3 17.5-7.1 24.1-.6 4.5-2.2 10.3-4.1 14.6-1.7 3.9-3.1 7.5-3.1 8-.1.7-3.3 3.2-20.4 15.1-3.3 2.3-9.6 6.1-13.8 8.4-5.6 3-8 4.9-8.7 6.8-.6 1.8-1.9 3-3.7 3.4-1.5.4-3.3 1.5-4 2.4-.9 1.3-3.2 1.6-12.5 1.6-6.3.1-14.1-.1-17.4-.3-5-.3-7 .1-11.8 2.4l-5.8 2.8-9.6-1.6c-9.8-1.6-11.3-2.5-11.3-6.5 0-5.1-5.8-7.6-18-7.7H.5l-.3 35.1-.2 35.2 2.7.7c1.6.3 28.7 9.2 60.4 19.6l57.6 18.9h185.4l12.3-4c19.2-6.2 25.5-11.8 29.1-25.6 2.1-8.1 3-25.8 1.6-31.1-1-3.8-1.6-4.4-5.4-5.4-6.8-2-41.2-1.8-52.7.3-28.8 5.2-36.8 5.9-42.2 3.9-1.2-.4-2.9-2.9-4.3-6.4-3.2-7.7-8.6-15.6-14.6-21.2-2.8-2.6-4.9-4.8-4.7-5 .2-.1 4.1-2.4 8.8-5 4.7-2.5 9.3-5.3 10.2-6.2 4.8-4.3 6.8-21.3 4.9-42l-1.2-13 2.5-3.8c3-4.4 4.1-9.2 3.1-13.8-.9-4.2-.9-9.1 0-14.9.5-3.4.3-5.8-1-9.2-1.3-3.3-1.5-5.3-.8-7.3 1.6-4.9.6-7.3-3-7.4-6.6-.2-9.3-.1-14.3.6-4.9.7-5.1.6-5.6-1.8-.7-3.8.8-5.8 2.1-2.7.5 1.4 1 2 1 1.4.1-.6 1.5-2.6 3.1-4.4l3-3.4v3.5l.1 3.4 1.5-2.8c.8-1.5 1.7-2.7 2-2.7s.3.4-.1.9c-.3.5-.1 1.2.4 1.5s1.2-.5 1.5-1.8c.7-3 4.6-4.3 4.6-1.5 0 3.9 2 1.6 6.7-7.9 4.7-9.4 4.8-9.9 4.7-18.2-.2-10-2.8-20.6-7.8-31.6l-3.6-7.7 2.7-4.9c1.5-2.7 3.6-5.9 4.8-7.1 1.1-1.2 2.7-3.1 3.5-4.1 1.4-1.8 1.3-1.9-.2-1.3-1.3.5-1.8.1-1.8-1.3 0-1.7-.7-2-4.5-2-3.9 0-4.5-.3-5.1-2.5-.3-1.4-.3-3.7 0-5.3l.6-2.7-2.4 2.9c-2.3 2.8-2.6 2.8-4.8 1.4-1.3-.8-3-2.8-3.8-4.4-.8-1.5-3.3-4.4-5.5-6.4-8.7-7.8-17.2-16.7-17.7-18.8-.4-1.2-.4-2.2-.1-2.2 1.6 0 4.4 2.5 6.3 5.5 1.8 3 6.4 6.5 8.4 6.5.6 0 4.6-13.2 4.6-15.3 0-2-4.2-5.3-8.8-6.8-2-.6-4-1.6-4.3-2.1-.4-.6-2.2-1.3-4-1.7-3.1-.6-3.4-1-3.9-5.1-.5-4.2-.7-4.5-3.8-4.8-2.7-.3-3.4.1-4.2 2.3m-46.4 265.4c-.3 2.2-.9 4.7-1.3 5.7-.4 1.1-.3 1.5.4 1.1.6-.4 1.4 0 1.7.9.5 1.3.9 1.4 2 .5s1.5-.7 1.9 1c.8 3.2-2.5 5.9-7.4 5.9-3.6 0-4 .2-3.4 2 .8 2.5-1.2 3-14 3.3-8.2.2-10-.1-10-1.3 0-2.5 25.9-22.8 29.4-22.9 1-.1 1.2.8.7 3.8M469.1 56.6c-24.7 8.7-31.1 35.6-10.9 45.6 5.8 2.8 9.2 5.8 6.7 5.8-.7 0 .4 1.8 2.5 3.9 3.1 3.2 3.7 4.4 3.2 6.5-.4 1.8-1.3 2.6-2.9 2.6-2 0-2.3.4-1.9 3.5.4 3.2.1 3.6-3 4.9-4.6 2-5.1 2.7-8.7 12.6-1.7 4.7-6.1 13.8-9.6 20.3-7.8 14.2-8.3 17.9-3.5 24.5 2.1 3 4.1 4.4 7.2 5.3 2.4.7 4.8 1.6 5.4 2.1s3.3 1.5 6 2.3 5.8 2.1 6.9 2.8c1.8 1.4 1.7 1.6-1.7 5.6-4.3 5.1-6.1 11.8-8.3 30.1-.8 6.9-1.7 13.9-2.1 15.7-.5 2.8-.2 3.6 2.6 6 1.8 1.5 4.3 3.2 5.4 3.6 1.9.8 2 .9.4 1.8q-1.8 1.05-1.8 4.5c0 1.9-1.1 5.6-2.4 8.2-4.9 9.6-6.6 17.4-12.6 55.7-3.5 22.5-5 36.3-5 45.1v8.4h71V70.8l-2.6.6c-3 .8-8.2-1.2-8.9-3.4-1-2.9-6.1-7.7-11-10.3-5.8-3.2-13.4-3.5-20.4-1.1m7.1 104.2c.4 2.6.2 2.7-1.8 1.8-1.7-.8-2-1.5-1.3-2.8 1.4-2.6 2.6-2.2 3.1 1"/></svg>