<svg xmlns="http://www.w3.org/2000/svg" width="682.667" height="512" version="1.0" viewBox="0 0 512 384"><path d="M238.4 26.2c-1.8 4.9-2.1 5.3-6.3 6.1l-4.3.9 2 2.1c3.2 3.7 3.3 4.3 1.5 10.9-1.2 4.4-2.6 7-4.7 8.8-1.6 1.4-3.9 3.4-5 4.6-1.2 1.2-5.4 4.7-9.4 7.8-4 3.2-7.5 6.3-7.8 7-.5 1.4-10.4 1.2-13.3-.3-2.8-1.5-2.9-1.5-5.1 2.1-2.8 4.7-2.5 7.9 1.1 11.4 3.1 2.9 5.3 6.6 8.2 13.5 1.2 3 1.3 4.1.2 6.5-.7 1.6-2 6.1-2.9 10.1-1.9 8.2-1.2 11 3.5 15.8 8.3 8.3 11.9 13 11.9 15.5 0 4.6 3.1 12.4 6.3 15.7 3.2 3.4 5 4.2 4.5 2-.5-2.1 1-1.9 5.7.9 4.9 2.8 5.5 3.9 2.7 4.8-1 .3-3.3 2.1-5.2 4-3.7 3.5-9.1 5.6-14.9 5.6-2.5 0-4.2.8-6.6 3.4-4.4 4.7-5.1 7.9-2.5 11.6 2.7 3.8 2.6 4.5-1.5 9.3-2 2.3-5 7-6.8 10.6-1.8 3.5-4 7.9-4.9 9.7-1 1.8-2.2 6.3-2.8 10.1-.6 4.1-2.5 9.8-4.8 14.3l-3.7 7.5-11 6.3c-6 3.4-14.7 7.7-19.3 9.4-5.7 2.2-9.2 4.2-11.2 6.5-1.8 2-3.5 3-4.4 2.7-.8-.3-1.9.3-2.5 1.4s-2.6 2.5-4.5 3.2c-4.1 1.3-18.9 1.7-27.1.6-5.5-.7-6.5-.5-12 2.3l-6 3-12.4-2c-6.9-1.1-12.6-2.1-12.8-2.3s-.9-2.3-1.6-4.7c-2-6.9-3.9-7.4-25.4-7.3-10 .1-19.3.4-20.7.8L0 279v29.9c0 27.6.1 29.9 1.8 30.4 1.8.5 66.3 21.2 111.3 35.8l27.6 8.9h242.7l3.3-2.2c8.7-5.9 12.3-17.3 12.3-38.9 0-11.7-.2-13.8-1.7-15.2-3.4-2.9-10.5-4-27.3-4.1-15.4-.1-17.9.2-38.5 4.1-21.3 4.1-22.2 4.2-29 2.9-3.8-.7-12.3-2.1-18.8-3.1l-11.8-1.8-3.1-4.6c-1.7-2.5-5.6-7.2-8.7-10.4-4.4-4.5-5.3-6-4.2-6.6.8-.5 6.4-2.8 12.6-5 10.1-3.8 11.3-4.5 13.8-8.3 1.4-2.2 3.1-6.6 3.8-9.7 1.4-6.7.6-24-1.7-35l-1.6-7.4 2.7-5.4c3.3-6.4 3.2-13.4-.3-20.3-1.6-3.3-1.9-4.8-1-6.3.6-1.2.8-4.4.4-8.1-.5-4.5-.2-6.8.8-8.9 1.1-1.9 1.2-3.5.6-5.2-.8-2.1-1.6-2.4-7.5-2.7-3.7-.1-6.9 0-7.2.4-.2.5-2 .8-3.8.8-3.9 0-5.9-2.5-4.4-5.3 1.4-2.3 2.8-2.2 2.2.3-.9 3.4 1.1 2.2 2.9-1.8l1.8-3.7-.6 4c-.5 3.9-.5 3.9 1.1 1.7 2.1-2.8 3.4-2.8 2.8 0-.4 2.2-.4 2.2.8.3.7-1.1 2.1-2.6 3.1-3.3s1.8-1.9 1.8-2.7.7-1.1 2-.8c1.3.4 2 1.4 2 3.1 0 2 .5 1.5 3-2.9 8.9-15.8 9.3-17.2 8.7-28.2-.6-11.1-3.7-22.8-8.8-33L283 105l2.5-5c1.4-2.8 4.2-6.9 6.3-9.2 2.1-2.4 3-3.9 2-3.5-1.4.5-1.8.1-1.8-1.5 0-1.8-.4-2-4-1.5-4.8.6-6.3-1.2-5.3-6.5l.6-3.3-2.4 2c-1.3 1.1-2.7 2.4-3.2 3-.4.6-1.6-.2-2.9-2-1.2-1.7-7.9-8.8-15-15.8-7.9-7.9-12.8-13.6-12.8-14.8 0-1.9.1-1.9 2.8-.3 1.5.9 4.4 3.8 6.5 6.5 6.1 8 8.7 6.2 10.4-7.3.5-4.2.3-5-1.8-6.7-1.3-1.1-4.3-2.5-6.6-3.1-2.3-.7-4.4-1.8-4.7-2.6S252 32 250.7 32c-3.1 0-4.7-1.8-4.7-5.5 0-3.4-1.5-5.5-4.1-5.5-1.1 0-2.3 1.8-3.5 5.2M187 290.4c0 10.2-.4 10.6-13.1 11.3-10.7.6-17.9-.1-17.9-1.6 0-2 28.6-18.5 30.2-17.5.4.3.8 3.8.8 7.8M469 67.5c-9.6 3.1-18.9 12.8-21.5 22.5s.7 18 8.6 22c6.5 3.4 14 2.1 21.6-3.6 1.8-1.4 3.8-2.1 4.7-1.8 2 .8 2 .9 0 3.8-1.1 1.8-1.4 4.1-1 9.6.4 5.6.2 7.2-1 7.7-.7.3-1.4 1.7-1.4 3.2 0 3.2-.7 4.2-4.4 6.1-2.4 1.2-3.7 3.3-6.6 11-3.3 8.6-11.2 24.5-14.6 29.5-2 2.7-1.7 6.2.6 10 3.6 5.8 6.3 6.9 18.5 7.6 13.7.8 24.5 2.7 25.2 4.7.3.8-.1 3.7-1 6.6-1.6 5.1-3.7 27.4-3.7 39.4 0 6 .1 6.3 4.2 10.1 3.5 3.3 3.9 4.2 2.9 5.5-.7.8-1.1 2.3-.9 3.3s-1.2 4.3-3.3 7.3c-4.9 7.4-6.8 11.3-12.8 26.4-2.8 7.1-7.2 17-9.7 22.2-5 10.4-19.7 35.1-25.8 43.4-3.4 4.6-11.6 18.5-11.6 19.6 0 .2 17.1.4 38 .4h38V89.9l-3 2.1c-3.4 2.4-3.3 2.1-2 5.4.5 1.4.7 2.6.4 2.6-1.1 0-6.2-3-6.6-3.9-.1-.5-2.5-1.8-5.2-2.9l-5-1.9.3-6.1c.4-9.2-4.2-15.9-12.4-18.1-4.7-1.3-3.9-1.3-9.5.4m40.4 63.3c.8 1.4-2.1 4.3-3.8 3.6-1.6-.6-1.6-.8 0-2.5 1.8-2 3-2.4 3.8-1.1m-4.4 11.3c4.8 3 6.4 5.9 4 7.4-.8.5-.8 1.1 0 2 .7.9.7 2.5-.1 5.7-1.7 6.2-6.7 8.8-15.6 8.1l-6.1-.5 5.5-8.6c5.2-8 5.5-8.8 4.4-11.7-.9-2.5-.9-3.2.6-4.3 2.1-1.5 1.5-1.7 7.3 1.9"/></svg>