<svg xmlns="http://www.w3.org/2000/svg" width="682.667" height="512" version="1.0" viewBox="0 0 512 384"><path d="M258.8 24c-2.2 4.9-3.1 6-5 6-1.6 0-2.9.9-3.8 2.5-1.2 2.2-1.1 2.7.5 4.5 1.8 1.9 1.8 2.2-.1 7.6-1.7 5-2.7 6.2-10.2 11.9-4.5 3.5-9.6 6.6-11.2 7s-4 1.9-5.3 3.4c-2 2.4-3.3 2.9-8.8 3.3-4.7.4-6.8.2-7.7-.8-2.8-3-6.1 1.2-8.1 10.3-.8 3.9-.6 4.4 2.9 8.7 2 2.4 4.7 7 6 10.1l2.3 5.6-2.1 6.7c-4.7 15.1-4.9 20.2-.7 24.4 1.2 1.3 2.9 3.6 3.8 5.3.9 1.6 2.7 4.3 4.1 6l2.6 3-1-2.9c-1.1-3-.8-4.2.8-3.2.8.5 2.3 6.4 3.7 14.7 1 6.2 7.2 20.9 9.9 23.4 4.9 4.5 3.1 6.5-6.9 7.9-2.7.4-5.8.9-6.8 1.2-2.5.8-5.8 7.8-6.2 13.4-.3 4.2-.8 5.3-4.5 8.7-4.5 4-7 8.5-7 12.6 0 2-1.7 4.8-6.8 11.2-.4.5-3 4.1-5.7 8-2.7 3.8-5.5 7.6-6.2 8.3s-1.3 1.7-1.3 2.1-1 1.2-2.2 1.8c-24.7 11.9-31.6 14.9-41 18-10.1 3.4-11.2 4-12.4 7-1.7 3.8-2.8 4.6-6.7 4.5-1.6 0-4.2.8-5.7 1.9-2.4 1.8-4 2-14.6 1.8-6.5-.1-13.9-.3-16.4-.3-6.7-.1-12.7 3-15.7 8.1-1.4 2.4-2.8 4.3-3.3 4.3-1.4 0-2.7-2.4-3.4-6.1-1.2-6.9-2.6-7.4-22-7.4-9.4 0-21.5.4-26.8.8l-9.8.9v66.3l34.8 13.8 34.7 13.8 185.9-.1h185.8l-.4-12.1c-.4-12-.4-12.2-3.4-14.9-2.7-2.3-4.7-2.9-16.2-4.5-7.3-1-15.5-1.5-18.4-1.2-6.3.6-26.3 5-37 8.2l-7.8 2.2-8.7-1.9c-4.9-1-15.3-3.1-23.3-4.6l-14.5-2.8-3.3-6.5c-1.9-3.5-5.3-8.8-7.5-11.8-2.3-3-5.1-6.5-6.1-7.8-1.6-2.1-1.7-2.6-.5-3.4.8-.5 2.4-.9 3.6-.9s3.8-1.6 5.7-3.6c6.3-6.5 8.5-17.5 6.6-33.6-1.1-9.8-4.6-28.3-5.6-29.9-.3-.5.7-3.1 2.2-5.9 2.4-4.6 2.6-5.9 2.1-12-.4-4.5-1.5-8.6-3.3-12.1-2.2-4.4-2.5-6.2-2.1-10.6.3-2.9 1.4-6.5 2.5-8 1.5-2.3 2.3-8 1.2-9.1-.1-.1-.3-.8-.4-1.4 0-.7-3.2-1.8-7.6-2.6-13.4-2.3-16.2-3.4-16.6-6.3-.1-1.4.2-3.2.7-4 .8-1.2 1-1.2 1.8 0 1.4 2.2 5.1 2.4 5.2.3 0-1.2.3-1 1.1.8 1.1 2.3 1.2 1.9 2.1-4 1.3-9.4 2-10.3 2.7-3.5.5 5.1.7 5.6 1.4 3.2 1.1-3.7 2.6-3.4 2.6.5l.1 3.3 1.9-4c1.1-2.2 1.9-4.8 2-5.8 0-.9.5-1.7 1.1-1.7.5 0 .7-.5.4-1-.3-.6-.2-1 .4-1s1.7 1.2 2.5 2.7c1.7 3.2 1.6 3.3 4.6-8.1 1.1-4.4 2-9.8 2-12-.1-8.1-5.5-28.2-10-37.2-3.3-6.4-2.6-8.8 5.3-17.1 2.7-2.8 3.7-4.5 3.1-5.5-.5-.7-.7-2-.6-2.9.4-2.5-2.4-4.2-5.8-3.6-2.6.6-3.1.3-3.6-1.8-.3-1.4-.4-3.5-.1-4.8 1.2-4.5-.8-5-3.8-.7-1.5 2.2-2.9 4-3.1 4-.6 0-4.1-7.5-4.8-10.3-.4-1.7-1.2-2.7-2.1-2.5-1.7.3-22.5-20.7-22.5-22.8 0-3.9 7.4 1.1 11.6 7.8 1.3 2.1 3.1 3.8 3.8 3.8 1.9 0 6.8-14.7 5.9-18-.9-3.8-2-4.7-8.1-7-3.2-1.2-6.4-2.8-7.2-3.5s-2.6-1.5-4-1.7c-2-.2-2.6-1-3.1-4-.5-3.5-2.4-6.8-3.8-6.8-.3 0-1.8 2.7-3.3 6M238 181.9c-.1 1.3-.4 1.2-1.5-.3-.8-1.1-1.5-2.7-1.5-3.5.1-1.3.4-1.2 1.5.3.8 1.1 1.5 2.7 1.5 3.5M211 291c4 11.5 4 11.4-2 10.8l-5-.5v7.4l-6.1.7c-14.9 1.5-33 .1-38-2.9-.5-.4-4.2.1-8.2 1.1-5.7 1.4-8 2.5-11.1 5.6-2.6 2.6-4.6 3.6-6 3.4-12.7-2.5-19.6-4.2-19.6-4.8 0-.4 1-1.7 2.2-2.8l2.3-2.1 1.4 3.1c1.4 2.8 3.1 4.1 3.1 2.2 0-.4 1.3-2.3 2.9-4.2 2.4-2.8 3.2-3.3 4.2-2.3 2.3 2.3 6.9 1.4 13.7-2.6 9.6-5.6 23.4-12.3 33.2-16.1 10-3.9 14.7-7 21.4-13.9l5-5 1.8 7.2c1 4 3.2 11 4.8 15.7M91.5 301.4c5 1.2 10 2.8 11.3 3.5 2.3 1.2 2.9 3.5 1.2 4.6-1.2.8-27.1-4.3-28.3-5.5-1.2-1.1 2.8-5 5.1-5 .9 0 5.8 1.1 10.7 2.4M156 320c0 .5-.4 1-1 1-.5 0-1-.5-1-1 0-.6.5-1 1-1 .6 0 1 .4 1 1m13.7 2.6c-.3.3-1.2.4-1.9.1-.8-.3-.5-.6.6-.6 1.1-.1 1.7.2 1.3.5m39 8.1c.3.7-.4.9-1.6.6s-1.8-.9-1.5-1.5c.7-1.1 2.6-.6 3.1.9M500 111.8c-8.3 3.9-12.2 8.5-14.6 16.9-1.6 5.7-1.5 6.2.6 14.1 3.3 12.2 9.4 19.5 18.7 22.2 7.6 2.3 7.3 3.3 7.3-26.4 0-29.3.4-27.7-6.8-27.5-2 0-4.4.4-5.2.7"/><path d="m502.6 178.1-8.8 11 1.2 4.5c.8 2.9 2.6 5.6 5.1 7.9 4.1 3.7 7.2 4.3 10.2 2.1 1.6-1.2 1.7-3.1 1.5-18.9l-.3-17.6zm5.5 133.6c-4.6 9.4-14.8 24.7-20.7 31.2-4.8 5.2-7 8.5-11.4 16.5-2.4 4.3-2.1 8 1.1 10.9 1 1 1.9 2.4 1.9 3.1 0 .8 2 3.5 4.5 6l4.4 4.6H512v-39.5c0-21.7-.1-39.5-.3-39.5-.1 0-1.8 3-3.6 6.7"/></svg>