<svg xmlns="http://www.w3.org/2000/svg" width="682.667" height="512" version="1.0" viewBox="0 0 512 384"><path d="M259 43.9c-2.7 5.1-3.7 6.1-5.9 6.1-1.4 0-3.3.5-4.1 1-1.2.8-1.1 1.3.8 3.9 2.8 3.8 2.7 4.4-.6 10.8-2 3.9-4.6 6.6-10.2 10.8-4.1 3-9.1 6.1-11.3 6.7-2.1.6-4.9 2.4-6.1 3.9-2 2.3-3.2 2.7-8.8 3-4.6.3-7-.1-8.2-1.1-2.4-1.9-4.6-.4-7.5 5.3-2.8 5.6-2.4 8.2 2 13.2 1.7 1.9 4.2 6.6 5.5 10.5 2.3 6.4 2.3 7.2.9 9.3-.8 1.3-2.6 6.1-4 10.7-2.8 9.2-2.3 14 1.5 17.5 1.1 1 3.6 4.7 5.6 8.2 3.1 5.6 5.4 8.4 4.1 5-1.7-4.6-1.8-5.7-.4-5.1 1.3.5 2.5 5 4.2 15.8 1.2 7.4 6.6 20.6 10 24.2 4 4.2 5 7.1 2.6 7.8-3 .9-13.2 2.6-14.3 2.3-.6-.1-2.4 2-4.1 4.7-2.9 4.7-3.7 8.6-2.4 11.6.4 1-.5 2.3-2.7 4-4.6 3.4-7.5 7.8-9 13.7-.9 3.3-3.6 7.9-7.7 13.4-3.6 4.6-7.2 9.4-8 10.6-1.8 2.6-27.3 11.9-40.4 14.8-12.3 2.7-15.8 4.1-17.7 7.5-1.5 2.6-2.2 3-6.3 3-3.2 0-4.5.4-4.5 1.4 0 2.3-4.6 2.9-23 3-17.2.2-17.6.2-21.7 2.9-2.4 1.5-4.9 2.7-5.7 2.7-1.9 0-3.6-3-3.6-6.2 0-3.4-3.3-6.5-8.3-7.9-4.6-1.3-22-.7-39.4 1.2L0 295.3v35.6c0 33.6.1 35.7 1.8 36.8 1.1.6 6.1 2.9 11.3 5.1s12.9 5.6 17.2 7.6L38 384h412v-4.9c0-8.7-3.4-11.1-19-13.1-16.3-2.2-27.3-1.2-44.5 3.9-18.7 5.6-16.8 5.4-25.8 3.6-4.5-.9-16.9-3.7-27.6-6.1-10.6-2.4-20.2-4.4-21.1-4.4-2.2 0-10-8.6-10-10.9.1-.9 1.5-2.5 3.2-3.6s4.5-4.5 6.2-7.5c3-5.4 3.1-5.8 3-18-.1-12.8-1.8-22.3-6.5-36.8l-2.1-6.3 2.1-5.1c3.2-7.8 2.8-13.2-1.9-22.6-2.2-4.4-4-9.2-4-10.6 0-2.9 2.1-7.6 4.2-9.3.7-.6 1.3-2.6 1.3-4.4 0-3.5-2.8-5.9-7-5.9-3.3 0-15.4-4.7-18.5-7.2-2.1-1.7-2.9-3.2-2.9-5.5-.1-4.3 1.3-4.9 3.5-1.6l1.8 2.8 1.2-3c1.3-2.9 1.4-2.9 2-.8 1.1 3.9 2.2 2.5 2.9-3.5.9-7.5 1.4-9.4 2.6-8.6.6.3.8 3 .5 6.2l-.6 5.7 1.9-4 2-4v4.5c.1 3.1.4 4.1 1 3 .6-.8.7-1.8.5-2.2-.3-.4-.1-.8.4-.8s1.5-2 2.1-4.3c.6-2.8 1.6-4.4 2.6-4.4.8 0 1.5.5 1.5 1.2 0 1.7 2.7 5.1 2.7 3.4 0-.8 1.2-5.4 2.7-10.4 1.4-4.9 2.6-11 2.6-13.6 0-7.9-5.2-27.9-9.7-37.7-2.2-4.7-2.4-5.6-1.2-8.4.7-1.7 3.7-5.6 6.7-8.6 3.1-3 5-5.7 4.4-6.1-.5-.3-1.2-1.7-1.3-3.1-.4-2.3-.8-2.5-4.6-2.2-3.9.3-4.2.1-4.5-2.5-.2-1.5 0-4 .4-5.5 1.1-4.4-.7-4.1-3.7.4l-2.8 4.2-2.3-2.9c-1.3-1.7-2.6-4.9-3-7.3-.5-3.2-.9-4-1.9-3.2-1.6 1.3-22.8-21.1-23.3-24.6-.4-2.8-.1-2.9 4.4-.8 2.1 1 4.5 3.4 6 5.9 5.1 8.9 6.8 8.4 10.4-3 1.7-5.5 2.1-8.1 1.4-9.3-.5-.9-3.8-3.1-7.2-4.8-3.5-1.7-6.8-3.6-7.5-4.3-.6-.6-2-1.1-3.2-1.1-3 0-4.5-1.9-4.5-5.5 0-1.9-.8-3.9-1.9-4.9-1.8-1.7-2-1.5-5.1 4.3m-24.3 162.8c-2.1 2.1-2.6 1.5-3.4-3.2l-.6-3.7 2.8 2.6c2.7 2.5 2.7 2.8 1.2 4.3M206 290.3c0 1.8 1.6 7.7 3.6 13.2 5.2 14.7 5 14 2.8 13.1-4.4-1.9-5.4-1.9-4.8-.2.3.9.1 2.9-.6 4.5-1.1 2.8-1.7 3-8.8 3.8-13.7 1.4-29.1 1-35.4-1.1-5.4-1.7-5.8-1.7-10.8-.1-3.5 1.2-6.8 1.6-10 1.2-6.8-.8-19-3.9-19-4.8 0-1.6 4.1-3.2 5.3-2 2.1 2.1 7.7 1.1 16.2-3 4.7-2.2 16.3-6.5 25.8-9.6 18.3-5.9 20.2-6.9 28.5-14.5 2.8-2.7 5.7-4.6 6.2-4.3.6.3 1 2.1 1 3.8M83 311l2.5.8-2.5.1c-1.4 0-3.2-.4-4-.9-1.3-.9-1.3-1 0-.9.8.1 2.6.5 4 .9m420.8-163c-4.2 1.2-8.4 4.6-11 8.7-1.8 3-2.3 5.2-2.3 11.3 0 9.3 3.3 17.2 10.3 24.2l4.6 4.8-3.7 3.4c-3 2.7-3.7 4.1-3.7 7 0 7.7 5.3 14.6 11.1 14.6h2.9v-75l-2.7.1c-1.6 0-4 .4-5.5.9m6.8 173.5c-.5 1.3-13 20.4-23.4 35.6-1.8 2.6-3.2 5.2-3.2 5.8 0 .7-.9 2.9-2 5.1s-2 5.1-2 6.5.9 3.3 2 4.2c1.1 1 2 2.5 2 3.5 0 1.6 1.3 1.8 14 1.8h14v-32c0-17.6-.2-32-.4-32s-.6.7-1 1.5"/></svg>