<svg xmlns="http://www.w3.org/2000/svg" width="682.667" height="512" version="1.0" viewBox="0 0 512 384"><path d="M263.7 39.8c-.8.9-2.4 3.6-3.6 5.9-2 3.9-2.5 4.3-6 4.3-2.1 0-4.1.3-4.4.7-.4.3.5 2.2 1.9 4l2.6 3.5-2.7 6.6c-1.6 3.7-3.8 7.5-4.9 8.4-4.4 3.7-16.2 11.6-18.3 12.2-1.2.4-2.8 1.8-3.7 3.1-1.4 2.1-2.1 2.3-8.1 2.1-3.5-.2-7.1-.9-8-1.6-2.6-2.1-6.7.1-9.2 5-3 5.8-2.9 9.5.2 12.6 3.9 3.9 7.8 12.4 7.8 16.9 0 2.2-1.4 7.8-3.1 12.5-4 10.8-4.1 14.5-.4 19 1.6 1.9 4 5.6 5.5 8.2 3.3 5.7 5.3 7.3 4.3 3.4-.3-1.4-.2-2.6.3-2.6 1.1 0 1.7 2.6 2.6 10.5.4 3.3 1.6 9 2.6 12.8 1.1 3.7 1.7 7.1 1.4 7.6s-.1 1.1.3 1.3c.4.1 2.3 2.8 4 5.8l3.3 5.5-.6-7.5-.6-7.5 2.8 5c2.1 3.6 3.4 4.9 4.9 4.8 1.1-.1 2.5.7 3.2 1.8 1.2 1.8.9 2.5-2.6 6.1-3.6 3.7-4.5 4.1-12 5.2l-8.1 1.1-3.7 5.2-3.6 5.2 1.9 3.1c1.6 2.8 1.6 3.3.2 4.3-8.2 6.2-11.9 10.9-11.9 15.2 0 2.7-1.8 5.8-8.9 15.3-5.9 7.8-9.8 12.1-11.3 12.4-1.3.3-7.7 2.2-14.3 4.2-6.6 2.1-16.9 4.6-22.9 5.6-11.3 2-15 3.6-16.1 6.9-.5 1.6-1.4 1.9-5.3 1.8-3.9-.2-4.8.2-5.6 1.9-.8 1.9-2.3 2.3-10.8 3.3-5.4.6-13.6 1.1-18.1 1.1-8.8 0-14.1 1.8-18.6 6-1.9 1.9-2.8 2.1-4.9 1.4-2-.7-2.9-2-3.8-5.7-.7-2.7-2.1-5.5-3.1-6.2-3.9-3-11.5-3.8-24.9-2.7-7.1.6-16.6 1.4-21.2 1.8l-8.2.6V373l11.6 5.5 11.7 5.5h215.8c174.5 0 215.9-.2 215.9-1.3 0-1.8-2.7-5.5-4.9-6.6-1-.6-8.3-2-16.2-3.1-16.4-2.4-20.6-2.1-38.9 3.2-18.7 5.3-21.2 5.9-24.9 5.2-9-1.5-58.1-13-58.4-13.6-.1-.1-2.1-2.6-4.5-5.5-2.3-2.8-4.2-5.9-4.2-6.7 0-.9 1.3-2.2 2.8-3 6.2-3.2 11.2-14.8 11.2-25.9 0-7.4-2.7-21.9-6.5-35.8l-2.5-8.6 2.1-4.3c4.1-8.4 3.3-15.1-2.9-25.7-2.4-4.2-2.7-5.4-2-9.2.5-3 1.8-5.6 4-7.8 1.7-1.8 2.7-3.3 2-3.3-.6 0-1.1-1-.9-2.1.2-2.4.4-2.3-12.1-5.9-4.4-1.3-8.6-3.3-10.6-5.1-1.9-1.6-5.1-3.6-7.1-4.5l-3.8-1.6 2.9-1.9 2.9-1.9 1.2 2.7c1.1 2.7 1.1 2.7 2.8-3.2 2.4-8.6 2.3-8.5 3.6-8.5.8 0 1 1.3.5 4-.3 2.2-.4 4-.1 4 .2 0 1.4-1.7 2.5-3.8 2.1-3.8 2.1-3.3.5 4.3l-.7 3 1.9-2.5c3.3-4.4 5-7.4 5.7-10.4l.7-2.9 1.4 2.6c.7 1.4 1.5 3.4 1.8 4.4.2 1.2 1.9-1.4 4.7-7.2 3.9-8 4.4-10 4.8-17.5.6-11.9-2.6-27.2-8.9-42.7-1.6-4-.5-6.4 6.9-14.4 4.7-5.1 6.5-7.9 4.4-6.5-.5.3-.8-.5-.8-1.7.1-1.9-.4-2.2-3.6-1.9-4.3.3-5.3-1.5-3.8-6.8 1.4-5 1.3-5.5-1-3.5-1.1 1-2 1.4-2 .9 0-.4-1.3.7-2.9 2.6l-2.8 3.4-1.6-3.1c-1.3-2.3-1.4-3.8-.7-6.4.6-1.9 1-3.5 1-3.7s-1.2-.1-2.7.2c-2.5.6-3.7-.4-11.8-9.1-4.9-5.4-10.2-11-11.7-12.4-1.9-1.9-2.8-3.7-2.8-5.9v-3.2l3.3 2c1.7 1.1 5.1 4.5 7.5 7.6 5.4 7 7.6 7.2 10.2 1.1 1-2.4 2.5-6.3 3.1-8.6 1.3-4 1.2-4.2-1.6-6.5-1.6-1.2-4.9-3-7.4-4-2.5-.9-5.3-2.3-6.2-3.1s-3.3-1.7-5.3-2c-3.6-.6-3.6-.6-3.6-5.4 0-3.7-.4-5.1-1.9-5.8-1.4-.8-2.2-.6-3.4.7m-50.9 122.7c-.3.3-.9-.2-1.2-1.2-.6-1.4-.5-1.5.5-.6.7.7 1 1.5.7 1.8M207 292.3c0 2.6 5.2 18.9 8.5 27.1.7 1.7.5 1.8-1.6 1.3-6.8-1.9-7.2-2-6.5-.8.4.6.2 2.6-.5 4.4l-1.2 3.4-11.2 1.1c-6.2.7-13.6 1.2-16.6 1.2-5.5-.1-16.6-2.1-18.8-3.4-.6-.4-4.2 0-7.9 1l-6.8 1.7-11.7-2.8c-6.4-1.5-11.7-3.1-11.7-3.5 0-.3 1.4-1.9 3-3.5 2.6-2.5 3.3-2.8 5-1.7 3.3 2 7.4 1.4 16.8-2.8 5-2.2 16.4-6.1 25.4-8.6 17.6-5 21.6-6.8 29.3-13.7 2.8-2.5 5.3-4.3 5.8-4 .4.2.7 1.9.7 3.6M91 312.5c7.2 1.7 14 4.4 14 5.6 0 1.7-1.9 1.7-9.1 0-4.1-1-10-2.4-13.1-3.1-3.2-.7-5.8-1.6-5.8-2 0-2.4 4.7-2.6 14-.5m27 9c1 1.3.9 1.5-.8 1.5-2.2 0-3.6-1.3-2.5-2.4 1-1 2-.7 3.3.9m384.1-155.8c-3.9 1.9-8.7 8.1-9.6 12.3-.4 1.6.1 5.7.9 9.1 1.7 6.3 6.3 15.9 7.7 15.9 1.7 0 2 4 .5 5.6-2.4 2.4-3 6.2-1.6 10.5 1.5 4.5 7 9.9 10 9.9 1.9 0 2-.9 2-32.5V164h-3.2c-1.8 0-4.8.8-6.7 1.7m-2.5 179.5c-15.4 23.4-18.8 31.9-14.8 36.6 1.8 2.1 2.7 2.2 14.6 2.2H512v-28.5c0-15.7-.1-28.5-.2-28.4-.2 0-5.6 8.2-12.2 18.1"/></svg>