<svg xmlns="http://www.w3.org/2000/svg" width="682.667" height="512" version="1.0" viewBox="0 0 512 384"><path d="M279.1 36.6c-1.3.7-3.3 2.9-4.5 5.1-2.1 3.6-2.5 3.8-7.1 3.9-7.8.1-7.7.1-4 5l3.5 4.6-2.2 3.7c-4.5 7.4-4.4 7.1-2.6 8.5s1 2.1-12.7 11.5c-2.7 1.9-5.2 3.7-5.5 4-.3.4-1.8 1.5-3.3 2.4-2.3 1.5-3.1 1.6-4.3.6-1.8-1.5-10.6-.6-13.5 1.4-1.1.8-3 2.8-4.2 4.4s-2.8 2.8-3.5 2.5c-1.7-.5-7.2 1.7-7.2 3 0 .5 1.1 2.6 2.5 4.6s2.5 4.2 2.5 4.8 1.8 3.9 4 7.3c5.1 7.9 5.6 10 3.2 13.2-2.7 3.3-5.2 12.2-5.2 17.8.1 5.2 3.2 14.7 4.8 14.4.5-.1 1.7 1.8 2.5 4.3 1.2 3.7 1.2 5.6.2 11.6s-1 7.5.2 8.6c.7.7 1.3 2 1.3 2.8 0 1.9 1.7 1.8 2.8-.2.8-1.4 1-1.2 1.6 1.2.7 2.8.8 2.8 2.2 1 .7-1.1 1.5-1.8 1.7-1.5.2.2 2.1 3.5 4.1 7.2 3.2 5.8 4 6.6 4.9 5.3 1-1.4 1.6-.8 4.1 3.8l2.9 5.4-2.6 2.6c-1.5 1.5-2.7 3.1-2.7 3.5 0 1-9.9 3.1-14.3 3.1-2.2 0-4.2 1.2-7.4 4.5l-4.5 4.5 2 3.3 2 3.4-5.9 4.4c-5.7 4.3-9.9 10.3-9.9 14.3 0 1-3.7 6.3-8.2 11.8l-8.3 10-16.5-.6c-9.1-.4-19.1-.9-22.3-1.2-4.3-.4-6.4-.2-8.2 1-1.6 1.1-2.6 1.2-3.1.5-1.2-2-7.7.1-10.5 3.4-2.5 3-2.9 3.1-17.7 4.9-17.6 2.1-20.5 3.4-29.1 13.2-4.6 5.3-5.1 6.4-5.1 10.6 0 5.3.7 6.5 2.8 4.8 1.8-1.5 4.4-1.7 5.5-.3.5.5.5 0 .2-1.3-.7-2.5.6-2.9 2.5-.7 2 2.4 3.3.6 2.6-3.7-.6-3.8-.5-3.9 3.1-5.4 5.3-2.3 18.7-.1 22.1 3.5 2.2 2.4 2.3 2.4 5.7.8 1.9-.9 3.5-1.2 3.5-.7 0 .6 1.1 1.5 2.4 2.1 1.8.8 3 .7 5.3-.5 2.6-1.3 3.3-1.3 4.9-.1 2.4 1.8 7.3 1.8 14.9 0 3.3-.9 13.9-2 23.5-2.6 9.6-.5 18.8-1.5 20.5-2.2 1.6-.6 5.7-3.3 9.2-5.9 3.4-2.6 6.4-4.8 6.6-4.8s.7 2.5 1.1 5.6c.3 3 2.5 11.3 4.8 18.3 2.3 7.4 3.8 13.6 3.4 14.6-.6 1.8-4.1 1.8-11.8-.1-2.3-.5-2.6-.3-2.2 1.3.3 1 .1 3-.5 4.4-.9 2.5-1.3 2.6-15.6 3.9-15 1.4-25.9.6-32.2-2.3-1.7-.8-3.8-.6-8.4.7-5.8 1.6-6.4 1.6-13.2-.3-4-1.1-17.8-4.7-30.7-8-43.5-11.1-47.4-12.2-48.6-13.2-.6-.5-1.5-2.9-1.8-5.3-1.4-9-6.3-10.4-30.9-8.7-10 .7-19.7 1.5-21.5 1.8l-3.2.5V384l163.8-.1c102.5 0 162.5-.4 160.5-1-2.5-.7-5-3.3-10.8-11-8.6-11.7-9.5-14.8-4.4-16.9 3.9-1.6 8.2-7.5 10.6-14.3 2.4-7 2.4-32-.1-45.9l-1.7-9.8 2.1-3.1c1.3-1.7 2.9-5.1 3.6-7.6 1.2-4 1.2-5.4-.2-10.6-.8-3.3-2.5-8-3.6-10.4-1.8-3.8-1.9-4.9-.9-8.3.6-2.2 2.7-5.2 4.8-7 2.8-2.5 3.3-3.4 2.2-4.1-1.2-.8-1.2-1 .1-1.8.8-.6 1.2-1.1 1-1.3-.9-.7-10.5-4.7-15.5-6.4-2.7-1-6.7-3.2-9-4.9-2.2-1.7-5.5-3.7-7.2-4.4-2.8-1.1-3.1-1.6-2.2-3.2.5-1.1 1.6-1.9 2.4-1.9.9 0 2.2-.8 2.9-1.8 5.8-7 6.9-8.2 7.3-7.8.3.3-1 3.1-2.8 6.3l-3.3 5.8 4-3.4c7.5-6.5 18.2-21.4 21.6-30.4 3.9-10.2 2.5-25.5-3.9-40.4l-3.5-8.3 2.2-3.5c1.2-2 3.7-4.7 5.6-6.2 1.9-1.4 4-3.5 4.6-4.6.9-1.7.8-1.9-1-1.5-1.8.5-2 .3-1.2-1.8.5-1.3 1.7-3.8 2.6-5.5 2.4-4.7 1.1-4.4-3.1.6-2.2 2.5-4.3 4.5-4.7 4.5-.9 0-.3-3.2 1.8-9.5.7-2.1 1.2-4.1 1-4.3-.2-.1-2.1.7-4.2 2-2.7 1.6-3.9 1.9-4.2 1-.3-1-.7-1-1.7-.2-1.1.9-2.2-.1-5.3-4.2-2.2-2.9-6.8-8.5-10.3-12.4-14-15.4-14.9-16.6-14.9-19V63l4.2 2.1c4.6 2.3 12.4 10 13.3 13 .4 1.1 1.1 1.7 1.6 1.3.6-.3 1.7 0 2.5.7 1.2 1 1.8 1 2.8-.2 2.1-2.3 6.9-14.7 6.3-16.3-.9-2.3-9.6-7.8-15.2-9.5-3-1-5-2.1-4.8-2.8.4-1.1-3.5-2.5-9.2-3.5-1.6-.3-2.1-1.2-2.3-5.5-.3-6-1.7-7.5-5.1-5.7M290 202.4c0 .8.3 2.3.6 3.3.6 1.6.5 1.6-.9-.2-1.9-2.3-2.2-4.5-.7-4.5.6 0 1 .6 1 1.4m-39.8 4.8c-.6.6-.7 0-.4-1.9.5-2.1.7-2.3 1-.9.2 1 0 2.2-.6 2.8m259.2-14.9c-6.4 6.7-7.1 12.8-2.5 22.2 2.9 5.9 2.9 5.9 1 8.3-1 1.4-1.9 3.3-1.9 4.3 0 2.2 3.8 10.7 5.1 11.5.5.3.9-10.1.9-24 0-13.5-.1-24.6-.2-24.5-.2 0-1.2 1-2.4 2.2m1.6 156.6c0 .4-3.6 6.2-7.9 12.7s-8.3 13.5-8.9 15.4c-.5 1.9-1.3 4.3-1.7 5.2-.7 1.6.2 1.8 9.4 1.8H512v-18c0-9.9-.2-18-.5-18s-.5.4-.5.9"/></svg>