<svg xmlns="http://www.w3.org/2000/svg" width="682.667" height="512" version="1.0" viewBox="0 0 512 384"><path d="M288.9 35.7c-1.4.7-3.4 2.8-4.4 4.7-2.4 4.4-3.7 4.9-8.6 3.6-2.2-.6-4.6-.7-5.4-.2-1.3.7-.9 1.6 2.1 5.1 3.6 4.1 3.7 4.4 2.2 6.9-5.9 10-6 10.3-1.4 10.6 1.3 0 2.3.2 2.2.3s-5.2 3.8-11.3 8.1c-9.4 6.6-12.1 8-16.4 8.6-6.3.9-8.2 1.8-13.6 6.7-4.7 4.3-5.8 4.6-8.4 2.3-1.6-1.4-2.3-1.5-4.9-.4-3.3 1.4-3.7 2.7-1.6 5.5 1 1.4 1.1 2.5.2 4.6-.9 2.6-.5 3.6 5.3 12.1 5.5 8 6.2 9.5 5.1 11.2-4.3 6.9-5.4 21.8-2.3 30.8 1.5 4.4 1.6 5.5.2 12.8-1.3 6.7-1.3 8.2-.2 9.1.7.6 1.3 1.7 1.3 2.3 0 1.5 3.6 3.7 5.2 3.1.9-.4 2.3 1.4 4 4.7 2.8 5.5 4.4 7.8 8.9 13 2.4 2.7 2.8 2.8 3.7 1.3.8-1.5 1-1.4 1.6.9.7 2.9 2.1 3.4 3 1 .5-1.3.9-1.4 2.1-.4 1.3 1.1.9 2-3.2 6.4-5.6 6.1-8.8 7.7-16.5 8.1-4.4.3-6.7 1.1-9.4 3.1-4.9 3.8-5.9 6-4 8.9 1.5 2.3 1.5 2.5-.9 4.2-10.2 7.2-11.4 8.4-13.2 13.2-1.3 3.4-4.4 7.6-10.6 14l-8.8 9.2-8.2-2c-4.5-1.2-11.5-3.7-15.6-5.6-4.3-2.1-8.8-3.5-11-3.5-2.1 0-4.1-.3-4.5-.7-1-1-9.6-1.2-10.2-.1-.3.5-2.3 2-4.4 3.3-2.9 1.8-6.2 2.6-14.1 3.5-15.8 1.7-20.6 3.2-24.3 7.6-6.8 8.2-11.6 15-12.1 17.4-.6 2.9 2.3 10.9 3.3 9.3.4-.6 1.5-.9 2.5-.7.9.1 2.4-.7 3.1-1.8 1.4-1.9 1.6-1.9 3.1-.4 3.1 3 4.6 1.5 2.4-2.5-3-5.7 4.4-8.9 15.9-6.9 3.9.6 8.2 1 9.5.8 1.3-.1 3.2.4 4.1 1.2 1 .7 3.4 1.3 5.4 1.3 2-.1 4.8.5 6.2 1.2s7.5 1.5 13.7 1.9c6.1.4 16.3 1.8 22.6 3.1 8.2 1.7 12.5 2.1 15.1 1.5 3.7-.8 10.7-4.9 17.2-10.1 2-1.6 4-2.7 4.4-2.4.3.2.8 2.5.8 5 .3 6.1 1.5 11.8 5.4 24.2 2.8 9.3 3 10.5 1.6 12-.8 1-1.8 2.6-2.2 3.7-.5 1.6-1.3 1.8-4.9 1.3-2.3-.4-5.3-.9-6.7-1.2-2.2-.6-2.5-.3-2.6 2.3-.2 5.7-.2 5.7-16.2 7.1-15.3 1.4-18.9 1.2-29.9-1.5-5.7-1.4-6.7-1.4-11.1 0-4.6 1.6-5.2 1.5-11.3-.3-3.5-1.1-8.4-2.5-10.9-3-2.5-.6-7.9-2-12-3.2-4.1-1.1-11.5-3.1-16.5-4.4-26.3-7.1-41.7-11.4-42.2-11.9-.3-.3-.9-2.7-1.4-5.3-1.9-10.6-8.5-11.8-43.2-8.2L0 304.3V384h322.1l-1.8-3.1c-1-1.7-4.2-6-7-9.7-2.9-3.6-5.3-7.1-5.3-7.8 0-.6-.3-2.6-.6-4.3-.6-2.6-.4-3.1 1.3-3.1 1.1 0 3.1-.8 4.4-1.9 1.3-1 3-1.6 3.8-1.3.9.3 1.1 0 .6-.8-.4-.6.4-3.3 1.9-5.9 5.6-10.4 7.6-26.8 5.7-46.9l-1.2-12.4 2.6-3.8c2.9-4.2 5.4-10.3 5.5-13.5 0-2.8-2.8-13.4-4.5-16.8-1.2-2.5-1.2-3.3.5-7.1 1-2.4 3.5-5.6 5.5-7.1 2.6-2.1 3.3-3 2.3-3.6s-1-1.1-.1-2c1-1 .2-1.8-3.6-4-2.7-1.4-6.2-3-7.8-3.3-1.5-.4-7.2-3.2-12.6-6.3l-9.8-5.6 2.3-2.4c1.3-1.4 3-2.9 4-3.4 1.3-.7 1.5-.5 1.1 1.4-.3 1.8.1 1.6 2.4-1.3 1.5-1.9 5.1-5.8 8-8.5 12.8-12.3 16.5-19.8 16.4-33.3 0-10.3-3.2-24-7.2-30.5l-2.9-4.8 2.9-4.2c1.6-2.3 4.3-5.7 6-7.6s3.1-3.9 3.1-4.4c0-.6 1-2.4 2.3-4.1 5.3-7.1 4.7-7.4-1.7-.9l-4.7 4.8 2.6-5.5c1.3-3 2.5-6.3 2.5-7.3 0-1.7-.2-1.7-2.9.2-3.3 2.4-6.2 1.8-9.4-1.7-1-1.1-2.6-1.8-3.5-1.6-1.1.3-2.8-1.1-4.9-4.3-1.8-2.7-5.6-7.3-8.5-10.3-2.8-3-7.5-8.1-10.5-11.2-3.6-3.8-5.3-6.5-5.3-8.2V62l4.8 2.4c2.7 1.4 7.5 5.3 10.7 8.8 4.7 5 9.4 8.8 11 8.8.1 0 1.9-3.7 4-8.2l3.9-8.2-4.8-4.2c-4.2-3.9-13.5-8.4-17.1-8.4-.9 0-1.2-.6-.9-1.5.7-1.6-3.1-3.5-6.9-3.5-3.7 0-4.8-1.5-5.6-7.3-.4-3.2-1-5.8-1.2-6s-1.6.2-3 1M284 62.9c0 .5-1.1 1.1-2.5 1.3-1.4.3-2.5.3-2.5.1 0-.3 3.4-1.9 4.8-2.2.1-.1.2.3.2.8m19.4 147.5c-.3.9-1 1.3-1.6 1-.5-.3-.4-1.2.3-2 1.5-1.8 2.2-1.3 1.3 1m202.8 159.5c-4.5 6.8-7.2 12-7.2 13.7 0 .2 2.9.4 6.5.4h6.5v-11c0-6.1-.2-11-.3-11-.2 0-2.7 3.6-5.5 7.9"/></svg>