<svg xmlns="http://www.w3.org/2000/svg" width="682.667" height="512" version="1.0" viewBox="0 0 512 384"><path d="M312.4 31.9c-2.1 2.8-4.1 5.1-4.4 5.1s-2.7-.7-5.4-1.5-5.5-1.5-6.3-1.5c-2.4 0-1.4 4.2 2.1 8.5l3.5 4.2-3.5 4.8c-2.9 4.2-4.3 7.5-3.1 7.5.2 0 3-.9 6.2-2 6.5-2.2 7.5-2.4 7.5-1.1 0 .5-1.2 1.3-2.7 1.9-1.6.5-6.4 3.5-10.7 6.7-4.4 3.1-10.7 7.5-14 9.7-3.4 2.3-8.1 5.8-10.6 7.8-3.6 3-5 3.6-6.7 2.9-1.2-.4-3.8-.3-5.7.2-3.3.9-3.8.8-5.9-1.7-2.7-3-4.7-2.6-4.7 1.1 0 4.3-1.8 7.8-3.8 7-.9-.4-2.3-.9-2.9-1.2-.9-.3-1.3.5-1.3 2.7 0 3.3 1.2 5.6 11.5 22.4l5.5 8.9-2.6 5.6c-6.6 14.1-9.6 31-9.7 53.3-.1 6.3.5 7.7 2.6 5.9 1.1-.9 1.8-.3 3.2 2.9 1 2.2 2.9 5.5 4.3 7.3l2.4 3.2-.6-2.9c-1.4-6-1.8-8.6-1.3-8.6.2 0 3 3.4 6.2 7.6 3.1 4.2 6.5 8.3 7.6 9.2 1 .9 1.9 2 1.9 2.4 0 1.8-15.2 8-20.8 8.4-8.2.8-13 3.1-14.7 7.1-.9 2.2-2.1 3.3-3.4 3.3-1.1 0-3.2.5-4.8 1.2-1.5.6-3.2 1.2-3.8 1.2-2.5.3-5.7 3-7.4 6.4-1.2 2.4-3.5 4.6-6.2 6-2.4 1.3-6.8 3.7-9.6 5.3-6 3.4-5.8 3.8-4.1-7.6 1.1-7.6 1-8.4-.9-11.6-1.1-1.9-1.8-4.2-1.6-5.2.6-2.4-1.6-8.7-3-8.8-.7-.1-1.9-.1-2.7 0-1.2.1-1.5-1.3-1.4-7.6.1-4.3.8-11.7 1.5-16.6 1.3-8.5 1.2-8.8-.8-10.9-1.8-1.7-2.5-1.9-3.7-.9s-2.1.9-4.6-.4c-3.8-2-2.9-3.7 1.9-3.4 6.9.4 8.2-.9 3.5-3.4-2.3-1.2-2.4-1.5-1-2.6 2.4-2 .2-4.1-4.2-4.1-2.6 0-4.8 1.1-8.8 4.2-2.9 2.4-5.6 5.1-5.9 6-.4 1-1.2 1.8-1.9 1.8-.8 0-1.9 1.3-2.6 2.9-.8 2-2.1 3.1-4.1 3.5-2.4.5-2.9 1-2.9 3.6 0 2-.9 3.8-2.5 5.2-2.1 1.8-2.5 3.1-2.5 7.4 0 2.9-.5 5.6-1 5.9s-1 2.6-1 4.9c0 4.4 2.5 9.2 7.7 14.7 2.4 2.6 2.5 3.4 2.2 15.7-.1 1.3 1.2 4.9 2.9 8 3.4 6.7 4.8 11.9 5.7 22.4.8 9 2.8 12.8 8 15.3 7.5 3.5 17 1 49.3-12.9 4.5-1.9 8.2-3.2 8.2-2.8s-.5 2.3-1 4.2c-1.3 4.6-1.4 22.2-.1 28.5.5 2.7 2.4 11.1 4.1 18.5s2.8 13.6 2.3 13.7c-3.9 1.3-8 4.3-9.1 6.4-1.4 3.2-5.8 4.3-11.4 3l-3.7-.9.2 4.3c.3 5.4.9 5.3-21.9 6.1-14.8.6-18.1.5-24.2-1.1-5.7-1.5-7.7-1.6-11.3-.7-3.7.9-5.3.8-11.9-1.3-4.1-1.3-21-6.5-37.5-11.5-47.9-14.5-48.4-14.7-49-17.8-2-9.4-2.5-10.3-7.3-12.4-4-1.8-5.9-2-16.1-1.5-6.4.3-16.2 1.1-21.8 1.8L0 312.3V384h330.2l-4.2-5c-4.3-5.1-6.5-10.7-5.5-13.9.3-1 2.3-2.3 4.6-3 3.3-1 3.9-1.6 3.4-3.2-.7-2.2 1.9-2.8 2.9-.7.4.7.4-.2.1-2-.4-2.5.4-5.2 3-10.5 1.9-4 4.3-11 5.4-15.7 2-8.8 5.1-30.8 5.1-36.4 0-2.3.9-4.1 3.3-6.5 5.5-5.2 8.1-11.5 8-19.1 0-3.6-.6-7.7-1.1-9.2-1.6-4 2.8-15 7.5-18.5 1.8-1.4 3.2-3.2 2.9-3.8-.2-.7 0-1.7.5-2.2.6-.6.5-1.4-.3-2-2-1.7-32.9-17.4-36.6-18.7l-3.3-1.2 2.7-2.9 2.7-2.9.9 2.3c.8 2.3.9 2.2 4.9-2.3 3.7-4.1 4.3-4.5 5.3-3 1.1 1.5 1.5 1.3 3.7-1.3 1.4-1.6 3-2.8 3.6-2.6s2.6-4.2 4.7-10.7c3.2-9.8 3.6-12.2 3.6-21.4 0-11.1-1.6-21.5-4.7-30.8-2.3-6.7-2.6-6 8.4-21 3.5-4.8 6.6-9.9 6.9-11.4s.7-3.1 1-3.6c.3-.4-.2-.8-1-.8s-1.8.5-2.2 1.2c-.5.7-1 .4-1.6-1.1-.6-1.8-1.4-2.2-4-1.9-3 .3-3.5-.1-5.7-4.5-1.5-3.1-3-4.7-4.2-4.7-3.7 0-11.6-6.3-21.4-17.3-10-11-12.2-14.2-10.6-15.1 2.7-1.7 22.9 15.1 24.6 20.5.4 1.2 1.4 1.9 2.3 1.7 1.9-.4 6.6-8.2 8.4-14.1 1-3.4.9-3.9-1.2-6.2-3.4-3.6-10.7-8-16.7-10.1-4.1-1.4-5.2-2.3-4.8-3.5.5-1.3-.5-1.9-4.7-2.9-8.3-2-8.8-2.4-8.8-7.8 0-7.7-1.2-8.2-5.6-2.3M180 184.9c0 .6-.4 1.3-1 1.6-.5.3-1 1.7-1 3.1 0 2.9-2.4 4.2-4.5 2.4-1.8-1.5-2-5.1-.3-6.8 1.4-1.4 6.8-1.6 6.8-.3m144 21.7c0 .8-.5 1.2-1 .9-.6-.4-.8-1.1-.5-1.6.9-1.4 1.5-1.1 1.5.7"/></svg>