<svg xmlns="http://www.w3.org/2000/svg" width="682.667" height="512" version="1.0" viewBox="0 0 512 384"><path d="M504.5 21c-3.3 1.6-6.6 3-7.3 3-1.8 0-9.4 4.5-16.3 9.5-5.3 3.9-16.1 9.7-20.1 10.9-2.7.8-2.2 2.6.6 2.6 4.2 0 4 2-.8 6.4-2.5 2.3-4.6 4.7-4.6 5.4s-1.2 3.6-2.6 6.4c-1.5 3-2.7 7.2-2.9 10.4-.2 2.9-.9 7.7-1.5 10.7-1.1 4.6-1 5.8.4 8.5.9 1.7 1.3 3.7 1 4.5s.2 1.7 1 2c1.1.5 1.4 1.9 1.2 5.8-.2 5.6-2.1 7.9-6.4 7.9-3.4 0-6.2 1.8-6.2 4 0 1.1 1 4 2.2 6.5l2.2 4.6-2.2 4.3c-1.7 3-2.1 4.9-1.5 6.7 1 2.9.9 13.4-.1 20.9-.7 5-.6 5.7 1.5 7.6 1.3 1.1 5.1 3.1 8.4 4.3 17 6.4 17.9 7.3 16.9 17.5-.7 7.9-2.6 13.5-4.6 13.7-.7.1-7.1.2-14.3.3-11.3.1-13.6.4-17.5 2.3-4.7 2.4-8.6 5.7-13.3 11.3-2.6 3-3.4 3.3-11 4.1-9.4.9-9.7.7-15.2-7.6-8.2-12.4-13.6-14.6-18.8-7.7-6.3 8.3-11.9 14.1-15 15.5-1.7.8-6.8 2-11.2 2.7-4.4.6-15.6 2.5-25 4.2-18.7 3.3-23.5 3.2-39-1.1-22.9-6.4-41.9-11.1-58-14.2-5.5-1-15.6-3-22.4-4.5-10.7-2.2-12.8-2.4-14.9-1.3-1.3.8-2.6 2-2.9 2.9-.5 1.7-4.5 11.3-5 11.9-.2.3-2.2.4-4.4.2-3.2-.1-4.5.3-5.6 1.9-1.6 2.3-3.3 2.6-3.3.6 0-1.9-2.3-2.6-8.9-2.6h-5.8l-3.7-8.3c-3.7-8.3-9.1-15-16.5-20.5-2-1.5-3.8-3-4.1-3.4-.3-.3-3.7-1.9-7.5-3.4-5.9-2.3-8.5-2.8-16.5-2.8-8.3 0-10.2.4-15.1 2.7-3.1 1.5-6.1 2.7-6.8 2.7-1.8 0-7.7 6.9-10.7 12.6C66 212 65 218.7 65.5 237c.6 18.4.9 20.9 3.6 26.2 2.4 4.7 9.4 11.4 13.7 13 1.7.7 3.2 1.5 3.2 1.9s2.5 1.7 5.5 2.8c4.5 1.7 7.9 2.1 17.2 2.1 11 0 24.2-1.5 25.3-2.9.3-.4 1.6-1.2 3-1.9 10.3-5.3 17.8-10.2 23.2-15.4 1.6-1.6 3.3-2.8 3.8-2.8.6 0 1-5.8 1-14.3 0-12.5.8-18.2 2.4-16.7.2.3.7 7.2 1 15.5.3 8.8 1.1 17.1 2 20 .8 2.7 2.2 8.5 3.2 12.9 1.6 7.3 1.6 8.6.1 19-2.7 18.5-4.7 49-4.7 68.8V384h198v-7.3c0-11.6-4.8-27.3-16.8-54.8-6.6-15.2-7.2-17.5-6-24 1-5.4 3.5-9.3 7.3-11.1 1.1-.5 4.4-2.2 7.2-3.7 6.1-3.3 10.1-3 15.6 1.2 2.8 2.1 3.5 3.6 4.5 8.7 1 5.8.9 6.6-1.8 14-6.5 17.5-7.3 29.8-4 59 1.1 9.6 2 17.6 2 17.7 0 .2 30.8.3 68.5.3H512V201c0-100.7-.3-183-.8-183-.4 0-3.4 1.3-6.7 3M460 106.3c0 .7-1 2.4-2.2 3.7-2.7 2.9-3.7 1-1.4-2.5 1.8-2.7 3.6-3.3 3.6-1.2"/></svg>