<svg xmlns="http://www.w3.org/2000/svg" width="682.667" height="512" version="1.0" viewBox="0 0 512 384"><path d="M318.2 23.3c-2.3 3.1-4.6 5.7-5 5.7s-2.9-.7-5.6-1.5-5.5-1.5-6.3-1.5c-1.4 0-1.8 3.6-.5 4.4.5.3 2.1 2.3 3.6 4.5l2.8 4-3 4.3c-2.7 4-4.9 8.8-3.9 8.8.2 0 3-.9 6.2-2 6.5-2.2 8.5-2.5 8.5-1 0 .5-.8 1-1.8 1-1.1 0-4.5 1.8-7.8 4-12.7 8.6-28.7 19.9-31.3 22.3-2.2 1.9-3.9 2.4-7.2 2.4-2.4-.1-5.6.2-7 .6-2.1.7-2.7.4-3.7-1.8-2-4.4-4.6-2.9-5.2 3-.5 5.2-.9 5.5-6.5 4.4-1.7-.3-1.9.1-1.7 2.4.2 1.6 1.6 5 3.2 7.5 8.4 14.1 13.1 21.6 14 22.7.8 1 .3 2.9-1.9 7.3-1.7 3.3-4.4 11.3-6.2 17.8-3.1 11.8-3.1 11.8-2.4 28.8.8 18.2 1.6 22.6 3.9 20.7 1-.8 2.3.6 6 6.4 4.7 7.3 7.8 10.9 6.1 6.9-1.1-2.8-5.5-15.5-5.5-16.1 0-.2 1.2 1 2.7 2.9 1.4 1.8 5.1 5.8 8 8.9l5.3 5.5-2.3 2.2c-1.3 1.2-3.4 2.1-4.8 2s-5 1.3-8.1 3c-3.6 2.1-7.6 3.5-11 3.8-7.2.8-10.8 2.2-14 5.6-1.9 2-3.6 2.8-6.1 2.8-1.9 0-4 .6-4.6 1.4-.7.8-2 1.2-3 .9-2.3-.6-8.1 4.8-8.1 7.6 0 1.2-.6 2.1-1.3 2.1s-4.5 1.6-8.5 3.5c-8.3 3.9-8.4 3.9-4.7-6.3 2.7-7.5 3.1-12.2 1.4-15.3-.8-1.6-.7-2.9.5-5.3 1.4-3.1 1.4-3.6-.3-7.2-2.6-5.5-2-14.5 1.3-20.4 1.4-2.5 2.6-5.3 2.6-6.2 0-2.7 2-3.2 4.4-.9 1.2 1.2 2.5 2.1 2.9 2.1 1.4 0 .6-4.6-1.4-7.9l-2-3.3 3.8.6c9.7 1.7 11.3 1.8 11.3.7 0-1.9-5-8.9-7.6-10.6-3.3-2.1-15.1-2.1-18.4.1-4 2.7-11.1 9.7-12.5 12.5-1.4 2.6-4.7 15.1-6 22.2-.5 2.9-1 3.7-2.2 3.3-.8-.3-2.7.2-4.1 1.3-1.5 1-4 2.3-5.7 2.8-2.9 1-3 1.2-2.7 6.2.2 4.4-.1 5.7-2.4 8.4-2.4 2.8-2.6 3.6-2 8.7 1.7 14.6 1.7 18 0 28.5-3.1 19.4-3 19.7.7 24 3.8 4.3 8.3 6.5 13.1 6.5 8.6 0 49.5-13.9 50.7-17.2.7-1.8.8-1.8 2.5.1 1.2 1.3 3.1 2.1 5.3 2.1 1.8 0 3.3.2 3.3.3 0 .2-.9 3-2 6.2-3.5 10.3-2.4 20.1 5.9 51.5 1.7 6.3 3.1 11.8 3.1 12.2s-1.6 1.5-3.5 2.4c-2.1 1-3.8 2.6-4.1 4-1.1 4.1-6.9 5.7-12.8 3.4-2.4-.9-2.6-.7-2.8 1.8 0 1.5 0 3.6.1 4.8.1 1.9-.7 2.1-14.1 3.2-18.6 1.6-22.7 1.5-32.3-.6-8.7-1.9-8.6-1.9-13.1-.9-2.4.6-8.7-1-29-7.3-54.1-17-69.9-22.2-71.1-23.7-.6-.8-1.4-3.6-1.8-6.3-.7-5.2-2.1-6.9-7.3-9-3.8-1.5-27.7-.9-42.4 1.1L0 315.3V384h338.3l-2-2.3c-2.6-2.8-6-13.4-4.7-14.5.5-.5 3-1.6 5.5-2.6 2.6-.9 4.6-2.2 4.5-2.9 0-.7.3-1.3.7-1.4.5-.1 2.4-3.4 4.3-7.3 5.5-11.3 8.2-25.7 10-52.5.5-8.4 1-10.4 2.8-12.5 7.4-8.2 9.1-14 7.2-24.8-1.1-6.6-1-7.8.7-13.2 1.4-4.2 3.1-7.1 5.8-9.5 2.1-1.9 3.4-3.7 2.9-4-.7-.4-.6-1.3 0-2.5.8-1.6.1-2.3-5.5-5.4-3.6-2-6.8-3.6-7.1-3.6s-4.7-2.5-9.8-5.5-11.5-6.3-14.4-7.3c-2.8-1-6.1-3-7.2-4.5-2-2.5-2-2.8-.5-5.7 1.6-3.1 2.7-3.9 2.4-1.8-.3 2.7.2 3.7 2.1 4.3 1.5.5 2.6 0 4.1-1.9 2.4-3.1 4.3-3.4 3.4-.7-1.2 4 1.5 2.9 5-1.9 3.8-5.1 4.7-5.9 4.4-3.8-.6 4.6 1 4.9 3.3.8.9-1.7 2.3-3 3-3 1.7 0 6.9-21.5 6.8-28.1 0-6.7-3.6-26.4-6.1-33.5l-2.1-6 4.7-7c2.6-3.8 6.7-9.6 9-12.9 2.4-3.3 4.6-7.5 5-9.3l.7-3.4-2.6 1.7c-2.5 1.7-2.6 1.7-2.6-.4 0-2.6-2.5-3.8-4.5-2.1s-3 .8-5.5-5.5c-1.8-4.4-2.6-5.4-4-5-2.4.8-11.3-5-17.1-11.2-9.3-9.8-16.9-19.4-16.9-21.4s.2-2 4.8.6c8.9 5.2 14.7 10.4 20.3 18.2 1.6 2.4 3.3 4.3 3.7 4.3 1.4 0 9.5-17.7 8.9-19.3-1.1-2.9-10.6-9.5-17.7-12.3-4.8-1.8-6.9-3.2-6.8-4.2.2-1.1-1.6-2.1-6.2-3.5-3.6-1-6.6-2-6.8-2.2s-.7-3.4-1-7.1l-.7-6.8z"/></svg>