<svg xmlns="http://www.w3.org/2000/svg" width="682.667" height="512" version="1.0" viewBox="0 0 512 384"><path d="m309.8 16.5-3.3 5.6-7.7-.6c-4.5-.4-7.8-.3-7.8.2s1.6 2.5 3.6 4.4c5.9 5.6 6 6.3 2.4 13.1-1.8 3.3-2.8 6.4-2.4 6.8.5.5 3.6-.2 6.8-1.6 8.1-3.3 10.2-3 4 .5-2.8 1.7-8.3 5.8-12.1 9.3-19 17.1-27.2 23.6-29 23.2-1-.3-3.9.2-6.4.9-4.6 1.4-4.7 1.4-5.8-1-.8-1.7-1.8-2.3-3.4-2.1-1.8.2-2.2.9-2 3.8.2 1.9 0 4.6-.3 5.9-.4 2-.9 2.2-3.9 1.7-3.5-.7-5.2.5-3.8 2.6.4.7.8 1.8.9 2.4.2 1.3 17.9 24.8 20 26.5 1 .9.8 2.5-1.5 8.7-4.3 11.6-6.5 25.5-5.8 36.5.9 13.9 2.5 27.1 3.8 30.3 1.1 2.9 1.1 2.9 2.2.7.9-2.1 1.3-1.9 5.8 4.6 6.8 9.6 8.7 10.9 5.4 3.5-3.1-6.8-4.5-10.3-4.5-11.1 0-.2 3.5 2.9 7.7 7.1l7.8 7.6-2.7 2.7c-2.2 2.2-3.6 2.7-7 2.6-3-.2-5.4.5-7.8 2.1-4.4 2.9-9.4 4.6-13.4 4.6-3.4 0-11.6 2.9-11.6 4.1 0 1.7-3.3 3.9-6 3.9-1.6 0-4.1.5-5.7 1.1-1.5.7-3.7 1.3-4.7 1.4-2.6.3-7.6 6-7.6 8.7 0 1.2-.3 1.9-.6 1.5-.4-.3-5.6 1.9-11.7 4.9l-11 5.6.6-8.9c.4-4.8 1.1-10.4 1.7-12.3 1.6-5.7 1.2-11.4-1.1-14.4-1.9-2.4-1.9-2.8-.5-5.7 1.2-2.4 1.3-3.6.4-5.3-2-3.9-4.1-5.6-6.9-5.6-2.6 0-2.7-.1-1.8-3.3.7-2.2.6-4.6-.2-7.4-.6-2.3-1-7.6-.7-11.7.2-4.2 0-7.6-.4-7.6-.5 0-.8.5-.8 1.2 0 .9-.3.9-1.2-.1-1.1-1-.9-1.5.7-2.7 2-1.5 2-1.5-.3-3.4-1.3-1.1-3.9-2.2-5.8-2.6-1.9-.3-3.4-1-3.4-1.5s.4-.9.8-.9c.5 0 1.7-.8 2.8-1.9 1.1-1 3.8-2.2 6-2.7 2.3-.6 3.9-1.6 3.9-2.4s.9-1.7 2-2c4.2-1.2 1.9-3.2-5.5-5.1-4.1-1.1-7.9-2.4-8.4-2.9-2.9-2.9-9.6.5-15.4 7.9-3.7 4.6-4.1 5.8-5.7 16.5-2.1 14-1.8 17.2 2.9 26.5l3.5 7.1-3.7 1.8c-3.1 1.5-3.7 2.2-3.4 4.6.2 1.6 1 3.9 1.9 5.2 1.4 2.2 1.3 2.6-1.1 5.5-3.2 3.7-3.3 7-.6 16.4 2.3 7.9 4 24.4 4 38.7 0 9.5.1 9.8 3.2 13.4 8 9 18.6 8.5 47.3-2.6 18.3-7 20.5-8.1 20.5-10.1 0-2.5 1.2-2.4 2.8.2 1.2 1.9 2.1 2.1 9.3 1.7 4.3-.2 7.9-.3 7.9-.3s-.9 2.9-2 6.3c-3.8 12.1-2.4 25.2 5.5 51.2 2.5 8.2 4.5 15.3 4.5 15.9s-.9 2-2 3.1-2 2.7-2 3.5c0 2.1-4.1 2.8-9.5 1.7-5.2-1.1-5.6-.7-5.9 5-.1 4.2-1.2 4.5-22.7 5.4-14.1.6-17.7.4-23.8-1.1-5.1-1.2-8.9-1.6-13-1.1-5 .6-7.4.1-18.7-3.4-14.8-4.7-59.6-18.8-72.9-23-15.7-4.9-15.9-5-17-11.5-1.6-9-5.9-11.5-19.7-11.5-8.4 0-31.7 2-42.5 3.6l-4.3.6V384h350v-2.5c0-1.5-.7-3.9-1.5-5.6-.9-1.6-1.3-3.4-1-3.9.3-.4 2.8-1.6 5.5-2.5 2.8-.9 6.4-2.8 8.1-4.2 9.1-7.7 13.7-28.9 12.6-58.4l-.5-15.9 3-3.7c1.7-2.1 3.7-5.2 4.4-7 1.7-3.9 1.7-13.3 0-18.8-.9-3.2-.9-4.7 0-7.5.7-1.9 1.6-5.2 1.9-7.2.3-2.1 1.8-5.2 3.2-6.9 1.5-1.7 2.8-4.4 3-5.9.2-2.6-.4-3-9.5-7.4-5.3-2.6-11.1-5.9-12.9-7.2-4.5-3.4-15.1-8.3-19.6-9.1-2.8-.4-4.1-1.2-4.7-2.9-.5-1.2-1.6-2.6-2.5-3.1-1.4-.8-1.4-1.4.4-5.4l2-4.4v3.8c.1 2.3.5 3.6 1.1 3.2.6-.3 1-.1 1 .4 0 2.5 2.8.8 5.1-3.2 2.2-3.9 2.4-4 2.7-1.7.7 5.6 1.3 5.5 5.5-1 3.9-6 4.2-6.3 4.5-3.8.4 3.6 1.3 3.5 3.4-.2.9-1.7 2.4-3 3.3-3 1 0 1.5-.9 1.5-2.8 0-1.5.7-5.9 1.5-9.7 2-8.9 2-16.9 0-26.9-1.6-8.3-6.3-23.2-8.9-28-1.6-3.2-1.3-4 9.8-23.3 5.8-10.1 7.5-18.8 2.8-14.1-1.3 1.3-2.4.3-3.5-2.7-.2-.6-1.4-.4-3 .4-3.1 1.7-3.3 1.5-6.7-4.7-1.9-3.4-3.1-4.6-4.5-4.4-1.8.2-5.8-1.4-14.2-5.7-4.1-2-24.3-21.8-24.3-23.7 0-2 2.8-1.7 8.5 1 7.9 3.7 15.9 10.3 22.2 18.5 1.6 2.1 2.3 1.1 6-8.4 3.1-8.2 3.2-9.9.1-13.2-2.9-3.1-14.6-8.9-19.7-9.8-2.5-.4-4.1-1.2-4.1-2.1 0-1.5-3-3.4-5.7-3.4-1 0-3.5-.5-5.5-1-3.5-1-3.7-1.3-4.3-6.5-1.1-8.2-2.7-8.7-6.7-2M164.2 158.2c-.7.7-1.2.8-1.2.2s.3-1.4.7-1.7c.3-.4.9-.5 1.2-.2.2.3-.1 1.1-.7 1.7m4.8-.7c0 .8-.4 1.5-1 1.5-.5 0-.7-.7-.4-1.5.4-.8.8-1.5 1-1.5s.4.7.4 1.5"/></svg>