<svg xmlns="http://www.w3.org/2000/svg" width="682.667" height="512" version="1.0" viewBox="0 0 512 384"><path d="m303.5 14.3-3 6.2-5-.3c-2.8-.1-6-.5-7.2-.7-3.9-.9-2.7 2.8 2.3 7.5l4.7 4.3-2.7 5.4c-2.4 5-3.4 9.3-2 9.3.3 0 3.1-1.4 6.1-3 3.1-1.7 6.5-2.9 7.7-2.8 1.7.3 1.4.7-1.7 2.1-2.1.9-7.1 4.9-11.2 8.9s-11.7 11.5-16.9 16.7c-5.3 5.2-9.6 9.9-9.6 10.4s-1.2.6-2.6.3c-1.5-.4-4.4 0-7 1-4.4 1.7-4.5 1.7-6.9-.6-2.3-2.1-2.7-2.2-4.1-.9-1.2 1.2-1.3 2.1-.4 4.3 1.3 3.6 1.3 4.2-.5 6-1.1 1-2.6 1.3-4.7.9-3-.6-3-.6-2.3 2.8.5 2 3.1 6.1 6.5 9.9 3.1 3.6 8.3 9.6 11.5 13.4l5.8 6.8-1.8 5.7c-3 9.9-4.7 23.9-4.1 34.6.6 12.5 2.9 28.1 4.7 31.8 1.1 2.5 1.5 2.7 2.4 1.3 1-1.3 2-.4 6.4 5.4 8.7 11.4 9.5 10.7 2.9-2.3-1.1-2.2-1.8-4-1.6-4.2.4-.5 13.8 11.5 13.8 12.3 0 1.9-6.9 5.2-10.6 5-2.8-.1-5.1.7-8 2.6-2.2 1.4-6.7 3.1-10 3.7-12 2.2-14.5 3.1-15.7 5.6-.6 1.3-2 2.5-3.1 2.8-8.9 1.8-13.5 3-15.7 4.1-3.2 1.6-5.4 6.4-4.3 9.6.6 2 .5 2.1-.9.9-1.4-1.1-3.4-.4-14.1 5.2-11.8 6.2-12.4 6.4-13 4.3-.3-1.1-.6-9.9-.6-19.4 0-17.2 0-17.3-2.5-19.6-2.5-2.4-3.4-6.9-1.5-8.1 1.7-1 1.1-3.1-1.6-6-2-2.2-3.1-2.6-5.5-2.1-4.3.8-6.6-.7-9-6.4-1.2-2.7-2.7-5.5-3.5-6.1s-3.4-5.3-5.8-10.5l-4.4-9.3H147c-5.3.1-6.3.4-6.7 2-.4 1.3-1.4 1.9-3.3 1.9-1.6 0-3 .6-3.3 1.2-1 2.7-2.9-.9-2.2-4 .9-4.2 3.4-6.3 2.8-2.5-.3 2.3 0 2.1 1.5-1.2 1.1-2.2 2.7-4.6 3.6-5.4.9-.7 1.6-2 1.6-2.7 0-1.6-3.1-1.9-4.6-.4-.5.5-2.3 1.1-4 1.3-1.6.2-3.5.7-4.2 1.1-1.7 1.1-1.5.4 1.2-3.3 3.1-4.2 2.5-5.6-2.4-5.7-3.4-.1-4.4.3-6.3 3-2 2.8-2.2 4.3-2.2 15.1v12l5 10.9c4.9 10.8 5.1 11 11.8 15.3 3.7 2.4 6.7 4.8 6.7 5.4 0 .5 1 2.3 2.1 3.9l2.2 2.9-2.7 3.2c-3.3 3.8-3.1 6.1 1.4 16.9 3.4 8.3 6.3 21 8.4 37.1.8 6.4 2 12.8 2.7 14.3 1.5 3.1 11.8 8.6 16.3 8.6 5.3 0 20.7-4.6 36.6-11 19-7.5 19.3-7.7 18.7-10.1-.7-2.5.8-2.4 3.4.2 2 2 2.9 2.1 9.9 1.6 4.3-.3 8.7-1 9.9-1.6 2.6-1.4 2.7-.4.5 5.4-2.3 6.4-2.8 19.8-1.1 29.7.8 4.8 3.8 16.1 6.7 25 4.4 14 5 16.7 4.1 19.2l-1.1 2.8-7.8-.6-7.8-.5.1 4.8.1 4.8-6.5.7c-3.7.3-12.2.9-19.1 1.2-11 .6-13.4.4-20.4-1.5-6.8-1.9-8.6-2-13.2-1.1-4.7 1-6.2.8-13.6-1.5-4.6-1.5-22.9-7.1-40.8-12.6S92.9 337 86 334.7l-12.5-4.2-1.5-6.4c-2.2-9.2-4.2-10.5-17.4-10.9-5.9-.2-19.1.5-30.7 1.7-11.3 1.2-21.2 2.1-22.2 2.1-1.6 0-1.7 2.4-1.7 33.5V384h180.5c115.4 0 180.5-.3 180.5-1 0-.5-.8-2.5-1.7-4.5-1-2.2-1.3-3.9-.7-4.4.5-.5 3.9-1.8 7.5-3 7.7-2.5 10-4.4 13.4-11.1 5.9-11.6 7.5-28.5 5.1-52.4l-1.7-15.9 3.5-5.1c4.8-7.1 6-12.3 4.5-19.4-.6-3.1-1.5-6.4-2-7.4-.6-1-.3-2.6.6-4.5.8-1.5 1.5-5.1 1.5-7.8 0-3.1.8-6.6 2-9 1.1-2.1 1.8-4.1 1.5-4.3-.3-.3 0-1.1.7-1.9 1.4-1.8.7-2.4-7.2-5.7-3.6-1.5-10.5-5.1-15.5-8.1-4.9-3-11.5-6.1-14.5-7s-6.6-1.9-8-2.3-2.6-1.3-2.6-2c-.1-.6-.3-1.5-.4-2-.1-.4-.2-1.1-.1-1.5.1-.5-.3-.6-.8-.3s-1.4-.1-2.1-.8c-.9-1.1-.8-2.1.3-4.3l1.5-2.8.7 2.7c.4 1.6 1.1 2.6 1.5 2.3s1.1.2 1.4 1.1c.8 2.1 2.9.5 4.6-3.7 1.4-3.2 2.4-3.1 2.5.3 0 3.8 1.9 2.9 4.7-2.1 2.8-4.9 6.5-9 5.3-5.9-.4.9 0 1.8.9 2.1 1.1.4 2-.4 3.2-2.8.8-1.8 2.1-3.2 2.8-2.9 1.3.5 4.6-17.9 4.6-25.7 0-9-5.2-27-11.3-39.1-3.8-7.5-4.1-8.7-3-10.8 9.6-18.8 13.3-27.7 13.3-31.4v-4.1l-1.8 2.3-1.8 2.3-1.2-2.5c-1.3-2.9-3.3-3.3-5.2-1.1-1.6 1.9-3 .8-6.5-5-2-3.6-3.1-4.4-5.3-4.3-6.7.1-20.2-7.1-29.7-15.9-1.1-1-3.9-3.3-6.2-5.1-4.3-3.4-5.7-7.2-2.7-7.2 2.4 0 13.2 4.9 18.4 8.4 2.5 1.7 6.6 5.2 9.2 7.9l4.6 4.8 2-5.3c4-10.8 4.6-13.6 3.3-16.1-1.9-3.5-9.7-7.7-18.6-9.9-4.7-1.2-8.5-2.8-9.2-3.8-.9-1.2-3.3-2-7.2-2.5-6.5-.7-7.5-1.4-8.5-6-.9-4.1-2.7-8.5-3.5-8.5-.3 0-2 2.9-3.6 6.3M130 166.7c0 3.5-.3 4.4-1 3.3-1.6-2.5-1.1-8 .7-8 .2 0 .3 2.1.3 4.7m24 1.3c0 .5-.2 1-.4 1-.3 0-.8-.5-1.1-1-.3-.6-.1-1 .4-1 .6 0 1.1.4 1.1 1m-12 7c1.3 2.5 1.3 2.5-.8.6-1.2-1-1.9-2.3-1.6-2.8.7-1.1.7-1.1 2.4 2.2"/><path d="M139.1 145.8c-1.2 1.8-1.8 3.2-1.3 3.2 1.5 0 4.4-3.8 4-5.1-.2-.7-1.4.1-2.7 1.9m-6.1 1.8c-1.7 4.2-1.1 5 1.5 2.1 2.9-3.2 3.2-4.7 1-4.7-.9 0-2 1.2-2.5 2.6"/></svg>