<svg xmlns="http://www.w3.org/2000/svg" width="682.667" height="512" version="1.0" viewBox="0 0 512 384"><path d="M303.1 8.1c-.5 1.3-1.9 4.6-3 7.3l-2.1 4.9-7.5-.5c-10.1-.7-10 .6.4 9l2.5 1.9-2.2 5.8c-3.7 9.7-3 10.4 5.4 5 4.9-3.2 7.4-3.7 7.4-1.7 0 .4-1.6 1.6-3.6 2.7s-5.6 4.3-8 7.1c-2.5 2.9-8.5 9.4-13.5 14.5-5 5.2-10.2 10.9-11.6 12.6-1.9 2.5-3.3 3.3-5.7 3.3-1.7 0-4.8.9-6.9 2l-3.7 2-2-2c-1.1-1.1-2.7-2-3.6-2-1.4 0-1.6.8-1 4.6.8 5.9-.6 8.4-4.5 8.4-2.9 0-3.1.2-2.4 2.7.7 2.9 7 11.3 8.5 11.3.4 0 4.4 4 8.9 8.9l8.1 8.8-1.5 5.1c-3.4 11.2-4.6 33.3-2.5 42.7.6 2.7 1.8 8.8 2.5 13.5 1.4 8.4 3.3 11.7 6.1 10.6.6-.2 2.6 1.5 4.4 3.9 2.9 3.9 9 9.3 9 8 0-.3-1.2-2.8-2.6-5.6s-2.4-5.2-2.2-5.4 3 2.1 6.3 5.1l6 5.4-2.2 2.1c-1.6 1.6-3.8 2.4-8 2.7-3.2.3-6.9 1.2-8.3 2.2-3.8 2.6-7.9 3.9-15 4.9-8.4 1.2-11.7 2.5-12.5 5-.3 1.2-1.6 2.3-2.8 2.5-16 3.1-18.7 4.4-20.7 10.5-.8 2.5-1.9 4.1-2.9 4.1-.9 0-7.2 3.2-14.1 7-10.4 5.7-12.6 6.6-13.3 5.3-1.6-2.7-4.5-19.6-5.2-29.3-.7-11-1.7-14.3-5.2-16.6-2.3-1.5-2.5-2.1-2-6.4.8-6.2-1.3-8.5-7-7.6-4.8.8-11-1.3-13.8-4.6-1.1-1.4-4.1-3.9-6.7-5.6-2.6-1.8-5.6-4.6-6.8-6.2-1.2-1.7-4.2-4.6-6.8-6.6-3.8-2.8-5.1-3.4-7.6-2.8-7 1.4-6.8 4.3.6 12.1l4.1 4.1-4.4.9c-3.3.7-4.8.5-6.1-.6-1.5-1.3-1.5-1.6-.1-3.7s1.4-2.4 0-3c-.9-.3-2.7.2-4.1 1.1-2.3 1.6-2.7 1.6-5.1-.2-3-2.2-3.9-5-2.6-8.4.5-1.5.6-3.2.1-4-.8-1.2-1.4-1.1-4 .4-1.6 1-3 1.4-3 .8 0-.5.8-1.4 1.7-2 1.2-.6 1.6-2 1.5-4.7-.4-4.7-.7-5.1-2.7-3-.9.9-3.4 1.9-5.6 2.2-3.9.7-3.9.7-3.9 5.4 0 4.3 2.6 13.4 6.4 22.2 1.7 3.9 17.5 20.8 21.2 22.7 1.2.6 5.9 1.7 10.4 2.5s8.3 1.6 8.6 1.9-.4 2-1.5 3.8c-1.2 1.9-2.1 4-2.1 4.8s2.4 6.7 5.4 13c6.1 13.1 8.7 21.2 12.1 37.8 2.6 13.1 4.1 15.6 11.1 19.6 4.4 2.5 5.6 2.7 12.4 2.4 9.2-.5 19.5-3.8 40.2-12.5 13.1-5.6 15.7-7 15.2-8.5-.7-2.2-.2-2.1 3.8.3s8.3 2.5 16 .4c7.8-2.2 8.4-1.6 6.8 7.7-1.7 9.9-1.5 20 .4 28.9 1 4.1 1.9 8.5 2.2 9.7.2 1.3 2.7 9.1 5.5 17.4s4.8 15.3 4.5 15.7c-.3.3-2.5.1-4.9-.4-7.8-1.8-9.5-.6-10 6.6-.2 2.4-.5 2.5-11.7 3.6-14.6 1.5-25.4 1.6-30.5.4-8.7-2.1-16.4-2.8-19.8-1.8-2.7.8-5 .5-13.7-2.2-5.8-1.7-17.7-5.3-26.5-7.9-17-5.1-48.5-14.6-62.3-18.8-10.4-3.2-12.1-4.6-13.3-10.7-.5-2.7-1.4-5.5-2.1-6.3-4.7-5.7-17.2-6.4-50.7-2.9-13.4 1.4-25 2.6-25.7 2.6-1.2 0-1.4 5.5-1.4 33v33h187c102.9 0 187-.3 187-.7 0-.3-.8-1.5-1.7-2.5-2.3-2.6-1-3.6 8.8-6.5 4.6-1.3 9.4-3.3 10.6-4.5 5.6-5.2 10.3-20.2 10.3-32.8 0-8.5-4.2-41.9-5.5-44.1-.3-.3.4-1.7 1.4-3 6.2-8 7.7-17.8 4.3-26.9-1.7-4.2-1.7-4.6 0-7.9 2-3.9 2.3-8.9.8-14-.6-2.3-.6-3.9.1-4.7 1.6-2 2.1-8.4.7-8.9-.7-.2-3.8-1.1-6.8-1.9-3.1-.8-9.4-3.8-14-6.7-9.4-5.7-14.1-7.6-21.5-8.8-3.3-.5-4.9-1.2-4.7-2s-.4-2.1-1.3-3.1c-1.2-1.3-1.3-2-.5-2.5.7-.4 1.7-.1 2.2.6.8 1.2 1 1.2 1.5 0 .7-1.8 4.1-5.1 5.2-5.1.5 0 1.1 1 1.3 2.2.2 1.8.8 1.3 3.1-2.8 1.6-2.7 3.9-6.4 5.3-8.3l2.4-3.4.1 3.9.1 3.9 2.2-4.8c1.6-3.6 2.4-4.5 3.3-3.6.8.8 1.3-.3 1.8-4.7.3-3.3 1-7.8 1.5-10.1 1.6-6.6 1.2-14.2-1.1-23.4-2.4-9.5-9.5-26.2-13.8-32.8l-3-4.4 2-5.1c1.1-2.8 4-10.1 6.5-16.2C378 82.3 380 75.8 380 74c0-3.2-.1-3.2-1.9-1.6-1.7 1.6-1.9 1.5-3.3-.6-1.4-2.2-1.6-2.2-4.1-.5-1.5.9-2.8 1.7-3.1 1.7-.2 0-2-2.5-4.1-5.5-3.1-4.7-3.9-5.4-5.4-4.5-1.4.7-2.8.5-5.1-.6-1.7-.9-5-1.8-7.3-2.1-5.4-.7-6.1-1.1-19.8-11-12.2-8.8-15.7-13.1-9.6-11.9 9 1.7 19.3 7.3 26.9 14.4 2.9 2.7 5.2 4.2 5.8 3.6 1.2-1.2 5-15.2 5-18.6 0-5-10.6-10.4-22.8-11.5-4.9-.5-6.6-1-6.9-2.3-.4-1.3-2.2-1.9-8.1-2.6l-7.7-.9-1.7-6.4c-2-7.6-2.5-8.1-3.7-5m50.4 192.6c-.4 1.9-.9 2.3-1.7 1.5-.9-.9-.8-1.9.2-3.9 1.5-3.2 2.5-1.6 1.5 2.4"/></svg>