<svg xmlns="http://www.w3.org/2000/svg" width="682.667" height="512" version="1.0" viewBox="0 0 512 384"><path d="M307.4 7.8c-1.2.9-2.9 3.7-3.8 6.2-1 2.5-2.3 4.8-2.9 5.2-.7.4-4 .8-7.4.8-7.6 0-8.9 1.4-4.3 4.9 1.9 1.4 4.4 3.5 5.7 4.6l2.3 2-2 5.5c-2.2 6-2.5 8.4-1 7.5.6-.3 1-.1 1 .4 0 1.7 1.2 1.3 6.9-2.4 6.8-4.5 8.6-4.1 2.4.5-2.6 1.9-7.2 6.6-10.1 10.5-3 3.8-7.8 9.7-10.8 13-2.9 3.3-6 6.7-6.7 7.5s-2.4 3-3.6 4.7c-1.4 2.1-3.1 3.3-4.5 3.3-1.2 0-3.8.8-5.9 1.9-3.1 1.6-3.9 1.7-5.4.5-1-.7-3.1-1.4-4.7-1.4-2.8 0-2.9 0-2.2 4.9.9 6.8.2 8.1-4.5 8.1-2.1 0-3.9.2-3.9.4 0 2.8 4.9 8.7 15.6 18.8 7.3 6.9 12.8 12.8 12.7 13.7s-1.2 8.6-2.4 17.1l-2.2 15.5 2.3 11c1.2 6 2.7 13.5 3.2 16.5s1.4 5.7 1.9 5.9c.6.2 2.9 2 5.2 4.1 2.2 2.1 4.6 3.6 5.3 3.3.6-.2 2.2 1 3.4 2.6 2.7 3.9 4.5 4 2.5.1-2.3-4.5-1.9-4.5 3.5.2 2.7 2.4 5 4.8 5 5.4 0 2.2-2.9 3.5-9.6 4.5-3.7.5-8.1 1.8-9.8 2.8-3.4 2-6.5 2.9-13.7 3.6-6.3.6-12.7 3.3-13.4 5.6-.4 1-1.6 2.1-2.8 2.3-9.4 1.8-14.4 3-16.3 3.8-2.1 1-5.4 6.6-5.4 9.3 0 1.3-.6 1.7-2.5 1.4-.7-.1-18.8 9.6-23.7 12.8-3.5 2.1-3.8 2.2-4.7.5-2.2-4.2-6.2-19.8-8.1-31.7-1.7-11.1-2.4-13.3-4.4-15.1-1.4-1.2-3-2.4-3.7-2.6s-1.4-2.9-1.7-6.1c-.2-3.2-1-6.1-1.6-6.5s-4.5-.7-8.7-.7c-7.1-.1-8-.3-13-3.7-3-2-7.3-4.6-9.6-5.9s-7.3-4.6-11.1-7.2c-4.6-3.3-8.1-4.9-10.3-5-3.1-.2-3.4.1-3.7 2.9s.4 3.8 4.7 7.5c2.8 2.3 5.1 4.6 5.1 5s-2 1.7-4.4 2.9c-5 2.4-9 1.9-10.7-1.2-.7-1.4-1.7-1.8-3.2-1.4-1.1.3-4-.3-6.4-1.4-3.1-1.4-4.6-2.8-5.7-5.5-1.1-2.6-2.1-3.5-3.1-3.2-1 .5-1.7-.5-2.5-3.4-1.2-4.2-5.2-7.1-5.8-4.3-.2.8-.8 1.4-1.3 1.4-3.1 0 1.2 12.6 6.8 19.9 2.1 2.7 4.5 6.2 5.4 7.9 1 1.6 4.1 4.6 7 6.6 3 1.9 7.9 5.4 10.9 7.6 5.3 3.9 5.9 4.1 15.2 4.7l9.7.6-1.9 2.4c-2.2 2.8-1.6 5.9 2.6 13 7.5 12.8 13.4 27.9 18.3 46.9 2.6 9.9 4.3 12.2 11.2 15.7 7.7 3.9 13.8 4.4 23.5 1.9 15.4-3.9 49.1-17.8 48.6-20-.3-1.5.7-1.5 3.8.3s10.5 1.9 16.4.3c3.8-1 4.8-.9 6.9.5l2.6 1.7-.6 12.2c-.8 18.7.5 24.7 13.3 62 .5 1.5-.1 1.7-4.7 1.5-5.9-.2-5.8-.3-5.9 7.4 0 1.4-.6 2.6-1.2 2.6-.7 0-8.7.6-17.8 1.3-14.5 1.1-17.6 1.1-25-.3-13-2.4-15.2-2.6-19.1-1.5-4.2 1.2-3 1.5-71.4-18.7-23.6-6.9-44.6-13.4-46.5-14.3-3-1.5-3.6-2.4-4.6-6.7-2-9.3-3.8-10.7-15.9-12.6-6.3-.9-8.9-.7-49.3 3.7-12.3 1.3-23 2.4-23.8 2.4-1.2 0-1.4 4.8-1.4 31.5V384h194.5c107 0 194.5-.3 194.5-.8 0-.9 5.2-2.5 15.1-4.8 9.7-2.2 13.9-6.2 17-16.6 2-6.4 2.1-8.6 1.6-22.2-.5-14.1-3.9-35.7-6.7-43.2-.8-2-.3-3.5 2.2-7.6 4.3-7 5-15.4 1.9-23.1l-2.2-5.3 2-4.5c2.5-5.3 2.6-8.3.6-13.8-1.6-4.6-2.1-10.8-1.1-13.2.6-1.4-.2-1.8-4.1-2.4-6.3-.9-13.8-3.8-19.6-7.5-5.4-3.4-14.7-6.8-21.1-7.6-4-.6-4.3-.9-4.2-3.4s4.9-11 6.2-11c.3 0 .3 1.8-.1 4s-.5 4-.2 4c.2 0 3-4.3 6.2-9.5 3.1-5.2 6-9.5 6.2-9.5.3 0 .3 2.4.1 5.2l-.5 5.3 2.7-6c2.4-5.3 2.8-5.7 3.7-4 1 1.7 1.2 1.6 1.6-1.5.3-1.9 1-6.8 1.6-10.8 1.5-9.9 1.4-19.5-.4-26.9-1.8-7.9-9.2-24.5-14.5-33.1-4-6.4-4.1-6.7-3-11.1.6-2.4 3.1-10 5.6-16.7 4.7-13 5.8-19.8 2.8-17.3-1.4 1.1-1.8 1-3-.5-1.2-1.7-1.7-1.7-4.5-.6-3.1 1.3-3.3 1.3-6.5-2.6-1.9-2.1-3.4-4.3-3.4-4.8 0-.4-1-.6-2.3-.2-1.2.3-4-.1-6.2-.9S356.9 58 355 58c-5.3-.1-10.2-2.2-20.3-8.7-5.1-3.3-10.4-6.7-11.9-7.7-1.6-.9-2.8-2.5-2.8-3.5 0-1.8.3-1.8 5.8-.4 7.8 2 15.2 5.7 21.4 10.5 5.5 4.4 10.4 5.7 11.2 2.9 1.8-6.7 3.7-17.5 3.2-18.7-1.1-2.8-12.8-7.4-22.1-8.6-7.4-.9-8.8-1.4-9.3-3.1-.4-1.8-1.1-1.9-7.4-1.5-8.1.6-8.9.1-10.8-6.9-1.7-6.2-2.1-6.5-4.6-4.5m60.3 196.4c-.3.7-.5.2-.5-1.2s.2-1.9.5-1.3c.2.7.2 1.9 0 2.5"/></svg>