<svg xmlns="http://www.w3.org/2000/svg" width="682.667" height="512" version="1.0" viewBox="0 0 512 384"><path d="M362.4 11.1c-1 2.8-2 4.6-2.2 4-.2-.5-1-.7-1.8-.4s-1.4 0-1.4-.6c0-2.4-2-.9-2.8 2.1-.7 2.8-1.4 3.4-4.8 4-2.1.4-5.8.7-8 .7-4.3.1-6.9 2.7-4.2 4.2 11.2 6.6 11.9 7.6 10.2 14.9-.6 2.9-.5 3.3.7 2.4.8-.6 2.1-1.1 3-1.1 1.4 0 1.5.6.7 3.4-.5 1.8-.6 3.7-.3 4.3.8 1.3-9.7 17.1-16.2 24.3-1.9 2.1-3.9 4.9-4.5 6.3-.6 1.3-1.5 2.4-1.9 2.4s-1 .9-1.4 2c-.8 2.4-6.9 5.5-10.4 5.2-1.4-.1-4 .5-5.8 1.3-1.8.9-3.7 1.3-4.3 1-.5-.3-1 1.7-1.2 4.6-.3 5.7-1 6.4-7.1 7.4-3.8.6-3.8.7-2.3 3 1.1 1.7 1.2 2.5.4 2.7-1.6.6 1.5 3.6 13.2 12.8 5.2 4.1 11 8.9 12.8 10.6l3.3 3.2-2 10.9c-2.4 12.4-2.7 25.2-.7 33.8 3.4 14.8 5.7 21.2 7.5 20.1.3-.2 1.7 1.1 3.1 3 1.4 1.8 2.9 3.4 3.4 3.4s1.5.8 2.2 1.8c.9 1.2 1.3 1.3 1.4.3 0-1.3 1.1-.4 7.3 5.5 2.8 2.6 8 5.9 9 5.6.4-.1.7.7.7 1.7 0 1.1-.8 2.2-1.7 2.4-3.6 1-9.9 2.1-12.8 2.2-1.6 0-5 1-7.5 2.2-5.8 2.6-9.3 3.4-15.5 3.4-5.7 0-14.2 3.4-15 5.9-.4 1.3-2.2 1.9-6.6 2.4-9.3.9-14.2 3.5-16.2 8.5-1.4 3.5-2.7 4.6-8.1 7.4-3.5 1.7-10.4 5.4-15.2 8s-9.1 4.4-9.6 3.9c-2.3-2.3-8.5-23.9-10.8-37.6-1.5-9.4-3.3-13.2-6.9-15.1-3.3-1.7-4.4-4.4-3.9-9.6.6-6.1-5.2-7.9-17.2-5.4-1.8.4-6.6-1.5-17.5-7.1-8.2-4.2-16.7-8.5-18.7-9.5-2.2-1.1-6.3-2-9.9-2.2-6-.2-6.2-.1-7 2.5-.7 2.5-.2 3.1 6.2 7.4 3.7 2.6 6.6 5.1 6.3 5.5-.3.5-2.5 2-4.9 3.5-4.5 2.6-4.6 2.6-14.7 1.5-6.4-.7-13.4-2.3-18.7-4.2-11.9-4.2-15.8-5.2-17.6-4.5-5.8 2.2 15.3 19.7 35 29.1 12.3 5.8 21.5 8.5 29.1 8.5 5 0 5 0 4.6 2.9s1.1 6.3 7.4 16.1c6.7 10.6 12.9 25.4 20 47.5 3.1 9.9 6 12.6 16.7 16 9.8 3.1 15 3.1 26.9 0 8.9-2.3 37.1-13.1 45.7-17.5 3.5-1.7 4.6-1.8 9.6-.8 4.2.8 6.9.8 10.9-.1 4.3-1 5.8-.9 8.9.4 2 .8 4.3 2.5 5.1 3.8.9 1.3 2.2 8 3.1 15.7 1.6 13.9 3.5 24.5 6.1 34 2.3 8.2 6.6 21.4 7.4 22.5.4.5 1.5 3.6 2.4 6.8l1.8 5.7H512v-50.6l-3.6-9c-2-4.9-4.5-10.9-5.6-13.3l-2-4.4 2.6-5.1c4.5-8.8 3.2-17.4-4.1-28.7l-2.4-3.6 2.1-5.2c2.6-6.6 2.5-7.4-.6-14.1-1.4-3-2.6-7.4-2.6-9.6l-.1-4.1-8.6-1.3c-6.2-.8-11.3-2.4-18.1-5.5-9.1-4.2-17.2-6.8-25.2-8-3.4-.5-3.7-.8-3.4-3.3.1-1.5 3.8-7.9 8-14.2l7.8-11.5-.7 5.9c-.4 3.3-.9 6.6-1.3 7.4-1.3 3.6 2-.3 4.4-5.1 2.6-5 2.7-5 3.9-2.8l1.2 2.3.6-2.3c.4-1.3.7-3.8.7-5.4 0-1.7.9-6.6 2-11 3.6-14.7 2.8-20.5-7.2-49.5-3.6-10.4-6.8-17.6-9.6-21.8-3-4.6-4-6.8-3.3-8 .4-.9 2.1-6.4 3.6-12.1 2-7.3 3.5-11 5.2-12.4 2.6-2.3 2.8-3.5 1-6.8-2.7-5.1-2.8-5.2-5.1-3-2.6 2.4-4 1.6-8-4.7-1.9-3.1-3.2-4.2-4.3-3.8-.9.4-3 .2-4.7-.3-1.7-.6-8.2-1.2-14.3-1.4l-11.3-.5-13.7-7.2c-13.8-7.2-18.3-10.3-17-11.7 1.5-1.4 18.7 5.1 24.2 9.2 1.7 1.2 4.1 2.1 5.5 2s4.2.9 6.2 2.2c2.1 1.2 4 2.3 4.2 2.3.9 0 2.5-7.5 3.2-14.8.6-6.2.4-7.5-1.1-9.2-2.6-2.9-13.5-5.9-23.7-6.7-7.8-.5-8.8-.8-8.8-2.5 0-1.8-.7-1.9-8.6-1.6l-8.6.3-2.7-6.8C366.7 9 365.2 6 364.9 6c-.4 0-1.5 2.3-2.5 5.1M437 213c0 .5-.4 1-1 1-.5 0-1-.5-1-1 0-.6.5-1 1-1 .6 0 1 .4 1 1M88 329.6c-5.8.7-25.8 3.1-44.5 5.4-18.7 2.2-36.2 4.3-38.8 4.6l-4.7.7V384l133.8-.1c73.5 0 133.3-.2 132.7-.5-.5-.2-26.9-7.4-58.5-15.9-31.6-8.6-60.3-16.5-63.7-17.6-6.6-2.1-7-2.8-8.8-11.5-.8-4.2-2.7-5.7-10.4-8.3-7.6-2.5-20.3-2.7-37.1-.5"/></svg>