<svg xmlns="http://www.w3.org/2000/svg" width="682.667" height="512" version="1.0" viewBox="0 0 512 384"><path d="M390.1 9.1c-.5 1.3-1.5 3.9-2.2 5.7-.9 2.5-1.4 3-2.1 2-.8-1.1-1.1-1-1.5.1-.4 1-.9.8-1.8-.9-1.2-2.3-1.3-2.3-2.4 1.3-1.2 3.4-1.5 3.6-6.9 4.2-13.4 1.5-14.1 2.6-5.5 8.3 3.2 2 6.1 3.9 6.5 4.2s.1 2.6-.6 5.1l-1.4 4.6 3.6-1.3c4.1-1.3 5-1.1 3.5.8-1.7 2.1-2.4 6.6-1.2 7.3.7.5.4 1.4-.8 2.9-1.1 1.1-3.7 4.8-5.9 8.1-2.1 3.2-7.3 10.5-11.4 16.1s-8 11-8.6 12c-.8 1.3-2.3 1.9-5.5 1.9-2.4.1-5.7.7-7.2 1.3-1.6.7-3.5 1.2-4.3 1.2-1 0-1.4 1.2-1.4 4.3 0 5.6-2.2 7.7-7.8 7.7-4.6 0-5 .5-2.6 3.8 1.4 2.1 1.4 2.2-.8 2.2-2.1.1-2.1.3 1.3 3.3 5.3 4.8 8.2 7.2 12.1 9.8 8.3 5.7 16.7 13.4 16.1 14.9-3.7 9.3-5.3 33.1-3 43.5 2.2 9.9 6.7 21.6 8.6 22.3.9.3 2.4 1.7 3.5 2.9 1 1.3 2.1 2.2 2.3 1.9.3-.3 1.4.6 2.5 1.9 1.1 1.4 2.4 2.5 3 2.5.5 0 3.1 1.8 5.6 4 2.5 2.3 5.2 3.8 5.9 3.5.8-.2 1.2-.1.8.4-.3.5.7 1.8 2.1 2.9 3.3 2.3 2.4 4.2-2 4.2-1.8 0-5.4.6-7.9 1.4-2.6.8-4.7 1-4.7.6 0-.5-2.4.2-5.4 1.6-3.2 1.5-8.9 2.9-14.2 3.5-12.5 1.4-13 1.6-16.7 4.9-2.4 2.1-5 3.2-9.5 3.9-9.1 1.5-13.3 4.1-15.7 9.8-1.1 2.6-3.1 4.1-10.2 7.7-4.8 2.5-11.6 6.1-15 8l-6.2 3.4-1.4-3.7c-3.1-7.9-6.7-21.2-8.7-32.6-2.3-12.8-3.9-16.7-7.7-18.4-3-1.4-4.6-5.6-3.9-10.1.5-3.1.2-3.8-2.2-5.2-2.3-1.4-4-1.5-10.5-.7l-7.7 1-8.2-4.2c-4.6-2.2-13.2-6.6-19.1-9.6-11.2-5.7-21.6-8.3-24.4-6-3 2.3-1.3 5.2 5.7 10.2 3.8 2.7 6.9 5.3 7 5.8 0 .4-1.2 1.3-2.7 2-1.6.6-3.4 1.7-4.1 2.4-1.3 1.3-6.2 1.6-16.7 1.3-2.7 0-10.6-1.3-17.5-2.7-15.6-3.3-18.3-3.4-18.8-1-.6 2.8 4.4 7.5 12.3 11.4 3.9 2 8.9 4.9 11.3 6.5 2.3 1.6 6.6 3.7 9.5 4.7s7.2 2.8 9.5 4c5.6 2.8 23.6 7.4 27.2 6.9 2.6-.4 2.9-.2 2.4 1.6-.3 1.4 1.9 6.3 6.6 14.4 3.8 6.8 7.9 14.4 9.1 17 2.8 6.4 9.5 24.9 12.4 34.7 2.8 9.4 4.4 11.1 14.7 15.1 6.3 2.5 8.6 2.9 16.8 2.8 8.3-.1 11-.6 21.5-4.2 6.7-2.3 17.5-6.4 24-9.2 6.6-2.9 13.1-5.7 14.5-6.2 1.4-.6 8.4-1.1 15.5-1.1 13.2 0 17.3.9 20.3 4.6.6.7 2.1 7.6 3.2 15.3 3.4 23.1 6 34.5 11.7 51.6l3.6 10.8H512v-72.5c0-51.9-.3-72.5-1.1-72.5-.6 0-6.4-2.3-13-5-7.2-3.1-14.8-5.5-19.4-6.3-6.7-1-7.5-1.4-7.5-3.3 0-1.2-.5-2.4-1.1-2.6-.5-.2 1.9-4.7 5.5-10s7.4-11.4 8.5-13.5l2.1-3.8-.5 3.5c-1.6 12.8-1.6 13-.2 12.5.7-.3 2.4-2.7 3.6-5.3 2.3-4.6 2.3-4.6 3.5-2.3 1.1 2 1.4 2.1 1.9.6.4-.9.7-3.6.7-6 0-2.3.7-6.2 1.6-8.6.8-2.4 1.8-8.7 2-13.9.5-8.2.2-10.7-2.1-18.5-1.4-5-3-11.7-3.5-15-1.7-11.7-8.8-27.6-15.1-33.7-1.7-1.7-1.7-2.1.2-8.7 4.1-14.4 5.5-17.5 8.2-18.9 3.1-1.5 3.1-1.8 1.5-7.2-1.4-4.4-2.3-4.8-4.9-2.4-2.3 2.1-3.2 1.4-6.5-4.7-1.8-3.3-3.2-4.8-4.2-4.4-.8.3-3.4-.2-5.8-1-3-1-8.4-1.5-16.4-1.5h-11.9l-16-8.1c-13.5-6.8-17.1-9.2-17.1-11.4 0-.2 2.3.3 5 1 5.8 1.5 16.8 6.5 21.1 9.5 1.7 1.3 2.9 1.7 2.9.9s.3-.9 1.3 0c.8.6 1.7.8 2 .4.4-.3 2.5.6 4.7 2.1 2.2 1.4 4.2 2.6 4.4 2.6 1.3 0 2.8-8.2 3-15.7l.1-8.6-3.2-1.8c-4.4-2.5-14.1-4.9-19.9-5-7.3 0-11.9-1.2-11.9-2.9 0-1.2-1.5-1.4-8.1-1.2-9.1.4-9.1.4-11.9-7.3-2.3-6.5-3.2-7.4-4.4-4.4m77 209.6c-1.2 2-1.4 1.4-.5-1.2.4-.9.9-1.4 1.1-1.1.3.2 0 1.3-.6 2.3M88 338.5c-17.9 2.3-34.5 4.5-37 4.8s-10.3 1.3-17.5 2.2c-12 1.4-22.1 2.8-30.2 4.1l-3.3.5V384l131.8-.1c72.4 0 131.3-.2 130.7-.5-.9-.4-57.2-15.3-79-21-5.5-1.4-13.6-3.8-18-5.2l-7.9-2.7-1.8-5.9c-1-3.3-2.6-6.8-3.5-7.8s-5.2-2.9-9.5-4.3c-10.5-3.3-15.3-3.2-54.8 2"/></svg>