<svg xmlns="http://www.w3.org/2000/svg" width="682.667" height="512" version="1.0" viewBox="0 0 512 384"><path d="M446 13.5c-.5 1.4-1.3 3.7-1.6 5-.7 2.7-1.9 3.3-2.7 1.2q-.6-1.5-.6 0c-.1 1.8-2.1 1.6-2.1-.2 0-2.6-1.9-1.6-2.6 1.2-1.1 4.6-2.3 5.3-8.5 5.3-6.3 0-10.9 1.3-10.9 3.1 0 1.3 4 4.8 5.5 4.9.6 0 2.7 1.4 4.7 3 3.3 2.7 3.6 3.4 2.8 5.6-1.3 3.3-1.3 5.7.1 4.9 1.3-.9 5.9-1.4 5.9-.7 0 .2-.5 2.2-1.2 4.4-.8 2.7-.8 4.2-.1 4.6 1 .7-8.9 16.5-19.5 31-2.9 4-5.8 8.4-6.4 9.7-.9 1.9-1.6 2.3-3.5 1.9-1.3-.4-3-.1-3.8.6s-3.3 1.3-5.5 1.4l-4 .1v4.5c0 2.5-.4 5-.8 5.6-1.3 2-5 3.4-9.1 3.4-4.4 0-5.4 1.7-2.6 4 2.3 1.9 1.8 3.3-1 2.8-1.4-.3-2.7-.3-2.9.1-.2.3 3.9 3.7 9.1 7.6C396 136.9 407 146 407 146.9c0 .4-.6 3-1.4 5.7-4.1 14.5-4.5 30.8-1.1 43.6 2.1 7.8 10.2 25.1 11.4 24.3.6-.3 1.8.6 2.7 2 .9 1.3 2 2.2 2.5 2 .4-.3 1.6.6 2.5 2s2.2 2.5 2.9 2.5c.8 0 2.4 1.2 3.6 2.8 1.7 2 2 2.2 1.6.7-.5-1.4 0-1.1 1.8 1 2.2 2.6 2.5 2.8 2.6 1 0-1.9.1-1.9.9.1.4 1.2 2.1 3.1 3.6 4.3s2.5 2.3 2.2 2.6c-.7.7-16 3.5-16.7 3-.4-.2-3.6.7-7.2 1.9-7.5 2.8-11.9 3.5-21 3.6-6.1 0-6.7.2-10.5 3.7-3.2 3-5.1 3.9-10.4 4.9-8.9 1.6-13.5 4.5-15.5 9.8-1.5 3.8-2.4 4.7-8.8 7.8-4 1.9-10.2 5.1-14 7.1-3.7 2.1-7 3.7-7.3 3.7-2.2 0-7.7-19.5-10.4-37.2-2-12.8-3.9-17.1-8.2-18.9-3.1-1.3-4.4-5.6-3.5-11.5.5-2.8.3-3.4-1.2-3.4-1 0-2.3-.6-2.9-1.3-1.2-1.4-10.8-1.6-15.4-.3-2.2.6-4.2.1-9.5-2.7-3.8-1.9-7.9-3.8-9.3-4.2s-7.4-3.1-13.5-6.1c-11.8-5.9-22.4-8.5-25.1-6.3-3.2 2.6-1.6 5.5 5.8 10.5 3.9 2.7 7.1 5.4 7.1 5.9 0 1.3-10 7.4-12.1 7.3-1 0-8 .4-15.7 1.1-7.7.6-17.5 1.1-21.7 1.1-8.9 0-12.2 1-13.9 4.2-1 1.9-.9 2.4.6 3.3 1 .5 2.8 2 4 3.2 2.1 2.1 9.4 4.6 17.4 5.8 2.4.4 7.6 1.8 11.5 3.2 3.9 1.3 9.3 2.8 12 3.4 2.7.5 6.3 1.6 8 2.4 2.4 1.2 19.4 4.5 23.3 4.5.5 0 1.7 2.1 2.7 4.8 1.1 2.6 3.7 7.4 5.8 10.8 6.6 10.5 11.7 23.6 20.8 53.2 1.2 4 3.4 8.5 4.9 10 4.8 5.2 23.2 10.8 31.5 9.6 10.5-1.5 26.2-6.8 48.9-16.6l11.9-5.1h13.6c12.8 0 14 .2 18.9 2.6 6.1 3.2 6.5 4 9.3 22.4 2.1 13.5 3.4 19.9 6.8 33.3l1.9 7.5 38.1.3 38.2.2V224.5c0-127-.3-159.5-1.2-159.4-.7 0-2.2.4-3.3.8-2.2.9-7.3-1.1-24.5-9.4-5.8-2.8-12.1-5.7-14-6.5-3.3-1.2-6-3.5-6-5.1 0-.7 3.5.1 13 3 2 .6 6.5 2.9 10.1 5 4.3 2.6 7.5 3.9 9.3 3.7 1.7-.2 4.1.7 6.5 2.4s4.3 2.5 5.1 2c1.6-1 2.9-8.4 2.9-17.6l.1-7.2-6.7-2.7c-5-2-9.9-2.9-19-3.8-10.9-.9-12.3-1.2-11.8-2.8.5-1.4-.1-1.7-3.2-1.6-2.1 0-6.2-.1-9.1-.1l-5.3-.2-3.1-7c-1.7-3.9-3.5-7-4-7s-1.3 1.1-1.8 2.5M168.7 349.6c-.1.1-3.8.4-8.2.7-4.4.4-20.4 2.5-35.5 4.7-15.1 2.3-37.8 5.6-50.5 7.5-44.1 6.5-46.6 7.4-48 16.7l-.6 4.8h110.5c60.8 0 110.6-.2 110.6-.4s-3.3-1.2-7.2-2.1c-6.8-1.6-11.4-2.8-27.3-7.2-10.1-2.8-11.1-3.5-13.5-10.7-2.3-7.1-3.7-8.4-12-11.1-4.5-1.5-17.5-3.6-18.3-2.9"/></svg>