<svg xmlns="http://www.w3.org/2000/svg" width="682.667" height="512" version="1.0" viewBox="0 0 512 384"><path d="M475 18.1c-1.4 3.5-2.5 4.8-3 3.9-.6-.9-1-.8-1.8.5-.9 1.7-1 1.7-1.7-.4-.9-2.8-2.1-1.9-2.9 2.3l-.6 3.3-8.9.7c-6.6.6-9.1 1.1-9.5 2.3-.9 2.1-.3 2.7 6.9 6.9 6.7 4 7.1 4.7 5.5 10.2l-.9 3.4 2.4-1.6c1.4-.9 2.5-1.2 2.5-.7 0 .6.7.8 1.6.4 1.2-.5 1.5-.2 1.1 1.3-1.6 5.3-1.9 7.7-.9 8.3.6.3-1.7 4.5-5.5 10.1-3.5 5.2-6.7 10.2-7 11-.4.8-2.5 4-4.8 7s-5.4 7.4-6.9 9.7c-1.4 2.4-3.2 4.3-3.9 4.3-.8 0-3.1.9-5.3 1.9-2.7 1.3-4.4 1.6-5.6 1-1.6-.9-1.8-.5-1.8 3 0 5-1.7 8.9-4.3 9.7-1.1.3-4 .8-6.4.9-5.5.4-6 .8-4 3.9 1.9 2.8 1.4 3.6-2.6 3.6h-3l3.9 3.1c2.2 1.7 8 5.9 12.9 9.4 5 3.5 10.7 7.8 12.9 9.7l3.8 3.3-2.1 6.4c-3.5 10.6-4.7 22.6-3.3 33.1.7 5 2 11.2 2.8 13.8 2.8 8.3 10.3 22.2 14.1 26 2.1 2 3.3 3 2.8 2.2s1.2.3 3.8 2.4 4.7 4.2 4.7 4.7.6.6 1.3.3c.8-.3 1.9.2 2.6 1s1.8 1.3 2.5 1c.8-.3 1.6.2 2 1.1.3 1 1.3 1.5 2 1.2 1.4-.6 2.6 1.2 2.6 3.8 0 1.2-5.3 2.3-15.2 3-2 .2-4.5.8-5.5 1.3-4.1 2.2-21.7 5.4-26.9 5-5.2-.5-5.5-.3-9.7 3.7-3.4 3.4-5.2 4.3-9.2 4.8-7.9 1.1-13.1 4.1-15.5 9.2-2.5 5.2-2.3 5-13.5 11-4.9 2.7-10.5 5.7-12.4 6.7-2.7 1.5-3.6 1.7-4.2.6-1.9-3-7-24.2-8.5-35.3-1.9-14.4-3.2-17.9-7.7-20.5-4-2.4-5.4-6.9-3.7-11.5.6-1.5.9-2.8.8-2.9-.2 0-2.3-1.1-4.7-2.3-3.2-1.7-4.8-2-6.2-1.3-1 .6-3.6.8-5.8.4-2.1-.3-4.7-.2-5.7.4-1.4.8-3.5.1-9.6-2.9-4.3-2.1-8.4-3.9-9.2-3.9s-5.5-2.1-10.3-4.6c-9.5-5.1-19-8.7-20.4-7.8-.5.3-2.6 0-4.6-.5-3.3-.9-4-.8-5.7.9-2.9 2.9-1 5.6 8 11.3 4.1 2.6 7.3 5.1 7 5.6-.4.5-2.7 2.1-5.2 3.6-5.3 3.1-9.7 3.8-36.3 6-10.6.8-19.7 1.8-20.2 2.1s-1.6 1.9-2.5 3.6c-1.5 2.9-1.5 3.2 0 4.4 1 .7 5.9 2.2 10.9 3.4 5.1 1.2 16.2 4.2 24.7 6.6 25.2 7 31.2 8.4 37.8 9.1 5.5.5 6.2.8 6.2 2.7 0 1.2 2.3 6.2 5.1 11.1 9 15.6 14.6 30 20.5 52.5 3.2 12.4 5 15.3 11.2 18.4 9.9 4.9 17.9 6.9 26.1 6.4 10.7-.7 32.4-8.1 56.6-19.3 6.8-3.1 7.5-3.2 16.7-2.7 5.6.3 10.9 0 12.7-.6 2.7-1 3.8-.7 9.6 2.6 6.1 3.4 6.7 3.9 8 8.7.8 2.7 1.9 8.4 2.5 12.5 1.7 12.1 3 19 5.2 27.3l2 7.7H512V58l-4.7-2.3c-2.7-1.4-6.4-3-8.5-3.6-3.5-1.1-5.6-3.5-4-4.5.7-.4 10.6 2.7 15.5 4.8 1.6.8 1.7-.1 1.7-10.3V31h-5.2c-4 0-4.9-.3-4-1.2 2.4-2.4 1.1-3-6-2.3-10 .9-11.5.2-14.6-7.5-1.5-3.5-3.2-6.5-3.8-6.7s-2.1 2-3.4 4.8M194.8 357.5c-.2.1-4.3.5-9.3.8-4.9.3-12.8 1.3-17.5 2.1-7.6 1.4-22.1 3.7-51.5 8.2-48.4 7.5-63 10.6-64.6 13.6-.9 1.7 2.2 1.8 91.8 1.7 81.2-.1 92.4-.2 89.3-1.5-7.5-3-8.4-3.8-10.7-9.9-1.3-3.3-3.1-6.7-4.1-7.6-2.5-2.5-22-8.6-23.4-7.4"/></svg>