<svg xmlns="http://www.w3.org/2000/svg" width="682.667" height="512" version="1.0" viewBox="0 0 512 384"><path d="M505 35.5c-1.5 1.8-.6 3.2 3.9 5.8l3.1 1.8v-4.5c0-4.4-.1-4.6-2.9-4.6-1.6 0-3.4.7-4.1 1.5m3.5 55.4c-5.2 7.6-5.9 8.7-8.9 13.4-2.6 4-3.3 4.5-6 4.2-4.1-.5-6.4 1.7-7.2 7.2-1 7.1-3 8.7-11.3 9.1-7.4.4-8.2 1.1-5.6 4.6 1.4 1.8 1.3 2.1-1.6 3.3-1.7.7-3.6 1-4.3.6-.6-.4-.6 0 .2.9.7.9 4.8 4 9 6.9 10.6 7.3 22.2 16.8 22.2 18.2 0 .7-.8 3.6-1.9 6.4-4.1 11.4-5.1 32.1-2 43.8 1.5 5.6 8.6 19.9 11 22 1 1 1.9 2.4 1.9 3.2 0 .7.5 1.3 1 1.3.6 0 1 .6 1 1.2.1 1.5 4.9 7.2 5.6 6.6.2-.3.3-35.8.2-78.9l-.3-78.4zM316 212.1c-1.9 3.4.1 5.8 9.2 11.4 4.5 2.8 8.2 5.4 8.2 5.9.1.5-2 2.2-4.7 3.9-5.4 3.3-8.6 3.8-37.3 6.1-13 1.1-19.4 2-21 3.1-2.8 1.8-2.8 1.4-.9 5.3 1.7 3.4 4.9 4.6 21.2 8.1 4.9 1.1 12.2 2.9 16.3 4.1 13.5 3.8 32.4 8.8 37.8 10 2.8.7 5.2 1.7 5.2 2.3s2.9 6.9 6.5 14.1c7.1 14.3 12.6 30.1 17.5 50.1 4.6 18.7 5.9 20.2 21.7 25.6 9.9 3.3 16.5 3.7 25.6 1.3 10.2-2.6 33-11.7 49.8-19.8 6.4-3.1 8-3.5 10.3-2.6 3.6 1.3 13.1 1.2 18.1-.4 3.6-1.1 4.4-.9 8.3 1.2l4.2 2.4V304c0-37.9-.1-40.2-1.7-39.5-4.5 1.9-24.2 5.2-28.9 4.8-5.1-.5-5.2-.4-8.9 4-3.4 4.1-4.5 4.7-10.4 5.8-5.3 1.1-7.3 2.1-10.2 5-2 2-4 5.1-4.4 6.7-.5 2.5-1.9 3.7-7.8 6.8-4 2.1-9.4 5-12 6.6-2.6 1.5-5 2.8-5.2 2.8-.8 0-3.6-8.9-5-16-.9-4.1-2.2-13.2-3-20.3-1.6-14.5-2.6-17.2-7.5-20.5-4.4-2.9-5.4-6.4-3.6-11.9 1.4-4.2.8-6.2-1.5-4.7-.6.3-2.3-.3-3.8-1.3-3-2.3-12.5-2.8-17.7-1.1-2.7 1-3.9.6-10.9-3.1-4.3-2.2-8.6-4.1-9.5-4.1s-6.6-2.4-12.6-5.3c-12.8-6.3-15.8-7.3-24.1-8.2-5.7-.5-6.3-.4-7.3 1.6m-96 163.8c-10.5 1.9-29.9 5.5-37.5 7.1-2.3.4 14.1.8 40 .9l43.9.1-2.1-2.1c-1.1-1.1-5.4-3.2-9.4-4.6-9.8-3.4-21.1-3.8-34.9-1.4"/></svg>