<svg xmlns="http://www.w3.org/2000/svg" width="682.667" height="512" version="1.0" viewBox="0 0 512 384"><path d="M390.5 226.3c-1 3.9.5 5.6 10.6 11.6 5.1 3.1 9.2 6 9.1 6.6-.1.5-1.8 2.2-3.9 3.8-4.6 3.3-8.6 4-35 6.3-18.9 1.6-26.3 3.1-26.3 5.3 0 .5 1.5 2.4 3.3 4.1 3.6 3.5 14.8 7.4 24.2 8.5 3.3.3 10.5 2.2 16.1 4.1 5.5 1.9 11 3.4 12.2 3.4s6.3 1.3 11.4 2.9 10.8 3.2 12.6 3.7c3 .8 3.7 1.9 9.1 13.9 5 11.3 7.6 18.4 12.1 33 .5 1.6 2.1 8.7 3.5 15.7 4 19.7 4.9 22.1 9.9 26.5 7.2 6.2 14.1 8.3 28 8.3 9.6 0 12.9-.4 18.2-2.2l6.4-2.3v-30.7c0-17-.1-30.8-.3-30.8-.1 0-2 .9-4.2 2-5.1 2.6-6.9 2.5-8.3-.3-1.7-3.4-4-17.7-5.2-32-1.2-15.5-3.7-21.2-10.1-23.2-2.3-.8-2.6-6-.5-8.8 2.2-2.9.6-7-3.1-7.8-1.6-.3-3.6-1-4.4-1.5-2.9-1.7-13.2-2.3-16-.8-2.4 1.2-3.3 1.2-7-.2-2.4-.8-5.9-2.4-7.9-3.6-1.9-1.1-6.6-2.9-10.5-4-3.8-1.1-8-2.6-9.2-3.4-6.6-4.2-21.1-9.6-27.5-10.1-6.5-.6-6.7-.5-7.3 2"/></svg>