<svg xmlns="http://www.w3.org/2000/svg" width="682.667" height="512" version="1.0" viewBox="0 0 512 384"><path d="M444.4 235.7c-1 3.8.3 5.2 10.2 10.9 13.3 7.7 13.2 7.6 5.9 11.8-4.9 2.9-14.9 4.4-41.6 6.5-20.4 1.5-23.3 3.8-13.1 10.3 6.6 4.2 13.7 6.5 24.8 7.8 4.4.5 11.3 2.3 15.6 4 4.2 1.6 10.9 3.4 14.8 4s8.4 1.7 9.9 2.5c1.5.7 4.9 1.9 7.4 2.6 5.3 1.3 6 1.9 7.7 7.4.7 2.2 2.3 6 3.6 8.5 6.3 12.4 10.9 28.1 15.8 53.7 2.6 13.1 4.2 18.3 5.8 18.3.4 0 .8-28.8.8-64 0-54.8-.2-64-1.4-64-.8 0-4.5-1.6-8.3-3.6-3.7-2-9.9-4.5-13.6-5.5-3.8-1.1-10.3-3.7-14.6-5.9-10.4-5.2-19-8-24.5-8-4.1 0-4.6.3-5.2 2.7M219 365.7c-19.3 1.8-36.8 7.7-46.5 15.8l-3 2.4 85.8.1c47.1 0 85.7-.2 85.7-.4s-2.8-2.2-6.2-4.4c-7.8-5.1-16.9-8.6-27.9-10.7-12.5-2.4-72.3-4.3-87.9-2.8"/></svg>