<svg xmlns="http://www.w3.org/2000/svg" width="682.667" height="512" version="1.0" viewBox="0 0 512 384"><path d="M100.6 2.1c2.2 2.5 7.7 6.3 14.7 10.2 4.1 2.3 5.7 2.6 9.5 2.1 3.1-.4 4.7-.2 5.3.7.5.8 4.5 1.6 11.6 2.1 5.9.4 13.1 1.2 15.8 1.8 2.8.6 6.2 1.3 7.8 1.7 1.6.3 4.2-.2 6.3-1.2 4.5-2.1 8-.9 13.9 4.5 2.2 2.1 5.5 4.1 7.5 4.4 8 1.6 24.9 3.6 30.7 3.6 3.4 0 6.5.5 6.8 1 .4.6 1.1.7 1.7.4 1.8-1.1-.1 1.4-4.7 6.5-2.3 2.5-7.9 8.9-12.4 14.1-4.6 5.2-12.4 13.9-17.4 19.4-5 5.4-10.5 11.6-12.2 13.7-1.6 2-7.9 8.1-14 13.4-6 5.3-11.1 10.1-11.3 10.6s-1 .9-1.7.9c-.8 0-1.8.6-2.2 1.4s-3.7 3.8-7.3 6.6c-3.6 2.9-8.1 6.6-10 8.4-1.9 1.7-6.6 5.7-10.5 8.9-11.4 9.4-22.6 19-26.4 22.6-1.9 1.8-4.5 4-5.8 4.8-1.4.9-2.3 2.5-2.3 4 0 1.3-.4 3.2-.9 4.1s-1.4 7.9-2.1 15.6l-1.2 13.8 3.4 3.5c1.8 1.9 4.9 4.5 6.8 5.8 1.9 1.2 5.4 4.1 7.8 6.5 2.3 2.3 4.2 3.9 4.2 3.6s3.8 2.4 8.3 6.1c14.3 11.6 31.3 24.3 32.5 24.3.5 0 4.5 2.9 9 6.4 4.4 3.5 9.8 7.4 11.9 8.6 4.9 3 17.7 11.3 18.3 12.1.9 1 12.4 7.6 23 13.2 19.7 10.5 36 15.2 49.8 14.5 8.3-.5 16.2-2.9 16.2-5 0-.4.7-.8 1.5-.8 1.7 0 11.5-11.5 11.5-13.5 0-.7.6-2 1.3-2.7 2.2-2.2 8.4-21.3 12.2-37.3 5.2-22.4 6.3-26.1 9.2-32.2 3.2-6.5 11.1-14 15.7-14.9 5.1-.9 13 2.9 16.5 8 5.7 8.3 5.7 7.8-.1 14.1-3.6 4-4.8 5.9-3.9 6.4.9.6.3 2.5-2.3 7.5-4.7 8.9-4.8 10.8-.4 8.5 3-1.6 6.1-5.1 9.9-11.4 4.1-6.6 7.1-8.2 16.9-9l7.5-.7 8.8 6.2c4.9 3.4 9.1 6.8 9.4 7.6.8 2.2-6.1 22.2-11.1 32.3-4.5 9-5.9 12.9-10 27.1-1.3 4.7-4.6 14.6-7.4 22-7.3 19.4-8.6 27.1-7.9 44.9.4 8 .9 15.8 1.3 17.3l.6 2.8H512V213.9c0-135.8-.3-169.9-1.2-169.2-1.9 1.2-8.1 3.3-9.9 3.3-.8 0-8 2.9-16 6.5-7.9 3.6-15 6.5-15.6 6.5-.7 0-1.3.4-1.3.9s-1.9 2.9-4.2 5.4c-5.6 5.8-9.4 12.1-13 21.5-2.8 7.5-2.8 8.2-2.6 23.5.3 18.1.5 17.7-8.3 17.7-6.7 0-6.9.3-6.9 9.7 0 3.6-.7 8.6-1.5 11.2-.8 2.5-2.1 8-2.8 12.1-.8 4.1-2 8.8-2.7 10.5-1 2.6-.9 3.7 1 7.8 1.9 4.3 2.9 5.1 10 8.7 4.4 2.2 8.4 4.9 9 6s.8 2 .5 2c-.4 0 .3 1.5 1.4 3.4 1.6 2.5 2.1 5 2.1 9.8 0 7.4-.9 12.8-2 12.8-.5 0-3.7-3.5-7.2-7.8-3.6-4.2-11.5-12.6-17.6-18.6-6.2-6-11.2-11.7-11.2-12.6s.9-3.5 2-5.8c1.1-2.2 2-6.1 2-8.6 0-3.6-.5-4.8-2.6-6.5-3.9-3-10.9-4.9-21.1-5.4-9.5-.6-11.5-1.3-19.3-6.9-2.5-1.8-10.1-7.3-17-12.2-12.4-8.8-20-15.2-20-16.9 0-.4-2.6-5.4-5.9-11-3.2-5.6-8-14.3-10.6-19.2-8.3-15.7-31.7-58.9-33.6-62-1-1.7-3.2-5.8-4.8-9.3l-3-6.4-6.4.7-6.3.7-8.4-8.1-8.5-8.1H98.7zm19.9 9.9c.3.5.1 1-.4 1-.6 0-1.1-.5-1.1-1 0-.6.2-1 .4-1 .3 0 .8.4 1.1 1"/></svg>