<svg xmlns="http://www.w3.org/2000/svg" width="682.667" height="512" version="1.0" viewBox="0 0 512 384"><path d="M469 239.6c-2.2 4.1-.7 5.6 15 14.7 3 1.8 5.5 3.9 5.5 4.7s-1.8 2.7-4 4.2c-3.4 2.4-5.8 3-16 4.2-6.6.8-16 1.7-21 2.1-19.3 1.3-23.5 2.2-23.5 5.3 0 1.2 2.3 3.2 7.3 5.9 8.9 5.1 11.9 6 23.2 7.3 5.8.6 11.7 2.1 16.4 4 4.1 1.7 10.9 3.5 15 4.1s8.9 1.8 10.6 2.7c1.6.8 4.8 2.1 7 2.7 3 .9 4.5 2 5.7 4.6 1.8 3.3 1.8 2.6 1.8-25.9 0-20.6-.3-29.2-1.1-29.2-.6 0-6.3-2.5-12.8-5.5-11.1-5.2-21.1-8.5-25.6-8.5-1.3 0-2.7 1-3.5 2.6m-262.5 58.8c-30.9 5.1-55.9 23.5-66.1 48.8-3.6 8.6-6.4 22-6.4 29.8v7h241.8l.6-3.5c1.7-8.8-2.3-26.6-8.7-38.9-3.3-6.4-6.4-10.3-14.7-18.6-9.2-9.3-11.7-11.2-20-15.2-16.8-8.2-26.5-9.4-82-10.2-27.6-.4-38.5-.2-44.5.8"/></svg>