<svg xmlns="http://www.w3.org/2000/svg" width="682.667" height="512" version="1.0" viewBox="0 0 512 384"><path d="M211 238.6c-1.4.3-6.3 1.2-11 2.1-17.9 3.3-32.9 10.5-44.1 21-9.1 8.7-13.8 15.9-18 27.9-3.4 9.8-3.4 10-3.4 27.9 0 15.5-.3 18.5-1.8 21.4-1.3 2.3-1.7 4.4-1.3 6.6.8 4.1.3 4.5-11.9 9-14.2 5.2-36.8 16.3-47.1 23.1l-8.9 5.9 96.2.3c53 .1 139.6.1 192.5 0l96.3-.3-8-5.3c-10-6.6-29.9-16.7-43-21.8-8.6-3.3-10.9-4.8-16.4-10-6-5.9-6.3-6.4-5.8-10 1.8-11.8 1.8-29.4.2-37.5-3.1-15.6-12.9-31.4-25.8-41.5-15.9-12.4-28.3-15.9-61.7-17.4-27.4-1.2-73.7-2-77-1.4m281 5.4c-2.2 4.2-.2 6.2 14.2 14.3 2.6 1.5 4.9 2.7 5.3 2.7.3 0 .5-3.5.3-7.7l-.3-7.7-5.5-1.8c-7.8-2.4-12.7-2.3-14 .2m15.7 25.1c-3.7 2-17.8 4-37.2 5.4-4.9.3-10.8.9-13 1.2s-4.6.6-5.2.6c-1.8.1-4.6 3.4-3.9 4.6.9 1.4 15 9.1 18.8 10.2 1.8.5 7.4 1.4 12.3 1.9 5.8.7 11.6 2.1 16.2 4 4 1.7 9.3 3.3 11.8 3.7l4.5.6v-17.2c0-9.4-.1-17.1-.2-17.1-.2.1-2 1-4.1 2.1"/></svg>