<svg xmlns="http://www.w3.org/2000/svg" width="682.667" height="512" version="1.0" viewBox="0 0 512 384"><path d="M197 216.1c-12.1 2.7-17.4 4.6-27 9.5-14.3 7.3-21.5 14.5-28.4 28.2-7.7 15.4-9.9 35.8-5.1 48.9 3.5 9.8 3.1 10.2-13.6 13.5-25.7 5.2-51.9 15.6-69.9 27.7-10.6 7.2-22.4 19-24.5 24.5-1.6 4.1-1.6 4.5.1 7.7 1 1.9 1.7 4.4 1.5 5.6l-.2 2.3h452l-.4-2c-.2-1.1.5-3.6 1.7-5.6 2-3.3 2-3.6.4-7.9-3.9-10.2-22.9-25.4-45.9-36.7-14.1-7-51.6-17.8-61.5-17.8-1.2 0-2.7-.9-3.6-2.1-1.3-1.9-1.2-2.8 1.1-8.8 3.4-9 4.1-21.1 1.8-31.7-5.7-26.4-27.7-47.8-54.8-53.5-10.9-2.3-47.9-3.9-88.7-3.8-22.3.1-27.8.4-35 2m294.5 63.4c-15.8 1.3-20.5 2.6-20.5 5.7 0 1 .4 1.8.8 1.8.5 0 3.8 1.8 7.5 4 7.3 4.4 14.4 6.5 25.5 7.5l7.2.7V278l-2.7.1c-1.6.1-9.5.7-17.8 1.4"/></svg>