<svg xmlns="http://www.w3.org/2000/svg" width="682.667" height="512" version="1.0" viewBox="0 0 512 384"><path d="M234 205.9c-32.5.6-36.3.9-45 3-25 6.1-39.4 18-46.9 38.7-4.2 11.6-6.4 23.4-6 32.8l.4 8.1-6.5.7c-26.5 2.9-40.7 6-57.2 12.3-10.6 4.1-21.7 10.7-26.7 15.9-3.1 3.2-3.6 4.5-4.2 10.7-.5 4-1.3 7.7-1.9 8.3-.5.5-1 1.5-1 2.1 0 1.7 6 8.4 9.6 10.9 10.7 7.2 15.2 10.2 17.6 11.6 9.8 5.6 20.9 11.6 31.3 16.9l11.9 6.1h166.2c150.5 0 166.3-.1 167.5-1.6.8-.9 1.5-5.6 1.8-11.7.3-5.6 1-10 1.5-9.9.5.2 1.3-.3 1.8-1.2s1.4-1.6 1.9-1.6c1.4 0 17.9-12.3 20.1-14.9 1-1.2 1.5-2.1 1.1-2.1s-.2-.5.4-1.1c1.1-1.1 0-6.3-1.8-8.3-.4-.5-.5-2.2-.2-3.7 1.3-6.4-2.2-11-14.2-18.4-16.4-10.2-44.2-18-72.3-20.1-5.1-.3-9.5-1-9.7-1.5-.3-.4-.1-2.8.5-5.2 1.9-8.7-1.8-28.1-7.6-40.3-8.3-17.2-26.7-30.6-47.9-35-8.7-1.9-36.5-2.3-84.5-1.5m198.6 164.4c-.8 3.2-6.1 8.6-10.2 10.3-3.9 1.6-12 1.9-12.9.4-.3-.6.3-1 1.4-1 1.2 0 2.1-.4 2.1-.9 0-.9 6-3.7 7.3-3.3.4.1.7-.1.7-.5 0-.5 2.5-2.1 5.5-3.8 3-1.6 5.5-3.4 5.5-3.9s.3-.7.6-.3c.4.3.4 1.7 0 3m72.7-85.2c-6.9.7-11.9 2.4-12.7 4.4-.5 1.5 2 3.2 12.2 8.6 3.4 1.7 6.5 3 6.8 2.7.2-.3.4-4.1.2-8.4l-.3-7.9z"/></svg>