<svg xmlns="http://www.w3.org/2000/svg" width="682.667" height="512" version="1.0" viewBox="0 0 512 384"><path d="M228 167.6c-21.3 2.6-33 6-43 12.4-8.3 5.3-19.5 18.1-23.6 26.8-1.9 4.3-3.9 8.4-4.3 9.2-.7 1.2-4.6 1.6-21.7 2.1-26.4.8-42.7 4-56.5 10.9-6.6 3.4-8.4 5.8-9.7 13.1-.6 3-1.5 6.7-2.1 8.3-.7 1.6-.8 3.3-.3 4 .5.6 1.4 2.6 2 4.4C71.3 266.2 86 284 99.5 296c10 8.8 11.7 10.3 20.5 17.6 13.6 11.4 12.7 9.2 9.5 23.6-1.5 6.8-3.4 14.1-4.2 16.3-2.5 6.9-2.7 7.9-1.5 7.1.8-.5 1.2.2 1.3 2.1v2.8l1.7-2.4c.9-1.3 3.4-5.6 5.5-9.5l3.8-7.1-.5 9.1c-.3 5-1.5 12.1-2.7 15.9-1.5 5.1-1.9 7.7-1.2 9.9l.9 3.1 5.3-8.8c2.9-4.8 5.7-8.5 6.2-8.2.5.4.9 4.2.9 8.6v7.9h229.9l.3-14.3.3-14.2 2.9 8.8c3.2 9.8 9.6 19.7 12.7 19.7 1.4 0 1.9-.7 1.9-2.5 0-1.6.6-2.5 1.5-2.5 1.9 0 1.9-.3-.4-4.8-3.1-6.2-5.1-12.9-9.2-31.6-2.2-9.8-4.2-18.2-4.4-18.6-.3-.5 1-2 2.7-3.5 1.8-1.4 5.3-4.3 7.7-6.3s5.4-4.3 6.5-5.1c1.2-.8 2.5-2.1 2.9-2.8 1.4-2.3 3.6-1.4 5.6 2.5 1.1 2.1 3.7 5.5 5.8 7.6 3.1 3 4.4 3.6 7.3 3.4 3-.3 3.5-.7 4.3-3.8.5-1.9 1.6-5.8 2.5-8.7 1.5-5 1.5-5.4-1-13l-2.6-7.8 3.4-3.3c2.9-2.8 10.1-11.7 12.6-15.6 3.3-5 6.7-11.9 6.3-12.6-.3-.5-.1-1.1.4-1.5.6-.3.5-2-.3-4.3-.8-2-1.7-5.7-2.1-8.2-1-6.2-2.7-8.3-9.3-11.8-13.4-7.1-35.9-11.2-62.1-11.2H354l-3.4-6.8c-6.7-13.2-20.1-25.7-35.1-32.7-15.9-7.5-32.7-10.4-63-10.9-11.5-.3-22.6-.2-24.5 0"/></svg>