<svg xmlns="http://www.w3.org/2000/svg" width="682.667" height="512" version="1.0" viewBox="0 0 512 384"><path d="M233.5 164.1c-26.2 3.5-45.6 14.1-57.4 31.3l-3.1 4.4-6.2-2c-10.9-3.3-24.2-4.8-44.3-4.8-18 0-19.3.1-24.2 2.4-2.8 1.4-5.9 3.6-6.9 5.1-4.5 6.8.9 27.4 12.3 46.9 6.1 10.4 10 16.4 11.3 17.6.3.3 3.2 4.1 6.4 8.5 3.3 4.4 8.6 11.3 11.8 15.3l5.9 7.3-2 6.2c-1.1 3.4-2.7 8.9-3.6 12.2-.9 3.2-2.8 8.1-4.1 10.7s-2.2 4.8-1.9 4.8c1.7 0 7.2-7.8 11.2-16 5.3-10.8 5.1-10.5 5.9-9.8.3.3-.1 3.2-.9 6.4-.8 3.3-2 10.2-2.6 15.4-.7 5.2-2.6 13.5-4.2 18.3-1.7 4.9-2.9 9.3-2.7 9.9s3.5-2.5 7.3-7c8.7-10.2 9.4-9.6 7.2 6.7-.9 6.4-1.9 14.7-2.2 18.6-.3 3.8-.8 8-1.1 9.2l-.4 2.3h227.2l-.6-5.7c-2-17.1-2-16-.2-13.8 1.6 1.9 1.7 1.7 1.1-4.4-1-9.9-2.5-34.1-2.4-39.1v-4.5l2.4 6.8c1.3 3.7 4 9 6 11.7 3.7 5 11.1 12 12.8 12 .4 0-.5-2.4-2.2-5.3-1.6-2.8-4.6-10.8-6.6-17.7s-4.8-16.2-6.2-20.7l-2.6-8.1 10.3-13.4c5.7-7.3 10.5-13.5 10.7-13.7.2-.3 1.8.9 3.6 2.6 5 4.7 11.8 9.3 13.9 9.3 1 0 2.7-.9 3.9-2.1 1.8-1.8 2-2.8 1.4-6.7-.9-6.1-3.7-13.4-7-18.4l-2.7-4 3-6.2c8.3-16.8 11.1-25.3 11.5-34.6.3-6-1.9-9.1-8.4-12.4-5.2-2.5-5.8-2.6-24.3-2.6-21.2 0-34.5 1.6-45.7 5.3l-7.2 2.4-6-6.3c-14.1-15.2-32.6-24.6-56.5-28.9-10.9-2-31.5-2.7-40.7-1.4m172.3 99.8c3.1 5.3 1.7 4.8-2.9-1-2.5-3.1-2.8-4-1.5-3.8 1 .2 3 2.4 4.4 4.8"/></svg>