<svg xmlns="http://www.w3.org/2000/svg" width="682.667" height="512" version="1.0" viewBox="0 0 512 384"><path d="M233 171.6c-27.5 4.7-44.5 13.9-55.7 30.1-2 2.9-3.9 5.3-4.2 5.3s-2.8-.7-5.5-1.5c-11.6-3.5-49.7-7.5-56.5-5.8-8.7 2.1-11.3 9.5-8.7 24.7 1.5 9.3 7.2 25.9 12 35.5 2.3 4.5 2.6 5.8 1.7 7.8-.6 1.3-1.1 3.1-1.1 4 0 1.7 4.3 7.4 12.5 16.3 2.8 3 6.5 8 8.2 11l3.2 5.5-3 10c-1.6 5.5-3.4 12-3.8 14.5-.5 2.5-1.6 6.3-2.5 8.5l-1.7 4 3.6-4c1.9-2.2 5.3-7.8 7.5-12.4 2.3-4.6 4.2-8.2 4.4-8 .8.9-3.6 25.9-5.5 31.9-1.2 3.6-2.3 7.6-2.4 9s-.6 3.8-1 5.5l-.8 3 2.8-2.5c1.5-1.4 4.9-5.1 7.6-8.2 2.6-3.2 5.1-5.4 5.4-4.9.3.6-.1 6.5-1 13.3-.8 6.8-1.7 14-1.9 16l-.4 3.8h225.1l-.5-4.5c-.5-3.8-.3-4.4.9-3.4 1.1 1 1.3.6.9-2.7-.7-4.9-1.4-16.5-2.1-31.9-.4-9.5-.3-11.5.6-9.5 5.7 12.3 7.9 16.1 11.9 20.1 2.6 2.5 5.7 5.2 6.9 5.8l2.2 1.2-1.6-3.2c-.9-1.7-1.9-4.3-2.1-5.8-.3-1.4-1.5-5.1-2.8-8.1-1.4-3-3.6-10-5.1-15.5-1.4-5.5-3.5-13-4.7-16.7l-2-6.6 6.1-10.1c3.3-5.5 6.1-10.4 6.1-10.8 0-.5.7-1.6 1.5-2.6 1.3-1.8 1.5-1.8 5.7 1 8.3 5.5 12.6 6.5 17.7 3.9 8.4-4.4 6.2-19.6-4.5-30.6l-4.4-4.6 2.5-6.4c1.4-3.6 3.5-11.3 4.7-17.2 1.9-9.4 2-11.4.9-16.2-1.3-5.9-3.9-8.7-9.3-10-3.7-.9-33 1.1-43.9 3-4.9.8-11.6 2.4-15 3.5l-6 2-2.2-2.8c-9.5-12.5-28.8-24.6-46.9-29.2-4-1.1-8-2.2-8.8-2.5-4.6-1.6-38.3-3.2-45-2m169.9 91.3c3.3 4.1 6.5 11.7 5.5 13.2-1 1.6-3.5 1-7.8-2-6.8-4.7-7.1-5.3-4.7-10.5 1.1-2.5 2.4-4.6 3-4.6.5 0 2.3 1.8 4 3.9"/></svg>