<svg xmlns="http://www.w3.org/2000/svg" width="682.667" height="512" version="1.0" viewBox="0 0 512 384"><path d="M231.5 192c-14.4 1.9-31.6 8.6-40.5 15.8-5.7 4.6-13.8 13.2-14.6 15.4-.6 2.1-.4 2.1-7.9.2-11-2.9-18.9-4.2-33.1-5.8-13.8-1.5-17.3-1.3-22.2 1.3-2.6 1.4-5.2 9.1-5.2 15.7 0 6.4 3.1 22.8 6.5 34.6 2.3 7.8 2.4 9.5 1.5 15-1.1 7.4-1.2 7.2 12.2 23.9 10 12.5 11.6 15.7 9.9 20.4-1.6 4.6-4.1 14.2-4.7 18.4-.5 3.9-3.1 11.7-4.7 14.1-.5.8 1-.5 3.3-3s5.8-8 7.8-12.3c1.9-4.2 3.7-7.6 3.8-7.4.5.5-3.6 26.2-4.7 29.2-.6 1.6-1.4 5.2-1.9 8-.5 2.7-1.1 5.8-1.5 6.7-.5 1.3-.2 1.8 1.1 1.8 1.8-.1 7.4-5.9 10.5-10.7.8-1.3 1.8-2.3 2.3-2.3.8 0 .1 8.6-1 11.5-.5 1.3 12.6 1.5 111.3 1.5h111.9l-.8-10.8c-.4-5.9-.9-13.3-1.2-16.5-.5-6.8.6-6.6 2.9.6 2.4 7.2 9 16 15.8 20.9l2.7 1.9-1-2.6c-.6-1.4-1.4-3.4-1.9-4.3s-1.1-3.1-1.4-4.7c-.3-1.7-1.7-6.3-3.1-10.3s-3.7-11.7-5.1-17-3.2-11.4-4-13.5L373 324l7.1-13.9 7.2-13.8 4.9 3c3.9 2.4 6.4 3.2 11.4 3.5 6 .4 6.5.3 9.4-2.6 2.8-2.8 3-3.6 3-9.9 0-5.7-.5-7.6-3-11.9-1.6-2.9-5.3-7.2-8.3-9.8l-5.4-4.6 1.8-9.2c1-5.1 2.2-13.1 2.5-17.8.6-7.5.4-9.1-1.5-13.2-2.6-5.3-6.1-7.3-13.1-7.2-9.6.1-34.8 3.7-42.9 6.1-12.6 3.8-12.3 3.8-15.2-.1S316.7 209 315.1 209c-.6 0-1.1-.4-1.1-.8 0-1.9-19.8-10.4-30.5-13.1-15.2-3.8-36.4-5.1-52-3.1m172.9 91.2c2 2.3 3.6 5.2 3.6 6.5 0 2-.5 2.3-3.6 2.3-4.7 0-12.9-5.4-11.9-7.8.4-1 1.1-3.2 1.7-5 .9-3.2.9-3.2 3.7-1.7 1.6.8 4.5 3.3 6.5 5.7"/></svg>