<svg xmlns="http://www.w3.org/2000/svg" width="682.667" height="512" version="1.0" viewBox="0 0 512 384"><path d="M230.8 209c-21.2 3.4-39.7 12.8-49.7 25.3-2.3 2.8-4.5 5.7-4.9 6.4-.6.9-2.8.6-9.1-1.2-8.7-2.6-32.5-5.5-44.3-5.5-10.6 0-12.3 1.3-15.7 11.9-2.4 7.6-.7 19.7 5.5 38.4 3 9.1 3.4 11.3 2.5 13.3-.6 1.4-1.1 4.3-1.1 6.4 0 3.6.8 4.7 9.3 13.3 9.9 10.1 17.2 20.7 16.4 24.2-.9 4.1-7.9 27-9.3 30.3-.8 1.9-1.2 3.7-1 3.9.9 1 7-8.5 11.3-17.5s6.3-11.6 4.3-5.6c-.5 1.6-1.6 7.8-2.5 13.9-.9 6-1.8 12.5-2.1 14.2l-.6 3.3h230.5l-.6-10.3-.6-10.2 2.8 7.1c4 10 6.7 13.4 10.8 13.4 1.8 0 3.3-.3 3.3-.8 0-.4-.9-3.1-2-5.9-1.1-2.9-3.4-10.4-5-16.5-1.7-6.2-4-13.7-5.2-16.5l-2-5.2 3.8-6.4c2.2-3.4 4.5-7.2 5.2-8.2.6-1.1 1.7-3.1 2.3-4.5s1.7-3.3 2.6-4.2c1.5-1.7 1.7-1.7 4.2 0 3.8 2.6 13 6.2 15.9 6.2 3.4 0 8.6-3.4 10.1-6.6 1.5-3.5.5-12.6-2-17.6-2-4-5.4-7.7-10.6-11.8l-3.2-2.5 2.5-9.5c3.4-12.9 4.1-22 2-29.1-2.5-8.4-5-10.3-14.7-10.8-13.6-.6-42.3 3.6-53 7.7-2.3.9-3 .5-8.5-5-8.7-8.9-16.6-14.1-29-19.2-16.5-6.7-26.7-8.7-46.4-9.1-9.1-.2-19.1 0-22.2.5m174.3 93c5.9 7.1 2.7 10.1-6.3 6.1-6.9-3.1-7-3.3-5.7-7.2 1.9-5.6 2.7-6.1 6.1-4.1 1.7.9 4.3 3.3 5.9 5.2"/></svg>