<svg xmlns="http://www.w3.org/2000/svg" width="682.667" height="512" version="1.0" viewBox="0 0 512 384"><path d="M227.2 207.5c-16.2 2.9-28.5 8-38 15.5-5.1 4.1-12.9 13.5-16.3 19.7l-1.6 3-8.9-1.9c-7.4-1.5-12.6-1.8-30.9-1.6-24.4.3-26 .7-30.9 7.1-3.2 4.2-3.4 10.5-.6 19.7 1.1 3.6 2 7.6 2 8.9 0 1.4.4 3.8.9 5.5.6 1.7 1.9 6.1 3.1 9.8 1.2 3.8 2.4 9.6 2.8 13l.7 6.3 8.7 4.5c8.1 4.3 9 5 15.2 13.7l6.6 9.2-3.5 11.6c-1.9 6.4-3.5 12.2-3.5 12.8 0 .7-1.4 4.1-3 7.7l-3 6.5 3.5-3.9c3.7-4.1 10.3-15.8 12.6-22 1.9-5.2 3-4.5 1.4.9-.8 2.4-2.1 9.5-2.9 15.7s-1.8 12.1-2.1 13c-.7 1.7 5.2 1.8 114.9 1.8h115.5l.4-7.8c.2-5.7.5-7.1 1.2-5.3.4 1.3 2 4.6 3.4 7.5 2.4 4.8 2.8 5.1 6.8 5.4l4.3.3-1.6-4.3c-.8-2.4-2.8-9.6-4.5-16.1-1.6-6.4-3.8-14-4.9-16.7-1.1-2.8-2-5.7-2-6.4s2.8-5.1 6.2-9.8l6.1-8.6 4.9 3.4c12.6 8.6 22.9 6.3 24.5-5.4.7-5.5-3.1-13.5-9.1-19l-4.4-4 1.8-3.9c.9-2.1 2.7-5.9 3.8-8.4 3.5-7.6 7.2-21.8 7.2-27.4 0-6-2.6-10.1-8.4-13.3-4.7-2.6-47.9-2.5-58.1.1l-7 1.8-2.5-3.3c-5-6.7-16.8-17.4-23.1-21.1-7.1-4.1-18.8-8.9-27.7-11.2-16.1-4.3-44.9-5.7-60-3m177.9 108.3c1.6 3.1 1.8 4.7 1.1 5.4-1.7 1.7-8-.5-12.2-4.2-1.9-1.8-2.8-3-2-2.7.8.2 2.5.7 3.8 1.1 2.8.9 3-1.2.3-4.5-1.4-1.8-1.6-2.7-.8-4.1 1.1-1.6 1.4-1.5 4.4 1.4 1.8 1.8 4.3 5.2 5.4 7.6"/></svg>