<svg xmlns="http://www.w3.org/2000/svg" width="682.667" height="512" version="1.0" viewBox="0 0 512 384"><path d="M235.5 188.1c-6 .4-13.9 1.2-17.5 1.9-25.4 4.6-43.2 18.4-51.9 40.2l-2.3 5.8-4.2-.8c-8.7-1.5-34.6-.6-47.1 1.7-19.1 3.5-26.9 5.8-30 9.1-2.5 2.7-2.7 3.4-2.2 8.1 1 8.1 10.3 25.9 19.9 38.1 1.6 2 3.5 5.9 4.4 8.7 1.3 4.6 1.8 5.2 5.4 6.2 2.9.9 6.4 3.7 12.7 10.2l11.2 11.2 2.3 2.3-3.6 13.8c-2 7.7-4.8 17-6.2 20.9-1.7 4.8-2 6.5-1 5.5 2.8-2.8 11.5-18.1 13.1-23.1.9-2.7 2.1-4.9 2.6-4.9s.5 1-.1 2.4c-.5 1.4-1.6 8.5-2.5 15.9-.8 7.4-2.1 15.5-2.9 18.1l-1.4 4.6h2.9c2.2 0 3.6-.9 5.8-4 3.1-4.4 3.5-4.3 4.6.8l.7 3.2H373l.1-8.3v-8.2l1.9 5.3c3.1 8.5 5.4 11.2 10.1 11.2 2.1 0 3.9-.2 3.9-.4s-.7-2.3-1.6-4.7c-.8-2.4-3-11.2-4.9-19.4-1.9-8.3-4.3-17.5-5.4-20.6l-1.9-5.7 3.3-3.2c3.4-3.3 3.4-3.3 6.8-1.6 9.3 4.4 14.4-.2 15.4-14.1.6-7.6.6-7.6 7-15.2 13.4-15.9 23.8-34.3 25-44 .5-4.3.2-5.1-2.3-7.9-3.4-3.6-10.8-6.1-27.1-9.1-22.4-4.1-39-4.9-50.3-2.5-2.2.4-2.9-.2-6-6.2-6.9-13.2-21.2-25.6-36.9-31.9-17.7-7.2-49-11.2-74.6-9.4"/></svg>