<svg xmlns="http://www.w3.org/2000/svg" width="682.667" height="512" version="1.0" viewBox="0 0 512 384"><path d="M221.4 189.4c-26.9 4.4-43.5 16.1-53.9 38.1-1.6 3.3-3 6.2-3.1 6.4-.2.1-5.9-.3-12.8-.9-14.2-1.4-31.2-.3-49.6 3.2-24.3 4.6-27.6 7.6-23.4 21.9 2 6.8 7.8 16.9 16.5 28.4 8.8 11.6 10.3 13.2 27.1 30.2l14.1 14.2-2.8 9.8c-1.5 5.4-3.4 12.3-4.1 15.4s-2.5 8.3-3.9 11.5l-2.5 5.9 2.4-2.9c3.8-4.6 11.2-17.7 13.2-23.4 1-2.8 2.3-5.2 2.7-5.2.5 0 .6.8.2 1.8-.9 2.3-3.5 18.8-3.6 23.2 0 1.9-.8 6.5-1.8 10.3l-1.7 6.7h2.8c2.1 0 3.4-.9 5.4-4 1.5-2.2 3-4 3.4-4 .5 0 1.1 1.8 1.5 4l.7 4H373l.1-8.3.1-8.2 1.6 4.5c.9 2.5 2.7 6.3 4 8.3 2.1 3.2 2.8 3.7 6.3 3.7 2.1 0 3.9-.2 3.9-.4s-.6-2.2-1.4-4.4c-.8-2.3-2.6-9.4-4.1-15.9-1.4-6.5-3.7-15.8-5.2-20.6l-2.6-8.8 3.7-3.8c2.1-2.2 5.1-4.1 6.6-4.5 4.4-.8 9.7-6.2 13-13.1 1.6-3.4 3.7-6.9 4.6-7.6 4.1-3.3 17.7-20.6 22.7-28.6 6.4-10.4 9.7-18.8 9.7-24.6-.1-7-3.9-10.1-16-13-18.8-4.6-24.1-5.2-47.6-5.2h-23.1l-2.3-4c-12.1-21-32-33.4-63-39.1-11.6-2.2-51.5-2.8-62.6-1"/></svg>