<svg xmlns="http://www.w3.org/2000/svg" width="682.667" height="512" version="1.0" viewBox="0 0 512 384"><path d="M225 189.5c-11.8 1.7-21.5 4.7-30.3 9.2-9.1 4.8-20.3 16.6-25.3 26.9-2 4-3.8 7.4-4 7.4s-5.2-.7-11.1-1.6c-21.4-3.2-65.9 1.8-73.5 8.3-6.9 6-3.4 19 11 40.3 6.6 9.8 12.8 17.1 35.6 41.5l8.9 9.5-3.3 11.8c-4.6 16.8-6 21.2-8.2 25.7l-1.9 4 2.4-2.9c3.9-4.5 11.4-17.6 13.7-23.9 2.6-6.9 3.7-6.8 2.1 0-.6 2.6-1.8 10.2-2.6 16.8s-2.2 14.1-3 16.7l-1.4 4.8h2.7c2.1 0 3.4-1 5.7-4.5 1.7-2.4 3.3-4.5 3.7-4.5s1 2 1.4 4.5l.6 4.5H373l.1-9.3c0-9.1 0-9.2 1.4-5 .7 2.4 2.7 6.5 4.5 9.3 2.9 4.6 3.5 5 7 5h3.8l-1.8-4.7c-1-2.7-3.5-12-5.5-20.8s-4.5-18.1-5.4-20.6l-1.8-4.6 4.3-4.6c2.4-2.5 6.7-5.8 9.6-7.4 5-2.7 8.8-7 16-18.5 1.5-2.4 5.1-7 7.9-10.3 10.8-12.8 19.7-28.4 21.9-38.5 2.9-13.1-4.2-17.6-33.5-21.4-23.7-3-32.2-3-49.5 0-3.5.6-3.7.4-7.2-5.3-3.3-5.4-12.8-15.5-18.8-20.1-9.1-7-27.3-13.8-45-16.7-13.3-2.2-44-2.8-56-1"/></svg>