<svg xmlns="http://www.w3.org/2000/svg" width="682.667" height="512" version="1.0" viewBox="0 0 512 384"><path d="M231 185.1c-28.1 3.2-48.1 16.2-59.4 38.7-2.1 4.2-3.1 5.2-4.4 4.7-8.8-3.5-32.1-5.1-51.2-3.6-27.4 2.2-34.2 4.5-35.6 11.9-1 5.4 1.3 13.7 7.1 25.7 6.6 13.6 17 28.6 32.9 47.3 16.5 19.5 15.2 17 12.8 24.4-1.2 3.5-3 9.8-4.1 14-1.2 4.3-3.2 10.1-4.6 13-1.4 2.8-2.2 5.4-1.9 5.7 1.2 1.2 6.7-6.7 11.4-16.4 3.5-7.2 5.1-9.5 5.5-8.3 1.3 3.3-3.6 31.1-7 40-.6 1.5-.2 1.8 2.2 1.8s3.6-.9 6.2-4.5c1.8-2.5 3.6-4.3 4-4 .5.2 1.1 2.3 1.5 4.5l.6 4h230v-12.5l3.7 6.3c3.6 6 3.8 6.2 7.9 6.2h4.2l-2.3-6.8c-1.2-3.7-3.7-13.2-5.4-21.2-1.8-8-3.9-16.2-4.7-18.3-.7-2-1.4-4.4-1.4-5.1 0-1.5 9.8-13.6 11.1-13.6.4 0 1 .9 1.4 1.9.6 2.1 6.2 5.1 9.4 5.1 1.2 0 3.7-1.5 5.6-3.3q6.6-6.15 6.6-23.7v-8.5l5.3-8c10.5-15.8 16.4-29 17.3-39.1 1-10.3-2.1-13.4-16-15.8-19.9-3.5-46.8-3.9-64.7-1.1-3.3.5-3.7.3-6-3.5-5.5-9.1-21.1-22.1-32.1-26.8-23.6-10.1-56.8-14.4-85.9-11.1m171 124.4c-1.4 5.1-2.7 5.7-3.6 1.9-.5-1.8 0-3.2 1.6-5 3.1-3.2 3.5-2.4 2 3.1"/></svg>