<svg xmlns="http://www.w3.org/2000/svg" width="682.667" height="512" version="1.0" viewBox="0 0 512 384"><path d="M240.3 171.5c-14.5 1.9-21.7 3.9-31 8.6-9.7 4.8-20 14.9-25.5 24.8-2.6 4.7-4.2 6.4-7.3 7.7-2.2 1-4.7 2.3-5.5 3-1.3 1.1-3.3 1-10.5-.3-18.5-3.2-61.6.2-72.4 5.7-5.7 2.9-6.4 4.2-5.9 11.2.4 7.1 3.9 15.4 11.5 27.8 4.1 6.5 11.7 17.2 14.8 20.6.6.6 3.3 3.7 6.2 7 2.8 3.2 6.6 7.5 8.3 9.4 11.5 12.7 14 15.9 14 18.2 0 4.1-5.9 22.8-9.4 30-2.3 4.6-2.8 6.4-1.8 6 1.1-.4 1.3-.1.8.9-.4.8 1.3-.8 3.8-3.5s5-6.2 5.7-7.8c1.5-3.7 2.3-2.7 3.9 4.8 1.2 5.9 1.1 6.5-2.5 17.8-2 6.5-3.4 12.3-3.2 12.9.2.7 3-1.6 6.2-5.1 6-6.3 7.5-6.6 7.5-1.4 0 1.4 1.3 3.6 3 5.2s3.3 4.2 3.6 5.9l.6 3.1H383v-3c0-1.7.3-3 .6-3 .4 0 2.2 1.3 4.1 3 6.2 5.5 6.4 4.4 1.9-8.7-1.4-4-3.9-14.8-5.6-24-1.6-9.3-3.4-18.3-3.9-20.1-1-3.5-1.8-2.3 12.1-18.6l2.7-3.1 1.9 4.6c1.1 2.5 3.4 5.7 5.1 7.1 2.6 2.3 3.6 2.5 6.3 1.8 9-2.6 11.7-11.8 8.1-28.2-1.5-7.2-1.5-7.8.1-10 10.3-14.2 19.2-30.3 22.1-40.3 2-6.9 1.6-14.6-1-17.5-5.1-5.6-30.5-10-58-10h-17.3l-2.1-3.4c-3.2-5.2-17.9-18.7-24.7-22.7-7.7-4.6-19.5-9.3-29.9-11.9-18.9-4.8-48.3-6.8-65.2-4.5m167.2 126.8c.4 1.9.5 4.7.3 6.3l-.3 2.9-1.8-3.2c-2.4-4.5-2.2-9.3.4-9.3.5 0 1.1 1.5 1.4 3.3"/></svg>