<svg xmlns="http://www.w3.org/2000/svg" width="682.667" height="512" version="1.0" viewBox="0 0 512 384"><path d="M339.7 16.2c-2.2 5.2-6.2 24.2-7.7 36.8-.6 4.7-1.5 11.2-2.1 14.5s-1.4 19.3-1.8 35.5c-.5 18-1.2 30.6-1.9 32.2-1.1 2.8-5.1 5.4-9.3 6.2-1.3.2-3.7.9-5.3 1.5-3.6 1.4-17.8.6-25.6-1.5-17.9-4.8-28.6-10.6-43.4-23.3-5.5-4.7-12.7-10.9-16.1-13.7-3.4-2.9-9-8.3-12.4-12.1-5.2-5.8-8.1-8-18.4-13.6-6.8-3.7-13.3-6.7-14.4-6.7-2 0-2.1.4-1.7 7.7.3 4.3 1.1 14.1 1.9 21.8s2.2 24.3 3.1 37c.8 12.6 1.9 26.6 2.2 31 .4 4.4.4 10.9 0 14.5-.5 3.6-.9 19.5-.9 35.5-.2 33.5 1 45.1 6.5 61.7 6.4 19.7 13 28.2 27 34.9 6 2.9 11.4 4.6 19.7 6.1 20.1 3.6 58 2.7 94.9-2.3 16.9-2.3 43.4-2.4 42.8-.1-.7 2.5 1.6 5.2 5 5.8 4.8.9 6.8 2 10.7 5.8 4 4 10.1 7.3 15.2 8.1 8.5 1.4 7.7.4 9.1 12.4l1.3 10.9-4.1 8.2c-2.3 4.5-4.5 9.3-5 10.6l-1 2.4h104V174.9l-2.2.7c-7.8 2.4-13.4 6.1-16.6 10.9-1.8 2.8-4.6 6.5-6.1 8.3-3.9 4.6-5.4 13.7-4.3 27.2 1.3 16.9 1.2 18.1-2.3 20.1-1.9 1.1-5.2 1.8-8.7 1.8l-5.8.1v8c0 5.3-.5 8.8-1.4 10.3-.8 1.2-2 6-2.6 10.7-.9 7.1-.9 9.5.4 14.5.9 3.2 1.6 6.9 1.6 8 0 1.2.5 2.6 1 3.1.7.7.6 1.1-.4 1.1-1.7 0-5.1-7.4-6.7-14.5-1.3-6.5-5.2-12.3-10.2-15.6-4.7-3-12-3.5-22.1-1.5-6.8 1.4-7.1 1.3-18.7-7-7.2-5.1-9-7-10.7-10.9-2.8-6.7-7.3-21.8-8.2-27.7-3.9-26.6-9.9-59.4-12.7-70-4.3-16.4-5.1-22.9-3.1-25.3.9-.9 2.2-3.4 2.9-5.5 1.2-3.4 1.1-4.3-.6-8.5-1.7-4.1-1.9-7.3-2-26.2-.1-19.2-.3-22.4-2.4-29.8-3-10.9-4.8-14.7-9.6-20.6-3.8-4.7-4-4.8-4.6-2.5l-.7 2.4-.1-2.5c-.3-5.1-2.6-11.5-4.1-11.5-.8 0-1.6-1-1.8-2.3-.2-1.2-1-2.2-1.7-2.2s-1.5-1-1.7-2.3c-.2-1.4-1.1-2.3-2.5-2.5-1.7-.3-2.5.4-3.6 3m133.7 288.9c2.7 1.3 3.8 3.5 6.1 12.4 1.6 6.3 2 12.5.8 12.5-2-.1-5.2-4.1-7.4-9-3.4-7.6-3.9-9.4-3.9-13 0-4.3.5-4.6 4.4-2.9"/></svg>