<svg xmlns="http://www.w3.org/2000/svg" width="682.667" height="512" version="1.0" viewBox="0 0 512 384"><path d="M260.6 129.1c-20.1 1.8-34.8 7.3-44 16.5-6.4 6.2-8.6 10.1-13.1 22.9l-3.3 9-11.3 2.3-11.2 2.3-6.1-2.4c-3.4-1.4-8.5-3-11.4-3.7-4.5-1-5.6-1-7.7.4-1.4.9-2.5 2.3-2.5 3.1 0 1.6-.8 1.8-12.5 3.5-10.5 1.5-22 4.3-29.2 7.2-6.3 2.5-11.2 8.1-11.3 12.9 0 2.6 4.2 10 8.9 15.5 1.4 1.7 4.2 5.1 6.1 7.5s9.5 10.5 17 17.9l13.6 13.5-.9 11c-.7 8.4-.6 13.9.6 23.5 1.4 11.9 1.4 12.6-.4 17.3l-1.9 4.9 3-2.2 3-2.2 1.6 3.9c3.5 8.5 9.6 19.8 10.7 19.8.7 0 2.2.6 3.5 1.3 2.3 1.3 2.3 1.3 1.7-2.1-.4-2.1-.3-3.7.4-4.1.6-.4 1.1 0 1.1.9s.5 1.3 1 1c.6-.3 1-1.9 1-3.4 0-2.8 2.4-6 3.6-4.8.3.3-.1 3.6-.9 7.4-1.8 8.3-2.4 13.6-3.7 32.8-.5 8.2-1.2 16.5-1.6 18.2l-.6 3.3h6.3c6.3 0 6.4-.1 8.7-3.8 2.1-3.4 2.5-2.3.7 2-.7 1.7 4.9 1.8 108.8 1.8h109.5l1.1-9.2c2.5-20.8 3.2-40.5 2.1-56.5-.6-8.6-1.5-17.5-2-19.8-1.1-4.5-1.3-14.9-.4-18.2.6-2.1.8-2 3.5 1.7 2.1 2.9 3.5 3.9 5.1 3.7 5.3-.9 4.7-5.9-2.3-20.3-2.1-4.5-3.9-8.5-3.9-8.9s1.1-.4 2.5-.1c2.9.7 3.9-.8 5-7.4.5-2.7 1.9-5.8 3.6-7.7 6.5-7.5 14.3-20.6 17.6-29.7 2.8-7.7 2.5-12.3-1.3-19.8-5.1-10.2-8.7-12-33.5-17.3-10.3-2.2-11.4-2.6-13.7-5.7-4.4-5.8-15.5-16.3-21.7-20.5-17-11.5-35.6-17.2-62.6-19.3-15.1-1.1-22.1-1.1-36.3.1"/></svg>