<svg xmlns="http://www.w3.org/2000/svg" width="682.667" height="512" version="1.0" viewBox="0 0 512 384"><path d="M278.5 79.7c-19.4 2.3-36.1 6.6-47.3 12-13.8 6.6-23.9 18.9-26.3 32-.6 3.2-1.7 6.5-2.6 7.5-2.8 3.1-10.8 5.7-21 6.7-11.9 1.2-14.4 2.1-19.4 6.6-4.5 4.1-9 5.1-15.9 3.6-6.6-1.4-11.3-1.4-12.7 0-1.7 1.7 2.6 9.7 6.7 12.8l3.2 2.3-3.1 3.2c-1.7 1.8-3.1 3.8-3.1 4.4 0 2.6 4 8.9 9.3 14.6l5.5 5.9-3 5c-3.6 6.2-14.9 23-18.6 27.7-2.7 3.4-2.6 3.3 4.1-1.4 4.8-3.4 6.7-4.3 6.7-3.2 0 1.9 1.6 2.1 2.3.3.2-.6.8-.9 1.3-.4.4.4.1 5.3-.8 10.9-1.3 7.7-1.4 10.6-.5 11.6.9 1.2 1.3 1.1 2.3-.3 1.1-1.4 1.3-1.2 1.9 1.7 1.2 6.1 6.7 21.2 8.8 24 2.6 3.6 3.7 2.2 3.7-5v-5.3l2.5 2.8c1.3 1.5 3.1 3.5 3.8 4.3s2.2 3.7 3.2 6.5c1.6 4.6 6.2 14.4 7.1 15.4.2.3 1-.3 1.7-1.2 1.1-1.5 1.4-1.3 3.4 1.7l2.2 3.5-4.9 3.5c-5.6 4-5.9 5.3-3.1 11.6 1.3 2.9 3.3 5.2 6.4 7.1 4.1 2.6 4.6 3.3 5.2 7.6.4 2.6 1.1 6.1 1.6 7.7 1.1 3.5-1.6 15-6.2 25.6-3.4 8-3.1 10.1.8 5.5 1.4-1.7 5.1-5.7 8.1-8.9l5.5-6 1.3 3c.8 1.6 2.3 5.1 3.5 7.7 1.8 4 2 5.8 1.4 11l-.7 6.2 2.4-2.3c2.4-2.1 2.6-2.2 5.7-.6 2.3 1.2 4.9 1.5 9.4 1.1 9.3-.8 13.1-1.5 23.7-4.2 2-.5 2.2-.4 1 .4-.8.6-3.2 1.6-5.3 2.1-2.8.8-4.1 1.9-5.5 4.7-1.3 2.9-2.8 4.2-6.8 5.7-2.8 1.2-6.1 2.9-7.5 3.8-2.3 1.6 2.9 1.7 92.3 1.7l94.6.1.7-4c.4-2.2 1-3.8 1.3-3.6.4.2.9-4.2 1.2-9.7 1-21.2.4-40.3-1.9-59.5-1.3-10.7-2-20.9-1.7-22.7.4-2.1 1.9-4.4 4.1-6.2 1.9-1.5 5.1-4.1 7-5.6 5.9-4.8 4.6-10.4-4.3-18.3l-4.3-3.9-.4-12.5c-.1-7.2-1-15.7-2-20-2.2-9.3-2.2-9 1.2-18 2.5-6.9 2.7-8.6 2.7-22 0-15.9-.9-20.3-7-33.7-9.8-21.6-29.1-39.8-55.9-52.8-17.9-8.7-35-12.6-54.4-12.4-6.4.1-12.9.4-14.6.6m-91 200.3c1.5 1.7 1.6 2.3.5 5-1.6 3.8-2.6 2.9-3.3-2.8-.6-4.6.1-5.2 2.8-2.2"/></svg>