<svg xmlns="http://www.w3.org/2000/svg" width="682.667" height="512" version="1.0" viewBox="0 0 512 384"><path d="M271 42.4c-16.4 2.7-34.9 9.8-47.8 18.4-5.2 3.4-5.4 3.4-10.9 2.3-8.9-1.7-18.5-1.4-24.7 1-10 3.7-13.8 10.9-15.9 30.5l-1.2 10.7-4.9 3c-3.9 2.5-6.5 3.2-13 3.7-14.8 1.3-19.4 5.3-18.2 15.7.4 3.4.2 6-.6 7.2-.9 1.5-.9 2.5 0 4.6 1.1 2.3 1.6 2.5 4.8 1.9 2.8-.5 3.9-.2 5.2 1.2 4.8 5.3 4.8 4.7-1 13.6-3 4.6-6.7 10.5-8.3 13.3-4.9 8.8-10.5 19.3-10.5 19.8 0 .3 1.6.1 3.6-.3 2.2-.5 5.5-2.6 8.2-5.2 4-3.9 4.4-4 3.9-1.8-.3 1.4-.9 4.3-1.3 6.5s-2.4 6.8-4.5 10.2c-4.2 6.8-4 8.1.6 3.3 1.6-1.7 3.2-2.7 3.7-2.2.4.4 1 3 1.3 5.7.7 7.3 3.2 19.6 4.6 23 1.3 3 1.3 3 1.9-2.5.4-3 .7-4.3.8-2.9.6 8.5 2.3 10.4 4.4 5.1 1-2.7 1-2.6 3.4 2.6 1.3 3 2.8 5.1 3.3 4.7.6-.3.8-1.2.4-2-1.2-3.2.8-1.3 2.1 2 .8 1.9 2.2 3.8 3 4.1.9.3 2.5 2.1 3.7 4 2.3 3.9 6.9 7.1 5 3.6-.5-1-1.3-5-1.6-8.8-.5-5.8-.4-6.7.7-5.4 1.8 2.1 4.2 2.5 3.5.5-1.1-2.8.2-1.5 2.4 2.5 1.3 2.2 2.9 4 3.6 4 1.6 0 1.6-.5.2-3.3-.6-1.2.7-.2 3 2.3 4.6 5.1 4.6 5.2 2.6 11.1-2.4 6.8-6.2 11.5-12.6 15.5-3.2 2.1-5.9 4.4-5.9 5 0 3.7 2.4 6.6 8.5 10.1 6.9 4 8.5 6.5 8.5 14q0 3.3 3 6.6c1.7 1.9 3 4.6 3 6 0 1.6.9 3.1 2.6 4.2 1.6 1 4.4 5.6 7.5 11.8 2.7 5.6 5.4 11 6.1 11.9 1 1.4.9 2.7-.6 6.7-2.3 6.4-1.8 7.9 1.6 5.2 1.4-1.2 3.4-2.1 4.3-2.1s4-2.5 6.9-5.5c6.5-6.9 8.9-7.3 7.9-1.3-.6 4.1-.5 4.2 1.3 2.8 1-.8 2.7-2.4 3.7-3.5l1.8-2-.5 2c-.3 1.1-1 5.1-1.6 9-.6 3.8-1.3 8.1-1.6 9.4l-.5 2.3 2.7-2.1c1.4-1.1 3.1-1.8 3.6-1.5.6.4 1.4.1 1.8-.6.5-.7 1.3.6 2.4 3.6.9 2.6 1.5 4.8 1.3 4.9-.1.1-3.6 3.1-7.8 6.7-7.3 6.3-7.8 6.6-12.3 6.3-3.7-.2-5.4-1-8.6-3.9-2.2-2-4.8-3.6-5.8-3.6-1.9 0-6.6 4.6-12.1 11.8l-3.3 4.2H339l-.6-2.9c-.4-1.6 0-4 .8-5.6l1.5-2.8 1.3 4.9 1.3 4.9 2.4-5.5 2.5-5.5 1.6 3.2c1.6 3.3 4.6 4.4 5.5 2 .2-.6 1 .7 1.6 3 1 3.8 1.5 4.3 4.1 4.3s3-.4 3.1-2.8c.1-5.9 3.5-19.5 4.9-20.1.8-.3 1.5-1.7 1.5-3 0-4.7 2.1-2.9 9 7.7 5.3 8 7.5 10.6 8.8 10.4 1.1-.2 2.8.5 3.9 1.5 2 1.8 2 1.8 1.5-5.2-.2-3.9-1.1-11-1.8-15.8-1.1-7.6-1.1-9 .2-9.8 2.3-1.5 2.9-1.1 4.5 2.8 3.3 8.1 10.5 22.3 11.3 22.3 1.2 0 1.7-2.5 3.1-14.2 1-7.5 1.5-9.5 2.6-9.1 1.8.7 1.8-2.7-.2-16.8-.8-6.1-1.3-11.8-1.1-12.8.4-1.7 3.2 3.9 10.7 21.3 3.7 8.8 3.1 4.2-1.1-7.5-6.3-17.6-6.2-16.4-2.3-16.6 1.8-.2 4.4.1 5.8.7 1.5.5 2.6.7 2.6.4s-2.6-3.6-5.8-7.2c-11.8-13.5-14.7-20.7-16-39.7-.6-10.8 1.8-42.6 3.3-43.2.7-.2 4.3.7 8.1 2 5.4 1.8 7.6 2.1 10.1 1.4 3.5-1 4.3-.5 7.6 4.5 2.8 4.5 5.9 3.7 10.7-2.7 2.2-3 4-6.3 4-7.3 0-3.2-3.8-7.1-9.8-9.9-6.7-3.2-16.3-12.4-25-23.8l-6.1-8 2.8-5c4.3-7.7 8.2-19.3 8.8-26.5 1-12.8-5.1-29.7-17.5-48-17.4-25.8-40.9-43.1-74.7-55-20.4-7.1-40.1-9.4-57.5-6.6m-89.9 187.4c.9 1.5 2.9 4.4 4.5 6.5 1.5 2 2.5 3.9 2.3 4.1-.3.3-2.6-2.6-5.2-6.5-2.7-3.8-4.4-6.9-4-6.9s1.5 1.2 2.4 2.8"/></svg>