<svg xmlns="http://www.w3.org/2000/svg" width="682.667" height="512" version="1.0" viewBox="0 0 512 384"><path d="M72 1.5c-.6.8-3.7 2.1-6.8 3-12.4 3.6-21.3 19.3-19.9 34.8.7 7.8 6.8 28.1 9.2 30.7 1 1.1 2.6 2 3.5 2 1.9 0 5 4 5 6.3 0 .8 1.2 1.7 2.8 2 1.5.3 3.6 1.2 4.6 2 1.9 1.4 1.9 1.5-1 5.3C61.3 98 34 141.2 34 143.5c0 1 3.7-.4 9.8-3.9l5.7-3.2.2 10.2c.1 6.9.8 12.8 2.3 18 3 11 3.3 11.3 6 6.9 2.1-3.3 2.5-3.6 3.5-2.1 1.4 1.9 5.2 21 6.1 31l.6 7 1.9-2.5c1-1.3 1.9-3.2 1.9-4.1s.5-2.9 1-4.4c1-2.6 1.1-2.6 2.4-.8 1.1 1.4 1.7 1.6 2.8.7 1-.9 2.2-.3 5.2 2.8 2.2 2.1 4.3 3.9 4.8 3.9.4 0 2.1 2.7 3.8 6s3.3 6 3.6 6 .2-.6-.1-1.3c-1.2-2.1 3.4 3.6 6.9 8.8 5.3 7.8 10 11.3 6.1 4.5-1.7-2.9-2.1-7.5-.5-5 1.7 2.6 3.1-.9 2.8-7.3-.2-3.1 0-5.7.5-5.7.4 0 .7.6.7 1.2.1.7.6 2.6 1.3 4.2 1.1 2.4 1.2.8 1.3-11 0-11.2.6-16.4 2.7-26.4 5.6-26.2 14.6-51.1 21.7-60 2.9-3.7 3-4.1 1.6-6.3-.9-1.3-1.9-5-2.2-8.3-.5-4.9-.3-6.8 1.5-10.3l2.1-4.4-2.8-4.1c-6.5-9.6-8-19.4-4.8-31.5 2.9-11 7-18 21.1-36.2 4.5-5.8 9-11.8 10-13.2l1.7-2.7h-47C80.4 0 73.1.2 72 1.5m16 199c0 .5-.5.3-1-.5s-1-2-1-2.5c0-.6.5-.3 1 .5s1 1.9 1 2.5M171.1 4.2c.2 2.4-.5 7-1.6 10.3-2.9 9.1-2.6 24 .8 37.7 1.5 5.9 2.7 12.2 2.7 14 0 4.5-2.7 11.4-6.6 17L163 88l1.9 3.2c1.1 1.8 2.2 5.2 2.6 7.6.6 3.5 1.1 4.3 3.3 4.8 4.4 1 11.4 5.4 17.1 10.8 8.6 8.1 35.3 40.7 52.2 63.7 4.2 5.7 9.5 12.4 11.8 14.9l4.1 4.5 4.1-4.5c2.3-2.5 7.5-9 11.5-14.5 17.8-23.9 39.7-51 49.8-61.3 6.8-7 13.7-11.8 19-13.3 3.2-.9 3.5-1.3 4.2-5.7.4-2.6 1.5-5.9 2.6-7.4l1.9-2.7-3.4-4.8c-4-5.7-6.7-12.6-6.7-17.1 0-1.8 1.2-8.1 2.6-14 3.8-15.8 4.1-24.7 1.2-35.7-1.4-5-2.4-10.7-2.3-12.8l.2-3.7H170.8zm175.3-1.7c.9 1.4 5 6.8 9.2 12.1C373.4 37.5 379 49 379 63.6c0 7.1-1.8 12.8-6 19.4-3 4.7-3 4.7-1.3 8.1 2.3 4.4 2.3 14.3 0 18.6-1.7 3.2-1.7 3.3 1.8 8.2 12.4 17.2 26.2 70.1 24 92.1-.3 3.6-1.5 11.7-2.6 18-1.8 9.8-2 13.8-1.4 27.3.5 11.2.3 17.6-.6 22.2-1.6 8.3-.2 12.2 8.7 23.3 8 10 13.8 15 20.2 17.4 3.4 1.3 5.3 2.7 6.1 4.6 3.8 8.2 5.2 10 11.1 14.5 3.6 2.8 6.3 5.5 6.1 6.1s-.5 3.3-.6 5.9-.7 5.3-1.3 5.9c-.7.7-1.2 2.2-1.2 3.4 0 2.9-1.4 3.8-3.9 2.4-1.3-.6-2.2-.6-2.6 0-.7 1.2-3.6.1-5.3-1.9-.7-.9-3.1-5.2-5.5-9.6-3.4-6.6-4.2-7.6-4.5-5.5-.2 1.4-1.1 3.5-2.1 4.8-1.5 2-2.8 2.4-9.7 2.8-7.6.4-20.5-1.6-24.6-3.7-2.4-1.2-2.4.7.4 20.3l2.2 15.8h23.3c12.8 0 23.3-.3 23.3-.8 0-.4-.7-3.1-1.4-6-1.2-4.3-1.2-5.2-.1-5.2.8 0 1.7.5 2 1.1.4.6 1.3.8 2.1.5 1.3-.5 3.4 3 4.9 8.1.6 2.2 1 2.3 14.1 2.3H468v-2.6c0-1.4.4-2.3 1-1.9 1.3.8 1.3-5.3 0-14.7-.6-4.1-1.4-13.9-1.9-21.9-.5-7.9-1.2-15.5-1.6-16.9-.3-1.4 3.4 6.7 8.3 18 11.1 25.7 21.4 46 13.6 26.9-5.4-13-17.3-45.3-17-45.7.2-.2 1.7.3 3.3 1.1 2.6 1.4 6.1 2.4 13.7 4.2 2.6.5 1.8-.6-6.5-9.3-5.2-5.4-11.8-13.8-14.7-18.5-4.9-7.9-5.6-9.6-7.2-19.4-1-5.9-2.1-17.7-2.5-26.1-.7-15.2.1-39 1.4-41 .8-1.3 13-2.7 16.3-1.9 1.3.4 3.7 2.8 5.6 5.7 3.8 5.8 5.3 6.1 13.3 3 12.9-4.8 17.3-10.8 17.4-23.5 0-11.5-3.6-18.4-16.3-31.7-11.3-11.7-10.6-10.8-16.5-22.3-5.6-10.8-7.1-13.1-12.1-18.5l-3.8-4.1 3.2-6.7c6.2-13 8.3-20.8 8.8-33.1.5-13-.7-21.3-5-34.6-3.6-11-11.8-28-19-39.5L444.4.5 394.6.2 344.8 0zM110.8 256.7c-4.9 3.3-6.8 5.2-6.8 6.7 0 2.9 4.1 7.1 9.8 10l4.7 2.4v-11.9c0-6.6-.2-11.9-.5-11.8s-3.5 2.1-7.2 4.6"/></svg>