<svg xmlns="http://www.w3.org/2000/svg" width="682.667" height="512" version="1.0" viewBox="0 0 512 384"><path d="M9.4 5.2c1 7.5 10.1 33.4 13.1 37.4 1.6 2.1 3.5 3.4 4.9 3.4 2.8 0 5.9 2.8 7.5 6.9 1.3 2.9 1.1 3.6-3.9 12.3-2.9 5-6.7 11.3-8.5 14-2.1 2.9-3.7 6.7-4.1 9.6-.8 5.7-1.2 6.6-10.8 22C.5 122.3-.9 125 .6 125c.9 0 12.7-6 14.2-7.2 1.4-1.2 1.5.4.3 9.7-.6 4.7-.3 7.9 1.4 15.1C19 152.7 21.1 159 22 159c.3 0 1.7-2.2 3.1-4.9l2.4-5 1.3 2.5c.7 1.4 1 3.4.6 4.6-.4 1.3-.2 1.8.4 1.4.6-.3 1.9 1.3 3 3.6 1.5 3.2 2.2 7.5 2.7 16.7.4 6.8 1.1 13.5 1.4 15l.8 2.6 1.5-2.9 1.5-3 .9 2.5.8 2.4.7-2.5c.4-1.4.7-4.2.8-6.3s.8-4.5 1.6-5.3c1.2-1.3 1.6-1.2 2.7.9.7 1.4 4.1 4.8 7.6 7.7l6.3 5.2-2-4.1c-2.5-4.8-2.6-5.2-.6-4.5.9.4 3.6 4.7 6 9.8 2.5 5 6.1 11.1 8.1 13.6 7.2 9.2 10.6 13.1 11 12.8.2-.3-.6-2.8-1.7-5.8-1.3-3.4-1.6-5-.7-4.3 1.6 1.3 6-.1 5.7-1.9-.1-.7-.1-2.6 0-4.2l.1-2.9 2.4 2.2c1.5 1.4 2.8 4.4 3.6 8.2 1.3 6 3 6.5 3 .9 0-2.4 0-2.4 1.4-.4.8 1.1 2.2 6.7 3.2 12.6l1.8 10.5-3 3.7c-1.6 2-6.9 6.5-11.9 9.9-6.3 4.4-9.1 7-9.3 8.6-.5 3 3.6 7.3 10.8 11.3 9.8 5.5 11.9 7.5 12.6 11.8.4 2.2 1 4 1.3 4 .4 0 2.9-.7 5.5-1.6 3.5-1.2 5.7-2.9 8.6-6.6 4.7-5.9 5.7-10.2 4-17.4-1.1-4.5-1.1-7.5 0-17.1 1.3-10.7 1.2-12.5-.6-22.7-2.7-15.7-2.5-36 .4-48.1 5.8-23.7 17.5-52.7 23.6-58.5 2.3-2.1 2.4-2.4 1-4.5-2.6-4-2.9-11.6-.7-16l2-3.8-3.6-4.9c-5.7-7.5-7.5-13.4-6.8-23.1.7-10.6 3.3-18.9 11.6-36.7C157.6 6.4 160 1.1 160 .5c0-.3-34-.5-75.6-.5H8.7zM109.9 223c0 .3-1.3 3.2-2.9 6.5-2.6 5.5-2.8 5.8-2.9 2.9-.1-1.7.2-5.1.5-7.6.6-4.3.7-4.5 3-3.4 1.3.6 2.4 1.3 2.3 1.6M165.4 4.7c-1.2 8 .3 25 3.1 34.8 5.4 19.2 6.5 24 6.5 28.5q0 8.25-5.4 16.8l-2.5 4 2.5 3.3c1.3 1.8 2.4 4.5 2.4 6 0 2.4.9 3.2 7.3 6.3 6.1 2.9 9.1 5.4 18.3 14.8 6 6.2 14.3 15.6 18.5 20.8s8.8 10.8 10.3 12.5c1.5 1.6 7.4 9.1 13 16.5 5.7 7.4 11.8 14.8 13.5 16.4l3.1 3 3.1-3c1.7-1.6 7.8-9 13.4-16.4 5.7-7.4 11.2-14.4 12.2-15.5s6.1-7.2 11.3-13.5 13.9-16.1 19.4-21.8c8.2-8.4 11.5-11 17.3-13.9 6.4-3 7.3-3.8 7.3-6.2 0-1.5 1.1-4.2 2.4-6l2.5-3.3-2.5-4c-5.7-9-6.7-17.2-3.5-28.8 7.7-27.3 8.7-34.1 7.6-47.5l-.7-8.5H166.1zM352 .5c0 .6 2.1 5.4 10.6 23.5 14.7 31.5 15.9 45.6 5.4 60.3l-3.9 5.5 1.9 4c2.4 5 2.5 7.4.4 13.3l-1.7 4.5 3.6 5c5 7 8.8 15.2 13.6 28.9 9.1 25.9 12.6 47.4 10.3 63-.6 3.8-1.6 10.7-2.3 15.1-1 6.6-1 10.3 0 19.3 1.1 9 1.1 12.3.1 17.1-1.6 7.8-.7 11.9 4 17.9 3.5 4.4 4.7 5.2 12.2 7.6 14.3 4.6 16.4 5.9 18.7 11.8 1 2.9 2.4 7 3 9.3 1.2 4.3 4.5 8.1 10.1 11.2 2.7 1.4 3.4 2.5 3.3 4.3-1.1 11.3-2.9 20.9-4.1 22.1-1.7 1.7-6.3-3.7-14.6-16.7l-8.2-13-4.8-.1c-2.7-.1-6.6-.5-8.8-.8-3.5-.6-4.6-.1-10.6 3.8-8.7 5.8-10.2 7.1-10.2 8.5 0 .6 4.8 6.4 10.6 12.9 5.9 6.4 11.4 12.8 12.3 14.2.8 1.4 4.4 6.4 7.8 11.2 3.4 4.7 7.6 11.1 9.3 14.2l3.2 5.6h16l-8.3-9.1c-4.6-4.9-10.3-10.9-12.8-13.1-5.7-5-4.3-4.1 8.7 5.7 5.6 4.2 12.2 9.6 14.5 11.9l4.3 4.2 1.8-2.3c2.2-3 3.4-2.9 4.6.2l1 2.5h17.4c9.6 0 17.7-.3 17.9-.8.2-.4.1-6.8-.3-14.2-.5-7.4-1.1-18.9-1.4-25.5l-.5-12 2.5 6c14 33.1 18.9 44.2 20 45.5.8.8-.2-2.4-2.2-7-3-7-18.4-46.7-18.4-47.4 0-.2 3 .7 6.8 2 3.7 1.2 8.4 2.5 10.5 2.8l3.7.7-9.1-9.3c-8.4-8.6-16.4-19-20.1-26.3-2.1-4.1-4.6-19.1-5.9-35.5-1.3-15.3-.8-54.5.6-55.9.6-.6 3.9-1.4 7.4-2 7.9-1.3 11.1.1 14.9 6.4 2.3 3.7 3.2 4.4 5.8 4.5 1.7 0 4.5-.5 6.3-1.1l3.1-1.1v-59.7l-7.8-6.5c-7.5-6.2-9.8-9.2-17.7-22.6-2.1-3.6-5.5-9.3-7.7-12.7l-3.9-6.1 3-5.4c3.2-5.7 8.5-18.5 10.7-25.8 3.2-10.8 3.5-28.2.8-43.7-1-5.8-6.4-23.3-8.6-27.6L479 0h-63.5c-34.9 0-63.5.2-63.5.5M115 316c0 2.3.8 3.5 3.8 5.5 5.8 3.8 8.1 10 5.7 14.8-.4.6.2.1 1.3-1.3 1.1-1.3 1.9-2.7 1.7-3.1-.2-.3.9-1.5 2.4-2.7l2.9-2.1-1.4 5.2c-1.9 7.2-1.9 8.6.2 6.5.9-.9 1.9-3.9 2.2-6.7.4-4.8.3-5.2-3.2-8.3-2.1-1.8-6.4-5-9.7-7.1L115 313zm270.1 21.2c1.8 2.9 4.2 7.5 5.5 10.3 1.2 2.7 3.9 6.8 5.9 9l3.6 4-3.6-6.9c-3.6-6.9-13.2-21.6-14-21.6-.2 0 .9 2.4 2.6 5.2"/></svg>