<svg xmlns="http://www.w3.org/2000/svg" width="682.667" height="512" version="1.0" viewBox="0 0 512 384"><path d="M0 192v192h133.7l1.5-8.7 1.6-8.7-2.4-1.8c-1.3-1-4.4-5.3-6.9-9.6-7-11.6-6.5-11.2-11.1-10.2-5.3 1.3-12.7 1.2-16 0-3.4-1.3-5.5.4-13.1 11.3-3.1 4.3-6.7 8.6-8 9.5-2.4 1.5-2.8 1.5-5.5-.1-2.5-1.4-3.3-1.5-4.5-.5-2.2 1.8-3.9-1-4.1-6.8-.4-8.1 1.2-11.5 7.1-15.2 2.9-1.8 9.1-6.8 13.9-11.1 7.1-6.3 10.3-8.5 17.7-11.5 9.7-4 15.2-7.3 20.6-12.5 3-2.8 3.3-3.6 2.7-6.4-.9-4.1-.8-12.7.2-24.3.6-5.9.5-11.2-.3-15.5-1.5-8.6-1.5-28.9-.1-37 3-16.7 13.5-44.9 21.7-57.7 2.9-4.6 3.3-6.1 3.3-11.8 0-7.6 1.7-12.2 5.5-15.2 6.3-4.9 15.8-.7 19.5 8.5.7 1.8 1.9 3.3 2.7 3.3 3.7 0 11.8 5.7 20.8 14.7 9.9 9.9 34.4 38.6 44.3 52.1l5.4 7.2H261l5.2-6.6c19-23.7 37.5-45.2 45.8-53.5 9.1-8.9 12.2-11.1 19.3-13.8 1.7-.7 3.4-2.4 4.2-4.3 2.2-5.3 8-9.8 12.7-9.8 7.3 0 11.8 6.8 11.8 17.8 0 5.4.5 7.4 2.4 10.2 4.3 6.3 12.3 24.3 16.4 36.5 6.5 19.6 7.5 26.5 6.8 44.5-.4 8.5-.9 18-1.3 21-.3 3 0 10.4.7 16.5.9 8.2 1 12 .1 15-.9 3.5-.8 4.3 1.2 7.3 2.9 4.3 12.1 10.1 23.3 14.7 6.6 2.7 10.2 4.9 13.9 8.5 7.7 7.6 15.4 14 16.9 14 .7 0 2.3 1.1 3.5 2.4 2 2.1 2.4 3.6 2.5 10 .1 8.1-1.1 10.9-3.7 8.7-1.1-.9-2.1-.8-4.5.6-2.8 1.6-3.1 1.6-5.5 0-1.5-.9-4.4-4.3-6.5-7.4-2.2-3.2-5.7-7.7-7.8-10.1-3.8-4.2-4-4.3-7.3-3.1-3.2 1.1-14.6.8-18.1-.5-1-.4-2.7 1.3-5.4 5.7-2.1 3.4-5.2 8.2-6.9 10.7-2.8 4.2-2.9 4.8-2.4 12 .3 4.1.8 8.3 1.2 9.3.7 1.6 4.8 1.7 66.6 1.7H512V0H0z"/></svg>