<svg xmlns="http://www.w3.org/2000/svg" width="682.667" height="512" version="1.0" viewBox="0 0 512 384"><path d="M0 192v192l65.2-.2 65.3-.3.8-4.5c.5-2.5 1.7-8.7 2.8-13.7 1.1-5.1 1.8-9.7 1.5-10.2-.7-1.1-9.5-2.1-26.8-3-10.2-.6-14.3-1.2-16.3-2.5-1.4-.9-2.9-1.5-3.4-1.2s-2.9 3.6-5.4 7.3c-5.6 8.3-11.3 14.1-12.6 12.7-.5-.5-1.4-3.6-2-6.8s-2.2-7.8-3.6-10.1l-2.4-4.3 3.9-.6c6.9-1.1 8.4-2.3 10.5-8.4l2-5.7 8.7-1.6c8-1.4 9.3-2 16.2-7.3 9.8-7.5 16.8-15.3 18.6-20.5 1-3.2 1.1-5.8.3-11.8-.7-5.6-.6-9.6.3-14.8 1.7-9.4 1.7-19.1-.1-30-2.2-13.2-1.9-23 1.1-36.2 4.7-21.2 15-47.4 22.8-58.3 3.2-4.5 3.4-5 2.9-11.3-.6-7.6.6-11.7 4.5-14.7 6.3-5 18.1-.3 20.9 8.4.6 2 1.9 3.2 4.4 4 1.9.7 5.6 2.7 8.1 4.4 8.2 5.6 29.4 29.9 51.2 58.7 6.2 8.2 12.7 16.3 14.3 17.8l3 2.8 6.9-8.4c3.8-4.7 9.8-12.2 13.4-16.8 12.4-15.9 33.7-40.4 41.6-47.8 7.2-6.7 10.3-8.7 18.7-12 1.5-.6 2.7-1.8 2.7-2.7 0-2.4 3.6-7 7.4-9.3 10.9-6.8 22.1 4.7 17.5 17.8-.9 2.6-.8 3.5.4 4.9 6.7 7.5 17.9 33.6 23.2 54.2 3.6 14.1 4.5 32.4 2.1 46.7-1.3 7.3-1.7 14.7-1.5 26.9.1 9.3-.1 19.4-.5 22.5-.7 4.4-.5 6.2.9 8.9 3.9 7.6 21.5 23.3 27.5 24.5 10.2 2 10.6 2.2 12.8 7.5 2.2 5.4 6.8 9 11.3 9 3.9 0 4.9 1.7 3.3 5.5-.7 1.8-1.6 6.2-2 9.9s-1.1 6.9-1.6 7.2c-1.5 1-6.4-4.2-15-15.8-4.4-6-8.3-10.8-8.8-10.8-.4 0-1 1.3-1.3 2.8-.8 4-4.3 5.2-14.5 5.2-4.8 0-11.6.3-15.2.6l-6.5.6.2 11.7c.1 6.4.4 13.3.8 15.3l.5 3.8h131V0H0z"/><path d="M139.1 382.6c0 1.1.3 1.4.6.6.3-.7.2-1.6-.1-1.9-.3-.4-.6.2-.5 1.3"/></svg>