<svg xmlns="http://www.w3.org/2000/svg" width="682.667" height="512" version="1.0" viewBox="0 0 512 384"><path d="M421 203c-1.1 1.1-2 2.4-2 2.9 0 1.7 2.7 3 5.1 2.4 4.5-1.1 5.2-4.4 1.4-6.1-2.1-1-2.8-.9-4.5.8m-21.5 32.7c-7.9 11.2-8 11.3-10.3 11.3-1.1 0-2.3.4-2.6.9s-2.1 1.2-3.9 1.5c-3.1.6-3.6 1.3-9 13.6-3.1 7.2-5.7 13.7-5.7 14.5 0 .9-.4 2.3-.9 3.3-.5.9-1.2 2.5-1.5 3.5-.8 2.4-3.2 1.6-2.8-.9.2-1 .6-3.5.8-5.4s.9-7.2 1.5-11.6c1.2-8.2.7-14-1.1-12.9-.8.5-3.1-3.3-3.4-5.7-.1-.4-.7-1.3-1.3-1.9-.7-.7-1.3-1.8-1.3-2.4 0-.5-1.4-3-3-5.4-1.7-2.4-3-5.2-3-6.3 0-2.8-3.2-2.1-6 1.3-1.4 1.8-4.3 6.2-6.5 9.9-14.9 25.1-42.5 66.1-58.2 86.5-16 21-33.1 46.6-34.8 52.2l-.6 2.3h170.4l-.7-8.2c-.7-7.5-1.3-13-4.6-37.3-.5-3.9-1-10.8-1-15.5 0-7.3.4-9.2 2.6-13.4 1.4-2.7 3.7-8.7 4.9-13.3 1.3-4.6 2.8-9 3.4-9.7s1-4.7.8-9.2c-.1-5 .4-9.9 1.4-13.4.9-3 2-9.6 2.4-14.7l.7-9.1-4-2.6c-2.2-1.3-5.7-2.6-7.8-2.8-2.9-.2-4.2-.9-5.1-2.7-2.5-5.1-3.9-4.6-9.8 3.6m109 118c-2 6.1-2.1 7.6-1.7 21.5.2 8.7.2 8.8 2.7 8.8h2.5v-18c0-9.9-.4-18-.9-18-.4 0-1.6 2.6-2.6 5.7"/></svg>