<svg xmlns="http://www.w3.org/2000/svg" width="682.667" height="512" version="1.0" viewBox="0 0 512 384"><path d="M0 192v192h128.9l.5-3.3c.3-1.7 1.1-6.6 1.7-10.7s1.9-10.3 2.9-13.7c2.4-8.6 1.6-9.1-9.7-6.2-6.7 1.8-11.6 2.3-20.6 2.4-11.8 0-11.9 0-14.1-2.7l-2.1-2.7-2.8 4.9c-3.8 6.7-8.1 10.2-11.1 9.1-1.2-.5-2.9-.6-3.6-.1-2.5 1.6-4-.1-4-4.5 0-2.4-.4-4.7-1-5-2.4-1.5-.6-4.2 5.4-7.9 3.4-2.1 7.1-5.1 8.2-6.7C80.3 334.3 89 328 95 325c6-3.1 20.9-16.5 24.3-22 2-3.1 2.2-4.9 2.2-17 .1-7.4.4-18 .9-23.5.6-7.5.4-12.8-.8-21.3-2-14-2-22.1-.1-33.7 3.9-24.2 17-59.8 25.2-68.7 2.3-2.4 2.4-2.9 1.3-6.3-2-5.9-.9-14.7 2.3-18.9 3.3-4.3 7.5-5.3 14.6-3.6 8.2 1.9 14 7.6 16.3 15.6.4 1.8 2.1 4 3.6 4.9 6.5 4.1 24 24.6 44.5 52 16.2 21.6 25.6 33.5 26.6 33.5 1.1 0 12-13.1 18.3-22 2.5-3.6 7.2-9.7 10.4-13.6 3.3-3.8 10.8-13.1 16.9-20.5 14.2-17.4 21.7-25.3 28.6-30 4.4-2.9 5.8-4.5 6.3-7.1 1.8-8.8 9.5-14.8 19.6-15.1 5-.2 6.2.2 8.5 2.3 5.6 5.3 7.5 12.9 5 20.4l-1.6 4.7 3.1 4.7c7.3 11 16.9 37.2 21 57.5 2.9 14.7 2.9 35.4-.1 49.3-1.8 8.6-2 11.6-1.4 23.5.5 9.5.3 15.9-.5 20.8-1.2 6.3-1.1 7.5.5 11.8 2.3 6.1 16.3 20.1 23.2 23.3 2.6 1.2 6.3 2.9 8.1 3.8 3.7 1.9 12.4 10 16.6 15.5 1.5 2 5 5 7.7 6.7 5.4 3.5 5.7 4.5 3.1 9.3-3.2 6-6.3 8.7-9.9 8.7-3.1 0-3.7-.6-10.3-10.7-3.9-6-7.6-10.8-8.2-10.8-.7 0-1.8 2.4-2.4 5.4-.7 2.9-1.7 5.8-2.4 6.5-1.6 1.6-16.4 2-25.8.6-4.6-.7-8.6-.9-8.9-.6-.9.9-.9 17.6 0 20.8l.7 2.8h130V0H0z"/><path d="M137.1 380.1c-1.4 4-1.4 3.9.4 3.9 1 0 1.5-1.1 1.5-3.5 0-4.3-.5-4.4-1.9-.4"/></svg>