<svg xmlns="http://www.w3.org/2000/svg" width="682.667" height="512" version="1.0" viewBox="0 0 512 384"><path d="M0 192v192h64.5c35.5 0 64.5-.3 64.5-.8 0-3 3.3-21.3 4.6-25.8 1.5-5.4 1.5-5.7-.3-7.6-1.9-1.8-2.3-1.9-7.4-.4-8 2.3-21.4 3.8-26.7 3.1-2.6-.4-5.9-1.5-7.4-2.6l-2.7-1.9-1.7 2.7c-6.5 10.7-9 12.5-13 9.8-1.9-1.2-2.8-1.3-4.3-.4-3.6 2.3-4.8.6-4.6-6.6.1-6.5.2-6.6 4.1-9.3 2.1-1.5 6.6-5.5 9.9-8.7 3.3-3.3 8.9-7.5 12.5-9.4 11.9-6.3 25.6-18.5 28.6-25.7 1.1-2.7 1.3-5.6.8-12.5-.4-5.6-.2-13.4.6-20.3 1.1-9.9 1.1-12.6-.5-23.5-2.4-16.6-1.7-33.6 1.9-48 6.2-24.4 17.2-51.5 23.5-57.5l2.9-2.7-2-5.2c-2.5-6.6-2-12.4 1.7-17.7 3.5-5 6.4-6.9 11.9-7.6 6.3-.9 12.9 2.4 16.8 8.5 2.6 4 2.9 5.3 2.5 9.7-.5 4.9-.4 5.1 2.9 6.9 7.3 3.9 28 27.9 49.8 57.5 11.1 15.2 18.4 24.5 20.8 26.6 2 1.9 2.1 1.8 6.4-3.1 2.4-2.8 6.3-7.7 8.6-10.9 11.3-15.6 42.6-53.5 52-62.7 3.7-3.6 8.7-7.6 11.2-8.9 4.4-2.4 4.4-2.4 4.3-7.7-.1-4.3.4-6 2.9-9.5 5.1-7.3 13.7-10.6 20.6-7.9 4.3 1.7 9.6 8 10.7 12.9 1 4 .9 5.5-.9 10.1-1.1 3-2.4 5.9-2.9 6.4-.6.6.2 2.5 2.4 5.1 7.2 8.8 17.1 34 22.2 56.6 3.7 16.1 3.8 36.4.4 53-2.3 10.9-2.3 12.1-1.2 23 .9 8.3.9 12.8.2 16-.6 2.5-1.1 7-1.1 10.1 0 6.9 3.2 12.2 12.7 20.8 6.9 6.3 8.1 7 15.5 9.7 5.6 2 14.5 9.4 20.8 17.4 2.5 3.1 6.4 6.9 8.8 8.4 2.9 1.9 4.2 3.5 4.2 5 0 3.2-7.4 14.3-10 15.1-2.9.9-6.9-2.9-12.1-11.5-5.5-9.2-8.5-12.7-9.8-11.5-.6.6-1.5 3.3-2 6-1.7 8.9-7.9 11-24 8-5.3-.9-10.3-1.8-11.1-1.9-2-.1-3.1 10.1-1.8 16.6l1 4.8H512V0H0z"/><path d="M137 379.9c0 .5-.3 1.6-.6 2.5-.4 1.1-.1 1.6 1 1.6 1 0 1.6-.9 1.6-2.5 0-1.4-.4-2.5-1-2.5-.5 0-1 .4-1 .9"/></svg>