<svg xmlns="http://www.w3.org/2000/svg" width="682.667" height="512" version="1.0" viewBox="0 0 512 384"><path d="M0 192v192h128l.4-2.3c.3-1.2 1-5.6 1.6-9.7s1.9-10.1 2.7-13.3c1.5-5.3 1.5-6 0-7.4-1.5-1.5-2.4-1.5-11.7.2-6.7 1.1-13.1 1.6-18.7 1.3-7.6-.4-8.8-.7-10.6-2.9-1.1-1.3-2.2-2-2.4-1.4-.2.5-1.7 3.2-3.3 5.8-3.6 5.6-7.2 7.7-10.1 5.9-1.6-1-2.4-.9-4.8.9-3.4 2.5-6.7 2.2-6.3-.6.2-1.1.5-4.5.7-7.5.3-5.1.6-5.7 4.2-8 2.1-1.4 6-4.8 8.5-7.5 2.5-2.8 7.3-6.5 10.5-8.4 14.6-8.5 24.1-16.4 28.9-24.1 3.7-5.9 4.1-9 2.4-18-.8-4-.6-7.7.6-15.4 1.8-10.9 1.6-16.7-1.1-36-1.4-9.8-1.4-13.5-.5-20.5 3.5-27 16.1-62.9 26.9-76.5 2.8-3.5 2.9-3.8 1.5-7.1-3.4-8.3-.9-19.4 5.6-24.9 5.5-4.6 12.2-4.7 18.6-.4 6.9 4.7 10.1 12.1 8.1 19-.6 2.3-.2 2.9 3.6 5.1 7.7 4.5 26 25.6 48 55.2 14.8 19.8 19.8 26.2 22.3 28.6l2.4 2.2 2.6-2.4c1.4-1.3 5.1-5.8 8.2-9.9s7.6-10.2 10.1-13.5c9.6-12.8 38.2-46.3 45.2-53.1 4.1-3.9 9.3-8.1 11.7-9.3 4.1-2.1 4.2-2.3 3.6-6-.9-5.8 1.1-10.5 6.8-15.6 4.7-4.2 5.3-4.5 10.8-4.5 6.6 0 10.1 2.2 14.1 8.6 3.9 6.3 4.1 9.8 1 17.3l-2.7 6.7 3.4 4.5c9.1 11.8 19.7 41.7 23.8 67 2 12.5 1.5 25-1.6 42.3-1.9 10.8-2 12.9-.9 24 1 10.6 1 12.8-.5 17.8-.9 3.1-1.6 6.7-1.6 8 0 8.2 17.3 27.3 27.4 30.2 6.5 1.9 15.7 9.2 21.6 17.2 2.5 3.4 6.4 7.3 8.7 8.8 6.7 4.3 6.9 4.9 3.9 10.1-5.5 9.3-10.2 11.7-14.3 7.2-1.1-1.2-3.7-4.9-5.8-8.2-6.5-10.5-8.5-12.7-10-11.5-.8.6-1.9 3.6-2.6 6.7-.9 3.7-2 6-3.5 7-3.5 2.3-12 2.6-22.6.9-5.4-.9-9.9-1.6-10.1-1.6-.8 0-1.5 11-1 14.9l.6 4.1H512V0H0z"/><path d="M136.5 381.3c-.4 1-.5 2.1-.1 2.4 1 1 1.8-.4 1.3-2.4-.4-1.7-.4-1.7-1.2 0"/></svg>