<svg xmlns="http://www.w3.org/2000/svg" width="682.667" height="512" version="1.0" viewBox="0 0 512 384"><path d="M0 192v192h126.8l1.2-7.3c.7-3.9 2.1-10.5 3.1-14.6 1.2-4.6 1.6-7.8 1-8.4s-5.2-.3-11.9.7c-19.9 2.9-30.4 1.7-31-3.7-.2-1.5-.6-2.7-1-2.7s-2 2.2-3.5 5c-3.1 5.6-6 8-9.5 8-1.3 0-3.9 1.2-5.8 2.6-5 3.9-6.2 2.8-6.6-6.1l-.3-7.6 5.2-3c2.9-1.7 6.5-4.4 8-6 3.1-3.4 11.4-9.7 15.3-11.7 1.4-.7 7.1-5.1 12.7-9.7 8.6-7.1 10.6-9.3 13.3-14.8 3-6.2 3.1-6.7 2.1-12.3-1.5-8-1.4-13.3.6-23.5 1.6-8.3 1.6-9.5 0-20.1-2.1-14.3-2.2-36.2-.2-46 4.9-23.5 18.3-57.8 25.6-65.6 2.8-3 2.8-3 1.1-6.4-2.7-5.2-2.1-12 1.4-17.1 6.7-9.4 15.6-11.5 23.6-5.4 5.9 4.6 9 10.1 8.5 15.4-.4 3.5-.1 4.3 1.8 5.1 7 3.2 35.4 36.2 56.4 65.6 4.3 6.1 10.2 13.7 12.9 16.8l5.1 5.8 5.5-6.2c3.1-3.3 7.6-9.1 10-12.7 4.5-6.6 23-29.5 37.6-46.6 10.3-12.2 16.4-18.1 22.7-22.3 4.5-3 5.3-3.9 5.3-6.6 0-4.8 4-11.7 8.8-15.3 10.4-7.8 23.9-1.6 27 12.3.7 3.3.6 4.9-1 8-1 2.1-2.2 4.2-2.7 4.7s.6 2.9 2.7 5.6c7.6 9.9 17.7 36.4 22.8 60.1 3.5 16.2 3.6 29.7.5 46.9-1.8 10.2-2.1 15.3-1.9 29 .1 9.1-.1 19.1-.6 22.2-1.3 8.7.2 11.9 11 22.7 6.8 6.8 10.8 9.9 15.1 11.8 8.1 3.6 14.5 8.6 20 15.5 2.8 3.6 6.7 7.1 10 9 4 2.3 5.3 3.6 5.3 5.4 0 1.3-.4 2.7-1 3-.5.3-1.3 2-1.8 3.8s-1.5 3.2-2.3 3.3c-.8 0-2.6.6-4 1.3-4 2-6.1.3-13.5-11-7.5-11.4-8.4-11.6-10.3-1.8-1.1 5.6-1.5 6.2-4.9 7.6-3 1.3-5.8 1.4-14.7.8-19.7-1.3-17.8-1.6-18.8 3.4-.5 2.4-.6 6.4-.2 8.8l.6 4.3H512V0H0z"/><path d="M135 383c0 .5.5 1 1.1 1 .5 0 .7-.5.4-1-.3-.6-.8-1-1.1-1-.2 0-.4.4-.4 1"/></svg>