<svg xmlns="http://www.w3.org/2000/svg" width="682.667" height="512" version="1.0" viewBox="0 0 512 384"><path d="M0 192v192h125.7l.7-6.8c.4-3.7 1.6-10.9 2.7-16 1.1-5.2 1.9-9.6 1.7-9.8-1-.9-7-.5-14.8.9-18.6 3.5-30.6 3-34.5-1.3-1.7-1.8-1.8-1.8-5.5 2.9-4.2 5.3-8.6 9.1-10.5 9.1-.7 0-1.8-1.4-2.4-3.2-.6-1.7-2.2-4.6-3.6-6.4-3.3-4.3-3.2-5.9.8-7.5 5.6-2.2 8.6-4.9 10.5-9.3 1.8-4 2.4-4.4 8.1-6 7.2-2 18-9.7 29.3-21 10.1-10 11.2-12.6 10.4-23.5-.4-5-.2-10.9.4-14.1 2.7-14.1 2.9-18.2 1.3-30.9-2-15.9-1.2-31.8 2.1-46.1 4.8-20.6 15.9-49.2 22.2-57.6 3.3-4.3 3.3-4.4 1.8-8-1.4-3.4-1.4-4.3.1-10.2 2.9-11.8 8.6-16 17.7-13.3 5 1.6 12.1 8 14.8 13.5 1.1 2.4 3.1 4.8 4.3 5.3 3.6 1.7 13.3 11 20 19.2 3.4 4.2 6.4 7.8 6.7 8.1 1 .9 10.6 13.4 25.8 33.5 8.3 11 16.5 21.5 18.1 23.3l3.1 3.2 3.4-3.7c1.9-2.1 7.9-9.7 13.5-16.8 14.2-18.2 24.6-31.1 31.5-39.1 9.1-10.6 26.9-28 30.4-29.8 1.7-.9 3.8-3.1 4.7-4.9 2.3-5 5.5-8.2 12-12.1 9.9-5.9 17-4.5 21.4 4.2 1.8 3.8 2.1 10.5.6 17-.6 2.9-.2 4.1 2.5 7.8 10.8 15 22.5 54.7 23.7 79.9.5 10.5.2 13.7-2.3 26-2.3 11.6-2.8 16.6-2.8 29.5-.1 9.7-.6 17.8-1.5 21.6-1.3 5.7-1.3 6.6.4 11 2.5 6.7 19.1 23.2 27.7 27.5 4.1 2.1 8.8 5.8 13.7 10.9 4.2 4.2 9.1 8.5 10.9 9.4 3.1 1.6 3.2 1.8 3.2 8 0 3.6.2 7 .5 7.8.3.7.1 1.9-.4 2.7-1 1.5-3.9.3-7.5-3.1-1.4-1.3-2.9-1.7-4.7-1.3-3.6.8-8.7-3.6-12.9-11.3-3.5-6.1-5.8-9.2-7.1-9.2-.4 0-1.1 1.7-1.4 3.7-1.3 7.8-1.4 7.9-5.4 9.3-2.8.9-7.1 1.1-14.4.7l-10.5-.6-.6 5.7c-.3 3.1-.8 9.2-1.1 13.4l-.7 7.8H512V0H0z"/></svg>