<svg xmlns="http://www.w3.org/2000/svg" width="682.667" height="512" version="1.0" viewBox="0 0 512 384"><path d="M0 192v192h78c42.9 0 78-.3 78-.8 0-.4-4.5-5.4-10-11.2s-10-11-10-11.7c0-.6-.5-2.4-1.1-4-.9-2.5-1.2-2.6-2.3-1.1-1 1.3-1.2.5-1.2-4.5.1-3.4-.5-10-1.2-14.7-.6-4.6-1.2-13.4-1.2-19.5l-.1-11-4.7-3c-9.6-6.1-9-5.9-13.7-3.6s-10.3 7.9-15.5 15.6c-6.2 9.2-7.8 9.5-11.3 2.1-2.2-4.5-3-5.3-4.7-4.9-1.1.3-2.3.9-2.6 1.4-.8 1.4-5 1.1-6.3-.4-.6-.8-.9-1.6-.6-1.9.3-.2 1.2-5.8 2-12.4 1.8-14.4 2.9-20.6 3.8-22.1.4-.6 3.5-1.4 6.9-1.8 8.4-.9 20.7-4 27.1-6.9 6.9-3 19.4-11.2 20.6-13.4.4-.9 1.4-5.4 2-10 .7-4.5 3-13.4 5.2-19.9 3.2-9 4.4-14.4 5.4-24.2 2.8-26.6 7.1-40.9 19.3-64.2 2.2-4.2 4.3-9.1 4.6-11 1.1-6.9 2.7-10.4 6.2-14 2.6-2.6 3.9-5.1 4.5-8.5 1.1-5.9 2.6-7.6 9.1-10.4 7.2-3.1 12.9-2.1 18 3 2.2 2.2 3.8 4.8 3.8 6.1 0 1.7 1.2 3.1 4.1 4.9 5.8 3.5 12.8 11.5 20.5 23.3 32.6 50.2 31.9 49.4 36.3 42.3 9-14.6 38.2-49 51.8-61.2 19.4-17.3 30.6-24.6 40.1-26 4-.6 4.6-1.1 6.3-4.9 6-13.6 16.2-16.4 25-6.8 5.1 5.5 5.5 10 1.4 18.5l-1.8 3.6 3.8 5.4c5.5 7.6 9.2 16.4 12.5 29.7 4.6 18.2 6.2 30.2 6.3 45.6 0 15.8-1.4 25-6.8 42.7-1.9 6.2-4.3 16.5-5.5 22.8-2.4 13.4-4.2 19.4-8.2 27.1-1.5 3.1-2.8 6.2-2.8 6.8 0 5.7 14.3 20.2 24.9 25.3 12.8 6.1 21.3 18 25.9 36.6 1.7 6.6 1.9 8.7 1 10.2-1.1 1.7-1.4 1.7-4.1.3-4-2-9.1-6.7-14.4-13.3-2.5-3-5.3-5.9-6.2-6.4s-1.3-.5-.9-.1c1.1 1.2-8.1 5.3-10.6 4.7-1.1-.2-3-1.4-4.1-2.6-1.1-1.1-3.4-3.4-5.1-4.9l-3.1-2.8-.1 3.5c-.1 1.9-1.5 9.1-3.2 16-3.7 15.2-6 31.5-5.3 37.9l.6 4.7H512V0H0z"/></svg>