<svg xmlns="http://www.w3.org/2000/svg" width="682.667" height="512" version="1.0" viewBox="0 0 512 384"><path d="M465.3 297.7c-1.9.7-1.6 6.5.6 12 1.1 2.8 1.6 6.1 1.4 8.1-.5 3.3 1 6.2 3.2 6.2 1.6 0 3-15.7 1.6-19.1-1.4-3.6-5.4-7.8-6.8-7.2M448 312c0 .5.6 1 1.4 1s1.8-.5 2.1-1c.3-.6-.3-1-1.4-1-1.2 0-2.1.4-2.1 1m-18.8 15.2c-4.2 2.4-5.6 2.7-6.7 1.8-1.2-1-2.3-.4-6 2.6-2.5 2-5.1 4.6-5.6 5.6-.6 1.1-1.3 1.7-1.6 1.5-.2-.3-1.3.2-2.3 1.1-1 1-2.5 2.2-3.2 2.7-.7.6-6.2 5.3-12.2 10.5s-13.4 11.6-16.5 14.1c-3.1 2.6-8.6 7.4-12.1 10.7l-6.5 6.2h77.4l.7-2.3c.4-1.2 2.5-5.1 4.7-8.7 6.7-10.8 7.4-13 8.2-23 .8-10.8 1.6-13 4.9-13 3.2 0 3.8-.9 2.1-3.4-.8-1.1-1.6-3-1.6-4.1-.1-1.9-.2-1.9-.6-.1-.3 1.1-1.1 2.6-1.9 3.4-1.2 1.1-1.5 1.1-2-.2-.3-.9-.4-2.3 0-3.1.3-.8-.4-2.4-1.6-3.5-3.3-3.1-10.9-2.6-17.6 1.2"/></svg>