<svg xmlns="http://www.w3.org/2000/svg" width="682.667" height="512" version="1.0" viewBox="0 0 512 384"><path d="M0 192v192h459.2l-.5-2.1c-.5-1.8.9-2.8 11.8-7.9 6.8-3.3 15-6.7 18.2-7.6 4.4-1.2 7-2.8 10.8-6.5 4.2-4.1 5.7-4.9 8.8-4.9h3.7V0h-68.9l-.5 4.2c-.4 2.4-1.3 8.8-2 14.3-.8 5.5-1.2 10.3-.8 10.6s3.4 1.4 6.7 2.4l6 1.8-3.5 1.3c-1.9.7-4.4 1.3-5.6 1.3-5.3.2-6.2 3.2-9.9 34.6-1.8 14.8-1.6 22.3 1.1 47 2.6 24.5 1.4 43.5-4 59.4-2.3 6.6-2.5 8.1-1.7 15.5.4 4.4.6 14.2.4 21.6l-.5 13.5 5.8 7.7c5.5 7.3 6.4 8.1 16.6 13.4 6 3.1 12.7 7 14.8 8.5 4.8 3.5 8 9.4 8 14.8 0 4.7-1.8 6.1-7.5 6.1-6 0-10.5-3.2-18.3-12.9-4-5-8.2-10-9.4-11.1-1.8-1.6-10.8-5.5-10.8-4.5 0 2.4-3.5 17.3-4.7 20.2-2 4.5-2.3 21.2-.5 25.6.7 1.5 3 5.1 5.2 8.1 2.2 2.9 4 5.6 4 5.9s-2.5-.3-5.7-1.4c-7-2.4-7.6-2.4-6.3 0 1.9 3.7 1 3.5-2.2-.4-6.2-7.7-17.4-18.7-24.3-24-13.7-10.5-28.1-15.3-48.8-16.2l-12.7-.6-9-6.6c-11.8-8.7-16.2-11.4-27.8-17.1-26.9-13.3-47.2-13.8-75.1-1.8-6.9 2.9-22.6 12.5-32 19.5-6.9 5.1-9.1 6.3-12.2 6.3-5.3 0-5.6-1.4-.7-3.6 5.3-2.4 12-9.1 14.8-14.8l2.1-4.5-2.4-3.3c-1.4-1.8-2.8-4.3-3.1-5.5-.4-1.1-1.3-2.7-2.1-3.3-1.3-1.1-1.5-.7-1.6 2.6-.1 4.5-.9 11.7-1.3 12.1-.2.2-3.2-3.6-6.7-8.4-6.2-8.6-6.4-8.7-6.9-5.8-.5 2.7-.8 2.3-3.9-5.2-1.9-4.6-3.6-8.1-3.9-7.9-.2.2-1.4 2.4-2.7 4.8-1.3 2.3-2.7 4.2-3.1 4.1-.5-.1-1.2-1.7-1.5-3.5-.4-1.8-.7-2.5-.8-1.5-.2 3.8-2 .4-3.7-7.1-1.5-7.2-5-18.7-6.1-20.5-.3-.5-1.6.2-3 1.5l-2.5 2.3 2.3-4.4c1.7-3.3 2.4-6.6 2.7-13l.4-8.6-3 2.9c-2.7 2.5-10.9 5.2-12.1 4.1-.4-.4 10-19.4 15.9-29 2-3.3 4-6.6 4.4-7.3.7-1.1-.4-1.3-5.6-.7-8.9 1-12.5-.7-17.6-8.2-5.8-8.5-5.8-8.5-13.8-7.3-3.8.5-8.5 1.2-10.4 1.5-4.6.7-10.4-2.2-10.8-5.3-.5-3.6 1.6-8.8 5-12.1 7.9-7.7 21.6-7.9 47.4-.5 9.6 2.7 9.7 2.7 14.8.9 6.4-2.2 12.7-5.7 17.2-9.7 3.9-3.5 6.7-8.6 12.8-23.3 2.3-5.6 6.3-13 8.9-16.6 5.7-8 18.8-20.7 28.2-27.3 12.2-8.6 23.7-18.2 32.5-27l8.5-8.6H0z"/><path d="M175 226c0 .8.5 2.2 1 3 .9 1.3 1 1.3 1 0 0-.8-.5-2.2-1-3-.9-1.3-1-1.3-1 0"/></svg>