<svg xmlns="http://www.w3.org/2000/svg" width="682.667" height="512" version="1.0" viewBox="0 0 512 384"><path d="M0 278.3V384h28.6c15.7 0 28.3-.3 28.1-.8-1.7-2.8-10-21.5-15.8-35.7-3.9-9.4-8.4-19.8-10-23.3-5.4-11.2-10.2-28.9-11.1-41.1-.3-2.9-.9-3.7-4.3-5.5-2.2-1.1-4.6-2.6-5.3-3.3s-2.1-1.4-3-1.5.8-.4 3.8-.8l5.5-.7-6.5-.3c-6-.4-5.7-.4 3.5-.9 5.5-.3 10.7-.3 11.7.1.9.4 3.2.1 5.1-.7s3.7-1.2 4-.9 2.9.1 5.9-.5c5.7-1.2 15.9-2.4 19.5-2.3 1.3 0 2.3-.4 2.3-.9s1.5-.9 3.3-.9c1.7 0 4.8-.5 6.7-1 1.9-.6 5.5-1.3 8-1.6s7.7-1.2 11.5-2c17.4-3.7 25-4.6 35.5-4 14.2.8 27.6 4 38.7 9.3l3.3 1.5-3.9 4.7c-6.7 8.1-9.2 12.7-11.7 21.7-1.3 4.9-2.4 9.8-2.4 10.8 0 1.1-2 5.8-4.4 10.6-4.9 9.5-10.6 27.2-10.6 32.9 0 2-.9 6.1-2 9.1l-2 5.5 3-3.5c1.7-1.9 4.5-6.3 6.2-9.8 1.8-3.5 3.4-5.9 3.6-5.3.6 1.8-1.7 17.3-3.4 23.2-.9 3-1.7 7.2-1.9 9.5-.1 2.2-.8 5.1-1.4 6.2l-1.2 2.2h237.9l-.4-3.7c-.9-8.6-2.4-31.7-2-32 .2-.2 1.3 2.7 2.5 6.5 1.1 3.8 3.8 9.3 5.8 12.4 3.8 5.5 11.9 13.5 12.8 12.6.3-.3-.3-2.7-1.4-5.4-3.8-10-6.5-18.2-10.3-31.9-2.2-7.8-6.1-18.5-8.9-24.2-2.7-5.7-4.9-11.4-4.9-12.8 0-3.1-4.6-17.8-7.2-22.9-1.7-3.3-6.3-9.8-10.8-15.3-1.9-2.4 10.7-7.3 25.4-9.9 17.3-3.1 29.8-2.3 60.1 4.1 9.5 2 37.9 6.5 41.3 6.5 1.5.1 10.1.2 19.2.5 9.4.2 15 0 13-.4l-3.5-.8 3.3-.2 3.2-.1v-26.3c0-29.7.7-27.2-8.5-32-10-5.2-21.5-8.5-37-10.7-10.6-1.5-44.4-1.2-57.5.5-24.9 3.1-49 8.2-60.2 12.6-12.7 4.9-35.2 17.6-37.3 20.9-1 1.7-3.6 1.1-14.4-3.1-14.4-5.7-23.7-7.9-36.1-8.6-9.6-.5-11.6-.3-22.5 2.5-10.7 2.8-26.2 8.3-31.1 11-1.4.8-2.8.2-6.8-2.8-10.5-7.8-29.1-17-42.2-20.9-8.4-2.4-38.8-8.6-49.9-10.1-22.1-3-54.8-2.1-70.5 1.9-3.9 1-7.3 1.5-7.5 1.2-.2-.4-1.1-3.5-2-7.1-1.8-7.1-3.2-9.3-5.1-8.6-.7.3-1.6-.3-1.9-1.4-.3-1-1.2-2.1-2-2.4-1.2-.4 1.4 7.9 6 19.5.3 1 .2 2-.3 2.3-1.1.7-4.5-3.5-15.2-18.9-4.5-6.6-8.7-12.4-9.1-13-.5-.5-.9 45.4-.9 104.8"/></svg>