<svg xmlns="http://www.w3.org/2000/svg" width="682.667" height="512" version="1.0" viewBox="0 0 512 384"><path d="M18.2 180.5c-4.6 1.4-10.5 3.6-13.2 5L0 188v31.7l11.8 5.6c15.8 7.6 24.4 10.4 59.2 19.3 32.7 8.4 39.8 10.5 58 17.1 12.9 4.7 39.3 17.3 42 19.9 1.3 1.3 1.3 1.6-.1 2.4-1 .6-4.3 4.7-7.6 9.2-5.8 8.2-8.5 15.5-10.9 29.1-.3 2-1 4-1.6 4.3-1.5 1-6.5 12.6-9.3 22-1.5 4.9-4 13.1-5.7 18.3-1.6 5.1-2.7 9.5-2.5 9.7.7.7 5.2-6.2 9.9-15.1 2.6-5 4.8-8.7 4.8-8.4 0 1.2-4.1 27.4-4.6 29.1s5.4 1.8 115.2 1.8h115.7l-.5-11.1-.5-11 2.8 7.6c1.5 4.2 3.8 9.1 4.9 11 1.9 3 2.7 3.5 6.1 3.5 4.4 0 4.4-.1 2.5-3.8-.8-1.5-3.3-9.3-5.6-17.2-4.4-15.5-8.2-25.8-11.2-30.2-1.1-1.5-2.5-5.8-3.3-9.5-3-14.3-6.6-23-13.7-32.5-3.8-4.9-6.8-9.2-6.8-9.4s2.8-1.8 6.3-3.5c10.7-5.5 30.6-12.9 46.2-17.4 14.8-4.2 21.1-5.7 49.5-11.6 24.8-5.1 42.8-10.4 54.8-16.1l6.2-3v-43.6l-7.2-1.8c-10.8-2.5-32.2-3-46.3-1-49.2 7.2-105.6 32.3-144.7 64.5-3.3 2.7-2 2.9-20.8-3.9-28-10.2-46.9-9-81.6 5.5l-4.2 1.7-10.5-8c-39.5-30.1-83.9-52.3-123.7-61.8-8.6-2.1-13.8-2.6-28.5-3-17-.4-18.4-.3-26.3 2.1"/></svg>