<svg xmlns="http://www.w3.org/2000/svg" width="682.667" height="512" version="1.0" viewBox="0 0 512 384"><path d="M78.5 221c-2.2.5-6.5.9-9.6.9-6.9.1-23.6 2.6-33.7 5-11.1 2.7-27.7 8.7-30 10.8-.6.6-2.1 1.5-3.2 1.8-1.9.6-2 1.5-2 33.1 0 17.8.2 32.4.5 32.4 2.6 0 42.1-9.4 63-15 50-13.3 67.4-16.7 80-15.6 6.6.6 22.7 4 24.6 5.2.5.3-.7 2.5-2.6 4.8-1.9 2.4-3.5 4.6-3.5 4.9s-1.7 3.4-3.9 6.9c-2.6 4.3-4.6 9.3-6.1 15.7-1.2 5.2-3.5 12-5.1 15.2-3.9 7.7-5.5 12.2-9.5 27.7-1.9 7.3-4.3 15.1-5.3 17.3-4.8 9.8 2.6.7 9.9-12.4 1.8-3.2 3.3-5.7 3.5-5.5.2.4-2 19.6-3 25.5l-.8 4.3H377l.1-8.8v-8.7l2.5 6.3c3.8 10 4.9 11.2 10 11.2h4.5l-1.6-3c-.9-1.7-3.1-9.4-5-17.3-4.1-17.1-7.2-26.4-11.4-34.3-1.7-3.2-3.1-6.6-3.1-7.4 0-4.8-7.1-23.3-11.9-30.9-3.8-6-4.9-8.6-4.1-9.1 3.5-2.2 14.6-3.5 28.5-3.4 17.8.1 28.1 1.9 57.5 10.1 23.4 6.5 42.5 11.3 57.8 14.6l11.2 2.4v-70.2l-10.3-3.2c-5.6-1.7-12.9-3.7-16.2-4.3s-7.8-1.6-10-2c-17.6-3.9-63.8-4-84.5-.1-23.1 4.3-39.9 9.7-58.1 18.5l-7.2 3.5-3-2.5c-4-3.4-18-9.9-28.7-13.4-21.4-7-37.4-7.9-56.3-3.1-12.2 3.1-30.8 10.4-36.9 14.6l-3.7 2.5-8.8-4.1c-19.2-9-44-16.6-59.2-18.3-3-.4-6.4-.9-7.5-1.1-7.6-1.6-37.8-2.7-43.1-1.5"/></svg>