<svg xmlns="http://www.w3.org/2000/svg" width="682.667" height="512" version="1.0" viewBox="0 0 512 384"><path d="M241.1 220.1c-16.5 3.5-33.6 10.6-44.6 18.4-5.1 3.6-6.4 4.1-8.5 3.3-1.4-.5-7.2-2.1-13-3.6-9.3-2.3-12.4-2.6-27.5-2.6-17.9 0-24.9 1-43.4 6-19.1 5.2-38.3 13.3-57.2 24.1-2 1.2-4.7 2.7-6 3.5-1.3.7-2.6 1.5-2.9 1.8s-2.5 1.8-5 3.5c-7.3 4.8-16.3 11.7-19.3 14.7-1.5 1.5-3 2.8-3.4 2.8-.3 0-2.8 2.4-5.4 5.2L0 302.5v71.3l20.2-10.5c21-10.9 38.7-21.3 54.3-31.6 10.4-7 35.6-25.1 41.8-29.9 16.2-12.9 39.4-25.8 46.4-25.8 4.6 0 5.3.9 2.7 3.1-4.7 3.8-13.1 20.4-15.3 30.1-1.1 4.7-2.9 10.1-4 11.9-3.3 5.6-7.1 16.6-10.2 29.7-2.8 11.9-5 18.7-7 22.6q-1.05 1.8 0 1.2c1.7-1.1 6.7-8.7 11-17 2.3-4.2 4.1-7.3 4.1-6.9-.1 3.5-3.2 27.5-3.9 30l-1 3.3h239.2l-.6-10.5c-.3-5.8-.4-10.5-.2-10.5s1.3 3 2.5 6.7c1.2 3.8 3.3 8.5 4.6 10.5 2.1 3.2 3 3.8 6 3.8 3.3 0 3.6-.2 3-2.2-.3-1.3-2.2-8.8-4.2-16.8-4.6-18.7-10-35.4-12.8-39.9-1.3-2-3.5-8.3-5.1-14.1-2.1-7.7-4.4-13.2-8.7-20.8-3.3-5.7-5.8-10.5-5.6-10.8.2-.2 3.5-.6 7.4-1l6.9-.6 8.7 5.3c4.9 2.9 13.4 8.9 19 13.3 38.2 29.8 61.8 46.2 83.8 58.4 3 1.7 10.5 5.8 16.5 9.1 6.1 3.3 11.3 6.1 11.8 6.1.4 0 .7-17.5.7-39v-38.9l-6.2-5c-3.5-2.8-7.6-6.1-9.3-7.4-5.6-4.5-22.9-14.9-33.4-20.2-20.4-10.1-40-16.8-60.2-20.5-22.2-4-49.9-2.1-67.2 4.6-3.8 1.4-3.8 1.4-8.5-2.5-9.7-8.1-22.5-14.1-41.2-19.3-14.5-4-31.4-4.7-44.9-1.7"/></svg>