<svg xmlns="http://www.w3.org/2000/svg" width="682.667" height="512" version="1.0" viewBox="0 0 512 384"><path d="M240.2 218.6c-16.2 3.5-35.4 11.7-45.7 19.5l-5.6 4.2-7.7-1.7c-21.3-4.7-40.5-2.4-63.8 7.5C88.8 260.4 56 285 34.5 310.4c-5.6 6.7-5.9 7-7 8.7-.5.9-3.2 4.8-5.9 8.8-8.8 13.3-14.8 29.1-16.1 42.8-.3 3.2-.8 7.5-1.1 9.5L4 384h54.2l13.6-12.4c7.6-6.8 18.9-18.2 25.2-25.2s13.4-14.8 15.7-17.4 6.5-7.6 9.3-11.1c14.6-18.2 33-36.7 40.6-40.7 2.4-1.3 2.5-1.2 1.4.7-.6 1.2-1.4 2.1-1.8 2.1s-3.3 4.6-6.4 10.2c-4.1 7.4-6.1 12.5-7.3 18.3-1 4.4-2.3 8.9-2.9 10-3.3 5.6-7.9 18.5-11 31-1.9 7.7-4.4 16.2-5.5 18.8-4.1 9.6 2.9.5 9.9-12.8l4.1-7.9-.6 6.5c-1.2 12.1-2.6 21.6-3.5 25-.6 1.9-1 3.7-1 4.1 0 .5 53.8.8 119.6.8h119.6l-.7-10.3c-.7-10.5.1-11.9 2.5-4.2.7 2.2 2.6 6.4 4.3 9.2 2.9 4.9 3.4 5.3 6.9 5.3 2.1 0 3.8-.2 3.8-.4s-.7-2.1-1.6-4.1c-.9-2.1-3.1-10.6-5-18.9-4.2-18.6-7.7-29.5-11.7-36.5-1.6-2.9-4.2-10-5.7-15.6-2-7.4-4.4-13-8.4-20-7.6-13.1-7.4-14.7 1.1-7.4 7.3 6.4 10.2 9.9 24.5 29.9 20.5 28.6 30.9 41.2 47.7 57.7l15.4 15.3h62l-.6-8.3c-.4-4.5-1.2-9.8-1.8-11.7s-1.2-4.6-1.4-6c-.1-1.4-.5-3.3-.9-4.2-.3-1-.9-2.6-1.3-3.5-.3-1-.5-2.2-.4-2.7s-.2-1.2-.6-1.5c-.5-.3-1.7-2.6-2.8-5.1-7-16.2-24.6-38.1-46.2-57.7-32.2-29.1-70.7-46.1-99.3-43.8-7.4.6-19.4 2.6-24 4-.8.3-2.9-.7-4.5-2.1-6-5.2-9.2-7.3-17-11.2-10-5-24.2-9.9-34.1-11.8-9.4-1.7-28.7-1.7-37.2.2"/></svg>