<svg xmlns="http://www.w3.org/2000/svg" width="682.667" height="512" version="1.0" viewBox="0 0 512 384"><path d="M328.6 118.1c-3.8.9-13.6 5.8-16.6 8.2-.8.7-3.3 3.2-5.4 5.6l-3.9 4.4-18.1.2c-18.7.2-28.1 1.4-40.3 5.5l-5.8 1.9-8-2.6c-11.5-3.7-19.2-4-29.5-1.4-18.2 4.8-35.2 15.5-55.4 35.1-22.9 22.2-36.7 42.7-41.8 61.9-2.9 11.3-3 27.4 0 36.8 2.2 7.2 6.7 13.3 9.8 13.3 3.9 0 17.6-8.1 28-16.6l5.4-4.4 2.3 4.8c1.4 2.6 3.9 9.2 5.7 14.7 4.3 13.1 9 22.7 9.9 20.1.6-1.7 1-1.5 3.9 1.4 1.8 1.7 3.2 3.8 3.2 4.6s.5 1.4 1 1.4c1.3 0 1.3-.8-.6-7.9-1.1-4.6-1.2-6.5-.4-8.2.7-1.1 1.3-1.9 1.5-1.7s.6 3.5.9 7.3c.2 3.9.9 7 1.4 7 .6 0 1.3.3 1.6.6s.1 10.8-.5 23.5c-1.1 24.5-1.6 27.1-8.1 42.2-1.7 4-2.8 7.5-2.5 7.8.8.8 12.7-12.5 19.7-22 4.3-5.9 4.3-5.9 5.6-3.5.7 1.3 1.4 4.2 1.4 6.4.1 3.7-.5 4.5-8 11.5l-8.1 7.5 10 .3c7.9.3 10.5 0 12.3-1.2 2.8-2 5.8-2.1 5.8-.1 0 1.3 12 1.5 101.6 1.5 96.4 0 101.6-.1 100.9-1.8-.6-1.6-1.7-23.6-3.1-66.7l-.7-21 2.4 1.8c3.6 2.6 17.8 10.3 23.4 12.8 5.3 2.4 16.3 3.2 20 1.5 1.1-.5 2.5-1 3-1.1.6 0 .9-.6.7-1.3-.1-.7.5-1.2 1.3-1.2s1.2-.6.9-1.4c-.3-.7.2-2 1-2.9 4.1-4.1 4.6-21.5 1.2-39-5.3-26.6-18.7-54.5-41-85.5-22.5-31.4-39.3-48.5-55.7-56.9-7-3.6-7.9-3.8-17.9-4-5.8-.1-12.2.2-14.4.8"/></svg>