<svg xmlns="http://www.w3.org/2000/svg" width="682.667" height="512" version="1.0" viewBox="0 0 512 384"><path d="M296.8 85.1c-10.9 2.5-23.4 12.6-27.2 21.9-1 2.5-2.1 5.2-2.6 6-.4.9-3.8 2.2-8.1 3.1-4.1.9-11.2 2.5-15.9 3.7-4.7 1.1-13.2 2.5-19 3.1-16.6 1.6-26.8 6.5-49.3 23.4-17.9 13.5-35.5 31.3-46.9 47.7-15.7 22.4-21.8 48.1-14.6 61.3 2 3.6 2.9 4.3 6.3 4.7 4.7.7 14.9-2.5 23.3-7.3 3-1.7 5.7-2.6 6.1-2.1.5.5 1.8 3.6 3.1 6.9 1.2 3.3 3.1 7.5 4.2 9.3 2.7 4.3 3.8 2.8 3.8-5.2v-5.9l3.6 4.7c2 2.6 5.2 8.6 7.3 13.4 2 4.8 4.2 9.6 4.8 10.7 1.1 1.9 1.3 1.9 2.5.3s1.5-1.5 3.5 1.7l2.2 3.4-2.4 1.8c-1.3 1-3.6 2.6-5 3.6-3 2.2-3.1 4-.5 9.8 1.3 3.1 3.3 5.3 6.4 7.2 4 2.5 4.6 3.3 5.1 7.5.4 2.6 1 5.9 1.5 7.3 1.1 3.7-2.2 17.2-6.5 26.6-1.9 4.2-3.5 7.8-3.5 8 0 1 4.1-2.8 10.5-9.7 3.8-4.1 7.2-7.6 7.6-7.8.3-.1 1.2 1.2 1.9 3s2.1 5.3 3.2 7.8c1.6 3.4 1.9 5.6 1.4 9.7-.7 5.7 0 6.5 2.9 3.3l1.8-2 2.4 2.1c2.5 2.5 6.5 2.7 16.7.8 3.2-.5 6-.9 6.2-.7s-.3 2.2-1.1 4.4c-.7 2.2-1.3 5.5-1.2 7.4l.2 3.5 89.4.3c84.8.2 89.3.1 88.6-1.5-.4-1-2-6-3.7-11.1-3.5-10.7-3.3-14.2.8-13.4l2.6.5-2.1-4.1c-1.8-3.6-1.9-4.1-.4-3.5 1.1.5 1.4.3.8-.6-1.3-2.3 3.1.6 8.5 5.4 2.8 2.5 5.3 4.5 5.5 4.5s-.9-3-2.4-6.8c-9.7-23.5-10.8-35-6.1-64.7 2.9-18.7 3.1-42.9.6-57-1.1-5.5-1.9-10.6-1.9-11.3 0-.6-.4-1.2-.8-1.2-.5 0-.6-.7-.3-1.5.4-.8.1-1.5-.5-1.5s-1.1-.5-1.1-1.1c0-.5.5-.7 1-.4.6.3 1-.1 1-.9 0-.9-.6-1.5-1.2-1.4-.9.2-1.2-1.1-1-4.6.2-2.7-.1-5.2-.6-5.5s-1.6-3.1-2.4-6.1-1.7-6.1-1.9-6.9c-1.5-5.2-13-26.5-19.5-36.1-10-14.9-11.5-16.9-14.1-20-1.3-1.3-2.3-3-2.3-3.7 0-.6-.4-1.3-.9-1.5s-2.6-2.6-4.8-5.4c-6-8.1-14.4-16.7-19.8-20.4-2.7-1.9-7-5.2-9.5-7.4-10.5-8.9-23.8-12.4-36.2-9.5M187.2 280c1.9 1.7 2 2.2.8 5-1.5 3.6-2.4 2.7-3.3-3.3-.7-4.3-.4-4.4 2.5-1.7"/></svg>