<svg xmlns="http://www.w3.org/2000/svg" width="682.667" height="512" version="1.0" viewBox="0 0 512 384"><path d="M195 .7c-7.1 1.2-21.2 5.9-28.3 9.4-6.9 3.5-18.7 10.7-18.7 11.4 0 .2 2.9 6.5 6.5 14.1 20.4 42.8 34.2 80.8 44.4 122 5.2 20.8 15.4 72.3 15.3 77.1 0 2.6 1.5 2.9 4.3.9 3.5-2.4 17.7-6.4 27.7-7.7 14.8-1.9 33.8 1.1 46.5 7.4 2.4 1.1 4.5 1.8 4.9 1.5.3-.3 1.8-9.5 3.4-20.4 8.3-56.1 16.9-80.1 36.5-101.2 12.2-13.2 24.3-22.1 42.4-31.2 5.6-2.9 10.1-5.5 10.1-5.9s-1.6-2.3-3.7-4.2c-2-1.8-3.2-2.7-2.8-1.9.8 1.4-3.5-2.1-9.5-7.7-8.2-7.7-28.7-19.1-43.5-24.3-15.7-5.5-25.3-7.1-44.3-7.6l-17.3-.4-8.7-7.5C244.4 10.7 233.1 4.4 219 1.4c-6.1-1.3-18.4-1.7-24-.7M74.7 122.2c-3.4 9.6-3.5 10-5.2 20.4-3.7 22.3-.2 46.8 9.3 66.2 4.4 9.1 10.7 16.2 14.4 16.2 2.6 0 7.1-3.1 12.7-8.9 3.6-3.7 4.3-3.4 6.1 2.4 1.2 3.7 1.4 3.8 2.3 1.8.6-1.4 1.7-2.1 3-2 1.6.1 2.3-.5 2.7-2.7 1.1-6 3.3-4.2 8 6.4 2.8 6.3 4.1 8.4 3.3 4.9-.7-3.1.1-2.3 7.1 7.3 3.1 4.3 5.9 7.8 6.2 7.8.2 0 .2-1.1-.2-2.5-.4-1.7-.2-2.5.7-2.5 1 0 1-.3.3-.8-.6-.4-1.7-4.5-2.4-9.2-2-12.9-16.7-44.4-29.7-64-3.7-5.6-7.5-11.2-8.3-12.4-2.5-3.8-5.3-7.6-9.5-12.9-2.2-2.7-4.7-5.9-5.5-7.1-.8-1.1-3.2-4.2-5.5-6.7-2.2-2.5-4.7-5.6-5.6-6.8-1.6-2.2-1.7-2.1-4.2 5.1m301.8 44.1c-2.2 2.8-4 5.4-4.1 5.7 0 .5-3.7 8.6-5.9 13-2.4 4.7-16 53.7-22.7 81.5-1.4 6.1-.4 8.1 7.2 13.6 3.9 2.8 8.5 7.2 10.2 9.7 1.8 2.6 5.6 7.5 8.5 10.9 4.8 5.7 5.6 7.2 7.5 15.4 1.8 7.9 2 10.3 1.2 19.7l-.9 10.7 4.2 12.3c2.4 6.8 4.6 15.2 4.9 18.8l.7 6.4h37.4c40.8 0 37.7.4 35.6-4.8-.6-1.5.7-1.5 4.1-.2 3.4 1.2 3.3.7-.8-5.4-4.4-6.8-8.2-14.3-9.1-18.4l-.7-3.2 3.4 1.9c1.8 1.1 5.1 2.7 7.3 3.6l4 1.7-4.1-4.4c-8.9-9.4-17.2-23.8-13.7-23.8.6 0 5.3 2 10.6 4.5 5.2 2.5 11.9 5.4 14.9 6.4 2.9 1.1 6.2 2.2 7.2 2.7 1.4.5 1.7.4 1.1-.5-.6-1-.3-1.1 1.4-.1 1.2.6 4 1.8 6.2 2.5l4.1 1.5-4-4.8c-5.6-6.7-19.6-28.1-18.9-28.8.3-.3 2.7-.1 5.2.4l4.7 1-2.5-2.7c-5.9-6.4-11.5-15.1-13.7-21.1-6.4-17.9-7.8-30.6-6.1-53.5 1.4-18 .3-31.9-4-53.9-1.7-8.3-3.2-15.3-3.5-15.8-.3-.4-2.6-.8-5.2-.8q-4.65 0-3.3-.9c1.5-1-3.5-1.6-21.9-2.7-5.8-.3-13.9-1.2-18-2-7.5-1.4-14.5-1.8-8-.4l3.5.7-4.2.2c-2.4 0-4.3-.4-4.3-.9 0-.6-2.6-1-5.7-1-5.8.1-5.8.1-9.8 5.3m-229.9 66.2c.8 3.7 1.4 4.5 1.4 1.9 0-1-.5-2.6-1-3.4-.8-1.1-.9-.7-.4 1.5m6.9 26.1c-1.6 1.4-5 4-7.5 5.7-2.5 1.8-4.6 4.2-4.8 5.3-.4 2.5 3.6 6.1 10.9 10.1l5.5 3.1 3.8-3.1 3.8-3.2-2.7-6.5c-1.5-3.6-3.4-8.2-4.3-10.2l-1.7-3.7z"/></svg>