<svg xmlns="http://www.w3.org/2000/svg" width="682.667" height="512" version="1.0" viewBox="0 0 512 384"><path d="M0 90.6c0 51 .4 90.3.9 90 .4-.3 1.4-1.9 2.1-3.6.7-1.6 1.6-3 2-3s1.2 1.9 1.9 4.2c1 3 1.5 3.8 2.2 2.7.5-.8.9-2.2.9-3.3 0-1.2.5-1.6 1.5-1.3.8.4 1.7.2 2-.3.9-1.5 2.5-1.2 2.5.5 0 .9.6 1.2 1.7.8s1.3-.8.5-1.1c-.7-.2-1-.8-.6-1.3.3-.5 1.7 0 3.1 1.1 2.8 2.2 4.3 2 2.5-.3-1.5-1.7.3-3.7 3.4-3.7 2.6 0 3.6 1.1 5.8 7 1.6 4.2 8.2 15.9 9.6 17 .3.3 1.6 2.2 2.9 4.3 3 4.8 8.9 11.9 11 13.1 1.3.8 1.4.7.5-.5-.6-.8-1.8-3.4-2.7-5.9-.8-2.5-1.8-5.4-2.2-6.5-.5-1.6-.5-1.7.4-.5.9 1.3 1.4 1.3 3.2.2 1.1-.8 1.9-1 1.6-.5s.3 1.4 1.4 2.1c1.7 1.1 1.9.9 1.9-1 0-2.2 0-2.2 2-.3 1.3 1.4 2.6 5.6 4.1 13.3 2.5 12.7 4.2 13.6 3.7 1.8-.2-4.2 0-7.6.5-7.6.4 0 .7.8.7 1.7 0 1 .4 1.4.8.8.9-1.3 3.2-1.2 5.7.2 2.1 1.2 2.6 1.3 5 1.3 2.3 0 1.8 2.1-2.4 10.6-4.7 9.3-10.7 15.6-22.4 23.4-12.5 8.4-11.7 11.8 4.9 21.6 5.8 3.4 9.9 6.6 10.8 8.2.8 1.5 1.9 7 2.6 12.2 1.4 10.9 1.8 11.9 7.5 18.1 3.2 3.4 4.4 5.7 5 9 1 6.7 1.4 7.7 3.6 8.4 1.4.5 1.9 1.5 1.9 4.5 0 5.5-8.5 40.2-11.9 48.8l-3 7.2h24.4l2.2-3.3c1.3-1.7 4.2-5.3 6.5-7.9 4.3-4.6 4.3-4.6 7.2-3.1 2.4 1.2 4.8 1.4 11.4.9l8.5-.6-.7 7-.7 7h4c3.6 0 4.1-.3 4.1-2.3 0-1.2-.5-3.8-1-5.7-1.8-6.3-4-27.2-4-38.5 0-14.6 2-25.8 6.9-38.7 2.3-5.9 4.1-11.8 4.1-13.1 0-1.4 1.1-6.9 2.6-12.3 1.9-7.7 3.6-11.6 7.6-17.7 2.8-4.3 6.3-8.7 7.7-9.8s5.7-5 9.4-8.7c5.7-5.5 6.7-7 6.2-9-.3-1.3-3.2-16.6-6.5-34-3.2-17.5-7-36.8-8.4-43-6.6-29.3-15.9-55.9-31.1-89.2-13.2-28.8-17.1-40.5-18.2-54.3l-.6-7.7H0zm24.7 64.6c-.3.8-.6.5-.6-.6-.1-1.1.2-1.7.5-1.3.3.3.4 1.2.1 1.9M184 1.3c0 .7.4 1.7.9 2.2 2.8 3.2 13.1 37.5 22.1 74 8.4 33.8 11.8 55.7 17.1 109 1.2 12.1 2.3 22.1 2.4 22.3.1.1 3.1-.5 6.6-1.5 9-2.4 36.5-2.4 46.3 0 5 1.3 7.1 1.4 7.6.6.4-.6 1-6.3 1.4-12.7 3.5-61.4 8.9-86.8 26-122.7 12.9-27.1 28-49.9 43.5-65.8l6.5-6.7h-90.2C200.9 0 184 .2 184 1.3m230.5 4.4c-.9 7.4-6.3 23.8-10.7 32.8-6.9 13.9-8.6 16.6-27.8 42-35.4 47.1-39.1 56.9-48.5 127.7l-2.8 20.6 3.2 4c1.7 2.2 5.4 5.7 8.2 7.8 8.7 6.6 17.3 18.4 21.4 29.4 1.9 5.2 4.2 12.1 5 15.3.8 3.1 2.8 8.3 4.4 11.6 3.8 7.5 6.5 22.2 5.7 31.1-2.3 25.8-3.8 39.2-5.1 45.4-.8 3.9-1.5 7.9-1.5 8.8 0 1.7 4.1 1.8 73 1.8h73V66.1l-4.3-8.3c-4.6-8.9-26.2-38.5-36.8-50.6L464.6 0h-49.4z"/></svg>