<svg xmlns="http://www.w3.org/2000/svg" width="682.667" height="512" version="1.0" viewBox="0 0 512 384"><path d="M0 87.1v87l8.5 12.2c10.6 15.2 13 18.1 14.3 17.3.6-.4 1.1.1 1.1 1.1-.1 2.4 2.2 10.6 3.2 11.7.4.4.5-1.9.2-5.2s-.2-7.7.1-9.7c.6-3.1 1-3.5 2.2-2.4 1.6 1.3 1.6 1.3 3-1.9l.9-2.3 3.4 2.6c2.5 1.8 3.7 2.2 4.2 1.3 1.1-1.7 3.9.8 4 3.6 0 2.1 0 2.1.9-.2.6-1.3 1.8-2.2 3.1-2.2 2.1 0 2.2.3 1.5 7.7-.5 6.2-1.2 8.8-3.9 13.1-4.2 7-11.2 13.4-21.9 20-4.7 2.9-8.9 5.9-9.2 6.8-2 5.2 2.1 10.3 13.4 16.8 12.3 7.1 12.7 7.7 14 17.6 1.8 13.8 3.4 18.7 8.1 24.2l4.2 5-.8 15.6c-.6 14.6-1.1 17.1-6.1 36-3 11.2-5.4 20.5-5.4 20.8 0 .2 8.2.3 18.2.2l18.2-.3 3.2-4.2 3.3-4.3 2.8 2.4c4.7 3.9 6.9 4.6 13.7 4.6 3.7 0 6.6.4 6.6 1s6.5 1 17.6 1h17.7l-.8-5.2c-1.4-10.4-2.4-24.4-2.5-33.5 0-10.4 2.5-28.4 4.6-32.5 2.6-5 6.2-16.2 6.9-21.3 1.5-11.5 5.6-22.8 10.7-29.9 4.6-6.3 12.5-14.4 19.2-19.7 1.7-1.3 2.6-3 2.6-4.8 0-4.3-10.8-62.5-14.1-75.6-7.1-28.6-17-52.4-36.2-86.9-16.1-28.7-21.7-44.5-23.3-66.2l-.7-8.4H0zm20.3 104.1c1.6 3.7 3 10.8 2.3 10.8-.4 0-4.6-12.4-4.6-13.6 0-1.4 1.2.1 2.3 2.8M176 .4c0 .3 1.5 3.6 3.4 7.3 6.3 12.7 11.4 26.7 21 58.3 13.8 45.6 17.6 66 23.6 127 1.2 11.8 2.5 21.8 2.8 22.1.4.4 3.6 0 7.2-.9 10.2-2.4 36.5-2.1 45.3.5l6.8 2.1.9-2.2c.5-1.1 1.3-9.8 1.9-19.1 2.3-35.1 5.6-56.5 11.1-73.4 3.5-10.7 13.3-31 19.5-40.4 2.5-3.8 4.5-7.2 4.5-7.6s.8-1.6 1.8-2.7c.9-1 3.7-4.8 6.1-8.4 6-8.8 12.1-15.9 26.7-31.7 1.7-1.8 3.4-3.3 3.6-3.3.3 0 2.4-1.7 4.6-3.8s6-5.1 8.4-6.8c2.4-1.6 4.5-3.2 4.8-3.5s1.9-1.2 3.5-2.1c1.7-.8 4.6-2.4 6.5-3.5 4-2.3 13.5-5.8 19.5-7.2 2.5-.6-39.1-.9-114.7-1C229.4 0 176 .2 176 .4m248 1.2c0 .9.8 2.8 1.9 4.2 1 1.5 2 3.6 2.2 4.7s1.5 2.5 2.9 3.2c6.8 3.3 7.7 10 3.2 22.8-8.7 24.5-20.2 39-58 73-27.3 24.5-37.5 39.9-42.6 64.1-1.4 6.4-6.6 43.8-8.2 58l-.6 6.2 4.4 4.3c2.4 2.4 6.5 6.1 9.1 8.2 10.1 8.1 18.3 22.3 23.3 40.1.9 3.3 2.9 8.8 4.5 12.3 7.5 16.8 8 29.2 2.9 70.8-.6 4.4-1 8.6-1 9.2 0 1 15.1 1.3 72 1.3h72V0h-44c-39.6 0-44 .2-44 1.6"/></svg>