<svg xmlns="http://www.w3.org/2000/svg" width="682.667" height="512" version="1.0" viewBox="0 0 512 384"><path d="M0 192v192h140.5l-.4-7.8c-.6-12.3 1.6-28.4 5.4-38.2 1.8-4.7 3.6-10.6 4-13 3.5-21.5 10-33.5 29.8-54.6l5.8-6.2-1.6-6.9c-.9-3.7-4-18.5-7-32.8-9-43.2-11.9-52.6-17.5-58-2.9-2.8-3-2.8-8.7-1.5-25.6 5.5-35.2 5.2-40.6-1.7-3.4-4.1-4.5-9-4.6-19.3-.2-19.6 6.2-32.6 18.7-38.6 8.2-3.9 24.7-4.6 37.7-1.5 22 5.3 39.1 18.4 46.5 35.7 4.7 10.9 9.7 39.3 15.5 88.5l1.8 14.6 6.1-1.3c15.5-3.2 25.7-3.8 37.7-2 6.3.9 13.8 2.3 16.7 3 2.8.8 5.2 1.3 5.2 1.2s1.4-11 3-24.2c7.2-57.1 12.8-70.6 32-77.3 10-3.5 21.5-4.5 33.2-2.8 49.3 7.3 86.3 40.9 88.5 80.4.9 15-1.7 18.1-11.9 14.8-26.3-8.7-72.4-33.7-88.8-48.4-1.9-1.7-3.8-3.1-4.2-3.1-1.3 0-2.7 7.2-6.8 33.6-2.2 14.3-4.8 30.8-5.9 36.7l-2 10.9 3.7 5c2 2.7 5.8 7.3 8.3 10.1 2.6 2.9 5.8 7 7.3 9.2 1.4 2.2 4.5 6.2 6.7 9 5.4 6.7 6.7 9.4 9.4 18.9 1.2 4.5 3.9 11.9 5.9 16.6 5.6 12.7 6.8 26.8 4 46.2l-.7 4.8H512V0H0z"/></svg>