<svg xmlns="http://www.w3.org/2000/svg" width="682.667" height="512" version="1.0" viewBox="0 0 512 384"><path d="M0 192v192h140l-.6-11.7c-.7-13.9 1.3-30.1 5-40.3 1.3-3.6 3.7-12.1 5.4-19 2.5-10.7 3.7-13.9 8.4-21.7 3.1-5 7.4-11.3 9.6-14 2.2-2.6 6.8-8.1 10.2-12.1 3.3-4 5.8-7.6 5.5-8.2-.3-.5-4.4-17.2-9-37.2-11.5-49.3-14.1-57.3-20.7-62.1-2.6-2-2.6-2-7 .1-17.9 8.5-31.6 11.7-39.1 9.3-4.3-1.5-9.8-6.4-12.3-11.1-2.9-5.4-2.6-28.2.4-36.4 6.1-16.5 19.6-24.6 41.3-24.6 16.3 0 33.6 4.9 45.9 13 16.5 10.8 23.3 22.3 28.9 49 1.7 8.4 7.9 47.3 11.2 70.8.6 4.5 1.4 8.4 1.8 8.6.4.3 3.6-.3 7.1-1.2 10.1-2.5 41.9-2.2 52 .5 8.1 2.2 8.9 2 9-2.7 0-4.2 5.9-43.9 8.1-55 3.9-20 7.7-29.6 14.3-36.3 7.9-8.2 19-11.7 36.6-11.7 27 0 55.4 12.1 77.3 33 14.3 13.6 22.3 27.7 26.1 46.2 2.8 13.3 1.6 21.3-3.7 25.2-2.7 2-2.9 2-9.3.3-7.6-2-16.2-5.6-33.4-14.2-23.8-11.9-39.1-22.2-54-36.4-4.6-4.5-8.7-8.1-9.1-8.1-1 0-3.5 11.2-5.9 26-1.1 6.9-3.9 22.4-6.2 34.5l-4.1 22 5.7 8.4c3.1 4.6 5.6 8.7 5.6 9.1s2.5 2.7 5.5 5c3.3 2.6 7.6 7.4 10.9 12.4 4.6 6.8 5.9 9.8 8.1 18.5 1.5 5.8 4.1 14.3 5.9 19 4.6 11.9 6 23.8 4.1 36.3-.8 5.1-1.5 11-1.5 13v3.8h138V0H0z"/></svg>