<svg xmlns="http://www.w3.org/2000/svg" width="682.667" height="512" version="1.0" viewBox="0 0 512 384"><path d="M0 192v192h139.8l-.5-11.8c-.6-14.3 1.5-31 5.1-39.7 1.4-3.3 2.6-6.9 2.6-8s1.3-7 2.9-13c3-11.9 9.7-24.9 17-33.1 8.6-9.7 16.6-19.8 16.5-20.8-.1-.6-2.7-11.9-5.8-25.1s-6.7-29-8.2-35c-5.5-23.9-9.8-35.2-15.7-41.3-4.3-4.4-8.4-5.4-18.7-4.2-19.4 2.2-32.7.6-40.5-4.8-5.3-3.7-12.7-17.1-15.1-27.1-1.6-6.9-1.6-7.9-.1-14.9.9-4.1 2.6-9.4 3.7-11.7 2.7-5.7 9.5-12.3 15-14.7 5.9-2.6 20.4-3.5 30.8-1.8 9.8 1.6 27.6 7.3 32.4 10.5 2.1 1.4 4 2.5 4.4 2.5 1.3 0 14.1 9.6 19.3 14.5 20 18.7 25.4 35 35.6 106 2.1 14.3 3.9 26.1 4 26.3.1.1 3.3-.5 7.1-1.5 10.4-2.6 40.9-2.3 51.9.5 4.4 1.1 8.1 2 8.1 1.9.1-.1 1.2-7.9 2.3-17.2 6.9-54.6 11.3-71.3 21.8-81.9 9-9.2 22-13.6 42.3-14.3 24.4-.9 42.4 3.8 67.9 17.8 7.1 3.9 21.5 18.2 26.5 26.2 6.1 10 9.7 20.4 10.3 30.4.3 4.5.2 9-.2 10-.5 1-1.5 3.8-2.4 6.3-1.5 4.1-1.8 4.5-4.6 4.2-9.3-1-29.6-8-52-17.7-13.9-6-17.8-7.8-23-10.7-10.5-5.9-12.4-7.2-22.2-14.6-5.3-3.9-10-7.2-10.4-7.2-1.7 0-5.1 14.5-9.5 40-2.5 14.6-5.5 31.7-6.8 38.1l-2.3 11.6 2.4 2.9c1.3 1.6 3.8 5.4 5.5 8.4 1.8 3 6.2 8.4 9.9 12 10.3 10 15.2 17.9 17.9 29.1 1.3 5.2 3.8 13 5.7 17.4 2.3 5.4 3.9 11.5 4.9 18.5 1.3 9.3 1.3 11.6-.1 20.8-.8 5.6-1.5 11.6-1.5 13.2v3h138V0H0z"/></svg>