<svg xmlns="http://www.w3.org/2000/svg" width="682.667" height="512" version="1.0" viewBox="0 0 512 384"><path d="M0 192v192h139v-11.5c0-14.3 2.2-29.7 5.5-37.7 1.4-3.3 2.7-8.4 3.1-11.2.7-6.1 3.9-18.5 6-24 2.8-7.2 10.6-18 21.2-29.4l10.6-11.4-6.3-33.1c-6.7-35.4-11.4-55.2-15.4-65.7-7.7-20.3-17.3-34.7-39.7-59.9-20.1-22.5-25.3-29.6-31.5-42.6C87 46.1 82 27.7 82 18.9V16h14V0H0zM136 .5c0 .2 1.9 1.7 4.3 3.4 7 4.9 20.9 19.2 26.9 27.7 5.9 8.3 18.7 32.8 27 51.5 13.4 30 19.1 48.6 23.7 76.9 2.9 17.9 2.9 18.7 6 49.2 1.5 15.3 3 28 3.3 28.3.2.3 4-.3 8.4-1.1 14-2.9 35.2-2 51.5 2.1l2.7.7.6-7.9c6.2-71.6 9-84.4 22.1-102.8C333.7 99 390.6 70 427.5 70c8.6 0 20.8 2.9 27.7 6.7 5.6 3 14.5 12.2 15.4 15.8.8 3.4-2.3 12.1-5.7 16-3.9 4.4-18.7 14.4-27.4 18.5-8.5 4-24.4 9.2-35.1 11.5-35.2 7.6-43.8 10.8-52.1 19.8-9.1 9.9-10.8 16.7-18.3 72.7-1.1 8.5-2.5 18.3-3.1 21.8l-1.1 6.2 4.3 5.8c2.4 3.1 6.6 8.2 9.4 11.3 2.7 3.1 8.3 10.5 12.4 16.5 5.8 8.5 8.1 13.1 10.6 20.9 1.8 5.5 4.7 13.1 6.5 17 2.1 4.7 3.6 10.2 4.6 17.2 1.2 9.1 1.2 11.6-.1 21-.8 5.8-1.5 11.7-1.5 13v2.3h138V0H324C220.6 0 136 .2 136 .5"/></svg>