<svg xmlns="http://www.w3.org/2000/svg" width="682.667" height="512" version="1.0" viewBox="0 0 512 384"><path d="M0 192v192h141.1l-.1-13.3c-.2-13.4 1.9-31.8 4.2-36 .6-1.1 1.7-7 2.4-12.9 2.9-23.3 9-35.7 26.6-53.9 5.1-5.2 10.3-10.7 11.6-12.1l2.3-2.6-3.6-21.3c-2-11.8-3.8-22.8-4.1-24.4-4.8-29.3-10.7-54.3-15.9-67.3-5.4-13.8-15.1-33.2-20.9-42.2-10.2-15.8-19.1-30.5-24-40-3.4-6.7-8.5-20.5-9.1-25-.1-1.4-.8-4.3-1.3-6.5-.6-2.2-1.4-9.1-1.8-15.3L106.7 0H0zM179 .5c0 .2 2 3.3 4.4 6.7 9.4 13.4 14.4 25.9 24.1 59.3 14.3 49.3 18.2 73.3 22.5 136.4 1.1 16.2 2.2 29.7 2.4 29.9s2.4-.2 4.7-.9c2.7-.8 10.5-1.3 20.4-1.3 15 0 19.7.6 32.6 3.9l2.6.6 1.7-17.3c4-40.9 6.3-54.8 11-68.7 7.8-23 20.7-38.2 46.8-55.2 28.9-18.7 71.4-33 93.8-31.6 16.8 1.1 33.1 8.8 37.8 17.8 2.2 4.3 2.2 4.7.7 8.3-2.1 5.1-13.9 16.5-23.3 22.7-16.1 10.5-33 17.1-70.2 27.4-41.7 11.5-45.6 17.2-54 77.5-1.1 8-3 20.3-4.1 27.3l-2.2 12.8 2 2.2c1.1 1.2 3.3 4.2 4.9 6.7 4.6 7.2 10.3 14.2 13.8 16.9 1.9 1.4 5.7 6 8.7 10.1 4.7 6.6 5.7 9.1 9 21 2 7.4 4.4 15.2 5.3 17.4 3.6 8.7 4 26.4 1 49.3l-.5 4.3H512V0H345.5C253.9 0 179 .2 179 .5"/></svg>