<svg xmlns="http://www.w3.org/2000/svg" width="682.667" height="512" version="1.0" viewBox="0 0 512 384"><path d="M0 192v192h89c49 0 89-.1 89-.3s.4-2.8 1-5.8c.5-3 1.2-7.2 1.5-9.4s1-6.5 1.5-9.5 2.1-13.6 3.5-23.5 3.5-24.4 4.6-32.3c2.1-14.9 1.8-18.5-1.7-23.7-2.1-2.9-1.7-4.1 2.1-7.6 1.9-1.8 3.5-3.8 3.5-4.5s-1.2-2.7-2.7-4.4c-2.6-3.1-2.7-3.1-3.7-1.1-1.2 2.1-1.2 2.1-2.9.1-.9-1.1-1.7-2.4-1.7-2.8 0-1-7.3-5.2-8.9-5.2-.6 0-1.1 1-1.1 2.2-.1 2.1-.2 2-1.7-.7-1.6-3-1.6-3-2.6-.7-.6 1.2-1.3 2.2-1.6 2.2-1.3 0-8.9-16.6-9.6-20.9-.4-2.4-1-3.8-1.4-3.2s-.6-4.2-.3-10.9c.2-8.2 0-12-.7-12-.6 0-3 1.7-5.3 3.7l-4.2 3.8 2.4-4c3.8-6.5 17-31.4 17-32.3 0-.4 2-4 4.5-8s4.5-7.5 4.5-7.9c0-.3 2.6-4.3 5.7-8.7 3.2-4.5 6.7-9.8 7.8-12 1-2.1 3.7-5.3 6-7 4.5-3.6 16-9.7 21.8-11.6 2-.6 3.7-1.3 3.7-1.6 0-.2-2.5-7.3-5.5-15.8-10.2-28.6-17.4-44-27.6-58.6-5.1-7.3-32.8-35.8-44-45.3L136.3 0H0zM214 .6c0 .4 1.5 3.2 3.4 6.3 13 21.6 23.1 48.4 34.2 91l4.8 18.3 9.6-.7c5.2-.4 9.6-.8 9.6-.9.1 0-1.1-16.3-2.7-36.1-1.5-19.8-3.1-45.6-3.5-57.3L268.7 0h-27.4c-15 0-27.3.3-27.3.6m128 .9c-.6.8-.9 1.9-.5 2.5.3.5.1 1-.5 1-2.4 0-9.9 26.9-10 36 0 2.5-.4 6.1-.9 8s-1.2 7.3-1.5 12-1.2 14.6-2 22c-.9 7.4-2.1 18.4-2.7 24.5-.6 6-1.5 11.7-1.9 12.7-1.1 2-.7 2.3 8.4 7.3 7.5 4.2 20.9 13.9 24.1 17.4 1.1 1.3 4 3.2 6.5 4.3 2.4 1.1 9.2 6.2 14.9 11.2l10.4 9.1 6.8 14c6.1 12.7 7.2 15.9 11.2 33.5 3.8 16.6 4.7 22.8 6.2 42.2 1.6 20.3 1.6 26.4.6 58.5-.7 19.7-1.8 42.7-2.4 51l-1.2 15.3H512V0h-84.4C355 0 343.1.2 342 1.5M211 329.3c0 .1-1.1 6.7-2.5 14.5s-2.5 14.8-2.5 15.4c0 .7 2-1.5 4.3-4.8 2.4-3.2 6.4-7.4 8.8-9.2s5.3-4 6.4-4.8c1.9-1.4 1.8-1.4-1.2-1-2.6.3-3.8-.2-6.7-3-1.9-1.8-3.7-4.3-4.1-5.4-.3-1.1-1.1-2-1.6-2s-.9.1-.9.3m34.4 5.2c-1.9 1.4-1.8 1.4.4 1.5 1.3 0 2.2-.6 2.2-1.5 0-1.9-.1-1.9-2.6 0"/></svg>