<svg xmlns="http://www.w3.org/2000/svg" width="682.667" height="512" version="1.0" viewBox="0 0 512 384"><path d="M0 192v192l93.7-.2 93.7-.3.7-3c1.6-6.4 11.4-79.4 12-90.2.2-2.8-.2-4.8-1.4-6-.9-1-2.2-4.3-2.8-7.3-1.4-6.6-2.5-9-4.3-9-2.4 0-5.8-3.5-7.2-7.5l-1.4-4 3.7-3.2c2.1-1.8 4-3.3 4.3-3.3s1.3-1.3 2.3-2.9c1.7-2.8 1.6-3.1-.4-6.5-1.1-2-2.4-3.6-2.8-3.6-1.6 0-2 1.4-1 2.7.9 1 .7 1.3-.6 1.3-1.2 0-1.5.5-1 1.7.6 1.7-.8.6-7.7-6-3.3-3.1-8.5-2.1-7.9 1.6.1.5-.4.5-1.1.1-.7-.5-1.9-.9-2.6-.9-1.2 0-4.4-5.5-9.7-16.5-.9-1.9-2.1-8.2-2.7-14-.5-5.8-1.1-10.6-1.3-10.8s-1.4.8-2.6 2.2c-1.3 1.5-3.8 3.5-5.6 4.6l-3.3 1.9 3.6-7.1c2.3-4.6 3.2-7.3 2.5-7.7-.7-.5-.3-2.8 1.3-7.1 11.7-32.3 23.2-51.2 37.2-61.6 6.3-4.7 20.1-12 27.8-14.8 2.6-.9 1.8-3.5-7.4-22.1-16.4-33.4-28.2-45.3-70-70.5-5.8-3.5-13.1-8.1-16.2-10.2L116.1 0H0zM202 .5c0 .4 1.7 2.7 3.9 5.3 12.6 15.3 23.9 36.5 37.1 69.9 6.7 17 8.7 21.3 10.2 21.3 1.4 0 1.7-.5 1.3-2.3-.3-1.2-3.9-19.1-8-39.7s-8.5-41.3-9.7-46L234.5.5 218.3.2c-9-.1-16.3 0-16.3.3m96.3 10.2c.4 5.8.7 27.4.7 47.8v37.3l2.8 1c1.5.6 5.4 1.9 8.7 2.8 9 2.4 25.2 10.7 32.4 16.4 3.5 2.9 8.3 6 10.8 7.1 2.5 1 8.9 5.4 14.2 9.7l9.7 7.7 7.5 14c6.6 12.3 8.1 16.2 12.6 32.5 2.9 10.2 5.9 22.5 6.7 27.5 5.2 31.2 8.6 79 8.6 121.1 0 13.2.3 29.6.7 36.2l.6 12.2H512V0H297.7zm-56.5 298.7c-3.1 1.3-8.7 3.1-12.3 3.9-3.7.9-6.9 1.7-7.1 2-.7.6-3.6 17.9-3.1 18.3.2.2 2.4-1.6 4.8-4 5.8-5.7 13.2-10.3 19.4-12.2 7.4-2.1 7.9-2.6 7.1-6.8-.4-2-1.2-3.6-1.9-3.6-.7.1-3.8 1.1-6.9 2.4"/></svg>