<svg xmlns="http://www.w3.org/2000/svg" width="682.667" height="512" version="1.0" viewBox="0 0 512 384"><path d="M0 192v192h174.5l3.5-6.6c1.9-3.7 6.8-11.6 10.7-17.7 4-6 8.2-13.4 9.3-16.3 4-10.9 9.3-19.9 15.4-26.4 3.4-3.6 7.7-9.4 9.5-13s4.5-8.1 6-10l2.8-3.5-.9-11c-1.4-16.7-1.5-16.8-6.8-16.9l-4.5-.1-4.3-8.7c-2.5-5-5.1-9-6.2-9.3-1-.3-2.3-1.9-2.8-3.4-.6-1.6-1.9-3.2-3-3.5-1.9-.7-3.2-4.3-3.2-9.3 0-1.6-1-2.9-3.1-4.1-9.3-5.1-9.6-7.1-1.9-13.9 2.6-2.3 5.3-5.6 6-7.4 1.2-2.9 1.2-3.3-1-4.9-2.4-1.8-9.1-4.2-9.8-3.5-.2.2.5 1.7 1.7 3.4l2.2 3-3.2-.4c-1.7-.2-4.3-1.4-5.7-2.7s-2.1-1.6-1.7-.8c.8 1.3.6 1.3-.7.2-1.4-1.1-1.7-1-2 .3-.2 1.2-.9 1-3.3-1.3-1.6-1.5-3.9-3.9-5.1-5.3-2.7-3.3-8.4-18.2-8.4-21.9 0-4.1-1.5-4.5-4-1-1.2 1.7-2.4 2.9-2.6 2.7s1.2-4.1 3.2-8.6c2-4.6 3.4-8.5 3.1-8.7-.2-.3-2.1 1.2-4.1 3.2s-3.9 3.4-4.2 3.1c-.9-.9 6.3-19.2 12.3-31.1 7.7-15.6 13.7-23.4 23.6-30.7 10.8-8 22.3-13.7 40.9-20.2 1.5-.5 1.2-1.7-2.3-10.9-8-20.7-12.5-28.6-20.8-36.9-7.6-7.6-13.2-11.2-36.9-24.3L161.9 0H0zM269 .9c0 .5.7 4.2 1.5 8.2.8 4.1 3.1 18.4 5 31.9s3.8 25.6 4 27.1c.5 2.4 1.1 2.6 9.9 3.7 10.7 1.3 23.4 5.1 32 9.4 6.3 3.2 15.1 9.3 17.5 12.2.8 1 3.8 2.9 6.5 4.3 4.9 2.4 20.6 17.4 20.6 19.6 0 .5 1.9 5.3 4.1 10.6 10.1 23.6 17 58.7 21.4 110 4.6 52.3 5.5 61.6 7.4 73.1 1.7 9.8 4.4 19.4 8 27.5.5 1.1 3.2 7.6 6 14.5 7.2 17.9 11.5 28.3 12.4 29.7.6 1 10.5 1.3 43.8 1.3H512V0H390.5C319.9 0 269 .4 269 .9"/></svg>