<svg xmlns="http://www.w3.org/2000/svg" width="682.667" height="512" version="1.0" viewBox="0 0 512 384"><path d="M0 192v192h174.8l.7-2.7c1.3-5.1 12.3-26.8 18.1-35.3 3.1-4.7 7.6-12.9 9.9-18.2 5-11.3 9.7-18.7 15.4-24.3 2.3-2.1 4.1-4.4 4.1-5s1.6-3.8 3.6-7.1l3.6-5.9-.7-14.3c-.3-7.9-.9-15-1.2-15.8s-1.6-1.4-2.9-1.4c-3.3 0-5.9-2.9-9.2-10.3-1.6-3.5-4-7-5.5-8s-2.7-2.4-2.7-3.2-1.1-2.2-2.4-3c-1.8-1.2-2.4-2.5-2.4-5.8-.1-4.3-.8-5.2-7.6-10-3.3-2.3-3.3-5.3 0-8 6.4-5.4 7.5-6.6 8.9-10 1.1-2.7 1.2-3.7.2-4.5-1.5-1.3-9.7-3.5-10.4-2.8-.3.3.5 1.9 1.7 3.7l2.3 3.1-2.2-1.1c-1.2-.7-2.5-1-3-.7s-1.4-.1-2.1-.9-2.5-2.1-4.2-2.9c-2.8-1.4-2.9-1.4-2.3.7s.5 2.1-1.6-.3c-1.2-1.4-2.4-2.5-2.8-2.5-.3 0-.5-.6-.5-1.2.1-.7-.2-1.1-.6-.8-2.4 1.5-10-16.6-10-23.6 0-3.7-.7-3.6-4.2.3-2.7 3.2-2.8 3.3-1.8.6.5-1.5 1.8-4.5 3-6.7 2.8-5.6 2.5-6.7-1.1-3.7-1.7 1.4-3.4 2.6-3.9 2.6-1.2 0 8-22.5 13.5-32.7 2.6-4.9 6.8-11.6 9.3-15 8.3-10.9 24.5-21.2 43.5-27.4 5.3-1.8 9.7-3.8 9.7-4.4 0-1.4-5.2-16-10-28-3.6-9-9.8-18.3-15.9-23.8-4.4-4-16-11.7-28.5-19.1L174.7 0H0zM272.2 2.7c1.4 7.8 5.9 39.5 7.3 51.3.9 7.4 1.9 14.3 2.1 15.2.3 1.2 2 1.9 5.2 2.3 21.6 2.9 37.9 9.6 48.9 20.2 2.6 2.5 7.4 6.1 10.5 8 3.2 1.8 6.1 4 6.5 4.7s2.8 3.6 5.2 6.4c2.8 3.3 5.6 8.3 7.9 13.9 5.4 13.7 12 40.2 13.7 54.8.9 7.1 2 15.7 2.5 19s1.4 13.6 2 23c.6 9.3 1.5 23.5 2 31.5s1.2 19.9 1.5 26.5c1.5 27.6 2.6 32.1 18.6 77.2 4.9 13.8 8.9 25.6 8.9 26.2 0 .8 14.3 1.1 48.5 1.1H512V0H271.8z"/></svg>