<svg xmlns="http://www.w3.org/2000/svg" width="682.667" height="512" version="1.0" viewBox="0 0 512 384"><path d="M0 192v192h93.1c88.3 0 93.1-.1 92.3-1.7-.4-1-1-4.8-1.2-8.6-.3-5.3.2-8.4 2.4-15 3.5-10.5 9.7-23.8 16.4-35.2 2.9-5 8.3-15.1 12-22.5s8.8-16.1 11.3-19.4l4.6-5.9-.5-16.1c-.6-19.9-1-22.3-3.3-23.1-1.1-.3-3.2-3.6-5.1-7.8-1.7-3.9-4-7.7-5.1-8.5-1-.7-1.9-1.9-1.9-2.6 0-.8-1-2-2.2-2.8-1.4-1-2.3-2.9-2.7-5.8-.5-3.8-1.2-4.8-4.8-7.3-2.4-1.5-4.3-3.4-4.3-4.1 0-.8 2.1-3.1 4.6-5.1 4.9-4 7.4-8.6 7.4-13.2 0-2.1-.3-2.5-1-1.3-.8 1.3-1.3 1.3-4-.3-3.1-1.9-4-1.2-1.7 1.3 1 1.2.9 1.2-.6.1-2.5-1.9-3.2-.7-1.3 2.1 1.5 2.3 1.5 2.5-.4 2.3-1.1-.1-3-1.1-4.3-2.3s-2.6-1.9-3-1.6c-.4.4-1-.1-1.3-1-.5-1.4-.9-1.5-1.6-.4-.7 1-1.1 1-1.5 0-.2-.6-1-1.2-1.6-1.2-2.8 0-9.7-16.1-9.7-22.4q0-5.4-3.6-.9l-2.2 2.8.3-2.6c.2-1.5.8-3.6 1.4-4.8.9-1.7.9-2-.3-1.5-2.7 1-2.4-1.1 1.3-10.2 4.8-11.7 12.4-25.5 17.3-31.9 8.5-10.7 21.1-18.5 39.1-24.1 10.3-3.1 9.9-1.5 4-17.4-7.5-20.2-16-33.2-27.1-41.4-2.6-1.8-11.8-7.7-20.6-13L174.7 0H0zM275.1 8.7c1.5 7.4 3.2 20.9 7.5 60 .6 5.9 0 5.5 11.5 7.3 14.2 2.1 27.2 8.4 36.7 17.7 3.5 3.5 8 7.2 9.8 8.4 1.9 1.2 5.9 5.1 8.8 8.8 4.5 5.7 5.7 8.3 8.9 18.6 4.1 13.4 8.3 32.7 9.2 42.5.3 3.6 1 10.3 1.5 15 .9 7.4 1.4 21.6 3.4 81.5.3 11.5.7 13.2 8.1 38.5 4.2 14.6 9.1 31.4 11 37.5 1.8 6 4.5 17.4 6.1 25.3l2.8 14.2H512V0H273.3z"/></svg>