<svg xmlns="http://www.w3.org/2000/svg" width="682.667" height="512" version="1.0" viewBox="0 0 512 384"><path d="M0 192v192h92.3l92.2-.1 4.4-7.1 4.3-7.2-1.2-6.6c-1.1-5.6-1-7.5.4-13 2.5-9.5 9.4-25.2 17.3-39.1 3.9-6.8 9.2-17.1 11.9-22.9 4.7-10.3 8.1-16.2 9.6-16.8.4-.2.8-9.8.8-21.3 0-18.2-.2-20.9-1.6-20.9-.9 0-2.7-2.6-4.5-6.4-1.6-3.5-3.9-7.2-4.9-8.1-1.1-1-2-2.4-2-3.1s-.8-1.8-1.9-2.3c-1.2-.7-2.1-2.6-2.5-5.5-.6-3.7-1.3-4.8-4.6-7-2.2-1.5-4-3.1-4-3.7s1.9-2.7 4.1-4.7c5.8-5.1 9-13.2 5.4-13.2-.9 0-2.7-.7-4-1.6-2.6-1.7-3.4-.7-1.2 1.5 1 1.1.8 1.1-1.3.1l-2.5-1.3 2.7 3.5 2.8 3.6-4-1.6c-2.3-.8-5.2-2.6-6.6-3.9l-2.5-2.3.6 2.2.6 2.3-2-2.4c-1.2-1.3-2.1-2-2.1-1.5 0 .4-1-.6-2.3-2.3-2.3-3.2-5.2-11.3-6.2-17.6-.6-3.9-.6-3.9-2.7-2-2 1.8-2.1 1.8-1.3-.6.5-1.8.4-2.2-.6-1.6-1.1.6-1.1.5-.2-.5 1-1.1.9-1.6-.3-2.5-3.2-2.3 12.4-33.7 21.7-43.9 5.8-6.4 17.5-13.2 29.6-17.1 5.1-1.7 9.5-3.3 9.8-3.6.7-.8-5.7-16.5-11.2-27.4-6.5-12.7-17.8-23.9-31.8-31.4-20.7-11.1-29.6-16.3-34-19.7L162 0H0zM272 1.3c0 .7.7 3.3 1.5 5.8 2.3 6.9 4.2 19.6 6.5 43.9 1.2 12.4 2.3 23.5 2.6 24.7.3 1.8 1.3 2.3 5.2 2.8 16.1 2.1 30.3 8.2 39.9 17.2 3.4 3.2 8.6 8 11.5 10.8 7.4 7 10.3 11.7 13.2 21.5 7.4 24.6 10.3 49.7 11.6 98.8 1.1 42.6-.6 32.6 15.6 89.2 5.9 20.8 9.3 35.1 11.6 48.5l3.3 19 58.8.3 58.7.2V0H392c-98.8 0-120 .2-120 1.3"/></svg>