<svg xmlns="http://www.w3.org/2000/svg" width="682.667" height="512" version="1.0" viewBox="0 0 512 384"><path d="M0 192v192h180.7l1.7-4.2c.9-2.4 5-9.7 9.1-16.3 7.1-11.4 7.5-12.3 7.5-17.9 0-9.6 8.2-30.5 19.7-50.2 1.6-2.7 4.2-8.1 5.7-11.9 1.5-3.9 4.5-10.3 6.7-14.3l3.9-7.3.6-18.3c.7-17.7.6-18.3-1.4-20.2-1.2-1.1-3.3-4.6-4.8-7.7-1.4-3.2-3.5-6.3-4.5-7-1-.6-1.9-1.6-1.9-2.2s-.9-1.8-2-2.8c-1.3-1.1-2-2.9-2-5.1 0-2.8-.6-3.8-4-6-2.2-1.4-4-3-4-3.6 0-.5 1.6-2.2 3.7-3.7 3.6-2.8 7.5-9.6 6.7-11.7-.3-.7-2.5-2-5-2.9-3.9-1.4-4.4-1.4-3.4-.2.9 1.1 1 1.5.1 1.5-.8 0-.3 1.3 1 3.2 1.2 1.8 1.6 2.7.9 2-.8-.6-2.1-1.2-2.9-1.2s-2.8-1.2-4.4-2.8c-2.1-1.9-2.8-2.2-2.4-1 1 2.8 0 2.2-4.3-2.4-3.8-4.1-7-12.3-7-17.7 0-1.7-.4-2.2-1.6-1.7-1.2.4-1.5.2-1-.9.3-.8.1-1.5-.4-1.5s-1.4-.9-1.9-1.9c-.8-1.5-.1-4.1 3.3-11.9 12-27.6 22.1-37.6 45.9-45.2 8-2.6 8.1-1.2-.6-18.8-10.4-21-16.5-26.6-43.7-39.9-23-11.2-26.6-13.3-38.6-23L146.2 0H0zM268 1.3c0 .7.4 1.7.9 2.2 1.7 1.9 5.2 14 7.1 25 1 6 2.6 20.2 3.5 31.5s2 20.9 2.4 21.3c.5.4 3.9 1.2 7.7 1.8 15.2 2.1 24.3 6.6 38.1 18.8 14.9 13.2 16.8 16.8 22.4 41.1 3.1 13.6 5.8 43 6.9 77l1 31.6 4.4 15.9c2.5 8.8 6.6 23.2 9.2 32 8.4 28.8 10.3 36.8 13.3 55.5 2.2 14.1 2.7 19.6 2.1 23-.5 2.5-.9 4.8-1 5.2 0 .5 28.4.8 63 .8h63V0H390c-99.4 0-122 .2-122 1.3m-36 16.4c.6 1.3 1.5 2.3 1.9 2.3.5 0 1.8 1.5 3 3.2 1.1 1.8 2.1 2.7 2.1 2s-1.8-3.2-4.1-5.5c-2.4-2.5-3.6-3.3-2.9-2"/></svg>