<svg xmlns="http://www.w3.org/2000/svg" width="682.667" height="512" version="1.0" viewBox="0 0 512 384"><path d="M0 192v192h177.7l2.2-12.7c3.4-19 5-25.4 7.2-29.7 1.1-2.2 8-11.8 15.2-21.3 7.3-9.5 14.2-19.2 15.4-21.6 5.9-11.2 13.3-28.2 16.2-36.9 1.8-5.3 4-10.7 5-12 4-5.2 5.1-10.4 5.1-23.8 0-12.6-.1-13-2.4-14.5-1.3-.9-3.3-3.8-4.5-6.5s-2.7-5.3-3.4-5.7c-2.3-1.5-5.7-7.2-5.7-9.7 0-1.8-.9-3-3-4.1-4-2.1-3.8-3.7 1-8.5 2.2-2.2 4-4.7 4-5.5 0-1.5-5.8-5-6.8-4.1-.3.3.3 1.5 1.3 2.6 1.7 1.8.8 3-.9 1.2-.4-.4-1.1-.7-1.4-.8-.4 0-1.5-.4-2.4-.8-1.4-.6-3.7-1.2-5.9-1.5-1.3-.2-5.5-9-6.4-13.6-.8-3.6-1.5-5-2.7-4.9-1.6.1-1.7-2.3-.3-4.7.4-.6 0-.9-.8-.7-2.1.4-2.2-.1-.7-4.7 3-9.6 11.4-23.9 17.4-29.9 5.8-5.8 15.3-11.5 22.1-13.2 1.4-.4 2.9-1.3 3.2-2 .9-2.4-10.8-21.4-17.3-27.9-7.3-7.3-15.6-11.9-32-17.6-17-5.9-26.7-10.7-36.1-17.8-8.7-6.6-10.7-8.9-11.5-13.5C147 8 170 4.8 190.7 11.8c24.8 8.4 44.9 23.5 57.3 43 2.9 4.6 5.4 8.1 5.7 7.8.8-.8-4.7-21.1-7.2-26.1-2.1-4.4-3.3-5.5-7.7-7.5-12.4-5.5-14.1-6.4-17.3-9.5-4-3.7-4.6-7.7-2-13.8.8-2 1.5-4.1 1.5-4.7 0-.7-35.2-1-110.5-1H0zM263 .4c0 .2 1.8 2.5 3.9 5.2 10.6 12.8 15 30.8 15.2 62.8 0 6.6.4 14.1.7 16.6l.7 4.5 5 .6c14.4 1.8 24 6.8 36.8 19.4 9.4 9.2 9.6 9.5 12.1 17.7 6.3 21.1 8.5 39.6 10.1 82.8.3 9.1 1 19.3 1.6 22.6.5 3.4 5.2 20.5 10.5 38 11.6 38.3 10.7 34.8 14.4 56.5l3 17.6-2.9 14.9c-1.7 8.2-3.7 17-4.5 19.6l-1.5 4.8H512V0H387.5C319 0 263 .2 263 .4"/></svg>