<svg xmlns="http://www.w3.org/2000/svg" width="682.667" height="512" version="1.0" viewBox="0 0 512 384"><path d="M0 192v192h228v-8.4c0-4.6.7-14.8 1.6-22.7 2.5-23 2.5-22.9-2.7-14.9-3.4 5.4-10.9 15.2-13 17-.3.3-1.8 2.2-3.3 4.2-1.6 2.1-5.6 5.5-8.9 7.5-5.7 3.5-5.9 3.7-3.6 4.5l2.4.9-2.8 1.5c-1.5.8-2.5 1.9-2.2 2.4.4.6.1 1-.4 1-.6 0-1.1.6-1.1 1.4 0 1.8-2.2 2.6-4.9 1.9-1.2-.3-3.7.2-5.7 1.2-3.4 1.6-3.8 1.6-8.2-.3l-4.7-2.1-1-6.6c-.7-4.6-1.6-7.1-2.9-8.1-1.7-1.2-1.8-1.9-.8-8.6.6-4 1.4-9.6 1.7-12.3.8-6.7 2.3-10.5 5.4-13.6 1.4-1.4 3.8-4.1 5.3-6.1 1.6-2.1 5.7-5.1 10.5-7.6l7.9-4.1 13.8-21.6c20.2-31.9 21.6-34.4 22.5-42.7.4-3.1 1.4-6.5 2.3-7.5s2.4-4.6 3.3-8c1.3-4.7 2.8-7.3 6.2-10.7l4.4-4.5-.3-8.3c-.3-8.1-.4-8.3-2.8-8.3-1.9 0-3-1-5-4.6-1.4-2.5-3.7-6.2-5.3-8.2-1.5-2-2.7-4.3-2.7-5.2 0-.8-1.6-3.2-3.6-5.2l-3.6-3.6 3.8-3.3c3.8-3.3 3.8-3.4 2-4.9-1.5-1.1-2.2-1.2-2.7-.3-.5.8-1.8.1-4-2.3-3.1-3.2-3.2-3-1.2 1.9.5 1.1.2 1.2-1.3.2-3.1-1.9-6.2-7.4-8.1-14-1.6-5.9-1.7-6-3.6-4.3-1.9 1.8-2 1.8-.5-1.2.9-1.7 1.9-4.1 2.3-5.5l.8-2.5-2.3 2-2.3 2 .7-3c1.1-4.6 8.4-18.9 12.2-24 3.8-4.9 12.2-11 19.7-14.3l4.8-2.1-3.8-6.1c-10-16.2-18.5-22.1-41.8-29-16.1-4.8-27.4-10.3-34.7-16.9-4.5-4-7.8-9.1-7.8-12 0-1.5 4.9-4.2 10.8-5.8 13.3-3.5 38.5 3.5 57.7 16.1 10 6.6 21.7 19.4 27.1 29.7.8 1.7 1.7 2.9 2 2.7.4-.5-1.7-11-4.1-20.3-.9-3.3-2.8-8.5-4.3-11.5-2.4-4.9-3.4-5.9-9.2-8.7-8.2-4.1-13-9.1-13-13.5 0-8.2 5-16.6 11.7-20.2 6.7-3.4 15.4-.3 24.5 8.7 10.2 10 14.6 21 16.7 42.2.6 5.9 1.1 14.5 1.1 19s.3 11 .6 14.4c.7 6 .7 6.1 3.8 6.1 4.5 0 15.8 3.4 20.4 6.2 6.8 4 17.7 13.1 20.6 17.2 1.5 2.1 3.4 6 4.1 8.5.6 2.5 2.1 8 3.3 12.1 2.5 9.2 3.8 20 5.7 49 .9 12.4 2 25.6 2.6 29.5.7 3.8 5.8 21.1 11.6 38.3 12.5 38 16.8 56.1 15.8 67.2-.4 4.1-.9 11.1-1.1 15.5s-1.5 13.2-2.9 19.7c-1.5 6.5-2.4 12.2-2 12.7.3.6.6 4.2.7 8l.1 7.1H512V0H0z"/></svg>