<svg xmlns="http://www.w3.org/2000/svg" width="682.667" height="512" version="1.0" viewBox="0 0 512 384"><path d="M0 192v192h221.5l.2-8.8c.1-4.8 1.4-15.4 2.8-23.4 1.4-8.1 2.5-16.8 2.5-19.2 0-2.5.9-12.5 2.1-22.3 1.1-9.8 1.8-18.7 1.5-19.9-.3-1.1-1.7-3.3-3.1-4.8s-3.2-4-4-5.7c-.9-1.6-1.8-2.9-2.1-2.9s-3.2 2.2-6.5 5c-3.3 2.7-7 5.5-8.2 6.1-1.2.7-2.4 1.5-2.7 1.9-1.4 2-9.4 5-13.2 5-5.4 0-12.1-3-14.3-6.3-1.3-2.1-6.3-15.2-14.2-37.4-1-2.9-2.3-4.5-4.1-5.2-4.6-1.7-6.8-4.3-6.9-8.1 0-1.9-.4-4.3-.8-5.3-.4-1.1-.2-3 .5-4.5 2.8-5.8 3.9-8.9 5.2-13.6 1.4-5.4 4.5-8.2 7.9-7.3 1.2.3 2.9.1 4-.6 1.4-.9 2.8-.6 6.9 1.3 6.2 2.9 9.6 6.1 10.3 9.8.4 1.6 2 3.6 4 4.9 3 1.9 3.7 3.2 6.1 12 1.6 5.4 3.2 10.2 3.6 10.6.4.5 6.4-3.8 13.1-9.6 16.3-13.8 20.2-17.6 23.4-22.8 1.5-2.4 3.8-5.3 5.1-6.4l2.4-2.1-1.5-7.9c-.8-4.7-2.8-10.7-4.7-14.5-5.2-10-6.7-14.7-6.1-18.4.3-2 .1-3.6-.6-4-.6-.4-1.1-1.3-1.1-1.9 0-.7.4-.6 1.1.3.9 1.3 1 1.3.6 0-.5-1.6-1-1.6-3.9-.5-1.4.6-1.8.2-1.8-1.4 0-1.2-.7-2.4-1.5-2.7-2.2-.9-6.2-8.3-6.9-12.9-.9-5.1 2.9-13 11.2-23.4 6.3-7.8 10.7-11.1 18.5-13.7 5.1-1.7 5.2-2 3.6-7.7-1.3-4.9-3.5-6.2-14.4-8.6-15.2-3.3-26.8-8.4-33.7-14.9-1.6-1.4-2.8-3.2-2.8-3.9s1.8-2.5 4.1-4c5.6-3.7 16.2-4.3 27.4-1.5 4.4 1 8.9 2.3 10 2.7l2 .8-2-2.2c-3.1-3.6-8.4-5.8-21.1-9.1-6.4-1.6-14-4-16.9-5.4-6.1-2.8-13.5-9.1-13.5-11.5.1-2.1 5.5-9.3 8.3-10.8 3-1.7 15-1.6 21.5.1 9.6 2.6 23.3 10 29.5 16 8 7.7 11.3 15.4 14.2 33.1.4 2.2 1.9 6 3.5 8.5s3.8 6.6 4.9 9.2c1.8 4.2 2.4 4.8 5.8 5.3 8.2 1.4 10 1.8 14.8 4.1 9 4.1 15.4 10.1 19.8 18.4 7.5 14.2 9.7 26 11.7 62 1.4 24.9 1.8 27.1 8 41.5 10 23.2 12.3 29.1 15.6 40.5 2.9 10 3.4 13 3.4 22.6 0 7.7.6 13.6 2 19.1 2.7 11 4.7 21.4 7 37.3 2 13.6 5 36.7 5 38.2 0 .4 33.3.8 74 .8h74V0H0z"/><path d="M251.4 190.7c.3 2.1.5 3.9.6 4.1 0 .2.5 0 1-.3.6-.3 1-2.2 1-4.1 0-2.4-.4-3.4-1.6-3.4s-1.5.8-1 3.7"/></svg>