<svg xmlns="http://www.w3.org/2000/svg" width="682.667" height="512" version="1.0" viewBox="0 0 512 384"><path d="M0 192v192h226.3l-.7-5c-.3-2.8-.9-7.2-1.2-9.8-.4-3.2.1-9.2 1.5-16.9 1.2-6.9 2.3-18.1 2.6-25.9.2-7.7 1.3-19.5 2.4-26.4 2.9-17.6 2.8-20.1-1.5-27.1-1.9-3.2-3.8-7.4-4.1-9.3l-.5-3.5-6 3c-5.5 2.8-13.9 5.7-21.1 7.3-3.2.8-10.2-2-13-5.1-2-2.3-4.6-8.9-8.2-20.3-1.2-4.2-3.4-10.5-4.8-14-1.4-3.6-2.8-7.5-3.2-8.8-.4-1.4-1.4-2.2-2.8-2.2-1.8-.1-8.7-5.1-8.7-6.4 0-.2 1-2.5 2.2-5.2s2.1-5.2 2-5.7c-.3-1 3.8-9 5.1-9.8.5-.4.7-1.1.3-1.7-1.2-1.9 2.5-4.4 5.8-3.9 1.7.2 3.9 0 4.9-.5 1.3-.7 3.2-.1 7.2 2.2 6 3.4 8.9 6.8 10 11.8.3 1.8 1 3 1.5 2.7 2-1.3 5.7 5 9.3 15.9 2.1 6.4 4.3 11.6 4.8 11.6 1.2 0 23.9-13.8 26.2-15.9 1.6-1.6 1.6-2.2.1-11.6-.9-5.5-1.8-16.9-1.9-25.3-.2-9.5-.7-15.8-1.4-16.5-.6-.6-1.1-2-1.1-3.2 0-1.1-.4-2.6-.9-3.4-.7-1.1-1.2-.6-1.9 2-1 3.3-1 3.3-1.1.6-.1-1.6-.5-2.6-1.1-2.2-.6.3-1-.4-1-1.8 0-1.3-.7-3.9-1.6-5.7-3.6-7.1 1-23 8.4-29 2-1.6 5.7-4.6 8.1-6.5 2.4-2 6.5-4.5 9.1-5.6l4.7-2-1-6.2c-.5-3.4-1.3-6.7-1.8-7.3s-3.1-1.9-5.7-2.9c-8.5-3.3-15.1-10.1-13.2-13.6.8-1.4 5-3.5 10.5-5.4 1.7-.6 1.5-.9-1.5-2-1.9-.8-8.8-2.3-15.2-3.5-18.6-3.2-31-8.6-34.1-14.9-1.3-2.5-1.3-3.3-.1-4.9 1.9-2.7 12.6-6.2 19.1-6.2 7.1 0 18.9 3.3 29.1 8 10.1 4.7 18.1 12.5 21 20.3 1.6 4.2 2.5 5.2 5.8 6.5 11.3 4.4 17.1 11.4 19.8 24 1 4.5 2.1 8.2 2.5 8.2 2.4 0 10.7 7.1 17.6 15 9.5 10.9 9.1 10.4 11.7 18.8 1.9 6 2.2 10.3 2.7 39.7l.6 33 7.2 16.5c3.9 9.1 9.4 21.7 12.2 28s5 11.8 4.9 12.2c-.2.4-3.6-4.8-7.7-11.7s-7.6-12.3-7.9-12c-.2.2 1 2.8 2.7 5.8 3.8 6.6 8.6 18.2 9.6 22.8.3 1.9 3.5 10.6 7 19.4 6.9 17.5 9.2 24.7 12.9 40.5 3.2 13.7 8.9 47.9 8.2 49.6-.5 1.2 10.8 1.4 69.9 1.4H512V0H0z"/><path d="M266.4 97.5c-.7 2.9.1 4.5 2.5 4.5 1.4 0 1.7-.6 1.3-2.9-.5-3.8-3-4.8-3.8-1.6m-22.3 88.7c0 1.3.4 4.3.8 6.8.8 4.4.9 4.4 1-2.3 0-3.9-.3-6.7-.9-6.7-.5 0-1 1-.9 2.2m98.5 158.3c.6 3.1 1.1 4.1 1.8 3.4.2-.2-.2-1.8-1-3.4l-1.4-3zm1.6 5.5c0 .8.6 3.1 1.3 5s1.3 2.8 1.3 2-.6-3.1-1.3-5-1.3-2.8-1.3-2"/></svg>