<svg xmlns="http://www.w3.org/2000/svg" width="682.667" height="512" version="1.0" viewBox="0 0 512 384"><path d="M0 192v192h122.9c120.7 0 122.9 0 123.4-1.9.6-2.3-1-3.1-6.3-3.1-3 0-4-.5-4.5-2-.4-1.1-2.3-2.9-4.3-4-6.6-3.4-16.3-12.6-18.8-17.8-1.4-2.8-1.9-6.7-2.2-16.5s-.7-13-1.8-13.4c-.9-.3-1.2-1.3-.8-2.9.4-1.5.2-2.4-.5-2.4-1.3 0-1.5-3.2-.2-4.6.5-.5 2.9-5.9 5.4-11.9 2.5-6.1 6.1-14.5 8.1-18.8s3.4-8.2 3.1-8.8c-.4-.5-.3-.9.2-.9.4 0 .9-2.1 1-4.8l.2-4.7-1.7 2.7c-2.2 3.6-3.5 3.6-2.1 0 7.7-19.4 12.7-37.5 15.4-54.7.3-2.2.8-5.2 1.1-6.8.3-1.5.1-2.7-.5-2.7-2.9 0-22.1 33.8-22.1 38.9 0 1.6-.4 2.1-1.4 1.8-.9-.4-1.7.1-1.9 1.1-.3 1.1-.5.8-.6-.8-.1-3.1-1.1-2-5.1 5.8-1.8 3.5-3.4 6.1-3.6 5.9-.8-.8 2.8-18.3 4.6-22.5 2.5-5.6 9.6-16.2 15.4-23 6.1-7.2 15.6-22.6 15.6-25.5 0-2.2-4.1-5.4-6.3-4.9-2.2.6-4.1-3.4-4.4-9.1-.3-3.4-.6-6.4-.8-6.6-.8-.8 3.2-4 5.8-4.6 1.5-.4 3.4-1.6 4.1-2.7.9-1.2 2.3-1.8 3.6-1.6 2 .3 2.5-.8 5.5-9.8 5.6-17.2 10.1-23.7 20.6-30.2 2.1-1.2 3.9-3.2 4.2-4.5.3-1.2.9-8.5 1.2-16.2.8-16.9.3-18.9-5.5-20.5-5.9-1.6-9-3.1-9-4.5 0-2.6 6.8-8.2 10.7-8.8 10.2-1.6 17.7 3.3 20.8 13.7 1.4 4.7 1.4 6-.5 17.6-1.2 6.9-2.2 13.1-2.3 13.9-.2 1.3 2.4 2.2 16 5.7 1.8.5 2.6-.2 4.9-4.7 8.6-17.2 17.6-28.4 25.6-31.8 9.7-4.2 20.2-3.4 21.4 1.5.9 3.5-.3 8.8-2.7 11.8-1.2 1.5-4.1 3.2-7.2 4.1-7.8 2.3-11.7 5.4-19.4 15.6-10.6 14.2-10.1 12.3-5.1 20.9 4 6.9 4.3 8 4.3 14.5-.1 4.4-.7 8.3-1.7 10.5-1 1.9-2.7 6-3.8 9-1.2 3-3.3 7.5-4.7 9.9-2.7 4.6-5.7 15.6-4.7 17.2.3.6.1 1.6-.5 2.3-.9 1-.2 2.5 2.8 6.2 8.7 11.1 9.1 14.5 2.1 20.7-5.3 4.8-5.8 6.3-4 12.7.5 1.9 1.1 4.6 1.4 6 1.1 5.5 4.7 19.8 6.1 24 .8 2.5 3.1 9.4 5 15.5 2 6 4 11.9 4.5 13 .4 1.1 1 2.9 1.3 4s.8 2.9 1.3 3.9c.6 1.5.4 1.7-.6 1.1s-1.2-.4-.7.9c.4 1 .7 2.1.7 2.4 0 .4.5 0 1-.8.8-1.1.9-.9.5 1-.4 1.5.4 5.2 2 9.3 1.4 3.8 2.1 6.6 1.5 6.2-1.5-.9-1.2.3 2.1 8 3.2 7.4 6.9 19.1 6.5 20.2-.3.8-.2 1.2.2.9.4-.2.7 1.3.7 3.4s-.3 3.6-.7 3.4c-1.1-.7-1.1-.4 1.7 7.2 2.8 7.7 3.1 10.4 1.3 10.4-.7 0-2.3 1.1-3.5 2.4-1.8 1.8-2.2 3.1-1.7 5.5l.7 3.1H512V0H0z"/><path d="M330 314.5c0 .5.5 1.7 1 2.5s1 1 1 .5c0-.6-.5-1.7-1-2.5s-1-1.1-1-.5m-98.6 23.8c-.7.8-.7 2.3 0 4.8.6 2.4.6 6 0 10.3-1 6.7-.7 7.8 1.6 5.1 1.8-2.2 3.3-1.8 2.7.6-.4 1.6-.1 2 1.6 1.7 1.4-.2 2.3-1.1 2.5-2.5.3-2.1-4-14.5-5.8-16.8-.4-.6-.9-1.7-1.1-2.6-.3-1.2-.7-1.3-1.5-.6"/></svg>