<svg xmlns="http://www.w3.org/2000/svg" width="682.667" height="512" version="1.0" viewBox="0 0 512 384"><path d="M0 192v192h243.8l1-4.7c.9-3.9.7-5.3-.8-8.4-1.1-2-2.5-3.9-3.3-4.2-1.5-.6-3-5.7-1.7-5.7.4 0-.3-3-1.7-6.7-5.4-15-8.8-32.9-9.5-51l-.2-5.1-2.2 3c-1.2 1.6-3.9 5.8-6 9.3-2.4 4.2-4.4 6.5-5.8 6.7-1.9.3-2 .9-1.8 6.5.2 6.5-1.1 11.8-2.8 10.8-.5-.3-1 .1-1 1.1 0 1.3.6 1.5 3.1 1 2.8-.5 3.1-.4 2.6 1.5-.5 1.8-.2 1.9 2.2 1.4 2-.4 3.2 0 4.5 1.4 1.7 1.9 1.7 2-.3 3.1-1.2.6-1.9 1.6-1.5 2.1.3.6-.2 1.7-1.2 2.4-2.5 1.9-.6 1.8 2.6 0 3.6-2 4.6-1.8 2.5.5s-5.4 2.5-10.7.7c-2.5-.9-5.5-3.5-9.6-8.4-6.6-7.8-6.7-8.2-8.1-25.1-.5-5.7-1.4-10.8-1.9-11.5-2.5-3.2-2.1-6.2 1.7-12.7 2.1-3.6 7.3-12.6 11.6-20 4.2-7.4 9.2-15.8 11-18.5 2.9-4.4 8.7-13.5 18.6-29.5 1.5-2.5 3.1-6.3 3.5-8.5l.7-3.9-4.4 3.7c-2.4 2.1-7.5 6.4-11.4 9.5-3.8 3.1-7.5 6.1-8.1 6.7s-4.1 3-7.7 5.4c-5 3.2-7.5 4.2-10.8 4.3-2.4 0-6.1.7-8.2 1.4-6 2.1-5.8 1.7 1.8-2.7 6.8-4 10.2-6.3 20.8-14.3 8.3-6.3 27.5-23.6 28.2-25.4.4-1 1.1-8.9 1.5-17.7 1.1-20.9 1.8-27.5 3.7-35.9 3.2-14.5 7.5-20.3 21.9-29.8l6.1-4 .6-12.7c.4-6.9.7-16.3.7-20.8 0-8.1.1-8.3 3.5-11.8 3-2.9 4.3-3.5 7.9-3.5 3.1 0 4.8.6 6.3 2.2 4.9 5.4 5.6 10.3 1.9 13.5-1.8 1.6-2.7 3.9-3.6 9.4-.7 4.1-1.8 10.3-2.5 13.9-1.1 5.5-1.1 6.7.1 7.6 1.5 1.2 10.1 2.7 11.3 1.9.4-.2 3.2-4.4 6.1-9.2 7.7-12.6 19.2-23.9 29.5-28.9 7.4-3.6 8.7-3.8 16.9-3.9 8.4 0 9 .1 10.9 2.7 2.6 3.4 1.8 6.6-3.1 11.6-3 3.2-5.4 4.5-12.6 6.6-13.4 4.1-16.7 6.6-29 22.1-5.2 6.6-5.4 7-3.8 8.8 7 7.7 12.5 23.1 10.3 28.9-.5 1.3-3 4.6-5.6 7.2-4.4 4.6-4.7 5.2-5.5 12.4l-.9 7.7 7.3 7.1c4.1 4 7.9 8.1 8.5 9.2 2.8 5.3-.5 17.9-6 22.8-1.3 1.1-5.2 3.1-8.6 4.3-9.7 3.6-10.7 5.5-7.9 14.4 2.2 7.1 1.7 12.4-1.9 19.9-4.4 9-4.6 12.4-1.5 26.1 1.5 6.7 3.9 14.3 5.3 16.9 7.1 13.2 14.7 44.6 17.8 73.1l1.2 11.7H512V0H0z"/></svg>