<svg xmlns="http://www.w3.org/2000/svg" width="682.667" height="512" version="1.0" viewBox="0 0 512 384"><path d="M0 192v192h237.3l-.6-11.9c-.4-6.5-1.2-13.2-1.8-14.7-.7-1.9-1.2-16.1-1.4-40.9-.2-22.3-.8-40.2-1.4-43.4-.6-2.9-1.1-5.5-1.1-5.7s-.4-.4-1-.4c-.5 0-2.2 2.1-3.7 4.7-1.5 2.7-5.3 8.9-8.4 14l-5.7 9.1 2 6.6c1.6 5.3 1.8 6.9.8 8.1-.7.8-1.6 1.3-2 1s-1 .9-1.4 2.7c-.6 3.1.7 5.8 2.8 5.8.6 0 2.2.7 3.5 1.6l2.4 1.7-2.4 1.3c-1.3.7-3 1.3-3.7 1.4-.7 0-2 .6-2.8 1.4-1.2 1.3-1.1 1.6.7 2.1 3.9 1.3 1.4 1.3-3.1.1-6.3-1.8-8.2-2.7-12-5.9-3.7-3.2-4.8-7.4-4.9-18.8-.1-3.9-.7-7.9-1.6-9.5-1-1.9-1.3-4.2-.9-6.7.6-3.6 5.3-15.3 10.7-26.2 1.3-2.8 3.4-7.1 4.6-9.7s3.6-6.5 5.3-8.5c6.8-8 6.5-7.6 4.3-7-3.6 1.1-19.5 4.5-19.5 4.2 0-.2 5.5-3 12.3-6.4 14.9-7.3 21.9-12 27.8-18.6 10-11.1 9.3-8.2 10-41 .8-37.9 1.4-40.1 13-51.1 3-2.8 7.5-5.9 10.2-6.9l4.7-1.8V101c0-16.8 1.4-22.2 7.5-28.4 2.3-2.4 6.2-5.1 8.8-6.1 4.1-1.5 5.1-1.6 8.8-.4 5.2 1.7 8.4 5.7 7.5 9.2-.5 2-2.1 3.1-7.7 5.3-3.9 1.5-7.7 3.8-8.5 4.9-1.2 1.9-2.2 7.6-3.7 22.2-.4 3.7.5 6.3 2.4 6.3.4 0 3.2-4.7 6.4-10.4 3.1-5.8 8.2-13.2 11.1-16.5 12.7-14 34.9-23.5 47.2-20.2 8.7 2.3 10.2 5.7 5.1 11.5-4.1 4.8-7.8 6.9-18.4 10.5-4.9 1.7-11 4.1-13.4 5.3-5.5 2.8-12.9 10-17.8 17.4l-3.8 5.7 2.4 1.5c2.6 1.8 11.3 14.2 13.3 19.3 2 4.7 1.2 14.9-1.1 14.9-.4 0-2.2 1.3-4.1 2.9l-3.5 3 3.7-.6c3.5-.5 4.3 0 18 11.5 17.1 14.3 17.7 14.9 18.5 19.6 1 6-3.3 13.2-10.9 18.3-7.9 5.2-16.9 9.6-23.1 11.3-7 1.9-7.7 3.4-7.7 17 0 10.4-.3 12.1-2.5 16.7-2.3 4.5-5.7 14.5-7.2 21-.4 1.5.6 3.8 3 7 1.9 2.6 4.4 6.6 5.5 8.8s4.5 7.5 7.5 11.7c3.1 4.3 6.7 11 8.2 14.9 1.4 3.8 3.1 8.2 3.9 9.7 1.2 2.3 1.1 3.3-.7 8.4-2.1 5.8-2.1 6-.4 19.6.9 7.5 2 17.4 2.3 22l.7 8.2H512V0H0z"/><path d="M301 178.9c0 1.3 2.9 4.1 4.2 4.1.7 0 .1-1.1-1.2-2.5-2.6-2.7-3-3-3-1.6m-16.5 179.5c-.2.6-.8 4.5-1.5 8.6-.6 4.1-1.6 9.4-2.1 11.7s-.9 4.4-.9 4.7 3.8.6 8.5.6 8.5-.2 8.5-.5c0-.7-3.9-17.6-5.1-22.1-.9-3.6-1.4-4.1-4.1-4.1-1.6 0-3.1.5-3.3 1.1M241 374.7c0 1.6-.7 4.1-1.5 5.7-2 3.7-2 3.6 1.6 3.6h3.1l-.6-4.8c-.8-7-.9-7.2-1.8-7.2-.4 0-.8 1.2-.8 2.7"/></svg>