<svg xmlns="http://www.w3.org/2000/svg" width="682.667" height="512" version="1.0" viewBox="0 0 512 384"><path d="M0 192v192h254v-4.3c-.1-2.3-.7-6-1.5-8.2s-1.1-5-.8-6.4c.4-1.5.2-2.2-.4-1.8s-1.3 2.1-1.7 3.9c-.5 2.4-.9 2.9-1.5 1.9-.7-1.1-1-1-1.5.5-.3 1.1-.4.7-.2-.8.2-1.6-.3-3.3-1-3.9-1.1-.9-1.5-.5-2 2-.4 1.7-1 2.8-1.5 2.5s-.9.1-1 .8c0 .7-.4.4-.9-.7-.6-1.5-.9-1.6-.9-.4-.1 1-.9 1.5-2.3 1.4-2-.2-2.3-.7-2-3.6.1-2.5 0-3-.8-1.9-.5.8-1 2.3-1 3.2s-.4 1.9-.9 2.2c-.4.3-.6-.7-.4-2.2.3-2 .2-2.3-.5-1.3-1.5 2.1-4.5 2.4-3.8.4.6-1.4.4-1.4-1-.2-1.6 1.3-1.7 1-1-4.1.4-3 1-6.5 1.3-7.8.9-3.8-1.3-2.4-2.5 1.5-1.3 4.1-5 10.8-5.7 10.1-.2-.2.2-2.9 1-6 1.1-4.1 7.7-39.2 9.8-51.6.1-.9-1.2-1.5-4.3-1.7-3.2-.3-4-.1-3 .6 1.1.8.7.9-1.5.4l-3-.6 3 2.1c2.8 2 2.8 2.1.5 1.5-5.8-1.6-15-6.5-16.6-9-1.2-1.9-1.8-5.1-2-10.8-.2-5.1-.8-8.3-1.6-8.8-1.9-1.2-1.4-8.2 1.5-20.9 3.4-14.9 4.1-17.4 6.7-21.5 2-3.2 23.5-24 26.6-25.8.8-.5 4.4-4.2 7.9-8.4l6.5-7.6v-8.6c0-4.7-.5-12.9-1.1-18.1s-1-15-1-21.8c0-10 .4-12.9 2-16 3-5.7 9.9-11.8 17.4-15.2 6-2.7 6.8-3.4 6.3-5.3-.3-1.2-.8-6.3-1.2-11.3-.9-12.1.9-18.5 7-24.7 8.4-8.7 19.7-12.4 27.9-9.3 4.2 1.6 4.5 1.6 11.1-.9 8.7-3.3 19.5-3.5 24.4-.5l3.3 2-1.8 3.1c-3.8 6.6-8.5 9.6-33 21-5.2 2.5-12.3 10.1-15.7 16.7-1.4 2.8-2.6 5.5-2.6 6 0 .4 2.3 1.4 5.1 2.1 3.2.9 6.7 2.7 9 4.8 4.8 4.3 10.9 12.5 10.9 14.6 0 .9 1 1.9 2.3 2.3 3.6 1.1 10.3 7 11.7 10.4 1.1 2.7 1.6 3 4.2 2.5 3.1-.7 5 .8 24.6 19.2 6.7 6.4 7.2 7.2 7.2 11.1 0 5.4-3 11.3-7.3 14.6-3.2 2.4-27.8 14.6-32.2 16-1.9.5-2 1.4-2 11.8 0 9.8-.3 11.9-2.2 15.5-2.3 4.1-11.3 12.8-13.4 12.8-.6 0-2.2 3.7-3.5 8.2l-2.3 8.2 5.7 10c4.6 8.2 7.9 12.4 17.3 21.9 6.4 6.5 13.2 13 15 14.4l3.4 2.7-9.3 8.7c-8.8 8.2-9.3 8.9-8.8 12 .6 3.1 3.5 37.7 3.6 42.1v2.3h180V0H0z"/><path d="M289.1 86.4c-3 1.7-5 5.3-5 9.1v3l2.1-4c1.1-2.2 3-5 4.1-6.2 2.5-2.8 2-3.6-1.2-1.9m21.6 74.3c-.2.5-.9 2.6-1.6 4.8-1.2 3.9-1.1 4.4 3.3 13.9 4.3 9.3 4.7 9.8 7.1 9.2 5.4-1.4 13.6-4.8 13.3-5.6-.2-.5-3.3-4-7-7.9-3.8-3.9-6.8-7.7-6.8-8.5 0-.7-1.5-2.5-3.4-4-3.7-2.8-4.3-3-4.9-1.9m-14.2 15.5c1.1.6 3.2 2.4 4.7 3.9 3.6 3.8 5.3 3.8 3.3-.1-1.7-3.3-4.3-5-7.7-5-2.2.1-2.2.1-.3 1.2m22.2 52.3c-4 14.9-6 21.1-6.9 22.2-.6.8-.8 1.6-.5 1.9.8.9 4.4-5.1 6.8-11.5 1.3-3.6 1.9-7.2 1.7-10.5-.3-4.6-.4-4.8-1.1-2.1m-86.1 21.8c-.9 1.2-2.7 7.9-4.1 14.7l-2.6 12.5 3.2 5.9c3 5.5 3.3 5.8 4.1 3.6.8-2.1 1.9-12.3 3.5-31.8.5-6.2.3-7.2-1-7.2-.9 0-2.3 1-3.1 2.3m-8.1 39.8c-1 1.6 1.5 9.6 3.6 11.5 1.7 1.5 1.8 1.5 2.4-1.2.4-1.6.8-3.4 1-4.1.2-.6-.3-1.7-1.1-2.3-.8-.7-1.4-1.8-1.4-2.5s-.7-1.6-1.6-1.9c-2.1-.8-2.2-.8-2.9.5m64.6 54.1c-.8 2.3-3.1 28.3-3.1 35.7v4.1h8c4.4 0 8-.4 8-.8 0-1-3-14.9-6.1-28.2-2.3-10.2-3.4-13-5-13-.5 0-1.3 1-1.8 2.2"/></svg>