<svg xmlns="http://www.w3.org/2000/svg" width="682.667" height="512" version="1.0" viewBox="0 0 512 384"><path d="M0 192v192h134c73.7 0 134-.2 134-.5s-1.1-6.7-2.5-14.1-2.5-14.1-2.5-14.7c0-.7-.9-.1-2 1.3-1.8 2.3-2 2.4-2.1.5-.2-2.8-.2-2.8.6-5.2.5-1.8.3-2.2-.8-1.7-.8.3-1.8 0-2.2-.7-.5-.7-1.8 1.1-3.6 5l-2.8 6.2-2.1-2.1c-2.1-2.1-2.2-2.1-3.6-.3-1.4 1.7-1.5 1.6-.9-1.2.6-2.9.6-3-1-.8-1.6 2.3-6.8 5.3-9.2 5.3-1.4 0-1.8-1.8-1.4-6l.2-2.5-2.2 2.9c-1.7 2.1-2.4 2.5-3 1.4-.6-.8-1.2-.9-1.6-.3-1 1.3-4.3 1.6-4.3.4 0-.5.9-3.2 2-6.1 1.1-2.8 1.7-5.4 1.5-5.7-.3-.2-.5 0-.5.5 0 1.9-6 10.5-7 9.9-.5-.3-.1-2.5 1-5.1 2-4.6 2.7-8.1 1.2-5.7-.5.8-1.1.8-2.4-.1-1.5-1.1-1.4-1.9 1.2-9.4 2.4-6.6 2.7-8.2 1.5-8.2-2 0-2-.2 1.6-13.8 1.7-6.4 3.7-14.2 4.5-17.2 1.1-4.3 1.2-6.6.3-10.8-.6-2.8-.9-6.2-.8-7.5.2-1.2-.5-3.4-1.4-4.8-1-1.5-2-3.9-2.3-5.3-.2-1.5-1.1-4.6-1.8-6.9-.8-2.3-2.2-7.4-3.2-11.3-1.7-7-1.7-7.1.5-11.6 1.4-3 5.3-7.4 10.9-12.5 4.8-4.3 9.2-8.3 9.8-8.8.6-.6 3.9-3.4 7.2-6.3 4.6-4 6.3-6.2 6.8-8.8.3-1.8-.4-12.5-1.6-23.5-1.2-11.1-2-22.9-1.8-26.3.9-10.9 8.5-22.9 17.8-28.1 5.3-2.9 5.5-3.2 5.8-7.5.6-11.1 3.4-25.6 5.5-29.4 2.7-4.9 12-12.6 20.2-16.8 4.3-2.2 7.9-3.2 12.7-3.6 9-.6 11.8.2 11.8 3.4s-11.3 14.7-18.5 18.9-13.9 9.5-16.4 13.2c-1.9 2.7-2.1 3.9-1.5 9.2.8 6.9 1.3 7.5 8.9 8.5s12.9 4.1 18.6 10.9c2.8 3.4 4.7 6.3 4.1 6.5s-.8 2-.5 4.3c.5 3.2 0 4.7-2.2 7.8-1.8 2.7-2.5 4.6-2 6 .3 1.2.2 2.1-.3 2.1-.6 0-1.3 1.9-1.7 4.2-.3 2.4-1.3 6.7-2.1 9.5-1.3 4.6-1.3 5.7 0 8.8.9 2 2.6 3.9 4 4.5 1.3.5 2.8 1.6 3.3 2.4.7 1.2 2.9.7 14.1-3.5 7.2-2.7 13.6-4.9 14.1-4.9 2.6 0 1.8-2.8-2.8-9.5-2.8-4-5.1-8.2-5.1-9.4 0-2.3-3.6-5.2-5.6-4.4-.8.3-1.6-.7-2.2-2.9-.6-2.1-1.4-3.3-2.5-3.2-1.3.1-1.4-.2-.6-1.7.5-1.1 1.5-1.9 2.1-1.9s.8-.3.4-.8c-.8-.7-1.2-.8-4.3-1.1-1.5-.1-1.5-.5.6-2.1 1.3-1.1 1.8-2 1.2-2-1.5 0-1.4-2 .2-2.4.6-.2 3.1-.9 5.5-1.7 7.2-2.1 14.3 1.4 18.3 9.3 1.6 3.1 2.5 3.8 4.8 3.8 1.6 0 3.8.8 4.9 1.7 4.1 3.6 19.2 25.5 19.2 27.9 0 3.7-2.6 9.1-5.7 12-5 4.6-19.3 11.6-39.9 19.4-2.6 1-2.6 1-.8 3.8 1 1.5 2.4 3.4 3.3 4.2 4 4.1 13.2 19.7 15.5 26.6l2.5 7.6-2.7-2.9c-1.5-1.5-4.6-5.1-7-7.8-4.9-5.6-7.7-6.8-6.9-2.9.6 3.4-.4 2-3.4-4.6-1.3-3-4.1-8.6-6.1-12.4-2.1-3.8-3.8-7.3-3.8-7.7 0-.5-.7-.9-1.6-.9s-1.4.3-1.2.7c5.5 11.1 5.9 14.7 2.3 23.7-2.9 7.4-5 13.9-7 22.3-1.3 5.6-1.3 6.6.6 13.2 3.3 12.1 5.6 16 15.4 25.6 6.3 6.3 11.3 10.2 16.3 12.8 4 2.1 7.2 4.1 7.2 4.5s-2.6 1.5-5.8 2.5c-3.1 1-8.8 3.3-12.5 5l-6.9 3.2.6 15.5c.3 8.5.9 21.7 1.2 29.2l.7 13.8H512V0H0z"/><path d="M296.2 351c0 8 .3 18.5.7 23.5l.6 9 4.1.3 4.2.3-.8-4.3c-.5-2.4-2-10.6-3.5-18.3-1.4-7.7-3.2-16.5-4-19.5-1.3-5.4-1.3-5.3-1.3 9"/></svg>