<svg xmlns="http://www.w3.org/2000/svg" width="682.667" height="512" version="1.0" viewBox="0 0 512 384"><path d="M230.9 11c-.8.4-3.3 1-5.6 1.4-9.9 1.5-20.3 8.9-21.6 15.5-.3 1.4-2 4.8-3.8 7.4-5.8 8.8-7.3 21.6-4.4 39 1.7 10.5 4.4 15 12.9 21.9 13.6 10.9 33.8 18.4 47.4 17.6 9.2-.5 13-2.2 20.4-8.8 6.6-5.9 10.1-11.4 12.4-19.9 1.6-5.6 1.9-6 3.4-4.6 1.7 1.5 4 2 4 .8 0-.3-1.1-2.1-2.5-3.9-3-3.9-3-4.1-.9-10.4 1.1-3.5 1.5-7.5 1.2-14.2-.4-11.9-3.2-17.7-12.5-26.6-8.8-8.4-15.6-11.8-29.3-14.8-6.6-1.5-18.7-1.7-21.1-.4"/></svg>