<svg xmlns="http://www.w3.org/2000/svg" width="682.667" height="512" version="1.0" viewBox="0 0 512 384"><path d="M0 192v192h285.8l-1.9-6.8c-1.1-3.7-2.8-9.6-3.9-13.2-1-3.6-2.7-10.3-3.6-15-1-4.7-2-8.8-2.3-9.2-.8-1-2.2.1-5.4 4.4-2.6 3.5-5.7 5.1-5.7 2.9 0-.5 1.6-4.4 3.5-8.7 3.8-8.6 2.9-7.8-5.2 3.9-5.4 7.8-9.3 11.3-9.3 8.2 0-.9.5-2.6 1.1-3.8.9-1.8.9-2-.2-.9-.7.6-2.1 1.2-3.1 1.2s-2.7.9-3.8 2c-1.7 1.7-2 1.8-2 .3 0-1.4-.3-1.3-2.3.5-5.4 5.1-6.7.5-2.6-9.1 1.6-3.9 2.8-7.2 2.5-7.4-.2-.2-1.8 2-3.5 4.9-3.8 6.4-6 9.2-8.3 10.1-1.8.6-2.3-.7-1.8-4.2.1-1.3-.1-1.3-1.4-.2-2.3 1.9-2 1 2.3-8.2 5.2-10.9 7.2-15.9 6.7-16.4-.2-.2-2.2 3-4.5 7.1-3.7 6.8-9.4 12.7-10.8 11.2-.3-.3 1.1-5.1 3.1-10.8 3.5-9.8 3.6-10.1 1.2-7.5-3.1 3.3-4.6 3.4-4.6.4 0-3.6 10.7-38 16.7-53.6l5.5-14.5-2.6-2.3c-1.5-1.3-2.4-2.3-2-2.3s-.1-.9-1.1-2c-2.6-2.9-2.8-7.5-.4-12.3 1.2-2.2 2.7-4.6 3.3-5.3.7-.6 3.2-3.5 5.6-6.3s4.9-5.1 5.5-5.1c1.8 0 4.2-5.2 5.8-13 1.8-8.5 1.7-10.5-.8-31.7-2.4-19.7-1.8-23 6.8-34.5 3.3-4.6 6.8-8.8 7.6-9.4 1.3-1 1.4-2.4.3-11-2.3-18.9-1.3-25.9 5.4-36 4.9-7.4 10.2-10.6 18.6-11.2 7.2-.5 7.5-.3 5.8 4.2l-1 2.6 4.3-2.2c5.6-3 17.7-3.3 20.4-.5 1.7 1.8 1.7 2-2.2 5.4-2.2 1.9-7.1 5.3-11 7.6-14.2 8.2-16.3 9.8-17.4 12.8-1 3-.3 10.3 2 17.7 1.1 3.7 1.6 4.1 5.1 4.7 5.6 1 15.6 9.2 19 15.8 2.8 5.3 3.2 8.3 2.2 15-.5 2.9-1 3.5-1.9 2.7-2.2-1.8-2.8 6.1-1.4 17 .6 5.4 1.5 10.4 1.9 11 .4.7 5.9-.9 16.6-5.1 8.7-3.3 16.4-6.5 17.1-7.1.9-.7.6-2.3-1.3-6.5-1.3-3.1-2.5-7.3-2.6-9.5-.1-2.5-.6-3.8-1.5-3.8-.7 0-1.6-1.4-1.9-3-.6-2.7-1.5-3.5-3.6-3.1-1.1.2-1-1.7.2-2.4 1.8-1.1-.1-3.6-2.2-2.9-1.6.5-1.8.3-1.2-.7.9-1.4 1-1.9 1.3-4 .2-1.5 6.5-3.9 10.5-3.9 1.9 0 4.6.5 6 1.1 2.5 1.2 5.6 6.3 5.6 9.3 0 .9.8 1.9 1.8 2.2 7.6 2.4 7.7 2.5 12.1 16.2 2.2 7.2 4.1 14 4.1 15.1 0 3.5-3.6 9.6-7.4 12.5-4.6 3.5-11.7 6.8-31.5 14.6l-16.2 6.5 7.3 6.8c9.4 8.6 24.6 19.9 35.1 25.9 8.8 5.2 9 5.7.8 3.2-2.9-.8-6-1.3-6.9-1.1-3 .6-12.5-4.9-20.7-12.1l-8-7-.6 3.1c-.4 1.8-1.5 5.2-2.7 7.7-1.5 3.5-2.2 8.2-3 20.5-1 14.9-.9 16.7 1.1 26.5l2.2 10.5 6.9 7.3c3.9 4 9 8.5 11.5 9.9 7.1 4.1 7.6 4.6 5.4 5.4-1 .4-4 .8-6.6.8-4.9.1-13.7 1.9-14.8 3-.4.3-.9 15.1-1.2 32.9l-.5 32.2H512V0H0z"/><path d="M279.5 102.3c-.7 2.5 1 18.5 2 19.5.2.2 1.1.2 1.8-.1 1.3-.5 1.3-1.4.1-6.4-.8-3.2-1.4-7.4-1.4-9.3s-.4-4.2-.9-4.9c-.8-1.2-1.1-.9-1.6 1.2m66.5 38.2c-1.1 1.3-1 1.4.4.9.9-.3 1.6-1 1.6-1.5 0-1.3-.6-1.1-2 .6m-118.4 173c-.9 2.6-.7 3.2.5 1.2.6-1 .9-2.1.6-2.3-.2-.3-.7.2-1.1 1.1"/></svg>