<svg xmlns="http://www.w3.org/2000/svg" width="682.667" height="512" version="1.0" viewBox="0 0 512 384"><path d="M0 192v192h160.5c140.3 0 160.5-.2 160.5-1.5 0-.8.7-3.1 1.6-5.2 3.5-8 4.1-10.1 6.9-22.3.9-4.1 3.2-12.7 5.2-19 5.1-16.9 6.4-22.2 5.9-23.6-.3-.7-3.2-1.6-6.5-2-3.3-.3-7.4-1.5-9.1-2.5l-3.1-1.9 5.6-6.2c6.7-7.5 10.9-15.8 12.9-25.6 1.1-5.3 2.8-9.3 6.2-14.8 5.7-9.1 7.4-16.2 6.3-25.6-.8-6.8-8.7-28.9-10.5-29.5-.5-.2-2.2 4.7-3.7 10.9-4.9 20.7-11.1 33.3-22.3 45.3-2.5 2.7-4.2 4.3-3.6 3.5.5-.8 2.6-4.6 4.6-8.5 4-7.7 4.8-11.5 1.6-7.6-2.8 3.2-2.5 2 1.1-5 4.3-8.7 8.7-20.9 11.5-32.3 1.3-5.5 2.3-10 2.1-10.1-.1-.1-6.5-1.6-14.2-3.4-30.4-7.1-38.2-10.6-41.6-18.9-2.9-6.9-4.3-9.8-9.3-19-3.8-7-4.4-8.7-3.5-10.8.8-2.2.4-3.2-2.6-6.7-1.9-2.2-3.5-4.4-3.5-4.8 0-.3 1.2-2.7 2.6-5.3 2.4-4.4 2.5-4.9 1.3-9.5-1.1-4.4-1-5.2.6-7.8l1.9-2.8.7 4.7c.9 6 1.5 6.8 4.5 6.8 1.7 0 2.4-.6 2.4-1.8 0-2.8 1.1-3.4 3.2-1.5 1.7 1.5 1.9 1.5 3.1-.1 1.2-1.7 1.4-1.7 2.8 0 1.1 1.3 1.1 1.8.2 2.1-1.9.7-1.6 2.3.3 2.3 1.5 0 1.6.9 1.1 7.5-.5 5.9-.4 7.6.8 8.2.8.5 3.7 7.1 6.4 14.7s5.5 14.4 6.3 15.1c.7.6 5.6 1.9 10.8 2.9 5.2.9 13.7 2.6 18.8 3.8 5.4 1.2 9.7 1.7 10.2 1.2 1-1.1 3.1-16.4 2.3-17.7-.2-.4-2.2-1.9-4.4-3.3-3.6-2.2-3.9-2.8-3.9-6.8 0-5.1 4.8-15.1 9.8-20.4l3.2-3.5-4.5-8.4c-2.5-4.7-6.7-11.3-9.4-14.6-6.8-8.7-8.3-11.9-7.9-17.5l.3-4.7 4.2-.3c5.1-.4 9.3 1.7 12.8 6.2 4 5.2 13.2 24 15.1 30.7 1.4 4.9 2 5.9 3.9 5.9 2 0 2.3-.7 2.9-6.1.3-3.4.6-8.8.6-11.9 0-7 1.4-11.3 5.3-16.3 5.9-7.6 14.4-9.4 18.7-3.9 3.1 3.9 2.5 5.9-2.9 9.8-3.2 2.2-5.4 4.7-6.1 6.8-1.1 3.4-4 19-4 21.7 0 .9 3.2 3.7 7.4 6.3 8.4 5.3 10.6 8.4 12.9 17.7 1.9 7.6 2.4 12.6 3.7 32.3 1.1 18.1 3.6 26.7 11 37.5 2.8 4.1 5.3 8.4 5.6 9.7.3 1.2.4 8 .2 15.2-.2 10.7-.6 13.3-2 14.9-1.5 1.6-1.8 3.9-1.8 13 0 10.1.2 11.3 2.5 14.9 1.5 2.1 5.1 6.2 8.2 9l5.6 5.1-4.8 6.4c-2.7 3.5-6.2 7.7-7.8 9.2-2.7 2.6-3.5 2.8-7.4 2.2-2.3-.3-4.3-.3-4.3.2 0 3.5-4.2 35.3-5.5 41.1-.8 4-1.5 11.6-1.5 16.8v9.4h117V0H0z"/><path d="M367.2 327.3c-1.7 3.9-6.1 14.6-9.7 23.7-3.7 9.1-8.4 20-10.6 24.2-2.1 4.3-3.9 8-3.9 8.3s6.7.5 14.9.5h14.8l.6-4.9c.3-2.7.2-10.2-.3-16.8-.5-6.5-1-18.4-1.1-26.6-.1-8.1-.5-15-.9-15.2-.4-.3-2.1 2.8-3.8 6.8"/></svg>