<svg xmlns="http://www.w3.org/2000/svg" width="682.667" height="512" version="1.0" viewBox="0 0 512 384"><path d="M0 192v192h333.6l1.6-4.8c.9-2.6 2.6-7.4 3.7-10.6 1.2-3.2 3-9.5 4-14 1.1-4.5 4.3-15 7.1-23.4 2.9-8.4 5-15.9 4.7-16.6-.5-1.2-8.8-3.3-11-2.8-.4.1-2.1-.5-3.7-1.3-3.5-1.8-3.4-2.3 3.6-11.5 5.2-6.9 8.3-14.4 8.8-21.3.5-6.5 2.9-13.5 6.6-19.4 5.2-8.1 8.2-29 5.2-36.3-.9-2.4-1-2.3-1.6 1.5-2.8 17.7-8.4 37.1-11.8 40.9-1.1 1.3-1-2 .1-6.4 1.4-5.3 2-12 1.2-12-.5 0-1.3 1-1.9 2.2-1 2-1 1.9-.6-1.2.3-1.9.9-4.7 1.4-6.1 1.2-4.1 6.3-39.9 5.7-40.5-.3-.3-5.6-1-11.9-1.5-6.2-.6-20.5-2.6-31.8-4.5s-26.3-4.3-33.3-5.4c-8.6-1.2-13.5-2.4-14.8-3.6s-3.8-1.7-8.1-1.8c-6.7-.2-8.8-.9-8.8-3.1 0-.7-1-3.6-2.2-6.5-1.7-3.7-3-5.2-4.8-5.6-4.3-1-8-2.6-8-3.6 0-.5 2.1-.9 4.8-.8 6.5.3 7.2.2 6.6-1.4-.4-1.2.2-1.3 3.3-.5 6.1 1.4 6.4 1.3 6-2.5-.6-5.6.7-6.1 3.8-1.4 4.1 6.1 7.1 8.1 12.4 8.4 2.5.2 10 1.5 16.6 2.9 11.9 2.6 46.2 7.1 62.6 8.2 6.5.4 8.8.2 9.4-.7.5-.7 1-4.5 1.3-8.4l.4-7.2-4.3-2.9c-5.7-3.8-5.7-3.9-5.7-9.7-.1-5.7 5.2-16.9 9.6-20.4l2.6-2.1-3.4-5.8c-4.6-7.5-6.9-9.8-16.6-16-8.5-5.6-13-10.1-14-14.2-.9-3.4.9-4.8 5.9-4.5 12.3.5 28.2 13.7 35.9 29.8 2.5 5.2 4.5 8.1 5 7.6 1.1-1.1-1.6-21.5-3.8-28.6-1.7-5.4-1.2-9.3 1.7-13.1 2.8-3.5 6.4-3.2 10.3.7l3.2 3.3.2 16c.3 20.2.6 22.1 4 23 4.9 1.2 14.8 8.4 17 12.4 3.3 5.9 5 15 6.2 33.6.6 9.3 1.3 18.1 1.6 19.5 1.2 5.6 5.9 17.7 8 20.5 4.3 5.8 10.4 17 10.4 19.2 0 1.2-1.2 5.1-2.6 8.5l-2.6 6.3 3.7 14.3c5.9 23.7 9.5 50.5 7 53-.4.4-1.5-.4-2.6-1.7l-1.9-2.3v3.3c0 2.4-.3 3-1.1 2.2s-1.6-.6-3 .8c-1.9 1.9-1.9 1.9-4.1-.4l-2.3-2.2-.5 3.8c-.6 4.2-2.2 5-3.1 1.5-.4-1.6-.9-.4-1.7 4.3-.7 3.6-1.2 7.7-1.2 9.2 0 1.4-1.1 9.1-2.5 17.1-1.6 9.5-2.5 18.3-2.5 25.6v11h99V0H0z"/><path d="M352.1 243.6c0 1.1.3 1.4.6.6.3-.7.2-1.6-.1-1.9-.3-.4-.6.2-.5 1.3m32.6 74.6c-.8 1.8-2.7 6.2-4.2 9.8s-4.3 9.9-6.2 14-5.3 11.8-7.5 17-5.8 13-7.9 17.2L355 384h17.9c17.2 0 18-.1 18.6-2.1.7-2-1.1-54.7-2.1-62.7-.6-5.1-2.8-5.6-4.7-1"/></svg>