<svg xmlns="http://www.w3.org/2000/svg" width="682.667" height="512" version="1.0" viewBox="0 0 512 384"><path d="M0 192v192h338.7l3.6-10.8c2-5.9 4.3-13.6 5.2-17.2 1.9-7.4 7.5-24.4 11.2-33.8 1.3-3.5 2.1-6.7 1.8-7-.4-.4-3.8-1.4-7.7-2.2-9.9-2.2-10.2-3.1-4.1-12.3 5.6-8.4 9.7-17.9 8.8-20.7-.7-2.4 1.8-12.1 4.9-19.2 1.4-3.1 2.7-7.3 3.1-9.4.6-3.9.6-3.9-1-1.4-1.8 2.8-1.9 4.5.6-25.5.6-7.7 1.2-15.7 1.2-17.7.3-6.3-1.2-7-17.4-7.9-7.9-.5-18.7-1.6-24-2.4s-19.3-1.7-31.1-2.1c-14.5-.4-22-1-23.4-1.9-1.3-.9-2.6-1-3.7-.3-.9.5-4.2.8-7.3.6-5.3-.3-5.6-.5-7.7-4.3-1.2-2.2-2.5-4.2-2.9-4.3-.5-.2-.8-1.2-.8-2.3 0-1.6-.7-1.9-4.7-1.9-4.7 0-8.3-1.3-7.1-2.5.3-.4 4.9-.9 10.2-1.2 10.6-.7 12.2-1.5 10.6-5.7-2.4-6.5-.5-7.4 3.4-1.6 2.5 3.8 10.6 9.2 10.6 7 0-1.3 34.3-1.3 52.5 0 25.1 1.8 38.3 2.3 40.9 1.6 2.5-.6 2.6-.9 2.6-8 0-7-.2-7.6-2.9-9.8-1.5-1.2-3.6-2.8-4.6-3.3-1-.6-2.1-3.1-2.6-6.1-.8-4.6-.6-5.6 2.2-11.4 1.7-3.6 4.7-7.9 6.6-9.7l3.4-3.3-3.1-5.4c-3.9-6.8-7.2-9.7-17.2-14.7-9.4-4.7-17-11.3-16.6-14.3.8-5.6 14.7-3.7 25.8 3.5 8.1 5.2 12.5 10.2 17.1 19.3 5.1 10.3 6.4 11.6 5.5 5.6-2-13.8-5.4-22.6-10.5-27.4-4-3.8-4.2-8.2-.4-12 3.8-3.9 8.9-1.9 14.3 5.6 4.1 5.6 5.7 12.3 7.5 29.8l.6 6.5 7.2 3.4c3.9 1.8 8.4 4.3 10 5.5 6.3 4.6 8.9 13.9 11.3 40.1 1.3 15.4 2.1 19.5 5.1 28.5 2 5.8 4.5 11.8 5.7 13.5 3.1 4.4 6.6 11.1 7.6 14.6.7 2.3.4 4.4-1 8.1l-1.9 5.1L440 255c6.9 24.6 12.5 59.9 9.9 62.5-.7.7-1.3.5-2-.7-1.4-2.5-4.2-1.2-2.8 1.3 1.5 2.8-2.5 2.5-4.5-.3l-1.6-2.2-.1 2.4c0 2.3-.1 2.3-.9.5-.7-1.7-.9-1.7-.9-.3-.1 1-.7 1.8-1.5 1.8s-1.7.8-2.1 1.7c-.6 1.6-.8 1.5-2-.7l-1.4-2.5-.1 3-.1 3-2-3.5-2-3.5.4 3.3c.2 2.2 0 3.1-.8 2.8s-1.6 3-2.4 10.2c-.7 5.9-2.1 14.7-3.2 19.7-1.2 5.6-1.9 12.9-1.9 19.7V384h94V0H0z"/><path d="M381.6 337.2c-5 11.2-11.4 25.2-14.4 31.2-2.9 6-5.8 11.9-6.3 13.2l-.9 2.4h38.2l-.7-20.3c-.4-11.1-1-26-1.4-33.2-.6-12.9-.6-13-3.1-13.3-2.4-.3-3 .9-11.4 20"/></svg>