<svg xmlns="http://www.w3.org/2000/svg" width="682.667" height="512" version="1.0" viewBox="0 0 512 384"><path d="M0 192v192h172c169.4 0 172 0 172-1.9 0-1.1 1.3-5.3 2.9-9.5 1.6-4.1 3.4-9.8 4.1-12.8 1.5-6.9 4.2-15.4 9.6-30.6 2.4-6.7 4.4-12.6 4.4-13.1 0-.4-3-1.6-6.7-2.5-10.1-2.5-10.5-3.2-5.3-11 5.4-8.4 9.4-18.1 9.2-22.6-.2-5.7 1.8-13.1 5.3-19.5 4.9-8.9 6.5-16.4 6.5-30.5 0-11.7-2.6-26.9-5-29.3-.4-.5-7.5-1.3-15.6-1.8-8.2-.5-19.4-1.6-25-2.4-5.5-.8-19.5-1.7-31-2.1-11.5-.3-21.6-.8-22.4-1.2-.8-.3-5.1-.6-9.4-.6l-8-.1-2-4c-1.2-2.2-2.7-4.5-3.5-5.1s-1.1-1.6-.7-2.2c.4-.7-1.2-1.2-5-1.4-7.4-.4-8.8-2.8-1.6-2.8 2.7 0 7.7-.3 11.1-.7 6.9-.7 6.5.1 4.4-8.1-.9-3.6 2.1-2.7 4.8 1.5 3.8 5.8 7.5 7.5 13.9 6.3 6.5-1.2 27.9-1.2 46 0 27.8 1.9 42.4 2.3 45.4 1.1 2.8-1.1 2.9-1.3 2.3-7.2-.6-6.5-2.4-9.4-7.9-12.7-1.9-1.1-3-2.8-3.5-5.2-1.1-5.5-1-6 3.1-14.3 2.6-5.4 4.7-8.4 6.7-9.5 3.4-2 3.4-2.3 1.3-6.5-3.6-7-7.4-10.5-16.7-15.3-10.3-5.3-15.3-8.7-16.8-11.7-3.1-5.6 9.1-6.8 19.8-1.8 9.7 4.6 15.7 10.8 21.1 22.1 2.5 5.2 4.7 9 4.9 8.3.6-1.6-3.4-17.7-5.1-21.2-.8-1.5-3.6-4.5-6.3-6.7-6.3-5.1-7.2-6.3-7.3-10 0-3 1.9-5.5 5.1-6.7 4.1-1.4 15.3 7.3 19.2 14.9 1.9 3.9 5.7 22.9 5.7 28.9 0 .2 1.7.9 3.8 1.6 2 .6 4.9 2 6.4 3 1.4 1.1 3.1 1.9 3.7 1.9s2.9 1.8 5 3.9c5.4 5.4 7.7 13.3 10.1 34.6 1.1 9.3 2.3 18.3 2.6 20 1.3 6.8 7.8 24.6 12 32.8 4.5 8.5 4.5 8.9 3.5 13.5-1 4.2-.8 6 1.9 16.2 4.6 17.3 8.1 39.1 8.5 52 .1 6.3.6 12.8 1 14.4.7 2.5.5 2.8-.9 2.3-1.9-.7-1.9-.7-.6 3l1 2.8-2.2-2.6c-1.3-1.4-2.9-3.5-3.6-4.5-1.2-1.7-1.2-1.6-.8 1.1.3 1.6.8 4 1.2 5.2.6 2.1.4 2.1-1.9 1-1.4-.6-2.5-1.4-2.4-1.7s-.2-.5-.8-.5c-.5 0-.9.3-.8.7.2.5.1.8-.2.8s-1.2-1.5-2-3.2l-1.5-3.3.6 4.3c.6 4.1.6 4.2-1.7 3.4-1.3-.5-3.2-2.4-4.1-4.3l-1.8-3.4.6 4.2c.7 4.8-.9 6-2.3 1.7-.7-2.1-1.1-1-2.2 6.3-.7 4.8-2.2 14-3.4 20.3-1.2 6.9-2.1 16-2.1 22.7l-.1 11.3H512V0H0z"/><path d="M394.2 319.3c-.6.7-3.3 6.4-6 12.7-5.9 13.6-10.4 23.5-17.8 38.7-3 6.1-5.4 11.6-5.4 12.2 0 .8 5.7 1.1 18.4 1.1h18.4l.7-7.9c.4-4.4.4-8.4.1-9-.4-.5-1-11.4-1.5-24.1s-1-23.3-1.2-23.4c-1.4-1.3-4.8-1.4-5.7-.3"/></svg>