<svg xmlns="http://www.w3.org/2000/svg" width="682.667" height="512" version="1.0" viewBox="0 0 512 384"><path d="M0 192v192h347.5l1.1-4.3c.6-2.3 2-6.5 3.1-9.3 1.1-2.9 2.6-7.6 3.3-10.5 1.6-7.1 4.4-16.1 9.1-28.9 5.6-15.4 5.7-15-2.1-17-8.9-2.3-9.3-3.3-4-11.9 5-8.5 9.3-19.6 8.5-22.2-1.1-3.4 1.6-13.2 5.5-20.4 7.3-13.3 8.9-30.1 4.5-47.8-1.4-5.6-2.9-10.5-3.4-11s-7.6-1.3-15.7-1.8c-8.2-.5-19.5-1.6-25.1-2.4s-19.9-1.8-31.8-2.1c-11.9-.4-21.8-1.1-22.1-1.5-.2-.5-3.3-.6-6.8-.2-7.4.7-11.6-.1-11.6-2.2 0-1.9-2-5.6-3.9-7.1-.8-.6-1.1-1.6-.7-2.2.4-.7-1.2-1.2-5-1.4-7.4-.4-8.8-2.8-1.6-2.8 2.7 0 7.7-.3 11.1-.7 5.7-.5 6.2-.8 5.7-2.7-1.8-7.3-1.9-7.6-.2-7.6.9 0 2.4 1.5 3.2 3.4.9 1.9 3.3 4.3 5.4 5.5 3.3 1.8 4.4 2 9 1.1 6.5-1.2 27.9-1.2 46 0 41.2 2.8 49 2.5 49-2.1 0-5.4-2.4-11-5.9-13.9-7.2-5.9-7.1-5.7-7.1-11.1 0-6.7 5.8-18.3 10.7-21.2 1.8-1 3.3-2 3.3-2.2 0-.1-1.2-2.3-2.6-4.9-3.7-6.7-7.7-10.2-16.3-14.6-7.8-3.9-14.9-9-16.5-11.7-1.4-2.5 2-4.3 7.8-4.3 11.3 0 24.7 9.7 31 22.4 2 4 3.6 7.7 3.6 8.3s.7 1.6 1.5 2.3c2 1.7 2 .4-.4-8.7-3.3-12.6-4.4-14.1-16.5-22.6-5-3.5-2.7-12.7 3.2-12.7 8.1 0 19.5 10.9 22.3 21.3.6 2.2 1.6 8 2.4 12.9.7 4.9 1.5 9 1.7 9.2.1.1 4.3 2.1 9.1 4.5 5.6 2.8 9.7 5.6 11.3 7.7 4 5.2 6.2 14 8.9 35.1 2.1 15.7 3.2 21.1 6 28.6 1.9 5.2 4.2 11.7 5 14.5.9 2.9 2.5 6.8 3.6 8.6 2.9 4.9 3.9 9.3 2.9 12.1-.7 1.7-.2 5.2 1.5 12.1 4.1 15.9 8.1 55.3 5.8 56.7-.5.3-.6 3.1-.2 6.4.4 3.2.8 7.1.8 8.7.1 2.4-.1 2.7-1.4 1.6-1.8-1.5-2-.2-.5 4.8 1.8 6.3-1.7 1.6-4-5.4-1.2-3.6-2.3-6.4-2.5-6.2s.3 3.6 1.1 7.7 1.3 7.6 1.1 7.7c-.2.2-1.4-.6-2.8-1.9-1.3-1.2-2.7-2.1-3.2-1.9-.5.1-1.1-.7-1.4-1.8-.9-3.2-2.3-2.3-2.3 1.5 0 4.3-1.4 4.5-3.9.5l-1.8-3-1.7 12.2c-1 6.8-2.6 16.6-3.6 21.8-1.2 5.9-1.8 13.1-1.7 19.2l.2 9.8H512V0H0z"/><path d="M439.1 317.6c0 1.1.3 1.4.6.6.3-.7.2-1.6-.1-1.9-.3-.4-.6.2-.5 1.3m-41.5 2.3c-.3.4-2.5 5.4-4.9 11.1-5.2 12-9.5 21.4-17.8 38.8-3.3 6.7-5.9 12.7-5.9 13.2 0 .6 7 1 18.4 1h18.4l.7-6.8c.3-3.7.1-10.7-.4-15.7-.6-5-1.1-14.8-1.2-22-.2-16.5-.6-18.6-4.1-19.6-1.6-.4-3-.4-3.2 0"/></svg>