<svg xmlns="http://www.w3.org/2000/svg" width="682.667" height="512" version="1.0" viewBox="0 0 512 384"><path d="M0 192v192h176c164 0 176-.1 176-1.7 0-.9 1.6-6.4 3.5-12.2s5-15.8 6.8-22.1c1.9-6.3 5.1-15.9 7.1-21.3l3.6-9.8-3.8-1.6c-2-.8-4.8-1.6-6.1-1.8-1.4-.1-3-1-3.7-2-1.4-1.9-.7-3.9 4-11.9 3.5-5.8 7.7-18.1 7-20.1-1-2.6 1.8-13 5.6-20.5 4.3-8.4 7-19.7 7-29.4 0-6.3-4.3-27.3-5.9-28.9-.5-.5-7.6-1.3-15.7-1.8-8.2-.5-19.4-1.6-24.9-2.4s-19.9-1.7-31.8-2.1c-12-.4-22-1.1-22.3-1.5-.2-.4-4.3-.5-8.9-.2-7.7.5-8.5.4-9.1-1.3-1.8-5.2-3-7.4-4.3-7.4-.8 0-1.1-.7-.8-2 .4-1.7-.1-1.9-5.1-2.2-7.9-.4-8.3-2.8-.5-2.9 3.2 0 8.1-.4 10.8-.7 5.3-.8 5.3-.8 4-7-1-4.1 1.7-4.5 3.4-.5.7 1.6 2.9 4 5 5.5 3.7 2.6 4.2 2.7 9.1 1.8 7.5-1.4 28.9-1.2 54.5.5 26.9 1.8 33.9 1.9 38.2.3 3.3-1.2 3.4-1.4 2.8-5.3-1-6.2-3.6-10.7-8-13.6-3.5-2.4-4.1-3.4-4.7-7.6-.6-4.3-.3-5.6 3-12.3 2.7-5.4 4.7-8.2 7.4-9.9l3.7-2.4-2.4-4.6c-3-6-8.7-11.2-16.7-15.2-7.7-3.8-16.8-10.5-16.8-12.3s4.4-3.6 8.7-3.6c4.9 0 15.1 5.1 21.2 10.6 3.8 3.4 6.3 7 9.7 14 6.5 13.3 7.5 11.8 2.9-4.5-2-7-5.5-11.2-14-16.5-6.4-4-7.8-7.5-4.5-11.1 4.3-4.6 12.2-2.4 20.7 5.7 5.4 5.3 7.9 11.2 9.8 23.4 1.8 10.8 2.3 11.9 6.2 12.9 4.8 1.2 15.8 8.2 17.5 11.2 3.9 6.7 5.9 15.4 8.3 36.8 1.2 9.9 2.5 16.5 4.7 22.5 1.6 4.7 4.3 12.1 5.8 16.5s3.8 9.9 5 12.3c1.7 3.3 2.1 5.3 1.7 8.5-.4 2.5.2 7.2 1.4 12.2 2.8 11.6 4.5 41.6 3 51.7-.7 4.7-.9 10.8-.5 15.5.7 7.4.6 7.7-1 6.4-1.7-1.4-1.7-1.2-1.1 3.5 1 6.8-1.1 4.6-3.6-3.8l-1.9-6.3.6 7.9.7 7.9-3.6-2.7c-2.6-2-3.9-4-4.6-6.9-1-4.2-1-4.1-.8 1.8.2 5-.1 6-1.4 5.9s-1.9 1.6-2.9 9c-.6 5-2 13.4-3.1 18.8-1.1 5.8-1.9 13.8-1.9 20.2V384h82V0H0z"/><path d="M393.5 337.7c-4.3 9.8-11 24.1-14.8 31.8l-6.8 14 18.7.3c10.3.1 18.9 0 19.2-.3.5-.5-1.5-61.6-2-62-.2-.2-1.7-.6-3.4-.9l-3-.7z"/></svg>