<svg xmlns="http://www.w3.org/2000/svg" width="682.667" height="512" version="1.0" viewBox="0 0 512 384"><path d="M0 192v192h354.5l2.3-6.8c1.3-3.7 3.9-12.1 5.7-18.7 1.9-6.6 5.5-17.8 8-25 6.7-18.5 6.7-16.9-.3-18.9-9.3-2.6-9.5-3.1-3.5-14.9 5.5-10.9 7.8-17 7-19-1.1-2.9 1.6-13.4 5.3-20.7 5-9.6 8.4-24 7.7-32.5-.7-7.6-4.4-23.7-6.1-26-1.1-1.5-3.8-1.9-15.7-2.6-8-.5-19.3-1.5-25.2-2.3-5.9-.9-20-1.8-31.4-2.2-11.5-.3-21.5-.8-22.3-1.2-.8-.3-5.1-.6-9.5-.7-7.1 0-8-.2-8.3-2-.3-1.1-1.1-2.5-2-3.1-.8-.6-1.2-1.6-.9-2.1.4-.6-.2-1.3-1.3-1.6-1.3-.3-1.8-1.1-1.4-2.1.5-1.2-.5-1.6-5.2-1.8-7-.4-9-2.8-2.2-2.8 2.4 0 7.4-.3 11.1-.7 7.6-.7 7.3-.3 5.1-8.1-1-3.6 2-2.7 4.7 1.5 3.6 5.6 7.3 7.3 13.4 6.3 6.6-1.2 29.7-1.1 46.5 0 29.8 2 42.8 2.3 45.8 1.1 2.8-1.2 3-1.6 2.5-5.4-.9-7.8-2.1-10.2-6.8-13.1-4.8-3.1-5.5-4.3-5.7-9.9-.2-5.5 6.3-18 10.7-20.6 3.3-1.9 3.4-2.2 2.3-4.8-1.4-3.3-5.6-9.3-7.8-11.1-.8-.7-5.4-3.3-10.2-5.8-9.7-5.1-17.5-11.4-16.4-13.2.4-.6 2.4-1.6 4.5-2.2 5.1-1.3 12 .8 20.1 6.2 7.1 4.7 10.8 9.3 15.7 19.5 3.2 6.7 5.3 9.1 5.3 6.1 0-2.8-5.4-18.5-7.2-21.1-1.1-1.5-4.3-3.9-7.1-5.3-2.9-1.5-6.2-3.5-7.4-4.7-4-3.6-2.5-9.1 3-11 2.6-1 11.2 2.6 16.2 6.7 5.9 4.9 9.1 11.8 11.1 24.4l1.7 10.4 5.2 2.3c18.7 8.2 21.3 13 25 47 1.1 9.4 2.5 17.4 4 21.5 6.2 17.4 9.7 26.4 11.6 30.1 1.4 2.9 1.9 5.6 1.8 9.7-.2 3.1.6 9.5 1.7 14.2 1.6 7.1 1.9 11.9 1.7 29.5-.2 25.6-1.1 41.5-2.4 41.5-.5 0-.9 2.1-.9 4.7-.1 5.7-1.2 4.4-3.5-3.9l-1.5-5.3.5 6.7c.4 4.4.2 6.8-.5 6.8-.5 0-1-.5-1-1 0-.6-.6-1-1.4-1-1.6 0-4.5-4.1-4.7-6.7-.2-1.9-.6.6-3.4 17-.8 5.5-2.2 13-3 16.9-.9 3.9-1.5 12.3-1.5 19.4V384h78V0H0z"/><path d="M401.8 326.7c-1.6 3.8-6.8 15.2-11.4 25.5s-9.7 21.2-11.4 24.1c-1.6 3-3 5.9-3 6.5 0 .9 5 1.2 18.4 1.2h18.5l.7-4.6c.3-2.5.1-10.5-.5-17.7-.6-7.3-1.1-19.1-1.1-26.4 0-12.1-.2-13.3-1.9-14.3-3.9-2-5.1-1.1-8.3 5.7"/></svg>