<svg xmlns="http://www.w3.org/2000/svg" width="682.667" height="512" version="1.0" viewBox="0 0 512 384"><path d="M0 192v192h357.6l4.2-12.7c2.3-7.1 4.8-15.5 5.7-18.8.8-3.3 3.3-11.2 5.6-17.5 6.5-18.1 6.5-18 4.8-19-.8-.5-3.3-1.2-5.6-1.6-2.3-.3-5-1.5-5.9-2.6-1.7-1.8-1.6-2.3 4-13.3 5-9.8 5.8-12.3 6.2-18.1.6-9.1 1.9-13.7 6.1-21.2 3.7-6.8 7.3-21 7.3-29.4 0-5.1-2.2-16.4-4.7-24.5l-1.6-5.2-5.1-.5c-2.8-.3-9.7-.8-15.4-1.1s-15-1.2-20.7-2c-5.8-.8-19.8-1.7-31.2-2.1-11.5-.3-21.5-.8-22.3-1.2-.8-.3-5.1-.6-9.5-.7-7.1 0-8-.2-8.3-2-.3-1.1-1.1-2.5-2-3.1-.8-.6-1.2-1.6-.9-2.1.4-.6-.3-1.3-1.4-1.6-1.4-.4-2-1.1-1.6-2.1.5-1.2-.5-1.6-5-1.8-7.4-.4-8.7-2.8-1.5-2.8 2.7 0 7.7-.3 11.1-.7 6.8-.7 6.9-.7 4.6-8.1-.6-1.7-.3-2.2.9-2.2.9 0 2 1 2.5 2.2 1 2.5 4.5 6 7.8 7.7 1.5.8 3.7.8 7.4.1 6.4-1.2 27.9-1.2 45.9 0 29.9 2.1 42.7 2.3 45.8 1.1 2.8-1.2 3-1.6 2.5-4.9-1.2-8.9-2.1-10.7-6.8-13.6-4.8-3.1-5.5-4.3-5.7-9.9-.2-5.5 6.5-18.3 10.8-20.9l3.4-2-2-3.8c-3.4-6.7-6.8-9.7-17.8-15.4-12-6.2-18.5-11.7-16.3-13.9.7-.7 3.8-1.2 7.4-1.2 12.8 0 25.8 9.8 33.1 24.9 3.3 7 5.6 9.5 5.6 6.3 0-2.1-5.1-17-6.8-19.9-.9-1.6-4.5-4.3-8.2-6.2-3.6-1.9-7.4-4.4-8.4-5.5-2.6-2.9-1.4-6.8 2.9-8.8 3.2-1.5 3.7-1.5 8 .1 12.1 4.7 17.5 12.1 20.8 28.5 2.1 10.9 2.3 11.5 5.2 12.6 5.4 2.2 6 2.4 11 5.4 9.9 5.7 12.5 12.4 15.6 40.2 1.4 12.3 2.8 20.5 4.4 24.9 1.2 3.6 3.5 9.9 4.9 14 1.5 4.1 4.3 10.8 6.3 14.9 3.3 6.7 3.5 7.7 2.4 10.7-1 2.7-.8 4.9 1.1 13.6 1.9 8.9 2.2 13.2 2.2 32.3-.1 24.2-1.1 40.5-2.6 40.5-.6 0-.8 1.7-.6 3.9.5 5.5-1.6 4.2-3.6-2.2l-1.6-5.2.4 6.3c.5 6.9.4 6.9-5.4 1.4l-2.4-2.3-1.2 3.3c-.6 1.8-1.4 5.8-1.8 8.8s-1.6 10.1-2.6 15.8c-1.3 6.6-2 14.6-2 22.3V384h75V0H0z"/><path d="M406 324.5c-4.8 11-6.2 14-13.8 30.5-4.4 9.6-9.5 20.1-11.2 23.2l-3.2 5.8h37.9l.7-3.8c1-6-1.4-58.6-2.8-59.4-3.1-2.1-5.7-.8-7.6 3.7"/></svg>