<svg xmlns="http://www.w3.org/2000/svg" width="682.667" height="512" version="1.0" viewBox="0 0 512 384"><path d="M0 192v192h360.5l2.3-6.8c1.3-3.7 3.9-12.1 5.8-18.7 1.8-6.6 5.7-18.7 8.5-26.8 5.7-16.3 5.7-16.1-1.1-17.3-9-1.5-9.9-4.1-4.4-13.4 5.5-9.4 7.5-14.5 8-20.8.7-9.8 1.5-12.4 5.4-20.2 7.5-14.4 9.2-30.7 5.1-47.6-1.2-5.1-2.8-9.9-3.5-10.9-1-1.4-3.9-1.8-16.1-2.6-8.3-.5-19.5-1.6-25.1-2.4-5.5-.8-19.5-1.7-31-2.1-11.5-.3-21.6-.8-22.4-1.2-.8-.3-5.1-.6-9.4-.6-7.9-.1-7.9-.1-9.8-3.4-1-1.8-1.6-3.7-1.3-4.2.2-.4-.5-1-1.6-1.3-1.5-.4-2-1.1-1.6-2.1.5-1.3-.2-1.6-4.2-1.6-2.7 0-5.6-.3-6.5-.6-3.1-1.2-.4-2.4 5.7-2.5 3.4 0 8.2-.4 10.7-.7 4.8-.8 5-1.2 3.4-7.5-1-4.1 1.7-3.5 4.1 1 2.8 5.3 7.4 7.3 14.5 6.2 8.7-1.2 29.6-1 53.5.6 26.7 1.8 34.6 1.9 38 .3 2.5-1.1 2.6-1.4 1.9-6.7-.7-6.7-2.4-9.6-7-12.3-1.9-1.1-3.6-3-3.8-4.2-1.2-5.6-1.3-8.1-.6-9.5.5-.9 2.1-4.2 3.6-7.4 2.6-5.4 5.7-8.9 8.7-10 1.5-.5-2.3-7.8-6.1-11.9-1.4-1.5-7.8-5.5-14.2-8.8-6.5-3.3-12.8-7.2-14.1-8.6-2.1-2.3-2.2-2.5-.6-4.1 2.9-2.9 11.1-2.3 19 1.4 8.7 4.1 16.1 11.6 21.1 21.3 4.6 8.9 4.4 8.6 5.5 7.4 1-1.1-3.8-17.1-6.3-20.9-.9-1.4-4.7-4-8.4-5.9-8.8-4.4-11-6.8-9.3-10 1.4-2.5 5-4.6 8.1-4.6s10.3 3.6 14.6 7.4c5.4 4.6 8.1 10.5 10.6 23.2 2.1 10.2 2.1 10.4 5.3 11.3 1.8.5 6.4 2.7 10.1 4.9 10.8 6.3 13.2 12.3 15.9 39.1 2.2 21.2 6.8 37.8 15 53.5 3.7 7.1 4.2 10 2.4 13.9-.9 1.9-.7 4.5 1 11.8 1.1 5.2 2.5 13.8 3.1 19.1 1.3 12.6 1.3 38.5 0 39.3-.6.3-1 4.2-1 8.7 0 6.5-.3 7.9-1.4 7.5-1.2-.5-1.3.1-.9 2.9.3 1.9.3 3.4 0 3.4-1 0-3.7-5.7-3.7-7.9 0-1.1-.4-2.3-1-2.6-.6-.4-.8 1.5-.3 5.4.3 3.4.3 6.1 0 6.1-.4 0-2.2-1.6-4.2-3.5-3.4-3.5-3.5-3.5-3.5-1.1 0 1.4-.4 2.7-.9 3.1-.6.3-1.3 2.7-1.6 5.3-.4 2.6-1.7 10.8-3 18.2-1.5 8.8-2.3 16.9-2.2 23.3l.2 9.7H512V0H0z"/><path d="M402 339.7c-5.1 11.5-11.7 25.7-14.6 31.7-3 5.9-5.4 11.2-5.4 11.7s8.3.9 18.5.9H419l.6-2.7c.4-1.5.2-10.4-.4-19.8-.7-9.3-1.2-22.3-1.2-28.7 0-10.6-.2-11.8-1.9-12.8-1.1-.5-2.6-1-3.4-1-.9 0-4.9 7.6-10.7 20.7"/></svg>