<svg xmlns="http://www.w3.org/2000/svg" width="682.667" height="512" version="1.0" viewBox="0 0 512 384"><path d="M0 192v192h183c182.9 0 183 0 183-2 0-1.1 1.1-4.8 2.5-8.1 1.3-3.4 3.8-11.1 5.4-17.3 1.7-6.1 5.3-17.6 8.1-25.5 2.7-7.8 4.8-14.6 4.5-15.1-.6-.9-6.4-2.4-8.4-2.1-2.4.4-6.1-2.1-6.1-4.2 0-1.1 2-5.4 4.3-9.6 5.7-9.8 7.4-15 8.1-23.6.5-5.6 1.4-8.7 5.1-16 5.9-11.8 7.9-21 7.2-34-.5-9.2-3.7-23.8-5.6-25.8-.4-.4-7.6-1.2-16-1.8-8.4-.5-19.9-1.6-25.7-2.4-5.7-.8-19.7-1.7-31.1-2.1-14.3-.4-21.5-1-22.9-1.9-1.3-.8-2.6-1-3.5-.4-.8.5-4 .9-7.2.9-4.6 0-5.9-.4-6.3-1.8-1.7-5-3-7.2-4.3-7.2-.8 0-1.1-.7-.8-2 .4-1.7-.1-1.9-5.4-2.2-9.2-.5-7-2.2 3.8-3.1 12.4-.9 12.4-.9 11.4-4.4-1.6-5.2-1.6-5.5-.4-6 .6-.2 2.1 1.4 3.3 3.5 3.1 5.5 7.5 7.4 14.1 6.2 6.5-1.2 29.3-1.2 46.4 0 27.6 2 43 2.4 45.4 1 2.2-1.1 2.3-1.6 1.7-7.4-.6-6.4-.2-5.8-9.9-14.2-1.4-1.1-1.7-2.3-1.2-4.5.4-1.7.2-2.9-.3-2.9-1.1 0 2.4-9.6 5.4-14.7 1-1.7 3.1-3.9 4.6-4.8 3.5-2 3.5-3-.1-8.7s-7.4-8.6-18.1-13.6c-4.7-2.2-10.3-5.6-12.5-7.5-3.4-3-3.8-3.7-2.6-5 3.7-4.6 16.5-2.2 26 4.8 7.3 5.4 10.5 9.3 14.9 18.2 3.3 6.6 6.2 9.4 6.2 5.9 0-2.2-5-16.7-6.8-19.8-1-1.7-4.4-4.2-9-6.6-7.8-3.9-9.7-6-8.7-9.2.7-2.3 5.4-5 8.5-5 6.3 0 16.9 8.4 20.6 16.4 1.2 2.6 3 9.1 4 14.2l1.8 9.4 8.1 4c10.7 5.1 14 7.9 16.3 14.3 2.7 7.3 3.9 13.8 5.7 32.2 1.4 13.3 2.3 18.1 5.7 28.4 2.3 6.8 5.8 15.4 8 19 4.2 7.2 4.8 11.5 2.4 17.3-1.3 3-1.3 4.2 0 9.1 3 11.7 4.4 25.3 4.4 44.4 0 11.7-.4 19.4-1 19.8-.5.3-1 3.1-1 6.2 0 4.5-.3 5.4-1.5 4.9-1-.4-1.5.1-1.5 1.6 0 3-1.2 1.4-3.1-4l-1.7-4.7.5 5.7c.5 5.1.4 5.6-1.3 5.4-1-.2-2.2-1.4-2.5-2.7l-.7-2.4-.1 2.5c-.2 2.3-.3 2.4-1.5.7-1.2-1.5-1.5-.5-2.6 8-.6 5.4-2.1 14.3-3.1 19.8-1.2 6.1-1.9 14.4-1.9 21.2V384h68V0H0z"/><path d="M414.6 321.7c-1 2.1-5.1 11.2-9.1 20.3s-10 22-13.4 28.7c-3.3 6.8-6.1 12.5-6.1 12.8s8.6.5 19.1.5h19.1l-.7-26.8c-.4-14.7-1-29.4-1.4-32.7-.5-5.5-.8-6-3.1-6.3-2.1-.2-2.9.4-4.4 3.5"/></svg>