<svg xmlns="http://www.w3.org/2000/svg" width="682.667" height="512" version="1.0" viewBox="0 0 512 384"><path d="M0 192v192h368.5l4.3-13.8c2.4-7.5 7.2-22.5 10.8-33.2 3.5-10.7 6.5-19.9 6.7-20.4.2-1-5.5-2.7-8.8-2.7-2.8 0-6.5-2.6-6.5-4.6 0-.9 2-5.1 4.5-9.3 4.7-8 8.9-18.6 7.9-20.1-1.2-2 1.9-13 6.1-21.4 6.1-12.5 7.1-18.3 5.7-33.7-1.1-12.5-3.1-22.1-5-24-.5-.5-7.7-1.4-16-1.9-8.2-.5-19.6-1.5-25.4-2.3-5.7-.8-19.8-1.8-31.4-2.2-14.4-.4-21.6-1-23-1.9-1.3-.8-2.6-1-3.5-.4-.8.5-4 .9-7.2.9-4.6 0-5.9-.4-6.3-1.8-1.7-5-3-7.2-4.3-7.2-.8 0-1.1-.7-.8-2 .4-1.7-.1-1.9-5.6-2.2-10.3-.5-7.9-2.4 4-3.1 5.9-.4 11.1-1.1 11.6-1.6s.2-2.4-.7-4.4c-1.6-4-.1-6.6 1.8-3.3 4.8 8 8.3 9.9 16.2 8.6 7.4-1.2 28.9-1.2 45.9 0 27.6 2 43 2.4 45.4 1 2.2-1.1 2.3-1.6 1.7-7.8-.7-6.7-3.2-11.2-6.2-11.2-2.2 0-5.4-5.1-5.4-8.7 0-5.1 6-17.4 10.1-20.5l3.3-2.7-1.7-3.7c-3.6-7.3-6.6-10.2-16.9-15.5-5.6-2.8-12.1-7-14.6-9.2l-4.4-4.1 2.2-1.8c5.9-4.8 20.2.2 30.5 10.6 4.2 4.2 7.2 8.5 9.8 13.9 2.2 4.8 4.2 7.7 5 7.4 1.5-.5 1.3-1.9-1.8-12.3-3-9.8-4.8-12.3-12-16.3-6.3-3.5-8.1-6.4-6.7-10.1 2.5-6.6 10.4-6.1 18.6 1.1 6.4 5.7 9.2 11.6 11.6 25.1 1.2 6.5 2.6 11.5 3.3 11.7.6.2 4.8 2.3 9.2 4.6 9.6 4.9 12.7 8.8 15.4 19.5 1.1 4.2 2.7 15 3.6 24 1.4 14.4 2.2 18.3 6.2 30 2.5 7.4 6 16.4 7.9 19.9 3.7 7 4.3 11.6 1.9 16.2-1.4 2.6-1.4 3.8.4 12.7 3.5 17.6 4.4 29.6 3.2 45.8-.8 10.4-1.6 15.3-2.6 16.4-.8.9-1.5 3.6-1.5 5.9 0 3.4-.3 4.2-1.5 3.7-1-.3-1.5.1-1.6 1.2 0 .9-.9-.1-2-2.3l-1.8-4-.2 5c0 2.7-.3 4.5-.5 3.8-.3-.7-1.1-1-1.9-.7-.7.3-1.5-.2-1.7-1.3-.2-1-.7 1.3-1.1 5.1-.5 3.9-2 13.1-3.4 20.5-1.6 8.7-2.6 17.5-2.7 24.3l-.1 10.8H512V0H0z"/><path d="M419.2 319.2c-.5.7-5.9 12.3-12 25.8s-12.7 27.6-14.7 31.5l-3.7 7 18.8.3c10.3.1 18.9.1 19.1-.2.7-.7.6-15.3-.3-39.9-.7-19.4-1.2-24-2.4-24.7-2.1-1.3-3.6-1.2-4.8.2"/></svg>