<svg xmlns="http://www.w3.org/2000/svg" width="682.667" height="512" version="1.0" viewBox="0 0 512 384"><path d="M0 192v192h184.8l184.7-.1 2.8-8.2c1.5-4.5 4.3-13.6 6.2-20.2 1.8-6.6 5.6-18.2 8.3-25.7l4.9-13.8-4.1-1.2c-2.2-.6-4.7-1-5.4-.9-2 .3-6.2-2.7-6.2-4.5 0-.9 1.6-4.2 3.5-7.4 5.9-9.7 8.5-16.7 9-23.7.5-8 1.8-12 6.1-19.8 5.1-9.3 6.7-17.8 6-31.5-.5-11-3.2-24-5.4-26.2-.5-.5-7.7-1.4-15.8-1.9-8.2-.5-20-1.6-26.1-2.4-6.2-.9-20.4-1.8-31.5-2.1-14.6-.4-20.9-.9-22.4-1.9-1.3-.8-2.6-1-3.5-.4-.8.5-4 .9-7.2.9-4.6 0-5.9-.4-6.3-1.8-1.7-5-3-7.2-4.3-7.2-.8 0-1.1-.7-.8-2 .4-1.7-.1-1.9-5.4-2.2-9.4-.5-6.9-2.2 4.3-3.1 5.7-.4 10.7-1.2 11.2-1.7.6-.6.5-1.9-.2-3.5-2.8-6.2-.4-7.5 2.8-1.6 3.2 5.5 7.4 7.3 14.7 6.1 7.2-1.2 27.6-1.2 45.3 0 29.4 2 43.5 2.3 45.9 1 2.2-1.1 2.3-1.6 1.8-7.8-.3-3.7-1-6.8-1.6-7s-.8-.9-.5-1.4c.4-.6.3-.8-.3-.5-.6.4-2.9-1.1-5.3-3.3-3.6-3.3-4.1-4.3-3.6-6.5.4-1.7.3-2.4-.4-2-1.6 1-1.2-.2 2.8-8.9 2.5-5.3 5.1-9.1 7.2-10.8l3.4-2.6-1.9-4.2c-2.8-6.2-8.1-11-18-16.3-9.1-4.8-16.5-10.7-16.5-13.2 0-1.8 2.3-2.5 8.4-2.5 12 0 25.4 10.4 32.5 25.3 3.9 8.2 5.3 9.8 6.5 7.8.7-1-4-17.3-6-21.3-.8-1.5-4.1-4.6-7.4-6.8-7.9-5.4-9.3-10.2-3.9-14.2 3.9-2.9 7.9-1.6 14.9 4.9s9 11.1 11.4 26.3c1 5.7 1.8 10.5 1.9 10.5s4.1 2 9 4.4c15.2 7.5 16.4 10.3 21.2 51.2 1.1 9.2 2.4 15 4.9 21.9 1.9 5.1 3.8 10.7 4.2 12.3.3 1.7 2 5.2 3.6 7.8 3.6 5.9 4.5 10.8 2.8 15.9-1.1 3.3-.9 5.7 1 17.5 2 11.9 2.2 16.2 1.8 34.5-.3 17.9-.6 21.2-2.1 22.8-1.1 1.2-1.7 3.6-1.7 7 0 5.3-.6 6.1-2.9 3.9-1.1-1-1.3-.8-.8 1 1 4.2-.9 2.3-2.6-2.5l-1.6-4.7.2 5.8c.1 3.1-.1 5.7-.5 5.7-.5 0-.8-.6-.8-1.3 0-.8-.7-1.4-1.5-1.4s-1.5.5-1.5 1.1c-.1 2.7-3 21.8-4.5 28.4-.8 4.2-1.5 12.3-1.5 18.8V384h64V0H0z"/><path d="M419.1 320.7c-.5 1-4.4 9.7-8.6 19.3s-10.6 23.3-14.1 30.3c-3.5 7.1-6.4 13-6.4 13.3 0 .2 8.5.4 18.9.4h19l.3-3.8c.2-2 0-8.2-.3-13.7-.4-5.5-.7-17.4-.8-26.5-.2-19.9-.4-21-4.2-21-1.7 0-3.2.7-3.8 1.7"/></svg>