<svg xmlns="http://www.w3.org/2000/svg" width="682.667" height="512" version="1.0" viewBox="0 0 512 384"><path d="M0 192v192h369.8l4-11.8c2.3-6.4 4.9-14.6 5.7-18 .9-3.5 4-13.4 7-21.9 3-8.6 5.2-15.9 5-16.3-.3-.4-1.9-1-3.7-1.4-6.4-1.2-7.3-1.4-9-2.1-1-.4-1.8-1.5-1.8-2.4s2.7-7 6-13.6c5.5-11 6.1-12.7 6.5-19.9.4-6.8 1-8.8 4.5-15.3 8.3-15 10-30.5 5.5-49.3-1.4-5.8-3-10.9-3.4-11.3s-8-1.2-16.7-1.8c-8.7-.5-20.4-1.7-25.9-2.5s-19.4-1.7-31-2c-15.9-.4-21.3-.8-22.4-1.8-1-1.1-2.1-1.2-4.1-.4-1.5.5-5 .8-7.6.6-3.9-.2-5-.7-5.3-2.3-.2-1.1-1-2.5-1.9-3.1-.8-.6-1.2-1.6-.8-2.2.4-.7.1-1.2-.8-1.2s-1.6-.9-1.6-2c0-1.6-.8-1.9-5.7-2.2-7.3-.4-8.7-2.8-1.5-2.8 2.7 0 7.7-.3 11.1-.7 6.8-.7 6.9-.7 4.6-8.1-1.2-3.7 1.9-2.7 3.8 1.3 1 2.1 3.1 4.2 5.6 5.4 3.4 1.8 4.7 1.9 9.2 1.1 6.4-1.2 27.9-1.2 45.9 0 28.6 2 43.5 2.3 45.8 1.1 2-1.1 2.1-1.7 1.5-7.4-.3-3.4-1-6.7-1.4-7.3-.5-.6-.5-1.4-.1-1.8s.2-.6-.3-.5c-1.6.4-8.4-4.1-8.9-5.9-2.1-6.9 2.3-19.2 8.9-25.1l3.5-3.1-2.4-4.9c-3.5-6.8-7-9.9-16.7-15-13.7-7.1-19.8-13.2-15.7-15.7 3-1.8 11.9-.6 18.1 2.4 10.6 5.3 18 13.5 22.8 25.4 2 5.2 3.6 6.8 5.1 5.3.8-.8-4-18.5-6-21.9-1-1.7-4.1-4.9-7-7-2.9-2.2-5.5-5-5.9-6.4-.8-3.4.8-7.4 3.6-8.8 3.6-1.8 7.8.1 14.1 6.5 6.1 6.1 8.1 10.8 10 23.6 2 13.7 1.8 13.2 5.3 14.4 1.8.7 6.2 3 10 5.2 10.3 6.1 12.4 11.7 15.7 40.5 1.2 10.3 3 21.2 4 24.3 4.1 12.6 8.1 22.9 11 28.5 3.4 6.6 3.7 9.4 1.4 13.7-1.4 2.8-1.4 3.7 0 9.2 2.4 9.8 3.6 22.1 3.5 36.7 0 19.1-1.1 27.9-3.3 29.2-1.5.9-1.7 1.8-1.1 6.9.7 6-.3 7.7-2.5 4.1-.9-1.4-1-1.1-.7 1.6.5 4.6-1.1 2.5-2.8-3.4l-1.3-4.9-.2 6.5c-.1 4.6-.4 5.9-1 4.5-.5-1.1-.9-1.6-.9-1-.1.5-.5.4-.9-.3-1.5-2.2-7.5 36.1-7.6 48l-.1 10.8H512V0H0z"/><path d="M411.5 339.2c-5 11.2-11.6 25.4-14.7 31.7-3.2 6.3-5.8 11.8-5.8 12.2 0 .5 8.6.9 19.1.9h19.1l-.7-24.2c-.4-13.4-1-27.9-1.4-32.3l-.6-8-3-.3c-3-.3-3-.3-12 20"/></svg>