<svg xmlns="http://www.w3.org/2000/svg" width="682.667" height="512" version="1.0" viewBox="0 0 512 384"><path d="M0 192v192h376.7l2.7-7.8c1.5-4.2 4-12.2 5.6-17.7 3.6-13.1 6.5-22 10.7-32.9 1.8-4.9 3.1-9.1 2.9-9.3-.2-.3-2.4-.9-4.8-1.4-6-1.3-9.6-2.9-10.2-4.4-.2-.7.4-2.8 1.4-4.6 8.3-15 10.3-20.1 11-28.4.6-7.3 1.3-9.5 5.4-17.4 5.6-11 8-21.9 7.3-33.1-.6-9.9-4.6-25.8-6.6-26.5-.9-.2-7.9-.9-15.6-1.5-7.7-.5-19.2-1.6-25.5-2.5-6.3-.8-24.1-1.9-39.5-2.5s-28.7-1.3-29.6-1.6-1.9-1.2-2.3-2.2c-.7-2.1-2.4-4.7-5.2-7.8-2.5-2.8-5.9-3-17.4-1.3-9.1 1.4-30 .4-32.7-1.6-1.7-1.3-1.7-1.4.1-3.4s2.9-2.1 18.6-2.1c14.7 0 16.9.2 17.4 1.6.6 1.5 1.9 1.6 11.4 1 20.2-1.4 59.1-1.7 75.4-.6 9 .6 22.8 1.3 30.8 1.6 18.5.8 18.9.5 17.2-8.7-1.1-6.4-3.2-9.3-8.7-12.4-2.8-1.6-3.6-9.8-1.5-14.4 1-2 2.5-5.3 3.5-7.4s3.3-5 5.1-6.4l3.4-2.5-2.7-5c-3.6-6.5-7.6-9.9-18.1-15.2-8.6-4.3-16.2-10.4-16.2-13 0-1.9 2.3-2.6 8.6-2.6 7.6 0 14.9 3.7 23.2 11.6 5.4 5.2 7.3 6.4 10 6.4h3.2l-1.5-3.8c-1.4-3.4-3.9-6.2-10.8-11.9-2.1-1.8-2.7-3.2-2.7-6.1 0-2.1.5-4.3 1.2-5 1.4-1.4 10.8-1.6 10.8-.3 0 .5.9 1.3 2.1 1.6 2.5.8 9.5 11.3 10.9 16.4.6 2 1.5 8.2 2.2 13.8 1.1 9.7 1.2 10.2 3.7 10.8 1.4.4 5.9 2.5 10 4.8 10.7 6.1 13.6 12.2 16 33.7 3.1 26.5 3.5 28.7 7.3 38.8 2.1 5.6 3.8 10.8 3.8 11.4s1.6 4.2 3.5 7.9c3.5 6.9 4.5 13.1 2.6 16.7-.5 1.1-.2 5 1.1 10.7 1.4 6.6 2.1 14.5 2.5 30 .4 19.3.1 24.1-2.3 35-1 5-4.5 11.5-6 11.5-.8 0-1.7.7-2 1.5-.4.8-1.2 1.5-1.8 1.5-3.6 0-4.8 2.7-6.7 15.1-1 6.8-2.3 14-2.9 15.9-.5 1.9-1 8.6-1 14.7V384h57V0H0z"/><path d="M426 321c0 2.3-23.1 52.9-26.1 57.2-4.1 5.7-3.8 5.8 17.2 5.8h19.1l-.6-13.3c-.3-7.2-.9-21.6-1.2-32l-.6-18.7h-3.9c-2.2 0-3.9.4-3.9 1"/></svg>