<svg xmlns="http://www.w3.org/2000/svg" width="682.667" height="512" version="1.0" viewBox="0 0 512 384"><path d="M0 192v192h418.8l1.8-5.3c.9-2.8 2.7-7.2 3.9-9.7s3-7 3.9-10c3.2-9.9 7.9-22.5 11.1-29.5.8-1.7 2.4-5.4 3.5-8.4 2.3-6.1 2.1-6.6-4-7.7-1.9-.4-6.3-1.8-9.7-3.1-4.9-2-6.3-3-6.3-4.6 0-1.8 3.4-7.1 6.9-10.7 3.4-3.5 9.9-14.8 10.5-18.4.4-2.2 2.3-7 4.2-10.8 2.2-4.5 3.4-8.2 3.4-11 0-2.4.7-9 1.5-14.8s1.5-17.1 1.5-25.3c0-13.3-.2-14.7-1.7-14.8-1-.1-12.1-.2-24.8-.4-20.3-.2-25.1-.6-41.5-3.4-10.2-1.7-19.3-3.5-20.2-4.1-1-.5-5.1-1-9.2-1h-7.5l-1.7-3.8c-2.7-5.8-5-7.5-11.1-8-2.9-.3-5.6-.8-5.9-1.3-.6-1.1 1.8-1.6 13-2.8 4.9-.5 9.2-1.4 9.6-2.1.5-.8 2-1 4.1-.7 1.9.3 8.4 1.3 14.4 2.1 6.1.9 16.6 2.5 23.5 3.7 12.2 2.1 13.1 2.1 35.6.7 21.1-1.3 23.3-1.7 25.4-3.6 1.3-1.2 2.7-1.9 3.1-1.6.5.3.6-.2.3-1-.3-.9-1-1.6-1.5-1.6s-.9-2.2-.9-4.9c0-4.5-.2-5-2.9-5.9-5.7-2-6.7-8.5-3.1-19.2 1.2-3.6 3.2-7.6 4.6-9.1 1.3-1.4 2.4-2.9 2.4-3.5 0-1.3-7-8.7-10-10.7-1.4-.8-7.2-2.5-13-3.7-11.9-2.4-20.6-5.5-21.4-7.5-.8-2.1 4.2-5.5 8.3-5.6 2-.1 7.4 0 12 .1 7.3.2 8.3 0 7.8-1.4-.4-1 .5-2.9 2.4-5.1 2.7-3.1 3.7-3.5 7.9-3.5 8.4 0 15 3.4 19.3 9.9 1.3 2 3.8 7.5 5.7 12.3l3.3 8.6 6.1 1.7c3.4 1 8.2 2.8 10.9 4.1 5 2.6 10.7 9.3 10.7 12.6 0 1.1.5 2.8 1.1 4 .6 1.1 1.7 14.4 2.4 29.7 2.6 52.3 3.3 38 3.4-70.2L512 0H0zm307-14.6c0 3.4-.1 3.5-5.2 4.1-2.9.4-38 .5-77.9.3-69.9-.3-72.8-.4-74.8-2.2s-2-2-.5-3.8c1.6-1.7 5.3-1.8 80.1-1.8H307z"/><path d="M440 103.3c0 .3 1.5 1.3 3.3 2.2 1.7.8 5.4 3.6 8 6 3.4 3.2 5.6 4.5 7.7 4.5 3.5 0 3.9-1.7 1.3-5.8-3.6-5.4-5-6.2-12.8-6.9-4.1-.3-7.5-.3-7.5 0m70.5 205.9c-.2.7-.6 3.5-1 6.2s-1.3 5.9-2 7c-.7 1.2-1.6 4.4-1.9 7.3-.4 2.9-2.2 11.4-4.2 19-2.3 9.3-3.7 17.3-4.1 24.6l-.6 10.7H512v-38c0-20.9-.2-38-.5-38s-.7.6-1 1.2m-38.2 13c-.6.7-5.1 9.2-10 18.8-5 9.6-10.8 20.4-12.9 24-7.7 13.5-9.4 16.5-9.4 17.7 0 1 4.3 1.3 18.4 1.3h18.3l.7-8.8c.4-4.8.6-12.3.6-16.7-.1-4.4.2-14.6.6-22.8l.7-14.7h-3c-1.7 0-3.5.6-4 1.2"/></svg>