<svg xmlns="http://www.w3.org/2000/svg" width="682.667" height="512" version="1.0" viewBox="0 0 512 384"><path d="M0 51.1v51.1l10.2 12.7c5.6 6.9 13.6 16.4 17.7 21.1 4.2 4.7 10.9 12.3 14.9 17 3.9 4.7 9.6 11.2 12.6 14.5l5.5 6 169 .3 169.1.2v3.5c0 1.9-.1 3.6-.2 3.7-.2.2-74.7.5-165.5.8l-165.3.5 7.2 8.5c23.3 27.3 36.1 52.6 34.3 67.5-.8 6.7-4.1 17.1-7 22-3.2 5.5-9.5 11.4-12.5 11.7-2.4.3-2.5.1-3.6-10.2-1.3-12.6-1.8-14.8-5.5-27-3.3-10.6-12.3-29.9-20.1-42.9-7.6-12.7-18-27.7-20.3-29.3-1.2-.9-40.5-1.1-40.5-.1 0 .3 1.4 3.5 3 7 1.7 3.5 3.7 9.3 4.4 12.8.7 3.6 2.1 7.7 3.1 9.2 1 1.6 7 8 13.5 14.3 17.1 16.8 21 25.8 17.6 40-1.4 5.5-1.5 7.8-.7 10.3 1.8 5.4 0 8.8-6.2 11.9-6.9 3.5-19.5 4.7-24.9 2.4-2.1-.9-5.1-1.6-6.8-1.6H0v95h512l-.2-94.1-.3-94.1-6.1-2c-6.2-2-9.7-4.4-12.6-8.7-1.4-2-1.6-4.7-1.1-19 .4-14.2.8-17 2.4-19.3 1.4-2 1.9-4.4 1.9-9 0-6.4 1.8-10.8 4.3-10.8.7 0 3-.9 5.2-2s4.5-2 5.2-2c1 0 1.3-12 1.3-61.5V0H0z"/><path d="M0 151.9V174l12.3-.1c6.7 0 14.1-.4 16.5-.7l4.3-.7L29 167c-2.3-3-8.2-10.8-13.3-17.4-5.1-6.5-10.1-13-11.2-14.5-4.6-6.2-4.5-6.7-4.5 16.8M511.3 169c0 3.6.2 5 .4 3.2.2-1.7.2-4.7 0-6.5-.2-1.7-.4-.3-.4 3.3"/></svg>