<svg xmlns="http://www.w3.org/2000/svg" width="682.667" height="512" version="1.0" viewBox="0 0 512 384"><path d="M0 5.4c0 3.4.5 5.7 1.3 6 1 .5.9.7-.1 1.2-.6.3-1.2 2.1-1.2 4 0 3.2.2 3.4 2.7 2.8 1.6-.4 3.8-1.1 5.1-1.5 1.3-.5 3.2-.9 4.3-.9 2 0 2 0 0 2.2-1.7 1.7-1.9 3-1.4 6.2.3 2.3 1 4.9 1.5 5.9s.7 4.1.3 6.9l-.7 5-5.9-.7-5.9-.7V51h4c2.3 0 5.3-.6 6.8-1.4 1.6-.8 5.9-1.4 10.6-1.4 7.9-.1 7.9-.1 11.7 3.9 2 2.1 4.2 3.9 4.8 3.9s1.1.9 1.1 2c0 2.2 1.4 2.4 7 1.1 5.1-1.1 6.3-.5 4.4 2.5-1.6 2.3-1.5 2.6 7.9 12.6 8.9 9.7 36.4 37 66.2 66.1 7.2 7 16.8 17.1 21.5 22.5l8.5 9.9 6.5.6c3.6.4 63.1.7 132.3.7H419v3.4c0 2.6-.5 3.5-2.2 4-1.3.3-59.3.6-129 .6H161.1l3.8 6.8c2.2 3.7 4.8 9.7 5.9 13.3 1.8 5.8 1.9 7.8 1.2 16.5-1.1 12.5-5.1 22.4-10 24.9-4.2 2.2-5.6 1.5-6.4-3.2-2.4-12.9-5.4-22.1-11.4-34.8-3.7-7.7-8.2-16.1-10-18.8l-3.4-4.7H60l4.2 4.6c2.4 2.5 5.4 5.1 6.8 5.9 5 2.6 15.6 14 18.8 20.2 3.8 7.2 4.3 13.3 1.8 23.3-.3 1.4 0 4.3.8 6.4.7 2.2 1.2 4.7 1.1 5.5-.2.9-.4 1.9-.4 2.3-.1.4-2.6 2.6-5.8 4.9-7.5 5.6-17.2 7.7-24.8 5.4-8.1-2.5-13.7-3.1-18.5-2.2-2.5.5-5.8.9-7.5.9-3.4.1-16.5-2.5-27.2-5.3-3.9-1-7.6-1.9-8.2-1.9-.7 0-1.1 5.1-1.1 15.9 0 13.4.2 16 1.5 16.5.9.3 2.2 2.1 3 4.1 1.4 3.1 1.3 3.9-.6 9.2-1.2 3.2-2.6 6-3 6.3-.5.3 2.3 3 6.1 6s7.1 6.1 7.4 6.8c.4.8-.8 1.9-3.1 2.8-3.5 1.5-5.8 1.5-9.5-.1-1.7-.7-1.8 1.2-1.8 31.9V384h512V0H0zm31.7.9c.4.6 2.4 1.9 4.3 2.8l3.4 1.6-2.5 1.7c-1.5.9-5.2 2.2-8.4 2.9-5.1 1-5.9 1-6.8-.5-1-1.4-1.3-1.4-3.3-.1-1.3.8-3.1 1.3-4.1 1.1-1.3-.2-.9-.8 1.7-2 3.5-1.7 3.5-1.8.8-1.8-5.3 0-2.6-3.3 4.4-5.5 5.5-1.7 9.5-1.8 10.5-.2"/><path d="M34.5 79.7c-1 .3-2.9 1.2-4.2 2l-2.2 1.5 1.8 3.7c2.9 5.6 4.3 14.9 4 25.1-.4 8.4-.6 9.4-2.9 11.2-5.5 4.4-7.6 11.2-4.7 14.8.7.8 3.7 2.7 6.7 4.1 7.3 3.5 11.9 7.5 13.8 11.9.8 1.9 2.2 4.6 3.1 6 1.7 2.4 4.6 10.8 4.3 12.2s15.3 2 41.5 1.6c14.9-.1 27.5-.6 27.8-1 .4-.4-.3-2-1.6-3.6s-3.1-3.9-3.9-5.1c-.8-1.3-2.6-3.5-4-5s-4.3-4.9-6.5-7.5c-6.6-8-10.7-12.7-16.6-19.1-3.1-3.3-9.7-10.5-14.6-16-5-5.5-15.1-16.2-22.4-23.8-13.3-13.6-14.3-14.3-19.4-13"/></svg>