<svg xmlns="http://www.w3.org/2000/svg" width="682.667" height="512" version="1.0" viewBox="0 0 512 384"><path d="M58 .9c0 2 3 7.8 5 9.6s5 6.6 5 7.9c0 .3-1.4 1.3-3.1 2.1-2.7 1.5-3.6 1.5-10.2-.1-4-.9-7.8-2.4-8.4-3.2-1.1-1.4-1.7-1.3-5.2.3-2.2 1-4.8 2.6-5.7 3.6-1.6 1.7-1.5 1.9 1 2.8 1.4.6 3.2.8 4 .5.9-.4 1.6.5 2 2.9.8 4.3 4 7.3 9.8 9.1 4.3 1.2 4.8 1.2 9.7-1.1 5.6-2.7 7-4.5 5.2-6.7-.9-1.1-.6-1.5 1.4-2 2.5-.6 3.4-2.9 1.5-4.1-.5-.3-1-1.4-1-2.3 0-1.3.5-1.2 1.9.8 1.1 1.3 1.8 2.7 1.5 3.1-.4.8 2 1.9 4.1 1.9.8 0 2.5 1 3.9 2.2 1.4 1.3 3.6 3.3 5.1 4.6 1.4 1.3 2.3 2.8 1.9 3.4-.6 1 1.1.9 11.5-.9l3.5-.6-2.2 2.8C99 39 98 40.7 98 41.2c0 1.1 12.4 13.4 35.5 35.1 8.3 7.8 15.9 15 17 16.2 1.1 1.1 7.7 7.2 14.5 13.5 13.2 12.1 32.4 31.1 37.6 37 4.6 5.4 13.6 19 16.3 24.7 2.3 4.9 2.4 5.1 7.5 5.7 2.8.3 51.8.6 108.9.6H439v3.4c0 2.6-.5 3.5-2.2 4-1.3.3-49.8.6-107.8.6H223.5v6.8c-.1 8.9-3.6 20.4-7 22.6-1.3.9-3.4 1.7-4.6 1.9-2 .2-2.5-.7-4.5-8.8-1.3-5-3.5-12-5-15.8l-2.7-6.7h-54l.8 4.2c.4 2.4.7 5.8.7 7.7-.1 2.5.8 4.4 2.9 6.8 3.4 3.9 3.4 4.2 1.4 11.1-1.8 5.8-4.8 8.7-13.6 12.5-10.4 4.7-32.4 7-37.9 4.2-1.6-.8-3.9-1.5-5.2-1.5-2.9.1-6.3 2.6-6.3 4.8 0 .9-1.6 2.5-3.5 3.4-3 1.5-6.1 1.7-23 1.5-21.3-.2-25.1.5-22.8 4.2.9 1.4.9 2.3.1 3.3-1.5 1.8 1.6 8.2 4.2 8.6 6.3 1 12.5 6.6 12.5 11.1 0 1.1-1.2 4.6-2.6 7.7l-2.6 5.6 6.6 6.6c3.6 3.6 6.6 6.8 6.6 7.2s-2 1.5-4.5 2.4c-4.3 1.7-7.6 1.5-10.2-.6-1.5-1.2-8 1.5-11.3 4.7-2.9 2.8-8.9 5.5-12.3 5.5-2.3 0-3.6-1.7-5.1-6.4-.5-1.5-1.3-1.7-4.1-1.2-1.9.3-5.1.9-7.2 1.3-2.5.4-3.4.3-2.9-.5.3-.6.2-1.3-.4-1.7-1.6-1-1.2-6 1-11.5 1.1-2.8 2-6.3 2-7.8.1-1.5.7-3.8 1.5-5.2s1.4-3.5 1.5-4.8c0-2.9-3.9-9-6.3-9.8-1.1-.3-2.7-2.5-3.8-4.7-1.8-4.2-1.9-3.6-1.9 64.5V384h512V0H285C155.4 0 58 .4 58 .9M66 25c0 .5-.4 1-.9 1-.6 0-1.3-.5-1.6-1-.3-.6.1-1 .9-1 .9 0 1.6.4 1.6 1M3.2 20.1l-3.2 1v11.4c0 13-.1 12.8 7.6 9.9 3.8-1.5 4.4-2.1 5.4-6.4 1.4-5.9.2-11.1-2.8-12.5C9 23 8 21.7 8 20.8c0-2-.1-2-4.8-.7"/><path d="M85.4 58c-3.4 1.4-3.6 2.5-1.4 8.9 1.5 4.5 2 8.6 2 16.1 0 14.2-.8 15.8-11.2 21.2-7.6 4-8.3 4.6-8.6 7.6-.4 4.4 2 7.9 6 8.7 8.7 1.8 17.5 10.6 23.9 23.7 1.7 3.5 4.1 7.1 5.3 8.1 2.5 2 14.8 8.5 22.7 11.8 2.9 1.2 7.4 3.9 9.8 5.8l4.4 3.6 23.1.3c12.7.2 25.5 0 28.4-.5l5.3-.8-3.4-5c-1.8-2.8-4.7-7-6.3-9.4-6.8-10.3-8.1-12.1-11.9-16.7-10.3-12.4-19.2-21.9-44.6-47.5C90.5 55.2 91 55.7 85.4 58M0 94.2v30.3l3.4-4c13-15.5 15.6-19 15.1-20.3-.3-.7-.5-2.3-.5-3.5 0-1.3-2.1-4.4-4.9-7.3C5.7 81.7 3.1 76.9 2.3 70 .9 56.3 0 65.8 0 94.2"/></svg>