<svg xmlns="http://www.w3.org/2000/svg" width="682.667" height="512" version="1.0" viewBox="0 0 512 384"><path d="M0 64.5c0 38.4.4 64.5.9 64.5 2.3 0 10-4 13.4-7.1 2.1-1.9 6.4-6.6 9.5-10.4 3.1-3.9 6.9-8.4 8.3-10 6.1-6.8 6.9-7.9 6.9-10.3 0-1.4-1.8-4.9-4-7.8-5-6.7-10-19-10-24.9 0-3.6-.4-4.7-2.2-5.6-6.3-3.2-8.3-7.9-5.9-14.1 1-2.5 6.6-4.9 12.8-5.4 5.6-.5 8.7-2.6 10.1-6.9 1.7-5.2.8-10.1-2.3-12.1-1.4-.9-2.5-2.3-2.5-3 0-1.7-.5-1.7-6.6.1-3.1.9-6 1.2-7.9.7l-2.9-.8L21 10c3.4-1.4 3.4-1.4 1-2s-2.3-.7 1.6-2.8C25.9 4 28 2.4 28.3 1.5 28.9.2 27.1 0 14.5 0H0zM85.8.7C86.4.9 87 2 87 2.9c0 1 1 2.9 2.3 4.3 1.2 1.3 3.8 4.3 5.8 6.6s4.1 4.2 4.6 4.2 2 1.1 3.3 2.5 2.9 2.5 3.6 2.5 1.8 1.4 2.6 3c.7 1.7 1.8 2.8 2.5 2.6.6-.3 4-.8 7.5-1.2l6.3-.7-2.7 3.5-2.7 3.5 18.2 17.9c10 9.9 29.7 28.7 43.7 41.9 34 31.9 40.5 38.7 50.7 53.1 3.3 4.7 8.9 16.3 10.4 21.5 1.2 4.5 1.4 4.7 5.7 5.3 2.5.3 48.3.6 101.8.6H448v3.4c0 2.2-.6 3.6-1.6 4-.9.3-46.7.6-101.9.6H244.2l-.6 4.4c-1.4 9-4.1 15-7.7 16.8-1.9 1-3.9 1.8-4.5 1.8s-2.1-4.2-3.4-9.3c-3.8-15.5-.5-13.7-25.9-13.7-20.9 0-22 .1-22.6 2-.3 1 0 3.1.8 4.6 1.3 2.6 1.2 2.9-1.8 5.8-1.7 1.7-3.4 3.6-3.6 4.1-.8 1.9-10.7 8.5-15 10-2.4.8-5.3 1.9-6.4 2.5-4.5 2.1-14.7 5-17.8 5-5.7 0-10.8-2.8-17.7-9.6l-6.5-6.4-3.9 1.2c-2.1.7-4 1.7-4.2 2.3-.3.6 1.3 5.8 3.5 11.5 5.1 13.8 6 13.2-22 15.4-9.7.8-18.5 1.9-19.7 2.5-2 1.1-2 1.2-.4 4 1.1 2 2.7 3.2 4.8 3.5 1.7.4 4.8 2.1 6.9 3.9 3.1 2.7 3.7 3.8 3.7 7.1 0 2.1-1 6.1-2.2 8.7l-2.3 4.8 2.1 2.3c8.6 9.7 10.2 11.6 10.2 12.5 0 1.1-6.6 3.3-9.8 3.3-1.2 0-3.2-.5-4.5-1.1-2.6-1.2-5.4-.2-15.7 5.6-2.9 1.7-5.6 2.4-7.5 2.1-3.3-.4-12 .7-14.6 1.8-1.1.5-2.4 0-3.8-1.5-2.5-2.7-2.8-8.3-.6-13.6.8-1.9 1.5-4.8 1.5-6.3s.9-4.8 2-7.4c1.7-3.7 1.9-5 .9-6.8-1.3-2.5-5.7-6.8-7-6.8-.5 0-1.9-2-3.1-4.4-1.3-2.5-7.6-9.9-14-16.4L0 216.2V384h512V0L298.3.1C180.7.1 85.1.4 85.8.7"/><path d="M71 9.7c-3 .9-6.5 2.8-7.7 4.3-1.5 2 .2 4 3.3 4 2 0 2.4.5 2.4 3 0 2.2 1.1 4.1 4 7 4.5 4.5 4.6 4.6 9.9 2.4 2.5-1 4.5-2.7 5.7-4.9l1.8-3.5-3.4-3.7c-1.9-2.1-4.2-4.2-5-4.8-2.9-1.9-9.5-4.2-11-3.8m42.2 45.7c-3.3 1-3.4 1.1-2.5 5.1 1.2 5.9.8 20.4-.7 25-1.7 5.2-2.8 6-13 9.1-10.7 3.3-13.3 5.4-12.4 10.3 1 5.5 2.1 7 5.8 7.6 4.5.9 13.6 6.2 13.6 8 0 .8.4 1.5.8 1.5 1.1 0 4.3 3.1 6.2 6 6.2 9.5 8.9 11.8 16.7 14.8 4.3 1.7 10.6 3.8 14.1 4.7 14.1 3.6 24.9 11.4 28.7 20.7 1.8 4.3 2.2 4.6 6.4 5.2 5.9.8 34.7.7 39.3-.2l3.8-.7-1.6-3c-2.7-5-4.4-7.8-6.4-11-1.1-1.7-2.4-3.9-2.9-5.1-.5-1.1-2-3.3-3.3-5-1.4-1.6-2.7-3.6-3-4.4-1.1-2.7-14.1-18.3-26.6-31.8-23.4-25.1-56.4-58.2-58.1-58.1-.9.1-3.1.7-4.9 1.3M34.8 228.7c.7.3 1.6.2 1.9-.1.4-.3-.2-.6-1.3-.5-1.1 0-1.4.3-.6.6"/></svg>