<svg xmlns="http://www.w3.org/2000/svg" width="682.667" height="512" version="1.0" viewBox="0 0 512 384"><path d="M.1 86.7c.1 49.2.5 83.8 1 79.9 1.8-15.8 6.9-31.7 14-44.3 4.5-7.9 12.9-15.5 20.7-18.9 6.3-2.7 7.5-2.9 20.6-2.9h13.9l1.7-3c1.1-1.9 1.4-3.6.9-4.6s-.2-2.9 1-5.2c1.7-3.3 1.7-4.1.4-8.9-2.5-9.2-2.4-19.4.2-26.5 1.9-5.4 2-6.4.8-7.5-3-2.5-4.5-6.9-3.8-11.5.8-5.3 3.5-7.4 9.6-7.5 3.5 0 4.7.5 6.4 2.6 3 3.8 5.6 3.3 10.2-2.2 5.6-6.7 5.9-7.9 2.3-11.2-1.6-1.5-3-3.7-3-4.9 0-2.3-.8-2.5-9-2.2l-5.5.3-.2-3.2c-.2-2.4.3-3.3 2-4 1.3-.5-14.7-.9-41-.9L0 0z"/><path d="M146 2.9c0 1.7.5 3.3 1 3.6.6.3 1 1.9 1 3.4 0 2.1 1.2 3.8 5.1 7.1 5.1 4.3 5.7 4.4 12.4 3 5.1-1.1 7 1.6 4 5.6-.8 1-1.5 2.7-1.5 3.6s12.3 13.5 27.3 27.9c61.9 59.9 72.3 71.1 79.9 86.4 4.4 8.9 6.1 15.1 6.2 22.9.1 5.2.4 6.2 2.1 6.8 1.1.3 44 .6 95.3.7l93.2.1v3.4c0 2.2-.6 3.6-1.6 4-.9.3-44 .6-95.9.6h-94.3l-2.1 4.9c-1.1 2.7-2.1 5.5-2.1 6.1s-1.2 1-2.7.8c-2.7-.3-3.7-2-5.9-10.6-.3-1.1-7.4-1.2-37.6-.9-20.5.3-37.7.5-38.3.6-.5 0-9.2-.2-19.2-.5-10.1-.4-18.3-.3-18.3.1s1 2.1 2.3 3.8c3.8 5.3 11.7 24.8 11.7 28.7 0 2.5-1.8 3.4-11 5.4-10.8 2.4-20.6 6.2-20.1 7.8 1.3 4 1.1 8.4-.3 12.3l-1.7 4.3 3.6 5.7c2 3.1 4.3 7.2 5.1 9 1.3 3.2 1.2 3.5-.8 4.9-2.5 1.8-14.8 2.3-14.8.6 0-1.1-3.9-1.3-6.4-.4-2.7 1-1.8 2.8 2.9 5.7 3.2 2.1 4.5 3.5 4.5 5.2 0 2.8-1.7 3.5-7.8 3.5-2.6 0-5.1.4-5.7.8-.5.4-2.3 3.3-3.9 6.5-3.3 6.7-5.1 7.9-10.9 7.5-3.5-.2-4.5-.9-6.5-3.8-2.1-3.1-2.3-4.2-1.7-9 .4-3 .9-7.1 1.1-9s1.2-6 2.3-9c2.2-6.3 1.8-7.8-3.2-10.7-1.8-1.1-4.6-4-6.1-6.4-1.6-2.5-6.5-7.2-11.5-11-7.3-5.6-9.5-6.8-14-7.4-12.4-1.7-25-6.8-34.7-14-11-8.3-19.9-18.9-22.8-27.2C.1 176.2 0 179.4 0 282.9V384h512V0H146z"/><path d="M127.8 15.4c-2.2 1.6-2.2 2.1-.1 4.6 2.3 2.6 5.7 2.5 8.3-.2 2.5-2.7 2.5-3.5.1-4.8-2.7-1.4-6.2-1.2-8.3.4m44.5 43.4c-1.3.2-2.3 1.1-2.3 1.9 0 .9-.5 4.6-1.1 8.2-2.1 11.9-5.7 13.6-32.2 15.5-17.1 1.3-20.1 2.2-17.7 5.1.7.9 1 2.7.7 4.5-.4 1.8.1 4.7 1.5 8 1.9 4.5 2.5 5.1 6.7 6.4 6.6 2 14.7 6.2 20 10.3 4.6 3.5 4.7 3.5 12.1 2.9 4.1-.4 10-1 13-1.5 8.5-1.4 21.4-1.3 26.2.3 2.4.8 7.3 1.8 11.1 2.1 3.7.4 7 1.1 7.3 1.6s0 .9-.5.9c-.6 0-1.1.4-1.1.9s1.8 1.1 4 1.5c2.6.4 4 1.1 4 2.1 0 .8.5 1.5 1.1 1.5s.9.6.6 1.4.2 1.6 1.4 1.9c3.4.9 2 8.5-2.2 11.4-1.3 1-1.6 2.3-1.3 5.3.7 7.2-2 11.1-10.6 15.3-7.4 3.6-7.4 3.7-4.8 5.6 1.9 1.3 6 1.7 25.6 2 25.1.3 30.2-.1 30.2-2.5 0-4.5-14.4-30-25.1-44.4-9.7-13.2-43.3-49.4-58.9-63.6-3.9-3.5-6.2-4.9-7.7-4.6M147.5 171c-.9 1.5 2.6 2.5 7 2 1.6-.1 1.5-.4-1-1.5-3.6-1.7-5.2-1.8-6-.5m-49.1 61.6c-.7.3.2 1.9 2 3.9 1.7 1.9 3.8 4.3 4.7 5.3 3.4 4 9.5.4 10.6-6.2l.6-3.6-8.4.1c-4.6 0-8.9.3-9.5.5"/></svg>