<svg xmlns="http://www.w3.org/2000/svg" width="682.667" height="512" version="1.0" viewBox="0 0 512 384"><path d="M0 87v87h3.9c2.1 0 5.3-.3 7-.6 2.9-.6 3.1-.9 3.1-4.9 0-5.9 2.7-19.6 5.2-26.4 7.5-20.6 16.2-31 30.2-36.4 4.1-1.6 7.4-1.9 17.6-1.9 7.1.1 13-.4 13.7-.9.7-.6 1-2.2.7-3.8-.4-1.8.1-4.1 1.2-6.2 1.5-2.8 1.8-5.9 1.9-17.9 0-14.1.1-14.7 3-20.3 2.7-5.3 2.8-5.9 1.3-6.8-2.6-1.4-4-7.6-2.7-12.1 1.8-6.7 10.2-9 15.7-4.3 4 3.4 5.9 3.1 11-1.5l4.3-3.9-2-2.8c-1.2-1.5-2.2-4.4-2.4-6.3-.3-3.8-2-4.7-8.9-4.9-3-.1-3.9-.6-5-2.9-1.3-2.7-1.3-2.7 3.2-3.7 3.5-.8 4.6-1.5 4.8-3.3l.3-2.2H0z"/><path d="M165 1.4c0 .7-.9 1.6-2.1 1.9-1.7.5-1.9 1.1-1.4 4.4 1 5.5 4.3 12.1 6.6 12.8 1 .4 2.9.3 4.1-.1 3.2-1 7.9-.7 9.1.5.7.7.4 2.5-.8 5.7-1.7 4.4-1.7 4.7.1 6.3 1.1 1 8.2 7.8 15.9 15.2S215.2 65.8 221 71c19.3 17.6 43.6 40.8 48.1 46.2 15.5 18.4 21.4 32 20.7 47.8l-.3 7.8 3.5.6c1.9.3 44.8.6 95.3.6H480v3.4c0 2.2-.6 3.6-1.6 4-.9.3-44.2.6-96.4.6h-94.8l-.6 2.5c-.4 1.4-1.3 2.5-2 2.5-1.6 0-4.6-2.7-4.6-4.1 0-.5-21.3-.9-53.6-.9h-53.6l1.6 2.2c4.8 6.7 12.6 24.6 12.6 28.9 0 2.3-2.4 3.6-11 6-3.7 1-10.2 3.4-14.4 5.3-7.1 3.3-7.6 3.7-7 6 .3 1.4.1 4.8-.6 7.5-1.1 4.7-1 5.1 3 13.1 2.3 4.5 4 9.1 3.8 10.3-.4 2.7-5.6 4.1-11.8 3.2-2.5-.3-6.3-.7-8.5-.8-3.7-.2-3.9 0-4.6 3-.6 3-.3 3.5 4.5 7 3.7 2.8 5.1 4.5 5.1 6.3 0 2.2-.6 2.6-5.4 3.5-5.2 1-5.4 1.2-7.2 5.9-4.1 10.9-11.4 13.8-17.8 7.2-2.7-2.8-3.3-4.2-3.4-7.8 0-9.7.6-15.3 1.9-17.3.8-1.2 1.7-4.2 2-6.8.6-4.5.6-4.7-2.9-6.7-2-1.2-5.2-4.3-7-6.9-3.1-4.3-12.3-12.2-17.3-14.9-1.1-.6-6.4-1.5-11.9-2.2-12-1.4-20-4.2-30.6-10.6-8.4-5.1-20.5-16.2-24.5-22.6-3-4.6-6.4-13.1-6.6-16.4-.2-2.3-.5-2.4-7.5-2.4H0v202h512V0H338.5C191.4 0 165 .2 165 1.4"/><path d="M187.5 64c-.2.3-.8 3.1-1.4 6.3-1.2 6.8-3.5 11.1-6.7 12.6-3.6 1.6-12.8 3-27.7 4-10 .8-15 1.6-18.6 3.1-4.7 2.1-4.9 2.3-4.9 6.5-.1 2.9.7 5.8 2.3 8.7 2.3 4.1 3 4.5 10.8 7.1 4.5 1.5 10.5 4.1 13.2 5.8 6.2 3.9 9.8 4 22.7.5 10.6-2.9 17.8-3.3 35.8-2 13.4 1 12.9.8 20.6 8.2l4.4 4.4-3 5.9c-1.7 3.3-2.8 6.5-2.4 7 .3.5.7 2.6.9 4.5.3 3-.3 4.3-3.3 7.6-2 2.2-6.2 5.3-9.4 6.9s-5.8 3.3-5.8 3.7 1.4 1.3 3 1.9c3.3 1.2 3.7 2.4 1.5 4.6-1.2 1.3-1 1.5 1.7 2.1 4 .8 50.7.6 53.5-.2l2.2-.7-1.9-5c-4.2-11.6-9.6-21.6-19-35-9.6-13.7-17.8-23-41.9-47.2-15.7-15.7-22.7-22.1-24.2-22-1.1.1-2.2.4-2.4.7M165 171.8c0 1 7 2.5 7.9 1.7.7-.8-.2-1.3-4.1-2-2.3-.4-3.8-.3-3.8.3m-44.2 63.9c-3.2.2-5.8.7-5.8 1.1 0 1.3 10.4 9.7 12.1 9.8 1.1.1 1.7-.7 1.7-2.2 0-1.2.9-3.6 2.1-5.3 1.5-2.1 1.8-3.1.9-3.1-.7 0-2.2-.2-3.3-.3-1.1-.2-4.6-.2-7.7 0"/></svg>