<svg xmlns="http://www.w3.org/2000/svg" width="682.667" height="512" version="1.0" viewBox="0 0 512 384"><path d="M0 87v87h58.4c33.5 0 59.5-.4 60.9-.9 2.6-1 2.6-.8 6.4-23.6 1.8-10.8 1.9-13.5.8-17.7-.6-2.2-.1-3.4 2-5.9l2.6-3.2-.3-18.1c-.3-17.9-.3-18.2 2.4-23.6 2.2-4.5 3.3-9.9 3.8-17.5.2-3.6-.9-6-3.8-8.3-4.6-3.8-7.3-14.3-5.3-20.5 1.3-3.7 3.6-5.1 10.6-6.2 2.2-.3 6.2-1.3 8.8-2.2 3.8-1.2 4.7-1.9 4.2-3.2-1.6-3.8-2.2-8-1.7-13.3l.4-5.6 3.9-.6c2.5-.4 3.9-1.2 3.9-2.1C158 .2 148.3 0 79 0H0zM204 4.1c0 2.2-.5 4.9-1 5.9-.7 1.3-.7 2.6-.1 3.7.5 1 1.6 3.8 2.3 6.3 1.6 5.6 7.1 9.9 16.3 13 3.6 1.2 7 3 7.5 4 1.2 2.2 1.3 10 .2 10-.4 0-3.2-.9-6.2-2-6.2-2.2-8.3-4.4-7.7-7.8.3-1.7-.5-3-3.2-5.2-5.1-4.3-6.5-4-5.7 1.1.4 2.3 1.2 5.1 1.8 6.3 1.7 3.1 2.2 12.3.8 15.7-.9 2.2-1.9 2.9-3.9 2.9-4.8 0-5.4 1.2-3.2 6.2 1 2.5 3.4 6 5.3 7.7 3.5 3.5 4.3 3.5 17.9 1.5 4.4-.6 4.9-.4 8.9 3.2 4.6 4.2 13.9 17.6 16.6 24 6.2 14.7 9.1 33.3 6.1 39.3-1.5 3.1-1.2 7 .7 8.3.7.4.4 1.3-.7 2.6-.9 1-1.7 3.5-1.7 5.5 0 1.9-1.2 6.3-2.6 9.7-1.5 3.3-2.4 6.4-2 6.8s59.5.8 131.2 1l130.4.2V0H366.5C279.6 0 221 .4 221 .9s1.4 2.1 3 3.4c1.7 1.4 3 3.2 3 3.9s1.2 2.2 2.6 3.3c6.3 4.7 6.2 4.6 8.1 15.2.8 4.8-1.2 4.2-8.7-2.9-6.2-5.8-11.6-9.2-13.2-8.2-.5.3-.8 0-.8-.6s-.4-.9-.9-.5c-.5.3-1.2.1-1.6-.5-.6-.9.7-1.3 4.8-1.3.9 0 1.7-.1 1.7-.2 0-.8-3.9-4.4-5.8-5.4-1.5-.8-2.1-1.8-1.8-2.8.9-2.3-1.2-4.3-4.5-4.3-2.7 0-2.9.3-2.9 4.1m-32.6 109.1c-1.2 2.4-1.4 3.6-.5 5.5.6 1.3 1.1 3.2 1.1 4.2 0 2 4 5.1 6.5 5.1.9 0 3.4.9 5.6 2.1 2.8 1.4 4 1.6 3.6.7-.2-.7 0-2.1.5-3.1.7-1.4-.5-3.2-5.9-9.2-3.7-4.1-7.3-7.7-8-7.9-.7-.3-2 .8-2.9 2.6m205.9 68.5c-85.1.2-133.3.7-133.3 1.3 0 .5-2.6 1.7-5.8 2.6-3.1.9-6.1 2.3-6.5 3-.4.8-2.4 2.2-4.3 3.2l-3.5 1.8 8.8 8.4c4.8 4.6 11.4 10.8 14.5 13.8 6.8 6.5 8.5 10.2 5.8 12.7-1.6 1.4-2.9 1.5-11.4.6-16.4-1.9-20.9-1.5-27.4 2-7.9 4.3-8 4.5-5 7.6 4.2 4.5 6.6 10.2 8.3 19.8.8 4.9 2.5 11.8 3.7 15.3 1.4 4.1 1.8 6.6 1.2 7.2-.5.5-3.5 1.5-6.6 2.1-5.5 1.1-5.9 1-12-2.1-3.5-1.8-7.1-3.9-8-4.8-2-1.7-2.3-6.6-.8-10.6.5-1.5.6-3.5.1-4.8-.6-1.5-.4-3.2.5-4.9 2-4.1.8-12.4-2.1-13.9-2.2-1.2-14.6-.4-26.2 1.7-4.8.8-4.3 3.5 2.7 15.9 3.3 5.8 6 10.8 6 11.1 0 .4 2.6 4.3 5.8 8.7 10.1 14.1 11.9 17.5 12.5 24.1.4 3.4 1.3 7.7 2.2 9.8 1.9 4.5 1.9 8.1.1 11-.8 1.2-2 4.8-2.7 8-1.3 6.2-5.1 10.7-9 10.7-3.8 0-9.6-3.8-11.3-7.4s-2.4-20.6-.8-20.6c.9 0 3.2-8.8 3.2-12.4 0-1.2-1.3-3.5-3-5.1-1.6-1.5-3.6-4.9-4.5-7.4-1.1-3.1-4.4-7.8-10.4-14.4-8.4-9.3-11.2-13.8-12.5-19.9-1.1-4.8-4.1-5.9-12.1-4.6-12.6 1.9-39.8-.7-47.5-4.7-5.2-2.7-7.6-9.9-6.1-18.1 1.6-8.4 8.1-23.5 12-28.1 4.3-4.9 10.7-9.9 17.9-13.8 2.8-1.5 5.2-3.2 5.2-3.7 0-.4-25.9-.8-57.5-.8H0v202h512V282.5c0-55.8-.3-101.4-.7-101.3-.5.2-60.8.4-134 .5"/></svg>