<svg xmlns="http://www.w3.org/2000/svg" width="682.667" height="512" version="1.0" viewBox="0 0 512 384"><path d="M0 87v87h74.8c41.1 0 75.2-.4 75.8-.8 1.5-1.1 3.7-12.7 3.8-20.3.1-4.9.6-7.2 1.9-8.6 2.2-2.5 2.2-4.7-.4-14.6-1.6-6.3-1.9-9.8-1.5-15.2.4-3.9 1-12.6 1.4-19.5.7-12.5.7-12.5-1.9-15.5-2.3-2.7-2.6-3.6-2.2-9 .5-6.3.4-6.8-6.6-23.4-1.7-4-3.4-9.1-3.7-11.3-.6-3.7-.4-4.1 4.2-8.6 2.7-2.6 6.2-5.4 7.7-6.2 2.7-1.3 2.8-1.6 2.2-6.3-.4-2.7-1.8-6.5-3.1-8.5-1.3-1.9-2.4-4.1-2.4-4.8C150 .2 137.6 0 75 0H0zM175 3.3c0 1.8-.8 4.2-1.7 5.3-2.9 3.1-4 7.5-3.1 12.3.9 5.3 2.3 7.1 5.6 7.1 2.3 0 2.4-.2 1.8-3.9s-.3-4.2 3.1-7c2.1-1.7 4.8-3.1 6-3.1 2.6 0 9.3 3 9.3 4.2s2.7 1 5.1-.5c1.9-1.1 2.4-.8 5.3 2.6 1.7 2.2 5.2 7.8 7.7 12.5 3.3 6.2 5.7 9.4 8.3 11.1 5 3.4 5.6 6.4 2 10.2l-2.9 3 1.7 4.5c.9 2.6 1.2 4.7.6 5-.5.3-.7 1.9-.4 3.5.6 3.8-2 5.2-7.7 4.4-5.6-.8-12.1 1.4-12.5 4.4-.4 2.6 3.4 9.1 5.4 9.1.8 0 3.3-.9 5.5-2.1 4.6-2.3 6.9-1.4 6.9 2.6 0 4.5 2.1 8.5 4.5 8.5 1.7 0 2.7 1 4 3.7 3.1 7 3.8 8.2 6.1 10.3l2.2 2.2 4.2-3.1c2.4-1.7 5.1-3.1 6-3.1 2.5 0 9.1 7.5 16.6 18.9 7.8 11.9 11.4 19.6 16.9 35.6l4 12 113.3.3 113.2.2V0H175zm33.4 121.4c-6.3 6-8.4 10.5-6 13.2.9 1 3.1 1.8 5.1 1.9 1.9.1 6.1 1.5 9.4 3.2 3.3 1.6 6.2 3 6.5 3 .2 0 1-3.1 1.7-7 1.2-6.9 1.2-6.9-1.7-10.7-3.6-4.8-7.4-8.3-8.8-8.3-.7 0-3.5 2.1-6.2 4.7M0 283v101h512V182H286.5l-1.4 3.1c-.7 1.7-3.4 4.4-6 6.1-5.5 3.5-10.1 3.4-16.2-.6-2.4-1.7-5.2-2.6-7.7-2.6-2.1 0-4.6-.6-5.6-1.3-1.5-1.1-2.6-.9-7.4 1.5-7 3.6-6.9 3.4-4.7 5.8 1 1.2 1.9 3 2 4.2.2 2.1 16.5 18.7 23.8 24.1 10.6 7.9 10.9 23.9.7 36.7-3.7 4.6-11.5 9.8-19.3 13-5.5 2.1-5.8 2.5-5.2 4.9.4 1.4 1.1 6.2 1.5 10.6.5 4.4 1.2 9.2 1.5 10.6.6 2.4.3 2.8-2.7 3.7-1.8.6-5.1 1.3-7.3 1.6-3.7.5-4.4.2-9-3.9-4.9-4.3-5-4.5-5.2-10.6-.1-3.4-.6-6.6-1.1-7.1-1-1-24.1 1.8-25.5 3.1-.5.5-.3 2.8.3 5.2.7 2.4 1.4 5.4 1.6 6.6.7 3.7 2.2 7.1 4.9 11.1 1.4 2 2.5 4.9 2.5 6.5s1.1 4.7 2.4 7c1.5 2.8 2.6 6.6 3 11.2.4 3.8 1.1 8.6 1.7 10.7 1.4 5.3-.4 19.4-2.9 22.7-6.2 8.4-18.8 2.7-20.6-9.4-.5-4-.3-5.8 2.8-22.4 1.5-7.9 1.5-8.6-.2-10.9-3.4-4.8-4.2-6.7-4.2-10.2 0-2.5-1.9-6.7-7.1-15.2-3.9-6.5-7.7-12.2-8.3-12.6-.6-.5-5.4-1.5-10.6-2.1q-33.6-4.2-43.2-12.9c-3.8-3.5-4-3.8-3.6-8.7.3-4 1.5-6.7 6-13.5 4.9-7.5 12-17 17.8-23.8 1.1-1.3 2-2.6 2-3 0-.3.6-1.3 1.4-2.1 4.4-4.9 11.5-22.6 13.1-32.9l.7-4.2H0z"/></svg>