<svg xmlns="http://www.w3.org/2000/svg" width="682.667" height="512" version="1.0" viewBox="0 0 512 384"><path d="M0 87v87h80.8c63.2 0 81.2-.3 82.4-1.3 2.1-1.7 5-9.5 4.6-12.6-.1-1.5.4-4.1 1.1-5.8 1.1-2.7 1.1-4.2-.3-9.5-.8-3.5-1.8-10.8-2.2-16.3-.5-7.2-1.2-11-2.7-13.7-2-3.6-2-4-.5-12.4l1.5-8.6-3.3-2c-1.9-1.1-3.4-2.2-3.4-2.3 0-.2.6-2.8 1.4-5.7 1.4-5.7 1-11-1.7-22.8-.9-3.6-2.2-10.5-3.1-15.4-1.5-8.5-1.5-9.1.4-13.3 1.5-3.5 2.4-4.3 4.5-4.3 2.6 0 2.6 0 2-5.8-.6-4.4-1.4-6.3-3.6-8.5-3.1-3.2-5.4-8.8-4.6-11.8.5-1.9-.9-1.9-76.4-1.9H0zM178 2c.6 1.1 1 4.8 1 8.2-.1 3.7.8 9.5 2 13.8 1.2 4.1 2.5 9 3 10.8.9 3.6 3 6.6 3.9 5.6.3-.3.6-2 .6-3.7 0-2.4.9-3.7 4.3-6.4 4.3-3.3 4.3-3.3 8-1.6 2 .9 6 2.3 8.7 3.2 3.1 1 6.5 3.1 9 5.6 4.8 4.9 11.8 17.9 11 20.5-.3 1-.1 4.7.6 8.2.6 3.4 1.1 7.2 1 8.3 0 1.1.6 3 1.4 4.1 1.2 1.9 1.2 2.3-.1 2.8-.9.4-1.4 1.3-1 2.1.3.8 0 1.4-.7 1.2-.7-.1-1.2.8-1.1 2 0 1.9-.5 2.3-3.5 2.5-5.8.2-6.4.4-10.3 1.8-4 1.5-4.2 1.8-3 3.6 2 3 11.3 4.7 12.7 2.4 2-3.2 8.5 1.8 8.5 6.6 0 1.2 1.3 3.5 3 5 1.6 1.6 3.2 4 3.5 5.4.8 3.2 5.4 9.9 8.1 11.6 1.9 1.3 2.3 1 5.3-3.2 3-4.3 3.3-4.5 5.4-3.1 5.9 3.8 22.9 29.1 29.3 43.7 2.1 4.7 4.2 9.1 4.7 9.7.7 1 23.9 1.3 109.8 1.3H512V0H344.5C177.3 0 176.9 0 178 2m7 84.5c.7.8 1.7 1.5 2.2 1.5.6 0 .5-.7-.2-1.5s-1.7-1.5-2.2-1.5c-.6 0-.5.7.2 1.5m-3.3 4.2c-1.4 1.3-.6 2.4 1.5 2.1 2.7-.4 3.6-2.8 1.1-2.8-1.1 0-2.3.3-2.6.7m40 43c-4.1 6.5-5.9 10.4-5.3 11.8.3.8 2 2.2 3.8 3.1s5.1 3.5 7.3 5.8c2.5 2.6 5.7 4.6 8.5 5.5 2.5.7 6 2.4 7.8 3.8s3.6 2.2 3.9 1.9.1-3.1-.6-6.2c-1.2-6-4.7-11.4-14.5-22.1-7.1-7.8-8.1-8.1-10.9-3.6M250 172c0 .5.5 1 1.1 1 .5 0 .7-.5.4-1-.3-.6-.8-1-1.1-1-.2 0-.4.4-.4 1M0 283v101h512V182H295.2l1 4.2c1.2 5.6.2 11.2-2.9 14.8-3.1 3.7-5.6 3.8-11.9.4-3.1-1.7-7-2.8-10.4-3-4.7-.3-5.9-.8-8.2-3.6-1.6-1.8-2.8-3.8-2.8-4.5s-.8-2.8-1.7-4.8c-1.7-3.5-1.7-3.5-8.1-3.5-6.1 0-6.3.1-5.7 2.2.4 1.3 1.1 2.7 1.6 3.3 2.5 2.6-.3 7.4-4.3 7.5-1 0-1.8.4-1.8.9 0 1.8 14.3 18.7 20.4 24.1 13.6 11.8 14.6 13.4 14.6 23.7 0 15.5-7.7 28.5-22.5 38.2-5.1 3.3-5.5 3.9-4.4 6.8.5 1.3.8 6.3.6 11l-.2 8.7-6.8 1.7-6.7 1.7-4-4.2c-2.3-2.3-4.7-6.2-5.6-8.9-1.4-4.2-1.9-4.8-3.8-4.3-1.1.3-6.4 1.3-11.6 2.2s-9.8 1.9-10.3 2.3c-1.3 1.3 1.4 11.3 4.5 16.9 1.9 3.3 2.8 6 2.5 7.4-.4 1.3.2 3.5 1.2 5.2 1.1 1.9 2.1 6.1 2.5 10.6.4 4.1 1.2 10.6 1.8 14.5 1.5 9.5.4 16-3.2 19.7-5.5 5.5-13.5 2.7-18.1-6.4-2.4-4.7-2.3-11.4.5-26.8l1.7-9.4-2.3-3c-1.5-2.1-2.3-4.7-2.4-8.1-.1-3.8-1.1-6.6-3.8-11.2-4.4-7.5-6.8-9.3-12.1-9.3-9.2 0-25.8-3.9-34.1-8.1-12.8-6.3-18.5-13.2-20.5-24.7-.8-4.6-.6-6.9.9-12.2 2.4-8.7 7.1-14.7 16.3-21 13.6-9.2 23.9-26.8 26.4-45 .4-2.4.9-4.8 1.1-5.2.3-.5-36.2-.8-81-.8H0z"/></svg>