<svg xmlns="http://www.w3.org/2000/svg" width="682.667" height="512" version="1.0" viewBox="0 0 512 384"><path d="M0 86.5V173l111.8-.2 111.7-.3-.2-3.8c-.2-3.4-3.5-16.5-9.3-36.7-1-3.6-4-14.4-6.6-24s-5.5-20.7-6.6-24.5c-1-3.9-3-11.1-4.3-16-1.3-5-4.5-16.4-7-25.5s-5.7-20.8-7.1-26-3-11-3.6-12.8l-1-3.2H0zm187-86c0 .4 1.8 7.2 4.1 15.3 2.2 8.1 5.1 18.7 6.4 23.7 4.6 16.7 14.5 52.9 17 62 1.4 4.9 5 18.2 8.1 29.5 5.6 20.7 7.3 24.5 9.6 22.2.7-.7 2.2-1.2 3.4-1.2 2 0 2.3-.7 2.9-7.3 1.1-10.4 1.8-11.9 5.8-11.5 2.8.3 3.2 0 3.5-2.5.3-2.4.7-2.7 4.2-2.7 2.1 0 5.3.6 7.1 1.4 3 1.3 3.7 1.2 6.1-.2 2-1.1 2.8-2.4 2.8-4.3 0-3.5 1.7-5.1 7-6.9 4.2-1.4 4.5-1.3 9.9 1.7 5.1 2.8 5.9 3 8.1 1.7 7.7-4.3 30.1-8.8 40.9-8.2 9.1.5 13.8 2.5 23.5 10.3 11.9 9.5 13.8 14.1 9.6 23.4-1.8 3.9-2.7 7.5-2.9 11.8-.2 2.6-5.5 6.3-9.2 6.3-2.1 0-4.2.7-5 1.6-.7.8-2.6 2.3-4.3 3.2l-3.1 1.6 3 .7c1.7.4 39.8.7 84.8.8l81.7.1V0H349.5C260.1 0 187 .2 187 .5"/><path d="M310.1 167c-.5.8-.6 2.1-.4 2.7.3.7-.1 1.4-.9 1.4-3.4.3 5.4 1.7 11.2 1.7 10.8.1 10.9-1 .4-4.3-8.3-2.7-9.6-2.9-10.3-1.5M0 282.5V384h282.9l-.9-2.8c-.5-1.5-2.3-7.9-4-14.2-1.8-6.3-3.8-12.6-4.5-13.9-1.2-2.4-1.3-2.4-1.9-.3-.4 1.1-2.3 3.5-4.2 5.1-3.7 3.3-8.7 4.1-12.5 2.1-2.7-1.5-5.4-7.4-7.4-16.2-.9-4.2-2.2-8.1-2.8-8.6-.7-.5-5.2-1.4-10.2-2.1-11.9-1.6-23-4.7-28.1-7.6-11.3-6.6-19.2-20.4-28.1-49-4.5-14.5-5.5-21.9-3.9-28.7 4.3-18.4 23.4-34.8 42.6-36.4 12.5-1.1 11.9-.2 11.5-14.8-.2-8.2-.7-13.1-1.5-14.1-1.1-1.3-15.2-1.5-114.1-1.5H0zm309-100.8c-.8.3-4.4 3.1-8 6.2s-7.7 6.2-9.2 6.8c-3.4 1.5-2.8 4.4 1.4 7.6 5.9 4.3 9.8 8.8 9.8 11.2 0 6.4-5.9 12.5-12.2 12.5-2.5 0-2.9.3-2.3 1.7.4 1 1.4 3.8 2.3 6.3 1 2.9 4 7.2 8.7 12.2 13.6 14.4 19.5 26.6 19.5 39.5 0 6.5-.4 8.3-3.1 18-1.1 4-1 4.5 1.5 7.8 3 3.9 2.9 4.4-2.5 11.8-2 2.8-2.6 4.4-2 5.6.5.9 4 8.6 7.9 17.1 3.8 8.5 8.4 18.6 10.2 22.5 1.8 3.8 4.1 8.9 5.1 11.2l1.8 4.3H512V181l-100.7.1c-55.5 0-101.5.3-102.3.6m-25.5 150.7c-2.8.8-4.1 1.8-4.3 3.3-.3 1.8 2.1 11.4 9.9 40l2.3 8.3h16.8c11.8 0 16.8-.3 16.8-1.1 0-.6-3.1-8.2-6.9-16.8s-8.1-18.5-9.6-22.1c-4.4-10.6-5-11.3-10-10.8-2.3.3-4.9.2-5.6-.2-3-1.6-5.6-1.8-9.4-.6"/></svg>