<svg xmlns="http://www.w3.org/2000/svg" width="682.667" height="512" version="1.0" viewBox="0 0 512 384"><path d="M0 85.2v85.3l35.8.4c41.3.4 40.4.4 121.2-.4 33.8-.3 62-.8 62.6-1 1.4-.4-8.6-40.3-14.7-58.7-1.6-4.8-4-14-5.4-20.5-1.5-6.5-3.2-14.5-4-17.8s-1.7-7.8-2-10c-1.4-8.5-4.8-20.6-10.2-36-3-8.8-5.9-18.4-6.5-21.3l-1-5.2H0zM190.5 3.7c.7 4 7.4 28.5 18.5 67.8 3.8 13.2 8.2 28.9 9.8 35 11.5 42.4 12.7 45.9 14.6 44.8.6-.4 1.8-.6 2.7-.5 2.2.4 3.7-3.8 4.2-11.7.5-9.5 4.3-11.1 11.5-4.9 1.8 1.5 3.5 2.8 3.8 2.8 1.3 0 5-2.5 6.2-4.2 3.2-4.4 4.9-4.2 10.2 1.4 2.7 2.8 5.3 4.8 5.7 4.4.5-.4 1.3-2.4 1.8-4.4.9-3.1 1.7-3.9 5.9-5.5l4.9-1.8 5.3 2.6 5.3 2.6 4.3-2.4c9.1-5.1 31.2-10.3 39.9-9.3 10.3 1 24.8 9.6 33.7 19.9 3.8 4.4 4.1 7.9 1.2 13.9-1.6 3.4-3.3 9-3.5 12 0 .3-.3 1-.7 1.4s-.3 1.3.3 2.1c1.3 1.5 47 1.8 103.7.6l32.2-.6V0H189.9zM6.3 182.7l-6.3.4V384h278.9l-1.5-5.2c-2.1-6.9-4.3-10.1-6.3-9.2-7.7 3.4-13.1-.3-16.3-11.1-1.2-3.9-2.2-8.9-2.3-11.1-.1-5.6-1.6-7-7.8-7.7-7.9-.8-18.5-3.6-23.9-6.3-10.6-5.4-19.9-18.1-30.9-42.6-7.9-17.3-9.2-22.3-8.7-32.2.5-10.2 3.6-16.3 12.8-25.7 10-10.2 17.1-13.9 31.3-16.1 4.2-.6 7.7-1.6 7.7-2.2s-.6-4.3-1.4-8.1c-.8-3.9-2.1-10.5-3-14.8-.9-4.4-1.9-8.4-2.2-8.9-.7-1.1-42.5-.3-66.9 1.3-7.7.5-21.8 1.4-31.3 2-17.5 1.2-19.2 1.1-65.7-2.2-15.2-1.1-47.3-1.8-56.2-1.2m358.7.3c-4.7.4-16.5.8-26.4.9l-17.8.1.6 2.3c.4 1.7-.4 3.2-3.7 6.5-6 6-11.8 10.6-15 12-2.3 1-2.7 1.7-2.2 3.5.7 2.2 4 5.6 8.9 9 1.4 1 3.3 3.1 4.2 4.8 2 3.9.5 8.8-3.8 12.5-2.8 2.2-3.7 2.5-7.6 1.9-4.1-.6-4.4-.5-3.7 1.2.4 1 1.2 3.1 1.8 4.8.5 1.6 4.3 6.5 8.4 10.8 14.1 14.8 19.4 26 19.4 40.9 0 6.6-.6 10-2.7 15.9-1.4 4-3.1 8-3.7 8.7-1.2 1.6 1.8 5.2 4.4 5.2 1 0 2.5 1 3.3 2.2 1.4 2 1.4 2.4 0 4.7-.9 1.5-2.8 3.8-4.2 5.3l-2.5 2.7 9.5 22.3 9.6 22.3 85.1.3 85.1.2v-99.9c0-91.7-.1-99.9-1.6-100.5-.9-.4-11.9-.6-24.3-.4-28.7.2-33 .2-76.6-.5-19.8-.3-39.8-.2-44.5.3m-71 157c-1.4.4-4.2.8-6.2.9-6 .2-6.2 2-1.8 15.4 2.2 6.4 4.5 15.3 5.2 19.7l1.2 8h18.9c18.3 0 18.8-.1 18.2-2-2-6.3-14.7-35.5-15.8-36.2-.6-.4-3.3-.8-5.8-.8-3.7 0-5-.5-7.4-3-1.6-1.7-3.1-3-3.4-2.9s-1.7.5-3.1.9"/></svg>