<svg xmlns="http://www.w3.org/2000/svg" width="682.667" height="512" version="1.0" viewBox="0 0 512 384"><path d="M0 82.8v82.8l9.7-1.3c5.4-.7 12.1-1.7 14.8-2.2 5-1 20.8.9 38 4.5 19.3 4 25.4 3.8 45.7-2l12.6-3.6 11.9 1c6.5.5 26.3 1.2 44 1.6 29.1.6 32.3.6 32.9-.9.6-1.7-6.3-30.6-9.7-40.4-1.1-3.2-2.6-7.8-3.4-10.3-1.8-6-4.4-12.9-5.6-15.2-.5-1-1-11.5-1-24.4 0-12.5-.4-23.4-.9-24.3s-3.2-6.3-6.1-12.1c-2.8-5.8-7.1-14.2-9.5-18.6-4-7.4-4.3-8.6-3.8-12.8l.7-4.6H0zM199 2.2c0 2.5 2.2 12.5 4.4 20.3.8 2.7 2.3 8.4 3.5 12.5 1.1 4.1 3.2 11.5 4.6 16.5 1.4 4.9 3.4 12.1 4.4 16 1.1 3.8 3.8 12.8 6.1 20 2.3 7.1 5.5 17.7 7.1 23.5 3.9 13.8 11.8 36.9 13.6 39.8 1.4 2.2 1.6 2.3 3.3.7 1-.9 2-3.7 2.4-6.4.3-2.6.9-5.1 1.3-5.4.3-.4 1.9.3 3.4 1.4l2.9 2 2.1-3.5c1.8-3.1 2.4-3.4 4.1-2.5 1.5.8 2.4.7 3.8-.6 2.3-2 4.9-.9 7.5 3.2 2.4 3.7 6.7 8.3 7.8 8.3.5 0 .6-1.6.3-3.5-.9-4.5.7-4.5 3.6 0 2.5 3.8 4.3 4.6 3.4 1.5-.3-1.1-.9-2.9-1.2-4-.9-3.3 1-2.3 6.4 3.4 3.6 3.8 5.5 6.8 6.3 10 2.4 9.7 9.5 10.2 26.8 1.7 3.6-1.7 7-3.1 7.7-3.1.6 0 2.8 2.2 4.9 4.8 3 4 4.5 5.1 8.5 6.1 5.6 1.4 9.5.9 16-2.4 6.7-3.4 16.8-6.5 21.1-6.5 3.9 0 15.6 3.9 19.6 6.6 1.2.7 4.4 2.3 7.1 3.3 4.8 1.9 5.3 1.9 29.3.1 13.4-1 33.2-2.3 43.9-3 10.7-.6 21.2-1.4 23.3-1.7l3.7-.6V5.5l-19.3-.3C473.2 4.9 468 4.5 468 3c0-2.7-11.8-3-138.9-3H199zM17.5 187.1c-5 1.6-10.9 3.6-13.2 4.5L0 193.2V384h12.4c6.9 0 13.6-.4 15-1 1.6-.6 2.7-.6 3.1 0 .9 1.5 237.5 1.3 237.5-.1 0-.6-.9-2.8-1.9-4.8s-2.7-5.4-3.6-7.6c-4.5-10.6-5.8-12.3-14.2-19.7-23.5-20.4-34.7-33.5-38-44.7-1.7-5.8-1.2-17.6.9-22.9 2.8-7.1 6.6-13.7 10.5-18.1 2.4-2.7 4.7-6.1 5.3-7.6 2.3-6-.3-62.6-3.2-70.4-.8-2.4-1-2.4-10.1-1.8-10.3.7-40.5 4.1-51.2 5.8-3.8.6-16.7 3.6-28.5 6.6s-23.5 5.9-26 6.5c-4.8 1.1-3.4 1.5-56.1-15.2-18.3-5.8-21.6-6-34.4-1.9m414 2.6c-.4 1-.9 3.1-1.2 4.8-1.3 8.6-6 21.2-8.6 23.3-.8.7-3.1 1.8-5.2 2.5-6.2 2.2-25.1-1.1-40.8-7-8.2-3-9.4-2.5-7.7 3.7.9 3.2.9 4.5 0 5-.7.4-.8 1.8-.4 3.4.4 1.8.1 3.2-1 4.5-1 1.1-1.4 2.5-1 3.6.7 1.7.6 1.7-1.9 0l-2.6-1.7.6 3.5c.5 3.5.5 3.5-3.8 4.2-2.6.5-5 1.6-5.8 2.7-.7 1.1-2.9 2.6-4.7 3.4-2.5 1.1-3.2 1.8-2.7 3.2 1.1 3 3.5 5.2 6 5.2 1.3 0 3.9 1.5 5.9 3.3 4 3.7 4.9 8.5 2.4 13.2-2.5 4.8-9.5 6.9-14.2 4.4-1.6-.9-2.3-.8-2.9.2-1.8 2.9-.7 6 4.6 12.5 13.5 16.4 16 23.5 15.7 45.7-.2 15.6-.2 15.8-3.3 21.6l-3.1 5.8 2.6 4.9c1.4 2.7 2.6 6.3 2.6 8.1 0 3.7 1.1 4.3 6.1 2.9 2.9-.7 4.1-.7 5.4.4 1.6 1.3 1.5 1.7-1.6 4.2l-3.3 2.8H512v-95.9c0-90.5-.1-96-1.7-96.5-3.5-1.1-25.6-3.6-31.4-3.6-3.3 0-10.7.9-16.5 2.1l-10.4 2.1-8.3-2.1c-10-2.6-11.3-2.6-12.2-.4m-127.1 11.5c.4 1.8 1.5 4.2 2.6 5.3 2 1.9 2 1.9 2-2.1 0-4.1-1.3-6.4-3.8-6.4-1.1 0-1.3.8-.8 3.2m15.2 28.1c.3 1 .9 1.5 1.2 1.2s0-1.1-.7-1.8c-1-.9-1.1-.8-.5.6m18.9 143.5c-2.4 1.3-5.7 1.7-17 1.7-7.7 0-15.6-.2-17.5-.5-3.2-.4-3.5-.3-3.2 2 .1 1.4.7 3.7 1.3 5.2l1.1 2.8H326c12.6 0 23.5-.3 24.4-.6 3-1.1 1.8-4.8-2.8-8.7-5.1-4.2-5.1-4.2-9.1-1.9"/></svg>