<svg xmlns="http://www.w3.org/2000/svg" width="682.667" height="512" version="1.0" viewBox="0 0 512 384"><path d="M0 81.5V163h4.7c2.6 0 9.6-1.2 15.7-2.6 10.9-2.6 11.1-2.7 18.1-1 3.8.9 10.4 2 14.5 2.5 4.2.5 9.1 1.6 10.9 2.5 1.8 1 6.6 2.4 10.8 3.2 10.3 1.9 16.4.8 30.4-5.7 12.9-6 11.7-5.9 35.4-3.5 20 2 60.4 3.1 62.5 1.7 1.2-.8 1.2-2-.3-9.3-3.3-16.6-8.4-33.2-15.5-51-2.8-7-3-8.1-2.2-13.5 2.6-16.6 4.2-32.5 3.6-35-1.7-6.5-15.6-31.3-20.9-37-1.8-2-1.9-2.8-1-8.3l1-6H0zM207 .9c-2.3.7-2.5 1.1-2.3 6.7.4 15 24.6 95.8 41.8 139.6.8 2 2.9 2.8 9.1 3.3 4.2.3 4.7.1 6.2-2.6 2-3.4 2.8-3.6 4.4-.9 1.6 2.6 3.4 2.5 4.8 0 1.5-2.8 4.2-1.2 7.6 4.5 3.1 5.3 6 6.2 5.1 1.5-.8-3.9.5-3.8 3.7.2 2.8 3.6 3.2 2.9 1.5-2.1-.6-1.8-.9-3.5-.5-3.8.3-.3 3.3 2.2 6.6 5.6l6.1 6.1h6.7c6.4 0 7.3-.3 16.4-5.5 5.3-3 10.3-5.5 11.2-5.5s2.4 2.1 3.7 5.1c3.8 8.7 9 10.9 30.3 12.9 13.9 1.2 35.8.3 80.1-3.5 41.1-3.6 54.6-5.2 56.1-6.7.7-.7 2.3-6 3.6-11.8 2.2-10.3 2.3-11.9 2.6-69.8l.3-59.2h-3.3c-11.3 0-42.2-5.6-52.3-9.4-2.2-.8-5.8-1.5-8.1-1.6-2.2 0-8.3-.9-13.4-2-9-1.9-12.9-2-117.4-1.9-59.5.1-109.2.4-110.6.8M22 187.5c-4.1 2-10.7 5.2-14.6 7.2l-7.1 3.6-.1 68.9C.1 333.9.1 336.3 2 339.8c2.5 4.6 2.5 6.3 0 9.5-1.8 2.3-2 4-2 18.6V384h5.3c3.3 0 8.4-1.1 13.7-3.1 4.7-1.6 9.3-3.2 10.2-3.6 1.9-.6 14.8 4.6 14.8 5.9 0 .5 16 .8 35.5.8H115l1-2.4c1.4-3.8 2.5-3.9 8.9-.6l6 3h132.9l-7.3-14.2c-7.1-13.8-7.6-14.6-16-21.8-10.6-9.2-14.8-15-17-23.8-3.2-12.3-3.8-13.7-7.8-17.5-4.8-4.4-5.1-7.1-1.8-17 6.4-19.5 10.6-54.7 9.9-84.9-.4-20.5.5-19.6-15.9-17.3-16.3 2.2-44.9 7.2-52.4 9.1-3.3.9-7.8 2-10 2.6-3.5.8-21.4 6.8-37.7 12.7l-5.7 2.1-9.3-4.8c-5.1-2.6-12.7-6-16.8-7.6-12.6-4.9-18-7.2-30-12.5-6.2-2.8-12.6-5.1-14-5.1s-5.9 1.6-10 3.5m455 3.2c-6 .5-14.2 2.4-18.6 4.4-3.2 1.3-5.1 1.6-7.4.9-3.5-1-3.8-.1-1.5 5.3 1.9 4.6 1.9 9.8 0 19.5-2.1 10.1-3.2 12.7-6.7 15.7-2.4 2.1-4 2.5-9 2.5-8.2 0-24.4-3.4-35-7.4-6-2.3-9-3-9.8-2.2-1.3 1.3-1.3 6.2 0 8.7.9 1.6.7 1.9-1 1.9-2.2 0-2.5.7-1.1 2.9.6.9.4 2.2-.6 3.7-1.1 1.7-1.2 2.8-.4 4.3 1.7 3.1 1.3 3.5-1.5 1.6l-2.6-1.7.7 3.2c.7 3.1.6 3.2-1.8 2.6-1.4-.3-2.8-.2-3.1.3s-1.7 1.2-3.2 1.5c-3.5.9-10.4 5.6-10.4 7.1s3.5 4.7 4.3 3.9c1.1-1.1 5.4.5 8.6 3.2 2.7 2.2 3.1 3.2 3.1 7.4s-.4 5.2-3.5 7.9-5 3.4-9 3.4c-.5 0-2-.3-3.2-.7-1.9-.6-2.5-.2-3.3 1.9-1.2 3.2-.3 5.2 5.3 11.5 9.2 10.6 11.6 19.4 11.5 42.5-.1 14.8-.3 17.4-2 20.4-1.6 2.8-1.7 3.9-.8 6.2.9 2 .9 3.3 0 4.8-.6 1.2-.8 3.1-.5 4.1.6 2 2 2 69.1 2H512V197.1l-3.7-1c-15.4-4.1-25.9-6-31.3-5.4m-163.8 2.2c-1.5.9-3.5 13.5-2.6 16.5 1.2 4 7.4 13.1 12.6 18.6l5.2 5.5.7-4.5c.4-2.5.8-6.5.8-9 0-4.1-.3-4.7-3.9-7.2-2.9-2-4-3.5-4-5.4 0-3.5 1.7-6.4 3.9-6.4 1 0 3-.9 4.3-2 2.1-1.6 3.1-1.8 6.3-.9 5.7 1.6 11.7-.6 6.8-2.6-1.5-.6-24.8-3.5-27.8-3.5-.5 0-1.6.4-2.3.9m22.9 52.3c-.6 1.7-.4 2.4.8 2.9 3.8 1.4 6.5-1.3 3.9-3.9-1.9-1.9-3.8-1.4-4.7 1"/></svg>