<svg xmlns="http://www.w3.org/2000/svg" width="682.667" height="512" version="1.0" viewBox="0 0 512 384"><path d="m.2 80.2.3 80.3 2.7.9c2 .7 5.9.1 16.1-2.4l13.4-3.3 8.5 2.2c4.6 1.1 9.8 2.1 11.6 2.1 1.7 0 7.1 1.7 11.9 3.7 8.1 3.4 9.5 3.7 17.8 3.6 9.6-.1 11.3-.6 28.3-9.1l7.3-3.6 10.7 1.2c18.6 2.1 56.4 4.4 63.6 3.9 4.2-.3 7.2-1 7.8-1.8 1.9-2.8-1.6-23.3-5.7-32.9-.8-1.9-3.1-8-5.1-13.5s-4.6-11.9-5.7-14.3c-1.7-3.8-1.8-4.9-.8-10 .6-3.1 1.6-8.9 2.2-12.7.5-3.9 1.7-9.6 2.5-12.8.9-3.5 1.2-7.3.8-9.5-1.1-6-12.7-25.9-20.6-35.5-3.8-4.5-4-5-3.3-9.3.3-2.6.9-5.3 1.2-6C166.1.2 153.1 0 83.1 0H0zM209 1.3c-1.5.8-2.6 2.3-2.8 3.9-.6 5 5.4 29.7 13.9 56.9C222.2 69 224 75 224 75.5c0 1.6 15.1 46.9 19.2 57.5 2.6 6.7 5 11.3 6.7 12.8 3.6 3.1 12.1 6.1 15.4 5.5 1.6-.3 3.7.1 5.2 1.1 2 1.3 2.8 1.4 4.4.4 1.7-1 2.3-.9 4.1.7 2.7 2.4 11 3.1 11 .9 0-1.9.7-1.8 4.2.7 2.2 1.6 5 2.3 10.9 2.6 7 .5 8.5.3 13.1-2 2.9-1.5 7.6-4.7 10.5-7.2 2.8-2.5 5.8-4.5 6.7-4.5 1 0 2.9 2.8 5 7.3 2.8 5.7 4.3 7.7 7.3 9.4 10.8 6 55.9 6.1 104.8.3 38-4.6 47.7-6 48.9-6.9 1.1-1 3.5-8.9 8.3-27.6 1.6-6.2 1.8-12.9 2.1-56.8l.3-49.7H509c-1.7 0-6.1-.6-9.8-1.4s-12.5-2.6-19.7-4.1c-7.1-1.5-16.6-4-20.9-5.6-4.4-1.6-9.1-2.9-10.5-2.9s-7.7-1.4-14-3l-11.4-3H317.1C234.3 0 211 .3 209 1.3M18 191.4c-6.3 3.5-13 7.7-14.7 9.3l-3.3 3v11.2c0 8.2.7 14.1 2.6 22.8 4.4 19.9 4.2 24.9-1 29.2C.2 268.1 0 272.4 0 300v31.7l3 5.4c1.6 3 3 6.1 3 7s-1.3 3.6-3 6c-3 4.4-3 4.4-3 19.1V384h4.3c2.4 0 4.7-.4 5.2-.9.6-.5 3.7-1.8 7-3 3.3-1.1 8.1-2.7 10.6-3.6 4.6-1.6 4.8-1.6 10.5 1.1 3.3 1.5 6.5 3.6 7.2 4.6 1.2 1.7 3.5 1.8 35.2 1.8h33.8l.9-3.7c1.2-5.1 3.2-5.2 10.6-.6l6.2 3.8 64.8.3c35.6.1 64.7-.1 64.7-.5 0-.5-3-6.2-6.6-12.8-4.3-7.8-8.7-14.2-12.8-18.5-4.6-5-7.1-8.7-10.1-15.5-5.4-12.4-10.4-19.4-18-25.7-3.6-2.9-6.8-6.3-7.1-7.5s.7-5.7 2.4-10.5c4.3-11.8 7.5-22.6 8.4-27.8.4-2.5 1.1-6.8 1.6-9.5 1.3-6.5 3-31 3.6-50.2.6-20.2 1.4-19.3-14.6-17-6.7 1-18.1 2.9-25.3 4.4-7.1 1.4-15.7 3-19 3.5-12.9 2.2-39.6 11-54.1 17.9-4.5 2.2-8.7 3.9-9.4 3.9s-4.2-2.2-7.9-4.8c-6.1-4.5-19-11-25.1-12.7-1.4-.4-9.1-4-17.3-8.1-8.1-4.1-16-7.4-17.5-7.4s-7.9 2.9-14.2 6.4m367-3.4c-3 1.6-7.2 3.4-9.3 4s-3.7 1.6-3.5 2.1c.2.6 2.6 2 5.3 3.2 4.1 1.8 4.9 1.9 5.3.7.6-1.9 8.9-10 10.2-10 .5 0 1-.7 1-1.5 0-2.2-2.8-1.8-9 1.5m89 4c-3 .4-9.2 2.2-13.8 4l-8.2 3.3 1.9 2.1c1 1.2 2.8 3.9 4 6.1 2.7 5 2.9 17.8.5 27.8-1.9 7.6-5 11.2-10.9 12.3-5.2.9-22.5-2.3-35.5-6.6-6.3-2.1-11.9-3.6-12.3-3.3-.5.3-.7 2.9-.5 5.8.4 4.7.2 5.2-1.4 4.7-1.5-.4-1.7 0-1.2 2.8.5 2.1.3 3.5-.6 4-1 .6-1 1.5-.2 3.9 1 2.9.1 4.4-1.3 2.1-1.3-2.1-2.4-.8-1.8 2.2.5 2.7.4 3-1.2 2.4-1-.3-3.4-.1-5.4.5-5 1.6-5.2 1.7-9.3 4.2-3.6 2.2-3.7 2.4-2.2 4.5 1 1.5 2.6 2.2 4.7 2.2 5.7 0 10.6 4.5 10.7 9.8 0 7.5-6.1 12.6-14.3 12-4.1-.3-4.2-.2-4.5 2.8-.3 2.6.5 4.1 3.7 7.5 5.4 5.8 10.6 16 12.1 23.5 1.9 9.5-.1 37-3 42.5-.8 1.4-.8 2.9 0 5.4l1.2 3.5h126.7l.1-92.4v-92.3l-2.7-1.1c-3.5-1.4-21.6-5.8-26.3-6.5-1.9-.2-6-.1-9 .3m-159.4 2.9c-.3.4-.6 4.6-.8 9.3-.2 7.5.1 9.1 2.6 14.2 1.6 3.2 4.9 7.9 7.3 10.5 2.5 2.5 6.5 7 9.1 10l4.6 5.4 1.1-4.4c.7-2.4 1.5-7.2 1.8-10.6.6-6.1.6-6.3-2.1-8-4.8-2.9-7.2-5.6-7.2-7.8 0-3.3 2.3-5.6 6-6.1 1.9-.2 4.7-.7 6.2-1s4-.2 5.5.3c2.1.7 3.8.5 7.1-.9 2.3-1 4.2-2.3 4.2-2.7 0-2.7-8.9-5.1-28.5-7.6-13.7-1.7-16.2-1.8-16.9-.6m29.7 59.3c-2.3 2.5-2.8 3.6-2 4.4.9.8 2.3.6 5.4-1 4.3-2.1 5.6-4.9 2.7-6-2.5-.9-2.8-.8-6.1 2.6"/></svg>