<svg xmlns="http://www.w3.org/2000/svg" width="682.667" height="512" version="1.0" viewBox="0 0 512 384"><path d="M0 78.3v78.4l2.3 2.1c1.3 1.2 3 2.2 3.8 2.2s7.2-1.6 14.2-3.6c12.8-3.7 12.9-3.7 18-2.1 2.9.9 8.9 2.3 13.4 3.1 4.6.9 10 2.4 12.1 3.5 2 1 7 2.9 10.9 4.1 6.3 1.9 7.9 2 12.5 1.1 5.1-1.2 13-5.1 23.7-11.8l5.3-3.4 7.2 1c27 3.9 64.8 6.7 70.6 5.1 4.7-1.3 5.3-2.6 4-10.3-1.9-12.2-12.5-44.6-17.2-52.7-1.9-3.3-1.9-3.7-.4-9 3.1-10.7 6.9-26.6 7.3-30.5.4-3.2-.3-5.4-3.1-10.9-4.5-8.6-13.6-22.1-18.9-28.2l-4.1-4.6 1.6-5.9 1.6-5.9H0zM212.3 1.5c-3 1.3-3.3 1.8-3.3 6 0 8 6.4 32.5 18.7 72 6 19.1 19.3 55.9 22.2 61.3 1.5 2.7 6.2 4.9 22.6 10.2 12.9 4.2 13.2 4.2 28.6 4.4l15.5.1 5.5-4.2c3-2.4 7.2-5.9 9.4-7.8s4.5-3.5 5.2-3.5 2.2 3.1 3.3 7c2.5 8.3 6.9 13.2 13.3 14.9 9.5 2.5 30.6 3.4 52.2 2.2 11.6-.7 23.9-1.6 27.5-2.1 6.2-.9 24.1-3.3 49-6.6 18.3-2.4 17.5-1.9 21-13.1 1.6-5.3 4.3-15.8 6-23.4l3-13.9-.2-40.7-.3-40.8-5-.8c-11.7-1.9-37.6-8.1-45.5-10.8-4.7-1.6-11.2-3.6-14.5-4.4-3.3-.7-9.8-2.6-14.5-4.2L423.5.5l-104-.2C231.6.1 215 .3 212.3 1.5M380 191.1c-7.4 3.8-14.9 7.8-16.7 9-3.1 2-3.4 2-10 .5-9.7-2.2-25.8-4.6-32.8-4.8-4.9-.3-6 0-5.8 1.2.7 4.9 5.5 26 6.5 28.5 1.1 2.7 22.9 26.5 25.1 27.4 1.4.5 2.7-2.1 2.1-4.3-.4-1-.1-2.1.4-2.5.6-.4 1.4-4.1 1.8-8.3l.7-7.7-3.4-1.8c-5.5-3-8.1-6-7.3-8.6 1.4-4.8 3.1-5.6 11.3-5.3 4.2.1 8.2.5 8.8.9s3.1-.2 5.6-1.2c3.5-1.5 4.5-2.5 5-4.9.5-2.5 1.3-3.3 4.4-4.1 5.2-1.5 8.9-1.4 12.3.4l2.9 1.5 7.3-7.3c4-4 9.2-8.1 11.6-9.1 7.9-3.5 3.8-6.7-8.6-6.5-7.5.1-8.1.3-21.2 7m-351.7-4.6c-4.6 2-17.1 10.6-21.9 15.1-3.5 3.3-4.3 4.7-4.9 9.2-1.1 8.4 2.1 29.1 5.9 38.4.9 2 2 5.5 2.5 7.8 1 4.5 1.2 4.2-5.7 9.1L0 269.2v31.4c0 27.3.2 31.5 1.5 32 .9.4 2.7 2.6 4.1 5 3.1 5.3 2.8 7.4-2.1 13.8L0 356v28h2.5c1.4 0 5.4-1.2 8.8-2.6 3.4-1.5 9.7-3.9 14.1-5.5l7.9-3 5.4 2.8c3 1.5 6.2 3.9 7.1 5.5l1.6 2.8H113v-2.9c0-1.6.5-4.2 1-5.6l1-2.7 4.8 2.8c2.6 1.5 7.1 4 10 5.6l5.3 2.8h124l-1.7-3.3c-.9-1.7-4.4-7.7-7.7-13.2-19.3-32-36.6-54.5-46.9-60.8-3.3-2-3.6-5.2-1.2-10 .9-1.7 3.2-7.4 5.1-12.7 1.9-5.2 4.1-11.1 4.9-13.2 3.1-8.3 6.9-31.6 9.3-57.3 1.5-15.6 1.4-24-.3-25.4-1.6-1.3-2-1.3-21.8 2.5-47.2 8.9-61.3 13.1-87 26-5.9 3-11.2 5.4-11.8 5.4-.5 0-4-2.2-7.8-5-8.1-5.9-56.7-32-59.5-32-.6.1-2.6.7-4.4 1.5m443.2 7.4c-2.8.5-7.9 2.3-11.4 4l-6.3 3.2 5.5 5.2c3.1 2.9 6.3 6.8 7.1 8.7 2.1 5.3 2.9 17.5 1.7 26.5-.9 6.6-1.6 8.5-3.9 10.8-2.6 2.6-3.3 2.8-11.9 2.8-10.1 0-21-2.2-34.1-7-9.4-3.4-9.8-3.2-9 4.4.5 3.7.2 4.4-1.4 4.8-1.5.4-1.8 1.1-1.3 2.7.4 1.1.2 2.7-.5 3.5-.8 1-.7 2.2.4 4.9l1.5 3.6-2.5-1.6c-2.3-1.6-2.4-1.6-2.4 1.1 0 2.4-.3 2.6-2.4 2.1-1.4-.3-2.7-.2-3 .3s-2.5 1.3-4.8 2c-2.4.6-5.6 2.1-7.2 3.4-2.7 2.2-2.7 2.4-1.2 4 1.1 1.1 2.6 1.5 4.1 1.1 2.8-.7 7.8 1.7 9.9 4.8 5.3 7.5-2.9 19.1-12.2 17.3-3.4-.6-5.1.4-5.2 3.1 0 .6 2.3 4 5.2 7.5 2.8 3.5 6.4 9.1 7.9 12.4 3 6.6 5.9 19.1 5.9 25.2 0 5.3-2.4 14.8-5.4 21.6-1.4 3.2-2.6 6.2-2.6 6.7 0 .6 21.8 1 60 1h59.9l-.2-87.8c-.2-56.4-.6-88.8-1.3-90.7-1.1-3.4-4.6-5.4-15.7-9.2-8.1-2.7-16-3.5-23.2-2.4m-115.4 67c-.6 1-2.6 2.6-4.6 3.5-1.9.9-3.5 2.3-3.5 3 0 2.1 3 2.8 4.7 1.1.8-.9 3.4-2.5 5.7-3.7 5.2-2.6 5.1-2.5 3.6-4.3-1.7-2.1-4.7-1.9-5.9.4m-68.9 16.5c-1.3 2.9-.7 3.6 3 3.6 3.4 0 3.5-1 .5-3.8l-2.4-2.2z"/></svg>