<svg xmlns="http://www.w3.org/2000/svg" width="682.667" height="512" version="1.0" viewBox="0 0 512 384"><path d="M0 75.2v75.3l3 3.2c4.7 5 6.6 5 19.1.4 6-2.2 11.6-4.1 12.5-4.1.8 0 4.1 1.1 7.3 2.5 3.3 1.3 8 2.9 10.6 3.5 2.5.6 8.3 2.8 12.8 4.9 11.6 5.6 15.9 6.6 21.6 5 5.2-1.4 15.5-7.8 22.5-14l4.7-4.1 13.7 2.1c25.2 3.9 51.1 6.1 58.6 4.9 7.3-1.1 7.8-2 6.6-10.5-1.3-9.8-13.1-42.6-18.6-52-1.8-3.1-1.8-3.2.4-7.6 1.2-2.5 3.1-7.1 4.2-10.2s3.3-8.2 5-11.3c3.6-6.7 3.9-12.2.9-17.2-4-6.5-21.1-28.1-24-30.2-3.4-2.6-3.5-3.6-.9-10.6l2-5.2H0zM224.5 1c-6.9 1.1-10.4 2.9-11.2 5.9-1.3 5.3 5 30.2 17.6 69.6 6.2 19.1 18.9 51.9 22.2 57.5 2.1 3.4 9.3 7.3 25.8 13.7 9.9 3.9 12.8 4.6 21.1 5 5.3.3 11.9.2 14.6-.1 4.6-.7 5.5-1.4 14.2-10.4 5.4-5.6 9.6-9.2 10-8.6.5.5 1.8 4.9 3 9.8 2.8 11.8 5.6 14.8 15.6 17.1 19.9 4.6 49.7 3.1 97.6-5 17.9-3 33.9-5.9 35.7-6.5 2.6-1 3.6-2.3 5.8-7.8 3.8-9.2 8-22.5 11.7-36.7 3.2-12 3.2-12 3.6-42.1l.3-30.1-2.8-1.1c-1.5-.5-10.1-2.9-19-5.2-8.8-2.3-20.5-5.7-26-7.7-5.4-1.9-14.5-5.2-20.3-7.2-5.8-2.1-14.3-5.4-19-7.4L416.4 0 323 .1c-51.4.1-95.7.5-98.5.9m171.6 183.7c-3.3.4-21.9 12-29.3 18.3-2.9 2.5-4.4 3.1-6.5 2.7-1.6-.3-8.4-1.7-15.1-3.1-6.8-1.4-15.6-2.7-19.5-2.9-6.8-.2-7.2-.1-7.5 2.1-.2 1.3 1.5 5.4 4.1 10 3 5.3 5.3 11.1 7.3 18.6 1.5 6 3.7 12.2 4.8 13.9 1.2 1.7 5 5.3 8.6 8 9 7 13.5 12 17.9 20.4 3 5.7 3.7 8.1 3.5 11.2-.3 2.7.1 4.5 1.2 5.5 1.4 1.5 2 1.2 6.7-2.9 2.9-2.6 6.4-4.9 8-5.2 4.2-.9 3.2-5.3-1.3-5.3-.5 0-1.2.9-1.5 2.1-.4 1.1-2.1 2.7-3.8 3.4-2.8 1.2-3.3 1.1-4.9-.8-1.8-2-2.2-3.6-1.9-6.9.1-.9-.3-1.9-.8-2.2-.6-.4-.2-1.5.9-2.6s2-3.1 2-4.5.4-2.5.8-2.5c.5 0 1.4-3.1 2.1-6.9 1.5-8.1.8-10.2-4.2-12.7-7-3.6-8.6-7.8-4.8-12.5l1.8-2.3 4.9 1.9c2.7 1.1 5.8 1.8 7 1.7 1.1-.2 3.2.1 4.6.7 1.8.7 3.8.5 7.1-.7 3.7-1.3 4.8-2.2 5.3-4.5.9-4.1 8.2-6.1 15.5-4.2 2.1.5 2.7.2 3.7-2 1.8-3.9 10.2-12.4 14.4-14.6 7.2-3.7 15-1.9 34.6 7.8 17.3 8.7 21.5 14.3 23.4 31.4 2.1 19.7-.5 26.7-10.1 27.1-12.8.4-26.8-2-36.9-6.3-7.6-3.3-8.3-2.9-7.5 4.2.6 6 .6 6.1-1.6 5.4-2-.6-2.2-.4-2 2.2.2 1.5 0 3.3-.4 4-.4.6-.3 2.3.3 3.8 1.4 3.7 1.3 5.2-.2 3.7-1.9-1.9-2.8-1.4-2.8 1.4 0 2.6 0 2.6-2.6.9-1.7-1.1-2.9-1.3-3.3-.7-.5.8-4.7 2.4-7.1 2.7-.3 0-2 .9-3.8 2-4.7 2.8-3.8 5 2 5 4 0 5.3.5 7.9 3.1 2.7 2.8 3.1 3.9 3.1 8-.1 4.3-.6 5.3-3.8 8.3-3.4 3.1-4 3.3-9 2.9-3-.3-5.4-.1-5.4.2 0 .4 2.5 3.7 5.5 7.4 10.3 12.6 15 26.2 14.2 41.1-.2 5-.7 9.8-1.2 10.7-.7 1.7 1.8 1.8 44.6 1.8h45.4l.3-5.5c.7-10 .5-139.9-.2-145-.3-2.8-1.1-9.3-1.7-14.5-.5-5.2-1.3-10.3-1.5-11.3-.7-2.3-12.5-8.2-21.1-10.5-8.8-2.4-14.2-1.6-25.1 3.8l-8.4 4.2-19.1-9c-26-12.2-27.5-12.7-37.6-11.5m-366.6 2.5C22.7 191 6.4 206.9 5.2 211c-.4 1.4-.7 6.5-.6 11.5.1 11.5 3.1 23.3 9 34.4 4.8 9.3 4.7 10.5-1.2 11.4-2 .3-5.6 1.4-8 2.3L0 272.3v56.4l4 2.7c4.2 2.8 8 7.9 8 10.8 0 .9-2.7 5.2-6 9.6l-6 7.9v12.2C0 382.1.2 384 1.5 384c.9 0 4.8-1.5 8.8-3.4 9-4.2 20.5-9.2 23.3-10 1.2-.4 4.1.1 6.4 1 3.2 1.3 4.8 2.8 7.2 7l3 5.4h62.1l-.6-6.3c-.9-9.8.5-10.4 8.9-4.1 1.6 1.3 6.3 4.1 10.3 6.4l7.4 4h114.8l-.7-2.3c-.3-1.2-5.4-9.4-11.3-18.2-17.2-25.9-32.6-44.1-42.9-50.5-3.5-2.2-6.7-4-7.1-4-.5 0-1.4-.7-2.2-1.6-1.3-1.6-.7-3 10.4-24.9 1.7-3.3 3.9-7.6 4.8-9.5 2.7-5.5 7.6-22.5 9.8-34 3-15.8 7.1-46.8 6.5-48.5-.8-2.1-4.2-1.9-18 1-49.9 10.2-70.9 17.7-95.4 33.9-4.7 3.1-9 5.6-9.6 5.6s-3.2-2.4-5.8-5.4c-4.2-4.9-20.4-17.6-22.5-17.6-.5 0-6.5-3.8-13.4-8.4-17.7-12.1-22.6-14.4-26.2-12.4m260.3 95c-.7 1.3-2 3.9-3 5.8s-3.2 5.7-4.9 8.3c-4.1 6.2-3.1 7.4 4.2 5.2 3-.8 8.9-1.8 13.2-2.2 4.3-.3 8-1 8.3-1.5.5-.8-13.8-16.8-15.7-17.6-.4-.2-1.3.7-2.1 2"/></svg>