<svg xmlns="http://www.w3.org/2000/svg" width="682.667" height="512" version="1.0" viewBox="0 0 512 384"><path d="M0 73.3v73.3l2.5 3.5c5.4 7.3 7.8 7.5 21.4 1.9 11-4.5 11.9-4.6 16.4-2.4 1.7.9 6.8 2.9 11.2 4.4 4.5 1.5 11.2 4.4 15 6.4 14.4 7.7 19.6 7.4 31.7-1.8 4.5-3.5 9.6-7.8 11.2-9.5 3.4-3.6 5.1-3.7 15.1-1.6 11.1 2.3 28.7 4.5 45.1 5.6 18.9 1.4 20.7.8 21.2-6.3.2-2.8-.7-8.3-2.1-13.5-2.6-9.3-12.5-34.5-15.8-40.1-2.2-3.9-2.5-7.5-.5-9.1.8-.7 2.4-3.7 3.7-6.9 1.2-3.1 4.1-8.9 6.3-12.7 5.6-9.8 5.5-13.1-.7-21.7-6.7-9.4-20.4-25.5-23.3-27.4-2.7-1.8-3-4.3-1-8.2.7-1.5 1.7-3.7 2-5l.7-2.2H0zM234 1.1c-11.1 1.1-16.8 3.3-17.6 6.6-1.9 7.5 6.5 41.1 19.9 79.8 3 8.6 12.9 31.9 16.8 39.7 3.4 6.8 8.1 10.3 21.3 16 13.9 5.9 21.6 7.8 32.6 7.8 11.3 0 13.3-.9 20.6-9.6 8.8-10.4 11.2-12.9 11.8-12.3.4.4 1.3 4.4 2.2 9 3.1 17.2 5.3 19.7 20.1 22.3 13.2 2.4 24.1 2.7 43.3 1.2 18.3-1.5 47.7-6.5 72.9-12.3 10.3-2.4 11.5-2.9 13.2-5.7 4.4-7.2 12.8-29.9 17.6-47.6 2.3-8.5 2.6-11.8 3-31.8.3-12.3.2-23.3-.1-24.5-.7-3.1-4.5-4.7-26.5-11.7-10.2-3.2-22-7.3-26.1-9-4.1-1.8-11.5-4.7-16.5-6.6-4.9-1.9-13-5.5-17.9-7.9L415.7 0l-86.6.1c-47.6.1-90.4.6-95.1 1m162.8 183.8c-2 .4-4.6 1.4-5.6 2.2-7 5-18.4 14-22.5 17.8l-4.7 4.4-7.3-2.1c-9.5-2.8-24.1-5.9-31.8-6.8l-6.2-.7.7 2.9c.6 2.6 3.6 8.9 11.2 23.4 1.3 2.5 3.7 8.9 5.3 14.3s3.6 10.9 4.5 12.2 5.1 5 9.3 8.1c4.3 3.1 9.1 6.8 10.6 8.3 4.9 4.5 10.4 15 12 23 .9 4.1 2.1 7.9 2.7 8.5 1.5 1.5 9.5-6.6 8.6-8.9-.4-1-1.2-1.5-2.2-1.1-1.7.6-4.6-4.8-3.7-7.1.3-.7-.1-2-.8-2.9-.8-1-.9-1.8-.3-2.2 1.3-.9 2.8-4.3 2.5-6-.1-.6.4-1.2 1.2-1.2s1.8-2.5 2.6-7.5c1.2-6.7 1.2-7.7-.3-10-.9-1.4-3.1-3.1-5-3.9-5-2.1-6.8-5.1-5.3-8.9 2-4.9 4-5.5 9-2.9 2.3 1.2 5.2 2.2 6.4 2.2s3.3.4 4.6.9c3.5 1.4 12.1-1.9 12.5-4.7.5-3.4 3.1-4.7 9.7-4.7h6.2l1.9-3.9c2.6-5.4 10.5-13.2 15-14.6 5-1.7 9.7-.9 19.9 3.5 19.2 8.3 27.9 14.5 31.9 22.8 4.2 8.8 5.8 31.8 2.5 37.8-1.6 3.2-8.8 5.1-15.9 4.4-8.2-.8-21-3.8-28.1-6.4-3-1.2-5.8-2.1-6.3-2.1s-.6 2.8-.2 6.3c.6 6.1.5 6.4-1.6 6.3s-2.3.3-2.3 4.9c.1 2.7.4 6.1.9 7.3l.8 2.4-2.8-1.8-2.7-1.8.7 3.9.8 4-3.1-2.9-3-2.8-2.6 2c-1.4 1.2-3.3 1.8-4.1 1.5-2-.7-8.5 3.8-8.1 5.7.2 1.1 1.4 1.4 5 1.2 4.3-.3 5.1 0 8.2 3.1 2.8 2.8 3.5 4.3 3.5 7.5 0 6.9-7.1 13-14 12-1.6-.3-3-.3-3 0 0 .2 2 2.7 4.5 5.5 9.5 10.8 14.5 24.2 14.5 38.4v8.3h77.5l.3-5.7c.1-3.2.5-35.4.8-71.6.4-58 .3-66-1.1-67.3-.9-1-1.5-3.4-1.5-6.7 0-7.2-2.6-22.5-4.1-24.3-1.6-2-9.4-5.9-17.8-9.1-5.2-2-7.4-2.3-11.9-1.7-4.7.6-12.8 4-19.9 8.4-2 1.3-3.7.6-20.5-7.9-18.7-9.6-29.5-14.2-32.6-14-.9.1-3.4.5-5.4.8m-374.4 9.3C9.5 207.7 8 210 6.8 218.2c-1.7 12.1 2.3 30.1 9.3 42.1 4.6 7.8 4.7 10.1.4 10.4-1.7.2-6 .8-9.7 1.4L0 273.2v54.7l5.5 3.1c6.2 3.5 8.5 6.3 8.5 10 0 3-1.5 5.3-8.7 13.6L0 360.7v11.7c0 13.6-.1 13.5 10 8C21.7 374 33.9 369 37.8 369c4.8.1 7.5 2.5 10.6 9.4l2.5 5.6h61.3l-.6-2.3c-.3-1.3-.8-4.8-1.2-7.9-.8-7.2.5-8 5.9-4 2.3 1.7 8.3 5.6 13.4 8.7l9.2 5.5h55.5c53.9 0 55.6-.1 55.6-1.9 0-2.3-19.4-30.3-29.2-42.1-12.2-14.6-22.2-23.7-31.2-28.2-4.5-2.2-8.2-4.1-8.4-4.3-.6-.6 3.8-8.8 9.1-16.7 6.2-9.4 11.7-19.3 11.7-21.2 0-.7 1.1-3.6 2.5-6.4 3.8-7.9 9.5-29.9 11.5-44.2.9-6.8 1.4-10.3 3.5-23.5 1.1-7.1.9-7.2-20.1-2.6-10.4 2.3-24.1 5.7-30.4 7.5-6.3 1.9-12.9 3.7-14.7 4.1-4.9 1-24.3 9.8-33.6 15.1-4.5 2.7-11.8 7.4-16.2 10.6-4.3 3.2-8.5 5.8-9.1 5.8-.7 0-3.3-3.1-5.9-6.9-4.8-7.3-14-15.8-20.8-19.3-2.2-1.1-6.7-4.1-10.1-6.8-3.3-2.6-9.8-7.3-14.4-10.4-11.5-7.8-12.9-7.7-21.8 1.6m254.8 4.9c.2.7 1 1.5 1.7 1.7.8.3 1.2-.1.9-.9-.2-.7-1-1.5-1.7-1.7-.8-.3-1.2.1-.9.9m14.3 84.9c-.4 1.2-2.8 4.9-5.3 8.3-8.6 11.4-10.2 14.3-10.2 19.1 0 5.2 2.3 6.7 6.3 4.2 4-2.7 15.8-6.4 24.5-7.7 4.5-.7 8.2-1.6 8.2-2s-2.9-3.5-6.5-7c-3.6-3.4-8.4-8.6-10.6-11.6-2.3-2.9-4.5-5.3-5-5.3-.4 0-1.1.9-1.4 2"/><path d="M389 286.5c-2.2 2.6.7 4.6 3.9 2.6 1.2-.8 1.2-1.2.2-2.5-1.7-2-2.5-2-4.1-.1"/></svg>