<svg xmlns="http://www.w3.org/2000/svg" width="682.667" height="512" version="1.0" viewBox="0 0 512 384"><path d="M0 65.8v65.8l3.4 6.9c3.5 7.3 7.5 11.8 11.4 13 2.5.7 8.1-2.1 17-8.7l5.3-3.9 6.2 3.9c3.4 2.2 9.1 5.4 12.7 7.2s7.4 4 8.5 5 5.2 3.5 9 5.5c10 5.2 13.1 4.7 20.6-3.4 3-3.4 7.5-9.3 10-13.1 2.4-3.8 5.1-6.9 6-6.9.9-.1 3.4.5 5.5 1.3 2.2.7 8.4 2.3 13.9 3.4 27.6 5.7 39.6 7 46.2 5.3 4-1.1 4.2-1.4 4.9-5.7 1.2-7.9-4-23.6-15.5-46.6l-5.8-11.6 4-3.9c2.2-2.1 8-8.1 12.9-13.3 8.6-9.1 9-9.7 8.5-13.3-.3-2.3-2-5.6-4.3-8.5-7-8.8-26-27-29.7-28.6-2-.8-3.7-1.9-3.7-2.3 0-.5 1.1-2.4 2.3-4.3 1.3-1.9 3.2-4.7 4.2-6.3l1.7-2.7H0zM280.9.4c-.2.3-10.7 1.4-23.3 2.6-25.2 2.3-30.3 3.6-31.2 7.9-.3 1.4-.7 3.1-.9 3.7-.5 1.8 2.4 19.7 4.6 27.9 4.1 15.6 5.6 19.9 13.4 40.4 3.6 9.5 12.2 26.7 16.5 33.1 5.9 9 24.5 21.1 40.7 26.5 8.8 3 16.3 3.1 20.8.1 2.4-1.6 8.3-10.2 16.8-24.2 1.6-2.7 3.2-4.3 3.7-3.8s1.3 7.2 1.8 14.9c1.4 20.8 3.1 23.5 17.6 27.2 11.2 2.9 46.9 2.6 63-.5 12.8-2.4 34.2-9.3 46-14.6 6.3-2.9 7.8-4.1 12.3-10.2 11.2-15.2 20-33.2 23.7-48.4 4-15.9 3.3-28-1.7-31.3-1.2-.8-10.7-5.3-21.2-10.1-26.7-12.3-51.2-26.3-64.9-37L412.7 0H347c-36.1 0-65.9.2-66.1.4m114.6 186c-1.6.8-4.6 3.3-6.6 5.7-11.8 14.5-15.8 19.8-17.3 22.7-1.3 2.5-2.2 3.2-3.4 2.7-8.7-3.5-25.3-8.2-42.7-12.1-14.8-3.3-36.3-4-39-1.3-4.2 4.2.6 32.1 6.7 38.6 3 3.2 3.6 2.9 4.4-2.2.4-2.9 1.3-4.9 2.5-5.6 1.1-.5 1.9-2 1.9-3.4 0-3.3 1.3-3.8 4.3-1.5 3.3 2.6 4.1 2.5 2.6-.2-1-1.8-.9-2 .5-1.5.9.4 2.8.2 4.2-.3 1.7-.7 3.2-.6 4.6.1 1.8.9 1.9.8 1.3-1-2.5-8.1 15.8 7.6 21.1 18.1 1.3 2.5 4.8 7.5 7.8 11.1 3.1 3.6 7.9 11.2 11.1 17.5 3 6.1 6.8 12.3 8.3 13.7s6.3 4.4 10.7 6.7c4.4 2.2 10.1 5.6 12.6 7.4 5.5 4 11.7 12.7 14.9 20.9 3 7.7 4.2 9 9.9 11 4.5 1.5 4.7 1.5 6.4-.6 1.9-2.4 2.2-6 .6-7.6-.7-.7-.7-1.3-.1-1.7 1-.6-.6-6.8-2.1-8.2-1.2-1.2-.8-3.4.7-3.4 1.4 0 2.6-2.1 2.6-4.7 0-.8.6-2 1.3-2.7s1.9-4.3 2.6-7.8c1.1-5.8 1.1-7-.3-9.7-.9-1.7-2.9-3.8-4.4-4.8-5.8-3.6-6.9-8.3-2.9-12.2 2.9-2.7 5.9-1.9 10.3 2.8 3.4 3.7 8.5 5.6 11.1 4.3 1-.5 3.4-1.2 5.4-1.6 2.2-.4 3.9-1.3 4.2-2.4 2.2-7.1 6.9-17.6 9.2-20.6 5.9-7.8 11.8-8.4 24-2.7 8.6 4 21.3 11.8 25.3 15.4l2.2 2v-22.1l-3-.7c-3.7-.8-3.9-1.2-4.5-7.2-.3-2.6-1.5-8.2-2.6-12.5-1.9-7.1-2.6-8.2-7.6-12.9-6.2-5.6-13.9-9.9-17.8-9.9-4.1 0-9.1 2.5-16.7 8.5-7.9 6.1-7.9 6.1-14.8 0-1.4-1.2-5.2-3.9-8.5-5.9-3.3-2.1-9.1-6-13-8.6-15.3-10.3-21.5-12.5-28-9.6m-367.7 6.3c-7.6 11.3-14.3 27.7-15.2 37.5-.7 7.1 2.2 20.7 6.3 29.3 1.6 3.3 5.2 9.1 8 13 2.8 3.8 5.1 7.4 5.1 7.9 0 .9-3.3.5-14.5-1.9-7.8-1.6-14.3-1.9-16.3-.7-.9.7-1.2 6.3-1 24.6l.3 23.8 8.5 2.9c14 4.8 16.5 7.9 11.4 14.7-3.2 4.3-14.5 15-18 17.2-2.3 1.4-2.4 2-2.4 11.7S.1 383 2 383c1.1 0 7.5-3.8 14.3-8.4 14.1-9.7 20.3-12.6 26.2-12.6 3.8 0 4.6.4 6.3 3.2 1.1 1.8 2.2 5.3 2.6 7.8s1.1 6 1.7 7.7l1.1 3.3h28.4c15.6 0 28.4-.3 28.4-.8-.1-.4-1.6-5.9-3.4-12.2-1.9-6.3-3.2-11.8-2.9-12.3.6-1.1 3 .5 10.8 7 10 8.4 19.4 14.1 26.7 16.4 5.8 1.7 9.7 1.9 49.6 1.9 28 0 44-.4 45.3-1 1-.6 1.9-1.9 1.9-2.9 0-4.3-40.1-48.6-50.3-55.5-2.9-1.9-7.1-4.9-9.5-6.5-4.3-3-16.1-7.1-20.4-7.1-5.6-.1-5.1-1.6 2.9-8.6 9.5-8.4 19.5-18.7 22.7-23.4 4.9-7.4 9.4-14.6 10.9-17.6 2-3.9 11.4-29.1 12.3-33 .3-1.6 2.8-9.7 5.5-17.9 2.7-8.3 4.9-15.8 4.9-16.7 0-3.7-.4-3.7-35.2 6.9-44.9 13.5-63.2 23.3-84 44.8-4.4 4.7-8.5 8.5-9 8.5-.4 0-.8-1.1-.8-2.4 0-6.4-4.1-15.5-10.6-23.5-3.5-4.5-6.8-8.1-7.2-8.1s-3.2-2.3-6.2-5.2c-8.3-7.8-22.3-20.2-26.2-23.2-5-3.7-8-3.4-11 1.1M282.6 302c-9.4 8.9-8.5 12.8 6.6 30 14.8 16.9 18.5 19.8 20.2 15.5.4-1.2-4.6-10-6.5-11.5-1.4-1.1-2-5.2-1-6.4.6-.7 3.4-1.4 6.2-1.5 4.1-.1 5.6.3 8.1 2.4 2.3 1.9 3.4 2.3 4.8 1.5 3.5-1.9 5.9-1 9.7 3.5 2.4 2.9 4.5 4.5 6 4.5 3.7 0 3.8-2.1.2-5.2-1.9-1.6-6.3-5.5-9.9-8.7-3.6-3.1-10.8-8.6-16-12.1s-12-8.5-15-11-6.1-5-6.7-5.4c-.8-.4-3.3 1.2-6.7 4.4m203.3 13.1c-.1 1.9-.2 4.7-.3 6.2-.1 2.2-.5 2.7-1.8 2.3-1.8-.4-2.2.4-1.9 3.6.1 1-.4 1.8-1.3 1.8-1.8 0-1.9.2-.7 5.2.8 3.4.7 3.7-.9 2.8-2.7-1.5-3.3-1.2-2.7 1 .9 3.3-1.9 2.3-4.2-1.6l-2.1-3.5-2.9 2c-1.6 1.2-3.5 2.1-4.3 2.1-1.9 0-7.2 5.6-6.4 6.8.3.5 2.5.7 4.9.5 3.6-.4 4.8-.1 7.3 2 6 5 6 12.6 0 18l-2.5 2.2 4.2 8.7 4.2 8.8h35.4l-1.6-3.7c-1.9-4.8-1.1-13.7 1.7-17.5 1.8-2.5 2-4.4 2-23.7v-20.9l-5.2-.7c-4.5-.6-14.5-3.3-19.4-5.2-1-.4-1.4.4-1.5 2.8"/></svg>