<svg xmlns="http://www.w3.org/2000/svg" width="682.667" height="512" version="1.0" viewBox="0 0 512 384"><path d="M0 63.9v63.9l4.2 8.2c4.6 9.1 9.4 14 13.6 14 2.6 0 17.1-9.1 18-11.2.7-1.7 3.6-.6 9.5 3.6 3.4 2.4 8.9 5.9 12.2 7.7s6.5 3.9 7 4.5c1.6 2 16.2 9.4 18.5 9.4 1.1 0 3.3-.6 4.8-1.4 2.7-1.4 10.8-11.9 17.3-22.4 3.5-5.6 3.7-5.7 8.9-4.2 28.5 8.4 54.2 12.3 61.3 9.2 2.5-1 2.7-1.6 2.7-6.6 0-6.1-1.9-14.3-5.2-22.6-3.3-8.4-13.5-28.7-14.7-29.5-2.6-1.6-.2-4.8 12.5-16.5 7.4-6.9 13.7-13.5 14.1-14.8.3-1.2 0-3.6-.7-5.2-1.8-4.3-28.7-31.3-33.3-33.4-2.1-1-4.1-2.4-4.3-3.1-.3-.7 1.1-3.7 3-6.7 2-2.9 3.6-5.6 3.6-6 0-.5-34.4-.8-76.5-.8H0zM282.9.5c-.5.4-3.5.8-29.9 3.9-23.1 2.7-25 3.8-25 13.8 0 22.6 21.5 79.8 37 98.2 9.5 11.3 32.8 25 44.6 26.2 10.9 1.1 14.9-1.8 23.5-17.2 5.1-9.2 9-14.7 9.9-13.7.4.4 1 7.3 1.2 15.3.7 22.4 2.8 25.6 19.8 29.4 11.6 2.7 33.3 3.2 46.5 1.2 19-2.9 22.2-3.7 38.5-9.5 3-1 10.5-4.4 16.5-7.4 10.1-5.1 11.4-6.1 15.9-12.1 17.5-23.7 26.6-44.5 26.6-61.1 0-10.6-.8-11.4-18.3-19.9-8.4-4.1-18.1-8.7-21.7-10.3-7.5-3.4-29.9-16.7-38-22.6-3-2.2-8.3-6.4-11.7-9.4L412.2 0h-64.4c-35.5 0-64.7.2-64.9.5m112.6 186.1c-3.2 1.7-21.1 24.8-22.9 29.7-1.3 3.4-1.2 3.4-17.9-2.2-26.6-9.1-58.6-13.5-65.7-9.1-2.6 1.6-1.8 15.8 1.4 26.4 3.2 10.5 9 23.6 10.5 23.6.6 0 1.1-1.6 1.1-3.5 0-2.2.7-4.1 2.1-5.4s2-2.7 1.6-4c-.8-3.1.6-3.3 4.6-.5 3.7 2.5 5.2 1.5 2.5-1.5-1.1-1.1-1-1.2 0-.7.7.4 1.8.4 2.5-.1 2-1.5 5.8-1.3 8.5.5 2.4 1.6 2.5 1.6 1.3-.5-1.5-2.8-1.4-3.3.5-3.3 4.3 0 17.6 12.5 21.6 20.4 1.1 2.1 4.9 7.2 8.4 11.2s8.1 10.9 10.3 15.2c5.6 11.1 7.9 13.4 19.1 19.1 5.4 2.8 11.7 6.2 13.9 7.6 5 3.1 11.6 11.3 14.8 18.2 1.3 2.8 2.9 5.6 3.6 6.1 1.2 1 14.3 6.2 15.7 6.2 1.3 0 3-4.9 1.9-5.6-.6-.3-.9-1.4-.7-2.3s-.3-3.6-1.2-6.1c-1.5-4.3-1.5-4.6.3-6.1 1.1-.8 2-2.4 2.1-3.5.1-1 .7-3 1.3-4.4s1.7-4.8 2.5-7.5c1.8-6.3.8-9-5.5-14.9-4.5-4.1-4.6-4.5-3.6-7.3.5-1.7 1.9-3.9 2.9-4.8 2.3-2.1 5-.9 10.1 4.6 4 4.3 5.5 4.6 13.4 2.5l5-1.3 1.1-7.4c1.3-8.7 2.5-12.1 6.1-16.3 6.9-8.3 13.5-7.6 32.3 3.8l10.5 6.3.3-11.5c.1-6.3 0-11.7-.2-11.9-.3-.3-1.9-.8-3.7-1.2-3.1-.6-3.3-1-5.4-9.1-4.2-16.3-4.2-16.3-10.4-22.4-6.5-6.6-12.5-10.6-15.7-10.6s-11.2 4.6-17.5 10.1c-3.1 2.7-6.1 4.9-6.5 4.9-.5 0-3.2-2-5.9-4.5-2.8-2.4-8.1-6.6-12-9.2-3.8-2.5-9.3-6.4-12.1-8.5-6.9-5.2-18-10.8-21.2-10.8-1.5 0-4 .7-5.7 1.6m-365.4 3.7c-5.2 5.6-15 30.6-15.8 40.7-1.1 13 4.8 30.7 14.7 44 7.6 10.3 7.6 10.4-8.4 5.6-5.1-1.5-11.3-2.6-14.7-2.6H0v47.9l5.8 1.6c12.8 3.6 18 5.7 19.3 7.7 2.2 3.5-6.7 14.7-19.1 23.8l-6 4.5.3 9.5c.2 8 .5 9.5 1.9 9.8.9.2 6.5-3.1 12.4-7.4 19.7-14.2 31.3-18.6 34.9-13.1 1.2 1.9 4.4 16.4 4.5 20.4 0 1 6.4 1.3 28.5 1.3 15.7 0 28.5-.1 28.5-.3 0-.1-1.8-5.8-4-12.6-3.9-12.3-4.6-15.1-3.4-15.1.6 0 9.6 7.2 12.6 10.2 4.5 4.5 20.3 13.8 26.7 15.7 6.5 2 9.1 2.1 47.9 2.1 39.7 0 41-.1 43.5-2 1.7-1.4 2.4-2.6 2-3.8-.9-2.4-13-15.8-30.8-34-14-14.4-24.9-23.2-34.9-28.4-3.3-1.7-16.7-4.8-20.8-4.8-2.1 0-2.1-.2 1.2-3.1 1.9-1.7 5.5-4.8 8-6.8 22.2-17.8 37-40.5 47.4-72.9 1.9-5.9 5.3-16 7.6-22.5 2.2-6.5 3.8-12.2 3.5-12.7-.9-1.5-4.9-1.2-10.7.9-2.9 1-12.7 4.2-21.8 7.1-14.1 4.4-27.6 9.2-40.5 14.3-4.8 1.9-21.3 10.9-23.3 12.7-.9.8-5.3 4.3-9.7 7.7-4.4 3.5-9 7.5-10.2 9s-4.7 5.5-7.8 8.8l-5.5 6V255c0-11.8-6.7-23.5-21.7-38.1-12.2-11.8-28-25.7-31.2-27.3-2.6-1.4-3-1.4-5 .7m268.5 100.6c-.4.7-.5 1.5-.2 1.8.9.9 1.9-.4 1.4-1.8-.4-1.1-.6-1.1-1.2 0m-15.9 11.6c-9.8 8.1-8.6 12.2 8.6 31.4 12.5 13.8 19.1 20.1 21.1 20.1.7 0 2.1-1.1 2.9-2.4 1.5-2.3 1.4-2.7-3-9.6-3.9-6.1-4.4-7.5-3.5-9.4.8-1.9 1.7-2.3 4.9-2 2.1.2 4.6.3 5.5.3.9.1 2.9 1.2 4.3 2.5 2 1.8 3.2 2.3 4.8 1.7 1.1-.4 2.3-1.3 2.4-1.8.2-.6-4.2-3.9-9.9-7.3-17-10.3-24.4-16.3-27.9-22.5-1.7-3-3.4-5.5-3.9-5.5-.4 0-3.2 2-6.3 4.5m213.9 19.2c-.3.4-.6 3-.6 6 0 4-.4 5.3-1.5 5.3-.8 0-1.5.9-1.5 1.9 0 1.1-.5 2.1-1.1 2.3s-1.1 2.5-1.1 5.1c-.1 4.5-.2 4.7-2 3.1-1.7-1.6-1.8-1.6-1.8.9 0 3.8-1.6 3.3-4.5-1.3-2.3-3.7-4.5-5.2-4.5-3.1 0 .5-1.3 1.4-3 2.1-4.2 1.7-8.3 5.5-7.8 7.1.3.9 2.1 1.4 5.1 1.4 5.4.1 9 2.8 10.7 8.1 1.4 4.1.6 7-2.8 10.6l-2.6 2.8 2.4 5 2.3 5h27.6l-2.1-3.6c-2.9-4.9-2-14.5 1.7-18.4 2.5-2.6 2.5-2.8 2.5-19.8 0-16-.1-17.2-1.8-17.2-1.1 0-4.4-.9-7.5-1.9-3-1.1-5.8-1.7-6.1-1.4M340 342.3c0 1.6 3.1 4.7 4.8 4.7s1.5-1.5-.5-3.2c-3-2.6-4.3-3-4.3-1.5"/></svg>