<svg xmlns="http://www.w3.org/2000/svg" width="682.667" height="512" version="1.0" viewBox="0 0 512 384"><path d="M0 62.5V125l2.3 4.8c6.9 14.1 12.3 19.9 17.8 18.7 2.8-.6 11.7-7.1 16.2-11.7 2.4-2.4 3-2.3 6.9 1.3 1.8 1.7 7.4 5.8 12.3 9.1 5 3.3 9.2 6.3 9.5 6.7s3.7 2.6 7.7 4.9c7.8 4.6 12.4 5.3 16 2.4 2.7-2.1 13.8-18.9 16.4-24.8l2-4.4 3.7 1.5c8.7 3.4 32.6 8.7 47.2 10.6 17.3 2.1 21.2-2.7 15.6-19.4-3.3-9.7-13.9-32.9-17.6-38.2-1.7-2.4-3-4.6-3-4.9s1.5-1.3 3.2-2.2c3.3-1.7 17.1-12.8 24.1-19.3 4.4-4.2 4.9-8.3 1.5-12.7-3.3-4.3-21.5-22.1-27.2-26.6-2.7-2.1-6.4-4.5-8.3-5.3-1.8-.8-3.3-1.9-3.3-2.5 0-.5 2-3.5 4.5-6.6 2.5-3 4.5-5.7 4.5-5.9 0-.3-34.2-.5-76-.5H0zM283.5 1.1c-1.6.4-7 1.3-12 1.9-37.9 4.4-38.7 4.6-40.4 10.7-1.5 5.3-1.4 8.8.8 19.5 4.9 24.3 18 56.5 30.3 74.6 9.6 14.1 36.8 32.4 50.4 34 8.5.9 12.6-2.9 22.3-21 2.8-5.3 6-10.7 7.1-12l1.9-2.3.2 6c.1 3.3.1 6.9 0 8-.4 4.7 2 23.7 3.3 26.4 5.4 10.3 43 14.2 74.7 7.7 20.1-4.1 40.2-12.8 50.4-21.9 9.1-8 23.7-28.3 28.7-39.5 5.4-12.4 7.3-24.9 4.5-29.9-1.9-3.4-5.1-5.4-21.7-14-17.7-9.1-33.4-17.8-35.2-19.6-.7-.7-4-3-7.3-5.2-6.2-4-12.1-8.7-23.6-18.7L411.3 0l-62.4.1c-34.3 0-63.7.5-65.4 1m112.3 185.6c-1.5 1.1-3.9 3.7-5.4 5.8-11.5 16.8-15.5 23.1-16.6 26.1-.6 1.9-1.5 3.4-1.9 3.4s-2.9-1-5.6-2.1c-8.4-3.7-30.8-10.7-41.5-12.9-10.5-2.2-25.2-3.1-30-1.8-2.9.9-4.8 4.9-4.8 10.5 0 7.8 8.9 34.7 14.5 43.8 1.9 3.2 2.4 3.6 2.5 1.9 0-1.2.7-2.7 1.6-3.4.9-.8 1.4-2.5 1.2-4.3-.4-3.9 1-4.3 4.6-1.2 1.6 1.4 3.3 2.5 3.8 2.5 1.2 0 1-2.4-.3-3.7-1.8-1.8 3.7-2.9 5.8-1.2 1.5 1.2 1.6 1.2 1-.4-.9-2.4.3-2.1 4.3.8 1.9 1.4 3.6 2.5 3.8 2.5.5 0-.9-2.2-2.6-4.3-2.4-2.8-.5-3.2 4.1-1 6.1 3 15.4 11.8 18.9 18 1.7 2.9 5.5 8.1 8.7 11.6 3.1 3.4 8.4 10.7 11.8 16.2 5.8 9.5 6.4 10.2 13 13.6 3.7 2 8.4 4.2 10.3 4.9 4.3 1.6 17 9.7 17 10.7 0 .5 1.1 2 2.4 3.4s3.1 3.9 3.9 5.5 2.3 3.7 3.3 4.6c2.1 1.8 17.8 7.8 20.6 7.8 2.3 0 2.4-3.9.3-8-.9-1.7-1.3-3-1-3s.2-.7-.3-1.6c-.6-1.2-.3-2.3 1.4-4.1 1.2-1.3 2-3.1 1.7-3.9-.3-.7.2-2.1 1.1-2.9.9-.9 1.6-2.5 1.6-3.4 0-1 .7-3.7 1.5-6.1 1.3-3.7 1.3-4.5-.2-7.3-.8-1.8-3.4-4.9-5.5-6.9-4.4-4-4.5-6.2-.6-10.5 2.6-2.8 6-1.7 10.8 3.7 4 4.5 5 4.8 10.8 3.1 3.9-1.1 4.2-1.4 4.2-4.7 0-10.5 5.2-22.7 10.8-25.3 5.2-2.5 13.7.2 27 8.4l4.3 2.6-.3-13.8-.3-13.8-4.1-.3-4.1-.3-1.8-8.1c-2.3-10.7-5.3-17.3-10.6-23.2-8.4-9.3-14.2-11.5-21.2-7.9-2.6 1.3-11.4 7.9-13.7 10.3-3.3 3.4-3.9 3.3-9.4-1.8-3-2.7-9.2-7.6-13.8-10.7-4.6-3.2-9.4-6.8-10.8-8-4.5-4.1-15.9-10.5-19.7-11-2.7-.4-4.6-.1-6.5 1.2m-366.6 5.5c-5.8 9.5-12.1 28.7-13.2 40.6-.7 8.3-.6 10.3 1.5 18 2.8 10.4 5.7 15.9 14.2 26.9 3.5 4.5 6 8.4 5.5 8.7-.4.3-6.4-1.3-13.1-3.5-8.6-2.7-14.1-3.9-18.2-3.9H0v23.5c0 12.9.2 23.5.5 23.5 1.8 0 20.2 5.4 23 6.7 4.4 2.1 4.8 3.3 2.2 7.6-3.8 6.1-9.7 12-20 19.6L0 364.1v8.4c0 7.5.2 8.6 2.1 9.5 1.7 1 3.5 0 14-7.9 19.8-15 31.9-19.7 34.7-13.6.7 1.4 1.4 4.5 1.7 6.8.4 2.3 1.1 7 1.7 10.4l1 6.3h27.4c25.6 0 27.4-.1 27.4-1.8 0-1-2-7.6-4.5-14.7-2.4-7.1-4.3-13.1-4-13.3.5-.6 9.5 6 12 8.8 1.1 1.3 6.6 5.4 12.3 9.2 7.7 5.1 12.5 7.6 18.5 9.4 7.9 2.4 8.7 2.4 46.3 2.4h38.3l2.8-2.4c2.6-2.3 2.7-2.5 1.3-5.2-1.9-3.5-38.4-40.5-46.5-47-13.7-11.2-28.1-17.4-40.1-17.4-6.1 0-6.7-1-2.5-3.7 19.1-12.1 30.3-22.4 40-36.8 7.7-11.2 11.2-18.9 21.3-45.5 3.8-10.2 8-21 9.4-24.1 2.7-6.4 3.1-9.9.9-9.9-2.4 0-44.1 13.9-59.5 19.8-8 3.1-19.2 8.3-25 11.6-10.4 5.9-24.8 17.4-30.5 24.4-1.6 2.1-3.8 4.6-4.7 5.6-1 1.1-2.8 3.5-4.1 5.3-3.4 5-4.7 5-4.7-.1 0-13.6-5.2-23.1-22.2-40.4-20.6-21-29.7-29.2-32.5-29.2-.6 0-2 1.5-3.1 3.2m268.1 100.5c-.9 2.4 2.7 8.4 6.5 10.6 1.8 1.1 3.5 1.7 3.8 1.4s-.6-2.4-2.1-4.7c-1.4-2.2-3-5.2-3.5-6.5-1.1-2.9-3.8-3.3-4.7-.8m-13 9.3c-7.9 6.7-8.9 9-6.3 14.8 1.9 4.2 23.7 27.3 33.3 35.4 6.6 5.5 8.8 5.9 11.2 2.2 1.6-2.5 1.6-2.7-1.8-7.7-4.9-7.5-5.8-9.4-5.1-11.1.3-.9 1.5-1.6 2.5-1.6 3.6 0 1.9-2.5-4.5-6.8-12.1-8.1-16.4-13.8-18-24-.8-4.5-1.6-6.8-2.6-7-.9-.1-4.7 2.5-8.7 5.8m223.1 30.1c-.3.6-.6 3.1-.6 5.6.1 3.8-.1 4.3-1.7 3.8-1.5-.4-1.7-.1-1.3 2 .3 1.8 0 2.5-1.2 2.5s-1.6 1-1.6 4.7-.3 4.4-1.2 3.5c-1.9-1.9-2.8-1.4-2.8 1.5l-.1 2.8-2.4-3c-1.4-1.7-2.5-3.8-2.5-4.8 0-2.5-2.5-3.2-4.7-1.3-1 .9-3.7 3.2-6.1 5.2-2.3 2.1-4.1 4.2-3.9 4.8s2.5 1.1 5.2 1.1c4.2.1 5.1.5 8.1 3.8 4.6 5 4.4 11.7-.4 15.3-.9.6-1.3 1.8-.9 2.8.5 1.3 2.3 1.6 10.3 1.6 5.2 0 9.4-.3 9.2-.8-3.2-6.1-3.9-9-3.5-13.3.6-4.9 2.8-9.3 5.3-10.3 1.1-.4 1.4-3.3 1.4-14.6 0-13.2-.1-14-1.9-14-1.1 0-2.3.5-2.7 1.1m-194.8 45.6-4.9 5.8 4.7.3c3.9.3 5-.1 6.6-2 3-3.5 3.4-5.7 1.4-7.9-.9-1-2-1.9-2.3-1.9-.4 0-2.8 2.6-5.5 5.7"/></svg>