<svg xmlns="http://www.w3.org/2000/svg" width="682.667" height="512" version="1.0" viewBox="0 0 512 384"><path d="m.2 60.2.3 60.3 2.6 5c5.1 10.1 10.2 16.9 14.7 19.7 4.4 2.7 7 1.6 15.2-6.8 3.6-3.5 6.9-6.4 7.5-6.4.5 0 2.8 1.6 4.9 3.6 10.3 9.5 33.1 26.1 36.9 26.8 5.4 1.1 7.2-.9 14.7-15.7 3.8-7.7 7-15.1 7-16.5 0-2.9.8-2.8 12.5 1.7 10 3.9 28.9 8.7 37.8 9.6 4.4.5 8.3.3 11.1-.5 4.2-1.2 4.4-1.4 5-5.8.4-3.1-.1-7.1-1.3-11.7-1.8-7-13.5-31.5-18.5-38.8-3-4.3-3.3-6.7-1-6.7 2.2 0 12-5.7 23.9-13.8 8.5-5.7 10-7.2 10.3-9.7.5-4.9-.7-6.1-28.3-30.1-2.7-2.4-5.6-4.4-6.2-4.4-.7 0-1.3-.4-1.3-.9s-1.7-1.6-3.9-2.4c-5.4-2.2-5.6-3.8-1-8.3 2.1-2.2 4.6-4.9 5.4-6.2L150 0H-.1zM286 1.9c-3.6.9-11.2 2.3-17 3-13.4 1.7-24.7 3.7-28.3 5-3.4 1.3-5.7 6.3-5.7 12.2 0 9.1 6.7 34.8 12 46.4 1 2.2 3.4 7.4 5.3 11.5 7.6 16.9 24.7 36.6 41.5 47.8 13.7 9.1 17.6 10.7 25 10.4 5.1-.3 8.1-4.2 17.3-22.7 4.5-9.1 8.6-16.2 9-15.9.5.3.8 9.2.7 19.7-.3 21.6.3 24.7 5.5 28.8 6.5 5.2 29.1 9.3 45.8 8.4 30.6-1.6 56.5-13.5 79.7-36.5 15-14.8 28.2-34.5 28.2-41.8 0-8.5-2.9-11.2-26.6-24.8-29.2-16.7-42.5-26.5-58.1-42.8L410 0l-58.7.1c-52.7 0-59.5.2-65.3 1.8m109.6 185.4c-1.6 1.3-3.6 3.7-4.5 5.4s-4.3 7.9-7.5 13.8-6.4 12.6-7.1 14.8c-.6 2.3-1.6 4.2-2.2 4.4s-4-1-7.6-2.7c-3.6-1.6-7.1-3-7.9-3-.7 0-2.5-.6-3.9-1.4-1.4-.7-6.4-2.5-11-3.9-27.8-8.6-44.4-9.7-46.9-3.1-2.4 6.3 0 19.5 6.1 33.4 5.9 13.6 14 30.3 16 33.1 2.4 3.4 2.4 5.9.1 5.9-2.6 0-13.2 5.7-29.1 15.5-11.7 7.2-13.1 8.6-13.1 12.8 0 4.7 4.6 9.9 26 29.7 10.7 9.9 19.7 16.9 21.7 17 .6 0 1.9.7 2.7 1.6 1.7 1.7 2.2 1-13.8 18.9l-3.6 4 26.1.3 26.1.2 2.4-2.6c2.5-2.6 2.4-3.2-1-7.1-2.6-3.1-6-2.9-8.1.3-1.9 3-7.1 5.4-11.4 5.4-3.4 0-6.1-3-6.1-6.8 0-2.5 3.3-9.7 5-10.7 2.6-1.6.7-4.3-5.7-8-8-4.7-13-9-16.8-14.5-2.3-3.3-2.9-5.2-3-10.4-.1-7.3 1.2-7.8 4-1.6 1.8 4 3.5 5.5 8.8 7.8 3.4 1.5 3.1.9-2.3-5.8-4.8-5.8-7.8-11.8-8.4-16.7-1.1-7.8-1.5-15-1-15.5.2-.3 2.1 0 4.2.7 2 .7 3.9 1.2 4.1.9.2-.2-.6-2.4-1.8-4.9-2.8-5.9-2.8-7.8 0-7 2.1.7 2.1.5 1.5-3.9-.9-6.1.3-6 6.5.6 4.8 5.2 4.9 5.2 3.5 1.8-1.5-3.9-1.6-9.2-.1-9.7.6-.2 3.2 1.7 5.8 4.2 6.2 5.8 8.7 6 5.1.5-1.5-2.2-2.5-4.3-2.2-4.6.3-.2 2.9 1.5 5.8 3.8 2.9 2.4 6.2 5 7.4 5.8l2.1 1.4-2-2.4c-1-1.4-3.7-4.5-6-6.9-3.7-4.1-3.8-4.3-1.4-3.8 8.3 2 17.9 8.8 23 16.4 1.8 2.6 5.3 6.7 7.8 8.9 2.6 2.3 6 6.6 7.6 9.5 5 9.4 8.4 13.3 14.8 17.2 3.4 2.1 8.7 4.5 11.7 5.4 8.5 2.4 17 6.6 22.2 10.9 4.2 3.5 6.4 4.4 19.5 7.7 16.8 4.2 17.3 4.3 17.3 2.1 0-.9.7-3.2 1.6-5.2 2-4.6 2.5-6 5.3-14.4 2.5-7.5 2.3-8.5-3.5-15-3-3.3-3.2-4.1-2.3-6.5 1.3-3.4 2.6-4.3 6.6-4.3 2.3 0 3.7.8 5.2 2.7 3.7 4.9 4.3 5.4 5.9 5.1 1.5-.3 1.7-1.7 1.3-11.4-.3-9.7 0-11.6 1.8-15.2 1.2-2.3 3-4.6 4-5.2 2.5-1.3 6.7-1.3 9.2 0 1.8 1 1.9.6 1.9-17v-18h-5.5c-5.2 0-5.5-.2-6-2.8-3.2-14.8-18.2-38.2-24.5-38.2-2.8 0-9.7 4.7-16.6 11.2l-7.4 7.1-7.3-6.9c-17-16.5-37.1-31.8-42.7-32.8-2.8-.5-4.1-.2-6.4 1.7m-365.2 5.3c-2.4 3.6-7.2 18.7-8.5 26.3-.5 3.6-1.2 6.7-1.4 7.1s-.7 4.7-1.1 9.6c-.3 4.9-.8 9.3-1.1 9.7s0 1.3.5 2 1.7 4.7 2.7 9c2.2 10.1 7.6 19.1 18.5 31 6.7 7.3 6.3 8.2-2.2 4.3-15-6.8-24.9-10.2-32.2-11.1l-5.6-.7V325l2.2.5c1.3.2 6.1 1.4 10.7 2.5s9.2 2 10.3 2c2.2 0 8 2.8 9 4.3 2.1 3.3-8.3 14.5-21.6 23.2l-10.5 7v7.1c-.1 5.6.3 7.4 1.7 8.7 1 1 2.4 1.7 3.1 1.7.6 0 6.9-4.8 13.9-10.6 12.9-10.8 21.4-15.8 28.8-17 3.8-.6 4.1-.4 5.2 2.2.7 1.6 1.4 6.7 1.7 11.4s.8 10.2 1.1 12.2l.6 3.8h54l-.7-3.2c-.4-1.8-1.1-3.8-1.4-4.3-.4-.6-1.3-3-2-5.5-1.1-4.1-4.6-12.8-7.4-18.7-.6-1.3-.7-2.6-.4-3 .7-.7 1.3-.2 13.2 10.7 11.7 10.8 22.6 17.5 33.9 21l9.8 3h32.7c29 0 33-.2 36.1-1.8 6.5-3.2 5.6-5.2-7.7-18.1-14-13.6-27.9-26.4-32.1-29.4-1.6-1.2-5.4-4-8.3-6.3-10-7.6-20.1-12.4-29.7-14-4.8-.9-11.1-1.4-13.9-1.2-2.9.3-5.3.1-5.3-.4 0-.4 2.6-2.1 5.8-3.7 11.6-5.9 19.3-10.8 28.6-18.5 5.3-4.3 9.6-8.2 9.6-8.5s1.6-2.4 3.6-4.6 5.3-6.5 7.3-9.5c3.8-5.5 16.4-30.5 20-39.7 1-2.6 4.6-10.4 7.8-17.3 7.9-16.6 7.7-15.9 4.8-17-1.8-.7-3.6-.4-7.1 1.1-5 2.3-13.8 5.5-33.4 12.6-6.9 2.4-13.8 5-15.5 5.8-1.6.7-7 3.1-12 5.3-23.2 10.2-40.9 24.4-54.1 43.5-4.1 5.9-7.6 10.7-7.7 10.7s-.2-5.1-.2-11.2c0-11.8-.4-13.3-7.6-25.8-4.7-8.3-40.6-46-43.8-46-.6 0-1.8 1.2-2.7 2.6"/><path d="M324.6 305.7c.3 1 1.4 2.9 2.5 4.3 1.9 2.4 1.9 2.4-.1-1.8-2.1-4.4-3.1-5.4-2.4-2.5"/></svg>