<svg xmlns="http://www.w3.org/2000/svg" width="682.667" height="512" version="1.0" viewBox="0 0 512 384"><path d="M0 74.8c0 73.8 0 75.1 2 75.7 2.6.8 9.4-2.3 15.7-7.4 2.9-2.2 5.5-4.1 5.8-4.1.4 0 5.7 5.2 11.8 11.7C51 167 60.5 175 64.3 175c3.9 0 8.3-4.7 18.3-19.6l7.5-11.3 9.2 4.8c10.4 5.4 29.8 13.3 36.9 15 7.8 1.8 13.1 1.4 15.6-1.2 2.7-2.9 3-11.2.7-21-1.7-7.2-9.8-31.5-12-35.8-2-3.7-1.2-5.2 3.5-6.7 6.5-2 29-13.5 31.6-16.1 3.2-3.2 3-5-1-11-4.7-6.9-22.5-27-29.1-32.8-3-2.6-5.5-5.2-5.5-5.7s4.1-4.7 9-9.3c5-4.7 9.3-9.6 9.6-10.9.8-3.1-1.2-5.4-8.7-10L144.2 0 79.3.4C43.7.6 13.8.8 13 .9S8.9.8 5.8.4L0-.2zM343.9 3.3c-15.2 11.5-38.5 22.4-61.3 28.7-3.9 1.1-11 3.1-15.7 4.4-15.7 4.3-18.6 7-17.5 16.3 1.5 13 12.1 37.6 23.7 55.3 16.6 25.2 49.9 49.4 69.9 50.8 10.5.7 12.8-2.2 20.4-26.2 2.3-7.1 4.7-13.1 5.3-13.3 1.6-.6 2.1 1.6 3.3 15.7 2.1 23.1 4.9 28.4 16.4 31.5 5.3 1.4 9.2 1.7 21.8 1.2 23.6-.8 41-5.6 59-16.3 10.2-6.2 26-21.5 35.7-34.6l7.1-9.7V59.3L498.8 54c-38.5-15.3-58.6-27.2-78.2-46.1L412.3 0h-64zM46 199c-3.6 5-9.9 19.4-14.2 32.3-3.8 11.4-4.1 13-4.2 23.7 0 9.8.3 12.4 2.3 17.5 2.6 6.6 7.2 14.2 13.4 22.3 2.2 2.9 3.7 5.5 3.4 5.8s-4.5-2-9.2-5.1c-11.7-7.7-21.6-12.2-30.3-13.9L0 280.2v47.5l11.2 3.8c14.9 5 18.7 7 18.8 9.6 0 1.1-8.4 9.1-12.1 11.4-2 1.3-6.9 4-10.8 6L0 362.1v10c0 5.4.2 9.9.6 9.9.3 0 3.1-1.7 6.2-3.8 10.1-6.8 19.7-12.2 25.3-14.1 14.1-4.8 15.4-3.9 14.5 10.1l-.7 9.8h26.6c24.9 0 26.6-.1 26.1-1.8-.2-.9-1.4-5-2.6-9s-2-7.8-1.8-8.3c.2-.6 3.8 3.5 8.1 9L110 384h91l-7.1-8.8c-23.3-28.5-37.3-39.7-53-42.3-10.3-1.7-11-1.9-10.5-2.8.3-.4 4-2.1 8.3-3.6 31.2-11 48.5-26.7 70.4-63.8 4-6.7 10.8-17.5 15.1-24.1 4.4-6.5 7.7-12.5 7.4-13.2-.7-1.8-5.4-1.8-11.9 0-2.9.8-10.4 2.6-16.7 4-48.5 10.8-52.6 12-68.6 19.6-12.8 6.2-23.6 14.2-34.6 25.9-4.9 5.1-8.8 9-8.8 8.7s.7-3.5 1.6-7.3c3.7-15.7-1.2-27.5-23.8-57.2C51.2 195.9 49.3 194.3 46 199m336 2.3c-.9.7-2.5 2.5-3.7 4.2-2.3 3.3-12.7 29.1-13.8 34.2-.3 1.8-1 3.5-1.5 3.8-.4.2-3-.2-5.8-1-23.9-7.1-62.2-10.7-68.9-6.5-6.9 4.4-5.1 15.5 5.8 34.5 5.1 9 16.8 27.5 17.9 28.5 1.6 1.4 5 7 5 8.2-.1.7-2.7 3-6 5.1-10.1 6.6-30.5 24.2-31.9 27.5-2.2 5.2 1.1 9.5 16.4 20.9 7.8 5.8 28.8 19.8 33.2 22.1 1.5.9 15.3 1.2 48.2 1.2 40.3 0 46.1-.2 46.1-1.5 0-1.9 1.4-1.9 3 0 1.8 2.1 4 1.9 4-.5 0-1.1-.9-4.3-2-7.2s-2-6.1-2-7.2c0-1.8.1-1.8 2.6-.1l2.7 1.7-.7-2.6c-.3-1.4-.3-3.8 0-5.2l.7-2.6 4.2 4.2 4.2 4.1-.5-4.9c-.6-6.8.9-7.3 6.9-2.2 2.8 2.3 5.2 4 5.5 3.7.2-.2 0-1.6-.6-3.1-1.5-4-1.2-5.1.8-3.4 1.9 1.6 5.2 3 5.2 2.2 0-.3-.5-1.4-1.1-2.6-.6-1.1-.9-2.1-.7-2.4.8-.7 11.1 3.5 14.9 6.2 2.1 1.4 5.1 4.3 6.6 6.3s5.8 6.6 9.7 10.3l7 6.8H512V246.7l-6.7.7c-3.8.4-7.8.9-8.9 1.2-1.8.5-2.6-.3-4.7-4.9-7.1-15.6-21.8-31.7-28.9-31.7-3 0-10.5 6.6-18 15.9l-3.5 4.3-5.1-3.8c-6.8-5.2-34-21.5-42.2-25.3-7-3.3-9.6-3.7-12-1.8"/></svg>