<svg xmlns="http://www.w3.org/2000/svg" width="682.667" height="512" version="1.0" viewBox="0 0 512 384"><path d="M0 75.5C0 127.1.3 151 1 151c1.7 0 8.1-3.5 13.5-7.4l5-3.7 3.9 4.8c2.2 2.7 10.4 11.2 18.1 19 16.8 16.9 17.5 17.2 24.7 9.5 3.7-4 11.3-13.8 18.1-23.6 1.2-1.8 1.5-1.7 6.4 1.3 2.8 1.7 10.6 5.8 17.4 9 21.4 10.1 33.2 13.1 37.7 9.5 4.9-4 4.7-13.9-.8-33.4-1.6-5.8-4.1-13.9-5.5-18-4-11.2-4.1-10.8 4.5-13.9 13.2-4.9 28.7-12.7 30.5-15.4 1.5-2.3 1.5-2.8.1-6.2-2-4.8-15.7-22.3-26.3-33.5-4.6-4.8-8.3-9.3-8.3-9.9 0-.7 1.7-2.6 3.8-4.4C154 25.9 159 20.6 159 18.4c0-3.2-6.7-8.6-17.4-13.9L132.5 0H75.8c-51 0-56.9.2-59.5 1.7-2.7 1.5-3.2 1.5-6.3 0C8.2.7 5.2 0 3.3 0H0zM350.5 5.2c-7.6 6.5-21.3 15.6-31.2 20.7-10 5.2-19.7 9-41 16.1-18.4 6.1-21.3 7.5-23.9 11.6-2.4 3.5-.9 11.2 4.9 25.5 12.1 29.6 30.1 52.9 52.7 68.1 16.1 10.9 30.3 16.8 40.2 16.8 9.7 0 11.8-3.2 18.8-28.5 1.2-4.4 2.4-8.8 2.7-9.8.6-2.4 3.2-2.1 3.7.5.3 1.3 1.2 7.7 2.1 14.3 3.6 27 7.2 30.5 31.6 30.5 23.4 0 48.6-7.3 66-19 8.8-6 21.1-18 28.6-27.9l6.3-8.4-.2-29.5-.3-29.5L496 51c-35.7-13-54.4-23.8-77.1-44.2L411.3 0h-27.4l-27.4.1zM49.6 202.3c-3.6 4.7-12.1 22.9-15.5 33.4-7.8 23.4-6 36.4 7.8 57.4 3.3 5.1 5.9 9.5 5.6 9.7-.3.3-1.9-.5-3.6-1.7-8.7-6.4-16-11.2-21.4-14C16.3 284 6.4 281 2.3 281H0v46.7l2.8 1.2c1.5.7 5.9 2.4 9.7 3.8 11 4 16.5 7.1 16.5 9.2 0 3-8.3 9.5-19.1 15.1L0 362.1v9.4c0 5.2.2 9.5.5 9.5.4 0 4.3-2.2 8.9-5 10.7-6.5 19.6-10.4 27-12.1 5.7-1.2 5.9-1.2 7.8 1.1 2 2.5 2 2.6.1 15.2l-.6 3.8h26.2c14.3 0 26.1-.1 26.1-.3 0-.1-.9-3.5-1.9-7.5-1.1-3.9-1.6-7.4-1.2-7.7.4-.2 3.2 3.1 6.2 7.3l5.5 7.7 44.2.3 44.3.2-6.1-8c-8.4-11.1-23-26.2-29.4-30.4-6.6-4.4-14.2-7.4-20.9-8.4-2.8-.4-5.2-1.2-5.4-1.8-.2-.5 4.1-2.5 9.4-4.3 31.1-10.5 46.1-23.3 69.8-59.6 4.4-6.6 11.7-17.3 16.3-23.7 6.4-8.9 8.2-12.2 7.7-13.8-.7-2.3 1.1-2.5-23 2-40.8 7.7-48.1 9.3-57.7 12.1-21.4 6.4-35.1 14.3-51 29.8-5.4 5.2-9.8 8.8-9.8 8s.7-3.6 1.5-6.3c3.4-11.2.4-23.5-9.7-39.5-7.5-12.1-27.7-39.9-29.3-40.5-2.7-1-3.3-.7-5.9 2.7m329.3 3.1c-3.6 1.7-7.1 9.2-13 27.1-3 8.8-5.4 16.2-5.6 16.4-.1.2-4.5-.6-9.7-1.8-13.8-3.2-37.7-6-49.1-5.7-11 .3-16.6 2-18.5 5.7-2 3.7-.7 11.9 3.3 20 4.1 8.4 20.3 33.2 26.6 40.7 2.2 2.8 4.1 5.4 4.1 6 0 .5-1.7 2.2-3.7 3.8-13.3 9.9-31.9 27.1-33.2 30.7-1.4 3.7.1 6.7 5.3 11.1 4.6 3.9 23.6 16.9 32.7 22.4 3.6 2.2 3.8 2.2 62.9 2.2h59.2l-.7-2.3c-.4-1.2-.9-3.6-1.2-5.2-.4-2.5-.3-2.8.8-1.8 2.2 2.2 2.9 1.5 2.9-3.2 0-2.5.3-4.5.7-4.5s2.7 1.9 5.1 4.3c3.1 2.9 4.3 3.6 3.9 2.2-1.5-5.1-1.6-7.1-.7-8.5 1.1-1.7 1.3-1.5 8.1 4l4.2 3.4-.7-3.7c-.8-4.2-.5-4.4 3.1-2l2.6 1.8-.6-3.3c-.6-3.1-.5-3.3 1.6-2.6 7.8 2.4 13.2 6.1 20 13.5l7.1 7.9H512V247h-3.7c-2.1 0-6.6.6-10 1.3l-6.3 1.4-4.7-8.4c-7.7-13.7-21.3-27.3-27.5-27.3-4.2 0-6.9 2.1-14.3 11.6-3.7 4.6-7 8.4-7.3 8.4s-3.9-2.2-8.1-4.8c-11.4-7.3-36.8-20.9-43.2-23.1-4.6-1.5-6.1-1.7-8-.7"/></svg>