<svg xmlns="http://www.w3.org/2000/svg" width="682.667" height="512" version="1.0" viewBox="0 0 512 384"><path d="M0 75c0 41.2.4 75 .8 75 .5 0 3.7-1.8 7.1-4s6.6-4 7-4c.5 0 2.5 2.1 4.3 4.7 5 7 19.1 23 25.6 29 7.1 6.8 9.6 6.9 15.5 1 3.7-3.7 12.4-14.3 18.2-22.1l2-2.7 9 5.6C100 164 116.6 172.2 125 175c10.8 3.7 16.9 2.2 18.6-4.6 1.6-6.4-2-27.1-8.2-47.2-1.4-4.5-2.4-8.9-2.1-9.6s2-1.6 3.9-2c4-.8 29-10.8 32.3-13 4-2.6 4.1-5.8.5-12.3-4.1-7.2-16.3-23.5-24.6-32.9-3.5-4-6.4-7.6-6.4-8.1 0-.4 2.6-2.8 5.8-5.3 14.3-11.1 16.3-14.3 12.2-18.8-5.1-5.4-21.8-14.8-32.5-18.2-2.2-.7-4.4-1.6-5-2.1-.5-.5-23-.9-50-.9-47.9 0-49.2.1-51 2-2.3 2.5-5.1 2.5-9.3 0C7.4.9 4.6 0 3 0H0zM356.9 7c-17.6 18-40.2 31.1-77.1 44.5-8.1 3-15.8 6.1-17.1 7-6.2 4-5.7 11.5 1.7 28.6 11.4 25.8 29.2 48.4 49.6 63 14.4 10.3 36.8 19.9 46.5 19.9 4.3 0 9.6-3 11.6-6.6 1.6-2.9 6.9-22.7 8.5-31.7.3-2 1-3.7 1.4-3.7 1.9 0 3 3.4 5 14 4 22.6 5.5 26 13.3 29.8 4 2.1 6 2.4 15.8 2.3 38-.3 69.2-15.3 92.2-44.2l3.7-4.6v-71l-7.7-2.2C491 48.2 471.9 41 461.2 35.8c-13.6-6.6-32-19.1-42-28.3l-8-7.5-23.9.2-23.8.1zM56.6 202.6c-6.9 6.8-18.4 30.6-22.6 46.4-4.3 16.5-1.8 28.2 10.2 47.7 2.8 4.6 4.9 8.5 4.7 8.7-.2.3-4.5-2.7-9.4-6.5-14.2-10.9-23.9-15.8-35-17.4l-4.5-.7V328l5.3 2.4c23.3 10.8 22.7 10.4 22.7 13 0 3.5-5.6 7.8-17.7 13.7L0 362v9c0 5 .4 9 .9 9 .4 0 4.1-1.8 8-4 13.1-7.1 27-11.8 31.8-10.5 3.6.9 4.1 6.4 1.6 16.2l-.5 2.3h25.7c21.4 0 25.6-.2 25.2-1.4-.3-.7-.8-3.5-1.2-6.2l-.6-4.9 2 2.5c1.2 1.4 3.1 4.2 4.3 6.3l2.2 3.7h85.7l-3.3-4.6c-4.9-6.9-16.9-20.5-21.9-24.8-5.7-4.8-16.4-10.1-23.4-11.6-3.1-.6-5.5-1.6-5.3-2.2s4.9-2.4 10.3-4c11.8-3.4 28.3-11.3 36.4-17.4 10.8-8.1 20.7-19.4 37.1-42.4 5.7-8 13.4-18.3 17.1-22.8 6.6-8.3 7.9-12.2 4.1-12.2s-58.7 8.3-70 10.6c-28.4 5.7-45.5 14.2-63.9 31.7-4 3.9-7.6 6.8-7.8 6.5-.3-.3.4-3.1 1.5-6.3 3.7-10.8 2.5-19.4-5-35-5.7-11.6-27.9-45.8-30.8-47.4-1.6-.9-2.4-.7-3.6.5m317.1 8.5c-.9.5-2.6 2.7-3.6 4.7-2.3 4.5-9.6 27.2-10.5 32.7-1.2 6.9-1.3 7-10.7 5.2-28.2-5.3-58.6-5.4-66.5-.2-7.7 5-1.6 20.4 19 47.9 5.2 6.9 10.5 13.6 11.6 14.8 4.3 4.5 4.4 5.7.9 8.6-9.7 8.1-26.6 24.3-29.5 28.1-1.9 2.4-3.4 5.4-3.4 6.7 0 3.8 5.5 8.9 18 16.9l11.9 7.5H380c61.1 0 69-.2 69-1.5 0-1.4.3-1.3 2.5.1l2.5 1.6v-5.3l.1-5.4 5 5.5c2.8 3 4.7 4.6 4.3 3.5-1.3-3.6-1.6-8.3-.7-10 .9-1.5 1.6-1.2 5.7 2.4 5.5 4.8 7 5.2 5.6 1.5-1.5-3.9-1.2-4.7 1.2-3 3.3 2.3 4.6 2 4-1-.3-1.5-.1-2.5.4-2.3s3.4 1.3 6.3 2.4c3.2 1.2 7.5 3.9 10.5 6.7 4.7 4.5 5.4 4.8 10.3 4.8h5.3V246.1l-3.7.5c-2.1.3-7.3 1.3-11.6 2.1-4.2.9-7.9 1.4-8 1.2-.2-.2-2.2-3.6-4.4-7.4-7.9-13.3-22.1-26.5-28.6-26.5-3.6 0-9.3 5.3-15.3 14.1-2.6 3.8-5.1 6.9-5.5 6.9s-4-1.9-8.1-4.3c-8.9-5.3-36.7-19.1-42.7-21.2-5-1.7-7.9-1.9-10.4-.4"/></svg>