<svg xmlns="http://www.w3.org/2000/svg" width="682.667" height="512" version="1.0" viewBox="0 0 512 384"><path d="M0 73.7c0 57.3.3 73.4 1.2 72.5 2.3-2.3 4.3-1.1 7.5 4.1 3.7 6.1 21.3 30 25.1 33.9 5.2 5.6 9 3.8 24.1-11.6 9.8-10.1 11.5-11.5 13-10.4.9.7 3 2.3 4.6 3.5 1.7 1.3 3.6 2.8 4.2 3.3 3.1 2.5 20.5 13.1 26.8 16.3 18.9 9.5 24.5 6.9 24.5-11.1 0-9.5-1.8-23.8-4.7-37.3-.9-4.2-1.3-8.3-1-9.1s4.3-2.4 9.4-3.6c12.9-3.2 27.5-8.1 29.5-9.9 2.1-1.9 2.3-6 .6-10-3.4-7.6-18.2-31.2-24.5-39.1-1.9-2.3-3.3-4.8-3.1-5.4s4.4-3.9 9.3-7.2c10.8-7.5 13.2-10.4 11.5-13.7-2.7-5.3-17.1-15.8-29.7-21.6-4-1.8-7.3-3.7-7.3-4.2 0-.4.9-3.4 2-6.6s2-6 2-6.2c0-.1-22.4-.3-49.9-.3H25.2l-1.6 2.5c-.9 1.4-2.7 3.2-4 4.1-2.2 1.4-2.8 1.4-5.3.1-1.5-.8-3.9-2.7-5.2-4.1C7.4.8 5.6 0 3.3 0H0zM375 1.2c0 3-10.5 17.1-19.3 26-15 15.1-33.4 28-53.9 37.6-3.5 1.7-11 5.2-16.8 7.9-13.1 6.2-15.4 8.6-14.7 15.9 1.4 13.3 24.6 47.9 42.3 62.9 19.5 16.5 44.5 28.1 63.4 29.2 8.2.5 8.7.4 11.7-2.1 1.7-1.5 3.9-4.6 4.7-6.9 1.3-3.4 5.6-28.7 5.6-32.8 0-.6.7-.6 1.9 0 1.3.7 2.8 4.6 5.1 12.8 7.6 27.8 10.6 30.5 31.9 29 24.5-1.8 52.7-14.3 69.9-30.9l5.2-5.1-.2-47-.3-46.9-15-3.8c-25.1-6.3-43.4-14-62.5-26.3-9.6-6.3-22.8-16.7-24.3-19.3C408.6-.5 375-.7 375 1.2M64.3 212.7C54.7 224.3 43.7 245 40.1 258c-3.7 13.4-2.2 23.7 6.3 41.4 3 6.4 5.1 11.6 4.7 11.6s-2.5-1.8-4.6-4.1c-6.4-6.6-18.3-15.8-24.4-18.8-5.6-2.8-18-7.1-20.7-7.1-1.2 0-1.4 4.1-1.4 23.7v23.8l4.3 2.6c2.3 1.5 7.4 4.3 11.2 6.2 3.9 1.9 8.3 4.7 9.8 6.1 2.7 2.5 2.8 2.9 1.4 4.9-1.8 2.7-12.9 8.8-20.7 11.3l-6 1.9v8.7c0 4.9.2 8.8.4 8.8s4.6-1.6 9.7-3.6c22.4-8.7 32.8-7.8 29.9 2.4-.5 2-1 4.3-1 4.9 0 1 5.5 1.3 24 1.3 21.7 0 24-.2 24-1.7s.1-1.5 1.8 0 6 1.7 41.1 1.7h39.2l-1.9-2.8c-4.4-6.1-14.5-16.2-19.3-19.3-2.8-1.8-7.9-4.2-11.1-5.3-3.3-1.2-6-2.6-6-3.1.1-.6 5.2-2.2 11.4-3.6 18.5-4.2 30.6-9.3 42.5-18 5.7-4.2 25.5-23.5 30.2-29.4 5-6.3 13.9-16.3 21.7-24.6 7.2-7.4 8.1-8.9 7.7-11.3l-.6-2.9-8.1.7c-4.5.3-17.1 1-28.1 1.6-34.4 1.8-47.7 3.5-63.9 8.2-10 2.9-24.8 10.7-35.4 18.8-5.2 3.9-9.6 7-9.8 6.8-.1-.2.8-3.4 2.1-7.1 3-8.1 3.2-16.1.8-25.5-1.9-7.3-24.3-52.9-28-56.8-3.1-3.4-4.6-3-9 2.3m378.5 10c-2.4 1.5-6.9 7.8-12.9 18.2-2.3 3.9-1.4 4-16.9-2.8-16.8-7.3-33.6-13.6-40.5-15.1l-5.9-1.2-2.8 3c-3.8 4.3-5 8.7-11.4 42.1-.5 2.3-.7 2.3-7.7 1.6-13.5-1.3-45.8-.7-54.3 1-16.7 3.4-19.6 8.8-12.2 22.8 3.4 6.2 19 25.4 31.2 38.2 4.2 4.3 7.6 8.4 7.6 9s-2.5 3.5-5.6 6.5c-8.3 8.1-23.3 25.7-25.1 29.5-.9 2-1.3 4.3-.9 5.9l.6 2.6h226V245.7l-5.4.7c-4.7.5-18.5 4.2-22.7 6-1.1.5-2.4-.7-4.8-4.4-6.9-10.7-23.9-25.3-30.8-26.5-1.7-.3-3.9.1-5.5 1.2"/></svg>