<svg xmlns="http://www.w3.org/2000/svg" width="682.667" height="512" version="1.0" viewBox="0 0 512 384"><path d="M0 73.4v73.4l3.3 5.9c5.1 8.9 19.6 30.4 23 34 3.6 3.8 6.7 4.2 11.2 1.4 3.7-2.3 18.6-15.7 21.5-19.4 1.2-1.5 2.7-2.7 3.3-2.7.7 0 4.8 3 9.2 6.6 16.8 13.8 36.7 25.4 43.4 25.4 3.7 0 7.7-4.5 8.7-9.7 1-5.4-.2-29.3-2.2-41.5-1.8-11.6-1.4-13.8 2.9-13.8 2.7 0 24.1-4.8 29.7-6.7 10.3-3.5 10.5-6.6 1.1-24.8-3.8-7.3-9.7-17.5-13-22.6-3.4-5.1-6.1-10-6.1-10.8 0-1 4.1-4 10.1-7.6 10.5-6.2 12.4-8.2 11.5-12-1.2-4.8-17.5-18-29.8-24.2-2.6-1.3-5-2.8-5.3-3.3s1-5.2 3-10.4C127.4 5.4 129 .8 129 .5S106.4 0 78.8 0H28.5l-2.9 4.1c-5.1 7.2-10.3 7-15.5-.7C8.1.5 7.2 0 3.9 0H0zM378.5 3.7c-1.7 9.4-10.5 22.3-24.9 36.7-16.8 16.8-28.3 25-56.8 40-8 4.3-15.9 9.1-17.4 10.7-5.3 5.5-2.9 13.7 9.4 31.9 23 34 49.8 53.8 84.2 62 16.5 3.9 26.4 2.1 29.4-5.3 1.5-3.6 3.2-15 4.2-27.7.3-4.7.8-8.7 1-8.9 1.4-1.4 4.6 5 8.3 16.4 7.2 22.1 10 24.9 24.6 24.8 20-.1 53.7-13.8 68.3-27.6l3.2-3.1V49.2l-4.7-.7c-8.5-1.2-28.5-6.3-37.8-9.5-20.5-7.2-46.4-22.2-57.9-33.4L405.9 0h-26.7zm-305.3 210c-7.7 6.8-23.2 30.7-27.8 42.9-6 16.1-4.8 29.4 4.6 49.8 1.8 3.7 3 6.9 2.8 7.1s-5.1-4.2-10.9-9.8c-12.2-11.8-18.4-15.8-31.7-20.3l-9.7-3.2-.3 24.1C-.1 328 0 328.5 2.1 330c1.1.8 6.9 4.4 12.7 8 11.5 7.1 13.3 9 11.6 11.7-1.6 2.6-9.8 7-18.4 9.7l-7.5 2.4-.3 8.7c-.2 6.8 0 8.6 1 8.2 5.7-2.4 18.7-5.9 24.8-6.6 11.3-1.4 14.3.6 12.3 8.1l-1 3.8h61.3c33.8 0 61.4-.4 61.4-.8 0-1.1-10.6-11.5-14.9-14.7-1.9-1.3-5.5-3.2-8-4.2-4.9-1.8-7.1-3.1-7.1-4.3 0-.4 4.8-1.5 10.8-2.4 18.1-2.9 32.2-8.2 45.4-17 7-4.6 20.6-16.5 27.2-23.7 2.7-3 11.7-12.2 19.9-20.5 12.8-13 14.8-15.5 14.2-17.4l-.7-2.2-40.7.5c-43.7.6-49.6 1.1-65.6 6.4-10.6 3.4-18 7.2-29.8 15-5.4 3.6-10 6.3-10.3 6s.7-2.9 2.1-5.7c4.9-9.6 4.6-21.3-1-37-5.4-15.3-21.5-48.4-24-49.4-2.2-.8-2-.9-4.3 1.1m362.4 14.7c-1.8 1.8-4.9 6.7-7 10.7-5.6 10.6-4.8 10.2-12.4 6.9-10.2-4.3-38.9-13.8-46.6-15.5-7.6-1.5-9.5-1.1-12.1 2.9-1.9 2.8-4.9 16.8-6.5 29.6-.7 5.2-1.4 10.4-1.6 11.6-.4 2.1-1 2.1-24.1 2.7-32 .7-46.6 3.4-51.3 9.5-6 7.5 1.6 19.9 28.7 46.8 7.9 7.8 14.3 14.8 14.3 15.4 0 .7-2.1 3.8-4.7 6.8-6.2 7.1-14.4 17.3-19.6 24.4l-2.9 3.8H512v-67.4c0-60-.2-67.6-1.6-69-.8-.9-2.3-1.6-3.3-1.6-2.9 0-17.2 3.8-23 6.2l-5.4 2.2-2.6-3.5c-5-6.5-11.5-13-18-17.8-12.7-9.4-17.3-10.3-22.5-4.7"/></svg>