<svg xmlns="http://www.w3.org/2000/svg" width="682.667" height="512" version="1.0" viewBox="0 0 512 384"><path d="M1 .9c0 .5.7 2.8 1.5 5.1 2.2 6.1 1.9 13.8-.5 17.5-1.9 2.9-2 4.9-2 90.3v87.3l2.3-.6c3.1-1 20.3-10.2 25.4-13.6 2.3-1.6 4.6-2.9 5.1-2.9s3.3 3.2 6.2 7c6.9 9.4 26 29.1 31.7 32.9 7.9 5.2 12.8 3.6 16.8-5.4 2.7-6 6.2-25.7 7.1-40.3.4-5.6 1.2-10.6 1.8-11.1.6-.6 10.1-1.1 21-1.3 19.4-.3 19.8-.3 21.7-2.7 1-1.3 1.9-3.6 1.9-5.1 0-5.3-10-40.1-14.4-50.2-1.2-2.6 2.5-5.5 8.7-6.8 3-.7 7.9-2.4 10.8-3.9 5.1-2.5 5.4-2.8 5.3-6.2-.1-5.2-6.1-13.7-17.7-25.2-6.3-6.3-9.7-10.3-9.3-11.2.3-.8 2.7-4.8 5.4-8.7 8.5-12.6 9.7-16.6 5.7-18.2-2.2-.8-30.2-6.4-36.2-7.2l-5.3-.7v-5.6c0-8.3-1.6-13-4.6-13.7-3.5-.9-21.8 1.3-31 3.6-8.2 2.1-13 4.7-23.8 12.9-4.1 3.1-7.6 5.1-8.9 4.9-3.5-.5-7.6-6.9-9.5-14.6L14.5 0H7.8C4 0 1 .4 1 .9m380.2.3c6.4 17.1 7.9 23.3 7.9 31.1 0 9.7-2.1 17-8.6 29.8-11.1 21.8-28.2 43-48 59.4-3.3 2.7-9.5 8.4-13.7 12.5-6.8 6.6-7.8 8.1-7.8 11.1 0 11.4 30 38.8 57.5 52.4 19.9 9.9 39 14.1 60.3 13.3 13-.5 17.9-2.1 21.6-7.1 2.5-3.4 2.6-12 .1-28.7-.9-6.1-1.4-11.4-1.1-11.7 1.1-1.2 3.5.7 6.5 5.2 1.7 2.5 3.1 4.8 3.1 5.1 0 1.2 9.5 15.2 12.3 18.2 4.2 4.3 9.1 5.6 16.6 4.2 3.2-.6 7.2-1.7 8.7-2.4 1.6-.8 5.7-2.6 9.2-4.1l6.2-2.8V48h-10.2c-23.3-.1-51.9-6.7-73.5-17.1-11.2-5.3-18.9-12.6-24.2-22.9l-4.2-8h-9.6c-7.2 0-9.4.3-9.1 1.2M95.2 241c-16.4 12.4-33.1 32.7-36.9 45.1-2.2 7.1-2.1 21.1.1 31.7 2 9.5 1.7 11.9-.9 7.7-8.7-14-15.4-23.1-20.4-27.7-6.9-6.2-19.5-13.5-29.8-17.2L0 278v45.5l2.9 4.4c1.6 2.4 7.4 8.7 12.9 14 12 11.7 13 13.3 10.1 16-2.6 2.4-13.2 5.1-20.4 5.1H0v16.5l9.9-.3c10.9-.4 20.9 1.2 21.8 3.4.4 1.2 12.1 1.4 77.8 1.4h77.2l7.9-3.9c8.7-4.4 17.4-9.7 34.9-21.4 6.4-4.2 14.9-9.6 19-12 6.8-3.8 7.5-4.5 7.5-7.4 0-1.7-.4-3.4-.9-3.8-.6-.3-6.3-1.6-12.8-3-6.5-1.3-16.7-3.6-22.8-5-28.9-6.8-39.9-8.5-56.3-8.6-14.3-.1-26.7 2-39.6 6.6-5.4 1.9-10.1 3.7-10.4 3.9-.3.3-1.1.1-1.8-.5-1.1-.9-.9-1.7 1.1-4.3 6.6-8.6 8.7-20.6 6.6-36.7-.6-4.7-3.1-17.6-5.5-28.8-4.2-19.6-6-24.1-9.2-24.1-.7 0-4.9 2.7-9.2 6m317.6 5.9c-1.4 1.6-3.4 6.5-4.7 11.2-2.9 10.8-4.2 13.4-6.7 13.2-1-.1-6.6-.8-12.4-1.7-23-3.2-42.4-4.4-47.8-3-4 1.1-5.2 5.2-5.2 17.6 0 6.2.5 15.1 1 19.7 1.4 12.6 1.6 12.4-9.8 14.5-23.5 4.3-52.2 14.7-58.2 21.1-2.4 2.5-3 8.9-1.2 12 3.1 5.6 15.5 15.8 32.4 26.8l8.8 5.7h203v-82.2l-3.2.3q-3.3.3-3-.9c.1-.7.3-4.1.3-7.5.1-6.8-1.1-10.7-6.3-21.2-1.9-3.9-4.5-9.5-5.7-12.6-3-7.6-5.4-10.1-8.9-9.3-3.4.7-15.4 6.8-20.9 10.5-2.3 1.6-4.6 2.9-5.1 2.9-.4 0-2.6-1.5-4.8-3.3-9.4-8.1-27.8-16.7-35.3-16.7-3.1 0-4.4.6-6.3 2.9M218.4 379.8c-.6.4-1.3 1.5-1.7 2.4-.5 1.5-.1 1.8 2.7 1.8 3.4 0 4-1 2.3-3.8-.9-1.4-1.7-1.5-3.3-.4"/></svg>