<svg xmlns="http://www.w3.org/2000/svg" width="682.667" height="512" version="1.0" viewBox="0 0 512 384"><path d="M5.1 6.7C6.1 10.5 7 15 7 16.8c0 4.3-2.4 9.8-4.9 11.4C0 29.5 0 29.6 0 114.7c0 46.9.3 85.3.8 85.3.4 0 5.8-2.7 12.1-6s11.8-6 12.2-6c.5 0 1.5 1.5 2.4 3.2 3.9 8.3 23.6 32.3 31.3 38.3 10.8 8.5 16.6 5.1 21.9-12.9 2.1-7.1 6.3-29.3 6.3-33.6 0-5.6 2-8.5 5.5-8.2 1.7.1 10.7.5 20.1.8 17 .7 17.1.7 19.2-1.6 1.6-1.7 2.2-3.6 2.2-6.8 0-4.9-5.8-32.2-8.9-42.2-3.4-10.8-3.7-10.4 10.9-14 10.8-2.7 13-4.1 13-8.2 0-5.7-9.5-20.1-19.9-30.3-2.8-2.7-5.1-5.6-5.1-6.5 0-.8 3.4-6 7.5-11.5 7.4-9.8 8.8-13.2 6.3-15.3-1.6-1.3-36-10.2-39.4-10.2-2.4 0-2.4-.1-2.4-8.9C96 8.8 95.4 8 86.2 8 77.3 8 61.4 9.7 57 11.2c-7.6 2.4-9.3 3.2-17.7 8.9-4.9 3.2-9.8 5.9-11 5.9C23.7 26 18.1 13.4 18 2.7V0H3.1zm374.3-3.5c.7 1.8 3.7 8.6 6.5 15.2 9.6 22.3 9.3 31.6-2.3 56.9-10.5 23-21.2 37.1-49.8 65.6-14.4 14.5-15.1 16.3-9.2 24.8 10.8 15.7 47.6 39.9 70.4 46.3 22.5 6.2 52.9 6.7 64.3.8 4.3-2.2 6.7-6.6 6.7-12.4 0-2-1.1-9.1-2.4-15.8-3.6-18.3-3.6-17.7-1.8-17.4 1.6.3 4.6 3.9 15.5 18.7 8.4 11.4 10.2 12.6 18.5 12.5 4.5-.1 8.2-.9 11.5-2.3l4.7-2.2V49.3l-6.9.5c-16.5 1.1-47.9-3.7-67.1-10.3-20.5-7.2-29.4-15.3-38.2-34.7L397.6 0H378zm-272.5 242c-12.2 7-31 24.3-38.2 35.1-7.2 10.9-9.5 22.2-7.7 38.1.6 5.5 1.4 11.2 1.7 12.6.5 2.2.4 2.3-1 1-.8-.8-3.4-5.1-5.7-9.5-9.4-17.4-16.6-25.5-30.6-34C19 284.7 2.5 277 .6 277c-.3 0-.6 9.4-.6 20.8v20.9l3 6c1.7 3.3 6 9.5 9.8 13.7 13 14.9 15.2 17.7 15.2 19.5 0 2.9-7.2 5.2-18.2 5.8l-9.8.6v15.4l10.2.6c5.7.3 12.6 1.3 15.3 2.1 4.4 1.4 16.6 1.6 100.2 1.6h95.1l2.2-3.5c2.7-4.4 8.2-8.2 22.3-15.4 10.9-5.5 11.2-5.8 11.5-9.3l.3-3.5-12.8-3.7c-15.7-4.5-16.6-4.8-27.8-8.1-29.7-8.8-48.8-12.2-63.9-11.2-9.6.7-25.4 3.7-32.1 6.1-8.1 3-9.3 1.8-4.5-4.3 8.6-10.7 9.8-24.5 5.1-57.6-4.8-33.3-4.9-33.6-14.2-28.3m300.8 6.8c-2.9 2.3-5.1 8.2-6.8 18.2-.6 3.7-1.7 7.2-2.4 7.8-.9.7-3.9.7-10.1.1-14.6-1.7-48.4-1.8-52-.3-3.8 1.6-5.4 4.8-5.4 10.5 0 5.4 2.8 28.1 3.9 32.4 1.5 5.2.5 7-4.7 8.3-8.2 2-32.3 10.1-41.1 13.8-10.5 4.4-20.2 10.8-21.9 14.5-3.1 6.4 1.7 13.6 14.6 22.5l6.3 4.2H512v-41.6c0-35.7-.2-41.5-1.4-41.1-.8.3-3.1.9-5 1.3l-3.6.6v-7.1c0-7.4-1.6-12.7-5.6-19.2-1.3-2.1-4.4-7.7-6.9-12.7-5.9-11.6-7.2-12.8-12-11.2-3 1-13.8 7.8-23 14.4-.9.7-2.9-.3-6.6-2.9-9.5-6.8-28.4-14.5-35.7-14.5-1 0-3.1.9-4.5 2"/></svg>