<svg xmlns="http://www.w3.org/2000/svg" width="682.667" height="512" version="1.0" viewBox="0 0 512 384"><path d="M7 1.4c0 .8.7 4.8 1.6 8.8.9 4.3 1.3 9.1.9 11.5C8.8 26.6 4.8 32 1.9 32 0 32 0 34 0 115.5c0 45.9.2 83.5.4 83.5s3.8-1.6 8-3.6c7.1-3.3 9.6-3.6 9.6-1.3 0 1.6 13.1 21.9 19.8 30.6 12.1 15.9 19.1 19.5 25.3 13 4.7-4.9 10.1-20.2 14.4-40.2 1.4-6.6 3.2-12.6 4-13.4 1.2-1.2 2.9-1.2 12.2.3 5.9.9 14.9 1.9 19.9 2.2l9.1.7 2.1-3.1c1.2-1.6 2.2-4.3 2.2-5.9 0-4.7-3.7-29.8-6.1-40.9-2.7-12.6-2.7-12.6 8.1-14.3 14.1-2.3 17-3.9 17-9.1s-12.9-26.1-20.4-32.9c-1.9-1.8-2.4-3-2-4.5.7-2 5.2-7.8 11.9-15.4 4.1-4.7 4.8-6 4.1-8.7-.5-2-2.9-3-18.3-8-9.8-3.1-18.9-6-20.3-6.4-2.4-.8-2.5-1.1-2.2-8.1.4-10.2-.1-11.7-4.6-12.9-4.7-1.4-17.1-1.4-28.6-.1-9.1 1.1-15.8 3.7-28.7 11.1-5.6 3.2-5.7 3.2-8.4 1.5-4-2.7-5.7-7.9-6.3-19.4L21.7 0h-7.3C8.6 0 7 .3 7 1.4m368 1.1c.5 1.3 2.7 5.7 4.8 9.7 14 26 16.3 32.1 16.3 42.8.1 8.9-.9 13.6-5.6 26.4-3.8 10.7-10.1 23.6-16.6 34.2-3.9 6.5-12.9 18.7-15.4 20.9-.6.5-1.8 2.1-2.8 3.4-.9 1.4-5.1 6.3-9.4 10.9-17.2 18.7-17.5 21.1-4.6 33.3 16.9 15.9 45.3 31 68.7 36.4 16.4 3.8 41.8 3.5 55.8-.6 7.3-2.1 12.3-6 13.4-10.3.7-3-1.2-13.8-5-27.6-3-11.2-3-11-1.2-11 1.5 0 2.5 1.1 15.1 16.4 8.6 10.4 13.8 14 19.7 13.4l3.3-.3.3-74.5.2-74.5h-20.2c-22.7-.1-35.3-1.7-52.3-6.7-21.5-6.4-29.7-13.7-42-37.6L393.8 0H374zM118.5 251.3c-1.1.5-2.7 1.4-3.5 1.9-.8.4-2.6 1.3-4 1.9-2.5 1.1-19.4 13.2-22.1 15.8-.8.9-2.8 2.7-4.5 4.1-1.6 1.4-5.5 5.5-8.6 9.1-9.3 11-12.5 23.2-11.4 42.8.7 13.2.7 13.2-5.9-1.4-7.3-16.2-13.2-23.7-26.5-33.7-7.6-5.8-22.9-13.6-28.2-14.5l-3.8-.6v14.6c0 12.4.4 15.7 2.4 22.8 4.4 15.1 5.5 16.9 22.1 38.3 2.8 3.6 4.5 6.7 4.3 8-.4 3-6.4 4.4-18.5 4.5L0 365v16h4.8c2.6 0 7.8.7 11.7 1.5 5.9 1.3 23.4 1.5 115.4 1.5 104.5 0 108.5-.1 112.5-1.9 2.3-1.1 5.7-2.6 7.7-3.5 4.8-2.1 6.1-3.8 5.3-7-.5-2.2-2-3-11.4-6.1-6-2-14.4-5.3-18.7-7.4s-9.6-4.1-11.8-4.5-9.2-2.5-15.5-4.7c-6.3-2.1-17.3-5-24.5-6.5-11.4-2.3-14.6-2.6-26-2.1-7.8.3-16.5 1.4-21.8 2.6-4.8 1.2-9.4 2.1-10.2 2.1-2.5 0-1.7-3 2-7.3 6.3-7.4 7.8-13.1 8.3-31 .2-10-.2-22.6-1.3-34-1.5-16.1-1.9-18.4-3.8-20.4-1.8-1.7-2.6-1.9-4.2-1m350 5.7c-2.2 1.1-8 5.1-12.8 8.9l-8.8 6.9-4.5-3c-6.8-4.6-19-9.5-28.2-11.3-13.6-2.8-16.1-.6-18.6 16.3-.8 5.6-1.8 10.7-2.1 11.2-.4.6-8.6 1-20.8 1-21.9.1-37.9 1.2-42.1 3.1-5.3 2.5-5.2 12.7.4 36.3 1.1 4.5 2 9.3 2 10.7 0 2.8-.8 3.2-13 7.3-20 6.6-47.3 20.9-51.6 27-1.7 2.5-1.9 9.7-.2 11.4.9.9 29.5 1.2 122.5 1.2H512v-42c0-34.3-.2-42-1.3-42-.8 0-1.7.3-2.1.7-.8.8-7.7 3.3-9.2 3.3-.7 0-1.3-2.8-1.6-6.9-.6-7.5-1.5-9.5-12.6-27.5-6.9-11.2-9.6-14.6-11.4-14.6-.7 0-3.1.9-5.3 2"/></svg>