<svg xmlns="http://www.w3.org/2000/svg" width="682.667" height="512" version="1.0" viewBox="0 0 512 384"><path d="M11.5 1c-.4.6-.1 5.6.5 11 1.9 14.8-.7 21.8-8.7 23.5l-3.3.7v81c0 80.6 0 81 2 80.4 1.1-.3 2.9-.9 3.9-1.2 1.6-.5 2.6.8 6.1 7.8 11 21.9 21.6 36.9 29.8 42.5 2.1 1.4 2.6 1.4 6-.1 2-.9 4.9-3.4 6.3-5.4 4.2-5.9 11.8-26.1 16.1-42.7 1.9-7.2 3-7.6 12.8-5.4 13.2 2.9 28 5.1 30.4 4.5 1.3-.3 3.1-2.1 4.1-4 1.8-3.3 1.8-4.4.6-20.8-.7-9.5-1.9-21-2.7-25.5-2-11.8-2.1-11.7 11.1-12.7 18.6-1.5 19.8-5.2 8.8-25.6-3.3-6.2-10.7-16.8-12.5-18.1-1.7-1.2 1.2-5.6 9.1-13.9 8.8-9.2 10.1-12.6 5.9-14.8s-22.2-9.4-30.1-12l-7.8-2.7.7-6c1.1-9.5.9-12.6-1-14.1-2.2-1.6-14-2.8-27.6-2.8-11.8 0-16.5 1.2-29.3 7.6-4.4 2.2-8.9 3.8-10 3.6-1.5-.2-3-1.9-4.6-5.1-2.1-4.3-2.4-6.3-2.5-17.5L25.5.5 18.8.2c-4.1-.2-6.9.1-7.3.8M369 .6c0 1.1 9.5 18 18.5 32.9 5 8.2 9.9 17.7 11 21 4.3 13.9.9 33.6-10.5 59.5-7.3 16.6-13.3 26-31 49-10.7 13.8-13.2 18.4-12.3 22.1 3.2 12.7 44.4 35.9 75.7 42.5 23.8 5 58.9.9 69.3-8.1 3.6-3.1 3.8-3.6 3.7-9.1 0-4.3-1.3-9.7-4.7-19.6-5.5-16-5.7-17.4-2.4-15.7 1.2.6 3.2 2.3 4.5 3.8 8.5 9.5 17 18.4 19 19.7l2.2 1.4V52.8l-2.7.6c-1.6.4-11.1.9-21.3 1.3-36.3 1.1-61.8-4.8-74.3-17.4-6-5.9-16.5-21.5-20.7-30.6L389.8 0h-10.4c-5.7 0-10.4.3-10.4.6m-246 261c-11 5.1-30.2 17.9-37.5 25-13.4 13.1-16.4 20.3-17.4 42.4-.7 16.4-.3 16.4-7.1-1-2.3-5.8-5.9-13.2-8-16.5-6.8-10.5-19.3-21.3-33.4-29-8.6-4.7-11.6-5.4-13.4-3.2-3.5 4.1-1.5 31.9 3.3 46.4 2.7 8.1 3.7 9.9 14.9 26.2 6.7 9.8 6.9 12 1.1 13.9-3.9 1.4-20.2 1-24-.4-1.3-.5-1.5.6-1.5 7.8v8.4l10.3 1.3c7.7.9 37.8 1.1 125.2.9l115-.3-6.8-2.3c-10.1-3.3-19.5-8.2-22.4-11.6-2.4-2.8-2.5-3.4-1.8-11.1.5-6.7.4-8.4-.9-9.4-3.1-2.6-4.6-.6-4.6 5.9 0 11.5-2.2 12.2-18.2 6-27.2-10.4-46.3-12.3-74.5-7.3-2.7.4-3.3.2-3.3-1.3 0-1 1-2.8 2.3-3.9 10.9-9.8 14.1-26.9 12.8-67.2-.5-16.5-.8-18.4-2.6-20.3l-2-2zm335.9.4c-2.4 1.6-7.5 5.8-11.3 9.4l-6.9 6.4-7.7-3.9c-8.9-4.4-19-7.4-28.4-8.4-11-1.2-14.2 2.7-15.3 18.4-.8 11.6-1.1 12.1-8.1 12.1-6.2 0-32.7 2.5-43.2 4-11.3 1.7-13.7 2.7-14.9 6.2-1.7 4.8-1.4 7.1 3 23.8 5.4 20.2 5.6 21.8 3.3 23.5-1.1.8-2.5 1.5-3.1 1.5-1.2 0-9 3.4-20.3 8.8-8.3 4-24 13.1-28.9 16.8l-4.4 3.4H512v-87.2l-3.2 2.1c-2.8 1.8-13.4 7.1-14.3 7.1-.2 0-.6-2.4-1-5.3-1-7.3-4.2-14.1-11.9-24.4-3.6-4.8-7.9-10.7-9.7-13.1-3.9-5.2-6.7-5.5-13-1.2"/></svg>