<svg xmlns="http://www.w3.org/2000/svg" width="682.667" height="512" version="1.0" viewBox="0 0 512 384"><path d="M351.9 17.6c-5.2 2.7-6.4 5.1-6.4 12.3 0 5.8.4 7.4 3.5 12.6 4.3 7.4 28.2 31.5 40 40.4 4.7 3.5 11.2 8.5 14.5 11 19.9 15.1 25 24.6 27.5 52.2 2.2 24.3-.4 41.9-12.4 83.9-4.5 15.7-4.3 17.6 2.8 22.4 10.5 7.1 34.4 11.1 61.1 10.3 9.4-.3 19.7-1.2 23-1.9l6-1.4.3-93.7.2-93.7-5.7 2.6c-10.8 4.8-21.8 8.5-34.3 11.6-10.6 2.7-14.5 3.2-25.5 3.2l-13.1.1-7.4-3.7c-18.6-9.1-38.4-27.1-45.8-41.6-2.2-4.2-5.1-10.9-6.6-14.9-3.6-9.6-7.7-13.3-14.4-13.2-2.6.1-5.9.7-7.3 1.5M36.6 30.8c-.4.6-1.5 4.6-2.6 8.8-2.9 11.2-5.5 15.9-10.4 18.5l-4.2 2.2-8.4-3.7c-4.7-2.1-9.1-4-9.7-4.3C.3 51.9 0 72.9 0 155.6l.1 103.9 4.9-5.3c2.7-2.9 8-9.3 11.6-14.2 3.7-4.9 7.5-9.2 8.6-9.6 1.2-.3 3.2.5 5.6 2.4 5.9 4.7 23.4 15.5 27.2 16.8 6.6 2.3 10.5-2.2 15-17.1 5.3-17.7 6.9-23.4 8.1-29.3 2-9.4 2.6-9.7 14.7-6.7 13.2 3.3 14.8 3.2 16.7-.5 2.3-4.5 1.9-16.7-1-29.5-2.8-12.4-3-14.8-1.2-16.2.6-.6 5.6-2.9 11-5.3 5.3-2.3 9.9-4.5 10.1-4.9.2-.3.6-1.9 1-3.4.8-3.2 1.8-2-18.1-20.9-6.5-6.2-10.3-10.5-10.3-11.8 0-1.1 1.1-3.8 2.5-5.9s2.8-5.4 3.1-7.3c.6-3.1.2-3.8-2.7-6.1-4.3-3.2-24.8-12.2-31.4-13.7-3.3-.8-9.3-1-17.5-.5-12.1.6-12.7.5-14.5-1.6-3-3.3-2.4-10 2-20.5 5-12.1 5.3-13.8 2.4-15.8-3.1-2-10.4-3.1-11.3-1.8m385.8 257.3c-3 1.1-6.4 5.9-11.4 15.9-2.3 4.7-4.8 8.9-5.4 9.3s-4.5.5-8.7.2c-13.5-1.1-32.9 2.4-36.8 6.7-3.3 3.5-3.4 7-.5 17.2 1.4 5.2 2.4 10.5 2.1 11.8-.5 1.7-2.4 3.1-7.4 5.2-3.7 1.6-10.8 5-15.8 7.6-4.9 2.6-12.8 6.7-17.5 9.1-8.7 4.4-14 8.7-14 11.4 0 1.3 11.8 1.5 102.5 1.5H512v-14.5c0-12.9-.3-15.6-3-25.3-1.6-6-4.2-13.4-5.8-16.5-3.7-7-14.1-21.6-16.7-23.3-2.9-1.9-5.7-.8-8.5 3.4-3.7 5.4-10.1 12.2-11.5 12.2-.8 0-2.3-1.7-3.6-3.8-3.7-6.3-9-11.1-17.9-16.4-4.7-2.8-10.1-6.4-12.1-7.9-4.7-3.7-7.9-4.8-10.5-3.8m-374.2 4.7c-3.3 1.1-10.1 20-12.8 35.6-1.9 10.9-1.5 18.5 1.9 32.1 2.3 8.9 3.1 14.5 2.8 18.1-.4 5-18.1-1.1-33.6-11.5l-6-4.1-.3 9.2c-.1 5-.1 9.7.2 10.5.4 1.1 13.8 1.3 73.4 1.3h72.9l2.5-3.8c4-6.1 17.1-38.5 22.1-54.2.2-.8-.2-2.8-1-4.4l-1.5-2.9-9.8.6c-14.2.9-34.2 6-45.4 11.6-11.9 6-18.3 13.3-25.2 29.1-2.7 6-5.2 11-5.6 11-.5 0-.8-4.5-.8-9.9 0-20-3-31.3-12.6-47.2-5.2-8.6-15.3-20.4-18.1-21.1-1-.3-2.4-.3-3.1 0m150.1 10.9c-1.9.7-1.6 4.4 1.3 13 6 18.6 7.6 26.1 7.1 35.7-.2 5-1.2 11.7-2.2 14.8-1.6 5-1.6 6.3-.6 9.6 1.7 5 3.8 6.2 12.1 6.9 6.2.5 6.8.4 7.4-1.5 1.3-3.9 8.6-3.6 8.6.4 0 1.1 3.5 1.4 18.5 1.4 12.8 0 18.5-.3 18.5-1.1 0-.6-.7-3.8-1.6-7.2-1-3.8-1.3-7.7-.9-10.6.7-4.9-1.6-17.4-4.1-22.3-3-5.9-11.6-10-17.8-8.4-6.8 1.7-14.6 13-14.6 21.2 0 6.4-2.4 6.6-8.1.4-8.1-8.7-11.8-18.6-16.9-45.3-.8-3.7-1.8-6-3-6.7-1-.6-2-1-2.2-.9-.2 0-.9.3-1.5.6"/></svg>