<svg xmlns="http://www.w3.org/2000/svg" width="682.667" height="512" version="1.0" viewBox="0 0 512 384"><path d="M356.1 32.7c-3.9.8-10.1 5.2-11.1 7.9-2 5.2-1.2 10.7 2.4 16.7 8 13.2 23.3 26.1 55.6 46.8 8 5.1 16.9 11.5 19.8 14.3 11.9 11.2 18.1 33.5 18.2 65.1 0 17.1-1 25.9-5.7 48.5-4.3 21-4.5 25.1-1.2 28.7 6.5 7.1 21.8 9.8 51.3 9 11.6-.3 22.3-.9 23.9-1.3l2.7-.6v-94.9c0-52.2-.1-94.9-.3-94.9s-4.2 1.9-8.8 4.3c-11.1 5.7-24.2 10.9-36.4 14.3-8.3 2.3-12 2.8-21.5 2.9-11.2 0-11.7-.1-19-3.6-12-5.7-26-14.8-32.9-21.3-8.2-7.9-12.9-14.2-18.1-24.7-5.4-10.8-8.4-14.8-12.6-16.5-1.8-.8-3.5-1.3-3.6-1.3-.2.1-1.4.4-2.7.6M42.2 39.3c-.6.7-2.5 5.3-4.3 10.2-2.3 6.5-4.3 10.1-6.9 12.7-5.2 5.3-8.9 5.2-18.9-.6-4.2-2.4-8.6-4.8-9.8-5.5L0 54.9v196.6l6.9-7.3c7-7.4 8.9-8.4 11.2-5.5 1.4 1.6 20.7 16.1 26.1 19.6 9.2 5.8 13.3-.6 29.5-47.1.8-2.4 2.2-4.6 2.9-4.9.8-.3 4 .4 7.2 1.5 3.1 1.1 8.3 2.7 11.5 3.6 5.5 1.4 6 1.3 7.7-.4 4.3-4.3 5-14.7 2.3-32.8-2-13.7-2.2-13.4 11.2-18.1 15.8-5.7 16.2-7.9 4.3-21.2-4.6-5.1-10.3-11.3-12.7-13.8-5.3-5.5-5.5-7.8-1.3-14.5 3.6-5.6 4.1-9.5 1.5-11.9-3.1-2.7-16.8-10.4-25.4-14.2-8-3.5-9.1-3.8-22.4-4.4l-14-.6-1.3-2.8c-2.1-4.4-.7-10.3 4.9-21.2 5.5-10.7 5.6-12.9.6-15-5.8-2.3-7.4-2.6-8.5-1.2m368.4 259.6c-1.5 1.5-4.5 7-6.7 12.2-2.1 5.2-4.3 10.1-4.8 10.9-.6 1.1-3.7 1.7-12.2 2.2-11.7.8-26.7 4.3-31.4 7.4-5.2 3.4-5.3 8.9-.1 22.6 2.1 5.6 2.4 7.2 1.4 9.3-.6 1.4-1.4 2.5-1.8 2.5-.7 0-16.7 9.1-22.6 12.9-2.3 1.4-5 3.1-6 3.8-1.5.9 18.9 1.2 91.9 1.2l93.7.1v-9.9c0-8.5-.3-10.4-2.4-14.2-1.3-2.4-3.8-8.7-5.6-13.8-3.6-10.8-6.5-16.2-12.8-24.1-14-17.4-16.3-18.2-22.5-8.2-1.9 3.1-5 7-6.7 8.7l-3.2 3-2.6-3.5c-5.3-7-10.1-10.8-19.8-15.7-5.4-2.8-11.9-6.2-14.4-7.7-5.8-3.3-8-3.3-11.4.3m-216.1 0c-.3 1.2.4 4.6 1.9 8.3 10.9 27.5 13.5 39.8 10.2 49.3-.9 2.7-1.6 6.8-1.6 9.2 0 5.3 2.1 7.4 8.7 8.8 4.7 1.1 5.5 1.9 7.3 6.7.7 2 1.6 2.8 3.4 2.8 2.3 0 2.4-.2 1.3-3.5-2.4-7.9 4-11.7 7.5-4.5.9 1.9 1.7 4.5 1.8 5.7 0 2.3 0 2.3 17.5 2.3H270v-7.5c0-4.5-.6-9-1.5-11.2s-1.5-6.8-1.5-12.1c0-23.8-12.2-36.4-26.3-27.1-6 3.9-10.2 12-9.4 17.9.7 5.1-.1 8-2.1 8-2.4 0-11.8-8.6-14.5-13.3-2.2-3.7-9-23.2-12.9-36.7-1.1-3.7-1.8-4.6-4-4.8-1.9-.2-2.8.2-3.3 1.7m-140 2.9c-3.4 5.1-9.8 21-12 29.7-2.6 10.3-2.7 22-.3 35.5 1.5 8.6 1.8 12.2 1 14.2l-1 2.8h115.5l8-16.8c14.1-29.3 13.6-27.9 10.6-32.1-1.6-2.4-1.7-2.4-14.7-1.8-15.3.8-27.4 2.7-37.6 6.2-15.1 5.1-23.6 13.2-33 31.3-1.7 3.4-3.7 6.5-4.2 6.8q-1.05.75-.3-13.2c.8-16.4-.5-24.5-6.2-38.1-3.8-9.1-12.9-23.5-16.6-26.5-3.6-2.9-6.4-2.2-9.2 2M0 371.9c0 9 .3 11 1.6 11.5.9.3 9 .6 18.1.6h16.5l-7.9-4c-4.3-2.2-12.3-7.4-17.7-11.5C5.1 364.4.5 361 .3 361c-.1 0-.3 4.9-.3 10.9"/></svg>