<svg xmlns="http://www.w3.org/2000/svg" width="682.667" height="512" version="1.0" viewBox="0 0 512 384"><path d="M6.6 106.1c-1.4 1.7-2.6 3.6-2.6 4.2 0 .7-.9 1.8-2 2.5-2 1.2-2 2.3-2 94.2v93l2.5 4c6.2 9.8 14.7 5.3 28-14.6 9.2-13.8 10-14.2 20.8-10 9.7 3.7 12.2 3.9 15.4 1.2l2.8-2.4-.3-17c-.4-20.2.2-22 7.3-24.8 9.7-3.7 10.6-9.6 3.7-26.4-5.2-12.8-9.7-19.5-18.7-27.6-4.2-3.7-7.8-7.8-8.1-8.9-1.3-5.1 3-10.3 11.6-14.2 3-1.4 7.1-3.2 9-4.1 4.3-2 5-2.9 5-7q0-3.3-2.4-5.7c-2.8-2.8-4.7-2.5-12.6 2-16.3 9.5-22 7.1-29.1-12.2C30 119.2 16.8 103 10.8 103c-.9 0-2.8 1.4-4.2 3.1m502.2 53.6c-3.8 7.4-6.8 12.5-9.4 16-1.3 1.7-2.4 3.5-2.4 3.9 0 1.2-7.2 9.8-12.4 14.6-10.8 10.2-28 15.1-53.1 15.2-16 .1-20.2-.7-35.7-7-11.4-4.7-15.2-5.3-19.7-3-7.7 4-8.9 15.4-2.3 22.7 8.3 9.1 34.5 10.3 84.2 3.7 23.4-3.1 30.7-1.6 46.6 9.2l7.4 5v-42.5c0-23.4-.2-42.5-.4-42.5s-1.5 2.1-2.8 4.7m-322 72c-3.2.8-2 5.1 3 11.6 7.8 10 17.5 24.9 19 29.2.8 2.2 1.8 7.2 2.3 11.2.5 4.3 1.8 9.2 3.5 12.5 3.2 6.5 2.6 5.8 6.7 6.8 2.6.5 3.9.4 5-.7 1.3-1.4 1.8-1.1 4.3 2.6 1.9 3 2.7 5.5 2.8 8.9.1 8.9-2.6 29.6-4.6 34.3-1.9 4.6-1.9 4.6.2 10.5 4.6 12.8 4.5 11.9 2.5 18.4-1 3.3-1.6 6.2-1.3 6.5s13.8.4 30.1.3l29.5-.3-5.8-8c-3.2-4.4-6.4-10-7.1-12.5s-2-6.2-3.1-8.2c-1-2.1-2.1-7.1-2.4-11.2-.6-7-.6-7.5 2-10.2 4.2-4.5 5.9-11.9 5.3-23.2-.9-15.4-2.1-22.2-4.1-22.2-1.5 0-2.6-4.2-2.6-10.4-.1-7.4-4.7-29.4-7-33.1-3-4.9-9.7-10.4-13.6-11.1-5.2-1-13 3.9-17.2 10.7-2.7 4.5-3.2 6.2-2.8 9.8.3 3.1 1.1 4.9 2.6 6.1 3.1 2.4 2.5 7.5-1 7.5-1.6 0-3.1 1.1-4.6 3.2-1.9 2.8-2.4 3.1-3.4 1.8-.7-.8-2.3-1.5-3.5-1.5-5.9 0-11.1-6.1-24.6-28.4-3.6-6.1-7-11.1-7.5-11.2s-1.7 0-2.6.3m47.7 63.8c1 6.2.1 7.7-2 3.4-1.1-2.4-1.5-4.6-1.1-6.3.9-3.7 2.4-2.4 3.1 2.9m251.8 66.7c-2.1 1-5.1 6.3-6.8 11.8-.4 1.4-1.6 4.2-2.6 6.2L475 384h17.6l3.7-6.3c2-3.5 3.7-7.5 3.7-8.9 0-5.1-8.5-9.3-13.7-6.6m-86.1 12.9c-1.2 1.2-2.2 3.1-2.2 4 0 1-.3 2.4-.6 3.3-.6 1.4 1.9 1.6 23.2 1.6l23.9-.1-6-3.1c-7.4-3.8-18.6-6.8-28.6-7.5-7-.5-7.7-.4-9.7 1.8M136 377c-1.4.4-5.2 2.1-8.5 3.8l-6 3.1 12.3.1c13.1 0 14.5-.6 10-4.7-3-2.6-4.8-3.2-7.8-2.3"/></svg>