<svg xmlns="http://www.w3.org/2000/svg" width="682.667" height="512" version="1.0" viewBox="0 0 512 384"><path d="M10.3 117.7c-3.7 4.9-5.3 6.2-8 6.3H0v194.2l2.8-1.7c3.1-2.1 12.3-11.4 16.1-16.5 8.6-11.5 10.1-11.9 21.7-6.4 8.9 4.2 12.7 4.2 15.8.1 1.7-2.3 2.2-5.3 3.1-18.5.7-8.6 1.5-16.5 1.9-17.4 1-2.1 4.1-4.2 8.8-5.7 8.5-2.8 9.6-8.8 4.7-25.1-4.4-15.1-7.3-20.1-17.6-31.2-5.5-5.9-6.6-9.5-4.3-13.8 1.4-2.6 8.3-6.5 15-8.4 11.1-3.3 13.1-5.4 11.4-12-1.3-5.3-5.5-5.8-14.1-1.6-8 3.8-14.9 4.8-19.1 2.6-3.9-2-5.1-4.3-9-17.1-3.5-11.1-8.6-20.5-14.8-27.1-5.2-5.7-8.2-5.8-12.1-.7M506.6 182c-2.6 5.5-5.9 11.6-7.2 13.6-1.3 1.9-2.4 3.9-2.4 4.5 0 .5-3.3 4.3-7.3 8.4-5.3 5.3-9.1 8.2-13.8 10.3-13.1 6-27.9 9.3-43.9 9.7-11.8.4-13.8 0-32.7-5.4-10.1-2.9-13.9-2.6-17.9 1.3-4 4-4.6 12.9-1.3 18.3 3.7 5.9 8.6 7.7 22.9 8.1 16.8.6 37.7-2.4 64.8-9.2 5.3-1.4 12.2-2.7 15.2-3.1 6.8-.8 16.8.9 23.8 4l5.2 2.4v-36.5c0-20-.1-36.4-.2-36.4-.2 0-2.5 4.5-5.2 10m-320.8 38.7c-2.4.6-2.3 4.1.1 6.7 3.8 4.1 22.1 32.5 22.1 34.3 0 1 .7 3.1 1.5 4.7.8 1.5 1.5 4.9 1.5 7.5 0 5.3 5.7 18.4 8.5 19.5 2.6.9 6 .7 7.2-.5 1.7-1.7 6.5 6.1 6.6 10.8.2 6.8-2.5 29.7-3.9 33.2-2 4.8-1.7 8.3 1.2 15.3 2.8 6.8 2.8 11.2 0 16.9-.9 1.8-1.6 5-1.6 7.1 0 2.2-.5 4.8-1 5.9-1 1.7-.7 1.9 2.3 1.9 2.6 0 3.6-.5 4-2 .3-1.1 1-2 1.5-2 .6 0 1.4.9 1.7 2 .6 1.9 1.5 2 30.8 2h30.1l-4-4.3c-4.8-4.9-12.4-14.9-14.7-19.2-2.4-4.5-6.7-18.2-7.9-25.2l-1.1-6.2 3.6-4c5.9-6.5 7.2-20.6 3.1-34.1-.8-2.5-1.4-6-1.4-7.9s-.7-4.3-1.6-5.3c-1.1-1.1-1.9-4.7-2.4-10-1.3-13.7-4.8-29.8-7.6-34.5-3.8-6.6-8.7-9.8-14.9-9.8-6.6 0-11.1 3-15.4 10.1-3.9 6.6-4.1 11.4-.6 15.6 3.7 4.3 3.1 7.3-1.5 7.9-1.6.3-3.1 1.5-4.1 3.6l-1.6 3.3-1.9-2.1c-1.2-1.3-2.7-1.9-4.1-1.6-1.3.2-2.8-.2-3.4-.9-.6-.8-1.7-1.4-2.4-1.4-1.5 0-15-20-20.8-30.8-2.1-3.9-4.4-7.1-5-7.1-.7.1-2 .3-2.9.6m49.1 68c.1 3.4-1.5 3.6-2.9.3-.8-1.9-1-4.3-.5-6.7l.8-3.8 1.3 4c.7 2.2 1.3 5 1.3 6.2m241.6 78.5c-1.1.6-2.5 1.9-3.2 2.7-1 1.4-4.3 11.6-4.3 13.4 0 .4 3.8.7 8.5.7h8.4l1.5-3.3c3.1-6.8 3-9.2-.4-12.1-3.3-2.8-7.2-3.3-10.5-1.4"/></svg>