<svg xmlns="http://www.w3.org/2000/svg" width="682.667" height="512" version="1.0" viewBox="0 0 512 384"><path d="M0 224.3c0 84.4.1 90.7 1.7 89.9 2.6-1.5 7 .3 13.5 5.3 3.3 2.6 7.3 4.9 9.2 5.2 5.6.9 7.5-2.2 12.5-19.9 2.6-9.2 5.1-16.2 6.3-17.5 1.3-1.4 3.8-2.4 6.7-2.8 11-1.5 12.7-4.3 11.7-20-1-17.5-3.3-24.8-11.6-37.6-4.4-6.8-4.7-8.6-2.5-12.8 1.7-3.4 6.4-5.8 13-6.6 15.6-1.8 17.5-2.7 17.5-8 0-2.1-.8-4.3-2.2-5.9l-2.3-2.5-9 2c-13.4 2.9-18.6 1.6-22.3-5.6-.5-1.1-1.5-6.7-2.1-12.5-1.5-15.5-7-30.4-12.7-34.9-3.7-2.9-2.6-3.3-13.1 4.5-3.1 2.2-6.4 1.2-8.6-2.8-1-1.8-2.6-4.4-3.7-5.8-1.9-2.5-2-1.8-2 88.3m185.2-27.1c-1.8 1.8-1.6 2.5 2.7 8.6 6.2 8.9 18.1 29.4 18.7 32.2.3 1.4 1 3.6 1.6 5s1.4 5.4 1.8 9 2.2 10 4 14.4l3.3 7.8 4.9-.4 4.9-.5 2.7 5.1c2.6 4.9 2.7 5.7 2.5 19-.1 12.2-.4 14.6-2.4 18.8-2.5 5.4-2.3 7.4 2.2 17.5 2.1 4.8 2.2 5.5.9 9.5-.8 2.4-2.2 5.4-3.2 6.8s-2 4.3-2.4 6.5c-.3 2.2-.7 4.2-.9 4.5-.6 1 2.1 3.8 4 4.2 1.6.2 2.1-.4 2.5-3.6.3-2.2 1-4.1 1.6-4.3 1.8-.6 4.6 4.6 4.9 9.5.2 2.5.8 4.8 1.3 5.1s1.2 2.3 1.6 4.3c.4 2.1 1.2 4.1 1.9 4.5 4 2.5 20.7 3.4 25.9 1.4 2-.8 2.9-.7 3.8.5 1 1.1 4.5 1.4 17.2 1.4h16l-3.4-3.8c-1.8-2.1-7.3-8.3-12.1-13.7-11-12.3-14.7-18.5-14-23.1.7-4-1.3-14.8-3.2-17.8-.7-1.2-1.9-4.9-2.6-8.4l-1.2-6.2 4.7-5c4.4-4.7 4.6-5.2 4.6-10.8 0-3.5-1.2-10.2-3.1-16.8-2.3-8.3-2.9-11.9-2.4-15.5.5-3.5.2-5.7-1.3-9-1.1-2.4-3-11.1-4.2-19.4-1.2-8.2-2.7-16.3-3.5-18-1.9-4.7-7.1-10.1-11.9-12.4-3.6-1.8-4.8-1.9-7.7-1-5.4 1.9-9.5 5.5-12.9 11.5-3.7 6.3-3.7 10.7 0 14.4 2.9 2.9 2.4 7.5-.9 7.5-1.3 0-3.4 1.3-4.8 2.9l-2.4 2.9-1.6-2.2c-.9-1.4-2.3-2.1-3.7-1.9-2.1.2-3.6-.6-7.5-4.5-2.2-2.2-13.5-21.7-17.8-30.9-2.6-5.6-3.6-6.8-5.5-6.8-1.3 0-2.9.5-3.6 1.2m48.4 69.7c.8 7-.6 8.2-3.2 2.8-1.3-2.8-1.4-4-.4-7.7 1.5-5.5 2.7-3.9 3.6 4.9m275-40.9c-1.5 3.9-4.1 9.1-5.7 11.5-3.3 4.8-11.6 12.7-15.7 14.8-1.5.8-6.1 3.2-10.2 5.5-14.4 7.7-29.5 11.5-44.5 11.1-5.5-.1-14.2-.3-19.3-.3l-9.3-.1-2.9 3.5c-3.9 4.6-4 10.6-.5 16.5 4.2 7.3 11.9 9 28 6 11.6-2.1 27.9-7.2 33.7-10.5 1-.6 2.2-1 2.8-1 .5 0 3.5-1.2 6.7-2.6s6.7-2.9 7.8-3.4 5.8-2.6 10.5-4.7c8.2-3.7 13.4-5.6 19.3-6.8l2.7-.5v-23c0-12.7-.1-23-.3-23s-1.6 3.2-3.1 7m-54.3 154.9c-1.8 1.2-3.3 2.3-3.3 2.6s3.7.5 8.2.5c8.2 0 8.2 0 6.3-2-3.1-3-7.4-3.4-11.2-1.1"/></svg>