<svg xmlns="http://www.w3.org/2000/svg" width="682.667" height="512" version="1.0" viewBox="0 0 512 384"><path d="M509.9 101.7c-1.2 3.8-.7 14.2 1 19.8.7 2.2 1-.6 1-10.3.1-7.2-.1-13.2-.3-13.2-.3 0-1 1.6-1.7 3.7M0 235.1v95.5l3.7 3.3c2 1.8 5.2 3.5 6.9 3.8 4.7.8 7.4-2.4 11.9-14.2 2.1-5.5 4.1-10.5 4.5-11 .4-.6 1-2.4 1.4-4 .4-1.7 1.9-4.2 3.4-5.8 2.2-2.3 3.3-2.7 8.4-2.7 10.8 0 13.4-5.5 12.5-27-.6-14.7-1.6-18.9-7.1-29.6-3.9-7.7-4.2-9.1-2.5-12.7 2.2-4.7 7.8-6.4 22.4-6.7 7.1-.1 9.4-1.5 10.2-6.3.7-4.7-2.9-8.7-7.3-8-8.3 1.3-19 1.3-21.3.1-5.5-3-6.3-5.5-7.1-22-.6-11.6-1.3-16.9-3-21.8-4.7-13.9-8-16.2-15.7-11.1-7.1 4.7-8.9 4.1-13.8-4.6C-.7 135.6 0 127.5 0 235.1m187.3-51.4c-2.3.9-1.4 4.4 2.5 10.7 6.8 10.8 16 29 16.7 33.1.4 2.2 1.1 4.4 1.5 5 .4.5 1 4 1.3 7.6.6 7 3.8 17.7 6.4 21.7 1.2 2 2.1 2.3 5.9 2l4.4-.3 2 5.3c1.1 2.9 2 6.3 2 7.5.1 1.2.7 3.3 1.5 4.7 2.3 4 2 18.6-.5 23.5-2.7 5.2-2.5 9.5.5 16.1 1.4 3 2.5 6.6 2.5 8 0 3.3-2.3 8.2-5.5 11.6-2.9 3.2-5 7.8-3.5 7.8.6 0 1 .8 1 1.8 0 2.3 3 5.2 5.3 5.2 1.1 0 1.7-1.1 1.9-3.8.2-2.3.8-3.7 1.7-3.7 2.6 0 5 5 6.1 12.5 1.4 9.5 2.4 12 5 12 1.2 0 3.8.9 5.9 1.9 2.2 1.1 4.2 1.6 4.7 1.1.5-.4 3-1.1 5.6-1.5 4.5-.7 4.8-.6 5.8 2 .5 1.4 1 4 1 5.6v2.9h20.3l20.2-.1-5.6-5.2c-8.2-7.7-20.3-22.5-24.4-30-3.6-6.6-3.6-6.6-2.4-12.5 1.4-6.6.4-13.5-3.1-21.5-1-2.3-2.1-6.4-2.5-9.1-.6-4.7-.6-5 3.6-9.2 3.9-3.9 4.2-4.7 4.2-9.6 0-3.3-1.3-9.5-3.3-15.8-2.8-9.3-3.1-11.2-2.5-17.6.6-6.1.3-7.8-1.4-11.2-1.4-2.7-2.6-8.4-3.6-17.4-.9-7.3-2.2-15.1-3-17.3-1.8-4.8-7-10.7-11.5-13-6.6-3.4-14.9.3-20.5 9.1-4.2 6.6-4.4 10.4-.9 15.5 3.3 4.8 2.9 7.3-1.3 7.7-2 .2-3.7 1.2-4.8 2.9l-1.7 2.5-1.4-2.1c-.9-1.2-2.4-2.1-3.6-2.1-3.7 0-9.6-8-17.1-23.5-4.1-8.3-8-16.5-8.7-18.3-1.2-3.1-3.3-3.9-6.7-2.5m45.7 70.5c.7 4.1.8 7.2.2 8.8-.9 2.4-1 2.4-3.2-1.9-2-4-2.1-4.8-1-8.7.7-2.4 1.6-4.4 2-4.4s1.3 2.8 2 6.2m276.8-1.4c-2 4.2-7.2 10.1-13.8 15.3-6.1 4.8-20.5 13.3-26 15.4-2.5.9-5.3 2.1-6.2 2.5-4.3 2.3-22 5-31.9 4.8-12.8-.2-17 1.1-20 5.8-3.8 6.3-1.6 14.6 5.5 19.8 5.2 3.9 20.5 2.1 35.6-4.1 7.1-3 29.2-13.9 35.5-17.6 4.8-2.8 16.9-9.4 20.8-11.4l2.7-1.4v-16.5c0-9-.1-16.4-.2-16.4-.2 0-1.1 1.7-2 3.8M261 383c0 .5 1.2 1 2.8 1 2.1 0 2.4-.2 1.2-1-2-1.3-4-1.3-4 0"/></svg>