<svg xmlns="http://www.w3.org/2000/svg" width="682.667" height="512" version="1.0" viewBox="0 0 512 384"><path d="M506.5 133.7c-7.8 4-12.6 8.3-14.8 13.1-3.3 7.7-2 11.6 12.7 36.6l7.6 13v-32.7c0-18-.1-32.7-.2-32.7-.2.1-2.5 1.3-5.3 2.7M194 147.5c-1 1.2-.6 2.9 1.8 8.7 4.9 11.7 11.2 32 11.2 35.8 0 1.9.8 5.6 1.7 8.3 1.5 4.1 1.5 5.5.5 10.7-1.1 5-1 7 .3 12.7 1.8 7.8 3.3 9.9 8.1 10.7 3.7.7 4 1.4 4.7 10.2.2 3.2 1.2 6.3 2.6 8.2 2.4 3.4 7.1 18 7.1 22 0 1.4-1 4-2.1 5.9-2.5 4-2.2 6.7 1.6 14.5 3.3 6.8 3.4 10.2.5 13.3-3 3.2-4.4 3.1-6.8-.2-3-4.1-3.8-2.1-1.3 3 1.1 2.4 2.1 5.3 2.1 6.6 0 1.2 1.1 3.2 2.3 4.5 3.8 3.8 7.7 11.2 7.7 14.5q0 3.15 3 6.3c1.7 1.7 3.4 4.3 3.7 5.7 1 3.7 1 18.2-.1 27.3l-.9 7.8h44.9l-.1-5.8c0-5.1-.5-6.3-4.5-12-11.6-16.4-13-20.4-7.9-22.7 3.4-1.5 5.6-13.1 3.9-20-1.4-5.7-1.4-8.7-.5-16.7.6-4.8.3-7-2.3-14.5-1.6-4.8-3.6-11.8-4.3-15.5-1.1-5.9-1.1-7 .3-8.5 2.7-3.2 3-7.1.9-14.8-1.7-5.9-2-9.7-1.7-19.2.2-7.9-.2-13.8-1.2-17.8-.8-3.3-1.7-12.3-2.1-20-.6-11.7-1.1-14.7-2.9-18.3-3-5.6-9.3-10.2-14.2-10.2-11 0-23.8 18.4-17.1 24.7 3.1 3 3.2 7.4.1 6.6-1.2-.3-2.9.2-4.1 1.3-2 1.8-2.1 1.7-4.2-.8-1.2-1.5-3.3-2.8-4.7-3-1.8-.2-2.8-1.2-3.5-3.3-.6-1.7-1.8-4.1-2.7-5.5-1.6-2.5-9.9-28.2-11.3-35-1.3-6.6-1.5-7-4.4-7-1.6 0-3.4.7-4.1 1.5m37.3 75.2c3.8 13.6-.6 25.6-4.6 12.9-1.7-5.3-1.7-5.5.5-10 2.4-4.9 3.4-5.6 4.1-2.9m4.7 97.4c0 .6.8 2.3 1.9 3.7 3.1 4.6 4.7 10 3.2 11.4-1 1.1-1.6.8-3-1.1-2.3-3-5.1-11.8-4.4-13.7.6-1.7 2.3-1.9 2.3-.3M.2 250.6l.3 91.7 4.2 1.4c8.1 2.7 12.3-1.7 17.6-18.1 2.8-9 3.2-11.4 3.2-21.6 0-6.3-.4-13.6-.8-16.2-1-5.6 1-10.3 5.1-11.9 3.5-1.4 11.1-.5 18.4 2.1 7.2 2.5 8.9 2.5 11.6 0 4.9-4.6 1.6-13-5-13-4.4 0-13.3-2.5-16.4-4.5-3.4-2.2-5.7-7.9-4.9-12.2.3-1.8 1.7-6.8 3.1-11.1 4.3-13.2 4.5-32.4.4-37.4-1.9-2.4-1.8-2.4-13.1.9-3 .9-5.9-2.9-7-9.2-1.2-6.5-9.1-25.9-11.7-28.8-.9-1.1-2.5-2.3-3.4-2.8C.1 159 0 163.2.2 250.6m507.3 86.3c-2.1 2.3-4.5 4.1-5.1 4.1-.7 0-1.4.4-1.6.8-1.3 3.2-16.6 10.7-30.3 14.8-11.2 3.3-15.5 7-15.5 13.2 0 5.3 1.4 8.7 4.6 11.7 2.4 2.2 3.5 2.5 10.8 2.5 6.9-.1 8.8-.5 12.8-2.8 6.7-3.8 15.3-10.2 22.6-17l6.3-5.7-.3-12.8-.3-12.8z"/></svg>