<svg xmlns="http://www.w3.org/2000/svg" width="682.667" height="512" version="1.0" viewBox="0 0 512 384"><path d="M258.7 162.5c-7.1 1.4-10 2.4-20.7 7.3-6.1 2.8-14.5 12-17.1 18.7-2 5.3-2.4 8.1-2.7 23.1-.3 16.5-.3 17.4 2.2 23.5 1.4 3.5 2.4 6.4 2.3 6.4-.1.1-3.3 1.1-7.2 2.2-5.5 1.6-7 2.4-7 3.9 0 2.8 5.4 3 12.2.4 3.1-1.1 6-1.7 6.4-1.3s1.9 4.3 3.3 8.6c5.2 15.5 9.9 19.6 30.5 26.7 12.8 4.4 20.1 4.5 29.7.4 8.7-3.8 22.7-12.8 30.6-19.7 9.5-8.3 18.6-23.9 20.8-35.4 2-11.3.7-18-5.6-27.8-1.9-3-4.5-8.5-5.8-12.2-4.2-11.7-13.2-18.2-32.7-23.7-8.3-2.3-29.6-2.9-39.2-1.1"/></svg>