<svg xmlns="http://www.w3.org/2000/svg" width="682.667" height="512" version="1.0" viewBox="0 0 512 384"><path d="M201.8 109.7c-2.1.5-2.3 3.8-.7 8 2 5.2 6.9 37.2 6 39.5-.9 2.4.4 9.7 2 11.2 1.5 1.6 1 5.7-1.2 10.4-2 4-2.1 4.9-1 11.5 1.1 6.9 1.6 7.8 5.8 10.3 1.5 1 1.8 2.3 1.6 8.5-.2 5.1.2 7.9 1.2 9.6.8 1.2 2.2 7.3 3.1 13.5.8 6.2 2.2 15.7 3 21.2 1.2 7.5 1.3 10 .4 10.6s-.9 4.8 0 18.6c1 15.2.9 19.2-.4 26.9-.8 4.9-1.8 12.6-2.2 17-.3 4.4-1.5 10.7-2.4 14-1 3.3-2.6 9.5-3.6 13.8-2 8.6-1.4 10.2 3.4 9.4 2.6-.5 3.8 2.6 2.8 6.8-.5 1.8-.2 2.7.9 3.1.8.4 1.5 1.4 1.5 2.3s1.5 3.1 3.3 4.9l3.3 3.2h11c11.3 0 13.4-.6 13.4-4.2 0-1 .9-2.7 1.9-3.7 1.6-1.6 1.8-3.1 1.6-8.6-.2-5 0-6.8 1.1-7.2.9-.3 1.2-1.3.9-2.4-.4-1-.2-2.6.3-3.6.7-1.2-.2-4.1-3.6-11.2-5.6-11.9-9.5-22.2-8.6-23 .3-.3 5-.5 10.4-.4 8.7.2 10.3-.1 13.2-2 7.2-4.9 10.1-15.7 6.9-25.4-1.1-3.4-1.2-5.1-.3-8.2 1.8-5.8 1.5-10.3-1.2-17.8-3.5-9.5-8.4-31.2-9.4-41.4-.5-4.8-1.7-10.1-2.6-11.9-2.1-4.4-2-6.3.5-8.6 1.5-1.4 2-2.7 1.6-4.9-.3-1.7.1-4.2.9-5.5.7-1.4 1.3-4.6 1.4-7.1 0-2.5.5-7.1 1.1-10.3 1.3-7.3-1.1-20.1-4.9-26.3-3.7-6-9.7-9.6-14.5-8.8-7.1 1-11.4 4.8-17.4 14.9-1.4 2.3-.7 7.4 1.3 9.7 2.1 2.3 1.7 3.2-2.2 5.1l-3.5 1.6-1.7-3.4c-1-2.2-2.5-3.7-4.2-4-1.4-.3-3-.7-3.6-.9-2.9-.9-10.4-35.3-10.4-47.7 0-2.9-.6-5.3-1.6-6.2-1.6-1.7-1.7-1.7-4.6-.9m29.6 89.7c1.1 7.9.4 9.1-5.5 9-7.2-.2-7.9-4.8-1.6-11.7 2.3-2.5 4.7-4.5 5.2-4.3.6.1 1.4 3.3 1.9 7m-2 25.8c1 3.5 2.1 10.4 2.3 15.4.4 8.1.2 9.5-1.9 13l-2.3 3.9-.8-4c-1.2-6.4-4.7-28.8-4.7-30.8 0-1.4 2.6-3.3 5-3.6.3-.1 1.4 2.7 2.4 6.1m4.6 47.7c1.2 2.4 1.3 4.1.1 4.1-.5 0-1.4-1.4-2-3-1.1-3.3.2-4.1 1.9-1.1m273-78.5c-11.7 8.6-26.2 24.6-30.1 33.1-2.3 5-2.3 12-.1 16.1 2.1 4 8.9 9.7 23.6 20.1l11.6 8.2v-40.4c0-22.3-.1-40.5-.2-40.5-.2 0-2.3 1.5-4.8 3.4M3.8 219.7l-3.8.4v119.8l2.9 1.5c1.5.8 5.5 3.8 8.7 6.6 3.3 2.8 6.9 5.3 8.2 5.6 4.9 1.3 9.8-5.7 7.2-10.5-.6-1.1-3.7-3.9-7-6.1-9.8-6.7-12.7-12.3-10.1-19.3.5-1.3 4.1-6.2 8-10.8 7.7-9.1 14.9-22.1 15.8-28.6.8-6-1.5-8.9-7.7-9.7-7.2-1-8.7-3.5-7-11.9 1.8-8.8 1.4-30.1-.6-33.2-1.6-2.4-6.4-4.6-9.3-4.3-.9.1-3.3.3-5.3.5"/></svg>