<svg xmlns="http://www.w3.org/2000/svg" width="682.667" height="512" version="1.0" viewBox="0 0 512 384"><path d="M200.5 103c-.4.6 0 3.9.9 7.3 2.9 11.6 5.7 33.9 5.1 39.8-.5 4.5-.3 6.6 1.4 10.2 2.6 5.6 2.6 5.3.1 8.4-3.7 4.8-2.1 18.6 2.7 23.1 2.3 2.1 2.4 2.6 1.8 9.7-.6 6.1-.4 8 .9 10 1.1 1.7 2.3 8.2 3.6 19.7 1.1 9.5 2.3 18.7 2.6 20.5.4 2 .1 3.9-.6 4.8-.9 1.1-1.1 5.8-.5 19.2.5 14.4.3 19.2-.9 25.1-.9 4-2 11-2.5 15.5-.6 4.5-2.8 14.5-5 22.2-4.4 15.3-4.6 15.9-3.1 15 .6-.3 1-.1 1 .4 0 .6 1.1 1.1 2.5 1.1 2.7 0 4.9 3.7 3.9 6.3-.3.8.2 2 1.1 2.7.8.7 1.5 1.8 1.5 2.5s1.8 3.1 4 5.4c3.2 3.3 4.7 4.1 7.5 4.1 1.9 0 3.5.4 3.5.9s2.1.6 4.7.3c5.4-.6 9.9-4 10.8-8.3.4-1.6 1.3-2.9 2.1-2.9 1.4 0 2-4 1.6-10.3q-.3-2.85.9-2.1c.9.5 1-.2.6-2.4-.4-1.8-.2-3.4.4-3.8 1.6-.9.5-5.2-3.5-13.4-4.1-8.4-8.6-21-8.5-23.7 0-1.4.2-1.4.6-.3 1.3 3.2 3.3 4.2 8.1 3.9 2.6-.2 7 0 9.8.4 4.3.7 5.9.5 9.2-1.2 7.1-3.6 10.9-12.7 9-21.5-1.3-5.7-1.4-11-.3-17.6.6-3.6.2-6.1-1.8-12.1-4.4-13-7.8-27.9-9.3-40.3-.9-8.1-2-13-3.4-15.3-2.5-4.3-2.5-4.8.1-7.4 1.4-1.4 1.9-2.8 1.5-4.4-.3-1.3.3-4.2 1.3-6.6 3.3-7.5 4.7-20.4 3.1-29-.7-4.1-2.1-9-3.1-11-2.1-4.3-8.9-10.6-12.4-11.5-6.2-1.5-13.4 2.4-19 10.2-3.8 5.3-4.5 9.7-2 13 2.1 2.8 1.8 3.7-2.1 5.6l-3.6 1.6-1.7-4c-1.3-3.1-2.5-4.3-5.1-5.2-2.7-.9-3.6-1.8-4.2-4.6-.5-1.9-1.3-4.3-1.8-5.3-1.1-1.9-4.5-23-5.5-34.2-1-11-1.1-11.5-4.5-11.5-1.6 0-3.2.5-3.5 1m30.4 87.1c.6 2.7 1.1 6.3 1.1 7.8 0 2.6-.4 2.9-3.6 3.3-6.8.8-9.1-.1-9.7-3.5-.4-2.8.2-3.9 4.6-8.4 2.8-2.9 5.4-5 5.8-4.7.4.2 1.2 2.7 1.8 5.5m-4 29.4c1 3.3 2.5 7.5 3.4 9.4 2.5 5 2.3 15.5-.3 18.8-2.9 3.7-2.5 7.5 1.5 15.6 2.2 4.5 3.2 7.4 2.5 8.1-1.3 1.3-4-1.2-4-3.9 0-1.2-.3-2.5-.7-2.9-2-2-4.5-11.5-6.3-23.6-3.8-26.8-3.8-28.4.2-27.8 1.6.2 2.5 1.7 3.7 6.3m10.6 70.9c2.7 5.4 3 8.6.7 9.4-1.5.5-3.9-4.9-4.8-10.7-.9-5.7.8-5.2 4.1 1.3m270.1-79.3c-8.1 7-11 10.1-18.6 19.5-10.2 12.6-15 21.8-15 28.8.1 5.8 2.1 10.2 6.5 13.9 1.7 1.3 9.3 6.1 17 10.5l14 8 .3-20.9c.1-11.5.1-30.4 0-42.1l-.3-21.2zM0 286.2c0 48.8.1 50.2 1.8 47.6 1-1.5 5.6-6.5 10.3-11C22.7 312.4 30 300.5 30 293.4c0-2.7-4.4-6.4-7.6-6.4s-6.4-3.4-6.4-6.8c0-1.5.9-5.6 2-9.2 2.6-8.1 3.8-26.6 2.1-29.9-1.8-3.2-7-5.1-14.1-5.1H0zm0 67.3c0 10.8.1 11.1 2.9 14.3 5.5 6 13.4 3.3 13.4-4.5 0-2-1.7-4.2-6.7-8.7-3.6-3.4-7.3-7.5-8.1-9.1-1.4-2.9-1.5-2.5-1.5 8"/></svg>