<svg xmlns="http://www.w3.org/2000/svg" width="682.667" height="512" version="1.0" viewBox="0 0 512 384"><path d="M202.4 86.3c-.3.8 0 3.4.5 5.8 1.7 7.6 3.1 28.9 2.8 42.6-.3 11-.7 13.6-2.1 15.2-2.1 2.3-1.7 3.8 2.5 12.3 2.4 4.8 2.9 7 2.9 13.2 0 4.1-.4 7.8-1 8.1-1.5.9-1.2 8.7.4 12.1 1.7 3.6 3.3 39.4 1.8 39.4-.7 0-1.1 4.2-1.1 10.7-.1 12.3-1.5 26.4-3 29.1-.5 1-1.7 5.6-2.6 10.3-1.6 8.3-4.2 16-9.2 27.1-2.5 5.5-2.6 5.8-.9 8.4 1 1.4 2.6 2.8 3.5 3.1 1 .2 2.6 1.9 3.6 3.6 2.9 5.1 8.7 10.7 11.1 10.7 1.2 0 2.5.7 2.8 1.5.4 1.2 1 1.4 2.5.5 1.1-.5 3.1-1 4.5-1s2.8-.5 3.1-1c.3-.6 1.5-1 2.6-1 1.4 0 2.1-.9 2.6-3 .3-1.7 1.1-3 1.9-3 .7 0 1.6-.9 1.9-2s1.1-2 1.6-2 .9-2 .9-4.4.5-4.6 1.1-4.8c1.4-.5-.9-8.2-5.3-17.3-3-6.3-3.6-11.1-1.6-11.7.7-.3 2 .4 2.9 1.5 1.4 1.8 3.2 2.4 8.2 2.6 1.5.1 1.7.6 1.2 2.9-.8 3.9 1.7 5.8 8.5 6.6 3 .3 7.3.9 9.5 1.2 5.5.7 10.2-2 14-8.1 2.6-4.2 3-5.8 3-12-.1-3.9-.7-8.5-1.4-10.2-1-2.6-1-3.8.2-7.5 1.8-5.2 1-10.7-2.7-19.5-3-7.1-5.1-18.3-7-36.1-1.1-10.9-1.7-13.9-3.6-16.4s-2-3.4-1.1-5.5c.6-1.3 1.5-2.2 2-1.8.5.3 1.2-.3 1.4-1.2.3-1.3.5-1.1.7.7.4 5.3 4.2-8.5 4.7-17.2 1.5-23.5-8.4-44.3-21-44.3-5.8 0-11.5 3.3-16 9.1-3.5 4.5-3.8 5.4-3.4 10 .3 5 .3 5.1-3.4 7.2-4.2 2.4-4.4 2.3-5.3-3.3-1.1-6.4-1.5-7.3-3.9-7.9-4.3-1.1-7.7-20.4-7.7-44.2 0-7.5-.3-9.3-1.6-9.8-2.6-1-5.4-.7-6 .7m28.4 79.1c.3.3-.1 1.3-.8 2.1-1.1 1.4-1.1 2.4.2 6.3.9 2.6 1.9 6.2 2.2 7.9.6 3.7-.3 4-6.1 2.4-2-.6-3.5-.6-3.8 0-.7 1.1-5.5.1-7.1-1.5-.6-.6-1.4-3-1.7-5.3-.5-4.1-.3-4.4 4.6-8.9 4.5-4 5.6-4.5 8.6-4 1.8.3 3.6.7 3.9 1m-11 35.7c.4 8.9 2.3 18.7 3.8 20 .8.6 2.7.9 4.4.5l3-.6v6.6c0 4.5-.6 7.7-2 10.4-2.6 5.2-2.5 6.5 1 13.5 1.6 3.3 3 6.5 3 7 0 .6-1.9 1.1-4.2 1.1-2.4 0-5.1.3-6 .8-1.4.6-1.8.1-2.1-2.6-.3-1.8-1.3-7.8-2.2-13.3-2.3-13.6-3.3-21.9-4.1-36.1-.6-11.5-.6-12.2 1.2-12.7 3.4-.8 3.9-.1 4.2 5.4m5.4 66.6c1.7 2.1 2.5 14.4.8 12.7-1.1-1.1-4-10.6-4-13.2 0-1.7 1.4-1.5 3.2.5m10.5 10.2c1.6 3.2 0 6.1-3.3 6.1-3.1 0-4-2.2-2.4-6.1 1.5-3.5 3.9-3.5 5.7 0m271.6-8.6c-13.5 16.9-27 47.1-28 62.8-.8 12.2 2.9 19.4 11.3 21.9 7.1 2.1 10.9 3 14.9 3.6 2.2.3 4.6.7 5.3.9.9.4 1.2-9.5 1.2-47 0-26.1-.1-47.5-.2-47.5-.2.1-2.2 2.4-4.5 5.3M0 326.5v38.6l2.3-1.7c4.5-3.5 7.9-8.4 8.4-12.2.5-4 .2-4.5-6.7-9.2-3.1-2.1-2.2-7.2 2.7-14.6 5.9-8.9 11.3-21.3 11.3-26.1 0-5.5-2.1-7.8-10.3-10.8C4 289.1.7 288 .5 288c-.3 0-.5 17.3-.5 38.5"/></svg>