<svg xmlns="http://www.w3.org/2000/svg" width="682.667" height="512" version="1.0" viewBox="0 0 512 384"><path d="M203 82c-.9.6-.9 2.8-.1 9.6 2 16.4 2.5 34.2 1.1 35.9-.7.8-.9 2.2-.6 3.1.4.9.1 2.3-.5 3.1-.9 1-.9 2-.1 3.7.9 2 .8 2.7-.9 3.8-2 1.3-1.9 1.4 1.6 10.3 3 7.5 3.6 10 3.4 15.5-.1 3.6-.6 7-1.1 7.7-1.1 1.4-.6 8.6 1 14.8 1.7 6.7 2.3 30.3.8 31.8-.8.8-1.5 6.1-1.9 15.2-.5 10.2-1.2 15.6-2.7 19.8-1.1 3.2-2.7 8.6-3.5 12s-3.5 10.2-6.1 15.1c-3.9 7.7-4.4 9.3-3.5 11.3.6 1.3 1.6 2.1 2.1 1.8.6-.3 1 .1 1 1s.5 1.3 1 1 1 0 1 .7c0 .8.8 2 1.8 2.9.9.8 2.8 2.9 4.2 4.6 1.5 1.8 3.4 3.1 4.5 3 1.2-.1 2.4.9 3.4 2.8s1.6 2.5 1.8 1.5c.4-1.9 5.1-4.2 5.9-2.9.4.6 1.1.6 1.8 0s1.5-.8 1.9-.5c.3.3 1.3-.8 2.1-2.5 1.8-3.4 5-5.6 6.8-4.5.8.5.9-.2.5-2.4-.4-1.7-.2-3.4.3-3.7.6-.3 1-1.5 1-2.5s.5-2 1.1-2.2c.9-.3.9-.9 0-2.5-.6-1.2-1.1-3.1-1.1-4.2 0-1.7.6-2.1 3.4-2.1 4.7 0 8 2.9 8 7.1.1 3.7 1.8 4.9 9.9 6.8 12.7 2.9 17.9.6 23.2-10.4 2-4.2 2.3-6.1 2-11.7-.2-3.7-1-7.6-1.7-8.7-1-1.6-1-2.7 0-5.5 1.7-4.7.8-12.3-2.4-19.4-3.1-6.9-4-12-5.9-32.7-.8-8.8-1.6-16.9-1.9-18-.4-1.3.4-3.2 2.4-5.5 2.6-2.9 3.2-3.3 4.1-2 .8 1.1.9.8.5-1.6-.3-1.7 0-3.6.6-4.2 1.2-1.2.1-8.9-3.7-26.7-1.3-6.1-2.7-12.4-3-14.2-.7-3.7-5.8-11-10.2-14.7-7-5.9-16-3.8-23.2 5.4-3.5 4.4-4.1 5.9-4.1 9.8 0 4.2-.3 4.9-3.1 6.4-4.9 2.9-6.9 2.4-6.9-1.6 0-5.7-1.2-9.8-3.1-10.3-3.3-.9-5-8.4-5.8-25.1-.4-8.6-.7-17.7-.7-20.1.1-4-.2-4.5-2.5-5.2-1.5-.3-3.2-.3-3.9.1m22.2 75.5c3.1 1.2 3.8 1.2 5.6-.1 2-1.4 2.2-1.4 2.2.3 0 1-.7 2.7-1.5 3.7-1.9 2.6-1.9 4.8.2 10.7 1 2.6 1.4 5.1 1.1 5.4-.4.4-2.4.1-4.5-.6s-6.2-1.3-9-1.4c-2.9 0-5.8-.6-6.5-1.3-.6-.6-1.2-4.2-1.2-7.9l-.1-6.7 4.5-1.8c5.6-2.1 5.1-2.1 9.2-.3m-7.7 30.1c0 .5-.9 5-1.9 10.1s-1.6 10-1.2 10.9c.5 1.3 2 1.5 8.9 1.3 6-.2 8.1.1 7.9 1-.1.6-.5 5.3-.8 10.4-.4 5.7-1.4 10.8-2.6 13.5-2.1 4.8-1.7 7.4 2.9 16.4 2.7 5.4 2 5.9-4.3 3.3-3.9-1.6-5.4-1.3-5.4 1.1 0 .8-.4 1.3-.8 1-1.1-.7-2.9-9.3-3.7-18.1-.4-3.9-1.3-9.9-2.1-13.5s-1.7-13.5-2.1-22.1c-.6-14.9-.5-15.7 1.3-16.2 2.4-.6 3.9-.3 3.9.9m9.1 81.1c-.3.8-.6 2.7-.7 4.1l-.1 2.7-1.3-3c-.8-1.7-1.4-4-1.5-5.3 0-2 .3-2.1 2.1-1.2 1.2.7 1.8 1.7 1.5 2.7m7.4 5.3c0 1.1-.7 2-1.5 2-2.7 0-1.8-3 1.3-3.9.1-.1.2.8.2 1.9m273.8 71.3c-4.4 10.6-6.1 16.2-8.2 26.7-2.6 12.4-2.8 12 5.4 12h7v-24c0-13.2-.1-24-.2-24-.2 0-2 4.2-4 9.3M0 359.7c0 5.1.2 9.3.5 9.3s1.4-1.5 2.5-3.3c2.7-4.3 2.5-8.6-.5-12.2l-2.4-3z"/></svg>