<svg xmlns="http://www.w3.org/2000/svg" width="682.667" height="512" version="1.0" viewBox="0 0 512 384"><path d="M266.3 171c-20.8 5.7-38.4 17.3-46.7 30.8-2.6 4.1-5.6 16.5-5.6 22.8 0 3.9 6.5 24.5 9.6 30.4 1.3 2.5 4.1 5.8 6.3 7.5 2.2 1.6 4 3.5 4.1 4.1 0 .6-2.9 2.8-6.5 4.9-7.6 4.4-8.3 5.2-6.2 7.2 2 2 4.3 1.2 11.5-4.2l5.9-4.3 2.4 4.1c3.9 7 9.6 12.5 15.2 14.6 7 2.6 26.4 5.4 33.5 4.9 15.3-1.1 34.2-17.6 44.9-39.3 5.4-10.8 7.7-20.7 7.7-33 .1-12.5-2.1-18-10-25.5-3-2.8-7.2-7.7-9.3-10.8-5.1-7.5-7.4-9.5-14.6-12.9-5.6-2.6-6.9-2.8-20.5-3-11.8-.2-15.8.1-21.7 1.7"/></svg>