<svg xmlns="http://www.w3.org/2000/svg" width="682.667" height="512" version="1.0" viewBox="0 0 512 384"><path d="M201.4 83.5c-.4.8-.1 4.3.4 7.7.6 3.5 1.6 12.7 2.3 20.5 1 11.5 1 14.5 0 15.7-.7.9-1.4 4-1.5 7-.1 2.9-.7 6-1.4 6.8-.9 1.2-.8 2.6.7 7 1 3 2.6 6.9 3.6 8.7 1.7 3.3 1.7 12.1 0 21.3-.5 2.5-.2 4.7.8 6.8 1 1.9 1.8 7.3 2.2 14.3.3 6.2.8 13.5 1 16.4.2 3.4-.1 5.2-.8 5-.6-.1-1.2 2.1-1.3 5.8-.7 16-1.7 24.9-3.5 30-1 3-2.4 7.9-3 10.8-.6 2.8-3.1 9.2-5.5 14-4.3 8.6-4.3 8.9-2.7 11.5 2.1 3.4 6.3 8.5 6.3 7.8 0-.3 1.6 1.1 3.6 3 2.1 2.1 4.1 3.3 5 3s2.1.5 3.2 2.3c1.8 2.9 1.8 2.9 4.2 1.1 1.5-1.2 3.4-1.7 4.8-1.3 1.3.3 2.2.1 2.2-.7 0-.6.4-.9.8-.6.5.3 1.5-.6 2.3-2 1.4-2.8 6.2-5.8 7.3-4.6.4.3.3-.5-.2-1.8-.6-1.5-.6-3.5-.1-4.8s.7-2.8.4-3.2c-.3-.5.4-.7 1.5-.5 1.9.4 1.9.3.5-2.6-1.9-3.5-1.1-5.2 1.8-4.3 3.7 1.1 5.7 3.5 5.7 6.9 0 4.1 1 4.9 8.8 6.9 14.3 3.6 19.2 1.6 24.9-10.3 2.2-4.6 2.5-6.2 2-11.7-.3-3.4-1.2-7.2-1.8-8.3-1-1.5-1-2.7 0-5.8 1.9-5.7-.3-18.5-4-22.9-1.4-1.7-2.6-10.6-3.9-28.4-1-13.8-1-14.8 1.1-20 1.1-3 2.3-6.4 2.6-7.5s1.3-2.8 2.1-3.8c1.4-1.6 1.4-2.2-.1-6.5-1-2.6-3.1-11.8-4.7-20.5s-3.7-17.4-4.6-19.4c-1.9-4-7.9-10.5-11.1-12.2-5.9-3-14.1.2-20.3 8-3.4 4.3-4 5.8-4 9.7 0 4.2-.3 4.9-3.1 6.4-6 3.5-7.9 1.6-7.9-7.8 0-2.3-.5-3.4-1.8-3.8-3.5-1.2-5.3-7.4-6.7-24.4-.8-8.9-1.1-17.8-.8-19.7.3-2.1.1-4.1-.7-5-1.6-1.9-5.9-1.9-6.6 0m25.9 74.3c1.5.2 3.4-.1 4.2-.8 2.1-1.8 2 1-.2 4.9-1.6 2.6-1.6 3.4-.5 6.3 2.1 5.1 3.1 9.8 2.1 9.8-.5 0-3.1-.8-5.8-1.9-2.9-1.1-5.3-1.5-5.8-1-1.3 1.3-7.2-.1-8.2-2-.5-.9-1.2-4.4-1.6-7.7l-.7-6.2 3.4-1c5.3-1.7 7.2-2 8.8-1.4.8.2 2.7.7 4.3 1M216 194.1c-1.3 3.8-2.4 6.8-2.5 6.7-.1-.2-.6-3.2-.9-6.8-.7-6.5-.7-6.6 2.1-7.6 1.5-.5 3-.6 3.2-.1.1.4-.7 4-1.9 7.8m15.5 16.8c-.3 1.3-1 6.7-1.5 12-.4 5.3-1.5 10.9-2.4 12.6-2.1 4-2.1 4.5 1.4 12.2 1.7 3.6 3 7 3 7.4 0 1.4-2.4 1-7.3-1.1l-4.5-2-1.2-7.3c-.6-3.9-1.8-11.3-2.7-16.2-.8-5-1.8-11.6-2.2-14.7l-.7-5.8 9.4.2c9.3.2 9.3.2 8.7 2.7m1.9 64.2c-.3.5-1 .7-1.5.3-.5-.3-.7-1-.3-1.5.3-.5 1-.7 1.5-.3.5.3.7 1 .3 1.5M511 370.9c0 1.1-.4 2.2-.9 2.5-.4.3-1.1 2-1.4 3.8s-.8 4.1-1.2 5.1c-.6 1.3-.2 1.7 1.9 1.7 2.6 0 2.6-.1 2.6-7.5 0-4.1-.2-7.5-.5-7.5s-.5.9-.5 1.9"/></svg>