<svg xmlns="http://www.w3.org/2000/svg" width="682.667" height="512" version="1.0" viewBox="0 0 512 384"><path d="M197.1 85.9c-1.6 1-1.3 2.7 1.9 11.5 1.2 3.3 3.8 12.3 5.9 20 3.1 11.5 3.8 15.6 3.7 22.3-.1 4.5-.7 8.7-1.4 9.5-.9 1.2-.7 2.9.9 7.9 2.4 7.2 4.3 9.9 7 9.9 1 0 2.2.8 2.7 1.7 1.3 2.5 3 13.9 3 19.6 0 3.4.6 5.7 2 7.7 2.3 3.1 2 4-1.6 4-3.4 0-2.3 2.3 1.7 3.4 3.9 1.1 4.2 1.7 7.5 16.1 2.7 11.2 2.6 13.9-.4 19.5-1 1.8-.8 3.4 1 9.1 1.3 3.8 2.1 7.1 1.9 7.3-.2.3-2.1-.2-4.1-.9-2.1-.7-4-1-4.3-.7-1.4 1.4-.2 6.6 2.5 10.9 1.7 2.6 3 5.6 3 6.6 0 1.1 1.1 3.2 2.5 4.9 2 2.4 2.3 3.3 1.4 4.9-.7 1.5-.7 2.4.2 3.5 1.7 2.1 3.8 13.1 3.1 16.8-.3 1.7-.6 5.7-.6 8.8-.1 3.2-.5 5.8-1 5.8-.4 0-.6 1.1-.4 2.5.3 1.4.1 2.5-.3 2.5-3 0 1.3 9.7 5.7 13.3 1.3.9 2.5 3.1 2.9 4.7.8 3.5 2.4 4.8 3.5 2.9.7-1 1.3-.8 2.7.8 1 1.1 4.2 3.5 7.2 5.3 5 2.9 5.6 3.1 6.7 1.5.7-.9 2.5-1.8 4-2 5.4-.6 12.1-11.6 9.2-15.2-.7-.9-.4-1.1 1-.8 1.6.3 1.9-.2 1.6-3.3-.1-2.1-.5-4.9-.9-6.3-.5-1.9-.2-2.6.9-2.6.8 0 1.3.4 1 .8-.5.9 1.5 2.3 2.3 1.5.3-.3-.6-1.9-2-3.6-1.5-1.7-2.4-3.7-2.1-4.5.4-.9 0-1.5-1-1.5-.9 0-1.6-.6-1.6-1.3 0-.8-1.1-2.4-2.5-3.7-3.2-3-3.1-3.6.4-6.6 3.7-3.1 8.1-11.8 8.1-16 0-1.8-.7-6-1.6-9.4-1.2-4.9-1.3-6.7-.3-9.7 1.7-5.2.6-14.8-2.5-22.3-2.4-5.9-2.8-8.3-3.6-25.9-.5-10.6-1.2-20.3-1.5-21.5-.5-1.5-.4-1.7.3-.7.7.9 1-.3 1-4 0-3 .2-7.9.4-10.9.1-3-.1-6.5-.5-7.7-.7-1.8-.5-2.2.7-1.7 1.2.4 1-.5-.8-4.3-2.1-4.4-2.2-5.4-1.3-12.1 1.6-10.8-.1-23.1-4-28.5-4.5-6.4-8.8-9-14.5-8.4-6.3.5-11.1 4-15.3 10.8-4.3 7-4.6 11.6-1 15.5 1.4 1.5 2.5 2.8 2.5 2.9s-1.4 0-3-.3c-2-.3-3.7.2-5 1.3-2.4 2.2-2.6 2-3.7-2.5-.7-2.6-1.9-4-4.7-5.5-2.2-1.1-4.3-3-4.7-4.3-.5-1.2-1.5-2.5-2.3-2.8-2-.8-8.4-21.9-11.6-38.4-.7-3.6-1.7-7.1-2.3-7.8-1.1-1.4-3.6-1.6-5.6-.3m37.4 79c-.4 1.9 0 4.1 1 6 2.2 4.4 3.5 11.7 2.2 13-1.2 1.2-5 1.4-8.2.5-1.6-.4-2.6-2.4-4.3-8.5-1.2-4.4-2-8.4-1.7-8.9s2.2-1.4 4.3-2c2-.7 4.1-1.6 4.7-2.1 1.8-1.7 2.7-.9 2 2m1.5 43.8c0 5-1.6 5.8-2.8 1.4-.9-3.7-.8-4.1.9-4.1 1.4 0 1.9.7 1.9 2.7"/></svg>