<svg xmlns="http://www.w3.org/2000/svg" width="682.667" height="512" version="1.0" viewBox="0 0 512 384"><path d="M198 94.3c-1.4.7-2.5 1.7-2.5 2.2 0 .6 1.9 4.8 4.2 9.5 6.7 13.5 15.4 36.2 14.7 38.2-.3 1.1.2 3.5 1.1 5.4 1.4 2.9 1.4 4 .4 7.2-.7 2-1.2 4.5-1.1 5.4.2 3.1 6.2 10.8 9.6 12.2 3 1.3 3.6 2.2 6.5 11.3 1.8 5.4 2.9 10.7 2.5 11.6-.3.9.1 3.5 1 5.7s1.2 4 .6 4c-1.9 0 .2 2.8 2.7 3.5 2.1.5 2.4 1 2 3.3-.2 1.5-1.2 7.4-2.1 13.2s-2.1 11.3-2.6 12.2c-1.5 2.6-1.2 10 .5 14.8 2.3 6.6 2.1 7.3-2 6.6-2.2-.4-3.5-.3-3.5.4 0 .5-1.3 1-2.9 1-1.7 0-3.2.4-3.5.9s1.4 3.1 3.9 5.7c2.5 2.7 5.2 6.8 6.1 9.1.9 2.4 2 4.3 2.4 4.3 3.2 0 10 13.1 10 19.2 0 3 2.3 5.1 7 6.7 4.1 1.4 9.1 7.7 10.8 13.6 1.7 6 3.1 20.6 2.5 25.3-.5 3.4-.2 4.7 1.4 6.5 2.5 2.7 4.3 6.1 4.3 8.1 0 1.3 4.4 6.6 5.4 6.6.2 0 .7-1 1-2.3.6-2.1.8-2 2.6 1.5 1.1 2.1 3 4.3 4.3 4.9 1.2.7 2.6 1.8 3 2.5.9 1.6 9.3 1.9 10.2.4.3-.6 1.6-1 2.8-1 6.1-.1 13.1-12.3 9.6-16.6-1.2-1.4-.6-2.9 1.2-2.9 1 0 1.1-.7.5-2.7-.2-.7-.7-2.4-.9-3.6-.5-2.3-.5-2.3 1.3-.7 1.9 1.7 1.9 1.6 1.1-1.1-.4-1.6-.6-3.4-.4-4.1s-.1-2.1-.7-3.2c-1.3-2.5-.3-2.7 2.2-.4 3.2 2.9 2.2-1-1.2-4.2-1.6-1.5-2.7-3.2-2.5-3.6.3-.4-2.4-3.6-5.9-7.1s-8.7-10.1-11.7-14.8c-5.1-8.2-5.3-9-7.1-21-1-6.9-1.9-13.4-1.8-14.5 0-1.1.2-6.3.4-11.6.4-8.7.2-10.1-2.4-16.3-2.7-6.2-2.9-8-3.6-25-.6-15.4-.4-19 .9-22.7.9-2.4 1.8-7.4 2.1-11 .5-5.5.4-6.8-.9-7.3-1.2-.4-1.5-2-1.4-7 .1-4.7-.3-7.2-1.5-9.1-1.8-2.8-1.3-5.1.5-2.5.7 1 .9-3.6.6-14.5-.4-18.2-1.3-21.2-8.6-27.8-4.9-4.4-8-5.3-13-3.8-6.1 1.8-10.3 5.3-14.3 11.6-3.1 4.9-3.7 6.7-3.4 9.9.3 2.4 1.3 4.6 2.5 5.5 3.4 2.8 3 5.2-1.3 7.5-2.9 1.6-4 1.8-4.4.8-1-3-3.4-4.3-6.8-3.6-2 .4-3.4.2-3.4-.4 0-.5-1.8-2.7-4-4.9-3.1-3.2-5.1-7-9.8-18.9-3.2-8.2-6.9-18.2-8.1-22.2-2.2-7.5-2.9-8-7.1-5.9m42.6 78.9c1.4 2.2 3.2 15 2.5 17.6-1.6 5.8-4.3 2.3-9.1-11.5l-1.9-5.2 2.7-1c3.7-1.3 5-1.3 5.8.1"/></svg>