<svg xmlns="http://www.w3.org/2000/svg" width="682.667" height="512" version="1.0" viewBox="0 0 512 384"><path d="M274 175.4c-2.5.7-6.1 2-8 2.9-1.9.8-5.6 2.4-8.2 3.5-5.6 2.4-13.1 7.4-17.4 11.6-1.7 1.7-4.6 4.5-6.5 6.2-8.4 7.6-16.9 21.4-18.8 30.2-2.8 13.2-.7 22.7 8 35.8 6.8 10.4 12.5 15.4 21.7 19.4l5.2 2.3-2.6 3.6c-1.5 2-4.3 5.3-6.2 7.3-2.2 2.3-3.2 4.2-2.9 5.2 1.4 3.7 5.7.8 13.3-8.9l3.1-4 4.6 4.2c6.2 5.3 10.4 6.3 28.1 6.3 16.3 0 21.4-1.3 29.3-7.4 11.5-8.9 21.4-27.6 24.3-45.6 2.5-16.1.5-33.6-5.2-44.2-3.1-5.8-6.9-9.3-14.5-13.1-1.7-.9-6.2-4.2-9.8-7.3-8.7-7.4-14.1-9.4-24.8-9.3-4.5 0-10.2.6-12.7 1.3"/></svg>