<svg xmlns="http://www.w3.org/2000/svg" width="682.667" height="512" version="1.0" viewBox="0 0 512 384"><path d="M196.4 102c-3.6 1.4-3.8 3-.7 7.3s13.2 22.6 19.7 35.4c1.9 4 3.3 7.9 3 8.7-.3.9.3 3.1 1.5 4.9 1.2 2 2.1 5.1 2.1 7.4 0 6.9 2.8 13.1 7.3 16.4 2.2 1.6 4.6 2.9 5.2 2.9.7 0 2.3 2.1 3.5 4.7 6.1 12.9 7 15.6 7.2 21.6s-3 26.6-5.3 33.8c-.9 2.9-.7 5.9 1.1 15.9 1.1 6.7 2 12.3 1.8 12.4-3.7 1.7-4.3 2.6-4 6.2.2 2.2 1.3 4.9 2.4 6.1 2.1 2.2 1.9 5.3-.3 5.3-.6 0-4.1-2.9-7.9-6.5-4.7-4.6-7.2-6.4-8.4-5.9-1.6.6-2.3 3.4-.7 3.4 2.1 0 14 10.3 14.5 12.6.5 1.7 2 3.1 5 4.4 4.8 2 5.6 3.3 5.6 9.1 0 4.1 2.6 7.9 5.5 7.9.8 0 3 1.1 5 2.4 2 1.4 5 2.8 6.7 3.2 3.3.7 12.8 8.1 12.8 9.9 0 1.2 3 5.1 8.7 11.5 3.3 3.6 4.5 6 5.3 10.1 1.1 5.8 3.8 13.8 5.2 15.3.4.6.8 1.7.8 2.6 0 .8 1.5 3.3 3.3 5.4 3.4 3.8 3.4 3.8 4.1 1.5l.7-2.4 2.7 3.1c3.4 4 4.6 4.3 16 4.5 8.9.2 9.3.1 12.2-2.6 1.7-1.6 3-3.9 3-5.2 0-1.5.4-2.2 1.1-1.7 1.1.6 1-5.7-.2-9.6-.2-1 .2-1.4 1.4-1.4 2.1.2 2.2-.4.2-2.6-2.1-2.3-.9-5.6 1.3-3.8 1.2 1.1 1.2.7-.2-2.1-1-1.8-1.2-3-.6-2.6.9.5 1 .1.5-1.6-.4-1.3-1.2-2.6-1.6-2.7-.5-.2-.9-1.1-.9-1.9 0-1.4.2-1.4 1.9.1 3.4 3.1 3.3-.2-.1-3.5-1.8-1.7-2.6-2.8-1.8-2.4 2 .9-4.5-4.9-9.7-8.5-2.3-1.7-7.8-7.6-12.3-13.3-4.5-5.6-10.5-13-13.3-16.5-9.9-12.1-17.1-27.6-13.7-29.7 2-1.2-1.5-22.5-3.9-24-1.1-.6-2.1-9-2.2-19-.1-7.4.2-8.7 3.7-16 3.1-6.7 3.7-9 3.7-14-.1-3.3-.2-8.6-.2-11.8-.1-5-.4-6-2.1-6.4-1.1-.3-2.2-1.5-2.5-2.7-3-13.3-3.2-15.6-1-15.6 1.8 0 2-5.6.5-21.2-1.2-12.2-2.6-16.2-7.7-21.9-6.3-6.9-12.3-8.6-19.9-5.4-5.3 2.2-8 4.7-12.5 11.5-3.5 5.1-4.1 6.7-3.6 9.6.6 3.8 4.3 8.9 7 9.7 3 .9.6 5-3.4 5.9-1.8.3-4.1 1.6-5.1 2.8l-1.7 2.1-2.9-2.1c-2.3-1.7-3.3-1.9-5.4-1.1s-2.9.6-3.9-.6c-.7-.8-2.2-1.9-3.4-2.3-2.2-.9-15.1-24.1-21.4-38.7-3.9-8.9-4.9-9.9-8.7-8.3m51 76.3c1.3 5.2 1.7 13.4.8 15.7s-1.1 2-4.1-4.3c-1.7-3.8-3.1-7.2-3.1-7.7 0-1 4.2-6 5.1-6 .4 0 .9 1 1.3 2.3m42 142.9c.7 1.3 1.9 4.5 2.5 7.2 1.4 5.8.3 8-2.7 5.3-1-.9-2.2-1.7-2.6-1.7-2 0-11.6-7.4-11.6-8.9 0-2.4 3.5-3.9 8.7-4 3.4-.1 4.5.4 5.7 2.1"/></svg>