<svg xmlns="http://www.w3.org/2000/svg" width="682.667" height="512" version="1.0" viewBox="0 0 512 384"><path d="M197.3 104c-2.9 1.2-2.9 4.1 0 7.7 2.6 3.1 8.3 13 18 30.9 4.4 8.1 6.4 12.8 6 14.2-.3 1.1.2 3.1 1.1 4.4.9 1.2 1.6 4.2 1.6 6.8 0 2.5.9 7 2 10s2 5.6 2 5.7c0 .8 9.9 5.1 10.4 4.6.3-.3 2.9 4.2 5.7 10.1 5.6 11.7 5.7 12.5 2.4 25.6-.8 3-1.9 9.3-2.5 13.8-.6 4.6-1.6 9.5-2.1 11-.7 1.8-.4 6.4 1.2 16.3l2.1 13.8-2.7 2.3-2.7 2.4 2.6 5.7c2.6 5.3 2.7 7.7.6 7.7-.5 0-4.1-2.7-7.9-6-3.9-3.3-7.7-6-8.5-6-3.4 0-2.3 2.1 2.7 5.4 6.5 4.3 12.7 10.2 12.7 12 0 .8 1.8 2.1 4 3 3.8 1.5 4 1.8 4 6 0 3.6.5 4.8 2.6 6.5 1.5 1.2 3.1 2.1 3.6 2.1.6 0 2.2.9 3.7 1.9 1.4 1.1 5 2.7 8 3.6 6.1 2 14.3 8.6 18.4 14.8 1.5 2.3 4.8 6.2 7.2 8.7 3 3.1 4.8 6.2 5.9 10 3.7 12.4 4.9 15.7 7.3 19.4 2.1 3.2 2.9 3.7 5.1 3.3 1.5-.3 3.8 0 5.2.7 2.2 1.1 11.8 1.3 26.8.7 1.4-.1 2.7-1.1 3.4-2.6.6-1.4 1.5-2.5 1.9-2.5 1.4 0 1.5-4.4.2-7.2-1.1-2.2-1-2.7.3-3.2.9-.3 2.1-.3 2.7.1 1.2.7-1.2-2.7-2.6-3.8-1.4-1 .4-3.8 2-3.2q1.65.6.9-.6c-.4-.6-.9-2.6-1.2-4.3-.2-1.7-.8-3.6-1.4-4.2-.5-.5-1-1.7-1-2.5 0-1.1.4-1 2 .4 1.1 1 2.3 1.5 2.8 1.1.4-.4-1.3-2.6-3.8-4.8s-3.9-3.7-3.2-3.3c.6.3 1.2.3 1.2-.1 0-.8-1.7-2.2-9-7.3-3.1-2.2-8.4-7.4-11.7-11.7-3.4-4.4-7.8-9.7-9.7-11.9-10.5-11.8-24.3-33.9-22.5-36.1 2-2.5.5-17.4-2.4-23.8-2.3-5.1-2.7-7.2-2.7-15.7 0-8.9.3-10.3 2.5-13.7 5.6-8.5 8.4-21.4 6-28.2-.8-2.4-1.3-5.1-1-6.1.9-2.8-.5-6.9-2.5-6.9-1.3 0-2.1-1.5-3.3-6.2-.9-3.4-1.3-6.7-.9-7.2.3-.6.5-2.2.3-3.5-.2-1.5.1-2.1.8-1.7 2.8 1.8.4-31-2.7-37-3.2-6.1-10.6-13.2-14.7-14-8.4-1.5-16.8 3-23.3 12.7-3.8 5.6-4.3 6.9-3.7 10.3.6 4.3 4.3 9.7 6.2 9.1 1.8-.6 2.8 4.2 1.3 6-.6.7-2.6 1.5-4.3 1.7-2.2.2-3.8 1.2-5.3 3.5l-2.1 3.2-2.4-2.5c-1.7-1.9-3-2.3-4.8-1.9-2.7.7-8.2-1.8-9.8-4.4-2.6-4.2-9.4-17-16.4-30.6-4.2-8.3-8.2-15.1-9-15.2s-2.4.2-3.6.7m53.1 79.2c.9 7.6.7 12.8-.3 12.8-1.1 0-6.1-9.8-6.1-11.9 0-1.5 3.8-6.1 5-6.1.4 0 1 2.4 1.4 5.2m42.5 141.4c2.8.6 3.3 1.2 5.2 7.6 1.1 3.9 1.7 7.4 1.2 7.9-1.5 1.5-22.3-10.3-22.3-12.6 0-3.1 7.9-4.5 15.9-2.9"/></svg>