<svg xmlns="http://www.w3.org/2000/svg" width="682.667" height="512" version="1.0" viewBox="0 0 512 384"><path d="M201.1 104.9c-4.6 1.2-4.7 3.3-.3 9.8 7.4 10.8 24.2 42.6 23.6 44.6-.3 1 .1 2.9 1 4.2 1.2 1.9 1.4 3 .6 5.1-1.3 3.4-.6 7.1 3 15 2.4 5.4 3.3 6.3 6.6 7.5 2.2.7 4.7 1.2 5.7 1.1 1.4-.1 3 2.4 6.4 9.4l4.7 9.6-2.2 9.1c-1.2 5.1-2.6 12.1-3.2 15.7s-1.6 9.2-2.2 12.4-1.1 6.4-1.1 7c.5 6.7 2.6 23 3.4 26.1 1 3.7.9 4.1-1.6 6.1l-2.8 2.2 1.7 4.4c1 2.3 2.3 4.6 2.8 4.9 1.4.9.2 3.9-1.5 3.9-.7 0-4.4-2.7-8.1-6.1-4.2-3.7-7.4-5.8-8.3-5.5-.8.3-1.7.6-1.9.6s-.4.6-.4 1.3c0 .8 1.1 1.9 2.5 2.5 4.6 2.1 13.7 9.5 14.6 12 .5 1.3 2.3 2.9 3.9 3.5 2.4.9 3 1.7 3 4.2 0 1.7.6 3.8 1.3 4.6 1.9 2.4 15 9.9 19.3 11.1 4.7 1.3 13.8 8.5 18.4 14.6 2 2.6 5.6 6.8 8 9.3 3.6 3.7 4.9 6.1 6.9 12.5 4.7 15.8 4.1 14.8 9.6 15.5 2.8.4 13 .7 22.8.7h17.9l-.5-2.4c-.2-1.3 0-2.1.4-1.8 1.2.7 1.1-.3-.1-2.6-1.4-2.6-.2-5.4 1.6-3.9 1.7 1.4 1.9-.2.2-1.9-1.2-1.2-1.9-5.2-1-5.2.3 0 1.4.8 2.5 1.8 2 1.7 2 1.7.3-1-1-1.5-1.5-3.2-1.1-3.8s-.3-2.7-1.5-4.7c-2.5-4.2-2.1-5.1 1.4-2.8 3.6 2.4 3.3.1-.4-2.5-1.6-1.1-2.7-2.6-2.5-3.3s-2.3-3.2-5.7-5.7-8.2-6.5-10.7-9c-9-8.9-26-30.8-32.6-42l-6.7-11.3-.2-11.1c-.1-9.8-.5-11.8-2.9-17-3.7-8-3.9-18.2-.3-22.9 3.7-4.9 5.3-8.8 7-16.1 2-8.5 2-15.3.1-19.9-.8-2-1.5-5.5-1.5-7.7 0-3.3-.4-4.2-2.3-4.9-3.3-1.3-5.1-9.3-3.6-16.2.7-3.2.9-10.9.5-20.6-.5-14.1-.8-15.9-3.2-20.2-5.4-10.1-13.8-16.1-20.6-14.7-7.8 1.5-17.4 9.3-21.7 17.4-2.4 4.6 1.4 15.2 5.4 15.2.6 0 1.7 1.1 2.4 2.4 1.9 3.4-.3 6.4-4.9 6.8-2.8.2-3.8.9-5 3.5-1.7 3.7-2.7 4-4.5 1.7-.6-.9-2.7-1.8-4.6-1.9-5.4-.4-7.7-1.5-9.8-4.9-6.5-10.8-22.1-41.3-22.1-43.1 0-2-3-3.3-5.9-2.6m52.2 87.4c.3 6.4.2 6.7-1.2 4.8-.9-1.2-2.4-4.1-3.4-6.6-1.9-4.5-1.9-4.5.4-8.2l2.3-3.7.8 3.4c.5 1.9.9 6.6 1.1 10.3m47.6 139.3c1.3 1.5 4.3 14.2 3.7 15.3-.4.6-3.2-.5-6.7-2.5-3.4-1.9-6.3-3.4-6.5-3.4s-2.8-1.6-5.8-3.5c-6.9-4.4-7.7-6.3-2.8-6.7 6.6-.6 17.3-.1 18.1.8m51.1 31.9c.7.9.8 1.5.2 1.5-.5 0-1.2-.7-1.6-1.5-.3-.8-.4-1.5-.2-1.5s.9.7 1.6 1.5"/></svg>