<svg xmlns="http://www.w3.org/2000/svg" width="682.667" height="512" version="1.0" viewBox="0 0 512 384"><path d="m203.9 106.9-2.4 1.9 2.2 2.9c6.4 8.1 26.4 46.9 27 52.3.6 5.2.5 7.9-.2 14.1-.8 5.9-.1 9.1 3.7 18.1l2 4.8h5c2.7 0 5.7-.4 6.7-.9 1.5-.9 2.3.2 5.6 7l3.9 8-1.8 8.2c-5.8 26.6-7 36.3-6.3 51.4.4 7 1.3 15.1 2.1 18 1.3 5 1.3 5.2-1.2 8.7-2.3 3.3-2.4 3.9-1.2 6.4.8 1.5 2 3.5 2.8 4.4 1.3 1.6.9 3.8-.7 3.8-.4 0-4-2.7-7.9-6.1-4.2-3.4-8-5.9-9-5.7-3.1.6-1.8 2.6 4.4 6.7 7 4.7 11.1 8.5 11.9 11.2.4 1 1 1.9 1.5 1.9.4 0 1.3 1.3 1.8 2.9.6 1.7 2.6 4 4.5 5.3 1.8 1.3 5.9 4 9 6 3 2.1 5.8 4.2 6.2 4.8.3.5 2.3 1.4 4.3 1.9 4.3 1.2 15 9.9 18.5 15.2 1.3 1.9 4.4 5.5 6.8 8 3.1 3.1 4.9 6.1 6.2 10.2l1.8 5.8 27.5-.1 27.4-.1-1.7-3.2c-1.5-3-1.5-3.1.1-1.7 1.7 1.3 1.7 1.2.1-2.5-3.1-7.4-3.1-7.2-1.1-5.5 1.8 1.4 4.6 2.3 4.6 1.4 0-.3-1.3-1.9-3-3.7-1.6-1.8-3-3.7-3-4.2 0-1.5-6.7-7.7-11.6-10.7-2.3-1.5-7.2-6.8-11.5-12.4-4.1-5.4-9.3-12-11.5-14.5-5.7-6.4-9-11.4-17.1-25.6-5.5-9.6-6.8-12.5-6-13.9.6-1 1-6.3 1-11.8.1-9.4-.1-10.6-3.1-16.5-1.8-3.5-3.2-6.9-3.2-7.6 0-.6 1.8-2.8 3.9-4.9 2.2-2.2 4.9-6 6-8.5 4.8-11.2 5.4-31.8 1.3-39.8-1.2-2.3-2.2-5.8-2.2-7.7 0-4.3-.9-6.6-2.5-6.6-1.8 0-2.2-5.3-2.7-31-.4-20.5-.5-21.8-3-27.1-2.9-6.3-7.9-12.4-11.9-14.5-3.6-1.8-12.7-1.8-17.2.1-4.4 1.8-10.1 6.7-13.9 11.9-2.2 3.1-2.8 5-2.8 9.1 0 3.5.5 5.7 1.5 6.5.8.7 1.5 1.9 1.5 2.7 0 .7.7 1.6 1.6 2 .9.3 2.8 1.7 4.2 3l2.6 2.4-2.1 2.7c-1.5 2-2.9 2.7-5.2 2.7-3.4 0-6.1 2.5-6.1 5.5 0 2.7-1.2 3.1-3.4 1.1-1.2-1-3.8-2.1-5.9-2.4-2.2-.3-4.5-1.1-5.2-1.7-1.8-1.5-21.8-41.4-23.6-47-1.2-3.9-1.8-4.5-4.5-4.8-1.9-.2-4 .4-5.5 1.7m54.6 87.7c.2 4.6.2 8.4 0 8.4s-1.5-2.5-2.9-5.7c-2.6-5.5-2.6-5.7-1-10 1.4-3.7 1.9-4.2 2.7-2.8.5 1 1.1 5.5 1.2 10.1M298 344.9c9.6-1.1 9.2-1.3 11 7.1 1.9 9.2 1.6 9.4-7.5 4.2-4.4-2.4-9-5-10.3-5.7-3.8-2.1-8.3-6.5-7.7-7.6.4-.5 1.8-.1 3.4 1 2.4 1.7 3.5 1.8 11.1 1"/></svg>