<svg xmlns="http://www.w3.org/2000/svg" width="682.667" height="512" version="1.0" viewBox="0 0 512 384"><path d="M271.5 181.5c-7.1 1.8-9.5 2.9-15.8 6.9-9.3 6-21.7 19.1-27 28.7-1.3 2.5-3 5.4-3.6 6.5-2.8 5-6.5 15.7-8.1 23.3-1.5 7.7-1.5 8.9 0 17.1 2.1 11.4 5.3 16.2 16 24.8 9.4 7.6 13.4 9.4 24.7 11.8 4.3.9 8.1 1.8 8.5 2 .8.5-1 6.1-4.6 13.6-3 6.3-3.1 7.4-1.1 8.2 2.1.8 6.1-4.9 9.1-13.1l2.6-7 3 1.5c5 2.5 10.6 2.5 25.3.2 19.1-3 25.8-6.6 33-17.5 10.5-15.8 12.2-39.3 4.9-65.9-3.1-11-6.3-17.5-11.7-23.3-5-5.5-9-7.5-18.5-9.7-4.1-.8-8.6-2.4-10-3.4-7.6-5.2-17.9-7-26.7-4.7"/></svg>