<svg xmlns="http://www.w3.org/2000/svg" width="682.667" height="512" version="1.0" viewBox="0 0 512 384"><path d="M213.3 91c-4.5 1.8-4.5 4 .2 13.6 2.4 4.9 8 19.2 12.6 31.8 6.9 19.2 8 23.2 7 24.8-1 1.5-.6 3.2 2.2 9.6 3.3 7.6 3.3 7.8 1.9 13.7-1.1 4.8-1.1 8-.3 16.1.7 5.6 1.7 12.1 2.4 14.5l1.3 4.4 6.6-.1 6.5-.2 1.3 5.7c.6 3.1 1.6 6.4 2.1 7.3 1.3 2.5 1.1 3.9-.7 6-1.5 1.6-1.5 1.8 0 2.4.9.3 1.3 1.1.9 1.7-.3.5.2 1.6 1.1 2.3 1.1.8 1.3 1.4.7 1.9-1.6 1-1.3 2.5.5 2.5 1.3 0 1.4.3.4 1.5s-1 1.6.1 1.9c.8.2 2.1.6 3 .9s2.4 2.6 3.2 5.1c1.4 4.1 1.4 5.6.2 12.9-.7 4.5-1.6 11.6-2 15.7-.3 4.1-1.5 12.4-2.7 18.4-1.9 9.6-2 11.8-1 18.4l1.2 7.5-3.7 4.3c-4.8 5.4-7 5.3-10.1-.4-1.9-3.4-2.9-4.2-5.2-4.2-3.7 0-4.5 2.4-1.6 4.7 4 3.1 11.6 14 11.6 16.6 0 1.6 1.2 3.5 3.3 5.3 1.7 1.5 3.8 4.1 4.5 5.8s2.6 4.3 4.2 5.8c1.6 1.4 3.2 3.9 3.5 5.5.3 1.5.9 3.9 1.3 5.3l.7 2.5 18 .8c9.9.4 23.1.6 29.2.5l11.3-.3-3-6c-1.6-3.3-3-6.6-3-7.3s-.8-2.4-1.7-3.8c-1.5-2.4-1.5-2.8.1-5.8 2.2-4 3.5-9.1 4.8-18.1.8-5.7.6-8.4-.8-14.7-1.5-7-1.6-8-.1-12.5 3.5-11.1 2.9-23.8-1.4-30.9-2.4-4-2.4-4.9.5-8.7 3.3-4.6 4.6-9.1 4.6-16.5 0-9.3-3.3-28-7.6-42.8-.3-1.1.4-6.1 1.6-11 1.7-6.9 2.3-13.3 2.7-28.9.5-19.5.4-20.4-2.7-35.9-2.8-14.2-3.5-16.5-6.7-20.8-4.7-6.5-9-9.6-14.6-10.7-11.8-2.2-26.4 5.4-31.6 16.4-2.6 5.6-3.1 19.8-.6 18.9.9-.4 1.6.2 2 1.8.4 1.3 2.1 3.2 4 4.2s3.3 2.2 3.2 2.7c-.1.4.7 1.4 1.8 2.2 1.7 1.3 1.7 1.7.6 3.1-1 1.2-2.3 1.5-4.1 1.1-3.5-.8-6.7 1.8-8.4 7-.8 2.2-1.9 4-2.4 4-.6 0-2.5-1.9-4.2-4.3-2.7-3.8-3.5-4.3-6.4-4.1-2.4.2-4.2-.4-6.5-2.4-1.8-1.5-4.1-2.7-5.2-2.7-1.2 0-2.4-1.2-3.2-3.3-3.5-8.2-15.2-43.2-17.3-51.6-3.1-12.3-4.2-13.5-10.1-11.1m62.2 120c.8 9 .8 16.6.1 19.6-.9 3.5-10.6 4.3-10.6.9 0-.8-1.3-4.7-3-8.8-1.6-4.2-3-8.2-3-9.1 0-1.4 3.7-7.9 10.8-18.9l2.6-4.2 1.3 6.5c.7 3.6 1.5 9.9 1.8 14"/></svg>