<svg xmlns="http://www.w3.org/2000/svg" width="682.667" height="512" version="1.0" viewBox="0 0 512 384"><path d="M232.6 68.2c-2.5 2.3-2.5 2.3-1.1 8.3 1.3 5.6 2.5 16.2 5.6 53.2l1.2 14.2-2.3 1.9c-2 1.6-2.1 2.1-1.1 4.1.7 1.2 1.3 4.6 1.3 7.4.1 2.9.7 5.9 1.4 6.7 1.7 2 3.6 35.7 3.2 56.3-.3 13.2-.5 14.7-2 14.7-1.1 0-1.8.8-1.8 2 0 1.1.3 2 .8 2 1 0 .9 6.4-.2 7.2-.6.4-.4 1.3.3 2.2.9 1.1 1 1.6.2 1.6-2 0-1.1 2.7 1.3 3.8 2.8 1.3 3.2 3.9 4.7 39.7.6 12.6 1.3 26.5 1.6 30.9.3 6 .2 7.6-.8 7.1-.9-.6-1.1-.1-.7 1.9.3 1.4.1 2.6-.3 2.6-.5 0-.8 1.5-.8 3.2.1 1.8-.4 7.3-1 12.3-1.2 9.8-1.5 28.4-.5 30.9.5 1.3 2.5 1.6 12 1.6 11.2 0 11.5-.1 12.4-2.4 1.4-3.7 2.7-3.9 5-.6l2.2 3.1 24.2-.3c13.2-.1 29.3-.5 35.6-.8 11.4-.5 11.5-.5 11.7-3 .2-3.7-1.5-11.9-3.2-15.3-1.6-3.3-2-6.7-.7-6.7.8 0 2.8-5.4 4.1-11 .3-1.4.6-6.8.6-12 0-8.6-.3-10.1-3.1-15.7l-3.1-6.1.4-15.9c.7-22.3-.9-45.2-3.7-52.5-1.7-4.6-1.9-6.1-.9-7.9.9-1.7 1.3-1.9 2-.8q.9 1.35.9-3.3c0-2.6.9-9.4 2.1-15q2.1-10.35 2.7-28.8c.4-10.2 1.1-19.1 1.5-19.8.6-.8.4-1.2-.4-1s-1.4-.9-1.5-2.7c-.1-1.7-.5-4.8-.9-7-.3-2.2-1-9.1-1.5-15.4-1.1-13.2-3.4-19.3-10-26.4-5.5-6.1-9.3-7.7-17.9-7.7-8.2 0-14.5 1.9-21.8 6.6-6.2 4-10.2 10.2-11.9 18.8-.6 3.4-1.5 7.4-1.9 9.1-.8 2.8-.7 2.9 1 1.5s1.8-1.3 1.3 1.8c-.3 2.2-.1 3.2.9 3.2.7 0 1.3.4 1.3.9s1.6 1.9 3.5 3.1 3.5 2.6 3.5 3.2 1.6 2.6 3.6 4.4l3.5 3.4h-3.9c-3.9 0-8 2.6-9.6 6.1-.3.8-.8 1-1.1.3-.3-.5-2.2-3.8-4.3-7.3l-3.7-6.3-4.2.6c-4 .5-4.4.4-7.5-3.6-3.9-4.9-8.7-9.7-11.7-11.8-2-1.4-2.3-2.8-3.2-15.8-.5-7.8-1.1-24.1-1.2-36.1-.2-16.6-.6-22.2-1.6-23.5-2-2.4-7.5-2-10.5.6m19.9 97.6c.7.4-.1 2.6-2.2 6.2-3.5 5.8-4 5.1-2.7-3.3.7-3.6 2.4-4.7 4.9-2.9m28.9 40.6c-.5 3.6-.2 5.3 1.5 8.2 1.6 2.7 2.4 6.2 3 13.8.4 5.5.7 10.3.5 10.4-.1.2-5.2-.4-11.3-1.3-6.1-1-12.3-1.5-13.8-1.2s-3.6.1-4.7-.3c-1.2-.5-3.3-1.1-4.7-1.4-2.5-.5-2.6-1-3.3-8.2-.3-4.3-.4-7.9-.2-8.1.2-.3 2.2.1 4.3.7 5.2 1.6 9-.3 19.8-9.8 4.4-3.9 8.3-7.1 8.7-7.1.4-.1.5 1.9.2 4.3m50.4 25.1c.1 1.4-.3 2.5-.8 2.5-.6 0-1-1.1-1-2.5s.4-2.5.8-2.5.9 1.1 1 2.5m-73.4 34.6c1.8 10.1 5.8 20.2 12.6 31.9l4.9 8.6-2.4 9.4c-1.3 5.2-3.1 13.8-4 19-1.8 10.9-3.3 16-4.5 16-.5 0-2.1-1.1-3.6-2.3-2.3-2-2.8-3.4-3.2-8.7-.3-4.3-1-6.8-2.3-8.1-1.6-1.6-1.9-3.5-1.9-12.2 0-5.6-.5-11.8-1-13.7-1.3-4.3-4.1-49.2-3.2-50.2.4-.3 1.8-.8 3.2-1 3.1-.4 3.4.2 5.4 11.3"/></svg>