<svg xmlns="http://www.w3.org/2000/svg" width="682.667" height="512" version="1.0" viewBox="0 0 512 384"><path d="M240.7 63.7c-2.7 1.4-2.8 1.8-2.3 6.1.3 2.6 1.1 20 1.8 38.6.9 26.1.8 34.1-.1 34.4-.6.2-1.9 1.1-2.7 2-1.4 1.3-1.4 1.7-.2 2.6.9.8 1.4 3 1.3 7.1 0 3.8.5 6.6 1.4 7.7 2.7 3.4-.6 72.8-3.5 72.8-1.8 0-2.7 1.7-1.7 3.2 1 1.6 1.3 7 .5 8.3-.3.5-.7 2.2-.9 3.7-.2 2.2.3 3.1 2.3 4l2.5 1.2-.6 37c-.6 38.1-1 45.6-2.5 45.6-.4 0-.8 1.7-.7 3.7 0 2.1-.7 6.5-1.5 9.8-.9 3.3-1.9 9.6-2.2 14-.4 4.4-.9 10.4-1.2 13.3l-.6 5.2h23.9l-.4-4.8c-.1-2.6-.8-10.5-1.5-17.7-.6-7.2-1.2-15.5-1.2-18.5-.1-5.2-1.5-8.7-3.1-7.2-.4.4-.7-5.4-.6-12.8s-.2-25.5-.5-40.3l-.5-26.7h7l.6 5.7c1.4 13.9 5.4 26.9 12.5 40.8 3.6 6.9 3.7 7 7.3 6.8 2-.2 3.7.1 3.7.5s-1.1 5-2.4 10.2c-1.4 5.2-3.4 14.7-4.6 21-2.5 13.9-2.7 14.7-4.5 15.4-1.1.4-1.5 2.3-1.5 7.6 0 4.2-.6 8.2-1.4 9.9-.8 1.5-1.4 4.2-1.4 5.9.1 3 .2 3.1 6.5 3.8 9.8 1 77.1 0 78.3-1.2.7-.7.3-3-1.1-7.1l-2.2-6.1 2-4.9c1.2-2.6 2.4-6.7 2.8-9 .4-2.4 1.1-4.6 1.7-4.9.5-.3.7-2.2.4-4.3-.3-2-.8-5.8-1.1-8.6-.3-2.7-1.9-7.8-3.5-11.4-3-6.4-3.1-6.6-2.4-18.5.3-6.7.1-21-.5-32-.9-16.8-1.5-20.7-3.4-25.6-2-4.8-2.2-6.2-1.2-8 .9-1.7 1.4-1.9 1.7-.9.3.8.8-2 1.2-6.1s1.7-12.2 2.8-18c2.9-14.6 3.2-49.1.4-60-.3-1.4-1-8.1-1.5-15-.7-10.7-1.3-13.2-3.7-17.8-7.2-13.8-17.8-18.6-32.7-14.7-16.1 4.2-23.3 11.8-26.9 28.7-1.3 5.8-1.3 6.5 0 6 1.2-.4 1.4.2 1 2.6-.3 2.2 0 3.2.9 3.2.7 0 1.3.4 1.3.9s1.6 1.9 3.5 3.1 3.5 2.9 3.5 3.7 1.9 3.3 4.3 5.4l4.2 3.8-4.2.1c-3 0-5 .7-7.2 2.6l-3.1 2.5-2.5-5.7c-3-6.7-3.7-7.4-8.6-7.4-4 0-7.1-2.8-11.8-10.3-1.3-2.1-4.1-4.7-6.3-5.8l-4.1-2.1.6-29.1c.3-16.1 1.1-32.8 1.7-37.1 1-7.2.9-8.1-.7-9.7-2.6-2.4-7.3-3-10.6-1.2M256 165c1.2.8 1.2 1.1-.3 2.7-.9 1-2.7 4.3-4.1 7.3l-2.5 5.5v-3.6c-.1-2 .2-5.7.5-8.3.6-3.8 1-4.6 2.8-4.6 1.1 0 2.8.4 3.6 1m26.2 45.1c-.4 4-.1 5.6 1.5 7.8 1.9 2.5 2.6 5.9 3.8 18.8.3 4.1.2 4.3-2.3 4.3-1.5-.1-6.3-.8-10.7-1.6s-10.5-1.7-13.5-1.9-7.3-1-9.5-1.7l-4-1.3-.1-6.2c-.1-3.4-.4-7.3-.8-8.7-.8-3.1-.1-3.2 6.1-.5 6.5 2.8 9.7 1.7 20.3-7 4.7-3.8 8.8-7 9.1-7 .3-.1.4 2.2.1 5m51.8 24.6c-.1 3.8-.3 4.4-1.1 3-.9-1.6-.4-7.7.7-7.7.2 0 .4 2.1.4 4.7"/></svg>