<svg xmlns="http://www.w3.org/2000/svg" width="682.667" height="512" version="1.0" viewBox="0 0 512 384"><path d="M247.1 61.6c-2.1 1.5-2.2 2.1-1.6 7.3.9 6.4.7 28.8-.4 54-.7 16.6-.8 17.4-3.1 19.1-1.7 1.3-2.1 2.2-1.5 3.6 1.2 2.9 1.4 7.4.3 8-.5.3-.4 1.2.3 2 .8 1 .9 1.7 0 2.8-.9 1-.7 1.7.5 2.7 1.4 1.1 1.5 2.8.9 10.9-1.7 25.3-4.6 53.9-6.1 61.7-.2 1.3-1.1 2.3-1.9 2.3-1.2 0-1.4 1-1.1 4.8.2 2.6-.1 5.3-.6 5.9-.6.7-.8 2-.4 2.8.3.8.1 1.5-.4 1.5-1.9 0-.9 2.9 1.6 4.7l2.6 2-1.7 26.4c-.9 14.5-1.9 32-2.1 38.9-.2 7.4-1 13.9-1.8 16-.7 1.9-1.9 5.5-2.5 8-4.3 16.3-5.2 20.4-5.8 28.2l-.6 8.8h22.4l-.3-21.3c-.4-20.2-.9-24.4-2.8-23.2-1.1.7-.4-16.8.8-21 .5-1.8.5-4.3-.2-6.3-.9-3.1.8-48.1 2.1-52.5.3-1.3 1.3-1.7 3.1-1.5 2.5.3 2.7.7 3.4 6.8 1.5 13.4 3.1 21.7 5.5 29.5 3.2 10.2 7.4 19.4 8 17.7.3-.9.9-1 1.7-.3s2.8.6 6.1-.4c5.3-1.6 8.9-1.9 8.1-.7-1.2 1.9-7.7 28.9-9.6 39.7-1.2 6.6-2.7 14.5-3.5 17.5-.7 3-1.5 7.7-1.7 10.5l-.3 5 37.5.3c20.6.1 38.9 0 40.7-.3 3-.5 3.2-.8 2.7-3.5-.4-2-.1-3.4 1-4.5.8-.9 2-3.5 2.6-5.8.5-2.3 1.6-6.1 2.4-8.3 2.2-6.5 0-22.1-4-28.2-1.5-2.3-1.8-6.2-2-30.2-.3-30.3-1.2-40.3-4.7-48.8-2.4-6.2-2.6-10.9-.3-7.6 1.1 1.4 1.4.7 2-5.2.4-3.8 1.8-13.7 3.3-21.9 2-11.9 2.6-18.5 2.6-32 .1-9.4-.3-19.3-.7-22-.5-2.8-1.2-11.5-1.7-19.5-.8-12.1-1.4-15.3-3.4-19.5-4.1-8.6-8.2-13.2-14.1-16.1-4.9-2.4-6.3-2.6-13.2-2.2-9.1.6-17.2 3.5-23.6 8.4-5.3 4.1-8.4 9.3-10.7 18.4-.9 3.6-2 7.3-2.4 8.3-.6 1.4-.4 1.6 1 1 1.6-.5 1.7-.2 1.2 2.5-.4 1.8-.2 3.2.2 3.2 1.4 0 9.1 7.5 9.1 8.8 0 .6 2.1 3.3 4.8 5.8l4.7 4.7-3.1-.6c-2.1-.4-4.4 0-6.9 1.3l-3.7 1.9-1.4-3.4c-.8-1.9-1.4-3.8-1.4-4.3 0-1.8-3.8-4.2-6.7-4.2-4.1 0-7.5-2.9-11.2-9.5-1.9-3.4-4.6-6.4-7.1-8-4.6-2.9-4.4-1.3-3-24q1.95-30.6 4.2-46.2c1-7.6 1-8.5-.7-10.3-2.2-2.5-8.1-2.7-11.4-.4m12.5 103.7c.4.3-2.1 4.9-7.5 13.7-1.8 3-2.2 0-1-7.5l1.2-7.7 3.5.6c1.9.3 3.6.7 3.8.9m22.8 47.6c-.5 3.2-.1 4.9 2.1 8.8s2.8 6.5 3.2 14c.6 8.6.5 9.2-1.3 8.8-11.7-2.6-28.1-5.6-29.8-5.4-1.1.2-4.2-.7-6.8-1.8-4.4-2-4.7-2.3-3.9-5 .4-1.5.6-5.8.5-9.6-.2-3.7-.1-6.7.2-6.7s3.1 1.3 6.1 3c3 1.6 6.6 3 8.1 3 3.2 0 11.1-4.5 16.7-9.4 2.2-1.9 4.3-3.5 4.8-3.6.4 0 .4 1.8.1 3.9M336 239c0 1.1-.4 2-1 2-.5 0-1-.9-1-2s.5-2 1-2c.6 0 1 .9 1 2"/></svg>