<svg xmlns="http://www.w3.org/2000/svg" width="682.667" height="512" version="1.0" viewBox="0 0 512 384"><path d="M262 191.4c-7.3 2.1-11.1 4.5-18.1 11.5-11.3 11.3-17.9 24.1-21.8 42.3-4.7 21.8-1.4 43.5 8.1 54.4 4 4.5 9.9 7.4 22.2 10.9 8.5 2.4 11 2.7 17 2.1 3.9-.4 7.8-.7 8.6-.7.8.1 2.5.1 3.8.1 2 0 2.2.5 2.2 6.4 0 3.4-.7 8.5-1.5 11.2s-1.5 5-1.5 5.1.9.7 1.9 1.3c1.7.8 2.2.5 3.6-2.3 1.3-2.6 3.5-15.1 3.5-20.5 0-.7 1.3-1.2 3.3-1.2 3.7 0 26-6 32.2-8.7 9.3-4 15.9-11.9 19-22.7 2.3-8 1.6-25.9-1.5-36.6-6.6-23-20.2-43.4-33.1-49.8-5-2.4-12.3-2.9-19.2-1.3-2.8.7-4.8.5-7.4-.6-5-2-15.9-2.5-21.3-.9"/><path d="M279.1 315.6c0 1.1.3 1.4.6.6.3-.7.2-1.6-.1-1.9-.3-.4-.6.2-.5 1.3"/></svg>