<svg xmlns="http://www.w3.org/2000/svg" width="682.667" height="512" version="1.0" viewBox="0 0 512 384"><path d="M252.3 59.1c-.8.8-1 4-.6 9.8.5 7.4-2.9 63.2-4.2 69.7-.3 1.3-1.5 2.4-3 2.8-2.5.6-3.4 3-1.4 4.1.5.4.8 1.2.6 1.8-.2.7 0 2 .5 2.9.5 1.1.5 1.8-.1 1.8-1.3 0-1.2 8.1.1 9.7.7.8.4 5.9-.7 15-3.5 29.5-5.7 45-7 49.8-.7 2.7-1.1 6.2-.8 7.7.4 2.3.1 2.9-1.9 3.7-2.2.8-2.5 1.5-2.3 5.8.1 2.6-.2 5.3-.6 5.9-.5.6-1 2.6-1.1 4.5-.2 2.7.2 3.6 2 4.4 1.2.5 2.2 1.7 2.2 2.5s-1.2 12.5-2.6 26c-1.3 13.5-2.9 30.3-3.5 37.5-1.1 14.6-1.5 16.3-5.9 29-3.2 9.2-6.9 24.2-7 28.2 0 2.3.2 2.3 11.7 2.3h11.6l-.6-14.9c-.4-8.5-.2-16.3.3-18.2 1.3-4.4.4-7.5-1.6-5.8-1.2 1-1.4.3-1.4-4.2 0-3 .5-8.3 1.2-11.9.6-3.6 1.1-9.5.9-13.1-.2-6.3 3.6-52.6 4.5-54.1.2-.3 1.6-.3 3.2.1l2.7.7.7 12.5c.6 12.1 3.4 28.5 6.1 36.4 1.7 5 2.8 5.1 16.6 1.9 5.7-1.3 10.5-2.3 10.6-2.2.2.3-1.3 6.3-6.3 24.8-1.7 6.3-4.3 18.1-5.7 26.2-1.3 8-2.9 15.8-3.5 17.3-.5 1.4-1 3.1-1 3.6s17 .9 43 .9h42.9l1.2-4.3c.6-2.3 1.7-6 2.4-8.2.9-2.9 1-6.5.5-12-.9-9.3-2-13.2-5.1-18.1-2-3.4-2.1-4.3-1.5-16.7 1-19.4-1.5-55.4-4.4-63.2-1.2-3.3-2.5-7.1-2.8-8.5-.4-2.2-.3-2.3 1-1.2s1.6.3 2.2-6c.4-4 1.8-12.9 3.1-19.8 3.3-17.5 4.9-40.1 3.5-51.5-.6-5-1.4-16.7-1.9-26.1l-.8-17.1-3.8-7.1c-2-4-5.5-8.7-7.6-10.7-9.7-8.7-26.8-8.2-41.6 1.4-7.1 4.6-10.4 9.6-13.3 19.7-1 3.8-2.2 7.8-2.6 8.9-.7 1.8-.6 1.9 1.1.5s1.8-1.3 1.3 1.5c-.5 2.5.1 3.5 4.5 7.8 2.9 2.7 5.1 5.6 4.9 6.3-.1.7 1.8 3.4 4.3 5.8 2.5 2.5 4.5 4.7 4.5 5s-1.5.6-3.4.6-4.6.4-5.9.9c-2.3.9-2.6.7-4.3-4.2-1.9-5.1-2-5.2-7.2-6.1-5.3-1-5.3-1-10-8.9-3.3-5.6-5.8-8.5-8.5-10.1l-3.8-2.1.6-8c1.2-14.9 5.6-53 7.1-59.8 1.7-8.3 1.8-11.9.2-13.5-1.5-1.5-11-1.6-12.5-.1m7.6 106c3.5 1.2 3.8 2.1 1.5 4-.8.7-2.6 3.3-3.9 5.8-1.2 2.5-3.3 5.5-4.5 6.6l-2.1 1.9.5-2.4c.3-1.4 1.1-5.4 1.7-9 1.5-8.9 1.4-8.8 6.8-6.9m23.3 52.1c-.3 4.5 0 5.9 2.2 9 2 3.1 2.7 5.5 3.2 12.8.6 8.2.5 9-1.1 9-1.9 0-16.6-3.2-25.8-5.6-3.2-.8-6.5-1.3-7.5-1-2.3.7-9.8-3.7-9.3-5.5.2-.8.6-6 .9-11.7.2-5.6.7-10.2 1.1-10.2s1.8 1.1 3.1 2.5c3.1 3.3 11.2 8.5 13.3 8.5 3.2 0 9.7-4.1 20.3-12.9 0-.1-.1 2.3-.4 5.1m53.5 27c-.3.7-.5.2-.5-1.2s.2-1.9.5-1.3c.2.7.2 1.9 0 2.5"/></svg>