<svg xmlns="http://www.w3.org/2000/svg" width="682.667" height="512" version="1.0" viewBox="0 0 512 384"><path d="M258.4 56.4c-2 1.5-2.2 2.7-2.7 16.8-.4 13.6-5.1 63.3-6.2 66.5-.2.7-1.4 1.3-2.5 1.3-2.3 0-3.6 2.2-2.4 4.2 1 1.5 1.3 6 .5 7.3-1 1.8-.9 8 .2 9.3 1.2 1.5.8 5.3-3.9 35.7-1.9 12.6-4.4 26.3-5.4 30.3-1.1 4-2 8.3-2 9.7 0 1.6-.6 2.5-1.5 2.5-.8 0-1.5.3-1.6.7 0 .5-.2 2.8-.4 5.3s-1.1 6.8-2 9.5c-1.6 4.6-1.6 4.9 0 6.2 1 .7 2.2 1.4 2.8 1.6.9.3-2 28-5.8 55.2-.8 5.5-1.9 14.2-2.4 19.3-.5 5.2-1.5 10-2.2 10.8-.6.8-1.6 3.5-2 6.1-.5 2.6-1.8 6.5-2.9 8.7-1 2.3-2.6 7-3.5 10.6s-1.9 7.3-2.1 8.2c-.5 1.6.5 1.8 11.1 1.8h11.6l-.2-11.8c-.1-6.7.2-12.8.9-14.3.6-1.5.9-3.5.7-4.5-.2-1.1-.4-2.4-.5-2.9-.1-.6-.7.1-1.3 1.5-1.1 2.3-1.2 2-1.5-3.4-.2-3.3.4-9.5 1.3-13.7.8-4.3 1.8-13.4 2-20.1.5-11.6 4.6-48.2 5.6-49.2.2-.2 1.6-.2 3 .1l2.7.5.5 22.6c.3 12.8 1 24.3 1.6 26.4l1.2 3.8 6.7-.6c7.7-.6 20.4-3 24.5-4.6 1.5-.6 2.9-.9 3.2-.7.2.2-.7 4.5-2.1 9.4-8.8 32.8-13.4 53.1-13.4 59.7 0 1.7 2.1 1.8 44.4 1.8h44.4l1.1-2.8c.8-1.9.8-5.5.2-11.9-.6-7.3-1.5-10.7-4.4-16.7l-3.5-7.5.9-10.8c.8-8 .6-17.1-.5-34.9-1.5-23.9-2.4-29-7.1-39.7-.5-1.2-.3-1.7.5-1.5 1 .2 1.7-2.4 2.6-9.2.7-5.2 1.9-12.5 2.8-16.2 4.2-18.2 6.1-42.8 4.4-57.8-.6-5.8-1.2-17.5-1.3-26-.1-15.2-.1-15.6-3.1-22-4.8-10-8.5-14.4-14.9-17.5-7-3.5-15.8-3.6-25.5-.6-15.1 4.8-21.3 11-26.1 26.1-3.5 11.2-3.4 10.7-1.4 9 1.6-1.4 1.7-1.2 1 1.9q-.75 3.3.3 2.7c.6-.3 1.3.3 1.7 1.4s2.4 3.4 4.6 5.2c2.6 2.1 3.7 3.7 3.4 4.8-.4 1.1 1.2 3.6 4.4 7.1l5 5.4-4.4.7c-2.4.3-4.8.9-5.3 1.2-.9.6-3.2-3.5-3.2-5.8 0-2.1-3.3-4.4-7.8-5.5-4.9-1-5.8-2-10.3-10.9-2.3-4.6-4.3-7-7.3-8.9-2.2-1.4-4.2-2.6-4.3-2.7-.9-.8 7.9-62.8 10.2-71.7.8-3.1 1.5-6.6 1.5-7.6 0-4.6-8.5-7.9-12.6-4.9m2.7 109.8c2.2.6 3.9 1.4 3.9 1.8s-1.4 2.4-3 4.5c-1.7 2.1-3.3 4.8-3.6 5.9-.3 1.2-1.9 3.2-3.5 4.5l-3 2.3.5-2.3c.3-1.3 1-5.1 1.6-8.4 1.4-7.5 2-9.5 2.7-9.5.3 0 2.3.5 4.4 1.2m-5 55.1c3.4 3.1 7.2 6 8.4 6.3 2.6.6 9.1-2.4 14.6-6.7 2-1.6 3.9-2.9 4.1-2.9s.2 1.8 0 4c-.3 3.2.2 5 2.3 8.2 2 3.1 3 6.2 3.7 12 .5 4.4.7 8.5.5 9.3-.6 1.4-3.5.9-22.6-3.9-5.7-1.4-11.5-2.6-12.8-2.6s-4.2-.9-6.4-2c-3.9-2-4-2.2-3.5-6.3.3-2.3.8-7.1 1.1-10.7s1.1-9.7 1.7-13.5l1.2-7 .8 5c.6 4.5 1.3 5.6 6.9 10.8"/></svg>