<svg xmlns="http://www.w3.org/2000/svg" width="682.667" height="512" version="1.0" viewBox="0 0 512 384"><path d="M261.2 55.2c-.8.8-1.2 4.7-1.2 11 0 5.4-.9 16.2-1.9 24.1-1.1 7.8-3 22.2-4.2 32.1-2.2 17.7-2.3 17.8-5 18.8-2.4.8-2.7 1.4-2.4 4.8.1 2.1.5 4.2.9 4.8.3.5-.1 1.5-.9 2.2-1 .8-1.2 1.7-.5 3 .6 1.1.5 2.1-.2 2.8-.9.9-.7 1.6.5 2.9 1.5 1.7 1.3 3.3-1.8 21.8-4.3 24.9-6.2 34.8-8.5 45-1.1 4.4-2.1 9.6-2.5 11.6-.4 2.5-1.2 3.8-2.5 4.2-1.4.3-1.9 1.3-1.9 3.3.1 4-.6 7.3-2.5 11.6-2.1 5-2 5.6 1 7 2.5 1.2 2.6 1.5 2 7.3-.3 3.3-2.2 16.3-4.1 29-2 12.6-4.4 29.5-5.5 37.4s-2.6 15.3-3.3 16.5c-.8 1.2-1.8 3.7-2.2 5.6s-2.3 7.3-4.1 11.9c-1.9 4.6-3.4 8.7-3.4 9.2s5 .9 11.1.9h11l-.7-5.6c-.5-4.1-.2-7.1 1.1-11.5 1.4-4.6 1.6-6.2.7-7.1s-1.2-.9-1.2 0c0 .7-.5 1.2-1 1.2-1.5 0-.5-14.2 1.4-21.3.9-3.2 1.6-9.2 1.6-13.3 0-4.2 1.3-16.7 3-27.9 4.5-30.9 4-28.5 6.4-28.5 3.8 0 4.4 1.1 3.5 7-.4 3-1.1 14.4-1.5 25.3l-.7 19.7h8.4c11.7 0 25.1-2.4 31-5.4 2.7-1.5 4.9-2.2 4.9-1.7 0 1.4-2.8 12.4-5.7 22.1-4.9 16.7-11.3 42.7-11.3 46.1 0 .5 18.9.9 46.6.9h46.6l-.5-4.8c-.7-6-3-13.5-5.3-17-1.7-2.4-1.9-5.4-2-27.7-.2-32.7-1.7-50.5-4.9-60.2-2.5-7.5-2.5-7.5-1.1-18.2.9-5.8 2.6-15.3 4-21.1 4.1-17 6-37.2 5-53-.4-7.4-.8-21-.9-30.1-.2-15.5-.3-16.9-2.9-23.6-8-20.2-22-26.6-43.4-19.8-10.7 3.4-17.8 8.5-21.3 15.5-2.6 5.1-7.9 18.3-7.9 19.6 0 .4.7 0 1.6-.7 1.5-1.2 1.6-1 1 1.9-.5 2-.4 3.2.3 3.2.6 0 1.3 1.1 1.7 2.5.3 1.3.9 2.3 1.3 2.2.3-.1 1.6.8 2.7 1.9 1.2 1.2 2.8 2.4 3.5 2.6 1.1.4 1.2.9.1 2.7-1.1 1.9-.8 2.5 2.9 6.3 4.4 4.6 7.4 8.6 6.8 9.2-.2.2-2.6.6-5.4.7-4.8.4-4.9.4-5.6-2.9-.9-4.6-3.6-7.1-8.1-7.9-4.5-.7-6.8-3.3-11.3-12.6-1.8-3.9-4-6.8-6.6-8.5-3.1-2.2-3.8-3.3-3.9-6 0-6.8 8.5-58.8 11.7-70.7 1.9-7.3 1.9-9.2-.3-11.6-2-2.2-10.2-2.7-12.2-.7m5.8 114.3c0 .2-1.6 2.6-3.5 5.5s-3.5 5.8-3.5 6.6-.5 1.4-1 1.4c-.6 0-2.2 1.1-3.5 2.5-1.4 1.3-2.5 2-2.5 1.4 0-1.5 4-19.1 4.6-20 .4-.7 9.4 1.8 9.4 2.6m-10.1 51.9c5.4 7 8.6 9.6 11.8 9.6 2.8 0 9.4-3.2 11.2-5.4 2.1-2.5 3.1-1.9 3.1 1.7 0 2.1 1.2 5.1 3.1 8 2.6 4 3.1 5.8 3.6 13.5l.6 9-6.4-1.5c-3.5-.8-11.1-2.7-16.9-4.3-5.8-1.5-12.3-3.1-14.5-3.5-2.1-.4-5.2-1.6-6.8-2.7-2.3-1.7-2.7-2.5-2.2-4.7.4-1.4.9-5.1 1.1-8.1s1.7-12 3.2-20l2.7-14.5 1 8.6c.9 8 1.3 9 5.4 14.3"/></svg>