<svg xmlns="http://www.w3.org/2000/svg" width="682.667" height="512" version="1.0" viewBox="0 0 512 384"><path d="M266.2 52.6c-1.8 1.3-2.2 2.5-2.2 7.2 0 3.1-.4 9.3-1 13.7-1.1 9.9-8.8 62.2-9.5 65.2-.3 1.2-1.8 2.5-3.5 3.1-2.8 1-4 3.5-2.2 4.5.9.6.7 5.5-.3 7.9-.4.9-.4 2.2 0 2.8s.1 1.8-.6 2.6c-.9 1.1-.8 1.8.5 3.3 1.5 1.7 1.2 3.8-4.4 32.4-3.3 16.9-6.9 33.5-8 36.9-1.1 3.5-2 7.4-2 8.8 0 4.2-1.1 6.9-2.5 6.4-1.7-.7-2.8 1.2-3.1 5-.3 4.4-1.1 7.5-3.1 12-1.7 3.8-1.7 3.9.5 5.6 1.2 1 2.6 2 3.1 2.2.8.3-4.7 36.7-9.3 60.8-.9 4.7-2.2 13.1-3 18.8-.8 6.1-2.1 11.3-3.2 13-1 1.5-1.9 3.4-1.9 4.2-.4 3.2-2.6 9.9-3.5 10.5-.6.3-1 1.5-1 2.6 0 1.7.8 1.9 8.8 1.9h8.7l1.8-6c1.9-6.7 2.2-10 .7-10-.5 0-1 .4-1 1 0 .5-.3 1-.7 1-1.7 0-1.1-10.1 1.1-19.5 1.3-5.5 2.7-14.5 3-20s2.3-20.1 4.4-32.5c3.6-21.6 3.8-22.5 6.1-22.8 1.3-.2 2.7 0 3.2.5s-.2 7.7-1.6 16.8c-2.7 17.3-4.4 33.5-3.5 33.9 1.5.8 18.7.6 26.3-.3 9.6-1.1 15.8-3.4 21.8-8.2l3.9-3.1-.7 3.4c-.8 3.9-5.9 22.4-9.7 35.3-2.6 8.6-7.6 28.2-7.6 29.7 0 .5 20.7.8 46 .8 52.2 0 48.3.8 43.5-8.6-2.4-4.7-2.5-5.6-2.5-23.9 0-10.5-.7-28.5-1.5-40.2-1.2-18.6-1.7-22.2-4.4-30.1l-3-9.1 1.4-9.4c.8-5.3 2.8-14.8 4.4-21.4 6-23.9 6.9-37.1 5.8-84.8-.4-19.6-.7-22.6-2.6-27-8.2-19.1-14-23.5-31.2-23.5-11.2 0-19 2.1-27.2 7.2-5.8 3.7-9.4 8.8-13.7 19.3-1.7 4.4-3.4 8.6-3.7 9.3-.4.8 0 1 1.2.5 1.5-.5 1.7-.2 1.1 2-.3 1.5-.2 2.7.3 2.7s1.2 1.3 1.6 3c.4 1.6 1 2.8 1.3 2.7.4-.1 1.4.4 2.2 1.1s2.4 1.9 3.5 2.6c1.7 1.2 1.8 1.7.6 3.9-1.1 2.2-1 2.7 1.1 4.9 3.6 4 8.8 11.4 8.8 12.6 0 .7-1.7 1.2-4.4 1.2-4.5 0-5.6-1-5.6-5 0-2.5-4.7-6-8.1-6-3.7 0-5.2-1.7-9.5-10.8-3.9-8.3-6.4-11.6-10.5-13.7l-2.6-1.4 1.9-12.3c2.9-19.1 9.8-54.5 12.3-63.2 2.7-9.4 2.2-12-3-14.1-4.4-1.9-5.5-1.9-8.3.1m.1 117.6c1.5.6 2.7 1.2 2.7 1.4s-1.3 2.3-3 4.6c-1.6 2.2-3 4.7-3 5.5 0 .7-1.5 2.3-3.4 3.4-4.9 2.9-6.1 6.7-6.1 18.9.1 11.7.1 11.8 8.1 22.7 7.3 9.9 8.2 10.2 15.5 6.5l5.9-3.1v2.5c0 2.9 1.4 6 4.2 9 1.3 1.5 2.2 4.7 2.9 11.4.6 5 .8 9.4.6 9.7-.6.5-24.8-5.7-31.6-8.1-2.4-.9-5.5-1.6-6.8-1.6-1.4 0-4.3-1-6.5-2.2-3.1-1.8-3.8-2.7-3.3-4.3.3-1.1 1-5.4 1.5-9.5 1.1-8.8 1-8.3 5-27 3.3-15.5 8.7-38.6 9.5-40.8.5-1.4 2.2-1.1 7.8 1"/></svg>