<svg xmlns="http://www.w3.org/2000/svg" width="682.667" height="512" version="1.0" viewBox="0 0 512 384"><path d="M273.2 48.2c-.5.7-1.3 5.6-1.7 10.8-.7 9.9-14 82.9-15.3 84.1-.4.4-1.8.9-3.2 1.1-2.4.3-2.5.6-2.4 6.5 0 3.5-.3 6.3-.8 6.3s-.9 1.2-.7 2.7c.1 1.6-.2 3.6-.6 4.6-.4 1.1-.2 2.9.6 4.3 1.1 2.1 1 3.9-1 12.7-5.1 23.1-15.3 63-17.1 67.3-1.1 2.5-2 5.8-2 7.4 0 3.7-.9 6-2.5 6-2.1 0-4.2 3.4-4.2 7-.1 1.9-1.3 6.6-2.9 10.4l-2.7 6.9 2.1 1.8c1.2.9 2.7 1.9 3.4 2.1.8.3-.1 6.6-3.1 21.4-4.9 24.3-8.4 40.6-11.1 51.9-1 4.4-2.2 10.8-2.5 14.2l-.7 6.3h9.9l2.2-7.3c1.1-3.9 2.1-9.2 2.1-11.6 0-6.3 7.3-46.2 12.5-68.9.4-1.7 1.2-2.2 3.5-2.2 1.8 0 3 .5 3 1.3 0 2.8-7 26.6-10.9 37.3-2.3 6.1-4.1 11.7-4.1 12.3s.9 1.1 1.9 1.1c1.1 0 2.2.4 2.5.9 1 1.5 16.6 3.4 28.1 3.5 10.3 0 11.4-.2 17.5-3 3.6-1.8 8.3-4.5 10.5-6.2s5.2-4 6.7-5.2l2.7-2.1-.6 3.8c-.8 5.7-4.1 18.3-8.4 32.4-2.1 7-3.9 12.9-3.9 13.3 0 .3 20.3.6 45 .6h45v-4.3c0-2.3-.7-12.1-1.5-21.7s-2-22.7-2.5-29.1c-1-11.7-3.5-22.1-7.2-29.3-1.9-3.7-1.9-4.1-.3-13.3.9-5.3 3.1-15.2 5-22.1 8.3-30.3 11.4-62.1 10.8-111.8-.2-14.5-.3-15.4-3.7-24.9-3.9-11-7.1-15.5-13.8-20.1-9.3-6.3-26-7.1-41.6-1.9-10.3 3.5-15.1 6.9-19.7 14-1.9 3-3.5 5.7-3.5 5.9s-1.8 3.6-4 7.5c-4.5 8-4.9 9.2-1.9 6.5 2-1.8 2-1.8 1.4.9-.4 1.5-.3 3.3.3 4 .5.6 1.2 2.4 1.6 3.9.4 1.6 2.4 4 5.1 5.9 2.5 1.8 4.5 3.5 4.5 3.9s-.9 1.5-2 2.5-2 2.3-2 3 .9 2 2 3 2 2.4 2 3.2c0 1.5 4.3 8.6 7.3 12 3.4 3.9 0 10.4-3.8 7.3-.8-.7-1.5-2.2-1.5-3.4 0-3.7-2.9-6.5-8.3-8.1-5-1.5-5.5-1.8-8.4-7.8-1.7-3.4-3.9-8.6-4.9-11.6-1.4-4-3.2-6.5-6.7-9.6l-4.8-4.2 2.1-11.4c3.7-19.8 14.1-64 16.6-71.1 2.8-7.6 2.5-9.8-1.3-12.8-2.9-2.3-10.4-2.8-12.1-.8m0 131.5c1.7 1.5 1.7 1.7-.1 4.2-.9 1.4-2.3 4.1-3.1 5.9-.8 2.1-2.1 3.4-3.9 3.8-5.3 1.2-5.8 1.5-6.9 4-1.6 3.4-1.5 12.4.3 20.9 1.9 9.2 13.4 32.6 17.1 34.5 1.8 1 3 1.1 4.2.4 1.3-.9 2.2-.1 5.1 4 3 4.4 3.6 6.4 4.7 14.6.6 5.2 1 9.6.9 9.8-.4.4-13.6-3.8-26-8.4-6.7-2.4-13.4-4.4-14.9-4.4-1.6 0-4.6-1-6.8-2.2-3.6-2-3.9-2.6-3.4-5.3.3-1.6 1-6.2 1.6-10.1 1.5-10.5 16.2-68.7 19-75.1l.9-2.3 4.8 2.1c2.6 1.1 5.6 2.7 6.5 3.6"/></svg>