<svg xmlns="http://www.w3.org/2000/svg" width="682.667" height="512" version="1.0" viewBox="0 0 512 384"><path d="M274.7 48.1c-.9 1.5-1.7 6-2 11.9-.3 5.2-2.1 17.4-4 27-2 9.6-5.2 26-7.2 36.5-2.1 10.4-4.2 19.6-4.7 20.2-.6.7-1.8 1.3-2.8 1.3-2.7 0-4.6 2.8-3.3 4.9.7 1.1.8 2.3.1 3.4-.5 1-.6 2.2-.3 2.8.4.5.1 1.6-.5 2.4-.7.8-1 2.5-.7 3.7.4 1.2.1 2.8-.5 3.5-.8 1-.8 2.4.2 5.3 1.3 3.8.9 5.8-7.4 39.4-4.9 19.4-9.9 38-11.2 41.2-1.4 3.3-2.7 8-3.1 10.7-.5 3.7-1.1 5-3.1 6-2.1 1-2.8 2.6-4.3 8.9-1 4.3-2.8 9.6-3.9 11.7l-2 3.9 3.6 2.9 3.6 2.8-6.7 31.5c-3.6 17.3-7.7 35.7-9 40.8-3.6 13.6-3.7 13.2 4 13.2h6.5v-5.1c0-6.2 3.4-27.4 3.8-24.1.2 1.2.8 2 1.3 1.6.6-.3 1.5-.1 2.2.4 3.9 3.3 34.1 6.3 42.7 4.2 6.3-1.5 15.7-6.6 22.3-12.2l4.9-4.1-.7 4.9c-.9 5.7-4.8 21.3-7 27.6-.8 2.3-1.5 4.9-1.5 5.5 0 1 9.7 1.3 45.1 1.3h45.1l-.6-3.3c-.3-1.7-1.5-14.2-2.5-27.7-2.1-25.4-4.3-36.3-9.2-44.8-1.8-3.2-1.9-3.8-.4-12.5.9-5.1 2.2-11.2 3-13.7 7.6-24.4 12-51.7 13.6-84.5.5-10.5 1.3-23.3 1.8-28.5 1.9-21.5-3.7-47.9-12.1-57.5-7.6-8.6-21-12.4-36.7-10.5-9.3 1.2-20.8 4.8-25.7 8.2-3.5 2.4-8.9 9.5-13.9 18.3-1.5 2.7-3.7 6.5-4.8 8.4l-2 3.4 2.7-1.8 2.7-1.8-1.3 2.7c-.9 2.1-.9 3.2 0 4.7.7 1 1.2 2.5 1.2 3.3 0 1.6 4 6.9 4.7 6.2.3-.3 1.7.9 3 2.5l2.6 3-2.7 2.8-2.7 2.9 2.5 2.7c1.4 1.5 2.6 3.4 2.6 4.2 0 2.2 5.1 11.2 7.2 12.7 1.6 1.1 1.8 2.1 1.3 5-.9 4.3-3.2 6.7-4.6 4.5-.5-.8-.9-2.3-.9-3.4 0-3.7-2.9-6.4-8.6-8.1-5.1-1.5-5.6-1.9-8.3-7.3-1.6-3.1-3.4-7.7-4.1-10.1-1.6-6.2-5.3-12-9.4-15-2-1.4-3.6-3.1-3.6-3.8-.1-4.8 14.3-67.7 18.5-80.8 4.3-13.5 2.9-17.3-6.4-18.2-4.3-.4-5.1-.2-6.4 1.9m-.9 134.5 2.7 2.2-2.2 4.4c-1.2 2.4-2.4 5.1-2.7 6-.3 1-1.5 2-2.8 2.2-1.3.3-3.5.7-5 1-8.5 1.8-5.7 24.1 5.9 47.5 6.9 13.8 6.8 13.7 14.2 17.1 3.7 1.6 5.5 6.1 6.7 15.8.6 5.3 1 9.9.8 10.1-.4.4-12.1-3.6-27.5-9.5-6.4-2.4-12.8-4.4-14.3-4.4s-4.5-1-6.7-2.3c-3.6-2-3.9-2.5-3.4-5.2.3-1.7 1-6.2 1.6-10 .8-6.1 3.6-17.9 8.4-36 4.4-16.6 11.7-43.1 12.1-43.7.7-1 9 2.3 12.2 4.8m-38.1 119.2c.9.5.3 3.8-2.2 12.6-3.5 11.9-12.7 37.7-13.3 37.1-.3-.3 1-7.4 4.4-23 3.1-14.3 5.5-25 5.9-26.3.5-1.3 3.3-1.6 5.2-.4"/></svg>