<svg xmlns="http://www.w3.org/2000/svg" width="682.667" height="512" version="1.0" viewBox="0 0 512 384"><path d="M278.2 45.8c-3.2.5-3.9 2.5-4.5 13.2-.5 8.4-15 84.6-16.4 86-.2.3-1.9 1-3.6 1.6-3.1 1.1-3.2 1.2-3.2 7 0 3.2-.4 6.5-.8 7.2-.5.7-.7 2.3-.5 3.6.1 1.3-.3 3-1 3.9-1 1.2-1 2.1.4 5 1.7 3.5 1.6 3.7-7 38.1-4.8 19.1-10.1 38.6-11.7 43.4-1.7 4.8-3.5 10.9-4 13.6-.8 4.7-2.1 6.6-4.5 6.6-1.5 0-2.5 2.5-3 7.6-.2 2.3-1.5 6.7-2.9 9.8-3.4 7.6-3.3 10 .5 11.6 1.7.7 3 1.6 3 2.1 0 1.1-13.6 64.6-15.1 70.4-.6 2.2-1.2 4.8-1.5 5.7-.5 1.6.2 1.8 5.4 1.8h5.9l.7-5.2c.4-2.9 1-6.3 1.3-7.5.6-2.6 3.8-3.9 5.7-2.4.7.6 5.6 2.1 10.7 3.2 12.8 2.9 32.5 3.2 38.9.6 4.8-2 17-9.7 17-10.8 0-.4 1.2-1.4 2.6-2.4l2.7-1.7-.7 4.8c-.4 2.7-1.6 8.2-2.7 12.2-1 4-1.9 7.7-1.9 8.2 0 .6 15.9 1 44.6 1h44.6l-.6-3.8c-.3-2-1-10.7-1.7-19.2-1.5-20.9-4.6-34.7-9.8-43.6-1.8-3-1.8-3.6-.5-10 .8-3.8 2.5-9.6 3.9-12.9 1.3-3.3 2.9-9.4 3.4-13.5s1.8-11.8 3-17c3.6-16.7 6.1-35.9 7.2-56 .5-10.7 1.5-21.1 2-23 1.6-5.6 2.2-27.7 1.1-38.3-.7-6.4-2.4-13.8-4.8-21-3.4-10.1-4.2-11.6-9-16.3-11-10.9-27.6-13.5-49.9-7.8-11.3 2.8-15.7 5.7-21.7 14.2-3.1 4.2-6.7 9.8-8.2 12.4-1.5 2.5-3.3 5.2-4.1 5.8-2.2 1.9-1.8 3.2.6 1.9 1.8-.9 2-.8 1.5.8-.9 3 2.7 13.7 4.8 14.1s6.5 5.1 6.6 6.9c0 .7-1.1 2-2.5 2.9-3 2-3.2 3.5-.5 5.9 1.1 1 2 2.6 2 3.6 0 2.7 5.8 13.7 8.1 15.2 1.6 1.2 1.9 2.1 1.3 5.5-.4 2.3-1.3 4.7-2 5.3-1.5 1.2-1.7.9-2.8-4.3-.7-3.1-4.1-5.2-9.9-6.3-3.4-.7-4.1-1.4-6.7-6.5-1.6-3.1-4.1-9.5-5.6-14.1-2.4-7-3.6-9.1-7.6-12.9-2.7-2.6-4.8-5.5-4.8-6.7 0-6.6 15.1-70.7 20-84.8q3.3-9.45-.6-12.6c-1.7-1.4-8-2.6-11.2-2.1m-9.3 137c3 1.5 6.2 3.9 7.2 5.2 1.8 2.4 1.8 2.6-.6 7.7-2.4 4.9-2.9 5.3-6.7 6-2.4.3-5.2 1.7-6.6 3.1-2.4 2.3-2.5 2.8-1.9 11 .8 11.8 2.9 19.3 9.8 35.1 7.3 16.6 8 17.8 12.8 19.7 5 2 6.7 5.8 7.6 16.9.7 8.3.7 8.8-1.1 8.2-3.6-1-17.9-6.4-26.5-10-4.8-2-10.4-3.8-12.6-4-3.1-.4-11.3-3.6-13.1-5.2-.2-.2.3-1.8 1.1-3.6.8-1.9 1.7-6.3 2.1-9.9 1.4-12.3 20.5-83.1 22.4-83 .4.1 3.1 1.3 6.1 2.8M234.5 310c.8 1.3-4.6 20.5-9.1 32.3-2 5.1-4.2 11.1-5.1 13.5-.8 2.4-1.7 4.1-1.9 3.9-.3-.2 1.6-9.8 4.1-21.3 6.8-30.8 6.4-29.4 9.1-29.4 1.2 0 2.6.4 2.9 1"/></svg>