<svg xmlns="http://www.w3.org/2000/svg" width="682.667" height="512" version="1.0" viewBox="0 0 512 384"><path d="M276.1 46.9c-1.8 1.8-2.1 3.3-2.1 10 0 6-2 18.1-8.1 48.3-4.4 22.2-8.6 40.9-9.1 41.5-.6.7-1.8 1.3-2.8 1.3-2.5 0-4.3 2.6-3.7 5.2.4 1.3.1 4.1-.5 6.3-.5 2.2-1 5.4-.9 7.1 0 1.8-.6 3.7-1.4 4.4-1.3 1-1.2 1.7.4 4.8l1.8 3.7-6.2 25c-9.9 39.4-13.4 52.5-16.3 59.5-1.4 3.6-2.9 8.7-3.2 11.5-.4 4.2-.9 5.1-2.7 5.3-2.7.4-4.4 2.4-4.5 5.4-.2 3.7-2.4 11.9-4.7 17.2-2.5 5.8-2.2 7.3 1.9 8.7 1.6.6 3 1.4 3 1.8 0 1.4-12.6 59.8-14.5 67.3l-.7 2.8h5.6c5 0 5.6-.2 6.1-2.3.2-1.2 3.5-16.1 7.3-33.2l6.8-31 2.8.2c1.6.1 3 .4 3.2.6.6.6-7.9 28.6-13.5 44.7-5.6 16-6.2 19.5-3.2 18.7 1.2-.3 2.2.1 2.5.9.4 1.2 5.7 1.4 29.8 1.4h29.3l7.3-5.5c3.9-2.9 7.2-4.9 7.2-4.2-.1.7-.5 3.1-.9 5.4l-.8 4.3H380v-3.3c0-1.7-.7-9.3-1.5-16.7-1.5-13.5-3.3-21.2-7.6-31.5-2-5-2.2-6.1-1.2-12.2.6-3.8 2.4-10.2 4.1-14.4 2.1-5.3 3.2-10.1 3.7-16.5.4-4.9 1.3-11.9 2.1-15.5 3.4-16.9 9.3-71.6 7.9-73.8-.2-.4.6-4.7 1.7-9.7 1.7-7.2 2.1-12.2 2.2-26.4 0-18.4-.7-23.3-5.1-37.9-6-19.3-17.3-27.7-38.8-28.8-11.1-.6-22 1-31.8 4.7-4.4 1.6-6.9 3.5-10.7 7.8-7.2 8.3-19.6 26.6-16.6 24.7l2.4-1.6-.2 4c-.1 2.2.2 3.8.6 3.5s.8.9.8 2.6c0 4.5 1.6 7 4.1 6.5 1.2-.3 1.9-.2 1.6.2-.3.3.6 2.1 2 4l2.7 3.5-3.3 3c-3.2 3-3.2 3-1.3 5.2 1.1 1.1 2.3 3.7 2.6 5.6 1.1 5.6 5.9 14.4 8.4 15.5 2.1.9 2.3 1.4 1.7 5.4-1.2 8.1-2.3 9-4.6 3.8-1.2-2.7-2.2-3.4-7.4-4.8-5.8-1.5-6.1-1.7-9.2-7.5-1.7-3.2-4.6-10.3-6.3-15.6-2.8-8.9-3.4-10-8.3-14.2l-5.2-4.5 2.3-11.3c4.7-22.8 15.5-67.5 18.4-75.6 1.6-4.6 2.6-9.1 2.3-10.1-1.9-5.9-12.3-9.3-16.4-5.2M268.2 186c5.6 2.5 7.1 3.8 9.1 7.7 1.6 2.9 1.5 3.4-.3 7.6-1.9 4.2-2.3 4.5-6.7 5.2-6.3.9-7.9 1.9-9.2 5.5-1.2 3.5 0 15.3 2.5 26 2 8.2 14 36.8 16.7 39.7 1 1.2 2.9 2.3 4.1 2.5 3.1.4 5.3 6.1 6.1 15.5l.7 8.3-6.3-2.4c-3.5-1.4-12.5-5-19.9-8-7.4-3.1-14.7-5.6-16.1-5.6-2.1 0-11.2-3.3-12.7-4.5-.2-.1.4-2 1.2-4.1.7-2.2 2.1-8.4 2.9-13.9.9-5.5 3.4-17 5.7-25.5 5.3-20 15-54.2 15.6-55.2.8-1.2 1.8-1 6.6 1.2"/></svg>