<svg xmlns="http://www.w3.org/2000/svg" width="682.667" height="512" version="1.0" viewBox="0 0 512 384"><path d="M276.4 46.5c-1.8 1.2-2.2 2.8-2.7 11.7-.4 6.8-3.1 23.2-8.2 48.3-4.1 20.9-7.8 38.8-8.1 39.8s-2.2 2.5-4.2 3.5c-3.6 1.7-3.7 1.9-3.8 7.2-.2 7.1-1.4 14.9-2.5 15.6-1.3.8-1.1 4.2.6 7.3 1.3 2.7.8 5.1-7.5 38.2-9.7 38.4-11.7 45.6-14.9 53.7-1.2 3-2.5 7.7-2.9 10.5-.6 4.3-1.1 5.3-2.9 5.5-3 .4-5 4-5.1 9.2 0 2.9-1.3 7.2-3.6 12.2l-3.5 7.8 2.1 2c1.2 1.1 2.8 2 3.5 2 .8 0 1.6.6 1.9 1.3.3 1-9.1 46.8-12.3 59.4-.5 2.2-.2 2.3 5.4 2.3h5.9l2.3-11.3c1.3-6.1 4.1-19 6.2-28.4 2.2-9.5 3.9-17.5 3.9-17.8 0-.7 3.5-.6 5.3 0 1.7.7-1.1 12-9.8 39.2-3 9.4-5.5 17.4-5.5 17.7s37.8.6 84.1.6h84.1l-.7-6.3c-1.1-10.5-3.5-20.8-6.7-29.1-3-7.7-3.1-8.2-2-15.3.7-4 2.7-11.1 4.6-15.8 3-7.5 3.6-10.2 4.6-23.7.6-8.4 2.2-23.4 3.5-33.3 2.4-18.3 3.9-32.7 5-49 .4-5 1.6-13.1 2.6-18 4.3-19.3 3.3-47.1-2.2-64.4-4.4-13.8-5.3-15.7-10.6-21.2-9.6-10.1-26-15-43.3-12.9-22.8 2.8-28.9 6.4-41.8 24.8-3 4.2-6.6 8.9-8 10.4-2.9 3.1-1.9 3.7 1.7 1.1 1.4-.9 2.1-1.1 1.7-.4-1.1 1.7-1.3 8.1-.4 7.5.5-.3.8 1.2.8 3.3s.7 4.7 1.5 5.7c.8 1.1 1.5 1.4 1.5.8 0-2.1 2.8-1.3 3.3 1 .4 1.3 1.3 3.2 2.2 4.3 1.6 2 1.6 2 1.2-.3-.3-1.2-.1-2 .4-1.6 1.8 1.1.8 3.7-2.6 7.1-4 4-4 4.1-1.9 6.4.9 1 2 3.8 2.5 6.2 1.3 7.3 6 16.1 8.8 16.5 2.2.3 2.3.7 1.6 5-1.4 9.8-2.3 11.2-4.3 6.8-.8-1.9-2.4-2.7-7.4-3.8-6.3-1.3-6.3-1.3-9.5-7.3-1.8-3.3-4-8.5-4.9-11.5-4.2-13.7-5.5-16.5-10.6-21.7l-5.2-5.2 3.3-15.8c5.2-25.4 13.8-61.1 17.2-70.9 3.1-9 3.1-9.2 1.4-12.7-1.3-2.8-2.6-3.9-5.4-4.7-4.9-1.4-7.3-1.3-9.7.5M269 190c4.9 2.5 7.2 5 9.4 9.8 1.7 3.9 1.8 4.3.2 7.5-1.5 3.2-2 3.5-7.5 4.1-4.9.6-6.4 1.2-8.2 3.4-1.9 2.4-2.1 3.5-1.6 11.7.7 12.5 4.5 26.4 12.2 44.5 6.7 15.7 9.4 20 12.6 20 1 0 2 .4 2.3.9.7 1 2.6 18.4 2.1 18.9-.2.3-17.6-6.7-33-13.2-3.3-1.4-7.4-2.6-9.1-2.6-2.5 0-11.5-3.1-13.2-4.5-.2-.1.4-2 1.2-4.1.9-2.2 2-7.6 2.5-12 1.2-9.5 4.2-21.8 14.6-59.3 4.1-14.9 7.5-27.4 7.5-27.7 0-.7 3.8.5 8 2.6"/></svg>