<svg xmlns="http://www.w3.org/2000/svg" width="682.667" height="512" version="1.0" viewBox="0 0 512 384"><path d="M269 52.9c-2.8 2.7-2.9 3.1-2.3 9.7.5 6.7-.8 16.5-6.7 49.4-1 5.8-3 17.2-4.4 25.5-3.6 20.6-3.2 19.2-6.6 20-4.3 1-6 3.8-4.8 7.9.8 2.6.7 4.5-.6 8.2-.9 2.6-1.6 5.7-1.6 6.9 0 1.1-.5 2.6-1.1 3.2-1.4 1.4-.3 8.8 1.6 10.7 1.1 1 .5 4.7-3.1 20.7-12.1 53.7-16.8 72.5-20.5 81.7-1.8 4.5-2.9 9.2-2.9 12.1 0 4.9-1.3 7.1-4.1 7.1-2.7 0-6.1 5-5.8 8.5.3 4-1 11.4-2.6 14.5-.7 1.4-2.3 4.9-3.5 7.7-2.3 5.2-2.3 5.3-.4 7.4 1 1.2 3.4 2.8 5.2 3.6 2.9 1.2 3.3 1.8 2.8 3.9-.4 1.3-1.3 6.2-2.2 10.7-.8 4.5-1.7 9-2 9.9-.5 1.6.3 1.8 6.8 1.8h7.4l1.2-6.8c.6-3.7 1.6-9 2.2-11.9 1.1-5.2 1.2-5.2 4.3-4.6 1.8.3 3.4.7 3.6.9.3.2-.5 5.1-1.7 10.8-1.2 5.6-2.2 10.6-2.2 10.9 0 .4 39.1.7 86.9.7h86.9l1.5-2.3c.8-1.3 3.4-8.4 5.7-15.8 4-12.7 4.3-14.3 5.1-30.4.5-9.4.6-18.8.4-21-.3-2.2-.9-14.6-1.5-27.5-.9-24.9.1-41.9 3.3-54.5 7.4-28.2 10.5-54.4 8.8-73.7-1.1-12.8-3.5-24.6-6.1-29.8-.9-1.9-2-5.3-2.3-7.5-1-6.1-6.1-15.5-11.4-20.8-5.9-5.9-18.2-12.2-27.8-14.2-16.4-3.4-38.3-2.7-47.9 1.5-2.3 1-8.2 5.8-13.1 10.6-9.3 9.1-22.6 23.4-21.8 23.4.2 0 1.8-.7 3.4-1.6 1.7-.8 3.3-1.3 3.5-1.1.3.2-.4 2.8-1.6 5.6-1.1 2.9-1.6 5-1 4.6s1 .9 1.1 3.2c.1 2.1.4 5.1.8 6.8.6 2.8.7 2.9 1.8 1s1.2-1.8 2.5 1c.7 1.7 2.3 4.1 3.5 5.4 2.7 3 2.1 4.7-2.8 7.2-4.4 2.2-4.9 4.3-1.9 8.1 1.4 1.8 1.8 3.5 1.4 5.9-.3 2.1.3 5.9 1.5 9.8 1.2 3.5 2.1 7.2 2.1 8.2 0 2.1 2.8 3.9 6.2 3.9 4.4 0 4.9 1.1 3.3 6.9-.7 2.9-1.6 5.5-1.8 5.8-.3.2-2.2-.3-4.3-1.1l-3.9-1.6 3.9 3.5 3.9 3.4-1.3 4.6c-.7 2.4-1.8 4.9-2.4 5.3-.6.5-4.1.7-7.8.4l-6.8-.4-4.6-9.7c-2.5-5.3-5.6-13.7-6.9-18.6-3.9-14.8-5.2-17.7-11-23.9-3-3.2-5.5-6.6-5.5-7.4 0-3.7 11.1-60.4 14.6-74.7 1.3-5.5 3.4-12.6 4.5-15.7 2.5-6.8 2-9.8-2.1-13.9-2.3-2.4-3.7-2.9-7.5-2.9s-5.2.5-7.5 2.9m40 92.2c0 1.6-.4 2.8-.9 2.5s-.8-1.7-.8-3.1.3-2.5.8-2.5.9 1.4.9 3.1m-38.1 64.5c3.8 3.2 5.8 6.8 8.2 15.1 2.1 7.6 1.9 7.8-8.2 8.8-3.5.4-7.2 1.4-8.1 2.2-2.6 2.3-4.1 8-4 14.8.2 8.2 4.5 29.2 8.6 41.8 4.1 12.5 16 40.3 18.2 42.8 1.5 1.7-7.4-1.9-24.1-9.6-3.9-1.8-7.9-2.9-11.5-3-3-.1-8.3-1-11.7-2-6.9-2-7.7-3.5-4.8-8.5.8-1.4 1.4-5 1.5-8 0-3 1.3-12 3-20 2.7-13.6 15.3-65.2 18.6-76.7l1.5-5.3 4.8 2.5c2.7 1.3 6.2 3.6 8 5.1"/></svg>