<svg xmlns="http://www.w3.org/2000/svg" width="682.667" height="512" version="1.0" viewBox="0 0 512 384"><path d="M266.3 55c-3.4 1.4-4.3 4.2-4.3 14.2 0 5.1-1.1 16.5-2.5 25.3s-4.1 26.5-6 39.4c-2 12.9-4 24.1-4.4 24.8-.4.8-2.3 2.1-4.2 3.1-3.4 1.7-3.4 1.8-3.5 8.7-.1 3.8-1 9.5-2 12.5-2.3 6.9-2.2 15.9.1 17.6 1.5 1.1 1.3 2.4-1.4 15.5-12.7 61.1-17.7 82.6-21.6 92.4-1.3 3.3-2.5 8.5-2.7 11.5-.3 5.3-.4 5.5-4.6 7.8-5.1 2.8-8 7.7-6.3 10.4 1.6 2.6-1.3 14-6 23-1 2-1.9 4.6-1.9 5.6 0 1.9 6.5 7.2 8.7 7.2 2 0 2.4 1.7 1.4 5.9l-.9 4.1h15.6l.7-4c.4-2.2 1.1-4.3 1.7-4.6 1.6-1 7.7.6 7.3 1.9-.2.7-.6 2.4-.9 3.9l-.6 2.8h192.8l1.8-5.3c2.5-7.7 3-34.1.9-58.6-.8-10.8-2.2-28.8-2.9-40.1-1.3-19.4-1.3-20.9.5-28 1.1-4.1 3.9-17.3 6.4-29.2 5.7-27.9 7.3-46.2 5.6-62.6-1.5-13.9-4.5-27.4-7-31.6-1-1.7-2.4-5.8-3.1-9.1-3.9-18.7-18.3-31.8-41.1-37.6-9.2-2.3-34.7-5.1-36.8-4-.9.4-4.5 1.4-8 2.1-4.5 1-7.9 2.5-12 5.5-5.2 3.9-32.5 30.5-31.2 30.5.3 0 2.5-1.1 4.9-2.5 2.3-1.3 4.2-2.2 4.2-1.9s-1.1 2.7-2.5 5.4c-2.7 5.3-3.2 7.5-1.4 6.4.8-.4.9.3.4 2.5-.9 4.2.5 14.4 1.5 11.6.7-1.8.9-1.6 2 1.3.7 2 1.8 3.1 2.5 2.8.7-.2 1.8.6 2.5 1.9 1.6 3 .2 5.1-4.7 7.2-3.8 1.5-4.3 4.4-1.7 8.2 1.2 1.6 1.5 3.4 1 6.2-.4 2.2-.3 4.6.1 5.2.4.7.9 2.1 1 3.2.5 4.7 2.7 13.1 3.7 14.3.7.7 3.6 1.5 6.5 1.9 3.6.4 5.1 1 4.7 1.9-.3.7-.8 2.9-1.2 4.8-.8 4.6-1.4 4.9-5.3 3-4.6-2.3-4.9-1.1-.7 2.3 2 1.5 3.6 3.2 3.6 3.7s-.9 4-2 7.7c-1.9 6.4-2.5 7.2-7.3 10.4-2.8 1.9-6.4 3.5-7.9 3.5-2.5 0-3.2-.9-7.9-10.8-3.4-7-6.3-15.3-8.5-24.2-3.6-14-5.5-17.9-12.6-25.6-4-4.3-4-4.4-3.4-10.1C267.7 137 278 82.9 281.1 74c2.4-6.8 2.4-12.8.1-15.6-3.3-3.9-9.9-5.4-14.9-3.4m44.7 87.8c0 1.5-.2 1.5-1 .2-1.3-2-1.3-3.3 0-2.5.6.3 1 1.4 1 2.3m-48.7 69.3c9.6 6.3 14.4 14 16.3 26 .7 4.4-.3 5-9.6 5.4-6 .4-6.7.7-9 3.6-7.2 9.3-.7 49.7 13.1 82 2.9 6.6 4.9 12.2 4.7 12.4-.3.3-5.3-1.5-11.1-4-9.3-4-11.5-4.6-16.9-4.4-5.5.1-17.1-2-18.5-3.5-.3-.3.2-2.4 1-4.8.9-2.4 1.9-8.1 2.2-12.8.9-12.6 4.2-29 15.6-78 5.9-25.2 5.8-25 6.8-25 .4 0 2.9 1.4 5.4 3.1"/></svg>