<svg xmlns="http://www.w3.org/2000/svg" width="682.667" height="512" version="1.0" viewBox="0 0 512 384"><path d="M264.4 56.9c-4.2 1.8-5.6 5.6-4.9 13.4.7 7.7.4 10.6-6.5 58.2-5.1 35.8-4.4 32.9-8.5 34.4-4.5 1.6-5.7 3.9-4.7 8.8.6 2.7.3 5.7-1.1 10.8-3.1 10.9-3.3 16.2-.8 19.5l2 2.8-3.4 17.4c-10.1 50.9-16 77.5-19.2 86.3-1.4 3.8-2.9 10.1-3.4 13.9-1 8.7-1.4 9.6-3.8 9.6-1 0-3.2 1.3-4.9 2.8-2.8 2.6-3 3.2-2.9 10.2 0 5.7-.5 8.6-2.1 11.9-1.2 2.5-2.2 5.2-2.2 6 0 .9-.9 2.9-2 4.6-3.1 4.8-2.6 6.9 2.7 10.4 2.5 1.7 5.3 3.1 6.1 3.1s1.2.6.8 1.5c-.4 1.3.8 1.5 7.9 1.5 7.7 0 8.5-.2 8.5-1.9s.4-1.8 4-.9c2.2.6 4 1.4 4 1.9s43.2.9 100 .9h100v-24.8c0-14.2-.6-30.8-1.5-39.2-.8-8-2.1-24.1-2.9-35.7L424 263l3.5-16.1c9.3-42.3 9.9-46.3 9.9-71.4.1-20.6-.2-24-2.2-32.5-1.3-5.2-3.2-11.3-4.3-13.5-1.2-2.2-2.9-7.2-3.9-11.1-6.4-24.6-28.7-39.6-62.8-42-5.1-.4-9.5-1.1-9.8-1.5-.8-1.3-4.1-1.1-9.3.6-2.5.9-6.4 2-8.7 2.5-6.7 1.6-16.1 8.7-29.6 22.2-6.9 7.1-12.3 12.8-12 12.8.4 0 2.9-1.1 5.5-2.5l4.8-2.6-3.6 7c-3.8 7.7-4.2 8.9-2.2 7.2 1.2-.9 1.3.2.9 6.4-.3 5.2-.1 7.5.7 7.5.6 0 1.1-.8 1.2-1.8 0-1.5.7-.1 2.5 5.7.3 1 .8 1.1 1.8.2s1.5-.8 2 .4c.3.9 1 1.3 1.6 1 1.5-.9 1.2.8-.6 3.3-.9 1.3-3.3 3-5.5 3.9-4.5 1.8-5 3.9-1.8 8.4 1.8 2.5 1.9 3.4.9 6.4-.8 2.5-.8 4 0 5.5.6 1.1.8 2.5.5 3.1-.4.5-.2 1.5.3 2.2s1.3 3.4 1.7 6.2c.9 6.2 1.7 7.3 6.4 8 8.4 1.4 8 1.1 6.7 5.4-1.5 5.3-1.8 5.5-6 3.7-4.6-1.9-4.6-.9 0 2.9l3.5 3-2.3 8.2c-2.2 7.8-2.5 8.3-7.3 11.5-2.7 1.8-5.4 4.3-6 5.5-.6 1.5-1.8 2.3-3.3 2.3-2 0-3.1-1.7-7.8-11.7-3.5-7.4-6.5-15.9-8.4-23.5-3.7-15-5.4-18.9-11.8-26.3-2.9-3.3-5.2-6.5-5.2-7-.1-9.4 11.1-73.3 15-85.7 3.1-9.8 2.4-15.8-2.1-18.6-2.6-1.7-9.9-2.4-12.5-1.3m3.2 163.7c5.2 5 6.5 7.1 8.2 12.5 3.9 12.7 3.9 12.5-1.2 13.8-2.5.6-6.5 1.1-9 1.1-4 0-4.7.4-6.6 3.4-1.1 1.9-2.6 6-3.3 9.1-2.5 12.3 6.4 53.9 16.4 76.2 1.6 3.6 2.8 6.7 2.6 6.9s-4.1-1.2-8.8-3.2c-8.4-3.6-8.4-3.6-18.4-2.3-2.1.2-16-3.8-16-4.7.1-.5.6-2.7 1.2-4.9s1.6-9.4 2.2-16c1.2-13.1 3.6-25.4 13.8-71.2l6.7-30.2 3 1.7c1.7.9 5.9 4.4 9.2 7.8"/></svg>