<svg xmlns="http://www.w3.org/2000/svg" width="682.667" height="512" version="1.0" viewBox="0 0 512 384"><path d="M258.9 62.5c-2.3 2.3-2.4 3.1-2.4 15.7-.1 9.7-1.2 22-4.3 45.2-5.8 43.6-4.9 39.6-8.8 41.2-4.4 1.9-5.4 3.9-5.1 11.5.1 4.5-.5 8.5-2.2 13.5-2.7 8-2.4 13.1 1 16.3l2 1.9-2.1 11.8c-9.5 52.7-17.1 89.2-20.1 96.5-1.2 3-2.5 8.8-2.8 12.9-.6 7.4-.6 7.5-4.2 9.2-4.2 1.9-8.9 7.1-8.9 9.8 0 .9.7 2.3 1.5 3 1.1.9 1.2 1.7.5 3.1-.6 1-1.5 3.8-2 6.1-1.7 7.8-3.5 13.3-5.3 16-1 1.5-1.7 3.7-1.5 5l.3 2.3 122.8.3 122.7.2v-8.7c0-11.1-1.5-30.8-4-53.8-1-9.9-2.7-25.9-3.6-35.5l-1.6-17.5 3.6-17c9.6-45.8 12-68.5 9.7-91.5-1.4-13.4-4.5-27.1-7.3-31.8-1.1-1.8-2.6-6-3.4-9.4-6-25.5-28.8-42-63.6-46-8.3-.9-9.8-1.4-10.4-3-.5-1.6-1.2-1.9-3.7-1.4-1.7.3-3.8 1.3-4.6 2-.9.8-5 2.2-9 3-10.6 2.2-16.4 6.2-32.5 21.9-12.1 11.9-13.5 13.6-10.1 12.1 2.2-.9 4.6-2.1 5.3-2.6 3.2-2.7 1.6 1.8-4.1 11.1-1.9 3.1-1.9 3.4-.3 2.8s1.7-.1 1 7.5c-.5 6-.4 7.9.5 7.4.6-.4 1.1-1.5 1.2-2.4.1-2 .4-1.2 2 4.8l1.2 4.5 1.2-3.5c1.2-3.5 1.2-3.5 2-1 .4 1.4 1.2 2.8 1.8 3.2 1.7 1-1.2 3.9-6 6s-5.5 4.6-2.7 8.6c1.2 1.8 1.4 3.2.8 6-.4 2-.7 4.4-.5 5.2.1.8.5 2.6.7 4 .3 1.4.8 5.3 1.2 8.8.4 3.4 1.4 6.9 2.3 7.7.8.8 4.3 1.8 7.7 2.1l6.3.7-.7 3.1c-.9 4.4-1.8 5-5.9 3.6-5.1-1.7-5.2-.8-.5 2.5 2.3 1.6 3.9 3.3 3.7 3.9s-1.4 4.8-2.7 9.4c-2.2 7.7-2.6 8.4-6.6 10.7-6 3.6-8.7 7.2-8.1 11.2.6 3.5-1.1 5.7-3.8 5.1-2.5-.5-13-23.8-15-33.3-4.3-19.8-5.7-23.4-12.3-31.9-2.6-3.3-5.1-6.7-5.6-7.4-1.1-1.8 4.6-46.9 8.9-69.7.9-4.4 2.7-11.9 4.1-16.8 2.3-7.7 2.5-9.1 1.3-11.8-2.8-6.8-14.3-9.4-19-4.4m8.4 162.4c2 2.2 4.5 5.7 5.5 7.8 1.8 3.5 5.2 15.4 5.2 18 0 1.4-12 4.2-15.3 3.6-2.1-.4-3 .2-5.4 3.8-2.8 4.2-2.8 4.5-2.8 18.8.1 11.9.6 17.1 2.9 28.1 3 14.9 8 32.9 10.3 37.4 1.4 2.7 1.4 2.8-.3 2.2-6.3-2.4-10.4-2.9-14.1-1.7-3.3 1-4.9.9-11.7-.9-4.4-1.1-8.2-2.2-8.4-2.5-.3-.2.3-2.4 1.2-4.8 1-2.7 1.6-7.3 1.6-12.5 0-4.5.7-12.8 1.5-18.5 1.5-9.7 12.6-66.3 16.1-81.4l1.6-7.3 4.2 2.9c2.3 1.6 5.9 4.7 7.9 7"/></svg>