<svg xmlns="http://www.w3.org/2000/svg" width="682.667" height="512" version="1.0" viewBox="0 0 512 384"><path d="M273.9 200.4c-6.3 1.7-12.9 5.7-17.3 10.6-2.7 3-5.2 4.6-8.9 5.7-7.1 2.1-12.3 5.8-17.8 12.6-10.7 13.3-13.1 24.8-9.4 44.4 3.5 18.3 14.7 39.6 26.7 50.9 16.2 15.3 34.5 14.8 55.8-1.5 3.6-2.8 7.2-5 8.1-5.1 1.6 0 3.6 4.2 6.7 13.5.9 2.6 1 2.3.9-2.7-.1-3.1-.5-5.2-.8-4.6-.3.5-.9.2-1.3-.8-.4-.9-.2-2.2.4-2.8.8-.8.9-.6.4.7-.4 1.2-.2 1.7.7 1.5 1.1-.2 3.4 4.2 6.2 11.7.2.6 1.1.4 2.1-.4 2.3-1.9 1.3-6.9-3.4-15.7l-3.8-7.2 5.7-5.4c3.1-3.1 8.1-7.4 11.1-9.8 6.1-4.7 9.8-8.7 12.6-14 1.5-2.8 1.9-5.6 1.9-14 0-9.8-.2-11-3.3-17.4-10.1-21.5-32-40.5-55.7-48.4-8.4-2.9-12.3-3.3-17.6-1.8"/></svg>