<svg xmlns="http://www.w3.org/2000/svg" width="682.667" height="512" version="1.0" viewBox="0 0 512 384"><path d="M119 1.4c0 2.6 2.1 2.9 4.3.7l2.1-2.1h-3.2c-2.1 0-3.2.5-3.2 1.4m12.1.5c1.3 1 3.4 2.1 4.7 2.5 1.9.6 2.2.4 2.2-1.8 0-2.4-.3-2.6-4.6-2.6h-4.7zm131.4 58.8c-1.1.3-3.3 1.7-4.9 3.1-2.8 2.6-2.8 2.8-2.1 10.2.9 10.1 1 9.9-3.5 47.5-5.5 46.3-4.7 42.2-8.2 43.6-4.6 1.9-6 4.8-5.2 10.8.5 4 .1 6.6-2.1 13.1-3 9.4-2.8 14.8.9 17.7l2.2 1.8-6.7 37c-9.3 50.6-11.6 61.6-15 71.6-1.6 4.8-2.9 10.6-2.9 13 0 6.4-.9 8.7-3.6 9.3-5.7 1.5-11.3 10.3-8.4 13.2 1.2 1.2-.6 11.6-2.6 15.6-.8 1.4-1.4 3.4-1.4 4.5 0 1-.9 3.1-2 4.8-1.1 1.6-2 3.8-2 4.7 0 1.7 6.6 1.8 124 1.8h124.1l-.6-14.2c-.4-7.9-1.5-22.2-2.6-31.8s-3.1-28.8-4.5-42.5l-2.4-25 4-20c9.1-46.4 11.3-67.5 9-90.5-1.2-12.8-5.1-28.9-7.9-32.9-1-1.4-2.4-5.1-3-8.2-1.6-7.4-6.3-17.1-11.2-23-5.3-6.3-18.4-15-27.9-18.4-7-2.5-26.4-6.5-31.5-6.5-1.4 0-2.5-.7-2.8-2-.7-2.6-6-2.7-8.5-.3-.9 1-4.6 2.4-8.2 3.1-9.2 1.9-14.3 4.4-22.4 10.9-9.5 7.7-18.7 16.4-18.1 17.3.3.4-1.3 2-3.5 3.5-5.4 3.7-4.2 4.4 2 1.2 2.7-1.4 5-2.4 5-2.1s-1.9 4-4.2 8.2-3.5 7.1-2.6 6.4c1.5-1.2 1.6-.6 1.1 6.8-.6 8.1-.1 9.8 1.8 5.7l1-2.2-.5 2.2c-.2 1.2.2 3.9.9 6l1.3 3.8 1.2-3c1-2.7 1.3-2.8 2.1-1.2 2 3.5.6 6.1-4.3 8.5-5.4 2.5-5.8 4-2.7 9.1 1.7 2.8 1.9 3.9 1 5.8-1 2.1-.2 15 1.5 24 .4 2.3 3.5 3.6 11.3 4.8 4.2.7 4.3.8 3.7 3.8-.3 1.7-.9 3.3-1.1 3.6-.3.3-2.7-.3-5.3-1.2l-4.7-1.7 4 3.5c2.2 1.9 4.3 3.5 4.7 3.5s0 2.1-.8 4.7c-.8 2.7-2.1 7.1-3 10-1.3 4.7-2.1 5.5-6.4 7.9-5.7 3.1-8.3 7.4-6.9 11.2.8 2 .5 3-1.2 4.9-1.3 1.2-2.8 2.3-3.4 2.3s-3.8-5.7-7-12.8c-4.5-9.6-6.7-16.2-9.2-27.1-3.6-16-5.2-19.7-12.3-28.7l-4.8-6.1 1.8-17.4c3.3-31.9 8.2-61.7 11.5-69.5 2-4.7 1.9-8.8-.1-12-2.6-3.9-9.4-6.7-13.9-5.7m-1.9 159.1c4.6 3.4 9.8 9.1 11.9 13.1 2.1 4.1 5.8 18 5.2 19.5-.6 1.6-8.2 3.6-13.5 3.6-7.5 0-10.6 6.6-10.4 23 .1 15.8 5.9 47.2 11.8 64 .4 1.2-.7 1.5-5.5 1.7-3.4.1-7.1.2-8.3.3-2.1.1-16.7-2.9-17.7-3.7-.2-.1.4-2.4 1.5-5 1.3-3.6 1.8-7.9 2-16.8.2-12.8.7-16.1 11.5-71.3 3.4-17.1 6.5-31.2 6.9-31.2s2.5 1.3 4.6 2.8"/></svg>