<svg xmlns="http://www.w3.org/2000/svg" width="682.667" height="512" version="1.0" viewBox="0 0 512 384"><path d="M113 1.1c0 .6 1.8 3.3 4 5.9 3 3.6 4 5.7 4 8.3 0 7.6 2.8 9 5.6 2.7 1.6-3.5 2-3.8 3.3-2.6 2.3 2 7.7 4.6 9.6 4.6 2.2 0 1.8-2.6-1-6.8-1.4-2-2.5-4-2.5-4.4 0-.3 1.9-2.5 4.3-4.7l4.2-4.1h-15.7C117.9 0 113 .3 113 1.1m145.1 63.3c-2.2 2.4-2.3 2.9-1.6 12.8.5 8.3.1 15.6-2.4 37.8-5.9 51.9-5.2 48.4-10.1 50.4-5 2-6.2 4.4-5.4 10.5.5 3.9.1 6.7-2.1 13.4-2 6-2.6 9.4-2.1 11.9.6 3.4 3.3 7.2 5.7 8 1.2.4.6 4.7-6.6 46.8-6.2 36-9.6 52.3-12.6 61.3-1.9 5.8-2.9 10.8-2.9 14.8 0 5.9-.1 6-3.4 7.4-4.4 1.9-9.6 7.1-9.6 9.7 0 1.2.7 2.9 1.5 3.8 1.3 1.5 1.3 2-.1 4.8-.8 1.8-1.4 4.2-1.3 5.4.2 1.3-.5 3.7-1.4 5.5s-1.7 4.2-1.7 5.3c0 1.2-.9 3.3-2 4.7-4.4 5.6-12.3 5.3 121.5 5.3H445l-.6-11.8c-.3-6.4-1.7-21.4-3-33.2-5.1-44.5-6.7-60.6-6.8-65.5 0-2.8 1.6-12.9 3.7-22.5 6.4-30.6 8.7-46.3 9.4-63.9.9-25.2-2.3-47.6-8.3-59.1-1.3-2.5-2.4-5.4-2.4-6.5s-1.1-5-2.4-8.7C428.7 96 413.8 82.9 393 76.2c-6.4-2.1-22.2-5.2-26.4-5.2-1.2 0-2.5-.9-3.1-2.3-1.3-2.8-5.8-2.7-9 .3-1.2 1.1-3.2 2-4.6 2-5.2 0-15.7 3.8-21.4 7.7-6.9 4.7-21.7 17.9-22.6 20.2-.4.9-2.1 2.7-3.9 3.9-4.4 3.3-3.2 3.7 2.3.7 2.6-1.3 4.7-2.2 4.7-1.8 0 .3-1.6 3.5-3.5 7-3.7 6.7-4.1 7.8-2.6 6.9.5-.3.7 3.2.4 8.2-.4 8.3-.3 8.6 1.2 6.2.9-1.4 1.4-1.7 1.1-.8s.1 3.6.8 6l1.2 4.3 1.3-3.5 1.2-3.5 1.3 3c1.7 3.8.1 6-5.6 7.7-3 .9-3.8 1.6-3.8 3.6 0 1.3.8 3.7 1.7 5.3 1.5 2.5 1.5 3.4.4 6.4-.7 2-.9 4.5-.5 5.8.8 2.4.9 3.6 1.2 11.9.2 7.2 2 9.3 9.1 10.2 8.5 1.1 8.9 1.4 7.1 6l-1 2.6-4-1.6c-5.5-2.2-5.9-1.3-1 2.1 2.2 1.5 4 3.2 4 3.8s-1.2 5-2.7 9.8c-2.4 8.3-2.9 9.1-6.7 11.3-6.6 3.9-8.9 6.9-8.3 10.8.4 2.5-.1 4.2-2 7-1.4 2.1-2.8 3.8-3.2 3.8-.3 0-1.5-2.1-2.5-4.8-1.1-2.6-3.7-8.4-5.8-12.8-2.2-4.8-4.8-12.8-6.3-19.5-4.1-18.4-5.4-21.9-11.1-30.2l-5.5-7.7 1.1-12.8c2.7-31.5 7.7-66.2 10.5-73 1.7-4 2-11.5.5-14.3-1.6-2.9-6.4-4.9-11.8-4.9-3.9 0-5.3.5-7.1 2.4m4.6 158.2c2.5 2 6 6 7.8 8.8 3.1 4.6 7.5 17.5 7.5 21.8 0 2.1-6.3 4-13.3 4-4.4 0-5 .3-7.3 3.7-3.4 5.2-4.7 13.7-4 25.6.8 12.5 3.9 31.6 7.5 45.9 2.4 9.5 2.6 10.9 1.2 11.3-.9.3-2.5.9-3.7 1.5-1.5.7-3.4.6-6.5-.5-2.4-.8-6.5-1.8-9.2-2.2-2.6-.4-4.9-1-5.1-1.4-.2-.3.3-2.4 1.1-4.6 1-2.6 1.6-8.3 1.8-16 .2-12.1 1.6-21.2 10.4-69 4.7-25.3 6.2-32.5 6.9-32.5.3 0 2.5 1.6 4.9 3.6"/></svg>