<svg xmlns="http://www.w3.org/2000/svg" width="682.667" height="512" version="1.0" viewBox="0 0 512 384"><path d="M120.1 3.7c-.6 2.1-1.1 4.3-1.1 4.9s-1.3.9-3 .6c-4.3-.6-5.3 2.4-1.7 5 1.5 1.1 2.7 2.6 2.7 3.3 0 .8.9 1.7 2 2 1.2.4 2 1.5 2 2.9 0 3 2 8.6 3 8.6 1.5 0 4-4.3 4-6.8v-2.3l2.8 2.1c1.5 1.1 4.4 2.3 6.5 2.7 3.3.5 3.7.3 3.7-1.5 0-1.1-1.1-3.4-2.5-5-2.5-3-3.3-6.2-1.6-6.2 1.1 0 7.1-7.9 7.1-9.3 0-1.7-10.3.1-13.2 2.3l-2.7 2-.7-2.3c-1-3.1-3.7-6.6-5.1-6.7-.7 0-1.7 1.7-2.2 3.7m138.5 61.4c-2.9 3.4-3.1 5.7-1.5 13.8 1.2 5.7.1 17.9-6.1 68.5-1.1 8.8-2 16.1-2 16.2s-1.7.9-3.7 1.7c-5.9 2.3-7.7 4.9-6.9 9.7.6 4.1-1.6 15.5-3.5 17.5-.5.5-.9 3.5-.9 6.7 0 6 1.5 8.7 6.3 11.5 1.7.9 1.5 2.9-3.7 33.4-9.7 56.9-11.4 65.4-15.6 77.3-1.2 3.3-2.1 7.8-2 10 .3 6.3.2 6.5-3.3 7.9-3.2 1.4-9.7 7.9-9.7 9.8 0 .5.7 2 1.5 3.3 1.4 2 1.4 2.7 0 6-.9 2.1-1.3 4.5-1.1 5.4.3.9-.3 3-1.4 4.7-1.1 1.6-2 4.1-2 5.5s-.7 3.4-1.5 4.4c-.8 1.1-1.5 2.8-1.5 3.8 0 1.7 5 1.8 122.6 1.8h122.7l-.7-13.8c-.4-7.5-1.1-17.1-1.6-21.2-2.1-15.9-5-41.3-6.6-58.7l-1.8-18.1 3.7-18.9c7.5-38.7 8.3-43.6 9.7-63.1 1.6-22.5-2.2-50.1-8.6-62.2-1.3-2.5-2.4-5.5-2.4-6.7 0-3.8-4.4-14.6-8.4-20.5-9.4-14.3-28.6-24.5-53.3-28.5-9.7-1.6-11.3-2.1-11.5-3.8-.4-2.9-3.4-3-7.6-.2-2.1 1.4-6.7 2.9-10.6 3.6-8 1.4-12.9 3.7-20.6 9.6-7 5.4-19.3 16.5-18.3 16.5.5 0-1.2 1.8-3.7 4l-4.5 4 4-1.6c2.2-.9 4.6-2.1 5.3-2.6q3.9-3.3-1.8 6.6c-4.5 7.7-4.5 7.7-2.6 7 1.1-.4 1.2.3.5 3.8-.4 2.4-.8 6.3-.8 8.8 0 4.4 0 4.4 1.4 2l1.4-2.5.1 3.5c.1 1.9.5 4.4 1 5.5.7 1.8.9 1.7 2-1.3 1.4-3.8 3-2.7 3 2 0 3-2.5 5.1-7.2 6.2-3.3.8-3.7 3.8-1.1 8.4 1.5 2.6 1.5 3.5.4 7-.8 2.2-1 4.5-.6 5.2.8 1.3 1.6 8.6 1.5 14 0 5.7 2.2 7.4 10.8 8.6 6 .8 6.6 1.3 5.7 5.3-.7 3.1-.8 3.1-8 .6-1.2-.4-.6.6 1.8 2.7 2 1.8 3.7 3.9 3.7 4.7 0 .7-1.2 5.1-2.6 9.7-2.4 7.8-2.9 8.5-6.9 10.9-6 3.5-8.8 7.2-8.1 10.8.4 2-.2 3.9-2 6.7-1.5 2.2-3 4-3.4 4-1.5 0-12.9-27.6-14-34-2.8-16.2-4.9-22.3-10.7-30.9l-5.6-8.3 1.2-14.7c2.8-33 5.8-55.4 9.7-70.9 2-7.8 2.4-11.1 1.7-13.5-1.2-4.5-6.4-7.7-12.4-7.7-4.1 0-5.1.4-7.3 3.1m8.1 163.9c2.4 2.4 5.2 6.3 6.2 8.6 2.4 5 5.4 16.2 4.8 17.8-.6 1.4-9.3 3.6-14.1 3.6-11.7 0-13.8 24.7-5.5 64.7 1.7 8.2 3.3 16 3.6 17.5.8 4.4-2.4 5.3-10.3 2.8-3.6-1.1-7.6-2-8.8-2-3.9 0-4.5-1.7-2.5-7.1 1.4-3.6 1.9-7.6 1.9-15.2 0-10.1 2-24.2 7.6-54.7 1.4-7.4 3.4-18.5 4.5-24.5 1.1-6.1 2.5-12.9 3.1-15.3 1-4.2 1.1-4.3 3.2-2.5 1.1 1 4 3.8 6.3 6.3"/></svg>