<svg xmlns="http://www.w3.org/2000/svg" width="682.667" height="512" version="1.0" viewBox="0 0 512 384"><path d="M118 10.6c-.6 1.4-1 3.6-1 5 0 2-.5 2.4-2.9 2.4-5.1 0-4.3 4.4 1.2 6.3 1.9.7 2.2 2.2.7 3.2-2 1.3-1 2.4 1.4 1.5 2.8-1 3.6-.5 3.6 2.7 0 2.4 2.6 7.3 4 7.3 1 0 3-4.7 3-7 0-1.7.2-1.8 2.8-.4 1.5.7 4.4 1.4 6.5 1.4 5 0 5-2.8.1-6.7l-3.7-2.9 3.6-4.7c3.4-4.5 5.3-8.4 4.5-9.3-.8-.7-10.7 3-12.8 4.9-2.2 1.8-4 1.5-4-.7 0-1.3-4.1-5.6-5.3-5.6-.4 0-1.2 1.2-1.7 2.6m142.4 53.7-2.9 2.5-.1 17.4c0 10-.7 22.5-1.7 29.8-.9 6.9-2.6 21-3.8 31.3l-2.2 18.8-4.8 2.5c-5.6 2.8-7.3 5.4-6.5 9.7.6 3.1-1.4 11.8-4.1 17.4-2.4 5-1.2 13.1 2.5 16.4 1.6 1.5 3.6 2.9 4.3 3.1 1.1.4.6 5.3-2.9 26.4-8.9 53.3-11.8 68.1-15.7 79.9-1.4 4.4-2.5 9.8-2.5 12 .3 6.1.3 6.1-4.1 8-4.4 2-8.9 6.7-8.9 9.2 0 .9.7 2.5 1.7 3.5 1.4 1.6 1.4 2.2.3 4.3-.7 1.4-1.4 3.9-1.5 5.7 0 1.8-.9 4.7-1.8 6.5s-1.7 4.3-1.7 5.6c0 1.4-.7 3-1.5 3.7s-1.5 2.3-1.5 3.6v2.4h244.3l-.6-14.5c-.4-7.9-1.1-17.7-1.7-21.7-1.8-13.3-4.8-40.1-6.6-57.8l-1.7-17.5 3.6-18.5c8.7-44.2 9.9-53.6 10-75 0-20.5-3.4-41.2-8.3-49.7-1-1.7-2.4-5.7-3-8.9-5.3-25.2-27.2-42.4-61.2-48-8.8-1.4-10.6-2-11.4-3.8-1.3-2.9-3.5-3-7.5-.3-2.1 1.4-6.5 2.9-11.3 3.7-5.5.9-9.4 2.3-13.6 4.9-6.1 3.7-26.9 21.1-25.4 21.1.5 0-1.1 1.8-3.6 4l-4.5 4 4-1.6c2.2-.9 4.6-2.1 5.3-2.6 2.8-2.4 2.1.4-1.7 6.7-2.3 3.7-4.1 6.9-4.1 7.1s.8 0 1.7-.3c1.3-.5 1.5-.2.9 1.2-.3 1-.9 5.2-1.1 9.4-.5 7.2-.4 7.4.9 4.6l1.5-3 .2 3c0 1.6.4 4.1.9 5.5l.7 2.5 1.5-3.4c1.2-2.6 1.6-3 2.2-1.6 1 2.7.7 6.2-.6 7.3-.7.6-2.9 1.4-4.8 1.9-4.2 1.1-4.8 3.2-2.4 8.4 1.5 3.4 1.5 4.4.4 7.8-.7 2.1-.9 4.5-.5 5.1.5.7 1 4.5 1.2 8.4s.6 8.1.8 9.2c.5 2.5 3.9 4 10.8 5 5.5.7 6.1 1.4 5.2 5.4l-.6 2.9-5.2-1.9-5.2-1.9 3.1 2.8c1.8 1.6 3.9 3.3 4.8 3.8 1.3.7 1.2 2-1.6 10.5-2.9 9.2-3.3 9.9-7.2 12.2-6 3.5-7.9 6-7.8 10.2.1 2.6-.7 4.9-3 8-1.7 2.5-3.5 4.1-3.9 3.7-.3-.5-3-6.2-5.8-12.7-3.4-7.9-6-15.9-7.7-23.7-3.2-15.5-4.4-18.7-10.4-27.6-2.7-4.1-5-7.9-5-8.4s1.1-12.3 2.5-26.1c3.4-33.5 6-51.4 9.1-62.2 2.5-8.4 2.5-9.1 1.1-12.2-2.1-4.2-5.6-6.5-11-7.1-3.6-.4-4.8-.1-7.3 2m10.3 173c1.4 2.1 3.7 7.5 5 12 2.8 9.5 2.4 10.1-5.6 11.3-10.9 1.5-13.7 3.7-16.2 12.8-2.7 9.8 1.4 51.8 6.6 66.8 1.7 5.1.3 6.3-5.3 4.4-2.3-.8-6.7-2-9.8-2.5-3.2-.6-5.8-1.2-6-1.4-.1-.1.6-2.7 1.6-5.7 1.5-4.2 1.8-7.1 1.4-12-.6-6.7.5-14.7 6.8-50.5 1.6-9.4 3.6-20.6 4.4-25s2.1-11.5 3.1-15.8l1.6-7.8 4.9 4.8c2.7 2.6 6.1 6.5 7.5 8.6"/></svg>