<svg xmlns="http://www.w3.org/2000/svg" width="682.667" height="512" version="1.0" viewBox="0 0 512 384"><path d="M115.6 16.1c-.3 1.3-.7 4-.8 5.9-.3 2.9-.7 3.6-2.8 3.8-4 .6-4.8 2.1-2.1 4.3 1.3 1 3.2 1.9 4.2 1.9 2.3 0 2.5 1.3.4 3-.8.7-1.5 1.9-1.5 2.7 0 1.1.6 1 2.6-.6 2.9-2.3 4.4-2 4.4 1 0 2.5 2.8 6.9 4.5 6.9 1.5 0 2.5-2.2 2.5-5.5 0-2.2.2-2.3 6.5-1.7 5.4.4 6.5.2 6.5-1.1 0-1.5-4.7-6.1-7.2-7-1.1-.4-1.1-.8 0-2.3 2.2-3.3 6.4-12.5 5.9-13-.8-.9-10.2 3.7-12.9 6.4-2 1.8-2.8 2.1-2.8 1.1 0-.8-1.6-3-3.4-4.8l-3.5-3.4zm148.8 46.6c-4 .8-6.9 5-6.7 9.6.6 14.2.3 26.8-1.1 37.7-.8 6.9-2.5 20.8-3.6 31-2.8 25.3-2.6 24.3-6.5 26.4-5.5 3-7.8 6.1-8.1 11-.3 4.5-3.9 16.4-5.5 18.1-1.4 1.4-1.1 8.1.5 12 .8 1.8 3.1 4.4 5 5.7 2.2 1.4 3.6 3.1 3.6 4.4 0 2.3-7.2 45.5-12.1 72.9-1.7 9.3-4.4 20.9-6 25.6-1.9 5.8-2.9 10.6-2.9 14.7 0 5.7-.1 6.1-2.8 7-4.2 1.4-10.2 7.1-10.2 9.5 0 1.1.7 2.8 1.5 3.7 1.3 1.5 1.3 2-.1 4.9-.9 1.8-1.4 4.4-1.1 5.9.3 1.7-.2 3.5-1.4 5.1-1 1.3-1.9 3.6-1.9 5 0 1.5-.7 3.6-1.5 4.7-.8 1-1.5 2.9-1.5 4.1v2.3h244l-.5-4.3c-.2-2.3-.7-8.9-1-14.7s-1.8-21.3-3.4-34.5-3.7-31.7-4.7-41l-1.7-17 3.6-18c9.5-47.2 11.7-69 9.3-92.1-1.6-14.8-4.6-27.8-7.6-33.1-1-1.7-2.4-5.7-3-9-5.2-25.4-28.7-43.2-64-48.4-5.2-.7-8-1.6-8-2.4 0-3.6-5.2-4.1-8.5-.8-.9.8-5.6 2.3-10.5 3.2-6 1.2-10.5 2.8-14.2 5-5.6 3.4-26.6 21.1-25.1 21.1.4 0-1.2 1.8-3.7 4l-4.5 4 4-1.6c2.2-.9 4.6-2.1 5.3-2.6 1.6-1.4 2.8-.2 1.5 1.4-.5.7-2.4 3.9-4.2 7-2.5 4.5-2.9 5.6-1.5 5.1s1.6-.3 1.1 1.1c-1 2.6-2.1 15.6-1.3 15.6.4 0 1.1-1 1.6-2.3.8-2.1.9-2 1 .8.1 1.6.5 4.1 1 5.5l.7 2.5 1.5-3.4c1.2-2.6 1.6-3 2.2-1.6 1 2.7.7 6.2-.6 7.3-.7.6-2.9 1.4-4.8 1.9-4.2 1.1-4.8 3.2-2.4 8.4 1.5 3.4 1.5 4.4.4 7.8-.7 2.1-.9 4.4-.5 5.1.4.6.9 4.4 1.1 8.3.2 4 .6 8.2.9 9.3.5 2.5 3.9 4 10.8 5 5.5.7 6.1 1.4 5.2 5.4l-.6 2.9-5.2-1.9-5.2-1.9 4.6 4.2 4.7 4.2-3.2 9.2c-2.9 8.7-3.4 9.5-7.6 12.1-6 3.8-7.3 5.6-7.2 9.8.1 2.6-.8 4.8-3.5 8.4-2 2.7-3.8 4.8-3.9 4.7-1.5-1.5-10.5-24.7-11.3-29.2-3.6-18.7-6-25.3-12.7-34.8-4.1-5.8-4.2-7.1-1.4-35.6 2.8-27.9 5.7-49.5 7.5-56.1 3.7-13.2 4-16 2.5-18.7-2.8-4.9-9.1-7.7-14.6-6.6m8.2 182.7c1.2 2.8 2.9 7.5 3.8 10.4l1.5 5.3-2.7 1c-1.5.6-5.4 1.5-8.7 2-7.2 1.2-8.9 2.6-11.4 9.5-2.9 7.7-3.5 16.4-2.1 30.5 1.1 11 4.8 33.3 6.6 39.8.5 1.8.4 2.2-.7 1.8-2.9-1.2-11.5-3.6-15.1-4.2-4.3-.7-4.4-.9-2.1-6.1 1.2-2.8 1.6-6.3 1.4-12.3-.1-4.6.8-14.5 1.9-22 2.3-15.4 10.4-61 12.2-68.5l1.1-5 6 6.4c3.3 3.5 7 8.6 8.3 11.4"/></svg>