<svg xmlns="http://www.w3.org/2000/svg" width="682.667" height="512" version="1.0" viewBox="0 0 512 384"><path d="M130 20.1c-1.9 1.2-4.9 3.4-6.5 5l-3 2.8-3.8-3.5c-4.6-4.4-6.1-3.7-5.4 2.6.6 4.7.5 4.8-2.6 5.7-4.5 1.2-4 3.5 1.1 5.2 4.3 1.3 4.3 1.3 2.7 3.8-2.2 3.4-1.1 4.2 1.9 1.4l2.5-2.3 1.5 3.6c1.9 4.5 4.4 7.2 5.6 6 .5-.5 1-2.4 1.2-4.3l.3-3.4 5.7-.1c6.7-.1 9.3-1.8 6.2-4.1-1-.8-3.5-2.3-5.5-3.3-3.4-1.7-3.5-2-2.2-3.8 2.8-3.6 6.1-13.4 4.6-13.4-.5 0-2.4 1-4.3 2.1m130.7 45.7-2.8 2.9.6 10.9c.7 11.4.5 14-4.5 56.9-3.5 30.7-3.6 31.2-5.8 32-1 .2-3.4 2.1-5.3 4-2.7 2.6-3.8 4.6-4.2 8-.4 2.5-1.3 5.9-2.2 7.5-.8 1.6-1.5 4-1.5 5.3s-.9 3.2-2 4.2c-4.3 3.9-2 13.3 4.7 19.2l4.7 4.1-2.3 13.9c-9.5 57.6-13.4 77.5-17.1 87.1-1.1 2.9-2 7.6-2 10.6 0 5.2-.1 5.3-3.9 7.1-7.2 3.2-9.9 7.8-7.3 12.7 1.2 2.2 1.2 3-.2 5.5-.8 1.7-1.2 3.9-.9 5.1.3 1.3-.4 3.5-1.6 5.5-1.2 1.9-2.1 4.5-2.1 5.8s-.7 3.3-1.5 4.3c-.8 1.1-1.5 2.8-1.5 3.8 0 1.7 5 1.8 122 1.8h122l-.5-6.8c-.2-3.7-.7-10.5-1-15.2s-1-11.9-1.5-16c-1.1-8.4-4.3-35.7-6.2-53-1.9-16.8-1.6-23.8 1.9-41 9-43.9 11.2-66.4 8.9-89-1.5-14.7-4.7-28.8-7.6-33.5-1-1.7-2.6-6.1-3.4-9.8-2.6-11.1-6.1-17.4-14.5-25.8-11.8-11.7-27.8-18.8-49-21.9-7.2-1.1-8.4-1.6-9.1-3.6-1.2-3-2.8-3-7.1-.1-2.1 1.4-6.6 2.9-11.2 3.7-8.7 1.4-15.2 4.9-24.6 12.7-9.2 7.7-14.9 13.1-14.4 13.7.3.2-1.3 1.7-3.6 3.3-2.2 1.5-4 3.1-4.1 3.5 0 .8 7-1.9 8.4-3.3 2.8-2.7 2.3-.1-1.4 6.6-3 5.5-3.7 7.3-2.4 6.8 1.4-.5 1.6-.3 1 1.3-.4 1-1 5-1.2 8.9-.5 6.6-.4 6.9 1 4.5l1.5-2.5.1 3.5c.1 1.9.5 4.4 1 5.5.7 1.8.9 1.7 2-1.3 1.4-3.8 3-2.7 3 1.9 0 3.1-1.2 4.2-6.2 5.8-4.4 1.4-4.9 3.9-2.1 8.9 1.5 2.6 1.5 3.5.4 7-.8 2.2-1 4.6-.5 5.3.8 1.4.9 2.2 1.2 12.6.2 5.7.4 6.4 3 7.7 1.5.7 5.1 1.7 7.9 2.1 6 .8 6.7 1.4 5.8 5.4-.7 3.1-.7 3.1-8 .6-1.3-.4-.6.6 1.8 2.8 2 1.9 3.7 4 3.7 4.7 0 .6-1.2 5-2.6 9.6-2.4 7.7-2.9 8.5-6.8 10.8-5.8 3.4-7.9 6-7.8 9.8.1 2.3-1 5-3.5 8.5-1.9 2.9-3.9 5.3-4.3 5.3-1.5 0-9.8-21.4-11-28-2.2-12.8-5.1-21.4-10.1-29.9s-5.1-8.7-5-16.8c.1-19 6.1-69.3 9.9-83.3 3.4-12.7 3.3-15.3-.6-19.2-2.5-2.5-4.1-3.2-8.4-3.6-4.8-.3-5.5-.1-8.1 2.6M272 250.5c2.2 4.4 4.3 9.4 4.6 11.1.6 3 .5 3.1-5.3 4.7-3.3 1-7 1.7-8.4 1.7-2.6 0-5.6 3.6-8.5 10.5-3.6 8.5-2.6 34.9 2.2 58.4.8 4 1.4 7.4 1.2 7.6-.2.1-4-.7-8.5-1.8-5.2-1.2-8.3-2.5-8.3-3.3s.7-3.2 1.6-5.4c1-2.5 1.4-5.7 1.1-8.7-.5-5.5 1.5-23.7 4.4-40.3 5-28.3 9-49.7 9.6-51.5.5-1.7 1.2-1.3 5.5 3.5 2.7 3 6.7 9.1 8.8 13.5"/></svg>