<svg xmlns="http://www.w3.org/2000/svg" width="682.667" height="512" version="1.0" viewBox="0 0 512 384"><path d="M125.4 23.9c-1.7 1-4.4 3.5-6.1 5.5-2.7 3.3-3.1 3.5-4.3 2.1-1.3-1.6-6.2-4.5-7.6-4.5-.4 0-.4 2.5-.1 5.5.5 5.2.4 5.5-1.8 6.1-1.3.3-2.9 1.2-3.5 1.9-1.4 1.7 1.6 3.5 5.9 3.5 3.5 0 3.8 1 1.5 4.5-2 3.1-.8 3.2 2.2.4 2.3-2.1 4.4-1.9 4.4.5 0 1.8 4.7 5.9 5.9 5.1.6-.3 1.1-2.4 1.1-4.7 0-3.8.1-4 2.5-3.4 3.2.8 10.5-1.3 10.5-2.9 0-1.4-8-5.5-10.6-5.5-1.3 0-1.3-.4.4-2.8 1.1-1.5 2.3-4.3 2.7-6.2.3-1.9.9-4.3 1.1-5.3.7-2.2-.3-2.2-4.2.2m139 40.1c-1.2.4-3.1 2.1-4.4 3.7-2 2.5-2.1 3.4-1.4 8.8 1.5 10.8.9 18.4-6.1 76.5-2 16.3-2.4 18-4.1 18-2.6 0-7.4 6.3-9.1 12-.9 3-2.3 6.2-3 7.1-.7.8-1.6 3.1-1.9 5-.4 1.9-1.6 4.4-2.7 5.6-1.8 2-1.9 2.6-.7 8.8 1.1 6.1 1.6 6.8 6.1 10.3 2.6 2 4.8 4.3 4.9 5 0 .7-1.3 9-3 18.5-1.6 9.5-4.3 25.3-6 35.2-4.3 24.9-5.8 31.9-8.6 40.1-1.3 3.9-2.4 8.4-2.4 10.1 0 5.9-1.2 9.4-3.5 10.3-1.3.5-3.9 2.3-5.9 4-3.7 3.3-4.8 7.4-2.4 9.8.9.9.9 1.8 0 3.7-.7 1.4-1.2 4.1-1.2 6s-.9 4.9-2 6.7-2 4.2-2 5.3-.7 3.1-1.6 4.3c-3.8 5.5-10.6 5.2 121.1 5.2H446l-.6-11.3c-.3-6.1-1.7-20.4-3-31.7-6.2-52.9-7.6-67-7.1-70.3.2-1.8 1.8-10.2 3.5-18.7 8.7-43.5 10.9-66.5 8.7-88.6-1.4-14.6-4.8-29.6-7.5-33.4-1-1.4-2.7-6.2-3.8-10.6-2.9-11.7-6.4-17.9-14.6-25.9-11.4-11.3-25.1-17.4-46.8-21.1-8.6-1.5-10.7-2.1-11.4-3.8-1.1-2.5-4.9-2.4-7.9.2-1.1 1.1-5.2 2.4-9.3 3-8 1.3-13.1 3.6-20.7 9.2-7.2 5.3-18.9 16.1-19.7 18.1-.4.9-2 2.5-3.7 3.5s-3.1 2.2-3.1 2.6c0 .7 4.2-.7 6.5-2.2.6-.4 1.8-1 2.8-1.3 1.6-.6 1.6-.3-.2 3.1-1.1 2-2.9 5-4 6.7-2.5 3.6-2.6 4.6-.6 3.9 1.3-.5 1.4-.2.5 2.1-.5 1.4-1 5.2-1 8.3 0 5.2.1 5.5 1.6 3.6 1.3-1.5 1.5-1.6 1-.2-.3.9.1 3.6.8 6l1.2 4.3 1.3-3.5 1.2-3.5 1.5 2.8c1.4 2.6 1.4 3 0 4.6-.9 1-3.4 2.3-5.6 3-3.4 1-4 1.6-4 3.9 0 1.5.7 3.8 1.7 5.1 1.3 1.9 1.4 2.9.5 5.5-.6 1.7-.9 5.3-.6 8.1.3 2.7.9 7.9 1.2 11.5.8 7.4 2 8.5 11 9.6 5.9.7 6.8 1.7 5.3 5.7L320 195l-4-1.6c-5.5-2.2-5.9-1.3-1 2.1 2.2 1.5 4 3.3 4 3.9s-1.2 5.1-2.7 10c-2.3 7.6-3.2 9.2-5.7 10.5-5.7 3-9.6 7.6-9.6 11.2 0 2.3-1.3 5.4-4 9.3l-3.9 6-2.1-4.7c-1.1-2.6-2.9-6.8-4.1-9.4-1.1-2.6-3.1-10.2-4.4-16.8-2-10.1-3.4-13.9-8.4-24.1-7.1-14.1-7.1-14.2-4.6-42.1 3.3-35.5 6.7-58.9 10-68.4.8-2.3 1.5-5.4 1.5-6.9 0-3.8-4.3-8.7-8.8-10-4.3-1.2-5-1.2-7.8 0m-3.2 175.7c5.2 5.5 10.7 14.6 12.9 21 1.1 3.5 1.9 6.7 1.6 7s-4.1 1.5-8.4 2.7l-7.8 2.3-3.2 6.4c-4.1 7.9-5.8 18.4-4.8 29.4.7 8.6 3.2 27.9 4 30.7.3 1 .7 2.6 1 3.7.5 1.8.4 1.8-7.1 0-4.2-1-7.9-2-8.1-2.3-.3-.3.3-2.9 1.3-5.8 1.2-3.6 1.7-7.8 1.5-13.3-.2-9.6.7-16.1 9.4-64.5 3.4-19.4 3.5-20 4.4-20 .4 0 1.9 1.2 3.3 2.7"/></svg>