<svg xmlns="http://www.w3.org/2000/svg" width="682.667" height="512" version="1.0" viewBox="0 0 512 384"><path d="M117.8 29.8c-2.5 2.6-4.7 5.4-4.9 6.1-.4 1-1.5.6-4.4-1.3-2.1-1.5-4.3-2.5-4.9-2.3-1.8.6-1.8 3.5-.2 6.9.9 1.7 1.6 3.3 1.6 3.4 0 .2-1.6 1-3.5 1.8-5.6 2.4-4.1 4.6 3.1 4.6 3.5 0 4.4 1.6 2.2 3.8-.6.6-.8 1.5-.5 1.9.4.4 1.7-.3 2.9-1.4l2.1-2.1 3.8 4c4.5 4.7 6.4 4.3 5.6-1.3-.5-3.7-.4-3.9 2.1-4 3.7-.1 9.5-2.3 10-3.7.5-1.5-8.6-5.5-11-4.9-1.6.5-1.6.2.2-3.4 2-3.8 2.8-12.9 1.1-12.9-.4 0-2.8 2.2-5.3 4.8m145.5 35.3c-1.2.7-2.9 2.7-3.8 4.6-1.4 2.9-1.5 4.2-.5 8.5.8 3.1 1 8.4.7 13.7-.8 12.7-8.2 75.3-9.3 79.4-.3.9-1.8 2.4-3.3 3.1-1.5.8-3.5 3.2-4.6 5.3-1 2.1-2.4 5-3.2 6.5-.7 1.4-1.3 3.3-1.3 4.1s-.7 1.7-1.5 2.1c-.8.3-1.8 2.3-2.1 4.5-.4 2.2-1.5 4.8-2.5 5.7-2.1 1.9-2.4 5.6-.9 11.9.6 2.9 2.3 5.3 5.9 8.7l5.1 4.7-4.1 23.8c-6.2 37.1-11.7 64-13.9 69-1.3 3-2 6.7-2 10.9 0 6.2-.1 6.4-3.2 7.7-5.5 2.3-9.8 6.5-9.8 9.7 0 1.5.7 3.3 1.5 4 1.3 1.1 1.3 1.6-.1 4.2-.8 1.6-1.4 4.2-1.3 5.6.2 1.5-.5 3.8-1.4 5.3-.9 1.4-2 4.1-2.3 6-.4 1.8-1.3 4.3-2.1 5.4-3.2 4.7-8.8 4.5 120.8 4.5h122l-.6-12.3c-.4-6.7-2.2-24.6-4-39.7s-4.1-34.7-5-43.5l-1.8-16 3.6-18.5c8.9-45.4 11.3-70.5 8.8-93.4-1.3-12.1-5.1-27.4-7.7-31.4-1-1.5-2.3-5.5-3.1-9.1-2.2-10.5-6.7-18.7-14.8-26.6-11.5-11.4-24.9-17.4-46.8-21.1-9.1-1.6-10.7-2.1-11.6-4.1-1.3-2.9-2.9-2.9-7.2 0-1.9 1.2-6.5 2.8-10.3 3.5-6.8 1.3-14.8 4.7-19.6 8.4-7.7 6-20 17.4-20 18.5 0 .7-1.6 2.3-3.5 3.5-4.9 3.2-4.3 4.1 1.1 1.8 2.5-1.1 4.8-2 5.1-2 .2 0-1.5 3.5-3.8 7.7-2.5 4.6-3.5 7.2-2.5 6.3 1.7-1.4 1.8-1.3 1.3 1.5-.4 1.7-.9 5.7-1.2 9-.6 5.9-.6 6 1.2 3.8l1.8-2.3.2 4.1c.2 5.2 1.9 7.3 2.9 3.5.7-3 2.4-3.5 2.4-.7 0 1.1.5 2.3 1 2.6 1.7 1.1-.6 3.2-5.5 5.1-2.4.9-4.6 2.3-4.9 3.1-.4.9.3 3.4 1.5 5.8 2 4 2 4.4.5 7.4-.9 1.7-1.4 3.7-1 4.3.4.7.9 2.6 1 4.2 1.4 16.8 1.9 17.8 10.4 19.1 8.6 1.3 8.8 1.4 7 5.9-.9 2.5-1 2.5-5.1 1.1-2.3-.9-4.4-1.4-4.6-1.2-.2.3 1.3 1.7 3.4 3.2 2.1 1.6 4 3 4.2 3.2s-.9 4.6-2.4 10c-2.5 8.4-3.3 9.8-5.9 11.2-1.7.9-4.6 3.1-6.4 4.9-2.7 2.5-3.3 3.8-2.9 5.9.4 2-.6 4.3-4.1 9.5-2.5 3.7-4.8 6.8-5.1 6.8-1.3 0-7.9-18.7-9.1-25.5-1.7-10.7-3.8-17.2-8.7-26.8-2.4-4.9-4.9-11.4-5.4-14.4-1.2-6.5-.1-23 3.6-55.8 2.7-23.5 4.4-33.2 7.4-43 1.8-5.8 1.9-7 .7-9.8-.7-1.8-2.2-4-3.3-5-2.5-2.1-11-3.1-14-1.6m.1 183.1c4.7 6.3 11.6 19.2 11.6 21.8 0 .5-3.5 2-7.9 3.5-7.4 2.4-8 2.8-10.4 7.3-3 5.5-5.3 13.5-6.2 21.2-.5 5.2 1.3 25.4 3.4 36.5.5 2.7.8 5.2.6 5.3-.5.5-11.8-2-12.8-2.8-.4-.3.1-3.1 1.2-6.2 1.4-4.2 1.8-7.2 1.4-11.6-.7-7.4 1.7-24.1 9.3-65.2 2.7-14.3 3.3-17 3.9-17 .3 0 2.9 3.3 5.9 7.2"/></svg>