<svg xmlns="http://www.w3.org/2000/svg" width="682.667" height="512" version="1.0" viewBox="0 0 512 384"><path d="M261 206.6c-6.7 2.5-12.8 7-16.3 12.3-7.6 11.3-9.4 13.7-12.9 16.9-4.4 3.9-11 13.3-13.3 18.9-.9 2.1-1.9 6.9-2.2 10.8-.5 6.1-.1 8.2 2.6 16.5 1.8 5.2 4.4 11.5 5.8 14 8.7 15.2 27.1 33.8 40 40.4 5.5 2.8 14.5 4.8 20.6 4.7 11-.3 19.3-5.7 33.5-21.9 5.7-6.5 9.2-8.9 9.2-6.3 0 .5.6 1.6 1.4 2.4s2.6 3.1 4 5.2c3.4 4.9 3.3 3.4 0-2.2-1.4-2.5-2.3-4.7-2-5 .3-.4 0-1.4-.6-2.3-2-2.5 2.2 2 6.5 7 2.7 3.2 4 4.1 4.8 3.3 2-2-.1-6.9-5.1-12.2l-4.8-5.3 6.1-11.2c10.5-19.1 11.8-22 12.4-27.7 1-9.7-4.3-22.5-13.1-31.7-4-4.3-14.6-12.1-21.6-16-17.4-9.7-43.7-14.7-55-10.6"/></svg>