<svg xmlns="http://www.w3.org/2000/svg" width="682.667" height="512" version="1.0" viewBox="0 0 512 384"><path d="M102.1 37.9c-1.2 3-2.5 6.8-2.8 8.6l-.5 3.1-5.4-.4c-4.1-.3-5.4-.1-5.4.9 0 2 4.8 6.9 6.6 6.9 1.1 0 .6.9-1.5 2.9-4.1 3.8-4 5.5.2 4.8 1.7-.3 4.3-.8 5.6-1.2 2.2-.8 2.3-.6 1.6 2.5-.5 2.5-.4 3.1.6 2.8.8-.3 1.5-1.7 1.7-3.1.4-3 1.7-3.4 4.1-1.3.9.8 3.1 1.7 4.9 2.1 2.8.6 3.2.4 3.2-1.5 0-1.1-1.1-3.2-2.4-4.5l-2.4-2.4 3.1-1.1c3.7-1.2 8.7-5.8 8.7-7.8 0-1-1.2-1.2-5.2-.7-2.9.3-6 .8-7 1.1-1.3.4-1.6-.3-1.6-4 0-2.4-.9-6.3-1.9-8.7l-1.9-4.3zm250.2 30.4c-1.5 1.3-4.8 2.7-7.3 3.1-11.7 1.7-23 8.6-35.7 21.7-3.5 3.5-7.9 8.1-10 10.1-4.2 4.3-3.9 4.6 1.8 1.7 2.3-1.1 4.3-1.8 4.6-1.5.3.2-1.1 3.3-3.1 6.9-4 7-4.4 8.6-2 6.6 1.5-1.2 1.6-1 1.1 1.6-.6 2.9-1 9.5-.8 12.5.1 1.2.3 1.2 1 .2.6-.9 1.2.2 2 3.5 1.2 4.7 1.3 4.8 2.6 2.3.7-1.4 1.1-2.9.8-3.5-.2-.5.3-.1 1.2 1 2.8 3.5 1.5 6.7-3.7 9.3-5 2.3-6.3 5.3-3.5 8.1.7.7 1.3 4.6 1.4 10.4.1 5.1.6 12.1 1 15.7.9 7.5 2.1 8.5 11.6 9.6l5.8.7-.7 3.1c-.9 4.6-1.1 4.6-5.6 3-2.3-.8-4.3-1.3-4.4-1.1-.2.2 1.4 1.7 3.6 3.3s4 3.2 4 3.6c0 1.1-4.9 17.8-5.6 18.9-.3.5-2.2 1.8-4.2 2.8-5.1 2.6-7.5 5.5-7.6 9.3-.1 2.3-2.4 6.8-7.3 14.2-7.8 12-7.5 11.9-10.6 2.1-.9-2.8-1.8-7.5-2.2-10.5-.9-8.2-2.4-15.6-5-24.5-3-10.2-3.5-11.4-5.8-14.7-1.1-1.4-1.6-3.1-1.2-3.8s.9-9.2 1.1-18.9c.3-24.7 6.2-74 10.4-87.2 3.5-11.3 2.2-16.6-4.6-19.5-5.2-2.2-9-1.8-12.6 1.4-3.4 3.1-3.5 3.6-2.3 16.7.5 5.1-.2 14.2-2.5 33-1.7 14.3-3.6 29.8-4.1 34.5s-1.6 12.5-2.5 17.5c-1.3 7.9-1.9 9.3-4.5 11.4-2.7 2.1-8.9 13.2-8.9 15.8 0 .5-1.1 2-2.5 3.3s-2.5 3.4-2.5 4.7-1.3 3.5-3 5.1l-3 2.7 1.1 7c1.2 7.7 2.2 9.7 8.2 16.2 4.5 4.9 4.5 2.3.1 27.3-5 28.6-9.6 50.6-12 57.6-1.4 4.2-2.4 9.3-2.4 12.7 0 5.6 0 5.7-3.7 7.2-7.8 3.3-11.1 8.7-8.1 13.5 1 1.5.9 2.4-.2 4.4-.7 1.4-1.3 4-1.2 5.8 0 1.7-.8 4.4-1.9 5.9-1 1.5-1.9 3.8-1.9 5.1s-.7 3.4-1.6 4.6l-1.5 2.2h244.4l-.7-13.3c-.7-12-1.6-20.3-6-55.2-.8-6.1-2-16-2.6-22-.6-6.1-1.5-13.4-2.1-16.4-.7-4.6-.4-8.2 2.6-23.5 8.4-44.3 10.6-67 8.6-89.6-1.4-14.9-5-30.2-8.7-36.7-1.3-2.3-2.9-6.5-3.4-9.3-4.4-23.2-26.8-40.6-58.6-45.5-15.6-2.5-15.4-2.4-15.4-3.9 0-1.3-2-2.6-4-2.6-.5 0-2.1 1.1-3.7 2.3m-85.3 139c0 3.5-2.3 7.7-3.3 6.1-.7-1.2 1.5-9.4 2.5-9.4.4 0 .8 1.5.8 3.3m23 52.1c0 .8-.4 1.8-1 2.1-.5.3-1 .4-1 .1 0-.2-.3-1.1-.6-2-.4-1.1-.1-1.6 1-1.6.9 0 1.6.6 1.6 1.4m-28.7 10.1c4 7.3 4.1 6.9-2.7 11.5-3.5 2.4-7.1 5.5-8 6.9l-1.7 2.6.5-3.5c.3-1.9 1.5-8.9 2.7-15.4l2.2-12 2.4 3c1.3 1.6 3.4 4.7 4.6 6.9m-15.4 73.2c.1 2.7-.2 3-1.9 2.6-3-.8-3.1-1.6-1.3-6.9 1.7-4.9 1.7-4.9 2.4-1.9.4 1.6.7 4.4.8 6.2"/></svg>