<svg xmlns="http://www.w3.org/2000/svg" width="682.667" height="512" version="1.0" viewBox="0 0 512 384"><path d="M97 41.2c-.7 3-1.1 7.1-.8 9l.4 3.5-4.8.1c-6.2.1-7.1.7-5.3 3.6 1.7 2.5 6.1 4.9 7.6 4.1.5-.4.9-.1.9.4 0 .6-.4 1.1-1 1.1-.8 0-4 5.1-4 6.5 0 1.2 3.7.4 6.8-1.5 4.2-2.6 4.2-2.6 4.2 1 0 1.6.5 3 1 3 .6 0 1-1.6 1-3.6 0-3.3.2-3.6 2.3-2.9 4.8 1.6 9.7 1.8 9.7.4-.1-2.1-2.4-4.7-5.1-5.7-2.3-.9-2.3-.9 1.2-2.6 2.2-1 4.5-3.3 5.9-5.8l2.3-4.1-4.1.5c-2.2.3-5.5 1.3-7.1 2.1-3 1.5-3.1 1.5-3.1-.6 0-2.4-2.9-9.1-5.3-12.2-1.4-1.8-1.5-1.6-2.7 3.7m254.5 26c-1.1.6-2.3 1.5-2.6 2s-4.1 1.7-8.5 2.8c-4.3 1-10.1 3.1-12.9 4.6-4.8 2.7-35 31.4-33 31.4.6 0 3-1.1 5.4-2.5 2.3-1.4 4.5-2.5 4.8-2.5.2 0-1.2 3-3.1 6.7-3.6 6.8-4.3 8.9-2.7 7.9.5-.3.7 3.6.5 8.7-.4 8.5-.3 9 1 6.2l1.4-3 .7 4.8c.9 5.8 2.1 6.8 3 2.5.7-2.8.8-3 1.8-1.2.6 1 1.4 2.2 1.9 2.5 2.3 1.5-2.2 6-7.4 7.3-2.2.5-2.8 1.2-2.8 3.4 0 1.5.6 3.4 1.2 4 .8.8 1.3 4.6 1.4 10 .1 4.8.7 10 1.3 11.5.6 1.6 1.1 4.5 1.1 6.6 0 4.9 1.1 5.8 8.9 7 3.5.6 6.5 1.2 6.7 1.4s.1 1.8-.2 3.6c-.6 2.8-1 3.2-3 2.7-7.9-2-8.1-1.9-3.2 1.6 3.1 2.2 4.6 3.8 4.2 4.8-.3.8-1.5 5-2.7 9.3-2 7.6-2.2 8-7.3 11.2-5.6 3.6-7.4 5.9-7.4 9.7 0 1.3-3.4 7.5-7.4 13.8-7.2 11.2-7.3 11.5-4.9 11.8 2.8.4 2.6 1.6-1 6.9-2.6 3.8-2.7 3.8-6.8-8.4-1.8-5.3-3.3-12.6-3.9-19.2-1.2-12.3-5.2-30-7.6-33.6-1.4-2.1-1.4-3-.3-5.7.7-2.1 1.3-9.3 1.5-19.3.3-25 6.5-75.7 10.9-90.4 1.3-4.4 2.1-9 1.8-10.3-1.8-7.5-14.2-11.7-19.1-6.6-3.4 3.7-4.4 7.6-3.1 11.6 1.6 4.9.7 18.3-3.5 53.2-4.2 34.1-6.1 45.6-8.3 51.1-.8 2.2-1.3 4.8-1 5.9s.1 2-.4 2-.9-2.2-.9-4.9c0-5.5-1.9-8.2-4.5-6.1-1.8 1.5-6 10.4-6.9 14.6-.4 1.8-1.6 4-2.7 5-1 .9-1.9 2.8-1.9 4 0 1.4-1.3 3.5-3.1 5.1-3.1 2.8-3.1 2.8-2.4 10.3.6 7.4.7 7.6 8 17.2l7.4 9.6-3 16.9c-6.3 35-9.9 52.4-12.4 59.4-1.4 4.2-2.5 9.4-2.5 12.6 0 5.2-.1 5.3-3.7 6.8-7.8 3.3-11.8 10.2-7.8 13.5 1.3 1.1 1.3 1.5 0 4.1-.8 1.5-1.5 4.2-1.5 6 0 1.7-.9 4.6-1.9 6.3s-1.9 4.3-1.9 5.8l.1 2.8H446v-4.3c-.1-9.5-2.1-30.6-4.9-51.7-6.4-48.9-7.4-59-6.2-64.4.6-2.8 2-10.5 3.2-17.1 7.8-44.6 9.4-66.9 6.5-88.5-2-14.2-5.7-28.2-8.6-32.2-1.1-1.5-2.4-4.7-3-7.2-2.6-11.6-8.4-21.8-16.3-28.6-12.4-10.7-26.9-16.3-49.1-19-7-.9-9.3-1.5-10.3-3.1-1.6-2.2-2.9-2.3-5.8-.7m-95.6 205.4 2.1 3.5-2.8 2.4c-3.4 3.1-4.6 3.1-3.8.2.3-1.2.9-3.9 1.2-6 .4-2 .8-3.7.9-3.7.2 0 1.2 1.6 2.4 3.6"/></svg>