<svg xmlns="http://www.w3.org/2000/svg" width="682.667" height="512" version="1.0" viewBox="0 0 512 384"><path d="M93.2 47c.2 4.1.8 8.3 1.2 9.2.7 1.5.3 1.8-1.7 1.8-3.4 0-7.7 2-7.7 3.5 0 1.4 5.8 4.5 8.3 4.5 1.4 0 1.4.3.1 2.7-3.3 6.5.2 7.9 5.2 2 2.1-2.4 2.7-2.8 3.5-1.6.5.8.9 2.2.9 3.1 0 1 .5 1.8 1.1 1.8.7 0 .9-1.2.4-3.6l-.6-3.6 3.4.6c4 .7 9.1-.8 8.5-2.7-.3-.6-1.8-1.9-3.4-2.7s-3.1-1.6-3.3-1.8c-.3-.1.6-1.3 1.8-2.6 2.4-2.6 5.4-9.9 4.2-10.4-1.3-.4-8.1 2.8-10.1 4.8-1.9 1.9-1.9 1.8-3-1.4-.5-1.8-2.9-5-5.1-7.2l-4-3.9zM350 66.7c-.8.3-2.4 1.3-3.5 2.3s-4.1 2.1-6.7 2.4c-10.4 1.5-25.4 12.1-37.3 26.5-3.3 3.9-7 7.9-8.3 8.7-4.2 2.7-1.5 2.7 3.4 0 2.6-1.4 4.9-2.5 5.1-2.3.1.2-1.6 3.9-3.9 8.3-2.3 4.3-3.4 7.3-2.5 6.5 1.6-1.2 1.7-.6 1.7 7.5.1 8.2.2 8.7 1.4 5.9l1.3-3 .7 5.2c.7 5.4 2.2 7.1 2.8 3 .4-3.1 2.2-2.8 2.6.6.2 1.5.8 2.5 1.3 2.2s.6 0 .3.8-2.6 2.6-5.2 3.9c-5.5 2.8-6.6 6.2-3.2 9.3 2.3 2 2.5 4.3.9 7.9-.7 1.4-.8 3.3-.4 4.3.5 1 1 2.7 1.1 3.8 1.3 9.7 2.1 14.2 2.7 15.2 1 1.5 7.1 3.3 11.6 3.3 3.3 0 3.4.1 2.8 3.6-.3 2-.9 3.9-1.1 4.2-.3.3-2.4-.2-4.6-1.1-5.1-2-5.1-1 .1 2.8 2.5 1.9 3.8 3.5 3.5 4.5-.3.8-1.5 5.2-2.7 9.7-2 7.1-2.7 8.4-5.1 9.4-3.6 1.5-10 8.6-9.6 10.7.1.9-2.8 6.6-6.5 12.5-3.7 6-6.7 11.3-6.7 11.8s.9.9 2 .9c2.5 0 2.5.7 0 4.8-1.7 2.7-2.6 3.2-5.7 3.2-2.1 0-4.3-.4-5-.8-2.8-1.8-6.5-14.8-7.9-27.6-.7-7.1-2-15.5-2.9-18.7-1.3-5.4-1.3-6.3.6-13.1 1.7-5.7 2.2-10.8 2.4-23.3.5-26 7.1-81.4 11-92.4 3-8.6 1.3-14-5.1-16.7-5.3-2.2-9-1.8-12.6 1.5-3 2.7-3.3 3.4-2.9 7.8.9 13.2.1 26.5-3.2 54.8-4.5 37.2-6.1 47.9-8.2 52.9-.9 2.1-1.3 4.6-1 5.7.8 2.5-.5 12.9-1.6 12.9-.5 0-1.8-1.8-2.9-4-1.5-3-2-5.9-2-11.9 0-8-.6-9.6-3.2-8.6-1.6.6-6.8 8.7-8.5 13.3-.7 1.9-2.4 4.7-3.8 6.4-1.4 1.6-2.5 3.7-2.5 4.7s-1.1 2.8-2.5 4.1c-2.2 2.1-2.5 3.2-2.5 9.5 0 8.4.2 8.7 12.9 24 4.6 5.6 8.1 10.8 8.1 12 0 2.7-4.3 26.9-6.9 39-1.1 4.9-2.4 12.5-3.1 16.7-.6 4.3-2.4 11.7-3.9 16.5-1.9 6-2.7 10.1-2.3 13 .4 4.1.3 4.2-4.1 6.3-7.7 3.6-10.5 8-8.1 12.6 1.3 2.5 1.3 3.2-.1 6.5-1 2.1-1.4 4.6-1 5.8.4 1.4-.1 3-1.4 4.7-1.2 1.5-2.1 3.1-2.1 3.5 0 .5 53.1.9 120 .9h120v-2.1c0-7.3-2.5-34.2-4.5-49.4-4.7-34.1-7.5-58-7.5-63.7 0-3.1.9-10.3 1.9-16 8.4-44.6 10.6-71.6 7.7-94.1-2-15-5.8-29.7-9.2-34.7-1.2-1.9-2.8-5.7-3.4-8.4-5.6-25.4-29.9-41.7-67.3-45.1-6.1-.6-8-1.1-8.8-2.6-1-1.9-2.2-2.2-4.9-1.2"/></svg>