<svg xmlns="http://www.w3.org/2000/svg" width="682.667" height="512" version="1.0" viewBox="0 0 512 384"><path d="M91 49.2c.1 2.4.7 6.1 1.5 8.3s1.5 4.1 1.5 4.1c0 .1-2 .9-4.5 1.8-2.5 1-4.5 2.4-4.5 3.2 0 1.4 5.9 4.6 7.7 4.3 1.9-.3 2.1.3 1.2 3.3-1.5 5.3.7 6 4.7 1.3 2.9-3.2 3.7-3.7 4.4-2.5.5.8 1 2.1 1 2.7 0 .7.5 1.3 1 1.3.7 0 .8-1.3.4-3.6-.6-3.5-.6-3.7 1.8-3.1 3.3.9 8.2-.6 8.6-2.5.2-.9-1.1-2.2-3.3-3.2-3.3-1.6-3.5-2-2.3-3.4 3.3-3.9 5-11.2 2.7-11.2-1.8 0-7.8 4-9.3 6.2-1.4 1.9-1.4 1.9-2.1-.4-.7-2.4-8.3-10.8-9.7-10.8-.4 0-.8 1.9-.8 4.2m255.2 19.3c-1.7 1.4-3.9 2.5-5.1 2.5-3.7 0-13.3 3.9-19.1 7.7-5.4 3.5-24 21.8-24 23.6 0 .4-1.4 2-3 3.4-4.3 3.6-3 4 2.5.9l4.6-2.7-1.6 3.8c-.9 2.1-2.5 5.3-3.6 7.1-2.3 3.9-2.5 6-.6 4.3 1.1-.9 1.3.3.9 6.9-.3 5.2-.1 8 .6 8 .6 0 1.2-.8 1.4-1.8.3-.9.8.2 1.2 2.5 1 5.5 2.3 6.3 3.4 2.1l.8-3.3 1.2 3.3c.6 1.9 1.6 3.1 2.2 2.7.5-.3 1-.2 1 .3 0 1.3-4.4 5.2-8.1 7-2.7 1.3-3.3 2.3-3.1 4.2.1 1.3 1 3.2 1.8 4.1 1.2 1.4 1.4 2.9.9 6.8-.4 2.8-.3 5.6.1 6.2.4.7.9 2.4 1 3.8.4 3.6 1.4 10.2 1.9 12.7.6 2.6 4.4 4.4 9.3 4.4 5.2 0 6.3 1 5.6 4.9-.7 3.4-1.6 3.6-7.9 1.6-1.3-.4-.6.6 1.9 2.9l3.8 3.5-2.2 9.1c-1.8 7.2-2.8 9.4-4.8 10.8-5.1 3.4-10.2 9-10.2 11.2 0 1.2-2.9 6.8-6.5 12.5s-6.5 10.8-6.5 11.3.9 1.2 2.1 1.5c1.6.4 1.9.9 1 2.4-2.9 5.3-3.3 5.5-8.6 4.2-2.8-.6-5.9-1.5-7.1-1.9-3.3-1.3-7.1-13-8.4-25.7-1.6-14.5-1.5-16.3 1.6-27.3 1.8-6.3 2.7-12 2.7-17 .1-13.8 1.7-37.3 4.3-60 2.2-20.3 3.6-28.4 7.5-44.7 1-3.9 1-5.8.1-7.7-2.6-5.9-12.7-8.5-18-4.7-3.9 2.7-4.7 6.6-3.1 14.5 1.1 5.6.8 9.6-2.5 39.2-4.8 42.8-6.3 53.5-8.6 61.4-1.1 3.8-1.8 9.5-1.8 13.7 0 8.4-.8 11.9-2.5 10.4-.7-.5-3-4.6-5.2-9.1-3.4-7-3.8-8.3-2.7-10.1 1-1.6 1.1-2.4.1-3.5-.9-1.1-.9-1.8-.1-2.6 1.5-1.5 1.6-4.5.2-5.3-2.1-1.3-4.9.8-8.9 6.7-2.2 3.4-4.1 6.7-4.1 7.3 0 .7-1.3 2.9-3 5-1.6 2.1-3 4.6-3 5.6s-1.2 2.6-2.6 3.6c-2.6 1.6-2.6 1.9-2.1 9.5.5 8.3 1.7 10.7 8.7 18.3 7 7.4 17 20.7 17 22.3-.2 5.4-2.9 15.5-4.7 17.2-1.1 1-3.6 5.8-5.4 10.7-3.3 8.7-3.4 9-3.5 26.3 0 10.7-.5 18.6-1.2 20.3-.7 1.6-1.2 5.2-1.2 8.2v5.3l-5.5 3.1c-7.4 4.2-9.4 8.3-5.9 12.2 1.5 1.6 1.5 2 0 4.1-.9 1.2-1.6 4.1-1.6 6.5 0 2.3-.4 4.5-1 4.8-.5.3-1 1-1 1.6 0 .5 45.3.9 119.1.9h119.1l-.6-6.8c-.3-3.7-.8-11-1.1-16.2-.4-5.2-1.9-19.2-3.5-31s-4.1-30.8-5.5-42.1l-2.5-20.7 3.5-20.3c6-35 7.5-47.9 7.5-65.3 0-25.3-4.3-49.5-10.4-58.6-1.3-1.9-2.9-5.8-3.6-8.5-5.9-24.8-30.7-41.2-66.7-44.1-6.2-.5-8.7-1.1-9.9-2.5-2.3-2.5-3.7-2.4-7.2.6"/></svg>