<svg xmlns="http://www.w3.org/2000/svg" width="682.667" height="512" version="1.0" viewBox="0 0 512 384"><path d="M90.4 55.2c.4 2.3 1.5 6.1 2.6 8.5l1.9 4.3-3.6 1.6c-1.9 1-3.7 2.4-4.1 3.2-.8 2.1 2.8 4.4 6.1 3.9 2.6-.3 2.7-.2 2.7 4 0 2.4.3 4.3.6 4.3 1.8 0 4.3-2.3 5.4-5.1l1.4-3.2 2.3 2.9 2.4 2.9-.7-3.8c-.6-3.6-.6-3.7 2.6-3.7 6.7 0 9.3-3.8 4-6-3.4-1.4-3.5-1.9-1.5-7.7 1.4-4.2 1.2-7.3-.6-7.3-.5 0-3 2-5.4 4.5-2.5 2.4-4.5 4-4.5 3.6 0-1.7-5-6.9-8.6-9.1l-3.7-2.1zM345.7 68c-1.5 1.2-5.2 2.8-8.4 3.6-12.4 3.2-21.9 9.9-34.3 24.3-3 3.5-7.2 8.1-9.3 10.2-2.1 2.2-3.5 3.9-3.2 3.9 1.1 0 7-3.2 8.9-4.9 1.8-1.5 1.8-1.5 1.1.9-.4 1.4-1.3 3.4-2 4.6-.8 1.1-2 3.7-2.8 5.7-1.2 2.8-1.3 3.5-.2 3.1 1-.4 1.2.7.8 5.5-.6 6.4.2 10.5 1.6 8.3q.75-1.35 2.1 3.3c1.3 4.6 2.9 4.9 3.3.6.2-2.7.5-2.7 1.7.5.6 1.4 1.4 2.2 2 1.9.5-.3 1 0 1 .8 0 1.9-4 5.5-7.8 6.8-3.9 1.3-4.3 4.5-1 9 2 2.6 2.1 3.3 1 6.3-.8 2.2-.9 4.2-.4 5.7 1.5 3.9 3.2 11.7 3.2 14.9 0 3.8 2.9 5.8 10 6.6l5.7.6-.7 3.5c-.5 1.9-1 3.7-1.3 3.9-.2.2-2.4-.3-4.8-1.1l-4.4-1.5 4.3 3.8 4.4 3.8-1.6 5.4c-.8 3-2 7.4-2.6 9.6-.8 3.2-1.7 4.5-4 5.4-3.8 1.6-9 7.4-9 10.1 0 1.1-3.1 6.9-7 13-3.8 6-7 11.2-7 11.4 0 .3.9.5 1.9.5 1.1 0 2.2.4 2.5.9.5.8-4.9 9.1-6 9.1-.3 0-1.5-1.2-2.7-2.6-1.6-1.8-4-2.9-8.2-3.7l-5.9-1.2-3.2-8.7-3.2-8.6 3.3-16.9c1.9-9.2 3.9-18.2 4.6-19.8.8-1.9 1.3-9 1.5-20 .2-26.6 6.3-80.1 10.4-92 2.4-6.9 2.5-8.7.5-12.4-2.7-5.4-12.5-7.9-17.4-4.5-3.5 2.5-5.2 7.4-4 11.5 1.9 6.6 1.4 15.4-4.2 64.9-2.7 24.4-4.9 38-6.5 41.3-1.3 2.3-1.8 2.6-3.5 1.6-1.5-.8-2.4-.7-3.5.2-2.1 1.7-1.7 3.5 1.6 6.9 3.3 3.3 3.9 7.4 1.7 10.4-1.3 1.8-1.5 1.8-4.1.1-1.5-1-4.3-5-6.3-8.8-3-6.1-3.3-7.3-2.2-9.3.9-1.8.9-2.6 0-3.8-.9-1.1-1-2-.1-3.6 2.2-4.1-1.2-6.7-5.1-3.7-1.9 1.5-8.4 11.4-9.3 14.3-.4 1.2-1.5 2.9-2.6 3.9s-2 2.8-2 4.1c0 1.2-1.1 3.1-2.5 4.2-2.2 1.8-2.5 2.7-2.5 8.5 0 3.6.4 7.7.9 9s4.6 6.4 9.2 11.3c8.1 8.7 17.5 20.7 19.8 25.2 1.8 3.4.6 5.7-4.8 9.1-5.4 3.5-8.5 9.2-11.8 21.2-2.4 8.7-2.2 24.6.4 36.4 1.4 6.2 1.9 11.1 1.5 15.8l-.4 6.8-3.9 1.6c-4.1 1.6-8.9 6.4-8.9 8.9 0 .8.7 2.5 1.5 3.8 1.4 2.1 1.4 2.7-.1 5.9-1 2.2-1.4 4.5-1 6.1l.6 2.6h234.9l-.5-5.3c-.2-2.8-.8-11.3-1.4-18.7-.5-7.4-2.3-23.2-3.9-35s-4-29.9-5.2-40.1l-2.2-18.6 4.1-24.9c5.2-31.5 5.9-37.5 6.7-55.9 1-24.1-4-52.9-10.9-63.5-1.3-1.9-2.6-5.2-3-7.2s-2.3-7-4.3-11c-9.6-19.3-32-31.3-62.6-33.5-7.3-.5-9.5-1-10.5-2.5-1.7-2.3-3.3-2.3-6.5.2"/></svg>