<svg xmlns="http://www.w3.org/2000/svg" width="682.667" height="512" version="1.0" viewBox="0 0 512 384"><path d="M90.8 59.6c-.8.7 1.8 8.8 3.8 12.3 1.7 2.9 1.7 3-1.2 5.5-1.6 1.4-3.3 2.6-3.7 2.6s-.3.9.3 2c.8 1.5 2.1 2 5 2 3.7 0 4 .2 4 2.7 0 1.6.4 3.5 1 4.3.7 1.2 1.2 1.2 2.9-.4 1.2-1.1 2.1-2.7 2.1-3.7 0-2.9 2.2-3.5 3.8-1.1 2 3 3.4 2.8 2.2-.4-1.5-3.8-1.4-3.9 3.5-5.2 5.5-1.5 6.2-4.4 1.5-6.1-3-1-3-1.1-2.4-6.5.4-3 .4-6.3 0-7.2-.6-1.5-1.2-1.2-4.6 2.1-2.2 2.2-4 4.5-4 5.2 0 2-1.1 1.6-3.9-1.6-2.9-3.2-9.5-7.4-10.3-6.5m253.1 8.7c-1.9 1.3-6.5 3.1-10.3 4.1-8.5 2.3-14.8 6.5-24.5 16.4-9.6 9.7-19.5 21.2-18.4 21.2.5 0 3-1.3 5.6-3l4.7-3-3.1 6.1c-1.6 3.3-3.5 7.2-4 8.6-.9 2.4-.8 2.5.7 1.2 1.6-1.3 1.7-1.1 1 1.5-1 3.9.4 17.2 1.4 13.6l.7-2.5 1.2 2.8c.6 1.6 1.1 3.5 1.1 4.3 0 2.4 1.8 1.5 2.5-1.4l.7-2.7 1.6 3.2c2 4.2 1.1 6-4.3 8.4-5.2 2.3-5.6 3.9-2.1 8.9 2 2.9 2.2 4 1.4 6.9-.7 2.3-.6 4.2.1 5.8.6 1.4.9 2.9.5 3.4-.3.6-.1 1.5.4 2.2s1.2 3.6 1.5 6.6c.4 3 1.2 6.1 2 6.8.7.7 4.1 1.6 7.6 1.9l6.3.7-.6 3.5c-.3 1.9-.8 3.7-1.1 4s-2.6-.2-5.2-1.1c-3.8-1.4-4.3-1.4-3.3-.2.7.8 2.7 2.4 4.5 3.5l3.3 2-2.4 9.3c-1.8 7.2-2.9 9.6-5 11.2-6.7 5.1-10.6 9.5-10.1 11.5.3 1.1-.3 3-1.2 4.2-2.2 3-12.1 18.7-12.1 19.3 0 .3.9.5 2 .5 2.9 0 2.5 2.4-1.6 8-3.5 4.8-3.6 4.9-5.9 3.4-1.3-.9-2.7-2.9-3-4.5-.8-3.3-3.9-5.3-10.2-6.4-5-.8-6.5-2.3-6.6-6.7 0-4.3 7.1-40.6 8.5-43.2.7-1.3 1.2-9.2 1.3-20.6.3-27.5 5.8-76.8 10.1-91.3 2.1-7.1 2.2-8.2 1-11.2-1.8-4.2-5.4-6.6-11-7.2-3.7-.5-4.8-.1-7.5 2.4-3.6 3.1-3.8 4.3-2.6 18.3.5 5.5-.4 17.4-3.5 45.4-4.1 37.9-5.7 48.7-8.3 55.9l-1.4 3.8-2.7-3.5c-2.9-3.8-8-7.1-9.6-6.1-1.8 1.1-1 4.9 1.5 7.5 3.1 3.2 4.1 7.9 2.3 10.3-1.4 1.8-1.5 1.8-4.5-.7-1.7-1.4-4.4-5.2-6-8.4-2.9-5.7-2.9-5.8-1-7.3 1.9-1.4 1.9-1.6.2-3.3-1.5-1.5-1.6-2.2-.7-3.7 1.7-2.6 1.5-4.6-.5-5.3-1.9-.8-6 1.9-7.7 4.9-.6 1-2.3 3.7-3.8 5.8-1.6 2.2-2.8 4.6-2.8 5.3s-.6 1.7-1.4 2.1c-1.9 1.2-3.7 4.9-3 6.6.3.8-.6 2.1-2 3.1-2.3 1.5-2.6 2.3-2.6 7.6 0 3.2.5 7.1 1 8.6.6 1.5 5.2 7.1 10.3 12.4 9.9 10.3 17.4 19.5 20 24.7l1.7 3.2-6 3.6c-5 3-6.4 4.6-8.4 8.8-5.4 12-6.1 15.5-6 29.7.1 14 1.3 21 6.7 39.7 2.5 8.5 2.3 10.3-1.5 10.3-2.4 0-8.7 5.7-9.4 8.7-.4 1.6 0 3 1.2 4.4 1.6 1.8 1.7 2.1.1 5.5-.9 1.9-1.7 3.9-1.7 4.4 0 .6 42.6 1 117.5 1H445v-3.8c0-7.1-2.1-32.4-3.5-42.5-.7-5.6-2.7-20.8-4.4-33.7s-3.5-26.9-4.1-31c-.8-6-.7-9.1.5-15.5 8.6-43.8 11.3-78.5 8.1-102-1.9-13.2-6.6-29.9-9.5-33.6-1-1.3-2.6-5.1-3.6-8.4-5.1-18-19.1-31.7-39.2-38.4-7.7-2.6-22.9-5.1-30.8-5.1-4.8 0-6.4-.4-7.8-2-2.1-2.5-2.7-2.5-6.8.3"/></svg>