<svg xmlns="http://www.w3.org/2000/svg" width="682.667" height="512" version="1.0" viewBox="0 0 512 384"><path d="M260.6 210.5c-10.4 2-18.9 6.7-23.9 13.3-6.1 8.1-10.1 16.9-10.5 23.6-.4 4.8-1.1 6.9-3.8 10.6-4.8 6.6-6.4 12-6.4 21 0 6.8.4 8.5 3.5 14.7 7.2 14.5 22.8 29 40.7 38 13 6.6 19.1 8.4 30.1 9 9 .5 10.4.3 16.6-2.1 7-2.8 12.6-7.4 16.1-13.7 1.1-1.9 4-7.2 6.5-11.9s5.4-9.6 6.4-10.9l1.9-2.5 5.3 3.8 5.4 3.7-5-4.5c-3.7-3.3-4.4-4.3-2.7-3.9 1.2.3 2.4.9 2.7 1.3.3.5 1.3.6 2.3.3 1-.2 2.4.3 3.1 1.1 1.6 1.9 3.8 2.1 4.4.3.7-2-3.2-6.6-7.3-8.7-2.1-1.1-4.1-2.4-4.5-3-.6-1 1.8-15.3 4.5-26.5 1.9-8.2 1.4-16.8-1.6-23-2.6-5.5-12.7-16-18.7-19.4-6.8-3.8-14.4-6.8-23.7-9.2-10.3-2.7-30.9-3.4-41.4-1.4m82.5 87.6 2.4 2-3-1.7c-3.9-2.4-4-2.4-2.8-2.4.6 0 2.1.9 3.4 2.1"/></svg>