<svg xmlns="http://www.w3.org/2000/svg" width="682.667" height="512" version="1.0" viewBox="0 0 512 384"><path d="M110.1 70c-1.6 2.3-3.2 4.7-3.4 5.3-.3.8-1 .5-2-.8-1.8-2.4-11.4-7.2-12.4-6.1-.6.6 3.2 9.1 5.9 12.8 1 1.4.7 2.2-1.9 4.8-4 4.1-3.4 6 2.2 6 3.9 0 4.3.2 5.1 3.2 1.3 4.5 3.5 4.1 5.4-1 1.6-4.3 1.6-4.3 3.5-2.2 2.7 2.9 3.8 2.5 2-1-2-3.8-1.9-4 .9-4 3.3 0 7.1-3.2 6.3-5.3-.4-1-1.5-1.7-2.6-1.7-2.8 0-3.5-1.7-3.6-7.9 0-6.9-1.5-7.4-5.4-2.1m232.8-1.7c-1.9 1.2-6.3 3.1-9.9 4-9.2 2.6-14.3 6.2-26.4 19-5.8 6.2-12.4 13.1-14.7 15.4-4.8 5.1-4.1 5.4 2.5 1.3 4.6-2.9 4.7-3 4-.8-.3 1.3-1.5 4-2.6 6.1-1 2.1-2.3 4.9-2.9 6.4-.9 2.3-.8 2.5.6 1.3s1.6-1 1.4 2.1c-.1 1.9-.1 5.9 0 8.9.2 4.9.4 5.2 1.4 3.1 1.1-2.3 1.1-2.2 2.2 1.5 1.2 4.3 2.7 4.8 3.5 1.2.5-2 .7-1.9 2.4 1.5 2.1 4.5 1.3 6-4.6 8.4-3 1.2-3.8 2-3.8 4.1 0 1.4 1 3.6 2.2 4.9 2 2.1 2.1 2.8 1.1 6.5-.9 3.3-.8 4.6.2 6.1.7 1.1 1.1 2.6.8 3.3-.3.8-.1 2 .5 2.7.5.6 1.2 3.4 1.5 6.1.6 6.2 2.1 7.6 9.1 8.5 3.1.4 5.9 1 6.2 1.4.3.3.1 2.1-.6 4.1l-1.1 3.5-4.1-1.5c-5.5-1.9-5.9-1.1-.9 2.2 4.5 2.9 4.6 3.1 3 8.9-3.6 13.7-3.8 14.2-6.9 15.5-3.8 1.6-9 7.4-9 10.2 0 1.1-2.9 6.7-6.5 12.4s-6.5 10.6-6.5 10.9.7.5 1.5.5c2.8 0 2.7 2.8 0 6.4-2.3 3-3.2 3.5-5.9 3.2-1.7-.2-4.3-.4-5.8-.5-2.1-.1-2.8-.7-3.3-3.3-1-4.6-3.2-6.7-8.3-8-3.8-.9-4.3-1.3-3.8-3.3.3-1.3 1.7-8.3 3.1-15.6 1.3-7.4 3.4-17 4.5-21.4 1.8-6.5 2.2-11.6 2.5-27.5.5-28.7 6-78.7 10-89.9 2.9-8.2 1.4-13-5-16.1-5-2.4-6.7-2.5-11-.4-4.8 2.3-6 5.9-4.7 14.3.9 5.2.8 10.3-.3 22.7-4 45.4-7.9 77.4-9.8 80.9-.6 1.1-1.4 5.6-1.7 10l-.5 8-3.3-7c-4.6-9.8-7.6-13.8-12.3-16.4-3.2-1.8-4.3-2-5.4-1.1-2.2 1.8-1.9 2.7 2 6.6 2.8 2.8 3.5 4.2 3.5 7.4 0 2.8-.4 4-1.4 4-2.4 0-7.1-4.7-9.1-9.1-1.9-4-1.9-4.2 0-5.5 1.8-1.3 1.8-1.5-.5-3.9-2.2-2.4-2.3-2.5-.5-4.5 2.4-2.6 1.3-5-2.4-5-2 0-3.7.9-5.5 3.1-1.4 1.7-2.6 3.5-2.6 4.1 0 .5-1.1 2.3-2.5 4-1.4 1.6-2.5 3.5-2.5 4.2s-.9 2.1-2 3.1c-1.2 1.1-2 3.1-2 4.9 0 1.9-1 4-2.6 5.7-2.4 2.5-2.5 3.1-1.8 9l.6 6.4 13 12.9c7.1 7.1 14.7 15.5 16.8 18.7l4 5.7-6.5 3.8c-6.2 3.6-6.6 4.2-9.6 11.2-6.5 15.6-7.2 27.2-2.9 48.2 1.6 8 7.4 28.6 9.6 34.4.4 1 .1 1.6-1 1.6-.8 0-3.1 1.4-5.1 3.1-3.9 3.4-4.5 7-2 10.6 1 1.4 1.2 2.4.5 2.8-.5.3-1 1.3-1 2.1 0 1.2 15.7 1.4 116.6 1.4h116.6l-.6-7.3c-.3-3.9-.8-11.5-1.2-16.7-.3-5.2-2.5-24.4-4.9-42.5-7.3-55.4-7.1-51.8-4.1-68 7.7-42.3 9.9-73.4 6.4-95.5-2.1-14.1-6-27.6-9.3-32.4-1.2-1.8-3.2-6.4-4.3-10.3-7.4-24.2-31-39.1-65-41-9.6-.5-11.4-.9-12.3-2.5-1.3-2.4-2.9-2.3-7 .5"/></svg>