<svg xmlns="http://www.w3.org/2000/svg" width="682.667" height="512" version="1.0" viewBox="0 0 512 384"><path d="M340.8 68.3c-1.9 1.3-6.6 3.4-10.5 4.5-9.8 3-18.2 9.8-32.1 26-9.4 11-10.8 13.1-8.1 11.7 1.9-1 4.2-2.4 5.2-3.3 2.4-2.2 2.1-.3-1.3 7.3-3.3 7.3-3.5 7.9-2.1 7 .5-.3 1.2 2.1 1.6 5.2 1.1 10.5 1 10.1 2.2 7.3.9-2.3 1-2.2 1.7 2 1 6.7 2.3 8.2 3.2 3.6l.7-3.9 1.5 3.4c2.4 5.3 2 6.2-3 8.9-5.4 2.8-5.9 4.6-2.8 9 1.4 1.9 2 4.3 1.9 7.7 0 5.7.4 8.8 2 12.6.6 1.6 1.1 4.3 1.1 6 .1 5.2 2.2 7 8.7 7.4 3.1.2 5.8.4 5.9.6.2.2.1 2-.3 4.1-.6 4-1.4 4.2-7.8 2.1-1.2-.4-.4.7 2 2.8l4 3.5-2.3 9.4c-2.2 9.1-2.5 9.6-6.2 11.7-4.5 2.5-8 6.5-8 9.2 0 1-2 4.9-4.3 8.6-2.4 3.7-5.6 8.9-7.1 11.5-2.4 4.2-2.5 4.6-.8 4.1 2.9-.7 3.7 1.6 1.4 3.9-1.8 1.8-2.4 1.9-5.3.9-4.8-1.7-10.3-1.4-12.1.6-.9 1-2.1 3.5-2.8 5.6-.7 2.2-1.6 3.5-2 3-.4-.4-1.7-3.9-3-7.8-1.6-5.1-2-8.1-1.5-11.5 1.5-10.6 5.7-31 7.6-36.5 1.6-5.1 1.8-7.1 1-12.5-1-7.5.8-38.9 3.9-67.5 2.3-20.5 3.5-27.8 5.5-33.6 1.9-5.4 1.9-9.9-.1-12.7-3.8-5.5-13.2-7-18.1-2.8-2.4 2.1-2.8 3.1-2.6 7.3.6 17 .1 30.6-2.1 53.2-4 39.7-5.7 53.3-7.3 57.1-.9 2-1.4 6.2-1.4 9.9.2 6.9-1.7 25.3-2.9 28.6-.6 1.6-1.3.7-3.8-4.7-1.7-3.7-3.6-9.5-4.2-12.9-1.8-9.7-5.1-17.4-11-25.5-3.8-5.1-6.8-8.1-9.6-9.4-4.3-2.1-9.4-2.7-9.4-1 0 .5-.7 1-1.5 1-2.2 0-1.8-1.5.7-3.2 2.9-1.9 1.8-4.3-2.2-5.1-4.4-.9-6.6.6-9.5 6.3-1.3 2.7-2.9 5.1-3.5 5.5-.5.3-1 1.9-1 3.4 0 1.6-.7 3.4-1.5 4.1-.9.7-1.5 2.9-1.5 5.1 0 2.6-.7 4.6-2 5.9-2.3 2.3-2.5 4.7-.9 10.5 1.4 5.2 2.5 6.3 16.6 16.9 10.5 7.9 18.3 15.6 18.3 18.2 0 .5-2.6 2.3-5.8 4.1-5.2 2.8-6.3 4-9 9.6-5.3 10.8-6.5 17.4-5.9 32.2.7 16.7 5.5 36.6 14.6 60.7l3.3 8.6-2.2 3c-1.2 1.6-2 3.8-1.8 4.8.3 1.8 3.9 1.9 116.6 2.2 84.2.1 116.2-.1 116.2-.9 0-10.2-2.9-41.5-6-63.4-2.1-15.4-4.6-34.1-5.5-41.7l-1.7-13.6 3.6-21.9c1.9-12 4.2-27 5-33.3 2.2-16 2.2-43.8.1-57-2-12.4-6.5-27.8-9.5-32-1.1-1.6-3-5.8-4.1-9.2-3-8.9-5.1-12.7-10.4-18.6-12.4-13.7-30.3-21-54.5-22-10.7-.4-12.7-.8-13.8-2.3-1.7-2.4-2.2-2.4-6.4.4M213.4 198.2c2.4 3.8 3.1 7.8 1.3 7.8-2.7 0-6.1-2-8-4.6-1.8-2.5-1.8-2.6 0-3.9 2.7-2.1 5.1-1.8 6.7.7m72.2 170.6.7 8.2h-2.9c-1.6 0-3.9-.3-5-.6-2.2-.6-2.1-.7 1.5-8.9 2-4.6 3.9-8 4.3-7.7.4.4 1 4.4 1.4 9M116.1 83.9c-1.1 2.7-2.1 5.5-2.1 6.1 0 .7-1.2.3-2.7-.8-2.6-1.8-12.3-4.5-13.1-3.7-.7.7 2.1 4.8 6 9.1l4 4.3-2.1 3c-1.2 1.6-2.1 3.4-2.1 4 0 1 3.4 3.3 4.1 2.7.2-.2 1.6-.6 3-.9 2.3-.6 2.8-.2 3.9 2.3 2.1 5.1 5 3.4 5-3.1 0-3.3 1.5-3.7 4.2-1.2s3.1 1 .6-2.2c-1.6-2-1.9-3-1-3.3 2.7-.9 7.1-5.4 6.6-6.7-.3-.8-2-1.5-3.7-1.7-3-.3-3.2-.6-4-5.3-.8-4.8-2.1-7.5-3.7-7.5-.4 0-1.7 2.2-2.9 4.9"/></svg>