<svg xmlns="http://www.w3.org/2000/svg" width="682.667" height="512" version="1.0" viewBox="0 0 512 384"><path d="M276 209.4c-13.6 1.9-18.3 3.3-28.5 8.1-15.9 7.6-25.5 20-27.6 35.5-.9 6.1-.8 8 .7 12 1.7 4.7 1.7 5-.2 9.2-2.9 6.5-2.6 20.6.6 27.3 4.9 10.2 19.6 21.9 35.1 28 16.9 6.8 39.3 10 51.1 7.6 16.2-3.4 26.1-13.5 30.2-30.6 3.3-13.8 6.9-26 8-26.7.7-.5.6-.8-.4-.8-.9 0-1.1-.3-.4-1 .6-.6 2.7-.4 5.8.5 6.1 1.9 7.6 1.9 7.6.1 0-2.2-5.2-5.4-9.9-6.2-4.9-.8-4.5.5-6.6-20.4-1.9-17.9-3.4-22.2-10.3-29.3-11.4-11.7-31.4-16.5-55.2-13.3"/></svg>