<svg xmlns="http://www.w3.org/2000/svg" width="682.667" height="512" version="1.0" viewBox="0 0 512 384"><path d="M337.4 68c-1.2.5-2.5 1.3-2.8 1.9-.4.6-3 1.8-5.9 2.6-10.7 3.1-21.6 11.9-33.5 27-3 3.8-7.1 8.7-9.1 10.7-4.2 4.6-3.4 4.8 2.5.8 5.2-3.5 5.5-2.6 1.8 5.6-1.6 3.7-2.2 6-1.5 6.2.6.2 1.1 1.8 1.1 3.5 0 1.8.3 5.7.7 8.7l.6 5.5 1.3-3c.8-1.7 1.3-2.3 1.4-1.3 0 2.6 2.2 6.8 3.1 6.2.5-.3.9-1.5.9-2.7.1-2.1.1-2.2 1.2-.2.6 1.1 1.7 2.5 2.5 3.2 2.1 1.7.1 4.8-4.7 7.3-4.6 2.4-5.2 5.2-1.9 9.4 1.7 2.1 1.9 3.4 1.4 6.7-.4 2.2-.3 4.5.3 5.2.5.7 1.2 2.5 1.5 4.2 1.6 8.3 3.5 13.9 5.2 15.1 1 .8 4.1 1.4 6.8 1.4h4.9l-.7 3.7c-.9 5.2-1.7 5.7-6 3.9-2.1-.9-3.9-1.6-4.2-1.6-1.2 0 1.3 2.3 4.7 4.5l3.8 2.4-2.3 9.3c-2 7.6-2.9 9.6-5.2 11.2-5.2 3.7-9.3 8.4-9.3 10.6 0 2.8-5.2 10.6-9.8 14.6l-3.5 3.2-6-3.9c-3.3-2.2-6.6-3.9-7.2-3.9-1.7 0-6.3 4.7-9.6 9.8l-2.7 4.3.5-4.3c.3-2.4 1.6-9.9 2.9-16.8 2.1-11.3 2.4-15.9 2.7-48.5.5-38.6 2.4-65.6 5.7-78.3 3.1-12.2-.5-18.2-11.1-18.2-9.3 0-12.2 5.4-9.4 17.2 1.4 5.3 1.6 9.3 1.2 16.2-.3 5-1.5 23.9-2.7 42.1-2 33.3-3.5 47.7-5 50.4-.4.8-.6 4.9-.3 9 .4 6.8-3.1 45.8-4.3 47-.6.6 0 1.6-12.4-22.4-6.2-12.1-11.7-22.6-12.2-23.3-1.5-1.8-5.8-1.5-9.4.7l-3.1 1.9-7-7.1c-3.9-4-8.9-10-11.1-13.4-2.3-3.3-5.3-7.1-6.8-8.2-3.4-2.7-16.8-6.8-26.4-8.2-4.1-.6-7.9-1.4-8.3-1.8-1.3-1.3.4-4.1 2.9-4.7 3.4-.9 5.1-3.2 3-4-1.5-.6-1.5-.8.4-2.1 2.9-2 1.6-3.3-3.5-3.3-7.2 0-9.3 1.4-12.1 7.5-3 7-3 11.4.1 21.4 3.3 10.4 5.2 11.9 21 17 11.9 3.8 17.3 6.5 20.3 10.1 1.3 1.6 5.2 9.7 5.2 10.8 0 .4-2.5 2.2-5.5 4.1-8.2 5.2-15.3 16.7-19.1 31.1-3.5 12.9-1.7 40 4.2 63.4 2.7 10.7 4.6 15.2 7.4 17.6.9.8 5.6 5.9 10.4 11.3l8.8 9.7h17.6c16.7 0 17.7-.1 19.9-2.2l2.3-2.1v2.1c0 2.1.4 2.2 10.4 2.2s10.5-.1 11.2-2.3c.5-1.2.7-8.7.5-16.7-.2-12.7 0-15 1.7-18.2 2.6-5 18.4-26.8 19.4-26.8.4 0 .8 1.3.8 2.9 0 4.9 2.7 10.9 8.9 19.4 6.8 9.4 7.5 11.6 9.2 29l1.2 12.7h150.8l-.5-3.3c-.3-1.7-.8-10.9-1.1-20.2-.3-9.4-1.9-28-3.5-41.5-5.5-47.2-6.3-55-5.7-58.3.3-1.7 1.7-9.5 3.2-17.2 7.8-42.9 9.5-71.1 5.6-94.2-2.2-13-6.4-26.5-9.6-30.9-1.3-1.7-2.9-5-3.5-7.5-4-14.9-16.3-28.1-32-34.3-10.5-4.1-18.6-5.7-33.2-6.3-9.8-.4-14.1-1-14.9-1.9-1.3-1.6-2.5-1.7-5.5-.4M153 206.6c1.2 1.2 1 1.4-1.6 1.4-1.9 0-3.8-.8-5-2.1l-1.9-2.1 3.5.7c1.9.4 4.2 1.3 5 2.1m5.6-97.4c-.9 1.2-1.6 3.3-1.6 4.7v2.4l-2.4-2.6c-2.1-2.3-7.9-4.7-11.4-4.7-1.8 0 2.1 7.3 5.3 9.9l2.7 2-3.4 1.4c-1.9.8-4.9 3.2-6.7 5.3l-3.2 3.9 5.1.3c3.2.2 6.3-.3 8.2-1.3 3.2-1.5 4.7-.9 4.8 2 0 .5.9 2.3 1.9 3.9l1.9 2.9 2.1-3.4c1.4-2.1 1.9-4.3 1.6-5.8-.5-2-.3-2.2 1.2-1.6 7.5 3.2 9.6.6 3.6-4.4l-3.6-3 2.6-1.2c3.8-1.7 3.3-2.9-.9-2.2-3.3.5-3.5.4-2.9-1.8.6-2.9-.7-8.1-2.2-8.6-.6-.2-1.8.6-2.7 1.9"/></svg>