<svg xmlns="http://www.w3.org/2000/svg" width="682.667" height="512" version="1.0" viewBox="0 0 512 384"><path d="M11 17.6c-.8.2-3.6.6-6.2.9l-4.8.6v12.2l6.7-.7c6.6-.7 8-1.3 13.2-5.4l2.4-1.9-4.9-.8c-3.4-.5-4.3-1-3.1-1.4 1.8-.6 1.8-.7 0-2.2-1-.9-2.5-1.4-3.3-1.3M7.5 43.9c-6.7.6-7 .7-7.3 3.3l-.3 2.6 9.8-.5c5.4-.3 12.5-.9 15.8-1.2l6-.7-4.2-2.2c-4.4-2.3-6.2-2.4-19.8-1.3m328 24.3c-1.1.6-2.4 1.7-3 2.4-.5.6-3.4 1.7-6.3 2.4-6 1.4-14.9 7-20.3 12.7-2 2.1-6.6 7.6-10.3 12.3s-8.3 10.5-10.4 13c-3.8 4.5-3.2 4.6 2.6.3 1.8-1.4 3.6-2.3 3.8-2 .3.3-.7 3.3-2.1 6.8-2.1 5-2.5 6.7-1.6 8.1.6 1 1.2 3.5 1.2 5.5.1 2.1.4 5.1.8 6.8l.7 3 .9-2.5c.7-2.3.9-2.1 2.2 2.4 1.1 3.6 1.7 4.6 2.4 3.5.5-.8.9-2.3.9-3.4 0-1.4.7-.9 2.3 2 2.8 4.8 2.1 6.7-3.5 9.6-4.5 2.3-4.9 4.7-1.3 9.3 2.2 2.9 2.4 3.7 1.4 6.4-.8 2.4-.7 3.5.5 5.5.9 1.3 1.3 2.6 1 2.9-.3.4.2 2 1 3.7.9 1.6 1.6 4.3 1.6 5.9 0 4.8 2.9 7.4 8.8 8 4.7.4 5.2.7 5.2 2.9 0 1.3-.5 3.3-1 4.3-.9 1.8-1.3 1.8-4.6.4-4.9-2.1-5.2-1.2-.7 2.1 2.1 1.6 4 3 4.1 3.1.2.1-.6 4.5-1.8 9.8-2.1 9.4-2.2 9.5-6.6 12.1-3.6 2.1-5 3.9-8 10.1-3.3 6.7-10 14.4-12.5 14.4-.5 0-3.6-1.8-7-4s-6.7-4-7.4-4c-1.5 0-8.2 6.9-11.1 11.6l-2.4 3.9.5-3.5c2.5-17.7 3.8-25.2 5.1-29.1 1.2-3.6 1.2-5.2.3-7.5-3-7.6-1-81.8 2.8-101.9 2.5-13.2 2.6-14.4 1.4-17.4-3-7-17.6-8.3-21-1.7-1.7 3.4-1.7 5.6.3 14 1.7 7.3 1.7 9.6.7 27.5-.7 10.8-1.8 32-2.6 47.1s-1.9 29.1-2.5 31-1.3 10.9-1.4 20c-.3 15.1-2.1 39.5-3.2 42.9-.4 1.3-3.2-2.7-9.7-13.9-1.1-1.9-7.2-11.9-13.5-22.3-12.4-20.3-13.5-21.2-18.2-16.2-1.3 1.4-2.8 2.5-3.4 2.5-1.9 0-14.9-13.2-19.5-19.8-5.4-7.6-8.2-9.4-18.8-12.1-12-3.1-18.7-2.7-19.9 1.2-.8 2.6 1.7 4.5 6.8 5.4 3.1.4 3.6.8 2.7 1.9-1.9 2.3-3.6 1.6-9.6-4.1-5.6-5.3-5.7-5.6-3.8-7 1.9-1.5 1.9-1.5-.3-3.1-2.6-1.8-2.8-4.1-.6-6.6.9-.9 1.8-3.3 2-5.3.3-3.2.1-3.5-2.5-3.5-1.5 0-4.3 1-6.1 2.2-9.4 6.3-8.8 30.9.9 39.1 1.7 1.4 6.4 3.4 11.3 4.6 20.6 5.4 25.6 8.3 31.7 18.6 3.2 5.2 3.3 5.9 1.8 6.9-8.1 5.5-10.1 7.5-14.2 14-7.5 12-9.7 19.8-10.2 35.6-.4 9.3 0 17.1 1.1 25 1.8 12.7 5.9 30.9 7.8 34.4.7 1.3 7.3 7.5 14.7 14l13.4 11.6h32.4l4.4-4.8c2.5-2.6 5.4-5.9 6.6-7.5 3-3.8 3.4-3.4 1.7 1.7-.9 2.5-1.4 5.7-1.2 7.3l.3 2.8 10.4.3c7.7.2 10.7-.1 11.3-1 .4-.7.5-6.7.2-13.3s-.1-16.6.4-22.2l1-10.3 7-9.2c7.4-9.7 17.1-19.8 15.7-16.3-.4 1.1-1 4.6-1.3 7.7-.6 7.7 1.4 13 8.6 23 6.9 9.5 7.6 11.7 9.3 29.1l1.2 12.7h75.3c71.1 0 75.4-.1 75.4-1.8-.1-12.8-2.7-46.9-5-66.2-1.6-13.5-3.6-31-4.5-39l-1.7-14.5 3.1-17c5.2-28.9 8.1-53.1 8.1-67.7 0-21.8-6.3-51.4-12.9-60.6-1.2-1.7-3-5.5-4-8.5-6.1-18.7-22.7-32.1-45.3-36.8-6.3-1.2-13.4-1.9-21.9-1.9-10.4 0-12.8-.3-13.3-1.5q-.9-2.7-5.1-.3M155 117.9c-.5 1.1-1 3.1-1 4.6 0 2.2-.3 2.4-1.9 1.5-2.4-1.2-10.8-1.3-11.5-.1-.6.9 4.2 5.5 8 7.7 1.8 1.1 1.8 1.3-.8 4-2.7 3-6.2 10.3-5.3 11.2s9-3.1 12.3-6.2c1.7-1.6 3.2-2.5 3.2-1.9s1.6 2.8 3.5 4.8l3.4 3.8 1.1-2.9c.6-1.6.9-4.3.5-6.1-.6-3.2-.5-3.3 2.9-3.3 1.9 0 3.8-.5 4.1-1.1.9-1.3-2.2-3.7-5.7-4.5-3.4-.8-3.4-1.1-.6-4.1 1.7-1.8 1.8-2.3.6-2.3-.9 0-2.1.7-2.8 1.5-1.8 2.2-2.7 1.9-3.5-1.3-.8-3.3-3.2-7.2-4.5-7.2-.5 0-1.4.9-2 1.9M0 257c0 19.6.4 31 1 31 .5 0 6-1.4 12.2-3 10.1-2.8 12-3 20.4-2.4 8.5.6 9.4.5 12.2-1.6 1.7-1.3 2.8-2.8 2.5-3.6-.4-1 .5-1.4 3.5-1.4 5.4 0 9.2-3.1 9.2-7.5 0-6.2-10.4-13.4-45.1-31.1-2.6-1.3-5.2-3.1-6-4-.7-.8-3.2-2.9-5.6-4.5l-4.3-3z"/></svg>