<svg xmlns="http://www.w3.org/2000/svg" width="682.667" height="512" version="1.0" viewBox="0 0 512 384"><path d="M20.8 21.7c-2.1.7-5.8 2.2-8.2 3.3-2.5 1.1-4.9 2-5.3 2S5 28.5 3.2 30.4C0 33.7 0 33.8 0 43.3v9.6l3.3.4 3.2.4-3.2.1C.1 54 0 54.1 0 58.5v4.6l7.2-.5c4-.3 11.5-.8 16.6-1.1 11.9-.7 15.2-1.4 15.2-3.1 0-.7 1.3-2.3 3-3.5 2.4-1.8 2.7-2.5 1.7-3.7-.9-1.2-.5-2 2.6-4.7 2-1.8 3.7-3.5 3.7-4 0-.4-4-.4-8.8 0l-8.9.7-.1-3.5c-.1-2.3.5-4.1 1.9-5.3 2.8-2.5.9-3.4-7.3-3.4-3.9 0-6.8-.4-6.8-1s.6-1 1.3-1c1.3 0 4.5-7.6 3.6-8.3-.2-.2-2.1.3-4.1 1M336 67.8c-.8.2-2.4 1.2-3.5 2.2-1.1.9-4 2.2-6.5 2.9-10.9 3.2-18.6 9.6-32.8 27.6-12.8 16.1-12.2 15.3-8.7 13.1 1.7-1 4-2.8 5.3-3.9 2.8-2.6 2.8-2.2-.8 6.8-3.3 8.2-3.4 8.9-2.1 8.1s2.1 1.9 2.1 6.7.9 8.7 2 8.7c.4 0 .6-1.2.3-2.8-.2-1.6.6-.4 1.9 2.8l2.3 5.5.5-4 .5-4 2.3 3.9c2.8 4.8 2.2 6.9-3 9.8-2.3 1.3-4.3 2.8-4.5 3.4s.8 2.8 2.3 4.9c2.2 3.2 2.5 4.6 2 8.1-.4 3-.1 4.6.9 5.4.7.6 1.2 1.7.9 2.4s.2 2.6 1.1 4.2c.8 1.6 1.5 4.3 1.5 6 0 4.9 2 6.7 8.4 7.2 6.1.5 6.6 1.3 4.6 6.6-.9 2.5-1 2.5-5.1 1.1-2.3-.9-4.4-1.3-4.6-1.1-.4.3 5.5 4.6 8.5 6.2.3.1-2.6 13-3.9 16.9-.6 1.8-2.7 4.2-5.4 6-2.9 1.9-5 4.3-6 6.8-2.6 6.5-6.4 11.6-10.5 14.2l-3.9 2.5-6.5-4.5c-3.5-2.5-6.9-4.5-7.5-4.5-1.6 0-8.9 7.8-10.9 11.5-.8 1.7-1.7 2.4-1.9 1.8-.6-1.8 2.5-22.8 4.2-28.7 1.1-3.5 1.2-6 .6-8.5-1.8-7.1-2.2-26.2-1.1-54.1 1.2-31.1 2.2-42.7 4.6-53.8 1.3-6 1.4-7.8.3-10.4-1.7-4.1-6.4-6.8-12-6.8-3.7 0-5 .5-7.4 3-2.7 2.9-2.8 3.1-1.9 9.7 1.8 13.4-.3 93-2.7 105.7-.6 2.8-1.4 14.3-1.9 25.6-.9 22.2-2.7 42-3.9 43.3-.6.6-6.3-7.5-11.6-16.5-9.7-16.5-25.5-39.8-27-39.8-.8 0-3 1.3-4.8 3l-3.4 3-4.9-4.5c-2.7-2.4-5.2-4.5-5.6-4.5s-3.4-3.8-6.8-8.5c-3.3-4.6-7.3-9.3-8.8-10.4-1.6-1.1-6.5-2.9-10.9-4-12.6-3.2-20.3-2.5-20.3 1.8 0 2.5 1.8 3.8 6.3 4.6 3.5.7 3.7.9 2.3 2.3-1.9 2-4.3.8-11.3-5.3-4.4-4-4.7-4.5-3.5-6.5 1.1-1.9 1.1-2.5-.2-3.9-1.8-2-2.1-4.7-.6-5.6.5-.3 1-2.6 1-5.1 0-5.4-1.8-5.8-7.6-1.6-3.5 2.6-4.1 3.7-5.7 10.3-1.2 4.9-1.5 9.1-1.1 12.4.8 5.8 5.7 15.8 8.8 17.8 1.1.8 5.9 2.4 10.6 3.6 21.2 5.5 25.2 7.7 31.6 17.3 2.5 3.7 4.3 7.1 4 7.6-.2.4-2.7 2.3-5.3 4.1-7.8 5.3-15.7 19.1-18.9 33-3.2 13.2-.3 46 5.8 66.9 1.9 6.5 2.6 7.7 7.7 11.9 3.1 2.7 6.5 5.6 7.6 6.6s5.2 4.3 9.1 7.3l7.1 5.4 16.9-.2 16.9-.3 6.9-8.7c3.9-4.8 7.2-8.6 7.4-8.4s-.4 2.8-1.2 5.7c-.9 2.9-1.6 6.8-1.6 8.6v3.3h11c8.1 0 11-.3 11.1-1.3 0-.6.1-11.1.3-23.3l.2-22 2.7-4.7c3.6-6.1 13.7-18.3 18.7-22.5l3.9-3.3-1.4 4.8c-3.3 10.6-1.2 19.2 7.5 30.8 3.7 5.1 6.3 9.7 6.9 12.5 1 4.2 3.1 22.8 3.1 27.1 0 1.8 2.1 1.9 75.6 1.9h75.6l-.6-18.8c-.4-10.6-2.2-31.2-4.2-47.7-1.9-16-4.1-35-5-42.3-1.5-12-1.5-14-.1-21.5 2.5-13.1 5.5-31.9 7.7-48.9 2.4-18.3 2-36.9-1.1-55.8-2.1-13.1-6.8-27.6-10.3-32.3-1.3-1.8-2.9-5-3.6-7.2-6.3-20.1-23.5-33.8-47.5-38-4.8-.8-14.3-1.5-21.1-1.5s-12.4-.4-12.4-.9c0-1.2-2.2-1.9-4-1.3"/><path d="M152 122c-.6 1.1-1 3-.8 4.2.3 1.9-.2 2.1-5.9 2.2-3.4.1-6.5.4-6.8.8-1.5 1.4.4 3.6 5.2 6l4.8 2.4-2.2 3.3c-2.3 3.5-4.8 10.9-3.9 11.8.7.7 11.2-6.3 12.9-8.7 1.4-2 1.6-2.1 2.2-.3.3 1 2 2.9 3.6 4.2 2.5 2 3.2 2.2 4 1 1.2-1.9 1.1-5.6-.1-7.9-.9-1.7-.6-2 1.7-2.6 1.6-.3 3.4-.8 4.1-1 2.4-.7.7-2.8-3.4-4.3-5.1-1.9-5-1.8-2.9-4.1 2.6-2.9.9-3.8-2-1l-2.5 2.3-1.4-3.4c-.8-1.9-2.3-4.3-3.4-5.3-2-1.7-2.1-1.7-3.2.4M0 244.3c0 50.1-.1 49.4 4.3 48.3.6-.1.9-.1.5.1-1.7 1-.7 2.4 1.2 1.8 1.1-.4 2-.2 2 .4s1.4 1.1 3 1.1c1.7 0 3-.3 3-.8 0-1.1 12.2-3.3 21.3-3.8 8.1-.5 18.9-3.5 21.9-6.1q1.65-1.5 1.2-4.2c-.5-2.4-.1-2.9 3.8-4.6 4.7-2.2 6.9-5.6 7.1-11.1.1-1.8.6-3.5 1.2-3.8.6-.2 1.7-2.2 2.5-4.5 1.2-3.8 1.2-4.4-1.3-9.4-4.9-10-11.3-14.2-29.7-18.9l-12.3-3.2-8.1-7.8c-4.5-4.4-11.1-10.9-14.8-14.5L0 196.7z"/></svg>