<svg xmlns="http://www.w3.org/2000/svg" width="682.667" height="512" version="1.0" viewBox="0 0 512 384"><path d="M0 66.7c0 28.4 0 28.6 2 26.8 3.3-3 4.3-7.6 2.6-12.6-1.2-3.5-1.3-4.8-.3-6.9l1.2-2.5 20.5-.8c14.6-.5 21.4-1.2 23.8-2.2 1.8-.8 3.9-1.5 4.7-1.5s1.5-.5 1.5-1.2c0-.8-4.5-1-17.2-.6l-17.3.6L33 64.5c6.3-.7 12.8-1.8 14.3-2.4 4.1-1.6 18.2-1.4 28.7.5 13.8 2.3 17.2.6 16.3-8.4-.3-3.1-1.1-6-1.7-6.5-.6-.4-9-.7-18.6-.6-10.6.1-18.6-.3-20.3-1-1.6-.6-3.6-1.1-4.4-1.1-.9 0-1.4-.3-1-.6.3-.3-.2-1.4-1.1-2.4-1.7-1.7-4.5-1.7-22.7.4-4.2.5-17.3-2-18.9-3.5C3 38.4 2 38 1.3 38 .3 38 0 43.8 0 66.7m31-9.2c6.9 1.4 13.6 2.6 15 2.7 3.9.2-15.6 1.6-25.1 1.7-7.3.1-9-.2-11.2-1.9-1.5-1.2-2.4-2.7-2-3.5.8-2.2 8.8-1.9 23.3 1m300.8 12.4c-1.3 1.1-4.4 2.4-6.8 3.1-9.9 2.7-18.1 9.4-29.6 24.3-4.8 6.2-10.3 12.9-12.3 15.1-3.1 3.3-3.2 3.7-1.1 2.6 1.4-.7 4-2.3 5.8-3.7 3.8-2.9 3.9-2.5.7 5.2-2.5 6.2-3.1 9-1.6 8.1.4-.3 1.1 2.7 1.5 6.7.6 7 2.5 11.7 2.7 6.6 0-1.8.4-1.4 1.6 1.8 1.8 5.1 3.3 5.6 3.3 1v-3.2l2.5 4.4 2.6 4.4-2.3 2.4c-1.2 1.3-3.4 2.9-4.8 3.6-3.5 1.7-3.7 4.4-.5 7.7 2.4 2.5 2.7 3.5 2.2 6.8-.5 2.8 0 5.7 1.8 10.7 1.4 3.7 2.5 7.9 2.5 9.1 0 4.1 3.3 6.4 9.1 6.4h5.1l-.7 4.2c-.4 2.4-.9 4.5-1 4.6-.2.2-2-.1-4-.8-5.1-1.7-5.4-.6-.7 2.5l4 2.6-1.4 6.2c-2.7 12-3.2 13-7.8 16.2-2.5 1.6-5 4.1-5.7 5.5-4 8.8-5.8 11.5-10.1 14.6l-4.7 3.5-4.7-3.6c-2.6-2-5.9-4.2-7.4-5-2.6-1.3-2.9-1.2-6.7 2.8-2.3 2.3-5.3 6-6.7 8.1s-2.6 3.3-2.6 2.5c.1-3.5 3.2-23 4.5-28.2 1.2-4.7 1.3-6.7.3-10.5-2.7-11.1-.4-86.9 3.2-105.1 2.2-11.1 1.3-14.8-3.9-17.5-4.6-2.5-12.3-2.1-14.8.6-3.2 3.6-3.5 6.1-1.8 14.5 1.4 6.5 1.6 11.4 1.1 28.8-1.2 37.2-2.7 67.8-3.8 74.5-.5 3.6-1.1 13-1.2 21-.3 20.7-2.4 43.1-4.3 45-1.3 1.3-1.6 1.3-2.6-.3-10-15.9-37.2-55.7-38-55.7-.6 0-2.7 1.6-4.7 3.4l-3.5 3.5-7.8-7.1c-4.3-3.9-8.5-8.4-9.3-10-1.9-3.7-8.1-10.6-10.8-12-3.7-2-16-4.8-21.3-4.8-4.8 0-8.3 1.6-8.3 3.9 0 1.6 3.7 4.1 7 4.7 3 .6 3.1.8 1.5 2-2.2 1.6-4.9.4-11.1-5-3.3-2.8-4.3-4.5-4.8-7.8-.6-4.2-.7-5.6-.4-13 .3-5.5-1.3-6.5-5.7-3.8-1.9 1.2-4.1 3.4-4.9 4.8-2.1 4.3-3.7 14.4-3 19.7.8 5.8 5.7 15.8 8.8 17.8 1.1.8 5.9 2.4 10.6 3.6 21.5 5.6 26.3 8.2 32.9 18 2.3 3.3 4.1 6.4 4.1 6.8s-2 2.1-4.5 3.8c-7.7 5.1-15.6 18-19.2 31.5-3.8 13.9-1.3 46.8 5.1 69 2.7 9.4 1.6 8.1 19.6 21.8l11.5 8.7 17.2.3 17.2.3 3.3-3.7c1.8-2 5.7-6.8 8.6-10.6 5.5-7.4 6.4-7 3.7 1.8-.8 2.7-1.5 6.6-1.5 8.6v3.8h21.8l.7-2.9c.3-1.6.1-5.8-.5-9.2-1.4-7.6.5-36.8 2.6-41.1 3.7-7.2 21.4-26.1 23-24.5.3.3-.2 2.9-1 5.8-3.3 10.8-1.3 18.7 7.4 30.4 3.7 5.1 6.3 9.7 6.9 12.5 1 4.2 3.1 22.8 3.1 27.1 0 1.8 2.1 1.9 75.7 1.9h75.6l-.6-20.8c-.4-12.9-1.6-27.8-3.2-39.7-4.7-35-6.8-53.9-6.9-60.5-.1-3.6 1.1-13.3 2.6-21.5 7.3-40.7 8.7-69.8 4.4-93-2.7-14.6-6.4-26.2-10-31.5-1.4-1.9-3.9-7.3-5.7-11.9-2.8-7.4-4.1-9.4-10.8-16.1-5.8-5.9-9.4-8.6-15.1-11.3-11.8-5.6-17.6-6.8-36-7.4-9.1-.3-16.9-.9-17.4-1.4-1.6-1.5-5.2-1-7.8 1M.1 97.6c0 1.1.3 1.4.6.6.3-.7.2-1.6-.1-1.9-.3-.4-.6.2-.5 1.3"/><path d="M148 129.6c0 4.4-.1 4.6-2.5 4-3.4-.9-10.5 1.1-10.5 2.8 0 1.5 7.6 5.6 10.3 5.6 1.6 0 1.6.3-.2 2.7-1.8 2.5-4 9.6-4.1 13.1 0 1.8 8.5-4.2 11.2-7.8l2.1-2.9 3.6 3c1.9 1.6 4.1 2.9 4.8 2.9 1.6 0 1.8-7.6.3-8.5-1.8-1.1-1-2.3 2-3 1.6-.4 3.3-1.1 3.6-1.7 1-1.6-2.5-3.8-5.8-3.8-2.8 0-3.9-2.2-1.8-3.5.6-.3 1-1.4 1-2.2 0-1.3-.7-1-2.9 1.1-2.8 2.7-2.9 2.7-3.5.8-1-3-4.6-7.2-6.2-7.2-1 0-1.4 1.3-1.4 4.6M0 241.1c0 70 0 70.2 2 68.4 1.5-1.3 3.9-1.8 9.7-2 13.9-.5 42-8.8 59.8-17.8 10.1-5.1 31.5-17.6 39.2-22.8 2.3-1.6 4.6-2.9 5.2-2.9s2-.5 3-1.2c2.7-1.6 1.3-3.9-4.4-7.2-2.5-1.5-4.5-3.3-4.5-4 0-4.7-12.9-13.4-41.5-28.1-1.6-.9-4.8-2.7-7-4s-5.3-3.1-6.8-4c-7-4-26.8-17.8-32.2-22.5-6.8-5.9-8.6-8-8-9.1.5-.7-6.5-7.3-11.7-11.1L0 170.9z"/></svg>