<svg xmlns="http://www.w3.org/2000/svg" width="682.667" height="512" version="1.0" viewBox="0 0 512 384"><path d="M0 192.2C.1 361 .2 384.2 1.5 382c1.2-2.1 1.4-6.2.8-24.1l-.6-21.5 8.4-1.3c7.4-1.1 21.9-4.2 27.2-5.7 1-.3 3.2-2.8 4.8-5.5 2.5-3.9 3.7-5 6.6-5.5 2.2-.4 4.4-.2 5.4.5 5.3 3.3 15.1.1 37-11.9 12.9-7.1 15.4-9 15.4-11.9 0-1.1 2.1-2.3 6.3-3.7 5.3-1.9 9.6-4.8 15.8-10.9 3.5-3.5 7.5-10.4 8.5-15 1.9-8.8-1.9-22.8-7.6-27.5-.8-.7-1.5-2-1.5-3 0-2.5-16-10.1-37-17.5-20.1-7.2-23.7-8.9-39-19.1-15.2-10.1-37.3-32.5-41.7-42.4-2.3-5-2.5-6.3-2-15.5.6-10.8.9-13.1 2-14.1.4-.4 3.2-1.1 6.3-1.5s6-1.1 6.4-1.6c.5-.4.4-3.2 0-6.1-.5-3-.5-6.1-.1-7 .5-1 1.4-2.9 2-4.4.6-1.7 2.4-3.3 4.5-4.2 6.3-2.6 5.8-11.6-.9-17.5-1.9-1.6-3-3.3-2.5-3.6s6-.1 12.2.5c11.3 1.1 15.2.9 24.1-1.2 6.8-1.7 3.9-2.8-7.8-2.9-5.5 0-12-.4-14.5-.8l-4.5-.8 5-.3c4.1-.2 3.4-.4-3.8-1.1-11.4-1-15.5-3.5-12.8-7.8.7-1.1 5.3-1.5 21.9-1.8 15.8-.2 21.9-.7 24.6-1.8 3.9-1.6 4.2-2.5 2.5-7.3-.9-2.5-1.9-3.4-5.2-4.3-2.3-.6-5.8-1.5-7.7-2.1-2.6-.7-5.2-.6-10.1.6-6.1 1.4-7.1 1.4-14.2-.4-7.4-1.9-13.2-4.4-17.1-7.5-1.7-1.3-1.8-1.9-.8-5.3 1.6-5.1 1.6-4.9-1.6-5.7-2.2-.4-2.8-1.2-3-3.5-.5-6.8-3.1-18.8-4.8-22.5C6.8 1.2 5.9.4 3.2.2L0-.1z"/><path d="M332 69.4c-.6.8-3.5 2.3-6.3 3.2-2.9.9-6.9 2.5-8.9 3.5-5.7 2.9-16.1 13.2-23.5 23.3-3.7 5-8.5 11.1-10.8 13.5l-4 4.4 5.8-3.6c3.1-2 5.7-3.2 5.7-2.7s-.9 3.3-2.1 6.2c-1.5 3.8-1.8 5.7-1 7.2.5 1.2 1.2 4.9 1.4 8.3.6 6.9 1.5 9.3 2.8 7.2.6-1 1.1-.5 2 1.8 1.4 4.2 3.3 4.3 2.4.2-.9-3.9.5-3.2 3.3 1.5l2 3.4-2.6 2.5c-1.5 1.3-3.7 3-4.9 3.6-3 1.5-2.9 4.2.3 8 2.1 2.5 2.4 3.6 1.8 6.6-.3 2-.2 4.6.4 5.8.5 1.2 1.7 4.9 2.7 8.2 3.1 10.7 3.3 11 9.8 11.3l5.8.3-.7 3.7c-.9 5.1-1.6 5.6-5.9 4.2-5.1-1.7-5.3-.8-.5 2.5 2.2 1.5 4 3.5 4 4.4 0 1.9-3.6 17.1-4.1 17.5-.2.1-2.5 1.8-5.1 3.6-3.2 2.2-5.1 4.4-5.7 6.5-1.5 5.6-5.7 11-10.4 13.5l-4.6 2.5-2.8-2.6c-4.1-3.8-8.9-6.9-10.6-6.9-1.4 0-8.8 7.4-11.9 12l-1.7 2.5V254c-.1-4.1 2.7-22.3 3.9-25.7.9-2.5.9-5.4.1-11.8-1.4-10.5-1.5-43.9-.1-71.5 1.1-21.6 1.3-23.5 3.6-34.3 1.2-5.8 1.2-7.2 0-10.1-2.8-6.6-13.7-9-19.3-4.2-3.2 2.8-3.4 6.1-1.2 18.9 1.1 6.6 1 14.2-.4 52-1 24.3-2.3 46.4-2.8 49.2-.6 2.7-1 10.6-.9 17.5 0 6.9-.6 19.5-1.4 28-1.2 12.5-1.8 15.7-3.2 16.7-2.4 1.8-2.7 1.7-4.5-1.5-.9-1.5-7.1-10.6-13.7-20.2-6.7-9.6-14.7-21.2-17.8-25.8-3.1-4.5-5.9-8.2-6.2-8.2-.2 0-2.2 1.6-4.3 3.5L182 230l-6.5-5.3c-3.6-3-8.9-8.6-11.7-12.4-2.9-3.9-6.6-8.1-8.1-9.3-5.1-4-22.9-7.4-28.1-5.4-1.9.7-2.1 4.7-.3 6.2.6.6 2.4 1.3 3.9 1.7 3.1.8 2.8 2.5-.3 2.5-2.7 0-13.6-8.4-14.5-11.3-.5-1.2-.9-5.1-.9-8.7-.3-12.6-2.4-14.8-8.4-8.6-3.8 4-5 8.4-5.1 19.7 0 6.1.5 8.5 2.6 12.7 3.8 7.7 6.6 9.5 19.6 12.7 15.1 3.7 22.6 7.3 27.5 13.3 4.9 5.9 8.6 11.2 8.2 11.6-.2.1-2.5 1.7-5.1 3.5-6.7 4.5-13.5 15-17.9 27.6-3 8.5-3.7 28.9-1.5 45 2 14.7 6 33 8 36.1 1.7 2.5 9.3 8.5 21.4 16.7l8.3 5.7h34.5l4.1-4.3c2.3-2.3 6.4-7.5 9.2-11.6 4.6-6.7 5.1-7.2 5.1-4.5 0 1.6-.9 5.7-2 9.2s-1.7 7.4-1.4 8.8c.6 2.4.8 2.4 11.4 2.4h10.8l.7-2.9c.3-1.6.2-4.7-.4-6.8-1.4-5-1.3-14.8.3-31.5l1.3-13.8 5.8-7.6c5.8-7.5 15.5-16.4 18-16.4 1 0 .9 1.4-.6 6.1-3.6 11.6-2.1 18.7 6.9 31.1 3.3 4.5 6.5 10.1 7 12.3 1 3.6 3.2 23.2 3.2 27.7 0 1.7 3.1 1.8 75.5 1.8 63.1 0 75.6-.2 76.1-1.4 1.2-3.2-1.7-43.8-5-68.1-1.9-14.3-4.2-32.1-5.1-39.5l-1.7-13.6 3.1-18.5c5.4-32.6 6.6-44.9 6.5-65.4-.1-14.8-.6-21.6-2.3-30.9-1.2-6.5-2.6-12.6-3-13.5-.5-.9-1.8-4.4-2.9-7.8-1.2-3.5-3.2-7.8-4.5-9.5-1.4-1.8-3.2-5.6-4.1-8.5-4-12.1-14.5-23.7-27.1-29.8-11.3-5.4-17.2-6.6-36-7.2-9.3-.3-17.4-.9-17.9-1.4-1.5-1.4-5.2-1.1-6.6.5"/><path d="M144.2 130.7c-.5 1-.7 3.3-.4 5.2.4 2.8.2 3.3-1.1 2.8-2-.7-8.8 1.1-10.6 2.9-1.3 1.1-.8 1.6 3 3.3 2.4 1.2 5.4 2.1 6.7 2.1 2.2 0 2.2.1.6 3.1-.8 1.7-1.8 5.6-2.1 8.7l-.6 5.6 4.3-3.4c2.4-1.9 5.2-4.9 6.3-6.7l1.9-3.3 2.6 1.9c1.5 1 3.8 2.2 5.1 2.6 2.2.7 2.3.5 1.9-3.1-.3-2.2-.8-4.7-1.2-5.6-.6-1.3-.2-2 1.7-2.7 5.6-2.1 4.1-5.1-2.5-5.1-4.2 0-4.5-.5-2.2-3.8 1.2-1.7 1.2-2.2.2-2.2-.7 0-1.9.9-2.6 2-1.6 2.6-3 2.5-4.3-.3-.6-1.2-2.1-3-3.4-4-2.3-1.7-2.5-1.7-3.3 0"/></svg>