<svg xmlns="http://www.w3.org/2000/svg" width="682.667" height="512" version="1.0" viewBox="0 0 512 384"><path d="M283.5 204c-16.6 2.5-35.6 11-47.5 21.3-8.6 7.4-12.9 13-17.1 22.2-5.5 12.1-4.7 24.5 2.3 34.3 2.7 3.9 2.9 4.6 1.8 7.3-1 2.3-1 4.2 0 9.1 3.3 16.7 14.6 26.9 36.5 33 10.8 3 38.1 3.2 49 .4 19.5-5 30.6-14.3 34.9-29.1 1.5-5.1 1.7-8.5 1.1-24.4-.4-10.3-.9-19.4-1.1-20.3-.4-1.4.5-1.8 5.6-2.4 4-.4 6-1.1 6-2 0-2.4-4-3.7-9.4-3-4.9.5-5.2.4-6.3-2.2-11.6-28.6-12.4-30-18.9-35.6-9.8-8.3-21.2-11-36.9-8.6"/></svg>