<svg xmlns="http://www.w3.org/2000/svg" width="682.667" height="512" version="1.0" viewBox="0 0 512 384"><path d="M2.2 2.3 0 4.6v56.3c0 61.4 0 61.5 6.1 78.2 4.6 12.6 3.8 22-2.6 30.4L0 174v159.5l4.5.2c2.4.1 4.8.4 5.3.7.4.2.1 6.1-.7 12.9l-1.4 12.5-3.9 1.1-3.8 1.2V384h43.1l2.5-5.4c1.9-4.2 2.6-7.7 3-15.3.7-13.1 2.4-28.4 3.4-30.3.5-.9 3.1-2.2 5.9-2.9 2.7-.7 5.1-1.7 5.3-2.3s6.8-1.8 14.6-2.7c11.1-1.2 15.2-1.3 19.4-.4 2.9.6 11.2 1.1 18.3 1.2h14.1c.7.1 1.5 2.2 1.9 4.8 1.4 10 5.4 28.1 6.9 31.8 1.9 4.4 1.9 4.4 17.6 14.2l11.5 7.3h19.6c22.8 0 19.4 1.7 31.4-15.8 4.2-6.1 7.8-11.2 8-11.2.7 0-.6 7.3-2.6 14.6-1 3.8-1.9 8.3-1.9 9.7v2.8l11.3-.3 11.2-.3-.4-13.7c-.2-7.5.3-20.5 1-28.9 1.2-13.9 1.5-15.5 4.2-19.5 3.3-5 13.5-14.7 17.9-17 4.6-2.4 5.3-.7 2.9 6.6-3.8 11.6-2.3 19.1 6.5 30.7 3.1 4.2 6.2 9.5 6.9 11.7 1.1 3.5 3.5 23.7 3.5 28.9 0 1.6 5.2 1.7 75.9 1.7h75.9l.4-2.4c1-4.9-2.2-44.8-5.1-65.1-4.3-29.4-7.1-51.9-7.1-56.5 0-2.1 1.1-10.8 2.5-19.2 9.1-56.9 8.6-86.1-2-115.8-1.5-4.1-3.5-8.4-4.6-9.5-1-1.2-2.8-4.7-3.9-8-5.3-15.4-16.7-26.8-33.1-32.9-9.8-3.7-17.7-4.8-34.1-4.7-8.2 0-15-.4-15.3-1-1-1.5-4-1-6.6 1-1.3 1-4.7 2.6-7.5 3.5-2.9.9-7.3 3.1-9.8 4.8-5.3 3.5-15.5 14.4-21.7 23.3-2.3 3.3-6 8.2-8.3 11-3.9 4.7-3.9 4.9-1.1 3.1 1.7-1 3.9-2.7 5.1-3.7 1.1-1.1 2.3-1.9 2.6-1.9.4 0-.7 3.7-2.3 8.1-1.6 4.5-2.7 8.4-2.4 8.7s.5 0 .5-.6c0-.7.4-1.2.9-1.2s.9 1.8.9 4.1c.1 7.5 1.8 13.1 3.3 10.8.6-1 1.1-.5 2 1.8 1.3 4 2.7 4.2 3.1.5l.3-2.7 2.3 3.9 2.3 3.9-2.3 2.4c-1.2 1.3-3.4 2.9-4.8 3.6-3.4 1.7-3.6 3.9-.5 7.5 2.1 2.5 2.6 4 2.4 7.7-.2 2.5.3 5.1.9 5.7.7.7 1.2 2.2 1.2 3.4 0 1.3.4 2.5.9 2.9.6.3 1.3 2.5 1.6 5 1 6.4 2.3 7.7 8.4 8.3l5.3.5-.6 4c-.4 2.3-.8 4.3-1 4.4-.2.2-2.2-.4-4.6-1.2s-4.5-1.4-4.7-1.2c-.3.3 4.1 3.5 8.6 6.3.1.2-.6 4.2-1.8 9-2 8.5-2.2 8.9-8.1 14.4-3.3 3-6 6.3-6 7.3 0 3.2-4.3 8.4-9.4 11.2-3 1.7-5.1 2.4-5.4 1.7-.6-1.9-10.8-9.2-12.8-9.2-2.2 0-7.7 5.4-11.8 11.5-1.4 2.2-2.6 3.4-2.6 2.8 0-4 3.2-24.7 4.2-26.8.8-1.9.8-5-.1-12.7-2.5-20.3-.7-85.1 2.8-103.5 1.5-7.6 1.5-9.7.5-12.2-1.6-3.9-6.1-6.1-12.3-6.1-4.3 0-5.3.4-7.5 3.1-3 3.5-3.2 5.6-1.1 13.6.9 3.6 1.5 10.3 1.5 18.1 0 19.9-3 85.4-4.1 89.5-.5 2-1.2 13.3-1.5 25-.6 28.1-1 31.2-5 33.7l-3.1 2-5.4-7.6c-3-4.2-6-8.6-6.8-9.8-1.9-2.8-28.3-38.7-29.7-40.5-.2-.2-1.8 1.3-3.7 3.3s-3.9 3.6-4.5 3.6c-2.2 0-13.5-10.6-18.9-17.7-3.1-4.1-6.7-8.1-8-9-2.8-1.8-16.3-5.2-21.1-5.3-8.7-.1-10 6.6-1.7 8.8l2.7.8-2.5 1.3c-2.3 1.2-3 1-8.4-2.7-3.2-2.2-6.4-4.6-7-5.3-1.8-2.3-4.1-11.4-3.6-14.1.3-1.8-.2-3.3-1.6-4.7-1.2-1.2-2.1-2.5-2.1-3 0-1.7-2.1-2.3-3.6-1-4 3.3-5.8 9.1-5.8 19.4 0 9.6.2 10.4 3.3 15.9 5.1 9.2 5.7 9.5 18.9 12.6 16.2 3.7 18.4 4.6 24.3 9 4.9 3.7 12.8 13.3 12.9 15.6.1 3-3.4 2.1-9.1-2.5-3.4-2.8-10.6-6.9-16.7-9.7-5.9-2.6-12.3-5.9-14.2-7.3s-7.7-4.9-12.8-7.7-11.6-7.4-14.5-10.1c-6.9-6.6-15.1-16.3-13.8-16.3 2.8 0 .4-4-7.3-11.9-9-9.3-10.4-12-14.1-27.9-1.7-7-1.8-22.2-.2-23.8.3-.3 3.6-1.4 7.4-2.3l6.8-1.8-.1-4.5c-.1-2.8-1.5-7.1-3.8-11.9-4.7-9.7-4.7-10.3.7-9.5 2.3.4 8.3.9 13.2 1.1 7.6.4 8.4.3 4.8-.6-3.8-.9-4.1-1.2-3.4-3.3.7-1.7.5-2.5-1-3.4-2.3-1.5-2.4-3.5-.4-5.2 1.1-.9 1.2-1.6.4-2.6s-.5-1.5 1.8-1.9c1.5-.4 3.2-.8 3.8-.9.5-.1-3.1-1-8-2-5.1-1-9.9-2.6-11-3.6s-3.8-2.7-6.1-3.8c-5.3-2.7-7.3-4.9-5-5.8 1.9-.7 4.7-.3 13.3 2 7.6 2.1 13.9 2.4 15.4.9 1.7-1.7-.7-7.1-4-8.7-1.4-.8-5.1-1.7-8.1-2-7.3-.9-12.5-2.3-13.8-3.9-.5-.6-1.3-3.3-1.6-5.9-.7-4.5-3.2-7.8-6.9-9.1-1.2-.4-1-1.4 1.8-7.9.5-1.3.1-1.9-1.8-2.3-2.9-.8-3-1.2-4.8-19.8L40.7 0H22.5C4.8 0 4.3.1 2.2 2.3m54.6 81.4c-1 .2-2.6.2-3.5 0-1-.3-.2-.5 1.7-.5s2.7.2 1.8.5"/><path d="M133.4 138.5c-.4.8.1 2.6 1 4 2 3 1.4 4.5-1.7 4.5s-10.2 4.9-8.9 6.2c.6.6 3.8 1.1 7.1 1.2l6.1.1-.6 3c-.8 3.6-.7 12.6.2 13.4.9.9 7.3-7.1 7.9-10.1.9-3.7 1.4-3.9 6.5-2.2 2.7.9 4.7 1.1 5.2.6 1.3-1.3-2-8.2-3.8-8.2-2.3 0-1.5-1.4 1.9-3.5 4.2-2.6 3.3-4-2.5-3.9-5 .2-5.5-.4-3.8-3.7 1.6-2.9-.5-2.3-2.5.7-1.7 2.6-1.7 2.6-3.8.6-2.2-1.9-6-4.2-7.2-4.2-.3 0-.8.7-1.1 1.5"/></svg>