<svg xmlns="http://www.w3.org/2000/svg" width="682.667" height="512" version="1.0" viewBox="0 0 512 384"><path d="M278.6 198c-13.2 2.4-29.6 11.9-42.1 24.6-8.7 8.8-13.7 16.2-18.4 26.9-2.9 6.5-3.6 9.6-3.9 16.6-.3 5.2 0 10.2.8 12.5 1.9 6.3 6.9 13.7 10.9 16.5 3.3 2.3 3.9 3.3 4.4 7.7 1.6 13.4 12.2 24 27.8 27.7 9.2 2.1 26.5 1.9 36.5-.5 21.1-5 41.9-17 48.9-28.1 1.3-2 3.4-6.7 4.6-10.4 2.6-8.1 2.2-15.4-1.6-26.5-1.4-4-3.4-10.8-4.6-15.2-1.2-4.3-3.2-9.5-4.5-11.4l-2.4-3.5 4.2-1.8c2.4-1 5.1-2.1 6.1-2.4 2.5-.9 2.1-2.6-.9-3.9-2.1-1-3.3-.8-7.8 1.4l-5.3 2.6-7.4-9.1c-11.9-14.7-14.5-17.2-21.1-20.6-7-3.5-15.7-4.6-24.2-3.1"/></svg>