<svg xmlns="http://www.w3.org/2000/svg" width="682.667" height="512" version="1.0" viewBox="0 0 512 384"><path d="M114.8 2.7c-4.9 5.3-6.1 8.8-4.8 14.9.9 4.4 1.7 5.7 4 6.9 1.6.8 4.2 1.5 5.9 1.5 4.1 0 4.4 1.1 2 6.7-3.2 7.3-3.5 13.9-1.1 21.9 1.1 3.8 2.2 9.4 2.6 12.4.3 3.1 1.3 7.7 2.2 10.4 1.2 3.4 1.5 6.7 1.1 11.7-.6 7.1-2 10-7.1 14.8-2.9 2.7-3.5 6.1-1.1 6.1 2.3 0 1.9.9-2.5 6.1-2.2 2.6-4 5.2-4 5.7 0 1.5 11.1 2.3 12.5.9.6-.7 3.1-4 5.4-7.5 2.4-3.4 4.8-6.2 5.5-6.2.8 0 1.6 3.3 2.4 9.2.6 5.1 1.8 11.8 2.7 14.8 4.4 15.8 4.6 17.3 4 21.3-1.5 8.5-6.6 16.4-19.9 30.2-6.1 6.4-9.4 10.6-9.1 11.6.6 1.7-15.1 17.5-28.5 28.6-6.3 5.2-10.4 7.7-16 9.8-4.1 1.5-10.2 4.1-13.5 5.7C50.2 243.8 32 255 32 256s-13 10.6-17.9 13.2c-2.2 1.2-3.8 2.5-3.5 3 .3.4 0 .8-.5.8-.6 0-1 .3-.9.7.1.5-.6 2.1-1.7 3.7-2.3 3.4-2.1 6.3.7 12.4 2.1 4.4 5 6.7 7.3 5.8 2-.7 4.9 1.9 5 4.4 0 1.7 1.1 2.6 4.5 3.9 2.5 1 10.6 4.3 18 7.3 15.7 6.4 24.3 9.3 32 10.8 7.1 1.3 49.9 5.2 50.9 4.6 1-.7 27.3 1.8 28.7 2.6.7.5.7 4.2-.3 12.5-1.9 16.5-1.7 16.1-6.1 17.3-6.2 1.6-7.6 7.2-4.8 19l1.2 5.5 19.6.3 19.6.2 4.1-5.1c2.3-2.9 6.9-9.4 10.4-14.5 8.7-13 9.7-11.9 5.5 5.8-1.2 4.9-1.8 9.7-1.4 11.2.6 2.6.7 2.6 11 2.6h10.4l.7-3.1c.4-1.6.3-5.8-.1-9.2-1.1-8.1-.7-26.1.7-31.2l1-4.1 8.5-.2c4.6-.1 9.3-.6 10.4-1.2 1-.5 3.5-1 5.4-1 3.1 0 4 .6 7.1 4.7 6 8.2 7.3 11.9 8.5 24.3.6 6.3 1.3 13.6 1.7 16.3l.6 4.7h145.3l1.3-6.6c2-9.9.6-37.9-3.2-66.9-2.6-19.9-3.1-26.6-2.9-39 .6-29.7 2.1-59.3 3.7-73.5 2.5-21.2 1.5-43.7-2.4-60.8-3-12.5-8.6-27.9-11.5-31.1-.8-.9-3.3-5.3-5.5-9.8-11.9-23.6-39.5-34.4-74-28.8-5.1.9-10.8 1.3-12.5 1-2.4-.5-3.9-.1-6 1.6-1.6 1.3-5.4 3.5-8.5 4.9-7.3 3.5-16.9 13.8-23.6 25.3-2.7 4.8-6.5 11-8.3 13.8-3.6 5.7-3.5 7.5.3 3.9 1.4-1.3 2.8-2 3.2-1.7.3.4 0 3.2-.7 6.2-1 4-1 6.1-.3 7.8.6 1.2 1.7 4.3 2.3 6.9 1.5 5.7 5.9 9.6 10.5 9.3 2.6-.1 3 .2 3.2 2.6.2 2.1-.7 3.6-3.5 6-5.5 4.8-5.6 5.4-2 9.4 2.3 2.7 3.2 4.7 3.2 7.5.1 2.2.7 4.5 1.4 5.2.6.6 1.2 2 1.2 2.9 0 1 .4 2 .9 2.4.5.3 1.7 2.9 2.7 5.8 2.1 6.7 3 7.7 6.5 7.7s4.3 1.2 3.4 5.7c-.5 3-.9 3.4-2.8 2.9-1.2-.3-3.3-.8-4.7-1.1l-2.5-.6 2.4 1.8c6.9 5.1 6.6 4.3 5.2 12.4-2.1 11.5-1.8 11.3-10.3 6.9-7-3.6-15.2-6.6-30.3-10.9-4.8-1.4-8.2-3.1-10.8-5.4l-3.7-3.5v-25.3c0-31.6 1.5-57.9 3.7-68.7 1.7-8.1 1.7-8.4-.2-12-1.4-2.5-3-4-5.2-4.7-4.1-1.2-4.2-2-.2-3.4 3.1-1.1 3.1-1.1 1.4-3.7-1.5-2.3-1.5-2.7-.1-4.3 1.5-1.6 1.5-1.9-.2-3.4-1.6-1.4-4.4-1.7-18.4-1.7-18.4 0-19.8-.5-18.1-5.7l1-2.8h11.9c9.7 0 12.4-.4 14.5-1.8 3.1-2.1 4.3-7.1 2.1-8.9-.7-.7-6.6-1.9-12.9-2.9-12-1.7-12.9-2.2-14.3-7.4-.3-1.1-2.2-3.1-4.2-4.4-3.7-2.4-3.8-3.1-1.3-9.4.5-1.3.2-1.7-1.4-1.7-2.7 0-4.1-2.8-4.1-8.2 0-4.8-2.4-16.8-4.1-21.1C183.8 0 183.6 0 174.8 0c-8.2 0-8.9.2-8.2 1.7.4 1 .8 3.4.8 5.3.1 3-.2 3.5-2.4 3.8-1.4.2-3.3-.3-4.2-1-1.6-1.2-1.6-1.5.2-5.6l1.9-4.2h-14.8c-14.2 0-14.9.1-16.3 2.2l-1.5 2.2-5.1-2.2c-6.5-2.8-7.3-2.8-10.4.5m106.1 89.9c.3.2-.6 1.5-1.9 2.9-2.5 2.6-2.5 5.4 0 19.7 1.3 7.7-.3 71.5-1.9 73.1-.5.5-5.3-4.1-11.1-10.3-7.2-7.9-11.1-13.1-13.3-17.8-3-6.3-3.2-7.4-3.2-17.8 0-13.2 1-15.9 6.7-17.4 2.6-.8 4.4-.8 5.7 0 3.1 1.6 6.1 1.2 6.1-.8 0-2.6-2.3-10.5-6.4-21.7-1.9-5.5-3.6-10.4-3.6-10.8 0-.8 22 .1 22.9.9M310 206.7c0 1.4-.6 2.3-1.5 2.3-1.5 0-2.2-5-.8-6.3.9-1 2.3 1.4 2.3 4"/></svg>