<svg xmlns="http://www.w3.org/2000/svg" width="682.667" height="512" version="1.0" viewBox="0 0 512 384"><path d="M119.4 2.4c.4 1.5 0 2.8-.9 3.6-3 2.5-.8 13.1 3.2 15.7 1.3.9 4.9 1.8 8 2.2l5.7.6-3.3 3.5c-4.4 4.9-6.4 12.1-5.1 18.9 1.2 6.4 4 12.9 7.4 17.4 1.6 2 3 5.8 3.7 9.3 1.6 8.9 3.6 15.1 5.9 18.3 1.1 1.6 2 3.3 2 3.8s-2 2.4-4.5 4.2c-4.2 3-7.2 6.7-6.2 7.7.2.3 1.7 0 3.2-.6 4.6-1.8 4-.4-2.3 4.7-5.7 4.5-7.8 7-6.8 8 .8.8 4.6-1.7 11.3-7.4 7.1-6.1 14.3-10.3 17.3-10.3 3.2 0 4.7 2.6 5.4 9.3.3 3.5 2.4 11.9 4.6 18.6 4.3 13.3 5.6 20.9 4.6 26.6-.8 4.1-6.4 10.8-11 13.2-1.7.9-7.5 6.1-12.8 11.7-9.1 9.4-9.6 10.1-7.3 10.6 2.4.5 2.1.9-5.2 9-15.7 17.4-26.3 26.9-33.8 30.3-17.9 8.2-38.6 19.1-44.7 23.6-10.1 7.5-26.8 27.9-26.8 32.8 0 .7 1 2.3 2.1 3.4 2 2 10.9 16.3 10.9 17.5 0 1.9 6.7 9.8 9.2 10.8 1.6.7 2.8 1.7 2.7 2.2-.4 1.8 6.8 4.4 16.6 5.8 10 1.5 23 4.4 50.5 11.1 16.5 4 17.2 4 20.4 2 1.8-1.2 2.9-1.3 5.7-.4 1.9.6 3.9 1.8 4.5 2.6.7.7 3.1 1.7 5.5 2.1s4.4 1.2 4.4 1.7c-.1.6-.5 4.5-.9 8.9l-.9 7.8-4.3 1.9c-2.4 1.1-5 2.6-5.9 3.5-1.9 2-1.9 6.3.1 11.4l1.6 4H183c25.6 0 29.9-.2 30.4-1.5.3-.8.3-8.6 0-17.3-.3-8.6-.1-17.1.4-18.7.8-3 .9-3 8.7-3.3 4.4-.2 8.4-.7 9-1.1.5-.5 4.5-1.2 8.7-1.6l7.6-.7 2.4 3.8c1.4 2.2 2.8 4.8 3.2 5.9.6 1.7 3.5 28 3.6 32.7 0 1.7 4.1 1.8 72.9 1.8h72.9l1.6-6.4c1.3-5.5 1.4-9 .5-26.7-.6-11.2-2.4-30.5-4-42.9-2.8-20.6-3-24-2.4-40.5.4-9.9.8-26.3.9-36.5.2-10.2 1.1-25.3 2.1-33.5 2.5-21.4 1.6-43.6-2.4-60.6-3.1-13.3-8.1-27.2-11.1-30.4-1-1.1-3.2-5-4.8-8.8-5.1-11.2-17.4-22.7-29.2-27-13-4.8-29.2-5.9-46-3.1-5.2.8-10.9 1.3-12.6.9-2.3-.4-3.8 0-5.9 1.7-1.5 1.2-5.3 3.4-8.4 4.8-7.5 3.6-16.4 13.3-23.7 25.7-3.1 5.4-6.8 11.5-8.1 13.6-2.7 4.3-2.5 5.4.7 3.7 1.2-.6 2.4-.9 2.7-.7.3.3-.1 3.1-.8 6.1-.9 4.2-.9 6.2-.1 7.9.6 1.2 1.7 4.1 2.3 6.5 1.4 4.8 5.1 8.1 10.3 9.1 4.8 1 4.7 4.4-.3 9-2.3 2.1-4.1 4.6-4.1 5.5 0 1 1.4 3.1 3.1 4.7 2.7 2.5 3.1 3.5 2.6 6.4-.4 2.3-.1 3.8.9 4.6.8.6 1.4 1.9 1.4 2.8s.9 2.7 2 4.1 2 3.3 2 4.3c0 2.2 1.8 5.9 3.4 6.9.6.4 2.3.8 3.9.8 2.4 0 2.7.4 2.7 3.2 0 5.1-1 5.9-5.4 4.7-5.4-1.5-5.5-.5-.1 2.6 3.1 1.9 4.4 3.2 4.1 4.4-.2.9-1 4.9-1.6 9-1.2 7.2-1.7 8.1-7.3 12.8-1.4 1.2-3.8 4-5.3 6.3-2.6 3.8-4.4 5.1-4.4 3 0-.6-.6-1-1.4-1-2 0-8.5-3.8-12-6.9-5.4-5-16.6-24.8-16.6-29.5 0-1.9.4-2.3 2-1.9 3.6.9 2.2-1.8-4.2-8.4l-6.1-6.4.6-28.2c.6-26.4 1.2-35 3.8-50.4.6-3.4.8-7.5.4-9.2-1.3-6-9.4-9-18.2-6.8-2.8.7-3.2.6-2.7-.7q.6-1.5-2.4-3.3c-5.2-3.2-8.2-7.7-8.2-12.2 0-5.1 1.2-5.2 10.1-1.2 9.5 4.3 31.9 10.4 33.8 9.2 1.5-1-6-8.9-8.9-9.5-15.8-3-29.7-7.7-31.5-10.7-.5-.7-.7-4.2-.6-7.9.2-6.3 0-7-2.8-10.3-3.7-4.1-3.8-5-1-8.8 2.2-3.1 2.3-2.8-2.5-4.3-1.2-.4-1.4-3-1.2-14.3.2-7.6.8-15 1.4-16.6L195 0h-14.4C164.9 0 165 0 165 6c0 2.6-.5 3-5.4 4.4-3 .9-5.8 1.6-6.4 1.6-2.2 0-7.3-3.3-9.2-6.1-1.2-1.6-3.1-2.9-4.3-2.9-1.2-.1-3.3-.7-4.7-1.5-1.5-.8-5.3-1.4-9.4-1.5-6.7 0-6.8 0-6.2 2.4M146 102.9c0 .5-.7 1.2-1.6 1.5-1.4.5-1.5.4-.4-.9 1.4-1.7 2-1.9 2-.6m153.4 101.7c1.1 2.9.6 4.4-1.4 4.4-1.4 0-2-.7-2-2.3 0-3.7 2.3-5.1 3.4-2.1"/></svg>