<svg xmlns="http://www.w3.org/2000/svg" width="682.667" height="512" version="1.0" viewBox="0 0 512 384"><path d="M131.8 2.7c0 1.6-.2 4.1-.3 5.6s.6 3.9 1.6 5.2c1.1 1.3 1.9 2.9 1.9 3.5 0 .7 2.1 3.1 4.6 5.4l4.5 4.2-2.8 5.4c-2.4 4.7-2.8 6.5-2.8 14 .1 7.9.3 9 3.9 15.8l3.9 7.3-2.2 9.2c-2.6 10.8-2.6 11-1.7 20.6l.7 7.4-3.5 2.8c-3.5 3-3.7 3.7-2.7 12.6.2 2.6 5.5 1.2 10.8-2.8 3-2.2 6.8-4.5 8.6-5.1s4.2-2 5.4-3.1c2.3-2 5.3-1.9 8.4.6.8.6 3.7 7.4 6.3 15 4.2 12.3 5.1 16.7 4.7 24.5-.1 3-10.5 13.9-19 20-4.8 3.4-6.8 5.6-8.3 9.1-3.6 8.5-18.4 31-27.2 41.3-8.5 9.9-10.8 11.7-26.2 20.1-27.5 14.9-40.9 26.9-51.1 45.8-4.9 8.9-5.7 12.3-4.3 17.7 2 7.9 3.1 9.3 10.1 12.7 3.6 1.7 13.2 7.6 21.2 13 10.7 7.2 15.1 9.6 16.7 9.2 1.4-.3 2.9.2 4.1 1.4 1.5 1.5 3.4 1.9 8.2 1.9 9.1.1 64.6 4.6 65.4 5.4.3.3.1 5.1-.7 10.6-1.2 9.5-1.4 10.1-4.4 12.2-4.6 3.1-5.6 4.8-5.6 9v3.8h47.9l1.1-5.8c.7-3.1 1.7-6.6 2.3-7.7.5-1.1 2-6.2 3.2-11.4 2.5-11.2 1.5-10.6 19.4-11.6 11.3-.7 12-.6 13 1.3.8 1.5 4.1 29 4.1 34.4 0 .5 32.8.8 73 .8h72.9l1-3.8c2.1-8.3 2.2-10.9 1.1-29.9-1-18.2-3.3-39.6-6.1-56.6-.7-4.6-.9-13.1-.4-25.5.4-10.3.9-26.8 1-36.7s1-25.7 1.9-35c3.3-31 .6-56.5-8.1-79-2-5-4.4-9.9-5.4-11s-3.2-5.1-5-8.8C371.5 86 359.7 75 348 70.7c-13-4.8-30.6-6-46.6-3.1-4.9.8-10.4 1.2-12.3.9-2.6-.5-3.8-.2-5.6 1.5-1.2 1.2-4.9 3.4-8.1 4.9-6.1 2.9-14.2 10.4-19.1 17.6-4.4 6.5-15.4 25.8-14.9 26.2.2.3 1.4-.1 2.6-.7 3-1.6 3.6-.6 2.2 3.3-1.4 4-1.5 8.1-.3 10.5.5.9 1.4 3.6 2 5.9 1.3 4.7 5.2 8.2 10.5 9.2 4.7 1 4.6 4.1-.3 8.9-2.3 2.2-4.1 4.7-4.1 5.7 0 .9 1.4 3 3.1 4.6 2.4 2.3 3 3.5 2.7 6.1-.2 2.2.8 5.5 2.9 9.8 1.7 3.6 3.7 8 4.3 9.8.9 2.2 2.1 3.4 3.9 3.8 4.8 1 5.1 1.3 5.1 4.1 0 4.7-1.2 5.6-5.6 4.4-5.2-1.4-5.4-.7-.5 2.3 4.7 3 4.8 3.5 2.7 14.6-1.1 5.6-2 7.8-3.8 9.1-1.3 1-3.4 2.7-4.7 3.8-4.7 4.1-4.6 4.2-18.1-27.5-1.4-3.3-2.5-6.1-2.6-6.4 0-.3-.4-1.4-.8-2.5-.5-1.1-1.4-3.6-2.1-5.6-.8-2-3.7-6.7-6.5-10.4-10-13.2-13.7-24-12.6-36.5.4-4.1.7-8.5.7-9.8-.1-1.3.7-2.6 1.7-2.9 3.5-1.3 7.2-8.4 7.2-13.7 0-1.7-1.6-7.2-3.6-12.1-5.5-13.6-5.4-13.5-8.6-13.5-2.1 0-3.3-.8-4.8-3.3-1.9-3.1-1.9-3.2-.1-3.5 1-.2 4.4.8 7.6 2.2 5.7 2.6 10.5 3.4 10.5 1.8 0-.5-3.6-2.5-7.9-4.4l-8-3.6.4-5.8c.2-3.3.6-9.3 1-13.4 1-10.6-1.3-16.7-7.3-19.5-3.7-1.7-4.2-2.3-3.7-4.5 1.3-5.6 1.1-6.4-2.7-8.2-2.9-1.4-3.6-2.2-3.3-4 .3-1.2.7-6.7 1-12.2.4-5.6.8-11.1 1.1-12.4.4-2.2.4-2.2-13-2.2h-13.4l.9 4.2c.6 2.2.6 4.4.2 4.8s-3.6 1.3-7.1 2l-6.3 1.3-6.2-6.1-6.3-6.2H132zm25 77.8c4 3.4 4.5 5.2 2 7.5-3.3 3.1-6.4 2.6-7.7-1.1-1.2-3.5-1.5-9.2-.4-10.2.6-.7 2 .2 6.1 3.8m136.5 124.7c.7 2.6.1 3.8-1.9 3.8-.9 0-1.4-1.1-1.4-3 0-3.5 2.5-4.1 3.3-.8"/></svg>