<svg xmlns="http://www.w3.org/2000/svg" width="682.667" height="512" version="1.0" viewBox="0 0 512 384"><path d="M190 4c-2.3 3.6-3.6 4.5-5.7 3.7-.4-.1-1.1 1.6-1.6 3.8-1.7 8.2-1.9 11.6-.7 13 .6.8.9 1.9.5 2.4-.3.6-4.7 3.1-9.9 5.6-8.9 4.4-17.6 11.2-18.9 14.7-1.1 3.1 1.4 8.9 5.8 13.5 2.4 2.5 4.6 5.1 4.9 5.9.3.7-2.4 3.8-6.4 7.4-7.2 6.4-14.9 15.6-18.9 22.5-3.4 5.8-7.1 16.4-6 17.1.5.3.8 1.8.7 3.2-.5 4.6 2.1 3.1 5.8-3.3 1.9-3.3 3.8-6.9 4.3-8 2.7-6.2 18.2-23.5 21-23.5 1.3 0 2.1 1.4 2.9 5.1 1.4 6.1.3 8.8-4.7 10.9-3.2 1.3-5 4.5-3.3 6.2 1.2 1.2.4 4.8-1 4.8-.6 0-2.5.7-4.4 1.6-3.8 1.8-4.6 5.3-1.8 7.6.8.7 2.5 2.2 3.6 3.2 2.9 2.6 7 2.2 13.3-1.3 3-1.7 6.1-3.1 6.8-3.1.9 0 2 4.2 3.5 13.7 2.5 15.4 2.7 21.4 1 26.4-1.3 3.9-9.1 15.6-14.3 21.3-4.8 5.5-11.2 15.5-12.1 19.1-1.4 5.5-10.8 20-40.4 62.4-4.3 6.2-10 15.7-12.6 21s-5.3 10.3-6.1 11.3c-.8.9-1.7 3.1-2 5-.3 1.8-.8 4-1.2 4.8-2.1 4.2.3 10.7 6.7 18 .7.8 3.8 4.9 6.9 9 3 4.1 6.4 8.4 7.4 9.6 1.1 1.1 1.7 2.3 1.4 2.6-.7.7 5.7 3.8 7.8 3.8.8 0 4.1 1.4 7.3 3.1l5.8 3 21.6-.6c11.8-.4 23.5-.3 26 .2l4.5.9.9 10.9c.5 6.1.9 13.4 1 16.2l.1 5.3h14.3c7.8 0 14.2-.3 14.2-.6s-.9-1.9-2.1-3.5c-3-4.2-4.7-11.5-5.5-23.3s-1.1-11.3 9.1-14.4c8.5-2.6 8.4-2.6 10.2-.5 3.2 4 5.1 10.2 5.7 18.8.4 5 1.2 12.3 1.8 16.2l1.1 7.3h145.5l1.6-6.7c1.5-6 1.6-8.8.6-25.8-.6-10.4-2.5-29.1-4.1-41.5l-3-22.5 1-40.5c.6-24 1.6-46.3 2.6-54.9 2.9-25.9-.6-55-9.2-76.1-1.9-4.7-4.3-9.4-5.3-10.5s-3.5-5.3-5.5-9.4c-6.9-13.9-18.9-23.4-35-27.7-9.2-2.5-26.2-2.9-38.5-1-5.8.9-11.9 1.4-13.6 1-2.3-.4-3.7 0-6 1.9-1.6 1.3-4.9 3.3-7.4 4.4-6.3 2.8-13 9.1-19.5 18.4-3.1 4.3-6 7.9-6.4 7.9-1.8 0-1.8-1.6.4-9.3 1.2-4.5 2.7-13.4 3.4-19.7.6-6.3 1.7-13.6 2.2-16.3.9-4 .8-6.1-1.1-13.5-1.4-5.7-3-9.6-4.7-11.3l-2.5-2.7 3.4-1c1.8-.6 4.6-1.3 6.2-1.7 2.8-.6 2.9-.7 2.3-5.8-.3-2.9-1-6.5-1.6-8.1-1-2.6-1.5-2.8-4.6-2.3-2.9.5-3.5.3-3.5-1.2 0-1.1-2-3.1-5.1-5l-5-3.1h-33.5zm47 138.2c0 1.3 7.1 5 8.6 4.4 2-.8 3.4 3.2 2.1 6.2-.6 1.2-2.5 3.2-4.4 4.3-4.1 2.6-4.2 4.7-.3 8.4 2.3 2.2 3 3.8 3 6.5 0 2.2 1.2 6 3.1 9.4 1.6 3.2 2.9 6.7 2.7 7.9-.2 1.7-.7 1.4-2.3-1.9-1.1-2.1-3.6-5.7-5.6-7.9-4.8-5.3-10.7-13.8-13-18.9-2.1-4.6-2.4-10.8-.8-17.6 1.7-7.6 1.7-7.7 4.4-4.5 1.3 1.7 2.4 3.3 2.5 3.7m24.8 54.4c1.6.5 1.5 4.6-.2 6.9-1.3 1.8-1.5 1.8-4 .2-1.4-1-2.6-1.9-2.6-2s-.4-1.6-.9-3.4l-.9-3.1 3.6.5c2.1.2 4.3.6 5 .9m18 9.7c.2 1.9-.1 2.7-1.2 2.7-2 0-2.6-1.2-1.9-3.9.7-2.9 2.7-2.1 3.1 1.2"/></svg>