<svg xmlns="http://www.w3.org/2000/svg" width="682.667" height="512" version="1.0" viewBox="0 0 512 384"><path d="M209.4 2.7c.2 1.6 1 7.1 1.7 12.3 1 8.3 1 10.2-.5 15.3l-1.7 5.8-6.2-.6c-3.4-.4-12-1.3-19.1-2.2-14.2-1.7-16.9-1.2-18.1 3.4-.3 1.4-.8 2.3-1.1 2s-1.5.4-2.6 1.5c-1.4 1.4-1.6 2.3-.9 3.2.6.6.8 2.2.4 3.4-.3 1.2.1 2.9.8 3.8 1.1 1.4 3.3 1.5 17.6.9l16.2-.7-1.9 4c-1.1 2.3-2 5.4-2 7s-.3 5-.6 7.4c-.7 4.8-.6 4.8-10.2 7.3-4 1.1-14.1 8.7-13.5 10.1.5 1.2 2.4 1.9 4.6 1.5 1.3-.2.8 3.4-.9 5.7-1.4 2.1-1.4 2.2.9 2.2s13.7-3.1 18.5-5.1c3.2-1.3 3.9-1.1 4.6.7.8 2-2.4 7.4-4.4 7.4-.8 0-3-.4-4.7-.9-2-.6-4.6-.6-6.7 0-3.2.9-3.4 1.2-4.1 6.4-.3 3-.4 6.3-.1 7.3.4 1.2-.2 3-1.6 4.7-2.3 3-3.2 7.1-1.8 8 .5.3.7 1.2.3 2-.6 1.8 2.8 2 5.8.5 2.6-1.4 7.1 1.7 6.3 4.3-.3 1.1.1 2.4 1 3 1.1.8 1.9 4.3 2.7 11.1 1.8 16.5.2 22.2-10.5 37.5-2.9 4.2-6.3 9.8-7.6 12.6-3.5 7.2-13.1 24.3-17.3 30.6-2 3-5 8.4-6.7 11.9-1.8 3.6-4.7 9-6.6 12-2.1 3.3-3.4 6.7-3.4 8.7 0 1.9-1.2 5.2-3 8-2.9 4.6-3.9 9.6-2.1 10.7 1.5 1-1.6 6.1-6.2 10.2-5.4 4.9-7.7 8.2-7.7 11.6 0 3.9 3.6 6.3 23.2 15.4 3.1 1.4 5.8 3 6 3.6.4 1.2 15.4 4.3 25.8 5.3 11.4 1.1 11.2 1 13.8 11.1 1.3 4.9 2.9 11.1 3.7 13.9 6.5 22.7 9 30.4 10.7 32.7l1.9 2.8h159.7l.6-2.3c2.7-9.6 1.1-44-3.5-75.6-2.8-19.3-3-21.8-2.4-39.6.4-10.5.8-27.3.9-37.5.2-10.2 1.1-25.5 2-34 2.4-21.2 1.5-43.6-2.3-58-.5-1.9-1.5-5.5-2.1-8-1.7-7-7.1-20.2-9.6-23.5-1.2-1.7-3.6-5.9-5.4-9.4-3.6-7.3-12-16.6-18.9-21-2.5-1.6-8.2-4.2-12.6-5.8-7.6-2.7-8.9-2.8-25.8-2.8-15.4 0-17.7-.2-17.4-1.5 3.1-10.5 3.1-10.6 1-16.7-1.8-5.3-1.8-6.3-.6-8.7.7-1.4 1-2.6.6-2.6-.4-.1.7-.9 2.6-1.8 6.8-3.3 9.1-12.1 4.7-17.5-2.4-2.9-3.9-3.3-17.9-4.4-4.5-.4-7.1 0-11.3 1.7-3.9 1.6-6.4 2-9 1.5l-3.6-.6.7-8 .7-7.9h-24.4zm2.9 333.5c.3 1.8 1.5 7.3 2.6 12.3 2.3 9.8 2.7 15.5 1.1 15.5-.5 0-1.1-.3-1.1-.8-.1-.4-.3-1.6-.5-2.7s-1.2-7.2-2.3-13.5c-1.2-6.3-2.1-12.3-2.1-13.3 0-2.9 1.7-1 2.3 2.5"/></svg>