<svg xmlns="http://www.w3.org/2000/svg" width="682.667" height="512" version="1.0" viewBox="0 0 512 384"><path d="m218.6 4.6.7 4.6-6.8 6.4-6.7 6.3.7 8.6c.6 7.5.5 8.5-.9 8.5-1.2 0-1.6 1-1.6 4.5 0 4.3-.2 4.6-4 6.1-5.2 2.1-7.8 6.5-8.9 15.1-.9 7 .4 18.2 3 26 1.4 4.3-.3 7.1-5.1 8.7-3.3 1-3.5 1.4-4 6.1-.4 3.8-1.5 6.4-4.2 10.1-2 2.7-4 6.2-4.3 7.6-.6 2.5-.4 2.7 2.9 3.4 2 .3 4.2 1.4 4.9 2.4.8 1.1 2.8 2 5.1 2.2 3.4.3 3.9.7 5.1 4 2.2 6.4 2.8 22.6 1 28.5-2 6.6-8.6 15.6-19.6 26.7-6.4 6.3-8.6 9.2-7.9 10.1 1 1.2-.5 3.5-2.3 3.5-.5 0-2.4 1.3-4.2 2.9-1.9 1.6-5.9 3.8-9 5-8 3-10.4 4.4-16 9-2.8 2.3-7 5.1-9.5 6.3-5.9 2.9-12.2 9.4-15.6 16-4.5 8.8-7.4 18.7-7.4 25v5.8l8.2 9.2c9.6 10.8 9.6 10.8 12.7 10.8 1.9 0 2.1.3 1.2 1.4-1.4 1.7.2 2.8 11.4 7.8 9.5 4.3 20.7 6.1 46.4 7.8 9.6.7 17.9 1.4 18.5 1.6.7.3 1 3.6.8 9.7-.3 7.5.4 13.1 3.7 30.2 2.2 11.6 4.6 23.4 5.2 26.3l1.2 5.2h140.5l1.3-7.1c1-5.7 1-11.3 0-28.3-.6-11.6-1.6-23.8-2.1-27.1s-1.6-11.2-2.5-17.5-1.8-12.7-2-14.3c-.7-4.4 1.6-12.5 4-14.1 1.9-1.2 2.1-2.4 2.3-11.4l.3-10.1-3.1-2.8-3.2-2.8.5-19.5c.2-10.7 1.2-26.3 2.1-34.5 2.6-23.7 1.3-43.3-4.6-66.2-1.5-6.1-7.3-20.1-9.1-22.1-.8-.9-3.4-5.4-5.7-9.9-9.1-18.1-26-28.5-48.5-29.9-12-.8-12.2-.9-15-6.4-3.6-7.1-3.4-8 2-8 2.4 0 6.7.5 9.5 1.1 3.9.8 5.8.8 8.1-.1 2.9-1.2 9.9-8.5 9.9-10.2 0-1.2-9.6-5.6-13.7-6.4-1.7-.3-4.8-.1-6.7.6-4 1.3-10.5-.1-10.7-2.3-.8-12.4-1.9-14.3-8.4-15.3-1.1-.2-5.4-.9-9.4-1.6l-7.5-1.3-1.8-6c-1-3.3-1.8-7-1.8-8.3 0-2.1-.3-2.2-10.1-2.2h-10z"/></svg>