<svg xmlns="http://www.w3.org/2000/svg" width="682.667" height="512" version="1.0" viewBox="0 0 512 384"><path d="M229.7 3.5c-.9 2-1.7 4.2-1.7 5.1 0 3.2-3 2.5-6.8-1.5-3.6-3.8-4.2-4.1-9.3-4-12.5.2-21.2 11.5-17.7 23.2 1.5 5.1 2.8 5.8 9.3 5.8 4.9 0 5.6.3 5 1.7-5.9 13.8-6.2 17.5-2.3 26.1 1.6 3.5 1.8 5.5 1.3 10.2-.7 5.6 0 9.3 2.8 16.1.7 1.6 1.5 2.8 1.9 2.8.5 0 .7 2.4.7 5.2-.1 2.9.2 7 .6 9 .7 3.6.9 3.7 5.4 4l4.6.3.7 8.3c.9 10.6 2.3 17.4 6 29.1 5.6 17.3 2.9 24.4-16.2 43.3-7.1 7.1-12.2 12.8-11.4 12.8 2.3 0 1.6 1-6.7 8.6-14.4 13.3-24.3 20.3-35.2 24.8-11.2 4.7-27.5 12.7-31.6 15.4-1.4 1-4.4 2.4-6.6 3.1-2.2.8-5.7 2.2-7.8 3.2-2.1.9-5.2 2.1-7 2.5-1.8.3-4.2 1.5-5.5 2.5s-3.9 2.3-5.8 2.9c-1.9.7-3.3 1.7-3.1 2.3.2.7-.5 2.5-1.6 4.1-2.8 3.9-3.5 11.7-1.2 13.9.9.9 2.7 1.7 4 1.7 2.5 0 4.2 2.7 2.6 4.3-.6.6 1.3 2.4 5.2 5 3.4 2.2 7.6 4.9 9.2 6 5.1 3.6 25.7 14.7 28.4 15.4 1.4.3 3.5 1.2 4.6 1.9 3.7 2.3 13.9 3.2 43.5 3.8 21.1.4 46 2.3 49.7 3.7l2.6 1-.7 13.2c-1.1 20.2-1.3 20.9-6.2 22.5-6.2 2-7.8 6.9-5.3 16.8l1.1 4.4h98.6l1.7-6.9c1.5-6 1.5-8.8.6-23.2-1.3-18.7-1.8-17.4 7.8-21 9.4-3.5 23-10.9 23.6-12.9.3-1.1.1-2.8-.4-3.9-1.9-3.5-1.2-5.5 2.8-7.8 3.8-2.2 3.9-2.2 5.6-.3 3.8 4.2 6.7 2.6 15.8-8.7 8.1-10.2 11.3-16.1 9.9-18.4-1.6-2.5-1.6-2.5 1.7-3.9 3.3-1.3 3.7-2.6 4-13 .2-6.2-.2-8-2.6-12.8-3.3-6.7-4.4-8.2-10.3-14-11.2-11.1-20.8-15.9-43.3-21.6-9.2-2.3-17.5-5-18.4-5.9-1.5-1.4-1.5-2.8.1-16.4 1.3-12.1 1.4-17.6.6-29.9-.9-14.8-1.3-17.3-4.7-31.9-1.9-8.4-7.8-23.2-10.3-26-1-1.1-3.2-4.9-4.9-8.5-1.8-3.5-3.7-7-4.3-7.7-.8-1.1.9-1.2 9.3-.9 14.3.5 20.5-2 17.3-6.9-1.2-1.8-1.2-2.8-.3-4.9.7-1.4 2-2.6 2.9-2.6 1 0 3.1-.7 4.6-1.5 1.6-.8 4.1-1.5 5.6-1.5s3.9-.5 5.4-1c2.1-.8 2.4-1.4 1.6-2.2-1.5-1.5-1.6-4.8-.2-4.8 1.5 0 1.2-4-.2-4.5-.7-.2-11.6-.6-24.3-.9-30.5-.7-35.6-1.5-41-6.5-2.3-2.1-4.8-4-5.6-4.3-1.4-.5-1.3-1.2 1.6-8.1.6-1.3.2-1.7-1.8-1.7-3.1 0-3.3-.7-4.7-13-1.2-11-1.6-12.9-3.8-19.3L267.6 0h-36.2zm23.1 5.2c1.6 3.5 1.5 7.2-.2 7.9-.7.3-2.7-.1-4.3-.8l-3.1-1.3 1.9-4.3c2.1-4.8 3.9-5.3 5.7-1.5m40.4 58.7c3.5.8 10.5 1.9 15.6 2.6 12.6 1.8 9.9 3-6.5 3-15.1 0-18.3-.8-18.3-4.5 0-2.9.6-3 9.2-1.1"/></svg>