<svg xmlns="http://www.w3.org/2000/svg" width="682.667" height="512" version="1.0" viewBox="0 0 512 384"><path d="M238.1 4c-.7 2.5-.8 4.6-.3 5.7.5 1 1.3 4.8 1.6 8.4.6 5.4.4 6.8-.9 7.9-2.1 1.7-5.1 7.6-6 11.8-.3 1.8-.8 7.9-.9 13.7l-.3 10.5-4 4.8c-12.2 14.5-23.3 35.8-23.3 44.9 0 2.6.1 2.6 4.4-1.7 3-2.9 5.4-4.4 7.7-4.7 1.8-.2 3.4-.5 3.6-.7s.4-4.5.6-9.7c.2-10 1.2-12.9 7.1-22.2 3.1-4.8 5.6-6.1 5.6-2.9 0 4 3.3 12.6 5.7 14.8 1.6 1.5 2.2 2.8 1.7 3.6-.5.7-1.1 4-1.5 7.3s-1 6.8-1.4 7.7c-.5 1.3.6 2.4 4.8 4.7l5.4 3.1 1.2 7c1.3 7.2 1 9-1.5 9-.8 0-2.1 1.4-2.8 3.2-1.5 3.4-1.1 5.7 2.3 12.5 1.2 2.3 2.1 5.1 2.1 6.2 0 1-1.8 5.4-4.1 9.6-3.8 7.3-3.9 7.8-2.5 10 .9 1.4 1.6 3.1 1.6 3.9s-3.1 4-7 7.3c-3.8 3.2-7 6.5-7 7.3 0 .9-2.1 4.6-4.7 8.2-2.7 3.7-7.5 10.7-10.8 15.5s-9.4 12.1-13.5 16.3c-6.6 6.7-8.9 8.4-19.2 13.3-15.8 7.5-24.2 13.3-32.9 22.5-7.1 7.6-9.4 11.2-19.2 30.6-3.8 7.6-3.9 8.1-3.2 14.5.4 3.6 1 10.2 1.3 14.6.5 5.6 1.3 8.9 2.7 11 1.2 1.7 2.9 4.6 4 6.6 2.4 4.7 5.6 6.6 15 8.5 6.7 1.4 20.1 5.8 53 17.5 9.9 3.5 10.8 3.5 12.5.4.8-1.5 2.2-2.5 3.5-2.5 1.8 0 2.2.5 1.9 2.6-.5 4.6 3.8 5.1 25.9 2.7l5.7-.6v4.1c0 3.4-.6 4.7-3.7 7.6l-3.8 3.6h48.4l1.2-4.3c.7-2.3 1.5-6.9 1.8-10.2l.6-6 7.5-.7c4.1-.4 11.1-1.1 15.5-1.5l8-.8-.2-4.3c-.2-3.6.1-4.2 1.9-4.2 1.1 0 3.8 1.4 5.9 3.1l3.9 3.1 5.7-3.2c5.5-3.1 7.5-4.2 25.3-13.8 4.7-2.5 9.2-5.2 10.1-6.1 3.5-3.6 21.3-19.7 23-20.9 1-.7 1.6-1.9 1.2-2.7-.3-.9-.1-2.1.5-2.8 1-1.3 2.5-10.9 2.6-16.7 0-2.8-.8-4.4-4.1-7.8-2.2-2.3-4.3-4.2-4.6-4.2-.4 0-3.2-1.8-6.3-4-3.2-2.2-6.2-4-6.8-4s-7.9-3.4-16.3-7.6c-16-8.1-17.9-9.7-27-23.1-3.7-5.5-17.1-29.1-23.8-41.9-1.7-3.3-5.3-8.7-7.9-11.9-8.8-10.9-12.6-19.6-12.6-29.7 0-6.9 1.9-14.8 3.6-14.8.8 0 1.4-.5 1.4-1 0-.6.8-.5 2 .2 1 .7 2.2.9 2.5.6 1.8-1.8 1.6-14.8-.5-24.8-2.7-13.7-2.7-13.7-5-14.3-2.2-.6-2.8-5.1-.9-6.3.6-.3 2.4-3.4 4-6.8 4-8.5 4-15.2-.1-19.9l-2.9-3.4 2.4-4.6c3-5.6 3-5.5.1-6.7-2.8-1-3.5-5.3-3.9-24.6l-.2-12.1 3.2-2.7c2.8-2.3 9.3-13.4 9.3-15.8 0-.4-3.6-.8-8.1-.8-7.2 0-8.1.2-8.6 2-.3 1.1-.9 2-1.3 2-.5 0-1.2-.9-1.5-2-.6-1.7-1.5-2-7.6-2-6.7 0-7 .1-8 2.7l-1 2.8-2.1-2.8-2-2.7h-33.5z"/></svg>