<svg xmlns="http://www.w3.org/2000/svg" width="682.667" height="512" version="1.0" viewBox="0 0 512 384"><path d="M309.8 185.7c-1 .3-3.4 3.3-5.4 6.9-2 3.5-3.6 6.4-3.7 6.4s-5.8-1.9-12.7-4.1c-9.3-3-14.7-4.2-21.2-4.6-8.2-.5-9.1-.4-15.5 2.6-14.4 6.7-23.7 19.8-30.6 43.1-3.5 11.7-4.7 18.9-4.7 29 0 15.5 5.5 31.1 12.9 36.9 5.2 4.1 13.6 8.1 17 8.1 4.6 0 8.3 1.8 11.4 5.6 8 9.7 26.4 13.4 39.7 8.1 10.1-4.1 17-8.8 26-17.7 19-18.9 28.9-39.4 27.7-57.5-.6-9.6-2.5-15.2-6.9-20.6-4.4-5.3-26.1-22.6-31.8-25.2-2.5-1.2-4.7-2.2-4.8-2.3-.7-.4 3.2-7.9 5.2-10.2 1.7-1.9 1.8-2.4.5-3.6-.8-.7-2.2-1.1-3.1-.9"/></svg>