<svg xmlns="http://www.w3.org/2000/svg" width="682.667" height="512" version="1.0" viewBox="0 0 512 384"><path d="M281.5 8.2c-1.4 1.1-2.5 2.8-2.5 3.9 0 1.6-.7 1.9-5.2 1.9-4.8 0-5.4.3-9.5 4.6-2.9 2.9-4.2 5.1-3.8 6.1.3 1-.3 2.2-1.6 3.1-2 1.4-2.1 2.1-1.6 8 .7 6.6 1.9 9.2 4.3 9.2 1.1 0 1.1.5.2 2.6-.9 2-.9 3 .1 4.6s.8 3.1-1 8.6c-2.1 6.5-3.8 9.7-4.6 8.9-.2-.3.2-1.6.8-3.1.7-1.4 1-2.9.7-3.2-1.2-1.1-10.7 4.7-14.1 8.6-5.2 6.1-9.6 19-7.5 21.7.6.7.8 1.3.4 1.3-1.6 0 2.8 6.2 7 9.8l4.7 4-3.2 2.8c-1.7 1.6-4 5.1-5 7.9-1.4 4.1-2.1 5-4 4.8-1.8-.2-2.7.7-4.6 4.9-1.3 2.8-2.2 5.5-1.9 6 .3.4-.2 1.5-1 2.4-2.8 2.8-1.9 7.1 2.6 12.5 4.5 5.3 7.2 6.1 13.7 3.8 1.8-.6 3.4-.9 3.7-.7.2.3-.8 2.6-2.2 5.3l-2.7 4.8 2.3 4.3 2.4 4.3-2.2 6.8c-1.2 3.7-2.2 7.8-2.2 9.1s-.5 3.2-1 4.2c-.6 1.1-1.9 8.2-2.9 15.8-2 15.4-1.2 13.6-14.6 32.2-5.2 7.2-9.3 16-11.5 24.5-.7 3.1-3.8 7-13.1 17-15.4 16.4-18.2 21.7-18.7 35.1-.4 9.7.6 13.3 4.9 17.3 2.5 2.3 13.2 5.4 15.9 4.6 1.1-.4 2-.2 2 .4 0 1.1 13 5.5 19.7 6.6 3.4.5 5 .3 7.7-1.4 3.3-2 9.6-2.9 9.6-1.3 0 .4-.6 1.4-1.2 2.1-1.1 1 1.5 1.2 13.9.9l15.2-.3 1 4.5c.6 2.5 2.5 11.1 4.2 19.2l3.2 14.8h15.3c17.5 0 15.5 1.2 17.2-10.5 2-12.8 6.6-34 7.6-34.7.6-.4 4.4-1.4 8.6-2.3 7.2-1.6 36.1-11 54-17.5 4.7-1.7 13.2-4.5 19-6.2 8.6-2.5 10.8-2.8 12.4-1.8s2.2.9 3.1-.4c.7-.9 1.7-1.6 2.4-1.6.6 0 1.1-.7 1.1-1.6q0-1.65 1.8-1.2c2.1.6 5.9-1.1 6.4-2.7.2-.6 1.1-.9 2.1-.8 1 .2 2.5-.3 3.3-1 3.6-3 10.4-10.2 10.4-11 0-.5-.9-2-2-3.4-2.8-3.6-2.5-4.6 1-3.8 2.7.6 3 .4 3-1.9 0-1.4-.7-4.5-1.5-7-.8-2.4-1.3-5.1-.9-5.9.7-1.9-9.2-9.8-17.4-13.7-3.5-1.7-8.9-4.7-12-6.8s-13.6-8.5-23.2-14.2c-25.8-15.2-31.2-19.1-44.9-32.4-25.7-24.7-27.7-27.6-26.8-37.4.6-7 4.6-31.2 5.3-32.3.2-.4 2.8.3 5.7 1.6 2.8 1.4 6.9 2.5 8.9 2.5s4.9.5 6.4 1.2c2.3 1.1 2.8 1 4.4-1 1.2-1.4 2.9-2.2 4.9-2.2 2.4 0 3.4-.7 4.6-3 .8-1.6 1.5-4 1.5-5.4s.5-3.6 1.1-5c1-2 .9-3-.5-5.1-.9-1.4-2.3-2.5-3.1-2.5-.9 0-2-1.1-2.5-2.4s-2-3-3.4-3.8c-1.4-.7-4.3-2.6-6.5-4.2-2.5-1.7-5.9-3-9.1-3.5l-5-.6 1.9-3.6c3-5.5 3.4-10 2-19.5-1.2-8.5-1.2-8.6 1-10.3 2.1-1.6 2.2-1.9.6-3.4-.9-.9-2.3-1.7-3.2-1.7-2 0-3.6-2-7.3-9.1-1.6-3-4.5-7.7-6.4-10.2-2-2.6-3.6-5.7-3.6-7 0-1.2-.9-3.7-2-5.5-1.8-3-2.3-3.2-7.4-3.2h-5.5l1-3.2c1.5-5.2 1.1-8.3-1.3-10.5-5.1-4.5-15.4-6.2-19.3-3.1m-26.2 77.9c1 2.3 1.6 4.4 1.3 4.6-.7.7-6.5-2.9-7-4.4-.3-.7.1-1.3.9-1.3s1.4-.3 1.4-.8c-.6-3.8 1.4-2.6 3.4 1.9m25.5 2.1c-.2.6-1 1.4-1.6 1.6-.7.2-1-.2-.6-1.2.7-1.8 2.8-2.2 2.2-.4m-10.1 79.1c.4 2.9 0 5.4-1 7.3-1.6 2.8-1.6 2.7-1.7-5.6 0-6.2.3-8.1 1.1-7.3.6.6 1.4 3.1 1.6 5.6"/></svg>