<svg xmlns="http://www.w3.org/2000/svg" width="682.667" height="512" version="1.0" viewBox="0 0 512 384"><path d="M324.4 4.3c-4.6 1.8-9 5.4-11.4 9.2-1.2 1.9-2.6 3.5-3.1 3.5-.6 0-3.4-1.8-6.3-4s-5.8-4-6.3-4c-1.8 0-8.2 7.8-8.8 10.7-3.5 16.4-3.5 16.3-11 22-3.8 3-7.8 6-8.8 6.8-3.1 2.6-18 10.3-25.1 13-9.8 3.7-25.1 7.5-30.2 7.5-2.3 0-4.6.5-4.9 1.1-.9 1.3 4 8.3 7.3 10.5 2.4 1.6 3.1 1.5 13.6-1.1 12.4-3.1 27.7-8.2 34.6-11.4 6.8-3.1 7-2.9 4.9 4-3.7 11.8-1.9 22.7 4.2 26l2.3 1.2-2.8 1.4c-2.5 1.3-2.7 1.8-2.1 5.6.5 2.9.2 5.1-.9 7.2-.9 1.6-1.6 3.7-1.6 4.5-.1.8-.7 2.6-1.4 3.9-1.1 2.1-2.1 2.4-8.6 2.6-8.3.4-9.4 1.1-10.4 7.4-.3 2.1-1.3 4.4-2.1 5.1-2.1 1.7-1.9 5.4.5 7.5 1.1 1 2 3 2 4.5 0 1.4.5 3.1 1.1 3.7.8.8.4 2.3-1.5 5.5-2.9 5.1-3.3 8-1.1 9.8 1.7 1.4 2 7.2.5 10.1-1.3 2.4-5.4 23.8-7.1 36.9-1.5 12.2-2 13.4-6.7 16.3-9.4 6-13.7 7.6-24.9 9.1-6.2.8-12.6 2.2-14.2 3.1-1.7.8-4.3 1.5-5.8 1.5-3.5 0-12.1 4.9-16.1 9.2-4.5 4.7-10.4 14.9-9.7 16.7.3.8.1 1.7-.5 2.1-.7.5-.8 4.1-.2 12.1l1 11.5 4.3 4.9c2.4 2.6 5.7 6 7.3 7.4s8.5 8.1 15.4 14.8c6.9 6.8 13 12.4 13.6 12.5.6 0 1.7.2 2.5.2.8.1 2.2 1.3 3 2.8.9 1.5 3.6 4.2 6.1 5.9 4.1 2.9 11.6 9.2 27.8 23.2 3 2.6 6.1 4.7 6.8 4.7 1.5 0 11.4 5.2 15.6 8.1 2.9 2.1 11.9 2.6 17.6 1 2.5-.8 3.2-.7 3.2.5s3.1 1.4 18 1.4h18v-2.4c0-1.4.4-2.7.8-3 .5-.3 5.5-1.2 11.2-2.2 13.7-2.1 14.4-2.4 15.8-7.2 1.6-5.2 3-6.2 9.8-7.1l5.6-.8 1.4 3.3 1.4 3.4 7.3-2.6c9.8-3.5 26.5-11.5 36-17.2 8.1-4.8 8.2-5.1 6.1-10.5-.7-1.8 5.3-3.2 7.2-1.6.7.6 2.1.8 3.1.5 1.9-.6 14.4-12.5 17.6-16.7 3.4-4.5 6.6-12.5 8.2-20.8 1.5-7.3 1.6-9.6.5-17.5-.7-5-1.3-11-1.5-13.4-.3-4.5.6-3.7-13.5-13.9-10.8-7.9-25.4-13.9-48-19.9-8.9-2.3-11.4-3.5-16.5-7.5-7.1-5.5-14.3-13.2-24-25.4-11-13.8-10.5-12.5-5.2-12.5 6.2 0 14.8-1.9 16.8-3.7.9-.8 1.7-2.4 1.6-3.6 0-1.2.4-6.4.8-11.5.7-8 1-9.2 2.4-8.7.9.4 5.1.9 9.3 1.2 14.3 1.1 21.4-4 18.8-13.2-.7-2.4-2.2-5.1-3.4-6.2-3.4-2.9-10.1-7.3-11.2-7.3-2.4-.1-5.9-4.4-5.9-7.3 0-2.8-.4-3.2-3.5-3.7-5-.8-5.8-1.6-7-6-1.4-5-6.5-9.4-13.6-11.7-7.7-2.4-9.1-4.6-6.4-10.4 2.5-5.6 2.5-11.9.1-24.5-1-5.4-2.4-13.7-3.1-18.4-.7-4.8-2-9.9-3.1-11.7l-2-3.2 3.2-.3c3.5-.3 3.5-.4 5.8-10.4 1.1-4.4 1-5.6-.8-9.7-2.2-5-12.5-15.7-15.1-15.6-.8 0-2.9.6-4.6 1.2m-26 81.6c1.7 1.8 1.7 2-.1 3-2.2 1.1-3.5.5-5.2-2.7-1.1-2-.9-2.2 1.2-2.2 1.3 0 3.2.9 4.1 1.9M272 156.8c1.6 3.3 3.5 5.5 5.3 6.3 1.5.6 2.7 1.6 2.7 2.2s1.4 3.2 3.1 5.9l3.1 4.9-1.7 4.5c-2.2 5.9-10.9 16.4-13.5 16.4-1.3 0-2.1-.9-2.5-2.8-.3-1.5-1.1-4.3-1.6-6.2-.8-2.6-.7-4.4.4-7 1.5-3.7 1.7-23.4.2-27.9-1.4-4.4 1.9-1.7 4.5 3.7m65.8 7.4c-.6 1.8-2.8 2.1-2.8.4 0-.9.7-1.6 1.6-1.6s1.4.5 1.2 1.2"/></svg>