<svg xmlns="http://www.w3.org/2000/svg" width="682.667" height="512" version="1.0" viewBox="0 0 512 384"><path d="M301.3 2c-.3 1.2-2.3 2.9-4.8 4.1-2.7 1.3-4.9 3.3-6.3 5.8-2.6 4.6-2.7 6.7-.7 8.7 1.7 1.7 2 4.4.5 4.4-.5 0-1.7 1.1-2.6 2.5-1.5 2.3-1.5 2.9.2 8l1.7 5.6-6.7 9.8c-5.1 7.6-7.9 10.8-12.4 13.7-3.1 2.2-5.8 4.2-6 4.6-.2.5-.7.8-1.2.8s-3.7 1.3-7.2 2.9-7.6 3.2-9.3 3.6c-1.6.4-3.9 1.1-5 1.6-6.9 3.1-39.9 3.4-55.9.5-6.5-1.2-9.2-1.4-10.2-.5-.7.6-2.2.8-3.3.4-2.5-.8-9.5 1.1-11.1 2.9-.9 1.2-.7 2.1 1.1 4.5l2.3 3.1-2.2 2.3c-2.6 2.8-2.7 3.4-.5 5.5 2 2 13.4 2.8 43.8 3.1 21.8.2 32.5-1.2 47.3-6.3 7.6-2.6 19.7-8.8 26.9-13.7 2.3-1.6 4.4-2.9 4.7-2.9.2 0 .9 2.4 1.5 5.2 1.5 6.9 5.3 15.1 8.7 18.5 2.5 2.5 2.6 2.8.9 3.8-3.6 2-5.4 4.4-6.6 8.7-.7 2.4-3.5 8.1-6.3 12.7-4.8 8-5.1 8.9-5 15.2 0 6.6 0 6.7-2.9 7.6-3.9 1.1-4.3 2.3-1.7 5.3 1.1 1.3 2 3.2 2 4.4-.1 2.9-3.7 13.1-4.7 13.1-.4 0-1-3.8-1.3-8.5s-.9-9.1-1.4-9.8c-.5-.8.5-2.9 2.8-5.9 2-2.6 3.6-5.1 3.6-5.7s-1.1-3.4-2.4-6.1c-2.4-5.2-7.6-10.5-10.2-10.5-3.5 0-11 2.4-12.1 3.8-2.1 2.6-1.5 7.5 1.8 13.5l3 5.6-2 4.6c-1.1 2.5-2.9 5.8-4.1 7.2-2.4 3.1-2.6 6.9-.3 11.3 1.6 3.2 1.5 3.7-.5 9.4-2.8 8-4.2 17-9.2 57.1-.7 5.2-1.8 9.7-2.7 10.7-.8.9-3.4 2-5.6 2.3-11.9 1.9-30.7 6.8-38.9 10-14.4 5.7-27.8 15.5-27.8 20.4 0 1-1.6 3.6-3.5 5.8-1.9 2.3-3.5 4.8-3.5 5.6s-.7 1.7-1.5 2.1c-2.1.8-1.9 2.4 1.1 5.8 1.4 1.7 3.6 5.2 4.9 7.8 1.3 2.7 3.3 5 4.4 5.3 1.2.3 2.5 1.6 3 2.9 1.3 3.3 19.3 21.4 27.1 27.2 7.5 5.6 41.6 23 43.1 22 .6-.3 2.1-.1 3.2.5 1.2.6 11.9 4.4 23.7 8.5 11.8 4 22.8 7.9 24.3 8.5 2 .8 20.4 1.1 59.8 1.1H406l6.2-4.7c3.5-2.6 7.8-6.2 9.7-7.9l3.4-3.3-2.1-6.6c-2.6-7.8-2.6-7.5-.8-7.5.8 0 2.3 1.3 3.2 2.9l1.8 3 2.7-1.9c3.5-2.5 7.9-14.3 8.6-23 .5-6.1.3-6.8-2.5-10.7-2.4-3.2-2.8-4.2-1.6-4.7 4.7-1.8-.3-8.2-22.1-28.5l-17.1-15.9-3.2-9.3c-3.1-9.1-10.2-33.5-10.2-35.1 0-.4 1.1-.8 2.5-.8s2.5-.5 2.5-1.1c0-2.4-9.9-18.6-14.7-23.9-6.5-7.3-13.2-40.7-9.2-45.6 1.6-2 5.1.7 9.5 7.4 2.1 3.2 5.2 7.4 7 9.4 1.9 2.1 4 5.3 4.8 7.3.8 1.9 3.3 6.1 5.5 9.2 3.1 4.2 3.8 5.9 3 6.9-1.6 2-.1 3.6 3.1 3.2 1.5-.1 3.5.4 4.5 1.2 1.5 1.3 1.9 1.2 3.1-.5 1.3-1.7 1.5-1.8 3.3-.1 1.7 1.5 2 1.5 2.8.3.4-.8 1.9-1.7 3.3-1.9 1.9-.2 2.6-1 2.8-3.3.2-1.7.7-3.5 1.2-4 .5-.6 0-2.7-1.1-4.9-3.2-6.5-.4-7.5 10.4-3.6 4.3 1.6 4.5 2.2 1.6 5.1-2 2-2 4.9 0 4.9.6 0 2.2-1.5 3.6-3.4 2.3-3 3-3.3 5.3-2.6 7.1 2 10.9 4.9 13.6 10.2 3.4 6.9 7.6 12.1 7.6 9.4 0-3.5-6.5-14.2-12.5-20.2-5.3-5.4-7.2-6.6-16-10-7.1-2.7-11.3-5-14.5-7.9-4.9-4.5-11.3-7.5-16-7.5-2.3 0-3.5-.9-5.9-4.4-1.7-2.4-6.3-7.3-10.2-10.7-8.5-7.6-9.3-8.9-7.7-12.4 1-2.1.9-3.1-.5-5.5-.9-1.5-1.7-3.4-1.7-4.2s-.7-3.8-1.5-6.6l-1.6-5.2h-5.1c-4.8 0-5-.1-4.4-2.3 2-6.3 1.8-10.9-.7-19.9-1.4-5.1-2.8-12-3.1-15.3-.7-7.5-2.5-13.1-7-22.2-2-3.9-3.6-7.7-3.6-8.3 0-.7-1.4-3.7-3.1-6.7-2.3-4-4.4-6.1-8.2-8.3l-5.1-2.9 2.7-1c1.5-.6 3.9-1.6 5.3-2.1 2.4-1 2.5-1.4 1.9-4.8-1.1-6.1-3.7-9.4-9.9-12.8-3.3-1.7-6.7-4.2-7.7-5.5C320.3.7 319.2.5 311 .1c-8.7-.3-9.2-.2-9.7 1.9M336 95c.9 1.7.8 2-.8 2-2.3 0-5.6-3.5-4.7-4.9.8-1.5 4.1.3 5.5 2.9m-21.9 67.2c1.8 4.8 2.4 8.3 2.4 14.8 0 8-.2 8.8-3.3 13.3-3.8 5.5-15.7 15.7-18.3 15.7-2.2 0-3-4.5-3.2-20.1-.2-11.2-.1-11.6 2.6-15.2 1.8-2.4 3.6-3.7 5.1-3.7 3.4 0 5.2-2.5 3.8-5.4-.5-1.2-.7-2.8-.4-3.3.7-1.2 7.3-3.2 8.3-2.7.4.2 1.7 3.2 3 6.6m-44.6 27-.7 4.1-1.5-3.4c-1.1-2.7-1.2-3.8-.2-5.7 1.1-2 1.4-2.1 2.2-.7.5.9.5 3.5.2 5.7"/></svg>