<svg xmlns="http://www.w3.org/2000/svg" width="682.667" height="512" version="1.0" viewBox="0 0 512 384"><path d="M287.1 172.9c-1 1-2.3 4.6-2.9 8.1-.7 3.5-1.4 6.5-1.6 6.8-.3.3-8.5.8-18.3 1.1-15.5.6-18.5 1-22.8 2.9-10.4 4.7-18.6 16-22.7 31.2-3 11.3-3.2 37.3-.3 49 2.4 10.1 8.4 22.4 13.9 28.6 7.2 8.1 19.2 12.1 31.2 10.4 5.4-.7 6.3-.6 10.9 1.9 10.2 5.6 24.3 6.2 33.9 1.3 22.4-11.1 42.9-54.6 38.9-82.3-2.1-14.5-7.6-24.1-17-29.6-8.5-5-32.9-13.3-39-13.3-3.7 0-3.8-.1-1.9-5.5 2.4-7.2 2.8-11.2 1.1-11.9-.8-.3-2.4.3-3.4 1.3"/></svg>