<svg xmlns="http://www.w3.org/2000/svg" width="682.667" height="512" version="1.0" viewBox="0 0 512 384"><path d="M299 5.3c-1.4.8-4.4 2.4-6.8 3.7-4.8 2.5-8.7 7.1-9.8 11.3-.5 2.1-.1 3.6 1.5 5.7 2.1 2.9 2.1 2.9.2 4-2.9 1.5-3.3 4.2-1.5 9.6 1.7 5.1 3.1 6.7 5.1 5.9 2.6-.9 2.3 1.8-.7 9.3-5.4 12.9-11 19.5-23.4 27.6-12.5 8.2-30.2 11.8-55.1 11.1-9.9-.3-12.3-.1-13.7 1.2-1.7 1.5-1.7 1.8-.2 4.1.9 1.3 1.4 3.2 1.1 4.2-.5 2 1.1 3 4.9 3 1.3 0 3.2.4 4.2.9.9.5 2.5 1.2 3.5 1.5 1.3.4 1.6 1.2 1.2 2.5-.9 3 1.9 4.4 7.3 3.7 2.6-.4 6.5-.9 8.7-1.2 10.4-1.3 22.6-3.6 28.3-5.5 5.9-2 18.4-8.2 21.4-10.8.7-.6 3.3-2.8 5.8-4.9 2.4-2 5.4-4.7 6.6-6 1.2-1.2 2.5-2.2 3-2.2s2 2.6 3.3 5.7c1.4 3.1 4.5 8.3 7 11.6 4.1 5.5 4.3 6.1 2.7 7.2-1 .7-2.4 3.3-3.1 5.7-1.5 4.7-4.3 12.2-7 18.2-.9 2.1-1.6 5.9-1.5 8.5.3 7.3.1 7.7-2.5 8.9-3.3 1.5-3.2 5 .2 7.8 2.5 2 2.6 2.3 1.3 5.5-.8 1.8-3.5 6-6 9.4-2.5 3.3-6.7 9.7-9.4 14.2-5 8.7-6.4 10.3-7 8.1-.2-.7-.9-3.1-1.6-5.4-1.1-3.6-1-4.5.5-6.8 1.4-2.1 1.7-4.7 1.6-13.8-.1-6.2-.6-12.8-1.2-14.6-1-3-.8-3.7 1.4-6 4.6-5 4.9-6.5 2.6-11.9-4-9.3-8.4-12.1-16.2-10.3-2.9.7-5.8 1.9-6.4 2.8-2.1 2.6-1.5 7.5 1.8 13.5l3 5.6-2 4.6c-1.1 2.5-2.9 5.8-4.1 7.2-2.5 3.1-2.5 6.1-.3 10.8 1.7 3.5 1.7 3.9-.5 9.8-2.3 6.4-2.9 10.1-6.1 35.2-3.7 28-4.6 41.2-3.2 42.9.8.9 1.9 1.6 2.6 1.6s1.5.7 1.8 1.5c.8 1.8-3.4 5.1-7.6 6.1-1.8.3-8.6 2.7-15.2 5.1-35.1 13-42.1 16.8-46.1 25.1-1.4 2.9-3.2 5.6-3.9 5.9-1.7.6-1.9 11.3-.3 11.3.6 0 .8.6.5 1.3s1.3 3.3 3.4 5.7 3.9 4.7 3.9 5.2c0 .4.9.8 2 .8 1.3 0 1.7.5 1.4 1.4-.6 1.5-.1 1.8 19.1 12.3 6.1 3.3 12.8 7 15 8.3 6.7 3.8 22.6 11.6 29.5 14.5 3.6 1.5 7.3 3.1 8.3 3.7 3.8 1.9 24 8.8 35.4 12l11.8 3.3 63.7.3 63.8.2.4-2.2c2.9-13.5 3.8-20.7 3.2-25.9-.4-4.1-.2-5.9.6-5.9 1.7 0 .3-11.5-2.3-19-1.9-5.7-8.2-17.7-9.9-19-.3-.3-1.7-2.1-3-4-2.8-3.9-3-4.3-6.4-8.5-4.6-5.8-7.5-13.4-11.2-28.6-2-8.5-5.1-21.7-7-29.4-1.8-7.6-3.2-14.1-3-14.3s1.8.4 3.5 1.2c1.6.9 3.2 1.2 3.5.8.5-.8-7.1-13.7-11.4-19.2-1.5-1.9-3.3-5.2-4-7.4-1.5-4.8-.4-5.9 5.8-5.3 2.7.3 5.5-.1 7.4-1.1l3.1-1.5-2.4-1.8-2.3-1.7 2.9-.4c3.9-.4 4-1.9.2-4.6l-3.2-2.4 4.5.7c2.5.4 5.9 1.1 7.5 1.6 26.1 7.8 29.8 9.1 31.4 11.1 1.3 1.6 2.3 1.9 3.7 1.3 1-.4 2.5-.7 3.2-.6 2.2.4 14.6 6.5 18.9 9.4 4.3 3 12.3 4.8 12.3 2.9 0-.6-.5-1.4-1.1-1.8-.6-.3-.9-1.8-.6-3.3.8-3.8 0-4.6-7.8-8.1-3.9-1.8-8.8-4-11-5s-6.7-3-10-4.5c-3.3-1.4-7.1-3.7-8.5-4.9-2.7-2.6-18.4-10.7-24-12.5-1.9-.6-9.3-2.2-16.5-3.6-7.1-1.4-13.2-2.9-13.5-3.3s-1.8-1.6-3.3-2.5c-1.9-1.3-2.7-2.5-2.5-4 .3-1.9.8-2.1 4.3-1.9 4.5.4 5.2-.4 7.4-8.6 1.1-3.9 1-4.8-1.3-9.5-1.4-2.9-3-5.9-3.5-6.7-1.3-1.9-4.7-9.8-5.6-12.8-.4-1.2-1.7-2.9-3-3.8-2.1-1.4-2.2-1.8-1.1-5.7 2.3-8 1.2-19.5-2.9-30.3-4.6-12.2-8.6-18.6-17.1-27.4-3.1-3.2-6.4-7.1-7.3-8.7-2.5-3.9-9.7-10.3-11.9-10.3-4.6-.1-4.3-1.8 1-5 2.9-1.9 5.5-3.5 5.7-3.7.7-.5-2.3-6.6-4.7-9.4-2.7-3.3-5.7-3.7-7.1-1-.6 1-1.7 2.1-2.5 2.4-1.2.5-1.3-.1-.9-2.7.5-3.1.2-3.4-3.3-4.8-5.9-2.4-18.3-3.2-21.4-1.5m44 90.9c2.8 1.7 3.1 2.3 1.7 2.6-2 .4-6.7-2.3-6.7-3.8s1.1-1.2 5 1.2m-18.3 62c3.3 3.1 6.7 15 6 21.4-1 9.8-3.9 13.4-23.8 29.6-11.1 9-14.9 12.5-15 13.8-.1.6-.2 1.5-.3 2.1-.2 2.1-11.4 11.2-13 10.6-1.2-.5-1.4-2.1-.9-8.4l.5-7.8 9.4-14.2c5.2-7.9 11.8-18.7 14.7-24 5.1-9.4 9.8-15.4 13.2-16.7.8-.3 1.8-1.4 2.1-2.3 2.2-7 3.3-7.7 7.1-4.1"/></svg>