<svg xmlns="http://www.w3.org/2000/svg" width="682.667" height="512" version="1.0" viewBox="0 0 512 384"><path d="M307.1 9.9c-.9.6-1.2 2.1-.9 4.6l.4 3.7-4.3-.6c-4.2-.5-4.7-.3-9.2 3.9-4.9 4.6-6.2 7.5-7.7 17.3-.4 3.2 0 5.7 1.6 9.7 2.2 5.5 2.2 5.5 6.6 5.5 4.8 0 5.2.7 3.4 6.4-.5 1.7-1.6 6.5-2.5 10.6-2.7 12.4-7.5 25.7-11.2 31.3-4.4 6.4-7.3 9.7-8.7 9.7s-8.4 4.8-13.3 9.2c-2.5 2.2-5.6 4-8 4.4-2.1.4-4.1 1.2-4.5 1.8-1.6 2.4-.7 8.6 2.1 14.2 2.7 5.5 2.8 5.9 1.4 9.3-.9 2-2.4 4.8-3.4 6.2-3.5 4.9-3.9 7.2-1.8 11.5 2.3 4.9 2.3 5.9 0 11.1-1.8 3.9-3.5 13.9-6.1 36.2-1.3 11.4-3.4 15.8-9.4 19.6-5.2 3.3-5.8 5-2.1 5.9 2.4.6 2.5.8 1 2.9-2.5 3.5-1.9 5 1.6 4.5 2.2-.4 3.2 0 3.6 1.1 2.5 7.7 4.9 10.1 10.2 10.1 2.2 0 3.5.7 4.8 2.6 1.7 2.6 1.7 2.7-1.2 5-1.7 1.3-3.7 2.4-4.6 2.4s-2.4.9-3.4 2c-1.6 1.8-1.7 2.1-.1 4.5.9 1.3 2.7 2.7 4.1 3.1 3.9 1 26.8 0 28.9-1.2 1.6-1 1.4-1.3-2.5-2.5-4.8-1.5-7.1-4.9-8.4-12.1-.6-3.3-.4-3.9 1.6-4.6 1.2-.5 4.3-.5 6.8 0 9 1.7 9.5.1 6.1-17.2-2.9-14.5-2.9-14.3 3.6-19.3 6.7-5.3 26.6-29 34.1-40.6 5.5-8.5 11.2-14.7 14.8-16.1 1.3-.5 2.1-1.8 2.3-3.6.3-3.4.9-4.1 4.1-4.6 3.7-.5 6.2 3.7 6.7 11.1.2 3.3.8 7 1.4 8 1.8 3.4 1.2 10.3-1.3 14.3-2.6 4.2-8.8 11-17.2 18.8-3.3 3-7.3 7.3-8.9 9.4s-4.2 5.1-5.8 6.6c-3.2 3.1-3.4 4.2-1.4 5.9 1.2 1 1 1.9-1.3 5.4-4.9 7.4-12.6 19.1-13.6 20.9-6.5 11-13.5 23.4-15.7 28.1-4.2 8.8-10.6 19.4-13.6 22.5-4.5 4.7-10.9 13.5-11.7 16.2-.4 1.4-1.7 3.6-3 5s-3.7 5.3-5.5 8.8c-2.7 5.3-3.1 6.9-2.5 10.5.3 2.3.8 6.7 1 9.7.3 5.2.5 5.6 4.1 7.6 2.3 1.3 4.3 3.3 4.9 5 .6 1.6 1.3 3.4 1.7 4 .5.7 7.5 1.4 18.5 1.8 16 .6 18.7 1 26.6 3.7l8.8 2.9h146.7l.7-3.7c2.3-12.3.3-18.2-11.5-34.3-8.8-12-13.1-20.3-21.9-42.3-6.8-17.3-11.4-31.7-16.6-52.7-1.4-5.8-3.6-13.3-4.8-16.7l-2.2-6.3 2.2-1.5 2.2-1.6-4.3-7c-4.6-7.3-9.5-23.2-8.2-26.5.6-1.4 1.7-1.6 7.9-1.1 11.7 1 22.1 4.4 37.4 11.9 12.8 6.4 14.6 7 17.5 6.2 2.4-.7 3.4-1.6 3.6-3.4.2-1.3 1.1-3.4 1.9-4.7 2.2-3.3 1.1-4.1-10.7-8.8-5.2-2-11.3-4.5-13.5-5.5-2.2-1.1-9.2-3.7-15.5-6s-13.7-5-16.5-6c-2.7-1-7.8-2.8-11.2-4-6.1-2.2-6.3-2.4-6.3-5.6 0-2.8.5-3.7 2.8-4.6 1.5-.7 4-2.3 5.5-3.5 1.6-1.3 3.3-2.3 3.8-2.3.6 0 1.6-.6 2.3-1.3 3.7-3.6 4.7-9.7 2.2-13-1.1-1.4-1.2-2.7-.4-5.5 1.2-4.4 1.6-20.9.6-27.2-1.1-6.9-6.5-19.7-9.3-22-.8-.7-1.5-1.6-1.5-2.1 0-2.1-22.5-25.1-30.7-31.4-2.9-2.2-5.5-4.8-5.8-5.7-.9-2.5-11.3-12.8-13-12.8-2.8 0-2.4-1.8 1-4.1l3.4-2.5-2.7-4.8c-1.5-2.7-3.5-5.4-4.4-6-2-1.2-5.5.4-9.6 4.5-3.1 3.2-7.2 3.9-6.8 1.2.5-3.1-1.4-9.8-3.1-11.1-1.9-1.4-11.1-1.6-13.2-.3m71.1 81.3c2.5 2 5.7 8.8 6.8 14.7 1.3 7 1.3 7.8-.5 8.5-3 1.1-4.3-.4-4.2-5.2 0-2.7-1-6.8-2.2-9.5-2.3-5.4-3.3-9.7-2.2-9.7.4 0 1.4.6 2.3 1.2m-21.3 7.3c2.8 1.4 4.9 4.5 3.2 4.5-2 0-10.1-4-10.1-5 0-1.5 3.6-1.2 6.9.5m-46.7 7.8c1.5 2.4 4.1 5.5 5.8 7 1.6 1.5 3 3.2 3 3.7s-2.2 3.8-5 7.1c-5.6 7-8 13.1-8 20 0 4.2-.4 5-3 6.9-3.7 2.6-3.7 3.9-.4 7 3.7 3.6 2.2 7.7-6.3 16.8-1.9 2.1-7.5 9.8-12.4 17.2-5 7.4-9.7 13.8-10.4 14.3-1.1.6-2-1.2-3.9-7.1-3.5-11.1-4-14.6-2.5-17.3 1.7-3.1 2.1-21.1.7-27-1.1-4.6-1.1-4.7 2.8-9.3 2.1-2.5 4.6-4.6 5.5-4.6 1.4 0 1.7-.6 1.2-3.4-.5-3-.1-3.7 4.7-7.7 2.9-2.4 6.9-5.8 8.9-7.5 3.9-3.5 12.5-17 11.6-18.4-.6-.9 1.1-1.8 3.5-1.9.8-.1 2.7 1.8 4.2 4.2"/></svg>