<svg xmlns="http://www.w3.org/2000/svg" width="682.667" height="512" version="1.0" viewBox="0 0 512 384"><path d="M319.9 11.7c-.1 1.6-.1 3.4 0 4 .2 1.4-1.1 1.6-7 1.3-3.1-.1-4.1.5-7.3 4.2-4.8 5.6-8.4 13.1-9.2 19.3-.5 4.2-.2 5.8 2.1 10.2 2.5 5 2.8 5.3 6.4 5.3h3.8l-1.9 9.2c-1 5.1-2.1 10.6-2.4 12.3-5.5 31.7-7.7 38.7-15.4 48.5-5.5 6.8-6.3 12.6-3.2 21.6 1.2 3.3 2.4 7.6 2.7 9.6.9 4.5 4.6 8.8 7.7 8.8 1.3 0 4 .3 6.1.6 4.3.8 4.6-.3 2.2-7.3-3.5-9.9-2.6-18.6 2.5-25 2.6-3.3 5.9-10.6 6.6-14.6.2-1.7.7-3.4 1-3.9s.8-2.1 1-3.5c.6-3.1 2.2-4.5 4-3.5.7.4 3.5 2.9 6.4 5.6l5.2 4.9-2.1 2.6c-8.1 10.2-11.1 17.2-10.4 24.6.4 3.6.1 4.2-2.6 5.8-3.9 2.3-3.9 4.1 0 7.6l3.1 2.8-2.6 4.9c-1.5 2.7-5 7.7-7.9 11-5.7 6.7-19 27.1-22.7 34.8-1.7 3.5-3.2 5.2-5.8 6.3-1.9.8-4 1.2-4.7.9-.7-.2-1.5-2.7-1.9-5.5s-2-9.3-3.6-14.5c-4.1-13.4-4.5-16-2.8-20.3 1.7-4.5 1.6-23.9-.1-27.1-1.5-2.8-1.6-2.4 2.4-7.2 1.9-2.3 3.5-5 3.5-5.9 0-2.9-5-12-7.8-14.2-2.3-1.8-3.5-2-8.7-1.5-6.8.7-8.3 1.8-9.2 6.8-.4 2.7 0 4.4 1.4 6.5 3.9 5.6 4.7 9 3.3 13.3-.7 2.2-2.1 4.7-3.1 5.6s-2.3 3.2-2.9 5c-1 2.9-.9 3.9 1 6.8 2.2 3.6 2 6.5-.5 11.6-1.2 2.4-3.7 18.3-5 31.5-.3 3.3-1.3 9-2.2 12.8-1.3 5.2-1.5 7.6-.7 10.6.6 2.3.7 6.7.3 11-.8 7.4 0 11.8 2.3 12.5.7.3 3 .7 5.1 1.1 2.7.4 4.1 1.3 4.9 3 1.4 3.1-.1 5.1-5.4 7.2-6.3 2.5-7 6.1-1.8 8.8 3 1.6 23 2 27.8.7 3.1-.9 2.6-2.5-1.2-3.7-3.6-1.2-6.5-6.2-6.9-12.1-.2-3.7-.1-3.9 3.3-4.4 1.9-.3 5.1-.2 7 .2 5.7 1.2 6.6-.5 5.2-9.9-1.2-7.6-1.2-7.8 1-9.6 3.8-3 8.6-7.5 8.9-8.5.2-.6 2.8-2.7 5.8-4.6 4.9-3.3 18.7-19.1 28.2-32.1 1.6-2.2 3.6-4.9 4.4-6 .8-1 1.5-2.3 1.5-2.8 0-1.5 5.4-8.7 6.6-8.7.7 0 2.4.7 4 1.5 1.5.8 5.8 1.7 9.6 2.1 8.8.9 10 1.8 8.9 6.7-1.3 5.4-5.3 10.8-15.7 21.2-5 4.9-11.7 12.5-14.8 16.7-5.3 7.2-5.6 7.9-4.1 9.4.9.9 1.4 1.9 1.3 2.3-10.3 20.2-19 38.9-20.1 43.1-.9 3-2.7 9.6-4.1 14.6-3.8 13.4-7.4 29.6-10.8 48.9-1.6 9.3-3.2 18.2-3.5 19.7-.8 4.1.5 9.2 2.9 11.8 1.4 1.4 2.2 3.6 2.2 5.7v3.3H465v-2.3c0-1.3.4-2.7 1-3.3.5-.5 1.3-3 1.6-5.6.5-3.9.2-5.4-2.5-10.4-1.7-3.3-6-9.5-9.6-13.9-3.5-4.4-7.8-10.3-9.5-13.1-7.6-12.5-18.5-42-24-64.9-2.7-11.3-4.8-19.7-9.1-36.9-.7-2.7-.6-4.3.1-5 1.6-1.6 1.2-3.9-1.8-8.7-3.1-4.9-9.6-28.5-8.1-29.5 1.3-.7 6.4 1 16.5 5.7 7.4 3.4 9.3 3.9 15.9 3.9 6.8 0 7.5-.2 7.5-1.9 0-1.1.9-2.6 1.9-3.3 3.3-2.3.1-4.7-11.6-8.8-27.3-9.5-31.9-11.2-33-12.2-.8-.7-1.3-3.6-1.3-7.8 0-7.4 1.3-9.7 5-8.5 1.1.3 5.2.8 9.2 1 6.9.4 11.4-.7 10.3-2.5-.3-.5-.1-1.1.5-1.5s.9-2.2.7-4.1c-.3-1.9-.1-3.7.4-4 1.7-1 .8-17.7-1.5-28.9-.1-.6-.5-1.6-1-2.3-.4-.7-.5-1.6-.2-1.9s-.1-1.8-.8-3.2c-.8-1.4-2.2-4.6-3.2-7.1-3-7.1-11.9-18.8-20.7-27.3-8.7-8.3-19.9-18-24.1-21-1.4-1-3.7-4.2-5.1-7.1-2.6-5.5-5.5-9-11.3-13.4l-3.4-2.6 2.3-1.7c2.1-1.5 2.1-1.9.9-4.8-2-4.9-4.9-8.1-7.4-8.1-1.3 0-4.1 1.3-6.4 3-3.7 2.7-4.3 2.8-5.7 1.4-.9-.9-1.5-3.3-1.5-6 0-3.9-.3-4.6-2.6-5.4-1.4-.6-5-1-8-1-5.2 0-5.4.1-5.5 2.7m73.6 81.7c5.7 5.9 11 16.8 12.5 25.6.7 3.9 1 7.3.7 7.6-1.3 1.3-5.8-2-7.8-5.7-1.5-2.7-3.3-4.5-4.9-4.9-2.2-.5-2.5-1.2-2.7-5.5-.1-2.8-1.2-8.5-2.6-12.7s-2.2-8-1.9-8.3c1.2-1.2 2.7-.3 6.7 3.9m-23.3 5.8c1 .4 2.2 1.7 2.8 2.8.9 1.7.8 2-.7 2-2.4-.1-10.3-3.7-10.3-4.8 0-2.3 3.8-2.3 8.2 0m-15.5 64.4c1.5 3.1 1.5 3.6.3 4.5-.8.5-3.1.8-5 .7-3.3-.3-3.5-.5-3.5-3.8-.1-4.7.1-5 3.6-5 2.4 0 3.2.7 4.6 3.6"/></svg>