<svg xmlns="http://www.w3.org/2000/svg" width="682.667" height="512" version="1.0" viewBox="0 0 512 384"><path d="M336.4 10.5c-.5 2.8-1.1 3.5-3 3.5-1.2 0-2.6-.5-2.9-1-.3-.6-1.8-1-3.3-1-3.1 0-13.6 8.5-12.9 10.4.3.6.8 1.8 1.1 2.6.5 1.1-.3 1.9-2.8 2.8l-3.4 1.3-.7 8.2c-.6 7.4-.5 8.7 1.6 12.7 2.7 5.3 3.5 6 7.2 6 3.1 0 3.2.3 1.1 9-.8 3.6-1.9 9.4-2.4 13s-1.4 9.6-1.9 13.5c-.6 3.8-1.2 10.8-1.5 15.5-.4 8.8-1.2 13.2-5.1 28.5-1.3 4.9-2.6 10.8-2.9 13-.9 5.5-1.6 34.9-.9 37.4.5 1.8 1.3 2.1 6.4 2.1 5.3 0 5.9.2 5.9 2.1 0 1.1-3.1 7.2-7 13.5-3.8 6.4-7.5 13.1-8.2 15-1 2.8-2.1 3.7-6.8 5.5-3 1.1-7.9 3.4-10.9 5-3.3 1.9-5.7 2.7-6.3 2.1-.5-.5-1.5-5.1-2.3-10.3s-2.1-11.7-2.8-14.4c-6.6-23.4-6.2-21.2-4.4-26.3s1.6-18.8-.5-26.9c-1-4.1-.9-4.4 2.6-8.3 2-2.2 3.6-4.6 3.6-5.3 0-2.1-4.6-11.1-6.6-12.9-3.4-3-6.6-3.7-12.3-2.5-4.1.8-5.5 1.5-6.2 3.4-1.5 4.1-1 7.1 2.2 12.8 2.9 5.1 3 5.7 1.8 9.2-.6 2-2.5 5.5-4 7.7-3.4 4.6-3.6 6.8-.9 11.1 2 3.2 2 3.5.4 7.7-2.2 5.9-5 21.4-5.8 32.3-.4 4.9-1.4 11.9-2.3 15.4-1.3 5.2-1.3 7.3-.3 12 .8 3.9.8 6.9.2 9.9-1.1 4.7-.1 11 2 12.3.7.5 2.7.9 4.5.9 5.5 0 8.3 5 4.6 8.2-1 .9-3.5 2.3-5.5 3.3-5 2.3-5.1 5.8-.1 8.4 3 1.5 24 1.4 27.8-.3l3-1.3-3.8-1.2c-4.5-1.5-6.4-4.1-7.6-10.4-.8-4.7-.2-6.5 2-5.1.7.4 4.6.7 8.7.8l7.6.1.2-4.9c.4-6.2 2.1-8.1 10.9-12.1 5-2.3 8.1-4.5 10.7-7.7 2.1-2.5 5.9-5.9 8.5-7.6s6-4.7 7.5-6.6c10.7-13.5 22.3-29.7 25.5-35.6l3.8-7h9l9 .1 2.3 5 2.4 4.9-2.7 4.7c-1.5 2.5-7.2 9.2-12.7 14.8-5.4 5.6-10.6 11.2-11.5 12.6-.9 1.3-3.3 4.7-5.5 7.5-4.2 5.6-4.5 6.6-2.4 8.3 1.2 1 .5 3.2-4.5 13.6-3.2 6.9-5.9 12.9-5.9 13.5 0 .5-1.3 3.8-2.9 7.2-2.9 6-4 11.6-7.3 35.3-1.8 13.5-1.4 40.1 1 57.5 1.2 8.5 2.2 16.3 2.2 17.2 0 1.7 4.2 1.8 74.9 1.8h74.9l1.2-2.9c.6-1.6 1-3.5.9-4.2-.1-.8.1-2.6.5-4.1.8-2.9-2.3-10.2-6.6-15.8-12.3-15.7-17.1-25-22.7-44.3-5-17.2-8.3-31.8-12-53.8-1.7-9.5-3.7-19.3-4.5-21.6-1.3-3.7-1.3-4.6-.1-7 1.3-2.4 1.2-3-1-6.7-3.1-5.3-9.4-30.8-7.7-31.4.7-.2 1.2-2.3 1.2-4.8 0-3.6-.6-5-3-7.4-2.8-2.7-3-3.4-3-10.4 0-4.1.4-8.6 1-10 .9-2.4 1.4-2.6 7.4-2.6 3.7 0 7.6.6 9.2 1.5 2.2 1.1 4.7 1.3 9.9.8 9.9-.8 10.6-1.3 10.4-7.6 0-2.9-.5-6.9-1.1-9-.5-2.1-1.1-5.2-1.3-6.8-.2-1.7-.9-3.7-1.6-4.5-.6-.8-.9-1.4-.6-1.4 1 0-1.5-7.5-3.1-9.3-.8-.9-1.2-1.7-.8-1.7s-.1-1.2-1.2-2.8c-1.1-1.5-2-3.1-2-3.5-.2-1.8-7.6-12.9-11-16.5-2-2.1-5.3-5.6-7.2-7.8s-10.7-10.5-19.6-18.6c-13.5-12.4-16.2-15.3-17.3-18.9-1.7-5.8-5-10.6-10.4-15.7-2.6-2.3-4.2-4.2-3.7-4.2 1.7 0 1-3.4-1.8-8.5-3-5.6-5.7-6.7-9.7-4.1-3.1 2.1-7.9 2.2-7.2.2.3-.8.9-3 1.2-4.9.7-3.4.6-3.5-4.1-5.1-2.6-.9-6.2-1.6-8-1.6-3 0-3.4.3-4 3.5m71.1 85.7c7.8 6.8 16.9 21 19.8 30.8 1.8 6.4 1.6 8.6-.7 8.2-2.4-.4-11.5-9.4-14.1-13.9-1.1-1.8-3.2-3.7-4.7-4.2-2.4-.9-2.8-1.5-2.8-4.9 0-2.1-.8-7-1.9-11-2.4-9.4-1.6-10.4 4.4-5m-22.8 4c2.8 2.6 2.9 3.8.4 3.8-3.2 0-7.6-2-8.9-4-1.1-1.9-1-2 2.5-2 2.4 0 4.5.8 6 2.2m-49.8 12.7c.6 1 3 3.2 5.5 4.8l4.4 3-3.5 4.4c-6.1 7.6-7.7 11.7-7.9 19.6-.1 6.8-.3 7.4-3.3 9.9l-3.2 2.7 3.6 3.7c5.2 5.4 2.9 9-4.9 7.6-3.2-.6-3.3-.8-2.9-4.9.3-2.3.9-4.7 1.5-5.4.8-.9.7-1.3-.3-1.3-1.2 0-1.2-.2 0-.9.9-.6 1-1.1.2-1.5-.7-.5-.7-1.5 0-3.3.5-1.5.8-3.2.5-4-.3-.7-.1-1.3.5-1.3s.9-.6.6-1.4-.1-3 .4-4.9c.5-2 1.2-7.3 1.5-11.9.5-7.3.7-9.8 1.3-15.6.2-1.9 4.9-1.4 6 .7m33.4 51c.6 2.3-.1 3.3-3.3 4.8-4.1 1.9-6.2 2.4-5.5 1.3.3-.6 1.3-1 2.2-1 1.2 0 1.4-.8 1.1-3.5-.4-3.2-.2-3.5 2.3-3.5 1.8 0 2.8.6 3.2 1.9"/></svg>