<svg xmlns="http://www.w3.org/2000/svg" width="682.667" height="512" version="1.0" viewBox="0 0 512 384"><path d="M359.5 2c-.3 1-.3 3.5.1 5.5l.6 3.5h-4c-6 0-8 2.2-9.1 10.5q-1.05 6.9 0 8.1c.6.7 1.2 2.9 1.4 4.8.5 5.7 4.8 12 8.8 13.2l3.5.9-2.5 8.5c-5 16.9-5.5 19.1-4.9 19.7.3.3.2 1.1-.3 1.7-1 1.3-4.3 15.6-4.7 20.6-.1 1.9-.6 6.2-1 9.5-1.9 16-2.4 30.3-1.3 37.5.5 3 1 6.9 1.3 8.6.2 1.7.7 5.5 1.1 8.3.7 5 .6 5.1-1.9 5.1-3.4 0-3.3 1 .4 4.5s3.8 5.1.4 6.2c-2.8.9-5.8.6-42.4-5.2-11.8-1.9-24.4-3.7-28-4.1-9.4-1-10-1.4-10-8.1 0-3-.5-7.3-1.1-9.4-1.2-3.7-1.1-4 2.5-8 3.1-3.3 3.6-4.6 3.1-6.7-1.2-5-3.7-9.2-7.2-12.3-3.3-2.8-3.9-3-8.7-2.4-7.4.9-8.3 1.3-9 3.8-1.2 4.4-.5 7.7 2.5 12.9 2.8 4.8 3 5.5 1.9 9-.6 2.1-2.2 5.4-3.5 7.4-3.6 5.3-3.9 7.1-1.6 10.8 2.6 4.1 2.6 6.2.2 11.8-3.4 7.5-8.5 52.8-8.5 73.7.1 4.2 2.4 6.1 7.6 6.1 4.4 0 7.8 2.8 7.8 6.4 0 2.9-1.9 4.6-7.4 6.6-4.9 1.9-6 5.1-2.4 7.3 3.1 2 14.8 2.9 22.7 1.7 7.7-1.1 9.6-2.5 5.5-4-1.6-.6-3.7-1.8-4.6-2.7-1.9-1.7-3.4-10.9-2.3-14.3.7-2.1 1.1-2.2 7.5-1.6 8.4.9 8.6.5 6.5-11.5-.8-4.6-2.2-12.7-3-17.9-2.5-15.4-3.5-19.9-7.2-32.4-3.4-11.8-3.6-14.4-1-18 1.3-1.8 1.7-1.8 15.8.3 7.9 1.2 19.6 3 25.9 4.1 6.3 1 17.1 2.6 24 3.5s13.5 1.9 14.8 2.1c2.1.4 2.2.9 2.1 8.9-.1 10.5.5 11.5 7.6 11.5 3.5 0 6 .6 7.4 1.8l2.2 1.7-3.5 6.5c-2 3.6-4.5 9.3-5.6 12.6-2.1 6.1-2.2 6.2-9.3 9.7-4 2-13.3 8.3-20.8 14-13.5 10.5-14.7 12-12.4 15.7.5.7.9 3 .9 4.9.1 3.3.4 3.6 4.1 4.5 2.2.5 4.5 1.6 5.1 2.4.9 1.2 1.6 1.3 4.8.1 2.9-1.1 4.1-1.1 5.6-.1 2.9 1.8 6.4 1.6 5.6-.4-3.4-8.9-.6-14.6 9.7-19.6 4.9-2.3 9-5.4 14-10.5 4-4 8-7.5 8.9-7.9.9-.3 3.5-2.8 5.7-5.7 2.3-2.9 4.6-5.8 5.2-6.5.5-.7 1.7-2.7 2.5-4.5.8-1.7 2.7-5.3 4.2-7.8 8.9-15.2 10.7-17.9 12.3-17.9.9 0 3.5.8 5.8 1.8l4.1 1.9-5.1 4.9c-13 12.3-16.6 16.4-19.7 22.5-1.8 3.5-4.8 8.1-6.7 10.2-3.3 3.6-3.9 4.8-3.6 7.3.1.7-1.9 4.6-4.4 8.8-14.1 23.8-18.4 33.6-24 53.9-5.2 18.5-6.8 29.3-8 53.2-.3 5.5-.8 11.9-1.1 14.3l-.6 4.2h137.7l.2-37.8c.2-20.7 0-47.3-.5-59-.7-21.1-.7-21.3 1.5-23.7 2.1-2.2 2.2-2.8 1.2-7.7-.5-2.9-1.2-7.3-1.4-9.7-.3-2.4-1.7-7.6-3.1-11.5C471 219.7 462 178.7 462 169c0-4.6.1-4.8 4-6.4 2.2-.9 4-2.2 4-3 0-.7.6-1.9 1.4-2.5 2.2-1.8 4.9-11.6 4.3-15-.5-2.1-.2-3.1 1-3.5 1.9-.8 8.5 5.8 17 17 3.4 4.5 6.9 8.4 7.8 8.8 3.3 1.2 6.7.6 7.2-1.3.3-1.1 1.1-2.2 1.9-2.5.9-.4 1.4-2.2 1.4-5.6v-5.1l-13.3-13.2c-7.3-7.3-19.5-19.3-27.2-26.7-14.2-13.7-20.5-20.3-26-27.5-3.2-4.1-8.1-17.7-11.6-31.9-2.6-10.8-6.9-18.5-13.2-23.5-2.8-2.3-5.2-5-5.4-5.9-.4-2.8-4.1-10.8-5.5-12-.7-.5-2.4-1.2-3.8-1.4-1.5-.2-2.5-1-2.5-2 0-3.7-3.5-5.8-9.5-5.8-3.2 0-7 .7-8.6 1.5-2.5 1.3-3 1.3-4.4 0C379.8.4 376.8 0 369.7 0c-8.6 0-9.6.2-10.2 2m69.1 98.5c1.8 1.4 1.7 1.5-1.5 1.3-1.9-.2-3.6-.9-3.9-1.6-.5-1.7 3-1.5 5.4.3m-54.6 8.2c4.2 6.7 9.5 10.8 15 11.7 4.1.6 5.2 2.4 2.6 4.5-.7.6-2.8 4.4-4.7 8.3-3 6.5-3.4 8.3-3.5 16.2 0 7.2-.4 9-1.7 9.8-2.7 1.4-2 4.2 1.8 7.6 3.5 3.3 3.8 5.5.7 6.7-2.5.9-14.1-.6-15.6-2-1.3-1.3-2.9-9.2-4.6-22-.7-5.7-.7-18.2.1-37.5.1-1.4.6-4 1.1-5.8 1.5-5.1 4.6-4.3 8.8 2.5m4 81.3c0 1.8-3.2 6-4.5 6-1.6 0-3.5-2.3-4-4.9-.3-1.9.1-2.1 4.1-2.1 2.4 0 4.4.5 4.4 1m39.7-.4c-.3.3-1.2.4-1.9.1-.8-.3-.5-.6.6-.6 1.1-.1 1.7.2 1.3.5"/></svg>