<svg xmlns="http://www.w3.org/2000/svg" width="682.667" height="512" version="1.0" viewBox="0 0 512 384"><path d="M373.2 2.2c.2 1.8-.2 2.4-2.2 2.6-7.8.9-8.8 2-10 12.1-.6 4.6-.5 7 .3 8 .6.7 1.2 2.8 1.4 4.7.3 5.6 5.1 13.4 8.2 13.4 4.2.1 4.5 1.4 1.5 10.1-1.5 4.6-2.7 9.2-2.6 10.1 0 1-.3 2-.8 2.3s-1.2 2.6-1.6 5.2c-.4 2.5-1.3 5.8-2 7.2-.8 1.4-1.4 3.6-1.4 4.9s-.4 3.1-1 4.1c-.9 1.8-2.7 10.9-3.5 18.3-.2 2.1-1.2 7.5-2.1 12-1.2 5.5-1.8 13.1-1.8 22.3 0 11.4.7 22 1.4 22 .1 0 .4 2.6.7 5.7.4 5.3.3 5.8-1.9 6.3-1.3.3-5.4-.2-9.3-1-11.3-2.5-13.5-2.8-13.5-1.8 0 1.3 7.5 4.7 18 8.2 8.7 2.8 10.9 5 7.3 7-1.9.9-15.5-.4-29.5-2.9-3.1-.6-14.8-2.4-25.9-4-33.6-5-32.9-4.8-34.7-8.9-.8-2-1.4-6.2-1.4-9.4.1-3.1-.6-7.3-1.4-9.2-1.4-3.4-1.4-3.5 2.1-7.4 5.3-5.8 4.3-12-3-19.1-3.3-3.2-3.5-3.2-9.9-2.5-4.9.5-6.9 1.1-7.6 2.5-1.9 3.5-1.1 8.8 2.1 14.1 3.6 6.1 3.4 7.7-1.7 15.9-4 6.4-4.1 7.5-1.4 11.5 2.3 3.5 2.5 6 .6 9.6-.7 1.4-1.6 3.9-2 5.5-1.8 6.7-4.7 30.3-6.3 50.7-2 25-2.1 24.3 6.6 25.4 6.2.7 8.1 2.3 8.1 6.8 0 3.8-.6 4.3-7 6.6-3.5 1.2-4.6 2.1-4.8 4s.3 2.8 2.1 3.6c3.9 1.8 14.7 2.5 22.1 1.4 8.2-1.2 10.2-2.5 6-4.1-4.7-1.8-6.2-3.9-6.9-9.5-.8-5.8-.1-9 1.9-9.8.7-.3 3.4-.1 6 .5 3.5.7 5.1.7 6.2-.3 1.7-1.4 1.6-2.4-1.6-19.4-1-5.5-2.6-14.3-3.4-19.6-.9-5.3-3.2-15.3-5.2-22.3-2.1-6.9-3.4-12.9-3-13.3.9-.9 20.3 1.5 53.8 6.7 13.9 2.1 28.2 4.1 31.8 4.5 12.2 1.2 11.8.9 12.6 7.1 1.1 8.8 2.3 9.7 14 10 5.4.1 10.2 0 10.7-.3.4-.2-.5-2-1.9-3.9-1.5-1.9-2.4-3.4-2.1-3.4.4 0 0-1.8-.8-4s-1.1-4.1-.7-4.4c1.2-.7 16.1-3 16.6-2.5.7.7-7.4 16.9-8.4 16.9-.6 0-1 .9-1 2.1 0 1.1-2.2 6.8-4.9 12.7s-5.2 12.3-5.5 14.3c-.7 4.2-1 4.5-9 8.8-3.2 1.8-10.7 7.1-16.5 11.8-16 13.1-17.1 14.2-17.1 17.5 0 1.5.4 2.8.9 2.8.6 0 .9 1.9.8 4.2-.2 4.2-.1 4.3 3.8 5.3 2.2.5 4.7 1.7 5.7 2.7 1.6 1.6 5.8 1.4 5.8-.3 0-1.2 4.7-1.1 5.5.1.3.5 1.8 1 3.2 1 2 0 2.4-.4 1.8-1.7-2.6-6.4-2.5-8.9.2-13.5 1.7-2.9 4.2-4.7 11.2-8.3 5-2.5 9.3-4.5 9.6-4.5 1.3 0-.1 2.9-7.7 15.7-4.6 7.6-8.8 15.2-9.5 16.8-.6 1.7-3.2 7.9-5.8 14-7.1 16.8-12.1 31.1-18.1 52.1-3 10.5-5.4 19.6-5.4 20.2 0 .9 19.1 1.2 76.5 1.2H492l.4-2.3c3.5-15.7 6.6-76.5 5.2-101.5l-.5-10.3 2.9-2.8 2.9-2.8-1.8-7.4c-2.7-10.8-4.7-17.6-7.1-24.4-5.4-15.5-12.3-51.3-11.8-61.3.3-5.1.6-5.8 3-7 3.1-1.4 6.4-5.7 7.9-10.2 1.7-4.8 5.8-4.2 12.3 2 2.9 2.7 5.6 5 5.9 5 .4 0 .7-4.5.7-9.9v-9.9l-7.2-6.3c-9.7-8.5-26.4-25.3-32.9-33.1-5.6-6.7-10.4-16.1-13.6-26.8-1.1-3.6-3-9.7-4.3-13.7-1.2-3.9-1.9-7.7-1.5-8.2 1-1.8-3.3-15.7-6.5-21-2.9-4.6-12.4-14.1-14.2-14.1-.4 0-.8-.8-.8-1.8-.1-2.5-5.3-12.4-7-13.2-5.2-2.5-10.3-3-29.9-3h-21.2zm13.9 101.9c4.2 7.7 11.6 14.5 17.2 15.7 4 .8 4.2 1 4 4.3-.1 1.9-1.3 5.9-2.6 8.9-4 9-5.1 15.1-3.8 21.1 1 4.3.9 5.5-.4 6.9-2.2 2.4-1.9 4.3 1.5 7.5 6.8 6.5 2.7 10.5-11.5 11.3-13.3.7-13.4.6-16-18.4-1.5-10.9-2-31.3-1-37.4.2-1.4.9-5.7 1.5-9.5 1-6.9 2.8-14.3 3.7-15.8.2-.4 1.3-.7 2.3-.7 1.3 0 2.9 1.9 5.1 6.1m57.6-3.5c-.3.3-1.2.4-1.9.1-.8-.3-.5-.6.6-.6 1.1-.1 1.7.2 1.3.5m-8.5 87.6c.6 1.4.1 8.1-.7 11.5-.9 3.6-8.3 12.3-10.6 12.3-1.6 0-2-.5-1.6-1.8 5.4-17.1 11.1-26.9 12.9-22"/></svg>