<svg xmlns="http://www.w3.org/2000/svg" width="682.667" height="512" version="1.0" viewBox="0 0 512 384"><path d="M263.6 166c-.9 2.2-1 4.5-.5 7.3.5 2.3.8 5.6.9 7.3 0 3-.2 3.2-7.2 5.2-4 1.2-9.5 2.7-12.3 3.3-12.8 3.1-20.2 8.2-25.7 17.7-4.1 7.3-5.8 14.1-5.8 24.3 0 17.3 6.6 40.3 15.7 54.7 3.8 6 15.5 18.2 17.5 18.2.6 0 1.9.7 2.9 1.6 2.3 2 11.3 4.4 16.9 4.4 5.5 0 13.1-2 18.8-4.9 3.4-1.7 4.6-1.9 6.4-1 3.5 1.9 19.4.7 25.3-2 12.3-5.5 23.3-25 26.6-47.2 1.7-12.1.7-33.6-2.1-42.4-4.8-15.2-12.8-25.5-23-29.5-6.2-2.4-31.6-4.2-40.3-2.9-3.3.6-5.3.5-5.5-.1s-.8-.8-1.3-.5c-1.1.8-1.9-2.7-2.2-10-.2-4.8-.6-6.1-2-6.3-1.2-.2-2.2.7-3.1 2.8"/></svg>