<svg xmlns="http://www.w3.org/2000/svg" width="682.667" height="512" version="1.0" viewBox="0 0 512 384"><path d="M422.7.6c-.3.3-.2 1.4.3 2.3s1.1 3.2 1.5 5.1c.3 1.9 1.8 5.8 3.5 8.6 2.2 3.9 3.6 5.3 5.9 5.7 2.4.5 3.1 1.2 3.1 2.9 0 3-4.6 19.9-7.1 26-1 2.6-1.9 5.6-1.9 6.8 0 1.1-.7 3.1-1.5 4.3-.8 1.3-2.4 5-3.5 8.3-1.2 3.2-3.2 9-4.6 12.9-1.4 3.8-2.8 8.1-3.1 9.5s-.9 2.9-1.3 3.5c-.5.5-1.7 3.5-2.8 6.5-2.1 6-7.9 20.4-9.3 23.2-.5 1-.9 2.6-.9 3.6s-.4 2.2-.9 2.7c-1.3 1.3-7.1 19-7.1 21.5 0 1-.4 2.1-.9 2.4s-1.1 2.3-1.4 4.3c-.2 2.1-.8 4.9-1.1 6.3-.4 1.4-.9 4.1-1.2 6s-.8 4.2-1.1 5-.7 6.5-.8 12.7c-.4 12.3-2.2 18.3-5.6 18.3-2.1 0-40.9-9.9-50.9-13-3.6-1.1-7.5-2-8.8-2-2.9 0-10.4 3.8-9.8 4.9.3.4-.6 1.3-2 2-3.3 1.4-2.4 2.8 2.9 4.2 9 2.4 61.5 14.7 65.7 15.4 5.9 1 7.9 2.1 7.5 4.2-.2 1-.4 3.3-.4 5l-.1 3.3h-13.2c-7.3 0-21.2-.7-30.8-1.5s-25.4-1.9-35-2.5c-9.6-.7-20.4-1.5-24-1.8l-6.4-.7-.8-4.5c-1.9-10.5-3.1-15.9-5.4-23.3-2.8-9.2-2.9-11.7-.7-17.5 1.4-3.8 1.5-5.3.5-10.1-.7-3.2-1.2-7.4-1.2-9.4s-.7-5.5-1.6-7.7l-1.7-4.1 3.8-3.9c3.2-3.3 3.7-4.3 3.1-7-1.5-7.8-6.3-13.5-11.7-14.1-4.5-.5-11.8 1.2-12.3 3-1.7 6.3-1.6 7.1 2 13.7l3.7 6.6-4.2 8c-2.2 4.4-4.1 8.4-4.1 9 0 .5.9 2.1 2 3.5 2.5 3.2 2.5 5.4 0 12.4-2.1 6-5.7 26.2-9 50.9-3.6 26-3.5 24.5-.9 26.4 1.3.9 4.2 1.6 6.4 1.6 6.2 0 8.3.9 9.4 4 1.3 3.9-.2 5.5-6.9 7.7-6.3 2.1-7.9 5.2-3.8 7.5 3.1 1.8 27.3 1.7 30.6-.1 2.7-1.5 2.3-2.2-2.1-3.7-3.8-1.2-6.6-6.2-7-12l-.2-3.9 8.3.3 8.2.4v-2.8c0-1.6-1-8.1-2.1-14.6-1.2-6.5-1.9-12.4-1.6-13.2.5-1.2 1.2-1.2 4.9-.1 2.4.7 13.3 1.8 24.3 2.4s27.6 1.9 37 2.7c11.7 1.1 23 1.5 36.5 1.1 23.2-.6 30.6-2.2 40.9-8.9 10.7-7 16.4-8.6 19.1-5.3.7.8 2.5 1.5 4 1.5 2.7 0 2.8-.2 2.8-4.5-.1-4.2.3-5 5.5-10.3 3.1-3.1 6.6-7.1 7.9-8.7 1.2-1.7 5.5-6.6 9.6-11s8.8-10.1 10.5-12.8c2.3-3.5 4-5 6.8-5.8 4.7-1.5 6.5-.8 7.3 2.7.4 1.6 1.6 3.4 2.7 4.2 1.6 1.1 2 2.3 1.8 6-.3 4.5-.2 4.8 3.6 6.9 2.4 1.3 4.2 3.2 4.7 4.8.6 2.5-.7 7.9-3.1 12.1-.5 1.1-1.7 4.4-2.6 7.4-2.9 9.8-3.7 11-10.3 16-6.7 5.1-28.7 26.2-30.3 29.2-.7 1.3-.2 1.8 2.7 2.5l3.5.8-10.1 14c-5.5 7.7-11.1 15.3-12.3 17-6.9 9.6-19.3 29.8-31.9 52.4-3.9 6.9-10.6 18.1-14.8 24.8-4.3 6.7-7.6 12.4-7.2 12.7.3.3 27.9.6 61.4.6H512V0h-44.3c-24.4 0-44.6.3-45 .6M447 85.2c0 2 6.5 14.4 10.2 19.5 3.6 5 7.5 8.3 11.1 9.6 2.9 1.1 3 3.3.4 7.5-3.1 4.8-5.7 13.3-5.7 18.4 0 2.1-.7 4.9-1.6 6.3-1.7 2.6-1.1 4.7 2.5 7.9 3.7 3.3 2.6 5.7-6.6 14.6-7.7 7.6-12.2 14.1-12.3 17.9 0 .7-1.1 2.6-2.5 4.3-1.4 1.6-2.5 4.1-2.5 5.4 0 3.9-4.5 11.7-7.9 13.7-4.2 2.5-19.1 3.6-20.8 1.5-3.3-3.9-4.2-24.2-1.7-38.3 2.2-12.5 7.1-29.4 11.4-39 3.1-7.1 10-23.8 11.4-28 1-2.8 2.6-6.6 3.6-8.5s2.4-5.4 3.1-7.8 2.1-4.9 3.2-5.7c2-1.4 4.7-1 4.7.7m-30.7 139.5c-.7.2-2.1.2-3 0-1-.3-.4-.5 1.2-.5 1.7 0 2.4.2 1.8.5"/></svg>