<svg xmlns="http://www.w3.org/2000/svg" width="682.667" height="512" version="1.0" viewBox="0 0 512 384"><path d="M486.4 1.2c-3.1 1.4-3.6 5-4 24.2-.2 12.6-.7 17.4-1.8 19-.8 1.2-2.3 5.1-3.5 8.7-1.1 3.5-3.6 10.7-5.5 15.9s-4 11.1-4.6 13c-.7 1.9-1.6 4.3-2.1 5.2s-1.7 4.1-2.7 7c-1.1 2.9-4.1 9.8-6.7 15.3s-5.9 12.5-7.3 15.5-4.4 8.9-6.6 13c-2.3 4.1-5.2 10-6.6 13-1.3 3-3.1 6.4-4 7.5s-2.9 4.9-4.5 8.5-3.4 7.2-4.1 8c-1 1.2-5 8.6-16.8 30.5-.6 1.1-2.1 3.4-3.3 5.2-1.3 1.7-2.3 3.4-2.3 3.7s-1.3 2.7-3 5.3c-1.6 2.6-3 5.7-3 7 0 2.7 2.6 4.2 6 3.5 3-.6 7-.5 12.8.4 4 .6 4.5.4 7.7-3.1 1.9-2 3.5-4 3.5-4.5 0-3.1 19.5-40 28-53 .6-.8 1.4-2.4 1.9-3.5s2.9-5.4 5.3-9.5 5.6-10 7-13c15.4-32.2 20.8-44.3 20.8-46.7 0-.6.9-2.7 1.9-4.5 1.1-1.8 2.7-5.6 3.7-8.3 2.9-8.8 5.7-8.7 10.6.3 2 3.7 4.8 8.2 6.2 10.1l2.6 3.5V0l-11.7.1c-6.5 0-12.8.5-13.9 1.1"/><path d="M507.7 124.7c-2.1 4.7-3.3 8.8-3.5 13.1-.4 5.8-.7 6.5-3.8 8.9-2.6 2-3.4 3.3-3.4 5.8 0 1.8.7 3.8 1.6 4.5 3.9 3.3 3.7 4.8-1.2 10-2.6 2.8-7.5 7.1-11 9.5-7.1 5.1-13.7 12.9-15.5 18.3-2 6-7.1 11-18.1 17.6l-10.3 6.2-.8 5.3c-1.1 6.4 1 12.9 5 16.1 3.6 2.8 6.4 1.2 5.6-3.4-.4-2.7-.1-3.6 1.8-5 2.5-1.7 8.4-2.2 9.3-.8.8 1.3-4.8 12.4-7.5 14.9-3.1 2.8-13.4 6.7-23.2 8.7-16.4 3.4-44.7 1.2-88.2-6.9-12-2.2-14.2-2-17.6 1.6-2.2 2.3-2.9 4.1-2.9 6.9 0 2.2-.4 4.2-1 4.5-1.8 1.1-1.1 3.4 1.5 5.1 1.4.9 5.7 2 9.7 2.5 4 .4 9.6 1 12.3 1.4 13.3 1.5 34.5 3.7 48.5 5.1 15.1 1.4 26.3 3 22.8 3.3-1 0-1.8.5-1.8 1s-.8 1.1-1.7 1.4c-1 .3-4.4 1.5-7.6 2.6-3.2 1.2-9 2.8-13 3.6-4 .9-7.7 2.2-8.3 2.9-1 1.4-14.1 3.7-19.4 3.5-1.4 0-5.2.4-8.5 1-6.4 1.2-11.1 1.4-8.5.4.9-.4-.2-1.1-2.7-1.8-3.1-.9-5.5-1-9.5-.2-4.9 1-5.1 1.2-2.3 1.7l3 .7-2.5 1.1c-1.4.6-5.1 1.9-8.2 2.7-3.2.9-5.8 2-5.8 2.5 0 .4 2.6 2.3 5.8 4.1 5.1 3 6.5 3.3 12.7 3.2 3.9 0 13.3-1 21-2.2 7.7-1.1 21.3-3 30.3-4.1 8.9-1.2 19.3-3 23-4.2 18.6-5.7 40.5-20.7 50.2-34.4.8-1.1 4.2-3.9 7.5-6.1 16.9-11.5 25.7-27 28-49.3.9-8.3 1.4-9.4 7.5-16l5-5.5v-34.2c0-18.9-.2-34.3-.6-34.3-.3 0-1.9 3-3.7 6.7m-25.6 96.6c-1.5 1.6-2.4 1.8-3.2 1-1.6-1.6-.1-5.3 2.4-6.2 3.1-1.2 3.6 2.5.8 5.2m-230.1-97c-5.4 1.3-6 2-6 7.4 0 2.9.9 5.8 3 9.3 3.2 5.3 3.7 7.5 2 8.5-.5.3-1 1.3-1 2.1 0 .9-1.1 3-2.4 4.7-4.4 5.8-4.9 8.2-2.1 11.6 3 3.5 3.1 6.4.5 11.3-2.3 4.3-4.3 18.8-6.5 46.8-.9 10.7-1.9 22.2-2.2 25.4-.7 7 .6 8.6 6.9 8.6 4.5 0 7.8 2.8 7.8 6.5 0 2.2-.7 2.7-6 4.1-3.2 1-6.1 2.3-6.4 3.1-.7 1.8.9 5 3.2 6.2 4.3 2.3 30 1.7 32.5-.8.6-.6-.7-1.4-3.4-2.2-2.4-.7-4.9-1.6-5.5-2.1-1.8-1.3-4.9-13.7-3.8-14.8 1.2-1.2 4.5-1.4 11.2-.5l5.2.8v-3.8c0-2.1-.9-8.8-2-14.9s-2.9-16.5-4-23.2c-1.1-6.6-2.7-14.1-3.5-16.5-3.9-10.7-4.5-14.7-3-18.9 1.8-5.1 1-26.3-1.1-29.7-2-3.2-1.8-4 2.1-7.4 4.6-4.1 4.7-8.6.5-15.3-2.7-4.2-8-7.9-10.7-7.5-.4.1-2.8.6-5.3 1.2M509.8 281c-2.2 3-2.3 5.4-.3 7 2.2 1.8 2.7.9 2.3-4.6l-.3-4.9zm-5.8 22.1c-4.1 6.6-9.6 15.2-12.1 19.2-7.2 11.3-15.3 25.8-24 43-6.5 12.7-7.8 16.1-6.8 17.3.9 1.1 5.7 1.4 26 1.4H512v-46.5c0-25.6-.1-46.5-.2-46.5-.2.1-3.7 5.5-7.8 12.1"/></svg>