<svg xmlns="http://www.w3.org/2000/svg" width="682.667" height="512" version="1.0" viewBox="0 0 512 384"><path d="M500.5 1.4c-1.5 1.1-1.9 2.9-2.1 9.8-.2 4.8.3 10.9 1.1 14.3 1.9 8.1 1.8 10.7-.4 15.7-2 4.2-4 10-8.6 24.8-3.8 11.9-4.6 14.3-6.2 17.5-.8 1.6-2.3 5.5-3.3 8.5s-3.9 10-6.5 15.5-5.8 12.5-7.1 15.5c-1.4 3-2.8 6.2-3.3 7-.4.8-2.5 4.6-4.6 8.5-2.1 3.8-5.7 10.6-8 15-8.3 15.9-11.8 22.1-14.9 26.5-1.7 2.5-6.2 9.5-10.1 15.6-3.8 6.1-8.3 12.6-9.8 14.5-5.6 6.8-14.8 20.4-15.3 22.6-1.1 4.1 1.1 5.4 8.1 4.7 4.2-.4 6.5-.3 6.9.5 1.8 2.9 11.9 0 13.1-3.9.3-1.1 1.1-2 1.6-2s.9-.5.9-1c0-.6 1.2-2.3 2.6-3.8s3.5-4.5 4.6-6.7 2.3-4.2 2.7-4.5c.3-.3 1.3-1.7 2.1-3.2s6.3-9.9 12.3-18.7c5.9-8.8 10.7-16.3 10.7-16.7s1.1-2.2 2.5-4 2.5-3.7 2.5-4.2 1.3-2.7 2.8-4.8c5-7 24.2-47.2 30.2-63.4 1.8-4.7 4-10.4 5.1-12.8 1.8-4 1.9-7 1.9-46.2V0h-4.8c-2.7 0-5.7.6-6.7 1.4M252.2 123.5c-2.9.6-5.7 1.7-6.2 2.5-1.3 2-1.3 9.7 0 10.5.5.3 2 2.8 3.4 5.5 2.1 4.2 2.2 5 1 6.1-.8.6-1.4 1.9-1.4 2.8s-1.4 3.6-3 6c-3.6 5.2-3.9 9.5-.9 11.2 2.5 1.3 2.3 5.4-.6 12.9-2.5 6.6-4.1 20.1-6.1 49.9-1.9 30-2.2 28.4 6.3 29.7 4.5.7 6.3 2.5 6.3 6.3 0 2.4-.9 3-6.8 4.5-6.5 1.7-7.6 3.9-3.4 7.7 3.1 2.8 3.5 2.9 13.5 2.8 12.7-.1 19.9-1 20.4-2.6.3-.8-1-1.5-3.5-1.9-2.2-.3-4.4-.9-5-1.3-1.5-.9-4.6-13.5-3.9-15.6.6-1.5 1.6-1.7 8.2-1 6.1.5 7.6.4 8.1-.8.3-.8-.8-8.8-2.5-17.8-1.6-9-3.3-19.1-3.6-22.4-.4-3.3-2.1-10.5-3.7-16-1.7-5.5-3-12.2-2.9-15 .2-25.8-.1-33-1.6-35.8-1.5-2.9-1.4-3 2.6-6.7 2.4-2.2 4.1-4.7 4.1-5.9 0-5.6-6.9-15.3-11.5-16.2-1.1-.3-4.4 0-7.3.6m258 25.7c-1.7 1.7-1.5 7.3.3 8.8 1.3 1.1 1.5.5 1.5-4.4 0-3.1-.1-5.6-.3-5.6s-.8.5-1.5 1.2"/><path d="M507 170.3c-2.5 2.4-7.7 6.7-11.6 9.5-8.6 6.2-13.2 11.6-17.4 20.5-3.7 8-6.7 10.7-15.7 14.1-3.7 1.5-9.9 4.4-13.8 6.5-6.1 3.4-7 4.2-7.3 7-.5 5.9-.4 8.6.3 11.6.9 3.6 6.2 9.5 8.6 9.5s4.2-2.6 3.7-5.5c-.3-1.4 0-3.1.6-3.9 1.5-1.8 16.4-6.6 18.3-5.9s1.3 5.5-2 16.2c-3.8 12.6-10.6 18.1-29.4 23.7-12.9 3.8-33.5 4.3-62.2 1.5-11.7-1.2-21.7-2.3-22.1-2.6-.3-.2-4.4-.7-9.1-1l-8.4-.6-3 3.6c-2.7 3.3-3 4.4-3.1 11.1 0 7.3 0 7.4 3.2 8.9 2.5 1.2 9.8 1.7 32.1 2.5 52.8 1.7 56.7 2 57.7 3 1.7 1.7-2.7 4.5-12.4 7.9-10.6 3.8-18.8 6-26.5 7.2-3.3.6-7.1 1.2-8.5 1.5-1.4.2-7.4 1.3-13.5 2.4-6 1.1-12 2.5-13.2 3.2-2.4 1.2-3.1 2.8-1.3 2.8 2.6 0 .4 2-5 4.6-3.3 1.5-6 3.2-6 3.6 0 .5 2.4 2 5.3 3.3 2.8 1.4 6.3 3.2 7.7 4.1 3.4 2 9.4 1.3 26.1-3.1 7.4-2 15.9-4.2 18.9-4.9 14.9-3.5 29.3-8.2 36.4-11.7 6.9-3.4 18.8-12 23.6-16.9 4.7-5 13.9-16.1 16.5-20 1.6-2.5 7.1-8.6 12.1-13.5 15.2-15.1 20.8-25.5 23.8-44.3 1-6.6 2.3-60.2 1.4-60.2-.2 0-2.3 2-4.8 4.3m-12.2 51.8c.3 2.9-2 6.5-3.6 5.5-1.6-.9-1.5-5.9 0-7.4 1.7-1.7 3.3-.9 3.6 1.9m9.7 116.7c-3.8 6.4-10.5 18.6-14.8 27-6.4 12.4-7.7 15.5-6.7 16.7s4.2 1.5 15.1 1.5H512v-28.5c0-15.7-.1-28.5-.2-28.5-.2 0-3.4 5.3-7.3 11.8"/></svg>