<svg xmlns="http://www.w3.org/2000/svg" width="682.667" height="512" version="1.0" viewBox="0 0 512 384"><path d="M510.3 63c-1.4 5.3-4.1 13.7-5.4 16.5-.5 1.1-1.8 4.9-3 8.5-1.1 3.6-4.8 12.6-8.1 20s-6.9 15.5-8 18-2.5 5.4-3.1 6.5-4.3 8.3-8.2 16-8.3 15.9-9.8 18.2c-1.5 2.4-2.7 4.6-2.7 5.1 0 2.1-32.3 47.7-37 52.2-4.1 3.9-13.1 16.8-13.6 19.5-1.1 6-.2 6.8 6.6 6 4.7-.5 6.6-.4 8.5.9 2.9 1.9 4.8 2 9 .5 2.8-1 3.8-.9 7.8 1.1 2.6 1.3 4.7 2.7 4.7 3.2 0 1.5 6 .9 6.1-.7.1-.8.3-2 .4-2.5.1-.6.3-1.9.4-2.9.2-3.2 2.6-4.7 9.3-6.1 3.5-.7 8-2.1 10-3.2 8.1-4 10.1-2.1 9.2 8.7-1.9 21.2-8 34.8-18.1 40.3-13 7-19.1 9-34.3 11.4-9.9 1.5-46 1.7-66.1.4l-13.6-.9-2.7 5.5c-2.2 4.5-2.5 5.9-1.6 8.2.5 1.5 1 4.7 1 7.1 0 6.3 2.7 7.5 16.3 7.5 11.6 0 61.3-2.7 66.5-3.6 4.4-.7 9.2.4 9.2 2.2 0 .8-.5 1.4-1.1 1.4s-2.5 1.1-4.2 2.4c-4.5 3.4-18.4 9.7-30.7 14.1-5.8 2-12 4.3-13.8 5.1-1.8.7-5.1 1.7-7.5 2-2.3.4-4.6 1-5.2 1.4-.5.4-2.2 1-3.7 1.4-2.4.5-2.8 1.2-2.8 4s-.6 3.8-3.4 5.5c-1.9 1.2-3.7 2.8-4 3.6-.5 1.5 2.8 4.5 5.1 4.5.7 0 3.8 1.4 6.9 3.1 4.6 2.7 6.1 3 9.6 2.5 4.5-.7 13.8-4.3 25.8-9.9 4.1-1.9 10.4-4.7 14-6.2 14.1-5.9 27.8-13.9 35.5-20.7 11.4-9.9 18.4-19.5 31-42.7.8-1.3 3.1-4.2 5.2-6.5 5.9-6.2 14.2-17.4 14.8-19.9.3-1.2.4-22.8.3-48l-.3-45.8-6.5 4.7c-8.8 6.3-14.3 12.5-18.7 21.2-5.8 11.2-8.5 13.3-20.6 15.7-3.4.7-3-4.2.7-8.1.6-.6 1.8-2.2 2.6-3.4s2.8-4.1 4.5-6.4c10.9-15.1 20.4-31.1 29.6-49.7 2.9-5.7 6-12 7-14.1 1.8-3.4 1.9-6.1 1.7-41.5-.3-31.2-.5-37-1.5-33.3m-5 162.3c1 2.5-.5 6.7-2.3 6.7-2.1 0-3.3-3.6-1.9-6.2 1.1-2.1 3.5-2.4 4.2-.5m-255-102.6c-1.9.3-3.9 1.4-4.8 2.6-1.9 2.8-1.9 9.1 0 10.7.8.7 2.4 3.3 3.5 5.7 2 4.4 1.9 4.6-.9 9.9-.3.6-1.8 3-3.3 5.2-3.3 4.9-3.5 8.2-.8 10.7 2.5 2.3 2.5 5.8-.1 11.5-2.8 6.1-5.6 28.5-6.9 55.3-.7 15.1-.7 22.3 0 23.7.6 1.1 2.6 2.2 4.8 2.6 5.6 1 8.2 3 8.2 6.3 0 3-1.3 3.8-9 5.8-4.4 1.1-5 3.6-1.5 7.1 2.3 2.3 3.8 2.8 9.9 3.2 3.9.3 11.2 0 16.1-.7 10.6-1.4 9.5-1.1 9.5-2.2 0-.6-2-1.3-4.5-1.6-2.4-.4-4.8-1.2-5.3-1.9-1.5-1.9-4.4-13.7-3.8-15.3.5-1.3 1.9-1.5 8.2-1 6 .4 7.6.3 8.1-.9.3-.8-.6-7.8-2.1-15.7-1.4-7.8-3.2-18.7-4-24.2s-2.7-14.1-4.2-19c-2.8-9.5-2.9-10.9-2.3-32.5.2-11 0-14.1-1.3-16.7l-1.6-3.3 3.9-3.1c3.2-2.5 3.9-3.7 3.9-6.5 0-4.5-3.1-10.4-7-13.8-3.1-2.6-4.9-2.9-12.7-1.9m256.9 250.9c-3.6 7.4-3.6 7.6-1.8 9 1.1.8 3 1.4 4.3 1.4 2.2 0 2.3-.3 2.3-9 0-5-.2-9-.5-9s-2.2 3.4-4.3 7.6"/></svg>