<svg xmlns="http://www.w3.org/2000/svg" width="682.667" height="512" version="1.0" viewBox="0 0 512 384"><path d="M511.2 116c-.1.8-1.5 4.3-3.2 7.7-1.6 3.5-2.8 6.3-2.6 6.3.5 0-18.7 37.9-24.3 47.9-2.8 5.1-8.7 14.3-13.1 20.5-4.4 6.1-9.6 13.5-11.7 16.4-2.1 3-7.2 9.3-11.3 14.2-17.4 20.4-22 27.8-20.6 33.4l.7 2.8 6.8-.7c5.4-.5 7-.4 8 .9 2 2.3 6.5 2.9 10.5 1.2 2.6-1.1 4.7-3.2 7.3-7.5 4.3-6.8 6.4-8.3 15-10.5 3.5-.9 7.8-2.6 9.7-3.7 2-1.1 4.8-1.9 6.3-1.7 3.6.4 4 2.4 4.2 19 .1 10.5-.4 14.7-2.5 24-1.5 6.1-3.2 12.5-3.9 14.2-1.6 3.7-6.7 9.3-11.5 12.8-3.8 2.7-16.7 8.6-21.5 9.8-1.6.5-6.4 1.7-10.5 2.9-11.2 3-38.9 6.1-54.8 6.1-18.7 0-20 .3-22.3 5.4-2.2 5-2.4 9.5-.4 12.2.8 1 1.5 3.8 1.5 6 0 3.4.5 4.5 2.7 5.9 2.3 1.5 4.1 1.7 13.1 1.1 10.4-.6 23.1-2.3 37.2-5.1 11.7-2.3 26.4-4.5 29.9-4.5 3.9 0 4 1.8.4 5.2-4.1 3.8-25.2 17.8-26.9 17.8-.8 0-1.4.4-1.4 1 0 .5-.7 1-1.5 1s-1.5.8-1.5 1.8c0 2.9 8.1 4.2 25.4 4.2 17.8 0 17.8 0 30-11.8 12.3-12.1 21.8-26.7 28.1-43.5 3.2-8.7 5.9-14 7.9-15.6 1.4-1.2 1.6-8.3 1.6-64.6 0-45.8-.4-63.5-1.2-63.7-.8-.3-.8-1 .1-2.6.8-1.5 1-11.5.8-34.9-.1-18-.3-32.1-.5-31.3m-263.4 6.7c-4.4.7-6.4 8.9-3 12.7 3 3.4 5.9 10.9 4.4 11.4-.6.2-1.2 1.4-1.2 2.7s-.4 2.6-.9 3c-1.6.9-7.1 9.5-7.1 10.9 0 .7 1.1 2.3 2.5 3.6 3 2.8 3.1 5 .6 10.4-1.9 4.1-2.9 9-5.7 28.1-1.6 11.4-3.7 50.6-2.8 52.9.3.9 3.4 2.4 6.8 3.4 4.4 1.3 6.4 2.5 7.3 4.2 1.8 3.6.1 5.4-6.6 7.3-5.3 1.5-6.1 2-6.1 4.1 0 1.6 1.1 3.2 3 4.6 2.7 1.9 4.3 2.1 14.8 2 18-.1 24.8-2.1 15.3-4.5-2.2-.6-4.3-1.4-4.8-1.8-.4-.5-1.5-3.9-2.4-7.5-2.1-8.7-1.3-9.6 7.9-8.8 4.8.4 6.4.2 6.8-.9.3-.7-.6-7.8-2-15.7s-3.2-19-4-24.8-2.6-14.3-3.9-19c-3.6-12.5-3.6-13.2-2.7-30.4.8-13.2.7-16.4-.6-19.4-1.3-3.2-1.3-3.7.2-5.4 1-1 2.3-1.8 3-1.8s1.9-1.8 2.5-4c1.5-4.8 0-8.7-5.3-14.5-2.8-3.2-3.6-3.5-8.2-3.4-2.8.1-6.3.4-7.8.6"/></svg>