<svg xmlns="http://www.w3.org/2000/svg" width="682.667" height="512" version="1.0" viewBox="0 0 512 384"><path d="M248 121.9c-2.9.5-3.7 1.2-4.7 4.1-1.6 4.8-1.6 7.5.2 9 2.7 2.2 5.8 10.1 4.6 11.3-.6.6-1.1 2.1-1.1 3.4s-.4 2.3-.9 2.3c-1.2 0-7.1 9.6-7.1 11.5 0 .8.9 2.3 2 3.2 2.4 2.1 2.7 8.8.6 11.9-.8 1.1-1.7 4.2-2.1 6.9-.4 2.8-1.3 7.2-2.1 10-2.2 8.2-4.4 30.9-4.6 48.5l-.3 16.4 3.5 1.8c1.9.9 4.6 1.7 6 1.8 3.5.1 4.9 1.2 6 4.8.8 2.9.6 3.4-1.9 4.6-1.4.8-4.4 1.7-6.4 2.1-3.4.7-5.7 2.8-5.7 5.3 0 .6 1.8 1.9 4 3.1 3.4 1.7 5.7 2.1 13.8 2 15.3-.1 26.4-3.4 16.9-5-5.2-.8-6.2-2-7.6-9.5-1.6-8-1.3-8.4 7.7-8.4h6.2v-4.3c0-2.3-.9-8.9-1.9-14.7-1.1-5.8-2.6-15.9-3.5-22.5s-2.7-15.8-4.2-20.5c-2.9-9.7-3.2-14-2.1-33.5.6-11.6.4-14.5-.8-16.9-1.4-2.6-1.4-3.1.1-4.8 1-1 2.3-1.8 3.1-1.8 1.6 0 3.3-4 3.3-7.9 0-3.2-4.8-11.1-8.1-13.5-2.4-1.6-6.5-1.9-12.9-.7m262.4 47.4c-8 15.6-13.1 24.3-20.3 35.2-4.8 7.1-9.5 14.3-10.5 15.9-3.3 5.3-9.5 11.2-13.3 12.9-2.1.9-8.3 3.2-13.8 5.2-12.8 4.6-14.5 5.8-14.5 9.5 0 1.6-.5 4.1-1.2 5.6-1.1 2.3-1 2.8.9 4.3 2.2 1.9 3.7 8.6 3.4 15.6-.1 2.2.4 5 1.1 6.3 1.1 2.2 1.6 2.3 7.4 1.7 5.4-.6 6.6-.4 9.2 1.5 3.4 2.6 6.3 2.3 10.5-1 2.1-1.7 13.6-16.8 19.7-26 5-7.6 8.4-9.7 10.8-6.7 1.9 2.2 4.2 19.6 4.2 31.4 0 16-2.7 40.9-5 45.3-5.2 10.2-25.1 22.8-47 29.8-10.3 3.3-25.9 7.2-33 8.2-3.6.5-11 1.5-16.5 2.3-5.6.8-11 1.9-12.1 2.5-1.9 1-4.4 6.9-4.4 10.4 0 .8.8 2.3 1.9 3.2 1.7 1.5 5 1.6 39.7 1.2 50.6-.7 48.1-.7 62.8 0s16.2.2 19.5-5.6l2.1-3.8-.2-103.5c-.2-77.7-.6-103.1-1.4-101.4"/></svg>