<svg xmlns="http://www.w3.org/2000/svg" width="682.667" height="512" version="1.0" viewBox="0 0 512 384"><path d="M242.5 125.3c-1.9 4.8-1.9 8.1 0 9.7.8.7 2.4 3.3 3.5 5.8 1.6 3.5 1.8 4.8.8 5.9-.6.8-1.2 2.2-1.3 3.1-.1 1-1.8 3.9-3.8 6.5-4.2 5.5-4.6 8.5-1.7 11.2 2.2 2 2.5 5 .9 9.2-.6 1.5-1.5 4.1-1.9 5.8-.5 1.6-1.5 5.5-2.4 8.7-3.2 11.8-7.5 49.5-7.6 66.4 0 4 .2 4.2 4.9 6.3 2.7 1.1 5.8 2.1 6.8 2.1 3.2 0 6.3 2.9 6.3 5.9 0 2.4-.7 3.1-4 4.5-2.2.9-4.9 1.6-5.9 1.6-2.7 0-6.6 5-4.9 6.2.7.4 2 .8 2.9.8s2.2.7 2.9 1.5c2.4 2.8 28.9 1.5 32.5-1.7 1.3-1.2-1.3-2.8-4.6-2.8-2.8 0-4.6-1.5-4.7-4-.1-.8-.7-3.6-1.3-6.2-.7-2.7-1-5.1-.7-5.4.4-.3 3.7-.9 7.5-1.2l6.8-.7V260c-.1-2.5-1-10.8-2.2-18.5s-2.7-18-3.3-22.8-2.2-12.7-3.6-17.5-2.5-10.7-2.5-13.2c.2-12.4.7-20.9 1.1-21.3 1.4-1.4.2-13.5-1.6-16.6-1.6-2.8-1.7-3.3-.4-4.1.8-.5 2.2-1 3.1-1 1.7 0 4.9-5.5 4.9-8.4 0-2.6-3.8-9-7.3-12.4-3.3-3.2-3.6-3.3-10.5-3l-7.2.3zM507 218.6c-5.8 9.9-10.6 15.4-13.3 15.4-8.3 0-47.1 11.7-52.7 15.8-1.5 1.1-2.6 3.1-2.8 4.8-.1 1.6-.8 4-1.5 5.3-1 2-.8 2.6 1.5 4.5 1.4 1.1 2.9 3.2 3.3 4.6.9 3 2.2 4 5.2 4 1.2 0 3.8 1.4 5.8 3.1 1.9 1.7 4.1 2.9 4.9 2.6s2.1-3 3-6c1.8-6 3.8-8.3 8.7-9.7 7.7-2.2 9.1 2 3.1 9.7-9.2 11.7-11 16.1-9.1 22 1.3 3.9 2.9 4.6 8.3 3.1 3.9-1 4.7-.9 7.8 1 7.5 4.6 10.9 2.5 21.8-13.3 4.8-7 7.9-10.5 9.1-10.5 1.8 0 1.9-1.4 1.9-32 0-17.6-.1-32-.3-32-.1 0-2.2 3.4-4.7 7.6m-.5 141.9c-2.7 2.9-8.9 8.2-13.7 11.7s-8.8 7-8.8 7.8c0 2.4 7.6 4 18.5 4h9.5v-14.5c0-8-.1-14.5-.2-14.5-.2 0-2.5 2.5-5.3 5.5"/></svg>