<svg xmlns="http://www.w3.org/2000/svg" width="682.667" height="512" version="1.0" viewBox="0 0 512 384"><path d="M249 121.1c-1.4.5-3.2.8-4.2.6-1.1-.3-2.2.6-3.2 2.8-2.2 4.5-2 8.8.3 10.9 1.1 1 2.3 3.1 2.6 4.7.4 1.6 1.3 3.6 2.1 4.4 1.3 1.2 1.2 1.5-.5 2.5-1.1.6-1.8 1.6-1.5 2.3.2.7-.9 3.1-2.6 5.3-1.6 2.1-3.7 4.8-4.5 5.9-2.2 2.8-1.8 5.2 1.1 7.2 2.3 1.5 2.5 2.1 1.9 5.7-.3 2.3-1.3 5.1-2.1 6.3-.7 1.2-1.4 3.1-1.4 4.1 0 2.4-2.6 8.9-3.9 9.7-.6.3-1 2.7-.9 5.3s-.8 11-2 18.7c-2.1 14-4.2 34.4-4.2 42.1 0 3.8.3 4.1 4.6 6.2 2.5 1.3 6.6 2.5 9.1 2.9 3.5.5 4.7 1.1 5.4 3 .5 1.3.9 2.8.9 3.3 0 1.9-3.2 3.9-8 4.9-5.1 1.1-10 3.6-10 5.2 0 .4 1.8 1.3 4 1.9 2.1.6 4.1 1.4 4.4 1.9 1.4 2.2 20 1.8 29.6-.6 4.7-1.2 4.6-3.6-.3-4.4-4.2-.7-4.6-.9-5.2-3.5-.2-1.1-1-3.9-1.6-6.3-1.4-5.2-1-5.7 7.3-6.6l5.8-.7v-4.3c0-2.4-.9-10.4-1.9-17.7-1.1-7.3-2.2-16.7-2.6-20.8s-2-12.7-3.6-19c-3.9-14.9-4.2-17-2.6-21.6.9-2.6 1.3-8.5 1.2-17.1-.1-12-.3-13.5-2.3-16.3l-2.3-3 2.3-.9c1.3-.5 3.1-1.2 4.1-1.5 1.9-.6 3.7-4.5 3.7-8.2 0-2.6-5.4-11.9-8.2-14.2-2.2-1.8-7.8-2.4-10.8-1.1m259.7 111c-3.1 4.6-7.5 6.8-15.1 7.6-6.8.7-20.5 4.3-35.7 9.4-16.1 5.3-17.9 6.4-17.9 10.6 0 1.7-.4 4.3-1 5.8-.9 2.3-.7 2.8 2 4.3 1.8 1 3 2.5 3 3.7 0 3.1 1.9 4.5 6.2 4.5 2.8 0 4.4.7 6.2 2.7 3.2 3.4 5.1 3.7 6.3.9 5.8-13.3 8.4-15.2 22.5-16.7 5.1-.6 12-1.9 15.2-3 3.3-1 7.2-1.9 8.8-1.9h2.8v-16c0-8.8-.1-16-.2-16-.2.1-1.6 1.9-3.1 4.1m-2.7 39.7c-3 4.8-6.3 10.2-7.3 12-1 1.9-2.7 4.4-3.8 5.6-1.2 1.1-3.4 4.8-5.1 8-3.4 6.7-3.3 11.5.2 15 1.8 1.9 2.4 1.9 6.6.8s5-1.1 8.1.8c1.9 1.1 4.3 2 5.4 2 1.8 0 1.9-.9 1.9-26.5 0-14.6-.1-26.5-.2-26.5-.2.1-2.8 4-5.8 8.8"/></svg>