<svg xmlns="http://www.w3.org/2000/svg" width="682.667" height="512" version="1.0" viewBox="0 0 512 384"><path d="M229.7 120.5c-.6 1.1-1.3 2.7-1.4 3.5-.2.8-.6 2.9-.9 4.7-.5 2.4-.1 3.6 1.6 5.3 1.2 1.2 2.3 2.7 2.4 3.4.1.6.7 2.1 1.4 3.3s1.2 2.9 1.2 3.7c0 .9.5 1.6 1 1.6 1.9 0 1 1.8-1.1 2.3-1.5.4-1.9 1.1-1.5 2.4.4 1.2-.2 2.8-1.6 4.3-4 4.3-7.8 10.4-7.8 12.7 0 1.3 1.1 2.9 2.5 3.9 3.2 2.1 3.4 8.4.5 13.2-1.1 1.8-2 4.4-2 5.8 0 1.7-1.2 3.7-3.4 5.8-4.2 3.8-5.5 8-3.1 9.4 1.6.8 1.6 1.5.1 10.8-2.9 17.5-6.6 49.4-6.6 56.5v6.8l4.5 2.6c2.5 1.5 5 2.8 5.7 2.9 10.7 2.1 16.7 6.2 13.6 9.2-1.4 1.4-11 3.9-19 4.9-3.8.5-4.8 1-4.8 2.5 0 1.9 3.4 3.4 9.9 4.4 1.9.3 3.8 1.2 4.3 2 .7 1.3 3.1 1.5 13.1 1.5 17.7-.1 26-2.5 22.7-6.4-.7-.8-3-2-5.1-2.5-3-.8-4-1.7-4.5-3.8-.3-1.5-1.2-3.9-2-5.4-.8-1.6-1.4-2.8-1.2-2.9.2 0 1.7-.3 3.3-.5 1.7-.3 4.9-1.4 7.3-2.4 3.9-1.7 4.2-2.2 4.2-5.7 0-2.1-.5-6.7-1-10.3s-1.7-15.1-2.5-25.5c-1.1-14.3-2.3-22-4.6-31-1.7-6.6-3.1-13.5-3-15.3 0-1.8 1.5-6 3.2-9.4l3.1-6.1-1.7-6.3c-.9-3.5-1.4-6.7-1.1-7.3.4-.5.2-1.2-.3-1.5-.5-.4-.7-2-.4-3.7.5-3.5-2-11-4.3-12.9-.7-.7-1.4-1.7-1.4-2.1 0-1.1 4.8-3.2 7.1-3.1 1.6.1 3.9-5.4 3.9-9.2 0-2.6-4.7-10.8-8.5-15l-3.4-3.8-8.6.4c-7.4.3-8.8.6-9.8 2.3m18.3 59.9c0 1.3-.8 3-1.7 3.7-1.5 1.2-1.6 1.2-1-.4.4-1 .7-2.7.7-3.8 0-1 .5-1.9 1-1.9.6 0 1 1.1 1 2.4M506 254c-3 1.1-8.1 2.6-11.2 3.5-7.4 2.1-9.7 4-10.9 9.3-1.1 5.1-.1 7.7 3.6 8.6 1.5.4 2.7 1.6 3.1 3.1 1 4 2.7 4.8 7.5 3.4 4.1-1.3 4.2-1.2 7 1.9 3.4 3.8 5.6 4.1 6.4.9.3-1.2.4-9 .3-17.4l-.3-15.1z"/></svg>