<svg xmlns="http://www.w3.org/2000/svg" width="682.667" height="512" version="1.0" viewBox="0 0 512 384"><path d="M273 154.6c-5.5 2-22.4 13-30.2 19.7-5.2 4.4-6.3 4.9-5.9 2.4 0-.4-.6-.7-1.6-.7-.9 0-1.4-.3-1.1-.6.4-.3-.1-1.3-1-2.3-.9-.9-2.5-2.8-3.4-4.1-1.4-2-1.6-2.1-1.2-.5.4 1.5.1 1.4-1.6-.8-2.5-3.2-4.6-3.5-5.5-.7-.7 2.3.8 5.5 4.3 9 1.3 1.4 3.6 4 4.9 5.8l2.5 3.2-6.8 7.5c-16.8 18.4-20.2 25.1-19 37.7 1.2 13.3 7.5 24.8 20.9 38.4 4.5 4.5 11.7 10.7 16 13.7 18 12.9 41.8 17.3 55.5 10.3 6.3-3.2 17.7-14.6 19.2-19.2.9-2.5 1.8-3.4 4.3-3.9 7.1-1.5 15.9-9.1 19.6-16.8 1.1-2.3 2.5-8 3.1-12.7 1-7.1.9-9.9-.4-16.7-3.6-18.9-12.9-36.1-28-52-8.1-8.5-11.1-10.9-17.4-14-6.5-3.2-8.7-3.8-15.1-4.1-5-.1-9.1.3-12.1 1.4"/></svg>