<svg xmlns="http://www.w3.org/2000/svg" width="682.667" height="512" version="1.0" viewBox="0 0 512 384"><path d="M227.5 114c-1.1.4-3.1.6-4.5.3-2.1-.4-2.8.1-4.1 2.9-2.6 5.5-2.4 11.1.6 14.6 1.4 1.6 2.5 3.3 2.5 3.6s1.1 2.8 2.4 5.5l2.3 4.9-2.4.7c-1.8.4-2.3 1-1.8 2.4.4 1.2-1.1 4.3-4.5 9.2-5.8 8.4-6.5 12.3-2.5 14.1 2.2 1 2.5 1.7 2.5 6.5 0 3.1-.7 6.8-1.7 8.6-.9 1.8-1.7 4.3-1.9 5.7-.3 3.3-3.2 10-4.3 10-1.6 0-3 5.5-1.9 7.4.6 1.1.6 3.4-.1 6.4-2.5 11.9-6.1 48.6-6.1 62.8v11.2l5.8 2.7c3.1 1.6 6.6 3.3 7.7 3.8 1.1.6 4 1.5 6.5 2.2 3.5.9 4.7 1.7 5.5 3.9.8 2.3.6 3-.8 4.1-2.2 1.6-14.6 4.5-19.2 4.5-3.6 0-6 2.1-5.2 4.4.3.8 2.5 2 4.9 2.6 2.4.7 6.2 2.1 8.6 3.2 3.4 1.6 5.2 1.8 10 1.2 6.1-.8 9.4-.6 10.2.5.8 1.3 9 1.2 13.1-.1 2.1-.6 4.6-2.2 5.5-3.6 1.6-2.4 1.6-2.6-.6-4.4-1.2-1-2.8-1.8-3.6-1.8-2.4 0-5.4-3.3-6-6.7-.3-1.8-1-3.6-1.5-3.9-2.2-1.3-.5-3.1 4.1-4.3 2.8-.7 5-1.7 5-2.3 0-.5.4-.7.9-.3 1.5.9 4.1-2.4 4.1-5.3 0-1.5-.6-9.2-1.4-17.2s-2-20.9-2.6-28.6c-1.1-14.1-4.4-31.7-7.3-38.6-.8-2-1.3-3.9-1-4.2s1.6-3.3 2.8-6.8 2.8-7.8 3.6-9.6c1.2-2.9 1.1-3.9-.9-9.9-1.6-4.4-2-6.9-1.3-7.6.6-.6.5-1.4-.5-2.4-.8-.8-1.4-2.9-1.4-4.7 0-4.1-2.5-10.3-5.3-13.3l-2-2.3 3.7-1.5c2-.9 4.1-1.3 4.6-1s1.6-.5 2.4-1.7c2.3-3.2 2.1-11.7-.4-14.8-1.1-1.4-2-2.9-2-3.3 0-1.6-5.6-7.9-8.2-9.3-2.9-1.5-9.1-1.8-12.3-.4m12.7 70.5c-1.6 2.9-1.7 2.9-2 .6-.2-1.2-.1-3.4.3-4.8.6-2.4.7-2.4 2-.7 1.1 1.6 1.1 2.3-.3 4.9M508 260.8c-3.9 3.2-4.4 14.2-.6 14.2.8 0 2.2.7 3 1.6 1.5 1.4 1.6.7 1.6-8 0-5.3-.4-9.6-.9-9.6s-1.9.8-3.1 1.8"/></svg>