<svg xmlns="http://www.w3.org/2000/svg" width="682.667" height="512" version="1.0" viewBox="0 0 512 384"><path d="M224.3 112c-1.2.5-3.3.7-4.6.4-3.3-.5-5.7 3.2-6.4 9.9-.4 4.4-.1 5.7 1.8 8.1 1.2 1.6 3.5 5.5 5.1 8.8l2.7 5.9-2.5 1c-2 .7-2.3 1.3-1.6 2.2.8.9-.4 3.4-4.4 9.2-6.3 9.3-6.7 11.9-2.3 15.8 3 2.6 3.1 3.1 2.6 7.8-.4 2.8-1.2 5.7-1.8 6.5s-1.3 2.8-1.5 4.4c-.2 1.7-1.1 4.4-1.9 6-.9 1.7-1.3 3.5-1 4.1.4.5-.4 1.8-1.6 2.8-1.8 1.4-2.3 2.9-2.4 7.2-.1 3-1.2 11.9-2.3 19.9-2.6 17.5-4.2 37.8-4.2 51.6 0 8.4.3 10.6 1.7 12 2.4 2.3 11.5 6.4 18.8 8.4 5.5 1.6 6 1.9 6.3 4.7.3 2.6-.2 3.1-3.5 4.5-2.1.9-7.2 2.1-11.3 2.8-12.1 1.8-12.2 1.8-11.8 4.3.6 3.9 12.4 8.1 23.4 8.1 5.4.1 8.7.6 9.8 1.5 2.1 1.8 13.2.9 17.6-1.4 3.8-2 5.1-6.2 2.5-8.2-1.1-.7-2.5-1.3-3.2-1.3-3.1 0-6.2-3.2-6.8-7.1-.4-2.1-1.1-4.1-1.6-4.5-1.7-1-.9-2.2 1.9-2.9 6.5-1.6 12.2-4.8 12.8-7.1.3-1.3.1-6.8-.5-12.1-.6-5.4-1.8-18.6-2.6-29.3-1.5-21.2-4-34.9-9.2-51.1-.2-.9 0-2 .6-2.3.6-.4 1.1-1.7 1.1-2.9s1.4-5.3 3-9.1l2.9-6.9-2.3-7.1c-1.6-4.6-2.1-7.5-1.5-8.3.6-.7.6-1.2-.1-1.5-.6-.2-1.4-2.4-1.7-4.8-.7-5.5-4.8-15-6.4-15-.8 0-.8-.4.1-1.5.7-.8 2.1-1.5 3.1-1.5 1.1 0 1.9-.4 1.9-.9s.8-.7 1.9-.4c2.3.6 2.9-.3 4.1-6.4.8-4.3.6-5.4-1.8-10.2-6.2-12.5-14.4-17.5-22.9-14.1m13.7 70.4c0 1.2-.7 3.1-1.5 4.2-1.4 1.8-1.4 1.7-1.5-1.3 0-3.9.9-6.5 2.1-5.7.5.3.9 1.5.9 2.8m272.9 83.8c-.1 1.3-.3 3.3-.4 4.6-.1 1.2.2 2.5.6 2.8.5.3.9-1.8.9-4.5 0-5-.9-7.2-1.1-2.9"/></svg>