<svg xmlns="http://www.w3.org/2000/svg" width="682.667" height="512" version="1.0" viewBox="0 0 512 384"><path d="M210.6 114.8c-2.2 6.3-2 11.5.4 14.4 1.1 1.2 3.5 5.3 5.3 9l3.3 6.7-2.7.6c-2.4.6-2.7 1-2.3 3.3.4 2-.1 3.3-2 5.1-1.4 1.4-2.6 3-2.6 3.6s-1.1 2.6-2.5 4.5c-3.4 4.7-3.3 8.4.5 11.2 2.5 1.8 3 2.9 3 6.5 0 2.4-.8 6-1.7 8.1-.9 2-1.8 4.7-1.9 5.9s-1 3.5-1.9 5.3c-.9 1.7-1.3 3.5-1 4s-.2 2.1-1.1 3.5c-4.5 7-12 75.4-9.7 88.9.8 4.9.8 4.9 8.3 8.7 4.1 2.1 9.9 4.3 12.8 4.9 5.5 1.2 7.8 3.5 6.7 7-.8 2.5-5.7 3.9-19.5 5.6-7.7.9-9 1.5-9 3.8 0 3.1 1.5 4.2 7.5 5.6 2.8.6 6.2 1.8 7.6 2.6 1.9 1 5.6 1.3 12.5 1.2 6.8-.1 9.9.2 10.2 1 .5 1.7 9.4 1.5 14-.4 4.6-1.8 7.2-5.6 5.6-8.2-.6-.9-3.1-2.3-5.6-3.1-4.7-1.4-6.8-4-6.8-8.1 0-1-.4-2.2-1-2.5-2.4-1.5-.5-3.2 6-5.4 3.9-1.3 7.4-2.9 7.9-3.5 1.6-2.1 1.9-7.1 1-15.6-.5-4.7-1.8-18.9-2.9-31.5-1.4-17.1-2.7-26.2-5-35.3-1.6-6.8-3.4-13.1-4-14.1-.5-1-.5-2.2-.1-2.7.5-.5 1.4-3.3 2-6.3s2-7.4 3.1-9.9l2-4.4-2.5-7.5c-2-5.8-2.3-7.8-1.4-8.9.8-1 .8-1.4.1-1.4-.6 0-1.4-1.7-1.7-3.8-1-6.1-2.8-11.4-5.3-15-1.7-2.6-2-3.7-1.1-4.3.7-.4 1.8-.5 2.5-.2.6.2 1.5 0 1.8-.6.4-.6 1.2-.8 1.9-.5 1.6.6 4.3-4.1 5-9 .7-4.6-3.2-12.7-9.3-19.4-3.9-4-4.2-4.2-10.1-4.2-3.3 0-6.9.5-8 1-1 .6-1.9.7-1.9.3s-1.1-.9-2.4-.9c-2.1-.2-2.7.6-4 4.4m23.8 69.6c-.3 1.4-1 2.9-1.5 3.2-1 .6-1.2-5.9-.2-7 1.3-1.3 2.4 1.1 1.7 3.8"/></svg>