<svg xmlns="http://www.w3.org/2000/svg" width="682.667" height="512" version="1.0" viewBox="0 0 512 384"><path d="M202.6 109.7c-3.5 7.4-3.9 13.9-.8 16.3 1.2 1 1.8 2 1.5 2.4-.4.3.2.6 1.1.6q1.8 0 1.2 1.5c-.3.9.8 4 2.4 7 1.7 3.1 3 5.7 3 5.9s-1.2.7-2.6 1c-2.1.6-2.5 1.1-2 2.8.5 2.3-2.8 8.8-4.5 8.8-.5 0-.9.9-.9 1.9 0 1.1-1.1 3.3-2.5 4.9-1.4 1.7-2.5 4.3-2.5 5.9 0 2.9 2.6 6.3 4.7 6.3.6 0 1.4 2.2 1.8 4.9.5 3.7.2 6.1-1.3 9.7-1 2.7-2.6 7.4-3.5 10.4s-2.7 9.2-4.1 13.7c-4.6 14.5-11.6 67.2-11.6 86.6 0 6.7.2 7.5 2.8 9.9 3.3 3.1 10.7 7 11.6 6 .4-.3 1-.1 1.4.5s4.3 2.2 8.7 3.5c7.1 2.2 8 2.7 8.3 5.1.5 3.8-3.3 5.3-16.6 6.6-13.7 1.4-16.2 2.2-16.2 5.4 0 3.3 2.6 5.3 8.5 6.7 2.8.6 6.2 1.8 7.6 2.5 1.7.9 6.5 1.5 14.7 1.6 9 .1 12.4.5 13.3 1.5 1.2 1.5 4.8 1.8 9.9.8 3.1-.7 11-7.3 11-9.3 0-2.1-4.4-5-9.2-6.1-3.9-1-5.2-1.8-6-3.9-.6-1.4-1.6-3.8-2.4-5.3-.8-1.4-1.4-2.8-1.4-3.1s2.6-1.3 5.7-2.2c3.2-.9 7.4-2.5 9.5-3.6 5-2.6 5.5-5.9 3.5-23.4-.9-7.7-2.2-21-2.7-29.5-1.3-19.6-4.2-34.9-10-53.5-.2-.6.1-2.1.7-3.5s1.6-5 2.2-8 1.6-7.5 2.3-9.8c1.2-4 1-5.1-1.3-11.7-2-5.4-2.4-7.6-1.5-8.5.8-.8.8-1.3-.2-1.8-.6-.5-1.4-2.8-1.6-5.3-.5-4.7-3.8-13.3-6.4-16.1-2-2.4-.3-4.3 4-4.6 3.9-.3 5.1-1.5 6.7-6.1 1.6-5 1.3-9.3-.9-12.1-1.1-1.4-2-3-2-3.6 0-2.2-8-11.2-11-12.4-2.8-1.2-7.5-1-16.8.4-2 .4-3.1.2-2.7-.4.3-.6.2-1-.3-1-.4 0-1.6 1.7-2.6 3.7m24.8 76.7c-.3 1.4-1 2.6-1.5 2.6-1 0-1.2-3.1-.3-5.5 1-2.6 2.6-.1 1.8 2.9"/></svg>