<svg xmlns="http://www.w3.org/2000/svg" width="682.667" height="512" version="1.0" viewBox="0 0 512 384"><path d="M176.8 96.9c-.8 1.1-1.4 3.6-1.3 5.5 0 1.9-.2 3.3-.6 3.1-.3-.3-.9 2.1-1.2 5.2-.6 5.8 1.3 11.3 3.9 11.3.6 0 1.7.7 2.4 1.5 1 1.2 1 1.8 0 3-1.3 1.6-1 2.2 3.7 7.2.6.7 1.4 2.2 1.8 3.2.4 1.3 1.2 1.8 2.8 1.4 1.9-.4 2-.3.5.7-1 .6-1.8 1.8-1.8 2.5 0 .8-.6 1.5-1.3 1.5s-2.2.6-3.3 1.4c-1.5 1.2-1.7 1.7-.6 2.7 1.7 1.8 1.5 3.9-.6 5.8-3 2.6-7.5 9.1-6.9 9.8.3.3-.5 2-1.9 3.8-2 2.7-2.5 4.3-2.2 8.2.3 4.4.6 4.9 4.1 6.6l3.7 1.9v6.6c-.1 5.3-.6 7.5-2.5 10.7-1.4 2.2-2.5 5.2-2.5 6.7s-.5 3.9-1.1 5.5c-.7 1.5-1.5 4.8-2 7.3-.4 2.5-1.9 8.3-3.4 13-3.6 11.6-14 80.6-16 105.3-.6 7.9.1 10.8 3.4 13.5 2.5 2 12.5 7.7 13.6 7.7.5 0 2.1.8 3.5 1.7s6.1 2.7 10.5 3.9c4.4 1.3 8.2 2.5 8.5 2.7s-.3 1-1.3 1.7c-1.1.8-6 1.6-11.5 2-21 1.3-28.2 3.5-28.2 8.4 0 2.8.2 2.9 5.8 3.3 11.3.8 49.3.9 61.1.2 9.4-.5 12.1-1 12.1-2.1 0-1.6-9.4-6.3-12.8-6.3-1.3 0-3.6-1.4-5.3-3.2l-2.9-3.3 2.2-1.7c1.2-.9 2.6-1.4 3-1.2 1 .6 12.8-5 15.7-7.6 3.2-2.8 3.7-9.3 2.2-29.4-.6-8.3-1.6-24.9-2.1-36.9-.6-12-1.7-25.7-2.6-30.5-1.9-11.2-7.1-31.8-8.9-35.3-1.3-2.4-1.3-2.8.2-3.3 1.4-.6 1.4-.8-.2-2.6-2.2-2.5-1.6-5.7 3-16 1.9-4.3 3.5-8.7 3.5-9.8s-1.3-5.6-3-9.9c-3.5-9.1-3.5-9.2-1.3-10.8 1.5-1.1 1.5-1.3-.5-2.4-1.8-1-2.2-2.1-2.2-6 0-4.8-4.5-16.6-7.6-20.2-2.1-2.3-.7-5.2 2.2-4.6 2.5.4 6.5-2.6 9.7-7.3 2.3-3.4 2.2-11.1-.3-16-1.1-2.2-2-4.7-2-5.6 0-2.5-10-13.5-13.7-15-5.6-2.4-12.7-1.7-21.5 2-1.1.5-1.6.3-1.5-1 .3-2.6-2.8-2.9-4.5-.5m29.9 96.3c-.3.7-.5.2-.5-1.2s.2-1.9.5-1.3c.2.7.2 1.9 0 2.5"/></svg>