<svg xmlns="http://www.w3.org/2000/svg" width="682.667" height="512" version="1.0" viewBox="0 0 512 384"><path d="M172.4 93.1c-1.2 1.3-1.8 3.4-1.7 6 .1 2.1-.3 3.9-.9 3.9s-.8.6-.5 1.4c.3.7.2 3.1-.3 5.2-.7 3.1-.5 4.3 1.1 6.6 1.1 1.6 2.4 2.6 2.7 2.4.4-.2 1.5.6 2.4 1.9 1.5 2 1.6 2.4.2 3.5-1.3 1.1-1.3 1.5.1 2.9.9.9 3.1 3.7 5.1 6.3 3.4 4.6 3.4 4.8 1.6 6.5-1 1-2.7 2.3-3.6 2.8-1.5.9-1.6 1.4-.6 3.7 1.2 2.5 1 3-3.4 7.9-2.5 2.8-4.6 5.8-4.6 6.5 0 .8-1.1 3.2-2.5 5.4-4.1 6.5-3.1 12.5 2.5 15.3 4.6 2.3 4.8 11.1.4 19.8-1.3 2.6-2.3 5.5-2.2 6.5 0 1.1-.9 4.6-2.1 7.8-1.2 3.4-1.7 6.4-1.3 6.8.5.5-.1 3.4-1.4 6.6-3.5 8.8-5.2 19.3-12.4 76.7-2.7 22-4.3 42.9-3.6 46.9 1.2 6.3 14.3 14.8 30.4 19.6 3.9 1.2 7.4 2.6 7.7 3 1.2 1.9-3.5 3.4-15.3 4.6-7.1.7-13.9 1.7-15.2 2.2-3.5 1.3 10.4 2.2 33.7 2.2 21.1 0 20.8.1 16.1-5.9-1.8-2.3-1.8-2.4.2-3.8 1.1-.8 2.8-1.6 3.8-1.8 4.3-.8 13.4-4.8 13.9-6.1.2-.7 1.3-1.6 2.3-1.9 3.1-1 4.3-5.8 3.7-15.3-.3-4.8-1.3-21.1-2.1-36.2-.9-15.1-2.1-32.1-2.6-37.8-1.1-11.3-5.6-32.2-9.5-43.8-3-8.8-3-8.8-.9-8 1.5.6 1.5.5 0-1.6-.9-1.3-1.9-2.9-2.3-3.7-.7-1.6 1.7-9.2 5.4-16.5 2.7-5.5 2.6-5.6-1.3-18-2.3-7.3-2.4-8-.9-9.6 1.6-1.7 1.5-1.9-.4-3-1.7-.9-2.1-2-2.1-6.7 0-6.1-3.8-17.2-7.1-20.9-1.6-1.7-1.7-2.3-.6-3.8.8-1 2.9-2 4.7-2.1 3.4-.3 9-5.3 9-8.1 0-.8.4-1.4.8-1.4 1.2 0-.3-11.1-2.1-15-.9-1.9-1.8-4.6-2.1-6-.7-3.2-10.1-12.9-14.3-14.6-4.2-1.8-10.8-1.7-15.8.2-7 2.7-7.3 2.7-8 .5-.8-2.6-1.7-2.6-4.1 0"/></svg>