<svg xmlns="http://www.w3.org/2000/svg" width="682.667" height="512" version="1.0" viewBox="0 0 512 384"><path d="M167.8 88.7c-.9 1-1.8 3.8-2.1 6.3-1.8 15.6-1.8 15.4.2 19 1 1.9 2.5 3.4 3.1 3.2.7-.1 1.8.3 2.6.9 1.2 1 1.2 1.5-.3 3.1-1.7 1.9-1.7 2 0 3.3.9.6 1.7 1.5 1.7 1.9 0 .8 1.4 2.6 4.8 6.2 1.8 2 2 2.9 1.2 4.5-.6 1-1.7 1.9-2.4 1.9s-2 .8-3 1.9c-1.5 1.6-1.5 1.9-.1 3.1 2.2 1.8 1.9 2.6-2.9 7.7-2.5 2.5-4.7 5.7-5.1 7-.3 1.4-1.7 4.2-3 6.4-2.6 4-3.2 8.7-1.5 11.9.5 1 2.6 2.7 4.6 3.9l3.7 2.2-.6 6.8c-.5 6.3-3.5 14.2-5.8 15.7-.6.3-.7 1.4-.4 2.5.4 1.1-.4 4.9-1.6 8.6-1.3 4-1.8 6.8-1.2 7s-.1 3.8-1.7 8.6c-3 8.9-4.6 18.3-8.4 51.2-3.4 28.7-5.6 55.5-5.6 68.5v10.8l3.5 3.1c4.5 3.9 20 11.7 27.6 13.8 3.4.9 5.9 2.2 5.9 3 0 1 2.1 1.3 8.8 1.3 7.6-.1 9-.4 11.6-2.4 1.6-1.4 3.4-2.2 4.1-2 1.7.7 14.4-5.4 17.8-8.6 2.8-2.6 3.2-3.6 3.5-9.7.2-3.7-.3-14-1.2-22.8-.8-8.8-2-25-2.6-36s-1.7-24.4-2.5-29.8c-1.8-12.1-6.6-32-9.8-41-1.9-5.2-2.1-6.7-1.1-6.7 2 0 1.7-1.1-1.1-4l-2.5-2.6 1.9-5.5c1-3 2.9-7.5 4.1-9.9 2.5-4.9 2.4-7-1.3-19.9-2.4-8.2-2.4-8.2-.4-9.3 2-1 2-1.1-.3-2.8-2-1.5-2.2-2.2-1.6-6.6.6-4.1.2-6.4-2.3-13.3-1.7-4.7-3.8-9.2-4.7-10.3-1-1-1.2-1.8-.6-1.8s1.2-.7 1.4-1.6c.2-1.1 1.5-1.8 3.7-1.9 3.6-.3 8.5-4.7 10.2-9.3 1.2-3.2.3-9.5-2.6-17.7-2.6-7.4-11.1-18-16.2-20.1-4.2-1.8-11.8-1.7-16.8.2-7 2.7-7.3 2.7-8 .5-.8-2.6-2.7-2.7-4.7-.4"/></svg>