<svg xmlns="http://www.w3.org/2000/svg" width="682.667" height="512" version="1.0" viewBox="0 0 512 384"><path d="M175.5 85.1c-5.3 1.9-6 1.9-7.1.5-2.6-3.7-8 .1-6.8 4.8.3 1.5.1 3.9-.5 5.4-2 5-2 10.5 0 14.4 1.1 2.1 2.3 3.7 2.7 3.7 1.4-.2 5.2 1.3 5.2 2.1 0 .4-.7 1.3-1.5 2-1.7 1.4-2 4-.5 4 .6 0 1.4.8 1.7 1.7.9 2.6 5.3 7.7 7.1 8.4 1.1.4.3 1.5-3.2 4.4-4.6 3.7-4.6 3.8-3 6.3 1.4 2.1 1.4 2.7.3 3.6-3 2.4-10 11.6-9.5 12.5.4.5.2 1.2-.4 1.6-1.8 1.1-5 8.3-5 11.2 0 3.6 2.3 6.9 6.2 8.9l3.1 1.6-.5 7.3c-.4 5.6-1.2 8.5-3.5 12.6-1.6 3-2.7 6.2-2.5 7.2s-.7 4.8-2 8.4c-1.5 4.5-1.9 6.8-1.2 7 .8.3.2 3.3-1.7 9.3-3.3 10.8-5 21.3-8.3 52-3.3 30.4-4.8 52-5 69.9l-.1 14.3 4.1 3.7c2.3 2 7.1 5.1 10.6 6.9l6.5 3.2h51.9l5.4-3.5c2.9-1.9 5.7-4 6.1-4.7 1.6-2.5 2-11.5 1-19.3-1.6-12.2-4-38.1-5.1-56.5-.6-9.1-1.7-20.6-2.5-25.6-1.5-9.7-7.4-33.5-10.1-40.6-2.7-7.4-2.7-7.6-.8-8 1.5-.3 1.3-.8-1.4-3.9-1.8-2-3.2-4.2-3.2-4.9 0-.6 1.6-5 3.6-9.6l3.7-8.5-1.3-7.2c-.7-4-1.9-9.2-2.6-11.7-1.3-4.2-1.2-4.6.8-6.1l2.1-1.7-2.1-1.1c-1.7-.9-2-1.8-1.7-5.1.2-2.2.7-4.4 1-5 .9-1.4-5.3-20.2-7.1-21.6s-1.8-2.4 0-2.4c.8 0 1.6-.7 2-1.5.3-.8 1.2-1.5 2.1-1.5.8 0 1.5-.4 1.5-1 0-.5.7-.7 1.5-.4.9.4 2.1-.6 3.3-2.6 1.3-2.1 2.2-2.7 2.5-1.8.3.7.8-.2 1.2-2 .4-1.7 1.2-3.2 1.7-3.2 1.5 0 0-8.6-2.3-13.9-1-2.4-1.9-5.4-1.9-6.7 0-3.1-9.9-14.2-15.2-17.2-5.2-2.8-11.3-2.8-19.3-.1"/></svg>