<svg xmlns="http://www.w3.org/2000/svg" width="682.667" height="512" version="1.0" viewBox="0 0 512 384"><path d="M171.6 82c-4.6 1.8-5.1 1.8-6.8.4-3.6-3.3-10.2 1.4-7.6 5.5.9 1.4.8 2.7-.5 6-2.2 5.5-2.1 9.3.3 14.1 1.5 3 2.6 4 4.5 4 3.3 0 3.9 1.6 1.5 4l-2.1 2.1 3.1 3c1.7 1.7 3.7 4.4 4.6 6 .8 1.6 2.2 2.9 3.2 2.9 1.1.1.1 1.5-3.2 4.5-4.6 4.1-4.9 4.6-3.4 6.2 1.8 2.1 2 5.3.3 5.3-1.2 0-9.5 10-9.5 11.4 0 .5-.9 2.1-2.1 3.7-1.1 1.6-1.8 2.9-1.4 2.9.3 0-.2 1.4-1.1 3.1-2.5 5-.1 10.9 5.5 13 2.3.9 2.3 1.2 1.9 9.7-.4 7.9-.7 9.3-3.6 13.6-2.2 3.2-3 5.4-2.6 7 .3 1.2-.6 5.1-2 8.9-1.4 3.7-2.1 6.7-1.6 6.7 1.5 0 1.2 2.4-1 9.3-5.1 16.3-10.8 63.3-13.1 108.9-1.4 28.1-1.1 33.9 2.1 37.3l2.4 2.5 42-.2 42.1-.3.3-8c.2-4.4-.4-14.1-1.3-21.5-2.3-19.7-4.2-38.5-5.5-55.5-1.6-20.7-7.6-48.9-13.8-65.3l-2-5.1 2.2-.3c1.9-.3 1.7-.7-2.3-5l-4.3-4.8 3.6-8.6c4.1-9.9 4.3-11.6 1.6-24.3l-1.9-9.4 2.1-1.7c2.2-1.7 2.2-1.7.2-2.8-1.9-1-2-1.6-1.1-7.4.9-5.6.7-7.3-1.8-15.3-1.5-5-3.4-9.8-4.2-10.8-1.6-1.7-1-2.2 2.5-1.8.6.1 1.2-.4 1.2-1.1 0-2.1 1.6-3.9 3.6-4.2 1-.2 2.9-1.7 4.1-3.5 1.8-2.6 2.2-2.8 2.6-1.4.3 1.3.6 1 1.2-1.2.4-1.7 1.3-3.5 2.1-4.1 1-.8.7-2.6-1.7-9.5-1.7-4.6-3.3-9.8-3.6-11.4-.9-4.6-12.7-17.2-17.2-18.5-5.5-1.5-13.1-1.1-18.5 1"/></svg>