<svg xmlns="http://www.w3.org/2000/svg" width="682.667" height="512" version="1.0" viewBox="0 0 512 384"><path d="M171 78.3c-2.5.7-5.4 1.7-6.6 2-1.4.5-2.6.2-3.4-.8-1.9-2.3-4.6-1.8-7 1.2-1.4 1.8-1.7 3-1 3.7 1.2 1.2 1.3 4.9.3 6-1.1 1-3.1 9.5-2.4 10.1.2.3.6 1.1.7 1.8s1 2.9 1.9 5.1c1.4 3.2 2 3.7 4.1 3.3 3.2-.6 3.9.8 1.9 3.9-1.5 2.4-1.5 2.6 3.1 8.4 2.6 3.3 5.2 6 5.8 6 .6.1-.8 1.8-3.1 3.9-4.6 4.1-5 5.1-3.1 8 1 1.6.5 2.6-3.7 7.3-5.9 6.6-9.6 12.3-10 15.5-.1 1.3-.7 2.9-1.4 3.6-2.9 2.9.2 10.8 5.2 12.8l3 1.3-.6 8.2c-.5 8-2.4 13.6-6.6 18.7-1.1 1.3-1.2 2-.3 2.9.8.8.3 3.2-1.8 9-2.2 6.1-2.6 8-1.6 8.4 1.1.4 1.1 1.2 0 4.5-4.1 11.9-11.6 61.3-13.4 89.4-.6 8.2-1.7 23.6-2.6 34.1-.8 10.5-1.2 21-.8 23.2l.7 4.2H223v-4.8c0-2.6-1.5-16.6-3.4-31.2s-4.2-34.8-5.1-45c-1.3-15.3-2.4-22-6.6-38.7-2.7-11.2-6.1-23.3-7.4-27-2.2-5.9-2.3-6.8-.9-7.6 1.2-.7.8-1.6-2.5-5.3-2.3-2.4-4.1-5-4.1-5.8s1.6-4.9 3.5-9.2c3.2-7.1 3.4-8.1 2.9-14.3-.4-3.6-1.3-9.3-2-12.6-1.2-5.7-1.1-6.1.9-7.7 2.1-1.6 2.1-1.8.5-3-1.8-1.3-1.8-2.5-.2-11.9.6-3.6-2.3-15.4-5.3-21.3-1.2-2.4-1.3-3-.1-3.7.7-.5 2.1-.6 3.1-.3 1.3.4 1.7 0 1.7-2 0-3.5 1.1-6.1 2-4.6.5.8 1.1.7 2.2-.4.9-.8 1.8-1.2 2.2-.9.3.3.8-.2 1.2-1.1.3-.9 1-1.4 1.5-1.1.4.3 1.2-.9 1.7-2.7s1.5-3.2 2.1-3c1.8.4.5-4.8-3-12.7-1.6-3.5-2.9-7.4-2.9-8.7 0-2.8-11.9-16.6-15.8-18.4-4-1.8-13.1-2.2-18.2-.7"/></svg>