<svg xmlns="http://www.w3.org/2000/svg" width="682.667" height="512" version="1.0" viewBox="0 0 512 384"><path d="M165.7 77c-5.5 1.7-6 1.7-8.7.2-2.8-1.6-3-1.6-5.4.7-2.1 2-2.5 3.1-2.1 6 .3 2.2-.2 5.8-1.3 9.1-1.1 3-1.5 5.6-1.1 5.8.5.2.9 1 .9 1.8s.9 3.3 2.1 5.5c1.7 3.5 2.4 4 4.4 3.5 3.4-.9 4.1 1.1 1.4 4-2.2 2.4-2.2 2.4-.3 4.3 1 1.1 3.2 3.8 4.8 6 1.7 2.3 3.6 4.1 4.3 4.1 2.3 0 1.4 1.4-3.2 4.9-4.9 3.6-5.3 4.6-3 7.1 1.6 1.8 1.1 5-.9 5-1 .1-8.8 9.2-11.1 13-.5 1-1.6 2.8-2.3 4-1 1.6-1.1 2-.2 1.5.8-.5 1.1-.3.7.6-2.7 6.6-2.9 8.6-1.2 11.8.9 1.8 3 4 4.7 4.9l3 1.7-.5 8.8c-.4 6.6-1.1 9.4-2.6 11.6-1.2 1.6-2.1 3.3-2.1 3.8 0 .6-.9 1.8-2 2.8-1.5 1.3-1.7 2.1-.9 3.1 1.2 1.4.8 3.3-2.3 11.2-1.6 4.1-1.8 5.5-.8 6.6.8 1 .8 2.1.2 3.3-1.5 2.8-6 25.3-7.8 38.8-.8 6.6-2.4 17.4-3.5 24S126.1 320 125 334c-2 24.5-3.4 39.8-4.6 46.7l-.5 3.3H171c41.7 0 51-.2 51-1.3 0-.8-1.5-11.9-3.4-24.8s-4.6-34.2-6.1-47.4c-1.4-13.2-3.7-28.5-5-34-3-12.4-9.8-35.8-11.9-40.7-1.5-3.6-1.5-3.7.7-4 2-.3 1.8-.7-2.5-5.4-2.7-2.8-4.8-5.7-4.8-6.3 0-.7 1.6-4.6 3.5-8.8 4-8.6 4.2-11.8 2-24.9l-1.6-8.8 2.3-1.9 2.3-1.8-2.1-1.5c-1.9-1.3-2.1-1.9-1.2-5.2 2.2-7.9 2-11.7-.7-20.5-1.5-4.7-3.3-9.2-4.1-9.8s-1.4-1.6-1.4-2.2c0-.8.4-.7 1.1 0 .9.9 1.5.8 2.7-.3 1.3-1.3 1.7-1.3 3.3.2 1.8 1.6 1.9 1.6 1.9-1.3 0-3.7 4.2-9.7 5.7-8.2 1.3 1.3 4.3-2.5 4.3-5.4 0-1 .9-2.1 2-2.5 1.9-.7 1.8-1.1-1.7-8.7-1.9-4.4-3.8-9.7-4-11.7-.4-2.7-1.9-5.1-5.9-9.4-3-3.1-5.4-6-5.4-6.4 0-.5-2.3-2-5.2-3.4-6.3-3.1-12.7-3.3-21.1-.6"/></svg>