<svg xmlns="http://www.w3.org/2000/svg" width="682.667" height="512" version="1.0" viewBox="0 0 512 384"><path d="M162.1 76c-3.5 1.3-5.7 1.6-6.1 1-1.3-2.1-5.4-2-7.7.2-1.8 1.7-2.2 2.9-1.8 5 .4 1.7-.1 5.1-1.4 8.8-1.4 4.1-1.8 6.6-1.2 7.8.5.9 1.7 3.4 2.6 5.4 1.8 4.2 5.3 6.8 6.5 4.8.6-.9.9-.9 1.5 0 .4.7-.3 2.5-1.5 4.3-2 2.6-2.1 3.2-.9 4.1.8.6 3 3.2 4.8 5.8 1.9 2.6 4.3 4.9 5.5 5.1 2 .3 2 .4-.4 1.4-1.4.6-3.8 2.5-5.5 4.3-2.9 3.1-3 3.2-1.3 6.1s1.7 2.9-.8 4.6c-2.6 1.7-12 13.3-10.8 13.3.4 0-.1.9-1 1.9-1.8 1.9-2 2.7-3.2 11.4-.7 4.8-.6 4.9 4.1 9.2l4.7 4.4-1 8.7c-.7 6-1.6 9.5-3.1 11.5-1.2 1.5-2.1 3.2-2.1 3.7s-.9 1.7-1.9 2.6c-1.6 1.4-1.8 2.2-.9 3.6.9 1.3.5 3.5-1.7 9.5-1.8 4.9-2.5 8-1.8 8.2.6.2.2 3.5-1.3 9.3-1.3 5-3.9 19.2-5.8 31.8-1.9 12.5-4.4 28.5-5.5 35.7-1.1 7.1-2.5 19.5-3 27.5-1.2 15.3-3.7 37-5.1 43.2l-.8 3.8h52.9c49.7 0 52.9-.1 52.9-1.8 0-.9-.7-5.7-1.5-10.7-3.7-22.3-6.6-42.4-8.5-59.5-1.1-10.2-3-22.6-4.1-27.5-3-13.2-10.7-40.3-12.9-45.2-1.7-4-1.8-4.3-.2-5.2 1.5-.9 1.4-1.3-1.3-4.3-7.5-8.2-7.3-6.6-2.5-16.8l4.3-9-1.5-12.2c-1.5-12.1-1.5-12.3.6-14.6l2.1-2.3-2.3-1.7c-1.3-1.1-1.9-2.1-1.4-2.7s1.4-3.5 2.1-6.5c1.1-4.9 1-6.4-.9-13.4-1.1-4.3-2.7-9.4-3.5-11.3-1.5-3.5-1.2-5.8.6-4.7.5.3 1.7 0 2.5-.7 1.2-1 1.7-.8 2.8.7 1.3 1.7 1.5 1.5 2.1-2.8.4-2.7 1.3-4.9 2.2-5.2.8-.4 1.3-1.3.9-2.1-.3-.8-.1-1.7.4-2 .6-.4 1 .1 1 .9 0 3.5 2.8 1.4 3.9-3 .9-3.5 1.5-4.4 2.7-4 2.2.9 1.2-2.9-3.2-12.1-1.9-3.9-3.4-8.4-3.4-9.8 0-1.9-1.2-3.9-3.8-6.4-2.2-2-4.9-5.1-6.2-7-4.8-6.9-17.5-9.2-28.9-5.1"/></svg>