<svg xmlns="http://www.w3.org/2000/svg" width="682.667" height="512" version="1.0" viewBox="0 0 512 384"><path d="M160.7 75c-5.2 1.6-6.1 1.7-8.7.4s-3.2-1.3-5.4.1c-3.1 2.1-3.9 4.1-2.4 6.5 1 1.5.9 2.6-.5 5.5-.9 1.9-1.9 5.2-2.2 7.3-.9 6.6 6.5 18.2 9.1 14.1.3-.5 0-.9-.7-.9s-.9-.3-.6-.6c.4-.4 1.3-.1 2.2.6 1.1.9 1.2 1.7.3 3.4-.6 1.1-1.7 2.5-2.5 2.9-1 .6-.4 1.9 2.6 5.5 2.1 2.6 4.4 5.7 5 6.9.7 1.3 1.9 2.3 2.7 2.3s1.2.4.9 1c-.3.5-1.3 1-2.2 1-2.2 0-6.3 4.1-6.3 6.4 0 1.1.8 2.8 1.8 3.9 1.3 1.6 1.4 2.1.4 2.5-2.4.8-7.6 5.8-11.2 10.8-1.9 2.7-3.4 5-3.2 5.2.1.1-.5 1.4-1.4 2.8-2.3 3.4-2.2 13.5 0 17 1 1.4 2.9 2.9 4.3 3.5 2.6.9 2.6 1 2.1 9.4-.5 7.1-1.1 9.4-3.8 14.2-1.8 3.2-3.9 6.5-4.7 7.5-1.1 1.2-1.2 2-.3 3.5.9 1.4.5 3.3-1.9 9.3-1.9 4.5-2.7 7.7-2 8 .6.4 0 4.5-1.6 11.1-1.4 5.7-3.4 16.9-4.6 24.9-1.1 8-3.3 22.1-4.9 31.5-2.8 16.7-3.9 25-6 49-1.1 11.8-3.5 28.1-4.6 31-.5 1.3 5.8 1.5 53.8 1.5h54.4l-3.8-22.3c-2.1-12.2-4.9-31.4-6.3-42.7-1.3-11.3-3.2-23.9-4.1-28-2.3-10.9-10-38.4-12.9-46.4-3-8.1-2.9-7.6-1-7.6 2.3 0 1.9-.8-3.7-7.2l-5.1-5.9 4.3-8.2 4.3-8.2-.7-10.5c-.3-5.8-.9-11.7-1.2-13.2-.4-1.9 0-3.2 1.6-4.8 2-2 2-2.3.5-3.9-1.3-1.6-1.4-2.5-.4-6.2 2.2-8.8 2.2-10.8-.7-20.1-1.5-5.1-3.1-9.8-3.5-10.3-.4-.6-.1-1.8.6-2.8 1-1.4 1.4-1.5 1.8-.5.4.9 1.1.7 2.5-.9l1.9-2.2 1.4 2.6c1.4 2.6 1.4 2.6 1.9-2.3.3-3.2.9-4.8 1.8-4.6.6.1 1.1-.1 1.1-.5-.1-.5 0-1.9.1-3.3.2-1.8.4-2 .7-.8.2 1 1 1.8 1.8 1.8 1.4 0 2.5-3 2.5-7.2 0-2.2.4-2.5 2.1-2.1 1.9.5 2 .3 1.4-1.8-.4-1.3-2.2-5.5-4.1-9.3s-3.6-8.2-3.8-9.8c-.3-2.6-4.6-8.2-12.6-16.5-5.3-5.5-15.4-6.8-26.3-3.3"/></svg>