<svg xmlns="http://www.w3.org/2000/svg" width="682.667" height="512" version="1.0" viewBox="0 0 512 384"><path d="M163.5 73.7c-1.1.2-4 1.1-6.3 2-3.2 1.1-4.7 1.2-5.5.4-1.9-1.9-6.2-1.2-8.7 1.4-1.9 2-2.1 2.7-1 4 1.4 1.7 1.1 3.6-1.8 11.4-1.7 4.8-1.8 5.6-.5 6.9.8.8 1.2 2.1.9 2.8-.3.8-.2 1.4.2 1.4s1.4 1.3 2.3 2.9c1.7 2.9 6.2 5.1 5.2 2.5-.4-1 0-1.2 1.1-.8 2.3.9 2 2.8-.7 5.5l-2.4 2.2 3.7 3.8c2.1 2.2 4.3 5.2 5 6.8.6 1.7 1.9 3.2 2.8 3.4 1.3.3 1 .6-.8 1.1-1.4.4-3.6 2.2-4.9 3.8-2.4 3-2.4 3.2-.8 6 1.8 3.1 1.5 4.8-.8 4.8-1.9 0-9.7 9.4-13.5 16.4-2.9 5.1-3.2 6.5-2.7 11.1.6 6.1 2.6 9.7 6.4 11.4 2.6 1.2 2.6 1.2 1.9 9.9-.5 7.2-1.1 9.5-3.6 13.5-1.7 2.7-3 5.2-3 5.7s-.6 1-1.2 1.2c-.8.3-1.3 2.4-1.3 5.4 0 3.2-1 7-2.8 10.8-2.1 4.5-2.4 6.1-1.5 6.7s.7 2.8-.9 9.6c-3 12.1-2.9 11.8-6.3 34-1.6 10.9-4.1 26.1-5.4 33.8s-3.2 22.1-4.1 32c-.8 9.9-2.2 21.6-3 26.1-.8 4.4-1.5 8.6-1.5 9.2 0 .9 13.5 1.2 54.4 1.2h54.3l-.8-4.7c-.4-2.7-2.3-14.2-4.3-25.8-1.9-11.6-4.2-27.3-5.1-35s-2.5-18.4-3.6-23.8c-2.3-11.3-9.8-38.1-13.4-47.7-2.9-7.7-3-8.1-1-7.4 2.6 1 1.7-2.1-1.6-5.2-1.7-1.6-4-4.2-5.1-5.7l-2-2.8 4.7-8.2 4.8-8.1-.8-10.6c-1.2-16.3-1.1-17.8 1-19.5 2-1.5 2-1.6-.2-3.1-1.8-1.3-2-2-1.3-3.5.6-1 .9-2.2.9-2.6-.1-.4.3-2.1.9-3.6.7-1.6 1.2-3.9 1.2-5.2 0-2.8-4.6-17.7-6.7-21.8-.7-1.5-1.1-3.3-.7-3.9.5-.8 1-.5 1.5.8.7 1.7.8 1.7.8.1.1-2 1.2-2.2 2.8-.6.8.8 1.4.5 2.3-1.2 1.1-2 1.3-2 2.2-.6 1.4 2.6 2.8 2 2.8-1.1s2.8-12.6 2.9-9.9c.1 1 .6 1.5 1.1 1.2.6-.3 1-.1 1 .5 0 2.9 1.8-.5 2.5-4.6.5-3.4 1-4.4 2.1-4 .8.3 1.4.2 1.4-.3 0-2.1-3.3-9.9-6-14.1-1.9-3.1-2.7-5.3-2.3-7.1.4-2-.5-3.6-4.7-8-2.8-3-6.4-6.8-8-8.6s-4.6-3.7-6.7-4.2c-3.7-1.1-11.9-1.3-15.8-.4"/></svg>