<svg xmlns="http://www.w3.org/2000/svg" width="682.667" height="512" version="1.0" viewBox="0 0 512 384"><path d="M251 137.9c-4.8 1-12.4 5.4-16 9.3-5.3 5.7-10.1 16.2-15.6 34.2-1.3 4.4-2.6 8.1-2.8 8.3-.5.6-9.7-2.5-12.1-4.1-1.4-.9-2.5-1.2-2.5-.7s-.6.9-1.2.8c-3.2-.1-4.6.4-5.2 1.9-1 2.6 2.2 5.3 8.3 7 3.1.9 7.1 2 9 2.6l3.3 1-.6 5.2c-.3 2.8-1.5 8.5-2.5 12.6-4.1 16.3-1.1 28.1 9.8 39 11.9 11.8 33.8 19 57.7 19 20.2 0 41.1-9 49.5-21.4 5.5-8.2 8.3-18.1 7.6-27.1-.4-6-.2-7.6 1-8.7 6.8-5.6 8-26.7 2.1-38.2-2.5-4.9-11.3-14.3-19.1-20.3-20.4-15.7-50.5-24.4-70.7-20.4"/></svg>