<svg xmlns="http://www.w3.org/2000/svg" width="682.667" height="512" version="1.0" viewBox="0 0 512 384"><path d="M157.7 76.1c-3.5 1.2-6.4 1.6-7 1.1-2.4-1.8-6.4-1.2-8.8 1.4-2 2.1-2.2 2.8-1.1 4.5s1 2.9-.8 7.5c-1.1 3-2 6.3-2 7.4 0 3.5 4.4 13 6.1 13 .8 0 2.1.6 2.8 1.2 1 1.1 1.1 1 .5-.5-.5-1.3-.2-1.6 1-1.1 2.1.8 2 1.6-.4 4.7-1.1 1.4-2 2.7-2 3 0 .2 1.8 2.4 4 4.8s4.3 5.2 4.6 6.1c.3 1 1.2 1.8 2 1.8s1.4.4 1.4 1c0 .5-.8 1-1.8 1s-3.1 1.3-4.6 2.9c-2.1 2.2-2.6 3.4-2 5.5.3 1.4 1 2.9 1.6 3.2.5.3-1.7 3-4.9 5.9s-6.7 7-7.8 9.1-3 5.4-4.2 7.2c-1.3 1.9-2.3 4.8-2.3 6.5 0 4.3 4 11.6 7.2 13.3 2.5 1.3 2.8 2 2.8 6.7 0 9.2-3.7 18.8-9.6 24.9-1.2 1.2-1.3 2.1-.5 3.6 1.1 2.1-.8 9.3-4.3 16-1.4 2.6-1.4 3.2-.2 3.9s1.1 2.2-.9 9.7c-1.4 4.9-3.8 17.9-5.5 29-1.7 11-4.2 26.4-5.5 34-1.4 7.7-3.2 20.1-4.1 27.5-2.5 23-4.4 37.5-5 39.8l-.6 2.3h54.6c52.3 0 54.6-.1 54.6-1.8 0-1-1.1-7.9-2.4-15.3-2.6-13.8-5.6-34.2-7.6-50.9-2.1-17.1-12.1-56.3-17.5-68.6-2.3-5.2-2.3-5.3-.3-5.6 1.7-.3 1.3-1.1-3.1-6.1-2.8-3.2-5.1-6.3-5.1-6.8 0-.6 1.7-3.6 3.9-6.7 8-11.9 8-12.2 5.4-28l-1.8-10.3 2.5-2 2.5-1.9-2.3-1.8c-2.2-1.7-2.3-1.9-.9-6.2 2.9-8.9 2.9-9.7-.4-19.3-1.7-5.1-3.8-10.4-4.5-12-1.2-2.2-.7-3.6.9-2.5.2.2 1.1-.3 2-1 1.1-.9 1.7-1 2.2-.2.9 1.5 3.5-.6 3.5-2.9.1-1 .7-.4 1.8 1.4l1.6 3 .7-5.1c.4-2.9 1-5.7 1.3-6.3 1-1.5 3.6-1.4 3.7.1.2 2.6 2.1-4.8 2-7.5-.1-2.4.2-2.8 1.9-2.2 1.1.3 2 .4 2 .1 0-1.5-4.3-11.1-6.5-14.6-1.4-2.2-2.5-5.4-2.5-7.1 0-2.3-1-4.1-3.8-6.8-2.1-2-5.1-5.3-6.6-7.5-1.6-2.1-4.7-4.7-7-5.7-5.5-2.5-15.4-2.4-22.9.2"/></svg>