<svg xmlns="http://www.w3.org/2000/svg" width="682.667" height="512" version="1.0" viewBox="0 0 512 384"><path d="M157 77c-3.4 1.2-5.9 1.5-6.4.9-2.1-1.9-7.4-1-9.5 1.8-2 2.4-2 2.7-.5 4.4s1.5 2.1-.4 6.1c-2.6 5.4-3.8 11.8-2.3 11.8.6 0 1.1.8 1.1 1.8 0 2.5 4.6 8.9 6.3 8.9.9 0 1.3-.6 1-1.5-.5-1.2-.2-1.2 1.5-.3 2.8 1.5 2.8 2.3-.4 6-2.2 2.7-2.4 3.2-1 3.7.9.4 2.3 1.8 3.1 3.3.7 1.4 2.9 4.3 4.8 6.3 1.9 2.1 3.4 3.8 3.3 3.9 0 0-.9.2-1.9.4-2.4.4-6.7 4.6-6.7 6.5 0 .9.7 2.5 1.5 3.7 1.4 2 1.2 2.3-2.3 4.9-4.7 3.6-8 7.4-11.4 13.3-4.2 7.1-5.8 10.8-5.8 13.4 0 2.8 5 10.1 8.1 11.8 2 1 2.1 1.7 1.7 9.3-.3 4.5-1.3 9.7-2.2 11.6-2.8 5.8-5.1 9.7-6.9 11.4-1.3 1.4-1.4 2.1-.5 3.6 1 1.5.6 3.4-2.1 10.1-2.3 6.1-2.9 8.4-2 9 .9.5.8 2.1-.6 6.6-1 3.2-2.2 6.3-2.6 6.9-.5.6-.8 2.4-.7 4 .2 2.9-2.5 20.5-8.7 58.9-1.9 11.5-3.9 26.2-4.5 32.5s-1.7 16-2.5 21.5c-.7 5.5-1.2 10.1-1.1 10.2.2.2 24.6.2 54.3.1l53.9-.3-1.3-7.5c-2.1-11.9-7-44.3-8.8-58.5-2.4-18.5-11-52.1-17.4-68.3L185 244h2.1c1.8 0 1.5-.7-2.3-5.3-2.4-2.8-4.9-5.9-5.6-6.9-1.1-1.4-.4-2.9 4.9-10.2 3.3-4.7 6.5-8.9 7-9.2 1.6-.9 1-6.9-1.6-15.9s-2.5-12 .4-14.2c1.4-1.1 1.4-1.4-.7-2.8-1.2-.9-2-2.1-1.6-2.6.3-.6.7-2 .9-3.2s.8-3.7 1.4-5.5c1.2-3.8-.2-9.8-4.7-20.9-2.3-5.6-2.7-7.5-1.7-8.3.6-.5 1.5-.7 1.9-.3s1.1.1 1.7-.7c.8-1.3 1-1.3 1.9 0s1.1 1.3 2 0c.5-.8 1.2-2 1.4-2.5.3-.6 1.1-.2 1.9.7 2.2 2.7 3 2.1 2.4-1.6-.8-5.2 0-7.4 2.9-7 2 .2 2.4-.3 2.9-3.4 1-5.6 1.3-6.2 3-5.6.8.3 1.5.3 1.5 0 0-1.4-3.6-9.5-6.2-13.9-1.5-2.6-2.8-6.1-2.8-7.8 0-2.2-1.2-4.2-4.7-7.8-2.7-2.6-5.6-6-6.7-7.5-4.3-6.4-18.2-8.6-29.6-4.6"/></svg>