<svg xmlns="http://www.w3.org/2000/svg" width="682.667" height="512" version="1.0" viewBox="0 0 512 384"><path d="M158 76.3c-5.8 2-6.8 2.1-9.4.9-2.4-1.2-3.2-1.2-5.3-.1-3.4 1.8-4.8 4.6-3.2 6.5.9 1.1.7 2.9-1.1 8.4-2.2 6.8-2.2 7.2-.6 11.5 1 2.5 2.5 5.5 3.5 6.7 2.1 2.6 5.3 3.4 4.4 1.1-.5-1.3-.3-1.3 1.6-.4 1.8 1 2 1.5.9 3.4-.6 1.2-1.8 2.7-2.6 3.3-1.3 1-1 1.7 2.2 5 2.1 2.2 4.4 5.1 5.2 6.6.8 1.6 1.9 2.8 2.4 2.8.6 0 1 .4 1 1 0 .5-.8 1-1.8 1s-3 1.4-4.5 3.1l-2.7 3.2 1.9 3.3c2 3.4 1.7 4.3-2.1 5.7-1.8.6-11.8 12.3-11.8 13.8 0 .6-1.1 2.7-2.5 4.7-4.4 6.4-2.9 13.3 4.2 19.1l3.7 3-1.2 8.6c-.6 4.8-1.7 9.9-2.5 11.3-2.4 4.8-4.2 7.7-6.1 9.9-1.5 1.8-1.7 2.5-.7 3.7 1.3 1.5.6 4.3-3.4 14.4-1.3 3.3-1.5 4.5-.6 5.6 1 1.1.9 2.2-.4 4.6-.9 1.7-1.4 3.7-1.2 4.3.2.7-.4 2.3-1.4 3.6-1.3 1.6-1.6 2.8-.9 4 .5 1.1.5 3.3-.1 5.7-1.4 6-11.7 79.4-12.9 92.4-.6 6.3-1.5 14.4-2 18s-1 6.8-1 7.2c0 .5 24.1.8 53.6.8h53.7l-.6-4.3c-.4-2.3-1.8-10.5-3.2-18.3-1.3-7.7-3.4-21.4-4.5-30.5-2.9-22.9-4.4-31.1-9-48.9-3.5-13.2-8.8-29.9-11.5-36.3-.5-1.3-.2-1.7 1.5-1.7 1.9 0 1.4-.9-3.5-6.4l-5.6-6.5 1.8-2.8c.9-1.5 4-5.7 6.9-9.3 7.5-9.6 7.8-10.3 6.3-16.3-.6-2.9-2.2-8-3.5-11.3l-2.3-6.2 2-1.8 2.1-1.9-2.1-1.7c-2-1.5-2-2-1-6 2.5-9.5 2.2-12.7-2-23.8-3.6-9.3-3.9-10.7-2.5-12 1.2-1.3 1.6-1.3 2.3-.1.7 1.1.9 1.1 1.3 0s.8-1.1 1.9-.2c1.2 1 1.7.8 2.8-.8 1.2-2 1.3-2 3.3-.2 2.1 1.8 2.1 1.8 1.6-2.7-.3-2.5-.1-5.4.3-6.5s.8-1.4.8-.8c.1.7.9 1.3 2 1.3 1.9 0 3.1-3.4 3.1-8.7 0-2.1.3-2.2 2-1.3 1.1.6 2 .8 2 .6 0-1.4-3.7-9.7-6.4-14.1-1.7-2.9-2.8-6.2-2.7-7.9.1-2.2-.8-3.8-4.2-7-2.4-2.2-5.4-5.6-6.6-7.4-5.2-7.5-17.6-10.1-29.1-5.9"/></svg>