<svg xmlns="http://www.w3.org/2000/svg" width="682.667" height="512" version="1.0" viewBox="0 0 512 384"><path d="M155.1 74.1c-3.5 1.1-6.7 1.7-7 1.2s-1.9-1-3.5-1.1c-4.9-.3-8.5 4.5-5.5 7.5.9.9.8 2-.4 4.5-2.4 5.3-3.7 10.9-2.7 12.6.4 1 1.6 3.6 2.5 5.8 1 2.5 2.7 4.6 4.2 5.3 2.2 1 2.5.9 1.9-.5-.5-1.2-.2-1.5 1-1 .8.3 1.8.6 2 .6 1.3 0 0 3.1-2.2 5.3l-2.5 2.6 2.5 1.6c1.4 1 2.6 2.2 2.6 2.9 0 .6 1.7 3 3.8 5.3 3.9 4.2 3.9 6.3.2 6.3-.8 0-2.4 1.2-3.4 2.7-1.9 2.5-1.9 2.8-.2 5.6l1.7 3-5.9 5.2c-3.1 2.9-6.6 7-7.7 9.1s-3 5.4-4.2 7.2c-1.6 2.4-2.3 5-2.3 8.1 0 5 1.6 7.5 6.4 10.5l2.9 1.8-.6 9.4c-.5 9.4-2.6 15.1-7.9 22.3-1.3 1.7-1.5 2.7-.8 3.6s.2 3.5-1.6 8.6c-3.7 10.8-3.8 11-2.6 11.8.7.4.3 3.8-1.4 10.6-4.2 17.2-11.2 74.8-15 122.7l-.6 8.8h52.1c44.9 0 52.1-.2 52.1-1.5 0-.7-1.5-10.8-3.4-22.2s-4.4-28.9-5.6-38.8c-2.8-23.5-11.6-59.7-17.9-74-2.6-5.8-2.6-5.5.1-5.5 2 0 1.9-.3-1.3-3.8-6.2-6.5-6.2-6.7-4.4-10.4 1-1.8 4.8-7.4 8.6-12.4 8.2-10.8 8.4-11.9 3.3-24.7-2.6-6.4-3.5-9.9-3.1-12.2.4-2.7.2-3.4-1.4-3.8-2.1-.6-2.6-4.6-.8-6.4 1.9-1.9 1.2-9-2.1-18.9-1.8-5.5-3.7-10.4-4.1-11-.6-.7-.2-1.8 1-2.8 1.7-1.6 1.9-1.6 2.5.1.6 1.4.9 1.5 1.6.3.7-1.1 1.1-1.1 2.4-.1.9.8 1.6 1 1.6.5s.4-1.6 1-2.4c.7-1.2 1.2-1.1 3 .5l2.1 1.9-.7-6.3c-.7-6-.6-6.4 1.2-5.7 3.5 1.4 3.9 1.1 4.9-3.9.8-4 1.4-5 2.8-4.7 1.7.3 1.7.2.2-3.5-.9-2.1-3.2-6.6-5.1-10-1.8-3.4-3.4-7.5-3.4-9.1 0-2.1-1-3.8-3.2-5.9-1.8-1.5-4.8-4.8-6.7-7.2s-5.3-5.2-7.5-6.2c-5.5-2.5-15.3-2.4-23.5.2"/></svg>