<svg xmlns="http://www.w3.org/2000/svg" width="682.667" height="512" version="1.0" viewBox="0 0 512 384"><path d="M162 70.6c-.8.3-4.4 1.4-8 2.6-4.4 1.4-6.5 1.7-6.8.9-.2-.6-1.9-1.1-3.7-1.1-4.4 0-8.1 4.1-6.2 7 .9 1.5.7 3.3-1.1 8.9-1.6 5-2 7.5-1.3 8.8.5 1 1.8 3.7 2.7 6 1.2 3 2.6 4.5 4.7 5.3 2.5.8 2.8.8 1.7-.5-1.4-1.6-.3-2 1.9-.6 1.5 1 .4 3.8-2.4 6.1-1.4 1.2-1.3 1.6 1.2 4.1 3.2 3.1 4.3 4.4 6.7 8.2 1 1.5 2.4 2.7 3.2 2.7s1.1.6.7 1.6c-.3.9-1.2 1.3-2.1.9-1.6-.6-7.2 4-7.2 6.1 0 .6.9 2.3 2 3.7l2.1 2.6-3.9 2.5c-4.7 3-10 9.1-10.9 12.6-.3 1.4-1.3 3.4-2.3 4.5-2.9 3.3-4 6.2-4 10.2 0 4.1 1.9 6.9 6.4 9.7l2.9 1.8-.5 10.4c-.4 8.7-.8 11-2.7 13.4-1.2 1.6-2.6 4.1-3.1 5.5s-1.5 2.5-2.1 2.5c-.7 0-.9 1.1-.5 3.4.5 2.4-.2 5.7-2.3 11.5-2.2 6.3-2.6 8.4-1.6 8.7 1 .4.8 2.4-1 9.2-3.6 13.1-5.2 23.7-9 58.2-3.2 29.1-4.4 42.5-6 66.7l-.7 9.3h52.1c28.7 0 52.1-.3 52.1-.8 0-.4-1.4-8.6-3-18.2s-4.1-26.9-5.5-38.5c-3.5-28.3-10.1-57.1-18.1-78.3-2.8-7.6-2.8-7-.9-7.4 1.1-.2.5-1.5-2.4-4.8l-3.9-4.5 2.8-5.6c1.6-3 5.8-9.3 9.4-13.9s6.6-9.1 6.6-10.1c0-2.4-3.7-12.2-6.6-17.8-1.6-2.8-2.2-5.4-1.9-7.6.3-2.7 0-3.4-1.6-3.8-1.8-.5-1.9-1.1-1.3-7.9.6-6.7.3-8.2-3.1-18.2-2.9-8.6-3.4-11-2.4-11.7.8-.5 1.7-.3 2.1.4.6.9 1.1.8 1.8-.3.8-1.2 1.2-1.3 1.9-.1.7 1 1.2.8 2.5-1 1.6-2.2 1.8-2.3 2.7-.7 1.8 3.2 3.1 2 2.4-2-.3-2.1-.2-4.9.4-6.2.5-1.4 1-2 1-1.3.1.6.9 1 1.9.9 1.2-.2 2-1.7 2.7-5.2.8-3.9 1.4-4.9 2.7-4.6 1.6.3 1.7 0 .3-4-.9-2.4-3.1-6.8-4.9-9.8-1.9-3-3.4-6.7-3.4-8.2 0-2-2-5-7.6-11.1-6.4-7-8.5-8.7-12.7-10.1-5-1.6-9.9-1.9-12.9-1"/></svg>