<svg xmlns="http://www.w3.org/2000/svg" width="682.667" height="512" version="1.0" viewBox="0 0 512 384"><path d="M153.5 67.9c-3.3.9-6.6 2-7.3 2.5-.7.4-1.8.3-2.5-.2s-2.2-1.3-3.4-1.6c-3.8-1.2-9.8 6.4-6.1 7.6 1 .4.7 2.2-1.1 7.1-1.7 4.8-2.1 7.5-1.5 9.4.4 1.6.8 3.3.9 4 0 .7.6 1.8 1.3 2.5.6.6 1.2 1.7 1.2 2.3 0 1.9 4.1 4.6 6.1 4 2.5-.8 2.5 1.2-.1 4l-2 2.2 4.2 4.8c2.4 2.7 5.3 5.9 6.5 7.2 2.5 2.6 2.1 5.3-.9 5.3-1.2 0-3.1 1.1-4.3 2.4l-2.3 2.5 2 3.2 2 3.3-3.6 2.9c-3.8 3-10.6 11.7-10.6 13.5 0 .6-1.3 3.3-3 5.9-5 7.9-3.4 15.2 3.9 18.2 3.8 1.6 4.2 3.5 3 13.8-.9 8.2-3.4 14.4-7.7 19.5-1 1.2-1.1 2.2-.4 3.4.9 1.7-1.8 11.9-4.7 17.2-.9 1.7-.8 2.3.5 3s1.2 2-1.5 11.1c-3.7 12.3-8.4 44.1-12.6 85.1-.7 7.2-3.5 44.9-3.5 47.7v2.3h53c49.2 0 53-.1 53-1.7 0-.9-1.3-9.8-2.9-19.7-3.7-22.2-4.7-29.3-6.6-46.6-2.4-20.9-11.6-58.2-17.9-72.4l-2.5-5.6h5.3l-3.7-3.8c-3.6-3.7-3.7-3.8-1.8-5.7 1-1.1 2.6-4.3 3.5-7 .9-2.8 4.2-9.2 7.3-14.3 5.5-9.2 5.6-9.3 4.4-13.5-.7-2.3-2.9-7.1-4.9-10.7-4.5-7.9-5.5-11-4.1-12.7.9-1 .5-1.5-1.5-2.3-2.3-.9-2.6-1.5-2.6-6.2 0-2.9-.7-7.8-1.6-10.8-.8-3-2.2-8-3.1-11-.8-3-2-6.1-2.5-6.8-.6-.7-.8-1.6-.4-1.9.4-.4 1.2-.1 1.7.7.8 1.2 1.2 1.2 1.6.2s.8-1 1.9-.1 1.8.7 3.3-1c1.6-1.8 2-1.9 2.5-.6 1.1 2.9 2.6 1.5 2.6-2.4 0-4.8 2.4-11.1 3.3-8.7 1.1 2.9 2.5 1.7 3.8-3.4 1-4.1 1.6-4.9 3.1-4.4 1.7.5 1.7.3.2-3.8-.8-2.3-3-7.1-4.9-10.6-1.9-3.4-3.5-7.4-3.5-8.8 0-1.8-2.3-5.1-7.7-10.9-10.6-11.6-16.9-13.6-30.8-9.6m355.9 268.8c-3.2.6-5.1 3.2-6.8 9.3-5.1 19-6.9 24.6-8 25.8-.6.6-6.9 1.9-14 2.7-7 .8-13.5 1.9-14.6 2.5-1 .5-2.3 2.3-2.8 4l-1.1 3H512v-24c0-13.2-.1-23.9-.2-23.9-.2.1-1.3.4-2.4.6"/></svg>