<svg xmlns="http://www.w3.org/2000/svg" width="682.667" height="512" version="1.0" viewBox="0 0 512 384"><path d="M151.2 65.6c-2.9.7-6.2 1.9-7.4 2.5-1.6.8-2.2.8-2.9-.2-1.4-2.4-5.8-2.1-8.4.6-2.4 2.3-2.5 2.6-1 4.9 1.5 2.2 1.5 2.8.2 5.3-2.5 4.7-3.8 11.1-2.8 13 .5 1 1.7 3.7 2.6 6 1.2 3 2.6 4.5 4.7 5.2 1.7.6 2.6.6 2.3.1-.4-.6-.2-1 .4-1 2.3 0 2.1 2.4-.3 4.9l-2.7 2.8 2.6 1.7c1.4.9 2.5 2.3 2.5 3.1s.4 1.5.9 1.5 1.9 1.6 3.1 3.5 3 3.5 4 3.5c1.6 0 1.7.3.7 2.4-.7 1.4-1.7 2.1-2.8 1.9-1.5-.4-6.9 4.2-6.9 5.8 0 .3.9 1.8 2 3.2l2.1 2.6-5.9 5.9c-3.2 3.2-6.4 7.3-7.1 9.2s-1.7 4.2-2.2 5c-4.1 6.6-5.1 13.9-2.3 17.9.9 1.3 3.2 3 5.2 3.8l3.5 1.4-.6 9.9c-.5 9.8-2.4 15.2-7.5 21.2-1.1 1.3-1.2 2.1-.3 3.1.8 1.1.4 3.5-1.9 10.2-2.2 6.5-2.7 9.1-1.8 9.6.9.6.3 3.5-2 11.1-3.6 11.8-6.2 25.6-9.2 48.3-1.1 8.8-2.7 20.5-3.5 26s-2.2 16.7-3 25c-.9 8.2-2 18.6-2.5 22.9-.6 4.4-1 9.4-1 11.3v3.3h110.2l-.6-2.8c-2.5-12-7.8-48-9.6-64.7-.6-5.5-1.8-14.1-2.7-19-2.8-16.5-14.5-56.6-17.6-60.3-.8-1.1-.5-1.2 1.8-.6l2.9.7-2.2-3.1c-2.7-3.7-2.7-4.3-.4-6.3 1.1-.9 2.4-4.3 3.1-8 .7-3.5 2.8-10 4.7-14.6 1.9-4.5 3.4-9.3 3.4-10.7s-2.2-6.8-4.9-11.9c-3.4-6.6-4.8-10.4-4.6-12.7.2-2.4-.2-3.4-1.5-3.7-2.1-.6-3-3.1-3-8.7 0-3.5-2.5-14.8-5.1-23.3-1.1-3.4-.3-6.5 1.1-4.4.8 1.4 4 .4 4-1.3 0-.6.9 0 2 1.4l2 2.5v-5.3c0-3.6.4-5.4 1.4-5.8.8-.3 1.7-1.5 2-2.7.6-2.1.7-2.1 1.7-.4 1.5 2.6 3.6.6 4.4-4.4.6-3.4 1-3.9 2.6-3.4 1.7.6 1.9.3 1.3-2.2-.3-1.5-2.4-6.6-4.5-11.2-2.2-4.6-3.9-9.5-3.9-10.8 0-1.7-2.5-5.2-7.7-10.9-6.5-7.1-8.6-8.7-12.7-9.9-6.1-1.8-11.5-1.8-18.4.1m311.2 266.5c-6.3 2.4-9.4 5.2-9.4 8.7 0 4.9-4.8 26.4-6.2 27.7-.7.7-5.4 2-10.4 2.9-12.2 2.1-20.4 6.8-20.4 11.5 0 .8 14.7 1.1 48 1.1h48v-4.5c0-4.1-.2-4.6-3.4-5.9-4.1-1.7-4.9-3.1-7.6-13l-2.1-7.8 2.6-3c1.4-1.6 2.5-4.1 2.5-5.4 0-3.9-3.7-10.3-6.3-10.8-19.8-3.7-28.4-4.1-35.3-1.5"/></svg>