<svg xmlns="http://www.w3.org/2000/svg" width="682.667" height="512" version="1.0" viewBox="0 0 512 384"><path d="M155.5 66c-2.7.4-6.8 1.5-8.9 2.4-3.6 1.5-4.3 1.5-7.2.1-2.8-1.3-3.7-1.3-5.4-.3-2.7 1.7-3.4 4.2-1.9 6.6 1 1.6.8 2.9-1 7.2-2.2 5.1-2.7 13.7-.8 15.1.4.3 1.6 2.1 2.5 4 1.3 2.7 2.3 3.4 4.7 3.5 3.2.1 3.6 1.9.9 4-1.8 1.4-1.8 3.1 0 4.1 1.7.9 6.1 6.8 7.5 10 .6 1.3 1.7 2.3 2.5 2.3q1.35 0 .9 2.1c-.4 1.2-1.1 1.8-2 1.5-1.7-.7-6.3 4-6.3 6.4 0 1 .7 2.3 1.5 3 2.2 1.9 1.8 3.6-1.4 5.9-4.3 3.1-9.4 10.6-13 19s-3.7 10-1.4 14.9c1.2 2.5 2.8 4 5.6 5.1l4 1.5-.5 8.8c-.5 8.6-3.2 16-7.5 20.9-.9 1.1-1.2 2.6-.7 4.3q.6 2.7-2.1 10.2c-2 5.5-2.4 7.8-1.6 8.8s.3 3.7-1.9 10.7c-3.3 10.2-6.1 22.8-8.4 38.4-.8 5.5-2.5 16.1-3.6 23.5-4.5 29-9 65.5-9 72.6 0 1.2 9.4 1.4 55.6 1.4h55.6l-.5-2.3c-1.9-7.6-7.7-47.8-9.7-67.7-.7-5.8-2-14.8-3.1-20-2.7-13.4-10.4-40.7-13.8-49-2.7-6.7-2.8-7-.9-7s1.9-.1-.1-2.6c-2.6-3.3-2.6-4.2-.1-6.9 1.1-1.2 2.8-5.5 3.9-9.6 1-4 3.3-10.4 5-14.2 1.7-3.7 3.1-7.9 3.1-9.3 0-2.5-4.7-12.8-8.2-17.7-1.2-1.7-2-4.4-2-6.7.1-2.9-.4-3.9-1.9-4.3s-1.9-1.4-1.9-4.9c0-2.4-.7-7.1-1.6-10.3-.9-3.3-2.2-8.5-2.9-11.5-.8-3-1.7-6.4-2-7.5-.4-1.2-.3-1.5.2-.9 1.2 1.7 4.3 1.3 4.3-.5.1-1.2.6-1 2 .8l2 2.3v-4.3c0-4.9 1.2-7.5 2.9-6.5.7.5 1.1-.2 1.1-1.8 0-3.2 1.5-3.4 2.5-.4.6 2.1.8 2 2.5-1.7 1.1-2.2 2-5.1 2-6.4 0-2 .2-2.2 1.5-1.1.9.7 1.8 1.1 2 .8.7-.7-2.4-10.8-5-15.9-1.3-2.5-2.7-6.3-3.1-8.5-1-5.4-13.1-18.8-18.8-20.8-5.6-2-10.2-2.5-16.1-1.6m291.7 278c-7.4 3.8-10.2 7.2-10.2 12.2 0 4.5-3.3 22.8-4.4 24.7-.4.6-2.1 1.5-3.9 2-2.1.6 7.3.9 28.6 1 31.6.1 31.8.1 30.7-1.9-.6-1.1-2-5.5-3-9.7l-2-7.6 2.6-3.4c3.1-4 2.7-8.6-.9-12.9-2.5-2.9-11.4-5-25.2-6-6.9-.5-8.6-.3-12.3 1.6"/></svg>