<svg xmlns="http://www.w3.org/2000/svg" width="682.667" height="512" version="1.0" viewBox="0 0 512 384"><path d="M149.6 71.1c-4.4 1.5-6.5 1.8-8 1.1-4.3-2.1-5.4-2-7.5.2-2.4 2.5-2.6 3.9-.9 6.5.9 1.5.8 2.7-.7 5.7-2.6 5.5-2.5 11.9.3 17.6 2.3 4.6 5.2 8 5.2 6 0-1.3 3.3-.9 3.7.5.2.5-.6 1.8-1.7 2.8-2.5 2.3-2.6 4.2 0 5 1.1.3 2 1.1 2 1.7s1.4 2.6 3 4.5c1.7 1.8 3 3.8 3 4.3 0 .6 1.1 1 2.5 1h2.4l-2.3 2.5c-1.3 1.4-3 2.5-3.7 2.5-1.7 0-4.9 3.5-4.9 5.3 0 .6.7 2.1 1.5 3.1.8 1.1 1.5 2.2 1.5 2.6 0 .3-2.4 3-5.2 6.1-2.9 3-5.9 6.8-6.6 8.4-.8 1.7-2.3 4.7-3.4 6.8-1.1 2.2-2.2 6.3-2.5 9.3-.5 5.1-.4 5.5 3 8.9 1.9 1.9 4.3 3.5 5.2 3.5 1.6 0 1.7 1 1.3 9.7-.4 8.2-.9 10.6-3.1 14.7-1.5 2.7-3.1 5.4-3.6 6s-.8 2.9-.8 5.1-1.1 6.7-2.4 10.1c-1.9 4.4-2.3 6.7-1.7 8.4s0 4.9-2.1 11.4c-4.1 12.4-5.2 17.2-11.5 53.6-6.2 35.3-8.1 47.2-9.6 61-.5 5.2-1.3 11.2-1.6 13.2l-.6 3.8h112.4l-.6-2.7c-1.5-7.4-5.7-37.9-7.6-55.8-1.2-11-3.3-25.2-4.6-31.5-2.9-13.5-10.7-41.2-13.4-47.5-1.9-4.5-1.9-4.5 0-4.5 2.8 0 2.5-1.2-1-4.5s-3.8-5.5-1.1-8c1.1-.9 3-4.7 4.1-8.4 1.2-3.6 3.9-9.8 6.1-13.7 2.1-3.9 3.9-8.4 3.9-10 0-3.5-2.8-9.8-6.9-15.8-1.7-2.4-2.7-4.6-2.4-4.9.3-.4.1-1.2-.5-2-.7-.8-.7-1.8-.2-2.7 1.1-1.8.4-3-2.1-3-2 0-2.3-1.2-2-6.5.1-1.7-1.1-6.8-2.7-11.5-4.1-11.9-4.5-14.7-2.5-15.9 1.2-.6 2-.5 2.9.7 1.3 1.8 1.6 1.1 2.9-6.3.4-2.2 1-3.4 1.2-2.8.8 2.2 2.3 1.4 2.3-1.1 0-3.2 1.6-4.2 2.3-1.4.9 3.1 3.1.8 4.7-4.7 1.2-4.4 1.4-4.5 3.1-2.9 1.1 1 1.9 1.5 1.9 1.3 0-1.9-4.5-15.9-6-19-1.1-2.1-2-5.2-2-6.8 0-2.4-1.6-4.8-7-10.8-3.9-4.3-8.8-8.7-10.8-9.8-5.4-2.9-16.9-3.1-24.6-.4m285.8 285.8c-3.1.8-11.3 8-11.6 10.3-.1.7-.2 3.8-.3 6.8 0 3-.4 6.5-.9 7.7l-.7 2.3H470v-2.5c0-1.4.9-4.4 2-6.6 1.8-3.4 1.9-4.4.9-7.9-1.4-4.5-4.2-8-6.7-8.1-2.3-.1-5.3-.5-14.2-1.8-8.5-1.2-12.1-1.2-16.6-.2"/></svg>