<svg xmlns="http://www.w3.org/2000/svg" width="682.667" height="512" version="1.0" viewBox="0 0 512 384"><path d="M135.4 75.1c-2.5 2.6-2.6 3.1-1.4 5.3 1.1 2.1 1 3.1-.5 6.8-1.8 4.3-2.8 16.1-1.3 15.2.5-.3 1.3.7 1.9 2.3 1.7 4.5 3.9 6.4 6 5.3 2.8-1.5 3.5.8 1.1 3.9l-1.9 2.7 3.4 3.9c1.8 2.2 4.1 5.2 4.9 6.7.8 1.6 2.3 2.8 3.4 2.8 2.4 0 3.5 1.6 1.5 2.4-.8.3-1.2 1.1-1 1.8.3.8-.4 1.4-2 1.4-2.8.2-6.5 3-6.5 4.9 0 .7.9 2.4 2 3.8l2 2.5-2.3 1.9c-3.5 2.7-9.1 10.5-12.8 17.5-5.3 10.2-4 20.7 2.7 22.4 3.7.9 4.3 3.2 3.5 12.5-.8 7.9-3.3 14.8-7.2 19.5-.6.7-.8 2.3-.4 3.4.4 1.3-.4 5.3-2.1 10.1-2 5.8-2.5 8.2-1.6 8.8.8.5.2 3.6-2.3 11.1-1.8 5.8-4.5 16.1-5.9 23-5.7 27.8-17.6 99-17.6 105.2 0 1.7 3.3 1.8 55.5 1.8 30.5 0 55.5-.4 55.5-.8 0-.5-1.1-8.5-2.5-17.8s-3.5-25.5-4.5-35.9c-2.2-21-3.9-31.2-7.6-45.7-3.5-13.9-9.2-32.4-11.3-36.9l-1.9-3.8 3.2.6 3.1.6-4.7-5c-2.7-2.7-4.8-5.4-4.8-6.1 0-.6 1.1-1.9 2.4-2.7 1.4-.9 2.9-3.4 3.6-6.1.7-2.5 3.7-8.6 6.6-13.5 6.6-11.1 6.9-14.1 2.1-22-3.2-5.3-4.7-7.9-6.6-11.8-.6-1-.7-2.8-.5-3.8.4-1.5 0-2.2-1.5-2.6-1.8-.4-2.1-1.2-2-4.9.1-2.6-1.2-8.4-3.5-15.1-2-5.9-3.6-11.6-3.6-12.7 0-2.3 1.9-2.3 3.7 0 1 1.2 1.4.7 2.4-3.3.7-2.6 1.9-4.7 2.5-4.7.7 0 1.6-1.4 1.9-3.2l.7-3.2 1.6 2.9c1.7 3.3 1.2 3.8 4.6-4.7 1.1-2.7 1.9-3.6 3-3.2 1 .4 1.6.1 1.6-.9 0-2.2-4-14.8-5.8-18.2-.9-1.7-1.5-4.2-1.3-5.7.2-2.1-.9-3.9-4.9-7.8-2.8-2.8-5.7-6.2-6.6-7.5-4.3-6.5-19.3-8.6-31.5-4.4-5.2 1.8-6.2 1.9-7.2.6-2.3-2.7-4.4-2.6-7.3.4m287.1 299.6c-2.8 1.4-8.1 8-7.2 8.9.2.3 10.9.3 23.7.2l23.4-.3-3.4-3.8c-2.4-2.8-4-3.8-5.9-3.6-1.4.1-4.4-.3-6.6-.9-7.1-1.9-20.6-2.3-24-.5"/></svg>