<svg xmlns="http://www.w3.org/2000/svg" width="682.667" height="512" version="1.0" viewBox="0 0 512 384"><path d="M152.5 73.4c-2.2.7-5 1.8-6.2 2.4-1.9 1.1-2.4.9-3.3-.8-1.5-2.9-5.7-2.3-8.3 1.2-1.7 2.2-1.8 3-.7 4.2 1.3 1.6 1.2 2.5-1.4 11.6-1.1 3.7-1.2 5.6-.5 6.1.8.4.7 1.3-.1 2.9-.7 1.4-.8 2-.1 1.6.6-.4 1.9 1.1 3.1 3.4 1.1 2.2 2.5 4 3.1 4s.8-.4.5-.9c-.4-.5.5-.4 1.9.2 3 1.4 3.1 2.8.5 5.2l-2.1 1.9 2.1 2c1.1 1.2 3.7 4.2 5.7 6.8 2.6 3.6 4.3 4.8 6.2 4.8 2.5.1 2.6.1.6 1.6-1.1.8-1.9 2-1.7 2.5.1.5-.5.9-1.3.9s-2.9 1.3-4.7 2.9l-3.2 2.8 2.2 2.8 2.2 2.8-3.8 4.1c-8.3 9.1-13.1 18-13.9 26.1-.7 6.6 1.1 9.9 6.4 12.2l3.6 1.4-.7 9.1c-.3 5-1.2 10.3-1.9 11.7-2.1 4.2-4.1 7.5-5.6 9.3-1 1.4-1.1 2.1-.2 3.1.9 1.1.4 3.4-2.1 10.2-2.3 6.4-2.8 8.9-1.9 9.4.9.6.3 3.8-2.2 12.7-1.9 6.5-4.6 19.3-6.1 28.4s-4.4 27.3-6.6 40.5c-4 24.2-7.4 46-8.5 54.8l-.6 4.7H158c52.1 0 55.1-.1 54.6-1.8-.9-2.8-5.6-34.9-6.7-45.7-2.2-22.5-4.2-35.7-7.5-49-4.6-18.3-9.1-33.7-12-40.2l-2.2-5.2 2.4.9c1.3.5 2.4.7 2.4.4s-2.1-2.7-4.6-5.4l-4.7-5 2.6-2c1.4-1.1 3.3-4.2 4.2-7 .9-2.7 4.1-8.8 7.1-13.6 3-4.7 5.4-9.7 5.4-11.1 0-2.6-4.6-12.6-8.2-17.6-1.2-1.7-2.2-4.6-2.2-6.4 0-2.3-.5-3.5-1.8-3.9-1.4-.4-1.8-1.6-1.7-6.2.1-4-.6-7.5-2.5-11.9-1.4-3.5-2.6-7-2.6-7.8 0-.9-.6-2.8-1.4-4.4-1.3-2.4-1-4.9.7-5.4.3-.1 1.4.6 2.5 1.6 1.9 1.7 2 1.7 3.1-2.8.6-2.5 1.5-4.5 2-4.5s1.2-1.1 1.5-2.5c.8-3 2.2-3.2 3.1-.4.9 2.7 1.6 1.8 3.6-3.9 1.3-3.8 2-4.6 3.7-4.4 2.1.3 2.1.2-.5-8-1.4-4.6-3.1-9.5-3.9-11s-1.4-4-1.4-5.6c0-2.4-1.7-4.7-8.2-11.5-5.1-5.1-9.6-8.9-11.7-9.6-4.4-1.4-15.5-1.3-20.6.3"/></svg>