<svg xmlns="http://www.w3.org/2000/svg" width="682.667" height="512" version="1.0" viewBox="0 0 512 384"><path d="M138.5 70c-1.2 1.3-1.9 3.8-2.1 7.1-.1 2.7-.7 5.6-1.4 6.4-.6.8-.9 1.8-.6 2.3.2.4.2 3-.2 5.8-.6 3.9-.4 5.5 1.1 8.2 1.1 1.7 2.4 3.5 3 3.9.6.3.7.1.3-.5-1.3-2.1 1-1.3 3.2 1.1 2.6 2.7 2.7 4 .7 5.7-1.2 1-.8 1.9 2.5 6.3 2.1 2.9 4.9 6.4 6.2 7.8 3.1 3.4 2.6 5-2.7 7.8-2.5 1.3-4.5 2.7-4.5 3.1s1 2 2.2 3.5l2.1 2.7-3 2.3c-3.6 2.9-11.3 12.7-11.3 14.5 0 .7-.7 2.1-1.5 3-1.9 2.1-2.9 6.1-2.9 11.4 0 3 .6 4.4 2.8 6.2 1.5 1.3 3.4 2.4 4.1 2.4 2.1 0 2.8 4.1 2.3 13.1-.4 6.1-1 8.6-2.7 10.9-1.2 1.6-2.6 4.1-3.1 5.5s-1.5 2.5-2.1 2.5c-.7 0-.9 1.2-.5 3.5.5 2.6-.1 5.3-2.4 11.1-3.5 8.7-3.4 8.5-1.6 7.8 1-.4.8 1.7-1 9.3-2.2 8.6-4.4 24.8-9.8 70.3-.8 6.9-1.9 24.2-2.5 38.5s-1.4 27-1.7 28.3l-.6 2.2h50.6c27.8 0 50.6-.3 50.6-.8 0-.4-1.3-8.3-2.9-17.7-4-23.2-5.8-35.5-7.7-52-.8-7.7-2.4-18.2-3.4-23.5-2.4-11.6-9.2-36.5-12.5-45.9-2.9-8-3-8.2-1-7.5 2.5 1 1.8-.4-3.6-6.8-6-7.3-6-8 1.2-18.7 5.9-8.8 6-10.6 2-23.1-2.4-7.5-2.7-9.1-1.5-10.1 1.9-1.6 1.8-2.5-.7-4.8-1.3-1.2-1.7-2.1-1-2.6.6-.3.9-1 .6-1.5-.3-.4.2-2.1 1-3.6.8-1.6 1.5-4.5 1.5-6.4 0-5.5-3.6-21.5-5.5-24.4-1-1.4-1.3-2.6-.7-2.6s1.2-.7 1.4-1.5c.3-1.3.6-1.3 3.2 0 3.6 1.9 3.6 1.9 3.6-1 0-3.3 3.9-7.3 5.1-5.4.6 1 .9 1.1.9.1 0-.6.5-1.1 1.1-1 .7.2 1.6-1.2 2.1-3.1 1-3.6 2.9-6.1 4.8-6.1.8 0 .9-.6.5-1.8-.5-.9-1.4-4.6-2.2-8.2-.8-3.5-2.3-7.8-3.4-9.6-1-1.7-1.9-4-1.9-5.1s-1.8-3.9-4-6.2-4.8-5.3-5.7-6.7c-2.4-3.8-9.2-7.3-15.3-7.9-5.1-.6-10.9.5-21.7 4-1.7.6-2.2.3-2.5-1.6-.4-3.1-2.9-3.5-5.3-.9"/></svg>