<svg xmlns="http://www.w3.org/2000/svg" width="682.667" height="512" version="1.0" viewBox="0 0 512 384"><path d="M140 71.2c-1.3 1.5-2 3.2-1.7 4.6.3 1.3-.4 4-1.3 6-1 2-1.5 3.8-1.1 4 .4.1.3 2.4-.3 5.1-.7 3.5-.6 5.6.3 7.7 1.4 3.4 5.6 8.8 4.7 6.1-.8-2.6.9-2.1 2.9.9 1.5 2.3 1.5 2.7.1 4.9-1.5 2.3-1.5 2.5.4 3.5 1.1.6 2 1.7 2 2.4s.9 2.1 2 3.1 2 2.3 2 3 .9 2 2 3c2.9 2.6 2.5 4.4-1.3 6-5.2 2.2-6.1 3.7-4 7.3l1.8 3.1-4.8 4.1c-4.9 4.4-8.8 9.2-9.1 11.4-.1.8-.7 2-1.3 2.7-4 5.1-5.5 12.8-3.2 17.1.6 1.1 2.6 2.6 4.6 3.4l3.5 1.5-.4 9.7c-.3 9.1-.5 10.1-3.9 15.8-2.5 4.1-3.6 7.3-3.7 10 0 2.1-1.2 6.8-2.7 10.2-1.8 4.5-2.3 6.7-1.6 7.6s.5 3.3-.9 8.1c-2 6.8-5.2 24.8-7 38.5-.5 4.1-2.1 14.7-3.5 23.5-1.5 9.5-2.9 24.5-3.5 37-.6 11.6-1.7 25.2-2.5 30.2-.8 5.1-1.5 9.7-1.5 10.3 0 .7 17.7 1 52.1 1h52.1l-.6-2.7c-2.1-10.3-7.9-49.4-10-67.8-2.6-22.8-7.7-46-14.6-66.6-3.5-10.5-3.4-9.9-1.5-9.9 2.3 0 1.9-.9-3-6.1-2.5-2.6-4.5-5.3-4.5-5.9 0-.7 1.2-4.6 2.6-8.8 2.6-7.3 2.6-8.1 2-22.3-.7-14.3-.7-14.7 1.3-15.4 2.6-.8 2.7-2.1.2-3.7-2-1.2-1.8-2.7 1.4-10.2 1.5-3.6 1.5-4.4-.5-14.5-1.2-5.8-3.1-11.9-4.2-13.5-1.8-2.5-1.9-3-.5-4.4 1.3-1.3 1.9-1.3 3.2-.2s1.6.8 2.1-1.9c.8-3.8 2-4.7 4-3 1.2 1 1.6.9 2.1-1 .4-1.6.8-1.9 1.9-1 1 .8 1.6.3 2.9-2.6.8-2.1 1.5-4.2 1.5-4.7s.5-.6 1-.3c.6.3 1-.1 1-.9 0-1 .6-1.3 1.5-1 1.3.5 1.3.2.1-2.7-.7-1.9-1.2-4.8-.9-6.4.3-2.1-.5-4.8-2.6-8.9-1.7-3.2-3.1-6.6-3.1-7.5 0-1.7-5.5-8.7-12.1-15.1-6.2-6.2-16.7-7.7-26.9-3.9-9.4 3.4-10.2 3.5-9.8.8.4-3.2-2.4-3.6-5.2-.7m296.5 300.9c-5.1 1.6-9.5 6.6-9.5 11 0 .5 9.8.9 24 .9 13.2 0 24-.2 24-.5 0-1.7-2.9-7.2-4.5-8.5-1-.8-3.7-1.6-5.9-1.7-2.3 0-5.9-.6-8.1-1.2-4.8-1.3-15.8-1.3-20 0"/></svg>