<svg xmlns="http://www.w3.org/2000/svg" width="682.667" height="512" version="1.0" viewBox="0 0 512 384"><path d="M141 71.9c-1.2 1.7-2 3.9-1.9 4.8.2 1.9-.6 4.5-2.2 7.6-.5 1-.7 2.2-.4 2.6.2.5.1 3.1-.4 5.7-.9 4.4-.7 5.4 1.6 9.3 1.4 2.4 2.8 3.9 3.2 3.3.8-1.3 2.2-.4 3.8 2.4.9 1.7.8 2.4-.4 3.7-1.4 1.4-1.2 1.9 1.9 5.9 1.8 2.4 4 5.6 4.8 7.2s2 3 2.7 3.3c2 .8.3 3.3-3.3 4.8-4.3 1.8-5.1 3.8-2.9 7.2 1.7 2.6 1.7 2.7-.1 3.8-3.3 1.8-11.5 10.9-12.1 13.5-.3 1.4-1.7 3.9-3 5.6-5.9 7.8-5.1 14.9 1.9 18.5l4.1 2.1-.5 9.3c-.5 8.7-.8 9.9-4.3 15.7-2.6 4.3-3.7 7.3-3.6 9.6.1 1.7-1 6.2-2.5 9.9-1.9 4.8-2.4 7.1-1.7 8.2.6.9.6 2.3.2 3.1-1.3 2.2-5.6 23-7.4 35.5-.9 6-3 19.3-4.6 29.4-1.7 10.2-3.4 24.8-3.9 32.5-1.3 18.7-3.9 40-5.6 45.8-.5 1.7 2.5 1.8 52.5 1.8 29.2 0 53.1-.4 53.1-.8 0-.5-1.6-10.7-3.5-22.8-1.9-12-4.6-32.2-6-44.9-1.9-16.9-3.6-27.3-6.6-39-4.6-18.7-8.5-31.9-10.5-35.8-1.4-2.5-1.3-2.7.6-2.7 2.8 0 2.6-.5-2-5.7-2.2-2.5-4-5.2-4-5.9s1.4-4.8 3.1-9.1c3.3-8.3 3.4-11.2 1.3-30.9-.6-5.7-.5-6.2 1.5-6.9 2.6-.8 2.7-2.6.1-4.3-1.5-.9-1.8-1.7-1.1-3 1.6-3.3 3.1-8.9 3.1-12 0-5.2-3.9-20.5-6-23.4-1.9-2.5-1.6-3.2 1.5-3.7.6-.1 2.4-1.5 4-3.1 2.5-2.4 3.3-2.8 4.4-1.8 1 1.1 1.4.9 2.2-.5.6-.9 1.4-1.5 2-1.2.5.4 1.3-.5 1.9-1.9.5-1.4 1.7-3.8 2.7-5.3 1.1-1.6 1.8-4.9 1.9-8.4.2-4.9-.3-6.9-3.2-12.6-1.9-3.7-3.4-7.5-3.4-8.3s-3.5-5.2-7.8-9.7c-5.8-6.2-8.7-8.4-11.7-9.2-6.3-1.7-12-1.3-20.1 1.4-4.1 1.4-7.6 2.5-7.9 2.5-.2 0-.5-1.2-.7-2.7-.4-3.8-2.2-3.9-4.8-.4m19 55.1c0 .5-.4 1-1 1-.5 0-1-.5-1-1 0-.6.5-1 1-1 .6 0 1 .4 1 1m268.2 230.5c-3.7 1.6-6.3 6.5-5.6 10.5.3 1.4-.1 5.5-.9 9.2l-1.5 6.8h23.4c20.1 0 23.4-.2 23.4-1.5 0-.8.9-2.4 2-3.5 5.5-5.5-1-21.8-8.3-20.7-1.6.2-4.6-.2-6.6-.9-4.9-1.8-21.7-1.7-25.9.1"/></svg>