<svg xmlns="http://www.w3.org/2000/svg" width="682.667" height="512" version="1.0" viewBox="0 0 512 384"><path d="M142.9 72.4c-2.7 2.7-4.4 8.9-3.3 12.3.5 1.5.4 1.5-.5.3-.6-.8-1.1-1.1-1.2-.5-.1.5-.3 2.2-.4 3.6-.2 1.4-.8 4.9-1.3 7.7s-.6 5-.3 4.8 1.7 1.4 3.1 3.5c1.8 3 2.6 3.6 3 2.4.4-1.3 1-1 2.7 1.3 1.9 2.6 2 3.1.7 4.4s-1.1 2.1 1.9 6.9c1.9 3 4.4 6.5 5.6 7.7 2.9 3.1 2.3 5.4-1.5 6.4-4.9 1.2-6.1 3.3-4.1 6.8l1.7 2.8-7 7c-3.9 3.8-7 7.7-7 8.7 0 .9-1.4 3.3-3 5.4-5.8 7.2-4.6 15.6 2.7 18.6l3.6 1.5-.6 8.9c-.5 8.5-2.1 13-7.3 21.2-.5.8-.9 3.2-1 5.4 0 2.2-1.7 8.2-3.8 13.3-3.1 7.5-3.9 10.8-4.1 16.5-.1 4-.9 11.2-1.8 16.2-4.4 24-9.8 60-11.7 78-1.8 17.9-4.1 33.8-5.6 38.7-.5 1.7 2.5 1.8 53 1.8 47.7 0 53.6-.2 53.6-1.5 0-.9-1.4-10.3-3-21-1.7-10.7-4.1-30.1-5.5-42.9-2.9-27.3-7.4-48.6-14.9-70.9-2.5-7.5-2.5-8.7.1-8.7.9 0-.1-1.8-3-5l-4.5-5 1.8-4.8c1-2.6 2.8-6.9 3.9-9.5 2.4-5.6 2.6-9.8.7-22.1-1.5-10.2-1.3-12.2 1.7-13l2.2-.6-2.3-2-2.3-1.9 1.7-7c1.6-6.7 1.6-7.2-.5-16.8-1.3-5.4-3.2-11.1-4.3-12.6l-2-2.8 2.6-2.4c1.4-1.3 2.6-3.1 2.6-3.9s.4-1.7.9-2c.4-.3.6.7.3 2.2-.5 2.5-.4 2.6 1.4 1.2 1-.8 2.2-2 2.6-2.5.5-.6.8-.3.8.6s.7 1.6 1.5 1.6 1.5-.6 1.5-1.4c0-.7.6-1.3 1.3-1.3 1.7 0 6.4-10.2 7.2-15.5.6-4.2-1.1-9.7-4.6-14.7-1.1-1.4-1.9-3.6-1.9-4.7 0-1.2-1.5-3.8-3.3-5.8-1.8-2.1-4.6-5.5-6.1-7.5-6.6-8.9-18.7-10.2-37.8-4.1-1.3.4-1.7-.2-2-2.7l-.3-3.3zM160 128c0 .5-.8 1-1.7 1-1.5 0-1.6-.2-.3-1 1.9-1.2 2-1.2 2 0m258.6 219.1c-2 2.4-2.6 4.1-2.5 7.3.1 4.1-4.7 24.3-6.2 26-.5.5-3.7 1.5-7.1 2.2-5.6 1.1-2.4 1.2 27 1.3 22.5.1 33.2-.2 33.2-.9 0-.6-.7-3.9-1.6-7.4l-1.6-6.3 2.6-2.6c3.2-3.2 3.4-7.3.6-12.8-2.1-4.1-7.3-8.1-9.4-7.3-.7.3-3.9-.2-7.1-1.1-3.4-.8-10.1-1.5-15.6-1.5-9.7 0-9.7 0-12.3 3.1"/></svg>