<svg xmlns="http://www.w3.org/2000/svg" width="682.667" height="512" version="1.0" viewBox="0 0 512 384"><path d="M143.1 74.4c-1.3 1.4-2.5 3.5-2.6 4.8-.2 1.3-1 4-1.9 6.2-.9 2.1-1.4 4.1-1.2 4.5.2.3 0 3-.5 5.9-.7 4.8-.5 5.8 1.6 9.2 2.7 4.3 4.5 5.8 4.5 3.8.1-.7.6-.3 1.3 1 .7 1.2 1.6 1.9 2 1.6 1.4-1.5.6 1-.9 2.7-1.4 1.6-1.3 2.1 1.8 6.2 8 11 9.3 14.7 4.9 14.7-1 0-2.9.8-4.2 1.8-2.1 1.8-2.2 2-.6 4.3 2.4 3.3 2.1 4.6-1.3 6.4-3.3 1.7-11.3 11.2-10.8 12.7.2.6-1.1 2.6-2.9 4.6-4.3 4.7-5.2 9.5-2.7 14.1 1 1.9 3.3 4.2 4.9 5.1l3 1.7-.2 8.7c-.1 4.9-.8 9.9-1.6 11.4-2.1 4.2-4.1 7.6-5.6 9.4-.8 1-1.1 2.7-.7 4.2.9 3.7-3.9 16-6.9 17.6-4.4 2.3-5.4 13.9-1.4 15.2.8.3.5 3.1-.9 9.8-2.9 13.2-10.6 61.5-13.7 85.7-1.4 11.1-3 22.5-3.5 25.4-.6 2.8-1 6.5-1 8v2.9h107.2l-.5-2.3c-1.5-6.1-6.1-39.9-8.2-60.9-1.4-13.1-3.6-28.6-5-34.5-3.3-14.4-9-35.2-10.9-39.8-2.1-4.9-2-5.3.7-5.7 2.1-.3 1.9-.6-2.1-5l-4.4-4.7 4.6-9.7c5-10.4 5.5-14.1 3.6-24.5-2-11.3-2-14.8.1-15.4 2.4-.8 2.4-2 0-3.7-2-1.4-2-2 .4-12.4.8-3.7-3.7-21.6-6.5-25.6-1.6-2.1-1.7-2.7-.5-3.2.8-.3 2.3-2.2 3.5-4.3 1.3-2.5 2-3.1 1.9-1.8-.2 3.7.1 3.9 2.6 1.5 2.3-2.2 2.5-2.2 2.5-.4 0 1.6.2 1.7 1 .4.9-1.3 1-1.3 1 0 .1.8.5.5 1.1-.8.5-1.3 1.3-2.1 1.8-1.8 1.6 1 6.1-12 6.1-17.8 0-1.6-1.6-5.8-3.5-9.3s-3.5-7.2-3.5-8.2-1-2.9-2.3-4.3c-1.2-1.3-4-4.6-6.2-7.2-7.2-8.8-15.8-11.2-28.5-7.8-4.1 1.1-8.5 2.4-9.7 2.7-1.9.6-2.2.3-2.5-2.5l-.3-3.2zM409 336.9c-2.7 2.7-3.1 3.7-2.8 6.9.3 2-.3 6.4-1.3 9.7-.9 3.3-2.4 8.5-3.3 11.6-1.8 6.6-1.1 6.2-17.7 8.4-6 .8-11.8 1.9-12.8 2.4-1.8 1-4.8 6.8-3.9 7.6.3.3 22.7.4 49.9.3l49.4-.3-5.5-2.1c-6.4-2.5-7.4-3.9-9.2-14.6l-1.4-7.7 2.9-2.2c2.7-2 2.9-2.5 2.5-7.1-.5-4.2-1.1-5.5-4.3-8.4-2.3-2-4.9-3.4-6.4-3.4-1.4 0-4.5-.7-6.8-1.5s-9.1-1.8-15.2-2.1l-11-.7z"/></svg>