<svg xmlns="http://www.w3.org/2000/svg" width="682.667" height="512" version="1.0" viewBox="0 0 512 384"><path d="M142.1 78.1c-1.7 2.9-4.1 11.3-4.6 16.9-.3 2.5-.7 5.5-1 6.7-.6 2.6 4.1 10.5 5.9 10.1 2.2-.6 4.4 2.5 3.4 4.8-1 2 .2 4.3 7.3 14.6 2.5 3.6 2.4 5.8-.2 5.8-5.2 0-7.4 3.6-4.5 7.5 1.3 1.8.9 2.4-4.9 7.7-3.7 3.5-6.8 7.2-7.5 9.2-.6 1.8-2 4.2-3.1 5.2-6.9 6.2-6.3 15.8 1.2 19.3l3.4 1.7-.1 8.6c-.1 5.2-.8 9.8-1.6 11.5-2.2 4.3-4.2 7.6-5.7 9.5-.8 1-1.1 2.7-.7 4.1 1.1 4.4-2.1 11.1-6.7 14.3-3.4 2.5-4.4 3.9-5.4 8-1.1 4.8-1.1 4.9 1.8 7.4l3 2.5-1.5 6.6c-2 8.6-12.7 74.2-16.1 98.9-1.5 10.7-2.9 20.7-3.2 22.2l-.5 2.8h53.6c29.5 0 53.6-.4 53.6-.8 0-.5-1.1-8.5-2.5-17.8s-3.6-28.1-5-41.7-3.2-27.8-4.1-31.5c-3.1-13.6-7.5-30.2-10.4-39.2-3.5-10.7-3.4-10-1.5-10 2.2 0 1.9-.7-2-5.2-3.9-4.6-4.1-3.2 3.1-15.9 3.7-6.4 4.4-8.5 4.4-13 0-5.2-2.4-20.1-3.6-22-.3-.5.6-2 1.9-3.3l2.5-2.5-2.3-1.5c-2.4-1.6-2.4-1.8-.4-10.2.9-3.5.6-5.5-2-14.4-1.7-5.7-3.8-11.4-4.7-12.7-1.4-2.2-1.3-2.6 1-5.4 1.5-1.7 2.6-3.5 2.6-4s.5-.9 1.1-.9c.5 0 .7.4.4 1-1.3 2.1.7 3.1 2.2 1 1.2-1.7 1.7-1.9 3-.8 1.2 1 1.8.9 2.8-.6 1.3-1.7 1.3-1.7 1.7 0 .6 3.2 5.3-12.9 5.3-18.2 0-4-.7-6.2-3.2-10.3-1.8-2.9-3.3-6.1-3.3-7.1 0-2.4-11.3-15.4-15.7-18.1-6.5-4-18.1-3.6-30.1 1.2-3.2 1.2-3.2 1.2-3.2-1.6 0-3.1-2-3.3-3.9-.4M396.8 327c-2.1 1.3-4.2 7.5-3.3 9.8.6 1.6-2.1 12.9-5.2 21.9-.8 2.3-2.2 4.4-3.1 4.8-.9.3-6.8 1.3-13.1 2.1s-12.3 2-13.4 2.5c-2 1.2-5.1 7.5-4.2 8.9s9.4 3.8 19.5 5.5c7.8 1.3 17.3 1.5 54 1.3l44.5-.3-3.2-2.3c-1.8-1.3-7.5-3.8-12.7-5.7-15.4-5.5-15-5.1-16.5-14.2-.7-4.3-1.5-8.6-1.7-9.7s.4-2 1.6-2.3c2.5-.7 4-5.3 3.3-9.8-.4-2.8-1.7-4.4-5.1-7.1-2.5-1.9-5.5-3.4-6.8-3.4s-4.9-.7-8.1-1.5c-6.4-1.7-23.9-2-26.5-.5"/></svg>