<svg xmlns="http://www.w3.org/2000/svg" width="682.667" height="512" version="1.0" viewBox="0 0 512 384"><path d="M142.1 79.9c-1.2 1.6-2.1 3.8-2.1 4.8 0 1.1-.3 2.3-.7 2.7-1 1-1.1 4.6-.1 4 .4-.3.8 0 .8.5 0 .6-.7 1.1-1.6 1.1-.8 0-1.3.4-1 .9.3.4.1 3.4-.4 6.5-.6 3.6-.6 6.2 0 6.9 2.9 3.6 6.1 7 5.5 5.9-.9-1.8.3-1.4 2.6.9 1.9 1.9 2 2.4.8 4.6-1.2 2.1-1.1 2.7.2 3.7 2.5 1.9 9.1 13.6 8.5 15.1-.3.8-1.6 1.5-2.9 1.5-4 0-5.3 2.5-3.4 6.5l1.6 3.4-3.3 2.1c-3.6 2.2-10.7 10.2-11 12.4-.1.7-1.7 3.2-3.6 5.6-5.9 7.4-4.6 14.6 3.4 18.7l2.9 1.5-.7 8.6c-.5 7-1.3 9.9-3.8 14.9-1.8 3.5-3.6 6.3-4.1 6.3s-.7 1.2-.4 2.7c1.1 5.3-1.2 10-6.4 13.4-4 2.5-5.1 3.9-6.2 7.7-1.6 5.3-1 7.2 2.7 9.2 2.7 1.4 3.2 3.3 1.7 7.3-1.4 3.7-11.3 64-16.1 98.2-1.7 12.1-3.3 23-3.5 24.2l-.5 2.3h53c45.9 0 53-.2 53-1.5 0-.8-1.1-9.2-2.4-18.7-1.4-9.5-3.4-27.4-4.6-39.8s-3-26.8-4.1-32c-2.6-12.2-9.6-38.1-11.5-42.5-1.8-4.4-1.8-5.5.1-5.5 2.3 0 1.8-1.3-1.5-4.5-1.6-1.6-3-3.4-3-4.2 0-.7 2.5-5.5 5.5-10.8 6.3-10.9 6.8-14.5 3.9-28.3-2.1-9.4-2-11 .3-12.8 1.7-1.3 1.7-1.5-.3-3.1-2.2-1.8-2.3-2.5-.8-11.5.7-4-4.6-21.8-7.4-25-1.3-1.6-1.2-2 1.2-4.8 1.4-1.8 2.6-3.7 2.6-4.3s.6-.3 1.3.7c1.2 1.6 1.4 1.6 2.6.2.9-1 2.2-1.4 3.7-1 1.8.5 2.4.2 2.4-1 0-.9.6-1.6 1.4-1.6 1.5 0 5.6-11.9 5.6-16.2 0-3-2-8-5-12.3-1.1-1.7-2-3.8-2-4.7 0-2.6-13.8-17.8-17.6-19.4-6.4-2.7-19-1.4-29.6 3.1-1.5.6-1.8.2-1.8-2.4 0-3.9-1.3-3.9-3.9-.2m16.6 54.7c-.3.3-1.2.4-1.9.1-.8-.3-.5-.6.6-.6 1.1-.1 1.7.2 1.3.5m226.8 192.9c-5.6 2-7.6 5-7.2 10.5.5 6.3-4 25.7-6.1 26.5-1 .4-5.7 1.3-10.5 2.1-11.7 1.9-18.1 5.2-19.7 10-1.5 4.4-.9 5.1 5.9 6.4 8.4 1.6 112.1 1.4 112.1-.3-.1-3.3-3.1-5-18.5-10.1-6-2-11.6-4-12.3-4.4-.6-.5-2.2-5.1-3.4-10.4l-2.2-9.6 2.8-3.3c2.4-2.8 2.7-3.9 2.3-7.4-.7-5.2-5.4-9.6-10-9.4-1.8 0-4.8-.4-6.7-1-4.9-1.6-21.7-1.3-26.5.4"/></svg>