<svg xmlns="http://www.w3.org/2000/svg" width="682.667" height="512" version="1.0" viewBox="0 0 512 384"><path d="M140.8 80.2c-2.6 5.5-4.1 11-4.5 16.8-.2 3-.6 6.1-.8 6.8-.6 1.8 4.7 9.3 6.1 8.8 1.1-.4 4.4 2.8 4.4 4.3 0 .5-.7 1.2-1.6 1.5-1.5.6-1.5.9.3 2.9 2.7 3.1 8.8 11.9 9.5 13.9.5 1.2-.3 2-3.3 3.2-4.8 1.9-5.6 3.6-3.4 7 1.7 2.6 1.3 4.6-1 4.6-1.6 0-9.3 8.5-10.8 12-.6 1.4-2.6 4.7-4.4 7.4-4.1 6-4.3 10.3-.7 14.5 1.4 1.7 3.2 3.1 3.9 3.1s1.8.7 2.5 1.6c1.1 1.2 1.1 3.3.1 10.6-1 7.9-1.7 10-5.1 15.1-3 4.6-3.7 6.4-3 7.8 1.5 2.8-3.1 12.2-7.2 14.6-2.7 1.6-3.6 3-4.7 7.3l-1.4 5.3 3.1 2.6 3.1 2.6-1.4 6c-1.4 5.8-12.5 80.4-16.3 109.2l-1.8 14.3h104.3l-1.8-11.8c-2.3-14.5-4.5-34.5-5.9-52.2-.6-7.4-1.6-16.4-2.1-20-1.4-9.5-9.6-42.1-12.4-49.7-3-7.9-3-7.7-.5-7 2.8.7 2.5-.5-1-3.8-1.6-1.6-3-3.6-3-4.5 0-.8 2.6-6 5.7-11.5 6.7-11.6 7-14 3.2-29.6l-2.3-9.2 2.3-1.8 2.2-1.8-2.3-1.5c-2.3-1.5-2.3-1.8-1.4-8.4.8-6.1.7-7.5-1.9-15.2-1.5-4.7-3.6-10.1-4.7-12-1.9-3.3-1.9-3.5-.1-5 1-.8 2.6-2.6 3.6-4 1.5-2.2 2.3-1.7 1.8 1.2-.2 1.7 1.8.7 2.4-1.2.7-2.2 2.1-2.6 2.7-.8.3.8 1.2.4 2.6-1 1.3-1.3 2.2-1.6 2.5-.9.5 1.6 4.7-14.3 4.7-17.9 0-1.7-1.6-5.6-3.5-8.8s-3.5-6.7-3.5-7.7c0-2.2-12.5-16.6-16.1-18.4-4.8-2.5-12.3-2.9-20.6-1-4.3 1-8.2 2.2-8.7 2.7-1.9 1.6-3.6.8-3.6-1.7 0-3.5-2.4-3.1-4.2.7m235.6 254.7c-5.1 1.3-10.7 4.4-12.8 7.4-1.8 2.4-1.9 3.2-.8 7.2.9 3.2.9 5.8.2 8.8-.5 2.3-1.4 6.7-2 9.8-.9 4.8-1.5 5.9-3.8 6.7-3 1.1-9.9 2.8-15.2 3.7-1.9.3-5.3 1.7-7.5 3l-4 2.5h54.9c30.2 0 54.7-.2 54.5-.4s-4.9-1.6-10.4-3.1c-17-4.6-15.7-3.3-19-17.9-1.5-6.6-1.5-7 .3-9 2.7-3 3.2-5 2.1-8.8-1.3-4.9-6.1-9.2-9.4-8.5-1.5.2-5-.2-7.9-.9-5.4-1.5-14.1-1.7-19.2-.5"/></svg>