<svg xmlns="http://www.w3.org/2000/svg" width="682.667" height="512" version="1.0" viewBox="0 0 512 384"><path d="M137.4 77.7c-1 1.6-1.7 3.7-1.6 4.8 0 1-.3 2.4-.8 3.1-.6.6-1.2 3.1-1.5 5.5-.8 7.8-1.5 12.1-2.2 13.2-.3.5-.1.7.5.3.6-.3 1.3.2 1.7 1.3.8 2.6 4.5 5.9 4.5 4 0-.8 1-.3 2.5 1.3 3 3.2 3 3.7.8 5.4-1.6 1.2-1.6 1.5-.3 2.6.9.7 3.2 3.9 5.3 7 2.1 3.2 4.2 5.8 4.8 5.8 1.6 0 1 1.8-1.3 4-1.2 1.1-2.9 2-3.9 2-3.2 0-4.1 2.5-1.8 5.4l2.1 2.7-4.4 3.8c-5.3 4.7-10.2 11.6-9.3 13 .3.6.2 1.1-.4 1.1-1.9 0-6.1 8.6-6.1 12.4 0 5.1 1.5 7.5 5.7 9.2l3.5 1.5-.4 9.7c-.3 8.1-.7 10.3-2.6 12.9-1.2 1.7-2.2 3.5-2.2 4.1 0 .5-.7 1.5-1.5 2.2-1.1.9-1.4 2.2-1 4 .6 2.9-4.5 18.1-6.9 20.5-1.8 1.9-3 10.3-1.7 11.9.8.9.6 3.3-.4 8.2-1.9 9.1-6.5 45.5-8.4 65.9-1.7 17.1-4.1 49.6-4.1 53.7v3.8h98.3l-.7-5.3c-2-16.3-5.6-52.2-6.5-65.2-.6-8.3-1.8-18.2-2.6-22.2-3.8-18.1-10-41.4-12.2-45.6-1.5-3-1-4.7 1.4-4.7 1.3 0 1-.7-1.1-2.9-3.6-3.8-3.2-5.8 3.9-18.5 6.4-11.2 6.6-12.8 2.9-25.2-3.9-13.1-4-13.5-1.8-15.1 1.8-1.4 1.8-1.5-.5-3.2-2.2-1.7-2.3-2.3-1.7-7.9.6-5.5.3-6.9-3.1-15.4-2-5.1-4.6-10.3-5.7-11.5l-1.9-2.3 4.2-3.9c2.3-2.2 4-3.3 3.7-2.5-.9 2.3 2 1.6 3.7-.9 1.3-1.8 1.6-1.9 1.6-.5.1 2.5 2.8 1.1 4-2l.9-2.7.2 2.5c.1 2 .5 1.5 1.7-2 .8-2.5 1.7-5.2 2-6 1.8-4.9-1.3-18.4-4.6-20.4-.5-.3-1.2-2-1.5-3.8-.4-2.2-3.1-5.9-8.4-11.5-7.2-7.6-8.1-8.2-13.6-9.3-4.9-1-7-.9-13.5.5-4.2 1-8.6 2.4-9.8 3.1-3.3 2.1-4 1.7-3.5-1.6.6-3.9-1.9-4.1-4.4-.3m201 280.5c-2.6.8-3.6 2.1-5.8 7.4-2.9 7.2-3.1 9-1.4 14.5l1.1 3.9h44.4l1.2-9c.7-5.7.8-9.7.2-10.8-1.8-3.3-5.8-6.3-8.7-6.3-1.6-.1-8.5-.2-15.4-.4s-13.9.1-15.6.7"/></svg>