<svg xmlns="http://www.w3.org/2000/svg" width="682.667" height="512" version="1.0" viewBox="0 0 512 384"><path d="M135.1 76.6c-1.3 1.7-1.9 3.5-1.5 4.6.3 1 0 2.5-.6 3.3s-.9 2.4-.5 3.7c.5 1.8.4 2-.4.8-.6-.8-1.1-1.1-1.1-.5-.1.5-.3 3.8-.6 7.2-.5 6.2.2 8.9 3.4 12.6 1.2 1.3 1.7 1.5 2.4.5.6-.9 1-.7 1.4.9.4 1.3 1.3 2.3 2 2.3 1.8 0 1.8.9-.2 3.1-1.5 1.7-1.5 2 .5 4.6 9 11.8 9.3 12.3 7.6 14.9-.8 1.3-2.4 2.4-3.4 2.4s-2.4.7-3.1 1.5c-.9 1.1-.8 2 .9 4.4l2.1 2.9-2.8 2.1c-3.3 2.3-11.4 12.4-11 13.7.1.5-1.2 3.1-3 5.8-5.2 8.2-4 15 3.4 18.1l3.4 1.4v8.1c0 8.7-1.9 14.4-6.9 20.3-.7.9-1 2.5-.6 3.5.3 1.1-.6 5.4-2.1 9.6-1.6 4.6-2.4 8.6-2 10.1.3 1.3.2 2.6-.4 3-3.2 2-9.2 38.9-13.5 83-1.4 14.6-3.5 48.4-3.5 56.2v3.3h99.2l-.6-3.2c-1.3-7.6-4.7-39.8-6.1-58.8-.8-11.3-2.2-24.3-3-28.8-1.9-11.2-10-41.8-12.5-47.6-2.4-5.8-2.4-5.6 0-5.6 2.5 0 2.5-.8-.1-3.6-2.1-2.2-2.1-2.3-.4-7.6 1-2.9 3.5-8.8 5.6-13 2.3-4.6 3.9-9.2 3.9-11.3 0-2-1.6-8.4-3.5-14.3l-3.4-10.6 2.1-2.3 2.1-2.2-2.6-1c-2.5-1-2.6-1.4-2.6-7.8.1-5.7-.6-8.4-3.6-15.8-2-5-4.4-9.8-5.2-10.7-1.3-1.4-1.3-2.1-.4-3.2.7-.8 1.9-1.2 2.6-1 .9.4 1.7-.6 2.4-2.8.7-2.7.9-2.9 1-.9s.3 2.1 1.6 1.1c.8-.7 1.5-1.9 1.5-2.6 0-.8.5-1.4 1-1.4.6 0 1 .7 1 1.5 0 2.6 2.8 1.6 3.5-1.3.6-2.3.8-2.4 1.4-.8.6 1.4 1 .9 2.1-2.5.7-2.4 1.6-4.9 2-5.4.5-.8.6-7.8.1-12.8 0-.8-1.4-3.4-3.1-5.8-1.6-2.4-3-5.4-3-6.5 0-1.3-3.2-5.5-8.2-10.7-7.6-7.8-8.8-8.6-13.9-9.7-4.9-1.1-6.7-1-13 .5-4.1.9-8.4 2.4-9.6 3.1-3.3 2.1-4.5 1.7-4.1-1.3.4-3.6-1.5-4-4.1-.7"/></svg>