<svg xmlns="http://www.w3.org/2000/svg" width="682.667" height="512" version="1.0" viewBox="0 0 512 384"><path d="M133.1 76.6c-1.2 1.5-2.1 3.5-2.1 4.6 0 1-.7 3.4-1.4 5.3-.8 1.9-1.1 3.5-.6 3.5.6 0 .6 1 0 2.6-2.2 5.8.6 15.9 4.4 15.9.8 0 2.3 1.1 3.2 2.3 1.5 2.1 1.5 2.5-.1 4.2s-1.5 1.9.4 3c1.2.6 2.1 1.5 2.1 2.1 0 1 3.1 5.7 6.1 9.4 1.9 2.3 1 6.5-1.5 6.5-.7 0-2.4.9-3.7 1.9l-2.4 1.9 2.2 2.4 2.3 2.4-6 6.1c-3.3 3.4-6.2 7.5-6.6 9s-2.2 5-4.1 7.7c-5.4 7.9-3.8 14.7 4.4 18.1l3.5 1.5-.4 8.8c-.4 7.8-.8 9.3-4 14.9-2.1 3.5-3.4 7-3.2 8 .3 1-.7 5.2-2.1 9.2-1.5 4-2.4 8.2-2.2 9.3.3 1-.8 5.8-2.4 10.6s-3.8 13.6-4.9 19.7c-4.4 24.9-9.6 71.8-11.6 105.3l-.7 11.2h102l-.3-2.2c-1.6-9.5-4.7-38.8-5.9-55.8-.9-11.3-2.2-24.8-3.1-30-2.6-16.7-12.3-53.2-14.5-54.6-1.5-.9 0-2.4 2.3-2.4 2.1 0 2.1 0-.2-2.5-2.1-2.2-2.2-2.7-1.1-7.2.7-2.6 3.1-9.5 5.3-15.2l4-10.3-4.2-13.1c-3.8-11.8-4-13.2-2.6-14.2 2.2-1.6 2-3.2-.4-4-1.8-.6-2.1-1.4-1.9-7.3.2-5.6-.3-7.9-2.9-13.9-1.8-3.9-3.2-7.6-3.2-8.1 0-.6-1.1-2.4-2.5-4l-2.5-3 3-1.1c1.7-.5 4.4-2.5 6-4.3 2.8-3 3-3.1 3-1 0 2.8 1.7 2.9 2.5.1.6-1.7.9-1.9 1.6-.8.6 1 1.2.5 2.2-1.9.7-1.8 1.6-2.9 2-2.5.4.3.7-.8.7-2.5 0-1.8.5-3.2 1.1-3.2.5 0 .7-.5.3-1.1s-.7-3.7-.8-6.8c-.1-4.5-.7-6.7-2.8-9.9-1.6-2.3-2.8-5-2.8-6.1 0-3.1-13.5-17.7-18.1-19.5-5.7-2.3-13.3-2-21.9.9-9.3 3-9.2 3-8.4 0 .8-3.4-1.8-3.3-4.5.1M170 200.7c0 2.5-1.5 1.2-1.7-1.4-.1-1.9.1-2.2.8-1.2.5.8.9 2 .9 2.6"/></svg>