<svg xmlns="http://www.w3.org/2000/svg" width="682.667" height="512" version="1.0" viewBox="0 0 512 384"><path d="M131.6 76.5c-.9 1.3-1.7 4.7-1.9 7.4-.1 2.7-.6 4.8-1.2 4.8-.5-.1-.9.5-.7 1.4.1.8-.2 3.7-.7 6.4-.8 4.5-.7 5.2 2 9.2 3.2 4.5 4.3 5.4 3.2 2.5-.6-1.5-.5-1.5 1-.4.9.8 1.9 2.2 2.2 3.3.4 1.1 1.2 1.6 1.8 1.3.7-.4.2.4-1 1.6l-2.2 2.3 3 3.8c1.6 2.2 4.2 5.6 5.7 7.7 2.4 3 2.7 4.1 1.9 6-.6 1.2-1.6 2.2-2.2 2.2-.7 0-2.3.8-3.5 1.8-2.3 1.8-2.3 1.9-.5 5l1.8 3-3.2 2.7c-3.8 3.3-9.1 10.7-9.1 12.9 0 .9-1.3 3.5-3 5.8-2.3 3.2-3 5.2-3 8.8 0 5.1 2.1 8 7.3 9.9 2.7 1 2.7 1.2 2.7 9.8 0 8.2-.2 9.2-3.4 14.4-2.2 3.7-3.3 6.9-3.4 9.5 0 2.1-1.1 6.6-2.5 9.9s-2.2 6.6-1.8 7.3-.8 5.7-2.6 11.2c-1.9 5.4-4.2 14.8-5.3 20.7-2.4 13.4-8.4 56.2-9.9 70.3-1.5 13.6-4.1 42-4.1 43.7 0 1.1 9.5 1.3 52 1.3 28.6 0 52-.3 52-.7 0-.3-1.1-9.9-2.4-21.2-1.4-11.3-3-28.3-3.6-37.6-1.9-28.9-5.5-48.4-13.7-74-1.4-4.4-3-8.6-3.6-9.3-.8-1-.5-1.4 1.1-1.9 2.6-.6 2.7-1.1.6-3.4-1.4-1.5-1.4-2.5-.4-7.6.7-3.2 2.5-9.5 4.1-14s2.9-9.6 2.9-11.3c0-1.8-1.7-8.1-3.7-14.1-3.5-10.4-3.6-10.9-1.9-12.8 1.9-2.1 1.4-4.1-1-4.1-1.5 0-1.8-1.9-1.5-8.6.2-2.8-.7-6.5-2.7-11-1.6-3.8-3.3-8-3.7-9.4s-1.7-3.5-2.8-4.7l-2-2.3 3.2-1.1c1.8-.7 3.6-2.2 4.1-3.5 1-2.7 3-3.2 3-.9 0 2 1.9 1.9 2.7-.1.4-1.2.8-1.3 1.3-.3.5.8 1.8-.8 3.5-4.5 1.4-3.1 3-5.6 3.4-5.6s.5-3 .3-6.8c-.3-4.9-1.2-8.2-3.3-12.2-1.6-3-2.9-6.1-2.9-6.8 0-.8-1.9-3.7-4.2-6.4-13.4-15.9-17.9-16.9-42.2-9.1-1.6.5-1.8.2-1.2-2 .5-2.2.3-2.7-1.3-2.7-1 0-2.6 1.1-3.5 2.5M150 130c0 .5-.4 1-1 1-.5 0-1-.5-1-1 0-.6.5-1 1-1 .6 0 1 .4 1 1m19 70.5c0 .8-.4 1.7-1 2-.6.4-1-.5-1-2s.4-2.4 1-2c.6.3 1 1.2 1 2"/></svg>