<svg xmlns="http://www.w3.org/2000/svg" width="682.667" height="512" version="1.0" viewBox="0 0 512 384"><path d="M134.8 80.7c-2.1 2.3-2.5 3.7-2.4 7.5.1 2.8-.2 4.6-.8 4.5s-1.1.7-1.2 1.8c0 1.1-.4 4.1-.8 6.6-.7 4.1-.5 5.2 1.9 8.9 1.9 3 2.9 3.9 3.5 3s1.3-.5 2.6 1.5c1.4 2.2 1.5 3 .5 4.7-1 1.6-.8 2.4 1.7 5.6 1.6 2 3.8 5.3 4.9 7.4 1.5 2.7 2.3 3.4 3.4 2.7 3.7-2.3 3.7-.5 0 3.1-2.2 2.2-4.7 4-5.4 4-3 0-3.7 2.2-1.6 5.2l2.1 2.8-5.6 6.1c-3.1 3.3-5.9 7.2-6.3 8.7-.3 1.5-2 4.9-3.7 7.6-4.8 8-3.3 15 3.9 18 4 1.7 5.2 5.6 4.1 13.8-.7 4.7-4.7 14.2-6.7 15.3-.4.3-.6 1.8-.3 3.4.4 1.8-.4 5.2-2.1 9.5-1.5 3.7-2.5 7.6-2.2 8.7.3 1-.9 5.3-2.5 9.6-4.3 11.2-8.6 31.4-16.9 79.8-2.3 13.6-6.9 47.6-6.9 51.2v2.3h104.3l-.6-9.3c-.3-5-1-16.4-1.6-25.2s-1.5-23.5-2.1-32.6c-1.4-22.1-7-51.4-13-67.1-2-5.4-1.9-6.8.8-6.8 1.2 0 .7-.9-1.6-3.3l-3.2-3.3 1.8-5.5c1.1-3 3.8-9.2 6.2-13.8 4.9-9.9 4.9-11.2-.5-25.3-4-10.3-4-10.5-2-12.8 1.4-1.6 1.3-1.9-1-3.4-2.2-1.4-2.5-2.4-2.5-7.2 0-4.3-.8-7.5-3.5-13.4-1.9-4.3-3.5-8.2-3.5-8.7 0-.6-.9-1.8-2-2.8-2.5-2.3-2.5-2.5.6-5.8 2-2.1 2.9-2.5 3.9-1.7s1.6.7 2.4-.7 1.2-1.5 1.9-.5 1.3.5 2.2-1.9c1.5-3.5 5.4-8.2 6.2-7.4.3.3.4-3 .4-7.2-.2-5.9-.7-8.8-2.4-12-1.2-2.3-2.2-5.1-2.2-6.3 0-2.8-13.6-17.9-17.6-19.6-4.8-2-14.1-1.7-21 .7-8.3 2.8-8.9 2.8-9.2-.4-.2-1.5-.7-2.7-1.1-2.7s-1.9 1.2-3.3 2.7m224.5 285.2c-6 2.8-7.4 6.4-5.7 15l.7 3.1H376c21.7 0 21.8 0 22.4-2.2 1.7-6.5-1.2-14.3-5.6-15.2-1.3-.2-4.7-.9-7.6-1.5-8.6-1.8-21-1.4-25.9.8"/></svg>