<svg xmlns="http://www.w3.org/2000/svg" width="682.667" height="512" version="1.0" viewBox="0 0 512 384"><path d="M135.9 75.1c-1.7 1.7-1.9 2.8-1.4 5.9.4 2.1.2 4.7-.4 5.7-1 1.9-3.1 15.7-2.3 14.8.3-.2 1.4 1.4 2.5 3.6 1.2 2.5 2.5 3.8 3.3 3.5.7-.3 1.6-.1 1.9.5.4.5 1 .7 1.5.4 1.9-1.2 1.8 1.5-.2 4-2.1 2.7-2.1 2.8-.3 4.1 1 .7 2.3 2.1 2.9 3.2 4.1 6.7 5.3 8.2 6.9 8.2 2.7 0 2.1 1.1-3.4 6.1l-5 4.5 1.9 2.4 2 2.5-5.4 5.8c-6 6.5-13.4 20.7-13.4 25.7 0 4.1 2.7 8 6.8 9.7l3.4 1.4-.4 9.2c-.3 8.3-.6 9.7-3.4 14.3-1.9 3-3.2 6.5-3.2 8.5-.1 1.9-1.2 6.6-2.5 10.5-1.6 4.7-2.2 7.5-1.5 8.2.6.6 0 4.1-1.6 9.8-4.4 14.9-4.9 18.4-11.2 73.9-2.7 24.6-5.4 53.1-5.4 58.7v3.8h99.1l-.5-4.2c-1.2-8.9-3.6-37.9-4.6-54.8-1.1-20.1-1.6-24.6-3.6-35-2.2-11.5-9-36.8-11.8-44.3-2.4-6.5-2.4-6.7-.6-6.7 2.8 0 2.5-1-1.5-5-1.9-1.9-3.5-4.1-3.5-5 0-.8 2-6 4.5-11.5s4.5-11.2 4.5-12.7-1.4-7.9-3.1-14.3l-3.1-11.5 2.3-1.9 2.4-1.9-2.5-1.2c-2.7-1.2-3-3.4-1.6-9.8.6-2.4-.1-5.8-2.9-14.1-2-6-4.3-11.5-5.1-12.1-1.8-1.6-1.8-3.4 0-2.7.9.4 1.6-.3 2-1.8.4-1.6 1.1-2.2 2.1-1.9q1.5.6 3-2.7l1.4-3.4.1 2.9c0 2.5.2 2.7 1.6 1.5.8-.7 2.4-2.9 3.4-4.8 1.1-2 1.9-3 2-2.3 0 2 2 .3 2-1.8 0-1 .6-2 1.4-2.3 1.2-.5 1.2-1.6 0-7.4-.8-3.7-2.4-8.5-3.4-10.6-1.1-2.1-2-5.1-2-6.8 0-2-.9-3.9-2.8-5.7-1.5-1.5-4.5-4.8-6.5-7.4-5-6.3-10.1-8.2-20.4-7.6-4.9.3-9.6 1.3-12.5 2.6l-4.8 2.1-.6-2.5c-.8-3-3.6-3.2-6.5-.3m225.6 132.7c-1.6.1-6.4 1-10.5 1.9-11.3 2.4-15.3 7.4-11.6 14.5 1.5 2.8 2 8 1.8 16.5-.2 6-1.9 8.1-7.9 10.2-13.5 4.7-18.1 7.2-19.2 10.3-1.7 4.9-1.4 6.8 1.1 6.8 1.7 0 1.9.3 1 1.2-1.7 1.7-1.5 2.8.6 2.9 1 0 1.2.3.5.6-.7.2-1.3 1.1-1.3 2 0 1.2 1.4 1.4 8.8.8 4.8-.3 11.4-.7 14.7-.8l6-.2.7 7c.3 3.8.9 8 1.3 9.2.5 1.5.3 2.3-.4 2.3-.6 0-1 1-.9 2.2 0 1.3-1.5 7.5-3.5 13.8-1.9 6.3-4.9 16.6-6.7 22.9l-3.2 11.3.7 20.4.7 20.4H394v-3c0-3.2.9-3.7 2.7-1.9 1.9 1.9 5.8.2 10.2-4.3l4.2-4.3-.6-6c-.4-3.3-1.3-8.7-2.1-12-.7-3.4-1.8-9.3-2.4-13.2-.8-6.1-2.1-9.2-8.4-20.5-6.7-11.9-7.4-13.7-7-17.3.3-2.2.7-10.5.8-18.4l.4-14.4 3.3-.4c4.6-.4 21-3.2 23.2-3.9 2.5-.8 2.1-2.1-1-3.2-2.5-.9-2.5-1.1-.6-1.1 3.6-.1 3.6-2 .1-3-2.4-.7-2.7-.9-1.1-1 3.7-.2 5.4-2.6 4.1-6.1-.5-1.7-1.9-3.5-2.9-4-1-.6-7.2-1.7-13.6-2.5-16.8-2.2-15.9-1.8-17.7-7.2-.9-2.7-1.5-6.2-1.5-7.8.3-7-1.7-16.5-4-18.9-2.1-2.2-3.1-2.5-9-2.3-3.6.1-7.9.3-9.6.5M353 339.1c0 4.6-1.1 6.2-2.5 3.9-.9-1.5.6-10.1 1.6-9.4.5.3.9 2.7.9 5.5"/></svg>