<svg xmlns="http://www.w3.org/2000/svg" width="682.667" height="512" version="1.0" viewBox="0 0 512 384"><path d="M157.3 71.6c-3.3.7-7.6 2-9.4 2.9-2.3 1.2-3.4 1.4-3.7.6-.5-1.5-3.1-4.1-4.1-4.1-1.3 0-6.1 5.1-6.1 6.4 0 .7.5 1.7 1.2 2.4.9.9.8 2.3-.6 6.3-1.8 4.9-2.8 15.1-1.4 14.3.4-.2 1 .6 1.3 1.8.9 2.9 3.5 5.9 4.6 5.3.4-.3 1.1 0 1.5.6.4.8.9.7 1.5-.2.4-.7 1.1-1 1.5-.6s-.2 2.1-1.4 3.7c-2.7 3.6-2.7 4.2-.2 5.8 1.1.7 2 1.9 2 2.7s.6 1.8 1.3 2.2 2.1 2.1 3.1 3.6c1.3 2.1 2.3 2.7 3.8 2.4 1.4-.4 1 .3-1.6 2.9-1.9 1.9-3.9 3.4-4.3 3.4-.5 0-1.4.9-2.1 2-1 1.7-1 2.5.4 4.5 1.5 2.4 1.4 2.6-4.5 9.5-3.4 3.9-6.8 8.7-7.8 10.8-6.2 14-5.8 19.5 2 23.2l3.2 1.6-.1 8.6c-.1 8.1-.3 9-3.8 14.9-2.4 4-3.5 7-3.2 8.4.3 1.1-.7 5.7-2.3 10.2-1.9 5.5-2.5 8.5-1.8 9.2s.1 4.2-1.7 10.7c-4.9 17.8-11.8 74.8-14.1 116.9-.3 6-.8 12.9-1.1 15.3l-.5 4.2h99.7l-.8-6.8c-1.6-13.4-4.8-47.1-5.8-62.7-1-15.5-1.9-20.6-6.1-38.5-3.1-12.6-8.8-31.9-10.5-35.1-1.4-2.8-1.4-2.9 1.3-2.9s2.7-.1-2.1-4.9l-4.9-5 3.3-7.8c6.4-15.4 6.2-14.1 3.9-25.5-3.4-16.4-3.4-16.5-1-18 2.7-1.6 2.6-2.2-.2-3.5-2.3-1.1-2.5-2.5-1.1-11.4.6-4-4.7-23.2-7.3-26.1-1.6-1.8-.4-3.2 2.1-2.2 1 .4 1.6.1 1.6-.8 0-.8 1.1-2.5 2.5-3.8s2.5-1.8 2.5-1.2c0 2.5 1.8 1 4.3-3.6 2.1-3.7 2.7-4.2 2.7-2.4 0 1.3.4 2 1 1.7s1-1.7 1-3 .8-2.8 1.7-3.3c1.5-.9 1.5-1.6.5-6.3-.7-3-2.4-7.8-3.7-10.7-1.4-3-2.5-6.5-2.5-7.9 0-2.9-11.7-16.6-16.2-18.9-4.9-2.5-10.9-3.2-17.5-1.8M363 180c-1.4.4-4 .8-5.9.9-5.3.2-20.4 4.1-22.3 5.8-2.8 2.5-3.2 7.3-1 12.4 1.5 3.5 1.9 6.6 1.8 13.5l-.1 8.9-10.1 4.5c-14.1 6.3-15.4 7.3-15.4 11.7 0 1.9.5 5.2 1.1 7.2 1.3 4.2.2 4.1 19.2 1.5 6-.9 11.1-1.3 11.4-1s.6 2.6.7 5c.1 2.5.5 4.9.9 5.2.4.4.7 1.8.7 3 0 1.3.8 2.8 1.8 3.3 1.1.7 1.3 1.3.7 1.8-3.4 2.5-12.5 43.2-12.5 55.6 0 3.8 1.4 13.5 3 21.7l3.1 14.9-2.1 6.2c-2.2 6.5-5.4 13.1-9.1 18.6l-2.1 3.3h67l.6-2.3c.3-1.2.6-9.4.6-18.2v-16l4-1.7c5.8-2.4 6.3-4.5 5.6-23.4l-.6-16.2-4.1-7.3c-2.3-4.1-6.1-10.8-8.4-14.9-3.4-6.1-4.4-8.9-5-14.7-.7-7.1-.7-7.2-3.2-6.2-3.3 1.2-3.3 1.2-3.3-1.2 0-1.1.4-1.7 1-1.4.5.3 1.9-.9 3-2.7s2-2.8 2-2.3c0 .6 1 1.6 2.3 2.4 2.2 1.4 2.2 1.4.3-.8-1.1-1.1-1.4-2.1-.8-2.1 1 0 .7-4.3-.4-6.2-.8-1.3.3-.9 3.8 1.2 4.4 2.7 10.8 2.7 10.8.1 0-2.5-1.8-3.9-7.8-5.6-4.9-1.5-9-5.2-7.4-6.6.4-.3 6.3-1.8 13.2-3.3 16.2-3.5 16-3.4 13.6-5.2-1.3-.9-1.5-1.4-.6-1.4 1 0 1.1-.3.3-1.1-.9-.9-.9-1.6-.1-2.9 1.8-2.8-.7-7.7-4.6-8.9-1.7-.5-8.1-1.3-14.3-1.6-6.2-.4-11.8-1.2-12.6-1.9-1.9-1.5-6-12.2-5.3-13.5.4-.6.2-3.8-.3-7.3-.8-5.1-1.6-6.8-4.1-9.1-3.1-2.8-4.7-3.1-9-1.7m-10.1 130.9c.1 3.7-.1 4.2-1.4 3.1-1.6-1.3-2-8.5-.8-13 .7-2.3.8-2.1 1.5 1.5.4 2.2.7 6 .7 8.4"/><path d="M391 260c0 .5.5 1 1.1 1 .5 0 .7-.5.4-1-.3-.6-.8-1-1.1-1-.2 0-.4.4-.4 1"/></svg>