<svg xmlns="http://www.w3.org/2000/svg" width="682.667" height="512" version="1.0" viewBox="0 0 512 384"><path d="M157.3 70c-2.3.5-5.6 1.6-7.3 2.5-1.8.9-3.4 1.4-3.8 1.1-.3-.3-.1-.6.3-.6 1.6 0-3-2.9-4.6-3-.8 0-2.6 1.1-3.9 2.5-2.1 2.2-2.2 2.8-1 5 1.1 2.1 1.1 3-.6 6.7-4.1 9.1-.1 22.8 6.7 22.8.6 0 .7-.5.3-1.2s-.3-.8.4-.4c1.8 1.1 1.4 3.1-.8 5.1l-2.1 1.9 2.1 2c3 3.2 6.6 7.9 7.3 9.8.3.9 1.5 1.8 2.7 2 1.8.3 1.4.8-2.4 3.8-5.5 4.3-6.1 5.6-4 8.8 1.6 2.4 1.6 2.6-.2 4.1-3.4 2.8-12.4 14.2-12.4 15.7 0 .7-.3 1.4-.8 1.4-.4 0-1.3 1-2.1 2.1-1.1 1.9-1.1 2.1.3 1.6 1.5-.6 1.5-.4 0 2.5-3.6 7-1.8 13 5 16.5l2.9 1.5-.7 8.5c-.3 4.8-1.3 9.8-2.1 11.2s-2.1 4-2.9 5.8c-.9 1.7-2.1 3.5-2.7 3.8-.6.4-.8 1.8-.4 3.3.4 1.6-.4 5.4-2.1 10.4-1.9 5.5-2.5 8.1-1.7 8.6s.4 3.4-1.3 9.7c-2.6 9.5-4.7 22.1-8.8 52.5-3.3 23.8-4.3 34.2-5.6 57.5-.6 10.4-1.3 21.1-1.6 23.7l-.6 4.8H211v-2.3c0-1.2-1.1-10.1-2.4-19.7-1.4-9.6-3.4-27.6-4.6-40-1.1-12.4-3-26.8-4.1-32-4.1-19.1-11-43.2-14-49.2-2.4-4.8-2.4-5 .8-4.1 2.6.6 2.4.2-2.5-5.5-6-6.9-6-6.5-.6-17.4 1.9-3.7 3.4-7.8 3.4-9.2 0-1.3-.9-7.7-2-14.2l-2-11.8 2.7-2.3c1.6-1.2 2.3-2.2 1.7-2.3-.5 0-1.8-.6-2.7-1.3-1.6-1.1-1.6-1.6-.2-6.2.8-2.8 1.5-6.5 1.5-8.4 0-3.4-3-14.5-5.5-20.6-1.6-4-1-5.3 2.4-4.9 2.7.3 2.9.1 3.6-4.3.5-3.4.9-4.2 1.6-3.2.8 1.2 1.1 1.1 2.2-.3.7-.9 2.5-2 3.9-2.3 2-.5 2.9-1.6 3.5-4.3.7-2.6 1.4-3.6 2.6-3.4 1.4.2 1.3-.6-.7-6.5-1.3-3.8-3.3-8.7-4.4-10.9-1.2-2.3-1.9-5-1.6-6.1.4-1.5-1.4-4.2-6.8-10.2-4-4.6-8.5-8.9-9.9-9.6-3.4-1.8-14.2-2.6-19.6-1.5m-9.1 75.2c-.7.7-1.2.8-1.2.2s.3-1.4.7-1.7c.3-.4.9-.5 1.2-.2.2.3-.1 1.1-.7 1.7m199.3 2.3c-20.2 5-24.1 7.6-23.2 15.2.3 2.6 1.5 5.4 3.1 7.3 2.2 2.6 2.6 4.1 2.6 9v5.9l-9 4.7c-4.9 2.6-10.4 6.2-12.2 8.1-2.9 3-3.2 3.9-3.3 9.4 0 7 1.1 8.3 7.9 9.3 4 .6 20.7-.7 22.5-1.8 1.4-.9 2.8 1.6 3.5 6.5.5 3.5 1.2 4.8 2.6 5.2 2.3.6 2.7 4.2.6 5.4-3.6 2.1-16.6 36.1-16.6 43.5 0 2.2 1.1 7.2 2.4 11.1 1.4 4 3.2 9.7 4 12.7 2 7.2 5 12 7.5 12 1.1 0 2.2.4 2.5.9.9 1.3-3.2 14.8-6.5 21.4-3 6.2-3.5 6.8-10.6 15.6-3.3 4.1-4.3 6.1-4.3 8.9 0 4.9.7 5.7 6.1 8 3.6 1.6 15.8 4.2 19.4 4.2 1.1 0 2.5 5.1 2.7 9.5l.1 4.5h8.3c9 0 9.4-.3 9.4-6.5 0-3.7 1.4-5.4 2.4-2.9.3.9.6 3.3.6 5.5v3.9h15.9l1.1-5.4c1.1-5.4 1.1-5.4 5.5-6.1 3.4-.5 4.5-1.1 4.5-2.4 0-1 .3-2.1.7-2.5 1.1-1.1.2-39.4-1.2-51.7-.7-6.3-1.1-11.7-.9-12.1.2-.3 1.9-.9 3.7-1.3 5-1.1 7.7-3.3 9.8-8.1 2.5-6.1 2.5-7.2-1.6-19.2-2.8-8.2-5.1-12.6-11-21-4-5.9-8.7-12.2-10.4-13.9-1.6-1.8-3.7-5.6-4.5-8.5-2.4-8.2-2.9-8.7-6.5-6-3.9 2.9-6.1 2.8-6.1-.1.1-2.1.2-2.1 1.4-.4 1.2 1.5 1.4 1.6 2 .2.3-.8 1.2-1.5 2.1-1.5.8 0 1.5-.9 1.5-2s.5-1.9 1.1-1.8c.6.2 1.6-.6 2.2-1.7.7-1 1.7-2.5 2.4-3.2.6-.7 1-2.9.8-4.9-.3-2.9 0-3.7 1.6-4.1 1-.3 1.9-.9 1.9-1.4s.5-.9 1.1-.9c.5 0 .7.4.4 1-.8 1.3.6 1.3 3.9 0 1.6-.6 2.4-1.5 2-2.4-.5-1.4 1.5-3.6 10-10.9 3.6-3.1 3.8-3.5 3.1-7.4-1.4-8.9-7.7-11.7-24.4-11.2l-10.4.4-3.5-6.3c-2.5-4.5-3.1-6.6-2.4-7.5 1.5-1.8-.2-8.4-2.9-11.3-2.6-2.7-7.1-3-15.4-.9m5 121.2c2.1 7.3 2.4 9.6 1.5 11.8l-1.1 2.8-4.9-4.8c-2.8-2.7-5-5.6-5-6.5 0-1.5 2.5-12 3.6-14.9.8-2.5 3.1 1.8 5.9 11.6"/><path d="m386.5 207-4 .7 4.5.1c2.5.1 5.2-.3 6-.8 1.2-.8 1.1-.9-.5-.8-1.1 0-3.8.4-6 .8"/></svg>