<svg xmlns="http://www.w3.org/2000/svg" width="682.667" height="512" version="1.0" viewBox="0 0 512 384"><path d="M155 72c-5.2 1.9-5.7 1.9-8.8.2-3.2-1.7-3.2-1.6-6.3 1.4-2.9 2.9-3 3.2-1.4 4.8s1.6 2-.3 6.4c-3.2 7.6-3.3 9.5-1.1 14.3 3.1 7 3.5 7.4 6 7.7 2.1.4 2.2.2.9-1.4-1.4-1.6-1.3-1.6.8-.3 2.7 1.7 2.8 3.6.1 6.5l-2 2.2 2.3 2.4c3.3 3.4 6.8 8.1 6.8 9 0 .5 1 1.3 2.3 1.7l2.2.9-2.6 1c-1.4.6-3.8 2.5-5.2 4.2-2.6 3-2.6 3.3-1.1 5.9 1.6 2.6 1.5 2.7-5 9.5-3.6 3.7-6.9 7.9-7.2 9.2s-1 2.4-1.4 2.4c-1.3 0-2.1 3.2-2.6 10.1-.5 6-.3 6.9 2.1 9.7 1.4 1.7 3.5 3.4 4.5 3.7 4.3 1.4 1.8 18-4.1 26.8-3.1 4.6-3.7 6.2-2.8 7.3.8 1 .4 3.3-2 9.5-3.4 8.8-3.7 10.4-1.9 9.3.8-.5.9 0 .4 1.7-2.5 8.5-5.9 25.9-8.1 41.4-1.4 9.9-3.2 21.6-4 26-2.3 13.1-4.3 30-5.5 46.5-.6 8.5-1.6 19.2-2.3 23.8l-1.4 8.2h108l-.7-3.3c-2.1-10.4-7.6-47.5-9.1-61.2-.9-8.8-2.5-20.3-3.6-25.5-2.6-13-11.5-44.1-14.5-50.8-1.3-3-2.4-5.6-2.4-5.7s1.2 0 2.8.3c2.5.5 2.3 0-3-5.7-3.2-3.4-5.8-6.6-5.8-7s1.8-4.5 4-9c4.5-9.1 4.7-11.4 2.8-26.8-1.1-9.5-1.1-9.5 1.2-11.3l2.4-1.8-2.3-2c-1.7-1.3-2.1-2.3-1.6-3.3 1-1.6 1.4-3.4 2.2-10.1.5-4.9-3.5-21.6-5.9-24.5-.8-.9-.5-1.4.8-1.9 1.1-.3 2.7-1 3.7-1.5 1.3-.7 2.3-.7 3.2.1 1.5 1.3 2.5-.7 2.5-5.1 0-1.7.4-2.8.9-2.5.5.4 1.2-.8 1.6-2.5.7-3 .7-3 2.2-1 2 3 3.1 1.8 3.9-4 .5-3.5 1-4.7 1.7-4 1.4 1.4 2.7 1.4 2.7.1 0-.6-2-5.5-4.5-10.9S195 92.2 195 90.8c0-1.6-1.4-3.8-3.7-6-2.1-2-5.1-5.3-6.7-7.3s-4.7-4.6-7-5.6c-5.5-2.5-15.4-2.4-22.6.1m193.5 69.2c-2.2.6-8.3 2.4-13.5 4.2-8 2.6-9.7 3.6-11.3 6.3-1.6 2.8-1.7 3.8-.7 6.7.6 1.9 1.9 3.8 2.9 4.1 1.3.4 2 2 2.5 5.8 1.1 9.4 1.3 9-7.4 14.1-4.4 2.6-9.8 6.4-12 8.6-3.7 3.7-4 4.4-4 9.5s.2 5.7 3.3 7.6c2.9 1.8 4.4 2 14.7 1.6 6.3-.3 12.3-.8 13.3-1.2 1.4-.6 1.7-.1 1.7 3 0 3.5 1.8 6.5 3.8 6.5.6 0 1.3.8 1.6 1.7.6 1.5.8 1.5 1.6.3.8-1.3 1-1.3 1 .1 0 .9-1.1 2.4-2.5 3.3s-5.8 4.8-9.8 8.7c-3.9 3.9-10.9 10.5-15.4 14.7l-8.3 7.5v5.1c.1 2.8.7 8.2 1.4 12.1 1.3 6.4 1.8 7.3 6.2 11.2 4.1 3.7 5.5 4.3 9.2 4.3 2.5 0 6.1-.9 8.1-1.9 2-1.1 4.4-2.2 5.4-2.5 2-.6 3.7-4.5 3.7-8.5 0-3.6-4.3-9.1-10.3-13.1-5.5-3.6-5.8-2.2 3.7-13.5 3.3-3.9 6.4-7 7-7s1.3 1.3 1.4 3c.2 1.6.9 3.7 1.6 4.5 2.2 2.5 7.6 17.9 7.6 21.5 0 1.8-.7 4.9-1.6 7-.8 2.1-1.3 4.3-1 5.1s-1.2 5.1-3.3 9.6c-2.1 4.6-6.4 14.9-9.6 23-3.2 8.2-8.5 19.4-12.1 25.4-5.8 9.7-6.3 11-5 12.8 1.3 2.2 6.7 5.2 10.1 5.8 1.1.1 2.2.6 2.5.9s2.7 1 5.5 1.5l5 .9.8 5.8c.7 4.7.5 6.5-1.3 10.3-1.1 2.6-2 5-2 5.5s3.9.9 8.6.9h8.5l1.9-4.3c1-2.3 2.1-7 2.5-10.5.6-5.7.9-6.3 2.9-6s2.1.8 2.1 10.6V384h15l2-10.2 2-10.2 3.5-.9c9.4-2.2 13.9-3.9 14.4-5.3.3-.8-.3-4.1-1.3-7.2s-2.2-8.6-2.6-12.2c-1.2-12.3-6-38.2-9.6-51.5-.1-.6.1-1.8.5-2.7s0-4.4-.8-7.8c-2.2-8.4-2-9.1.9-4.7 4.7 6.8 14.2 9.4 21.3 5.8 6.1-3.1 8-6.1 7.5-11.8-.7-8.6-2.5-10.7-13-15.8-8.1-3.9-10.8-5.9-18.9-14-5.2-5.1-9.4-10-9.4-10.7s-.9-2.8-2-4.6l-2.1-3.3-3 2.5c-1.7 1.4-3.7 2.6-4.5 2.6-1.6 0-2-4.5-.4-5.5.6-.3 1-.1 1 .4 0 .6.5 1.1 1 1.1.6 0 1-.7 1-1.6 0-1 .6-1.4 1.5-1 1.1.4 1.5-.2 1.5-2.6s.3-2.9 1.1-2.1c1.3 1.3 3.9-.6 3.9-2.6 0-.6.4-1.1.8-1.1s.8-1.6.9-3.5-.3-3.3-.7-3c-.5.3-1.2-.4-1.5-1.6-.4-1.1-.5-2.1-.3-2.2.1-.1 4.3-2.2 9.2-4.7 9.1-4.6 17.6-11.4 17.6-14.2 0-2.7-4.4-8.2-8-10-2.8-1.4-6.1-1.8-16-1.8l-12.5-.1-3.7-6.4c-2-3.6-3.2-6.7-2.7-7.1 1.9-1.1.9-7.1-1.6-9.8-2.6-2.8-5.7-3.2-13-1.4m4 79.8c.3.5.1 1-.4 1-.6 0-1.1-.5-1.1-1 0-.6.2-1 .4-1 .3 0 .8.4 1.1 1"/></svg>