<svg xmlns="http://www.w3.org/2000/svg" width="682.667" height="512" version="1.0" viewBox="0 0 512 384"><path d="M160.3 71.5c-3.4.7-7 1.8-8.1 2.4-1.3.7-2.2.7-3-.1-2.7-2.7-7.3-1.9-9.7 1.8-1.3 2-1.4 2.8-.4 4 .9 1.2.7 2.9-1.2 8.4-1.8 5.4-2.1 7.3-1.2 9.2.6 1.3 1.9 4.2 2.9 6.6 1 2.5 2.3 4.1 2.9 3.8.7-.2 1.8.1 2.5.7 1 1 1 .7.1-1.1-1.1-2.2-1.1-2.2.8-1 2.6 1.6 2.7 3.3.1 5.5-1.1 1-2 2.2-2 2.8s.9 1.6 2 2.3 2 1.9 2 2.7.9 1.9 2 2.5 2 1.7 2 2.5 1 2.1 2.2 2.9c2.1 1.5 2.1 1.6.2 2.2-2.6 1-6.8 5.2-7 7.2-.2.9.5 2.5 1.4 3.5 1.6 1.8 1.5 2-1.9 4.8-4.1 3.3-11 11.3-11.3 13.2-.1.7-.9 2.3-1.8 3.7-4.3 6.5-3 16.2 2.7 20.7 3.2 2.6 3.5 3.2 3.5 8.3-.1 8.9-1.5 13.7-5.9 20-3.3 4.9-3.9 6.4-3 7.8s.4 3.5-2.2 10.1c-2.1 5.4-2.9 8.5-2.2 8.9.7.5.3 3.8-1.4 10.2-1.3 5.2-3.7 18.9-5.4 30.3-1.6 11.4-3.4 23.1-4 26-2.5 13.5-4.9 31.5-5.9 45.4-.6 8.3-1.7 18.9-2.5 23.5-.8 4.5-1.5 8.9-1.5 9.5 0 1 11.5 1.3 54 1.3 40.6 0 54-.3 54-1.2 0-.6-1.6-10.6-3.5-22.2s-4.2-27.4-5-35.1c-2.2-19.7-4.1-30-8.1-45.5-4.3-16.7-11.3-38.8-12.5-39.6-2-1.2-.7-2.4 1.8-1.8 2.5.7 2.2.1-3-5.6-3.1-3.5-5.7-6.8-5.7-7.4s1.9-4.5 4.1-8.6l4.1-7.5-.6-12c-.3-6.6-.9-13-1.2-14.1-.4-1.5.1-2.8 1.7-4.3 2.2-2 2.2-2.1.4-4.1-1.6-1.8-1.7-2.2-.1-6.9 2.2-7 2-10.3-1.4-21.3-3-9.6-3.1-13.4-.2-12.3.8.3 2.1 0 2.8-.6 1.1-.9 1.9-.8 3.4.6 2 1.8 2 1.7 2-2.7 0-2.6.6-5 1.4-5.7.7-.6 1.2-2.3.9-3.9-.3-2.6-.3-2.6.8-.5 1.7 3.3 3.6 2.8 4.4-1 1.2-6 1.5-6.6 3.2-6 2.1.8 1.2-2.1-3.8-12-2.1-4.3-3.9-9-3.9-10.6 0-1.9-1.2-3.9-3.7-6.4-2.1-1.9-5.3-5.4-7.2-7.7-5.5-6.8-13.8-9-24.8-6.5m191.2 69.7c-1.6.5-5.9 1.7-9.5 2.7-11 3.2-15.4 5.1-17.7 7.7-3.6 3.9-2.9 10.8 1.1 12.4 1.9.7 2.1 1.6 2.1 8v7.2l-5.5 3c-12 6.7-18 13.3-18 20.1 0 8.1 8.6 11.2 24.2 8.8 8.6-1.3 9.8-1 9.8 2.2.1 2.1 2.9 8.2 3 6.3 0-.5.9-.1 2 .9 2 1.8 2.1 1.8 1.4-.1-.5-1.5-.4-1.7.6-.7.7.6 1 1.6.6 2.1-1.2 2-15.2 9.6-27.9 15.2l-13.2 5.8-3.2 6.3c-4.7 9.1-4.5 13.6.7 19.3 5.4 5.9 9.9 8 15.3 7.1 8.5-1.4 11.7-4.1 13-11 .4-2.5-1.7-7.2-4.9-10.6-2.3-2.4-2.4-2.6-.7-4.2 2.1-1.9 17.9-10.7 19.2-10.7.5 0 1.2 1.8 1.6 4.1.4 2.2 2.2 7.3 4.1 11.3 5.5 12 6.1 15.6 4 22-1 3-1.5 5.9-1.2 6.5.4.6-.4 3.1-1.8 5.5-2.5 4.4-4.3 8.8-11.1 26.6-2 5.2-6.8 15.6-10.6 23-7.8 15-7.9 16.4-1.3 19.5 4.4 2.1 15.2 5.5 17.4 5.5 1 0 2.1.7 2.4 1.6 1.3 3.4.6 11.6-1.4 15.4l-2 4h9.4c11.2 0 11.4-.2 12.6-11.2.8-7.4 1.2-8.4 2.9-7.3.7.3 1.1 4.3 1.1 9.6v8.9h14.7l1.9-9.7 1.9-9.7 9.2-2.6c13.4-3.9 14-4.7 9.9-12.9-1.4-2.6-3.4-9.5-4.5-15.2-4.8-24.4-8.3-40.4-9.5-44-.9-2.6-1-4.1-.3-4.8.8-.8.5-3.8-1-10.3-2.2-9.2-4-24.8-2.9-24.8.3 0 1 1.8 1.6 4 1.2 4.5 4.1 7.1 14.3 12.4 5.5 2.9 7.2 3.4 8.8 2.6 1.1-.6 2.7-1 3.7-.9 2 .3 8-2.6 10.5-5.2s2.2-9-.8-14.9c-1.3-2.7-3-5.2-3.7-5.6-.7-.5-6.8-1.3-13.5-1.9-11.7-1.1-12.3-1.3-16.5-4.7-2.4-1.9-6.2-4.7-8.5-6.1s-4.4-3.7-4.8-4.9c-.4-1.3-1.4-3.4-2.3-4.8-2.6-4-2.4-5.3.5-4.5 1.4.3 2.2.2 1.9-.4-.3-.5 0-1.2.6-1.4.7-.3.4-.6-.7-.7-1.8 0-1.8-.2-.3-1 1.2-.8 1.6-2.4 1.5-7-.1-3.3-.5-6-1-6-2 0 .9-2.1 8.9-6.6 8.9-5 15.4-11 15.4-14.3 0-2.9-4.2-8.5-8-10.4-2.9-1.5-5.7-1.7-15.8-1.6l-12.4.2-3.7-5.9c-3.5-5.6-3.6-6-2.2-8.5 1.3-2.4 1.3-2.9-.5-5.9-2.4-4.2-6.8-6.1-10.9-4.8"/></svg>