<svg xmlns="http://www.w3.org/2000/svg" width="682.667" height="512" version="1.0" viewBox="0 0 512 384"><path d="M157 77c-3.6 1.3-5.7 1.7-6.4 1-2-2-7.4-1.1-9.5 1.7-2 2.4-2 2.7-.5 4.4s1.5 2.1-.4 6.1c-2.6 5.4-3.8 11.8-2.3 11.8.6 0 1.1.8 1.1 1.8 0 2.5 4.6 8.9 6.3 8.9.9 0 1.3-.6 1-1.5-.5-1.2-.2-1.2 1.5-.3 2.8 1.5 2.8 2.3-.4 6-2.2 2.7-2.4 3.2-1 3.7.9.4 2.3 1.8 3.1 3.3.7 1.4 2.9 4.3 4.8 6.3 1.9 2.1 3.4 3.8 3.3 3.9 0 0-.9.2-2 .4-2.5.5-6.6 4.5-6.6 6.5 0 .8.7 2.5 1.5 3.7 1.4 2 1.2 2.3-2.3 4.9-4.7 3.6-8 7.4-11.4 13.3-4.2 7.1-5.8 10.8-5.8 13.4 0 2.8 5 10.1 8 11.7 1.7.9 2 2 2 6.8-.1 10.1-2.4 16.5-9.4 25.6-1.1 1.4-1.2 2.3-.3 3.6.8 1.5.4 3.5-2.2 10.1-2.4 6.2-2.9 8.4-2 9 1 .6.8 2.1-.6 6.6-1.1 3.2-2.3 6.3-2.7 6.9s-.7 2.4-.6 4c.2 2.9-2.4 20.2-8.7 58.9-1.9 11.5-4.2 28.2-5.1 37-.8 8.8-2 18.2-2.5 20.9s-.9 5.3-.9 5.7c0 .5 24.3.9 54 .9 53.4 0 54 0 54-2 0-1.1-1.6-11.4-3.5-22.8-1.8-11.4-4.4-28.4-5.5-37.7-2.4-18.9-9.2-47.5-15.8-66.3-3.7-10.5-3.9-11.2-2-11.2 1.7 0 1.2-1-2.9-5.8-2.7-3.1-5.3-6.2-5.7-6.9-.6-1.1 10.2-17.5 12.5-18.9 1.6-.9 1-6.9-1.6-15.9s-2.5-12 .4-14.2c1.4-1.1 1.4-1.4-.7-2.8-1.2-.9-2-2.1-1.6-2.6.7-1.2 1.4-4.8 2.1-11.2.4-3.8-.2-6.8-2.8-14-1.8-5.1-3.6-9.7-4-10.3-1.3-1.6 1.1-3.6 2.8-2.3 1 .9 1.3.8 1.3-.5 0-1.9 1.6-2.1 2.3-.4.5 1.3 1.8.1 3.1-2.7.3-.6 1-.2 1.6.7 1.8 2.9 3.3 2.1 2.6-1.3-1-4.9.1-7.7 2.9-7.3 2.1.2 2.5-.3 3-3.4 1-5.6 1.4-6.5 3-5.8.8.3 1.5.3 1.5.1 0-1.5-4.4-11.3-6.5-14.3-1.5-2.1-2.5-5.1-2.5-7 0-2.7-.9-4.3-3.8-7.1-2.1-2-5.1-5.3-6.6-7.5-1.6-2.1-4.7-4.7-7-5.7-5.6-2.5-16.3-2.5-23.6.1m188.5 72.3c-1.6.8-4.5 1.7-6.4 2-1.9.4-5.2 1.6-7.5 2.6s-5.3 2.4-6.9 3c-2.9 1.1-6.7 6.4-6.7 9.4 0 1 1.6 3.3 3.5 5.3 2.4 2.3 3.5 4.4 3.5 6.4 0 1.5.2 3.4.5 4.2s-1.5 2.5-4.7 4.5c-12.7 7.6-19.6 16.6-18.5 24.4 1.1 8.3 8 11.4 23.5 10.4 7.7-.5 9.9-.3 9.9.7 0 .7.4 2.6.8 4.2l.8 2.9-4.4-.5c-10.8-1.4-28.7-5.1-32.5-6.8-2.3-1-8.6-4.5-13.9-7.9-9.7-6.1-13.2-7.4-12.1-4.6.7 2-1.3 1.9-3.4 0-2.2-2-9-3.2-9-1.7 0 .6.9 1.6 2.1 2.2 2 1.1 2 1.2.2 2.5-1 .8-2.6 1.5-3.5 1.5-1 0-1.8.2-1.8.5 0 1.5 3.4 5.5 4.7 5.5.8 0 1.2.4.9.9s.1 1.2 1 1.5c1.2.5 1.4 1.5.9 4.9-.6 4-.4 4.5 2.7 7.3 2.8 2.4 5.3 3.4 13 4.8 5.6 1.1 11.4 1.6 14 1.2 13.5-1.8 22.4-1.7 32.7.3 13.1 2.6 15.2 3.8 14.4 8.6-.4 2.5-.1 4.1 1 5.3 2.1 2.3 9.7 19 9.7 21.3 0 1-.8 4.1-1.9 6.8-1.2 3.1-1.5 5.3-.9 5.9s-.1 3.1-2 6.9c-1.7 3.2-5.5 13.9-8.7 23.8-3.1 9.9-7.6 23.1-10.1 29.3-4.3 10.6-4.5 11.4-3 13.6 1.8 2.8 12.6 7.2 20.5 8.3l5.5.8 1.3 5c.7 2.8 1.1 5.6.8 6.3-.3.9 3.1 1.2 14.9 1.2h15.4l1.3-6.6c1.5-7.3.8-6.8 12.4-10.4 11.7-3.6 13.7-6.1 9.6-11.8-4.6-6.6-6.4-12.3-10.6-33.7-2.4-12.4-5-24.3-5.6-26.5-.9-2.9-.9-4.4-.2-5.1.8-.8.6-3-.8-7.6-1-3.6-2.5-11.7-3.4-18.1-.9-6.3-2.5-14.2-3.7-17.4-1.1-3.3-1.7-6.2-1.3-6.6s6.4-.5 13.3-.3c30.9.9 43 .6 44.9-1 1-.9 2.6-1.9 3.6-2.2.9-.4 1.7-1.6 1.7-2.7 0-1.5.7-2 2.6-2 1.4 0 2.3.4 1.9 1-1.3 2.1 2.4.9 4.2-1.3 1-1.3 2.3-2.2 3-2 1.7.6 2.6-1.6 1.3-3.2-.9-1.1-.7-1.2.8-.8 1.4.3 2.1-.2 2.5-1.8.8-3.1.4-3.5-6.3-6-5.7-2.1-8.2-3.7-4-2.6 1.3.3 2 0 2-.9 0-1.8-4.2-1.8-9.4.1-4.3 1.5-6.3 1.1-4.6-1 2.3-2.8-1.1-2.4-8.7 1.1-12.9 6-21.9 9.1-29.5 10.4-4 .6-9.5 1.6-12.1 2.1-8.2 1.5-13.5 1.2-14.7-1-1.3-2.6-1.3-3.1.5-3.1s1.8-.1.5-3.4c-.6-1.7-.6-2.6 0-2.6s1-.9 1-2 .4-2 .9-2 .7-.9.4-2c-.3-1.2 0-2 .8-2s.6-.5-.6-1.3c-2.3-1.8-.4-3.1 3.2-2.2 3.1.7 7.7-2 6.9-4.2-.4-.9 1.3-3.2 4.8-6.4 8.6-7.8 9.4-12.1 3.7-19-4.1-4.9-12.9-7.4-23.3-6.6-4 .3-8 .8-9 1.2-1.2.5-2.5-.6-4.8-4-2.9-4.2-3.1-4.9-2-7.5 2.7-6.6-6.1-12.9-13.5-9.7"/></svg>