<svg xmlns="http://www.w3.org/2000/svg" width="682.667" height="512" version="1.0" viewBox="0 0 512 384"><path d="M165.7 75.1c-2.7.4-6.7 1.5-8.9 2.4-3.2 1.3-4.3 1.3-5.5.3-2.8-2.3-5.8-1.9-8.7 1.1-2.4 2.5-2.6 3.1-1.5 4.9 1 1.6.8 3.2-1.1 9.1-1.8 5.7-2 7.4-1 8.6.7.8 1 2.2.6 3-.3.8-.1 1.5.5 1.5.9 0 3.4 4.7 3.1 6 0 .3 1 .7 2.3.8 1.8.1 2.3-.2 1.9-1.3-.5-1.1-.2-1.3 1-.9 2.3.9 2 4.4-.5 7.1-2 2-2 2.3-.5 2.9.9.4 2.3 1.8 3.1 3.3.7 1.4 2.9 4.3 4.8 6.3 3.6 4 3.7 4.8.1 4.8-2.4 0-6 4.6-5.5 7 .1.8 1 2.3 1.8 3.2 1.9 2.1.6 4.3-3.2 5.2-2.5.6-10.5 9.8-10.5 12 0 .7-.9 2.1-2.1 3.2-4.5 4-6.2 11.1-3.9 15.5.6 1.1 2.9 3.1 5.2 4.5l4.1 2.6-.6 9.3c-.5 8.2-1 10.1-4.1 16-2 3.7-4.1 7.4-4.7 8.1-.9 1.1-.8 1.8 0 2.8.9 1 .4 3.3-2 10s-3.7 9-6 10.3c-1.7 1-3.2 2.9-3.5 4.3s-1.2 4-2 5.8-1.4 3.7-1.4 4.2c0 2 2.8.9 4.5-1.6.9-1.4 1.9-2.3 2.3-2 .3.4 0 1.2-.6 1.8-1.7 1.7-1.5 4.5.4 5.6 1.3.7 1.4 1.5.5 4.8-.5 2.1-1.5 8.6-2.1 14.4s-2.5 20.2-4.1 32-3.6 30.3-4.4 41-1.8 21.6-2.1 24.2l-.7 4.8h52.7c34.1 0 52.6-.3 52.6-1 0-.5-1.6-9.9-3.5-20.7-1.9-10.9-4.4-27.2-5.5-36.3-1.2-9.1-3-20.7-4.1-25.8-2.9-13.4-10.5-39.3-14.2-48.8l-3.3-8 2.6.4c2.4.4 2.3.2-1.5-3.9-2.2-2.4-5.1-5.6-6.4-7.1l-2.3-2.7 5.1-7.7c5-7.7 5.1-7.9 5.1-15.4 0-4.1-.5-10.4-1-13.8-1-7.2-.6-8.9 2.2-9.8 2-.6 2-.6-.1-2.8-1.7-1.9-1.9-2.6-.9-6.1 2.4-9.1 2.1-12.8-1.6-23.6-2.7-7.9-3.3-10.6-2.4-11.6q1.05-1.35 1.8-.3c.4.6 1.3.4 2.6-.8 1.7-1.7 2-1.7 3.1-.3 1.5 2.1 2.2 1.2 2.5-3.2.2-2 .9-3.9 1.6-4.2.6-.2 1.2-1.4 1.2-2.5 0-2 .1-2 1.6-.6.8.9 1.9 1.6 2.3 1.6 1 0 2.4-5.7 2.2-8.3-.3-2 1-2.2 2.7-.5 3.1 3.1-.3-8.7-4.6-16.2-1.6-2.6-2.5-5.6-2.3-7.3.2-2.2-.6-3.6-3.6-6.5-2.2-2-5.2-5.4-6.8-7.6-4.5-6.2-13.2-9-22.8-7.5m178 79.5c-.3.3-2.4 1-4.7 1.5-6 1.4-18.8 7.7-20 9.9-.5 1-1 3.5-1 5.5 0 2.9.5 3.9 3 5.3 2.6 1.5 3 2.2 2.9 6.2 0 4.4-.2 4.6-5.5 8-5.5 3.4-11.3 9.1-14.5 13.9l-1.5 2.4-6-3.8c-3.2-2.1-8.6-5.8-11.8-8.3-6.3-4.8-6-4.9-9.2.4-1 1.8-1.2 1.8-3.8.1-2.8-1.9-4.9-1.5-4 .7 1 2.6-2.4 3.9-8.4 3.3-3.1-.3-6.5-.8-7.4-1.2-1.4-.5-1.8-.2-1.8 1.2 0 2.8 7.1 6.4 14.9 7.7 7.1 1.2 6.7.6 5.9 7.8-.3 2 .5 2.3 8.7 3.9 11.6 2.4 24.5 6.9 37 13.2 5.5 2.8 12.3 6.1 15 7.5 2.8 1.3 6.5 3.5 8.3 4.9 3.2 2.4 3.3 2.7 2.7 7.5-.5 3.8-.3 5.3.9 6.7 1.8 2 9.6 18.3 9.6 20.2 0 .7-.8 3.7-1.7 6.6-1.3 4.2-1.4 5.6-.5 6.2.9.5.4 2.2-1.7 6.2-2.8 5.1-6.1 15.5-13 40.4-1.7 6-4.2 13.9-5.6 17.4-1.4 3.6-2.5 7.4-2.5 8.6 0 2.7 2.6 5.1 6.5 6.1 1.7.4 3.5 1.1 4.2 1.6.7.6 4.1 1.2 7.5 1.5 8.1.7 9.2 1.4 10.7 6.2l1.2 4.1h27.8l1.3-4.7c1.2-4.1 1.8-4.8 4.8-5.5 15.4-3.8 15.6-4 12.2-12-2.7-6.3-4-12.3-6.2-30.3-2.1-17-4.6-30.9-6.1-33.7-.6-1-.5-2.6.2-4.1.8-1.9.6-3.8-1-9-1.1-3.6-2.5-10.3-3.1-14.9-1.6-11.5-4-21.8-5.8-24.5-2.1-3.3-.6-4.7 11.8-10.5 13.3-6.2 31.9-11.6 43-12.5 7.1-.5 8.8-1 10.9-3.1 1.3-1.3 4.5-3 7.1-3.8 4.7-1.4 8.2-4.2 8.6-7 .3-2.2-3.6-3.9-9.6-4-7.4-.1-8.6-.8-6.5-4.1 2.3-3.4 1-4.2-2-1.3l-2.5 2.4-2.8-2.7c-1.6-1.5-3.3-2.7-4-2.7-.6 0-4.2 2-7.9 4.4s-14.2 8-23.3 12.6c-9.1 4.5-17.6 9-19 10-1.4.9-3.4 2-4.5 2.4-1.7.5-2 .2-2-1.7.1-1.3.5-2.8.9-3.5.4-.6 0-2.2-.8-3.4-2-3.1-1-6.5 2.5-8.3 10-5.2 20-17.5 18.3-22.7-1.3-4.5-6.4-9.6-11.2-11.5-5-1.9-17.6-2.5-24.3-1-3.4.7-3.7.5-6.3-3.4-2-3-2.5-4.4-1.7-5.2 1.9-1.9 1.2-5.3-1.5-8.1-2-2-3.7-2.6-6.9-2.6-2.3 0-4.4.3-4.8.6"/></svg>