<svg xmlns="http://www.w3.org/2000/svg" width="682.667" height="512" version="1.0" viewBox="0 0 512 384"><path d="M159.5 76.7c-2.7.8-5.5 1.9-6.2 2.5-.8.6-1.5.3-2.3-1.1-1.5-3-5.1-2.6-8.4.8-2.4 2.5-2.6 3.1-1.5 4.9s1 3.1-1 8.6c-1.5 4.2-2 7.2-1.5 8.3.4 1 .9 2.2 1 2.8.6 3.4 3.1 7.5 5.5 8.9s2.8 1.4 3.3 0c.3-.8.2-1.2-.4-.9s-1 .1-1-.5c0-.7.6-1 1.3-.8 2.1.8 1.9 4.6-.4 6.9l-2.2 2.2 2.1 1.8c1.2.9 2.2 2.1 2.2 2.7 0 .5 1 1.7 2.1 2.8 1.2 1 2.5 2.9 3 4.1.5 1.3 1.6 2.3 2.4 2.3.9 0 1.3.4 1 1-.3.5-1.7 1-3 1-1.5 0-3.2 1.1-4.5 3l-2.2 3 2.1 3.4c2.3 3.6 1.8 4.7-2.6 6-2.4.8-7.9 7-10.7 12.1-.9 1.6-2.8 4.5-4.1 6.4-4.4 6-2.9 13.7 3.1 16.6 4.2 2 4.9 4.4 4 13.9-.6 7.2-5.3 18.6-8.6 21.3-1.2.9-1.3 1.6-.3 3.1.9 1.6.6 3.5-1.8 10.3-1.6 4.6-3.6 8.8-4.5 9.4-4.1 2.4-6.5 5.2-6.7 7.5-.1 1.4-.8 3.6-1.6 4.9-1 1.8-1 2.6-.1 3.5.9.8 1.6.6 2.7-1.1.9-1.3 2-2.3 2.6-2.3.7 0 .7.4-.1 1.2-1.9 1.9-1.4 4.6.9 5.3 1.3.4 1.8 1.2 1.5 2.2-.3.8-1.3 6.9-2.1 13.6-.9 6.7-2.9 22.5-4.5 35.2-3.3 25.6-3.5 28.2-5.1 51-.6 8.8-1.3 16.8-1.5 17.7-.5 1.7 2.4 1.8 52 1.8 43.2 0 52.6-.2 52.6-1.3 0-.8-1.1-7.4-2.5-14.8-2.3-12.4-6.4-39.8-8-52.9-1.9-15.4-12-52.3-18.5-67.4l-1.9-4.6 2.7.6c2.5.6 2.3.2-2.4-4.7-8.4-9-8.2-7.8-2.5-16.7 5.8-8.9 6-10.9 4-27.6-1.1-8.8-1.1-9 1.3-10.8l2.3-1.8-2.3-1.8c-1.3-1-1.9-2.1-1.5-2.5 1.1-1.1 3.2-9.7 3.2-13.2.1-1.7-1.5-7.7-3.4-13.4-2.8-7.9-3.3-10.6-2.4-11.7.6-.8 1.5-1.1 2-.8s1.7-.2 2.6-1.1c1.6-1.6 1.7-1.6 3 .1 1.7 2.3 2.5 1.4 2.6-3 0-1.9.7-3.8 1.4-4 .7-.3 1.3-1.5 1.3-2.7 0-2.1.1-2.1 1.8-.6 1 1 2.1 1.7 2.4 1.7.5 0 2.1-5.6 2.7-9.3 0-.4 1-.3 2 .3 2 1 2 1 .1-4.6-1.1-3.1-3.2-7.8-4.6-10.3-1.5-2.5-2.6-5.8-2.5-7.4.1-2-1.1-4.1-4.2-7.5-2.4-2.6-5.3-6.1-6.5-7.9-4.8-6.8-17-9.2-28.7-5.6m184.3 77.8c-.3.3-2.9 1.2-5.9 2s-7.2 2.3-9.4 3.4c-2.1 1.2-4.5 2.1-5.1 2.1-2.6 0-5.5 5.3-5.2 9.4.2 3.3.8 4.3 3.1 5.4 2.4 1.2 2.7 1.8 2.7 6-.1 4.6-.2 4.8-5.6 8.2-5.5 3.4-11.3 9.1-14.5 13.9l-1.6 2.5-4.8-2.9c-2.7-1.5-7.9-5-11.5-7.7-3.7-2.6-7.1-4.8-7.6-4.8s-1.7 1.4-2.6 3.1l-1.8 3-2.9-2c-2.8-2-5.1-1.5-3.7.8 1.4 2.2-2.6 3.3-10.4 2.9-9.4-.5-10.1.4-3.4 4.6 3.2 2 6.4 3.1 10.9 3.5 3.6.4 6.7 1 7.1 1.3.3.4 0 2.2-.7 4.2s-1.1 3.8-.8 4.1 4.3 1.1 9 2c4.6.8 13.4 3.2 19.4 5.3 12.4 4.4 40.1 18 42.9 21.1 1.4 1.5 1.7 2.9 1.2 5.8-.5 3.3.1 5.3 4.9 14.7 3 6 5.5 11.8 5.5 12.9s-.8 4.1-1.7 6.9c-1.4 3.9-1.5 5-.5 5.7 1 .6.7 1.8-1.2 5.2-3.4 6.1-5 10.7-10.2 29.9-2.4 9.1-6.1 21.3-8.1 27.1s-3.3 11.4-3 12.3c.4.9 2.4 2.4 4.4 3.2 2.1.8 4.6 1.9 5.6 2.4.9.6 4.5 1.3 8 1.7 8.1.8 9.1 1.4 10.6 6.2l1.2 4.1h27.8l1.3-4.7c1.3-4.5 1.6-4.8 6.3-6 14.6-3.9 14-3 10-12.9-1.6-3.9-3.1-11-4.1-18.6-2.7-21.3-5.3-37.6-6.8-41.9-1-3-1.2-4.8-.4-6.4.7-1.6.5-3.8-1-8.6-1.1-3.6-2.3-9.2-2.7-12.4-.9-7.8-4.5-24.7-5.5-26-.4-.6-1.1-2-1.4-3.2-.6-2 .3-2.7 9.6-7.2 13.3-6.4 31.5-11.8 45.2-13.5 8.9-1.1 11.2-1.7 12.5-3.4.9-1.1 3.3-2.4 5.4-2.8 2.1-.3 5.2-1.8 6.8-3.1 3.1-2.6 3.9-6.3 1.4-6.3-.8 0-1.5-.4-1.5-.9s-2.9-1.1-6.5-1.3c-3.5-.2-6.7-.7-7.1-1.1-.4-.3.1-1.8 1-3.2 1.9-2.9.7-3.2-3-.9-2.3 1.6-2.6 1.6-4.7-.3-3.8-3.5-4.4-3.4-12.4 1.5-4.3 2.7-14.5 8.2-22.8 12.2-8.2 4.1-16.6 8.4-18.5 9.6-5.5 3.4-8 3.9-8 1.7 0-1.1.4-2.3.9-2.9.6-.5.4-2.3-.3-4.6-.9-2.6-1-4-.3-4.7.8-.8.7-1.1-.2-1.1-.7 0 2.2-2.3 6.3-5.1 8.1-5.4 14-12.1 15.1-17.1 1-4.4-3.5-10.5-10-13.8-4.2-2.1-6.4-2.5-13.5-2.5-4.7 0-10.1.3-12.1.8-3.4.7-3.7.5-6.3-3.4-2-3-2.5-4.4-1.7-5.2 1.9-1.9 1.2-5.7-1.4-8.2-1.8-1.9-3.5-2.5-6.8-2.5-2.4 0-4.6.2-4.9.5"/></svg>