<svg xmlns="http://www.w3.org/2000/svg" width="682.667" height="512" version="1.0" viewBox="0 0 512 384"><path d="M260.5 87.8c-2.2 1-6.2 3.2-8.9 5-4 2.6-6 3.2-10.1 3.2-6.9 0-15.2 3-21.7 7.8-4.3 3.2-6.1 5.5-9.5 12.3-5 9.9-6.9 16.9-8.3 29.9-1.4 13.2-1.2 21.9.5 34.1 2.5 17.7 6.8 27.3 16.1 35.8 10.5 9.7 26.1 12.6 40.5 7.8 8.4-2.9 17.7-4.9 18.9-4.2.8.5 1.5 4.1 2.6 13.5 1 9 1.7 7.2 1-2.8-.5-7.5-.4-9.2.7-9.2 1 0 1.9 3.1 3.2 10.4 1.9 11.6 2.6 13.2 4.9 12.3 2.9-1.1 3.8-5.5 2.2-10.6-1.5-4.9-3.6-14.3-3.6-16.5 0-.9 2.1-1.5 6.4-1.9 3.5-.3 8.9-1.7 12.1-3.1 3.2-1.5 6.1-2.6 6.6-2.6 2.1 0 9.8-5.9 13.8-10.5 14.9-17.3 15.5-37.5 1.9-66.6-5.7-12.2-11-19.8-19-27.5-7.5-7.3-13.7-11.6-22.3-15.5-5.6-2.5-7.6-2.9-15.2-2.8-6 0-10.1.6-12.8 1.7"/><path d="M281.2 242c0 1.4.2 1.9.5 1.2.2-.6.2-1.8 0-2.5-.3-.6-.5-.1-.5 1.3"/></svg>