<svg xmlns="http://www.w3.org/2000/svg" width="682.667" height="512" version="1.0" viewBox="0 0 512 384"><path d="M159 76.5c-3 .9-6.6 2.3-7.9 3.2-2.4 1.5-2.6 1.5-3.9-.5-3.3-5.1-10.5-.3-8.4 5.5.6 2 .5 4.1-.4 7.3-.8 2.5-1.4 6.3-1.4 8.5 0 4.2 3.7 12 5.7 12 .6 0 1.5.3 1.9.7 1.2 1.2 2.6.9 1.8-.4-.4-.7-.3-.8.4-.4 1.8 1.1 1.4 3.4-.8 5.3-2 1.7-2 1.7 0 3.8 3 3 8 9.6 8 10.6 0 .5.7.9 1.6.9s1.4.6 1.1 1.2c-.2.7-1.3 1.2-2.4 1q-2.1-.3-4.2 2.7c-2.6 3.5-2.6 4.9-.3 7.4 1.6 1.8 1.6 2-.7 3.6-4.2 2.7-10.9 9.9-12.7 13.3-.9 1.8-2.7 4.6-4 6.1-1.7 2.1-2.4 4.1-2.4 7.3 0 5.6 1.2 7.9 5.1 9.9 4.3 2.3 5 5.1 3.8 14.6-.9 7.5-4.2 16-8 20.5-.5.6-.7 2.3-.4 3.6.4 1.5-.6 5.6-2.5 10.9-2.4 6.7-3.7 8.9-6 10.2-1.7 1.1-3.2 2.9-3.5 4.5-.3 1.5-1.3 4-2.1 5.6-2.2 4.2-.2 5.7 3.2 2.5l2.6-2.4-1.3 2.8c-1.1 2.3-1 2.9.4 4 1.6 1.1 1.6 2.3-.2 16.7-5.3 41.9-7.1 58.9-8.1 74.5-.6 9.3-1.3 20-1.6 23.7l-.7 6.8h52.2c33.8 0 52.1-.3 52.1-1 0-.5-1.1-6.7-2.4-13.7-3.1-16.3-6.1-34.5-8.1-49.8-2.5-18.7-11-51.5-17.9-68.6-3.2-8-3.2-8.2-.3-7.4 1.9.6 1.7.2-1.3-3.1-2-2.2-4.6-5.1-5.9-6.6l-2.3-2.7 5.2-8.6 5.3-8.5-.6-10.3c-.4-5.6-1-11.8-1.3-13.8-.5-3-.2-4 1.7-5.9l2.4-2.2-2.1-1.4c-2.1-1.5-2.1-1.5-.3-7.1 2.2-6.4 2.4-10 .8-14-.6-1.5-2.4-6.4-4-10.8-2.7-7.7-2.7-8-1-9.7 1.1-.9 2.2-1.4 2.5-1 .4.3 1.1 0 1.6-.8.7-1.1 1.4-1.2 3.4-.2 2.4 1.1 2.6 1 2.6-1.4 0-1.4.7-3.9 1.6-5.6 1.5-2.8 1.7-3 2.7-1.3.9 1.6 1.2 1.4 2.8-2 1.1-2.1 1.9-4.6 1.9-5.6 0-1.2.6-1.6 2-1.2 1.8.5 1.6-.2-1.5-7.8-1.8-4.6-4-9.8-4.9-11.4-.9-1.7-1.6-3.8-1.6-4.8s-2.5-4.4-5.5-7.5-5.5-6-5.5-6.4-2-1.9-4.3-3.3c-5.6-3.2-14.2-4-21.7-2m183.5 77.7c-1.6.6-5.2 1.9-8 3-2.7 1.1-6.5 2.6-8.2 3.2-5.3 2-8.3 5.4-8.3 9.6 0 3.6 2.3 7 4.8 7 .8 0 1.2 1.8 1.2 5 0 4.9 0 5-5.8 8.8-5.6 3.9-12.2 10.3-15.2 15.1l-1.6 2.3-4.9-2.5c-2.8-1.4-8.4-4.8-12.5-7.6l-7.5-5-2 3.4-2.1 3.3-2.4-1.9c-3.6-2.7-5.1-2.4-4.8.8l.3 2.8-8.7-.2c-4.9-.1-8.8.2-8.8.7 0 1.4 6.9 6.9 9.3 7.4 1.2.3 4.8.8 7.9 1.1l5.7.6-.6 4.4c-.6 5-1.2 4.7 11.7 6.5 4.1.5 12.2 2.5 18 4.4 11.3 3.7 38.6 16.4 41.4 19.2 1.4 1.4 1.6 2.7 1.1 6.1s-.3 4.9.9 6.2c2.4 2.6 9.6 18.6 9.6 21.2 0 1.3-.7 4.3-1.7 6.7-1.1 3-1.3 4.6-.6 5.3.8.8.1 3.2-2.3 8.3-1.8 3.9-4.4 11.1-5.8 16.1-3.9 14.3-11.6 41.6-12.9 45.8-.8 2.7-.8 4.3-.1 5.5 1.6 2.4 11.1 5.8 18.7 6.6l6.6.7 1.6 5 1.7 4.9h27.7l1-3.7c.6-2.1 1.1-4.3 1.1-5 0-1.3 1-1.7 9.2-3.3 7.5-1.5 9.3-3.1 7.4-6.9-2.5-4.7-4.4-14.2-6.1-29.1-2-18.6-4.1-31.9-5.9-37.1-1-3-1.2-4.6-.4-5.8.7-1.2.5-3.7-1-9.1-1.2-4.1-2.6-11-3.2-15.4-1.4-10.4-3.6-20-5.6-23.7-1.4-2.9-1.4-3.2.3-4.4 3.7-2.7 21.5-9.7 32-12.5 6.9-1.9 14.7-3.2 21.7-3.6 9.5-.6 11.1-1 12.8-2.9 1.3-1.5 3.6-2.5 6.6-2.9s5.5-1.5 6.8-2.9c2.9-3.1 3.6-5.4 1.8-6.1-.9-.3-1.2-1-.9-1.6.7-1.2.8-1.2-7.2-1.4-7.4-.2-8.6-1.1-5.4-3.7 3.5-2.9 1.6-3.7-2.8-1.2l-3.8 2.2-2.2-3c-1.2-1.6-2.8-2.9-3.6-2.9s-5.4 2.2-10.2 5c-4.7 2.7-11.6 6.1-15.2 7.5s-12.9 5.7-20.6 9.5c-7.7 3.7-14.2 6.7-14.4 6.4-.2-.2.2-1.7.9-3.4 1-2.3 1-3.4.1-4.3-1.4-1.4-1.4-3 0-2.1.7.4.6-.2-.1-1.7-.9-1.6-1-2.4-.2-2.7.6-.2.9-.9.7-1.5-.3-.7 2.3-3 5.6-5.2 7.4-4.9 14.5-12.5 15.4-16.5 1.3-5.7-4.9-13.1-12.8-15.5-5.6-1.7-16.1-1.9-22-.6-3.6.9-3.8.8-6.7-3.4-1.8-2.6-2.6-4.6-2-5 1.1-.7 1.3-4.5.4-7-1.5-3.8-8.6-5.4-14.9-3.3m-6 71.9c1.1 1.7 0 2-2.1.4-1.7-1.3-1.7-1.4-.2-1.5.9 0 2 .5 2.3 1.1"/></svg>