<svg xmlns="http://www.w3.org/2000/svg" width="682.667" height="512" version="1.0" viewBox="0 0 512 384"><path d="M158.5 76.5c-2.7.7-7.2 2.3-9.8 3.4-6 2.6-5.7 2.6-5.7-.4 0-1.5-.6-2.5-1.5-2.5-2.1 0-4.8 4.6-4.2 7 .3 1.1.1 2.3-.5 2.6-.5.4-.7 2.1-.4 3.8.4 1.9.3 2.6-.3 1.8-.7-1.1-.9-1.1-1.4.2-.4.9-.2 1.6.3 1.6.4 0 .4 1.6-.2 3.7-.7 2.6-.7 4.8.1 7.3 1.2 4.1 5.6 9.4 7 8.5.5-.3 1.2.4 1.6 1.5s1.1 1.8 1.6 1.5c1.3-.9 1.1.9-.3 2.4-1.1 1-.9 1.6 1 2.8 1.2.9 2.2 1.9 2.2 2.4s1.4 2.8 3 5.1c3.6 4.9 3.7 5.6.7 6.7-1.2.5-2.8 2-3.6 3.4-1.1 2-1.1 2.9.2 5.4 1.8 3.3 1.3 4.3-2.4 6-2.9 1.2-9.1 8.4-10.9 12.3-.6 1.4-2.2 4-3.5 5.9-4.3 5.8-2.9 13.5 3 17 4 2.3 4.7 5.3 3.4 15-.8 6.8-5.3 17.3-8.2 19.2-.5.4-.6 2-.3 3.7 1 4.3-4.7 18.9-8.5 22-2 1.6-2.9 3.3-2.9 5.2 0 1.5-.7 3.3-1.5 4-1.8 1.5-2 3.6-.4 4.6.6.3 2.2-.6 3.5-2.2l2.3-2.9-1.2 3.3c-.9 2.7-.9 3.4.2 4.1 1 .7 1.1 2.2.2 7.7-.6 3.8-1.9 14.8-3.1 24.4-1.1 9.6-2.6 22.6-3.5 28.7-1.2 9-4.4 52.1-4.5 59.5 0 1.7 3.1 1.8 52.1 1.8h52.1l-.5-2.3c-2.1-8.5-7.3-38.3-9.7-55.7-1.6-11.4-4-25.4-5.4-31.1-3.4-14.4-11.1-39.6-14-46.3-2.4-5.5-2.5-5.6-.5-5.6 1.8 0 1.4-.8-2.5-5.1-2.5-2.8-4.6-5.6-4.6-6.2 0-.5 2.1-4.7 4.8-9.1l4.7-8.1-.3-8.8c-.2-4.9-.7-11-1.2-13.5-.5-3.1-.5-5.1.2-5.9.6-.7.7-1.3.2-1.3-.4 0 .1-.6 1.1-1.4 1.9-1.4 1.9-1.5.1-3.5-1.8-1.9-1.8-2.3-.2-7 .9-2.7 1.6-6.4 1.6-8.1 0-2.6-3-11.8-7.1-21.8-1.1-2.9 1.4-7.2 3.9-6.5 1 .2 2.3-.5 3.2-1.7 3.9-5.7 3.9-5.7 4-3.6 0 1.6.5 1.3 2.5-1.4 1.4-1.9 2.5-4.4 2.5-5.6 0-3.8 1-5.2 3.2-4.6 1.8.4 1.9.2 1.3-1.9-.5-1.3-.7-4.7-.6-7.4.2-4.3-.3-5.7-3.1-9.5-1.8-2.5-4-5.9-4.8-7.6-2.5-5.2-14.3-15.4-19.6-17-5.7-1.7-8.4-1.7-14.9.1m186.3 77c-.3.3-3 1.2-6.1 2s-7.3 2.4-9.4 3.5-4.3 2-4.8 2c-.6 0-2.3 1.3-3.8 2.8-4 4.2-3.5 10.5.8 12.2 1.8.7 2.4 1.8 2.7 5.6.3 4.7.3 4.8-4.2 7.8-6.9 4.8-14.7 12.4-16.5 16.2-.9 1.9-1.8 3.4-2 3.4-.7 0-15.2-8.4-20-11.7-5-3.3-5-3.3-6.7-1.3-.9 1.1-1.8 2.6-2 3.2-.3.8-1.1.7-2.8-.5-2.7-1.8-6-2.3-6-.8 0 .6.5 1.3 1 1.6.6.4.7 1.1.4 1.7-.4.7-3.7.8-9.6.3-8.7-.6-8.9-.6-7.9 1.3 1.5 2.8 6.8 7.1 9.4 7.6 1.2.3 4.6.7 7.5.9s5.5.6 5.7.9c.3.2 0 2-.5 3.8-.5 1.9-.6 3.8-.2 4.2s4.3 1.2 8.7 1.8c15.6 2 30.1 6.8 49.5 16.3l14.5 7.2v5.5c0 4 .6 6.3 2.1 8.5 3 4.2 8.4 16.9 8.4 19.6 0 1.3-.7 4.3-1.7 6.7-1.2 3.1-1.3 4.6-.5 5.4s.3 2.6-1.7 6.7c-3.4 6.6-6.9 17.6-11.1 34.3-1.7 6.7-4.5 16.3-6.1 21.5-1.7 5.2-2.9 10.4-2.7 11.6.5 3.5 8.8 6.8 21 8.3 4.7.5 4.8.6 6.1 5.2l1.4 4.7 14.1.3 14.1.3 1-3.8c.6-2.1 1.1-4.4 1.1-5 0-.7 1.2-1.5 2.8-1.9 4.5-1 10.6-2.5 12.4-3q3.9-1.2.9-7.2c-2.5-5.1-3.8-11.5-5.6-27.7-1.9-17.8-4.1-31.3-6-36.7-1.2-3.6-1.2-4.5-.1-5.7 1.2-1.1 1.1-2.2-.5-7-1.1-3.1-2.7-10.1-3.5-15.6-1.9-12.8-4-21.8-5.9-25.4-1.3-2.6-1.3-3 .3-4.4 3.2-2.9 21.5-9.7 33.6-12.6 6.7-1.6 16.6-3.2 22.1-3.5 7.8-.5 10.3-1 11.3-2.4.7-.9 3.5-2.2 6.3-2.7 2.7-.6 5-1.5 5-2 0-.6.9-1.3 2-1.7 1-.4 1.9-1.4 1.9-2.3 0-.8.5-1.5 1-1.5.6 0 1-.5 1-1 0-.6-.7-1-1.5-1s-1.4-.6-1.2-1.3c.1-.8-1.9-1.3-7-1.5-5.4-.2-7.3-.6-7.3-1.7 0-.7.9-1.7 2-2s2-1.1 2-1.6c0-1.4-2.9-1.1-5.9.7-2.7 1.6-2.8 1.5-5.9-1.5l-3.1-3.2-10.3 5.5c-5.7 3-13.3 6.6-17 8-3.6 1.4-12.4 5.4-19.5 8.8-7 3.5-13.1 6.4-13.4 6.6-.3.1-.5-1-.3-2.5.1-1.5.8-2.9 1.4-3.1.7-.3.5-1.2-.6-2.9-.9-1.5-1.1-2.2-.3-1.8.9.6 1 .3.5-1.1-1.7-4.4-.9-5.7 5.8-10.2 8-5.2 14.3-12.3 15.2-16.9.5-2.8.1-4.2-2.4-7.6-5-7-8.6-8.2-23.7-8.1h-13.1l-2.6-3.8c-1.5-2.1-2.3-4-1.8-4.3.6-.3 1-2 1-3.6 0-4.4-3.9-7.9-8.8-7.9-2.1 0-4.1.2-4.4.5m114.9 63.1c-.3.3-1.2.4-1.9.1-.8-.3-.5-.6.6-.6 1.1-.1 1.7.2 1.3.5m-123.2 9.5c1.1 1.7 0 2-2.1.4-1.7-1.3-1.7-1.4-.2-1.5.9 0 2 .5 2.3 1.1"/></svg>