<svg xmlns="http://www.w3.org/2000/svg" width="682.667" height="512" version="1.0" viewBox="0 0 512 384"><path d="M142.5 76.3c-1.1.7-2.1 1.3-2.3 1.3-1.1.5-6.2 18.3-6.2 21.5 0 4.7 3.7 13.9 5.5 13.9.9 0 1.6 2.2 2 6.7.7 8 3 14 5.6 14.8 2.5.8 2.4 2-.3 4.5-2.3 2.1-2.3 2.1-.5 5.3 1.8 3.1 1.8 3.2-.1 4.7-5.3 4.2-7 5.8-10 9.6-1.8 2.3-3.2 4.8-3.2 5.5s-1 2.3-2.2 3.6c-1.5 1.6-2.3 4-2.6 7.7-.4 5.4-.4 5.5 4.3 10.1l4.8 4.6-.6 7.9c-.4 4.3-1.3 9.4-2.1 11.2-1.9 4.1-4.9 9.3-6.5 11.2-.7.8-.9 2.5-.6 3.9.4 1.5-.4 5.2-2.4 10.3-1.7 4.3-2.8 8-2.6 8.2.2.3-.5 1.2-1.7 2.1-1.9 1.6-5.8 10.1-5.8 12.8 0 2 2 1.5 4.2-1 1.1-1.2 1.6-1.6 1.2-.8s-.8 4.2-1 7.5c-.2 7.4-2.7 29.2-5.9 52.3-1.3 9.4-2.9 25.8-3.5 36.5-.6 10.6-1.5 22.1-1.9 25.5l-.7 6.3h103.9l-.7-3.3c-2.1-10.3-7.7-43.5-8.6-51.2-3.8-31.3-11.4-61.8-21.5-85.8-.6-1.5-.4-1.6 2-.7s2.2.5-1.9-4.1c-2.5-2.8-4.6-5.5-4.6-5.9 0-.5 2.3-5.2 5.2-10.6l5.2-9.8L185 202c-1.7-13.6-1.6-17.1.7-18.8 1.7-1.2 1.7-1.4-.4-3l-2.1-1.7 2-6c1-3.3 1.7-7.3 1.4-8.8-.6-2.8-4.4-13.2-7.2-19.6-1-2.2-1.1-3.7-.5-4.5.6-.7.8-2.1.5-3.2-.4-1.4-.1-2.1 1-2.1.9 0 1.6.5 1.6 1.1s.7.3 1.5-.8c.8-1 2.5-2 3.8-2.1 2-.3 2.4.1 2 1.9-.4 1.7-.1 1.6 1.5-.8l2-2.9.4 2.9c.3 2.7.5 2.5 3.5-3.1 1.7-3.3 3.7-9.1 4.3-12.8 1.4-8 .6-10.7-5.2-17.4-2.1-2.4-3.8-5.4-3.8-6.6 0-2.4-10.1-12.1-16.2-15.6-6.7-3.8-17.2-3.4-26 1L146 81v-3c0-3.3-.5-3.5-3.5-1.7m11.5 58.8c0 1.3-3.8 1.1-4.6-.2-.9-1.6 1.8-3 3.3-1.7.7.6 1.3 1.4 1.3 1.9"/><path d="M186 134.5c-.7.9-.8 1.5-.2 1.5.5 0 1.2-.7 1.6-1.5.3-.8.4-1.5.2-1.5s-.9.7-1.6 1.5m160.8 19c-.3.3-2.9 1.2-5.9 1.9-7.4 2-16.1 6.1-18.8 9-3.3 3.5-2.7 9.6 1.2 11.4 2.1 1 2.7 2 2.7 4.5 0 2.8-.7 3.6-5.6 6.7-14.9 9.3-21.4 20.9-16.9 30.4 2.8 6 7.8 7.9 21.1 8.4 10.6.4 11.2.5 12.5 2.8.7 1.3.9 2.7.6 3.1-.4.3-5.5.1-11.4-.5-6-.7-13.6-1.2-17-1.2-7.1 0-13.7-2.5-19.8-7.4-7.6-6.2-13.7-10.6-14.6-10.6-.5 0-1.8.9-2.9 2-1.9 1.9-2.5 2-5.5.8-3.1-1.1-3.6-1-4.9.7-.8 1.1-1.2 2.3-1 2.7.8 1.3-1.9 2.1-7.2 1.9-5.8-.1-6.2.3-3.9 3.5 1.2 1.8 1.2 2.4 0 4-1.2 1.7-.9 2.2 2.3 5.1 3.5 3.1 4.7 3.5 12.1 3.8 1.9.1 2.7.8 3.3 3.2.9 3.6.5 3.4 19.4 7.9l11.3 2.7 6.8-1.8c8.6-2.2 34.6-3.3 36.7-1.6 1 .8 1.3 2.3.9 4.7-.4 2.6.1 4.8 2.5 9.2 1.7 3.1 4 8.5 5.1 12 2 6 2.1 6.5.5 11.8-1.1 3.9-1.3 5.9-.5 6.8.7.9.7 1.8-.3 3.2-2.8 4.2-6.6 15.9-11.6 35.9-2.9 11.5-6.1 23.4-7.1 26.4-2.2 6.4-2.4 9.4-.5 11 2.1 1.7 12.6 5.1 16 5.1 6.1 0 7.5.9 8.9 5.9l1.3 4.6 14.7.3 14.6.3.7-2.8c1.7-7.7 1.5-7.6 9.8-9.3 9.5-2.1 10.5-2.9 8.7-7.3-3.4-8.3-4.3-11.7-5.7-22-2.7-20.1-5.4-36.1-7.1-42.5-1.1-4.4-1.3-6.6-.6-7.3s.5-3-.8-7.2c-1.1-3.4-2.8-11.9-3.9-18.9s-2.8-15.2-3.8-18.2c-1-3.1-1.6-5.6-1.1-5.6 1.8 0 23.7 4.9 26.2 5.9 4 1.6 12.7 1.4 17.7-.4 4.7-1.7 23.7-5.4 31.3-6.2 4.7-.5 6.2-1.8 3-2.6-1-.2.1-.2 2.5.1 4.4.4 6.1-1.3 2-2.1-1.7-.3-1.5-.5.8-.6 3.2-.1 3.2-.1 3-5.4l-.3-5.2-3.5.1c-1.9 0-4.1.4-4.9.9-1 .6-1.1.5-.3-.4 1.5-1.6.5-6.4-1.1-5.7-.8.3-1.6-.1-1.9-.9-.3-1-1.5-1.2-4-.8-3.1.5-3.9.1-6.1-2.6-3.1-3.6-5.2-3.9-8.6-1.2-1.3 1-6.1 3.7-10.6 6-9.2 4.6-14.7 5.6-34.4 6.6-10.6.5-12.8.3-13.9-1-1-1.2-1-1.5 0-1.5q1.35 0 .6-3c-.3-1.9-.2-2.9.4-2.5.6.3 1 .2 1-.4 0-.5-.4-1.2-.8-1.5-.4-.2-.8-1.7-.7-3.3 0-2 .9-3.3 3.3-4.8 12-7.3 19.2-15.4 19.2-21.5 0-4.7-4.6-11.2-9.8-13.9-5.5-2.8-15.5-4.4-23.2-3.6l-6.5.6-2.2-4c-1.4-2.4-1.9-4.2-1.3-4.6 2.2-1.3 1.1-6.3-1.9-8.4-2.6-1.9-9-2.9-10.3-1.6m117.9 75.1c-.3.3-1.2.4-1.9.1-.8-.3-.5-.6.6-.6 1.1-.1 1.7.2 1.3.5"/></svg>