<svg xmlns="http://www.w3.org/2000/svg" width="682.667" height="512" version="1.0" viewBox="0 0 512 384"><path d="M250.8 85.4c-8.5 2.9-12.8 5.9-17.4 11.9-3.1 4-4.5 5-9.5 6.4-10.4 2.9-20 13.2-23.4 25.3-6.2 21.8 3.6 64.1 19.4 83.7 14.2 17.6 34.8 22.3 52.6 12.1 11.9-6.8 23-11.9 23.4-10.6.6 2.2 5.2 11.8 5.6 11.8.2 0-.5-2.5-1.5-5.5-1.1-3.1-1.4-5.3-.9-4.9.7.4.9-.1.7-1.2s-1-1.8-1.7-1.6c-.7.1-1-.2-.6-.8.3-.6 1-.8 1.5-.5 1.3.8 8.8 14.6 9.5 17.7 1 3.8 3.1 5.4 5 3.8 2.6-2.1 1.7-5.7-4-16.3l-5.5-10.3 7.3-3.4c9.5-4.4 20-15 25-25.3 10.2-20.8 4.6-41.1-18.4-65.9-15.4-16.8-34.4-26.9-52.6-28.2-6.5-.5-8.9-.2-14.5 1.8"/><path d="M302.2 227.5c0 .5.6 2.6 1.3 4.5s1.4 2.8 1.4 2-.6-2.9-1.4-4.5c-.7-1.7-1.3-2.6-1.3-2"/></svg>