<svg xmlns="http://www.w3.org/2000/svg" width="682.667" height="512" version="1.0" viewBox="0 0 512 384"><path d="M145 77.7c-1.3 2.9-3.3 5.6-4.7 6.2-2.5 1.1-3 2.6-1.3 3.6.8.5.7 1.1 0 2-.7.8-.9 1.8-.7 2.2 1.2 1.9-1.6 11.2-4.7 15.8-5.4 8-8.3 14.7-5.7 13.1.5-.4 1.2 1.2 1.6 3.4s1.1 3.8 1.6 3.5c.4-.3.6-2 .3-3.8-.4-2.7-.3-2.8.5-1 1.6 3.5 4.3 6.2 5.7 5.6.8-.3 1.7.2 2 1 .7 1.9 8.4 6.1 8.4 4.7 0-.6.7-1 1.5-1 2.7 0 1.6 1.8-3 4.7-4.7 3-5.4 4.7-3.1 7.8 1.2 1.7.9 2.4-3.7 6.9-6.7 6.9-12.8 15.2-13.4 18.4-1.9 11-1.2 13.7 4.8 16.8l3.2 1.6-.6 7.1c-.7 8.8-2.1 13.7-4.7 16.7-1.1 1.2-2.2 3.2-2.6 4.4-.4 1.1-1.4 2.6-2.2 3.2-1.2.8-1.2 1.4-.2 3s.6 3.2-2 9.8c-1.7 4.3-2.9 8.5-2.6 9.3.3.7.2 1.3-.3 1.3s-1.4 1.5-2.1 3.2c-.6 1.8-1.6 4.1-2.1 5-1.3 2.6-1.1 4.6.7 5.6 1.5.9 1.5 1.8.1 12.3-.9 6.3-2.6 18.8-3.7 27.9-1.2 9.1-2.7 21.2-3.5 27s-1.7 17.5-2.1 26-1.2 19.4-1.8 24.3l-1.2 8.7h51.3c33.7 0 51.3-.3 51.3-1 0-.6-1.5-9.9-3.4-20.8-1.9-10.8-4.4-27.6-5.6-37.2-1.1-9.6-2.8-21.1-3.6-25.5-2.4-12-11.8-44.5-14.8-51l-2.6-5.7 2.5.4c3.3.7 3.2.1-1-4.2l-3.6-3.6 1.6-4c.9-2.1 3.3-7.4 5.2-11.7l3.6-7.7-1.6-11.8c-1.6-11.4-1.5-15.3.6-18 .7-.9.5-1.6-.7-2.5-1.6-1.2-1.6-1.6-.2-5.7.9-2.5 1.6-5.7 1.6-7.2 0-3.2-6.1-20.5-8.5-24.2-1-1.4-1.3-2.6-.7-2.6s1.2-1.2 1.4-2.8c.2-1.5.8-2.6 1.6-2.4.7.1 1.5-.5 1.8-1.3 1-2.5 2-1.7 2.1 1.7.2 6.1.1 6 2.8 4.2 1.4-.9 2.5-1.3 2.5-.9 0 .5.9 0 2.1-1.1 1.6-1.4 2-1.5 1.8-.4-.6 2.3.2 2.4 4.3 1 3.1-1.2 4-2.1 5.3-5.9 2-6 1.9-9.7-.6-15.1-4.1-8.9-6.3-15.5-6-18.2.2-2.2-1.2-4.3-6.6-10.3-7.9-8.7-12.4-11.2-22.5-12.6-10.5-1.5-12.6-1.4-14.7.5-1.9 1.7-2 1.7-2.4-1.1-.3-2.6-.5-2.5-2.7 2.4m43.2 59.5c-.7.7-1.2.8-1.2.2s.3-1.4.7-1.7c.3-.4.9-.5 1.2-.2.2.3-.1 1.1-.7 1.7m-44 15c-.7.7-1.2.8-1.2.2s.3-1.4.7-1.7c.3-.4.9-.5 1.2-.2.2.3-.1 1.1-.7 1.7m221.3.9c-9 2.1-15.7 7.9-16.7 14.4-.3 1.6-1.4 2.1-6.3 2.7-12.6 1.6-20.7 5.9-25.1 13.4-2.1 3.5-2.5 5.4-2.1 8.4.9 7.2 9.1 15.6 21.1 21.7 4.4 2.2 4.8 2.7 4.2 5.3-.3 1.7-.1 3 .6 3.2 1.6.6-.8 9.7-3.1 12.3-2.6 2.9-6.7 14.6-8.6 24.5-.9 4.7-1.9 9.3-2.1 10.3-.3 1-3.8 3.4-7.9 5.4-8 4-11.7 8.2-9.4 10.9 1.1 1.4 1.2 3.1 1 15.8-.1 7 2.4 11 7.1 11.4 3.3.3 3.7.1 3.5-2-.1-1.3-.8-2.8-1.7-3.5-1.2-1-1.2-1.2-.1-1.3 1 0 1.1-.3.2-1.4-2.2-2.7-.3-4.2 5.1-4.2 4.6.1 5.3-.2 8.2-3.5 1.7-2 4.5-6.3 6.1-9.5 2.6-4.9 3-6.8 2.9-12.8-.2-6.8-.1-6.9.8-2.6q.9 4.5-.3 11.4c-1 6.1-.9 7.1.4 8.1 1.4 1 1.4 1.8-.8 7.1-3.3 8.2-6 18.9-10.1 39.3-1.9 9.7-4.1 19.3-4.9 21.4-.8 2-1.5 4.1-1.5 4.6 0 1.8 7 5 12.5 5.6 6.3.8 6.7 1.3 7.9 9.7l.7 4.8H364v-4.8c0-6 1.5-8.7 2.8-5.2.5 1.4 1.2 4.2 1.6 6.3l.7 3.7h15.8l.6-4.8c.4-2.6.8-5.2 1-5.8.3-1.1 5.9-2.4 10.8-2.4 1.5 0 4.1-.7 5.8-1.5l2.9-1.6-1.9-3.7c-2.4-4.8-7.5-21.6-9.5-31.2-2.2-10.8-6.2-26.5-8.5-33.5-2.7-8-1.4-10.2 2.5-4.1 4.7 7.6 11.4 10.4 16.2 7 1.8-1.2 2.6-1.3 3.7-.4 1.8 1.5 1.9 5.2.3 6.8-.9.9-.6 1.6 1.2 3.2 2.7 2.3 3.5 2.4 7.8.9 5.6-1.9 5.4-10.8-.4-18.6-1.6-2.1-2.4-4.5-2.4-7.1 0-3.9-.2-4.1-9.2-10.1-13.7-8.9-13.3-8.5-16.9-19.6-1.7-5.5-4.5-12.9-6.1-16.5-2.4-5.4-2.7-6.9-1.8-9.3.5-1.7 1-4 1-5.2 0-2.4 1.7-3.5 5.4-3.5 4.1 0 12.5-2.7 16.1-5.1 11.6-7.9 7.3-24.3-9.2-34.7l-4.3-2.7v-8.1c0-8.2 0-8.2-3.7-11.6-2.1-1.8-4.6-4.6-5.6-6.1-1.5-2.3-2.4-2.7-6.5-2.6-2.6.1-6.5.5-8.7 1m14.2 77.1c-.3.8-.6.5-.6-.6-.1-1.1.2-1.7.5-1.3.3.3.4 1.2.1 1.9"/></svg>