<svg xmlns="http://www.w3.org/2000/svg" width="682.667" height="512" version="1.0" viewBox="0 0 512 384"><path d="M145 78.3c-1.1 2.5-3 4.8-4.5 5.5-2.7 1.2-3.3 2.8-1.2 3.5.9.3.9.7-.1 2-.8.9-1.1 2.1-.7 2.6.9 1.5-3.1 10.1-6.4 13.6-1.5 1.6-3.2 3.7-3.9 4.6-1.8 2.4-4.4 9.2-3.3 8.5.5-.3 1.5 1 2.1 3 1.2 3.6 1.3 3.7 2.5 1.5l1.2-2.3 1.2 2.9c1.3 3.2 8.6 9 10.7 8.5 1.9-.4 5.4 1.6 5.4 3.1 0 .7-2.1 2.5-4.6 4l-4.5 2.7 1.9 2.6 1.9 2.6-6.8 6.9c-3.7 3.7-7.4 8.1-8.2 9.6s-2.4 4.6-3.6 6.8c-3.8 7.2-2.3 13.8 4 17 2.7 1.4 2.9 2 2.9 6.9 0 7.7-1.6 15.1-4.2 18.9-5.8 8.6-6 8.8-4.9 10 .7.9.1 3.8-2 9.7-1.6 4.6-2.8 8.9-2.7 9.4.1.6-.5 3.1-1.2 5.6-.8 2.5-1.5 7-1.6 10-.1 4.8-4.8 42.6-7.4 59.5-.5 3.3-1.4 12.5-2 20.5-1.7 22.1-3 38.1-3.7 42.2l-.6 3.8h51.2c40.2 0 51.1-.3 51.1-1.3 0-.6-1.6-10.6-3.5-22s-4.4-29.4-5.5-40c-2.6-23.4-10.5-55.8-18.5-76-.5-1.2-.2-1.7 1-1.7 1.5 0 1.3-.5-.9-3.4l-2.6-3.5 4.5-11.4c5-12.7 5.4-16 3-28.3-1.1-5.6-1.2-8.1-.4-9.1.6-.7.9-1.9.6-2.7-.3-.7 0-1.9.6-2.5.8-.8.6-1.4-.7-2.4-1.7-1.2-1.7-1.5-.1-5.3.9-2.1 1.7-5.4 1.7-7.2 0-4.2-5.9-21-8.4-23.8-1.7-1.9-1.7-2.2-.3-3.4.8-.7 1.3-1.6 1-2s.2-1.3 1-2c1.2-1 1.6-.9 2 .2.3.8.5 1.9.4 2.4-.4 2.5.4 2.5 3.3-.2 2.4-2.2 2.9-2.5 2.4-1-.7 1.9-.6 1.9 1.3.2s1.9-1.7 1.4.6c-.6 2.1-.5 2.2 1.2.8s1.8-1.3 1.2.2c-.5 1.4-.2 1.6 1.6.9 1.2-.5 2.4-.8 2.7-.8 2.9.4 7-7.4 7-13.2 0-1.4-1.8-7.1-3.9-12.7-2.6-7-3.7-11.1-3.3-13.3.4-2.7-.1-3.9-3.1-6.9-1.9-2.1-5.4-5.8-7.7-8.4-4.6-5.2-8.4-6.9-19.9-8.9-6.5-1.1-7.7-1.1-10.2.4-2.8 1.5-2.9 1.5-2.9-.3 0-3.4-2-2.2-4 2.3m227.4 72.8c-2 .6-6.3 4.4-12.3 10.8-8.5 9.2-9.4 9.9-11.7 9.1-4.3-1.7-15.6-1.2-18.4.7-3.8 2.7-6.9 6.6-7 8.7 0 3.3 3.7 8.1 11.7 14.8 6.1 5.1 8.1 7.4 9.1 10.6 1.6 5.3 1.5 7.1-.3 10.5-1.4 2.7-1.3 2.8.5 2.2 2.4-.8 2.4-.7.4 6.3-.9 3.2-2.7 6.8-3.9 8.2-2.5 2.6-4.6 7.9-8.9 22-1.4 4.7-4.1 11-6 14-4.2 6.5-4.4 8.9-1.1 15.5 1.3 2.7 2.5 5.7 2.5 6.5 0 2.7 4 8.1 7.5 10.1 2.7 1.6 3.3 2.5 2.6 3.7-.5 1-2.3 8-4.1 15.7-5.2 22.5-7 28.7-9.5 33.3-1.3 2.4-2.1 5-1.8 5.8.6 1.7 6.8 4.6 13.5 6.5 2.4.6 4.6 1.6 5 2.2s1 4.4 1.4 8.4l.6 7.3h7.8c8.5 0 8.9-.3 9-7.5 0-3.9 1.3-5.8 3.5-5.3 1.9.3 2.9 2.6 4 9.1l.6 3.7h15.8l.7-4.7c.9-6.3 1.8-7.3 6.8-7.3 5.3 0 11.3-1.7 11.9-3.3.3-.8-1.3-6.7-3.5-13.3-3.2-9.8-11.8-43.5-11.8-46.6 0-.4 1.1-.8 2.4-.8 5.2 0 9.6-6.3 9.4-13.5-.1-1.7.5-4.4 1.2-6.1 1.2-2.8 1-3.7-3.5-13.5-7.4-16.1-15.7-36.2-15.7-37.9.1-.8.5-4.9 1.1-9s1-7.8 1.1-8.1c0-.4 2.6 0 5.8.7 12 2.9 18.3 1.1 20.3-5.5 1.7-5.8.4-8.9-7-16.4l-6.8-6.8 1.9-7.7c1.1-4.2 2.5-9.6 3.1-12 1.4-5.6-.7-10.1-6.4-13.9-2.2-1.6-5.5-4-7.1-5.6-3.3-2.9-8.1-3.4-14.4-1.6m7.3 83.1c-.3.8-.6.5-.6-.6-.1-1.1.2-1.7.5-1.3.3.3.4 1.2.1 1.9m-39.1 56.6c.8.5.7 1.6-.3 3.9-1.2 3.1-3.3 4.5-3.3 2.3 0-.6-.7-1-1.5-1-1.8 0-1.8-.2-.3-3.5 1.1-2.5 3.3-3.2 5.4-1.7m51 9c-.4 1.1-1.8 2.3-3.2 2.6-1.4.4-2.2 1.1-1.9 1.6.3.6.3 1 0 1-.6 0-2.5-4.8-2.6-6.5 0-1.2 6.3-2.4 7.4-1.4.5.4.6 1.6.3 2.7"/></svg>