<svg xmlns="http://www.w3.org/2000/svg" width="682.667" height="512" version="1.0" viewBox="0 0 512 384"><path d="M145.3 77.4c-1.3 2.6-3.4 5.1-4.8 5.8C138 84.3 137 87 139 87c.7 0 .7.6 0 1.9-.5 1.1-1 2.9-1 4.1 0 2.8-4.2 11-6.9 13.4-3.7 3.4-9.2 14-6.3 12.2.7-.4 1.6 1 2.3 3.3.8 2.6 1.6 3.8 2.5 3.4.8-.3 1.1-1 .8-1.7-.3-.6.1-.3.9.6.8 1 1.7 1.5 2 1.1.4-.3.7.1.7 1.1 0 .9.4 1.5.9 1.1.5-.3 1.2.3 1.5 1.2.7 2.2 5.9 4.8 6.4 3.3.3-.7 1.2-.4 2.4.7 1.5 1.3 2.2 1.5 2.5.5.3-.6.9-.9 1.5-.6 1.3.8-4.1 6.4-6.3 6.4-.9 0-2.3.7-3 1.6-1.1 1.4-1 2.1.5 4.7 1.9 3.4 2 3.1-2.9 6.5-2.3 1.7-9.7 10-9.9 11.3-.1.8-1.7 3.6-3.4 6.3-5.1 8-4 14.8 2.9 17.6l3.1 1.3-.4 9.7c-.3 8.6-.7 10.2-3.1 13.7-1.5 2.1-2.7 4.4-2.7 5s-.7 1.6-1.6 2.4c-1.1.9-1.4 2.2-1 4.2.4 1.9-.4 5.5-2.5 10.8-1.7 4.3-2.8 8.3-2.5 8.8.4.5 0 2.9-.9 5.3-.8 2.4-1.4 5.7-1.3 7.4.1 1.6-.8 9.9-2 18.4-5.8 40.6-7.4 54-8.7 73-.8 11.3-1.9 23.8-2.5 27.8-.5 4-1 7.7-1 8.2 0 .6 19.1 1 51 1 45.4 0 51-.2 51-1.5 0-.9-1.3-9.6-3-19.3-1.6-9.7-4.1-27.5-5.5-39.5-3.1-27-8.5-50.9-16.5-72.9-2.8-7.5-2.8-8-1-7.5 2.7.7 2.5-.2-.6-3.4l-2.6-2.7 2.2-6.9c1.3-3.7 3.4-9.5 4.8-12.8l2.5-6-1.8-11.2c-.9-6.2-1.4-12.1-1-13 1.1-2.7 1.2-6.6.2-8.3-.6-1-.4-2.9.7-5.4.9-2.1 1.6-4.9 1.6-6.2 0-3.2-6.9-22.5-8.8-24.7-1.3-1.5-1.4-2-.3-2.7.9-.5 1.2-1.7.7-3.6-.4-1.8-.3-2.4.2-1.6s1.3 1.3 1.8 1.3 1 .7 1 1.7c.1.9.2 2.1.3 2.6s1.3-.1 2.8-1.5c1.4-1.3 2.3-1.8 1.9-1.2-1.1 1.9.5 1.6 2.1-.5 1.3-1.5 1.4-1.5.9 0-1 3.4 4.5 4.9 6.5 1.7.6-1 .9-1.1.9-.1 0 2.9 3.9-1 5.4-5.5 2.2-6.5 2.1-8.3-1.9-19.9-2.2-6.3-3.3-11.3-3-12.7.5-1.8-.5-3.7-4.2-8.2-10.3-12.7-12.6-14.1-27.1-16.6-6.9-1.2-7.4-1.1-10.2.9l-2.9 2.2-.3-3.2-.3-3.1zm226.8 73.7c-1.4.5-6.5 5.2-11.5 10.5l-9.1 9.4-7.5-.8c-4.1-.5-9.1-.5-11-.1-3.6.8-9 6.1-9 8.8 0 2.4 4.9 8 11.6 13.2 3.9 3.1 6.4 5.8 6.4 7 0 1 .4 1.9.9 1.9 1.5 0 2.5 12.4 1.2 14.8-.9 1.7-.8 1.9 1 1.5 1.7-.5 1.9-.2 1.4 2.5-.9 5.1-2.4 8.2-5.9 12.3-1.8 2.2-5.7 9.3-8.5 15.8-4.3 9.7-5.4 13.4-6.1 20.7-1.3 12.4-1.3 12.7 1.6 17 1.5 2.1 3.1 5.3 3.6 7 .4 1.7 2 4.3 3.4 5.7l2.5 2.5-3.6 15.4c-6.1 25.9-6.8 28.1-9.7 33.6-1.5 3-2.8 6.2-2.8 7.3 0 2.1 4.4 4.6 12.7 7.3l5.1 1.7.7 5.2c.3 2.9.8 6.9 1.1 9l.6 3.8 7.6-.3 7.7-.3 1-6.5c.8-5 1.4-6.6 2.8-6.8 3-.6 4.5 1.6 5.2 7.8l.7 6H383v-3.4c0-6.7 1.3-8.2 7.4-9 7.8-.9 10.6-2.1 10.6-4.7 0-1.2-1.8-7.7-3.9-14.3-2.2-6.7-5.5-19.3-7.5-28.1l-3.6-15.9 2.9-2.7c1.9-1.7 3.2-4.1 3.6-6.5.3-2.2 1.5-5.8 2.6-8.1l2-4.2-3.1-11.4c-2.9-10.9-9.7-30.2-12.6-35.9-1-1.8-1.1-3.5-.4-5.5.5-1.5 1.2-5.8 1.5-9.6.4-3.7 1-6.7 1.3-6.7.4 0 3.2.7 6.2 1.5s7.8 1.5 10.7 1.5c5.8 0 7.8-1.7 8.9-7.7.8-4.1-1.9-8.5-8.8-14.8l-5-4.5 3.1-12c4.6-18 4.7-17.9-7.1-26.9-6.2-4.7-7.2-5.1-12-5-2.9 0-6.4.5-7.7 1M339 295.6c0 .8-.4 1.2-1 .9-.5-.3-1-1-1-1.6 0-.5.5-.9 1-.9.6 0 1 .7 1 1.6m46.6 2.9c.4.8.3 2.3-.1 3.2-.7 1.7-.8 1.6-1.5-.2-.5-1.1-.9-2.6-.9-3.3-.1-1.7 1.8-1.5 2.5.3"/></svg>