<svg xmlns="http://www.w3.org/2000/svg" width="682.667" height="512" version="1.0" viewBox="0 0 512 384"><path d="M144.6 76.2c-.8 1.3-1.7 3.2-2 4.3s-2.1 2.6-3.8 3.3c-3 1.2-3.1 1.4-1.6 2.6 1 .7 1.5 1.6 1.2 1.9-.4.3-.8 2-1 3.7-.4 3.6-3.5 9.9-7.9 16-1.8 2.5-3.7 6-4.4 7.9-1.3 4.1-1.4 4.4-.1 3.6.5-.3 1.6 1 2.4 3 1.5 3.5 3.9 4.6 5 2.2.4-.9.7-.9 1.2 0 .7 1.5 6.4 7.4 6.4 6.6 0-.3.9.2 2 1.2 1.5 1.4 2 1.5 2 .4 0-1.2.2-1.2.9 0 1 1.6 3.4.5 2.5-1.2-.4-.7-.1-.7.7.1 1.2 1.1 1.1 1.5-.5 2.8-1.1.8-1.6 1.4-1.1 1.4 1.8 0-1.5 2.4-3.7 2.7-1.3.2-3 1-3.8 1.9-1.3 1.3-1.3 1.8.3 4.7 1.8 3 1.8 3.2.1 4.2-5.1 2.9-12.3 10.8-12.8 13.9-.1.7-1.6 3-3.4 5.1-6 7.4-5.3 13.6 2.2 18.5l3.8 2.5-.4 8.5c-.3 7.5-.8 9.3-3.8 14.5-1.9 3.3-4 6.5-4.8 7.1-1.1.8-1.2 1.5-.3 3.2s.5 3.7-2.1 10.8c-1.9 5.4-2.7 8.9-2.1 9.1.7.3.5 2.1-.7 5.3-1 2.7-1.6 5.1-1.4 5.3s-.3 3.9-1.1 8.3c-.8 4.3-2.6 16.9-4 27.9s-3.2 24.5-4 30-1.9 17.2-2.5 26c-1.1 16.1-2.6 30.7-3.6 35.8l-.6 2.7h51.1c50.1 0 51.1 0 51.1-2 0-1-1.3-10.4-3-20.7-1.6-10.3-3.9-27.8-5-38.8s-3.2-24.8-4.5-30.7c-3.2-13.7-11.1-41.1-13-44.7-1.4-2.7-1.3-2.9.8-3.5l2.2-.5-2.6-2.7-2.7-2.6 1.8-6.2c1-3.3 3-9.4 4.4-13.3l2.6-7.3-1.6-10.5c-1.1-7.9-1.3-11.8-.5-15.3.7-3.2.6-5.1-.1-6-.8-.9-.6-2.8.8-6.8l1.8-5.4-3.3-10.3c-1.8-5.6-4.2-11.5-5.3-13-1.4-2-1.7-3.2-.9-4.1.7-.9.7-1.6 0-2.3-1.3-1.3-.2-3.6 1.2-2.8.5.4.9 1.7.9 3.1 0 2.6.9 3.1 2.8 1.2.9-.9 1.2-.9 1.2.2 0 .9.9.5 2.6-1.1 2.6-2.3 2.6-2.3 1.5-.2-1 1.9-.9 2.2.4 1.7 1.1-.5 1.3-.2.9 1-.6 1.4-.3 1.4 2.2.1 1.9-1 3-1.1 3.3-.4.6 1.9 4.9-3.2 7.1-8.5l2.1-5.2-3.6-11.4c-2-6.3-3.6-13-3.5-14.8 0-2.6-.8-4.4-3.7-7.6-2.1-2.3-4.9-5.6-6.3-7.3-4.3-5.3-13.1-9.1-19.7-8.4-1.1.1-2.4-.3-2.8-.8-.9-1.6-5.8-1.3-8.1.4-2.7 2-3.7 1.9-3.1-.5.7-2.7-.9-2.5-2.7.2M374 149c-.8.5-6 5.5-11.6 11l-10 10.1-8.7-1.8c-9.9-2-12-1.5-16 3.9l-2.1 2.8 2 2.7c1.2 1.6 5 5 8.5 7.8 5.7 4.3 6.5 5.4 6.6 8.4.1 2 .8 3.8 1.7 4.3 1.7.9 2.2 4.8.7 4.8-.5 0-.4 1.6.2 3.6.8 2.7.8 4-.1 5.5-1.6 2.5-1.5 3 .3 2.3 1-.4 1.5 0 1.5 1.1 0 .9.5 1.3 1.1.9.9-.5 1 .1.5 1.9-1.3 5.2-2.5 7.5-4.3 8.1-3.7 1.2-13.7 15.8-22.6 32.9-2.2 4.3-2.2 4.5 3.9 21.9 3.2 9 4.2 10.9 6.5 11.8 4 1.7 4.3 4.9 1.5 17.8-1.4 6.5-3.2 15.7-4.1 20.7-1.1 6.2-2.8 11.1-5.2 15.7-4.3 7.9-4.2 8.2 5.2 12.4 7.6 3.4 8.5 5.2 8.5 17.1v7.3h14.8l1.1-6.8c1.8-10.2 1.7-10 5.4-9.3 3.1.6 3.3 1 5.1 8.4l1.8 7.7H382v-5.9c0-3.5.5-6.3 1.3-6.9.7-.6 3.6-1.4 6.4-1.8 4.6-.6 9.3-3.2 9.3-5.2 0-.4-1.8-6.3-4-13.2s-5.4-19.2-7-27.3c-1.7-8.1-3.3-15.4-3.7-16.2-.7-1.9 1.4-7.3 4-10.2 1.4-1.6 2.3-5.2 3.4-14.5 2.3-18.2 2.3-17.7-4.5-34.1-3.5-8.1-5.9-15.3-5.6-15.9.4-.7.9-3.6 1-6.6.4-7.7 2.2-12.5 4.3-11.7 6.3 2.7 12.8 4.6 15.9 4.8 3 .2 3.8-.3 5.5-3.1 2.7-4.6 1.7-7.4-5.9-15.2-3.5-3.7-6.2-6.9-5.9-7.2 1.3-1.2 8.5-27.5 8.1-29.3-.6-2.4-8.4-10.5-10-10.5-.7 0-2.7-1.3-4.6-3-3-2.4-4.4-2.9-9-2.9-3-.1-6.2.4-7 .9m-34.5 113.8c-.3.3-1.2-.1-2.1-.9-1.3-1.4-1.3-1.9.3-4.7l1.8-3.2.3 4.1c.2 2.3.1 4.4-.3 4.7m36.4.6c-.9.8-1 .5-.5-1.4.3-1.4.6-3.2.7-4s.4-.2.6 1.4c.3 1.6-.1 3.4-.8 4"/></svg>