<svg xmlns="http://www.w3.org/2000/svg" width="682.667" height="512" version="1.0" viewBox="0 0 512 384"><path d="M143.3 78.1c-1 2.3-3 4.7-4.5 5.5q-4.35 2.25-1.8 3.9c.8.5.7 1.1 0 2-.7.8-.9 1.8-.6 2.3.9 1.6-2.2 9.3-5.9 14.7-1.9 2.8-4.1 7-5 9.4-1.8 5.1-1.8 5.4-.5 4.6.5-.3 1.7 1 2.7 3 1.1 2.4 1.9 3.1 2.5 2.3.6-1 .8-1 .8.1 0 1.2.3 1.1 1.3-.2 1.1-1.6 1.6-1.3 4.7 2.7 2 2.6 4.7 4.8 6.3 5.1 3.6.9 3.8 4.5.3 4.5-1.3 0-3.4.9-4.7 1.9l-2.4 1.9 2.2 3 2.3 3.1-4.9 3.5c-4.2 3.1-6.1 5.4-10.6 12.7-.6.8-2.5 3.7-4.2 6.4-1.8 2.7-3.3 5.8-3.3 6.9 0 3.3 3.5 8.1 6.8 9.5 4.1 1.7 4.5 3.3 3.3 13-.8 5.8-1.9 9.5-4.2 13.6-1.7 3-3.5 5.8-4.1 6.1-.5.3-.6 1.8-.3 3.3.4 1.8-.4 5.6-2.3 10.9-1.8 5.1-2.5 8.5-1.9 9.1s.4 2.3-.4 4.8c-.7 2.1-1.4 4.7-1.5 5.8 0 1.1-.8 5.6-1.7 10s-2.5 15.4-3.7 24.5c-1.1 9.1-2.7 21.2-3.5 27s-2.4 21.1-3.5 34-2.3 26.1-2.6 29.2l-.7 5.8H200l-.5-2.3c-2-8.9-6.6-43.1-8.5-62.7-.6-6.3-1.8-15.3-2.6-20-2-10.8-10.8-43.3-13.4-49.5-2.4-5.7-2.5-5.1.2-5.8l2.2-.6-2.7-2.9c-2.3-2.4-2.6-3.3-1.8-5.8.5-1.6 2.4-7.5 4.2-13.1l3.3-10.2-1.7-11.2c-1.2-8.2-1.4-11.6-.6-12.5.6-.8.9-2 .6-2.7-.3-.8-.1-2 .3-2.7.5-.9.3-1.8-.7-2.5-1.3-1-1.3-1.5.1-4.9.9-2.1 1.6-5.5 1.6-7.5 0-4.6-5.6-21-8-23.5-1.5-1.5-1.6-2.2-.7-3.9.9-1.5.9-2.1-.1-2.4-1.5-.6-.6-2.3 1.2-2.3.9 0 1.2.9.8 2.5-.5 2.7.6 3.2 2.7 1.2 1.1-1 1.2-.9.6.3-.5.8.3.5 1.7-.8 3.1-2.8 4.7-2.9 2.2 0-1.9 2.1-1.9 2.1.4 1.6 1.2-.4 2-.2 1.6.3-.7 1.3 1 1.1 2.3-.2.7-.7 1.3-.8 1.7 0 1.5 2.3 5.5-1.2 8.1-7.1l2.7-6-2.2-8.6c-1.2-4.8-2.8-10.1-3.5-11.7-.7-1.7-1-4.5-.8-6.2.4-2.7-.1-3.8-2.9-6.5-2-1.8-4.8-5-6.3-7.1-3.5-4.7-9.6-8.3-15.5-9.2-2.5-.3-5.3-.7-6.2-.9-1-.1-2.1-.5-2.4-.9-1.2-1.1-4.3-.8-7.4.8-2.8 1.5-3 1.4-3-.5 0-3.3-1.7-2.3-3.7 2.1M364.5 158c-6.2 6-11.9 11-12.7 11-.7 0-4-.7-7.1-1.5-8.4-2.2-11.2-1.9-14.2 1.2-4.3 4.8-3.6 6.4 6.9 14.3 3 2.3 5.3 4.6 5 5.1s-.1.9.4.9c.6 0 1 .6.9 1.2-.1 4.8.4 8.2 1.2 7 .6-1 1-.8 1.4.9.4 1.3.3 2.7-.2 3.2s-.6 2.8-.3 5.3c.3 2.8 0 4.9-.8 5.9-1.1 1.3-1 1.5.1 1.1.8-.3 2.2.1 3.2.8 1.6 1.2 1.6 1.9.5 5.9-1 3.8-1.7 4.7-3.9 5.2-3.2.7-8.4 7.3-15.4 19.6-7.6 13.2-9.5 17.1-9.5 19.4 0 1.8 5.6 18.1 9 26.3.6 1.3 2.4 2.8 4 3.4 3.5 1.2 3.5 1.3 1.5 11-.9 4-2.7 13.6-4 21.2-1.8 10.5-3.2 15.4-5.6 20.2-2.1 4-3 6.7-2.4 7.3.6.5 3.7 2.5 7 4.3l6 3.4.7 6.4c.4 3.6.5 8.6.2 11.2l-.6 4.8h15l1.1-6.5c1.9-10.6 2.5-11.8 6.4-11 4 .9 3.7.5 4.8 5.7.6 2.4 1.4 6 2 8l1 3.8h14.7l.7-7.4c.7-7.2.8-7.4 3.7-8 1.7-.3 4.1-.6 5.4-.6 1.2 0 3.4-1 4.8-2.2l2.6-2.3-4.4-14.6c-2.5-8-5.4-19.7-6.5-26-1.2-6.3-2.5-12.9-3.1-14.7-1.1-3.9.1-7.6 3.2-10.1 1.6-1.3 2.7-4.6 4.5-13.2 3.7-17.3 3.8-19.8 1.5-25-1.1-2.4-3.7-8.5-5.7-13.4-2.1-5-4-9.5-4.3-10-.9-1.3-1-12.5-.2-12.5.3 0 .7-1.5.7-3.3.1-1.7.6-4.5 1.2-6 1.1-2.7 1.1-2.8 4.3-1.1 4.6 2.4 13.8 5.4 16.4 5.4 1.6 0 2.5-.9 3.3-3.1 1.8-5.3 1.3-6.6-5.4-13.8l-6.5-6.9 3.4-10.8c1.9-6 3.9-12.2 4.5-13.7 1.6-4.1 1.3-7.9-.7-10.3-.9-1.2-5.3-4.7-9.7-7.8-7.3-5.1-8.5-5.6-13.4-5.6h-5.3zm14 101.6c.6 3.3.3 4.1-1.6 5.2-2.1 1.4-2.2 1.3-1.5-1.8.3-1.8.6-4.9.6-6.9.1-4.5 1.6-2.3 2.5 3.5m-39 1.1c-.6 3.3-.8 3.5-2.3 2s-1.4-2 .3-5.4c1.4-3 1.9-3.4 2.3-2 .2 1.1.1 3.5-.3 5.4"/></svg>