<svg xmlns="http://www.w3.org/2000/svg" width="682.667" height="512" version="1.0" viewBox="0 0 512 384"><path d="M143.2 77c-1.2 1.9-2.2 4-2.2 4.6s-1.2 1.6-2.6 2.3c-2 .9-2.5 1.6-2 3.5.3 1.3.3 2.6 0 2.9-.4.4-.8 2.2-.9 4.1-.1 2.1-2.1 6.8-4.7 11.3-2.5 4.3-4.8 8.9-5.2 10.3s-1 3.3-1.2 4.2c-.4 1.2-.1 1.6.9 1.3.9-.4 2 .8 3.2 3.5l1.8 4.1 1.7-2.5 1.6-2.5 3.4 4c1.9 2.2 4.6 4.5 6 5.2 3.5 1.7 3.4 5.3-.1 4.9-1.6-.1-3.3.6-4.4 1.8-1.8 2-1.8 2.3-.3 4.7 1.6 2.6 1.6 2.7-5.3 9.3-3.9 3.8-6.9 7.6-6.9 8.7s-1.2 3-2.6 4.4c-7.4 6.9-7.1 16.1.7 19.8l3.4 1.7-.2 9.2c-.2 8.4-.5 9.8-3.4 15-1.8 3.1-4 6.2-4.8 6.8-1.3 1-1.3 1.4-.2 2.8 1.2 1.4.9 3-1.9 10.8-2.2 6.2-2.9 9.3-2.2 9.6 1.5.5 1.5 1.7-.2 5.5-1.8 4.2-4.1 16.7-6.6 35.7-1.1 8.5-2.9 22.2-4 30.5-1.1 8.2-2.9 25.8-4 39-1.2 13.2-2.3 25.5-2.7 27.2l-.5 3.3h51.1c28.1 0 51.1-.3 51.1-.8 0-.4-.9-6.1-2-12.7-2.4-15.2-5.6-40.5-7-56-.6-6.6-1.8-15.2-2.6-19-2.9-12.8-10.4-39.6-12.8-45.6-2.2-5.6-2.3-5.9-.5-5.9 2.4 0 2.4-.8-.2-3.6-2-2.1-2-2.7-.9-7.3.6-2.7 2.4-8.8 3.9-13.5 2.7-8.5 2.7-8.6 1.4-18.8-.7-5.7-1.5-10.8-1.7-11.4-.3-.6 0-1.6.7-2.3 1.4-1.4 1.7-6.2.4-7.8-.6-.9-.4-2.7.7-5.3.9-2.2 1.6-5.3 1.6-6.8-.1-3.7-6.3-21.8-8.4-24-2.2-2.6-2.1-2.9 1.8-3.6 1.9-.4 3.9-1.3 4.6-2.1 1.6-1.9 2.7-1.9 2.7 0 0 .8-.5 1.2-1.1.9s-.3.1.6.9c1 .8 1.4 1.8 1 2.3-.4.4 0 .3.9-.4s2.9-1.3 4.4-1.4c2.1-.2 3.5-1.4 5.7-4.7 4.3-6.8 4.4-9.4.8-21.2-1.7-5.7-3.1-11.1-3-11.9 0-.8 0-2.3.1-3.3 0-2.4-13.5-17.2-17.6-19.1-1.8-.9-6.1-1.9-9.4-2.3-3.4-.3-6.4-1-6.7-1.4-.8-1.4-4.8-1-7 .6-2.6 2-3.2 1.9-3.6-.8-.3-2-.5-1.9-2.6 1.3m29 58.6q-.45 2.55-1.5 1.5c-.7-.7-.6-1.5.3-2.6 1.7-2 1.8-1.9 1.2 1.1M378 146.7c-.8.3-6.6 5.3-12.8 11.1-10.9 10.1-11.3 10.4-15 9.8-2-.3-6.5-.9-10-1.2-5.7-.6-6.5-.5-8.7 1.6-1.4 1.3-2.5 3.2-2.5 4.2 0 1.6 5 5.9 14 12 2.5 1.6 2.5 1.6.5 3.2-1.8 1.5-1.8 1.5-.1 1 1.5-.6 1.7-.4.9 1.2-1.2 2.3-.7 4.2 2 7.1 1.9 2.2 1.9 2.4.3 4.2-1 1-1.3 2.2-.8 2.5 1.2.7 1.2 5.6.1 7.8-.7 1.4-.6 1.6.6 1.2.8-.4 1.5-.1 1.5.5s.7 1.1 1.5 1.1c1.8 0 1.8.3.4 5.5-1.2 4.4-2.3 5.5-5.5 5.5-2.5 0-4.5 2.9-15.6 22-5.4 9.4-7.8 14.5-7.8 16.8 0 1.8 1.9 8.9 4.3 15.9 3.7 11.2 4.5 12.8 7 13.7 2.6 1 4.5 4.5 3.4 6.3-.6.9-5.2 27-6.2 35-.4 2.8-2 7.9-3.5 11.2l-2.9 6.1 2 1.9c1.2 1.1 4 3 6.4 4.2 4.3 2.3 4.4 2.4 5.1 8.7.3 3.5.4 8.8 0 11.8l-.6 5.4h14.8l.7-4.6c.3-2.5 1.3-6.7 2.1-9.3 1.3-4.5 1.5-4.7 4.4-4.3 3.2.5 3.5 1.1 6.1 12.9l1.2 5.3h15.6l.3-7.7.3-7.8 4.8-.7c6.1-.8 9.7-3.1 9.7-6.2 0-1.3-1.4-6.8-3-12.2-4.1-13.1-10.1-43.3-9.3-46.4.3-1.4 1.6-3.4 2.9-4.5 1.8-1.5 3.2-5.3 5.9-15.9 1.9-7.6 3.5-14.7 3.5-15.8s-2.6-8.3-5.9-16.1c-7.7-18.7-8.2-21.3-5.9-30.7 1-4.1 2.2-7.8 2.7-8.3.4-.4 4 .8 7.9 2.8 9.5 4.7 12.7 5.3 14.1 2.7 2.5-4.6 1.4-7.9-4.9-14.8-3.3-3.6-6-7.1-6-7.8 0-.6 2.1-6.7 4.5-13.6 5.4-15 5.6-17.7 1.5-22.4-6.2-7.1-21.1-13.9-26-11.9m-37.7 110.5c-.6 5-1.9 6.9-2.9 4.4-.6-1.6 1.9-8.6 3-8.6.2 0 .2 1.9-.1 4.2m39.6 4.3c0 1.1-1.3 3-2.9 4.3l-2.8 2.2.8-3.2c.4-1.8 1.1-5.1 1.5-7.3l.8-4 1.3 3c.7 1.6 1.3 3.9 1.3 5"/></svg>