<svg xmlns="http://www.w3.org/2000/svg" width="682.667" height="512" version="1.0" viewBox="0 0 512 384"><path d="M242.5 86.8c-11 3.3-20 10.9-24.4 20.7-2.4 5.2-3.9 7-8.3 9.9-8.8 5.9-14.8 18-14.8 29.9.1 20.4 14.9 51 33.9 69.7 15.3 15.1 35.4 20 50.8 12.5 3.2-1.6 9-5.8 12.9-9.4 13.7-12.7 17.6-16 18.7-15.5.7.3 2.3 2 3.7 3.9s3.1 3.7 3.9 4c1 .4 1.1.2.4-.7-6.1-8.2-7.4-10.1-6.3-9.1 2.4 2.2 3.4 1.4 1.4-1-1-1.2 1.6 1.2 5.9 5.3 4.2 4.1 8 8.3 8.3 9.3.9 3 4.8 1.8 5.2-1.6.3-2.3-1-4.1-8.3-11.4l-8.5-8.7 6.4-6c6.6-6.2 9.1-10.3 13.2-21.2 5.1-13.7 4.9-26-.7-38.1C328.8 114 301 94 278.5 87.8c-10.3-2.8-28.2-3.3-36-1"/><path d="M316 204.7c0 .5 1 1.8 2.3 2.9l2.2 1.9-2-2.5c-1.1-1.4-2.1-2.7-2.2-2.9q-.3-.3-.3.6m4 9.7c0 .2.7.9 1.5 1.6 1.3 1.1 1.4 1 .9-.4s-2.4-2.3-2.4-1.2"/></svg>