<svg xmlns="http://www.w3.org/2000/svg" width="682.667" height="512" version="1.0" viewBox="0 0 512 384"><path d="M142 76c-.9 1.4-2.1 3.7-2.7 5.2-.7 1.4-2.1 2.9-3.2 3.3-2.2.7-2.9 3.5-.9 3.5.9 0 .9.3 0 1.2-.7.7-1.2 2.9-1.2 4.9 0 2.4-1.7 7.1-4.9 13.5-6 11.9-6.8 14.4-4.8 14.4.8 0 1.7 1 2 2.2.4 1.3 1.3 3.2 2.1 4.3 1.5 1.9 1.5 1.9.9-.5-.5-2.5-.5-2.5 1.1-.5 1.7 2 1.7 2 1.1-.5-.5-1.9-.4-2.2.4-1 .6.8 1.1 1.1 1.1.7s1.9 1 4.2 3.2c2.2 2.2 4.5 3.8 4.9 3.5 1-.6 4 3.7 3.2 4.8-.3.5-1.6.7-2.9.4-1.4-.4-3.3-.2-4.4.4-2.1 1.1-2.7 4.5-1 5.5 2.2 1.3.7 4.1-4.9 9.2-3.6 3.2-6.4 6.7-7.1 8.8-.6 1.9-1.9 4.1-2.9 4.7-3.2 2.4-5.1 6.2-5.1 10.3 0 4.8 1.8 7.8 6 9.5l3 1.2v9.2c0 6.5-.5 10-1.6 12.1-.9 1.6-2.4 4.3-3.2 6-.9 1.6-2.2 3.6-2.9 4.3-.8.9-1 1.9-.4 2.9.6 1.1-.1 4.6-2.2 10.6-2 6-2.6 9.1-1.9 9.6.8.4.3 3.3-1.3 9-3.6 12.4-9.7 52.9-13 86.6-.8 8.8-2.2 22.2-3 29.8-.8 7.5-1.5 14.2-1.5 14.7 0 .6 17.9 1 50.5 1 47.4 0 50.5-.1 50.5-1.8s-1.9-16.7-4-31.1c-.6-4.1-1.7-15.5-2.5-25.5-1.8-20.7-2.8-27.6-5.7-39.6-3-12.5-8.8-33-10.4-36.9-1.8-4.2-1.8-5.1.1-5.1s1.9-1.4-.1-3.1c-1.9-1.6-1.5-4.2 2.8-19.3l3.2-10.9-1.6-11.1c-.9-6.1-1.3-11.6-.8-12.1 1-1.4.9-7.9-.2-8.6-.6-.4-.3-2.2.6-4.4.9-2 1.6-5.2 1.6-6.9 0-3.9-5.8-21.4-8-24.1-1.1-1.4-1.4-3-1.1-5.3.7-4.1 2.7-4.2 2.3-.2-.4 3.8.7 3.8 4.3 0 3-3.2 5.7-4.2 3.4-1.3-1 1.1-1 1.4-.1.9.8-.5 1.2 0 1.2 1.3 0 2.2 1.4 2.8 2.5 1.1.3-.5 1.2-.7 1.9-.4s1.6-.2 2-1.1c.3-.9 1-1.4 1.5-1.1 1.1.7 6.1-9 6.1-11.8 0-2.3-2.5-11.3-5.1-17.9-1.1-2.9-1.6-6-1.2-7.7.5-2.5 0-3.5-2.9-6.3-1.9-1.7-4.9-5.1-6.6-7.4-3.9-5-9.7-7.9-17.7-8.9-3.3-.3-6.5-1.1-7.2-1.6-1.6-1.3-6.8-.1-8.5 1.9-1.1 1.4-1.4 1.3-1.8-1.2l-.5-2.9zm237.9 74.7c-1.5 1-3.5 2.8-4.5 3.9-4.6 5.3-17.6 15.4-19.6 15.4-1.3 0-5.4-.9-9.3-2-3.8-1.1-7.7-1.8-8.6-1.5-2.7.9-6 5.1-5.3 6.8.3.9 3.9 4.2 8 7.3 7.2 5.5 8.2 6.8 6.6 7.8-1.4.9-1.2 6.4.3 7.9.8.9 1.5 2 1.5 2.6s.5 1.1 1 1.1c1.8 0 1 2.2-1 2.7-2.1.6-2.6 1.8-1.1 2.7 1.1.7 1.1 5.5-.1 6.2-.5.3.4 1.8 2.1 3.3 3 2.6 3 2.8 1.7 7.1-1.1 3.8-1.8 4.5-5.2 5.5-3.5.9-4.3 1.8-7.4 8-1.9 3.9-6.5 11.4-10.2 16.9-3.8 5.4-6.8 10.7-6.8 11.6 0 1 .7 3.7 1.5 6.1.9 2.4 2.5 8 3.6 12.4 2 7.8 4 11.5 6.3 11.5.7 0 1.7 2 2.4 4.3 1.1 3.7 1.1 5.8-.2 12.8-.8 4.6-2 13.7-2.6 20.1-.6 6.5-1.5 13.2-2.1 15-1.8 6.3-1.2 8.9 3.1 13l4.1 3.8.2 10.5.2 10.5h7.2c8 0 7.2.8 8.8-9.5 1.4-9.3 4.7-8.3 7 2.1l1.6 7.4h15.8l.3-6.2.3-6.3 5.5-1.8c3-.9 6.3-2.5 7.2-3.5 1.7-1.6 1.7-2.2.3-7.2-4.7-17.6-6.7-26-8.8-38.5-2.1-12.3-2.2-14.2-1-16.7.8-1.5 2.3-3.3 3.3-3.8 1-.6 2.2-2 2.5-3.2.4-1.3 2.9-7 5.6-12.7s4.9-11.7 4.9-13.3c0-1.7-2.1-7.8-4.6-13.7-2.6-5.8-5.7-13.7-7-17.5s-2.9-7.5-3.5-8.2c-.6-.8-.7-1.4-.2-1.4s.9-.8 1-1.8c.2-2.7 2.3-10.3 3.4-12.4 1-1.8 1.1-1.8 3.7 0 5 3.5 14.3 8.2 16.2 8.2 1.7 0 4-4.3 4-7.4 0-.6-2.5-4.5-5.5-8.6s-5.5-8.1-5.5-8.7c0-1.4 6-17.2 9.1-23.9 2.9-6.3 2.5-9.1-2.1-13.5-5.5-5.3-17.2-12-21.7-12.5-2.6-.4-4.6.1-6.4 1.3m1.5 109c.9 2.6 1.6 5.1 1.6 5.7s-1.9 2.4-4.2 4c-3.5 2.5-4 2.7-3.4 1 1.4-3.4 3.4-15.3 2.7-16-.3-.4-.1-.4.6-.1.6.4 1.8 2.8 2.7 5.4m-39.4-1.5c0 3-1.5 5.2-2.9 4.4-.8-.5-.6-1.6.6-3.7 2.1-3.5 2.3-3.6 2.3-.7"/></svg>