<svg xmlns="http://www.w3.org/2000/svg" width="682.667" height="512" version="1.0" viewBox="0 0 512 384"><path d="M142 76c-.9 1.4-2.1 3.7-2.7 5.2-.7 1.4-2.1 2.9-3.2 3.3-2.2.7-2.9 3.5-.9 3.5.9 0 .9.3 0 1.2-.7.7-1.2 2.9-1.2 5 0 2.5-1.6 6.7-4.9 13-5.1 9.8-6.8 14.8-5.1 14.8.5 0 1.9 1.7 3 3.7 1.9 3.7 2 3.7 1.4.8l-.5-3 1.5 2.5c1.4 2.2 1.5 2.3 1.6.5 0-1.7.2-1.7 1-.5.5.8 1 1.2 1 .8 0-.3 1.8 1.1 4 3.3s4.4 3.7 4.9 3.4c1.2-.7 4.2 3.5 3.4 4.7-.3.5-1.6.7-2.9.4-1.4-.4-3.3-.2-4.4.4-2.1 1.1-2.7 4.5-1 5.5 2.2 1.3.7 4.1-4.9 9.2-3.6 3.2-6.4 6.7-7.1 8.8-.6 1.9-1.9 4.1-2.9 4.7-3.2 2.4-5.1 6.2-5.1 10.3 0 4.8 1.8 7.8 6 9.5l3 1.2v9.2c0 6.5-.5 10-1.6 12.1-.9 1.6-2.4 4.3-3.2 6-.9 1.6-2.2 3.6-2.9 4.3-.8.9-1 1.9-.4 2.9.6 1.1-.1 4.6-2.2 10.6-2.2 6.5-2.6 9.1-1.8 9.7.9.5.9 1.6-.2 4.6-4.4 12-12.1 65.5-16.6 116.4-.6 6.9-1.4 14.2-1.8 16.3l-.6 3.7h51.2c48.3 0 51.2-.1 50.7-1.8-.3-.9-1.2-6.9-2-13.2-.9-6.3-2-14.8-2.6-18.9s-1.7-15.5-2.5-25.5c-.9-10-2.2-21.9-3.1-26.6-2.2-12.1-10.2-42.1-13-48.8-1.8-4.3-1.8-5.2.1-5.2s1.9-1.4.1-2.9c-1.7-1.4-.8-6.1 3.6-20.6l3.1-10-1.9-11.7c-1.3-7.7-1.6-11.9-.9-12.2 1.3-.5 1.1-6.1-.3-7.9-.8-1-.7-2 .3-4.1.8-1.6 1.5-4.8 1.5-7.1 0-5-5.5-21-8.2-24.1-1-1.1-1.5-2.3-1.2-2.7.4-.4.7-1.9.8-3.4.1-1.6.6-2.6 1.1-2.3.6.3.9 1.7.7 3.2-.3 3.6.9 3.5 5.5-.5 2.1-1.7 3.1-2.3 2.3-1.3-1.4 1.8-1.3 1.9.1 1.4 1.3-.5 1.6-.2 1.2 1.3-.6 2 1.1 2.6 2.2.8.4-.6 1.3-.8 2-.5.7.2 1.6-.3 2-1.2.4-1.2.8-1.3 1.4-.4.9 1.5 6.1-8.5 6.1-11.8 0-2.6-2.4-11.3-5-18-.9-2.6-1.5-6-1.2-7.8.4-2.7-.1-3.8-3-6.5-1.9-1.7-4.9-5.1-6.6-7.4-3.9-5-9.7-7.9-17.7-8.9-3.3-.3-6.5-1.1-7.2-1.6-1.6-1.3-6.8-.1-8.5 1.9-1.1 1.4-1.4 1.3-1.8-1.2l-.5-2.9zm237.9 74.7c-1.5 1-3.5 2.8-4.5 3.9-4.6 5.3-17.6 15.4-19.6 15.4-1.3 0-5.4-.9-9.3-2-3.8-1.1-7.7-1.8-8.6-1.5-2.7.9-6 5.1-5.3 6.8.3.9 3.9 4.2 8 7.3 7.2 5.5 8.2 6.8 6.6 7.8-1.4.9-1.2 6.4.3 7.9.8.9 1.5 2 1.5 2.6s.5 1.1 1 1.1c1.8 0 1 2.2-1 2.7-2.1.6-2.6 1.8-1.1 2.7 1.1.7 1.1 5.5-.1 6.2-.5.3.4 1.8 2.1 3.3 3 2.6 3 2.8 1.7 7.1-1.1 3.8-1.8 4.5-5.2 5.5-3.5.9-4.3 1.8-7.4 8-1.9 3.9-6.6 11.5-10.3 17-7.8 11.4-7.7 9.3-2.4 27.5 2.8 9.3 3.9 11.8 5.9 12.9 4.1 2.4 5.1 8 3.4 18.6-.8 5-2 14.3-2.6 20.7-.6 6.5-1.5 13.2-2.1 15-1.6 5.9-1.1 7.9 3.1 11.8l4.1 3.8.2 10.6.2 10.6h7.2c8 0 7.2.8 8.8-9.5 1.4-9.3 4.7-8.3 7 2.1l1.6 7.4h15.8l.3-6.2.3-6.3 5.4-1.7c9.5-3.1 9.7-3.7 5-20.1-1.7-6.1-4.3-18.2-5.8-27-2.5-14.3-2.6-16.4-1.4-18.9.8-1.5 2.3-3.3 3.3-3.8 1-.6 2.2-2 2.5-3.2.4-1.3 2.9-7 5.6-12.7s4.9-11.7 4.9-13.3c0-1.7-2.1-7.8-4.6-13.7-2.6-5.8-5.7-13.7-7-17.5s-2.9-7.5-3.5-8.2c-.6-.8-.7-1.4-.2-1.4s.9-.8 1-1.8c.2-2.7 2.3-10.3 3.4-12.4 1-1.8 1.1-1.8 3.7 0 5 3.5 14.3 8.2 16.2 8.2 1.7 0 4-4.3 4-7.4 0-.6-2.5-4.5-5.5-8.6s-5.5-8.1-5.5-8.7c0-1.4 6-17.2 9.1-23.9 2.9-6.3 2.5-9.1-2.1-13.5-5.5-5.3-17.2-12-21.7-12.5-2.6-.4-4.6.1-6.4 1.3m1.5 109c.9 2.6 1.6 5.1 1.6 5.7s-1.9 2.4-4.2 4c-3.5 2.5-4 2.7-3.4 1 1.4-3.4 3.4-15.3 2.7-16-.3-.4-.1-.4.6-.1.6.4 1.8 2.8 2.7 5.4m-39.4-1.5c0 3-1.5 5.2-2.9 4.4-.8-.5-.6-1.6.6-3.7 2.1-3.5 2.3-3.6 2.3-.7"/></svg>