<svg xmlns="http://www.w3.org/2000/svg" width="682.667" height="512" version="1.0" viewBox="0 0 512 384"><path d="M240.8 90c-18.6 4.6-31.2 16.4-33.9 31.9-.8 4.3-2.1 7.6-4.3 10.4-7 9.3-8.6 14.1-8.6 25.5 0 15.1 10.5 33.3 29.4 50.9 17.2 16.1 35 24.5 51.5 24.4 9.2-.1 14.3-1.4 20.3-5.3 4.5-2.8 12.8-11.6 12.8-13.4 0-.5 2.1-3.6 4.6-6.9s5.6-8.2 7-10.8 3.1-5 3.9-5.3 3.3.7 5.7 2.3c8.4 5.8 7.8 4.4-1.2-2.6-1.7-1.3-2.9-2.6-2.6-2.9s0-1.2-.6-2c-1.5-1.8 15.9 8.3 18.8 10.9 2.6 2.4 3.6 2.4 5.1 0 1.8-2.9-1.4-6.3-10.6-11.1-12-6.3-11.6-5.6-7.6-12 4.5-7.1 6.2-13.2 7-25 1.2-17.4-2.6-29-12.9-38.8-9.8-9.4-25.4-16.7-44.4-20.7-10.3-2.1-29.5-1.9-39.4.5"/><path d="M328 190c3.3 2.6 5 2.6 2 0-1.3-1.1-2.8-2-3.4-2s0 .9 1.4 2m10.6 6.5c1 .8 2.3 1.5 2.8 1.5.6 0 .1-.7-1-1.5-1-.8-2.3-1.5-2.8-1.5-.6 0-.1.7 1 1.5m-1.6 1.9c0 1.1 3 3.9 3.6 3.4.2-.3-.5-1.3-1.6-2.3s-2-1.5-2-1.1"/></svg>