<svg xmlns="http://www.w3.org/2000/svg" width="682.667" height="512" version="1.0" viewBox="0 0 512 384"><path d="M142 76c-.9 1.4-2.1 3.7-2.7 5.2-.7 1.4-2.1 2.9-3.2 3.3-2.2.7-2.9 3.5-.9 3.5.9 0 .9.3 0 1.2-.7.7-1.2 2.8-1.2 4.7 0 2.3-1.8 7.2-4.9 13.6-5.9 11.8-6.8 14.5-4.9 14.5.8 0 1.9 1.5 2.6 3.2 1 2.7 1.4 3 2.2 1.8.5-.8 1-1.1 1-.5 0 .5.5.3 1-.5.7-1.2 1.8-.6 5.5 3.3 2.5 2.6 5 4.5 5.5 4.2 1.1-.7 4.1 3.5 3.3 4.7-.3.5-1.6.7-2.9.4-1.4-.4-3.3-.2-4.4.4-2.1 1.1-2.7 4.5-1 5.5 2.2 1.3.7 4.1-4.9 9.2-3.6 3.2-6.4 6.7-7.1 8.8-.6 1.9-1.9 4.1-2.9 4.7-3.2 2.4-5.1 6.2-5.1 10.3 0 4.8 1.8 7.8 6 9.5l3 1.2v9.2c0 6.5-.5 10-1.6 12.1-.9 1.6-2.4 4.3-3.2 6-.9 1.6-2.2 3.6-2.9 4.3-.9.9-1 1.9-.4 2.9.6 1.1-.1 4.5-2 10.2-1.6 4.6-2.9 9.4-2.9 10.5-.1 1.2-.7 3.2-1.4 4.6-1 1.6-1.1 3-.5 4.2.6 1.1.4 3.7-.6 7.3-3 11.6-9.4 62.1-13 102.5-.9 9.6-1.9 18.5-2.2 19.7l-.5 2.3h51.1c28.1 0 51.1-.1 51.1-.3 0-.1-1.4-9.6-3-21.1-1.7-11.4-3.7-29-4.6-38.9-1.8-21.3-4.6-36.4-10.9-58.3-3.8-13.2-4.5-16.7-4-20.9 1-7.6 3.3-16 7.1-26l3.5-8.9-2-9.1c-1.1-5-2.5-10.3-3-11.7-.8-2-.6-2.9.5-3.9 1-.9 1.1-1.5.3-2.5-.6-.7-.8-1.8-.4-2.4s.1-1.7-.5-2.5c-.9-1.1-.9-2.6.1-6.3.9-3.6.9-5.7.1-7.8-2.2-6-8-18.4-9.2-19.9-1.7-2.1-1.9-7.6-.3-8.2.7-.3 1-1 .6-1.6s-.1-.7.6-.2q1.35.75.6 4.2c-.6 3.3-.5 3.4 1.7 2.2 1.3-.6 3.4-2.1 4.7-3.3l2.4-2.1-1.3 2.5c-1.2 2.2-1.2 2.4.3 1.2 1.3-1.1 1.5-1 1 .7-.5 2.1 1.1 2.9 2.2 1.1.3-.5 1.2-.7 1.9-.4.9.3 1.7-.3 2.1-1.7.5-1.5 1-1.8 1.5-1 .9 1.6 4.7-4.6 5.5-9.3.7-3.3-.8-9.6-4.4-19.6-.8-2.5-1.4-6-1.3-7.8.3-2.7-.3-3.9-3-6.5-1.9-1.8-4.9-5.1-6.6-7.4-3.9-5-9.7-7.9-17.7-8.9-3.3-.3-6.5-1.1-7.2-1.6-1.6-1.3-6.8-.1-8.5 1.9-1.1 1.4-1.4 1.3-1.8-1.2l-.5-2.9zm237.9 74.7c-1.5 1-3.5 2.8-4.5 3.9-4.6 5.3-17.6 15.4-19.6 15.4-1.3 0-5.4-.9-9.3-2-3.8-1.1-7.7-1.8-8.6-1.5-2.7.9-6 5.1-5.3 6.8.3.9 3.9 4.2 8 7.3 7.2 5.5 8.2 6.8 6.6 7.8-1.4.9-1.2 6.4.3 7.9.8.9 1.5 2 1.5 2.6s.5 1.1 1 1.1c1.8 0 1 2.2-1 2.7-2.1.6-2.6 1.8-1.1 2.7 1.1.7 1.1 5.5-.1 6.2-.5.3.4 1.8 2.1 3.3l3 2.7-1.5 4.5c-1.3 4-2 4.7-5.2 5.5-3.3.8-4.1 1.7-7.2 7.9-1.9 3.8-6.3 11.2-9.7 16.3-3.4 5.2-6.5 10.2-6.8 11.3-.4 1.1.5 5.4 1.9 9.7 1.4 4.2 3.2 10.3 4.1 13.5 1.1 4.2 2.2 6.1 3.9 6.8 3.9 1.8 4.9 7.4 3.2 17.1-.9 4.6-2 13-2.6 18.8-.5 5.8-1.8 13.8-2.7 17.9l-1.8 7.4 4.8 4.3 4.8 4.3.2 10.5.2 10.6h7.2c8 0 7.2.8 8.8-9.5 1.4-9.5 4.6-8.6 7 1.9l1.6 7.6H379v-6c0-6.5.4-7 7.2-8.4 1.5-.4 3.9-1.7 5.4-2.9l2.7-2.4-4.1-14.9c-2.2-8.2-5.1-20.8-6.3-27.9-1.1-7.2-2.3-13.3-2.5-13.6-.7-1.1 2.7-6.9 4.6-7.9 1-.6 2.2-2 2.5-3.2.4-1.3 2.9-7 5.6-12.7s4.9-11.7 4.9-13.3c0-1.7-2.2-8-4.8-14.2-2.7-6.1-5.9-14.1-7.1-17.8-1.3-3.7-2.7-7-3.2-7.3-.5-.4-.5-1.4.1-2.6.6-1 .7-1.9.3-1.9s-.2-.5.5-1.2 1.2-2 1.2-3 .7-3.5 1.5-5.4l1.5-3.6 2.7 2c5.1 3.5 14.4 8.2 16.3 8.2 1.7 0 4-4.3 4-7.4 0-.6-2.5-4.5-5.5-8.6s-5.5-8.1-5.5-8.7c0-1.4 6-17.2 9.1-23.9 2.9-6.3 2.5-9.1-2.1-13.5-5.5-5.3-17.2-12-21.7-12.5-2.6-.4-4.6.1-6.4 1.3m1.5 109c.9 2.6 1.6 5.1 1.6 5.7s-1.9 2.4-4.2 4c-3.5 2.5-4 2.7-3.4 1 1.4-3.4 3.4-15.3 2.7-16-.3-.4-.1-.4.6-.1.6.4 1.8 2.8 2.7 5.4m-39.4-1.5c0 3-1.5 5.2-2.8 4.4-.7-.4-.5-1.7.6-3.6 2-3.6 2.2-3.6 2.2-.8"/></svg>