<svg xmlns="http://www.w3.org/2000/svg" width="682.667" height="512" version="1.0" viewBox="0 0 512 384"><path d="M141.2 77c-1.2 1.9-2.2 4.1-2.2 4.7 0 .7-1.4 2-3.2 2.9-2.8 1.5-3 1.8-1.5 2.9 1.1.8 1.3 1.5.6 2.2-.5.5-1.2 3.3-1.4 6.1-.3 3.8-1.7 7.3-4.9 12.9-4.8 8.3-6.6 13.3-4.7 13.3.6 0 1.7 1.5 2.5 3.2 1.4 3.1 1.4 3.2 1.6.8l.1-2.5 1 2.5c.8 2 1.2 2.2 1.9 1 .8-1.2 1.7-.7 5.2 2.8 2.4 2.3 4.9 4.2 5.5 4.2 1.7 0 4.4 3 3.8 4.1-.4.5-2.1.9-3.9.9-4.9 0-6.5 2.4-4.3 6.2 1.7 3 1.7 3-1.5 5.6-5.1 4.3-9.7 9.4-10.4 11.6-.4 1.2-2.4 4.1-4.5 6.5-3.3 3.7-3.9 5.1-3.9 9 0 5.4 1.7 8.3 5.9 10 3.7 1.6 4 2.8 3.1 13.4-.5 6.7-1.2 9.5-2.8 11.7-1.2 1.6-2.2 3.3-2.2 3.8s-.9 1.9-2 3.2c-1.4 1.6-1.7 2.7-1 3.9.6 1.2-.1 4.5-2.1 10.7-1.6 4.9-3.6 10.9-4.4 13.4-.8 2.7-1 4.8-.5 5.5s.2 4-1 8.5c-3.2 12.6-10.9 66.7-13.5 95-.9 9.6-1.8 19.6-2.2 22.3l-.6 4.7h51.2c41.6 0 51.1-.2 51.1-1.3 0-.7-.4-3.8-.9-6.8-1.7-9.8-5-39.1-6.6-57.2-1.6-18.7-4.2-32.4-10.2-52.9-1.9-6.8-3.5-13.2-3.5-14.3.1-6.1 4-19.9 9.4-33.5 3.4-8.5 3.3-11.2-.7-23.9-1.3-4.1-2.1-7.9-1.7-8.5 1.2-2 .8-7.1-.8-8.3-1.2-.9-1.3-1.7-.2-4.5.6-1.9 1.2-4.4 1.2-5.5 0-2.7-8.7-21.2-11.3-24.1l-2-2.2h2c1.1 0 3.7-1.1 5.7-2.5 2.1-1.4 3.5-2.1 3.1-1.5-.3.5-.1 1 .5 1 .7 0 .9.8.5 2.1-.6 1.9-.5 2 1.4.9 1.2-.6 2.5-.9 3-.6.4.3 1.4-.6 2.1-2 .9-1.5 1.6-2 2-1.3 1 1.5 5-5.2 5.7-9.5.5-3.4-2.7-17.8-5-22.1-.6-1.1-1-3.6-.8-5.5.1-2.7-.5-4-3.1-6.6-1.8-1.7-4.8-5.1-6.7-7.4-4.1-5.1-9.4-7.6-17.9-8.6-3.4-.3-6.5-1.1-6.8-1.5-.8-1.3-3.5-1.1-6.8.6-3.6 1.9-3.4 1.9-3.8-.8-.3-2-.5-1.9-2.6 1.3m31.1 60c-.4 1.6-.8 1.8-1.9.9s-1.1-1.5-.3-2.5c1.5-1.9 2.8-.9 2.2 1.6m207.6 13.7c-1.5 1-3.5 2.8-4.5 3.9-4.6 5.3-17.6 15.4-19.6 15.4-1.3 0-5.4-.9-9.3-2-3.8-1.1-7.7-1.8-8.6-1.5-2.7.9-6 5.1-5.3 6.8.3.9 3.9 4.2 8 7.3 7.2 5.5 8.2 6.8 6.6 7.8-1.4.9-1.2 6.4.3 7.9.8.9 1.5 2 1.5 2.6s.5 1.1 1 1.1c1.8 0 1 2.2-1 2.7-2.1.6-2.6 1.8-1.1 2.7 1.1.7 1.1 5.5-.1 6.2-.5.3.4 1.8 2.1 3.3l3 2.7-1.5 4.5c-1.3 4-2 4.7-5.2 5.5-3.3.8-4.1 1.7-7.2 7.9-1.9 3.8-6.3 11.2-9.7 16.3-3.4 5.2-6.5 10.2-6.8 11.3-.4 1.1.5 5.4 1.9 9.7 1.4 4.2 3.2 10.3 4.1 13.5 1.1 4.2 2.2 6.1 3.9 6.8 3.9 1.8 4.9 7.2 3.1 17.6-.8 4.8-1.9 13.7-2.5 19.8-.6 6-1.8 13.6-2.6 16.8-1.7 6.6-1.2 8.1 4.1 12.5l3.6 2.9.2 10.6.2 10.7h7.2c8 0 7.2.8 8.8-9.5 1.4-9.5 4.6-8.6 7 1.9l1.6 7.6h15.8l.3-6.2c.3-6 .4-6.3 3.3-7.1 5.8-1.7 11.5-4.7 11.5-6 0-.7-1.6-6.9-3.5-13.8-2-6.8-4.7-18.9-6-26.9-1.4-8-2.7-15-3-15.7-.6-1.7 2.3-7.1 4.5-8.3 1-.6 2.2-2 2.5-3.2.4-1.3 2.9-7 5.6-12.7s4.9-11.7 4.9-13.3c0-1.7-2.2-8-4.8-14.2-2.7-6.1-5.9-14.1-7.1-17.8-1.3-3.7-2.6-7-3.1-7.3s-.2-2.1.6-4 1.4-4.1 1.4-5 .7-3.2 1.5-5.1l1.5-3.6 2.7 2c5.1 3.5 14.4 8.2 16.3 8.2 1.7 0 4-4.3 4-7.4 0-.6-2.5-4.5-5.5-8.6s-5.5-8.1-5.5-8.7c0-1.4 6-17.2 9.1-23.9 2.9-6.3 2.5-9.1-2.1-13.5-5.5-5.3-17.2-12-21.7-12.5-2.6-.4-4.6.1-6.4 1.3m1.5 109c.9 2.6 1.6 5.1 1.6 5.7s-1.9 2.4-4.2 4c-3.5 2.5-4 2.7-3.4 1 1.4-3.4 3.4-15.3 2.7-16-.3-.4-.1-.4.6-.1.6.4 1.8 2.8 2.7 5.4m-39.9 1c-.4 1.7-.9 2.3-1.6 1.6s-.6-1.9.3-3.8c1.4-3.1 2.3-1.7 1.3 2.2"/></svg>