<svg xmlns="http://www.w3.org/2000/svg" width="682.667" height="512" version="1.0" viewBox="0 0 512 384"><path d="M141 77.2c-1.1 1.8-2 3.9-2 4.5 0 .7-1.3 1.9-3 2.8-3.1 1.6-3.7 2.9-2 4q1.05.6 0 2.4c-.5 1-.7 2.1-.3 2.4 1.1 1.2-1.8 10-5.1 15.1-1.7 2.8-4 7-4.9 9.3-1.5 3.7-1.5 4.3-.2 4.3.8 0 1.5.8 1.5 1.7.1 1 .7 2.9 1.5 4.3 1.4 2.5 1.5 2.5.9-1l-.5-3.5 1.5 2.5c1.4 2.2 1.5 2.3 1.6.5 0-1.6 1-.9 5 3.2 2.8 2.9 5.5 5.4 6 5.4.6.1 1.5.2 2 .3 1.4.1 3 2.8 2.4 3.8-.3.4-2.3.8-4.4.8-4.6 0-6 2.5-3.5 6.4 1.6 2.4 1.6 2.5-4.9 8.7-3.6 3.4-6.8 7.1-7.2 8.3-.4 1.1-2.4 4-4.5 6.3-3.8 4.1-4.4 5.9-3.9 11.3.3 3.8 1.7 5.8 5.3 7.6 1.8.9 3.5 2.2 3.9 2.8s.5 4.9.1 9.6c-.5 7.2-1.1 9.5-4 14.7-1.9 3.5-3.9 6.5-4.3 6.8-.5.3-.7 1.9-.4 3.4.6 2.6-3.8 18.2-6.9 24.8-.7 1.6-.7 3 0 4.6.6 1.3.7 3 .3 3.8-2.7 4.8-13 70.2-16.5 104.4-.9 8.2-1.8 16.2-2.1 17.8l-.6 2.7h51.6c48.5 0 51.6-.1 51.6-1.8 0-.9-.9-8.5-2-16.7-1.1-8.3-2.7-24.7-3.5-36.5-1-13.3-2.5-26.3-4.1-34-2.6-12.9-7.5-32.1-9.9-38.9-1.1-3.3-1.1-4 .2-5.4.8-.8 2.1-4.6 2.9-8.3.8-3.8 3.5-11.9 6-17.9 2.5-6.1 4.8-12.4 5-14 .3-1.8-.9-7.1-3-13.5-2.6-7.6-3.2-10.7-2.4-11.7.7-.9.7-1.7-.1-2.6-.7-1-.7-1.7 0-2.4.8-.8.6-1.4-.8-2.2-1.8-.9-1.9-1.5-1-6.6 1.1-5.6 1-5.6-4.2-15.8-2.9-5.6-6-11-6.9-11.9-1.4-1.6-1.2-1.9 2.1-3.3 2-.8 3.8-1.9 4.2-2.4 1-1.7 3.3-.1 2.8 2-.6 2 1.1 2.7 2.2.8.4-.5 1.2-.8 1.8-.6.7.2 2-.8 3-2.2l1.9-2.6-.6 2.5c-.5 2.4-.5 2.4 1 .5.9-1.1 2.7-4.2 4-6.8l2.5-4.9-2-8.9c-1.2-4.9-2.8-10.3-3.6-11.9-.9-1.7-1.2-4-.9-5.9.5-2.5 0-3.6-3.7-7.4-2.4-2.4-5.7-5.8-7.3-7.6-4-4.5-9.3-6.9-17-7.7-3.7-.4-6.9-1.1-7.2-1.5-.9-1.5-4.7-1-8 1l-3.1 1.9.5-2.4c.6-3.3-.5-3-2.8.8m30.6 60.5c-1 1-1.9-.5-1-1.8.6-1.1.8-1.1 1.2 0 .2.7.1 1.5-.2 1.8m203.2 17.1c-3.5 3.3-8.8 8.1-11.8 10.7-6.1 5.2-6.5 5.2-18.1 2l-6.6-1.8-3.2 2.2c-1.7 1.2-3.1 3-3.1 4 0 1.1 3.3 4.4 8 8.1 7.8 6.1 8.8 7.4 7.2 8.4-.7.4-.8 2.8-.4 7.9.1 1 .6 1.6 1.1 1.3s1.1.4 1.5 1.7c.9 3.3.8 3.7-.9 3.7-1.6 0-2 1.2-.8 2.3 1.1 1.1 1.2 5.6.2 6.3-.6.3.3 1.8 2 3.3l3 2.7-1.5 4.5c-1.4 4-2 4.6-5.7 5.7-3.8 1-4.4 1.6-6.7 6.9-1.3 3.2-5 9.7-8.2 14.5-9.9 15.2-9.5 13.1-5.3 27.7 4.2 14.7 4.5 15.3 7.2 16.5 3.5 1.6 4.5 7.1 2.8 16.7-.8 4.6-1.9 13.8-2.5 20.4s-1.7 14.3-2.4 17c-1.6 6.1-.9 8.1 3.8 12.3l3.6 3.1V384h14.7l1.2-6.8c.7-3.7 1.6-7.3 2-8 1.7-2.7 3.8.1 5.5 7.3l1.8 7.5h15.7l.3-6.3.3-6.2 4.6-1.1c5.8-1.5 9.9-4.1 9.9-6.4 0-1-.9-4.6-1.9-8.1-5.4-17.7-10.6-45.2-9.6-50.5.3-1.8 1.6-3.9 2.9-4.7 1.3-.9 3.3-4.2 4.6-7.4s3.8-8.8 5.7-12.5c1.8-3.7 3.3-8.1 3.3-9.8s-2.1-7.9-4.6-13.7-5.7-13.7-7-17.6c-1.3-3.8-2.9-7.6-3.5-8.3-.6-.8-.7-1.4-.2-1.4s.9-.8 1-1.8c.1-2.9 3-12.3 4-13.3.6-.6 2.3 0 4.7 1.6 5 3.4 13.2 7.5 14.9 7.5 1.5 0 3.7-4.1 3.7-6.9 0-1-2.5-5.1-5.5-9.2s-5.5-8.1-5.5-8.9c0-.9 2.5-7.8 5.5-15.4s5.5-14.6 5.5-15.5c0-3.1-3.7-6.8-12.6-12.7-6.7-4.5-9.7-5.8-13.4-6.2-4.8-.4-4.9-.4-11.2 5.6m6.6 104.9c.9 2.6 1.6 5.1 1.6 5.7s-1.9 2.4-4.2 4c-3.5 2.5-4 2.7-3.4 1 1.4-3.4 3.4-15.3 2.7-16-.3-.4-.1-.4.6-.1.6.4 1.8 2.8 2.7 5.4m-39.4-1.5c0 3-1.5 5.2-2.8 4.4-.7-.4-.5-1.7.6-3.6 2-3.6 2.2-3.6 2.2-.8"/></svg>