<svg xmlns="http://www.w3.org/2000/svg" width="682.667" height="512" version="1.0" viewBox="0 0 512 384"><path d="M140 78.7c-1.3 2.9-3.3 5.6-4.7 6.2-2.5 1.1-3 2.6-1.3 3.6.7.4.7 1.2.2 1.8-.5.7-.9 3.3-1 6-.2 4.8-1.8 8.9-5.7 14.2-3.9 5.2-7.9 14.5-5.7 13.1.6-.3 1.6 1 2.3 3.1 1.2 3.7 1.3 3.7 2 1.3.6-2 .7-2.1.8-.5s.3 1.7 1 .6 1.8-.6 4.9 2.6c2.3 2.3 3.9 4.3 3.6 4.5-.5.5.6.7 6.1 1 3.4.2 4 .6 4 2.5s-.5 2.3-3.4 2.3c-1.9 0-4.2.7-5.2 1.6-1.6 1.5-1.7 1.8-.2 4.9l1.5 3.2-7.1 7c-4 4-7.1 7.9-7.1 9s-1.4 3.2-3.1 4.9c-8.1 7.6-7.2 17.2 2 21l3.4 1.4-.7 9.7c-.6 8.5-1.1 10.3-4.2 15.9-2 3.5-4 6.7-4.5 7-.6.3-.7 1.9-.4 3.5.5 2.2-.5 6.4-3.5 15-2.7 7.7-4 13.1-3.7 14.7.3 1.5-.3 6.1-1.3 10.2-1.1 4.1-3.1 13.6-4.5 21s-4.1 21.6-6 31.5c-2.7 14.2-9.4 57.2-9.5 60.7 0 .5 23.6.8 52.5.8 30.6 0 52.5-.4 52.5-.9s-.7-6.9-1.5-14.3c-.8-7.3-1.9-23.1-2.5-35.1-1.1-23.1-2.9-34.7-9.1-58.4-4.7-17.6-4.7-17.9-1.1-21.6 2.1-2.2 3.6-5.3 4.7-9.7.9-3.6 4.3-12.2 7.6-19.2l6-12.6-1.4-4.9c-.8-2.7-2.9-8.3-4.7-12.6-1.7-4.2-2.9-8.1-2.5-8.7s.1-1.7-.5-2.5c-1-1.2-1-1.8 0-3.1 1.1-1.3 1-1.6-.8-2.1-2-.5-2.2-1.2-2.2-6.7 0-5.9-.3-6.7-6-15.7-3.3-5.2-6.8-10-7.8-10.7-1.6-1.2-1.6-1.4.1-2.3.9-.6 1.5-1.4 1.2-2-.4-.5-.1-.9.4-.9.6 0 1.1.5 1.1 1 0 .6 1.1.3 2.5-.6 2.6-1.7 2.6-1.7 2.1 1.1-.4 2.2-.2 2.5.6 1.7.7-.7 1.9-1.2 2.8-1.2s2.5-.9 3.5-2c1.3-1.4 2.1-1.7 2.6-.9.4.7 2-.9 4.3-4.2 2.7-4 3.6-6.4 3.6-9.4 0-4.2-3.3-17.3-5.2-20.9-.7-1.2-1.1-3.5-.9-5.3.2-2.8-.7-4.2-7.1-10.6-8.7-8.9-13-11.3-22.3-12.1-3.8-.4-7.4-1.1-8-1.6-1.5-1.2-5.5-.1-8.2 2.2l-2.1 2-.5-2.8c-.3-2.8-.5-2.6-2.7 2.3M174.5 206c1.1 2.2 1 3-1.1 7l-2.3 4.5-.1-5.6c0-3.1-.3-7.2-.6-9-.5-3.3-.5-3.3 1.1-1.4.9 1.1 2.2 3.1 3 4.5m-7.2 20.4c-1.4 3-1.9 3.4-2.6 2-.6-1.1-.2-2.3 1.4-4 3-3.2 3.4-2.5 1.2 2M380.9 147c-1.4.4-7.3 5.5-13.2 11.4-11.5 11.5-11.8 11.6-20.1 9.1-9.4-2.9-17.6-1.3-17.6 3.3 0 .6 4.3 3.9 9.5 7.3 8.6 5.7 9.3 6.4 8 7.9-.8.9-1.5 2.2-1.5 2.9s-.5.9-1.1.5c-.8-.5-.8-.1 0 1.4.6 1.1 1.1 3.1 1.1 4.4 0 1.8.2 2 1 .8.7-1.1 1-.7 1 1.8 0 2 .4 3.1 1 2.7.6-.3 1-.2 1 .4 0 .5-.6 1.1-1.2 1.3-.7.3-1.3 1.9-1.4 3.7-.1 1.7-.9 4-1.9 5.1-1.6 1.8-1.6 1.8.4 1.3q2.1-.6 2.1.9c0 .8 1.1 2 2.4 2.6 2.2 1 2.3 1.3 1.3 5.6s-1.2 4.5-5.9 5.7c-4.9 1.1-5 1.3-8.2 8.3-1.9 3.9-5.2 10-7.5 13.6-7.6 12-8.4 13.9-7.8 18.9.9 7.3 6.4 25.4 8 26.5.9.6 2.3 1.5 3.2 2.1 1 .6 1.7 2.4 1.7 4.5.2 6.7-3.1 44.6-4.3 49.8l-1.3 5.3 3.7 3.7 3.7 3.8V384h14.6l1.3-5.3c2.2-8.9 2.1-8.8 4.4-8.5 1.7.2 2.4 1.6 3.7 6.8l1.6 6.5 8.6.3 8.7.3.3-5.3.3-5.2 4.6-1.1c6-1.6 10.9-4.5 10.9-6.6 0-.9-1.2-5.7-2.6-10.5-6.7-22.6-11.8-45.6-10.8-48.9.3-1.1 1.6-2.9 2.9-4 2-1.7 6.3-11.3 12.1-26.9 1.7-4.4 1.6-4.7-3.8-18.1-7.6-18.8-9-23.5-8.8-30.9.1-8.4 4.4-18 6.5-14.7.3.6 4.4 3.3 9.2 6.2 8.2 5 8.7 5.1 10 3.3 3-4.1 2.7-6.2-1.6-11.7-2.3-2.8-5.3-6.8-6.6-8.7l-2.4-3.5 4.5-12c6.5-17 7-18.9 5.6-21.9-1.3-3-10.6-10.4-16.8-13.5-6.1-3.1-9.5-3.9-12.5-3.1m1 117.8c.1 1.3-1.1 3.3-2.6 4.7-3.6 3.1-4.5 3.1-3.3.1.5-1.3 1.2-5.3 1.6-8.8l.7-6.3 1.8 4c1 2.2 1.8 5 1.8 6.3m-41.2-3.7c-1.2 2.7-1.6 3.1-2.2 1.7-.4-.9.1-2.8 1.1-4.4 2.3-3.4 2.9-1.7 1.1 2.7"/></svg>