<svg xmlns="http://www.w3.org/2000/svg" width="682.667" height="512" version="1.0" viewBox="0 0 512 384"><path d="M276.5 87.7c-12.3 1.1-26.9 5.2-40.5 11.5-13.2 6.2-31 22.2-35.5 32-5.1 11.1-5.4 20.9-1 32.8 1.3 3.6 1.5 5.5.7 9.5-1.3 6.4-.1 12.8 4 21.7 11.6 25.2 57.4 40.6 96.3 32.3 15.3-3.2 27.4-12.3 31.4-23.4 1.1-3.1 2.8-11.5 3.7-18.6 1.5-12.2 1.5-17.3-.2-25.4l-.7-3.3 9.4.4c5.2.2 10.2.8 11.2 1.2 1 .5 1.7.4 1.7-.2 0-1.1-.7-1.3-13-3l-6.5-.9 6-.3 6-.4-7-.7c-5.7-.5-4.8-.6 5.5-.5 11.4.1 12.5-.1 12.8-1.8.7-3.4-1.6-4.1-14.6-4.6l-12.7-.5-.6-7.6c-.5-6.5-1.4-9.2-5.5-17.4-9.8-19.4-18.5-27.7-33.5-31.5-7.2-1.9-9-2-17.4-1.3"/><path d="M353.1 154.4c.2.2 1.8.6 3.4 1 2.2.5 2.6.4 1.5-.4-1.4-.9-5.9-1.5-4.9-.6"/></svg>