<svg xmlns="http://www.w3.org/2000/svg" width="682.667" height="512" version="1.0" viewBox="0 0 512 384"><path d="M146.8 38.6c-2.7 1.3-4.8 2.8-4.8 3.2 0 .5-.7 1.7-1.5 2.8-1.3 1.6-1.5 1.6-1.3.2.2-.9-.1-1.7-.7-1.8-1.3-.2-4.4 7.6-4.4 11.2-.1 1.7-1.5 4.3-3.6 6.7-3.5 3.9-4.4 6.1-2.4 6.1.7 0 .9 1.2.5 3.4-.4 2-.2 3.7.4 4.1.5.3 1 2.2 1 4.2s.5 6.3 1.1 9.7c1 5.7.9 6.6-1.6 13.1-3.2 8.2-7.5 22.1-7.5 24.1 0 .8.6 1.1 1.4.8 1-.4 2.3 1 4.1 4.5 2.9 5.9 3.8 6.5 2.4 1.9-.5-1.8-.9-4.9-.9-6.8l.1-3.5 1.5 4.5c2 5.7 3.4 7.3 3.4 3.7 0-2.9 1.7-3.7 2.6-1.3.3.8 3.3 3.8 6.7 6.8 3.4 2.9 5.7 4.6 5.3 3.8-.7-1.2-.6-1.3.4-.3 1 .9.7 1.7-1.6 3.7l-2.9 2.5 2.8 5.1c2.2 4 2.5 5.5 1.7 7-.6 1.1-1.7 2-2.5 2-3.8 0-21.7 20.3-20.1 22.8.3.5-1.1 2.4-3 4.3-13 12.5-11.9 27.8 2.4 33.4 4.7 1.9 4.7 1.8 4.3 15-.4 13.4-1.9 19.5-6.1 25.9-2.2 3.3-4 6.4-4 7.1 0 .6-1.1 2.2-2.5 3.5-2.6 2.4-3.5 8.3-1.5 9.5 1.3.8 1 1.9-4 15.5-5.3 14.5-5.6 15.7-3.5 18 1.7 1.8 1.6 2-1.3 4.7-2 1.8-3.9 5.4-5.6 10.4-2.9 8.5-3.2 12.6-1.2 15.4.8 1.1 1.2 2.4 1 3-.3.8-3.8 19.6-5.9 32.2l-.6 3.3h63.6c43 0 63.5-.3 63.5-1 0-1.9-11.1-45.3-13.1-51.3l-2-5.8 4-6c2.2-3.3 4.3-6.9 4.6-8 .6-1.7 1.2-1.9 3.6-1.4 3 .7 3 .6 2.4-2.8-.6-3-.3-3.8 3.2-7 2.1-2 4.1-3.7 4.5-3.7s2.7-6.4 5.2-14.3c3.1-9.7 7.6-20.4 14.1-33.5 7.9-16.1 9.5-20.1 9.5-24 0-7.5-4.9-16.1-16.7-30-3.7-4.3-4.1-5.1-2.8-6.2.8-.7 1.5-2.3 1.5-3.7 0-2-1-2.9-5.4-4.8l-5.4-2.4.5-4.4c.6-4.9-2.6-12.4-6.9-16.4-2.9-2.7-11.1-6.8-16.5-8.2-2.3-.7-4.9-1.9-5.8-2.7-1.4-1.5-1.4-1.7.2-2.9s1.6-1.7.5-3.5c-1.2-1.9-1.1-2.4.5-3.6 2.2-1.7 4-1.8 4.9-.2.5.8 1.7 0 3.6-2.3l2.8-3.4-.6 3.1c-.8 4.2 1.9 5.4 4.2 1.9 1.9-2.9 4.4-3.3 4.4-.8.1 1.1 1 .3 2.5-2.2 2.2-3.6 3.1-3.9 2.5-1-.4 2.4 1.9-1.5 5.6-9.5 3.3-7.3 3.9-9.4 3.8-15-.1-8.1-4.7-20.4-11-29.7-2.8-4-4.4-7.4-4.4-9.4 0-1.6-.7-4.3-1.5-6-1.6-2.9-8.8-8.9-10.9-8.9-.6 0-4.4-2.3-8.4-5-9.5-6.5-16.2-8.5-26.2-7.6-4.1.3-8.7.9-10.2 1.2-2.3.5-2.8.3-2.8-1.4 0-4.6-6-5.3-13.2-1.6m-4.3 12.3c-.3.6-1.1 1.1-1.7 1.1s-.6-.6.2-1.5c1.4-1.7 2.6-1.3 1.5.4M202.6 215c2.1 0 3.8.7 4.7 2 1.2 1.7 1.7 1.8 4.4.8 2.9-1.1 3.4-.9 7 2.2 2.1 1.9 3.7 3.8 3.5 4.3-1.8 5.9-13.8 30.6-19.2 39.6-3.9 6.4-7 12.6-7 13.7 0 6-4.7 12.1-7.3 9.5-.7-.7-.7-1.8.2-3.7 1-2.3.7-3.6-2.8-11.3l-4-8.6 2.4-10.5c2.4-10.5 9.1-32 11.6-37.3.8-1.9 1.6-2.4 2.3-1.7.5.5 2.5 1 4.2 1m129.7-103c-7.2 3.2-10.8 12.6-6.7 17.2 1.6 1.7 1.4 2.3-2.4 10.1l-4.1 8.4-11.3.6c-20.7 1-30.7 4.7-36.1 13.1-5.2 8.3-4.5 12.9 3.2 19.9 3 2.7 25.5 14.7 27.6 14.7.2 0 1.6.5 3 1l2.7 1-2.2 3.7c-1.3 2.2-1.8 3.9-1.1 4.1.6.2.7 1.2.1 2.7-.7 1.8-.6 2.3.4 1.9 1.1-.4 1.1.5.3 4.7-.7 3.4-.7 5.4-.1 5.6s.8 2 .6 4.1c-.4 3.1-.3 3.5 1 2.4 1.2-1 1.6-.6 2.5 2.2s.7 3.5-.8 4.4c-1.6 1-7.9 12.8-7.9 14.8 0 .4-2.2 5.5-4.9 11.3s-5.8 12.6-6.9 15.1-3.9 8.5-6.1 13.4c-2.3 4.8-4.8 11.4-5.7 14.5s-3.1 10.5-5 16.5c-4.5 14.4-4.5 19.4-.1 24.3 2.5 2.8 3.7 5.5 4.5 9.8 1.8 9 7.4 14.1 19.2 17.6 6 1.7 6.3 2.4 4.6 9.7l-.8 3.2h45.6c25.1 0 45.6-.1 45.6-.3s-1.1-3.7-2.5-7.8-4.6-14.5-7-23.1c-2.5-8.7-5.3-18-6.4-20.7-1.6-4.3-1.7-5.2-.5-6.2 1.6-1.3 1.8-5.6.4-11.9-.6-2.5-1.3-5.6-1.6-7-.4-1.9 2.2.1 10.3 8.2 6.5 6.4 12.4 11.3 14.7 12.2 3.9 1.6 4 1.6 6.7-1 2.4-2.3 2.9-2.5 3.4-1.1 1.2 3 0 6.2-2.7 7.5-2.8 1.3-3.8 3.2-1.7 3.2.5 0 .8.4.4 1-1.2 1.9 4.2 4.2 8.3 3.5 10.2-1.7 13.9-14.9 8.1-28.5-1.8-4.2-2-5.5-1-7.6.6-1.4 1.1-3.8 1.1-5.5 0-2.5-.6-3.2-3.7-4.5-2.1-.9-10.6-4.9-19-8.9-14-6.8-15.4-7.7-17.3-11.4-1.1-2.2-2-4.5-2-5.2 0-.6-2.1-6.1-4.7-12.1-3.5-8.2-4.3-11.2-3.5-12 1.7-1.7 1.5-3.8-1.2-12.4-1.4-4.1-2.2-7.3-1.9-7 1 1 3.3-2.3 3.3-4.9 0-1.4-.7-3.7-1.6-5s-1.4-2.9-1.2-3.5c.2-.7 6.5-1.2 17.3-1.4 19.3-.4 25.5-1.7 30.4-6.7 2.4-2.4 3.1-3.9 3.1-7 0-13-6.9-21.5-24.1-29.6-5.7-2.8-11.6-5.5-13.1-6.1-2.2-.9-2.8-1.8-2.8-4 0-1.6-.3-5.6-.6-9-.7-6-.6-6.1 2-6.8 5.9-1.4 7.4-12.7 2.5-18.1-3-3.1-7.1-5.3-10.1-5.3-1.3 0-4.7-.9-7.5-2-2.9-1.1-8.8-2.4-13-2.9-4.3-.5-9.1-1.4-10.6-2-3.7-1.5-4.5-1.4-9.4.9m-17.5 163.7c2.5 5.9 7.2 22.4 7.2 25.4 0 1.2-2 5.9-4.4 10.4-4 7.4-4.3 8.4-2.9 9.8 1.4 1.3 1.3 2-1 6.8-2.2 4.9-2.5 5.1-2.5 2.4 0-5.9-3.3-22.8-5.3-27.6-1.7-3.9-2-5.9-1.4-10.5.9-7.6 5.8-21.4 7.5-21.4.4 0 1.7 2.1 2.8 4.7m-9.4 79.6c-.9 4.1-2 8.1-2.4 8.7-1.2 1.9-6.4-1.7-8.9-6-2.5-4.4-2.6-6-.7-6 1.5 0 2.6 2.1 2.6 5.2 0 1.3.6 1.8 1.8 1.6 1.1-.2 1.9-1.5 2.2-4.1.4-2.8 1.3-4.2 3.5-5.6 1.7-1 3.1-1.7 3.3-1.6.1.1-.5 3.6-1.4 7.8"/></svg>