<svg xmlns="http://www.w3.org/2000/svg" width="682.667" height="512" version="1.0" viewBox="0 0 512 384"><path d="M150.3 31.6c-1.3.6-3.1 1.8-4.1 2.7-1 1-2.1 1.4-2.5 1.1-.3-.4-1.6 1-2.8 3-2.2 3.7-3.3 4.7-2.3 2.1.4-.9 0-1.5-1-1.5-1.6 0-2.8 3.4-4.5 12.3-.5 2.7-2.1 6.1-4 8.3-3.4 4.2-3.9 6.4-1.6 6.4 1.9 0 1.9.4 0 4-1.3 2.5-1.3 3-.2 3 1 0 1.6 1.9 2.1 6.4.3 3.5 1.3 8.6 2.1 11.2 1.5 4.9 1.4 5-3.1 18.1-4.9 14.5-6.7 23.7-4.3 22.8 1-.4 2.3 1.2 4.2 5.1 2.9 5.9 4.7 6.8 2.8 1.3-.6-1.8-1.1-5-1.1-7.3l.1-4.1 1.3 3.5c.7 1.9 2 4.8 2.9 6.5 1.7 2.9 1.7 2.9 1.6.5-.3-5.1.2-5.3 3.7-1.2 1.9 2.3 4.2 4.2 4.9 4.2s2.5 1.4 4 3.1l2.6 3.2-2.1 2.1c-2.6 2.9-2.6 3.3.9 8.8 2.7 4.2 2.8 4.8 1.5 6.7-.9 1.2-2.2 2.1-2.9 2.1-2.1 0-14.9 12.3-18.5 17.8-1.6 2.5-3 5.4-3 6.4 0 .9-1.6 3.4-3.6 5.5-7.4 7.6-8.9 10.9-8.9 19.2 0 6.8.3 8 2.8 11.3 1.8 2.3 4.7 4.4 8.1 5.8 4.9 1.9 5.4 2.5 5.9 5.8.7 4.2-1.7 28.5-3.1 32.2-.5 1.4-2.6 4.9-4.6 7.9-2 2.9-3.6 5.9-3.6 6.7 0 .7-1.1 2.3-2.4 3.6-3 2.9-4 7.1-2.6 11.1 1 2.9.6 4.7-4 17.2-4.1 11-5.1 14.8-4.7 17.9.5 3.2.1 4.2-2 6-2.9 2.5-8.2 17.1-8.3 22.5 0 2.1.8 4.3 1.9 5.5 1.8 2 1.8 2.6.6 8.8l-1.3 6.8h128.6l-2.8-10.4c-1.6-5.7-4.3-15.1-6-20.9-1.8-5.8-3-11.3-2.6-12.2.3-.9 2.1-2.2 4-3 3.9-1.6 4.8-3.3 3.9-7.5-.5-2.7 0-3.6 3.5-6.8 4.3-3.8 7.4-9.8 8.6-16.6 1.5-8 7.1-22.7 16.2-42.7 10.5-23 11-25.5 7.3-35.5-2.1-5.5-10.4-20.1-13.4-23.4-1.9-2.1-1.9-3.5.2-7.1 2.4-4 .9-8-3.5-9.3-3.2-.9-3.2-.9-3.2-7.3 0-8-2.1-12.5-9-18.6-4.5-4-13.8-8.7-17.3-8.7-1.6 0-5.7-2.9-5.7-4 0-.5.9-1.2 2-1.5 2.6-.8 2.5-2.3-.2-5.2-2.2-2.4-1.9-4.4.4-2.5 1 .8 2 .6 3.8-.8 3.1-2.4 3.8-2.5 4.2-.3.2 1.3 1.2.6 3.6-2.7l3.2-4.4v3.6c0 4.9 1.2 5.4 4.4 1.8 3-3.4 4.6-3.8 4.6-1.3.1 1.1 1 .3 2.5-2.2 2.2-3.5 3-3.9 2.6-1.3 0 .5.2.8.7.8.4 0 2.5-4.6 4.7-10.3 3.4-8.6 4-11.3 3.9-17.2 0-6.3-.5-8-5.2-17.5-2.8-5.8-7.2-13.2-9.7-16.5-2.8-3.8-4.5-7-4.5-8.8 0-7-5-12.7-14-16.3-2.5-1-7-3.4-10-5.5-5.5-3.6-12.1-6.2-19.2-7.5-3.2-.5-16.8 1.5-21.3 3.2-1.1.4-1.5-.1-1.5-1.7 0-1.3-.4-3-.9-3.8-1.1-1.8-6.8-2.1-9.8-.5m-8.4 16c-1.4 1.8-2.4 1.1-1.5-1.1.3-.9 1.1-1.3 1.6-1 .8.5.7 1.1-.1 2.1m10.1 95.9c.7.9.8 1.5.2 1.5-.5 0-1.2-.7-1.6-1.5-.3-.8-.4-1.5-.2-1.5s.9.7 1.6 1.5m59.9 86.9c1.3 1.4 3 2.2 3.7 1.9 1.5-.5 5.4 2.3 5.4 3.9 0 .5-3.2 8.8-7 18.6-6.5 16.4-17.5 38.2-19.2 38.2-1.6 0-5.8-10.9-5.8-15.1 0-4.9 3.2-17.8 8.6-34.4 4.9-15 4.6-14.6 11-15.4.6 0 2.1 1 3.3 2.3"/><path d="M323.3 105.1c-6.8 2-11.2 11.5-8 17.1 1.6 2.8 1.5 3.2-2.9 13.2l-4.6 10.4-9.5.7c-19 1.4-33.6 5.8-38.9 11.7-6.4 6.9-8.1 15.6-4.1 20.9 2.3 3.1 14.5 11.9 16.6 11.9.7 0 2.3.8 3.7 1.7s6.5 3.1 11.2 4.9c9.5 3.6 9.1 2.9 7.4 12.1-.5 2.9-.7 5.5-.4 5.8.3.2.4 4.2.3 8.7-.2 7 0 8 1.2 7 1.2-1.1 1.6-.7 2.1 2.3.6 2.9 1 3.4 2 2.5 2.7-2.1 2.8 2.1.2 4.9-3.1 3.4-5 7.2-8.6 17.4-1.6 4.6-6.1 16.2-10.1 25.8-11.3 27.8-10.8 25.1-11 53.8-.2 23.5-.1 25.2 1.7 27.2 1 1.2 3.1 2.7 4.5 3.5 2 1 2.8 2.3 3.2 5.7.3 2.4 1.1 5.5 1.6 7l1.1 2.7h51c28 0 51-.3 51-.6 0-1.5-9.1-34.5-10.4-37.6s-1.4-4-.2-6.2l1.3-2.6 2.7 3.5c1.5 1.9 3.3 3.5 4 3.5.8 0 1.9.7 2.6 1.5 1.7 2.1 2.2 2 6.4-2.1l3.6-3.5 1.6 3.7c1.9 4.6 1.1 8.1-2.1 9.6-3.1 1.4-3.2 2.5-.4 3.3 1.5.5 1.8 1 1 1.5s-.4 1.3 1.5 2.5c2 1.3 3.8 1.6 7.2 1.1 5.5-.7 6.4-1.5 9.3-7.4 3.5-7.4 3.2-16.1-.7-24.1l-3.2-6.3 2-4.5c2.4-5.4 2-6.6-2.9-9.3-8.3-4.6-18.3-10.8-26.6-16.5-8.6-5.9-8.7-6-9.8-11.5-.6-3-2.7-10.3-4.7-16.2l-3.6-10.7 1.9-3.6c2-3.5 2-3.6-.1-11.5-1.2-4.4-1.8-8-1.4-8 1.1 0 2.9-5.2 2.6-7.5-.1-1.1-.9-3.4-1.7-5-3.1-6-2.2-6.5 11.7-6.5 20.7 0 34.2-3 39.8-8.9 2.4-2.5 2.8-3.7 2.7-8.6-.1-10.5-3-16.2-11.5-22.4-6.4-4.7-14.6-8.9-24.8-12.6-7.7-2.7-7.7-2.7-8.3-6.9-.3-2.2-.6-6.5-.8-9.5-.2-5.3-.1-5.4 2.9-6.2 8-2.2 7-16.7-1.5-22.5-1.9-1.3-4.9-2.4-6.6-2.4-1.6 0-4.3-.7-5.8-1.5-3.8-2-9.1-3.3-20.1-5.2-13.5-2.2-14.8-2.3-18.3-1.2m-15 185.6c5.2 10.3 8.7 19.8 8.7 23.2 0 3.8-6.8 17.7-8 16.5-.5-.5-1.8-3.4-3-6.4-1.2-2.9-3.5-7.4-5.2-9.9-2.7-4.1-3-5.1-2.5-9.9.7-6.4 4.7-20.2 5.8-20.2.5 0 2.4 3 4.2 6.7"/></svg>