<svg xmlns="http://www.w3.org/2000/svg" width="682.667" height="512" version="1.0" viewBox="0 0 512 384"><path d="M152.9 28.9c-2 .4-4.9 1.7-6.4 2.9s-3.3 2.2-4 2.2-1.8 1.4-2.5 3c-1 2.3-1.6 2.8-2.5 2s-1.5-.8-2-.1c-1 1.7-3.5 12-3.5 14.4 0 1.2-1.6 4.4-3.5 7.1-3.8 5.4-4.4 7.6-1.9 7.6 1.2 0 1.4.5.9 1.7-1.4 3.4-1.8 6.6-.8 6 .7-.4 1.5 2.3 2.2 7.1.6 4.2 1.9 10 2.8 12.8 1.6 5.1 1.6 5.1-2 16-3.3 10-6.7 24.4-6.7 28.1 0 1.3.3 1.3 1.6.2 1.3-1 1.7-1 2.5.2.5.8.9 1.7.9 2.2 0 1.2 5.1 8.9 5.6 8.4.3-.2 0-1.6-.6-3.1-1.3-3.5-2.9-13.6-2.1-13.6.4 0 1.4 2.1 2.3 4.7.9 2.7 2.4 5.7 3.2 6.8 1.5 1.9 1.5 1.9 1.6-1.3 0-1.7.3-3.2.6-3.2s2.1 1.6 3.9 3.6c1.9 2 3.8 3.3 4.4 3 1.1-.7 5.1 4.5 5.1 6.6 0 .7-.7 2.2-1.5 3.2-1.3 1.8-1.2 2.5 1.6 7.4 2.6 4.7 2.9 5.8 1.9 7.7-.6 1.2-2.7 2.7-4.5 3.4-5 1.8-18.9 16.9-21.2 23-1 2.7-3.7 6.9-6 9.3-6.4 6.9-8.6 12.1-8.5 19.9.1 9.7 2.4 13.5 10.9 17.9l6.8 3.6-.1 13.9c-.2 18-1.3 23.4-6.9 32.1-2.5 3.8-4.5 7.4-4.5 8.1s-1.4 2.7-3.1 4.4c-3.1 3.2-3.1 3.4-2.5 10 .6 6.4.3 7.7-4.3 20.6-2.7 7.6-5.2 15.7-5.6 18-.4 2.7-1.2 4.3-2.1 4.3-2 0-4 3.5-7.3 13.5-1.7 4.9-3.1 9.1-3.1 9.2s30.4.3 67.5.3c41.6 0 67.5-.3 67.5-.9 0-.5-1.4-4.7-3.1-9.3-2-5.4-2.6-8.4-1.9-8.6.6-.2 2.2-1.4 3.6-2.6l2.4-2.1-2.2-4.2-2.1-4.2 3-2.8c3.1-2.9 4-4.9 9.7-22.9 4-12.7 6.4-18.1 18.6-42.5 4.9-9.7 9.1-19.2 9.5-21 .9-4.9-1.8-15.7-6.5-25.7-2.2-4.7-4-9.4-4-10.5 0-1-.9-3.6-2.1-5.7l-2.1-3.7 2-3.9c2.3-4.4 1.8-6.4-2.5-10-2.1-1.8-2.4-2.7-2.1-8.1l.3-6 9 4.3c5 2.4 13.3 5.7 18.6 7.4l9.5 3.1-1.2 6c-.7 3.3-1.5 10.7-1.8 16.5-.3 5.7-.8 11-1.2 11.7-.4.6.2.4 1.2-.6 1.8-1.7 1.9-1.6 3 1.5.6 1.8 1.7 3.3 2.5 3.3s2 1.3 2.6 2.8c1.2 2.6 1 3.3-2.2 8.2-3.1 4.6-5.9 11.9-14.4 37.5-1 3-4 10.9-6.6 17.5-6.5 16.3-7.1 24-2.7 37.6 1.7 5.2 4 13.9 5.2 19.4 1.1 5.5 2.6 11.9 3.2 14.2l1 4.3h124.5l2.2-6.8c1.1-3.7 2.1-7.6 2.1-8.7 0-2.2-3.1-10.7-5.9-16.4-1.8-3.5-1.8-3.7 0-7.6 1-2.2 1.9-4.7 1.9-5.5 0-.9-6.1-7.1-13.5-13.9-7.5-6.8-14.1-13.3-14.7-14.5-.7-1.1-1.5-7.3-1.9-13.6-.7-12.7-1.8-16.1-8.1-25.8-4-6.1-4.1-6.5-2.9-9.9 1.6-4.4 1.6-9.1-.3-16.6-1.1-4.8-1.1-5.7 0-5.7 2.4 0 3.9-10.3 1.9-13.3-1.2-1.8-1.2-3-.3-6 1.3-4.1 2.3-4.5 5-2 1.4 1.3 1.8 1.3 1.8.2s2.3-1.4 11.3-1.5c19.1-.3 34.7-4.3 40.2-10.4 2.4-2.7 2.7-10.9.6-18.2-2.8-9.7-18.6-20.6-40.4-27.8-7.3-2.3-7.1-2.1-8.2-11.5-.3-2.8-.9-6.5-1.2-8.3-.5-2.9-.3-3.2 1.9-3.2 6.5 0 10.3-12.7 5.9-19.6-2.9-4.7-8.5-8.5-13.3-9.1-2.4-.3-4.7-.9-5.3-1.3-2.2-1.7-13.7-5-17.5-5-2.2 0-6.6-.9-9.7-2-7.2-2.5-10.2-2.5-15.6 0-6.8 3.3-8.2 6-8.3 16.6-.1 6.4-.6 9.9-1.7 12-.9 1.6-2.8 5.8-4.3 9.4-1.4 3.6-3 7-3.5 7.6s-5.5 1.4-11.1 1.7c-11.5.7-18.2 1.9-27.8 4.9-9.7 3.1-13.7 6.2-17.2 13.2-3.8 7.6-3.4 7.2-5.6 5.3-2-1.8-12.6-6.7-14.5-6.7-.7 0-2.8-1.5-4.5-3.3l-3.3-3.4 2.6-1.1c2.9-1.3 3.2-3.7.9-6.3-1.2-1.4-1.4-2.4-.6-4.6l.9-2.8 1.3 2.7 1.3 2.7 2.7-1.9c3.5-2.5 4-2.5 4 .2 0 1.7.8 1.1 3.7-3 3.6-5.2 5.2-5.5 5.3-1 0 1 .5 1.8 1.1 1.8.8 0 .7.5-.1 1.7-.7 1 .6-.2 3-2.7 3.9-4 4.4-4.2 5-2.5s1.1 1.2 3.3-3l2.6-5 .1 3.5c.1 3 .7 1.9 4.2-7 3.5-9.1 4.1-11.6 4.2-18.5 0-8 0-8.1-6.2-19.7-3.5-6.4-8.5-14.7-11.2-18.4-2.8-3.7-5-7.8-5-9.1 0-7.4-7.1-15.3-16.5-18.3-2.2-.7-6.7-2.9-10.1-5-3.3-2.1-8.1-4.5-10.7-5.4-6.1-2-21.3-2.1-28.7-.1-7.1 1.9-7 1.9-7-.8 0-2.4-2.8-5.8-4.6-5.6-.5.1-2.5.4-4.5.8m-10.4 16.2c.4.6-.1 1.6-1.1 2.4-2.3 1.6-2.8 1.3-1.9-1.4.7-2.3 2-2.7 3-1m12.6 106.1c1.1 2.1 1.1 2.2-.4.9-1-.7-1.7-1.7-1.7-2.2 0-1.5.9-1 2.1 1.3m62.1 98.8 4 4-3.7 9.7c-7.4 19.2-18.2 42.3-19.7 42.3-.5 0-1.6-1.6-2.5-3.5-1.6-3.4-1.6-4 .5-13.5 2.9-12.6 12.1-41.3 13.6-42.2 2.2-1.5 3.9-.8 7.8 3.2m88.2 63c7.9 15.2 8.2 16.9 4.6 24-1.6 3.2-3.4 6.1-3.9 6.4-.5.4-1.9-1.1-3.2-3.1-1.2-2.1-4.5-6.7-7.2-10.2-4.8-6.1-4.9-6.6-4.4-11.5.3-2.8 1.5-8.6 2.8-12.9l2.3-7.9 1.7 2.4c1 1.2 4.3 7 7.3 12.8m73.1 55.6c3.5 12.2-.4 16.8-4.2 5-2.1-6.5-2.1-7.1-.6-8.8.9-1 2-1.8 2.4-1.8s1.5 2.5 2.4 5.6"/></svg>