<svg xmlns="http://www.w3.org/2000/svg" width="682.667" height="512" version="1.0" viewBox="0 0 512 384"><path d="M270.8 87c-22.2 3.8-47 19.9-61.6 40.1-4.8 6.7-10.6 17.8-12.1 23.4-2.7 9.8.1 25.7 5.4 31.5 3.2 3.5 4.1 5.8 4.9 11.9 1.4 11.1 11 24.4 21.7 30 20.2 10.7 53.5 10.3 81.7-.9 9.4-3.8 16.4-8.4 23.1-15.1 9.8-9.8 11.5-18.1 8.2-39.1-1.5-9.5-2.8-14.5-5.5-20.4-2-4.2-3.4-7.9-3.1-8.2.8-.8 16.6-4.1 20-4.2 2.4-.1 2.6-.3 1.1-.9-1.1-.4-3.8-.4-6 0-5.4 1.1-6.6 1-3.7-.2 1.3-.5 4.1-1 6.3-1.1 2.1-.1 4.2-.6 4.5-1.1.4-.7-1.7-.8-5.8-.5-3.8.4-5.4.3-3.9-.2 1.4-.4 3.9-.8 5.6-.9 3.6-.1 5.7-2.1 4.8-4.5-1-2.6-9-2-18.4 1.4-4.6 1.6-8.6 3-8.9 3-.4 0-1.2-2.1-1.9-4.6-1.6-6.1-6.5-13.1-16-23-9.1-9.6-15.5-13.8-24.3-15.9-7-1.6-9-1.7-16.1-.5"/></svg>