<svg xmlns="http://www.w3.org/2000/svg" width="682.667" height="512" version="1.0" viewBox="0 0 512 384"><path d="M155.6 29.9c-.3.5-1.5.7-2.6.4-1.4-.4-3.4.5-6 2.6-2.1 1.7-4.4 3.1-5 3.1s-1.9 1.8-2.9 4.1c-1.6 3.6-2 3.9-2.9 2.3s-1-1.6-2 .3c-.6 1.1-1.9 6-2.8 10.9-1.3 6.6-2.7 10.3-5.3 14.3-3.3 5-3.4 5.4-1.7 6.7 1.6 1.1 1.7 1.7.7 4.5-1.4 4-1.4 3.9.2 3.9.9 0 1.8 2.5 2.6 7.2.7 4 2.4 10.6 3.7 14.6l2.4 7.4-2.9 11.6c-2.9 11.1-5.1 24.3-5.1 29.9 0 2.2.2 2.4 1.5 1.3.9-.7 1.7-1.1 1.9-.9.1.2 2.2 3.2 4.5 6.7 2.4 3.5 4.5 6.2 4.7 5.9.3-.2-.4-2.6-1.4-5.3-2-4.9-3.8-13.4-2.9-13.4.3 0 1.6 2.4 3.1 5.2 2.7 5.5 7.2 11.7 6.3 8.6-.3-.9-.9-3.4-1.3-5.5l-.6-3.8 4.8 4.6c2.7 2.5 5.8 5.2 6.8 6 1.9 1.4 1.9 1.3.2-1.6-1.7-2.8-1.6-2.7 1.8.7l3.6 3.8-2 2c-1.1 1.1-2 2.4-2 3 0 .5-.7 1-1.5 1-2.3 0-1.8 2.1 2.1 8.5 3.1 5.3 3.4 6.2 2.2 8.3-.6 1.3-2.6 2.9-4.4 3.7-7.4 3.1-25.4 23.5-25.4 28.9 0 1.1-2.5 4.5-5.5 7.7-7.3 7.7-9.5 12.5-9.5 21.5 0 6.4.3 7.7 3.3 12 2.5 3.9 4.3 5.3 8.6 7 3.6 1.5 6 3.2 7.4 5.4 2 3.1 2 3.7.8 18.2-1.6 19.7-2.5 24.4-6.1 29.8-1.6 2.5-4.2 7-5.7 10-1.4 3-3.9 6.7-5.5 8.2-3.1 2.8-3.7 7.8-1.8 13.4.9 2.4.4 4.8-3.1 14.4-2.2 6.3-4.3 12.3-4.6 13.2-.5 1.7 2.9 1.8 61.4 1.8h61.9l5-11.3c4.4-9.8 20.3-38.2 21-37.4.2.1-.6 3.6-1.8 7.7-1.5 5.4-2.1 10.7-2.2 19-.1 10.1.2 12.1 2.3 16.7l2.3 5.3h112.5l-1.3-6.3c-1.7-7.7-3.2-25.6-4.3-49.7-.7-17.2-1-18.9-3.5-24.3-1.5-3.1-3.8-7-5-8.5s-4.1-5.4-6.4-8.6c-3.9-5.5-4.2-6.4-4.1-12 .1-3.4-.2-8-.6-10.4-.6-3.4-.4-4.6 1-6.2.9-1 2.3-1.6 2.9-1.4 1 .4 1.1-.8.4-5.6-.5-3.4-.7-6.4-.5-6.7.3-.2 1.5 0 2.6.7 2.8 1.4 2.8-.4.1-4.5-1.1-1.7-2-3.9-1.9-5 0-1.9.1-1.9.8-.1.9 2.3 1.6 1.4 2.5-3 .4-1.8 1.6-4 2.7-5 1.8-1.7 1.9-1.6 1.9 1.2.1 1.6.7 4 1.6 5.4 1.4 2.4 1.5 2.2 1-3.9l-.4-6.3 4.4.6c24.1 3.3 53.3.3 58.6-6.1 1.8-2.2 1.4-14.8-.8-20.2-3.6-9.1-17.1-17.4-43.3-26.8-5.2-1.8-9.7-3.6-9.9-3.8-.3-.2-.8-4.2-1.2-8.7-.4-4.6-1.1-11.3-1.5-15.1-.7-6.4-.6-6.7 1.4-6.7 3.5 0 6-1.8 8.1-6 2.2-4.3 2.6-11.2.9-15.7-2.4-6.5-13.3-14.5-17.4-12.9-.8.3-3-.3-4.7-1.3-5-2.8-15.4-5.9-24.1-7-4.3-.6-9.1-1.8-10.7-2.6-3.7-1.9-10.7-1.9-15.2 0-7.6 3.1-13.2 13.2-11.1 19.9.8 2.7.6 4.4-1.2 9.2-3.1 8.3-12.4 30.6-12.9 31.2-.3.2-4.7.7-9.7 1-8.8.5-9.2.4-8.5-1.4.4-1 1.6-5.1 2.7-8.9l1.9-7-.3 8.4-.4 8.5 4.2-13c6.7-20.6 6.7-28.2-.2-38.3-1.4-2-3.6-5.9-5-8.6-3.2-6.4-10.2-16.1-14.2-19.9-2.2-2.1-3.1-3.9-3.1-6.1 0-4.8-4.5-12.9-8.9-15.9-2.1-1.5-6.3-3.6-9.2-4.7-3-1.1-9.4-4-14.4-6.5-14.5-7.2-25.6-8-41.9-3l-7.6 2.4v-3c0-4.2-1.7-6.8-4.5-6.8-1.3 0-2.6.4-2.9.9M142 49.3c0 .7-.9 1.8-2 2.5-2.3 1.4-2.4 1.3-1-2.3 1-2.5 3-2.7 3-.2m105.8 101.8c-.2 1.8-1 2.5-3.1 2.7l-2.8.3 2.3-3.5c2.4-3.7 4.2-3.4 3.6.5m-31.2.6c-1.1 1.1-1.7-.4-.9-2.3.7-1.8.8-1.8 1.1-.1.2 1 .1 2.1-.2 2.4m13.1.8c.2 3.6-.1 4.5-1.8 5-1.1.4-2.3.5-2.6.2-.4-.5 3.2-9.7 3.9-9.7.2 0 .4 2 .5 4.5m27.3-2c0 1.8-.5 2.5-2 2.5-2 0-2-.1-.4-2.5.9-1.4 1.8-2.5 2-2.5s.4 1.1.4 2.5m6.2 56.7c2.9.9 3.7 1.5 3.2 2.7-1.2 2.9-2.2 7.5-3.4 14.8-.9 5.4-1.6 7.3-2.7 7.3-1.2 0-1.4-.7-.9-2.8 1.7-7.4 1.8-14.1.3-18.6-.9-2.5-1.3-4.6-1-4.6s2.3.5 4.5 1.2m4.8 52.1c0 .9.9 2.5 2 3.4 1.1 1 2 2.6 2 3.7 0 2.9 1.3 1.1 1.5-2.1.3-5 .5-5.4 1.5-4.8 2 1.2 1.1 8.3-1.4 11.2-1.3 1.5-2.6 2.6-2.9 2.3-1.8-1.9-5.3-12.6-4.9-15.1.3-2.2.7-2.7 1.3-1.8.5.8.9 2.2.9 3.2m-49 18.6c0 .5 1.4 2.2 3.1 3.8 5.5 5.1 5.5 5.5.3 15.1-11 20.4-18.9 34.2-19.6 34.2-1.1 0-1-1.4 1.1-11.8 2.8-13.5 12.2-42.2 13.8-42.2.7 0 1.3.4 1.3.9m76.4 68c6.2 10 8.6 15.3 8.6 18.7 0 2.5-2.9 9.4-4 9.4-.5 0-4.9-4.5-11.4-11.7l-2.9-3.2L287 348c.7-6 1.6-11 2.1-11 .4 0 3.3 4 6.3 8.9"/></svg>