<svg xmlns="http://www.w3.org/2000/svg" width="682.667" height="512" version="1.0" viewBox="0 0 512 384"><path d="M155.6 29.9c-.3.5-1.4.7-2.5.4s-3.2.7-5.4 2.6c-1.9 1.7-4.2 3.1-5.2 3.1s-2.3 1.5-3.2 4c-1.5 3.7-3.3 5.4-3.3 3 0-.6-.4-1-1-1-1.1 0-2.6 5.2-4.2 14.5-.9 5.1-2.1 8.3-4.5 11.6-3.8 5.3-4 6.4-1.6 7.8 1.5.8 1.5 1.3.5 3.6-1.6 3.4-1.5 4.8.2 4.2 1-.4 1.6 1.3 2.6 7.1.6 4.2 2.3 11 3.7 15l2.5 7.4-2.6 11.6c-2.4 10.9-4.7 30.7-3.7 31.7.2.3 1 0 1.8-.7.7-.6 1.5-.9 1.6-.7.2.2 1.5 2.3 3 4.5 1.5 2.3 3.9 5.2 5.4 6.5l2.6 2.4-1.6-3c-1.7-3.4-4.9-13.7-4.4-14.2.2-.2 2.5 2.9 5.1 6.8s4.9 6.9 5.2 6.7c.2-.3-.3-2.4-1.1-4.8s-1.4-4.5-1.2-4.7c.2-.1 3.2 1.9 6.7 4.6 3.5 2.8 6.8 4.7 7.3 4.4.9-.5 2.6 1.4 2.7 2.8 0 .4-1.1 1-2.5 1.3-1.4.4-2.5 1.3-2.5 2.1 0 .7-1 2.1-2.1 2.9l-2.2 1.5 2.6 4.3c1.4 2.4 3.2 5.2 4 6.2 1.2 1.7 1.2 2.3-.2 4.8-.9 1.5-2.9 3.2-4.4 3.8-6.6 2.2-25.7 24-25.7 29.2 0 1.1-2.4 4.5-5.4 7.6-2.9 3.1-6.1 7.2-7 9-4.1 7.9-3.7 17.9.8 25.1 2 3.1 3.7 4.4 7.7 5.8 3.9 1.3 5.8 2.8 7.7 5.6l2.6 3.8-1.3 16c-1.5 19.9-2.9 25.1-8.6 33.4-2.5 3.7-4.5 7.4-4.5 8.3s-1.6 3.3-3.6 5.3c-3.9 3.9-4.5 7.2-2.5 13.6.8 2.6.3 5.1-3 14.8-2.1 6.4-3.9 11.9-3.9 12.1s27.8.4 61.8.4h61.7l5.5-11.7c5.8-12.4 20.1-36.4 20.7-34.7.2.6-.7 8.7-2 18-1.5 10.8-2.2 18.9-1.8 22.4l.6 5.5 56.1.3 56.2.2-.8-3.7c-1.3-5.9-3-29.5-3-41.9 0-19-2.8-27.5-13.6-40.9-7.5-9.3-7.7-10-7.5-17.1.1-3.3-.3-7.3-1-8.7-1-2.3-.9-3.1 1.2-6.1 1.9-2.8 2.6-3.2 3.8-2.3 1.2 1 1.3.7.7-2.3-.3-1.9-.9-5.4-1.2-7.8l-.7-4.3 3.8 1.5c2.1.9 4 1.5 4.2 1.3s-.6-1.6-1.8-3.1c-1.9-2.4-2-3.1-.9-7.6 1.4-5.7 3.6-8.3 4.6-5.4 2.3 7.2 2.9 7 3.4-1.1.5-7.2.7-8 2.5-7.9 1.1.1 8.5.9 16.5 1.9 9.1 1 18.5 1.5 25.5 1.2 21.1-.9 24.1-2.8 23.1-13.9-1-10.5-2.9-14.2-10-19.2-7.8-5.6-15.7-9.5-31.4-15.7-7-2.7-13.4-5.3-14.2-5.8-1.9-1-2.6-5.5-3.4-22.3l-.6-13.6 3.2-.7c4.3-1 5.8-2.2 7.9-7 3.7-8 2.1-16.4-4.5-23.3-4.1-4.4-7.9-6.3-11.9-6.1-1.7.1-5-.7-7.2-1.8-5.8-3-16.4-6.1-23.7-6.9-3.4-.4-8.5-1.5-11.1-2.5-12.9-5-25.1.4-28.8 12.8-.9 3.3-1 5.2-.1 8.1 1.2 4 .2 10.3-2.2 13.2-.7.8-4.1 8.4-7.6 16.7l-6.4 15.3H251l3.3-4.6 3.2-4.6.6 3.4.6 3.3 1.5-3.5c.9-1.9 2.2-6.1 2.8-9.3 1.5-6.5 3.6-7.9 2.6-1.7-1.8 11.9-1.5 11.9 2.4.5 5.4-16 6.5-23.7 4.3-30.1-.9-2.7-2.8-6.7-4.3-8.9-1.4-2.2-3.9-6.5-5.4-9.5-3.6-6.9-5.8-10.1-11.8-16.8-3.2-3.5-4.8-6.1-4.8-8 0-3.4-3.4-10.9-6.3-14-2.3-2.5-9.4-6.4-13.7-7.6-1.4-.4-7.2-3.1-12.9-5.9l-10.4-5.2-11.1-.3c-9.4-.3-12.3 0-19.3 2.1-4.6 1.3-8.5 2.2-8.8 1.9s-.5-1.7-.5-3.2c0-4.2-5.6-8-7.4-5.1m-14 19.2c.7 1.1-2.2 4.7-3 3.8-.8-.7.5-4.9 1.5-4.9.4 0 1.1.5 1.5 1.1M249 150.2c0 4.7-1.2 6.7-4.2 7.3-1.6.4-3.2.4-3.5.1-.8-.8 5-9.5 6.5-9.6.6 0 1.2 1 1.2 2.2m-19.2 3.8c.1 4.6-.1 5-2.3 5h-2.4l2.1-5c1.1-2.8 2.2-5 2.3-5 .2 0 .3 2.2.3 5m-10.8-2c0 1.3-.5 1.8-1.4 1.4-.8-.3-1.2-1.2-.9-2 .8-2.1 2.3-1.7 2.3.6m21.4 3.4c-.4 1.7-1.3 2.6-2.6 2.6-2 0-1.8-1 1-4.3 1.9-2.2 2.5-1.6 1.6 1.7m-74.3 11.3c1.3 1.6 1.2 1.7-.3.4-1.7-1.3-2.2-2.1-1.4-2.1.2 0 1 .8 1.7 1.7m96.8 42.5c0 .7-.4 2.2-.8 3.2-.7 1.8-.9 1.6-1.9-1.2-1-2.9-.9-3.2.9-3.2 1 0 1.9.6 1.8 1.2m5.8 57.5c-.3 1-.5.2-.5-1.7s.2-2.7.5-1.8c.2 1 .2 2.6 0 3.5m-44.1 19.7 3.4 3.8-5.2 9.7c-6.7 12.4-17.7 31.3-18.9 32.5-3.6 3.7 4.2-29.8 11.8-50.3l1.6-4.4 1.9 2.4c1 1.3 3.4 4.1 5.4 6.3m69.2 71.8c2.3 3.5 5.1 8.5 6.2 11.2 2 4.3 2.1 5.3 1 9.2-.7 2.4-1.6 4.4-2 4.4-1.5 0-11.1-13.4-10.5-14.8.3-.7.5-4.7.5-8.8s.2-7.4.4-7.4 2.2 2.8 4.4 6.2"/></svg>