<svg xmlns="http://www.w3.org/2000/svg" width="682.667" height="512" version="1.0" viewBox="0 0 512 384"><path d="M147 33.7c-2.1 1.8-4.5 3.3-5.3 3.3-.7 0-2.2 1.9-3.2 4.2-1.2 3-1.9 3.8-2.2 2.5-1.2-4.8-3.4.1-5.5 12.7-.8 4.8-2.1 8.4-4.5 11.9-3.8 5.6-3.9 6.3-1.6 7.6 1.5.8 1.5 1.3.5 3.6-1.6 3.4-1.5 4.8.1 4.2 1-.4 1.7 1.4 2.5 6.9.7 4.1 2.3 10.9 3.8 15.3l2.6 7.9-2.6 10.9c-1.5 6.3-2.8 15.6-3.2 22.3-.6 10.5-.5 11.3.9 9.5.8-1.1 1.7-1.8 1.9-1.5s1.6 2.4 3.1 4.6c1.5 2.3 3.9 5.2 5.3 6.5l2.5 2.4-2.2-5c-2-4.7-4-11.5-3.4-11.5.2 0 2.4 3 5 6.6s4.9 6.4 5.1 6.1c.2-.2-.3-2.3-1.1-4.7s-1.4-4.4-1.3-4.6c.2-.1 3.2 2 6.7 4.6 3.6 2.7 6.8 4.7 7.2 4.5.3-.3 1.4.4 2.4 1.5 1.7 1.9 1.7 2 0 2-1 0-3.4 1.6-5.2 3.6l-3.3 3.6 2.7 4.9c1.4 2.7 3.2 5.4 3.9 6 1.8 1.5-1.9 7.5-5.2 8.3-5.9 1.5-25.4 23.7-25.4 28.9 0 1.1-2.5 4.6-5.5 7.8-7.2 7.5-9.7 13.2-9.7 21.6 0 5 .6 7.3 2.6 10.7 3.1 5.3 4 6 10 8.3 3.8 1.4 5.3 2.6 6.9 5.7 1.9 3.7 2 4.5.8 19.1-1.6 19.7-2.9 25.2-7.8 32.3-2.2 3.1-4.4 6.8-4.8 8.2s-2.3 4.1-4.2 6.1c-3.8 4-4.3 7.3-2.4 13.7.8 2.8.4 5-3 14.7-2.1 6.3-3.9 11.7-3.9 12s27.8.5 61.8.5l61.7-.1 7.3-14.7c4-8.1 9.7-18.5 12.7-23.2 5.3-8.2 5.5-8.4 5.5-5 0 1.9-.9 8.9-2 15.5s-2 15.5-2 19.7v7.8h22.1c17.6 0 21.9-.3 21.2-1.3-.5-.6-2.5-3.2-4.4-5.7l-3.5-4.5.6-9.5.5-9.5 5.1 8c6.5 10.3 7.8 13.6 7.1 18.5l-.5 4h65l-.6-2.7c-1.3-5.7-2.5-23.2-2.6-34.5 0-14.9-1.5-26-4.4-32.3-1.3-2.8-4.9-8.4-8.2-12.5-9.3-11.8-9.7-12.5-8.9-17.9.4-3.4.2-5.9-.9-8.5-1.5-3.6-1.5-3.9 1-7.7 2.2-3.5 2.7-3.9 4.1-2.7 1.5 1.1 1.6 1 .9-1.2-1.1-4-1.8-13.6-.9-12.5.4.5 1.5 1.2 2.3 1.4s2.4.6 3.5.9c1.8.5 1.8.3-.4-2.1-2-2.2-2.3-3.2-1.7-6.9.9-5.5 3.4-9.7 4.7-7.7.5.8.9 2.4.9 3.5 0 1.2.6 2.6 1.3 3.2.9.8 1.2-.7 1.2-6.8 0-4.4.4-8.2.8-8.6.3-.4 3.7-.2 7.4.4 13.7 2.3 38.7 3.5 47.2 2.3 9.3-1.2 11.8-2.3 13-5.4s-.7-15.7-2.9-19.2c-3.7-6-13.2-11.6-36.5-21.5l-18-7.6-.6-5c-.4-2.7-.8-11-1-18.4l-.4-13.5 2.5-.3c5.7-.8 10-7.8 10-16.2 0-10.9-9.2-21-18.3-20.2-1.1.1-4.7-1.1-8-2.7-6.8-3.2-16.9-5.9-25-6.7-2.8-.3-7.3-1.4-9.9-2.5-9.3-3.8-19-1.4-25.2 6.4-2.3 2.9-3.1 5-3.4 9.6-.2 3.2 0 6.7.6 7.7 1 1.9.6 3.6-2.9 10.9-1.1 2.2-4.8 10.5-8.3 18.5l-6.3 14.5-11.6.3c-6.4.1-11.7 0-11.7-.3 0-.5 3.7-5.4 8.1-10.8.3-.5.5 1.1.3 3.4-.3 3.9-.2 4.1 1 2.4.7-1.1 2.1-4.7 3.1-8 3.1-10.7 3.5-11.5 3.1-6-.3 2.7-.7 6.5-1 8.4-1 6.1 1.1 1.9 5.4-11.3 3.1-9.5 4.3-14.7 4.4-19.5.1-6.2-.2-7.3-6.3-19.1-6.5-12.8-9.6-17.4-16.1-24.5-2.7-2.9-3.9-5.3-4.4-8.5-1.5-9.7-8.8-17-20.5-20.4-2.9-.8-7.5-2.9-10.2-4.6-12.3-7.5-26.6-9.1-42.3-4.5-4.7 1.4-8.8 2.5-9.1 2.5s-.5-1.2-.5-2.6c0-5-1.6-6.4-7.1-6.2-4.1.2-5.8.9-8.9 3.5m-5.5 15.4c.7 1-2.4 5.3-3.2 4.5-.2-.2-.1-1.5.3-3 .6-2.7 1.8-3.3 2.9-1.5M248 148.7c0 .5-.4 2.5-.9 4.5-.5 2.2-.5 3.6 0 3.2 1.1-.6 1.2.7.1 2.2-.5.9-16.2 2.8-16.2 2.1 0-.1 2.2-2.6 4.9-5.5l5-5.4-1 3.7c-1.5 5.3-.7 5.1 2.7-.5 2.5-4.3 5.5-6.6 5.4-4.3m-30 2.8c0 1.4-.4 2.5-1 2.5-1.1 0-1.4-3.3-.3-4.3 1.1-1.1 1.3-.8 1.3 1.8m10.6 8.1c-.3.8-1.3 1.4-2.2 1.4-1.2 0-1.5-.5-.9-2.3.3-1.2.8-3.2 1-4.4s.7-2.8 1.2-3.5c.9-1.5 1.8 6.5.9 8.8m-62.5 7.1c1.3 1.6 1.2 1.7-.3.4-1.7-1.3-2.2-2.1-1.4-2.1.2 0 1 .8 1.7 1.7m96.2 42.9c.9.9-.4 3.5-1.4 2.8-.5-.3-.9-1.2-.9-2 0-1.4 1.2-1.9 2.3-.8m19.4 63.6c-.3.8-.6.5-.6-.6-.1-1.1.2-1.7.5-1.3.3.3.4 1.2.1 1.9m-61.2 8.8c.9 1.6 2 3 2.5 3s1.8 1.3 2.9 2.9l2.1 2.9-11.1 19.7c-6 10.9-11.6 20.7-12.4 21.9-1.5 2-1.5 2-1.5-1 0-5.4 2.1-14.5 7-30.9 7.2-23.9 7.5-24.3 10.5-18.5"/></svg>