<svg xmlns="http://www.w3.org/2000/svg" width="682.667" height="512" version="1.0" viewBox="0 0 512 384"><path d="M154.7 31.7c-1.1 1.1-1.7 1.3-1.7.5 0-1.9-1.4-1.4-6.3 2.3-2.6 2-4.9 3.4-5.3 3.3-.3-.2-1.7 1.7-3 4.2s-2.3 3.7-2.4 2.7c0-2.6-1.9-2-3.1 1-.5 1.4-1.5 6-2.1 10.2-.9 5.9-2.1 8.9-5 13.5-3.8 5.9-4 7.6-1.1 7.6 1 0 1.3.5.8 1.7-.3 1-.9 3-1.2 4.6-.5 2.2-.3 2.6 1.1 2.1 1.2-.5 1.6 0 1.6 2.2 0 4.1 2.7 15 5.1 21l2 5.1-3.1 10.9c-3 10.5-6.2 30.1-5.3 31.7.3.4 1 .3 1.7-.2.9-.8 2.3.6 5.5 5.5 2.3 3.7 4.4 6.5 4.6 6.2.2-.2-.5-3.2-1.5-6.7-1.1-3.4-2-7.7-2-9.4.1-3.1.2-3 1.9 1.4 2.2 5.7 5.3 10.9 6.4 10.9.5 0 .6-.8.3-1.8-.3-.9-.8-3-1.2-4.7l-.7-3 4.9 4.4c2.7 2.4 6.3 5 8.1 5.7 1.7.7 3.3 1.9 3.5 2.6.6 1.6-1.5 5.6-3.8 7.2-1.7 1.3-1.5 1.7 2.2 7.7s3.9 6.6 2.6 8.9c-.8 1.4-3.2 3.3-5.4 4.4-7.3 3.4-24.8 23.5-24.8 28.3 0 .8-2.9 4.8-6.4 8.9-7 8.2-9.2 13.6-8.9 21.7.4 9.3 5.3 15.7 14.3 18.6 2.6.8 4 2.2 5.5 5.2 1.9 4 1.9 4.5.3 21.9-1.7 18.7-3 23.4-8.2 30.3-1.4 1.9-3.1 4.9-3.7 6.8-.7 1.9-2.7 5-4.6 7-3.8 4-4.5 7.8-2.4 13.2.9 2.4.6 4.5-2.3 13-1.9 5.6-3.7 11-4.1 11.9-.7 1.7 2.6 1.8 61.2 1.8h62l4.2-9.2c2.3-5.1 7.6-15 11.9-22 9.2-15.4 9.5-15 5.7 8.2-1.6 9.5-2.4 17.7-2 19.6l.6 3.4h44.1l-4.7-5.5c-4.5-5.2-4.7-5.6-3.9-9.7.4-2.4.6-6.7.5-9.7-.2-3.5.1-5.1.7-4.7 1.4.8 10.5 16.1 12.2 20.3.7 1.8 1 4.6.8 6.3l-.5 3h64l-.7-4.3c-.3-2.3-1.1-15-1.6-28.1-.6-13.2-1.5-25.9-2.1-28.4-1.4-6.4-4.3-11.6-12-21.6l-6.9-8.9-.2-7.3c-.4-15.2-.4-15.9 1.2-16 3.4-.2 3.8-.5 4.3-3 .2-1.4-.2-4.9-.9-7.8-1.8-6.7-1.8-6.7 1.4-5 4.1 2.1 4.6 1.7 2.3-2-2.1-3.3-2.1-3.5-.4-8.2 2.2-5.8 3.9-6.6 4.7-2 .4 1.8 1.2 3.9 1.9 4.4.9.8 1.1-1.1.8-8.5l-.3-9.5 3.8.5c23.5 3.6 51.8 4.8 59.6 2.7 2.1-.6 4.3-2 4.9-3.2 1.3-2.5.5-14.8-1.2-18.1-3.5-6.8-11.5-11.7-36.4-22.3l-19-8.1-.6-5.4c-.4-3-.9-11.4-1.3-18.7-.5-12-.4-13.2 1.2-13.2 3.6 0 8-3.8 9.7-8.4 5-13.1-3.3-28.4-15.8-29-2.3-.1-6.7-1.4-9.8-2.9-5.8-2.8-21-6.6-26.5-6.7-1.8 0-5.1-.9-7.5-2-9-4.1-20.7-1.1-25.9 6.7-2.2 3.2-2.5 4.8-2.6 13.6-.2 8.5-.5 10.5-2.7 14.5-1.4 2.6-5.1 10.8-8.2 18.2-3.2 7.4-6.2 14-6.7 14.7-1 1.3-26.8 1.9-26.8.6 0-.5 2.3-3.3 5.1-6.3l5-5.5-.7 3.5c-1.2 6.2 2 1.8 4.6-6.2 1.2-4 2.6-8.2 3.1-9.3l.8-2v2c0 1.1-.6 5.1-1.3 8.8s-1 6.4-.6 6c.5-.4 2.9-6.2 5.5-12.8 4.4-11 4.8-12.7 4.9-21l.1-9-6.2-12.5c-4.3-8.9-7.9-14.4-12.1-19.2-4.7-5.2-6.1-7.5-6.6-11-1.5-9.5-8.9-17.1-20.2-20.4-3-.8-8-3.1-11.1-5-8.7-5.2-15.3-6.9-25.8-6.7-7.9.1-16.6 1.9-23.7 4.8-1.5.6-1.8.2-1.8-2.4 0-3.2-2.9-7.1-5.3-7.1-.7 0-2 .8-3 1.7m-13.3 20.4c-.3.5-1.4 1.3-2.4 1.9-1.8.9-1.8.8-.8-2 .8-2.5 1.3-2.8 2.4-1.9.8.6 1.1 1.5.8 2M244.6 152c-.3 1.1-.9 3-1.2 4.1-.4 1.4-.2 1.9.5 1.5.8-.5.8 0-.1 1.8-1.1 2.5-1.5 2.6-8.9 2.6-4.2 0-8.5.3-9.5.7-1.2.4-1.5.2-1.2-.8.3-.8.9-1.4 1.4-1.4s2.3-1 4.1-2.3c1.7-1.2 3.6-2.2 4.2-2.2s1.7-1.2 2.6-2.8l1.6-2.7-.6 3.5c-.4 1.9-.9 4.4-1.2 5.5-.4 1.6-.2 1.5 1.3-.5 6.3-9 8-10.8 7-7m-82.5 15.7c1.3 1.6 1.2 1.7-.3.4-1-.7-1.8-1.5-1.8-1.7 0-.8.8-.3 2.1 1.3m99.5 42.1c.6.4.8 1.5.5 2.5-.6 1.7-.8 1.6-1.9-.7-1.2-2.6-.7-3.2 1.4-1.8m-35.3 79c1.8 2 1.7 2.3-4.4 13.4-3.4 6.2-8.9 16-12.3 21.8-5.8 9.9-6.1 10.3-6.4 7.2-.4-4 3.6-20.2 9.5-38.6l4.5-13.9 3.6 4c2.1 2.2 4.5 5 5.5 6.1"/></svg>