<svg xmlns="http://www.w3.org/2000/svg" width="682.667" height="512" version="1.0" viewBox="0 0 512 384"><path d="M155.1 31.9c-.7.5-2.1.6-3.1.4-1-.3-3.2.8-5.3 2.6-1.9 1.7-4.1 3.1-4.9 3.1s-2.3 1.8-3.3 4c-1.6 3.6-1.9 3.8-3.1 2.2-1.1-1.6-1.3-1.5-2.3 1.1-.6 1.6-1.8 6.6-2.6 11.1-1 6.2-2.3 9.6-4.9 13.6-2.7 4-3.3 5.7-2.5 6.7.6.7 1.6 1 2.2.6.7-.4.8 0 .3 1.3-.4 1-1 3.1-1.3 4.7-.5 2.2-.3 2.6 1.1 2.1 1.3-.5 1.6.1 1.6 2.7 0 4.7 3.8 19.9 5.6 22.7 1.3 2.1 1.2 3.3-2.1 14.2-3.4 11.2-6.5 25.9-6.5 30.5 0 1.5.3 1.6 1.2.7 1.5-1.5 2.8-1.5 2.8-.1s7.1 13.2 7.6 12.7c.2-.2-.3-2.4-1-5-.8-2.5-1.7-7.2-2-10.4l-.6-5.9 1.8 5.1c1 2.8 2.8 6.6 4.1 8.5l2.3 3.4-.6-5-.6-5 5.3 5.3c4.8 4.7 7.8 6.8 6.2 4.2-1.5-2.5.6-.6 3.5 3l3.1 4-2.5 2.5-2.6 2.6 2.4 4.8c1.4 2.6 3.1 5.3 4 6 1.4 1.2 1.4 1.6 0 4.2-.8 1.6-2.9 3.5-4.7 4.3-7.4 3-25.7 23.6-25.7 28.9 0 1.1-2.5 4.6-5.5 7.9-6.4 6.9-8.2 10.1-9.4 16.3-2.1 11.1 2.7 20.8 12 24.1 4.1 1.5 5.5 2.6 7.2 5.9 2 3.9 2 4.5.8 19.1-1.6 19.5-2.9 24.8-7.9 32.3-2.2 3.3-4.6 7.6-5.2 9.5s-2.2 4.2-3.5 5c-3.4 2.2-4.5 7-2.9 12.4 1.1 4 1 5-2.1 14-1.8 5.3-3.6 10.5-4 11.4-.7 1.7 2.6 1.8 61.4 1.8h62l2.3-5.3c4.5-10.6 19.9-37.7 21.5-37.7.7 0-.2 7.8-2.8 23.8-1.1 6.9-1.7 13.8-1.3 15.7l.6 3.5h44l-4.7-5.5c-4-4.7-4.6-5.9-4-8.2.4-1.6.7-5.8.6-9.5-.1-3.8.1-6.8.3-6.8.7 0 9.5 14.6 11.1 18.4.8 1.9 1.5 5.4 1.5 7.6v4h64.2l-.5-2.3c-.8-3.3-1.7-15.8-2.7-37.7-1.1-24.6-2.6-29.4-13.2-42.2-3.3-4-3.9-5.3-3.3-7.7.5-2.6-.2-10.6-2.1-23.6-.6-4-.6-4 1.4-2.2 3.2 2.9 4.5 1.2 3.9-4.7-.3-2.8-.9-6.5-1.3-8.1-.5-2.5-.4-2.8.7-1.8.7.7 1.9 1.3 2.7 1.3.9 0 .7-.9-.9-3.1-2-2.8-2.1-3.4-.9-7.2 1.9-6.5 5-9.2 5-4.4 0 1.3.6 3.1 1.3 4.1 1.1 1.5 1.3.4 1.5-7.1.1-4.8.6-9.1 1.1-9.6s2.6-.4 4.7.2c7.3 1.9 34.9 4.3 46.4 3.9 9.2-.2 12.2-.7 14.4-2.2 2.8-1.8 2.9-1.9 2.2-9.4-.4-4.1-1.3-8.7-2.1-10.2-3.3-6.5-13.2-12.3-39.5-23.5-7.4-3.1-14-6.1-14.7-6.7-1.3-1-2-7.3-2.8-25.6-.4-10.5-.3-12.2 1.1-12.2 3.2 0 7.5-3.2 9.4-7.1 2.5-4.7 3-14.2 1-18-4.2-7.8-12.4-13.8-17.4-12.5-1.6.4-3.9-.3-6.9-1.9-5-2.8-22.1-7.5-27.2-7.5-1.9 0-5.5-.9-8.2-2.1-14.3-6.2-29.9 3.1-29.4 17.4.4 10.8.3 12.5-1.5 15.8-1.1 1.9-5.1 10.6-8.9 19.4l-7 16-17.3.3c-9.4.1-17.2 0-17.2-.4 0-.6 6.2-9.4 6.6-9.4.1 0 .1 2 0 4.4-.4 5.3.7 5.2 4.6-.4 3.3-4.7 4.8-5.1 4.9-1.3 0 2.3.7 1.5 3.5-4.2 1.9-3.8 3.4-7.9 3.4-9s.5-2.7 1-3.5c1.5-2.4 1.3 2.2-.6 9.2-1.6 6.3-1.2 9.1.6 4.2.6-1.6 3.2-8.1 5.7-14.4 3.9-9.8 4.6-12.5 4.7-18.5 0-6.3-.5-8.1-4.8-17.8-5-11-10.2-19.4-16-25.7-2.3-2.5-3.7-5.2-4.5-9.4-2.1-9.4-8.5-15.3-20.9-18.9-2.9-.9-6.6-2.5-8.2-3.7-1.6-1.1-5.5-3.3-8.7-4.7-5.2-2.5-6.9-2.7-17.8-2.8-10.4 0-13 .3-19.2 2.6l-7.3 2.5v-2.1c0-2.5-3.6-7.5-5.3-7.5-.7 0-1.8.4-2.6.9m-15.4 21.8c-2.1 2.1-2.7 1.5-1.6-1.6.7-1.9 1.2-2.2 2.1-1.3s.8 1.6-.5 2.9m96.1 103.2c-1.2 4.6-3.4 6.1-9.1 6.1l-3.2-.1 2.7-2.3c1.5-1.3 2.4-2.7 2-3.2-.4-.4-.2-.4.5 0 .6.3 1.5.1 1.9-.5.5-.8.9-.8 1.4.1.6.9 1.3.3 2.5-1.9 2.2-4.3 2.7-3.6 1.3 1.8M159.5 168c.3.5.1 1-.4 1-.6 0-1.1-.5-1.1-1 0-.6.2-1 .4-1 .3 0 .8.4 1.1 1m102.1 40.8c.6.4.8 1.6.4 2.7-.7 1.9-.7 1.9-1.8-.2-1.8-3.3-1.2-4.3 1.4-2.5m84.9 55.2c.3.5.1 1-.4 1-.6 0-1.1-.5-1.1-1 0-.6.2-1 .4-1 .3 0 .8.4 1.1 1m-126.4 18.2c.7 1.3 2.8 3.7 4.8 5.4l3.6 3.1-2.9 5.4c-5.8 10.8-19.5 34.5-21.1 36.4-1.5 1.9-1.6 1.7-1-3.8.3-3.3 1.5-9.3 2.6-13.5 2.1-8.2 9.8-33.2 10.6-34.5s2.2-.7 3.4 1.5"/></svg>