<svg xmlns="http://www.w3.org/2000/svg" width="682.667" height="512" version="1.0" viewBox="0 0 512 384"><path d="M155.1 32.9c-.7.5-2.1.7-3 .4-.9-.2-3.5 1-5.9 2.6-2.3 1.7-4.7 3.1-5.2 3.1-.6 0-2 2-3.1 4.5-2 4.6-3.2 5.8-2.7 2.9.2-1-.2-1.9-.9-2.1-1.4-.5-2.8 4.3-4.2 14.1-.8 5.2-1.9 8.2-4.7 12.4-3.6 5.5-3.7 5.6-1.6 7 1.9 1.2 1.9 1.6.6 4.7-1.2 3-1.2 3.5 0 4.2.8.5 2.2 4.4 3.1 8.8s2.4 9.8 3.2 12c2.6 7 2.5 8.1-1 19.6-3 10-6.7 25.8-6.7 29 0 .8.5.8 1.4-.1 1.2-1 2-.1 4.5 4.8 1.7 3.4 3.5 6.3 4.1 6.7 1.2.8 1.3 1.3-.5-7-.8-3.9-1.4-8.4-1.4-10 .1-2.8.2-2.8 1.4 1.1 1.4 4.5 5.3 12.4 6.1 12.4.3 0 .2-1.6-.2-3.5-.8-4.4.3-4.4 4.7.1 1.8 2 4.3 4 5.4 4.6 1.6.9 1.8.8.8-.3-.7-.7-1.3-1.6-1.3-2.1 0-.4 1.8 1.2 4 3.6 4.5 4.9 4.9 6.8 1.9 8.9-2 1.5-2 1.6-.3 4.8.9 1.9 2.6 4.7 3.6 6.2 1.7 2.4 1.8 3.2.8 5.8-.8 1.9-2.6 3.5-4.7 4.4-7.5 3.1-25.3 23.5-25.3 28.9 0 1.1-2.5 4.5-5.5 7.7-7.2 7.5-9.9 13.5-9.7 21.6.1 9.2 3.4 14.3 11.7 18.3 9.6 4.6 10.1 6.3 8.5 26-1.5 18.7-3 24.9-7.5 31.1-1.9 2.7-4.2 6.5-5 8.6-.9 2.1-3 5.2-4.7 7-3.3 3.4-4 8.1-1.9 13.5.9 2.3.4 4.7-2.8 13.8l-3.8 11h123.3l6.7-13.2c3.6-7.3 9.1-17.1 12.1-21.8 6.5-10 6.5-10.1 3.5 12.1-1.3 9.2-1.9 17.1-1.5 19.2l.7 3.7h44.1l-4.1-4.9c-4.1-4.9-4.2-5.1-4.7-14.1-.3-7-.2-9.1.8-8.8.6.2 3.4 4.2 6 8.9 4.4 7.6 4.9 8.9 4.6 13.7l-.3 5.2h64.7l-.5-2.7c-.3-1.6-1.1-13.2-1.7-25.8-1.7-35.6-2.6-39.6-12.1-52.1-4.3-5.7-4.6-6.6-4.2-10.6.3-2.3-.2-8.7-1.1-14-2-12-2-12.6-.4-11 1.8 1.8 3.5 1.5 4.1-.7.5-2-.6-9.1-1.9-12.4-.6-1.6-.3-1.7 2.2-1.1l2.8.7-2.3-3.2c-2-2.8-2.1-3.5-1-6.9 1.9-6.1 4.9-8.5 4.9-3.9 0 1.3.6 3.2 1.4 4.2 1.2 1.6 1.4.7 1.8-7.8.2-5.3.8-10.1 1.3-10.6.6-.5 5.4-.1 11.6 1 24 4.1 49.6 5.2 53.7 2.3 2.5-1.8 2.9-6.9 1.1-15.3-1.7-8.2-6.4-11.4-37.4-25.4-21-9.6-19-6.4-19.8-31.5l-.5-16.2h2.5c3.5 0 8.9-5.7 10.3-11 3.2-12-5.8-26-16.6-26-2.5 0-5.9-1-8.5-2.4-5.3-2.9-17.2-6.3-25.4-7.2-3.3-.4-8.2-1.5-10.8-2.5-8.8-3.5-16.6-2.3-22.5 3.4-4.8 4.5-6.4 8.2-6.3 14.1.1 2.8.1 6.6.2 8.5 0 1.9-1.3 5.8-2.9 9-1.6 3.1-5.6 11.7-8.7 19.1-3.2 7.4-6.2 14.1-6.8 14.7-.7.9-4.7 1.3-13.8 1.3-11 0-12.8-.2-12.3-1.5.4-.8 1-1.2 1.5-.9s.8.2.7-.3c-.2-.5 1.3-2.5 3.3-4.6l3.5-3.6-.4 2.9c-.2 1.7-.2 3 .2 3 1 0 4.3-7.3 6.2-13.5 2-6.9 3.2-4.9 1.4 2.4-3.1 12.2-1.7 10.4 5.1-6.4 4.7-11.6 5.2-13.8 5.3-20.5 0-6.5-.4-8.3-3.2-13.7-1.8-3.4-3.2-6.6-3.2-7.1 0-2.2-7.7-14.4-13.1-20.7-4.1-5-5.9-7.8-5.9-9.8 0-7.5-8.1-16.2-17.7-19.2-3.2-.9-8.7-3.4-12.3-5.5-15-8.7-28.4-9.9-45.9-3.9-6.9 2.4-6.8 2.4-6.8-.8 0-1.6-1-3.4-2.3-4.5-2.5-2-3-2.1-4.9-.9m-15.4 21.8c-2.1 2.2-3.2 1.1-1.7-1.7.9-1.6 1.5-1.9 2.3-1.1s.7 1.6-.6 2.8m96.2 101.9c-1.4 4.9-1.6 5.1-6.1 5.9-3.1.6-3.8.4-3.8-.8 0-.9.9-1.9 2-2.2 1.1-.4 1.8-1 1.5-1.5s.3-.7 1.5-.5c1.3.3 2.5-.5 3.7-2.5 2.2-3.8 2.5-3.3 1.2 1.6m6.7-1.2c-.3 1.3-.1 2.6.4 2.8 2.3.7-1.6 4-4.4 3.6l-2.9-.3 3.4-4.2c4-4.9 4.3-5.1 3.5-1.9M158.3 170c-.6.6-3.3-3-3.3-4.4 0-.6.9 0 2 1.4 1 1.4 1.6 2.7 1.3 3m103.9 36.9c.4.3.1 1.7-.7 3l-1.3 2.5-1.6-3.2c-.9-1.7-1.6-3.4-1.6-3.7 0-.7 4.1.4 5.2 1.4M346 264c0 .5-.2 1-.4 1-.3 0-.8-.5-1.1-1-.3-.6-.1-1 .4-1 .6 0 1.1.4 1.1 1m-121.4 34.3c-2.1 4-7.7 13.9-12.5 22.1-7.8 13.4-8.6 14.6-8.9 11.7-.4-3.9 3.6-20.2 9.5-38.4l4.4-13.8 5.7 5.6 5.7 5.7z"/></svg>