<svg xmlns="http://www.w3.org/2000/svg" width="682.667" height="512" version="1.0" viewBox="0 0 512 384"><path d="M155 33c-.8.5-2.2.7-3.1.5-.9-.3-3.4.8-5.7 2.5-2.3 1.6-4.7 3-5.2 3-.6 0-2 2-3.1 4.5-2 4.6-3.2 5.8-2.7 2.9.2-1-.2-1.9-.9-2.1-1.4-.5-2.8 4.3-4.2 14.1-.8 5.2-1.9 8.2-4.7 12.4-3.6 5.5-3.7 5.6-1.6 7 1.9 1.2 1.9 1.6.6 4.7-1.7 4.2-1.7 4.5 0 4.5.8 0 1.7 1.4 2.1 3.2 1.7 8.9 3.9 17.6 5.1 20 2 3.9 1.8 5.6-2 17.6-1.9 5.9-3.9 13.6-4.5 17.2-.7 3.6-1.4 7.8-1.7 9.3-.5 2.5-.3 2.8 1.3 2.3s2.3.2 3.7 3.2c1 2.1 2.8 5.2 4.1 6.8l2.4 2.9-1.4-5.5c-.7-3-1.6-8-1.9-11-.6-5.8-.1-5.3 2.8 3.1.9 2.5 2.3 5.4 3.2 6.5 1.5 1.8 1.5 1.7 1-1.3-.8-4.7 1.2-5.1 4.8-1.1 1.7 1.9 4 4.1 5 4.9 1.8 1.3 1.9 1.3.6-1.1-.8-1.5.3-.7 2.8 2 4.6 5.1 5.1 7.2 2.1 9.3-2 1.5-2 1.6-.3 4.8.9 1.9 2.6 4.7 3.6 6.2 1.7 2.4 1.8 3.2.8 5.8-.8 1.9-2.6 3.5-4.7 4.4-7.5 3.1-25.3 23.5-25.3 28.9 0 1.1-2.5 4.5-5.5 7.7-7.2 7.5-9.9 13.5-9.7 21.6.1 10 4.1 15.7 13.6 19.3 2.8 1.1 4.5 2.6 5.9 5.4 1.9 3.7 2 4.5.8 18.8-1.6 20-2.7 25.1-6.8 30.7-1.8 2.5-4.2 6.6-5.4 9.1-1.1 2.5-3.4 5.9-5.1 7.7-3.3 3.4-4 8.1-1.9 13.5.9 2.3.4 4.7-2.8 13.8l-3.8 11h123.5l5-10.4c4.6-9.6 11.3-21.3 16.8-29.6 2.4-3.4 2.4-3.4 2.4-.9 0 1.5-.9 9.3-2 17.5-1.2 8.6-1.8 16.7-1.4 19.1l.6 4.3h44.1l-2.7-3.3c-5.1-6.2-5.4-7.2-6-15.9-.3-4.9-.2-8.8.2-8.8 1 0 7.8 10.7 9.8 15.5 1 2.5 1.4 5.5 1.1 8.2l-.5 4.3h65l-.6-2.3c-.3-1.2-1-11.6-1.6-23.2-1.9-38.8-2.9-43-12.7-55.7-4.3-5.6-4.7-6.7-4.8-11.8-.1-3-.5-9.4-.9-14.3-.8-8.1-.7-8.7.9-8.1 3.5 1.4 4.6-4.4 2.1-11.4-1.3-3.7-.7-6.7.9-4.2.3.5 1.3 1 2.1 1 1.1 0 1-.7-.7-2.9-1.9-2.6-2-3.3-.9-6.7 2-6.3 5-8.7 5-4.1 0 1.3.6 3.2 1.4 4.3 1.3 1.7 1.5.9 1.5-7.2.1-11.6.5-12.7 4.5-12 15.2 2.7 32.5 4.8 44.8 5.3 13 .5 15 .4 17.4-1.2 2.6-1.7 2.7-1.9 2-9.2-1.1-13.1-3.9-15.6-30.9-27.9-25.4-11.6-25-11.4-25.8-15.4-.4-1.9-.9-10.8-1.2-19.8l-.5-16.2h2.5c5.2 0 11.3-9.2 11.3-17 0-4.7-2-9.6-5.5-13.7-3.7-4.3-10-7.5-13.2-6.7-1 .3-4.2-.7-7.1-2.1-5.6-2.8-22.6-7.5-27.3-7.5-1.6 0-5.1-.9-7.9-2-5.6-2.2-13.3-2.6-17.7-.9-3.4 1.3-9 6.4-10.9 10.2-1.4 2.7-1.6 5.1-1.4 15.9.1 3-.5 5.6-1.7 7.4-1 1.5-5.2 10.5-9.3 19.9l-7.5 17-16.8.3-16.8.2 3.8-4.9c2-2.8 3.8-4.9 4-4.8.1.2-.2 1.8-.7 3.6-.8 2.9-.7 3.1.7 1.9 1.5-1.2 1.5-1.1.4 1.2-.7 1.5.9.2 3.9-2.9 5-5.5 5-5.5 5-2.5.1 2.7.2 2.8 1.5 1.1.7-1.1 2.4-5.2 3.7-9.3 1.2-4.1 2.5-7.4 2.9-7.4.5 0 .3 1.6-1.7 12.5-.4 2.2-.4 3.8-.1 3.5s2.6-5.9 5.2-12.5c7.5-19.4 8-25.8 2.4-36.7-1.6-3.1-2.9-6.2-2.9-6.8 0-2.2-7.9-14.6-13.4-21-3.9-4.6-5.6-7.3-5.6-9.3 0-7.5-8-16.1-17.6-19.1-3.3-1-8.4-3.2-11.4-5-15.6-9.1-29.5-10.4-46.7-4.5-6.2 2.1-7.3 1.9-7.3-1.6 0-1.3-1-3.1-2.2-3.9-2.6-1.9-2.8-1.9-4.8-.6m-15.3 21.7c-2.1 2.2-3.2 1.1-1.7-1.7.9-1.6 1.5-1.9 2.3-1.1s.7 1.6-.6 2.8m96 103.3c-1.2 4.3-1.4 4.5-5.5 4.8-2.3.1-4.2-.2-4.2-.7 0-1.4 5.1-5.2 6.1-4.5.5.3 1.7-.8 2.7-2.5 2.2-3.9 2.6-2.8.9 2.9M158 168.1c.6 1 .7 1.9.2 1.9s-1.4-1.2-2-2.6c-1.4-2.9.2-2.4 1.8.7m104.5 38.1c.1.2-.3 1.6-1 3.2l-1.3 3-2.1-4.1-2.1-4.2 3.2.9c1.7.5 3.2 1.1 3.3 1.2m82.5 57.9c0 .6-.4.7-1 .4-.5-.3-1-1.1-1-1.6 0-.6.5-.7 1-.4.6.3 1 1.1 1 1.6m-121.7 22 5.2 5-3.9 7.2c-2.1 4-7.7 13.9-12.5 22.1-7.8 13.4-8.6 14.6-8.9 11.7-.4-3.8 3.5-19.7 9-37 4.2-13.1 4.6-14.1 5.5-14.1.2 0 2.8 2.3 5.6 5.1"/></svg>