<svg xmlns="http://www.w3.org/2000/svg" width="682.667" height="512" version="1.0" viewBox="0 0 512 384"><path d="M142.3 23.7c-2.4 1.8-4.8 3.3-5.4 3.3-.5 0-1.7 1.6-2.5 3.5-1.1 2.7-1.9 3.4-3.7 3.2-2-.2-2.3.5-4 9.8-1.2 7-2.9 12.2-5.5 17.2-3.5 7-3.6 7.3-1.8 8.6 1.7 1.2 1.8 1.8.7 4.8-1 2.8-.9 3.6.3 4.4.8.6 2 4 2.6 7.6.6 3.5 2.3 10.4 3.7 15.2l2.6 8.8-3.2 11.4c-3.3 11.8-6.1 25.9-6.1 30.7 0 2.1.4 2.5 2 2.1 1.1-.3 2-.1 2 .3 0 1.5 6.1 11.6 6.7 11 .3-.2.1-2.7-.5-5.3s-1.3-6.8-1.6-9.3l-.6-4.5 3.4 7.2c3.6 7.7 5.6 9.4 4.8 4.3-.5-3.8.7-3.8 4.4.1 1.6 1.7 4.6 3.9 6.6 5 6 3.1 7.4 7.3 3.6 10.9l-2.2 2 2.2 4.3c1.1 2.3 2.9 5.4 3.9 6.9 1.6 2.6 1.7 3 .1 5.5-.9 1.6-2.9 3.4-4.5 4.2-7.6 3.6-26.3 25.7-26.3 31 0 1.1-2.5 4.8-5.6 8.3s-6.7 8.7-8.1 11.6c-2.2 4.6-2.5 6.4-2.1 13.2.4 10.1 3.5 15.2 11.7 19.2 8.2 3.9 9.1 5.7 9.2 17.5 0 14-1.8 31.6-4 37.2-1 2.7-3 6.4-4.4 8.2-1.4 1.9-3.4 5.4-4.5 7.9s-3.4 6.1-5.2 8c-3.1 3.3-3.2 3.7-2.6 9.5 1 8.9 1 9.8.2 12.7l-.8 2.8h129.8l2.3-4.7c3.2-6.7 13-23.1 14.1-23.8 1.3-.8 1.2 2-.5 14.5-.8 5.8-1.5 11.3-1.5 12.2 0 1.7 1.5 1.8 18.3 1.8h18.4l-.3-6c-.1-3.3.2-6.3.7-6.6.9-.5 6.4 7.4 7.5 10.8.5 1.7 2.5 1.8 34.1 1.8h33.6l-.7-22.3c-1-31.1-2.3-35.9-13.7-50.9L344 303l-.5-9.2c-.3-5.1-.8-11.2-1-13.6-.4-3.9-.3-4.2 2-4.2 1.8 0 2.6-.7 3.1-2.6.6-2.5.1-8.6-1.2-13.3-.7-2.2-.5-2.3 2.5-1.6l3.3.7-1.7-3.2c-1.8-3.4-1.4-6.9 1.1-10.8 1.9-2.9 3.4-2.8 3.4.1 0 1.3.6 3.2 1.4 4.2 1.1 1.6 1.4.5 1.8-8.9.3-5.9 1-11.2 1.6-11.8.7-.7 3.4-.6 9.4.6 13.1 2.5 39.1 5.6 47.7 5.6 10.9 0 12.7-1.5 12.4-10-.4-10.3-1.7-13.5-7.6-18.2-2.9-2.2-15.2-9-27.4-14.9-12.2-6-22.7-11.7-23.2-12.7s-1.1-10.8-1.3-21.7l-.3-19.8 3.2-.9c8.1-2.1 12.6-15 8.9-25.6-3.2-8.9-9.4-14.2-16.5-14.2-2.7 0-5.8-.9-8.4-2.4-4.8-2.8-18.7-7-26.7-8.1-3-.4-7.9-1.6-10.9-2.7-13.9-5.2-25.8.3-29.7 13.9-1.2 4.2-1.4 6.4-.6 9.4 1.2 4.8.9 6.5-3.3 15.4-1.8 3.8-5.8 13.2-9 20.7-3.1 7.5-6.2 14.3-6.8 15.2-1.7 2.1-42.4 2.7-41.9.5.2-.8 1.1-1.8 2-2.3s2.6-1.9 3.9-3.2l2.2-2.2.3 3.6.3 3.7 2.9-4.3c1.6-2.3 3.3-4.2 3.7-4.2.5 0 .9 1.6.9 3.5s.4 3.5 1 3.5c.5 0 2.3-1.8 4.1-4 3-3.8 5.5-4.6 4.2-1.5-.3.8 0 1.5.6 1.5 1.4 0 5-8.1 5.8-12.8.3-1.8 1-3.5 1.6-3.9.9-.6.2 7.2-1 10.3-.3.8-.1 1.4.5 1.4 1.2 0 8.9-21 10.4-28.5 1.4-6.9 0-15.1-3.6-21.9-1.3-2.4-2.8-5.8-3.4-7.5-1.7-4.9-8.6-16.1-14.1-22.8-3.9-4.9-5.2-7.2-5.7-11.1-.9-7.2-6-13.6-13.7-17.3-3.4-1.6-6.9-2.9-7.8-2.9-.8 0-3.7-1.4-6.5-3.2-2.7-1.7-7.8-4.5-11.4-6.2-6.2-3-7.1-3.1-18.5-3-10.4 0-12.9.4-18.9 2.7-3.9 1.4-7.3 2.4-7.8 2.1-.4-.3-.8-1.6-.8-2.9 0-6.4-9.4-7.4-16.7-1.8M136 43.4c-1.7 2.2-3.2.9-1.9-1.6.8-1.4 1.4-1.7 2.2-.9.7.7.6 1.5-.3 2.5m125.5 165.5c0 3.4-1.9 3.7-3.3.6-1.6-3.5-1.5-3.7 1.1-3.3 1.6.2 2.2 1 2.2 2.7m-39.3 85.3c2.6 2.8 4.8 5.6 4.8 6.1 0 2.4-24 45.7-25.4 45.7-1.8 0 3.2-22.6 9.6-43.5 3.2-10.4 4.4-13.5 5.5-13.5.3 0 2.8 2.3 5.5 5.2"/></svg>