<svg xmlns="http://www.w3.org/2000/svg" width="682.667" height="512" version="1.0" viewBox="0 0 512 384"><path d="M101.9 26.2c-3.7 1.1-8.8 3.7-11.5 5.7-4.3 3.3-14.2 14.5-14.3 16.4-.1.4-1.2 3.1-2.6 6-2.1 4.1-2.7 7.3-3.2 15.7-.5 9.7-.3 11.4 2.7 22.5 3.7 13.9 4.1 22.4 1.6 35.4-2 10.5-2 13.2.2 19.3 2.1 6 6.5 9.9 17.7 15.6 12.1 6.1 17.5 13.1 17.5 22.8 0 4.7-.6 6.4-3.6 10.9-1.9 3-6.8 8.2-10.7 11.7-12.1 10.6-14.5 13-23 22.8-12.8 14.6-16.7 21-18 28.9-.9 6.2-.8 6.9 1.6 11.6 1.4 2.8 6 8.7 10.2 13.2 10 10.8 12.5 16.4 12.5 28 0 4.8-.7 11.1-1.6 14.2-2.1 7.4-7.9 19.3-12.2 24.9-6.6 8.7-13.2 23.6-13.2 29.9v2.3h354l-.6-11.3c-1.2-23.8-3.4-33.1-10.4-44.7-2.1-3.6-6.3-10.6-9.2-15.5l-5.2-9-.1-12c0-8.9.5-13.6 1.8-18 2-6.4 7.7-20.7 8.7-21.5.3-.3 1.8-2.1 3.3-4 2.9-3.5 5-5.1 12.2-9.2 3.5-1.9 5.8-2.3 17-2.6 7.2-.2 19.4.1 27.3.6 20.2 1.5 29.2-.1 35.4-6 1.3-1.3 1.8-3.3 1.8-7.5 0-5.6-.1-5.8-5.7-11.3-4.8-4.5-7.9-6.4-17.8-10.7-6.6-2.8-14.9-6.1-18.5-7.4-23-8-31.2-17.2-31.2-34.9 0-8.4 0-8.6 6-20 3.3-6.3 6.3-13.3 6.6-15.5 1.4-8.3-5.9-18.2-17.3-23.2-9.7-4.4-42.6-11.8-63.9-14.4-10.4-1.3-25.3 0-28.1 2.5-.9.7-2 1.5-2.6 1.7-2.7 1.1-8.3 5.5-9.8 7.8-7.6 11.9-15 20.1-18.2 20.1-2.9 0-7.2-4.4-10.5-10.8-4.1-7.7-12.9-21-18.4-27.5-2.8-3.4-7-8.6-9.4-11.6-17.9-23-26.4-28.6-58.4-38.7-14.5-4.5-22.6-5.3-54.8-5.3-24.7.1-28.2.3-34.1 2.1"/></svg>