<svg xmlns="http://www.w3.org/2000/svg" width="682.667" height="512" version="1.0" viewBox="0 0 512 384"><path d="M87 152c-49.3 1.4-72 7.1-72 17.9 0 2 .4 4.1.8 4.7 1 1.6 9.9 8.3 12.5 9.5 1.2.5 4.7 2.4 7.7 4.2 4.1 2.4 5.6 3.9 5.8 5.8.4 3.3-2 4.9-12.3 8.4-4.4 1.4-9 3.2-10.4 3.9s-4.6 2-7 2.8c-2.5.8-5.4 2.7-6.5 4.1-2 2.7-2 2.8-.2 6.2 1.1 1.9 2.3 3.5 2.7 3.5.5 0 1.7 1.7 2.8 3.7 2.3 4.6 1.6 6.7-3.3 11.1-4.1 3.6-4.6 6.6-1.3 8.3 1.2.7 2.4 1.5 2.7 1.9.9 1.4 20.2 4.1 36.8 5.2 18.8 1.2 49.9 1.3 227.2.6 122.4-.5 137.3-.9 153.4-3.9 2.8-.6 6.7-1.3 8.6-1.6 4.6-.7 9-3.9 9.1-6.6.1-2 .2-2 .9.3s.8 2.3.9.4c.1-1.5-2.6-4.7-8.9-10.4-10.9-10-10.7-10.8 3.5-15.8 6-2.1 30.4-6.4 47-8.3 6.7-.7 13.8-2 19.8-3.5 2.1-.5 2.7-1.2 2.5-2.7-.3-2.2-1.6-2.8-15.3-7.7-7.4-2.6-16.5-7.3-22.8-11.7-8.3-5.8-20.9-9.6-38.2-11.3-6-.7-42.7-1.5-81.5-2-68.5-.8-71-.9-86.5-3.3-8.8-1.4-18.1-3.1-20.7-3.6-9-2-39.3-6.3-54.8-7.7-15.6-1.4-64.2-3.5-73.5-3.2-2.7.1-16 .5-29.5.8"/></svg>