<svg xmlns="http://www.w3.org/2000/svg" width="682.667" height="512" version="1.0" viewBox="0 0 512 384"><path d="M58 183c-36.3 1.1-56 2.9-56 5.3 0 1.6 3.3 3.6 6 3.7 1.4.1 5.7.9 9.7 1.8 10.7 2.6 8.7 4.1-8.3 6.1-3.9.4-7.6 1.1-8.3 1.5-.6.4-1.1 3.2-1.1 6.5v5.7l7.3 1.2c8.9 1.5 393.1 1.6 420.7.1 9.6-.5 18.5-1 19.8-1 1.3-.1 3.5-.7 4.9-1.4l2.6-1.4-2.9-.6c-1.6-.4-4.2-1.2-5.8-1.7l-2.8-1.1 2.8-1.5c3.1-1.6 11.9-2.6 39.4-4.2 23.7-1.4 26-1.7 26-3.9 0-1.5-1.2-1.9-7.7-2.5-4.2-.3-9.1-1-10.7-1.5-12.4-3.8-42.7-5.1-144.1-6.2-48.4-.5-95.2-1.3-104-1.9-49-2.8-140.7-4.3-187.5-3"/></svg>