<svg xmlns="http://www.w3.org/2000/svg" width="682.667" height="512" version="1.0" viewBox="0 0 512 384"><path d="M304.7 86c-1.5 1.2-4.8 6.5-7.3 11.8s-4.8 9.9-5 10.1-2.1-.1-4.1-.7c-2.1-.7-9.6-2.6-16.8-4.3-22.5-5.4-33.5-3.1-45.3 9.6-17.1 18.4-23.4 53.9-15.6 87 4.4 18.6 16.8 32.8 29.5 34.1 8.3.8 9.3 1.1 14.7 4.8 7.8 5.4 15.5 7.6 26.4 7.6 8.5 0 10.2-.3 17.8-3.5 23.6-10 41.2-31.1 52.2-62.5 4.1-11.8 4.9-26 2-34.2-2.5-7.1-8-13.8-15.3-18.8-6-4.2-21-10.6-26.8-11.6-5.2-.8-10.1-2.4-10.1-3.3 0-.4.7-1.6 1.5-2.7.8-1 1.5-2.5 1.5-3.2s1.4-3.3 3-5.8c1.7-2.4 2.8-4.4 2.5-4.4-.4 0 .1-.7.9-1.6.9-.8 1.3-2.1.9-2.7-.3-.7-.3-.9.2-.5.4.4 1.4.3 2.2-.3 1-.9 1.1-1.5.2-2.5-.8-1-1.5-1.1-2.4-.4-.8.7-1.1.4-1.1-1.2.1-3-2.4-3.3-5.7-.8"/></svg>