<svg xmlns="http://www.w3.org/2000/svg" width="682.667" height="512" version="1.0" viewBox="0 0 512 384"><path d="M21 187c-9.6.4-18.3.8-19.2.9-1.4.1-1.8 1-1.8 3.6 0 3.1.3 3.5 2.8 3.5 1.5 0 3.4.4 4.2 1 1.3.8 1.3 1 0 1.4-.8.3-2.6.6-4 .8-2.3.3-2.5.7-2.8 6.4s-.1 6.2 2 6.8c1.3.3 94.3.6 206.8.6 188.3 0 254.1-.7 257.3-2.7.7-.4-.5-1.2-2.8-1.9-2.2-.6-4.1-1.7-4.3-2.6-.2-1.2 3.1-1.6 21-2.7 30.9-1.7 31.8-1.8 31.8-4.7 0-1.8-.7-2.4-3.2-2.8-15.1-2.4-54.6-3.6-161.3-4.7-56.6-.6-112.4-1.5-124-1.9-28.2-1.2-180.5-2-202.5-1"/></svg>