<svg xmlns="http://www.w3.org/2000/svg" width="682.667" height="512" version="1.0" viewBox="0 0 512 384"><path d="M443.4 198.1c-13.5 1.1-80.1 12.5-79.2 13.5.3.3 31.3-3.5 53.8-6.5 10.2-1.4 33.1-2.8 66-4.2 15.1-.6 27.7-1.3 27.9-1.5s.1-.7-.3-1.2c-1.1-1-56.1-1.2-68.2-.1M0 198.8c0 1 6.6 1.7 24 2.7 17.9 1 54.5 3.6 71.5 5 9.4.8 19.9 1.7 23.5 2s16.1 1.4 27.7 2.6c11.7 1.1 22.3 1.9 23.5 1.7 2.2-.3-29.2-4.9-56.2-8.3-6.9-.8-20.1-2.5-29.5-3.6-13.1-1.7-24.7-2.3-50.7-2.6-21.8-.3-33.8-.1-33.8.5m173.8 14.9c.7.3 1.6.2 1.9-.1.4-.3-.2-.6-1.3-.5-1.1 0-1.4.3-.6.6"/></svg>