<svg xmlns="http://www.w3.org/2000/svg" width="682.667" height="512" version="1.0" viewBox="0 0 512 384"><path d="M13 198.8c.8.5 6.2 1.5 12 2.1 23.2 2.6 46.6 7.1 62.5 12.1 1.7.5 5.9 1.9 9.5 2.9 22.4 6.9 53 16.6 62 19.7 40.8 14.1 65.3 19.1 98.6 20.1 31.1 1 55.5-2.5 83.4-11.7 14.1-4.6 30.9-11.5 61-25 25.2-11.3 40.6-15 71-17 26.2-1.7 29.8-2.2 27-3.2-1.4-.6-11.9-.8-24-.5-33.4.7-43.9 3.3-85.3 21.1-29.7 12.7-44.6 18.3-60.7 22.9-20.6 5.9-33.2 8.1-57 10.2-15.6 1.3-18.4 1.3-27.5 0-31.7-4.9-38-6.6-90-23.5-11.5-3.7-27.5-8.7-35.5-11s-18.5-5.5-23.5-7.2c-15.1-4.9-26.8-7.7-40.2-9.7-14.1-2.1-45.8-3.8-43.3-2.3"/></svg>