<svg xmlns="http://www.w3.org/2000/svg" width="682.667" height="512" version="1.0" viewBox="0 0 512 384"><path d="M263.9 93.7c-1.7 3.9-1.9 5.7-1.2 11.7.4 3.9.8 7.5.8 8 0 1-12.3 5.4-24.5 8.8-15.9 4.4-24 10.5-28.6 21.7-2.6 6-2.8 7.7-2.8 19.6-.1 15.4 2.2 25.6 9 40 13 27.7 33.5 47.7 50.4 49.2 6.8.7 15.7-1.8 19.5-5.3 2.3-2.1 3.1-2.3 10.7-1.8 7.1.5 9.4.2 16.3-2 10.3-3.3 23.9-11.6 28.2-17.3 3.5-4.6 7.8-15.6 9.9-25.4 2.5-11.3 2.5-38.7.1-50.7-3.4-16.8-10.4-29.1-20-35.5-12.3-8.2-24.7-9.4-46.4-4.7-6.2 1.3-11.4 2.2-11.7 1.9s-.9-3.5-1.3-7c-.5-4.9-.8-5.8-1.4-3.9-1 3.5-.9-.5.1-4.5.7-2.7.8-2.7.9-.6 0 1.3.3 2.2.6 1.9s.3-2.4-.1-4.7c-.4-2.5-1-3.8-1.4-3.1-.5.9-.9.9-1.4.1-1.5-2.3-3.8-.9-5.7 3.6"/></svg>