<svg xmlns="http://www.w3.org/2000/svg" width="682.667" height="512" version="1.0" viewBox="0 0 512 384"><path d="M26.1 198.4c.3.3 6.8 1.5 14.5 2.6 15 2.3 24.8 4.5 35.9 8.3 7.6 2.6 62.3 25.9 77.5 33 38.2 17.8 59.2 24.9 85.5 28.8 11.2 1.7 39.8 1.9 50 .3 26.7-4.1 36.3-7.2 62.7-20.5 11.9-5.9 17.7-9.3 46.8-26.9 17.6-10.6 27.4-15.3 38.8-18.5 9.4-2.6 30.8-5.4 43.7-5.6l7-.2-5-.7c-9.1-1.5-47.6-1.1-59.7.5-6.2.8-23.2 4.4-37.8 8.1-35.2 8.7-54.7 12.3-72.9 13.6-2.9.2-4 1-6.5 4.8-9.7 14.3-23.7 23.7-40 26.7-8.2 1.5-9.6 1.5-18 0-15.8-2.8-28.1-10.5-37.6-23.6-2.4-3.3-5.1-6.3-6-6.6-3.2-1-49.9-8.6-64.8-10.5-14.3-1.9-25.8-3.6-59.6-9-16.3-2.6-55.9-5.9-54.5-4.6"/></svg>