<svg xmlns="http://www.w3.org/2000/svg" width="682.667" height="512" version="1.0" viewBox="0 0 512 384"><path d="M384 195.6c-6.9.8-25.1 1.6-40.4 1.9-15.4.3-28.1.6-28.2.8-.2.1-1 3.8-1.9 8.2-4.8 24.3-22.7 41.9-47.1 46.2-8.4 1.5-9.8 1.5-18 0-23.2-4.3-40.8-20.8-46-43.4-.9-3.7-1.7-7.3-1.9-7.9-.6-2.1-21.2-2.6-58.8-1.4-31.6 1-42.2.9-70.8-.4-45.4-2.2-45.3-2.2-24.5 1.4 7.2 1.2 17.7 3.7 23.4 5.6 9.3 3 46.8 21.2 98.7 47.8 26.6 13.7 40.8 19.3 59 23.6 13.1 3 20.2 3.8 36.5 3.9 25.1.3 42.4-2.8 61.5-10.9 19.4-8.3 30-14.7 72-43.8 17.8-12.3 28.2-18.1 39-21.7 8.8-3 23-5.5 31.3-5.5 2.8 0 5.2-.3 5.2-.8 0-.4-10.7-1.8-23.7-3-26.4-2.5-45.7-2.7-65.3-.6m92.3 3.1c.9.2 2.3.2 3 0 .6-.3-.1-.5-1.8-.5-1.6 0-2.2.2-1.2.5"/></svg>