<svg xmlns="http://www.w3.org/2000/svg" width="682.667" height="512" version="1.0" viewBox="0 0 512 384"><path d="M256 139c-19.1.9-23.1 1.3-40 4.7-23.7 4.7-36.9 9.3-62.7 21.9-9.8 4.7-19.8 9.5-22.3 10.6-2.5 1.2-6.8 3.1-9.6 4.4C97.8 191.3 73.2 197 49.8 197c-4 0-8 .5-8.8 1-1.2.8-1.1 1 .8 1 3.9 0 17.3 3 25.3 5.6 10.2 3.3 20.1 8.5 36.6 19.1 7.6 4.9 20.1 12.7 27.8 17.3s21.4 12.9 30.5 18.5c35.3 21.8 49.6 28.6 72.5 34.2 10.3 2.6 12.4 2.7 33 2.7 20.8 0 22.6-.1 32.5-2.8 24.8-6.5 47.4-20.7 89.3-55.9 26.2-22.1 34-27.5 47.2-32.7 8.1-3.2 21.3-6 28.6-6 7.4 0 6.7-1.5-1.4-3-8-1.4-22.6-6.2-36.2-12-9.1-3.8-43.8-15.7-66-22.5-10.7-3.3-34.7-11.4-40-13.4-9.4-3.8-42.9-10.6-48-9.9-.5.1-8.4.4-17.5.8m15.4 2.5c14.6 3.8 29 15.1 35.8 28.1 5.1 9.8 6.8 16.3 6.8 26.7 0 16.6-4.9 28.6-16.5 40.3-8.8 8.9-18.2 13.7-30.9 16.1-8.2 1.5-9.6 1.5-18 0-32.9-5.8-54.1-37.7-46.1-69.2 5-19.6 21.7-36.8 40.6-41.9 7.2-1.9 21.1-2 28.3-.1"/></svg>