<svg xmlns="http://www.w3.org/2000/svg" width="682.667" height="512" version="1.0" viewBox="0 0 512 384"><path d="M244 92.7c-27.9 2.9-54.5 15.2-80.9 37.7-4.6 3.9-11.6 9.7-15.5 12.9-3.9 3.3-8.2 6.9-9.6 8-5.4 4.7-18.9 14.7-27.5 20.4-23.2 15.5-36.5 20.4-63.8 23.7-6.5.8-12 1.6-12.3 1.8-.2.2 4.9 1.4 11.4 2.7 22.7 4.3 32.5 8.2 52.3 20.6 6.8 4.3 13.1 8.4 13.9 9.1s5.6 3.6 10.5 6.5c12.2 7.1 20.3 11.7 24.5 14.1 1.9 1.1 11.7 7 21.7 13 23.9 14.3 42.1 23 56.1 26.9 9 2.5 11.5 3 20.7 4.4 20.5 3 46 1.2 62.7-4.6 23-7.8 45.5-22.5 87.8-57.5 13-10.7 26.1-19.9 33.5-23.6 12-6 29-9.7 44.5-9.8 8.7-.1 7.9-1-3-3.4-16-3.6-23.2-6.9-44.5-20.4-33.1-20.9-99.1-60.3-113-67.4-24.8-12.7-46.8-17.5-69.5-15.1m27.4 49.3c10.5 2.7 18.5 7.1 25.9 14.5 11 10.9 16.7 24.5 16.7 39.8 0 16.6-4.9 28.6-16.5 40.3-8.8 8.9-18.2 13.7-30.9 16.1-8.2 1.5-9.6 1.5-18 0-12.9-2.3-22.2-7.1-31.1-16.2-17.6-17.8-21.5-42.5-10.3-65.5 3.8-7.8 15.7-20.2 23.5-24.3 12.1-6.4 27.2-8.2 40.7-4.7"/></svg>