<svg xmlns="http://www.w3.org/2000/svg" width="682.667" height="512" version="1.0" viewBox="0 0 512 384"><path d="M242 90.7c-20.7 3.2-39.9 10.3-55.8 20.6-7.5 4.9-26.8 20.1-34.2 27.1-5.4 5-26.2 21.7-34 27.2-3 2.1-5.7 4.1-6 4.4-.3.4-4.9 3.4-10.3 6.7-17.4 10.9-29.8 15.1-54.1 18.3-8.2 1.1-15 2.1-15.2 2.3s5.4 1.4 12.4 2.6c24 4.4 33.7 8.3 55.7 22.1 14.1 8.9 44.3 27 45.1 27 .2 0 4.1 2.3 8.7 5.1 35.5 22.1 55.8 31.7 79.5 37.7 10.1 2.5 12 2.7 33.2 2.7 20.3-.1 23.4-.3 31.5-2.4 27.6-7.2 46.5-18.7 96.7-59.3 31.7-25.6 46-31.9 75.6-33.5 6.2-.3 11.1-.8 10.9-.9-.2-.2-5.7-1.7-12.3-3.4-15.3-3.8-26-9.2-52.7-26.2-11.4-7.3-32.1-20.3-46-28.9C309.9 102.4 294.8 95 270 91.1c-6.2-1-22.7-1.3-28-.4m29.4 51.3c10.5 2.7 18.5 7.1 25.9 14.5 11 10.9 16.7 24.5 16.7 39.8 0 16.6-4.9 28.6-16.5 40.3-8.8 8.9-18.2 13.7-30.9 16.1-8.2 1.5-9.6 1.5-18 0-12.9-2.3-22.2-7.1-31.1-16.2-17.6-17.8-21.5-42.5-10.3-65.5 3.8-7.8 15.7-20.2 23.5-24.3 12.1-6.4 27.2-8.2 40.7-4.7"/></svg>