<svg xmlns="http://www.w3.org/2000/svg" width="682.667" height="512" version="1.0" viewBox="0 0 512 384"><path d="M237.9 106c-10.8 1.7-26 6.1-35.7 10.2-15.4 6.6-24.1 11.9-46.7 28.3-37.6 27.2-62.5 41.1-83.8 46.5-6.4 1.7-35.4 5.9-40.6 6-3.7 0 .6 1.1 14 3.5 25.8 4.5 34.9 7.8 60.9 21.9 41.4 22.5 95 48.4 108 52.2 23.1 6.7 31 7.7 57.7 7.2 19.3-.5 22.9-.8 31.5-3.1 16.9-4.5 33.7-12 53.3-24 2.4-1.5 27.5-18.3 44.5-29.9 16-10.9 23.4-14.9 34.4-18.7 10.3-3.6 22.4-5.7 38.4-6.7 6.2-.4 11.1-.8 10.9-1-.1-.2-5.4-1.4-11.7-2.8-20.6-4.5-25.2-6.5-61.5-26.4-79.6-43.6-103.9-55.7-123-60.7-8.6-2.3-12.4-2.8-27.5-3-9.6-.2-20 0-23.1.5m38.6 38c39.1 14.8 49.7 63.3 20.2 92.4-17.3 17.1-41.3 21.2-63.2 10.7-19.4-9.2-31.5-28-31.8-49.1-.3-26 14.8-46.6 40.3-55.2 7.9-2.6 26.1-2 34.5 1.2"/></svg>