<svg xmlns="http://www.w3.org/2000/svg" width="682.667" height="512" version="1.0" viewBox="0 0 512 384"><path d="M247 102.9c-1.5 2.9-1.2 6.9 1 13.1 1.8 5 1.8 5.6.3 6.5-1.9 1.2-19.4 14.2-27.8 20.7-14.5 11.1-18 27.2-10.6 48.8 6.3 18.7 18.9 35.7 36.6 49.5 20.7 16.2 35.5 20.3 49 13.5 7.9-4 16.8-9.2 18.7-10.8.9-.7 4-2.2 6.9-3.5 9.1-3.7 22.1-11.9 27.6-17.3 7.3-7.2 9.3-14.1 9.3-31.5 0-23.2-7.1-47.5-19.1-65.4-10.5-15.8-20.6-21.5-38.1-21.5-9 0-20.6 2.9-26.1 6.5-2 1.2-15 6.5-16.2 6.5-.3 0-.5-.8-.5-1.8 0-.9-.5-2.4-1.1-3.2-.8-1.2-.9-.9-.4 1 .5 2.1.4 2.2-.5.7-.6-.9-.8-2.7-.5-3.8.5-1.6.4-1.9-.5-1.4-1 .6-1.2 0-.7-2.4.5-2.2.2-3.7-.7-4.7-1.1-1.1-1.6-1.1-1.9-.1-.4.9-.6.9-.6-.1-.1-1.9-2.9-1.4-4.1.7"/></svg>