<svg xmlns="http://www.w3.org/2000/svg" width="682.667" height="512" version="1.0" viewBox="0 0 512 384"><path d="M242.5 110.7c-8.6 1.1-23.9 4.7-33 7.7-15.5 5.2-26.7 11.2-52 28.1-55.2 36.7-73 44.5-112.3 49-8.5 1-14.8 2.1-14 2.5.7.4 6.5 1.5 12.8 2.5 14 2.1 28.4 5.6 36.5 8.8 3.3 1.3 17.5 8 31.5 14.9s31.1 15.2 38 18.3c6.9 3.2 17.9 8.5 24.5 11.7 22.2 11 40.5 17.5 59.4 21 15.3 2.9 47.4 3.2 62.1.5 26.2-4.8 49.3-15.9 94.1-45.2 37.5-24.7 48.4-28.6 85.7-31.1 5.6-.4 10.1-.8 9.9-1-.1-.2-6.6-1.6-14.2-3.2-18.5-3.9-28.4-7.9-56-22.4-38.6-20.4-92.4-47.2-103.5-51.5-14-5.6-26.2-9-36.2-10.3-7.8-.9-26.9-1.1-33.3-.3m30.8 32.7c13.9 4.3 27.5 15.7 33.5 27.9 16.1 32.6-1.1 70.1-36.3 79.2-29.4 7.6-60.6-12.1-67-42.3-7.6-35.6 20.7-68.8 57-66.7 4.4.2 10.2 1.1 12.8 1.9"/></svg>