<svg xmlns="http://www.w3.org/2000/svg" width="682.667" height="512" version="1.0" viewBox="0 0 512 384"><path d="M243 121.9c-17.4 1.9-37.7 7.4-54 14.6-5.3 2.3-17.7 8.9-27.5 14.5-57.3 33-75.6 40.1-115.8 44.5-8.7 1-16 2.1-16.2 2.5s5.3 1.5 12.3 2.5c27.1 3.7 37.1 6.8 73.2 22.3 32.3 13.8 75 31.4 83.8 34.3 22.3 7.6 42.3 10.9 66.7 10.9 44.3 0 63.8-6.7 133.5-46.2 24.2-13.7 39.4-18.7 63.1-20.8 7.4-.7 16.3-1.5 19.9-1.9l6.5-.7-12.5-2.2c-21.7-4-34.3-8.2-57.5-19.2-20.4-9.7-65.2-29.6-89-39.7-27.9-11.8-41.7-15.2-64.4-15.8-8-.2-18 0-22.1.4m25.3 21.7c21.5 4.9 37.8 21.1 42.2 42.1 1.8 8.6 1.8 13 0 21.8-2.3 10.8-6.8 18.9-15.1 27.2-10.2 10.4-24.1 16.2-38.5 16.3-6.3 0-19-3.4-25.2-6.7-6.6-3.6-15.7-12-19.7-18.3-8.6-13.4-11-32.1-5.8-46.6 6.6-18.8 22.4-32.5 41.3-35.9 9.6-1.8 12.5-1.8 20.8.1"/></svg>