<svg xmlns="http://www.w3.org/2000/svg" width="682.667" height="512" version="1.0" viewBox="0 0 512 384"><path d="M237 140.1c-28.1 3.8-45 8.7-74 21.4-35.7 15.6-60.7 24.7-80 29-5.8 1.4-20.9 3.6-33.4 5-12.6 1.4-23.1 2.7-23.3 2.9-.6.5 4.4 1.3 19.2 3.1 25 3 31.5 4.6 69.5 16.8 85.8 27.6 92.4 29.5 111.1 32.1 23.5 3.3 38.4 4 53.8 2.7 38.8-3.3 58-8.9 113.1-33.1 30.6-13.4 41.8-16.3 71-18.6 29.9-2.3 30.3-2.5 12-5.3-19-2.8-35.1-6.8-50.1-12.2-6.3-2.3-13.2-4.7-15.4-5.5-2.2-.7-7.8-2.7-12.5-4.4-25.3-9.2-73.1-25.4-84.4-28.6-25.8-7.3-50-9-76.6-5.3m32.3 5.8c4.5 1.6 11.1 4.3 14.7 6s7 3.1 7.6 3.1c.7 0 1.5.7 1.8 1.6s2.6 4.6 4.9 8.3c2.4 3.6 6 9.4 8.1 12.8l3.7 6.3-1.2 16.7-1.3 16.8-7.8 8.9c-4.3 4.8-9.1 10.5-10.6 12.6-2.7 3.8-2.9 3.9-18.2 7.5-8.5 2-15.9 3.8-16.5 3.9-1.3.4-11.9-3.5-23-8.5-8.3-3.8-9.3-4.5-13.2-10.2-2.3-3.4-6.3-9.9-8.8-14.5l-4.6-8.3 1.1-14.2c.5-7.8 1.3-15.3 1.7-16.6 1.5-5.6 21-28.1 24.4-28.1.8 0 3.8-.8 6.5-1.7 3.9-1.3 16.7-4.4 21.7-5.2.5 0 4.5 1.2 9 2.8"/></svg>