<svg xmlns="http://www.w3.org/2000/svg" width="682.667" height="512" version="1.0" viewBox="0 0 512 384"><path d="M240.5 142.7c-7.7.7-29.1 4.4-37 6.4-15.5 3.9-23.7 6.8-50 17.4-24.6 10-57 20.7-72.5 24-6.8 1.4-23 3.7-35.9 5.1-12.9 1.3-23.6 2.6-23.9 2.8-.6.6 4.1 1.4 20.3 3.1 24.5 2.7 35.5 5.1 66 14.4 10.5 3.2 22.6 6.8 27 8.1 4.4 1.2 17.5 5.1 29 8.7 24.2 7.4 40.9 11.6 57.9 14.3 12.3 2 31.5 3.7 30.6 2.7-.8-.9-13.1-5.3-20.3-7.2-6.8-1.8-6.9-1.9-11.6-8.9-2.6-3.9-6.8-10.1-9.4-13.7l-4.7-6.7v-17c0-12.9.3-17.2 1.3-18.1.8-.6 5.4-6.5 10.3-13.1 8.7-11.8 9-12.1 14.4-13.6 3-.9 10.3-3.1 16.1-5l10.7-3.4 5.7 2.5c3.1 1.4 10.3 3.9 15.8 5.5 5.6 1.6 10.3 3.3 10.5 3.8 1 3.2 8.7 14.5 13.5 20.1 3.1 3.6 5.5 7.1 5.3 7.7s-1 4.5-1.7 8.7c-1 5.9-1 8.7-.1 12.7 2 8.7 1.7 9.7-4.8 16.7-3.3 3.5-7.1 8.5-8.4 11.1-4.3 8.4-5.3 9.2-16.6 12.1-5.8 1.5-11.8 3.5-13.5 4.5-2.9 1.6-2.5 1.7 14 1.2 33.6-1 56.4-6.8 109.5-28.1 39.2-15.7 50.2-18.5 82-20.5 26.7-1.7 27.5-2.2 8.5-4.9-24.5-3.6-35.3-6.3-70.5-18-28.1-9.4-59.7-19.6-80.5-26.1-24.2-7.6-40.5-10-64.4-9.8-10.2.1-20.4.3-22.6.5"/></svg>