<svg xmlns="http://www.w3.org/2000/svg" width="682.667" height="512" version="1.0" viewBox="0 0 512 384"><path d="M236 139.6c-35.3 4.2-55.9 9.6-94.5 24.6-38.5 15-69 23.9-95.5 27.8-7.6 1.1-38.2 4-43.2 4-1.6 0-2.8.6-2.8 1.3 0 .9 4.7 1.8 16.8 3.1 27.4 2.8 37.4 4.8 66.2 13.1 10.2 2.9 24.6 7 32 8.9 7.4 2 21.2 5.9 30.5 8.6 47.2 13.9 80.6 20.3 104.5 19.9l6.5-.1-5.5-1.8c-3-1-8.4-2.1-12-2.5-9.9-.9-10.5-1.2-13.3-5.4-1.4-2.1-6.4-7.9-11.1-12.9-8.1-8.4-8.6-9.2-8.6-13.3 0-2.4-.7-10-1.6-17l-1.5-12.7 4.9-7.3c2.8-4.1 6.8-10.8 9-14.9 3.9-7.4 4-7.5 9.8-9.2 3.3-1 10.4-4 15.9-6.7l10-4.8 4.3 1.9c3.9 1.6 12.7 3.5 24.4 5.3 3.3.5 4.3 1.4 8.6 7.8 2.8 4.2 7.4 9.2 11 12.2l6.2 4.9V185c.1 6.5.6 12 1.5 14.5 2.6 7.1 2 9.7-4 17.7-3.1 4-6.2 9.5-7 12.2-2.3 7.6-3.8 9.3-10.2 11.1-9.7 2.7-14 4.6-17.5 7.6l-3.3 2.8 7.5.1c32 .1 66.9-8 118.5-27.8 48.6-18.5 61.4-21.6 100-23.7 23.1-1.2 24.3-2.3 5-4.4-23.1-2.5-37-5.7-71-16.6-48.9-15.6-92.5-28.7-109-32.9-20.5-5.1-26.7-5.8-53-6.1-13.7-.2-26.6-.1-28.5.1"/></svg>