<svg xmlns="http://www.w3.org/2000/svg" width="682.667" height="512" version="1.0" viewBox="0 0 512 384"><path d="M244 136.7c-43.1 4.4-63.2 8.9-98.5 22.3-56.9 21.5-87.5 30.1-120 33.5-8.2.8-17.4 1.8-20.3 2.1-4.7.5-5.3.8-5 2.7.3 2 1.4 2.3 14.8 3.8 19.8 2.3 30 4.2 47 8.9 8 2.2 27.6 7.6 43.5 11.9 16 4.4 36.1 10 44.8 12.5 33.4 9.7 51.4 13.4 76.9 16.1 8.1.8 18.7 1.5 23.5 1.4l8.8-.1-4.5-1.4c-2.5-.8-9.1-2-14.8-2.6l-10.4-1.2-4.8-6.1c-2.7-3.4-8-9.1-11.8-12.6l-6.9-6.4-.7-7.5c-.3-4-1.4-11.8-2.3-17.1l-1.6-9.8 3-4.8c1.7-2.6 5.5-9.4 8.4-15l5.4-10.1 7.8-3.2c4.3-1.8 11.4-5.2 15.6-7.6l7.8-4.4 5.5 2c3.1 1.1 9.8 2.4 14.9 3.1 13.7 1.6 13.4 1.5 16.8 6.7 3.4 5.4 8.4 10.5 15.1 15.4l4.5 3.4.6 11.4c.4 6.5 1.4 13.2 2.3 15.5 1.8 4.7 2 9.1.5 10.1-2.4 1.4-11 15.9-11.5 19.5-1.1 6.4-3.5 9.3-9.1 10.7-6.3 1.6-15.8 6.3-19.8 9.6l-3 2.6h8c9.5 0 32.6-2.4 44.5-4.5 18.9-3.5 44.1-11.2 77.5-23.7 50.3-18.9 63.2-22.1 96-24.3 15.8-1 19.5-1.6 19.5-2.9 0-.9-2.1-1.6-6.2-2-22.9-2.6-40.3-6.7-74.8-17.6-53.3-17-106.6-32.6-120.7-35.5-22-4.5-49.8-6.5-66.3-4.8"/></svg>