<svg xmlns="http://www.w3.org/2000/svg" width="682.667" height="512" version="1.0" viewBox="0 0 512 384"><path d="M226.5 135.5c-32.8 3.5-52.3 8.5-96 24.5-45.6 16.7-72 24.8-93.9 28.6-8 1.4-31.9 4.4-35.3 4.4-.8 0-1.3 1.4-1.3 3.5 0 3.1.3 3.5 3.2 3.9 30 4.4 34.7 5.4 63.8 13.6 11.3 3.2 27.7 7.7 36.5 10s25.5 6.8 37 10.2C186.8 247.5 213 252 251 253.5c12.4.4 13.2.4 10.4-1-4-1.8-14.2-3.5-21.4-3.5-7.8 0-9-.6-13.5-6.1-2.2-2.7-7.7-8.1-12.2-12-7.1-6-8.3-7.5-8.3-10.2-.1-1.8-.7-6.8-1.6-11.2-.8-4.4-1.9-10.6-2.5-13.8l-1-5.8 7.8-15.8 7.8-15.9 5-2.1c2.8-1.1 9.7-4.8 15.5-8.1l10.6-5.9 4.9 1.5c2.8.9 9.9 2 16 2.5 6 .5 11.6 1.2 12.5 1.5.8.3 3.5 3.3 5.9 6.6 2.5 3.4 6.5 7.5 9 9.2 10 7 9.8 6.6 10.6 16.8.4 5.5 1.7 12.1 3.1 16.2 1.3 3.8 2.4 7.5 2.4 8.1 0 .7-2.2 4.5-4.9 8.6-3.2 4.8-5.7 10-7 14.8-2.2 7.8-3.5 10.1-5.8 10.1-2.2 0-16.5 6.8-18.8 9-1.1 1-4 3-6.5 4.4l-4.5 2.5 7.5-.4c4.1-.2 12-.7 17.6-1 24.2-1.4 47-6.2 80.9-17.1 13.9-4.5 17-5.6 50.1-18 19.7-7.3 38.1-12.8 50.1-14.9 7.3-1.3 36-4.5 39.9-4.5.8 0 1.4-1 1.4-2.4 0-2.1-.6-2.4-5.7-3.1-20.1-2.4-34.4-6.1-84.3-22-13.3-4.2-62.6-19-83.4-24.9-18.1-5.2-36.7-9.1-50.8-10.6-12.9-1.3-46.4-1.1-61.3.5"/></svg>