<svg xmlns="http://www.w3.org/2000/svg" width="682.667" height="512" version="1.0" viewBox="0 0 512 384"><path d="M222.9 123.5c-41.4 4-66.9 10.5-132.9 34.3-26.6 9.5-58.6 19.2-80.3 24.4L0 184.5v21.3l10.2 2.7c5.7 1.5 15.5 4.2 21.8 6.1 6.3 1.8 23.9 6.4 39 10.3 15.1 3.8 35.6 9.3 45.5 12.1 18.7 5.3 51 13.4 58 14.5 2.2.4 7.2 1.3 11 2 25.8 5.1 72.9 7.6 102 5.6 48.6-3.5 80.1-11.2 146.5-35.8 38.9-14.5 57.5-20.2 73.8-22.8l4.2-.7v-16.5l-11.7-3.2c-6.5-1.8-20.1-5.9-30.3-9.1s-22.3-7-27-8.4-17.3-5.2-28-8.4c-10.7-3.3-26-7.8-34-10.1-8-2.4-17.2-5.1-20.5-6.1-23.7-7.3-46.7-12.2-68.5-14.5-16.4-1.8-50.2-1.8-69.1 0m58.7 24.2c3.1 2.6 9.8 7.5 14.8 10.8 7.7 5.1 9.1 6.4 9.4 9 .6 5.7 3.4 15 6.8 22.9l3.5 7.9-3.9 9.1c-2.2 5-4.7 12.6-5.6 16.9-.9 4.4-1.8 8.2-2.1 8.6-.2.4-3.9 2.8-8.2 5.4-4.3 2.5-10.7 7.1-14.2 10.1-3.6 3.1-6.9 5.6-7.5 5.6-10.5.5-36.4-.3-37.8-1.1-2.6-1.4-22.6-16.5-25.9-19.6-1.9-1.7-3.6-5.5-5.6-12.1-6.1-20-7.4-25.2-6.4-27 .5-.9 2-5.1 3.3-9.2 1.4-4.1 3.8-10.8 5.4-14.8 3.1-7.9 4-8.8 25.7-23.2l6.7-4.5 18 .2 18 .1z"/></svg>