<svg xmlns="http://www.w3.org/2000/svg" width="682.667" height="512" version="1.0" viewBox="0 0 512 384"><path d="M224.5 99.5c-27.8 2.4-56.1 6.9-81.5 13.1-24.1 5.9-31.9 8.4-86 27.4-9.6 3.4-26.3 9-37 12.5L.5 158.8l-.3 32.6-.2 32.5 3.7 1c2.1.6 9.2 2.4 15.8 4 27.5 6.8 32.8 8.2 49.5 12.6 98.2 26 132 31.5 196 31.4 82.2 0 127.5-10.1 236.5-52.8l10-3.9.3-30.1.2-30.1-3.2-1.5c-1.8-.7-11.6-3.9-21.8-7-10.2-3.2-22.5-7-27.5-8.5-4.9-1.6-14.4-4.5-21-6.5s-17.6-5.4-24.5-7.6c-52.6-16.2-75.6-21.5-108.9-25-21.7-2.2-56.8-2.4-80.6-.4m61 43.3c2.8 1.1 8.7 3.8 13.3 5.9 8.2 3.9 8.3 4 11.6 10.9 1.8 3.8 6.1 11.6 9.5 17.4l6.2 10.4-1.6 8.1c-.8 4.4-1.9 13.1-2.4 19.3l-.8 11.2-8.9 9.3c-5 5-11.1 11.7-13.6 14.7l-4.7 5.6-14.8 2.7c-27.2 4.9-24 4.9-34.2.7-5-2.1-12.3-5.7-16.3-8.1s-8.1-4.9-9.2-5.4c-2.8-1.4-12.7-17.6-16.2-26.5-2.7-6.9-2.9-8.4-2.7-19.3.1-8.6.7-13.4 2.1-18 1.1-3.4 2.3-7.4 2.6-8.8.6-2.9 7.8-12 14.1-17.9 11.1-10.4 14.4-13 16.4-13 1.2 0 3.8-.7 5.9-1.6 2-.9 8.5-2 14.5-2.5 5.9-.5 11.7-1.3 12.9-1.8 1.7-.6 3.4-.1 6.8 2 2.5 1.5 6.8 3.6 9.5 4.7"/><path d="M220.7 155.5c-2 2-4.2 4.6-4.8 5.8s1.4-.3 4.5-3.3 5.6-5.6 5.6-5.7c0-1.1-2.2.2-5.3 3.2m-16.6 28.2c-1.3 2.8-2.9 17.2-1.8 16.3.7-.7 3.9-18.2 3.4-18.7-.2-.2-.9.9-1.6 2.4m2.4 37.8c.7 3.2 6.6 13.7 7.3 13 .5-.5-4.3-10.9-6.4-13.8-1.6-2.2-1.6-2.2-.9.8m21.5 27c0 .5 10.9 6.1 14.6 7.5 4 1.6 2.7.2-2.3-2.4-6.2-3.1-12.3-5.6-12.3-5.1"/></svg>