<svg xmlns="http://www.w3.org/2000/svg" width="682.667" height="512" version="1.0" viewBox="0 0 512 384"><path d="M277 62.6c-3 .2-12.9.9-22 1.4-36.3 2.4-84.2 10.6-123.5 21.1-28 7.5-61.3 19.2-103.5 36.5-6.3 2.5-15.1 6.1-19.5 7.9l-8 3.2-.3 65.4-.2 65.4 13.2 2.3c7.3 1.3 20.3 3.7 28.8 5.3 29 5.5 51.5 9.6 56.5 10.3 2.2.3 7.6 1.2 12 2s10.7 1.8 14 2.1c3.3.4 6.3.9 6.6 1.1.3.1 6.8 1 14.5 1.8 7.6.9 17.5 2 21.9 2.5 27.9 3.3 85.3 3.8 121 1.1 83.9-6.3 137.5-20.4 218.2-57.1l5.3-2.4v-64.3c0-35.3-.2-64.2-.4-64.2-.5 0-28-7.8-46.1-13-14.8-4.3-32.5-9.1-36.5-10-1.9-.5-7.3-1.8-12-3-21-5.3-49-10.7-63.5-12.4-19.9-2.3-62.1-4-76.5-3m-6.5 63.9c5 1.6 12.6 2.9 20 3.6 15.8 1.3 15.5 1.2 19 6.1 5.8 8.5 10 12.8 18.7 19.4s8.8 6.7 8.8 11c0 6.1 1.7 17.2 4.4 29.3 2.3 10.1 2.3 10.5.5 13.5-.9 1.7-3.2 6.5-5 10.6s-4.7 9.8-6.5 12.7c-1.8 2.8-4.2 7-5.3 9.2-1.5 2.9-4.2 5.3-9.3 8.7-9 5.8-17.2 9.9-21.8 10.9-1.9.4-5.3 1.6-7.4 2.7-3.5 1.8-5.4 2-16.5 1.6-11.5-.4-13.1-.7-19.1-3.5-3.6-1.7-8.1-3.4-10.1-3.8-2.2-.4-7.1-3.4-13.1-8-8.1-6.3-9.9-8.2-13-14.1-2-3.8-4.8-8-6.2-9.3s-2.7-4-3.2-6.4c-.3-2.3-1.5-6.5-2.5-9.4-2.6-7.7-2.1-28.1.9-34.4 1.1-2.4 3.4-7.3 5.1-10.9 2.6-5.6 4.9-9.2 13.6-21.8.9-1.2 2.4-2.2 3.3-2.2 2.1 0 21.6-9.4 29.7-14.3 3.3-2.1 6.2-3.7 6.5-3.7s4.1 1.1 8.5 2.5"/><path d="M213.8 161.2c-1.8 3-3.9 7.8-3.3 7.8.3 0 1.6-2.3 3-5 2.6-5.2 2.8-6.7.3-2.8M203.7 195c-1.1 4.2-.7 9.2 1.3 15l2 5.5-.6-8c-.2-4.4-.8-9.6-1.2-11.5-.8-3.3-.8-3.4-1.5-1m13.7 41.8c2.3 4.6 9.5 12 14 14.4 1.4.8 1.7.7 1.1-.4-2.3-3.9-10.9-13.9-14-16.3l-3.6-2.7zm86.9 15.6c-5.3 2.5-13.4 7.6-12 7.6 1.8 0 12.8-5 16.3-7.4 4.8-3.3 2.6-3.4-4.3-.2m-55.3 6.1c0 1.7 9.4 4.5 17.1 4.9l8.4.6-7-2.4c-7-2.4-18.5-4.3-18.5-3.1"/></svg>