<svg xmlns="http://www.w3.org/2000/svg" width="682.667" height="512" version="1.0" viewBox="0 0 512 384"><path d="M302 39.1c-29.2 1.2-55.6 4.1-86.5 9.4-15.5 2.6-53.7 11.1-66 14.6-3.8 1.1-9.5 2.7-12.5 3.5-10 2.9-40.4 12.6-46.5 14.9-24.5 9.3-45.1 17.8-64 26.4-3.8 1.8-11.3 5.1-16.5 7.5l-9.5 4.3-.3 87-.2 87 7.7 1.1c4.3.6 12.5 1.6 18.3 2.2s12.1 1.3 14 1.6c10 1.4 51.5 5.7 73 7.5 84.6 6.9 160.1 3.1 234-11.7 58.5-11.8 96.2-24.3 143.3-47.6L512 236V70.5l-26.7-6.8C413 45.6 390.8 41.7 345 39c-9.1-.5-18.3-.9-20.5-.8-2.2 0-12.3.5-22.5.9m-28 80.4c3.6 0 10.8-.4 16-.8l9.5-.9 4.5 4.2c6.9 6.3 15.3 12 24.8 17l8.7 4.5 1.3 5.5c2.9 12.9 5.6 20.9 10.1 29.7l4.8 9.5-3.4 11.1c-1.9 6.2-5.2 16.6-7.2 23.2l-3.8 12-9.9 8.8c-5.5 4.9-12.9 10.2-16.6 12.2-3.7 1.8-8 4.3-9.5 5.4-6.1 4.5-29.8 6.7-38.4 3.5-2.4-.9-6.7-1.7-9.4-1.9-3.5-.1-7.9-1.5-14-4.4-10.8-5.1-14.8-8-18.2-13.4-1.4-2.3-4.7-6.2-7.2-8.7-6.2-6.2-14.1-21.8-14.1-28-.1-2.5-.5-7.8-1-11.9-.9-6.4-.7-8.7 1.5-18.4 1.5-6.6 3.9-13.8 5.9-17.7 1.9-3.6 4-8.4 4.7-10.8 1.1-3.9 1.9-4.7 7.2-7.4 6.2-3.1 23.9-15.8 29.2-21 3-2.9 3.1-2.9 10.5-2.1 4.1.4 10.4.8 14 .8"/><path d="M208.7 165.2c-1.9 4.2-3.3 11.1-1.7 8.6 1.3-2.1 4.1-11.1 3.6-11.5-.2-.2-1 1.1-1.9 2.9m-4.3 41c.4 5 1.4 8.4 4 13.5 1.9 3.7 3.5 6.1 3.5 5.3.1-3.2-4-18.3-5.9-21.8l-2.1-3.7zm19.5 34.5c3.9 6.6 7.2 9.8 13.9 13.5 4.1 2.2 7.6 3.8 7.8 3.5.2-.2-2-2.8-5.1-5.7-6.1-6-18.3-14.3-16.6-11.3m96.9 4.2c-6.9 4.6-12 9.1-10.4 9.1 1.7 0 7.5-3.6 12.6-7.8 7.8-6.5 7.5-6.2 6.3-6.2-.6 0-4.4 2.2-8.5 4.9m-55.3 15.9c-2.9.7-2.7.8 3.1 2.6 5.6 1.7 7 1.7 14.8.6 6.5-1 8.3-1.6 7.1-2.3-2.2-1.2-21-1.8-25-.9"/></svg>