<svg xmlns="http://www.w3.org/2000/svg" width="682.667" height="512" version="1.0" viewBox="0 0 512 384"><path d="M301 26.1c-29.1 2.2-56.2 5.9-81 10.8-22.9 4.6-30.3 6.2-43.5 9.6C120.9 60.7 74.3 77.7 19.2 104L.5 112.9l-.3 99.5-.2 99.4 9.7.7c5.4.3 18.6 1.3 29.3 2.1 127.2 9.3 204.4 6.3 290-11.6 70.9-14.8 129.4-35.6 173.8-61.7 4.1-2.4 7.8-4.3 8.3-4.3s.8-36.4.7-92.2l-.3-92.2-9-2.3c-27.5-6.9-65.3-15-87.8-18.9-33.5-5.7-80.5-7.9-113.7-5.3m.2 89.4c7.1 5.4 26.4 15.6 32.1 17 3.1.8 3.4 1.3 6.7 12 3.1 9.6 6.3 16.3 12.2 25 3.6 5.4 4.9 8.1 4.5 9.7-3.9 16.6-8.7 42.2-8.7 46.3 0 1.5-23.3 23.2-28.6 26.7-3.5 2.3-6.4 4.6-6.4 5 0 1.5-6 3.8-16.8 6.2-12.6 3-15.4 3.1-23.6 1.1-3.7-.9-6.6-1.1-8.1-.5-2.5 1-10.5-1-20.5-5-8.3-3.3-10.7-5-15.5-11.1-2.4-3.1-5.7-6.2-7.3-6.8-1.9-.8-5.1-4.3-8.9-9.9-8.2-11.9-9-13.7-9.8-22.2-.4-4.1-1.4-9-2.1-10.8-2.2-5.5.4-26.7 4.5-36.1 1.8-4 3.5-8.9 3.8-10.8.4-2.1 1.5-4.1 3-5.1 7.9-5.5 17.9-14 25.9-21.9l9.1-9 5.6.5c7.6.6 25.7-1.4 33.7-3.7 3.6-1 6.8-1.9 7.2-2 .4 0 4 2.4 8 5.4"/><path d="M206.4 165.6c-1.6 3.8-3.7 15.4-2.9 16.2.4.4.7-.9 3.9-13.3 1.8-7 1.3-8.4-1-2.9m-1.3 44.8c.5 3.7 1.1 7.2 1.5 7.9 1.7 2.9 8.7 13.7 8.9 13.7s-.5-3.1-1.5-6.9c-1.8-7-5.6-16.1-8.2-19.5-1.3-1.7-1.4-1.1-.7 4.8M335 234.8c-5.7 3.8-10.2 7.7-13.3 11.6l-3.2 4 4.5-3.1c3.9-2.7 16.2-14.4 15-14.2-.3 0-1.6.8-3 1.7m-103.8 12.9c2.4 3.3 4.9 5.3 9.3 7.3 10 4.6 13.7 6.1 14.2 5.6.2-.2-2.2-2.5-5.3-5.1-5.3-4.3-11.4-7.9-18.7-11.2l-2.8-1.2zm45.8 12.7c-9.3 2.5 2.6 4.3 14 2.2 4.5-.9 8.4-1.6 8.6-1.6s.4-.5.4-1c0-1.4-17.4-1.1-23 .4"/></svg>