<svg xmlns="http://www.w3.org/2000/svg" width="682.667" height="512" version="1.0" viewBox="0 0 512 384"><path d="M268 113.9c-10.5 1.5-21.7 10.3-29.5 23.1-6.8 11.3-17.4 25.1-19.2 25-.4 0-.8 2.2-.9 4.8 0 2.6-.6 9.9-1.3 16.2-.9 8.2-.9 15.4-.3 25.1.8 12.2 1.3 14.4 4.2 20.6 3.9 8.6 9.6 14.4 20.6 21 15 9.1 31.2 13.3 50.9 13.3 21 0 33.7-3.6 48.1-13.6 15.4-10.7 20.3-18.8 21.5-35.9.8-9.6 1.2-11.7 4.1-17 3-5.5 3.3-6.7 3.3-15 0-8.2-.3-9.6-3.3-15.4-4.4-8.6-11.6-17.4-19.7-24.1-26.1-21.6-54-31.6-78.5-28.1"/></svg>