<svg xmlns="http://www.w3.org/2000/svg" width="682.667" height="512" version="1.0" viewBox="0 0 512 384"><path d="M178.5 2.7c-32.3 11.7-37.7 13.8-64 24.8-24 10-66.2 31.2-91 45.5-8.8 5.1-17.7 10.3-19.7 11.4L0 86.5V384h50.7c41.2 0 52.2-.3 58.3-1.5 4.1-.8 16.7-3.1 28-5.1 71.4-12.4 135.3-28.9 188-48.6 71.1-26.6 133.6-60.7 178.2-97.2l8.8-7.1V0L348.8.1 185.5.2zM269.6 94c6 1.1 18.1 2.3 26.8 2.7l16 .6 9 9.2c5.2 5.1 14.1 12.5 20.4 16.9s11.7 8.9 12.2 10.1c.5 1.3 1.2 5.2 1.5 8.7 1 9.4 4 20.8 8.2 31.1 2 5.1 3.6 10.1 3.5 11.2-.1 1.2-2.6 6.1-5.5 11.1-6.2 10.1-9.1 17.9-10.7 27.6-.6 3.8-1.5 7.9-2.1 9.2-.8 1.6-6.4 5.2-17.8 11.5-9.2 5-17.6 10-18.6 11.1-2.8 3.1-11.2 8.1-14.2 8.6-1.5.2-8.7.4-16 .4-13.2.1-18.9-.7-25.3-3.4-1.9-.8-6.2-1.7-9.5-2.1-8.3-.9-11.9-2.2-19.5-6.5-8.7-5.1-15.5-12.1-17.9-18.4-1.8-5-2-5.1-7.3-6.2-3-.6-5.9-1.4-6.6-1.8-.6-.4-2.7-3.7-4.7-7.5-2-3.7-4.9-7.8-6.5-9-1.7-1.2-3-2.9-3-3.7 0-2.5-4.6-11.8-6.9-13.8-1.5-1.4-2.1-3.1-2.1-6 0-4.5 2.9-13.8 5.1-16.5.8-.9 2.7-4.2 4.4-7.4 1.6-3.2 4.6-7.5 6.7-9.5 2-2 4-4.9 4.3-6.4.4-1.4 4-7 8.1-12.4 4.1-5.3 7.7-10.8 8-12.1.5-1.9 2.7-3.5 9.8-6.9 12.4-5.9 27.8-14.6 33.4-18.8 2.6-2 5-3.6 5.3-3.6s5.5.9 11.5 2"/><path d="M201.9 137.3c-3.1 3.8-5.2 7.7-4.6 8.3.9.9 5.5-1.5 6-3.3.3-1 1-3.3 1.5-5.1 1.3-4 .5-4-2.9.1m11.3 96.8c1.6 3.9 3.7 6.3 8.2 10 6.3 4.9 15.4 10.4 16.2 9.7 1.9-2-21.7-24.8-25.7-24.8-.4 0 .2 2.3 1.3 5.1m44.8 23.8c0 2 7.1 3.4 19 3.7 9.6.3 11.9.2 10-.7-6.8-2.9-29-5.2-29-3"/></svg>