<svg xmlns="http://www.w3.org/2000/svg" width="682.667" height="512" version="1.0" viewBox="0 0 512 384"><path d="M151.5 3.1c-3.8 1.6-7.9 3.3-9 3.8s-9 3.9-17.5 7.7C91.4 29.3 46.5 53.1 13.3 73.9L0 82.1V384h89c73.1 0 89.8-.2 94.2-1.4 112.8-29.9 196.2-65.9 266.3-114.9 19.1-13.4 31.2-22.9 47.7-37.6L512 217V0L335.3.1 158.5.2zm150.3 89.6c2.5 1.6 4.4 3 11.3 8.8 5.1 4.2 14.8 10.4 23.4 15.1 5 2.6 9.5 5.5 10.2 6.3.6.9 2.1 5.2 3.3 9.6 3.2 12 5.6 17.9 11.6 29.2 3 5.6 5.4 11 5.4 12s-1.8 5.9-4 11c-4.7 10.7-8 24.5-7.8 32.7.2 6.7-1.8 10.1-7.8 13.1-7.3 3.8-18.9 11.5-22.6 15-2.1 2-4.5 5.1-5.4 7.1-.9 1.9-3.5 4.8-5.8 6.3-3.7 2.6-5.5 3-17.1 4.1-17.1 1.5-46.7.4-54.7-2-6.8-2.1-17.6-8-22.5-12.3-1.9-1.7-4.6-5.5-5.9-8.4l-2.3-5.4-3.8.7c-4.2.8-4.3.8-12.6.6-6.6-.2-8-1.3-13.5-10.3-1.8-3-4.6-6.3-6.2-7.4-1.9-1.3-3.8-4.1-5.1-7.5-1.2-3-3.9-7.3-6.1-9.5-2.8-3.1-3.8-4.9-3.8-7.4 0-5.1 2.9-15.2 5.4-19.1 1.3-1.9 3.4-5.7 4.7-8.4 2.6-5.3 9-12.6 12.7-14.5 1.2-.7 2.2-1.8 2.2-2.6 0-.7 2.3-4.2 5.1-7.7 5.7-7.1 8.9-12.7 8.9-15.7 0-1.4 1.3-2.7 3.9-4.1 2.2-1.1 6.6-4.4 9.8-7.3 3.2-3 9.2-7.3 13.3-9.7s10.2-6.4 13.4-8.8l5.9-4.6 12.1 1.2c14.8 1.5 20.8 1.4 31.1-.3 10.8-1.7 10.2-1.7 13.3.2"/><path d="M192.2 143.1c-2.3 2.9-4.2 5.5-4.2 6 0 .7 5-.3 6.9-1.5 1-.6 2.6-8.4 1.9-9.2-.3-.2-2.3 1.9-4.6 4.7m22.8 93.2c0 2.4 3.8 8.2 7.2 11.2 4 3.5 22.4 13.2 23.4 12.3.4-.5-11.9-12.8-15.6-15.5-3-2.3-15-8.6-15-8m55 23.1c-5.5 1.2-5.5 1.2-2.1 1.9 4.1.9 22.5.7 26.6-.2 2.7-.6 2.5-.8-2.9-1.9-7.1-1.4-14.2-1.4-21.6.2"/></svg>