<svg xmlns="http://www.w3.org/2000/svg" width="682.667" height="512" version="1.0" viewBox="0 0 512 384"><path d="M94 8.6C69.4 23.3 55.2 33.7 11.7 68.9L0 78.4V384h317.5l6.6-6.3c3.6-3.4 11.5-10.8 17.5-16.3 69.2-64.3 97.4-105.8 109-160.7 3.1-14.9 4.4-42.8 2.5-57.2-1.9-14.5-8.5-39.6-17.2-65.2-15.1-44.5-15.4-46.5-8.8-53.8 1.8-2 1.8-2.1-5.4-2.1-7.8-.1-7.9-.1-45.5-14.8L356.8 0H108.4zM280.3 132c23.6 11.6 24.7 12.2 27.6 16.8 4.2 6.4 15.2 22 18.3 25.7.5.5 2 2.3 3.3 4 7.2 8.6 7.5 9.4 6.4 17-1.2 8.2-.4 28.3 1.5 35.6.8 2.8 1.1 6 .8 7.1-.2 1-3 3.7-6.2 5.8-10.9 7.4-20.7 20-20.2 26 .1 1.4-.1 3-.5 3.6-1.9 2.6-8.5 6.3-16.3 9.2-17.2 6.4-27.3 7.7-36.2 4.5-4.4-1.6-4.9-1.6-9 .1-2.8 1.1-8.2 2-15.3 2.3-9.5.5-11.9.2-17.3-1.6-8.3-2.8-13.6-6.2-17.1-11.1-2.6-3.7-2.9-3.8-4.4-2.2-1.4 1.6-12.1 18.4-15.6 24.6s-16 22.4-18.9 24.5c-1.7 1.1-5.2 2.4-7.9 2.7-2.6.4-6 1.3-7.5 2-3.9 2-5 1.8-9.5-2.1-4-3.4-4.1-3.4-5.8-1.5-2.2 2.4-7.7 2.7-9.5.5-.8-.9-1-2.9-.7-5 .5-3.3.4-3.5-2.9-4.1-1.9-.3-4.6-1.6-6.1-2.8-1.5-1.1-4.1-2.6-5.7-3.1-1.7-.6-3.5-1.9-4.1-3s-2.7-3.7-4.8-5.7l-3.8-3.7.2-8.3c.2-6.1-.2-9.2-1.5-11.5-1.6-3.1-1.5-3.6.6-10 1.2-3.8 2.2-7 2.1-7.3 0-.3-.4-1.9-.7-3.6-.5-2.4-.1-3.6 1.9-6 1.4-1.6 3.4-4.7 4.4-6.9 2.1-4.6 6.5-9.3 10.1-10.7 1.4-.6 5.7-1 9.7-.9 6.8.1 7.6-.2 12.7-3.7 3-2 5.5-4.2 5.6-4.9 0-.7.9-1.7 2-2.3 3-1.6 2.5-3.1-.6-2-3.8 1.5-4.2 1.2-1.4-1.1 2.1-1.7 2.2-2 .5-1.5l-2 .6 2-1.5c5.7-4.4 5.8-4.5 4-5.9-1.6-1.2-1.5-1.4.9-3.3l2.6-2.1-2.1-5.8c-1.1-3.3-2.2-8.4-2.6-11.4-.5-4.8-.2-6.3 2.2-10.8 1.5-2.9 3.2-5.5 3.9-5.9.6-.4.5.1-.3 1-2.9 3.6 1.2 1.7 5-2.3 2.8-2.9 4-5.2 4.4-8.4.4-2.5 1.4-5.1 2.1-5.7.8-.6 3-4.1 4.9-7.8 2-3.6 5.3-8.1 7.5-9.9s3.7-2.6 3.4-1.8c-1.4 3.6 10.9-2.2 19.9-9.4l6.1-5 12.5-.1c7-.1 17.8-.5 24.1-.9 6.3-.3 13.1-.7 15.1-.8 2.8-.2 9.2 2.5 28.2 11.8"/><path d="M175.5 139.8c-3.6 1.2-5.4 2.6-6.8 5l-2 3.3 5.4-3.2c6.4-3.9 10.5-6.9 9.3-6.9-.5.1-3.1.9-5.9 1.8m-24.4 34c-5.8 5.6-6.5 6.7-7.1 11.1-.7 5.6 1.8 15.8 3.8 15.4.7-.2 1.2.2 1.2.7 0 3.1 2.1 0 5-7.3 2.4-5.7 3.5-10.3 3.8-15.2.7-11.8.6-11.9-6.7-4.7m50 93.6c-3.3 4 5.1 13.9 14.8 17.6 6.9 2.5 16.9 4.1 21.7 3.3l3.5-.6-3.2-3.3c-4.9-5-17.5-13-25.2-15.9s-10-3.1-11.6-1.1m73.4 11.2c-6.6 1.4-16.4 4.9-15.6 5.7 1.9 1.9 12.8 2 20.1.2 9.1-2.2 16.2-4.9 15.4-5.8-.8-.7-16.4-.8-19.9-.1"/></svg>