<svg xmlns="http://www.w3.org/2000/svg" width="682.667" height="512" version="1.0" viewBox="0 0 512 384"><path d="M0 192v192h97.7l-.5-2.6c-.3-1.7.3-3.6 1.8-5.6 2.1-2.9 2.2-3.3.9-8.6-.7-3-2.3-6.5-3.4-7.6-3-3.1-5.6-13.8-3.5-15.1.5-.3 1.4-3.2 2.1-6.5 1.1-5.8 1.3-6 7.3-9.9 3.3-2.1 8.8-5.4 12.1-7.1 9.7-5.3 14.1-8.3 12.8-8.7-.8-.3-.2-1.4 1.5-2.8 1.5-1.4 2.1-2.5 1.5-2.5-1.8 0-1.6-2 .2-2 1.5 0 4-3.8 3.1-4.7-.7-.8 1.5-2.8 5.2-4.7 1.8-.9 3.2-1.9 3.2-2.2 0-.2-.8-.1-1.7.4-1.9 1-12.3 2.4-12.3 1.7 0-.2 1.7-.9 3.8-1.5 4.5-1.2 8.7-4.4 7.7-5.9-.3-.6-.2-1.1.4-1.1.5 0 .9-1.2.8-2.7-.2-2.6.1-2.8 3.3-2.8 2.9 0 3.7-.5 4.5-2.6 1-2.6 8.8-9.9 10.6-9.9 1.9 0 .7-2.3-3.3-6.6-5.4-5.6-9.8-13.8-9-16.7l.7-2.2.3 2.2c.6 4.2 2 2.4 2.7-3.5.7-6.1-.9-11.6-4.1-14.3-.9-.8-2.3-2.8-3.1-4.6-1.6-4-1.7-14.9-.1-15.9.7-.4.8-.3.4.4s-.1 1.2.7 1.2c2 0 9-7.9 10.5-11.8.7-1.7 1.7-4.5 2.3-6.2 1-2.7 4.9-8 4.9-6.7 0 .7 3.6-.7 13.6-5.3 3.5-1.7 6.6-3 6.9-3 .2 0 4.8-2.1 10.2-4.8l9.8-4.7 16.3.3c13.9.3 16.8.1 18.9-1.3 1.4-.9 5.9-2 10-2.4 5.8-.6 7.9-1.2 8.9-2.7.8-1 2.5-3.1 3.9-4.7 1.4-1.5 2.5-3.2 2.5-3.7 0-.6.5-1 1.1-1s.9 1.2.8 2.8c-.2 1.5 0 3.3.5 4 .4.7.5 2.4.2 3.6-.5 1.9.6 3.7 6 9.2 3.6 3.7 7.3 7.8 8.1 9.1.9 1.3 3.8 3.5 6.5 4.9s6.1 3.7 7.7 5.2c5.2 5.1 28.3 30.7 29.9 33.1 1.3 1.9 1.6 5.2 1.7 16 0 12 .3 14.1 2.3 18.2 2.6 5.4 2.3 6.9-3.4 15.1-9.8 14.1-19.1 21.7-23.3 19.1-1.6-1-2.5-.6-6.1 2.7-10.1 9.3-20.3 14-30.5 14-5.2 0-10.9-1.6-13.2-3.8-1-.9-1.3-1.3-.6-.8 2.9 1.9 1.1-2.4-2.2-5.3-3.7-3.2-5.1-3.9-3.9-2 .4.8 0 .7-1.5-.1-1.2-.6-3.2-.8-4.4-.4s-2.9.8-3.7.9-2.2.4-3 .8c-3.3 1.5-11.4 3.6-12.1 3.1-.4-.2-1 0-1.4.6-.3.5-1.9 1-3.5 1-6.7 0-7.4.9-10.2 13.1-1.5 6.3-3.6 19-4.7 28.4-2.8 22.9-4 30.1-6.1 35.8l-1.8 4.7H512V264.9c0-95.1-.3-119-1.2-118.2-.7.5-3.1 1.5-5.3 2.2-4.2 1.3-8.8 3.3-19.5 8.5-5.8 2.7-7.4 3.1-15 3-6.4-.1-10.4-.7-16-2.7-10.4-3.6-29-11.9-38-17.1-4.1-2.3-17.4-9.2-29.5-15.3-12.1-6-27.8-14.2-35-18C327.2 93.6 322.1 91 320.6 91c-.8 0-9.5-6.4-19.3-14.2-24.4-19.5-44.5-35.3-52.8-41.8-3.8-3-7.4-6-8-6.6-.5-.6-4.1-3.5-8-6.5-3.8-3-11-9.1-15.9-13.7l-9-8.2H0z"/><path d="M156 200c0 .5-2.7 3.8-6 7.3-4 4.3-6 7.3-6 8.9 0 3.4 2 8.8 3.2 8.8.6 0 .7-.7.4-1.6s1.3-5.1 3.8-9.7c4-7.6 6.6-14.7 5.2-14.7-.3 0-.6.4-.6 1m-3 37.3c0 2.5-.5 6.8-1.2 9.6-1.1 4.7-1 5.2 1.5 9.1 1.5 2.2 4.5 5.1 6.8 6.5l4 2.6 3.4-2.1 3.4-2.1-2.3-6.7c-3.1-9.1-4.8-12.1-8.8-15.8-6.8-6.2-6.8-6.2-6.8-1.1m162.2 34.9c-3.8 1.8-13.2 10.9-13.2 12.7 0 .4 1.2 1.4 2.6 2.2 2.6 1.3 2.8 1.2 8.3-4.7 3.1-3.3 6.7-7.5 8-9.2 2-2.9 2.1-3.2.4-3.2-1 .1-3.7 1-6.1 2.2m-103.9 18c-1.4 3.2-.6 4.6 2.2 4 2.9-.5 2.8-.3 1.5-3.6-1.2-3.2-2.4-3.3-3.7-.4M300 289c0 .5.5 1 1 1 .6 0 1-.5 1-1 0-.6-.4-1-1-1-.5 0-1 .4-1 1m-47.7 2.3c-2.4.5-4.3 1.4-4.3 1.9 0 1.4 8.5 9.5 11.9 11.3 2.7 1.4 4 1.4 9.4.4 6.9-1.4 17.6-5.9 19.6-8.3 1.1-1.3.9-1.7-1.3-2.6-9.9-3.7-26-5-35.3-2.7m-26.2 4.3c-1 2.2-.9 2.2 2 1.2 3.9-1.3 4.4-2.5 1.5-3-1.8-.4-2.7.1-3.5 1.8"/></svg>