<svg xmlns="http://www.w3.org/2000/svg" width="682.667" height="512" version="1.0" viewBox="0 0 512 384"><path d="M0 192v192h55.5c47.5 0 55.5-.2 55.5-1.4 0-.8-1.2-2.4-2.8-3.4-1.5-1.1-3.9-4.3-5.4-7.1-2.3-4.5-2.5-5.4-1.4-8.6.7-1.9 1.5-3.7 1.9-4.1.3-.3.3-2 0-3.6-.5-2.5.1-3.5 4.3-7.5 2.7-2.5 9.9-8.2 15.9-12.7 11.1-8.3 19.1-15.5 18.7-16.8-.1-.4 1.4-1.9 3.3-3.4 3.3-2.5 4.3-4.7 1.3-2.8-1.8 1.2-8.2 3.4-8.6 3-.2-.2 1.4-1.4 3.5-2.7 4.5-2.7 6.4-4.9 5.8-6.7-.2-.6 0-1.2.6-1.2s.8-.9.4-2c-.8-2.4 1.1-5.1 2.9-4.4 1.6.6 4.6-2.2 4.6-4.2 0-.8 3.9-5.2 8.6-9.9s7.9-8.5 7.1-8.5c-2 0-12.4-9.6-14.2-13.1-.8-1.5-1.5-4.1-1.4-5.6.1-2.7.1-2.7.9.5 1.4 5.9 2.3 4.8 1.7-2.2-.3-3.8-.9-7.1-1.4-7.5-.6-.3-1.3-1.7-1.6-3.1-.4-1.5-2-3.2-3.9-4.1-3.9-1.9-6.6-6.9-7.3-13.4-.3-2.8-.3-4.4.1-3.8 1 2.2 2 1.5 5.8-4 2.5-3.7 3.9-7.1 4.6-11.2 1.1-6.8 3.1-9 12.2-13.8 9.3-4.8 15.1-8.1 21.2-12 6.7-4.4 10.8-5.3 28.4-6.2 12.2-.7 12.4-.7 18.2-4.6 4.5-3 6.9-3.9 10.1-3.9 5.8 0 11.8-2.7 11.2-5-.3-1.2.3-2.3 1.7-3 1.1-.6 2.6-2.3 3.2-3.8l1.2-2.7.4 3c.2 1.6.8 3.5 1.3 4.2.6.6.7 2.2.4 3.5-.4 1.6-.1 2.9.9 3.7.9.8 1.6 1.8 1.6 2.4 0 .5 2.7 3.4 5.9 6.4 3.7 3.3 6.2 6.4 6.6 8.2.3 1.6 1.8 3.7 3.3 4.7 4.7 3 26.5 20.5 31.5 25.3 5.9 5.5 7.3 8.1 8.2 14.6 1 6.8 4 16 7 21.3 1.4 2.5 2.5 5.6 2.5 7 0 3.8-9.6 21.2-14 25.5-3.9 3.7-7.4 5-6.4 2.3.3-.8.1-1.7-.5-2.1-.6-.3-1.1 0-1.1.8s-3.8 5-8.4 9.4c-7.1 6.7-9.4 8.3-15 10.1-7 2.3-15.1 2.8-17.6 1.2-1.3-.8-1.3-1 .2-1 1.2 0 .7-1-2-3.6-4.9-4.8-8.2-7-9-5.8-.4.5-1.6 1-2.7 1.1-3.2.3-4.7.8-9.3 3.2-2.4 1.2-6.9 2.6-9.9 3.1-3.7.6-6 1.6-7 3-.8 1.1-2 2-2.7 2-.8 0-1.9.7-2.6 1.5s-2.8 1.7-4.9 2.1c-2 .4-4.3 1-5.2 1.5-3.1 1.6-5.8 25-6.2 53.7l-.2 18.2H512V234c0-82.5-.2-150-.3-150-.3 0-7.5 8.8-16.7 20.5-3.1 3.9-13.2 13.2-17.4 16.2-8.9 6-21.4 10.1-34.6 11.4-19.5 2-32.7.1-63.1-8.6-6.8-1.9-15.8-4.4-19.9-5.6-8.3-2.4-30.3-9.1-39.1-12-8.1-2.6-15.6-3.4-17.4-1.9-.9.7-1.7 1.1-1.9.9-.1-.2-1.2-2-2.4-3.9-1.1-1.9-6.9-8-12.8-13.5-61-56.6-75.8-71.5-82.6-83.5l-2.3-4H0z"/><path d="M155.6 215c-1 1.9-3.4 5.6-5.2 8.1-4 5.4-4.1 6.6-1.4 11.9 2.4 4.7 3.7 5.1 3.7 1.2 0-1.5 1.2-6.1 2.7-10.2 1.5-4.2 2.6-9 2.4-11l-.3-3.5zm4.4 32c.5 1.7 1.2 6.3 1.6 10.3.8 8.6 2.8 11.7 9.3 14.8l4.5 2.1 2.8-3.4c1.5-1.8 2.8-3.8 2.8-4.3 0-.6-1.3-3.3-3-6.1-3.1-5.6-8.4-10.6-14.8-14.2l-4.1-2.3zm163 18.7c-4.5 3-7 5.6-9.4 9.9s-2.4 4.3-.4 6.1c1.9 1.7 2.1 1.7 4-.7 2.1-2.6 9.8-15.5 9.8-16.4 0-1-1.4-.6-4 1.1m-91.5 23.4c.4 1.3.7 4.3.6 6.5-.1 5.3 1.6 5.9 8.8 3.1l5.3-1.9-2.8-2.4c-1.6-1.2-5.1-3.5-7.8-5l-4.9-2.7zm44.5-1.4c-2.7.4-12 3.3-13.3 4-.8.5 7.2 8.1 10.7 10 5.1 3 13.8.6 22.3-6.1 2.9-2.3 5.2-4.4 5.3-4.8.1-1.5-19.9-4.1-25-3.1"/></svg>