<svg xmlns="http://www.w3.org/2000/svg" width="682.667" height="512" version="1.0" viewBox="0 0 512 384"><path d="M0 192v192h113.2l-.5-3.5c-.3-2.2 0-3.9.9-4.6s1.2-2.4.8-5.2c-.5-4.1-.4-4.3 7.3-12.2 4.3-4.4 12.3-12.3 17.8-17.6 13.8-13.2 16.9-17.1 17.3-21.4.4-5.3 2.7-8.3 5.7-7.7 1.8.3 2.5 0 2.5-1.1 0-.8.7-2 1.5-2.7s1.3-1.6 1-2c-.3-.5-.1-1.1.5-1.5.5-.3 1.9-2.5 2.9-4.8 1.1-2.4 2.9-5.1 4-6.1 2.3-2.1 7.1-9.9 7.1-11.5 0-.6-2-2.2-4.5-3.6-4.6-2.7-9.5-7.8-9.5-9.8 0-.6.7-.2 1.5.9 1.8 2.4 2 .7.4-5.1-1.6-6.3-3.1-9.5-4-8.9-.5.3-.9-.2-.9-1 0-1.7-3-3.6-5.7-3.6-3.4 0-10.3-9.2-10.3-13.7 0-1.5.2-1.6 1-.3 1.5 2.4 7.2-10.6 6.5-14.8-1.3-6.9-.1-8.5 11.8-16.8 6.2-4.2 13.5-9.6 16.2-11.9 2.8-2.3 6.5-4.7 8.4-5.4 3.4-1.1 17.5-3.4 28.6-4.6 5.2-.6 6.5-1.2 11-5.2 5.7-5.2 7.2-5.9 13.7-6.8 2.5-.3 5.2-1.3 5.8-2 .7-.8 1.9-1.5 2.6-1.5.8 0 1.4-1 1.4-2.4 0-1.3.7-3 1.6-3.7s2-2.3 2.5-3.6c1.1-2.9 2.3-2.9 2.6-.1.6 7 1.1 9.9 2 11 .6.7 1.3 2.3 1.7 3.4.4 1.2 2.6 3.4 5 4.9 3.3 2.1 5 4.3 7.8 9.9l3.6 7.2 12 7.3c15.9 9.6 19.7 13 23.6 21 3.2 6.7 9.8 18.1 13.5 23.6 2.8 4 2.6 6.1-.9 16.1-3.6 10.2-5.3 13.7-8.2 16.4s-3.6 2.5-3.2-.8c.2-1.6.1-1.9-.2-.8-.4 1.1-3.1 5.1-6.1 8.9-7.9 9.8-16.3 14.7-25.3 14.7-2.6 0-3.1-.3-2-1 1-.6 1.1-1 .3-1-.7 0-3-1.5-5-3.3-6.7-6-6.5-6-17.9 0-8.6 4.5-11.5 5.5-17.6 6.1l-7.3.7-2 4.2c-1.1 2.4-2.4 4.3-3 4.3-.7 0-2.2 1.1-3.4 2.4-1.3 1.3-3.3 2.7-4.6 3-1.2.3-2.5 1.6-2.8 2.8-.4 1.3-1.3 3.2-2.2 4.3l-1.5 2 .7-2c.3-1.1 1-2.5 1.5-3.2s.5-1.4-.2-1.8c-1.9-1.2-3.1 4.8-3.7 18.9-.5 12.7.8 38.3 2.4 44.3l.5 2.3H512V207.2c0-171.9-.1-176.6-1.9-173.7-1 1.6-3.5 6.1-5.6 9.9-2.1 3.9-6.2 10.5-9.2 14.8-2.9 4.3-5.3 8.1-5.3 8.4 0 1-17.5 21.1-21.4 24.5-11.2 9.9-26.5 18.6-40.2 22.9-27.5 8.6-37.8 8.6-100.9-.2-8.2-1.1-18.6-2.1-23.1-2.2-7.4-.1-8.5.2-10.7 2.3-2.9 2.7-4.2 2.3-5.2-1.6-.8-3.3-4.3-7.5-25.1-29.8-37.7-40.5-46.1-50.1-53.3-61-6.1-9.3-6.6-10.1-9.5-16.3L198.1 0H0z"/><path d="M262.5 171c-.3.5-.1 1 .4 1 .6 0 1.1-.5 1.1-1 0-.6-.2-1-.4-1-.3 0-.8.4-1.1 1M158 227.2c-.7 2.3-2.1 6-3.2 8.2-2.2 4.3-1.9 6.9 1.3 10.9 2.6 3.5 4.4 3.4 4.6-.1.1-1.5.5-6.8.8-11.7.6-7.6.5-9.3-.8-10.3-1.4-1.2-1.7-.8-2.7 3m11.5 28.4c.7 1.5 2.1 5.7 3 9.5 1.4 5.5 2.4 7.5 5.1 9.9 3.4 3 7.4 4 7.4 1.9 0-.5.4-.8.9-.5.4.3.6-.6.3-1.9-.2-1.4-.8-2.8-1.3-3.1-1.4-.8-1-4.6.6-6.4 1.5-1.6 1.3-2-1.7-4.5-3.1-2.7-8.6-5.5-13.5-7-2.1-.6-2.2-.5-.8 2.1m155.9 5.6c-5 5.5-6.8 11.4-4 13.7 1.1.9 1.9-.2 4.3-5.6 5.4-12.1 5.3-14.1-.3-8.1m-36.9 22.2c-2.7.7-6.8 2-8.9 3l-4 1.7 2.5 1.6c1.3.9 4.2 3.2 6.3 5 5.3 4.4 9.4 4.4 16.3 0 2.9-1.7 6.8-5.1 8.7-7.3l3.5-4.1-6.1-.7c-8.3-.8-12.4-.7-18.3.8m-49.9 2.5c-2.1 2.3-2.4 7.3-.8 11.3 1 2.3 1.8 2.8 4.8 2.8 5 0 17.4-3.9 17.4-5.5 0-1.1-17.1-10.5-19.1-10.5-.3 0-1.4.9-2.3 1.9"/></svg>