<svg xmlns="http://www.w3.org/2000/svg" width="682.667" height="512" version="1.0" viewBox="0 0 512 384"><path d="M0 192v192h166.8l3.1-6.2c1.7-3.5 6-11.3 9.6-17.3 7.2-11.9 16-29.5 19.4-38.9 1.2-3.2 3.7-9.1 5.6-13 1.8-3.9 3.9-10.1 4.5-13.8 1.1-6.3 1.1-6.9-1-9.8-2.2-3.1-2.2-3.3-.6-6.6 1.6-3.5 2.2-6.3 1-5.1-.4.4-1.4-.1-2.3-1.1-1.3-1.4-3.1-1.8-8.6-1.8-7 0-11.1-1.5-14.2-5.3-1.5-1.8-1.7-3.5-.3-2.6.6.3 1 .4 1 .2 0-1-2.9-7.1-3-6.2 0 .9-.8-.4-5.1-8.2-1-1.8-.8-3.1 1-7.2 1.1-2.7 2.7-7.8 3.5-11.3 1.3-5.4 2.2-6.9 6.3-10.7 6.5-5.9 29.4-16.7 42-19.7.7-.2 2.8-3.4 4.7-7.1 4.2-8.3 6.5-10.6 14.1-13.7l6-2.4 2.4-7.4c1.3-4 2.6-8 2.9-8.8.5-1.7 3 4.3 3.1 7.6.1 1.2.8 2.7 1.7 3.5.9.7 1.3 2.1 1 3.4-.5 1.8.4 2.5 5.8 4.8 7.7 3.4 9.8 5.5 12.6 12.7 2.9 7.4 4.7 10 6.9 10 2.3 0 19.1 6.9 25.7 10.6 9.6 5.3 16.4 12.5 16.4 17.3 0 1.3 1.8 5.7 4 9.8l4.1 7.3-1.7 6.2c-1.8 7.1-3.8 11.3-6.7 14.6-2.1 2.2-4.7 3-4.7 1.3 0-.5-.8-1.1-1.7-1.4-1-.3-3.1-1.5-4.8-2.5l-3-2-5.5 6.6c-3.1 3.7-7.7 8.1-10.3 9.9-4.9 3.3-14.6 6.1-15.6 4.4-.7-1-14.6-9.3-17.5-10.4-1-.4-2.4-.3-3 .1-.6.5-2.4 1.2-3.9 1.6-2.8.7-2.9.8-2.2 5.6.5 3.4.3 5-.4 5-1.7 0-.6 10.8 1.3 12.9 2.3 2.5 2.1 10.2-.3 13.2-1 1.3-2.2 3.5-2.6 4.9s-1.6 3.1-2.6 3.8c-1.4 1-1.9 2.6-1.9 6.3 0 3.5-.3 4.8-1.1 4.3s-1 1.2-.7 6c.2 3.6 0 6.6-.4 6.6s-.8-.9-.8-2-.5-2-1.1-2c-2.7 0 3.4 24.9 8.8 35.8l3.8 7.7 125.3.3 125.2.2V0h-89.8L421 3.2c-9 24-26.4 50.3-46.3 70-6 6-11.2 10.8-11.7 10.8s-1.5.6-2.2 1.3c-2.2 2.2-20.7 13.1-28.8 16.9-4.1 2-12.7 5.7-19 8.3-29.1 11.9-31 12.8-36.4 18-2.3 2.2-5.3 6.6-6.6 9.7-1.4 3.2-2.8 5.8-3.1 5.8s-.9-2.6-1.3-5.7c-.4-3.6-1.9-7.9-3.8-11.3-3.8-6.9-13.7-21.8-16-24.4-1-1.1-1.8-2.3-1.8-2.7 0-.5-2.4-4.3-5.3-8.6-7.1-10.6-23.4-35.7-27-41.8C202.8 34.7 193 9.9 193 2.4V0H0z"/><path d="M184.1 256.7c1.6 4.2 3.5 8.3 4.3 9.2 1.8 1.7 11.9 3.1 14.1 1.9 1.3-.8 1.3-1.2.1-3.6-4-7.7-11-13.2-18.2-14.5l-3.2-.6zm144.7-4.3c-4.9 1.8-8.5 4.1-9.7 6.5-.9 1.6-.4 2.3 3 4.5 5.8 3.9 8.9 3.3 11.5-2.4 1.2-2.5 2.4-5.7 2.8-7.3.6-2.3.3-2.7-1.6-2.7-1.3.1-4 .7-6 1.4m-50.6 16.2c-8.9 2.4-8.9 2.5.7 7.7 9.5 5.1 12.9 5.6 18.9 3.2 4-1.7 11.2-8.2 11.2-10.1 0-2.6-22.1-3.2-30.8-.8"/></svg>