<svg xmlns="http://www.w3.org/2000/svg" width="682.667" height="512" version="1.0" viewBox="0 0 512 384"><path d="M277 126.1c-14.6 1.9-32.8 8.8-39.4 15-1.7 1.6-3.4 2.9-3.8 2.9-1 0-6.7 9.7-8.8 15-1 2.7-3.3 10.8-5 18.1-4.9 21.5-3.7 35.5 4.2 50 11.3 20.7 15.8 27.7 21 33 6.5 6.7 9 8.1 17.8 10.4 3.6.9 6.9 2.1 7.4 2.6 1.7 1.6 15.7 1 26.1-1.2 27.9-5.8 50.7-19.4 66-39.3 12.8-16.8 15.2-35.4 6.2-49.8-2.4-3.9-3.1-6.4-3.8-13.8-1.3-14.2-6.4-22.5-18.8-30.9-6.7-4.6-19.7-9.4-31.1-11.5-8.8-1.7-27-1.9-38-.5"/></svg>