<svg xmlns="http://www.w3.org/2000/svg" width="682.667" height="512" version="1.0" viewBox="0 0 512 384"><path d="M0 192v192h177.8l1.2-3.4c.6-1.9 3.5-8 6.5-13.5 9.3-17.4 15.3-30.5 19.5-42.6 1.5-4.4 3.9-10.8 5.4-14.2 1.4-3.4 3.1-9.7 3.7-13.9 1.1-6.8 1-8.1-.5-10.9-1.6-3-1.7-3.5-.2-6.3 1.8-3.4 2.1-5.6.7-4.8-.5.3-1.4-.1-2.1-.9-.8-1-3-1.5-6.1-1.5-6.7 0-12.6-2.5-14.5-6.2-1.2-2.3-1.2-2.8-.2-2.2 1.3.8-.2-1.5-2.9-4.4-.7-.7-1.3-2-1.3-2.8s-1-1.4-2.4-1.4c-3.2 0-5-2.4-4.3-5.7.3-1.6 1.2-6.8 2-11.8 1.5-9 1.5-9 7-14.1 7.6-7.1 25.7-17.3 35.1-19.8 3.3-.8 6.2-1.8 6.6-2.3.3-.4 1.9-3.8 3.4-7.4 3.2-7.9 6.1-10.9 13.9-14.4 3.7-1.7 5.7-3.2 5.7-4.4 0-.9.6-2.6 1.4-3.7s1.7-4.1 2.1-6.7 1.1-4.7 1.5-4.7 1.3 2.1 2 4.7c.7 2.7 1.7 5.3 2.2 6 .5.6 1.3 2.4 1.7 3.8.5 2.1 1.7 3.1 5.1 4.2 6.2 2.1 9.5 5.5 14.1 14.6 2.2 4.3 4.5 7.9 5.2 8.1 10.2 2.8 18.4 5.5 23.4 7.7 6.4 2.8 14.5 9.5 16.8 13.8.7 1.5 3.8 5.7 6.8 9.4 5.1 6.4 5.4 7.2 5 11-.8 7.3-3.2 14.3-5.7 17-2.4 2.5-5.4 3.8-4.1 1.8.3-.6-1.1-2.1-3.1-3.5l-3.7-2.5-1.7 2.2c-.9 1.2-2.6 3.9-3.9 5.9-5.5 9.1-20.8 17.2-23.8 12.5-.4-.6-4.1-2.9-8.1-5-6.8-3.6-7.5-3.8-10.5-2.6-1.8.7-5.3 2.9-7.9 4.9-4.3 3.2-4.6 3.8-4.1 6.7.3 2.1.1 3.3-.6 3.3-1.7 0-1.1 7.8 1 13.3 2.3 5.8 2.5 12 .4 13.7-.8.7-1.5 2-1.5 2.9s-1.1 3.3-2.5 5.3c-1.8 2.6-2.5 5.1-2.6 8.5-.1 6.2-1.7 10.6-1.8 5-.2-7-2.1-2.8-2.1 4.5 0 8.7 4.4 24.7 9.6 35.1 2 4 4.2 8.2 4.8 9.4l1.1 2.3H512V0H402.2l-2.1 6.7c-3.3 11-12.5 28.2-24 44.8-6.7 9.8-20.8 25.3-29.7 32.6-7.6 6.4-31.2 21-42.9 26.7-6.5 3.2-24.4 13.7-27.1 16-3.6 3-8.2 10.2-9.9 15.3-.9 2.7-2 4.7-2.5 4.4-.4-.2-1-2.7-1.4-5.4-.3-2.6-2.1-7.7-3.8-11.2-2.8-5.6-11.9-20-27.2-43-9.3-14.1-25.6-41.7-29.6-50.2-4.7-10-9.2-24-10.5-32.5l-.7-4.2H0z"/><path d="M185.1 237.6c0 1.1.3 1.4.6.6.3-.7.2-1.6-.1-1.9-.3-.4-.6.2-.5 1.3m151.9 6.1c-5.1 1.4-9.3 4-10.6 6.5-1.4 2.7-1.4 3 .8 4.8 1.3 1 3.4 2.5 4.7 3.2 2 1.1 2.5 1 3.7-.6 1.4-1.9 3.8-12 3.2-13.5-.2-.4-1-.6-1.8-.4m-144.5 16.2c3.9 7.4 7.1 10.1 11.8 10.1 2.5 0 8.6-2.2 10-3.6 1-1-7.6-8.8-12.2-11-2-1-5.8-1.9-8.5-2.2l-4.9-.5zM299 261c-6 .7-15.7 3.7-16.5 4.9-.2.5 3.1 2.5 7.3 4.5 8.4 3.9 13.5 4.5 18.1 2.1 3.3-1.7 10.3-9.4 9.8-10.8-.4-1.2-11.5-1.6-18.7-.7m-36 11v3.1l3.1-2.1c3.4-2.5 3.4-2.5-.3-3.4-2.6-.6-2.8-.4-2.8 2.4m33.8 4.7c.7.3 1.6.2 1.9-.1.4-.3-.2-.6-1.3-.5-1.1 0-1.4.3-.6.6"/></svg>