<svg xmlns="http://www.w3.org/2000/svg" width="682.667" height="512" version="1.0" viewBox="0 0 512 384"><path d="M0 192v192h193.8l1.3-3.7c.7-2.1 4.6-11.2 8.7-20.3 7.7-17.2 13.2-31.9 13.2-35.5 0-1.1.4-2.5.9-3.1 2.5-2.7 7.4-33.6 5.9-37-.8-1.8-.8-3.1 0-4.9 1.4-3.1 1.6-5.8.3-5-.5.3-1.6-.2-2.4-1-.9-.8-2.2-1.5-2.9-1.5-2.8-.1-9.8-4-9.8-5.5 0-.9-.7-2.3-1.5-3.1-.8-.9-1.5-1.3-1.5-.9 0 .3-1.1-.7-2.4-2.2-2-2.2-2.7-2.6-3.7-1.6-3.4 3.4-11.8-.2-10.7-4.4.3-1 .1-4.9-.3-8.7-1-8.3-.2-10.1 7.3-17.1 13.1-12.2 20.2-17.1 29.5-20.6 4.2-1.5 8-3.4 8.5-4.1.4-.7 1.7-4.2 2.9-7.7 2.6-7.6 7.2-13.1 13.7-16.2 5.8-2.8 5.9-2.8 4.4-3.8-.9-.5-.8-1.3.5-3.1.9-1.3 1.8-3.3 1.8-4.5.1-1.1.2-3.5.3-5.3.3-4.8 1.6-3.9 3.7 2.5 1 3.2 2.5 6.5 3.2 7.4.7.8 1.3 2.1 1.3 2.7s1.2 1.4 2.8 1.8c4.8 1 11.3 4.8 13.5 7.8 1.2 1.7 3.8 5.7 5.7 9l3.6 6 8.5 1.7c4.7.9 10.1 2.5 12 3.4 8.5 4.4 20.3 12 24.9 16.2l5 4.5v9.4c0 8.2-.3 9.7-2.1 11.5-1.6 1.6-2.3 1.8-3.5.8-1.6-1.3-1.9-3.4-.4-2.4 1.6 1 1.1-.1-.7-1.6-.9-.8-1.4-.9-1-.3.4.7 0 1.7-.7 2.4-.8.6-1.8 2.5-2.1 4.2-1.7 7.5-16.6 17.7-19.8 13.5-.6-.9-3.9-2.9-7.1-4.5-6.7-3.3-6-3.5-13.7 4.2-3.3 3.2-7.4 5.9-12.5 8.1-4.1 1.8-7.1 3.6-6.5 4 1.5.8 1.4 4.5 0 4.5-1.8 0-.5 8.8 1.9 14.2 2.3 4.9 2.9 11.2 1.2 12.3-.5.3-1 1.5-1 2.6 0 3-2.9 8.1-6.1 10.9l-3 2.5 1 8.7c1.3 11.2 6.7 27.3 14 41.3l5.7 11 113.2.3 113.2.2V0H367.4l-1.2 6c-1.2 5.8-5.8 19.2-8.7 25.5-4.5 9.7-9.7 19.9-13.4 26-9.8 16.1-26.9 33.4-51.6 52.1-7.7 5.8-15.7 12.3-17.9 14.3-5.7 5.4-10.3 13.1-12.2 20.5-.9 3.6-1.9 6.6-2.3 6.6s-1.2-3-1.9-6.7c-1.4-7.3-5.1-14.6-14.2-28.3-3.1-4.7-7.9-12.1-10.7-16.5-2.7-4.4-8.5-13.6-12.7-20.5-4.3-6.9-8.7-13.8-9.8-15.3-4.2-6.1-12.7-24-15.6-32.9-1.7-5.1-3.8-14.2-4.8-20.1L188.6 0H0z"/><path d="M336.6 233.1c-1.4 1.1-2.6 3-2.6 4.2.1 2.3 3.2 6.7 4.8 6.7 1.3 0 2.2-3.5 2.2-8.8 0-4.8-.6-5.1-4.4-2.1m-144.9 15.8c.8 8.6 1.1 9.3 4.1 8.9 2.9-.3 3.1-1.4 1.1-8.9-.7-2.7-1.6-3.8-3.3-4.1-2.2-.4-2.3-.2-1.9 4.1m125.9-.8c-5.2.8-16.6 5.1-16.6 6.3 0 1 13.5 6.6 16.1 6.6 1.7 0 4.1-.7 5.5-1.6 2.5-1.7 7.4-9.1 7.4-11.2 0-1.4-3.7-1.4-12.4-.1m-111.3 7.7c-1.6 1 5.6 10 9.8 12.3 2.7 1.5 3.2 1.5 6.4.1 2.3-1.1 3.5-2.3 3.5-3.7 0-1.1.3-3 .6-4.2.5-1.9 0-2.4-4.7-3.7-5.6-1.7-13.6-2.1-15.6-.8m63.2 7.4c1 8 1 8 5.2 7.2 4.7-.8 8.3-2.6 10.7-5.3 1-1.1 2.2-1.8 2.6-1.6.4.3 1.1-.2 1.4-1 .3-.9 0-1.8-.7-2-2.6-.9-13.2-2.5-16.4-2.5h-3.4z"/></svg>