<svg xmlns="http://www.w3.org/2000/svg" width="682.667" height="512" version="1.0" viewBox="0 0 512 384"><path d="M0 192v192h199.6l4.1-10.3c2.3-5.6 5.9-14.2 8.1-19.2 7.3-16.5 10-25.6 9-29.5-.8-2.9-.7-3.7.9-5 1-.8 2.2-2.4 2.6-3.4.9-2.3 4.4-29.5 4.4-34.6.1-1.9.4-4.7.8-6.2.6-2.4.5-2.6-1.4-2.1-1.3.3-2.3 0-2.7-1-.3-.9-2.1-2.5-4-3.7-2-1.1-3.3-2.4-3-2.9s-.1-1.4-.9-2.1-1.5-.9-1.5-.4c0 .4-1.5-.7-3.4-2.5l-3.5-3.4-3.4 2.2c-7 4.3-10.9 1.9-12.5-7.9-.6-3.6-1.4-7.4-1.7-8.5-.8-2.8 3.5-9 13.1-18.6 9.6-9.7 13-12.1 23-16.2 7.4-3.1 8-3.5 9.2-7.2 4.3-13.7 8.3-19.2 15.8-22.1 2.4-.9 4.4-2.1 4.4-2.6s-.4-.6-1-.3c-1.4.9-1.2-2.9.2-4.3.7-.7 1.3-2.2 1.3-3.5.4-7.3.6-8.7 1.3-8.7s4.2 7.8 4.2 9.5c0 .6.9 1.8 2 2.8 1.1.9 2 2.3 2 3s2.5 2.1 5.5 3.1c7.2 2.2 10.2 5 15 13.5 2.5 4.4 4.8 7.3 6 7.5 19.8 4 35.3 10.6 43.5 18.5l5 4.7v9.2c0 9.1-.8 11.4-3.4 9.3-1-.8-1.8.2-3.5 4.4-3 7.2-8.8 12.5-13.8 12.5-2 0-3.3-.3-3-.6.7-.7-9-6.3-11-6.4-.6 0-4.2 3.2-8 7-7.2 7.5-13.7 10.9-21.4 11.2-4.2.1-4.8 1.3-2.7 4.8 1 1.6 1 2.4 0 4-1.3 2.2-.3 9 2.2 13.9 2.1 4.1 2.9 9.1 1.8 11.5-.6 1.1-1.3 3.9-1.7 6-.4 2.7-1.9 5.2-4.6 8-3.9 3.9-4 4.2-3.3 9.1 1 7.8 6.7 24.3 13.4 38.4 3.3 7.2 6.3 14.4 6.6 16l.7 3.1H512V0H351.3l-.7 5.5c-.8 6.7-3.7 17.8-7.5 28.3-11.5 31.5-23.2 47.4-56.9 76.9-19.7 17.3-23.4 22.4-26.2 35.7-.6 3.1-1.6 5.4-2.1 5-.5-.3-.9-1.1-.7-1.7.9-4.7-4.1-16.2-12.3-28.5-2.7-4-4.9-7.7-4.9-8.2 0-.6-.4-1-.8-1s-2.5-2.8-4.5-6.3c-2.1-3.4-8.7-13.9-14.8-23.2-12.7-19.8-21.8-37.7-24.9-49-2.9-10.6-5-22.9-5-28.8V0H0zm217.5 73c.3.5.1 1-.4 1-.6 0-1.1-.5-1.1-1 0-.6.2-1 .4-1 .3 0 .8.4 1.1 1"/><path d="M337.2 227.2c-1.7 1.7-1.5 4.4.4 7.3 2.6 3.9 3.7 3.1 2.9-2.3s-1.6-6.7-3.3-5M325 241.7c-4.7.8-11.5 3.3-14 5.3l-2.5 1.9 6.8 3.1c7.4 3.5 10 3.5 14-.3 1.4-1.2 3.2-4.1 4.1-6.5l1.6-4.2-3.8.1c-2 .1-4.8.4-6.2.6M197.5 247c-.4.6-1 .8-1.5.5-1.3-.8.1 7.7 1.6 10.2 1.5 2.3 3.5 2.5 6.7.7 1.7-1 1.7-1.2.1-5.5-.9-2.4-2.2-5-2.7-5.7-1.1-1.5-3.3-1.6-4.2-.2m74.8 7.6c-1.2.6-.7 6.5.9 9.6 1.1 2.3 10.4 2.5 15.1.4 5-2.2 11.2-8.2 9.6-9.2-1.5-.9-23.8-1.6-25.6-.8m-57.1 1.2c-2.2.7-2.1.9 2.5 5.3 2.6 2.6 5.8 5.2 7 5.8 2.8 1.4 5.3.4 5.3-2.3 0-1.1.3-3.8.6-5.9l.7-3.7-6.9.1c-3.8.1-7.9.4-9.2.7m55.5 51.8c-.4.4-.7 1.9-.6 3.3v2.6l1-2.4c1-2.6.8-4.7-.4-3.5"/></svg>