<svg xmlns="http://www.w3.org/2000/svg" width="682.667" height="512" version="1.0" viewBox="0 0 512 384"><path d="M0 192v192h204.8l1.7-4.7c1.4-3.9 8.4-21 15-36.8 3.2-7.6 4.7-14.8 3.5-17-1.6-3.1-.9-8 1.2-8 .9 0 1.9-.2 2.1-.5.9-.9 3.9-25.1 4.2-33 .1-4.1.6-8.4 1-9.4.7-1.5.5-1.8-.7-1.4-1.9.8-3.8-1-3.8-3.4 0-1.7-8.1-10.1-11.5-12.1-.9-.4-2.4.2-4.1 1.8-2.1 1.9-3.8 2.5-7.4 2.5-5.6 0-6.5-.9-8.5-8.1-2.9-10.3-2.9-11.3-.2-15.6 1.4-2.2 3.1-4.6 3.9-5.4.7-.8 3-3.7 5.1-6.6 5.5-7.5 10.1-11.2 19.7-15.5 4.7-2.2 9.1-4.2 9.9-4.7.8-.4 2.1-2.7 2.9-5.2 4.3-14.1 7.5-18.8 15.2-22.2 3.1-1.4 4-2.1 2.8-2.4-2.1-.5-2.2-.8-.6-3.6.7-1.2 1.4-3.2 1.5-4.5.6-4.5 1-7.7 1.2-8.2.3-.8 4.1 7.2 4.1 8.6 0 .6.7 1.7 1.6 2.4.8.8 2 2.2 2.5 3.3 1 1.7.8 1.8-2.3 1.3-2.5-.4-2.8-.4-1.3.3 1.1.5 3.6 1 5.5 1.1 7.9.2 15.8 6.7 21.4 17.7.9 1.9 2.6 3.4 3.9 3.7 20.3 3.7 33 8.3 41.2 15.1 3.8 3.1 4.3 4 5.3 10.4 1.7 10.1 1.6 13.5-.4 12.7-1.2-.4-1.5-.2-1.1.9.4.8.2 1.7-.3 2-.6.4-1 1.5-1 2.7 0 1.1-1.8 3.8-4 6-3.2 3.3-4.5 3.9-7.2 3.6-1.8-.2-4.4-1.3-5.7-2.6-1.4-1.3-3.3-2.1-4.3-1.9-1.1.3-1.5.1-1.2-.5 1.4-2.3-4.2.5-6.1 3-1.1 1.5-4.1 4.8-6.7 7.4-6.3 6.3-15.9 9.2-23.5 7.2-1.3-.4-2.1-1-1.8-1.4s-.3-1.4-1.3-2.1q-2.25-1.95-.3.3c1 1.4 1 1.8.1 1.8-1.6 0-.5 5.7 1.5 8 1.8 1.9 2 5 .4 5s-.2 8.5 2.2 13.1c2.4 4.8 3.5 11.4 2 12.3-.6.4-1.1 2.3-1.1 4.3 0 5.4-2.7 10.3-6.2 11-2.7.5-2.8.8-2.2 3.7 1.8 8.5 5.9 21 10.1 30.5 9.1 20.9 11.3 26.7 11.3 29.8v3.3h218V0H337.1l-.5 4.2c-.3 2.4-.8 6.7-1.1 9.7-.8 6.9-5.8 26.6-9.1 35.6-3.7 9.9-10.7 22.7-17.3 31.5-3.1 4.1-14.1 16.3-24.6 27-20.6 21.2-22.8 24.3-25.6 37-.9 4.1-1.9 6.8-2.2 6s-1.5-4.7-2.6-8.5c-2-6.9-5.2-12.6-16.2-28.7-21.3-31.2-33.5-51.6-37.9-62.9-5.1-13.4-10.3-43.2-8.5-48.9.6-2 .3-2-95.4-2H0z"/><path d="M337 223.2c0 .7.5 2 1 2.8.8 1.2 1 .9 1-1.3 0-1.5-.4-2.7-1-2.7-.5 0-1 .6-1 1.2m-9.2 13.3c-5.2 1.4-10.9 4.4-11.5 6-.4 1.4 9 6.5 11.8 6.5 1.3 0 3.2-.7 4.1-1.4 1.8-1.3 5.7-9.1 5.8-11.4 0-1.5-4-1.4-10.2.3m-127.7 10.9c-.9 1.1-.9 2.7.2 6.8 1.2 4.9 1.5 5.3 4.6 5.6 2 .2 4-.3 5-1.2s2.1-1.3 2.4-.9c.4.3.2-.8-.4-2.5-1.2-3.4-7.1-9.2-9.3-9.2-.8 0-1.9.6-2.5 1.4m86.9 2.2c-1.4.2-4.9.9-7.8 1.5-4.9 1-5.3 1.3-5 3.7.5 4.1 5.9 6.7 13.9 6.7 5.7 0 7-.4 10.5-3 2.1-1.6 4.9-4.1 6.1-5.5 1.9-2.2 2-2.6.5-3.2-1.8-.7-13.8-.8-18.2-.2m-61.9 5.3c-.8.5-2.1.7-3 .4-1.9-.6 6 7.2 8.8 8.6 1.6.9 2 .4 3.3-4.4l1.5-5.5h-4.6c-2.5 0-5.2.4-6 .9m-4.1 4.5c0 .2.8 1 1.8 1.7 1.5 1.3 1.6 1.2.3-.4s-2.1-2.1-2.1-1.3m53 46.6c0 1.9.3 2.1 1.2 1.2s.9-1.5 0-2.4-1.2-.7-1.2 1.2"/></svg>