<svg xmlns="http://www.w3.org/2000/svg" width="682.667" height="512" version="1.0" viewBox="0 0 512 384"><path d="M0 192v192h110.9c110 0 110.9 0 111.4-2 .4-1.4 0-2-1.2-2-3.8 0-3.7-.3 6.8-26.2 5.7-14.1 9.1-26.8 11.5-43.3.9-6 2.9-14.7 4.5-19.2 1.6-4.6 2.5-8.3 2-8.3-.4 0-1.9-1-3.2-2.2-1.8-1.7-2.2-2.8-1.6-4.3 1.4-3.6 1-6.2-1.1-6.8-2.6-.7-2.7-4.7-.1-5.4 1.3-.3 2-1.7 2.4-4.6.2-2.3.8-5.1 1.2-6.2.6-1.5 0-1.3-2.6 1.1-4.8 4.5-9.1 6.4-14.3 6.4-4.3 0-9.6-1.6-9.6-2.9 0-.4-1.4-2.3-3.1-4.4-3.1-3.7-3.2-3.8-4.6-1.8-1.7 2.4-4.5 2.7-6.3.6-.9-1.1-.9-2.2 0-5.1.7-2 .9-5.3.6-7.5-.5-3.2-.1-4.8 2-8.4 4.6-7.9 19.2-20 30.1-24.9 4.5-2 5-2.9 7.6-13.9 2.1-8.6 4.8-12.1 11.9-15.5 6-2.8 7.6-4.7 3.2-3.6-2.4.6-2.6.5-1.9-1.7.4-1.3 1.1-2.6 1.5-2.9s.7-1.4.7-2.5.1-3.6.2-5.5c.2-3.1.4-3.3 1.4-1.7.7 1 2 2.8 2.9 3.9s1.4 2.6 1.1 3.4.1 1.4 1.1 1.4c.8 0 2 .9 2.6 2 .9 1.6.8 2-.5 2-.9 0-1.3.4-1 1 .3.5 2.5 1 4.7 1 6.4 0 11.7 3.7 17.7 12.4 2.9 4.2 5.8 7.6 6.4 7.6 5.2 0 19.2 2.3 22.3 3.6 5.8 2.4 21.5 11.9 24.7 14.9 2.4 2.3 2.7 3.3 2.7 9 0 11-3.1 14.7-8.9 10.6-1.6-1.2-3.2-2.1-3.5-2.1-.4 0-1.7 2.4-3 5.2-4.3 9.6-12.1 14.6-19.8 12.9-2.4-.6-6-1.7-8-2.6-6.1-2.5-7.9-2-13.6 4-2.9 3-5.7 5.5-6.2 5.5-1.6 0 .2 9.3 2.2 11.4 1.8 1.9 2.4 4.6 1.2 4.6-.4 0-1.3-.8-2.1-1.7-1.3-1.7-1.4-1.7-.9.2.2 1.1.8 3.6 1.1 5.5.4 1.9 2.1 5.9 3.7 8.8 2.3 4 2.8 6 2.3 8-.4 1.5-.6 5.7-.5 9.5.1 5.3-.2 6.8-1.4 7.3-.9.4-2.3.1-3.1-.6-1.2-1-1.6-.9-2 .4-.3.9-.7 2.3-1 3.1-.2.9.2 1.8.9 2.1.8.3 1.2 1.4.9 2.5-.7 2.4 3.9 13.1 12.3 29.4 3.4 6.6 7.2 15.2 8.4 19.2 2 6.7 2 7.4.6 9.5-.9 1.2-1.6 3.9-1.6 6v3.8h209V0H292.2l1.9 6c3.3 10.6 5.2 27.4 4.5 39.5-1.5 26.6-7.8 41.7-28.2 67.1-10.8 13.6-13.6 18.7-15.5 27.9l-1.5 8-1.3-4c-2.4-7.1-5-11.8-11.6-21-15.5-21.6-30.3-44.5-32.8-50.7-7.2-18-8-41.2-2.4-63.6l2.3-9.2H0z"/><path d="M340.6 220.1c-1 1.5-2.1 2-3.6 1.6-1.4-.3-2.4.1-3.1 1.5-1.5 2.7-.7 4 3.5 6.3 3.2 1.7 3.8 1.8 4.6.5 1-1.5 1.4-12 .6-12-.3 0-1.2 1-2 2.1m-24.7 13.4c-6.4 1.3-16.9 5.8-16.9 7.3 0 1 12.4 5.2 15.5 5.2 5.4 0 10.3-3.9 13-10.3l1.5-3.7-3.2.1c-1.8 0-6.3.7-9.9 1.4m-110.2 10.3c-.3 2-.9 4.7-1.3 5.9-.5 1.7-.2 2.3.9 2.3 1.9 0 2.7-2.1 2.7-7 0-5.1-1.6-6-2.3-1.2m72.9 1.9c-.4.4 1 7.2 1.6 7.8.2.2 2-1.2 4.1-3.2 2.1-1.9 3.6-3.7 3.3-4-.6-.6-8.5-1.1-9-.6m-62.3 2c-2.9.6-2.9.5.4 5.4 4.4 6.6 10.3 7.7 18.4 3.2 2.7-1.4 4.9-3 4.9-3.4s-2.1-1.8-4.7-3c-4.7-2.3-13.9-3.4-19-2.2"/></svg>