<svg xmlns="http://www.w3.org/2000/svg" width="682.667" height="512" version="1.0" viewBox="0 0 512 384"><path d="M0 192v192l122.3-.1c83.9-.1 120.3-.5 116.2-1.1-7.7-1.3-8.5-1.3-11.2-.4-2.1.7-2.2.5-1.6-4.3.5-4.7.4-5.1-1.6-5.1-3 0-2.8-3.1 1.4-19.1 4.1-16.3 7.1-32.2 8.5-46.6 1.1-11.4 2.8-18.7 6-26.5 2.4-5.6 2.4-6.2.5-8.2-1.2-1.1-1.3-2.1-.5-4.1.5-1.4 1-3.3 1-4.2 0-1.2-.3-1.3-1.5-.3s-1.7.7-2.7-1.5c-1.1-2.4-1-2.9 1.1-4.4 2.6-2 2.5-2.1-6.2-7l-5.8-3.3-2.6 2.6c-1.4 1.4-4.4 3.1-6.5 3.8-6.3 1.9-8.4.2-14.9-12-1-1.9-1-3 0-5.5.7-1.8 2-5.2 2.9-7.7 2.7-7.9 3.6-9.4 9.2-15 3.5-3.5 8.8-7.2 14.6-10.3 10.2-5.2 10.2-5.3 12.9-17.9 1.5-6.9 2.1-8.1 5.7-11.2 2.2-1.9 5.3-3.8 6.9-4.1 1.6-.4 2.9-1 2.9-1.5 0-.4-.9-.6-2-.3-1.5.4-2 0-2-1.5 0-1.1.7-2.5 1.5-3.2 1.2-1 1.3-1.6.4-2.6-.9-1.1-.9-1.8 0-2.8.7-.8.9-2.6.5-4.3-.4-1.5-.4-2.6-.1-2.3 1.1 1 5.7 8.1 5.7 8.7 0 .4 1 1.7 2.2 3l2.2 2.4-2.4.6c-1.9.5-.7 1 5 2 9.9 1.7 11.4 2.9 21.1 17.3 1.2 1.7 3 2.2 10.9 3 15.8 1.6 24.7 4.5 31.7 10.4 3.5 3 12.4 19.2 10 18.3-1.1-.4-1.6.5-2 3.9-1 9-5.5 12.2-14.6 10.3-3-.6-6.1-1.3-6.7-1.6-.7-.2-2.8 2-4.7 4.9-6.5 10.2-16 14.2-27.8 11.9-3.4-.7-6.3-1-6.5-.8-.6.6 1.5 9.5 3.1 13.2.7 1.6 3.4 7.5 5.9 13.1 4.4 9.7 6.2 15.6 3 10.4l-1.5-2.5.5 3c.3 1.6 1 6 1.6 9.8.9 4.7.9 7.1.2 8-.6.7-.7 1.9-.3 2.6.6.9 1.1 1 1.5.2 1.6-2.6 3.6-1.1 3.6 2.7 0 4.7-.6 5.5-3.3 4.1-1.9-1.1-1.9-.9-1.4 7.7l.6 8.9-1.6-7.7c-1.8-8.6-3.3-10.2-3.3-3.6 0 2.4-.4 6-.9 8-1 4.1-.7 4.5 14.2 25.2 6.2 8.5 7.6 11.9 5.7 14-.8 1.1-.8 2-.1 3.5 1.9 3.4 1.3 5-2.1 5.9-2.1.5-4.1 2-5.3 4-1.6 2.5-2.7 3.1-5.6 3.2-2.3 0-4.2.7-5.4 2-1.8 2-1.7 2 110.8 2H512V0H397.9C289.6 0 283.8.1 284.5 1.7c7 17.1 10 33.3 9.2 49.3-1.3 23.6-6.1 34.7-24.9 57.8-8.5 10.5-13.7 19.7-13.9 24.6-.1 1.7-.4 4.2-.8 5.6-.7 2.4-.8 2.4-1.6-1-1.3-5.8-3.7-9.8-20.1-32.6-23.6-33-26.2-39.6-25.1-65.4.5-11.3 1.1-15.1 3.6-23.1 1.7-5.3 3.8-11 4.6-12.5.8-1.6 1.5-3.2 1.5-3.7 0-.4-48.8-.7-108.5-.7H0z"/><path d="M330 218.5c-4.1 1.3-11 6.6-11 8.5 0 1 8 3 11.9 3 4 0 7.1-4 7.1-9.1 0-4.4-.7-4.6-8-2.4m-34.7 15c-6.7 1.5-18.3 6.3-18.3 7.6 0 .9 4.6 2.4 12.1 3.9 4.9.9 6.3.8 11.2-1 3.9-1.5 6.8-3.4 9.2-6.2 1.9-2.3 3.5-4.5 3.5-5 0-1.2-10.7-.8-17.7.7m-89.2 7.9c-1 1.1-.7 2.5 1.4 6.5 2.8 5.6 5.1 6.4 10.4 3.7 4.9-2.6 5.4-4 2.3-6.9-4.7-4.5-11.8-6.1-14.1-3.3m28.7 3.4c-2.7.8-4.8 1.8-4.8 2.2 0 .5 1.5 1.4 8.1 4.8.4.1.9-1 1.1-2.5.3-1.5.9-3.6 1.3-4.6.8-2 .5-2-5.7.1"/></svg>