<svg xmlns="http://www.w3.org/2000/svg" width="682.667" height="512" version="1.0" viewBox="0 0 512 384"><path d="M0 192v192h119.9c108.4 0 119.9-.2 120.5-1.6.3-.9.6-1.9.6-2.4 0-1.2-9-3.5-14-3.5h-4.5l.3-3.8c.3-3.3 0-3.9-1.8-4.4-2.2-.6-2.2-.9-1.6-8.7.4-4.5 2.6-16.4 5.1-26.6 2.4-10.2 5.1-23 5.9-28.5 2.3-14.2 3.5-19.1 6.8-26.5 2.4-5.2 2.7-6.9 1.9-8.8-.6-1.2-1.1-4.2-1.2-6.5 0-2.3-.3-3.6-.6-2.9-.4 1-.8 1-1.9.1-2-1.6-1.7-4.7.5-5.9 1.7-.9 1.8-1.4 1-4-1.5-4.1-4.5-4.8-7.7-1.7-3.4 3.3-9.2 5.7-13.6 5.7-2.8 0-4.2-.8-7.9-4.9-3.3-3.8-4.7-4.7-5.6-3.8-.6.6-1.2.9-1.2.6-.1-.2-.7-4.5-1.4-9.4-1.1-8.4-1-9.3.8-13 2.7-5.5 14-16.3 21.5-20.5 12.8-7.2 11.9-6.4 13.2-12.7 2.3-10.8 4-15.1 7.5-18.2 1.9-1.6 4.2-3.2 5.2-3.5 1.2-.4 1.9-1.7 2-3.8.2-1.8.7-3.4 1.3-3.6.7-.3.7-.8.1-1.6-1-1.2-.3-9.6.8-9.6.4 0 1.6 1.9 2.6 4.2 1 2.4 2.7 4.9 3.7 5.6 2 1.5 2.4 4.2.6 4.2-3.1 0 .7 1.2 6.2 2 7.2 1 9.6 2.8 16.6 12.6 4 5.7 4.7 6.2 9 6.8 2.6.3 7 .6 9.9.6 6 0 15.4 3 20.5 6.5 1.9 1.3 6.5 5.2 10.3 8.7 6.5 6.1 6.7 6.5 7.3 12 .4 4.2.1 6.5-1.1 8.9l-1.7 3.2-7.8-.7-7.8-.6-1 2.9c-1.9 5.5-8.9 12-14.8 13.7-4.8 1.4-6.2 1.3-15.4-.2-8.7-1.5-10.3-1.5-11.6-.3-2.1 2.2-.7 11.2 2.3 14.7 1.3 1.5 2.2 3.5 1.9 4.5-.2 1 1.6 5.7 4 10.5 2.5 4.8 4.7 10.6 4.9 12.9.3 2.3 1 5.4 1.5 6.8.6 1.5.8 3.1.5 3.5-.3.5-.3 2 0 3.3.5 1.8 1.2 2.3 2.5 2 1.4-.4 2.1.2 2.6 2.1.7 3-.1 6-1.5 5.2-1.6-1-1.8 1.8-.5 5.8 1.7 4.6 1.7 4.9.5 4.1-.5-.3-1.7-2.8-2.6-5.5-2.2-6.5-4-6.6-3-.3.4 2.7.9 6.8 1.1 9.3.2 3.9.1 4.3-1 2.7-2.2-2.8-2.9-2-2.2 2.7.7 4.1.6 4.4-1.4 3.9-1.6-.4-1.9-.2-1.4 1.3.9 2.5 6.6 10.3 12.2 16.8 2.4 2.8 5.1 6.4 5.9 8 1.4 2.7 1.4 3.1-.2 4.2-1.5 1.1-1.5 1.5-.1 4.3 2.3 4.3 2 4.9-1.9 5.7-2.3.4-4.3 1.7-5.6 3.5-1.6 2.3-2.8 2.9-5.7 2.9-2.8 0-4.4.8-7.3 3.6-2 2-5.2 4-7.1 4.4-1.8.4 50.6.8 116.5.9l119.7.1V0H283.3l4.6 13.2 4.5 13.3V46c.1 17.9-.1 20-2.3 26-3.8 10.9-10.1 21-21 33.9-8.4 10-12.9 17.7-13.6 22.9-1.1 8.1-2 9.3-3.3 4.1-1-4.1-5-10.8-10.9-18.5-1.3-1.6-6-8.1-10.6-14.4-20.6-28.5-23.3-35.6-22.4-58.6.5-13.9 1.8-20.1 7.2-33.2l3.3-8.2H0z"/><path d="M328.8 212.1c-3.6 1.8-7.6 7.4-6.4 8.7 1.3 1.2 11.6 1.4 13.1.2 2.7-2.3 1.3-11.1-1.8-11-.7.1-2.9 1-4.9 2.1m-24.3 14.4c-7 1.5-14.4 4.6-18.9 7.8l-3.1 2.2 3 .6c1.7.4 7 .7 11.9.8 7.4.1 9.4-.2 12.3-2 3.1-1.9 8.3-8.3 8.3-10.1 0-1.2-6.7-.8-13.5.7m-98.7 14.1c-2.6.8-2.3 1.5 3 6.7 3.1 3.1 5.6 4.7 7.2 4.7 3.1 0 10.1-3.1 11.8-5.2 1.1-1.4.7-1.9-2.5-3.9-2.9-1.8-5.4-2.4-10.8-2.6-3.8-.1-7.8.1-8.7.3m44.9 141.3c.5 1.8 1.3 2.1 6.4 2.1 4.1 0 5.9-.4 5.9-1.3 0-.8-1.6-1.2-4.7-1.2-2.7 0-5.6-.4-6.5-.9-1.3-.6-1.5-.4-1.1 1.3"/></svg>