<svg xmlns="http://www.w3.org/2000/svg" width="682.667" height="512" version="1.0" viewBox="0 0 512 384"><path d="M0 192v192h119.8c113.4 0 119.8-.1 119.8-1.8 0-.9.4-2.7.8-3.9.6-1.9.3-2.2-2.1-2.1-1.6.1-3.8-.4-5-1.1-1.2-.6-4.9-1.1-8.1-1.1h-6l.5-3.9c.5-3.3.2-4-1.6-4.6-1.7-.5-2.1-1.4-2.1-5.3 0-7.5 1.7-16.2 6.5-32.8 2.5-8.5 5.6-21.2 7.1-28.2 1.4-7 3.7-15.4 5.1-18.7 5.2-12.6 5-11.5 3-13-1.7-1.2-1.8-1.8-.7-5 .9-2.7.9-4 .1-4.8s-1.1-.7-1.1.2c0 1.1-.3 1.1-1.5.1-2.1-1.7-1.9-4.7.4-6.1 1.7-1.1 1.8-2.5.5-6.8-.3-1-1.3-.6-3.7 1.7-3.9 3.8-9.4 6.2-14.2 6.2-3 0-4.6-.9-8.8-4.9-4.5-4.2-5.4-4.7-6.5-3.4-1.9 2-4.2-.1-4.2-3.7 0-1.5-.7-5-1.6-7.7-1.5-4.7-1.5-5.2.4-8.9 4.4-8.6 19.6-22.1 30-26.8 4.5-2 4.4-1.9 7.7-15.4 1.8-7.7 3.7-10.6 8.6-13.4 3.1-1.7 3.9-2.8 3.9-4.9 0-1.5.5-3.1 1-3.4.6-.4.9-1.4.6-2.3-.2-1-.1-3.7.3-6.2l.8-4.5 1.2 3.2c.7 1.8 1.7 3.3 2.2 3.3s.9.6.9 1.3c0 .8.9 2.2 2 3.2 1.3 1.1 1.8 2.5 1.4 3.7-.4 1.5 0 1.8 3.3 1.8 6.3 0 12.2 3.7 18.1 11.5 3 3.8 6.1 7.3 7.1 7.7.9.4 5 .7 9.1.8 9.3.1 14.8 2 27 9.2 12.6 7.4 14 9.1 14.7 16.6.3 3.3.3 7.2-.1 8.8-.7 2.7-.7 2.7-7.6 2.1l-6.9-.6-1.1 3.3c-1.7 5.1-7.5 11.2-12.5 13.2-4.5 1.7-6.9 1.7-20.8-.2-4.5-.6-5-.5-8.3 2.7-2.8 2.7-3.4 4-3.4 7.5 0 2.6.6 4.6 1.4 5.1 1.9 1.2 3.8 5.2 3 6.5-.5.7-1.1.5-2.1-.7-2.5-3.5-1.3.4 1.8 5.7 2.7 4.8 5.5 10.4 9.5 19.5.8 1.7 1.4 4.6 1.5 6.5 0 3.1 1.6 8.5 1.9 6.3 0-.6.7-.1 1.5.9 2 2.6 1.9 6.6 0 6.6-1.3 0-1.2.8.5 5.2 2.5 6.7 2 7.2-1 .8-1.3-2.7-2.9-5.1-3.6-5.4-1.8-.7-1.8-.4.5 7.6l1.9 6.6-2.5-.4c-2.2-.4-2.4-.2-1.8 1.8.4 1.3.9 3.2 1.2 4.2.4 1.4.1 1.7-.9 1.3-.8-.3-2.1-.1-2.9.3-.9.6-2.2.2-3.7-1.3l-2.4-2.2 1.3 3c2.2 4.9 7.8 13.4 14.6 21.9 6.7 8.5 7.3 10 4.7 11.4-1.5.8-1.5 1.2 0 4 2.3 4.4 2.1 4.8-2.8 6.1-3 .7-4.7 1.8-5.1 3.1-.6 1.8-2.3 2.5-4.9 2.1-3.7-.7-14.6 6.5-14.6 9.7 0 .9 25.8 1.2 119.5 1.2H512V0H282.9l.7 2.2c.3 1.3 1 2.7 1.4 3.3.4.5 2.3 5.9 4.1 12 3.3 10.8 3.4 11.4 3.3 29 0 15.8-.3 18.7-2.2 24.2-3.9 11-10.3 21.4-19.7 32.3-3.2 3.6-7.4 9.1-9.6 12.2-3.5 5.1-4.5 7.8-6.5 17.3l-.6 3-1.2-4c-1.8-5.9-2.9-7.6-14.4-23-26.6-35.7-29.7-42.4-29.6-64 0-14.8 2.2-24.8 7.9-37.2l3.4-7.3H0z"/><path d="M325.7 211c-3.5 4.1-3.4 5.6.4 6.4 7.5 1.5 9.9.5 9.9-4.2 0-2.7-1.4-4.1-4.6-4.8-2.6-.5-3.5-.1-5.7 2.6M313 221.7c-8 1.2-17.1 4.7-23.8 9.1-3.2 2.1-1.5 2.9 8.1 3.8 10.5.9 15.7-1 19.8-7.4 1.6-2.5 2.9-5 2.9-5.4 0-.8-2.4-.9-7-.1m-113.9 12.8c.1 1.6.5 4.3.9 6 .7 2.7.8 2.6.9-1.5 0-2.5-.4-5.2-.9-6-.7-1.1-.9-.8-.9 1.5m72.9 2.4c0 .5.7 1.7 1.6 2.6 1.5 1.5 1.8 1.4 4-.6 1.3-1.2 2.4-2.4 2.4-2.6s-1.8-.3-4-.3-4 .4-4 .9m-64.9 3.2-3.4 1 2.9 3c5.2 5.4 9 7.2 13.7 6.5 4.1-.7 11.7-4.8 11.7-6.4 0-3.4-17.7-6.3-24.9-4.1m45.8 139.6c-1.6.2-2.9 1.2-3.2 2.4-.5 1.7 0 1.9 6.5 1.9 6.6 0 6.9-.1 6.6-2.2-.2-1.9-1-2.3-3.8-2.4-1.9-.1-4.7 0-6.1.3"/></svg>