<svg xmlns="http://www.w3.org/2000/svg" width="682.667" height="512" version="1.0" viewBox="0 0 512 384"><path d="M0 192v192h120c103.8 0 120-.2 120-1.4 0-.8-.4-1.8-1-2.1-.5-.3-1-1.5-1-2.6 0-1.9-3.5-5.8-5.3-5.9-.4 0-2.8-.9-5.2-2s-6.3-2-8.7-2h-6.5c-2.1 0-2.2-.4-1.6-4.5.5-3.7.3-4.5-1-4.5-2.5 0-2.6-1-1.1-10.5 1.1-6.5 3.2-13 7.8-24 6.8-16.2 9.2-22.8 12.5-34.6 1.2-4.2 3.7-10.9 5.6-14.8 3.6-7.4 3.6-9.1.1-12-1.1-.9-1.2-2-.5-4.4 1.3-4.5 1.1-5.5-.8-5.3-1.1 0-1.9-.7-2.1-1.9-.3-1.9-.9-2-7-1.7-6.6.4-6.8.3-12.9-4.2L205 241l-2.5 2.6c-2.3 2.3-2.8 2.4-4.7 1.2-1.3-.9-3.1-4.3-4.6-9.2l-2.5-7.8 2-4.2c1.2-2.3 6.4-8.7 11.7-14.3 7.3-7.6 11.3-10.9 16.6-13.7 3.8-2.1 7-3.8 7-3.9 0-2.2 3.2-17.2 3.9-18.6.6-1 3.2-3.8 5.9-6.2 5.5-5 6.5-7.8 7.1-18.9l.1-3.5 2.7 4.5c1.4 2.5 3.5 5.6 4.5 6.9s1.6 2.7 1.3 3c-.2.4 2.5 1.3 6.1 2 3.5.7 7.6 2.2 9 3.3 2 1.6 7.8 8.8 11.6 14.2.4.6 4.9 1.4 10 1.7 9.5.6 20.5 3.7 29.9 8.5 7.7 3.8 10.4 6.7 12.3 13.1 1.8 6 1.9 11.9.1 11.6-.5-.1-2.7-.4-4.7-.8-3.4-.6-3.8-.5-3.8 1.3 0 4.5-4.2 11.4-8.8 14.4-3.1 2.1-7.9 2.3-16.9.7l-6.4-1.1-5.7 5.8c-3.2 3.3-7 6.9-8.5 8.1-3.2 2.6-3.5 6.2-.7 8.6 2.1 1.8 2.7 5.2 1.1 6.2-.5.3-1.3-.4-1.6-1.5-.5-1.7-.9-1.9-2.1-.9-1.9 1.5-.9 7 2.1 12.4 1.2 2.2 3.7 7.1 5.4 11l3.2 6.9-2.7-2.4-2.7-2.5 1.3 2.5c2.2 4.2 5.2 5.5 4.3 1.8-.6-2.8-.5-6.9.2-7.7 1.1-1 4.3 3.5 4.9 7 .6 3.2.3 4.1-2.5 6.8-1.7 1.7-2.6 3.1-2.1 3.1 1.7 0 3.6 7 2.3 8.3-.7.7-.5 2.1 1 4.6l2.1 3.6-3.1-3.5c-1.7-1.9-3.1-3.8-3.1-4.3 0-.8-3-1-3-.2 0 .3 1.2 2.9 2.6 5.7 2 4 2.3 5.2 1.3 5.9-.8.5-2.1.1-3.3-.9-1.5-1.4-1.4-.7.8 3.5 2.5 5 2.4 6.7-.1 4.2-.7-.7-1.3-.8-1.7 0-.5.7-1.5.7-3.1.1-1.4-.5-2.5-.7-2.5-.4 0 1.6 8.5 17.9 12.4 23.6 2.5 3.7 5.2 8.1 6.1 9.9 1.7 3.2 1.4 4-1.9 5.2-.5.2-.4 1.3.3 2.4 2.3 4.5 1.5 6-3.7 6.7-3.3.4-5.6 1.4-7.2 3.1-1.8 1.9-3.4 2.5-6.7 2.5H271l1.4 3.5c.9 2 1.1 3.7.5 4-.5.4-.9 1.3-.9 2.1 0 1.2 16.2 1.4 120 1.4h120V0H282.9l.7 2.2c.3 1.3 1 2.7 1.4 3.3.4.5 2.3 5.7 4.1 11.5 3.3 10.3 3.4 10.8 3.3 28 0 16.4-.2 17.9-2.6 24-4.4 11.3-7.3 16.2-16.5 27.3-13.8 17-16.3 20.9-17.6 27.7-.6 3.3-1.4 6-1.8 6-.3 0-1.1-1.8-1.8-3.9-.6-2.3-7.4-12.4-15.4-23.3-7.9-10.6-15.7-21.3-17.3-23.8-9.9-14.9-12.8-32.8-8.4-52.5 1.8-8.7 6.9-22.4 9.1-25.2 1-1.1-17-1.3-109.5-1.3H0z"/><path d="M326.2 201.7c-3.2 3.6-2.5 6.5 1.8 7.9 2.1.7 3.6.8 3.9.2.5-1.5-.8-7.3-2.2-9.1-1.1-1.5-1.4-1.4-3.5 1m-13.7 13.2c-8.7 2.5-18.2 8.2-17 10.1.3.4 4.3 1.1 9 1.5 7.1.6 8.9.5 11-.9 5.3-3.4 8.7-12.7 4.8-12.5-1 0-4.5.8-7.8 1.8m-40.7 14.8c-3.6.6-3.5 1.9.7 6.6l3.3 3.8 4.1-2.6c3.5-2.4 7.1-6.4 7.1-8 0-.6-11-.4-15.2.2m-75 2c.7.3 1.6.2 1.9-.1.4-.3-.2-.6-1.3-.5-1.1 0-1.4.3-.6.6m-1.4 3.9c1.9 7.2 3.9 9.1 6.6 5.9 2.1-2.5-.1-6.8-3.9-7.6-3-.6-3.2-.5-2.7 1.7m18.6 1.8c-2.5.7-5.2 1.5-6 1.8-1 .3.7 1.9 4.9 4.6 4.8 3.1 7.4 4.2 10.4 4.2 7 0 11.6-3.4 11.7-8.6 0-1.5-7.6-3.4-12.7-3.3-2.1 0-5.8.6-8.3 1.3m34.5 140.5c.3 1.1.1 2.2-.5 2.6-.5.3-1 1.3-1 2.1 0 1.1 1.8 1.4 8.9 1.4h9l-1.4-2.7c-1.2-2.3-2-2.7-4.8-2.5-1.9.2-5.1-.4-7.1-1.2-3.5-1.5-3.7-1.5-3.1.3"/></svg>