<svg xmlns="http://www.w3.org/2000/svg" width="682.667" height="512" version="1.0" viewBox="0 0 512 384"><path d="M0 192v192h240v-2.8c0-5.1-7.3-10.2-14.6-10.2-2.5 0-4.4-.9-7.3-3.5-3.5-3.2-9.8-5.5-16.2-5.8-1.3-.1-1.4-.7-.6-4.1.9-3.5.8-4.1-1-5.3l-2.1-1.4 2.3-7c1.4-3.9 4.6-10.9 7.3-15.7 8.9-15.8 10.4-18.6 14.1-27.2 5.1-11.7 8.6-26.9 9.6-42.5.1-2.2.6-5 1-6.3.5-1.4.3-2.2-.4-2.2-.6 0-2-.9-3.1-2s-2.8-2-3.7-2.1c-1 0-3.1-.9-4.8-1.9-1.6-1.1-4.7-2.9-6.9-4l-3.8-2.2-3 3.1c-2.4 2.4-3.9 3.1-6.9 3.1-3.8 0-3.9-.1-7.5-7.6-2.6-5.5-3.4-8.3-2.9-10.2 1-3.9 11.5-21 15.5-25.1 2-2 7.4-5.7 12.1-8.4l8.5-4.7 1.3-7.4c1.5-9.4 4.5-15.3 9.7-19.1 4.2-3.1 4.2-3.2 4.7-13.7.1-3.2.4-5.8.7-5.8.4 0 3.7 5.2 7.7 12.4.9 1.6 2.5 2.2 6.9 2.7 6.8.8 9.4 2.6 15.7 11 2.7 3.5 5.6 6.7 6.5 7.1s4.2.7 7.4.7c7.2.1 18.7 2.3 25.8 5 10.5 3.9 14.4 9 16.6 21.5.6 3.3.4 3.8-.8 3.3-1.2-.4-1.7.4-2.2 3.2-.7 4.8-4.4 10.2-8.1 12-2.5 1.2-3.7 1.2-9.4-.3-7.6-2-9.5-1.6-11.1 2.3-2.6 6.3-14.4 15.1-20.3 15.1-2 0-2.5.6-3.1 3.7-.5 3.1-.2 4.1 1.4 5.5 1.1.9 2 2.8 2 4.2 0 2.9-.8 3.3-2.4 1.1-.7-.9-1.6-1.1-2.4-.6-1.9 1.2-.6 7.3 2.6 11.9 1.9 2.7 2.6 5.1 2.8 8.9.1 5.6 1.3 7.8 4.4 8.6 2.4.6 4.3-2.2 2.9-4.4s-1.1-5.9.5-5.9c4 0 6 8.6 3 12.8-2 2.9-7.5 3-11.5.1-2.6-1.8-2.8-1.9-2.3-.2.4 1.3 0 1.1-1.7-.7l-2.2-2.5.7 2.5c.4 1.4 1 3.6 1.3 5s1.7 3.8 2.9 5.3c2.5 2.9 3.2 7.1 1.4 8.2-.6.4-.4 1.7.6 3.6 2.7 5.3.9 5.3-1.9 0-1.6-2.8-3.2-5.1-3.7-5.1-1.9 0-2.1 2.2-.7 6.8.9 2.6 1.8 6.7 2.1 9.2.4 2.5 2.9 9.7 5.7 16 7 15.9 9.9 23.2 9.9 24.7 0 .7-.9 1.3-2.1 1.3-1.6 0-2 .4-1.4 1.7.3 1 .9 3 1.2 4.4.5 2.6.4 2.6-6.6 3.1-4 .3-7.5.8-7.8 1.2-.4.4-.2 2.1.5 3.8.8 2.2.8 3.5.1 4.4-.6.8-.8 2.6-.4 4.4l.7 3H512V0H398c-62.7 0-114 .2-114 .4s1.9 5.9 4.1 12.7c3.7 10.9 4.2 13.7 4.6 24.4 1.1 25.6-3.2 37-22.5 59.9-10.8 12.8-13.1 16.6-14.5 23.8l-1.1 6-2.3-5.2c-1.2-2.9-8.1-12.9-15.1-22.3-16.2-21.6-19.2-26-22.1-32.2-8-17.1-6.4-43.8 3.7-63.3L221 0H0z"/><path d="M323 194.6c0 1.1.7 2.9 1.6 4 1.5 1.8 1.5 1.8.9-1.1-.8-3.7-2.5-5.7-2.5-2.9m-7.7 12.3c-5.8 2-12.6 6.7-12 8.4.5 1.6 11.2 4 14.3 3.3 4.4-1.1 8.7-13.6 4.7-13.6-1 .1-4.1.9-7 1.9M284.8 222c-3.7.5-9.2 1.6-12.2 2.4-6.6 1.9-7.2 3.8-2.5 7.9 3.7 3.3 8.5 3.5 14.5.8 4.1-1.8 10.4-8.4 10.4-10.8 0-1.4-.3-1.4-10.2-.3m-89.9 10.3c-.8 1.8-.7 3.3.5 6 1.2 3 2 3.7 4.3 3.7 3.3 0 7.3-2.5 7.3-4.5 0-.7-1.4-2.7-3.1-4.4-3.7-3.8-7.5-4.1-9-.8m31.6.4c-1.1.2-4.5 1.1-7.5 2l-5.4 1.5 2.4 1.8c4.7 3.6 10.7 6.2 13.5 5.8 2.5-.3 3-.9 4.2-5.3.7-2.8 1.3-5.3 1.3-5.8 0-.7-5.1-.8-8.5 0m24.3 141.7c-3.3 1.8-3.8 2.6-3.8 5.8v3.8h9.6c10.7 0 10.2.5 6.8-7.5-2-4.9-6.5-5.7-12.6-2.1"/></svg>