<svg xmlns="http://www.w3.org/2000/svg" width="682.667" height="512" version="1.0" viewBox="0 0 512 384"><path d="M0 192v192h239.8l.4-3.4c.5-4.8 0-5.6-3.7-5.6-2.1 0-5.3-1.2-8-2.9-2.5-1.6-6.7-3.1-9.3-3.5-3.6-.5-5.9-1.5-8.7-4.1-2.2-1.9-5.3-3.7-7-4.1-7.1-1.5-7.4-1.9-6.4-6.5.8-3.5.7-4.3-.8-5.4-1.7-1.3-1.6-1.7 1.5-8 1.8-3.6 5.5-10 8.2-14.1 10.8-16.4 21.1-38.4 20.9-44.7l-.1-3.2-.9 3c-.6 2.1-.7.8-.4-4 .3-3.9 1.2-9.3 2.1-12 .8-2.8 1.9-6.8 2.4-9s1.2-5 1.6-6.3c.5-1.9.3-2.3-1.2-2-1.5.2-1.8-.2-1.6-1.9s-1-2.9-6.6-6.2c-3.7-2.3-7.2-4.1-7.7-4.1s-2.4 1.4-4.2 3.2c-2.9 2.8-4.1 3.2-8.6 3.3-5.1 0-5.2-.1-7.2-4.1-1.1-2.3-2.8-5.1-3.7-6.1-2.4-2.6-2.3-5.1.7-11.5 1.4-2.9 2.5-6 2.5-6.9s1.8-4.4 4-7.8c3.2-5 5.6-7.2 12.8-11.9 4.9-3.1 10.3-6.5 12.1-7.4 2.2-1.2 3.1-2.4 3.1-4.2 0-4.6 3.2-17.1 4.9-19.2.9-1.2 3.7-3.4 6.1-4.9 2.5-1.6 3.9-3 3.2-3.3-1.3-.4-1.6-3.4-.4-4.6.7-.8.8-1.2 1.1-8.1l.2-4 1.5 3c4.9 9.9 7.1 12.2 12.2 13 6.9 1 9.4 2.7 15.3 10.2 2.9 3.7 5.5 7.1 5.9 7.5.3.5 5.7 1.2 12 1.7 19.7 1.7 32.9 7.3 35 15 .6 2.1 1.7 5.2 2.5 6.8 1.8 3.4 1.8 4.7.4 11.2-1.3 6.1-5.5 11.1-9.3 11.1-1.4 0-4.6-.9-7.1-2.1-2.4-1.1-4.9-1.8-5.5-1.4-.6.3-2.1 2.8-3.4 5.4-3 5.8-9 11.4-14.1 13.1-2.2.7-6 1-9 .7l-5.2-.5.3 5.5c.2 4 .8 6.1 2.4 7.8s2 3 1.5 4.6c-.7 2.1-.8 2.2-2.1.5-.7-1-1.7-1.5-2.3-1.1-1.9 1.1-1.2 6.1 1.3 9.8 3 4.4 3.9 7.2 4 12.2.1 3.3.5 4.2 3 5.3 2.4 1.2 3 1.2 4.2 0 1.1-1.1 1.2-2 .2-4.6-1-2.5-1-3.4.1-4.4 1.9-2 5.1 2.5 5.1 7.2 0 3-.6 4.3-2.6 5.9-5.7 4.5-11.3 1.7-15.4-7.5-3.8-8.5-5.4-9.3-4.7-2.3.3 3 1 7.4 1.6 9.9.6 2.9.6 4.7 0 5.1-1.4.9.1 5.9 1.7 5.9 1 0 1.4 1.2 1.4 4 0 2.2-.4 4-.9 4-.4 0-.5 1.8-.1 4.1.4 2.2.6 5.1.3 6.2-.4 1.8-.3 1.9.6.7s1-1 .6 1c-.4 1.7.7 6.1 3 12.5 10.9 29.5 11.2 30.5 9.2 32-1.6 1.1-1.8 2.1-1.2 5.4.6 3.6.4 4.1-1.2 3.9h-6.2c-3.7.2-4.2.4-3.5 1.9.4 1 .7 4 .5 6.6-.1 2.7.1 5.7.4 6.8.6 1.9 3.4 1.9 119.6 1.9H512V0H397.9C289.6 0 283.8.1 284.5 1.7c5.6 14.1 7.8 23.3 8.2 34.8.7 15.8-.7 24.8-5.1 34.1-4.4 9.4-7.8 14.2-17.8 25.7s-13.4 17.3-14.3 24.5l-.7 5.5-2.3-5.7c-1.3-3.2-5.6-10-9.7-15.3-14-18.2-23.8-31.8-26.8-37.4-8.8-16.4-7.6-43.8 2.8-63.7L221 0H0z"/><path d="M316.4 203.1c-2.7 1-6.2 3.2-7.7 4.7l-2.7 2.8 4.8 2.3c2.7 1.3 6 2.1 7.3 1.9 4.6-.6 9-13.9 4.6-13.7-.7 0-3.5.9-6.3 2m-27.7 15c-10.6 1.4-23.6 6.6-22.2 8.9.9 1.4 10.9 4 15.5 4 2.3 0 5.8-.8 7.7-1.7 3.6-1.6 9.3-8.4 9.3-11 0-1.4-.4-1.4-10.3-.2m-95.1 13.1c1.4 4.9 4.4 9.6 6.2 10 2.4.7 7.2-1.3 9.5-4 1.9-2 1.8-2.1-2.4-5.1-3.3-2.5-5.2-3.1-9.1-3.1-4.7 0-4.9.1-4.2 2.2m31.9.5c-2.7.8-5.3 1.8-5.7 2.2-1 .9 10 7.4 11.6 6.8.7-.3 1.6-2 1.9-3.9.3-1.8.8-4.1 1.2-5.1.9-2.2-1.9-2.2-9 0m34 140.3c-1.1.5-4.2.6-6.9.3-3.4-.4-4.7-.3-4.2.5.3.6.2 1.3-.4 1.7-1.9 1.2-1.1 6.3 1.2 7.9 4.2 3 16.8 1.7 16.8-1.7 0-1.6-3.4-9.7-4-9.6-.3 0-1.4.4-2.5.9"/></svg>