<svg xmlns="http://www.w3.org/2000/svg" width="682.667" height="512" version="1.0" viewBox="0 0 512 384"><path d="M0 192v192h240.5v-8.8c0-5.5-.5-9.6-1.4-11.1-1.2-2.1-1.8-2.3-6.5-1.8-2.8.4-6.7.9-8.6 1.2-3.1.6-4.2.1-9.4-3.9-4.3-3.4-6.7-4.6-9.2-4.6-2.8 0-3.8-.6-5.6-3.5-1.4-2.1-3.4-3.7-5.1-4.1-3.7-.8-4.4-2.9-2.3-6.6 1.6-2.7 1.7-3.1.2-4.7s-1.4-2.1 1.3-5.8c1.6-2.2 5.8-7.3 9.4-11.2 3.5-3.9 8.8-11.4 11.6-16.6 4.6-8.2 5.3-10.3 5.6-15.7.1-3.5.6-9.6 1-13.7.7-6.5.6-7.3-.7-6.8-2.2.8-1.5-1.4 4.4-15.2 2.6-6.2 4.8-11.5 4.8-11.6 0-.2-.9-.5-2.1-.8-2.7-.7-2.2-3.9.9-5.2 1.2-.5 2.2-1.5 2.2-2.2 0-.8-1.8-.3-5 1.4-5.9 3-13.4 4-17 2.1-1.3-.7-3.3-3-4.4-5-2.4-4.7-4.8-5.6-7.5-2.9-2.4 2.4-8.3 2.8-10 .7-1-1.1-.8-2.4.9-5.7 1.9-3.6 2-4.5.9-6.6-1.1-2-1-3 .8-6.6 4.8-9.8 17.7-22.5 28.9-28.4 6.1-3.2 6-3 7.4-12.1 1.4-8.7 4.8-14.3 11-18.3 5-3.2 6.4-4.6 3.5-3.5q-1.5.6-1.5-1.5c0-1.1.4-1.8.9-1.5.4.3.7-.7.5-2.3s0-4.8.5-7.2c.8-4.3.8-4.4 1.9-1.7.6 1.4 1.6 2.9 2.1 3.3.6.3 1.1 1.3 1.1 2.1s1.5 2.8 3.3 4.5c1.7 1.7 2.6 2.7 1.8 2.3-.9-.5-1.2-.3-.7.4.4.7 2.2 1.2 4 1.2 1.9 0 5 .7 6.9 1.5 3.2 1.3 5.4 3.5 13.9 13.9 2.2 2.7 3 2.9 12.9 3.6 10.2.7 11 .9 23 6.7 15.8 7.7 17.3 9 16.4 15.2-1.2 9.1-1.7 10.7-3.6 13.1-1.8 2.3-2 2.4-3.3.7-1.8-2.4-2.1-2.2-3.4 2.1-2.6 8.6-10.1 15.2-17.4 15.2-3.2 0-9.8-3.2-9.8-4.8 0-.4-.8-.8-1.9-.9-1.8-.2-3.7 1.5-12.5 11.3-5.3 5.9-5.9 9.7-2.5 14.4 1.4 1.8 1.9 3.5 1.5 4.7-.7 1.6-.9 1.6-2-.6-.9-1.6-1.6-2-2-1.2-1.2 1.9.4 7.3 3.6 12.1 2 3.1 2.9 5.6 2.8 8-.3 5.6-.1 6 2.7 7.1 1.9.7 3.5.7 5.1-.1 2.2-1 2.3-1.4 1.7-6-.6-4-.4-5 .8-5 2 0 3.6 2.1 4.3 5.9.9 4.2-1 7.6-5.4 9.7-2.9 1.4-4.1 1.4-7.4.4-3.5-1-4.3-1.9-6.6-6.8-1.4-3.1-2.9-6.1-3.4-6.7-.5-.5-1.5-1.9-2.2-3-1.3-1.8-1.5-1.6-2.1 2.8-.4 2.7-.5 7.1-.1 10 .3 2.9 1 9.2 1.5 14.2 1.3 11.5 4.2 25.5 8.5 40.9 1.9 6.6 3.7 14.3 4.1 17.1.3 2.7.8 5.8 1.1 6.7.4 1.3 0 1.8-1.7 1.8-2 0-2.1.4-1.7 4.4.5 4.3.5 4.4-2.5 4.2-4.4-.2-5.6 4.2-3.2 11.7.9 3 1.5 6.5 1.3 7.8-.3 2.2-.8 2.4-5.5 2.4-6.7-.1-8.2-1.4-6.4-5.8 2.2-5.4 2.4-8.5.7-12.1-2.8-5.9-10.8-5.5-12 .6s-.7 8.2 2.7 10.3c1.8 1.1 3.3 3 3.5 4.3.3 1.8-.5 2.6-4 4.1-4.3 1.9-3.3 2 128.5 2l132.7.1V0H399c-62.1 0-113 .1-113 .3s1.2 3.2 2.6 6.8c5.2 13 6.6 29.2 3.9 43.4-2.5 13.4-7 21.3-21.3 37.4-10.8 12.2-13.8 17-15.3 23.9l-1.1 5.6-1.8-4.8c-1.8-4.6-3.8-7.3-20.8-29.1-19.2-24.6-20.7-28.2-20.6-49 0-12.7.3-14.7 2.9-22 1.5-4.4 3.5-9 4.3-10.3l1.4-2.2H0z"/><path d="M321.4 188.3c-2.6 2.3-2.7 2.5-1.1 4.7.8 1.2 1.3 2.8 1.1 3.5-.3.7-.1 1.6.5 1.9.9.6 2.4-3 3.6-9.2.8-3.8-.3-4.1-4.1-.9m-13.8 13.3c-6.4 1.4-13.3 4.2-16.4 6.7-.9.7-.3 1.6 2.5 3.7 5.4 3.9 8.1 4.3 13 1.9 3.3-1.6 4.7-3.2 6.8-7.4 1.4-3 2.5-5.6 2.5-5.9 0-.7-.1-.7-8.4 1M191 218.5c0 1.4-.7 3.7-1.6 5-1.5 2.4-1.5 2.5.7 3.4 3.6 1.3 5.9-.4 5.9-4.4 0-4.6-.9-6.5-3.1-6.5-1.4 0-1.9.7-1.9 2.5m77.8-1.7c-4.6.4-4.7 1.4-.9 5.7l2.8 3.3 2.5-2.2c1.3-1.1 3.2-3.1 4.2-4.2 1.7-2.1 1.6-2.2-1.6-2.5-1.8-.2-5-.3-7-.1m-62 6.3-2.7 1 2.5 3.6c3.3 4.8 5.3 6.2 9.2 6.3 5.2 0 14.2-4.5 14.2-7.1 0-.4-2.5-1.7-5.5-2.8-5.9-2.2-13.2-2.6-17.7-1m53.5 28.4c0 2.2.2 3 .4 1.7.2-1.2.2-3 0-4-.3-.9-.5.1-.4 2.3"/></svg>