<svg xmlns="http://www.w3.org/2000/svg" width="682.667" height="512" version="1.0" viewBox="0 0 512 384"><path d="M0 192v192h512V0H399.5C337.6 0 287 .2 287 .5s.8 2.2 1.9 4.3c4.9 9.8 6.6 31.6 3.5 44.8-2.7 11.8-9.1 22-24.4 38.9-7.5 8.2-12 16-12 20.7 0 4-1.7 4.3-2.4.4-.6-2.9-8.8-15.3-12.2-18.1-3.2-2.8-23.8-31.4-26-36.1-5.8-12.6-5.6-34 .4-48.2l3-7.2H0zm247-58.9c0 .5 1.2 2.1 2.8 3.4 2.1 1.9 2.4 2.7 1.4 3.3-.9.6.5 1.1 4.1 1.5 7.9.8 11.1 2.8 17.2 11.1l5.4 7.3 8.3.6c13.2.9 27.8 5.5 35.1 11.1l4.2 3.2.3 8.4c.2 7.2 0 8.8-1.8 11.2-1.1 1.5-2 3.3-2 4.1 0 2.5-6 9.5-9.2 10.6-4.5 1.6-6.1 1.4-10.2-1.4-4.9-3.3-6-3.2-9.3 1.2-8.1 10.6-12.6 14-20.5 15.7-3.4.8-3.8 4.4-.8 7.1 2.1 1.9 2.7 5 1.1 5.9-.5.3-1.1-.4-1.5-1.7-.5-1.7-.8-1.9-1.5-.8-1.3 2 .6 9.1 3.7 13.5 2 3 2.7 5.1 2.7 9 0 5 .1 5.1 3.2 5.4 1.8.2 4.2-.2 5.3-.8 1.9-1 2.1-1.7 1.5-6.1-.7-5.2.1-6.1 2.8-3.1 2.7 2.9 3.2 7.8 1.2 10.8-2.1 3.3-7.8 5.7-11.6 4.9-3.6-.8-7.6-5.5-8.5-10.1-.3-1.9-.9-3.2-1.2-2.9s-1.4-.9-2.4-2.7l-1.7-3.3v8c-.1 19.3 2.8 38.7 9.3 61.9 1.9 6.6 3.7 14.3 4.1 17s.9 5.5 1.2 6.2c.3.9-.2 1.4-1.6 1.4-1.9 0-2.1.6-2.1 5 0 4.6-.2 5-1.8 4.1-6-3.2-9.3 5.3-5.3 13.4 3.6 7.1 2.7 8.5-5.2 8.5-6 0-7-.9-6.1-5.6.3-2.1 1.1-4.7 1.5-5.6 1.1-2.1-1.1-10.8-2.9-11.5-.7-.3-2.6 0-4.2.7-2.5 1.1-3 1.8-3.6 6.8-.7 5.5-.6 5.6 3 8.5 4.7 3.8 4.6 6.1-.4 8.7-8.9 4.5-13.2.8-9.9-8.5 1-2.6.8-3.8-1-7.9-2.2-4.7-2.3-4.8-5.9-4.2-13.6 2.1-14.4 2-19.2-2.4-3.3-3-5.3-4-7.7-4-2.8 0-3.7-.6-5.4-3.4-1.3-2.3-3.1-3.7-5-4.1-3.3-.7-3.8-2.8-1.4-6.2 1.4-1.9 1.3-2.3-.1-3.8-2.1-2.1-1.2-4.2 4.9-11.7 14.8-18.1 20.4-30.5 21.2-46.3.1-1.7.5-5.4 1-8.4.5-3.7.4-5.2-.3-4.7-1.5.9-.6-3.7 2.2-11.4 1.3-3.6 2.8-7.9 3.3-9.5.6-1.7 1.4-3.9 1.9-4.9.6-1.6.4-1.8-.9-1.3-1.1.4-2-.1-2.7-1.3-.7-1.3-2.1-2-4-2-2.2 0-4.5-1.4-8.5-5-3-2.8-5.9-5-6.4-5-.4 0-2.5 1.3-4.6 3-4 3.1-6.7 3.6-10.9 2-2.5-.9-2.6-1.2-2-6.3.4-3.6.3-5.7-.5-6.1-2.4-1.5-.9-5.8 5.1-14.7 8.1-12 15-18.8 23.5-23.2 7.3-3.7 7.1-3.5 9.7-15 1.9-8.2 5.8-13.7 12.5-17.2 3.2-1.8 3.8-2.3 1.9-1.9-3.2.7-3.2.6-1.7-3.3 1.2-2.8 1.4-4 1.7-10.2l.2-3.4 2.5 3.7c1.4 2 2.5 4.1 2.5 4.7"/><path d="M322.5 180.9c-.3 1.1-.2 2.8.4 3.8.8 1.6 1 1.4 1.6-1 .9-3.4-1-6-2-2.8m-9.2 13c-6.6 1.9-13.5 5.9-13 7.6.6 1.7 8 5.5 10.8 5.5 4.2 0 7.8-4.3 10.3-12.8.9-2.7.3-2.7-8.1-.3M275 209.5c-.8.2-3.1.6-5 .9-6.3 1.1-6.6 1.8-3.4 7 3.3 5.2 6.1 5.8 13 2.7 3.4-1.6 10.4-8.6 10.4-10.5 0-.6-12.2-.6-15-.1m-83.1 2.9c-.7.8-.3 11.3.5 11.8 3.2 2.2 10.6-.4 10.6-3.7 0-2.3-5.2-7.3-8-7.7-1.6-.3-3-.4-3.1-.4m26.3 5.7c-6.5 1.2-6.8 1.7-2.6 6 6 6.1 14.4 6.3 14.4.3 0-1.4.5-3.4 1-4.4 1.5-2.8-3.4-3.5-12.8-1.9m43.1 30.4c0 2.2.2 3 .4 1.7.2-1.2.2-3 0-4-.3-.9-.5.1-.4 2.3"/></svg>