<svg xmlns="http://www.w3.org/2000/svg" width="682.667" height="512" version="1.0" viewBox="0 0 512 384"><path d="M0 192v192h512V0H400.4C294.5 0 288.8.1 289.5 1.7c4.8 11 6.5 29.1 4.1 41.4-2.9 14.3-6.9 20.9-24.4 40.7-10.5 11.7-11.9 14.1-13 21.4l-.8 5.3-1.7-5c-1.1-3.3-5.1-9.2-11.8-17.5-16.1-19.9-23.7-30.4-26.5-36.4-5.9-12.9-5.4-32.9 1.3-50.2C217.1.2 200.6 0 108.6 0H0zm245-68.5c.5 1.4 1.4 2.5 2 2.5.5 0 1 .7 1 1.5s1.2 2.6 2.7 4.1c2.6 2.6 2.6 2.8.8 3.4-1.3.4 0 .9 3.7 1.3 8.1.8 11.2 2.8 16.9 11.1l5.1 7.3 7.6.7c22 2 37 8.6 38.8 17 .3 1.7 1.5 4.5 2.5 6.2 3.8 6.3-1.1 21.2-7.6 22.8-1.7.4-4.1-.2-7.4-1.9l-5-2.5-2 2.6c-1.2 1.5-2.1 3.1-2.1 3.6 0 1.7-8.5 10-12.4 12-4.7 2.4-13.1 2.2-18.5-.5-1.9-.9-3.5-1.6-3.7-1.4-.8.8 2.1 10.5 3.7 12.3 1.9 2 2.4 4.5 1.2 5.7-.3.4-1.2-.1-2-1.1-2.9-3.6-.5 8.5 2.8 13.6 2.1 3.2 2.9 5.8 2.8 8.2-.3 5.6-.1 6 3.4 6 5.3 0 7.1-1.9 6.3-6.8-.7-5 .9-6.5 3.6-3.2 2.8 3.4 2.3 8.2-1.1 11.9-2.8 2.9-4.5 3.5-10 3.3-3.3-.2-6.6-3.5-8-8.2-.6-2.2-1.6-4-2-4-.5 0-1.4-1.4-2-3.2-.6-1.7-1.4-2.8-1.7-2.5-.9.9 1.7 26.6 2.7 27.2.4.3.5 2 .2 3.9-.6 4.1 1.7 15.9 6.5 32.1 3.7 12.7 7.1 26.2 7.2 28.2 0 .7-.9 1.3-2 1.3-1.8 0-1.9.5-1.4 4.5l.7 4.4-3.4-.5c-5.1-.7-9.4.8-9.4 3.3 0 1.2-.3 2.5-.7 2.9-1.5 1.4-.8 6.2 1.3 8.7 1.1 1.5 2.1 3.9 2.2 5.4.3 3.5-3.5 5.1-9 3.7-3.2-.8-4.6-.5-8.5 1.3-8.8 4.2-11.4 2.3-10.2-7.3.5-4.4.3-6.4-1.2-9.5-1.6-3.5-2.2-3.9-4.4-3.4-9 2.1-11.3 1.8-16-1.9-2.6-2-5.6-3.6-7.1-3.6-1.8 0-3.5-1.1-5.2-3.4-1.5-1.8-3.8-3.7-5.3-4-2.4-.7-2.6-1-2-4.6.4-2.5.2-4.7-.6-6-1-1.6-.7-2.9 2.1-8.2 1.8-3.5 3.9-7 4.5-7.8 7.6-9.5 20.4-38 19-42.3-.4-1.3-.2-1.7.5-1.3.6.4 1.1.2 1.1-.3 0-.6-.5-1.1-1.1-1.1s-.8-1.1-.5-2.7c1.7-8.6 1.8-10.3.6-10.3-.7 0-1 .7-.6 1.5.3.8.1 1.5-.4 1.5-1.4 0-1.3-1.7 1-10.4 1.1-4.2 1.8-8.1 1.5-8.6s.1-2.3 1-3.9c1.9-3.9 2.1-6.8.2-5.2q-2.7 2.25-2.7-3.3c0-2.6-.8-3.6-4.4-5.9-2.4-1.5-4.6-2.7-5-2.7s-2.5 1.4-4.6 3.1c-2.6 2.1-5.4 3.3-8.3 3.6-4.6.5-8.7-.9-8.7-3 0-.7-.5-2.9-1-4.9-.8-2.6-1.5-3.5-2.5-3.2-2.7 1.1-2.7-2.5-.1-8.2 1.5-3.1 2.9-7.5 3.3-9.6 1.2-7.8 10.7-17.1 25.1-24.5 3.9-2.1 7.4-4.5 7.6-5.3.3-.8 1.2-5 2.2-9.4 1.9-9.1 5.3-13.8 12.2-16.8 4.7-2.1 5.5-3.2 1.7-2.2-2 .5-2.5.2-2.5-1.3 0-1 .4-2.3 1-2.9.5-.5 1.1-3.3 1.2-6.2.3-5.6 1.3-6.6 2.8-2.7"/><path d="M316.4 186.9c-3.8 1.7-8.4 5.6-8.4 7.1 0 .8 8.7 5 10.4 5 2.7 0 5.9-4.9 6-9.2.1-5.2-1.7-5.8-8-2.9m-33 15.6c-6.6 1.4-16.4 5.3-16.4 6.5 0 .4 2.5 1.7 5.6 2.9 6.4 2.4 14.3 2.7 18.2.7 3.1-1.6 7.4-6.1 9.1-9.4 1.2-2.2 1.1-2.2-4.6-2.1-3.2 0-8.5.7-11.9 1.4m-88.1 7.2c-1.3.2-2.3.5-2.3.6s.9 2.4 1.9 5.2c2.7 7.2 8.1 8.5 14.2 3.6l2.4-1.9-2-2.2c-2-2.3-9.1-6.1-11-5.8-.5 0-2 .3-3.2.5m27.9 4.6-3.3 1.2 4.5 3.3c3 2 4.6 2.7 4.6 1.8 0-.7.3-2.8.6-4.5.7-3.5-.5-3.9-6.4-1.8M251.5 349c-3.5 2.3-4.4 4.4-3.8 8.7.4 2.4 1.5 3.8 4 5.3 1.9 1.1 3.6 2 3.8 2s.7-2.5 1-5.5c.5-3.7.3-6-.5-7-.6-.8-.9-2.3-.5-3.5.8-2.5-.2-2.5-4 0"/></svg>