<svg xmlns="http://www.w3.org/2000/svg" width="682.667" height="512" version="1.0" viewBox="0 0 512 384"><path d="M0 192v192h512V0H289.8l.7 2.2c3.4 11.5 4.5 17.2 4.5 25.4 0 17.8-5.6 31.9-17.9 45.3-16.2 17.6-18.8 21.4-20.7 30.1-1.1 5.2-1.2 5.3-1.9 2.5-.9-3.7-4.9-10.9-7.4-13.3-1-.9-7-8.2-13.3-16.2-21.1-26.7-22.2-29-22.1-48 0-11.9.3-14.3 2.5-20.8l2.6-7.2H0zm245-71.6c0 .8.7 1.9 1.5 2.6s1.5 2 1.5 2.9 1 2.1 2.3 2.6c2.9 1.3 2.8 3.7-.3 4.6-1.7.5-.3.7 4 .8 7.9.1 11.7 2.2 16.3 8.8 7.1 10.3 7 10.3 18.7 11.3 11.5 1 16.4 2.2 22.5 5.2 4.8 2.4 9.5 6.6 9.5 8.5 0 .8 1.8 3.3 4 5.5 3.3 3.5 4 4.9 4 8.3 0 6-1.7 10.8-4.8 13.8-2.5 2.4-3.1 2.6-6.4 1.6-2.1-.5-4-1.4-4.3-1.9-.4-.6-1.5-1-2.5-1-1.4 0-2.7 1.7-4.5 5.5-3.1 6.6-8.2 11-15.1 13.2-5.1 1.6-5.3 1.5-13.1-1.1-11.8-3.8-14.1-3.5-11.6 1.5.8 1.7 1.3 3.9 1 4.9-.3 1.3.4 2.8 1.9 4.2 1.3 1.3 2.4 3.3 2.4 4.5 0 2.8-.8 2.9-2.6.5-.8-.9-1.4-1.2-1.4-.5 0 2.6 3 12.7 4.4 14.2 1.9 2.2 2.9 5.9 2.8 10.1-.2 5.3 4.4 6.9 8.7 2.9 1.9-1.7 2.1-2.8 1.6-5.9-.4-2.1-.2-4.1.3-4.4 1.6-1 4.1 2.8 4.3 6.4.5 6.4-4.4 11-11.6 11-4 0-8.1-4.2-9.1-9.5-.3-1.9-1.1-3.3-1.7-3.2s-1.3-.7-1.5-1.8c-.8-3.8-2.4-4.2-1.8-.5.3 1.9.8 7.5 1.1 12.5.4 6.1 1.2 9.6 2.2 10.8 1.4 1.4 1.4 2.3.5 5.3s-.7 5.5 1.3 14.3c1.3 5.8 3.7 14.6 5.4 19.6 3.4 10.2 7.1 23.3 7.1 25.2 0 .7-1 1.3-2.1 1.3-2 0-2.1.4-1.6 4.4l.6 4.4h-3.7c-2-.1-5.6 0-7.8.2-4.1.2-4.2.3-3.4 3.1.5 1.7.5 3.1-.1 3.4-1.8 1.2-.9 6.7 1.6 9.7 5 6 2 9.5-7.2 8.4-3.7-.4-6.4-.2-8.9.9-7.6 3.2-9.9 1-8.8-8.4.5-4.8.3-6.5-1.2-9.1-1.6-2.6-2.4-3-4.4-2.6-8.7 2-8.8 2-13.7-1.8-2.9-2.2-5.7-3.6-7.5-3.6-2.2 0-3.3-.8-4.9-3.4-1.3-2.2-3-3.6-4.9-4-2.8-.5-3-.8-2.9-4.8.1-2.4-.2-5.4-.6-6.8-.5-1.9.4-4.5 3.6-10.5 12.4-23.7 16.8-32.9 18.8-38.6 2.3-6.9 4.1-25.6 2.2-22.9-1.6 2.3-1.4-1.7.5-10.1.9-3.9 1.3-7.3 1-7.6s.1-1.8.9-3.4c2.2-4.1 2-6.2-.5-5.4-1.7.5-2 .2-2-2.1 0-1.5.8-3.2 1.7-3.9 1.6-1.2 1.4-1.5-1.7-3.4-4.4-2.6-6.2-2.6-8.6 0-2.9 3.2-6.9 4.9-11.6 4.9-5.5 0-6.7-.8-9.2-6.2-1.7-3.4-2.6-4.2-4.4-4q-4.5.6-1.8-6c.9-2 1.8-5.9 2.1-8.8.2-2.8 1-6.1 1.7-7.3 3.9-7.4 14.8-16.7 26.5-22.6l6.1-3.2 2.2-9.5c2.5-11 5.4-15.1 12.5-18.1 2.5-1 4.5-2.2 4.5-2.6s-.9-.3-1.9.3c-2.5 1.3-3.2.2-1.8-3 1-2.5 1.2-3.8 1.5-9.8.2-3.1 2.2-3.8 2.2-.8m-21.3 136.8c-.3.8-.6.5-.6-.6-.1-1.1.2-1.7.5-1.3.3.3.4 1.2.1 1.9"/><path d="M318.8 183c-2 1.1-4.6 3.2-5.7 4.6l-2.1 2.7 5.5 2.5c6.4 2.9 7.8 2.3 9.7-3.9 1-3.4.9-4.2-.7-5.9-2.2-2.4-2.1-2.4-6.7 0M294 197.7c-8.2 1.2-22 6.4-22 8.2 0 1.2 13.5 4.5 17.8 4.4 3-.1 5.4-1 7.8-2.8 3.3-2.5 7.4-7.9 7.4-9.8 0-.7-6.4-.8-11 0m-99 10.6c0 1.4 4.2 9.6 5.5 10.7 3.3 2.8 12.9.3 14.3-3.8.7-2.3-7.7-6.6-13.9-7-3.2-.2-5.9-.2-5.9.1m30.6 4.5c-.2.4.4 1.3 1.4 1.9 1.5 1 1.9.9 2.3-.8.4-1.4 0-1.9-1.3-1.9-1.1 0-2.1.4-2.4.8m25.9 134.4c-3.2 1.8-4.1 3.7-3.7 7.4.3 2.3 1.3 4.1 3.2 5.4l2.8 2 1.2-3.1c1-2.4 1-3.8 0-7.2-.7-2.3-1.3-4.5-1.4-4.9 0-.4-1-.2-2.1.4"/></svg>