<svg xmlns="http://www.w3.org/2000/svg" width="682.667" height="512" version="1.0" viewBox="0 0 512 384"><path d="M0 192v192h512V0H293.2l1.4 4.7c1.8 5.9 1.8 24.2 0 30.8-3.1 11.5-8.5 20.3-19.2 31.5-13.6 14.1-16.4 18.2-18.5 26.4l-1.2 4.7-2.4-5.2c-1.3-2.9-6.6-10.2-11.7-16.3-25-29.6-29-36.3-30.1-50-.6-7.4.3-17.6 2.1-24.4l.6-2.2H0zm248.9-78.6c.6.4.9 1.1.7 1.5-.3.4.6 1.8 2 3 1.9 1.7 2.3 2.5 1.5 3.5-.9 1-.1 1.4 3.7 1.9 8 .9 11.6 3.3 17.3 11.4 5.5 7.8 5.6 7.8 15.8 8.8 5.7.6 21.3 5.5 27.3 8.6 1.3.6 4.1 2.6 6.4 4.4 3.2 2.7 4.3 4.4 5.2 8.5 2.3 9.9 1.1 15.5-2.4 12-.7-.7-1.6.8-2.7 4.8-3.1 11.1-9.7 14.3-22.3 10.6l-5.4-1.5-7.2 7.3c-7.4 7.5-9.9 8.9-19 10.3-4.3.7-4.7 2.1-1.8 5.8 2 2.5 2.8 7.3 1.1 6.3-1.6-1 .9 7.5 3.1 10.4 1.5 2.1 2.1 4.5 2.2 8.2.2 6.3 2.1 7.4 6.2 3.3 2.2-2.2 2.5-3.1 1.9-6.4-1.1-6.9 2.9-6.7 4.4.1 1.1 4.7-.9 9.2-5.1 11.8-6.2 3.8-10.7 1.7-12.8-5.9-.6-2.2-1.4-4.1-1.8-4.3s-2.2-2-3.9-4.1c-1.8-2.1-3.3-3.5-3.3-3.2s1.3 4.5 3 9.3c1.6 4.8 3.8 14.9 5 22.5 2.2 15.3 5.4 28 10.1 40.2 3.8 10.1 7.9 21.6 7.9 22.6 0 .3-1 .9-2.1 1.2-2.1.6-2.2 2.1-.3 7.1.5 1.2 0 1.6-1.7 1.6-1.3 0-6.3.3-11 .6l-8.7.6-.7 5.6c-.7 5.3-.6 5.6 2.4 7.9 1.7 1.4 3.1 3.3 3.1 4.3 0 4.2-10.6 8-13.7 4.9-.8-.8-1.7-.8-3.1 0-3 1.6-7.9 1.4-8.6-.4-.3-.9-.3-4.9.1-8.9.7-8.5 0-9.4-5.4-7.1-4.4 1.8-7.3 1.3-11.7-2-1.7-1.3-4.8-2.6-6.8-3-2.6-.5-4.5-1.7-6.3-4.1-1.5-1.9-4-3.7-5.8-4.2-2.9-.7-3.2-1.2-3.5-5.2-.2-2.5-.7-4.9-1.2-5.5-1.7-2 2.7-13.4 9.9-25.9 9-15.5 12.5-23.4 12.3-26.9-.1-1.6.1-3.3.4-3.9 1.4-2.2.3-15.2-1.3-16.8-1.4-1.3-1.5-1.2-.9 1.2.4 1.7.2 2.8-.4 2.8-1.6 0-1.2-6.9 1.1-17.1 2.3-10.6 2.3-10.1 2.1-15.1-.2-2.8-.6-3.6-1.6-3.2-1.8.7-6.2-1.6-11.5-6-4.7-3.9-6.2-4.3-8.1-2.1-2 2.4-7.8 3-10 1-1.1-1-2-2.5-2-3.4-.1-.9-.9-4-1.9-6.9-1.8-5.3-1.8-5.4.3-9.5 2.3-4.5 13.9-19.8 17.8-23.4 1.2-1.2 6.1-4.1 10.8-6.5l8.5-4.4 2-8.4c1.8-8 2.3-8.9 7.7-14.3 3.2-3.2 5.8-6.7 5.8-7.7s.4-2.2 1-2.5c.5-.3 1-1.6 1-2.8 0-2 .7-8.5 1-9.7 0-.3.7.9 1.4 2.6.8 1.8 1.9 3.5 2.5 3.8"/><path d="M324 165.6c-1.6 1.8-.4 6.1 2.2 7.8 2.5 1.5 2.8.7 1.5-4.7-1.1-5.1-1.7-5.6-3.7-3.1m-4.5 12.1c-8.2 1.6-15.3 4.5-18.3 7.6l-3.3 3.4 7.3 1.6c8.2 1.8 10.7 1.2 14-3.3 2.1-2.8 4-8.8 3-9.3-.4-.2-1.6-.2-2.7 0m-126.7 17c-1.4 1.6-1.4 2.4-.2 6.5 1.6 5.4 4 6.2 8.3 2.9 2.2-1.7 2.3-1.9.7-4.9-1.4-2.8-5.1-6.2-6.7-6.2-.3 0-1.3.8-2.1 1.7m81.7-1.2c-.5.2-3.2.6-5.9 1l-4.8.7.6 4.1c.4 2.2 1.2 4.7 1.8 5.4 1.7 2.1 8.5 1.5 13.8-1.2 4.2-2.1 10-7.8 10-9.8 0-.7-13.6-.8-15.5-.2m-58.7 6.9c-3.2.7-6 1.5-6.3 1.8-1.1 1 9.4 7.9 12.8 8.5 3.2.5 3.4.3 4.1-2.7.3-1.8.6-4.5.6-6.1 0-2.5-.4-2.9-2.7-2.8-1.6 0-5.4.6-8.5 1.3M250 344.9c0 3.6 1.8 5.9 3.4 4.4.8-.8.8-4.7 0-6.7-1.2-3.2-3.4-1.7-3.4 2.3"/></svg>