<svg xmlns="http://www.w3.org/2000/svg" width="682.667" height="512" version="1.0" viewBox="0 0 512 384"><path d="M292 130c-9.2 1.2-25.2 6-30.5 9-12.2 7-26.7 27.4-34.9 49.3-3.4 9-6.6 22.8-6.6 28.2 0 15.9 12.8 42 24.9 51 7.5 5.4 13.1 7.6 31.7 12.4 2.8.8 4.3 1.8 4.7 3.1.8 3 3.7 3.7 5.6 1.3 1.5-1.8 2-1.9 7.1-.7 9.8 2.3 19 2.7 25.5 1.1 9.4-2.2 26.9-12.9 31.5-19.2.8-1.1 3.3-4 5.6-6.5 5.5-6 11.7-18.7 13.9-28.5 3.4-15.4.7-44.4-5.8-62.1-4.4-11.9-11.6-20.7-20.9-25.3-4.9-2.5-7.4-3.1-12.5-3.1-5.6 0-7.1-.4-11-3.1-8.3-5.7-18.4-8.2-28.3-6.9"/></svg>