<svg xmlns="http://www.w3.org/2000/svg" width="682.667" height="512" version="1.0" viewBox="0 0 512 384"><path d="M0 192v192h512V0H294.3l.9 5.2c1.7 9.2-1.1 26.7-5.7 35.9-2.6 5.1-8.8 13.1-19.3 24.8-10.8 12.1-12.1 14.3-12.9 21.3l-.6 5.1-2.7-5.9c-1.5-3.3-5.8-9.7-9.6-14.3-29-35.4-32.1-41.4-31.2-61.2l.6-10.9H0zm251.1-88.3c1.3 2.7 2.9 5.4 3.5 6.1.7.6 1.5 2 1.9 3.1.4 1.3 1.9 2 5.7 2.4 4.3.6 5.9 1.3 9.5 4.9 2.4 2.4 5.8 6.4 7.5 8.9l3.2 4.5 11 1.2c6.1.6 12.8 1.7 14.8 2.3 5.6 1.8 25.2 17 25.6 19.9.7 4.5-1 12.9-3.2 16.2-2.6 4-6 4.8-7.6 1.9-1.6-3.1-2.5-2.6-4.7 2.6-2.7 6.4-6.5 10.7-11.6 13.2-5.5 2.7-10.2 2.7-15.1 0-7.8-4.2-8.3-4.2-12.5-.4-2.1 2-4.6 5.1-5.5 7-1.6 3.2-1.5 3.6.5 7.5 1.7 3.3 1.9 4.3.9 5.5-1.8 2.2-.6 8 2.6 12.6 2 3 2.5 4.7 2.2 8.1-.2 3.3 0 4.3 1.2 4.3 2.1 0 4-6.3 2.9-9.3-1-2.7-.4-4.2 1.6-4.2 2.1 0 3.5 3.3 3.5 8 0 3.4-.6 4.8-3.4 7.6-5.3 5.3-9 4.1-11.5-3.8-.7-2.1-1.7-4-2.2-4.3-1.2-.8-1.1 1.2.2 3.7.6 1.1 2.4 10.4 4 20.6 1.6 10.3 4.2 24.1 5.9 30.7 2.9 11.2 6 26.4 6 29.2 0 .7-.9 1.3-2 1.3-1.8 0-2 .6-1.8 4.2.3 4.7 1 4.3-8.9 4.6-5.2.2-5.3.2-4.2 2.9.7 1.8.6 3-.1 3.7-1.5 1.5-1.2 6.2.4 7.5 2.7 2.2 2.9 6.2.5 8.7-2.7 2.9-6.6 3-9.6.5-2.7-2.3-2.9-3.8-.7-6.9 1.1-1.7 1.4-3.4.9-6-.3-2-.7-4.9-.7-6.5 0-1.5-.1-2.7-.2-2.7-1.5.1-10.3 5.6-10.8 6.8-1.5 3.8-.8 6.8 2.2 9.4 4 3.5 3.8 5.4-1 7.8-7.3 3.7-11.8 1.7-10.5-4.7 1.6-7.7 1.6-9.4.4-12.1-1.1-2.6-1.6-2.9-3.7-2.1-4 1.6-7 1-10.4-2-4.5-3.8-7.1-5.1-10.7-5.1-2.2 0-3.4-.7-4.7-2.9-1-1.6-3.1-3.3-4.8-3.8-2.4-.7-3.1-1.4-3-3.4.1-1.3.4-3.1.8-4 .4-1 .1-2.3-.8-3.1-1.9-2-1.1-3.6 8.8-16.2 4.2-5.4 8.6-11.6 9.7-13.7 2.1-4.3 1.7-6.9-.7-4.4-.9.8-2 1.5-2.5 1.5-.8 0-1.4-7.7-1.1-15.5.1-2.3-.3-1.8-1.8 2.5l-2 5.5.4-5.3c.3-4.9.2-5.3-1.8-5-1.8.3-2.1-.2-2.1-3.7 0-4 .4-4.3 3.9-2.9 1.5.6 1.7.4 1.1-1.4-.3-1.2-.3-2.2.2-2.2.4 0 .8-1.9.7-4.3 0-2.3.3-5.2.7-6.3.5-1.3.3-2.7-.4-3.4q-1.35-1.35 0-.6c.7.3 1.5-.7 2.2-2.7l1.1-3.2-2 2.5-2 2.5 1-2.8c.5-1.5 2.7-6.2 4.9-10.5 6-11.8 7.4-15.2 6.7-15.9-.3-.4-2.4.3-4.6 1.6-3.2 1.8-5.2 2.1-10.7 1.9-6.5-.3-6.8-.4-9-3.8-4.6-7.1-5-7.6-6.4-6.3-1.7 1.7-6.8 1.7-7.5 0-.2-.7.2-3 1.1-5 .8-2 1.5-5.5 1.5-7.7s.9-5.8 1.9-7.8c3.5-6.9 18.9-20.1 31.8-27.3 2.5-1.4 3.1-2.6 4.7-10 1.5-7.1 2.3-9 5.4-12.2 2-2.1 4.9-4.5 6.4-5.3s2.7-2.2 2.7-3.1c.2-4.5 1.4-16.3 1.6-16.3s1.4 2.1 2.6 4.7"/><path d="M328.5 161.1c-.4.5-1.8 1.4-3.1 1.9-3.6 1.4-4.1 5.3-1.1 8.6 2.1 2.2 2.9 2.5 4 1.5 1.4-1.1 3.7-8.3 3.7-11.5 0-1.8-2.5-2.2-3.5-.5m-21 15.6c-7.3 1.2-21.5 6.7-20.3 7.8.2.3 2.6 1.6 5.2 3 8.8 4.7 17 2.5 21.6-5.7 3.5-6.2 2.8-6.7-6.5-5.1m-112.6 10c-1.6 6.6-.8 9.3 1.8 5.8 1.4-2 1.8-11.1.6-11.8-.5-.3-1.5 2.4-2.4 6m75.1 4.1c0 .6.7 1.7 1.5 2.5s1.1 1.8.7 2.2c-.4.5-.1.5.6.1.6-.4 1.2-1.3 1.2-2.1 0-.7.6-1.6 1.3-1.8.7-.4.6-.6-.5-.6-.9-.1-2.3-.4-3.2-.7s-1.6-.1-1.6.4m-65.7.8c-1.1.5 1.3 5.1 4.7 9.1 1.7 2.1 10.6 1.6 15.2-.8l4.2-2.2-2.9-2.3c-1.7-1.3-4.6-2.9-6.5-3.4-3.6-1-12.6-1.2-14.7-.4"/></svg>