<svg xmlns="http://www.w3.org/2000/svg" width="682.667" height="512" version="1.0" viewBox="0 0 512 384"><path d="M0 192v192h512V0H294.3l.5 8.8c.7 13.8-2.5 26.5-9.7 37.4-2.6 4-5.4 8-6.2 8.8-7.9 8.1-16.3 17.9-18.5 21.6-1.4 2.4-2.9 6.8-3.3 9.7l-.7 5.2-1.2-4.1c-1.4-4.8-3.6-7.9-18.7-26.9-20.1-25.1-22-29.3-22-48.3V0H0zm251.9-90.4c1.2 1.9 2.1 4 2.1 4.5 0 .6.7 1.7 1.5 2.5s1.8 2.2 2.3 3c.5.9 3.1 2 5.7 2.5s6.3 2.1 8.2 3.5c3.3 2.5 10.7 11.2 11.5 13.5.2.6 5.3 1.6 11.8 2.3 6.8.8 12.9 2 15 3.1 8.6 4.4 21.7 12.5 23.8 14.8 2.2 2.4 2.3 2.8 1.2 8.8-.7 3.5-1.6 7.6-2.2 9.1-1.3 3.5-4.7 4.7-6.4 2.3-1.1-1.5-1.7-1-4.6 5.1-2.4 5-4.4 7.7-7.4 9.7-6.1 4.2-10.7 4.4-17.9.8-6.8-3.5-5.3-4.1-16.2 6.7l-6.4 6.3 2.2 3c2.3 3.2 1.9 7-.5 5-2.1-1.7 1.1 9.6 3.7 13.2 1.6 2 2.2 4.3 2.2 7.8 0 3.2.4 4.9 1.2 4.9 1.7 0 2.7-4.4 1.9-9-.7-4.8 1-6.3 3.6-3 4.7 5.8.2 17.5-6.6 16.8-3-.3-3.3-.6-6.6-7.8-2.4-5.3-4.9-9.4-5-8.2 0 .7.9 2.9 1.9 5 1.7 3.4 3 8.6 8.2 34.7 1.1 5.5 3.6 15.8 5.5 22.8 2 7.1 3.8 15.9 4.1 19.7.5 6.3.4 6.9-1.7 8-1.9 1-2.2 1.8-1.7 4.9.4 3.6.4 3.7-2.4 3.3-1.6-.2-4.9-.1-7.4.3-4.5.6-4.6.7-3.9 4 .3 1.9.1 3.5-.5 3.9-1.6 1-1.4 4.8.4 7.3 5.1 7.2-1.6 13.6-9 8.7-2.8-1.9-3.2-4-1-6.4 1.9-2.1 2.1-4.2 1.1-10.8-.8-5.1-.9-5.2-2.7-3.6-1.1 1-3.6 2-5.7 2.3-3.5.6-3.8.9-4.6 5.2-.8 4.2-.7 4.7 2.3 7.6 1.7 1.7 3.1 3.8 3.1 4.6 0 1.9-9.2 6.1-11.8 5.3-2.5-.8-3.4-4.3-2.2-8.7 1.3-4.4 1.3-9.9 0-9.9-.5 0-1-.6-1-1.3 0-.9-1.1-1.2-3.2-.9-2.6.3-4.3-.4-8-3.3-4.1-3.3-6.5-4.1-12.4-4.4-.6-.1-1.6-1.2-2.2-2.5-.7-1.7-2.5-2.9-5.2-3.6-4.3-1.2-4.7-2.1-2.5-6 1.2-2.2 1.1-2.7-.2-4.3-2-2.2-1.4-3.5 7.2-14.2 8.2-10.2 11.3-15.5 9.1-15.5-1.2 0-1.6-1-1.6-3.6 0-3.2-.2-3.5-1.6-2.3-1.4 1.1-1.5.8-1-2.7.3-2.1.3-3 0-1.9-1.1 3.6-2.3 3.9-1.9.4 1.4-11.1 1.5-13.3.5-12.3-.5.5-1.6 2.7-2.5 4.9l-1.5 4 .5-4.8c.4-4.5.3-4.8-1.5-4.2-1.7.5-2 .2-2-2.2 0-4.1 1.5-6 3.3-4.4 1.9 1.5 2.7.4 3.2-4.2 1.5-14 2.7-18.3 7.1-26 2.5-4.4 4.4-8.8 4.2-10-.3-2.1-.8-2.2-8.2-2.2-7.1 0-8-.2-9.5-2.3-.9-1.3-2.8-3.7-4.2-5.4-2.5-3-2.6-3.1-5.2-1.4-1.8 1.2-3.6 1.6-5.6 1.1-3.7-.8-4.5-1.9-3.2-4.3.6-1.1 1.4-5.4 2-9.6.8-7 1.3-8.2 5.3-13 6.5-7.9 17.4-17.1 25-21.1 6.3-3.3 6.7-3.7 7.3-7.8 1.9-12.3 4.6-16.9 13.3-22.7 1.9-1.3 2.3-2.7 2.8-10.3.4-4.8.8-8.7.9-8.7.2 0 1.2 1.6 2.4 3.6"/><path d="M329.2 158.6c-3.6 2.5-4.2 5.3-1.9 9.1 1 1.8 2.1 3.3 2.3 3.3.7 0 2.5-5.2 3.3-9.8.9-4.7.1-5.3-3.7-2.6m-18.7 15.3c-7.3 1.8-15.9 5.9-15.8 7.5.2 1.7 8.7 5.6 12.2 5.6 4.9 0 9.4-3.5 12.5-9.7l2.6-5.3-2.3.1c-1.2 0-5.4.8-9.2 1.8M197 183.5c0 1.4-.6 4.1-1.4 6-1.4 3.2-1.3 3.5.5 4 3.1 1 4.9-1.2 4.9-5.9 0-3.9-1.3-6.6-3.2-6.6-.4 0-.8 1.1-.8 2.5m74 4.4c0 .6.9 2.6 2.1 4.5l2.1 3.6 4.3-3.8 4.3-3.7-3.6-.7c-5.3-1-9.2-.9-9.2.1m-60.7 2.8c-1.3.2-2.3.6-2.3.8 0 1.8 6.7 9.6 8.6 10.1 5 1.3 14.7-1.4 15.9-4.4 1.7-4.4-12.2-8.4-22.2-6.5"/></svg>