<svg xmlns="http://www.w3.org/2000/svg" width="682.667" height="512" version="1.0" viewBox="0 0 512 384"><path d="M0 192v192h512V0H292.5l-.1 13.3c-.1 11.5-.5 14-2.7 19.9-3.6 9.3-9.3 17.7-22.2 32.3-7.4 8.3-9.2 11.6-10.3 18.7l-.9 5.3-1.1-4.2c-1.4-4.6-2.9-6.8-19.5-28.8-6.7-8.8-13.4-18.9-15.5-23.3-3.7-7.6-3.7-7.8-3.7-20.5V0H0zm257-87.5c1.1 1.6 2.5 4 3.1 5.2.8 1.6 2.1 2.3 4 2.3 2.6 0 5.3.8 10.6 3.2 1.1.6 4.4 4.1 7.1 7.8 4.7 6.3 5.4 6.8 9.8 7.4 2.6.3 6 .6 7.6.6 3.9 0 19.7 5.3 27.6 9.3 3.5 1.7 7.4 4.3 8.6 5.8 2.1 2.5 2.2 3.2 1.4 9.5-1 8-2.2 11.4-4.1 11.4-.8 0-1.9 1.8-2.6 4.1-1.6 5.4-7.9 11.6-12.7 12.5-3.1.6-4.7.2-8.6-2-2.7-1.5-5.5-2.5-6.3-2.2-.7.2-3.2 3-5.5 6.1-4.6 6.2-11.1 10.9-16.6 12l-3.6.6 2.2 2.4c1.5 1.6 2 3 1.6 4.2-.6 1.5-.9 1.5-1.7.3-2.5-3.6.4 7 3.7 13.6 2.9 5.7 3.5 7.8 3 10.5-.6 2.8-.5 3.1.5 1.5.7-1.1.9-3.8.6-6.7-.6-5.3.5-7.1 3-4.7 2.4 2.4 2.8 9 .8 13.2-3.2 6.7-9.5 5.5-11-2-.3-1.9-1.3-3.8-2.1-4.1-.7-.3-1.4-1.3-1.4-2.2s-1.6-4.3-3.5-7.6c-4.9-8.5-4.6-3.8.4 7.5 2.2 4.8 5.5 14.5 7.5 21.6 1.9 7.1 6.2 20.4 9.4 29.5 7 19.3 9.2 31.3 6 33-1.2.6-1.8 2.1-1.8 4.4 0 3.8-.1 3.9-10 5-10.1 1.1-10.3 1.2-9.6 5.7.4 2.4.2 4.6-.5 5.4-.8.9-.7 2.7.2 6.7 1.6 7.6.7 10.7-3.2 10.7s-8.9-2.9-8.9-5.1c0-.9.9-2.8 2-4.2 2.2-2.8 2.5-6.2 1-10.1-1.1-3-3.9-3.4-9.3-1.1-6.4 2.6-7.4 7.6-2.7 12.3 1.7 1.7 3 3.5 3 4 0 1.9-7.2 5.3-10.4 5l-3.1-.3.3-8c.1-4.4-.2-9.3-.8-11-1.3-4-5.7-6.5-11.1-6.3-3.1.1-4.6-.4-5.8-1.9-2-2.4-5.3-4.3-7.8-4.3-3.8 0-4.6-1.4-3.2-5.5 1.2-3.3 1.2-3.8-.4-4.6-.9-.6-1.7-1.4-1.7-1.8 0-.5 2.6-4.4 5.7-8.7 5.9-8.3 15.9-26.2 15-27-.3-.3-2.2 1-4.3 2.8s-3.5 2.7-3 2c.4-.7.2-1.2-.4-1.2s-.8-.5-.4-1.3c.5-.7 0-.6-1.1.3-1.7 1.4-1.8 1.3-1.1-1.3.4-1.7.2-3.4-.4-4.2-.8-1-.8-1.9 0-3.5 1.7-3.1.4-3.7-2-.9l-2 2.4 2-5.5c2.3-6.4 2.3-6 1.1-6-.5 0-2.1 2-3.5 4.4-3.6 6.2-5.1 6.8-2.2.9 2-3.8 2.2-4.9 1.1-5.5-1.6-1-.9-4.6 1.6-7.3 2.2-2.4 5.2-9.3 4.5-10.4-.9-1.3 2.1-8.5 7.3-17.5 5.4-9.3 6-10.9 3.6-10-.8.4-1.7-.1-2.1-.9-.3-.8-2.4-2-4.8-2.6-3-.7-5.1-2.2-7.5-5.1-3.6-4.6-4.7-4.8-9.3-2-3.8 2.3-6.6 2.5-10.3.8-2.8-1.3-3-1.7-1.3-5.3.9-1.9.8-3.4-.2-6.6-1.3-3.8-1.2-4.4 1-8.5 2.4-4.6 12.5-17 18.3-22.5 1.8-1.7 6.4-4.8 10.2-6.9 7.5-4.1 7.2-3.6 9.5-15.3 1.3-6.5 4.8-11.3 11.5-15.5 2.2-1.4 3.4-2.7 2.7-3-1.3-.4-1.7-3.4-.5-4.5.3-.4.8-3.1.9-6 .3-6.7.3-6.7 2-3.2.8 1.6 2.3 4.3 3.4 6"/><path d="M332.6 153.3c-1.6 2.4-1.7 3.2-.6 5.5l1.2 2.7 1-2.5c.5-1.3.8-3.8.6-5.5l-.3-3zm-9.1 13.4c-6.9 1.4-17.5 7.1-17.5 9.3 0 .7 10 6 11.4 6 .5 0 2.4-1.1 4.3-2.6 3.2-2.4 5.2-5.5 7.3-10.9.8-2.2.7-2.5-1.3-2.4-1.2.1-3.1.3-4.2.6m-122.9 17c-.9 3.1-1 8.8-.2 10.1 1 1.6 5.7 1.5 8-.3 1.7-1.3 1.7-1.8.6-4.6-2.4-5.8-7.3-8.8-8.4-5.2m82.4-1c-7 .5-9 1.2-9 3.1 0 3.3 2.8 9.7 4.3 10 2.5.5 11.5-4.6 15.2-8.5 4.9-5.2 3.8-5.7-10.5-4.6m-55.5 6.8c-.5.2-3.2.6-5.8 1l-4.8.6 5.2 5c5.5 5.2 6.4 5.6 10.4 3.7 2.2-1 2.5-1.7 2.5-6 0-4.8 0-4.8-3.2-4.7-1.8 0-3.7.2-4.3.4"/></svg>