<svg xmlns="http://www.w3.org/2000/svg" width="682.667" height="512" version="1.0" viewBox="0 0 512 384"><path d="M0 192v192h512V0H291.5l.3 10c.7 20.2-3.8 29.8-26 56.3-5.7 6.9-8.7 13.4-8.9 19.1 0 3.1 0 3.1-1.1.6-.5-1.4-1.6-3.9-2.3-5.6-.8-1.7-6.5-10.1-12.7-18.5-22.3-30.2-23.2-32.2-23.3-50.1V0H0zm255.1-93.8c1.6 3.6 3.4 6.6 5.2 8.6 1 1 1.7 2.3 1.7 2.9s2.2 1.3 4.8 1.7c6.5.8 11.9 4.5 17.1 11.7 2.4 3.2 4.4 5.9 4.5 5.9 0 0 4.2.5 9.1 1 14.6 1.4 30.9 7.2 37.2 13.3l3.2 3-.6 7.9c-.4 4.7-1.4 9.5-2.5 11.6-1 2-1.8 4.2-1.8 4.8 0 1.9-4.9 7.3-8.1 8.9-4.1 2.2-7.4 1.8-12.1-1.2l-4.1-2.8-2.1 2.9c-9.5 13.2-13.7 16.3-23 17.3-3.1.3-5.6.9-5.6 1.3s.9 1.5 2 2.5c2.4 2.1 2.9 6.5.6 4.6-1.2-1-1.2-.4 0 4.3.8 3.1 2.4 7.2 3.6 9.3 1.2 2 2.5 5.5 2.9 7.7.7 3.6.7 3.4.6-1.8-.2-7.2 1.6-8.6 3.9-3 2.8 6.7-.4 15.8-5.4 15.2-2.2-.2-3-1.2-4.5-5.3-1-2.8-2.5-5.4-3.3-5.8S277 223 277 222s-1-3.6-2.2-5.7l-2.3-3.8-.3 3.7c-.2 2.7.7 6.1 3.1 11.5 2 4.3 4.3 10.5 5.2 13.8 2.5 8.7 5.1 15.6 10.2 27.5 6.9 16 9.1 22.1 10.3 29 1.1 6.1 1.1 6.5-1.1 8-1.6 1.3-2.1 2.4-1.7 4.8.5 3.7.1 3.9-8.7 4.8-7.8.8-15 5.3-14.1 8.7.2 1 0 2.7-.6 3.7-.9 1.3-.9 3.4-.1 7.7 1.8 10-.7 12.4-8.7 8.3-4.7-2.4-5.2-4.9-1.5-7.8 2.5-2 3.5-6.9 1.8-8.6-.5-.4-.9-1.2-.9-1.7-.1-.5-.2-1.1-.3-1.3 0-.3-1.7.2-3.6 1-1.9.7-4.8 1.4-6.4 1.4-2 0-3.4.7-4.1 1.9-1.7 3.2-1.2 5.1 2 8.1 3.8 3.6 3.8 4.5-.2 6.7-4.7 2.5-7.1 3.1-9 2.1-1.4-.7-1.6-2.3-1.4-12.3l.3-11.5h-4.8c-3.5 0-5.5-.6-7.6-2.4-1.5-1.3-4.6-2.7-6.8-3-6.3-1.1-7.1-1.8-5.5-5.6 1.2-2.9 1.2-3.4-.3-4.5-.9-.7-1.7-1.8-1.7-2.5s2.9-6 6.5-11.9c5.4-8.9 11.9-22 11.2-22.7-.1-.1-2.2.1-4.5.6-4.6.8-4.7.7-2.7-4.3.6-1.3.3-1.6-.9-1.1-2 .8-2 .1-.1-3.6.9-1.7 1.1-3 .6-3-.6 0-1.5.9-2.1 2.1-.7 1.1-1.4 1.8-1.7 1.5s0-1.2.7-2.1c.7-.8 1-1.5.6-1.5s0-1.3.9-3c2.4-4.6 1.7-4.8-2.3-.5-2 2.3-3.1 3.3-2.4 2.4.8-1 1.1-2.2.8-2.8-.3-.5 0-1.1.6-1.4 1-.3 1-.7 0-2-1.2-1.4-.9-2.7 2.2-9.2 4.1-8.6 4.3-9.3 1.9-7.4-.9.8-1.5.9-1.2.4.3-.6 3.6-7.2 7.4-14.7 5.6-11.1 6.7-14 5.7-15s-1.5-1-2.3.2c-.9 1.2-1.1 1.3-1.6.1-.3-.7-1.5-2.1-2.6-3s-3.9-3.3-6.2-5.4c-4.8-4.2-6.7-4.5-9.4-1.8s-8.3 3.6-11.8 1.9c-3-1.4-2.9-1.1-3.6-15.9-.1-3 1.1-5.5 6.8-13.8 8.1-12 12.5-16.3 22-21.5 3.9-2.2 7.3-4.4 7.6-4.9.4-.5.9-3.1 1.2-5.7 1.2-9.9 6.7-18.5 13.4-21.1 1.3-.5 2.3-1.3 2.3-1.9s-.4-.8-1-.5-1-.5-1-1.9.3-2.7.8-2.9c.4-.3.7-2.8.7-5.6 0-5.5.9-6.5 2.6-2.9"/><path d="M334.7 149.7c-1.1 1-.8 7.3.3 7.3.6 0 1-1.8 1-4 0-4.1-.2-4.5-1.3-3.3m-10.4 15.2c-5 1.7-13.3 6.7-13.3 8 0 1.5 7.3 5.1 10.5 5.1 4.9 0 9.1-4.6 10.9-12.3.8-3.3-.5-3.5-8.1-.8m-41.1 16.5c-8 1.6-8.8 2.4-7.2 7.3 1.5 4.5 2.5 5.3 6.8 5.3 6.4 0 13.4-4.1 17.7-10.4l2.4-3.6-6.7.1c-3.7.1-9.5.7-13 1.3m-80.3 1.8c-.1.2-.3 2.7-.4 5.6-.2 4.8 0 5.5 2.2 6.3 3 1.1 6.6.3 8.7-2 1.5-1.6 1.3-2.1-2-5.9q-3.6-4.2-6-4.2c-1.3 0-2.5.1-2.5.2m24.3 6.8c-1.8.4-3.5 1-3.8 1.2-.2.3 1.5 2.3 4 4.6 6 5.5 8.6 5 8.6-1.9 0-4.7-.1-4.9-2.7-4.8-1.6.1-4.3.5-6.1.9"/></svg>