<svg xmlns="http://www.w3.org/2000/svg" width="682.667" height="512" version="1.0" viewBox="0 0 512 384"><path d="M0 192v192h512V0H290v7.7c0 18.2-4.4 30.9-16 46.1-14.8 19.6-16.9 23.4-17 30.7-.1 2.6-.4 2.2-2.2-2.5-1.8-4.6-6.9-13.2-8.9-15-.3-.3-4.4-6.1-9.1-13-14.6-21.4-17.1-27.9-16.6-43.5l.3-10.5H0zm257.8-93.4c1.2 2 1.9 4 1.6 4.5-.3.6.3 1.3 1.4 1.6 1.1.2 2.5 1.6 3.1 2.9.8 1.7 1.9 2.4 4 2.4 7.5 0 10.8 2.8 21.6 17.8.1.1 5.3.7 11.5 1.3 18.6 1.7 35.3 8.6 35.6 14.6.2 3.6 1.5 7.5 2.9 9 3 3-.7 16.6-5.6 20.8-3.7 3-6.1 3.1-10.6.4-1.8-1.2-3.9-1.9-4.7-1.6-.7.3-2.7 3-4.4 6-6.9 12.2-17.8 16.5-30.2 11.8-3.3-1.3-5-1.5-5-.8 0 2.6 2.3 9.3 3.7 10.9 1 1.1 1.3 2.4.8 3.5-.5 1-.7 2.2-.6 2.8.2.5.4 1.4.6 2 1.1 4.5 3.5 8 5.7 8 2 0 2.5.8 3.7 5.5 1.2 4.8 1.2 6-.2 9.2-1.1 2.5-2.2 3.8-3.5 3.8-2.5 0-3.7-1.5-5.2-6.7-2.1-6.8-3.6-6.1-3.2 1.6.5 10.8 6.1 24.9 17.4 44.2 10.8 18.6 13.7 26.8 10.2 29.3-1.2.9-1.3 1.7-.5 4 .6 1.5.9 3.1.6 3.6s-3.1 1.4-6.3 2c-4.3.9-6.7 2.2-9.9 5.1-2.5 2.3-4.8 3.6-5.7 3.3-.8-.3-3.5.3-6 1.4-3.7 1.7-4.6 2.7-5.5 5.8-.7 2.5-.7 4.3 0 5.6.6 1 .9 3.8.7 6.1-.3 3.7-.6 4.2-3 4.5-3.2.4-10.8-3.3-10.8-5.2 0-.8 1.4-2.6 3-3.9 4.7-4 4.1-7.1-1.7-9.7-6.3-2.8-9.2-2.8-11.4.1-2.6 3.3-2.4 6.6.5 8.4 5.1 3.4 3.7 7.5-3.4 9.6-6.6 2-7.3 1.1-6.7-7.9.4-4.2.3-9.5-.1-11.7-.8-4.4-1.5-4.7-12.6-6.1l-4.8-.6.7-4.4c.5-3.6.3-4.4-.9-4.4-2.6 0-1.9-3.6 3.5-16.4 5-11.6 9.9-25.1 9.9-26.8 0-.4-.5-.8-1.1-.8-.5 0-.7.5-.3 1.2.4.6.3.8-.3.5-.7-.5-.8-1.9-.2-4.4 2.4-9.8 2.3-10.2-1-5.1-3.9 6-5.4 6.9-2.8 1.6 1.5-3 1.7-4.3.9-4.6-1.7-.5-1.5-3.6.7-7.9 1-2.1 2.2-5.1 2.6-6.7.6-2.7.5-2.8-1.1-1.5s-1.6 1.2-.2-1.6c.8-1.7 1.8-4.6 2.1-6.6.3-1.9 1.5-5.6 2.7-8.2 2.1-4.5 2.2-4.9.6-6.6-1.1-1.3-1.6-3.2-1.4-5.7.3-3.6.1-3.9-2.2-3.9-1.9 0-2.6-.6-2.8-2.4-.2-1.5.3-2.8 1.2-3.3 2.4-1.3 2-2.4-2-4.7-4.2-2.5-6.7-2.7-8.5-.5-3.5 4.2-11.6 5.7-15.6 2.9-1.2-.8-2.5-2.9-2.8-4.7-.4-1.7-1.8-4.1-3.1-5.3l-2.4-2.2 2.4-5.4c1.3-3 3.1-7.9 4-11 1.1-4 3-7.3 6.3-11 4.7-5.1 16-13.3 22-15.8 2.8-1.1 3.1-1.9 5.1-11.3 2.3-11 3.9-13.6 10.4-16.9 4.3-2.2 6.2-4.5 2.9-3.4-2.5.8-2.8-1-.6-4.2 1-1.4 1.2-2.4.5-2.8s-.7-1.3.1-2.6c.5-1.1.7-2.9.4-3.9-1-3.2.8-2.2 3.3 1.6"/><path d="M329.4 160.4c-4.4 2-9.4 6.6-9.4 8.5 0 .3 2.3 1.6 5.1 2.8 4.1 1.8 5.4 2 7 1 2.9-1.8 6.2-9.3 5.5-12.2-.8-3-1.7-3-8.2-.1m-24.9 15.2c-1.1.2-4.5.9-7.5 1.5-6.3 1.2-19.5 6.9-18.3 7.9 1.7 1.5 13.2 5 16.2 5 3.8 0 8.5-2.2 12.4-5.9 2.6-2.3 5.7-7.1 5.7-8.6 0-.6-5.3-.5-8.5.1m-98 11.1c.4 1 1.2 3.1 1.7 4.8 1.6 4.5 2.7 5.5 6.2 5.5 3.8 0 9.8-3.5 9-5.2-.3-.7-2.1-2.5-4.1-4.1-2.8-2.1-4.7-2.7-8.6-2.7-4.3 0-4.8.2-4.2 1.7m26.7 4c-1 .4-.9.8.5 1.9 2.4 1.8 3 1.7 3.6-.6.5-2-1.1-2.5-4.1-1.3m46 39.3c0 1.4.2 1.9.5 1.2.2-.6.2-1.8 0-2.5-.3-.6-.5-.1-.5 1.3"/></svg>