<svg xmlns="http://www.w3.org/2000/svg" width="682.667" height="512" version="1.0" viewBox="0 0 512 384"><path d="M0 192v192h512V0H284.2l-.4 13.7c-.7 18.6-3 25-16.5 46-7.4 11.6-10.3 18-10.4 23.6 0 2.8-.3 2.5-2.3-2.8-1.2-3.3-4.7-10.1-7.6-15-19.4-33-21-37.1-21-55.3V0H0zm260.4-93.1c.9.7 1.6 2.2 1.6 3.2s.9 2.1 2 2.4c2.7.9 2.5 3.3-.2 4.5-1.7.7-.7.9 4.3.9 8.8.1 11.4 1.9 22.7 15.7 1.5 1.8 3.3 2.2 12.1 2.8 12.4.8 16.7 2.4 28.6 10 13.7 8.8 13.5 8.6 13.5 17.7 0 6-.4 8.2-1.9 10-1.8 2.3-1.9 2.3-6.2.6-4.4-1.7-5.8-1.2-5.9 2.1 0 3.9-6.4 12.3-11.2 14.8-3.4 1.8-10.6 1.8-18.3 0-5.7-1.4-9.5-.9-9.5 1.3 0 .4-2.2 3-4.9 5.7l-4.9 4.9 1.5 3.5c.9 1.9 1.7 4.9 1.8 6.6s1.7 6.2 3.6 10c2.7 5.7 3.3 7.9 3.1 12.4-.1 3-.5 5.6-.9 5.8-3.3 1.1-3.4 1.8-1.8 9.3 1.8 9.1 1.8 8.9 0 8.9-1.1 0-.2 2.5 3.3 9.3 5.2 10 8.2 14.3 18 25.2 6.6 7.4 8.2 10.6 6.2 13-.9 1.1-.8 1.9.4 3.7 2.3 3.3 2 4.5-1.6 5.7-1.7.6-4.6 2.7-6.4 4.6-2.2 2.5-4 3.5-6.1 3.5-2 0-4.6 1.4-8.2 4.5-5.7 4.9-6.8 5.1-13.6 3.3-4.1-1.1-4.6-1-6 .7-1 1.4-1.3 3.1-.9 5.5.3 1.9.6 5.5.7 8 .2 4.1 0 4.5-2.2 4.8-2.9.5-9.7-1.6-11.1-3.3-1.5-1.8-.2-4.4 3.1-6.1 5.4-2.7 3.5-7.8-4-11.4-6-2.7-7-2.2-7.8 3.8-.4 3.1-.1 4.7 1.6 7 3 4.2 2.6 6.1-1.4 7.8-4.7 1.9-7.1 1.8-8.8-.7-1.3-1.7-1.3-2.7.1-7.8 2-7.6.6-11.5-4.9-12.9-2.6-.6-4.1-.6-4.8.1-.8.8-1.1-.2-1.1-3.6 0-3.5-.4-4.7-1.5-4.7-.9 0-1.5-.9-1.5-2.3 0-2.9 3-16.1 7.3-32.7 2-7.4 4.5-20.7 5.8-29.5 1.2-8.8 2.5-16.7 3-17.7 1.6-3.1-.6-10.5-4-13.4-3-2.5-3.1-3-2.5-7.1.6-4.2.5-4.5-1.3-3.9-3.3 1-3.8-3-.7-5.1 3.4-2.2 2.4-2.6-1.9-.8-2 .8-5.7 1.5-8.2 1.5-4.3 0-5.1-.5-10.5-5.5-4.5-4.4-5.9-5.2-6.4-4-.3 1-1.5 1.5-2.8 1.3-2.1-.3-2.4-1-3.2-9.6-1.1-11.9.2-14.9 10.3-25 6.4-6.5 20.9-17.2 23.2-17.2.4 0 1.3-2.6 1.9-5.8 2.5-12.5 3.2-14.1 7.2-17.7 2.1-2 5.4-4.3 7.3-5.2s3.5-2.1 3.5-2.5c0-.5-.9-.4-1.9.2-1.1.5-2.2 1-2.5 1-1.1 0-.6-3.6.6-4.8.6-.6 1.3-3.5 1.4-6.4.3-6.6.3-6.8 1.4-4.3.4 1.2 1.5 2.7 2.4 3.4"/><path d="M340.6 152.5c-.3.8-1.4 1.5-2.5 1.5-2 0-5.1 4.4-5.1 7.2 0 .7 1.8 2.1 4.1 3l4 1.7 1.5-3.6c1-2.3 1.3-4.9.9-7.4-.7-4-1.9-5-2.9-2.4M321 168.6c-8.2 1.7-11.2 2.9-17.9 7.2-3.1 1.9-5 3.7-4.5 4.2 1.4 1.4 14.9 3.3 17.7 2.6 4.9-1.2 12.7-10.1 12.7-14.6 0-1.2.2-1.2-8 .6m-113.5 15.1c.9 7.6 2.5 9.2 2.5 2.6 0-5.7-.7-8.3-2.2-8.3-.7 0-.8 2.1-.3 5.7m72.5 1c.1 1 .6 3.1 1.3 4.6l1.2 2.8 3.4-3.5c1.9-2 3.3-3.8 3-4-.2-.2-2.3-.7-4.6-1.1-3.8-.6-4.3-.4-4.3 1.2m-63 3.4-2.5 1 5.2 5c5.8 5.5 9.7 6.3 15.6 3.3 6.1-3.2 6.2-5.8.5-8.4-4.7-2.1-14.5-2.6-18.8-.9"/></svg>