<svg xmlns="http://www.w3.org/2000/svg" width="682.667" height="512" version="1.0" viewBox="0 0 512 384"><path d="M0 192v192h512V0H273.2l.5 4.4c1.3 11-3.2 38.5-8.2 50.1-5.6 13-7.7 19.4-8.2 25.1l-.6 6.5-2.3-9.1c-1.3-5.1-2.8-9.7-3.3-10.4-.5-.6-1.6-3.4-2.4-6.1-.9-2.8-2.9-8.8-4.6-13.4-4.1-11-6.1-23.2-6.1-36.4V0H0zm265.4-94.7c1.1 1.7 1.9 3.6 1.8 4-.2.5.9 1.8 2.4 2.9l2.6 2.1-2.2 1.2c-2 1.1-1.6 1.3 3.7 1.8 8.8.9 10.8 2 15.5 8.3 8.2 10.8 7.4 10.2 17.3 11.4 12.5 1.4 18.1 2.8 24.9 6.2 7.1 3.6 10.6 6.9 10.6 10.1 0 1.3 1.4 4.1 3 6.2 1.7 2.1 3 4.1 3 4.4-.3 5.2-3.3 13.8-5.6 16.2-3.2 3.3-5.8 3.6-10.8 1.3-4.5-2.2-6-1.5-9 4.3-6.4 12.5-16.4 16-31.6 10.8-4-1.4-7.5-2.3-7.7-2.1-.3.2 0 1.3.6 2.4.6 1.2 1.1 3.2 1.1 4.5s.9 3.6 2 5c2.3 2.9 2.7 5.9.6 5.1-1.9-.7.3 7.5 3.9 14.1 1.6 3.2 2.4 5.9 2.1 7.5-1.6 8.2-2.2 9.4-4.9 10.1-2 .5-2.7.4-2.7-.6 0-.8-.5-1.7-1.2-2.1-1.9-1.2-.1 10.7 3.1 20 1.6 4.7 6.3 15.2 10.4 23.3s8.2 17.2 9.2 20.2c1.5 4.7 1.6 5.5.2 6.8-1 1-1.3 2.7-1 5.3.5 3.7.5 3.7-3.6 4.4-2.9.4-4.5 1.4-5.8 3.4-2.3 3.5-3.3 4.2-6.4 4.2-1.4 0-4.3 1.3-6.5 2.9-2.1 1.5-5.1 3.1-6.6 3.5-3.2.7-4.4 3.8-2.8 7.6.6 1.5 1 4.3.8 6.1-.3 3-.7 3.4-3.5 3.7-1.7.2-4.5-.4-6.2-1.2-1.9-1-3.2-1.2-3.6-.6-.3.6-2.5 1-4.9 1-5.6 0-8.5-2.8-6.8-6.5.7-1.4 1.9-2.8 2.7-3.1 1.7-.7 2.1-5.9.5-6.9-.5-.3-1-1.5-1-2.5 0-3.5-8-5.9-20.2-6.3-3.3-.1-3.5-.3-3.1-3.1.1-1.7.5-3.6.7-4.3.3-.7-.5-1.3-1.9-1.5l-2.3-.3 3.2-9.5c12.4-36.2 15.5-47.3 12.7-45.5-.7.4-1.1-.8-1.1-3.3 0-3.1.4-4.1 1.9-4.5 1.6-.4 2-1.8 2.5-9.3.4-4.9 1.2-11.8 1.8-15.3 1-5.8.9-6.5-.7-7.7s-1.7-1.9-.7-5.1c1.2-3.8.6-6.5-.9-4.2-.8 1.2-1.1 1.1-1.9-.1-1.4-2.2-1.2-5 .5-5.6 2.6-1 1.7-2.3-3.4-4.8-4.8-2.5-4.9-2.5-7.1-.6-1.2 1.1-4.2 2.7-6.7 3.6-4.1 1.6-4.8 1.6-7.2.3-1.4-.8-3.6-3-4.9-4.9-1.2-1.9-2.9-4.2-3.6-5.1-2.4-2.9-2.7-5.4-1.1-10 .9-2.4 1.6-5.8 1.7-7.4 0-4.3 3.9-10.5 9.8-15.8 5-4.5 19.6-13.7 21.8-13.7 1.7 0 2.7-2.6 4.7-11.3 1.3-6.2 2.4-8.7 5.2-11.8 1.9-2.1 4.2-4.1 5.2-4.4.9-.3 1.8-1.7 1.9-3.1.1-1.5.6-3.2 1.2-3.8.9-1.1 1-2.2 1.1-8.9 0-3.6 1-3.4 3.3.6"/><path d="M262.6 109.6c-1.1.8-1.6 1.4-1 1.4 1.3 0 3.9-1.8 3.4-2.4-.3-.2-1.4.2-2.4 1m74.9 50.6c-4.5 2.3-7.3 4.5-8.6 6.9s8.5 7.6 10.8 5.8c1.9-1.7 5.3-8.3 5.3-10.6 0-3.4-3.2-4.3-7.5-2.1m-22 14.5c-8.8 1-15.7 2.8-21.7 5.5-3.8 1.7-6.8 3.4-6.8 3.8 0 1.2 12.7 5 16.6 5 1.9 0 4.9-.7 6.7-1.6 7.6-3.8 14.7-14 9.3-13.3-.6.1-2.4.4-4.1.6m-101.7 8.2-2.7.6 3.5 5.7c3.3 5.4 3.8 5.8 7.2 5.8 2 0 5.2-.9 7.1-2.1l3.4-2-2.9-3c-1.6-1.6-5-3.6-7.8-4.4-2.7-.8-5-1.4-5-1.4-.1.1-1.3.4-2.8.8m28 5.8q-3.6.9.6 3.6c2.7 1.8 3.6 1.3 3.6-2 0-2.3-.7-2.5-4.2-1.6m20.8 136.5c-.8 3.2-.7 7.1.3 8.6 1.4 2.3 5.1-.7 5.1-4.1 0-5.8-4.1-9.2-5.4-4.5"/></svg>