<svg xmlns="http://www.w3.org/2000/svg" width="682.667" height="512" version="1.0" viewBox="0 0 512 384"><path d="M0 192v192h512V0H272.3l-.6 15.7c-.5 17.2-2.8 28.4-8.8 43.4-3.8 9.6-5.9 17.3-6 22.4 0 3.5-.3 3.1-1.9-3.6-1-4.2-3-10.5-4.3-14-7.9-20.6-10.7-33.6-10.7-50.2V0H0zm265-96.6c0 .8.7 1.9 1.5 2.6s1.5 1.9 1.5 2.7 1 2.3 2.3 3.3c2.2 1.9 2.2 1.9.2 3.4-1.9 1.5-1.9 1.5 1.5 1.6 9.7.1 13.9 2.9 21.7 14.2 3 4.4 3.4 4.7 9 5.3 13.8 1.5 20.2 2.8 26.3 5.6 7.4 3.4 11 6.4 11 9.1 0 1 2 4 4.4 6.6l4.4 4.7-.9 5.9c-2 12.6-6.5 16.1-14.3 11.5l-3.6-2.1-1.7 3.2c-9.1 16.6-16.8 20-33.1 14.5-9.4-3.2-11.5-2.4-10.6 3.8.3 2.3 1.7 5.7 3 7.6s2 3.9 1.7 4.4-1 .3-1.5-.4c-1.5-2.2.1 8.2 1.7 11.1 3.6 6.5 4.6 9.5 4 11.9-.3 1.4-.9 3.8-1.2 5.3s-1.5 3.4-2.8 4.2c-2.1 1.4-2.3 1.4-2.9-.7-.5-1.8-.8-2-1.6-.7-.5.8-1 2.7-1 4.2 0 4.4 6.5 21.5 14.3 37.8 8.2 16.9 10.9 25.2 8.9 27.2-.7.7-1.2 2.9-1.2 5 0 3.6-.1 3.8-4.1 4.4-2.9.5-4.7 1.5-6.5 3.9-1.6 2.2-3.6 3.4-5.9 3.8-1.9.3-5 1.7-6.8 3.1-1.9 1.4-4.1 2.6-5 2.6-2.8 0-4.1 3.8-2.7 7.9.6 2 1 5 .8 6.6-.2 2.6-.8 3-3.5 3.3-1.8.2-4.2-.2-5.4-.8-1.5-.9-2.4-.9-3.2-.1-2.8 2.8-12.7-.2-12.7-4 0-1.1 1.1-3 2.5-4.3 2.9-2.7 3.1-4.5 1-8.6-2.4-4.6-6.5-6.8-14.1-7.7-3.8-.4-8.1-.7-9.5-.6-2.6.1-2.6 0-1.7-3.9.9-4.3.5-5.8-1.8-5.8-1.9 0-1.3-2.5 4.7-17.8 7.9-20.1 12.4-37.2 10-37.2-.6 0-1.1-1.6-1.1-3.5 0-2.4.5-3.5 1.5-3.5 1.7 0 1.7-.2 4.6-17.2 1.9-11.7 1.9-12.8.4-15.1-1.2-1.8-1.4-3.6-.9-6.8.6-3.8.5-4.2-.8-3.2-1.2 1.1-1.7.9-2.6-1.3-1.6-3.3-1.6-3.3 1.3-4.4 2.1-.8 2.4-1.3 1.6-2.9-.6-1-2.5-2.4-4.3-3-2.7-1-3.4-.8-5.2.8-2.7 2.6-8.8 5.1-12.1 5.1-4 0-5.9-1.5-9.5-7-1.8-2.7-3.8-5-4.5-5-1.7 0-.8-17.5 1.2-21.3 3.5-6.9 14.8-16.4 27.6-23.3l6-3.2 2.3-9.3c2.4-9.5 4.5-12.8 9.7-15.5 1.5-.8 2.7-1.9 2.7-2.4s.5-2.1 1.2-3.7c1.2-2.8 1.3-3.7 1.6-10.6.1-2.3.6-3.6 1.2-3.2.6.3 1 1.2 1 1.9"/><path d="M345.5 158c-.4.6-1.5.8-2.5.5-2.6-.8-7.4 1.8-9.9 5.4-1.2 1.6-2.1 3.1-2.1 3.4 0 .9 7.1 4.7 8.8 4.7 2.3 0 5-4.7 6.1-10.4.8-4.6.8-5.5-.4-3.6m-31.3 16.1c-7 1.1-15 3.8-20.2 7.1l-3.5 2.2 7 2.2c3.9 1.3 8.6 2.3 10.6 2.3 4.5.1 11.8-4.5 14.7-9.1 3.8-6.2 3.5-6.4-8.6-4.7m-100 9.7c-1 .7-.7 1.9 1.8 5.6 3.4 5 5.6 6.6 9 6.6 2.7 0 10-4 10-5.4 0-.6-2.1-2.4-4.6-4-4.9-3.1-13.6-4.6-16.2-2.8M245 189c-1.2.7-1.2 1.2-.3 2.1 1 1 1.4.9 1.9-.5.8-2.2.2-2.7-1.6-1.6m18.4 137.5c-.3 1.9-.3 4.6 0 6 .6 2.2.9 2.4 2.6 1.5 2.2-1.2 2.7-5.8 1-9.1-1.6-2.9-2.8-2.3-3.6 1.6"/></svg>