<svg xmlns="http://www.w3.org/2000/svg" width="682.667" height="512" version="1.0" viewBox="0 0 512 384"><path d="M306 133.9c-1.4.5-4.7 1.8-7.5 2.8-2.7 1.1-8.4 2.3-12.5 2.6-7.6.6-18.4 3.5-23.7 6.2-1.5.8-3.7 1.5-4.9 1.5-4.5 0-12.2 3.1-16.2 6.6-7.5 6.4-12.4 17.6-15.7 35.8-1.4 7.7-1.6 13-1.2 25.9.6 17.8 2.5 26.9 7.7 38.1 5.9 12.5 20.7 25.1 33.7 28.7 8.6 2.4 15.3 2.4 28.9-.1 15.5-2.8 16-2.7 16.8 1.5.4 1.9 1.3 5 2.2 7 1.2 2.9 1.9 3.5 4.4 3.5 3.6 0 3.8-1.6 1-7.9-3.3-7.2-2.8-7.9 7-10 15.2-3.4 27.8-12.8 37.6-28.1 5.2-8.1 9.9-20.7 10.9-29.2 1.4-11.6-6.3-33.9-17.8-51.6-8.2-12.7-21.8-26.7-29.8-30.8-5.8-2.9-16.1-4.1-20.9-2.5"/></svg>