<svg xmlns="http://www.w3.org/2000/svg" width="682.667" height="512" version="1.0" viewBox="0 0 512 384"><path d="M0 192v192h512V0H269v10.2c-.1 20.2-1.9 32-8.2 51.8-1.6 5.2-3.2 12.6-3.5 16.5l-.6 6.9-1.7-7.9c-.9-4.4-3.9-16.1-6.5-26-4.7-17.9-4.8-18.1-4.9-34.7L243.5 0H0zm269-91c0 .6 1 2 2.2 3.2 1.4 1.4 1.8 2.3 1 2.6-2.2.7-.1 2.2 3.1 2.2 6.4.1 11.2 3.3 16.8 11.4l5.2 7.5 5.6.6c18.5 1.9 25.1 4 32.2 10.7 1.9 1.8 6.1 5.4 9.1 8 5.5 4.6 5.6 4.9 5.2 9-.8 7.2-2.5 12.6-4.6 14.5-1.9 1.7-2.1 1.7-5.8-.5l-3.9-2.2-2.6 5.5c-3.1 6.4-7.3 11-12.2 13-4.8 2-8.9 1.9-15.8-.5-8.3-2.8-9.8-2.6-14.4 2.2s-5.3 8.4-2.1 11.3c2.1 1.9 2.7 5.5 1 5.5-.5 0-1-.5-1-1.2 0-.6-.3-.9-.6-.5-1 .9 1.6 11.5 3.1 12.7.8.6 1.9 2.7 2.6 4.7.9 2.8.8 4.5-.6 8.9-.9 3-2.1 5.4-2.6 5.4s-1.2 0-1.6-.1c-.5 0-1.1 1-1.5 2.3-.9 3.4-.9 9.8 0 9.8.4 0 .8 1.6.8 3.5 0 2.3 2.9 9.2 9.2 21.8 5 10 9.9 21.3 10.9 25 1.7 6.3 1.7 6.7 0 7.9-1.2.9-1.7 2.4-1.5 4.8.3 3.2.1 3.4-3.9 4.2-2.9.6-4.9 1.8-6.7 4.2-1.5 2.1-3.7 3.6-5.8 4-1.8.3-4.8 1.7-6.8 3.1-1.9 1.3-4.6 2.6-6 2.8-2.1.4-2.4.9-2.1 3.3.2 1.6.4 4.9.5 7.4.1 4.4 0 4.5-3.1 4.8-1.8.2-4-.1-4.9-.6-1.1-.6-2.6-.4-4.6.6-2.7 1.3-3.4 1.3-6.4-.1-1.8-.9-3.8-2.6-4.4-3.7-1-1.8-.7-2.5 1.9-4.9 4.9-4.6 3.9-7.3-4.6-12.3-3-1.8-13.7-3.9-20.1-4-1.6 0-2.1-.5-1.8-1.7 1.9-6.3 1.9-7.1-.3-7.1-2.8 0-2.3-2 3.6-15.9 8.1-19 11.2-30.6 14.4-53.1.6-4.7 2.4-12 3.9-16.3 1.6-4.2 2.5-7.7 2-7.7-.4 0-1.9-1.1-3.3-2.4-2.3-2.1-2.5-2.9-1.7-5.1 1.3-3.5 1.3-5.8-.1-4.9-.6.3-1.5 0-2-.7-1.5-2.4-1-4.7 1.1-5.4 1.5-.5 2-1.5 2-4.1 0-1.9-.2-3.4-.4-3.4s-2.7 1.6-5.6 3.5c-4.4 3-6 3.5-10.9 3.5-6.2 0-8-1.1-12.5-7.2-2.4-3.2-3.2-3.6-5.6-3.1l-2.9.5v-10c-.1-9.7 0-10.2 3.2-14.9 4.1-5.9 17.6-16.9 26.7-21.7l6.7-3.6 1.2-6c1.9-9.8 4.3-14.1 10-18.3 2.9-2.1 5.1-4.5 5.1-5.6 0-1 .3-2.1.8-2.5.4-.4.7-2 .8-3.4 0-1.5.1-4.2.2-6.1l.2-3.4 2.5 3.7c1.4 2 2.5 4.1 2.5 4.6"/><path d="M344 156.5c-.7.9-1.5 1.3-1.8 1.1-1-1-4.1 1.5-5.6 4.6-.9 1.7-1.5 3.2-1.4 3.3.2.1 1.8 1.2 3.6 2.4 5.2 3.6 6.2 2.4 8.7-9.7.5-2.4.3-3.2-.8-3.2-.8 0-2 .7-2.7 1.5M316.2 173c-6.6 1.8-17.2 6.7-17.2 8.1 0 .8 13.3 4.9 15.9 4.9 2.7 0 9.1-3.2 11.2-5.6 1.6-1.9 4.9-7.8 4.9-8.9s-7.8-.3-14.8 1.5m-105.1 7.2c.1 4.7.3 5.7.9 3.8 1.2-3.6 1.2-10 0-10-.6 0-1 2.7-.9 6.2m7.2 4.5c-1.3.2-2.3.7-2.3 1 0 .2 1.6 2.4 3.6 4.8 3.9 4.8 6.2 6 10.9 5.6 3.9-.2 11.7-4 11.2-5.4-.2-.7-2.5-2.3-5.1-3.6-4.7-2.4-13.2-3.6-18.3-2.4m65.7 2.1c0 2.8 1.1 3.4 3.2 1.5 2.5-2.2 2.3-3.3-.7-3.3-1.8 0-2.5.5-2.5 1.8m-19.4 138.9c-.9.9-.8 7.1.2 7.7 1.9 1.1 3.4-1.2 2.7-4.3-.7-3.2-1.8-4.5-2.9-3.4"/></svg>