<svg xmlns="http://www.w3.org/2000/svg" width="682.667" height="512" version="1.0" viewBox="0 0 512 384"><path d="M0 192v192h512V0H263v10.7c0 13.2-1.5 30.5-4.1 48.1-1 7.3-2 15.9-2 19l-.2 5.7-.8-6.5c-.4-3.6-1.7-14.2-2.9-23.5-1.1-9.4-2.4-25.2-2.7-35.3L249.7 0H0zm262.6-93.8c1 2.4 2.7 5.1 3.7 6 .9 1 1.7 2.5 1.7 3.3 0 .9.9 1.5 2.4 1.5 3.6 0 10.8 2.8 13.4 5.3 1.3 1.2 4.2 4.7 6.4 7.8 4.2 6 6.1 6.9 15.1 6.9 7.4 0 31.9 10.3 36.3 15.2 2.2 2.4 4.4 10.7 4.4 16.4 0 3.9-1.8 5.1-4.9 3.4-1.8-.9-2.2-.8-2.7.7-.3 1-1.7 4.3-3.2 7.3-4.6 9.4-11.2 11.8-24.1 8.8l-5.1-1.1-5.5 5.7c-3.4 3.5-7.8 6.8-11.1 8.3-3 1.4-5.4 2.8-5.2 3.1 3.3 6.5 10.8 24.1 10.8 25.3 0 1.1-.2 1.1-1.1-.1-.7-1.1-.7-.3-.2 2.5.4 2.2.8 6.6.8 9.8 0 3.1.4 5.7.9 5.7.4 0 .6.9.3 2-.4 1.7-.2 1.8 1.4 1 1.5-.9 2-.6 2.5 1.4.8 3.3.1 6.2-1.6 5.8-2-.5-3 1.7-3.1 6.8 0 3.4-.2 4-.9 2.5-.5-1.1-.9-3.5-.9-5.3-.2-6-1.8-2.4-2.6 5.4l-.7 7.6 5.7 8.2c3.1 4.4 7.6 10.8 10 14.1 4.5 6.1 5.4 9.2 3.4 11.2-.8.8-.8 1.7 0 3.1 1.8 3.4 1.3 5-1.9 5.7-1.7.4-3.8 1.8-4.8 3.3-2.2 3.5-3.2 4.2-6.4 4.2-1.7 0-4.4 1.5-7.4 4.1-3.9 3.4-5.3 4-8.1 3.7-5.4-.6-6.9 1.9-5.4 8.5 1.9 7.5 1.3 10.1-2.3 10.5-3.9.5-10.6-2.6-10.6-4.9 0-1 1.4-2.8 3.1-4.2 2.9-2.3 3-2.5 2-6.4-1-3.8-1.4-4.1-5.3-4.6-2.3-.3-4.6-.3-5-.1-1.3.8-.9 6.1.9 10.5l1.6 4.2-2.7 2.4c-3.3 2.8-5.6 2.9-9 .2-3.1-2.5-3.2-3.8-.6-7.2 2.1-2.7 2.7-8.7.9-8.7-.7 0-.9-1.2-.5-3.3l.6-3.4-9 .1-9 .1v-4.1c0-3.4-.4-4.3-2-4.7s-2-1.1-1.6-2.9c.3-1.3 1.9-8.2 3.6-15.3 4.2-17.5 6.7-31.7 8-45.5.8-7.8 2.1-14.2 4.1-20 1.6-4.7 3.2-9.2 3.5-10.1s-.1-2.3-.9-3.1c-1.1-1.1-1.4-2.8-1-5.9.3-3 .2-4-.5-3-.8 1.1-1.3.8-2.7-1.3-1.4-2-2.5-2.6-5.4-2.6-3.8 0-10.8-3.8-14.6-8-2.3-2.5-3-2.5-6.2 0-2.4 1.9-2.7 1.9-4.4.4-2.7-2.5-7.2-14.9-6.3-17.6 1-3.3 5.3-9.3 12.4-17.2 7.9-8.9 10.9-11.4 18.8-15.6l6.5-3.5 2.1-8.8c1.9-7.3 2.8-9.3 6.1-12.7 2.1-2.2 4.7-4.2 5.7-4.6 1-.3 2-1.9 2.4-4 .3-1.9 1-3.7 1.6-4 .5-.3.5-1.1 0-1.7-1-1.4-.4-9.9.7-9.2.4.2 1.6 2.3 2.7 4.7"/><path d="M339.6 151.9c-2.4 2.6-2.1 7.7.6 9.5 3.1 2.2 4.1.6 3.3-5.3s-1.6-6.8-3.9-4.2m-11.6 14c-7.8 2-11.2 3.8-16.5 8.4l-4 3.4 5.3 1.2c11.4 2.4 16.6.3 21.4-8.4 4.1-7.5 4.3-7.4-6.2-4.6m-122 14.2c.1 2.1 4.3 10.3 5.5 10.6.6.2 1.9-.3 2.9-1 1.9-1.4 1.6-4.7-.8-7.9-1.7-2.3-7.6-3.6-7.6-1.7m81.3.8c-2.8.4-5.5 1-5.9 1.3-1 1.1 1.7 9.9 3.2 10.5 2.7 1 17.4-8.9 17.4-11.9 0-.9-6.8-.8-14.7.1m-60 6.1c-7.3 1.5-7.9 2.3-4.1 5.2 5.3 4 9.4 5.8 13.5 5.8 5.2 0 5.8-.7 5.8-6.5v-5l-5.5-.2c-3-.1-7.4.3-9.7.7m64.3 31.3c.3 1 .9 1.5 1.2 1.2s0-1.1-.7-1.8c-1-.9-1.1-.8-.5.6"/></svg>