<svg xmlns="http://www.w3.org/2000/svg" width="682.667" height="512" version="1.0" viewBox="0 0 512 384"><path d="M0 192v192h512V0H258.5v19.2c0 10.6-.4 28.5-1 39.8l-.9 20.5-1.2-26c-.7-14.3-1.3-32.2-1.3-39.8L254 0H0zm255-89.1c0 .4 1.3 2.1 2.9 3.9 2.2 2.3 3.9 3.2 6.1 3.2 5.5 0 9.9 3 15.8 10.5l5.6 7.3 7.9.7c14.9 1.3 31.1 6.6 36.9 12.2 1.7 1.6 3.7 5.6 5.3 10.4 3 9.3 3 8.9.6 8.9-1.5 0-2.3 1.4-3.7 5.7-1 3.2-3.1 7.1-4.7 8.7-2.8 2.8-2.9 2.9-11.9 2.4l-9-.6-7.1 7.3c-7.3 7.3-7.6 7.5-20.5 11.1-1 .3-.6 1.3 1.2 3.5 2.9 3.4 3 3.8 1.7 5.8-.7 1.1-1.1 1-1.9-.5-.9-1.5-1.3-1.7-2.4-.6-1 1-1 1.7.2 3.5 2.7 4.4 12 22.7 12 23.7 0 .6-.5.8-1.1.4-.7-.4-1-.1-.7.7s1.1 1.3 1.7 1.1c.7-.1 1 .2.6.8-.9 1.4 1.3 7.7 2.9 8.3 1.9.7 3 5.8 1.5 6.8-.9.5-.8 1.7.4 4.8.9 2.3 1.5 4.1 1.3 4.1s-1.7-2-3.3-4.5c-4.6-7.4-6.5-5.3-2.2 2.6.5 1.1 1.2 3.3 1.4 5 .4 3 .3 3.1-1.6 1.3-2.6-2.3-3.3-1.3-1.4 2.2 2 3.8 2 6.1.1 4.5-1.1-.9-1.5-.9-1.9.1-.3 1-1.3.7-3.6-1-1.8-1.3-3.5-2.1-3.8-1.9-.9 1 7.1 15.2 13.4 23.4 7.1 9.5 8.1 11.8 5.8 13-1.3.8-1.4 1.4-.5 3.8 1.4 3.8.8 5.1-3 5.9-1.8.3-4.7 1.9-6.6 3.5-2.7 2.5-3.9 2.8-7.1 2.4-7.1-.9-8.1 2.1-7.1 21.2l.3 5-3.5.3c-3.9.3-10-2.9-10-5.2 0-.8 1.3-2.5 2.9-3.9 2.8-2.3 2.9-2.7 2-6.2-1.2-4.1-5.3-6.5-11.3-6.5-2.6 0-3.5.5-4 2.3-1.1 4.2-.6 6.9 1.9 9.9 3.1 3.7 3.1 4.2-.1 6.7-3.1 2.4-8.6 2.8-10.3.7-1.3-1.6-1.1-5.1.6-8.2 1.2-2.1.8-5.9-.9-8.1-.6-.7-.7-2.5-.3-4.2.5-2.5.3-3.1-1.7-3.7-1.3-.4-2.7-.7-3.1-.6s-1.6-.2-2.6-.7c-1-.6-5-1.1-8.9-1.3l-7.2-.2v-4.3c0-3.2-.4-4.3-1.5-4.3-1.8 0-1.8 0-.5-11.1.7-5.7 2.6-13.2 6.1-23 2.8-7.9 6.6-20.6 8.5-28.1 1.9-7.8 5-17 7-21.2l3.6-7.4-2.1-2.1c-1.7-1.7-2-2.8-1.4-6.7.5-3.5.3-4.5-.6-4-.6.4-1.7.4-2.4-.1s-3.1-1.5-5.4-2.2c-2.3-.6-6.3-2.7-8.8-4.6s-4.8-3.5-5.1-3.5-1.9 1.1-3.6 2.5c-1.6 1.4-3.6 2.5-4.4 2.5-2.2 0-8.8-7.4-11-12.2l-1.8-4.1 5.8-11.3c7-13.3 11.1-17.7 23.2-24.8l8.8-5.2 1.2-6.5c.7-3.6 1.9-8.1 2.7-10.1 1.5-3.7 6.5-8.8 9.5-9.9 1-.3 1.8-1.7 1.9-3s.4-5.3.7-8.9c.2-3.6.5-6.7.5-7 .2-.7 5.1 8 5.1 8.9"/><path d="M330.6 147.9c-.7 1 3.2 9.7 3.9 8.9.6-.6-1.5-8.1-2.5-9.1-.4-.5-1.1-.4-1.4.2m-5.4 13.2c-7.1 2.4-11.4 5.2-14.6 9.4l-2.6 3.4 4.6.7c5.3.8 11.9 0 13.8-1.5 2.1-1.7 6-12.1 5-13-.5-.5-3.3 0-6.2 1M291 177.5c-9.3 1.3-17 3.7-17 5.4 0 .4.9 1.6 1.9 2.5 1.1 1 2.2 2.8 2.5 4.1.5 2.1 1 2.4 3.9 1.9 5.5-1 12-4.6 16.4-9.2 2.4-2.4 4.3-4.8 4.3-5.3 0-1.1.2-1.1-12 .6m-88.2 6.2c-1.6.2-2.8.9-2.8 1.5 0 1.7 7 9.8 8.4 9.8.7 0 2.5-1.3 4-2.9l2.7-2.8-3.8-3.2c-2-1.7-4.2-3-4.8-3-.5.1-2.2.4-3.7.6m31.7 3.3c-4.9 1-15.5 4-15.5 4.4 0 1 8.3 5.8 11.4 6.7 5.5 1.5 7.8-.5 8-7 .1-2.8.1-5.1.1-5s-1.8.5-4 .9"/></svg>