<svg xmlns="http://www.w3.org/2000/svg" width="682.667" height="512" version="1.0" viewBox="0 0 512 384"><path d="M0 192v192h512V0H0zM256.7 41.3c-.1 7.3-.3 1-.3-13.8 0-14.9.2-20.8.3-13.2.2 7.6.2 19.8 0 27m-9.3 57.9c4.1 8.5 5.6 9.9 11.7 10.9 6.7 1.1 9.1 2.8 15.3 11.1l4.9 6.6 8.1.6c23.9 2 37.5 8 39.2 17.4.4 2.1 1.3 4.6 2 5.7 3.1 4.5.6 16.4-4.4 20.9-2.2 1.9-6.7 1.9-14.4 0-2.3-.5-2.9-.1-4.6 3.2-2.4 4.6-8.5 11-12.7 13.2-1.6.8-5.9 1.8-9.5 2.1-6.3.6-6.4.7-7.1 3.8-.5 2.6-.2 3.8 1.7 5.8 2.6 2.9 2.8 3.4 1.5 5.4-.7 1.1-1.1 1-1.9-.4-.5-1.1-1.4-1.5-2.2-1-1.9 1.1-.6 9.2 1.8 11.8 1.1 1.2 2.3 3.4 2.7 4.9.8 3.1-1.2 13.8-2.6 13.8-.6 0-.5.8.1 2s.7 2 .1 2c-.5 0-1.1-.6-1.4-1.3-.2-.6-.7-.9-1.1-.5-.9.8 1.5 8.9 2.4 8.3 2-1.2 3.3 4.1 2 8-.5 1.4 1 6.7 2.4 8.5.9 1.3.9 1.3-.5.3-.9-.7-2.4-3.1-3.4-5.3-1.2-2.6-2.5-4-3.7-4-2.2 0-2.3 1.2-.3 4.9.8 1.6 1.7 5.1 1.9 7.7.5 5.1 4.6 16.6 9 25.2 1.4 2.8 3.4 7.4 4.6 10.3l2 5.4-2.1 1.5c-1.7 1.4-1.9 2-.9 4.5 1.5 3.8.4 4.7-7.2 5.4l-6.3.6.2 7c.2 3.8.6 9.5.9 12.7.5 4.9.3 5.7-1.3 6-3.7.8-12.3-2.9-12.3-5.3 0-.6 1.3-2.4 3-3.9 2.8-2.6 2.9-3 1.8-6.1-.6-1.9-1.5-3.9-2-4.5-1.6-2.2-6.1-2.2-10.5-.2-3.8 1.8-4.3 2.4-4.3 5.3 0 2.4.7 3.7 2.5 4.9 3.5 2.3 3.3 6.1-.2 7.9-8.6 4.3-10.9 2.8-9.8-6.8.5-4.7.3-7-.6-8.1-2.1-2.6-7.1-4.7-12.8-5.5-4.3-.6-6.1-1.5-9-4.3-2-2-4.5-3.6-5.5-3.6-1.5 0-9.4-1.9-10.4-2.5-.1-.1.3-1.7 1-3.5 1-3 .9-3.5-1.1-5.1l-2.2-1.8 2.5-7.1c1.4-3.9 5.2-11.7 8.5-17.3 15-26 19.5-39.9 20.6-62.7.1-3 .7-6.7 1.3-8.2s.7-3 .2-3.3c-.4-.3-1.1.1-1.3.7q-.6 1.2-1.2-.9c-.4-1.3-2.5-2.9-5.3-4.1-2.6-1.2-5.9-2.9-7.4-3.8-2.5-1.7-2.7-1.7-5.7.9-1.8 1.4-4.8 2.9-6.8 3.3-3.5.7-4 .4-8.5-4.5-6.1-6.7-6.6-8.7-4-17 1.2-3.6 2.4-8.1 2.8-10 .8-4.5 12.9-16.5 21.2-21.1 10.2-5.6 10.2-5.7 11.2-13.8 1.3-9.9 3.4-13.9 9.2-17.5 4.5-2.8 6-4.7 3.8-4.7-1.5 0-1.2-2.6.5-4 .9-.8 1.2-1.7.7-2.4-.8-1-.5-9.6.3-9.6.2 0 1.5 2.4 2.9 5.2"/><path d="M319.2 159.6c-3.1 1.6-6.3 4.1-7.8 6.3l-2.4 3.6 3.7 1.2c2.1.6 5 1.2 6.4 1.2 4.2.1 8.9-6.4 8.9-12.5 0-3.2-2.2-3.1-8.8.2m-31.1 16c-6.1 1.6-17.1 6.3-17.1 7.3 0 .3 1.1 1.9 2.5 3.4 5.4 5.8 19.2 2.5 26.9-6.4 2-2.4 3.6-4.6 3.6-5.1 0-1.3-10-.8-15.9.8m-89.9 11.3c-1.1 1.9-.9 2.6 1.4 5.6 3.2 4.3 6.2 5.2 10.1 3.1 5.5-2.8 5.8-4.1 1.8-7.1-4.8-3.7-11.5-4.5-13.3-1.6m30.8 2c-9.7 3.1-9.8 3.3-3.2 6.5 4.9 2.3 6.3 2.6 8.1 1.7 1.1-.7 2.1-2.2 2.1-3.4s.3-3.2.6-4.5c.8-2.7-.1-2.7-7.6-.3"/></svg>