<svg xmlns="http://www.w3.org/2000/svg" width="682.667" height="512" version="1.0" viewBox="0 0 512 384"><path d="M0 192v192h512V0H0zm245.9-92.6c3.6 7.4 7 10.6 11.1 10.6 4.4 0 8.8 2.7 13.1 8 8.5 10.5 7.1 9.8 20.7 11 19.1 1.6 30.2 6.4 32.2 13.8.6 2.3 2.3 5 4.2 6.5l3.1 2.6-1.7 6.8c-2.7 11.3-7.1 15.4-13.5 12.7-5.4-2.3-5.3-2.3-8.3 3.6-3.3 6.6-9.2 12.1-14.8 14-3.5 1.1-5.1 1.2-9.8.1-3.2-.7-7-1.6-8.6-1.8-2.9-.6-2.9-.5-1.3 1.8 1 1.3 1.7 4.3 1.7 6.6 0 3.1.6 4.8 2 6 2 1.8 2.7 5.7 1.1 6.7-.5.3-1.1-.4-1.5-1.7-.5-2-.6-2.1-2.2-.5-1.5 1.5-1.5 2.1-.4 5 .7 1.8 2.3 4.3 3.4 5.6 1.7 1.9 2.1 3.6 2 8.8-.2 7.9-2.7 11.4-8.1 11.4h-3.4l.7 4.7c.3 2.7 1 5.6 1.5 6.5s.9 3.6.9 6c0 5.3 2.5 14.8 9 33.9 5.9 17.3 7.2 23.9 4.5 23.9-1.4 0-1.6.6-1 3.9l.7 4-4.4.6-4.3.7.2 6.1c.2 3.4.4 8.4.6 11.2.2 4.9.2 5-3 5.3-3.9.4-9.3-2.2-9.3-4.5 0-.9 1.2-2.9 2.6-4.4 2.5-2.6 2.5-2.7 1-6.4-.9-2.1-1.6-4.6-1.6-5.6 0-2.4-.3-2.4-5 .6-2.2 1.4-5.3 2.5-7 2.5-2.8 0-3 .3-3 3.4 0 2.8.6 3.8 3 5.3 4.4 2.5 4.1 5.8-.7 7.8-2.1.9-5.1 1.5-6.8 1.3l-3-.3V335c0-7.9-.1-8.5-2-8.2-10.1 1.5-9.8 1.5-15-2.2-3.7-2.6-6-3.6-8.9-3.6-3.1 0-4.4-.7-7-3.5-1.8-2-5.3-4.2-7.9-5.1-3.9-1.3-4.7-2-4.7-4.1 0-1.3.5-3.3 1-4.3.8-1.5.6-2.1-1-3-2-1.1-2-1.1-.1-4.8 1.1-2 5.1-8 9-13.2 7.9-10.7 14.1-21.1 17.3-29.1 1.2-3 3-7.2 4-9.5s1.8-6.2 1.7-9c0-2.7-.3-4.3-.6-3.6-.2.6-.9.9-1.5.6-.6-.4-.8.2-.4 1.7.6 2.1.6 2.2-.5.5-1.4-2.2-.6-7.8 2-13.9 1.1-2.5 2.2-5.8 2.4-7.4.3-1.6 1.2-4.3 2-6 1.8-3.3 1.4-4.5-1-3.6-1.3.5-1.5 0-1.1-2.6.5-3.1.2-3.4-4.8-5.9l-5.4-2.6-2.2 2.1c-6.6 6-13.7 6.9-17.7 2.2-1.4-1.7-3.9-4.5-5.5-6.2-2.8-3-2.8-3.4-1.7-7.4.6-2.4 1.1-6.5 1.1-9.1 0-3.6.7-6 2.8-9.3 3.7-5.8 13.6-14.6 21.2-19 3.3-1.8 6.7-3.9 7.5-4.4.9-.6 2.1-4.6 3.1-10 1.7-10 3.1-12.7 9.2-16.8 3.5-2.4 4.1-3.2 3.6-5.2-.3-1.3-.2-3 .2-3.6.4-.7.6-3.5.5-6.1s.2-4.8.6-4.8c.5 0 1.9 2 3.2 4.4m-21.2 137.8c-.3.8-.6.5-.6-.6-.1-1.1.2-1.7.5-1.3.3.3.4 1.2.1 1.9"/><path d="M326.5 156c-.4.7-1.5 1-2.5.7-2.6-.7-8.8 3.3-11.1 7l-2 3.1 3.2 1.6c1.8.9 4 1.6 5 1.6 2.8 0 5.7-3.7 7.3-9.4 1.5-4.9 1.5-6.9.1-4.6m-32.8 17.5c-7 1.4-19.9 6.8-21.8 9.1-.8 1-.1 1.5 3.3 2.4 2.4.6 6 1.6 8.1 2.1 5.3 1.4 12.3-1 16.9-5.9 3.2-3.4 5.8-7.2 5.8-8.6 0-.9-4.9-.5-12.3.9m-97.4 13.3c-1.9 1.2 6.2 11.2 9.2 11.2s7.5-1.7 9.7-3.7 1.1-3.6-4.3-6.4c-3.8-1.9-12.3-2.6-14.6-1.1m33.8 2.3c-3 1-5.6 2.1-5.9 2.3-.2.3 1.9 1.6 4.7 3l5.1 2.6v-2.8c0-1.5.7-3.8 1.6-5 1.8-2.6 1.5-2.6-5.5-.1m37.1 36.4c.3 5.7.4 6 3.1 6.3 2.4.3 2.7 0 2.7-2.6 0-1.8-1.1-4.2-3-6.3l-3-3.4z"/></svg>