<svg xmlns="http://www.w3.org/2000/svg" width="682.667" height="512" version="1.0" viewBox="0 0 512 384"><path d="M0 192v192h512V0H0zM247 86.4c0 .7.9 2.5 2 3.9s2 3.2 2 4.1.6 1.6 1.4 1.6c.7 0 1.9 1.3 2.5 2.9 1.1 2.4 2 2.9 5.7 3.4 6.3.7 11.5 4.5 17.4 13l5.2 7.4 8.6.7c13.1 1.1 19.2 2.5 25.5 5.8 3.1 1.7 5.7 3.4 5.7 3.8s3.6 3.3 8 6.4c4.4 3.2 8.4 6.5 8.9 7.3 1.3 2.3-4.3 17.3-7.4 20-3 2.7-6.5 3-6.5.7 0-2.5-2.1.2-5.5 7-3.1 6.1-6.7 9.5-12.8 12.1-5.4 2.2-10 1.8-17.3-1.5l-6.5-3.1-2.9 2.1c-5 3.5-5.9 5.6-5.3 11.9.3 3.1 1.1 6.3 1.8 7.1 1.9 2.3 2.4 4.5 1.5 6.1-.7 1-1.1.8-1.8-1-.7-2-1-2.1-2.1-.8-1 1.3-.9 2.1.3 4.5.8 1.6 1.3 3.2 1 3.4-.2.3.9 3.1 2.6 6.3 3.4 6.5 3.6 7.8 1.5 9.9-.8.8-1.5 2.4-1.5 3.6 0 2.9-4.4 7-7.5 7h-2.6l.7 7.7c.9 11.2 4.7 30 8.8 43.4 1.9 6.3 4.3 15.7 5.2 20.9 1.6 8.6 1.6 9.4.1 10.5-1.1.8-1.7 2.7-1.7 5.4 0 3.9-.2 4.1-2.4 3.5-1.9-.4-2.8 0-4.1 2-1.8 2.7-1.8 3 .4 13.6 1.6 7.6-1.1 9.5-10.1 6.9-3.2-.8-3.8-1.4-3.8-3.8 0-1.6.9-4 2-5.4 2.1-2.7 2.7-7.2 1-8.2-.5-.3-1-1.5-1-2.6 0-1.5-.7-1.9-3-1.9-9 0-13.2 7.8-7 13 1.7 1.4 3.3 3.9 3.6 5.7.6 3.2.5 3.4-5.1 5.9-4.3 2-6.2 2.4-7.4 1.7-2.1-1.4-3.2-8-2-12 .8-2.4.7-4-.3-5.9-2.1-4.4-3.9-5-10.6-3.6-9 1.9-10.3 1.6-16-3.2-4-3.4-6.2-4.6-10-5.1-4.2-.6-5.3-1.2-7.3-4.2-1.5-2.2-3.7-4-5.9-4.7-3.9-1.2-4.6-3.5-2.2-7.4 1.3-2 1.3-2.5-.2-4.1-1.6-1.8-1.6-2.2-.2-4.9.9-1.7 5-7 9.2-11.8 8.1-9.3 14.3-18.3 18.8-27.3 2.1-4 2.9-7.3 3.2-13 .4-7.3.9-12.5 2-18.7l.4-2.9-2 2.5-2.1 2.5.7-3c.9-3.7 2.7-8.8 5-14 1-2.2 1.9-4.7 2-5.5s.9-3.4 1.8-5.8c1.5-4.2 1.5-4.3-.4-3.7-1.7.5-2 .2-2-2.3 0-2.1.7-3.2 2.5-4 1.7-.8 2.5-2 2.5-3.7 0-3.5-4-3.4-8.2.4-5.1 4.4-9.2 6.1-14.8 6.1s-7-1-13.4-9.4c-2-2.7-3.1-3.5-3.9-2.7-.6.6-2.4 1.1-4 1.1-2.8 0-2.9-.2-2.3-3.2.3-1.7.9-6.3 1.2-10.2 1-11.1 4.3-16.1 17.4-27 4.7-3.9 11.6-8.7 15.3-10.6 7.4-3.8 7-3.3 9.8-16.9 1.4-7.4 4.6-11.7 11.6-15.8 3-1.7 4.1-2.8 3.2-3.3-.9-.6-1-2.1-.1-6.6.7-3.1 1.2-7 1.2-8.6 0-1.5.5-2.8 1-2.8.6 0 1 .6 1 1.4"/><path d="M332.2 153c-1.7 1-3.8 3-4.7 4.4-1.5 2.2-1.5 2.9-.4 5.6 1.5 3.3 2.1 3.6 3.8 1.7 1.9-2.4 6.1-12.6 5.2-13.1-.4-.3-2.1.4-3.9 1.4m-20.6 16.6c-8.4 1.3-18.3 5-23.1 8.7-1.8 1.4-1.6 1.6 4.3 4.6 3.4 1.7 7.1 3.1 8.2 3.1 2 0 5.9-1.8 12.3-5.8 2.7-1.6 9.8-12.3 8-12.1-.4.1-4.8.7-9.7 1.5M189.8 175c-.4.8-.9 4.1-1.1 7.2-.6 6.2.8 8 1.8 2.5.8-4 .2-11.8-.7-9.7m82.4 11.6c.9.9 2.1 1.3 2.7.9 1.6-1 .3-2.5-2.2-2.5-2 0-2 .1-.5 1.6m-75.5.3c-1.6.6-1.4 1.2 2.2 5.8 4.4 5.5 5.7 6.3 10.2 6.3 5.4 0 14.6-5 13.3-7.2-.3-.4-2.7-2-5.4-3.3-3.9-2-6.4-2.5-11.7-2.4-3.7 0-7.6.4-8.6.8m68.5 32.6c0 1.6.2 2.2.5 1.2.2-.9.2-2.3 0-3-.3-.6-.5.1-.5 1.8m3.9 9.2c-.1 7.6 1 9.6 3.6 7 1.1-1.1 1.4-2.5.9-5.1-.4-2-1.1-3.6-1.6-3.6-.4 0-1.3-1.2-1.8-2.8-.9-2.3-1.1-1.5-1.1 4.5"/></svg>