<svg xmlns="http://www.w3.org/2000/svg" width="682.667" height="512" version="1.0" viewBox="0 0 512 384"><path d="M0 192v192h243v-4.4c0-2.5.5-4.8 1-5.1 1.5-.9 1.2-6.1-.5-7.5-.8-.7-1.5-1.9-1.5-2.7q0-1.65-1.2-.6c-1.7 1.4-10 3.3-13.9 3.3-2.2 0-4.8-1.4-9.3-4.9-5.2-4.1-6.9-4.9-11.6-5.3-3.9-.4-5.7-1.1-6.5-2.4-2.1-3.8-7.4-8.4-9.6-8.4-4.8 0-5.4-1.2-4-7.6 1.2-5 1.1-5.8-.3-6.6-.9-.5-1.6-1.6-1.6-2.4 0-3.1 4.4-10.5 11.8-19.7 4.2-5.3 9.9-13.5 12.5-18.2 9-15.6 15.7-33.5 13.7-36.1-.7-.7-.5-3.6.3-8.2 1.2-5.9 1.1-6.9 0-6.5-1.6.6-1.3-1.3 2.3-12.2 2-6.4 2.1-7.2.7-9.6-1.4-2.3-1.3-2.9.6-6.7 2.3-4.5 2.7-7.2 1.1-7.2-.5 0-1 .4-1 1 0 .5-.4 1-1 1-.5 0-1-1.3-1-2.8v-2.8l-7 .4c-3.8.2-8.2.1-9.6-.2-1.5-.4-5.8-3.9-9.5-7.8l-6.7-7.1-3.5 1.6c-1.9 1-4.7 1.7-6.1 1.7-3 0-3.2-.7-4.1-13.8-.5-8.8-.4-9.5 2.2-14.3 2.9-5.4 17-19.5 26.4-26.4 3.1-2.3 8.8-5.5 12.5-7 3.8-1.6 7.4-3.3 8-3.9.7-.6 2-4.3 2.9-8.1 3.4-13.7 5.8-17.8 14-23.5 3.1-2.1 4.3-3.9 5.5-7.6.8-2.7 1.3-5.2 1.2-5.7-.1-.4.5-2.4 1.3-4.3.8-2 1.5-4.7 1.5-6 0-3.5 1.7-3.8 2.5-.5.3 1.6 1.3 3.5 2.1 4.2.8.6 1.4 2.4 1.4 3.9 0 1.9.6 2.9 2 3.3 1.1.3 2.4 1.6 2.9 2.9.7 1.9.5 2.4-1.3 2.9-1.4.3-.3.8 3.3 1.3 7 .9 16.1 5.6 19.3 9.8 1.3 1.8 4.4 6.5 6.7 10.4l4.2 7.2 8.3.7c10.5.8 18.6 3.7 33.2 11.6 13 7 20.4 13 20.4 16.2 0 3.3-4.6 19.6-6 21.3-.7.7-2 1.4-2.9 1.4-1 0-2.4 1.8-3.5 4.8-2.6 6.1-11 14.6-15.5 15.5-6.7 1.4-11.4.7-17.7-2.3-5.3-2.6-6.6-2.9-8.7-1.9-1.4.6-3.1 2.3-3.8 3.6-2.2 4-11.6 11.9-15.9 13.3l-4 1.3 2.6 4.4c1.5 2.6 2.3 5.1 1.9 6.1-.5 1.5-.9 1.4-2.4-.7-2.5-3.3-3.4-1.2-1.6 3.3.9 2 1.4 4 1.1 4.4s.6 4.1 2 8.2c1.3 4.1 2.4 8.4 2.4 9.6 0 2.9-2.2 4.8-3.8 3.2-.9-.9-1.2-.3-1.2 2.6 0 2.8-.8 4.7-3 7.3-2.1 2.3-3 4.4-3 6.8 0 1.8-.3 4-.6 4.8-.5 1.5 1.5 4.2 3.8 4.9.9.3.8 1.5-.4 4.7-1.4 3.5-1.5 5.3-.7 9.5 1.7 8.6 4.8 20.4 9 33.9 3.6 11.5 7.8 28.3 7.9 31.4 0 .6-.9 1.5-2 1.8-1.7.5-2 1.5-2 5.9v5.2l-5.7.2c-6.1.3-8.7 2.1-7.8 5.7 3 11.1 3.8 16.8 2.7 18.6-1.2 1.9.6 1.9 115.8 1.9h117V0H0z"/><path d="M260 83c0 .5.5 1 1 1 .6 0 1-.5 1-1 0-.6-.4-1-1-1-.5 0-1 .4-1 1m-10.5 5c-.3.5-.1 1 .4 1 .6 0 1.1-.5 1.1-1 0-.6-.2-1-.4-1-.3 0-.8.4-1.1 1m102.7 59.8c-3 2.3-4.1 9.2-1.9 11.1 1.4 1.1 1.7.7 2.7-3.1.6-2.4 1.5-5.5 2-7.1 1-3.1.4-3.3-2.8-.9M334 166.1c-6.4.8-17.6 5.6-22.9 9.7l-2.4 1.9 6.8 3.2c3.8 1.8 7.5 3.3 8.4 3.3 3.3.2 10.1-2.3 13-4.7 3.7-3.2 8.4-11.2 7.7-13.1-.6-1.5-1-1.5-10.6-.3m-153.6 11c.3 3.4.6 7 .6 8 0 2.2 3.7 2.6 6.3.6 1.6-1.1 1.6-1.9.7-6.5-1.1-5.1-3.7-8.2-6.9-8.2-1.1 0-1.3 1.2-.7 6.1m94.4 5.4c-.3.4.7 2.8 2.3 5.3s2.9 5.3 2.9 6.2c0 2.3.9 3 2.9 2.1.9-.4 3.7-1.8 6.3-3 2.5-1.3 5.9-3.9 7.6-6l3-3.7h-3.7c-2 0-7.4-.3-12.1-.8-4.7-.4-8.8-.5-9.2-.1m-77.6 2.6-3.3 1 4.3 5c7.2 8.4 14.5 10.6 24.1 7.3 4.9-1.7 6.1-2.6 7.2-6.2.6-2 0-2.5-5.2-4.9-4.6-2.1-7.6-2.7-14.8-2.9-4.9-.2-10.5.1-12.3.7m62 177.2c-5.9 3.7-6.6 6.1-2.7 10.2 1.4 1.6 2.7 4.5 3.1 7.1l.6 4.4 5.2-.2c3.4-.1 4.1-.2 1.9-.5-1.7-.2-3.6-1-4.3-1.7-1.6-2-.1-9.2 2.6-12.1 2-2.2 2.2-2.9 1.2-5.7-.6-1.8-1.4-3.6-1.7-4-.4-.4-3 .7-5.9 2.5"/></svg>