<svg xmlns="http://www.w3.org/2000/svg" width="682.667" height="512" version="1.0" viewBox="0 0 512 384"><path d="M0 192v192h201.8l5.2-14.8c2.8-8.1 6.9-21 9.1-28.7s6.3-21.9 9.1-31.5c2.9-9.6 5.1-19 5-20.9-.3-5.4 1.6-10.6 5.6-15.8 2.1-2.6 4.4-6.3 5-8.2 1.1-3.1 1-3.5-1.3-5.3-3.4-2.7-5.5-6.8-8.1-16.3-1.2-4.4-2.9-9.7-3.8-11.7-1.5-3.5-1.5-4.3 0-10.2 1.5-6 2.3-7.7 6.8-14 1.9-2.7 1.9-2.8-.4-12.4-2.2-9.4-2.5-9.9-7.7-14.7-2.9-2.8-5.5-6-5.8-7.3-.2-1.2-1.2-3.5-2.2-5-4.3-6.5-4.2-6.3-8.1-15.3-2.9-6.6-6.4-7.2-16.3-2.4-6 2.8-8 3.4-11.3 2.9-10.6-1.6-16.7-11.2-21.2-32.9l-1.6-8 5.1-4.7c2.8-2.5 7.9-6.3 11.3-8.4 3.5-2.1 7.6-4.8 9.2-6.1 4.1-3.4 15.2-8.8 24.3-11.9 7.1-2.4 9.9-2.7 30.7-3.5 12.6-.5 24.4-1.3 26.1-1.9 3.6-1.2 11.2-9 19-19.4 12.3-16.4 21.2-21.8 36.5-22 4.7-.1 10.3.1 12.5.4 3.5.4 4 .2 4-1.5 0-1.4-.8-2.1-2.5-2.3-4-.6-4.4-1.8-2.1-5.5 2.2-3.6 3.9-4.7 7.3-4.7 1.5 0 1.8-.4 1.3-1.8-1.4-3.1-.6-5.7 2.4-8.3 1.6-1.5 3.2-3.8 3.6-5 .4-1.3 1.2-3 1.7-3.7C351 .3 316 0 175.6 0H0zM355.4 2.2c-.5 1.3-.8 5.3-.8 8.9-.1 5.1-.5 7.2-2 8.8-1.8 2-1.8 2.2-.3 3.9 1.6 1.7 2.5 12.2 1.2 12.2-.4 0-1.9-.7-3.4-1.5-1.6-.8-3.1-1.1-3.5-.8-1.7 1.7 0 3.5 6.3 6.8 12.8 6.7 21 15.8 23.5 26.1.8 3.3 2 12.9 2.6 21.4 1.3 18.5 2.3 23 5.8 26.3 1.5 1.4 8.3 6.2 15.2 10.8 7.2 4.7 15.4 11.2 19.3 15.2 15.6 15.9 31.1 40.7 33.9 53.9 1.1 5.4 1.1 5.9-1 8.1-1.2 1.2-4.4 6.7-7.2 12.1-2.7 5.4-5.5 10.5-6.1 11.2-1.8 2.1-8.8 1.6-14.4-1-6.5-3-10.9-6.8-13.7-11.7-1.2-2.1-2.9-3.9-3.7-3.9-.9 0-5.4 1.7-10.1 3.6-19 8.1-23.5 9.4-33.1 9.4-14.7 0-29.9-5.8-41.2-15.7-3.8-3.4-4-4.1-.6-2.3 2.7 1.5 2.4.6-1.8-4.8-2.1-2.6-4.7-6.4-5.8-8.5-3.6-6.8-4.2-5.5-3.8 8.7.7 24.4 2.6 36.2 8.7 53.6 3 8.5 6.6 18.3 8.1 21.8 2.7 6.4 6.5 20.1 6.5 23.4 0 2.8-1.5 2.2-3.3-1.4-1.5-3.1-1.6-3.2-1.6-.8 0 4.1 1.7 21.7 3.3 34.5 1.9 14.4 2 16.6.6 14.5-.7-1.1-1 .3-1 4.5 0 9.9-2.3 31-3.1 28.9-.7-1.7-.8-1.7-.8-.2-.1 2.4-2.1 2.3-2.1-.1 0-2.1-2.7-9.1-3.6-9.1-.3 0-.3 1.2 0 2.7.2 1.6.8 4.9 1.1 7.6l.6 4.7H512V0H356.1z"/><path d="M167 116.8c0 .9 5.3 6.2 6.2 6.2.4 0 .8-1.1.8-2.5s-.1-2.5-.3-2.5c-.1 0-1.7-.4-3.5-.9-1.7-.5-3.2-.7-3.2-.3"/><path d="M177.1 124c-1.3 4.3-3.3 5.1-6.7 2.5-3.2-2.4-3.4-1.8-1.4 4 2.6 7.4 7.5 14.3 11.7 16.3 3.4 1.6 3.6 1.6 7.6-.8 2.3-1.3 5.7-3.1 7.5-3.9 1.7-.8 3.2-1.9 3.2-2.3 0-2-4.1-8.6-7.5-12.1-3.3-3.4-10.2-7.7-12.3-7.7-.5 0-1.4 1.8-2.1 4m35.3 25.7c1.6 4.2 10.3 17.6 13.4 20.5 3.3 3.2 3.4 3.2 2.7.8-.3-1.4-.9-3.3-1.1-4.2-.4-1.2.5-2.2 2.7-3.3 4.3-2.3 5.3-1 6.8 8.5 1.2 7.7 3.4 11.7 5 9.2.5-.8 1.1-6.1 1.4-11.9.4-9.2.3-10.9-1.4-13.8-1.9-3.1-2.2-3.2-15.2-5.4-15.8-2.6-15.1-2.5-14.3-.4m37.9 25.4c-.1 3.6.2 5.7.7 5.4 1.2-.7 1.3-10.2.2-10.9-.4-.2-.9 2.2-.9 5.5m-29.3-2.7c0 .2.7.9 1.5 1.6 1.3 1.1 1.4 1 .9-.4s-2.4-2.3-2.4-1.2m96.4 16.2c7.1 11.1 14.9 18.3 25.1 23.5 9.5 4.7 16.8 5.8 25.3 3.9 4.8-1.1 30.8-11.3 32.1-12.5.2-.2-2.3-1.6-5.5-3.1-25.4-11.4-32.4-13.1-58.5-14l-20.3-.7zm-78 1c.3.9.6 2 .6 2.5s.5.9 1 .9c.6 0 1-1.1 1-2.5 0-1.6-.6-2.5-1.6-2.5-1.1 0-1.4.5-1 1.6m185.6 9c-2.5 1.4-5.7 3.9-7.2 5.5l-2.7 2.9 2.4 4.3c3.6 6.3 7.6 9.8 12.3 10.4 3.6.5 4.2.2 6.4-2.8 1.4-1.9 3.3-4.8 4.2-6.6l1.6-3.1-3.5-2.1c-2.1-1.2-4.4-3.8-5.7-6.6-1.2-2.5-2.4-4.5-2.7-4.5-.4 0-2.6 1.2-5.1 2.6m12.1.1c3.7 5 4.2 5.3 5.6 4.2 2.4-2.1 1.5-4.6-1.8-5.3-4.7-.9-5.3-.8-3.8 1.1m-106 142.9c0 1.1.3 1.4.6.6.3-.7.2-1.6-.1-1.9-.3-.4-.6.2-.5 1.3"/></svg>