<svg xmlns="http://www.w3.org/2000/svg" width="682.667" height="512" version="1.0" viewBox="0 0 512 384"><path d="M0 192v192h110.9c104.8 0 111-.1 111.5-1.8 1.3-4.7 5.1-21.1 10.1-44.5 3.1-14.1 5.8-26.3 6.1-27.1.4-.9-.7-1.5-3.7-1.9-11.5-1.5-13.2-15.5-3.3-28.4 3.1-4.1 6.9-4.5 8.6-.8 1 2.2.7 3.4-2 8.8-3.7 7.1-4 9.7-1.3 9.7 4.1 0 6.2-3.2 8.1-12.5 2.7-12.5 2.6-14.1-.7-15.7-3.1-1.5-5.1-5-12-21.8-5.6-13.7-6.4-20.3-3.8-31.1 1.5-5.8 2.5-7.9 5.8-11.2l4-4 .8-10.6c.4-5.8.8-16.2.8-23l.1-12.3 4 .4c4.4.4 4.9 0 2.2-2.2-5.2-4.3-4.3-4.3-16.9-1-9.4 2.5-12.9 3-17.3 2.5-7-.9-16.1-5.7-20.6-10.9-3.9-4.5-10-16.5-11-21.4l-.6-3.1-1.9 2.2c-1.4 1.8-2.1 2-3.6 1.1-.9-.6-2.1-2.2-2.4-3.5-1-3.4-1-15.6 0-20.7.5-2.3.5-4.5 0-4.8-1.5-.9-1-2 2.2-5.2 4.4-4.3 12.8-8.5 23.9-12 14.6-4.6 21.9-5.5 36.6-4.8 39.8 1.9 41.9 1.9 45.4.1 1.8-.9 9.8-7.9 17.7-15.6 10.1-9.7 16.1-14.6 20.1-16.6 5.5-2.7 6.2-2.8 19.7-2.6 7.7.1 15.6.3 17.5.5 2.6.2 3.5-.1 3.8-1.5.3-1.3-.3-1.7-2.5-1.7-1.5 0-3.5-.5-4.3-1-1.2-.8-.9-1.5 1.9-4.3 1.8-1.9 4.6-3.8 6.2-4.1 2.5-.5 2.9-.9 2.4-2.9-.5-1.8.2-3.1 2.6-5.5 1.8-1.8 3.6-3.2 4-3.2.3 0 1.2-1.4 1.9-3 1.3-3.1 6.6-7.7 7.7-6.6.3.3-.2 3.2-1.2 6.4-1.3 4.6-1.5 6.4-.6 8 .8 1.5.8 2.7-.1 4.6-.6 1.4-1.4 2.6-1.7 2.6s-1.3.5-2.1 1c-1.3.9-1.2 1.3.7 2.8 2.3 1.8 2.7 3.2 2.5 9.5-.2 3.5-.3 3.6-2.3 2.5-1.8-1.1-2.3-1.1-2.6 0-.4 1-.9 1-2.3-.3-1.8-1.6-4-1.3-4 .5 0 .4 2.5 2.2 5.5 3.9 7.7 4.4 16.6 13.6 20.3 21.1 3.1 6.2 3.2 6.7 3.3 20.4 0 7.8.4 18.8.8 24.6.6 9.6 1 11 3.8 15.1 1.8 2.5 9.6 10 17.5 16.6 7.9 6.7 15.4 13.4 16.8 14.9 10 11.3 19.8 29.5 23.1 42.8 2.1 8 2.1 8.9.7 11.9-2.4 5.1-4 14.1-3.6 20.9.3 5.3 0 6.3-1.4 6.6-2.1.4-6.7-3-8.5-6.1-.7-1.2-1.2-3.5-1.3-5 0-1.6-.7-3-1.6-3.4-1.7-.6-3.6.2-14.7 6.9-8.8 5.3-12.8 6.2-20.8 4.9-9.1-1.5-22.7-9.3-29.2-16.6-2.7-3.1-10.7-16.8-10.7-18.4 0-1.1.4-1 1.5.5.8 1 1.5 1.4 1.5.7 0-1.8-2.9-4.3-5-4.3-1 0-2.2-.5-2.5-1-.9-1.5-6.9-1.2-17.5.9-5.2 1-12.8 2.4-16.7 3.1l-7.3 1.2v9.9c0 9.3 3.8 32.7 8.5 52.4.8 3.3 2.6 13.2 4 21.8 3.1 19.3 3.2 34.2.6 52.9-1 7.3-2.4 19.1-3.1 26.3-.6 7.2-1.4 13.8-1.6 14.7-.5 1.7 4.3 1.8 92 1.8H512V0H0z"/><path d="M179 97.3c0 .8.7 2.1 1.6 2.8 1.4 1.1 1.5 1 1.2-1.1-.3-2.6-2.8-4.1-2.8-1.7m-4 7.1c0 4.8 0 4.9 2 3.1 2.4-2.2 2.4-2.4 0-5.5l-2-2.5zm8 8.8c0 2.3 3.7 13.2 6.5 19.1 2.6 5.5 10.1 13.8 14.8 16.4 4.6 2.5 10.3 2.6 19.2.3l8.5-2.3-.6-3.2c-.5-2.7-.2-3.3 2.2-4.3 1.4-.7 2.4-1.5 2.1-1.8-.3-.4-3.1.6-6.2 2-6.7 3.1-7.7 2.1-4.6-4.8l2-4.6-3.3-2.5c-5.4-4.1-18.9-9.5-23.8-9.5-2.7 0-5.9-.9-8.5-2.4-5.8-3.3-8.3-4.1-8.3-2.4"/><path d="M228.2 134.5c-1.3 2.8-.5 3.2 2.3 1.2 1-.8 1.5-1.9 1.1-2.5-1.1-1.8-2.2-1.4-3.4 1.3m23 28.2c0 .5-.1 1.5-.5 2.3-1.8 4.7-5.7 35.7-4.9 39.5.6 3.4 4.3 7 5.3 5.2 1.8-3.2 3.1-34.3 2-46.5-.1-.6-.5-1.2-1.1-1.2-.5 0-.9.3-.8.7m66.3 18c.9 14.1 1.3 16.3 3.3 16.3 2.2 0 29.3-4.8 29.8-5.2.5-.6-17-11.8-25.9-16.7l-7.8-4.3zm-54.9 4c-1.5 3.7.9 4.6 3.8 1.4 1.6-1.8 1.6-1.9-.8-2.3-1.6-.3-2.7 0-3 .9M372 202.4c0 2.4 7.1 13.7 11.8 18.8 7 7.5 14.2 11.1 22.5 11.2 5.8.1 6.9-.3 17.6-6.3l11.5-6.5-4.3-1.4c-2.4-.8-6.2-3.4-9-6.2-4.6-4.6-10.8-7.4-21.1-9.6-5-1-29-1.1-29 0m-128 10.3c0 .3.7 1.4 1.6 2.4 1.8 2 1.2 5.1-.8 4.4-.8-.3-2 1-2.9 3-1.9 4.1-.6 4.7 3.3 1.5 2.9-2.2 4.6-9.9 2.5-11.2-1.5-1-3.7-1-3.7-.1m205.1 5.5c0 2.4.3 3.6.6 2.8 2.1-6.5 2.2-7 .7-7-1 0-1.4 1.2-1.3 4.2m-1.5 7c-.3 1.3-.5 3.2-.5 4.3.1 1.1.5.2 1-1.9 1-4.2.6-6.2-.5-2.4"/></svg>