<svg xmlns="http://www.w3.org/2000/svg" width="682.667" height="512" version="1.0" viewBox="0 0 512 384"><path d="M272 138.6c-1.4.3-6.1 1.7-10.5 3.1-24 7.8-35 18.1-40 37.6-1.3 5.1-3.5 11.8-4.9 15-5.2 11.8-4.2 21.7 3.9 39.3 9.9 21.3 31.1 45.3 47 53.3 12.9 6.4 25.9 7.3 39 2.9 8.3-2.8 13.8-7.1 24.4-19.2 5-5.8 10.5-11.5 12.2-12.6l2.9-2.2 8 5.3c4.4 2.9 8 5.6 8 6.1 0 2 4.1.6 5.4-2 1.4-2.6 1.3-2.8-1.7-4.7-1.8-1.1-4.9-2.9-7-4s-5-2.9-6.4-4.1l-2.6-2.1 3.2-8.1c1.8-4.5 5.1-10.7 7.2-13.7 9.5-13.5 11.7-23.1 8.4-35.5-5.1-19.1-20.5-36.2-41-45.5-12.9-5.9-25-8.6-40-9-7.1-.2-14.1-.1-15.5.1"/></svg>