<svg xmlns="http://www.w3.org/2000/svg" width="682.667" height="512" version="1.0" viewBox="0 0 512 384"><path d="M0 192v192h231.7l.6-3.8c1-7.4 6.8-39.9 9.2-52 3.5-17.4 3.6-16.9-3-13.1-6.3 3.6-9.8 3.4-13.9-.8-5.2-5.2-2.7-17.5 5.5-26.8 3.2-3.6 6.5-4.5 8.7-2.3q3.15 3.15-2.4 12c-4.8 7.9-4.3 10.3 1.3 5.2 4.7-4.4 10.7-14 9.3-14.9-.6-.4-.8-2.3-.4-4.3.5-3.4-.2-4.8-7.7-16.2-4.5-6.9-10.2-15-12.5-18-4.4-5.7-7.4-13-7.4-18.5 0-2.2 1.8-5.5 6.3-11.5 7-9.4 8.3-10.6 11.1-11.1 1.4-.3 4.2-5.2 10.2-17.9 4.6-9.6 8.3-18.2 8.4-19 0-.8.9-3.2 2-5.3 2.4-4.5 2.5-6.3.4-7.1-1.2-.4-1.5-.2-1 .9.9 2.4-1.2 1.7-3-1-.9-1.4-2.1-2.2-2.6-1.9-.6.4-1.4.1-1.8-.6-.6-.9-3.4-1.2-9.7-1.1-17.7.4-28.3-4.7-37.3-17.9-3.9-5.7-9-18.8-9-23 0-1.1-1.2-3.2-2.7-4.6l-2.6-2.4-4.3 4.5c-6.8 7-11.2 5.7-13-3.8-.6-3.8 2-24.5 3.5-27.7 1.2-2.3 9.5-7.6 15.9-10 10.3-3.9 26.3-7.2 37.7-7.7 9.4-.5 14.1 0 31 2.7 11 1.8 22.7 3.3 26 3.3 8.1 0 13.6-2.9 25.5-13.9 12.3-11.3 22-18 28.9-20.2 7.7-2.3 22.4-2.1 31.8.6 5.9 1.6 7.5 1.7 8.3.6.9-1 .3-1.5-2.7-2.3-2.1-.6-4.6-1.1-5.5-1.1-1 0-1.8-.2-1.8-.4 0-1.5 6.4-6.8 9.8-8.1 3.1-1.3 4.2-2.3 4.4-4.3q.3-2.55 4.8-5.7c2.5-1.7 5.1-4.4 5.8-5.9.8-1.5 2.1-3 3-3.3 1-.3 2.5-1.3 3.4-2.1C401.9.8 402 .9 402 3.4c0 1.5-.7 4.1-1.6 5.7-1.1 2.1-1.3 4.3-.8 7.5.5 3.5.3 4.9-1.1 6.4-1 1.1-2.4 2-3.2 2-1.9 0-1.7.6 1.3 3.5 2.1 2.1 2.5 3.2 2 5.7-.3 1.7-.6 4.1-.6 5.5 0 2.3-.1 2.3-2.2.9-1.6-1.1-2.6-1.2-4.1-.5-1.3.8-2.2.8-3 0-1.3-1.3-2.7-1.4-2.7-.2 0 .4 2.5 2.5 5.5 4.5C406.1 54 413 66.6 413 83.2c0 4.3-.7 13.8-1.6 21.1-2.7 22.2-1.3 26.1 14.3 40.3 23.1 21.1 27.4 26.8 37 49.1 6.6 15.4 9.2 24.4 10 34.5l.6 7.7-3.3 3.1c-2.9 2.7-3.1 3.4-2.6 6.8 1.2 7.4 1.2 7.7-1 8-2.1.3-6.4-4.2-6.4-6.7 0-1.7-.8-1.4-7.2 2.9-8.3 5.5-12.3 5.4-23.7-.3-11.3-5.6-20.1-14.2-25.9-25.4-2.3-4.4-4.2-8.9-4.2-9.9 0-1.6-1-1.6-12.7-.8-7.1.5-20 .9-28.8.8-14.6-.1-16.7-.3-23.4-2.7l-7.4-2.6.7 11.7c.4 6.4 2.9 24.7 5.6 40.7 5.9 34.9 8.5 59.9 7.5 70.5-.4 4.1-.8 13.8-1 21.5-.1 7.7-.6 17.7-1 22.3l-.8 8.2H512V0H0z"/><path d="M393.3 33.5c-.3.9-.3 1.8 0 2.1.9.9 2.7-.6 2.7-2.2 0-1.9-1.9-1.8-2.7.1M181 86.6c0 .9 1.5 4.3 3.2 7.5 3.5 6.4 5.6 7.2 7.2 2.8 1.9-5.4-.8-9.1-8.1-11.3-1.8-.6-2.3-.3-2.3 1m-5.3 4.6c-1.1 2.9-2 13.6-1.3 16.2.9 3.5 3.3 3.3 7.2-.5l3.2-3.1-3.4-5.6c-1.8-3.1-3.7-6.3-4.2-7.1-.7-1.3-.9-1.2-1.5.1m24.1 17.2c-2.4 1.8-2.2 4.8.6 12.8 3.1 8.8 9.6 17.9 16 22.2 5.3 3.7 14.5 6.6 20.6 6.6h3.5l-3.3-2.1c-4.8-3.1-5.8-9.9-1.4-9.9 1 0 3.3-1.6 5.2-3.5l3.4-3.5-3.3 1.1c-1.8.6-5.6 2.7-8.3 4.6-2.8 1.8-5.5 3.2-6 3.1-.5-.2 1.4-3.7 4.2-7.7 2.8-4.1 5.2-7.7 5.3-8.2.2-.8-7.4-6.9-11.2-8.9-2.6-1.3-21.8-8-22.9-8-.4 0-1.5.7-2.4 1.4"/><path d="M238 127.2c-.8 1.3-1.8 2.8-2.2 3.4-.5.8.7.7 3.4-.3 5.9-2 6.3-2.4 4.3-4-2.6-1.8-3.8-1.6-5.5.9m89.2 44.5-2.3.5.7 14.1c.3 7.8 1.1 15 1.6 15.9.5 1 4 2.7 8.1 4 6.2 1.9 9.2 2.2 21.7 2.1 8-.1 18.6-.8 23.5-1.5l9-1.3-10.5-7.7c-5.8-4.2-15.2-10.5-21-14-9.2-5.5-12.9-7.4-21.5-10.8-3-1.2-6.7-1.7-9.3-1.3m-68.1 9c-.5 1-3.9 8.5-7.5 16.7-4.8 10.8-6.6 16-6.6 19.1 0 2.4-.9 6.5-2 9.1s-1.9 4.8-1.7 5 1.9.1 3.9-.2c3-.5 4.3-1.6 7.1-5.8 5.2-7.6 5.9-9.5 5.3-13-.3-1.9 0-3.8.9-4.9 1-1.5 1.1-2.5.3-4.3-.9-2-.8-2.8.8-4.5 1.5-1.6 2-4 2.3-10.5.3-8.3-.6-10.6-2.8-6.7M400.5 215c.3.5.8 1 1.1 1 .2 0 .4-.5.4-1 0-.6-.5-1-1.1-1-.5 0-.7.4-.4 1m8 1.9c1.1 4.4 7.2 14.5 11.9 19.7 6.3 7.1 13.4 10.8 19.6 10.2 2.6-.3 5.6-.1 6.5.5 1.3.7 1.6.6 1.1-.2-.5-.7.1-1.1 1.3-1.1s2.1-.5 2.1-1c0-.6.3-.9.8-.8 1.5.5 5.3-2.4 4.9-3.7-.3-.7 0-2.1.7-3.1 3-4.5 2.6-6.2-2.3-9.8l-4.7-3.5-4.9 1.4c-6.8 2.1-14.3 1.9-18.1-.4-1.7-1.1-4.9-4-7-6.5-3.4-4.1-4.1-4.5-8.2-4.4-4.2.1-4.3.2-3.7 2.7"/><path d="M424.6 218c2.5 2.2 5.6 4.1 7.6 4.5 4.2.8 12.5-1.2 11.1-2.6-1.8-1.8-14.8-5.9-18.8-5.9l-4 .1z"/></svg>