<svg xmlns="http://www.w3.org/2000/svg" width="682.667" height="512" version="1.0" viewBox="0 0 512 384"><path d="M0 192v192h236.8l.6-5.8c1.1-8.8 4.5-33.1 7.1-50.2 1.3-8.5 2.3-15.6 2.1-15.7-.2-.2-1.6 1.5-3.1 3.7-4.6 6.7-13.8 13-18.9 13-1.3 0-3.8-1.2-5.5-2.6-2.7-2.2-3.1-3.3-3.1-7.3 0-6 4.4-15.1 10.6-22.1 4.9-5.3 7.1-6.1 9.7-3.2 2.3 2.6 2.1 6.1-.6 10.2-1.3 1.9-3.2 4.8-4.2 6.5l-1.9 3 3.2-3c5.7-5.2 9.5-12.2 9.7-17.6.1-2.6.8-5.5 1.5-6.4 1.2-1.4.5-2.4-4.6-7.6-3.2-3.4-10-9.6-15.1-14-7.9-6.8-9.5-8.8-11.4-13.7-1.2-3.1-2.4-8.2-2.6-11.2l-.5-5.5 10.5-10.3c5.7-5.6 11.1-10.2 11.9-10.2 1 0 4.6-7.2 10.4-20.7 6-14 9.6-21.1 11-21.8 1.1-.5 3.5-2.2 5.3-3.8 3.3-2.7 3.3-2.8 1.7-6.1-2-4.3-4.6-6.6-4.6-4.1 0 1.4-.4 1.3-2-.8-1.1-1.4-2-2.9-2-3.4 0-1-4.3-3.3-6.1-3.3-.6 0-4.4-1.5-8.4-3.4-16.6-7.7-27.5-24.1-30.7-46-1.3-9.6-1.9-10.1-7.7-6.5-4.7 2.9-18 7.9-20.9 7.9-5.6 0-8.2-4.5-8.2-14 0-4.3 4.7-24.2 6.4-26.8 1.1-1.8 11.2-6.7 18.7-9.1 9.7-3.1 29-6.1 39.4-6.1s17.5 1.2 45.3 7.6c21.6 4.9 24.2 5.2 30.9 2.6 4.8-1.8 7-3.3 21.9-14.8 24.5-18.8 33.5-21.7 54.2-17.5 5.6 1.1 11.3 2.8 12.7 3.7 2.5 1.6 5.5 1.3 5.5-.6 0-.5-1.2-1-2.7-1.1-1.6 0-4.3-.6-6.2-1.3l-3.4-1.2 4.3-3.7c2.3-2 6.1-4.2 8.4-5 3.2-1 4.2-1.9 4.4-3.9.2-1.8 1.7-3.2 5.4-5.4 2.8-1.6 5.3-3.5 5.6-4.2.3-.9-42.2-1.2-210.2-1.2H0zM429 2.1c-.7 1.3-.9 4-.5 6.9.6 4.3.4 4.9-2 6.8-1.4 1.1-3.1 2.3-3.8 2.5-.8.3-.4 1.3 1.1 2.9 2.3 2.5 2.6 4.7 1.6 11.1-.5 2.8-1 3.5-1.9 2.7-1.7-1.4-8.4-1.9-8.8-.6-.2.5 2.7 3.6 6.4 6.7 7.5 6.5 12.9 13.4 16 20.5 2 4.4 2.1 6 1.6 18.3-.3 7.5-1.5 19-2.7 25.6-2.5 14.1-2.3 21.2 1 27.7 1.2 2.6 7 9.7 12.7 15.9 25.3 27.2 30.9 34.2 37 46.4 10.6 21.1 17.9 49.9 14.3 56.5-.6 1.1-3 3.9-5.5 6.4-2.4 2.5-5.1 6.2-5.9 8.1s-2.2 3.5-3.1 3.5-3.3 1-5.4 2.2l-3.8 2.1-5.9-3.3c-13.5-7.7-21.7-15.8-28.3-27.8-3-5.5-4.2-6.7-7-7.5-1.9-.4-5-1.9-7-3.3-3.4-2.3-4.3-2.4-18.6-2.4-12.7 0-16.3-.4-23.5-2.4-17.5-4.8-33.2-12.7-42.5-21.3-2.3-2.1-2.4.6-1 19.4 1.2 15.3 2.2 21.7 6.9 41.9 3 13.2 6.4 28.4 7.5 33.9 3 15.1 5.5 39.8 4.8 47.9-.7 7.6-4.4 30.5-5.3 33.1-.5 1.3 8 1.5 77 1.5H512V0h-41c-40.5 0-40.9 0-42 2.1"/><path d="M419.7 26.6c-1.4 1.4-.7 2.5 1.3 2.2 1.2-.2 2.1-.8 2.1-1.3 0-1.2-2.4-1.8-3.4-.9m-237 42.9c-.6 1.5 4.6 20.2 5.9 21.5 1.1 1 10.2-3.3 12.1-5.8 3.7-4.7 3.6-5.2-.4-9.1-2.2-2-5.9-4.2-8.4-5-2.4-.7-5.4-1.7-6.6-2.1-1.5-.6-2.3-.5-2.6.5m-6.6 7.5c-3.3 15-2.3 18.8 4.3 17.6 3-.6 3.7-1.1 3.2-2.4-.3-.9-1.5-5.1-2.7-9.2-3.5-12.2-3.5-12.2-4.8-6M212 96.3c0 3.6 3.8 16.4 6.4 21.6 2.6 5 11.2 16.1 12.5 16.1.4 0 1.4-1.2 2.2-2.7.8-1.4 3.8-4.4 6.8-6.6l5.4-4-4.1-2.1c-5.4-2.8-14.4-10.6-19.4-17-5.7-7.2-9.8-9.4-9.8-5.3m17.5 6.8c5.9 6.6 8.6 8.9 12.7 11 4.9 2.5 5.9 2.4 9.2-1l2.7-2.9-11.8-4.9c-17.6-7.5-17.6-7.5-12.8-2.2m12.5 26.4c-1.1 1.3-1 1.4.4.9.9-.3 1.6-1 1.6-1.5 0-1.3-.6-1.1-2 .6m109 41.8c0 .6 2.8 3.9 6.3 7.3 7.2 7 13 9.6 25.2 11.3 4.3.6 8 .9 8.2.7.7-.7-12.4-8.5-21.3-12.7-12.4-5.8-18.4-7.9-18.4-6.6m-91 3.3c0 1.1-4.5 11.6-9.9 23.4-7.3 15.8-9.7 21.9-9 23.2 2.2 4.1-.4 16.9-4.1 20.3-2.8 2.6-2.5 3.9 1.6 7 4.7 3.6 5.9 2.2 5.4-6.3-.1-2.7.2-3.2 2.2-3.2 1.3 0 2.8-.4 3.4-.8 1.2-.8 8.7-10 12.1-14.8l2.2-3.1-2.2-2.2c-2.1-2.1-2.2-2.2-.5-5.2 1.1-1.8 1.6-4 1.2-5.4-.4-1.8.4-3.4 3.5-6.8 3.4-3.6 4.1-5.1 4.1-8.4 0-4.2-2.8-11.1-5.4-13.3-.9-.7-1.6-1.8-1.6-2.5s-.7-1.8-1.5-2.5c-1.2-1-1.5-.9-1.5.6"/><path d="M347 174.4c0 2.2-1.6 2.7-4.4 1.5-1.4-.7-2.8-1-3.1-.7s0 4.1.6 8.4c1.1 7.7 1.3 8.1 6.8 13.7 10.7 11.1 25.9 20.2 39.9 23.8 7.8 2 28.4 2.7 31 1.1 1-.7 1-2-.2-6.8-1.7-6.4-5.2-10.4-15.1-17-4.3-2.9-6.1-3.4-13.5-4-17.2-1.3-26.8-5.2-35.1-14.2-2.7-2.9-4.9-5.8-4.9-6.3s-.4-.9-1-.9c-.5 0-1 .6-1 1.4m-80.2 34.8c-.8 1.3-2 3.4-2.7 4.8-1.2 2.4-1.1 2.4.4.5 1.9-2.3 4.8-7.5 4.1-7.5-.2 0-1 1-1.8 2.2m154.2 6.9c.5 1.7 1.4 3.7 2.1 4.5 1.2 1.5 6.9 2 6.9.6 0-.8-8.5-8.2-9.4-8.2-.2 0-.1 1.4.4 3.1m12 13.9c.8.5 2.4 1 3.5 1 1.7 0 1.7-.2.5-1-.8-.5-2.4-1-3.5-1-1.7 0-1.7.2-.5 1m15.8-.3c.6.2 1.8.2 2.5 0 .6-.3.1-.5-1.3-.5s-1.9.2-1.2.5m17.7 1.8c-.5.2-4.5 1.1-8.7 2-5.6 1.2-7.8 2.1-7.8 3.2 0 3.2 6.7 13.8 12 19.3 4.6 4.6 14.1 12 15.4 12 .2 0-.7-2.1-2-4.7-2-3.8-2.4-6.2-2.4-12.7 0-4.5.4-9.8.9-11.8.7-2.9.5-4-.8-5.1-1.8-1.6-5.1-2.7-6.6-2.2m12.1 11.6c-1 4.9-.7 12.6.5 15.3 1.2 2.5 3.9 2.5 3.9 0 0-.8 1.1-3.7 2.5-6.4l2.5-4.9-3.1-3.6c-3.8-4.3-5.5-4.4-6.3-.4"/></svg>