<svg xmlns="http://www.w3.org/2000/svg" width="682.667" height="512" version="1.0" viewBox="0 0 512 384"><path d="M0 192v192h235l.4-2.2c.3-1.3 1-6.3 1.6-11.3 2.1-16 7.6-45.4 10.6-56.3.4-1.2.4-2.2.2-2.2-.3 0-4 4.7-8.3 10.6-9.8 13.1-17.6 19.4-24 19.4-3.8 0-4.7-.5-6.9-3.3-1.5-1.9-2.6-4.1-2.6-5 0-5.2 8-19.3 15.3-27.1 4.3-4.5 8.8-4.9 11.3-1 2 2.9 4.3 1.8 2.6-1.3-.8-1.3-.7-2.2.5-3.6 2.1-2.2 2.4-1.9-13.3-12.6-14.2-9.6-16-11.9-20.8-25.8-4.6-13.4-4.8-12.5 5.4-24.3 4.9-5.8 9-10.9 9-11.4s.9-1.9 2-3.1c2.4-2.5 5.7-24.6 6.6-44 .6-12.9 2.4-20 5.7-22.7 2.9-2.3 3.6-1.5 3 3.4-.4 2.7-.3 3.9.4 3.5 1.8-1.1 2.1 2.8.7 10.6-1.4 8.2-3.5 31.1-3.9 42-.1 3.7-.5 7.1-.9 7.4-.3.4-.6 1.4-.6 2.4 0 1.2.6 1.6 1.9 1.2 6.2-1.6 6.9 22.5 1 30.9-1.1 1.4-1.9 3-1.9 3.5.1 1.1 10.1 7.3 11 6.8.4-.3 1-3.1 1.2-6.3.7-7.4 2.1-10 13-24.7 4.9-6.6 8.5-12.1 7.9-12.3-1.8-.6-1.2-6.2.9-9.2 1.4-2 1.6-3 .8-3.2-.9-.3-.9-1.2.2-3.7 1-2.5 1.2-7 .7-19.9-.6-15.2-.9-16.8-2.7-18.1-1.6-1-2-2.5-2-6.5 0-3.3-.3-4.6-.9-3.7-.7 1-1.1.5-1.6-1.8-.4-1.7-1.4-3.8-2.2-4.7-.9-.8-2.5-3.4-3.7-5.7-1.8-3.6-2.6-4.2-5.3-4.2-3.5 0-3.4 0-5.1-3.7-1-2.4-1.5-2.7-4.2-2.2-3.9.8-6.7-1.6-7.6-6.3-.6-3.2-.7-3.3-2.5-1.7-2 1.8-4.9 1.3-4.9-.9 0-.7 2-3.3 4.5-5.7s4.5-4.9 4.5-5.5-1.4-3.7-3.1-6.8c-1.6-3.1-4-8.7-5.3-12.4-2.9-8.8-13.1-23.7-15.5-22.8-.9.4-6.1 2.2-11.5 4.1-16.8 5.7-24.4 4.3-26.2-5-1.2-6.4.1-21.7 2.4-27.9 1.1-3.2 1.9-6.4 1.6-7.2-.9-2.3 7.3-7.3 17-10.4 12.8-4.1 24.6-5.6 43.6-5.6 14.6 0 17.9.3 29 2.9 6.9 1.5 20 5.3 29.3 8.2 27 8.7 33.2 8.4 49.1-2.4 22.7-15.4 27.7-18.6 34.5-21.9 9.9-4.8 17.8-5.4 32.1-2.4 8.8 1.9 10.3 2 11.3.8 2-2.4 10.2-7.5 13.8-8.5 2.2-.7-70-1-215.3-1.1L0 0zM459 2.1c-.7 1.1-2.7 2.7-4.7 3.5l-3.5 1.5 2.5 2.3c1.4 1.3 2.7 3.2 3.1 4.2.7 2.4-2.9 13.1-3.8 11.5-.4-.6-2-1-3.4-.9-3.4.2-5.5-1-4.8-2.8.6-1.7-1-1.9-2-.3-.3.6 1.8 3.4 4.9 6.2 7.2 6.9 14.2 16.4 18.6 25.7 3.3 6.8 3.6 8.3 3.5 15.5-.1 8.2-1.8 18.6-5.6 35.5-1.2 5.3-2.2 13.1-2.2 17.5-.1 11.4 2.7 16.5 17.6 32.2 9.8 10.3 23.5 27.3 31 38.3 1.6 2.4 1.7-3 1.7-94.8L512 0h-26c-25.3 0-26 .1-27 2.1"/><path d="M430.5 8c.3.5.8 1 1.1 1 .2 0 .4-.5.4-1 0-.6-.5-1-1.1-1-.5 0-.7.4-.4 1m-5.5 4c0 .6.7 1 1.5 1s1.5-.2 1.5-.4-.7-.6-1.5-1c-.8-.3-1.5-.1-1.5.4m5.5 3c-.3.5-.2 1 .4 1 .5 0 1.3-.5 1.6-1 .3-.6.2-1-.4-1-.5 0-1.3.4-1.6 1m17.9 1.1c-.3.6 0 1.5.7 2 2.2 1.4 2.9 1.1 2.9-1.1 0-2.1-2.4-2.7-3.6-.9M182 51.6c0 5.4 3.6 23.4 4.7 23.4 3 0 14.7-13.1 15.7-17.7 1-4.4-1.8-6.6-11.3-9.2-4.3-1.2-8-2.1-8.4-2.1s-.7 2.5-.7 5.6m-6.9 8.3c-1.5 6.9-1.4 9.6.4 13 1.4 2.8 4.2 4.7 5.3 3.6.3-.3-.2-3.8-1.1-7.8-1-3.9-1.7-8.1-1.7-9.2s-.4-2.6-.9-3.4c-.6-.9-1.2.2-2 3.8m27.6 7.7c-1.8 2.4-1.8 2.4.7 2.4 3.1 0 3.9-1.2 2.3-3.3-1.1-1.4-1.4-1.3-3 .9m13.4 6.3c-1.1.7-1 1.5.8 4.5 1.3 2 2.5 3.6 2.7 3.6s.4-2 .4-4.5c0-4.6-1-5.4-3.9-3.6m9.9 5.2c0 1.2.7 4.9 1.6 8.3 1.8 7.2 5.5 11.6 12.8 15.3 4.1 2.1 5.9 2.4 9.9 2 5.6-.7 11-3.5 11.5-6 .2-1-1.7-3.8-4.5-6.6-4.1-4.2-6.7-5.7-17.5-10-7-2.8-12.9-5.1-13.2-5.1s-.6.9-.6 2.1m9 27.8c0 2.1 3.6 5.2 5.3 4.5 1-.3 1.6-1.1 1.5-1.6-.5-1.3-6.8-4-6.8-2.9m127 58.3c0 .7 2.5 6.3 5.4 12.5 5.2 10.7 5.6 11.2 9.3 12.2 5.4 1.4 16.4 2.9 26.3 3.6l8.5.6-7.4-7.1c-9.8-9.2-17.6-14.2-30-19-11.2-4.4-12.1-4.6-12.1-2.8m-7 19.4c0 1.1.4 5.7 1 10.4.5 4.7 1.9 18.4 3 30.5 5 53.7 7.3 63.9 20.6 93.6 10.4 23.4 16.5 44.6 16.4 57.4l-.1 4-1.6-2.9c-.8-1.6-1.9-3.4-2.4-4s-2-2.4-3.3-4l-2.4-2.9-.5 2.9c-.3 1.6-.9 5.5-1.2 8.7l-.6 5.7H512l-.2-45.2-.3-45.2-4.5-3.3c-13.5-9.9-20.1-19.2-25.6-36.3l-2.5-7.8-21.2-.4-21.2-.4-9.7-3.6c-19-7-36.9-18.6-48.8-31.5-6-6.4-14.9-18.3-15.1-20.1 0-.4-1.8-2.2-4-4.1-3.3-2.8-3.9-3-3.9-1.5m-75.7 4.1c-3.2.4-3.3.5-3.3 5.4 0 5.3 1.3 5.8 3.1 1.2.5-1.4 1.8-2.7 2.9-3 1.8-.5 3-4.5 1.3-4.1-.5 0-2.3.3-4 .5"/><path d="M380 198.5c7.4 10.7 22.4 23 38.3 31.5l9.9 5.3-3.1-5.4c-3.3-5.9-5.4-16.4-4.9-23.9.3-4.2.1-4.6-3.2-6.1-2-1-7.6-1.9-13.5-2.4-5.5-.3-13.7-1.2-18.1-1.9l-8.2-1.2zM278.5 202c-1.6 1.6-2.7 3.2-2.4 3.4.9.9 7.4-3 7.7-4.7.5-2.7-2.1-2-5.3 1.3m144.5 4.1c.1 4.9 2.8 17.7 4.5 21 2.2 4.4 5.3 7.7 9 9.7 3.8 2.1 21 2.2 30.3.2l6.4-1.3-9.4-8.9c-5.1-4.9-11.2-10.2-13.6-11.9-4.5-3.2-15.7-8.2-20.7-9.2-1.6-.3-3.8-.9-4.7-1.2-1.4-.6-1.8-.2-1.8 1.6m-158.3 13.6c-.4.3-.7 1.1-.7 1.7s.5.5 1.2-.2c.6-.6.9-1.4.7-1.7-.3-.3-.9-.2-1.2.2m231.6 28.5c-2 .9-2.3 1.9-2.2 6.2.1 7 1.7 11.6 6.4 18.1 4.8 6.6 6.3 7.4 7 3.7.3-1.5 1.5-4.5 2.5-6.7 1.3-2.5 2-6.1 2-9.6 0-4.7-.4-5.9-2.7-8.1-5.2-4.8-8.6-5.7-13-3.6"/></svg>