<svg xmlns="http://www.w3.org/2000/svg" width="682.667" height="512" version="1.0" viewBox="0 0 512 384"><path d="M0 192v192h230.6l1.8-11.8c1.6-10.3 5.5-31.9 7.2-39.3.5-2.3.1-2.8-2.4-3.7-2.8-1-3.2-.8-6.2 3.5-7.9 11-20.2 22.1-25.9 23.6-4.6 1.1-11.1-4.1-11.1-8.9 0-3.5 4.6-12.6 10.5-20.5 3-4.1 5.5-7.7 5.5-8.1s-.8-.9-1.8-1.2c-6.3-2-20.6-27-22.6-39.2-.7-4.3-.8-4 9.8-20.4l5.8-9.1-4.2-10.7c-8.6-21.9-23.2-58.8-24.2-61.4-.9-2.4-.7-3 1.8-5.2 1.6-1.4 6.5-3.9 11-5.5 14.5-5.3 25-6.3 39-3.6 7.9 1.5 18.4 5.8 18.4 7.6 0 .5 2.5 3.4 5.5 6.4 3 2.9 5.5 5.7 5.5 6s-7 14.6-15.6 31.7c-10.6 21.1-15.4 31.8-15.1 33.2.3 1.2 1.5 4.7 2.7 7.9 2.8 7.9 3.1 23.9.5 31.6-1.9 6-1.4 7.1 3.8 7.1 1.5 0 2.7.4 2.7 1 0 .5.7.7 1.5.4.8-.4 1.5-1.5 1.5-2.5s1.1-2.4 2.5-3.2l2.6-1.3-2.6-3.4c-4.4-6.1-5.8-10.1-5.2-15.2.7-5.6 5.5-15.4 9.2-18.8 1.5-1.4 5.8-6.4 9.5-11.2l6.7-8.6.7-17.9c.3-9.8.9-24 1.2-31.6.6-12.2.5-13.7-1-13.7-1.2 0-1.6-1-1.6-4.4 0-2.4-.7-5.7-1.5-7.3-.9-1.5-2-4-2.5-5.6-.7-2.1-1.6-2.7-3.9-2.7-2.6 0-3.2-.6-5.5-5.5-1.4-3-3.1-5.7-3.8-5.9-.7-.3-2.5-.7-4-1-2.3-.5-2.8-1.2-2.8-3.6 0-2.8-.3-3-3.5-3-4.1 0-5.5-2-5.5-8v-4.1l-3 2.1c-2.8 2-7 2.1-7 .1 0-3.1 13.6-18.1 19.2-21.3l3.7-2.1-3.8-1.9c-8.6-4.2-22.3-18.1-27.8-28.1-1.5-2.6-3.1-4.6-3.7-4.3-10.3 4.6-14.3 5.8-18.4 5.3-7-.8-12.9-6.5-15.2-14.6-1.5-5.4-1.2-21 .5-29.2.9-4 1.3-8 1-8.9-.7-2.3 4.1-6.6 9.5-8.5 2.5-.9 7.7-2.5 11.5-3.5C198.5.1 198 .1 99.3.1L0 0zM273.5 3.5c15.1 3.6 36.2 10.6 46.8 15.4 16.9 7.8 22 6.8 47.2-9.4 6.6-4.2 12.4-8.1 13-8.6.5-.5-22.2-.9-60-.8h-61zm208.7 1.8c-.6 2.9-1.2 6.1-1.2 7.1 0 1.6-.2 1.7-1.6.5-.9-.8-3-1.4-4.5-1.5-2.8-.2-2.7 0 2.2 4.4 4.1 3.6 6.2 6.9 11 16.8 3.2 6.8 6.6 15.1 7.6 18.4 1.6 5.7 1.6 6.8-.1 17.8-.9 6.4-3.5 19.2-5.7 28.3-2.6 11.2-3.9 18.9-3.9 23.7v7.1l7.8 8.3c4.2 4.6 10.1 11 12.9 14.3l5.3 6V0h-28.5zM474 2.5c0 .8.7 1.5 1.6 1.5 1.4 0 1.4-.3.4-1.5-.7-.8-1.4-1.5-1.6-1.5s-.4.7-.4 1.5m4 .6c0 .5.5.7 1 .4.6-.3 1-.8 1-1.1 0-.2-.4-.4-1-.4-.5 0-1 .5-1 1.1m-10 3.4c0 .8.8 1.5 1.8 1.4 1 0 1.2-.3.4-.6-.6-.2-1-.9-.6-1.4.3-.5 0-.9-.5-.9-.6 0-1.1.7-1.1 1.5"/><path d="M177.3 28.7c.7 11 5.5 25.7 7.8 23.9 3-2.3 8.2-9.8 9.9-14.4 1-2.6 2.1-5.5 2.5-6.4 1.1-2.7-4.3-7.1-11.8-9.6-9.4-3.2-9.1-3.5-8.4 6.5m-3.2 17.1c-.1 2.5 2.7 9.8 3.4 9 .3-.2-.4-2.9-1.4-5.9-1.2-3.3-2-4.5-2-3.1m28.9.9c0 3.7 1.5 4.5 4.1 2.4l2.4-1.9-2.8-1.1c-3.7-1.4-3.7-1.4-3.7.6m-9.3 5.3c-4.1 5.4-3.4 6.3 2.8 3.3 3.8-1.8 4.1-2.6 2.2-6.1-1.2-2.2-1.3-2.1-5 2.8m19.6 3.6c-2.9 1.3-5.3 2.8-5.3 3.4 0 3.5 10.6 16.4 19.3 23.5 7 5.6 10.5 7.1 9.2 3.7-1.5-3.9-3.5-13.2-4.4-20.1-.5-4-1.1-7.4-1.3-7.5-1.9-1.6-9.8-5.6-10.9-5.5-.8 0-3.8 1.1-6.6 2.5m25.3 12.1c1.7 7.4 6.9 21.5 8 22 1.4.5 11.4-2.5 11.4-3.4 0-1.1-7.6-11-12.4-16.1-5.5-5.9-8-6.8-7-2.5M251.5 99c.3.5.8 1 1.1 1 .2 0 .4-.5.4-1 0-.6-.5-1-1.1-1-.5 0-.7.4-.4 1m-13 2.3c-4.7 2.8-7.6 4.9-7.2 5.3.8.8 11.8-3.9 11.4-4.9-.5-1.6-2-1.7-4.2-.4m1.2 7.4c-5.7 2.6-6.7 3.6-4.6 4.8 1.5 1 11.9-3.5 11.9-5.1 0-2.4-1.5-2.3-7.3.3M362 158.2c.1.7.7 2.4 1.5 3.8s1.4 3.7 1.5 5.1c0 1.5.7 2.9 1.5 3.3.8.3 1.5 1.4 1.5 2.4 0 1.1-.7 2.5-1.5 3.2-1.6 1.3-1.9 3.9-.9 8.9.6 2.9 1.2 3.3 7.8 5.3 8.8 2.7 22.2 3.2 21.9.8-.1-.8-1.4-5.1-3-9.4-2.6-7.3-3.3-8.3-8.4-12.1-7.5-5.5-21.9-13-21.9-11.3m-91 35.6v9l4.4-2.1c4.5-2 6.6-5 6.6-9.1 0-1.9-.4-2.2-2.3-1.9-1.6.3-3.4-.4-5.5-2.2l-3.2-2.7zm136-4.2c0 1.7 2.8 4.9 3.6 4.1.4-.4-.2-1.7-1.4-3-1.2-1.2-2.2-1.7-2.2-1.1m-40.5 6.8c.3 2.2 1.4 15.8 2.5 30.1 3 37.4 6.4 62.7 10.5 76 2.2 7.3 7 18.5 14.3 33.1 6 12.2 13 28 15.5 35l4.5 12.9 49.1.3 49.1.2v-90l-3.3-4.3c-3.8-5-5.3-9.6-7-21.7l-1.2-8.5-13.5-.7c-7.9-.3-15.5-1.3-18.4-2.2-2.8-.9-7.6-2-10.8-2.6-12.4-2-15.5-4.2-36.1-25.8-8.3-8.7-20.5-25-21.9-29.3-.3-.8-4.3-1.5-11.4-2-6.2-.4-13.4-1.6-16.7-2.7l-5.8-2z"/><path d="M413.1 201.7c2.9 4.8 9.8 14.3 10.4 14.3.2 0 .2-2.6 0-5.7-.3-5.1-.7-6.1-3.9-9-2.1-2-4.6-3.3-6.2-3.3h-2.6zm13.4 10c.4 2.7 1.1 6.2 1.6 8 1.8 5.9 17.3 17.8 32 24.7l7.4 3.5 6-1.9c3.3-1 7.7-2.2 9.9-2.5l3.9-.6-3.9-4.1c-6.5-6.7-19.4-16.3-28.4-21.1-7.1-3.8-25.3-10.7-28.3-10.7-.4 0-.5 2.1-.2 4.7m57 37c-6.6 1-4.7 2.3 3.4 2.3 7.3 0 8.2-.2 7.1-1.5-1.2-1.4-4.2-1.7-10.5-.8m-266.9 10.9c-1.1 3-.7 5.4.9 4.8.9-.4 1.5-1.9 1.5-3.5 0-3.1-1.4-3.9-2.4-1.3m290 .3c-1.2 1.9 3.3 24.1 4.9 24.1.3 0 .5-5.6.5-12.5V259h-2.4c-1.4 0-2.7.4-3 .9M399.9 378c1.1 4.4 2 6 3.3 6 1.5 0 1.3-.7-.9-6-1.5-3.3-2.9-6-3.3-6s0 2.7.9 6"/></svg>