<svg xmlns="http://www.w3.org/2000/svg" width="682.667" height="512" version="1.0" viewBox="0 0 512 384"><path d="M276.3 141c-18.3 2.6-39.1 12.6-49.1 23.5-10.6 11.6-12.7 18.2-13.6 42.5-.9 22.1.8 27.8 12.2 42.8 16 21 39.5 36.9 61.3 41.4 10.1 2.1 10.8 2.1 18.7.6 10.6-2.1 18-5.6 24.2-11.4 2.8-2.6 10.2-12.4 16.6-22l11.5-17.3 6.6 2.4c8.1 3.1 8.6 3.1 8.1 0-.3-1.4-.1-2.8.5-3.2 1.3-.8-5.1-4.2-8-4.3-5.1-.1-5.3-.5-5.3-12.3 0-9.3.4-12.2 2.6-18.6 4.8-13.8 2.2-24.7-8.9-38.2-9.5-11.5-24.7-21.3-37.8-24.4-7.8-1.8-31.1-2.7-39.6-1.5"/></svg>