<svg xmlns="http://www.w3.org/2000/svg" width="682.667" height="512" version="1.0" viewBox="0 0 512 384"><path d="M0 192v192l112.3-.2 112.2-.3 1.2-9c.6-5 1.6-11 2.2-13.5.5-2.5.7-4.8.3-5.1s-4.4-1.4-9-2.4l-8.3-1.8-4.2 4c-9.6 9.3-15.3 11.3-20 6.9-5.3-4.9-4.3-10.5 3.6-22.1 2.2-3.3 4-6.4 4-7 0-.5-1.7-3.7-3.8-7-4.9-7.6-9.4-18.1-9.5-21.9 0-1.9 1.3-4.4 3.5-7.2 2-2.4 4.5-6.5 5.6-9.2l2-4.9-18.2-23.9C138 212.4 131 203 131 202.1c0-.5 2.5-2.7 5.5-5.1 3.8-3 6-4 7.4-3.5 1.2.3 3.7-.3 6.2-1.5 2.3-1.2 5.1-1.9 6.2-1.6 1.1.2 4.2-.4 7-1.4 3.4-1.3 5.5-1.6 6.7-1 1.1.6 3.6.4 7.1-.5 3.4-.9 5.5-1.1 5.9-.4.4.5 3.8.9 7.6.8 14.7-.4 44.5 6.7 56.4 13.5 2.4 1.4 4.8 2.2 5.2 2 .5-.3 1.5 0 2.3.6 1.3 1.1 1.5-1 1.5-15.9 0-9.8-.4-17-.9-16.7-.9.6-1.3-1.8-2.7-13.9-.5-4.1-.9-5.4-1.4-4-.6 1.7-.7 1.7-1.3-.6-.8-3.3-8-6.8-10.5-5.2-2.5 1.5-4 .6-5.3-3.5-.6-2-2.3-5.2-3.6-7-2.1-2.8-2.9-3.2-5.4-2.7-3.2.7-3.8-.5-1.4-2.5 2.6-2.1 1.4-5.4-2-6-2.8-.5-3-.9-3.3-5-.2-3.2.4-5.9 2.1-9.2 2.6-5.1 2.5-5.1-4.6 0-3.3 2.4-5.2 3.1-5.9 2.4-1.2-1.2 0-3.8 5.8-11.2 9.1-12 16-16.3 28.6-18.3l8.3-1.3-.3-3.9c-.4-4.7-4.3-11.1-7.7-12.7-1.9-.9-2.9-.7-5 .6-1.4.9-2.5 2.3-2.5 3.1 0 2.8-4.7 4.8-10 4.2-12.7-1.5-26.7-14.8-32.5-31-2.1-5.6-2.6-6.2-6.3-7.5-5.5-1.8-13.4-10.5-16.1-17.6-1.1-3-2.5-8.4-3.2-12L167.8 0H0z"/><path d="M178 2.7c1.4 4.9 3.9 10.1 5.2 10.9 2.1 1.3 6.8-5.5 6.8-9.8V0h-12.9zM348 1c1.8 1.1 6.5 1.1 10 0 1.8-.6.5-.8-4.5-.9-4.9 0-6.5.2-5.5.9m152.1.7c.8 1 2.2 2.7 3.2 3.8 2.4 2.6 5.6 8.8 7.2 13.9 1.2 3.9 1.3 3.4 1.4-7.7L512 0h-6.6c-6.2 0-6.5.1-5.3 1.7m-307.7 21c1.2 4.8 4 7.7 11.6 11.6 7.7 4 13.2 4.7 13.8 1.6.2-1-3.6-3.8-12.3-8.7-6.9-4-12.9-7.2-13.2-7.2s-.2 1.2.1 2.7m29.7 19.9c-2.1 3.6-2.3 3.6-7.5 3.2-3-.2-7.8-1.6-10.7-3.1-2.9-1.4-5.5-2.4-5.8-2.2-.2.3 1 3.4 2.8 7C207.1 60 219.2 70 228.1 70c3.2 0 4-.5 5.7-3.4 1.5-2.6 3.2-3.8 6.2-4.6l4-1.1-3.1-4.5c-4.3-6.2-8.4-10.8-12.9-14.4l-3.8-3zm32.5 34.9c.4.8 1 1.2 1.5.9 1.1-.6.2-2.4-1.1-2.4-.5 0-.7.7-.4 1.5M507 93.1l-4.2 17.1 4.6 4.6 4.6 4.7V97.7c0-11.9-.2-21.7-.3-21.7-.2 0-2.3 7.7-4.7 17.1m-265-3.2c-4.1 1-8.7 2.3-10.2 2.9-3 1.2-11.8 8.9-11.8 10.3 0 .4 2.1-.4 4.7-1.9 2.6-1.4 9.7-4.4 15.7-6.7 6-2.2 11.1-4.6 11.4-5.3.5-1.5-.5-1.4-9.8.7m4 5.8c-1.9.9-7.8 3.6-13 6.1l-9.5 4.4 4.6 1.5c4.5 1.5 4.6 1.5 11.5-2 8.7-4.4 10-5.5 10.8-9 .7-3.1.4-3.2-4.4-1m117 56.7c0 .2.7 2 1.5 4 .9 2 1.5 5.1 1.5 6.9 0 8.6.6 19.3 1.2 20.3 1.5 2.3 9.9 3.4 25 3.4h15.2l-4.9-5.1c-7.4-7.5-21.9-19-31.2-24.8-4.6-2.8-8.3-4.9-8.3-4.7m-96 39.9V204l2.4-1.5c2.5-1.7 3.6-5.2 3.6-11.6 0-2.9-.8-4.7-3-7.1l-2.9-3.3zm100.7-2.7c-.2.2 0 3.8.5 8.1.4 4.3 1.2 24.7 1.8 45.3 1.1 43.2 1.7 54.8 3.2 64.5 1 6.7 5.2 25.3 8.2 36 .8 2.7 3 10.6 4.9 17.5s4.1 14.9 4.8 17.7l1.3 5.3H512v-54.5c0-35-.4-55.1-1-56.3-.6-.9-1.6-4.2-2.4-7.2l-1.3-5.5-10.4-.6c-5.7-.3-12.6-1.2-15.4-2.1-2.7-.9-7.6-2.1-10.8-2.8-8.2-1.7-22.1-8.9-29.1-15.2-9.8-8.7-17.5-22.2-20.1-35.4-.6-3.1-6.1-9.2-10.3-11.4-1.6-.7-7.7-1.1-17.7-1.1-9.6 0-17.3-.5-20.4-1.3-2.8-.7-5.2-1.2-5.4-1"/><path d="M425.6 206.2c4.9 16.1 14.6 29.1 26.7 35.8l4.2 2.3-5.2-5.5c-6.3-6.7-12.9-17-16.7-25.8-3-6.9-4.8-9-7.9-9-1.4 0-1.7.5-1.1 2.2m16.4 3.9c0 2 8.1 14.9 13 20.8 5.6 6.7 15.8 13.8 24.3 17 5.8 2.1 19.7 4 19.7 2.6 0-1-16-15.9-24.3-22.6-10.7-8.6-32.7-20.6-32.7-17.8m-63.6 167.1c.3 1.3.6 3.3.6 4.5 0 1.3.6 2.3 1.4 2.3 1.3 0 1.3-.6-.1-4.5-1.5-4.6-3-6.3-1.9-2.3"/></svg>