<svg xmlns="http://www.w3.org/2000/svg" width="682.667" height="512" version="1.0" viewBox="0 0 512 384"><path d="M0 192v192h224.7l1.2-9c.6-4.9 2-13 3-18l1.8-8.9-6.8-3.5-6.9-3.4-5.2 6.1c-11.4 13.1-19.5 16.8-24.6 11.4-4.7-5-2.3-12.5 8.8-27.1 2.5-3.2 4.9-6.4 5.4-7 .5-.8-.7-3.5-3.3-7.5-2.2-3.5-4.9-8.7-6-11.7-2.3-6-1.9-8.1 2.3-13.1 1.5-1.8 3.5-5.7 4.6-8.9l2-5.7-2.4-3.1c-1.4-1.7-3.5-4.3-4.8-5.7-10.1-11.5-56.4-67.3-56.6-68.3-.5-2.2 10.9-10.7 13.7-10.3 1.4.3 4.2-.7 7.3-2.6 3.5-2.2 5.2-2.7 6-1.9s2.6.4 6.6-1.4c3-1.3 6.3-2.2 7.3-1.9s4.4-.1 7.6-.9c3.2-.9 6.1-1.2 6.6-.7s2.7.4 5-.1c7.5-1.7 33 .8 47.9 4.6l8.8 2.3v-3.8c0-6.2-3-22.2-4.7-24.7-1.5-2.5-11-7.2-14.3-7.2-1 0-2.2.5-2.5 1-.8 1.3-3.5-.6-3.5-2.4 0-.7-1.4-3.3-3-6-2.4-3.7-3.5-4.6-4.9-4.1-2.6.8-3.6-1.2-1.7-3.4 2.4-2.6 2-5-1-6.2-2.6-.9-2.6-1.2-2.1-6.5.3-3.1 1.5-7.3 2.5-9.5l2-4-2.7 1.7c-1.4.9-3.5 2.5-4.7 3.5-2.6 2.4-6.4 2.5-6.4.1s7.7-13.9 12.6-18.9c5.6-5.5 9-7.2 19.7-9.4 9-1.8 11.2-3.1 10.1-5.9-.3-.8-.8-3.7-1.1-6.5-1.5-12.3-9.7-17.6-14.8-9.5-2.4 3.8-2.7 4-7.8 4-11.7 0-23.6-9.7-31.3-25.5-2.4-5-4.4-9.6-4.4-10.2s-1.2-1.5-2.8-2.1c-8.7-3-15.5-13.9-17.7-28.5l-.6-3.7H0zM180 .7c.1.5.9 2.3 1.9 4.1l1.7 3.4 2.7-3.6c1.5-1.9 2.7-3.7 2.7-4s-2-.6-4.5-.6-4.5.3-4.5.7m323.4 1.8c.9 1.4 2.3 3.7 3.3 5.1.9 1.4 2.4 5.3 3.4 8.7l1.8 6.2V11.2L512 0h-10.2z"/><path d="M176.1 8.5c0 .5.7 2.6 1.4 4.5.9 2.3 1.4 2.8 1.4 1.5 0-1.1-.6-3.1-1.4-4.5s-1.4-2.1-1.4-1.5m13.9 8.1c0 5 20.2 17.9 27.1 17.2 3.4-.3 3.4-.3-5.1-5.9-4.7-3.1-11.5-7.2-15.2-9.3-5.7-3.1-6.8-3.4-6.8-2m4.7 16c-.9 1 3.6 10.8 8.1 17.7 4.7 7.3 8.9 10.6 17 13.7 6 2.3 8.8 1.6 11.4-3 1.1-2 2.7-3.1 5.2-3.6 2-.3 3.6-.9 3.6-1.3 0-1.4-5.7-9.6-9.8-14.1l-4-4.5-2.5 2.3c-1.6 1.5-3.7 2.4-5.9 2.4-4.4 0-13.6-3.6-18.6-7.2-2.2-1.6-4.2-2.6-4.5-2.4m312.5 50.7c-2.3 9.4-4.2 17.9-4.2 18.7 0 .9 2 3.6 4.5 6l4.5 4.4V89.2c0-12.8-.1-23.2-.2-23.2-.2 0-2.2 7.8-4.6 17.3m-256.1-9.1c.5 1.8.9 3.5.9 3.8 0 .2.7-.6 1.7-1.9 1.5-2.3 1.5-2.5-.2-3.7-2.9-2.1-3.4-1.7-2.4 1.8m-14.6 19.2c-9.3 2.5-14.3 5.3-17.7 9.9-4.4 5.8-4.2 6 2.3 2.4 3.5-1.9 10.5-5.2 15.4-7.2 8.3-3.5 10.4-4.8 10.5-6.8 0-1-1.6-.8-10.5 1.7m-2.7 10.5c-6 3-10.8 5.9-10.8 6.4 0 .6.3.8.6.4.4-.3 2.1 0 3.9.8 3.2 1.3 3.6 1.1 10.7-2.8 5.4-3.1 7.4-4.8 7.6-6.6.2-1.3 0-2.6-.5-3-.4-.4-5.6 1.8-11.5 4.8m125.8 44.9c-.3.4.4 2.7 1.5 5.1 1.2 2.7 1.9 6.5 1.9 10.1 0 5.5 1.5 15.9 2.5 16.8 1.6 1.6 10.5 2 22.3 1l13.2-1.2-6.2-6.4c-9.7-9.8-34-27.3-35.2-25.4M266 188.7c0 2.1.6 3.6 1.5 4 2.3.8 2.7-.1 2-3.9-.9-4.6-3.5-4.7-3.5-.1m100-1.9c0 .6.9 9.7 1.9 20.4 1.1 10.6 2.4 27.2 3 36.8 2.3 35.2 5.6 57.7 13.6 91 3.5 14.4 10.1 42.5 11 46.7l.5 2.3h116V278.4l-2.9-5.5c-1.6-3-3.5-7.9-4.2-11l-1.3-5.7-5.1-.7c-2.7-.3-8.1-1.7-12-3-3.8-1.2-11-2.6-16-3-4.9-.4-11.7-1.7-15-2.9-18.2-6.6-33.8-24.7-37.9-44-1.2-6-2-7.5-6-11.5l-4.6-4.6-10.3.1c-5.6 0-13.4.2-17.4.3-4 .2-8.6 0-10.3-.4-1.8-.4-3-.3-3 .3"/><path d="M422.6 206.5c3 8.9 8.8 18.1 15.1 24.2 6.2 5.9 19.2 12.2 26.6 13l5.8.6-6.7-6.4c-7.5-7.2-12.5-14.1-17.8-24.6-2-4-4.6-7.8-5.8-8.4-2.7-1.4-16.6-5.9-18.4-5.9-.9 0-.6 2 1.2 7.5m35.6 11.7c7.8 12.6 25.5 26.4 33 25.6 3.2-.3 3.2-.3-6.6-9.3-10.1-9.3-26.1-21.4-28.3-21.5-.8 0 0 2.2 1.9 5.2m51.4 41c1.4 6.8 2.3 7.5 2.3 2 .1-4.1-.2-5.2-1.5-5.2-1.2 0-1.4.7-.8 3.2M380.1 378.6c0 1.1.3 1.4.6.6.3-.7.2-1.6-.1-1.9-.3-.4-.6.2-.5 1.3"/></svg>