<svg xmlns="http://www.w3.org/2000/svg" width="682.667" height="512" version="1.0" viewBox="0 0 512 384"><path d="M0 192v192h224.9l.5-3.3c2.7-17.6 5.1-30.3 6.7-35.7 1.8-6.2 1.8-6.6.1-7.8-1.9-1.4-4.9-3.8-7.3-5.9-1.4-1.2-2.5-.3-9.2 8-11 13.5-16.8 18.7-21 18.7-4.7 0-8.7-3.8-8.7-8.2 0-1.8 1.3-5.6 2.9-8.4 2.9-5.4 14.4-20.6 18-23.8 1.2-1.1 2.1-2.2 2.1-2.6s-2-3.8-4.5-7.4c-5.5-8.2-5.8-11.8-1.6-17.9 1.6-2.3 3.4-6.8 4.1-10 1.1-5.6 1.1-6-1.2-8.4-1.2-1.4-16.7-17.2-34.3-35-17.6-17.9-32.1-33.1-32.3-33.7-.2-.7 2.5-3.9 5.9-7 4.7-4.4 6.4-5.4 7.4-4.6s2.6.2 6.4-2.5c3-2.2 5.8-3.5 6.7-3.1.8.3 4.2-.8 7.4-2.4s6.2-2.6 6.5-2.1 3.2-.1 6.4-1.4 6.7-2.1 7.9-1.9c1.1.3 4.4-.1 7.4-.9 6.5-1.8 35.4-1.7 43.6.3 2.9.6 5.6.9 5.9.6.4-.3.2-3.2-.3-6.3l-.9-5.8-9.5-4.8c-6.8-3.5-10.2-4.7-12.2-4.3-2.9.6-4.1-.5-5.3-4.4-1.2-4-4.5-8-6.6-8-2.5 0-2.4-2.2.1-3.8 2.4-1.4 2.6-4.7.5-5.6-2.1-.8-1.9-6.8.4-13.4 1-2.8 1.6-5.2 1.5-5.2-.2 0-2.5 1.6-5 3.6-5.1 3.8-8.7 4.2-9.2.8s3.8-13.4 7.6-17.6c5.1-5.7 10.5-8.4 21.7-11.1l9.9-2.4 1.3-3.9c2-5.6-.1-19.3-3.4-22.9-3.3-3.4-7.3-3.3-11.6.5-9.9 8.7-28.5-2.3-38.3-22.6-2.4-5.1-4.4-9.7-4.4-10.2s-1-1.2-2.3-1.6c-6.2-1.5-14-13.5-15.3-23.4l-.7-5.2H0zM181.5 1c.4.6 1.1.8 1.6.5 1.4-.9 1.1-1.5-.7-1.5-.8 0-1.2.5-.9 1M504 .4c0 .2 1.2 2.5 2.7 5.2 1.5 2.6 3.2 8 3.9 11.8l1.1 7.1.2-12.3L512 0h-4c-2.2 0-4 .2-4 .4"/><path d="M174 1.6c0 2.3 2.4 9.4 3.2 9.4 1 0 .6-2.8-1.2-7.5-.9-2.2-2-3.4-2-1.9m13 9.2c0 3.2 12 14.4 18.7 17.4 4.8 2.1 13.3 3.5 13.3 2.1 0-1.1-15.8-11.6-25.2-16.8-3.8-2-6.8-3.3-6.8-2.7m-4 8.1c0 .6.4 1.3 1 1.6s.7-.1.4-.9c-.7-1.8-1.4-2.1-1.4-.7m10.5 15c5.1 13 14 22.9 23.7 26.2l5.1 1.7 5.6-3.4c3.1-1.9 6.6-3.4 7.9-3.4 1.2 0 2.2-.3 2.2-.7 0-1.5-7.9-13.9-10.3-16.1-2.4-2.3-2.6-2.3-5.8-.7-5.9 3.1-14.7.8-25.6-6.6-2.3-1.6-4.4-2.9-4.7-2.9-.2 0 .6 2.7 1.9 5.9m317 24.8c-.3 2.7-2.4 12-4.6 20.7l-4 16 5 5 5.1 5.1V79.7c0-14.1-.2-25.7-.4-25.7s-.7 2.1-1.1 4.7M247.4 71.2c.9 5.8 1.7 6.2 4.9 2.9l2.7-2.9-2.3-1.4c-1.2-.8-3-1.8-4.1-2.1-1.7-.7-1.8-.4-1.2 3.5M231 97.4c-9.2 2.7-14.1 5-16.8 7.9-2.3 2.5-5.6 10.7-4.3 10.7.4 0 2.8-1.4 5.2-3.2s9.3-5.7 15.4-8.8c6.7-3.4 11.1-6.2 11.3-7.3.5-2.2-1.5-2.1-10.8.7m2 9.7c-4.1 2.2-8.2 4.7-9 5.5-1.2 1.2-1.1 1.4 1.1 1.4 1.4 0 3 .5 3.6 1.1.7.7 2.5.1 6-2 3.9-2.4 5.2-3.9 5.7-6.3.3-1.7.5-3.2.3-3.4-.1-.2-3.6 1.5-7.7 3.7M357.5 147c-.6.9 4.8 25.1 6.6 29.7.6 1.7 1.7 2.3 4.1 2.3 4.9.1 27.8-3.3 27.8-4.1 0-2-23.6-21.3-32.1-26.2-5.1-3-5.5-3.1-6.4-1.7m22 35.6c-3.4.7-7.9 1.1-10.4.7-4.2-.5-4.4-.5-3.8 1.8.6 2.7 4 27.1 6.1 44.9 4.2 34.3 12.9 76.6 22.1 107.5 4.6 15.2 11.5 42.2 11.5 44.6 0 1.8 1.7 1.9 53.5 1.9H512V278.9l-3-3.7c-3.6-4.6-6.4-11-8.1-18.5-1.2-5.8-1.3-5.9-6.6-8.3-3-1.3-6.8-3.3-8.5-4.5-3-2.2-3.4-2.2-12.7-1.1-12.3 1.6-16.5 1.5-22.2-.2-10.7-3.3-20.5-10.4-27.5-19.9-5.6-7.5-6.9-10.6-9.9-22.6-2.2-8.6-2.9-9.9-7.2-14.3l-4.7-4.8-8.1.1c-4.4.1-10.7.7-14 1.5"/><path d="M417.5 201.2c1.2 4 3.5 9.8 5 12.8 4 7.8 13.9 17.3 22.2 21.3 6.2 2.9 7.6 3.2 16.3 3.2 5.2-.1 10.8-.4 12.4-.8l2.8-.8-5-5.3c-2.8-3-7.6-9.2-10.6-14-5.3-8.2-6-8.8-13.4-12.5-8.3-4.2-27.1-11.1-30.2-11.1-1.7 0-1.6.4.5 7.2m87.5 51.4c0 2 3 10.4 4.9 14l2 3.9.1-8.8c0-6.3-.3-8.7-1.2-8.7-.7 0-2.3-.3-3.5-.6-1.3-.4-2.3-.2-2.3.2M388.5 368.5c.3 2.2.5 6.6.5 9.7 0 4.5.3 5.8 1.5 5.8 1.9 0 1.9-1.8-.5-11.5-1.1-4.4-1.8-6.2-1.5-4"/></svg>