<svg xmlns="http://www.w3.org/2000/svg" width="682.667" height="512" version="1.0" viewBox="0 0 512 384"><path d="M0 192v192l112.8-.2 112.7-.3.7-6c.8-7.9 4.3-25.6 6.8-35.3 1.1-4.2 2.3-10 2.6-12.7.6-4.8.5-5.1-2.4-6.8-1.7-.9-3.5-1.7-4-1.7s-4.8 4.8-9.5 10.7c-18.6 23.4-24.1 27.1-30.8 20.4-3.5-3.6-3.6-5.8-.5-11.9 4-7.8 18.6-26 23.7-29.6 2.2-1.5 2.1-1.6-5-9.3-9.4-10.2-15.3-19-14.5-21.5.3-1.1 1.6-3.5 2.9-5.3 1.2-1.8 2.5-5.5 2.8-8.2.4-2.6.8-5.5.9-6.4.3-1.4-5.4-6.7-35.1-32.3-19.3-16.6-34.4-30.1-35.4-31.7-1.4-2.3 7.6-13.4 10.9-13.4 1.2-.1 4.3-2 6.9-4.4 3.3-3 5-4 5.7-3.3.8.8 2.5 0 5.7-2.4 2.6-2.1 5.3-3.3 6.3-3.1 1 .3 4.3-.8 7.3-2.5 3-1.6 6-2.6 6.5-2.3.6.4 3.4-.3 6.1-1.5 2.8-1.1 5.8-2 6.7-1.9.9.2 4.1-.3 7-1s8.1-1.4 11.5-1.5c11.6-.4 16.2-.8 14.4-1.3-1-.3-2.1-2.1-2.8-4.9-.7-2.7-2.6-6.1-4.5-8.1-3.8-4.1-4-4.3-2-4.3 2.3 0 2.8-1.5 3.1-9 .2-4.9.9-7.9 2.4-10.6 1.3-2.1 1.7-3.3.9-2.7-.7.5-3.9 3.1-7.1 5.6-3.2 2.6-6.6 4.7-7.7 4.7-3 0-5-3.9-5-9.6 0-11 11.2-19.7 32.4-25l6.4-1.6 3.5-7.1 3.6-7.2-1.2-7.3c-1.3-8.1-.8-7.9-10.7-5.7-9.5 2.1-12.9 1.9-18.2-1.3-11.7-6.8-20.5-17.6-25.8-31.5-4.5-11.6-10-17.8-10-11.3 0 1.3-.7 2.9-1.5 3.6-2.4 2-4.5.4-4.5-3.2 0-1.8-.9-6.2-2-9.6-1.1-3.5-2-7.5-2-8.8V0H0zM509.2 3.7c1.2 2.1 2.3 4 2.5 4.2s.3-1.4.3-3.7c0-3.8-.2-4.2-2.5-4.2h-2.4z"/><path d="M191.3 12.2c.5 2.9 1.6 6.1 2.4 7 2.7 3.1 10 5.8 15.5 5.8 9 0 8.9-1.2-.3-7.2C199.9 12 191.7 7 190.8 7c-.3 0-.1 2.4.5 5.2m29.9 18.5c-3.2 2.2-14.5 2.8-20.3 1l-4.7-1.4 1.5 3.5c5.8 13.9 20 27.2 29.1 27.2 3.9 0 13.4-2 14.5-3 1.6-1.4-7.1-17.4-12.5-23.3-5.1-5.5-5.4-5.6-7.6-4m28 37.6c1.3 5.7 2 6.2 5.1 2.9l2.7-2.8-4.4-2.1-4.4-2.2zm261 5.9c-.7 2.9-2.1 8.7-3.2 12.8l-2 7.4 3.5 3.6 3.5 3.5V85.2c0-8.9-.2-16.2-.4-16.2s-.8 2.4-1.4 5.2M228.3 100c-15 5.3-19 7.6-22.8 13.4-1.3 1.9-1.3 2.8-.4 5 .7 1.4 1.8 2.6 2.5 2.6s4.6-2.5 8.6-5.5 10.3-7.1 14-9c6.3-3.3 8.8-5.8 8.8-8.4 0-1.6-1.6-1.3-10.7 1.9m2.8 10.5c-6.5 4-8.2 5.6-5.3 4.9 1.1-.3 3-.1 4.1.6 3.2 1.6 8.1-2 8.1-6.1 0-1.6-.3-2.9-.7-2.8-.5 0-3.2 1.6-6.2 3.4m127 37.3c-1.3 1.7-2 3.5-1.6 4.7.3 1.1 1.7 6.9 3.1 13 1.4 6 3 11.3 3.6 11.6 2.3 1.4 36.8 3.4 36.8 2.2 0-1.7-19.1-19.6-27-25.4-12.9-9.4-12.4-9.2-14.9-6.1m5.2 37.3c.3 1.9 1.3 8.8 2.2 15.4s2.8 16.9 4.2 23c4.6 20 10.2 45.6 12.9 60 1.9 9.5 8 26.9 17.6 49.5 3.8 9.1 8.8 20.8 11 26s5 13 6.1 17.2l2.2 7.8H512V282l-4.5-6.5c-4.6-6.7-6.8-12.9-8.5-22.9-.5-3.1-1.1-6-1.4-6.5-.3-.4-3.2-1.6-6.5-2.5-4.9-1.4-7.3-1.5-14.7-.6-25 2.8-36.2 0-48.7-12.4-9.9-9.9-13.7-17.7-15.8-32.3-.7-4.3-1.7-8.4-2.3-9.2-2.4-3-8.2-4.3-23.5-5.2-8.6-.5-17.3-1.1-19.5-1.5l-3.9-.6z"/><path d="M414.6 193.9c-.9 1.5 4.2 17.9 7.2 23 6 10.4 16.6 18.4 28 21.1 5.5 1.3 31.4.6 35.5-.9 1.7-.6.5-2.1-7.9-9.9-5.5-5-12.8-11.2-16.4-13.8-9.1-6.4-23.7-13.6-35.3-17.3-11-3.5-10.4-3.4-11.1-2.2m88.4 55.8c.1 5.2 6.7 22.3 8.6 22.3.2 0 .4-4.6.4-10.3v-10.3l-3.3-1.2c-3.8-1.4-5.7-1.5-5.7-.5M398.1 356.5c-.1.5.8 5.2 1.8 10.5 1.1 5.2 2.3 11.2 2.6 13.3.5 3.2 1 3.7 3.2 3.7 1.9 0 2.4-.4 2-1.8-1.5-4.9-9.6-26.6-9.6-25.7m10 11c-.1 1.5 3.7 15.6 4.3 16.3 2 1.9 1.5-1.9-1.2-9-1.7-4.6-3.1-7.9-3.1-7.3"/></svg>