<svg xmlns="http://www.w3.org/2000/svg" width="682.667" height="512" version="1.0" viewBox="0 0 512 384"><path d="M0 192v192l112.8-.2 112.7-.3.7-6.5c.8-6.5 4-22.9 7.8-39 2.7-11.6 2.6-15-.5-18.6l-2.6-2.9-2.2 3c-1.2 1.6-5.7 7.3-10.1 12.5-18.4 22.3-23.3 25.4-29.7 19.1-3.4-3.5-3.6-6-.9-11.5 4.9-10.1 22.3-30.1 27.1-31.1 5-1.1 3.4-3.8-8.1-13.5-11.6-9.8-13.1-11.4-19.1-19.4-6.2-8.3-7.1-11.2-4.1-14 1.7-1.5 6.1-17.2 5.1-17.9-4-3-65.9-55-67.2-56.5-2.1-2.3-2.1-2.5 3.7-10 3.1-3.9 4.6-5.2 6-4.8s3.3-.8 6.3-3.9c2.3-2.5 4.9-4.2 5.6-3.9.7.2 3.3-1.1 5.7-3s4.9-3.2 5.6-2.9c.7.2 3.2-.7 5.7-2.1 2.4-1.4 5.4-2.6 6.6-2.6s3.9-.9 6.1-2 5-2 6.3-2c1.4 0 4.2-.6 6.4-1.4s8-1.7 12.9-2c4.9-.4 11.2-.9 13.9-1.3 4.4-.5 4.7-.7 2.8-1.6-2.8-1.2-2.9-2.3-.4-3.6 2.5-1.4 3.3-3.8 1.9-6.1-1.1-1.8.1-8 2.8-14.5.6-1.5-.3-1.1-3.5 1.5-4.9 4.1-9.3 7-10.3 7-.5 0-1.7-.9-2.8-2-2.2-2.2-2.7-8.9-1-13.4 2.7-7.3 14.4-14.7 29.6-18.7 8.1-2.1 8.3-2.3 9.9-6.2.9-2.2 2.9-5.9 4.6-8.1 2.7-3.9 2.9-4.6 2.3-10.4-.4-3.5-1.2-6.2-1.8-6.2-.6.1-4 .7-7.6 1.5-13.2 2.9-17.8 1.7-27.2-7.2-7.4-7.1-13.5-16.3-17.4-26.3-2.5-6.7-7.8-14.9-9.6-15-.3 0-1.6 1.6-2.7 3.6-2.8 4.7-5.6 4.3-5.7-.8-.1-2-.7-7.1-1.5-11.2L173.6 0H0zM509 .4c0 .2.7.9 1.5 1.6 1.2 1 1.5 1 1.5-.4 0-.9-.7-1.6-1.5-1.6s-1.5.2-1.5.4M194.5 9.1c1.5 7.7 2.5 9.5 6.1 11.2C204 22 218 22.8 218 21.4c0-1-2.5-2.8-12.4-9-11.9-7.5-12-7.5-11.1-3.3"/><path d="M220.5 29.2c-4.9 1.8-12.6 1.9-18.4.2-2.1-.6-2.3-.5-1.6 1.7 1.4 4.4 8.3 15.3 12.7 20.1 6.6 7.1 11.2 9.8 16.9 9.8 5.8 0 14.9-1.8 14.9-3 0-.5-1.2-3.7-2.7-7.2-3.3-7.7-8.9-16.2-13.4-20.4l-3.4-3zm31.7 38.7c1 3.9 1.1 4 3.4 2.4 3.1-2 3-2.7-.3-4.4-1.6-.7-3.1-1.5-3.5-1.7-.3-.2-.2 1.5.4 3.7m257.3 21.7c-1.8 6.5-1.8 6.6.4 8.7l2.1 2.1v-8.7c0-4.8-.2-8.7-.4-8.7-.1 0-1.1 3-2.1 6.6M227.9 99.9c-13.4 4.5-18.6 7.6-22.4 13.5-1.3 1.9-1.3 2.8-.4 5 .7 1.4 1.7 2.6 2.3 2.6s4.4-2.5 8.4-5.5c3.9-3 10.2-7.1 14-9.1 6.9-3.8 9.2-5.8 9.2-8.1 0-1.8-1.3-1.6-11.1 1.6m1.9 11.2c-3.8 2.2-6.8 4.1-6.8 4.3s1.1.1 2.4-.1c1.3-.3 3.3 0 4.5.6 3.4 1.8 8.1-2.5 8.1-7.4 0-2.2-.8-1.9-8.2 2.6m129.4 38.7-2.8 3.7 2.5 11.2c1.5 6.2 3.1 11.6 3.6 12.1 1.8 1.7 10.1 3.1 24.3 4.3 7.8.6 14.7.9 15.3.7 1.7-.6-24-25-32.3-30.6l-7.7-5.2zm3.4 32.9c-.2.3 0 1.9.4 3.6.5 1.8 1.6 9 2.5 16.2.9 7.1 3.2 19.3 5 27 3.2 13.4 4.2 17.9 10 45 1.4 6.6 3 13.9 3.5 16.2 1.7 7.1 9.3 26.8 20.9 54 6.1 14.4 11.9 29.1 12.8 32.7l1.8 6.6H512V282.8l-2.5-3c-4.9-5.8-7.9-14-10-27-.9-5.9-2.2-6.2-27.6-6.8l-22.5-.5-7.6-3.7c-5.6-2.8-9.2-5.6-14.2-10.8-9.6-10.2-13.3-18.7-15.1-34.3-.7-5.8-.8-5.9-5-7.8-3.1-1.4-8.6-2.3-18.2-3-7.6-.5-16.6-1.6-20.1-2.3-3.4-.7-6.4-1.1-6.6-.9"/><path d="M417.1 202.6c2.5 11.1 5.8 17.4 13.1 25 8.2 8.6 17.1 12.6 29 13.2 4.8.3 13.5.1 19.4-.3l10.6-.7-7.3-7.5c-15.5-15.8-35.9-28.5-56.7-35.3-5.2-1.6-9.5-3-9.7-3-.1 0 .6 3.9 1.6 8.6m-169.2 32c-.7.9-3.3 3-5.8 4.7s-6.1 4.5-8 6.3l-3.4 3.3 1.7 4.5c1 2.5 2.1 4.6 2.5 4.6 1.2 0 12.5-12.1 15.4-16.5 3.8-5.7 1.7-11.8-2.4-6.9m257.9 16.2c-1 .2-1.8.7-1.8 1 .1 3 3.5 14.2 5.4 18l2.5 4.7.1-11.1c0-10.6-.1-11.1-2.2-12-1.3-.6-3.1-.8-4-.6M399.4 360.5c.4 1.1 1.6 6 2.7 11 2.7 12.3 2.8 12.5 5 12.5 1 0 1.9-.2 1.9-.5 0-.9-9.2-24-9.8-24.5-.3-.3-.2.4.2 1.5m8 6c.5 1.1 1.7 5.1 2.8 9 1.9 6.8 3.2 9.4 4.3 8.4.5-.6-6.1-17.8-7.2-18.8-.3-.3-.3.3.1 1.4"/></svg>