<svg xmlns="http://www.w3.org/2000/svg" width="682.667" height="512" version="1.0" viewBox="0 0 512 384"><path d="M0 192v192h226v-3.3c0-4.1 4.4-27 6.9-36.5 2.5-8.8 4.4-22.3 3.5-24.5-.5-1.5-7.3-6.2-7.9-5.5-.1.2-4.3 5.7-9.3 12.3-17.2 22.9-24.3 29.1-29.9 26.3-1.4-.7-3.5-2.5-4.5-3.9-1.7-2.2-1.8-3.1-.9-6.6 1.2-4.4 7.5-14.2 15.3-23.8l4.8-6-4.7-1.6c-2.6-.8-6.6-3.2-8.9-5.2-4.7-4.1-6.2-7.4-15.4-33.7-3.1-9.1-8-22.3-10.9-29.4-2.8-7.1-5.1-13.6-5.1-14.6 0-.9-1.4-2.9-3.1-4.6-1.7-1.6-4-4.4-5.1-6.2-2.3-3.8-2.1-7.5 1.2-17.3 3-8.8 2.9-9.1-4.7-13-19.7-10-38.3-20.1-38.3-20.8 0-3.5 2.6-13 4-14.6 1-1.1 2.1-3.4 2.4-5.1.4-1.8 1.6-4 2.6-4.9s2.2-3 2.5-4.5 1.5-3.6 2.7-4.6c1.1-1.1 2.7-3.2 3.5-4.9.9-1.6 2.2-3.4 2.9-3.8.8-.4 2.1-2.1 2.9-3.7 1.9-3.6 12.4-14.1 19-19 11.4-8.4 21.9-13.3 33.5-15.7 10.7-2.1 20-2.4 22.8-.6 1.9 1.1 2.6 1.2 3.8.2s2.2-.6 5.2 1.8c3.6 3 4.2 5 2.8 8.4-.6 1.4 0 1.4 5.1-.2 3.2-1 7.7-2.3 10.1-2.9 3.6-.9 4.5-1.7 6.7-5.9l2.4-4.8-2.7-10.9c-1.4-6-3.1-11.2-3.7-11.6-1.5-1.1-5.9-1-10.8.4-4.1 1.1-4.8.9-12.3-2.7-10.3-4.9-22.3-16.7-27.2-26.7-2.5-5.3-4-7.1-6.8-8.4-3.8-1.8-5.4-4.7-5.4-9.4 0-1.8-1.3-4.8-3.2-7.4L168.5.1H84.3L0 0zM504.5 1.7c1.6 3.7 3.5 15.2 4.1 24.9.8 12.1-.3 20.4-5.6 42.5-2.2 9-4 17.1-4 17.9.1.8 3 4.6 6.5 8.4l6.5 6.8V0h-4.1c-3.5 0-4 .2-3.4 1.7m-317.4 8.9c4.8 7 17.9 14.1 24.1 13.2 1.9-.3.7-1.4-6.2-5.9-9.1-6-19.2-11.9-20.4-11.9-.4 0 .7 2.1 2.5 4.6"/><path d="M190 23.8c0 .4 1.4 3.2 3.2 6.2 7.3 12.8 25.2 25.9 33.6 24.5 5.9-1.1 7.2-1.6 7.2-2.9 0-2.2-7.3-14.6-10.5-17.9-2.8-2.9-3.4-3.1-11.1-3.1-7.3-.1-8.9-.5-15.3-3.8-3.9-2-7.1-3.3-7.1-3m53.4 39.9c.2 1 1.2 4.4 2.1 7.6l1.6 5.8 2.7-2c5.8-4.4 7.7-6 7.2-6.4-.8-.7-12.9-6.7-13.5-6.7-.4 0-.4.8-.1 1.7m-16 35.2c-11.2 4-12.1 4.6-14.8 10.1-1.3 2.8-2.2 5-1.9 5s1.9-1 3.6-2.3c1.7-1.2 7.6-4.5 13.2-7.3 5.7-2.9 10.1-5.8 10.3-6.7.4-2.2-.8-2.1-10.4 1.2m5.1 7c-1.6 1-5.2 3-7.9 4.6l-4.9 2.8 4.2 1.4c4.1 1.4 4.5 1.3 8.1-1.1 2.9-1.9 3.9-3.2 4.2-6 .5-4.1.3-4.2-3.7-1.7m-21.7 13.9c-5.6 4.5-6.3 5.7-18.3 30-6.9 13.9-12.5 25.8-12.5 26.4s.7 1.9 1.6 2.9c1.5 1.7 5.4 14.5 5.4 17.9 0 .9.9 2.5 2 3.5 2.9 2.6 2.5 5-1.6 9.4l-3.5 4 8.4 17.8c16 33.9 19.8 40.2 23 37.8.7-.6 4.3-3 8-5.4 6.4-4.3 7.9-6.2 5.7-7.6-.5-.3-1-1.5-1-2.6 0-1.8-.6-2-4.6-1.7-6.9.5-7.6-1.4-3.1-8.8 2-3.2 4.4-8.2 5.3-10.9 1.7-5.1 5.8-10.5 8-10.5.7 0 4.6 4 8.6 9l7.3 9 .3-4.8c.4-5-3.4-56.3-4.6-62.2-.6-3.2-1.5-3.9-10.7-8.7-5.5-2.8-11.1-5.3-12.4-5.5-2.5-.3-2.7-.5-6.2-8.1-1.3-3-3.1-5.2-4.5-5.7-2.6-1-3.3-3-1.1-3 .8 0 1.9-1.2 2.6-2.6 1-2.2.9-3-.5-4.5-1.6-1.8-1.6-2.3 0-8.6.9-3.7 2.6-7.7 3.8-9 3.6-3.9.6-2.5-5.4 2.5M353 142.7c-1.5 1.9-2 3.6-1.6 5.3.4 1.4 1.9 7.4 3.4 13.5l2.8 11 4.1.8c3.1.6 6.5.3 12.8-1.3 4.8-1.1 9.9-2 11.3-2 6.1-.1 5.6-1.5-3.5-9.8-7.8-7.3-19.3-16-25.1-19.1-1.7-.9-2.4-.7-4.2 1.6m25 33.4c-5.2 1.3-9.5 1.8-13.8 1.4-4.8-.3-6.3-.1-5.9.8.8 2.1 3.6 19.6 5.7 36.2 1.2 8.8 3 19.6 4 24s4.4 20.6 7.5 36c5.7 28.6 10.1 43.7 19.8 68.5 2.5 6.3 6.9 18.1 9.8 26.3l5.2 14.7H512V273.7l-3.4-3.7c-5.5-6.1-9-12.9-11.2-22-2.1-8.3-2.2-8.6-6.5-10.8-4.1-2.2-5.2-2.3-14.9-1.8-5.8.4-12.3 1.1-14.5 1.6-10.2 2.4-25.2-3.6-36.1-14.5-8.4-8.5-13.4-17.7-15.9-29.4-1.7-7.7-2.1-8.3-7.6-13.6-5.6-5.3-5.9-5.5-11.1-5.4-2.9.1-8.7 1-12.8 2"/><path d="M412 188.7c0 2.9 5.4 17.2 8 21.3 4.5 6.9 12.8 14.3 20.8 18.2 6 3 7.5 3.3 15.2 3.3 7.9-.1 19.7-1.1 22.8-2.1 2.2-.7-13.6-17.1-21.7-22.5-9.4-6.3-21-11.9-33-15.8-9.7-3.2-12.1-3.6-12.1-2.4m89.6 57c.8 5 5.8 15.4 8.4 17.8l2 1.8v-20.1l-4.7-1.6c-6.3-2.2-6.5-2.1-5.7 2.1"/></svg>