<svg xmlns="http://www.w3.org/2000/svg" width="682.667" height="512" version="1.0" viewBox="0 0 512 384"><path d="M0 192v192h226v-2.8c0-3.7 4.7-28.6 6.4-34.2 2.8-8.8 4.8-22.5 3.9-26-.3-1.2-2.4-3-4.6-4.2l-4.1-2-2 2.4c-1.2 1.4-5.7 7.4-10.1 13.4s-10.7 13.7-14 17.1c-5.5 5.7-6.5 6.3-10.2 6.3-3.4 0-4.6-.6-6.7-3.1-3.3-3.9-3.3-5.3.2-12.1 6.9-13.7 21.7-30.8 26.7-30.8 3 0 3.2-1.1.5-3.5-1.1-1-2-1.3-2-.7 0 .7-.5 1.2-1.1 1.2-.5 0-.7-.5-.4-1 .3-.6 0-1-.8-1s-2-.7-2.7-1.5c-.8-1-3-1.5-6.4-1.5-6.5 0-14.5-3.6-17.9-8.1-2.8-3.8-7.4-13.4-14.9-31.4-4.3-10.2-15.7-34.7-21.8-46.5-3.7-7.2-3.6-10 1-19.3 2.4-4.7 4-9.2 3.7-10s-7.5-5.8-16.1-11.2c-8.6-5.3-15.6-10.2-15.6-10.9 0-2.7 3.3-12.2 4.9-14.1.9-1.1 2.4-3.7 3.4-5.8.9-2 2.1-3.7 2.5-3.7.5 0 1.7-1.8 2.7-4s2.1-4 2.6-4c.4 0 1.7-1.5 2.8-3.4 1.2-1.9 3.4-4.8 4.9-6.6 4.2-4.9 18.6-19 19.4-19 .3 0 2.1-1.2 3.8-2.7 5.4-4.5 16.3-10 25.6-12.9 4.4-1.4 9-1.8 18.2-1.8l12.3.1 3.2 3.1c2.5 2.5 2.9 3.4 1.9 4.4-2.3 2.3-1.2 2.7 3.6 1.4 2.6-.8 5.9-1.7 7.4-2 2-.5 3.2-1.7 4.3-4.3 1.5-3.4 1.4-4.1-.4-8.8-1.1-2.7-2.8-8.2-3.7-12-1-3.9-2.5-7.5-3.3-8.2-1.9-1.5-8.7-1.7-9.6-.3-1.7 2.8-12.1-.6-21.4-7-7.2-4.9-15.6-14.2-19.9-22.3-2.1-4-4.4-6.8-6.4-7.8-3.6-1.9-5.7-5.2-5.8-9.4-.1-2-1.4-4.4-3.9-7.3L162.2 0H0zM500 .3c0 .1.9 4.9 2 10.7 3.4 17.8 2.5 29-4.6 59.2l-3.5 15.1 9 9.1 9.1 9.1V0h-6c-3.3 0-6 .1-6 .3M182 9.9c3 5.8 17.1 14.1 23.8 14.1 2.2 0 1.9-.5-2.9-3.8C197.4 16.4 182.8 8 181.6 8c-.4 0-.2.9.4 1.9"/><path d="M186.1 25.1c6.1 11.7 15.5 20.9 26.2 26 6.5 3 6.9 3 11.9 1.8 2.9-.7 5.5-1.4 5.7-1.6.6-.4-7.5-13.4-10.6-17.1-2.7-3.2-3.1-3.3-10.8-3.5-6.8-.2-9-.7-15-3.7-3.8-1.9-7.4-3.6-7.8-3.8-.5-.2-.3.6.4 1.9M239 62.4c0 1 4.3 14.3 5.2 15.9.9 1.7 1.1 1.7 3.1-.5 1.2-1.3 3.7-3.5 5.6-5l3.4-2.6-8.1-4.1c-8-4-9.2-4.5-9.2-3.7m-11 36.2c-8.5 2.9-9.7 3.7-13 9.6l-2.3 4.2 3.1-2.2c1.7-1.2 6.6-3.9 10.9-5.9 7.9-3.7 11.3-5.9 11.3-7.5 0-1.2-1.8-.9-10 1.8m-.5 9.6c-8.9 5-9.7 5.8-5.9 5.8 1.7 0 3.5.5 4.1 1.1 1.2 1.2 5.8-.8 8.7-3.6 1.6-1.6 2.3-7.6.9-7.4-.5.1-3.9 1.9-7.8 4.1"/><path d="M211.5 118.5c-5.8 4.6-9.5 8.8-13.3 15.5-1 1.9-6.4 10.7-11.9 19.5-5.4 8.8-10.2 16.5-10.6 17.1-.3.6.5 2.6 1.8 4.4 2.1 2.9 2.5 4.5 2.5 10.8 0 5.8.4 7.9 1.9 9.8 2.6 3.3 1.3 7.1-3.4 10.3-1.9 1.3-3.5 2.8-3.5 3.4s2.5 5.7 5.5 11.4c5.8 10.7 6.6 12.2 13 23.3 2.1 3.6 4.9 8.4 6.2 10.8l2.5 4.2 5.3-.4c5.1-.3 21.5-7 21.5-8.8 0-.4-.5-1.9-1-3.4-1-2.4-1.4-2.6-4.8-2-2 .3-4.7.9-5.9 1.2-1.8.5-2.3.1-2.9-2-.5-2 .2-3.7 2.8-7.3 1.9-2.7 4-6.8 4.7-9.2s2.9-6.1 5-8.3l3.7-4 5.4 6.3c2.9 3.5 6.7 8.5 8.4 11.1s3.6 4.6 4.1 4.4c1.2-.4 1.2-2.4-.8-25.6-.9-10.2-1.9-23-2.2-28.5-.4-5.4-1-10.6-1.5-11.5-1-1.9-15.9-9.9-21.4-11.5-3.4-1-4.1-1.8-5.7-6.1-1-2.7-3.3-6.1-5-7.6l-3.1-2.6 2.1-2.1c2.2-2.2 2.8-5.6 1.1-6.6-2.7-1.6.2-13.9 4.2-18.2 3.3-3.5 1.7-2.8-4.7 2.2m138.5 22c-1 1.2-.8 3.2 1.3 10.8 1.4 5 3.1 11.6 3.7 14.4l1.2 5.3h6.1c3.8 0 10-1.1 16-2.8l9.7-2.8-7.2-6.6c-10.6-9.5-25.5-19.8-28.6-19.8-.5 0-1.5.7-2.2 1.5m28 32.6c-3 1.1-8.9 2.3-13.1 2.7l-7.6.7 1.8 10.5c1 5.8 2.5 16.6 3.4 24.1s2.7 19 4.1 25.5c3.8 18.5 11.4 56.5 12 60.4.3 1.9 2.1 8.4 4.1 14.5 3.5 10.5 6.6 19.1 18.7 51.7 2.9 8 5.7 16 6.1 17.7l.7 3.1H512V271.8l-4.9-5.6c-5.8-6.7-9.4-13.5-11.6-21.8-1.7-6.7-2.1-7.1-9.3-10.9l-5.2-2.8-12.5 1.8c-14.6 2.1-21.3 1.7-29.2-2-16-7.3-27.4-21.6-32.1-40.4-1.7-6.4-2.5-7.9-7.8-13.2-5.6-5.7-6-5.9-10.9-5.9-2.7.1-7.5 1-10.5 2.1"/><path d="M411.6 192.2c4.2 11.5 7.2 16.8 13.3 22.8 7.2 7.2 12.9 10.5 22.2 12.9 7.3 1.8 7.6 1.8 17.3 0 5.5-1.1 10.1-2.1 10.3-2.3.2-.1-1.3-1.8-3.2-3.7-2-1.9-5.6-6.1-8.2-9.4-5-6.7-9.1-9.7-20.8-15.7-6.8-3.5-29.7-11.8-32.5-11.8-.5 0 .2 3.3 1.6 7.2m89.5 53.7c1.9 5.5 9.1 18.1 10.4 18.1.3 0 .5-4.9.5-10.9v-10.8l-4.2-.7c-2.4-.3-5.3-.9-6.5-1.2l-2.2-.6z"/></svg>