<svg xmlns="http://www.w3.org/2000/svg" width="682.667" height="512" version="1.0" viewBox="0 0 512 384"><path d="M0 192v192h226v-2.4c0-3.3 4.5-26.6 6.9-36.1 2.4-9.2 4-20.6 3.3-24-.2-1.5-1.8-2.9-4.5-4.1-2.3-1-4.5-1.9-4.9-2.1-.3-.2-2.6 2.4-4.9 5.9-7.4 11-18.8 25.5-23.4 29.7-5.4 5-10.1 5.6-14 1.6-5.1-5-2.3-13.2 10.3-30 7.1-9.4 10.3-12.5 14.5-13.6 2.9-.8 3.7-1.3 2.8-2.2-1.6-1.6-1.4-4.2.4-5.7.8-.7 1.5-2.1 1.5-3.2s.8-2.2 2-2.5c3.1-.8 7.5-11.1 5.5-13.1-.1-.2-4.3 1.7-9.2 4.2-5.9 3-9.7 4.3-11.1 3.9-1.2-.3-2.2-.9-2.2-1.3 0-1.1-4.8-3-7.5-3-4 0-13-3.8-15.8-6.8-1.4-1.5-7.3-11.5-13-22.2-11.3-21.2-16.5-30-23.6-39.9-4.1-5.9-4.6-7.1-4.9-13.2-.5-7.7 0-8.7 7.5-18 2.9-3.6 5.3-7.1 5.3-7.7s-3.7-4.7-8.2-9.1l-8.3-7.9 3-6.1c1.6-3.3 3.6-6.3 4.6-6.6.9-.3 2-1.6 2.3-2.9.6-2.4 5-7.8 11.9-14.5 2-2 3.7-4.2 3.7-4.9s1.1-1.7 2.3-2.3c1.3-.6 3.1-2.4 4.1-4 .9-1.6 2.2-2.9 2.8-2.9s2.6-1.5 4.4-3.3c4.8-4.6 6.9-6.4 9.6-7.8 1.2-.7 2.9-1.8 3.6-2.5 2.5-2.6 14.4-8.7 21.5-11.1 5.9-2 8.8-2.4 15.5-2.1 4.6.2 8.6.6 8.9 1.1.2.4.8.5 1.3.2s1.1-.1 1.5.4c.7 1.2 6.6-.6 8.1-2.6.9-1 .5-3-1.8-8.5-1.6-4-3.6-10.1-4.5-13.7-1.9-7.8-3.4-9.8-8-10.7-2.5-.5-3.9-.2-5.3 1.1-1.8 1.6-2.6 1.7-7.3.6-2.8-.6-7.7-2.5-10.7-4.3-7.3-4.2-18.7-15.7-23.6-24-2.3-3.7-5.6-7.8-7.5-9.1-2.1-1.4-3.9-3.7-4.6-6-.7-2.1-2.9-5.9-4.8-8.4s-3.5-5-3.5-5.4c0-.5-35.5-.9-79-.9H0zM496 .7c0 .5.9 5.4 2 11.1 1.1 5.6 2 12.5 2 15.1 0 6.1-3 24.3-7.1 42.5l-3.1 13.8 11.1 11.1 11.1 11V0h-8c-4.4 0-8 .3-8 .7M179.5 13.1c2.8 2.7 7.7 6.3 11 7.9 6.7 3.2 14.3 5 13.1 3.1C202.6 22.5 177.8 8 176 8c-.8 0 .8 2.2 3.5 5.1"/><path d="M183.2 28.3c5.8 10.5 24.4 25.2 31.7 24.9 4.8-.2 11.1-1.4 11.1-2.1 0-1.2-6.8-12-9.9-16l-2.9-3.6h-8.4c-7.5 0-9.1-.4-16.1-3.7l-7.8-3.7zm55.3 43.3c1.8 5.3 3.6 9.8 3.9 10.1.3.4 3.2-1.8 6.3-4.7 3.2-3 6-5.5 6.2-5.6.5-.4-17.6-9.4-18.8-9.4-.6 0 .5 4.3 2.4 9.6M231.8 99c-1.8 1.6-2.7 3-2 3 2.1 0 6.9-2.8 7.5-4.5 1-2.5-2-1.7-5.5 1.5m-4.2 8.8c-7.4 3.9-9.4 6.2-5.4 6.2 1.3 0 2.9.5 3.4 1 .7.7 2.6 0 5.7-2 3.9-2.5 4.7-3.5 4.7-6 0-1.6-.3-3-.7-3-.5 0-3.9 1.7-7.7 3.8m-22.8 22.9c-3.5 4.2-9.2 11.1-12.8 15.3-3.6 4.1-9.7 11.3-13.4 16-6.2 7.7-6.6 8.5-4.8 9.3 3.4 1.6 4.5 4.8 3.2 9.4-.9 3-.9 4.5-.1 6.1 1.8 3.3 1.4 5.5-.8 4.9-1.6-.4-1.8-.2-1 1.2 1.7 2.6-.6 6.7-5.1 9.6l-4.1 2.6 2 3.2c1.1 1.8 7.7 11.1 14.7 20.9l12.8 17.6 9.1-.4c11.6-.4 24-4 24-6.9 0-2.7-3.2-3-9.7-1.1-7.7 2.2-8.8.5-4.2-6.4 1.5-2.2 3.5-6.5 4.5-9.5 1.9-5.8 6.4-12.5 8.3-12.5 1.7 0 7.4 6.3 14 15.2 3.1 4.3 6 7.8 6.3 7.8s.3-3.7-.1-8.3c-.3-4.5-1.3-18.3-2.1-30.7-1-14.7-2-22.9-2.8-23.7-2.1-2-20.6-11.3-22.6-11.3-1.4 0-2.4-1.3-3.6-4.9-1.6-4.9-4.9-9.4-7.5-10.3-.9-.3-.5-1.2 1.3-3.1 3.1-3 3.3-4.4 1-6.9-1.4-1.5-1.5-2.6-.6-6.3.6-2.5.9-4.5.7-4.5s-3.2 3.5-6.6 7.7m142.6 7.6c-.2.7.9 5.8 2.5 11.2 1.6 5.5 3.3 11.8 3.7 14 .3 2.2 1.1 4.6 1.7 5.2 1.6 2.1 10.2 1.5 17.3-1.2 3.6-1.4 7.7-2.5 9-2.5 6 0 2.5-4.2-13.1-15.9-8.7-6.5-17.8-12.1-19.7-12.1-.5 0-1.1.6-1.4 1.3m27.2 33.2c-4.4 1.6-9.1 2.5-12.9 2.5-5.7 0-5.9.1-5.3 2.2.6 2.3 4.9 32.3 6.1 42.8.4 3 2.4 14.3 4.5 25 2.2 10.7 5.5 28 7.5 38.5 3.9 20.2 8.8 37 18.6 63 9 23.7 12.7 33.7 13.4 36.2l.6 2.3H512V269.7l-5.5-5.8c-5.3-5.5-12.5-18.3-12.5-22 0-3.4-1.4-5-6.4-7.6-2.8-1.4-6.4-3.5-8-4.6l-2.9-2.1-11.6 2.3c-10.4 2.1-12.2 2.2-17.6 1.1-9.7-2-18.1-6.7-26-14.5-8.1-8.1-12.5-15.7-15.5-27-2-7.3-2.7-8.6-8.3-14.3-5.9-6-6.3-6.2-11.2-6.2-2.7.1-8.1 1.2-11.9 2.5"/><path d="M410.2 191.2c5.6 15.1 13.4 24.5 25.3 30.6 8.4 4.2 16.7 5.1 28 3.2l7.5-1.3-5.3-5.6c-2.9-3.1-7.3-8.4-9.7-11.9-3.9-5.4-5.5-6.8-13.2-10.7-8-4.2-24.6-10.3-32.5-11.9l-3.1-.7zm88.3 48.9c1.6 5.5 6.5 14.7 9.8 18.4l3.6 4 .1-11.1v-11.1l-4.7-.6c-2.7-.4-5.9-1-7.2-1.3-2.1-.6-2.3-.4-1.6 1.7"/></svg>