<svg xmlns="http://www.w3.org/2000/svg" width="682.667" height="512" version="1.0" viewBox="0 0 512 384"><path d="M0 192v192h226.9l.6-4.8c1.4-10.2 3.8-22.2 6.6-33.1 2-7.8 2.9-13.7 2.9-19v-7.6l-4.9-2.2-4.9-2.1-3.8 5.6c-11.9 18.1-25.4 33.7-30.1 34.8-3.6.9-8.7-1.8-10.3-5.5-1.7-4.2.1-8.9 7.9-20.8 8.4-12.6 14.4-19.1 18.7-19.9 1.9-.3 3.4-.8 3.4-.9 0-.2-.4-1.5-1-2.9-.7-2-.6-2.8.9-3.8 1.1-.8 2.1-2.5 2.3-3.8.2-1.7 1-2.6 2.6-2.8 1.6-.3 2.2-1 2.2-2.8 0-1.3.8-2.9 1.8-3.5 1.2-.7 1.7-2 1.5-3.3-.3-1.2.7-4.8 2.1-8s2.6-6.1 2.6-6.4c0-.8-11 .6-12.3 1.6-.7.4-3.2 1.5-5.7 2.2s-5.6 1.9-7 2.6c-2.2 1-3.1.9-6.5-1.2-4.9-2.9-4.7-2.9-11.5-4.4-9.7-2.3-11.6-4.1-26.2-26.2-7.5-11.1-17.1-24.8-21.5-30.3s-8.3-11-8.7-12.3c-1.5-4.7 2.2-12.2 9.8-19.7 3.9-3.9 8.6-8.2 10.4-9.6l3.3-2.6-1.7-3.7c-1.8-3.6-1.8-3.7.6-8.2 1.4-2.6 3.9-5.8 5.6-7.3 1.7-1.4 3.9-3.8 4.9-5.4.9-1.5 2.3-2.7 2.9-2.7s2-1.5 3-3.4c1-1.8 2.8-3.8 4.1-4.4s2.6-2 3-3.1c.3-1.2 1.1-2.1 1.6-2.1.6 0 2.8-1.7 4.9-3.8 6.3-6 9.3-8.6 12-10.3 1.4-.9 6.3-5.1 10.8-9.2 7.9-7.3 16.7-12.5 23.7-14.1 1.7-.4 5.3-1.3 8.2-2.2l5.2-1.4-3.3-7.3c-1.8-3.9-4.1-10.6-5.1-14.7-2.1-8.7-4.8-12-9.9-12-1.9 0-4 .7-4.7 1.6-3.2 3.9-18.5-1.8-28.1-10.4-5.3-4.8-12.5-14.4-15.4-20.5-1.1-2.2-2.7-4-4.1-4.3-2.6-.7-7.3-5.8-7.3-8.1 0-.8-2.1-4.4-4.7-7.9L153.5 0H0zM495 .9c0 .6.7 4 1.6 7.8 3.1 13.1.6 37.5-7.1 69.9-.4 1.6 1.9 4.3 11 12.8l11.5 10.8V0h-8.5c-4.7 0-8.5.4-8.5.9m-322.3 9.2c2.5 4.4 11 10.6 17.7 12.9 5.6 2 11.6 2.6 11.6 1.2S174.5 7 172.1 7c-.8 0-.6 1.1.6 3.1"/><path d="M181.6 30c4.1 7.5 13 16 21.4 20.3 7.9 4.1 10.4 4.4 14.6 2.2 1.6-.8 3.7-1.5 4.7-1.5.9 0 1.7-.6 1.7-1.3 0-1.4-6.2-11-10.1-15.4-2.5-3-2.7-3-10-2.5-8 .5-15.5-1.2-21.6-4.8l-3.4-2zM234 61.8c0 1.5 4.9 16 6.5 19.4l1.7 3.5 6.4-6.6c3.5-3.6 6.4-6.6 6.4-6.8 0-.4-12.7-6.7-17.2-8.6-2.1-.9-3.8-1.3-3.8-.9m-3.2 46c-4 3.8-5 5.4-4.2 6.2.9.9 2.2.6 5.2-1.1 3.1-1.8 4.2-3.2 4.7-5.7.3-1.9.4-3.6.1-3.9s-2.9 1.7-5.8 4.5m-40.3 41.8-18.8 19.6 3.1 1.8c1.6 1 3.7 2.9 4.6 4.1 1.5 2.2 1.5 2.4-1 4.4s-2.5 2.1-1 5.7c1.7 4 2.1 8.8.8 8.8-.4 0-2.3-1.6-4.2-3.5s-3.7-3.5-4-3.5-.4 1.5-.2 3.4c.2 2.1-.4 4.9-1.8 7.5-1.8 3.5-2.4 4.1-4.3 3.5-2.7-.8-.9 1.3 16.8 20.1l12.2 13 10.9 1.2c9.5 1 11.9.9 18.3-.5 9.7-2.3 11.2-4.8 2.2-3.9-3.4.4-7.1 1.2-8.2 1.8-3.5 1.8-3.5.1-.2-6.4 1.8-3.4 4.3-8.7 5.7-11.7 1.4-3.1 3.8-6.8 5.4-8.3l2.8-2.7 4.1 4.3c2.3 2.3 6.5 7.6 9.3 11.7l5.2 7.5-.5-7c-.4-3.9-1.1-15.8-1.8-26.5-.6-10.7-1.4-20.6-1.8-21.9-.5-1.7-3.3-3.7-10.1-7.2-5.2-2.7-10.8-5.3-12.4-5.7-2.4-.6-3.3-1.7-4.4-5.2-1.8-5.5-4.9-10-6.8-10s-1.8-.6.6-3c1.1-1.1 2-2.8 2-3.8 0-2.1-2.2-7.2-3.1-7.2-.4 0-9.1 8.8-19.4 19.6m157.1-13.8c-.2.4 1.1 6.1 3 12.7s3.9 13.9 4.4 16.2c1 4.1 1.2 4.3 5 4.3 2.1 0 7.4-1.1 11.7-2.4s9.3-2.7 11.2-3.2l3.3-.9-8.2-7c-11.6-9.9-29.3-21.4-30.4-19.7m27.9 34.2c-4.9 1.6-11.2 2.9-13.8 2.9-4.7.1-4.8.2-4.3 2.8.2 1.6 1.4 9.3 2.5 17.3 5.4 39.5 6.4 45.9 7.6 51 .7 3 3.4 16.7 5.9 30.5 5.5 29.6 8.7 40.7 21.1 74 5.1 13.7 10.1 27.4 11.1 30.2l1.9 5.3H512V267.8l-5.2-5.7c-5.2-5.7-11.3-16.9-12.4-22.9-.6-3-1.4-3.7-6-5.8-3-1.3-7.3-3.5-9.5-5l-4.2-2.6-9.1 2.1c-10.9 2.5-14.5 2.6-21.7.5-8.7-2.6-14.4-6-21.8-12.9-7.8-7.4-12.6-15.6-16.1-27.5-2-6.7-3-8.3-8.8-14.3-7.8-7.9-8.3-8-21.7-3.7"/><path d="M408 182.1c0 1.4 4.6 13.2 7 17.9 7.3 14.3 26.4 25.9 40.5 24.7 3.3-.3 7.7-1.1 9.7-1.7l3.8-1.1-6.3-7.2c-3.4-4-7.8-9.6-9.7-12.6-2.8-4.3-4.7-5.9-10-8.6-10.9-5.4-35-13.3-35-11.4m92.4 58.6c2.1 6 5.1 11.4 8.5 15.3l3 3.5.1-10.8V238h-3.4c-1.8 0-4.8-.3-6.5-.6l-3.1-.6z"/></svg>