<svg xmlns="http://www.w3.org/2000/svg" width="682.667" height="512" version="1.0" viewBox="0 0 512 384"><path d="M0 192v192h230.9l.6-3.8c2.2-13 5.7-30.7 6.6-33 2.3-6 3.9-19.2 3.1-26-.2-1.6-9.3-5.6-10.2-4.5-.4.4-2.6 3.7-5 7.3-7.6 11.5-20.4 27.2-24.5 30.2-3.1 2.3-4.7 2.8-7 2.4-4.2-.9-8.5-5.3-8.5-8.8 0-3.8 4.5-12.5 11.5-22.3 7.7-10.8 11.3-14.4 15.6-15.5 3.6-1 3.7-1.1 2.6-4-.9-2.5-.8-3.2.5-4.2.9-.7 1.8-2.2 2-3.3s1.3-2.4 2.6-3c1.2-.5 2.2-1.7 2.2-2.6s.9-2.4 2.1-3.5c1.1-1 1.8-2.6 1.6-3.5-.3-.9 1-4.8 2.8-8.5 3.1-6.5 3.2-7 1.8-9.5-1.4-2.4-2.1-2.6-5.7-2.2-3.7.5-20.8 4.7-24.6 6.1-1.3.5-1.3.3-.1-1.1 1.4-1.8 1.1-2-3-1.7-1.5 0-2.9-.5-3.2-1.3s-2.7-2-5.2-2.6c-10.9-2.7-13.7-5.3-30.1-27.1-6-8-15-19-20-24.5s-9.6-11-10.2-12.1c-1.2-2.3-.5-5.9 2.1-11.1 3-5.7 17-16.9 28.4-22.7 2.9-1.4 5.8-3.6 6.4-4.8 1.3-2.6 3.7-5.2 19.8-21.7 6.1-6.2 11.1-11.7 11.1-12.2s.7-.9 1.5-.9c2.3 0 5-4.9 4.6-8.5-.6-7.1 5.8-16 15.4-21.5 2.8-1.5 8.8-4 13.5-5.4 4.7-1.5 9-2.8 9.7-3.1.9-.3.4-2.3-1.7-6.7-1.6-3.5-3.9-10.4-5.1-15.3-1.2-5-2.7-9.6-3.2-10.2-1.9-2.5-7.4-2.6-11.4-.3-4.8 2.8-10.2 2.2-18.4-2.2-10.4-5.5-19.7-15.4-25.8-27.5-1.4-2.8-3-4.5-4.6-4.9-2.9-.7-7.5-5.8-7.5-8.3 0-1-.9-2.6-2.1-3.7-1.2-1-3.2-3.8-4.6-6.1L154.8 0H0zM502.4 4.2c2.6 18.7 1.6 31.2-4.4 59.3l-3 13.9 3 2.8c1.7 1.5 5.5 5 8.5 7.9l5.5 5.2V0h-10.2zM174.5 8.7c1.6 6.8 13.6 14.4 23.7 15.1 3.4.3 5.8 0 5.8-.5C204 21.8 177.1 6 174.6 6c-.5 0-.5 1.2-.1 2.7"/><path d="M184.1 31c3.9 7.2 13.8 16.6 21 20 3.5 1.6 7.2 3 8.3 3 3.6 0 13.6-4.4 13.1-5.8-.9-2.3-7.3-11.6-10.7-15.5l-3.3-3.7-4 1.4c-6.6 2.5-14 1.6-24.9-2.9-1.7-.8-1.7-.4.5 3.5m53.3 30.8c.3.9 1.2 4.4 2.2 7.7.9 3.3 2.8 8.2 4.2 11 2.3 4.6 2.6 4.8 3.6 3 .6-1.1 3.5-4.4 6.4-7.3 2.8-2.9 5.2-5.4 5.2-5.6s-.6-.6-1.2-.9c-.7-.3-5.7-2.6-11.1-5.1-7.7-3.6-9.7-4.2-9.3-2.8m-11.8 37.9c-7.5 2.9-16.6 10.4-16.6 13.7 0 1.6.2 1.7 2 .5 1-.8 5.6-4 10.2-7.1 15.3-10.6 15.8-11.4 4.4-7.1m11.9 3.5c-2.5 1.4-8.5 7-8.5 7.9 0 1.7 4.1 1.9 6.9.4 3.3-1.7 5.1-4.3 5.1-7.4 0-2.4-.6-2.5-3.5-.9m-28.3 28.5c-2.8 3.2-9.2 10.1-14.2 15.3-8.2 8.6-17 20-17 22 0 .5.9 1.1 2 1.5 2.3.7 6 5.1 6 7.1 0 .8-1 1.4-2.4 1.4-2.9 0-4.2 1.6-2.8 3.3 1.5 1.9 3.4 8.7 2.9 10.2-.9 2.1-4 .7-6.6-3.1-1.3-1.9-2.7-3.4-3.1-3.4-.3 0-1.2 2.8-1.8 6.1-.6 3.4-1.9 7-2.8 8-1.6 1.7-1.4 2.1 3.7 7 3 2.8 9.3 8.9 14 13.5l8.5 8.5 9.9 1c5.4.6 10.5 1.3 11.2 1.7s4.9.1 9.3-.7c6.5-1.2 8-1.8 8-3.3 0-1.4-.8-1.8-3.7-1.8-2.1 0-5.5.5-7.6 1.1s-4.2.9-4.6.7c-.5-.2 1.7-4.8 4.9-10.3 5.7-9.8 11.8-16.5 14.9-16.5 1.5 0 6.2 5.8 10.3 12.9 1 1.8 2.1 3.2 2.3 3 .4-.5-2.3-42.4-3-45.4-.4-2.1-17.3-11.6-22.7-12.9-2-.4-2.9-1.4-3.3-3.4-.9-4.3-4.8-11.2-6.7-11.8-2.2-.6-2.3-2-.4-2.7 2.3-.9 3.1-6.8 1.2-8.3-1.2-.8-1.5-2-1-3.8.3-1.4.4-2.6.2-2.6-.3 0-2.8 2.6-5.6 5.7m143.8 4.4c0 .6 1.3 5.7 2.9 11.3 1.6 5.5 3.3 12.1 3.8 14.5 1.2 6.6 2.3 6.8 15.4 3.8 6.3-1.5 12.2-2.7 13.2-2.7.9 0 1.7-.4 1.7-.9 0-2-19.8-17.6-29.8-23.4-7-4.1-7.2-4.2-7.2-2.6m25.5 33.4c-4.4 1.3-10 2.4-12.4 2.4-4.3.1-4.3.1-3.7 3.2.7 3.7 3.2 21 4.1 28.9 1.4 11.9 4.6 33.3 5.6 37.8 1 4.6 7.8 40.6 10.4 55.4 1.6 9.5 8.7 31 20.4 62.3l8.9 24 50.1.3 50.1.2V262l-3.7-4.7c-4.1-5.4-7.8-13.3-8.8-18.7-.7-3.3-1.4-4-6.9-6.7-3.3-1.7-7.4-3.9-9.1-4.9-2.5-1.5-3.9-1.7-9-.9-3.3.5-7.6 1.3-9.5 1.9-16.2 4.7-40.7-8.8-50.2-27.6-1.9-3.8-4.3-10.3-5.4-14.3-1.6-6.6-2.5-8.1-7.6-13.3-5.4-5.5-5.9-5.8-10.5-5.7-2.6 0-8.4 1.1-12.8 2.4"/><path d="M413 180.9c0 2 5.3 15.9 7.5 19.6 8.2 14 26.5 24.7 39.8 23.2 7.9-.9 13-2.1 12.9-3 0-.5-1.8-2.8-3.9-5.1-4.9-5.4-9.3-11-12.6-16.2-2.6-4.2-8-7.5-20.3-12.3-7.2-2.8-23.4-7.1-23.4-6.2m93 56.7c0 1.1 1.3 4.6 2.9 7.9l2.9 6 .1-7.3c.1-5.6-.2-7.2-1.3-7.2-.8 0-2.1-.3-3-.6-1.1-.4-1.6 0-1.6 1.2"/></svg>