<svg xmlns="http://www.w3.org/2000/svg" width="682.667" height="512" version="1.0" viewBox="0 0 512 384"><path d="M0 192v192h118.9c112.4 0 119-.1 119.5-1.8.3-.9 1.2-6 2.1-11.2s3.1-15.7 5-23.2c2.3-9 3.5-16.1 3.5-20.6v-6.8l-4.9-2.1-4.9-2.1-6.3 9.2c-8.6 12.6-20.2 27-23.8 29.5-6.6 4.7-16.1.7-16.1-6.8 0-4.2 5.8-15 13.8-25.8 6.2-8.4 9.1-11.2 12.8-12.2 2.6-.7 2.9-1.2 2.6-4.3-.2-2.5.2-3.7 1.3-4.2.8-.3 1.5-1.5 1.5-2.6 0-1.2 1-2.5 2.5-3.2 1.4-.6 2.5-1.9 2.5-2.8s.9-2.5 2.1-3.6c1.4-1.3 1.8-2.5 1.4-4.2-.4-1.6 0-3 1-4.1.8-.9 2.8-4.1 4.3-7.3l2.8-5.6-2.8-.6c-1.5-.3-4.2-.9-5.9-1.2-1.8-.4-4.5 0-6.7.9-2 .9-6.3 2.3-9.4 3.2-3.2.8-6.4 1.8-7.3 2.1-1 .4-1.5 0-1.5-1s-.9-1.6-2.3-1.6c-1.2 0-3.2-.7-4.4-1.5s-5.2-2.5-9-3.6c-5.8-1.8-7.7-3-12.8-8.3-3.3-3.3-10-11.1-14.9-17.1-5-6.1-14.5-16.5-21.3-23.1-10.9-10.8-12.3-12.5-12.3-15.5.1-5.9 3.5-11.5 12.9-20.8 4.9-4.9 9.9-10.8 11-13 1.2-2.2 2.7-4.4 3.5-4.8.7-.4 2.3-2.7 3.5-5.1 1.2-2.3 2.6-4.2 3.1-4.2s1.9-1.8 3-4 2.5-4 3-4 1.9-1.8 3.1-4c1.3-2.2 2.6-4 3.1-4 .4 0 2.1-2 3.6-4.5 1.6-2.5 3.1-4.3 3.4-4 .3.4 1.6-1.2 2.9-3.4 1.2-2.3 2.8-4.1 3.4-4.1s1.9-1.4 2.9-3c.9-1.7 2.1-2.8 2.6-2.5s2-1.4 3.4-3.7c1.4-2.4 2.6-3.9 2.6-3.3 0 .5 1.4-.6 3.1-2.5s2.8-2.9 2.4-2.3c-1.4 2.8.5 1.1 2.5-2.2 1.2-1.9 2.8-3.5 3.5-3.5s2.3-1.2 3.4-2.6c1.2-1.5 2.1-2.3 2.1-1.9 0 .5 1.2-.2 2.7-1.6 1.4-1.3 2.3-1.7 1.9-.9s.2.4 1.3-.8c1.1-1.3 2.6-2.5 3.3-2.6s1.9-.5 2.6-1c2.4-1.4 2.2 0-.3 3.4-2.7 3.7-2.7 4.7.3 3.1 1-.5 5.2-1.9 9.2-3s7.4-2.2 7.6-2.4c.2-.1-1.2-4.3-3.1-9.2-1.9-5-3.9-12-4.6-15.7-1-5.4-1.6-6.8-3.6-7.7-3.3-1.5-4.4-1.4-9.7 1-2.6 1.1-6.5 2.1-8.7 2.1-5.2.1-14.8-4.7-21.6-10.7-5.5-4.9-13-15.4-15.5-22-1.3-3.4-2-4-4.4-4-3.9-.1-5.4-1.1-7-5.1-.8-1.9-3-5.4-4.8-7.9-1.9-2.5-3.7-5.4-4.1-6.5-.6-2-1.2-2-80.6-2H0zM181.2 8q1.8 6.9 12.9 11.1c4.8 1.9 12.9 2.5 14.2 1.2.9-.8-9-7.1-19.4-12.3-4.3-2.2-8-4-8.3-4-.2 0 .1 1.8.6 4"/><path d="M188 26.6c0 1.8 6.4 10.4 11.7 15.6 3.8 3.7 8.2 6.8 12.5 8.7l6.6 3.1 4.9-1.9c2.6-1.1 6.1-2.2 7.6-2.6l2.8-.6-3.2-5.7c-3.1-5.5-10.8-14.9-13.4-16.4-.7-.5-2.8-.2-4.6.6-1.9.8-4.9 1.6-6.6 1.9-3.1.5-12.8-1.1-16.5-2.8-1-.4-1.8-.4-1.8.1m321.1 34.9-2.3 11.7 2.1 2.1c1.1 1.1 2.3 1.8 2.6 1.5s.4-6.5.3-13.8l-.3-13.3zM244 59.6c0 1.8 4.3 15.5 6.2 19.6 2.3 5.1 3.5 5.9 4.5 3 .3-.9 3-4.2 6.1-7.4l5.5-5.6-10.7-5.1c-11.1-5.3-11.6-5.5-11.6-4.5m-4.3 35.9c-7.2 2.5-17.7 8.3-17.7 9.8 0 .4.5.5 1.2.1s.8-.3.4.4-1.5 1.2-2.4 1.3c-.9 0-1.2.3-.6.5.7.3 4.5-1.2 8.5-3.3 4.1-2.2 10-4.9 13.1-6.2 6.3-2.5 9.4-5.1 6.2-5.1-1.1 0-5 1.1-8.7 2.5m-.9 8.5c-8.1 4.2-10.7 6.4-6.1 5.1 1.9-.5 3.6-.3 5.1.7 2 1.3 2.6 1.2 6.2-1.2 2.2-1.4 4-3.3 4-4 0-.8.3-2.1.6-3 .9-2.5-1.3-1.9-9.8 2.4m-18.3 12c-2.7 2.2-5.5 4-6.2 4-.6 0-2.2 1.5-3.4 3.2-2.9 4.1-11.3 14.7-20.6 26.1-7.4 8.9-14.3 18.9-14.3 20.7 0 .6 1.1 1.5 2.4 2.1s2.9 2.3 3.5 3.7c1 2.1.9 2.8-.9 4.7-1.9 2-2 2.4-.5 6.5 1.9 5.3 1.9 6 .1 6-.8 0-1.7.7-2 1.6-.4.9-1.3 1.3-2.4 1-1.2-.4-2.8.4-4.7 2.4-2.5 2.6-2.7 3.2-1.5 4.4.8.7 8.1 7.2 16.2 14.4l14.7 13 9.3.7c5.1.4 10.3 1.1 11.5 1.6 2.3.8 13-.5 17.1-2.2 1.8-.7 2.3-1.6 2-3.7-.3-2.6-.5-2.7-7.5-3-4-.2-7.3-.6-7.3-1.1 0-1.3 13.5-16.4 16.9-18.9 1.6-1.2 3.7-2.2 4.6-2.2s2.5-.4 3.5-1c1.5-.8 2.3-.5 3.9 1.6l2 2.5-.4-3.3c-.3-1.8-.7-9.5-1.1-17-.5-10.9-.9-14-2.2-15.1-1.8-1.6-16.5-9.3-21.8-11.5-2.5-1-3.3-2-3.8-5-.3-2.5-1.9-5.3-4.3-7.9-3.3-3.6-3.6-4.2-2.2-5.1 2.5-1.6 3.3-7.2 1.2-8.7-1.5-1.1-1.5-1.8-.4-7.1.7-3.3 2-7.1 2.7-8.7.8-1.5 1.3-2.7 1.2-2.7-.2 0-2.5 1.8-5.3 4m142 19.9c-.3.5-.1 2 .4 3.3.6 1.3 1.9 5.9 3 10.3s2.5 9.9 3.1 12.3l1.1 4.4 6.2-.5c8.7-.6 22.7-3 22.7-3.9 0-1-15.1-13.5-23-19q-12.3-8.7-13.5-6.9m27 32.7c-3.3.8-8.8 1.7-12.2 2-3.5.4-6.3.9-6.3 1.2 0 .2.7 4.6 1.5 9.6s2.6 18.7 4.1 30.5c1.4 11.8 3.9 28.1 5.4 36.1 1.6 8.1 4.7 24.8 6.9 37.1 4.4 24.5 8.1 37.1 22.9 76.9l8 21.5 46.1.3 46.1.2-.3-69.2c-.3-66.3-.4-69.6-2.3-75.7l-2-6.3-7.8-4.1-7.7-4-10.2 1.7c-14.3 2.3-22.2 2.1-30.1-.7-11.9-4.4-23.2-14.1-28.6-24.7-2.9-5.7-7-17.7-7-20.6 0-2.2-7.2-10.4-11-12.4-2.5-1.3-8.2-1.1-15.5.6"/><path d="M422 180.9c0 2.6 3.3 11.8 6.4 17.9 5.8 11.5 20.5 22.2 33.1 24.1 5.4.8 17.4-.5 23.4-2.5.9-.3-.5-2.5-4.6-6.7-3.2-3.4-7.8-8.8-10.1-11.9-3.6-5-5.5-6.3-14.2-10.7-5.5-2.8-13.1-5.9-16.8-7-18.7-5.4-17.2-5.2-17.2-3.2"/></svg>