<svg xmlns="http://www.w3.org/2000/svg" width="682.667" height="512" version="1.0" viewBox="0 0 512 384"><path d="M0 192v192h248.9l.6-4.7c1.2-8.3 4.3-23.5 6.5-31.8 1.2-4.4 2.5-12.2 2.7-17.2l.6-9.3-4.8-2c-2.6-1.1-4.9-1.9-5-1.8-.2.2-4.4 6-9.3 13-13.8 19.4-21.7 27.8-26.2 27.8-6.5 0-12-4.1-12-8.8 0-3.2 2.9-9.2 8.5-17.7 8.6-13.2 13.3-18.5 18.2-20.7 2.5-1.1 4.2-2.5 4-3.1-.3-.7-.8-2-1.2-2.9-.4-1.1 0-2 1.4-2.8 1.3-.6 2.1-2.1 2.1-3.5 0-1.8.7-2.6 2.6-3.1s2.4-1.1 2.1-2.6c-.4-1.2.3-2.4 1.8-3.4 1.9-1.2 2.3-2.2 1.9-4.3-.4-1.9 0-3.2 1.5-4.5 1.2-1.1 2.1-2.6 2.1-3.5s.9-2.7 2-4.1c2.9-3.7 2.5-4.7-2.6-5.4-3.5-.4-7.1.2-16.6 3-10.9 3.2-12.3 3.4-13.3 2-.7-.9-1.4-1.3-1.8-1-.3.3-1.9-.2-3.7-1.1-1.7-.9-6.5-2.5-10.6-3.5-8.7-2.2-10.5-3.4-23.4-15-13.3-11.9-23.5-20.3-30.9-25.5-5.6-3.8-6.7-4.2-8.8-3.2-1.9.9-2.7.8-3.4-.4-.8-1.1-1.2-1.1-1.6-.2-.6 1.7-2.3 1.6-5.9-.1-1.6-.8-4.7-1.8-6.9-2.1-3.7-.6-4.8-.1-13 5.3C90.9 236.1 71.9 248 71.1 248c-1.5 0-5.3-15.1-4.2-16.4.7-.9.7-3-.1-7-1-4.5-1-5.9 0-6.5.9-.5 1-2 .2-6.1-.6-3-.6-5.8-.1-6.4s1.1-4.5 1.5-8.6c.3-4.1 1.1-10 1.6-13 .6-3 1.3-7.5 1.6-10s1.1-5.9 1.9-7.5c.7-1.7 1.6-5.1 1.9-7.8.4-2.6 1.1-4.7 1.5-4.7.5 0 1.2-1.7 1.6-3.8.4-2 1.5-5.6 2.6-7.9 1-2.3 1.9-4.5 1.9-4.9 0-.3 2.3-5.3 5.1-11.1 5.9-12.2 16.7-28.7 23.4-35.8 2.6-2.8 5.5-6.1 6.5-7.5s3.7-3.5 5.9-4.8L128 76l.5 2.2c.5 2.4 2.1 20 3.2 35.3.3 4.9.8 8.4 1 7.7.3-.6 1.1-1.2 1.9-1.2s1.4-.5 1.4-1c0-.6.5-1 1.1-1 .8 0 .9 1.1.5 3.2-.6 3-.5 3.1.8 1.3.8-1.1 1.3-3.1 1-4.5-.5-2-.3-2.2.5-1 .9 1.2 1.1 1.1 1.2-1 .1-1.9.4-1.4 1.2 1.7 1.1 3.9 3.2 4.8 3.2 1.4 0-.8 1.2-1.5 3-1.6 1.7-.2 2.4-.1 1.8.2-.7.2-1.3 1.4-1.3 2.5 0 1.7.3 1.8 1.5.8.8-.7 1.5-1.8 1.5-2.5 0-.8 1.2-1.1 3.8-.8 2 .2 4.3.5 4.9.5 1 .1 1 .5.1 1.5-.6.8-1 3.3-.9 5.6.2 5.3-1.9 12.7-3.6 12.7-1.6 0-1.7 1.7-.1 2.2.7.3.4 1.2-1.1 2.7-1.2 1.2-2 2.6-1.6 2.9.3.4 1.1 0 1.6-.8.8-1.2.9-.9.5 1-.3 1.4-.6 3.4-.7 4.5 0 1.1-.3 1.4-.6.7-.9-2.2-2.3-1.3-2.3 1.5 0 2.3.2 2.5 1.1 1.3.8-1.1.9-.9.3 1-.4 1.4-1 2.7-1.4 3s-1 2.1-1.2 4c-.3 1.9-.9 4.4-1.3 5.4-.6 1.4-.5 1.7.4 1.1 1-.6 1.1-.3.2 1.3-2.4 4.6-.2 9.6 4.6 10.4 1 .2 2.4 1.1 3.1 2.1.7.9 3 2.6 5.1 3.7 5.8 2.9 5.9 4.8.8 12.3-1 1.6-.7 2.3 2.3 4.8 7.6 6.5 45.2 32 46 31.2.3-.2-.3-1-1.2-1.7-3.5-2.6-1.4-2.7 16.7-.6 8.9 1 21-.6 22.6-3.1.5-.8.9-2.8.9-4.6 0-3.4 0-3.4-10.2-5.7-1.8-.4-2.5-1.1-2.2-2 .9-2.3 13.3-11.1 20.8-14.7l6.8-3.4-.6-11.5c-1.2-20.9-.1-18.7-12.5-25.3-6-3.1-11.5-5.7-12.4-5.7-1.9 0-3.7-2.9-3.7-6 0-2.5-4.6-9.6-6.7-10.4-1.4-.6-1.4-.8.1-2.5.9-1 2-3.2 2.5-4.8.7-2.4.5-3.4-.9-4.6-2-1.7-1.7-4.8 1.4-13.5 1.7-4.7 1.5-4.7-4.5 0-3.7 2.8-8.2 3.7-9.4 1.7-1.4-2.1.7-7.9 4.4-12.7 4.8-6.1 11.9-10.7 22.9-14.8 4.8-1.8 8.8-3.7 9-4.3.2-.5-.4-2.5-1.2-4.3-1.9-4-4.6-12.7-4.6-14.8 0-1.3.1-1.3 1.1 0 .7 1.1.8.3.4-3-1.3-8.6-6.2-10.8-16.2-7.3-9.6 3.3-18.9 1.5-27.9-5.6-7.7-6-15.7-18-20.6-30.8-1.7-4.4-2.3-5.2-2.6-3.5-.5 3-3.6 4.6-6.2 3.2-1.1-.6-2-1.8-2-2.6 0-.9-.8-2.8-1.9-4.2-1-1.5-2.8-4.6-4-7L168 0H0zm162.5-76c.3.6-.1.7-.9.4-1.8-.7-2.1-1.4-.7-1.4.6 0 1.3.4 1.6 1M190 3.2c0 5.3 12.4 12.8 21.2 12.8 4.8 0 4.8-1.4.1-4-2.1-1.1-7.4-4-11.8-6.5-4.4-2.4-8.3-4.4-8.7-4.5-.5 0-.8 1-.8 2.2"/><path d="M219 23c-4 2.2-12.9 2.6-17.9.9-1.8-.6-3.4-.9-3.8-.6-.9 1 4.9 10.5 9.6 15.7 2.5 2.7 7.3 6.6 10.5 8.5 6.9 4 10.8 4.4 20.3 1.7l6.2-1.7-3.9-7.2C235.9 33 225.7 21 223.6 21c-.6.1-2.7.9-4.6 2m35.6 34.8c-.9 1.5 4.3 17.8 7 22l1.5 2.4 2.8-4.4c1.6-2.4 4.5-5.8 6.6-7.5l3.7-3.1-3.1-1.6c-8-4.2-18.1-8.4-18.5-7.8M250 92.4c-9.9 3.5-16.3 7.1-19.8 11.1-4.8 5.4-3.9 6 2.6 1.6 6.3-4.3 12.7-7.6 21.5-11.1 5.6-2.2 7.5-4.1 4-3.9-1 0-4.7 1.1-8.3 2.3m-.2 8.3c-7.5 3.5-10.4 6.2-5.4 4.9 1.4-.3 2.8-.2 3.1.4 1.1 1.8 5.3 1.1 7.8-1.3 2.4-2.1 4.5-7.7 3-7.7-.5 0-4.3 1.7-8.5 3.7M156.2 132c0 1.4.2 1.9.5 1.2.2-.6.2-1.8 0-2.5-.3-.6-.5-.1-.5 1.3m222.9 18.2c2.2 8.3 4.1 15.3 4.3 15.5.3.3 11.4-.8 24.1-2.6l5-.6-3.4-3c-1.9-1.7-4.3-4-5.5-5.1-5-5-25.3-19.4-27.4-19.4-.6 0 .8 6.8 2.9 15.2m13.2 19.1c-9.3 1.1-8.9.7-7.3 9.8.5 3 2.1 15.7 3.5 28.4 1.4 12.6 3.4 27.3 4.5 32.5 1 5.2 4.2 22.8 7 39 5.2 29.8 8.8 43.3 18.3 69 1.9 5.2 5.6 15.5 8.3 22.7l4.9 13.3H512V225h-3.2c-1.8 0-8 .7-13.8 1.5-13.8 1.9-22.4 1.9-29.1-.1-8.4-2.4-18.1-8.7-24.2-15.6-6.1-6.8-11.4-16.5-10-17.9 1-1-1.6-14.9-2.7-14.9-.3 0-3-2.3-6-5l-5.4-5-8.6.2c-4.7.1-12.2.6-16.7 1.1m38.6 21.7c0 .8-.7-.1-1.4-2-1.8-4.6-1.7-6.4 0-2.5.8 1.6 1.4 3.7 1.4 4.5"/><path d="M434 180.2c.1 3.7 4.6 15.4 8 20.8 4.4 6.8 12.8 14.3 20.3 18 7.7 3.7 16.6 4.8 27.4 3.1 4.3-.7 9.3-1.5 11.2-1.7l3.4-.5-4-4.2c-2.1-2.3-5.4-6-7.3-8.2-1.8-2.2-5.6-5.7-8.4-7.8-7.5-5.7-27.6-15.1-39.1-18.2-5.5-1.5-10.3-3-10.7-3.2-.5-.2-.8.6-.8 1.9"/></svg>