<svg xmlns="http://www.w3.org/2000/svg" width="682.667" height="512" version="1.0" viewBox="0 0 512 384"><path d="M0 75.7v75.8l2.7-4.5c1.4-2.5 2.5-5.4 2.5-6.5-.1-1.1 1.6-4.4 3.8-7.3 2.2-2.8 3.7-5.8 3.4-6.5-.3-.8 1.6-3.7 4.1-6.4 2.7-3.1 4.3-5.7 3.9-6.6q-.6-1.5 6.3-6.9c9.5-7.5 15.8-9.5 19.5-6.1 1.7 1.5 2 1.5 2.8.3.6-.8 1-1.1 1.1-.5.2 2.9.9 4.9 1.7 5.4.5.3 1.9 2.5 3.1 4.8 1.1 2.3 2.5 4.4 3 4.8.5.3 2.4 3.1 4.2 6.3 1.8 3.1 4.1 6.6 5.1 7.6 1 1.1 1.8 2.6 1.8 3.3s.3 1.3.8 1.3c.4 0 1.3 1.3 2 2.8.6 1.6 2 3.7 3 4.8.9 1.1 2.3 3.1 3.1 4.5 4.7 7.8 8.2 13.4 9.5 14.8.8.9 2.4 3.7 3.6 6.3 1.2 2.7 2.5 4.8 2.9 4.8s2.7 3.4 5.1 7.5 4.8 7.5 5.2 7.5c.5 0 .8.6.8 1.3 0 3.4 3.5 4.7 12.1 4.7 7.1-.1 9-.4 12.3-2.4 2.1-1.4 4.5-2.2 5.2-1.9s2.4 2.4 3.8 4.7c2 3.4 4.2 5.1 11.3 9 14 7.4 26.4 12.9 46.3 20.1 10.2 3.7 20.7 7.9 23.5 9.3 3.2 1.6 4.5 1.9 3.7.9-1.1-1.3-.9-1.8.9-3.1l2.3-1.5-2.5-1c-2.1-.8-2.1-1-.4-1 3.8-.1 20 2.1 21.6 3 1 .5 5.1.2 10.3-.8l8.6-1.6v-4.2c0-4.7-1.2-6.2-5.8-7.1-4.4-.9-5.7-2.7-3.3-4.8 2.2-2 17.6-10 20.9-10.8 2-.6 2.2-1.2 2.2-7.5 0-3.7-.3-11.2-.7-16.5l-.6-9.7-9.7-5.5c-5.3-3-10.8-5.8-12.3-6.1-3.2-.8-4.2-2-5.1-6-1-4-5.8-11.5-7.3-11.5-.7 0-1.3-.5-1.3-1 0-.6.5-1 1.1-1 .5 0 1.7-1.6 2.5-3.6 1.3-3.2 1.3-3.8 0-6-2.1-3-2-5.6.4-12.4 1-3 1.8-5.6 1.6-5.7-.1-.1-2.2 1.1-4.6 2.7-5.7 3.8-11 4.1-11 .7 0-2.8 3.4-9.3 6.9-13.1 3.8-4.2 13.5-10.2 19.4-12.2 8.6-2.8 12.5-5.3 11.9-7.7-.5-2-.6-2-1.4-.1-.6 1.4-.7 1.2-.3-.9.3-1.5-.4-5.7-1.5-9.3-1.1-3.7-2-8.1-2-9.9 0-2.5-.5-3.5-2-4-1.1-.3-2-1-2-1.5 0-1.8-3.3-1.8-11 .1-13.7 3.2-18.2 2.6-27.8-3.7-9.9-6.6-19.7-21.1-23.2-34.4-1.2-4.7-2.6-7-4.1-7-.5 0-.9.9-.9 1.9 0 2-3.4 5.1-5.6 5.1-.7 0-2.7-3.2-4.5-7l-3.3-7H0zM205.8 2.9c3.8 3.2 13.4 6.6 15.9 5.7 2.7-1.1-11.1-8.6-15.6-8.6l-3.6.1z"/><path d="M228 17c-5.2 2.2-9.8 2.4-15.3.9-2.2-.6-4.1-.8-4.4-.5-1.2 1.2 6.4 14.3 11.5 19.8 5.6 6 15.4 11.8 20 11.8 1.4 0 5.6-.9 9.4-2.1 8-2.3 7.9-1.7 1.5-12.4-4.1-6.9-15.4-19.6-17.2-19.4-.6 0-3 .9-5.5 1.9m39.7 41.2c1 5.2 4.9 16.4 6.6 18.8 1.5 2.1 1.5 2.1 4.6-2.4 1.8-2.5 4.6-5.9 6.4-7.5l3.1-3-9.5-4.6c-5.3-2.5-10.1-4.5-10.7-4.5-.8 0-.9 1.2-.5 3.2m-8.2 31.9c-3.8 1.7-7.9 3.4-9.1 3.9-2.7 1.1-9.4 7.4-9.4 8.9 0 .6 2.4-.5 5.3-2.4s9.7-5.5 15.1-7.9 10-4.7 10.3-5c1.7-1.7-6.1-.1-12.2 2.5m5 5.8c-3.3 1.6-6.8 3.5-7.8 4.2-1.6 1.3-1.6 1.4.5 1.5 1.3.1 3.7.5 5.4.9 2.5.5 3.6.2 5.7-1.7 2.6-2.3 4.7-7.8 3.1-7.8-.5 0-3.6 1.3-6.9 2.9m127.9 41.3c4.1 15.3 5.6 21.6 5.6 23.4 0 3.8 1.7 4.2 15.8 3.4 7.3-.4 13.5-1 13.8-1.2.9-1-17.8-17.2-27.4-23.7-7-4.7-8.7-5.1-7.8-1.9m12.2 31.5-4.8.4.6 4.2c1.2 7.1 2.5 18.4 4.6 38.5 1.1 10.5 2.6 22 3.4 25.5.8 3.4 3.7 20.1 6.5 37.2 6.6 39.8 8.3 45.9 23.3 87.2l8.1 22.3H512V227.1l-11.9.6c-13.9.7-20.7-.7-30.6-6.2-5.9-3.3-15.5-12.4-18.8-17.7-2.3-3.7-2.1-4.8.3-1.9 2.6 3 2.5 2.5-.4-4.1-1.4-3.1-3.3-9-4.2-13.2-1-4.2-2.1-7.6-2.5-7.6-.3 0-2.4-1.6-4.5-3.6-2.2-2-4.9-4-6.2-4.5-2.2-.9-18.3-1-28.6-.2"/><path d="M449 178.5c0 2.8 3.5 12.6 6.7 18.7 6.1 11.7 17.6 21.1 29.8 24.3 6.5 1.6 11 1.8 20.4.9l6.1-.7v-7.6l-.1-7.6-7.2-5c-10-7-16.9-10.8-26.3-14.9-10.3-4.5-29.4-9.8-29.4-8.1m-317 57.7c-3.8 2.9-7.1 4.6-8.1 4.3-.9-.3-2.7.3-4 1.4-1.6 1.2-4.5 2-8.3 2.2-6.3.4-6.9 0-8.1-5.4-.3-1.5-1.2-2.7-1.9-2.7-.8 0-2.4 1.2-3.6 2.7-1.2 1.6-4.7 5.5-7.8 8.8s-10.8 11.8-17.1 19c-6.2 7.1-15.5 17.5-20.6 23-5 5.5-11.4 12.6-14.1 15.7s-5.5 5.7-6.1 5.7c-.7.1-4.3-2.4-8-5.6-3.8-3.1-7-5.8-7.2-5.9-.2-.2.1-1 .7-1.7.9-1 .1-2.3-3.4-5.8-3.5-3.4-4.4-4.9-4.1-6.9.4-1.8-.5-3.8-3.4-7.4-2.5-3.1-3.7-5.5-3.4-6.7.3-.9-.3-3.2-1.5-5.1l-2-3.3V384h131c124.1 0 131-.1 131-1.8.1-5.1 2-14.4 7.2-35.2 1.2-4.9 2.1-12.1 2.2-17l.1-8.4-3.5-1.8c-1.9-.9-4-1.7-4.7-1.8-.6 0-5.7 6.3-11.2 14-11.8 16.3-20.1 25.5-23.6 26.4s-9.8-.9-12-3.4c-3.7-4-3-8.1 2.7-17.7 7.3-12 17.8-25.3 20.7-26 1.4-.3 3.4-1 4.3-1.5 1.7-.8 1.7-1 .1-3.5-1.7-2.5-1.7-2.7.5-4.1 1.2-.8 2.2-2.5 2.2-3.7 0-1.6.8-2.5 2.5-2.9 1.8-.5 2.5-1.3 2.5-3.1q0-2.55 2.4-3.6c2.2-1 2.3-1.4 1.3-3.6s-.8-2.8.9-4.2c1.1-.9 2.6-3.2 3.2-5.1.7-1.9 2.2-4.4 3.3-5.6l2-2.1-4.8-1.6c-5.5-1.8-9.9-1.3-24.7 2.7-11 3-11.2 3.1-9.6 1.1 1.1-1.3.8-1.5-1.8-1.5-1.7 0-3.2-.4-3.4-.9-.1-.5-3.4-1.2-7.2-1.6-8.4-.8-14.7-3.1-24.1-8.6-14.1-8.3-28.8-16.1-39.8-21.3l-11.3-5.3z"/></svg>