<svg xmlns="http://www.w3.org/2000/svg" width="682.667" height="512" version="1.0" viewBox="0 0 512 384"><path d="M.1 95.2c.1 52.4.5 93.5.9 91.3s1.7-6.6 2.9-9.8 1.9-6.2 1.6-6.7c-.3-.4 1.1-3.7 3.1-7.2 2.1-3.4 3.6-7.3 3.6-8.6-.1-1.3 1.6-4.7 4-7.8 2.2-3 4.1-6.5 4.2-7.8s2.3-4.7 4.9-7.6c3-3.3 4.6-5.8 4.2-6.9-.8-2.6 15.5-16.1 19.4-16.1.8 0 14.8 17.6 48.5 61 2.8 3.6 10 12.9 16.1 20.6 6 7.8 11.9 15.4 13 16.9l2 2.7 7.2-1.7c3.9-.9 8.8-2.5 10.9-3.6 4.6-2.3 7.7-2.4 10.8-.4 4.3 2.9 33.9 3.1 64.4.5 26-2.2 35.3-2.2 46.2-.1 5.4 1.1 10.1.8 9.9-.7-.3-2 .3-3 2.3-3.5 1.8-.5 1.9-.8.8-2.1-1.9-2.4-.5-2.1 13.8 2.9 10.9 3.8 14.1 4.5 20.5 4.5h7.5l.7-3.1c.9-3.8-.4-5.2-6.5-7.2-2.4-.8-4.6-1.9-4.8-2.5s3.7-3 8.5-5.4l8.8-4.3.3-10c.2-5.5 0-11-.3-12.2-.4-1.6-3.8-4.1-11.3-8.3-5.9-3.3-12.2-6.6-13.9-7.2-2.8-1-3.5-2-4.8-6.4-1.8-6.3-6.3-13.4-8.4-13.4-1.1 0-.7-.7 1.2-2.3 2-1.6 2.9-3.4 3.3-7 .5-3.5.3-4.7-.6-4.7-1.8 0-.6-9.5 1.9-15.3l2-4.5-4.7 2.8c-2.6 1.5-6.4 3-8.4 3.3-3.7.6-3.8.5-3.8-2.4 0-1.6.4-2.9.9-2.9s1.7-.7 2.5-1.6c2.1-2 2.1-4.1.1-2.4-2.8 2.3-1.5-.6 2-4.7 4.1-4.8 13-10.6 23.5-15.3 4.1-1.9 7.6-3.5 7.8-3.6s-.1-1-.6-2.1c-1.3-2.4-5.2-16.3-5.2-18.5 0-1-1-2.3-2.2-2.9-1.3-.7-2.5-1.6-2.8-2-.4-.5-5.3.1-11 1.2-15.2 3-22.5 1.5-31.3-6.5-6.8-6-14.8-18.1-14.7-22 .1-.6.7.3 1.4 2 .8 1.7 2.1 3.4 3.1 3.7.9.4 1.4 1 1.2 1.4-.2.5.7 1.9 2 3.3 2.5 2.5 2.5 2.5-.3-2.5-1.5-2.8-3.1-5.5-3.5-6-.3-.6-1.7-3.8-2.9-7.3L249.7 0H0z"/><path d="M257 2.6c5.1 13.3 15.6 26.6 24.5 30.9 4.9 2.3 14.3 2.4 19.7.2l3.7-1.6-3-6.8c-3.8-8.2-8.6-15.9-13.5-21.2L284.8 0H256zm60.7 42.1c1.1 6.6 5.5 18.3 6.9 18.3 2.6 0 7.2-2.9 7.9-4.9.3-1 1.4-2.6 2.5-3.6s2-2.1 2-2.6c0-.6-18.3-9.9-19.4-9.9-.2 0-.1 1.2.1 2.7m-2.2 27.8c-3.3 1.2-7.9 3.1-10.1 4.3-4.4 2.2-10.7 7.2-10.1 7.8.2.2 3.7-1.5 7.8-3.9 4.1-2.3 10-5.3 13-6.7 6.2-2.8 6.4-2.9 5.8-3.3-.2-.2-3.1.6-6.4 1.8m-2.3 8.6c-3.4 1.8-6 3.4-5.8 3.6.2.3 1.4 0 2.5-.6 1.6-.9 2.9-.8 5.6.3 4.8 2 8.7.4 8.3-3.3s-3.3-3.7-10.6 0m150.9 59.1c0 1.3.8 6.1 1.8 10.8l1.7 8.5 10.9.3 11 .3-3.5-3.7c-4-4.2-20.6-18.4-21.4-18.4-.3 0-.6 1-.5 2.2m4.9 27c0 1.3.5 5.7 1 9.8.6 4.1 1.9 17.2 3.1 29 1.1 11.8 2.4 23.4 3 25.9 1.2 5.2 8.9 52.6 11.8 72.6 2.2 14.6 7.7 35 17.2 63.4 3 8.8 5.7 16 6.2 16.1.4 0 .7-43.1.7-95.9 0-81.4-.2-96.3-1.4-98.6-.8-1.6-2-5.9-2.7-9.6-1.1-6-1.5-6.8-3.8-7.4-1.4-.3-3.3-1.5-4.2-2.7-2.1-2.7-11.5-4.8-22.1-4.8-8.5 0-8.8.1-8.8 2.2m42.2 8.3c0 1.6.2 2.2.5 1.2.2-.9.2-2.3 0-3-.3-.6-.5.1-.5 1.8m-343.4 65.3c-3.1 2-7.6 5.9-10.1 8.5-3.7 4-4.9 4.7-6.9 4.2-1.9-.5-2.8-.1-4.2 1.9-1.5 2.4-2.2 2.6-9.7 2.6-8.1 0-8.1 0-9.2-3-.7-1.8-1.8-2.9-2.6-2.8-1.6.3-19.1 21.8-61.5 75.6-3.7 4.8-8.9 11.1-11.5 14l-4.6 5.3-3.5-1.7c-5.4-2.6-17-11.4-17-12.9 0-.7.6-1.5 1.2-1.7.7-.3-1.5-3.1-5.1-6.6-5.4-5.1-6.2-6.3-5.2-7.6 1.4-1.7.5-4-2.9-7.1-3.3-3-5.4-7.5-4.1-8.8.8-.8.7-1.5-.3-2.6-2.9-3.4-6.6-11.4-6.1-13.1.3-1-.5-4.2-1.9-7.1l-2.4-5.4-.1 55.7L0 384h313.9l.6-3.8c.4-2 2.7-11.8 5.1-21.7 3.4-13.8 4.4-19.9 4.4-26.2v-8.1l-3.7-1.2c-2.1-.7-4.2-1.6-4.7-2.1-1.7-1.5-2.3-1.1-6.2 4.4-12.4 17.3-17.5 24-23.2 30.5-5.8 6.4-6.8 7.2-10.1 7.2-9.2 0-14.1-3.6-14.1-10.5 0-2.7 1.8-6.2 8.4-16 10.9-16.1 15.8-21.8 20.6-24l3.9-1.8-1.6-3c-1.5-3-1.5-3.2.8-5 1.3-1.1 2.3-2.7 2.1-3.7-.2-1.1.8-2.2 2.8-3 2.1-.9 3-1.9 3-3.6 0-1.4.9-2.8 2.3-3.5 3-1.6 3-1.5 1.8-3.8-.9-1.7-.6-2.5 1.9-5.1 1.6-1.7 3-3.7 3-4.5 0-.7.6-2 1.3-2.7.6-.7 2.8-3.7 4.7-6.5 1.9-2.9 3.8-5.3 4.3-5.3 1.5 0 .6-3-1.3-4.2-1.1-.7-2-1.8-2-2.5s-1.1-1.5-2.5-1.9c-3.1-.8-4.9-3.6-3.3-5.2.8-.8.4-1.2-1.3-1.7-6.1-1.5-16.3-2-25.3-1.4-5.4.4-10.8.4-12-.1-1.3-.6-1.5-.9-.6-1 .8 0-.1-.9-2-2-3.1-1.7-4.9-1.8-16-1.3-7.5.3-21.6-.1-35.1-1.1-12.5-.9-28-1.6-34.5-1.6h-11.9z"/></svg>