<svg xmlns="http://www.w3.org/2000/svg" width="682.667" height="512" version="1.0" viewBox="0 0 512 384"><path d="M381.8 1.4c6.2.6 11.6 1.7 12 2.3s3.6 2.1 7.2 3.3c6.2 2 8 2.1 44 1.9 20.6-.1 42.7.2 49.1.6 9.8.6 12 .5 14.7-.9s3.2-2.2 3.2-5.1V0l-70.7.1c-59.5.2-69 .4-59.5 1.3M259.1 142c-29.3 10.1-48.6 40.7-48.3 76.5 0 12.5 2 21.6 5.9 28.5 4.1 7.1 16.6 23.1 21.3 27.4 12.9 11.7 38.5 15.7 61.5 9.7 15.6-4 36.5-16.8 47.3-28.9 10.3-11.4 16.2-25.6 16.2-38.9 0-7.8-2.7-22.8-5-28.1-1.1-2.4-5.8-8.3-10.5-13.2-4.9-5.1-8.5-9.7-8.5-10.8 0-2.7-12.4-15.4-17.5-17.9-6.7-3.4-10.5-4.3-25-5.8-21.2-2.2-27.5-2-37.4 1.5"/></svg>