<svg xmlns="http://www.w3.org/2000/svg" width="682.667" height="512" version="1.0" viewBox="0 0 512 384"><path d="M0 192v192h358.9l1-3.8c.6-2 1.8-7.1 2.7-11.2s2-8.3 2.5-9.2c1.8-3.5 4-18 3.7-24.9l-.3-7.1-6.2-2.4-6.3-2.3-16.5 21.8c-11.2 14.9-17.4 22.2-19.4 23.1-2.3.9-3.9.8-8.2-.4-7.3-2.2-9.9-4.9-9.9-10.1 0-3.5 1.1-5.8 7.2-14.6 10.6-15.3 18.2-24.7 22.8-28l4-2.9-1.6-3.2c-1.5-3-1.5-3.2.2-4.5 1-.7 2.1-1.3 2.6-1.3.4 0 .8-1.3.8-2.9 0-2.5.5-3.1 3-3.6 2.3-.5 3-1.2 3-3 0-1.4 1.1-3.1 2.6-4.2 2.3-1.7 2.5-2.3 1.5-4.1-.9-1.8-.8-2.5.9-4.2 1.1-1.1 2.4-2 3-2 .5 0 2.1-2.1 3.5-4.8 1.4-2.6 4.5-7.2 7.1-10.4 4-5 4.4-5.9 3.4-7.8-.7-1.2-.9-3.1-.7-4.2.4-1.5-.1-2.2-2.4-3-1.7-.6-3.1-1.9-3.5-3.3-.9-3.8-8.7-4.9-28.1-4.1-11.3.5-16.3.4-16.3-.3 0-.6.5-1.1 1-1.1.6 0 1-.4 1-.9 0-1.7-6.9-2.3-30.5-2.6-13.2-.2-28.7-.8-34.5-1.4s-17.9-1-27-1.1h-16.5l-6 4.3c-3.3 2.3-8.1 6.4-10.6 9.1-3.9 4.1-5.1 4.8-7.2 4.2-1.9-.4-2.9-.1-3.9 1.2-2.1 3.1-5.3 4.2-11.7 4.2-4.3 0-6.4-.5-7.3-1.6-3.1-3.7-4.9-5.4-5.8-5.4-.5 0-3.7 3.7-7.2 8.3-6.7 8.7-19.6 25.5-51.6 66.6-10.8 14-20.2 26-20.7 26.8-1.5 2-6.8-.4-16.1-7.3-7.1-5.3-8.7-7.5-6.3-9 .7-.4-1.5-3.3-5.6-7.4-5.9-5.9-6.4-6.8-5-8s1.3-1.6-1.3-4.4c-6.1-6.6-8.1-9.8-7-11.6.8-1.3.1-3.1-3.2-8.4-3.3-5.2-4.1-7.2-3.3-8.4.7-1.2.1-3.4-2.4-8.6-2.1-4.2-3.2-7.7-2.9-9 .3-1.1-.4-5.2-1.5-9-1.1-3.7-1.8-7.8-1.5-9s0-5.1-.7-8.6c-1.3-6.8-1.5-23.7-.3-33 .3-3 .9-7.8 1.2-10.5.3-2.8 1.2-7.6 2-10.8s1.2-6.2.9-6.7.8-4.3 2.5-8.6c1.7-4.2 2.9-8.3 2.5-9.1-.4-1.3 4.1-10.8 6.7-14 .5-.7.7-2.1.4-3.1-.6-1.8 1.3-5.3 7.2-12.9 1.3-1.8 1.9-3.3 1.3-3.3-2.2 0-1-2.4 4.4-8.2 3.9-4.2 5.4-6.5 5-7.8s1.4-3.5 6.7-8.2c7.4-6.5 12-9.8 13.6-9.8.5 0 6.8 7.3 13.9 16.2 32.9 41.4 48.8 61.4 59.3 74.8 6.2 8 11.7 14.9 12.1 15.4 1.2 1.4 12.7-1.2 19.6-4.5 7.3-3.4 7.5-3.4 9.6-1.1 1.5 1.6 4 1.8 30.4 1.7 15.8 0 36.5-.7 45.8-1.5 19.9-1.6 33.1-1.7 47-.6 5.5.5 9.7.5 9.3.1-1.3-1.4 1.3-3.5 4.3-3.5 3.5 0 3.7-1.2.7-3.3-2.2-1.5-2.1-1.5 1.7-.7 2.2.5 8.8 2.6 14.5 4.6 9.2 3.3 11.7 3.8 20 3.8l9.5.1.9-5.7c.9-6.5.7-6.8-6.2-11.2-2.4-1.5-4.2-3.2-3.9-3.9.2-.7 3.4-2.3 7-3.7l6.7-2.4v-21.4l-6.7-3.4c-3.8-1.9-10.2-5.2-14.4-7.5-4.1-2.2-8.5-4.2-9.6-4.5-1.6-.4-2.3-1.6-2.8-4.4-.8-5.2-5.1-14-7.7-15.9l-2.2-1.4 2.6-2c3.2-2.6 5.6-10.5 4-13.2-1.7-2.7-1.5-4.5 1.7-13.6l2.8-8.2-4.1 2.8c-2.5 1.7-6.1 3.1-9.3 3.5-5.2.7-5.3.6-5.3-1.9 0-1.4.4-2.5.8-2.5 1.2 0 5.2-3.9 5.2-5 0-.5-.7-.7-1.6-.3-1.5.5-1.5.3-.1-2.3.8-1.6 2.6-3.9 3.9-5 3.3-3.1 13.4-9.5 19.6-12.4 2.9-1.4 5.1-2.9 4.8-3.5-.2-.5-1.4-5.1-2.6-10-2.1-8-2.7-9.2-5.8-11.3-3.4-2.2-3.5-2.2-11.4-.7-12.3 2.3-18.4 2-23.9-1.3-5.7-3.3-9.7-6.8-12.7-11.1l-2.4-3.3 2.6 1.7c1.4 1 2.3 2.2 1.9 2.8s-.1.7.7.2c.7-.4 1.5-.4 1.9.1.3.5 1.7 1.8 3 2.9l2.4 2-1.1-2c-.6-1.1-2.4-3.4-4.2-5-1.7-1.7-4.7-5.6-6.6-8.8L295.9 0H0z"/><path d="M305.2 3.2c4.1 5.9 14.6 15.7 18.4 17.3C329.7 23 344 22 344 19c0-1.5-5-14.3-6.5-16.6C336 0 335.8 0 319.4 0h-16.5zM358 32.4c0 2.5 2.7 12.1 4.1 14.8.8 1.6 1.4 1.5 7.7-.8 6.5-2.4 10-5.1 8.5-6.5-.5-.3-5.2-2.7-10.5-5.2-9.5-4.4-9.8-4.5-9.8-2.3m10.8 20.8c-1.6.5-2.8 1.4-2.8 1.9 0 1.3.5 1.2 4.2-1.1 3.5-2.1 3-2.5-1.4-.8m-14.8 6c-6.4 3-15.6 9.6-14.6 10.5.2.3 2.4-.8 4.8-2.4 2.4-1.7 7.1-4.5 10.6-6.3 3.4-1.8 6.2-3.7 6.2-4.1 0-.5-.1-.9-.2-.8-.2 0-3.2 1.4-6.8 3.1m7.1 5.2-2.4 1.4 2.2.7c2.6.8 5.1-.9 3.6-2.4-.6-.6-1.9-.5-3.4.3"/></svg>