<svg xmlns="http://www.w3.org/2000/svg" width="682.667" height="512" version="1.0" viewBox="0 0 512 384"><path d="M0 192v192l204.8-.1c192.6-.1 204.4-.2 199.7-1.7-3.5-1.2-5.6-2.7-7.2-5.1-4.4-6.5-3.3-9.5 10.8-27.6 5.5-7.2 11.1-14.3 12.2-15.8 1.2-1.6 3.4-4.3 5-6 1.5-1.8 3.9-4.8 5.3-6.9 2.4-3.5 2.5-3.8 1-6.7-2.1-4-2.1-4 1.9-5.7 3.1-1.2 3.4-1.7 2.9-4.3-.6-2.8-.4-3 3.7-3.8 3.8-.8 4.4-1.2 4.1-3.2-.4-2.6 1.3-5 4.5-6.2 2.3-.8 2.3-1 .7-3.4-2.4-3.7-1.2-5.1 5.3-6.4 5.8-1.1 6-1.2 8.1-6 1.1-2.6 2.7-5.5 3.4-6.2.7-.8 3.8-4.4 6.8-7.9 3-3.6 7.1-8.2 9.1-10.3 3.7-3.9 5.5-9.2 3.8-11.3-.5-.6-.6-1.4-.3-1.7.8-.8-1.8-1.3-14-2.8-6.7-.8-16.3-1-29.8-.5-13.4.4-19.8.3-19.8-.4 0-.5.6-1 1.3-1s1.8-.5 2.5-1.2c1-1 .1-1.6-4-2.8-4.5-1.4-6.9-1.5-15.8-.7-7.5.8-17.3.7-34.5-.2-13.2-.7-36.6-1.6-52-1.8l-28.1-.5-8.9 6.5c-5 3.6-11.3 8.7-14.2 11.2-3.3 3-5.9 4.5-7.2 4.3-1.1-.2-3.2.9-4.9 2.5-2.6 2.5-4 2.9-10.9 3.4-7.7.5-8 .5-10.1-2.1-1.1-1.5-2.2-3.2-2.4-3.7-.2-.6-2.2-1.3-4.4-1.6l-4-.5-8.2 11.3c-4.4 6.3-11.1 15.4-14.7 20.4-3.6 4.9-8.6 11.9-11.2 15.5s-9 12.3-14.3 19.5c-5.3 7.1-16.2 22-24.3 33s-15.6 21.1-16.6 22.5l-2 2.5-4.3-2.1c-4.4-2.2-20.2-13.6-21.4-15.5-.3-.5 0-1.7.7-2.5 1-1.3.1-2.7-6-8.8-6.6-6.6-7.2-7.5-6-9.3 1.1-1.8.6-2.8-4.9-9.4-6.4-7.6-7-8.7-5-10.7.9-.9.8-1.6-.4-2.9-4.1-4.8-8.8-14.3-8.3-16.5.4-1.6-.7-5.2-3.4-11-2.6-5.7-3.6-8.9-2.9-9.6.6-.6-.1-4.3-2-10.6-1.7-5.3-2.8-10.5-2.5-11.6s0-5-.7-8.7c-2.4-13.3-.9-53.8 2.5-66.3.8-3 1.2-6.3.9-7.5-.3-1.1 1.1-5.9 3-10.8 1.9-4.8 3.2-9.6 2.9-10.7-.3-1.2 1.1-5.2 3.6-10 2.6-4.9 4-8.8 3.6-9.9-.3-1.2 1.3-4.6 5-10.1 3.9-6 5.2-8.7 4.4-9.6-.7-.9.4-2.8 3.9-7.1 2.7-3.2 5.6-6.4 6.6-7.2 1.2-1 1.5-2.2 1.1-4.1-.5-2.3.2-3.5 5.7-8.5 8.5-7.9 15.7-13.5 17.3-13.5.7 0 5.1 4.6 9.6 10.2 4.6 5.7 8.6 10.5 8.9 10.8s4.4 5.2 9 11 8.7 10.7 9 11 5.3 6.3 11.1 13.5c5.7 7.1 14.3 17.7 18.9 23.3 21.9 26.8 25.5 31.2 30.8 37.9l5.7 7.2 6-.6c6.5-.6 11.9-2.4 14.7-5 1-.9 1.8-1.3 1.8-.8 0 .4 1.1 0 2.5-.9 3.2-2.1 4-2 7.4.5 2.7 2 3.3 2 10.2.9 5.7-.8 9.7-.8 17.5.1 10 1.2 21.3.7 70.4-3.1 39.5-3.1 40.1-3.1 50.7-1.5 12.8 1.9 17.4 2 16.7.2-.6-1.6 7.1-4.2 14.1-4.6l3-.2-4-2.4c-6-3.7-2.6-3.1 15.9 3 15.4 5.1 17.4 5.5 26.1 5.5 7.5 0 9.4-.3 9.9-1.6.3-.9.6-5.7.6-10.8v-9.2l-4.2-3.8-4.2-3.9 3.7-1.9 3.7-1.8v-23h-3.5c-1.9 0-4.3-.4-5.3-1-.9-.5-6.2-3.1-11.7-5.8-23.4-11.6-24.1-12.2-24.4-19.7-.1-3.1-5.2-14.9-7.6-17.5-1.3-1.4-1.1-1.8 1.3-3.2 3.5-2.1 7-9 8.3-16.5.6-3.2 1.7-8.3 2.6-11.3 3.5-13.2 3.1-13.9-6.2-11.5-3.8.9-7.9 2.1-9.2 2.6-1.8.6-2.8.5-3.9-.5-2.1-2.1-1.7-4.4.8-5.2 2.9-.9 4.8-2.9 4.8-4.9 0-1.2-.6-1.5-2-1-4.1 1.3-2.1-1.9 8.1-12.5.9-1 2.2-1.9 2.8-2.1.8-.3.6-2.6-.6-8.2L444.5 0H0zM450 1.2c0 1.2 1.6 7.6 2.5 10.6.3.9 1.9.6 5.7-1.4 8.7-4.3 8.7-4.4 1.7-7.6-6.7-3-9.9-3.5-9.9-1.6m23 9.8c-2.8.8-12.2 5.4-15.8 7.8-1.5 1-2 1.8-1.3 2.5s4.1-.8 10.3-4.3c5.1-2.9 9.5-5.4 9.7-5.6 1-.9-.6-1.1-2.9-.4m5 7c-1.9 1.1-4.6 2.9-6 4.1l-2.5 2.1 3-1.7c1.7-1 3.9-2.4 5-3.2 1.1-.7 2.9-1.3 4.2-1.3 1.2 0 2.5-.5 2.8-1 1-1.6-2.7-1.1-6.5 1"/><path d="M448.9 25.7c-1.3 1.6-1.2 1.7.4.4.9-.7 1.7-1.5 1.7-1.7 0-.8-.8-.3-2.1 1.3m9.1 311.8c-1.9 5.8-25.7 34.8-35.3 43l-4.1 3.5 26.9-.2 26.8-.3 2-6.5c4-13.4 6.8-34.1 5-36.6-.6-.8-17.8-6.4-19.8-6.4-.2 0-.9 1.6-1.5 3.5"/></svg>