<svg xmlns="http://www.w3.org/2000/svg" width="682.667" height="512" version="1.0" viewBox="0 0 512 384"><path d="M0 192v192h212.2c207.4 0 212.1 0 210.4-1.9-3.1-3.4-3.2-8.5-.1-13.8 3.3-5.8 17.7-25 29.1-38.9l8.3-10.1-2-3.2c-2.3-3.8-1.5-5.6 3.1-6.6 2.6-.6 2.9-1 2.4-3.5-.6-2.5-.3-2.9 3.7-4.2 3.9-1.3 4.4-1.8 4.1-4.1-.3-2.2.3-3.1 3.2-4.8 3.7-2.1 4.4-3.3 2.6-4.4-.5-.3-1-1.7-1-3 0-2.6.9-3 8.5-4 4.2-.5 9.8-2.4 7.3-2.5-.4 0 .3-2 1.5-4.4 2.1-4.2 7.3-10.6 15.1-18.9 3.6-3.8 3.6-3.9 3.6-12.7v-8.9l-3.7-.8c-2.1-.4-15.4-.7-29.7-.6-22.3.2-25.6.1-24.6-1.2.6-.8 2.2-1.7 3.3-2.1 1.8-.6 1.3-1-3.2-2.5-4.8-1.7-6.8-1.8-20.5-.8-11.9.8-21.1.6-43.6-.7-15.7-.9-39.3-1.7-52.5-1.8l-24-.1-6.3 5c-3.5 2.7-8.6 6.4-11.4 8.2-2.8 1.7-6.7 4.8-8.8 6.8-2.4 2.3-4.5 3.5-5.8 3.3-1.2-.2-3 .8-4.5 2.4-2.6 2.8-9.4 4.3-17.2 3.6-3.4-.2-4.2-.8-5.4-3.5-1.4-3.3-3.5-4.3-8.7-4.3-2.6 0-3.7.9-7.9 6.7-4.4 6-20.1 27.8-35.5 49.3-6.7 9.2-15.1 20.9-20 27.5-2 2.7-9.7 13.3-17 23.5-15.2 21.2-16.7 23-19.1 23-1.8 0-15.2-8.7-22.5-14.7-3.7-3-3.8-3.2-2.2-5 1.7-1.8 1.4-2.2-6.2-9.8-7.3-7.3-7.8-8-6.4-9.6 1.5-1.6 1-2.4-5.2-9.9-5.9-7.2-6.6-8.4-5.5-10.1 1-1.7.5-2.9-3.3-8.8-6.6-10.3-6.9-11-5.5-12.7 1-1.2.4-3.2-3.1-10.4-2.8-6-4-9.8-3.6-11.2.3-1.3-.6-5.9-2-10.3s-2.6-9.9-2.5-12.3c0-2.4-.4-6.6-1-9.5-2.8-14.4-1.8-51 1.9-67.7.9-4.1 1.5-8.7 1.4-10.1-.2-1.5 1.2-6.7 3.1-11.7 2.2-5.8 3.1-9.4 2.5-10-.7-.7.8-4.6 4.1-11.1 2.8-5.6 4.7-10.1 4.1-10.1-2 0-.9-2.4 4.5-10.6 4.1-6.1 5.4-8.9 5-10.6-.4-1.8.9-4 6-10 5.5-6.4 6.5-8 5.6-9.6-.8-1.6-.3-2.6 3.2-5.9 9.1-8.6 19.9-17.4 21.1-17.1 1.3.3 10.3 10.9 31.6 36.7 4.7 5.7 12.1 14.8 16.5 20.1 4.4 5.4 13.6 16.7 20.5 25.1s14.8 18 17.5 21.3c2.8 3.4 9 11 13.9 16.9l8.9 10.9 5.6-.7c7.5-.8 12.2-2.4 14.4-4.6 1-1.1 2.6-1.9 3.7-1.9 1 0 2.2-.5 2.5-1 1-1.7 4.7-1.1 7 1 2 1.9 2.8 2 8.5 1.1 3.7-.6 14.2-.8 25.4-.4 19.4.6 33.8-.2 85.2-4.8 26.4-2.3 33.1-2.4 40.4-.4 7.1 1.9 15.9 2 16.6.1.5-1.2 4.3-2.3 15.4-4.3l4.5-.8-4.5-2.8c-2.5-1.5-4.3-2.7-4-2.7.9 0 27.4 7.8 30.2 8.8 1.4.6 2.9 1.6 3.3 2.1.3.6 2.6 1.1 5.1 1.1h4.4v-59.6l-9.7-5.1c-5.4-2.8-12.9-6.8-16.8-8.8-3.8-2-7.3-4.2-7.7-4.9s-1.1-4-1.4-7.2c-.4-3.8-2-8.4-4.3-12.9-2-3.9-3.7-7.2-3.9-7.5-.1-.3 1.1-1.3 2.7-2.3 3.5-2 9.5-13.7 10.7-20.7.2-1.4.7-3.7 1-5.1.3-1.9-.2-3.5-2-5.6-1.8-2.2-2.2-3.3-1.4-4.6 2.3-4.2 1.3-8.2-1.5-5.9-.7.6-4 1.6-7.4 2.3-5 1-6.4 1-7.7 0-2-1.7-2.1-5.1-.2-5.1.8 0 1.7-.7 2-1.6.9-2.2.8-2.4-1-2.4-1.3 0-1.3-.4.3-3.1 1-1.7 2.3-3.3 3-3.6.6-.3 1-1 .7-1.7-.2-.6.6-2.2 2-3.5 1.9-1.8 2.2-2.8 1.7-4.9l-.7-2.7L235.2.2 0 0zM476 1.5c0 1.9 2.1 1.9 4.6 0 1.8-1.4 1.7-1.4-1.3-1.5-2.3 0-3.3.5-3.3 1.5M492.5 3c-7.4 3.6-14 8.9-12.7 10.2.6.6 3.8-.9 8.4-3.9 4.2-2.6 8.3-5.3 9.3-5.8 1-.6 1.6-1.6 1.4-2.2-.3-.8-2.4-.2-6.4 1.7m-3.2 16.2c-3.5 2.6-4 3.4-3.2 4.9 1.3 2.5 2.6 2.4 3.4-.4.4-1.2 1.7-3.2 2.8-4.4 3.1-3.5 1.7-3.5-3-.1m-2.6 324.1c-2.9 5.6-15.9 21.7-27.1 33.5l-6.9 7.2h51.8l1.8-5.7c2.2-6.9 4.9-25.9 4.5-31l-.3-3.8-10-2.7c-5.5-1.5-10.2-2.7-10.5-2.8-.3 0-1.7 2.4-3.3 5.3"/></svg>