<svg xmlns="http://www.w3.org/2000/svg" width="682.667" height="512" version="1.0" viewBox="0 0 512 384"><path d="M0 192v192h446l-.2-4c-.1-2.9.7-5.3 3-9 1.8-2.8 3.2-5.4 3.2-5.7 0-.7 11.1-14.9 23.9-30.7l10.4-12.8-1.7-3.3c-2.3-4.2-1.8-5.5 2.4-6.9 3-.9 3.5-1.5 3.2-3.7-.3-2.6.3-3.1 7.2-5.3 1.3-.5 1.7-1.2 1.2-3-.6-2.4.8-4.1 6-7.2 1.6-.9 1.7-1.4.6-2.7-.8-.9-1.2-2.6-1-3.9.2-1.9 1-2.4 4.1-2.6l3.7-.3V230l-13.7.6c-14.2.7-15.3.3-8.9-3l3-1.5-3-1.3c-2.2-.9-10.1-1.2-31.4-1-16.5.1-37.2-.3-49-1.1-11.3-.8-32.2-1.5-46.6-1.6l-26-.2-8.4 6.6c-4.6 3.7-10 7.5-11.9 8.5-2 1-5.6 3.7-8.1 5.9-2.8 2.6-5.3 4-6.7 3.9-1.2-.2-3.1.8-4.5 2.3-2.9 3.1-11.9 5.1-18.3 4-3.4-.5-4.1-1.1-5-3.9-1.1-3.7-3-4.5-9.5-4l-4.3.3-40.4 56.5c-39.7 55.6-44.1 61.8-53.6 74.5l-4.7 6.4-5.3-3c-6.3-3.7-20.3-13.7-21.9-15.7-.9-1-.9-1.8.1-3.4.7-1.1 1-2.3.7-2.6-.4-.4-3.9-4-7.9-7.9-6.6-6.7-7.1-7.5-5.9-9.4 1.2-1.8.8-2.7-4.5-9.2-9-11.1-8.8-10.6-7-12.4 1.4-1.4 1.4-1.8-.2-4.2-8-11.6-10.2-16-9.1-17.8.9-1.5.3-3.7-3.4-11.8-3.2-7.2-4.2-10.3-3.5-11.2.8-.9.2-4-2.1-10.8-2.2-6.7-3-10.6-2.6-12.8.3-1.8.1-4.8-.5-6.7s-1.5-11.2-2-20.5c-1-19.6.2-40.1 3.2-54.1 1.1-5 1.7-9.7 1.4-10.6-.3-.8 1-5.9 3-11.2 2-5.7 3.3-10.7 2.9-12-.3-1.5 1-5.1 4.1-10.9 3.3-6.3 4.4-9.3 3.9-11.1-.4-1.9.8-4.4 5.5-11.5 3.4-5 5.6-9.3 5.1-9.6-2-1.2-.9-3.3 6.1-11.4 5.9-6.8 6.9-8.4 5.9-9.6-1.5-1.8-1.1-2.4 7-10.1 8.2-7.8 16.5-14.4 18.1-14.4.8 0 4.2 3.2 7.4 7.2 3.3 4 10.3 12.4 15.5 18.7 18.7 22.5 25.6 31 34 41.2 4.6 5.7 8.7 10.6 9 10.9s5.5 6.5 11.5 13.9c6.1 7.3 13.5 16.4 16.5 20.1s8.9 10.8 13 15.9l7.5 9.3 5.5-.7c8-.9 13.2-2.4 15.5-4.5 1.1-1 3.7-2.3 5.7-3.1 3.3-1.1 4.1-1 7.2.6 3.1 1.7 4.3 1.8 11.8.8 4.9-.6 16.1-.9 27.5-.6 19.5.6 37.7-.3 75.8-3.7 34-3.1 46.5-3.4 58.2-1.6 11.8 1.8 18.6 2.1 16.3.6-1.2-.7-1.1-1 .5-1.6 1.1-.4 3.5-1.3 5.4-2 1.8-.8 6.2-1.4 9.7-1.4 6.1 0 8.4-1.2 4.7-2.4-1-.4-2.9-1.5-4.3-2.6l-2.5-2 3.2.9c1.8.5 3.7 1.2 4.3 1.6.7.4 1-10.3 1-33.5 0-32.9-.1-34.2-2-35.8-1.4-1.2-2.3-3.8-3-8.8-1-7.8-1.5-9.1-6-17.4-1.7-3-3-5.6-3-5.7s1.8-1.2 3.9-2.4c3.2-1.8 4.6-3.5 7-9.1 3.7-8.3 3.9-10.7.6-13.8-1.9-1.8-2.2-2.7-1.4-4.1 1-1.9.2-6.9-1.1-6.9-.4 0-1.5-1.5-2.5-3.4-1.5-2.8-2.4-3.4-5.1-3.3-3.7.1-7.4-2.6-7.4-5.5 0-1 .7-1.8 1.5-1.8s1.5-.5 1.5-1.1c0-.5.5-.7 1-.4.6.3 1-.1 1-1 0-1.1-.6-1.4-2.4-.9-1.9.4-2.6.1-3.1-1.6-.4-1.2-.1-2.7.5-3.5C493.1.2 462.1 0 246.6 0H0zM507.6 1.6c-.4 1.1 0 1.5 1.6 1.2 1.2-.2 2.3-.9 2.6-1.6.6-1.8-3.5-1.5-4.2.4m2.2 11.1c-2.3.6-2.2 1.2.2 4.3l2 2.5v-3.8c0-2-.1-3.6-.2-3.6-.2.1-1.1.3-2 .6m-2.3 348.5c-2.2 2.8-8 9.1-12.8 14l-8.8 8.8H512v-14c0-7.7-.1-14-.3-14s-2.1 2.3-4.2 5.2"/></svg>