<svg xmlns="http://www.w3.org/2000/svg" width="682.667" height="512" version="1.0" viewBox="0 0 512 384"><path d="M0 192v192h167.3l-9.4-6.7c-9.1-6.5-12.9-9.8-12.9-11.3 0-.4.7-1.3 1.5-2 1.4-1.1.4-2.4-7-9.7-8.5-8.3-9.4-9.6-7.5-10.8s.9-3.3-4.8-10.1c-7.7-9.2-8.4-10.5-6.7-12.4 1.2-1.3.6-2.8-4.6-10.8-6-9.3-6.6-11-5-12.8.6-.5-.9-4.9-3.9-11.4-3.5-7.7-4.5-10.8-3.8-12 .7-1.1 0-4.7-2.5-12.5-2.3-7.4-3.1-11.4-2.5-12.2s.3-3.9-.8-9c-1.4-6-1.8-12.5-1.8-28.3-.1-26.2.8-39.5 3.3-49.5 1.1-4.3 1.8-8.9 1.5-10.2-.4-1.3.9-6.1 3-11.9 2.2-5.9 3.4-10.5 3-11.9-.4-1.6 1-5.4 4.6-12.5 3.8-7.2 5-10.4 4.2-11.2-1.4-1.4-.2-3.8 6.7-13.8 3.5-5 4.8-7.7 4.1-8.4-1.8-1.8-1.1-3.2 6-11.2 6.7-7.6 8.3-10.8 5.9-11.6-1.8-.6 3.4-6 15.5-16.4l11.1-9.6 4.8 5.2c4.5 4.9 8.2 9.3 28.7 34.5 4.5 5.5 10.1 12.2 12.5 15 2.3 2.7 7.6 9.1 11.6 14.1 14.9 18.3 24.4 30 26.6 32.4 2.3 2.7 12 14.6 26.8 32.9l9 11.1 5-.5c9.1-1 14.3-2.6 16.6-5.1 1.2-1.3 2.9-2.4 3.6-2.4s2.2-.6 3.3-1.3c1.7-1 2.6-.9 5.8.9 3.3 1.9 4.4 2.1 10.2 1.2 3.6-.5 22.7-1.1 42.5-1.2 23.8-.2 41.6-.9 52.5-2 18.6-1.9 33.9-3.2 54.6-4.6 13.3-1 17.2-.8 30.2 1.6l3.2.6V0H0z"/><path d="M360.5 218.9c-1.7.4-6 3.1-9.5 6-3.6 2.9-9.4 7-13 9.2s-8.5 5.6-10.9 7.5c-2.7 2.2-5 3.3-6.1 2.9s-2.3.3-3.4 1.9c-1.8 2.9-7 4.6-15.4 5-6.9.4-8.8-.5-9.7-4.4-.4-1.6-1-3.2-1.3-3.4-.4-.2-3.5-.6-6.9-.7l-6.2-.4-9.4 13c-5.1 7.1-18.3 25.6-29.2 41-34.9 49.1-54.7 76.9-58.2 81.4-1.8 2.4-3.3 4.8-3.3 5.2 0 .5 65.9.9 146.6.9 93.6 0 146.3-.3 145.9-1-.8-1.3 3.1-8.7 9.7-18.6 5.4-7.9 27.5-35.6 29-36.2 2.5-1.1 2.7-4.2.6-7.8l-2.2-3.7 2.2-1.8 2.2-1.7v-93.3l-5.2.8c-7.7 1.2-47 .8-71.3-.6-27.1-1.5-71.1-2.3-75-1.2"/></svg>