<svg xmlns="http://www.w3.org/2000/svg" width="682.667" height="512" version="1.0" viewBox="0 0 512 384"><path d="M0 192v192h176.5l-4.2-3.6c-4.7-3.9-5.1-4.9-2.8-7.4 1.3-1.5.6-2.5-8-11-9.3-9.1-9.5-9.4-8-11.7s1.3-2.7-6.5-12.5c-7.5-9.4-8-10.2-6.4-11.9 1.8-2 1.5-2.9-4.6-11.9-6-8.9-7.2-11.7-5.9-13.7.8-1.4 0-4.1-4.1-13.3-4-8.8-5-11.8-4.2-13.1.8-1.2.2-4.4-2.4-12.5-2.1-6.6-3.3-12-3-13.7.3-1.5-.3-7.8-1.3-14-1.6-9.4-1.8-15-1.5-35.2.6-32.8.6-32.8 4-47.3.9-3.5 1.3-7.5 1-9-.4-1.8.6-6.1 3-12.7 2.1-5.5 3.8-12 3.8-14.5.1-3.3 1.5-7.1 5.3-14.5 3.4-6.4 4.9-10.3 4.3-10.9-1.7-1.7-1.1-3.1 5.6-13.1 5.8-8.6 6.5-10.1 5.5-12.2s-.3-3.3 7.1-12c7-8.4 7.9-9.9 6.9-11.5-.6-1-.8-2.5-.4-3.2 2-3.4 26-24.6 27.9-24.6.7 0 4.1 3.3 7.5 7.2 3.5 4 6.6 7.5 7 7.8.3.3 3.2 3.9 6.4 8s8.4 10.4 11.5 14 8.5 10.1 12 14.5c3.6 4.4 7 8.6 7.8 9.4.7.7 5 5.8 9.5 11.3 14.3 17.5 28.9 35.2 40.2 48.9 6.1 7.3 15.2 18.4 20.3 24.6 8.8 10.7 9.4 11.3 13 11.3 6.3 0 17.4-2.8 19.7-5 1.2-1.1 3.9-3 6.1-4l3.9-2 2.9 2.1c2.8 2.1 3.3 2.1 15 1.1 7-.6 21.2-.8 33.7-.5 13.2.4 27.3.1 36.5-.6 32.2-2.6 62.1-5.2 66.7-5.8l4.7-.6V0H0z"/><path d="M404.6 213.7c-1.7.2-6.2 3.1-10 6.3-3.9 3.2-10.9 8.1-15.6 10.9s-10.7 6.6-13.4 8.6c-2.9 2.1-5.6 3.3-6.6 3-1.1-.3-2.1.3-3 1.9-.7 1.4-2.7 3-4.4 3.6-4.1 1.4-14.7 2.4-17.8 1.7-2.5-.7-4.8-4.3-4.8-7.5 0-1.5-1.2-1.7-8.9-1.7h-8.9l-10.9 15.2c-12.2 17.1-21.9 30.8-27.8 39.3-2.2 3.2-8.8 12.5-14.6 20.6-32.2 45.5-45.9 64.8-47.3 67.2-.6.9 29.8 1.2 150.3 1.2H512V216.4l-22.7-1.3c-24.2-1.3-79.8-2.3-84.7-1.4"/></svg>