<svg xmlns="http://www.w3.org/2000/svg" width="682.667" height="512" version="1.0" viewBox="0 0 512 384"><path d="M144.5 2c4.5 4.9 19.2 7.1 73.7 11 10.3.7 14.8 1.5 17.7 2.9 2.1 1.1 5.8 2.5 8.2 3 8.5 2.1 40.7 3.1 63.5 2.1 17.2-.8 27-.7 45.4.5C424.9 26 483.7 29 501.8 29c9.4 0 10.2-1.3 10.2-16.7V0H142.7zm123.6 140.5c-15.9 1.4-22.4 3-31.4 8-9.3 5.2-18.5 18-23 32-.9 2.7-2.3 10.7-3.2 17.6-1.4 11.4-1.4 13.7 0 23.5 2.9 20 8.3 32.5 18 41.9 15.7 15.3 25.5 21.5 37.2 24 12.1 2.6 20.8 1.5 35.1-4.3 21-8.6 37.5-24 50.7-47.2 4.1-7.1 8.5-22.6 8.5-29.7 0-11.2-6.2-29.7-12.4-37-1.5-1.7-6.5-5.3-11.2-7.8-4.9-2.7-12.7-8.3-18-13-8.6-7.5-9.9-8.3-14.7-8.9-7.2-.8-17.5-.6-35.6.9"/></svg>