<svg xmlns="http://www.w3.org/2000/svg" width="682.667" height="512" version="1.0" viewBox="0 0 512 384"><path d="M0 192v192h191.5l1.4-2.2c1.3-2 .8-2.7-8.3-11.5-5.3-5.1-9.6-9.6-9.6-10 0-.5.6-1.8 1.4-2.9 1.4-1.9.9-2.7-6-11-9.3-11.1-10.4-13-8-14.7 1.7-1.2 1.4-1.9-3.6-9.8-10-15.4-9.9-15.3-8.2-17 1.3-1.4 1-2.7-3.4-12-6-12.6-6.7-14.6-5.4-16.2.7-.8-.1-4.5-2.5-11.7-2.2-6.8-3.6-13-3.8-17.5-.2-3.9-1-10.2-1.8-14.1-1.1-4.8-1.7-13.9-1.9-29-.4-27.9.5-45.2 2.7-53.4 1-3.6 1.7-9.2 1.7-12.5 0-4.4 1-8.9 4-17.3 3-8.7 3.7-11.6 2.8-12.7-.9-1 .1-4 4.6-13.4 4.6-9.7 5.4-12.3 4.5-13.5-1.5-1.8-.3-4.4 7.7-16.3 5.1-7.7 5.4-8.5 4.2-10.8-1.5-2.8-2.3-1.5 8.9-14.8 7.3-8.6 7.4-8.8 5.5-10.8-1.8-2-1.7-2.1 7.6-11.3 5.2-5 11.7-11.1 14.4-13.4l4.9-4.2H0zM214.1 7.2c3.5 4 7 8 7.9 8.8 1 .8 6.8 7.6 13 15s13.4 15.8 15.9 18.5c4.7 5.2 19.1 21.9 36.5 42.4 5.4 6.4 10.1 11.8 10.5 12.1.3.3 5.6 6.3 11.6 13.5 6 7.1 11.5 13.4 12.1 14 .6.5 6.1 6.8 12.1 14 6 7.1 12.1 14.4 13.6 16l2.8 3.1 10.5-1.8c11.3-1.9 13.8-2.8 15.3-5.7.6-1 3-2.6 5.5-3.5 4.4-1.7 4.6-1.7 7.5.5 2.8 2.1 3.1 2.1 11.8.8 6.2-1 16.3-1.3 33.9-1.1 22.6.3 66.3-1.7 74.7-3.4l2.7-.6V0H207.8zM440 210.7c-1.4.9-4.5 3.4-6.9 5.5-4.8 4.2-18.6 13.5-24.1 16.3-1.9 1-5.6 3.6-8.2 5.7-3.2 2.7-5.2 3.8-6.5 3.4s-2.3.2-3.6 2.3c-1.4 2.4-2.7 3-9.9 4.5-10.1 2-15 1-17.3-3.3-.8-1.6-1.2-3.1-.9-3.3 1.4-1.4-3.1-2.6-10.8-2.9l-8.8-.4-12.4 18c-6.9 9.9-14.4 20.7-16.7 24-12 17.5-32.3 46.8-36.3 52.5-11.3 16.2-34.6 50.2-34.6 50.6 0 .2 60.5.4 134.5.4H512V210.3l-9.7-.6c-5.4-.4-21.1-.7-34.8-.7-21.9 0-25.4.2-27.5 1.7"/></svg>