<svg xmlns="http://www.w3.org/2000/svg" width="682.667" height="512" version="1.0" viewBox="0 0 512 384"><path d="M0 192v192h512V218.3l-3.9-1.1c-6.7-2.1-9.2-9.2-5.1-14.5 1.1-1.4 2-3 2-3.5s-4.2-2-9.2-3.2c-5.1-1.2-10.6-2.9-12.1-3.7-5.1-2.6-6.3-10.3-2.3-14.6l2.4-2.6-4.3-2c-2.3-1.1-5.5-3.4-7-5.2-2.3-2.8-2.6-3.9-2.2-7.8.4-3.3 1.2-5.2 3.2-6.8l2.7-2.3-4.9-2.2c-4.4-1.9-22.3-10-62.8-28.3-8.8-3.9-18.5-8.3-21.5-9.7s-9.4-4.4-14.2-6.6c-4.9-2.3-8.8-3.8-8.8-3.5s-.6.1-1.3-.5-8-4.1-16.2-7.7c-8.3-3.7-15.4-7-16-7.4-.5-.5-3.4-1.6-6.2-2.6-2.9-1.1-5.3-2.2-5.3-2.6s-1-1.1-2.2-1.5c-1.2-.3-5.1-2-8.7-3.7-3.7-1.7-7-3.1-7.6-3.2-.5 0-2.2-.9-3.7-1.9s-3.7-1.9-5-2.1c-5.9-1-12.8-4-12.5-5.5.1-1.1-.5-1.4-2.7-1.2-1.8.3-2.6 0-2.2-.7.4-.6.2-1.1-.4-1.1-1.2 0-15.4-6.4-21.3-9.5-1.5-.8-2.5-1-2.2-.5s-.7.5-2.6 0c-4.1-1.2-5.3-2.4-1.4-1.5 2.2.6 2.7.5 2-.4-.6-.6-2.4-1.3-4-1.5-5.4-.9-10.5-3.1-10.1-4.3.3-.8-1.1-1.4-4-1.9-2.4-.3-4.4-.9-4.4-1.3s-1.3-1.5-3-2.4c-1.6-1-3-1.5-3-1.1 0 .3-.6.1-1.4-.5-.8-.7-2.7-1.4-4.3-1.7-1.5-.3-3.3-1.1-3.9-1.9s-1.6-1.5-2.2-1.5c-2.5 0-2-4.4 1.7-14.6 2.1-6 4.2-11.7 4.6-12.7.7-1.6-4.8-1.7-106.9-1.7H0zm220.2-93.1c1.3-2 2.5-2.4 8.5-2.7 6-.4 7.4-.1 9 1.5 1.8 1.8 2.6 1.9 7.1 1 6.2-1.3 7.3-.5 4.2 2.7l-2.2 2.5 1.9 2.7 2 2.7-3.3 3c-3.4 2.9-3.4 3-3.4 11.3 0 6.7.3 8.4 1.5 8.4 3.9 0 6.6 2.6 10.5 10.2 2.2 4.4 4 8.5 4 9.2s-2.5 4.8-5.5 9c-5.8 8-6.4 9.6-4.1 9.6 2.6 0 2.6 1.7.1 7.5l-2.6 5.7 3 4.7c1.6 2.5 3.2 5.6 3.6 6.8.3 1.3 1 2.3 1.4 2.3.3 0 1.5 1.4 2.5 3.1 1.3 2.2 1.5 3.4.7 4.2-.7.7-1.3.4-2-1.4-.7-1.7-1-1.9-1-.7-.1 1 .8 2.7 1.9 3.8s2 2.7 2 3.6.9 3.2 2.1 5c1.1 1.8 3.8 7.5 6 12.6 3.9 9.2 3.9 10.7 0 10.8-1 0-1 .6.4 2.6 2 3.1 1.5 3.8-3.2 4.1-2.3.1-4.6 1.2-6.3 2.8-2 1.9-3.4 2.4-5.2 2-1.7-.4-2.9 0-4.3 1.5-1.9 2.2-3.7 11.4-2.4 12.7.4.5.4 4.6 0 9.3-.5 5-.4 9.7.2 11.3 2 5.9-3.6 10.7-8.6 7.5-2.1-1.5-2.2-2.1-2.1-15 .1-7.5.5-14.1.9-14.7.4-.7.4-1.9.1-2.7-.5-1.2-1.2-1.1-4.3 1.1-4.2 2.8-9.4 3.2-13.3 1-1.4-.8-3.7-1.4-5.1-1.5-2.3 0-2.7.5-3.9 5.7-.7 3.1-1.2 9.1-1.2 13.2 0 4.2-.5 8.2-1 8.8-1.5 1.8-6.7 1.6-10.8-.5-4.5-2.2-4.9-6-.7-8 1.5-.7 2.7-2.1 2.7-3s.5-5.7 1-10.6c.7-7.3.6-9.1-.5-10.3-.8-.8-1.5-2.5-1.5-3.8 0-1.2-.7-2.6-1.6-2.9-2.5-.9-1.1-8.5 4.2-24.2 5-15.1 5.3-16.8 2.4-15.9-2.5.8-2.6-1.1-.5-6.2 1.2-2.9 1.3-4.2.3-6.9-.9-2.6-.8-5 .4-12 1.3-7.5 1.4-9.2.2-12-1.8-4.4-1.8-4.8.8-5.9 3-1.4 4.9-7.7 5-16.4 0-7.6 1.9-12.4 6.2-16 1.1-1 1.6-3 1.6-7 0-7.6-.6-9.3-4.3-11.6-2.5-1.6-3.2-2.8-3.2-5.3 0-2.2-.7-3.7-2.5-4.9l-2.5-1.7 4-1.2c3.5-.9 4-1.5 4.3-4.4l.3-3.3 2.3 3.7 2.2 3.8z"/><path d="M245 150c0 1.1.4 1.9.9 1.6.4-.3.5 1.3 0 3.7-1.4 7.2-1 7.4 2.3 1 1.8-3.4 3-6.4 2.8-6.7-.3-.2-1.7-.7-3.3-1.1-2.3-.6-2.7-.4-2.7 1.5m-29.9 13.6c0 1.1.3 1.4.6.6.3-.7.2-1.6-.1-1.9-.3-.4-.6.2-.5 1.3M381 3.1c4.9 4.3 21 17.6 35 28.9 6.5 5.2 16.2 13.1 21.5 17.5 11 9.1 22.4 18.3 41.1 33.4 7.1 5.8 13.1 10.8 13.4 11.1s4.9 4.1 10.3 8.3l9.7 7.7V0h-67.2l-67.3.1z"/></svg>