<svg xmlns="http://www.w3.org/2000/svg" width="682.667" height="512" version="1.0" viewBox="0 0 512 384"><path d="M0 192v192h512v-97.1c0-95.6 0-97.1-2-99.6-2.6-3.3-2.6-9.2 0-14.3 2.9-5.7 2.6-6.7-2-7.5-3.4-.6-4.4-1.3-6.1-4.7-2.1-4-2.1-7.1-.4-13.9.5-1.8.2-2.8-.8-3.2-1.4-.5-65.7-43.1-147.6-97.6-21.2-14.1-38.9-25.8-39.5-26s-1.5-.8-2.1-1.3c-.5-.5-7.2-5-14.7-9.9L283.1 0H0zm220.2-93.1c1.3-2 2.5-2.4 8.5-2.7 6-.4 7.4-.1 9 1.5 1.8 1.8 2.6 1.9 7.1 1 6.2-1.3 7.3-.5 4.2 2.7l-2.2 2.5 1.9 2.7 2 2.7-3.3 3c-3.4 2.9-3.4 3-3.4 11.3 0 6.7.3 8.4 1.5 8.4 3.9 0 6.6 2.6 10.5 10.2 2.2 4.4 4 8.5 4 9.2s-2.5 4.8-5.5 9c-5.8 8-6.4 9.6-4.1 9.6 2.6 0 2.6 1.7.1 7.5l-2.6 5.7 3 4.7c1.6 2.5 3.2 5.6 3.6 6.8.3 1.3 1 2.3 1.4 2.3.3 0 1.5 1.4 2.5 3.1 1.3 2.2 1.5 3.4.7 4.2-.7.7-1.3.4-2-1.4-.7-1.7-1-1.9-1-.7-.1 1 .8 2.7 1.9 3.8s2 2.7 2 3.6.9 3.2 2.1 5c1.1 1.8 3.8 7.5 6 12.6 3.9 9.2 3.9 10.7 0 10.8-1 0-1 .6.4 2.6 2 3.1 1.5 3.8-3.2 4.1-2.3.1-4.6 1.2-6.3 2.8-2 1.9-3.4 2.4-5.2 2-1.7-.4-2.9 0-4.3 1.5-1.9 2.2-3.7 11.4-2.4 12.7.4.5.4 4.6 0 9.3-.5 5-.4 9.7.2 11.3 2 5.9-3.6 10.7-8.6 7.5-2.1-1.5-2.2-2.1-2.1-15 .1-7.5.5-14.1.9-14.7.4-.7.4-1.9.1-2.7-.5-1.2-1.2-1.1-4.3 1.1-4.2 2.8-9.4 3.2-13.3 1-1.4-.8-3.7-1.4-5.1-1.5-2.3 0-2.7.5-3.9 5.7-.7 3.1-1.2 9.1-1.2 13.2 0 4.2-.5 8.2-1 8.8-1.5 1.8-6.7 1.6-10.8-.5-4.5-2.2-4.9-6-.7-8 1.5-.7 2.7-2.1 2.7-3s.5-5.7 1-10.6c.7-7.3.6-9.1-.5-10.3-.8-.8-1.5-2.5-1.5-3.8 0-1.2-.7-2.6-1.6-2.9-2.5-.9-1.1-8.5 4.2-24.2 5-15.1 5.3-16.8 2.4-15.9-2.5.8-2.6-1.1-.5-6.2 1.2-2.9 1.3-4.2.3-6.9-.9-2.6-.8-5 .4-12 1.3-7.5 1.4-9.2.2-12-1.8-4.4-1.8-4.8.8-5.9 3-1.4 4.9-7.7 5-16.4 0-7.6 1.9-12.4 6.2-16 1.1-1 1.6-3 1.6-7 0-7.6-.6-9.3-4.3-11.6-2.5-1.6-3.2-2.8-3.2-5.3 0-2.2-.7-3.7-2.5-4.9l-2.5-1.7 4-1.2c3.5-.9 4-1.5 4.3-4.4l.3-3.3 2.3 3.7 2.2 3.8z"/><path d="M245 150c0 1.1.4 1.9.9 1.6.4-.3.5 1.3 0 3.7-1.4 7.2-1 7.4 2.3 1 1.8-3.4 3-6.4 2.8-6.7-.3-.2-1.7-.7-3.3-1.1-2.3-.6-2.7-.4-2.7 1.5m-29.9 13.6c0 1.1.3 1.4.6.6.3-.7.2-1.6-.1-1.9-.3-.4-.6.2-.5 1.3m193-153.1C415.5 16.3 424 23 427 25.4c3 2.5 11.6 9.2 19 15s18.2 14.4 24 18.9c5.8 4.6 15 11.9 20.5 16.1 5.5 4.3 12 9.4 14.4 11.4 2.4 2.1 5 4.1 5.7 4.5 1.2.7 1.4-6.7 1.4-45.3V0H394.8z"/></svg>