<svg xmlns="http://www.w3.org/2000/svg" width="682.667" height="512" version="1.0" viewBox="0 0 512 384"><path d="M0 192v192h512V140.8l-2.2-1.8c-1.3-1-15.6-10.7-31.8-21.5-16.2-10.9-29.6-20.2-29.8-20.7-.2-.4-.8-.8-1.3-.8-.6 0-10.8-6.6-22.7-14.7-11.9-8-38.1-25.6-58.2-39.1s-42.4-28.5-49.6-33.4l-13-8.8H0zm221.2-93.5c3.8-3.2 13.7-3.6 16.7-.6 1.6 1.6 2.4 1.7 6.9.8 6.1-1.3 7.3-.5 4.4 2.6-2.1 2.2-2.1 2.3-.4 5.2l1.8 2.9-3.3 2.9c-3.2 2.9-3.3 3.1-3.3 11.3 0 6.9.3 8.4 1.5 8.4 4 0 7.3 3.1 10.8 10.1 2.1 4 3.7 7.9 3.7 8.8s-2.5 5.2-5.5 9.5c-5.3 7.7-5.9 9.6-2.9 9.6.8 0 1.4.3 1.4.7 0 1.2-3.5 10.1-4.2 10.9-.8.8 6.8 15 9.5 17.7 1.3 1.3 1.7 2.6 1.2 4.6-.4 2.1.5 5.2 3.9 12.2 5.5 11.4 8.9 20.3 7.8 20.7-3 1.1-3.7 2.2-2.4 4.2 1.6 2.7.9 3.9-2.2 3.3-1.5-.3-3.8.4-6.2 2.1-2.1 1.4-5 2.6-6.5 2.6-5.3 0-6.3 2.7-6.7 17.8-.2 7.5-.3 14.1-.4 14.7 0 .5.3 2.4.7 4.1 1.3 5.9-5.3 9.6-9.5 5.4-2.1-2.1-2.5-4.1-1.2-6.8.5-.9.5-6 .2-11.2-.4-5.7-.3-10 .3-10.7.5-.7.7-2 .3-2.8-.5-1.4-1.1-1.2-4.3 1-4.5 3-7.6 3.1-13.3.6-2.3-1-5-1.7-5.9-1.4-2.3.6-4.1 9.4-4.1 19.5 0 9-1 10.3-7 9.5-8.4-1.1-11.8-6.2-6.1-9.1 3.1-1.7 3.2-1.9 4.6-17.9.5-4.5.3-6.7-.4-6.7-.6 0-1.1-.9-1.1-2 0-1-1-2.8-2.1-3.9-2-1.8-2.1-2.4-1-8.3.6-3.5 2.9-11.4 5.1-17.6 4.3-12.3 4.9-15.8 2.5-14.9-2.3 1-2.7-.9-1-5 1.4-3.1 1.4-4.4.4-7.5-.9-2.9-.9-5.2.4-12.2 1.4-7.6 1.5-9 .2-12.7-.9-2.3-1.4-4.3-1.3-4.4.2-.1 1.3-.7 2.5-1.4 2.8-1.4 4.5-7.6 4.5-16.1 0-6.6 2.4-12.8 6.2-16 1.2-.9 1.6-3.2 1.6-8.7 0-7.4 0-7.4-3.5-9.4-1.9-1.2-3.5-2.4-3.6-2.7-.1-.4-.2-2-.3-3.5 0-1.7-1.1-3.6-2.6-4.7l-2.5-1.9 4.3-.7c4.1-.6 4.2-.7 4.2-4.8l.1-4.1 2.1 4.2 2 4.3z"/><path d="M246.2 152c-.1 2.5-.5 5.8-.8 7.5-.4 2.4.1 1.8 2.5-2.5 3.6-6.6 3.7-7.2.8-8.5-2.1-1-2.2-.9-2.5 3.5m9.8 50.2c0 .9.5 2 1 2.3 1.3.8 1.3-.5 0-2.5-.8-1.3-1-1.3-1 .2M415.6.9c.5.5 3.4 2.9 6.5 5.3 10.6 8.1 41.4 32.2 48.4 37.8 3.9 3.1 11.5 9.2 17 13.5s13.3 10.5 17.3 13.7L512 77V0h-48.7C434 0 415 .4 415.6.9"/></svg>