<svg xmlns="http://www.w3.org/2000/svg" width="682.667" height="512" version="1.0" viewBox="0 0 512 384"><path d="M0 192v192h512V117.5L440.8 70c-39.1-26.1-71.7-48.1-72.4-48.8-.7-.6-1.5-1.2-1.8-1.2s-4-2.4-8.2-5.3c-4.2-2.8-9.1-6-10.8-7.1-1.7-1-3.3-2.1-3.6-2.5s-2.1-1.7-4.1-2.9L336.3 0H0zm218.7-93.3.5 2.3 3-2.5c3.5-3 11.5-3.4 16.3-.9 2.3 1.2 4.5 1.4 9 .9l6-.7-2.7 2.7c-2.6 2.8-2.6 2.8-.8 6l1.8 3.2-3.2 2.7c-3.1 2.8-3.1 2.8-2.8 11.2.3 7.1.6 8.4 2.1 8.4 2.3 0 6 2.8 7.2 5.4.5 1.1 2.3 4.3 3.9 7.1 1.6 2.7 2.9 5.6 3 6.3 0 .8-2.5 4.9-5.5 9.3-5.4 7.8-6 9.9-2.8 9.9.8 0 1.3.6 1 1.2-.3.7-1.5 3.6-2.7 6.4l-2.1 5 3.6 6.5c2 3.5 4.7 7.5 6 8.9 1.7 1.8 2.3 3.6 2.2 6.5-.1 2.8.7 5.3 2.8 8.5 3.3 5.2 10.5 22.1 9.8 23.2-.2.5-1.1.8-2 .8-1 0-1.4.6-1 1.7 1.3 4.7 1.2 4.8-2.2 5.1-1.9.2-5 1.4-7 2.8-2 1.3-4.7 2.4-6.2 2.4-1.4 0-3.4.9-4.4 2-1.9 2.1-3.7 11.7-2.3 12.2.4.2.4 4.3-.1 9.3-.4 5.1-.4 10.1.1 11.4 1.2 3.4-.8 8-3.8 8.7-2.6.7-7.1-1.7-8.1-4.2-.3-.8-.1-2.2.3-3.2 1.2-2.5 1.1-26.2-.1-26.2-.5 0-2.3.9-4 2-3.8 2.5-6.6 2.5-11.7-.1-4-2-9.6-2-8.3.1.4.6.1 2.7-.6 4.8-.7 2-1.5 8-1.8 13.2l-.6 9.5-4.5-.1c-9.8-.1-14.1-5.4-7.6-9.2l3.6-2.1v-8c0-4.4.5-8.3 1-8.6 1.6-1 1.1-3.9-1-5.8-1.1-.9-2-2.5-2-3.6 0-1-.7-2.2-1.6-2.5-2.4-.9-1.3-7.6 4.1-23.6 2.5-7.4 4.5-14.2 4.5-15.2 0-2.1-1.6-2.4-2.3-.6-.3.7-.6-.1-.6-1.9-.1-1.8.4-4.4 1.1-5.8.9-2 .9-3.4-.1-6-1-2.9-.9-4.9.5-11.9 1.5-7.8 1.5-8.8 0-13.1-1.5-4.6-1.5-4.7.5-5.2 3.3-.9 5.3-6 5.5-14.8.1-4.4.2-8.5.3-9.1s1.9-3.1 4.1-5.6l3.9-4.5-.6-7.3c-.6-6.9-.8-7.3-4-9.3-2.8-1.6-3.4-2.5-3-4.5s-.2-3.3-2.5-5.4l-3-2.8 4.1-.6c4-.6 4.1-.7 4.1-4.8.1-3.9.1-4 1.6-2.1.8 1.1 1.7 3 2.1 4.2"/><path d="M247 152c0 6.9 1.3 7.7 3.8 2.5 2.1-4.4 2.1-4.5.2-5.5-1.5-.8-2-.8-2 .2 0 .9-.3.9-1-.2s-1-.3-1 3M461.9 3.8c4.2 3.6 11.6 9.4 28.6 22.4 4.4 3.4 8.2 6.4 8.5 6.7.4.5 8.4 6.9 11.8 9.4.9.7 1.2-3.5 1.2-20.7V0h-27.2l-27.3.1z"/></svg>