<svg xmlns="http://www.w3.org/2000/svg" width="682.667" height="512" version="1.0" viewBox="0 0 512 384"><path d="M0 192v192h512V62.5l-12.3-8.1c-6.7-4.5-20.2-13.5-30.1-20-9.8-6.6-19.2-12.7-21-13.7-1.7-1-4.8-3.2-6.8-4.8s-4.1-2.9-4.7-2.9c-.5 0-1.1-.4-1.3-.8-.1-.4-2.1-1.9-4.3-3.2s-4.4-2.8-5-3.2c-.5-.5-2.7-1.9-4.8-3.3L417.9 0H0zm223-95 1.3 4 2.4-2.2c3.2-3 13.1-3.8 17-1.3 1.9 1.3 4.4 1.7 8.7 1.7l6.1-.2-2.7 2.4c-1.5 1.4-2.4 2.6-1.9 2.8.4.2 1.4 1.6 2.2 3.3 1.4 2.9 1.3 3.1-1.6 4.6-2.8 1.5-3 2-3.3 8.5-.4 9.2.1 10.6 4.5 12.5 2.6 1.1 4.4 2.8 5.8 5.5 1 2.1 2.7 5 3.7 6.3 3 4 2.2 7.5-3.7 16.3-5.2 7.7-5.4 8.3-3.5 9 2.5.9 2.5.5-.4 6.9-1.4 2.9-2.2 5.7-1.9 6.3.4.6 3.2 5 6.4 9.8 3.8 5.7 5.6 9.3 5.2 10.6-.3 1.3.8 3.7 3.1 6.8 5.1 7 14.8 21.6 14.4 21.9-.2.1-1.1.6-2 1.1-1.6.9-1.6 1.2-.3 3.8 1.9 3.7 2 3.6-1.2 3.6-1.4 0-5 1.3-8 3-2.9 1.6-6.2 3-7.3 3s-3.4 1.3-5.2 3c-1.7 1.6-3.4 3-3.8 3-1.9 0-2.8 6.8-2.6 21 .2 12.3-.1 15.9-1.3 17.2-2 2.5-5.5 2.2-8.8-.6-2.5-2.2-2.6-2.7-1.5-4.6.9-1.4 1.2-5.9 1-15-.1-7.2-.4-13-.5-13s-1.7.9-3.5 2c-3.9 2.3-7.3 2.5-10.8.5-3.7-2.1-11.9-1.7-10.5.5.3.4 0 3.4-.6 6.6s-1.1 9.2-1.2 13.3l-.2 7.6-2.9.3c-3.6.4-11.2-1.6-12.7-3.4-1.6-2-.2-5 3-6.4 2.6-1 2.9-1.7 3.4-7.8.3-3.7.9-8.8 1.3-11.4.6-4.3.5-4.6-1.7-5-1.7-.2-2.5-1-2.7-2.8-.2-1.4-1-3-1.9-3.7-2.3-1.7-1.2-6.9 4.7-23 5.3-14.3 6-17.9 3.5-16.9-2 .7-2-3.1.1-7.2 1.2-2.5 1.3-3.6.3-5.3-.9-1.8-.9-4.1.1-10.4 1.2-7.7 1.1-10-.5-16.7-.6-2.1-.3-2.7 1.5-3.3 2.5-.8 3.7-3.5 4.9-11.3.6-3.8.5-6.2-.2-7.4-1.4-2.1.7-6.9 5.3-12.2 3.1-3.4 3.2-4 2.8-10.1-.3-5.5-.8-6.8-2.8-8.2-5-3.5-6-5.1-5-7.7.7-2.1.5-2.7-1.7-4.1-2-1.4-2.3-1.9-1.2-2.6.8-.5 2.4-.9 3.7-.9 1.9 0 2.2-.5 2.2-4 0-5.1 1.3-5.1 3 0"/><path d="M253.4 153.1c.1 2.7.4 4.9.7 4.9.9 0 4.3-7.9 3.7-8.5-.3-.3-1.4-.7-2.5-.9-1.8-.4-2 .1-1.9 4.5"/></svg>