<svg xmlns="http://www.w3.org/2000/svg" width="682.667" height="512" version="1.0" viewBox="0 0 512 384"><path d="M0 192v192h512V45l-34-22.5L444.1 0H0zm224.6-94.4c1.4 3 1.9 3.4 2.8 2.2 2.9-3.9 12.5-5.1 18-2.3 1.5.8 5.3 1.5 8.4 1.5h5.5l-2 2.2c-2.1 2.3-2.1 2.3-.2 5.8 1.5 2.7 1.6 3.6.6 4-4.8 1.9-5.3 3.2-4.9 12.2.3 6.5.8 8.8 1.8 8.8 3.5 0 6.4 2.7 10.3 9.5 2.2 4 4.1 8 4.1 8.9s-2.6 5.5-5.7 10.3c-3.2 4.7-5.3 8.8-4.8 9 3.3 1.1 3.4 1.9 1 6.8-1.4 2.6-2.5 5.3-2.5 5.9s1.6 3.5 3.5 6.5c1.9 2.9 3.5 5.6 3.5 5.9 0 .4 1.2 1.8 2.6 3.1 1.9 1.8 2.4 3.2 2.1 5-.4 2 1 4.8 6.7 12.6 4 5.5 8.3 11.5 9.5 13.3l2.3 3.3-2.1.6c-2.5.6-2.6 1.3-.6 3.9 2.1 2.8 1.9 3.2-2.2 4-2.1.4-5.1 1.7-6.8 2.9-1.6 1.3-4.6 2.6-6.5 3-7.5 1.6-16.2 13.1-12.9 17.1.6.7.8 2.2.4 3.3-.3 1.1-.6 7-.7 13.1 0 10.9-.1 11.2-2.5 12.3-4.7 2.1-10.7-3.2-8.5-7.5 1-2 1.4-26.8.4-26.8-.2 0-2 1-4.2 2.2-3.9 2.3-3.9 2.3-9.3.4-3.5-1.2-6.7-1.6-8.9-1.2-3.7.7-3.4-.7-4.1 17.2-.3 5.6-.8 10.7-1.1 11.3-1 1.6-6.4 1.3-11.4-.6-3.7-1.4-4.3-2-4-4.2.2-1.6 1.3-3 3-3.9 2.4-1.1 2.7-1.9 3.3-9 .3-4.2 1.1-8.7 1.7-9.9 1.4-2.9.5-5.1-2.4-5.5-1.6-.2-2.4-1.1-2.6-2.8-.2-1.4-1.1-3.1-1.9-3.7-2.2-1.7-.8-7.6 5.6-24.7 4.8-12.6 5.4-16 2.5-14.9-1.9.7-1.8-2 .2-6.4 1.4-2.8 1.5-4.1.6-6.9-.8-2.7-.7-5.5.4-11.5 1.4-7.2 1.4-8.5 0-12.6-.9-2.6-1.6-4.8-1.6-4.9s1.1-.5 2.5-.8c3.2-.8 4.8-6.4 4.9-16.7.1-6.6.5-8.1 2.9-11.7 1.6-2.2 3.6-4.3 4.4-4.6 1.2-.5 1.4-2 1.1-7.2-.4-5.9-.7-6.9-3.4-9.1-1.6-1.3-3.5-2.8-4.2-3.4-.8-.7-1.1-2.1-.7-3.9.5-2.4.2-3.2-2.1-4.7l-2.8-1.8 4-1.1c3.4-.9 3.9-1.5 4.2-4.2.2-1.8.5-3.2.7-3.2s1.2 1.6 2.1 3.6"/><path d="M255 152c0 5.1 1.2 5.6 3.5 1.4 2-3.7 1.8-4.3-1.4-4.9-1.8-.3-2.1.1-2.1 3.5"/></svg>