<svg xmlns="http://www.w3.org/2000/svg" width="682.667" height="512" version="1.0" viewBox="0 0 512 384"><path d="M0 192v192h512V25.3l-9.6-6.4c-5.3-3.5-10.3-6.9-11.1-7.4-.9-.6-5.2-3.4-9.6-6.3L473.6 0H0zm230.3-93.6c3.4-2.9 11.5-3.3 16.2-.8 1.9 1 5.2 1.6 9 1.5l6-.1-2.7 2c-2.6 2-2.6 2.1-1 5.3.8 1.7 2 3.6 2.6 4 .7.6.5.7-.5.4-3-1-5.9 3.4-5.9 8.9 0 7.9 1.1 12.4 2.9 12.4 2.9.1 6 3.3 8.7 9 .4.8 1.6 2.7 2.6 4.2 2.8 4.1 2.2 6.9-3.6 15.6-5.2 7.7-5.4 8.2-3.6 9.5 1.7 1.2 1.7 1.5-.6 6.9l-2.4 5.6 3.5 5.7c1.9 3.2 4.6 7.1 6 8.8 1.5 1.8 2.5 4.3 2.5 6.2 0 2.3 1.9 5.6 7.6 13 4.1 5.5 8.5 11.1 9.7 12.4s1.8 2.5 1.2 2.8c-3.5 1.3-3.9 2.1-2.2 4.7.9 1.4 1.7 2.7 1.7 2.9 0 .3-1.7.7-3.8 1.1-2.2.3-5.5 1.7-7.6 3.1-2 1.4-4.4 2.5-5.2 2.5-2.3 0-7.1 2.8-7.8 4.5-.3.8-1.6 1.9-2.9 2.4-3.1 1.2-3.4 3.1-3.1 21.6.1 12.3-.1 15.3-1.4 16.7-2.1 2.5-5.6 2.2-8.8-.6-2.6-2.2-2.7-2.5-1.4-5.5.9-2.3 1.1-6 .7-12.6-.3-5.4-.1-9.7.4-10 1.1-.7 1.1-1.6 0-3.3-.6-1-1.6-.9-4.5.9-3.7 2.2-3.9 2.2-9 .6-8.4-2.7-12-2.1-12.2 1.8-.1 1.1-.7 5.1-1.3 8.8s-.9 9-.5 11.7c.6 4.8.6 4.9-2.2 5.6-2.9.7-10.9-.9-13.1-2.8-2.4-2-1.4-4.8 2.2-6.5l3.5-1.7v-8.3c0-5.2.4-8.3 1.1-8.3.6 0 .9-1.2.7-2.7-.2-2-1-2.9-2.8-3.3s-2.6-1.3-2.8-3.5c-.2-1.6-1-3.4-1.9-4-1.9-1.4-1-5.1 5.8-23.2 5.3-14.3 5.9-16.9 3.3-15.9-1.5.6-1.6.1-1-3.6.7-4.2 1.6-17.4 1.9-27.3 0-2.8-.3-6.4-.7-8.1-.7-2.7-.5-3.2 1.3-3.7 1.1-.3 2.5-1.7 3.1-3.3 1.7-4.5 2.7-13.9 1.6-15.6-1.3-2.1.9-7.3 5.2-12 3.3-3.7 3.4-4 3-10.4-.3-5.2-.8-6.8-2.3-7.7-1.1-.6-3-2.1-4.2-3.3-1.9-1.9-2.1-2.8-1.3-4.8.7-2.1.5-2.7-1.7-4.1-2-1.4-2.3-1.9-1.2-2.6.8-.5 2.4-.9 3.7-.9 2 0 2.2-.5 2.3-4.8l.1-4.7 2.1 4.7 2.2 4.7z"/><path d="M256.4 149.6c.3.9.6 2.7.6 4 0 3.3 1.5 3 3-.7 1.1-2.6 1.1-3.2-.1-4-2.3-1.4-4.2-1.1-3.5.7"/></svg>