<svg xmlns="http://www.w3.org/2000/svg" width="682.667" height="512" version="1.0" viewBox="0 0 512 384"><path d="M0 192v192h512V0H0zm228-93.3c0 1.8.4 1.7 4.6-1.2 4.4-3 12.6-3.5 16.2-.9 1.5 1 4 1.5 7.7 1.3 6.4-.3 7.2.1 4.6 2.5-1.8 1.6-1.8 2-.5 5.2 1.4 3.3 1.3 3.5-1.6 6.2-2.8 2.5-2.9 3-2 6.7.5 2.2 1 5.9 1 8.3 0 3.8.4 4.5 3.5 6.3 2.1 1.3 4.3 3.8 5.7 6.7 1.2 2.6 3 5.8 4 7.1 2.8 3.7 2.2 6.2-3.7 14.9-4.8 7.1-5.3 8.2-3.8 9.1 1.6.8 1.5 1.4-1 7.2-2.3 5.4-2.5 6.5-1.3 7.8.7.9 2.9 4.3 4.7 7.6s4.2 6.8 5.2 7.8c1.3 1.3 1.7 2.8 1.4 4.5-.4 2 1.5 5.7 8.4 16.5 4.9 7.7 8.9 14.3 8.9 14.7s-.9 1-2.1 1.3c-1.9.5-1.9.7-.5 3.5 1.8 3.5 1.3 4.2-3 4.2-1.9 0-4.9 1.1-7 2.5-2 1.4-4.9 2.5-6.3 2.5-1.8 0-4 1.3-6.6 4l-4 4.1.2 17.9c.2 15 0 18.2-1.3 19.5-2.2 2.1-5.8 1.9-8-.6-1.7-1.9-1.8-3.6-1.6-18.5l.2-16.5-3.7 2.6c-4.2 2.8-9.7 3.3-12.7 1-1.1-.8-3.6-1.5-5.6-1.5h-3.7l-1.1 6.4c-.7 3.5-1.2 9.9-1.2 14.3 0 10.8-1.6 12.1-11.2 8.6-6.8-2.4-7.6-6.8-1.7-9.8 3-1.6 3.2-2.3 3.4-13.7 0-2 .3-4 .8-4.4.4-.4.7-2 .7-3.6 0-2.3-.4-2.8-2.5-2.8s-2.5-.5-2.5-3c0-1.8-.6-3.3-1.5-3.6-2.6-1.1-1.7-6.4 4.1-23.1 3.4-9.7 5.4-16.9 5-18-.6-1.4-.9-1.5-1.5-.4-1.5 2.3-2-.4-.9-4.5.5-2.1 1.3-7.5 1.8-11.9.4-4.4 1-9.4 1.4-11.2.5-2.2.1-4.5-1.3-7.7-2.7-5.8-2.7-6.3.8-8 3.9-2.1 4.4-3.6 4.7-14.1.1-5 .2-9.8.3-10.8 0-.9 1.9-3.7 4.1-6.1 3.7-4.1 4-4.7 4-10.4 0-5.9-.1-6.1-4.2-9.5-3.4-2.9-4.2-4.1-4-6.5.2-2.3-.4-3.4-2.5-4.8l-2.8-1.8 4-1.1c3.8-1.1 4-1.4 4.4-5.6l.3-4.4 1.4 3c.7 1.6 1.3 3.6 1.4 4.2"/><path d="M261 150.7c.1 1.8 1.8 3.5 2.4 2.4.4-.6.4-1.6.1-2.1-.7-1.2-2.5-1.3-2.5-.3"/></svg>