<svg xmlns="http://www.w3.org/2000/svg" width="682.667" height="512" version="1.0" viewBox="0 0 512 384"><path d="M0 192v192h185.1l-1.7-2.9c-1.6-2.7-1.6-3.1.2-7.6 1.4-3.4 2.7-5 5.1-6 2-.8 3.5-2.3 3.8-3.8 1.1-4.4 1.2-19.8.1-20.5-.6-.3-2.9-.9-5.1-1.2-3.8-.5-4.1-.7-5.7-5.9-2.1-6.5-3.2-7.9-7.2-8.9-2.7-.7-3.1-1.2-2.8-3.9.2-1.8-.4-4.3-1.3-5.7-3-4.5.8-15.7 13.4-40.1 4.8-9.4 9.8-19.2 11-21.9 2-4.5 2-4.8.3-3.2-1.9 1.6-2 1.5-3-2.5-.9-3.7-.8-4.5 1.8-8.9 3.1-5.3 10-20.7 10-22.5 0-.7-1.3-1-3.2-.7-2.9.3-3.5-.1-5-3-.9-1.8-1.9-5.8-2.1-8.9-.3-3.1-1.1-6.6-1.8-7.8-1.2-1.8-1.1-2.2.6-3.5 1.1-.8 3.3-1.8 4.8-2.1 3.1-.7 4.6-3.5 3.9-7.2-.6-3.3-2.1-2.9-2.9.9-.5 2.7-.7 2.9-1.4 1.3-2.3-5.9-.5-15.7 4.6-24.8 1.5-2.6 2.4-4.7 2.1-4.7s0-1.7.8-3.8c.8-2 1.7-6.1 2-9s1.2-7.6 2-10.5c.8-2.8 2.4-9 3.6-13.7s3.7-11.5 5.6-15.2 3.4-7.2 3.4-7.7c0-.6-1.1-2.2-2.5-3.7-4.7-5.1-2.4-7.9 6-7.2 4.1.4 5.9.1 7.2-1.2 1-.8 3.5-2.4 5.7-3.4 3.7-1.7 4.2-1.7 10.5-.2 6.3 1.6 6.6 1.6 8.1-.3.8-1 2.8-2.7 4.4-3.7l2.9-1.9-.6 3.3c-.4 1.7-1 4.6-1.3 6.2-.6 3-.6 3 2 2 3.9-1.5 4.4-1.2 1.7.9-2.3 1.7-2.3 1.9-.7 4.2.9 1.3 1.6 4.1 1.6 6.3 0 3.2.7 4.7 4.5 8.7 2.5 2.6 4.5 5.5 4.5 6.3 0 1.9-3 3.6-6.4 3.6-1.3 0-3.7 1.1-5.3 2.4-1.5 1.3-3.7 2.5-4.8 2.7-1.6.4-2.2 1.7-3.2 7.9-1.5 8.6-1 9.5 6.2 13 5 2.4 6.3 4.3 9 12.5 1 3.3 3.2 8.7 4.7 12s2.8 6.9 2.8 8-2.3 5.8-5 10.5c-3.2 5.3-4.8 9-4.4 10 1 2.2.6 3.6-2.7 9-1.6 2.6-2.9 5.8-2.9 7.1s1.7 6.4 3.9 11.4c2.1 4.9 5.1 12.8 6.6 17.5s3.6 10.5 4.6 13c2.7 6.2 6 18.1 5.3 19.2-.3.4 3.6 9.7 8.6 20.4 9.1 19.5 9.6 21.3 5.6 21.4-.9 0-.3 5.1.9 8.2.5 1.3.2 1.8-1.2 1.8-1 0-2.4.9-3 2-1.2 1.8-1.5 1.8-5.5.4-2.3-.8-4.9-1.2-5.8-.8-.8.4-2.4.9-3.4 1.1-1.1.2-2.8 1-3.7 1.9-1 .9-2.3 1.7-3.1 1.9-5.6 1.3-5.8 1.6-5.9 6.9-.1 2.8-.1 6.7.1 8.6.1 1.9.4 10.8.7 19.8l.4 16.2H512V0H0z"/><path d="M254.6 172.2c-.3 3.5-.7 9.6-.9 13.5-.2 6.2 0 7.3 1.4 7.3 1.1 0 2.8-2.9 5.4-9.1l3.7-9-4.5-4.5-4.5-4.4zM214 189.7c0 1.3.5 2.3 1 2.3 1.3 0 1.3-1.1 0-3-.8-1.2-1-1.1-1 .7m-16 54.4c0 .5.5.7 1 .4.6-.3 1-.8 1-1.1 0-.2-.4-.4-1-.4-.5 0-1 .5-1 1.1m79 16.9c0 .5.5 1 1 1 .6 0 1-.5 1-1 0-.6-.4-1-1-1-.5 0-1 .4-1 1m-32.3 81.1c-2 1.7-4.1 2.8-4.6 2.4-.5-.3-1.2-.1-1.5.4-.4.5-3.8.7-8 .4-6.8-.5-8-.3-13.8 2.4l-6.5 3-1.1 7.1c-.7 3.9-1.2 11.4-1.2 16.6v9.6h41.5l1.3-2.7c1.6-3.5 1.5-8.8-.2-18.6-.9-5-1.1-9-.5-10.9.4-1.6.4-4.9 0-7.4-.5-2.4-.6-4.6-.3-4.9s.1-.5-.4-.5-2.6 1.4-4.7 3.1"/></svg>