<svg xmlns="http://www.w3.org/2000/svg" width="682.667" height="512" version="1.0" viewBox="0 0 512 384"><path d="M0 192v192h187.7l.7-3.7c1.2-7.4.8-9.1-2.4-10.8-1.6-.9-3-1.9-3-2.3 0-.5-1.6-2.7-3.6-5-2.9-3.4-4.2-4.2-7-4.2-4 0-5.4-2.4-5.4-9 0-3.1-.7-4.5-3.5-7.2-2-1.8-3.3-3.8-3.1-4.5.3-.7-.2-2.9-1-5-.9-2.1-1.3-4.9-1-6.5.9-4.5 9.1-20.3 19-36.6 10.4-17.2 14.9-25.6 13.8-26-.6-.2-1.6-1.9-2.2-3.8s-1.6-3.4-2.1-3.4c-.6 0 .4-2.1 2.2-4.6 3.3-4.9 11.9-21.8 11.9-23.5 0-.6-.6-.6-1.7-.1-4.4 2.3-9.2-4.3-9.3-12.6-.1-2-.7-5.4-1.4-7.5-1.3-3.5-1.3-3.9.8-5.2 1.1-.7 3.3-1.7 4.9-2 1.5-.4 2.7-1.1 2.7-1.6 0-.8-3.7-8.8-4.5-9.7-.2-.2-2.2.6-4.5 1.7s-3.7 1.4-3.1.7.8-1.6.4-1.9c-.3-.4.2-.9 1.1-1.3.9-.3 1.4-1 1.1-1.4-.3-.5-.1-1.1.5-1.5 1.7-1 1.1-2.5-1-2.5-1.8 0-1.8-.1-.2-2.9 1.4-2.5 1.5-3.6.6-7.1-1.2-4.2-1.2-4.3 4.1-23.1 1.1-4 5.6-13.5 11.4-23.9 1-1.9 4.2-8.4 7-14.4s6-12.1 7.1-13.6c2.5-3.5 2.5-4.7.3-5.4-1-.4-2.9-1.5-4.3-2.6-3.5-2.8-1.3-4 5.1-2.8 4.9.9 5.2.8 9.7-2.9 2.6-2.1 5.2-4.4 5.8-5.1.7-1 2.6-1.3 6.2-1.1 2.9.2 5.2 0 5.2-.5s.8-.2 1.8.6c.9.9 3.6 2.5 5.8 3.6 4.1 2.1 4.2 2.1 9.3.2 2.8-1 5.1-1.7 5.1-1.5s-1.6 1.3-3.6 2.4l-3.6 2.1 3.1 2.9c2.3 2.1 3.1 3.8 3.1 6.3 0 1.8.7 4.4 1.6 5.6.8 1.2 1.4 3.1 1.2 4.1-.2 1.3 1.1 2.9 4 5 5.7 4.2 5.5 5.5-.9 4.9-5-.5-5-.5-4.4 2.1.4 1.8.3 2.2-.4 1.2-.7-1.1-1.1-.9-2.1 1-1.7 3.2-2.8 3.8-6.3 3.3-2.9-.3-2.9-.3-2.4 3.6.4 3 .2 4-.9 4-1 0-1.4 1.5-1.4 5.8 0 5.1.4 6.1 2.8 8.3 1.5 1.4 3.9 3.1 5.4 3.8 4 2 6.8 5.4 7.8 9.3 1.2 4.7 2.8 9.2 6.3 17.1 3.7 8.6 3.4 12-2.2 21.1-2.2 3.8-4.1 8-4.1 9.5s-1.5 5.1-3.4 8c-3.3 5.3-3.3 5.5-2 10 .7 2.5 3 9.1 5.2 14.6 2.1 5.5 5.1 14.5 6.6 20s3.5 12.2 4.6 14.8c1.6 4 1.6 4.8.4 4.3-.8-.3-1.7.1-2.1 1-.8 2.1.4 2.9 2.1 1.5 1.2-1 1.7-.3 3.1 3.9.9 2.8 1.4 6.2 1.1 7.6-.7 2.6 4.1 16.3 12.6 36.3 3.7 8.8 3.9 9.6 2.3 10.8-1 .7-2.2 1.4-2.6 1.5-.5.2-.2 2.4.6 5 1.1 3.8 1.1 4.8.2 4.8-.7 0-1.8-.5-2.5-1.2-.8-.8-1.4-.5-2.1 1.6-1.4 3.4-3.2 4.1-7.6 2.6-2-.7-5.8-1.3-8.5-1.4-3.9-.1-5.4.4-7.4 2.3-2.5 2.3-2.6 3-2.6 12.2 0 5.4.4 10.1 1 10.4s1 2.6 1 5.1v4.4h242V0H0z"/><path d="M255.7 185c-.3 7.4-.2 13.9.2 14.3s1.6-1.2 2.6-3.5c1-2.4 2.9-6.7 4.2-9.7 2.2-5 2.2-5.5.7-7.2-.9-1-2.4-2.1-3.4-2.4-.9-.3-2.2-1.5-2.7-2.8-.7-1.6-1.1 1.2-1.6 11.3M195 252.5c0 .8.2 1.5.4 1.5s.6-.7 1-1.5c.3-.8.1-1.5-.4-1.5-.6 0-1 .7-1 1.5m48.3 105c-1.7.7-5.8 3-9 5.1-5.8 3.8-5.8 3.8-15.5 3.6l-9.7-.1-1.6 5.2c-.8 2.9-1.8 6.9-2.2 8.9l-.6 3.8h45.4l.1-4.8c.1-10.5-.2-18.8-.7-21-.6-2.5-1.7-2.7-6.2-.7"/></svg>