<svg xmlns="http://www.w3.org/2000/svg" width="682.667" height="512" version="1.0" viewBox="0 0 512 384"><path d="M0 192v192l93.8-.2 93.7-.3.3-5.2c.3-4.7.1-5.1-1.7-4.6-2.7.7-6.5-2.3-10.2-7.9-2.2-3.4-4.1-5-6.7-5.9-5.7-1.8-6.2-2.5-6.2-9.4 0-5.6-.3-6.6-2.5-8.3-1.4-1.1-2.5-2.9-2.5-3.9 0-1.1-.5-3.5-1.1-5.2-.9-2.5-.9-4.3.1-7.4 1.3-4.5 11.5-22.2 21.5-37.7 8.7-13.4 13.8-23.7 12.1-24.3-.8-.3-1.7-1.9-2.1-3.6s-1.1-2.9-1.6-2.5c-1.6 1-1-.7 2.2-5.2 3.4-5 11.9-21.6 11.9-23.3 0-.8-.6-.7-2 .1-1.5.9-2.5 1-3.8.2-2.6-1.6-5.2-7.4-5.2-11.7 0-4-1.6-11.8-3-15.2-.5-1.1-1.4-3.9-2-6.3-.6-2.3-1.5-4-1.9-3.7-.5.3-1.8-1.5-3-4-2.7-5.8-2.7-15-.1-22.5 1.1-3 1.9-6.5 2-7.7 0-4 5.7-14.5 13.4-24.8 4.1-5.5 10.3-15.6 13.8-22.4 3.5-6.9 7.1-13.5 8.1-14.7 1.8-2.3 1.7-2.3-2.3-4.9-5.7-3.6-5.2-4.9 1.7-4.2l5.6.6 6.1-5.5c6.4-5.6 9.4-6.6 14.9-4.5 1.9.8 2.7.6 3.1-.5.8-2.1 2.4-1.7 2.8.8.5 3.6 4.9 4.6 8.6 2 4.1-3 5.1-2.8 1.7.4-2.7 2.5-2.8 2.7-.9 3.7 3.8 2.1 7.4 6.6 7.4 9.2 0 1.4.9 3.9 2.1 5.4 1.6 2.2 1.9 3.3 1 4.8-.9 1.7-.5 2.3 2.8 4.1 7.4 4.2 7.3 6.9-.3 5.2-3.4-.7-3.6-.6-3.6 1.7 0 1.3-.4 2.2-1 1.8-.5-.3-1.6.7-2.4 2.2s-1.5 2.5-1.6 2.1c0-.4-1.1-.3-2.5.2-1.6.6-2.5.6-2.5 0s-.4-1-1-1c-1.3 0-1.3 5.7 0 6.5 1.5.9.2 2.5-2 2.5-1 0-2.1.7-2.4 1.6-.9 2.4-.7 10.4.3 10.4.4 0 1.9 1 3.3 2.2 1.3 1.3 3.7 3 5.2 3.8 4.9 2.5 7.5 5.7 8.7 10.4.6 2.6 1.5 4.9 2 5.2s.9 1.6.9 2.8c0 1.3 1.4 5 3.1 8.3 4.4 8.6 4.2 11.6-1.4 20.8-2.6 4.3-4.7 8.9-4.7 10.4s-1.5 5.1-3.4 8.1-3.2 5.8-3 6.2c.3.5.8 2.1 1 3.6.3 1.5 2 6.5 3.9 11.2 4.1 10.4 9.1 26.1 10.1 31.5.4 2.2 1.3 5.4 2.1 7.2 1.5 3.7 1.7 5.7.4 4.9-1.2-.8-2.3 3.6-1.2 4.7.5.5 1.2.4 1.5-.2 1.4-2.1 2.5-1 4.2 4.1 1.6 4.8 1.6 5.2 0 6.4-1.4 1-1.5 1.6-.7 3.3.6 1.1 3.4 8.6 6.1 16.5 2.8 8 6.4 17.4 8 21l2.9 6.5-3 1c-3.4 1.2-3.4 1.6-1.3 6.6 1.7 4.2 1.4 5.2-1.3 3.6-1.5-.8-2.3-.5-4.4 2.1l-2.6 3.2-7.6-2.3c-7.1-2.1-7.8-2.1-10.6-.6l-3.1 1.6v11.4c0 7 .4 11.5 1 11.5s1 1.3 1 3v3h242V0H0z"/><path d="M256 183.5c0 5.7-.3 11.7-.6 13.4-.5 2.4-.3 3.1.9 3.1.9 0 1.9-1 2.2-2.3.4-1.2 2.1-5.3 3.7-9.1l3-6.9-4.6-4.2-4.6-4.2zm-42.9 4.7c-1.8 10.5-1.8 13.2 0 13.6 1.3.2 1.9-1 2.6-5.5 1.1-6.1.6-14.3-.7-14.3-.4 0-1.3 2.8-1.9 6.2m-29.9.8c0 1.4.2 1.9.5 1.2.2-.6.2-1.8 0-2.5-.3-.6-.5-.1-.5 1.3m11.4 63.8c-.2.4-.1 1.4.3 2.1.6.9 1 .7 1.4-.8.5-2-.7-2.9-1.7-1.3M236 362.7c-3.6 1.9-8.1 4.4-10 5.5-2.8 1.6-4.9 1.9-10.7 1.5l-7.2-.4-1.2 5.6c-.7 3.1-1.6 6.4-2.1 7.3-.8 1.7.6 1.8 22.2 1.8 21.9 0 23.1-.1 22.8-1.8-.2-1.1.2-2.5.9-3.3 1.1-1.4.7-6.6-1.3-17.7-.7-3.4-5.7-2.8-13.4 1.5"/></svg>