<svg xmlns="http://www.w3.org/2000/svg" width="682.667" height="512" version="1.0" viewBox="0 0 512 384"><path d="M0 192v192h188v-11.6l-3.4.4c-4.5.5-7.5-1.6-11.1-7.7-2.6-4.6-4-5.6-9.7-7.5-1.5-.4-1.8-1.7-1.8-7.3 0-5.1-.4-7.2-1.8-8.7-1-1.2-2.5-4.7-3.2-7.8-1.7-7.3-1-9.2 9.2-25.3 4.2-6.6 10.2-16.3 13.5-21.5s7.5-12.3 9.3-15.7c3-5.7 3.1-6.3 1.6-7.8-.9-.9-1.6-2.4-1.6-3.4 0-.9-.5-2.2-1.2-2.9-.8-.8-.4-2 1.7-4.9 1.6-2.1 3.1-4 3.4-4.3.4-.3.7-1.2.9-2s1.9-4.6 3.8-8.4c1.9-3.9 3.4-7.3 3.4-7.6 0-.4-1.3-.5-2.8-.2-4 .5-6.2-3.2-7.3-12.7-.5-4.2-1.2-8.2-1.4-8.9-.7-1.9-2.5-1.4-1.9.5.4 1.2-.3.8-2-1-3.1-3.4-4-3.4-3.2-.2 1.2 4.7-1.5 2.6-4.1-3.3-2.2-4.9-2.5-6.7-2-12.8.6-8-.4-11.1-2.1-6.7-.6 1.5-1.3 3.7-1.5 4.8-.3 1.7-.5 1.6-1.5-.8-1.9-4.6-1.4-11.7 1.4-18.2 1.4-3.3 3.2-8 4.1-10.5 3-8.4 4.8-11.2 15.5-23.7 8.4-9.7 12-14.9 16.4-23.6 3.2-6.2 6.8-13 8.2-15.2 1.4-2.1 2.1-4 1.6-4.2s-2.4-1.2-4.1-2.3c-5.1-3.1-4.2-4.4 2.5-3.7l5.8.6 6.3-5.4c6.5-5.8 7.2-6 13.4-4.6 3.4.8 3.9.7 5.1-1.8l1.4-2.6.8 3c1.3 5.6 2.2 5.8 7.2 1.7l4.6-3.7-2.7 3.6c-1.5 2-2.7 3.9-2.7 4.2 0 .4 1.4 1.4 3.1 2.2q6.9 3.6 6.9 8.4c0 1.5.9 4 2.1 5.5 1.4 1.8 1.9 3.4 1.5 5.1-.5 2 .1 2.8 3.6 5.2 5.9 4 5 5.4-2.4 3.9-2.3-.5-2.8-.2-2.8 1.4 0 1.1-.4 2-.9 2s-1.2.8-1.5 1.8c-.7 2.1-6.9 4.8-7.4 3.2-.2-.6-.8-.8-1.3-.4-1.2.7-1.1 5.1.1 5.9 1.5.9.2 2.5-2 2.5-1.3 0-2.2 1.1-2.9 3.7-1.6 5.8-1.4 6.9 2.2 9.2 12.3 7.8 16.7 12.3 16.7 17.1 0 1.4.7 3.4 1.5 4.4.8 1.1 1.5 2.8 1.5 3.7s1.3 4.6 3 8.1c1.6 3.4 3 7.1 3 8.1 0 1.9-4.6 11.3-7.9 16.2-1.2 1.6-2.1 4.1-2.1 5.4s-1.3 4.8-3 7.7c-3 5.3-3 5.4-1.6 11.2.7 3.2 1.9 6.8 2.5 8.1 1.8 3.3 9.7 27.8 11 33.9.6 2.9 1.8 6.6 2.6 8.2 1.8 3.5 1.9 4.1.4 3.7-1.5-.3-3.1 4-1.8 4.9.5.3 1.6 0 2.4-.6 1.2-1 1.7-.7 2.6 1.6 2.1 5.7 2.2 8.3.5 9-1.1.4-1.5 1.2-1 2.3 1.3 3.2 14.5 41.6 15.1 43.8.4 1.8 0 2.3-2.1 2.9-3 .7-3.1 1.2-1.1 6.1 1.8 4.4 2 6.2.3 4.5-1.9-1.9-4.6-1.4-6.3 1.2-2.3 3.5-3.4 3.6-11.3 1-6-2-7.5-2.2-9.2-1.2-1.8 1.2-2 2.3-2 13 0 6.7.4 11.9 1 12.3.6.3 1 1.7 1 3.1v2.4h242V0H0z"/><path d="M256.3 186.7c-.1 7.3.1 13.3.6 13.3.4 0 2.5-4.1 4.6-9.1l3.7-9-4.3-4.2-4.4-4.2zm-41.9.1c-.6.4-1.9 2.8-2.9 5.4-2 5.5-1.4 9.8 1.4 9.8 2.3 0 3-1.7 3.8-9 .5-5.6-.2-7.6-2.3-6.2m-18.7 65.9c-.4.3-.7 1.3-.7 2.2.1 1.3.3 1.3 1.1-.2 1.1-1.9.8-3.3-.4-2M234.5 362c-3.3 1.6-8 4.1-10.5 5.5-3.3 1.8-5.9 2.5-10.1 2.5h-5.7l-1.6 6.5c-.9 3.5-1.6 6.7-1.6 7s10.2.5 22.6.5c22.1 0 22.6 0 22.1-2-.3-1.2.1-2.3 1-2.9 1.5-.8 1.2-5.1-1.3-17.9-.7-3.3-7.3-3-14.9.8"/></svg>