<svg xmlns="http://www.w3.org/2000/svg" width="682.667" height="512" version="1.0" viewBox="0 0 512 384"><path d="M0 192v192h188.8l.6-2.3c.3-1.2.6-3.9.6-6V372h-4.8c-5.5 0-8.4-2.3-12-9.6-1.6-3.1-3.2-4.6-6.2-5.8l-4.1-1.6.6-5.8c.6-4.9.3-6.5-2-11.2-4-8.1-3.2-12.4 4.6-24.7 17.8-28.2 21-33.4 24.4-40.1l3.7-7.4-1.8-3.6c-1.1-2.1-2.2-3.9-2.6-4-1.4-.6-.8-2.3 2.3-6.8 2.5-3.6 6.7-11.8 10.7-20.7.2-.4-.8-.7-2.1-.7-2.8 0-6.5-3.9-7.2-7.4-.2-1.2-.6-5.6-.9-9.8l-.6-7.8 3.5-1.4c3.7-1.6 3.7-1.7 5.5-13.1.6-3.9 1.3-8.4 1.5-10 .3-1.8-1.2.4-4 5.9-4.5 9-5.8 9.6-3 1.6.8-2.4 1.3-4.5 1.1-4.7-.5-.6-7.1 9.7-8 12.4-.4 1.2-1.6 2.3-2.7 2.6s-2.3 1.5-2.6 2.6c-.3 1.2-1 2.1-1.6 2.1s-2.1 1-3.4 2.2c-1.9 1.7-2.3 1.9-1.7.5.3-1 .1-1.7-.5-1.7s-1.1.4-1.1.8-.9.8-2 .8c-1.3 0-2-.7-2-2.1 0-1.5-.6-1.1-2.3 1.8-2.8 4.6-3.8 3.9-3-2.2l.6-4.6-2.1 2.5c-3.3 3.9-2.7.4 1.2-7.6 3.2-6.4 6-14.4 5-14.4-.2 0-1.7 2.6-3.3 5.7-3.3 6.4-3.7 6-2-1.9 1.2-5.4 11.2-26 15.3-31.3 1.3-1.6 7.5-8.2 13.7-14.5 11-11.1 11.6-11.9 16.9-23.5 3-6.6 6.4-13.7 7.7-15.7l2.2-3.7-3.3-2c-1.9-1.2-4-2.9-4.7-3.8-1.3-1.5-.9-1.6 5.1-1l6.5.6 5.9-5.6c5.8-5.5 5.9-5.5 10.7-4.9 4.2.6 4.8.4 5.4-1.4.9-2.9 2.2-2.5 3 1 1.1 5 4 4.9 9.8-.6l5-4.9-3.7 4.9c-2 2.7-3.6 5.2-3.6 5.5s2.1 1.7 4.6 3c4.6 2.5 6.4 5.2 6.4 9.5 0 1.3.7 2.9 1.5 3.6s1.5 2.7 1.5 4.5c0 2.7.7 3.7 4.1 5.9 5.8 3.9 4.5 6-2.6 4.2-2.1-.5-2.5-.3-2.5 1.4 0 1.2-.4 1.9-.9 1.6s-1.2.5-1.5 1.9c-.4 1.4-1.3 2.5-2.1 2.5s-1.5.3-1.5.7c0 .5-1.1.9-2.5.9-1.5.1-2.2-.2-1.8-.9.4-.6.1-.7-.6-.2q-1.35.75-.6 4.2c.5 2.9.3 3.5-1.3 4-1.5.3-2.1 1.7-2.5 5.6-.6 4.6-.4 5.4 2.1 8 1.5 1.6 4.5 3.8 6.7 4.9 5.2 2.7 8.2 5.9 9 10 1.3 6.1 3.8 13.2 6.8 18.7 3.7 6.8 3.3 9.9-2.3 18.8-2.3 3.6-4.3 7.9-4.6 9.5-.2 1.7-1.7 5.5-3.4 8.5-3.6 6.4-3.5 9.7.7 19.2 3 6.6 8.5 23.3 11.2 33.6 1.1 4.1 2.5 8.3 3 9.4 1.4 2.6 1.4 3.1-.2 3.1-.7 0-1.4 1.1-1.5 2.5-.2 2.6 1.2 3.3 2.4 1.3.5-.8 1.6.6 3.1 3.7 2.2 4.9 2.2 5 .4 6.5-1.9 1.5-1.8 1.9 2.1 14 5 15.4 10.2 31 11.2 33.1.5 1.3 0 1.9-2.3 2.7-3.1 1.1-3.9 2.9-2.2 4.7.4.6 1.1 2.2 1.5 3.7.6 2.5.5 2.6-2.3 1.5-2.7-1-3.2-.8-5.9 2.1-1.7 1.8-3.4 3.2-3.9 3.2-.4 0-3.2-.9-6.1-2s-6.3-2-7.7-2H270v12.5c0 7.7.4 12.5 1 12.5s1 1.3 1 3v3h240V0H0z"/><path d="M258.2 187.5c.1 6.9.4 12.5.8 12.5.3 0 2.3-4.2 4.4-9.3l3.7-9.2-3.8-3.2c-2.1-1.8-4.1-3.3-4.4-3.3-.4 0-.7 5.6-.7 12.5m-43.2-.9c-.7 3.2-1.7 6.7-2.2 7.7-1.4 2.7 0 7.7 2.2 7.7 2.1 0 3.2-4.6 3.1-12.8-.1-8.4-1.6-9.7-3.1-2.6m-17.3 66.1c-.4.3-.7 1.1-.7 1.7s.5.5 1.2-.2c.6-.6.9-1.4.7-1.7-.3-.3-.9-.2-1.2.2m41.5 107.4c-1.7.3-6.9 2.7-11.8 5.3-5.1 2.8-10.3 4.9-12.6 5.1-2.2.1-4.1.5-4.3.7s-1.3 3.2-2.4 6.6l-1.9 6.2h23c20.9 0 23-.1 22.4-1.6-.4-.9 0-2.4.7-3.3 1.2-1.4 1.2-2.9.1-10.1-.7-4.7-1.3-8.6-1.3-8.6-.2-.6-9.5-.8-11.9-.3"/></svg>