<svg xmlns="http://www.w3.org/2000/svg" width="682.667" height="512" version="1.0" viewBox="0 0 512 384"><path d="M0 192v192h191v-11.5h-4c-4.7 0-7-2-10.9-9.2-1.8-3.4-3.7-5.3-6.5-6.6l-3.8-1.8.6-5.2c.6-4.4.3-6.1-1.9-10.6-4.6-9.4-3.7-13.5 6.2-29.2 9.8-15.5 18.9-31 22.4-38.1 3-6.2 3.1-6.7 1.6-8.3-.9-.9-1.7-2-1.7-2.5s-.7-1.6-1.6-2.4c-1.4-1.5-1.3-2 1.8-6.4 1.8-2.6 4.6-7.7 6.2-11.5 1.6-3.7 3.2-7 3.7-7.3s.9-1.3.9-2.4c0-1.3-.5-1.7-2-1.3-4.5 1.2-7.4-4.5-8.3-16.5l-.7-8.4 3.9-1.5 3.8-1.5 1.2-8.6c.7-4.8 1.5-9.8 1.8-11.2.4-1.7-.4-1-2.7 2.5-3.9 6-3.9 6-4.6 5.3-.3-.4 0-1.7.6-3 .9-1.6.1-1.2-2.8 1.6-2.2 2.1-4.6 5.2-5.3 6.7-.6 1.6-1.5 2.7-1.9 2.4-.8-.5-2.4 1.2-5.8 6.1-1.2 1.8-1.3 1.8-.7 0 .6-2 .5-2-1.5-.1-2.1 1.9-6.4 2.9-5.4 1.3.3-.4 0-.8-.5-.8-.6 0-1.1-1.5-1.1-3.2v-3.3l-4.1 5.8c-2.3 3.2-4.3 5.6-4.5 5.4s.4-2.2 1.3-4.5c1.9-5 1.2-6.4-1.7-3.1l-2 2.4 1.2-3c.7-1.7 2.5-5.1 4-7.6 1.6-2.5 2.8-5.2 2.8-6 0-1.1-.2-1.1-1 .1-.7 1.1-1 .6-1-2 0-2 1.4-6.2 3.3-9.9 10.2-20.1 10.6-20.7 27.3-38.2 9.6-10.2 10.3-11.2 14.8-22 2.7-6.3 6.1-13.5 7.7-16.1l2.8-4.7-4.1-2.3c-6.7-3.7-6.3-5.2 1.3-4.4l6.5.6 5.8-5.9c5.4-5.5 6-5.8 9.1-5.1 2.9.6 3.6.4 4.8-1.3 1.4-2.1 1.4-2.1 3.1 1.1 2.6 5 5.6 5.1 11.3.5l4.8-3.8-3.2 3.8c-1.8 2.1-3.3 4.1-3.3 4.5s2.1 1.9 4.5 3.4c4.5 2.7 6.5 5.9 6.5 10.2 0 1.3.7 2.9 1.6 3.7 1 .8 1.4 2.3 1.2 4.1-.4 2.4.1 3.2 3.9 5.4 6.5 3.8 5.1 5.6-3 4-2.3-.5-2.8-.3-2.5 1.1.7 3.5-8.5 10-10.3 7.2-.4-.8-.9-.4-1.4 1.1-.4 1.2-.2 2.7.4 3.3 1.7 1.7 1.3 2.7-1.3 3.7-2 .7-2.5 1.7-2.8 5.7-.6 5.3.5 6.8 8.7 12 6.8 4.3 8.2 6.2 10.5 13.6 1.2 4 3.5 10 5.1 13.4 4.1 8.7 3.8 12.2-1.6 21.3-2.5 4.1-4.5 8.6-4.5 10 0 1.3-1.5 5-3.4 8-3.4 5.5-3.4 5.6-2.1 10.6.7 2.8 2.2 7.1 3.3 9.5 2.8 6.3 9.9 27.7 10.8 32.4.4 2.2 1.5 5.9 2.5 8.2 1.4 3.4 1.5 4.3.5 4.3-1.6 0-2.9 2.7-2 4.1.3.6 1.1.5 2-.2 1.8-1.5 2.7-.6 4.3 4 1.5 4.6 1.4 6.1-.4 6.1-2.2 0-3-3 8.6 32 5.7 17.4 5.6 16.8 2.5 18-2.3.8-2.5 1.4-2 3.7.4 1.6 1.1 3.2 1.5 3.8 1.7 1.8.8 2.6-2.2 2-2.7-.6-3.5-.3-5.9 2.6l-2.8 3.4-6.6-2.4c-3.7-1.2-7.7-2.1-8.9-1.7-2.1.5-2.2 1-2.2 12.5 0 8.8.3 12.2 1.3 12.6.6.2 1.2 1.6 1.2 3v2.5h238V0H0z"/><path d="M260 180.9c0 3.7-.3 9.6-.7 13.1-.9 8.8.9 7.6 5.7-3.7l3.8-9.2-2.5-1.6c-1.3-.9-3.3-2.5-4.4-3.6-1.9-1.9-1.9-1.8-1.9 5m-43.9 7.9c-2.5 8.2-2.4 12.5.1 13 3 .6 5.1-12.7 2.9-18.3-.7-1.6-1.3-.5-3 5.3m-16.6 64.3c-.4.6-.5 1.2-.2 1.5.2.3.7-.2 1-1.1.7-1.7.1-2-.8-.4M238 361.2c-1.4.6-5.4 2.8-9 4.9-4.1 2.4-8.6 4.1-12 4.6-5.3.8-5.4.9-6.7 5.2-.7 2.4-1.5 5.2-1.8 6.2-.6 1.8.4 1.9 21.9 1.9H253v-2.4c0-1.3.5-2.6 1.2-2.8.8-.3.8-2.6-.3-9.4l-1.4-8.9-6-.2c-3.3-.1-7.1.3-8.5.9"/></svg>