<svg xmlns="http://www.w3.org/2000/svg" width="682.667" height="512" version="1.0" viewBox="0 0 512 384"><path d="M0 192v192h195v-4.8c-.1-4.2-.4-4.9-3.2-6.7-1.8-1.1-4.7-4.5-6.5-7.5s-4.3-6-5.6-6.5c-4.8-2-5.7-3.4-5.1-7.8.5-3.4 0-5.4-2.7-10.7-2-4-3.2-7.9-3.1-10 .2-3.9 6.9-18 21.1-43.9 9.7-17.6 11.7-22.2 9.9-21.8-.7.1-1.8-1.2-2.6-2.8-.8-1.7-1.9-3.3-2.4-3.6s.6-2.8 2.5-5.5c1.8-2.7 4.6-8 6.2-11.7s3.2-7 3.7-7.3c1.6-1 .8-3.4-1.3-3.4-5.2 0-7.3-3.4-8.9-15-.5-3.6-1.1-7.4-1.2-8.4-.2-1.5.6-2.1 3.2-2.8 4.7-1.3 5.6-2.5 6.4-8.1.5-4.5.5-4.7-1.4-3.7-1.1.6-3.8 3.5-6.1 6.5s-4.6 5.2-5.2 4.8c-.5-.3-1.5 0-2.1.8s-2 2.1-3 2.9c-1.9 1.5-1.9 1.5-.1-1.4l1.9-2.9-3.1 1.7c-3.1 1.5-3.2 1.5-3.5-.7-.3-2.1-.5-2-3.8 1.3-1.8 1.9-3 3-2.7 2.3.4-.6.3-1.4-.3-1.8s-.8-1.1-.5-1.6c.4-.5.1-.9-.5-.9-1.4 0-.6-3.8 1.8-8.6 1.1-2.1 2.2-6.4 2.6-9.4 1.3-10.4 11.6-29.6 22.8-42.5 4.9-5.7 9.9-14.2 12.8-21.8 4.8-12.8 10.2-24.7 11.1-24.7 2.2 0 .5-2-3.6-4.4-6.4-3.8-5.9-5 1.8-4.3l6.2.6 5.8-5.4c3.1-3 6.4-5.5 7.2-5.5.9 0 2.4-.5 3.4-1.2 1.6-1 2.4-.7 5 1.5 4.4 3.7 9.5 4.5 12.9 2 5-3.6 5.7-3.6 2.3 0l-3.3 3.5 3 1.6c4.3 2.2 7.2 6.3 7.2 10.1 0 2.1.6 3.5 1.6 3.9 1.2.5 1.5 1.6 1.2 4-.3 3.1 0 3.7 3.3 5.5 4.9 2.8 6.4 4.7 4.4 5.5-.8.3-2.1.4-2.7.2-.7-.3-2.5-.7-4.1-1-2.6-.6-2.7-.5-2.1 2.1.4 1.6.3 2.5-.1 2-.5-.4-1.7.5-2.7 2-1 1.6-1.8 2.5-1.8 2.1s-1.2-.3-2.7.3c-2 .7-2.9.6-3.5-.3-.6-.8-.8.5-.4 3.4.5 4.2.3 4.8-1.3 4.8-2.8 0-5.1 3.3-5.1 7.1 0 3.1.5 3.8 4 5.8 2.2 1.2 4 2.5 4 2.9s1.3 1.3 2.8 2c4.1 1.8 9.2 7.1 9.2 9.6 0 1.2.9 3.8 2 5.9 1.1 2 2 4.5 2 5.4 0 1 .8 3.1 1.8 4.8 2.9 5 4.4 10.4 3.7 13.5-.3 1.6-2.4 5.7-4.6 9.1s-4.4 8.2-4.9 10.8c-.8 4.3-.7 5 2.6 10l3.6 5.3-3.7-2.8c-4.4-3.3-6-3.7-7.6-1.8-1.6 2-.4 8.3 3 16.3 3.4 7.9 11.1 30.4 11.1 32.6 0 .8 1.1 4.3 2.5 7.6 1.5 3.8 1.9 5.7 1 4.9-1.1-.9-1.6-.7-2.3.7-1.4 2.6-.4 4.7 1.4 3.2 2-1.6 3.5-.1 5 5.2 1.1 3.7 1.1 4.2-.6 4.6-1.7.5-1.7.7.2 5.6 1.8 4.8 7.6 21.9 8.1 24.2.7 2.6 6.1 16.1 7 17.2.7 1 0 1.7-2.7 2.8-3.6 1.5-3.6 1.6-2.1 4.5 2.2 4.3 1.9 5.3-1.5 4.5-1.6-.4-3-.3-3 .2 0 .4-1 2.1-2.3 3.7l-2.3 2.9-6.7-2.3c-5.7-1.9-7.1-2.1-9.7-1l-3 1.2v11.4c0 6.4.4 11.5 1 11.9.6.3 1 1.7 1 3.1v2.4h234V0H0z"/><path d="M264.1 178.8c0 2.6.9 6.9 1.8 9.7l1.8 5 2.7-6 2.7-6-2.3-1.8c-1.3-1-3.3-2.7-4.5-3.8L264 174zm-43.9 9.8c-1.2 3.9-2.2 8.3-2.2 9.8 0 2.9 2.7 4.7 4 2.6s2-11.2 1.1-15.5l-.7-4zM203 254.1c0 .5.5.7 1 .4.6-.3 1-.8 1-1.1 0-.2-.4-.4-1-.4-.5 0-1 .5-1 1.1m44.3 107.4c-1.8.8-6.5 3.3-10.4 5.5-6.8 4-7.4 4.2-14 3.8-7.5-.4-7.7-.2-9.3 7.4-.3 1.4-.9 3.3-1.2 4.2-.6 1.4 1.7 1.6 22 1.6H257v-2.4c0-1.3.5-2.6 1.2-2.8.9-.3.9-2.3 0-8.7-.6-4.5-1.4-8.7-1.7-9.2-.9-1.3-5.5-1-9.2.6"/></svg>