<svg xmlns="http://www.w3.org/2000/svg" width="682.667" height="512" version="1.0" viewBox="0 0 512 384"><path d="M0 192v192h196.8l.4-4.8c.4-4.2.1-5.1-2.8-8.2-1.7-1.9-3.9-5-4.8-6.7-1-1.9-3.3-4.1-5.6-5.3-4.3-2.2-4.4-2.4-4.1-8.6.2-2.3-.2-4.5-.7-4.8-2.2-1.3-6.2-10.8-6.2-14.5 0-6.4 3-13.1 21.3-48.2 4.8-9.1 8.7-17.1 8.7-17.7 0-.7-.6-1.2-1.3-1.2s-2-1.7-3-3.7c-1.6-3.5-1.5-3.8.4-7 1.2-1.9 2.8-4 3.6-4.8s1.2-1.5.9-1.5c-.2 0 1.1-3.3 3-7.4s3.4-7.9 3.4-8.5c0-.5-1.2-1.1-2.7-1.3-3.9-.5-6.1-4.4-7.8-13.7-1.5-8.5-2.7-11.3-3.9-9.2-1.2 1.8-2.6 1.2-2.6-1v-2l-2.6 2c-2.9 2.3-4.7 2-3.7-.6.5-1.2.2-1.5-1-1-2.2.8-2.3-2.1-.1-7.1.8-2 1.7-6.9 1.8-10.9.4-9.5 5.1-22 12.9-33.8 11.5-17.7 13.8-21.9 18.7-35.5 3-8 6.4-16.2 7.7-18.2 1.3-2.1 2.3-4 2.3-4.2s-2-1.6-4.5-3c-6.4-3.8-5.8-5 1.8-4.3l6.2.5 6-5.4c4.1-3.7 6.9-5.4 8.6-5.4 1.6 0 3-.7 3.3-1.7.6-1.4.9-1.4 2.2.5 1.4 2.1 7 5.1 10.4 5.6.8.2 3.7-1 6.5-2.6l5-2.9-4 3.7c-2.4 2.1-3.5 3.8-2.8 4.1.7.2 2.7 1.4 4.5 2.6 2.7 1.9 3.4 3 3.6 6.4.2 2.3 1 4.7 1.8 5.3.7.7 1.4 2.7 1.4 4.4.1 2.5.9 3.7 4.6 6.5 5.4 3.9 4.8 5.7-1.4 4.2-4-.9-4.2-.8-4.2 1.6 0 1.3-.4 2.1-1 1.8-.5-.3-1 .1-1 .9 0 1.6-3.2 3.8-6.5 4.3-2.9.5-3.8 1.8-2.6 4.1 1.1 2.1.6 3.2-1.6 3.2s-6.1 4.2-6.5 7c-.2 1.7.4 2.7 2.1 3.6 1.3.7 4 2.4 6 3.8 2 1.5 5.1 3.7 7 4.9 4.1 2.7 6.9 6.3 7.4 9.7.1 1.4.8 3.5 1.5 4.7s1.2 2.9 1.2 3.8c0 .8 1.4 4.4 3.2 7.8 4.3 8.5 4 11.8-2.2 21.8-2.7 4.3-4.5 7.9-4 7.9.6 0 .3 1.8-.6 4-1.6 4-1.6 4 1.5 7.5 4.1 4.7 3.9 5.4-.4 2-2-1.5-4.2-2.4-5-2.1-3.4 1.3-2.8 5.5 2.5 18.9 5.6 14.4 5.7 14.7 9 25.7 1.9 6.4 4.5 14.2 5.9 17.4.2.5-.3.7-1.2.3-.9-.3-1.8.1-2.1 1-.8 2.1.3 3.5 2.3 2.8 1.3-.4 2.2.5 3.4 3 2.1 4.4 2.2 7.5.3 7.5-1.2 0-1 1.3 1 6.7 1.4 3.8 4.1 11.5 6.1 17.3 3.5 10.3 6.4 17.8 8.3 21.2 1.4 2.4 1.4 2.4-2 3.8q-4.5 1.95-2.1 4.5c.5.6 1.2 2.1 1.6 3.4.7 2.1.5 2.3-2.4 1.6-2.7-.6-3.2-.3-4.3 1.9-1.5 3.5-4.4 4.1-11.1 2.1-5.4-1.5-5.7-1.5-9.6.5l-4.1 2v10.4c0 8.3.3 10.5 1.5 11 .8.3 1.5 1.7 1.5 3.1v2.5h231V0H0z"/><path d="M266.4 176.5c-.8 1.9.1 15.1 1.1 17.7 1.2 3 2.1 2.1 5-5.2 3.1-7.6 3-8.1-2.7-12.1-2.5-1.8-2.9-1.9-3.4-.4m-44.1 12.9c-2.2 8.5-2 12.9.6 12.4 2-.4 4-14.5 2.5-17.9-.9-1.9-1.3-1-3.1 5.5M205.5 254c-.3.5-.1 1 .4 1 .6 0 1.1-.5 1.1-1 0-.6-.2-1-.4-1-.3 0-.8.4-1.1 1m44.3 108.8c-2.6 1.5-6.8 4-9.5 5.7-4.9 3.1-5.1 3.1-18.8 2.2-2.8-.2-3.1.2-4.7 4.8-3 9.2-4.8 8.5 20.8 8.5 20.6 0 22.6-.1 22-1.6-.4-1 .1-2.5.9-3.4 1.6-1.8 1.3-6.1-1-16.8-.7-2.9-3.7-2.8-9.7.6"/></svg>