<svg xmlns="http://www.w3.org/2000/svg" width="682.667" height="512" version="1.0" viewBox="0 0 512 384"><path d="M0 192v192h206v-8.6c0-9.7-.7-10.9-7.4-13.4-3.7-1.4-4.2-2-4.9-6-.5-2.5-1.1-5.5-1.3-6.8-.3-1.3-1.8-3.1-3.4-4-1.7-1-3-2.6-3-3.7-.1-1.1-.7-3.1-1.5-4.5s-1.4-3.8-1.5-5.3c0-5.5 6.2-21.4 17.1-43.2 6-12.1 10.9-22.6 10.9-23.3 0-.6-.6-1.2-1.3-1.2s-2-1.6-2.9-3.6c-1.6-3.6-1.6-3.7.9-7.5 1.4-2.2 3-3.9 3.4-3.9.5 0 .9-.6.9-1.4s1.6-4.8 3.5-8.9 3.5-7.7 3.5-8.1c0-.3-.9-.6-2.1-.6-5.1 0-6.9-2.9-8.8-14.5-.6-3.3-1.3-7-1.6-8.1-.5-1.7-.1-2.4 2.4-3.2 3.7-1.3 3.7-1.4.9-5.3-2-2.6-2.3-4.5-2.6-13.9-.4-13 1.2-19.6 9.4-38.7 3.1-7 7.3-18.1 9.4-24.6 4.1-12.2 9.5-24.7 11.4-26 1.2-.7 1-.9-5.2-4.8-5-3.2-4.1-4.3 3.1-3.6l6.2.6 5.8-5.5c4.3-4 6.5-5.4 8.7-5.4 1.7 0 3-.5 3-1 0-1.5 3-1.2 3.6.4.3.8 2.8 2.4 5.5 3.6l5 2.1 5.7-3.1c5.1-2.8 4.7-2.2-1.1 2.2-1.8 1.3-1.6 1.6 2.2 4.2 4.2 2.9 4.5 3.5 5.6 9.8.3 2.1 1 3.8 1.5 3.8.6 0 1 1.5 1 3.4 0 3 .6 3.7 4.5 6 6.6 3.9 5.8 6.4-1.4 4.7-3.8-.8-4.1-.7-4.1 1.2 0 1.1-.3 1.7-.7 1.4-.4-.4-1.2.6-1.9 2.1-.8 2.1-2.1 3.1-4.4 3.5-1.8.4-3.7.4-4.2 0-1-.5-.9 1.1.3 5.6.2.8-.4 1.7-1.5 1.9-2.7.6-6.4 4.3-7.1 7.2-.5 2.2-.1 2.8 3.7 4.8 11.1 5.8 18.8 12.6 18.8 16.5 0 1.2.9 3.5 2 5.2 1.1 1.6 2 3.8 2 4.8 0 .9 1.1 3.9 2.5 6.6 4.9 9.3 4.4 12.8-3.5 24.4-1.6 2.5-3 5.6-3 7s-1.6 5.3-3.5 8.6c-1.9 3.2-3.5 6.4-3.5 7.1 0 .6 1.4 4.3 3.1 8.3 4.6 10.6 11 29.4 12.4 36.7.4 1.9 1.4 4.9 2.3 6.7 1.4 2.9 1.3 3.3-.2 4.8-2.1 2.2-1.5 4.1 1.1 3.7 2.1-.3 3.5 2 4.9 8.1.5 2.1.3 2.7-1 2.7s-1.2.8.8 5.4c1.3 2.9 4.5 10.7 7.1 17.2 2.5 6.5 6 14.6 7.7 17.8 2.9 5.7 3 6 1.3 7.3-1.1.7-2.5 1.3-3.2 1.3-1.7 0-1.6 1.8.2 5 2 3.5 1.8 4.3-.8 3.6-1.9-.4-2.5 0-3.4 2.5-1.1 2.9-1.5 3.1-5 2.5-12.7-2-12.3-2-15.1.7-1.5 1.3-3.7 2.8-4.9 3.2-2.2.6-2.3 1.2-2.3 10 0 5.2.4 9.7 1 10 .5.3 1 1.7 1 3.1v2.4h222V0H0z"/><path d="M274.9 184.7c-.1 5.9-.3 11.8-.4 13.1-.1 1.2.1 2.5.5 2.7 1.1.7 2.6-1.4 4.8-7 1.1-2.8 2.7-6.6 3.5-8.5l1.5-3.5-4.9-3.8-4.9-3.8zM260 366.5l-6.3 4.5-9.1-.5c-12.6-.6-17.9 1.2-19.6 6.8-.6 2.1-1.4 4.5-1.7 5.3-.4 1.2 3.2 1.4 22.7 1.4 23 0 23.1 0 22.5-2.1-.5-1.3-.1-2.5 1-3.3 1.5-1.1 1.5-1.9.3-8.6-.7-4-1.8-7.5-2.3-7.7-.6-.2-3.9 1.7-7.5 4.2"/></svg>