<svg xmlns="http://www.w3.org/2000/svg" width="682.667" height="512" version="1.0" viewBox="0 0 512 384"><path d="M0 192v192l109.3-.2 109.2-.3.5-8.4c.5-7.9.4-8.5-1.9-10.2-1.3-1.1-3.3-1.9-4.5-1.9-3.9 0-6.4-2.7-7.1-7.8-.9-6-2.5-8.6-6.5-10.2-2.7-1.1-3.1-1.7-2.7-3.9.3-1.4-.1-3.7-.8-5.1-3.8-6.7-1.4-12.8 22.9-59.3 5.7-11 6.7-14.1 4.2-13.1-1 .4-2-.6-3-3.1-1.5-3.5-1.4-3.8 1.1-7.6 1.4-2.1 3-3.9 3.4-3.9.5 0 .9-.8.9-1.8 0-.9 1.4-4.6 3-8 3.6-7.7 3.7-8.8.5-9.6-3.3-.8-5-4.5-6.5-13.6-.7-4.1-1.7-9.5-2.3-12s-1.1-10.8-1-18.6c.1-17.5 1.3-22.1 10.5-41.4 3.8-7.9 8.5-18.9 10.5-24.5 1.9-5.5 5.2-13.2 7.2-17 2-3.9 3.7-7.2 3.8-7.5.2-.3-1.5-1.6-3.7-3-6.5-4-6.1-5.3 1.2-4.8l6.3.5 6.2-5.4c3.5-2.9 7.3-5.3 8.4-5.3s2.8-.7 3.7-1.6c1.5-1.5 1.7-1.5 2.5.4.5 1.1 3.2 2.9 6.1 4l5.1 2 5.5-3.1c6.1-3.4 6.2-3.2.7 1.1l-3.8 3.1 2.3 1.2c4.4 2.2 6.8 5.2 6.8 8.3 0 1.7.8 4.4 1.9 5.9 1 1.5 1.6 3.8 1.4 5.1-.4 1.8.2 2.6 2.5 3.5 3.7 1.6 6.6 4.6 5.8 6-.4.6-2.5.8-5.3.4-4.4-.6-4.5-.5-3.9 1.8.6 1.8.5 2-.3.9-.8-1.2-1.2-.9-2.1 1.7-.8 2.3-1.7 3.1-3.1 2.8-1-.2-2.1 0-2.4.6-.4.5-1.5.9-2.6.9-2.2 0-2.2 0-.9 3.4.8 2.3.6 2.7-2.6 4.2-2 1-3.7 2.2-3.9 2.8-1.8 6.1-1.7 6.5 3.2 9.1s9.7 5.8 14.5 9.5c1.4 1.1 2.9 3.5 3.3 5.3.7 3.6 1.6 5.7 6.9 16.7 4.9 10.3 4.7 13-1.2 22.1-2.6 4.1-4.8 8.4-4.9 9.5-.2 2.1-1.3 4.6-6.1 13.4l-2.4 4.3 3.5 7.6c4 8.5 9.9 25.1 11.6 32.5.7 2.7 2.3 7.6 3.6 10.8 1.8 4.4 2 5.6.9 4.7-1.3-1-1.7-1-2.4.1-1.2 2-.1 4 2.2 3.7 1.6-.2 2.3.7 3.4 4.3.9 3 1 4.8.3 5.6-.7.9-.6 2.3.5 4.6.8 1.8 4 9.6 7.1 17.3s7 16.5 8.6 19.6l2.8 5.7-3.2 1.3c-1.8.7-3.3 1.3-3.5 1.5-.2.1.6 2 1.8 4.3l2 4.1h-2c-1.2 0-2.5 1-3.2 2.6-1.3 2.8-2.2 2.8-11 .4-4.5-1.3-4.8-1.3-8.1 1.3-2 1.5-4.7 3.1-6.1 3.7-2.5.9-2.6 1.2-2.6 10.4 0 5.2.4 9.8 1 10.1s1 1.7 1 3.1v2.4h208V0H0z"/><path d="M288.6 187.2c-.4 7.2-.4 13.3-.1 13.6 1 1 2.6-1.5 6.2-9.4 1.9-4.4 3.6-8.4 3.9-8.9.2-.6-1.8-2.7-4.4-4.7l-4.9-3.6zm-66.4 9.8c.2 3.9.7 6.3 1.3 6 1.2-.6.8-8.8-.6-11-.6-1-.8.7-.7 5m52.3 169.5c-5.5 3.8-8.2 4.3-16.8 3.1-4.9-.6-6.9-.4-12.3 1.5-6 2.1-6.5 2.5-7.5 6.2-.5 2.1-1.3 4.5-1.6 5.3-.4 1.2 3 1.4 23 1.4h23.4l-.5-2.5c-.2-1.5 0-2.5.7-2.5 2.4 0 .5-15.3-1.9-15.7-.8-.1-3.7 1.3-6.5 3.2"/></svg>