<svg xmlns="http://www.w3.org/2000/svg" width="682.667" height="512" version="1.0" viewBox="0 0 512 384"><path d="M0 192v192h228v-7.6c0-9.8-1.9-12.7-9.5-14.9-5.7-1.7-6.5-2.8-6.5-9.7 0-2.8-.7-4.2-3.1-6.2-1.7-1.4-3.5-2.6-4.1-2.6-.5 0-.8-1.2-.7-2.8.2-1.5-.3-4.2-1-6-.8-1.9-1.1-4.6-.7-6.6.8-4.2 10.1-23.4 18.9-38.8 7.3-12.8 11.1-20.3 12.1-23.5.6-1.8.4-2.2-.8-1.7-1.2.4-2-.4-3.1-3.1-1.5-3.4-1.5-3.8.7-7.3 1.2-2 2.4-3.9 2.7-4.2.4-.3 2.1-3.5 3.8-7.3 3.8-7.8 4.2-11.2 1.3-12-1.1-.3-2.9-2.6-4.2-5.3s-2.6-5.1-3-5.2c-.5-.2-.8-1.4-.8-2.7s-.5-2.7-1.1-3.1c-.8-.4-.9.4-.5 2.7l.7 3.4-1.7-3c-1.5-2.6-1.6-4.1-.7-11.5.7-5.7.7-9.3.1-11-1-2.4-1.1-2.4-1.8-.5-.5 1.1-.9 3.8-1 6 0 3.5-.2 3.8-1.2 2-2-3.3-1.5-15.3 1.1-26 3.2-13.7 5.4-19.1 13.1-31.9 8.5-14.2 9.3-15.8 12.9-25.4 1.6-4.5 4.7-11.5 6.9-15.7l4-7.6-4.4-3c-6.2-4.2-5.7-5.3 1.9-4.7l6.3.5 6-5.3c4-3.7 6.8-5.4 8.6-5.4 1.4 0 2.8-.5 3-1.2.3-.8 1.4-.5 3.4.9 1.6 1.1 4.7 2.8 6.8 3.7 3.8 1.6 4 1.6 8.5-1l4.6-2.7-3 3.3c-2.1 2.2-2.6 3.4-1.7 3.7.7.3 2.6 1.6 4.2 3 2.3 1.9 3 3.3 3 6.2 0 2 .6 4.6 1.4 5.7.8 1 1.2 2.9 1 4-.5 1.7.4 2.8 4.6 5.3 6.2 3.8 6.1 5.7-.4 5.3-4.1-.3-4.6-.1-4.6 1.8 0 1.2-.4 1.9-.9 1.5-.5-.3-1.2.3-1.6 1.4-.3 1.2-2.3 2.5-4.8 3.3-3.9 1.2-4.2 1.6-3.9 4.6.2 2.5-.2 3.2-1.6 3.2-2.4 0-5 2.9-6.1 6.8-.8 2.7-.7 3.2 1.2 3.8 1.2.3 3.8 1.8 5.7 3.4 1.9 1.5 4.5 3 5.7 3.4 3.4 1.1 10.3 8.3 10.3 10.8 0 1.3.9 3.6 2 5.3 1.1 1.6 2 3.6 2 4.3 0 .8 1.6 4.6 3.5 8.5s3.5 7.7 3.5 8.4c0 1.8-3 7.6-7.4 14.3-2 3-3.6 6.4-3.6 7.6s-1.8 5.4-4 9.3-4 7.5-4 8.1 1.3 3.6 2.9 6.8c3.8 7.6 13.1 34.1 13.1 37.2 0 .9.9 3.3 2 5.5 2.4 4.8 2.4 4.5.1 4.5-1.3 0-1.8.7-1.7 2.3s.7 2.1 2.1 1.9c2.7-.3 6.4 8 4.5 10.3-1.2 1.4.6 7 6.5 21 .7 1.6 1.6 4.1 2 5.5 1 3.3 4.1 10.6 6.6 15.2 2.6 5.1 2.4 6.7-1 7.9l-3 1 1.9 4.5 1.9 4.4h-2.4c-1.5 0-2.6.7-3 2-.8 2.5-3.1 2.5-10.2.3l-5.3-1.7-4.5 3.2c-2.5 1.8-5.1 3.2-5.8 3.2-1.9 0-2 19.7-.1 20.4.8.3 1.4 1.7 1.4 3.1v2.5h198V0H0z"/><path d="M298.6 175.4c-.9 3.4-.7 25.6.3 25.6 1.4 0 2.7-2 6.7-10.9l3.8-8.4-2.9-2.1c-1.6-1.2-3.9-3.1-5.1-4.2l-2.2-2.1zm-44.8 14c-2.4 9.6-2.3 12.6.1 12.6 3.5 0 5.1-13.4 2.2-18.7-.3-.6-1.4 2.1-2.3 6.1M284 365.2c-8 5-11.1 5.8-18.6 4.6-4.2-.7-7.4-.6-11 .3-5 1.1-5.2 1.3-6.8 6.1-2.7 8.4-4.4 7.8 21.8 7.8 23.1 0 23.4 0 22.9-2-.3-1.3.1-2.6 1.1-3.3 1.5-1.1 1.5-1.9.1-9-.8-4.3-1.5-8.1-1.5-8.3 0-1-1.9-.1-8 3.8"/></svg>