<svg xmlns="http://www.w3.org/2000/svg" width="682.667" height="512" version="1.0" viewBox="0 0 512 384"><path d="M0 192v192h236v-7.8c0-7.4-.2-8-3.3-11.4-2-2.2-4.9-4-7.4-4.7-4.4-1.2-4.8-1.8-5.9-9.4-.5-3.8-1.3-5.3-4-7.3-1.8-1.4-3.1-3.1-2.8-3.9.3-.7-.1-3.2-.9-5.5-1-3.1-1.2-5.4-.5-8.2 1-4.8 7.3-17.5 17.1-34.4 7.7-13.4 12.1-21.7 13.7-26 .9-2.3.8-2.5-1-1.9-1.5.5-2.2-.1-3.5-3.1-1.5-3.6-1.5-3.7 1.8-8.3 2.8-3.9 6.9-12.8 9.1-19.4.4-1.2-.2-2.1-1.9-2.9-1.6-.7-3-2.7-4.1-5.7-.9-2.5-2.4-6.6-3.4-9l-1.7-4.3-.7 5.6c-.7 5.6-2.6 8.8-2.6 4.3 0-1.4-.3-4-.7-5.8l-.7-3.4-1.2 4-1.2 4-.1-5c0-2.8.6-7.7 1.4-11 1.7-6.8 1.9-11.9.6-11.1-.4.3-1.1 2.4-1.5 4.6-.9 5.5-2.4 5-2.8-.8-.4-5.9 5.8-30.7 9.5-37.8 1.4-2.9 5.8-10.4 9.6-16.7 3.8-6.4 8.6-16 10.6-21.4s5.5-13.3 7.7-17.6 3.9-7.9 3.7-8.1c-.2-.1-2.1-1.3-4.1-2.5-2.1-1.2-3.8-3-3.8-3.8 0-1.3 1-1.5 6.2-1l6.3.6 5.7-5.5c3.1-3 6.4-5.4 7.4-5.4s2.5-.7 3.4-1.5c1.4-1.3 1.9-1.2 4.3 1.1 1.5 1.4 4.7 3.2 7.1 4 4.4 1.5 4.4 1.5 10.2-2.1 5.4-3.3 4.9-2.5-1.6 2.8q-2.55 1.95-1.2 2.4c3.9 1.4 7.1 5.6 7.8 10.1.3 2.6 1.1 5.2 1.6 5.9.5.6.8 1.9.6 2.9-.2 1.1 1.3 2.8 4.2 4.9 6 4.3 6 6.1-.2 5.7-3.9-.2-4.8 0-4.8 1.3 0 .9-.5 1.3-1 1s-1 .3-1 1.3c0 2.6-2.1 4.2-5.9 4.5-3.4.2-4.6 1.9-3.1 4.6 1 2 .4 3.1-1.7 3.1-2.3 0-5.2 3.4-5.9 6.8-.6 2.8-.3 3.2 2.7 4.5 1.9.8 4 2.1 4.7 3 .8.9 3.3 2.5 5.7 3.7 5.8 2.8 9.5 6.7 9.5 10 0 1.5.9 3.5 2 4.5s2 2.6 2 3.6c0 1.1 1.8 5.3 4 9.5s4 8.4 4 9.4c0 .9-2.3 5.5-5.1 10.1-2.9 4.6-5.6 10-6.1 11.9-.6 1.9-2.8 6.5-4.9 10.1l-3.9 6.6 3.6 7.8c3.8 8.1 12.4 32.5 12.4 35 0 .7 1.1 4 2.3 7.2 3.1 7.5 5.7 15.7 5.7 17.6 0 .8-.6 1.7-1.2 2-1 .3-1 .9-.2 2.8 3.2 6.5 4.6 10.2 9.5 23.9 2.2 6.4 3.4 9.2 6 14.2 2.7 5.3 2.5 7.3-1.1 8.4l-2.9.9 1.9 4.4 2 4.3-2.4-.4c-2-.4-2.7.1-3.7 2.3-1.3 3.3-2.3 3.5-7 1.5-6-2.5-8.4-2.3-13.8 1.2l-5.1 3.3v9.4c0 5.2.4 9.7 1 10s1 1.7 1 3.1v2.4h190V0H0z"/><path d="M306.7 175.6c-.3 1.5-.5 7.8-.6 14-.2 10.5 0 11.4 1.7 11.4 1.3 0 2.9-2.5 6.1-9.7l4.3-9.7-2.8-2c-1.6-1.2-3.9-3.1-5.2-4.3-2.9-2.9-2.9-2.9-3.5.3m-43 7.4c-1.1 2.6-2.9 10.3-3.4 14.8-.5 4.1-.4 4.3 1.8 4 2-.2 2.6-1.1 3.3-5 1-4.9-.5-16.6-1.7-13.8M244 255.6c0 .8.5 1.2 1 .9.6-.3 1-1 1-1.6 0-.5-.4-.9-1-.9-.5 0-1 .7-1 1.6m86.6 21.9c-.6 1.7.2 4.5 1.4 4.5 1.5 0 2.2-1.9 1.5-4-.8-2.4-2.1-2.6-2.9-.5m-36.7 85.8c-3 1.8-6.7 4.2-8.4 5.2-2.5 1.7-4.4 2-13 1.7-14.3-.3-14.9-.1-16.9 6-2.7 8.4-4.4 7.8 21.9 7.8H301v-2.3c0-1.3.5-2.8 1.2-3.5.9-.9.8-3.2-.1-9.7-.7-4.7-1.6-8.5-2-8.5s-3.2 1.5-6.2 3.3"/></svg>