<svg xmlns="http://www.w3.org/2000/svg" width="682.667" height="512" version="1.0" viewBox="0 0 512 384"><path d="M0 192v192h238v-7.9c0-7.6-.1-8.1-3.3-11.4-1.9-2.1-5-4-7.4-4.6-3.7-1-4.3-1.5-4.8-4.6-.3-1.9-.7-5.1-1-7-.4-2.5-1.4-3.9-3.4-5-3-1.5-3.6-3.4-4.7-14-.5-4.7-.1-5.9 6.3-18.5 3.8-7.4 9.7-18.3 13.1-24.2 3.5-5.9 7.6-13.7 9.2-17.3 2.7-6 2.8-6.6 1-6-1.5.5-2.2-.1-3.5-3.1-1.5-3.6-1.5-3.7 2-8.5 1.9-2.7 3.5-5.4 3.5-5.9 0-.6 1.1-3.3 2.5-6 3.1-6.2 3.1-8.7.1-11.1-2.1-1.6-5.3-9.5-7-17.4-.2-.6-.8 2-1.5 5.7-1.3 6.6-3.1 8.4-3.1 3 0-4.1-1.5-5.9-2.5-3-1.7 4.7-1.7-6-.1-12.3.9-3.3 1.6-7 1.5-8.2s-.6-.2-1.3 2.3c-1.2 4.2-1.3 4.4-2.4 2.3-2-3.6-1.4-10.7 1.9-23.6 3.4-13.1 7.2-21.7 16.4-36.7 3.2-5.2 7.6-14.2 9.7-20 2.2-5.8 5.8-14 8-18.3s3.9-7.9 3.7-8.1c-.2-.1-2.1-1.3-4.1-2.5-2.1-1.2-3.8-3-3.8-3.8 0-1.3 1.1-1.5 6.3-1.1l6.2.5 5.7-5.3c3.1-3 6.6-5.4 7.8-5.4 1.1 0 2.3-.7 2.6-1.5.5-1.1 1.3-1 4.4 1 2.1 1.3 5.4 3.1 7.5 3.9 3.6 1.5 3.9 1.5 7.4-.6 7.9-4.8 8.5-4.9 4.1-.8-4.2 4-4.4 4.3-2.6 5.4 4.7 2.6 6.6 5.5 6.6 9.5 0 2.2.5 4.3 1 4.6.6.3 1 1.8 1.1 3.3 0 2 1.1 3.5 4.2 5.7 5.7 4.2 5.6 6.1-.5 5.8-4.3-.2-4.6-.1-4 1.9.3 1.3.1 1.9-.5 1.5-.5-.4-1.6.5-2.3 1.9-1 1.7-2.5 2.6-5.2 3-3.7.6-3.8.8-3.2 4 .5 2.9.3 3.4-1.3 3.4-2.4 0-4.7 2.5-6.1 6.6-1 3.1-.9 3.2 2.9 4.9 2.1 1 4.4 2.4 5.1 3.2.6.8 3 2.4 5.2 3.5 6 3 8.6 5.7 9.2 10 .4 2.1 1.3 4.3 2 4.9.8.6 1.4 2 1.4 3 0 .9 1.6 4.5 3.6 7.8 5.7 9.5 5.6 12-.9 22.3-3 4.8-5.3 8.9-5 9.2.5.4-2.4 6.6-6.6 13.9-2.5 4.4-2.6 6.5-.7 9.3 1.9 2.7 6.9 15.1 10.2 25.7 1.5 4.5 3.5 10.7 4.4 13.7 1 3 2.5 7.2 3.4 9.3.9 2 1.2 3.7.7 3.7s-1.3-1-1.6-2.1c-.6-1.7-.9-1.9-1.6-.8-1.5 2.4-1 3.9 1.5 3.9 1.9 0 2.6.8 3.6 4.6 1 3.3 1 5.1.3 6.3-.8 1.1-.7 2.4.3 4.3.8 1.5 3.8 9.2 6.8 17 2.9 7.9 6.6 17 8 20.3 2.5 5.6 2.6 6 1 7.2-1 .7-2.4 1.3-3.1 1.3-1.7 0-1.6.9.2 5.4 1.5 3.5 1.5 3.6-.8 3.6-1.6 0-2.8.9-3.5 2.5-1.4 3-1.9 3-8.7.9-6.1-2-8.8-1.5-13.3 2.3-3.1 2.7-3.2 3.2-3.6 10.6-.2 5.1.2 8.6 1.1 10.3.7 1.5 1.3 3.5 1.3 4.5 0 1.8 2.6 1.9 93.5 1.9H512V0H0z"/><path d="M309 178.7c0 3.2-.3 9.5-.7 14-.6 7.7-.5 8.3 1.3 8.3 1.5 0 3-2.3 6.4-9.6l4.4-9.7-3-2.1c-1.6-1.1-3.9-3.1-5-4.3-1.2-1.3-2.4-2.3-2.8-2.3-.3 0-.6 2.6-.6 5.7m-44.9 11.2c-2.4 8-2.2 12.5.7 11.9 2.3-.4 3.7-8.4 2.5-14.6l-.9-4.7zm34.4 172.3c-1.1.6-4.5 2.7-7.5 4.7l-5.5 3.6-10.7-.2c-14-.4-15.2.2-17.2 7-.9 3-1.6 5.8-1.6 6.1s10.6.6 23.5.6c23.5 0 23.5 0 23.5-2.2 0-1.2.6-2.9 1.3-3.7 1.1-1.3 1.1-2.9-.1-9.4-1.4-7.8-2.1-8.5-5.7-6.5"/></svg>