<svg xmlns="http://www.w3.org/2000/svg" width="682.667" height="512" version="1.0" viewBox="0 0 512 384"><path d="M0 192v192h267v-4.3c0-2.3.3-5.2.6-6.4.9-3.3-2.9-3.3-11.5 0-6.8 2.5-7.5 2.6-9.1 1.2-1-.9-2.3-3.6-2.9-6.1-.9-3.5-1.9-4.9-4.3-6.2-5.9-3.1-8.6-6.5-9.3-11.8-.9-5.9-1.9-8-5.6-12-2.9-3-2.9-3.3-2.3-10.3.6-5.8 1.4-8.3 4.2-12.9 1.9-3.1 5.4-9.1 7.6-13.2 2.3-4.1 7.8-12.7 12.3-19 4.4-6.3 9.5-14.2 11.2-17.4l3.1-5.9-3-2.6c-1.7-1.5-4.3-5.7-6-9.8-3.2-7.6-3-10.4.7-14.6 1.3-1.4 1.4-2.2.5-4.2-.6-1.4-1.8-2.5-2.6-2.5s-1.7-1.4-2.1-3.1c-.5-2.4-.9-2.8-1.6-1.8-1.4 2.2-2.4-.2-5-12-2.1-10-2.2-11.4-1.1-24.6 1.4-16.8 2.8-20.7 14.2-40.5 4.3-7.4 9.3-17.4 11-22.2 1.8-4.9 5.2-12.7 7.6-17.4 2.4-4.8 4.3-8.8 4.2-8.9-.2-.1-2-1.2-4.1-2.4-2-1.3-3.4-2.7-3.1-3.3.3-.5 3.2-.8 6.3-.7l5.6.4 6.3-6.3c3.4-3.5 6.2-7 6.2-7.7 0-2 1.3-1.9 4.4.6 1.4 1.1 3.2 1.9 3.9 1.6.6-.2 2.3.4 3.6 1.4 3.2 2.6 4.2 2.4 10.8-1.7l5.8-3.5L319 78c-3.7 3.3-4.2 4.2-3 5 .8.5 1.9 1 2.4 1 2.5 0 7.4 5.2 8 8.3.4 2.1 1.7 4.2 3.7 5.6 2.7 2 3 2.7 2.5 5.6-.6 3-.3 3.5 2.9 5.4 4.9 2.9 4.5 4.4-1 3.9q-4.5-.3-4.5.9c0 2-5.5 7.3-8.6 8.2-2.3.6-2.9 1.3-2.7 3.5.1 2-.5 3-2.6 4.1-3.3 1.6-8.1 7-8.1 9 0 .7 1.3 1.8 3 2.5 3.8 1.6 7.9 5.7 9.6 9.5.7 1.6 2.4 4.5 3.8 6.4 2.2 2.9 2.5 4.3 2.4 11-.1 6.1.5 8.9 2.6 14.4 3.3 8.1 2.7 10.9-3.2 17-3.2 3.3-3.5 4-2.4 5.7.9 1.5.9 3.2.2 6.4-.9 3.9-.5 5.4 3.4 16.2 5.2 13.9 8.7 27.3 11.5 43.4 1 6.3 2.2 12.3 2.6 13.3s.3 1.7-.4 1.7c-.6 0-1.1.5-1.1 1.1s.7.9 1.5.5c2.2-.8 4.8 5.9 4.1 10.6-.4 2.2 0 5.3.8 7.5.8 2.1 2.5 7.2 3.6 11.3 1.2 4.1 4 12.2 6.2 17.9 3 7.6 3.8 10.9 3.1 12-.6 1-.6 2.7 0 4.8 1.1 3.5.8 4.3-1.7 4.7-.9.1-2.9 1.5-4.6 3.1-3.3 3.2-5.5 3.4-15.3 1.8-5.5-1-6-.9-10.9 2.1-5.6 3.3-5.8 3.7-7.2 15.4l-.7 5.2H512V0H0z"/><path d="M277.3 178.2c-.4.7-1.3 4.7-1.9 8.8-1.1 7.3-1.1 7.4-2.1 4l-1-3.5-1.2 2.8c-.6 1.6-1.1 3.7-1.1 4.7s-.7 2.5-1.5 3.4c-2.4 2.4-1.9 5.6.9 5.6 1.3 0 3.8.3 5.5.6 2.8.6 3.1.4 3.1-2 0-1.4.7-6.2 1.6-10.6 2.1-10.3.7-18.5-2.3-13.8m-7.5 47.4c-2.9 1.5-3.4 2.9-2 5.2 1 1.5 3.6-1 4.6-4.6.8-2.6.9-2.6-2.6-.6M294.4 369c-3.5 1.7-4.3 2.8-5.7 7.4-2.4 7.6-2.4 7.6 4.1 7.6 4.8 0 5.9-.3 7.1-2.2 1.5-2.4 2.4-10.2 1.5-13.1-.7-2.2-2-2.2-7 .3"/></svg>