<svg xmlns="http://www.w3.org/2000/svg" width="682.667" height="512" version="1.0" viewBox="0 0 512 384"><path d="M0 192v192h136c108 0 136.2-.3 136.5-1.3.3-.6.6-3 .8-5.2.3-2.6 1-4.1 1.9-4.3s1.8-1.4 2.1-2.7c.3-2.1-.2-2.8-3.7-4.5-3.7-1.7-5-1.9-12.1-1-6.2.7-9.3.5-13.9-.6-5.3-1.4-6.1-1.4-9.4.2-4.1 1.9-6.2 1.1-7.7-3-.7-2.1 0-6.4 3.4-19.9 5.3-20.9 8.2-28.5 15.9-42.4 6.1-11.1 14.2-26.8 14.2-27.8 0-.3-.9-.5-2-.5s-2-.1-2-.3c0-.1.4-1.8 1-3.7.7-2.3.6-3.6-.1-4.1-1.1-.7 2.1-8.2 4.1-9.4.5-.3 1-1.4 1-2.4s1.1-4.4 2.4-7.7l2.4-5.9-3.1-.7c-1.8-.4-4.4-.5-5.9-.2-1.9.4-2.8.1-2.8-.8-.1-.7-.9.2-1.8 2-1.8 3.3-4.7 5.4-9.4 6.5-2 .5-2.7.2-3.6-1.9-.7-1.4-1.2-3.2-1.2-4s-.5-2.2-1.1-3.2c-.9-1.5-.8-3 .5-7 1-2.9 2.2-5.4 2.7-5.7 1.3-.9 1-4.6-.6-7.5l-1.4-2.5-.1 2.5c0 1.4-.4 3.2-1 4-1.7 2.8-3.3-4.2-3.4-15.5-.1-10.1.2-11.8 3.3-20.5 1.8-5.2 4.2-11.2 5.2-13.2 1.1-2.1 1.9-3.9 1.9-4.1 0-.3-2 1.6-4.5 4.1s-4.8 4.2-5.1 3.9c-.9-.9 4-9 10.6-17.7 3.1-4.1 6.2-8.5 6.9-9.8.9-1.7 11.8-32.3 15.7-44.4.5-1.3-.3-1.9-3.6-2.8-5.3-1.4-4.7-3.1 1.5-4.7 2.7-.7 5.5-1.9 6.4-2.7 1.3-1.4.8-2.2-4.5-7.7-5.9-6.2-5.9-6.2-3.3-7.1 1.7-.6 4.3-.2 8.4 1.3 7.8 2.7 10.3 2.5 14-1.1 4.5-4.4 9-3.9 6 .6-1.7 2.7-2.9 2.2 11.1 4.9 10.1 1.9 9.4 2 9.4-1 0-3.7 1.8-3 2.6 1 .5 2.6 1.1 3.5 2.6 3.5 1.2 0 3.6 1 5.5 2.1 3.4 2.1 3.4 2.2 3.2 9.1-.2 6.1 0 7.1 2 8.4 3.2 2.3 1.7 3.4-4.5 3.4H324v4.2c0 2.6-.9 5.7-2.5 8.4-1.7 3-2.9 7-3.6 12.6-.5 4.6-1.2 9.1-1.5 10.1s.7 3.2 2.5 5.4c2 2.4 3.1 4.9 3.1 6.9 0 1.7.3 4.6.6 6.3l.7 3.2 7.1-.7c8-.7 11-1.9 10.2-4-.3-.7.1-1.7.8-2.1.7-.5 2.1-2.4 3-4.5 1-2 2.6-4.4 3.6-5.3 2.1-1.9 4.5-1.1 3.6 1.1-.3.8-.1 1.4.4 1.4s1.7 1.1 2.6 2.6c1.5 2.2 1.6 3.3.4 9.7-1.3 7.9-3.5 11.2-8.4 12.6-1.7.5-6.7 2.5-11.1 4.5s-8.8 3.6-9.7 3.6c-2.9 0-3.1 4.2-.8 15.1 1.2 5.7 2.1 12.2 2.1 14.4-.1 4.1.6 6.4 4.5 15.3 1.3 2.8 4.6 13.9 7.4 24.5 2.7 10.5 6.7 24.4 8.8 30.7 3 8.8 3.7 12.2 3.1 14.4-.9 3.1-.5 4.6 1.3 4.6.5 0 .8-.6.5-1.4s-.3-1.7.1-2c.3-.4 1.4 2 2.4 5.1 2.2 7 2.2 8.3.4 5.7-1.5-1.9-1.5-1.9-3.5.1-2.4 2.4-5.1 15-5.1 24.1 0 7.9-2.4 16.1-5 16.9-1.5.5-2 1.5-2 4.3 0 2.1-.9 4.8-2 6.2-1.8 2.4-2 2.4-3.3.7-1.3-1.8-1.5-1.8-5.1.7-5 3.4-11.1 5-15.6 4.1-8.2-1.6-8.3-1.6-10.7 5.5-1.1 3.6-2.2 7.3-2.2 8.2-.1 1.7 5.6 1.8 105.4 1.8H512V0H0z"/><path d="M305.2 138c-.7 1.9-.7 2.9.4 3.9 2 2.2 2.8.6 1.7-3.1l-1-3.3zm-21.6 57.6c-.4 2-.5 3.8-.2 4.1.2.3.8-1.1 1.2-3.1.3-2.1.4-3.9.1-4.2-.2-.3-.8 1.1-1.1 3.2m-1.5 6.1c-.1.6-.4 2-.7 3-.5 1.7-.5 1.7.6 0 .6-1 .9-2.3.6-3-.3-.9-.5-.9-.5 0"/></svg>