<svg xmlns="http://www.w3.org/2000/svg" width="682.667" height="512" version="1.0" viewBox="0 0 512 384"><path d="M0 192v192h269.8l.7-6.5c.5-3.9 1.2-6.3 1.9-6.2.6.1 1.2-1 1.4-2.4.3-2.5.1-2.6-6.5-3.3-4.5-.5-7.5-1.3-8.8-2.6-1.6-1.5-4.2-1.9-14.3-2.4-7.2-.3-12.9-1-13.8-1.6-2.8-2.4-3.3-7.5-1.4-13.7 2.2-7 4-11.3 5.6-13.3.7-.8 2.5-5.3 4.2-10 1.6-4.7 6.4-15.3 10.5-23.6 6.8-13.5 11.7-24.7 11.7-26.6 0-.3-1.8-.9-4-1.3s-4.2-1-4.5-1.5 1.5-4.8 3.9-9.7c4.3-8.4 9.6-20.1 9.6-21 0-.2-.9-.2-1.9.2-1.1.3-2.2.1-2.6-.5-.3-.6-1.1-.8-1.6-.5-.5.4-.9.2-.9-.3s-.9-1.2-2-1.5-2-1.2-2-2.1-.4-1.6-1-1.6c-.5 0-1-2-1-4.5V223l-2.4 1.5-2.3 1.6-1.2-6.1c-.7-3.3-1.6-6-2.1-6s-1.6 1.2-2.3 2.7c-1.3 2.4-1.5 2.5-2 .7-1.5-4.9-1.8-15.4-.7-21.4.7-3.6 1.4-7.9 1.5-9.6.2-1.7 1.7-6.3 3.4-10.3l3.1-7.3-3.5 2.1c-1.9 1.1-3.5 1.7-3.5 1.3 0-1.2 5.6-10.2 12-19.2 6.8-9.8 10.6-18.1 16.5-36.7l4.3-13.3-3.7-.6c-2-.4-4-1-4.6-1.4-.5-.4-1.9-.9-2.9-1.1-1.5-.3-.8-1.3 3.6-4.9l5.5-4.6-6.5-5.4c-6.2-5-6.4-5.4-4.3-6.2 2.1-.7 9.7 0 16.2 1.7 2.3.6 3 .1 4.8-2.8 1.7-2.8 2.6-3.3 4.6-2.9 1.8.3 2.5 1.1 2.5 2.8q0 2.4 1.8 2.4c6.7.1 21.7 2.2 24.7 3.4 3.9 1.7 3.6 1.9 5.7-4.4.3-.9.9-.2 1.5 2 .7 2.5 1.8 3.9 4.3 5.1 1.9.9 3.7 2.5 4.1 3.5 1.1 2.8 1 9.2-.1 9.9-1.6 1-1.2 2.3 1 3 1.1.3 2 1.3 2 2 0 1.5-2.2 2.3-8 2.7-3.5.3-3.5.4-4.1 5.8-.4 3-1.1 7.1-1.8 9-.6 1.9-1.1 9-1.1 15.8 0 10.1.3 12.9 1.9 16l1.9 3.7 10.6-.3 10.5-.3-.5-2.9c-1.1-5.1 6.5-16.4 9.6-14.5 1.3.8 1.3 4.1 0 6.6-1.6 2.9.6 2.4 3.6-.8 4.1-4.4 4.6-2 2.4 10.2-1.1 6-2 11-2 11.2 0 .1-1.1 1-2.5 1.9-2.2 1.4-3 1.5-5 .4-2.2-1.2-3.9-.9-13.5 2-12.3 3.7-11.3 2.5-12.9 15.2-.7 6.2-.5 9.3 1 17 1 5.1 1.9 10.6 1.9 12.3 0 1.6 2.7 8.4 6 15s7.4 15.8 9.1 20.5c4.9 13.7 7.9 21 11.9 29.2 2.1 4.3 3.3 7.5 2.9 7.2-1-.6-1.2.8-.3 3 .3.9 1.2 1.6 1.9 1.6 1.8 0 2.6 2.5 3.1 10.4.6 8.5-.2 13.2-2.1 11.6-1-.8-1.4-.3-1.6 2.7-.2 2.1-.1 5.2.2 6.8 1.3 5.7.9 22.5-.4 25.8-2 4.6-3.8 5.8-10.2 6.4-4.9.5-5.8 1-7.1 3.4-.9 1.8-2.3 2.9-3.5 2.9-1.1 0-3.2.9-4.7 2-4 3-9.6 3.6-12.7 1.6-2.3-1.5-2.9-1.5-5.3-.3-4.1 2.2-7.4 3.5-10.4 4.1-2.1.5-3 1.6-4.3 5.6-.9 2.7-1.4 5.9-1 7 .6 2 1.2 2 107.6 2H512V0H0z"/><path d="M309.6 139.7c-.9 1-.7 4.3.3 4.3 1.1 0 2.1-3.9 1.1-4.5-.4-.2-1-.2-1.4.2M246.2 209c0 1.4.2 1.9.5 1.2.2-.6.2-1.8 0-2.5-.3-.6-.5-.1-.5 1.3m14.8 51c0 .5.7 1 1.6 1 .8 0 1.2-.5.9-1-.3-.6-1-1-1.6-1-.5 0-.9.4-.9 1"/></svg>