<svg xmlns="http://www.w3.org/2000/svg" width="682.667" height="512" version="1.0" viewBox="0 0 512 384"><path d="M0 192v192h268v-2.5c0-1.4.4-2.5 1-2.5.7 0 .4-17.9-.3-18.7-.1-.1-2.4.3-5 .9-3.2.7-6.2.7-8.7 0-2.6-.6-4.2-.6-4.9.1-.8.8-1.1.7-1.1-.5 0-1.1-1.8-1.8-6.7-2.6-10.7-1.8-11.9-3.2-14.9-17.6-1.9-9.4 0-22.1 4.6-32.1 10.6-22.7 12.7-28.1 11.8-29.3-.7-.8-.7-2.6.2-5.6.6-2.4 1.3-5.9 1.5-7.7.1-1.9 2.9-9.2 6.2-16.4l5.9-13-3-2c-2.7-1.8-3.4-3.3-5.3-11-1.2-4.9-2.7-9.9-3.3-11-.9-1.7-.8-3.6.5-8.4.9-3.5 1.7-8.2 1.9-10.4.1-2.3.7-5.3 1.3-6.7s2.1-5 3.3-8l2.1-5.4-2.1 1.9c-4.6 4.2-4.3 1.7 1.3-9.9 3.2-6.6 6.6-13.5 7.4-15.1 4.5-8.5 5.5-11.3 7.4-20.6 1.7-8.3 1.9-11.1 1.1-15.9-.6-3.2-.8-6.7-.6-7.8.5-1.7-.1-2-5.8-2.6-3.5-.4-7.3-.8-8.5-.9-3.3-.2-2.8-1.6 2.2-6.9l4.5-4.7-4.6-3.1c-5.3-3.7-4.9-4.8 2.4-5.7 5.1-.6 5.2-.6 5.2-3.9 0-4.4 2.6-4.5 7.2-.4 2.1 2 4 2.9 5.3 2.6 1.1-.3 7.2-1 13.5-1.6 9-.9 12.6-.9 16.7 0 4.5 1.1 5.4 1.1 6.8-.4 1.6-1.5 8.8-5.6 9.9-5.6.3 0 .3 2 0 4.4-1.3 9.2-1.6 8.7 6.4 11.3 3.9 1.4 7.2 2.9 7.2 3.4s-2 1.8-4.4 2.8c-2.4 1.1-4.6 2.6-4.9 3.4s-3.1 1.9-6.7 2.6c-5.2 1-6 1.5-5.4 2.9.4.9 1 3.9 1.4 6.7.5 2.7 2.2 8 3.8 11.7 3.4 7.4 3 7.2 11.5 3.9 3.9-1.5 6.7-1.4 6.7.3 0 .8.6 1.4 1.3 1.3 3.5-.1 5.6.5 7.5 2.2 2.3 1.9 2.9 4.6 1.2 5.6-.7.4-.6 1.3.1 2.7.9 1.6.7 2.3-1.1 3.5-1.6 1.2-1.9 1.8-.9 2.9.9 1.1.8 1.8-.2 3-1.2 1.4-6.2 4.5-7.4 4.4-.3 0-1.4.9-2.5 2s-3 2-4.1 2c-2.1 0-2.1.4-1.6 6.2.8 9.1-.8 16.3-5.3 23.5-3.7 5.9-3.8 6.4-2.5 9 11.2 22.1 12.6 25.5 11 27.3-1.1 1.2-2.7 1.6-5.4 1.4-2.9-.2-4.1.1-4.5 1.3-.8 2 10.3 19.4 24.2 37.8 1.2 1.7 3.8 5.5 5.8 8.5s4.6 6.4 5.8 7.5c5.9 5.5 10.7 12.3 13.1 18.5 1.5 3.8 3.4 7.9 4.4 9.2 2.4 3.1 3.2 6.5 2.1 9.3-.5 1.4-.4 2.7.3 3.4.8.8.8 1.1-.1 1.1-.8 0-.9.7-.2 2.6.6 1.4 1 4.7 1 7.4 0 4-.6 5.5-3.5 9-1.9 2.3-4.3 6-5.3 8.3s-3.5 5.6-5.4 7.3c-3.3 2.9-4.3 3.2-13.7 3.8-8.6.7-10.6 1.1-13.8 3.4-4.1 2.8-4.1 2.8-23.3 2.1-12.3-.4-18.7.6-20.1 3.3-.8 1.4-.8 2.3 0 3.1 1.5 1.5 1.3 5.7-.4 8.7-.8 1.4-1.4 3.1-1.5 3.7 0 1 22.3 1.3 108.5 1.3H512V0H0z"/></svg>