<svg xmlns="http://www.w3.org/2000/svg" width="682.667" height="512" version="1.0" viewBox="0 0 512 384"><path d="M0 192v192h262.1l-.7-3.5c-.5-2.9-.3-3.5 1.1-3.5 1.1 0 1.5-.6 1.1-1.8-.3-.9-1.2-6.4-2.1-12.1-.9-5.8-1.7-10.6-1.8-10.7-.1-.2-4.8-.7-10.3-1.3-6.1-.6-13.3-2.2-18-3.8-7.6-2.7-8-2.7-11.2-1.1-3.6 1.7-4.4 1.6-11.8-2.4-4.1-2.2-5.7-6.5-3.9-10.4.8-1.6 3.9-8.5 7-15.4s8.4-17.9 11.9-24.5c6.5-12.6 10.1-22 11.2-29.5.3-2.5 1.5-7.9 2.6-12s2.6-9.9 3.4-12.9c.7-3 3.2-10.1 5.4-15.8 2.5-6.2 3.9-11.2 3.5-12.3s.3-5.5 1.5-9.7c2.8-10.1 4.3-36.3 2.2-37.7-.8-.4-2.3-1.9-3.5-3.2-1.1-1.3-2.6-2.4-3.3-2.4s-1.9-.9-2.7-2c-.9-1.3-3.3-2.2-7.8-2.9-16.8-2.8-35-7-38.3-8.9s-11.4-12.8-11.5-15.5c-.1-1.9 1-2.2 2.5-.7.7.7.9 0 .7-2.2l-.4-3.3 4.2 4.5 4.2 4.5-2.8-4.8c-2.9-5.1-2.7-6.9.5-4.9 2.6 1.6 2.8 1.5 3.2-.5.3-1.4 1.2-.9 5 2.5l4.7 4.4-.6-3.9c-.6-3.4-.5-3.7 1-2.5.9.8 1.9 2.3 2.3 3.4.4 1.5.8 1.7 1.4.8s1.2-.9 2.9-.1c2.2 1.2 2.5.7 2.2-3.2-.3-2.6 1.4-2 2.8 1 .9 1.9 1.5 2.3 2.3 1.5.9-.9 1.6-.8 2.9.3 1.5 1.4 1.7 1.3 2.3-1.5.7-3.6 2.6-3.1 2.6.7 0 3.4 5.7 8.4 8.6 7.7 2.7-.7 4 1.2 2.3 3.2-1 1.2-.8 1.7.7 2.9 3.7 2.8 8.3 3.5 12.8 2 2.2-.8 5.6-1.5 7.4-1.5s4.1-.4 5.1-1c1.7-.8 1.7-1.4.6-5.8-.7-2.6-1.6-7-1.9-9.7-.8-5.5-1.7-7-5.5-8.8-1.7-.8-2.7-2.2-2.9-4-.2-1.5-.7-2.7-1.2-2.7s-.7-.6-.4-1.4c.5-1.4-2.3-2.6-6.2-2.6-1.2 0-2.7-.6-3.3-1.4-1-1.2-.2-1.8 4.9-3.7 3.3-1.2 6.3-2.6 6.6-3.1s.7-2.6.8-4.6.5-4.3 1-5c.4-.7-.7-3-3.1-5.8-3.5-4.4-3.6-4.6-1.3-3.9 1.4.4 3.7 1.4 5.3 2.2 1.8.9 3.3 1.1 4.5.4 3.5-1.8 18.7-5.1 23.7-5.1 2.8 0 5.5-.4 6.1-1 2-2 14.5-6 16.9-5.4 1.4.3 2.5.9 2.5 1.1 0 .3-1.6 2.8-3.5 5.4-1.9 2.7-3.5 5.1-3.5 5.4s1.1.5 2.4.5c3.2 0 15.6 3.9 15.6 4.9 0 .4-1.8 1.4-4 2.1-4.3 1.4-4.7 1.9-2.9 3.7.9.9.2 1.6-2.6 2.7-2.1.9-4.1 1.6-4.6 1.6-1.3 0-1.1 1.3 1.6 9.4 1.4 4.1 2.5 8.5 2.5 9.7 0 2.9 3.4 7.3 15 19.4 11.8 12.3 20.1 22.7 22.3 28 .9 2.2 1.9 6.4 2.3 9.3.6 5.3.6 5.4-1.6 4.2-1.2-.7-2-.8-1.7-.2.4.5 13.1 7.1 28.4 14.7s28 13.9 28.2 14.1c.1.1 0 .7-.3 1.2-.4.7-2.6.6-6.1-.3-3.4-.8-5.2-.8-4.8-.2s0 .8-1 .4-1.4-.2-1.1.7c.6 1.5-2.9 3.3-8.1 4-4.5.6-10.5-2.3-16.6-8.1-2.6-2.5-6.7-4.5-14.5-7.3-14.8-5.2-23-9.1-28.8-14-2.6-2.2-5.9-4-7.1-4-2.1 0-2.5.7-3.5 5.7-1.7 8.6-2.1 9.8-3 8.3-.5-.8-.9-.7-1.4.5-.6 1.7 2.1 7 5.1 10 .8.8 3.2 1.5 5.3 1.5s5.1.5 6.5 1c2.2.8 2.6 1.5 2.1 3.3-.4 1.2-1.6 6.5-2.7 11.7-1.6 7.5-2.5 10-4.6 11.8-2.5 2.3-3.5 2.4-7.8.6-2.3-.9 2.9 5.6 12.6 15.8 3.3 3.4 6.7 7.5 7.5 9 1.8 3.5 5.9 5.6 20.9 10.6 6.6 2.2 14.8 5.1 18.2 6.6 3.4 1.4 7.5 2.6 9.1 2.6 4.4 0 13.9 4.7 16.2 8.1 2.8 3.9 2.8 8.3.1 12-1.4 1.8-2.1 3.9-1.8 5.1.6 2.2-1.7 4.9-6.2 7.3-1.7.8-4 3.4-5.2 5.7-3.2 6.2-7.2 9.7-13.6 11.9-3.2 1.1-7.2 2.6-8.8 3.4-3.1 1.4-10.5 8.9-10.5 10.6 0 .5-.4.9-1 .9-.5 0-1 .4-1 .9 0 2-4.6 8-7 9.1-1.4.7-6.3 1.6-11 2-4.7.5-11 1.6-14 2.5-3 .8-7.6 1.6-10.2 1.6-5.4 0-6.2.9-7.3 7.9-.4 3.2-.2 5.1.8 6.4s1.1 3.1.6 6.5c-.4 2.5-.8 5.4-.8 6.3-.1 1.7 5.5 1.8 104.4 1.8H512V0H0z"/><path d="M190 130.4c0 .2.7.9 1.5 1.6 1.3 1.1 1.4 1 .9-.4s-2.4-2.3-2.4-1.2m126.4 9.6c.3 1.4.6 3.5.6 4.6 0 1.4 1 2.6 3 3.4 3.2 1.3 9 7.3 9 9.3 0 .7 1.6 3 3.5 5.2 3.3 3.8 3.4 3.8 2.5 1.1-1.6-4.4-9.4-15.8-14.6-21.3-3.9-4.1-4.5-4.4-4-2.3m-14.7 59.7c-1.1 1.3-1.7 2.7-1.4 3 .3.2 1.3-.7 2.3-2.1 2.2-3.4 1.5-4.2-.9-.9M280 363.9c0 9 .3 11 1.6 11.5 1.2.5 1.4 1.4.9 4.6-.6 3.3-.4 4 .9 4 1.9 0 2-1.6.5-9.4-.7-4.2-.7-6.2 0-6.9 1.5-1.5 1.4-12-.1-13.5-3.1-3.1-3.8-1.4-3.8 9.7"/></svg>