<svg xmlns="http://www.w3.org/2000/svg" width="682.667" height="512" version="1.0" viewBox="0 0 512 384"><path d="M0 192v192h252.9l-1.6-5.6c-1.5-5.1-1.5-5.7-.1-6.5 1.5-.8 1.4-1.6-.2-8.1-1.1-4-2.8-11.8-4-17.3-3.2-14.9-4.8-21.1-6.9-25.8-1.1-2.3-2.5-6.8-3.2-10-1.2-5.6-2.7-7.3-6.9-8.1-2.5-.5-6.9-3-6.4-3.7.3-.5.1-.9-.5-.9-.5 0-1.5-1.6-2.1-3.6-.7-1.9-1.4-3.3-1.7-3s-1.5-.1-2.7-.9c-3.1-2.2-7.4-1.8-15.1 1.4-4.5 1.8-9.7 3.1-14.6 3.5-4.2.4-9.1 1.1-10.8 1.6-2.7.8-4.2.4-9.9-2.6-9.9-5.2-16.2-10.1-17.8-13.9-.8-1.9-1.4-6.5-1.4-10.2 0-6.6-.1-6.9-3.5-9.6-2-1.6-3.3-3.2-3-3.8.4-.5-.1-1.2-.9-1.5-2.3-.9-2-5.1.3-5.9 1-.3 2.5-.4 3.2-.3.8.2 1.3-.2 1.2-.9-.3-1.6 3.2-2.2 17.2-2.8 18.5-.8 18.1-.7 38.4-10.8 5-2.5 16.9-13.6 26.4-24.6l6.4-7.4-1.5-3.8c-2.1-5.4-1-8.9 2.8-8.9 2.7 0 2.9-.3 3.6-4.6.8-5.7-.2-23.4-1.5-24.7-.5-.5-12.5-1.9-26.7-3.2-42.2-3.9-46.2-4.4-50-6-5-2.1-3.9-4 2.4-4 2.8-.1 5.4-.4 5.7-.7.4-.3-1-1.9-3.1-3.5-7.4-5.7-8.9-7.1-8.1-7.9 1.2-1.2 11.6-.7 18.7.9 9.2 2.1 17.7 3.1 35.4 4.2l8.9.6 3.3-4c3.4-3.9 8.7-6.5 12.1-5.9 1 .1 2.3 0 2.8-.3.6-.3 3.2-1.2 5.8-1.9 3.2-.9 5.6-2.3 7.2-4.4l2.5-3.1-3.8-.8c-2-.4-4.4-.9-5.2-1s-2.5-1.3-3.8-2.6c-2.2-2.2-2.3-3-2-12.9.2-8.4-.1-10.7-1.2-11-1.9-.7-10-8.7-10-9.9 0-.6 1-2.1 2.3-3.5 2.2-2.4 2.2-2.5.6-5.4-2.9-4.9-2.5-6.4 1.9-6.4 2 0 4.2-.4 4.7-.8.9-.6 4.6-8.4 5.9-12.2.2-.8.5-.3.5 1.3.1 1.9.8 3.1 2.6 3.9 1.4.6 2.5 1.8 2.5 2.5 0 1.1.6 1.2 2.3.6 1.2-.4 6.5-.8 11.7-.7 10.8.1 20 2.9 22.6 6.9 1 1.6 2.1 2.1 3.5 1.8 1.7-.5 5.7.4 15.8 3.3.9.3-.1 1.5-2.7 3.5l-4.2 3.1 2 2.5c2.5 3.2 2.5 5.1 0 7.8-2 2.1-2 2.1.7 6 6 9.2 10.2 12.1 22 15.4 7 1.9 17.4 6.7 12.3 5.7l-2.5-.5 2.4 1.8c1.6 1.3 2.2 2.5 1.9 3.9-.4 1.4.2 2.6 2.1 4 1.4 1 3.9 4.3 5.5 7.1 2.4 4.4 2.7 5.9 2.1 9.7-.4 2.6-.1 5.9.6 8.1.9 2.8.9 3.7-.1 4.3-.7.4-1 1.5-.7 2.5.5 1-.3 2.5-2 4.1-1.4 1.3-3.1 3.4-3.7 4.7-.6 1.2-2.3 2.7-3.6 3.4-1.4.7-2.1 1.3-1.5 1.3.5 0-.2.8-1.5 1.7-1.4.9-3.1 2.5-3.8 3.5-1.6 2.2-3.2 2.3-3.2.2 0-1.5-.9-2.6-4.3-5.3-1.7-1.3-1.8-1.1-1.1 5 .6 5.7.4 6.6-1.5 8.3-1.2 1.1-2.3 1.7-2.5 1.5s-2.1-3.8-4.3-7.9c-4.6-8.8-8.4-15.2-8.8-14.8-.2.2.2 2.3.8 4.6.9 3.6.9 4.5-.3 5.2-2.4 1.5-2.7 1.2-3.4-2.9-.9-5.8-3.9-12.1-8.1-16.9l-3.7-4.3-2.4 2.6c-1.2 1.4-2.7 2.5-3.2 2.5-2 0-6.9 32.4-5.5 36.5.2.7 2.4.8 6.1.4 3.1-.4 9.1-.8 13.3-.8l7.7-.1-.9 3.7c-.5 2.1-.9 7.1-.9 11.1v7.4l4.2-.7c2.4-.4 6-1.4 8.2-2.1 7-2.5 9.5-1.9 14.2 3.3l4.1 4.8-2.1 3.2c-1.4 2.2-2.9 3.3-4.6 3.3-1.4 0-6.1.7-10.5 1.5s-11.7 1.4-16.2 1.5h-8.1l1.3 4.2c.7 2.4 2.8 6.9 4.5 10.1l3.2 5.7h-2.6c-6.6 0-1.6 6.1 6.9 8.5 12.1 3.4 30.5 12.2 30.5 14.6 0 2.3 5.7 3.6 13.5 3.2 6.5-.4 8.9-.1 12.5 1.5 5.3 2.3 9.3 6 11.1 10.3 2.9 7.1-6.3 14.8-16.2 13.5-5.5-.7-19.8-5.7-30.7-10.7l-7.3-3.3-16.7 4.2c-9.2 2.4-17.1 4.7-17.5 5.1-1.9 1.9-2 20.4-.3 28.9 2.8 13.4 1.8 32.7-2.3 43.3-.7 2-.6 3 .6 4.2 1.4 1.4 1.5 2.2.5 5.5-.7 2.2-1.2 4.4-1.2 5.1 0 .8 29.9 1.1 115 1.1h115V0H0z"/></svg>