<svg xmlns="http://www.w3.org/2000/svg" width="682.667" height="512" version="1.0" viewBox="0 0 512 384"><path d="M0 192v192h109.4c64.8 0 109.7-.4 110-.9.4-.5.9-5.7 1.3-11.5.3-5.8 1-10.6 1.5-10.6.4 0 .8-3.6.8-7.9 0-9.3 1.4-20.4 4-31.6 1-4.4 2.1-9.6 2.4-11.7l.7-3.6-6.3-2c-3.5-1.1-11-3.4-16.8-5.2-13.4-4.2-33.9-12.5-35.4-14.3-.6-.8-2.4-1.8-4.1-2.1-3.2-.8-13.7-6.7-22.3-12.6-7.6-5.3-26.2-22-26.2-23.6 0-2.3 4-5.2 10.9-7.9 3.6-1.5 9.3-4 12.6-5.6 8.5-4.1 39.8-8.7 62.8-9.3l8.8-.2 6.7-6.7 6.7-6.8-5.5 2.5c-6.6 3.1-8.2 3.2-10.5.6-2.6-2.9-3.2-8.4-2.2-18.8l1-9.2h6.6c4.4 0 8.9.9 13.6 2.5 3.9 1.4 7.2 2.5 7.5 2.5s.3-3.6-.1-7.9c-.6-6.6-1.6-9.9-5.6-18.8-4.7-10.4-5-10.8-7.8-10.6-18.1 1.5-18.1 1.5-19.3 0-1-1.2-2-1.3-4.9-.5-2.6.7-4.2.6-5.9-.2-1.7-1-4.4-1-11.1-.2-9 1.1-28.6-.4-37.3-2.8-1.9-.5-4.9-1-6.6-1-2 0-4.9-1.4-8.5-4.1-3-2.2-7.6-5.2-10.4-6.6-5.3-2.7-8.5-5.1-8.5-6.4 0-.5 2.8-.6 6.3-.3 5.8.6 11.1 2.2 24.7 7.3 5.4 2.1 13 2.8 13 1.3 0-.4-1.7-.9-3.7-1-4.9-.4-5.6-1.2-1.1-1.2 2 0 4.1-.6 4.7-1.4.7-.8 2.3-1.7 3.6-2 3.2-.8 3.2-2.4 0-3.2-2.6-.7-3.5-2.4-1.1-2.4.7 0 3.8-1.1 6.7-2.4 3-1.4 12.3-3.9 20.8-5.6 16-3.2 22.7-5.8 27.4-10.9 2.3-2.3 2.5-3.6 2.9-12.8l.4-10.1-3.7-1.1c-3.4-1-8.9-6-8.9-8.1 0-.5 3.7-1.7 8.2-2.7s8.3-2.3 8.5-2.9c.2-.5-1.2-3.5-3.1-6.6-2.8-4.6-3.2-5.9-2.1-6.8 1-.8 2.3-.5 5.4 1.4 3.9 2.5 4.1 2.5 9.8 1.1 3.3-.8 12.2-1.6 20.8-1.8 13.5-.3 15.4-.6 18.8-2.6 4.1-2.5 5.9-2.2 3.6.6-.9 1-.9 1.4-.2.9.7-.4 2.2-.2 3.3.4 2 1.1 1.8 1.3-2.9 5.2l-5.1 4.1 2.6 2.5c2.8 2.9 2.7 4.6-.4 5-3.6.5-2.5 1.9 2.7 3.7 8.7 2.9 9.3 6.5 1.5 8.8l-4.7 1.4v4.7c0 2.6.5 5.1.9 5.5.5.4 4.5 1.3 8.9 2 10.2 1.6 12.2 2.7 7.2 3.6-2.1.4-3.6.9-3.5 1.1.2.2 7.8 1 16.8 1.9 9.1.8 18 1.8 19.8 2.1 3.4.7 4.4 2.4 1.5 2.4-1.4.1-1.2.4.7 1.5l2.5 1.3-2.7.7c-4.1 1-2.7 2.1 5.2 4 6.6 1.6 8.4 3.4 3.7 3.6-1.6.1-1.8.2-.5.6 1.3.3 1.6 1.1 1.2 3.2-.7 3.5-.6 3.5 12.9 5.2 9.7 1.2 11.5 1.1 18-.5 9.8-2.3 22.1-3.7 22.5-2.5.2.5 1 .9 1.8.9 2.3 0 2.8 3 .8 4.5-1.3 1-3.4 1.2-7 .8-4.3-.4-5.9-.1-9.3 1.8-2.3 1.2-4.1 2.6-4.1 3.1 0 2.1-6.6 3.1-21.1 3.4-24.8.4-30.4 1.4-38.4 6.9-3.8 2.6-4.4 2.7-14.2 2.3-5.7-.2-10.3-.3-10.3-.2 0 .2 2.4 1 5.3 2 2.8.9 5.7 2 6.2 2.5.6.4 4.2 1.7 8 2.8 6.5 1.8 6.7 2 3 2-2.2.1-9.2-.8-15.5-1.9-16.8-2.9-15.4-3.5-14.6 6.6.4 4.7 1.6 12 2.8 16.2 1.1 4.2 2.3 10 2.7 12.8.4 3.2 2.7 9.1 6.1 15.9l5.5 10.7 4.8-.6c2.7-.3 6.2-1.2 7.9-2.1 1.7-.8 3.9-1.5 4.8-1.5 1.6 0 1.6.4.2 5.7-1.4 5.5-2.7 7.3-6.9 9.9-1.7 1.1-1.6 1.4 1.3 5 3.8 4.9 19.2 13 28.3 15 12.9 2.9 21 13.8 15.1 20.2-2.4 2.6-1.9 4.1 2.3 6.6l3.2 1.9-4.8.9c-2.8.5-8.5.5-13 0-13-1.3-17.7-.9-22.2 2.1-2.2 1.4-4.8 2.7-5.9 2.9-2 .3-9.6 7.5-9.6 9 0 1.1-2 3.1-4 4.1-3.6 1.8-6.3 3.6-6.9 4.6-.4.6-2.9 1.3-5.7 1.7-8.5 1-9.2 1.2-9.8 4.1-.3 1.6-1 10.7-1.6 20.3s-1.8 21.4-2.7 26.3c-1.4 7.2-1.5 9-.4 9.6 1 .7 1.1 2 .1 6.7-.6 3.3-1.4 6.7-1.6 7.6-.5 1.7 5.8 1.8 122.5 1.8H512V0H0z"/><path d="m214.3 125-6.1 3.7 6.5 1.2c3.6.7 7 .8 7.4.4.5-.5.3-2.7-.4-5l-1.2-4.1zm-14.8 6.9c-.6.5-5.8 2.1-11.7 3.7-5.9 1.5-10.5 3-10.3 3.2.5.5 13.6-1.8 15-2.7.6-.3 3-1.1 5.4-1.6 2.4-.6 4.6-1.6 4.9-2.3.4-1.4-1.9-1.6-3.3-.3m46.7 194.9c-4.4 26.2-5.5 35.4-4.1 36.2.9.6.9 2.6-.4 9.2-2.4 11.7-2.4 11.8 1.9 11.8h3.7l-.6-8.7c-.5-6.6-.3-9.1.7-10.3 1.6-1.8 3.2-49.5 1.7-50.4-.4-.3-1.8 5.2-2.9 12.2"/></svg>