<svg xmlns="http://www.w3.org/2000/svg" width="682.667" height="512" version="1.0" viewBox="0 0 512 384"><path d="M0 192v192h215.9l1.1-3.7c.5-2.1 1.3-7 1.6-10.8.4-4.4 1.3-7.8 2.4-9 .9-1.1 1.7-4 1.9-6.5.6-13.6 3.7-25.6 9.8-37.7 2.3-4.7 2.5-5.8 1.7-10.5l-.9-5.3-8.5-.6c-4.7-.4-13.2-.9-19-1.3s-14.9-1.4-20.2-2.2-10.6-1.6-11.7-1.7c-1.2-.1-2.1-.4-2.1-.8 0-.3-3.3-1.1-7.2-1.8-4-.6-9.6-1.9-12.5-2.8-5.1-1.6-5.2-1.6-11.2 1.1-16 7.2-22.3 7.3-29.3.8-4.8-4.5-3.4-7.1 5.9-11 2.8-1.2 6.9-2.2 9-2.2 6.7 0 11.2-1.1 10.6-2.6-.7-2 4.4-4.7 13.9-7.3 29.8-8.2 39.6-11.9 51.5-19.4 5.5-3.5 10.4-8.8 9.8-10.7-.3-.9 1.1-3.3 3.4-5.8 2.1-2.3 3.7-4.2 3.4-4.2-.2 0 .1-.9.7-1.9 1-1.9.7-2-4.2-1.6-2.9.1-7.7.8-10.7 1.4s-5.6.9-5.9.6c-1-1 2.2-3.6 3.7-3 .8.3 1.2.3.8-.1s.5-2 1.9-3.6c1.5-1.5 2.8-4 3-5.5.1-1.5.6-6.3 1-10.6.8-8.9.7-8.9 10.4-10.6 4.6-.9 7.8-.9 10.9-.2 2.5.5 4.9.7 5.4.4 1.2-.7.2-11.9-1.7-19.3-.7-3-1.6-6.7-2-8.2-.5-2-1.5-3-3.8-3.6-2-.5-3.8-1.9-4.9-3.7-.9-1.7-2.2-2.9-2.9-2.7-.6.1-.9-.1-.6-.6.2-.4-.6-2.1-2-3.8-2.3-2.8-2.4-2.8-3.9-1-.8 1.1-1.5 2.8-1.5 3.8 0 1.4.6 1.6 3 1.1 4.7-.9 3.6 1.2-2 3.8-4.9 2.3-5 2.5-4.5 6.2.3 3.3.2 3.7-1 2.7s-1.5-.9-1.5.6c0 1.4-.3 1.5-1.2.6-.7-.7-1.9-1.2-2.8-1.2-2.8 0-7.9 3-8.5 5-.4 1.1-1 2-1.5 2-1.1 0-4.7-4.6-5.5-7-.7-2.2-5.5-1.8-9.4.7l-2.4 1.5.6-3.7.6-3.7-3.9.7c-2.1.4-5.4.8-7.2 1s-4.4.7-5.7 1.1c-2.1.6-2.2.5-1.2-1.5.9-1.6.9-2.1 0-2.1q-1.2 0-.6-3.3c.5-3.1-1.3-7.4-2.6-6-1.2 1.1-3.9-2-3.4-3.9.3-1.1 0-1.8-1-1.8-2.1 0-.7-3.9 2.9-7.7 2.8-2.9 3-3.6 2.5-8-.9-6.3.7-8.2 10.2-12.3 9-3.9 11.9-6.2 6.9-5.5l-3.3.5 3.5-1.5 3.5-1.5-5.2.5c-8.9.9-5.9-.2 6.8-2.6 11.5-2.1 12.2-2.4 16.3-6.3 5.9-5.8 13.2-16.6 11.1-16.6-.8 0-2.1-1.1-2.7-2.5-1.5-3.4.2-5.1 7.4-7.5 3.7-1.3 6-2.8 7.6-5 1.2-1.8 2.2-3.6 2.2-4 0-.5-2.2-2.2-5-4-2.7-1.8-5-3.5-5-3.9 0-1.4 12.5.2 16.2 2 1.4.7 2-.2 3.8-6.1 1.2-3.9 2.5-7 2.9-7 1.4 0 3.1 4.5 3.3 9l.3 4.5 5.5.8c8.2 1.1 13.7 4.2 16.1 8.8 1.4 2.8 3.1 4.4 5.7 5.5 4.2 1.6 11.2 9.2 11.2 12.1 0 1.2-1.7 2.8-4.7 4.4-2.7 1.4-5.4 3.8-6.3 5.4-.8 1.7-1.9 3.3-2.4 3.6-1.6 1.2.2 3.6 6.1 8.1 7.8 5.9 11.7 8.1 19.3 10.7 10.5 3.6 16.6 4.5 19.2 2.7 1.2-.9 3.4-1.6 4.8-1.6s4.9-.9 7.9-2.1c4.5-1.6 6.9-1.9 13-1.5 4.1.3 7.7.8 7.9 1.1.5.5-5.9 3.4-8 3.6-1.4.2 4.3 1.3 12.7 2.5l5 .7-4.3 1.8c-2.4 1.1-4.1 2.3-3.8 2.8.4.5-.8 1.2-2.5 1.6-1.9.4-2.7 1-2 1.4 2.1 1.3-.9 2.8-8.4 4-3.8.7-9.2 1.7-12 2.2-2.7.6-11.1 1.4-18.5 1.9-12.4.9-30.7 3.3-31.6 4.3-.2.2.3 2.1 1.2 4.3.9 2.1 2 7.9 2.4 12.9.6 6.9 1.8 11.4 4.9 19.5 2.3 5.8 4.4 12.3 4.8 14.5.9 6.2 6.6 16.6 11.5 21.2 8.5 7.7 7 7.4 30.2 6.4 21.6-.9 31.5-.3 41.9 2.5 3.4.9 7.8 2 9.7 2.4s7.1 1.9 11.5 3.4c4.4 1.4 9 2.6 10.3 2.6s3.2.5 4.3 1c1.6.9 1.7 1.4.6 3.1-1 1.7-.7 2.8 2.1 7.9 3.7 6.8 3.9 8.9 1.2 14.8-1.5 3.2-1.7 4.9-1 6.2s.7 2.1-.2 2.6c-2.7 1.7-20 4.8-27.8 4.9l-8.5.1-1.3 4.6c-1.2 4.3-1.9 5-8.2 8.6-8.9 5.2-29.6 11.6-43.5 13.6-11.9 1.7-32.7 2.2-44.1 1.1l-7-.7-1.2 4c-.7 2.1-1.2 5.2-1.2 6.8s-.9 6.2-2 10.3c-2.5 9.5-2.8 38.1-.5 44.6.8 2.2 1.5 5.7 1.5 7.7s.3 4.3.6 5.2c.6 1.4 12.6 1.6 126.5 1.6H512V0H0z"/><path d="M247.8 118.7c-1.6.8-2.8 2-2.8 2.7 0 2.4 5.3 5.3 9 4.9 2.7-.4 4 0 5.4 1.6 1.5 1.7 3.1 2.1 8 2.1h6.1l-6.1-3.4c-3.4-1.8-8.1-4.7-10.5-6.4-4.8-3.5-5.2-3.6-9.1-1.5M218 147.9c0 .6.4 1.3 1 1.6s.7-.1.4-.9c-.7-1.8-1.4-2.1-1.4-.7M207.5 222c-.3.5-.2 1 .4 1 .5 0 1.3-.5 1.6-1 .3-.6.2-1-.4-1-.5 0-1.3.4-1.6 1"/></svg>