<svg xmlns="http://www.w3.org/2000/svg" width="682.667" height="512" version="1.0" viewBox="0 0 512 384"><path d="M0 192v192h211.2l-.6-2.3c-.3-1.2-1.3-7.8-2.1-14.6-1.3-9.7-1.4-14.3-.5-21.7.5-5.1 1-11.8 1-14.8v-5.5l-3.7-1.1c-7.2-2-38.2-4.2-41.9-3-1.9.7-3.4 1.5-3.4 2s-6 .7-13.2.6c-9.8-.3-14.4-.8-17.3-2.1-15.4-6.6-20.5-10.6-20.5-15.8 0-4.4 2.2-7.2 8.9-11.5 3.1-2 6.4-4.6 7.5-5.9 1.7-2.2 9.5-7.7 18.6-13.1 1.9-1.1 6.5-3.2 10.3-4.7 6.9-2.8 7.5-3.3 5.5-5.3-.8-.8-.8-1.5.2-2.7.7-.8 1.7-1.5 2.3-1.5 2.2 0 17.3-8.4 18.7-10.4.8-1.1 2.7-3.3 4.2-4.8 1.5-1.4 2.8-2.9 2.8-3.2s1.8-3.3 4.1-6.6c3.3-4.8 3.8-6.3 3-7.9-.6-1-2.2-5.7-3.7-10.3-1.4-4.5-3.2-9.2-3.9-10.4-1.2-1.9-1.1-2.2 1.5-3.7 3.9-2.3 14.5-4.7 21.3-4.7 3.8 0 5.7-.4 5.8-1.3.9-8.3-3.9-38.7-6-38.7-.5 0-5.6 2.4-11.2 5.4-5.7 3-12.9 6.4-15.9 7.6s-6.3 2.6-7.3 3.1c-1.2.7-2.3.7-3 0-.8-.6-3-.3-6.7 1-3 1.1-6.6 1.8-8 1.7-2.3-.3-2.2-.5 2-3.5l4.4-3.3-5.5-.1c-2.9-.1-8.8-.1-12.9 0-4.1 0-6.9-.2-6.2-.5 1.8-.8.5-2.4-2.1-2.5h-2.2l2.3-1.1c3.2-1.6 2.7-2.8-1-2.9-1.8-.1-4.4-.4-5.8-.8-2.4-.7-2.4-.8-.6-1.8 1.9-1 1.8-1.2-1.1-3l-3.2-1.9 5-3.4c5.4-3.7 5.9-4.5 2.8-5.3-1.2-.3-1.8-1-1.5-1.5.3-.6.1-1.2-.6-1.4-.7-.3 1.5-2 4.9-3.9s6.4-4.1 6.6-5c.3-1 2.5-2.2 5.7-3 2.9-.7 5.4-1.9 5.7-2.6s3.2-1.8 6.5-2.4c4.5-.9 6.2-1.7 6.6-3.1.2-1 1.4-2 2.6-2.3 2.4-.6 14.7-2.5 15.9-2.5 4 0 25.1-28 23.2-30.9-.3-.5-2-1.3-3.8-1.6-1.7-.4-4.5-1.5-6.2-2.4-1.6-.9-4.1-1.8-5.5-2.1-2.2-.5-1.7-.9 4.3-4.9l6.7-4.4-3.5-3.4c-5.6-5.4-4.8-6.5 4.3-5.4l6.3.8 3.1-6.1c4.6-9.1 6.3-9.6 7.3-1.8 1.1 7.8 1.3 8.2 4.8 8.2 3.7 0 17.6 2.4 22.6 3.9 1.9.6 4.2 1.8 5.2 2.7 1.6 1.4 3.1 1.6 9.4 1 7.3-.7 8.7-.2 6.3 2.2-.6.6-1.2 3.4-1.3 6.3l-.2 5.1 4.6 2 4.6 2-3 1.4c-1.6.8-4.1 2.1-5.5 2.9s-4.6 1.5-7.2 1.5c-4.6 0-4.8.1-4.8 2.9 0 2.1 1.8 5.4 6.3 11.1 12.7 16.6 14.1 19 16.1 27.8 1.6 7.1 1.7 8.7.6 10.8-1 1.8-1.6 2.1-2.2 1.2-.5-.9-.8-.7-.8.8 0 1.1.9 2.9 2 3.9s2 2.5 2 3.4c.1 4.4 2.1 5.1 17.8 6.1 12.6.9 15.9.9 20.9-.4 5.7-1.5 8.7-2.1 15.1-3.3 2-.3 5.6.1 9 1.2 3.1 1 6.4 2 7.2 2.2 1.3.4 1.3.5 0 1.3-1 .7-1.1 1-.2 1 .6 0 1.2.7 1.2 1.5s-.9 1.5-2 1.5c-1.3 0-1.8.5-1.4 1.5.5 1.1-.1 1.5-2.5 1.5-1.9 0-3 .5-2.8 1.2.1.9-1.7 1.5-5.3 1.8-3 .3-6.1.9-6.8 1.3-.7.5-6.4 1-12.6 1.2-6.2.1-16.5.6-22.8 1-12.7.8-13 .7-21-5.3-2.6-2-5.5-3.7-6.5-3.8s-2.5-.4-3.3-.8c-.9-.4-2.4 0-3.5.8-1.7 1.3-2 2.5-1.8 9.3.3 11 1.2 13.5 5.2 14.5 4.1 1.1 5.3 4.1 3.5 9.2-.8 2.1-1.4 4.5-1.4 5.3s2.8 4.6 6.3 8.6c16.4 18.8 20.5 22.3 36 31.6 8.1 4.9 9.8 5.5 26.7 9.1 23.3 5.1 25.2 5.6 33.5 9.4 9.4 4.3 10.8 5.9 10 10.7-.6 3.5-.4 3.9 2.5 5.4s3.1 1.9 2.9 6.7c-.2 4.5-.9 5.9-5.7 12-3 3.8-5.6 6.7-5.9 6.5-.2-.3-1.5.6-2.7 1.8-2.4 2.4-14.1 6.4-20.6 7.2-1.9.2-5.3.6-7.4 1-2.1.3-6.3 0-9.2-.7-4.9-1.2-6.1-1.1-13.2.9-12.4 3.6-25.6 6-41.8 7.6-16.8 1.6-18 1.9-18.9 4.3-1.3 3.5-4.4 33.6-3.5 34.2 1.3.8 1.4 4.1.5 12.2l-.8 6.8H512V0H0z"/><path d="M252.6 115.8c-.8 1.5-1.9 5-2.4 7.7-.5 2.8-1.3 5.8-1.7 6.7-.5 1.4-.2 1.8 1.1 1.8 2.7 0 11.6 4.3 13.4 6.4 1.3 1.7 1.4 1.7 2 0 1.2-3.3-.9-10.2-5.2-17.8-2.4-4.2-4.6-7.6-5-7.6s-1.4 1.3-2.2 2.8m-17 213c-2.5 4.1-3.5 26.9-2 44.9.9 10 2.7 9.4 2.2-.7-.2-4.8.1-8.1.7-8.3s.9-4.2.7-10.3c-.3-8.1.4-16.1 2.1-24.7.3-1.3-2.9-2.1-3.7-.9"/></svg>