<svg xmlns="http://www.w3.org/2000/svg" width="682.667" height="512" version="1.0" viewBox="0 0 512 384"><path d="M0 192v192h197.3l-.7-5.8c-1.4-12.4-1.7-24-.8-31.2.5-4.1.9-7.6.8-7.7-.2-.3-15.7-1.1-22.3-1.2-2.3-.1-4.8-.7-5.6-1.5-.7-.8-2.4-1.2-3.9-.9-2.3.4-19.9-4.9-22.3-6.7-3.3-2.6-30.5-8.8-32.6-7.4-.4.2-1 0-1.3-.4-.3-.5-3.2-.8-6.5-.6-6.6.2-7.2-.9-2-4 2.3-1.3 2.7-2.1 1.9-3.1-.6-.7-.9-4.2-.8-8 .3-6.7.3-6.8 5.2-11.2 5.5-5 8.2-6.3 21.1-10.4 7.9-2.5 24.4-11.2 30.9-16.4 1.9-1.4 1.9-1.5.1-5.6-1.9-4.1-1.9-4.2.2-5.9 1.2-.9 4.3-2 7-2.4 5.2-.7 4 .5 18-16.9l7.1-9-1.8-4.2c-1-2.3-3-6.8-4.5-9.9-1.7-3.5-2.4-6.1-1.8-6.7 1.8-1.8 12.1-4.8 18.8-5.5l6.8-.7-.7-6.6c-1.3-13.4-2.2-20-2.9-20.7-.3-.4-2.2.3-4.2 1.5-4.5 2.6-5.3 2.7-3 .1 2.3-2.5 1.8-2.5-4.5 0-2.9 1.1-5 1.5-5 .9 0-.5-.5-.7-1.1-.3s-4.4.7-8.4.8c-5.8.1-7.1-.2-6.3-1.2.6-.6 1.7-1.2 2.5-1.2s1.2-.4.9-.9c-.3-.4-3.9-1.1-8-1.5-4.2-.4-9-1.2-10.8-1.8-3.1-1.1-3.1-1.2-1-1.7 3.8-1 3-2.5-1.8-3.4-5.5-1.1-5.6-1.2-3.9-3.3 1.1-1.4 1.1-1.8-.4-2.9-1.6-1.2-1.5-1.5 1.4-4.6 1.8-1.9 2.6-3.5 2-3.7-.9-.3-.8-.8.1-2 1.1-1.3 1-1.5-.4-.9-1 .3-1.8.3-1.8-.1 0-.5 2.7-2.1 6-3.7s6-3.2 6-3.6c0-.9-2.7-1.9-5.3-1.9-4.2 0 0-1.7 9.6-3.9 5.7-1.2 10.5-2.9 11.6-4 1-1 4.3-2.4 7.2-3.1 3-.7 6-1.8 6.8-2.4 4.1-3.3 9.5-15.5 10.5-24.1.3-2.8.9-6.1 1.2-7.5.5-2.4.2-2.6-6.3-4.3-3.7-.9-7.8-1.7-9-1.7-1.4 0-2.1-.5-1.7-1.3.4-1.1 7.6-6.6 11.3-8.7 1.1-.6 1-1.4-.8-3.9-3.2-4.4-2.4-5.6 3.5-5.2l4.9.2 3.2-6.5c1.8-3.6 3.9-6.6 4.7-6.6 1.4 0 1.8 1.2 3.2 9.1l.6 3.6 8.2.6c4.5.4 11.5 1.6 15.6 2.8 11.4 3.1 13.6 3.3 21.2 1.4 3.8-.9 7.2-1.5 7.4-1.2.3.3-1.3 3.1-3.5 6.2-2.3 3.2-4.1 6.1-4.1 6.5s3.2 1.9 7 3.4c3.9 1.5 6.8 3.1 6.5 3.6-.3.4-2.7 1.3-5.5 2-2.7.6-4.8 1.7-4.7 2.3.1.8-2.1 1.4-6.1 1.7-3.4.3-6.2.9-6.2 1.5.2 2.3 9.6 12.9 15.8 17.8 3.7 3 10.1 7.1 14.2 9.1 9.2 4.7 13.7 8.9 15 13.8.6 2 1.5 4 2 4.3.6.3 1 1.5 1 2.7 0 1.6-.4 1.8-1.7 1.2-1-.4-3.7-.7-6-.6-3.8.1-4.6-.3-8-4.2-2.1-2.4-7.4-7-11.8-10.4-4.4-3.3-11.4-9.2-15.6-13.1l-7.6-7-1.2 7.7c-.6 4.2-1.4 9.1-1.7 10.8-.6 3-.3 3.3 3.3 4.4 2.1.7 6.8 3 10.4 5.1s7 3.9 7.6 3.9c1.8 0 7.3 5 7.3 6.7 0 1.5 3.1 6.8 8.3 14.3 1.8 2.7 3.5 4 5 4 1.3 0 9.5.7 18.2 1.5 16.2 1.6 20.8 1.2 33.2-2.4 2-.6 3.5-.6 3.8 0 .4.5 3.2.9 6.3.9 6.7 0 7.3.3 10.1 5.3 2.6 4.6 2.6 4.7.1 4.7-1.4 0-2 .6-1.8 1.7.2 1.2-.4 1.9-1.9 2.1-1.3.2-2 .8-1.7 1.6.5 1.3-.5 1.4-20.6 1.6-13.3.1-49.7-1.6-51-2.4-.8-.5-4.3-3.1-7.6-5.8-3.4-2.6-7.2-4.8-8.4-4.8s-3.1-1.1-4.2-2.5c-1.1-1.5-3-2.5-4.4-2.5s-3.4-.5-4.5-1c-1.6-.9-1.9-.7-2 1.2-.3 4.8.2 20.5.7 24l.5 3.6 5.7-.1c10.6-.2 12 1.8 8.7 11.4-1 2.8-1.2 4.5-.5 4.7.5.2 1.7 1.9 2.6 3.8 1.4 2.9 1.8 3.2 3.1 1.9.8-.8 1.6-1.5 1.8-1.5.9 0-.8 6.6-2.3 9.1-1.5 2.6-1.4 2.9 4.9 10.5 12.2 15 18 20.6 24.4 23.5 7.4 3.3 20 7.6 36.5 12.4 23.5 6.9 31.6 13.5 28 22.9-.8 2.2-.5 2.7 2.8 4.7 2 1.2 3.8 2.3 4 2.4.2.2-.7 1.9-1.8 3.8-1.2 2-1.9 4.1-1.6 4.6s-.5 1.1-1.7 1.5c-1.3.3-3 1.7-3.7 3.1-2.1 3.9-15.3 15.3-18.6 16.1-1.6.3-3.3 1.2-3.9 1.8-1.6 2-10.2 4.5-22.5 6.7-6.3 1.1-12.2 2.2-13.2 2.5-.9.3-1.9 0-2.3-.6q-.6-1.05-2.4 0c-1.9 1-4.7 1.4-16.6 2.6-6.3.6-7.8.3-13.7-2-8.4-3.4-10.4-3.8-11.6-2.3-.6.7-1.2 7.1-1.3 14.3-.3 10.1-.1 13.5 1 14.8.9 1.1 1.3 4 1.2 8.6l-.1 7h250V0H0z"/><path d="M221.7 355.6c-.4 9.2-.7 19.3-.7 22.6v5.8h10.5c5.8 0 10.5-.3 10.5-.8 0-.4-.5-3.8-1-7.6-.7-4.7-.7-7.3 0-8.1.7-.9.7-3.6 0-8.6-.6-4.1-1-10.1-.8-13.4l.3-6-9.1-.3-9.1-.3z"/></svg>