<svg xmlns="http://www.w3.org/2000/svg" width="682.667" height="512" version="1.0" viewBox="0 0 512 384"><path d="M0 192v192h80.5c44.3 0 80.5-.3 80.6-.8.1-.4.2-2 .3-3.7l.1-3-6.5-.2c-3.6-.1-11.9-.7-18.5-1.4-10.8-1-12.6-1.5-17.5-4.5-3-1.8-7.7-5.2-10.3-7.6s-7.9-5.7-11.8-7.3c-10.1-4.3-15.2-9.4-17.5-17.3-1.4-5.4-2.3-6.8-5.6-8.9-3.3-2.2-3.8-3.1-3.8-6.2 0-2 1.2-5.9 2.5-8.6 1.4-2.8 2.5-5.6 2.5-6.3s1.4-2.1 3-3c2.3-1.3 3.2-2.6 3.7-5.7.9-6 5.2-9.5 15.9-12.8s35.4-15.4 35.4-17.2c0-.8 4.6-5.4 10.3-10.3 5.6-4.9 16.4-15.5 23.9-23.4l13.7-14.5-1.9-3.9c-2.8-5.4-2.6-6.3 2.4-8.5 5.1-2.2 5.6-3.5 4.5-10.9-.4-3-.8-8.4-.9-12l-.2-6.5-3.3 13.1c-3.5 14.3-8 25.2-12.4 29.9-1.5 1.6-3.6 4.1-4.6 5.5s-1.5 1.7-1.1.7c.3-.9 1-5.4 1.6-10 .5-4.5 1.8-11.7 2.9-16 1-4.2 1.5-7.7 1.2-7.7s-4.9 3-10.3 6.8c-5.3 3.7-11.7 7.9-14.2 9.4-2.6 1.5-5 3.8-5.5 5.1s-2.1 3.1-3.5 4c-1.4 1-3.5 3.6-4.6 5.8-2.1 4.1-2.1 4.1-3.9 2-1.6-1.8-2-1.9-3-.7-.7.8-1.9 1.2-2.8.9-.8-.3-1.9 0-2.3.7-1.3 2-4.2-.7-3.5-3.1.5-1.3.1-1.9-1-1.9-.8 0-1.8-.7-2.1-1.5-.7-1.8 5.6-7.7 15.5-14.5 3.6-2.6 12.6-9.2 20-14.7 13-9.9 18-15.5 18.1-20.2 0-.9.7-2.5 1.5-3.5.8-1.1 1.5-3.6 1.5-5.5 0-2.9.9-4.3 5-8.3 4.9-4.7 5.6-6.3 7.4-16.1.1-.7 1.3-6.7 2.6-13.5l2.3-12.3-2.2-3c-2.2-2.9-2.4-5.7-1-10.9.3-1.1-.5-1.6-2.6-1.8-11.1-.9-12.3-2.5-3.5-4.4 4.6-.9 6.1-1.7 6.6-3.2.4-1.2 1.8-3.6 3.2-5.5 2.2-2.9 2.3-3.7 1.2-5.4-.6-1.1-2.1-4.5-3.1-7.6-3-8.6 0-9.4 6-1.6l3.3 4.5 9.7.1c5.3 0 12.9.4 17 .8l7.5.7 7.3-5c9.7-6.6 10.7-5.6 5.1 5.6l-4.3 8.6 5 1.1c7.5 1.7 13.6 4.3 13.2 5.5-.2.6-2.2 1.5-4.6 2-3.4.7-4 1.2-3.6 2.7.6 1.6.1 1.9-3.5 1.9s-4.1.3-3.7 1.7c.3 1 2.8 8.8 5.5 17.4 2.6 8.5 5.8 17.2 7 19.2 3.2 5 11.4 10.1 18.7 11.5 19.1 3.7 29.1 5.3 30.7 4.9 1-.3 2.1-.1 2.4.4s-.2.9-1 .9c-1 0-1.3.6-1 1.5.4 1 2.2 1.5 5.8 1.6 4 .1 4.6.2 2.6.9-1.4.4-4.1 1.5-6 2.4l-3.5 1.5 3 .1 3 .2-2.8.8c-1.6.5-6.7 1.3-11.4 1.9s-8.8 1.3-9.1 1.6c-.3.2.1 1.2.9 2.1.7.9 1.4 2.1 1.5 2.8.1.6.7 3.1 1.3 5.5 1.2 4.2.8 7.1-.5 3.7-.3-.9-1-1.6-1.5-1.6-.6 0-.5.9.1 2 .6 1.2.7 2 .1 2-.5 0-1.2-.6-1.4-1.3-.3-.6-.6-.7-.6-.1-.2 1.9 14 15.4 18.2 17.3 6.4 2.8 9.3 6.6 10.8 14l1.4 6.4-3.5 2.8c-4.5 3.8-5.8 3.7-6.2-.8-.2-2.8-.8-3.9-2.3-4.3-2.3-.5-10.5-7-13.9-10.9-1.2-1.3-3.9-3.5-6-4.8-2.2-1.4-6-4.5-8.5-6.8-2.6-2.4-6.9-5.2-9.6-6.3-9.9-3.9-20.4-9.3-24.6-12.7-2.4-1.9-4.7-3.5-5.1-3.5-2.1 0-4.4 22-2.8 27.9 1 3.7 1.4 4.2 3.3 3.7 4.3-1.3 16.3-1.8 19.7-.9l3.5.9v9c.1 17.5-5.2 25.7-12.3 19.1l-2.5-2.2 1.6 3c1.7 3.3 7.3 8.2 15.8 13.9 4.2 2.8 6.3 3.5 8.1 3.1 3.8-1 12.4 4.4 12.1 7.6-.1 1.3-.2 4.3-.4 6.7-.4 6.3-1.7 7.7-6 6.4-1.9-.6-5.1-1.3-7.3-1.7-3.3-.6-3.8-.4-3.2 1 .3.9.6 4.1.6 7.1v5.4l7.9 7.9c8.5 8.5 10.8 9.6 25.1 12.6 12.7 2.7 17.2 9.2 17.5 25.5.1 7.9-.2 10-1.8 12.8-1.5 2.5-2 4.9-1.8 9.1.2 5.5.1 5.8-3.6 8.7-2.5 2-5.9 3.5-9.8 4.2-3.3.7-11.2 3.4-17.5 6.1-6.3 2.6-12.7 5.1-14.2 5.5-3.1.7-3.6 2.7-1.3 4.6.8.7 1.5 1.9 1.5 2.6 0 1.2 19.2 1.4 123 1.4h123V0H0z"/><path d="m193.3 134.6-1.1 4.6 5.2-.7c6-.8 6.6-1.1 6.6-3 0-1.8-5.2-3.3-5.8-1.7-.6 1.8-2.2.4-2.2-1.9 0-3.5-1.7-1.9-2.7 2.7m-10.7 245c-1.7 4.5-2.5 4.4 31.1 4.2 25.9-.3 31.7-.6 32.1-1.7.3-1-.3-1.3-2.6-.9-1.8.2-3.3 0-3.5-.6q-.3-1.05-4.5.3c-4.5 1.5-21.4 1.1-32.2-.8-3-.5-8.7-1.2-12.6-1.5-6-.5-7.3-.3-7.8 1"/></svg>