<svg xmlns="http://www.w3.org/2000/svg" width="682.667" height="512" version="1.0" viewBox="0 0 512 384"><path d="M0 192v192h159.8l.4-4c.4-4.7.8-4.6-16.7-5.5-12.8-.7-21.8-2.2-25.9-4.3-1.6-.8-6.1-4.4-10-8.1-4.1-3.8-10.2-8.4-14.4-10.6-4-2.1-8.1-4.9-9.2-6.2-1.9-2.4-4.1-10.7-4.2-16.3-.1-1.6-.9-3.7-2-4.6-3.5-3.2-2.3-7 4.3-13.9 3.4-3.5 7.2-8.6 8.4-11.3 2.7-5.8 6.3-8.6 14.6-11.3 9.5-3.1 16.6-6.5 22.2-10.6 7.3-5.3 29.6-27.7 42.7-42.7l11.2-12.8-1.7-3.2c-2.5-4.7-1.7-7.7 2.5-9.1 4.1-1.4 4.9-3.6 3.9-11.4-.4-3.1-.8-8.5-.8-12.1-.1-6.1-.2-6.3-1.7-4.2-.8 1.2-2.1 2.2-2.9 2.2-.9 0-2.1 3.2-3.5 9.2-3.9 16.9-8.1 28.8-11.5 32.1-.8.9-1.9 2.6-2.4 3.9-.9 2-1 1.8-1-1.7 0-2.2.6-8.9 1.4-14.9.8-6.1 1.3-11.1 1.2-11.3-.9-.9-21 17.3-21.9 19.7-.5 1.6-2 3.6-3.4 4.4-1.3.9-3.1 3.1-4 4.9-2.2 4.2-2.1 4.2-3.9 2.7-1.1-.9-1.8-1-2.9-.1-.7.6-2.1.9-3 .5-.9-.3-1.6-.1-1.6.5 0 1.7-2.7 1.3-3.4-.4-.3-.8-.4-1.7-.3-2 .1-.2-.8-1.2-2.1-2-1.2-.9-2.2-2.2-2.2-2.9 0-1.7 9.7-10.9 13.6-12.9 1.6-.8 7.9-6.6 14-12.9 6.1-6.2 12.6-12.6 14.3-14.1 1.8-1.6 4.4-5.4 5.8-8.5 1.3-3.2 3.1-6.9 3.9-8.4.8-1.4 1.4-4 1.4-5.7 0-2 1.1-4.3 3.1-6.6 3.2-3.7 5.3-9.8 10.5-32.1l2.7-11.1-2.3-3.1c-2.1-2.8-2.2-3.5-1.2-7 1.6-5.4 1.8-5.2-3.5-5.2-9.3 0-9.5-3.2-.3-4.4 4.3-.6 4.9-1 6.3-4.4.9-2 2.1-4.4 2.7-5.2.9-1.2.1-3.3-3.5-9.5-5.5-9.7-4.3-11 3.8-4l5.3 4.5 17.8.1 17.8.2 6.1-5.2c3.4-2.8 6.5-5.1 6.9-5.1 1.6 0 .7 4.1-2.7 12.1-1.9 4.6-3.5 8.5-3.5 8.6 0 .2 1.5.3 3.4.3 3.9 0 15.8 4.8 15 6.1-.2.4-2 1.1-4 1.5-2.4.4-3.4 1.1-3.2 2.2.2 1-.5 1.8-1.7 2-6.6 1-6.6 1-5.1 4 .7 1.5 2.4 6.3 3.6 10.7 7.4 26.3 7.7 26.7 26.3 37 3.7 2 6.7 3.9 6.7 4.2s-1.4.3-3-.1c-4.7-.9-2.9.6 8.4 7.3 11.1 6.4 13.8 8.8 9.2 7.9l-2.7-.5 1.9 2.1c6.5 6.9 7.9 8.7 9.5 11.5l1.8 3.1-2.5-1c-2.8-1-3.4-.2-1.3 1.9 1 1.1.8 1.1-1.1.1-3-1.5-3.5-.9-2.3 2.4 1.2 2.9.9 3.1-2 1.6-2.3-1.3-2.6.2-.4 2 1.8 1.5 2 3.7.3 4.3-1.3.4 1.3 6.2 6.7 15.2 2.7 4.4 4 10.3 3 13.5-.4 1.2-2.7 3.5-5.3 5.1-5.5 3.5-7.2 2.6-7.2-3.5 0-5.1-2.8-10.7-6.4-12.4-3.3-1.6-6-6.4-4.4-8 .7-.7 0-2.3-2.6-5.5-3.8-4.6-5.1-5.5-9.6-6.4-1.4-.2-4.5-1.3-6.9-2.4-2.4-1-4.7-1.6-5.2-1.3-.5.2-2.8-1.3-5.1-3.4-2.4-2.2-5.4-4.3-6.8-4.7s-4.1-1.9-6-3.2l-3.5-2.3-.7 3.2c-1.7 8.4-1.9 18.6-.4 22.2 1.4 3.3 1.8 3.6 4.3 2.9 4.2-1.2 12.6-.9 17 .6l4 1.3-.4 9.2c-.5 12.4-1 15-3.4 18-2.5 3.2-4.5 3.3-7.7.3l-2.4-2.2 2.6 5.2c1.4 2.9 3.1 5.3 3.6 5.3.6 0 1 .9 1 2s.6 2.1 1.3 2.2c.6 0 1.7.2 2.2.3.6.2 1.7.3 2.6.4 2.2.1 3.4 7.7 2 12.9-.9 3.3-.8 4.7 1 8.8 1.8 3.9 2.1 6 1.6 11.7-.6 6.9-.6 7 3.5 13.1 8 11.7 13.5 15.9 27.1 20.7 7 2.4 11.7 6.3 11.7 9.8 0 .9.5 2.2 1.2 2.9.8.8.7 2.8-.8 7.9-1 3.7-1.7 8.5-1.5 10.5.2 2.7-.2 4-1.3 4.4-2.6 1-4.9 5.6-5.3 10.7-.4 4.1-1.1 5.5-3.9 8.2-3 2.8-4.4 3.3-10.7 4-3.9.3-7.6 1-8.2 1.5-.5.4-2.6 1.2-4.5 1.7-3.7 1-5.2 3.9-2.8 5.4.7.5 56.5.9 124.1.9H512V0H0z"/><path d="M190.8 134.2c-1 3.4-1.6 6.3-1.5 6.5.2.1 3.3-.3 7-.9 6-1 6.8-1.3 6.5-3.2-.2-1.5-1-2.1-2.8-2.1s-3-.9-4.3-3.3c-.9-1.7-2.1-3.2-2.5-3.2s-1.5 2.8-2.4 6.2M253 273.4c0 1.4.4 2.7.9 3 1 .6 2.3-3.3 1.5-4.6-1-1.6-2.4-.7-2.4 1.6m-72 109.1c0 1.2 1.4 1.5 6.8 1.4 5.6-.1 6.1-.2 3.2-.9-8.8-1.9-10-2-10-.5"/></svg>