<svg xmlns="http://www.w3.org/2000/svg" width="682.667" height="512" version="1.0" viewBox="0 0 512 384"><path d="M0 192v192h79.5c77.7 0 79.5 0 79.5-1.9 0-1.1.2-2.6.6-3.4.8-2.2-3.5-3.5-20.1-6.1-8.3-1.3-16.6-3-18.7-3.9-2.3-1-5.5-3.9-8.9-8.2-3.2-4.2-7.8-8.4-12.2-11.3-10.5-7-11.2-8.2-11.4-21.4-.1-6.1.2-11.9.7-12.8.5-1 3.1-3.2 5.6-4.9 2.9-1.9 5.8-5 7.5-8 3-5.1 6.8-8 13.4-10.1 7.2-2.3 13-5.8 16.7-9.9 2-2.3 4.1-4.1 4.7-4.1s2-1.4 3-3c1-1.7 3.6-4.9 5.7-7.3 5-5.3 16.6-19.4 22.4-27.1 2.5-3.3 6.5-8.1 8.9-10.8l4.4-4.9-1.6-3.5c-2.9-6-2.3-8.2 2.9-10.4l4.6-2-.8-7.3c-.4-3.9-.8-8.1-1-9.2-.1-1.1-.3-3-.3-4.3-.2-5.1-6-1-9.9 7-1.2 2.4-3.3 8.3-4.7 13.3-2.3 8.1-8.1 21.5-9.3 21.5-.2 0-.2-4.3 0-9.5s.1-9.5-.2-9.5c-1.3 0-13 12.7-13 14.1 0 .8-1.3 2.8-3 4.4-1.6 1.5-3.4 4.3-4.1 6.2-1 3.2-3.2 4.3-4.4 2.3-.5-.8-1.1-.7-2.1.1-.7.6-2 .9-2.9.6-.8-.4-1.9.1-2.4 1-.8 1.5-1 1.5-2.5.1-.9-.9-1.6-2-1.6-2.5 0-.4-1.2-1.9-2.6-3.2l-2.5-2.4 3.3-3.5c1.8-1.9 6-5.7 9.2-8.4 3.3-2.8 9.4-9.4 13.6-14.7s9.3-11.2 11.4-13.1c4-3.7 8.6-11.7 8.6-14.8 0-1 .7-2.7 1.5-3.8.8-1 1.5-3.4 1.5-5.2s1.1-5.2 2.4-7.5c2.3-3.9 8-22.3 12.1-39 1.7-6.8 1.7-6.9-.5-9.2-2.2-2.4-2.3-4-.8-10.5.2-1.1-.7-1.6-3.7-1.8-2.2-.1-5.1-.5-6.5-.8-2.4-.5-2.4-.6-.6-2 1.1-.8 3.1-1.4 4.5-1.4 4.7 0 6.9-1.1 7.6-3.8.3-1.4 1.6-3.9 2.7-5.5l2-2.8-2-2.2c-2.1-2.4-8.2-12-8.2-13.1 0-1.4 2.1-.3 8 4.3 5.7 4.4 6.6 4.8 9.4 3.9 1.7-.5 9.7-.8 17.7-.7l14.7.3 6-5.2c5-4.4 8.2-6.3 8.2-4.9 0 1.1-5 14.9-6.4 17.5l-1.7 3.2h4.3c4.5.1 15 4 15.6 5.8.2.6-1.3 1.4-3.3 1.8-2.5.4-3.5 1.1-3.1 2 .3.9-.4 1.6-2.2 2-6.9 1.5-7.1 1.8-5.1 5.5.6 1.1 2.6 8.1 4.4 15.5 2.1 8.4 4.7 15.8 6.8 19.7 3.1 5.7 4 6.6 11.8 10.8 4.6 2.5 8.2 5 7.9 5.5s-.9.7-1.5.6c-2.5-.9 8.2 6.4 13.8 9.3 2.1 1.1 4.8 2.9 6 4 1.3 1.1 1.8 1.7 1.2 1.4-.5-.3-2.2-.9-3.7-1.3-2-.5-.3 1.7 8 9.9 10.6 10.5 12.4 13.6 5.7 9.6-4.9-2.9-5.4-2.6-2 .9 3.1 3.3 2.7 5.4-.5 2.5-3-2.7-2.5 0 1 5.1 3.2 4.6 3.2 5.2 0 3.2-2.7-1.7-3.6-.3-1.6 2.7l1.6 2.5h-4c-7.2 0-7.7 1.6-4.9 16.2 1.1 5.2 1 6-1.1 9.3-2.8 4.6-10.9 8.9-15.1 8-1.6-.4-2.7-1-2.4-1.5.3-.4-.2-1.1-1.1-1.4-1.4-.5-1.4-.8 0-2.8 1.3-1.9 1.3-2.3 0-3.2-1.2-.9-1.1-1.6 1-4.7l2.5-3.6-3.3-3.7c-1.9-2-3.9-3.6-4.5-3.6-2.2 0 .3-3.1 3.5-4.5 5-2.1 4.3-4-2.3-6.1-3.2-.9-7.1-2.4-8.7-3.2-2.8-1.4-2.9-1.3-2.4 1.2.8 3.9-1.4 2.2-12.6-9.9-9.4-10.1-10-10.6-10.8-8.4-.5 1.3-.8 4.2-.7 6.4s-.2 4.8-.6 5.8c-.8 1.9-.3 5.5 1.4 9.8.9 2.6 1.2 2.7 7.4 2.2 6.7-.6 12.8.8 15.9 3.4 2.5 2.2 1.9 19.7-.8 24.3-3 5.1-4.6 5.7-8.3 3.1-3.7-2.7-3.8-2.4-.7 3.7 1.3 2.6 4 9.5 6 15.4s4.6 12.8 5.8 15.4c1.6 3.8 1.9 6.1 1.6 11.6-.6 7.3-1.3 9.2-2.8 6.8-.8-1.2-1-1.2-1-.1 0 2.4 9.1 18.7 13.7 24.6 2.9 3.6 7.4 7.6 13 11.2 9.9 6.5 11.9 9.6 11 17.8-1 9.1-3.4 15.5-7.6 20-2.6 2.8-4.1 5.6-4.6 8.2-.3 2.4-1.7 5.1-3.1 6.4-1.3 1.2-2.4 2.6-2.4 3.1 0 .4 53.1.8 118 .8h118V0H0z"/><path d="M190.5 133.1c-.9 3-2 6.6-2.5 8l-.8 2.5 4.2-1.2c2.2-.7 5.3-1.5 6.7-1.8 1.6-.4 2.9-1.4 3.2-2.8.8-2.8.2-3.4-1.7-1.9-1.3 1.1-1.6.9-2.1-1.2-.4-1.4-1.7-3.5-3-4.7l-2.4-2.2zm62.1 143.2c-1.6 1.2-1.7 1.7-.6 3.7l1.3 2.4.9-2.4c.5-1.3.7-3 .6-3.7-.3-1.2-.6-1.2-2.2 0"/></svg>