<svg xmlns="http://www.w3.org/2000/svg" width="682.667" height="512" version="1.0" viewBox="0 0 512 384"><path d="M0 192v192h158.8l.4-3.5c.2-2-.1-4-.6-4.4-.6-.5-6.3-2-12.6-3.5-16.5-3.8-18.1-4.6-22.1-11.9-2.6-4.7-4.6-6.9-8.4-9.2-2.7-1.7-6.4-4.4-8.2-6.2l-3.3-3.1v-11.6c0-12.7.2-13.3 6.9-17.2 1.8-1 3.4-2.9 3.7-4 .8-3.3 4.7-6.4 12.6-10.4 5.3-2.6 7.7-4.4 9.2-7.1 3.6-6.2 5.4-8.2 6.9-7.6 1 .4 1.8-.7 2.7-3.6.6-2.3 1.8-4.9 2.5-5.7s7.2-10.3 14.3-21c7.2-10.7 14.4-21 16-22.9l2.8-3.3-2.8-5.5c-1.5-3-2.8-6.1-2.8-7 0-1.1-1.2-.2-3.5 2.3l-3.5 3.9.6-3.8c.4-2.4.2-3.7-.5-3.7-.6 0-1 .3-.9.7.2.5-1.6 3.9-4 7.8-4.1 6.8-4.2 6.9-4.2 3.6 0-3.4 0-3.4-2.1-1.5-1.1 1-2.6 3.2-3.4 4.9-.7 1.7-2.4 4.4-3.8 5.9s-3.1 4.3-3.7 6.2c-1 2.9-1.4 3.2-3 2.2-1.4-.9-2.2-.9-3.3 0-.8.7-2.1 1-2.9.7-.9-.4-1.8.1-2.2 1.1-.6 1.5-.9 1.5-2.8-.7-1.2-1.3-3.2-3.6-4.5-5l-2.4-2.6 5-5.9c2.7-3.2 6.3-6.8 8-7.9s6.8-7 11.3-13c4.5-6.1 9.2-12.1 10.4-13.5 1.4-1.6 3.8-7.7 6.3-16 2.2-7.4 5.8-19.4 8.1-26.5 2.3-7.2 5.7-18.7 7.5-25.7 3.3-12.6 3.3-12.7 1.3-14.5-1.6-1.5-1.9-2.7-1.6-6.9l.4-5.1-5.8-.9c-8.6-1.3-7.9-2.7 2.4-4.8 2-.5 3.3-2 5.6-6.6l3-6-3.2-4.2c-4.7-6.3-6.8-9.8-6.4-10.8.2-.5 3.3 1.3 6.9 4l6.6 4.8 7.4-.9c4.1-.4 12.3-.8 18.2-.9h10.9l6.4-5.6c3.5-3.1 6.8-5.4 7.3-5.2.9.3-3.4 14.2-5.7 18.5-1.7 3.1-1.6 3.2 2.6 2.7 3.9-.5 16.2 4 16.9 6.2.2.7-1.5 1.4-4.3 1.9-3.4.5-4.3.9-3.3 1.6 1.2.8 1.2 1-.1 1.9-.8.5-2.5 1-3.7 1-4.5 0-5.4.9-3.9 3.8 1.4 2.8 3.3 11.1 6.1 26.1 1.8 9.6 7.3 21.4 10.7 23.2 1.3.6 4.7 3.6 7.5 6.5 2.9 2.9 6.4 6.1 7.8 7s2.5 2.1 2.5 2.6 1.9 2.6 4.2 4.6c8.1 7.2 19.3 19.4 19 20.9-.2.8.4 2.5 1.2 3.9 1.5 2.2 1.5 2.3-.1 1.7-1-.4-2.9-1.4-4.3-2.2-2.3-1.5-2.4-1.5-1.6.4.5 1.1 1.1 2.8 1.3 3.7.3 1 .9 1.6 1.3 1.3.4-.2.6 1.2.4 3.3s.4 4.7 1.2 6c1.5 2.2 1.4 2.3-.2 1.4-1.8-1-5.4-.5-5.4.8 0 .4 1 1.5 2.3 2.3 1.8 1.3 1.9 1.6.5 1.6-.9.1-2.9-.4-4.4-.9-3.5-1.4-6.1-.5-4.5 1.4.9 1.1.7 1.2-1.2.9-2.7-.5-4.1 2.1-5.2 9.8-.7 5.4-5.4 10.8-12.7 14.5C262 246 253 247 253 245c0-.6-.7-1-1.5-1s-2.9-1.5-4.6-3.3l-3-3.2 2.7 5.4c3.5 7.3 14.4 40.5 14.6 44.4 0 1.8-.3 4.7-.7 6.6l-.7 3.4-2.2-2.8c-8-10.1 1.9 19.6 11.3 34 2.2 3.3 6.2 8.7 9 11.9 7.2 8.5 8.4 11.4 7.1 17.2-.6 2.7-1.5 5.3-1.9 5.9-.5.5-1.1 2.3-1.5 3.9-.9 3.9-4.2 8.3-6.5 9.1-1.5.4-4.1 5-4.1 7.1 0 .2 54.2.4 120.5.4H512V0H0z"/><path d="M190.8 137.5c-2.1 6.3-2.2 7.5-.9 6.9.9-.4 2.6-.9 3.9-1.2 2.5-.5 5.2-3.8 5.2-6.3 0-1.8-3.7-6.9-5-6.9-.4 0-1.9 3.4-3.2 7.5m42.2 60.8c0 2.1.5 5.8 1.1 8.3l1.1 4.4h5.4c3 0 5.4-.3 5.4-.6 0-.8-6-8.3-10.2-12.9l-2.8-3zm21 12.5c0 1.1 4.1 3.1 6.2 3 .9-.1 1.5-.5 1.2-1-.4-.5-.8-.7-1.1-.4s-1.5-.1-2.7-.9c-2.3-1.7-3.6-1.9-3.6-.7"/></svg>