<svg xmlns="http://www.w3.org/2000/svg" width="682.667" height="512" version="1.0" viewBox="0 0 512 384"><path d="M0 192v192h158.8l.6-2.3c1.3-4.9.7-6.5-2.6-7.2-1.8-.4-5.4-1.6-8-2.7-4.1-1.8-4.9-2.6-6.3-6.7s-2.4-5.2-9.3-9.6c-4.7-3.1-8.2-6.1-9.1-8-1.4-2.9-2.4-17.7-1.4-21.4.2-1 1.6-2.4 2.9-3q2.4-1.05 2.4-3.6c0-2.4 4.2-7.5 6.1-7.5.5 0 2.7-1.6 4.9-3.6 3.1-2.8 3.9-4.1 3.4-5.9-.7-2.9 4.5-11.4 6.5-10.7 1 .3 1.3-.2.9-2.2-.3-1.6 0-3.3.9-4.2.8-.8 1.1-1.4.8-1.4-.4 0 .3-1.7 1.5-3.8 1.2-2 5.2-9.3 8.8-16.2 6.9-13.4 11.5-20.9 16.8-27.9l3.4-4.3-2.5-4.3c-4.2-7.1-3.3-9.5 4.6-11.8 4.8-1.4 5.5-2.7 4.4-8.5-.6-3.3-.8-3.4-1.7-1.7-.6 1.1-6.3 7.4-12.8 14-6.6 6.7-12 13.1-12.4 14.6-.3 1.4-1.9 4.3-3.6 6.4-1.6 2.1-3 4.7-3 5.9 0 1.1-.5 2.8-1 3.6-.8 1.3-1.1 1.2-2.4-.5-1.5-2-1.5-2-2.9-.1-.9 1.2-2 1.7-3 1.3s-2 .1-2.6 1.1c-.5.9-1.1 1.5-1.3 1.2s-2.3-2.6-4.7-5.2l-4.4-4.7 2.9-3.8c1.5-2.1 6.1-7.3 10.1-11.5s7.3-8.1 7.3-8.6c0-1.2-1.9-1-3.8.2-.7.4-2.4.9-3.7 1-2.2.3-2.3.2-.9-1.9s1.3-2.3-1.1-2.8c-2-.3-3.9.4-7.2 3-2.5 1.9-4.7 3.3-4.8 3.1-.6-.6 11.1-14.2 24.6-28.5l12.6-13.5 5.1-14.3c5.4-15.1 9.5-29.5 11.6-40.8 1.3-6.7 1.3-7-1-9.7-2.6-3-2.9-5.4-1.4-9.4.9-2.5.8-2.6-2.4-2.6-5.2 0-9.7-1.2-9.3-2.4.2-.6 2.7-1.6 5.6-2.3 2.9-.6 5.3-1.3 5.4-1.5 4.1-7.9 5.8-11.9 5.5-12.5-.1-.4-2.5-4.1-5.1-8.1-2.7-4-4.7-7.5-4.5-7.7.2-.3 3.5 1.8 7.4 4.6 5.3 3.8 7.5 4.9 9.4 4.5 1.4-.3 9.4-.9 17.9-1.2l15.4-.7 7.4-6c4.1-3.3 7.6-5.7 7.9-5.4.7.7-2 9.1-5.2 16.4l-2.3 5.3h4.7c4.5 0 12.4 2.2 16.7 4.7 1.9 1.1 1.9 1.2-.8 2.2-1.6.6-3.4 1.1-4.1 1.1-.8 0-1.6.9-1.9 1.9-.3 1.4-1.7 2.1-5.1 2.6-3.8.6-4.6 1.1-4.1 2.4 1.9 4.9 4.4 16.6 5 23.1.8 10.4 2.4 18.9 4.1 22.1.7 1.5 3 3.7 5.1 5 5.9 3.4 11.3 9 11.3 11.6 0 1.3 1.3 3.2 3.5 4.9 1.9 1.4 3.5 3.2 3.5 4 0 .7 3 4.7 6.8 8.9 7.5 8.6 9.7 13.2 8.6 18.5-.4 1.9-.8 4.6-.9 6-.3 4.5-.5 4.9-2 4.4-1.7-.7-2.1 1.1-.5 2.1.6.4.8 1 .5 1.5s-.1 1.1.5 1.5c1.3.8 1.3 5.5-.1 5.5-.5 0-.7.4-.4 1 .6 1-2.2 5.8-3 5.1-.3-.2-1.6 0-2.8.3-2.2.6-2.2.7-.3 2.1 2.4 1.8 1.6 1.9-3.5.3-4.4-1.3-5.8-.6-3.8 1.8 1.2 1.5 1.1 1.6-.8 1s-2.5 0-4.3 4.1c-2.3 5.1-7.2 9.8-13.2 12.5-2.1.9-3.8 2-3.8 2.4s.9 3.2 1.9 6.3c1.1 3.1 2.9 9 4.1 13.1s3 9.5 4 12c2.4 6.1 3.2 11.3 2.4 15.5-.5 2.9-.9 3.3-2.1 2.4-1.1-1-1.8-.8-3.5.8l-2.1 2.1 4.3 13.4c2.3 7.3 6.7 18.5 9.7 24.8 11.8 24.6 11.7 23.7 2.5 42.2-.2.5 53.7.8 119.7.8H512V0H0z"/><path d="M193.8 138.2c-.9 3.5-1.5 6.4-1.4 6.5s1.1 0 2.3-.3 2.8-2.3 3.8-4.5c1.7-3.7 1.7-4 0-5.9-1-1.1-2.1-2-2.4-2-.4 0-1.4 2.8-2.3 6.2M256 286c0 1.9.3 2.1 1.2 1.2s.9-1.5 0-2.4-1.2-.7-1.2 1.2"/></svg>