<svg xmlns="http://www.w3.org/2000/svg" width="682.667" height="512" version="1.0" viewBox="0 0 512 384"><path d="M0 192v192h159.9l.6-5.5c.9-6.7.4-8.1-3.6-10.3-4.9-2.6-10.6-7.9-11.7-11-.5-1.5-1.8-6.5-2.7-11.2-1-4.7-2.2-10-2.7-11.8-.8-2.8-.7-3.7 1-5.5 1.1-1.2 3.2-4.2 4.6-6.5 2.2-3.6 2.6-5.1 2.1-8.2-.5-2.8-.1-4.8 1.4-7.9 1.2-2.2 2.1-5.4 2.1-7s1.8-6.5 4.1-10.8c2.2-4.3 5.6-11.6 7.6-16.3 5-12.1 11.6-24.6 16.2-30.8l4-5.3-2.6-4-2.6-4-4.4 4.3c-2.7 2.6-4.2 5-4 5.9.3.9-.8 3.9-2.4 6.5-1.6 2.7-2.9 5.4-2.9 6.1 0 .6-.5 2.4-1 3.9-1 2.5-1.2 2.6-2.7 1.1-1.5-1.4-1.7-1.4-3.5.6-1.4 1.5-2.1 1.8-2.4.9-.4-.8-1.1-.5-2.4 1l-1.9 2.3-1.6-2.3c-.9-1.2-3-3.5-4.6-5-2.8-2.6-2.9-3-1.7-5.8 1.9-4.3 4.6-7.9 11.4-15.3 3.5-3.7 5.9-7.2 5.6-8s0-1.1.7-.7c.6.4.9.2.6-.7-.5-1.2 2.5-15.8 4.1-20.2.7-1.8.4-1.7-2.7.6-3.8 2.9-15.2 8.9-17 8.9-.6 0-.9-.9-.6-2 .8-3.1-.9-3.3-5.6-.6-6 3.6-9.9 3.3-6.4-.3 1-1.1.8-1.1-1.1-.1-4 2-3.5.4.5-2.1 7.1-4.2 33-23.6 38.7-28.8 2.1-2 4.7-5.6 5.8-8 3.3-7.6 7.8-24 10.3-37.5l2.3-12.9-2.9-3.1c-3-3.3-3.5-5.8-1.9-10 .9-2.6.9-2.6-4.3-2.7-2.8 0-6.1-.4-7.2-.8-1.9-.8-1.9-.8.2-1.9 1.2-.7 3.9-1.6 5.9-2 3.4-.7 4.1-1.5 7.2-7.4l3.5-6.6-4.8-7.6c-2.6-4.1-4.5-8-4.3-8.6s3.1 1.3 6.6 4.1l6.3 5.1 8.2-1.1c4.5-.6 12.9-1.4 18.7-1.7 9.6-.6 10.8-.9 13.5-3.4 5-4.6 11.9-9.2 12.3-8.2.2.8-3.7 11.8-7.4 20.7-.3.6 2.3 1 6.3 1.1 4.6.1 8.4.9 11.7 2.3 5.4 2.4 5.2 3.2-.8 5.1-2.5.8-3.4 1.5-2.6 2 1.6 1-1.1 2.5-6.2 3.4-2.1.4-3.8.9-3.8 1.1 0 .3.6 2.2 1.4 4.2 2.2 5.7 3.4 13.6 4.1 25.8.9 17.7.6 16.8 9 22.5 7.5 5.1 12.7 10.7 13 14 .1 1 1.6 3.4 3.3 5.4 1.8 2 3.2 4.3 3.2 5.1s2 4.2 4.4 7.5c6.2 8.4 8.2 13.8 6.6 18.5-1.1 3.3-10 14.2-14.3 17.3-1.4 1.1-1.7 2.4-1.3 6.4.4 4.3.1 5.3-1.9 7.2-1.4 1.3-2.9 4.3-3.5 7.1-2.2 9.7-4.9 11.8-11 8.4-2.2-1.3-4.3-2-4.6-1.6-.3.3.6 3.6 2.2 7.4 1.5 3.7 4.2 11.7 5.9 17.8 1.8 6 4.2 13.4 5.4 16.3 1.4 3.4 2.1 7.4 2.1 11.5l-.1 6.2-2-2.4c-1.1-1.3-2.1-2.2-2.2-2-.2.2-.9 2.7-1.6 5.5-1.4 6-1 8 7.5 35.4 6.8 22.2 7.8 26.9 7.1 34.7l-.6 6.3H512V0H0z"/><path d="M198.6 136.1c-2.2 6.8-2.7 9.1-2.2 9.6.8.9 3.5-1.6 5.1-4.8 1.3-2.4 1.2-2.8-.5-4.4-1.6-1.4-2-1.5-2.4-.4M179 193.4c-.5 1.4-2.1 4.9-3.5 7.8l-2.6 5.3 3.8-4.5c2.7-3.1 3.8-5.3 3.8-7.7 0-3.9-.2-4.1-1.5-.9m9 23.1c-.8.9-.8 1.5-.2 1.5 1.2 0 2.6-1.9 1.9-2.6-.2-.2-1 .2-1.7 1.1m71.3 75.5c-.6 1.4-.7 2.9-.2 3.4 1.3 1.5 2.1.1 1.7-3.1l-.4-2.8zm-104.8 9c-.4 1.2-.5 2.4-.2 2.7.3.2.8-.5 1.2-1.7s.5-2.4.2-2.7c-.3-.2-.8.5-1.2 1.7"/></svg>