<svg xmlns="http://www.w3.org/2000/svg" width="682.667" height="512" version="1.0" viewBox="0 0 512 384"><path d="M0 192v192h140.5l1.7-8.5c1.8-9.7 9.6-25.3 10.9-21.8.4 1.3 1.2.2 2.7-4 1.2-3.1 3.8-8.8 5.7-12.7 1.9-3.8 3-7 2.5-7-.6 0-1.8-1.7-2.7-3.7-1.9-4.7-1.3-14.4 1.2-19.3 2.7-5.3 10.1-13.6 14.3-16.1 2.9-1.7 9.1-5.6 12.1-7.6.2-.1-.3-1.3-1.2-2.6-2.3-3.6-4-10.2-3.3-13 .6-2.7 5.2-4.9 13.1-6.5l4-.8.3-9.4c.1-5.2-.5-16.9-1.4-26-3.1-30-2.2-39.2 5.2-50.1l3.7-5.4-2.7-16c-1.5-8.8-2.7-16.8-2.7-17.7 0-1-.4-2-1-2.3-.5-.4-.6.2-.2 1.1.4 1-1.6.1-4.9-2.5-6.2-4.6-7.1-6.9-5.8-14.1.5-2.5.7-4.6.6-4.8-.2-.1-3.4.2-7.2.8-9.3 1.3-11.4 1.2-11.4-.3s4.5-3.8 12.9-6.5c5-1.6 5.4-1.9 5.8-5.2.2-1.9.8-6.1 1.3-9.2l1.1-5.7-5.7-7.3c-5.9-7.6-9-12.8-7.7-12.8.5 0 3.1 1.5 5.8 3.3 12.6 8.3 11.7 7.9 16.6 5.9 5.9-2.5 20.2-5.9 32.3-7.7l9.9-1.4 9.4-10.1c5.2-5.5 9.9-10 10.5-10 1.5 0 .1 12.2-2.6 22.4l-2.3 8.7 4.1-.8c4.3-.8 22.5-.7 26.3.2 1.3.3 2.3.9 2.3 1.3s-4 2.8-9 5.2c-4.9 2.4-8.8 4.6-8.6 4.8s1.9.6 3.8.9c1.8.3 3.5.7 3.8 1 .9.9-3.3 3.2-8.7 4.8l-5.4 1.6 3.1 5.4c6.9 12 12.4 30.9 16 54.5 2.6 17 5.7 28.3 11.2 39.9 5.6 12 8.8 22.1 9.8 31.4 1.3 11.1 1.3 11.6-.6 8.9-1.2-1.7-1.9-2-3.2-1.3s-2.3.4-3.9-1.1c-3.7-3.4-2.9-.1 2.3 10.9 4.7 9.9 12.9 32.1 12.1 32.9-.3.3-1.3-.9-2.4-2.6l-2-3.1-1.7 5.4-1.7 5.4 3.1 8.3c1.7 4.5 2.9 8.5 2.6 8.7-.2.3-.7-.4-1-1.5-.8-2.5-4-6.2-5.4-6.2-.5 0-1.3 1.6-1.7 3.6-.7 4-2.9 8.1-5.4 10.1-2.8 2.4-6.7 1.4-12.7-3.2-3.1-2.5-6-4.5-6.4-4.5-.3 0 1.4 3.9 3.7 8.7 2.3 4.9 6.5 14.6 9.3 21.8s6.1 15.4 7.3 18.3c2.2 5.2 7.3 11.6 11.2 13.9 1.8 1.1 1.8 1.2-1.1 1.2l-3 .1 2.8 8.2c1.5 4.6 2.8 9.3 2.8 10.5v2.3h197V0H0z"/><path d="M227.8 157.7c-1.2.3-1.8 1.4-1.8 3.1-.1 2.6-.1 2.6-1.5.8-1.5-1.9-1.5-1.9-1.5.2 0 1.3.6 2.2 1.5 2.2 1.6 0 6.5-4.6 6.5-6.1 0-.9-.4-1-3.2-.2m-76.2 202.9c-.4 1.4-.5 2.8-.3 3.1.3.2.8-.8 1.1-2.3.4-1.4.5-2.8.3-3.1-.3-.2-.8.8-1.1 2.3M305 367c0 1.6.4 3 .8 3 .5 0 .7-1.4.4-3-.2-1.7-.6-3-.8-3s-.4 1.3-.4 3m5.6 14c.8 3.1 1 3.3 2.4 2.8.8-.2.4-1.3-1-2.8l-2.1-2.5z"/></svg>