<svg xmlns="http://www.w3.org/2000/svg" width="682.667" height="512" version="1.0" viewBox="0 0 512 384"><path d="M0 192v192h140.9l.6-2.3c1.3-4.3 8.7-16 9.5-14.8.4.7 1.7-1.2 3.3-4.7 1.5-3.3 2.7-6.2 2.7-6.5s1.7-3.4 3.8-6.9c3.6-6 3.7-6.6 3.7-15.8 0-8.5.3-10 2.8-14.5 3.5-6.3 7.7-11 14.4-15.7 2.8-2 6.1-4.5 7.2-5.4l2-1.8-2.5-3.3c-2.8-3.7-5.4-10.4-5.4-13.9 0-3.2 3.8-5.8 11.5-8 6.3-1.8 6.6-2.1 7.6-5.8.7-2.7.7-9.6 0-22.8-1-17-1.3-19.3-3.3-22.1-3.2-4.5-3.5-12.3-.8-22.6 2.5-9.8 4-13 8.8-18.9l3.5-4.2-2.8-17.3-2.7-17.2-4.2-3.7c-2.2-2.1-4.7-3.8-5.4-3.8-2.4 0-4.1-6.3-3.5-12.3l.6-5.7-9.7.7c-6.1.4-9.6.2-9.6-.4 0-1.1 4.9-3.4 13-6.1l5.5-1.9 1.8-9.5 1.9-9.6-4.9-6.3C182.9 71.3 178.8 65 180 65c.6 0 4.3 2.1 8.3 4.6 4 2.6 8.1 5.2 9.2 5.9 1.8 1.1 3.2.9 9.1-1.1 8.1-2.7 35.3-8.4 40.1-8.4 2.5 0 4-.8 6-3.2 5.8-6.7 15.9-17 17.7-18s1.9-.7 1.2 4.8c-.4 3.3-1 7.8-1.2 10.1-.3 2.3-1.3 7.1-2.4 10.6l-1.8 6.4 11.2-.4c12-.5 23.1.6 23.1 2.2 0 .6-4.5 3.2-10 6l-10 5 4.5.5c2.5.3 4.5.9 4.5 1.5 0 1-4.4 2.8-11.3 4.5l-4.2 1.1 3.4 6.2c3.4 6.1 8.5 17.7 9.1 20.6.2.9 1.9 7.7 3.9 15.1 4.1 16 7.9 32.4 8.3 36.2.3 3.1 7.3 18.6 10.7 23.8 6.8 10.4 10 16.9 13.1 26.6 3.9 12 4.4 15.1 1.9 11.9-1.1-1.4-1.8-1.6-2.1-.8-.7 1.8-3 1.6-5.1-.5-1.6-1.6-1.7-1.2-1.9 10.1l-.3 11.8 3.9 6.7c2.1 3.7 5.8 10.2 8.4 14.4l4.5 7.7-3.8-2c-2.1-1.1-4.6-2.9-5.6-4-1.8-2-1.8-2-3 .3-1.6 2.9-.7 4.9 8.1 19.3 5.7 9.4 6.2 10.5 3.3 7.9-1.8-1.8-4.2-3.5-5.3-3.8-1.2-.3-3.8-2.7-6-5.3l-3.9-4.6-1.3 6.9c-.8 3.8-2.5 9.3-3.9 12.1-2.5 5.2-2.6 5.3-6.9 5.3-3.5 0-5.2-.8-10-4.5-3.2-2.5-6-4.3-6.2-4.1s1.9 4.8 4.6 10.2 6.3 13.5 8.1 17.9c1.7 4.4 4 10.1 5.1 12.7 1 2.6 1.9 5.3 1.9 6.1 0 1.8 7.9 12.6 12.5 17.3 1.8 1.8 4.1 4.7 5.1 6.3l1.8 3.1H512V0H0z"/><path d="M228.8 161.4c-1 .7-1.8 1.8-1.8 2.5 0 1.5-1.7 1.4-2.4-.2-.3-.6-.4-.1-.3 1.3.4 5.3 7.7 2.3 7.7-3.2 0-2.1-.9-2.2-3.2-.4M312 271c0 .5.5 1 1.1 1 .5 0 .7-.5.4-1-.3-.6-.8-1-1.1-1-.2 0-.4.4-.4 1"/></svg>