<svg xmlns="http://www.w3.org/2000/svg" width="682.667" height="512" version="1.0" viewBox="0 0 512 384"><path d="M0 192v192h155.6l1.6-3.3c1.4-2.8 1.4-3.5.1-5.4s-1.3-3.6-.4-10.7c.7-4.7 1.8-9.8 2.6-11.3 2-3.9 5.1-11.3 6-14.3 1.7-6.3 15.8-48.9 17.2-52 .9-1.9 2.8-6.2 4.3-9.5 3.2-6.9 6.3-24.9 4.8-27.8-.6-1.1-.5-3.9.3-7.7 1.1-5.5 1-6.1-1.2-9.2-1.9-2.6-2.4-4.5-2.4-9.3.1-5.3.8-7.5 6.3-18.6 3.7-7.7 7.9-14.6 10.7-17.7l4.6-5.1-2.1-15.3c-1.1-8.4-2.3-17.3-2.6-19.8-.4-3.4-1.5-5.5-4.2-8.3-2-2-4.2-3.7-4.9-3.7s-2-1.1-2.9-2.5c-1.4-2.1-1.6-4-1.1-9.8l.6-7.3-10.9.4c-14.7.5-14.5-1.3.9-6.5l5.3-1.8 1.7-6.6c.9-3.6 2.6-7.8 3.9-9.3 1.2-1.6 2.2-3.4 2.2-4s-2-3.6-4.5-6.6c-5.6-6.8-13.5-18.4-13.5-19.9 0-.6.4-1.1.9-1.1.8 0 7.9 4.4 17.8 11.1L201 74l7.7-2.4c4.3-1.3 10.5-2.9 13.8-3.6 11.5-2.1 30.8-5 34.1-5 2.5 0 4-.7 5.7-2.7 11.2-13.5 20.9-22.5 22.4-20.9.6.6-3.5 28-4.7 31-1.9 5.1-1.6 5.4 6.1 4.8 7-.5 27.2 1.4 29.8 2.8 1 .5.6 1.2-1.7 2.9-1.7 1.1-3.4 2.1-3.9 2.1s-4.1 1.6-7.9 3.5l-6.9 3.4 3.3.7c4.9 1 3.4 2.6-4.9 5.2-4.1 1.3-8 2.5-8.7 2.8-1 .3-.5 1.9 1.7 6.1 5.8 11.1 8.6 19.6 15.5 46.3 4 15.7 8.7 30.2 12.8 40 .9 1.9 5.5 8.4 10.4 14.4 11.1 13.5 15.6 20 20.1 29 2.9 5.7 3.1 6.7 1.4 5.2-1.2-1.1-2.4-1.6-2.8-1.3-.3.4-1.2.2-2-.5-1.1-.8-1.2-.7-.7.6.3.9.2 1.6-.4 1.6s-1.2-.6-1.5-1.3c-.2-.6-.8-.9-1.2-.5-.5.5.9 5.2 2.9 10.5 2.1 5.4 4.2 11.6 4.8 13.8.5 2.2 2.1 7.6 3.5 12 3.6 11.2 3.6 11.3 1.8 8.2-2-3.4-2.2-3.4-2.2 0 0 3.1-2.9 22-4.1 26.8-.6 2.6-.7 2.1-1.2-2.9-.7-8.4-2.6-8.3-3.6.1-.5 3.7-1 5.8-1.2 4.5-.4-2.8-4.2-5.1-4.2-2.6 0 1-.5 1.4-1.5 1-2.7-1-2.8 2.3-.2 5.7 1.4 1.9 2.9 5.1 3.2 7.3.4 2.1 1.9 5.1 3.3 6.6 3.7 4 2 3.4-5.3-1.7l-6.3-4.5-.7 4.2c-.9 5.7-3.7 12-6.5 14.6-3.2 2.9-7.2 2-14.2-3.4-3.1-2.4-5.9-4.4-6.3-4.4s.9 2.8 2.8 6.2c5.3 9.5 11.9 25.3 15.8 37.5l2 6.3H512V0H0z"/><path d="M224.1 167.6c-.1 1.2.2 3.6.5 5.3.5 2.4 1.2 3.1 2.9 3.1 5.7 0 7.3-3.2 3.5-7-2.7-2.7-4-2.5-4.1.7 0 2.7-.1 2.7-1.4-.7-1-2.6-1.4-2.9-1.4-1.4m-35 158.5c-1.7 3-3.1 5.7-3.1 6.1 0 1.9 1.9.4 4.9-3.7 2.4-3.3 3-4.9 2.3-6.2-.8-1.3-1.5-.7-4.1 3.8"/></svg>