<svg xmlns="http://www.w3.org/2000/svg" width="682.667" height="512" version="1.0" viewBox="0 0 512 384"><path d="M0 192v192h144.8l.7-3.8c.3-2 2.2-7.5 4-12.2 1.9-4.7 3.7-9.9 4.1-11.5.8-3.5 9-28.2 14.4-43.5 2-5.8 5.8-15.1 8.3-20.5 5.3-11.5 8.8-24.1 9.2-33.5.1-3.6 1-9 2-12.1l1.7-5.5-2.6-3.8c-3.2-4.7-3.3-8.4-.3-15.6 3.6-8.6 13.6-25 18.6-30.3l4.5-4.8-1.7-17.2c-2.9-28.4-2.1-25.5-8.9-31.8-5.5-5.2-6-6-6-10-.1-2.4.2-6.2.6-8.5l.7-4-8.8.8c-4.8.5-10.3.6-12.2.3-3.3-.6-3.4-.7-1.5-2.5 1-1.1 4.8-2.9 8.3-4.2l6.4-2.3 1.8-6.3c1.9-6.8 4-10.7 7.3-13.3 2-1.6 1.9-1.7-2.2-6.5C187.5 75 177 59 177 56.7c0-1.6.6-1.4 4.2 1.1 2.4 1.6 8.2 5.4 13 8.6l8.6 5.7 5.9-2c6.5-2.2 39.8-7.9 51.3-8.8 7.1-.5 7.7-.8 10.1-4C276.8 48.7 288.9 37 291 37c2 0 2.2.4 1.6 3.2-.4 1.8-1.3 8-2.1 13.8-1.1 7.6-4 21.5-4.5 21.5 0 0 4.2-.1 9.2-.3 10-.2 29.9 2.6 30.5 4.4.3.9-12 7.2-19.1 9.7l-2.9 1 2.9 1.5 2.9 1.5-5 2.4c-2.7 1.2-5.7 2.3-6.5 2.3s-3.2.5-5.3 1.1l-3.8 1 3 5.7c3.9 7.5 8.2 20.7 12 36.7 4.6 19.1 6.8 26.8 11.1 38.7 5.5 15.1 7.8 19.1 16.5 29.3 10.2 11.9 15.7 19 19.4 25.4 1.7 2.8 3.1 5.4 3.1 5.6 0 1-2.8.4-3.8-.8-1-1.1-6.2-2.2-6.2-1.3 0 .2 3.3 6.9 7.3 14.8 13 26.2 15.3 31 12.5 27.5-1.2-1.6-1.2-.4-.2 8.5.7 5.7 1.3 13.4 1.3 17.3l.1 7-2.2-4.4c-1.2-2.5-2.4-3.9-2.6-3.3-.2.7-.7 1-1 .8-.4-.2-.6 1.7-.4 4.2.2 4 .1 4.4-.9 2.7-.7-1.1-1.5-2.2-1.9-2.5s-1.1-1.4-1.7-2.4c-.9-1.7-1.2-1.3-1.8 2.5-.6 3.5-.9 4-1.6 2.4-.5-1.3-.8 0-.8 4-.1 6.3-2.1 11.9-2.1 5.9 0-2.9-1.5-5.4-3.2-5.4-.4 0-.8 1.1-.8 2.5 0 2.5-.1 2.5-2.5.9l-2.5-1.6 1.5 4.1c1.4 3.9 1.3 4.1-.7 3.8-1.9-.2-2.3.6-3.5 5.8-.7 3.3-2 8-2.8 10.5-1.4 4.3-1.3 4.5 1.2 8l2.6 3.5-3-2.8c-3-2.7-3-2.7-4.8-.7-3.3 3.6-8.7 2.7-15.6-2.6-3.2-2.5-5.9-4.2-5.9-3.7 0 .4 1.2 2.8 2.6 5.3 2.3 4 12.2 25.7 13.7 30.3.6 1.6 6 1.7 94.2 1.7H512V0H0z"/><path d="M224.3 173.7c.2 3.5.6 6.5.9 6.8.2.3 1.9.2 3.5-.1 3-.6 3.1-.8 2.6-4.8-.3-2.2-1.2-4.8-1.9-5.6-1.2-1.2-1.4-1.1-1.4 1.3 0 3.7-1.7 3.4-3-.6-.8-2.8-.9-2.4-.7 3m-19.7 111.7c-2.1 6.6-4.1 12.7-4.3 13.3-.4 1 1 1.1 5.9.7 3.5-.4 6.4-.7 6.5-.8s-.4-3.8-1.2-8.1c-.8-4.4-1.4-9.9-1.5-12.2 0-2.3-.3-4.4-.7-4.6-.5-.3-2.5 5-4.7 11.7M180 338.7l-6.3 11.7 2.4 1.8c1.3 1 3 2.3 3.7 2.9s1.7.9 2.2.7c1.3-.4 13-16.9 13-18.2-.1-1.5-6.8-10.6-7.8-10.6-.5 0-3.7 5.3-7.2 11.7"/></svg>