<svg xmlns="http://www.w3.org/2000/svg" width="682.667" height="512" version="1.0" viewBox="0 0 512 384"><path d="M0 192v192l76.6-.2 76.7-.3 4.8-17c6.6-23.2 14.5-46.8 18-53.7 3.4-6.8 7.4-27 6.4-32.8-.4-2.3 0-5.9 1-9.5 1.7-5.5 1.6-5.8-.3-8.5-3-4.1-4.6-10.2-3.8-15.3 1.4-9.5 15.2-32.7 23.6-39.7l5-4.2-.6-26.1c-.3-14.4-.7-27.2-1-28.4-.2-1.3-2.5-4.6-5-7.4-4.4-5-4.6-5.4-4.3-10.8.1-3.1.2-7 .1-8.6l-.2-3.1-11.6-1.1c-8-.7-12.1-1.5-13.2-2.6-1.9-2-.6-3.9 3.8-5.7 2.3-.9 4.1-3.4 7.6-10.1 2.6-4.8 6.4-10.4 8.4-12.4l3.8-3.7-2-5.2c-1.1-2.8-4.7-10.6-8-17.4-5.6-11.6-6.7-15.7-4.1-15.7.6 0 2.4 1.1 4 2.5 1.5 1.4 5.7 4.7 9.3 7.4s8.2 6.5 10.2 8.4l3.8 3.6 5.2-1.6c8-2.5 8.6-2.5 33.8-5.3 16-1.8 36.3-2 39.2-.4 1.8 1 2.6.5 6.6-4.3 9.6-11.1 21.7-22.6 24.6-23.2 2.6-.6 2.8-.5 2.3 1.6-.3 1.3-1.3 7.2-2.2 13.3-1.6 10.7-4.5 24.2-6 27.7-.6 1.6-.1 1.8 4.6 1.8 8.6 0 34.7 4.8 39.3 7.2 2.6 1.4 1.2 2.4-8.4 5.8-20 6.9-19.4 6.7-17.4 7.8 1.8 1.1 1.8 1.2-.1 3-2 2-17 7.2-20.6 7.2-3 0-3.3 2.4-1 9.2 1.2 3.4 2.1 7.2 2.1 8.4s.6 4 1.4 6.2 1.7 6.7 2 9.9c2 22.3 10.1 61.6 14.5 70.1 1.1 2.1 3.1 4.3 4.5 5 3 1.3 12.7 14 15.5 20.2 1.1 2.5 2.1 5.8 2.1 7.3 0 1.6 1.6 6.1 3.5 10 3.5 7 4.4 10.7 2.6 10.7-.5 0-1.1-.7-1.5-1.5-.3-.8-1-1.5-1.5-1.5-.6 0 1.4 4.6 4.5 10.2 6.5 12.3 16.4 32.5 18.9 38.8 5.8 14.9 10.2 30.5 8.5 29.8-1.1-.4-10.3-13.4-16.4-23-2.7-4.3-5.1-7.6-5.3-7.4-.4.3 3.3 8.8 8.3 19.1 1.8 3.8 3.5 8.1 3.7 9.5.1 1.4.6 3.1 1.1 3.8.4.7.6 1.5.3 1.8-.2.3-2.4-1.7-4.9-4.4l-4.4-4.9.4 6.6c.2 3.6.7 7.8 1.2 9.4.5 1.5 1.2 5.5 1.5 9 .5 5.2.4 5.9-.7 4.3-3.5-5-5-6.4-7.3-6.8-2.6-.5-4.3.6-2.6 1.7.5.3.8 1.4.6 2.5s0 3.3.5 5c1 3.3.4 3.6-2.4 1.5-3-2.3-3.4-1.9-5.2 4.2-.9 3.1-2.5 7.2-3.5 9L349 384h163V0H0z"/><path d="M224.1 184c-.1 8 .6 12 2 12 1.3 0 .9-10.9-.6-15.5l-1.3-4zm-13.7 109.6c-1.5 6.6-5.5 21.8-6 22.6-.3.4-.9 3.3-1.4 6.4s-1.2 6.4-1.5 7.5c-.7 2.2 1.5 2.4 12.2 1.3l6-.7-.8-3.1c-2.2-8-5-22.7-5.5-28.6-.6-7.3-2-9.8-3-5.4m-27.3 77.9c-2.8 6.2-5.1 11.5-5.1 11.9 0 1.1 21.8.7 22.5-.4.8-1.3-4.4-11.9-8.9-18.2l-3.3-4.6zM334 383c0 .5.5 1 1.1 1 .5 0 .7-.5.4-1-.3-.6-.8-1-1.1-1-.2 0-.4.4-.4 1"/></svg>