<svg xmlns="http://www.w3.org/2000/svg" width="682.667" height="512" version="1.0" viewBox="0 0 512 384"><path d="M0 192v192h183.2l-.6-2.3c-1.3-4.6-2.5-16.7-3.1-32.8-.6-13.5-.5-17.5.8-22 2.5-8.7 4.8-26.7 4.1-32-.4-2.6-.1-7.8.6-11.4 1.2-6.5 1.2-6.7-1.2-9.3-7.3-8.1-6.4-18.6 3.2-37.1q7.05-13.65 16.5-20.1l4.3-3 .6-11.2c.3-6.2 1-20.5 1.6-31.6l1-20.4-3.6-5.9c-3.4-5.4-3.7-6.6-4.3-16.1l-.6-10.3-9-.8c-9.5-.8-19.5-3.2-19.5-4.6 0-2 16.1-25 19.4-27.8l3.7-3-3.6-6.7c-3-5.4-3.5-6.9-2.5-8.1.7-.8 1.8-1.5 2.5-1.5 1 0 .7-1.7-1.1-6.3-4.9-12.5-6.6-19-5.2-20.4 1.1-1 2.1-.5 5.3 2.5 2.2 2 8.6 7.8 14.1 12.9l10.1 9.2 4.1-1.4c11.7-4.1 70-6.4 79.9-3.3l5.2 1.7 5.4-6.2c10.7-12.1 22.6-23.2 25.1-23.4 2.3-.2 2.4.1 1.9 3.5-.2 2-.9 5-1.4 6.7-.5 1.6-1.4 6.6-1.9 11-.9 6.7-4 19.6-5.7 24.1-.3.7 1.8 1.3 6.4 1.6 6.9.6 35.2 7.1 38.7 9 1.7.9 1.8 1.2.4 2.2-1.2.9-24 8.8-29.7 10.3-1.1.3-1 .7.5 1.7 1.5 1.1 1.6 1.6.6 2.9-1.8 2.1-9 4.5-18.6 6.2-4.4.8-8.2 1.9-8.7 2.6-.8 1.4-.6 3.2 2.1 12.8 1.4 5.2 2.2 12 2.6 22 .3 8.1 1.1 19.8 1.9 26.1.7 6.3 2.2 18 3.1 25.9l1.8 14.3 5.3 7.2c6.1 8.3 10.6 16.3 14.7 26.1 2.9 7 3.1 8.7 2.5 23.5-.1 2.5.2 6.9.6 9.7.8 5.8-.4 7-2.5 2.5-.7-1.5-1.4-2.2-1.7-1.6-.2.6 1.3 5.4 3.3 10.5 4.1 10.7 8.5 23.6 10.9 32.4 4.4 15.5 4.4 15.5 9.1 17.6 2.5 1 4.7 2.6 5.1 3.4.5 1.5-2.9 14.7-4.9 18.7-.4 1-1.2 2.7-1.8 3.8-.5 1.1-1 3-1.1 4.2 0 1.3-.3 1.7-.6 1-.2-.6-.9-1.2-1.4-1.2-.9 0-5.9 9.2-5.9 11 0 .7 24.1 1 75 1h75V0H0z"/><path d="M221.5 304.2c-.3 11.2-.5 26.1-.3 33.3l.3 13 7.8.2c6.2.2 7.7-.1 7.7-1.2 0-.8-1.5-7.5-3.4-14.7-3.3-12.8-6.8-31.4-8.2-44.6-.4-4-1.1-6.2-1.9-6.2-1 0-1.4 5-2 20.2"/></svg>