<svg xmlns="http://www.w3.org/2000/svg" width="682.667" height="512" version="1.0" viewBox="0 0 512 384"><path d="M0 192v192h189l-1.4-2.3c-2.3-3.4-4.6-10.5-4-12.1.3-.8 2.3-2.2 4.5-3 2.1-.9 3.9-2 3.9-2.6 0-.5-1.7-3.6-3.8-6.9-4.5-6.9-6.6-13.6-5.9-18.3 3.2-21 4.5-34.9 3.4-37.7-.9-2.5-.8-4.8.6-11.7 1.8-8.6 1.8-8.7-.3-10.1-3.3-2.3-6-8.7-6-14.2 0-9.1 8.5-28.9 16.2-37.6 2.2-2.5 6-5.7 8.4-7.1s4.4-2.7 4.4-2.7c.1-.1 1.1-14.8 2.4-32.7l2.3-32.5-3.6-7c-3.3-6.6-3.6-7.6-3.6-16.8 0-11.2 1-10.2-11.5-11.2-12.7-1.1-19-3.1-19-6.1 0-2.4 11.8-18.9 17.2-24l5.4-5.2-1.9-2.3c-2.6-3.2-7-12-6.3-12.6.3-.3 2-.9 3.8-1.3 2.1-.4 3.2-1.2 2.9-2.1-.2-.8-1.9-6.8-3.8-13.3-2.8-9.5-3.2-12.1-2.1-12.7.7-.5 1.5-.9 1.8-.9s6.5 6 13.9 13.4l13.4 13.4 4-1.4c6.7-2.4 18.9-3.4 46.7-4 22.2-.5 27.7-.4 34.2 1L313 61l14.1-14.5C337.5 35.9 341.9 32 343.6 32c2.8 0 2.9.8 1 7.1-.8 2.6-1.7 7.1-2.1 10-.8 7-4.4 22.3-6.1 26.5l-1.3 3.2 6.6.7c7.3.8 31 6.5 36.6 8.9 2.1.8 3.7 1.9 3.7 2.4 0 1.1-5.2 3.1-19 7.2-5.8 1.7-11.1 3.3-11.9 3.6-.9.3-.7.9.9 2.2 1.8 1.4 1.9 2 .9 2.8-2.5 1.8-8.8 3.5-19.2 5.3-9.8 1.7-10.2 1.8-10.5 4.5-.2 1.4.4 4.8 1.2 7.4s1.8 6 2 7.7c1.8 10.7 2.6 21.7 2.6 33.8 0 13.7 1.6 46.3 2.5 50.3.2 1.1 1.6 3.3 3 5 5 5.6 8.6 11.4 14.5 23.6 8.8 18.2 9.5 26.6 3.1 35.7-1.7 2.4-1.9 3.8-1.4 9.9.4 4.9.2 7.6-.6 8.6-1.4 1.6-.8 6.4 1.6 13.6.8 2.5 1.7 6.7 2 9.5.3 2.7 1.3 8.6 2.2 13l1.6 8 5 .8c17.9 2.9 18.2 3.1 16.5 11.3-1.3 6.4-3.5 10.8-10.3 21.1-2.6 3.9-4.7 7.4-4.7 7.7s33.3.6 74 .6h74V0H0z"/><path d="M225.6 289.2c-.2.7-.9 5.3-1.6 10.2-.6 4.8-1.7 9.8-2.5 11-1.2 1.9-2.8 9.9-4.2 21.6-.4 3.9-.1 5.1 2.6 8.8 1.8 2.4 3.8 4.5 4.6 4.9 2.3.8 5.7-.5 9.2-3.5l3.2-2.8-2-8.4c-2.2-9.3-6.9-36.3-6.9-39.7 0-2.5-1.8-4.1-2.4-2.1"/></svg>