<svg xmlns="http://www.w3.org/2000/svg" width="682.667" height="512" version="1.0" viewBox="0 0 512 384"><path d="M0 192v192h93c92.5 0 93 0 93-2 0-1.5 1.7-2.9 6.5-5.2 4.3-2.2 6.5-3.8 6.5-5 0-1-1.5-3.8-3.2-6.3-3.8-5.3-3.7-3.6-2.1-34.5 1-20.1.9-21.2-2-22.2-.4-.2.1-5.4 1.1-11.6l1.8-11.4-4.2-4.1c-6.6-6.6-6.8-13.4-1.1-30.2 3.6-10.6 7.6-18.3 11.2-21.9 3.4-3.4 11.3-7.6 14.3-7.6 4.9 0 5.1-.9 6.8-29.3l1.5-26.8-3.3-12.7c-2.7-10.6-3.3-14.5-3.3-23.4v-10.6l-5-.6c-5.1-.6-24.2-1-26-.6-2.5.6-4.5-.1-4.5-1.6 0-2.5 9.8-16.2 16.6-23.2l6.1-6.3-4.4-4.7c-7.3-8-6.9-9.5 2.4-10.7 4.4-.5 5.3-1 4.8-2.3-.6-1.7-5.5-28.9-5.5-30.9 0-3.5 4 0 15.2 13.2 10.1 12 12.7 14.5 14.3 14 7.8-2.4 15.1-3.5 29.5-4.5 23.6-1.4 43.5-1.3 50.1.4 3.4.9 7.7 1.2 11.7.9 5.6-.5 6.6-.9 8.8-3.8 3.8-5.1 20.2-19.7 21.3-19.1.6.4.6 1.8 0 3.9-.5 1.7-1.6 8.8-2.4 15.7s-1.9 14-2.5 15.9c-1.7 6-.6 7.8 5.5 8.5 8.4 1 30.3 7.2 35.4 10l2.4 1.3-2.1 1.2c-2.8 1.5-19.9 6.8-24.9 7.7-4.9.8-7.7 2.3-4.7 2.4 1.2 0 2.7.6 3.3 1.4 1 1.2.8 1.7-.7 2.5-2.5 1.3-19.3 4.1-24.9 4.1-2.3 0-4.5.4-4.8 1-1.4 2.2-1.4 8.2-.1 10.3.8 1.2 2.5 9.4 3.7 18.2 1.9 13.5 2.3 21.1 2.4 48.6l.2 32.6 3.2 5.4c7.7 12.9 10.7 17.9 15.2 25.2 7.6 12.4 8.4 20.9 2.8 28.8l-2.3 3.2 2.9 8.4c2.1 6.3 2.6 8.8 1.8 10.5-.6 1.3-.6 3.5-.2 5.3.5 1.6 2.4 9.4 4.3 17.3s4 15 4.7 15.8c.6.8 2.2 1.4 3.4 1.4 4.2 0 5 2.3 3.1 9.4-1.8 6.4-1.7 8.9 1 25.4l.5 3.2H512V0H0z"/><path d="m234 365.5-2.5 1.4 3.3.1c2.2 0 3.2-.5 3.2-1.5 0-1.8-.8-1.8-4 0"/></svg>