<svg xmlns="http://www.w3.org/2000/svg" width="682.667" height="512" version="1.0" viewBox="0 0 512 384"><path d="M0 192v192h93.4c89 0 93.4-.1 92.9-1.8-.3-1.4 1.2-2.5 6.6-5.2 3.9-1.8 7.1-3.6 7.1-3.8s-1.4-1.5-3-2.9c-1.7-1.4-4.2-4.5-5.7-7-2.4-4.2-2.5-4.9-1.9-14.1.4-5.3 1.4-16.2 2.2-24.1 1.5-14.2 1.5-14.4-.6-15.8-2.4-1.7-2.3-2.6.8-16l1.9-8.2-2.4-2.3c-8-7.5-7.2-20.2 2.9-41.8 5.8-12.6 10-16.2 22.9-19.5 3.5-.9 6.8-2 7.2-2.4.4-.5 1.2-12 1.7-25.8.7-20.1.6-25.8-.5-28.9-1.4-4.2-5-21.2-6-28.4-.4-2.5-.2-7.1.3-10.3s.6-5.9.3-6.1c-1.4-.9-27.9-1-31.8-.2-3.8.8-4.3.7-4.3-1 0-2.5 10.2-17.4 16.6-24.3l5.2-5.6-4.9-5.2c-2.7-2.8-4.9-5.6-4.9-6.2 0-.9 2.3-1.7 10.4-3.5 2.5-.6 2.8-1 2.2-3.4-5.3-24.6-6.4-32.2-4.5-32.2 1.3 0 15.3 15 23.6 25.3 2.3 2.8 4.1 4.3 4.8 3.7 2.4-2 12.9-4 25.5-5 17.7-1.3 50.4-1.2 55.5.1 4 1.1 4.7 1.1 12 .5 3.6-.3 5.2-1.5 15.3-11.6 11.6-11.5 14.2-12.8 12.2-6-1 3.5-3.3 26.3-3.4 33.2 0 2.1.3 4 .6 4.4.4.3 4.4 1.3 9 2 8.9 1.6 30.7 8 32.3 9.5.6.7.5 1.3-.5 1.9-1.8 1.1-15.3 5.3-24.4 7.6l-6.8 1.7 3.1 1.3c1.7.7 3.1 1.5 3.1 1.8 0 1.9-16 5.6-24.5 5.6-7.6 0-8.5.7-8.5 5.9 0 2.6.5 5.2 1.1 5.8s1.4 3.9 1.9 7.4 1.3 9.8 1.9 13.9c2 13.9 3.1 35.4 3.1 58.3 0 26-.4 24.6 10.6 41.5 12.6 19.4 14.6 27.7 8.9 36.4l-2.8 4.2 2.7 8.1c2 6 2.5 8.7 1.8 10.5-.7 1.9.2 6.9 3.3 19.7 2.4 9.4 4.6 17.6 5 18.2.3.6 2.2 1.8 4.1 2.6 3.8 1.6 4.3 4.1 2.1 10.5-1 2.7-1 5.1 0 11 .6 4.1 1.2 9.4 1.2 11.7l.1 4.3h134V0H0z"/><path d="M233.8 363.5c-4.7 2.5-4.8 3.5-.3 3.5 3.5 0 5-1.5 4.3-4.2-.2-1-1.2-.9-4 .7"/></svg>