<svg xmlns="http://www.w3.org/2000/svg" width="682.667" height="512" version="1.0" viewBox="0 0 512 384"><path d="M0 192v192h93.6c92.9 0 93.5 0 92.9-2-.5-1.7.4-2.5 5.8-5.1l6.4-3-5.2-5.3c-5.9-5.8-9.2-13.7-7.6-17.9.8-2.1 2.4-14.6 4-31.7.7-7.5.6-8.7-1-10.5-1.8-2-1.8-2.4 1-13.3l2.8-11.1-2.9-2.8c-7.4-7.1-5.7-20.2 5.5-41.7 6.4-12.3 9-14.3 25.2-19.3l6-1.8.7-6c1.2-11.2 1.2-44.9-.1-47.3-.6-1.2-2.3-7.9-3.7-14.9-2-9.8-2.5-14.8-2.2-21.5.3-7.3.2-8.9-1.1-9.2-3.1-.9-25.7-1-30.3-.2-4.1.7-4.8.6-4.8-.7 0-2.3 11.1-18.5 16.9-24.7l5-5.4-5.1-5.4c-5.8-6.1-5.6-6.8 2.3-8.6 6.4-1.4 6.2-.2 2.5-17.9-2.7-13.3-3.2-18.7-1.7-18.7.4 0 3.2 2.6 6.1 5.7 2.8 3.2 7.8 8.5 10.9 11.8s6.9 7.5 8.4 9.4c2.1 2.5 3.1 3 4 2.2C236.9 65 247.8 63 262 62c18.7-1.3 46.2-1.2 52 .1 4.6 1.1 5.3 1.1 12.6.5 3.8-.3 5.1-1.2 15-11.5 10.8-11 14.3-13.4 13-8.9-1.2 4.5-2.5 15.5-3.1 28l-.7 12.7 2.3.5c1.3.2 5.5 1 9.3 1.6 8.7 1.6 28.4 7.4 29.9 8.9.6.6.8 1.4.4 1.7-.9.9-16.9 6.1-24.9 8l-7 1.7 3.2 1.4c6.5 2.7-.4 5.4-18.9 7.3-5.7.5-9.8 1.4-10.2 2.2-1.4 2.1-1 6.7.7 9.3.9 1.3 1.9 6.2 2.4 11.2.5 4.8 1.4 12.1 1.9 16.1 1.5 10.1 3.1 41.3 3.1 61 0 16.1 0 16.3 3 22.2 1.6 3.2 5 9 7.4 12.7 10.2 16 12.7 25.2 8.7 33-1.1 2.3-2.5 4.4-3 4.8-.6.3.1 3.6 1.5 7.8 1.8 5.2 2.4 8.4 2 11.5-.6 4.2.3 8.6 5.6 29.8 2.4 9.7 2.5 9.8 6.3 11.1 2.9.9 3 1.2 2.7 6.4-.6 12.2-.6 14.8.2 22.6l.9 8.3H512V0H0z"/><path d="M238.3 359.7c-2.9 2.9-3 6.3-.3 6.3 2.4 0 3.3-1.7 2.8-5.7l-.3-2.8z"/></svg>