<svg xmlns="http://www.w3.org/2000/svg" width="682.667" height="512" version="1.0" viewBox="0 0 512 384"><path d="M0 192v192h184.1l-.3-2.2c-.3-2 .9-2.9 7.5-6.1 7.4-3.7 22.8-8 33-9.2 3.5-.5 4.7-1 4.7-2.3 0-1.6-3.1-16.3-3.6-17-.1-.2-10.1 2.4-22.1 5.7-27 7.5-32.4 8.2-37.3 4.9-2.1-1.3-4.6-4.5-6.2-7.7-5-9.9-3.5-19.8 6.7-43 3.2-7.2 3.5-8.6 2.6-11.3-.6-1.7-1.1-3.4-1.1-3.7 0-.4 2.5-4.5 5.5-9.1 3.5-5.1 5.3-8.9 5-9.9-1.6-4-1.6-10.8 0-15.1 2.2-6.1 11-17.3 21-26.9 9.3-8.7 14.2-11.5 23.1-13.2 3.2-.7 6.4-1.7 7.1-2.3.7-.7 1.6-9.6 2.4-25.1 1.1-21.5 1.1-24.9-.4-32.5-.9-4.7-1.9-13.2-2.1-18.9-.4-9.4 0-12.6 1.9-17.2.5-1.4-.9-1.9-9.2-3.3-13.2-2.3-18.2-3.5-22-5.3-2.6-1.2-3.9-1.3-6.4-.4-11 3.8-9.2-.7 6.4-16.3l13.2-13.4-7.8-7.2c-4.7-4.4-7.7-7.9-7.5-8.9.3-1.3 2.2-1.8 9.8-2.4 5.2-.4 9.6-.9 9.8-1.1s-.2-7-.8-15c-1.2-15.3-1-17.6 1.3-17.6 1.4 0 10.2 10.6 20.5 24.7l5.3 7.2 3.7-1.7c7.4-3.3 66.7-2.7 79.3.8 2 .6 4.8 2.2 6.2 3.6l2.6 2.6 4.8-2.3c3.8-1.8 6.2-4.1 11.6-11.3 8.5-11.4 12.5-16.1 13.2-15.5.2.3-.2 3.7-.9 7.5-.8 3.8-1.7 10.7-2.1 15.4-.6 8.2-.6 8.6 1.9 10.9 1.6 1.5 2.8 4 3.1 6.6.4 2.3 1 4.6 1.3 5.2.4.6 7.1 3.2 15 5.8 9.1 2.9 14.2 5.1 14.2 6 0 1.5-11.8 6.3-22.6 9.3l-6.7 1.8 3.1 1.3c1.7.7 3.8 2.2 4.8 3.2 1.7 1.9 1.7 2.1-.3 4-2.3 2.4-6.3 3.4-21.3 5.4-6.1.8-11.4 1.7-11.9 2s-.2 1.9.6 3.6c1.3 2.6 1.3 4.2.3 10.8-.9 5.6-1 18.8-.6 47l.5 39.2 3.6 4.4c2.3 2.7 6.4 10.9 10.7 21.2 6 14.1 7.2 17.9 7.6 23.9.5 7.6-1.3 12.8-5.8 16.9-1.9 1.8-2.1 2.5-1.5 9.1.5 5.4.3 7.8-.8 9.9-1.5 2.9-1.3 4 2.8 21.5.5 2 .2 1.8-1.5-1l-2.1-3.5.5 6.4c.8 9.2 2.2 11.4 7.6 12.3 11.8 1.9 11 1.5 11 5.8 0 5.1-2.9 12.8-7.4 19.3-3 4.6-3.4 5.7-2.8 9.2l.7 4 72.8.3 72.7.2V0H0z"/><path d="M221.2 294.2c-.5.7-2.3 4.7-3.9 8.8l-2.9 7.6 5.3-1c4.7-.8 5.3-1.2 5.4-3.5.7-12.9.7-13.1-1.1-13.1-1 0-2.2.6-2.8 1.2m22.9 62.5c-.1 5.6.3 9.3.9 9.3 1.2 0 1.2-7.6.1-14-.7-3.9-.9-3.2-1 4.7"/></svg>