<svg xmlns="http://www.w3.org/2000/svg" width="682.667" height="512" version="1.0" viewBox="0 0 512 384"><path d="M0 192v192h182l-.5-2.3c-.6-2.1.2-2.7 8.3-6.5 8.8-4.1 23-8.2 28.4-8.2 1.5 0 2.9-.3 3.1-.8.7-1-.8-25-1.5-25.7-.3-.4-5.5.7-11.5 2.4-24.9 6.9-35.2 9.3-41.9 9.8-6.8.5-7.2.5-10.5-2.5-4.7-4.1-6.6-9.2-6.8-18.8-.2-7.6 0-8.2 4.8-17.9 2.7-5.5 6.3-12.3 8-15.1 2-3.5 2.7-5.5 2-6.5-1.8-2.9-.8-5.7 5-13.2l5.9-7.7-.5-5.8c-1-10.5 4.3-18.5 21.5-32.8 13-10.8 16.6-12.9 26.2-15l7-1.6.1-26.7c0-14.6.2-28.6.4-31.1.7-9.2.6-11.8-.1-23-.6-10-.5-11.7 1-12.9 2.6-2.2 1.9-2.8-4.6-4-12.4-2.4-19.1-4.2-23-6.2-3.3-1.7-5-1.9-10.4-1.4-5.9.7-6.4.6-6.4-1.3 0-2 16.2-17.4 25.1-23.9 2.7-1.9 4.9-3.6 4.9-3.8s-1.9-1.4-4.3-2.8c-5.7-3.4-17-14.3-16.5-15.9.3-.9 3.1-1.4 8.9-1.6 4.6-.1 10.3-.5 12.5-.7 4.1-.6 4.2-.7 4.8-5.2.3-2.5.6-7.8.6-11.8 0-17.4 2.2-17.8 12.3-2.3 4.1 6.2 8.4 13 9.7 15.1 1.9 3.2 2.6 3.7 4.4 3.1 3.7-1.3 42.6-1.6 56.1-.5 22.5 2 28.6 3.7 32.6 9l2.1 2.9 4-2.6c2.5-1.7 7.3-7.3 13.1-15.6 9-12.7 11.1-14.1 8.7-5.9-.6 2.1-1.3 8.6-1.7 14.4l-.6 10.5 3.6 2.2c2.8 1.6 3.7 2.9 4.2 5.9 1.4 8.3 1.5 8.3 11 11.8 14.9 5.4 14.9 5.4 13.6 6.9-1.4 1.7-14.6 7-22.1 8.9-4.9 1.3-5.2 1.5-3 2.2 3.9 1.2 9 5.6 9 7.7 0 2.8-7.2 5.8-14.2 5.8-3.1 0-5.9.4-6.2.9-.3.4-3.6 1.1-7.4 1.5l-6.9.7.5 7.7c.3 6.2-.2 9.8-2.3 18.2-2.7 10.2-2.8 11.5-3 39.4l-.2 29 5.3 5.3c6.4 6.3 8 9.3 14.6 27.1 7.6 20.6 7.5 30.2-.2 37.8-2.7 2.7-2.9 3.5-3 10.2 0 5.1-.5 8.3-1.7 10.2-1.4 2.5-1.5 3.6-.5 8 .7 2.8 1.2 5.9 1.2 6.8 0 1.5-.2 1.5-1 .2-1.5-2.3-1.1 10.8.4 15 1.3 3.4 1.4 3.5 9.5 4.7 11.7 1.6 11.4 1.5 10.6 7.1-.8 6-4.3 13.7-9.4 20.9-2.3 3.1-4.1 6.7-4.1 8v2.3h151V0H0z"/><path d="M218.3 293.1c-2 .6-3.5 1.9-4.2 3.7-.6 1.5-1.5 3.6-2 4.8-.9 2-.7 2 4.4 1.1 5.7-1.1 6.5-2 6.5-8 0-2.9 0-2.9-4.7-1.6m21.4 52.9c-.4 1.9-.9 7.2-1.2 11.7l-.6 8.3h6l-.6-6.8c-.3-3.7-1.1-9-1.8-11.7l-1.3-5z"/></svg>