<svg xmlns="http://www.w3.org/2000/svg" width="682.667" height="512" version="1.0" viewBox="0 0 512 384"><path d="M0 192v192h179l-.5-2.3c-.5-2 .1-2.7 4.2-4.9q10.35-5.55 25.8-8.7l9-1.8.6-19.4c.4-10.7.5-19.5.4-19.7-.4-.4-1-.2-24.5 6.8-22.1 6.6-35.6 10-39.7 10-7.5 0-11.6-4.8-14-16.6-2.1-10.2-1.2-16.6 2.8-20.6 1.5-1.6 4.7-5.7 7.1-9.1 2.3-3.4 4.9-7 5.7-8 .9-1.1 1.6-3.9 1.6-6.3.1-4.1.6-5 6.3-10.7 5.9-6 6.2-6.5 6.2-11.2 0-11.1 8.3-21.4 26.4-33.3 10.7-7 18-10.5 23.7-11.6l3.6-.6.6-25.8c.4-14.1 1.3-29.8 1.9-34.7.7-5 1.1-14 1-20.1-.2-9.9 0-11.3 1.8-13.7 2.6-3.3 2-4.5-2.8-5.2-8.5-1.4-17-3.7-22-6.1-5.1-2.5-5.6-2.5-11.8-1.4-8.8 1.7-10.1.4-4.8-4.7 7.4-7.2 18.4-16.6 23.5-20.1 2.8-1.8 4.7-3.7 4.3-4.1-.5-.4-3.8-2.8-7.4-5.3-8.6-6-17.5-14.7-16.4-15.8.5-.5 8.1-1.1 16.9-1.2l15.9-.3.7-3.5c.3-1.9 1.2-7.3 1.9-12 1.4-9.6 2.5-12.3 4.7-11.8.8.2 4.8 6.6 8.8 14.3 5.7 10.8 7.8 13.9 9.2 13.7 12.1-1.8 45.7-.6 66.8 2.4 13.9 2 18.9 4.1 21.2 8.8l1.6 3.5L343 70c2.1-1.6 7.7-8.9 12.5-16.1s8.9-12.8 9.2-12.6c.2.3-.1 2.2-.7 4.4-.6 2.1-1.4 8.8-1.7 15l-.6 11.1 2.9 1.5c4.6 2.4 6.2 4.8 7.1 11l.8 5.9 8.5 3.5c12.3 5 12.7 5.7 5.4 8.9-3.2 1.5-9 3.7-12.9 4.9l-7 2.2 3 1.6c1.7.9 3.9 2 5 2.5 1.2.6 2.7 1.7 3.4 2.6 1.2 1.4 1.1 1.9-.4 3.6-2.1 2.3-8.9 4.4-11.8 3.6-1.1-.3-2.9 0-4 .6-1.2.6-5.5 1.3-9.6 1.7l-7.6.6.3 7c.4 7.9-1.3 15.7-5.4 26-2.8 7-2.8 7.1-3.1 33.3l-.4 26.3 5.5 5c7.7 7 10.7 12.4 16.5 29.6 7.3 21.6 7 27.4-1.5 38-3 3.6-3.4 4.9-3.4 9.8 0 3.1-.6 6.9-1.4 8.4s-2 7.6-2.6 13.4c-1 9.3-1 11.3.5 15.7.9 2.7 2.1 5.2 2.5 5.5.5.3 4.5 1 8.9 1.5 11.3 1.3 12 1.8 11 7.8-1 6.7-2.9 10.8-8.8 19.6-2.9 4.2-5.4 8.3-5.7 9.1-.5 1.3 8.5 1.5 77 1.5H512V0H0z"/><path d="M236.4 358.4c-.8 5.5-.8 6.9.3 7.3 2.2.9 2.4 0 1.5-7.3l-.7-6.9z"/></svg>