<svg xmlns="http://www.w3.org/2000/svg" width="682.667" height="512" version="1.0" viewBox="0 0 512 384"><path d="M0 192v192h86.5c75.6 0 86.5-.2 86.5-1.5 0-3.6 25.1-13.1 39.8-15l5.2-.7v-7.1c0-7.2 1.4-29.2 2.6-40l.6-5.8-3.8.5c-3.4.4-9.8 2.3-14.4 4.3-.8.3-2.6.8-4 1-1.3.2-2.9.8-3.5 1.2-.5.5-2.1 1.2-3.5 1.6s-6.1 1.9-10.5 3.5c-13.6 4.7-14.8 5.1-23.8 7.6-13.2 3.6-14.8 3.4-21.1-2.8-4.3-4.4-5.5-6.5-7-11.8-2.4-8.4-3.1-16.8-1.7-20.3.6-1.5 2.5-3.6 4.3-4.5s6.3-4.7 9.9-8.3c5.2-5.2 6.7-7.5 7.2-10.6.7-4 3.4-7.2 10.9-12.7 3.2-2.4 3.8-3.4 4.4-8.4.8-6.7 4.8-13.6 10.7-18.8 6.5-5.6 30.9-17.2 39-18.6l6.7-1.1v-18.6c.1-22.2.5-29.9 2.6-45.1.9-6.3 1.5-15.8 1.4-21.1-.1-8.4.2-9.8 2.1-12.3 1.2-1.5 1.8-3.1 1.3-3.5-.5-.5-4.3-1.6-8.4-2.6s-10.5-2.9-14.2-4.2c-6.2-2.2-7.2-2.3-13.3-1.2-5.2 1-6.8 1-7.8 0s.4-2.8 6.9-8.9c4.5-4.3 11.8-10.4 16.2-13.7l7.9-5.9-7.6-5.3c-8.4-5.7-17.1-13.4-17.1-15 0-1.2 28.3-2.8 32.1-1.8 2.5.6 2.6.5 4.9-10.7 2.5-12.1 4.3-17.8 5.8-17.8 1.7 0 3.3 2.7 9.9 16.1l6.4 13.2 4.5-.7c3.8-.5 22.3.5 33.4 1.9 1.9.2 6.9.7 11 1 11.7 1 27.2 3.6 31 5.1 4.2 1.8 7 4.2 8.1 7.1l.8 2.2 4-2.6c2.7-1.7 5.9-5.7 10-12.2 6.6-10.4 11.7-17 10.6-13.6-.9 3-3.5 20.5-3.5 24.2 0 2.8.6 3.6 3.8 5.2 5.4 2.8 6.3 4.2 7.2 11.6.5 3.7 1 6.8 1.2 6.9.1.2 3.6 1.6 7.6 3.1 8.9 3.5 9.9 4.5 6.9 7.2-2.4 2.1-15.6 8.3-17.7 8.3-1.8 0-.4 1.3 4 3.8 2.9 1.6 3.5 2.4 3.3 5.1 0 1.8-.4 3.5-.7 3.8-1.3 1.3-9.9 2.2-20.8 2.3H343v7.8c0 8.5-1.6 16-5.5 25.2-2.5 5.8-2.5 6.4-2.5 33v27l5.6 6c7.8 8.2 9 10.4 14.5 27 4.2 12.2 4.9 15.6 4.9 22 0 6.7-.4 8.2-2.8 12.1-1.6 2.4-3.9 5.3-5.1 6.3-1.8 1.6-2 2.6-1.5 6.5.4 3.3 0 6-1.4 9.6-4.1 10.5-3.7 32.1.7 34.4.9.5 4.5 1.1 7.9 1.5 8.3.9 11.2 2.1 11.2 4.5 0 4.7-4.4 15.5-9.5 23.1-3 4.5-5.5 8.9-5.5 9.6 0 1.2 12.8 1.4 79 1.4h79V0H0z"/></svg>