<svg xmlns="http://www.w3.org/2000/svg" width="682.667" height="512" version="1.0" viewBox="0 0 512 384"><path d="M0 192v192h151.8l-2-4.2c-3-6.2-2.9-9.9.4-11.5 4.9-2.4 21.2-5.4 33.1-6 6.4-.3 11.7-.9 11.7-1.3s-.7-2.1-1.5-3.6c-.8-1.6-1.5-5.1-1.5-7.7 0-2.7-.6-7.2-1.4-10-.8-2.9-1.7-7.8-2.1-10.9-.3-3.2-1-6-1.4-6.2-.4-.3-1.5 3.4-2.6 8.2-1.8 8.5-4.8 15.2-6.6 15.2-.5 0-.9.8-.9 1.7s-.3 1.4-.6 1.1c-1.3-1.4 4-57.7 7.1-74.8.7-4.1 1.3-7.6 1.1-7.7-.1-.1-4 2.5-8.6 5.7-4.7 3.3-9.1 6-9.8 6s-2 .6-2.8 1.4c-2.3 2.4-9.5 3-13.8 1.2-2.1-.9-4.4-1.6-5.2-1.6-.7 0-5.4 2.5-10.4 5.6-9.6 5.8-10.1 5.9-13.7 1.6-1.3-1.6-.8-1.8-18.2 5.8-13.3 5.8-23.3 8.9-31 9.6-5.9.5-7.2.3-12.1-2.3-7.9-4-10.3-8.9-13.6-27.9-4.3-25.2-6.6-44.4-6.7-56.4-.1-10.5.2-12.2 3-20 1.7-4.7 4.3-14.1 5.8-21 2.4-11.1 4.2-16.6 7.6-23.5.5-1.1 4.9-6.1 9.7-11.1l8.7-9.1 12.8-2.3c13.3-2.4 17.2-2.3 23.1.5 3.7 1.8 4.6 4.1 2.4 6.3-.9.9-.9 1.2 0 1.2.6 0 2.5 2.6 4.1 5.9 3.7 7.1 2.8 9.1-4 9.8-7.9.8-17.8 4.2-22.8 7.9-.2.2-.9 5.3-1.7 11.5-1.4 11.6-1.9 12.7-7.8 19.4-3.9 4.3-4.1 4.8-2.7 7.3 1.2 2.3 3.6 16.6 6.6 39.6 1.3 10.4 2.6 19 2.8 19.3.3.2 3.9-1.5 8.1-3.8 5.3-2.8 7.6-4.6 7.6-5.9 0-2.5 2.4-4.1 13.1-8.5 7.4-3.1 9-4.2 9.6-6.4 2.2-9.2 5.6-10.9 24.2-12.1 7.5-.5 16.5-1.5 20.1-2.4 3.6-.8 8.2-1.8 10.2-2.1 3.1-.5 3.9-1.1 4.4-3.3.3-1.5.8-3.3 1-4.1.2-.7-3.1-5.2-7.4-10-8.2-9.1-22.9-28.4-25.5-33.7-4.1-8-4.7-11.4-3.2-17.7.8-3.4 2.6-7.5 4.3-9.6 2.8-3.6 13.3-11.4 20.5-15.2 4.2-2.2 4.5-4.3.6-4.5-4.8-.2-11-4.3-12.6-8.4-1.3-3.1-2.2-3.9-4.9-4.5-1.9-.3-3.4-1-3.4-1.6 0-1.6 4-8.9 4.9-8.9.4 0 2.4-1.1 4.4-2.4 1.9-1.3 7.1-4.3 11.4-6.6s8.1-4.5 8.6-4.9c.4-.4-.2-3.4-1.4-6.7-4.5-12.6-4.9-15.4-3.1-18.3.9-1.4 1.7-2.7 1.7-2.8.1-.2 2 .6 4.3 1.7 2.2 1.1 4.7 2 5.4 2s3.1 1.1 5.3 2.5c5.1 3.1 6.3 3.1 7.5-.3.6-1.5 1.5-3.6 2-4.7s1.8-4.3 2.8-7c1.4-4.1 2.2-5 4.2-5.2 1.4 0 3.7-.4 5.1-.7 2.6-.6 2.7-.4 3.8 5.7.6 3.5 1.1 7.8 1.1 9.6v3.2l6.3-.8c11.3-1.5 33.1-.6 44.9 1.7 10.5 2.1 11 2.1 12.9.4 3.4-3.1 10.5-1.8 23.4 4.2 3.7 1.7 7.6 2.4 15 2.9 8 .5 10.6 1 13.2 2.8l3.2 2.1-4.2 3.6c-6.4 5.4-11.1 10.2-12.9 13.1-1.6 2.5-1.6 2.5 3.4 4.9 2.8 1.3 5.6 2.9 6.2 3.4.6.6 4.3 3.7 8.1 6.8 11.7 9.5 13.1 11.1 13.9 15l.7 3.6-9.1-3.4c-10.3-3.9-11.3-4-13.1-1.8-1.6 2-4.9 3.3-10.9 4.4-2.5.5-7.6 1.6-11.4 2.5l-6.8 1.7.7 5.4c.3 3 .2 7.8-.4 10.6-1.4 7-1.7 13.2-.7 19.3 6.4 42.5 10.9 66.3 12.8 68.9 3.2 4.5 13.2 21.6 16 27.6 5 10.6 4.5 20.4-1.3 26.6l-2 2.2 2.1 7.2c1.3 4.4 1.9 8.2 1.5 10.1-.4 1.8.5 8.2 2.3 16.7 1.7 7.5 3.3 15.3 3.6 17.2s1.2 4.7 2 6.2 1.7 4 2.1 5.6c.3 1.7 1.4 3.7 2.3 4.6 1.3 1.1 1.7 2.9 1.6 6.1-.2 4.2.3 6.8 3.7 19.7l1 3.8H512V0H0z"/><path d="M186.8 138c-2.6 1.6-7.8 10.7-7.8 13.8 0 6 1.9 9.7 11 21.5 1.2 1.5 2.5 2.5 3 2.2.4-.3 1.5-2.6 2.4-5.1 1.4-4.2 1.4-5.3.2-10.3-.8-3.1-1.7-7.9-2.1-10.6-.6-5-3.3-12.5-4.4-12.5-.3 0-1.3.5-2.3 1m119.7 202c.2 3 .5 6.7.5 8.2 0 2.2.5 2.8 2.1 2.8 1.9 0 2-.4 1.4-3.6-.3-2-1.5-5.8-2.6-8.3l-2-4.6z"/></svg>