<svg xmlns="http://www.w3.org/2000/svg" width="682.667" height="512" version="1.0" viewBox="0 0 512 384"><path d="M0 192v192h154.9l-2.5-5.5c-1.4-3.1-2.4-6.2-2.1-6.9.6-1.5 11.9-5.2 21.4-7 7.7-1.4 8.5-2.5 7.2-10.6-.9-5.5-.5-32.1.5-37 .5-2.2-1.5.8-5.5 8.3-5.4 10.5-8 13.9-9.4 12.5-.5-.4 2.6-10.7 4.3-14.8.9-1.9 13.1-37.6 17.7-51.5.6-1.9.6-1.9-.8-.2-1.5 1.8-1.6 1.8-1.9-.3s-.5-2-4.8 1.4c-2.5 2-5.3 3.6-6.3 3.6s-1.6.4-1.3.9c.4.5-1.4 1.7-3.8 2.6-4.3 1.7-8.2 1.6-14.8 0-2.1-.6-3.7 0-7.5 2.6-2.6 1.9-6.7 4.6-9 6.1l-4.2 2.7-3.1-2.6-3.1-2.6-9.7 5.1c-17.8 9.2-26.7 12.4-36.4 13-13.6.8-19.4-2.1-23.8-12-4.4-10-15.3-57.7-19-83.3-.7-4.4-1.7-8.9-2.2-10-.6-1.1-7-8.1-14.4-15.6-8.3-8.4-13.6-14.7-14-16.5-.9-3.6 1.1-15.7 3.5-20.9 1.1-2.2 2.2-5 2.6-6.3.3-1.2 1.7-3.5 3.1-5.1 1.3-1.6 3.1-4.5 3.9-6.4 3.4-8.1 15.8-13.7 18.3-8.3.8 1.7 2.5 2.9 5.9 3.8 5.8 1.7 7 4.3 2.5 5.9-1.8.6-2.9 1.7-2.8 2.6.1 2.1-3.9 4.3-8 4.3-1.7 0-3.7.7-4.4 1.5-1.1 1.3-.8 1.9 1.4 4 1.5 1.4 3.7 2.5 5 2.5 5.8 0 16.5 10.3 24.7 23.8 2.6 4.3 3.3 6.8 4.1 14.4.5 5 1.3 9.8 1.7 10.7 1.1 2 9 25.6 17.1 50.9 4.4 13.8 6.5 19 7.3 18.5 10.9-7 15.7-10.8 15.7-12.7 0-1.6 1.6-3 6-5.5l6.1-3.3-5.3-5.4c-6-6.2-8.4-10.2-9.3-15.8-.4-2.1-1.9-6-3.4-8.5s-3-5.4-3.4-6.4c-.8-2.1 2.2-8.5 5.6-11.9 1.2-1.3 5.1-5.8 8.7-10.1 7-8.6 16.1-16.3 40.7-34.1 15.7-11.5 16.1-11.9 14.4-13.7-1-1.1-2.4-3.2-3.2-4.7-.7-1.5-2.6-4.3-4.1-6.2-4.1-5.4-4.2-9.6-.3-8.6 3.2.8 3.2-.7 0-3.1l-2.5-1.8 2.2-3.4c2.1-3.3 15.8-13.1 18.3-13.1.6 0 2-.9 3-2 1.8-2 1.7-2.4-2.9-16.1-2.6-7.8-4.5-14.2-4.4-14.3.2-.1 1.9-1 3.9-2.1l3.7-1.8 7.3 7.7c4 4.2 7.9 8.6 8.7 9.7 1.4 2.1 1.5 2 5.1-1.4 5.3-5 9.1-7.4 14.1-8.7 2.5-.7 5-1.5 5.5-2 3.2-2.5 31.9-4 38.5-2.1 2 .6 3.3.1 6.9-3.2 4-3.7 4.6-3.9 8.8-3.3 2.5.3 6.1.6 7.9.6 2 0 4.4.9 6.1 2.4 2.3 1.9 3.3 2.2 5.3 1.4 1.4-.6 6.8-2.3 12-3.8l9.5-2.8 1.7 2.1c1.7 1.9 1.7 2.1-.4 5.6-4.2 6.8-12 17.6-15.4 21.1l-3.4 3.5h10.3c12.1 0 18.7.8 30.5 3.6 11.7 2.7 11.9 2.8 10.4 3.8-.7.4-1 1.4-.7 2.3.7 1.9-2.6 2.5-17.2 3.5-10.6.6-11.5 1.1-8.8 4.7 3.4 4.5.7 13-4.6 14.1-2.2.5-2.9 1.1-2.5 2.2.9 2.3-.9 4-9.2 8.5l-7.4 4.1.5 4.1c.8 6.5 1.7 12.7 2.8 18.5 1.4 8.1 1.1 19.1-.8 33.1-1 6.9-1.7 16.1-1.6 20.5l.1 8 3.8 3c7.8 6 13.2 12.4 19.7 23.2 9 15 11.5 20.5 12.3 28 .6 6.1.5 6.6-2.9 11.8l-3.6 5.4 2 5.8c1.5 4.1 1.9 7.2 1.5 10.6-.5 4.5.3 9.4 4.6 28.2 1.6 7.3 7.6 21.8 9.4 22.8 1.1.6 1.4 1.7.9 3.5-.4 1.7.4 7.3 2.1 14.4l2.9 11.8H512V0H0z"/><path d="M186.4 152.1c-1 1.2-14 12.5-28.7 25.2l-26.8 22.9 4 3.7c2.2 2 9.2 6.2 15.6 9.4 9.6 4.9 12.3 5.8 15.3 5.4 3.7-.4 17.9-2.4 23.8-3.3 2.8-.4 3.5-1.2 5.5-6.2 1.2-3.1 4-9.4 6.1-14s3.8-8.9 3.8-9.5c0-.7-1.4-4.6-3.1-8.6-1.7-4.1-4-10.6-5-14.4-2-6.9-5.3-12.7-7.4-12.7-.7 0-2 1-3.1 2.1M35 156.4c0 1.7 4.6 6.6 6.2 6.6 1.3 0-.6-3.1-3.6-5.9-2.2-2.1-2.6-2.2-2.6-.7m167.7 9.9c-.3.8.2 3.9 1.1 6.8l1.7 5.4.3-4.2c.3-4.6-2-10.8-3.1-8m107.4 181.9c-.1 2.1.3 3.8.8 3.8q2.55 0 .6-4.5l-1.3-3z"/></svg>