<svg xmlns="http://www.w3.org/2000/svg" width="682.667" height="512" version="1.0" viewBox="0 0 512 384"><path d="M0 192v192h76.6c72.6 0 76.6-.1 75.9-1.8-.4-.9-.9-3.1-1.2-4.8-.5-2.9-.3-3.2 5-5.3 3-1.2 8.7-3.1 12.7-4.1 3.9-1 7.3-2 7.5-2.2.7-.8 3.4-25.6 3.5-31.3v-3l-2.2 3.7c-2.2 3.8-6.6 6.3-5.3 3 .4-.9 1.3-4 2.1-6.7.7-2.8 2.2-7.9 3.3-11.4s1.6-6 1.2-5.5-3.2 4-6.1 7.9c-2.9 3.8-5.5 7.2-5.7 7.4-.1.2-.5.2-.8-.1s1.8-5.4 4.6-11.4c11.1-23.6 23.9-52.6 23.9-54 0-1.6-1.6-1.9-2.5-.3-.4.6-1.3.8-2 .5-.7-.2-2.3.7-3.6 2.1-3.6 3.8-11.5 9.3-13.3 9.3-1 0-1.4.4-1.1 1 .8 1.3-6 4-10.5 4-2 0-5.1-.5-6.8-1.1-2.8-1-3.6-.6-11.9 5-4.8 3.4-9.3 6.1-9.9 6.1s-2.3-.9-3.8-2.1l-2.7-2.1-14.7 7.5C95.5 302.8 86 306 77.1 306c-10 0-16.4-4.5-20.5-14.3-1.9-4.8-9.6-31.7-13-46.2-1.5-6.1-3.3-13.7-4.1-17s-1.7-7.8-2-10c-2.2-16.4-3.6-18.6-19.9-32.9C8.1 177.3 3 170.7 3 166.5c0-5.2 2.9-17.7 4.5-19.5.8-.9 1.5-2.6 1.5-3.7s1.4-3.8 3.1-5.9c1.7-2.2 3.7-5.3 4.4-6.9 1.7-4.1 8.5-10.4 11.5-10.7 1.8-.2 2.8.4 3.8 2.4 1 2.1 2 2.8 4.1 2.8 1.6 0 3.9.9 5.2 2l2.4 2-2.7 2.4c-1.6 1.4-2.8 2.9-2.8 3.4 0 1.9-3.8 4.2-7.2 4.2-2.1 0-4.1.7-5.1 1.8-1.5 1.6-1.4 1.9 1.7 4.4 2.3 1.8 4 2.4 5.8 2.1 4.5-.9 11.7 4 19.4 13 9.6 11.2 10.2 12.3 11.9 22.4.8 4.8 3.8 15 6.5 22.5 2.8 7.6 5 14.2 5 14.8 0 3 7.1-.6 17.5-9 18.4-14.8 34-27.5 34.5-28 .3-.3 3.9-3.4 8-7 18.7-16.1 38.6-36.1 39.2-39.4.4-2-.2-2.7-3.5-4.2-9.6-4.4-17.8-16.4-11.2-16.4 3.2 0 3.2-.9-.2-3.6l-2.8-2.3 6-5.8c3.3-3.2 8.5-7.1 11.6-8.6l5.7-2.8-5.3-9.2c-6.4-10.9-7.3-13.8-5-15.7 1.5-1.2 2.4-1 6.8 1.5 2.9 1.5 8.4 5 12.4 7.6l7.1 4.8 3.4-4.3c6.8-8.8 14.5-13 29.8-16.2 7.7-1.6 25-1.8 30-.4 3.2.9 3.7.7 7.5-3l4.1-4 7.8.4c4.5.3 8.8 1.1 10 2 2.1 1.3 2.8 1.1 9.9-2.9 9.5-5.4 10.9-5.8 13.1-4.2 1.6 1.2 1.6 1.8-1.5 11.2-3.5 11.1-5.9 16.3-9.7 21.4l-2.5 3.4 2.4-.6c9.8-2.4 17.4-2.9 32.3-2.3 8.9.4 16.1.8 16.2.9s.4 1 .6 2.1c.3 2.1-5.8 4.6-21.8 8.5l-9 2.3 2.8 3c3.6 3.9 4.4 7 2.9 11.8-.9 3.1-1.8 4.1-4.7 5-2.7.9-3.3 1.6-2.9 3 .7 2.1-1.9 4.4-9.9 8.6-6.4 3.3-6.5 3.7-3.6 13.9 2.3 8 2.4 8.3 4.5 22.2.8 5.7 1.5 14.7 1.5 20 0 9.3-.5 13.5-3 28.2l-1.1 6.3 6 5.5c6.4 5.7 14.2 17.3 21.8 32.3 6.1 12.2 5.9 19.6-.9 29.1-.9 1.3-.7 3.3 1.1 9.3 1.9 6.5 2.1 8.2 1.1 10.6-.7 1.6-.9 3.3-.6 3.9.4.5 1.8 6.7 3.2 13.6 2.7 13.9 7.5 27.2 10.5 29.5 1.5 1.2 1.8 2.3 1.4 4.5-.4 1.8.6 7.8 2.3 15l3 12 78.6.3 78.6.2V0H0z"/><path d="M169 174.9c-12.4 12.6-29.4 29.4-37.8 37.5-8.5 8.1-14.8 14.8-14 15 .7.2 2.9.8 4.9 1.5 5.2 1.6 8.3 1.4 9.6-.9 2.6-4.1 9.7-6.1 27.8-8 5.5-.6 11.6-1.5 13.5-2s8.2-1.4 14-2 11.4-1.3 12.5-1.6c1.4-.4 3.5-3.6 6.8-10.7l4.7-10.2-.6-9c-.6-7.5-1.3-10-4-14.9-4.2-7.6-4.8-5.1-1.8 6.4 1.3 4.6 2.1 8.6 1.9 8.9-.9.8-7.4-14.4-9.4-21.8-1-4.1-2.7-8.2-3.8-9.2-1.7-1.8-2.5-1.1-24.3 21M30 156.7c0 1.9 4 7.2 6 7.8 2.4.8 3.5.2 2.6-1.4-1-1.6-8.6-7.3-8.6-6.4m79.4 87.4c-.3.5-1.8.9-3.4.9-3.9 0-4.6 1.6-1.4 3.3 2.5 1.3 3 1.2 5.9-.7 1.8-1.1 4.1-2.6 5.1-3.2 1.6-1 1.4-1.2-1.9-1.2-2 0-4 .4-4.3.9M92 263.5c0 .8.2 1.5.4 1.5s.6-.7 1-1.5c.3-.8.1-1.5-.4-1.5-.6 0-1 .7-1 1.5"/></svg>