<svg xmlns="http://www.w3.org/2000/svg" width="682.667" height="512" version="1.0" viewBox="0 0 512 384"><path d="M0 74.7v74.6l2.1-1.9c1.2-1 3-3.8 4-6.1 2.3-5.4 9.5-12.5 12.3-12.1 1.2.2 2.5 1.3 3.1 2.5.5 1.3 2.2 2.5 4 2.8 5.6 1.2 6.5 1.6 6.5 3.5 0 1-1.1 2.7-2.4 3.7s-2.6 2.9-3 4.1c-.7 2.1-2.2 2.8-7.5 3.4-1.3.2-2.9 1.1-3.5 2-.9 1.5-.5 2.3 2.2 4.8 3.2 2.9 3.4 2.9 5.8 1.4 2.3-1.5 2.7-1.5 7.9 1 6.5 3.2 18.4 15.7 22 23.1 1.3 2.7 2.9 7.8 3.4 11.3.8 5 4.1 12.4 16.1 36.5 8.4 16.6 15.3 30.3 15.5 30.5.2.3 31-15.4 38.9-19.8 1.8-1 3.4-3 4.3-5.5.7-2.1 2.1-4.7 2.9-5.7 2.4-2.6 10.6-5.3 21.9-7.2 8.7-1.5 10.6-2.2 15-5.5 8.1-6.2 12.8-17.6 18.2-44.9 3.3-16.2 3.6-18.6 2.3-20.5-.7-1.2-2.2-3.9-3.2-6-1.8-3.6-1.9-3.7-4.3-2.1-1.5 1-3.2 1.3-4.6.9-2-.7-2.1-1.2-1.5-6.1.6-5 .5-5.4-1.4-5.4-3.5 0-11.5-4.7-15.4-9-4.2-4.7-4.2-6.3 0-7l2.8-.5-2.9-2.2-3-2.2 4.5-4.6c2.6-2.7 7.8-6.3 12.3-8.6 4.2-2.2 7.7-4.1 7.7-4.3s-2.3-4.3-5.1-9.2c-6.2-10.7-7.1-13.1-6.3-15.6.5-1.7 1-1.6 7.2 1.9 3.7 2 8.1 4.4 9.7 5.3 1.7.8 4.1 2.3 5.5 3.3 3.4 2.3 3.6 2.3 6.6-2.3 3.3-4.9 10.5-10.3 15.9-11.9 2.2-.7 4.9-1.7 6-2.2 3.2-1.4 19.2-3.9 25.4-3.9 3.2 0 8.3.5 11.4 1.1l5.7 1 3.4-3.6 3.4-3.5 7.8.4c4.4.2 8.6.7 9.5 1.1 1 .4 4-1.3 8.7-5 4-3.1 7.7-5.3 8.3-4.9.8.5 1 4.5.7 13.3-.5 12.8-1.9 18.3-5.5 22.3-2.2 2.5-1.3 3 2.8 1.7 8-2.5 48.6-2 48.3.6-.2 1.2-14.4 6.7-25.8 9.9-6.4 1.9-7.5 2.5-5.7 3.1 1.2.4 3.1 2.1 4.2 3.8 3.5 5.9 1.8 12.8-3.6 14.1-1.4.4-2.3 1.1-2 1.7 1 1.6-1.3 3.7-8.4 7.6-3.6 2-6.7 3.7-6.9 3.8-.1.1 1.4 4.4 3.3 9.6 4.5 11.6 8.9 27.2 11.6 40.4 2.7 13.7 5.9 41.2 5.9 51.6 0 8.2.2 8.8 4.1 15.4 7.8 12.9 10.2 19.2 10.3 26.6.1 6-.2 7.2-3.1 11.3l-3.2 4.5 2.4 7.6c1.8 6 2.1 8.3 1.4 10.5-.8 2.1-.3 6.3 2 17.7 3.2 15.8 5.1 21.5 8.2 24.8 1 1.2 1.8 3.4 1.7 5-.1 2.3 3.8 19.8 6.8 30.2.3 1 16.8 1.3 78.4 1.3h78V0H0z"/><path d="M22.4 168.9c1.5 2.8 7.2 6.9 8.2 5.8.8-.7-3.3-5.2-6.6-7.1l-3.2-1.8zm188.1 22.3c-1.2 5.9-4.5 15.1-6.5 18.5-1.1 1.9-2 3.7-2 4 0 .6 2.7 0 10.7-2.2 5.9-1.7 7.5-4.5 6.3-11l-.8-4-.2 4.5c-.1 2.5-.5 5.4-.9 6.5-.7 1.7-1 1.4-2-2-.6-2.2-1.1-4.7-1.1-5.6s-.3-1.9-.7-2.3-.6-2.4-.4-4.5c.3-4.9-1.5-6.3-2.4-1.9M0 286.5V384h149.8l5.3-3.5c9.9-6.5 30.9-12.5 44-12.5 3.9 0 5.2-1 6.4-4.9.5-1.6.4-2.1-.4-1.7-.6.4-1.1.3-1.1-.2 0-.6-.9-.8-2-.5s-2 .4-2 .1c0-.2 1.6-4.1 3.5-8.7 3.3-7.8 3.4-8.3 1.3-6.7-9.7 7.1-16.8 10.2-16.8 7.3 0-.7 3.2-7.5 7-15.2 5.3-10.5 7-15 7-18.1 0-5.3-.7-5.8-4.1-3.3-1.6 1.1-4.5 2.3-6.5 2.6l-3.6.6 6.3-8.1 6.2-8.2-.7-9.4c-.7-10.2-3.4-30.7-4.1-31.4-.2-.3-4.1 3-8.6 7.2s-8.8 7.6-9.6 7.6c-.7 0-1.3.4-1.3.8 0 1.4-6.9 4.2-10.4 4.2-1.8 0-4.7-.5-6.4-1.1-2.9-1-3.5-.7-12.1 6.1l-9.1 7.2-3.1-2.6-3.1-2.7-3.7 2.3c-9.6 5.8-23.3 13.1-30.1 16-5.7 2.4-9.5 3.2-15.7 3.6-7.5.4-8.6.2-12.6-2.1-6-3.5-12.9-15-20.5-34.2C38.3 247.3 32 230.3 29 220.6c-2.5-7.9-5.6-11.7-19.7-23.7l-9.3-8zm313.6 60c-.3.8-.1 1.5.4 1.5.6 0 1-.7 1-1.5s-.2-1.5-.4-1.5-.6.7-1 1.5"/></svg>