<svg xmlns="http://www.w3.org/2000/svg" width="682.667" height="512" version="1.0" viewBox="0 0 512 384"><path d="M0 73.2v73.2l2.8-2.6c4.2-4 7-5.2 8.8-3.7.8.6 1.4 1.7 1.4 2.4 0 1.4 2.2 2.5 4.9 2.5.9 0 2.5.6 3.5 1.3 2.3 1.7 1.4 5.3-1.5 6.2-1 .4-1.9 1.2-1.9 1.9 0 2.2-3.5 4.6-6.6 4.6S6 160.5 6 162.6c0 .7 1.2 2.6 2.6 4.3s2.3 3.5 1.9 4c-.8 1.5 4.1 10.7 6.7 12.5 1.2.9 3.1 1.6 4.1 1.6 1.8 0 1.8-.2.5-2.2-.8-1.3-2.8-3-4.4-3.9-1.6-.8-3.5-2.7-4.3-4.1-1.3-2.3-1.3-2.9.2-5.2 3.5-5.3 10.9-2.4 21.6 8.6 8.9 9.2 11.9 14.6 13 23.6.9 6.8 1.1 7.2 15.8 28.3 8.2 11.8 18.6 26.9 23.1 33.6C94.2 274.8 97 277.9 97 275c0-.5 4-4.4 9-8.6 6.5-5.5 8.9-8.2 8.7-9.7-.1-1.6 2-3.6 9.3-8.7 9.1-6.2 9.5-6.7 10.1-10.8 1-7.7 7.3-11.2 27.1-15.2 5.7-1.1 13-2.9 16.3-4 3.3-1 11.6-2.6 18.5-3.5s15.1-2.3 18.2-3.2c5-1.3 5.9-2 7.6-5.4 1.1-2.2 1.6-3.9 1.1-3.9s-1-1.5-1-3.3c-.1-2-.5-.8-1.1 3.2-1.1 6.9-2.2 6.7-3.4-.4-.3-2.2-1.1-4.6-1.6-5.2-.6-.7-.8-1.9-.5-2.7 1.2-3-1.5-16.3-4.6-22.9-4.3-9.2-5.6-6.6-2.1 4.3 1.4 4.5 2.3 8.4 2 8.7-.7.8-6.6-11.2-9.2-19-1.3-3.7-3.8-8.6-5.7-11-4.4-5.3-9.7-15.9-9.7-19.1 0-1.4-.4-2.7-.8-3-.5-.3-3.6.6-7 2-3.5 1.4-6.7 2.2-7.3 1.8s-.8-2-.5-4c.6-3 .4-3.5-2.6-5-4.1-2.1-8.8-6.4-8.8-8.1 0-.7 1.2-1.3 2.8-1.4 2.7 0 2.7-.1.5-1.1-3.2-1.5-2.9-3.1 1.4-6.9 4-3.5 17.7-10.2 23-11.4 4.5-.9 4.7-1.8 2.2-6.7s-9.5-25-10.5-30.3c-1.5-8 .1-7.5 11.6 4l10.8 10.8 3.2-3.2c4.4-4.3 10.9-7.4 21-10 12.6-3.2 26.1-4.5 34.5-3.3 6.9 1 7 1 10.1-1.9 2.9-2.8 3.3-2.9 11-2.5 4.3.2 8.7.7 9.7 1.1 1.1.5 3.1-.1 5.5-1.8 6.5-4.3 14.9-8.7 16.7-8.7 2 0 2 .1-1.4 14.8-1.2 5.2-3.5 12-5.1 15.3-1.7 3.2-3 6-3 6.3s1.5 0 3.2-.5c7.1-2 21-.6 40.1 4 12.8 3.1 12.4 3.4-7.8 7.5l-15.6 3.2 3.1 2.9c1.6 1.6 3 3.9 3 5.1 0 2.2-3.5 7.4-4.9 7.4-.5 0-2.4 1.5-4.3 3.2-1.9 1.8-6.3 4.4-9.7 5.8-3.3 1.4-6.1 2.8-6.1 3.3 0 .4 1.3 4.9 2.9 10 4.9 15.8 5.9 19.7 9.1 37.2 4.9 26.9 11.8 52.1 18 65.9 3 6.6 3 6.6 7.1 6.6 3.6 0 4 .2 2.9 1.5s-.8 1.5 1.8 1.5c1.7 0 3.4.5 3.7 1s.1 1-.4 1c-.6 0-1.1.6-1.1 1.3s-.9 1.9-2.1 2.7c-1.9 1.4-1.6 1.5 4.2 2 5.6.5 6 .6 3.8 1.7-1.3.6-3.7 1.5-5.4 2-2.4.6-1.4.9 5 1.2l8 .4-6.6 1.6-6.7 1.6 4.7 8c6.9 11.7 18.1 36.8 18.1 40.5 0 .7-.9.2-2-1.1l-1.9-2.4-.1 3-.1 3-1.5-2.8c-.8-1.5-1.7-2.7-2-2.7-.2 0 0 .9.6 1.9.5 1.1 1 2.3 1 2.8 0 .9-2.5-2.6-4.6-6.5-1.5-2.6-1.5-2.6-.9 2.3.9 6.5-.3 5.3-4.9-5-3.8-8.6-4.9-8.4-1.6.3 1.1 2.9 2 6.5 2 8s.7 5.2 1.5 8.2 1.7 8.2 2 11.5c.4 3.3 1 10.1 1.6 15.2.5 5.1.9 10.9.8 13-.1 3.4-.2 3.5-.9 1.3-.7-2.1-.8-2.2-1-.5-.1 1.1-.1 3.2 0 4.6.1 1.9-.5 2.8-1.9 3.2-1.7.4-2.1 1.3-2.1 4.4 0 2.1.5 5.5 1.1 7.5l1 3.8H512V0H0z"/><path d="M195 148c0 .8.5 2.2 1 3 .9 1.3 1 1.3 1 0 0-.8-.5-2.2-1-3-.9-1.3-1-1.3-1 0M0 295.9V384h76.1c75 0 76 0 75.4-2-.5-1.6.4-2.4 5.2-4.8 13.7-6.9 28.9-10.2 47.1-10.2h8.2v-3.1c0-1.6-1.1-7.1-2.5-12-4.5-16-6.9-31.6-8.5-54.7-.5-8.4-1.5-18.5-2.1-22.5-2-13.4-1-12.9-9.3-5.1-12.8 12.1-15.1 13.2-24.7 12.1-4.9-.6-4.9-.6-13.3 6.3-4.7 3.9-8.9 7-9.4 7s-1.7-.9-2.7-2-2.3-2-2.9-2-5.6 2.9-11.1 6.5c-10.8 7.1-25.5 14.6-32 16.4-5.1 1.4-14.5 1.4-18.2 0s-8.5-6-13.7-13.4c-3.3-4.6-19.8-31.6-29.6-48.5-.5-.8-4-7.5-7.7-14.9-6.7-13.2-13-21.1-21.5-27.3L0 207.9z"/></svg>