<svg xmlns="http://www.w3.org/2000/svg" width="682.667" height="512" version="1.0" viewBox="0 0 512 384"><path d="M0 74.4v74.5l2.7-.2c2-.1 3.1.4 3.7 1.9.7 1.5 2.4 2.5 5 3.1 3.5.7 4.1 1.2 4.1 3.3 0 1.6-.8 2.8-2.2 3.5-1.2.5-2.4 1.9-2.8 3.2-.3 1.4-1.5 2.5-3.3 2.9-5.4 1.2-6.1 1.5-6.7 3.4-.4 1.1 0 3.2.8 4.7.9 1.6 2.3 5 3.3 7.8 1.8 5.3 7.1 11.5 9.7 11.5 3.5 0 2.6-2.4-2.7-7.3-3.1-2.9-5.6-5.7-5.6-6.3 0-.5.9-2 2-3.2 2.5-2.6 5.2-2.2 11.7 1.5 4.3 2.5 15.4 14.7 18.5 20.4.9 1.8 2 5.7 2.3 8.8s.8 6.6 1 7.7c.3 1.2 5.7 7.9 12.1 15 13.9 15.4 38 42.8 41.1 46.7l2.1 2.7 6.1-6.2c3.3-3.5 8-7.9 10.5-9.8 3.3-2.6 4.5-4.1 4.3-5.9-.2-1.9 1.5-3.5 8.8-8.8 8.6-6.2 9-6.7 9.7-11 .4-2.5 1.6-5.6 2.9-6.9 2.6-2.8 13.5-6.8 25.4-9.3 5-1.1 11.3-2.8 14-3.9 2.8-1.1 8.4-2.5 12.5-3.1s10.7-1.6 14.6-2.2l7.2-1.1-1-3.2c-2-6.4-6.7-28.4-8.1-37.8-1.4-9.1-1.7-10-5.6-14.4-2.2-2.5-5.7-7.6-7.7-11.2-3.2-5.7-3.6-7-3.1-11.3.3-2.7.2-4.9-.3-4.9s-3.2.9-6 2c-7.2 2.8-9.2 2.7-8.8-.7.3-2.4-.2-2.9-4.7-4.6-6.5-2.4-7.4-3.2-7.3-6.8.1-4.1 4.7-7.8 14.4-11.9 7.8-3.2 13.7-8.1 12.7-10.6-.2-.7.5-1.8 1.5-2.6 2-1.3 2-1.5-1.3-8.3-6.4-13.4-12.2-33.5-9.8-33.5.4 0 5.8 5 11.9 11.1l11.1 11 3.2-3c7.6-7.1 38.4-14.1 56.4-12.8 6.6.4 7.4.3 10.1-2 2.4-2 3.7-2.4 6.5-1.9 10.6 1.7 13.4 1.4 17.6-1.9 4.6-3.6 17.8-12.3 20-13.2 2.2-.8 1.9 1.8-1.5 15.3-3.3 12.8-5.3 18.3-8.3 22.7l-1.8 2.7 2.6-1c4-1.5 22.4-1.2 31.7.5 25.7 4.8 25.7 4.8 1.8 11-8 2.1-14.7 4-14.8 4.1-.2.1 1.1 1.6 2.8 3.1 4.1 3.7 3.5 6.1-2.6 10.3-3.9 2.6-7 4-17.3 8.1-2.7 1.1-2.8 1.1 2.5 22.7 1.9 7.9 3.9 17.8 4.4 22 4.1 32.3 11.6 68.6 16.1 77.4 3 5.8 9.9 17.2 17.7 29.3 13.7 21 20.6 37.5 11.5 27.4-1.9-2.1-4-3.9-4.6-3.9s-1.8-.7-2.8-1.6 1.9 6.7 6.3 16.8c13.3 30.5 19 48.5 23.5 74.6l.6 3.2H512V0H0z"/><path d="M196 148.5c0 .5.5 1.7 1 2.5s1 1 1 .5c0-.6-.5-1.7-1-2.5s-1-1.1-1-.5m2.6 5.8c.3 1 .9 1.5 1.2 1.2s0-1.1-.7-1.8c-1-.9-1.1-.8-.5.6M0 302.8V384h76.6c83.5 0 76.8.4 74.7-4.8-.7-1.7 12.6-7.7 22.9-10.3 5.5-1.3 13.3-2.2 23.1-2.6l14.7-.6V363c0-1.5-1.3-7.8-3-14.1-3.9-15.3-5.9-29.9-7-50.9-.8-15-2.7-32.8-3.5-33.8-.2-.2-3.2 2.5-6.7 6-11 10.8-13.7 12.2-22.6 11.6l-6.4-.4-7.9 6.8c-4.3 3.7-8.5 6.8-9.2 6.8-.8 0-2.5-.8-3.8-1.9l-2.4-1.8-11.9 7.9c-27.8 18.4-42.4 22.4-53.8 14.8-4.1-2.7-17.9-18.2-26.7-29.9-2-2.7-7.8-10.4-13-17.2S21 248.9 16.5 242 6.4 227.7 4.1 225.5L0 221.6zm364 55.4c.4 2.9 2.1 9.9 4 15.6 3 9.3 3.5 10.2 5.8 10.2 1.9 0 2.3-.4 1.9-1.9-1-3.9-11.2-29.1-11.7-29.1-.3 0-.3 2.4 0 5.2m-8 9.9c0 2.8 3.6 15.9 4.3 15.9.5 0 .6-.8.4-1.8-.3-.9-1.1-4.5-1.7-8-1.1-5.6-3-9.4-3-6.1"/></svg>