<svg xmlns="http://www.w3.org/2000/svg" width="682.667" height="512" version="1.0" viewBox="0 0 512 384"><path d="M.1 101.7c.1 56 .4 100.7.8 99.3.9-3.7 4-7.7 4.9-6.4.4.6 2.2 1.9 3.9 2.8 4.3 2.2 6.9 7.5 7.6 15.6.8 8.5 1.2 9.6 5.5 12.2 2.1 1.2 13.4 11.5 25.3 23C60 259.6 70.6 269 71.6 269c.9 0 4.1-1.6 7.1-3.7 4.1-2.8 5.3-4.2 5.3-6.2 0-2.2 1.6-3.8 9.5-9.4 8.3-5.9 9.5-7.1 9.5-9.7 0-9 4.7-11.8 29.4-17.6 6-1.4 12.2-3.2 13.7-4 1.6-.8 5.2-1.9 8.1-2.4 2.8-.6 5.3-1.1 5.4-1.3 1.5-1.4 4.3-31.1 4.5-46.7.2-13.5-.1-14.4-5.7-21.5-2.6-3.3-3.2-5.2-3.6-10.2-.2-3.5-.7-6.5-1.1-6.9-.3-.3-2.7.1-5.3 1-7 2.4-8.4 2.2-8.4-1.4 0-2.6-.4-3-4.2-4-6.5-1.5-9.3-3.3-9.4-5.8-.2-2.9 3.7-5.7 12.9-9.2 6.2-2.5 10.6-5.9 10.7-8.4 0-.4 1.1-1.7 2.5-2.8s2.2-2.4 1.9-2.9c-.3-.6.1-1.8 1-2.8 1.5-1.6 1.4-2-1-5.2-5.2-6.9-15.7-29.9-14.8-32.3.7-1.8 3.4-.7 11.5 4.5 6.8 4.5 8.9 5.2 11.9 4.1q2.4-.9 6.3.6c3.3 1.3 4.7 1.4 9.5.3 23.8-5.3 29.7-6.2 43.2-6.8 9.2-.3 15.5-1.1 17.2-1.9 2-1 4.7-1.2 9.7-.8l6.9.7 5.4-5c10.1-9.4 16.5-14.3 18.6-14.3 1.8 0 2.1.7 2.4 4.7l.3 4.8 4.6.3c4.4.3 4.5.4 5.7 4.7 1 3.6.9 5.7-.4 11.2-.8 3.7-2.1 8.1-2.9 9.9-1.3 3.1-1.3 3.2 1.7 3.8 1.7.3 7.4.6 12.7.6 9.2 0 32.4 3 33.8 4.4.3.3.4.9.1 1.2-.9.8-16.2 6.3-26.1 9.3-7.9 2.5-10.2 4.1-5.7 4.1 2.8 0 6.9 3.8 6.3 5.9-.4 1.8-13.5 8.5-20.8 10.7-2.6.8-3 1.5-3.3 5.1-.2 2.3.3 5.5 1.1 7 2.2 4.4 6.4 19.8 8.1 30.4.9 5.3 2.1 17.9 2.6 28s1.2 20.2 1.4 22.4c2.5 20.4 2.8 21.5 5.5 24.4 2.7 2.8 9.4 14.6 15.7 27.3 2.2 4.4 3.6 8.9 4 13.1.6 6.1.5 6.6-2.9 11.9l-3.5 5.5 1.9 6.9c1.4 5.1 1.8 8.7 1.3 13.9-.6 7.9 2.2 26.4 5.1 33 3.7 8.6 8.9 27 11 38.7l.7 3.8H512V0H0z"/><path d="M0 330.5V384h59c42.9 0 58.9-.3 58.7-1.1-.3-1.7 5.8-4.9 19.1-9.9 2.2-.9 2.9-1.6 2.3-2.4-1.8-2.2-4.1-19.4-4.1-30.3 0-13.1 1.2-23.1 4.5-36.6 2.3-9 2.4-12.7.5-12.7-.4 0-2 .4-3.6.9s-6.3 1.7-10.4 2.6-8.2 2.3-9 3c-3.6 3-25.8 15.6-30.7 17.5-3.1 1.2-10.1 2.5-16.1 3-5.9.5-13.5 1.2-16.9 1.6-10 1.1-13.7-.9-27.1-14-6.3-6.1-14.7-15.1-18.8-19.9L0 276.9zm157.1 9.7c-1.2 3.8-2.1 19.8-1.4 24.5l.6 3.3h8.6c11.6 0 13.3-.5 12.8-3.9-.3-1.5-2.3-6.6-4.6-11.2-2.2-4.7-4.1-9.1-4.1-9.8s-.4-1-.9-.7-1.4-.1-2.1-.9-1.7-1.5-2.2-1.5-1.6-.7-2.4-1.5c-2.3-2.2-3.1-1.9-4.3 1.7"/></svg>