<svg xmlns="http://www.w3.org/2000/svg" width="682.667" height="512" version="1.0" viewBox="0 0 512 384"><path d="M0 22v22h3.3c1.7 0 6.1.3 9.7.6l6.5.6 7.6-6.1c8-6.4 15.3-10.3 17.6-9.4 1.3.5 1.6 3.3 1.3 12.9-.1 4.5.1 5.1 2.5 6.2 1.4.7 4.5 1.2 6.8 1.2s8.8.5 14.5 1.2L80 52.4v4.9c0 2.8.3 4.7.7 4.4.3-.4 1.2-.2 2 .4 1.6 1.4 1.7 9.6.1 10.1-.7.3 4.2 1 10.8 1.7 22.7 2.4 42.5 6 43.1 7.7.5 1.6-21 8.1-33.4 10-4.2.6-6 2.4-2.5 2.4 2.7 0 6.8 2.2 8.2 4.3.9 1.5.8 2.3-.6 3.8-.9 1-2.4 1.9-3.3 1.9s-2.7.7-3.9 1.6c-1.2.8-5 2.2-8.5 3-10.1 2.5-11 3.2-10.3 7.9 1.5 10.1 2.6 15.3 4 19.5.9 2.5 2.7 10.8 4 18.5 2.5 14.5 2.8 29.4 1.1 45.2-.9 8.4-.2 12.3 2.3 12.3 2 .1 7.2 11 7.2 15 0 1.4 1.3 4.1 2.8 6 3 3.7 13.4 22.1 17.1 30.3 4.1 9.1 2.6 19.5-3.9 26.5-1.2 1.2-1.9 2.6-1.6 3.1 1.7 2.6 3.7 16.9 3.7 25.4-.1 10.7 2.5 22.6 7.5 34.7 1.5 3.6 4.4 11.9 6.4 18.5l3.8 12 187.6.3 187.6.2V0H0z"/></svg>