<svg xmlns="http://www.w3.org/2000/svg" width="682.667" height="512" version="1.0" viewBox="0 0 512 384"><path d="M0 192v192h166l-1.4-3.2c-5.5-12.9-16-35.7-24.5-53.6-13.3-28.2-14-30.6-10.1-38.2 2.7-5.2 2.6-8.4-.2-9.7-2.2-.9-2.1-1.1 2-3.4 4.6-2.6 5.3-3.9 2.2-3.9-1.8 0-2-.7-2-7.3 0-7.7 3.1-20.5 5.2-21.9 1.7-1 4.4-.2 9.1 2.8 2.9 1.9 4.9 2.4 8.4 2.2l4.6-.3 1.6-5.5c.8-3 1.8-5.6 2.3-5.8.4-.2.8-.9.8-1.5.1-1.8 4.1-6 9-9.4 2.5-1.7 5.6-4.3 7-5.8 3.4-3.6 7.8-6.1 12.2-6.9l3.6-.7.4-27.2c.2-15 .2-27.8 0-28.4-.3-.8-2.2-1.2-5.6-1.1-4.7.2-5.9-.2-14-5.5-5-3.1-9.4-5.7-9.8-5.7-1.5 0-.8-3 1.2-5.8 1.8-2.4 1.9-3.1.8-6-1.5-3.8-.3-5.2 4.4-5.2 2.6 0 10.2-5.1 12.1-8.1.8-1.3-.2-2.8-5-7.5-7.9-7.7-10.6-13.1-9.7-18.9q1.5-10.35 15.6-13.5c3.1-.7 6-1.6 6.5-1.9.4-.3 2.3-3.6 4.1-7.3 3.6-7.1 10.4-15.1 16.2-19 8.4-5.7 19.4-8.3 39.5-9.3 25.5-1.3 39.7 4.6 54 22.5 5 6.2 5.8 6.8 10.2 7.5 10.5 1.5 15.3 5.6 16.1 13.4.5 6-2.8 12.8-9.6 19.5l-4.4 4.3 3.2 6.4c1.7 3.4 5.2 8.8 7.8 11.8 3.8 4.5 4.7 6.1 4.7 9.4 0 4.7-3.1 7.7-7.9 7.7-2.8 0-3.5.6-5.5 4.5-2.1 4.2-2.2 5.1-1.2 11.3 1.3 7.7 2.7 21.2 4.1 39.7.5 7.1 1.2 15.2 1.4 18 .2 2.7.4 6.7.5 8.7.1 2.6 1 4.8 3 7 3.4 4 9.5 15.2 12.3 22.8 1.2 3.5 2.2 9.2 2.5 15.5.4 6.4 1.3 11.5 2.4 14.3 2.5 5.8 2.4 11.8-.2 16.2-1.2 1.9-2.6 3.8-3 4.1-1.2.7.7 6 4.3 12.6 1.6 2.9 2.6 5.7 2.3 6.4-.4.6-2.3 1.7-4.1 2.5-2.1.9-3.4 2.1-3.4 3.3s-.9 2-2.9 2.4c-3.2.7-3.3-1.3.9 21.2 1.1 6 2 15.2 2 20.2v9.3h170V0H0z"/><path d="M316 79.5c0 .2.7 2.3 1.6 4.5 1.9 4.8 4.3 5 5.9.6.8-2.3.6-3-1-4.2-1.8-1.3-6.5-2-6.5-.9m-131.5 6.2c-3.2.8-7.5 4.3-7.5 6.1 0 2 3.8 7.6 6.3 9.1 2.9 1.8 4.4-.1 5.6-7.5 1.5-8.3 1.1-9-4.4-7.7m4.8 194.1c-.9.6-1.8 5.6-1.4 8.5.1 1.1 5.6-5.4 5.6-6.7.1-1.1-1.5-2.6-2.5-2.6-.3 0-1 .4-1.7.8m-4.4 11.2c-.9.5-3.1 1.1-4.8 1.2-3.1.2-3.2.4-2.6 3.8.7 4.4-.6 5.8-7.3 7.6-2.9.7-4.6 1.7-4.5 2.5.8 6 14.9 50.9 16.8 53.6.9 1.3 2.7 2.3 4 2.3 3 0 3.2-.8 4-16.5.5-12.4-.1-18.5-3.2-29.2-1.6-5.8-1.6-6.9-.2-15.2 1.8-11.1 1.6-12.3-2.2-10.1"/></svg>