<svg xmlns="http://www.w3.org/2000/svg" width="682.667" height="512" version="1.0" viewBox="0 0 512 384"><path d="M0 192v192h82.5c59 0 82.5-.3 82.5-1.1 0-1.4-13.2-30.9-25.3-56.4-5.3-11-10.2-22.6-11-25.8-1.5-5.7-1.5-6 .9-11 2.9-6.3 3-8.2.4-10-1.9-1.3-1.6-1.7 6-6.3 4.4-2.6 8-5.2 8-5.6 0-1.5-1.7-.8-5.9 2.2-2.3 1.7-4.6 2.8-5.1 2.5-2.3-1.4 0-22.9 3-28.6 1.5-2.7 3.1-2.4 8.3 1.6 3.4 2.6 5.6 3.5 8.4 3.5 5.2 0 6.8-1.5 8.7-8 1.7-6.3 6.7-12.7 12.4-16.1 2-1.2 5.8-4.2 8.3-6.5 2.6-2.4 6.4-4.7 8.7-5.3l4-1.1.6-10.3c.3-5.6.8-18.2 1.1-28.1.5-15.9.4-18.1-1.1-19.7-2.2-2.4-3.1-2.4-3.9.1-.9 3-4.3 2.5-11.1-1.6-3.2-2-7.8-4.8-10.1-6.1-2.4-1.4-4.3-2.8-4.3-3.3 0-.4.9-1.9 2-3.3 1.6-2 1.9-3.4 1.4-7l-.6-4.4 4.5-.7c3.4-.5 5.4-1.6 8.6-4.8 2.2-2.3 4.1-4.5 4.1-4.8 0-.4-1.8-2.1-4-3.9-5.1-4.1-10.9-12.7-11.6-17.3-.7-4.2 1.3-8.5 5.6-12.1 2.6-2.2 6.5-3.7 15.8-6.3.7-.2 2.2-2.5 3.3-5.1 4.4-10.3 13.6-20.5 22.8-25.3 8.7-4.5 32.4-7.4 48.8-5.9 9.3.8 16.8 3.8 25 10 4.8 3.6 13.8 13.4 16.1 17.5.5.9 3.1 2 6.3 2.6 18.9 3.4 22 16.5 7.5 32.5-3.8 4.2-4.6 5.7-4 7.5 1.4 4.8 4.8 10.5 9.1 15.3 4.2 4.7 4.4 5.3 4 9.8-.2 2.7-1.1 5.6-2 6.5-1.5 1.4-1.8 1.4-3.6-.2-2.4-2.2-3.2-1.8-6.5 3.9-2.5 4.2-2.6 4.9-1.7 10.3 1 6 4.4 41.6 5.9 61.2.8 11.3.9 11.6 4.7 16.5 4.4 5.8 10.7 18.8 12.4 25.8.6 2.6 1.1 8 1 12-.1 4.9.4 8.5 1.6 11.2 3.1 7.2 3.5 9.6 2.4 14.1-.6 2.3-2.1 5.2-3.4 6.4l-2.3 2.2 3.9 8.3c2.1 4.6 3.9 8.8 3.9 9.3 0 1.1-3.9 4.2-5.3 4.2-1.2 0-3.4-5.8-4.1-11.3-.4-2.6-1.2-4.7-1.7-4.7-2.2 0-2 3.5.4 9.8 3.8 9.6 3.8 10.8.4 10.4l-2.7-.3.5 7.3c.3 4 1.2 11.6 2 16.8s1.7 13.4 2 18.3l.7 8.7H512V0H0z"/><path d="M314.3 78.9c-.5.3.2 4 1.7 9l2.6 8.4 3.2-4.8c3.7-5.6 3.9-7.5 1.3-9.9-2.2-2-7.5-3.6-8.8-2.7m-128 7.1c-5 1.2-9.8 4.4-10.1 6.9-.4 2.8 3.8 9.1 8.4 12.6l3.4 2.6v-4.8c0-4.2.5-7.1 2.5-16.1.6-2.4.6-2.4-4.2-1.2m-1.2 196.2c.1 1.8-.5 5-1.4 7.2-1.3 3-2.1 3.7-3.4 3.1-1-.4-2.9-1-4.2-1.3-2.3-.5-2.3-.4-1.6 4.6.6 4.9.6 5.1-2.4 6.6-1.6.9-4.1 1.6-5.5 1.6s-2.7.4-3 .8c-.5.9 7.6 28.9 13.2 45.7 3.6 10.7 3.8 11 7.2 11.7 1.9.4 4 .6 4.6.3.8-.2 1.4-6.3 1.9-17.7.6-16.1.5-17.7-1.4-23.3-3.6-10.2-2.5-23.9 2.7-34.2 1.2-2.3 2.2-5.1 2.2-6.3 0-1.7-.6-2-4.5-2-4.5 0-4.6 0-4.4 3.2m149.1 99.3c0 1.7.2 2.2.5 1.2.2-.9.2-2.3 0-3-.3-.6-.5.1-.5 1.8"/></svg>