<svg xmlns="http://www.w3.org/2000/svg" width="682.667" height="512" version="1.0" viewBox="0 0 512 384"><path d="M0 192v192h166l-1.4-3.2c-8.6-19.7-11.5-26.1-25.3-55.3-5-10.5-9.6-21.6-10.3-24.7-1.2-5.2-1.1-6.1.9-10.7 2.5-5.9 2.6-7.9.5-10.2-1.4-1.6-1-2 6.1-6.4 4.2-2.6 7.3-5 7-5.3s-2.5.9-5 2.6c-4.2 3-4.5 3-5.5 1.2-1.4-2.6-1.2-9.3.5-17.5 1.6-7.8 3.3-12.5 4.5-12.5.4 0 3.1 1.6 6 3.6 4.7 3.2 5.8 3.6 10.2 3.2 2.6-.3 5.1-.8 5.4-1.1s1-2.5 1.5-4.9c1.5-6.5 5.6-12.6 10.5-15.7 2.4-1.6 6.7-4.9 9.5-7.5 3.2-2.9 6.8-5.1 9.5-5.8 2.9-.8 4.4-1.8 4.8-3.2.2-1.2.8-13.9 1.2-28.4.6-24.3.5-26.4-1.1-28.2-1.7-1.9-1.8-1.9-3.7.6-1.3 1.6-2.6 2.3-3.7 1.9-2.6-1-21.1-11.7-21.6-12.5-.3-.4.5-2 1.6-3.4 1.7-2.1 1.9-3.4 1.4-6.7-.8-4.7.2-5.9 5-5.9 2.3 0 4.2-1.1 7.5-4.5l4.4-4.5-5.6-5.8c-6.6-6.7-9.8-12.3-9.8-17.2 0-7.2 6.5-13.3 16.4-15.5 5.1-1.1 5.1-1.2 9.1-9 4.9-9.6 13.8-19.1 21.5-22.8 3.1-1.5 8.7-3.4 12.5-4.3 9.5-2.1 35.9-3 42.1-1.5 12 3 23.9 11.4 32.2 22.6 3.8 5.2 5.4 6.5 8.2 7 11.3 2 18 7.5 18 14.8-.1 5.8-2.7 11.2-9 18l-5.2 5.8 3.1 6.3c1.7 3.4 4.9 8.3 7.1 10.8 3.1 3.5 4 5.4 4 8.1 0 7.6-3.1 10.7-7 7.2-1.6-1.5-2-1.2-4.5 3.1l-2.8 4.7 2.6 26.1c1.5 14.4 3 32.3 3.5 39.9.9 12.8 1.1 14 3.5 16.5 3.2 3.4 10 16 12.8 23.8 1.6 4.4 2.1 8.2 2.1 14.9 0 7.3.4 10 2.5 14.9 3.1 7.5 2.6 13-1.6 17l-2.9 2.8 3.9 7.9c2.2 4.4 3.9 8.9 3.9 10 0 2.1-4.8 4.6-6 3.2-1.2-1.5-2.8-6.8-3.5-11.6-.7-5-1.9-6.1-2.8-2.5-.4 1.2.6 5.3 2.3 9.7 3.8 9.7 3.8 10.5 0 9.8l-3-.6.6 7.7c.3 4.2 1.2 13 2 19.4s1.4 14.4 1.4 17.7v6.1h174V0H0z"/><path d="M315.6 85.7c1.3 3.8 2.4 7.6 2.4 8.5 0 2.9 1.8 2.1 4.4-2 4.7-7.3 4.1-9.6-3.3-12.1-5.8-1.9-5.9-1.6-3.5 5.6M186 86.9c-4.7 1.5-8.9 4.1-9.5 6-.8 2.7 1.5 6.8 6.9 12.1l4.6 4.4v-3.6c0-2 .7-7.2 1.5-11.5s1.5-7.9 1.5-8.1c0-.4-2.4-.1-5 .7m-.2 193.2c-.6.4-.8 1.5-.4 2.4.7 1.9-2.1 10.5-3.5 10.5-.4 0-2-.5-3.4-1.2-3.7-1.7-4.8-.1-3.6 5.1l.9 4.3-4.5 2c-2.5 1.1-5.4 1.7-6.5 1.5-1.5-.4-1.9-.2-1.4 1.1.3.9 1.4 4.6 2.4 8.2 5.5 18.8 9.4 31.4 11.9 39 2.8 8.3 2.9 8.4 7.1 9.6 2.3.7 4.4.9 4.6.5.3-.4.8-8.8 1.1-18.6.7-16.9.6-18.4-1.4-23.5-3.5-9-2.3-23.2 2.8-33 1-1.9 2.1-4.7 2.4-6.2.7-2.6.6-2.7-3.3-2.5-2.3.1-4.6.4-5.2.8"/></svg>