<svg xmlns="http://www.w3.org/2000/svg" width="682.667" height="512" version="1.0" viewBox="0 0 512 384"><path d="M0 192v192h83.6c66.5 0 83.5-.3 83.1-1.2-5.3-12.2-19.9-44.4-24.7-54.3-11.9-24.8-12.9-28.7-9.4-35.6 2.7-5.5 3.1-9.7.9-10.5-2.2-.9-1.8-2.3.8-3.5 2.1-1 2.3-1.5 1.9-7.6-.5-7.4 1.3-19.3 3.5-23.6 1.5-3 1.9-2.9 9 1.9 3.7 2.5 8.4 3.1 12.6 1.5 1.9-.7 2.8-2.2 3.7-6 1.6-6.7 5.5-11.9 12.2-16.4 3-1.9 6.1-4.4 6.9-5.3 2.3-2.8 10.1-7.4 12.5-7.4 2 0 2.3-.6 2.8-7.3.3-3.9.8-16.9 1.1-28.7.6-20.9.6-21.6-1.4-23.4s-2.1-1.8-3 .8c-.7 1.6-1.8 2.6-3 2.6-2 0-21.7-10.5-22.6-12.1-.3-.4.5-2 1.8-3.6 1.9-2.2 2.2-3.5 1.7-6-.9-3.9.4-5.3 4.5-5.3 2.3 0 4.1-1 6.8-3.8 2-2.1 3.7-4.1 3.7-4.6 0-.4-2.3-3.1-5-5.9-5.8-6-9-11.9-9-16.6 0-6.9 6.5-13.3 16-15.7 4.4-1.1 4.6-1.3 8.9-10 3.3-6.6 6.2-10.6 11-15.5 7.1-7.1 12.7-10.1 22.4-12.4 9-2.1 28.2-3.7 35.7-3 15.8 1.5 29.7 9.7 40.1 23.7 3.4 4.6 6.2 8.4 6.4 8.6.1.1 2.8.9 6 1.7 17 4.5 19.2 16.9 5.5 32.6l-4.8 5.5 2.5 5c1.4 2.7 4.5 7.3 6.9 10.3 4.7 5.7 4.9 6.6 3.4 12.3-1.2 4.2-3.6 5.5-6 3.3-2.5-2.3-3.3-1.9-5.9 2.9l-2.4 4.3 1.6 14.4c1.6 13.2 2.2 20.8 4.5 52.5.8 10.6 1 11.4 4.4 16 9.4 12.9 14.4 27.5 13.4 39.1-.5 6-.2 8 1.5 12 2.7 6.3 2.3 15.2-.9 18.6l-2.2 2.4 3.5 7.8c4 8.8 4.1 11.4.5 13.2-3.2 1.6-3.6.9-5.7-9.8-1.6-8-1.7-8.1-3.1-5.4-1.3 2.5-1.1 3.4 1.2 9.9 3.4 9.1 3.4 10.8.2 10l-2.5-.6.5 10.9c.3 5.9 1 13.2 1.5 16.2s.9 9 .9 13.3v7.8h172V0H0z"/><path d="M319 85.7c0 .5.9 3.7 2 7.2 1.1 3.6 1.7 7.5 1.4 8.8-.8 3 .3 2.9 3-.4 5.5-6.9 6.2-11.5 1.9-13.6-3.7-1.9-8.3-2.9-8.3-2m-131.7 8.4c-5.1 2-7.1 4.4-6.4 7.9.5 2.3 6 9.5 9 11.8l2.8 2-.1-7.1c-.1-4 .3-9.3.7-12 .5-2.6.5-4.7 0-4.6-.4 0-3.1.9-6 2m4.4 188.6c-3.4.4-3.8.7-3.3 2.6.3 1.2-.2 4.1-1.1 6.5-1.3 3.4-2 4.2-3.5 3.8-6.6-2.1-6.2-2.4-5.4 3.1.8 6 0 6.9-6.8 8.2-2.6.5-4.9 1.1-5.1 1.3-.5.4 5.3 20.7 12.1 42.7 4 13 5 14.3 11.1 15.4 2.7.5 3.2.3 3.8-2 .8-3.3.8-31.3-.1-35-.3-1.6-1.2-4.5-2-6.6-2.9-7.8-.9-22.3 4.7-32.8 3-5.5 3.2-8.1.6-7.7-.7.1-2.9.3-5 .5"/></svg>