<svg xmlns="http://www.w3.org/2000/svg" width="682.667" height="512" version="1.0" viewBox="0 0 512 384"><path d="M0 196.8V384h512V89l-3.6 1.5c-2 .8-4.6 1.5-5.8 1.5-2.8 0-11.7 3-13.3 4.4-3.3 2.9-4.3 3.6-5.2 3.6-.5 0-1.8 1.1-2.9 2.5s-2.5 2.5-3.1 2.5-1.1.7-1.1 1.5-.9 1.9-2 2.5-1.8 1.5-1.5 1.9c.2.5-1.7 2.6-4.3 4.7s-5.3 4.4-5.9 5c-.7.7-2.8 2.2-4.8 3.4-1.9 1.2-3.2 2.7-2.9 3.2.4.6.2.8-.3.5-.6-.4-2.3.5-3.9 1.9-2.1 1.9-2.4 2.5-1 2 1.9-.7 1.9-.6.1 1.4-1 1.1-2.4 2-3.2 2-.7 0-1.3.4-1.3 1 0 .5-.5 1-1.1 1s-1.6.6-2.4 1.2c-.7.7-2.7 2.4-4.5 3.8s-3.7 2.9-4.4 3.5c-.6.5-2.7 2.2-4.6 3.6-5.8 4.4-8 6.6-7.3 7.3.3.3 0 .6-.8.6s-3 1.5-4.9 3.4-5.4 4.1-7.7 4.8c-2.4.7-4.3 1.6-4.3 2s-1.1.8-2.4.8c-1.4 0-2.8.4-3.1 1-.3.5-1.4 1-2.5 1-1 0-2.1.7-2.4 1.6-.3.8-1 1.3-1.6.9-.5-.3-1.9-.1-3.1.6-1.9 1-2.1 1.7-1.6 6.8.2 3.2 1.4 7.6 2.6 9.9 2.5 4.9 2 5.2-2.6 1.6-3.7-2.8-3.9-2.6-1.9 1.4 2.6 5.2 2.9 7.1.9 6.7-2.9-.5-11.5-5.6-14.8-8.5-3.6-3.4-13.2-8.3-14.5-7.5-.5.3-5.4-1.7-10.9-4.5-5.6-2.7-10.5-5-11-5-.6 0-2.9 3.9-5.1 8.7l-4.1 8.8 1.2 11.7c.9 9.2.9 14.4 0 24-2.2 21.9-5 24.9-27.4 29.9-4.4.9-6.3 1.9-7.5 3.8-3.7 5.7-6.8 7.3-20.9 10.7-6 1.4-11.2 3-11.8 3.4-1.6 1.3-19.1 6-22.5 6-3.6 0-7.7-1.9-10.3-4.8-1.5-1.7-3.1-2-8.7-2-3.8 0-7.4-.3-7.9-.7-.6-.3-3.8-1-7.1-1.6-3.2-.5-7.9-1.9-10.4-3.2-5.1-2.6-35.6-31.4-35.6-33.7 0-1.3-.2-1.3-1.1 0-.9 1.2-1 1-.6-.9.4-1.6.1-2.5-1.2-2.8-2.6-.7-5-6.1-5.7-13.1-.4-4.1-1-5.9-1.5-5-.5.8-1-3-1.1-9.2l-.2-10.5-.6 10c-.3 5.5-.7 8.1-.8 5.7s-.8-5.5-1.6-7c-1.3-2.6-1.1-8.2.3-8.2.3 0 .7-3.8.8-8.5.2-4.7.8-9.5 1.4-10.7 1.1-2.1 1.2-2.1 2.4.8.8 1.6 1.4 2.2 1.4 1.4.1-.9-.6-2.6-1.5-3.8-1.3-1.9-1.3-2.2 0-2.2.9 0 1.7-1.5 2.1-4.1.4-2.3 1.3-5.6 2.1-7.4.7-1.8 1-3.5.7-3.9-.4-.3-.1-.6.5-.6.7 0 1.2.5 1.2 1.1 0 .5.5.7 1 .4.6-.3.7-1.7.4-3.1-.3-1.3-.2-2.4.3-2.4s1-.6 1-1.3c.1-1.1 3.2-8 7.3-15.7 4.4-8.6 17.3-19.8 24.5-21.3 24-5.3 24.9-6.8 10.2-17.8-14.1-10.7-32-27.4-40.1-37.4-7.4-9.2-20.7-30-23.2-36.4-1.8-4.5-1.8-4.5-2.7-1.8-1.2 3.8-4.1 3.5-6.1-.8-1.6-3.4-2-3.5-6.4-3.4-6.3.2-89.8-3.4-110.4-4.8L0 9.7z"/><path d="M153.2 162c0 1.4.2 1.9.5 1.2.2-.6.2-1.8 0-2.5-.3-.6-.5-.1-.5 1.3m-3.7 10c-.3.6.1.7.9.4 1.8-.7 2.1-1.4.7-1.4-.6 0-1.3.4-1.6 1m-4.5 16c0 1.1.5 2 1 2 .6 0 1-.9 1-2s-.4-2-1-2c-.5 0-1 .9-1 2"/></svg>