<svg xmlns="http://www.w3.org/2000/svg" width="682.667" height="512" version="1.0" viewBox="0 0 512 384"><path d="M0 192v192h166.8l-3.5-8.2c-7.7-18.4-12.6-29.2-21.6-48.5-11.3-23.9-12.1-27.6-8.2-35.2 2.8-5.7 2.6-8.3-.8-9.8-2.1-1-2.1-1.1 1.5-2.8 3-1.5 3.5-2.1 2.7-3.6-3.1-5.9 1.8-29.8 6.2-29.9.3 0 2.6 1.4 5.2 3.1 3.9 2.5 5.4 3 9.8 2.7l5.2-.3 1.7-5c2.7-8.4 4.3-10.7 10-15.2 3-2.3 7.3-5.7 9.4-7.5 5.2-4.4 8.7-6.4 12.3-7.2l3-.7.6-14.2c1.2-25.6.9-42.4-.8-43-.8-.4-1.7-.2-2 .3-1.4 2.2-7.8.9-14.3-2.9-3.7-2.1-7.7-4.1-8.9-4.5-3-1-3.5-3.1-1.2-6 1.5-1.9 1.8-3.3 1.3-6.5l-.6-4 4.3-.7c3.2-.5 5.4-1.7 8.2-4.5l3.9-3.9-3.3-2.7c-1.8-1.5-5-5.4-7.1-8.7-8.1-12.5-3.7-22.3 12-26.9 4.1-1.1 4.5-1.6 7.2-8 3.8-8.7 7.7-14.3 14-20 9.2-8.3 17.4-11 39.4-12.8 17.7-1.5 25.8-.5 36.3 4.6 8.2 4.1 17.9 12.9 23.8 21.8 2.1 3.3 4.3 6 4.9 6.2 9.8 2.5 12.7 3.8 16 7.5 2.8 3.1 3.6 4.8 3.6 7.8 0 4.9-4 12.9-9.5 19l-4.3 4.8 1.9 4.3c1 2.3 3.9 6.6 6.4 9.5 3.8 4.5 4.5 6 4.5 9.5 0 6.1-1.5 8.3-5.3 8.1-5.6-.3-6.2-.1-7.6 3.1s-1.3 5.1.9 24.9c.5 5.2 1.8 20.1 2.8 33.1l1.9 23.7 3.7 5c2 2.8 5.5 9 7.8 13.9 4.1 8.6 4.2 9 4.5 20.8.2 9.4.7 13 2.3 16.7 2.8 6.4 2.6 11.7-.5 16.3-2.9 4.2-2.8 4.9 1.6 13.7 4.5 8.8 4.1 9.8-3.6 11-1.4.3-1.9 1-1.7 2.6.3 1.9-.1 2.2-2.7 2.2-3.7 0-3.6-.6-1.1 14 1.1 6.3 2.3 16.3 2.7 22.2l.6 10.8H512V0H0z"/><path d="M320 87.8c0 .6.4 2.1.9 3.4s1.4 4.2 2 6.5c1.4 5.2 3.4 5.5 6.1 1 2.5-4 2.5-6.9.1-9.1-2.2-2-9.1-3.4-9.1-1.8m-131.3 7.7c-2 .7-4.4 1.8-5.2 2.5-2.6 2.1-1.8 6.3 2.1 10.8 4.4 5.2 6.4 5.4 6.4.7 0-1.8.5-5.7 1.1-8.5.6-2.9.7-5.6.3-6-.5-.5-2.6-.3-4.7.5m1.4 188.4c-.9.6-1.1 1.8-.7 3.4.3 1.4.2 2.9-.4 3.2-.5.3-1 1.5-1 2.5 0 2.1-3.2 3.4-6.6 2.8-1.7-.3-1.9.3-1.6 4.5.4 4.6.3 4.8-3.2 6.2-1.9.8-4.9 1.5-6.7 1.5-3.5 0-3.5-.4.1 12 1 3.6 3.1 10.5 4.5 15.5 4.9 16.6 8.7 28 9.8 29.2.7.6 3.3 1.4 5.8 1.8l4.6.7.6-3.9c.7-4.1-.6-21.2-2.6-32.8-.6-3.9-1.1-12.2-1.1-18.5 0-10.5.2-12 2.8-17.7 1.6-3.5 3.5-6.8 4.2-7.4 2.8-2.3 1.6-3.9-2.8-3.9-2.4 0-4.9.4-5.7.9M338 319.8c0 .5.7 1.7 1.5 2.8 1.4 1.8 1.4 1.8 1.5-.9 0-1.7-.5-2.7-1.5-2.7-.8 0-1.5.4-1.5.8"/></svg>