<svg xmlns="http://www.w3.org/2000/svg" width="682.667" height="512" version="1.0" viewBox="0 0 512 384"><path d="M0 192v192h66c36.3 0 66-.1 66-.3 0-.7-14.3-32.3-22.5-49.7-13.8-29.2-14.5-31.7-11-39.2 2.8-6.1 3.2-9.6 1-10.4-2.3-.9-1.8-2.2 1.6-4 2.3-1.1 2.8-1.9 2-2.7-2.2-2.2-.5-21 2.6-27 1.6-3.1 4-3.4 10.3-1.2 8.9 3.1 12.8 1.3 17.8-8.5 1.7-3.4 4.5-6.7 7.2-8.8 2.5-1.8 7.1-5.4 10.3-8s7.9-5.4 10.5-6.2l4.7-1.5.8-27.4c.8-30.1 1-29.1-5.3-29.1-4.1 0-24-9.5-24-11.5 0-.7.9-2.4 2-3.7 1.4-1.9 1.8-3.4 1.3-6.1-.5-3.6-.5-3.6 3.7-4.3 4.4-.7 11-6 11-8.8 0-.8-1.5-2.7-3.3-4.3-6.3-5.5-8.7-9.6-8.7-14.6 0-4 .3-4.7 1.9-4.7 1.1 0 2.1.4 2.3 1 .2.5 2 1.6 4 2.5 3.5 1.4 3.8 1.4 4.8-.4 1.2-2.4 1.3-9.1.1-9.1-.5 0-2.5.7-4.4 1.5-3.4 1.4-8.7 2-8.7 1 0-.2.5-1.6 1.2-3 1.4-3.1 5.8-5.9 11.8-7.5 5.6-1.5 7.6-3.2 8.4-7.4.8-4.4 10.1-17.6 15.1-21.7 5-4 14.4-8.3 21.1-9.7 19.6-4.2 56.1-3.6 66.4 1 10.5 4.7 19.5 12.3 25.7 21.7 4.7 7.1 6.8 9.1 9.5 9.1 2.6 0 10.8 3.8 10.8 5.1 0 .5-1.1 1.1-2.5 1.5-3.4.9-3.2 3.5.9 12.5l3.4 7.3-2.8 3.6c-1.5 1.9-3.9 4.6-5.4 5.9l-2.5 2.4 2.4 4.6c1.3 2.5 4.4 7 6.9 9.9 7.1 8.3 5.8 13.9-3.8 16.3-6.2 1.5-7.1 4-5.7 16.1 1.7 14.5 4 40 5.1 55.1.9 13.1 1.1 13.9 3.9 17.5 3.9 4.8 11.7 21.3 13.1 27.7.7 3 .8 7.9.5 12.1-.6 6-.4 7.9 1.4 11.9 2.9 6.5 2.7 12.3-.4 16.9-3.6 5.3-3.5 13.2.1 17.6 2.5 3 2.6 3.1.9 5-1 1.1-2.4 2-3.2 2-.7 0-1.3.9-1.3 1.9 0 1.2-1.1 2.3-2.9 2.9l-2.8 1 1.3 9.3c.7 5.2 1.8 11 2.4 12.9.5 1.9 1 8.1 1 13.7V384h188V0H0z"/></svg>