<svg xmlns="http://www.w3.org/2000/svg" width="682.667" height="512" version="1.0" viewBox="0 0 512 384"><path d="M0 18.4v18.4h4.8c2.6.1 6.9.6 9.5 1.2 2.6.5 11.2 1.5 19 2 8 .5 14.3 1.4 14.5 2 .2.5 1.2 1 2.2 1 .9 0 2.4.7 3.1 1.7.8.9 2.8 2.2 4.5 2.9S64 52 68.1 55.8s9.5 7.8 12.1 9c2.8 1.2 5.3 3.2 6.2 4.9 2.9 5.3 5.3 7.2 11.2 8.9 6.6 1.8 11.4 4.1 11.4 5.2 0 .4-1 1.2-2.2 1.7-3.3 1.5-3.3 3.8.1 11.1 4.2 9 4.1 11.7-.9 16.6-6.1 6.1-5.1 10.3 4.6 20 3.9 4 6.4 7.3 6.4 8.6 0 1.2-.4 2.2-1 2.2-.5 0-1 .7-1 1.5 0 1.6-3.8 3.8-8.2 4.9-3 .7-6.9 4-8.6 7.2-.8 1.6-.8 3.8 0 8.5.6 3.5 1.2 8 1.3 9.9.3 4.4 3.4 35.5 4 39.5.2 1.6.8 4.8 1.4 7 .5 2.2 1.2 6.4 1.5 9.3.4 4 1.5 6.5 4.4 10.5 10.7 14.6 16.1 30.3 14 40.9-.9 4.3-.9 6.3 0 8 2.3 4.7 4.2 10.1 4.2 12.2 0 1.1-1.4 5-3 8.4-3.7 7.8-4.1 14.9-1 17.7 2.2 2 2.7 6.5.7 6.5-.8 0-2 1.1-2.7 2.5-.7 1.3-2.6 2.9-4.1 3.4-3.7 1.3-3.8 4.2-.5 18.3 2.5 10.6 3.5 16.3 3.6 21v2.8h390V0H0z"/></svg>