<svg xmlns="http://www.w3.org/2000/svg" width="682.667" height="512" version="1.0" viewBox="0 0 512 384"><path d="M0 209v175h512V97.4l-13.4-6.8-13.4-6.8-2.9 1.9c-1.6 1.2-5.9 2.5-10.1 3.1-5.5.8-8.1 1.7-11 4-2 1.6-5.2 3.7-7 4.6-3.6 1.8-12.2 9.7-12.2 11.2-.1.5-4.9 4.3-10.7 8.4-5.9 4.1-12.9 9.7-15.7 12.3-2.8 2.7-6.3 5.5-7.8 6.3-2.3 1.2-2.8 2.1-2.8 5.2 0 7.3-2.4 12.4-7.1 15.9-2.4 1.8-5.8 4.4-7.6 5.8-4.5 3.7-8.7 4.8-14.7 4.1-4.5-.5-5.6-.3-7.1 1.4-2.5 2.7-2.2 6.3 1.3 15.1 3.3 8.2 3.9 11.4 2.9 14.5-.4 1.2-.1 3.7.9 5.9 1.4 3.5 1.4 3.7-.1 3.2-.9-.4-1.8-.1-2.1.8-.4.8-.9 1.3-1.3 1-.4-.2-.5 1-.3 2.8l.5 3.2-3.5-3.8c-3.5-3.6-5.8-4.7-5.8-2.7 0 1.8-15.4-6.7-17.6-9.7-3.2-4.3-28-16.9-26.7-13.6.7 1.8 1.4 2.1-11.8-3.9-5.7-2.6-14.9-6.6-20.4-8.9-5.5-2.2-15.8-6.8-23-10.1-24.1-11.1-25.5-11.6-25.5-9.8 0 .6.5.8 1.2.4.8-.5.9 0 .5 1.5-.3 1.2.1 2.7.9 3.5s1.4 3.4 1.4 6c0 3.4-.5 4.8-2.1 6-1.2.8-1.8 1.9-1.4 2.5.3.6-.1 1.8-1 2.7-1 1-1.2 2-.6 2.8 1 1.2 1.7 6.4 2.7 19.1.6 7.4-1 19.6-3.3 25.5-.4.8-.7 1.7-.7 2-.1.3-.5 1.1-.9 1.8-.5.6-.6 1.6-.2 2.1.3.5 0 1.3-.6 1.6-.5.4-.8 1.4-.5 2.2s.1 1.1-.4.8c-.6-.3-1 .3-1 1.5 0 1.3-.4 1.9-1.2 1.4-.7-.4-.8-.3-.4.4s-.7 3-2.6 5.2c-3.5 4.2-8.3 6.3-17.1 7.6-4.8.6-8.7 3.4-8.7 6.1 0 .7-.5 1.3-1.2 1.3-.6 0-2.2 1-3.5 2.2s-2.9 2.3-3.6 2.4c-12.7 2.6-17.5 3.9-18.7 4.9-2.7 2.3-8.7 4.3-16.2 5.4-18.2 2.7-22.1 3.1-29.1 3.1h-7.5l-8.5-7.4c-4.6-4.1-9.5-9-10.8-10.8-1.2-1.8-2.4-3.5-2.6-3.8-.2-.2-3.9-.7-8.3-1.1-10.4-.9-17.3-4.1-24.5-11.4-13.4-13.6-23.8-45.8-22-68.3 1.5-18.9 7-36.9 14.2-46.3 10.8-14.2 22.9-18.1 61.2-19.6l17.3-.6 1.4-3.3c1.3-3 1.1-3.7-1.6-9.7-2.3-4.8-4.2-7.2-7.8-9.8-2.6-1.8-7.1-5.3-10-7.6-3.6-2.9-6.2-4.3-8.3-4.3-2 0-4.5-1.2-7.5-3.7-3.8-3.2-4.4-4.2-3.9-6.4.5-2 0-3.3-1.9-5.2-1.4-1.4-3.1-2.7-3.8-2.9-.8-.3 0-1.2 2-2.2 3.7-1.9 3.7-1.9 1.5-5.3-1.6-2.5-1.6-2.6.5-4.3 2.7-2.2 2.8-3 .5-3-1 0-2.5 1.5-3.3 3.2-2.1 4.4-3.7 4.5-5.6.5-1.7-3.5-5.9-5.5-7.8-3.7-.5.5-1.8.5-3 0-2-.8-54.7-3-70.3-3H0z"/><path d="M144.2 104c0 1.4.2 1.9.5 1.2.2-.6.2-1.8 0-2.5-.3-.6-.5-.1-.5 1.3"/></svg>