<svg xmlns="http://www.w3.org/2000/svg" width="682.667" height="512" version="1.0" viewBox="0 0 512 384"><path d="M0 192v192h82.5c45.4 0 82.5-.2 82.5-.5s-4-8.5-8.9-18.2c-21.7-43.5-22.3-45.8-14.6-58.3 2.5-4 6.7-10.1 9.4-13.4 3-3.9 5.1-7.6 5.5-10.1.6-2.9 2-5.1 5.2-8.1 2.4-2.3 4.4-4.8 4.4-5.6s.7-3.5 1.6-6.1c2.9-8.7 13.9-16.8 27.4-20.3 3.6-.9 10.7-3.7 15.9-6.2l9.3-4.6-.5-23.5c-.4-20.6-.8-24.4-2.6-29.5-1.3-3.6-2.6-11-3.3-19.1l-1.2-13.3-2.9-.6c-1.6-.3-4.8-.6-7-.6-5.6 0-16.4-1.9-21-3.6-2-.8-6.2-1.4-9.2-1.4-2.9 0-5.7-.5-6-1-.5-.9 2.6-6.4 4.5-8 .3-.3 3.4-3.9 6.8-8.1 3.4-4.3 8.2-9.5 10.8-11.7l4.6-4.1-3.4-1.4c-1.8-.8-4.7-2.6-6.4-4-1.8-1.5-3.5-2.7-3.8-2.7s-1.5-.8-2.7-1.8c-5.1-4.2-7.1-6.4-6.5-6.9.3-.3 5.6-1.5 11.8-2.5 6.2-1.1 11.4-2.1 11.7-2.4.2-.2-.2-5.6-.9-12-1.1-9.8-1-11.8.1-12.5 2.4-1.5 4.3-1 8.5 2.4 17.2 13.3 15.4 12.4 25.6 13.1 6 .5 15.3.1 26.3-.9 9.4-.9 28.5-1.9 42.5-2.1 14-.3 26.9-.7 28.5-.9 2.5-.4 3.6-1.5 6-6.2 1.7-3.1 4.3-6.9 5.9-8.5 2.6-2.6 3-2.8 5-1.5 1.3.9 2.2 2.7 2.4 4.8.2 1.9.8 3.8 1.3 4.3.5.6.9 2 .9 3.2 0 3.4 2.2 5 8.9 6.4 8.8 1.8 17.1 9.6 17.1 15.8 0 1.6 1.6 2.2 11 4.1 14.3 2.9 21 4.9 21 6.4-.1 1-18.4 10.5-25.9 13.4-2.3.9-2.2 1 1.8 2.7 4.1 1.9 5.6 4.1 4.6 6.8-.9 2.2-10.8 6.4-20.5 8.6-4.7 1.1-9.8 2.5-11.3 3.1-2.7 1.1-2.7 1.1-1.1 3.6 1.5 2.3 1.6 3.6.5 10.8-1.6 11.7-1.4 17.5 1.4 42.2 2.6 22.4 2.6 25.2-.1 39.9-.8 4.3-1.4 8.6-1.4 9.6 0 1.1 2.9 4.1 6.8 7.1 11.1 8.7 14.8 13.3 20.5 25.2 2 4.3 3.7 8.1 3.7 8.5s.6 1.9 1.4 3.3c2 3.9 3.9 12.5 3.8 17.8-.1 5-3.7 13.8-6.4 15.9-1.4 1-1.8 2.7-1.8 6.9 0 3.1-.5 7.1-1.2 8.9-.9 2.5-.8 6.6.7 19.6 1 8.9 2 18.9 2.2 22.1l.5 5.7H512V0H0z"/><path d="M193.7 316.3c-1.8.7-2.7 1.7-2.3 2.7 3.1 9.9 5.1 14 6.7 14 2.3 0 5.2-2.9 4.5-4.5-.2-.7.2-2.1.9-3.2.8-1 1.5-3.7 1.5-6.1V315l-4.2.1c-2.4.1-5.6.6-7.1 1.2"/></svg>