<svg xmlns="http://www.w3.org/2000/svg" width="682.667" height="512" version="1.0" viewBox="0 0 512 384"><path d="M0 192v192h65c35.8 0 65-.2 65-.4s-3.5-7.5-7.9-16.2c-19-38.6-21.1-44.7-17.9-52.1 2-4.4 9.2-15.3 14.1-21.1 3.2-3.8 4.6-6.6 5-9.5.4-3.2 1.5-5 5-8.3 3.4-3.1 4.7-5.2 5.2-8.2 1.8-10.9 14-20.6 31.3-25 3.7-1 8.4-2.7 10.4-4s6.5-3.3 10-4.5l6.3-2.3-.3-3.9c-1.5-27.6-2.5-38.2-3.6-40.4-3.4-6.7-5.9-19.7-6-30.8l-.1-11.3h-7.6c-9 0-23.4-2.5-26.7-4.6-2-1.3-3.1-1.4-7.3-.3-2.7.7-5.2 1-5.5.6-1.8-1.7 7.8-15.1 18.9-26.4 3.9-4 6.9-7.4 6.6-7.5-.2-.2-2.1-1.2-4.1-2.2-5.3-2.7-15.3-10.9-15.3-12.6 0-1.6 2.4-2.4 12-3.9 10.4-1.8 10.1-1.2 7.6-12.7-2.4-11.4-3.1-21.5-1.6-22.1.6-.2 7.6 6.6 15.5 15.1l14.3 15.4 2.6-1.8c4.2-3.1 13.3-4.8 36.5-7 24.3-2.2 42-2.6 48.1-.9 2.2.6 5.2 2.2 6.7 3.6l2.6 2.5 4.2-2.5c3.3-2 5.5-4.8 11.6-15.3 4.1-7.1 7.9-13.3 8.3-13.7s1.1 6.3 1.4 14.9l.5 15.6 3.1 3.2c1.7 1.8 3.7 5.2 4.4 7.6l1.3 4.4 8.4 1.8c13 2.7 21.3 5.2 21.8 6.6.4 1.2-22.7 13.1-25.8 13.2-.8.1.5 1.1 3 2.3 9.8 4.8 3.8 10.1-18 15.7-6.3 1.6-11.7 2.9-11.9 3-.2 0 .4.9 1.5 2.1 1.6 1.8 1.8 3.3 1.5 9.8-.7 13.7-.4 18.4 2.3 38.1 4.1 29.8 6.6 55.1 5.5 54.4-.4-.2-1.5-3.4-2.4-7.1-2.7-10.3-3.8-10.2-3.1.4.3 5 .9 10 1.4 11.1.4 1.1 3 3.7 5.8 5.8 7 5.3 11.8 11.2 15.9 19.9 7.9 16.6 10.6 27.6 9.1 35.9-.4 1.9-2.3 5.7-4.3 8.3-3.2 4.2-3.6 5.4-3.9 11.8-.5 14.2-.2 25.3.7 31.1.5 3.2 1.2 10.1 1.5 15.1l.7 9.3H512V0H0z"/><path d="M171.6 308.1c-1 .6-4.2 1.2-7 1.3-4.3.1-6 .8-9.3 3.4-2.3 1.7-5.1 3.2-6.4 3.2-1.8 0-10 2.5-11.6 3.5-.2.1 1.7 6 4.1 13.1s7.2 21.6 10.6 32.1l6.3 19.3h7.9c7.9 0 8-.1 7.4-2.3-1.8-6.3-2.6-24.6-1.6-38 1.1-14.2 2.5-27.4 3.6-33.5.7-3.5-.5-4.1-4-2.1"/></svg>