<svg xmlns="http://www.w3.org/2000/svg" width="682.667" height="512" version="1.0" viewBox="0 0 512 384"><path d="M0 192v192h130l-.9-2.3c-.5-1.2-4-8.5-7.9-16.2-14.6-29.4-18.2-38.1-18.2-44.4 0-4.6 6.5-16.3 14.2-25.6 4.2-5 5.7-7.7 6.1-10.8.4-3.2 1.5-5 5-8.3 3.2-2.9 4.6-5.2 5.1-8 1.1-5.5 2.8-8.4 7.9-13.1 5.6-5.2 14.8-9.9 23.6-12.2 3.6-.9 8.6-2.9 11.1-4.3 2.5-1.5 6.9-3.4 9.8-4.3l5.3-1.7-.6-9.2c-1.4-21.7-2.6-35-3.4-36.5-2.9-5.7-5.4-19.3-5.5-29.8l-.1-11.3h-7.7c-8.8 0-21.2-2.2-26.4-4.6-2.9-1.4-4.2-1.5-7.3-.5-5 1.4-7.1 1.4-7.1-.2 0-2 13-18.7 20.3-26 3.8-3.8 6.7-7 6.5-7.1-6.4-3-19.4-12.3-20.3-14.5-.7-1.8 1.2-3.1 4.8-3.1 2.6 0 16.8-2.9 17.5-3.5.2-.2-.6-4.8-1.7-10.2-2.3-11.5-3.1-21.4-1.6-22 .6-.2 7.4 6.4 15 14.7 9.9 10.6 14.4 14.8 15.5 14.3 9-3.9 15.9-5.3 37-7.2 23.8-2.2 42.9-2.7 49.4-1.2 2.1.5 5.1 2.1 6.6 3.6l2.8 2.7 4.5-2.6c2.5-1.5 4.8-3.5 5.2-4.4.3-.9 3.9-7.1 7.8-13.7l7.2-12 .6 13c.4 7.1.7 14.2.8 15.7.1 1.7 1.5 4.4 3.5 6.6 1.9 2.1 3.7 5.4 4.1 7.5.8 4.1-.8 3.4 17.4 7.7 11.4 2.6 14.1 3.6 14.1 5 0 1.2-23.6 13-26 13-.8 0 .6 1 3 2.2 9.7 4.9 3.7 10.3-17.5 15.5-6 1.5-11.1 2.8-11.2 2.8s.5 2.2 1.5 4.7c1.4 4 1.5 5.6.4 12-1.3 7.8-1.2 9.6 4.3 53.3 4.2 34.3 4.3 39.4.4 27.2l-1.7-5.2v7c0 10.3.7 11.8 6.4 16.2 7.2 5.3 11.9 11.3 16.3 20.7 11.1 23.3 11.9 35.3 3.1 45.3-2.1 2.4-2.9 4-2.5 5.6.7 2.5.7 2.7-.1 16.7-.4 6.2-.1 13.6.6 18 .6 4.1 1.4 11.4 1.7 16.3l.5 8.7H512V0H0z"/><path d="M170 308.6c-2.5.8-5.9 1.4-7.6 1.2-2.2-.2-4.1.7-7 3-2.2 1.8-5 3.2-6.5 3.2s-4.8.9-7.3 2l-4.6 1.9 2.4 6.8c1.3 3.7 6.1 18.2 10.6 32l8.2 25.3h7.9c7.2 0 8-.2 7.5-1.8-1.6-5.2-2.8-21.9-2.2-31.7.7-12.2 3.1-35.2 4.2-40.3.7-3.6.7-3.6-5.6-1.6"/></svg>