<svg xmlns="http://www.w3.org/2000/svg" width="682.667" height="512" version="1.0" viewBox="0 0 512 384"><path d="M0 192v192h63.5c34.9 0 63.5-.2 63.5-.3 0-.2-3.5-7.8-7.9-16.8-16.8-34.9-19-42-15.5-49.5 2.8-6 8.2-14.4 13.2-20.2 3.2-3.8 4.7-6.7 5.4-10 .6-3.4 2-5.8 5.1-9.2 3-3.1 4.7-6 5.6-9.5.7-2.7 2.3-6.4 3.7-8.2 5.3-7 16.1-13.4 27.4-16.3 2.5-.6 8.4-3 13.1-5.3l8.6-4.2.6-22.5c.7-22.2.5-24.2-2.7-35-1.7-5.9-3.7-25.8-2.9-28.8.4-1.7-.4-2-8.4-2.5-11.5-.7-24-3.4-27.4-5.8-2.5-1.8-2.9-1.8-7.4-.3-3 1.1-5 1.3-5.6.7-1.3-1.3 9.3-15.5 19.3-25.7 4.3-4.4 7.6-8 7.5-8.1-.1 0-4-2.6-8.7-5.7-9.6-6.4-13.8-10.4-12.4-11.7.5-.5 5.9-1.7 11.9-2.6 6.1-.9 11.3-1.9 11.6-2.1s-.2-4-1.2-8.5c-2.3-10.7-3.5-22.9-2.1-22.9.9 0 24.1 23.1 27.9 27.8l1.9 2.4 3.7-2.2c7.2-4.3 39.9-8 69-8 15.6.1 20.4 1 23.5 4.5l2.2 2.6 4.1-2.4c3.3-2 5.2-4.6 10.7-14.5 3.7-6.6 7.7-13.3 9-14.9l2.3-2.8-.6 5.8c-.4 3.2-.1 10.8.5 17 1.1 10 1.5 11.5 4 14.2 1.6 1.6 3.4 4.9 4 7.2l1.3 4.1 15.5 3.9c8.6 2.1 15.7 4.3 15.9 5 .5 1.3-15 9.5-23.2 12.3l-5 1.7 4.8 2.1c10.8 4.8 3 11-20.8 16.3-4.9 1.1-9.1 2.2-9.3 2.4s.4 1.5 1.4 3c1.6 2.4 1.6 3.9.7 16-.8 10.3-.7 16.4.4 27.1 1.2 11.9 1.8 48.3 1.1 60.9-.3 3.7-.1 4.1 4.2 6.4 8.2 4.5 14.6 12.1 20 23.3 11.6 24.6 12.5 35 3.9 45.7-2.8 3.5-3.1 4.5-2.5 8.1.4 2.7.1 5.2-.9 7.7-1.8 4.3-1.3 17.2 1.1 30.3.8 4.1 1.4 9.9 1.4 12.7v5.3h182V0H0z"/><path d="M249 206.2c-1.9.5-6.5.8-10.2.6-3.8-.2-6.8-.2-6.8-.1 0 .8 7.6 3.3 9.9 3.3 1.4 0 4.9-1.1 7.6-2.4 5.3-2.6 5.2-3-.5-1.4m50 36.8c0 .8.5 2.2 1 3 .9 1.3 1 1.3 1 0 0-.8-.5-2.2-1-3-.9-1.3-1-1.3-1 0m-127.5 67c-1.1.5-4.2.9-6.9.9-4.1.1-5.5.6-8.7 3.5-2.3 2.1-5.3 3.7-7.6 4.1-3.6.6-11.3 3.4-11.3 4.1 0 .2 2.3 7.4 5.1 16.1s7.2 22.3 9.8 30.3l4.7 14.5 6.9.3 7 .3v-22.3c0-20.1 1.5-38.6 4.1-50.6.5-2.4 0-2.5-3.1-1.2"/></svg>