<svg xmlns="http://www.w3.org/2000/svg" width="682.667" height="512" version="1.0" viewBox="0 0 512 384"><path d="M0 192v192h63c34.7 0 63-.2 63-.4s-3.2-7-7.1-15.2c-17.6-36.8-19.3-42.7-14.8-51.5 2.9-5.8 8-13.5 13.3-20.3 3.4-4.5 4.6-6.8 4.6-9.4 0-2.8.9-4.4 4.5-7.9 3.4-3.5 4.9-5.9 6.2-10.7 3-10.9 14.5-19.9 30.8-24.1 3.9-1 8.2-2.7 9.8-3.7 1.5-1.1 5.3-3 8.5-4.3l5.7-2.3.3-16.9c.3-18.4-.7-28.5-3.7-38-2.1-6.5-4.6-28.3-3.6-31.4.6-1.7.1-1.9-3.7-1.9-5.4 0-23.2-2.7-27.6-4.1-1.8-.6-3.9-1.8-4.8-2.6-1.3-1.3-2.2-1.4-5.3-.4-4.6 1.3-8.1 1.4-8.1.2 0-2.2 15.1-20.6 22.7-27.7l5.5-5.1-4.4-2.5c-5.7-3.4-16-11.5-17.2-13.5-1.2-2.3.3-2.8 11.4-4.3 5.4-.7 10.4-1.6 11-2 .9-.6.8-2.7-.4-8.6-2.2-11-3.1-23.4-1.8-23.4.5 0 7.5 6.8 15.5 15.1l14.5 15.1 2.5-1.7c9.1-5.9 80.6-11.1 89.8-6.5 1.3.6 3.3 2.3 4.4 3.5l2 2.4 4.4-2.9c3.4-2.3 5.6-5.2 10-13.2 6.7-11.9 10.9-18.8 11.6-18.8.3 0 .3 2.8-.1 6.3-.3 3.5-.1 11.2.6 17.3 1.1 9.7 1.5 11.2 4 13.9 1.6 1.6 3.4 4.8 4 7l1.2 4.1 13.6 3.2c15 3.7 18.2 4.7 18.2 6 0 1.1-19.4 10.6-25 12.3l-4.2 1.3 5.1 2.2c3.7 1.7 5.1 2.8 5.1 4.3 0 4.1-10.7 8.9-28.3 12.6-7.5 1.7-7.7 1.8-6.1 3.6 2 2.2 2.4 8 1.2 18.3-.7 6-.5 12.7 1.1 29.5 2.8 28.7 3.8 58.5 2.2 59.5-1.7 1.1-2.1.5-3.6-5.1l-1.3-4.8-.1 5.3c-.1 4.1.3 5.4 1.7 5.9 2.5 1 11.2 7.2 15 10.7 4.7 4.4 8.4 10.6 13.6 22.8 8.7 20.3 9.1 28.4 1.8 38.3-3.1 4.3-3.7 5.9-3.9 11-.1 3.3-.5 9.6-.8 14.1-.4 4.5-.1 11.4.5 15.5s1.4 11.1 1.7 15.6l.6 8.3H512V0H0z"/><path d="M248 206.5c-3 .7-7.7 1.1-10.5.9-5-.4-5-.4-2 1.1 4.1 2 9.2 1.8 14.3-.5 2.3-1 4.2-2.1 4.2-2.5 0-.3-.1-.4-.2-.4-.2.1-2.8.7-5.8 1.4M170.5 311c-1.1.5-4.1.9-6.7.9-4 .1-5.4.7-8.7 3.6-2.1 1.9-4.8 3.5-6 3.5-2.1 0-10 2.8-11.4 4-.8.7 2.3 11.1 14.5 48.8l3.9 12.2h15.1l-.8-3.2c-1.2-5.8-.6-37.8 1.1-49.8 3.2-23.4 3.3-21.8-1-20"/></svg>