<svg xmlns="http://www.w3.org/2000/svg" width="682.667" height="512" version="1.0" viewBox="0 0 512 384"><path d="M0 192v192h62.5c34.4 0 62.5-.2 62.5-.4s-4.3-9.3-9.5-20.3c-11.3-24-14.9-34.1-14-39.2.9-4.9 6.1-14 13.4-23.5 4.5-5.9 6.2-9 6.7-12.4s1.6-5.4 4.8-8.4c2.9-2.9 4.4-5.4 5.4-9.2 3.1-12 14.8-21.6 32.1-26.1 3.3-.8 7.7-2.5 9.8-3.8 2-1.2 6-3.1 8.8-4.3l5-2-.1-22.5c0-21.4-.1-22.7-2.7-30.4-2.7-8.3-5.3-27.7-4.4-32.5l.6-2.7-7.7-.7c-12.7-1.2-24.3-3.5-28.3-5.8-3.2-1.8-4.2-1.9-7-.9-4.3 1.5-6.9 1.4-6.9-.3 0-2.2 8.7-13.2 18.7-23.7l9.2-9.5-4.2-2.1c-5.5-2.7-17.7-12.9-17.7-14.8 0-.8 1.3-1.6 3.3-1.9 1.7-.3 6.8-1 11.2-1.7 4.4-.6 8.3-1.5 8.8-1.9.4-.3.1-3.5-.7-7.1-.8-3.5-1.8-10.6-2.2-15.8-.7-9.2-.7-9.3 1.4-8.2 1.1.6 3 2.3 4.2 3.8 1.2 1.6 7.2 8 13.4 14.3l11.3 11.5 2.9-1.7c7-4.1 38.2-7.7 68.9-8.1 17.5-.2 22.1.7 25.4 4.9l2 2.5 4.3-2.5c3.1-1.8 5.2-4.1 7.2-7.8 5.8-10.7 13.7-23.8 14.5-23.8.4 0 .6 3.3.4 7.2-.3 4 0 11.7.5 17 .8 8.8 1.2 9.9 3.9 12.7 1.7 1.7 3.5 4.9 4.2 7.5.9 3.6 1.6 4.6 3.1 4.6 2.8 0 25.6 5.7 28 7 1.1.6 1.8 1.5 1.5 2.1-.9 1.4-14.9 8.2-22.4 11-5.9 2.1-6.2 2.4-4 3.2 8.5 3.3 9.5 4.9 5.2 8.7-3.1 2.8-13.3 6.5-26 9.5-7.2 1.7-7.2 1.7-5.7 4 1.3 2 1.4 4.8.9 17.7-.6 12.5-.3 18.7 1.4 33.8 2.4 20.8 3.9 59.6 2.2 56.9-.6-.9-1.9-5.4-3-10l-1.9-8.4-.1 9.1-.1 9.1 6.5 3.9c3.6 2.1 8.6 6 11.1 8.6 8 8.5 19.4 35.5 19.4 45.6 0 5.4-2.9 12.5-6.7 16.4-2.2 2.3-2.5 3.2-1.9 7.1.5 3.1.2 5.7-1 8.6-1.5 3.7-1.5 5.5-.4 17.4.7 7.3 1.5 16.7 1.7 21l.5 7.7H512V0H0z"/><path d="M246.5 207.1c-1.6.6-5.7.8-9 .5-5.8-.5-5.9-.5-3 .9 4.2 2 11.4 1.8 15.5-.5 3.9-2.1 1.9-2.6-3.5-.9M170 312c-1.4.4-4.5.8-6.9.9-3.5.1-5.1.8-8.2 3.6-2.2 1.9-4.9 3.5-6.1 3.5-1.3 0-4.6 1-7.4 2.1l-5.2 2.2 3.8 11.1c2 6.1 6.3 19.5 9.5 29.8l5.8 18.8h14.2l.1-22.8c.1-21.2.8-29.5 4-47 .7-3.4.4-3.5-3.6-2.2"/></svg>