<svg xmlns="http://www.w3.org/2000/svg" width="682.667" height="512" version="1.0" viewBox="0 0 512 384"><path d="M0 192v192h62c34.1 0 62-.1 62-.3s-4.1-9-9.1-19.7c-9.7-20.9-13.9-32-13.9-36.9 0-4.1 6.4-16.2 13.7-25.9 4.3-5.7 6.2-9.2 6.7-12.3.5-3.2 1.8-5.5 5.1-9 2.5-2.7 4.5-5.8 4.5-6.9 0-4.5 5.1-13.1 10.3-17.2 6.1-4.8 15.6-9.4 23-11 2.9-.6 5.9-1.8 6.8-2.5.9-.8 5.2-2.9 9.5-4.8l7.8-3.4-.2-8.8c-.6-25.1-1.6-37-3.3-42.1-2.7-7.9-5.1-23.5-4.7-30.7l.3-6.4-6.5-.6c-13-1.3-25.6-3.7-29.2-5.8-3.3-1.8-4.3-1.9-8.5-.9-2.8.6-5.2.7-5.7.2-1.3-1.3 9.1-14.7 19.5-25.3l8.7-8.8-3.2-1.5C151 101 138.1 91 136.9 88.9c-1.2-2.3-1.7-2.1 12.1-4.3 5.7-.9 10.8-2 11.2-2.4s.4-2.3-.2-4.1c-1.8-6.2-4.1-26.4-3.2-27.3.6-.6 6.9 5.3 15.9 14.8 14.9 15.5 15 15.6 17.4 14.1 6.3-4.2 29.9-7.3 63.4-8.4 22-.7 28 .2 31.8 4.7l2.4 2.8 4.3-2.9c3.4-2.3 5.8-5.6 12.2-16.6 4.3-7.6 8.2-14.1 8.7-14.6.4-.4 1.1 6.9 1.4 16.3l.5 17.1 3.1 2.8c1.8 1.7 3.5 4.7 4.3 7.5 1 3.8 1.7 4.8 3.8 5.1 13.4 2.5 30 7.2 30 8.6 0 1.1-17.8 10.1-23.5 11.9-4.3 1.3-6.8 3-4.6 3 .7 0 2.8.7 4.7 1.6 4.4 2.1 4.6 5.4.5 8.4-3.3 2.3-12 5.3-22.1 7.5-12.4 2.8-11.4 2.4-9.7 4.3 2.6 2.9 3 6.9 1.6 16.9-1.2 8.7-1.1 11.7 1 32.2 1.3 12.4 2.5 31.1 2.7 41.6l.4 19-2.4-9-2.4-9-.1 8.6c-.1 9.6-.1 9.6 7.9 14.1 10.1 5.8 18.8 19 25.5 38.9 4.4 12.8 2.9 24.6-3.9 30.8-2.3 2.2-2.5 2.9-2 7.7.5 3.6.2 6.1-.8 8.1-1.5 3.1-1.1 16 1.1 34.3.6 4.7 1.1 9.1 1.1 9.7 0 1 18.8 1.3 90.5 1.3H512V0H0z"/><path d="M248 207.2c-1.4.5-5.6.8-9.5.5-6.5-.5-6.8-.4-4 .9 4.4 1.9 12.4 1.7 16.5-.6 2.6-1.4 3-1.9 1.5-1.9-1.1 0-3.1.5-4.5 1.1M169 313c-1.4.4-4.2.8-6.4.9-2.9.1-4.8.9-7.7 3.6-2.3 2.1-4.9 3.5-6.5 3.5-1.4 0-4.8 1-7.5 2.1-3.8 1.7-4.8 2.6-4.4 3.8 1.4 3.7 8.5 25.7 13.1 40.8l4.9 16.3h14.6l-.6-10.8c-.7-11.6 1.4-41.3 3.9-54 1.5-7.6 1.4-7.7-3.4-6.2"/></svg>