<svg xmlns="http://www.w3.org/2000/svg" width="682.667" height="512" version="1.0" viewBox="0 0 512 384"><path d="M0 192v192h113.7l-3.5-7.2c-7.3-15.3-15.5-34.6-17.3-40.8-1.6-5.3-1.7-7.1-.8-10 1.7-5.2 7.3-14.9 13-22.6 3.4-4.5 5.6-8.7 6.5-12.3 1.1-4.2 2.4-6.6 5.4-9.4s4.1-4.8 4.6-8c1.8-12 16.1-24.1 33.5-28.1 3.4-.8 6.9-2.2 7.9-3.1.9-.9 4.8-2.9 8.5-4.4l6.8-2.9-.2-23.1c-.2-19.8-.5-24-2.1-28.6-3-8.8-5.2-22.6-4.8-30.8l.3-7.5-8.6-.6c-13-1-23.3-3-27.4-5.5-3.1-1.8-4.2-2-7.3-1.1-4.9 1.3-7.2 1.3-7.2-.2 0-2.1 13.6-19.1 21.3-26.6l7.5-7.2-4.1-2.2c-5.7-2.9-18.9-13.7-18.4-15.1.2-.7 5.6-2.1 12-3.1 9.6-1.6 11.7-2.3 11.7-3.7 0-.9-.9-7-2-13.4-2.4-14-2.5-17.5-.6-17.5.8 0 8.1 6.9 16.2 15.4 13.8 14.4 14.9 15.3 16.8 14.1 6.7-4.3 30.7-7.4 63.3-8.2 20.5-.5 23.8-.4 27.8 1.1 2.5 1 5.2 2.7 6 3.9 1.3 1.8 1.8 2 3.3.9.9-.7 2.8-1.7 4.2-2.3 1.7-.7 4.9-5.2 10.5-15 4.4-7.7 8.7-14.7 9.6-15.5 1.5-1.4 1.6-.8 1.2 7.3-.3 4.8 0 13 .5 18 .8 7.7 1.3 9.6 3.1 11.1 1.3.9 3.1 4.2 4.1 7.2l1.9 5.5 6.4 1.2c6.2 1.1 13.6 3 22 5.5 2 .6 3.7 1.7 3.7 2.3 0 1.4-16.3 9.7-24.2 12.4l-5.3 1.8 3.6 1.2c4.3 1.4 7.4 4.4 6.6 6.5-1.3 3.4-12.4 8.1-26.2 11-11.1 2.4-10.9 2.3-9.1 4.1 2.3 2.4 3 8.2 1.7 15-1.4 8.1-1.4 13.6.4 34 1.5 18 2.1 38.4 1.6 52.5l-.3 8.5-1.3-4-1.3-4-.1 4.6-.1 4.5 6.1 3.4c9 5.1 15.2 12.3 20.5 23.8 11.6 24.8 12.4 36.8 3.1 47.8-2.3 2.7-2.7 4.1-2.6 8.6.1 3-.4 6.5-1 7.7-1.2 2.2-.9 9.5 1.6 37.8l.5 5.3H512V0H0z"/><path d="M239 207.7c-4.9 1.1-8.4 1-14.5-.3-1.6-.4-1.4-.2.5 1 5.1 3 14 2.9 19-.3 2.5-1.7.7-1.8-5-.4m-84.2 107.2c-3.5.5-5.7 1.6-8.1 3.9-1.8 1.8-4.8 3.4-6.7 3.8-1.9.3-5.6 1.5-8.1 2.7l-4.6 2.1 2.5 7.5c1.4 4.2 5.3 16.8 8.7 28.1l6.1 20.5 7 .3 6.9.3.1-17.3c0-15.4 2.9-44.4 5-51.1.6-1.9-.3-2-8.8-.8"/></svg>