<svg xmlns="http://www.w3.org/2000/svg" width="682.667" height="512" version="1.0" viewBox="0 0 512 384"><path d="M0 192v192h108.8l-6.5-14.2c-12.7-28.1-14.6-33-14.7-38.8-.1-6.7 3.7-14.8 12.9-27.3 4.4-5.9 6.4-9.5 6.9-12.7.5-3.3 1.8-5.6 5.1-9.1q4.5-4.8 4.5-7.5c0-1.5 1.2-5.2 2.7-8.2 4.3-8.8 15-16.2 29.2-20.1 3.9-1.1 8.4-2.8 9.9-3.9 1.5-1 5.6-3.1 9.1-4.5l6.5-2.5-.3-22c-.2-21.3-.4-22.4-3.2-31.9-2.4-7.9-3.1-12.4-3.6-23.1l-.6-13.2h-4.1c-2.3-.1-9.7-.9-16.4-1.9-9.2-1.4-13.2-2.4-15.4-4.1-2.7-2-3.3-2.1-7.8-1-6.2 1.5-7.7.7-5.4-2.8 3.9-6 17.5-22.1 22.4-26.5l5.1-4.6-2.8-1.7c-8.3-5.1-11-7-14.9-10.6-2.4-2.2-4.4-4.6-4.4-5.3 0-.8 1.8-1.6 4.3-2 12.9-1.9 18.3-2.9 19-3.5.5-.4.1-4.1-.7-8.1-.8-4.1-1.8-11.1-2.2-15.7-.6-7-.5-8.2.9-8.2.8 0 8 6.8 15.9 15l14.3 15.1 4-1.6c10.1-4.3 39.9-7.5 69-7.5 15.5 0 18.6.3 22.1 1.9 2.3 1.1 4.6 2.7 5.2 3.6.8 1.6 1.3 1.5 5.3-.8 3.5-2.1 5.4-4.4 8.9-10.4 7-12.4 12.9-21.3 14.1-21.3.8 0 .9 1.5.4 4.7-.4 2.6-.4 10.3 0 17.1.7 11.4.9 12.5 3.2 14.7 1.4 1.2 3.3 4.7 4.3 7.6 1.5 4.3 2.3 5.5 4.2 5.7 2.9.4 22.2 5 26.6 6.3 1.7.6 3.2 1.6 3.2 2.3 0 1.3-21.2 11.8-26.5 13.1l-3 .8 3.5 1.4c4.2 1.8 7 4.1 7 5.9 0 3.4-12.7 9-27.5 12-9.6 1.9-10 2.1-7.9 4.2 1.5 1.4 1.6 3.4 1 16.2-.5 10.6-.1 21.5 1.4 40.5 2.1 27 2.6 51.5 1.1 51.5-.4 0-1.3-1.5-1.9-3.3l-1-3.2-.1 4.6-.1 4.6 6.6 3.9c11.8 6.9 19.3 18 26.4 39.2 4.8 14.3 4 22.4-3 31.1-2.7 3.3-3.3 5-3.6 10.3-.2 3.5-.6 9.5-.9 13.4-.4 3.9-.1 11.3.5 16.5s1.4 11.8 1.7 14.6l.5 5.3H512V0H0z"/><path d="M233 208.1c-1.9.4-5.7.6-8.5.4l-5-.5 4 1.4c5.5 2 8.3 1.9 13-.3 4.3-2.1 2.6-2.5-3.5-1M151.1 315c-3.9.6-6.1 1.6-8.5 3.8-1.7 1.7-4.4 3.4-6.1 3.7-1.6.4-5.4 1.6-8.3 2.7-4.1 1.6-5.2 2.4-4.7 3.7.4.9 4.3 13.6 8.8 28.3l8.2 26.8h14.1l-.4-12.4c-.4-12.7 1.8-39.6 4.2-51.3 1.5-7.1 2.2-6.6-7.3-5.3"/></svg>