<svg xmlns="http://www.w3.org/2000/svg" width="682.667" height="512" version="1.0" viewBox="0 0 512 384"><path d="M0 192v192h46.6c25.6 0 46.3-.3 46.1-.8-.7-1.3-7.9-16.5-11.3-24-1.9-3.9-3.4-7.5-3.4-7.8s-1.3-3.6-3-7.4c-4.1-9.2-4-13.8.5-22.6 1.9-3.8 6.5-11 10.2-15.9 4-5.3 6.9-10.2 7.2-12 .5-4.2 2.7-8.2 6.6-11.6 2.1-1.9 3.5-4.2 4-6.6 2.4-13.1 14.3-23.2 33-28.4 4.4-1.2 9-2.9 10.1-3.8 1.2-.9 5.2-3 8.9-4.5l6.7-2.9-.7-13.6c-.3-7.5-.8-19-1-25.6-.2-7.4-1-13.7-1.9-16.4-1.8-4.9-4.8-27.1-4.4-32.2l.3-3.3-11.5-1.3c-6.3-.7-14.6-2-18.5-3-3.8-.9-9.9-1.9-13.4-2.2-3.6-.3-6.6-1.1-6.8-1.7-.6-1.7 10.8-15.7 20.4-25.1l8.3-8.1-5.3-3c-8.4-4.7-19.3-14-18-15.3.7-.7 19.3-3.9 22.7-3.9 3.3-.1 3.7-1.6 2.2-8.1-.8-3.5-1.6-10.2-1.8-14.9-.3-9.3-.9-8.6 6.3-8.2 2 .2 5.9 3.5 15.2 12.9l12.5 12.7 10.4-1.7c5.7-.9 14.4-1.9 19.3-2.3 5-.3 10.1-.8 11.5-1 1.4-.3 13.3-.4 26.5-.4 18 0 25.4.4 29.5 1.5 6.2 1.7 10 1.9 10 .7 0-1.5 11.1-19.6 13.2-21.6 1.1-1 3.7-2 5.8-2.3 4.7-.7 4.7-.7 5.5 14.7.7 13.5 1 14.8 4.1 17.3 1.4 1 2.9 3.8 3.5 6.2.6 2.5 1.6 4.8 2.3 5.3.6.5 6.5 2.2 13 3.7 6.6 1.5 13.8 3.5 16 4.5l4.1 1.7-9.5 4.8c-5.2 2.6-12.4 5.8-15.9 7-6.2 2.2-6.3 2.3-3.3 2.9 1.7.4 4.2 1.8 5.7 3.2 5.2 4.8-.2 8.5-19.6 13.4-15.3 3.8-15.7 3.9-14.2 4.8 2.5 1.6 3.7 9 2.5 15.6-1.4 7.7-1.5 16.4-.2 31 .5 6.1 1.4 19 2 28.7 1.1 16.5 1 17.9-.9 24.9-3.1 10.9-2.9 11.4 3.2 14.9 11.8 6.7 19.5 17.4 26.3 36.2 3.2 8.8 3.5 10.1 4.1 17.2.6 6.6-.5 10-5.6 17.2-3.1 4.2-3.6 5.8-3.8 11-.1 3.3-.5 8.5-.9 11.5-.3 3-.1 12.8.6 21.7l1.3 16.3H512V0H0z"/><path d="M219.8 209.7c1.2.2 3.2.2 4.5 0 1.2-.2.2-.4-2.3-.4s-3.5.2-2.2.4m-80.4 108.2c-1.8 1.1-3.5 2.4-3.8 3-.4.6-2.6 1.5-4.9 2.1-7.6 1.9-13.8 5.2-13.1 6.9 1.9 4.8 5.7 16.4 9.9 29.6 2.6 8.2 5.4 17.1 6.2 19.7 1.5 4.6 1.7 4.8 5.4 4.8h3.9l-.7-6.1c-.8-7.6 1.4-39.2 3.7-52.2l1.7-9.7h-2.6c-1.4 0-4 .9-5.7 1.9"/></svg>