<svg xmlns="http://www.w3.org/2000/svg" width="682.667" height="512" version="1.0" viewBox="0 0 512 384"><path d="M0 32.3v32.4l10.8-.5c5.9-.2 11-.7 11.5-1.1.4-.4 1.2-5.4 1.7-11.2C25.8 33.6 27.4 29 32.1 29c1.4 0 4.3 1.3 6.4 3 2.1 1.6 4.6 3 5.6 3 2.9 0 9.2 6.2 14.5 14.4 2.7 4.1 6 8.1 7.4 8.9 2 1.2 8.8 1.8 29.5 2.6 14.9.6 37.7 1.8 50.7 2.7l23.7 1.6 2.7-2.1 2.6-2.1 4 3.4c4 3.5 3.8 3.4 11.3 1.6 2.4-.6 4.5.1 4.5 1.6 0 .9 2.6 2.7 6.8 4.5 10.4 4.7 11.4 5.2 13.4 8 1.3 1.7 2.1 4.9 2.5 10.1l.6 7.5 4.7 1.7c2.6 1 5.6 2.3 6.5 3 1.7 1.2 1.6 1.4-.3 3.2-1.1 1-5.5 3.6-9.6 5.8-4.2 2.1-7.6 4.3-7.6 4.8 0 .9.4 1 10.8 4.9 5.6 2.1 6.3 2.7 6 4.9-.3 2.1-1.3 2.8-7 4.8-3.7 1.2-12.1 3-18.5 4-11.5 1.8-11.8 1.9-11.5 4.3.1 1.3.5 8.1.8 15 .6 12.1.5 12.7-2.1 19-1.5 3.5-3 8.4-3.3 10.8-.2 2.5-1.6 6.2-3 8.3l-2.5 3.8.7 23.3c.4 12.7.9 26.3 1.3 30l.6 6.8 5.6 3.6c11.9 7.5 16.8 14.5 22.3 32 4.8 15.6 5.6 28.6 2.1 35.8-.9 1.6-3.9 5.5-6.8 8.5-4.6 4.8-5.3 6.1-5.8 10.7-.3 2.8-1.4 6.9-2.5 9-2.2 4.5-4.6 21-3.7 25.3l.7 3H512V0H0zm0 61.3c0 4.1.2 7.4.5 7.4.9 0 12.6-9.2 12.2-9.6-.2-.2-3.2-1.5-6.5-2.8L0 86.1zm0 101.8v65.4l5.3-1.4c2.8-.7 6.1-1.4 7.2-1.4s4.9-1.4 8.4-3l6.4-3-.7-5.4c-1-9.2-.8-63.6.4-77.6.7-7.4 2.3-18.2 3.6-23.9s2.2-10.6 2-10.8c-.7-.7-24.7-4.2-28.8-4.3H0zm7 150.5-6.5 1.7-.3 18.2L0 384h10.5c12.2 0 10.8 1.8 12.4-15.5 1.1-12.1.4-18.4-2.5-21.7-1.1-1.2-1.3-1.8-.5-1.3 1 .5 1.2.4.7-.3-1-1.6-5.9-1.4-13.6.7"/></svg>