<svg xmlns="http://www.w3.org/2000/svg" width="682.667" height="512" version="1.0" viewBox="0 0 512 384"><path d="M0 24.7c0 13.5.2 24.4.4 24.2S1.8 43.5 3 37.5C4.2 31.4 5.9 25 6.7 23.2c1.3-2.8 2-3.2 5.2-3.2 4.1.1 6.4 1.8 10.3 7.5 3 4.6 10 17.2 12.5 22.7 1 2.1 2.4 4 3.2 4.3.7.3 12.2 1.2 25.5 2 31.1 1.9 46.1 3.2 67.3 5.5 15.1 1.7 17.6 1.8 21.1.6 4-1.4 4-1.4 7 1.8 2.3 2.6 4.1 3.5 7.8 4 2.7.4 8 2.3 11.8 4.4 9.2 4.9 10.6 7.5 10.6 20 0 7.3.3 9.4 1.5 9.8 2.3.9 1.8 2.9-1.5 5.5-1.6 1.3-3.5 3.6-4.1 5.1-.6 1.6-1.6 2.8-2.1 2.8s-.8.5-.6 1.1 4.2 2.2 8.8 3.6c4.7 1.3 9.4 3.3 10.5 4.4 2 2 2 2 0 3.5-3 2.2-7.8 3.3-23 5.4-7.7 1-14.1 1.9-14.2 1.9-.1.1.2 1.3.8 2.8.5 1.5 1.3 7 1.6 12.3.6 10.3-.5 17.6-3.8 24.2-1.1 2.1-1.9 4.7-1.9 5.8s-.5 2.6-1 3.3c-.6.7-2.6 3.3-4.5 5.9l-3.5 4.7v31.8c0 24.1.3 32.3 1.3 33.4.6.9 3.5 3.2 6.4 5.3 12 8.5 17 18.5 20.9 41.2 1.6 9.3 1.5 13.8-.4 22.1-1.2 5.3-3 8.1-9.6 14.8-4.4 4.4-5.4 6.1-5.9 10-.4 2.6-1.6 5.9-2.6 7.4-2.1 3-5.6 13.5-6.5 19.4l-.5 3.7H512V0H0zm.1 109.2c-.1 2.4.2 3.2.9 2.5s.7-1.9.1-3.5c-.9-2.3-1-2.2-1 1"/></svg>