<svg xmlns="http://www.w3.org/2000/svg" width="682.667" height="512" version="1.0" viewBox="0 0 512 384"><path d="M0 5.3C0 9 .5 11 1.8 12.2c2.8 2.7 3.6 4 7.1 12.3 1.9 4.4 4.2 9.8 5.2 12 .9 2.2 2.2 5.4 2.9 7.2 2.3 6.1 3.5 6.5 21.2 7.5 25 1.3 57.9 4.6 72.2 7.4 7 1.3 14.1 2.4 15.7 2.4s5.5.8 8.6 1.9c3.2 1 9.4 2.6 13.8 3.6 4.4.9 8.7 2.3 9.5 3s3.2 2 5.2 2.8c2 .9 4.3 2.6 5.2 3.9 3.5 5.3 3.9 23.6.7 32-.5 1.3-1.1 4.2-1.2 6.3l-.4 4 8.4 2.7c4.7 1.5 9.2 3.5 10 4.3 3.4 3.5-3.3 5.6-23.9 7.5-6.9.7-12.7 1.4-12.9 1.6s.1 2.9.8 6c2.7 13.6.6 29.2-5.2 38.5-1.2 2-4.3 7.2-6.9 11.5l-4.8 7.9v65.3l3.8 2.7c12.6 9.4 16.6 16.1 20.7 34.8 2.3 10.6 2.7 14.5 2.3 22-.6 12-3.5 18.1-11.8 25.6-4.4 4-6 6-6 8 0 1.4-.5 4.4-1.1 6.6-.7 2.2-1.3 5.3-1.4 7-.1 1.6-.5 4.1-.8 5.5-.4 1.4-.9 3.7-1.3 5.3l-.6 2.7H512V0H0z"/><path d="M85 215c-1.1.7 0 1 3.8 1 2.8 0 5.2-.5 5.2-1 0-1.3-7-1.3-9 0"/></svg>