<svg xmlns="http://www.w3.org/2000/svg" width="682.667" height="512" version="1.0" viewBox="0 0 512 384"><path d="M0 1.7c0 1 2 10.4 4.6 21 4 16.6 4.9 19.2 6.8 19.7 1.1.4 10.7 1.1 21.1 1.6 10.5.6 22.4 1.5 26.5 2s10.4 1.2 14 1.6c3.6.3 12.4 1.7 19.5 3.1 7.2 1.4 16 2.8 19.7 3.2 5.6.5 7 1 8.7 3.3 1.7 2.1 3.2 2.7 8.3 3.3 15.3 1.8 26.4 8.1 29.7 17s4.3 15.6 3.8 25c-.3 5-.9 10.4-1.2 12.1l-.7 3.1 7 1.7c8.8 2.2 13.9 5.1 12.2 7.1-1.7 2.1-9.3 3.5-24.3 4.4-7.6.4-14 1.1-14.3 1.3-.3.3 0 3.4.6 6.9 1.6 10.3 1.2 21.9-1 29-2.2 7.3-9.3 18.9-11.5 18.9-.8 0-2.9 1.3-4.6 2.8-3.1 2.8-3.2 3.1-4 14.3-.4 6.3-1 23-1.3 37.2l-.6 25.8 8.9 8.5c6.1 5.8 9.5 10 10.9 13.2 4.2 9.7 6.8 41.5 4.2 51.2-1.2 4.5-4.2 10.3-6.7 12.8-2.8 2.9-3.2 4.9-2.3 10.8.6 3.3 1 9.2 1 13.1v7.3h377V0H256C12.9 0 0 .1 0 1.7"/><path d="M76 216.5c2.7 1.6 12.6 2 13.4.6.6-.8-7.3-2.1-12.9-2.1l-3 .1z"/></svg>