<svg xmlns="http://www.w3.org/2000/svg" width="682.667" height="512" version="1.0" viewBox="0 0 512 384"><path d="M0 4.8v4.8l17.6 1.3c9.6.7 23.2 2.1 30.1 3.2 15.4 2.3 18.3 2.4 18.3.4 0-2.4 5.2-1.8 8.2.9 1.4 1.4 6.6 4 11.5 5.9 13.6 5.3 16.4 7 22 13.5 4.9 5.6 5.5 5.9 10.8 6.6 7.4.8 12.1 3.3 19.8 10.6 3.5 3.2 9.6 7.6 13.7 9.6 6.7 3.4 7.5 4.2 9.7 9.1 2.1 4.6 2.5 6.9 2.5 15.1 0 5.4-.2 11.1-.5 12.8s-.2 3.5.1 4c.4.5 5.2 2 10.7 3.4 5.7 1.4 10.8 3.3 11.8 4.3 1.9 1.9 1.9 2-.5 4.3-3.1 3.2-10.6 4.4-27.3 4.4-7.1 0-13.6.4-14.3.8-1.4 1-1.1 2.3 2.6 10 2.4 5.2 2.5 5.5.9 8.2-1 1.5-1.7 4.3-1.7 6.2 0 5.2-1.9 10.7-4 11.8-1.3.7-2 2.1-2 4 0 1.7-.8 3.4-1.9 4.2s-3.4 4.1-5.1 7.3c-1.8 3.3-4.1 7.6-5.1 9.5-1.1 1.9-1.9 4.9-1.9 6.6 0 3.1-2.1 6.4-4 6.4-.5 0-1.8-1.2-3-2.7-1.8-2.3-2.3-2.5-3.4-1.2-1.5 1.5-4.6 10-4.6 12.4 0 .7-.6 2-1.3 2.7-2.3 2.4-5.7 7.6-5.7 8.8 0 .7-.9 2.4-1.9 3.9-1.1 1.4-2.6 5.1-3.4 8.1-1.5 5.4-3.7 35.8-3.7 51.1v7.6l5.8 4.1c3.2 2.2 9 7.3 12.9 11.4 3.9 4 8.8 8.6 10.8 10.2 4.3 3.4 7.2 8.8 8.1 14.8.3 2.3 1.2 6.3 2 8.8 2.9 9.5 3.3 18.8 1.2 28.5-2.2 10.1-2.2 10.2-2 16.7l.2 4.8h378V119.9l-5.6-6.8-5.6-6.8-6.9-.5c-5.4-.4-7.8-1.1-10.9-3.3-4.7-3.3-7.4-3.4-16.2-.7-11.8 3.7-14.6 1.6-15.5-11.7-.6-8.9-.6-9.1 1.9-10 1.3-.5 5-1.2 8.1-1.6 5.7-.7 5.9-.9 11.6-7.9 3.2-3.9 7.5-8.6 9.6-10.3 3.5-3 21.2-12.3 23.4-12.3.6 0 1.5-1.9 2.1-4.3.6-2.3 1.7-6.3 2.5-8.9 1-3.2 1.5-9.3 1.5-19.7V0H0z"/><path d="M75 221.8c0 1.2 7.3 4.2 10.3 4.2 1.3 0 3.1-.6 4.1-1.3 1.6-1.1 1.6-1.5.4-1.9-3.1-1.2-14.8-2-14.8-1"/></svg>