<svg xmlns="http://www.w3.org/2000/svg" width="682.667" height="512" version="1.0" viewBox="0 0 512 384"><path d="M85.6 2.6c7.1 3.7 12.7 9.6 17 18 2.9 5.5 5.8 9.1 11.8 14.6 7.1 6.5 8.4 7.2 13.3 7.9 3.2.4 7.1 1.8 9.4 3.3 2.1 1.4 4.6 2.6 5.5 2.6 2.8 0 8 3.8 10.6 7.7 3 4.5 4.8 13.2 4.7 22.5-.1 7.6.3 8.8 3.4 8.8 3.8 0 21.3 4.8 26.4 7.2 7.2 3.5 6.9 6.9-.8 10.9-2.6 1.3-9.2 2.5-20.9 3.9-9.4 1.1-17.3 2-17.5 2-.8 0 1.3 4.7 4.4 9.7 1.7 2.8 3.1 5.8 3.1 6.7 0 1.9.3 1.8-3.7.7-4-1.2-4.7-.3-4.4 5.8.4 7.3-1.7 13.9-4.8 15.5-1.6.9-3.6 3.5-5.1 6.9-2.5 5.5-6.2 8.7-11.1 9.4-2 .3-6.8 5-6.9 6.8 0 .5-1.4 2.4-3.2 4.2-2.8 2.9-3.1 3.9-3.2 9.5-.1 5.5.3 6.8 2.8 10.1 3 3.9 3 3.9 1.2 7.2-1.7 3.1-3.4 4.2-12.3 7.6-1.9.7-2.2 1.4-1.7 3.9.8 3.8-1.6 7.7-6.1 9.5-2.5 1.1-4.6 1.2-9.1.5-3.3-.6-7.2-1-8.9-1l-3 .1L80 228c4 3.5 5.7 3.7 9.9 1.2 2.7-1.4 3.3-1.5 4-.3 1.1 1.7-1.6 7.6-4.8 10.5-1.2 1.1-2.1 2.3-2.1 2.8 0 1.7-6.1 13.3-8.2 15.5-1.2 1.3-2.9 2.3-3.9 2.3s-2.9.5-4.2 1.1c-2.1.9-2.4 2.1-3.5 11.6-.9 8.2-.9 10.8.1 11.8.6.7 5.5 5.9 10.7 11.6 21.7 23.8 22 24 29.9 27 5.3 2 9 5.7 12.1 12.1 1.6 3.2 4.6 8 6.8 10.6 7.4 8.8 10.4 17.8 10.4 31.3l.1 6.9h285.8l3.2-2.3c3.1-2.1 12.7-9.6 13.7-10.7.3-.3 2.3-2.1 4.5-3.9 4.7-4.1 10.9-11.6 15.3-18.7 2.6-4.2 3.5-7.1 4.8-16 2.1-15 5.9-22.6 16.4-32.8 4.2-4.2 8-7.6 8.4-7.6.3 0 3-1.6 5.9-3.4 2.8-1.9 7.8-4.4 11-5.6l5.7-2.1V271h-7.3c-8.5 0-15.9-2.2-18.5-5.4-.9-1.2-3.6-5.8-6-10.2-3.6-6.7-4.9-8.3-7.8-9.3-2.1-.8-3.9-2.3-4.4-3.7-.5-1.3-1.5-2.4-2.2-2.4-2.8-.1-5.1-3.1-5.9-7.6-1.3-6.8-3-8.8-9.6-11.3-6.4-2.4-9.4-4.5-11.2-7.8-1-1.9-.6-2.6 3.6-6 6.5-5.2 8.8-8 11.8-13.7 2.6-5.2 3.4-13.6 1.6-16.5-.6-1-3.6-1.7-8.3-2.2-4.1-.4-9-1.5-11-2.6-17.4-9-17.8-9.3-22.1-15.3-4.3-6.1-7.6-8-13.8-8-4.4 0-16-6.8-21.4-12.5-4.9-5.1-5.1-5.2-12.2-5.9-3.9-.4-7.6-1.2-8-1.9-1.5-1.9-4.1-9.7-4.9-14.7-1.9-10.8.3-13.5 12.8-16.4 7.5-1.8 5.7-3.1-3.8-2.8-4.7.2-9.6.1-11-.2-3.3-.9-4.6-4.5-3.2-8.8 3.4-10.1 6.6-13.1 20.3-19.2 6.4-2.7 8.7-4.5 12.3-8.8 2.4-2.9 4.7-5.5 5.1-5.8s2.9-3.5 5.5-7.2c2.6-3.8 6.3-8 8.1-9.5 2.3-2 3.7-4.5 4.8-8.3 2-7 9.7-19.5 14.5-23.8l3.7-3.2H80.7z"/></svg>