<svg xmlns="http://www.w3.org/2000/svg" width="682.667" height="512" version="1.0" viewBox="0 0 512 384"><path d="M99 .4c0 .3.8 2 1.9 3.8 1 1.8 4.3 8.7 7.2 15.3 6.3 14.3 6.6 14.8 9.5 14.1 2.4-.6 10.4 2.5 12.4 4.9.7.8 2.3 1.5 3.6 1.5 3 0 9.4 4 12.2 7.4 2.3 3 3.9 9.1 5 18.5l.7 6.4L164 75c38.4 8.2 47.6 14.8 30.7 22-5.7 2.5-21.8 5.6-33.8 6.6-4.4.4-8.2 1-8.4 1.4-.2.3 2 4.7 5 9.6s5.4 9.4 5.5 10.1c0 1.4-3.7 1.1-6.8-.6l-2.3-1.2 2.5 4c1.5 2.2 2.6 4.3 2.6 4.6 0 .4-2-1-4.4-3l-4.4-3.5v7.2c0 9.1-2 22.5-3.8 25.8l-1.3 2.5-.7-2.3c-.3-1.2-.9-2.2-1.2-2.2-.7 0-5.2 5.4-5.2 6.4 0 .4-.6.6-1.4.3-1-.4-1.8.6-2.7 3.1-1.7 5.3-2.9 6.2-2.9 2.1l-.1-3.4-2.2 2.6c-3.3 4-11.6 9.9-13.8 9.9s-2.3 1.7-.6 7.1c1.5 4.3 4 7.5 9 11.3 3.4 2.6 3.8 3.3 3.5 7-.4 4.8-3.7 7.6-12.4 10.1-3 .8-5.4 2.1-5.5 2.8s0 2.9.1 4.9c.1 2.8-.5 4.4-2.4 6.3-2.4 2.4-2.8 2.5-11.3 1.9l-8.8-.7 2.4 2.7c1.7 1.8 3.5 2.6 5.7 2.6 2 0 3.4.6 3.8 1.6.8 2.1-2.3 8.6-4.5 9.1-1.1.3-2.7 3.3-4.5 8.1-2.7 7.4-6.1 12.4-9.6 14.3-2.1 1.1-10.2-.7-22.6-5.1-4.6-1.7-9.1-3-10.1-3-1.4 0-2 1.8-3.4 10.7-1 6-1.7 11.3-1.7 11.9s3.4 3.7 7.6 6.9c4.2 3.1 15.5 13.4 25.2 22.9 9.8 9.4 19.1 18 20.7 19.1 5.8 3.6 12.8 10 15.4 14.1 1.4 2.2 5.8 6.8 9.6 10.1 11.3 9.7 15.3 15.2 18.2 24.8l1.7 5.5h240.7l8.4-6.6c4.7-3.6 9.5-8 10.7-9.7 1.2-1.8 2.7-3.7 3.3-4.4 1.1-1.3 1.2-1.5 6.5-8.3 1.9-2.4 4.6-5.6 5.9-7 5.3-5.7 11.4-13.1 11-13.4-1.8-1.7-8.5-4.6-10.5-4.6-3.9 0-8-2.6-9.4-6-1-2.5-1-3.8 0-7 3-9.1 12.9-16.6 29.8-22.6 6.2-2.2 12.8-5.3 15.7-7.5 5.7-4.2 16.3-9.3 21.5-10.4 1.9-.4 4.6-1.6 5.9-2.6 1.3-1.1 3.6-1.9 5-1.9 1.5 0 3.2-.5 3.9-1.2 1.5-1.5 1.6-4.2.2-3.3-.6.4-7.5.9-15.3 1.1-18.7.6-19.5.2-25.7-12.1-3.8-7.5-5.2-9.3-8.3-10.8-2-.9-3.7-2.4-3.7-3.1 0-.8-1.7-2.3-3.7-3.3-2.7-1.3-3.9-2.5-4.1-4.3-.1-1.4-1-4.4-1.8-6.7-1.3-3.6-2.1-4.4-6.2-5.7-2.6-.9-6.4-2.8-8.5-4.1-4.9-3.4-4.9-6.3.1-10.1 5.5-4.3 8.1-7.3 10.9-13.2 1.7-3.7 2.3-6.1 1.8-8-1-4.2-4.5-9.2-6.4-9.2-.9 0-2.2-.5-2.8-1.1-.8-.8-1.1-.7-1 .2.2 5.4-.2 5.4-5.2.5-3.2-3.2-4.8-4.2-4.5-3 .2 1 0 2.6-.5 3.4-.8 1.2-1.3 1-3.1-1-1.2-1.4-2.9-3.9-3.7-5.5-.9-1.7-1.9-3.2-2.3-3.5s-1.2-1.4-1.8-2.5c-1-1.8-1.1-1.8-1.2 1 0 3-1.5 6.4-2.3 5.5-1.2-1.3-9.7-20.9-9.7-22.4 0-.9-.5-1.6-1-1.6-.6 0-.8-1-.4-2.4 1.1-4.6-.6-4.7-4.8-.4-3.9 4.2-4 4.2-3.4 1.4.4-1.5.9-4.1 1.3-5.6l.5-2.8-5.8.4c-3.3.2-7.5.8-9.4 1.4-7.7 2.2-15.8.5-19.6-4.1-1.1-1.3-3.9-3.4-6.2-4.7l-4.1-2.2-3.8 2c-6.1 3.3-10.3 2.5-10.3-2 0-8.2 12.9-26.2 31.5-43.8 4.2-4 7.5-7.6 7.2-7.9-.9-.8-18.3 7.5-28.9 13.9-10.5 6.3-20 10.8-22.8 10.8-1.9 0-3-1.9-3-5 0-4.5 14-29.7 27.8-50 4.7-6.9 9.9-14.4 11.5-16.8 5-7.3 17.6-19.3 23.1-21.8 7.2-3.4 14.4-3.3 17.9.2 1.4 1.4 2.8 4 3.2 5.7 1.9 9.9 3.9 17.7 4.6 17.7.5 0 .9-.9.9-2 0-1.9.9-2.4 3.6-2.1.6.1 1.9-1.6 3-3.6 3.5-6.9 7.7-13.8 10.9-17.8 1.7-2.2 3.5-4.6 3.9-5.3C408 .3 376.9 0 253.6 0 168.6 0 99 .2 99 .4"/><path d="M354.9 26.7c-3 3.3-14.8 20-20.7 29.3-2.3 3.6-4.6 7-5.2 7.7-.5.7-1 1.4-1 1.7 0 .9-6.5 11.1-7.2 11.4-.5.2-.8 1-.8 1.8 0 1.3.3 1.3 2.8 0 1.5-.8 9-3.6 16.7-6.1 18.3-6.1 20.8-7.3 21.6-11 .7-3.7 4.4-10.9 7.7-15.3l2.5-3.3-1.6-5.9c-.9-3.3-2.6-7.4-3.8-9.2s-1.9-2.6-1.6-1.8c.3 1-.3 1.5-1.8 1.6s-2.5-.5-2.8-1.7c-.7-2.6-1.9-2.4-4.8.8M118.1 164.6c0 1.1.3 1.4.6.6.3-.7.2-1.6-.1-1.9-.3-.4-.6.2-.5 1.3m-4.3 5.7c-.3 1.9-.2 2.5.4 1.9s.8-1.8.6-2.8c-.3-1.4-.5-1.2-1 .9m306.8 140.6c-2.8 2.9-3.2 4.6-1.6 5.6 1.5.9 5.2-1.7 7.2-5.1 1.6-2.8 1.6-2.9-.7-3-1.4-.1-3.4.9-4.9 2.5"/></svg>