<svg xmlns="http://www.w3.org/2000/svg" width="682.667" height="512" version="1.0" viewBox="0 0 512 384"><path d="M103.5 2.7c.8 1.6 3.7 7.7 6.4 13.8 4.4 9.8 5.3 11.2 8.8 13 2.2 1.1 5.2 3 6.8 4.2 1.5 1.3 3.9 2.3 5.2 2.3s3.6.6 5.1 1.4c6.3 3.3 9.4 9.6 10.7 21.8l.6 6.7 5.2 1c26.1 5.1 32.6 6.5 38.5 8.5 8.8 3 12.1 4.8 15.2 8.1l2.5 2.7-3.2 2.8c-1.8 1.6-5.6 3.6-8.5 4.5-6.7 2-24.2 5.1-33.3 6-3.8.3-8 .8-9.3 1.1l-2.3.5 2.8 4.7c1.5 2.6 4.4 7.6 6.5 11.1 2.1 3.4 3.8 6.5 3.8 6.7 0 .3-.9 0-2-.6-2.6-1.4-2.5-1.1.5 3 1.4 1.8 2.3 3.6 2 3.8-.2.2-3.5-2.3-7.3-5.7-3.8-3.3-7.1-6.1-7.4-6.1s.1 4.1.9 9.1c1.3 8 1.3 10.2-.1 18.8-.8 5.4-2 10.8-2.5 12.2l-1 2.4v-2.6c-.1-1.5-.4-4.1-.7-5.9l-.7-3.2-2.9 4.7c-1.6 2.6-3.7 7-4.5 9.9-2.5 7.9-3.3 7.7-3.3-1l-.1-7.9-3.4 8.5c-1.9 4.7-3.5 8.7-3.5 9s-.4-.1-.9-.8c-.6-1.1-1.6-.7-4.3 1.7-2 1.7-4 3.1-4.6 3.1s.5-3.3 2.4-7.4c3.8-8.3 4-9.8 2-11.5-1.1-.9-1.6-.6-2.4 1.9-.6 1.6-1.5 3-1.9 3-1.7 0-3.3 6.8-3.3 13.9 0 9.1 2.2 13.6 9 18.6 4.4 3.2 5 4.1 5 7.2 0 4.8-4.2 8.5-11.9 10.7-3.3.9-6.4 2.2-6.7 2.8-.4.6-.6 3.3-.5 5.9.2 4-.2 5-2.5 6.8-2.5 1.9-3.5 2.1-10.2 1.5l-7.6-.7 2.3 3.1c2.9 4.1 3.9 4.6 5.8 3 1.5-1.2 1.6-.9 1 3.2-.4 3.4-1.3 5.1-3.6 7.1-2.2 1.8-3.9 4.8-5.6 10-1.5 4.3-3.8 8.7-5.6 10.6-4.4 4.8-8.4 4.5-28.9-2.4-10.3-3.4-17.4-5.3-17.9-4.7-.5.5-.5 6.9 0 14.9 1 16.1-.7 13.3 15.5 26 4.9 3.8 15 12.9 22.4 20.1 10.2 9.8 14.7 13.5 18.3 14.8 5.8 2.2 12.4 8.6 15.5 15.2 1.7 3.5 4.1 6.2 8.4 9.4 8.8 6.6 17.5 16.3 18.9 21l1.2 4h116.8c67.5 0 117-.4 117.3-.9s5.7-4.7 11.8-9.4c18.3-13.9 29.1-26.3 32.3-37 .8-2.8 1.5-5.4 1.5-5.9 0-.4-2-.8-4.5-.8-3.7 0-5.1-.5-7-2.6-3.2-3.5-3.2-7.6.1-14.3 3.1-6.2 9.4-11.5 20.4-17.2 4.1-2.2 9.8-5.7 12.5-7.9 2.8-2.2 7.4-5.2 10.2-6.7 4.9-2.6 5.3-3.1 5.3-6.3 0-4.5-.8-5.6-4.7-6.4-4.1-.9-7.9-5.4-12.2-14.4-2.9-5.9-4.1-7.4-6.8-8.4-1.8-.7-3.5-2-3.8-2.9-.3-1-2.1-2.6-3.9-3.7-2.7-1.6-3.4-2.8-4-6.3-.9-5.9-2.8-8.5-7.3-10-5.9-1.9-9.7-4.3-11.3-7.2-1.5-2.7-1.4-2.8 4.6-8.1 3.3-3 7.1-7.5 8.4-9.9l2.4-4.6-2.4-5.8c-1.3-3.2-3-7.3-3.7-9.1-1.2-2.8-1.6-3.2-2.9-2.1-1.2 1-1.7.8-2.9-.7-2.1-2.7-1.8-.9.5 3.6 1.1 2.2 1.6 4 1.1 4s-3.9-3.2-7.5-7.2-6.6-6.8-6.6-6.3c0 .6.7 3.2 1.5 5.8 2.2 7.3-.2 5.5-5.3-3.8-5.5-10.3-6.7-11.4-5.8-5.5.4 2.5.9 5.5 1.3 6.7 1 4.1-1.2 2.4-3.5-2.7-1.3-2.8-2.7-5-3.1-5-.5 0-1.1-1.5-1.4-3.3-.4-3.1-3.1-16.1-4.6-22.2-.6-2.9-.8-2.7-5.4 5.8-2.7 4.8-5 8.7-5.2 8.7s.5-3.1 1.6-7c2.3-8.5 2.5-10.7.5-9.1-1.1.9-1.5.7-1.9-.9-.5-2-.6-2.1-4.4-.4-11.7 5.1-16.7 4-23.5-5.4-2.4-3.3-4.8-6.8-5.4-7.8-.9-1.6-1.4-1.6-4.3-.4-1.8.7-5.4 3.1-7.9 5.2-8.7 7.2-14.1 3.4-9.1-6.4 1.2-2.4 3.6-6.4 5.4-8.9s3.6-6.5 4-8.9c.9-5.3 3.9-8.5 9.6-10 2.8-.8 6.2-2.9 9.4-5.9 2.8-2.5 6.8-6.1 9-7.9l4-3.3-7.5 3.7c-12.8 6.2-23.2 12.4-31.3 18.6-5.9 4.4-8.5 5.8-10.5 5.6-6.5-.7-1.9-10.5 20.5-43.8C348 17.7 360.4 6.3 369 14.8c3.2 3.3 4.7 7.9 5.6 17.4.7 6.5 2.1 9.4 4.4 8.6.6-.2 2.1-3.3 3.4-7 2.9-8.2 11.1-21.9 17.2-28.7l4.6-5.1H102.1z"/><path d="M354.3 29.2c-5.8 6.1-37.3 50-37.3 52.1 0 .3 3.7-1.1 8.3-3.1 4.5-2 12.4-5 17.6-6.7l9.4-3.1 2.1-6.6c1.2-3.6 3.8-8.5 5.7-10.9s3.8-4.9 4.2-5.5c1.5-2.6-3-20.4-5.2-20.4-.4 0-2.5 1.9-4.8 4.2m3.8 51.5c-1.2 1.4-1.9 2.8-1.7 3.1.7.6 7.6-3.8 7.6-4.9 0-1.9-4-.8-5.9 1.8M126 148.9c-.7 1.4-.8 2.7-.2 3.8.8 1.3 1.1 1 1.7-1.6.8-3.9.1-5.1-1.5-2.2m291.7 159.6c-2 2-4 4.7-4.3 6.1-.8 3.1 1 5.3 3.2 3.9 1.6-1 5.7-11.2 5.1-12.8-.1-.5-1.9.8-4 2.8M76 332.8c0 3.4 2.5 4.6 5.5 2.6 3-1.9 2.3-3.1-2.3-4-2.7-.6-3.2-.4-3.2 1.4"/></svg>