<svg xmlns="http://www.w3.org/2000/svg" width="682.667" height="512" version="1.0" viewBox="0 0 512 384"><path d="M101 .5c0 .3 2.3 5.6 5.1 12 4.6 10.3 5.4 11.5 8.4 12.5 1.9.6 5 2.4 7.1 4.1 2 1.6 4.8 2.9 6.1 2.9s3.6.6 5.1 1.4c6.4 3.3 9.5 9.8 10.7 22.4.7 7.1.8 7.2 3.9 7.7 27.3 4.4 38.5 7.1 48.1 11.4 7.9 3.6 10.5 5.6 10.5 8.2 0 5.8-20.8 12-48 14.4-4.1.4-7.7.9-7.9 1.1-.6.6 5.9 12.5 10.4 19.3 2.8 4 2.6 4.8-.5 3.1-1.9-1-1.8-.5 1.1 3.6 2.9 4.2 3 4.6.8 3.1-1.3-1-4.7-4-7.6-6.9-3-2.8-5.6-4.8-6-4.5-.3.4 0 4.8.7 9.9 1 7.9.9 10.9-.5 20.3-1.7 11.5-3.4 15.9-3.6 9-.1-8.5-1.3-8.4-5.7.6-2.2 4.6-4.5 9.7-4.9 11.4-.6 2.4-.9 1.2-1.3-5.5l-.5-8.5-3.4 8.9c-1.9 5.2-3.6 8.4-4 7.7-.6-.8-2.1-.1-5 2.3-2.4 2-4.7 3.6-5.3 3.6-.5 0 .2-2.1 1.7-4.8 3.8-6.7 5.7-13.2 4.3-14.9-1.5-1.9-2.8-1.6-2.8.6 0 1.1-.7 2.6-1.5 3.5-2.8 2.8-4.5 8.5-4.5 15.2 0 5.3.5 7.6 2.7 11.5 1.4 2.7 2.9 4.9 3.3 4.9.3 0 2.5 1.6 4.8 3.6 4.6 3.9 5.4 7.2 2.6 11.2-1.8 2.6-7.4 5.6-12.4 6.7-5.2 1.1-6 2.2-6 8 0 4.6-.4 5.6-2.7 7.5-2.4 1.8-3.6 2.1-7.8 1.5-8.3-1-8.8-1-9.1 0-.2.5.7 2.3 2 4 2.2 2.7 2.7 2.9 4.7 1.7 2.2-1.4 2.2-1.3 1.6 3-.4 3.2-1.4 5-3.6 6.9-2.2 1.8-3.9 4.8-5.8 10.4-1.6 4.8-3.8 9.2-5.8 11.3-4.5 5-8.5 4.6-29.9-2.7-9.6-3.3-17.7-5.7-18-5.4-.8.8-.8 14.1 0 23.6l.7 7.5 6.6 4.9c9.9 7.2 19.2 15.4 33.1 28.9 8 7.8 13.6 12.5 15.5 13 6.8 1.7 15.1 9.7 18.6 18.1.8 1.7 3.9 5 6.9 7.2 7.6 5.7 15.3 13.4 17.6 17.6l1.9 3.5h246.9l9.1-7c11.3-8.5 24.1-21.8 27.8-28.7 3-5.7 5.8-13.9 4.9-14.7-.3-.3-2.2-.3-4.3 0-3.3.6-4.2.3-6.9-2.4-7.8-7.8.8-22.4 18.5-31.4 4.4-2.2 11.1-6.5 14.9-9.4s9-6.3 11.6-7.5l4.6-2.2-.6-4.5c-.5-4.2-.8-4.6-4-5.5-5-1.2-7.4-3.9-12.5-13.8-3.9-7.5-5-8.9-8-9.9-2.2-.7-3.5-1.8-3.5-2.9 0-1-1.5-2.4-3.5-3.4-2.3-1.1-3.6-2.5-4.1-4.4-2.1-10-2.5-10.5-9.9-13.4q-10.5-4.2-10.5-8.7c0-.8 2.7-4 6-7 6.1-5.4 11.6-14.1 10.1-15.8-.4-.5-2.3-4.7-4.1-9.3-3-7.4-3.5-8.2-4.6-6.6-1.3 1.7-1.5 1.7-3.4-.6-1.8-2.1-1.7-1.7.5 2.8 1.4 2.9 2.1 5.3 1.7 5.3-1.1 0-9.2-8.5-11.6-12.3-2.8-4.1-3.7-3.2-2.1 2 3.2 10.6 1.1 9.8-5-2-5.5-10.5-5.3-10.2-6.1-9.5-.3.3 0 3.4.6 6.8s.9 6.4.6 6.7-1.5-1.7-2.7-4.3c-1.3-2.7-2.8-5.4-3.5-5.9-.7-.6-1.4-2.4-1.7-4-.4-2.6-2.2-11.2-4.5-22.5l-.8-3.5-3.8 7.5c-5.6 11-6.9 11.8-4.6 2.9 2.3-8.8 2.5-10.8.8-9.1-.9.9-1.4.8-2.2-.4-1-1.3-2-1.2-7.9 1.1-5.8 2.2-7.4 2.4-10.7 1.5-4.1-1.1-8.7-5.5-13.5-13.2-1.7-2.7-3.4-4.8-4-4.8-1.1 0-5.2 2.5-13 7.7-5.6 3.8-5.5 3.8-8 1.9-1.7-1.2-1.8-1.8-.7-5.4.7-2.3 3.3-7.2 5.9-10.9 2.6-3.9 4.9-8.7 5.4-11.2 1.3-6.6 3.1-8.6 9.4-10.6 4.4-1.3 7.6-3.5 14.1-9.3 4.6-4.1 8.4-7.7 8.4-7.9 0-.6-15.7 7.5-24.2 12.6-4.6 2.7-11.6 7.5-15.7 10.6-5.4 4.1-8.1 5.5-10 5.3-6.4-.7-3.3-7.8 16.4-37.8C342.4 24 356.6 7.9 366 7.6c6.8-.1 9.7 4.9 11.9 20.8.9 6.5 2.3 9 4.6 8.3.6-.2 1.2-1.2 1.4-2.3.6-3.7 8-18 13.4-26.2l5.5-8.2H251.9c-83 0-150.9.2-150.9.5"/><path d="M356.1 26.2C349.5 33 319 75.8 319 78.3c0 .3 3-.8 6.8-2.5 3.7-1.7 11.5-4.8 17.3-6.8 12.7-4.5 12.9-4.5 12.9-7.3.1-3.5 3.8-10.8 8.1-15.9l3.9-4.7-1.5-7.6c-1.9-9.1-3.1-12.5-4.4-12.5-.5 0-3.2 2.4-6 5.2m5.8 50.5c-4.6 5.5-4.6 5.8.1 3.1 2.4-1.4 4.6-3.1 4.8-3.7.6-1.8-3.4-1.3-4.9.6m-239.2 70c-.4.3-.7 2.2-.6 4.2l.1 3.6 1.3-3c.8-1.7 1.4-3.6 1.5-4.3 0-1.3-1.3-1.6-2.3-.5M421.2 182c0 1.4.2 1.9.5 1.2.2-.6.2-1.8 0-2.5-.3-.6-.5-.1-.5 1.3m-.1 130.6c-4.9 5.6-5.6 9.7-1.5 9.2 2.2-.3 3-1.3 5-6.8 2.8-7.6 2.6-7 1.5-7-.5 0-2.8 2.1-5 4.6M72 336.9c0 3.8 1.3 4.6 4.5 2.5 3.1-2.1 3.1-2.8 0-4.2-3.8-1.8-4.5-1.5-4.5 1.7"/></svg>