<svg xmlns="http://www.w3.org/2000/svg" width="682.667" height="512" version="1.0" viewBox="0 0 512 384"><path d="M100.2.9c.2.5 2.6 5.6 5.3 11.5 4.3 9 5.4 10.6 7.8 11.1 1.5.4 4.1 1.8 5.7 3.1 1.6 1.4 5.3 3.2 8.2 4 9.9 2.9 13.9 9.2 15.4 24.4.3 3.8.8 7 1 7 .3 0 5.9.9 12.7 2 27.3 4.4 48.5 11.8 49.5 17.1 1.1 6-17 12.2-43.7 15-6.4.6-12 1.5-12.5 2-.9.8 3.1 8.5 9.1 17.3 1.8 2.8 3.1 5.2 2.9 5.4-.3.2-1.4-.2-2.7-.9-1.8-.9-1.5-.2 1.6 4.1 4.7 6.4 2.6 5.5-6.5-2.9-3.6-3.2-6.7-5.8-6.9-5.6s.2 4.3.9 9c1.2 8.6.9 16.7-1.2 27.8-1.2 6.5-2.8 7.6-2.8 1.9 0-2-.4-4.3-.9-5.1-1.1-1.8-5.3 5.2-8.4 14l-2.2 6.4-.5-8.4-.5-8.3-3.4 9.2c-2.1 5.8-3.7 8.7-4.2 7.9-.5-.9-2-.3-5.4 2.5-2.5 2.1-4.8 3.6-5.1 3.4-.2-.3 1.2-3.6 3.1-7.3 2.4-4.4 3.5-7.9 3.3-9.8-.4-4.1-2.3-4.5-3.6-.7-.6 1.6-1.5 3-2 3-1.5 0-3.2 8.2-3.2 15.1 0 8.5 2.6 13.6 9.5 18.8 4.3 3.3 5.5 4.8 5.5 6.9 0 5.4-4.2 8.9-14.1 11.8-2.6.8-5.1 2-5.5 2.6s-.6 3.2-.5 5.8c.1 3.7-.3 5-2.3 6.9-2.4 2.2-3 2.3-10.7 1.6l-8.3-.7 2.9 3.9c1.6 2.1 3 4 3.1 4.2.2.2 1-.2 1.9-.9 2.2-1.8 2.7-.8 2 3.3-.7 3.4-3.7 7.7-5.4 7.7-.5 0-2.5 4.2-4.5 9.3-6.5 16.7-9.1 17.3-36.2 8.4C39 262.5 31 260 30.5 260c-.8 0 .1 28.9 1.1 31.2.2.7 2.7 2.8 5.4 4.6 7.5 5.1 19.1 15.3 33.5 29.3 10.4 10.1 13.8 12.9 17.2 13.8 6.8 1.9 12.6 7.3 16.9 15.9 1.9 3.8 4.4 6.6 8.8 9.9 8.4 6.3 12.3 10.1 15.7 15l3 4.3h251.6l8.9-6.9c10.8-8.3 21-18.9 24.9-25.5 2.5-4.3 6.5-14.5 6.5-16.6 0-.4-2-.5-4.5-.3-3.9.5-4.7.2-7.5-2.5-3.7-3.7-3.8-6.9-.6-13.7 3.2-7 11.1-13.9 21-18.6 4.6-2.1 9-4.6 9.7-5.6 1.7-2 15.2-11 18-11.8 1.7-.6 2-1.4 1.7-5.3-.3-4.5-.5-4.8-4.3-6-5.6-1.8-7.1-3.6-12.1-13.4-3.7-7.3-5-9-7.9-10.2-1.9-.8-3.8-2.2-4.1-3-.3-.9-2.1-2.5-3.9-3.6-2.4-1.5-3.5-3-4-5.8-1.5-8-2.8-9.7-9.5-12.1-6.1-2.2-11-6.1-11-8.6 0-.7 2.6-3.5 5.8-6.2 3.1-2.8 7-7.3 8.5-10l2.7-5-2.9-7.4c-1.6-4.1-3.2-8.2-3.5-9.2-.6-1.9-3.6-2.3-3.6-.5-.1.7-1.2-.1-2.6-1.7l-2.6-3 2.7 5.3c1.4 3 2.4 5.7 2.1 6-.9.8-6.1-4.4-10.4-10.2-4.1-5.6-5-4.9-2.8 2.4 2.3 7.8-.1 5.9-5.9-4.8-5.9-10.7-7-12-6.2-7.2.4 1.9.9 5.5 1.2 8l.6 4.5-3.1-5.5c-1.6-3-3.4-6.2-3.9-7-1.1-1.9-5.1-18.7-5.2-22 0-1.4-.4-3.4-.8-4.4-.6-1.6-1.6-.3-5.5 6.7-2.6 4.8-4.9 8.7-5.1 8.7-.3 0-.2-.8 2-9.5 1.8-7.1 1.9-8.3.3-6.7-.9.9-1.4.7-2.3-.5-1.1-1.4-1.7-1.4-7.5.6-3.5 1.1-7.6 2.1-9 2.1-4.2 0-9.1-4-14.4-11.7l-4.9-7.2-3.3 1.4c-1.8.7-5.6 3.2-8.5 5.5-6.5 5.1-10.2 5.2-10.7.3-.4-3.6 1.2-7.1 6.9-15.5 2.1-3.2 4.2-7.6 4.5-9.8.9-5.7 3.7-8.7 9.6-10.5 3.4-1 7.1-3.3 11.5-7.2 3.6-3.2 7.7-6.8 9.2-8.1 3.2-2.9-21 9.5-29.9 15.3-3.6 2.3-8.5 5.8-10.8 7.8-2.9 2.4-5.4 3.7-7.3 3.7-2.7 0-2.9-.3-2.9-3.7 0-4.3 3.6-10.9 15.8-29.7C342.5 23.3 357.5 6 367.1 6c6.6 0 9.9 5.8 11.8 21 1 8 .9 7.7 3.4 8.2 1.4.2 2.3-.9 3.7-5 2.3-6.4 8.9-18.9 13.6-25.5L403 0H251.4C162.6 0 100 .4 100.2.9"/><path d="M357.8 23.8c-7.3 7.5-39.6 52.7-38.5 53.9.2.2 3.5-1.1 7.3-2.9s12.1-5.1 18.4-7.3l11.4-4 .8-3.8c1-4.8 3.1-9 7.8-15.3l3.8-5.1-1.3-6.9c-1.5-7.6-2.9-11.9-4.3-12.8-.5-.3-2.9 1.6-5.4 4.2m3.7 53.3c-1.4 1.7-2.4 3.4-2.1 3.6.6.6 8.6-4.8 8.6-5.8 0-2.1-4-.7-6.5 2.2M121.7 147c-1.2 1.7-1.3 7-.1 7 .6 0 2.6-8.2 2.1-8.7-.3-.2-1.2.5-2 1.7m300.5 35c0 1.4.2 1.9.5 1.2.2-.6.2-1.8 0-2.5-.3-.6-.5-.1-.5 1.3m2.6 129.1c-3.5 2.6-7.2 8.5-6.4 10.4.3.8 1.6 1.5 2.8 1.5 1.9 0 2.7-1.1 4.7-6.6 1.3-3.6 2.2-6.7 2-6.9s-1.6.5-3.1 1.6M70 337.6c0 .8.5 2.4 1 3.5 1.1 1.9 1.1 1.9 4-.3 2.7-2 2.8-2.2 1.2-3.4-2.4-1.9-6.2-1.8-6.2.2"/></svg>