<svg xmlns="http://www.w3.org/2000/svg" width="682.667" height="512" version="1.0" viewBox="0 0 512 384"><path d="M100 .8c0 .8 3.1 7.6 7.3 16.1 1.6 3.1 3.1 4.7 5.2 5.4 1.7.5 4.7 2.2 6.7 3.8s4.6 2.9 5.8 2.9c4.7 0 11.8 5.8 14 11.5.7 1.6 1.7 6.8 2.4 11.5l1.1 8.5 12.5 2.2c24.4 4.2 40.8 9.2 47.5 14.5 5.1 4 .9 9.1-10.3 12.4-7.2 2.1-23.6 5-32.7 5.9-8.7.8-11.5 1.3-11.5 2.3 0 .4 2.9 5.6 6.5 11.6s6.5 11.1 6.5 11.3-.9-.1-1.9-.7c-3.3-1.7-3.3-1.1 0 3 5.3 6.5 2.7 5.6-5.5-2.1l-7.6-7.1.8 4.9c1.8 12.3-.1 39.3-2.9 39.3-.5 0-.9-2-.9-4.4 0-2.5-.4-4.7-.9-5.1-1.3-.8-5.7 6.8-8.4 14.6l-2.2 6.4-.3-9-.4-9-3.2 8.9c-2.6 7.3-3.5 9-5.3 9.1-1.2.1-3.8 1.6-5.8 3.4-4.2 3.6-5.6 3.4-3.1-.4 1-1.5 2.8-5.5 4.1-9 2.4-6.2 2.4-6.3.5-8-1.8-1.7-1.9-1.6-2.6 1.1-.4 1.6-1.5 3.7-2.5 4.6-2.3 2.3-3.9 8-3.9 14.3 0 7.6 3.5 14.1 10.3 19.3 4.5 3.4 5.7 4.8 5.7 7 0 5.1-5.3 9.7-13.5 11.6-1.6.4-4 1.4-5.2 2.2-2 1.2-2.2 2-1.6 5.9.5 3.9.2 4.9-1.8 7.1-2.3 2.5-2.7 2.6-10.6 2-4.6-.3-8.3-.3-8.3.2 0 .4 1.3 2.3 2.9 4.2 2.5 3 3.1 3.3 4.5 2.1s1.6-1 1.6 1.3c0 3.7-2.6 9.6-4.3 9.6-1.4 0-2.4 2.1-6.7 13.1-3 7.9-6.9 11.4-12.4 11.2-2.4-.1-12.1-2.6-21.6-5.7S30 261 29.2 261c-1.3 0-1.4 1.9-.8 12.7 1.1 19.6.4 18.1 11.4 26.5 5.3 4 17.1 14.6 26.3 23.5C78.3 335.6 83.5 340 85.3 340c4 0 11.3 5.7 15.7 12.2 2.2 3.3 4 6.6 4 7.4 0 .7 3.6 4 7.9 7.3 4.4 3.4 10.1 8.6 12.8 11.6l4.8 5.5h256.7l6.1-4.7c16.3-12.5 29.3-29 31.2-39.6l.7-3.7h-4.5c-2.9 0-5.3-.7-6.9-2-8.8-6.9.8-23.6 18.7-32.5 4.4-2.1 10.6-6 13.8-8.6 3.1-2.5 8.4-5.9 11.7-7.5 5-2.4 5.9-3.3 5.9-5.6.1-4.7-1.6-7.8-4.3-7.8-4 0-8.2-4.5-12.4-13.3-4.1-8.6-5.4-10.3-8.7-10.8-1.1-.2-2.4-1.4-2.9-2.6-.6-1.1-2.5-2.8-4.2-3.7-2.6-1.2-3.5-2.4-4.4-5.8-2.2-9.1-2.2-9.1-8.9-11.9-6.2-2.6-12.1-7-12.1-9.1 0-.5 3.1-3.8 6.8-7.4 3.8-3.5 7.7-8.2 8.7-10.4l1.8-4-3.9-9.9c-3.7-9.2-4-9.7-5.5-8-1.5 1.8-1.6 1.8-2.9-.6-2.3-4.2-2.3-2 0 3 1.2 2.6 2 4.9 1.7 5.1-.5.6-8.3-7.4-11-11.3-2.1-3.1-3.7-4.2-3.7-2.6 0 .5.7 3 1.5 5.7 1.5 4.9 1.3 6.8-.4 5-.5-.5-2.8-4.5-5.1-8.9s-4.9-8.7-5.7-9.5c-1.3-1.3-1.4-1.2-1 1.5 2.3 12.5 1.8 14.5-1.8 6.3-1.1-2.4-2.2-4.5-2.6-4.8-1-.8-4.6-14.6-5.9-22.9l-1.2-7.3-3.5 6.3c-7.2 13.2-8.3 13.9-5.3 3.3 2.4-8.2 2.6-10.4.8-8.6-1.6 1.6-2.8 1.5-2.8-.3 0-1.9.4-2-7.5 1-10.9 4.2-15.6 2.2-23.5-10-2.3-3.6-4.7-6.5-5.2-6.5-1.5 0-7.1 3.1-10.3 5.8-4.3 3.6-8.6 5.2-10.7 4.1-3.5-1.9-1.7-7.7 5.6-18.7 2.4-3.7 4.7-8.3 5-10.3.9-5.4 4-8.6 9.6-10.3 3.6-1.1 7.3-3.6 13.7-9.2 4.9-4.3 9-8 9.3-8.2.3-.3-5.3 2.5-12.5 6.2-12.1 6.3-23.2 13.3-33.1 20.7-5.3 3.9-8.4 3.4-8.4-1.4 0-4.3 5.1-13.1 21.8-38.3 22.4-33.6 32.6-46.4 42.1-52.5 10.4-6.7 17-.8 18.7 17 .8 7.7 1.8 10.1 4.3 10.1 1.2 0 2.2-1.3 3.1-4.3 1.6-5.5 6.2-14.6 11.6-23L403 0H251.5C168.2 0 100 .4 100 .8"/><path d="M360.1 20.6c-4.1 3.4-17.4 21.1-30 40.1C324.6 69 320 76 320 76.3s3.9-1.2 8.8-3.3c4.8-2 13.1-5.3 18.5-7.1l9.7-3.4 1.7-5.9c1.1-3.8 3.4-8.3 6.4-12.3l4.8-6.3-1.5-7.2c-1.6-8.2-3.2-12.8-4.4-12.8-.5 0-2.2 1.2-3.9 2.6m2.4 55.5c-1.4 1.7-2.4 3.4-2.1 3.6.6.6 8.6-4.8 8.6-5.8 0-2.1-4-.7-6.5 2.2m-241.8 69.6c-.4.3-.7 2.5-.6 4.7 0 3.1.2 3.6.8 2.1 2.2-5.7 2.1-9.2-.2-6.8M426 312.1c-5.9 5-8.1 11.9-3.6 11.9 1.9 0 2.7-1 4.7-6.3 1.3-3.4 2.5-6.5 2.7-7 .7-1.4-1.3-.6-3.8 1.4M68 338c0 .5.5 2 1.1 3.3 1.1 2.4 1.2 2.4 4 .8 3.5-2 3.6-2.5.4-3.9-3.1-1.4-5.5-1.5-5.5-.2"/></svg>