<svg xmlns="http://www.w3.org/2000/svg" width="682.667" height="512" version="1.0" viewBox="0 0 512 384"><path d="M99 .5c0 .3 2 4.8 4.4 10 3.5 7.5 4.9 9.5 7 10.1 1.4.3 4.7 2.1 7.3 4s5.9 3.4 7.2 3.4c3.8 0 9.8 4.7 12.2 9.6 1.1 2.5 2.6 8.4 3.3 13.1 1.3 9.9-.1 8.9 15.1 11.3 29.4 4.5 52.5 13.9 48.9 19.8-2.7 4.5-15.3 8.4-35.9 11.2-21.4 3-21.5 3-21.5 3.9 0 .4 2.9 5.7 6.5 11.6 5 8.3 6 10.6 4.5 10.2-2.6-.7-2.5.4.1 3.7 3.8 4.8-.3 2.8-6.3-3.1-3.2-3.1-6-5.5-6.2-5.2-.3.3.1 4.8.9 10 1.4 8.6 1.4 10.3-.2 19.8-1.1 6.1-2.3 10.6-3 10.9-.9.2-1.3-.8-1.3-3.2 0-1.9-.4-3.7-.8-4-1.1-.7-6.9 9.5-8.2 14.4-1.8 6.6-3 5.7-3-2.1 0-4-.3-6.9-.7-6.5-.5.4-2 4-3.4 7.9-1.8 5-3.2 7.3-4.5 7.6-1.1.2-3.4 1.7-5.3 3.3-1.8 1.6-3.6 2.7-3.9 2.4s.9-3.7 2.7-7.6c3.3-7.2 3.7-11.5 1.1-11.5-.8 0-1.6 1-1.8 2.3-.2 1.2-1.2 2.6-2.1 3.2-2.2 1.1-4.1 8-4.1 14.7 0 7 3.9 14.3 10 18.8 9.5 7 7 14.6-6.2 18.6-7.5 2.3-9.3 4.3-8.3 9 .8 3.6-1.5 7.6-5.1 8.9-1.6.6-4.7.7-8.2.1-7.8-1.2-8.7-.6-5.5 3.6 2.1 2.7 3.1 3.3 5 2.8 2-.5 2.3-.2 2.3 2.2-.1 3.5-1.8 6.6-5.2 9.2-1.8 1.4-3.5 4.6-5.3 10-3.8 11.5-8.9 15.6-16.9 13.8-2.3-.5-11.5-3.3-20.6-6.2s-16.7-5.1-16.9-4.8c-.5.4-.4 4.6.5 20.8l.6 11.1 8.2 6.1c10.2 7.7 14.8 11.8 30.7 27.4 10.8 10.8 13.5 12.9 18.1 14.5 6.4 2.1 14.2 9.6 17.6 17 1.7 3.5 3.9 6 7.8 8.8 3 2.2 8.2 6.8 11.5 10.3l6.1 6.3h262l7.1-5.9c15.8-12.8 26.7-27.2 29.3-38.4.6-2.7.6-2.7-4.9-2.7-4.8 0-5.8-.4-7.6-2.6-1.2-1.5-2.1-4.1-2.1-6.1 0-3.4 3.5-11.1 6.7-14.9 3.6-4.2 11.2-9.5 17.8-12.5 3.8-1.7 9.1-5 11.8-7.4 2.7-2.3 7.7-5.7 11-7.4 6-3.1 6.1-3.3 5.8-6.9-.4-4.5-1.4-5.9-5-6.7-4-.9-7.3-4.8-12-14.2-3.4-6.9-4.7-8.5-7.6-9.7-1.9-.9-3.8-2.2-4.1-3-.3-.9-2.1-2.5-3.9-3.6-2.7-1.7-3.6-3-4.4-7.1-1.6-7.4-2.5-8.6-8.2-10.4-5.7-1.9-11.9-6.8-11.9-9.5 0-1 2.4-3.8 5.4-6.4 5.8-4.9 12.2-15.1 10.8-17-.8-1-3.4-7.5-6.2-14.9-.8-2.3-1.3-2.6-2.8-1.8-1.3.7-2.3.6-3.1-.2-.8-.7-.6.5.4 3.1 1 2.4 1.5 4.5 1.3 4.8-.6.5-8.2-7.6-11.5-12.1-1.2-1.6-2.4-2.7-2.8-2.3-.6.5.6 6.3 2.2 10.6.6 1.5.5 1.5-1 .3-1-.8-3.8-5.2-6.3-9.8-2.6-4.7-5-8.1-5.4-7.6-.5.4-.4 3.2.1 6.2.6 2.9.8 5.5.5 5.8-.8.8-7.2-13.4-8.9-19.7-.9-3-2.1-8.5-2.7-12.2-.7-3.7-1.6-6.5-2.1-6.3-.4.3-2.5 3.7-4.5 7.5-2.1 3.8-4.1 6.7-4.5 6.5-.3-.3.2-3.5 1.2-7.2 2.3-8.2 2.3-8.4.3-7.6-.9.3-2 0-2.4-.7-.7-1.1-2.2-.9-7.7 1-9.3 3.1-12.9 2.4-18.3-3.8-2.3-2.6-5.3-6.6-6.7-9-1.4-2.3-2.9-4.2-3.4-4.2-1.8 0-7.2 3.2-12.2 7.1-2.7 2.2-5.5 3.9-6.2 3.9-6.9 0-5.9-6.6 3-20.4 1.8-2.8 3.8-7.4 4.5-10.3 1.4-6.1 2.2-6.9 9.8-9.7 6.3-2.3 21.4-14.6 17.9-14.6-3.6 0-26.2 13.2-36.2 21-3.3 2.6-7 5.1-8.3 5.4-2.6.9-5.2-.8-5.2-3.2 0-1.7 6.1-14 9-18.2 1-1.4 7.1-10.6 13.6-20.5 32-49 45.9-62.2 55.4-52.7 3.2 3.3 4.7 7.9 5.7 17.5.6 6.4 2.1 9.7 4.4 9.7 1 0 1.2-.4 5-10.5 1.3-3.3 3-7.1 3.9-8.5s3.3-5.1 5.4-8.3L403 0H251C167.4 0 99 .2 99 .5"/><path d="M358.8 21.8C351 30.1 321 72.3 321 75c0 .5 2.8-.4 6.3-2 5.6-2.5 15.8-6.5 26.2-10.2 3.7-1.3 4.2-1.8 6-7.7 1.3-3.9 3.8-8.5 6.8-12.2L371 37l-1.6-6.8c-2.2-10-3.4-13.2-4.8-13.2-.7 0-3.3 2.2-5.8 4.8m5.2 52.4c-1.9 2.1-2.6 3.8-1.5 3.8 1 0 7.5-4.5 7.5-5.3 0-1.6-4-.6-6 1.5m-244.8 72c-1.4 1.4-1.6 4.5-.3 5.2.5.3 1.4-.7 1.9-2.4 1.2-3.2.3-4.7-1.6-2.8m307.4 167.9c-2.9 2.3-5.6 6.8-5.6 9.4 0 1.2.8 1.5 2.7 1.3 2.3-.3 3-1.2 4.9-6.6 1.3-3.4 1.9-6.2 1.5-6.2-.5 0-2 .9-3.5 2.1M67 339.8c0 1 .6 2.6 1.3 3.6 1.2 1.7 1.4 1.6 3.7-.3 2.5-2.1 2.5-2.1.6-3.6-2.7-2.1-5.6-1.9-5.6.3"/></svg>