<svg xmlns="http://www.w3.org/2000/svg" width="682.667" height="512" version="1.0" viewBox="0 0 512 384"><path d="M99.4 3.2c.8 1.8 2.5 6 3.8 9.2 1.8 4.6 3 6.2 5.4 7.2 1.7.7 5 2.9 7.3 4.8 2.7 2.3 5.3 3.6 7.2 3.6 3.2 0 9.2 4.7 11.5 9.1 1.5 2.9 4.2 12 5.3 17.9.6 3.1 1.1 3.6 4.6 4.3 10.4 2 36.6 8.7 41.8 10.7 11.4 4.3 15 10.5 8.7 15-5.9 4.2-15.9 6.8-36.7 9.5-5.8.8-10.7 1.6-11 1.9-.5.5 3.5 8.3 7.9 15.5 3.2 5.2 3.4 6.1 1.2 6.1-1.5 0-1.5.2.1 2.6 2.7 4.2.8 4.1-3.8-.2-2.3-2.2-5-4.6-6-5.4-1.7-1.3-1.8-1.1-1.3 2.1 1.5 8.3 1.5 16.1 0 25.4-1.8 11-2.8 13.3-3.9 8.6-.3-1.7-1-3.3-1.5-3.6-1.2-.8-6 7.6-7.7 13.6-1.7 5.8-3.7 5.5-3.1-.5.9-8-.6-8.3-3.3-.6-1.3 4-3.1 7.5-3.9 7.8s-3.3 2.1-5.4 4c-2.2 2-4.1 3.1-4.3 2.5-.2-.5.8-3.3 2.2-6.2 3.2-6.4 3.7-10.4 1.3-10.9-1.2-.2-1.8.3-1.8 1.4 0 1-.8 2.6-1.7 3.7-1.4 1.5-1.9 4.1-2.1 11.3-.4 8.7-.2 9.7 2.2 13.8 1.4 2.5 4.6 5.9 7 7.6 3.5 2.6 4.5 3.9 5 7.1.4 2.3.2 4.9-.5 6-1.1 2.1-10.1 6.9-13 6.9-3.3 0-5.1 2.5-5.6 8.1-.7 7.6-2.3 9-10.9 9.1-3.8.1-7.2.3-7.6.5-1.2.6 2.2 5.3 3.8 5.3 3.9 0 2.1 8.4-2.5 11.8-2 1.5-3.6 4.1-5.1 8.6-1.1 3.5-3.4 8.3-5 10.5-3.8 5.2-7.2 5.9-17 3.3-4.1-1.1-12.2-3.2-17.9-4.7-7.7-2-10.6-2.4-11.1-1.5-.9 1.5-.3 13.6 1.2 22.4 1.1 6.2 1.5 7 4.7 9.1 6.7 4.2 16.6 13 30.6 27.1 10.9 10.9 15.3 14.6 19.7 16.6 7.4 3.4 14.1 9.7 16.7 15.7 1.4 3.4 3.6 6 7.6 9.1 3.1 2.4 8.5 7.4 12 11.2l6.3 6.8h256.1l6.6-5.6c13.9-11.8 25.6-27.5 28-37.5.6-2.4.4-2.7-3.4-3.3-5.5-.8-8.1-3.8-8.1-9.3 0-8.7 8-18.8 20.1-25.2 3.5-1.9 8.7-5.3 11.4-7.6 5.2-4.3 7.8-6.1 13.3-9.6 2.3-1.5 3.2-2.8 3.2-4.7 0-3.8-1.1-5-6.6-7.6-4.6-2.1-5.2-3-9.7-11.8-4.1-8-5.3-9.6-8.1-10.6-2.1-.8-3.6-2.1-4-3.5-.3-1.2-1.8-2.9-3.4-3.8-2.1-1.2-3.1-2.7-3.6-5.5-1.1-5.9-3.1-8.2-9.4-11-11.6-5.1-12-8-2.8-17.6 3.6-3.6 7.4-8.4 8.5-10.6l2.1-4.1-2.1-4.8c-1.2-2.6-2.7-6.6-3.4-8.8-1.3-4.4-3.8-5.4-4.3-1.8-.2 1.3-.7 2.3-1.2 2.3s-3-2.6-5.6-5.8c-4.9-6.1-7-7.6-6.1-4.6.4 1.1.9 3.2 1.3 4.9.7 2.8.6 2.9-1 1.6-1-.8-3.5-5-5.7-9.3s-4.2-7.8-4.5-7.8c-.4 0-.4 2.5-.2 5.5.3 3 .2 5.5-.1 5.5-.4 0-2.1-2.9-3.9-6.4-2.9-5.6-5-12.6-7.9-26.1l-.9-4-4.3 7.2c-2.4 4-4.7 7.3-5.2 7.3-1.2 0-1.1 0 .5-4.6.7-2.2 1.6-5.6 2-7.6.6-3.2.5-3.7-1-3.1-.9.3-2 0-2.4-.7-.7-1.1-1.6-1.1-5.2.1-2.4.8-6.6 1.4-9.5 1.4-4.6 0-5.6-.4-8.9-3.5-2-1.9-5.2-5.9-7.1-8.8-1.8-2.8-3.6-5.2-3.9-5.2-1 0-5.9 2.8-11.2 6.4-4.6 3.1-5.6 3.4-7.7 2.4-4.3-1.9-3-8.9 3.3-18 1.6-2.4 3.3-5.9 3.6-7.8 1.3-6.6 2.8-9.1 6.7-11.1 2.1-1 4.4-1.9 5.1-1.9.8 0 4.5-3.2 8.3-7 3.8-3.9 6.6-7 6.1-7-2.9 0-22.6 11.4-33.4 19.4-6.1 4.4-9.5 4.6-10 .4-.3-2.9.8-5.5 7.6-16.8 17.5-29.2 39.3-60.1 47.2-66.8 3.8-3.3 9.2-6.2 11.3-6.2 5.7 0 10.1 7 11.5 18.4.8 7 2.5 8.2 4.2 2.9 1.5-4.5 7.2-16.1 10.6-21.5L396 0H98z"/><path d="M358 21.7c-2.8 3.2-9.2 11.9-14.2 19.3s-10.5 15.5-12.3 18c-1.7 2.5-4.4 6.7-6 9.4-3.2 5.7-3.3 5.7 8 .8 3.9-1.7 10.5-4.3 14.8-5.8 4.4-1.5 8-3.2 8.2-3.8 2.8-11.1 5.8-17.6 10.8-23.3 1.8-2 1.9-2.7.7-9-1.5-8.1-2.6-11.3-3.9-11.3-.5 0-3.2 2.6-6.1 5.7m5 52.5c-1.1 1.2-2 2.6-2 3.1 0 1.1 6.3-2.8 6.8-4.2.6-1.9-2.7-1.2-4.8 1.1m-244.3 74.5c-1.1 1-.8 4.3.3 4.3.6 0 1-.4 1-.9s.3-1.6.6-2.5c.6-1.6-.7-2.2-1.9-.9m304.6 166.5c-4.4 4.9-5.6 9.8-2.4 9.8 2.3 0 3.6-1.6 4.5-5.5.4-1.7.9-3.8 1.2-4.8.7-2.4-.9-2.1-3.3.5M70 340.5c0 2.9 3 3.5 5.1.9 1-1.3 1-1.7-.2-2.5-2.7-1.7-4.9-1-4.9 1.6"/></svg>