<svg xmlns="http://www.w3.org/2000/svg" width="682.667" height="512" version="1.0" viewBox="0 0 512 384"><path d="M96 1.3c0 .7 1 4.2 2.1 7.8 2.6 7.9 9.7 15.7 18 19.9 7.5 3.7 11.8 8.6 17.5 19.8 5.1 10.2 4.7 9.9 16.6 13.1 19.7 5.4 32.8 12.8 32.8 18.5 0 4.1-7.2 9.3-16 11.6-2.5.6-5.8 1.7-7.5 2.5-1.6.7-4.7 1.6-6.8 2-2 .4-4 1.1-4.2 1.6-.3.4 1 4 3 8 1.9 3.9 3.5 7.3 3.5 7.5s-.7.4-1.6.4c-1 0-1.4.5-1 1.5.3.8.9 2.2 1.2 3 .9 2.1-1.3 1.9-4.4-.6l-2.7-2-.7 2.8c-.4 1.5-.6 4.6-.4 6.8.3 4.3-.7 10.5-3.1 17.7-1.3 4.2-1.7 4.7-3.7 4.2-2.1-.5-2.6.2-5.2 6-1.6 3.6-3.5 6.6-4.2 6.6-.9 0-1.1-.7-.7-2 .4-1.1.2-2-.4-2-1.2 0-3.5 4.3-4.5 8.2-.3 1.5-1.7 4.3-3 6.3l-2.4 3.5-1.6-2.5c-1.2-1.9-1.4-3-.6-4.4 1.2-2.3 1.3-3.1.2-3.1-.4 0-1.3 1.7-1.9 3.9-1 3.1-1 5.4.1 11.2 1.5 9 2.5 10.9 9.1 17.9 6.2 6.5 7.1 8.7 5.2 13.3-1.1 2.5-3.2 4.4-8.1 7.3-4.8 2.7-6.8 4.6-7.2 6.4-1.2 5.1-1.6 6.1-4.1 9-2.2 2.7-3.1 3-7.9 3-5.7 0-6.6 1-4.5 4.9 1.6 2.8-.5 9.1-4.2 13-1.9 2-4.9 6.4-6.6 9.7-1.8 3.4-4.6 7.5-6.2 9-3 2.9-3.2 2.9-15.2 2.9-6.7 0-13.5-.3-15.2-.5-2.9-.5-3-.4-3.1 3.4-.2 7.3 4 21.2 6.9 22.8 4.1 2.1 12.1 9.1 25.7 22.4 7.4 7.2 15.6 14.3 18.1 15.7 5 2.9 12.6 10.7 16 16.5 1.2 2.1 5.2 6.2 8.8 9.3 3.7 3.1 8.7 8.6 11.2 12.2l4.4 6.6 120.6.1h120.6l6.9-7.3c7.1-7.3 16.8-19.2 19.2-23.6.8-1.3 2-4.2 2.8-6.4 1.3-3.8 1.3-4.1-.7-5.5-3.3-2.3-4.1-5.8-2.8-12.1 1.9-9.6 7.6-17.5 17.8-24.6 5.6-3.8 8.5-6.9 12.7-13.1 3-4.3 3.3-11 .6-11.8-.9-.3-4.2-4.2-7.1-8.6-3-4.4-7.3-10-9.5-12.5-7.8-8.4-9.7-11-11.6-15.2-1.2-2.7-3-4.8-5.2-5.9-4.5-2.2-8.8-7-8.8-9.8 0-1.3 2.6-5.6 5.9-9.8s7.1-9.9 8.6-12.8c2.4-4.7 2.5-5.7 1.6-9.9-.5-2.5-1.3-6.3-1.6-8.4-.5-3.4-2.5-5.3-2.5-2.5 0 .7-1.1.1-2.5-1.4s-2.5-3.2-2.5-3.9c0-1.7-4.1-7-5-6.4-.4.3-.6 1.5-.3 2.8.4 2.1.4 2.1-.8.2-6.3-10.7-7.3-11.9-7.9-9.6-.3 1.2-.9 2.2-1.5 2.3-1.3 0-6-9.3-8.1-16.2-1.9-6.2-3.1-8.1-4.2-6.4-.9 1.3-5.4 4.4-6.4 4.4-.4 0-.6-2.6-.5-5.7.2-5.4 0-5.8-3.2-8-2.4-1.6-4.8-2.3-8.1-2.3-5.9 0-10.1-2.7-15.4-9.8-4.3-5.8-5.4-6.1-12.6-3.5-4.5 1.6-4.9 1.6-7.4-.1-2.3-1.5-2.6-2.2-2.1-4.9.4-1.8 1.6-5.2 2.6-7.6 1.2-2.6 1.9-6.7 1.9-10.2 0-3.3.4-5.9.8-5.9 1.5 0 14.4-13.4 13.3-13.8-.6-.2-3.9 1-7.4 2.7s-6.8 3.1-7.4 3.1c-.5 0-2.9 1.3-5.1 3-3.8 2.7-4.2 2.8-5.1 1.2-.6-1.1-.5-3 .4-5.5 1.5-4.3 9.8-19 16.6-29.3 2.5-4 4.8-7.6 5-8 1.3-3.1 14.7-22.1 19.8-28.1 3.4-4 6.1-7.7 6.1-8.1 0-.5 1.6-1.6 3.6-2.5 4.2-2.1 5.2-1.5 8 4.3 1 2.2 2.2 4 2.6 4 .3 0 1.1-1.4 1.7-3.2.6-1.7 2-3.7 3-4.5 1.1-.7 2.6-2.7 3.5-4.3l1.4-3H238.9C122 0 96 .2 96 1.3"/><path d="M358.2 21.3c-8 10.5-25.9 41.4-24.7 42.6.3.3 1.5-.1 2.7-.8s4.6-2.2 7.6-3.2c6.7-2.3 8.2-3.5 8.2-6.5s7-18.2 10.5-22.8c2.3-3 2.5-4 1.9-8.5-.4-2.8-1-5.4-1.4-5.6-.4-.3-2.6 1.9-4.8 4.8M118 158.1c0 .5.5.7 1 .4.6-.3 1-.8 1-1.1 0-.2-.4-.4-1-.4-.5 0-1 .5-1 1.1M80 339c0 .5.5 1 1 1 .6 0 1-.5 1-1 0-.6-.4-1-1-1-.5 0-1 .4-1 1"/></svg>