<svg xmlns="http://www.w3.org/2000/svg" width="682.667" height="512" version="1.0" viewBox="0 0 512 384"><path d="M95.5 3.2c2.1 10.7 3.4 13.4 9.2 18.9 3.2 3 7.9 6.5 10.5 7.8 5.9 2.8 10.4 8 17 19.3l5 8.7 8.7 2.6c10.8 3.3 21.4 8.5 27.5 13.5 2.5 2.1 5.2 4 5.9 4.3.7.2-1.3 2.9-4.8 6.3-5.8 5.6-9.2 7.5-24.2 13.5l-2.3.8 2.7 6.1c1.9 4.4 2.3 6.4 1.5 7.2-.7.7-.7 1.9-.1 3.6 1.3 3.5-1.2 6.3-4 4.5-2.6-1.6-3.1-.8-3.1 4.7 0 4.5-2 14-4.1 19.2-.8 1.9-1.8 2.7-3.3 2.5-1.7-.2-2.7 1.1-5.4 6.6s-3.6 6.6-4.7 5.7c-1.2-1-2-.1-4.2 4.4-2.3 4.7-3 5.5-4.8 5-1.1-.4-2.3-1.1-2.7-1.7-1.4-2.2-2 4.6-.9 10.1 2.2 11.3 3.2 13.3 9.1 19.7 9.7 10.4 9.4 13.9-1.4 22-5.3 3.9-7.6 6.3-8.1 8.3-.3 1.6-1.9 4.5-3.6 6.5-2.4 2.9-3.8 3.7-6.3 3.7-4.2 0-5.6 1.6-5.6 6.2s-2.7 10.3-6.5 13.8c-1.5 1.4-4 5-5.5 8-5.4 10.6-6.8 11.3-25.2 12.5-5.9.4-9.8 1.1-10.1 1.8-.2.7-.1 4 .4 7.5 1.1 7.8 4.6 14.1 9.8 17.5 2.2 1.5 10.1 8.7 17.7 16.2s16.1 15.1 18.8 16.9c2.8 1.8 7.8 6.4 11.1 10.2s10.3 11.2 15.5 16.4c5.2 5.3 10.9 11.9 12.5 14.8l3 5.2h235.3l4-4.8c2.2-2.6 5.1-6.1 6.6-7.7 6.9-8 10.9-13.6 14.1-19.8 4-7.9 4.1-8.4 1.8-10.9-5.1-5.7 2-23.1 13.7-33.2 10-8.7 15-15.8 15-21.4 0-.7-1.9-3.4-4.3-6s-5.6-7-7.1-9.7c-1.6-2.8-4.9-7-7.5-9.5-6.1-6-8.9-9.6-11.1-14.7-1.2-2.7-3.3-5.1-5.9-6.7-2.9-1.9-4.3-3.7-5.2-6.4-1.3-4.3-2.2-2.4 9.6-19.6 6.3-9.4 6.5-10.2 5-21.2-.6-4.2-1.2-5.4-3.2-6.3-1.3-.6-2.2-1.5-1.9-1.9.3-.5-.6-3.1-1.8-5.9-1.7-3.6-3.1-5.2-5-5.7-1.4-.3-2.6-1-2.6-1.5 0-.4-1.1-2.1-2.5-3.7-1.9-2.3-2.5-2.5-2.5-1.2 0 4.6-4.3-.6-7.6-9.2-2.5-6.6-4.2-8.2-8.4-7.8l-3.5.3-.3-5.3c-.2-3.9-.8-5.5-2-5.9-.9-.4-2.2-1.3-2.8-2.1-.5-.8-3.1-1.8-5.8-2.3-5.6-1-12.8-5.9-15.6-10.6-2.5-4.3-4.3-4.9-9.7-3.5-5.6 1.5-7.9.4-9.4-4.8-1-3.3-.9-4.7.5-8.4 1.1-2.9 1.5-5.7 1.1-7.9-.8-4.1 1.5-9.2 4.5-10.2 1.1-.3 2-1.1 2-1.8 0-.6 1.5-2.6 3.3-4.5l3.2-3.5-5.4.6c-3 .4-5.8 1.2-6.2 1.9s-1.1.9-1.5.6c-.4-.4-2 .2-3.6 1.3-2.2 1.6-3.2 1.8-4.2 1-1.6-1.3 3.1-10.8 20.4-40.6 4.7-8.1 13.4-21.1 17.7-26.3 2.3-3 4.3-6 4.3-6.7 0-1.8 6.4-6.5 8.9-6.5 1.2 0 3 .9 4.2 2.1l2.1 2.1 2.4-3.6c1.3-1.9 2.4-3.7 2.4-4 0-.4-63.3-.6-140.6-.6H94.8zM329 81.9c0 1.1-6.1 5.8-8.1 6.3-3.1.7-1.9-1.6 2.3-4.3 4.5-3 5.8-3.5 5.8-2"/></svg>