<svg xmlns="http://www.w3.org/2000/svg" width="682.667" height="512" version="1.0" viewBox="0 0 512 384"><path d="M94.4 2.7c.3 1.6.8 4.8 1.1 7.3 1.1 7.6 5.6 12.7 18.6 21.3 6 4 11 9.4 17.9 19.9 4.2 6.4 4.9 6.9 11 8.9 14.7 4.9 30 14.9 30 19.5 0 3.4-8.1 11-16 15.1-4.1 2.1-7.7 3.9-8 4.1-.2.2.3 2.4 1.1 5 1.3 3.8 1.8 10.7 1 15.6 0 .4-1.4.6-3 .4-2.8-.4-2.9-.4-3.4 5.6-.9 9.1-4.4 18.5-7.3 19.6-1.4.6-3.5 3.2-5.4 7-2.1 4.2-3.6 6-4.9 6-1.1 0-2.3.9-2.6 2-.4 1.1-2.6 3.7-5.1 5.7-3.8 3.2-4.4 4.3-4.4 7.5 0 7 4.7 17.1 12.2 26.1 4.1 5 4.8 6.5 4.8 10.2 0 4.2-.3 4.6-6.8 9.9-5.2 4.2-7.2 6.5-8 9.4-1.4 4.5-5.5 8.7-9.7 9.7-4.2.9-5.5 2.3-5.5 5.6 0 3.4-3.2 9.6-6.6 12.6-1.3 1.2-4 4.9-5.9 8.2-6 10.2-10.4 12.8-25.8 15.2l-7.9 1.2.5 3.6c.2 2 1.5 6.4 2.7 9.8 1.8 4.9 3.1 6.7 6.1 8.7 2.1 1.4 9.4 8.1 16.2 14.8 6.7 6.8 15 14.5 18.2 17.2 10.6 8.8 33.4 32.9 38.7 40.8l5.1 7.8h115.6l115.6-.1 8.2-10.8c4.5-6 9.9-14.1 12-18.1 3.4-6.4 3.8-8 3.5-13.4-.4-10.6 4.8-22.2 14.9-33.1 5.9-6.4 9.3-11.9 10.7-17.4 1-4.1.9-4.6-.9-5.9-3.4-2.3-6-5.4-10.6-12.6-2.5-3.8-5.9-8.4-7.6-10.1-4.4-4.5-8-9.3-9.5-12.8-.7-1.7-3.2-4.9-5.7-7.2-6.3-5.8-6.1-7.6 2.3-20.5 9.8-15.2 10.4-16.6 9.6-24.7-.4-3.7-1.2-8.2-1.9-9.8-.7-1.7-2-4.9-3-7.3-1.1-2.4-3-5.2-4.4-6.3-1.3-1.1-3.5-3.6-4.9-5.5-2.1-3.2-2.5-3.4-3.6-1.9-1.1 1.6-1.4 1.5-2.8-.7-.9-1.4-3-5.5-4.7-9.1-2.8-6.4-3.1-6.7-6.5-6.7-4 0-4.5-.6-5.2-5.7-.5-4.4-4.8-8.5-10.7-10.3-3.5-1-10.5-7-15-12.8-1.5-1.9-2.6-2.3-6-2.1-2.3.1-5.1-.1-6.3-.4-3.7-1.2-5.9-8-4.2-12.8.7-2.1.7-4.3 0-7.1-1.2-4.5-.6-6.5 3.1-10.6l2-2.2h-3.2c-4 0-3.7-2 .4-3.5 2.2-.8 2.9-.7 3.3.3.3 1 .8.7 1.9-.7 1.9-2.8.7-4.3-2.8-3.7-1.6.3-4.2.9-5.9 1.2-5.8 1.1-4.1-4 9.6-28.1 4.7-8.3 9.1-15.9 9.7-16.9 6.2-10.2 10.3-16.2 15.2-22.4 5.1-6.3 6.2-7.2 9.1-7.2 3 0 5.4-2 5.4-4.4 0-.3-62.1-.6-138.1-.6H93.8z"/></svg>