<svg xmlns="http://www.w3.org/2000/svg" width="682.667" height="512" version="1.0" viewBox="0 0 512 384"><path d="M90.9 1.2c-.1.7-.3 3.1-.5 5.3-.7 8.2 2 12.5 15.1 24.1 5 4.3 11 9.8 13.5 12.1 11.8 11.2 19.1 17.8 25.8 23.4 4.1 3.4 8.2 7.6 9.3 9.3 2.1 3.4 2.5 8.6.9 11.4-2.5 4.5-6.1 14.7-6.6 19-.8 6-4.8 20-7.4 25.8-1 2.5-3.9 7.5-6.3 11.2-18.3 27.7-18.7 28.5-18.7 32.7s3.1 9.2 17.3 28.3c4.9 6.7 4.5 11.2-1.6 18.8-8.4 10.1-12.1 14.5-16.1 18.8-2.1 2.2-4.9 5.7-6.1 7.6-3.2 5-23.2 26.7-30.8 33.4-8.5 7.6-8.9 9.8-3.2 17.5 2.4 3.1 16.7 18 31.9 33.1 28.6 28.4 34.7 35.4 39.7 45.2l2.9 5.8h216.8l2-3.3c1.1-1.7 4.8-8.7 8.2-15.5 3.4-6.7 6.6-12.5 7-12.7.5-.3 1.6-2.9 2.6-5.8.9-2.8 5.7-13.1 10.6-22.8 5-9.9 9.2-19.5 9.5-21.7.9-6.4-4.4-17.5-12.7-26.8-3.8-4.2-15.1-20.1-18.3-25.7-2.6-4.8-1.5-8.4 7.6-24.7l8.2-14.5.3-13.5c.3-12.5.2-14-2-18.7-2.1-4.6-11.4-15.9-20.8-25.3-2-1.9-7.6-8.5-12.5-14.5-10-12.4-9.7-12.1-19.7-23.2-12.2-13.5-17.6-24.2-14.7-29.4.7-1.3 1.6-4.2 2-6.4 1-5.9 4.9-18.8 6-20.1.5-.7 1.4-2.5 1.9-4.1.4-1.5 2.7-7.3 5-12.8s5.3-13.2 6.7-17c2.9-8.1 7-16.4 10.7-21.8l2.5-3.7H224C118.3 0 91 .3 90.9 1.2"/></svg>