<svg xmlns="http://www.w3.org/2000/svg" width="682.667" height="512" version="1.0" viewBox="0 0 512 384"><path d="M90 6.5c0 10 1.5 12.4 15.1 24.5 9.1 8.1 16.9 15.3 22.3 20.5 2.3 2.2 8.1 7.6 12.9 11.9 14 12.7 14.6 14.7 10.3 32.9-1.4 5.6-3.5 14.5-4.7 19.7-3.2 13.7-3.4 14-22.6 44.3-9.9 15.6-9.8 18.1 1.8 32.4 11.4 14.1 13.4 17.8 12.3 22.5-.3 1.6-7 10.7-15.1 20.6-16.5 20-15.5 18.9-26 29.9-11.3 11.9-20.7 22.2-21.7 24-.4.8-.6 3.3-.3 5.5.5 3.7 3.2 6.7 33.4 37.2 29.7 30 33.4 34 38.2 42.3l5.4 9.3h215.3l19.3-38.1c19-37.6 19.3-38.3 18.8-43.1-.8-6.7-6.2-16.3-18.9-33.8-12.5-17.3-12.8-17.8-12.8-22.5 0-3.5 1.5-6.8 13.8-29.4l4.7-8.6-.2-13.7c-.2-11.7-.6-14.4-2.3-17.8-1.1-2.2-7.7-10.2-14.6-17.8-7-7.5-15.6-17.5-19.2-22.2s-6.9-8.7-7.2-9-5.8-7.1-12.3-15.2c-11-13.9-14.7-19.9-14.7-23.7 0-.9 2.7-9.1 6.1-18.1 3.3-9.1 6.6-18.3 7.3-20.5 4-12.3 13.3-36 16.7-42.8l4-7.7H90z"/></svg>