<svg xmlns="http://www.w3.org/2000/svg" width="682.667" height="512" version="1.0" viewBox="0 0 512 384"><path d="M96 .9c0 .4.5 2.3 1.1 4 1 2.8.8 4.4-1.2 10.2l-2.3 6.8 2.7 2.9c1.5 1.5 2.7 3.5 2.7 4.3 0 .9.9 2.4 2 3.4 1.2 1.1 1.8 2.5 1.5 3.6-.7 2 2.7 4.2 8.3 5.4 1.7.3 3.2 1 3.2 1.3-.1.4-.5 2.7-.9 5.1-.8 4.1-.7 4.4 2.1 6 2.6 1.4 2.9 2 2.5 5.3s-.1 4.1 3 6.8c1.9 1.7 3.9 4.4 4.4 6 .6 1.6 2.5 3.8 4.3 4.9 1.7 1.1 4.1 3.4 5.4 5 1.2 1.7 3.1 3.1 4.2 3.1 3.1 0 3.9 2.7 2.4 8.4-.9 3.2-1.4 10.1-1.4 18.6.1 7.4-.3 14.8-.8 16.5-.5 1.6-3.7 8.4-7 15-12.6 24.9-13.1 26.5-10.8 33.5 3 9 9.3 21.5 12.6 24.5 4 3.8 6.3 9.1 5.5 13.1-.5 2.9-5 10.2-15.4 24.9-5.5 7.7-6.1 8.5-15.3 19.9C97.1 274.1 94 278.3 94 280.1c0 2.2 3.7 4.9 6.5 4.9 2.4 0 13.2 14.2 20 26.3 2.4 4.3 5.5 8.1 7.5 9.5 4.5 3 7 7.1 7.8 12.8.7 4.4.9 4.7 4 4.9 1.8.2 3.9.8 4.6 1.5 1.5 1.1 5.6 12.6 5.6 15.4 0 1.7 2.1 2.6 6 2.6 1.5 0 3.2.6 3.7 1.2 2.6 3.2 7.2 13.9 8.4 19.1l1.2 5.7 95.6-.2 95.5-.3 4-9.1c2.3-5.1 4.7-10.7 5.5-12.5.8-1.9 2.4-5.7 3.6-8.4 2-4.5 6-13.8 13-30.5 5-11.9 5.7-19.2 2.6-28.2-2.2-6.4-3.8-9.3-14.7-27.2-10.3-16.8-10.3-17.2-1.1-38.6 8.8-20.6 9-21.7 7.9-38.2l-.8-13.8-5.8-8.2c-3.1-4.6-9.1-13.3-13.1-19.3-4.1-6.1-12.6-18.1-18.7-26.8-6.2-8.7-12-17-13-18.4-2-3.1-4.3-14.6-3.4-17 .4-.9.9-4.2 1.2-7.2.2-3.1.9-7.6 1.4-10.1s1.4-8.1 2-12.5c3.2-22.5 6.6-39.5 10.1-49.8 1-3.1 1.9-6.2 1.9-6.7 0-.7-42.2-1-123.5-1C151.6 0 96 .4 96 .9"/></svg>