<svg xmlns="http://www.w3.org/2000/svg" width="682.667" height="512" version="1.0" viewBox="0 0 512 384"><path d="m103.4 4-2.7 4.1 2.6 2.7c1.5 1.6 2.7 3.2 2.7 3.6 0 .5-2.2 3.4-5 6.6-2.7 3.2-5 6.2-5 6.7s1.8 2 4.1 3.2c3.9 2.3 4 2.3 2.2 4.3-1.7 2-1.7 2.1.5 3.6l2.3 1.5-2.3 2.4c-2.9 3.1-1.7 3.9 7.6 4.9 5.9.6 6.7.8 4.9 1.7-1.3.5-2.5 1.9-2.9 3.1-.3 1.2-1.9 3.3-3.5 4.8-3.6 3.3-3.8 5.8-.5 5.8 1.4 0 2.8.4 3.1 1 .9 1.4-1.2 4.8-3.5 5.5-1.1.4-2 1.5-2 2.6 0 1.6-.5 1.9-2 1.4-1.4-.4-2-.2-2 .9 0 2.1 3.7 3.9 6.9 3.3 4.4-.9 7.1 2.2 7.1 8.1 0 5.1.9 6.2 5 6.2 1 0 2.5 1.1 3.4 2.5 1.1 1.7 2.6 2.5 4.6 2.5 3.6 0 3.6 0 1 7.3-1.1 3.1-2 6.5-2 7.6s-.9 2.9-2.1 4c-2.8 2.6-1.7 4.1 2.9 4.1 5.7.1 7.6 2.1 7.3 7.7-.1 2.6-.6 5.2-1 5.8-2.1 2.7-7 18-8.6 26.5l-1.7 9.5 3.7 14.5c3.6 14 3.8 14.6 8.1 18.6 4.3 4.1 4.4 4.3 4.4 10.8 0 6.4-.3 7.1-7 18.9-3.8 6.7-9.5 16-12.7 20.6-8.3 12-10.2 17.1-6.4 17.1 1 0 2.4.7 3.1 1.5 1 1.2 2.4 1.4 5.4 1l4.2-.7 2.2 6.4c1.3 3.5 3.5 10.3 5 15.2 2.8 9 3.6 10 8.2 11 4 .8 6 5.4 6 13.4 0 3.9.4 7.3.9 7.7.5.3 2.1 0 3.5-.6 4.1-1.9 5.8.3 5.5 7-.1 3.1-.2 7.6-.1 10 .2 4.9.3 4.9 9.1 1.6 4-1.5 4.5-1.5 5.3-.1.5.9 1.6 1.6 2.3 1.6 1.2 0 1.5 1.8 1.5 9.3 0 5.1.4 11.8.9 14.8s1.2 7.5 1.6 10.1l.6 4.8h87c47.8 0 86.9-.1 86.9-.3s2.7-7.5 6.1-16.3c14.9-39.2 17.2-47.7 16.8-61.4-.4-11.7-2-17-9.8-33.3-5.8-12-6.1-13.1-6.1-20 0-7.4 2-15.1 7.9-31.7 2.9-8.2 3.1-9.1 3.1-25.3 0-15.8-.1-17.1-2.6-22.9-1.4-3.4-4-8.5-5.8-11.2-1.8-2.8-5.1-9.6-7.5-15-2.3-5.5-5.1-11.2-6.2-12.7-1-1.5-1.9-3-1.9-3.4s-2.5-4.4-5.6-8.8c-3.1-4.5-6-9.3-6.4-10.7-.5-1.4-2-5.7-3.5-9.5-1.9-5.2-2.7-9.5-3-16.5-.9-18-1-70.5-.2-77.8l.8-7.2H106zm14.3 65.6c.8 2.3-1.2 3.8-4.1 3-3.9-1-3.6-4.6.4-4.6 1.9 0 3.3.6 3.7 1.6"/></svg>