<svg xmlns="http://www.w3.org/2000/svg" width="682.667" height="512" version="1.0" viewBox="0 0 512 384"><path d="M108.9 5.1c-2.4 2.8-4.5 5.7-4.7 6.5-.2.7 1.2 2 3.2 2.8s3.6 1.7 3.6 2c0 .7-8.7 9.2-12.4 12.1l-2.8 2.2 5.6 2.6c3.1 1.4 5.6 3 5.6 3.5s-1.2 1.5-2.6 2.2l-2.5 1.4 2.3 1.7 2.2 1.7-3.2 1.9c-1.7 1-3 2.2-2.9 2.8.4 1.2 6.9 2.3 14.7 2.5 5.1.1 5.3.3 2.9 1.3-4.8 2.2-14.3 11.3-13.6 13.1.4.9 1.5 1.6 2.6 1.6s2.2.4 2.6 1c.7 1.1-2.5 5-4.1 5-1.7 0-6.5 4-5.9 5 .3.4 3 2.4 6 4.5l5.5 3.6V99h3.1c2.2 0 3.2.5 3.6 2 .5 2 2.3 2.8 2.3 1.1 0-.9 4.5-.9 5.4 0 .2.2-.7 4.4-2 9.4-3.3 12.5-3.3 12.9 1.4 12.2 4.4-.8 10.2 2.1 10.2 5 0 2.8-6.2 21.6-7.7 23.4-1.8 2.1-1.7 3.4.2 1.9 1.3-1.1 1.4 0 .9 8.1-.5 7.4-.2 11.6 1.5 19.9 3.4 17.1 4.3 19.3 8.3 21.2 3.1 1.5 3.6 2.3 4.1 6 .3 2.4.4 5.9.2 7.8-.3 3.4-7.6 19.2-16.4 35.3-4.6 8.5-4.7 11.7-.6 11.7 1.4 0 3.9.9 5.7 2l3.3 2 1.6-2.2c2.2-2.8 3.5-1.8 4.3 3.4.4 2.4 1.7 9 2.9 14.8l2.2 10.5 3.5.5c4.8.8 5.7 1.5 7 5.6.9 2.6.9 5.1.1 9.8-1.8 10.6-1.4 11.4 4 7.5 3.6-2.6 6.4-1.9 5.5 1.4-1.5 5-1.7 6.5-2.1 13.4-.2 4 .1 7.5.6 7.8.5.4 3-1 5.5-2.9 2.6-2 5.3-3.6 6-3.6s1.9-.3 2.8-.6c1.1-.4 1.6 0 1.6 1.3 0 1 .4 2.3 1 2.9s1.2 9.8 1.5 21.2c.3 11.2.8 21.4 1.1 22.7l.6 2.5h165.7l1.4-2.8c2.2-4.2 10.5-28.3 12.9-37q5.85-22.05 5.7-38.1c-.2-12-1.3-17.1-7.6-33-4.5-11.4-4.5-11.7-4-20.6.3-5.7 1.8-13.8 4-22 5.8-21.6 6-23.1 5.5-39.2-.3-10.5-.9-15.8-2-18.3-.9-1.9-4.2-10-7.3-18-6.5-16.6-10.8-25.6-15.8-33.2-4.7-7.1-10.5-22.4-11.8-31.2-.5-3.9-2.1-13.9-3.4-22.1-5.4-34.4-5.8-38.2-5.2-52 .4-7.3 1-14 1.3-14.9.6-1.5-8.2-1.6-104.9-1.6H113.2z"/></svg>