<svg xmlns="http://www.w3.org/2000/svg" width="682.667" height="512" version="1.0" viewBox="0 0 512 384"><path d="m113.9 2-2.4 1.9 5.9.1h6l-7.7 7.1c-4.2 3.9-7.7 7.5-7.7 7.9 0 .5 2 1.2 4.5 1.6 5.4.8 6.4 1.9 3.3 3.5-5.1 2.7-16.9 12.2-16.1 12.9 1 1 9.9 4 11.8 4 2.9 0 1.5 2-2.5 3.6-4.3 1.8-4.9 2.8-2.3 4.2 1.4.8 1 1.4-2.4 3.5-2.3 1.5-4.4 3-4.7 3.5-.8 1.3 10.9 2.1 17.2 1.3 2.8-.4 5.2-.5 5.2-.2s-2.6 2-5.8 3.8c-8 4.4-18.4 12.2-17.7 13.3.3.4 1.9 1.2 3.7 1.5l3.1.7-2.4 1.9c-1.3 1-3.7 2.4-5.4 3-3.2 1.3-7.5 4.7-7.5 6 0 .9 10.2 7.8 13.3 9.1 2.1.9 2.1.9.2 7.8-2.2 8-2.1 8.3 2 7.6 3.1-.6 3.5-.4 3.5 1.4 0 1.1.5 2 1 2 .6 0 1-.5 1-1.1s.6-.9 1.4-.6 2-.1 2.7-.9c2.3-2.8 2-.6-1.1 9.8-1.7 5.6-3.4 11.1-3.6 12-.8 2.7 1 2.2 12.3-3.3 11.1-5.4 13.2-5.5 11.3-.4-1.3 3.4-5 19.8-5 22.1 0 1.5.2 1.5 2-.1 1.1-1 2.3-1.6 2.6-1.3s0 3.5-.7 7.2c-.6 3.6-.8 7.4-.4 8.4.4.9.8 4.6 1.1 8.2.5 9.3 2.5 24.1 3.5 26.7.6 1.7 1.7 2.3 3.9 2.3 3 0 3 0 3 5.8 0 3.2.6 6.6 1.3 7.6 1.1 1.5.8 4.1-2 16.4-3.3 14.7-4 20.2-2.5 20.2 2.5-.2 12.4-8.5 13.6-11.5.3-1 .8-1.6 1-1.4s.6 8.6.9 18.6c.2 9.9.8 18.6 1.1 19.2.4.6 2.7 1.1 5.2 1.1 4.3 0 4.5.1 6.3 4.3 1.9 4.3 1.9 4.5-.4 12.3-3.5 12.5-3.7 13.4-2.3 13.4.7 0 3-1.9 5-4.2 2.7-3.2 4-4 4.8-3.2.9.9.4 3.2-1.6 8.9-2 5.6-2.4 7.9-1.5 8.4.9.6.8 1.8-.3 4.9-.8 2.3-1.1 4.4-.7 4.6.4.3 4.6-2.8 9.3-6.9 4.8-4 8.9-7.1 9.2-6.8.3.4.6 1.5.6 2.5s.5 1.8 1 1.8c1.4 0 1.2 5.9-.5 12.7-1.7 7-2.6 43.6-1 44.2.6.2 2.3-1.9 4-4.7 1.6-2.9 3.2-5.2 3.6-5.2.9 0 .5 10.5-.5 14.2l-.8 2.8h5.4c3 0 6-.6 6.7-1.3 1.1-.9 1.4-.9 1.8 0 .4 1 9.2 1.3 39.8 1.3 30.5 0 39.4-.3 39.8-1.3q.6-1.35.6 0c.1 1 6.3 1.3 27.5 1.3h27.4l.5-3.3c.5-3.1 4.1-17.7 7.3-28.7 2-7.3 4.5-33.7 4.4-48 0-8-.7-14.5-2.3-21.5-3.4-15.2-3.1-40.1.5-58.5 1.9-9.8 2.8-17.9 3.2-29.5.5-14.5.3-17.1-2-27.5-1.4-6.3-3.4-15.5-4.4-20.3-1.1-4.8-3-11.4-4.4-14.5-1.3-3.1-3.8-9.1-5.5-13.2-1.8-4.1-4.5-10.4-6.1-14s-4.4-11.2-6.3-17-4.7-13.7-6.2-17.5c-8.6-22.5-13.7-43.4-15.1-61.4l-.7-9.1h-96.2c-94.3 0-96.3 0-98.6 2"/></svg>