<svg xmlns="http://www.w3.org/2000/svg" width="682.667" height="512" version="1.0" viewBox="0 0 512 384"><path d="M131.2 6c-12.7 8.3-12.9 9.4-.9 6.6 6.3-1.5 7.2-.9 2.7 1.7-1.6 1-3.5 2.3-4.2 3s-4.4 3.7-8.2 6.7l-6.8 5.5 7.1.3 7 .3-8.2 4.2c-11.3 5.9-17.1 9.7-16.1 10.6 1.5 1.4 10.1 3.1 15.6 3.1l5.3.1-7.5 3.7c-10.8 5.3-11.1 5.5-7.5 6.2 2.9.6 2.8.7-4 4.3l-7 3.6 7 .1c5.3 0 6.6.3 5.5 1.1-1.2.8-.9.9 1 .4 6.1-1.7 18.6-4.5 20-4.4.8 0-2.6 1.7-7.5 3.7C113.9 71.2 93 83.4 93 85.2c0 .5 2.4.8 5.3.8l5.2.1-6.6 2.3c-6.2 2.2-14.8 6.5-17.6 8.8-1.9 1.6-1 2.4 9.3 7.9 6.6 3.6 9.2 5.5 8.6 6.3-1.5 1.7-5.7 15.5-5 16.2.4.3 1.8-.2 3.3-1.2l2.7-1.8-.4 4.2c-.2 2.3-.3 4.2-.2 4.2 0 0 2.2-2.9 4.9-6.5 2.6-3.6 4.9-6.4 5.2-6.2.2.2-1.2 3.7-3.1 7.8-4.9 10.8-8.8 22.2-7.3 21.3 6.4-4 26.2-17.5 30.6-21 3.1-2.4 5.7-4 5.9-3.6.1.4-1.1 7.3-2.8 15.2-1.6 7.9-2.7 14.6-2.4 14.9.2.3 1.9-1.3 3.7-3.4 1.7-2.2 4-4.8 5-6 1.8-2 1.8-2 1.2 1.5-.4 1.9-.8 12.5-1.1 23.5-.2 11-.6 22.1-.9 24.8-.7 5.4.8 6.8 5.1 4.8 2.7-1.2 2.7-1.3.8 9.2-.5 2.4-.3 2.7 2.3 2.7 2.8 0 2.9.3 4.2 7.2 1.9 10.6 3.9 16.5 5.6 17.2 2.7 1 10.5-7.2 14.1-14.9 1.9-3.8 3.4-6.4 3.4-5.7s-1.1 3.4-2.4 6c-1.8 3.6-2.7 7.8-3.7 17.9-.7 7.3-1 13.6-.6 13.9.4.4 3.1.9 6.1 1.2 4.5.4 5.5.8 6 2.6 1.2 4.3.5 7.4-3.8 17.1-2.4 5.5-4.7 11.1-5.1 12.5-.7 2.3-.7 2.3 1.9-.5 1.5-1.7 2.5-2.4 2.1-1.8-1.3 2.5.8 1.2 4.7-3 3.3-3.6 3.7-3.8 2.9-1.5-.5 1.4-2.5 5.5-4.3 9-4.4 8.4-4.4 8.6-1.9 6.4 2.8-2.5 2.7-1.7-.9 5.4-1.7 3.3-2.6 6-2.1 6 .6 0 1.3-.5 1.6-1 .4-.6 1-.8 1.4-.6.8.5 7.6-4.7 14.2-10.9 2.6-2.4 5-4.1 5.3-3.7.4.3 1.1 0 1.6-.8 2.1-3.2.9 1.9-2.9 13.1-4.2 12.3-5.5 17.9-4.3 17.9.5 0 .1 3-.9 6.8-.9 3.7-2.1 11-2.6 16.3l-.8 9.5 3.5-3.4c1.9-1.8 4-4.6 4.7-6 1.2-2.4 1.3-1.7.8 5.2-.4 7-1 8.7-4.9 15.5-7.3 12.9-9.6 17.1-9.6 18.1 0 2.4 5.7.3 9-3.4 1.9-2.2 4.2-4.7 5.1-5.5.8-.9 3.1-3.8 5-6.5l3.4-4.9.3 3.2c.2 1.7-.4 5.6-1.2 8.5-3.1 10.6-6.8 9.6 35 9.6 20.1 0 36.3-.4 36-.8-.3-.5-.1-3.5.3-6.8.6-4.3 3.4-11.5 9.6-24.7 4.9-10.3 9-18.6 9.2-18.4s-1.2 3.7-3.1 7.8-4.6 11.4-6.1 16.4-3.1 10.1-3.6 11.4c-1.6 3.9-.4 3.4 3.5-1.5 2-2.6 3.6-4.5 3.6-4.3 0 .3-1.3 4.1-2.9 8.5-4.8 13.4-4.8 13.5-.8 8.9l3.6-4 .1 3.7c0 2.1.3 3.8.8 3.8.4 0 3.4-4.5 6.7-10 3.3-5.4 6.1-9.8 6.2-9.6.4.4-1.5 13.8-2.3 17.2l-.6 2.4h54.9l.6-35.8c.4-19.6 1.1-47.6 1.6-62.2 1.7-46.8 3.4-132.9 2.8-143.9-.8-15.1-6.5-31.1-18-50.6-23.6-39.8-31.9-58.2-37.3-83.3L297.6 0H140.3zM164 112.4c0 .3-1.5 1.5-3.2 2.7l-3.3 2.3 2.4-2.7c2.2-2.4 4.1-3.5 4.1-2.3m127.1 190.3c-6.6 13.3-14.5 26.8-13.7 23.8.2-1.1.8-4 1.2-6.5.4-3 1.9-5.9 4.4-9 2.1-2.5 5.9-8 8.5-12.3 2.5-4.2 4.8-7.7 5.1-7.7.2 0-2.2 5.3-5.5 11.7"/></svg>