<svg xmlns="http://www.w3.org/2000/svg" width="682.667" height="512" version="1.0" viewBox="0 0 512 384"><path d="M133.4 6.1c-10.4 7.1-17.7 12.9-17 13.6.2.3 3.9-.5 8.1-1.7 4.3-1.1 8-1.9 8.2-1.7.2.3-1.5 1.8-3.8 3.5C122.4 24.6 110 36 110 37.2c0 .7 1.8.9 5.3.5l5.2-.6-5.3 3.2c-9.6 5.8-14.6 9.2-14.9 10.3-.6 1.8 2.4 2.6 12 3.3l8.7.6-5.7 2.9c-6.3 3.2-11.5 7.4-10.7 8.7.2.4-.6 1.3-1.8 2-2.5 1.3-5.8 4.4-5.8 5.5 0 .3 3 .3 6.8 0l6.7-.7-2.5 2c-1.9 1.6-.4 1.2 6.4-1.5 4.8-1.9 9.6-3.3 10.5-3.1 1.3.3 1.3.5-.4 1.1-9.8 3.8-30.6 16.8-32.2 20.3-.8 1.7-.8 2.3 0 2.3.7 0-2.3 1.8-6.6 3.9-8.1 4-11.2 6.8-9.7 8.6.5.6 4.5 2.6 9 4.4 4.4 1.9 8.2 3.7 8.5 4.1s-1.1 4.4-3.1 9c-2 4.5-3.3 8.4-3 8.7.2.3 1.9-.2 3.6-1.1l3.1-1.5-.6 2.9c-.7 3.1.7 4.1 2.2 1.7.4-.8 2.5-3.4 4.7-5.8l3.8-4.4-5.7 11.4c-3.1 6.2-6.1 12.4-6.6 13.8-.8 2.2-.7 2.3 1.3 1.2 4.9-2.6 23.7-14.5 30.2-19.1 3.8-2.6 7.1-4.6 7.3-4.5.2.2-.5 3.3-1.6 6.8-3.3 11-6.2 22.1-5.8 22.5.2.2 2.9-2.3 6-5.5 3.2-3.3 5.7-5.8 5.7-5.6s-.9 4.1-2 8.6c-1.1 4.8-1.6 8.7-1.1 9.3s.3 3.8-.4 7.5c-1.9 9.1-3 26.1-1.7 26.1.6 0 2.1-.4 3.4-.9 2.4-.9 2.4-.9 1.4 3.8-1 5.3-.3 8.6 1.8 7.8 1-.4 1.6.9 2.1 5.1 1.4 11.9 2.5 15.2 4.9 15.2s5.7-1.9 10.2-6.2l3.2-3-2.8 11.4-2.8 11.3 2.6 1.4c1.4.7 3.9 1.1 5.8.8 3.2-.5 3.4-.4 4 3.1.6 2.8.2 4.6-1.6 7.7-1.2 2.2-4 7.3-6.2 11.3l-3.9 7.3 3.1-1.6c1.6-.8 3-1.3 3-1 0 .4 1.4-.3 3.1-1.5 1.6-1.2 3.3-2 3.5-1.7.3.3-1.3 3.3-3.5 6.6-5.5 8-6.3 10.4-2.6 7.1l2.8-2.5-2.8 5c-1.6 2.7-3.3 5.6-3.8 6.3-1.4 1.8-.2 2.5 2.1 1.3 1.2-.6 2.9-1.1 4-1.1s4.6-1.9 7.8-4.3c8.3-6 8.9-6.4 8.1-4.4-2 4.9-1.9 5.1 1.3 2.2 3.1-2.8 3.2-2.8 2-.5-.7 1.3-2.6 4.2-4.1 6.3-2.9 4-6.9 13.5-6.9 16.4 0 1.3.3 1.3 1.5.3 2.1-1.7 1.9-.4-1.1 7.1-2.4 6.1-6.8 24.8-6 25.6.2.2 1.1-.8 2-2.2s2-2.4 2.4-2.1c1.1.6 2.3-.3 5.1-3.9 1.7-2.1 2.2-2.4 1.8-1-.3 1.1-1.1 4.9-1.7 8.5-1.5 8.8-2 9.7-11.4 24-10.9 16.5-10.7 16.1-5.2 11.3 2.7-2.4 5.2-4.1 5.6-3.8s1.3-.2 2-1 1.8-1.5 2.5-1.5c1.3 0 10.5-8.7 10.5-10 0-.4.6-1 1.3-1.3 1-.4 1.3.2.9 2-.3 1.6-.1 2.4.5 2s-.4 3.7-2.2 9.1c-1.7 5.3-3.5 10.9-3.9 12.5l-.6 2.7 38.2-.2 38.2-.3 2.7-14c1.5-7.7 4.1-19.4 5.8-26 1.6-6.6 4.4-17.8 6.1-24.9 1.8-7.4 4-14 5.2-15.7 1.2-1.6 2.3-2.8 2.4-2.6.1.1-.8 4-2.2 8.6-1.3 4.5-2.1 8.7-1.8 9.3.7 1.2 5.2-4 17.8-20.6 5.4-7.2 10.3-13.6 10.8-14.1.6-.6-2.2 5.5-6.2 13.5-8.9 17.8-15.5 38.1-10.1 31l1.9-2.4.7 4.8c.4 2.6.5 7.2.2 10.2s-.4 5.4-.1 5.4c.2 0 1.7-2.6 3.4-5.8s2.8-4.6 2.6-3.2c-.3 1.4-.8 4.3-1.1 6.5l-.6 4 3.1-4.3c1.8-2.4 3.4-4.1 3.6-3.9s-1 4.3-2.6 9.2c-1.7 4.9-3 9.1-3 9.4s1.8-1.4 4-3.9l3.9-4.5.1 4.2c0 2.4.3 4.3.8 4.3.4 0 2.2-2.5 4-5.5s3.7-5.5 4.2-5.5c1.2 0 .3 7.7-1.6 14.7-2 7.2-1.8 8.2 1.1 4.8l2.5-3-.6 3c-.3 1.6-1.2 5.5-2 8.6-1.9 7.8-1.8 8.9.9 8.9 1.4 0 3.2-1.4 4.9-3.8 2.8-3.9 11.6-9.7 10.5-6.9-.3.8-.9 3.5-1.2 6.1l-.7 4.6h45.4l-.6-6.3c-1.8-18.6-2.7-50.7-3.1-116.7-.3-40.4-.9-88.1-1.5-106-.8-30.4-1.1-33.1-3.5-42-3.1-11.1-9.3-24.3-20.1-42.5-14.6-24.8-25-47.4-29-63.3L304.6 0H142.4zM163 113.3c0 .2-1 1.2-2.2 2.3l-2.3 1.9 1.9-2.3c1.8-2.1 2.6-2.7 2.6-1.9m117.6 153.6c1.1-.9 1.4-.9 1.4 0 0 1.3-7.4 12.6-8.8 13.5-1.2.7 2.7-16.5 4.1-18.3 1-1.2 1.3-.8 1.5 2.3.3 3.1.6 3.5 1.8 2.5"/></svg>