<svg xmlns="http://www.w3.org/2000/svg" width="682.667" height="512" version="1.0" viewBox="0 0 512 384"><path d="M32.5 1.6c4.1 3.1 9.2 2.9 10.3-.4.2-.8-1.5-1.2-6-1.2-5.8.1-6.2.2-4.3 1.6M133 2c-3.3 2.5-2.3 3.2 3.3 2.1 2.7-.5 4.7-.5 4.7 0s-.4.9-.9.9c-1.4 0-20.1 14.1-23.9 18.1-1.8 1.8-2.9 3.5-2.4 3.7.4.1 3.4-.7 6.7-1.8 8.5-2.9 9.7-2.5 4.5 1.8-8.4 6.9-15 13.5-16.4 16.3-1.4 2.7-1.3 2.8 1.6 3.1 3 .3 2.9.4-3 4.2-3.3 2.1-7 5.1-8.1 6.7L97 60l2.7.7c1.6.5 6.4.8 10.9.8h8.1l-5.1 2.9c-2.8 1.5-8.4 6.2-12.4 10.3l-7.3 7.5 5.8-.6c3.2-.4 6.7-1 7.8-1.3l2-.6-2 2.3-2 2.3 2.5-.8c1.4-.4 4.2-1.6 6.3-2.7 7.1-3.6 4.7-1.3-4.5 4.2-5 3-12.1 8.4-15.8 12-3.6 3.6-9.2 7.8-12.3 9.5-3.1 1.6-5.7 3.5-5.7 4.1 0 .7-.7 1.5-1.6 1.8-2.6 1-.8 2.2 8.6 5.5 4.9 1.8 9 3.6 9 4.1s-1.6 4.1-3.5 8.1c-4.4 9.2-4.5 10.5-.5 8.4 3.9-2 4.1-1.9 2.8 1-2 4.3-.1 3.9 4.7-1.1l4.6-4.9-3.2 6c-1.7 3.3-3.8 6.9-4.5 8.1-.7 1.1-2 3.8-2.8 5.9l-1.6 3.7 2.3-1.4c1.2-.8 7.4-4.5 13.7-8.3s14.3-8.8 17.8-11.3c3.5-2.4 6.5-4.2 6.8-4 .2.3-1.1 5.2-3 10.9s-3.9 12.2-4.5 14.3l-1 4 6.5-6.5c5.6-5.5 6.3-6 5.4-3.4-2 5.3-3.8 14.5-3 15 .4.3.2 2.9-.6 5.8-1.4 5.5-4.4 24-3.9 24.5.2.2 1.8-.3 3.7-1.1l3.5-1.5-1.8 6.5-1.8 6.4 2.5-.3c2.4-.3 2.5-.1 2.9 7.7.3 6 .9 8.3 2.2 9.2 2.3 1.8 2.4 1.8 8.3-2.3 2.8-1.9 5.3-3.4 5.5-3.2.3.2-.9 4.4-2.5 9.3l-2.8 9 2.1.8c1.2.5 3.9.6 6 .4l3.7-.5v4.3c0 2.4-.6 5-1.3 5.7-1.2 1.2-4.5 6.4-9.7 15.2l-2.4 3.9 3-1.5c10.8-5.6 13.8-6 9.7-1.5-3.4 3.7-8.5 11.7-7.5 11.7.5 0 1.5-.7 2.2-1.5.7-.9 1.5-1.3 1.7-1.1.3.2-1.4 3.2-3.6 6.5-4.7 6.9-4.9 7.6-1.8 5.9 1.2-.7 3.3-1.4 4.7-1.6s4.7-1.7 7.5-3.4c2.7-1.7 5.4-3.1 6-3.2.5-.1 1.5-.4 2-.7 1.7-1 6.5-2 6.5-1.3 0 .3-2 2.9-4.5 5.7-4.3 5-11.2 17.4-10.2 18.4.3.2 1.5 0 2.6-.7 2.9-1.5 2.7-.2-1 7.8-2.3 5.1-7.9 22.6-7.9 25 0 .2 1.4-.8 3.1-2.2s3.5-2.6 4.1-2.6c1.3 0 4.8-3.9 4.8-5.3 0-.6.3-.8.6-.5.3.4-.6 5.5-2.1 11.4-2.5 10.4-2.9 11.2-11.4 22.8-11.3 15.7-11.3 15.7-6.1 11.7 7.5-5.8 7.5-5.8 6.5-4.1-.6 1.1-.3 1 1.2-.3 1.1-.9 2.2-1.5 2.5-1.2s3.2-1.9 6.4-4.9 6-5 6.2-4.6c.2.5 1 .6 1.8.3 1.1-.4 1 .6-.7 4.8-1.2 3-3.4 9-4.9 13.4s-3.1 8.9-3.6 10c-.7 1.8-.6 1.9 1.2.5s1.8-1.4.2.6c-1 1.1-1.8 2.4-1.8 2.7 0 1.3 17.5.8 18.8-.5.9-.9 1.2-.9 1.2 0s7.1 1.2 28.9 1.2h28.8l1.8-8.1c.9-4.4 2.8-11.5 4.1-15.7 6.6-20.6 19.8-67.9 24.6-87.7 1.5-6.3 2.9-9.3 6.6-14.2 5-6.7 6.2-7.5 6.2-4.3 0 1.1.5 2 1.1 2 2 0 .1 5.8-3.9 11.8-6 8.9-12.3 21-11.3 21.7.6.3.4 1.9-.5 4-2.5 6-1.6 6.1 4.2.5 4.5-4.4 5.5-5 4.9-3-2 6.5-3.5 12.7-3.5 14.5.1 2.6 4-1.7 15.6-17.2 4.6-6.2 8.5-11.3 8.7-11.3.1 0-1.9 4.4-4.5 9.7-4.6 9.5-7.9 19-9.3 26.3l-.6 3.5 2-2.3c2.5-2.9 2.9-2.8 2.3.6-.5 2.5-.4 2.6 1.3 1.2s1.7-1.1 1.1 7.5l-.7 9 2.5-3 2.6-3-.6 3-.5 3 3.6-4c1.9-2.2 3.3-3.3 3.1-2.5s-1.4 4.6-2.6 8.3c-1.2 3.8-2 7.1-1.7 7.3.3.3 1.8-1.1 3.4-3 3.6-4.7 4.7-4.5 4 .4-.7 5.4.5 5.8 3.7 1 1.4-2.2 2.9-4 3.3-4 .6 0-.2 11-1.2 15-.6 2.3-.4 2.2 2.4-1 2.4-2.6 3.1-3 3.1-1.6 0 1.5-3 14.4-4.7 20-.3 1.3-.1 1.6.7 1.1.9-.6 1.1 0 .8 2.4-.5 3.7-.6 3.8 6-5.9 4.4-6.5 11.2-12.8 11.2-10.3 0 .4-.7 4.4-1.5 8.8-1.8 10-1.9 13.9-.3 12.9.8-.5.9.3.5 2.9l-.6 3.7H351v-5c0-5.8 1.7-10.1 3.6-9.3 1.6.6 3.4 6.4 3.4 11v3.3h6.5c5.5 0 6.5-.3 6.5-1.8 0-.9-.9-11-2-22.4-2.7-29.3-3.8-51.9-5-102.8-1.4-59.2-3.7-121.1-5-133.8-1.9-17.6-7.2-30.6-22.2-54.2-19.1-30.2-26.5-44.1-31.8-59.8L302.1.5 218.8.3C138.1 0 135.4.1 133 2"/></svg>