<svg xmlns="http://www.w3.org/2000/svg" width="682.667" height="512" version="1.0" viewBox="0 0 512 384"><path d="M0 2.5c0 5.4 8.7 15.2 19.2 21.8 9.8 6.1 14 7.1 15.8 3.8 1.7-3.3 4-15.9 4-22.2V0H0zm136.3 1.8c-2.8 2.3-6.6 5.9-8.4 8.1l-3.3 3.9 3.2-.8c1.8-.3 3.2-.4 3.2-.2 0 .3-3.3 3.3-7.2 6.7-7.5 6.4-15.4 14.8-14.6 15.5.2.3 4-.9 8.4-2.5 4.3-1.7 8.1-3 8.3-3s-4 4.1-9.3 9.1c-5.3 5.1-9.4 9.4-9.2 9.7.3.2-.6 2-2.1 3.8l-2.5 3.4h2.3c2 0 1.7.4-1.9 3.1-2.3 1.7-4.2 3.6-4.2 4.2s-1 2.1-2.2 3.4-1.8 2.6-1.4 3 4.7.7 9.6.7 8.6.4 8.4.8c-.3.4-2.4 1.9-4.7 3.3-4.1 2.4-9.7 8.4-9.7 10.4 0 .5-1.4 2.1-3.1 3.6-1.7 1.4-2.9 2.8-2.7 3.1.3.2 3.1-.2 6.4-1.1 8.5-2.2 9.2-2 5.8 1.6-2.3 2.4-2.5 2.9-.9 2.4 2.3-.8 1.9-.4-5 5-2.2 1.6-5.6 4.9-7.8 7.1-2.1 2.3-6.5 5.6-9.8 7.3-3.2 1.8-5.9 3.8-5.9 4.5s-.9 2.1-2.1 3.2c-2 1.8-1.9 1.9 7.3 4.5 5.1 1.4 9.2 2.9 9.1 3.3-.1.3-1.5 3.4-3.1 6.9-5.1 10.7-5.1 12.5-.3 9l2.4-1.6-.6 3.8-.6 3.8 3.5-3.4 3.6-3.4-4.1 7.1c-4.5 7.8-5 9.7-2.3 8.7 2.1-.9 24.8-14.6 32.2-19.6 3-2 5.6-3.3 5.8-2.9.1.5-1.7 6.3-4.2 12.8-2.4 6.5-4.2 12.2-3.9 12.7.2.4 2.7-1.3 5.5-3.8s5.2-4.4 5.4-4.2c.3.2-.3 2.4-1.2 4.8s-1.8 6-1.9 7.9c-.2 1.9-1.4 8-2.9 13.5-2.5 9.7-3.2 14.5-2.1 14.5.4 0 1.9-.7 3.5-1.5 3.6-1.8 3.5-1.9 1 4.5s-2.5 6.8.3 6.3c2.1-.4 2.2-.2 1.9 4.7-.8 10.7 1.6 12.4 10.2 6.9 2.7-1.6 5-2.8 5.3-2.6.2.3-1 3.3-2.7 6.8-1.6 3.4-3 6.8-3 7.5 0 1.6 5 2.7 8.4 1.8 2.4-.6 2.6-.4 2.6 2.4 0 1.9-1.6 5.3-4.4 9.3-2.5 3.5-5.8 8.5-7.5 11.1l-3 4.8 2.6-1.7c1.4-1 3.5-1.9 4.7-2 1.1-.2 3.1-1 4.4-1.9 1.3-.8 2.8-1.4 3.3-1.2 1 .3-1.2 3.6-8.1 12-2.2 2.6-2.8 3.9-1.7 3.5.9-.4 2.5-1 3.4-1.4 1-.4-.3 1.9-2.9 5.2-4.9 6.2-5.3 7.4-2 5.6 1.2-.6 3.1-1.1 4.4-1.1s5-1.6 8.2-3.5 6.4-3.5 7-3.5 2.3-.6 3.7-1.4c2.4-1.2 2.6-1.2 2.2.4-.3.9-2.4 3.8-4.8 6.4-2.3 2.6-5.7 7.4-7.4 10.6l-3.2 5.9 3.1-.9c1.8-.5 3.2-.5 3.5.1.4.5-1.1 4.2-3.3 8.2-4.2 7.8-9.7 22.5-8.8 23.4.3.3 1.3 0 2.2-.8.9-.7 2.2-1.4 3-1.5 1.6-.2 3.7-2.3 7.7-7.2 3.3-4.2 3.3-3.8.6 3-1.2 2.9-3.2 9-4.4 13.6-2.4 8.4-4.5 11.7-16.9 26.6-2.1 2.6-3.7 4.9-3.4 5.1.3.3 2.4-.9 4.8-2.6 2.3-1.7 3.9-2.6 3.5-1.9-1.1 1.7 3-.8 10.1-6.1 3.3-2.6 7.1-5 8.3-5.4 2.8-.8 2.8-.9-3.5 15.3-2.4 6.3-4.4 11.6-4.4 11.8s1.2-.3 2.8-1.3l2.7-1.7-3 3.5c-1.6 1.9-4.5 5.1-6.4 7.1l-3.5 3.8h8.3c8.5 0 10.9-.7 15-4.4l2.3-2.1-.7 3.2-.7 3.3h59.9l3.1-10.3c1.7-5.6 6.8-21.2 11.4-34.7 7.7-22.5 12.8-38.5 19.5-61 1.3-4.7 2.9-9.9 3.4-11.6 1.4-4.6 15.5-21.9 17.9-22 1.6-.1 1.9.3 1.4 1.8-.3 1-.1 2.5.5 3.2.8.9.2 2.6-2.1 6.2-8.5 13.5-13.8 24.8-10.7 22.8.7-.4.7.1-.1 1.6-.7 1.3-1.6 3.7-2.1 5.3-.8 3-.6 2.8 4.6-2.3 3-3 5.5-5 5.5-4.5-.1.6-.7 3.7-1.5 7-2.4 9.8-2.1 10.6 2.1 6 2-2.2 6.1-7.4 9.2-11.5 7.5-10.3 7.7-10.4 4.4-3-3.8 8.3-7.2 19.3-7.2 23.2v2.9l2.4-2.7 2.3-2.8-.5 3.5-.5 3.4 2.2-2 2.2-1.9-.7 9.2c-.4 5.1-.4 9.2-.1 9.2.4 0 1.3-1.2 2.2-2.8l1.6-2.7-.6 2.7c-.7 3.8 0 3.5 3.1-1.2 1.5-2.2 2.9-3.9 3.1-3.7.3.3-2.1 9.2-4.2 15.5-.9 2.6 1.5 1 4.2-2.8 1.5-2.2 3.1-4 3.5-4s.8 2.4 1 5.2l.3 5.3 2.2-3.5c1.5-2.3 2.3-2.9 2.3-1.8 0 1 .4 1.8 1 1.8.5 0 .3 2.1-.5 4.7-2.1 7-1.8 7.3 2.6 2.3 2.6-2.8 3.9-3.8 3.5-2.5-.7 2.8-4.6 21.3-4.6 22 0 .4.4.4.9 0 .5-.3 1.1.7 1.3 2.2.3 2.5.7 2.1 5-4.7 4.4-7.1 9.7-13.4 10.6-12.5.4.4-1.5 17.1-2.4 21.4-.4 2-.3 2.2.9 1.3 1.2-1 1.5-.1 2.1 5.7.3 3.8.3 8.4 0 10.2-.5 3-.1 2.7 3.6-3.1 5.8-9 6.2-9.3 6-4-.2 2.5-.2 6.6-.1 9.2l.1 4.8h12.8l1.1-7.5c.6-4.2 1.1-9.7 1.2-12.3 0-2.6.3-6.5.7-8.7l.7-4 2.3 2.3c1.2 1.2 2.2 3.3 2.2 4.6 0 2.2 3.2 18.3 4.6 23.3.6 2.1 1.3 2.3 6.6 2.3 5.2 0 5.9-.2 5.4-1.8-3.2-11.3-10.1-73.8-11.1-101.2-.8-23.7-2.3-52-4.5-87.5-1.1-17.1-2.5-38.9-3.1-48.5-2.6-43.1-5.1-50.3-27.7-81.8-6.9-9.7-15.9-23-19.9-29.4-6.9-11.1-8.6-14.4-14.7-28.1L296.1 0h-77.3l-77.3.1zM293 238.2c-3.7 6.1-6.4 8.7-3.4 3.3 2.4-4.2 4.1-6.4 5.1-6.5.1 0-.7 1.5-1.7 3.2"/></svg>