<svg xmlns="http://www.w3.org/2000/svg" width="682.667" height="512" version="1.0" viewBox="0 0 512 384"><path d="m.2 39.2.3 39.3L8 82.3c4.3 2.2 9.7 4 12.7 4.4 5 .5 5.3.5 6.3-2.1 1.3-3.5 1.3-26.2 0-34.6-1.9-11.7-3.9-17-10.8-28.9-4-6.7-4.2-7.4-2.6-8.6C19.3 8.4 40.2 4.8 69 2.9c9.6-.6 18.4-1.5 19.5-1.9C89.6.5 70.4.1 45.2.1L0 0zM122.5 1c.3.5 1.2.7 2 .3 2.1-.7 1.9-1.3-.6-1.3-1.1 0-1.8.4-1.4 1m3.1 6.6c-2.1 4.2-3.5 7.8-3.2 8.1s3.1-1.5 6.3-3.9c5.3-4 5.9-4.3 6.1-2.4 0 1.2-1.4 4.9-3.3 8.3l-3.4 6.2 5.7-3.4c3.1-1.8 5.8-3.2 6-3 .5.5-5 8.5-5.9 8.5-1.5 0-12 10.3-11.6 11.4.3.6-1.6 3.3-4.2 6-3.1 3.3-4.2 5-3.3 5.3 1 .4 0 1.9-2.9 4.9-2.3 2.4-4 4.6-3.6 5 .3.4-1.1 2.9-3.3 5.7-2.1 2.9-3.8 5.3-3.6 5.4.1.1 3.8-1.6 8.2-3.9 8.6-4.5 8.7-4.8-1.4 7.1-3.4 4.1-5.8 7.7-5.2 8.1.5.3-.5 2.7-2.5 5.4-1.9 2.7-3.2 5.2-3 5.6.3.4-.3 1.1-1.3 1.5-1.6.7-1.6.8.2 1.4 1.7.7 1.6 1-1.4 4.5-1.9 2.1-2.9 4.1-2.4 4.5.5.5 4.2.5 8.3 0 4-.6 7.6-.8 7.8-.6.2.3-2.1 2.8-5.1 5.7-3.8 3.6-5.3 5.7-4.6 6.4.6.8-.5 2.8-3.3 6.1-2.9 3.3-3.6 4.6-2.2 4.1 2-.8 5.1-1.9 10.4-3.5l2.9-.9-2.2 3.4c-3.1 5.1-15.5 17-21.7 20.9-3 1.9-4.8 3.5-4.1 3.5 2.1 0 1.3 1.9-2 4.9l-3.3 2.9 6 .7c11 1.2 10.8 1 8.8 4.8-.9 1.7-1.6 4-1.4 4.9.1.9-.7 3.5-1.9 5.8l-2.1 4.1 3.1-1.6 3.1-1.6-.7 2.7c-.5 2.1-.4 2.5.7 1.9.7-.5.3.8-.9 2.9-1.3 2.1-2.1 4-1.9 4.2s4.1-2.1 8.8-5.1c4.6-3 9.3-5.9 10.4-6.4s6-3.6 11-7c4.9-3.3 9.1-5.9 9.3-5.7s-.1 1.2-.7 2.3c-4.1 7.6-8.2 20.3-6.4 20.3.3 0 1.9-1.1 3.5-2.5 1.7-1.4 3.2-2.4 3.4-2.2s-1.5 5.3-3.7 11.3c-4.5 11.6-6.1 17.4-5 17.4.4 0 1.7-.7 2.9-1.6 3.3-2.3 3.7-1.2 1.3 3.2-2.5 4.6-2.6 6.4-.6 6.4 1.1 0 1.2.5.5 2.6-1.3 3.3-1.3 6.4 0 6.4.6 0 3.7-1.3 7-2.9 3.3-1.5 6-2.7 6-2.6s-1.5 2.2-3.4 4.6c-1.9 2.3-3.3 4.6-3 5 .2.4 2.1.3 4.1-.2 2.1-.5 4.4-.9 5.2-.9 2.6 0 0 5.3-6.3 12.9-7 8.4-11 14.3-8.6 12.5 5-3.6 11.8-6.7 15.2-6.8l3.9-.2-7.8 7.8c-7.3 7.4-9 10.3-4.4 7.8 2.9-1.5 2.6.2-.5 3.1-1.4 1.3-3.5 3.7-4.6 5.3l-2.1 2.8 2.4-.7c1.3-.4 7-2.9 12.7-5.6 5.6-2.6 10.2-4.6 10.2-4.5 0 2.4-3.2 8-6.4 11.3-4.7 4.8-8.2 10.3-6.6 10.3.6 0 2.6-.7 4.5-1.4 2.9-1.3 3.5-1.3 3.5-.1 0 .7.6 1.5 1.3 1.8.8.3.4 1.4-1.4 3.3-4.4 4.9-8.5 11.6-11.8 19.3-1.7 4-3.1 7.7-3.1 8.2 0 1.7 3.3-.7 11.8-8.6 6.1-5.7 8-7 7.2-5.1-.5 1.4-.7 2.6-.4 2.6s-.8 2.4-2.4 5.2c-1.7 2.9-4.2 8.2-5.5 11.8-1.4 3.6-2.8 7.3-3.2 8.3-1 2.4 1.7 2.2 4-.3 1-1.1 2.2-2 2.7-2s-.1 1-1.4 2.3c-5.8 5.9-22.4 24.1-23.1 25.4-1.3 2.2 3.9-.7 14.5-8.1 9.7-6.7 14.8-9.8 14.8-9.1 0 .3-1.4 3.3-3.1 6.7-2.3 4.5-2.7 5.9-1.5 5.5 2.3-.9 2.1-.3-3 8.9-2.5 4.6-4.1 8.4-3.7 8.4s3.3-1.9 6.3-4.1c3-2.3 6.2-4.7 7-5.3 2-1.5-12.3 12.7-18.3 18.1-4.7 4.3-4.7 4.3-1.9 4.3 4.6 0 19.5-4.1 22.5-6.2 3.2-2.3 3.4-1.5.7 4.7-1.1 2.6-2 4.9-2 5.1 0 .9 1.8.3 3.6-1.4 1-.9 2.8-2.4 3.8-3.2 1.9-1.5 1.9-1.4.2 1.8l-1.7 3.2h57.6l3.4-9.8c1.9-5.3 6.4-17.1 10.2-26.2 11.7-28.7 20.9-53.4 33.5-90.3 5.4-15.9 8-21.3 5.5-11.1-.7 2.5-1 4.8-.8 5 .3.4 9.5-11.5 14.1-18.5 2.4-3.5 3.1-4 3.6-2.7.5 1.6.7 1.6 2.1-.1.9-1 2.5-3.4 3.7-5.3 1.1-2 3.2-4.6 4.6-5.9l2.5-2.4-.9 3.4c-1.1 3.8-2.4 6.5-12.8 26-4 7.5-7.2 13.9-7.2 14.3 0 .5.7.6 1.5.2 1.3-.5 1.3-.1 0 3.1-2.5 5.9-1.8 6 4.1.3 3.3-3.2 5.4-4.6 5-3.5-1.2 3.3-2.8 12.5-2.3 13.8.2.6 2.8-1.9 5.8-5.5 3-3.7 5.5-6.6 5.6-6.5s-.7 3.8-1.8 8.2c-2.9 12.2-2.6 12.6 3.4 4.4l1.8-2.4-.6 3c-.3 1.6-.8 3.9-1.1 5-.4 1.5.3 1.2 2.6-1.4l3.2-3.3-.3 2.8c-.5 6.6.2 17.4 1.1 17.4.5 0 2.3-1.9 4-4.2 3.4-4.6 3.7-3.6 1.4 4.1-2.3 7.8-1.5 9.1 2.4 3.7 1.8-2.5 3.7-4.6 4.2-4.6s1 2.4 1.2 5.2l.3 5.3 2.2-3.5c2.5-3.8 2.8-2.9 1.2 3.9-.5 2.4-.8 4.6-.6 4.8.3.2 2.2-2 4.3-4.9 4.4-5.9 5.2-5 2.9 3.2-2 7.4-2.5 17.2-.8 15.8 1-.8 1.3-.3 1.3 2.3.1 3.3.1 3.3 1.6 1.4.9-1.1 3.8-6.2 6.6-11.3 2.7-5 5.2-9.2 5.5-9.2.2 0 .2 5.3-.2 11.7-.6 10.7-.5 11.6.9 9.9s1.5-1.1 1.8 7.4l.3 9.3 4-7.3 4-7.3.3 4.4c.6 11.3 3.4 23.9 5.2 23.9.3 0 1.2-1.5 1.9-3.2l1.3-3.3 1.6 5c.8 2.8 1.7 4.3 2 3.5s.8-1.7 1.3-2c1.4-.9 3-16.3 2.8-27.3-.1-5.9.1-11 .3-11.2 1.4-1.5 3.8 3.2 5.7 11.5 2.1 8.6 5.5 18.3 8.4 23.5.6 1.1 2.5 4.7 4.1 8 2.6 5.1 3.1 5.6 3.4 3.6l.4-2.5 2 2.5c1.6 2.1 1.9 2.1 1.4.4-.3-1.1-1.2-5.7-2-10.3-.9-4.5-2.5-11.8-3.6-16.2-4.5-17.6-12.2-60.5-13.5-75-3.5-39.2-16.7-146-20.1-162.4-3.3-15.7-10.9-26.8-35.3-51.9-10.2-10.4-19.1-19.5-19.6-20.1-4.5-4.7-15-18.5-19-24.9L274.7 0H129.3zm37.3 294.1c-1.2 1.6-4.4 5.6-7.1 9-5.4 6.8-7.8 8.7-3.2 2.5 4-5.4 11.5-14.2 12-14.2.3 0-.4 1.2-1.7 2.7"/></svg>