<svg xmlns="http://www.w3.org/2000/svg" width="682.667" height="512" version="1.0" viewBox="0 0 512 384"><path d="M26.9.2c0 .2-.2 4.1-.5 8.8l-.4 8.5 2.9-3.5c1.6-1.9 3.2-3.2 3.6-2.9.3.4.6 4.4.6 9 0 8.3 0 8.4 1.7 5.6.9-1.5 2-2.7 2.3-2.7.4 0 .9 1.2 1.2 2.7.3 1.6 1.7 4.4 3 6.5l2.5 3.6-2.6 1c-4.8 1.8-13.7 1.5-17.9-.6-3.7-1.9-19-3.9-16.2-2.1 2 1.2-1.2 1.2-4.5-.1-2.5-.9-2.6-.8-2.6 2.4 0 2.6.5 3.5 2.3 4l2.2.7-2.3 1.6L0 44.2V384h17.8l1.1-6.3c.6-3.5 1.1-8.2 1.1-10.5 0-4.4 1.8-18.8 2.6-21.2.4-1 .9-.8 2.2 1.1.9 1.4 2.8 3.7 4.2 5s3.8 4.3 5.4 6.7c1.8 2.6 3.6 4.2 4.5 4 2.1-.4 4.5-8 7.7-24.3 4.7-24.3 4.1-43.4-1.8-56.5-3.5-8-4.9-12.4-3.5-11.3 14.6 11.6 19.8 13.2 31.1 9.8 13.2-4 13-7.9-1.5-28-6.7-9.4-8.6-11.2-15.6-15.1-3.1-1.7-5.3-3.6-5.3-4.5 0-4.4 8.9-15 29.8-35.7 7.9-7.8 14.2-14.6 14-15-2.9-7.4-6.6-13.3-8.6-13.9-2.5-.6-3.2 0-14 13.2-7 8.6-24.6 26.5-26 26.5-.7 0-1.2.4-1.2.8 0 .5-1.1 1.4-2.5 2-2.4 1.1-2.5 1.1-1.9-1.6 1.8-8.1 5.7-17.6 14.1-34.2 9.6-19.1 12.3-22.6 15.6-20.9 1.6.9 1.8.7 1.1-2.5-.3-2-.4-3.6-.1-3.6s1.9 1.3 3.5 2.9c1.8 1.9 5.4 3.7 9.9 5 8.4 2.5 8.4 2.5 7.7.6-.8-1.9.5-1.9 3.1-.2 1.1.8 4 2.1 6.4 3.1l4.3 1.7-.6-3.6c-.8-4.1-.6-4.1 7.2-2.1 3.3.9 5.2 1 5.2.4s.7-.7 1.6-.4c1.4.5 1.5 0 1-3.9-.7-4.3-.6-4.5 1.7-4.5 1.3 0 3.1.8 4 1.8 1.7 1.9 1.8 3 1.7 18.5l-.1 6.8 2.4-1.5c1.3-.9 2.7-1.3 3-.9.4.3.7 3.3.7 6.5s.4 5.8.8 5.8c.5 0 1.9-2.2 3.1-4.8 1.3-2.7 3-4.9 3.8-4.9 1.3 0 1.4 1 .9 5.9-.7 6.2.1 7.3 2.8 3.6 1.5-2.2 1.5-2.1 0 1.1-2.2 4.7-4.4 12.2-3.3 11.5s1.1-.7-.2 7.6c-.7 4.8-.7 7.5 0 8.7.8 1.4 1.1 1.5 1.1.3.1-1.3.2-1.2 1 .1.6 1.1.4 4.5-.5 10-1.8 10.3-1.9 9.9.7 6.9l2-2.5-.7 4.2c-.4 2.4-.3 4.3.2 4.3s.8 2.1.6 4.7c-.5 6.3.4 9.6 2.2 8.9 1.8-.6 2 4 .6 9.2-1.1 3.8-.8 3.9 4.7.7l4.3-2.5-.7 2.3c-.4 1.2-.9 2.9-1.2 3.7s.4.4 1.5-.9l1.9-2.4-.2 8.7-.3 8.8 2.6-2.6c1.4-1.5 2.8-2.4 3.1-2.1.7.7-3.8 14.6-5.7 17.5-1.5 2.3-1.5 2.4.2 1.7 1.6-.6 1.7-.2 1.1 3.1-.3 2-1.7 5.6-2.9 7.9-1.3 2.4-2.2 4.3-2 4.3.1 0 1.5-.7 3.1-1.5 1.9-1 3-1.1 3.5-.4.4.6.9.3 1.4-.8 1.3-3.3 2.6 2.2 1.6 6.8-.9 3.9-.9 4 .9 2.4s1.9-1.6 1.5 1.6c-.5 3.9-.7 4 8.6-8.6 4-5.5 8.1-10.9 9.2-12 1.9-2 1.9-2 1.2.5-.4 1.4-1 3.2-1.3 4-.3 1 0 1 .9-.3 1.3-1.6 1.4-1.3 1.4 2.2 0 2.1-.4 3.7-.9 3.3-.5-.3-.6.2-.3 1.2.4 1 .2 2.6-.4 3.8-.8 1.5-.7 2.4.5 3.7.9 1 1.6 2.3 1.6 3s.4 1 .9.7c1.3-.9.6 4.1-.9 5.9s-.7 1.9 2.2.4c1.8-.9 2-.9 1.5.4-.4 1 .1 1.8 1.4 2.2 2.4.8 2.3 5.4-.3 10.7-2.8 5.7-2.2 6.5 1.9 2.7 2-1.8 3.3-2.8 2.9-2.1-.9 1.6.6 1.6 2.4-.1.7-.6.2.4-1.2 2.3-4.1 5.8-4.4 6.4-1.9 5.1 1.9-1.1 2-1 1.1 1.5-1 2.5-.9 2.6.6 1.3 1.6-1.3 1.6-1.2.5.9-1.5 2.9-.7 4 1.4 2.2 1.4-1.1 1.3-.5-.3 3.8-2.1 5.6-2.1 5.6 4.7.5 2.4-1.9 4.6-3.1 4.9-2.8.3.2-.3 2.3-1.3 4.5-1.8 4.1-1.4 6.3.7 4.2 1.6-1.6 2.8-1.5 2.8.3 0 .9.6 1.2 1.5.8 1.3-.4 1.2.5-.6 4.8-3.3 8.2-3.5 9.9-.8 6.2 3.1-4.2 4.4-4.2 2.4 0l-1.6 3.2 2.1-2.5c1.8-2.1 2.1-2.1 1.5-.5-1 2.8-2.4 8.8-2.5 10.2 0 1 10.7 1.3 50.4 1.3h50.3l.9-6.3c.4-3.4.8-28.3.8-55.2.1-30.7.5-49.6 1.1-50.5.8-1.2 1.1-.7 1.6 2l.6 3.5 1.1-2.7c1.4-3.5 3.2-4.5 3.2-1.8 0 1.2.4 1.9.9 1.5.5-.3 1.2.4 1.6 1.5.9 2.7 1.7 2.5 3.7-.7l1.6-2.8.7 2.8c.9 3.4 2.1 3.5 2.9.2.8-3.1 2.2-3.2 3.2-.3l.6 2.1 1.4-2.4c1.1-2 1.3-2.1 1.4-.5 0 1.7 6 9.6 6 8 0-.4.8.1 1.9 1 1 .9 2.4 1.6 3.2 1.4.7-.2 1.6 1 1.9 2.7.7 2.9.7 2.9 2-1.8.7-2.6 1.6-4.7 2.1-4.7s.9.4.9.8c0 .5.9 1.9 2 3.2s2 2 2 1.5c0-.4.7-.2 1.5.5 1.8 1.5 1.9 1.5 3.2-3l1.1-3.5.1 4.1c.1 2.7.8 4.7 2.1 5.9 1.1 1 2 2.5 2 3.4 0 1.2.2 1.3.8.3.6-.9 1.2-.5 2.1 1.5 1 2.1 1.4 2.4 2.1 1.3.8-1.3 1.1-1.2 2.3.4 1.6 2.2 2.2 1.5 3.1-3.6.7-3.8 2.6-6.2 2.6-3.2 0 .9 1.4 3.2 3 5.1 1.7 1.8 3 4 3 4.9 0 .8.6 1.4 1.4 1.2s2.2.6 3 1.7c1.5 1.9 1.5 1.9 1.6-1.2 0-1.7.4-3.4.9-3.7s2.8 1.7 5.2 4.5c2.4 2.9 4.5 4.6 4.7 4 .3-.9 1.1-.7 2.9.5l2.6 1.6-.7-2.8c-.7-2.8-.7-2.8 1.2-1.1 1.5 1.4 2.1 1.5 2.5.5.3-.9 1.2-.6 3.1 1.1l2.6 2.4-1.6-5.4c-1.6-5.5-8.7-22.2-10.7-24.9-.5-.8 1.3 1 4.1 4s5.1 5.8 5.2 6.2c0 .7 10.9 9.5 15.3 12.3 2.5 1.6 2.7 1.6 2.1 0-.6-1.5-.1-1.4 3.7.5l4.3 2.3-2.9-3.9c-1.6-2.2-4.4-5.9-6.3-8.4-1.8-2.5-5-6.3-7.1-8.5-7.3-7.9-26.2-35.5-35.6-52-3.8-6.6-8.7-14.9-10.9-18.6-2.3-3.6-4.5-7.3-5.1-8.2-9-15.3-45.7-71.6-51.7-79.3-7.7-9.9-20.1-15.2-47.6-20.3-33.1-6.2-49.3-11.7-66.1-22.3-15.7-9.9-34.5-27.9-38.1-36.6-1.2-2.8-2.9-5.2-3.6-5.2-.8 0-1.4.5-1.4 1.1s-.8.8-1.9.4c-1.5-.4-2.1.1-3 2.5-1.2 3.5-4.7 6.9-7.1 7-.9 0-2 .4-2.6 1-.9.9-14.7 6.1-15.1 5.6-.1-.1.3-2.1.9-4.4.9-3.6 1.3-4 2.8-3.2 2.8 1.5 3 1.2 1.9-1.8-.6-1.5-1.2-7-1.4-12.2-.4-8-.2-9.2.9-7.8 1.1 1.5 1.4.5 2-7.4.3-5 .6-12 .6-15.5V0H87C54 0 27 .1 26.9.2M133.8 49c.3 7 0 9.9-1 11-1.4 1.7-11.6 5.6-12.4 4.8-.2-.3 1.3-4.7 3.5-9.8l3.8-9.3 1.2 3.6c.7 2 1.6 3.7 2 3.7s.6-3.9.4-8.8c-.3-7.1-.2-8.3.8-6.7.7 1 1.4 6.2 1.7 11.5m-13.7 7.3c-1 .9-1.1.8-.5-.6.3-1 .9-1.5 1.2-1.2s0 1.1-.7 1.8m-20.2 4.4c-1.3 5.7-1.1 6.1 1.5 2.8 2.2-2.7 2.5-2.8 3.2-1.1s.8 1.7 1.9-.4c1.7-3.2 2.7-.9 1.3 3.1-1.3 4-1.9 4.5-7.8 6.3-2.5.8-5.2 1.7-6 2-1.2.5-1.5-.6-1.7-6.6-.2-6.4 0-7.1 1.2-5.5.7 1.1 1.1 2.6.8 3.5-1.2 3.1 1.7.1 3.7-3.9 1.1-2.1 2.2-3.9 2.4-3.9s0 1.7-.5 3.7M187 310.4c0 .3-.4.8-1 1.1-.5.3-1 .1-1-.4 0-.6.5-1.1 1-1.1.6 0 1 .2 1 .4"/></svg>