<svg xmlns="http://www.w3.org/2000/svg" width="682.667" height="512" version="1.0" viewBox="0 0 512 384"><path d="M14.8 1.2C15.5 1.9 16 4 16 6c0 2.3.7 4.3 1.9 5.4 1.8 1.6 1.9 1.5 2.5-1.9C21.1 6 23 4.6 23 7.6c0 .8 1.2 3.5 2.6 5.9 2.2 3.9 2.5 5.5 2.5 12.7-.1 4.6-.1 11.4-.1 15.3v7l2-2.5c1.1-1.4 2-2.8 2-3.3 0-.4.4-.7.9-.7 1.8 0 3.2 5.8 2.6 10.6l-.6 4.9 2.3-2.8 2.4-2.7 1.2 3.2c.6 1.8 2.2 4.4 3.5 5.8l2.4 2.5-2.9 1.7c-3.4 2.2-10.6 2.3-15.2.4-2.4-1-4.7-1.1-8.7-.5-5 .8-11.8-.2-18.1-2.6-1.5-.6-1.8-.2-1.8 2.2 0 2.8.4 3.1 6.5 4.8l6.4 1.9-2.7 1.6c-3.2 2-5.1 4.2-8 9.3L0 86.1V384h21.4c24.1 0 22.5.6 22.7-8.3.1-2.9.4-6.6.8-8.2l.6-3 2.7 3.9c1.5 2.1 3.8 4.6 5.2 5.5s3.9 3.6 5.6 5.9c1.6 2.3 3.4 4.2 3.9 4.2 3.3 0 6.5-21.5 6.5-45 .1-21.8-.3-23.7-7.6-38.3-2.1-4.2-3.5-7.7-3.2-7.7.4 0 3 1.6 5.9 3.5 9.8 6.5 18.2 7 28.7 1.7 4.8-2.4 5.3-3 5.2-5.8-.2-3.7-5-11.4-12.7-20.5-6.1-7.1-10.9-10.8-16.9-12.9-4.2-1.5-4.5-2.5-2.4-7.5 3.2-7.5 22.5-32.9 31.7-41.6 6-5.6 6.3-8.3 1.7-15.1-2.8-4.1-3.7-4.8-6.3-4.6-2.4.3-3.8 1.5-7.3 6.8-5.6 8.5-12.4 17.4-13.4 17.8-.4.2-.8.9-.8 1.5 0 2-16.5 19.7-18.3 19.7-1.5 0 .1-9.6 3.4-19.4 2.9-8.6 14.2-34.8 16.2-37.4.6-.7 1.6-1.1 2.4-.8.7.3 1.3-.1 1.3-1 0-1.2.4-1.3 2.1-.4 2.7 1.5 3.1 1 1.9-3l-1-3.3 2.8 2.6c1.6 1.5 5.3 3.2 8.8 4.1 8.4 2.2 9.7 2.1 8.5-.3-1-1.7-.6-1.7 4.7.5 7.8 3.2 9.4 3.2 8.1-.2-.5-1.5-.7-2.9-.5-3.2.3-.3 3.1 0 6.3.7 3.9.7 5.9.8 6.1.1.2-.5 1.1-1 1.9-1 1.2 0 1.4-.7.8-2.7-1.1-4.6-1.1-4.7 1.3-5.1 1.3-.2 3.3.4 4.4 1.4 1.7 1.6 1.9 2.6 1.3 7.7-.5 4.3-.4 5.8.4 5.3 1.2-.8 1.4.3 1.1 7.9l-.2 5 2.1-1.9c1.3-1.2 2.1-1.4 2.1-.7s.4 1 .9.7c1-.6 2.1 3.9 2.2 9.3l.1 3.6 2.5-5.5c3.7-8.1 4.7-8.2 5.3-.2l.5 6.7 1.8-3c1-1.7 1.6-2.3 1.3-1.5-2.9 8.9-3.7 12.5-3 12.7.5.2.7 3.9.4 8.3s-.1 8 .3 8c.5 0 .6.4.3.9s.2.8 1.2.7c.9 0 1.6.3 1.5.9 0 .5-.4 4.6-.8 9-.6 7.5-.5 7.9 1 6 1.6-1.9 1.7-1.8 1.3 2.2-.2 2.4.1 4.4.6 4.6.6.2 1.1 2.3 1.2 4.8.2 4.9 1.2 8.1 2.4 7.4 1.4-.9 2.1 2.7 1.4 7.3l-.7 4.4 2.9-1.8c1.6-1 3.7-2.5 4.8-3.3 2-1.7 2-2.1 0 5.1-.6 2-.5 2.1 1 .9 1.8-1.5 1.8-1.5 1.9 4.1.1 1.6.4 2.8.7 2.8.4 0 .5 1.5.2 3.3l-.4 3.2 2.5-2.9c1.5-1.8 2.6-2.5 3.1-1.8.7 1.2-3.1 16.1-4.5 17.6s-1.1 2.6.7 1.9c1.2-.4 1.4 0 .9 2.3-.4 1.6-1.3 4.6-2.1 6.7-1.8 4.9-1.8 4.8 1.2 3.7 3.4-1.3 3.4-1.3 2.7.7-.5 1.5-.3 1.4 1-.2 1.5-2 1.6-1.9 2.2.8.4 1.5.5 3.9.2 5.3-.3 1.8-.1 2.2.6 1.5s1.4-.6 2.2.5c.9 1.3 2.3-.3 8.4-9.5 9.8-14.7 9.9-14.8 9.7-6.1-.1 4.1.2 7 .8 7s.5.5-.2 1.2c-1.5 1.5-1.6 3.2-.2 2.3.7-.4.8.3.4 2.2-.4 1.5-.3 2.5.1 2.1 1.4-1.3 3.4 1.6 2.4 3.4-.6 1-.7 1.8-.4 1.8s0 1-.6 2.2l-1.2 2.2 2.8-1.8 2.8-1.8-.5 2.5c-.4 1.8-.1 2.4.9 2 .7-.3 1.3 0 1.3.7 0 .6.5.8 1.1.4.9-.5 1 .1.5 2-.4 1.8-.3 2.5.4 2.1 1.3-.8 1.3-.9-1 5.3-2.8 7.2-2.5 7.7 1.5 3.4l3.4-3.7.1 2.7c0 1.5-.4 3-1 3.3-.5.3-1 1.1-1 1.7s.7.5 1.7-.3c1.5-1.3 1.6-1.1.9 1.4-.4 1.9-.3 2.6.4 2.2.5-.3 1 0 1 .9 0 .8.4 1.6 1 1.8s.4 2.2-.5 5.3l-1.5 5 5.5-5.5c3-3 5.5-5.2 5.5-5 0 .3-.7 2.9-1.4 5.8-1.4 5-1.4 5.3.2 4 .9-.7 2.6-1.8 3.8-2.4 1.9-1.1 2-1 1.8 4-.1 2.8-.7 6.3-1.3 7.8-1.3 3.4 0 3.7 2.3.6l1.7-2.3-.6 2.2-.6 2.2 50.5.1H335v-4.2c0-14.2-6.1-93.7-7.5-97.5-.2-.6.6-3.1 1.8-5.5 1.8-3.6 2.2-3.9 2.5-2.1.2 1.3.8 2 1.6 1.7s1.6.5 2 1.8c.6 2.3.7 2.3 2.2-.6l1.6-2.9 1.3 2.4 1.3 2.4 1.1-2.8c1.3-3.3 2.7-3.5 3.5-.5.5 2.2.6 2.2 2 .3.9-1.1 1.6-1.5 1.6-.8 0 1.2 6 7.7 6 6.5 0-.3 1 .5 2.2 1.8 1.3 1.4 2.3 1.9 2.6 1.2.6-1.9 1.9-1.4 2.7 1 .7 2.1.8 1.9 1.8-1.5 1.1-3.9 2.4-4.7 3.3-2.2.3.8 1.9 2.1 3.4 2.9 2.8 1.3 2.9 1.3 3.9-1.3l.9-2.6.1 2.6c.1 1.7 1 3.3 2.6 4.3 1.4.9 2.5 2.4 2.5 3.4 0 1.3.2 1.4.9.3s1-.9 1.6.9c.5 1.6 1.2 2 2.8 1.6 1.3-.3 2.5.1 3.3 1.2 1.1 1.4 1.4.7 2-4.8.6-5.3.9-6 1.6-4 .5 1.3 2.2 3.6 3.8 5.2 1.7 1.5 3 3.3 3 3.8 0 .6.7 1 1.6 1s2.3.8 3.1 1.7c1.2 1.6 1.3 1.5.7-.8-1-4.7 2.1-4.4 6.8.7 2.3 2.5 4.4 4.1 4.6 3.4.3-.7 1.2-.6 2.9.6l2.6 1.6-.7-3.2-.6-3.3 2.1 1.9c1.7 1.5 2.3 1.6 2.7.6.3-1 1.3-.6 3.3 1.4l2.9 2.8-1.1-3.4c-.7-1.8-3.8-8.5-7-14.9l-5.9-11.5 6.8 6.5c8.4 8.1 19.7 15.8 20.4 13.7.3-.7 1.5-.5 3.7.6 1.8 1 3.5 1.6 3.7 1.3.3-.2-4.7-5.8-10.9-12.3-13.5-14.2-30.2-34.8-40-49.4-10.7-16-52.5-74.1-59-82-.7-.8-4.7-6.1-9-11.7s-9.5-11.7-11.5-13.4c-8.3-7.3-22.2-11.2-51.2-14.4-28.7-3.1-50.9-10.3-68.5-22-14.5-9.6-25.9-19.6-29.1-25.6-2-3.5-3.3-4.8-4.8-4.7-1.2 0-2.8-.2-3.7-.6-1.2-.5-1.9.3-2.8 3.6-.7 2.4-2 5.1-2.9 6.2-1.8 2-14 8.4-18.4 9.6l-2.6.8 1.4-4.6c.7-2.6 1.4-5.1 1.4-5.6s.7-.3 1.5.4c2.3 1.9 2.9.6 1.6-3.2-.6-1.8-1.4-6.7-1.7-10.8-.5-7.1-.5-7.4 1.1-5.5 1.7 1.9 1.7 1.8 1.1-3.5-.3-3-.9-15.1-1.3-26.8L143.7 0H78.6C28.1 0 13.9.3 14.8 1.2m119.8 70c1 9 0 12.1-4.4 14-2 .9-4.8 1.9-6 2.3-2.7.8-2.8 1.6 1.6-12.2l2.7-8.2 2.3 4.2 2.2 4.2-.5-8c-.5-9.1 1-6.4 2.1 3.7M97.7 87l1.2 2.4 1.2-2.9c1.2-2.8 1.3-2.9 1.6-.8.5 2.9 2 3 2.8.2.6-1.6.9-1.8 2.2-.8 1.2 1 1.6 1 2.4-.2 1.2-1.9 1.1-1.2-.4 4.1-1.1 3.5-2.1 4.9-4.8 6.2-7.3 3.5-7.6 3.4-8.2-2.4-.3-2.9-.9-6.1-1.3-7.2-1.1-2.8 1.8-1.5 3.3 1.4"/></svg>