<svg xmlns="http://www.w3.org/2000/svg" width="682.667" height="512" version="1.0" viewBox="0 0 512 384"><path d="M10.6 3.1c-.9 4.5-.7 14.3.2 15.4.5.6 1.5 2.6 2.2 4.5.8 1.9 2.3 4.7 3.4 6.2 1.2 1.7 1.9 4.1 1.8 6.6-.1 3.1.2 3.8 1.8 3.9 1.1.1 2-.4 2-1.1 0-.8.7-1.9 1.6-2.6.8-.8 1.4-.9 1.2-.4-.1.5 1.2 3.1 3.1 5.8 3.2 4.6 3.3 5.2 2.9 11.7-.3 3.8-.2 7.2.3 7.4.4.3 1.1 3.5 1.5 7.2l.7 6.7 2.1-2.6 2.1-2.6 1.8 2.4c1 1.4 1.8 3.9 1.7 5.7-.3 5.4.1 6.3 1.5 3.2l1.3-2.9 1.8 3.9c1.1 2.4 3.2 4.6 5 5.5l3.1 1.6-4.9 2.7c-4.6 2.6-9.8 3.4-13.2 2.1-.9-.3-1.3-1-1-1.5.7-1.2-.8-1.1-4.1.1-1.9.7-5.8.4-15.3-1.5C8.2 89.1 1.9 88 1.3 88 .5 88 0 89.2 0 90.8v2.8l10.6 1.3c10.1 1.2 17.6 2.8 14.3 3-3.6.2-11.2 6.5-13.1 10.8-1.1 2.4-3.2 5.8-4.7 7.6s-3.7 4.9-4.9 7L0 127.1V384h33.5c30.5 0 33.5-.1 33.5-1.7 0-1.5.1-1.5 1.8 0 1.5 1.4 4 1.7 11.9 1.7h10l.5-11.2c.7-13.3-.5-28.9-2.8-36.7-.8-3.1-3.6-9.4-6-14s-4.4-8.8-4.4-9.2c0-.5 3 .8 6.6 2.8 8.1 4.4 14.5 4.8 21.4 1.3 6.4-3.3 10-6.1 10-8 0-3.1-6.3-11.6-14.9-20-6.7-6.6-9.6-8.8-13.1-9.7-7.4-2-7.6-2.3-5.6-8.2 2.8-8.5 16.6-30.4 27.5-43.6 5.4-6.6 5.3-8.2-.8-16.3-4.5-5.8-8.7-3.3-13.5 8.1-1.5 3.8-15.7 25.6-18.1 28.1-.8.8-1.5 1.7-1.5 2s-1.6 2.2-3.5 4.3c-3.4 3.6-4 3.5-4.6-.7-.8-4.8 5-26 12-43.5 3.6-9 4.3-10 6.6-10 1.4.1 2.5-.3 2.5-.8s1.1-.6 2.5-.3c2.8.7 2.9.7 1.5-2.9-.9-2.4-.9-2.5 1.3-1.4 2.1 1.2 12.7 3.8 15.5 3.9.9 0 1.1-.7.7-2-.6-1.9-.5-1.9 6-.1l6.7 1.9-.6-3.3-.6-3.2 4.2.8c6.3 1.2 7.8 1.1 7.8-.7 0-1.1.5-1.4 1.6-1 1.3.5 1.5.1.9-2.1-.3-1.5-.7-3.2-.8-3.7-.3-1.2 4.4-1.5 6.6-.4 1.6.8 1.8 2 1.5 7.4-.2 4.6 0 6.4 1 6.4.8 0 1.2 1.8 1.2 5.7 0 5.4.1 5.6 1.9 3.9 1.7-1.6 2-1.6 3.5-.1.9.9 1.6 2.6 1.7 3.8.1 3 .6 5.8 1.3 6.4.5.5 3.6-6.2 3.6-7.7 0-.4.7-1 1.5-1.4 1.2-.4 1.5.3 1.6 3.4.2 5.7.3 6 1.6 6.8.9.5.9 1.9.3 4.7-1.2 5.1-1.2 6.8-.1 6.1.5-.3.8 2.8.7 6.9 0 4.1.3 7.5.7 7.5.5 0 .6 1 .2 2.2-.6 2.2-.5 2.2.8.5 2.1-2.6 2.5-.8 2 8.8-.4 7.4-.3 7.9 1.1 6.1 1.5-1.9 1.6-1.7 1.6 2.8 0 2.9.4 4.5 1 4.1s1 1.3 1 4.2c0 2.8.6 5.8 1.5 6.9.8 1 1.5 1.4 1.5.9.1-2.8 2 2.5 2 5.7 0 2.1.3 3.8.7 3.8.3 0 2.1-1.1 3.9-2.5l3.4-2.6-.6 3.3c-.3 1.8-.7 3.9-1 4.5-.2.7.1 1.3.5 1.3.5 0 1.2-.6 1.4-1.3.3-.6.8.3 1.2 2 .4 1.8 1.1 3.3 1.6 3.3.4 0 .5 1.7.2 3.8l-.5 3.7 2.7-3.8c1.5-2.1 2.9-3.6 3.2-3.3.7.7-2.7 17.9-3.8 19-.5.6-.9 1.6-.9 2.4 0 1.2.3 1.2 1.5.2 1.3-1 1.5-.9 1.5.8 0 1.1-.5 3.3-1.1 4.9-.6 1.5-1.5 4-1.9 5.6l-.9 2.7 3-2 2.9-2.1v2.1c0 1.2.4 1.9.9 1.6s1.4.8 2 2.5 1.5 2.8 2 2.5c1.2-.8 2.2 2 1.4 4.1-1.2 3.4.5.8 6.7-10.2 3.5-6.1 7.3-12.5 8.5-14.3l2.3-3.4.1 7.4c.1 4 .3 8.6.5 10.3.1 1.6.4 4 .4 5.3.1 1.3.7 2 1.2 1.7.6-.3 1-.1 1 .5s.5.8 1.1.4c.7-.4.9.1.5 1.5-2 6.9-2.1 6.5.8 4.6 2.5-1.7 2.6-1.7 2.6.6 0 1.9.2 2.1 1 .9s1-1.2 1 .5c.1 2.4 2.4 5.7 3.4 4.8.4-.4.3.4-.2 1.7-.5 1.4-1.2 4.3-1.6 6.5l-.6 4 2.9-3.3c2.7-3.2 2.9-3.2 3.4-1.1.3 1.2.2 3-.4 4-1.2 2.3-1.2 3.8.1 1.9.8-1.2 1-1.1 1 .7 0 1.3.3 2.3.8 2.3 1.8 0 3.1 3.9 2.2 6.9-1.1 4-.1 3.9 3.7-.4 4.2-4.7 5.6-4.5 3.8.6-1.9 5.4-1.9 5.6.8 3.3 5.9-5.2 6.1-5.3 5.3-1.1-.5 2.7-.4 3.7.3 3.2.6-.3 1.1-.1 1.1.4 0 .8 15.7 1.1 50.6 1.1h50.7l-.7-7.3c-1.7-17.1-11.5-80.5-14.6-94.2-1.2-5.2-1.2-7.5 0-7.5.6 0 1 .7 1 1.7 0 .9.3 1.3.7 1 .3-.4 1.4 0 2.4.9 1.5 1.4 1.8 1.3 3.2-.6l1.4-2.1.8 2.3c.8 2.3.8 2.3 1.2-.4.6-3.5 3.1-4.4 4.2-1.5.8 1.8 1 1.9 1.6.6.5-1.4 1.2-1.1 4.5 1.8 2.1 1.9 4.1 3.4 4.5 3.4.3-.1 1.3.6 2.2 1.4 1.2 1.2 1.8 1.3 2.3.4.6-.8 1.2-.4 2.1 1.2 1.3 2.4 1.4 2.3 1.9-1.5.6-4.7 2.2-5.6 3.8-2.1.7 1.5 1.7 2.3 2.2 2 .6-.4 1.7-.1 2.5.5 1.3 1 1.5.8 1.5-1.4 0-1.4.5-2.6 1.1-2.6s.8 1.3.5 3c-.2 1.7-.1 2.8.4 2.5.4-.2 1.9.6 3.4 2 1.4 1.3 2.6 2.1 2.6 1.7s.9.4 2 1.8c1.7 2.1 2.1 2.3 3.1 1 .8-1.1 1.2-1.2 1.6-.3 1 2.6 2.1 1.1 2.8-4 .8-5 .8-5.1 1.8-2.5.6 1.6 1.6 2.8 2.3 2.8s2.1 1.3 3 2.9c1 1.7 2.3 2.7 3.1 2.4.7-.3 1.6.2 1.9 1.1 1 2.7 2.1 1.8 1.6-1.4-.6-4 .9-3.8 6.3.6 2.4 2 4.9 3.3 5.4 2.9.6-.3 2.3.2 3.8 1.2l2.8 1.8-1.8-2.8c-2.4-3.7-1.8-5.3 1.1-2.7 1.8 1.7 2.2 1.8 2.2.5 0-1.4.5-1.3 3 .5 1.7 1.2 3 1.9 3 1.5 0-1.1-7.3-15-10-19-4.7-7-4.5-7.1 1.9-1.8 7.7 6.4 18.6 12.7 20.7 11.9.8-.3 2.9.1 4.6 1 1.6.8 3.2 1.3 3.4 1.1.3-.2-5.4-6-12.7-12.8-7.2-6.8-17.7-17.6-23.3-23.9-12.5-14.1-10.9-12.1-25.8-31.5-26.3-34-67.2-82.2-75.4-88.7-6.9-5.5-19.2-8.3-45.9-10.3-42.9-3.2-58.6-7.8-83.5-24.4-10.7-7.1-17-12.5-20.4-17.5-1.3-2-2.1-2.5-2.9-1.7s-1.8.5-3.4-1.1c-2-1.9-2.5-2-3.3-.8-.5.8-1 2.3-1 3.3 0 2.6-2.5 7.9-5.2 10.8-1.2 1.4-5.3 4.2-9 6.2l-6.8 3.5v-2.6c0-1.5.3-4.4.6-6.4.6-3.3.9-3.6 2.6-2.7 1.1.6 2.1.9 2.3.7.3-.2-.5-3.2-1.5-6.7-1.1-3.4-2-8.3-2-10.9 0-4.3.1-4.5 1.5-2.6 1.5 1.8 1.6 1.8 1.1-1.1-1.6-9.5-2.8-19-4.6-35.6-1.8-16.3-3.1-22.9-6.5-31.2-.7-1.6-4.6-1.7-63-1.7H11.3zm20.1 36.6c-.3 1-.5.4-.5-1.2 0-1.7.2-2.4.5-1.8.2.7.2 2.1 0 3m106.8 53c1.5 11.2 1.5 11.1-7.1 14.4l-4.3 1.7.6-3.2c.3-1.7 1.6-6.9 2.8-11.5l2.1-8.4 1.7 3.6c1.8 3.6 4.6 6.5 3.5 3.5-1.1-2.7-2.1-11.3-1.3-10.6.4.4 1.3 5.1 2 10.5m-11.8 4.5c-.3.8-.6.5-.6-.6-.1-1.1.2-1.7.5-1.3.3.3.4 1.2.1 1.9m-16.9 10c1.1-1.3 2.2-1.9 3-1.4.9.7.9 1.9-.3 5.8-1.2 4.1-2.1 5.3-5 6.7-4.6 2.2-4.5 2.2-4.5-1.1 0-1.5-.7-4.8-1.5-7.5-1.6-5.3-.2-6.5 1.9-1.5l1.4 3.1 1.3-3.8c1.4-3.9 1.4-3.9 1.7-1l.4 2.9zm15.8 0c-.1 1.3-1 2.8-2.1 3.5-2.9 1.8-3.3 1.6-3.1-1.1 0-1.6.5-2.1 1.1-1.5 1.4 1.4 2.2 1.1 2.8-1.1.7-2.7 1.4-2.5 1.3.2"/></svg>