<svg xmlns="http://www.w3.org/2000/svg" width="682.667" height="512" version="1.0" viewBox="0 0 512 384"><path d="m0 27.9.1 28 3.7 1c2 .6 6.9 1.7 10.7 2.6 3.9.9 10.3 2.5 14.4 3.7 10.4 3.1 7.2 3.8-12.9 3.1l-16.5-.6 1.9 2.2c1.7 1.8 1.7 2.1.3 1.5-2.2-.8-2.3 1.9-.1 3.7C4.5 75.5 6 79.9 6 85.7l-.1 5.8L3 88 .1 84.5 0 87.7c0 2.7.7 3.7 4 5.9 5 3.3 5.2 4 .3 1.4L.5 93l-.3 7.1c-.2 3.9.2 7.6.8 8.4 1.1 1.3 17.1 9.5 18.6 9.5.5 0 1.9-3.9 3.2-8.8 1.3-5.3 4.9-14.2 9.2-22.9 9.5-19.1 15.7-25.8 31-33.1 8.6-4.1 24.5-9.2 28.8-9.2.5 0 4.1 6.2 8 13.7 8.5 16.8 12.9 30.2 15.7 48 .3 1.7 1.2 6.2 2.1 10 .8 3.7 2.3 11.1 3.2 16.3s2 10 2.4 10.6 2.2 1.4 3.9 1.8c8.9 1.7 25.8 11 32.9 18 4.5 4.3 10.4 15.6 9 17-.5.5-1 1.7-1 2.6 0 1-.9 2.7-2 4-2.3 2.7-2.2 2.9 5.5 10.3 2.8 2.6 6.8 5.6 9.1 6.7l4.1 2 9.9-3.6c14.9-5.5 30.3-10.1 45.9-13.9 12.3-2.9 22.6-5 66-13.5 39.3-7.6 73.8-10 92-6.4 4.4.9 10 1.5 12.4 1.4 2.6 0 4.7.4 5.2 1.1 1.3 2.2 11.7 1.5 21.4-1.4 11.3-3.4 12.9-3.4 9.1-.1l-2.8 2.5 7.8-.7c8.6-.7 8.2-.7 10.6-.5 2.1.1 1.3 3.1-.8 3.1-.8 0-1.4.5-1.4 1.1 0 .5-1.3 1.5-2.9 2-1.8.6-2.8 1.6-2.5 2.3s-.7 2.1-2.1 3c-3.5 2.3-2.2 4 2.6 3.3 2.8-.4 3.7-.2 3.2.6-.4.7.1.6 1-.2 1.5-1.2 1.9-1 3.5.9l1.8 2.2 7.9-2.5c8.5-2.6 16.5-4.2 16.5-3.3 0 .6-12.6 7.1-18 9.3-2.7 1-2.9 1.2-.7.8 7.3-1.4 11.5-1.7 12.1-.7.3.6-.3 1.3-1.4 1.7-1.1.3-2 1-2 1.4 0 .5-1.4 1.4-3 2.1-2.4 1-2.8 1.5-1.9 2.7.7.7.9 1.6.6 1.9s1.2 2.1 3.3 4c3.2 2.9 4.5 3.4 8.8 3.4 6.6 0 7.4 1.9 2.5 5.9-2 1.7-3.4 3.3-3 3.7s2.9.9 5.7 1.2c3.9.3 6.8-.2 12.5-2.3l7.5-2.7V0H262.5C13.2 0 12.9 0 14 2c.6 1.1.7 2 .2 2C13 4 10.9 1.5 11.5.8 11.8.6 9.3.2 6 .1L0-.1zm503.5 194.4c-7.1 3.7-7.7 4.2-5.2 4.5 2.1.3 2.6.7 1.8 1.6-.8 1 .1 1 5 0 3.4-.7 6.3-1.5 6.6-1.7.2-.3.3-2.3.1-4.5l-.3-4zm-320.9 80.8c.9 1.5-7.3 19.9-9.7 21.9-1.4 1.1-1.5 3.6-.2 4.5 1.2.9 1 1.6-.9 4.5-1.3 1.9-3.7 4.2-5.3 5-1.7.9-3.7 2-4.5 2.5s-1.8 1-2.2 1c-1.2 0-2.2 1.5-1 1.5 1.8 0 1.4 2.8-.5 3.8-1.1.7-2.9.6-5.2-.2-3.7-1.3-10.7-.3-9.7 1.3.9 1.4-5 2.1-17.9 2.1h-12.3l1.5 3.9c2.3 6 1.2 8.4-5.5 12.1-3.1 1.7-6.9 3.4-8.3 3.6-5.4 1.2-15.6-5.5-22.6-14.8-4.3-5.7-8.7-8.3-16.5-9.7-2.9-.6-8.7-1.7-12.8-2.5-11.8-2.4-36.9-5.6-43.2-5.6H0v46h512v-63.1l-2.1.6c-1.6.6-2 .4-1.3-.6.6-1.1.5-1.2-.7-.2-.9.8-2 .9-2.9.3-2.1-1.4-4.3-1.2-3.4.2.5.8 0 .9-1.7.4-5.9-1.6-10.9-1.9-10.9-.5 0 1-.3 1-1.2.1-1.9-1.9-3-1.4-1.8.8.9 1.7.8 2-1.2 2.1-1.6 0-.9.5 2.2 1.7 2.5 1 4.6 2.5 4.8 3.5.4 2.1-1.9 2.2-10.8.2-8.8-1.9-10.9-1.9-10.6.2.2.9 1.1 1.9 2.1 2.3 1.7.6 1.6.8-.7 2.6l-2.6 1.9 2.8 1.5c2.5 1.3 2.7 1.7 1.5 3.3-1.2 1.7-1.7 1.7-7.2.3-5-1.3-5.5-1.3-3.9 0 1.1.7 2.8 1.4 3.8 1.4s1.8.4 1.8.9c0 .8 12.8 7.1 14.4 7.1.4 0 1.4.6 2.1 1.4 1.2 1.1 1 1.5-1 2.6-2.4 1.3-4.1 5-2.2 5 .6 0 .8.2.5.5s-2.3 0-4.5-.8c-2.1-.7-4.4-1.2-5.1-.9-1.5.5-1.6 3.2 0 3.2.6 0 .9.3.5.6-.3.3-3.2-.2-6.4-1.1-3.2-1-8.9-1.9-12.8-2-8-.3-11.1-.9-13.2-2.7-1.2-1-1.4-.9-1.1.8.4 2.6 1.8 3.5 12.8 7.8 14.3 5.6 21.3 9.6 21.5 12.3.1 1.3.1 2.3.1 2.3-.1 0-15.2-5.8-33.1-12.7-18.4-7.1-17.7-7-16.9-3.9.4 1.7.2 2.6-.6 2.6-.6 0-.8-.5-.5-1 .3-.6-.1-1-.9-1-.9 0-1.6-.6-1.7-1.3-.1-2.3-5.4-5.4-16.9-9.6-10.5-3.9-13.4-4.5-32-6.7-11.3-1.3-25.2-3.5-31-4.9s-14.1-3-18.5-3.6c-48.3-5.8-92.4-16.3-122.5-29.1-12.8-5.5-17.2-7-16.4-5.7"/><path d="M417.5 352c2.7 1.2 4.3 1.2 2.5 0-.8-.5-2.2-.9-3-.9-1 0-.8.3.5.9m5 1.1c-.3.4.1.9.9 1.2s1.7 0 1.9-.7c.5-1.3-2.1-1.8-2.8-.5"/></svg>