<svg xmlns="http://www.w3.org/2000/svg" width="682.667" height="512" version="1.0" viewBox="0 0 512 384"><path d="M52 1.4c0 .7-1.5 1.9-3.2 2.6C43.2 6.3 33 15 27.3 22.5 20 32.2 16.2 45 17.4 56.1c.8 7.6 1.6 11 2.6 10.4.4-.3 1.1.7 1.5 2.2.3 1.5 1.6 4 2.8 5.7s2.9 4.8 3.8 7c2 4.9 3.7 5.8 3.1 1.5-.4-2.8-.3-3 1.5-2.1 1.1.6 3.3 2.8 4.9 4.9 1.5 2.1 3.5 4.3 4.3 4.9 1.2.9 1.3 1.5.3 2.6-.6.8-.9 1.8-.5 2.2 1.1 1 1.2 3.5.3 4.1-1.2.7-.1 3.4 2.1 5.6.9.9 2.3 4.3 3 7.4l1.3 5.7 1.7-2.4c2.3-3 3.4-1.9 5.2 5.2 1.2 4.7 1.5 5.1 2.2 3.1l.7-2.3 2.4 2.6c2.8 3 6.6 3.4 11.9 1.2 4.4-1.9 4.6-.6.3 1.9-1.8 1-5.5 3.5-8.3 5.6-2.7 2-9 5.4-14 7.5-11 4.6-15.9 8.3-18 13.7-.9 2.3-3.1 5.8-5 7.8-2.2 2.4-3.5 5.1-4 8-.6 4.4-3.4 10.9-4.6 10.9-1.3 0-7.8-14.6-10.4-23.3-1.4-4.8-3.6-10.8-4.7-13.4-2.5-5.7-1.8-6.3 7.7-6.3 10.8 0 35.9-2 36.8-2.9s1.6-.8-13.8-2c-6.6-.5-17.1-1-23.2-1L0 132v252h66.5c37.1 0 66.5-.4 66.5-.9s-1.1-5.1-2.4-10.3c-2.7-10.8-5-15.7-11.2-24.5-2.4-3.4-4.4-6.4-4.4-6.7s1.9.3 4.3 1.4c2.3 1 6.3 2.1 8.8 2.5 5.9.9 13.1-2.1 18.4-7.5 3.7-3.8 3.8-4.1 2.4-6.6-4.7-8.9-21.7-21.9-30-23-5.6-.7-5.8-1.4-3.5-9.9 2.6-9.6 13.7-34 20.7-45.5 2.7-4.3 2.1-7.8-1.9-11.5-6.2-5.8-9.6-4.2-12.8 6.2-4.5 14.6-18.3 42.1-20.5 40.8-.5-.3-1.3-2.4-1.9-4.7-1.4-5.2 0-16.7 4-33.3 5.1-20.8 4.6-19.4 8.4-18.8 2 .3 3.6.1 4-.6.4-.6 1.8-.8 3.4-.5 2.2.5 2.5.4 1.5-.7-.7-.7-1.3-1.6-1.3-2 0-1.4 6-2.1 9.2-1.1 1.8.6 4.6 1.3 6.2 1.7l2.9.6-1.7-2.6c-1-1.5-1.5-2.9-1.3-3.2.3-.2 2.8 0 5.6.5 4 .7 5.1.6 5.1-.4 0-.7-.4-1.6-1-1.9-2.1-1.3-.9-2.6 2.3-2.4 6.6.4 8.9 0 8.3-1.6q-.6-1.5 1.5-1.5c1.3 0 1.9-.5 1.6-1.3-2.1-5.1-2.1-5 .1-4.5 1.3.4 2.3 0 2.6-.9.5-1.2.9-1.3 2.1-.3 1 .9 1.5 3.2 1.5 7.5 0 4.2.5 6.6 1.5 7.5.7.6 1.7 3.2 2.1 5.7.5 3.5.9 4.2 1.6 2.9 1.1-2 2.8-2.1 2.8 0 0 .8.4 1.3.9 1 .4-.3 1.3 1.3 2 3.4 1.4 4.9 2.7 5.1 3.5.6.6-3.2 2.7-5.2 4-3.9.3.3.9 2.8 1.2 5.5q.75 4.95 1.5 3.6c.5-.7.6 1.8.3 6-.6 6.6-.5 7.2 1.1 6.6 1.5-.6 1.7-.1 1.4 4.9-.3 4.3-.1 5.3.9 4.5.9-.8 1.2-.2 1.2 2.5 0 2 .5 3.9 1 4.2.6.3 1 2.7 1 5.3 0 6.1 1.5 8.7 2.9 5.2.8-2.1 1-1.4 1 3.7.1 4.9.4 6.1 1.5 5.7 1-.4 1.7.9 2.5 4.6.6 2.8 1.1 5.7 1.1 6.5 0 .9.6 1.2 1.5.9 1.2-.5 1.5.2 1.5 3 0 2 .3 3.6.7 3.6s2.2-1.4 4-3.2l3.3-3.2v5.3c0 2.9.4 5 .9 4.6.5-.3 1.2.4 1.6 1.5s1.1 1.8 1.6 1.5c.5-.4.9.9 1 2.7v3.3l1.6-3.3c3.2-6.3 4.2-3.5 3 8.2-.4 4.4-1.4 9.5-2.2 11.3-1.4 3.3-1.4 3.4.7 2.7 1.8-.5 2-.3 1.4 2-2.1 8.7-2.1 8.2 0 6.5 3.4-2.9 4.8-3.4 4.1-1.6-.4 1 0 2 1.1 2.6.9.5 1.6 1.2 1.5 1.5s.1 1.5.4 2.6c.4 1.6.8 1.8 1.9.9 1.4-1.1 1.6-1 2.6 2.9.2.8 1.9-2.1 3.8-6.5 6.6-15.3 9.1-20.5 9.5-20.1s1.3 5.4 2.9 15.8c.2 1.4.4 3.3.5 4.3.1.9 1.2 2.7 2.6 3.9 2.1 1.8 2.4 2.7 1.9 5.7l-.6 3.6 3.6-3.4 3.6-3.5v2.8c0 1.5.4 2.5.9 2.2 1.4-.9 2 1.6.9 3.6-.6 1.3-.5 1.8.6 1.8 1 0 1.3.6 1 1.7-.5 1.5-.4 1.6.5.3 1.9-2.6 3.3.8 2.6 6.5l-.6 5 2.4-2.5c1.4-1.4 2.3-2.8 2.1-3.2-.2-.3.4-.5 1.3-.4 2.1.3 2.9 3.1 1.3 4.1-.7.4-.5 1.1.4 2.1 1.2 1.2 10.5 1.4 60.5 1.4 37.6 0 59.1-.4 59.1-1 0-3.7-14.9-54.8-23.8-81.5-3.6-11-6.5-20.7-6.3-21.5.4-2.1 1.3-2.7 1.8-1.3 1 2.8 2.1 1.1 1.7-2.4-.3-2.1-.2-3.4.3-2.8.4.5 1.8 1.6 3.1 2.3 1.9 1.1 2.2 1 2.2-.5.1-1.6.2-1.6 1.5.1.8 1.1 1.5 1.7 1.5 1.3s2.3.9 5.2 2.9c4.7 3.2 5.3 3.4 5.9 1.7.5-1.6.7-1.6 1.3.4 1.4 4.4 2.8 2.5 2.1-2.7-.8-5.6.4-6.6 3.1-2.5.9 1.4 2 2.2 2.5 1.9s1.2.2 1.5 1c.9 2.3 2.2 2 2.7-.7l.4-2.2.2 2.3c0 1.3.5 2 1.1 1.7.5-.3 1-.1 1 .6 0 .9.3.9 1.4 0s1.5-.8 2 .4c.3.8 1 1.4 1.5 1.3.5-.2 1.7.6 2.5 1.7.9 1.1 1.6 1.4 1.6.7 0-1.7 2.9-1.5 3.6.3 1.2 3.1 2.4 1.3 2.4-3.5v-4.9l3.5 3.6c1.9 2 4.6 4.2 6 4.9 2.4 1.3 2.5 1.2 2.6-2.4 0-2 .3-3.1.6-2.5.2.7 1.1 1.3 1.9 1.3s3.2 1.1 5.3 2.4c2.1 1.4 4.1 2.3 4.4 2s1.5-.1 2.6.5c1.8 1 2 .9 1.4-.6-.3-1-1.2-2.7-2-3.8-2.2-3.3-1.4-3.7 2.2-.9 1.9 1.4 4.1 2.4 5 2.1.8-.4 1.7-.2 2 .3.4.6 1 1 1.6 1 1.6 0-3.6-9.1-9.5-16.7l-5.5-7.3 4.8 3.5c7.3 5.3 17.8 9.7 23.6 10l5 .3-3.5-3c-1.9-1.7-7.2-5.8-11.6-9.1-11.4-8.6-31.2-26.7-39.1-35.7-13.3-15.3-54.5-56.1-74.3-73.9-19-17-20.1-17.3-62.8-16.9-32.8.3-41.3-.5-56.7-5.3-13.3-4.1-35.1-15.7-40.9-21.8-1.6-1.7-3.3-2.8-3.8-2.5-.4.3-2.4-.4-4.3-1.6-4-2.5-5.5-2-5.5 2 0 3.6-3.1 10.7-6.2 14.1-7.5 8.4-11 12-11.5 11.5s.7-14.6 1.2-14.6c.2 0 1.5.4 2.9.9l2.4 1-2.8-5.8c-1.6-3.2-3.2-8.2-3.6-11.2l-.7-5.4 2.1 2.5c2.7 3.2 2.7 2.8-.3-6.5-1.4-4.3-4.2-14.6-6.1-22.9-4.3-18.5-7.4-27.9-11.1-33.9-1.5-2.5-5-8.2-7.8-12.7-6-9.8-14.4-18.9-20.3-21.9-4-2-5.7-2.1-30.7-2.1C56.6 0 52 .2 52 1.4M41.9 84.8c.5 1.8.6 3.2.2 3.2-.9 0-4.1-6.5-4.1-8.2 0-2.2 3 1.6 3.9 5m105.7 40.6c4 8.3 3.7 9.3-6.8 16.1-5.1 3.3-9.5 6.1-9.8 6.3-1 .4-1.1-6.4-.1-8.9.8-2.1 1-2.2 1.6-.7.4 1 1 1.8 1.4 1.8.7 0 2.5-5 3.5-9.5.2-1.1.4.2.5 3 .3 6.6 1.4 3.8 3.1-7.9 1.5-9.9 1.8-9.9 6.6-.2M116 140.5c0-.6.7.1 1.5 1.5 1 1.9 1.5 2.1 1.8 1 1.5-4.4 1.6-4.5 2.3-2.1.7 2.3.8 2.4 1.5.5.4-1 .5.8.2 4.1-.4 4-1.2 6.7-2.6 8.3-2.5 2.7-3.3 1.8-4.2-5-.4-2.6-1.1-5-1.6-5.4-.5-.3-.9-1.5-.9-2.7 0-1.8.2-1.9 1-.7.5.8 1 1 1 .5"/><path d="M2.3 127.7c1.5.2 3.9.2 5.5 0 1.5-.2.2-.4-2.8-.4s-4.3.2-2.7.4"/></svg>