<svg xmlns="http://www.w3.org/2000/svg" width="682.667" height="512" version="1.0" viewBox="0 0 512 384"><path d="M72.5 6.7c-8.1 3.3-9.7 4.7-11.7 9.8-1.6 4-1.8 5.8-1 10.1l.9 5.3-6 4.3C39.8 46.9 29.1 66.1 29 82.1c0 4.2 2.2 11.6 3.9 12.9 1.2.9 6.5 9.5 8.2 13.1 2.3 5 3.9 5.8 3.9 1.9v-3.1l6.5 5.8c6.9 6.1 7.5 7.3 4.9 9.4-2.1 1.7-1 5.5 2.7 9 1.6 1.5 2.9 3.6 2.9 4.8s.5 2.1 1 2.1c.6 0 1 .4 1 .9s.5 2.2 1.1 3.8l1.1 2.8 1.2-3 1.2-2.9 2.9 5.7c2.1 4.1 3.1 5.3 3.5 4.1.5-1.5.7-1.5 1.9 0 1.7 2.1 6.1 2 10.6-.1 3.1-1.5 3.7-1.5 4.5-.3 1.2 1.9 1.2 3 .1 3-.9 0-2.9 1.6-11.7 9.4-2.5 2.2-6.4 4.9-8.7 6.1-9.6 4.8-14.9 9.3-18.3 15.4-1 1.9-2.9 4.5-4.2 5.8-3.8 3.8-5.5 9-4.8 14.7.5 4.4.2 5.5-1.8 8l-2.5 3-1.3-3c-.7-1.6-2.7-5.4-4.4-8.4-1.8-3-5.1-11.1-7.4-18s-4.8-13.7-5.6-15.2c-1.4-2.6-1.3-2.7 1.8-3.2 1.8-.3 12-1.2 22.7-2.1 10.7-.8 19.6-1.7 19.9-2 1.1-1-.6-1.4-8.8-2.1-4.7-.4-8.9-1-9.5-1.4-.5-.4-8.7-1-18.2-1.3-15.6-.6-17.6-.8-22.4-3.2C4 153.1 1.3 152 .8 152c-.4 0-.8 8.4-.8 18.8v18.7l4 4.9c2.2 2.6 4 5.3 4.1 6 0 .6.2 2 .4 3.1.1 1.1.5 4 .9 6.5.3 2.5 3.5 13.4 7.1 24.3 3.7 10.9 6.4 20.1 6.1 20.4s-3.3-1.7-6.8-4.4-8.4-6.4-11-8.2L0 238.9v39.3l10.7 11.6c19.4 21.3 17.5 18.5 15.8 22.6-.9 2-1.9 3.6-2.4 3.6s-2.3 1.2-4 2.7c-3.5 3.1-4.1 7.4-1.5 11.1.8 1.2 1.3 2.6 1 3.1s-1.3 6.5-2.1 13.3c-.8 6.7-2.1 16.8-3 22.3-.8 5.5-1.5 11.2-1.5 12.7v2.8h73c57.7 0 73-.3 73-1.3 0-1.6-5.6-10.9-10.8-17.7-2.3-3-4-5.6-3.8-5.7.2-.2 1.9.4 3.9 1.2s6.2 1.5 9.2 1.5c4.6 0 6.4-.5 10-3 5-3.4 8.5-7.9 8.5-10.8 0-2.4-8.9-11.5-15.5-15.7-5.2-3.3-10.6-5.3-16-5.7-2.5-.3-3.1-.8-3.3-3.3-.2-1.6.1-5.6.8-8.8 1.6-8.3 10.4-33.9 14-40.8 3.8-7.4 3.8-10.2 0-14-2.3-2.3-3.7-3-6.2-2.7-2.9.3-3.3.7-4.6 5.8-6 23.4-14.6 47-17.1 47-1.7 0-5.1-11.2-5.1-17 0-6 4.2-33.1 6-38.6 1-3 1.2-3.1 5-2.4 3.2.6 4 .4 4-.7 0-1.2.8-1.4 3.7-.8l3.6.7-1.6-2.6c-2.4-3.6-2.2-3.8 2.1-3.2 2 .3 6.1.8 9.1 1.2l5.4.6-2.1-2.7c-1.2-1.5-2.2-3-2.2-3.4 0-.3 2.1-.4 4.6-.2 4.3.3 4.6.2 3.9-1.8-.4-1.4-.2-2.1.7-2.2 9.9-.9 11.7-1.5 9.3-3.3-1.8-1.3-1.8-1.4.3-2 1.4-.5 2.1-1.4 2-2.4-.2-1.2.5-1.8 2.3-2 3.1-.4 3.9 1.5 3.9 8.9 0 2.5.7 5.4 1.5 6.5.8 1 1.5 3 1.5 4.4l.1 2.5 1.6-2.3c2-2.9 3.3-2.8 3.3.2 0 1.4.6 3.1 1.4 3.8.7.8 1.7 2.4 2.1 3.7.6 1.8.9 2.1 1.6 1 .5-.8.9-2.5.9-3.9.1-4.5 1.4-5.2 3.2-1.7.9 1.8 1.9 4.1 2.3 5.2.6 1.7.9 1.5 2-1.5l1.2-3.5.5 2.8c.3 1.5.2 2.7-.2 2.7s-.8 3.9-.9 8.6c-.1 5.7.2 8.4.9 7.9.6-.4 1 .8 1 3.1 0 3 .3 3.4 1.4 2.5s1.5 0 2 4.9c.4 3.3 1.1 6 1.6 6s.8 1.8.6 4c-.5 4.5.9 6.3 1.8 2.5 1-4 2.6-1.9 2.6 3.4 0 3.4.6 5.6 2.1 7.4 1.1 1.5 1.9 3.4 1.7 4.4s.2 1.7 1 1.5q1.2-.15 1.2 3.3c0 1.9.5 3.5 1 3.5.6 0 1 .9 1 2 0 3.2 2.2 2.3 5.5-2.1l3-4.1.7 6.3c.9 7.4 1.4 9.2 2.8 8.4.6-.4 1 .9 1.1 3.2l.1 3.8 2-4.8c1.1-2.6 2.4-4.7 2.9-4.7 1.2 0 2.2 10.6 1.6 16.9-.4 3.1-1.3 7.3-2.2 9.4-1.9 4.5-1.9 4.8 0 4.1 1.8-.7 1.8-.8.6 3.4-1.1 3.8-.3 4.1 2.9.7 3-3.2 3.6-3.1 4.3.3 2.3 10.8 2.3 10.8 3.1 8.5 1-3.1 3-2.4 3.6 1.2.4 2.5 1.4.5 5.9-11.9 4-11 5.7-14.4 6.2-13 .4 1 .8 1.3.8.6.1-.7.6-1 1.1-.7.6.3 1 3.2 1.1 6.3.1 5.6.1 5.7 1.4 2.7 1.4-3 1.4-3 1.5 2.3 0 2.9.7 6.6 1.5 8.1.8 1.6 1.1 3.1.8 3.5-.4.3.4 1.6 1.6 2.7 1.6 1.5 2.1 2.8 1.7 4.4-1 3.8.5 3.6 3.5-.5 3.6-4.9 4.9-5 4.9-.5 0 3.9.6 4.3 2.6 1.7 1.2-1.5 1.3-1.2 1.4 2.5v4.2l66.5.1c36.6 0 66.5-.2 66.5-.4 0-.3-.4-1.5-.9-2.8-.6-1.3-3.5-9.1-6.7-17.3-9.1-24.3-17.3-43.9-30.7-73.5-5.4-12-6.7-15.3-6.2-15.8.3-.3.5-.1.5.5 0 .5.8 2 1.9 3.2l1.9 2.1.5-2.2c.6-2.1.6-2.1 3.4.6 2.7 2.8 2.8 2.8 3.1.7s.4-2.1 2.4.4c1.1 1.4 3.4 3.2 5.2 3.9l3.1 1.3.5-6.6.5-6.6 2.2 4.1c1.2 2.2 2.8 4.6 3.7 5.3 1.3 1.1 1.6.8 2.2-1.6l.7-2.8 1.2 2.9 1.2 2.9 1.3-2.3 1.2-2.3 2.5 3.2c2.7 3.5 4.3 4 4.3 1.3.1-1.5.2-1.5 1.3-.2.7.8 2.1 2.2 3.1 3 1.8 1.4 1.9 1.3 1.2-4.3-.4-3.1-.4-5.7.1-5.7.4 0 2.6 2 5 4.5 4.9 5.3 6.8 5.8 6 1.5-.7-3.3-.5-3.5 2.4-2 1.3.8 1.9.7 1.9 0 0-.6 2.5.3 5.6 2 3 1.8 5.8 3 6.1 2.7s-.4-2.1-1.6-4c-3.8-6.1-2.8-7.2 3.2-3.4 5.9 3.8 8.7 5 8.7 3.8 0-1.3-7.9-12.2-13.1-18-2.7-3-4.7-5.7-4.5-5.9.3-.2 2 .7 3.8 2.1s5.3 3.5 7.7 4.7c4.9 2.5 21.1 7.4 21.8 6.6.3-.2-2.8-2.7-6.9-5.5-24-16.5-31.9-23.1-54.8-45.5-16.8-16.4-30.6-29.2-44-40.6-4.7-4-11.6-10-15.4-13.4-20.6-18.2-26.1-20.3-51.4-19.3-8.1.3-20.1 1.1-26.7 1.7-20.8 2.1-42.8-.4-58.9-6.5-10.3-3.9-23-10.2-27.2-13.5-2-1.7-4.4-3-5.3-3s-2.6-.7-3.8-1.5c-1.1-.8-3.2-1.9-4.6-2.4-2.4-.9-2.5-.8-2.2 2.7.4 6-4.7 16.5-12.3 25.2l-3 3.4.1-8.1v-8.2l3 1.5c1.6.9 2.8 1.2 2.6.7-.2-.4-1.6-3.3-3.1-6.3s-3-7.5-3.4-10l-.7-4.5 2.3 2 2.3 2-.8-2.5c-.4-1.4-2.1-5.3-3.6-8.7-1.6-3.3-2.9-6.6-2.9-7.1 0-1.4-9.3-28.5-11.5-33.7-3.3-7.7-16.6-25.8-24.5-33.4-4.2-4-7.7-6.2-13.5-8.5l-7.9-3.2-1.6-5.2c-.8-2.8-2.2-5.8-3-6.6-1.6-1.6-15.2-5.5-21-6.2-1.9-.2-5.3.4-7.5 1.3M54.3 109.4c2.9 4.7 3.8 8.6 1.1 5.1-2.4-3.1-5.5-9.5-4.7-9.5.5 0 2 2 3.6 4.4m107.1 34.4c2 3.5 3.6 7.4 3.6 8.5-.1 2.9-4 7.2-12.6 14l-7.1 5.6-.2-8.7c-.2-8.2-.1-8.6 1.4-6.5.9 1.3 2 2.3 2.4 2.3s1.3-1 1.8-2.3l1.1-2.2.9 2.4c1.4 3.6 2.1 1 2.9-10.9.4-5.6 1-9.7 1.5-9.3.4.4 2.4 3.7 4.3 7.1m-7.5 10.2c.1 1.3 0 1.3-.9 0-.5-.8-.9-2.4-.9-3.5v-2l.9 2c.5 1.1.9 2.7.9 3.5m-19.4 9.3c.6 2.2.6 2.2 1.6-.2 1.5-3.6 2.2-1.8 2 5.1-.1 3.9-.7 6.8-1.6 7.7-1.2 1.2-1.5 1-2-1.5-.4-1.6-1.5-5.3-2.6-8.2-2.3-6.5-2.3-6.1 0-5.5 1.1.3 2.2 1.5 2.6 2.6m46.9 61.3c.3.8.2 1.2-.4.9s-1-1-1-1.6c0-1.4.7-1.1 1.4.7"/><path d="M0 215.2c0 8 .4 8.7 4 6.8 2.3-1.2 2-3.2-1.4-9.6l-2.5-4.9z"/></svg>