<svg xmlns="http://www.w3.org/2000/svg" width="682.667" height="512" version="1.0" viewBox="0 0 512 384"><path d="M94.1 25.7c-5.5 3.2-6.9 4.6-9.2 9.3-2.6 5.4-2.7 5.7-1.3 11l1.4 5.5-4.2 3.5c-8.7 7.1-15.3 15-19.7 23.6-3.2 6.3-7.1 19.6-7.1 24.1 0 3.4 2.5 8.3 8.5 16.4 2.5 3.4 4.5 6.7 4.5 7.5s.5 1.4 1.1 1.4c.5 0 .8.4.5.9s.1 1.2 1 1.5c2.2.8 2.2.9 1.6-2-.4-2.4-.3-2.5 1.7-1.3 1.1.8 2.1 1.7 2.1 2.1 0 .9 7.1 5.8 8.4 5.8.5 0 .1-.9-.9-2s-1.3-2-.7-2c1.5 0 4.2 4 4.2 6.1 0 1-1.2 3.2-2.7 5l-2.7 3.2 2.1 1.6c1.1.9 3.5 2.4 5.1 3.3 2.3 1.2 3.3 2.6 3.8 5.5.3 2.1 1.6 4.8 2.7 6 1.9 2.1 2.1 2.1 3.3.5 1.1-1.5 1.3-1.4 2.3 1.2 1.3 3.4 5.1 8.4 5.1 6.7 0-.7.9-.9 2.4-.5 1.5.3 4-.3 6.7-1.6l4.3-2.2 1.8 2.2c1 1.2 1.8 2.6 1.8 3 0 .5-2.8 3.1-6.2 5.8-3.5 2.8-7.6 6.4-9.3 8.2-1.6 1.8-5 4.2-7.5 5.5-2.8 1.4-6.6 4.9-10 9.1-3 3.7-6.3 7.4-7.3 8.3s-3 3.5-4.4 5.9c-2.3 3.8-2.5 5-1.9 10.5.5 4.8.3 6.8-1 8.5-.8 1.2-2.2 3.4-2.9 4.9l-1.4 2.6-3.5-7.4c-2-4.1-5.1-10.2-6.9-13.6s-5-10.8-7.1-16.5-4.7-11.8-5.8-13.6c-1.1-1.7-1.6-3.2-1.1-3.2 2.4 0 42.1-6 43.6-6.6.9-.3 1.7-1.1 1.7-1.7 0-1-24.8-.5-43.4.9-6.6.5-8.8.4-10.7-.9-3.9-2.5-14.2-5.6-17-5-1.4.2-5.2 2.5-8.5 4.9-6.4 4.8-7.5 5.1-9.8 2.8C.1 179 0 182.8 0 222.7l.1 43.8 9.4 6.8c8.9 6.5 9.5 7.2 11.1 12.5s3.3 7.2 21.6 25.8c19.3 19.6 19.8 20.2 18.8 23-.6 1.6-3 4.9-5.5 7.3-5 4.9-5.6 7.9-2.6 12.4 1.4 2.2 1.7 3.7 1.1 6.5-.4 2.1-1.1 8.1-1.4 13.5L52 384h130l-1.7-2.7c-1.7-2.6-1.7-2.6.2-2.1 10.7 3.1 11.3 3.1 14.1 1.9 5.7-2.4 13.4-11 13.4-15 0-2.8-6.4-9.6-13.3-14.4-4.2-2.9-7.2-4.1-12.8-5l-7.4-1.3-.3-3.6c-.6-6.6 7.2-39.4 12.2-51.9 3.3-8.3 3.3-9.4-.3-13-3.1-3.1-7.1-3.8-8.9-1.6-.6.7-1.8 6-2.7 11.7-3 18.8-10.5 44.5-12.7 43.8-.6-.2-2.5-4.6-4.4-9.7l-3.3-9.3 1.5-12.3c1.5-13.1 3.9-26.9 4.9-28.6.4-.6 3-.7 6.8-.3 5.8.7 6.1.6 4.8-1-1.4-1.6-1.2-1.7 2.2-1.1 3.9.8 4.6 0 2.7-3.4-.9-1.7-.4-1.8 8.3-1.3l9.2.5-1.9-2.2c-2.7-2.9-3-6-.8-6.7.9-.3 3.1-1.3 4.9-2.2 2.6-1.3 3.6-1.4 5.9-.4 2.3 1.1 2.6 1.1 2.1-.3-.4-.8-.2-1.5.3-1.5 1.9 0 1-1.7-1.6-3l-2.5-1.4 3.3-1.6c1.8-.9 3.6-1.5 3.9-1.4.3.2.9 3.8 1.2 7.9.3 4.2 1.1 8.3 1.8 9.1 1.1 1.4 1.5 1.3 3-.7l1.7-2.3.8 3.9c.4 2.2 1.5 5.5 2.5 7.4l1.8 3.3 1.2-6.1c1.1-5.6 2.9-7.5 2.9-3 0 1.1.7 3.4 1.7 5.2l1.6 3.2 1.6-4.5c2.1-6.3 2.5-3.1 1.2 10.4-1.4 14.1-1.4 14.9 0 14 .9-.5 1 .1.5 2.2l-.7 2.9 2-3.3c1.2-1.7 2.2-3.2 2.3-3.2.2 0 .2 4.7 0 10.5-.3 8.5 0 10.8 1.2 12.1 1.2 1.2 1.6 1.2 1.6.2 0-.7.9-3.1 1.9-5.3l1.8-4 .1 6.5c.2 9 1.3 17 2.3 17 .5 0 .9.8.9 1.7 0 1.5.2 1.4 1.6-.3 1.4-1.8 1.5-1.5 1 4.2-.8 9.3.9 9.9 7.4 2.7 4.8-5.4 5.1-5.6 4.6-2.8-1 5.4-.7 12.9.7 17.8l1.3 4.7 2.3-4.7c2.2-4.5 2.4-4.6 3.7-2.8.9 1.2 1.4 1.4 1.4.5 0-.7.2-1.1.6-.8.9 1-1.5 24.6-3.1 29.2-1.5 4.3-1.2 7.6.7 7.6.5 0 2.5-1.2 4.4-2.6l3.4-2.6v2.6c0 2.6.1 2.6 7.5 2.6h7.4l3-9.2c2.8-9.1 3.4-9.5 4.4-3.3.3 1.6 1.2 4.7 2 6.9l1.4 3.9.7-3.7c.4-2 1.1-3.6 1.6-3.6 1 0 4 5.7 4 7.7 0 1.1 13.6 1.3 80 1.3 59.2 0 80-.3 80-1.1 0-1-6.8-14.4-19.7-38.9-5-9.4-10.3-19.1-17.2-31l-6.6-11.5.5-7.3.5-7.2 2.4 4.5c2.5 4.8 3.7 5.5 4.4 2.8.3-1.3.5-1.1.7.7.1 2.1.5 1.8 2.4-2.3l2.3-4.8 1.7 2.5c.9 1.4 1.6 2.9 1.6 3.3s1 1.9 2.1 3.3l2.1 2.5-.6-5.5-.5-5.5 2.9 4.7c4.2 6.7 5 6.8 4.4.6l-.6-5.3 3.7 3.8c2 2.1 3.9 3.6 4.3 3.3.3-.4.1-3.4-.4-6.8l-1.1-6.1 3.7 4.2c2 2.2 4.2 4.1 4.9 4.1.8 0 2.9 1 4.8 2.1 3.5 2.2 5.4 2 3.6-.3-1.3-1.7-3.6-10.9-2.8-11.6.3-.3 1.8.6 3.3 2 3.2 3 11.2 8.1 11.8 7.5.5-.5-6.4-11.3-10.2-15.7-5.7-6.7-5.7-7 0-3.6 4.9 2.9 18.7 7.6 22.6 7.6 1.6 0-.9-1.9-12.5-9.8-9.2-6.2-20.3-16.7-50.5-47.6-26.8-27.5-56.3-53.7-65.1-57.9-8.2-3.9-20.3-5-38.6-3.5-19.4 1.7-47.7 1.6-57.3-.1-16.5-2.9-42-13.4-45.5-18.7-.9-1.4-2.2-2.3-3-2s-3.9-.8-6.9-2.4c-7.1-3.8-8.6-3.8-8.6-.2 0 5.3-2.9 12.6-8.2 20.4-2.9 4.3-5.5 7.8-5.8 7.8-.4 0-.6-3.1-.6-7 .1-3.8.4-7 .8-7s1.8.4 3.2 1c3.1 1.1 3.2.7.8-2.8-5.3-7.6-7.2-19.8-2.4-15 2.1 2.1 1.3-.2-2.8-8.8-2.2-4.6-4-8.8-4-9.4 0-1.9-14.1-36.1-16.4-39.8-4.1-6.6-14.3-18.7-20.5-24.4-5.5-5.2-9-6.9-20.5-10.4-2.4-.8-3.1-1.7-4.2-6.3-1.7-6.6-2-7-5.2-8.2-2.8-1.1-20.5-4.9-22.6-4.9-.6 0-4 1.7-7.5 3.7m95 132.8c1.2 3 2.6 5.5 3.1 5.5 2 0 .6 6-2.2 9.6-9.5 12.2-15.5 18.4-17.5 18.4-.6 0-.9-3.8-.7-10 .2-5.5.6-10 .8-10 .3 0 1.5.5 2.7 1.2 3.4 1.8 4.5 1.8 5-.3.8-2.9 2.7-2.3 2.8.8.3 4.2 1.7-8.3 1.8-15.5.1-3.5.5-6.1 1-5.8s1.9 3.1 3.2 6.1M162 179.2c0 .5.5.6 1 .3 1.4-.9 2.9 3.5 2.8 8.4 0 4.3-1.8 7-1.8 2.9 0-1.3-1.1-4.8-2.4-8-1.6-3.9-1.9-5.5-1-5.1.8.3 1.4.9 1.4 1.5M19.5 195c.3.5-.3 1-1.5 1s-1.8-.5-1.5-1c.3-.6 1-1 1.5-1s1.2.4 1.5 1m3.6 11.2c.7 1.8 3.4 5.6 6.1 8.3 5.2 5.6 6.8 8.9 6.8 14 0 3.9 4.9 19.7 9.1 29 2 4.5 6 16.7 5.7 17.1-.3.2-2-.8-3.9-2.2s-6.4-4.3-10.1-6.5c-3.7-2.1-7.6-5.1-8.6-6.7-2.4-3.3-8.7-14-7.8-13.1.4.4 3.2-.4 6.4-1.7 4.7-1.9 5.7-2.7 5.6-4.7 0-1.2-4-9.3-8.7-17.9-4.8-8.7-8.7-16.1-8.7-16.7 0-.5 1.2-1.2 2.8-1.4 1.5-.2 3-.5 3.3-.6.4 0 1.3 1.4 2 3.1"/></svg>