<svg xmlns="http://www.w3.org/2000/svg" width="682.667" height="512" version="1.0" viewBox="0 0 512 384"><path d="M124.4 24c-1.1.3-4.6 2.1-7.7 4-4.6 2.7-6.3 4.6-8.7 9.2-3 5.8-3 5.9-1.6 11.4l1.5 5.6-10.6 10.1C85.8 75.4 82.5 80.6 79 93.2c-2 7.3-2.7 18.3-1.2 19 .5.1 2.4 2.9 4.3 6.1 6.7 11.4 7.9 13.2 7.9 12.2 0-.6.9.1 2 1.5 1.6 2 2 2.2 2 .7 0-2.3 1.7-2.2 3 .3.9 1.7 9 6.6 9 5.4 0-.3-.8-1.7-1.7-3.2-1.4-2.2-1.1-2.1 1.5.7 3.9 4.2 3.9 4.8.7 9.5-1.4 2-2.5 4.2-2.5 4.9s1.9 2.1 4.2 3.2c3.2 1.6 4.7 3.2 6.7 7.2 1.4 2.9 3.1 5.2 3.7 5.2.7.1 1.4.8 1.8 1.6.3.8 1.2 1.2 2.1.9.8-.3 1.5-.1 1.5.4 0 .6 1.4 2.6 3 4.4 1.7 1.8 3 2.7 3 2 0-.6 1.1-1.2 2.4-1.2s3.7-.7 5.2-1.5c2.7-1.4 3-1.4 4.7.6 1.7 2.2 2.4 6.9.9 6.9-1 0-4.7 3.1-12.7 10.5-3.2 3-6.5 5.5-7.2 5.5-3.1 0-6.6 2.7-9.5 7.4-1.7 2.8-5.5 7.4-8.3 10.3-6.3 6.1-8 10.5-7.1 18.1.6 4.9.3 5.9-2.3 10.1-1.6 2.5-3.1 5.3-3.3 6.1-.7 2.3-14.5-26.1-19-39-2.2-6.3-4.8-13-5.8-14.7-2.3-3.9-4.9-3.2 22.2-6.7 20.7-2.7 23.1-3.3 22.2-4.7-.7-1.2-13-1.1-33.5.2l-16.8 1.1-5.3-2.6c-2.9-1.4-8-3.1-11.2-3.7-5.4-1-6.1-.9-8.7 1-1.6 1.2-3.1 2.1-3.5 2.1-.3 0-2.2 1.4-4.1 3-5.1 4.5-6.8 4-10.3-3-3-5.9-3.1-6-7.3-6-2.3 0-5.9.3-8 .6l-3.7.7V261l2.3 1.4c1.2.7 3.5 1.7 5.1 2 1.5.4 9.7 5.8 18.1 12.1C40.4 287.7 41.6 289 43.6 296c1 3.8 6.3 9.8 23.8 27.3 15.1 15.2 15.8 16.1 15.3 19.2-.4 2.1-2.2 4.9-5.1 7.9-5.1 5-5.9 8.7-3 13.1 1.6 2.4 1.5 8.8-.2 17.8l-.6 2.7H226l2-3.2c3.3-5.5 2.7-7.9-4-14.4-7.6-7.5-12.9-10.4-19-10.4-2.5 0-5.1-.5-5.8-1.2s-1.2-3.5-1.2-6.3c0-9.4 6.7-41.7 10.5-50.8 2.1-5 2-12-.2-13.9-2.8-2.5-7.8-3.2-9.3-1.3-.7.8-1.7 5.2-2.2 9.7-2.2 18.9-8.9 46.4-11.3 46.2-.5 0-2.5-4-4.3-9-3.2-8.5-3.3-9.4-2.7-18.9.3-5.5 1.5-15 2.8-21l2.2-11 7-.1c5.2-.1 7.1-.5 7.3-1.6.2-1 1.3-1.3 3.9-1 2.8.4 3.5.1 3.1-.9-.4-.8-.9-2.1-1.2-2.9-.5-1.3.6-1.4 7.9-1.1 5.9.2 8.5 0 8.5-.8 0-.7-.7-1.4-1.6-1.8-.8-.3-1.3-1.2-.9-2.1.3-.8.1-2-.4-2.6-.6-.8.8-1.8 4.5-3.2 4.8-1.9 5.7-2 6.9-.7.8.8 1.5 2.3 1.5 3.4s.5 1.7 1 1.4c.6-.3 1 .3 1 1.4 0 1.2.5 2.1 1 2.1.6 0 1-.6 1-1.4 0-3.5 2-2.3 2.6 1.4.4 2.3 1.3 4.4 2 4.7.8.3 1.4 1.4 1.4 2.5 0 1 .4 1.6 1 1.3.5-.3 1-1.2 1-2s.5-2.6 1.1-4.2l1.1-2.8 1.4 3c.7 1.6 1.4 2.5 1.5 2 .1-.6.5.3.9 2l.7 3 1.6-3.5c2.4-5.3 3.2-1.5 1.4 6.2-2 8.4-3 19.1-1.7 18.3.6-.3 1 .4 1 1.6 0 1.9.2 2 1.6.8 1.5-1.2 1.6-.5 1.3 7.4-.2 4.8-.1 8.7.4 8.7.4 0 .7 1.5.8 3.2 0 3.2.1 3.2 2.3-1.7l2.3-5 .5 10.6c.6 10.6 2 15.1 4.4 14.2 1-.4 1.2.4.7 3.1-.6 4.1.3 8.6 1.8 8.6.6 0 3.4-2.4 6.1-5.2l5-5.3-.9 4.5c-1.1 6.2-.7 15.1.8 16 .6.5.9 1.7.6 2.9-.8 3.3.1 2.5 3.4-2.9 1.7-2.8 3.1-5 3.2-5s.3 1.3.5 3c.7 7.3.6 12-.1 18.7l-.7 7.3h14.8c10.2 0 15.2-.4 16-1.2.9-.9 1.2-.9 1.2 0s20.7 1.2 90 1.2c49.5 0 90-.2 90-.5 0-1-23-39.4-35.2-58.8-6.5-10.3-11.8-19.3-11.8-20 0-.6.4-1.8.9-2.6.7-1.1 1.6-.1 3.5 3.7 3.7 7.4 4.9 7.6 4.4.8-.1-3.1-.1-5.6.2-5.6s1.3 2 2.3 4.4c2.5 6.1 4.3 7.5 5.1 4l.7-2.7 2.6 2.4 2.6 2.4-.7-4.5c-.4-2.5-.9-6.1-1.2-8l-.6-3.5 4.8 4.8c5.7 5.5 12.8 9.6 12 6.9-.3-1-.8-4-1.2-6.7-.3-2.8-1.1-5.8-1.6-6.8-1.4-2.8-.2-3.2 1.9-.7 2.2 2.8 13.4 11.2 14 10.6.7-.7-3.7-8.8-7.9-14.4l-3.9-5.3 4.9 2.5c4.5 2.3 17.2 5.9 18 5.1.4-.4-9.1-8-13.8-11-4.6-2.9-19.5-19.2-29.7-32.5-16.3-21.2-58-65.4-67.6-71.7-8.8-5.7-15-6.5-54.2-6.7-44.5-.3-52.8-1.7-76.2-13.1-7.3-3.6-9.8-5.4-12.4-8.9-2.8-4-3.5-4.4-6-3.9-2.2.4-4-.2-7-2.1-2.4-1.6-5.1-2.6-6.6-2.4-2.2.3-2.5.8-2.9 5.3-.3 3.7-1.6 6.9-5 12.6-2.6 4.3-5.8 9-7.1 10.5l-2.3 2.7v-7.1c0-4 .3-7.2.8-7.2.4 0 2.1.4 3.9.9l3.2.9-3.5-6.6c-1.8-3.7-3.7-8.7-4.1-11.1l-.6-4.5 3.1 2.3 3.2 2.2-1.5-2.8c-2.8-5.5-7.3-16-11-25.8-11.9-31.8-11.2-30.3-21.9-44-12.8-16.5-17.6-20-31.5-23.8-4.3-1.2-4.5-1.4-6.5-7.7-1.6-4.8-2.7-6.8-4.6-7.7-3.7-1.7-22.2-5-24.6-4.3m87.7 136.8c.1 2.4 3.7 10 3.9 8.2.1-.9.5-.6 1.1.8q.9 2.4-.3 4.5c-2.3 4.4-19.2 24.7-20.2 24.4-1.3-.4-2.4-7.1-2.5-15-.1-5.1.1-5.7 2-5.7 1.1 0 2.9.4 3.9 1 1.5.8 2 .6 2.6-1.2.6-2.1.7-2 1.9.8 1.3 2.9 1.3 2.9 1.5-2.1l.2-5 .9 4.4c1.2 6.3 1.9 6.3 1.9-.1 0-8.4 1.2-17.8 2.1-17.2.5.3.9 1.3 1 2.2m-24.2 27.7c0 1.5-.4 1.2-2.1-1.3-1.8-2.8-1.9-3.5-.7-4.3 1.5-.9 2.6 1.4 2.8 5.6M38 200c0 .5-.4 1-1 1-.5 0-1-.5-1-1 0-.6.5-1 1-1 .6 0 1 .4 1 1m4.1 11.2c.7 1.7 3.2 5.4 5.6 8 6.1 6.9 7 8.6 7.7 15 .3 3.2 3.7 14.5 7.4 25.3l6.9 19.5-3.1-2c-1.7-1.2-5.6-3.4-8.7-5-4.9-2.5-6.1-3.8-10.6-11.4l-5-8.5 5.3-2.2c4.7-2 5.3-2.5 5-4.8-.2-1.4-4.4-10-9.5-19.1l-9.2-16.5 2.8-.6c1.5-.4 3.1-.7 3.4-.8.4 0 1.3 1.3 2 3.1M230 252.7c0 2.8-1 2.9-3.3.3-2.2-2.6-2.2-2.8.8-2.6 1.9.1 2.5.7 2.5 2.3"/></svg>