<svg xmlns="http://www.w3.org/2000/svg" width="682.667" height="512" version="1.0" viewBox="0 0 512 384"><path d="M16.2 2.5c-.7 1.4-1.2 3.2-1.2 4 0 .9-.9 1.5-2.1 1.5-4.7 0-.7 2.6 6.9 4.5 8.7 2.1 11.8 3.9 8.6 4.9-1.1.3-7.7 1.5-14.9 2.6C6.4 21.2.4 22.3.2 22.5s4.3 1.8 10 3.5c16.1 4.9 25.1 7.9 27.8 9.5 2.4 1.4 2.4 1.4-2 1.4-2.5 0-8.2-.4-12.7-.7-4.7-.4-8.3-.3-8.3.2 0 .4-1.2.6-2.7.3l-2.8-.5 3.5 2.9c3.7 3.1 3.3 4.7-1.1 5.1-2.4.2-2.5.2-1.8 7.6.4 4.1.9 7.5 1.1 7.7.2.1 2.3 1.2 4.6 2.4 5.2 2.7 5 3.9-.3 1.7-5.2-2.2-5.5-2.1-5.5 1.8 0 5.9-2.5 5.2-5.9-1.6C1.4 58.4 0 59.5 0 66.9c0 4.6.4 7.1 1.3 7.4q1.35.6 0 .6C.3 75 0 77.8 0 85.6 0 95.5.9 100 3 100c.5 0 3.2-4.6 6.2-10.2 4.2-8.2 7-12 13.8-18.9 9.8-9.9 16.5-13.6 31.1-17.2 11.8-2.9 15.9-2.6 18.3 1.6C79.4 67 87.3 86.9 88.6 96c.3 2.5 1.2 7 1.9 10s1.6 8.2 2 11.5 1.3 8.8 2.1 12.2 1.4 6.6 1.3 7c-.4 2.3.6 3.3 5.7 5.7 9.3 4.4 16 9.2 22.9 16.3 9 9.3 12.4 15.7 13.5 25.8 1.4 12.1 1.5 12.3 6.8 13.1 2.5.4 10.5.3 17.7-.2 7.1-.5 20.4-.9 29.5-1 14.2-.1 17.9-.5 27-2.7 14.8-3.7 70.1-14.1 91.2-17.2 21.2-3 49.7-3.5 63.8-1 4.7.9 10.6 1.6 13.3 1.7 2.6 0 4.7.4 4.7.9 0 .4 1.7 1.3 3.8 1.8 3 .9 5.3.6 12.7-1.3 12.5-3.3 16.5-3.8 16.5-2.1 0 .8-.8 1.9-1.7 2.4-1.3.8.9 1.1 8.2 1.2l10 .1-4 1.9c-2.2 1-4.7 1.9-5.6 1.9s-2.2.7-2.9 1.5c-.9 1-.9 1.5-.1 1.5 2 0 1.1 2-1.4 3.2-1.4.6-2.5 1.4-2.5 1.8 0 1.2 5.7 1.7 7.5.7.9-.5 2.3-.6 3.2-.3 1.2.5 1.3.9.3 2.1-1 1.3-.9 1.5 1.1 1.5 1.3 0 5.6-.6 9.4-1.4 3.9-.8 8.7-1.6 10.8-1.9 6.4-1 3.8 1.5-4.9 4.6-10.9 3.8-11.7 5.1-2.6 4.2 8.6-.8 9.6.5 2.2 3-2.7.9-5.2 2-5.5 2.5-.3.4 1.3 2.7 3.5 5.1s4 5 4 5.6c0 .9 2.2 1.3 7.3 1.4 3.9 0 6.6.3 5.9.6-1 .4-.9.8.4 1.8 1.6 1.1 1.3 1.4-2.2 2.5-5.3 1.7-8.2 3.8-6.3 4.4 5 1.6 10.7 1.3 16.9-.8 7.4-2.6 17.1-4.3 15.5-2.8-1.8 1.8-10.8 6.5-18 9.4l-7 2.9 5.4-.5c4.9-.5 5.2-.4 3.5.9s-1.6 1.4 1.6.9c1.9-.4 6.9-1.5 11.2-2.5 14-3.5 15.7-1.9 3.1 2.7l-7.8 2.9 4.3.3c3.3.2 4.2.7 3.8 1.7-.3.8-.2 1.4.2 1.3 1.7-.4 17.2 1.5 17.2 2.1 0 .9-8.3 3.1-11.8 3.1-1.5 0-3.4.4-4.1.9-3.5 2.2 11.9 2.6 17.5.4 1.2-.4 1.4-18 1.4-125.9V0H17.3zM0 104.5l.1 5 1.5-3.4c1.3-3.1 1.3-3.6-.1-5-1.3-1.4-1.5-1-1.5 3.4m51.5 52.2c1.7.9 9.3 4.3 17 7.5s15.1 6.4 16.5 7c4.4 2.1 4.5 2.1 1.5-.6C78.9 164 59.3 155 52.6 155l-4.1.1zM505 257.5c-3 1.3-7.6 2.7-10.2 3-2.7.4-4.8 1-4.8 1.5 0 1.3 4.2 2 12.8 2 9.3 0 9.8 1 2.1 3.5-5.9 2-5.5 2.9 1.9 4.9l5.2 1.3v-9.3c0-5.2-.3-9.4-.7-9.4-.5.1-3.3 1.2-6.3 2.5m4.8 21.2c.7.3 1.6.2 1.9-.1.4-.3-.2-.6-1.3-.5-1.1 0-1.4.3-.6.6m-8.4 2.2c.3.5 2.2 1.2 4.2 1.5 1.9.4 4.2 1 5 1.3.9.3 1.4-.2 1.4-1.6 0-1.9-.6-2.1-5.6-2.1-3 0-5.3.4-5 .9m-19.9 9.5-5 1.2 9.5 1.1c5.2.6 9.6 1.5 9.8 2.1s3.5 2.1 7.3 3.3 6.9 2.6 6.9 3.1c0 .4-1.1 1.3-2.5 2-1.3.6-2.2 1.5-1.9 1.9.3.5 0 .9-.7.9-2.3 0 .5 1.8 3.9 2.5l3.3.7-.2-9.1c-.1-6.7-.5-9.1-1.6-9.5-.8-.4-1.1-.1-.7.5.7 1.2-10.5.4-16.6-1.2-4.2-1.1-5-1-11.5.5m-325.4 16.8c.3 1.6-1.1 6.9-2.1 8.3-.4.5-1.3 2.8-2 5s-2.1 5.1-3.1 6.4c-1.1 1.3-1.9 3-1.9 3.7 0 .8-.4 1.4-.9 1.4-1.6 0-2.1 3.1-.7 4.5 2.1 2.2-.9 8.1-4.8 9.5-2.8 1-2.8 1.1-1.1 2.4 1.7 1.2 1.4 1.5-3.6 2.9-3.3 1-7 1.4-9.2 1-2.2-.3-3.7-.2-3.7.5 0 1.9-3.6 2.5-19.2 3.1l-15.8.6 1.5 2.9c.8 1.6 1.8 4.6 2.1 6.7.9 5.2-2.1 8.1-10.2 9.8-5.2 1.1-6.5 1.1-9.8-.3-5.2-2.1-12.4-8.4-17.6-15.1-4.8-6.2-8.4-8.2-16.9-9.1-3.1-.4-7.1-1.3-9-2-2.7-1.1-23-4.4-27.2-4.4-.5 0-.9 7.9-.9 19.5V384h218.2c120 0 217.9-.2 217.7-.4-.4-.3-10.4-4.5-30.2-12.6-6.2-2.6-6.7-2.7-6.2-.9.8 2.4.4 2.4-2.3 0-1.2-1-1.8-2.1-1.4-2.5s.2-.6-.3-.5c-.6.2-2.1-.4-3.5-1.3s-8.3-3.9-15.5-6.6c-9.9-3.9-15.2-5.3-22.5-6.2-15.4-1.7-27.6-3.9-39.9-6.9-6.4-1.6-14.5-3.2-18.1-3.5-9-1-40.1-6.1-54.9-9.1-26.7-5.4-56.2-14.8-75.1-23.9-7.9-3.8-10.2-4.4-9.9-2.4m353.2 4.5c-2.6 1.8-3 4.1-.8 4.9.9.4 1.3 1.6 1.1 3.5-.2 1.5.2 3 .8 3.3.6.2-.5.2-2.5-.1-2.7-.4-3.6-.2-3.6 1 0 .8.6 1.3 1.4 1 2-.8 1.6.7-.9 2.8-2.5 2.3-1.7 2.2-6.8.4-5.4-1.9-7.9-1.9-10 0-1.6 1.4-2.2 1.4-6.1.1-5.7-2-8.6-2.1-7-.2.9 1.1.3 1.1-4.1 0-6.7-1.8-10.8-1.8-10.8-.1 0 1.4 4 3.7 6.4 3.7.8 0 1.8.6 2.4 1.3.9 1 .3 1.7-2.3 3.1-3.2 1.8-3.8 1.8-12.2.2-8.3-1.5-8.9-1.5-10 .1-.7.9-1.3 2.2-1.3 2.8 0 1.8 3.5 4.6 5.9 4.8 2.9.2 2.7.6-1.6 2.4-3.4 1.4-3.6 1.7-1.8 2.4l2 .8h-2c-1.1 0-4.6-.5-7.7-1.3-6.9-1.6-7.6-.5-1.3 2.1 2.7 1.1 4.3 2.3 4 3-.2.7 0 1.3.5 1.3 1.5 0 16 7.2 16 8 0 .4-1.2 1.2-2.6 1.8-1.4.7-2.2 1.7-1.9 2.2.4.7-.2.9-1.7.6-7.4-1.7-8.4-1.5-7.9 1.6.1 1 .6 1.1-6.8-1.2-3.6-1.1-7.5-1.7-8.7-1.4s-4.5-.2-7.4-1c-3-.9-5.6-1.4-5.8-1.1-.3.2.4.7 1.4 1.1 3.1.9 17.3 6.9 25.1 10.5 7.2 3.3 9.2 5.2 7.1 6.5-.7.5-.8.2-.3-.6q.75-1.35-.3-.6c-3.6 2.2 1 2.6 31.8 2.6h33v-37c-.1-20.4-.2-37-.3-36.9-.1 0-1.2.7-2.4 1.6"/><path d="M500.7 322.1c.7.7 1.5 1 1.8.7s-.2-.9-1.2-1.2c-1.4-.6-1.5-.5-.6.5M432 335.5c.7.8 1.7 1.2 2.2.9.6-.4.5-1-.3-1.5-2.2-1.4-3.3-1-1.9.6"/></svg>