<svg xmlns="http://www.w3.org/2000/svg" width="682.667" height="512" version="1.0" viewBox="0 0 512 384"><path d="M143 22.7c-5.5 1.9-12.4 7.3-16.1 12.5l-4.1 5.8 1.7 6.5 1.6 6.5-5.8 5.3c-3.2 2.9-8 7.3-10.7 9.8-5.5 4.9-11.2 15.8-14 26.7-2 7.7-2.1 15.1-.3 15.8.7.2 3.5 4.7 6.2 9.9 2.7 5.1 5.3 9.1 5.7 8.9.4-.3 1.4.8 2.2 2.3 1.3 2.5 1.5 2.6 2.2 1 .6-1.7.9-1.6 3.4.8 1.4 1.4 3.7 2.7 4.9 3 1.3.2 2.9.9 3.5 1.4.9.8 1.3.7 1.3-.4 0-.8-.4-1.2-.8-1-.4.3-.5-.4-.2-1.5.7-2.6 1.3-2 2.3 2.4.8 3.4-1.1 8.3-3.9 10-2.3 1.5-.9 3.8 3.5 5.7 2.9 1.3 4.9 3 5.5 4.7.5 1.4 1.9 3.2 2.9 3.9 1.1.8 2 2.3 2 3.4s.4 1.7 1 1.4c.5-.3 1.5.3 2.2 1.5.7 1.1 1.8 2 2.5 2 .6 0 1.5.9 1.8 2s1.2 2 2 2c.7 0 1.6.8 1.9 1.7.4 1 1 1.3 1.4.7.4-.5 2.7-1.7 5.2-2.7 3.9-1.5 4.5-1.5 5.3-.2.4.9 1.2 1.3 1.8 1 .5-.4 1 .3 1.1 1.4 0 1.2.1 2.5.2 3s-2.1 2.7-4.9 4.9c-2.7 2.2-7.1 6-9.8 8.5-2.8 2.7-6.1 4.7-8.1 5.1-3.7.7-6.3 3.2-9.6 9.2-1.2 2.3-4.2 5.8-6.5 7.7-6.8 5.7-10.2 15.5-7.6 22.1.5 1.4-.4 3.9-3.3 8.8-2.3 3.7-4.4 6.8-4.7 6.8s-1.6-2.6-2.8-5.8c-1.3-3.1-4.1-9.1-6.3-13.2s-6-14.2-8.4-22.5c-2.5-8.2-4.7-15.8-5-16.7-.7-2.1-.1-2.2 25.4-4.2 10.6-.9 20-2 21-2.5.9-.6 1.5-1.1 1.2-1.2s-12.2-.4-26.5-.8l-26-.7-6.4-3.4c-10.8-5.7-17.9-5.2-28.3 2.1-1.4 1.1-4.2 1.9-6.2 1.9-3.4 0-3.8-.3-6-5.3-2.1-4.8-2.6-5.3-5.9-5.5-3.6-.3-12.5.9-22.4 2.9l-5.3 1v50.1l4.7 8.6c2.6 4.8 6.8 12.7 9.4 17.7 4.3 8.3 5.1 9.2 10 11.8 3 1.5 11.7 7.6 19.3 13.5 13.2 10.1 14.1 11 15.7 16 2.5 7.5 4.3 9.7 23.2 28.9 19.5 19.8 19.5 19.6 11.2 28.4-3.7 4-4.5 5.5-4.5 8.6 0 2.1.7 4.8 1.5 6.1 1.6 2.1 1.5 3.4-.1 12.5l-.6 2.7H246v-2.8c0-7.4-15.4-20.1-24.5-20.2-5.4-.1-6.5-1-6.5-5.7 0-10.2 5.9-42.1 9.9-53.7 2.8-7.9 2.7-11.1-.4-14.2-1.9-1.9-3.4-2.4-5.8-2.2-4.2.4-5.3 3-6.1 14-1 15.2-8 45.8-10 43.8-2.3-2.3-7.9-19.6-7.8-24 .4-10.4 6-37.6 7.7-37.4.6.1 4.3.5 8.4.9 7.1.7 7.3.7 6.6-1.4-.6-2-.4-2.1 3.6-1.5 4.5.7 4.4.9 2.4-3.9-.4-.9 1.5-1.1 8-.8 5.9.2 8.5 0 8.5-.8 0-.7-.6-1.4-1.4-1.7s-1.3-1.7-1.1-3.7c.2-2.5.9-3.3 3.6-4.3 4.5-1.6 6-1.7 5.8-.2-.1.7.3 2.6 1 4.3l1.2 3 1.9-2.5 2-2.5v3.5c0 3.1 1.8 7.9 2.1 5.5 0-.6.6.3 1.3 1.9l1.3 2.9 1.8-5.3c1.4-4.3 1.9-5 2.7-3.6.5 1 .7 2.4.4 3.2-.3.9-.1 1.2.4.9.6-.4 1 .7 1 2.4 0 4 1.5 3.9 3-.2 1.1-3.1 1.2-3.2 2.1-.9.6 1.6.5 3.2-.5 5-.7 1.5-1.6 4.9-2 7.7-.4 2.7-.9 6.7-1.2 8.9-.4 2.7-.3 3.6.5 3.2.7-.5 1.1.3 1.1 2 0 2.3.2 2.5 1.6 1.3 1.5-1.2 1.5-.5.9 7.5-.5 6.2-.4 8.7.3 8.2.7-.4 1.2.6 1.4 2.6l.4 3.3 1.1-2.7c2.2-5 2.8-3.6 2.5 6.3-.2 6.1 0 9.9.7 9.9.5 0 1.3.9 1.6 2.1.4 1.1 1.3 1.8 2 1.5.8-.3 1.2.2.9 1.2-1 5.5-1.2 9.2-.3 8.7.5-.4.9.1.9.9 0 2.5 1.1 1.9 6.3-2.9 2.7-2.5 5-4.5 5.1-4.5.2 0-.1 2.5-.6 5.6-.5 3-.7 6.7-.4 8.2.2 1.5.5 3.3.5 4 .1.7.6 1 1.3.6.8-.5.9.2.5 2.4-.9 4.5.3 4 3.8-1.5l3-4.8.7 5c.7 4.6.5 7.3-.8 14.8l-.6 2.7H512v-4.9c0-5.9.3-5.3-18.2-34-7.6-11.7-14.1-22.5-14.5-24-.6-2.6-.6-2.6 1.6-.7 2.1 1.9 2.1 1.9 2-.5 0-1.3-.4-4.8-.8-7.7-.4-2.8-.6-5.2-.4-5.2.1 0 2 1.9 4.2 4.3 2.2 2.3 5.7 5.2 7.9 6.4l3.9 2.3-.5-5.3c-.3-2.8-1-7.3-1.7-10-.7-2.6-1.1-4.7-.9-4.7.1 0 2.7 2.6 5.8 5.7 3 3.2 6.8 6.6 8.5 7.6l3.1 1.8-1-2.5c-1.4-3.9-5-10.8-7.1-13.8l-1.9-2.6 3.9 1.9c5.4 2.6 6.1 2.4 6.1-1.4 0-2.4-.7-3.7-3-5.2-3.8-2.5-17-18.6-24-29-9.7-14.6-33.1-45.1-37.8-49.5-1-.8-5.4-5.8-9.9-11.1-12.3-14.4-18.1-19.4-25.5-21.8-10-3.2-18-4.1-39.1-4.1-38.8 0-57.3-3.3-78.4-13.9-11.4-5.6-12.6-6.5-15.9-11.6-3.7-5.5-4.4-6.1-5.8-4.8-1.5 1.6-4.2 1-8.2-1.8-2.3-1.6-5.4-2.9-6.7-2.9-2.1 0-2.5.6-3 4.5-.4 2.5-1.6 6.4-2.8 8.8-3.1 6-12 17.8-13 17.1-1.2-.7-1.1-3.4 0-3.4.6 0 .6-1.2 0-3.2-1.8-6.4-1.4-7 3.7-6.2l4.5.6-2.4-4.8c-3.1-6-4.7-11.1-4.7-14.9v-2.8l2.5 2.3c1.4 1.3 2.5 2 2.5 1.7 0-.4-2-5.1-4.4-10.4-2.4-5.4-6.5-15.7-9-22.8-9.3-25.6-9.2-25.6-19.2-38.9-13.2-17.4-19.1-21.9-33.1-25.6-3.9-1-4.3-1.4-5.3-5.3-2.6-10.3-2.1-9.9-18.3-13.6-9.2-2.2-10.2-2.3-12.7-1.4m89.2 146.7c-.3.5.2.7 1.1.3 3.5-1.3 3.5 7 0 10.8-1.7 1.8-12.6 15-16.4 19.7-1.4 1.8-1.8 1.9-3.7.7-1.8-1.1-2.2-2.3-2.2-6.9 0-7.1 2.5-13.7 5-13.5 1.1.1 2.3.4 2.6.8 1.3 1.3 2.4.7 2.4-1.3 0-1.1.5-2 1-2 .6 0 1 .5 1 1.1s.6.9 1.3.6c.6-.2 1.7.5 2.3 1.6.9 1.5 1.2.1 1.7-7.2.3-5 .9-9.6 1.3-10.2.8-1.4 3.4 4.1 2.6 5.5M205 186.2c0 1.6-.3 1.9-1.1 1.1-.6-.6-.8-1.6-.5-2.2 1.1-1.7 1.6-1.3 1.6 1.1M55 199.4c0 .3-.4.8-1 1.1-.5.3-1 .1-1-.4 0-.6.5-1.1 1-1.1.6 0 1 .2 1 .4m3.1 12.8c1.2 2.4 3.6 6.1 5.4 8.3 4.8 5.9 6.2 9.3 6.8 16.5.5 5.2 7 26.6 12.3 40.4.6 1.5-.6 1.2-6.3-2-6.2-3.4-7.4-4.5-10.3-9.9-1.8-3.3-4.2-7.3-5.3-8.8-1-1.6-1.8-3-1.6-3.1.2-.2 2-1.1 4.1-2 3.7-1.8 5.7-5.7 4-7.9-.9-1.2-2.9-4.9-13.6-25L47.8 208h4.1c3.8 0 4.2.3 6.2 4.2"/></svg>