<svg xmlns="http://www.w3.org/2000/svg" width="682.667" height="512" version="1.0" viewBox="0 0 512 384"><path d="M145.8 25.8c-3.5 2.3-7 5.8-9.3 9.2l-3.7 5.5 1.5 6.5c1.8 7.6 2.3 6.8-9.5 16.6-9.4 7.9-14.3 15.1-18 26.6-2.8 8.7-4 22.7-1.9 21.3.5-.3 2.2 2.1 3.7 5.2 1.4 3.2 3.4 6.9 4.4 8.3.9 1.4 2 3.8 2.4 5.4.5 2.2 1 2.6 1.6 1.7.6-1.1 1.1-.9 2.1.7.9 1.4 1.7 1.8 2.5 1.2.7-.7 1.7-.3 2.9 1 1 1.1 2.5 2 3.4 2s2.6.6 3.7 1.4c1.9 1.4 2 1.3 1.7-1.7l-.4-3.2 1.5 2.5c2.3 3.9 1.9 7.2-1.5 11.3-3.5 4.3-3.2 5.4 2.4 7.3 2 .7 3.8 2.2 4.7 4.2.9 1.8 2.5 3.9 3.8 4.8 1.2.8 2.2 1.9 2.2 2.4 0 1 8 9.1 10.6 10.6 1.5.9 2.9.7 6.4-.8 4.2-1.8 4.5-1.8 5.7-.2 1 1.4 1.3 1.4 1.3.3 0-1.2.2-1.2 1 .1 1.2 1.9 1.3 7 .1 7-.8 0-5.8 4.1-14.1 11.6-2.8 2.6-5.9 4.4-8.2 4.8-4.2.8-8.3 4.9-9.3 9.6-.4 1.6-1 3-1.4 3-1.4 0-10 8.8-11.6 12-1.3 2.5-1.6 5-1.3 10.4.4 5.6.1 7.6-1.3 9.6-.9 1.4-2.9 4.7-4.3 7.4l-2.6 4.8-3-6.8c-1.7-3.8-5.1-11-7.5-15.9-2.7-5.4-5.5-13.4-7.1-20-1.4-6.1-3.3-12.7-4.2-14.8-1.1-2.9-1.2-4.1-.3-4.6.6-.4 9.8-1.3 20.4-2 34.9-2.2 34.4-4-1.4-5.2-24.1-.8-24.9-.9-28.6-3.3-4.6-3.1-11.6-5.6-15.3-5.6-2.6 0-9.2 2.8-17 7.1-5.6 3.1-8 2.3-11.1-4.1-2.4-4.8-3-5.5-6.2-5.8-3.3-.3-28.6 3.4-29.5 4.3-.3.2-1.7-.2-3.3-1.1L0 176.9v34.2l6.2 11.7c3.4 6.4 7.7 14.6 9.6 18.2s4.8 9.2 6.5 12.5c5.3 10.4 7.5 13.4 11.4 15 2 .8 5.5 3.3 7.8 5.4s5.5 4.7 7.1 5.7 6.3 4.4 10.5 7.6c6.6 4.9 7.8 6.3 8.7 10 1.7 6.6 5.1 11 23.5 29.9 9.2 9.5 16.7 17.8 16.7 18.5 0 2.8-2 6.2-5.4 9.5-5.1 4.7-6.3 9.9-3.7 14.9 1.6 3 1.8 4.5 1 7.6-.4 2.2-.9 4.5-.9 5.1 0 1 16.3 1.3 78.1 1.3h78l-.7-2.3c-.9-2.8-4.5-7.1-9.8-11.8-5.6-4.9-7.5-5.7-14-6.5l-5.6-.7v-8.2c0-10 4.2-35.5 7.7-47.4 4-13.1 4-14.5.6-17.9-2.3-2.4-3.5-2.8-6.2-2.4-4 .6-4.7 2.1-5.5 12.7-.9 10.6-2.4 20.2-4.7 30.5-3.2 13.8-4 16.3-4.9 15.4-.5-.5-2.6-5.6-4.6-11.4l-3.7-10.5 1.2-10c1.1-8.9 5.3-29.1 6.2-29.9.2-.2 2.9 0 5.9.5 3 .4 7 .8 8.8.8 3 .1 3.2-.1 2.2-2-1.1-2-1-2 3.4-1.4 3 .5 4.6.4 4.6-.3 0-.6-.4-1.4-1-1.7-.5-.3-1-1.2-1-1.8 0-.9 2.6-1.1 9.2-.9l9.3.4-2.9-3.1c-1.7-1.7-2.4-3.1-1.7-3.1.8 0 1.1-.8.8-1.9-.3-1.4.2-2.1 1.7-2.5 3.5-.9 4.6-.7 4.6 1 0 1.4.3 1.4 1.5.4 1.3-1.1 1.5-.8 1.5 1.6l.1 2.9 1.8-2.2 1.9-2.2.6 2.2c.3 1.2.6 3.2.6 4.5 0 1.2.5 2.1 1.3 2 .7-.2 1.4 1 1.6 2.7.3 2.9.4 2.9 2.6-2 1.6-3.5 2.4-4.3 2.4-2.8.1 2.4 2 4.2 2.2 2.1.1-.7.5.5.9 2.7.6 4 .6 4 1.8 1.3 1.7-4.2 3-4.2 2.2 0-.4 2-1.6 7.7-2.6 12.6-1.3 6.7-1.5 9.1-.6 9.4.7.2 1.2 1.5 1.2 2.9 0 2.2.2 2.4 1.5 1.3 1.4-1.1 1.5-.4.9 6.9-.5 5.7-.3 8.1.5 8.1.6 0 1.1 1.7 1.2 3.7l.1 3.8 1.6-3.5 1.7-3.5.6 11c.3 6 .6 10.7.7 10.2.1-.4 1.1.2 2.2 1.3 1.6 1.6 1.9 2.8 1.3 6.6-.4 3.5-.3 4.5.5 4 .7-.4 1.2-.1 1.2.8 0 2.6 1.8 1.9 6.7-2.7l4.6-4.2-.6 4.5c-.4 2.5-.9 5.6-1.2 6.9-.7 3.4.5 7.1 2.2 7.1 1.1 0 1.3.7.8 3-.9 4.3.1 3.7 3.6-2 1.7-2.8 3.3-5 3.5-5 .3 0 .2 1.5-.1 3.4-.4 2-.2 3.6.4 4s.8 2 .6 3.6c-.3 1.7-.7 4.3-1 6l-.4 3H512v-27l-11.6-17.6c-9.7-14.7-11.8-18.4-12.1-22.3l-.5-4.6 3 3.5c1.6 2 5.3 5 8.1 6.7l5.1 3.2-.5-3.7c-.2-2-.7-6.1-1-9.1s-1.1-6.4-1.7-7.5c-.6-1.2 1.7.8 5 4.4l6.1 6.5.1-5.1c0-2.7-.5-5.5-1.1-6.1-.8-.8-.8-1.3 0-1.7.6-.4 1.1-2.8 1.1-5.4 0-3.5-.6-5.2-2.3-6.8-2.4-2.4-11.2-14.8-24.5-35-10.1-15.3-16.1-23.3-32.2-43.3-13.5-16.8-22.9-26.2-28.6-28.6-7-3-18.4-4.4-44.9-5.4-39.5-1.7-53-4.3-72.7-14.2-13.3-6.7-13.1-6.5-17.4-13.5-3.1-5.1-4.1-6.1-5.2-5.1-2.5 2-4.6 1.7-8.9-1.3-2.3-1.7-5.2-3-6.6-3-2.2 0-2.6.6-3.1 4.4-.6 4.1-7.5 17-11.8 22.1-.9 1.1-2.6 3.1-3.7 4.5l-2 2.5-.1-3.1c0-1.6.4-3.4.9-4 .6-.5.6-2.8.1-5.4-.4-2.5-.7-4.6-.5-4.8s1.2.1 2.3.7c2.1 1.1 6.2 1.5 6.2.6 0-.3-1.1-2.3-2.5-4.6-1.4-2.2-2.3-4.4-2-4.9s-.1-2.6-1-4.6c-.8-2-1.5-4.8-1.5-6.2v-2.6l3 2.9c1.7 1.6 3 2.6 3 2.2s-2-4.9-4.4-9.9c-2.4-5.1-6.9-16.5-10-25.3-8.5-24.2-8.6-24.2-11.9-29-12.1-17.1-18.5-24.5-24.2-28.4-4.2-2.8-15.1-7.1-18-7.1-1.7 0-2.9-2.3-4.5-8.8-1.4-5.3-3.3-6.6-14-9.2-12.5-2.9-16.4-2.6-23.2 1.8m98.4 146.6c.4-.4 1.2.6 1.8 2.1.9 2.5.6 3.2-3.7 8.3-2.7 3-6.1 7.1-7.7 9.1-1.7 2-4.6 5.4-6.7 7.7-3.5 4-3.7 4-5.8 2.3-1.9-1.6-2.1-2.4-1.6-7.1 1.4-11 4.1-15 8.3-12.4.9.5 1.5.1 1.9-1.3.6-2.5 1.6-2.6 3.7-.5 1.2 1.2 1.6 1.2 1.7.2.1-.7.4-.2.8 1.2.5 1.8.9.4 1.4-5.1.9-10.8 1.7-12.3 3.6-7.5.9 2 1.9 3.4 2.3 3M63.5 198.9c.3.5.1 1.2-.5 1.6-.5.3-1-.1-1-.9 0-1.8.6-2.1 1.5-.7m-1 10.1c3 0 3.5.4 4.3 3.3.5 1.8 3 6.2 5.6 9.6 2.5 3.5 4.6 6.8 4.7 7.5 0 .6.2 1.8.3 2.6.2.8.6 4 .9 7.1.4 3 3.3 13.2 6.5 22.7S90.3 279 90 279s-3-1.5-6-3.3c-4.5-2.7-6.2-4.6-10.7-12.1-2.9-4.9-5.3-9-5.3-9.2s1.7-1.2 3.8-2.3c5-2.5 5-4.7.3-13.5-14.7-27.5-16.4-30.9-14.7-30.3 1 .4 3.3.7 5.1.7"/></svg>