<svg xmlns="http://www.w3.org/2000/svg" width="682.667" height="512" version="1.0" viewBox="0 0 512 384"><path d="M157.8 24c-4.9 3-14.8 14.1-14.8 16.5 0 .7.7 4.1 1.6 7.5 1.6 6.2 1.5 6.2-.7 7.8-1.3.9-3 2.3-3.9 3.2s-3.8 3.3-6.6 5.4c-6.9 5.3-12.8 14.3-16.4 25.4-2.9 8.8-4.2 21.2-2.2 21.2.9 0 10.2 18.1 10.2 19.8 0 .6.6.9 1.3.6.8-.3 1.8.6 2.5 2.1 1.2 2.6 3.6 3.6 2.6 1-.9-2.2.1-1.9 3.2 1 1.4 1.3 3 2.2 3.5 1.9.5-.2 2 .2 3.3 1.1l2.5 1.7-.9-3.3c-1.4-4.7-.4-4.8 1.5-.3 1.9 4.6 1.4 7.2-2 11.2-1.4 1.7-2.5 3.4-2.5 4 0 .5 2 1.8 4.5 2.9 3.4 1.4 4.7 2.6 5.6 5 .5 1.8 1.9 3.5 3 3.8 1 .4 1.9 1.1 1.9 1.6 0 1.6 9 10.8 12.1 12.3 1.6.8 2.9 1.1 2.9.6 0-1.2 6.1-3.1 7.4-2.3.6.4 1.5.8 2.1.8.5 0 1.1.9 1.3 2s.8 2.5 1.3 3.1c.6.7-.8 2.3-3.9 4.4-2.6 1.9-7.2 5.7-10.2 8.6-4 3.7-6.6 5.3-9.4 5.7-4.4.7-7.2 3.3-8.8 8-.6 1.7-3.4 5.5-6.3 8.3-8.4 8.1-11.4 16.2-8.5 22.6.9 2 .4 3.5-3.9 10.7l-5 8.3-2.5-5.4c-1.3-2.9-3.4-7.8-4.6-10.8s-3.2-7.4-4.6-9.7c-1.3-2.3-4-10-5.9-17.2s-4.1-14.7-5-16.7c-.8-2-1.4-3.8-1.3-3.9.2-.1 9.1-.9 19.8-1.9 21.9-1.8 27-2.5 27-3.6 0-1.3-6.7-1.8-29.3-1.9-21.2-.2-21.8-.2-25.3-2.6-3.8-2.6-13.5-6.5-16-6.5s-14.2 5.9-15.2 7.6c-.5.9-2.7 1.8-5 2.1l-4.1.5-3.2-6.5-3.2-6.5-7.6.3c-4.2.2-11.6 1.3-16.5 2.3l-8.9 1.9-5.5-2.7C1 172.8 0 173.5 0 183.7v8.4l8 15.2c4.5 8.4 8.6 16.1 9.2 17.2 3.5 6.1 13 24.3 17.3 33.2 3.8 7.8 5.6 10.5 7.8 11.4 1.5.6 5.7 3.5 9.2 6.3s9.2 7.1 12.6 9.6c10.1 7.3 12.7 9.9 13.5 13.3 1.6 7.5 3.4 9.9 23.8 30.7 8.4 8.5 15.5 16 15.9 16.6 1 1.7-1.7 7.5-4.8 10.4-1.5 1.4-3.6 4.4-4.7 6.7-1.9 4.2-1.9 4.4 0 8.5 1.2 2.8 1.7 5.8 1.4 8.5l-.4 4.3h155.4l-1.7-2.8c-2.1-3.2-10-11-13.8-13.5-1.6-1-5-2-7.7-2.2-2.7-.1-5.3-.6-5.9-1-1.7-1-1.3-8.8 1.3-26.6 2.9-19.3 5-29.5 7.1-34.5 3.5-8.3.3-15.4-6.8-15.4-4.3 0-5.4 2.3-6.2 13.5-1.4 18-6.4 45.5-8.3 45.5-.4 0-2.5-5-4.6-11.1-3.6-10.2-3.8-11.6-3.2-18.2.3-4 1.9-12.8 3.4-19.7l2.9-12.5 9.9.4c9 .3 9.7.2 8.5-1.3-1.5-1.8-1.2-1.9 4.2-1.6 4 .2 4.2-.1 2.7-3.1-1-1.8-.7-1.9 8.1-1.9h9.2l-2.4-2.6c-1.5-1.7-2-2.8-1.3-3.1.7-.2 1-1.2.7-2.2-.6-2.3 3.5-3.7 4.4-1.5.4 1.1.9 1.2 1.9.3 1.1-.9 1.4-.7 1.4 1.1 0 2.2.1 2.3 2 .5 2-1.8 2-1.7 2 1.3 0 3.8.9 6.4 2.1 5.7.4-.3 1.2.8 1.6 2.6.9 3.1.9 3.1 2.8-2.7 1.9-5.6 2-5.7 2.3-2.6.3 2.8.6 3.1 1.8 2.1s1.4-.5 1.4 3.2l.1 4.4 1.9-3.5c2.6-4.7 2.6-1.8.1 8.1-2.6 10.3-3.4 16.2-2.1 15.4.5-.3 1 .3 1 1.4 0 2.4 1 2.7 2.9.8 1.1-1 1.3-.8.8 1.3-1.4 6.4-1.9 16.3-.8 15.6.7-.5 1.1.5 1.1 3.1l.1 3.8 2-3.8c1.1-2 2.1-3.7 2.4-3.7.2 0 .1 5-.2 11.2-.5 10.1-.4 11.1 1.1 10.5 1.1-.5 1.6-.1 1.6 1.3 0 1.2.5 1.7 1.3 1.4 1.1-.4 1.2.5.3 4.6-.7 3.6-.7 5.3 0 5.8.6.4 1.3 1.3 1.5 2.1.3.9 2.4-.4 6.2-3.9 6.4-5.9 6.2-6.2 3.6 4.3-1.2 4.7-.2 11 1.7 10.3 1-.4 1.2.3.8 2.7-.5 3.2-.5 3.2 1.3 1.1 1-1.1 2.6-3.1 3.5-4.5l1.7-2.4v3.2c.1 1.8.6 3.3 1.2 3.3s.8.8.5 1.7c-.2 1-.7 3.3-1.1 5.1l-.7 3.2H512v-42.1l-2.8-4.2c-4.7-6.9-4.7-6.9-1.6-6.1l2.7.7-.5-7.9c-.2-4.4-1.2-9.4-2-11.2-2-3.9-1.5-4.1 1.7-.5l2.4 2.8.1-11.6v-11.7l-3.5-4.8c-1.9-2.7-5.3-8.3-7.6-12.4-12.4-22.1-42.9-64.8-56.3-78.8-7.6-8-18.3-11.5-38.1-12.6-31.8-1.8-36.8-2.1-48.5-3.7-9.5-1.3-24.6-5.3-31.9-8.5-3.1-1.4-9.1-4.6-13.4-7.1-6.7-4.1-8.2-5.6-11.7-11.4l-4-6.7-3 1.4c-2.8 1.5-3.2 1.4-7.2-1.4-2.5-1.8-5.3-2.9-6.8-2.8-2 .2-2.6.9-3.2 4.3-.9 5.7-4.8 12.4-13.4 23-3.8 4.8-4.2 5-4.8 3-1-4-.7-6 .9-5.3.8.3 1.5.4 1.5.2s-.7-2-1.5-3.9c-1.9-4.5-1.9-6.1-.1-5.4.8.3 3.1.9 5 1.2l3.5.7-2.4-4.8c-1.4-2.7-2.3-5.5-2-6.2s0-2.3-.7-3.5c-1.1-2.1-2.9-9.7-2.2-9.7.2 0 1.7 1.5 3.4 3.2l3.1 3.3-2.1-5.5c-1.2-3-3.2-7.5-4.5-10-2.3-4.4-4.8-11.1-12.2-32.8-4.1-12.4-5.3-14.6-16.2-29.1-11.6-15.4-18.3-20.6-30.5-23.5-5.5-1.4-5.9-1.8-8.1-9.8-1.5-5.4-1.7-5.7-6.3-7.2-6.1-2-18.6-4.6-22-4.6-1.5 0-4.8 1.4-7.4 3m96.1 148.2c.4-.7 1.2 0 2.3 2.3 1.8 4.1 2.4 3.1-13.7 21.2-7.8 8.8-8.1 9-10.2 7.4-1.5-1.2-2.2-2.9-2.5-6.3-.2-2.8.1-5 .8-5.2.5-.2 1.6-2.3 2.3-4.5 1.3-4.6 3.3-6 5.6-4.1 1.1.9 1.6.7 2.7-.9 1.5-2.5 3.8-2.8 3.8-.5 0 .8.4 1.3.9.9.5-.3 1.1.5 1.3 1.7.2 1.3.8-.6 1.2-4.2.5-3.6 1.3-7.6 1.8-9l1-2.5 1 2.5c.6 1.6 1.1 2.1 1.7 1.2M72 200c0 .5-.4 1-1 1-.5 0-1-.5-1-1 0-.6.5-1 1-1 .6 0 1 .4 1 1m3 13.4c.6 1.8 3.1 5.9 5.5 9 5 6.5 5.1 6.8 6 15.6.3 3.7 3 13.8 6 23 3 9 5.2 16.6 5 16.8-.8.8-6.3-1.9-8.2-4.1C87.1 271.3 78 256.2 78 255c0-.3 1.2-1.3 2.6-2.1 4.6-2.4 4.8-5.1.8-12.6-2-3.8-6.3-11.8-9.5-17.9-3.2-6.2-5.9-11.5-5.9-11.8s1.8-.6 3.9-.6c3.6 0 4 .3 5.1 3.4"/></svg>