<svg xmlns="http://www.w3.org/2000/svg" width="682.667" height="512" version="1.0" viewBox="0 0 512 384"><path d="M220.2 22.4c-4.1 2.9-17.2 16.2-17.2 17.3 0 .4.8 3.5 1.8 6.8s1.7 6.7 1.4 7.5c-.7 2.3-4.2 5.9-9 9.2-2.4 1.7-5.9 4.7-7.8 6.7-6.7 7-13.1 22.7-14.1 34.4-.5 6.1-.4 7 1.6 8.8 1.1 1.1 2.1 2.7 2.1 3.6s.6 2.1 1.3 2.7c.8.6 2.3 3.7 3.5 6.8 2.4 6.5 5.6 10.2 8.9 10.3 1.2 0 2.8.6 3.5 1.2 1.5 1.6 3.2 1.7 2.2.1-.4-.6.9.1 2.8 1.6 2.3 1.7 3.9 2.3 4.3 1.6.3-.6.2-.9-.4-.8-.6.2-2.1-1.2-3.2-3-1.2-1.7-1.7-3.2-1.2-3.2.6 0 1.6 1.2 2.3 2.7 1.1 2.3 1.4 2.5 1.7 1 .7-2.9 2.3-.8 2.3 2.9 0 3.8-2.4 9.2-4.8 11-2.1 1.6-.8 4.2 2.5 5 4.3 1 7.3 3.2 7.3 5.4 0 1.1.8 2.4 1.8 2.9 1.8 1 7.7 6.9 11.4 11.4 1.8 2.3 3.2 2.9 6.1 2.9 2.8 0 3.7.4 3.7 1.6 0 1.3.5 1.1 1.9-.8l1.9-2.5.8 3 .7 3 1.8-4c1.4-2.9 1.9-3.4 1.9-1.8 0 1.2.5 2.5 1 2.8.6.3 1 1.8 1 3.3-.1 2.2-1.9 4.2-9.4 10.3-5.6 4.6-10.7 8-12.7 8.4-6.1 1.3-9 3.5-11.1 8.2-1.1 2.4-1.7 4.7-1.4 5 .3.4-1.7 3-4.5 5.9-7.5 8-9.5 14.5-6.8 22.3 1 2.9.9 3.7-1.1 6.3-1.2 1.7-4.1 7.1-6.4 12-4.8 10.1-4.6 10.2-9.3-1.2-1.7-4.1-4.8-11.3-6.8-16-2.1-4.7-4.6-11-5.6-14-2.8-8.6-9-29.3-9.2-31-.1-1.1 1.5-1.7 6.8-2.3 23-2.6 38-4.8 38.8-5.6 1.8-1.8-5.9-2.3-27.7-1.6l-22.3.8-8.4-4.3c-8.9-4.4-14-4.9-17.7-1.7-.9.8-2.8 1.8-4.2 2.2s-3.6 1.8-5 3c-1.4 1.3-3.8 2.6-5.5 2.9-2.9.6-3.1.4-6.5-6.1-5.9-11.4-6.8-11.8-20.8-8.2-7.1 1.9-8.6 2-11 .9-2.4-1.2-5.7-1.5-12.2-1.1-1.8.1-1.6 1 3.1 9.8 2.9 5.4 8.5 15.7 12.5 23 6.6 11.7 7.4 13.7 7.4 18.5 0 3.2 1.1 8.1 2.6 12.3 1.5 3.8 3.4 9.7 4.3 13s2.1 6.7 2.6 7.5c.6.8 1.5 3.1 2 5 .9 2.9 2.1 4.1 7.8 7 3.7 1.9 11.5 6.7 17.4 10.7 19.1 12.8 18.6 12.3 20.7 19.4 1.9 6.1 2.7 7.1 19.6 24.4l17.7 18-1.1 4.2c-.6 2.3-2.3 5.5-3.7 7-5.5 5.9-7.6 15.5-4.4 19.7.8 1.1 1.5 2.8 1.5 3.8 0 1.7 3.2 1.8 73.1 1.8h73l-1.9-2.8c-1.1-1.5-3.9-4.5-6.1-6.7-3.3-3.1-5.1-4-8.9-4.5l-4.7-.5-.9-8.5c-1-10.8.8-42.5 3.1-53.8 1.7-8.1 1.7-8.4-.2-12-1.6-3-2.7-3.8-5.3-4-6.7-.7-6.9 0-7.5 27.1-.3 13.3-1 25.8-1.5 27.7l-.8 3.5-3.2-8.5c-1.8-4.7-3.7-9.3-4.2-10.2-1.4-2.5-1.2-5.9.9-17.8 3.8-20.9 5.6-26.4 8-25.5s21.1 1.9 21.1 1.1c0-.4-.5-1.6-1-2.7-1-1.8-.7-1.9 5-1.9 5.6 0 6-.1 5.1-1.9-.9-1.6-.5-1.9 3.6-2.5 2.5-.3 6.2-.6 8.2-.6 3.5 0 3.7-.2 5-4.5 1.9-6.6 3.7-7.4 3.4-1.7-.2 2.6 0 4.1.3 3.4.9-2 2.4-1.4 2.4 1 .1 2.2.1 2.2 1.5.4 2.5-3.3 2.7-1.2.6 5-1.2 3.3-2.5 8.4-3.1 11.4s-1.3 6.4-1.7 7.5c-.5 1.7-.4 1.8 1.1.6 1.4-1.2 1.6-1.1 1.6 1v2.2l2.3-2.1 2.3-2.1-1.5 9.1c-1.1 7-1.2 9.3-.3 9.6.7.2 1.2 1.5 1.2 2.9 0 2.4.1 2.5 1.8 1 1.9-1.7 2-.5.9 15.5-.1 2 .1 3.4.5 3.2s1.1.3 1.6 1.3c.8 1.3 1.3 1.5 2.4.5 1.3-1 1.3-.3.2 5-.7 3.4-1.2 6.3-1.1 6.4s1.1.4 2.2.8c1.5.4 3.4-.5 6.9-3.4 2.7-2.2 5-3.9 5.2-3.8.1.2-.8 4-2 8.6-1.3 4.5-2 7.9-1.5 7.7.4-.3.9.4 1.1 1.5.2 1.2.7 1.9 1.3 1.8.5-.2 1.2 1 1.5 2.7l.6 3 2.9-4.4c2.8-4.2 3-4.3 3.4-2 .1 1.3.7 2.7 1.2 3 .6.3.6 1.6-.1 3.3-.5 1.5-1 4.3-1 6.2v3.4h138V248.7l-4.6-8.6c-2.5-4.7-5.7-10.1-7.2-12-4.1-5.4-16.6-10.7-35-14.7-25.2-5.5-33.2-7.5-42.2-10.7-26.2-9.1-41.9-22.7-58.1-50.1-4.6-7.9-5.1-8.3-7.2-7.3-1.2.6-3.2 3.1-4.4 5.6s-3.5 5.3-5.1 6.2c-1.5.9-4.5 4.2-6.7 7.5-5.2 7.8-5.7 8.4-14.9 18.1-17.1 18.2-29.8 30.3-31.7 30.3-.5 0-.9-.7-.9-1.5 0-.9-.7-2.9-1.5-4.4-1.7-3.4-3.3-20.4-1.6-18.1 1 1.3 1.1 1.3 1.1 0 .1-.8.9.1 1.9 1.9l1.9 3.5.7-3.5c1.1-5.8 1.6-6.9 2.6-6.3.6.3 1.6-.2 2.4-1.2 1.1-1.5 1.5-1.6 2.8-.5 1.9 1.5 3.7.7 3.7-1.7.1-1.6.1-1.5 1.1.1.5.9.7 2.2.4 2.7-.3.6.1 1 .9 1 1.2 0 1.6-1.1 1.6-4.5 0-3.3.4-4.5 1.5-4.5.8 0 1.5-.6 1.5-1.3.1-.6.6-.2 1.4 1.1 1.9 3.6 3.4.8 3-5.7l-.4-5.4 3.6 3.4 3.6 3.4-2.1-4.2c-2.9-5.8-2.7-6.6 1.2-5.9 4.4.8 4.9.1 2.7-3.7-1-1.8-2.1-4.3-2.5-5.6-.7-2.2-.5-2.3 2-1.7l2.7.7-3.1-5.4c-1.7-3-3.1-6.3-3.1-7.3.1-1.6.6-1.3 3 1.4 4.2 4.5 3.8 2.6-1.6-7.5-4.9-9.4-9.5-20.8-12.5-31.3-6.7-22.9-10.6-29.5-28.4-47.5-5.9-5.9-15.1-11-21.7-11.9-5.5-.8-6.1-1.5-7.9-8.4-.7-2.9-2-5.9-2.9-6.7-1.7-1.5-21.9-6.5-26.2-6.5-1.3 0-3.9 1.1-5.6 2.4m-88.6 196.8c.9 1.8 3.9 6.1 6.6 9.5 4.2 5.3 5.1 7.2 5.9 12.5 1.1 8 1.1 8.4 0 7.3-.9-1.1-18.1-31.4-18.1-32.1 0-.2.9-.4 2-.4 1.2 0 2.6 1.2 3.6 3.2m15.9 37.6c1.5 4.6 1 4.7-3.3.9-1.5-1.4-2-2.7-1.6-4.1.8-2.6 2.8-4 3.2-2.3.2.7 1 3.1 1.7 5.5M333 274.1c0 1.1-.4 1.8-1 1.4-.5-.3-.7-1.2-.3-2 .7-2.1 1.3-1.9 1.3.6"/></svg>