<svg xmlns="http://www.w3.org/2000/svg" width="682.667" height="512" version="1.0" viewBox="0 0 512 384"><path d="M268.2 24.1c-4.4 4.1-9 8.7-10.3 10.2l-2.2 2.8 2.2 7.2c1.1 4 2.1 7.9 2.1 8.8 0 .8-2.9 3.6-6.4 6.2-8 5.9-11.8 10.2-15.6 17.7-6.6 13-9 32.1-4.6 36.9.9 1 1.6 2.5 1.6 3.3 0 2.5 2.7 7.2 3.3 5.6.2-.7 1 .7 1.7 3.2 1.3 4.7 6 10.7 6 7.6 0-1.4.3-1.3 2 .4 1.1 1.1 2.8 2 3.8 2s2.8.7 4 1.6c3.1 2.1 3.8 1.2 1.6-2-2.5-4-1-4.2 2-.3 3.3 4.3 3.3 6.4 0 11.2-1.4 2.1-2.3 4.3-2 5 .2.7 2.5 2.1 5 3 3.2 1.2 4.8 2.5 5.2 4 .3 1.3 2.9 4.1 5.7 6.4s6.1 5.8 7.5 7.7c2 3 2.9 3.5 5.5 3.2 2.1-.2 3.8.3 4.9 1.5 1.6 1.8 1.8 1.8 4.7-1.2 1.7-1.8 3.1-2.8 3.1-2.4s.7-.2 1.5-1.3c1.3-1.8 1.4-1.6 1.5 2.3 0 2.3.3 4.8.6 5.6.3 1-.9 2.8-3.3 4.9-2.1 1.8-6.3 5.7-9.3 8.7-3.9 3.8-6.4 5.4-8.5 5.6-5.9.4-10.2 4.7-11.9 11.9-.4 1.7-2.1 4.6-3.8 6.5-4.2 4.8-5.8 9.1-5.8 15.8-.1 3.5-.6 6.6-1.5 7.7-.8 1.1-1.5 2.9-1.5 4.1 0 2.2-6.1 20.5-8.1 24.2-1.7 3.2-2.4 2.9-4.2-1.4-.8-2.1-4.4-9.9-8-17.3-4.2-8.8-7.2-16.8-8.7-23-1.3-5.2-3.6-12.4-5.1-15.9-1.6-3.5-2.8-6.6-2.5-6.8.2-.2 6.6-1.5 14.2-2.8 18.5-3.3 28.7-5.5 29.8-6.5 2.6-2.5-7.5-2.3-39.6 1l-8.7.9-6.6-3.5c-7.2-3.7-14.2-4.5-16.8-2-.8.8-3 2.1-5 2.9-1.9.9-4.3 2.7-5.2 4-.9 1.4-2.9 3-4.5 3.6-2.9 1-3 .9-8.3-7.7-2.9-4.8-6.6-11-8.2-13.9-2.4-4.2-3.5-5.2-6.2-5.6-1.8-.3-4.6-.2-6.1.3s-5.1 1.1-8 1.3c-2.9.3-5.6.8-6 1.3s-1.8 2.1-3 3.5l-2.3 2.6 6.7 11.4c3.7 6.3 7.4 12.5 8.3 13.9s1.8 2.9 2.1 3.5c.3.5 1.8 3.1 3.4 5.8 2 3.4 2.5 5.1 1.8 6-1.3 1.5-.2 7.3 2.8 14.2 1.1 2.7 1.9 5.4 1.6 6.2-.6 1.5 1 7.1 4.8 17.1 2.7 7.1 2.8 7.1 8.4 9.2 3.1 1.2 7.3 3.1 9.2 4.4s8 4.7 13.5 7.6c18 9.5 18.9 10.2 20 15.7.9 4.9 8.3 14 22.1 26.9l12.6 11.9-.7 4.9c-.7 5.5-2.1 8.7-4.2 10-2.3 1.3-5.3 8.7-5.3 12.9 0 2.1.9 5.5 2 7.7s2 5.3 2 7v3h69.5c67.1 0 69.5-.1 69.5-1.9 0-4.6-13.1-19.5-16.7-18.8-1.9.4-2.2-.2-3.2-7.2-2.9-19.4-4.1-43.8-3-60.9.4-4.9-2.9-8.7-7.5-8.7-3.4 0-3.6-.2-3.6-3.1 0-4.1.7-4.6 4.1-2.9 1.9 1 5.9 1.5 12.3 1.5 8.7 0 12.2-.9 9.6-2.5s-.4-2.5 6.2-2.5c5.6 0 6.9-.3 6-1.2-2.7-2.7-1.3-3.8 4.7-3.8 6.4 0 9.4-.7 8.6-2.1-.9-1.4 2.7-11 3.9-10.6.6.2 1.2 2.3 1.4 4.8.4 5.7 2.2 8 3.6 4.7l.9-2.3.5 2.3c.2 1.3-.3 4-1.1 6-.8 2.1-2 7.3-2.7 11.6-.9 6.4-.9 8 .1 8.7.9.5 2.3-.8 4.6-4.2 4-5.8 5.5-6.3 4.2-1.3-1.6 5.5-3.7 24.4-2.7 24.4.4 0 .8.8.8 1.7 0 1.5.2 1.4 1.5-.3s1.4-.9 1.5 8.2c0 7.5.4 10.5 1.4 11.3 1.2 1 1.8.6 3.2-1.8 2.1-3.6 4.9-5.1 3.9-2.2-.7 2.2-2.5 12.9-2.5 14.8 0 2.3 3.2 1.3 7.7-2.3 2.4-2 4.6-3.4 4.8-3.2.4.4-1.8 10.7-3.1 15.2-.4 1.2-.2 1.6.5 1.2.6-.4 1.1-.2 1.1.5 0 .8.4.8 1.6-.2 1.3-1.1 1.4-.9.9 1.4-.5 1.8-.3 2.7.5 2.7.7 0 1 .7.6 1.7-.3 1 .9.1 2.8-1.9 2.7-2.9 3.6-3.3 3.8-2 .2.9 1.4-1.3 2.7-5 3.1-9.2 4.3-9.5 2.1-.5-1 3.9-2.6 11.8-3.6 17.4-1.4 8.3-1.5 10.5-.4 11.8s6 1.5 35.6 1.5H512V209.1l-5.7-1.1c-15.4-3.1-22-5.3-30.8-10.8-23.1-14.1-41.8-32.2-56-54.1-2.5-3.9-4.7-7.1-4.9-7.1s-1.5 2.5-3 5.5c-1.4 3-4.3 7.2-6.5 9.4s-4.7 5.5-5.6 7.5c-3.2 6.8-32.7 39.5-39.7 44-2.5 1.7-2.7 1.6-5.2-.9-3-3-3.3-7.2-1.5-18.6 1-5.8 1.5-6.9 3.1-6.9 2.7 0 7.6 3 8.1 4.9.2.9.8-.4 1.2-2.9.8-4 1-4.2 1.6-2l.7 2.5.1-2.8c.1-1.7.7-2.7 1.6-2.7 1.3 0 1.5-1.1 1.1-6-.3-3.3-.1-6 .4-6s1 1.7 1.2 3.7c.4 4.3 2.5 5.5 3.4 1.9.7-2.8 2.3-3.3 4.2-1.4 1.7 1.7 1.5-.4-.3-2.8-2.2-2.9-1.9-6.4.5-6.4 2.5 0 2.5-1.7.1-5.3-2.3-3.6-1.7-8.1.9-6.7 4.5 2.4 5.1 1 1.5-3.6-1.9-2.6-3.5-5.2-3.4-5.8 0-.7.3-.6.6.1.2.7 1.1 1.3 1.8 1.3.8 0 1.9.8 2.4 1.7.6 1 1.1 1.5 1.1 1 0-1.2-7-14.9-10-19.2-3.3-4.8-4.1-7.3-8.5-25.1-4.9-20-7.5-24.7-20.9-37.9C334.3 45.3 323.4 38 317.9 38c-4.2 0-9.9-2-9.9-3.5 0-.8-.9-3.8-2-6.8l-2-5.3-8.8-2.2c-4.8-1.2-11-2.5-13.8-2.8l-5.1-.6zM345 184.7c0 3.7 0 3.7-1.6 1.5-1.6-2.3-1.3-5.2.6-5.2.5 0 1 1.7 1 3.7m-154.1 42c.6 1.6 3 4.8 5.2 7.3 5.3 5.8 6.8 8 7.9 11.9.8 2.9.7 3-1.1 2-1.9-1-7.1-8.5-13.3-19.2-2.1-3.5-2.4-4.7-1.3-4.7.8 0 2 1.2 2.6 2.7m156.8 96.8c.3 9.9.3 17.7-.1 17.4-.3-.3-1.9-3.8-3.6-7.9-3.3-8-3.6-12.2-1.9-24.7 1.5-11.8 2-12.6 3.7-7.3.9 2.8 1.6 11.2 1.9 22.5m141.9 37.7c-.8 3-1.2 3.6-1.4 2.1-.3-1.9 1.3-6.3 2.2-6.3.2 0-.2 1.9-.8 4.2"/></svg>