<svg xmlns="http://www.w3.org/2000/svg" width="682.667" height="512" version="1.0" viewBox="0 0 512 384"><path d="M1 .4C1 .9 16.4 6 17.9 6c.6 0 1.6-1 2.1-2.3.8-2.1.9-2.1.9.6.1 2.3.9 3.2 4.4 4.8 2.7 1.3 3.3 1.8 1.5 1.5-1.4-.3-3.3-.8-4.1-1.2-1.1-.4-1.5.7-1.9 5.2-.4 5.2-.2 6.1 2.9 10.6 4.2 6.4 4.2 7.7-.2 4.4-3.9-3-3.9-2.9-4.9 4.4-.4 2.5-.9 6-1.2 7.7-.7 3.9 0 4.1 6.4 1.2 13.6-6.1 14.9-6.9 19.6-12.3 2.7-3.1 5.1-5.4 5.4-5.2.3.3-1.9 4.1-4.7 8.5l-5.3 8-9.4 3.7c-5.2 2.1-9.9 4.3-10.4 4.9-.7.8 0 1.9 2.1 3.4 2.7 2 4 2.2 11.4 1.9 5.9-.2 8.1 0 7.4.8-.5.6 2.2.3 6.4-.8 7.7-1.9 12.4-1.6 14.4 1.1 2.4 3 10 19.5 13.1 28.1 2.9 8.4 5.6 20.3 8.7 39 2.1 13 2.1 12.8 6.8 14.1 19.7 5.2 38.7 22.1 49.8 44.1l3.9 7.7 3.7-1.6c2.1-.8 8.1-3.7 13.3-6.3 11-5.5 18.9-8 25.3-8 5 0 5.1.1 6.3 8.3.7 5.2 5.2 12.8 9.4 15.9 2.5 1.8 2.7 1.8 10 0 14.5-3.6 65.9-13.3 86-16.3 8.5-1.2 22.2-2.3 33-2.6 17.4-.5 19.5-.3 35.7 2.5 9.4 1.7 18.5 3.8 20.2 4.6 3.9 2.1 6.7 2 16.3-.4 8.9-2.3 17.4-2 16.4.6-.3.8.1 1.4 1 1.4 3.1 0 12.4 3.2 11.9 4-.3.5-2.8 1.2-5.5 1.6-4.8.6-9.3 3.4-5.6 3.4 2.5 0 1.9 1.5-1.1 2.7l-2.8 1.1 3-.1c1.7 0 4 .3 5.2.7s3.2.2 4.3-.4c3.1-1.7 3.9-.2 1.1 2.1-2.7 2.2-1.7 2.3 6.2.5 4.9-1.2 7.5-1.4 9.7-.6.3.1 2 .1 3.8 0 4.7-.2 3.9 1.6-1.5 3.5-2.7 1-6.1 2.2-7.7 2.8l-2.9 1.1 2.4.7c1.3.4 3.8 1 5.4 1.4l3 .7-4.7 1.7-4.8 1.6 2.4 2.8c1.4 1.6 2.8 4.2 3.1 5.8.6 2.5 1.1 2.9 4 2.9 5.6 0 10.6 2.6 11.2 5.7.3 1.3-5.5 3.3-9.7 3.3-3.8.1-.5 1.6 5.3 2.4 3.4.5 6.3.2 9.8-.9 2.8-1 6.3-1.5 7.9-1.2 1.5.4 3 .3 3.4 0 .3-.4 2.5-.8 4.9-1 5.5-.6 4.4.4-7 6.2-5.1 2.6-9.3 4.9-9.3 5.2 0 .6 11.3-.3 15.8-1.1 1.5-.3 2-.1 1.6.6-.5.8-.1.9 1.2.4 1-.5 3.9-1 6.4-1.2l4.5-.4-5 2.5c-2.7 1.3-6.3 3-8 3.6l-3 1.2 2.5.4c1.4.3 2.9.9 3.5 1.4.5.5 2 .9 3.3.9 3.3 0 15.2 3.2 15.2 4.1 0 .4-.8 1-1.7 1.2-1 .3.8.5 4 .6 3.6.1 5.6.5 5.2 1.1-.3.5-.1 1 .4 1 .8 0 1.1-39.8 1.1-132V0H256.5C116 0 1 .2 1 .4"/><path d="M0 6.9c0 .5 3.3 2.2 7.3 3.7 3.9 1.5 7.7 3.4 8.3 4.3 1 1.3 1.4.9 2.3-2.4.6-2.1.9-4 .8-4.1C18.2 7.9 5.5 6 2.8 6 1.2 6 0 6.4 0 6.9M28.5 59c-.3.5-1.2.7-2 .3-1.9-.7-2 1.1-.2 2.5 1 .8 1.9.8 3.3-.2 1-.7 3.3-1.8 4.9-2.4l3-1-4.2-.1c-2.3-.1-4.4.3-4.8.9M0 75.4C0 84.5.2 92 .4 92s1.8-2.1 3.5-4.8c7.1-11 10-14.4 17.5-20.3l4.8-3.9-3.6-1.5c-1.9-.8-5.4-1.5-7.8-1.5h-4.2l3.9 4.1 4 4-7-3.2c-3.8-1.8-8-3.9-9.2-4.7L0 58.8zm37.5 80.5-7 .6 12.5 6.6c45.5 24.2 55.4 28.4 69.5 29.5l7 .5-5.1-4.9c-6.4-6-20-15.1-31.3-20.8-10.8-5.3-31.3-12.5-35.5-12.2-1.7.1-6.2.4-10.1.7m76 44.2c.9 1.3 16.3 8.9 18.3 8.9 1 0 .7-.8-.8-3-1.5-2.1-3.6-3.4-7.3-4.4-9.1-2.5-10.9-2.8-10.2-1.5m34.7 6.5c.5 2.8 5.8 3.6 16.4 2.5 8.9-.9 11.4-1.5 10.3-2.5-.2-.2-6.4-.7-13.7-1.1-12.5-.6-13.4-.6-13 1.1m337 56.6c-2.5 1 4.5.9 9.3-.2 3.8-.8 3.7-.8-1.8-.7-3.2.1-6.5.5-7.5.9m17.3 5.1c-2.7.5-5.4 1.6-6 2.4s-3.9 1.6-7.7 2c-7.8.7-8.1 2.3-.5 2.4 2.9 0 7.4.8 10.2 1.8l5 1.8-5.9 1.8c-3.3 1-5.3 2.1-4.5 2.3 3.8 1 13.9 6.7 13.9 7.8 0 .7.6 1.5 1.3 1.8 1.3.6-8-.2-12.7-1.1-2.8-.5-2.9-.5-1 1.4 1 1.1 3.9 2.9 6.4 4.1 4.5 2.1 8.3 6.2 5.8 6.2-.6 0-.3.6.7 1.4 2 1.4-.9 1.1-14.5-1.6-4.4-.8-21.7-1.4-24-.8-1.3.4 3.9 1.9 6.7 1.9 3.3.1 7.6 1.6 10.3 3.6.8.6 3.3 1.7 5.5 2.4 5.6 1.9 10.5 5 10.5 6.7 0 1.8-1 1.8-10-.6-8.5-2.2-9.3-2.3-8.6-1.1.3.4 3.3 1.8 6.7 3 13.1 4.8 17.3 9.5 7.7 8.5l-5.3-.6 5.9 3.4c3.2 1.9 6.3 4.3 6.7 5.5l.8 2.2-5.2-1.9c-2.9-1-10.6-3.9-17.1-6.4s-12.4-4.6-13-4.6c-2 0 5.9 4.6 13.7 8 10.9 4.6 17.5 8.9 15.6 10.1-1.2.7-1.2.9 0 .9.8 0 1.2.3.9.6s-3-.4-6-1.6c-9-3.7-9.9-4-10.8-4-.6 0-1 .5-1 1.1 0 .5.6.7 1.3.4.6-.4.3.1-.7.9-2 1.6-4.4 1.4-10.1-.9-3.6-1.4-6.1-.9-4.6.9.7.9-1.4.6-6.5-.7-5.9-1.6-8-1.8-9.4-.9-1.3.7-2.9.8-5.1.2-4-1.2-4.9-.6-1.7 1.1 12.9 6.7 16.2 8.9 13.8 8.9-1.3 0-1.3.2 0 1 1.7 1.2 1.7 1.2-12.3-2-10.6-2.4-9.7-2.4-9.7-.2 0 3.2-.9 3.1-6.7-.4-4.5-2.7-6.8-3.4-10.7-3.4-5.5 0-5.3 1.1.7 3 2.1.6 5.5 2.7 7.5 4.6 2 2 4.9 4.1 6.3 4.9 3.1 1.7 4.8 5.9 2.1 5.1-2.8-.8-17-3.6-18.4-3.6-2.3 0 2.1 3.3 8 5.9 1.2.6 2.2 1.6 2.2 2.3s1.9 2.2 4.2 3.3c6.3 3 13.1 7.5 12.4 8.2-.3.3-.1 1.2.4 1.9.9.9.3.9-2.7-.1-8.3-2.7-9.1-2.7-8.5 0 .5 3 .5 3-4.4.9-2.2-.9-7-2-10.8-2.5s-8.2-1.6-9.9-2.4c-3.3-1.6-4.5-1.3-3.1.8.5.7.2.5-.7-.4-.8-.9-3-2.4-4.9-3.4-4.6-2.4-16.2-5.5-15.7-4.2.2.6 7.7 4.3 16.8 8.4l16.4 7.3H512V267l-2.2.1c-1.3.1-4.5.6-7.3 1.2M142 309.9c0 2.3-6.5 18.9-8.3 21-.7.9-1.8 2.8-2.5 4.3-.6 1.6-1.8 2.8-2.7 2.8-1.9 0-1.9 2.4 0 4 1.3 1 1.2 1.7-.8 5.1-1.8 3.2-2.9 4-6 4.5-3.6.6-3.7.8-2.1 2.5 2.7 3 .8 4.2-5.8 3.5-6.7-.7-14.1.2-13.2 1.5.3.5-.5.9-1.8 1-1.3 0-3.2.3-4.3.6-2.5.6-12.5.5-18.7-.3-2.9-.4-4.8-.2-4.8.4 0 .5 1.6 4.5 3.7 8.7 3.5 7.5 3.6 7.8 2 10.5-1 1.5-1.7 3.1-1.7 3.4s71.1.6 158 .6 158-.4 158-.8c0-2.4-8.5-8.3-17.5-12.2-5.5-2.3-11.9-5.1-14.2-6.1-4.4-2-6.3-2.4-25.3-5.9-6.3-1.2-16-3.4-21.5-5s-14.3-3.3-19.5-4c-23.7-2.8-61-9.7-81.5-15-15.2-3.9-38.7-12-46.7-16.1-2.4-1.2-8.5-4.1-13.5-6.5-7.9-3.7-9.3-4-9.3-2.5M0 367.5V384h29.3c25.3-.1 29-.3 27.3-1.5-4.4-3.3-10.1-9.1-14.7-15-6.8-8.7-11-10.9-23.4-12.5-5.5-.7-11.2-1.8-12.7-2.6-5.8-3-5.8-2.9-5.8 15.1M354.5 355c1.1.5 3.4.9 5 .9 2.6 0 2.7-.2 1-.9-1.1-.5-3.3-.9-5-.9-2.6 0-2.7.2-1 .9m38.4 25.9c.8 1.4.8 2.1-.2 2.4-.6.3 1.3.5 4.3.5s4.8-.2 4-.5-3.2-1.4-5.3-2.5c-3.8-1.9-3.8-1.9-2.8.1"/></svg>