<svg xmlns="http://www.w3.org/2000/svg" width="682.667" height="512" version="1.0" viewBox="0 0 512 384"><path d="M278.2 25.4c-5.1 5.1-9.2 10-9.2 10.8s1.1 4.7 2.4 8.6l2.5 7.2-7.7 6.4c-11.4 9.5-15.4 15.8-19.1 30.5-2.6 10.5-2.6 15.2-.1 22.6 1.1 3.2 2 7.2 2.1 8.9.1 3 .1 3 1.4-.9l1.2-4 1.2 5.5c.7 3 2.1 7.1 3.1 9l1.9 3.5.1-3v-3l1.9 3.1c1.1 1.8 2.5 3.5 3.2 3.9.8.6 1 .4.4-.6-.7-1.1-.6-1.2.7-.2.8.7 1.8 1 2.2.6.3-.4 1.3.2 2 1.3 2.1 2.8 3.1 1 1.1-2-.9-1.4-1.5-3.1-1.3-3.7.4-1.3 7.8 8.4 7.8 10.3 0 .7-1.2 2.9-2.6 5-3.2 4.5-2.4 6.1 3.7 8 2.7.8 4.1 1.8 4.5 3.4.3 1.2 3 4.2 6 6.6 3 2.3 5.4 4.5 5.4 4.8s1.2 1.8 2.6 3.4c2 2 3.3 2.7 5.1 2.3 1.9-.3 2.7 0 3 1.4 1 3.8 2.9 1.5 2.4-2.9-.3-2.2.9-1.3 2.1 1.5 1 2.5 1.2 2.6 1.5.8 1.3-7 1.3-6.9 2.8-4.9 1.2 1.5 1.6 1.6 2.3.6s1.1-.5 1.6 1.8c1.2 6.3.8 7.2-8.9 16.7-7.9 7.7-10.1 9.3-12.7 9.3-4 0-9.5 5.6-10.4 10.8-.4 2.1-2 5.2-3.9 7.2-5.4 5.8-7 10.9-5.5 17.6.7 2.8.5 4.5-.5 6-.7 1.1-1.8 3.6-2.3 5.5-.6 1.9-2.2 6.3-3.5 9.9-1.4 3.6-2.8 8.8-3.2 11.5-.4 2.8-1 5.4-1.3 5.9-.2.5-4.2-6.5-8.8-15.5-5.7-11.1-9.2-19.4-10.9-25.7-1.4-5.2-4-12.5-5.8-16.2l-3.3-6.8 6.1-1.2c9.1-1.9 30.6-6.9 34.3-8.1 1.7-.6 3.2-1.5 3.2-2.1 0-1.2-6.2-.7-30.8 2.3l-16.4 2.1-6.1-3c-8.7-4.2-11.8-4.7-14.8-2.3-1.3 1-4.1 2.6-6.2 3.4-2 .9-4.2 2.7-4.9 4.1-.7 1.7-2.4 3-4.7 3.6-4.3 1.2-3.3 2.5-15.3-17.8-6.6-11.2-9.4-15-10.3-14.2-.7.6-1.5.6-2.2-.1-.8-.8-1.7-.8-3.1 0-1 .6-2.2.8-2.5.5s-1.4-.1-2.5.5c-1.3.7-2.2.7-3-.1s-2.2 0-5.2 2.9c-2.2 2.2-4 4.6-4 5.2s5 9.2 11 19c10.2 16.7 11 18.3 10.4 21.8-.4 2.9.1 5.5 2.1 10.6 1.5 3.7 2.4 7.4 2.1 8.3-.8 2 2.6 13.2 6.2 20.4 2.5 5 3.1 5.5 7.4 6.6 2.6.6 6.4 2.2 8.4 3.5 2.1 1.3 10.3 5.8 18.3 9.9s14.8 8.2 15.2 9 1.5 3.7 2.5 6.5c1.4 4.2 4.2 7.5 17.6 20.7l16 15.8-1.3 5.7c-.8 3.7-2.2 6.9-4 8.8-5.3 5.7-6.4 13.6-2.9 20.5 1.1 2.2 2 5.9 2 8.5v4.5h136v-2.5c0-5.7-9.7-19.5-14.7-20.9-3.7-1.1-3.5-.4-6.4-19.6-1.3-8.3-2.3-21.2-2.6-33.5l-.6-19.9-2.8-2.9c-2.4-2.3-3.2-2.6-4.9-1.7-1.9 1-2 .9-1.4-1.7 1.4-6.7 1.2-6.4 4.7-4.3 2.6 1.6 5 2 12.3 2 5 0 9.4-.3 9.7-.7.4-.3 0-1.5-1-2.5-1.5-1.7-1.3-1.8 6-1.8 7 0 9.3-.9 6.7-2.5-2.4-1.5-.5-2.3 7.1-2.9 6.6-.6 7.8-1 6.9-2.1-.8-1-.7-2.6.5-6.2 2.7-7.9 5.5-8.1 5.5-.3 0 5.1 1.4 7.4 2.5 4 .3-1.1 1.1-2 1.6-2 1.3 0 1.1 4.2-.5 8.6-1.4 4.1-4 21.3-3.3 22 .2.3 2.8-2.7 5.7-6.6s5.4-7 5.5-6.8c.2.2-.3 3.2-1 6.8-1.5 6.9-3.2 26.9-2.2 26 .3-.3 1.3-1.9 2.1-3.5 1.5-2.9 1.6-2.4 1.6 9.2 0 6.7.4 12.4.9 12.7.5.4 2.8-2 5.1-5.1 2.3-3.2 3.9-4.9 3.6-3.8-1 3.6-3.6 20.9-3.2 21.3.7.7 4.8-2 9.1-5.9l4.2-3.9-2.3 10.2c-1.3 5.6-2.1 10.5-1.8 10.8s1.7-.8 3-2.5l2.4-3-.6 5.5-.5 5.5 2.5-3c2.2-2.6 2.6-2.7 2.6-1 0 3 1.5.6 3.5-5.3 1.5-4.6 6.2-14.2 7-14.2.1 0-.6 3-1.7 6.8-2.2 7.8-5.8 28-5.8 32.4 0 2.6.2 2.9 1.5 1.8 1.9-1.6 1.9-.3 0 3-.8 1.4-1.4 2.8-1.5 3.2 0 .5 9.4.8 20.9.8h20.9l.7-6.8c1.1-11.6 2.6-20.7 3.5-21.6 1.3-1.3 1.3 4.5 0 9.8-.5 2.1-1.2 7.2-1.5 11.3l-.7 7.3h9.2l-.2-89.6-.3-89.7-3.5-1.2c-4.5-1.6-21.7-11.5-30-17.3-17.4-12.3-33.5-28.6-45.2-46l-5.1-7.5-2.1 5.6c-1.2 3.1-3.3 6.8-4.7 8.1s-4 4.7-5.9 7.7c-3.4 5.5-20 25.9-27.4 33.7-2.3 2.4-6.6 6.3-9.6 8.7l-5.6 4.3-2.3-1.9c-2.3-1.8-2.4-2.8-2.9-14.5l-.5-12.6 2.3 1.2c1.8 1 2.4.9 3.1-.1.6-1.1 1.1-1 2.3.6.9 1.1 1.6 2.8 1.6 3.7s.4 1.9.9 2.2c1.5 1 2.1-5.1 1-11-.6-3.1-.8-5.8-.6-6.1.6-.5 2.7 8.8 2.7 11.8 0 1.1.5 1.7 1 1.4.6-.4 1-5.8 1-12.8.1-12.1.1-12.2 2-9.9 1 1.2 2.2 4.7 2.5 7.7.8 5.9 1.9 7 2.9 2.9.5-1.8 1.1-2.4 2.3-2 1.2.5 1.3.2.8-1.1-.4-1-1-3-1.2-4.5-.4-2.3-.2-2.6 1.6-2.1 2.5.6 2.6 0 .6-3.1-1.5-2.3-1.9-10.6-.5-10.6.3 0 1.5.7 2.6 1.5 3.5 2.7 3.6 1.5.1-3.3-1.9-2.6-4-5.8-4.7-7.2-1-2-.4-1.7 2.9 1.5l4.2 4-4.1-7.9c-2.2-4.4-5.2-9.4-6.5-11.2-3.3-4.3-3.9-6.1-7.5-21.7-1.7-7.3-3.9-15.6-5-18.6-2.1-5.3-9.4-17.1-10.8-17.1-.4-.1-4.7-3.8-9.5-8.5-9.1-8.6-17.3-13.7-24.2-14.9-9.3-1.6-10.4-2.3-12-8.1-.9-2.9-2.4-6-3.3-6.8-2.2-2-17.2-5.7-23.3-5.7-4.4 0-4.8.2-13.7 9.4m37.5 141.8c-.3.8-.6.5-.6-.6-.1-1.1.2-1.7.5-1.3.3.3.4 1.2.1 1.9m46 21.8.3 7.5-1.8-5c-1-2.8-2.5-6.1-3.4-7.4-1.6-2.3-1.6-2.6 0-5.3l1.6-2.8 1.5 2.7c.8 1.6 1.6 6.2 1.8 10.3M208 230c.6 1 3.3 4.5 6.1 7.7s5.8 7.1 6.6 8.8c1.2 2.3 0 1.5-5.2-3.5-3.7-3.6-8-8.4-9.6-10.8-2.8-3.9-2.9-4.2-1-4.2 1.1 0 2.5.9 3.1 2m202 33c0 .5-.7.7-1.5.4-.8-.4-1.5-.8-1.5-1s.7-.4 1.5-.4 1.5.4 1.5 1m-49.2 37.2c1.7 7 3.4 25.7 3 33.8l-.3 7.5-3.9-9.8-4-9.8 1.3-11.2c.7-6.2 1.3-12.2 1.3-13.4 0-3.5 1.4-1.9 2.6 2.9"/></svg>