<svg xmlns="http://www.w3.org/2000/svg" width="682.667" height="512" version="1.0" viewBox="0 0 512 384"><path d="M278.3 24.7c-6.5 6.2-9.3 9.6-9.3 11.3 0 1.2.9 5.5 2.1 9.4l2.1 7-3.8 3.4c-14.3 12.4-17.8 17.5-21.4 30.6-2.6 9.3-2.8 20.2-.6 26.5.9 2.4 1.6 5.2 1.6 6.2 0 1.1.5 1.9 1 1.9 1 0 1.4-1.3 1.1-4-.2-1.3-.1-1.3.8 0 .6.8 1.1 2.2 1.1 3.2 0 2.3 4.1 12.8 5 12.8.4 0 .5-1.2.3-2.8-.5-2.6-.4-2.5 2.1 1s4.7 5.4 3 2.5c-.6-.9-.5-.9.8 0 .8.7 1.8 1 2.2.5.4-.4 1.2.1 1.7 1.1.6.9 1.7 1.7 2.5 1.7 1.1 0 1-.6-.7-2.9-4-5.5-1.4-5.1 2.9.4 4.6 6 4.6 7.1-.1 12.2-2.5 2.8-1.2 4.8 4.6 6.5 3 .9 4.3 2 5.4 4.5.7 1.9 2.1 3.7 3.1 4 .9.4 4.3 3.3 7.4 6.5 4 4.1 6.4 5.8 8.2 5.8 1.6 0 2.6.6 2.6 1.5 0 2.8 1.7 1.5 2.5-1.8.6-3.1.7-3.1 1.7-1 1.5 3.2 2.8 2.9 2.8-.6 0-3.7 1.6-4.9 2.6-1.9.7 2.3.7 2.3 1.9-.6 1.1-2.7 1.2-2.6 1.8 3.4l.7 6.2-9.8 9.4c-7.9 7.6-10.3 9.3-12.8 9.4-4.2 0-8 4-9.8 10.1-.8 2.7-2.7 6.1-4.1 7.6-5.8 6.2-7.9 13.6-5.5 19.9.9 2.3.6 3.6-1.9 8.3-3.4 6.6-8.1 21-8.1 25.2 0 1.6-.4 2.9-.8 2.9-.5 0-4.2-6.5-8.4-14.4-5.4-10.1-8.4-17.3-10.2-24-1.4-5.2-3.9-12.2-5.6-15.5-1.6-3.3-3-6.5-3-7s2.6-1.5 5.8-2.1c14.6-3 35.2-8.2 36.8-9.5 1.8-1.3 1.7-1.4-1.1-1.5-1.6 0-12.6 1.2-24.3 2.6l-21.2 2.7-5.5-2.8c-7.5-3.7-13.9-4.4-16.8-1.8-1.2 1.1-3.5 2.5-5.2 3-1.6.5-3.6 2.2-4.5 3.7-1.4 2.7-9.2 6.5-9.8 4.8-.1-.4-4.9-8.4-10.5-17.7l-10.3-17-5-.1c-2.7 0-5.6.3-6.5.7-.9.5-2.1.3-2.8-.4-.9-.9-2.2-.1-5.7 3.5l-4.6 4.6 4.8 7.8c2.6 4.4 7.9 13 11.7 19.2 4.7 7.8 6.6 11.9 6.1 13-1.1 2.7-.4 7.3 2 12.8 1.4 2.9 2.1 6.2 1.9 8-.6 4.6 5.4 21.9 8.7 24.5 1 .9 3.6 2 5.7 2.4s6.3 2.2 9.3 4.1c3 1.8 11.1 6.2 18 9.6 8.9 4.5 12.8 7 13.6 8.8 4.9 11 6.3 12.7 21.3 27l15.4 14.9-1.2 5.8c-.9 3.8-2.3 6.8-4.1 8.8-5.4 5.6-6.6 14.3-3 20.3 1.3 2.1 2 5 2 8.2v5h135v-3.9c0-6.5-10.2-20.1-15.1-20.1-1.9 0-2.1-.6-4.4-15-3.4-22.4-4.7-36.6-4-45.6.5-7.4.4-9.8-.9-12.3-1.9-3.5-4.7-5.4-7.1-4.5-1.3.5-1.5.2-1-1.7.3-1.3.7-3.4.8-4.6l.1-2.1 3.1 2.1c2.3 1.7 4.8 2.3 10.8 2.6 4.2.2 8.9 0 10.3-.3 2.5-.7 2.6-.8.9-2.6-1.8-2-1.7-2 5.9-2 7.3 0 7.6-.1 6.6-1.9-.5-1.1-1-2.2-1-2.4 0-.3 3.4-.8 7.5-1.2 6.7-.7 9.3-1.7 6.5-2.7-1.3-.4 2.2-9.7 4.1-10.8 2-1.3 2.9.7 2.9 7 .1 5.4.1 5.5 1.6 2.7.8-1.5 1.9-2.7 2.4-2.7 1.5 0 1.2 4.3-.4 7.6-1.6 3.1-4 18.1-3.4 20.8.2 1.2 1.7-.2 4.7-4.3 5-7 8-9.9 6.7-6.6-1.2 3.1-3.4 16.2-4.1 25-.6 8.3-.5 8.4 3.2 2.8 1.1-1.5 1.2-.7 1.1 4.7-.4 11.4.1 19.2 1.2 18.5.6-.4 2.6-3 4.5-5.8 4-5.9 4-6 2 4.8-1.6 9.1-1.9 13.5-.7 13.5.4 0 3.4-2.3 6.6-5.1 4.8-4.4 5.6-4.8 5.2-2.8-4.7 19.9-4.7 20.7-.5 15.9 2.1-2.5 2.9-2.9 2.5-1.5-.3 1.1-.8 3.8-1.1 6l-.6 4 3-3.5c3-3.4 3.1-3.4 3.2-1 0 1.6.9.1 2.3-4 3.1-8.6 8.9-19.1 7.2-13-.3 1.4-1.3 5-2.1 8-1.8 6.6-5.5 27.7-5.5 31.1.1 2.3.1 2.3 1.5.5 1.9-2.5 1.9-1.5.1 2.9l-1.5 3.5H480c20.9 0 21 0 21.4-2.3.2-1.2.9-7.1 1.6-13 1.3-12.4 1.9-15.1 3.1-12.1.4 1.1.1 5.3-.7 9.4-.7 4.1-1.3 9.9-1.3 12.7l-.1 5.3h8V205.3l-7.2-3.6c-29.1-14.8-54.2-36.5-71.2-61.5l-5-7.2-1.8 4.7c-.9 2.5-3.1 6.1-4.9 7.9-1.7 1.7-4.8 5.9-6.8 9.3-8.6 13.9-37.5 45.1-41.8 45.1-.5 0-1.9-1-3-2.3-1.9-1.9-2.2-3.6-2.3-13.2-.3-13.5-.4-12.8 2-11.5 1.6.9 2 .8 2-.5 0-2.7 2.4-1.1 3.5 2.3 1.4 4.1 2.5 5.1 2.5 2.3 0-1.4.4-2 1.2-1.5s.9-.2.5-2.4c-1.5-7.3-1.8-9.8-.8-7.7.5 1.1 1.3 3.8 1.7 6l.7 4 .9-3c.5-1.7.6-7.2.3-12.3-.3-5-.3-9.2.2-9.2 1.6 0 3.7 4.6 4.8 10.5l1.2 6 .8-3.8c.6-3 1-3.5 2.1-2.6 1.8 1.5 1.8 0 .2-3.7-1.1-2.3-1-2.8.7-4 1.5-1.1 1.6-1.8.8-3.6-.5-1.3-.8-4.2-.5-6.5.4-4.1.5-4.2 2.5-2.8 3.8 2.7 3.9 1.6.4-3.3-5.3-7.3-6.6-10.5-2.3-5.8 2 2.2 3.6 3.7 3.6 3.4 0-1.4-5.9-12.8-9.2-17.8-2.1-3-4.2-7.5-4.8-10-8.8-37-9.7-38.8-26.5-54.1-11.7-10.7-19-15.1-28-16.9-8.3-1.7-8.9-2.1-10.8-8.3-1-3-2.3-5.9-3-6.5-1.9-1.6-13.4-4.3-20.6-4.9l-6.6-.5zm82.2 153.9c.9 2.1 1.5 6.5 1.4 10.3v6.6l-1.3-4c-.7-2.2-2-5.5-3-7.3-1.5-2.9-1.5-3.7-.4-6.3.7-1.6 1.4-2.9 1.5-2.9.2 0 1 1.6 1.8 3.6m-149.9 54.1c1 1.6 4.2 5.6 7.1 9.1 2.9 3.4 5.3 6.8 5.3 7.5-.1 1.4-18-16.7-18-18.2 0-2.2 3.8-1 5.6 1.6M411 263c0 .5-.4 1-.9 1-.6 0-1.3-.5-1.6-1-.3-.6.1-1 .9-1 .9 0 1.6.4 1.6 1m-47.5 49.1c.9 6.8 1.5 16.2 1.3 20.9l-.3 8.5-3.9-9.9-3.9-9.9 1.1-11.6c.7-6.4 1.3-12.7 1.3-14.1.1-5.8 2.9 4.1 4.4 16.1"/></svg>