<svg xmlns="http://www.w3.org/2000/svg" width="682.667" height="512" version="1.0" viewBox="0 0 512 384"><path d="M274.6 25.9c-5.3 5.4-9.6 10.5-9.6 11.3s1.1 4.8 2.5 8.8l2.5 7.4-8.6 8.4c-6.6 6.4-9.2 9.7-11.5 14.7-5.9 13-7.4 27.8-3.9 38 1.1 3.2 2 7 2 8.4 0 2 .2 2.3 1 1.1.5-.8 1-2.6 1.1-4 0-1.8.4-1.2 1.3 2 2.5 9 7.9 18.8 6.2 11.2l-.6-2.7 2.4 2.9c2.6 3.1 5.6 4.3 5.6 2.3.1-.7.6-.5 1.3.4 1.2 1.6 4.7 3.3 4.7 2.3 0-.4-1.1-2-2.5-3.6-1.4-1.7-2.3-3.3-2-3.6s1.3.5 2.2 1.9c1 1.3 3 3.7 4.7 5.4l2.9 3-2.7 4.8c-3.1 5.6-2.5 7.2 3.1 8.3 2.6.5 4.1 1.6 5.5 4 1.1 1.9 2.3 3.4 2.8 3.4 1.3 0 12 9.9 12 11.1 0 .4 1.4 1.2 3 1.8 1.7.5 3 1.5 3 2.1s.5.8 1 .5c.6-.3 1-1.5 1-2.6 0-2.3 1.3-2.5 3-.4 1.6 1.9 3 1 3-1.9 0-3.3 1.2-4 2.7-1.4l1.2 2.3.1-2.5c.1-2.3.2-2.3 1-.5.5 1.1.9 3.6.9 5.5.1 3.2-.9 4.5-9.2 12.8-7.7 7.7-9.8 9.2-12.4 9.2-4.2 0-8.7 4.6-10.1 10.3-.7 2.4-1.9 5-2.9 5.8-.9.8-2.9 3.4-4.5 5.8-2.2 3.6-2.8 5.6-2.8 10 0 3.1.4 6.2.9 7 .7 1 0 3.3-2 7.2-4 7.9-7.9 20-7.9 24.3 0 2-.3 3.6-.7 3.6-.5 0-4.2-6.4-8.4-14.3-5.4-10.1-8.2-16.7-9.7-22.8-1.2-4.7-3.5-11.6-5.2-15.4-1.7-3.7-2.9-6.9-2.7-7.1s6.9-1.7 15-3.4c38.5-7.8 38-10.2-1.1-5.9-18.1 2.1-19.3 2.1-21.1.5-2.3-2.1-11.3-5.6-14.3-5.6-1.2 0-3 .8-4 1.7-1.1 1-3.4 2.2-5.1 2.8-1.8.5-4.1 2.4-5.2 4.2s-2.7 3.2-3.6 3.3c-.8 0-2.4.7-3.5 1.5-1 .8-2.4 1.5-3 1.5s-5.9-8.2-11.8-18.3l-10.7-18.3-4 .2c-2.1.1-4.2-.2-4.5-.7s-1.3-.5-2.3.1c-1.2.6-2.2.5-2.9-.2-.8-.8-2.3.2-5.6 3.6-2.6 2.6-4.6 5-4.6 5.4s5.2 9.2 11.5 19.7c6.2 10.4 11 19.1 10.4 19.3-1.7.7-.9 7.7 1.6 12.9 1.7 3.8 2.2 6.2 1.8 8.8-.6 3.7 4.6 20.4 7.5 23.7.8 1 3.8 2.4 6.7 3.2 2.8.9 6.3 2.4 7.6 3.4 1.3 1.1 2.9 2.1 3.4 2.3.6.2 7.3 3.7 15.1 7.6l14.1 7.3 2.7 6.4c2.8 6.5 8.1 12.3 27.6 30.2 4.1 3.8 7.6 7.2 7.8 7.5.7 1.6-2.8 12.3-4.3 13.1-2.5 1.5-5.5 8.4-5.5 13 0 2.5.8 5.6 2 7.6 1.3 2.1 2 5 2 8.2v5h135v-3.9c0-6.5-10.2-20.1-15-20.1-1.4 0-2.1-1.8-3.4-9.8-4.1-24-5.7-41.3-5-52.4l.7-9.7-3.1-3.1c-2.7-2.6-3.5-2.9-5.2-2-1.9 1-2 .9-1.4-3.2.4-2.4.8-4.4.9-4.6.2-.2 2 .6 4.1 1.7 3 1.6 5.7 2.1 12.1 2.1 8.3 0 10.5-.9 8.3-3.5-1.1-1.3-.2-1.5 6.4-1.5 7.3 0 7.6-.1 6.6-1.9-.5-1.1-1-2.2-1-2.4 0-.3 3.4-.8 7.5-1.2 6.8-.6 9.4-1.7 6.3-2.7-.8-.3-.6-1.8.7-5.4 2.8-7.4 5.4-8.7 5.6-2.7.1 2.1.4 4.9.8 6.3l.7 2.4 1.8-2.4 1.8-2.5-.5 4c-.3 2.2-1.2 6.9-2 10.5s-1.8 9-2.1 12c-.6 5.4-.6 5.5 1.1 3.1 4.6-6.4 11.5-14.4 10.9-12.6-1.4 3.6-3.4 14.9-4.1 22-.3 3.8-.8 8-1.1 9.2-.6 3.2 1 2.9 2.7-.5 1.3-2.5 1.4-1.7 1.9 10.3l.5 13 4.4-6.2c2.5-3.5 4.6-6.2 4.7-6 .1.1-.3 3.1-1.1 6.7-1.7 8.7-2.4 16-1.5 16 1.1 0 8.2-5.8 10.8-8.8 1.9-2.2 2.2-2.3 1.8-.7-1.1 4.2-4.6 19.6-4.6 20.2 0 .4 1.4-.6 3.1-2.3l3.1-2.9-.7 3.5c-1.9 9.4-1.9 8.9.9 5.5 1.4-1.7 2.6-3.5 2.7-4 .1-.6.4.3.8 2 .7 2.9.8 2.7 2.5-2.8.9-3.2 3.3-8.6 5.2-12 2-3.4 3.4-5.5 3.1-4.6-2.8 8.8-8.7 37.6-8.7 42.4 0 .5.9 0 2-1 2-1.8 2-1.8.5 1.8-.8 2-1.5 3.9-1.5 4.2s9.4.5 20.9.5h20.9l.7-6.8c1.1-11.6 2.6-20.7 3.5-21.6 1.4-1.4 1.2 4.5-.5 13.9-.8 4.4-1.4 9.5-1.5 11.2 0 3.2.1 3.3 4.5 3.3h4.5v-89.5c0-50.7-.4-89.5-.9-89.5-1.6 0-17.6-9.2-28.6-16.5-19.8-13.1-33.9-26.9-47.8-46.7l-6.1-8.8-1.8 4.7c-.9 2.6-3.3 6.3-5.1 8.2-1.9 2-5.2 6.4-7.3 9.8-5.7 9-28 34.8-34.1 39.4-7 5.2-7.5 5.4-10.1 2.6-2-2.1-2.3-3.9-2.9-14-.6-11.5-.6-11.7 1.5-11.7 1.4 0 2.2-.6 2.2-1.6 0-3 2.9.5 4.2 5 1.1 3.9 1.2 3.9 1.6 1.3.2-2 .8-2.7 1.8-2.3 2.1.8 2.5-.9 3.2-13.6l.7-11.3 2.3 3.6c1.2 2 2.2 5 2.2 6.7 0 3.9 1.7 5.1 2.6 1.7.5-2.2.9-2.4 2.2-1.3s1.4 1 .4-.9c-1.3-2.4-1.6-6.6-.5-7.7.4-.4.6-3.6.4-7.2-.1-3.5 0-6.4.3-6.4.4 0 1.8.7 3.1 1.6 3.3 2.1 3.1 1.5-.6-3.2-5.4-6.8-6.4-10-1.4-4.7 1.4 1.5 2.5 2.3 2.5 1.8 0-1.5-7.9-15.7-10-18-2.9-3.3-3.8-5.6-7-19.1-5.5-22.3-9.5-30.4-19.8-39.3-3.1-2.7-8.3-7.2-11.5-9.9-5.6-4.9-15.2-10.2-19.2-10.7-4.5-.6-10.1-1.8-11.5-2.6-.9-.4-2.4-3.3-3.3-6.3-1-3.1-2.6-6-3.5-6.5-2-1-14.8-3.8-21.3-4.5l-4.6-.5zm105.1 145.3c-.3.8-.6.5-.6-.6-.1-1.1.2-1.7.5-1.3.3.3.4 1.2.1 1.9m-19.4 8.3c1.1 2.3 1.7 5.9 1.6 9.8l-.1 6.2-1.6-4.5c-.9-2.5-2.5-6.1-3.6-8-1.2-2.3-1.5-3.5-.7-3.8.6-.2 1.1-1 1.1-1.8 0-2.5 1.6-1.5 3.3 2.1M211.5 234c.8 1.6 3.5 5.2 6 8 4.2 4.8 8.2 11 7 11-1 0-20.5-20-20.5-21 0-.6 1.3-1 3-1 2.3 0 3.3.7 4.5 3m199 29.8c-.8.8-2.5-1-1.9-2q.6-.9 1.5.3c.4.7.6 1.5.4 1.7m-48.7 36c1.7 7.8 3.4 27.2 3 34.7l-.3 7-3.9-10-3.9-10 1.1-11.5c.7-6.3 1.2-12.5 1.2-13.8 0-3.8 1.8-1.5 2.8 3.6"/></svg>