<svg xmlns="http://www.w3.org/2000/svg" width="682.667" height="512" version="1.0" viewBox="0 0 512 384"><path d="M271.2 23.2c-5.4 5.7-10.8 12.3-12.3 15-.6 1.1.1 4.1 2.2 9.7l3.1 8.1-3.8 4.3c-2.1 2.3-5.3 5.8-7.1 7.7-3.9 4-8.7 13.5-10.2 20-1.7 7.8-2.3 19.3-1.2 23.5 3.7 14.3 5.7 18.8 5.1 11.5-.3-3.7 1.3-1.3 3.4 5 1 3.1 2.7 6.7 3.8 8l2 2.5-.6-2.5c-.5-2.3-.3-2.3 2.2.8 2.2 2.7 3 3.1 4.1 2 1.1-1 1.4-1 1.8-.1.3.7 1.1 1.3 1.9 1.3s2.4.5 3.7 1.2c1.2.6 2.9 1.4 3.7 1.8 1.9 1 1.5 3.7-1.2 7.4l-2.1 2.9 2.3 1.9c1.2 1 3.1 1.8 4.2 1.8 3.1 0 5.5 1.7 6.2 4.4.3 1.4 1.6 2.8 2.8 3.2 2.7.8 4.4 2.7 6.4 7.3 1.4 3 1.6 3.2 2.8 1.6 1.1-1.6 1.5-1.3 3.3 2.5 2 4 2.2 4.1 3.3 2.1.6-1.2 1.5-1.9 2.1-1.6.5.4 1.2-.1 1.5-.9.9-2.3 3.4-2 3.4.3 0 4.1 1.8 2.9 2.5-1.7l.8-4.7 1.5 3.5c1.5 3.5 1.5 3.5 2.2 1 .6-2.2.7-2 1.2 1.4.4 3.9.3 4.1-9.1 13.3-7.3 7-10.3 9.2-12.4 9.3-1.8 0-4 1.3-6.7 4.1-2.1 2.2-4.4 3.8-4.9 3.5-.6-.4-11.3.1-23.9 1.1l-22.9 1.7-3.1-2.2c-6.9-5-14.6-6.7-17.8-4.1-.9.8-3.3 1.9-5.3 2.4-2.3.7-4.3 2.2-5.6 4.2-1.1 1.8-3.2 3.5-4.7 3.8-1.5.4-3 1.1-3.3 1.6-.4.5-1.9.9-3.5.9-2.6 0-3.5-1.3-12.9-18-7.3-12.9-10.6-17.8-11.6-17.4-.8.3-2.8-.1-4.4-.9-1.7-.8-3.9-1.3-5-1-1 .2-2.2 0-2.5-.6-.5-.7-2.7 1-5.6 4.1l-4.8 5.3 3.1 5.5c1.6 3 6.6 11.7 10.9 19.3 6.3 11.1 7.7 14.2 6.7 15.3-1.5 1.8-.6 7.7 2 13.4 1.2 2.8 1.7 5.5 1.4 7.6-.7 4.1 4.9 22.4 7.5 24.6.9.9 3.9 2.3 6.6 3.1 2.6.9 7.1 3.2 10 5 2.8 1.9 9.4 5.5 14.7 8 11.5 5.5 15.3 8.5 17.7 14.1 2.7 6 6.9 10.4 22.2 23.4 7.4 6.3 14 12 14.7 12.6 1.9 1.7-.4 9.5-3.8 13.1-5.1 5.5-6.2 11.7-3.2 18.3.9 2 1.9 5.9 2.2 8.7l.6 5 66.9.3c37.6.1 67.4-.2 67.9-.7 3-3-7.5-20-13.6-22l-3.5-1.2-2.1-13.7c-3.1-19.7-4.1-30-4.1-44.8 0-11.9-.2-13.4-2.1-15.9-1.7-2.1-2.8-2.6-5.1-2.3-2.9.5-2.9.5-2.2-3.6.3-2.3.7-4.2.8-4.3.1-.2 2 .6 4.1 1.7 3 1.5 5.9 2 12.2 2 8.3 0 10.5-.9 8.3-3.5-1.1-1.3-.2-1.5 5.9-1.5 3.9 0 7.1-.3 7.1-.6s-.4-1.3-1-2.3c-.9-1.7-.2-1.9 7.1-2.5 6.7-.6 7.8-1 6.9-2.1-1.9-2.3 2.4-12.5 5.2-12.5.4 0 .8 2.4.8 5.4 0 6.2 1.1 7.7 3.4 4.4l1.6-2.2v2.9c0 1.7-.7 4.8-1.4 7-1.6 4.5-4.1 20.3-3.4 21.1.3.2 1.8-1.5 3.3-3.8 1.6-2.4 4.1-5.6 5.7-7.3l2.9-3-.7 3c-.3 1.6-1 4.6-1.4 6.5-.5 1.9-1.1 6.4-1.5 10-.3 3.6-.8 8.2-1.1 10.3-.7 4.6.9 4.9 2.7.4 1.3-3 1.4-2.3 1.9 10.3l.5 13.5 4.4-6.3c2.4-3.4 4.5-6.1 4.7-6 .1.2-.4 3-1.1 6.3s-1.6 8.6-2 11.8c-.7 5.7-.6 5.8 1.5 4.7 1.1-.6 4.1-3 6.5-5.4 2.5-2.3 4.5-3.9 4.5-3.5s-.9 4.5-2 9.1c-2.7 11.2-2.6 11.7 1.2 8.2 2.2-2.1 2.9-2.4 2.5-1.1-.4 1-1 3.7-1.3 6l-.6 4.2 3.1-3.5c3-3.5 3-3.5 3.1-1 .1 1.7.9.3 2.5-4 2.2-6.3 7.5-16.5 7.5-14.5 0 .5-.7 3.2-1.5 6-1.7 5.5-6.5 30.4-6.5 33.7 0 2.1.1 2.1 2 .3 2-1.8 2-1.8.5 1.8-.8 2-1.5 3.9-1.5 4.2s9.4.5 20.9.5h20.9l.7-6.8c1.1-11.6 2.6-20.7 3.5-21.6 1.4-1.4 1.2 4.4-.5 14.9-2.3 13.7-2.3 13.5 3 13.5h4.5l-.1-89.3v-89.2l-6.8-3.3c-27.5-13.5-53.6-36-70.3-60.6l-6.1-8.9-1.8 4.8c-1 2.7-3.4 6.5-5.2 8.4-1.9 2-5.1 6.3-7.2 9.6-6.5 10.4-27.3 33.6-35.6 39.8-8 6-8.9 6.4-8.9 4.5 0-.6-1-2.2-2.2-3.6-2.1-2.1-2.3-3.6-2.7-14.4-.3-10.8-.1-12 1.3-11.5 1.2.5 1.6 0 1.6-2 0-2.1.2-2.4 1.5-1.3.8.7 2 3.1 2.7 5.4 1.1 3.7 1.2 3.9 1.6 1.4.3-2.4.6-2.6 2.7-1.8 2.3.9 2.4.7 3-4.5.4-3 .5-8.7.3-12.6l-.4-7.1 3.1 3.8c1.8 2.2 3.2 5.4 3.6 7.8l.5 4.1 1.4-3c1.4-3.1 1.5-4.1 2.6-16.7.6-7.2.7-7.7 2.5-6.7 2.6 1.3 2.4.3-.6-3.3-2.8-3.4-3.4-5.8-.8-3.7 1.5 1.2 1.6 1.2 1.1-.3-.4-.9-2.6-4.7-4.9-8.5-6.7-10.8-8.9-15.8-13-30-6.5-22.3-10.6-28.4-26.8-40.8-9.4-7.1-23.4-15-24.9-14.1-.9.5-12.3-1.7-14-2.8-.6-.3-1.8-2.8-2.7-5.5s-2.1-5.4-2.8-5.9c-1.8-1.5-16.2-4.2-22.2-4.2-5.1 0-5.5.2-10.3 5.2m.3 110.8c1 1.1 1.5 2 1.2 2-.4 0-1.6-.9-2.7-2s-1.6-2-1.2-2c.5 0 1.7.9 2.7 2m3.5 6.8c0 1.3-.3 1.2-1.5-.4-1.9-2.5-1.9-4 0-2.4.8.7 1.5 2 1.5 2.8m85 45.6v4.8l-3-5.8c-2-3.8-2.7-6-2-6.4.6-.4 1-1.1.9-1.6-.5-2.7.4-2.5 2.1.6 1.1 2 1.9 5.5 2 8.4m-75.5 22.8c-.7 2.4-1.1 3-6.2 9.8-4 5.2-5 9.9-3.4 16 1.1 4.2 1 5.1-.8 8.1-2.7 4.7-8.1 21-8.1 24.7 0 5.1-1.7 4.5-5.1-1.5-1.8-3.2-5.2-8.7-7.4-12.3-3-4.7-4.7-8.8-5.9-14.5-1.7-8.2-3.7-14.5-6.4-20.3-.8-1.8-1.3-3.4-1.1-3.5.2-.2 7.9-1.5 17.1-3.1 9.2-1.5 18.9-3.3 21.5-4 6.6-1.9 6.5-1.9 5.8.6m-87.1 12.1c.3 1.3 1.7 4.5 3.2 7 2.3 4.1 3 4.7 5.9 4.7 2.7 0 3.7.6 5.5 3.5 1.2 1.9 3.8 5.4 5.7 7.8 3.7 4.3 7.9 12.5 6.9 13.4-.2.3-5.5-4.7-11.6-11-14.6-15-22.2-27.6-16.9-27.7.4 0 .9 1 1.3 2.3M410 263c0 .5-.7.7-1.5.4-.8-.4-1.5-.8-1.5-1s.7-.4 1.5-.4 1.5.4 1.5 1m-47.5 40.1c1.5 7.3 3.3 37.9 2.3 37.9-.3 0-2.2-4.5-4.3-10l-3.8-10.1 1.2-11.2c.6-6.2 1.1-12.3 1.1-13.7 0-4.6 2-.5 3.5 7.1"/></svg>