<svg xmlns="http://www.w3.org/2000/svg" width="682.667" height="512" version="1.0" viewBox="0 0 512 384"><path d="M267 27.1c-4.4 5.1-8.3 10.2-8.6 11.6-.4 1.5.5 5.1 2.5 10l3.1 7.6-3.7 4.1c-2 2.3-4.2 4.4-4.9 4.9-3.1 1.8-8.9 11.5-11 18.3-2.8 8.8-4.1 23.1-2.5 28.9.5 2.2 1.5 6 2.2 8.5 1.9 7.3 2.2 7.7 2.8 3.5l.6-4 2.3 7c2.3 7 7 14.8 5.9 9.7-.7-2.9 0-2.8 2.5.3 2 2.5 5.6 3.6 4.2 1.2-.4-.6.3-.3 1.6.8s2 1.5 1.7.8c-.4-.6 1.2-.1 3.5 1.1 5.1 2.7 5.8 4.8 2.8 8.8-2.9 3.9-2.1 5.4 3.6 7 3.5 1 5.2 2.1 6.4 4.3.9 1.7 2.6 3.1 3.8 3.3 1.5.2 2.9 1.9 4.4 5.3 2.5 5.3 3.8 6.2 3.8 2.6l.1-2.2 1.9 2.4c1.1 1.3 2 3.1 2 4 0 2.9 1.1 3.2 3.1.8 1-1.2 1.8-1.8 1.9-1.3 0 .5.9.1 2-.9 1.9-1.7 2-1.7 3.1 1.1l1.2 2.9 1.2-4.5c1-4 1.2-4.2 1.9-2.2.6 1.9 1 2.1 2.2 1.1 1.2-.9 1.4-.6 1.4 2.3 0 3.1-1.1 4.6-9.2 12.6-7.1 7-9.9 9.2-12 9.2-2.7 0-9.8 5.9-9.8 8 0 .5-.7.7-1.5.3-.9-.3-11.8.3-24.4 1.2l-22.8 1.8-3.4-2.6c-1.9-1.4-5.8-3.3-8.7-4.2-5.4-1.8-6.1-1.7-11.2 1.4-.8.5-2.8 1.4-4.3 2s-3.6 2.4-4.5 4.1c-.9 1.6-2.4 3-3.2 3s-2.8.7-4.4 1.5c-5.3 2.8-5.8 2.3-14.3-12.8-4.5-7.8-8.9-15.9-9.9-18-1.3-2.8-2.3-3.7-3.6-3.4-1 .3-2.1.1-2.4-.4s-1-.6-1.6-.3c-.6.4-1.4.1-1.9-.7-.4-.7-2.4-1.4-4.3-1.5-2.9-.1-4.3.7-8.1 4.6l-4.7 4.8 11 19.3c8.4 14.8 10.8 19.7 10.1 21.1-1.5 2.7-1 7 1.2 11.8 1.4 2.9 2.1 6.3 2 9.6-.1 5.1 3.7 18.9 6.5 23.1.8 1.4 3.5 2.9 6.7 3.8 3 .9 6.9 2.7 8.8 4.1s9.1 5.4 16 9c12.6 6.4 17.9 10.3 17.9 13.2 0 1.9 6.4 10.6 9.9 13.4 1.6 1.3 8.7 7.4 15.9 13.6l13 11.2-1 4.3c-.6 2.3-2.3 5.5-3.9 7.2-5.3 5.7-6.2 12-2.9 19.4 1.1 2.4 2 5.6 2 7.1 0 6.5-5.4 6 68 6 42.5 0 67.1-.4 67.5-1 2.3-3.7-7.9-20-13.8-21.9l-3.5-1.2-2.1-13.7c-3.2-20.7-4.1-30.4-4.1-44.8 0-11.9-.2-13.4-2.1-15.9-1.7-2.1-2.8-2.6-5.1-2.3-2.9.5-2.9.5-2.2-3.6.3-2.3.7-4.2.8-4.3.1-.2 2 .6 4.1 1.7 3 1.5 5.9 2 12.2 2 8.3 0 10.5-.9 8.3-3.5-1.1-1.3-.2-1.5 5.9-1.5 3.9 0 7.1-.3 7.1-.6s-.4-1.3-1-2.3c-.9-1.7-.2-1.9 7.1-2.5 6.7-.6 7.8-1 6.9-2.1-1.9-2.3 2.4-12.5 5.2-12.5.4 0 .8 2.4.8 5.4 0 6.2 1.1 7.7 3.4 4.4l1.6-2.2v2.9c0 1.7-.7 4.8-1.4 7-1.6 4.5-4.1 20.3-3.4 21.1.3.2 1.7-1.3 3.1-3.3 1.4-2.1 4.2-5.6 6.1-7.8l3.5-4-1.4 4.6c-2.3 7.8-5 29.9-3.7 29.9.5 0 1.5-1.2 2.3-2.7 1.3-2.4 1.4-1.6 1.9 10.3l.5 12.9 4.4-6.2c2.5-3.5 4.6-6.2 4.7-6 .1.1-.4 2.9-1.1 6.2s-1.6 8.6-2 11.8c-.7 5.7-.6 5.8 1.5 4.7 1.1-.6 4.1-3 6.5-5.4 2.5-2.3 4.5-3.9 4.5-3.5 0 .5-.9 4.7-2 9.4-2.6 11.1-2.6 11.4 1.1 7.9 2.6-2.4 3-2.5 2.6-.9-.3 1.1-.9 3.8-1.2 6l-.6 4 2.9-3.5c3-3.4 3-3.4 3.4-1 .3 1.9.8 1.2 2.2-3.4 1.4-4.9 7.6-17.4 7.6-15.6 0 .3-1.1 4.8-2.4 10-3 11.8-6.1 30.8-5.2 31.7.3.4 1.3-.2 2.1-1.3 1.3-1.7 1.3-1.4 0 1.8-.8 2.1-1.5 4-1.5 4.3s9.4.5 20.9.5h21l.5-5.8c1.3-12.8 2.9-22.2 3.7-22.8 1.3-.8 1.1 6-.6 15.1-.8 4.4-1.4 9.2-1.5 10.7 0 2.6.2 2.8 4.5 2.8h4.5l-.1-89.3v-89.2l-6.8-3.3c-27.5-13.5-53.1-35.5-70.3-60.6l-6.1-8.9-1.8 4.8c-1 2.7-3.2 6.2-4.8 7.9-1.7 1.7-4.9 6.1-7.3 9.7-7.5 11.6-27.5 34-36.2 40.4-5.5 4.1-8.1 5.5-8.4 4.6-.2-.7-1.4-2.3-2.6-3.5-1.7-1.7-2.2-3.7-2.6-11.1-.7-11.9-.3-15.5 1.7-15.5 1.1 0 1.4-.7 1-2.6-.4-2.5-.4-2.5 1.3-.8.9 1.1 2.3 3.9 3 6.4 1.4 4.5 1.4 4.5 1.9 1.5.6-2.9 2.1-3.8 3.7-2.3 2 2.1 2.4-.2 1.9-12l-.5-12.7 3.5 4c2.6 3.1 3.4 4.9 3.5 8 .2 9.8 4.3-6.8 4.4-17.8.1-3.1.2-5.7.4-5.7s1.2.5 2.3 1c2.7 1.5 2.4-.2-.6-3-2.9-2.7-3.7-6.2-.9-3.9 2 1.7-1.2-4.9-6.2-12.8-4.5-7-6.7-12.6-11.3-27.9-4.5-15-6.8-20-12.3-26.7-8.7-10.3-33.2-26.1-41.3-26.5-1.6-.1-5.1-.7-7.7-1.3-4.4-1-4.8-1.4-6.4-5.7-.9-2.6-2.4-5.4-3.3-6.4-2.1-2.1-14.3-4.8-22-4.8h-6zm6.9 111.1c.6 1.7.9 3.3.7 3.5-.6.6-2.7-2.4-3.1-4.6-.6-3.3 1.2-2.5 2.4 1.1m83.9 39.3c.7 1.4 1.2 4.5 1.2 6.8v4.2l-2.6-4.4c-1.9-3-2.3-4.5-1.5-5 .6-.4.9-1.5.5-2.4-1-2.7 1.2-1.9 2.4.8m-77.3 38.7c-6 6.6-8 13.8-5.6 20.1.8 2 .2 4.4-3.1 11.8-2.2 5.2-4.5 11.9-5 14.9-.6 3-1.2 6.6-1.5 7.9-.4 2.3-1.8.4-14.4-20.4-1-1.7-2.7-7.1-3.8-12-1.1-5-3.1-11.8-4.5-15.3-1.8-4.5-2.1-6.4-1.3-6.7.7-.3 6.8-1.4 13.7-2.5 6.9-1.2 16.1-2.9 20.5-3.8 7.7-1.7 8-1.7 8.3.1.2 1-1.3 3.6-3.3 5.9m-80.8 11.5c2.4 5.2 3.7 6.3 7.8 6.3 1.6 0 3 1.1 4.5 3.5 1.2 1.9 3.8 5.4 5.7 7.8 3.7 4.3 7.9 12.5 6.9 13.4-.2.3-5.5-4.7-11.7-11.1-12.5-12.9-21.1-25.6-18.1-26.7 1-.4 1.9-.1 2.1.5s1.4 3.4 2.8 6.3M410 263c0 .5-.7.7-1.5.4-.8-.4-1.5-.8-1.5-1s.7-.4 1.5-.4 1.5.4 1.5 1m-48.1 36.7c1.7 7.5 3.1 21.9 3 32.3v9.5l-4-10-4.1-10 1.1-11.5c.6-6.3 1.1-12.5 1.1-13.8 0-3.7 1.7-1.6 2.9 3.5"/></svg>