<svg xmlns="http://www.w3.org/2000/svg" width="682.667" height="512" version="1.0" viewBox="0 0 512 384"><path d="M269.2 25.2c-11.5 13.1-10.9 11.5-7.2 21.4l3.2 8.5-3.8 4.2c-2.1 2.3-4.6 4.8-5.6 5.5-3.2 2.3-8.6 11.6-10.8 18.7-3 9.7-3.8 23.8-1.7 30.2.9 2.7 1.9 6.9 2.3 9.3l.7 4.5 1.2-3.5c1.2-3.4 1.2-3.4 1.9-1 2.3 8.3 3.3 10.8 5.4 13l2.4 2.5-.7-2.5-.7-2.5 1.7 2.2c.9 1.3 2.5 2.7 3.5 3.3 1.7.9 1.9.8 1.3-.7-.6-1.6-.4-1.6 1.7.2 1.4 1.2 2 1.4 1.5.5-.7-1.2-.3-1.1 1.8.2 1.5 1 3.8 2.5 5.1 3.4 2.7 1.7 2.6 3-.5 7.5-1.8 2.5-1.8 2.7-.1 4.3 1 .8 3.3 1.9 5.1 2.2 2.3.5 3.9 1.7 5.3 3.9 1 1.8 2.7 3.5 3.7 3.8 1.2.3 2.5 2.4 3.6 5.6 1.6 4.9 3.5 6 3.5 2 0-3.2 1.8-2.1 3 1.8 2.1 7 2.1 7 3.1 4.5.5-1.3 1.3-2 1.9-1.7.5.3 2-.1 3.2-.9 3-2.2 4.8-2 4.8.4 0 3.7 1.8 2.1 2.6-2.3l.7-4.2 1.2 2.8c.6 1.5 1.4 2.4 1.8 2.1.4-.4.7.6.7 2.3 0 2.5-1.6 4.6-9.2 12.1-6.5 6.4-10 9.2-11.7 9.2-4.1 0-8.9 4.5-10.4 9.8l-1.4 4.6-16.9 1.8c-33.7 3.4-31.8 3.4-35.5.5-1.9-1.4-5.9-3.2-8.9-4.1-5.2-1.5-5.6-1.5-8 .2-1.4 1-3.8 2.2-5.5 2.6-3.7.9-5.5 2.3-6.6 5.3-1.1 3.1-8.9 6.8-10.5 5.1-.7-.7-6-10.1-11.8-20.9-10.3-19-10.7-19.6-13.7-19.6-1.9 0-3.5-.6-4.1-1.7-.7-1.2-1.7-1.6-3.3-1.2-1.3.3-2.7.2-3-.4-.5-.9-10.5 8.3-10.5 9.6 0 .5 16.1 30.2 19.9 36.7 1.3 2.3 1.4 2.9.2 3.6-1.8 1.1-.8 7.6 1.9 13.9 1.5 3.2 1.7 4.9 1 6.3-1.2 2.2-.2 6.9 3.7 18.3l2.8 7.9 5.4 1.8c2.9 1 7.6 3.4 10.5 5.3 2.8 1.8 8.5 5 12.6 7.1 14.3 7.1 18.5 10.1 20.6 14.7 2.3 5.2 8.3 11.2 21.6 21.7 19.9 15.8 19.1 15 18.4 18.4-.4 1.7-1.7 4.3-3.1 5.7-3 3.1-5.5 9-5.5 12.7 0 1.5.9 4.6 1.9 6.8 1 2.3 2.1 6.2 2.5 8.8l.7 4.7H395v-2.5c0-5.7-9.1-18.7-14.2-20.4-3.3-1.1-3.4-1.2-5.1-11.4-3.1-18.5-4.8-36.9-4.5-48.9.2-10.6.1-12-1.9-14.5-1.5-2.1-2.9-2.8-5.2-2.7-3.1.2-3.1.2-2.5-4 .4-2.2.8-4.3 1-4.5.1-.2 1.6.6 3.2 1.8 2.6 1.8 4.4 2.1 13.2 2.1 9.1 0 10.1-.2 9-1.5-1.8-2.1-1.2-2.4 5.8-3.1 6-.7 7.4-1.5 5-3-1.8-1.1 1.9-2.2 7.4-2.3 5.8-.1 7.8-.9 7.1-2.6-.6-1.8 1.5-8.5 3.5-10.8 1.6-1.8 1.7-1.8 2.3 0 .4 1 .8 3.9.8 6.5.1 2.7.4 4.8.7 4.8s1.4-1 2.5-2.3l1.8-2.2.1 2.3c0 1.2-.6 3.7-1.4 5.5-1.5 3.7-4.1 19.7-3.5 21.6.3.7 2.8-1.9 5.7-5.8 6.4-8.5 7.4-9.3 5.6-4.1-1.5 4.3-4.7 27.1-4.2 29.8.2 1.2.9.7 2.6-1.8l2.4-3.5-.5 6c-.3 3.3-.2 9.3.2 13.4l.6 7.4 3.8-5.7c2.1-3.2 4.1-5.6 4.3-5.3.3.3-.2 4.2-1 8.7-.9 4.5-1.6 9.5-1.6 11.1 0 2.7.2 2.9 2 1.9 1.2-.6 4.1-3.1 6.6-5.5 3.6-3.4 4.5-3.8 4-2.2-.3 1.2-1.4 6.2-2.5 11.1l-1.9 8.8 3.5-3.3c2.4-2.2 3.4-2.8 2.9-1.6-.3 1-.9 3.7-1.2 6l-.6 4.2 3-3.5c3.1-3.5 3.1-3.5 3.2-1 .1 1.6.9.1 2.1-3.9 1.7-5.1 7.8-17 7.9-15.1 0 .3-.9 3.7-2 7.5-2.1 7.2-6 29-6 32.8.1 2.2.1 2.2 2-.2 2.3-2.7 2.6-1.7.5 1.9-.8 1.4-1.4 2.8-1.5 3.2 0 .5 9.4.8 20.9.8h20.8l.6-5.8c1.2-11.6 3-21.2 3.8-21.2 1.2 0 1.1 5.7 0 11.7-.5 2.6-1.2 7.2-1.6 10l-.6 5.3h8.1V205.2l-3-1.1c-4-1.4-20.5-11.1-30.5-17.9-11.5-7.9-35.5-32.4-43-44l-5.9-9.2-2.7 5.9c-1.5 3.2-3.3 6.3-4.2 6.7-.8.5-3.5 4.1-6.1 8.1-7.5 11.6-26.7 33-36.4 40.5-4.8 3.7-9 6.8-9.5 6.8-.4 0-2.1-1.5-3.7-3.3-2.7-2.9-2.9-3.9-3-10.3 0-10 1-16.4 2.6-16.4.8 0 1.1-.6.7-1.7-.5-1.2-.3-1.4.7-.8s1.2.4.6-1.1c-.5-1.3-.4-1.6.3-.8.6.5 1.7 3 2.5 5.5 1.2 3.7 1.4 4 1.5 1.6.1-2.5.3-2.6 2.1-1.7 1.1.6 2 .7 2 .3s.7.2 1.5 1.3c1.4 1.8 1.4 1.7 1-1.1-.3-1.7-.2-7.5.2-13l.8-10 3.3 4.4c1.9 2.7 3.2 5.6 3.2 7.4 0 1.7.2 2.8.5 2.6 1-1.1 3.7-15.7 3.9-20.9.1-4.6.4-5.5 1.9-5.2 2.3.4 2.2-1.1-.3-3.3-1.3-1.1-1.7-2.2-1.1-2.8.5-.5-1.8-6.3-5.9-14.6-5-10-7.8-17.4-10.4-27-5.8-21.4-9.7-27.2-27.1-40.3-14.6-11-17.8-12.6-30.5-14.9l-7.5-1.4-2.6-5.3c-1.4-2.9-3.2-5.9-4-6.6-2.2-2-8.7-3.5-18.4-4.1l-9-.5zm5.8 115.1c0 1.1-.1 1.8-.2 1.6-.2-.2-1.4-1.7-2.8-3.3s-1.9-2.6-1.1-2.1c1.1.6 1.3.4.8-1.1-.6-1.5-.3-1.4 1.3.5 1.1 1.3 2 3.2 2 4.4m83 38.6c.6 1.6 1 4.2.8 5.7l-.3 2.9-2.2-3.5c-1.5-2.4-1.9-3.8-1.2-4.7.6-.7.8-1.7.4-2.3-.3-.5-.2-1 .3-1s1.5 1.3 2.2 2.9m-81 41.8c-3.2 4.9-3.9 10.8-2.1 15.7.8 1.9.2 4.2-3 11.5-3.7 8.2-4.8 12.3-6.5 23.6l-.6 4-3.2-3.9c-1.7-2.2-5.5-6.9-8.5-10.4-4.7-5.7-5.6-7.4-7.6-15.7-1.3-5.2-3.3-11.5-4.4-14.1-1.2-2.5-2.1-5.2-2.1-5.8 0-.7 6.8-2.5 16.8-4.5 9.2-1.9 17.8-3.8 19.2-4.2 4.7-1.4 5-.9 2 3.8m-68 22.2c0 .5 3.1 4.9 7 9.7 3.8 4.8 6.7 9 6.4 9.3-.6.6-18.4-17.7-18.4-18.9 0-.3 1.1-.7 2.5-.8s2.5.2 2.5.7m202 20.6c0 .9-.6 1.2-1.5.9-.8-.4-1.5-1-1.5-1.5s.7-.9 1.5-.9 1.5.7 1.5 1.5m-49.1 35.7c2.8 13.5 5.2 44.1 3.3 42.3-.6-.6-2.7-5.3-4.7-10.5l-3.7-9.5 1.2-12.3c1-11.3 1.7-15.2 2.5-15.2.2 0 .8 2.4 1.4 5.2"/></svg>