<svg xmlns="http://www.w3.org/2000/svg" width="682.667" height="512" version="1.0" viewBox="0 0 512 384"><path d="M272.1 24.5c-4.5 4.9-8.7 9.8-9.3 10.9-.7 1.6-.2 4.1 2.1 10.2l2.9 8.1-6.4 6.4c-11.2 11.1-15.1 19.1-17.5 36.2-1 7.1-.9 9.2.4 13.8.9 3 1.9 7.9 2.3 10.9l.8 5.5 1.2-4 1.1-4 1.1 4c.6 2.2 1.4 5.1 1.7 6.5s1.5 3.6 2.5 5c1.8 2.3 2 2.3 2 .5s.3-1.7 2.6.9c2 2.1 2.9 2.5 3.5 1.5s.9-.9 1.5.5c.4 1 1 1.3 1.3.8.9-1.5 9.1 3.7 9.1 5.8 0 .9-.9 2.9-2.1 4.4-2.8 3.6-2 5.1 3.8 7 3.8 1.3 5.1 2.3 6 4.6.7 1.7 2.1 3.2 3.5 3.5 1.9.5 2.7 1.7 3.7 5.6 1.4 5.2 2.6 6.2 3.6 2.9.9-3 2.3-1.5 3.7 3.8 1 4.2 1.2 4.4 2.1 2.4.6-1.2 1.5-2.1 2.1-2 .6.2 2.6-.8 4.4-2l3.2-2.4.6 3.1c.8 3.9 2 3.2 2.9-1.6l.7-3.8 1.9 3.5c1 1.9 1.8 4.1 1.9 4.7 0 1.9-19.2 20.3-21.2 20.3-5 0-10.4 5.6-11.7 12.3-.4 1.6-1.3 3.4-2.1 3.8s-9.1 1.5-18.5 2.4c-9.3.9-19.8 2.1-23.3 2.7-5.8.9-6.5.8-8.5-1-3.2-2.9-7.9-5-12.7-5.8-3.3-.5-4.7-.3-7 1.5-1.6 1.1-3.7 2.1-4.7 2.1-2.6 0-3.8 1.1-5.6 4.6-.9 1.8-3.4 4-5.7 5.2l-4 2-5.7-10.2c-3.1-5.5-8.4-15.2-11.8-21.5-5.7-10.9-6.1-11.4-9.4-11.6-2-.2-3.8-1-4.3-2-.7-1.2-1.7-1.5-3.4-1.1-1.4.4-2.4.2-2.4-.5 0-1.7-1.2-.8-6.4 4.8l-4.8 5.2 5.3 9.3c15 26.6 16.1 29 14.9 31.4-1.4 2.4-.7 6.6 2 13 1.2 2.8 1.7 5.5 1.3 8.1-.6 4.7 3.7 19.8 6.8 23.7 1.1 1.4 3.5 2.8 5.5 3.2 1.9.3 6.2 2.4 9.5 4.5 3.3 2.2 9.3 5.6 13.2 7.5 14.4 7.2 18.6 10.2 21.2 15.3 2.5 5 8.6 11.4 17.1 17.8 24.7 18.7 23.5 17.6 22.9 20.8-.3 1.6-1.6 4.1-3 5.5-3 3.1-5.5 9-5.5 12.7 0 1.5 1 4.8 2.2 7.3 2.2 4.5 2.4 5.3 2.7 10.2l.1 2.8h135v-2.5c0-5.7-9.1-18.7-14.3-20.4l-3.3-1.1-2.2-14.3c-3.2-20.7-4.3-33.3-4-45.7.3-9.8.1-11.1-1.8-13.7-1.6-2.1-2.9-2.8-5.3-2.7-1.7.1-2.9-.1-2.6-.5.2-.4.5-2.4.7-4.4.2-4 .9-4.5 2.8-2.2 2.1 2.5 8.9 3.7 16.8 3 6.9-.6 7.2-.8 5.8-2.4-2.7-3-1.8-3.4 5.9-2.6 7.8.7 8.6.3 6-2.5-1.5-1.6-1-1.8 6.5-2.4 6.7-.6 8.1-1 7.6-2.3-.8-2.1 2.4-10.8 4.5-12.2 1.6-.9 1.9-.4 2.5 6.1l.7 7.1 1.6-2.9c1.5-2.9 1.6-2.9 1.9-.5.2 1.3-.3 4.7-1.2 7.5-1.6 5.3-3.9 20.6-3.2 21.3.2.2 1.4-1.1 2.7-2.9 3.8-5.5 9.2-11.9 9.6-11.5.2.2-.2 1.7-.8 3.3-1.4 3.6-3.9 20.4-3.8 26.4 0 4.7.3 4.6 3.4-.5.7-1.1.9 2.4.6 11.4-.2 7.7.1 13.1.6 13.1s2.7-2.5 4.8-5.5c3.7-5.4 5.3-6.9 4.1-4-1 2.6-3.7 20.8-3.1 21.3.7.8 8.4-4.8 11.1-8.2 1.9-2.3 2.4-2.6 2-1.1-.9 3.5-4.6 19.5-4.6 20.2 0 .4 1.3-.6 3-2.2l2.9-2.8-.5 5.4-.6 5.4 2.6-3c2-2.4 2.5-2.6 2.6-1.2 0 3.1 1.7.9 2.9-3.8.6-2.5 2.7-7.3 4.7-10.8 1.9-3.4 3.3-5.3 3-4.2s-1.4 5.4-2.5 9.5c-2.3 8.5-5.1 24.9-5.1 29.9v3.3l2-2.3 2.1-2.4-1.6 3.2c-.8 1.8-1.5 3.4-1.5 3.8 0 .3 9.4.5 20.8.5h20.8l1.3-11.8c.7-6.5 1.6-12.4 2.1-13.1 1.3-2.2 2.1 3.6 1.1 7.7-.5 2-1.3 6.7-1.6 10.4l-.7 6.8h7.2l-.1-89.3v-89.2l-7.1-3.5c-3.9-1.9-13.2-7.5-20.6-12.3-11.2-7.3-16-11.3-27.2-22.5-9.6-9.7-15.6-16.7-20.5-24l-6.8-10.4-1.9 5c-1 2.7-3 6.1-4.4 7.5-1.3 1.4-4.3 5.3-6.5 8.7-7.8 12-27.3 33.4-37.2 40.8-9 6.7-9.2 6.8-10.7 4.8-.8-1.2-2-2.6-2.7-3.1-.9-.7-1.1-4-.6-12.8.3-6.4 1-11.7 1.4-11.7.5 0 .9-.7.9-1.5s.5-1.5 1.1-1.5c.5 0 .7-.5.3-1.2-.4-.6-.3-.8.4-.4.5.3 1.3 2.3 1.7 4.4.9 5.5 2.5 7.6 2.5 3.2 0-2.5.3-3.1 1.1-2.3.6.6 1.8.9 2.5.6.8-.3 1.4 0 1.4.6s.5 1.1 1.1 1.1c.5 0 .7-.5.4-1-.4-.6-.3-6 0-12.1l.8-10.9 3.3 3.7c2.3 2.7 3.3 4.8 3.4 7.3 0 3 .2 3.2 1.1 1.7.6-1 1.2-3.3 1.4-5 1.4-13 2.9-20.7 3.8-19.8 2.5 2.5 2.7.8.3-2.3-2.7-3.6-3.3-5.2-1.6-4.1 1.2.7.3-1.7-3.8-10-6-12.3-9.4-20.8-10.7-27.3-4.3-20.4-9.5-30.5-20.4-39.6C340 40.4 334.9 37.5 322.3 35c-4.8-1-8.9-2.2-9.1-2.7-4.2-11.4-4.4-11.6-10.7-13.6-3.3-1-9.6-2.1-14-2.4l-8-.6zm3.7 114.1.3 2.9-2-2.5c-2-2.5-1.9-4.4.2-3.7.7.2 1.3 1.7 1.5 3.3m84.2 46.7c0 3.3-1.4 2.8-3.5-1.4-1-1.8-1.3-3.9-.9-5.5l.7-2.7 1.8 3.4c1 1.9 1.8 4.7 1.9 6.2m-82 33c0 .1-.9 2-2 4.2-2.2 4.3-2.5 8.3-1 13.4.8 3 .5 4.4-1.9 9.5-3.6 7.8-7.1 18.9-7.1 23 0 3.7-1 7.6-1.9 7.6-.3 0-1.9-1.9-3.5-4.1-1.5-2.2-5.2-6.6-8.1-9.7-4.8-5.2-5.5-6.6-7.9-15.6-1.4-5.4-3.5-11.9-4.6-14.4-2.4-5.4-2.4-5.7-.2-5.9 2.2-.1 24.3-4.9 30.8-6.7 5.1-1.4 7.4-1.8 7.4-1.3m-68.9 27.9c.6 1.2 3.6 5 6.5 8.5 3 3.5 5.4 6.9 5.4 7.6-.1 1.2-17-16.2-17-17.6 0-1.7 4-.5 5.1 1.5M412 265.1c0 .6-.7.6-2-.1-1.1-.6-2-1.5-2-2.1s.7-.6 2 .1c1.1.6 2 1.5 2 2.1m-50.1 34.1c2.9 13.3 5.2 44.4 3.2 42.2-.5-.5-2.6-5.2-4.6-10.4l-3.6-9.5L358 310c1-10.9 1.8-16 2.5-16 .2 0 .8 2.3 1.4 5.2"/></svg>