<svg xmlns="http://www.w3.org/2000/svg" width="682.667" height="512" version="1.0" viewBox="0 0 512 384"><path d="m277.5 24-9.9 9.9 2.1 6.3c3.9 11.5 4.1 10.5-4.7 18.6-9.2 8.5-13.8 16.5-16.6 28.8-1.6 7.5-1.6 11.3.2 28.1.6 5.6 1.7 6.8 2.9 3 .6-1.9.9-1.5 2.2 2.8 2.2 7.7 6.9 16.1 5.6 10.3-.4-2.1-.3-2.1 1.7.5 1.2 1.5 2.9 2.7 3.9 2.7.9 0 2.3.6 3 1.2 1.1 1 1.3 1 .7 0-1.3-2.2 1-1.2 5 2.2l3.8 3.3-2.8 3.7c-2.6 3.5-2.7 3.8-1.1 5.6.9 1 3.2 2.1 5.1 2.5 2.8.5 3.8 1.3 4.6 3.6.6 1.6 2.3 3.6 3.9 4.4 1.9 1 3.2 2.7 3.9 5.3 1.5 5.6 2.6 6.9 3.5 4.2.9-2.9 2.1-1.6 3.9 4.1 1.3 3.9 1.5 4.1 2.1 2.1.4-1.2 1.4-2.2 2.2-2.2s2.8-.9 4.4-2l2.8-2.1.7 2.6c.9 3.5 2.2 3.1 3-1 .8-4.4 1.8-3.8 3.4 1.9l1.2 4.4-9.8 9.6c-7.3 7-10.6 9.5-12.5 9.6-4.7 0-10.9 6.7-10.9 11.8 0 1-1 2.8-2.2 3.9-1.9 1.8-4.9 2.4-18.3 3.7-8.8.9-19.2 2.1-23.1 2.7-7.1 1.1-7.1 1.1-11.3-1.9-2.3-1.7-6.5-3.6-9.3-4.2-4.6-1.2-5.5-1.1-9.2.8-2.3 1.1-5.4 2.5-6.9 3.1-1.7.7-3.2 2.3-3.8 4-1.3 3.8-8.8 7.9-10.4 5.8-.5-.8-5.9-10.4-11.9-21.5-10.8-19.8-11-20.1-14.7-20.7-2.1-.4-4-1.3-4.3-2.1-.4-1-1.3-1.3-2.6-.9-1.2.4-2.7.1-3.5-.5-1-.8-1.5-.9-1.5-.2 0 .6-2 3-4.4 5.5l-4.5 4.4 10.5 19.3c9.9 18.2 10.4 19.4 9.3 22.4-.9 2.6-.7 4.1 1.4 9.8 1.8 4.6 2.4 7.8 2 10.2-.5 3.2 1.2 10.1 5.3 21.3 1.4 3.7 2.1 4.4 6.7 5.9 2.9.9 7.5 3.1 10.2 4.9 2.8 1.8 8.4 4.9 12.5 7 14.6 7.3 18.3 10 22.5 16.5 4 6.3 10.4 11.9 31.3 27.5 10.4 7.8 10.7 8.8 5.2 15.2-2.8 3.2-5 8.8-5 12.9 0 1.1 1.1 4.3 2.5 7s2.5 6.6 2.5 8.6v3.8h135v-3.1c0-2-1.6-5.5-4.6-10-4.7-7.2-7.7-9.9-10.6-9.9-2 0-2.2-.8-4.2-12.5-2.9-16.5-4.7-36.9-4.4-48.2.3-10.1.1-11.4-1.8-14-1.4-1.8-3-2.8-4.8-2.8-2.4.1-2.5-.2-2.1-4 .2-2.2.4-4.1.4-4.2.1-.1 1.7.9 3.7 2.2 3.3 2.2 4.7 2.5 13.7 2.5 9.6 0 9.9-.1 8.4-1.8-2.8-3.1-2-3.5 5.3-2.9 5.6.5 7 .3 7-.8 0-.8-.4-1.7-1-2-2.2-1.4-.7-2.1 4.8-2.3 8.2-.3 8.7-.6 10.6-6.7.9-3 2.5-6.2 3.4-7.1 1.6-1.7 1.7-1.6 2.3 1.2.4 1.6.7 4.7.8 6.9l.1 4 2.1-2.5 2-2.5-.5 4c-.2 2.2-1.1 7.1-1.9 11-1.5 7.2-2.7 16.5-2.1 16.5.2 0 1.7-1.9 3.3-4.3 4.6-6.4 9.4-11.6 8.6-9.2-1.3 4-3.3 16.2-3.9 24.5l-.6 8.5 2-2.4 2-2.3.1 9.3c.1 5.2.4 10.7.8 12.3l.6 2.9 4.3-6.1c2.4-3.4 4.5-6.2 4.7-6.2s0 1.2-.5 2.7c-.9 2.7-3 16.8-3 19.9 0 2 3 .3 8.7-4.9 4-3.7 4.4-3.8 3.9-1.6-4.6 19.7-4.6 20-.5 15.7 2.3-2.5 2.9-2.8 2.5-1.3-1.3 5.2-1.7 9.5-.9 9.5.5 0 1.7-1.5 2.8-3.3l1.9-3.2.6 2.5c.6 2.1.9 1.6 2.4-3.4 1.5-5.2 7.6-17.4 7.6-15.4 0 .4-.9 4-2 8-2.6 9.7-6.4 32.7-5.5 33.6.4.4 1.4-.2 2.2-1.3 1.6-2 1.5-1.6-.3 3-.5 1.3 2.1 1.5 20.5 1.5H505v-3.7c0-2 .5-7.7 1.2-12.7 1-7.7 1.3-8.6 2-6.1.5 1.7.4 5.9-.2 9.7-1.6 10.9-1.4 12.8 1.5 12.8h2.5v-89.5c0-53.6-.4-89.5-.9-89.5-1.4 0-19.5-10.4-28-16.1-18.2-12.4-37.8-32.2-49-49.8l-3.4-5.3-2.8 6c-1.5 3.3-3.3 6.4-4.1 6.8-.8.5-3.5 4-6 7.7-7.9 11.8-27.1 33.1-35.5 39.3-4.3 3.2-8.4 6.2-9.1 6.7-.9.7-2 .3-3.8-1.4-2.6-2.4-2.6-2.5-1.9-13.3.5-7.8 1.3-11.8 2.5-13.9l1.8-3 1.1 3.9c.6 2.2 1.1 4.4 1.1 5.1 0 .6.4 1.5 1 1.8.6.4.7-.5.4-2.4-.6-2.6-.4-2.9 2-2.8 1.4.1 2.6.5 2.6.9 0 .5.4.8.9.8.8 0 2.3-14.2 2.1-20.3v-2.8l3 3.4c2.1 2.5 3 4.5 3 7.1 0 2 .5 3.6 1 3.6.6 0 1-.9 1-2.1 0-1.5.4-1.9 1.6-1.5 1.4.5 1.5.4.5-.8-.9-1-.9-2.5-.2-5.3.5-2.1 1.3-6.3 1.6-9.3.9-6.7 1.3-7.4 3.1-5.9 2 1.7 1.7.1-.6-2.8-2.2-2.8-2.7-4.8-.8-3.7.7.5.9.2.5-.7-12.2-27.8-11.9-27.1-16.2-47.4-3.7-17.5-11.2-27.6-32.5-44.3-3.2-2.5-13-7.5-15.1-7.7-2.7-.2-11.4-2.8-12.5-3.7-.7-.5-1.7-2.8-2.3-5.1s-1.4-4.7-1.9-5.4c-1.9-3-16.8-7.3-25.2-7.3-3.2 0-4.6 1-13.5 10m.5 113.1c0 1-.2 1.9-.5 1.9-.7 0-3.5-5.7-3.5-7.2.1-2 4 3.2 4 5.3m84 51.2-.1 4.2-3-5.8c-2.4-4.7-2.8-6.1-1.8-7.3 1.8-2.2 4.9 3.5 4.9 8.9m-85.6 33.9c-1.3 2.5-1.5 4.8-1.1 10.5.5 6.8.3 7.9-2.9 14.7-4 8.7-6.4 17.4-6.4 23.1 0 7-1.2 7.2-6.5.8-2.7-3.2-6.7-7.8-9.1-10.3-3.5-3.8-4.4-5.7-5.8-12-.9-4.1-3-10.5-4.5-14.2l-2.9-6.8 3.6-.9c2.1-.4 9.8-2.1 17.2-3.6 7.4-1.6 14.4-3.2 15.5-3.6 4.1-1.6 4.7-1.1 2.9 2.3m-66.2 27.1c1.5 2.3 4.8 6.6 7.3 9.6 7.9 9.2 3.7 7.1-5.6-2.9-4.9-5.2-8.9-9.8-8.9-10.2 0-.5 1-.8 2.3-.8 1.5.1 3.1 1.4 4.9 4.3m202.6 15.4c.5 1.8-1 1.6-3.4-.2-1.8-1.5-1.8-1.5.5-1.3 1.4.2 2.6.9 2.9 1.5m-48.3 51.4c1.7 15.5 2 26.8.6 25.3-.5-.5-2.5-5.1-4.6-10.2-4-10.2-4-11.7-1.3-30.2l1.2-7.5 1.3 4.4c.7 2.4 1.9 10.6 2.8 18.2"/></svg>