<svg xmlns="http://www.w3.org/2000/svg" width="682.667" height="512" version="1.0" viewBox="0 0 512 384"><path d="M295 17.7c-13.3 10.4-13.3 10.4-10.5 21.8.8 3.3 1.4 6.3 1.5 6.6 0 .4-3.3 2.9-7.2 5.7-11.1 7.7-15.4 13.1-20.5 25.9-2.5 6.3-2.7 7.9-2.7 22-.1 14.5.5 18.5 2 12.7.8-3.3 1.9-1.7 2.8 4.5.8 5 3.7 11.3 4.4 9.3.3-1 1.3-.5 3.5 1.5 1.6 1.5 2.7 2.1 2.3 1.3s-.1-.7.8.4c.8 1 1.9 1.5 2.4 1.2 1-.6 7.2 4.8 7.2 6.3 0 .4-1.1 1.8-2.5 3.1-3.8 3.5-3.2 5.7 2.2 8.3 3.7 1.7 4.9 2.9 5.5 5.4.6 2.3 1.6 3.5 3.3 3.9 1.4.3 2.5 1.2 2.5 1.9s.7 1.8 1.5 2.5 1.9 2.7 2.3 4.4c.5 1.7 1.1 2.9 1.4 2.6 1.1-.9 5.8 4.3 5.9 6.4.1 1.8.3 1.6 1.2-.7.7-1.7 1.7-2.6 2.7-2.5.8.2 2.3-.7 3.3-1.9 2.5-3.1 3.5-2.9 4.5.9.8 3.1.9 3.2 1.6 1 1.1-3.4 3.1-2.1 3.4 2.4.2 3.8-.1 4.2-10.2 13.7-7.3 6.8-11.2 9.7-12.9 9.7-3.7 0-7.3 3.5-9.3 8.8-2.7 7.4-4.9 9.2-10.8 9.2-2.8 0-13.6.7-24.1 1.7l-19 1.7-2.9-2.7c-2.7-2.5-10.8-5.7-14.5-5.7-.8 0-2.2.7-3.1 1.5s-3.4 1.8-5.5 2.3c-3.2.6-4.4 1.6-6.2 4.7-2.1 3.7-8 7.3-12.4 7.4-1.1.1-5.2-6.3-12.5-19.2-10.2-18.3-11-19.4-13.8-19.4-1.6 0-3.6-.8-4.5-1.9-1-1.1-3-2-5.1-2-3.1-.1-4 .4-7.2 4.7-2.1 2.7-3.8 5.3-3.8 5.9s1.8 4.2 4 8.1 4 7.2 4 7.4c0 .1 2.9 5.3 6.6 11.5 4.5 7.9 6.2 11.6 5.5 12.3-1.6 1.6-1.3 5.1 1 11.5 1.1 3.1 2.2 8.6 2.4 12.2.2 4.3 1.4 9.3 3.5 14.7l3.1 8.2 5.2 1.7c2.9.9 7.9 3.3 11.2 5.4 3.3 2 10.8 6 16.7 8.9 11.6 5.7 14.9 8.3 19 15.3 2 3.6 6.6 7.6 21 18.3 20.1 15.1 20.1 15.1 14.8 21.1-2.8 3.3-5 8.8-5 13 0 1.1 1.1 4.3 2.5 7s2.5 6.6 2.5 8.6v3.8h135v-2.8c0-5.7-10.6-20.2-14.8-20.2-2.3 0-2.6-.7-4.1-9.4-3.1-17.3-5.2-38.8-4.9-50.3.3-11.1.1-12.4-1.8-15-1.4-1.8-3.1-2.8-4.7-2.8-2.3.1-2.5-.2-2-3.5.8-4.6.9-4.7 3.6-2.2 2.9 2.7 10.2 4.1 17.8 3.5 5.6-.6 7.1-1.4 4.9-2.8-2.6-1.6-.4-2.4 5.4-1.8 6.5.6 9.1-.6 6.7-3-2.2-2.2-1-2.8 4.7-2.6 8.7.4 9.8-.3 12.2-7.6 1.2-3.5 2.7-6.6 3.4-6.8 1.5-.6 2.6 3.2 2.6 8.9 0 3.7 1.5 4.6 2.5 1.4.3-1.1 1.1-2 1.7-2 1.2 0 .6 4.1-1.5 11.6-.8 2.8-1.8 8.6-2.2 13l-.6 7.9 2.2-3.5c3.6-5.5 11.3-14.7 10.5-12.5-1.9 5.2-3.6 14.9-4.1 24.5l-.7 10.5 2.2-3.3c1.2-1.7 2.3-3.2 2.3-3.2.1 0 .1 5.2-.1 11.6s0 12.3.3 13.2c.4 1.2 1.7-.1 4.7-4.6 2.2-3.4 4.2-6.1 4.4-5.9.2.1-.3 3.9-1.1 8.2-1.6 9.2-1.9 14.5-.6 14.5 1.4 0 9.8-6.8 10.5-8.6.4-.9.9-1.5 1.1-1.2.3.3-.4 4.3-1.5 8.9s-2 9.3-2 10.4c.1 1.8.3 1.7 2.6-.9 1.4-1.5 2.7-2.7 2.9-2.4.2.2 0 2.1-.5 4.3-1.6 6.9-1.3 8.5 1.1 4.8 2.2-3.5 3.5-4.1 4.2-2.1.2.7 1.1-1 2-3.8 1.6-5.3 7.3-17.4 8.3-17.4.3 0 .3.4 0 .8-2.3 3.8-9.4 41.7-8 43.1.3.3 1.4-.5 2.5-1.9 1.7-2.1 1.9-2.2 1-.3-.6 1.2-1.1 2.4-1.1 2.7s9.2.6 20.4.6h20.3l.7-7.7c.4-4.2 1.4-8.9 2.2-10.4 1.2-2.4 1.4-14.9 1.4-81.6v-78.8l-12.7-7.3c-23.8-13.5-41.5-28.7-55.8-47.7-4.5-6.1-8.7-12-9.4-13.3-1.7-3.2-2.4-2.8-4.4 2.7-.9 2.6-2.7 5.9-4 7.2s-4.2 5.1-6.5 8.5c-8 12-26.8 32.4-35.8 39.1-4.7 3.4-9 6-9.5 5.7s-.7-2.7-.4-5.2c.2-2.6.7-8.7 1.1-13.6.6-9.1 1.6-9.7 2.9-1.9.8 4.8 2.4 6 1.7 1.3-.4-2.9-.4-2.9 2.9-2 1.9.6 3.4 1 3.5 1s.4-3.3.8-7.3c.4-3.9.9-8.9 1.3-11l.6-3.8 2.8 3.3c2 2.4 2.8 4.4 2.9 7.3v4l1.4-3c1.5-3.4 4.6-16.2 4.6-19.3 0-2.8 1.7-3.7 3.7-2 1.4 1.1 1.6 1.1.8-.2-.4-.8-1.7-2.7-2.7-4.2-2.2-3.2-2.3-4.5-.2-2.8 1.1 1 1 .1-.7-4.1-6.2-15.6-9-25.8-10.4-38.4-2.5-22.4-5.5-29-20.1-44.4-8.5-8.9-19.2-17.5-21.9-17.6-.5 0-3.8-1.1-7.3-2.5-4.9-2-6.4-3-6.8-5-2.1-9.1-2.3-9.5-7.2-12.2-5.1-2.9-15.5-5.8-20.7-5.8-2.2 0-5.3 1.8-11.5 6.7m-12 114c0 2.2-1.6 1.5-2.8-1.2-1.7-3.6-1.5-4.1.8-2 1.1 1 2 2.4 2 3.2m80.4 52.2c.5 1.2 1.5 2 2.2 1.7.8-.3 1.5.7 1.9 2.5.8 3.7-.3 11.9-1.5 11.9-.5 0-1.7-2.6-2.6-5.8-.9-3.1-2.5-7.1-3.5-8.8-2.4-3.9-2.4-4.1.3-3.9 1.2.1 2.6 1.2 3.2 2.4m-85.5 37.8c-1.9 3.8-2.4 10.2-1 13.8.6 1.4-.1 3.9-2.4 8.5-4.6 9.3-7.4 18.4-8.3 27l-.7 7.5-4-5c-2.2-2.8-6.6-8-9.8-11.7-5.4-6.3-6-7.4-7.7-15.2-1.1-4.7-2.9-10.8-4.1-13.6-1.3-2.9-1.8-5.4-1.3-5.9s8.1-2.2 16.9-4c8.8-1.7 17.4-3.5 19-4 5.1-1.6 5.4-1.3 3.4 2.6m-81.2 15.8c2.6 5.2 2.9 5.5 6.5 5.5 2.8 0 4 .5 4.9 2.2.7 1.3 3.2 4.5 5.7 7.3s6.4 9 8.8 14.3c2.4 5.1 5.3 10.6 6.5 12.3s1.9 3.3 1.6 3.5c-.6.6-1.6-1-6-8.6-1.4-2.5-8.2-10.4-15.2-17.5-10.8-11.1-18.5-20.9-18.5-23.8 0-.4.7-.7 1.5-.7s2.7 2.5 4.2 5.5M415 266c0 2.5-.8 2.5-4 0l-2.5-2h3.3c2.5 0 3.2.4 3.2 2m-52.1 38.2c2.8 17.7 4.1 39.3 2.2 37.2-.5-.5-2.5-5.1-4.5-10.1-3.4-9-3.5-9.5-2.6-17 1.6-14.7 2.3-18.3 3-17.8.4.2 1.2 3.7 1.9 7.7m147.7 70.9c-.9 4.7-.7 8.9.4 8.9.6 0 1-2.7 1-6 0-6.7-.4-7.6-1.4-2.9"/></svg>