<svg xmlns="http://www.w3.org/2000/svg" width="682.667" height="512" version="1.0" viewBox="0 0 512 384"><path d="M343.1 13.8c-13.8 5-14.6 5.9-15.5 15.5l-.8 7.7-5.6 1.6c-16.6 4.6-19 5.9-28.2 15.4-9.3 9.6-12.8 15.7-14.6 26-.7 4.4-1.6 9.2-2 10.7l-.6 2.8 2.2-3.3c2.5-3.7 3.4-4.1 2.5-1.1-1.2 3.6-2.2 13.2-1.7 15.2.5 1.8.6 1.8 1.8-.4 1.1-2.2 1.2-2.1 1.9 2.5.6 4 1 4.7 2.6 4.3 1.4-.4 1.9 0 1.9 1.5 0 1 .4 1.7.9 1.4 1.2-.8 4 2.6 4.3 5.4.2 1.9-.5 2.9-3.4 4.5-2.1 1.1-3.8 2.7-3.8 3.6 0 .8 1.6 3 3.5 4.9 2.8 2.8 3.5 4.1 3.3 6.8-.1 2.3.4 3.8 1.5 4.7.9.7 1.7 2.1 1.7 3.2 0 1 .4 2.3.9 2.8.5.6 1.8 3.5 2.8 6.5 1.7 5.2 2 5.5 5.5 5.8 2.1.2 5.2-.1 7.1-.6 2.1-.6 4-.6 5 0 1.1.6 1.7.5 1.7-.2 0-.5.4-1 .9-1 1.6 0 3.1 6.1 3.1 12.6v6.2l-6.2 5c-3.5 2.8-8.1 6.8-10.2 9.1-2.2 2.2-5.3 4.3-7 4.7-5.1 1-10.6 7.4-10.6 12.2 0 1-1.6 3.4-3.6 5.3-5.2 5-6.6 8.2-6.3 15 .2 3.7-.3 7-1.3 9.1-5.8 11.8-10.8 28.1-10.8 35 0 2.1-.3 3.8-.7 3.8-.5 0-4.4-6.6-8.8-14.7-4.4-8-9-16.4-10.2-18.7-1.3-2.2-2.3-5.5-2.3-7.2 0-3.9-2.4-16.9-3.9-20.6-1.2-3.3-1-3.4 11.4-4.3 13.4-.9 28.8-2.6 29.8-3.2 2.5-1.5-3.7-2.3-22.8-2.9l-20.7-.7-4.1-3.5c-4.4-3.7-11.6-7.2-14.7-7.2-1 0-3.1.7-4.6 1.5-1.6.8-3.9 1.5-5.2 1.5s-3.7 1.5-5.5 3.4c-4.7 5-8.6 6.6-15.6 6.4-8.3-.2-9.7 1.4-3.6 4.1 2.8 1.2 5.7 1.8 7.1 1.5 2-.5 2.6 0 4.4 4.3 3.4 7.7 3.5 7.8 7.4 8.1 2 .2 3.6.7 3.6 1.2 0 .4 2.3 4.2 5.1 8.4 3.7 5.4 5.8 10 7.5 16 1.3 4.7 4.8 14.1 7.8 21s5.2 12.6 5 12.6c-2.1 0-8.6-4.6-9.8-6.8-2.5-4.8-7.4-10.3-13-14.6-10.1-7.7-19.3-16.1-22.2-20.3-1.6-2.4-9.6-13.9-17.9-25.7l-15-21.5-4.3.4c-3.7.3-4.5 0-6.3-2.6-1.7-2.4-2.4-2.7-4-1.8-1.5.7-2.4.7-3.5-.2s-1.4-.8-1.4.3c0 .8-1.1 3.7-2.5 6.4s-2.5 5.3-2.5 5.8c0 .4 5.5 8.5 12.2 18 11.7 16.2 12.3 17.3 12 21.5-.2 3.2.4 5.7 2.7 10 1.6 3.2 2.9 7.2 2.9 9.3 0 3.9 7.4 21.6 9.9 23.5.8.6 3.4 1.5 5.6 1.8 2.3.4 6.5 1.8 9.2 3.2 2.8 1.4 9.7 4.3 15.4 6.5 15 5.6 17.8 7.3 20 11.7 2.7 5.2 10.1 11.7 27.9 24.5 8.4 6 15.2 11.5 15.2 12.4 0 .8-1.3 2.9-2.9 4.8-2.9 3.3-5.1 8.8-5.1 13 0 1.1 1.1 4.3 2.5 7s2.5 6.6 2.5 8.6v3.8h135v-3.1c0-2-1.6-5.5-4.6-10-4.7-7.2-7.7-9.9-10.6-9.9-1.9 0-2.3-1-3.7-9.5-3-16.9-4.3-30.6-4.5-45.6-.2-18-1-21-6-22.9-1.8-.7-2.2-1.4-1.9-3.3l.5-2.5 3.5 2.4c3.2 2.1 4.7 2.4 13.5 2.4 9.6 0 9.8-.1 8.8-2s-.8-2 6-2c6.4 0 8.6-.9 6-2.5-2.4-1.5-.5-2.3 6.9-3l7.8-.7 1.9-5.6c3.1-9.8 6.4-10.3 6.4-1 0 5.2 1.6 7.3 2.6 3.3.3-1.4 1-2.5 1.5-2.5 1.4 0 1.1 5.3-.5 9.1-1.1 2.7-3.6 18-3.6 22.4 0 .5 1.5-1.1 3.3-3.6 4-5.6 8.4-10.9 9.1-10.9.3 0-.2 1.9-1 4.2-1.8 5.1-4.4 28.7-3.2 29.4.4.3.8.2.8-.3 0-.4.8-1.8 1.8-3 1.6-2.2 1.7-1.8 1.4 9.8-.2 6.7.1 12.6.6 13.1s2.4-1.4 4.6-4.8c2.1-3.1 3.9-5.4 4.1-5.2.2.1-.3 3.7-1 7.8-1.6 8.8-1.9 15-.6 15 .5 0 3.4-2.4 6.5-5.3s5.6-5.2 5.6-5.1c0 0-.9 4.3-2 9.5-2.6 12.2-2.5 13.1.6 9.4l2.6-3-.6 6-.6 6 2.7-3.4c2.4-3 2.7-3.2 3.4-1.5.5 1.4 1.1.5 2.3-3.7 1.5-5 7.2-16.9 8.1-16.9.2 0-.4 2.1-1.2 4.7-3.1 10.2-7.8 37-6.7 38.2.2.2 1-.2 1.9-.9 1-.8 1.5-.9 1.5-.1s6 1.1 20.4 1.1h20.4l.7-6.8c.4-3.7.9-43.9 1.1-89.3l.5-82.6-2.8-1.2c-6.3-2.9-22.4-13-31.3-19.8-15.2-11.4-36.6-34.8-42.6-46.5l-1.6-3.1-2.4 5.9c-1.3 3.3-3.2 6.6-4.2 7.4s-4.2 5-7 9.2c-2.9 4.3-5.7 7.8-6.2 7.8-1.2 0-3.4-4-2.6-4.8.3-.3.6 0 .6.6 0 .7.4 1.2.9 1.2s-.4-4.4-2-9.8c-2.7-9.2-4.6-18.7-4.1-20.6.2-.5 1.2-6.8 2.3-14 1.5-9.4 1.9-15.8 1.6-22.6-.6-10.3-.9-11.3-9.4-29-5-10.4-6.4-12.3-14.5-20.2l-8.9-8.8.7-4.9c.6-4.8.5-5.2-3.6-10-4.2-5-15.9-12.2-19.6-12-1.1 0-6.6 1.7-12.3 3.7m69.2 152.6c.3.8-.4 2.2-1.5 3.3-2.1 1.7-2.1 1.7-1.5 0 .4-1 .7-2.5.7-3.3 0-1.8 1.6-1.8 2.3 0m-14.6 17.8c-.3.8-.6.5-.6-.6-.1-1.1.2-1.7.5-1.3.3.3.4 1.2.1 1.9m-9.7 7.7c0 1.6-6.8 6.7-7.7 5.7-.3-.2-.2-1.8.2-3.4.5-2.4 1-2.9 2.7-2.4 1.9.5 2.1.2 1.5-2.9l-.7-3.4 2 2.4c1.1 1.3 2 3.1 2 4m-11.9 7c.7-1.2.9-1.1.9.3 0 1.6-3.5 4.8-5.2 4.8-1 0-1-6.2-.1-8.6.6-1.5.9-1.2 2.1 1.6 1 2.6 1.6 3 2.3 1.9m39.9 69.2c0 1.9-.1 1.9-2.6.2-2.4-1.5-2.5-1.7-.8-2.4 2.5-.9 3.4-.2 3.4 2.2m-51.5 47.5c1.7 14.6 2 26.8.6 26-.4-.3-2.1-4-3.6-8.3s-3.1-8.3-3.6-8.8c-1.1-1.5.9-19.3 2.8-26 .5-1.7.7-1.6 1.4.9.5 1.6 1.5 8.9 2.4 16.2"/></svg>