<svg xmlns="http://www.w3.org/2000/svg" width="682.667" height="512" version="1.0" viewBox="0 0 512 384"><path d="M83.5 2.3c36 20.8 59.9 32.1 89.4 42.2 4.6 1.6 7.8 3.1 7.2 3.3-1.3.4-21.8-3.4-28.5-5.4-2.7-.8-5.1-1.4-5.4-1.4-.2 0 .8 1.4 2.2 3.1 1.4 1.6 4.2 6 6.3 9.7 2.3 4.2 6.5 9.4 11.2 14 7.3 7 7.4 7.2 3.4 5.2-2.4-1.1-4.3-1.8-4.3-1.6 0 .9 14.3 8.9 29 16.3 8 4 13.7 7.3 12.7 7.3-2.2 0-26.2-7.7-30-9.7-1.6-.8-3.1-1.3-3.3-1.1s.5 2.1 1.6 4.1 1.9 4 1.8 4.4c-.1.5.2 2.1.7 3.6.5 2 2.2 3.5 5.6 5.3 5.7 2.9 6.5 4.1 1.2 1.9-2-.8-3.8-1.3-4-1.1s.9 5 2.6 10.7c3.6 12.5 6.6 29.2 8.1 45.4.7 6.6 1.4 12.3 1.6 12.7.3.5 1.6.8 2.9.8 1.2 0 8.1 1.3 15.1 2.9 29.7 6.7 58.2 9.3 79.4 7.2 6.3-.7 15.2-1.5 19.8-1.8l8.3-.6-.3 3.7c-.3 3.4 0 3.9 3.5 5.9 7.1 4 6.2 4.4-16.3 6.7-6.3.6-18.8 2.2-27.7 3.6s-24.4 3-34.5 3.7l-18.3 1.2 18 5.2c16.2 4.7 44 12.1 60 16 5.7 1.4 6.7 1.3 22-1.7 44-8.5 53.7-10.2 73.5-13.1 10-1.4 22.1-2.2 38.8-2.6 25.6-.6 28.4-.3 51.9 4.3 6.7 1.3 14.7 2.3 17.8 2.3l5.5-.2V0H323C147.8 0 134 .1 134 1.7c0 1.4-.3 1.4-2.2-.3-2.3-1.9-2.3-1.9-.5.2 1.9 2.3 2.1 3.3.7 5.4-.7 1.2-1.3 1.1-3.4-1-2.4-2.1-3.8-1.7-1.7.5.5.6 1.2 2.1 1.6 3.5.7 2.2.6 2.3-.9 1.1-1.4-1.1-1.6-1.1-1.6.1 0 2.8-5.5 1.4-8.9-2.3-1.8-1.9-2.9-2.7-2.5-1.9s-.5.4-1.9-.9c-1.5-1.4-2.7-1.9-2.7-1.3 0 1.1-2-.2-5.5-3.6C103.6.4 99.4 0 91.3 0H79.5z"/><path d="M136.5 43.8c3.9 2.8 9.9 7.5 13.5 10.4l6.5 5.3-6.9-7.7c-8.5-9.4-11.6-11.8-16.4-12.5-3.6-.5-3.6-.5 3.3 4.5M64 68.5c0 1.4-.4 2.5-1 2.5-.5 0-1-.6-1-1.4s-.4-1.8-1-2.1c-1.9-1.2 1 4.7 3.3 6.6C66.5 76 73.4 80 74.5 80c.9 0-2.7-5.3-6.7-9.7-3.6-4-3.8-4.1-3.8-1.8m82.2 6c1.5 1.6 12.5 6.5 14.2 6.4 1.4 0 .7-.6-1.9-1.5-2.2-.9-5.7-2.4-7.8-3.5-3.8-1.9-5.5-2.4-4.5-1.4m-60.4 8.2c.4 2 3.4 4.3 5.8 4.3 1.1 0-1.7-3.9-3.9-5.3-2.3-1.5-2.4-1.5-1.9 1m-5 8.4c-1.5.9 23.2 26.4 25 25.8.7-.2-1.1-4.9-4.5-11.8-5.8-11.5-8.1-13.9-12.5-12.8-1 .3-1.6.2-1.3-.3.7-1.1-5.1-1.8-6.7-.9m6.1 21.2c1.1 1.4 14.1 10.5 16.4 11.5.4.2.7-.3.7-1.2 0-1.3-7-5.9-16-10.6-2.3-1.2-2.4-1.2-1.1.3m-11.1 3.3c-.3.3 2.8 6.1 6.9 12.9 7.4 12.3 7.6 12.5 11.2 12.5 4.8 0 5.7-.8 6.5-5.5.4-2.2 1-5 1.2-6.1.6-2.3.1-2.6-16.1-9.9-3.3-1.5-6.7-3.1-7.6-3.6s-1.9-.6-2.1-.3m103.6 94.2c.9 1.5 37 19.1 45.6 22.2 11.9 4.4 41 8.7 41 6.1 0-.8-3.4-3.4-7.5-5.7-1.1-.5-4-2.2-6.5-3.5-14.3-8-38.1-15.4-59-18.4-12.1-1.7-14.3-1.8-13.6-.7M0 213.7c0 3 .2 3.4 1.5 2.3 1.9-1.6 1.9-4.6 0-5.4-1.2-.4-1.5.3-1.5 3.1m248 134.8c0 2.1-8.3 18.5-11.2 22.1-1.3 1.6-2.9 4.1-3.6 5.6-.6 1.6-1.8 2.8-2.6 2.8-1.9 0-2.8 2.6-1.2 3.9.9.8 23.1 1 74.2.9l72.9-.3-19-3.4c-37.4-6.6-74.6-17.4-97.4-28.2-11.4-5.4-12.1-5.6-12.1-3.4m-248 30v5.5l20.8-.1c18.9-.1 20.3-.2 15.7-1.4-2.7-.7-6.3-1.4-7.8-1.4-1.5-.1-8.3-1.9-15.1-4.1-6.7-2.2-12.6-4-12.9-4-.4 0-.7 2.5-.7 5.5"/></svg>