<svg xmlns="http://www.w3.org/2000/svg" width="682.667" height="512" version="1.0" viewBox="0 0 512 384"><path d="M358.2 16.4c-5 1.3-10.1 3.1-11.1 4s-2.7 4.8-3.7 8.7c-1.1 4.2-2.4 7.1-3.3 7.4-.9.2-5.2.9-9.6 1.4-14.2 1.8-20.8 5.3-32.9 17.5-7.2 7.4-10.1 12.3-11.2 19.6-.4 2.5-1.3 5.8-2.1 7.5l-1.4 3L286 82c3.5-4 3.6-4 1.1 2.5-1 2.7-2.1 7.5-2.5 10.5l-.6 5.5 2-4 1.9-4V96c-.2 5.9.1 7.1 1.1 6.5.6-.3 1 .2 1 1.2 0 1.5.2 1.6 1 .3.7-1.1 1-.7 1 1.8 0 2 .4 3.1 1 2.7.6-.3 1-1.7 1-3s.4-2.6.9-2.9c1-.7 2.4 10.1 1.5 11.6-.4.6-2.6 1.9-5 3-2.4 1-4.4 2.5-4.4 3.3s1.4 3 3.1 5c2.7 3 3 3.9 2.4 7.4-.4 2.4-.2 4.1.4 4.6.6.3 1.1 1.7 1.1 3s.4 2.6.9 3c.5.3 1.3 3 1.6 6 .4 3 1.4 6 2.3 6.7 1 .9 4.8 1.3 11.1 1.3h9.6l.7 4c.4 2.2.7 7 .7 10.6.1 6.2-.1 6.8-2.6 8.4-1.6 1-6.2 5.1-10.3 9.1-4.4 4.2-8.7 7.5-10.5 7.9-4.2 1-9.4 6.2-10.1 10.2-.3 1.8-2.2 5-4.1 7.1-4.2 4.5-6.3 9-6.3 13.4 0 1.8-1.1 5.4-2.5 8-1.5 2.9-2.4 6.1-2.3 8.5.1 4.9-2.2 10.9-6.8 17.4-2.3 3.3-3.4 5.8-3.1 7.1.6 2.2-.1 4.8-1.3 4.8-.4 0-3.3-6-6.5-13.2-3.2-7.3-6.9-15.5-8.2-18.1-1.9-3.8-2.6-7.5-3.4-16.8-.5-6.5-1.4-13.1-2-14.6l-1-2.6 17.8.6c9.8.3 19.4.3 21.3-.2l3.5-.8-2.5-1.1c-1.4-.7-11.2-2.3-21.9-3.7l-19.4-2.5-3.5-4c-1.9-2.3-5.1-5-7.3-6-3.7-1.9-9.9-2.7-11.2-1.4-.3.4-2.5.7-4.8.8-2.9.2-4.6.9-5.8 2.4-3.2 4.3-7.8 5.9-15.8 5.4-4.7-.3-7.3-.1-7.3.6 0 1.5 6.7 5.2 9.4 5.2 2.3 0 3.7 2.6 6.1 10.7.4 1.4 1.7 2.5 3.3 2.9 4.6 1 5.2 1.3 6 3.1.4 1 2.4 4.7 4.4 8.3 2.5 4.4 4.4 9.7 5.8 16.5 1.2 5.4 4.5 16.4 7.2 24.3 2.8 7.8 4.8 14.5 4.5 14.8-1.3 1.4-6.9-3.1-10.8-8.6-2.3-3.3-5.8-7.2-7.8-8.7-15.6-11.6-26.2-21-30.7-27-2.8-3.7-10.8-14.5-17.7-23.9-12.5-16.8-12.7-17-16-16.6-2.8.3-3.8-.1-5.5-2.3-1.1-1.4-2.3-3.1-2.5-3.8-.3-.9-.9-.9-2.5 0-1.3.8-2.3.9-2.7.3-1.2-1.9-2.3-1-3 2.2-.4 1.8-1.6 4.8-2.6 6.6s-1.9 3.8-1.9 4.3c0 .6 5.9 8.9 13.1 18.4 11.7 15.6 12.9 17.7 11.9 19.6-1 1.8-.6 3.3 2.3 9.3 1.9 3.9 3.8 9.2 4.1 11.7.7 4.5 8.6 22.1 10.5 23.3.5.4 3.6 1.1 6.8 1.7s7.2 1.9 8.8 2.9c1.7.9 8.2 3.4 14.5 5.5 15.6 5.1 18.6 6.7 21 11.5 3 5.9 6.8 9.2 26.3 23 9.7 6.9 17.7 13 17.7 13.6 0 .5-1.4 2.3-3 3.9-5.1 4.9-6.4 13.3-3 20 1.1 2.2 2 5.9 2 8.2v4.3h136v-2.5c0-5.7-9.4-19-14.4-20.3-3-.8-3.1-1-4.7-10.3-3-16.8-5-38.4-4.8-50.3.3-10.3.1-11.9-1.8-14.4-1.1-1.5-3-2.8-4.2-3-2.1-.3-2.6-1.7-1.5-4.5.5-1.3 1.1-1.1 4.1.9 3.2 2.1 4.7 2.4 13 2.4 9 0 9.4-.1 8.8-2s-.2-2 6-2c5.6 0 6.6-.3 6.1-1.5-.3-.8-.9-2.2-1.2-3-.5-1.2.5-1.5 6.2-1.5 6.9 0 8.9-.6 8.9-2.5.1-2.7 3-9.6 4.6-11.1s1.8-1.3 2.3 2.8c.3 2.3.7 5.6.8 7.3l.3 3 2.2-3.5 2.3-3.5v3.1c0 1.7-.6 4.9-1.4 7-1.5 4.3-4.2 21.2-3.5 21.9.3.2 2.9-2.7 5.8-6.6 3-3.8 5.5-6.8 5.7-6.6s-.1 1.9-.7 3.8c-1.2 4.1-3.9 23.2-3.8 27.4 0 2.7.1 2.8 1.2 1.2 3.7-5.7 3.8-5.5 3.2 3.8-.3 4.9-.2 11 .2 13.5l.8 4.5 4.4-6.3c2.4-3.4 4.5-6.2 4.6-6.2s-.3 2.4-1 5.3-1.5 8.3-1.9 12.1c-.8 6.7-.8 6.8 1.4 5.6 1.2-.6 4.4-3.3 7.1-5.9 3.5-3.3 4.7-4.1 4.4-2.6-.3 1.1-1.4 5.6-2.5 10-2.6 10.7-2.5 11.7 1.1 7.5 3.4-3.9 3.2-4.4 1.4 4.5-.7 3.3 1 3.2 3.2-.2l1.8-2.7.6 2.9c.5 2.9.6 2.9 1.8-1.5 1.4-5 8.2-20.2 8.8-19.6.2.2-.7 4.4-2.1 9.2-2.9 10.5-7.1 33.3-6.2 34.1.3.3 1.2 0 2.1-.7 1-.8 1.5-.9 1.5-.1s6 1.1 20.4 1.1h20.3l.7-5.8c.3-3.1 1.5-8.2 2.6-11.2 1.9-5.3 1.9-8.7 2-83.2V206l-4.2-2.1c-28.5-14.5-52.7-35.7-69.8-61.3l-5.3-7.9-1.9 4.9c-1.1 2.7-3.2 6.1-4.8 7.7-1.6 1.5-4.2 4.9-5.7 7.5l-2.8 4.7-.6-6.5c-2.8-28-3.1-33.7-2-38.8 2.1-10.1 1.4-20.2-2.3-33-1.9-6.4-3.8-12.6-4.3-13.7-1.5-3.7-7.4-13.5-8.2-13.5-.4 0-2.4-2.1-4.5-4.6l-3.8-4.6 1.2-5.9 1.3-5.9-4.4-5.6c-2.4-3.1-6.7-7.4-9.5-9.5-6.1-4.6-8.5-4.8-22.2-1.5m52.9 146.1c-.6 1.3-3.2-8.9-3.8-15-.2-2.9.1-6.3.8-8 1.2-2.8 1.4-2 2.4 9.5.6 6.9.8 12.9.6 13.5m-1.7 5.1c.3.8.2 1.2-.4.9s-1-1-1-1.6c0-1.4.7-1.1 1.4.7M397 183.5c0 .8-.4 1.6-.9 1.9s-.8-.5-.8-1.9.3-2.2.8-1.9.9 1.1.9 1.9M379 198c0 .5-.5 1-1.1 1-.5 0-.7-.5-.4-1 .3-.6.8-1 1.1-1 .2 0 .4.4.4 1m-9.2 6.7c-.6.7-1.4 1.3-1.8 1.3-1.4 0-1.9-4.2-.7-6.1 1.1-1.9 1.3-1.8 2.4.8.8 1.9.8 3.2.1 4m43.7 61.4c1.2 1.9-.5 2.3-2.2.6-1.6-1.6-1.6-1.7-.1-1.7.9 0 2 .5 2.3 1.1M362 299.9c1.3 4.9 4 29.7 4 37 0 6.9-.9 6-5.4-5.6-3.6-9-3.6-9.2-2.7-17.5 1.4-11.7 2.3-17.8 2.7-17.8.2 0 .8 1.8 1.4 3.9m148.1 74c-1.4 9-1.4 10.1.4 10.1 1.2 0 1.5-1.6 1.5-8.5 0-4.7-.2-8.5-.4-8.5-.1 0-.8 3.1-1.5 6.9"/></svg>