<svg xmlns="http://www.w3.org/2000/svg" width="682.667" height="512" version="1.0" viewBox="0 0 512 384"><path d="M360.2 16.5c-5.6 1.2-11.1 3-12.1 3.9s-2.6 4.7-3.6 8.4-2.3 7-2.8 7.4c-.6.3-4.2.9-8.1 1.3-13.7 1.2-20.4 4.1-31.5 13.5-8.1 6.8-13.7 15-15.1 21.8-.7 3.1-1.9 7-2.7 8.5-2.1 4-1 4.4 1.7.7s3.7-3.3 1.7.7c-.8 1.5-1.8 5.1-2.2 7.8-.4 2.8-.9 5.9-1.1 7-.3 1.1.5.4 1.6-1.5l2.1-3.5-.5 3.7c-.3 2.6.1 4.3 1.3 5.7 1 1.1 2.1 1.8 2.5 1.4.3-.3.6.8.6 2.6 0 4.4 1.6 3.1 2.4-2 .4-2.3.8-4 1-3.8s.7 3.5 1.1 7.2l.7 6.8-5.1 2.1c-2.8 1.2-5.1 2.8-5.1 3.6s1.4 3.2 3.1 5.4c2.8 3.4 3 4.2 2 6.4-.8 1.9-.8 3 .1 4.7 1.6 2.9 3.7 10.5 3.8 13.7 0 1.4.7 3.6 1.6 4.8 1.4 2 2.3 2.2 11 2.2 11.1 0 10.8-.4 11.7 12.7l.5 8.2-5.6 4.8c-3.1 2.6-8.3 7.2-11.4 10-3.2 2.9-6.7 5.3-7.9 5.3-3 0-7.5 5-9 10.1-.8 2.4-2.5 5.4-4 6.6-3.4 2.9-7.2 11.8-6.5 14.9.5 1.8-.1 3.5-1.9 5.8-2.1 2.7-2.6 4.4-2.4 8.3.2 5.6-1.9 10.8-7 17.8-2.2 3.1-3.6 6.1-3.6 8 0 5.4-1.7 4.1-5.2-4-1.9-4.4-5.5-12.6-8-18.2-4-9.1-4.6-11.5-5.3-20.7-.5-5.7-1.2-12-1.5-13.9l-.7-3.6 20.6.6c14.6.4 20.6.3 20.6-.5 0-.6-.8-1.3-1.7-1.6-3.1-1-33.1-5.6-36.2-5.6-2.4 0-4.3-1.3-8.8-5.8-6.5-6.5-13.2-9.4-17.1-7.3-1.1.6-3.6 1.1-5.6 1.1-2.2 0-4.5.9-6.3 2.4-5.4 4.5-8.8 5.7-14.7 5-3-.4-6.3-.4-7.2 0-1.5.6-1.2 1 1.7 2.8 1.9 1.2 4.7 2.4 6.3 2.7 2.4.5 3.1 1.5 5 7.1 1.9 5.9 2.4 6.5 5.4 7.1 1.8.4 3.4.8 3.6 1 .6.9 6 10.7 7.8 14.2 1.1 2.1 2.5 7.4 3.3 11.8s3.9 15.4 7 24.5c3 9.1 5.5 16.7 5.5 17 0 .2-1.7-.4-3.8-1.5-2.2-1.1-5.4-4.3-7.9-7.9-2.7-3.8-7-8-12-11.6-14.5-10.5-22.2-17.1-26.5-22.6-7.1-9.2-17.7-23-24.5-32.3-6.2-8.2-6.8-8.7-10.3-8.7-3.1 0-4.1-.6-6.1-3.4-1.8-2.7-2.7-3.2-4-2.5-1 .5-2.4.7-3.1.4-.9-.4-2.4 1.9-4.6 6.5l-3.3 7 8.3 10.8c4.5 5.9 10.4 13.5 13.1 17 4.4 5.6 5 6.9 5.1 11.5.2 3.8 1 6.6 3.3 10.3 2.1 3.4 3.1 6.4 3 8.7-.1 2.5 1.5 6.7 4.9 13.4 4.7 9.4 5 9.8 8.9 10.6 2.2.4 6 1.5 8.5 2.4s10.4 3.5 17.5 5.9c18.9 6.4 19.7 6.8 22.5 12.2 2.8 5.2 9.8 11.2 30.4 25.6 7 5 13 9.4 13.3 9.9s-.8 2.3-2.5 4c-5.6 5.8-6.7 13.2-3.2 20.2 1.1 2.2 2 5.9 2 8.2v4.3h136v-2.5c0-1.4-.9-4.3-1.9-6.3-2.8-5.4-10.8-14-13.4-14.4-1.8-.3-2.4-1.3-3.4-6.8-2.9-15.3-5.3-39.2-5.3-52.2 0-13.4-.1-14-2.5-16.3-1.3-1.4-3.1-2.5-3.9-2.5-1 0-1.4-1-1.4-3l.1-2.9 3.1 2.2c2.5 1.8 4.8 2.3 11.9 2.6 10.1.4 12.5-.2 10.7-2.4-1-1.2-.1-1.4 5.7-1.7 6.7-.3 7.1-.6 5.8-4.1-.6-1.5 0-1.7 5.6-1.8 7.9-.1 9.4-.7 9.6-4 .2-4 3-9.9 4.7-9.9 1.2 0 1.6 1.5 1.8 6.7l.3 6.8 2.3-3.5 2.3-3.5-.5 4.5c-.2 2.5-1.1 7.2-1.9 10.5-2 8.6-2.9 16.5-1.9 16.5.5 0 2.1-1.7 3.5-3.8 1.5-2 3.8-5.1 5.3-6.7 2.6-2.9 2.6-3 2-.5-3.1 13-5.1 31-3.5 31 .5 0 1.5-1.2 2.2-2.7 1-2.4 1.2-1.1 1.5 9.9.1 7.1.6 12.8 1.1 12.8s2.6-2.5 4.6-5.5c2.1-3 3.9-5.5 4-5.5s-.4 2.7-1.1 6c-.6 3.2-1.5 8.7-1.9 12-.7 5.9-.6 6.1 1.2 5.2 1.1-.6 4.3-3.3 7.1-5.9 2.9-2.7 5-4.2 4.7-3.3-.8 2.4-4.5 19.4-4.5 20.5.1.5 1.4-.6 3-2.5l2.9-3.5-.5 4c-.3 2.2-.7 4.9-.9 6-.3 1.5.4 1.1 2.6-1.5 2.7-3.2 2.9-3.2 2.9-1.2 0 3.7 1.6 1.7 3-3.5 1.1-4.5 6.9-16.7 7.6-16 .2.2-.4 2.5-1.2 5.2-2.5 8.3-5.4 22.5-6.1 30.5-.6 7.2-.6 7.4 1.2 6 1.1-.9 1.6-1 1.1-.3-.6 1 3.7 1.3 20.2 1.3h20.9l.7-6c.4-3.3 1.4-7.2 2.2-8.7 1.6-2.8 1.6-2.8.9 1.7-1.9 13.8-1.9 13 .4 13h2.1V206.5l-8.8-4.9c-18.2-10.1-28.3-17.7-42.8-32.1-10-10-16-16.9-20.9-24.2-6.3-9.5-8.5-11.4-8.5-7.7 0 2.4-3 7.7-6.4 11-1.7 1.7-3.8 4.1-4.7 5.4-1.4 2.2-1.7 1.2-3.8-16.3-1.8-15.1-2.1-19.6-1.2-23.7 2.5-11.7.6-26.3-5.6-44-1.7-4.7-6.9-13.8-8.9-15.5-.6-.6-2.8-2.8-4.7-5.1l-3.6-4.1 1.6-5.6 1.5-5.6-4.8-6.6c-5.3-7.2-13.5-13.5-17.4-13.4-1.4 0-7.1 1.1-12.8 2.4m51.4 134c1.1 13.2 1.1 14.5 0 14.7-1.3.4-4.6-12.5-4.7-17.8 0-2.2.5-6.1 1.2-8.5l1.2-4.4.8 3c.4 1.6 1.1 7.5 1.5 13m-2.8 19c-.3.3-.9-.2-1.2-1.2-.6-1.4-.5-1.5.5-.6.7.7 1 1.5.7 1.8m-13.2 15.1c-.4.9-.9 1.5-1.1 1.2-.3-.3-.3-1.3.1-2.2s.9-1.5 1.1-1.2c.3.3.3 1.3-.1 2.2m-18.4 14.6c-.7.7-1.2.8-1.2.2 0-1.4 1.2-2.6 1.9-1.9.2.3-.1 1.1-.7 1.7m-8.5 5.6c-1.6 2-3.1-1.2-2.2-4.6l.8-2.7 1.2 3c1 2.2 1 3.4.2 4.3m44.7 61.7c.3.8.2 1.5-.3 1.5s-1.4-.7-2.1-1.5c-1-1.2-1-1.5.3-1.5.8 0 1.7.7 2.1 1.5m-50.8 37.2c1.4 6.8 3.2 38.2 2.1 37.3-.3-.3-2.2-4.6-4.2-9.5-3.2-8-3.6-9.7-3-15 .9-9.5 2.7-20.6 3.3-20 .3.2 1.1 3.5 1.8 7.2"/></svg>