<svg xmlns="http://www.w3.org/2000/svg" width="682.667" height="512" version="1.0" viewBox="0 0 512 384"><path d="M361.5 13.7c-19.8 4.4-21.4 5.4-23.5 15.2-.7 3.4-1.6 6.4-2 6.6-.5.3-4.3 1-8.6 1.5-15.3 2.1-23.5 6.2-34.7 17.4-7.2 7.3-10.4 12.9-11.3 20.1-.4 2.8-1.3 6-2 7.2-2.1 3.4-1.7 3.9 1.3 1.2 2.3-2.1 2.5-2.2 1.9-.4-1.5 4-3.7 14.7-3.3 15.9.2.6 1.2-.5 2-2.4l1.6-3.5v3c-.2 5.2.3 10.1.8 8.3.4-1.6.5-1.6 2.2.1 1 1 2.1 2.6 2.6 3.7.7 1.6 1 1.2 1.5-2.1q1.05-6.6 2.4 3c.7 5-.1 6.3-5.5 8.9-2.4 1.2-4.5 2.6-4.7 3.3-.1.6 1.1 2.7 2.9 4.7 2.6 3 3 4.2 2.5 6.7-.4 1.9 0 4.1.8 5.8 2 3.7 3.6 8.9 3.6 12 0 1.5.7 3.7 1.6 4.9 1.4 2 2.3 2.2 11.3 2.2 7.4 0 10 .3 10.4 1.4.3.7.8 5.4 1.2 10.4l.8 9.1-3.4 2.8c-1.9 1.5-6.8 6-11 10-4.1 4-8.3 7.3-9.1 7.3-3.8 0-10.8 8.3-10.8 12.9 0 3.2-1.5 3.3-9.7.8-4.3-1.4-13.5-3.9-20.4-5.7l-12.6-3.3-2.4-4.6c-2.7-5.1-10.1-10.4-14.6-10.4-5.7 0-13 1.6-18.2 4-4.3 2-6.3 2.4-9.5 1.8-9.5-1.6-10.6-1.7-10.6-.8 0 1.2 5.9 5.6 8.5 6.3 1.8.5 3.4 4.4 4.9 12.1.4 1.9 1.5 2.9 4.3 3.7 3.4 1.1 4.2 2.1 7.6 9 2.8 5.7 4.3 10.7 5.7 19.2 1.1 6.3 4.5 19.6 7.4 29.5 3 9.9 5.3 18.1 5.1 18.4-1.2 1.1-7.7-3-13.5-8.5-3.6-3.3-9.4-7.7-13-9.6-3.6-2-9.9-5.7-14-8.2s-8.1-4.6-8.9-4.6-11.6-10.1-24.1-22.5c-19.2-19.2-22.8-22.4-24.8-21.8-1.6.4-3-.1-4.6-1.6-2.1-1.9-2.4-2-3.6-.6-.7.8-2 1.3-2.9 1-2.4-.7-8.6 11.6-7.2 14.3.6 1.1 7.8 8.3 16 16.1 11.4 10.9 14.8 14.7 14.4 16.1-.8 3.1.4 6.3 4.2 11.3 1.9 2.5 3.5 5.5 3.5 6.5 0 2.7 4.8 11.7 9.9 18.6 3.9 5.3 4.4 5.6 8.4 5.6 2.4 0 8.5 1.1 13.7 2.4s12.9 2.9 17 3.6c13.3 2 16.8 3.6 20.1 8.9 3.1 5.2 10.5 10.9 30.2 23.1 6.4 4 11.7 7.7 11.7 8.1s-.9 1.4-2 2.2c-5.1 3.6-6.8 15.3-3 21.5 1.1 1.8 2 5 2 7.2v4h136v-2.3c0-5.4-10.4-19.4-15.1-20.4-3.2-.6-3 .1-6-19.3-1.3-8.6-2.3-20.9-2.6-33.7-.5-19.7-.6-20.4-3-22.9-1.8-1.9-3-2.4-4.8-2-2.3.6-2.4.4-1.8-2.6.3-1.8.7-3.5.9-3.6.1-.2 1.6.7 3.4 1.9 2.3 1.8 4.8 2.4 10 2.7 9.2.5 12.3-.2 11.5-2.8-.6-1.9-.1-2 5.9-2 7 0 7.2-.1 5.6-3-.9-1.7-.6-2 2.5-2.6 1.9-.3 4.5-.4 5.6-.1 1.2.3 3.3.1 4.8-.4 2.4-1 2.5-1.1.9-2.3-2.2-1.6-2.3-3-.3-4.6.9-.7 1.3-2.1 1-3-.7-2.2 2.5-3.7 3.7-1.8.4.7.8 3 .8 5 0 3.8 1.3 5.1 2.4 2.3.3-.8 1-1.5 1.7-1.5 1.3 0 .8 5.1-1.4 12.5-.8 2.7-1.8 7.9-2.1 11.5l-.7 6.5 3.8-4.5c2.1-2.4 4.8-5.6 6-7l2.3-2.5-1.5 4.3c-1.7 5.2-4.8 25.2-4.3 28.4.3 2 .6 1.8 2.6-1.9 1.2-2.4 2.3-4.3 2.5-4.3.1 0 0 6.2-.2 13.7l-.3 13.8 2.1-1.9c1.2-1.1 3.1-3.5 4.2-5.3 1.2-1.9 2.3-3.3 2.4-3.1.2.2-.3 3-1 6.3-.6 3.3-1.5 8.4-1.9 11.3l-.7 5.4 3.1-1.9c1.8-1 5.2-3.9 7.6-6.5s4.4-4.6 4.4-4.5c-.1.1-1.4 5.1-2.9 11.2-1.6 6-2.7 11.2-2.5 11.4.2.3 1.6-.6 3.1-2 2.3-2.1 2.5-2.2 1.9-.4-1.4 3.6-1.9 8.5-.9 8.5.5 0 1.7-1.5 2.8-3.3l1.9-3.2.6 2.9.5 3 1.3-2.8c.6-1.5 1.2-3.3 1.2-3.9 0-1.5 7.7-17.7 8.4-17.7.2 0-.6 3.5-2 7.7-2.4 8-7.4 31.6-7.4 35.4 0 1.8.2 1.9 1.5.9 1-.9 1.5-.9 1.5-.1s6.1 1.1 20.9 1.1h20.9l1.3-9c1.4-10.8 3.6-13.8 2.5-3.6-.4 3.7-.9 8-1.3 9.6l-.5 3H512V208.5l-11.3-6.3c-28.8-16.2-52-37.7-67.1-62.3l-3.8-6.3-1.9 4.8c-1 2.8-3.7 6.7-6.3 9.3-2.5 2.5-4.6 4.9-4.6 5.4s-.4.9-.9.9-1.4-4.2-2-9.4c-.7-5.2-2.1-13.5-3.1-18.5-1.3-6.6-1.6-10-.9-12.8 2.1-8.5 1.1-20.5-2.7-34-4.7-16.6-6.4-19.9-15.8-29.8-4.2-4.4-4.7-5.4-4.2-8.3 1.8-10.2 2-9.4-2.8-15.4-7.9-9.9-15.4-13.8-23.1-12.1M408.4 146c2 14.1 2 18.4.2 19.9-1.2 1-1.6.2-2.6-4.6-.6-3.2-1.5-7.1-2.1-8.7-1.2-3.9-1.1-9.3.2-15.7 1.5-6.9 2.3-5.2 4.3 9.1m-3 23c-.7.6-2.4-2.2-2.3-4 0-.9.6-.5 1.4 1 .7 1.4 1.1 2.7.9 3m-13.8 16.8c-1.5 1.5-1.6 1.3-1.6-2.3 0-3.9 0-3.9 1.6-1.6 1.5 2.1 1.5 2.4 0 3.9m-17.1 11.3c.4.6-.1 1.6-1.1 2.4-2.3 1.6-2.5 1.5-1.7-1.3.6-2.4 1.8-2.8 2.8-1.1m-9.9 3.4c.7 2.2.8 3.8.2 4.1-1.3.9-1.8.1-2.5-4-.7-4.6.9-4.7 2.3-.1M270.2 215l8.6 1.2-2.4 3.5c-1.3 2-2.4 5-2.4 6.8s-1.2 5.4-2.6 8.1c-2.2 4.1-2.5 5.8-2.1 10.1.5 5.1.4 5.4-5.1 13-3.8 5.3-5.7 8.8-5.7 10.8 0 6.2-2.1 3.2-7.7-11.2-3.2-8.1-6.4-15.9-7.2-17.3-1-1.8-1.5-6.3-1.6-15.5-.1-7.2-.1-13.3-.1-13.6.1-.3 4.5.2 9.9 1.2 5.3.9 13.6 2.2 18.4 2.9m90.6 85.2c1.6 6.7 3.4 26.5 3 34.7l-.3 7.4-4.2-10.4-4.2-10.4 1.5-11c.8-6.1 1.6-12 1.7-13.2.3-3.1 1.3-1.9 2.5 2.9"/></svg>