<svg xmlns="http://www.w3.org/2000/svg" width="682.667" height="512" version="1.0" viewBox="0 0 512 384"><path d="M353.1 15c-6.3 1.6-12 3.5-12.8 4.3-.7.7-2.2 4.3-3.2 8.1-1 3.7-2.3 7.2-2.7 7.6-.5.5-5.4 1.6-10.8 2.5-14.1 2.2-20.8 5.8-32.1 17.2-6.6 6.7-10.7 14.1-11.1 20-.1 2.3-.7 5-1.3 6.2-1.8 3.3-1.2 4.5 1 2 1.8-2.1 2-2.2 1.4-.4-1.5 4.6-3.6 14.8-3.2 15.9.2.6 1.1-.3 2-1.9l1.6-3 .1 5.5c0 3.5.3 5 .9 4.1.7-1.1 1-.9 1.6.8.3 1.2 1 1.9 1.5 1.6.4-.3 1.1.5 1.5 1.8.7 2 .8 1.9 1.2-1.1.6-4.8 1.9-3.9 2.6 2s.2 6.8-5.3 9.3c-4.9 2.2-5.2 4.7-1 9 2.7 2.8 3 3.5 2 6-.8 2.1-.7 3.1.3 4.4 1.4 1.6 1.8 2.8 3.8 12.6.6 2.7 1.5 5.6 2.1 6.2.7.9 4.2 1.3 11 1.3 7.6 0 10 .3 10.4 1.4.3.8.9 5.4 1.2 10.3l.7 8.8-9.9 9.5c-6 5.8-11.7 10.3-14.7 11.7-5 2.2-8.9 7-8.9 10.7 0 1.1-.7 2.8-1.6 3.7-1.4 1.5-2 1.6-3.8.7-1.1-.6-9.9-3.5-19.5-6.3l-17.5-5.1-2.3-4.3c-2.7-5.2-4.1-6.4-11-9.7-4.1-2-5.7-2.3-7.2-1.5-1.1.6-3.7 1.1-5.9 1.1-2.3 0-6.2 1.2-9.7 3-3.2 1.6-6.2 2.7-6.7 2.4-2.2-1.4-10.7-3.1-11.8-2.4-1.3.8 3.9 5.6 7.5 7 2.1.8 3.1 3.3 4.9 12.2.5 1.9 1.5 3 4.1 3.8 3.1 1 4.1 2.3 7.6 9.2 3.1 6.2 4.2 9.8 5 16.5.9 7.4 11.7 48.5 13.4 51.3.3.6-.1 1-1 1-2.9 0-7.9-3.1-13-8.1-4.6-4.4-15.9-11.3-32.5-19.5-3.6-1.8-9-5.6-12-8.5s-13.1-12.4-22.4-21.3c-13.7-13.1-17.3-16-19.3-15.8-1.4.2-3.4-.5-4.4-1.4-1.6-1.4-2.1-1.5-3.5-.3-1 .8-2.4 1.3-3.3 1.2-1.1-.2-2.7 1.9-4.9 6.4l-3.3 6.6 8.3 8c4.6 4.4 11.9 11.5 16.3 15.7 5.1 4.9 7.9 8.4 7.7 9.5-.6 2.9.6 6 4.3 10.6 1.9 2.4 3.8 6 4.1 7.9.7 3.9 10.7 19.4 13.8 21.6 1.2.8 4.5 1.4 7.6 1.4 3 0 7.8.7 10.5 1.5 2.8.9 9.5 2.2 15 3.1 16.2 2.4 19.6 3.7 22.3 8.4 2.4 4.3 9.5 10.4 17.1 14.7 2.5 1.5 6.9 4.1 9.6 5.8 2.8 1.7 7.4 4.7 10.4 6.5l5.4 3.4-2.5 2c-3.8 3.1-4.8 5.8-4.8 12.8 0 4.6.5 7.1 2 9.3 1.1 1.6 2 4.7 2 6.7v3.8h67.5c62.1 0 67.6-.1 68.2-1.7 1.5-3.9-11.2-21.3-15.5-21.3-2.6 0-2.6-.3-5.2-17.9-2.6-17.9-3.8-34.4-3.2-43.8.5-8.6 0-11.1-2.9-14.1-1.6-1.8-2.8-2.2-4.6-1.7-2.4.6-2.5.4-1.9-2.6.3-1.8.8-3.4 1-3.7.3-.2 1.9.7 3.6 2 2.8 2 4.3 2.3 12 2.3 9.5 0 11-.6 9-3-1.1-1.3-.4-1.5 5.3-1.5 6.2 0 9-1.1 6.7-2.5-.5-.3-1-1.3-1-2.1 0-1.2 1.2-1.5 5.8-1.3 3.1.2 6.8-.1 8.1-.5l2.4-.8-2.4-1.9-2.4-1.9 2.2-1.9c1.2-1 2.1-2.6 2-3.7-.1-1 .6-2 1.6-2.2 1.4-.3 1.7.4 1.7 4.7 0 5.8 1.2 7.2 3 3.3l1.3-2.7.9 2.7c.7 1.9.5 3.5-.6 5.6-1.7 3.2-4.9 19.4-4.4 22 .2 1.1 1.8-.2 5.2-4.6 2.7-3.4 5-6.1 5.2-6 .1.2-.6 4.3-1.7 9.3-2 9.6-3.5 23.5-2.6 23.5.3 0 1.6-2 2.8-4.5s2.3-4.4 2.4-4.2c.1.1-.2 5.6-.6 12.2-.5 6.6-.6 12.8-.3 13.8.6 1.8.7 1.8 2.5.1 1.1-1 2.9-3.3 4-5.1 1.2-1.9 2.3-3.3 2.4-3.1.2.2-.3 3-1 6.3-2.4 11.9-2.7 15.5-1.3 15.5.8 0 4-2.3 7.1-5.1s5.7-4.8 5.7-4.4-.7 3.4-1.5 6.6c-.9 3.3-2 8-2.4 10.5l-.9 4.6 2.8-2.7 2.8-2.7-.9 3.8c-1.4 6.5-1 7.1 2.1 3.4 2.8-3.4 2.9-3.4 3-1 0 3.5 1.4 1.5 3.5-5 1.8-5.5 6.4-14.4 7.1-13.7.2.2-.3 2.4-1.1 4.8-2.1 5.7-6.2 24.8-7 32.4l-.6 6 2.1-2.5c2-2.3 2-2.3 1-.2l-1.1 2.2h21.6c18.4 0 21.5-.2 21.6-1.5.1-.8.2-1.8.3-2.3.1-.4.6-3.9 1-7.8 1.1-9.7 2.9-12.2 2.2-2.9-.3 3.8-.8 8.7-1.2 10.8l-.7 3.7H512v-88c0-55.8-.4-88-1-88-1.6 0-20.1-11-29.5-17.5-19.1-13.4-32-26.5-44.8-45.7l-7.2-10.7-2.1 4.7c-1.2 2.6-4.6 7.3-7.6 10.4l-5.5 5.7-1.7-12.2c-1-6.7-2.5-15.2-3.3-18.9-1.1-5.3-1.2-7.5-.3-10.2.6-1.9 1.3-6.9 1.6-11.2.4-7 0-9.3-3.7-21.8-4.5-15.4-7.7-22.3-12.7-27.3-1.8-1.8-4.6-4.8-6.3-6.7l-3-3.5 1.6-5.6c1.8-6.2 2.2-5.1-4.8-13.6-4-4.9-13.4-11.9-15.8-11.8-.8 0-6.5 1.3-12.8 2.9m54.4 133.8c1.5 11.7 1.5 19.5-.1 17.9-.3-.3-1.7-5.2-3.1-10.8-2.4-9.7-2.4-10.9-1.3-17.4 1.6-8.7 2.1-7.4 4.5 10.3m-2.7 17.7c.6 1.3.7 2.7.3 3-.5.3-1.4-.9-2-2.5-1.2-3.6.1-4 1.7-.5m-13.5 18.8c-2.1 2.3-2.6 1.6-1.8-2.3.6-2.9.8-3 2-1.3 1.1 1.5 1.1 2.1-.2 3.6m-7.6 5.9c-.3.8-.6.5-.6-.6-.1-1.1.2-1.7.5-1.3.3.3.4 1.2.1 1.9m-10.1 7.7c-1.9 1.9-3 .9-2.1-1.9.5-1.7.9-1.9 2.1-.9 1.3 1.1 1.3 1.4 0 2.8m-8.6 4.7c0 2.7-1.9 1.4-3-2.1-1.5-4.6-.2-6.8 1.6-2.5.8 1.8 1.4 3.9 1.4 4.6m-103.5 10.1c8.8 1.5 16.2 2.8 16.4 2.9.2.2-.6 1.6-1.8 3.3-1.2 1.6-2.6 5.3-3.1 8.2-.6 2.9-1.7 6-2.6 7-2 2.2-2.9 9-1.6 11.6 1 1.7.2 3.3-5.4 10.9-5.3 7.4-6.3 9.4-5.8 11.6.3 1.6.1 2.8-.4 2.8-.6 0-3.2-5.5-5.8-12.3-2.5-6.7-5.8-14.7-7.2-17.7-2.2-4.9-2.5-6.9-2.6-18.8-.1-12.8 0-13.3 1.9-12.7 1.1.3 9.2 1.7 18 3.2m99.3 87.8c1.6 7.5 3.4 29.2 3 35.9l-.3 5.9-4.3-11.2-4.4-11.2 1.6-12.2c.9-6.8 1.6-12.7 1.6-13.2 0-2.5 1.9 1.6 2.8 6"/></svg>