<svg xmlns="http://www.w3.org/2000/svg" width="682.667" height="512" version="1.0" viewBox="0 0 512 384"><path d="M350.8 14c-5.9 1.6-11.7 3.4-12.8 4-1.2.7-2.5 3.2-3.5 6.8-3.2 11.7-1.9 10.5-12.6 12.3-5.2.8-11.1 2.1-13 2.9-9.7 3.9-23.7 16.6-28.3 25.8-1.3 2.6-2.8 7.4-3.4 10.7-.5 3.3-1.3 6.9-1.7 8-.5 1.4.1 1.1 1.9-1 2.9-3.4 3.2-3.1 1.2 1.6-.8 1.9-1.7 6.3-2 9.9-.6 6.3-.6 6.4.8 3.2 1.9-4.1 2.4-4 2.3.3-.1 2.6.6 4 2.6 5.7 1.5 1.3 2.7 3.2 2.8 4.3 0 1.1.8 0 1.7-2.5l1.6-4.5.7 4c1.6 8.5 1.3 9.2-4.1 12-5.9 3-6.3 4.9-1.9 9.1 2.6 2.5 2.9 3.4 2.4 6.2-.5 2.5-.2 3.9 1 5.2.9 1 1.4 2.3 1.1 2.8-.3.6.1 2.3.9 3.8.8 1.6 1.5 4.4 1.5 6.1 0 2 .8 4.1 2.1 5.4 2 2 2.8 2.1 10.8 1.5 10.5-.8 10.6-.6 11.6 12l.7 8.9-8.2 7c-4.5 3.8-9 8.2-10 9.6-1.1 1.4-3.7 3.1-5.9 3.7-4.6 1.4-7.7 4.8-9.1 10.1-.5 2.1-2.4 5.3-4.1 7.2-1.7 1.8-3.8 5-4.6 6.9-.9 1.9-3.1 5.2-5 7.4-3.3 3.6-3.5 4.2-3.1 8.8l.5 5-7.5 8.4c-6.1 6.9-7.2 8.7-6.2 9.9 1.2 1.4.6 3.5-.9 3.5-.5 0-2.3-5.5-4-12.3-1.8-6.7-4.2-15.4-5.4-19.2-1.8-5.6-2.2-9.5-2.2-19.7 0-7.1.3-12.8.6-12.8s7.7 1.8 16.3 4c15.6 4 20.6 4.8 20.6 3.2 0-1.2-7.1-4.4-23.5-10.6-13.5-5.1-14.1-5.4-15.8-9.2-2.4-5.1-5.2-8-10.4-11.1-4-2.3-4.9-2.4-12-1.7-4.3.4-8.7 1.3-9.8 2-3 2-8.4 2-14.2 0-8.1-2.7-9.5-1.9-4.7 2.6 2.1 2.1 4.5 3.8 5.2 3.8 1.6 0 2.9 3.1 4.2 10.4.5 3.3 1.2 6.1 1.4 6.4.3.2 2.1 1 4.1 1.6 3.2 1.2 4.1 2.2 7 8.7 3 6.5 3.5 9.1 4.5 20.8.6 7.4 1.9 17.9 3 23.5 1 5.5 3 17.5 4.5 26.6 1.4 9.1 2.8 17.3 3.1 18.2 1.1 3.5-3.3 1.8-9.4-3.6-4.4-3.9-10.7-7.7-22.1-13.4-8.8-4.4-16.8-8.6-17.9-9.3-1.9-1.4-4.7-3.9-32.9-29.3-10.1-9.1-15.7-13.5-16.5-13-.7.5-2.5.7-3.9.6-1.4-.2-3.1.3-3.8 1.1-.6.8-1.9 1.3-2.9 1.1-1.2-.3-2.6 1.2-5 5.2-1.8 3.2-3.1 6.2-2.8 6.9.2.7 7.6 7.4 16.5 15.1 13.5 11.7 15.9 14.3 15.5 16.2-.5 2.7.6 5.1 5.7 11.6 2.2 2.7 3.9 5.7 3.9 6.8 0 2.5 1.4 5.1 6.3 11.8 7.9 10.7 8.4 11 15.1 11 3.4 0 7.7.5 9.6 1 1.9.6 9.6 2 17 3.1 18.9 2.8 19.8 3.1 24.7 8.8 3.6 4.1 6.6 6.1 17.9 11.6 7.5 3.6 14.7 7 16 7.5 2.4 1 2.4 1 .7 3.7-2.7 4.1-2.5 13.9.5 18 1.3 1.8 2.2 3.8 2.1 4.5s-.1 2.3 0 3.5l.1 2.3h68c67.8 0 68 0 68-2 0-5.2-12.1-21-16.1-21-2.2 0-2.2 0-5-17.5-1.4-8.6-2.3-19.9-2.6-33.5-.3-11.3-.9-21.3-1.5-22.3-1.5-2.9-5.4-5-7.5-3.9-1.7.9-1.8.6-1.5-2.9.2-2.1.6-3.9.7-3.9.2 0 2.1 1 4.2 2.2 3.2 1.9 5.1 2.2 12.1 2.1 4.7-.1 8.7-.5 9-.8.4-.3 0-1.5-.7-2.7-1.2-2-1.1-2 5.8-1.6 5.2.3 7.1 0 7.1-.9 0-.6-.5-1.5-1-1.8-2.1-1.3.3-2.5 5.3-2.6 2.9-.1 6.3-.4 7.7-.8l2.5-.7-2.7-1.8c-3.5-2.3-3.5-3.4-.3-4.2 1.5-.4 2.4-1.2 2.2-2.3-.1-.9.3-1.8.8-2.1.6-.3 1.2 1.8 1.5 5l.5 5.5 2.3-4 2.2-4-.4 5c-.2 2.7-1.3 8.1-2.4 12-2.3 8.3-3.3 15.5-2.2 15.5.4 0 2.7-2.5 5-5.6 2.3-3 4.4-5.3 4.6-5.1.3.3-.2 3.1-1 6.3-1.8 7.4-4.1 24.3-3.3 25 .3.3 1.5-1.3 2.7-3.6s2.3-4 2.5-3.8 0 6.1-.5 13.3c-.5 7.1-.6 13.3-.3 13.8.2.4 2.3-1.5 4.6-4.3 2.2-2.7 4.2-4.9 4.3-4.7.1.1-.4 2.5-1.1 5.3-.7 2.9-1.7 7.8-2 10.9l-.8 5.8 3.3-1.9c1.8-1.1 5.3-4.2 7.7-6.9 3.3-3.6 4.4-4.3 3.8-2.7-1.5 5-5.5 20.4-5.5 21.4 0 .7 1.2.1 2.6-1.3l2.6-2.4-.6 2.7c-1.9 8.8-1.9 8.7 1.8 4.4l3.4-4 .4 3c.2 2.5.7 1.8 2.7-4.1 2.1-6.2 7.6-17.5 8.6-17.5.2 0-.7 3.3-2.1 7.2-2.5 7.1-8.4 33.4-8.4 37.2 0 1.6.2 1.7 1.7.5 1.1-1 1.4-1 .9-.1-.6.9 4 1.2 21.3 1.2H495v-2.6c0-5 2.3-15.9 3.7-17.4 1.1-1.2 1.3-1.1 1.3.7 0 1.2-.4 3.2-.9 4.5s-1.2 5.1-1.6 8.5l-.7 6.3H512v-87.5c0-65.1-.3-87.5-1.1-87.5-2.1 0-25-14.2-34.9-21.5-16.9-12.6-32.5-29.9-43.1-47.8-1.8-3.1-3.6-5.7-3.9-5.7-.4 0-1.7 2.5-2.9 5.6-1.5 3.6-3.2 5.8-4.7 6.4-1.2.5-4.6 4.4-7.5 8.7-2.9 4.2-5.4 7.3-5.5 6.8-.2-.6-1-9.6-1.8-20-1.5-17.5-1.5-19.6.1-26.5 2.7-12.4 2-22.4-2.6-37.4-4.7-15.1-9.6-24.1-15.8-28.8-1-.7-2.8-2.5-4.1-4-2.3-2.5-2.3-2.7-.8-7.9.9-2.9 1.6-5.6 1.6-6 0-2.9-19.1-20-22.1-19.8-.8 0-6.2 1.3-12.1 2.9m-71.7 62.3c-1 .9-1.1.8-.5-.6.3-1 .9-1.5 1.2-1.2s0 1.1-.7 1.8m122.6 86.9c-.3.8-.6.5-.6-.6-.1-1.1.2-1.7.5-1.3.3.3.4 1.2.1 1.9m.3 8.2c0 .3-.4.8-1 1.1-.5.3-1 .1-1-.4 0-.6.5-1.1 1-1.1.6 0 1 .2 1 .4m-11.8 14c-1.6 1.8-1.7 1.7-2-.9-.2-1.5-.1-3.4.3-4.3.5-1.4.9-1.3 2 .8 1.2 2.2 1.1 2.7-.3 4.4m-27.3 13.3c1.4 5.1 1.4 5.7.3 6.1-1.3.4-3.4-6.1-2.6-8.1.9-2.4 1.2-2.1 2.3 2m10.9-2.4c.9 1 .4 1.7-1.8 3.1-3.3 1.9-3.4 1.8-2-1.8 1.1-2.9 2.2-3.3 3.8-1.3m-11.2 118.3c.8 7.2 1.4 16.6 1.2 20.9l-.3 7.8-4.4-10.8-4.4-10.9 1.2-10c.7-5.6 1.5-11.9 1.8-14.1l.6-3.9 1.4 3.9c.7 2.1 2 9.8 2.9 17.1m-96.2-10c.3.9.6 3.6.6 6 0 5.6-1.3 6.2-8.1 3.8l-5.1-1.9 5.3-4.7c5.8-5.3 6.4-5.5 7.3-3.2"/></svg>