<svg xmlns="http://www.w3.org/2000/svg" width="682.667" height="512" version="1.0" viewBox="0 0 512 384"><path d="M352.5 13.1c-7 1.8-11.6 3.6-12.6 4.9-.9 1.1-2.4 5.1-3.4 9-.9 3.8-1.8 7-1.9 7-2.6 0-22.1 4.2-24.8 5.3-8.7 3.6-23.6 17.6-27.9 26-1.2 2.2-2.3 6.2-2.5 8.8-.1 2.7-.8 5.7-1.3 6.8-1.9 3.5-1.2 4.3 1.3 1.4l2.5-2.8-2 6.3c-1 3.5-1.9 7.8-1.9 9.5 0 2.9.1 3 1.5 1.1s1.4-1.9 1.5.3c0 3.1 1.1 5.4 2.1 4.7.5-.3.9.4.9 1.4 0 1.1.7 2.2 1.5 2.6.8.3 1.5 1.2 1.5 2.1 0 .8.5 1.5 1.1 1.5s.9-.7.5-1.5c-.3-.8-.1-2.5.3-3.7 1.2-3 2-1 2.3 5.7l.3 5-4.9 2.5c-2.7 1.4-5.1 3.1-5.3 3.7s1 2.7 2.8 4.7c2.6 3 3.1 4.2 2.6 7-.3 1.9 0 4.2.7 5.2 1.7 2.7 3.3 8.1 4 13.5.9 6.3 3.1 7.4 13.6 6.6l8.1-.6 1.5 3.4c.8 2 1.4 6.7 1.4 11.2v7.9l-7 5.9c-3.9 3.3-8.3 7.6-9.9 9.5-1.8 2.3-4.4 4.1-6.9 4.8-4.5 1.4-7.4 4.7-9 10.4-1.1 4.1-9 13.8-12.9 15.9-3.3 1.8-5.3 5.9-5.3 11 0 3.9-.5 4.7-7.9 12-5.7 5.7-7.8 8.5-7.4 9.8.3 1 0 2.2-.5 2.5-1.5.9-2.8-3.8-5.7-20.8-1.5-8.1-3-15.9-3.5-17.1-1.1-2.9-.8-28.5.3-28.5.5 0 6.8 1.5 14 3.4 16.4 4.2 22.7 5.3 22.7 3.7 0-1.5-5-3.7-24.4-11.1-14.6-5.5-14.8-5.7-16.1-9.4-1.7-4.9-5.6-9-11.2-11.6-3.6-1.7-5.5-1.9-11.6-1.4-4.2.3-8.2 1.3-9.7 2.3-3 2-8.7 1.9-14.9-.3-2.4-.9-5.5-1.6-6.9-1.6-2.6 0-2.6 0 1.3 4 2.1 2.1 5.1 4.2 6.6 4.5 3.2.7 3.6 1.4 4.5 9.4.8 7.3 2 9.2 6.2 9.6 3 .2 3.6.8 7.1 8.1 3.8 7.9 3.8 8 4.4 23.4.6 17.6 4.1 60.1 5.8 70.2 1.2 7.3 3.4 11 8 13.3 4.6 2.4 3.4 3.5-2.2 2-3.5-.9-6.5-2.7-9.9-5.9-3.2-3-10-7.1-21-12.5-15.4-7.7-17-8.8-29.4-19.9-7.2-6.4-13.3-11.9-13.6-12.2s-4.8-4.3-10-9-10.6-9.5-12-10.8c-2.7-2.4-3.6-2.7-4.5-1.2-.3.5-1.2.7-1.9.4s-2.7.6-4.3 2c-2.1 1.7-3.3 2.2-4 1.5s-2.2.8-4.7 4.7c-2 3.2-3.6 6.3-3.6 6.9s5.3 5.7 11.7 11.2c19.1 16.4 21.8 19.2 21.5 22.2-.3 2.6 3.7 9.3 7.9 13.4 1.1 1 1.9 2.8 1.9 4.2 0 2.4 7.9 14.8 12.5 19.7 2.1 2.3 3.4 2.8 7.5 2.8 2.7 0 8.1.7 12.1 1.5 4 .9 11.7 2.2 17 3 17.7 2.7 19.5 3.3 24.7 8.2 5 4.8 11.5 8.1 25 12.9l8.3 2.9-.6 4.6c-.7 5 .9 12.2 3.2 14 .7.6 1.3 2.2 1.3 3.5v2.4h68.5c77.3 0 71 .8 65.1-8.3-3.9-6.1-8.1-10.2-11.7-11.5-2.4-.9-2.6-1.8-4.7-14.9-3.2-20.6-4.5-35.7-3.8-46.1.8-12.9-1.6-18.2-8.4-18.2-1.7 0-1.9-.4-1.4-2.8.9-3.6.7-3.6 4.5-1.3 2.8 1.7 5.1 2.1 12.6 2.1 8.4 0 11.9-.9 9.3-2.5-.5-.3-1-1.1-1-1.7 0-.7 2.1-.9 6.3-.4 3.5.3 6.7.3 7-.1.4-.3 0-1.7-.8-3L399 273l6.2-.1c3.5-.1 7.4-.4 8.8-.8l2.4-.7-3.3-2.3c-2.5-1.8-3-2.6-1.9-3.2 2.6-1.7 4.8-1 4.8 1.6 0 3.2 1.7 3.2 3.2 0 .6-1.4 1.5-2.5 2-2.5 1.3 0 .9 5.8-.6 8.8-1.9 3.8-4.8 17.4-4.4 20.8.3 2.9.4 2.8 4.8-2.8 2.5-3.2 4.8-5.8 5.1-5.8.4 0 .1 2.1-.7 4.8-1.5 5.4-4.3 26-3.6 26.7.3.3 1.6-1.2 2.9-3.3l2.3-3.7-.6 13.8c-.4 7.9-.3 13.7.2 13.7s2.2-1.8 3.8-4c1.7-2.2 3.3-4 3.6-4 .4 0-.3 4.3-1.4 9.5-1 5.2-1.7 9.8-1.3 10.1.8.8 7.4-3.2 11.4-6.9l3.3-3.1-2.5 9c-1.4 4.9-2.5 9.8-2.5 10.8 0 1.8.1 1.8 1.8.3 2.7-2.5 3.1-2.1 1.9 1.8-1.5 5.1.4 6.8 2.9 2.6 2.2-3.7 3.4-4 3.4-.9.1 2.1.2 2.1 1.1.5.6-.9 1.9-4.3 3-7.4 2-5.8 4.7-10.8 5.5-10.1.2.3-.5 3.1-1.6 6.4-1.8 5-7 27.9-7 30.5 0 .5 10.5.9 23.4.9 26.4 0 23.9.8 25.2-8.2.3-2.7 1.1-4.8 1.6-4.8.6 0 .8 1 .5 2.2-.4 1.3-.9 4.2-1.3 6.5l-.7 4.3H512V208.9l-3.1-1.7c-1.7-.9-9.8-6.1-18-11.5-22.8-14.9-41.5-34.3-55-57l-3.4-5.8-2.7 5.8c-1.7 3.6-3.7 6.4-5.5 7.4-1.5.8-5.2 5.1-8.1 9.5-6 8.9-7.5 10.2-6.7 5.2.4-1.8.1-10.6-.5-19.4-1.1-15.1-1-16.8.9-25.8 3-13.9 2.8-21.9-1-34.6-1.7-5.8-4-12.7-5-15.4-2.1-5.4-8.5-15.6-9.8-15.6-.5 0-2.5-2-4.5-4.5l-3.7-4.4 1.5-5.2c1.8-5.8 1.6-6.3-4.6-13.7-5.1-6-13.8-12.2-17-12.1-1.3 0-7.2 1.4-13.3 3M393 182c.8 1.4.7 2.5-.2 4-1.7 2.7-3.2 2.5-2.3-.3.4-1.2.7-3 .6-4 0-2.2.6-2.2 1.9.3m-27.7 18.8c.8 2.4 1.1 4.5.6 4.8-1.3.7-3.8-5.4-3.1-7.8.6-2.4.7-2.2 2.5 3m9.7-1.3c-.7.8-1.6 1.5-2.1 1.5-1.3 0-1.1-2.4.3-3.8 1.8-1.8 3.5.3 1.8 2.3m41.4 62.6c-.3.5-1 .7-1.5.3-.5-.3-.7-1-.3-1.5.3-.5 1-.7 1.5-.3.5.3.7 1 .3 1.5m-149.6 40.3c1.5 7.7 1.5 15.6.2 19-.9 2.4-1.1 2.5-4.7 1.2-2.1-.7-9-2.5-15.5-4.1l-11.6-2.9 6.6-3.3c3.7-1.8 10.3-6.2 14.7-9.8 4.4-3.5 8.3-6.5 8.6-6.5s1.1 2.9 1.7 6.4m98.2 15.9c.7 6.7 1 15.3.8 19.2l-.3 7-3.9-9.9-3.9-10 1.2-12.5c.7-6.9 1.5-13 1.9-13.5 1.1-1.9 3.1 7.3 4.2 19.7"/></svg>