<svg xmlns="http://www.w3.org/2000/svg" width="682.667" height="512" version="1.0" viewBox="0 0 512 384"><path d="M236.8 2.5c-.6 1.4-.9 2.6-.7 2.8s7.8 2.5 16.9 5.1c25.1 7.4 51 16.9 49.7 18.3-.5.5-14.5-2-27.9-5l-10.7-2.4 2.9 5.6c4.6 8.6 3.8 10.1-1.8 3.4-5-5.9-10.4-11.1-7.2-6.8 1.4 1.8 1.4 1.9-.2.7-.9-.8-1.5-1.9-1.2-2.7.4-.9-1.2-1.7-4.8-2.6-2.9-.8-5.9-1.3-6.5-1.3-.7.1-1.3-.2-1.3-.7s-.4-.9-.9-.9c-1.9 0 1.4 6 3.9 6.8 6.1 2.3 10.9 3.4 11.7 2.9.5-.4 1 0 1 .7 0 .9-1.8 1.6-5.1 2-2.8.4-5.6.7-6.1.8-.6.1-2.3-.2-3.7-.5-2.5-.7-2.7-.5-1.9 1.5.8 2.1 4.7 4.4 27.6 16 4.3 2.2 12.4 6.7 17.8 9.9 5.4 3.3 10 5.9 10.2 5.9.5 0 17.4 12 21.5 15.3 2.9 2.3 3.1 2.6 1 1.8-4-1.4-14.9-6.5-26.9-12.5l-10.9-5.5.5 5.3c.4 3.4.2 5.6-.6 6-.6.4-1.1.1-1.1-.6 0-1.9-5.9-14.1-7.3-15-2.5-1.6-17.7-6.1-18.3-5.5-.4.4-.2 1.3.5 2.1.6.8 1 1.8.9 2.3-.2.5 4.7 4.7 10.7 9.3 10 7.7 32.5 26.8 32.5 27.7 0 .2-4.2-2.7-9.2-6.5-8.7-6.3-13-9.2-20.3-13.7l-3-1.9 2.3 2.3c3.8 3.7 19.2 28.1 17.8 28.1-.3 0-1.6-1.5-2.8-3.3-2.5-3.7-10.4-13.1-15.6-18.7q-3.45-3.45-2.7-1.5c2.1 6 3.3 31.5 1.9 39-.6 3.5-.8 3.3-3.9-6.2s-6.3-16.9-7-16.1c-.2.2.1 2.4.6 5 .7 3 .7 5.3.1 6.4-.7 1.2-.5 2.8.4 5 .8 1.8 3 9.1 4.9 16.1 2.1 7.6 4.2 13.3 5.2 14.1 2.1 1.5 3.1 8.7 3.3 25.7.1 7.1.5 15.7.9 18.9l.6 5.9 6.6 1.8c3.7 1 11.8 3.8 18 6.3 15.2 5.9 21.5 7 35.2 6.3 6.2-.3 12.3-.9 13.7-1.2 22.2-5.6 29.9-6.3 31.7-3 .6 1 3.2 1.5 8.3 1.7l7.5.3.6 3.7c.7 4.6 2.1 6.3 8.7 10.5 8 5.2 7.6 5.7-6.3 7.2-17.8 1.9-27.5 3.4-27.5 4.1 0 .4 1.7 1.1 3.8 1.5 2 .4 12.6 3.4 23.4 6.6l19.8 6 15.2-3c8.4-1.7 18.5-3.5 22.3-4.1 3.9-.6 9-1.4 11.5-1.9s13.6-2.2 24.8-3.7l20.2-2.8V0H238z"/><path d="M238.2 18.2c1.4 1.7 3.1 3.4 3.8 3.6 1.7.6-2.9-5.6-4.8-6.3-.9-.3-.5.7 1 2.7M0 40c0 7.3.9 9.7 2.5 7 .3-.6 1.4-1 2.4-1 1.4 0 1.7-.8 1.6-3.3C6.4 39.6 2.3 32 .8 32c-.5 0-.8 3.6-.8 8m226 40.7c0 1.1 1.4 3.2 3 4.8 1.7 1.6 3 2.4 3 1.8 0-1.3-2.9-8.1-3-6.9 0 .5-.7.3-1.5-.4-1.2-1-1.5-.9-1.5.7m-40 .8c0 1 11.1 7.7 11.7 7.1.4-.3-.4-1.4-1.8-2.4-2.8-2-9.9-5.3-9.9-4.7m-9 7.2c0 .6 3 4.8 6.8 9.2 3.7 4.4 8.7 10.8 11.2 14.1 2.5 3.2 4.7 6 5 6s1.6-1.8 3-4 2.7-4 3-4 2-1.4 3.7-3c1.8-1.7 3.5-3 3.8-3s.6-.3.8-.8c.3-.9-15.4-6.2-17-5.7s-9.6-2.6-10.6-4.2c-.5-.8-1.2-1.1-1.8-.8-.5.4-.9.2-.9-.3 0-.8-2.8-2-4.7-2-.3 0-1-.6-1.4-1.4-.6-.9-.9-.9-.9-.1m37.3 5.2c-2.3 4.3-2.1 4.7 2.9 6.8 1.4.7 2.9.9 3.2.6 1-1.1.7-9.5-.4-8.8-.6.3-.7-.1-.4-.9.4-1.1 0-1.6-1.3-1.6-1.2 0-2.7 1.5-4 3.9m-5.2-1c-.1.9-.8 1.1-2.3.8-2.2-.6-2.2-.6.2 1.3 2.1 1.6 2.6 1.7 2.8.4.2-.8.1-2-.1-2.7-.4-.9-.6-.8-.6.2m14.3 2.7c-.3 1.9-.4 3.7-.2 4 .8.7 9.8-1.9 9.8-2.8 0-.5-.8-1.1-1.7-1.4-1-.3-3-1.1-4.5-1.9-2.7-1.3-2.7-1.3-3.4 2.1m16.6-.7c0 2.5.4 2.9 3.5 3.3 1.9.2 3.5 0 3.5-.4s.5-.8 1.1-.8c.5 0 .8.4.5.9s1.1 1.1 3.3 1.3l3.8.3-1.6-3.1c-1.3-2.6-1.7-2.9-2.3-1.5-.6 1.3-.8 1.3-1.3-.6-.7-2.2-.7-2.2-2.8-.2-2.6 2.4-2.9 2.4-4.7-.1q-3-4.2-3 .9M162.5 125c.4 1.4 2.5 6.3 4.7 11s4.9 10.7 6 13.5c2.6 6.7 3.5 7.5 7.4 7.5 3.2 0 4-1 3.5-4.2 0-.4 1-4 2.4-8 2.3-6.7 2.4-7.4.9-8.5-.9-.7-2.1-1.4-2.7-1.6-.5-.1-1-1.7-1.1-3.4 0-1.7-.4-2.9-.8-2.6-.5.2-.8-.3-.8-1.1 0-1-.6-1.3-1.5-1-.8.4-1.5.2-1.5-.4 0-.5-.8-1.3-1.7-1.7-1.5-.5-1.6-.4-.5.6 1.4 1.5 1.6 3.3.2 2.4-.6-.3.6 2.1 2.6 5.5s3.4 6.3 3.2 6.6c-.3.2-2.4-1.8-4.7-4.6-2.3-2.7-5.3-5.3-6.7-5.6-1.3-.3-2.4-1-2.4-1.4 0-.5-.9-1.2-2-1.5s-2.7-1.4-3.6-2.3c-1.5-1.5-1.6-1.4-.9.8M55.8 212.3c-4.2 5.6-10.4 13.8-13.9 18.2-9.1 11.8-18.9 27-21 32.6-1.2 3.1-1.9 7.5-1.9 11.9v7h6.2c6 0 6.3-.1 12.2-5.2 3.4-2.9 6.8-6 7.7-7s2-1.8 2.5-1.8c1.2 0 20.6-18.9 26.7-25.8 2.5-3 6.1-7.8 7.8-10.9 2.9-5 3-5.7 1.5-6.5-2.7-1.5-5.8-4.9-11.9-13-3.2-4.2-6.3-8.1-7-8.6-.9-.8-3.2 1.6-8.9 9.1m210.5 14.5c-.8 3.3.3 4 14.6 9.8 29.1 11.7 43.2 14.9 73.6 17 9.3.7 9.9.6 8.6-1-1.6-1.9-26.6-14.3-35.6-17.6-13-4.8-26.8-7.4-52.3-9.8-8.2-.8-8.3-.8-8.9 1.6M338.5 380c-.8 1.6-1.5 3.1-1.5 3.5 0 .3 4.4.5 9.8.4h9.7l-6.7-2.7c-3.6-1.5-7-3.1-7.4-3.5-1.3-1.3-2.3-.7-3.9 2.3M.8 383.7c.7.3 1.6.2 1.9-.1.4-.3-.2-.6-1.3-.5-1.1 0-1.4.3-.6.6"/></svg>