<svg xmlns="http://www.w3.org/2000/svg" width="682.667" height="512" version="1.0" viewBox="0 0 512 384"><path d="M372.3 1.5c-4 1.7-5.6 4.3-7.8 12.8-1 3.7-2.5 7.2-3.4 7.6-.9.5-4.7 1.2-8.6 1.6-15.8 1.6-27.7 7.7-40.6 20.7C304 52.2 299 61 299 67c0 1.9-.7 4.8-1.6 6.5-.9 1.6-1.8 3.9-2 4.9-.3 1.6.2 1.4 2.8-1 2.5-2.4 2.9-2.5 1.9-.7-.9 1.7-4.1 14.9-4.1 16.9 0 1 2.9.3 3.3-.9.3-.6.6.3.6 2.1.1 1.9 1.1 4.8 2.3 6.5 2.6 3.7 4.8 6.1 4.8 5.3 0-.3.9.3 2 1.4 3.8 3.8 1.8 7.5-5 9.5-5.7 1.7-5.7 3.5.1 10.2 2.7 3.1 2.8 4 1.4 8.9-.4 1.3 0 2.5.9 3.3s1.6 2.1 1.6 3.1.7 3.4 1.5 5.3c.8 2 1.5 5.1 1.5 6.9 0 1.9.7 4.4 1.6 5.6 1.3 1.9 2.4 2.2 8.8 2.2 4 0 9.4.3 11.9.6 4.5.7 4.5.7 5.1 5.3.3 2.5.7 7.7.8 11.4.3 6.9.3 6.9-3.7 10.4-2.2 2-7.9 7.3-12.6 11.8-4.7 4.6-10.2 9-12.1 9.8s-4.8 3.1-6.3 5.1c-1.9 2.5-3.7 3.7-6.3 4.2-14.8 2.5-20.6 5.8-21.9 12.8-.8 4-1.1 4.2-11.8 9.8-9 4.6-11 6.1-11 7.9 0 1.6-1.2 2.9-4.1 4.5l-4.2 2.3.1-39.2c.1-25-.3-41.2-1-44.7-.6-3-.9-5.7-.7-5.9s7.4 1.7 16.1 4.2c21.7 6.2 25.4 7 26.6 5.8 1.1-1.1-9.8-6.4-28.8-13.8-7.7-3-14.7-6.1-15.6-6.9s-2.2-3.2-2.9-5.5c-2.5-7.4-14.4-15.5-22.5-15.2-6 .2-13.7 1.7-16.2 3.3-1.9 1.2-2.9 1.2-7.3-.2-2.9-.9-5.8-1.4-6.5-1.2-.7.3-4.7-.7-8.8-2.1-4.1-1.5-8.3-2.5-9.3-2.3-3.2.6 5.9 8.7 11.6 10.4 2.6.8 5.3 2 5.9 2.8.7.8 2.3 1.7 3.7 2 2.2.6 2.5 1.1 1.9 3.3-.3 1.5-.1 5.6.6 9.1 1.5 7.3 2.9 8.5 9.6 8 4.4-.3 4.5-.2 5.8 3.5.7 2.2 3 6.6 5 9.8 2 3.3 3.8 6.7 3.9 7.6.2.9-.6 4.3-1.6 7.6-1 3.2-2.5 11.3-3.3 18-9 72.2-9.3 76.4-5.4 82.3 1.6 2.3 4.7 5.1 7.9 6.8 4.6 2.5 6 2.8 10.9 2.3 7.1-.7 17.9-4.3 35-11.8 7.4-3.3 13.5-5.8 13.6-5.6.2.1 1 1.7 1.9 3.5s2.1 3 2.5 2.7c1.3-.7 2.1 2.1 2.1 7.2 0 2.6.9 9.4 2 15.2 1 5.8 2.1 12.5 2.3 14.9.7 7.3-1.1 21.4-5.9 46.5l-.6 2.7h65.6c36.1 0 65.6-.2 65.6-.5s-.7-3.8-1.5-7.8c-2.9-14.7-5.5-37-5.5-48.3 0-10.1-.3-12.1-2.1-15-1.1-1.9-2.6-3.4-3.2-3.4-.7 0-.5-.6.4-1.5 1.4-1.4 2-1.4 6 .4 5.6 2.6 24.9 3.1 24.9.7 0-.8-.6-1.8-1.2-2.3-.8-.5 2.7-1 8-1.3l9.4-.5-2.1-2.7c-1.2-1.4-2.1-2.9-2.1-3.3s2.4-.5 5.3-.2c2.8.3 7.4.1 10-.5l4.8-1-4-2.6c-4.2-2.7-3.9-4.1.9-3.7 1.6.1 2.6.9 2.9 2.1.2 1 .7 2.4 1.2 3 .6.7.4 2.5-.5 4.5-1.1 2.6-4.6 18.2-4.6 20.5 0 .2.7.1 1.6-.3 1.4-.5 1.6-.1 1 3-.4 2.1-.3 3.7.1 3.6.4 0 2.7-2.5 5.1-5.5s4.7-5.4 5.1-5.4c.5 0 0 3.5-1 7.7-2.3 10.1-2.9 19.9-1.1 19.5.9-.1 1.1 1.2.6 5.5-.5 4.1-.4 5.4.4 4.9.9-.5 1.2 1.6 1.2 7.9 0 5.4.4 8.4 1 8 .5-.3 1.2 1.2 1.6 3.4l.7 4.1 3.8-4.3 3.8-4.2-.9 4c-.4 2.2-1.1 5.7-1.4 7.7l-.7 3.8H512V182l-6.1-6.3c-7.5-7.6-21.6-26.2-26-34.1-2.8-5-3.4-5.6-4.4-4.2-.7.8-1.5 1.3-1.8 1s-1.5 1.7-2.7 4.5c-1.2 2.7-3.7 6.1-5.5 7.5-1.7 1.4-5.4 5.7-8.1 9.7l-4.9 7.1-.2-5.8c-.2-3.3-.7-14.1-1.3-24-.9-16.8-.8-18.9 1.1-27.5 2.8-12.6 2.1-20.2-3.5-37.3-4-12.2-8.7-23.3-10.5-24.6-.3-.3-2.1-2.8-3.9-5.6s-5.2-7-7.6-9.4l-4.4-4.3 1.4-4c2.1-5.8 1.8-7.2-2.7-14C413.6-.3 414.3 0 393.5 0c-13 .1-18.9.5-21.2 1.5m-62.6 102.7c-.2 1.3-.4.5-.4-1.7-.1-2.2.1-3.2.4-2.3.2 1 .2 2.8 0 4m-104.2 59.9c1.2 1.9-.5 2.3-2.2.6-1.6-1.6-1.6-1.7-.1-1.7.9 0 2 .5 2.3 1.1M395 358.4c.6 7 .9 13 .6 13.3-.9 1-4.9-9.4-5.3-14.2-.5-5.4 1.3-14.3 2.7-12.9.4.5 1.3 6.7 2 13.8m-274.5-57.5c-.3.6-1.6.9-2.8.6-1.8-.4-3.5 1.3-10.2 10.2-6.3 8.5-10.2 15.2-10.5 18 0 .1 5.1 4.5 11.3 9.9 6.1 5.4 13.2 11.7 15.7 14s6.2 5.6 8.3 7.4c2.4 2.1 3.7 4.1 3.7 5.6 0 3.2 3.2 9.4 7.1 13.9l3.1 3.5h76.1l-4.2-3.3c-2.3-1.8-5.9-3.9-7.9-4.6-9.5-3.4-15.9-7.3-17.2-10.6-.7-1.9-4.8-6.2-9.8-10.6-11.6-10-44.4-39-51.2-45.3-10.1-9.3-10.8-9.8-11.5-8.7"/></svg>