<svg xmlns="http://www.w3.org/2000/svg" width="682.667" height="512" version="1.0" viewBox="0 0 512 384"><path d="M376.7.7c-.2.5-1.2 4-2.2 8-.9 4-2.2 7.6-2.8 8.1-.7.5-5 1.5-9.7 2.2-17 2.5-27.4 8.1-40.5 21.5-9.4 9.7-13 15.8-14.6 25.2-.6 3.7-1.6 7.6-2.1 8.6s-1.2 3.1-1.4 4.5l-.4 2.7 2.5-3c2.9-3.5 3-3.1 1.1 3.8-2.2 7.7-2.6 13.5-1 14.1.7.3 1.5-.3 1.7-1.2.3-.9.5-.3.6 1.3.1 1.9 1.4 4.5 3.6 7 1.9 2.2 3.5 4.5 3.5 5.2s.6 1 1.4.7c.9-.4 1.8.7 2.6 3.2 1.4 4.3.6 5.3-6.2 8.1-4.8 1.9-4.8 3.9-.3 8.9 3.2 3.4 3.5 4.4 3.2 8.1-.3 2.3.1 5 .7 6 1.8 2.6 5.6 14.9 5.6 17.9 0 1.4 1.2 3.7 2.6 5.1 2.6 2.6 2.7 2.6 13.9 2 9.5-.4 11.4-.3 11.9 1 .3.8.9 6.5 1.2 12.7l.7 11.2-2.5 1.1c-1.4.6-7.9 6.3-14.5 12.7-6.7 6.4-12.6 11.6-13.2 11.6s-2.8 1.6-5 3.5c-3.3 3-4.9 3.7-11.2 4.5-9.5 1.3-13.9 2.3-16.7 4.1-2.3 1.4-5.2 6.6-5.2 9.1 0 1.5-3 4.8-4.3 4.8-.4 0-5.2 2.1-10.7 4.6-8.8 4.1-9.9 4.9-9.4 6.8.4 1.8-.4 2.6-5.1 4.9-3 1.5-5.8 2.7-6 2.7-.8 0-.5-18 .5-34.9.5-9 .5-25.1 0-39-.5-12.9-.8-23.6-.7-23.8.2-.1 4.8 1.4 10.3 3.5 26.2 10 39.2 13.3 32.9 8.5-1.1-.8-11.8-6.3-23.7-12.1L246 155.6l-1.6-5c-2.4-7.1-8.8-13.6-17.4-17.5-7-3.2-7.1-3.3-11.1-1.7-2.1.9-5.3 1.6-6.9 1.6-1.7 0-3.9.5-5 1.2-1.5 1-2.6.9-5.7-.6-2-1-5.6-1.9-7.8-2.1-2.3-.2-6.7-1.5-9.8-2.9-8.7-3.8-12.7-4.8-12.7-3 0 2.4 7.5 9.1 11.6 10.4 2.2.7 5 2.2 6.4 3.5 1.4 1.2 4 2.8 5.8 3.5 3.7 1.4 3.7 1.4 1.8 4.3-1.3 1.9-1.3 3.3-.3 9.4.7 3.9 1.6 7.5 2 8 .5.4 3.6 1 7 1.3 6 .5 6.1.6 6.8 3.8.4 1.8 2.7 7.3 5.3 12.1l4.6 8.9-2.5 8.3c-1.6 5.1-3.5 16.6-5.1 29.4-1.4 11.5-3.6 29.6-4.9 40.2-3.2 24.3-3.2 29.7-.2 35.3 2.7 5.2 9.9 10.5 15.4 11.3 8 1.3 24.8-3.1 47.2-12.4 5.2-2.2 9.5-3.8 9.6-3.7.1.2 1 1.8 1.9 3.6 1.8 3.4 2.6 3.8 5.7 2.2 1.8-1 1.9-.7 1.9 5.2 0 3.5 1.4 14.7 3.2 25.1l3.2 18.7-2 15-2 15h60c46.7 0 59.7-.3 58.8-1.2-1.5-1.5-1.6-15.4-.2-16.3.6-.4 1-.3.9.2-.1.4.1 4.5.6 9l.8 8.3h5.3c6.3 0 6.2.5 3.8-13.5-.8-5-1.9-16.3-2.4-25.3-.5-8.9-1.5-17.2-2.1-18.3-.9-1.8-.7-2.5.8-4 1.8-1.9 2-1.9 6 .1 3.4 1.6 6.2 2 15.3 2h11l-.6-2.5-.6-2.5h9.1c5 0 9.1-.3 9.1-.8 0-.4-.7-1.6-1.5-2.6-2.4-3.1-1.8-3.6 4.3-3.7 3.1 0 8-.4 10.9-.8l5.1-.7-1 2.5c-1.1 2.7-3.7 16.4-3.8 19.3 0 1.2.5 1.5 1.7 1.1 1.4-.6 1.5 0 .9 4.6-.4 3.2-.3 5.2.2 4.9.6-.1 2.8-2.7 5.1-5.5 2.3-2.9 4.6-5.3 5.1-5.3 1.1 0 .8 4-1.5 17.4-1.3 7.3-1.5 10.4-.7 12 .6 1.1 1.3 4.4 1.5 7.3.1 2.9.6 5.5 1 5.9s.7 2.5.7 4.6v3.8h18V158.1l-6.2-9.5c-6-9.4-7.8-11.2-7.8-8 0 1-.6 1.4-1.5 1-1-.3-2.1.9-3.5 4.2-1.1 2.5-3.6 6.2-5.6 8.2-1.9 1.9-5.2 6.1-7.4 9.4-2.2 3.2-4.1 5.5-4.2 5s-.2-2.7-.3-4.9c-.7-14.2-2.7-38.9-3.5-43.5-.8-4.2-.6-7.4.5-13.5 1.7-8.9 1.3-18.9-1.2-27-.8-2.8-4-11.3-7.1-19-6.2-15.8-12.4-25.7-21.2-33.8l-5.7-5.3 1-5.6c1-5.5.9-5.8-2.3-10.7L432.8 0H405c-15.4 0-28.1.3-28.3.7M208 160.5c0 1.3-.4 1.4-2 .5-1.1-.6-2-1.3-2-1.5 0-.3.9-.5 2-.5s2 .7 2 1.5M484 307c0 3.5-.7 3.6-4.9 1.2-3.9-2.2-3.9-3 .2-3.5 1.7-.2 3.5-.5 4-.5.4-.1.7 1.1.7 2.8m-365 20c0 .6-1 .8-2.2.5-1.9-.5-2.8.3-5.2 4.2-1.7 2.6-5.5 8.4-8.6 12.8s-6.1 9.8-6.9 12c-.7 2.2-1.4 4.5-1.7 5.1-.3.7 4.4 5.4 10.3 10.5 5.9 5.2 11.4 9.9 12.1 10.6 1 1 9.2 1.3 34.8 1.3 18.4 0 33.4-.1 33.4-.3s-3.9-3.7-8.7-7.8c-4.9-4.1-11.3-9.6-14.4-12.4-10.9-9.8-20.5-18.3-25.9-23-3-2.7-7.4-6.6-9.7-8.8-4.9-4.7-7.3-6.3-7.3-4.7"/></svg>