<svg xmlns="http://www.w3.org/2000/svg" width="682.667" height="512" version="1.0" viewBox="0 0 512 384"><path d="M380 4.2c-2.8 11.4-1.4 10.1-12.8 12.4C349 20.4 342 24 329.8 35.7c-12.3 11.6-17.2 19.8-18.9 31.1-.5 3.5-1.5 7.5-2.2 9-.8 1.5-1.2 3.5-1 4.4.4 1.5.8 1.3 2.9-1l2.4-2.7-1 2.8c-1.6 4.6-3 14.7-2.3 17.9.6 2.9.6 3 1.8.9 1-2 1.2-1.8 2.4 2.9.7 2.7 1.7 4.8 2.2 4.4.5-.3.9.2.9 1 0 .9.7 1.6 1.5 1.6.9 0 1.5.9 1.5 2.2 0 1.6.3 1.9.9 1 1.1-1.9 2.7.3 3.6 4.9.7 3.7.7 3.7-4.9 6.3-3.1 1.5-5.6 3.3-5.6 4.2 0 .8 1.9 3.5 4.1 5.9 3.9 4.2 4.1 4.8 3.6 8.9-.5 3.5-.3 4.7 1.3 6.1 1.1 1 2 2.8 2 3.9.1 1.2.7 3.2 1.5 4.6s1.4 4 1.5 5.8c0 4 2.3 8.8 4.9 10.2 2.3 1.2 11.5 1.2 18.4.1 4.3-.7 5-.6 6.2 1.3.8 1.2 1.7 6.5 2.1 12.1l.7 10.1-4.7 3.8c-2.6 2.1-9.5 8.5-15.3 14.2-5.9 5.7-11.2 10.4-11.9 10.4-.8 0-2.9 1.3-4.7 3-2.9 2.5-4.5 3-10.8 3.5-14.3 1.2-22 4.8-23.4 11.2-.4 1.5-.8 3.4-1.1 4.1-.2.7-3 2.4-6.1 3.8-3.2 1.4-7.8 3.5-10.3 4.6-2.4 1.1-5.5 2.4-6.7 2.9-1.8.7-2.2 1.4-1.8 3.2.6 2.1 0 2.7-5.4 5.1-3.4 1.5-6.5 2.4-7.1 2.1-.6-.4-.8-13.5-.5-36.3.2-19.6.4-42.3.5-50.4v-14.7l6.3 2.9c23 10.5 38.5 16.6 39.5 15.5 1.4-1.4-4-4.8-36.8-23.2-9.7-5.4-10.5-6.1-11.6-9.9-2.6-9.1-7.9-15.1-17.5-20-4-2-6-2.4-8.8-1.9-2 .3-5.5.8-7.7 1-2.3.1-5.1.6-6.1.9-1.2.4-4.7-.6-8.7-2.4-3.7-1.7-7.1-2.8-7.6-2.5s-3.7-.8-7.2-2.6c-3.4-1.7-7.9-3.7-9.9-4.4-3.7-1.3-3.8-1.3-3.6.9.3 3.3 5.8 9.2 10.2 10.7 2 .8 4.7 2.3 5.9 3.5 1.1 1.2 4 3.1 6.4 4.3 2.3 1.2 4.2 2.4 4.2 2.7 0 .2-.7 1.6-1.6 3-1.4 2-1.6 3.9-1 10.1.3 4.3 1.1 8.2 1.6 8.7s3.6 1.2 6.9 1.4l5.9.4.5 3.9c.3 2.2 2.4 7.8 4.6 12.4 4.1 8.6 5 13 3.1 16.5s-4 16.3-6.5 39.5c-1.3 12.6-3.4 31.3-4.6 41.5-2.7 23.9-2.3 27.2 3.9 34.1 5.3 5.9 10.9 8.8 16.7 8.9 6 0 24.2-5.1 40.5-11.4 8-3.1 14.6-5.3 14.8-4.9.1.5 1.1 2.3 2.2 4.1 2 3.2 2.1 3.2 5 1.7 1.6-.8 3.1-1.5 3.3-1.5.3 0 .5 4 .5 8.9s1.1 14.7 2.4 21.8c1.8 10.1 2.3 16 2.2 28l-.2 15.3H430v-2.3c0-1.3-.7-6.8-1.6-12.3-.9-5.4-1.7-15.4-1.8-22.2-.2-11.4-.1-12.3 2-14.3s2.4-2 6.8-.5c3 1 8.1 1.6 14.1 1.6 10.8 0 13.1-.5 11.4-2.6-1-1.2.1-1.4 6.2-1.5 4.1-.1 8.7-.4 10.2-.8l2.9-.6-2.1-2.7c-1.2-1.4-2.1-3.1-2.1-3.6 0-.6 3.5-.8 8.8-.5 4.8.3 9.8.1 11.2-.5 2.4-.9 2.4-.9-1.8-3.3-2.3-1.3-4.2-2.7-4.2-3.2 0-.4 1.8-.7 3.9-.7 5.5 0 5.8 1.2 2.8 14-2.3 10.1-3 16-1.8 16 .6 0 1.1-.6 1.1-1.3q.15-1.2.9.3c.5.8.8 4.1.7 7.2-.2 3.2-.2 5.8-.1 5.8s1.7-2.1 3.5-4.8c1.9-2.6 5.1-6.6 7.2-8.9l3.8-4.3v-96.3c0-95 0-96.3-2-98-1.7-1.4-2-1.5-2-.2 0 2.6-4.1 9.8-7.9 14-2.1 2.2-5.3 6.4-7.2 9.3l-3.4 5.3-.6-8.3c-.4-4.6-1.2-15.5-1.9-24.3-.6-8.8-1.7-18.9-2.3-22.5-1-4.9-1-8.3-.2-13.7 1.7-10.9-.2-23.4-5.4-35.5-2.2-5.3-4.1-10.2-4.1-10.8 0-2.1-5.2-12.5-9.6-19.1C461.1 31.4 448 18 446 18c-.7 0-.8-2.3-.4-6.5.5-5.1.3-7-1-9L443 0h-61.9zM209 159.6c0 .8-.4 1.2-1 .9-.5-.3-1-1-1-1.6 0-.5.5-.9 1-.9.6 0 1 .7 1 1.6m301 186.1c-1.5 6.3-4 22.7-4 27q0 3.45 1.2 2.7c.7-.4.8-.3.4.4s-.4 2.7 0 4.7c.4 2.5 1.1 3.5 2.5 3.5 1.8 0 1.9-1.1 1.9-21.5 0-11.8-.2-21.5-.4-21.5s-.9 2.1-1.6 4.7m-401.2 5.2c-2.8 4.7-7.1 11.5-9.5 15-2.4 3.6-4.1 7.1-3.8 7.8.2.8-.2 2.8-1.1 4.5-3.1 6-4 5.8 36.3 5.8l36.8-.1-3.5-3.2c-2-1.7-6.7-6-10.5-9.4-3.9-3.4-8.8-7.8-11-9.8-17.6-15.9-21.6-18.9-25-19.1-3.3-.1-3.7.3-8.7 8.5"/></svg>