<svg xmlns="http://www.w3.org/2000/svg" width="682.667" height="512" version="1.0" viewBox="0 0 512 384"><path d="M383.8 6c-1.4 6.8-.9 6.5-15.2 9.5-16.8 3.6-26.3 10-43.3 29.2-4.2 4.8-9 15.4-9.8 21.8-.4 3.3-1.3 7.3-1.9 9-.7 1.6-1.3 4.6-1.4 6.5-.1 3.7-.2 3.8 3.6-1.7 1.2-1.6 1.2-1.6.7.7-1.7 7.4-2.5 16.2-1.7 19.2l.9 3.3 1.1-2.5c.9-2.4 1-2.3 2.2 2.2 1.1 4.3 5.5 9.8 7.9 9.8 1.3 0 4.3 6.8 3.9 8.8-.2.9-2.7 2.8-5.6 4.1-2.8 1.4-5.2 3.1-5.2 3.9 0 .7 2.1 3.5 4.6 6.2 4.4 4.7 4.6 5.2 4.1 9.2-.4 3.2-.1 4.8 1.1 6.1 2 2.3 4 7.5 5.8 15.2 1 4.5 2.1 6.7 4.5 8.9 3.1 2.7 3.5 2.8 10.3 2.3 3.9-.4 8.7-.9 10.6-1.2 5.8-.9 6.7.6 7.5 12.7l.7 10.6-5.3 3.9c-6.4 4.8-23.9 21.6-23.9 23.1 0 .5-1.4 1.5-3.1 2.3-1.8.7-4.3 2.2-5.8 3.4-2.1 1.8-4.5 2.4-12.1 3-5.2.4-10.2 1.1-11.1 1.5-.8.5-2.6 1-4 1.2-4.7.7-6.8 2.8-9 8.7l-2.1 6-12.2 5c-11.2 4.6-12.1 5.2-12.4 7.8-.3 2.4-1.2 3.2-6.9 5.6-3.6 1.6-6.8 2.5-7.2 2.2-.3-.4-.8-16.3-1.2-35.3-.5-31.5 0-46.3 1.9-63.8l.7-6.2 8.1 4.7c13.5 7.7 35.3 18.6 35.9 17.9 1.9-1.9-3.9-6.6-29.2-23.3l-16.2-10.7-1-4.9c-.6-2.8-1.8-6.3-2.5-7.8-2.3-4.3-10-11.5-15.8-14.6l-5.1-2.8-5.3 1.8c-6.5 2.2-10.4 1.6-18.8-3.1-3.4-1.9-7-3.4-8-3.4s-5.4-2.2-9.9-4.8c-11.4-6.7-11.6-6.8-10.7-2.9 1.3 5.5 4.3 9.6 7.8 10.8 1.8.6 4.7 2.5 6.5 4.3s5.1 4.6 7.5 6.1c2.3 1.5 4.2 3 4.2 3.2 0 .3-1.1 1.8-2.5 3.5-2.2 2.6-2.5 3.9-2.5 10.8 0 8.8.3 9.3 7.5 11.1 5.5 1.4 6.5 2.2 6.5 5.9 0 1.4 1.2 5.6 2.6 9.5 6.1 16.3 5.8 14.5 3.5 22.2-2.2 7.2-3.6 16.4-4.6 29.8-.3 4.4-1.7 18.9-3.1 32.3-1.3 13.4-2.4 30-2.4 36.9 0 11.5.2 13 2.4 16.7 1.3 2.3 4.6 5.7 7.3 7.6 8.9 6.4 19.9 5.4 47.3-4.4 6.9-2.4 14.8-5.3 17.6-6.4l5.2-2.1 1.7 4c2 4.3 2.7 4.5 6.5 2.4 1.4-.8 2.7-1.4 3-1.5.3 0 .5 4.6.6 10.3.1 6.8 1 15.1 3 25.2 1.8 9.1 2.9 18.2 2.9 23.3v8.2h67.3c63.7 0 67.3-.1 66.8-1.8-1.2-4-2.6-17.9-2.6-25.4 0-8 0-8.1 3.7-11.6 3.5-3.2 3.9-3.4 6.8-2.3 3.3 1.4 28.5 2.8 28.5 1.7 0-.4-.4-1.5-1-2.5-.9-1.8-.3-1.8 10-1.3 6.1.2 11 .2 11-.2s-1.1-2.4-2.5-4.4l-2.5-3.7 9.9-.5c5.5-.3 10.2-.8 10.6-1.2s-.8-2-2.7-3.7l-3.3-3 3.3-.1h3.2v-79c0-43.5-.2-79-.5-79s-1.6 1.8-3 4-2.9 4-3.3 4-1.6-10.5-2.5-23.2c-1-12.8-2.7-28.2-3.7-34.1-1.3-7.2-1.7-13-1.3-17.2.9-9.4-1.3-21.5-6.1-34-2.4-6.1-5.1-13.1-6-15.7-3.9-10.6-17.5-27.2-28.1-34.3-5.2-3.4-5.3-3.6-4.4-6.7.5-1.8.9-4.5.9-6V0h-68.9zm127.1 343.5c-.6 4-.4 5.3.7 4.3.3-.3.4-2.3.2-4.4l-.3-3.9zm-400 14.2c-1.7 3.2-4.3 7.8-5.7 10.3s-3.4 5.7-4.4 7.2l-1.9 2.8h50.2l-3.8-3.2c-2.1-1.8-5.8-5.2-8.3-7.4-2.5-2.3-6.3-5.7-8.5-7.5-2.2-1.9-5.1-4.4-6.3-5.7-1.8-1.8-2.7-2.1-3.7-1.2-.9.8-1.5.8-2 0-1.2-1.9-2.3-1-5.6 4.7"/></svg>