<svg xmlns="http://www.w3.org/2000/svg" width="682.667" height="512" version="1.0" viewBox="0 0 512 384"><path d="M388.5 4.9c-.8 5.7-.2 5.3-14 8.8-14.7 3.7-21.9 7.7-32.4 18.1-14.9 14.6-20.3 24.4-23.1 41.7-.6 3.8-1.5 9-2 11.5-.7 3.9-.6 4.2.6 2.5.7-1.1 2-2.9 2.9-4 1.6-2 1.7-2 1 0-.3 1.1-1 5.4-1.6 9.6-.7 5.9-.6 8.2.4 10.2 1.1 2 1.7 2.3 2.5 1.5.9-.9 1.2-.7 1.2.9 0 1.2.5 2.5 1 2.8.6.3 1 1.5 1 2.6s.4 1.8.9 1.4c.5-.3 1.3.5 1.7 1.7.7 2.2.7 2.2 1.4.3.6-1.7.8-1.6 1.4 1 .5 2.1 1 2.5 1.6 1.5s1.3-.3 2.5 2.6c2.7 6.5 2.5 7.4-3 10.4-6.3 3.5-6.3 5.8.2 11.7 4.4 4.1 4.5 4.4 3.9 8.5-.6 3.8-.3 4.7 1.8 6.7 1.3 1.3 2.2 2.9 1.9 3.7-.3.7.4 2.5 1.5 3.9s2.3 4.9 2.7 7.8c.6 4.2 1.5 5.9 4.3 8.6l3.6 3.3 7.1-.7c3.8-.5 8.8-.9 11-.9 2.2-.1 4.3-.5 4.7-1.1 1.6-2.2 2.6 1.4 3.2 11.6l.7 10.5-6.3 5.4c-3.5 3-11 10-16.8 15.5-15 14.4-17.1 15.6-29.4 16.5-5.6.5-12.3 1.4-15 2.1-5.8 1.6-10.3 6.3-11.2 11.7-.6 3.7-.6 3.7-13.7 9.2-12.2 5.2-13.2 5.8-13 8.1.1 2.3-.7 3-6 5.4-3.4 1.5-7 3.1-7.9 3.6-1 .5-2 .5-2.3-.1-.4-.6-1.3-17.6-2.1-37.8-1.6-39.9-1.8-34.9 3.3-64.2.3-1.9.5-4.6.4-5.9l-.3-2.5 3.4 2.5c6.1 4.7 34.3 23.6 37.6 25.3 10 5.2.8-5.4-18.7-21.3-22.3-18.3-21.7-17.7-22.4-24-.8-6.4-4-12.2-10.3-18.4-5.8-5.7-10.6-8.1-14.8-7.3-10.3 1.9-9.6 2.1-18-3.8-4.4-3.1-8.7-5.6-9.6-5.6s-5.4-2.8-10.1-6.3c-4.6-3.5-9.2-6.7-10.2-7-1.6-.6-1.6-.4.3 2.3 1.7 2.4 1.8 3 .7 3-2.2 0 1.6 7.6 4.6 9.1 1.2.7 5.9 4.9 10.3 9.3l8.2 8.1-3.5 3c-3.2 2.8-3.6 3.7-4.6 11.3-1.2 9.6-1 10 6.8 12.9 4.8 1.8 4.9 1.9 5.2 6.3.2 2.5 1.8 9.6 3.5 15.8l3.2 11.2-2.2 8.8c-2.2 9-3.4 20.6-5.2 49.7-.5 9.3-1.3 21.5-1.8 27-.4 5.5-.7 16.5-.7 24.5 0 13.9.1 14.7 2.7 19.1 4.5 7.7 12.2 11.9 21.6 11.9 9.7 0 25.5-4.5 51.6-14.4 3.8-1.5 6.9-2.5 7.1-2.4.1.2 1.2 2 2.4 4 2.5 4.3 2.6 4.3 6.1 2.3 4.2-2.4 4.5-1.9 4.3 5.9-.2 8.3.8 16.2 4.3 35.4 1.3 7.3 2.4 13.8 2.4 14.3s26.8.9 68.5.9h68.6l-.8-5.3c-1.4-9.2-.7-15 1.9-16.7 1.3-.8 3.7-3 5.4-4.9 3-3.2 3.3-3.3 6.5-2.2 3.7 1.4 28.9 2.8 28.9 1.7 0-.4-.4-1.5-.9-2.4-.8-1.6 0-1.7 10-1.4 12.2.4 12.9-.1 8.8-5.9l-2-2.9h4.2l-.1-126.7c-.1-139.5-.1-139-6.1-152-1.6-3.4-2.9-6.8-2.9-7.5 0-2.8-7-17-11.3-23.1-5.7-8-19.4-21-26.3-24.9-5-2.8-5.2-3.1-4.7-6.4l.6-3.4h-72.1zm75.7 220.3c-.8.8-.9.4-.5-1.3.4-1.3.8-1.8 1.1-1 .2.7-.1 1.8-.6 2.3M112 380l-2 4h18.5l-4.2-4.2c-3.4-3.4-4.4-3.9-5.6-2.9-1 .8-1.7.9-2.2.1-1.2-1.9-2.4-1-4.5 3"/></svg>