<svg xmlns="http://www.w3.org/2000/svg" width="682.667" height="512" version="1.0" viewBox="0 0 512 384"><path d="M310.4 1.4q.75 1.95-.9 1.2c-.9-.3-1.5 0-1.5.9 0 1-1 1.5-2.9 1.5-4.6 0-6.4 1-5 2.6 1.6 1.9-.1 1.7-2.3-.3-1.7-1.5-1.8-1.5-1.8.4 0 1.1 1.7 3.9 3.8 6.1 4.1 4.4 1.3 3.7 33.7 8.7 16.1 2.6 66.8 16.2 63.8 17.2-.6.2-11.3-1.2-23.8-3.2-12.6-1.9-22.9-3.4-23.1-3.2-.2.1 1 2.3 2.5 4.7 1.5 2.5 3.3 6.1 3.9 8 1.1 3.2 2 3.8 9.7 6.9 4.7 1.9 8.3 3.6 8.1 3.8-.2.3-7.3-1.8-15.8-4.5-8.4-2.7-16.6-5.3-18.3-5.6-2.8-.6-2.9-.5-1 .8 1.1.9 7 5.3 13.2 9.8 15.8 11.7 15.9 13.6.3 3.6-5.6-3.6-15.4-8.8-16.5-8.8-.4 0 1.3 2.4 3.8 5.2 2.4 2.9 5.1 6.6 5.9 8.3 2 3.9 5.4 14.1 6.3 18.5.4 1.9 1.4 4.8 2.2 6.3.8 1.6 1.3 3.8 1.1 5-.3 1.8-.9 1.3-4.3-3.3-8.9-12.4-17.5-20.7-11.3-10.9 4.8 7.6 5.5 10.2 1.6 5.9-1.7-1.9-5.8-6.4-9-10-5.3-5.9-5.9-6.3-6.4-4.2-.4 1.2-1 1.9-1.5 1.6s-.7-.9-.5-1.3c.3-.4-1.5-1.7-3.9-2.9-4.4-2.1-5.7-1.8-3.3.6 1 1 1 1.7 0 3.3-.7 1.1-1 2.9-.7 4 1.1 3.2-.4 2.1-2.2-1.8-1.2-2.4-2.6-3.7-4.2-4-1.4-.2-3.4-1.1-4.5-2.1-1.8-1.6-1.9-1.6-1.3 0 .4 1 .2 1.8-.3 1.8s-1.7-.8-2.6-1.8c-1.7-1.6-1.8-1.6-1 .3.7 1.8 3.5 16.3 5 25.5.6 3.4-1.4-2.2-5-14.5l-1.8-6-.6 4c-.5 3.8-.6 3.6-1.8-3.5-.7-4.1-1.7-8.2-2.3-9-.8-1.1-.9-.9-.4.9.9 3.1-1 2-3.7-2.3-1.7-2.7-1.9-2.8-1.3-.6l.7 2.5-1.7-2.3c-2.1-2.8-4.9-3-4-.2.9 2.9 0 2.5-5.3-2.2-2.6-2.3-4.1-3.6-3.4-2.8 2.3 2.6 1.2 3.4-1.4.9l-2.6-2.4 1.9 4c1.1 2.2 2.3 5.2 2.7 6.7.4 1.8 3.4 4.7 9.8 9.5 12.2 9 11.9 8.8 12.9 7.2.7-1.2.9-1.1.9.1 0 4-1.3 4.1-13.5 1.2l-11.9-2.9-1.4 3.6c-.7 2-1.6 4.3-1.8 5.2-.4 1.1.8 2.1 4.3 3.4 7.1 2.8 3.3 3-11.9.5-13.9-2.3-22.8-3.1-22.8-2 0 .3 4.3 4.5 9.6 9.4 6.8 6.1 10.1 8.5 11.3 8.1 10.8-4.2 14.5-4.8 20.8-3.5 3.7.7 8.5 1 11.3.6 6.5-.9 6-1.8 14.9 28.9l2 7 9.3.3c5.7.2 9.6.8 10.1 1.5.9 1.3.2 50-.7 53.2-.5 1.8.7 2.5 9.6 6.1 5.7 2.3 13.9 5.8 18.3 7.7 14.6 6.6 17.7 7.1 41.4 7.1 16.2.1 21.5.4 21.8 1.3.3.7 1.1 1.3 1.9 1.3.7 0 2.8.9 4.6 2s4.5 2 5.9 2 4 .5 5.7 1.1c2.6.9 3.3 1.8 3.9 5.2l.8 4.1 12.5 3.2c6.9 1.8 15.7 4.5 19.5 5.9 7.7 3 12.4 3.2 22 1.1 3.3-.8 8.1-1.7 10.8-2l4.7-.7V0h-96c-52.8 0-96 .3-96 .7 0 .5 1.6 2.4 3.6 4.3s5 5.3 6.8 7.5l3.1 4-3-2.3C325.4 10.3 314 3 313 3c-.5 0-1.4-.8-2-1.8-1.1-1.6-1.1-1.6-.6.2M319 84c0 .5-.4 1-1 1-.5 0-1-.5-1-1 0-.6.5-1 1-1 .6 0 1 .4 1 1M0 84.2v82.3l7.6 5c8.4 5.6 8.4 5.6 17.5 10.8 3.6 2 7 3.7 7.5 3.7 1.6 0 1.5-7.6-.1-9-1-.9-1.5-3-1.4-6.9.1-7.8 1-10.4 3.9-11.2 2.3-.6 2.4-.7.5-1.3-4.7-1.7-8.5-4-11.6-7.2-3-3.1-3.4-4-3.3-9.2 0-4.2.9-7.6 3.4-13.2 1.9-4.1 3.7-7.7 4.1-8s3.2-5.7 6.3-12.1C39.4 97.6 40 95.6 40 90c0-6.4 0-6.5 8.7-26 2.8-6.2 6.1-10.2 7.6-9.3.6.3.7.1.3-.5-.3-.6-.2-2.2.3-3.5.8-2.1.4-3.3-2.2-7.3-1.8-2.6-4-6.2-5.1-7.8-2.4-4.1-3.3-4.6-8.6-4.6-2.5 0-5.5-.6-6.6-1.4s-3.8-1.7-6-2.1c-8.2-1.4-10.2-2.5-14.5-8.3C8.5 12.1 7 10.3 4.3 7.4 3 6.1 2 4.6 2 4.1s-.4-1.3-1-1.6c-.7-.4-1 27.1-1 81.7"/><path d="M318 29.4c0 .2 1.5 1.9 3.3 3.8 3.1 3.3 4.7 4 26.7 12.1 3 1.1 6.1 2.4 6.8 3 .7.5 1.5.7 1.8.4 1-.9-13.4-14.5-17.4-16.6-3.2-1.6-21.2-3.9-21.2-2.7M334 45c.8.5 2 1 2.5 1 .6 0 .3-.5-.5-1s-1.9-1-2.5-1c-.5 0-.3.5.5 1m-52.1 14.3c.6.8.8 1.7.4 2-.3.4.2.7 1.2.7 1.7 0 1.7-.1 0-2-2-2.2-3.4-2.8-1.6-.7M342 69.8c0 .5.7 1.5 1.5 2.2s1.5.8 1.5.2c0-.5-.7-1.5-1.5-2.2s-1.5-.8-1.5-.2m-111.5 5.3c1.1 1.6 37 18.8 37.8 18 .4-.4.3-1.9-.2-3.4-.8-2.1-1.5-2.5-4-2.2-1.7.2-3.3 0-3.6-.5s-1.1-.7-1.8-.4c-.7.2-3.4-.9-6.1-2.6-2.6-1.7-6.2-3.4-8-3.7-1.7-.3-3.8-1.2-4.6-1.9-2.1-1.7-10.3-4.7-9.5-3.3M200 112.2c0 .4 2.5 6.2 5.7 13 3.1 6.8 8.2 18.6 11.4 26.3 5.7 13.9 5.8 14 9.2 14.3 3 .3 3.5 0 3.5-2 0-1.3 1.4-7 3.2-12.8s3.3-11.2 3.3-12 .4-1.8 1-2.1c2.7-1.8-4.8-7.4-14.1-10.5-2.6-.9-5.4-2.2-6.2-2.8-.8-.7-4.2-2.7-7.4-4.5-3.3-1.8-6.8-4.3-7.7-5.5-1-1.1-1.8-1.8-1.9-1.4m-96.2 99.7c-1.5 2.6-6.4 9.5-10.8 15.2-22 28.4-29.4 39-33 47.2-1 2.3-2.1 7.3-2.5 11.2-.3 3.8-.9 7.9-1.2 8.9-.5 1.8-.1 1.9 5.3 1.3 9.7-1 13-2.5 21.2-9.5 20-17.3 32.4-30.2 40.9-42.7 5.2-7.5 6-10.1 3.6-10.9-1-.3-2.7-2.1-3.9-3.8-1.1-1.8-3.7-5.8-5.7-8.8-1.9-3-5.3-7.2-7.4-9.2l-3.8-3.7zM0 253.6v30.8l4.8-5.1C23.3 259.4 34.4 244 30.2 244c-.5 0-4.9-3-9.8-6.6-4.9-3.7-10.5-7.7-12.4-9s-4.5-3.1-5.7-4L0 222.8zm320-18.1c-.5.6-1.2 2.9-1.5 5.1l-.7 3.9 4.9 1.9c13.7 5.2 28.4 9.8 35.6 11.1 16.9 3 67.6 5.9 65.2 3.7-.6-.5-5.9-3-11.9-5.6-8.8-3.8-13.6-5.2-25.3-7.2-15.3-2.5-25.4-4.9-39.3-9.1-11.1-3.3-25.6-5.4-27-3.8M0 363.7V384h34l.1-5.3c.1-6.5.5-8.7 1.8-10 .7-.7-.7-2.9-4.4-6.9-3-3.3-5.5-6.7-5.5-7.6s-1.4-3.1-3.2-4.9l-3.1-3.3-3.2 2c-3.5 2.2-4.9 1.5-5.7-2.5-.3-1.7-1.1-2-5.6-2H0z"/></svg>