<svg xmlns="http://www.w3.org/2000/svg" width="682.667" height="512" version="1.0" viewBox="0 0 512 384"><path d="M398 3.4c0 1.8-.6 3.8-1.3 4.4s-6 2.6-11.7 4.5c-13.4 4.4-20.8 8.8-29.2 17.4-8.2 8.3-13.7 15.6-18.7 24.8-4.2 7.7-5.6 12.4-6.7 23-.4 3.8-1.3 8.4-2 10.2-1.7 3.9-1.7 4.6-.3 3.7.9-.5 1 .4.5 3.2-.7 4.1-.5 4 3.2-1.3 1.1-1.5 1.2-1.3.7 2.2-1 8.8-.9 17.8.4 17.1.5-.3 1.1.9 1.5 2.7.5 2.2.9 2.8 1.5 1.9.6-1 1.2-.4 2.4 2 .9 1.9 2.5 4.2 3.7 5.3 1.9 1.8 2 1.8 2-.1 0-1.5.2-1.6.9-.5.5.8.7 2 .4 2.8-.3.7.2 1.3 1.2 1.3.9 0 1.3-.5 1-1-.3-.6-.4-1-.1-1 .7 0 5.6 10.7 5.6 12.4 0 .9-1.7 2.4-3.8 3.5-6.3 3.2-6.9 4.5-3.8 8.6 1.5 1.9 4 4.2 5.5 5 3.3 1.7 4.1 3.3 4.1 8.4 0 2.8.7 4.4 3 6.6 1.6 1.5 2.7 3.2 2.4 3.7-.3.4.4 2 1.4 3.6 2.4 3.3 5.2 9.9 5.2 12.1 0 .9 1.7 3.4 3.8 5.4 3.3 3.3 4.4 3.7 8.8 3.7 2.8 0 7.4-.7 10.3-1.6 4.9-1.4 5.4-1.4 7.2.2 3.2 2.9 4.9 7.4 4.9 13v5.2l-7.7 6.4c-4.3 3.6-12.5 11.1-18.3 16.8-15.7 15.4-14.1 14.6-30.8 15.8-7.8.6-15.1 1.6-16.1 2.2-1.1.5-2.8 1-3.8 1-3.2 0-8.2 5.7-9.8 11.3l-1.5 5.2-14.1 5.9c-13.9 5.9-14 5.9-13.7 8.9.3 2.9 0 3.2-5.7 5.4-3.3 1.2-7.8 3.2-9.9 4.3s-4.1 1.8-4.4 1.6c-.6-.7-2.8-18.8-4.6-39.1-.9-9.4-2.3-22.4-3.2-29l-1.7-12 5.1-12c2.7-6.6 5.7-14.6 6.5-17.9.9-3.2 1.8-6 2-6.3.3-.2 2.5 1.7 4.9 4.3 9.4 10.4 27.7 30.1 30.7 32.8 1.7 1.6 3.4 2.6 3.8 2.2 1.5-1.5-5.1-12-20.2-32l-15.7-20.9-.2-7.1c-.1-6.2-.6-8.3-3.9-14.9-6.5-13.2-11.1-17-19.8-16.6-4.7.3-5.1.1-8.1-3.7-4.9-6.1-14.1-15.4-15.4-15.4-.6 0-2.6-1.9-4.4-4.3-4.6-5.7-12.2-13.8-12.7-13.3-.2.2.1 1.5.6 3 .9 2.1.8 2.6-.4 2.6-2.8 0-1.6 4.8 2.5 9.5 2.1 2.5 4.8 6.4 5.8 8.8 1.1 2.3 4 6.9 6.6 10.2l4.7 5.9-2.3 1.7c-1.2 1-3.5 2-5 2.3-4 .8-8.6 5.9-9.3 10.3-.4 2.1-1 5-1.5 6.5-1 3.2 1.1 6.5 6.6 9.8 2.6 1.7 3.3 2.6 2.7 3.9-.4.9-.8 11-.8 22.6 0 16-.4 23.2-1.8 30.5-1.6 8.6-1.8 14.7-1.5 61.5.3 46.9.5 52.5 2.2 57.4 1 3 2.7 6.7 3.9 8.3 3.4 4.6 12.9 10.5 18.1 11.2 8.5 1.3 27.5-3.7 54-14.1 7.6-3 13.9-5.3 14.1-5.1.1.2 1.2 2.2 2.5 4.5 2.6 4.7 3.3 4.9 7 2.8 1.4-.8 3-1.4 3.5-1.5.6 0 1 3.6 1 9.2 0 5.1.6 13.2 1.4 18.1l1.3 8.7H512V18.9l-3.1-2.7c-5.2-4.4-15.1-11.2-20.1-13.8L484.1 0H398zm-40 126.8c0 1-.4 1.8-1 1.8-.5 0-1-.9-1-1.9 0-1.1-.3-2.8-.6-3.8-.5-1.6-.4-1.6 1 .1.9 1.1 1.6 2.8 1.6 3.8"/></svg>