<svg xmlns="http://www.w3.org/2000/svg" width="682.667" height="512" version="1.0" viewBox="0 0 512 384"><path d="m402.8 4.2-.3 4.2-10 3.8c-16.1 6-23.8 11-32.6 21C346 49 338.3 64.7 337 80c-.5 5.2-1.4 10.8-2 12.4-.8 2.2-.8 3.1.1 3.7.9.5.9 1.8 0 5.4-1.5 6.1-.8 6.8 1.9 1.6 2.5-5 3.4-5.2 2.6-.7-1.3 6.8-.9 15.9.7 17.1.8.6 1.9 2.9 2.3 5 .7 3.7.7 3.8 1.6 1.5l.9-2.5 1.5 3.5c.8 1.9 2.4 4.3 3.4 5.3 1.9 1.7 2 1.7 2.1-.5 0-1.8.3-1.6 1.3 1.2 1.3 3.3 1.4 3.4 1.7 1 .4-2.1.9-1.5 4.2 4.5 2 3.8 3.7 7.4 3.7 8s-2.2 2.4-5 4c-2.7 1.6-5 3.6-5 4.3 0 1.3 5.7 7.2 11.3 11.8 1 .9 1.7 2.8 1.7 5.1 0 2.2.7 4.5 1.9 5.7 3.4 3.7 12.1 18.9 12.1 21.1s5.8 8.4 9.8 10.4c1.8 1 3.7.8 9.9-.9 4.2-1.1 8.2-1.9 9-1.6.7.3 1.8 1.8 2.3 3.2 1 2.6 1.1 2.6 2.5.8s1.4-1.8 1.5.3c0 1.2.5 2.5 1 2.8.6.3 1 2.6 1 4.9 0 3.9-.4 4.6-3.9 6.9-4.3 2.9-29.6 25.7-35.1 31.7-1.9 2.1-4.4 4.3-5.5 4.8s-7.6 1.3-14.5 1.7c-24 1.3-32 4.9-33.5 15-.9 5.4-1.1 5.6-18.5 12.9-12.2 5.1-12.5 5.2-12.2 8.1.2 2.7-.2 3.2-4.5 5.2-11 5-17.4 7.6-17.8 7.2-.6-.6-3.9-22.6-7-46.8-1.5-11.2-3.5-23.6-4.5-27.5l-1.8-7.1 6.1-11c3.4-6 7.6-14.7 9.3-19.3l3.1-8.4 6.4 9.1c16.6 23.7 30.9 41.6 30.9 38.5 0-1.6-3-9.4-5.1-13.5-1.1-2.2-7.8-13.6-14.8-25.4l-12.9-21.3.5-6.6c.7-7.7-.7-13.4-5.3-22.6-4.7-9.5-9.2-13-16.9-13-3.2 0-3.8-.6-10.7-10.9-4-6-8.3-11.4-9.5-12-1.2-.5-4.5-4.5-7.4-8.8-8.6-12.8-11.5-15.8-8.9-8.9.7 2.1.6 2.6-.5 2.6-2.6 0-1.7 5.3 1.9 10.6 1.9 2.8 3.9 6.7 4.4 8.7.6 2 3.1 7.1 5.6 11.2 2.5 4.2 4.6 8 4.6 8.4 0 1.5-4.3 3.8-8.4 4.4-5.9.9-10.2 5.8-12.3 14l-1.8 6.7 4.7 4.7 4.6 4.8-1.5 4c-.9 2.5-1.8 10.5-2.4 21-.4 9.3-1.8 22.2-2.9 28.5-2.2 12.6-2.4 22.7-1 45.5.5 8.2 1.2 24.9 1.5 37 1.1 38.9 2.9 49.6 10.2 57.6 12 13.3 28.5 12 73.6-6 7-2.8 13.1-5.1 13.5-5.1s2 2.1 3.5 4.6c1.6 2.6 3.3 4.4 4 4.1s2.9-1.3 5.1-2.2l3.8-1.6-.7 4.6c-.3 2.6-.3 8 0 12.1l.7 7.4H512V4.4l-3.9-2.2C504.3 0 503.8 0 453.7 0h-50.6zm-35.2 134.5c-1 2.5-2.6.3-3.2-4.3l-.6-3.9 2.2 3.3c1.3 1.8 1.9 3.9 1.6 4.9"/></svg>