<svg xmlns="http://www.w3.org/2000/svg" width="682.667" height="512" version="1.0" viewBox="0 0 512 384"><path d="m408.3 4.7.2 4.6-11.2 5.1c-14.8 6.8-23.9 13.2-30.7 21.6-14.2 17.6-24.7 42.1-22.9 53.7.3 1.8 0 5.5-.7 8.4-.9 3.8-1 5.3-.1 5.8.8.5.8 2.2.1 6.1-.6 2.9-.8 5.5-.6 5.8.3.2 1.4-1.4 2.6-3.7 1.1-2.3 2.3-4.1 2.6-4.1s.2 2-.2 4.5c-.9 6.6.4 17.5 2.1 16.9.9-.4 1.6.6 2 2.8 1 4.4 1.6 5.3 2.6 3.7.5-.9 1.2-.5 2.5 1.8 2.1 3.6 5.4 6.1 5.4 4.1.1-.7.7-.2 1.5 1.2l1.4 2.5.1-3v-3l1.6 3c2.9 5.7 5.7 10 7.2 11.2 1.2 1 1 1.6-1.6 4-1.7 1.5-4.3 3.8-5.8 4.9l-2.8 2.1 2.8 3.4c1.6 1.9 4.7 4.7 6.9 6.2 5 3.4 5.7 4.3 5.7 8.3 0 1.8.8 3.8 2 4.9 1.2 1 3 3.5 4.2 5.4 1.2 2 3.4 5.2 4.9 7.1s3.6 5.6 4.6 8.1c1.9 4.9 10 12.9 13 12.9.8 0 4.3-.7 7.6-1.6 5.5-1.4 6.2-1.4 7.3 0 1.3 1.8 2.4 1.1 2.4-1.6 0-3.3 3.1-1.9 5 2.4 2.2 4.8 2.7 11.8.9 11.8-2.4 0-38.7 31.9-42.9 37.8-1.3 1.8-3.1 2.2-17.3 3.1-26.3 1.8-33.4 4.7-36 14.9-.7 2.9-2 5.9-2.8 6.8-.9.8-7.8 4.1-15.5 7.4-13.8 5.8-13.9 5.9-13.6 8.9.2 3-.1 3.3-11.5 8.8-6.5 3.1-12.1 5.9-12.4 6-1.2.7-3.4-9.9-9.9-47.7-2.2-12.9-4.9-26.5-6.1-30.1l-2.1-6.6 7.3-10.9c3.9-6 9-14.7 11.1-19.3 2.2-4.5 4.3-7.9 4.7-7.5.5.5 4.1 6.5 8.1 13.4 16.5 28.4 25.9 42 26 37.8 0-3.4-5.6-17-16.8-40.3l-11.6-24 .3-10.2c.3-11.2-.7-15.7-5-24.7-3.2-6.7-7.7-10.6-12.5-10.6-3.9 0-4.6-.6-7.9-6.5-8.3-15.1-9.9-17.7-13.4-21.3-2.1-2.1-5.7-7.4-8-11.8s-5.1-9-6.1-10.4l-1.9-2.5.6 3.8c.4 2.9.3 3.7-.8 3.5-2.4-.5-1.3 5.9 2 12.2 1.7 3.2 3.1 7.1 3.1 8.6.1 1.6 2.4 7.4 5.3 13l5.2 10.1-3.7 2.2c-2.1 1.2-5.4 2.1-7.7 2.1-5.4 0-11.2 5.4-14.1 13.3l-2.2 5.8 4.2 5.4 4.2 5.4-2.6 6.5c-2.6 6.4-3.7 12.3-5.6 30.6-.5 5.2-1.7 13.3-2.6 18-2.2 11.5-2.1 28.6.4 57 1.2 12.9 2.4 28 2.7 33.5 2.2 36.2 5.2 50.2 12.3 57.7l2.6 2.8h49.4l9.3-3.4c5.2-1.9 14.1-5.3 19.8-7.6 8.3-3.4 10.5-3.9 11.3-2.8.4.7 1.8 2.9 3 4.8s2.3 3.6 2.4 3.8 2-.6 4.3-1.7c5.8-3 6.3-2.8 5.5 2.4l-.6 4.5H512V0H408.2zM376.8 143c1.6 2.1 2.1 3.7 1.6 5.5-.9 3.5-1.9 3.1-3.2-1.4-1.1-3.7-1.6-7.1-.9-7.1.2 0 1.3 1.3 2.5 3"/></svg>