<svg xmlns="http://www.w3.org/2000/svg" width="682.667" height="512" version="1.0" viewBox="0 0 512 384"><path d="m414.7 5.7.5 5.8-12.1 6.5c-6.7 3.5-13.8 7.8-15.8 9.5-2 1.6-5.1 4.2-6.9 5.8-4.3 3.7-14 18.2-19.1 28.7-7.3 14.9-9 22-9.7 40-.2 4.7-.7 9.4-1.1 10.5-.5 1.4-.4 1.6.3.7 1.6-2.3 2 .7 1.1 7.7-.5 3.5-.7 6.6-.5 6.8s1.3-1.9 2.5-4.7c1.2-2.7 2.4-5 2.7-5 .4 0 .3 2.5-.1 5.6-.8 6.4 1 15.4 3 15.4.8 0 2.1 2.5 3.1 5.7 1.5 5.1 1.8 5.5 2.4 3.3l.7-2.5 1.8 3.1c1.1 1.8 2.7 3.6 3.6 4.2 1.4.9 1.6.7 1.2-1.1-.3-1.4.3-1 1.5 1.3 1.9 3.3 2 3.3 2.3 1.1.4-2 1.2-1.3 6.1 5.2l5.8 7.6-5.5 4.3c-2.9 2.4-5.4 4.6-5.4 5.1-.2 1.6 8.5 10 11.6 11.3 3.7 1.6 4.3 2.4 5 6.7.5 3 6.7 11.7 8.4 11.7.5 0 .9.6.9 1.2 0 .7 1.2 2.6 2.6 4.3 1.5 1.6 3.7 5.2 5 8 2.5 5.4 12.4 14.5 15.7 14.5 1 0 3.4-.7 5.3-1.5s3.8-1.4 4.2-1.3c.4 0 2.5-.7 4.6-1.6 3.9-1.8 4-1.8 5.8.6.9 1.2 1.8 2.8 1.8 3.5 0 .6.5 1.3 1.2 1.5 2.3.8-.4 5.4-5.3 8.9-2.7 2-9.5 7.8-15 12.9s-11.6 10.1-13.5 11.1c-5.8 2.9-10.4 6.9-12.1 10.4-1.8 3.8-2.7 4.1-18.8 5-12.8.8-26.9 3.1-30.3 5-5.5 3-7.2 5.3-8.8 11.8l-1.6 6.5-13.7 6.1c-7.5 3.3-14.8 6.5-16.3 7-2.5.9-2.7 1.3-1.8 3.6.6 1.5 1 2.8 1 3s-3.5 2-7.7 4c-4.3 2-10.4 5-13.6 6.6l-5.7 3-1-2.7c-.6-1.5-1.5-4.7-2.1-7.3-.5-2.5-1.8-8.2-2.9-12.6s-4-17.8-6.5-29.8c-2.5-12.1-5.6-24.6-7-28l-2.4-6.1 6.1-8.1c3.4-4.4 7.4-9.6 8.9-11.5s4.4-6.8 6.5-10.8c2-4 4-7.5 4.5-7.7.4-.3 4.7 7.2 9.4 16.7 11.1 22 18 34.7 21.1 38.4l2.3 2.9.1-2.5c0-3.2-8.4-27.4-18.3-52.4-6.7-17.2-7.3-19.3-6.4-22.5 1.4-5.4.2-20.6-2.3-28.1-3.1-9.1-6.7-12.6-15.1-14.4-2.2-.5-3.5-2.5-8.4-13.3-6.1-13.5-8.9-18.3-10.8-18.3-.7 0-3.6-5.4-6.5-11.9s-6-12.7-6.8-13.7c-1.6-1.9-1.6-1.8.1 3.5.6 1.9.4 2.3-.8 1.8s-1.8.2-2.2 2.6c-.5 2.4.1 4.7 2 8.6 1.5 2.9 2.9 7.4 3 10 .2 2.5 2.4 9.6 4.9 15.8 2.5 6.1 4.6 11.6 4.6 12.1 0 .6-1.6 1.9-3.5 3.1-2.7 1.6-4.5 1.9-7.8 1.5-3.8-.5-4.6-.2-9.4 3.6-4.7 3.8-9.3 11.5-9.3 15.4 0 .6 1.6 3.1 3.5 5.5s3.5 4.9 3.5 5.6c0 .6-1.3 3.6-3 6.6-3.3 6-5.5 12.9-6.5 20.4-.4 2.7-2.2 13.6-4.1 24.2s-3.4 22-3.4 25.3c0 3.4 1.6 19.1 3.5 34.8 1.9 15.8 4.4 37.2 5.5 47.7 2.4 22.1 3.7 30.5 5.2 35.7l1.1 3.8H512V0h-97.8zM390 155.1c.7 1.6.9 4 .6 5.5-.6 2.1-.9 2.4-2.2 1.3-.8-.6-1.2-1.4-1-1.6.2-.3-.4-2.5-1.5-5-1-2.4-1.9-5.1-1.9-5.9 0-2.1 4.6 2.2 6 5.7"/></svg>