<svg xmlns="http://www.w3.org/2000/svg" width="682.667" height="512" version="1.0" viewBox="0 0 512 384"><path d="M421.4 5.2c.4 2.9.9 6.2 1.2 7.4.5 1.8-1.3 3.2-11.1 9.5-6.4 4.1-12.9 8.5-14.4 9.9-9.4 8.4-12.1 11.4-16.8 18.5-6.2 9.5-13.2 24.9-16.3 36-1.6 5.8-2.3 11.1-2.5 19.5-.1 6.3-.6 13.5-1 16-.7 4.2-.6 4.4.8 2.5 1.5-1.9 1.6-1.4 1 6.2-.3 4.6-.3 8.3 0 8.3.4 0 1.6-1.7 2.7-3.8l2-3.7-.6 4.3c-.3 2.4-.1 4.9.4 5.5.5.7 1.3 3.1 1.7 5.4.6 4 2.5 7 2.5 4.2 0-2.5 1.8.6 3.5 6.1 2.4 7.4 2.9 8 3.6 4.5l.6-3 1.2 2.6c.7 1.4 2.2 3.1 3.3 3.8 1.9 1.2 2 1.1 1.4-1.6-.5-2.5-.4-2.3 1.4.9 2.4 4.5 3.5 4.9 2.5 1-.4-1.6-.3-2.3.3-1.7.5.5 3.7 4 7 7.7 3.4 3.7 6.2 7.2 6.2 7.8 0 .5-2.2 3.1-5 5.7-2.7 2.6-5 5.1-5 5.5 0 1.8 8.3 9.4 12.2 11.3 3.4 1.6 4.5 2.8 5.3 5.7.6 2.2 3.6 6.5 7.2 10.5 7.8 8.6 10.2 11.7 13.3 16.9 1.4 2.3 4.9 6.2 7.8 8.8 6.2 5.4 8.3 5.7 17.8 2.1 8.5-3.2 9.5-3.1 11.6.5 1.8 3.1 1.5 6-.6 6-.7 0-2.1.8-3.2 1.7-1 1-4.4 3.8-7.4 6.2-3 2.5-8.5 7.3-12.2 10.8-3.6 3.5-7.1 6.3-7.7 6.3s-4.3 2-8.4 4.4c-5.2 3.3-7.8 5.5-9 8.1-2 4.2-4.9 5.5-12.5 5.5-8.7 0-31.1 2.8-36.5 4.6-7.4 2.4-10.4 5.8-12.4 13.8l-1.7 6.9-5.5 2.4c-3.1 1.3-6.7 3-8.1 3.7-1.4.8-6.4 3.1-11.3 5.1-9.2 4-9 3.7-7 9.2.3.7 0 1.3-.7 1.3-.6 0-7.4 3.1-15 6.9l-13.9 6.9-1.5-4.6c-.9-2.6-5.4-19.8-10-38.3s-9.5-36.4-11-39.9l-2.5-6.4 4.4-5c2.4-2.8 6-6.9 8-9.1 3.5-3.9 11.1-14.9 14.9-21.7l1.8-3.3 1.9 4c1 2.2 6.6 14.2 12.3 26.7 5.7 12.6 11.9 25.2 13.7 28 3 4.7 3.4 5 3.7 2.9.2-1.3-.1-4.4-.7-7-1.4-5.6-20.9-64.9-22.3-67.4-.6-1.1-.4-3.5.7-6.9 2.4-8.2 1.6-19.3-2.1-31-1.8-5.4-7.6-11.2-12.2-12.3-3.9-.8-4.5-1.6-7.5-9.7-5.3-13.9-10.9-25.6-12.6-26.1-1.1-.3-3.8-5.4-7.6-14.6-5.5-13.5-8.5-19.1-6.2-11.6 1.1 3.6.3 6-1.2 3.6-1.7-2.6-2.3 5.7-.7 9.2 2.9 6.1 4.8 12.9 4.2 15.2-.5 2.1 2.1 11.4 7 24.4 1.3 3.5 2.3 6.5 2.2 6.5-.2.1-2.5 1.2-5.2 2.4-3.4 1.6-5.2 2-5.9 1.3-4.2-4.2-15.9 3.3-20.7 13.2-2.5 5.3-2.6 6.1-1.4 8.6.7 1.5 2.5 3.8 3.9 5.1s2.5 2.7 2.5 3.1-1.5 2.9-3.3 5.5c-5.7 8.4-7.9 15.1-12.8 39.4-4.5 22.1-4.7 24.3-4.4 36 .2 8.2 1.8 21.5 4.4 38 4.2 26.6 10.1 66.8 10.1 68.8 0 .9 32.4 1.2 137 1.2h137V0h-91.3zm-18 161.4c2.4 3.8 2.5 4.4 1.3 7.2-1.2 2.9-1.3 3-2.5 1.2-.9-1.5-.9-2-.1-2q1.2 0-.3-1.8c-1.9-2.1-5.8-9.7-5.8-11.2 0-1.9 4.7 2.3 7.4 6.6"/></svg>