<svg xmlns="http://www.w3.org/2000/svg" width="682.667" height="512" version="1.0" viewBox="0 0 512 384"><path d="M435 1c0 .6 1.4 7 3.2 14.2l3.1 13.2-4.4 3.5c-2.4 2-6.2 5.4-8.4 7.7-2.2 2.2-5.6 5.3-7.6 6.7-4.4 3.3-15.2 15.9-17.7 20.7-1 1.9-3.2 6-4.9 9-1.7 3.1-3.4 7.1-3.8 9-.4 1.8-2.3 7.5-4.2 12.4-8.2 21.5-8.5 22.6-7.8 30 .4 3.8 1.1 8 1.7 9.5.6 1.4 1 6 1 10.1-.1 4.7.2 6.8.7 5.5.6-1.6 1-.9 2.1 3.3.7 2.9 1 6.6.7 8.1-.3 1.6-.2 4.1.2 5.7.7 2.8.8 2.8 1.5.6.4-1.2 1.1-2.2 1.5-2.2 1.2 0 4.2 8.3 4.9 13.3.4 3.2.7 3.7 1.3 2.2.5-1.3.8-1.5.8-.5.1 1.3.3 1.3 1 .1.7-1 1.9.7 4.4 6.3 2 4.2 3.7 7.6 3.9 7.6s.2-1.7 0-3.8l-.3-3.7 2.1 3.2c2.6 3.8 5.1 4.4 4.3 1-.4-1.7 0-1.5 1.7 1 2.8 4.1 3.3 4.1 2.6 0l-.6-3.2 1.3 3.4c1.1 3 1.4 3.2 2.1 1.6.6-1.6 1.3-1.2 6 3.4 3.2 3.1 5.9 5 6.5 4.6.7-.4 1.9-.1 2.9.7.9.7.5-.2-.8-2-6.5-8.9-11.9-16.8-12-17.5 0-1.4 9 6 12.1 9.9 4.9 6.1 3.3 13.3-5.1 22.7l-4.3 4.9 2.6 2.6c1.5 1.5 3.6 3.8 4.6 5.1 1 1.4 4.5 3.5 7.7 4.7 4.6 1.7 6 2.7 6.9 5.1.5 1.6 4.5 6.4 8.7 10.7 4.3 4.2 8.1 8.8 8.4 10.1.7 2.6 2 3.3 2.6 1.3.2-.6 2 .9 3.9 3.4s6.4 7.1 9.9 10.1c7.4 6.5 11.3 7.4 19.4 4.4 2.7-1 5-1.6 5.3-1.4.2.2-2.2 2.4-5.4 4.7-3.2 2.4-8.9 7.2-12.8 10.6-5.4 4.7-8.7 6.8-14.5 8.9-10.8 3.9-19.1 9.2-21.2 13.7-2 4.2-1.5 4.1-26.3 6.3-19.2 1.7-29.6 4-34.5 7.5-3.9 2.7-6.8 8.5-7.8 15.1l-.7 5.2-11.5 5.2c-6.3 2.9-14.1 6.4-17.3 7.9-3.2 1.4-6.2 2.6-6.8 2.6s-.7.9-.3 2.2.7 2.9.8 3.7c.1 1.5-4.4 4.3-10.8 6.8-11.2 4.4-13.4 4.3 83.2 4.3H512V0h-38.5C447.3 0 435 .3 435 1"/><path d="M281 118c-.1 2.4-.1 2.4-1.5.6s-1.5-1.5-1.5 3.7c0 3.3.9 8.5 2.1 12 1.3 3.6 2.3 9.2 2.4 13.2.2 6.5 2.2 14.6 7.6 30.9 1.1 3.2 1.7 6.1 1.5 6.4-.3.3-2.9 1.3-5.7 2.2-4.6 1.6-5.6 1.6-8.5.4-5-2.1-7-1.7-11.3 2.1-2.1 1.9-4.3 3.5-4.8 3.5-1.4 0-6.1 5.7-8.4 10.3-1.7 3.3-1.8 4.2-.7 7.3.6 1.9 2.4 4.6 3.9 6l2.8 2.6-5.2 7.7c-8.6 12.7-9.6 15.2-14.1 33.4-4.5 18-5.7 24.9-6.2 37.2-.7 12.7.7 23.4 6.1 48 1.3 6 3.6 17.2 5.2 24.8l2.7 13.7h32.3c17.8 0 32.3-.1 32.3-.3s-2-6.6-4.4-14.3-6.5-21.1-9.1-29.9c-6.4-22.1-10-32.8-12.6-37.3l-2.2-3.8L294 288c6.1-6.3 12.9-14.4 16.7-20.3 3.6-5.3 6.8-9.7 7.3-9.7s1.4 1.6 2.1 3.7c1.1 3.4 5.4 14.2 13.4 33.8 4.1 10.1 12.6 26.7 15.5 30.5l2 2.5V325c0-6.2-5-25.1-17.7-66.9-5.3-17.5-5.5-18.6-4.4-23.3 1.9-8.4 1.2-24.9-1.6-34.2-1-3.6-8.4-10.5-11.8-11.2-2.4-.4-3.6-1.4-4.4-3.2-.5-1.5-3.3-9.2-6.1-17.1-7-19.3-7.6-20.6-10.4-22.7-1.5-1.3-3.6-5.3-5.9-11.9-1.9-5.5-4.4-12-5.5-14.5-1.7-3.8-2.1-4.1-2.2-2"/></svg>