<svg xmlns="http://www.w3.org/2000/svg" width="682.667" height="512" version="1.0" viewBox="0 0 512 384"><path d="M443.6 1.5c-.6 1.6.4 5.9 4.9 21 5.2 17.1 5 15.5 2.2 17.9-1.3 1.2-3.8 3.2-5.4 4.6s-4.2 4.1-5.8 6.1c-1.7 2-6.1 7.2-10 11.6-9.3 10.6-10.4 12-12.8 16.2-1.2 2-2.4 3.8-2.7 4.1-2.2 1.8-7.4 14.2-8.4 20-.4 1.9-2.6 7.8-5 13-7.4 16.1-8 24.3-3 38.5 2 5.4 2.4 8 1.9 11.7-.6 4-.4 4.7.8 4.2 1-.3 1.8.2 2.1 1.4.6 1.6 2.5 16.1 2.6 19.7.1.5.9-.6 1.9-2.5l1.9-3.5 1.4 3.5c.8 2 1.8 5.7 2.2 8.3.6 3.8 1 4.6 2.1 3.7.9-.8 1.4-.6 1.9.5.3.9 1 1.4 1.6 1 .5-.3 2 1.6 3.2 4.2s3 6.1 4.1 7.8l1.9 3-.7-3.8c-.7-4.6-.1-4.7 2.5-.5 1.1 1.8 2 2.7 2 2s.4-1 1-.7c.7.4.7-.3 0-2-1.7-4.3-1.1-4.2 2.1.5 2.3 3.3 2.9 3.8 2.5 2-.4-1.4-.9-3.9-1.2-5.5-.6-2.8-.5-2.9.8-1 .9 1.1 2.1 3.7 2.7 5.7 1.7 5 3.6 6.3 2.7 1.7l-.6-3.3 3.2 3.1c3.7 3.4 11.2 8.3 12.9 8.3.6 0-1.3-2.8-4.3-6.3-5.9-6.9-12.3-15.7-11.3-15.7 2.2 0 13.7 9.7 15.5 13.1 3.6 6.5 1.6 15-5 21.4-2.2 2.2-4 4.5-4 5.1 0 1.2 2.4 4.1 8.4 10.5 1.4 1.4 4.8 3.2 7.7 4 3.1.8 5.6 2.2 6.3 3.4 3.7 6.9 6.3 10.6 7.7 11 .8.3 2.1 2.2 2.8 4.3.8 2 1.9 4.5 2.6 5.5 1.2 1.7 1.4 1.6 2-1.2.4-1.7 1-3.1 1.5-3.1 1.2 0 11.7 13.2 12.4 15.7.8 2.5 2.2 3 2.9 1 .3-.8 1.9.1 4.4 2.6 2.1 2 4.2 3.7 4.6 3.7s.7-67.3.7-149.5V0h-33.9c-29.5 0-34 .2-34.5 1.5M290.8 125.6c.3 1.7.1 2.5-.6 2-1.5-.9-2.6 8.7-1.3 11.2.5 1 1.9 5.3 3.1 9.6 1.5 5.7 1.7 8 .9 9.4-1 1.7 1 9.6 8.3 32.5 2.5 7.8 2.6 7.5-5.5 10.2-4.4 1.4-5 1.4-8.5-.3-4.8-2.3-7.1-1.9-11.7 2.4-2.1 1.8-4.3 3.4-4.9 3.4-3 0-10.6 11.5-10.6 15.8 0 1.1 1.6 4.3 3.5 7.1l3.5 5.1-4 5.4c-2.2 2.9-4 5.8-4 6.4 0 .5-.3 1.2-.7 1.4-1.1.4-5.9 10.4-7.6 15.8-1.5 4.4-5.1 19.2-7.7 31-.7 3-1.4 12-1.7 20-.5 12.1-.2 16.5 1.6 26.7 1.2 6.7 2.6 13.5 3.1 15 .4 1.5 2.1 8.5 3.7 15.5l2.8 12.8h32.9c28.9 0 32.7-.2 32.2-1.5-.3-.8-4.2-13.3-8.6-27.7-8.2-26.5-9.9-31.2-13.1-35.9l-1.8-2.6 9.5-9.4c10.9-10.7 16.4-17.5 22-27.1 2.1-3.7 4.2-6.8 4.5-6.8.4 0 4.6 9.8 9.4 21.7 11.5 28.4 16.4 38.7 21.5 45.6 2.4 3.1 4.5 5.7 4.8 5.7 2 0-3.3-22.3-12.5-52-13.6-44.1-12.5-39.5-11.3-49.2 1.2-8.9 0-24.9-2.1-30.7-1.5-3.9-6.9-9.1-11.5-11.1-4.4-1.9-4.2-1.6-9.4-16.5-7.2-20.5-10.7-28.3-13.8-30.2-1.1-.6-3-4.5-4.6-9-3.1-8.8-8.6-22.4-9.6-23.6-.4-.5-.5.4-.2 1.9M508 313.5c-2.2 2.3-5.6 3.9-11 4.9-1.4.3-4.1 1.1-6 1.9-11.9 4.7-17.5 8.3-19.1 12.3-1.2 3.4-5.8 5-15.9 5.8-29.3 2.3-42.9 5-49.5 10-3.1 2.4-6.1 9.9-6.7 17.1-.3 3.4-2.6 4.7-27 15.3-2.7 1.2-4.8 2.3-4.8 2.6s32.4.6 72 .6h72v-36.5c0-20.1-.4-36.5-.8-36.5-.5 0-1.9 1.1-3.2 2.5"/></svg>