<svg xmlns="http://www.w3.org/2000/svg" width="682.667" height="512" version="1.0" viewBox="0 0 512 384"><path d="M459.6 4.6c-5.4 7.1-5.4 8.2.7 26 3 8.8 5.8 16.6 6.1 17.5.5 1-.7 2.8-3.4 5.5-2.3 2.1-6.3 6.6-8.8 9.9-2.6 3.3-6.7 8.2-9.1 11-7.9 9.1-8.6 9.9-13.5 17.4-5.5 8.4-10.6 18.7-10.6 21.5 0 1.1-1.3 4.7-2.9 8-8.9 19.1-9.5 21-9.6 31.6 0 8.9.3 10.2 4.3 20.2 2.3 5.9 4.2 12.3 4.2 14.3s.6 4.6 1.4 5.8c.7 1.2 1.9 5.3 2.6 9.2 1.9 11.3 2 11.4 4 7.5s2.3-3.6 4.9 6c2.3 8.3 3.1 9.6 3.1 5.4l.1-2.9 2.5 3c1.4 1.6 4.6 6.5 7.1 10.7 2.6 4.3 4.8 7.7 4.9 7.5.2-.1-.1-1.9-.5-4-1-4.3-.6-4.6 1.9-1.5 2.4 3 3.5 1.7 2.1-2.4-1.2-3.6-1.2-3.7 3.9 3.2 1.9 2.5 1.9 2.5.5-2.4-.8-2.7-1.4-5.1-1.2-5.3.8-.7 4.4 4.5 6.2 8.7 2.6 6.2 3.9 7.4 3.1 2.8-.8-4.4-.4-4.6 3.2-1.8 1.5 1.2 5.3 4 8.4 6.4l5.7 4.3-1.7 3.4c-1 1.9-3.5 5.6-5.6 8.4-3.6 4.7-3.7 5-2 6.5 1.1.8 3.3 3.3 5.1 5.6 2.4 3.1 4.6 4.5 8.5 5.8 6.7 2.1 7.4 2.5 8.1 5.6.3 1.4 1.6 3.6 2.8 4.8 1.1 1.3 3.1 4.9 4.4 8l2.4 5.7 1.2-3.3c.8-2.5 1.6-3.2 2.8-2.6.9.3 2.4.9 3.4 1.1 1.6.5 1.7-7 1.7-148.1V0h-48.9zm18 228.3c.7 1 1.7 3.6 2.3 5.7.5 2.2 1.2 4.8 1.6 5.9.6 1.4-.3 1-3-1.5-5.7-5.4-15.2-17.4-14.8-18.7.5-1.4 11.9 5.6 13.9 8.6m-171.9-94.2c.3 1.8.2 4-.2 5-.6 1.5-1.1 1-2.6-2.5-1-2.3-2.2-4.2-2.8-4.2-1.6 0-1.8 8.3-.3 12.5 3 8.3 5 17.8 4.5 20.9-.3 2.3 1.3 8.5 5.6 21.6 3.4 10.2 6.1 18.8 6.1 19.2 0 .5-.7.8-1.5.8s-3.5 1-6 2.2l-4.6 2.3-3.9-2.3c-5.6-3.2-8.4-2.8-13.4 1.8-2.4 2.2-5.2 4-6.3 4-2.5 0-5.1 3-8.7 10.3-3.2 6.4-2.9 8.3 2.3 14.6l2.8 3.5-4.7 7c-9 13.5-12.4 23-17.5 48.1-3.2 15.8-4.2 34.5-2.6 47 1.2 9.6 5.7 30.2 7 32.3.6.9 8.1 1.2 33.7 1l33.1-.3-6.4-19.8c-5.8-18.2-7.5-22.5-10.4-26.7-.8-1.2.9-3.4 8-10.7 10.5-10.7 16.5-18.5 22.9-30 2.5-4.6 4.9-8.3 5.2-8.3s1.7 2.6 3 5.7c1.2 3.2 2.9 7.1 3.6 8.8 15.1 34.9 16 36.8 18.6 42 3.5 6.8 11.1 19.6 12 20.1 1.7 1.1.7-7.6-2.1-18.7-2.7-10.3-5.5-19.8-20.3-67.4-3.7-11.9-4.3-14.6-3.5-18 1.1-4.9.2-19.7-1.7-28.4-1.2-5.2-2.2-7.1-5.7-10.8-2.4-2.4-5.4-4.6-6.6-4.9-2.2-.6-3.4-2.9-8-15.9-6.2-17.7-10.6-27.6-13.3-29.8-1.9-1.5-4-5.6-7-13.7-2.3-6.3-5.3-13.8-6.6-16.5-1.9-4.1-2.2-4.4-1.7-1.8m197.6 202.4c-6 2.9-9.3 5.6-12.3 9.8-1.5 2.2-5.8 3.2-19.5 4.6-34.8 3.6-42.6 5.3-48.8 11.3-2.7 2.6-5.7 10.4-5.7 14.9v2.3h95v-23c0-17.7-.3-23-1.2-23-.7 0-4.1 1.4-7.5 3.1"/></svg>