<svg xmlns="http://www.w3.org/2000/svg" width="682.667" height="512" version="1.0" viewBox="0 0 512 384"><path d="M485 7.1c-7.3 7.9-11.8 14.1-12.7 17.7-.6 2.5.8 7 8.3 27l4.3 11.4-4.7 4.7c-10.1 10.2-29.2 33.1-29.2 35 0 .5-.7 1.4-1.6 2.1-2.2 1.9-8.9 13.8-10.4 18.5-.7 2.2-4.1 9.8-7.5 17-10.8 22.6-10.8 33.1 0 54.5 1.3 2.6 2.6 7 2.9 9.7.6 6.2 1.6 10.3 2.6 10.3.5 0 1.2 3.1 1.6 7 .7 7 1.7 8.8 2.9 4.9 1.2-3.6 2.8-1.5 4.9 6.2l2.1 7.4 1-5 1.1-4.9 2.3 5.8c2 4.9 11.6 20.6 12.6 20.6.2 0-.1-1.5-.6-3.2-1.4-4.9-1.1-5.6 1.2-2.8l2.1 2.5-.7-4.4-.6-4.5 2.2 3c3.8 5 4 5 2.4.5-.8-2.4-1.5-4.6-1.5-4.9 0-1.8 6.6 6.1 9 10.8 2.8 5.4 2.9 5.4 3 2.2 0-1.7.3-3.2.6-3.2.4 0 2.7 1.5 5.3 3.4 5 3.6 9.1 6 9.1 5.2 0-.3-3.1-4.1-7-8.6-6.5-7.5-8.4-11-6-11 .8 0 5.2 2.6 10.6 6.4 1.9 1.3 3.7 6 4.9 12.4.2 1.3.7 3.2 1 4.3.7 2.2-2.2 7.5-7.2 13.2-3.7 4.2-3.7 4.7 1.9 11 2 2.3 5.2 4.4 8.2 5.5 4.7 1.7 5.1 2 6.2 6.6.7 2.6 1.5 5 1.8 5.4.3.3.6-68.6.6-153.1V0h-10.2l-10.3.1zm-3.6 233.5c.9 2.4.2 2.6-1.2.4-.7-1.1-.8-2-.3-2s1.2.7 1.5 1.6M236 96.6c.6 1.5 1.5 5.7 2 9.5.6 4.5 1.9 8.1 3.6 10.6 4.2 6.1 8.4 15 8.4 17.8 0 2.2 2.9 7.9 12 24 1.3 2.2 3.4 6 4.8 8.5s6.3 10.8 11 18.5c17.3 28.5 15.7 25.4 13.6 27-1.7 1.2-2.3 1.1-5-.6-4.9-3-8.7-2.5-12.7 1.6-2.3 2.3-4.8 3.8-7.1 4.2-4.4.7-6.8 3.4-9.6 11.1-2.6 6.8-2.1 9 2.6 13.2l3.7 3.2-2.2 3.6c-9.9 16.4-14.2 32.5-16.3 61-1.8 23.2.1 37.7 8.3 64.4l3 9.8h34.4c19 0 34.5-.2 34.5-.5s-1.1-3.3-2.4-6.7c-1.3-3.5-4.5-12.4-7.1-19.8s-5.8-15.2-7.1-17.2c-1.3-2.1-2.4-4.1-2.4-4.6s2.7-3.7 6-7.2 6-6.8 6-7.3c0-.6.3-.8.6-.4.9.9 9-9.8 11.7-15.3 1.2-2.5 2.5-4.6 3-4.8.4-.2.7-1.1.7-2 0-1 .7-2.6 1.5-3.6s1.2-2.3.9-2.7c-.3-.5 0-.9.5-.9.6 0 1.1-.8 1.1-1.8 0-.9.5-2.4 1-3.2 1.3-2 2.9 0 11.7 14.5 6 10 10.5 16.4 16.2 23.5l2.1 2.5v-2.6c0-5-7.3-23.7-15.8-40.2-6.5-12.7-7.5-15.4-5.6-16.1.8-.3 1.4-1.6 1.4-3 0-1.3.6-2.6 1.2-2.8.9-.3 1.4-6 1.6-21.1l.4-20.6-3-3.8c-1.6-2.1-4.6-6.6-6.7-10.1-7.4-12.7-12-15.8-21.2-14.1-3.3.6-5.6 1.8-7.3 3.7l-2.5 2.8-10.1-19.1c-16.4-31.2-18.5-34.5-24.6-40.2-4.4-4-10.5-8.4-15.5-11.1-1.3-.8-6.9-8.2-12.4-16.6-9.7-14.7-15.2-21.1-12.9-15m91.9 125.6-1.2 5.2-2.1-4.4-2.2-4.5 2.8-.8c1.5-.4 2.8-1.3 2.9-2 0-.9.2-.9.6.1.3.7-.1 3.6-.8 6.4m182 143.1c-1.6 2.2-3.6 2.4-39.9 4.6-20.6 1.3-25.6 2.7-31.8 8.9l-4.7 4.7 38.9.3c21.4.1 39.1.1 39.3-.2.2-.2.2-4.8.1-10.3-.3-9.3-.4-9.9-1.9-8"/></svg>