<svg xmlns="http://www.w3.org/2000/svg" width="682.667" height="512" version="1.0" viewBox="0 0 512 384"><path d="M85 38.4c0 .2 1.4 2 3.1 3.9s4.5 5.6 6.2 8.2c1.9 2.8 5 5.8 7.5 7.2 7 3.8 15.4 10.4 15.9 12.4.7 2.6 32.8 25.1 71.8 50.4 3.3 2.2 10.7 7.4 16.5 11.6 11.5 8.4 20.2 14.5 35.5 24.9 5.5 3.7 10.9 7.8 12.1 9.1 4.8 5.5 10.4 23.6 10.4 33.6v3.5l-6.4-6.6c-3.5-3.6-6.8-6.6-7.4-6.6s-3.1.6-5.4 1.4c-2.4.8-5.7 1.7-7.4 2.1-4.1.8-7.4 4.5-11.7 13-2.7 5.3-4.8 7.8-8.4 10.4-2.7 1.9-6.4 5.6-8.2 8.3-1.9 2.7-4.2 5.3-5.2 5.9-3.3 1.7-4 4.3-2.8 10.1.7 2.9 2 7.1 3 9.5 1.5 3.5 2.4 4.4 5.8 5.3 3.5.9 4.1 1.5 4.9 4.8 3.9 16.8 6.4 25.9 8.7 31.3 1.5 3.5 5.6 13.8 9.1 22.9 10.2 26.2 11.1 28.4 20.2 49.3l8.6 19.7h36.8c20.2 0 36.8-.1 36.8-.3s-4.2-8.8-9.4-19.2c-5.1-10.5-12.4-26-16.2-34.5-6.2-14.2-6.8-16.2-7.2-23.5-.4-9.9 3.2-38.4 5.4-42.8.9-1.8 3.5-5.9 5.8-9.2 4.6-6.7 4-5.9 10.4-14.1 2.6-3.3 6.1-8.2 7.7-11 1.5-2.7 3.1-5.1 3.4-5.4 1-.8 3.1-7.5 3.1-9.7 0-3.2-6.4-8.3-10.5-8.3-5.4 0-9 2.9-15.4 12.6-3.3 4.9-7.5 10.4-9.5 12.3l-3.5 3.4-.5-2.4c-.3-1.3-.7-4.4-1-6.9-.4-4.4-4.9-24.7-6.7-30.4-1.3-4.2-.1-5 3.4-2.3 1.8 1.3 4.8 3.2 6.7 4.2s3.7 2.1 4 2.4c.8 1.1 6.2 4.3 6.5 3.9.2-.2-1.7-2.9-4.1-6.1-2.4-3.1-4.1-5.7-3.8-5.7.4 0 .1-.6-.5-1.4-.8-.9 1-.6 5.4 1 3.6 1.3 6.5 2 6.5 1.5 0-1.4-8.5-9.1-20.5-18.6-10.9-8.7-14.2-11.5-11.7-10.1 1.3.8 1.7-.6.5-1.8-.7-.7-1-1.7-2-6.8-.3-1.8-1.7-5-2.9-7-1.3-2.1-2.4-4.4-2.4-5.1 0-2.2-2.2-3.7-5.5-3.7-1.7 0-3.7-.6-4.4-1.3-1.1-1-1.4-1-1.8 0-.7 1.9-1.7 1.6-5.1-1.7-1.7-1.6-4.3-3.2-5.7-3.6-2.6-.6-5.5.9-5.5 3 0 .6-.4 1.7-.9 2.5-.7 1.1-2.2.5-7.3-3.2-3.4-2.5-8.5-6.2-11.3-8.2-2.7-2-15.3-11.4-28-20.8-35.2-26.3-44.2-32.6-54.5-38.2-5.2-2.8-10.7-5.9-12.2-6.9-1.6-1-2.8-1.5-2.8-1.1s-1.1 0-2.5-.9-3-1.4-3.5-1.1c-.6.3-1 .1-1-.4 0-.6-.6-1.1-1.4-1.1s-2.2-.7-3-1.6c-.9-.8-2-1.2-2.6-.9-.5.3-1 .1-1-.5s-.5-.8-1-.5c-.6.3-4.9-1.8-9.8-4.8C94.6 41.1 88.6 38 86.5 38c-.8 0-1.5.2-1.5.4m422.1 17.1c-5.3 7-5.3 9.1.3 24.1l4.5 11.9V70.7c.1-11.4-.1-20.7-.3-20.7s-2.2 2.5-4.5 5.5m-2.2 55.8c-7.1 6.7-22.9 24-22.9 25.1 0 .3-1.5 2.8-3.3 5.4s-4.6 6.9-6.2 9.6c-1.7 2.8-4.2 7-5.8 9.5-1.5 2.5-5.2 9.4-8.1 15.2-9.9 19.6-9.8 29.1.5 49.6 3.5 6.8 6.2 13.7 6.5 16.3.3 2.5 1.6 7.9 2.9 12s2.6 8.8 2.8 10.5l.3 3 1.3-3.3c.7-1.7 1.7-3.2 2.1-3.2s1.4 2.9 2.1 6.5c1.3 6.8 2.9 7.8 2.9 1.7 0-4.3.7-3.7 4.6 3.8 1.5 3 3.5 6.4 4.4 7.5s2.9 4.1 4.3 6.7c3.4 5.8 4.5 6.6 3.9 2.6-.4-2.4-.2-2.9.8-2.3s1.2.4.7-.9c-.4-1-1-3-1.2-4.4l-.6-2.7 1.7 2.3c2.2 3 3.6 2.8 2.3-.4-.5-1.5-.8-2.8-.6-3 .7-.7 8 6 9.8 9s1.9 1.2 1.9-89.7c0-51-.1-92.7-.2-92.7-.2.1-3.3 2.9-6.9 6.3m-22.6 272.4c2.6.2 6.8.2 9.5 0 2.6-.2.4-.3-4.8-.3s-7.4.1-4.7.3"/></svg>