<svg xmlns="http://www.w3.org/2000/svg" width="682.667" height="512" version="1.0" viewBox="0 0 512 384"><path d="M242.3 258.7c-2.8 1.1-1.3 6.5 3.9 14 6 8.6 15 17.8 28.7 29 5.2 4.3 12.4 11.4 15.9 15.7l6.4 7.9-11.8 3.4c-23.9 6.7-25 7.8-23.3 24.9.5 6 1.5 12.7 2.1 15.1.7 3.1.7 5.6-.2 9.3-.7 2.8-1 5.3-.8 5.6.3.2 29.1.3 64.2.2l63.7-.3-6.2-9c-3.4-5-7.9-11.1-10-13.7-3.3-4-3.9-5.3-3.9-9.5 0-7.1 1.8-16.7 4.5-24.6 1.4-3.9 2.5-8.5 2.5-10.2 0-3.3-2.5-6.5-5.1-6.5-.8 0-2.6-1.5-4.1-3.4-5.4-6.7-11.9-2-16.3 11.9-4.8 14.8-5.2 15.7-7.6 14.5-1.1-.6-10.4-7.7-20.7-15.7S304.4 302 303 301.1c-3-1.9-14-10.1-15.6-11.6-4.4-4.1-21.6-19.8-24.4-22.2-8.7-7.6-16-10.6-20.7-8.6"/></svg>