<svg xmlns="http://www.w3.org/2000/svg" width="682.667" height="512" version="1.0" viewBox="0 0 512 384"><path d="M263 282.5c-2.1 2.5-.3 7.4 5.6 15.3 8.5 11.3 11.7 14.5 24.7 25 7.8 6.2 14.2 12.4 18.3 17.6 6.8 8.5 7.3 9.6 4.9 9.6-2.5 0-19.6 5.9-25.2 8.7-7.5 3.8-8.4 6.6-6.7 20.5l.6 4.8h109.5l-.5-3.1c-.8-5.6 1.9-21.1 4.9-28.3 4.3-10.1 3.6-14.1-2.7-16-1.1-.3-3-2-4.2-3.6-5.1-6.8-11.9-1.8-16.6 12.1-1.6 4.6-3.3 8.8-3.7 9.3-.5.6-.9 1.8-.9 2.8s-.6 1.8-1.3 1.8-7.3-4.8-14.7-10.6-21.3-16.4-30.9-23.5c-9.5-7.2-21-16.5-25.5-20.8-20.9-20-31.6-26.5-35.6-21.6"/></svg>