<svg xmlns="http://www.w3.org/2000/svg" width="682.667" height="512" version="1.0" viewBox="0 0 512 384"><path d="M284.2 306.6c-3 2.2.8 9.6 11.2 21.9 5.9 6.9 9.7 10.4 19.8 18.4 8.2 6.6 15.8 14.3 21.2 21.5l3.6 4.8-9.2 3.2c-5.1 1.8-11.3 4.2-13.8 5.4l-4.5 2 39.4.1c21.7.1 39.2-.1 39-.3-1.2-1.2-23.9-18.6-40.9-31.3-10.7-8.1-22.2-17.2-25.5-20.4-26-24.6-34.2-29.8-40.3-25.3m121.5 52.7c-1.9 1.8-4.2 5.4-5.2 8.2-1 2.7-2.9 7.4-4.2 10.3-1.2 2.9-2.3 5.5-2.3 5.7 0 .3 6 .5 13.4.5h13.3l2.7-6.1c1.4-3.3 2.6-7 2.6-8.3 0-2.5-3.8-6.6-6.1-6.6-.8 0-2.6-1.5-4-3.3-3.4-4.2-6.1-4.3-10.2-.4"/></svg>