<svg xmlns="http://www.w3.org/2000/svg" width="682.667" height="512" version="1.0" viewBox="0 0 512 384"><path d="M0 192v192h504l-1-2.3c-.7-1.8-1.7-6.7-2.5-13.2-.6-3.8-1.8-9.3-2.5-11-.5-1.1-1.6-5.2-2.6-9-.9-3.9-2.1-7.4-2.6-8-.4-.5-.8-1.5-.8-2.2s-1.1-3.7-2.5-6.7-2.5-5.7-2.5-6c0-.8-8.3-18-8.9-18.6-.6-.5-2.9-3.9-9-13.5-1.4-2.2-3.8-5.4-5.2-7-1.5-1.7-6-6.8-10.2-11.5-6.8-7.7-13.5-14.1-21-20.1-2.1-1.6-2.7-2.7-2.3-4.3.8-2.7 5.4-25.1 6-29.1.4-2.4 1.8-10.7 5-28.5.7-3.7 2.5 0 7.6 15.9 6.2 19.4 8.6 22.7 7.6 10.4-.4-4.3-1.1-10.3-1.6-13.3l-2-12c-.5-3.6-2.3-14.6-3.9-24.5-2.3-14-2.7-19.2-2.1-23.5.5-3 1.1-11.9 1.4-19.7.7-14.7 1.3-20.3 2.5-20.3.4 0 4 9.8 8.1 21.7 4.8 14.3 8 22.4 9.3 23.5 2 1.6 2.1 2 .9 15.9-.9 10.2-.9 14.4-.2 14.9.6.4 1 1.1.9 1.6s0 1.6.4 2.4c.3.8.9 2.8 1.4 4.4 1.5 4.7 3 4.1 3.7-1.4.8-5.8-.6-5.4 17.3-5.5H506l3-3.5 3-3.5V0H0zm400.6-17.2c1.4 5.7 2.2 10.7 1.9 11-.4.4-1.5-.3-2.5-1.6-1-1.2-2.9-2.2-4.3-2.2-2 0-2.8-.7-3.7-3.5-1.3-4-.7-8.2 2.3-14.4 2-4.3 2.1-4.3 2.9-2 .5 1.3 2.1 7.1 3.4 12.7m7.8 31.7c.3.9 0 1.5-.9 1.5-.8 0-1.5-.7-1.5-1.5s.4-1.5.9-1.5 1.1.7 1.5 1.5M423 240c0 1.3-.1 1.3-1 0-.5-.8-1-2.2-1-3 0-1.3.1-1.3 1 0 .5.8 1 2.2 1 3"/></svg>