<svg xmlns="http://www.w3.org/2000/svg" width="682.667" height="512" version="1.0" viewBox="0 0 512 384"><path d="M26 2.5c-2.6 6.7-14 52-14 55.4 0 2.3 4.2 6.2 6.9 6.4 1.2.1 2.1.8 2.1 1.8 0 .9.6 2.1 1.3 2.7 1.1.9.9 3.2-1 12.4-1.2 6.2-2.5 14.4-2.8 18.3l-.6 7 2-3.5c1.1-1.9 3.3-5 5-6.8s3.1-4.3 3.1-5.5c0-4.3 4.1-17.2 6-18.7 1.2-1 3.2-6.7 5.9-17C43.4 41.5 53 1.5 53 .4c0-.2-5.9-.4-13-.4-12.9 0-13.1 0-14 2.5m323 376c-.6.8-.9 2.3-.5 3.5.6 1.8 1.4 2 9.1 2 9.6 0 9.9-.7 2.4-4.5-5.6-2.8-9.2-3.2-11-1"/></svg>