<svg xmlns="http://www.w3.org/2000/svg" width="682.667" height="512" version="1.0" viewBox="0 0 512 384"><path d="M77 .6c0 .6 1.9 3.9 14.2 25.4 5.2 9.1 12.3 21.9 15.8 28.5s7.7 14.5 9.3 17.5 5.9 11.1 9.5 18 10.6 19.5 15.5 28 10.5 18.2 12.4 21.5c4.5 7.9 9.5 12.9 14.9 15 3.9 1.5 5.5 3.3 14 15.1 5.2 7.3 10 13.7 10.6 14 .5.4.3-.4-.5-1.7s-1.8-4.7-2.2-7.4c-.4-2.8-1.9-7-3.5-9.5-4.1-6.4-7.3-13.9-6.6-15.6.6-1.6-11.5-23.8-26-47.6-4.8-7.9-9.8-16.1-11.1-18.3s-8.8-14-16.8-26.3c-7.9-12.3-19-30.2-24.7-39.7L91.5.1 84.3 0c-4 0-7.3.3-7.3.6"/></svg>