<svg xmlns="http://www.w3.org/2000/svg" width="682.667" height="512" version="1.0" viewBox="0 0 512 384"><path d="M349 147c-.8.5-3.3 1-5.6 1-2.7 0-5.1.8-7.5 2.6-4.6 3.4-8.9 5.7-11.6 6-5.4.6-63 33-98 55.2-6.1 3.9-12.7 7.8-14.5 8.8-1.8.9-3.5 2-3.8 2.3-.3.4-6.8 4.6-14.6 9.4-7.7 4.9-15.3 9.9-16.8 11.2-2.8 2.4-2.7 2.9.2 7.5.2.2.7-.2 1.2-1 .6-.9 1-1 1-.3s-1.7 2.5-3.7 4c-2.1 1.5-4.3 3.2-4.9 3.8-.6.5-4.9 4.1-9.6 8q-13.05 10.65-11.4 12.3c.5.5 21.6-9.6 26.6-12.8.8-.5 5.3-3.2 10-6 11.9-7.1 9.8-5.8 41-25 7.4-4.6 16.2-9.9 19.5-11.8s9-5.5 12.7-7.9c3.7-2.3 6.9-4.3 7.2-4.3.9 0 45.9-28.9 50.1-32.3.6-.4 3.8-2.8 7.3-5.3s6.6-5.4 7-6.5 4.1-4 8.2-6.5 8.7-5.3 10.2-6.2c1.6-.9 2.8-2.1 2.8-2.6s.7-1.8 1.7-2.8c1.5-1.7 1.5-1.8-.8-1.8-1.3 0-3.1.5-3.9 1"/></svg>