<svg xmlns="http://www.w3.org/2000/svg" width="682.667" height="512" version="1.0" viewBox="0 0 512 384"><path d="M0 166.5C0 324.4.1 333 1.8 333.1c.9 0 3.7.2 6.2.5 2.5.2 20.3 1.5 39.5 2.9 19.3 1.4 38.6 2.8 43 3.2 6.7.5 8.4.3 9.7-1.1.9-.9 2.1-1.6 2.7-1.6s1.1-.5 1.1-1.1c0-1 9.5-12.5 14-16.9.8-.8 4.4-4.9 8-9 3.5-4.1 7.4-8.6 8.7-10 3-3.4 9.3-11.9 9.3-12.6 0-.3 1.3-2.3 2.8-4.3 1.6-2 3.9-5.4 5.1-7.6 4.5-7.6 6.4-11 9.4-16.5 1.7-3 3.8-6.8 4.8-8.3l1.7-2.9-12.2-11.6c-6.6-6.5-14.1-13.6-16.5-16-2.4-2.3-4.6-4.2-4.9-4.2-.2 0-1.5-1-2.7-2.3-4.3-4.3-28.7-25.1-31.8-27.1-4.6-2.8-13.6-5.4-24.6-7.2-18.8-3-20.4-3.8-34.8-18.2-10-10.1-10.6-11.4-11.1-25.3l-.4-11.7 8.6-8.6c5.2-5.1 8.6-9.3 8.6-10.6 0-1.1.6-2 1.4-2s4-1.9 7.2-4.3c8.7-6.3 10.1-6.7 23.7-6.7 16.6-.1 21.8 1.7 32 11 7.7 7.1 12.5 13.8 15.3 21.8 3.2 9 3.1 15.4-.2 21.2l-2.6 4.5 3.4 2.9c1.8 1.5 8.3 6.6 14.3 11.2 15.5 11.8 23.6 18.2 26.5 20.9 3.7 3.4 21.1 15.7 21.6 15.2 1.1-1.1 2.1-10.3 1.3-11.9-.6-1.2-.6-3.2.1-5.6 1.2-4.5 1.3-9.2.2-9.2-.5 0-.7-1.4-.4-3.1.3-2.1-.2-3.7-1.6-5.2-4.1-4.5-5.1-8-4.8-16.8l.2-8.4 6.8-10.8c6.2-9.8 6.8-11.2 6.2-14.7-.4-2.7-.2-4.1.9-5 2-1.7 1.9-4.7-.2-5.8-1.5-.9-1.5-1.7-.4-8.3.7-4.1 2-9 2.8-11 2-4.9 1.1-8.6-4.3-18-4.3-7.5-4.8-10.2-1.8-11.3.8-.3 1.4-.9 1.4-1.4s-3.6 0-8.1 1.1l-8 2-5.2-2.7c-2.9-1.4-6.2-2.6-7.3-2.6-2.4 0-6.4-3.9-6.4-6.3 0-.9-2.6-4.3-5.9-7.6-3.2-3.2-6.5-7.7-7.3-9.8-1-2.6-3-4.8-6.1-6.8-2.6-1.7-4.9-3.6-5.2-4.3-.2-.7 1.6-3.6 4.2-6.3 4.2-4.5 4.6-5.3 3.7-7.7-.5-1.5-1.8-2.8-2.9-3-1.7-.3-1.7 0 .5 1.7 3.2 2.6 2 2.7-2.9.1-3.8-1.9-6.2-1.9-71-2H0zM472 3.6c-2.5 2-4.7 3.7-4.9 3.9-1.2 1.2 12.8-4.2 14.8-5.7l2.4-1.8-3.9.1c-2.9 0-5.1.9-8.4 3.5M500.5 1c-.4.6-1.1.7-1.7.4-.6-.4-.8-.3-.5.3C499 2.8 487 12 484.9 12c-.7 0-1 .3-.7.6.6.5 14.4-.8 24.1-2.2 3.7-.6 3.7-.6 3.7-5.5V0h-5.4c-3 0-5.8.5-6.1 1"/><path d="M486.5 5.6c-4.4 1.9-10.5 4.5-13.5 5.7-5.4 2.2-5.4 2.2-2.2 2.5 4.3.4 11.5-2 18.8-6.4C500.5.9 499 0 486.5 5.6m19 23.9c-6.3 1.3-6 1.6 2.8 3 3.5.6 3.7.4 3.7-2 0-1.4-.1-2.4-.2-2.4-.2.1-3 .7-6.3 1.4m-17.3 7.3c-.9.6.6 1.1 4.5 1.6 3.2.4 8.4 1.4 11.6 2.2 6.3 1.6 7.7 1.3 7.7-1.7 0-1.7-.8-1.9-8.4-1.9-4.6 0-9.6-.2-11.2-.5s-3.5-.2-4.2.3m.9 4.6c.6.6 21.2 8.6 22.2 8.6.4 0 .7-1.5.7-3.3v-3.4l-9.4-1.1c-9.9-1.3-14.2-1.5-13.5-.8m-54.1.9c0 .6 8 5.6 15.2 9.6 3.2 1.7 11 5 17.5 7.2 6.5 2.3 12.3 4.6 12.8 5.1.7.7.3.8-1 .4-6.5-1.8-14.4-3.3-13.9-2.5.3.5 3.5 3.2 7.1 5.9 10.7 8.1 10.1 9.3-1 2.1-5.6-3.7-11.5-7.4-13.2-8.3-4.3-2.3-24.6-7.9-25.8-7.1-.6.4-.7.1-.2-.7.6-1 .2-1.2-1.5-.7-1.3.3-3.6-.1-5.2-.9s-3.4-1.1-4.1-.7-1.9.7-2.7.5c-.8-.1-4.3.8-7.7 2.1l-6.2 2.3 6.7 2.9c3.7 1.6 9.2 4.5 12.2 6.4 3.1 2 6.4 4.2 7.5 4.9s3.4 1.9 5 2.6c4.4 2.1 13.3 10.6 15.3 14.6.9 1.9 3.3 4.5 5.2 5.7s4.6 3.1 6 4.2l2.5 2.1-2.8-1c-1.5-.5-4.1-1.7-5.7-2.5l-3-1.6v13.2l-6.1-6.5c-3.3-3.6-6.4-6.5-6.7-6.4-.4.1-2-.5-3.7-1.2-1.6-.7-4.1-1.5-5.4-1.6-1.4-.2-4.8-1.9-7.7-3.9l-5.3-3.7-17.6 1.7c-9.6.9-18.5 1.3-19.8 1-2-.6-1.9-.4.8 2.4 4.1 4.2 12.6 6.4 22.5 5.8 7.1-.4 7.3-.4 4.3.9-1.8.8-3.3 1.6-3.3 1.9 0 .2 1.9 1 4.3 1.6 6.2 1.7 3 2.2-4.6.6-5.7-1.1-9.9-.9-11.5.8-.2.2 2.1 3.4 5.2 7.1 3 3.8 5.3 7 5.1 7.2s-4-2.6-8.5-6.3c-7.5-6.2-8.4-6.6-11.7-6-2.6.4-3.3 1-2.9 2.1.3.9.6 1.7.6 2 0 1.9 36.7 16.4 41.7 16.4 1 0 1.3.3.7.9-.5.5-4.5 1.1-8.9 1.4s-13.6 1.5-20.5 2.6c-6.9 1.2-16.3 2.1-21 2.1-10.2-.1-9.8.9 2.3 5.9 10.1 4.1 15.6 5.1 21.3 3.9 3.5-.8 5.2-.6 7.8.6 2.4 1.1 4.8 1.4 7.9 1 4.1-.6 4.7-.4 6.2 2 .9 1.4 3.1 7.2 4.7 12.8 1.6 5.7 3.3 10.6 3.6 10.9.4.4 5.4-.2 11.2-1.3 8.6-1.7 14.6-2 32.8-2 12.3 0 22.7.3 23 .7 1.3 1.2 1.4 21 .2 32-1.3 12.8-4.1 25-7.6 33.6-2.4 5.8-2.4 7.9-.3 7.9.6 0 5.8 1.8 11.6 4 5.9 2.2 11.3 4 12 4 1.1 0 1.3-17.1 1.3-95.9V55.2l-3.2-1.2c-4.3-1.5-17.9-3.6-24.6-3.9-3-.1-10.4-1.6-16.5-3.2-7.8-2.2-14.1-3.2-21-3.4-5.3-.2-10.2-.7-10.7-1-.6-.3-1-.4-1-.2m-91.1 43.3c4.8 2.9 16.5 7.4 19 7.4 2.3-.1-4.6-3.6-14-7-9.9-3.7-10.6-3.7-5-.4"/><path d="M376 105.4c0 .2.7.7 1.6 1 .8.3 1.2.2.9-.4-.6-1-2.5-1.4-2.5-.6m-43 27c0 1.2 6.4 14.4 7.6 15.8.9.9 1.7 2.7 1.9 4 .1 1.2 2.3 7.5 4.8 13.8s5.8 15.7 7.4 20.7c2.4 8.1 3.1 9.3 5.1 9.3 1.8 0 2.2-.5 2.2-3.4 0-7.4 4.9-25.5 9.1-33.7 2.4-4.9 10.2-12.9 12.4-12.9.8 0 1.5-.4 1.5-.9 0-1.1-3.2-1.8-12.5-2.7-8.8-.8-20.8-3.7-30.8-7.4-8.2-3.1-8.7-3.3-8.7-2.6m-96.5 108.8c-7.7 13.2-15.4 20.4-26.9 24.7-5 1.8-10.1 7.6-24.1 27.1-11.8 16.5-13.5 19.9-15 30.5-.8 4.9-1.7 10.7-2.1 12.8-.8 4.2-.8 4.2 3.7 2.3 1.9-.8 8.4-2.6 14.4-4l11-2.7L208 322c23.2-22 24.2-23 33-34 1.9-2.4 4-4.8 4.5-5.4 2.9-3 8.5-11.7 10.8-16.6 2-4.1 2.3-5.7 1.5-6.7-.6-.8-2.1-3.6-3.4-6.2-2.3-5-11-18.7-12.4-19.6-.4-.2-2.9 3.2-5.5 7.7m233.1 35.4c-1.5 4.7-2.6 8.7-2.4 8.9s5 1.6 10.8 3.1c7.4 1.9 14 2.8 22.3 3.2l11.7.4v-8.8l-13.7-6.7c-11.9-5.8-17-7.5-25.8-8.7-.1 0-1.3 3.9-2.9 8.6M0 382.5c0 1.3 4 1.5 30.8 1.4l30.7-.2-23-1.2c-33.1-1.8-38.5-1.8-38.5 0"/></svg>