<svg xmlns="http://www.w3.org/2000/svg" width="682.667" height="512" version="1.0" viewBox="0 0 512 384"><path d="M268.7 115.7c-.4.3-.7 3.1-.7 6 0 3-.5 7.4-1.1 9.7-.9 3.7-.8 4.9.9 8.2 3.5 6.8 6.3 17.9 5.6 22.1-.8 5.3 3.1 20.4 19.1 74.8 2.6 8.8 9.4 32.4 15.1 52.5 5.8 20.1 10.9 37.8 11.4 39.5.6 1.6 3 9.5 5.4 17.5s5.9 19.1 7.7 24.7l3.2 10.2 3-.6c2.1-.4 2.8-.3 2.3.5-.4.7-.2 1.2.4 1.2s.9.4.6.8c-.3.5 1.5.9 4 1.1 2.4.1 4.4-.2 4.4-.6-.1-1.7-9.4-39.1-21.8-87.8-7.2-28.1-14.3-56.2-15.8-62.5-4-17.5-12.9-53.6-15.4-62.3-3-11-4.7-14.5-7.1-15.2-1.1-.4-1.8-.9-1.6-1.1.3-.3-.6-4.3-1.8-8.8-1.3-4.6-2.6-10.4-2.9-13-.9-6.6-4-13.2-6.5-13.9-1.2-.3-2.1 0-2.1.6 0 .7-1 0-2.1-1.6-2.1-2.8-3-3.2-4.2-2"/></svg>