<svg xmlns="http://www.w3.org/2000/svg" width="682.667" height="512" version="1.0" viewBox="0 0 512 384"><path d="M222.6 146.2c.3 1.3 1.2 3.8 2 5.6.7 1.8 1.7 5.6 2 8.5.6 4.1 1.5 6 4.9 9.7 7 7.5 13.5 17.1 13.5 19.7 0 4.1 29.8 44.4 62 83.9 4.1 5 14.5 18.2 23 29.4 13.3 17.3 21.2 27.5 26.3 34 .7.8 3.4 4.3 6 7.7s5.3 6.8 6 7.5c.6.7 3 3.6 5.2 6.3 10.4 13.1 18.5 21.3 16.8 16.9-1-2.8 2.4-1.4 8.8 3.6 13.7 10.7 7.1-2-23.5-44.4-6.6-9.2-19.4-27-28.4-39.5-9-12.4-23.4-33.2-32.1-46.1-34.1-50.8-52.2-75-54.8-73.2-1.5 1-4-2-12.5-15.1-1.5-2.3-3.1-4.7-3.6-5.2-.4-.6-1.9-2.5-3.2-4.3-2.6-3.6-3.4-3.8-7-1.9-2.3 1.2-2.9 1-6.6-2-4.8-3.9-5.8-4.1-4.8-1.1"/></svg>