<svg xmlns="http://www.w3.org/2000/svg" width="682.667" height="512" version="1.0" viewBox="0 0 512 384"><path d="M198 201.5c0 .8-.6 1.5-1.4 1.5-.9 0-1.2.7-.9 2 .5 2.1.5 2.1-3.3.4-9.1-3.9-10.6-4.4-12.1-4.4-1.2 0-.3 1.5 2.9 4.7 2.5 2.7 5.8 6.7 7.2 9 2.1 3.4 4.1 5 9.9 7.7 10.5 5.1 18 10.1 19.8 13.2 2.2 4.1 20.4 14.9 68.4 40.9 9.9 5.4 25.7 13.6 35 18.2 9.4 4.7 25.1 12.9 35 18.3 9.9 5.3 21.2 11.4 25 13.5 3.9 2.1 17.1 8.9 29.5 15.2 19.9 10.2 22.5 11.2 23.1 9.6.4-1 .8-1.2.8-.5.1 1 .5.9 1.7-.3 1-1 2.4-1.3 3.8-.9 15.8 5.1 12.8.3-9-14.2-7.8-5.2-14.4-9.4-14.7-9.4s-4.9-2.7-10.2-6-9.8-6-10-6c-.1 0-6.5-3.7-14.2-8.3-7.6-4.5-18.9-11.1-25.1-14.7-6.1-3.6-18.8-11.5-28-17.5-24.2-15.8-64.8-41.5-65.5-41.5-.2 0-4.2-2.3-8.8-5.1-14.6-8.8-21.9-12.2-25.2-11.5-2.4.5-5.3-.8-16.5-7.4-13.6-8-17.2-9.3-17.2-6.5"/></svg>