<svg xmlns="http://www.w3.org/2000/svg" width="682.667" height="512" version="1.0" viewBox="0 0 512 384"><path d="M467.5 273.7c-6.5.6-59.9 7.2-74.5 9.3-13.4 1.9-36.7 4.4-51 5.4-45.9 3.4-104.7 10.2-131 15.2-3.8.7-7 3-7 4.9 0 1.4-1.8 2-9.2 3-3.9.6-4.8 1.2-5.8 3.6-.7 1.7-2 2.9-3.1 2.9-1 0-2.1.4-2.4 1-.4.6 1 .9 3.4.8 2.3-.1 4.4.2 4.8.5.3.4-.6.7-2.1.7s-3.5.4-4.5.9c-1 .6-5.3 1.7-9.7 2.5-10.9 2.1-30.1 6.9-31 7.8-.4.5 2.5.8 6.4.8 4.8 0 9 .7 12.8 2.1 5.5 2.1 5.9 2.1 13.3.5 4.2-.9 12.2-2.1 17.9-2.7 9.9-.9 10.4-.9 12 1.1s2.1 2 11.7 1c29.9-3.3 80.6-11.6 122.2-20 16.4-3.4 35.9-7.2 43.3-8.6 31.5-5.7 42.1-7.6 53-9.5 11.4-2 23.2-4.5 36.5-7.7 3.9-.9 7.8-1.6 8.8-1.5 1.3.2 1.7-.4 1.7-2.6 0-2.1.7-3.1 2.8-4 1.5-.7 4.7-2.4 7.1-3.8 3.2-1.9 4-2.7 3-3.4-1.3-.8-20.9-1-29.4-.2"/></svg>