<svg xmlns="http://www.w3.org/2000/svg" width="682.667" height="512" version="1.0" viewBox="0 0 512 384"><path d="M0 171.9v171.9l5.8.6c7 .8 99.4 7.5 114.6 8.3l10.8.6 5.2-5.5c2.8-3 7.6-8.4 10.6-11.9 8.2-9.4 13.4-15.3 14.6-16.4 4.1-3.8 22.4-28.4 22.4-30.1 0-.4 1.4-3 3.1-5.8 1.8-2.8 5.4-9.3 8.2-14.6 2.7-5.2 5.8-10.7 6.8-12.2 1.1-1.4 1.9-3 1.9-3.6 0-.5.7-1.5 1.5-2.2 1.4-1.1-.7-3.6-15.4-18.2-9.3-9.2-17.3-16.8-17.6-16.8-.4 0-1.9-1.2-3.4-2.7-3.2-3.1-5.5-5.3-19.1-17.2-11.9-10.5-13.4-11.2-36.5-16.2-12.1-2.6-13.7-3.4-21.2-10.1-7.8-7.2-10-9.6-13.6-14.7-2.8-4.1-3-5.1-3.5-16l-.4-11.6 4-4c2.2-2.2 6.3-6.2 9.1-8.9 3.2-3.1 5.1-5.8 5.1-7.2 0-1.8.7-2.4 3.4-3 1.9-.3 5.2-2 7.3-3.8 6.1-5.2 8.7-5.8 21.3-5.2 13.5.7 18.5 2.6 27.4 10.7 15.6 14.1 21.9 34.7 13.8 44.8l-3.1 3.9 2.2 1.5c1.2.8 3.3 2.5 4.7 3.8s5 4.2 8 6.3c5.8 4.1 27.8 21.6 32 25.4 1.4 1.2 5 4 8.2 6.2l5.6 4 1-4.8c2.1-9.4 2.2-11 .7-12.2-1.7-1.4-1.9-5.7-.4-11.8.9-4.3.9-4.5-3-8.3-2.2-2.1-4.3-5-4.7-6.3-.9-3.7 1.2-9.2 6.5-16.9 12-17.8 11.9-17.6 12-28.7.1-7.9.5-10.9 2.1-14.2 1.1-2.3 2-5.5 2-7 0-3.6-4.1-13.4-7.9-19l-3-4.3 2.5-2.6c3.6-3.8 1.7-4.4-6.4-1.9-8.8 2.6-8.8 2.6-15.8-1-3.2-1.6-6.4-3-6.9-3-.6 0-2.4-2.7-3.9-6-1.6-3.3-3.2-6-3.6-6-2 0-8.8-8.3-9.4-11.5-.5-2.7-1.5-3.8-4.2-5.1-1.9-.9-4.3-2.7-5.3-4-1.8-2.3-1.8-2.3 3.6-7.9 3.8-3.9 5.3-6.2 5.1-7.8-.4-2.9-3.2-2.9-3.6 0-.3 2.2-.4 2.2-3.5.4-1.8-1-3.7-1.6-4.3-1.4-.5.2-2.1-.8-3.4-2.2-2.7-2.9-3.7-3.1-4.2-.9-.3 1.4-.7 1.3-3-.6-1.6-1.2-2.8-1.7-2.8-1.1s-2.2-.5-4.9-2.4L150.3 0H0zM492.3 7.6c-.2 5.7-.7 8.4-2.3 11-1.2 1.9-1.8 3.4-1.4 3.4s-.1.7-1.2 1.5c-1.6 1.2-1.6 1.4-.3 1.5 2.5 0 7.9-2.1 7.9-3.1 0-1.2-1.4-1.1-2.7.2-.7.7-1.3.8-1.7 0-.7-1 2.4-2.1 5.4-1.9.8.1 2.6-.2 4-.7 2.3-.7 2.4-.7 1 1s-1.3 1.8.5 1.1c1.1-.4 2.6-.9 3.3-1 .8-.1 1.7-.7 2-1.3.4-.6 1.7-1.3 3-1.7 2-.7 2.2-1.3 2.2-9.2V0h-19.5zm14.2 9.4c-.3.5-1.2 1-1.8 1-.7 0-.6-.4.3-1 1.9-1.2 2.3-1.2 1.5 0"/><path d="M173 5.8c0 .9 2.5 3.3 4.9 4.7.9.5.5-.6-.8-2.3C175 5.1 173 4 173 5.8m302 52.6c0 1.4 15.4 8.9 24.6 12 6 2 11.2 3.6 11.7 3.6.4 0 .7-2.9.7-6.4v-6.4l-7.1-1.6c-6.3-1.4-29.9-2.4-29.9-1.2M419.5 63c2.7 1.2 4.3 1.2 2.5 0-.8-.5-2.2-.9-3-.9-1 0-.8.3.5.9m8.8 1.4c0 .9.5 1.6 1.1 1.6s4.9 1.6 9.6 3.5l8.5 3.5 6.8-2.6C458 69 461 67.5 461 67c0-1.6-8.8-3.1-20.6-3.7-10.7-.5-12.1-.4-12.1 1.1m43.7 5.1c2.5 1.5 3.6 2.3 2.5 1.9-1.1-.3-2.9-.9-4-1.2-1.1-.2-2.6-.9-3.2-1.5-.9-.6-3.3.1-7.8 2.4-3.6 1.9-6.5 3.7-6.5 4 0 .4 1.4 1.2 3.1 2 1.8.7 6.8 3.4 11.1 6 4.4 2.7 9 5.1 10.2 5.5 3.2 1 14.3 11.2 15 13.7.4 1.5 3.2 3.6 9.3 6.7 4.8 2.5 9.1 4.7 9.5 4.8.5.2.7-6.3.6-14.4l-.3-14.7-3-1.8c-9.1-5.4-25.8-12.9-31-13.9-3.3-.6-6.9-1.3-8-1.6s0 .7 2.5 2.1m31 5.5c0 .3 2 2.1 4.5 3.9l4.5 3.2v-2.9c0-2.6-.4-3-4.5-3.9-2.5-.6-4.5-.7-4.5-.3m-53.5 20.9c-.3.5.5 1.7 1.7 2.6 2.3 1.6 2.3 1.6-.7.8-3.3-.9-29.6-.7-33.3.2-3.3.8-1.5 2.7 5.3 5.9 4.7 2.3 5.8 2.4 11.1 1.6 8.5-1.4 9.4-1.2 4.6 1.2-5.1 2.5-4.6 3 5 5.4 3.8.9 6.8 1.9 6.8 2.1 0 .6-10.3-.4-15.4-1.4-2.8-.6-2.4.1 4.9 8.3 6.4 7.1 8.8 9.2 12.5 10.5 2.6.8 5.3 1.3 6 1.1.7-.3 1 0 .6.7-.5.7-4.2 1.1-10.3 1.1h-9.5l.6 2.6c.7 2.6.7 2.6-2-.6-2.6-3-3.1-3.2-7.3-2.6-5.3.7-11.1 2.7-11.1 3.8 0 .9 4.1 4.8 5.2 4.8.4 0 .8.4.8 1 0 .5-.7.7-1.5.4-.8-.4-1.5-.1-1.5.5 0 1.6-1.5 1.4-6.8-1.1-4.2-1.9-18.2-3.7-18.2-2.3 0 .9 7.6 4.3 16 7.1 6.6 2.2 10.6 2.9 18 3 13.9.4 20.2 1.1 21.1 2.5.4.7 2.2 6.3 3.9 12.3 1.8 6.1 3.5 11.4 3.9 11.8.3.3 4.9-.4 10.1-1.8 8.1-2 20.4-4 37.8-6l4.2-.5-.2-27.7-.3-27.7-8.7-3.1-8.8-3.1v11.1l-4.7-4.5c-5-4.7-9.5-7.9-11.3-7.9-.5 0-4.1-2-7.9-4.4-12.4-8-18.9-10.4-20.6-7.7M381 98.5c0 .7 6.1 3.7 6.6 3.3.2-.3-1.2-1.2-3.1-2.1s-3.5-1.5-3.5-1.2"/><path d="M416.9 120.1c4.6 2.2 8.5 3.8 8.7 3.6.3-.2-1.5-2.1-4-4.1-3.6-2.9-5.2-3.6-8.8-3.6l-4.3.1zM432 125c1.8 2.5 8.6 5.7 9.7 4.6.4-.3-10.4-7.6-11.3-7.6-.3 0 .4 1.3 1.6 3m-60 21.5c0 .3 1.1 2.7 2.4 5.3 3.8 7.5 11 25.6 16.1 40.4 3.7 10.8 5.2 13.8 6.5 13.8 1.5 0 1.9-1.2 2.5-7.8.8-10.7 3.3-20.6 7.4-29.6 2.1-4.5 6.7-9.3 12.1-12.5l3.5-2.1H410c-12.9 0-25.2-2.3-34.2-6.4-2.1-.9-3.8-1.4-3.8-1.1m-97.2 102.3c-7.5 11.6-16 18.4-26.8 21.6-4.9 1.5-6 2.4-10.5 8.3-2.7 3.7-5.5 7.1-6 7.7-4.8 4.9-24.2 32.9-26.8 38.6-.9 2-2.1 7.1-2.6 11.5-.6 4.4-1.5 9.7-2 11.8-.5 2-.5 3.9-.1 4.2s6.5-.9 13.5-2.7c12.4-3 12.9-3.3 18-8.2 4.8-4.7 13.1-11.9 18-15.6 1.1-.8 7.4-6.9 14-13.5 12.8-12.8 22.2-23.9 27.1-32 5.7-9.6 5.7-9.3 1-18.6-4.1-8.2-8.9-16.2-11.2-18.6-.9-1-2.2.3-5.6 5.5m235.4 45.1c-.8 2.3-.9 3.8-.2 4.5 1.5 1.5 2.2.1 1.8-4l-.3-3.9z"/></svg>