<svg xmlns="http://www.w3.org/2000/svg" width="682.667" height="512" version="1.0" viewBox="0 0 512 384"><path d="M468.8 115.7c-2.5 2.7-9.1 11.9-11.5 15.8-8.4 13.9-12.9 21.8-19 33.5-3.1 5.8-6.8 12.7-8.3 15.5-4 7.2-23.8 45.3-37.5 72-6.5 12.6-14.3 27.3-17.3 32.5s-6.3 11-7.4 12.8c-1 1.8-5.8 10.2-10.7 18.5-4.8 8.4-10.1 17.7-11.8 20.7s-4.1 7.3-5.4 9.5a1621 1621 0 0 1-14 25.2c-3.2 5.9-5.9 11-5.9 11.5s9.8.7 21.7.6l21.7-.3 2.5-5c3.1-6.3 16.9-37.2 31.6-71 6.2-14.3 15.1-34.1 19.8-44 13.2-28.1 17.5-37.2 22.4-48 2.5-5.5 6.3-13.7 8.4-18.2 2.2-4.6 3.9-8.5 3.9-8.8s1.8-4.4 4-9.1c2.2-4.8 4.3-9.7 4.6-11s1-2.4 1.5-2.4.9-.6.9-1.4c0-1.1 2.5-7.5 6-15.1 5.2-11.4 5.4-12.4 3.7-17.8-1.2-3.9-1.4-6.2-.7-9.2 1.2-5 1.3-9.5.2-9.5-.5 0-2 1.2-3.4 2.7"/></svg>