<svg xmlns="http://www.w3.org/2000/svg" width="682.667" height="512" version="1.0" viewBox="0 0 512 384"><path d="M294.3 52.2c1.6 16.6 14.6 56.5 41.2 126.3 2.9 7.7 6.9 18 8.8 23 12.6 33.3 19.9 52.3 20.8 54.5 4.1 9.5 18.6 50.4 28.8 81.5 6.7 20.3 12.6 37.7 13 38.5.5.9 1.2 3 1.6 4.8l.7 3.2h23.4c12.9 0 23.4-.2 23.4-.4 0-.8-21.6-52.2-26.5-63.1-9.9-21.9-22.6-51.9-33.1-78.5-4.7-11.8-9.4-23.4-10.5-25.7-1-2.4-1.9-4.5-1.9-4.8s-.9-2.4-1.9-4.8c-1.1-2.3-3.1-7.3-4.6-11.2-1.5-3.8-3.3-8.3-4-10-.7-1.6-2-4.6-2.8-6.5-.9-1.9-4-9.6-7-17s-6.7-16.2-8.2-19.5-3.9-9.2-5.5-13c-4.9-12.2-17.7-41.1-24.1-54.5-5-10.3-6.7-12.9-8.6-13.3-1.2-.2-2.3 0-2.3.6 0 .5-.7.4-1.5-.3-1.2-1-1.5-1-1.5.4 0 3.3-2.4 1.7-6.3-4-4.1-6.1-9.7-12.4-10.9-12.4-.7 0-.9 2.1-.5 6.2"/></svg>