<svg xmlns="http://www.w3.org/2000/svg" width="682.667" height="512" version="1.0" viewBox="0 0 512 384"><path d="M156.6 137.8c-1 1.6 5.9 7.6 16 13.9 24.2 15 45.7 29.9 55.3 38.5 15.3 13.4 27.6 26 35.6 36.3 9.7 12.5 16.4 18.4 27.5 24.4 3 1.6 9.6 6.7 14.5 11.3 12.6 11.8 22 20.1 36.9 32.5 13.3 11.1 18.7 15.3 39.8 30.8 6.8 4.9 14.5 11.4 17.3 14.4 2.7 2.9 7.9 7.7 11.5 10.6s8.3 7 10.5 9c2.2 2.1 5.8 4.9 8 6.4 2.2 1.4 5.4 4 7 5.7 1.7 1.8 5.8 5.3 9.3 7.8l6.2 4.6h60l-.2-29.6-.3-29.6-6.2-2.3c-3.3-1.3-11.4-4.9-18-8-12.4-5.9-20.8-9.3-38.3-15.2-10.5-3.6-29.3-12.7-37.3-18.1-2.3-1.6-7.5-4.6-11.5-6.8-6.1-3.2-7.9-4.8-11.2-9.9-5.6-8.5-14.9-17-23.5-21.2-2.2-1.1-8.9-3.4-14.8-5.2-11.6-3.4-11.7-3.4-32-19-13.1-10.1-16.5-12.9-28.5-23.2-4.2-3.6-8.7-7.1-9.9-7.8-1.3-.6-2.3-1.9-2.3-2.7 0-.9-3.4-5-7.5-9.3-4.2-4.2-8.5-8.6-9.6-9.8s-4.3-2.7-7-3.2c-2.8-.6-6.2-1.7-7.7-2.5-1.5-.7-4.7-1.7-7.2-2.1-5.9-1-17.1-4-24.4-6.5-25.7-9.1-56.5-16.6-58-14.2"/></svg>