<svg xmlns="http://www.w3.org/2000/svg" width="682.667" height="512" version="1.0" viewBox="0 0 512 384"><path d="M150.2 133c1.5 2.4 6.7 5.8 18.3 12 4.4 2.4 10.9 5.9 14.5 7.8 10.1 5.4 29.6 18.7 39 26.6 4.7 3.9 14.2 12.7 21.1 19.6 9.8 9.7 13.2 13.8 15.4 18.5 7.8 16.8 18.6 28.3 33.7 35.9 2.1 1 6 4.4 8.7 7.5 10.2 11.7 48.5 49.3 54.5 53.6 1.5 1.1 5.5 4.2 8.9 6.9 3.4 2.6 7.3 5.6 8.7 6.5 6.7 4.3 14.5 10.8 16.9 14.1 5.2 7.2 24.6 26.7 29.9 30 2.8 1.8 5.2 3.7 5.2 4.1s2.9 2.3 6.4 4.3l6.4 3.6H512v-70.8l-8.7-2.6c-4.9-1.5-11.9-3.8-15.7-5.2-9.5-3.4-19.1-5.9-36.4-9.5-12.6-2.5-16.3-3.8-25.7-8.5-6-3-12.8-6.6-15-8-2.2-1.3-6.2-3.6-9-5-8.6-4.5-10-6-13-13.1-1.5-3.7-4-8-5.5-9.4s-2.9-2.9-3.1-3.5c-.2-.5-2.5-2.6-5.2-4.7-5.9-4.8-13.4-7.5-24.6-8.9-8.5-1.1-10.9-2.2-16.6-7.4-1.1-1.1-4.7-4.1-8-6.8s-6.5-5.5-7.1-6.3c-.6-.7-2.9-2.7-5-4.4s-7-6.1-10.9-9.8C294 191.8 280.1 180 279 180c-.5 0-1.4-1.5-2-3.4-1.2-3.9-9.2-15.3-14.1-20.3-1.9-1.9-4.6-3.5-6.8-3.9-2-.4-5.4-1.3-7.6-2.1s-8.5-1.6-14-1.9c-6.1-.3-11.9-1.2-15-2.4-12-4.5-58.2-14.8-66.8-14.9-3.5-.1-3.6 0-2.5 1.9"/></svg>