<svg xmlns="http://www.w3.org/2000/svg" width="682.667" height="512" version="1.0" viewBox="0 0 512 384"><path d="M0 177.5C0 313.9.3 355 1.2 355c.6 0 13.1.9 27.7 2 117.7 8.8 127 9.4 129.5 8 1.3-.7 8.9-8.7 16.8-17.7 7.8-9.1 15.8-18.2 17.6-20.2 3.5-3.8 17.2-22.6 17.2-23.5 0-.3 1.7-3.4 3.8-6.8 2.1-3.5 6-10.7 8.7-16.1 2.8-5.4 7.8-13.9 11.1-19l6.2-9.2-16.7-16.5c-23-22.8-46.6-44.7-50.4-46.7-1.8-.9-10.1-3.3-18.5-5.4-17.5-4.3-21.4-6.3-30.2-15.3-9.9-10.2-11-12.7-11.7-25.4l-.6-10.8 4.4-5.2c2.4-2.8 5.4-5.4 6.7-5.8 1.2-.3 2.2-.9 2.2-1.3 0-.3 1.2-1.9 2.6-3.5 1.5-1.5 2.7-3.8 2.8-5 .1-1.5 1.1-2.4 3.9-3.3 2.1-.7 5.3-2.4 7.1-3.8 6-4.5 10.2-5.7 18-5 13.1 1.2 16.9 2.8 25.3 10.8 12.6 12 17.3 21.1 17.3 33.5 0 6.1-.3 7.1-3.5 11.1l-3.5 4.4 2.2 1.5c1.3.8 3.7 2.8 5.3 4.3 1.7 1.5 6.7 5.4 11.2 8.6s15 11.3 23.3 18c8.3 6.8 15.5 12.3 15.9 12.3 1.7 0 2.1-7.3.6-9-1.9-2.1-1.9-6.3-.1-12.2l1.3-4.5-3.3-2.7c-1.9-1.5-4.1-4-4.9-5.6-1.3-2.5-1.3-3.4.4-8.6.9-3.1 2.7-6.6 3.8-7.8 3.6-3.7 12.8-18 14.7-22.6 1.4-3.6 1.6-5.9 1.1-12.7-.7-7.9-.6-8.5 1.9-11.7 1.5-2 2.6-4.8 2.6-6.5 0-3.9-3.3-12.2-7-17.6-3.5-5-3.5-5.2-1.5-7.1 1.5-1.6 2.1-5.4.8-5.4-.5.1-3.3.9-6.3 2-7.5 2.6-12.2 2.5-19-.7-5-2.3-5.9-3.1-6.9-6.5-.8-2.4-3.4-6-7.1-9.8-4.2-4.1-6-6.7-6-8.4 0-1.9-1.1-3.4-4.2-5.6-9.3-6.4-8.9-5.3-3.2-10.4 4.9-4.3 7.5-8.6 5.2-8.6-.6 0-2.1-1.2-3.4-2.8l-2.4-2.7v3.7c0 2.1-.2 3.8-.5 3.8-.2 0-1.6-1.2-3.1-2.7-2.4-2.4-2.8-2.5-3.3-1-.6 1.6-.9 1.5-3.1-.8-2.8-2.9-4-3.2-4-.8 0 1.4-.5 1.2-2.5-1-1.4-1.5-2.9-2.7-3.3-2.7-1.2-.1-9.2-7.8-9.2-8.9 0-.5-1.5-2.1-3.3-3.5L174.3 0H0zM504.5 77.3c-1.7 1.3-1.6 1.4 1.1 2 1.6.3 3.7.9 4.7 1.2 2.4 1 2.3-2.1-.2-3.5-2.6-1.3-3.3-1.3-5.6.3M482 83c-1.4.4-4.5.9-7 .9l-4.5.2 7.4 3.9c5.6 3 7.8 3.7 9.2 3 2.8-1.6 4.7-1.1 2.5.5-1.1.8-1.8 1.7-1.5 1.9.2.2 4.9 3.2 10.4 6.6 5.5 3.5 10.8 6.9 11.8 7.8 1.6 1.4 1.7 1 1.7-7.9v-9.4l-3.8-2.5c-3.9-2.6-10.3-5.1-7-2.7.9.7 2.5 1.8 3.5 2.4 1 .7-2-.3-6.7-2.2-8.5-3.5-11.4-4-16-2.5m-8.4 26.8c-.3.2 1.3 1.8 3.4 3.3 2.2 1.6 4 3.1 4 3.3 0 .3-3.3-.7-7.2-2-5.7-2-10.2-2.7-20.6-3.2-7.2-.4-13.2-.5-13.2-.1 0 .3 1.5 1.9 3.3 3.6 5.1 4.9 9.1 6.1 17.9 5.4 8.4-.7 9.2 0 2.3 1.9-2.5.7-4.5 1.7-4.5 2.1 0 .5.1.9.3.9.1 0 4 1.4 8.7 3 8.7 3.1 8.3 3.2-4.5 1.4l-5-.7 7.4 7.9c7.3 7.9 12 11.4 15.3 11.4 1 0 1.8.4 1.8 1s-3.5 1-8.5 1h-8.6l1.6 3.2 1.6 3.3-3.3-3.6c-2.3-2.5-4.8-3.9-8.2-4.8-5.5-1.4-13.5-.5-14.3 1.5-.6 1.7 1.9 5.2 5.4 7.5 2.6 1.8 2.7 1.9.6 1.9-1.6 0-2.1.4-1.7 1.5.9 2.2-.6 1.9-8.7-2-7.5-3.5-15.9-5.5-15.9-3.8 0 .5 4.6 2.9 10.3 5.3 9.5 4.2 10.7 4.5 17.7 4.2 12.5-.5 17.3-.4 21.4.3 4.4.9 5 1.9 9.1 16.5 1.5 5.2 3 9.9 3.4 10.3s4.3-.5 8.7-2.1c4.3-1.6 10.3-3.5 13.2-4.2l5.2-1.2v-55.5l-4.7-3.9c-6.9-5.9-7.8-6.3-16.8-10-8.8-3.5-16-5.5-16.9-4.6"/><path d="M437.8 129.5c1.2.9 3.8 2.3 5.8 3.1l3.7 1.5-2.4-3c-1.8-2.3-3.2-3-5.9-3-3.4-.1-3.4-.1-1.2 1.4M406.5 166c4 7.9 10.9 25.4 15.1 38.3 3.4 10.2 4.1 11.7 5.9 11.5 1.8-.3 2.1-1.3 2.7-11.3.8-11.9 4.5-25.7 7.9-29.6 1-1.2 1.9-2.5 1.9-3 0-.4 1.5-1.6 3.3-2.8 1.7-1.1 2.8-2.1 2.2-2.1-6.8-.1-25.7-2.6-31.7-4.1-4.2-1-8.1-1.9-8.7-1.9s0 2.2 1.4 5m-102.3 89.9c-7.4 9.9-16.8 16.6-26 18.6-2.5.5-4.6 2.4-9.5 8.7-3.4 4.4-9 11.7-12.5 16.2-10.3 13.2-19.8 26.8-23.7 33.8-2.7 5-3.8 8.4-4.5 14.4-.5 4.4-1.3 9.6-1.6 11.8l-.7 3.9 9.4-.5c11.2-.5 12.6-1.2 23.9-11 4.7-4 14.8-12.6 22.5-19 7.7-6.5 15.8-13.9 18-16.5 2.2-2.5 6.2-6.9 8.8-9.7 7.6-8.2 17.7-24.1 17.7-28 0-.8-1.3-3.8-3-6.6-1.6-2.8-3-5.5-3-6 0-.7-6.2-10.6-10.1-16.2-.3-.5-2.9 2.3-5.7 6.1M459 275.4c0 .3.9 1 2 1.6s2 .8 2 .6c0-.3-.9-1-2-1.6s-2-.8-2-.6m5.7 3.7c.7.7 1.5 1 1.8.7s-.2-.9-1.2-1.2c-1.4-.6-1.5-.5-.6.5"/></svg>