<svg xmlns="http://www.w3.org/2000/svg" width="682.667" height="512" version="1.0" viewBox="0 0 512 384"><path d="M142 124.4c0 2.3 4.9 5.2 19.1 11.2 18 7.5 34 15.6 41.9 21.2 18.2 12.8 37.4 30.2 47.9 43.7 7.1 9 9.5 13.4 10.5 18.7 1.2 6.6 6.5 17.8 10.7 22.9 4.7 5.6 10.6 10 16.3 12 4 1.5 4.8 2.2 13.6 13.9 6.4 8.5 29.5 35.6 30.7 36.2.5.1 3.8 3.4 7.3 7.3 5.7 6.2 28.4 25.4 35 29.6 1.4.9 3.8 4.2 5.4 7.3s4.6 7.8 6.6 10.4 4.5 6.5 5.6 8.7c1.3 2.7 3.2 4.6 5.7 5.8 2.7 1.4 3.7 2.5 3.7 4.3 0 2-.5 2.4-3 2.4-1.6 0-3 .4-3 .8 0 3.1 2.7 3.2 59.2 3.2H512v-86.5l-22.7-3.3c-13.3-1.9-29.3-3.5-38.3-3.9-15.2-.6-15.7-.7-24.7-4.5-11.7-5-34.1-17.5-35.3-19.7-.5-1-1.6-4.8-2.4-8.5-2.7-11.3-9.1-20.1-17.6-24-3.7-1.7-6.7-2-16.7-2.1-6.8-.1-12.5-.3-12.7-.6-.3-.2-12.8-12.6-27.8-27.4-15-14.9-29.7-28.8-32.5-31-4.7-3.5-5.4-4.5-6.4-9.4-.6-3-1.5-6.2-1.9-7-.5-.9-2.1-4.2-3.6-7.4-3.8-8-7.7-11.2-16.1-13.1-7.6-1.7-15.8-1-23.2 2-3.5 1.4-4.2 1.4-7.7-.1-9.7-4-34-9.2-60.9-13-14.2-1.9-19.5-2-19.5-.1"/></svg>