<svg xmlns="http://www.w3.org/2000/svg" width="682.667" height="512" version="1.0" viewBox="0 0 512 384"><path d="M138.4 121.2c-.4.6.2 1.7 1.2 2.5s1.8 1.9 1.7 2.4c-.2.5.5.9 1.5.9 1.3 0 1.4.2.4.9-1.1.7-1.1.9 0 1.4 50.4 20.1 58.8 24.4 77.8 39.9 12 9.7 19.5 17.4 30.9 31.7 7.8 9.8 9.2 12.1 10.1 17 4.3 21.7 11.8 35 22.5 39.6 1.7.7 4.4 1.9 6.2 2.6 2.2 1 5.8 5.1 12.3 14.3 24.1 34 45.6 57 68.7 73.4 2.2 1.5 4.7 5.4 8.2 12.8 2.8 5.8 5.1 11.2 5.1 11.9 0 .8.5 1.7 1 2 .6.3 1 1.7 1 3.1 0 1.3.5 2.4 1.1 2.4s.8.9.4 2c-.6 2-.2 2 61.4 2H512v-92.8l-3.7-.6c-11.3-1.8-29.5-2.7-51.3-2.5-26.8.1-23.3.7-39.5-6.4-8-3.4-23.8-11.7-25.7-13.4-1.1-1-1.8-3.1-1.8-5.4 0-2.1-1.1-7.4-2.5-11.8-5.6-17.7-16.5-24-36.1-21.1l-7.8 1.2-11.1-11.4c-6.1-6.2-17.5-18.1-25.4-26.3-7.9-8.3-18-18.3-22.4-22.3l-8.1-7.3-2.2-8.7c-2.9-11.2-4.6-15.3-8.6-19.8s-9.9-7.3-15.4-7.4c-4.6 0-16.5 3.4-20 5.7-2 1.3-3.1 1.2-10.6-1.1-11.7-3.5-19.5-5.2-33.3-7.5-28.7-4.8-46.7-6.3-48.1-3.9"/></svg>