<svg xmlns="http://www.w3.org/2000/svg" width="682.667" height="512" version="1.0" viewBox="0 0 512 384"><path d="M134.8 104.6c-2.5.7-2.3 1.5 1.1 4.4 1.7 1.3 2.8 2.7 2.6 3-.5.9 1.7 1.9 17.9 8.1 36.6 14.2 55.3 26.3 77.6 50.4 4.1 4.5 10.2 11.8 13.6 16.2 5.1 6.8 6.2 9 6.8 13.5 1.2 9.1 4.6 18.3 10 26.5 4.8 7.3 5.6 8.1 13 11.8 7.8 3.9 8.1 4.2 16.9 16.5 21.2 29.6 40.8 51.3 59.8 66 6.7 5.2 10 8.5 10.8 10.7.7 1.8 3.8 7.2 6.9 12 3.1 4.9 6.3 10 7.1 11.5s2.2 3.7 3.2 4.7c1.1 1.2 1.5 2.2.9 2.6-.6.3-1 1.7-1 3s-.4 2.6-.9 3c-1.2.7-.3 6.9 1.8 11.7l1.6 3.8H512V276.3l-3.7-.7c-11.1-1.8-33.8-2.8-52.2-2.3l-20.4.6-9.6-3.5c-12.7-4.7-33.2-13.9-40.2-18.1-5.6-3.2-5.7-3.3-6.4-9-1.6-13-9-25.1-18.2-29.8-5.1-2.6-6.8-3-14.3-3-4.7 0-10 .4-11.9.9-3.3.8-3.4.8-18.4-15-8.3-8.8-22.4-23.2-31.3-32.2l-16.2-16.3-1.2-6.2c-3.6-18.2-14.2-29.7-27.4-29.7-3.8 0-15.2 3.4-17.3 5.2-1.6 1.3-4.7.8-21.5-3.5-19.6-5-61.3-10.7-67-9.1"/></svg>