<svg xmlns="http://www.w3.org/2000/svg" width="682.667" height="512" version="1.0" viewBox="0 0 512 384"><path d="M127.6 90.8c-.6 1 6.9 9.2 8.5 9.2 2.6 0 30.3 11.7 41.9 17.7 23 11.9 44.6 30.9 59.9 52.9 3.6 5.1 4.5 7.5 5.7 14.5.8 4.6 2.8 11.1 4.4 14.5 4 8.2 13.3 17.9 18.7 19.4 3 .9 5 2.4 7.5 5.8 15.6 21.4 28.1 37.4 36.6 46.8 9.3 10.3 23.2 22.8 30.9 27.8 2.1 1.3 4.6 4.7 6.9 9 2.9 5.8 11.9 18 17.1 23.4.7.7 1.3 1.9 1.3 2.6s1.6 3 3.6 5c2.8 2.8 3.4 4 2.4 4.6-2 1.3-1.9 12 .3 15.3.9 1.4 1.7 3.1 1.7 3.7s.7 1.8 1.5 2.6c1.7 1.8 2 4.4.4 4.4-1.4 0 0 4.3 1.7 5.3.7.4 1.1 1.4.8 2.2-.4.8-.3 2.6 0 4l.6 2.5h132V262.2l-6.2-1.1c-14.3-2.6-21.6-3.1-46.9-3.1h-26.6l-10.9-3.9c-26.7-9.5-53.6-21.2-56.3-24.4-.5-.7-1.4-4.1-2-7.5-1.4-9-4-13.9-11.2-21.3-8.5-8.7-13.2-10.4-27.1-9.6l-9.9.5-11.8-12.1c-6.5-6.7-17.4-18.3-24.3-25.7-7-7.4-14.3-14.9-16.3-16.5-3.2-2.7-3.8-4-5.7-11.8-2.3-10.3-7.7-19.1-14.7-24.5-4-3-4.8-3.2-12.3-3.2-6.2 0-9.4.6-14.4 2.6l-6.5 2.6-9.2-2.6c-22.7-6.4-70.2-12.9-72.1-9.8"/></svg>