<svg xmlns="http://www.w3.org/2000/svg" width="682.667" height="512" version="1.0" viewBox="0 0 512 384"><path d="M120.7 78.7c-1.5 2.4 5.9 6.8 23 13.7 9.8 4 21.7 9.3 26.4 11.8 21.3 11.7 39.6 28.2 53.7 48.8 4.4 6.4 5.4 8.6 6.6 15.5 1.8 10.5 3.3 13.7 9.5 21.2 3.6 4.3 6.8 7 10.2 8.5 4.4 2 6.3 4 16 17 18.9 25.6 34.6 42.6 51.4 55.7 6.2 4.9 8.6 7.5 10.6 11.7 4.9 9.9 16.9 23.6 22.5 25.4 2.8 1 3.3 1.5 2.8 3.4-.7 3 1.1 7.3 3.5 8.1 2.6.8 3.2 3.1 2.1 7.9-.7 3.4-.5 4.8 1.7 9.5 1.5 3.1 3.5 6.5 4.5 7.5 2 2.2 2.2 3.2.8 4.1-1.5.9-1.2 2.2 1.1 4.4 1.2 1.1 1.8 2.4 1.4 3-.8 1.3 1.3 8.1 2.5 8.1.4 0 1 .8 1.3 1.7.3 1 1.4 3.4 2.5 5.3s2.5 4.7 3.2 6.2c.8 1.6 2.1 2.8 3.1 2.8 1.1 0 1.6.5 1.3 1.4-.9 2.2 2.9 2.6 28.4 2.6 24 0 24.4 0 27.5-2.4 5.5-4 5.7-4 5.1-.6l-.6 3H512V248.3l-7.7-1.6c-15.2-3.2-26-4.8-41.3-5.9-11-.8-16-1.6-17.3-2.6-1-.9-3.8-1.6-6.6-1.6-3.7-.1-5.5.5-8.4 2.6-1.9 1.6-4.4 2.8-5.4 2.8s-7.2-2-13.8-4.5c-6.6-2.4-18.3-6.7-25.9-9.5-17.2-6.3-37.9-15.6-39.9-17.8-.8-.9-1.8-3.7-2.1-6.2-.4-2.5-1.1-5.4-1.6-6.5-.4-1.1-1.3-3.5-2-5.2-1.4-3.8-11.5-14-16.3-16.5-6.4-3.5-17-4.4-24.8-2.2-1.1.3-10-8.3-27.6-26.4l-26.1-26.8-1.2-6c-1.9-9.3-6.1-17.3-11.8-22.7-6.2-5.7-8.9-6.8-16.7-6.9-4.3-.1-7.9.6-12.8 2.6-6.5 2.7-6.9 2.7-11.5 1.2-18.3-6-68.6-13.1-70.5-9.9M323 195.2c0 .6-.6.5-1.5-.2-.8-.7-1.5-1.4-1.5-1.6s.7-.1 1.5.2c.8.4 1.5 1.1 1.5 1.6"/></svg>