<svg xmlns="http://www.w3.org/2000/svg" width="682.667" height="512" version="1.0" viewBox="0 0 512 384"><path d="M107 60.9c0 2 5.5 5.1 18.2 10.1 35.7 14.1 51.9 26.5 71.5 54.7 4.2 6.1 5.2 8.3 6.2 14.6 1.5 9.1 4.9 14.9 11.8 20 2.8 2 5.6 3.7 6.2 3.7.5 0 2.9 2.6 5.3 5.7 15.3 20.9 19.7 26.2 31.8 38.4 7.4 7.5 16.7 15.9 20.5 18.7 6 4.4 7.3 5.8 8.9 10.4 1.2 3.6 3.8 7.2 8 11.6 6.6 7 10.5 9.2 16.3 9.2 2.1 0 4.3.4 4.9.8 1.7 1 4.6 8.3 4 9.9-.9 2.2 1.5 6.1 4.1 6.8 1.3.3 2.1 1 1.8 1.5-.3.6-.1 1 .5 1s.8.5.3 1.2c-1.6 2.7 1.5 14.8 3.9 14.8.4 0 .8.6.8 1.3s.9 1.8 2 2.5c1.7 1 1.8 1.5.8 3.2-1 1.6-.9 2.3.9 4.2 1.1 1.3 1.9 2.8 1.6 3.4-.2.6 1.2 3.3 3.2 6 1.9 2.7 4 6 4.6 7.4s1.6 3.5 2.2 4.7c.6 1.3 1.8 2.3 2.8 2.3 2.2 0 4.5 3.6 2.7 4.2-.8.3-.1 1.9 2 4.5 1.7 2.3 3.2 4.4 3.2 4.8 0 1 7 9.6 10.4 12.7 3.4 3.2 4.3 3.4 7.4 1.2 2.2-1.5 2.3-1.5 1.7 1.3-.4 1.5-1.6 5.9-2.7 9.8-1.2 3.8-2.4 9.1-2.8 11.7l-.6 4.8H512V209h-7.2c-9.4 0-19.2 1.6-24.7 4.1l-4.5 1.9-8.5-2.4c-18.8-5.5-41.3-8.7-61-8.8h-13.4l-3.4-3.2c-7.1-6.4-11-7-18.7-3.1l-4.9 2.5-19.6-7.1c-20-7.3-37.3-14.5-41.7-17.4-1.3-.8-2.4-2.3-2.4-3.3s-1-4.7-2.2-8.3c-1.7-5-3.3-7.6-7.5-11.6-9-8.9-13.1-10.7-24.7-11.1l-10.1-.5-9-9.6c-4.9-5.3-14.2-14.9-20.5-21.4-11-11.3-11.6-12.1-13.2-18.3-2.4-9.5-5.7-15.3-11.6-20.1-8.4-6.9-17.1-7.9-27.9-3.2-3.7 1.6-5.2 1.8-7.2 1-12-4.9-61.1-11.4-61.1-8.2M281.5 160c2.7 2.9 1.5 3.2-1.8.4-1.6-1.4-2.2-2.4-1.4-2.4s2.2.9 3.2 2"/></svg>