<svg xmlns="http://www.w3.org/2000/svg" width="682.667" height="512" version="1.0" viewBox="0 0 512 384"><path d="M97.4 50.9c1 1.1 6.1 3.6 11.4 5.7 15.2 5.8 25.3 10.7 33.4 16.2 8.5 5.8 21.7 19.3 29.9 30.8 4.7 6.5 5.9 9 6.8 14.3 1.3 8 4.5 12.7 11.5 17.1 3 1.9 6.2 4.7 7 6.1 7.8 13.2 33.8 41.1 46.2 49.5 4.5 3.1 6 4.9 7.5 8.8 2 5.3 7.3 11.4 12.8 14.8 3.1 1.9 3.8 2 9.8.9 5.9-1.1 6.6-1 9.3.9 2.1 1.5 3 3 3 5 0 1.6.5 3.2 1.1 3.5.6.4.8 1.3.5 2.1-.8 2.1 1.2 5.8 3.7 6.9 1.8.8 2.1 1.7 1.9 4.5-.4 4.5 1.1 8.4 4.9 12.7 2.1 2.5 2.7 3.8 2 4.7s-.6 1.8.3 3.2c.7 1 1.6 3 1.9 4.4.4 1.4 2.1 4.1 3.8 6 1.8 1.9 3.6 5 4.1 6.8.6 2 1.8 3.6 2.8 3.9s1.6 1.1 1.4 1.8c-1 2.4 4.3 10.1 13.4 19.7l4.5 4.7-1.6 5.8c-3.9 14.4-4.4 34.3-1.5 61.6l1.1 10.7H512V173.8l-3.7.7c-2.1.4-8.7 2.2-14.6 4l-10.9 3.3-5.6-2.9c-7.5-3.8-17.9-5.3-31.7-4.6-11.5.7-19.9 2.4-24.1 5.2-2.1 1.3-2.8 1.4-5.2.2-3.9-2-18.1-5.4-32.4-7.7-8.7-1.4-17-2-28.3-2h-16l-3.5-2.8c-7.2-5.9-10.8-6.5-18.6-3.1-3.7 1.5-5.3 1.8-6.9 1-1.1-.6-9.9-3.9-19.7-7.5-24.3-8.8-25.8-9.6-27.9-16.9-2.3-7.8-5.9-12.7-12.7-17.4-7.4-5.2-8.2-5.4-18.1-6.3l-8.4-.7-16.3-16.9C191.5 83 191 82.3 188.9 75.5c-1.1-3.9-3.1-8.6-4.2-10.5-6.5-10.7-17.9-14.6-29.5-10.2-4.8 1.9-5 1.9-14.2-.4-11-2.7-30.6-5.4-39.2-5.4-6 0-6.1 0-4.4 1.9m146 80.7c1.4.5 4.3 4.4 3.3 4.4-.2 0-1.8-1.1-3.7-2.5-3.2-2.4-3-3.2.4-1.9"/></svg>