<svg xmlns="http://www.w3.org/2000/svg" width="682.667" height="512" version="1.0" viewBox="0 0 512 384"><path d="M90.2 43.1c.3.8 6.1 3.7 12.9 6.4 16.8 6.8 22.9 10.1 30.7 16.2 12.2 9.8 24.9 26.5 26.7 35.4 1.6 7.4 3.4 10.2 8.8 13.3 3 1.8 6.9 6.1 12.7 13.8 9.8 13.2 20.3 23.9 31.6 32.5 6.4 4.9 8.3 6.9 8.8 9.4.4 2 2.4 4.9 5.1 7.6 3.8 3.6 5.2 4.3 8.6 4.3 2.2 0 4.9-.5 6-1.1 2.8-1.5 12.5 4.3 15.2 9.1 1.1 1.9 1.8 3.5 1.7 3.5-.2 0 0 1 .4 2.2.4 1.3 1.1 2.3 1.6 2.3.4 0 1.1 1.9 1.4 4.2.4 2.4 1.6 5.9 2.6 7.8 2.8 5.1 3.6 7 5 11.5.7 2.2 2.4 6 3.9 8.5s3.5 6.7 4.5 9.4c1 2.6 3.1 6.3 4.7 8.1s2.9 3.7 2.9 4.1c0 .5 1.6 2 3.5 3.4 4.6 3.3 5 6.3 3.5 22.8-1.1 11.8-1 16.5.4 34.2 1 11.3 2 32.1 2.3 46.2l.6 25.8H512V142.3l-5.2-.7c-20.8-2.4-49.6 1-74.6 8.9-8 2.5-8.5 2.6-11.7 1-9.2-4.3-34.1-4.6-44.4-.5l-5.5 2.1-8.1-2.6c-17.8-5.6-41-9-56.4-8.2-10.4.5-11.1.4-14.2-1.9-2.6-1.9-4.5-2.4-9-2.4-3.2 0-6.9.4-8.2.9-1.9.7-5.4-.1-16.3-4-7.6-2.7-16.4-6.2-19.3-7.7-5-2.5-5.6-3.2-7.1-7.9-.9-2.9-2.9-6.7-4.3-8.6-5.4-7.1-18.6-13.1-26.3-12-2.8.4-4.1-.7-17.1-14.1-13-13.5-14.1-15-15.7-20.6-2.1-7.6-6.9-13.9-12.6-16.8-5.2-2.6-10.2-2.8-16.7-.6-3.7 1.3-5.4 1.4-8.2.5-5.3-1.5-21.3-3.9-32-4.7-7.8-.6-9.3-.4-8.9.7m125.2 68.5c1.8.7 4.2 4.4 2.9 4.4-.4-.1-2.1-1.2-3.8-2.5-2.9-2.4-2.5-3.2.9-1.9m294.3-24.8c-2.2 2.4-2.1 3.5.3 5.7 2 1.8 2 1.7 2-2.8 0-2.6-.2-4.7-.3-4.7-.2 0-1.1.8-2 1.8"/></svg>