<svg xmlns="http://www.w3.org/2000/svg" width="682.667" height="512" version="1.0" viewBox="0 0 512 384"><path d="M89.2 39.8c-1.9 1.3.1 2.6 8.8 5.8 23.3 8.4 34.5 16.6 49.1 36 4.6 6.1 6 9 6.5 12.6.8 6.1 3.3 10.1 7.7 12.2 2.4 1.1 6 4.8 10.7 11.1 9.8 13.1 20.4 24 29.9 31 6.3 4.7 8.3 6.8 9.1 9.4 1.3 4.6 7.7 11.1 10.9 11.1 1.3 0 3.9-.5 5.7-1.2 2.9-1 3.7-.8 9.1 2.3 4.4 2.6 6.3 4.5 8 7.9 1.2 2.5 2.7 5 3.2 5.6.5.7.8 1.4.5 1.6-1 1.1 2.7 10.4 5.6 13.9 1.7 2.2 2.7 3.9 2.1 3.9-1.9 0 1.7 8.8 6.2 14.9.9 1.3 1.7 3.3 1.7 4.4 0 2.1 6.8 11.7 11 15.3l2.5 2.2.1 22.9c.1 12.5.7 27.5 1.3 33.3.8 7.5 3.9 72.6 4.1 87.2 0 .5.7.8 1.5.8s1.5-.7 1.5-1.6c0-.8.7-2.2 1.5-3 .8-.9 1.8-2.7 2.1-4.2s.8-3.4 1.1-4.2c.9-2.2 2.2 5.9 1.6 9.8l-.6 3.2H483l-.1-23.8c-.2-33.5.9-51 3.2-54.1 1-1.2 2.1-3.9 2.5-6 .4-2 2-6.3 3.7-9.6 2.9-5.6 3.1-6.7 3-16.5 0-7.6-.6-12.6-2.2-18-1.2-4.1-2.8-9.8-3.6-12.6l-1.4-5.2 3.9-4.1c4-4.2 4.9-6.1 3-6.1-2.1 0-.9-2.8 1.4-3.4 1.4-.3 3-2 4-4.1.9-1.9 2.1-3.5 2.5-3.5 1.7 0 4.3-5.1 3.2-6.4-1.3-1.5-.3-5.6 1.4-5.6.6 0 1.9-.8 2.8-1.8 1.5-1.7 1.7-5.9 1.7-40.4v-38.6l-10.7 4c-10.4 3.8-10.9 3.9-17.4 2.8-8.8-1.3-32.6-1.3-42.6.1-10.2 1.4-26.6 5.3-35.6 8.4-7 2.5-7.2 2.5-10.7.8-5.2-2.7-31.7-3.1-38-.7-6.1 2.3-8.1 2.2-18.5-1-14.6-4.4-31.1-6.7-46.6-6.5-13.2.2-13.7.1-17.5-2.5-4.4-3-9.6-3.4-14.8-1.2-3.2 1.3-4 1.2-12.7-2-5.2-1.9-13-4.9-17.3-6.7-7.9-3.2-7.9-3.2-9.6-8.3-3.6-11.2-14.5-19.3-26.1-19.4h-5.6l-12.6-12.8c-11.8-11.9-12.8-13.1-14.6-19.2-4.5-14.4-16-21.3-27.7-16.4-3 1.3-4.5 1.4-7.4.5-8-2.4-34.9-5.5-36.8-4.3m116.5 65.7c3.6 3.2 1.7 3.2-2.2 0-1.6-1.4-2.5-2.5-1.8-2.5s2.5 1.1 4 2.5m281.7 192.3c-.4 2.3-1.3 5-2 5.9-1.2 1.7-1.3 1.6-1.4-.4 0-2.4 3-10.6 3.7-10 .2.2.1 2.3-.3 4.5m22.7-255.9c-.8 1.5-1.1 4.1-.8 7 .6 5.3 2 3.9-15.6 15.8C481.3 73 476 77.8 476 80.4c0 2.3 3.3 4.3 15.5 9.8 6.6 3 13.8 6.6 16 8.1l4 2.7.3-15.5c.1-8.6.1-22.5 0-30.8-.3-13.4-.5-14.9-1.7-12.8"/></svg>