<svg xmlns="http://www.w3.org/2000/svg" width="682.667" height="512" version="1.0" viewBox="0 0 512 384"><path d="M487 32c-7.3 2.5-10 5.7-10 12v4.9l-10.1 6.8c-11.2 7.5-17.5 12.6-19 15.5-1.8 3.4 1.4 6.3 13.4 12.1 12.3 6.1 17.7 9.8 28.1 19.3l6.6 6.2-2.7 1.1c-1.6.6-9.1 3.4-16.8 6.3l-14 5.2-20-.3c-23.6-.3-36.7 1.5-55.1 7.7-10.7 3.5-11.5 3.7-14.1 2.3-4.4-2.4-29.4-2.8-35.3-.6-5.8 2.2-6.9 2.2-16.8-.9-13.8-4.3-30.9-6.7-45.2-6.5-12 .2-12.6.1-16.4-2.5-4.3-2.9-9.2-3.3-14.1-1.3-2.6 1.2-4.1.9-15-3-19.1-6.9-19.4-7.1-21.5-13.6-2.8-8.8-11.9-15.4-23.2-16.8l-7.2-.9-11.1-11.6c-7.3-7.8-11.4-12.9-12.1-15.3-2.9-9.3-8.4-16.3-14-17.7-1.4-.4-4.8-.3-7.7.1-8.1 1.1-11.5 1-21.7-.7-14.2-2.4-25.3-3.1-24.7-1.5.2.6 6 3.5 12.9 6.3 6.9 2.7 15.5 7 19.2 9.3C131 61.5 148 82 148 88.4c0 4.3 3.4 9.4 7.3 11.1 2.1.9 5.4 4.3 9.3 9.7 8.6 11.6 20 23.4 28.3 29.3 5.1 3.7 7.3 5.9 8.2 8.5 1.3 4.1 4.3 7.6 7.9 9.5 2.1 1.1 3.1 1.1 5.9-.1 3.6-1.5 4.2-1.3 13.7 4.2 3.1 1.8 8.4 11 8.4 14.5 0 3 4.4 11.7 6.7 13.2.6.4.9 1.9.7 3.4-.3 1.7.2 3.6 1.5 5.4 1.2 1.6 2.1 3.2 2.1 3.7s.9 1.7 2.1 2.8c1.3 1.2 1.8 2.6 1.5 4-.4 1.6 1 4 6 9.8l6.6 7.8-1.1 4.3c-1.4 5.4-1.4 11.9-.1 18.2 1.5 7.5 4.8 51.6 5.6 74.1.3 11.2 1.2 26.3 1.8 33.5 1.2 12.7 1.3 13 2.3 8.7l1.1-4.5.1 6.4.1 6.3-5.7 5.7-5.8 5.6 94.4.3c51.9.1 94.6 0 94.9-.3.2-.2-.1-13-.8-28.4-1.8-36.8-.6-67.8 2.8-73.3 1.2-1.9 2.2-5.1 2.3-6.9 0-1.9.7-5 1.4-6.9 1.2-3.2 1.4-3.3 1.5-1 .2 2.3.3 2.2 1.7-1 2.3-5.3 1.9-20.7-.7-30-1.1-4.1-2.1-8.3-2.1-9.3 0-.9 2.3-4.1 5-6.9 5.3-5.5 5.8-6.3 4.1-7.3s-1.1-2.5 1.5-3.7c1.3-.6 2.8-2.4 3.4-3.9.5-1.6 1.4-2.9 1.9-2.9 1.6 0 3.3-5 2.3-6.9-1.1-1.9-.4-3.5 2-4.3 2.1-.8 6.9-10.4 6.9-13.8 0-1.6.7-3.6 1.5-4.4.9-.8 2-2.9 2.6-4.5 1.1-3.1 2.5-4.3 11.1-8.9 2.9-1.6 6.8-3.8 8.5-4.8l3.3-1.9V31.3l-7.7-.7c-10.4-.8-11.1-.8-17.3 1.4M196.7 98.4c1.5 1.3 2.5 2.7 2.2 3s-2.1-.8-4-2.4-2.9-2.9-2.2-3c.7 0 2.5 1.1 4 2.4M453.5 278c-.4 1.2-.9 1.9-1.2 1.7-.3-.3-.2-1.5.2-2.7s.9-1.9 1.2-1.7c.3.3.2 1.5-.2 2.7"/></svg>