<svg xmlns="http://www.w3.org/2000/svg" width="682.667" height="512" version="1.0" viewBox="0 0 512 384"><path d="M441.7 21.1c-5.1 3.3-12.5 4.8-24.5 4.9-12.6 0-18.9 5.9-15.9 14.7.7 1.8-.1 2.8-5 6.4-13.5 10-16.7 14.6-12.5 18.1.9.8 5.8 3.6 10.8 6.3 5.7 2.9 11.8 7.2 16.4 11.4l7.2 6.6-13.8 5.4c-17.6 6.7-18 6.8-35.4 8-14.6.9-30.5 4.3-37.2 7.7-2.7 1.4-3.6 1.4-7.2.3-6.3-2.1-23.3-1.8-28.4.5-3.8 1.7-4.4 1.7-7.9.3-9.6-3.8-23.6-6-39.5-6.2-14-.2-16-.4-17.9-2.1-1.7-1.5-3.7-1.9-10.8-2-4.7 0-9.3-.3-10.1-.7-.8-.3-4.9-1.8-9-3.3-8.8-3.1-9-3.2-12.7-10.4-3.7-7-9.9-11.1-17.7-11.8-5.2-.4-5.6-.6-14.4-9.6-5.3-5.4-9.4-10.5-10.1-12.5-4.1-12.4-12.3-17.7-21.6-13.7-2.4 1-4 1-8.5-.1-7.7-1.8-24-2.9-24-1.5 0 .5 3.3 2.2 7.3 3.7 3.9 1.5 10.2 4.3 13.9 6.2 11.4 5.9 25.6 22 27.2 30.8.9 4.6 2.1 6.4 5.2 7.5 1.2.5 4.8 4.4 8 8.7 6.9 9.4 16.5 19 23.9 24 3 2 5.5 4.2 5.5 5 0 2.5 2.9 7.1 4.9 7.8 1.1.3 3-.1 4.4-.9 2.2-1.5 2.7-1.3 9.8 3 6.3 3.8 7.9 5.3 9.6 9.2 1.2 2.6 2.4 5.8 2.7 7.3.3 1.4 1.9 4.5 3.5 6.9s2.7 4.9 2.4 5.6c-.2.7 1.2 4.1 3.2 7.5s3.4 6.4 3.1 6.6c-.3.3.6 2.2 1.9 4.3 2 3.2 2.3 4.3 1.5 7.2-2 6.7-1.1 13.8 3.1 26.3l4.1 12 .8 32c.5 17.6 1.1 35.9 1.5 40.6l.7 8.5-3.9 3c-12.2 9.3-16.1 20.9-13.4 40.5.6 4.6 1.4 13.9 1.8 20.6l.6 12.3h171l-.7-6.2c-.4-3.5-.9-14-1.2-23.3-.6-20.3-2-26.6-7.4-34.3l-4.1-5.8 1-13.4c.6-7.4 1.5-22 2.1-32.4.6-10.5 1.8-23.7 2.6-29.5 1.5-10.2 1.5-26.6-.2-42.5l-.6-5.8 3.9.7c3.7.6 4.1.4 6.6-3.2 1.5-2.2 2.7-4.6 2.7-5.5s.7-1.8 1.5-2.2c.8-.3 1.5-1.6 1.5-3s.9-3 2.3-3.8c1.3-.9 2.7-3.5 3.5-6.4.8-2.7 2.3-6.6 3.4-8.7 1.2-2.4 1.8-5 1.6-6.9-.4-2.4 0-3.1 1.7-3.8 1.2-.5 2.2-1.4 2.3-2.2.6-7.5 1.2-9.9 2.6-11.3.9-.9 1.6-2.7 1.6-3.9 0-1.9 1.4-3.1 6.8-6 7.6-4.2 21.2-12.5 22.8-14 .6-.6 4-3.6 7.5-6.6 7.3-6.2 16.3-17.3 28.9-35.5 8.6-12.4 14.7-20.6 18.6-24.8l4.5-4.9-.3-9.9-.3-10-8 3.9c-10 4.9-20.8 13.4-30.3 24-4.1 4.4-8.5 8.8-9.8 9.7l-2.4 1.6.6-6.9c.7-7.7-1-23.2-3.1-27.2-1-1.9-2.7-3.1-5.7-3.9-2.4-.7-4.8-1.4-5.4-1.7-.5-.2-3.1 1-5.7 2.7m-262.8 64c1.3 1.1 2.2 2.1 2 2.4-.3.2-1.8-.7-3.4-2-1.7-1.3-2.5-2.4-2-2.4.6 0 2.1.9 3.4 2"/></svg>