<svg xmlns="http://www.w3.org/2000/svg" width="682.667" height="512" version="1.0" viewBox="0 0 512 384"><path d="M442.8 3.4c-16.4 6.2-23.9 12.2-38.6 30.4-4.6 5.6-9.5 11.5-10.9 13l-2.5 2.7.5-3c2.1-10.7 3.3-21.7 2.8-26.1 0-.7-1.6-1.5-3.5-1.8-2.8-.5-4.3-.1-8.1 2.3-3.5 2.2-6.3 3.1-11.3 3.6-21.2 1.8-27.1 7-21.1 18.6 2.3 4.7 2.2 4.9-5.2 10.6-2.7 2-4.9 4.2-4.9 4.8s2.5 2.2 5.5 3.4c5.7 2.4 15.9 10.6 15 12.1-.3.5-5.8 3.5-12.3 6.6-6.4 3.2-12.9 6.6-14.4 7.6-1.5 1.1-6 2.8-10 3.9S314 95 311 96.2c-4.5 1.7-7.4 2.1-16.2 1.9-8.9-.2-11.4.1-15.3 1.8l-4.7 2.1-6.7-2c-12.6-3.7-33.5-4.5-41.3-1.5-1 .4-4.1-.5-7.2-2-4.8-2.3-6.4-2.6-11.3-2.1-6.7.6-12-.9-13.7-3.9-4.7-8.6-9.3-12.2-17.3-13.6-5.3-.9-6.4-1.6-10-5.7-2.2-2.6-4.5-6.3-5.1-8.2-3.3-9.8-10-14.8-18.1-13.5-2.5.4-8.8.6-13.8.5-5.7-.1-9.3.2-9.3.8s3.1 2.2 7 3.7c4.3 1.6 8.8 4.3 11.8 7 6.2 5.6 13.2 16 13.2 19.6 0 2 .7 3.2 2.4 4.1 1.3.7 5.1 4.9 8.4 9.3 6.3 8.5 10.2 12.5 16.7 17.1 2.8 2 3.9 3.5 3.7 4.8-.6 2.9 2.4 4.7 5.4 3.4 2-.9 3.2-.6 7.8 2.2 7.6 4.6 14.6 10.8 14.6 12.9 0 1 1.2 3.6 2.6 5.7 2 2.9 2.4 4.2 1.5 5.4-.6.8-2.3 4-3.7 7-4.7 9.7-3.5 23.2 3.3 35.9 1.2 2.4 2.3 5 2.3 5.8s1.4 2.7 3.2 4.3c3.7 3.5 3.7-.3.7 40l-2.1 28.4-4.2 5.5c-3.7 5-4.1 6-4.4 12.6-.2 3.9.3 10.9 1.2 15.7 3.1 16.7 3.7 24.6 3.6 53.5V384h154v-2.2c0-3-2.5-20.5-5.6-39.8-3.4-21.6-3.2-20-4.5-35.5-1.6-21.1-4.5-27.3-18.3-38.7-5.7-4.7-8-7.8-5.8-7.8.5 0 1.7-3.7 2.7-8.3 1.6-7.2 4.2-17 13.1-49.7 3.5-12.9 2.7-27.5-2.1-37-.7-1.4-1.6-3.6-2-4.9l-.7-2.3 3.2 1.8c1.7 1.1 3.6 2.7 4.2 3.7 1.3 2.6 6.8 5.7 10 5.7 3 0 6.8-4.4 6.8-7.9 0-1.2.6-2.1 1.5-2.1 1 0 1.5-1 1.5-2.9 0-1.7.6-3.1 1.5-3.5 1.9-.7 4.8-7.3 3.9-8.7-.3-.6.2-1.9 1.3-3.1 1.2-1.4 1.8-3.5 1.7-6.9 0-3.4.3-4.9 1.3-4.9 1.2 0 1.7-2.8 1.6-8.5 0-1.1.3-2.2.7-2.5s.9-2.9 1.2-5.9c.4-4.3.2-5.7-1.3-7.2-2-2-3.9-5.3-3.9-6.8 0-.5.9-1.2 1.9-1.6 1.1-.3 5.7-4.3 10.3-8.9 8.5-8.4 14-16.4 28.7-41.2 13.2-22.3 19.8-29.3 36.8-39.4 4-2.3 7-4.7 6.7-5.2-.4-.5-1.5-.8-2.5-.5-1.1.3-1.7.1-1.3-.4.3-.5-2.1-.9-5.3-.9-4.1.1-8.4 1-14.5 3.4M184.6 86.1c.4.8.1.8-1.4 0-1.2-.6-2.4-1.6-2.8-2.2-.4-.8-.1-.8 1.4 0 1.2.6 2.4 1.6 2.8 2.2m36.3 103.4c0 .5-.4.3-.9-.5s-.9-2.2-.9-3c0-1.6 1.7 1.6 1.8 3.5m4.1 8.9c0 1.8-1.7-.8-2.4-3.4l-.7-2.5 1.5 2.5c.9 1.4 1.5 2.9 1.6 3.4"/></svg>