<svg xmlns="http://www.w3.org/2000/svg" width="682.667" height="512" version="1.0" viewBox="0 0 512 384"><path d="M410.5 1.3c-9.5 5.5-19.3 15-26.7 26C377.9 36 371 44.4 371 42.8c0-.7 1.1-5.6 2.5-10.8 2.5-9 2.6-14.8.5-13.5-.6.3-1-.1-1-.9 0-2.2-.6-2-6 1.9-3.3 2.4-6.6 3.9-10.7 4.6-14.4 2.5-16.3 3.1-19.3 5.9-2.5 2.3-3 3.6-3 7.2.1 2.3.9 5.9 1.9 7.8l1.8 3.5-4.5 4.7-4.5 4.7 3.9 1.6c4 1.7 11.4 8.1 11.4 10 0 .5-3.3 2.8-7.2 4.9-4 2.1-11.6 6.6-16.8 10.1-5.2 3.4-12.1 7.4-15.2 8.8-4.9 2.2-6.2 2.4-9.3 1.5-4.5-1.4-15.6.4-19.6 3.3-2.4 1.7-3 1.8-6 .5-5.1-2.1-23.8-4.8-28.4-4.1-2.2.4-6.8 1.3-10.1 2.1-5.9 1.4-6.3 1.4-9.5-.5-2.6-1.6-5.1-2.1-10.7-2.1-8 0-11.2-1.1-11.2-3.8 0-2.1-6.3-8.4-10.5-10.5-1.6-.8-4.6-1.7-6.6-2.1-4.2-.7-9.5-5.8-10.5-10.1-1.3-5.9-4.6-10.4-9.1-12.6-3.8-1.9-5.4-2-12.1-1.4-4.2.4-9.8.8-12.4.7-2.7 0-4.8.4-4.8.8s2.8 1.9 6.3 3.4c3.4 1.5 7.6 3.9 9.4 5.4 4.7 4 13.4 17.4 12.2 18.8-1 1.2 1.3 4.4 3.1 4.4.4 0 2.7 2.9 5 6.5 2.4 3.6 7.4 9.4 11.1 12.9 4.1 3.8 6.9 7.2 6.9 8.4 0 3.1 2.6 4.7 5.8 3.5 2.4-.8 3.5-.4 8.6 3.1 3.2 2.2 7.8 6.2 10.2 9 4.7 5.2 4.9 6.6 1.4 11.6-6.3 9.1-8 17.1-5.6 27.3 1.5 6.2 8.9 22.3 10.9 23.8.9.6-4 56-6.3 72.4-.5 3.8-1 25.8-1 48.9 0 23-.2 42.2-.5 42.6s-2.4.1-4.7-.7c-2.4-.8-8.2-1.8-12.9-2-12.7-.8-21.6 2.3-34.5 11.9-4.4 3.3-13.1 13.6-14.2 16.8-.2.7 31.8 1 90.1 1h90.5l1.5-3.8c.8-2 1.8-5.6 2.2-8 .4-2.3 1-4.2 1.4-4.2.5 0 1.8 3.6 3.1 8l2.3 8h14.8c8.2 0 14.9-.2 14.9-.5 0-.9-3.1-18.9-8.5-48.5-2.9-16.2-5.6-33.6-6-38.5-1.4-19.4-4.5-26.9-14.9-36-5.7-5.1-6.4-6-6.4-9.6-.1-2.1-.8-5.1-1.7-6.7-2.1-3.4-1.7-4.6 7.8-30.2 6.2-16.6 7.8-22.4 9.2-33.3.7-4.9-1.7-17.4-4.1-21.2-1.6-2.6-2.7-9.5-1.6-9.5 1.6 0 9.1 5.9 10.7 8.4 1.6 2.3 4.2 3.5 9.7 4.2 2.2.3 3-.2 4.2-2.8.9-1.7 1.6-3.9 1.6-5 0-1 .7-1.8 1.6-1.8 1.2 0 1.5-.6 1-2.5-.5-1.8-.1-2.7 1.3-3.5 2-1 4.5-7.6 3.5-9.1-.3-.5.3-2 1.2-3.4 1.1-1.7 1.5-3.8 1.1-6.5-.3-2.8-.1-4 1-4.4 1-.4 1.3-1.8 1-5.6-.3-2.7-.1-5 .4-5s.8-2.5.6-5.5c-.3-5.5-.4-5.8-8.4-15.4l-2.1-2.6 3.7-3.5c8.3-7.8 15.5-18.8 26.8-40.8 4-7.9 8.8-16.7 10.7-19.5 4.5-7.2 12.6-15.8 19.8-21.2l6-4.5-11.4.1c-6.5.1-12.1.6-13.3 1.2M189.1 85.7c1.3 1.6 1.2 1.7-.3.4-1-.7-1.8-1.5-1.8-1.7 0-.8.8-.3 2.1 1.3m31.7 101.4c.4 4-.5 3.5-1.8-1-.7-2.4-.6-3.1.3-2.8.7.2 1.3 1.9 1.5 3.8"/></svg>