<svg xmlns="http://www.w3.org/2000/svg" width="682.667" height="512" version="1.0" viewBox="0 0 512 384"><path d="M0 186.9c0 177.2.1 187 1.7 187.5 2.4.6 18.2 2 64.8 5.8 33.5 2.7 45.3 3.2 83.5 3.5 39 .4 44.5.3 45.5-1.1.6-.8 3.6-4.3 6.6-7.7s7.6-8.7 10.3-11.8 6.6-7.6 8.8-10.1 5-5.6 6.2-7c2.8-3.2 7.2-9.6 12.7-18.5 6.2-9.9 5.9-9.5 13.9-25 6.8-13.2 13.4-23.7 21.6-34.8 3.6-4.7 3.6-4.8 1.8-7.4-2.3-3.6-61.1-62.5-64.4-64.6-1.4-.9-7.1-2.6-12.6-3.7-10.3-2-18.9-4.7-24-7.3-4.3-2.2-18.3-17.2-20.1-21.5-.8-2-1.8-7.3-2.1-11.8-.6-10.1.8-13.3 8.4-19.4 8.2-6.5 10.6-9.7 9.4-12.1-.9-1.6-.7-1.9 1.2-2 1.3-.1 2.9-.1 3.6 0s2.7-1 4.4-2.4c6.1-5.1 10.6-6.7 17.7-6.3 9 .5 15.1 3.6 23.9 12.4 5.2 5.1 8.1 9 10.1 13.6 3 6.5 5.4 15.8 4.7 18-.3.7-.7 2.5-1 4-.4 1.5-2.1 4.4-3.8 6.4l-3.3 3.7 4.5 3.9c2.5 2.1 8.1 6.3 12.5 9.3 4.5 2.9 11.7 8.4 16 12.2 10.1 8.7 20.1 16.3 21.3 16.3.5 0 1.2-2.2 1.6-4.9s1.2-5.1 1.9-5.4c.7-.2-.5-2.1-3-4.6-7.7-7.5-7.1-12.2 3.1-27.1 4-5.8 8.6-13 10.1-16 2.6-5.1 2.7-6 2.2-14l-.6-8.5 3.4-4c1.9-2.2 3.8-5.3 4.1-7 .7-3.9-1.9-11.6-6.2-17.9-3.1-4.6-3.3-5.6-2.8-9.8.4-2.7.5-4.8.2-4.8-.2 0-2.4 1-4.8 2.1-2.4 1.2-7.2 2.6-10.6 3.2-5.8 1-6.3.9-9.2-1.4-1.7-1.3-4.2-4.7-5.5-7.4-1.4-2.8-4.8-7.2-7.6-9.9-2.7-2.7-5.3-6.2-5.6-7.8-.4-1.6-1.9-3.6-3.3-4.5-7.5-4.7-8.9-7.9-4.7-10.7 1.4-.9 2.5-2 2.5-2.4 0-1-7.1-4.5-7.8-3.8-.2.3-1.6-.4-3-1.5-1.6-1.2-2.8-1.6-3.2-.9-.4.6-1.6 0-3-1.5-1.6-1.7-2.6-2.1-3.1-1.4-.4.7-1.7 0-3.5-2.1-2.9-3.2-11.7-8.4-12.7-7.4-.9.9-14.8-7.9-19.6-12.4-5.5-5.2-18-13.1-21.8-14-1.5-.3-40.7-.7-87-.9L0 0zm459-56.4c5 5.1 9.3 6.7 21.9 8.5 4.1.6 8 1.5 8.7 2.1.7.5 4.1 1.6 7.6 2.3l6.3 1.3-9.9.8c-9.9.8-9.9.8-7.5 2.6 1.3 1 4.9 2.8 7.9 4s5.9 2.6 6.4 3c1 .9-2.3.1-15.7-3.8-4.9-1.3-9.1-2.3-9.3-2-1.1 1.1 7.4 9.1 11.8 11.2 7 3.3 15.8 8.9 15.8 10.1 0 .6 1.8 2.4 4.1 3.8 2.2 1.5 3.9 2.9 3.7 3.2-.3.2-6.3-1.3-13.4-3.2-13-3.7-18.7-4.8-30.2-5.7l-6.2-.5 4.2 3.8 4.3 3.9-5.5-1.4c-3-.8-5.5-1.3-5.7-1.2-.1.2 0 1.2.3 2.3s3 3.3 6.1 4.9c5.5 3 12.2 7.5 11.1 7.5-1.8 0-32.3-9.2-34.8-10.5-3.7-1.9-3.8-.9-.5 5.5 3.8 7.6 11.7 27.3 15.5 38.7 2.8 8.5 3.7 10.3 5.7 10.8 3.6.9 4.3-.1 4.3-5.8.1-10.3 2-24.1 4-28.2 3.6-7.1 7.2-10.2 14.7-12.4 18.4-5.4 21.8-3.8 26.2 11.9.6 2.5.9-4.6 1-24.5l.1-28-5-2.7c-2.9-1.5-5.8-2.4-6.7-2.1-1.1.4-1.4.3-.9-.5s.2-1-.8-.6c-.8.3-4-.6-7.1-2-3.4-1.5-8.4-2.8-12.8-3.2-5.7-.5-8.7-1.5-14.3-4.5-3.9-2.2-7.7-3.9-8.4-3.9-.8 0 .6 2 3 4.5M331 266.9c-6.3 6.5-9.9 9.3-14 11-5.3 2.2-5.7 2.6-9.2 9.9-2.1 4.4-10.3 16.5-19 28.2-17 22.7-26.9 37.6-29.1 43.6-.8 2.1-1.9 7.7-2.5 12.4-.5 4.7-1.3 9.3-1.7 10.2-.7 1.7.3 1.8 12 1.8 11.4 0 13-.2 15.8-2.2C286 380 304 365 315.4 355c10.9-9.5 30.4-30.2 36.6-39 1.4-1.9 3-4 3.6-4.7.7-.7 2.6-4.7 4.4-8.9l3.2-7.7-2.1-2.6c-1.2-1.4-4-6.2-6.2-10.6-4.9-9.4-13.8-23.6-14.7-23.4-.4.1-4.5 4.1-9.2 8.8m148 15.8c.1.9 20.4 14.3 28.3 18.7 7.9 4.5 5.2 1.2-5-6.2-14.2-10-23.4-15-23.3-12.5"/></svg>