<svg xmlns="http://www.w3.org/2000/svg" width="682.667" height="512" version="1.0" viewBox="0 0 512 384"><path d="M375.5 5.4c-3 2.9-8.3 9.8-11.8 15.2-13.3 20.6-12.9 20.2-12.2 16.9.4-1.7 1.3-4.6 2.2-6.5.8-1.9 2.1-5 2.9-6.7 1.3-3.2 1-6.8-.6-5.8-.5.3-.6-.4-.3-1.5.6-2.4-.9-2.6-2.7-.4-2.5 3-9.6 6.2-17.3 7.9-6.4 1.4-8.5 2.3-11.7 5.4-4.6 4.4-5 7.2-2.3 15.9 1.4 4.3 1.5 5.6.5 6-.7.2-1.7 1.2-2.2 2.2-.8 1.5-.4 2.2 2.3 3.9 1.7 1.1 4 3.3 5 5 2 3.4 3.6 1.9-14.5 14-5.9 4-12.4 9.1-14.5 11.4-3.5 3.8-4.3 4.2-7.8 3.9-5.4-.5-13.9 1.5-15.9 3.7-1.6 1.7-1.8 1.7-7.4-.2-7.8-2.6-24.5-2.8-32-.3-5.2 1.8-5.5 1.8-9.5 0-2.6-1.2-6.4-1.9-10.5-1.9-6.1 0-6.4-.1-7.7-3C205.2 85 196.7 79 191.3 79c-2.4 0-7.3-4.6-7.3-6.8 0-3.5-5.2-12.2-8.1-13.7-4.1-2.2-11.6-3-14.2-1.7-1.2.7-4.9 1.3-8.2 1.4l-6 .3 6.6 3.3c5.1 2.4 7.7 4.5 10.6 8.5 5 6.7 7.5 11.6 6.8 13.7-.4 1.1.3 2.3 1.8 3.3 1.3.8 3.9 3.9 5.8 6.9 1.8 2.9 5.5 7.5 8.1 10.3 2.7 2.7 5.1 6.1 5.5 7.5 1 4 2.3 5 6.8 5 3.8 0 4.9.6 10.4 5.7l6.1 5.8-4.6 9.5c-3.9 8-4.6 10.4-4.5 15.1.2 11.1 2.7 19.4 9.2 30l2.1 3.6-3.6 27.5c-3.3 24.7-4.2 34-6 63.8-.3 4.7-.6 15.6-.6 24.2V318h-2.5c-2.2 0-6.1 4-9.3 9.7-.5.9-2 .8-6.2-.3-22.1-5.7-45.1 4.7-55.8 25.4-4.6 8.9-6.9 19.2-5.8 26.6l.7 4.6H314v-3.3c0-1.8 1.6-6.8 3.5-11.2s3.8-10.2 4.1-12.9c.4-3 1-4.3 1.5-3.5 1.9 3.5 8.9 25.4 8.9 28v2.9h15.6c14.5 0 15.6-.1 14.9-1.8s-5.9-26.1-14-66.2c-2.4-11.8-4.9-26.7-5.5-33-1.5-14.2-3.6-20-9.9-27.1-4-4.5-5-6.3-5.6-10.7s-1.3-5.7-4.5-8.5l-3.8-3.2 3-7c3.9-9 12.5-33.4 14.3-40.5 1.8-7.2 2-15.2.7-22-.6-3-1.4-9-1.7-13.4l-.7-7.9 4.7 3.4c2.6 1.9 5.5 4.5 6.3 5.7 1.7 2.7 5.1 4.3 9.9 4.8 2.8.3 3.5-.1 4.9-2.7.8-1.7 1.3-3.7 1-4.5s.1-1.4.9-1.4c1.5 0 1.9-1.1 1.6-3.8-.1-.8.5-2.2 1.5-3.3.9-1 1.9-4.1 2.2-6.9.2-2.8.9-5.3 1.3-5.6 1.3-.8 1.1-7.2-.3-8-.8-.5-.6-1.1.6-1.9 1.7-1.3 1.7-5.8.1-9.8-.4-1-.3-1.7.4-1.7 1.4 0 1.4-4.7 0-5.5-.6-.4-.8-1.4-.5-2.2.6-1.4-2-5-8.1-11.5-.8-.9-2.9-2-4.7-2.4-4.8-1-5-1.4-1.8-4.8 6.6-7 11.5-16 23.8-43.5 7.6-17 13.8-27.5 19.3-32.6 1.7-1.7 3.1-3.3 3.1-3.7 0-.5-4.5-.8-10.1-.8h-10z"/></svg>