<svg xmlns="http://www.w3.org/2000/svg" width="682.667" height="512" version="1.0" viewBox="0 0 512 384"><path d="M306.5 4.5C304.8 8.9 296.3 19 294.3 19s-8.5 7.4-10.4 11.7c-2.5 5.9-2.4 8.4 1.1 17.2l2.9 7.3-2.2 3.2c-1.2 1.7-4.7 6.2-7.8 10.1-6.8 8.6-11.4 15.3-12.3 18.1-.7 2.3-3.2 3.4-8.1 3.4-1.6 0-5.5 1.6-8.6 3.5l-5.7 3.5-4.3-2.5c-2.4-1.4-5.1-2.5-6-2.5s-3.2-1.8-5.1-4c-3.2-3.5-6.9-5.8-12-7.4-1-.3-1.8-1.5-1.8-2.8 0-7.8-5.2-15.1-11.5-16.1-2.9-.5-11 1.4-13.5 3.1-.2.2 1.2 1.8 3.3 3.5 4.8 4.1 9.1 14 7.4 17-1 1.6-.8 2.1 1.1 3.5 2.8 1.9 8.2 13.3 8.2 17.4 0 2.8 3.1 7 6 8 1.1.3 1 1-.7 3.4-4.6 6.6-11.1 22.5-12.7 31.1q-1.05 6 1.8.6l1.4-2.8.7 4.8c.5 2.9 2.2 7.1 4.5 10.6 4.3 6.6 6 8.1 6 5.4.1-4 3.9 5.4 3.9 9.7.1 6.2-2.4 28.2-5.4 48-1.4 9.1-3.4 22.1-4.5 29-4.1 26.9-4.7 43.3-2.4 60.1.5 4 .3 4.9-1.2 5.7-1.8 1-1.9.6-1.6-6.4.6-11.9-5-26.5-12-31.6-2.9-2-3.9-7-1.8-8.3 1.4-.9.2-7.5-1.9-9.9-2.2-2.6-7.8-4.8-9.6-3.8-.8.4-2.8 2.9-4.4 5.4l-3 4.7-3.8-1.1c-2.1-.6-7.2-.8-11.4-.6-10.1.6-18.9 4.7-27.3 12.8-9.7 9.3-14 19.9-13.5 33.4l.3 5.9-4.7 1.8c-21.6 8.5-35.3 28.7-38.1 56.1L73 384h111.8l.7-3c.4-1.6 1.1-3 1.6-3s.8.3.7.7c-.1.5.1 1.8.6 3 .6 1.9 1.5 2.3 4.8 2.3h4.1l-.7-4c-.3-2.2-.9-5.8-1.2-8-.5-3.2-.3-4 .8-4 3.4 0 6.7-3.9 7-8.3.3-3.6.6-4.2 2.3-3.9 1.1.2 3.5.6 5.3.9 3.7.6 3.6.2 1.7 7.3-.8 3-1.5 6.8-1.5 8.3 0 1.6-1.1 4.3-2.5 6.1s-2.5 3.8-2.5 4.4c0 .9 17.1 1.2 67.4 1.2h67.4l1.1-4.4c2.8-11.4.4-27.7-9.9-66.6-10.7-40.4-14.8-59.8-15.9-75.7-.5-8.3-.9-9.5-3.4-12.1l-2.8-2.9 4.6-11.1c9.2-22.6 13-46.9 10.5-67.6-.6-5.5-1.6-11-2.1-12.4-1.5-3.8-.5-3.7 4.4.6 2.5 2.2 4.3 4.2 4 4.5-.2.3.3.4 1.3.3 1-.2 3.6 1 5.8 2.6 4.3 3.1 8.3 3.4 7.8.6-.1-.9.2-1.9.8-2.3.7-.4.7-1.2 0-2.5s-.6-2 .1-2.2c.6-.2 1.3-2.2 1.5-4.3.3-2.2.6-5.3.8-6.8.1-1.5-.1-3-.6-3.3-.4-.3-.5-2.2-.2-4.3.4-2.4.1-4.9-.8-6.7-.8-1.6-1.3-3.7-1.1-4.6s-.3-3-1.1-4.7c-.9-1.6-1.6-4.2-1.6-5.6s-.9-3.3-2-4.2c-1.1-1-2-2.2-2-2.8-.1-1.7-7.3-9.2-10.5-10.8-1.7-.8-7.2-1.8-12.3-2.2-5-.4-9.2-.8-9.2-.9s1.3-3.8 2.9-8.2c3-8.1 5.5-20 9.1-42.6 1.1-7 2.5-13.9 3-15.4 2-5.1 1.6-5.4-6.9-5.4h-7.9zm-85.4 84.2c1.3 1.6 1.2 1.7-.3.4-1-.7-1.8-1.5-1.8-1.7 0-.8.8-.3 2.1 1.3M240 213.8c-1.3 3.7-3.6 7.4-6 9.7l-3.7 3.6 1.7-9.3c1-5.1 2.1-11.1 2.4-13.2l.8-3.9 3.5 3.5 3.5 3.5zm-27 106.9c0 .7-.4 1.3-1 1.3-.5 0-1-1.2-1-2.8 0-2.1.2-2.4 1-1.2.5.8 1 2.1 1 2.7m94 22 6 12.6-1.6 5.6c-.9 3.1-2 6.7-2.3 8-.7 2.4-.8 2.4-2.4-1.1-.9-1.9-3.4-6.5-5.6-10.3-5.5-9.4-5.8-11.4-3-20.2 1.3-4 2.5-7.3 2.6-7.3.2 0 3 5.7 6.3 12.7"/></svg>