<svg xmlns="http://www.w3.org/2000/svg" width="682.667" height="512" version="1.0" viewBox="0 0 512 384"><path d="M290.5 3.2c-1.1 5-4.4 10.4-8.4 13.6-2 1.6-4.9 5.3-6.5 8.2-3.7 6.7-3.9 14-.7 21.9l2.2 5.5-2.7 5C272.9 60.2 270 65 268 68c-4.4 6.7-7.3 12-9.9 18.1-1.8 4.4-2.3 4.8-8.3 6.7l-6.3 2.1-4.6-2.1c-2.5-1.2-5.5-3.5-6.6-5.2-2-3.1-4.3-4.6-9.5-6.6-2.3-.8-2.8-1.5-2.8-4.4 0-4.8-1.3-7.7-5-11.4s-7.9-4.2-13.5-1.5c-4 1.9-4.5 4-1.2 5.2 1.6.6 3.1 2.9 4.8 7.3 2.3 5.6 2.4 6.7 1.2 8.5-1.3 1.9-1.2 2.3.9 3.9 3 2.4 5.8 9.8 5.6 14.6-.1 2 .6 4.8 1.5 6.2 1.7 2.5 1.6 2.7-1.8 7.2-1.9 2.5-3.8 5.8-4.1 7.2-.4 1.5-1.5 4.4-2.5 6.4-2.2 4.3-6.3 18.7-5.6 19.5.3.2 1.2-.7 2-2.2l1.4-2.8.5 4c.7 5.1 3 9.8 7.1 14.8l3.2 3.9.5-2.9.6-3 2.7 4.2c2.8 4.5 3.6 10 1.5 12.1-.9.9-.7 1.6.7 3.1 1.6 1.9 1.7 3.1.6 18.3-.7 9-1.6 18.8-2.1 21.8-.6 3-2.4 14.3-4.1 25-1.6 10.7-3.7 21.5-4.4 24-3.3 10.4-3.5 18-1 36.5.7 4.8.6 5.2-1.9 6.3-1.5.7-3.6 1.2-4.7 1.2-2 0-2-.4-1.2-5.3 2.5-16.1-2.1-31.4-11.9-39-3.1-2.5-3.1-2.7-2-6.5 2.1-6.8 1.6-8.9-2.5-11.7-6.2-4.1-8.9-3.2-12.7 4.3-1.4 2.7-2.1 3.2-3.9 2.6-1.2-.4-6-.7-10.7-.7-9.9.1-14.8 1.8-24.5 8.8-11.5 8.2-18.5 23.2-17.1 36.7.4 4.3.2 5.8-.7 5.8-.6 0-3.9 1.3-7.2 2.9-13.2 6.3-24 18.7-29.2 33.6-2.5 7.1-2.8 9.4-2.8 20.5 0 7.5.5 13.6 1.2 15.2L79 384h95.8l1.5-2.2 1.6-2.3.7 2.2c.6 2.1 1.3 2.3 6.5 2.3h5.8l1.7-5.8c.8-3.1 2.2-7.2 3.1-9.1 1.2-2.6 1.3-4.4.5-8.2l-.9-4.9 3.7-2.1c3.1-1.7 3.9-2.9 4.4-6 .7-4.7 2.5-5 7.3-1.3 2.7 2.1 3.3 3.2 3.3 6.3 0 2.2-.6 4.4-1.5 5.1-.7.6-1.7 3.3-2.1 5.8-.4 2.9-1.6 5.6-3 7.1-1.3 1.3-2.4 3-2.4 3.9 0 .8-1.9 3.2-4.2 5.3l-4.3 3.9h136.4l1.1-3.9c5.1-19.2 3.9-29.8-9.5-77.1-12.6-44.8-13-46.6-12.7-61.4.1-9.7-.2-13.6-1.3-16-1.5-3.1-1.4-3.7 2.9-15.9 2.5-6.9 5.7-18.8 7.2-26.4 2.4-12.6 2.6-15.2 2.1-29.3-.3-8.5-1.3-18.2-2.1-21.5l-1.4-6 4.7 5.4c3.2 3.7 5 5 5.5 4.2.4-.6.2-1.8-.4-2.6-2-2.4-.6-1.8 3.6 1.5 2.1 1.7 4.7 3 5.8 2.8 1.8-.2 2.1-1 2.1-4.6 0-2.3.3-4.2.7-4.2s.7-1.7.7-3.8V118c.1-1.9-.4-3.9-.9-4.4s-.6-2.1-.3-3.6c.3-1.6-.2-4.1-1.1-5.9-.9-1.7-1.4-3.6-1.1-4.1s-.4-2.9-1.7-5.2c-1.2-2.4-2.1-4.7-2-5.2.2-.4-2.3-4.2-5.4-8.3-7.3-9.8-10.4-11.2-23.6-11.3-5.4 0-9.8-.2-9.8-.4s.6-2.2 1.4-4.4c1.8-5.1 4.3-18.5 5.1-28.2 1-10.5 1-10.6 4.4-14.8 3.8-4.5 3.9-5.9.5-7.4-2.6-1.2-2.6-1.4-2-8L306 0h-14.8zm-62.5 87c0 .6-.7.5-1.5-.2s-1.5-1.7-1.5-2.2c0-.6.7-.5 1.5.2s1.5 1.7 1.5 2.2m19.5 117.5c-1.5 5.1-2.3 6-7.7 9.2-4.3 2.6-4.3 2.6-2.7-6.6.9-5.4 1.4-6.3 2.9-5.8.9.3 2.8.1 4.1-.4 4.6-1.8 4.9-1.5 3.4 3.6m53.3 128.8c3.4 6.9 6.2 13.3 6.1 14.3 0 .9-.8 3.5-1.8 5.6l-1.7 3.9-6.4-9.9c-5-7.8-6.4-10.7-6.3-13.7.1-4.1 2.2-12.7 3.2-12.7.3 0 3.4 5.6 6.9 12.5m-115.5 22.7c-.2.5-1.1.8-1.9.8-1 0-1.4-1.2-1.3-4.8v-4.7l1.8 4c1 2.2 1.6 4.3 1.4 4.7m1.2 8.8c.4.6 1.5.8 2.6.5 1.7-.6 1.9-.3 1.4 2.2-1.6 7-4.5 11.1-4.5 6.3 0-2.2-2.5-2.8-3.3-.8-1 2.4-.7-1.6.4-5.5 1-3.7 2.2-4.6 3.4-2.7m23.9 9.6c.4.9.4 1.9.1 2.2-.7.8-3.5-1.9-2.9-2.9.8-1.4 2.1-1.1 2.8.7"/></svg>