<svg xmlns="http://www.w3.org/2000/svg" width="682.667" height="512" version="1.0" viewBox="0 0 512 384"><path d="M279 4c-.6 2.1-2.6 5.8-4.5 8.2-7 8.7-8.7 12.5-9.3 19.8-.4 5.6 0 8.1 1.8 13l2.3 6-7.5 14.8c-4.1 8.1-8.3 17-9.2 19.8-1.5 4.5-2.2 5.3-5.8 6.7-4.9 2-7.7.9-12.2-4.8-1.6-2.1-4.8-4.6-7.1-5.6-3.8-1.7-4.1-2.1-3.7-4.8.9-6.4-5.9-15.1-11.8-15.1-2.9 0-7.6 2.6-8.4 4.5-.9 2.3-.8 2.3 1.6 2.7 1.7.2 2.6 1.8 4.3 6.8 2 5.9 2.1 6.7.7 8.3s-1.3 2 .9 4.5c3.7 4 4.5 6.9 4.4 14.7-.1 6.6-.3 7.2-3.8 11-2.1 2.2-4.2 5.8-4.8 8-1.6 5.7-5 14.7-6.5 16.9-.7 1-1 2.4-.7 3.2s0 2.7-.6 4.4c-1.3 3.8.5 3.1 2.1-.8 1.1-2.6 1.1-2.5 1.9 2.1.4 2.6 2.1 6.9 3.8 9.5 3 4.7 7 8.8 7.2 7.4.1-.4.2-1.2.4-1.7.1-.6.3-1.4.3-1.9.3-1.4 3.3 1.5 6 5.8l2.5 4-3.2 2.8c-2.8 2.5-3.1 3.1-2 4.5.7.8 2.3 1.9 3.5 2.3 2 .8 2.2 1.8 2.8 13.2 1.2 20.4-.9 35.8-5.9 45-.8 1.4-1.5 4.7-1.5 7.3 0 3.3-1.1 7.1-3.5 12.4-6.5 14.5-8 26.5-5.1 41.3 1.4 7.6 1.3 7.8-5.6 7.8-3.7 0-4-.2-3.4-2.3.3-1.2 1.1-5.7 1.8-10 1-6.6.9-8.6-.6-13.9-2.2-7.9-5.5-13.3-10.9-18.3l-4.5-3.9 1.6-4.1c2.1-5.9 1.1-8.7-4.2-11.6-4.3-2.2-4.6-2.2-6.4-.6-1 1-2.8 3.3-3.8 5.2-1.8 3.5-2 3.5-6.4 2.8-18-3.1-36.9 7.2-45.4 24.7-2.7 5.7-3.1 7.6-3.3 15.9l-.1 9.3-5.7 2.4C92.3 311.3 78 333.5 78 355.2c0 11.1 3.1 20.8 8.3 26.5l2 2.3h79.6l4-5.7c2.3-3.1 4.1-6.3 4.1-7.2s.8 0 1.8 1.9c1.2 2.4 1.6 4.2 1 5.8-1.3 3.8-.9 5.2 1.3 5.2 1.4 0 2.4-1 3.2-3 .7-1.7 2.2-3.3 3.8-3.9 2-.7 3.2-2.3 4.8-6.5 1.2-3.1 2.1-6.1 2.1-6.6s1-1.4 2.1-2.1c2-1 2.1-1.6 1.5-8.3l-.6-7.1 3-1.3c1.7-.8 3.3-2.4 3.6-3.7 1-4 2.8-4.8 6.3-2.8 3 1.8 3.1 2 3.1 8.9 0 4.9-.4 7.5-1.4 8.3-.7.6-1.6 2.7-1.9 4.7-.3 1.9-1.7 4.8-3.1 6.5s-2.9 4.1-3.2 5.4c-.3 1.2-1.6 2.7-2.9 3.3-2.9 1.3-5.9 5.7-5 7.2.4.7 21.6 1 65.9 1h65.3l2.4-7.8c2.1-6.7 2.4-9.6 2.3-22.2-.1-16.5-.9-20-12.8-58.5-11.3-36.8-11.8-38.9-11-54.5.5-9.4 1.2-15 2.5-18.5 9.2-24.4 13.2-58.7 9.5-82.8-.7-4.8-1-8.7-.6-8.7s1.5.9 2.5 2 2.4 2 3.2 2c1.1 0 .9-.8-.7-3-2.7-3.8-2.2-3.8 2.5 0 4.4 3.5 8.4 4 8.6 1 .1-1.1.2-2.6.3-3.3.1-.6-.2-1.8-.7-2.5-.6-.7-.6-1.2.1-1.2 1.1 0 .9-8.1-.3-16-2.4-15.4-14.5-35.9-23.9-40.4-3.8-1.8-14.2-2.2-19.5-.6-1.9.5-3.6.8-3.8.7-.1-.2.2-1.9.8-3.8 1.4-4.8 3.9-23.4 3.9-29.6 0-5.6 2.3-11.8 6.4-17.2 1.4-1.9 2.6-4 2.6-4.7 0-1.4-2.3-2.4-5.6-2.4-2.3 0-2.4-.3-2.4-6V0h-12.9zm-49 84.5c.7.8.8 1.5.2 1.5-.5 0-1.5-.7-2.2-1.5s-.8-1.5-.2-1.5c.5 0 1.5.7 2.2 1.5m14.4 115.1c1.1 2.9.6 8.1-.9 9.4-2.2 1.8-2.5 1.1-1.8-5.3.6-5.7 1.5-7.1 2.7-4.1m57.8 147.6c-.9 2.1-1.9 3.7-2.2 3.7-.5 0-8.7-10.8-10.8-14.3-1.2-2-1.6-20-.5-21.9.3-.4 3.8 5.9 7.8 14l7.4 14.8zm-118.1-7.1c.7 2.1 1.8 4.4 2.6 5 2 1.7 1.6 2.6-1.6 4.2l-3 1.5-.3-7.8c-.3-8.4.4-9.3 2.3-2.9m5.8 16.1c1.7-.6 1.1 3.2-1.5 9.3-1.5 3.7-1.7 3.9-2.5 1.7-.9-2.3-3.9-3.1-3.9-1 0 .6-.3.9-.6.5-.5-.5 2-9.8 3.3-12 .3-.5 1.2-.2 2.1.6 1 .8 2.3 1.2 3.1.9m19.1 11.7c0 .5.3 1.7.7 2.6.5 1.5.3 1.6-1.5.6-1.3-.7-1.9-1.7-1.6-2.6.7-1.6 2.4-2.1 2.4-.6m-5.6 8.6c.3.8.1 1.5-.4 1.5-.6 0-1-.7-1-1.5s.2-1.5.4-1.5.6.7 1 1.5"/></svg>