<svg xmlns="http://www.w3.org/2000/svg" width="682.667" height="512" version="1.0" viewBox="0 0 512 384"><path d="M195 2.5c0 2.3-.2 2.4-2 1.5-2.8-1.5-3.7-.7-4.5 4.3-.4 2.3-1.3 6.1-2.1 8.5-1.7 5.1-1.8 13.1-.3 18.7.6 2.2 2.8 7 5 10.6 4.5 7.5 4.8 11 2.3 22.4-.8 3.8-2 9.7-2.5 13-.6 3.3-1.3 7-1.5 8.2l-.4 2.2-2.8-2.6c-1.5-1.4-4.3-3.3-6.2-4.2-2.9-1.3-3.6-2.3-4-5.6-1.1-7.8-6.7-13.5-13.3-13.5-2.6 0-7.7 4.4-7.7 6.6 0 .8.9 1.3 2.1 1.1 1.8-.2 2.6.9 4.6 6.2 1.7 4.5 2.1 6.7 1.3 7.5-1.7 1.7-1.1 4.5 1.5 6.2 2.9 1.9 4.4 7.7 2.5 9.9-.7.8-1 2.8-.8 4.4.4 2.4-.5 4-4.5 8.8-5.3 6.1-8.6 12.3-8.7 16 0 1.3-1.1 5.6-2.5 9.6-4.1 12.3-3.9 11.5-2.1 9.3 1.5-1.9 1.6-1.7 1.7 3l.1 4.9 1.4-3 1.5-3-.4 2.7c-.2 1.6 0 2.8.5 2.8s1.3 1.1 1.8 2.5c1.4 3.7 9 11.5 11.1 11.5 1.1 0 1.9.4 1.9 1 0 .5.5 1 1.1 1s.9-.7.5-1.5c-.7-1.9-.4-1.9 3.8.5 4.7 2.8 4.9 4.2 1.6 8.1-3.7 4.3-3.7 5.8 0 7 2.8 1 3 1.5 3 5.8 0 2.6-.2 5-.5 5.3-.3.2-3.3-.9-6.7-2.6-5.7-2.8-7.2-3.1-15.8-3.1-8.7 0-10.1.3-16.8 3.4-11.4 5.4-17.7 13.1-20.3 24.9-1.3 6.2-2.6 6.9-15.4 7.7-8.9.6-10.9 1.1-18.2 4.6-5.7 2.7-10.4 5.9-15.3 10.5-3.8 3.7-7 7-7 7.4s-1.5 3-3.3 5.7c-5.1 7.6-7.2 15.2-7.1 26.3 0 8 .4 10.5 2.7 16 8.4 20.2 31.2 37.8 51.2 39.4 16.2 1.4 37.6-10.5 46.9-26.1l2.9-4.9 2.4 2.4c1.5 1.4 2.3 3.5 2.3 5.6 0 4.5 2.3 7.5 4.7 6 1.3-.8 1.8-2.4 1.8-5.7.1-4.9.7-6.3 2.4-5.2 1.7 1 1.4 10-.4 11.5-2 1.7-1.9 5.4.6 13.3 1.3 4.2 2.9 7.1 4.4 8.1 2.6 1.7 5.1 10.1 4.1 14-1.1 4.5 6.7 18.6 10.4 18.6 1.1 0 2.2 1.1 2.9 3l1 3h127l1-3.8c.6-2 1.7-9.1 2.5-15.6.9-6.6 1.8-12.1 2-12.3s1.8 2.4 3.6 5.9 4 7.2 5 8.3c.9 1.1 2.9 4 4.3 6.5 1.5 2.5 2.7 3.9 2.7 3.2s.4-1 1-.7c.5.3-.2-1.7-1.6-4.4-2.6-5-2.7-8.6-.2-7.5.7.3 3.8 3.7 6.8 7.4 3 3.8 5.8 6.9 6.1 7 .4 0 0-2.3-.8-5.1s-1.2-5.3-.9-5.6c.8-.8 5.8 3.6 10.1 9 2.1 2.6 4 4.5 4.2 4.3.3-.2-.5-2.6-1.6-5.1-2.4-5.5-2.4-5.5-1.1-5.5.5 0 2.1 2.1 3.4 4.7 2.9 5.5 3.2 5.3 1.1-.7-2.2-6.2-2-7.8.5-5.5 2 1.8 2.1 1.8 1.4 0-.5-1.3-.4-1.6.5-1 .7.4 1.1 1.8.8 3.2-.3 1.9.7 3.6 4.7 7.8l5.2 5.5h7.8c6.7 0 7.7-.2 6.6-1.5-.6-.8-1-2.2-.8-3.2 1.1-4.6-13.7-19-17.2-16.8-1 .6-4.5-5.4-3.7-6.2 1.2-1.1-3.7-15.4-7.5-21.6-2.2-3.8-4.1-7.4-4.2-8-.1-.7-.5-1.8-.9-2.5-.5-.6-.5-1.2-.1-1.2s-.3-1.2-1.7-2.6c-1.3-1.4-2.3-2.9-2.2-3.2.1-.4-.1-.9-.4-1.2-.4-.3-.2.2.2 1q.9 1.5-1.2-.3c-1.7-1.5-2.1-2.9-1.4-5.5.1-.1 1.2.5 2.6 1.4s2.5 1.3 2.5 1c0-.4 1.2.1 2.8 1.1 7.9 4.9-5-4.9-23.8-18-4.3-3-7.7-7.3-6.7-8.4.4-.3 1.2-.1 1.9.5.7.5 3.8 1.9 6.8 3 3 1.2 9.8 3.7 15 5.6s9.6 3.3 9.8 3.1-3.3-2.2-7.7-4.5c-4.5-2.3-7.9-4.6-7.6-5 .2-.4-4.1-3.3-9.8-6.5-5.6-3.1-13.2-8-16.9-10.8-7.6-5.9-9.3-7.5-6.1-5.8 3.3 1.7 3.4 1.4 1.2-2.3-1-1.8-1.7-4-1.4-4.7.3-.8-1.2-3.7-3.3-6.5-2.1-2.9-4.4-7.4-5.1-10-.7-2.7-3.2-10.3-5.6-16.9s-6-18.5-8-26.5c-7-28.2-16.2-57.3-21.5-68.2-2.5-5.1-2.5-5.1 0-3.8 3.4 1.8 4.3.3 3.6-5.9-1.1-10.8-4.7-22.4-8.4-27.9-1.1-1.5-3.7-5.3-5.8-8.6-4.5-6.8-13.1-14.8-18.9-17.6-2.7-1.3-6.2-2-10.2-2-8.2 0-11.7 2.8-13.1 10.3l-1 5.2-.1-7c-.1-9.6-2.7-29.2-5.6-44.4-2.2-11-2.4-13.2-1.3-17.4 1-4 1-5-.2-5.7-.8-.5-1.7-.7-2.2-.4-.4.3-1.2-1.4-1.8-3.6l-1.1-4h-5.4c-5.2 0-5.5.1-5.5 2.5m-.3 21.7c-.2 2.4-.4.5-.4-4.2s.2-6.6.4-4.3c.2 2.4.2 6.2 0 8.5M184 93c0 1.4-1.4 1.2-2.8-.2-1.9-1.9-1.4-3 .8-1.8 1.1.6 2 1.5 2 2m-8.6 78.3c1.1.8 1.7 1.9 1.5 2.5s-1.7 0-3.4-1.4c-3.2-2.5-1.4-3.5 1.9-1.1m8.1 104.1.8 5.9-2.9-.7c-2.6-.6-10-7.3-9.1-8.2.2-.2 2.3-1.4 4.8-2.7 5.1-2.8 5.4-2.6 6.4 5.7m7.2 41.6c5.4 3.4 10.5 7.3 11.6 9 2.2 3.4 3.3 4.1 1.6.9-.9-1.7-.8-2 .2-1.7 2.2.7 4.9 11.7 4.9 20.4 0 6.8-.3 8.4-2 9.9-1.1 1-2 2.8-2 4s-1.5 4-3.2 6.3l-3.3 4.3-2.7-5.8c-1.5-3.2-4.4-7.2-6.3-8.9-4.1-3.6-5.7-8.1-4.9-13.5.8-4.7-2.8-17.2-5.5-19.1s-3.5-6.5-1.6-9.4c.8-1.3 2-2.4 2.5-2.4s5.3 2.7 10.7 6m99.2 11.3c4 3.6 4.2 4 3.2 7-1.3 4.1-3.1 16.6-3.1 21.1 0 2-.4 3.6-1 3.6-.5 0-1-.8-1-1.7s-.9-2.6-1.9-3.7c-1.6-1.7-2.2-4.6-3-14.1-.6-6.6-1.1-13.5-1.1-15.3 0-3 .2-3.2 1.9-2 1 .7 3.7 3 6 5.1m-110.4 5.4c.7 4.1.8 3.9-2.6 4.8-2.3.6-2.7.2-3.8-3.6-1.2-4-1.2-4.3 1.1-6 2-1.6 2.4-1.7 3.4-.3.7.8 1.5 3.1 1.9 5.1m11.3 30.8c2.7 5.5 2.7 5.5.4 5.5-1 0-2.3.5-2.8 1-.7.7-1.8-.3-3.4-3.2l-2.3-4.1 2.3-1.9c1.2-1 2.5-1.8 2.9-1.8s1.7 2 2.9 4.5m13.4 6.5c-.2 1.7-1 3-1.8 3-1.8 0-1.8-1 .2-3.8 2-2.9 2.1-2.8 1.6.8m182.3 6.8c-1.4.2-2.9 1-3.2 1.8-.4 1.2-1.6.5-4.5-2.7-3.7-4-3.9-4.3-2-5 1.1-.4 2.3-1.3 2.7-1.9.5-.8 2.2.3 5.2 3.2 4.4 4.3 4.4 4.3 1.8 4.6"/></svg>