<svg xmlns="http://www.w3.org/2000/svg" width="682.667" height="512" version="1.0" viewBox="0 0 512 384"><path d="m198.8 17.2-.3 17.3-2.1-4c-1.2-2.2-3.6-8.7-5.4-14.5-4.1-13.4-5.5-15.1-6.3-7.7-.3 3.1-1.3 6.7-2.3 8.1-3.7 5.8.1 16.8 10 28.9 6.8 8.3 6.9 9.4 2.6 27.4-1.6 6.9-3 13.6-3 14.9s-.4 2.4-1 2.4c-.5 0-1-.4-1-.9s-2.4-2.1-5.3-3.6c-4.4-2.3-5.3-3.2-4.9-5.1.7-3.5-3.3-11.1-7-13.4-4.7-2.8-8.4-2.6-11.9.9-3.4 3.5-3.7 5.3-.8 4.9 1.8-.2 2.5.7 4.5 6.2 2 5.7 2.1 6.6.9 8.1-2 2.1-1.9 3.6.5 4.9 1.1.6 2.7 2.4 3.5 4 1.4 2.7 1.4 3.3 0 6.1-.9 1.7-1.5 4-1.3 5.2.2 1.5-1.3 3.8-4.6 7.2-5 5.2-8.6 11.1-8.6 14.2 0 1-1.6 6.3-3.5 11.7-3.9 11.1-4.1 12-2 9.2 1.4-1.8 1.5-1.6 1.6 3.5.1 3 .3 4.6.6 3.7.5-2.1 2.1-.8 3.9 3.2 1.8 3.9 9.5 12.2 10.9 11.6.7-.2 1.8.1 2.5.7 1 .9 1.2.8.7-.6-.6-1.6-.4-1.6 2.3-.2 4 2.1 4.7 1.9 2.4-.6-1.9-2.2-1.9-2.2.2-1.1 3.3 1.7 3.1 8.2-.3 12.3-2.6 3-2.6 3.2-.8 4.5 1 .8 2.2 1.4 2.7 1.4 1.1 0 1 6.1-.1 7.9-1.1 1.6-2 1.3-8.4-3.4-8.6-6.2-20.2-8.1-31.3-5.1-11 2.9-19 9.9-23.9 20.9-1.3 3.1-3 5.7-3.7 5.8-.7 0-7.8.1-15.8.2-14 .2-14.7.3-21.2 3.4C50.3 227.9 37 246.5 37 266.5c0 21.5 16 44.4 38.9 55.8l8.5 4.2 11.5-.1c9-.1 12.7-.6 16.7-2.1 5.6-2.2 19-11.7 24.1-17 2.9-3 3.5-3.2 5.3-2.1 1.5 1 2 2.3 2 5.4 0 4.4 1.2 6.1 4.5 6.4 4.4.5 4.8.2 4.2-3.8-.5-4.1.8-7.6 2.4-6.6.6.3.8 1.8.4 3.3-1.3 4.7-4.1 19.1-3.8 19.1.1 0 1.4-2.1 2.8-4.7l2.5-4.8-.1 5.5c-.1 6.6 1.3 12.5 3.6 15 1.4 1.5 1.8 4.2 2 12.7.3 11.7 2.8 20.4 6.5 23 1.1.8 2.2 2.9 2.6 4.8.6 3.5.7 3.5 6 3.5 5.4 0 5.4 0 4.8-2.8-.4-1.5-1.1-3.5-1.6-4.5s-.6-3.1-.3-4.7c.8-3.9-3-16.6-5.9-19.5-2.7-2.6-4.4-11.9-2.5-13 1.6-1 .2-12.9-2.2-18.4-1.6-3.7-1.8-9.1-.2-9.1.2 0 4.2 3 8.9 6.7 12.9 10.4 17.1 13.1 22.7 14.8 2.8.8 5.4 2.1 5.9 2.8.4.6.8 4.8.8 9.3 0 6.8-.3 8.4-2 9.9-1.1 1-2 3-2 4.5s-1.3 4-3 6c-1.6 1.8-3 4-3 4.8 0 .7-1.8 3-4 4.9-2.5 2.3-4 4.5-4 6v2.3h66.5c59.8 0 66.5-.2 66.5-1.6s.1-1.4 1.6 0c2.6 2.6 4.5 2 3.9-1.2l-.6-2.7 1.6 2.7c2.1 3.7 2.7 3.5 1.9-.7l-.6-3.5 3.1 1.6c1.9.9 3.1 2.3 3.1 3.5 0 1.8.5 1.9 3.8 1.3 2-.4 3.9-1 4.2-1.4.7-1 4-.4 5.3.9.6.6 2.5 1.1 4.1 1.1l3.1-.1-3-2.5c-1.6-1.5-2.5-2.3-1.8-2 .8.4 1.1-.1 1-1.5-.2-3.1-4-5.2-7.7-4.4-1.8.4-3.6.2-4.5-.5-1.1-.9-1.2-.7-.8.9.9 3.4-.3 2.4-2.5-2.1-1.4-2.7-1.8-4.7-1.2-5.7.6-1.2.2-2.4-1.1-4.1-1.7-2.2-4.8-8.2-4.8-9.5 0-.3-.7-1.8-1.6-3.5-.8-1.6-1.5-5-1.5-7.6 0-9.2-4.7-22.5-11.7-33.4-3.3-5-17-22.5-21.6-27.5-4.9-5.3-5.6-7.6-6.7-23.5-.6-8.5-1.8-19.1-2.5-23.5-.8-4.4-2.1-17.2-3-28.5-2.5-34.7-6.6-61.1-11-71.6-1.3-3.2-1.3-3.3.8-3.1s2.2-.1 2-7.6c-.6-19-14.7-42.8-30.9-52.3-4-2.4-6.1-2.9-11.2-2.9-5.6 0-6.6.3-8.6 2.6l-2.3 2.7-.7-12.5c-.6-10.4-2.9-26.1-8.3-57.1l-.6-3.2H199zM186 92.1c0 .6-.4.7-1 .4-.5-.3-1-1.1-1-1.6 0-.6.5-.7 1-.4.6.3 1 1.1 1 1.6m28 111.3c0 .7.3 3.4.6 5.9.6 4.5.6 4.5-3.5 6.6L207 218v-5.7c0-5 .3-6 2.8-8 3.1-2.6 4.2-2.8 4.2-.9m-30.8 83.5c-.1.3-1-.2-1.8-1.1-1.3-1.2-1.4-2-.5-3.7 1-1.7.9-2.2-.4-2.8-1.8-.6-1.6-3.8.8-17.3l1.2-6.5.5 15.5c.3 8.5.4 15.7.2 15.9M167.5 328c.8 4.5.2 6-2.5 6-2.3 0-2.6-.5-3.5-5.2-.6-3-.4-3.7 1.2-4.1 3.7-.9 4.1-.6 4.8 3.3m116.9 22.5c.5 2.5.4 3.6-.2 3-.5-.6-1.2-3-1.5-5.5-.7-5.3.7-3.3 1.7 2.5m-110.8 10c2.1 5.1 1.8 7.2-1.1 7.7-2.1.4-2.6 0-3.9-3.8-1.4-4.1-1.3-4.3.7-5.8 1.2-.8 2.3-1.5 2.5-1.5.2-.1 1 1.5 1.8 3.4m115.8 8.1c.3.8.2 1.2-.4.9s-1-1-1-1.6c0-1.4.7-1.1 1.4.7m-86.8 5.1c-.5 1.2-1 1.3-1.7.6-.8-.8-.7-1.8.2-3.4 1.2-2.1 1.4-2.2 1.7-.6.2 1 .1 2.5-.2 3.4m87.1 4.5c-.3.8-.6.5-.6-.6-.1-1.1.2-1.7.5-1.3.3.3.4 1.2.1 1.9"/></svg>