<svg xmlns="http://www.w3.org/2000/svg" width="682.667" height="512" version="1.0" viewBox="0 0 512 384"><path d="M215 2.1c0 1.1-.6 2.7-1.2 3.4-.7.8-1.8 2-2.4 2.8-1.3 1.5-2.8 10.1-2.5 13.4.1 1.3 0 2.3-.3 2.3-.2 0-2.7-4.7-5.4-10.4-4.8-10-7.2-13.2-8-10.8-.2.7-.9.9-1.4.6-.8-.5-.9.4-.5 2.8.4 2.8-.1 4.4-2.4 7.9-2.3 3.4-2.8 5.1-2.3 7.4 1.2 5.7 4.4 10.5 13.4 19.9l9.1 9.4-1.5 6.4c-.8 3.5-2.9 10.5-4.5 15.7-1.7 5.2-3.1 10.5-3.1 11.8 0 2.9-.4 2.9-4.4-.2-1.8-1.4-3.8-2.5-4.3-2.5-1.4 0-2.3-2.4-2.3-6.3 0-4.7-3.1-9.8-7.3-12-3.1-1.6-4.1-1.7-7.6-.6-2.2.7-4.8 2.3-5.6 3.5-1.4 2.2-1.4 2.4.9 3 2 .5 2.7 1.7 3.9 6.6 1.4 5.6 1.4 6.3-.1 8.6-1.5 2.4-1.5 2.6 1 4.6 2.8 2.2 3.6 5.7 2.3 9.1-.4 1.1-1.4 3.4-2 5.1-.7 1.7-2.9 4.3-4.8 5.8-4.6 3.6-8.1 8.7-11 16.6-1.3 3.6-3.6 9.2-5.1 12.4-2 4.3-2.3 5.6-1.1 4.6 1.5-1.3 1.7-1 1.5 2.6-.3 5.8-.2 6.2 1.7 6 1 0 1.9.8 2.1 1.9 1.1 5.5 12 16.2 13.7 13.5.4-.7 1.2-.7 2.5 0 3.1 1.6 4.5 1.3 2.9-.8q-1.95-2.25.3-.3c1 .7 1.6 1.7 1.3 2.1-.3.5-.1 1.1.5 1.5 1.7 1 1.2 2.3-2.5 6.4-1.9 2.1-3.5 4.3-3.5 5 0 .6 1.6 1.7 3.5 2.5q6.45 2.85-1.5 5.4c-3.5 1-4.4 1-6.5-.4-1.4-.9-2.5-2-2.5-2.3 0-1.5-8.9-7.1-14.5-9.2-4.7-1.8-7.2-2.1-14.4-1.7-14.5.8-25.1 7.4-30.7 19.1-2.4 5.1-5.2 6-12.2 4.1-9.2-2.5-19.8-2.9-26.9-1.1-11.1 2.9-22 9.1-29.8 17.1-8.1 8.3-11.9 15.2-14 25.3-4.6 22.2 9.6 51.6 31.3 64.6 8.8 5.3 16 7 26.2 6.2 14.1-1.2 25.9-6.8 37.5-17.7l5-4.7.9 2.7c.5 1.5 1.5 3.4 2.2 4.3.8.8 1.4 3.3 1.4 5.5s.5 4.5 1.2 5.2c1.8 1.8 4.8 1.5 4.9-.6.1-.9.3-2.4.4-3.2s.3-2.3.4-3.3c.1-1.1.9-1.7 2.7-1.7 2 0 2.5.4 2 1.6-.3.8-.2 1.2.3.9s1.2-.1 1.6.5c.6.9-.7 3.5-5.4 10.9-1.5 2.3-1.4 2.3.9 1.6 1.4-.4 3.1-1.6 3.7-2.6.8-1 2-1.5 3.3-1.2 2.3.6 2.6 1.9.6 2.6-2.4.9 1.2 18.1 4.3 20.7 2 1.7 4.5 12.3 3 12.8-2.2.9-.1 16.8 2.9 21.1.9 1.4 2.2 5.1 2.9 8.1 1 4.6.9 5.7-.3 6.6-3.2 2.5-1.4 3.4 6.6 3.4s8.1 0 6.9-2.2c-.6-1.3-1.8-3.1-2.7-4-1.1-1.3-1.5-4.8-1.6-14.6-.2-11.5-.4-13.3-2.5-16.8-3.2-5.3-5-13.2-3.7-16.6 1.3-3.6-1.8-16.5-4.6-19.5-1.2-1.3-1.9-2.5-1.6-2.8.9-1 9.8 9 13.7 15.3 2 3.4 6.4 8.3 10.1 11.3 7.7 6.5 11.9 10.7 18.3 18.2 5.5 6.5 6.1 10.1 2.3 13.7-1.4 1.2-2.8 3.5-3.1 5.1-.4 1.7-1.9 3.5-4.1 4.8-2.7 1.6-3.4 2.7-3.4 5.1v3h134.6l2.7-14.8c4.8-26.5 5.3-31.5 3.8-38.4-3-14.5-10.4-25.8-36.5-55.6-13.4-15.3-16.2-19.1-16.9-22.5-.4-2.3-1.9-10.1-3.3-17.4-2.2-11.2-2.4-13.9-1.5-18.5 2.7-13.2 5-32.5 5.6-45.8.6-13.4-.4-30.9-2.1-36.9-.6-2.2-.5-2.2 1.6-1.1 3.4 1.8 4.1-.1 3.6-10-.4-9.9-2.3-17.4-7-27.3-9.5-20.6-25.8-32.4-38-27.7l-2.6 1V53.9c0-14.2-.5-21.2-3.1-44.2L229.8 0h-7.4c-6.8 0-7.4.2-7.4 2.1m-2 200.1c-.2 3-4.2 15.3-5.2 15.9-1.9 1.2-2.1.5-1.3-6.1.5-4 1.4-6.9 2.6-8.1 1.6-1.6 3.9-2.6 3.9-1.7m-52 59.2c-1.2 3.1-2.5 5.6-2.9 5.6-1.2 0-4.8-4.3-5.5-6.6-.6-1.8.1-2.4 4.6-4.1 2.9-1 5.4-1.6 5.6-1.2.1.3-.7 3.2-1.8 6.3m122.6 52.7c1.6 1.7 6.1 5.5 10.1 8.6 6.5 5 7.1 5.7 6.3 7.9-1.2 3.1-3.7 18.1-4.6 27.2-.4 4-1 7.5-1.5 7.8-.9.5-5-1.5-6.1-3.1-.4-.6-.8-1.8-.8-2.8s-.9-3-1.9-4.5c-2-2.7-3.3-11-4.6-29.7-.3-4.4-.8-9.5-1.1-11.3-.6-4 .4-4.1 4.2-.1m-125.8 9.3c-.2 1.4-1.1 2.2-2.9 2.4-2.2.3-2.7-.2-3.3-2.9-.9-4.8-.8-5.5 1.7-6.6 1.9-.9 2.4-.7 3.5 1.9.7 1.7 1.2 4 1 5.2m48.9 17 .6 6.9-2.6-.7c-4.5-1.1-7.5-2.4-8.2-3.6-.5-.9-.1-1 1.4-.5 1.7.5 2.1.2 2.1-1.6 0-1.2.4-3.8 1-5.8.5-2 1.2-5 1.6-6.6l.6-3 1.5 4c.8 2.2 1.7 7.1 2 10.9m-42.1 15.3c.6 3.9.5 4.1-2.5 4.5-2.9.4-3.1.2-4-4.1-1-4.9-.7-5.7 2.4-6.3 2.4-.5 3.2.7 4.1 5.9M292 370.1c0 1.8-3.5.5-3.8-1.4-.3-1.6-.1-1.7 1.7-.7 1.2.6 2.1 1.5 2.1 2.1m-89.6 1.6c-.8 3.5-1 3.7-2.3 2.8-.7-.4-.5-1.4.5-3.1 2.1-3.1 2.6-3 1.8.3m-37.7 3.5c-.3.8-.6.5-.6-.6-.1-1.1.2-1.7.5-1.3.3.3.4 1.2.1 1.9M293 380c0 .5-.4 1-.9 1-.6 0-1.3-.5-1.6-1-.3-.6.1-1 .9-1 .9 0 1.6.4 1.6 1"/></svg>