<svg xmlns="http://www.w3.org/2000/svg" width="682.667" height="512" version="1.0" viewBox="0 0 512 384"><path d="M0 192v192l119.8-.1 119.7-.1 5.6-6.7c13.5-16 19.9-26.5 34.8-56 8.7-17.3 11.3-21.6 21.3-35.3 3.6-5 4-6 3.1-8.1-1.6-3.4-23.2-28.5-37-42.8-6.5-6.8-14.9-15.6-18.7-19.6-7.3-7.7-8.8-8.5-18.6-10.3-12.5-2.2-22.5-5.8-28.6-10.3-5.6-4.1-15.7-15.4-18.3-20.5-1-1.9-1.5-9.7-1.2-20.7.1-2 3.5-5.7 13.4-14.6 4.8-4.4 5.7-6.5 3.5-8.7-1.8-1.8-.5-2.3 3-1.2 2.8.7 3.6.5 5.8-1.5 3.7-3.5 12.3-7.5 15.8-7.5 9.5 0 20.3 5.6 28.8 14.8 7.9 8.7 13.5 23.3 12.2 31.7-.6 4.2-4.7 11.5-6.4 11.5-3.7 0 1.4 5.2 14.7 14.7 4.3 3.1 11.4 8.8 15.8 12.8 12.8 11.4 20.6 17.6 21.6 17 .5-.4.9-1.7.9-3s.7-3 1.5-3.8c1.3-1.3 1-1.9-2.5-5-9-8.2-8.3-11.9 5.1-30.8 9.6-13.4 12.3-19.7 11.5-26.3-.3-2.8-.9-6.1-1.2-7.2-.4-1.6.4-3.3 2.9-6 4.2-4.8 6.7-9.5 6.7-12.9 0-2.9-3.5-10.3-7.5-15.5-2.1-2.9-2.5-4.2-2-7.2.8-4.4-1.1-5.9-4.8-3.9-3 1.5-11.8 4.1-14.1 4.1-3.5 0-9.4-4.9-11.1-9.2-.9-2.2-4.2-6.8-7.4-10.2-3.2-3.3-6.4-7.7-7-9.7-.8-2.5-2.1-4.1-4-4.9-4.4-1.8-7.7-5.6-6.2-7.3 1.5-1.8.8-2.4-9.4-7.5-4.4-2.3-10-5.5-12.5-7.1-2.5-1.7-5.4-3.1-6.5-3.1-2.7 0-19.6-11.1-21.3-13.9s-12.2-9.5-14.7-9.3c-1.1 0-2.9-.7-4-1.7s-4.5-3.4-7.5-5.4-8.7-6.3-12.7-9.6L175.1 0H0zm503.5-21.6 8 4.5.3-3.6c.2-1.9.2-3.6 0-3.8-.2-.1-3.9-.6-8.3-.9l-8-.7zm-6.5 2.1c0 .5 13.5 8.5 14.4 8.5.3 0 .6-.9.6-1.9 0-1.5-1.7-2.6-6.8-4.5-6.8-2.6-8.2-3-8.2-2.1m-19.6 11.9c-.8.8-.4 1.6 1.3 2.9 2.2 1.8 5.4 6.5 3.6 5.4-2.1-1.3-11.7-4.8-10.8-3.9.6.5 6 4.4 12 8.5 16.7 11.6 17 12 3.5 6.3-6.9-3-12.6-5.3-12.7-5.2-.2.1 1.8 4.9 4.2 10.6 2.5 5.7 6.8 16.6 9.5 24.2 7.6 21.2 7.4 21.2 8 .8.5-15.3.8-18 2.7-21.5 2.1-4 8.3-8.5 11.7-8.5 1.2 0 1.6-1 1.6-4.3v-4.3l-7.7-3.7c-4.3-2.1-10.8-4.4-14.5-5.2-3.7-.9-7.8-1.9-9-2.4-1.5-.5-2.7-.4-3.4.3M360 284c-5.4 5.5-9.2 8.4-13.5 10.4-8.9 4-8.8 3.9-11.2 9.9-3.1 7.7-6.8 13.6-20.3 32.2-17.5 24.1-30 43.5-30 46.6 0 .5 9.9.9 23 .9h23.1l5.6-4.3c9.8-7.4 10.7-8.1 16.3-13.2 17.7-16.2 30.1-30.1 34.4-39 5.9-11.9 5.9-11.8 2.4-16.2-1.6-2.1-4.8-7.4-7-11.8-4-8.1-13.8-23.6-14.8-23.4-.3.1-3.9 3.6-8 7.9"/></svg>