<svg xmlns="http://www.w3.org/2000/svg" width="682.667" height="512" version="1.0" viewBox="0 0 512 384"><path d="M238.5 2.1c-.4 1.2-1.3 1.9-2.3 1.7s-2.4.8-3.4 2.4c-1 1.5-2.2 2.8-2.8 2.8-1.2 0-4 5.3-4 7.8 0 3.8 4 10.8 10.6 18.7 3.7 4.4 7.1 9 7.6 10.2 1.1 2.3-.4 5.9-9.2 22.3-2.5 4.7-5.2 10.4-5.9 12.7-.8 2.4-1.6 4.3-1.9 4.3-.2 0-1.9-1.3-3.7-2.8-2.7-2.4-3-3.2-2.3-5.3 1.4-3.6.1-8.5-3.4-12.4-2.7-3.2-3.5-3.5-8.2-3.5-3.1 0-6.1.6-7.4 1.6l-2.2 1.5 2 1.7c2.9 2.3 4.1 12.8 1.6 13.8-2 .8-2.1 4.8-.1 6.8 3.6 3.6.8 7.5-10.4 14.1-3.5 2.1-7.4 5.4-8.7 7.4-14.4 21.5-15.2 22.8-11.7 20 1.5-1.3 1.6-1.2.8.6-.4 1.1-.9 3-.9 4.2-.1 1.1-.4 1.9-.8 1.6-1.1-.6-1 .9.2 2.7.9 1.3 1 1.3 1.1 0 0-.8.8 1.2 1.8 4.5 2.3 8.2 8.3 17.1 9.5 14.2.3-.8.5-.8.5.2.1 1.1.4 1.1 1.6.1 1.3-1 1.9-.9 3.6.6 2.7 2.5 2 5.5-1.8 7.9-3.5 2.2-5.3 5.7-3.4 6.3 2.6.9 6.4 4.9 5.7 6-1.4 2.3-5.1 1.3-6.9-1.7-2.6-4.4-9.1-10.7-14.1-13.6-6.7-3.9-17.6-5.9-25.2-4.5-9.4 1.6-13.3 3.6-20.1 10.6-3.4 3.5-7.3 6.6-8.6 7-1.6.3-4.2-.3-7.3-1.9-6.9-3.5-18.3-6.7-23.8-6.7-6.6 0-20.9 3.7-28.3 7.2-3.4 1.7-9.2 5.9-13 9.3-11 10-15.2 19.5-15.8 36-.6 14.8 2.7 26.4 11.1 39.5 10.7 16.7 23.4 24 41.9 24 12.3 0 29.4-6.1 36.9-13.1l3.1-2.9.7 4.3c.4 2.3 1.2 4.3 1.7 4.5s.6 1.5.2 3c-1 3.6.6 8.2 2.9 8.2 1.2 0 2.2-1.2 3.1-3.7 1.7-5.4 1.8-5.5 4.1-3.3 1.2 1.1 2.8 2 3.6 2 1.1 0 1.3 1 .7 4.7-.4 2.6-1.3 5.6-2.1 6.7-2 2.9-2 19.9.1 21.6 2.2 1.8 2 11.8-.2 14.2-1.6 1.8-1.6 2.4.1 9.6 1 4.2 1.8 10.6 1.7 14.1-.2 6.4 2.1 15.4 4.4 17.8.7.7 1.6 2.9 2 5 .4 2 1.3 5 2.1 6.5 1.3 2.6 1.9 2.8 7.4 2.8 5.6 0 6-.2 6.6-2.6.4-1.5-.2-5.9-1.5-10.6-1.5-5.7-1.8-8.5-1.1-9.8 1.6-3 1.2-7.6-1.5-15.2-1.4-3.9-2.5-8-2.5-9 0-1.8 7.3-7.8 9.4-7.8.6 0 2.8-1.1 4.8-2.5 4-2.7 9.2-5 8.4-3.7-.2.4-3.4 2.8-7 5.2-3.6 2.5-6.6 4.8-6.6 5.2 0 .8 10.8-3.8 12.8-5.4 1.5-1.3 1.6.4 0 2-.7.7-.8 1.2-.2 1.2.5 0 3-2.7 5.4-6 2.5-3.3 5.1-6 5.8-6 1.2 0 1.7-1.4 1.2-3.5-.1-.6.2-.7.5-.3.4.4 1.6-.3 2.7-1.5l1.9-2.2-1.2 2.5c-1.8 3.8-5.1 8.2-5.6 7.6-.3-.3-1.8 1.1-3.3 3.2-3.6 4.7-8.3 10.1-7.5 8.4.3-.6.1-1.2-.5-1.2s-1.4 1-1.9 2.3-3.3 4.5-6.3 7.2l-5.3 4.8 5.3-.7c2.9-.4 6-1 6.9-1.3 1.1-.4 1.4-.3.9.5-.9 1.5-.1 1.5 2.4.2 1.6-.8 1.8-.8 1.4.5-1 2.5.4 1.7 4.5-2.5 3.5-3.6 6-5.3 4.7-3.2-.3.5-.8 2.4-1 4.3l-.6 3.4 1.8-3.3c1-1.8 2-3 2.4-2.7.3.3 1.1-.9 1.8-2.7.8-1.8 1.9-4.2 2.6-5.2 1.2-1.8 1.3-1.8 1.1.3-.1 1.1-.5 2.1-1 2.1-.4 0-.5.5-.2 1 .3.6.1 1-.4 1-.6 0-1.1.6-1.1 1.4s-2.1 5.8-4.6 11.3c-10.3 22-10.2 21.9-8.3 20.7.8-.4.9 0 .4 1.5-1.2 4 .4 2.1 2.6-2.8 1.1-2.7 2.9-5.7 4-6.7 1.8-1.6 1.9-1.6 1.9.7 0 1.3-1.1 6.3-2.4 11.1-1.3 4.9-2.1 8.8-1.7 8.8.3-.1 2.6-3.1 5-6.8s4.1-5.8 3.7-4.8c-.5 1.6-.4 1.7.9.6 2.8-2.3 1.5.6-1.5 3.5-1.6 1.6-3 3.9-3 5.2v2.3h140.5l3.9-16.3c7.4-30.3 7.8-34.6 4.6-44.4-3.4-10.5-9.9-20.8-20-31.8-2.6-2.8-10-10.9-16.5-18-6.5-7.2-13.7-15-16.1-17.5-4.2-4.5-4.2-4.6-5.3-15-1.4-13.1-2.5-17.1-5.6-20.9l-2.5-2.9 5.4-12.4c9.1-20.6 13.8-38.6 15.2-58.1l.7-8.8 2.2 2.1c1.2 1.1 2.7 2 3.3 2 2.6 0 4.6-10.9 4.4-23.7-.3-18.6-10.8-41.4-21.5-46.9-3.2-1.7-10.8-2.3-14.8-1.2l-2.7.8 2.4-9.3c3.1-12.4 9.3-52.3 9.4-61 0-.4-3.8-.7-8.5-.7H259l-.6 3c-.7 3.1-1.9 3.9-2.7 1.7-.3-.6-1.4.9-2.5 3.4-2.3 5.3-4.2 7.1-4.2 4 0-1.2-.5-2-1.1-1.9-.6.2-2-2.1-3.1-5-2.2-5.6-5.1-7-6.3-3.1M193 194.7c0 2-.3 2.4-1.1 1.6-.7-.7-.9-1.9-.6-2.7 1-2.4 1.7-1.9 1.7 1.1m-7 32.4c-1.2 4.5-5.2 13.1-10.3 22.3-4.6 8.3-8.6 15.9-9 16.9s-1.1 1.5-1.7 1.2c-1.6-1-1.2-2.7 1.2-5.2 1.8-1.9 1.9-2.3.5-2.3-3.1 0-12.2-10.5-12.8-14.9-.4-2.1.2-2.5 4.8-3.7 2.9-.8 7.2-2.3 9.4-3.5 5.2-2.6 13.4-10.1 16.6-15.2 1.3-2.2 2.7-3.7 2.9-3.4.3.2-.4 3.7-1.6 7.8m-38.2 67.4c-.3.3-.9-.2-1.2-1.2-.6-1.4-.5-1.5.5-.6.7.7 1 1.5.7 1.8m2.5 4.4c1.3 2.5 1.3 3.8.1 8.8-.8 3.2-1.4 8.5-1.4 11.8-.1 10.2-2.1 10.9-3.5 1.2-.6-3.6-.4-5 .9-6.2 1.2-1.3 1.6-3.7 1.6-10.1 0-4.6.2-8.4.4-8.4.3 0 1.1 1.3 1.9 2.9m-6.3 4.4v5.4l-3-.5c-2.8-.4-3-.7-3-4.7 0-3.3.4-4.5 1.8-4.8 4-1.1 4.2-.8 4.2 4.6m158.8 18.5c2.8 1.9 5.2 4 5.2 4.6s-.7 3.3-1.5 5.9c-.8 2.7-2.8 12.3-4.5 21.4-1.7 9.2-3.3 16.9-3.6 17.2s-1.1-.1-1.7-1c-.7-.9-3.1-2.8-5.4-4.2-3-1.9-4.3-3.5-4.8-5.9-.4-1.8-1.5-4-2.5-5-1.4-1.3-1.9-5-2.9-22.5-.6-11.4-1.3-22.9-1.6-25.6l-.4-4.7 9.2 8.1c5.1 4.5 11.6 9.8 14.5 11.7M145 334c0 1.7-3 7-3.9 7-1 0-1.9-5-1.3-6.8.5-1.5 5.2-1.6 5.2-.2m9.9 41.1c.1 1.1-.9 1.8-2.9 2.1-3.1.5-3.2.3-4.5-5.9-.6-2.9-.4-3.2 2.2-3.5 2.3-.2 3 .2 4 2.7.6 1.6 1.2 3.7 1.2 4.6m135.5-6.5c.9.3 1.6 1.2 1.6 2 0 2.1-2.8 1.7-4-.6-1.1-2.1-.4-2.5 2.4-1.4m.6 9.9c.7.9 1 1.8.7 2.2-.8.7-3.7-1.5-3.7-2.8 0-1.4 1.6-1.1 3 .6"/></svg>