<svg xmlns="http://www.w3.org/2000/svg" width="682.667" height="512" version="1.0" viewBox="0 0 512 384"><path d="M353.4 8.5c-4.2 4.7-8.3 8.5-8.9 8.5-.7 0-3.6 2.7-6.4 6-4.9 5.6-7.9 7.1-6.4 3.4 1.1-2.8-3 .1-7 5-4.6 5.6-5.8 8.5-6.7 16.6l-.8 6.5-16.5 16c-9 8.8-17.6 17.5-19 19.4-1.7 2.3-3 3.2-4.1 2.8-1.6-.6-1.6-.9 0-3.8 2.1-4.2 1.4-11.4-1.4-14.2-2.8-2.7-11.9-3.7-12.8-1.3-.3.9-.1 2.3.6 3.1 1.7 2-.1 5.6-5.2 10.7-2.9 2.9-4.6 3.8-7.1 3.8-5.8 0-13.4 2.6-20.7 7.1-4 2.4-8.2 4.9-9.4 5.6s-3 2.1-4 3.2c-1.7 1.9-1.7 1.9.6 1.4 2.1-.5 2-.2-1.1 3.1-1.9 2-3.1 3.6-2.6 3.6s-.2 1.2-1.6 2.7c-2.2 2.5-2.2 2.6-.1.9 2.9-2.5 3.5-1.8 1.7 1.8-3.4 6.5-.3 20.8 4.1 19.2 1.3-.5 3.8 5 2.9 6.4-.3.5-2.3 1.3-4.4 1.6-6.2 1-6.6 1.6-4 6.1 1.4 2.5 2 4.6 1.5 5.8-.6 1.6-.9 1.7-2 .4-.8-.8-2.1-3.7-3-6.5-4.9-15.1-18.1-25.2-35.3-27.1-6.3-.7-15.3 2.2-22.3 7.2-4.1 2.9-4.8 3.1-7.9 2-1.8-.6-4.8-2.5-6.6-4.2-4.8-4.5-12.4-9.8-16.8-11.7-2.1-.9-7.8-2.3-12.5-3.2-18.6-3.5-37.8 2.3-50 15-8.9 9.3-13.3 19.2-15.2 34.3-1.8 14.2 1.6 31 8.5 42.8 6.1 10.3 17.7 18.4 30.4 21.1 12.6 2.6 28.8 1.1 38-3.6l4.2-2.1-1.6 3.1c-1 2-1.4 4.2-1 6 .3 1.6.1 3.9-.5 5-.7 1.2-.9 3.3-.6 4.6.9 3.5 4.2 3.1 6.2-.9 1-1.7 1.9-2.6 2.1-2 .3.7 1 1.3 1.8 1.3.7 0 1.8.7 2.5 1.5s2.1 1.5 3 1.5c2 0 2.4 1.1 4 13.2 1 8.3.3 14.5-2.5 21.2-.9 2.2-2 8.8-2.5 14.7-.5 7.5-1.4 12.1-2.8 15.1-3.7 7.7-4.4 10.2-5.2 19.6-.6 6.8-1.5 10.7-3.4 14.5-5 10.1-7.1 19.6-4.7 21.1.5.3.2 3.4-.6 6.8l-2 10-.6 3.7h7.8c6.8 0 7.6-.2 6.8-1.7-1.5-3-.6-14.5 1.6-21.1 1.1-3.5 2.1-8.9 2.1-11.8 0-6.9 1.8-14.2 4.1-16.8 2.5-2.8 5.2-14.1 4.6-19.3-.5-4.6 1.4-12.5 3.7-15.1.7-.9 1.7-2.6 2.1-3.9.5-1.7 1.1-2.1 2.3-1.6 7.5 3.1 9.7 3.5 14.1 2.4 6.6-1.7 13.8-5.3 24.7-12.5 5.4-3.6 9.8-6.5 10-6.5.6 0-2.7 27.1-3.6 29.4-.4 1.2-.7 2.4-.6 2.7 0 .4-.8 1.7-1.9 2.9l-2 2.3 2.3-.7c1.9-.6 2.2-.4 2.2 1.9 0 3.6-4.9 5.5-14.7 5.6-5.3 0-7.2.3-5.8.9 1.6.7 1.2.9-2 1-5.4.1-3 1.4 5.9 3.2l6.8 1.4-5 2.6c-2.7 1.4-6.8 2.9-9.1 3.3-4.7.8-5.2 2.9-1.3 5.6 2.5 1.8 2 2.6-3.3 4.8-2.6 1.1-14.4 13.5-15.3 16-.1.5 1.1 1.1 2.8 1.4 2.4.5 3 1.2 3 3.2s.4 2.5 1.8 2.1c.9-.3 4.4-.8 7.7-1.1 3.3-.4 6.9-.9 8-1.1 1.6-.4 1.3.1-1 2-3.2 2.8-1.5 3.7 1.9 1.1 4.5-3.4 4.8-.7.5 5-1.7 2.2-2.5 4.1-1.9 4.3.8.3.7.8-.1 1.8-1 1.3-.7 1.4 2.2.9 1.8-.3 3.9-1.1 4.6-1.7 2.1-1.7 1.5.1-1.3 3.8l-2.6 3.4h116.5l-2.2-2.4c-1.4-1.5-1.8-2.6-1.2-3 1.1-.7 5.1 2.7 5.1 4.4 0 .6 7.6 1 20.8 1h20.9l2.5-5.7c4.8-10.8 11.6-27.8 13.7-34.2 4-12.2 1.7-24.6-6.9-37.3-5-7.3-5.2-7.4-32.7-36.9L293 247.1V242c0-4.4.8-6.6 4.9-13.9 8.7-15.5 19.8-41.4 24.7-57.4 2.9-9.6 3.2-10.1 5-8.6 1.1.9 1.4.8 1.4-.2 0-.8 1 .1 2.1 1.8 1.2 1.8 2.7 3.3 3.4 3.3 1.9 0 5.7-5.1 5.1-6.7-.3-.7 0-1.3.7-1.3s1.8-1.2 2.4-2.8c.7-1.5 1.7-3.4 2.2-4.2 1.2-1.9 4.1-11.2 5.3-17 2.6-12.4 1.5-31.3-2-37.5-3.8-6.5-15.6-9.3-23.7-5.6-3.7 1.7-9.1 6.7-11.3 10.7-.5.9-1.5 1.5-2.1 1.3-1.2-.4 0-2.2 16.2-24.5 4.1-5.6 10.7-15.7 14.7-22.5 4.5-7.6 9.2-14 12.2-16.8 2.6-2.4 4.8-4.7 4.8-5.1s-.8-1.1-1.9-1.6c-2-1-2.7.6 12-26.2l4-7.2h-11.9zM216 179.7c0 2 .7 4.4 1.5 5.3 1.2 1.3 1.3 2.3.6 4.3-1.5 3.8-5.9 27.2-6.6 35.1-.9 9.1-2.6 11.3-15.5 19.3-5.8 3.6-13.9 8.9-18.1 11.9l-7.6 5.3-1.1-3.7c-.5-2-1.8-7.2-2.8-11.5l-1.8-7.8 2.9-2.3c2.8-2.3 2.8-2.3.8-3.4-3.4-1.9-9.4-19.2-6.7-19.2 18.4-.4 18.9-.5 25.7-3.7 12-5.7 22-17.4 24.2-28.3.9-4.4 1.3-5 3.1-5 1 0 1.4 1.1 1.4 3.7M144.5 284c2.3 4.4 1.2 7.5-2.6 7.5-3 0-3.1 0-2.4-4.5 1.1-7.1 2.5-7.9 5-3m169.4 33.9c11.4 8.3 10.7 6 5.7 19.1-2.4 6.3-6.1 16.8-8.2 23.2l-3.8 11.8h-3.3c-2.2 0-4.8-1.1-7.9-3.5-2.5-1.9-4.9-3.5-5.4-3.5s-1.2-1.5-1.5-3.2c-.4-1.8-1.6-4.2-2.6-5.3-3.8-4.2-5-42.4-1.8-57.7l1.2-5.7 10.6 10c5.8 5.6 13.5 12.2 17 14.8m-173.5-15.7c-.3 1.8-1 4.2-1.5 5.3-.6 1.7-.8 1.5-.8-1-.1-4 .9-7.5 2.1-7.5.6 0 .7 1.3.2 3.2m-1.8 15c.3.3 0 2.4-.6 4.7-1 3.6-1.4 4.1-4 4.1-3.3 0-3.5-.7-2-6.2.9-3.1 1.4-3.6 3.5-3.4 1.4.2 2.8.5 3.1.8m56.9 8.8c-.3.5-1.2 1-1.8 1-.7 0-.6-.4.3-1 1.9-1.2 2.3-1.2 1.5 0m-4.5 1.7c-.8.3-2.4 1-3.5 1.5-2 .9-2 .9-.1-.6 1.1-.9 2.7-1.6 3.5-1.5 1.4 0 1.4.1.1.6m-59.5 10.7c-.4 2-1.2 3.6-1.7 3.6-.9 0-.2-5.4.9-7.3 1-1.7 1.4.2.8 3.7m-1.5 14.3c0 3.7-.9 4.8-4.8 6.1-3 1-3.3.9-2.8-.6.3-.9.8-2.9 1.1-4.4.6-2.4 1.3-2.9 5.8-3.7.4 0 .7 1.1.7 2.6m-5 17.6c0 1.2-.5 2.9-1 3.7-.7 1.1-1 .3-1-2.8 0-2.6.4-4.1 1-3.7.6.3 1 1.6 1 2.8m168.9-.4c1.3.8.8 3.1-.7 3.1-1.7-.1-3.4-1.9-2.8-2.9.9-1.3 1.6-1.4 3.5-.2"/></svg>