<svg xmlns="http://www.w3.org/2000/svg" width="682.667" height="512" version="1.0" viewBox="0 0 512 384"><path d="M404.5 6.7c-4.4 1.2-20.8 14.7-32.8 27.2-3.4 3.5-8.7 8.7-11.7 11.5-6.9 6.5-12 11.8-14.5 15.1-1.1 1.5-9 7.9-17.5 14.3s-18.3 14.3-21.7 17.5c-4 3.8-6.8 5.7-7.8 5.4-1.2-.5-1.3-1.2-.5-3.2 1.7-4.4 1.1-8.2-1.6-11.4-2.1-2.6-3.3-3.1-6.8-3.1-5.1 0-5.8.5-4.4 3.5.7 1.7.6 3-.6 5.4-.9 1.7-1.8 3.1-1.9 3.2-.1 0-5.4.4-11.7.8-11.2.8-11.8.9-22.7 6.2-6.2 2.9-11.3 5.7-11.3 6.2s1 .6 2.3.2c1.9-.5 1.8-.3-.8 2-7 6.1-8.6 7.8-8.1 8.3.3.3 1.2-.1 2.1-.8 2.2-1.8 3.2-.4 1.2 1.7-2.3 2.7-4 10.7-3.3 15.7.8 4.9 3.1 6.7 4.3 3.3.6-1.8.9-1.2 1.4 2.8.3 2.7.6 5.1.5 5.2s-2.5.6-5.4 1.1c-4.6.8-5.4.7-5.9-.7-3.5-10.3-8-16.4-16.2-22-11.1-7.6-21.7-9.1-33-4.6-8.7 3.4-11.2 2.7-16.1-4.4-4.5-6.6-7.4-9.4-15.4-15-14.8-10.3-39.2-11.8-56.2-3.5-26.5 12.9-38.7 54.5-24.7 84.2 5.2 11.2 18.9 21.2 33.4 24.7 8.1 1.9 20.8 1.9 27.9.1 3-.8 5.7-1.3 5.9-1.1s-1 2.1-2.6 4.2c-4.3 5.5-4.6 6.2-3.4 7.7.8 1 .6 2-1 4-2.9 3.7-3.1 9-.3 9.4 1.4.2 2.8-.8 4.5-3.2 2.8-4.1 3.9-4.4 6.5-1.5 1.7 1.9 1.8 2.1.1 3-2 1.2-2.2 2.9-.3 2.9.7 0 2.1 1.1 3 2.5 1 1.5 2.2 2.2 3.1 1.9.8-.4 1.5-.2 1.5.4 0 2.4 3.1 29.2 4 34.2.5 3 .9 8.2.8 11.4 0 4.6.3 6.2 1.7 7.2 1.5 1.1 1.6 1.8.5 6.3-.7 3.2-2 5.5-3.4 6.5-4.1 2.6-7.3 20-4.2 22.5 2.1 1.8-.4 8.3-4.8 12.4-4.5 4.3-8.5 16.6-6.6 20.2 1 1.9 1 3.1-.3 6.2-.8 2.2-2.3 4-3.3 4.2-4 .7-9.2 8.4-10.9 15.8l-.7 3.3h5.6c4.3 0 5.6-.3 5.6-1.5 0-1.8-3.1-2-4.8-.3-1.9 1.9-1.5-1 .8-6.1 1.7-3.6 2.3-4.1 3.4-3.1 1.1.8 2 .9 3.5 0 2.7-1.4 2.7 0 .1 5.9-2.4 5.3-2.4 5.1 0 5.1 1.5 0 2.8-1.4 4.5-5.3 2.8-5.8 3-7.9 1.4-10.5-1.8-2.8 2.1-9.8 5.8-10.5 3.3-.7 5.4-4.3 7.8-13.8 1.6-5.9 1.6-6.2-.4-8.3s-2-2.3-.3-6.9c1.2-3.4 2.4-4.9 4.1-5.4 3.1-.8 5.1-5.8 5.8-14.4.5-5.7.3-7.3-1.2-8.9-1.4-1.5-1.6-2.9-1-6.9.6-4.3 1.1-5.3 4.1-7.1 2-1.1 5-2 6.9-2 4 0 16.9-4.4 28.9-10 4.9-2.2 9.1-4 9.6-4 .4 0 .1 2.8-.7 6.2-1.9 7.9-1.2 18 2.2 34.8 1.4 6.9 3.1 19.8 3.7 28.7 1 14.3.9 16.5-.4 18-.9 1-1.8 3.4-2.2 5.3-.3 1.9-1.8 4.6-3.1 5.9-1.4 1.3-2.5 3-2.5 3.8s-1.8 3.1-4 5c-2.2 2-4 4.2-4 4.8 0 1.5 6.3 1.6 7.2.1.5-.8.8-.7.8.1 0 1 10.1 1.3 47.2 1.3 45.6 0 47.1-.1 45.5-1.8-1-1-1.7-2.5-1.7-3.3s1.3-.1 3 1.8l3 3.3h42.9l1.9-2.8c2.9-4.1 15.7-29.3 18.6-36.6 3.3-8.2 3.3-14.9.1-24.1-3.6-10.2-9.1-17.4-31.9-42.2L310.2 256l3-7.2c3.9-9.7 25.8-75 25.8-77.1 0-2 .9-2.1 3.1-.4.9.7 1.4 1.9 1.1 2.7s-.1 1.2.3.8 1.6.4 2.7 1.7c1.1 1.4 2.5 2.5 3.2 2.5 1.8 0 5.7-4.5 5.4-6.1-.2-.8.3-1.3 1-1.1.7.1 1.7-.9 2.2-2.2s1.3-2.7 1.9-3c.6-.4 1.8-2.4 2.7-4.4s2.5-5.3 3.5-7.3 1.9-4.4 1.9-5.3c0-1 .7-3.1 1.6-4.8s1.7-4.8 1.9-6.9c.1-2.2.8-4.5 1.4-5.3 1.6-1.9.7-16.2-1.3-20.9-2-4.8-8-7.8-16.7-8.5-7.5-.5-12.8 1.6-19 7.5-2.9 2.8-4.1 3.3-6.3 2.7l-2.6-.6 3.1-3.7c1.7-2 7.8-8.6 13.4-14.6 5.6-6.1 11.4-12.4 12.9-14.2l2.6-3.1 4.7 1.4c5.8 1.8 10.2.7 16.1-4 2.4-1.9 6.5-4.2 9.2-5.1 7.5-2.5 8.1-3.8 3.5-8.5-2.2-2.2-4.2-4-4.6-4s-2.4-.7-4.5-1.6l-3.9-1.6 5.8-2.9c5.8-3 7.2-5.3 3.8-6.4-4.6-1.4-4.5-3 1-11.2 2.9-4.3 8.3-11.9 12-17 3.7-5 6.5-9.4 6.2-9.7-.7-.6-.7-.6-3.8.1M229 153.6c0 3.6-1.7 3.7-2.4.3-.3-1.8-.6-3.9-.6-4.8.1-2.6 3 1.8 3 4.5m-1.7 23.6c.3 2.3 1 4.4 1.5 4.6.5.1 1.7.9 2.7 1.6 1.7 1.2 1.6 1.8-1.4 11.7-1.7 5.7-4.4 15.6-6.1 21.9-2.3 8.8-3.6 12-5.7 14.1-1.6 1.5-8.1 5-14.6 7.8-6.4 2.7-15.6 7-20.4 9.5-6.1 3.2-8.9 4.2-9.4 3.4-.4-.7-1.7-6.3-2.9-12.6l-2.2-11.5 3.1-2.4 3.1-2.4-2.8-2.4c-3.7-3.1-6.5-12-5.7-17.9l.7-4.3 4.9 1.8c8.6 3.3 21.2 1.8 32.2-3.8 6.8-3.4 14.7-11.5 18.1-18.5 1.6-3.2 3.2-5.6 3.6-5.3.4.2 1 2.4 1.3 4.7M153 281.1c0 .5-.4.9-1 .9-.5 0-1-.7-1-1.6 0-.8.5-1.2 1-.9.6.3 1 1 1 1.6m174.2 41.2 5.7 4-2.2 4.1c-1.1 2.3-5.5 11.7-9.7 21.1-7.4 16.4-7.7 17-10.7 17.3-2.6.3-3.3.9-3.8 3.3l-.7 2.9-4.6-3.8c-2.6-2.2-5.7-4.4-6.9-5-1.2-.7-2.4-2.5-2.8-4.1-.3-1.7-1.6-4.2-2.7-5.7-1.9-2.4-2.2-4.3-2.6-19.8-.3-12.5-.1-17.9.8-19.5 1.9-3.7 2.9-1.1 1.9 5.3-.6 3.3-.8 6.7-.6 7.5.4 2 7.8-12.4 10.2-19.9 3.3-10.1 2.5-10.1 13.3-.4 5.3 4.8 12.3 10.5 15.4 12.7m-173.6-15.1c-.9 7-1.8 9.7-3.1 9.1-.8-.2-2.3.1-3.6.7-2.1 1.2-2.1 1.1-1.5-3.6 1.1-7.4 1.6-8.5 3.4-8 .9.3 2.4.1 3.2-.4 2.1-1.4 2.1-1.4 1.6 2.2m-9.7 34.8c-.2 3.7-2.6 8.4-4.5 8.5-1 .1-2.4.4-3 .6-1.5.5-1.7-.4-.9-4.4 1.1-5.1 2.1-6.2 5.4-6.2q3.15 0 3 1.5m152.7 29.2c.4.5.2 1.4-.4 2-.9.9-4.2-1.5-4.2-3.2 0-1.1 3.8-.1 4.6 1.2m-90.5 5.1c-1.8 1.8-2.5-.1-1.1-3l1.4-2.8.4 2.4c.2 1.3-.1 2.8-.7 3.4M301 378c0 .5-.2 1-.4 1-.3 0-.8-.5-1.1-1-.3-.6-.1-1 .4-1 .6 0 1.1.4 1.1 1"/></svg>