<svg xmlns="http://www.w3.org/2000/svg" width="682.667" height="512" version="1.0" viewBox="0 0 512 384"><path d="M408.8 10.4c-6.3 3.3-19.5 14.5-33.5 28.3-24.7 24.4-30.7 29.8-44.1 39.1-7 5-15.7 11.8-19.4 15.2-5.1 4.6-7.3 6-8.7 5.5-1.7-.5-1.9-1-1.1-3.1.6-1.4 1-3.9 1-5.5 0-4-4.8-8.9-8.7-8.9-3.5 0-6.3 1.7-4.6 2.8.8.5.8 1.7-.2 4.5-.7 2.1-1.6 4.2-2 4.5-.4.4-5.2.7-10.8.8-10.9.1-15.1 1.2-27.4 7.3-3.4 1.7-6.6 3.1-7.2 3.1-.5 0-1.3.5-1.7 1.1-.4.8.4.9 2.7.5l3.4-.7-2.5 2c-8.1 6.7-10 8.4-9.6 8.9.3.3 1.2-.1 2.1-.8 2.5-2 2.8-.6.6 3.1-2.7 4.7-3.4 10.7-2 16.2 1.1 4.6 1.1 4.6 2.8 2.5s1.8-2 1.9 2.5c.2 3.2-.2 4.7-1 4.8-9 .8-8.7.9-9.9-3.5-2.5-9.5-11.8-20-22.2-25-5.3-2.6-6.4-2.8-15-2.4-5.9.3-10.3 1-12.4 2.1-2.8 1.5-3.5 1.5-6.7.2-2.1-.9-4.2-2.8-5.2-4.8-8.9-17.4-28.5-28.7-49.9-28.7-29.1.1-49.8 21.2-54.5 55.5-2.3 17.3 2.9 34.8 13.5 44.9 6.1 5.9 17 11.8 26 14.1 7.3 1.9 19.1 1.9 26.7.1 3.2-.7 5.8-1.1 5.8-.8s-2 2.9-4.5 5.8c-4.5 5.2-5.4 7.7-3.4 9 .6.4.7.9.2 1.3-1.9 1.3-6.3 7.8-6.3 9.3 0 .9.7 2.2 1.6 2.9 1.5 1.2 2.1.8 5.3-2.9 4-4.6 5.9-5.2 8.4-2.4 2.3 2.5 2.1 3.7-.5 5.5l-2.3 1.6 2.2.7c1.2.3 2.5 1.4 2.8 2.3.2.9 1.5 2.1 2.7 2.6 2 .9 2.4 2.3 3.9 16 .9 8.2 2.2 17 2.9 19.5.6 2.5 1.6 7.2 2.2 10.5.5 3.2 1.7 6.4 2.5 7.1 2.6 1.8 1.2 10.1-2.1 12.8-1.9 1.5-3 4-4.1 8.9-1.5 6.7-1.2 13.7.6 13.7 2.7 0-.5 10.8-3.6 12.2-3 1.3-5.2 6-6.9 14.1-1.2 5.4-1.1 6.4.2 7.9 1.2 1.5 1.3 2.2.2 5-1.8 4.5-2.9 5.8-5.1 5.8-1 0-2.9 1.5-4.3 3.2-2.3 3.1-6.6 12.7-6.6 14.8 0 .6 3.7 1 8.6.9l8.6-.1 2.4-5.1c2.8-6.1 3-8.4.9-10.8-1.4-1.5-1.4-2.1.7-6.3 1.8-3.9 2.6-4.6 5.1-4.6 3.3 0 5-3.3 7.3-13.9 1.2-6.2 1.2-6.7-.7-8.7-1.8-1.9-1.9-2.5-.7-6.9 1-3.9 1.9-5.1 4.4-6.1 2.7-1.1 3.3-2 4.3-7 1.8-9.1 1.5-15.1-.9-16.4-2.1-1.1-2.5-3.5-1.4-8.8.7-3.6 5.2-6.7 11.1-7.7 2.1-.4 5.4-1.1 7.3-1.7 5.1-1.5 26.3-10 27.5-11 2-1.7 2.3-.6 1 3.7-3.2 10.6-2.9 17.4 2 44.5 2.4 12.8 3.6 39.1 2 41-.8.8-1.7 2.8-2.1 4.5-.3 1.6-1.5 3.9-2.5 5s-2.5 3.7-3.4 5.8c-.8 2-1.9 3.7-2.4 3.7-1.1 0-6.1 5-6.1 6.1 0 .5 23 .9 51.1.9 45.1 0 51-.1 49.9-1.5-2.4-2.9-.4-4.1 2.2-1.2l2.5 2.7h44.1l6.7-11.6c3.7-6.4 8.9-16.2 11.6-21.7 4.4-8.9 4.9-10.7 4.9-16.7 0-3.6-.7-9.1-1.6-12.1-2.7-9.1-12.6-22.8-27-37.5-3.2-3.3-9-9.4-12.7-13.6l-6.8-7.6.7-5.4c1.1-9 22.7-85.2 24.7-87.3.6-.7.8-.3.5 1-.5 2 1.4 4.9 2.5 3.9.2-.3.7.6 1.1 2 .3 1.4 1.6 3 2.7 3.7 1.7.9 2.5.7 4.5-1.2 1.3-1.2 2.4-3 2.4-4 0-.9.9-1.9 2.1-2.2s1.8-1 1.4-1.7c-.4-.6.4-1.9 1.7-2.9s2.9-3.6 3.7-5.7c.8-2.2 2.2-5.1 3.2-6.6 1.1-1.4 1.9-3.4 1.9-4.5 0-1 .7-3.1 1.5-4.7s1.8-4.7 2.1-7c.4-2.2 1.1-4.7 1.7-5.3.5-.8.8-5.4.5-10.8-.5-11.7-1.9-14-10.4-17.2-10.3-3.8-17.7-2.4-26.9 5.2-3 2.4-4.8 3.2-6.4 2.8-1.1-.3-2.1-.9-2.1-1.3 0-.5 5.1-6.2 11.3-12.7 6.1-6.5 13.1-14 15.4-16.7l4.3-4.8 3.7 1.7c7.1 3.4 11.1 3.1 17.9-1.3 3.3-2.1 8.4-4.7 11.2-5.6 2.8-1 5.4-2.2 5.8-2.7 1-1.6-2.1-5.3-7.5-9-2.8-1.8-5.1-3.7-5.1-4 0-.4 1.8-1.4 3.9-2.2 2.2-.9 4.3-2.2 4.7-2.8.9-1.5-4-5.9-6.6-5.9-1 0-2.1-.4-2.4-.8-.5-.8 19.1-28.9 23.6-33.7 1.5-1.7 2.8-3.3 2.8-3.8 0-1.2-3.3-.8-6.2.7M233 153.6c0 1.7-2 2.9-2.1 1.2 0-.7-.2-2.4-.5-3.8-.4-2.4-.3-2.4 1.1-.6.8 1.1 1.5 2.5 1.5 3.2m-2.5 22.5c0 3.9 1.6 6.5 4.6 7.4 2.5.8 2.4 1.8-1.1 12.7-1.6 5.1-4.5 14.5-6.5 20.9-4.2 14-4.3 14.1-24 22-7.7 3.1-17.2 7.2-21.1 9.2l-7.2 3.6-1.2-6.7c-.6-3.7-1.9-9.6-2.7-13.1-.9-3.7-1.2-6.6-.6-7 .5-.3 2-1.4 3.2-2.3l2.4-1.7-2.8-2.4c-3.2-2.7-7-15.3-5.3-17.4.6-.7.8-1.9.5-2.6-1.2-3.3.9-3.8 6.2-1.7 8.7 3.4 21.2 2.4 31.9-2.7 6.9-3.2 16.1-12.2 18.7-18.1 2.4-5.3 5-5.4 5-.1M158 307.8c0 5.5-1 7.5-3.2 6.7-.9-.4-1.9-.1-2.3.4-1.1 1.8-2.5.2-2.5-2.8 0-5.5 1.8-8.6 5-8.8 2.9-.2 3-.1 3 4.5m144.8 9.8-.4 3.4 2.4-2.7 2.3-2.8-.6 7.7c-.3 4.6-.2 7.9.4 8.3.6.3 2.4-3.9 4.2-9.7 1.8-5.7 3.3-10.4 3.5-10.6.1-.2 3.7 2.5 8.1 6 4.3 3.5 8.9 7 10.1 7.8l2.4 1.5-7.4 15c-4.1 8.3-8.5 17.6-9.9 20.7-2.3 5.6-2.5 5.8-6.1 5.8-3.9 0-4.4.8-3.9 6.3.3 2.6-1.2 2.1-5-1.9-1.8-2-4.6-4.2-6.1-5-3.4-1.7-3.4-2.5-.9-17.6 5.7-34.2 6.6-39.1 6.9-37.4.2 1 .2 3.4 0 5.2M150 340.8c0 .9-.6 3.6-1.3 5.9-1 3.2-1.6 4-2.7 3.3-.8-.5-2.2-.5-3.3.1-1.7 1-1.8.7-1.1-2.8 1.2-6.7 1.9-7.8 5.3-8 2.3-.2 3.1.2 3.1 1.5m146.7 30c.7.5.9 1.3.3 2.2-.7 1.1-1.1 1.1-2.4.1-2.9-2.4-1.1-4.3 2.1-2.3m-89.6 5.5c-1.8 1.8-2.5-.1-1.1-3l1.4-2.8.4 2.4c.2 1.3-.1 2.8-.7 3.4m-70.1-1.9c-.1 2.5-3.6 8.6-4.6 7.7-.5-.5-1.9-1.1-3.1-1.3l-2.2-.3 1.8-4.1c1.7-3.7 2.1-4 5-3.6 1.7.2 3.1.9 3.1 1.6m165 4.7c0 .6-.4.7-1 .4-.5-.3-1-1.1-1-1.6 0-.6.5-.7 1-.4.6.3 1 1.1 1 1.6"/></svg>