<svg xmlns="http://www.w3.org/2000/svg" width="682.667" height="512" version="1.0" viewBox="0 0 512 384"><path d="M417 13.7c-9.3 5.5-19 13.4-33 26.9-26.5 25.5-31.2 29.4-50.3 42.3-4.2 2.8-11 8.1-15.1 11.6-5.4 4.7-7.9 6.2-9.4 5.9-1.8-.5-1.9-1.2-1.5-6.2.5-5.1.2-6-2-8.5-1.8-1.9-3.6-2.7-5.9-2.7-3.7 0-7.1 1.8-5 2.7 1.6.6 1.5 3.2-.3 6.3-1.3 2.4-1.7 2.5-12.2 2.5-9.4.1-11.6.4-16.8 2.7-3.3 1.5-8.6 3.7-11.8 5.1-6.6 2.8-8.4 4.2-4.4 3.5 3.8-.7 3.1.4-2.7 4.4-5.3 3.6-8.3 7.8-3.3 4.5 3.3-2.2 3.4-1.7.2 3.2-2.9 4.2-4.1 11.9-3 17.7.6 3.6.8 3.7 2.1 2 1.8-2.5 2.4-1.8 2.7 3 .2 3.8.1 3.9-3.3 4.2-3.7.4-6-1.6-6-5.2 0-3.5-5.5-13.8-9.9-18.8-2.8-3.1-6.7-5.9-11.5-8.3-6.1-2.9-8.2-3.5-13.7-3.4-3.5 0-8.4.6-10.9 1.2-6.4 1.7-9.3 0-13.6-8.5-5.2-10.3-14-19.1-23.8-23.8-8-3.8-20.2-7-27-7-4.2 0-14.9 2.4-19.8 4.4-13 5.5-25.7 21.1-31.1 38.1-8.9 28.4-.3 54.6 21.8 66.2 12.3 6.3 29.2 8.8 40.3 5.9 3-.8 5.2-1 5.2-.5 0 .6-3.2 4.2-7.2 8.1-6.3 6.2-7 7.3-5.9 9 1 1.6.6 2.5-2.9 6.6-4.4 5.3-4.9 7.2-2.4 9.3 1.5 1.2 2.2.8 5.8-3.4 2.3-2.6 4.9-4.7 5.7-4.7.7 0 2.7 1.2 4.3 2.6 2.5 2.2 2.7 2.8 1.7 5-.6 1.3-1.8 2.7-2.6 3-2 .8-1.9 3.4 0 3.4.9 0 2 1.1 2.5 2.5s1.7 2.5 2.8 2.5c1.7 0 2.1 1.3 3.2 10.7 2.1 18.7 3.7 26.3 6.3 30.2 1.4 2 2.8 5.3 3.1 7.3.5 2.4 1.3 3.9 2.6 4.3 1.7.5 2 1.5 2 6.4 0 5.1-.3 5.9-2.4 6.9-2.7 1.2-4 6.4-3.9 16.1 0 4.3.5 5.7 2.2 7 2 1.6 2.1 2 1.1 6.8-.8 3.7-1.7 5.4-3.1 5.8-2.4.8-3.8 3.4-5.5 10.4-1.9 8-1.8 11.4.5 12.8 1.7 1.1 1.8 1.6.7 5.5-1 3.4-2.1 4.7-4.9 6-2.8 1.4-3.9 2.8-5.5 7-1.1 2.9-2.3 6.8-2.7 8.5l-.7 3.3h5.6c3.3 0 5.6-.4 5.6-1.1 0-.6-.8-.8-1.9-.4-2.8.8-3.3-.7-1.7-5.1 1-3.1 1.8-3.9 3.7-4 1.4 0 3-.3 3.6-.7.8-.5.7.9-.3 4.5-1.8 6.7-1.8 6.3 1.1 6.6 2.1.1 2.6-.5 4-5 2-6.8 1.9-8.7-.5-11.3-2.1-2.2-2.1-2.2-.1-6.7 1.4-3.3 2.6-4.7 4.6-5.2 3.4-.9 5.1-5 6.1-14.5.7-7.2.6-7.5-1.9-9.5-2.4-2-2.5-2.3-1.4-7.3.9-4.3 1.6-5.4 3.7-6.2 3.2-1.1 4-4 4-14.2 0-6.5-1.4-9.9-4.1-9.9-.5 0-.9-2.4-.9-5.4 0-4.9.3-5.6 3.3-7.9 1.8-1.3 5.3-2.8 7.7-3.2 2.5-.4 10.8-2.9 18.5-5.6 7.7-2.6 14.1-4.7 14.2-4.5.2.2-.3 2.7-1.1 5.7-2.8 10.9-2.8 14.8 0 33.4 2.9 20 4.3 48.2 2.6 51.8-.6 1.2-1.3 3.5-1.7 5.1-.3 1.6-1.7 4.3-3.1 5.9-1.3 1.6-2.7 3.8-3 5s-2 3.1-3.7 4.2c-4.4 2.8-4.8 5.5-.8 5.5 1.7 0 3.1-.5 3.1-1.1 0-.8.4-.8 1.4 0 .9.8 20.7 1 72.2.9l70.8-.3 8.2-13c4.6-7.2 10.2-16.8 12.6-21.4 3.9-7.5 4.3-9 4.2-15-.2-7.7-2.9-16.1-7.6-23.4-3.6-5.6-15.3-19.9-21.2-25.9l-3.7-3.8-2.1-17.3-2.1-17.4 3.6-21.4c3.9-23.3 11-54.1 11.5-49.7.2 1.7.8 2.5 1.6 2.2.7-.3 1.8 1 2.7 2.8.8 1.8 2.2 3.4 3.2 3.6 2 .4 5.6-3.4 5.7-6.1 0-.9.7-1.7 1.5-1.7.9 0 1.8-.7 2.2-1.6.3-.9 1.6-2.6 2.9-3.9s2.6-3.6 3-5.1 1.8-4.3 3.1-6.2c1.2-1.9 2.3-4.5 2.3-5.6 0-1.2.5-2.7 1.1-3.3 2.9-2.9 6.1-21.9 4.9-28.5-1.6-8.5-3.1-9.9-12.5-12.4-10-2.7-16.4-1.2-26 6.2-2.4 1.8-4 2.3-5.9 1.8l-2.6-.6 2.1-2.7c1.1-1.4 8.4-9 16.2-16.9l14.1-14.4 3.9 2.2c5.5 3.1 11.6 2.4 18.4-2.2 2.8-2 6.8-3.9 8.9-4.3 4.9-.9 7.4-2.2 7.4-3.9 0-.8-2.5-3.7-5.5-6.5l-5.6-5 3.3-1.4c1.8-.8 3.9-2.1 4.5-2.9 1.7-1.9-.5-4-6.2-5.9-2.2-.7-4.2-1.4-4.4-1.6-.4-.3 14.2-20.2 22.6-30.7 8.3-10.4 8.4-11.7.3-6.9M238.2 154.2c-.9.9-1.2.7-1.2-1.2s.3-2.1 1.2-1.2.9 1.5 0 2.4m-2.6 21.7c-.5 4.1.8 6.1 5.7 8.6 1.4.7 2.1 1.8 1.9 3.1-.9 5.8-12.7 40.4-13.8 40.4-.7 0-2.5 1-4.1 2.3-1.5 1.3-9 4.5-16.7 7.1-7.6 2.6-17.4 6.3-21.9 8.2-5.2 2.2-8.3 3-8.7 2.3-.4-.6-1.7-6.4-3-13.1l-2.3-12 3.1-2.4 3-2.4-3.2-3.2c-4.1-4.1-6.5-12.7-4.7-16.2.7-1.2 1.1-2.6 1-3.2-.1-.5.1-2.1.5-3.6.7-2.5 1-2.6 2.9-1.3 3.4 2.1 12.6 4.5 17.4 4.5 7.7 0 17.8-2.9 24-6.9 6-3.9 11.7-9.6 13.5-13.7.7-1.6 2-2.4 3.5-2.4 2.3 0 2.4.3 1.9 3.9m18.9 33.7c-.8 2-1.8 3.5-2.1 3.2-.2-.3.3-2.5 1.2-4.9 1-2.3 1.9-3.8 2.1-3.2s-.3 2.8-1.2 4.9m-89.1 90.5c1.4-1.2 1.6-.7 1.5 5 0 5.9-1.6 13.3-1.8 8.6-.1-1.9-1.4-2.2-4.2-.7-1.8 1-1.9.7-1.9-4.9 0-7.8.6-9.4 3-7.9 1.4.9 2.2.9 3.4-.1m124.5 35.6c.1 3.9-.3 7.5-.9 7.8-.6.4-1-3.7-.9-11.7.1-9.5.3-11.3 1-7.8.4 2.5.8 7.7.8 11.7m49-8.1c.2.2-.7 2-2 4-2.5 4.2-3 3.7-4.4-4.5l-.7-4.4 3.3 2.3c1.9 1.3 3.6 2.5 3.8 2.6m-177.3 14.6c-.8 6.9-1.5 8.6-2.6 6.8-.6-.9-1.3-.9-2.9-.1-1.9 1.1-2.1.9-2.1-2.2 0-1.9.3-4.9.6-6.6.5-2.6 1-3 2.9-2.5 1.3.3 2.6.1 2.9-.5 1.5-2.4 1.8-.8 1.2 5.1m159.1 18c-.3.8-.6.5-.6-.6-.1-1.1.2-1.7.5-1.3.3.3.4 1.2.1 1.9m-2 1c-.3.8-.6.5-.6-.6-.1-1.1.2-1.7.5-1.3.3.3.4 1.2.1 1.9m-110.2 14.5c-.4 1.9-.9 2.3-1.7 1.5-.9-.9-.8-1.9.2-3.9 1.5-3.2 2.5-1.6 1.5 2.4"/></svg>