<svg xmlns="http://www.w3.org/2000/svg" width="682.667" height="512" version="1.0" viewBox="0 0 512 384"><path d="M418.9 16.1c-9.5 6.1-19 13.9-32.9 27.1-6.9 6.5-16 15.2-20.3 19.3-4.3 4-14.6 12-22.9 17.7-8.4 5.7-18 12.9-21.4 16.1-5.5 5.1-6.5 5.6-8.7 4.8-2.4-.9-2.5-1.3-2-6.5.5-5.1.4-5.7-2.5-8.5-1.7-1.7-4-3.1-5.2-3.1-2.6 0-6 1.7-6 3.1 0 .6.4.8.9.4 1.8-1 1.7 3-.2 6.2l-1.8 3.2-10.2-.2c-11.1-.2-13.4.4-28.7 7.7-5.9 2.8-6.7 3.5-4 3.1l3.5-.5-2.9 2.2c-1.7 1.3-4.6 3.8-6.5 5.7-3 2.7-3.1 3.1-.9 1.7 4-2.4 4.1-2 1.1 2.6-2.5 3.7-2.8 5.1-3 13.5-.1 5.1 0 9.3.3 9.3.2 0 1-1.2 1.7-2.7l1.5-2.7.7 4.3c.8 4.7-.2 6.5-3.1 5.9-1.5-.2-2.2-1.9-3.1-7-.7-3.7-2.1-8.7-3.2-11.1-3.1-6.8-11.3-15.1-18.3-18.6-5.2-2.7-7.2-3.1-13.9-3.1-4.3 0-9 .5-10.4 1-2.2.8-3.2.6-6-1.5-1.8-1.4-3.6-3.8-4-5.3-1.1-4.9-8.5-16.1-13.8-21.2-9.6-9.2-25-15-39.9-15-14.2 0-24.4 4.5-34.5 15.3-10.4 11.2-16.5 24.6-18.6 41-2.1 16.8 2.2 30.2 13.4 41.4 7 7 16.3 12.3 25.5 14.7 7.6 2 22.5 2 27.9.1 2.1-.8 4.1-1.3 4.2-1.1.2.2-4 4.5-9.3 9.5-9 8.5-9.6 9.3-8.5 11.4 1.1 2 .8 2.7-2.8 6.5-5.9 6.1-6.4 7.6-4 9.8 1.9 1.7 2.1 1.7 6.5-2.9s4.5-4.7 7.7-3.4c2 .8 3.6 2.4 4.2 4.1.8 2.5.6 3.1-2.3 5.7-3.2 2.9-3.5 4.9-.7 4.9.7 0 1.6 1.1 1.9 2.4.4 1.5 1.4 2.6 2.9 2.8 2.1.3 2.3 1 3.4 13.3 1.6 17.2 2.8 23.2 5.7 27.5 1.3 1.9 2.7 5.2 3 7.3.7 3.6 1.2 4.4 4.7 7 .9.7 2 3.3 2.4 5.9.6 4.5.5 4.9-2.1 6l-2.6 1.2.4 10c.5 9.7.6 10 3.7 12.5 2.6 2.2 3.1 3.3 3.1 7 0 3.4-.6 4.9-2.6 6.8-2.6 2.4-2.7 2.7-2.1 11.1.6 10.1 1.2 11.9 3.8 12.7 1.5.5 1.9 1.6 1.9 5.8 0 4.6-.4 5.6-3 7.9-2 1.7-3 3.6-3 5.5 0 1.5-.3 4.5-.6 6.5-.6 3.6-.5 3.8 2 3.8 2.4 0 2.6-.3 2.6-4.8 0-5.6.5-6.5 3.1-5.1 1.5.7 2.1.6 2.5-.6 1.3-3.3 2.4-1.2 2.4 4.5 0 5.3.2 6 2 6s2-.7 2-6.9c0-6.7-1.4-10.1-4.1-10.1-.5 0-.9-2.6-.9-5.9 0-5.2.3-6.1 2.6-7.6 2.6-1.7 2.6-1.8 2.2-11.7-.3-8.6-.7-10.2-2.3-11.4-4.1-2.8-4.5-3.6-4.5-8.3 0-4.1.4-5.1 2.5-6.5 2.2-1.4 2.5-2.4 2.5-7.1 0-3-.5-7.7-1.1-10.5-.8-3.9-1.6-5.1-3.4-5.6-2.3-.6-3.6-3.8-3.4-9.3 0-3.9 4.8-7.1 12.7-8.7 3.7-.7 11.8-2.9 18-4.8 6.3-2 11.7-3.6 12.1-3.6s-.1 2.6-1.2 5.8c-3 8.8-3.2 20.3-.8 38.2 1.2 8.5 2.5 22.8 2.8 31.6.5 14 .4 16.4-1.1 18.5-.9 1.3-1.6 3.4-1.6 4.7 0 1.4-1.3 4-3 5.9-1.6 1.8-3 4-3 4.7 0 .8-1.6 2.6-3.5 4-1.9 1.5-3.5 3.1-3.5 3.6 0 .6 20.4 1 49.9 1h49.9l-.5-2.2-.6-2.3 2.5 2.3 2.5 2.2 36-.2 36.1-.3-2.8-6c-1.6-3.3-3-7.4-3-9-.1-1.7-.4-2.4-.7-1.7-.3.8-1 .5-2.3-1-1.3-1.7-1.5-2.6-.7-3.9 1.2-1.9 4.7-1.4 4.7.7 0 .8.4 1.4.9 1.4.6 0 .3-1.6-.5-3.5-1.7-4.2-1.7-4.2.2-4.9 1-.4 1.4-.2 1.1.6-.2.7.3 2.1 1.2 3.2.9 1 3.3 6.8 5.3 13 2.9 8.8 4.1 11.2 5.7 11.4 1.6.3 2.1-.4 2.6-4.1.9-6 0-10-4.2-17.7-3.4-6.2-3.5-6.4-.9-4.1 1.4 1.4 2.6 2.1 2.6 1.6s1.4 1 3.1 3.3 3.3 4.2 3.5 4.2c.6 0 0-1.1-4.6-8-3.9-5.8-8.4-14-7.6-14 .2 0 2.8 2.8 5.6 6.2 2.9 3.5 5.4 6.1 5.6 5.8s1.9 1.1 3.9 3c2.4 2.3.3-1.2-5.9-10-5.3-7.4-9.8-14.4-10-15.5s-.9-4.7-1.5-8c-1.2-6.4-8.1-29.5-17.8-59.1l-5.8-17.9V223c0-29.8 1.5-44.5 4.5-45.3 1.2-.3 2.2.6 3.4 2.9 1 2.1 2.3 3.4 3.5 3.4 2 0 5.1-3.9 5.1-6.6 0-1 .5-1.4 1.5-1 1 .3 1.8-.1 2.2-1.2.4-.9 1.7-3 3-4.5 1.3-1.6 2.6-4 3-5.5.3-1.4 1.7-4.1 3-6 1.2-1.9 2.3-4.5 2.3-5.6 0-1.2.4-2.6 1-3.2 1.6-1.6 5-16.4 5-21.8-.1-12.2-2.9-16.5-12.5-19.1-9.7-2.7-15.3-1.3-24.7 5.8-3.4 2.6-5.2 3.3-7.2 3-1.4-.3-2.6-.9-2.6-1.3 0-.5 7.1-8.2 15.9-17.2l15.8-16.2 6.6-.1c5.8 0 7-.4 10.9-3.3 2.3-1.7 6.8-4.4 9.8-5.8s6.2-2.9 7-3.3c4-2.2.9-6.8-6.9-10.3l-4.5-1.9 5.3-2.4c5.7-2.7 6.5-5.1 2.3-7-1.2-.5-2.2-1.3-2.2-1.6 0-.9 16.9-23.6 21.8-29.2 6.9-7.9 5.6-8.7-3.9-2.6M306.7 94.2c-.3.8-.6.5-.6-.6-.1-1.1.2-1.7.5-1.3.3.3.4 1.2.1 1.9M164 172c.8.5 1.1 1.2.7 1.6s-1.5 0-2.4-.9c-1.8-1.8-.8-2.3 1.7-.7m74.6.2c.5.7.7 3 .5 5.1-.3 4.4.9 6.3 5.6 8.2 1.8.8 3.3 1.9 3.3 2.5 0 .7-1.3 6.6-2.9 13.3s-3.3 13.8-3.6 15.7c-.7 3.7-7.4 12-9.6 12-.7 0-2 .6-2.8 1.4-.9.7-6.5 2.8-12.6 4.5-13.4 3.9-24.4 7.6-30.8 10.3-2.6 1.1-5 1.8-5.3 1.5-.3-.2-1.5-6.2-2.6-13.2l-2.2-12.8 2.8-2.4 2.9-2.4-2.6-2.7c-3.3-3.6-6.4-13.9-4.8-16.4.6-1 1.1-2.6 1.1-3.5 0-1 .6-3.4 1.3-5.4l1.2-3.6 3.4 2.3c6.7 4.6 21.5 5.8 31.9 2.6 7.3-2.3 13.8-6.7 19.4-13.2 4.6-5.3 5.2-5.7 6.4-3.8m20.5 40.1c-.8.8-1.1.7-1.1-.4 0-2 1.3-3.4 1.8-1.9.3.7-.1 1.7-.7 2.3M164 275.6c0 .8-.5 1.2-1 .9-.6-.4-.8-1.1-.5-1.6.9-1.4 1.5-1.1 1.5.7m142.6 23.8c2 6.2 3.4 8 3.4 4.3 0-3.1.7-3.4 2.7-1 4.5 5.6 16.4 38.7 16.5 45.8 0 1.2-1.9 5.5-4.2 9.6-4.1 7.4-4.3 7.6-7.8 7.5-2.3-.1-3.7.4-3.8 1.1s-.3 1.6-.4 2c-.2.5-.4 1.2-.5 1.8-.7 4.9-1.7 8.5-2.4 8.5-.4 0-1.7-1.3-2.9-2.9-1.1-1.6-4.4-4.4-7.2-6.2-3.9-2.5-5.2-4.1-6-7-.6-2.1-1.8-4.2-2.6-4.7-1.3-.7-1.7-3.6-2.3-14.3-1.1-22.3.7-33.6 7.6-49.2l2.6-5.8 2.8 2.7c1.6 1.5 3.6 5 4.5 7.8m50.3-3.1c.1.5-.3.5-.9.2-.5-.3-1-1.6-.9-2.8 0-2.1.1-2.1.9-.2.5 1.1.9 2.4.9 2.8m-184 4.7c2 9.4.8 14.6-2.4 10.4-1.3-1.8-1.4-1.8-2.8 0-1.4 2-1.5 2-2 0-1.3-4.4-1.9-13.2-.9-13.8.6-.3 1.3-.2 1.7.4 1 1.5 3.5 1.2 3.5-.5 0-3.5 1.9-1.1 2.9 3.5m2.9 41.1c.3 4.4 0 7.5-.7 8.2-.8.8-1.1.7-1.1-.6 0-2.3-3.6-2.2-4.5 0-.7 1.7-.8 1.6-1.5-.2-1.2-2.9-1.2-15.5 0-15.5.6 0 1 .4 1 1 0 .5.9 1 2 1 1.2 0 2-.7 2-1.7 0-1.3.3-1.4 1.2-.5.7.7 1.4 4.4 1.6 8.3m122.7 30.2c2.4 1.8 1.1 4.1-1.6 2.7-1-.6-1.9-1.7-1.9-2.5 0-1.9 1.1-1.9 3.5-.2m-88.5 2.6c0 2-1.7 3.7-2.7 2.8-.7-.8.7-4.7 1.8-4.7.5 0 .9.9.9 1.9m94 5.1c0 .5-.2 1-.4 1-.3 0-.8-.5-1.1-1-.3-.6-.1-1 .4-1 .6 0 1.1.4 1.1 1"/></svg>