<svg xmlns="http://www.w3.org/2000/svg" width="682.667" height="512" version="1.0" viewBox="0 0 512 384"><path d="M418.9 19.6c-9.7 6.5-16 11.7-27.9 23-4.7 4.4-10.5 9.4-13 11.1s-7.4 6.2-11 10c-4.1 4.4-11.6 10.3-20.4 16.3-7.7 5.2-17.6 12.4-22 16.1-6.6 5.4-8.5 6.5-10.2 5.8-2-.7-2.1-1.1-1.1-4.8 2-7.5-3.9-14.6-10.2-12.4-1.3.4-2.6 1.4-2.9 2.2s0 1.1.7.7c1.9-1.2 1.3 3.4-.9 6.5l-2.1 2.8-9.3-.6c-7.3-.4-10.4-.2-14.1 1.1-6.9 2.3-24.6 9.9-24.1 10.3.2.2 1.5-.1 2.9-.6 4.8-1.8 3.7.5-2.4 4.9-3.2 2.4-5.7 4.5-5.5 4.8.3.2 1.5-.3 2.8-1.2 3.8-2.7 3.9-1.8.5 3-3 4.2-3.2 5.2-3.2 12.5 0 4.3-.1 7.9-.2 7.9-.2 0-.8-2-1.4-4.5-2.6-10.4-13.6-22.7-23.5-26.5-6-2.2-14.7-2.6-20.6-1-3.3 1-3.9.8-6.6-1.7-1.7-1.6-3.8-4.8-4.8-7.3-2.3-6-9.4-16.8-13.5-20.7-7.7-7.2-28.3-15.3-38.8-15.3-5.3 0-14.5 2.2-20.5 4.9-11.5 5-23.6 19.7-29.8 36-3.1 8.2-3.2 9.2-3.3 23.1 0 14.4 0 14.6 3.2 21 9 18.1 28.5 30 49.4 30 4.2 0 9.8-.7 12.5-1.5s5-1.5 5.2-1.5c1.1 0-9.8 11.3-13.8 14.4-5 3.8-6.1 6.1-3.8 8.4 1 1 .7 1.7-1.3 3.5-1.5 1.2-3.9 3.9-5.4 6l-2.8 3.8 2.2 2.2 2.2 2.2 2.4-2.7c1.3-1.5 3-3.7 3.8-4.9 1.8-2.5 5.5-2.1 8.7 1.1 2.7 2.7 2.5 3.7-1 7-3.3 3-3.9 5-1.5 5 .8 0 1.7 1.1 2.1 2.5s1.6 2.8 2.8 3.1c2.1.5 2.3 1.4 3.4 16.1.9 11.3 1.9 17.7 3.7 22.7 1.3 3.9 2.6 9 3 11.2.5 3.1 1.3 4.4 3.1 5.2 2.1 1 2.4 1.8 2.4 6.1 0 4-.5 5.5-2.5 7.5-2.1 2.1-2.5 3.4-2.5 8.8 0 8.5 1.4 13.2 4.4 14.6 1.8.8 2.5 2.1 3 5.6.7 4.1.4 5-2 7.9-2.6 3-2.6 3.5-2 11.3.7 9.9 1.2 11.3 4.2 12.4 1.7.7 2.5 2.2 3.4 6.5 1.1 5.2 1 5.8-.8 7.1-2.4 1.6-3.3 5.6-2.5 11.2.4 3.2 1 4.2 2.4 4.2 1.5 0 1.7-.7 1.2-5.5-.4-3.6-.2-5.5.5-5.5.6 0 1.2.5 1.4 1.1.5 1.5 3.8 0 3.8-1.8 0-2.8 1.9-.2 2.5 3.5 1.2 7.2 1.6 8.2 3 8.2 1.8 0 2-4.2.4-10.6-.8-3.2-1.9-4.9-3.9-5.9-2.3-1.2-2.8-2.3-3.3-6.7-.6-4.7-.4-5.5 1.6-7 1.9-1.5 2.2-2.6 2.1-8.5-.1-8.2-1.9-15.3-3.9-15.3-3.9 0-4.9-11-1.4-13.9 1.9-1.5 2.2-2.8 2.1-8.1-.1-10.3-1.1-14-3.7-15-1.8-.7-2.5-1.9-3.1-5.6-.6-4.4-.5-4.9 2-6.9 1.4-1.1 2.6-2.6 2.6-3.2 0-.7 2.1-1.5 4.8-1.8 6-.8 17.8-3.8 27.8-6.9 4.3-1.4 7.9-2.4 8-2.3.2.1-.6 2.9-1.7 6.2-3.1 9.3-3.4 18.8-1 38.1 1.2 9.4 2.4 24 2.8 32.6.5 13.5.4 15.8-1 17.9-1 1.3-1.7 3.1-1.7 4 0 2.2-6.1 11.5-10.2 15.6l-3.3 3.2 49.8.1c45.8 0 49.7-.1 49.7-1.6 0-1.6.1-1.6 1.8-.1s6.2 1.7 44.1 1.7c39.9 0 42.3-.1 41.6-1.8-1.7-4-2.6-8.5-2.1-9.8.3-.8.2-1.3-.2-1-.4.2-1.2-.7-1.9-2-.6-1.3-.7-2.2-.2-1.8.5.3.6-.2.3-1-.3-.9-1-1.3-1.5-1-.8.5-1.1-.3-.8-2.2 0-.4-.5-1.1-1.3-1.5-1-.7-1-.9.3-.9.9 0 2.9 1.9 4.5 4.2 4.9 7.2 8.1 10.1 4.2 3.8-4.2-6.6-11.1-20.1-10.6-20.6.2-.2 4.2 4.4 8.8 10.1 4.6 5.8 8.6 10.5 8.8 10.5s-.3-1-1.1-2.2c-.9-1.3-3.3-5.2-5.3-8.8-2.1-3.6-4.8-8.2-6.2-10.2-2.1-3.2-2.4-5-2.5-13.1-.2-9.3-.2-9.5-5.9-20.8-3.2-6.3-6.4-14.1-7.3-17.4-.8-3.3-3.1-11-5-17-3.1-9.7-3.8-13.7-5.5-33-1.1-12.1-2-25.8-1.9-30.5 0-8.4 3.1-36.6 4.2-37.6.3-.3 1 .1 1.6.8s2.1 2.6 3.4 4.2l2.4 3 2.7-2.9c1.4-1.5 2.6-3.6 2.6-4.6 0-1.2.5-1.6 1.5-1.3.8.4 1.5.1 1.5-.6s1.3-2.8 3-4.6c1.6-1.9 3.3-4.7 3.6-6.2.4-1.5 1.5-3.8 2.6-5.1 1-1.3 1.8-3.1 1.8-4s.7-3 1.6-4.6c4.8-8.9 6.7-31.2 3-36.7-2.4-3.6-9.7-6.3-17.1-6.2-6.6 0-10.4 1.6-17.2 7.1-3.6 2.9-4.7 3.3-7.3 2.6l-3.2-.8 17-17.1 17.1-17.1 5.9-.5c5.2-.4 6.8-1 11.5-4.6 3.1-2.3 8-5.3 11-6.6s5.8-2.9 6.2-3.6c1.1-1.8-3.2-5.7-8.4-7.6-6.5-2.4-6.9-3.1-3.1-5.1 1.8-1 4.4-2.8 5.9-3.9 2.1-1.9 2.3-2.4 1.2-3.8-1.1-1.3 0-3.2 8.3-13.8 5.2-6.8 10.9-13.9 12.5-15.8 6-7 3-6.8-8 .6M309.7 95.2c-.3.7-.5.2-.5-1.2s.2-1.9.5-1.3c.2.7.2 1.9 0 2.5M250 140.5c0 1.9.1 3.8.3 4.2.1.5-.8.9-2 1.1-3.1.5-4.2-3.9-1.6-6.6 2.6-2.9 3.3-2.6 3.3 1.3m-83.4 31.6c.9 1.5-2.3 1-3.5-.5-1-1.2-.8-1.3.9-.9 1.1.3 2.3.9 2.6 1.4m73.4 5.4c0 5.1.2 5.5 3.3 7.1 1.7.9 3.3 1.7 3.4 1.8s-2 9.2-4.7 20.2c-4.7 19-6.2 22.4-9.4 22.4-.5 0-1.7.7-2.7 1.6-.9.8-9.4 3.7-18.9 6.5-9.4 2.7-19.9 6.1-23.3 7.4-3.6 1.5-6.3 2.1-6.7 1.5-.3-.5-1.4-6.4-2.4-13.2l-1.8-12.2 3.4-2.7c2.9-2.4 3.1-2.9 1.5-3.5-4.9-1.9-7.4-14.1-4.8-23.4 2.2-7.9 1.9-7.4 3.9-5.8 6.1 5.4 19.1 7.7 30.2 5.4 9.1-1.9 15-5.4 22-12.8 3-3.2 5.8-5.8 6.3-5.8.4 0 .7 2.5.7 5.5m18.9 31.6c-1.7 4.9-3.3 6.2-2.5 2 .6-3.2 2.5-6.6 3.2-5.8.2.2-.1 1.9-.7 3.8m-95.5 66c-1 1.6-2.4.9-2.4-1.2 0-1.8.2-1.9 1.5-.9.8.7 1.2 1.6.9 2.1m5.1.9c.3.5.1 1-.4 1-.6 0-1.1-.5-1.1-1 0-.6.2-1 .4-1 .3 0 .8.4 1.1 1m133.9 16.2c.8 1.3 2.3 5.1 3.2 8.5 2 7.3 3.4 8.1 3.4 2.1v-4.1l6.3 5.9c6.2 5.7 9.4 11.3 19.9 34 .8 1.8-.2 4.2-6.1 14.2-7.3 12.4-8.5 14-9.6 12.2-.3-.5-1.5-1-2.5-1-1.9 0-2.7 1.6-3.6 6.7-.6 3.7-2.4 9.3-3 9.3-.3 0-1.9-1.6-3.6-3.5-1.7-2-5-4.7-7.4-6.1-3.2-1.9-4.6-3.5-5.3-6.1-.6-1.9-1.7-4.3-2.6-5.3-1.2-1.3-1.9-5.1-2.5-14.1-1.4-19.6.8-33.3 7.7-49.2 1.4-3.1 3-5.7 3.4-5.7.5 0 1.5 1 2.3 2.2m-131.9 12.2c.8 7.5.3 9.1-2.6 7.3-1.7-1-2.2-.9-3.2.8-1.1 1.9-1.1 1.9-1.8-.5-.9-3.3-1.1-12.5-.2-13.3.3-.4 1.3-.1 2.1.6 1.2 1 1.7.9 2.5-.5 1.7-2.6 2.5-1.3 3.2 5.6m3.2 38.3c.4 4.7.2 7.2-.6 7.7-.6.4-1.1.2-1.1-.3 0-1.5-3.7-1.4-4.3.1-1 2.8-2-.6-2.5-7.9-.4-6.9-.3-7.6 1-6.5 1.7 1.3 4.8.6 4.8-1.1 0-.8.3-.8 1-.1.6.6 1.4 4.2 1.7 8.1m124.8 30.6c2.4 1.8 1.1 4.1-1.6 2.7-1-.6-1.9-1.7-1.9-2.5 0-1.9 1.1-1.9 3.5-.2m-88.5 1.6c0 2.1-1.3 4.1-2.6 4.1-1.7 0-1.7-.5-.2-3 1.3-2.1 2.8-2.7 2.8-1.1m94 6.1c0 .5-.2 1-.4 1-.3 0-.8-.5-1.1-1-.3-.6-.1-1 .4-1 .6 0 1.1.4 1.1 1"/></svg>