<svg xmlns="http://www.w3.org/2000/svg" width="682.667" height="512" version="1.0" viewBox="0 0 512 384"><path d="M420.7 20c-11 7.3-15.7 11.1-27.5 22.3-5.2 4.8-11.7 10.3-14.5 12.2-2.9 1.9-7.7 6.3-10.8 9.7-3.9 4.4-10.4 9.6-21 16.7-14.6 9.8-25 17.8-27.5 21-1 1.2-1.7 1.3-3.8.3-2.3-1-2.5-1.4-1.5-3.8 2.2-6-1.9-13.4-7.5-13.4-3.7 0-6.6 1.6-5 2.7s1 5-1.1 7.3c-1.7 1.9-2.6 2-10.5 1.4-9.4-.7-15 .4-25.8 5.2-9.3 4.1-12 5.5-9.5 5 4.1-.8 3.4 1.1-1.6 4.4-5 3.1-8.1 6-6.5 6 .5 0 1.8-.7 2.8-1.5 3-2.3 4.2-1.8 1.9.7-3.7 4.1-5.5 8.9-5.6 15 0 3.2-.1 5.8-.3 5.8-.1 0-.9-2.1-1.8-4.6-2.1-6.3-9.6-16.5-14.5-19.7-9.4-6.2-16.9-7.8-27.2-5.6-3.2.7-5.4.8-5.8.2-.3-.6-1.6-1.5-2.8-2.2-1.3-.6-2.3-1.8-2.3-2.5 0-.8-1.9-5.1-4.1-9.6-7.5-15-19-24-36.9-28.9-24.3-6.7-47 4.9-59.6 30.4-12.9 26.2-10.8 48.9 6.1 66.1 12.7 13 34.1 19.2 50.9 14.9 3.3-.9 6.1-1.4 6.3-1.2.5.6-17.6 17.7-18.8 17.7-1.4 0-1.1 2.6.6 4 1.3 1.1.8 2-3.5 6.7-5.3 5.8-6.1 8.2-3.4 10.4 1.5 1.2 2.2.8 6-3.5 4.2-4.8 4.3-4.9 7.4-3.6 2.9 1.2 5 3.6 5 5.8 0 .5-1.4 2.3-3.1 4-3.1 3-3.1 3-1 4.1 1.2.7 2.1 2 2.1 3.1 0 1.2.9 2.2 2.4 2.6 2.2.5 2.4 1.1 3.5 14.9.7 8 1.8 16.6 2.6 19.2 2.4 8.5 3.5 12.7 4.1 16.7.4 2.6 1.1 4 2.5 4.3 2.8.8 2.8 11.2-.1 13.8-1.7 1.6-2 3.1-2 10.9 0 9.8.3 10.7 3.7 12.5 2 1 2.3 2 2.3 6.6 0 4.5-.4 5.7-2.2 7-2.1 1.4-2.3 2.3-2.1 9.8.2 9.3 1.5 13.7 4.2 14.4 1.4.4 2.2 1.9 3 6.1.9 5.4.9 5.8-1.5 7.7-2.5 2.2-3 5.3-1.8 11.4.5 2.2 1.2 3.1 2.6 3.1 1.8 0 1.9-.5 1.3-4.9-.4-3.1-.3-5.1.4-5.6.6-.3 1.1-.1 1.1.4 0 1.7 3 1.3 3.6-.4 1.2-2.9 2.3-1.4 3.5 4.5 1.3 6.6 3.9 8.5 3.9 2.7-.1-7.5-2.4-12.7-6.3-14-.5-.1-1.3-2.5-1.7-5.2-.7-4.6-.6-5.2 1.7-7.4 2.5-2.4 2.6-2.7 2-11.1-.8-10.4-1.1-11.4-4.1-12.8-1.9-.8-2.5-2-2.8-5.9-.5-4.2-.2-5.1 2.1-7 2.3-2.1 2.6-2.9 2.5-9-.1-10.2-1-13.8-3.9-15.1-2.2-1-2.5-1.8-2.5-6 0-3.9.5-5.3 2.5-7 1.4-1.2 2.5-2.6 2.5-3 0-.5 3.3-1.3 7.3-2 6.4-1 27-6.6 32.1-8.7 1.6-.7 1.8-.5 1.2 1.1-2.1 5.2-4.6 17.3-4.6 21.8 0 2.8 1.1 15 2.5 27.1 2.9 25.3 3.2 42 1 44.9-.8 1.1-1.5 3.1-1.5 4.4s-1.3 4-3 5.8c-1.6 1.9-3.3 4.6-3.6 5.9-.3 1.4-1.2 2.5-1.9 2.5-.6 0-2 .9-3 2-1.8 2-1.7 2 47.8 2 38 0 49.7-.3 49.7-1.2s.3-.9 1.2 0 11.8 1.2 43 1.2c23 0 41.8-.2 41.8-.5s-.7-1.6-1.5-2.9c-.9-1.3-1.5-2.8-1.4-3.2.3-2-.2-3.5-1-2.9-.6.3-1.5-.5-2.2-1.7-1.1-2.1-1.1-2.2.4-.9 2.3 1.8 2.1 1-.7-4.6-1.4-2.7-3-6.2-3.7-7.8-.7-1.7-1.5-3.3-1.7-3.8-.2-.4.1-.7.6-.7.6 0 2.4 2.2 4.1 4.9 3.3 5 7.1 9.1 7.1 7.5 0-.6-.4-1.4-.9-1.9-.5-.6-2.6-4.1-4.6-7.8l-3.6-6.8 2.5-5.6c5.2-11.3 2-24.2-9.6-39.2-4.3-5.4-5.4-7.9-7.9-17-1.8-6.5-3.3-15.4-3.9-23.1-.6-6.9-1.5-17.5-2-23.6-1.4-15.8-1.2-29.8.6-43.7 2.6-20.7 3.5-22.8 6.7-16.2.9 1.9 2.3 3.5 3 3.5 1.8 0 6.9-5.4 6-6.4-.4-.4.3-.9 1.5-1.3 1.2-.3 2.2-1.1 2.2-1.8 0-.6.8-1.9 1.9-2.9 1-.9 2.7-3.6 3.7-5.9s2.6-5.3 3.6-6.6 1.8-3.2 1.8-4.2c0-1.1.9-3.6 2-5.6 1.1-2.1 2-5 2-6.4 0-1.5.6-3.8 1.3-5.2.8-1.5 1.3-5.8 1.2-10.8-.1-13.1-4-17.5-16.5-18.6-7.2-.7-11.4.7-19 6.3-5.3 3.9-6.3 4.3-8.7 3.3-2.7-1-2.6-1.1 14.6-18.1l17.2-17.2 5.2.3c4.9.2 5.7-.1 12.1-4.8 3.7-2.8 7.7-5.3 8.9-5.7 4.7-1.4 8.7-3.7 8.7-5 0-2.3-5.2-6.3-10.3-8-5.5-1.8-5.3-2.7 1.3-6.3 4.3-2.3 6-4.8 4.2-6-1.5-.9 4.3-9.2 18-25.8 3.8-4.5 6.8-8.4 6.8-8.7 0-1.6-3.3 0-11.3 5.4M251.2 136.2c-.7.7-.9 2.8-.5 5.5.5 4.1.5 4.3-2.1 4.3-1.9 0-2.6-.5-2.6-2 0-2.3 5-10.4 5.8-9.5.3.3.1 1-.6 1.7m-85.7 35.1c1.1.8 1.4 1.6.8 2s-1.8-.2-2.8-1.3c-2.1-2.3-.8-2.7 2-.7m75 5.1c-.9 4.8.1 7.2 3.5 8.6 1.7.7 3 1.3 3 1.4s-1.1 3.5-2.4 7.6c-2 6.3-6.4 23.4-8.1 31.6-.7 3.2-9.1 7-26.5 12.1-8.5 2.4-18.3 5.6-21.8 7s-6.6 2.3-6.8 2c-1-1-4.3-26.1-3.5-26.7 5.5-3.8 5.7-4.1 3.8-5.1-3.5-2-8-15.5-6-18.2.5-.7 1.6-3.8 2.3-7 1.2-5.2 1.5-5.6 2.9-4.2 3.5 3.1 11.5 5.7 19 6.2 13.4.9 24.2-3.4 33.6-13.3 6-6.4 7.9-6.9 7-2m17.8 30.6c-.8 3-1.9 5.9-2.4 6.4-1.7 1.9-.9-1.5 2.6-11.3.3-.8.7-1.2 1-1 .2.3-.3 2.9-1.2 5.9m-95.4 66.4c.8 1 .8 1.6-.3 2.5s-1.5.6-1.8-1.4c-.6-2.8.3-3.2 2.1-1.1m6.1 2.5c0 .6-.4 1.3-1 1.6-.5.3-1-.1-1-.9 0-.9.5-1.6 1-1.6.6 0 1 .4 1 .9m133.5 24.5c1.8 6.6 3.5 6.2 3.5-.8v-3.9l6.9 6.4c3.8 3.5 6.9 7.1 7 8.1 0 .9.4 1.8.9 2 .9.4 11.5 22.9 13.1 27.9 1.1 3.4.9 3.9-5.2 14-6.3 10.3-6.3 10.4-9.9 10.1-3-.3-3.7 0-4.3 2-.4 1.3-.7 2.7-.6 3.1.2 1.2-1.8 8-2.8 9.6-.6 1-1.9.3-5.2-3-2.4-2.4-5.8-5.1-7.4-5.9-3.6-1.8-4.5-2.9-4.5-5.4 0-1.1-.9-3-2.1-4.2-1.7-1.8-2.2-4.2-3-15-1.4-20.3.5-32 7.9-48.8 2.9-6.5 2.9-6.6 5.7 3.8m-132.6 5.3c.1 6.9-.5 8.5-2.9 7.1-1.4-.9-2.2-.9-3.3 0-1.2 1.1-1.6.4-2.1-4.1-.4-3-.4-6.6-.1-8 .6-2.3.9-2.5 2.7-1.4 1.6 1 2.1.9 3-.8 1.1-1.9 1.1-1.9 1.9 0 .4 1.1.8 4.3.8 7.2M169 336c1.7-2.6 3 .8 3 8.3 0 6.4-.1 6.7-2 5.5-1.5-1-2.2-1-3.2 0-2.1 2.1-2.6 1.3-3.3-5.7-.8-8.1-.3-9.6 2.6-7.8 1.6 1 2.1.9 2.9-.3m129.4 37.6c1.9.7 2.1 3.4.3 3.4-1.4 0-3.7-2-3.7-3.2 0-1 1.3-1 3.4-.2m-88.4 1.7c0 .7-.6 2.1-1.3 3.2-1.9 2.5-3.2.3-1.5-2.5 1.5-2.3 2.8-2.6 2.8-.7m94 6.2c0 .8-.2 1.5-.4 1.5s-.6-.7-1-1.5c-.3-.8-.1-1.5.4-1.5.6 0 1 .7 1 1.5"/></svg>