<svg xmlns="http://www.w3.org/2000/svg" width="682.667" height="512" version="1.0" viewBox="0 0 512 384"><path d="M426.5 18.7c-9.2 5.7-17.9 12.5-30.5 23.8-6.3 5.6-13.7 12-16.5 14.1-2.7 2-7.5 6.3-10.5 9.4s-12.9 10.6-22 16.7c-9.1 6-19.1 13.4-22.2 16.2-5 4.6-6 5.1-7.8 4.1-1.5-.8-1.9-1.7-1.4-2.8 1.9-4.4 1.6-7.8-1.1-11-2.1-2.5-3.4-3.2-6.3-3.2-5 0-7.1 1.4-4.6 2.8 1.8 1.1 1.8 1.2-.1 4.9-1.8 3.4-2.4 3.8-5.5 3.6-16.7-.8-18.6-.7-25 1.6-3.6 1.4-6.9 2.7-7.5 3.1-.5.4-3.2 1.5-6 2.5-4.5 1.7-4.7 1.9-2.5 2.5 2.4.6 2.3.7-2.1 3.7-2.5 1.7-5.2 3.9-6 4.9-1.3 1.6-1.2 1.6 2 0l3.4-1.8-3.4 4.7c-3.2 4.5-3.4 5.2-3.6 13.8-.2 9-.1 9.1 1.6 6.8l1.8-2.4.6 2.4c1.4 5 .9 6.9-1.8 6.9-2 0-2.5-.6-3-3.8-1.7-10.6-4.9-17.4-12-24.6-8.3-8.6-21.6-12.6-31.9-9.8-3.5 1-4.2.9-7.2-1.5-1.9-1.4-3.4-3.1-3.4-3.7 0-3.1-8.2-17.7-12.7-22.6-15.9-17.3-43.8-22.9-63.5-12.9-6 3-16.4 13.5-21.3 21.4-11.8 18.9-14.7 43.3-7 58.5 6 11.9 20.4 23.3 34.4 27.4 6.8 2 22.1 2.1 28.4.2l4.6-1.4-5.6 6.4c-3.1 3.5-5.9 6.4-6.2 6.4s-2.6 1.8-5.1 3.9c-4.5 3.9-4.5 3.9-2.6 6s1.9 2.2-1.5 5.9c-6.9 7.4-7.2 7.9-5.9 10.1 1.6 3.1 3.5 2.6 7-1.9 3.4-4.3 6.1-5 9.8-2.4 3.2 2.2 2.8 5.8-.9 8.7-3.1 2.4-3.1 2.5-1.1 3.6 1.1.6 2.2 2.1 2.4 3.3.2 1.5 1.1 2.4 2.5 2.6 2.4.4 2.3-.2 4.3 22 .6 6.3 1.8 13.3 2.6 15.5.9 2.3 2.1 7 2.6 10.5.7 4.4 1.6 6.5 2.9 7.3 2.8 1.5 2.7 11.4-.1 13.7-4 3.3-3.9 21.9.1 22.9 1.6.5 1.9 1.5 1.9 6.9 0 5.3-.3 6.5-2 7.4-1.8 1-2 2.1-2 11.5 0 9.7.1 10.4 2.4 12.2 1.8 1.4 2.5 3.1 3 7.4.7 5.2.6 5.6-1.9 6.7-2.3 1.1-2.5 1.7-2.5 7.7 0 5.8.2 6.5 2 6.5 1.7 0 2-.7 2-5.1 0-4.5.2-5 1.5-3.9 1.3 1 1.9 1 3.4-.4 2.3-2.1 2.6-1.6 3.5 4.6.6 3.9 1.1 4.8 2.7 4.8 1.7 0 1.9-.5 1.4-3.5-.3-1.9-.7-5.1-1.1-7-.3-2.5-1.2-3.9-2.9-4.7-1.4-.6-2.5-2.2-2.9-4-.9-4.5-.7-8.8.3-8.8.5 0 1.7-.7 2.5-1.6 1.2-1.1 1.6-3.6 1.6-9.9 0-9.6-1-13-3.9-13.8-1.8-.4-2.1-1.3-2.1-6.1 0-5 .3-5.8 2.4-6.7 2.6-1.2 3.6-4.4 3.6-11.9 0-7.7-1-11.1-3.6-12.1-2.1-.7-2.4-1.5-2.4-6.2 0-4.6.3-5.5 2.4-6.7 1.3-.7 2.6-2 2.9-3 .3-1.3 1.9-1.8 6.3-2.3 3.3-.3 11.6-2.3 18.4-4.3 6.9-2 13.4-3.9 14.4-4.2 1.6-.4 1.8-.2 1.2 1.4-.4 1-1.7 5.5-2.8 9.9-2.3 9-2.2 11.9 1.2 44 2.4 23.4 2.6 37.7.5 39.5-.8.7-1.5 2.3-1.5 3.7 0 1.3-1.3 4.1-2.9 6.1s-3.2 4.7-3.6 6c-.3 1.2-2.1 3-3.8 4-3.1 1.6-1.4 1.7 46.2 2 38.9.2 49.6 0 50.3-1 .6-1 .8-1 .8-.1 0 .8 1.3 1.3 3.1 1.3 2.4 0 3-.4 2.5-1.5-.3-.8-.1-1.5.4-1.5.6 0 1 .7 1 1.5 0 1.3 4.4 1.5 34 1.5 18.7 0 34-.3 34-.6 0-.6-1.2-3.1-6.1-12.6-2.5-4.9-2.5-5.3 1.4-10.7 1.9-2.5 5.1-7.5 7.3-11 3.7-6.1 3.9-6.8 3.8-14.6 0-12.2-4-19.6-20.7-38.8-4.3-4.9-4.9-6.3-5.8-12.4-.6-3.7-1.1-21.4-1.2-39.3-.1-26.5.2-34.4 1.6-43 3.7-22.4 4.2-23.7 7.7-17.4.9 1.6 2.4 3.1 3.4 3.2 2.2.5 5.6-2.5 5.6-5 0-1 .7-1.8 1.5-1.8.9 0 2-1.1 2.5-2.5s1.4-2.5 1.9-2.5 3.1-4.4 5.6-9.8c2.6-5.3 5.4-10.9 6.1-12.4.8-1.5 1.4-3 1.3-3.5-.1-.4 0-1.5.3-2.3 3-8.3 3.5-24.1.9-28.8-2-3.7-9.5-6.6-17.1-6.6-7.1 0-12.2 2-18.2 7.3-2.6 2.2-4 2.7-6.5 2.4-1.8-.3-3.3-.9-3.3-1.2 0-.4 7.7-8.2 17.1-17.3l17-16.6 5.7.5c5.5.5 6 .4 12.5-4.1 3.8-2.6 9.3-5.6 12.3-6.7 4.4-1.7 5.4-2.5 5.4-4.3 0-2.6-4.9-6.4-11.2-8.6-2.1-.8-3.8-1.7-3.8-2.1 0-.3 2-1.4 4.4-2.3s5.2-2.6 6.1-3.6c1.7-1.9 1.7-2.1 0-4-2-2.2-3.2-.3 14.7-22.7 5.4-6.8 9.8-12.5 9.8-12.8 0-1.1-1.8-.3-7.5 3.2M166 171.5c2.4 1.3 2.4 1.4.4 1.5-1.2 0-2.7-.7-3.4-1.5-1.6-1.9-.3-1.9 3 0m75 7c0 4.3.7 5.3 5.7 8 .2.1-1.7 6-4.1 13.1-2.3 7.1-5.4 16.6-6.7 21-3 10.4-4.1 11.1-25.8 17.5-9.1 2.7-19.3 6-22.7 7.2l-6 2.4-1.7-12.1c-2.2-15.3-2.2-14.7 1.3-17.1 2.9-1.9 3-2.1 1.1-3.6-5.1-4.2-7.3-16.4-4.2-23.4.8-1.7 1.3-3.8 1.2-4.8-.3-2.2.1-2.2 4.4.7 3.7 2.6 15 5.6 20.7 5.6 5 0 14.5-2.7 20-5.7 2.6-1.4 6.9-5 9.6-7.9 5.9-6.6 7.2-6.7 7.2-.9m-77.5 97.2c-1.9 1.9-2.5 1.6-2.5-1.2 0-2.2.2-2.4 1.9-1.3 1.6.9 1.7 1.4.6 2.5m5 .2c.3.5.1 1.2-.5 1.6-.5.3-1-.1-1-.9 0-1.8.6-2.1 1.5-.7m136.4 18.6c1.6 1.9 3.5 5.4 4.1 7.7 1.6 5.8 7.9 18.3 9.3 18.3s7.4 14.8 9.8 24.7l1.9 7.7-3.5 5.8c-3.3 5.4-3.7 5.8-7.2 5.8h-3.7l-1.9 7c-1 3.8-2.2 7.4-2.7 7.9-.6.6-2.7-.7-5.3-3.2-2.5-2.2-5.9-4.7-7.5-5.6-2.1-1.1-3.4-2.7-4.1-5.2-.6-2-1.8-4.5-2.7-5.5-2.5-2.8-4-23.5-2.5-35.4 1.4-10.6 4.9-22.4 6.2-20.4.6 1 1.1.6 1.8-1.4.6-1.6 1.1-3.7 1.1-4.7 0-2.3 2-7 3.1-7 .4 0 2.1 1.6 3.8 3.5M165.1 300c1 0 1.9-.6 1.9-1.3s.7-.4 1.5.7c1.8 2.4 2 9.4.3 13.3-.9 2.2-1.2 2.4-1.5 1-.5-1.8-2.8-2.3-3.8-.7-1.6 2.6-2.5.4-2.5-6.3s.9-10.5 1.8-7.8c.2.6 1.2 1.1 2.3 1.1m4.3 36.6c.8 2.1.8 13.9-.1 14.7-.3.4-1.3.2-2-.5-1.1-.9-1.9-.9-3.3 0-2.4 1.5-3-.1-3-7.7 0-6.4.6-7.7 2.8-5.8 1.2 1 1.7.9 2.6-.6 1.4-2.1 2.2-2.2 3-.1m130.2 38.6c.4.5.2 1.4-.4 2-.9.9-4.2-1.5-4.2-3.2 0-1.1 3.8-.1 4.6 1.2m-90.3 1.8c-.6 2.2-2.1 3.5-2.9 2.7-.7-.7 1.5-4.7 2.5-4.7.5 0 .7.9.4 2"/></svg>