<svg xmlns="http://www.w3.org/2000/svg" width="682.667" height="512" version="1.0" viewBox="0 0 512 384"><path d="M435.5 20.7c-9.8 5.1-25.8 17.2-40.6 30.6-4.3 3.8-9 7.7-10.7 8.7-1.6 1-5.8 4.4-9.3 7.7-7.6 7-12.4 10.5-28.4 20.6-6.6 4.2-14.7 9.9-18 12.6-7.6 6.6-8.7 6.4-6.9-1.3 1.5-6.3-5.7-13.3-11.1-10.8-2.8 1.3-3.5 3.5-.8 2.5.9-.4 1.4-.2 1.2.3-4.5 8.9-4.3 8.6-7.4 8-13.6-2.5-21.6-1.8-33.5 2.9-3 1.2-7.7 3-10.3 3.9-5.4 2-5.9 3.1-.7 1.6 1.9-.5 3.5-.8 3.7-.6s-2.6 2.5-6.2 5.1c-3.6 2.7-6.3 5-6 5.3.2.3 1.6-.3 2.9-1.2 3.8-2.4 3.8-2.1.2 3.3-3.6 5.2-5.3 13.4-4 18.6l.7 2.7 2.3-2.7 2.2-2.6-.1 5.3-.2 5.3h-7l-1.5-7.6c-2.7-12.8-10.9-24-21.4-29-7.6-3.6-13.5-4.5-20.2-3-5 1.2-5.6 1.1-8.2-.9-1.6-1.3-3.7-4.9-5.3-8.9C183 76.6 167.1 64 145.2 61c-16.1-2.2-28.5 2.2-40.7 14.4-18.9 18.9-26.2 49.4-16.7 69.4 5.1 10.9 17.5 21.7 30.9 26.9 5.9 2.3 8.3 2.6 17.8 2.6 7.7 0 12.3-.5 15.4-1.7 2.4-.9 4.6-1.5 4.8-1.3.4.5-14.1 14.4-19.1 18.3l-4 3.1 1.9 2.9c1.2 1.8 1.4 2.9.7 3.2-2.3.7-8.3 10.2-8 12.4.5 4 4.1 3.4 7.1-1.2 1.5-2.2 3.4-4 4.2-4 2.7 0 6.3 2.2 7.4 4.6.9 2 .6 2.7-2 5.4-2.7 2.6-2.9 3.3-1.8 4.6.7.9 1.8 2.6 2.4 3.8.6 1.1 1.9 2 2.8 2 2.1-.2 2.4 1 3.1 12.6 1 14.7 2.6 24.2 4.7 27.8 1 1.8 1.9 4.4 1.9 5.6 0 5 1.3 8.9 3.2 9.4 1.8.4 2.4 1.8 3.1 8 .3 2.6-.2 3.7-2.2 5.3-2.4 2-2.6 2.6-2.5 10 .2 10.3.9 12.8 3.9 13.9 2.2.8 2.5 1.5 2.5 6.2 0 4.5-.4 5.5-2.7 7.4-2.7 2.1-2.8 2.5-2.8 11.8s.2 9.7 2.8 11.9c2.5 2 2.7 2.6 2.1 7.4-.5 3.8-1.2 5.4-2.4 5.8-2.2.7-2.8 2.2-3.6 9.1-.6 5-.5 5.4 1.5 5.4 1.7 0 2.1-.6 2.1-3.4 0-1.9.3-4.2.6-5 .6-1.5.8-1.5 1.9.1 1.3 1.7 1.4 1.7 3.2 0 2.5-2.2 3.3-1.3 3.3 4 0 3.2.4 4.3 1.5 4.3 1.2 0 1.5-1.3 1.5-5.9 0-5.8-1.5-9.1-4.2-9.1-.7 0-.9-1.9-.5-5.7.5-4.5 1.1-6.1 3.2-7.8 2.7-2 2.7-2.3 2.4-11.8-.4-8.9-.6-10-2.7-11.6-1.7-1.3-2.4-3-2.9-7.2-.5-5.2-.4-5.5 2.2-6.7l2.7-1.2-.4-10.1c-.3-9.6-.4-10.2-3-12.3-2.3-1.8-2.8-3-2.8-6.8 0-7 3.4-10.1 12.6-11.6 3.9-.7 12.5-2.7 19-4.6s11.9-3.4 12.1-3.3c.1.1-.8 2.9-1.9 6.2-2.9 8.2-3.4 23.3-1.4 40.5 2.2 17.8 3.3 46.5 1.9 48.2-.6.7-1.4 2.9-1.8 4.8s-2 5-3.6 6.8-2.9 3.9-2.9 4.6c0 .8-1 2.1-2.2 2.9-2.1 1.5 4.4 1.6 73.8 1.6l76.1.1 5-6.3c7.6-9.4 16.6-21.5 20.9-28.1 4.9-7.5 5.7-14.9 2.4-24.5-3.7-10.9-10.6-19.4-40.4-49.2-.3-.3.1-4.3.9-9 .8-4.6 2.9-17 4.6-27.4 1.7-10.5 3.9-22.5 4.9-26.7 3.6-15.1 8.2-30.8 9.1-30.8.5 0 .9.7.9 1.6 0 .8.4 1.3.9 1s1.4.8 2 2.4c.5 1.7 1.7 3.3 2.6 3.6 2 .8 6.5-3.2 6.5-5.7 0-1.2.5-1.6 1.5-1.3 1 .4 1.8-.3 2.4-1.9.6-1.4 1.6-2.9 2.3-3.4 1.7-1 4.8-5.8 4.8-7.4 0-.6.9-2.2 2-3.6s2.5-4.3 3-6.4c.6-2.2 1.5-3.9 2-3.9.7 0 2.1-5.4 2.2-8.7 0-.5.7-1.7 1.4-2.8 1-1.3 1.4-5 1.4-11.5 0-12.2-1.6-15.2-9.1-17.4-10.2-3.1-19.4-1.1-27.7 5.8-2.8 2.4-3.7 2.7-6.8 1.9l-3.6-.8 2.9-3c1.6-1.7 9.6-9.4 17.9-17.2l15.1-14.2 3.7 1c5.1 1.4 9 .4 16.1-4.1 3.3-2.1 8.6-4.8 11.8-6 6.4-2.4 7-3.9 3.1-7.5-2.6-2.4-10.5-6.5-12.5-6.5-.7 0 1.7-1.5 5.2-3.3 6.7-3.4 7.9-5.4 4.2-7.3-2.2-1-2-1.4 6.4-12 4.8-6 10.8-13.1 13.3-15.7 2.5-2.7 4.8-5.5 5.3-6.2 1.2-2.1-.5-2.5-3.8-.8m-270 149.5c1.4.6 2.5 1.5 2.5 2 0 1.2-2.8 1-3.5-.3-.4-.6-1.7-1.4-2.9-1.9-1.6-.7-1.7-.9-.4-.9.9-.1 2.9.4 4.3 1.1m76.3 9.1c.3 4.4.6 4.9 4.3 6.8 2.3 1.1 3.9 2.6 3.6 3.2-.2.7-3.4 10-7.1 20.7s-6.8 19.5-6.9 19.5c-.1.1-2.2 1.3-4.7 2.7s-9 3.8-14.5 5.3c-12.2 3.2-28.1 8.3-31.7 10.1-3.1 1.6-2.6 2.9-5.4-14.9l-1.7-10.9 3.2-2.5 3.1-2.5-2.5-2c-4.9-3.8-6.7-15.6-3.4-23.3.6-1.7 1.1-4 1-5.3-.2-2.2-.2-2.2 4.5.7 6.1 4 13.4 5.5 23.2 4.9 10.4-.6 19.1-4.7 26.5-12.4 6.4-6.6 8.1-6.6 8.5-.1m-77.5 95.3c.9.9-.4 3.5-1.4 2.8-.5-.3-.9-1.2-.9-2 0-1.4 1.2-1.9 2.3-.8m5.2 2.3c.3.5.1 1.2-.4 1.5s-1.1-.1-1.5-.9c-.6-1.6.9-2.1 1.9-.6m2.3 30.6c.3 5.1.1 7.5-.7 7.5-.6 0-1.1-.5-1.1-1 0-1.4-3.8-1.2-4.3.2-.9 2.6-2.1-.4-2.5-6.2-.5-6.9.2-10 2-8.2 1.7 1.7 3.8 1.5 3.8-.5 0-1.3.3-1.4 1.2-.5.7.7 1.4 4.6 1.6 8.7M294.2 318c.9-2.5 2.9 6.5 3.1 14.3s-2.5 24.3-4.7 28.5l-1.3 2.6-1.4-2.5c-1.9-3.4-1.9-35.2 0-43.4l1.4-6 1.1 4c.8 2.5 1.4 3.4 1.8 2.5m46 7.4 6.7 5-2.8 3.5c-1.5 2-5.2 7.2-8.2 11.6l-5.4 8-.5-5.1c-.3-2.8-1.1-5.8-1.8-6.7-1.1-1.3-.9-3.3 1.4-11.7 1.5-5.5 3-9.9 3.3-9.8.3.2 3.6 2.5 7.3 5.2m-171.1 11.8c3.1-2 4-.1 3.7 8.2-.2 4.9-.7 7.1-1.7 7.4-.8.3-1.1 0-.7-.7 1.2-1.9-2.6-2.6-3.9-.7-1.2 1.5-1.3 1.5-1.9 0-.8-2.1-.8-13.9.1-14.7.4-.4 1-.2 1.5.5.6 1 1.2 1 2.9 0M299 357.6c-1.1 6.4-2.3 12.1-2.6 12.6-1.2 1.8-2.4.6-2.4-2.5 0-3.4 6.3-24.4 6.8-22.8.2.5-.6 6.2-1.8 12.7m2.6 16.1c-1 1-1.9-.5-1-1.8.6-1.1.8-1.1 1.2 0 .2.7.1 1.5-.2 1.8m-93 5.8c-.4 1.4-1.1 2.5-1.6 2.5-1.3 0-1.3-1.6.1-4.2s2.3-1.6 1.5 1.7m91.4-1.6c0 .4-.8.7-1.9.7s-1.7-.6-1.4-1.3c.5-1.2 3.3-.7 3.3.6"/></svg>