<svg xmlns="http://www.w3.org/2000/svg" width="682.667" height="512" version="1.0" viewBox="0 0 512 384"><path d="M434.9 29.1c-11.3 6.8-16.4 10.6-29.4 21.4-6 5-13.2 10.7-16 12.5-2.7 1.9-8 6.1-11.6 9.4-3.7 3.4-13 9.8-21 14.6-7.9 4.7-18.1 11.3-22.6 14.7-8.7 6.6-11.1 7.7-9.3 4.4 2-3.9 1.2-9.1-1.9-12.2-3.2-3.2-4.5-3.4-8.7-1.9-2.1.8-2.4 1.4-1.6 2.2 1.7 1.7 1.5 4.3-.6 6.2-1.8 1.5-2.6 1.5-11.5 0s-10.2-1.5-16.9 0c-7 1.6-14.9 4.2-21.3 7.2l-3 1.4 3.3-.6c3.9-.7 4.2.9.5 2.5-1.6.7-4.4 2.6-6.3 4.3-3.2 2.8-3 3 1.6 1.2 1-.4.4 1-1.5 3.7-3.4 4.9-5.7 14.2-4.6 18.6.6 2.6.8 2.6 1.9 1 2-2.7 2.6-2.1 2.6 2.8 0 4.4-.1 4.5-3.2 4.5-5 0-6-1.3-6.9-7.9-1.2-8.5-4.3-14.4-11.6-22.2-8.8-9.2-13.5-11.2-26.2-10.7-9 .3-9.7.2-12.2-2.2-1.5-1.4-3.7-5.2-4.8-8.5-2.8-8-10.3-18.8-16.5-23.8-19.9-15.8-45.2-17.2-63.7-3.6-22.2 16.5-33.3 52.4-23 74.5 5.2 11.2 18.5 22.7 31.8 27.6 8.9 3.3 25.2 3.1 35.1-.4 6.7-2.4 7.5-2.5 10.2-1.1 2.9 1.4 4 3.3 2 3.3-.6 0-2.2-.7-3.5-1.6-2.2-1.4-2.7-1.4-6 .2-2 .9-5.5 3.9-7.8 6.6s-6.8 6.9-10 9.4c-5.9 4.7-6.7 6.3-4.2 8.4 1.3 1.1 1.1 1.7-1.6 4.7-3.9 4.5-6.4 9.7-5.6 11.7 1.1 2.9 4.3 1.8 7.1-2.4 1.4-2.2 2.8-4 3-4 2.1 0 6.8 2.7 8.1 4.7 1.6 2.3 1.5 2.6-.2 4.6-1 1.2-2.5 2.7-3.3 3.3-1.3 1.1-1.3 1.4.1 3.1.9 1 1.9 2.6 2.2 3.5.4 1 1.5 1.8 2.6 1.8 2.4 0 2.5.9 4.1 19.5.6 7.1 1.7 15.2 2.5 18 .8 2.7 1.7 7.6 2 10.7.4 4 1.2 6.2 2.5 7.1 1.2.8 2 3.1 2.5 6.9.6 5.1.5 5.7-1.4 6.3-2.8.8-3.4 3.8-2.9 13.6.3 7.4.6 8.3 3.1 10.3 2.3 1.9 2.7 2.9 2.7 7.4 0 4-.4 5.3-1.9 6.1-2.5 1.4-3.3 6.4-2.5 14.7.6 5.4 1.2 7.3 3.2 9.1 3.5 3.2 4.5 12.6 1.5 14.2-3.7 1.9-4 14.1-.4 14.1 1.3 0 1.5-.9 1.3-4.5l-.4-4.5 3.1.6c2.6.5 3.1.3 3.1-1.2.1-1.8.1-1.8 1.5 0 .8 1.1 1.5 3.7 1.5 5.8 0 3.1.4 3.8 2 3.8 1.3 0 2-.7 2-2 0-3.4-2.1-12-3-12-4.2 0-5.6-10.7-1.8-14.7 1.8-1.9 2.1-3.3 2-10-.2-10.4-.8-12.8-3.7-14.1-2.2-1-2.5-1.8-2.5-6.6 0-4.4.4-5.6 2.2-6.9 2.1-1.3 2.3-2.2 2.3-11.2 0-9.3-.1-9.8-2.7-11.8-2-1.7-2.7-3.2-3-6.8-.3-4 .1-4.9 2.7-7.6 2.5-2.4 4.3-3.2 9-3.7 7-.9 11.8-1.9 23.8-5.3 4.9-1.4 9-2.3 9.3-2.1.2.2-.6 2.9-1.8 5.9-2.6 6.8-3.5 23.2-2 37.4.6 5.5 1.6 19.1 2.3 30.3 1.1 18.4 1 20.4-.5 22.1-.9.9-1.6 2.8-1.6 4s-1.3 3.9-2.8 5.9c-1.6 2-3.4 4.9-4 6.4L201 384h75.3l75.2-.1 7-8.5c12-14.7 21.5-27.7 22.6-31.2.6-1.9.9-6.4.7-10.2-.3-5.4-1.1-8.3-4.3-14.6-3.4-6.9-6.3-10.3-22.3-26.5l-18.3-18.7 3.1-15.8c5-25.7 7.9-37.9 13.1-55.4 5.2-17.2 6.5-20.1 7.5-16.2.4 1.2 1 2.2 1.4 2.2s1.2 1.1 1.8 2.5 1.8 2.5 2.7 2.5c2.4 0 6.4-4 5.8-5.8-.5-1.1-.2-1.4 1.1-.9 1.1.4 1.9.1 2.3-1.1.4-.9 1.6-2.4 2.6-3.2 3.3-2.7 14-22.7 15.2-28.3.4-1.8 1.1-3.7 1.6-4.3s1.5-4.7 2.1-9c2-14.1-1.5-19.7-14-22.4-7.3-1.5-12.6-.1-20.9 5.6-4.6 3.2-5.8 3.5-9 2.9l-3.7-.7 6.5-6.1c3.6-3.4 11.6-10.9 17.9-16.7l11.4-10.5 7.5.3c7.3.3 7.8.2 13.1-3.4 3-2 8.2-4.6 11.5-5.8 4.5-1.6 6.1-2.6 6.3-4.3.4-2.6-4.6-6.7-11.2-9.2l-4.5-1.7 6.4-2.8c7.1-3.1 8.4-4.8 5.3-7-1.9-1.3-1.9-1.7-.7-3.3 3.6-4.6 23.8-28 25.2-29.2 1.6-1.3 1.5-3.1-.2-3.1-.4 0-4.6 2.3-9.2 5.1M247.1 158.3c-1.3 1.3-1.5-1.1-.4-4 .7-1.6.8-1.5 1.1.6.2 1.3-.1 2.8-.7 3.4m-5.7 15.8c2.1 1 2.4 1.8 2.3 5.2-.2 3.7.1 4.3 4 6.9 4.1 2.8 4.2 3 2.9 5.6-.7 1.5-4 10.7-7.1 20.4l-5.8 17.7-5.1 2.6c-2.8 1.5-12.4 4.7-21.3 7.1-9 2.4-19 5.4-22.3 6.7l-6 2.5-.5-2.2c-.2-1.1-.9-5.7-1.5-10.1s-1.5-9.5-2-11.3c-.9-3.4.1-5.1 4.2-7.3 2-1.1 2-1.1-.6-3.3-2.9-2.3-5.6-9.2-5.6-14s3.5-18.2 4.4-16.8c.4.7 3.1 2.5 5.9 4 4.8 2.5 6.1 2.7 16.7 2.7 10.7 0 11.9-.2 17.4-2.9 3.4-1.7 8.4-5.4 11.5-8.6l5.8-5.8c.1-.1 1.3.3 2.7.9m-77.5 101.5c-1.7 2.1-2.9 1.7-2.9-1.1 0-2.3.2-2.4 2.1-1.5 1.6.9 1.8 1.4.8 2.6m5.1 1.5c0 1.4-1.7 1-2.3-.5q-.6-1.5.9-.9c.7.3 1.4.9 1.4 1.4m1 30.6c0 4.2-.4 7.3-1 7.3-.5 0-1-.5-1-1 0-.6-.9-1-2-1s-2 .5-2 1.1c0 .5-.4.7-1 .4-.5-.3-1-4-1-8.1 0-4.3.4-7.4 1-7.4s1 .4 1 1c0 1.6 3 1.1 3.7-.6 1.2-3.1 2.3.9 2.3 8.3M293.4 323c2.8 18.4 2.9 22 .7 31-1.2 4.6-2.3 8.6-2.6 8.9-2.4 2.3-5.1-17.7-4-29.9.6-7.1 3.4-20.5 4.1-19.7.2.1 1 4.6 1.8 9.7m53.1 8.1c0 .5-4.9 7.9-11 16.4l-11 15.5-.3-9.5c-.2-6.8.3-11.6 1.7-17.2 1-4.3 2.2-9.8 2.6-12.3s.9-4.8 1.2-5.2c.5-.9 16.8 11.1 16.8 12.3m-181.2 6.1c.3 1 .9 1 2.7 0 3.2-1.9 4-.3 4 8.2 0 6.1-.2 6.7-1.6 5.5-1.3-1-1.9-1-3.6 0-1.1.7-2.3 1-2.6.6-1.2-1.1-1.5-15.5-.4-15.5.6 0 1.2.6 1.5 1.2m130.1 32.7-.7 2.6-.8-3q-.9-3 .3-7.5l1.3-4.5.3 4.9c.2 2.7 0 6.1-.4 7.5m-87.4 11c-1 2-3 2.9-3 1.3 0-.4.8-1.8 1.7-3.2 1.9-2.7 3-1.2 1.3 1.9"/></svg>