<svg xmlns="http://www.w3.org/2000/svg" width="682.667" height="512" version="1.0" viewBox="0 0 512 384"><path d="M0 192v192h467.5l-.7-8.7c-1.2-14.9-2-21-4.7-34-1.9-9.1-6.1-23.2-9.3-31.2-2.6-6.4-12.5-25.8-13.8-27.1-.7-.6-4.1-5.6-5.5-7.9-1.7-3-7.8-10-15.2-17.9-7.1-7.5-7.3-7.8-7.2-12.7 0-2.8-.2-8.4-.5-12.5l-.6-7.5 1.6 4.3c1 2.8 2.1 4.2 2.9 3.8.8-.3 1.6 0 1.8.7 1.2 3.4 2.4-2.6 5.8-28.8 2.6-20.5 3.4-24.6 5-25.6 2.3-1.5 2.7-1.1 4.9 4.8 1.2 3.2 3.5 9.3 5.2 13.5 2.8 7.1 3.2 7.6 4.6 6.1 1.5-1.4 1.4-2.5-.6-12.7-2.6-12.7-2.6-12.6-1.2-12.6.6 0 2.3-.9 3.8-1.9 4.1-2.9 7.9-3.5 9-1.4.6 1 3.8 9 7.1 17.8 7 18 10.1 25 23.2 52 5 10.4 13.1 27.4 17.9 37.6s9.2 19.4 9.8 20.5c.8 1.4 1.1-38.2 1.2-150.4V0H0zm381-47.1c1.3 2.5 12.2 38.1 14.9 48.8 2.9 11.2 2.8 11.9-.9 9.1-3.3-2.4-3.8-4.3-1.5-5.2 1.3-.5 1.2-1.3-.7-6.3-3.8-10.2-5.1-11.8-12.6-15.2-.8-.3-2.4-3.1-3.7-6.2l-2.2-5.6 2.8-3.3c2.6-3 2.7-3.4 1.4-5.3-1.8-2.6-1.9-4.6-.3-8.4.6-1.5 1.1-3.1 1-3.6-.3-1.4.7-.7 1.8 1.2m20.5 78.3c.6 2.2.4 2.8-.8 2.8q-3.3 0-2.1-4.5c.7-3 1.9-2.3 2.9 1.7"/></svg>