<svg xmlns="http://www.w3.org/2000/svg" width="682.667" height="512" version="1.0" viewBox="0 0 512 384"><path d="M0 192v192h285.1l5.5-11.8c3-6.4 6.1-13.1 6.9-14.7 6.2-13.8 11.1-23.2 15.7-29.9 9.9-14.7 11.1-16.7 11.1-19.1 0-4.1-21.7-35.8-43.1-63-16.5-20.9-17.6-21.8-30.5-24-4.5-.8-12.2-2.7-17.1-4.2-10.4-3.2-15.8-7.5-25.6-20.5l-6-7.9v-22.6l4.4-4.4c2.4-2.4 6.9-6.9 10-9.9s5.4-6.1 5.1-6.8c-.3-.6-.8-1.9-1.1-2.7-.8-2 2-2 3.6 0 1.1 1.3 1.9 1 6.2-2.4 6.3-5.1 10.4-6.4 18.6-5.9 8.7.5 14.7 3.4 22.4 11.1 10.4 10.2 16.6 27.1 14.4 38.9-.3 1.9-2.2 5.3-4.1 7.5l-3.5 4.1 7.2 5.9c4 3.2 16 14.5 26.8 25 10.8 10.6 19.9 19.3 20.3 19.3s.7-.9.7-1.9c0-1.1.5-2.3 1.1-2.7.7-.4-.2-2-2.4-4.3-6.4-6.5-7.3-12.7-3.1-19.9 1.5-2.5 6.3-9.3 10.7-15.1 10.9-14.3 11.8-16.6 11.2-27.9-.5-8.9-.4-9.2 2.3-12.4 1.6-1.8 4.3-5.4 6.1-8 4.1-5.7 3.8-7.1-2.4-16.3-2.5-3.6-4.5-6.9-4.5-7.4s1-1.5 2.2-2.3c1.4-.9 1.9-2 1.5-3.1-1-2.6-2.2-2-4.1 2-1.7 3.4-1.9 3.6-2.7 1.8-.4-1.1-.8-3.4-.8-5.2l-.1-3.2-6 2.5c-3.4 1.3-8.1 2.7-10.6 3.1-5.5.7-7.4-.8-11.5-8.9-1.6-3.1-3.7-5.9-4.9-6.3-1.1-.3-2.2-1.6-2.5-2.8s-1.9-3-3.5-3.9c-2.2-1.2-3.3-3-4.2-6.4-1.1-3.9-1.9-4.9-5.3-6.5-2.3-1.1-4.9-3.2-5.8-4.8-1.7-2.9-1.7-2.9 1.5-5.5 2.2-1.6 2.9-2.9 2.3-3.5C295.8 75.5 287 72 287 73c0 .5-1.2-.3-2.6-1.7-1.8-1.8-2.8-2.2-3.3-1.4s-1.5.3-3.1-1.4-2.6-2.1-3.1-1.4c-.4.8-1.3.3-2.4-1.4-1.9-2.9-7.7-6.7-10.3-6.7s-18.4-10-18.9-11.9c-.5-2.1-18.9-13.5-20.3-12.6-.6.4-2.7-.7-4.8-2.3-2-1.6-4.4-3.1-5.2-3.4-3.4-1.3-17.9-13.3-22.3-18.6-4-4.8-4.5-5.9-3.3-6.8 4.5-3.2.3-3.4-94.1-3.4H0zm509 6.7c0 .5.7 1.7 1.5 2.7 1.4 1.9 1.5 1.9 1.5-.7 0-1.7-.5-2.7-1.5-2.7-.8 0-1.5.3-1.5.7m-7 17.2c0 .5 2 5.1 4.3 10.3 2.4 5.1 4.7 10 5 10.8s.6-2.7.6-7.7l.1-9.3-5-2.5c-2.7-1.4-5-2.1-5-1.6m-118.5 95.3c-6.8 6.9-14 11.9-20.4 14.1-4.2 1.4-4.6 1.8-7.1 8.3-4.2 10.7-8.1 17.7-19.3 34.4l-10.4 15.5 37.1.3 37.1.3 2.8-3.3c5.2-6 12.3-17.2 14.7-23.1l2.3-5.8-2.1-2.7c-1.2-1.5-4.9-7.9-8.2-14.3-5.6-10.9-18.3-29.9-19.8-29.9-.4 0-3.4 2.8-6.7 6.2"/></svg>