<svg xmlns="http://www.w3.org/2000/svg" width="682.667" height="512" version="1.0" viewBox="0 0 512 384"><path d="M439.9 30.9c-7.4 4.3-20.9 13.3-23 15.3-3.4 3.2-21.8 17.6-25.9 20.2-2.4 1.6-7 5.2-10.2 8-3.1 2.9-10.5 8-16.5 11.5-19.2 11.3-25.2 15.1-30.8 19.8-3.1 2.5-5.8 4.3-6 4.1s.1-2.2.7-4.4c1-3.6.9-4.6-.8-7.5-2.3-3.8-5.9-5.5-9.8-4.5-2.9.7-3.5 2.3-1.1 2.8 1.3.3 1.3.8-.4 3.8-1 1.9-2.5 3.4-3.2 3.3-.8-.1-5.7-1-10.9-1.9-10.3-1.9-17.1-1.2-25.5 2.5-2.3 1-6.4 2.4-9.3 3-5.6 1.4-7.2 3-2.1 2.3 3.9-.6 3.2 1-1.1 2.8-1.6.7-3 1.6-3 2.1s-1.4 1.6-3.1 2.4c-3.6 1.9-3.3 3 .5 1.6 3.2-1.3 3.2-.8.2 3.2-2.8 3.7-4.6 10.4-4.3 16.4.1 4 .2 4.1 1.9 2.6 1-.9 1.8-1.2 1.9-.7 0 .5.5 0 1-1.1.8-1.7.9-1.7.4.5-.2 1.4-.5 3.8-.5 5.3 0 2.8-.1 2.8-5.5 2.5l-5.5-.3V142c0-9.8-5.1-20.1-14.1-28.5-7.2-6.8-10.5-7.9-22.9-8-10.5 0-10.5 0-13.7-3.2-1.8-1.8-3.3-4-3.3-4.9s-1.6-5.1-3.6-9.2c-5.2-10.8-14.7-20.1-26.2-25.5-8.5-4-9-4.1-21.3-4.5-11.3-.4-13-.2-18 1.9-18.1 7.6-32.8 26.8-37.5 48.8-4.7 22.4 2.6 40.3 21.6 53 15.6 10.5 31.4 12.4 48.9 5.9 5.1-2 5.5-2 8.9-.3 2.6 1.2 3.2 1.9 2.2 2.5-.8.5-2.3.2-3.8-.8-2.2-1.4-2.7-1.4-5.9.3-1.9 1.1-5.6 4.2-8.1 7-2.6 2.7-7.1 6.8-9.9 9-5.5 4-6.4 6.3-3.8 8.5 1.4 1.2 1.3 1.6-.8 3.9-2.7 3-7.7 10.2-7.7 11.3 0 1 3 3.8 4.1 3.8.5 0 2.1-1.8 3.5-4 3.2-4.7 6.3-5.2 9.9-1.5 3.2 3.1 3.1 4.7-.4 8.3-2.9 2.8-2.9 2.9-1 4.5 1 .9 1.9 2.4 1.9 3.2s1.1 1.7 2.5 2.1c1.7.4 2.5 1.3 2.5 2.8.1 4.7 3 30.9 3.9 34.4.5 2 1.2 6.7 1.6 10.5.5 5.2 1.1 7 2.6 7.7 3 1.6 2.7 11.5-.3 14-2.1 1.7-2.3 2.7-2.3 11.5 0 9 .2 9.9 2.2 11.3 2 1.2 2.3 2.3 2.3 7.3 0 4.8-.4 6-2 6.9-1.8 1-2 2.1-2 11.1 0 9.4.1 10.1 2.5 12.3 1.9 1.7 2.7 3.8 3.2 7.5.5 4.5.3 5.3-1.8 7-2 1.6-2.3 2.8-2.4 7.7 0 4.8.3 5.9 1.8 6.2 1.4.3 1.7-.4 1.7-4.7 0-2.8.5-5.1 1-5.1.6 0 1 .4 1 1 0 1.7 2.8 1.1 3.9-.7 1.4-2.6 2.3-1 2.9 4.7.4 4.1.8 5 2.3 5 1.7 0 1.9-.6 1.3-5.7-.8-6.9-1.7-8.9-4.4-9.8-1.7-.5-2-1.5-2-6.2 0-4.5.4-5.8 2.3-7.3 2-1.7 2.2-2.7 2.2-11.5 0-9.4-.1-9.8-2.8-11.9-2.4-1.9-2.7-2.9-2.7-7.8 0-4.7.3-5.8 1.9-6.3 2.3-.7 3.1-3.3 3.1-10.6 0-8.6-.9-11.9-3.6-13-2.1-.7-2.4-1.5-2.4-6.4s.3-5.7 2.5-6.7c1.3-.6 2.5-1.7 2.7-2.5.2-1.1 2.2-1.6 6.9-1.9 3.7-.3 12.7-2 20-3.8 7.4-1.9 13.5-3.3 13.6-3.2.1 0-.8 2.8-2 6.1-2.6 7.5-3.4 26.6-1.8 41.7 1.8 16.3 2.6 47.4 1.3 48.2-.7.4-1.2 2-1.2 3.6s-1.1 4.1-2.4 5.7c-2.6 3.2-4.6 6.7-4.6 8.2s3 1.4 3-.2c0-.6.8-2.1 1.6-3.2 1.5-1.9 1.6-1.8.9 1.2l-.7 3.3 72.4-.1h72.3l6.8-7.9c12-13.8 19.9-24.3 22.5-29.9 2.1-4.6 2.4-6.2 1.8-11.7-1.3-13.1-5.6-19.5-28-42.2L337.5 275l3.9-19.3c5-24.8 7.4-34.3 13.8-54 3.1-9.8 5.3-15.3 5.6-13.9.2 1.2.7 2 1.2 1.7s1.4 1 2.1 3c.7 1.9 2.1 3.8 3.2 4.1 2.1.6 5.3-1.8 6.2-4.7.4-1.1 1.3-1.9 2.1-1.9s1.4-.5 1.4-1c0-.6 1.2-2 2.6-3.2 1.4-1.3 3.3-3.9 4.1-5.8.9-1.9 2.6-4.6 3.8-6s2.6-3.9 2.9-5.5c.4-1.7 1.3-3.7 2.1-4.5.7-.8 1.8-3.3 2.5-5.5.6-2.2 1.8-5.4 2.6-7.2.8-1.7 1.1-3.8.8-4.7s-.2-2.2.4-2.9c1.5-1.8.7-13.3-1.2-16.1-2-3.1-11.2-6.6-17.4-6.6-5.1 0-12.3 3-18.1 7.4-2.2 1.6-3.8 2.2-4.5 1.7-.6-.5-2.4-1.1-3.9-1.3-2.7-.3-2.3-.8 6.9-8.8 5.4-4.7 10.2-9 10.8-9.5.6-.6 4.7-4.3 9.2-8.3l8.1-7.2 3.6 1.5c6.3 2.6 9.6 1.9 18.2-3.9 2-1.4 6.5-3.4 10.1-4.6 5.5-1.9 6.5-2.5 6.2-4.3-.4-2.6-9.1-9.4-13.3-10.3-2.9-.7-2.9-.7 2.4-2.5s9.1-4.4 9.1-6c0-.5-1.1-1.4-2.5-2.2l-2.6-1.3L430 49.6c5.5-6.6 12.1-13.9 14.5-16.3 7.5-7.4 5.6-8.4-4.6-2.4M250 155.1c0 2-2.6 4.4-3.4 3.1-.3-.6-.1-2.4.5-4.2.9-2.3 1.4-2.8 2-1.8.5.7.9 2 .9 2.9m-7.2 18.5c2.1.6 2.2 1.1 1.7 4.9-.6 3.8-.4 4.4 2.3 6.6 1.6 1.3 3.7 2.9 4.7 3.4 1.6 1 1.6 1.3.3 4-.9 1.7-4.1 10.7-7.3 20.2l-5.7 17.2-6.2 3c-3.3 1.7-10.8 4.2-16.6 5.7-5.8 1.4-15.4 4.1-21.3 6.1-6 1.9-11 3.3-11.2 3.1s-1-5.3-1.9-11.3c-.9-6.1-1.9-12.1-2.2-13.5-.4-2 .1-2.9 2.5-4.3 3-1.7 4.1-3.7 2.2-3.7-3 0-8.4-16.5-6.3-19.3.5-.7 1.4-3.7 2.2-6.8l1.3-5.7 7.3 3.5c7.3 3.5 7.6 3.5 17.7 3.1 12.5-.5 19.3-3.3 27.1-11.3 5.5-5.6 5.9-5.8 9.4-4.9m-74.3 103.2c-.2.3-1.1-.1-1.9-.7-.8-.7-2.4-1-3.6-.6-1.6.5-2 .2-2-1.9v-2.5l4 2.6c2.2 1.5 3.8 2.9 3.5 3.1m.9 23.4c1.5 5.7 0 15.9-1.8 12.9-.9-1.4-4.6-1.5-4.6-.1 0 .5-.4 1-1 1s-1-3.2-1-7.5V299l3 .6c1.9.4 3 .2 3-.5 0-2 1.8-1.2 2.4 1.1m125.1 33.5c1.5 14.5 1.8 29 .7 33.1-.7 2.1-.8 2.1-3.5-1.3-3.4-4.2-4.6-11.2-4.7-25.2 0-8.3 1.7-19.6 3.6-24.8.7-1.7.9-1.6 1.6 1 .4 1.7 1.5 9.4 2.3 17.2m42-10.7c1 1.1 4 3.4 6.6 5.1 2.7 1.7 4.9 3.3 4.9 3.5s-2.6 3.7-5.8 7.7c-3.2 3.9-8.6 11.1-12.1 16-3.4 4.8-6.5 8.7-6.8 8.7s-.3-3.6 0-8 .2-8-.3-8c-1.7 0-1.8-3.2-.3-8.2l1.7-5.3 1.1 7.5c1 6.6 1.3 7.2 2.2 5 .5-1.4 1.8-6.8 2.7-12 2.5-13.7 2.6-14 3.5-14 .4 0 1.6.9 2.6 2M170 343.5c0 3.3-.5 6.7-1 7.5-.6 1-1 1.1-1 .2 0-1.5-3.2-1.6-4.7-.1-1.2 1.2-2.4-8-1.6-12.4.4-2.2.8-2.5 2-1.6 1.1 1 1.8.9 3.1-.4 2.3-2.4 3.2-.5 3.2 6.8"/></svg>