<svg xmlns="http://www.w3.org/2000/svg" width="682.667" height="512" version="1.0" viewBox="0 0 512 384"><path d="M445.5 31.7c-10.4 5.5-22.4 13.5-33.1 22-6 4.8-13.1 10.4-15.8 12.3-2.6 1.9-8.2 6.2-12.5 9.5-4.3 3.4-12.7 8.9-18.7 12.4-18.1 10.6-25.1 15-30.4 19.2-2.7 2.1-5.1 3.9-5.3 3.9s.1-1.8.6-4c2-7.3-3.8-14.2-10.1-11.9-2.1.8-3.1 2.9-1.3 2.9 1.4 0 .1 3.7-1.9 5.5-1.6 1.5-2.3 1.5-8.1-.1-10.8-2.8-19.8-2.4-31.9 1.5-9.9 3.2-16.1 6.2-9.7 4.7 1.5-.3 2.7-.2 2.7.3s-1.2 1.4-2.7 2c-1.6.7-4.4 2.6-6.3 4.2-3.2 2.9-3 3 1.8 1.2 1.2-.4.9.3-1 2.3q-5.85 6.3-6.3 17.4l-.3 6.5 2-2.4c2.4-3 3.6-1.7 3 3.4-.4 3-.8 3.5-3.1 3.5-6 0-6.8-.8-7.5-6.8-1.3-11.2-4.1-17.5-11.6-25.5-9.5-10.1-14.1-12.1-26.6-11.5-9 .5-9.2.4-11.7-2.2-1.4-1.5-3.5-5.6-4.7-9.1-3-8.9-6.5-14.5-13.5-21.4-7.2-7.1-15.6-11.8-26.1-14.5-18.7-4.8-33.5-.2-47.7 14.9-11.2 11.9-18.3 27.8-19.4 43.4-.7 9.9.7 17.5 4.8 25.6 5.5 11.1 20.5 22.3 35.3 26.6 7.7 2.2 20.6 1.6 29.5-1.4 6-2.1 6.5-2.1 9.7-.6 1.9.9 3.4 2 3.4 2.5 0 1.5-3.2 1.2-5.1-.6-1.5-1.4-2-1.4-4.6-.1-1.5.9-5.7 4.4-9.3 7.9s-8.5 8-11 10l-4.5 3.6 1.7 3c1.7 2.8 1.7 3-.4 4.8-1.1 1.1-3.3 3.9-4.9 6.4-2.1 3.3-2.5 4.9-1.8 6.2 1.6 3.1 4.6 2.1 7-2.2 2.5-4.4 4-4.5 8.9-1.1 3.6 2.6 3.6 5.3 0 9-2.6 2.5-2.9 3.2-1.6 3.7.9.3 1.6 1.4 1.6 2.3 0 2.1 1.9 4.1 4 4.1 1.4 0 1.8 2.5 2.8 16.9.7 9.2 1.8 18.6 2.6 20.7.7 2.1 1.6 6.5 2 9.7.7 5.3 2.5 8.7 4.7 8.7.5 0 .9 2.3.9 5.1 0 4.4-.4 5.5-3 7.9-2.9 2.7-3 3.1-3 11.9 0 8.7.1 9.1 2.6 10.8 2.4 1.6 2.6 2.1 2.1 7-.4 4-1.2 5.9-2.9 7.2-2 1.7-2.3 3-2.7 10.5-.4 10.3.2 13.2 2.9 13.9 1.7.4 2 1.3 2 5.9 0 4.7-.4 5.7-3 8-2.7 2.4-3 3.2-3 8.7 0 4.7.3 6.1 1.5 6.1 1 0 1.6-1.6 2.1-5 .6-4.6.8-4.9 2.9-4.4 1.6.4 2.6 0 3.3-1.3 1-1.7 1.1-1.7 1.9.2.4 1.1.7 3.9.7 6.2-.1 3.6.2 4.3 1.9 4.3 1.8 0 1.9-.6 1.5-6.6-.3-5.3-.8-7-2.6-8.4-3.3-2.7-3.2-11.4.2-14.5 4.7-4.4 4.7-21.1-.1-24.2-2.3-1.5-2.5-2.1-1.8-6.7.5-3.9 1.3-5.6 3.3-7.3 2.6-2 2.7-2.5 2.7-11.3 0-8.9-.1-9.3-2.9-11.5-2.6-2.1-2.8-2.6-2.1-7.2.9-7 4.6-9.7 14-10.6 3.9-.4 12.3-2 18.8-3.6 10.1-2.4 11.7-2.6 11.2-1.2-5.6 14.5-6.3 22.7-4.2 47.6 2.6 30 3 45.6 1.2 49.1-.8 1.6-1.5 3.6-1.5 4.5s-.7 2.2-1.6 3c-1.7 1.4-4.4 6.2-4.4 7.9 0 .5.7 1 1.5 1s1.5-.6 1.5-1.4c0-.7.7-1.9 1.5-2.6 1.2-1 1.5-1 1.5.2 0 .8-.5 1.9-1.2 2.6-.9.9 15 1.2 71.8 1.2l72.9-.1 8.7-9.7c11.5-13 19.4-23 21.4-27.1 2.6-5.4 1.5-18.1-2.1-25.1-4.1-8.1-7.3-11.9-24.4-29.2l-15.5-15.7 1.2-6.3c.6-3.5 2.1-11.5 3.2-17.8 4.3-24 9.4-43.6 15.7-60.7 1.7-4.5 3.3-4.8 3.3-.7 0 1.4.4 2.3.9 2s1.4.8 2 2.4c.5 1.7 1.7 3 2.6 3 2.6 0 6.5-3.1 6.5-5.1 0-1.1.4-1.8.8-1.7 1.4.5 7.9-6.6 10.1-10.9 1.1-2.3 2.5-4.4 3.1-4.8 1-.6 8-14.6 8-15.9 0-.4 1-2.8 2.1-5.4 1.7-3.6 2.2-6.8 2.3-13.9.1-8.4-.1-9.3-2.4-11.7-1.5-1.6-5.1-3.5-9.3-4.8-6.1-1.8-7.6-1.9-12.2-.9-3 .7-8 2.9-11.2 5-4.8 3.1-6.3 3.6-8.3 2.9-1.4-.5-3.3-.7-4.2-.4-3.8.9-1.3-1.8 10.9-12.1 7-6 15.6-13.4 18.9-16.6l6.2-5.8 4.3 2.1c5.4 2.8 11 2.3 16.6-1.4 2.3-1.5 7.4-4 11.4-5.4 4-1.5 7.4-3.2 7.6-3.8.6-1.9-4.7-7.4-9.5-9.8l-4.6-2.3 5.1-1.7c2.8-.9 5.7-2.4 6.4-3.3 1.1-1.3 1-1.8-1-3.4-1.3-1.1-2.9-1.9-3.7-1.9s-1.4-.4-1.4-.8c0-1.1 14.2-17.6 23.1-26.8 3.8-4 6.9-7.7 6.9-8.3 0-1.4.2-1.5-5.5 1.6M250 157.4c-1.7 1.7-2.9-.6-1.8-3.4l1-2.5.9 2.4c.6 1.6.6 2.8-.1 3.5m-6.6 15.6c2.3.9 2.5 1.3 1.9 5.8-.5 4.5-.3 5 2.4 7.3 1.7 1.3 3.9 2.9 4.9 3.5 1.9 1.1 1.9 1.2 0 6-1 2.7-4.2 11.6-7.1 19.9-2.9 8.2-5.9 15.2-6.6 15.6-.8.3-3.4 1.6-5.9 2.7-2.5 1.2-11 3.7-19 5.6s-17.8 4.6-21.9 6c-4 1.4-7.7 2.3-8.2 2s-.9-1.7-.8-3.2-.6-7.4-1.5-13.2l-1.7-10.5 3.1-2.4 3.1-2.4-2.5-2.6c-1.5-1.6-3.2-5.4-4.3-9.2-1.5-6-1.6-6.9-.1-10 .9-1.9 1.9-5 2.3-6.9 1.1-5.1 1.1-5.1 6.3-2.5 7.1 3.6 13.4 4.8 21.7 4.3 9.4-.6 18.4-4.8 25.2-11.7 5.4-5.5 5.3-5.4 8.7-4.1m-79 99.9c.4.5.3 1.7 0 2.6-.5 1.3-.8 1.4-1.5.3-.5-.7-.9-1.9-.9-2.6 0-1.4 1.6-1.6 2.4-.3m5.6 3.1c0 .5-.2 1-.4 1-.3 0-.8-.5-1.1-1-.3-.6-.1-1 .4-1 .6 0 1.1.4 1.1 1m0 28.3c0 4-.5 7.9-1 8.7-.7 1-1 1.1-1 .2 0-2.2-3-2.6-4.5-.6-1.3 1.7-1.4 1-1.5-6.3V298l3 .6c2.4.5 3 .3 3-1 0-1 .5-1.4 1-1.1.6.3 1 3.9 1 7.8m125.9 17.3c1.1 6.5 2.5 17 3.2 23.3 1.2 11.4.7 28.7-.8 30.2-1.4 1.4-5.3-2-5.3-4.6 0-1.3-1.2-3.7-2.6-5.5-2.5-2.9-2.7-3.7-3.2-18-.3-9.8-.1-17 .7-21.1 1.3-6.5 5-17.3 5.7-16.7.2.3 1.2 5.8 2.3 12.4m38.1 19.6c1.1 7.4 1 7.9-1.1 10.7-1.2 1.7-2.5 2.8-2.9 2.6s-1-4.1-1.4-8.5c-.5-6.4-.3-9.3 1.1-13.7l1.8-5.6.6 3.4c.4 1.9 1.2 6.9 1.9 11.1m13.2-9.4c1 1.1-.1 2.6-8.4 11.7-.6.6-.7-1.9-.3-6.5.9-10.5.9-10.5 4.6-8.3 1.7 1 3.5 2.4 4.1 3.1M169 341.3c0 3.4-.3 7.2-.6 8.5-.6 2.1-.7 2.1-2 .5-1.1-1.5-1.6-1.6-3.4-.5-2.8 1.7-3.4-.1-2.7-7.9.5-6 1.6-8.6 2.4-6.2.6 1.8 3.2 1.6 3.9-.2 1.2-3.1 2.4-.2 2.4 5.8m128.5 38.8c.4.6.5 1.2.2 1.5-.7.7-3.7-.7-3.7-1.7 0-1.3 2.7-1.1 3.5.2"/></svg>