<svg xmlns="http://www.w3.org/2000/svg" width="682.667" height="512" version="1.0" viewBox="0 0 512 384"><path d="M438.8 35.5c-11.5 6.9-19.5 12.7-34.9 25-23.3 18.5-27.2 21.3-38 27.7-10 5.8-28.3 17.5-33.7 21.4-2.3 1.7-2.3 1.7-1.2-1.2 2.5-6.5-2.1-13.8-8.4-13.2-3.1.3-5 2.8-2.1 2.8 1.5 0 1.4.3-.2 3.1-3 5.1-3.5 5.2-13 2.9-11.4-2.9-17.4-2.4-32.8 2.9-6.6 2.2-10.5 3.8-8.7 3.5 2-.3 3.2-.1 3.2.5s-.4 1.1-.8 1.1c-1.2 0-10.3 7.2-9.8 7.7.2.3 1.4-.1 2.6-.7 2-1.1 2.1-1 1.1.9-.6 1.1-1.6 2.3-2.1 2.6-2.1 1.3-4.2 8.2-4.5 15l-.4 7 2-2.4c2.5-3 3.7-1.7 3.1 3.4-.4 3.3-.6 3.5-4.3 3.5-4.3 0-4.2 0-5.3-12.4-1-11.6-9.4-23.8-20.7-30.1-4.9-2.7-6.3-3-14.6-3-8.7-.1-9.4-.2-12.1-2.9-2-1.8-3.5-4.9-4.7-9.1-1.9-7.2-6.9-16.2-11.8-21.3-5-5.2-16.8-12.7-23.8-15.1-12.9-4.4-27.4-3.4-37.9 2.5-6.5 3.8-20 17.9-24.2 25.5-6.6 11.8-8.3 18.8-8.3 33v12.6l3.9 7.7c7.1 14 21.7 24.7 38.6 28.2 8.4 1.7 14.9 1.3 24.6-1.7 6.1-1.9 6.4-1.9 9.5-.1 3.5 1.9 5 4.2 2.5 3.8-.9-.1-1.9-.5-2.2-.9-.4-.4-2.2-.7-4-.7-2.7 0-4.7 1.3-11.1 7.3-4.3 3.9-9.7 8.7-12 10.5-4.3 3.3-4.3 3.4-2.7 6.3 1.4 2.9 1.4 3.1-1.1 6.1-2.3 2.7-6.5 10-6.5 11.2 0 .2.7 1.2 1.6 2 2 2.1 4.7.7 6.4-3.4.7-1.6 1.6-3 2-3 2.5 0 7.1 2.5 8.5 4.6 1.6 2.4 1.5 2.6-2 6.1-3 3-3.3 3.7-2.1 4.7.8.6 1.6 2 1.8 3.1s1.4 2.2 2.8 2.5l2.5.6.6 16.4c.6 16.3 1.8 24.1 4.4 27 .7.8 1.6 3.1 2 5 1.1 6 1.5 6.8 3.5 7.3 1.7.4 2 1.4 2 6.1 0 4.5-.4 5.7-2 6.6-2.7 1.4-4.3 8.3-3.6 15.1.7 7.1 1.3 8.7 3.7 9.4 1.6.5 1.9 1.6 1.9 6.1 0 4.8-.3 5.6-2.4 6.5-3.1 1.4-3.6 3.4-3.6 14.1 0 8.1.2 8.7 2.6 10.5 2.3 1.7 2.5 2.2 1.8 7.2-.5 4.1-1.2 5.5-3 6.3-2.5 1.2-3 2.6-4 11.1-.6 5.3-.5 5.7 1.4 5.7 1.7 0 2.1-.9 2.7-6 .4-3.3 1.1-6 1.6-6s.9.4.9 1c0 1.6 3 1.2 3.6-.5 1.2-3 2.4-.2 2.4 5.6 0 5.2.2 5.9 2 5.9s2-.7 2-6.9c0-7.2-1.4-10.1-4.7-10.1-1.1 0-1.4-.6-.9-2.3.3-1.2.6-3.9.6-6 0-3.1.4-3.9 2.5-4.7 2.6-1 3.1-2.3 3.9-11 .7-7.6-.4-12.3-3.3-13.5-2.1-.9-2.2-1.5-1.9-6.2.4-4.1 1.1-5.8 3.1-7.7 2.5-2.4 2.7-3 2.7-11.6 0-8.9-.1-9.2-3-11.8-2.6-2.3-3-3.4-3-7.5 0-3.6.4-4.9 1.8-5.4.9-.3 2.4-1.1 3.2-1.8s5.6-1.8 10.5-2.5c5-.7 13.2-2.3 18.3-3.5 8.2-2 9.2-2.1 8.7-.6-6.3 15.3-7.3 24.4-5.1 47.6 2.3 25.4 3.1 49 1.7 49.9-.6.4-1.1 1.8-1.1 3 0 1.3-1.3 4-3 6.1-3.1 3.9-3.8 6.5-1.9 6.5.7 0 1.8-.8 2.5-1.8 1.3-1.6 1.3-1.6 1.4 0 0 1.7 2.8 1.8 43.9 1.8 42.9 0 43.9 0 43.4-1.9-.4-1.6-.1-1.9 1.7-1.4 1.2.3 2.4 1.2 2.7 1.9.4 1.1 5.5 1.4 26.4 1.4H351l7.4-7.8c11-11.5 17.4-19.1 21.4-25.1 3.4-5 3.6-5.9 3.5-12.5-.2-13.6-4.4-20.7-24.4-41.1-10.9-11.1-13.9-14.7-14.4-17.5-1.1-6.2 4.2-45.1 8.5-62 3.2-12.8 8-28 8.8-28 .4 0 1.7 2.2 3 5 1.2 2.7 2.7 5.2 3.2 5.5 1.4.9 5.9-2.7 6.6-5.2.3-1.2.9-2.1 1.3-2 .8.2 8.1-6.9 8.1-7.9 0-.4 1.8-3.3 4-6.5s4-6.5 4-7.3c0-.7.8-2.4 1.8-3.7s2.4-4.4 3.2-6.9c.7-2.5 1.7-5 2.2-5.6 1-1.4 1.8-5.8 2.4-13.9.6-7.6-1.7-11.8-8.1-14.6-9.8-4.3-18.6-3.4-27.8 2.9-3.7 2.6-4.9 2.9-9 2.5-5.8-.7-6.3 0 11.3-15.3 7.4-6.5 15.1-13.4 16.9-15.4 3.9-4.1 4.9-4.3 9.4-1.9 5.2 2.6 10.8 2 17.4-2 3.2-2 7.8-4.1 10.3-4.8s5.4-2 6.5-3.1c1.9-1.8 1.9-1.8-1.9-5.7-2.1-2.2-5.2-4.5-6.7-5.2-3.1-1.2-3.9-2.9-1.4-2.9 2.6 0 9.5-3.9 9.5-5.4 0-.8-1.8-2.2-4-3.3l-4-1.8L432.6 51c6.9-8 13.1-15 13.7-15.5.7-.6 2.1-2 3.1-3.3 1.9-2.2 1.9-2.2 0-2.1-1 0-5.8 2.4-10.6 5.4M244.4 173.9c1.4 1.5 1.6 2.6.8 5.3-1.3 4.6 0 7.3 4.8 10 5 2.8 5.1 1.8-2.7 24.3l-6 17-5.4 2.7c-3 1.5-7.9 3.2-10.9 3.9-14.9 3.2-30.1 7.1-34.9 8.9-3 1.1-5.6 1.8-5.8 1.6-.4-.3-3.3-24.6-3.3-27.3 0-.7 1.4-2 3.1-2.9l3.1-1.6-2.2-2.3c-3.9-4.1-6.8-19.3-4-21 .6-.3 1-1.6 1-2.8s.6-3.8 1.3-5.8c1.3-3.7 1.3-3.7 3.7-1.9 5.4 3.8 12.2 5.5 22 5.5 8.7 0 10.1-.3 16.1-3.2 3.6-1.8 8.5-5.2 10.9-7.6 5.2-5.1 6.1-5.4 8.4-2.8M166 274.5c0 .8-.2 1.5-.4 1.5s-.6-.7-1-1.5c-.3-.8-.1-1.5.4-1.5.6 0 1 .7 1 1.5m3.9 22.6c1.7-2.7 3.1.1 3.1 6.4 0 6.8-.6 9.5-2.2 9.5-.5 0-.7-.4-.4-.9s-.2-1.2-1.1-1.5c-1-.4-2-.1-2.6 1-1.5 2.7-2.7-.3-2.7-6.8 0-7.6.6-9.1 3.1-7.5 1.6 1 2.1.9 2.8-.2M302.3 322c4.9 22.3 5.6 27.3 6.3 43 .5 12.4.4 13.7-1.4 15.7l-2 2.3-5.2-3.5c-2.9-1.9-5.6-3.5-6-3.5-.5 0-1.1-1.8-1.5-4-.4-2.3-1.5-4.6-2.7-5.4-1.7-1.2-2.2-3.2-3-10.8-1.4-13.5-.5-26.7 2.6-36.4 1.4-4.5 3.3-8.7 4.1-9.4s1.5-1.6 1.5-2.1c0-.4.5-2 1.1-3.6 1-2.6 1.2-2.7 1.9-.8.4 1.1 2.4 9.4 4.3 18.5m39.4 12c1.3 5.2 1.3 5.5-1 7.8l-2.4 2.3-.1-4.1c-.1-2.3-.5-4.6-.8-5.1-.9-1.5.7-7 1.8-6.7.6.2 1.7 2.8 2.5 5.8M172 340.3c0 3.4-.3 7.2-.6 8.4-.7 2.6-2.4 3.1-2.4.8 0-1.8-2.1-2-3.8-.3-1.8 1.8-2.5-1.3-2-8.2.4-5.8 1.6-8.8 2.5-6.3.6 1.8 3.2 1.6 3.9-.2 1.2-3.1 2.4-.2 2.4 5.8"/></svg>