<svg xmlns="http://www.w3.org/2000/svg" width="682.667" height="512" version="1.0" viewBox="0 0 512 384"><path d="M444 32.3c-11.2 6.6-24.4 15.9-35.7 25-7 5.7-14.8 11.8-17.3 13.6-2.5 1.7-7.6 5.6-11.4 8.6-3.7 2.9-11.8 8.1-18 11.6-11.1 6.4-20.1 12.1-26.7 17.1l-3.6 2.8.5-5.3c.4-5 .2-5.5-2.8-8-1.7-1.5-3.8-2.7-4.6-2.7-2.4 0-5.5 2-4.9 3.1.4.5 1.1.7 1.7.3 1.5-.9-1.8 5-3.7 6.6-1.3 1-2.6 1.1-6.8.1-12.9-2.9-16.8-3.1-24.1-1.5-3.9.9-8.4 2.2-10.1 2.9-1.6.8-5.2 2-8 2.8-4.9 1.5-4.9 1.5-1.5 1.6l3.5.2-3.1 1.7c-1.7.9-4.8 3.2-7 5.1-3.6 3.1-3.4 3.3 1.3 1.4 1.1-.4.7.7-1.5 3.8-3.4 4.8-5.2 11.2-4.9 17.7l.1 4.2 2.3-2.8 2.2-2.7.1 4.8c0 5.2-1.2 6.4-5.5 5.3-2.4-.6-2.5-1-2.5-7.5 0-11.9-5-22.6-14.6-31-6.6-5.8-14.1-8.4-22.9-7.9-6.7.4-7.1.3-9.5-2.6-1.4-1.6-3.7-6.7-5.1-11.2-4.5-14.1-11.4-22.7-25-30.7-14.7-8.7-31.1-10.2-43.9-4.1-21.6 10.3-37.4 35.7-37.4 59.9 0 10.2 2.1 17.3 7.3 24.9 13.2 19.2 37.2 28.2 59 22.3 4.4-1.2 6.8-1.4 7.5-.7.5.5 1.8 1 2.7 1s2.2.6 2.8 1.4c1.9 2.2-.5 2.9-3.3 1.1-3.5-2.3-6-1.2-13.6 6-3.6 3.4-8.9 7.8-11.7 9.9-5.7 4.1-6.1 5-3.7 8.4 1.5 2.1 1.4 2.5-1.6 5.8-4.5 5.2-6.7 10.1-5.4 12.2 2 3.1 4.2 2.5 6.4-1.8 2.2-4.4 3.6-4.6 8.7-1.4 3.9 2.5 4 5.4 0 9-2.3 2.2-3.1 3.6-2.5 4.2s1.6 2.1 2.2 3.4c.6 1.2 2.2 2.4 3.4 2.6 2.1.3 2.2.7 2.2 12.5.1 16.5 1.4 26 4.4 31.1 1.3 2.3 2.7 5.9 3.1 8 .5 2.7 1.4 4 3.1 4.6 2.1.8 2.4 1.6 2.4 6.3s-.3 5.5-2.4 6.5c-2 .9-2.6 2.1-3.1 6.7-1.3 9.7.6 17.5 4.1 17.5 1 0 1.4 1.5 1.4 5.7 0 5-.3 6-2.7 7.9-2.7 2.1-2.8 2.5-2.8 11.9 0 9.1.2 9.8 2.5 11.8 2.2 1.9 2.5 2.9 2.2 7.5-.3 4.4-.7 5.5-2.7 6.4-2.6 1.1-3.5 4.3-3.5 11.9 0 3.5.4 4.9 1.4 4.9.9 0 1.6-1.9 2.1-5.8.9-7 1.3-7.8 3.1-5.5 1.3 1.7 1.5 1.7 2.9-.1 2.1-2.8 2.8-1.5 2.6 5.4-.1 5.4.1 6 1.9 6s2-.7 2-5.9c0-7.2-1.2-10.7-3.9-11.6-1.8-.5-2.1-1.5-2.1-6 0-5 .2-5.6 2.9-6.9 3.5-1.8 4.1-3.9 4.1-13.9 0-6.4-.3-8-2-9.7-1.1-1.1-2.4-2-3-2-.5 0-1-2.5-1-5.5 0-4.9.3-5.7 2.5-6.7 3-1.4 3.9-5.1 3.3-14.9-.3-6.3-.7-7.4-3.1-9.3-2.3-1.9-2.7-2.9-2.7-7.4 0-3.8.4-5.2 1.4-5.2.8 0 2.1-.6 2.8-1.3s5.1-1.9 9.8-2.6c4.7-.6 12.2-2.1 16.8-3.2 11.8-2.7 11.4-2.9 8.7 3.8-5.3 13.3-5.5 19-1.9 65.6 1.7 23.4 1.7 24.9.1 27.6-.9 1.6-1.7 3.8-1.7 5 0 1.1-1.1 3.2-2.5 4.7-2.6 2.8-3.3 5.4-1.4 5.4.7 0 1.8-.8 2.6-1.8 1.4-1.6 1.4-1.6.9 0-.5 1.7 2 1.8 43.4 1.8 38.6 0 43.9-.2 43.4-1.5q-1.2-2.85 3.6 0c3.6 2.1 54.5 2.2 55.7.1.4-.7 5.5-6.2 11.2-12.2 17.9-18.7 20.8-23.8 19.6-34.5-1.3-11.1-6-18.5-22.6-35.4-10.2-10.4-14.9-15.9-15.3-18-1.3-5.9 4.6-51.6 8.5-66.3 6.8-26 8.3-28.2 11.9-18 .6 1.7 1.7 2.8 2.8 2.8 2 0 6.2-3.9 6.2-5.8 0-.7.7-1.2 1.5-1.2s1.5-.4 1.5-.9 1.8-2.8 4-5.1 4-4.7 4-5.4 1.4-3 3-5.1c1.7-2.1 3-4.5 3-5.3 0-.9.6-2.3 1.4-3.1 3.5-4 8-19.9 8-28.7 0-9.7-3.4-13.1-15.3-15.4-6.4-1.2-13.6.7-19.9 5.3-4.7 3.4-5 3.4-9.4 2.3l-4.5-1.1 18.9-16.9 18.9-16.8 3.3 1.6c5.6 2.7 11.4 2.1 17.9-1.8 3.1-1.9 8-4.2 10.9-5.1 7.3-2.4 8.4-3.6 6.3-6.8-1.8-2.8-7.7-7-11.5-8.2-2.3-.7-2.2-.9 1.8-2 4.8-1.5 9.2-4.1 9.2-5.5 0-.5-1.5-1.7-3.2-2.6-1.8-.9-3.5-1.8-3.7-2-.5-.5 13.4-16.9 21.4-25.4 8.6-9.1 9.2-10 6.9-9.9-1.1 0-3.5 1-5.4 2.2m-116.3 74.9c-.3.8-.6.5-.6-.6-.1-1.1.2-1.7.5-1.3.3.3.4 1.2.1 1.9m-83.2 67.2c1.5 1.1 1.7 1.9.9 5.2-1.4 5.6-.8 7.1 4.3 10 3.1 1.9 4.3 3.2 4 4.3-.3.9-3.4 9.9-7 20.1l-6.4 18.4-8.4 2.8c-4.6 1.4-13.3 3.7-19.4 4.9-6 1.2-14.8 3.5-19.5 5s-8.6 2.7-8.7 2.5c-.1-.1-.9-6.5-1.7-14.1-1.6-14.9-1.7-14.2 3.1-17.1 1.7-1.1 1.7-1.3-.4-3.5-1.2-1.3-2.6-3.5-3.1-4.9-1.7-4.5-2.5-13.1-1.4-15.4 1.7-3.5 3.2-8.8 3.2-11.2v-2.3l3.6 2.4c8.2 5.6 22.4 7.8 31.9 5 6.2-1.8 14.4-6.6 18.5-11 2.7-2.8 3.8-3.1 6.5-1.1M167 275.1c0 .6-.4.7-1 .4-.5-.3-1-1.1-1-1.6 0-.6.5-.7 1-.4.6.3 1 1.1 1 1.6m6.9 28.8c0 3.1-.4 6.5-.8 7.6-.8 1.9-.8 1.9-1.9 0-.9-1.7-1.4-1.8-3.1-.8-2.5 1.6-3.1.1-3.1-7.6 0-6.4.6-7.7 2.8-5.8 1.2 1 1.7.9 2.6-.6 1-1.6 1.2-1.6 2.4 0 .6.9 1.2 4.2 1.1 7.2m130.4 16.8c9.6 39.6 10 50.2 2.3 59.6l-2.3 2.8-5.4-3.3c-6.2-3.8-6.9-4.5-6.9-7.5 0-1.2-1.2-3.6-2.7-5.3-2.6-3.1-2.7-3.6-3.1-18.9-.3-11.8 0-17.2 1.1-22.1 2-8.1 6.6-19.4 6.7-16.2 0 3.8 1.6 1.6 3-4.3.7-3.1 1.6-5.2 2-4.8s2.8 9.4 5.3 20m39.2 14.3c.5 2.8.2 3.9-1.3 5.3-1.9 1.7-2 1.7-2.6-1.6-.7-3.8 1-9.6 2.4-8.1.4.5 1.1 2.5 1.5 4.4M169 335c1 0 2-.6 2.3-1.3 1.5-4.1 3.4 6.7 2.3 12.7-.7 3.5-2.6 5.1-2.6 2.1 0-.8-.7-1.5-1.5-1.5-.9 0-1.8.7-2.1 1.5-1.4 3.6-2.4.9-2.4-6.3 0-7.1.9-11.1 1.8-8.3.2.6 1.2 1.1 2.2 1.1"/></svg>