<svg xmlns="http://www.w3.org/2000/svg" width="682.667" height="512" version="1.0" viewBox="0 0 512 384"><path d="M439.4 35.3c-10.3 6.1-21.3 14-32.8 23.6-4.4 3.6-11 8.8-14.7 11.6-3.7 2.7-9.4 7-12.5 9.4-3.2 2.5-11.9 8-19.2 12.3-11.5 6.8-19.1 11.7-27.4 17.7-1.8 1.3-1.8 1.2-.8-1.4 2.4-6.4-2-12.9-8.6-12.3-3.6.3-6.3 2.8-3 2.8 1.5 0 1.5.3.2 2.8-2.7 5.2-3.5 5.4-12.6 3.1-11-2.8-19.1-2.2-33.4 2.5-11.9 3.9-13.8 4.8-8.2 3.9 4.5-.7 4.6.1.4 2.3-3.3 1.7-10.4 7.4-9.3 7.4.4 0 1.5-.5 2.7-1.1 3-1.6 3.2-.5.5 2.7-3.2 3.9-5 9.6-5.2 16.8-.2 5.9-.2 5.9 1.7 3.6 2.3-2.8 2.6-2.5 3 2.5l.3 4h-8l.3-4.4c.7-10.9-4.3-23.3-12.9-31.8-7.7-7.7-12.5-9.8-22.8-9.8-7.9 0-8.6-.2-11.3-2.8-1.7-1.8-3.3-5-4.3-8.6-4-15.4-11.3-25.2-24.7-33.4-12.8-7.7-27.5-10.5-38.6-7.2-28.6 8.5-51 48.4-42.2 75.1 5.3 15.9 18 28.3 35 34 7 2.3 23.3 2.4 30.2.2 4.4-1.5 5-1.5 8.8.4 2.2 1.1 4 2.3 4 2.7 0 1.8-1.5 1.9-4 .4-3.9-2.2-7.7-.5-14.3 6.4-2.9 2.9-7.8 7-10.9 8.9-3.2 2-5.8 4.1-5.8 4.6s.7 2.2 1.5 3.9c1.5 2.8 1.4 3.1-1 5.7-3.3 3.6-6.8 10.8-6.1 12.7.3.8 1.6 1.5 2.9 1.5 1.7 0 2.8-1 4-3.5.9-1.9 2.1-3.5 2.7-3.5 1.8 0 6.4 2.7 8.4 4.9 1.9 2 1.8 2.1-2.2 6.1-3.8 3.8-3.9 4.1-2 5.1 1.1.6 1.7 1.7 1.4 2.5-.4 1 .4 1.8 2.3 2.5l2.8 1 .6 17.2c.6 17.9 1.5 22.8 4.6 26.9 1.1 1.3 2.3 4.1 2.6 6.2.5 2.3 1.7 4.3 3.1 5.3 2 1.3 2.4 2.4 2.4 6.5 0 4.2-.4 5.3-2.5 7-2.5 1.9-2.6 2.3-2.3 12.1.3 9.5.5 10.3 2.6 11.2 1.9.8 2.2 1.7 2.2 6.6s-.3 5.9-2.5 7.3c-2.4 1.6-2.5 2-2.5 12.1 0 10.3.1 10.6 2.5 11.7 2.3 1 2.5 1.7 2.5 7 0 3.2-.4 5.8-.8 5.8-.5 0-1.6.6-2.7 1.3-1.4 1.1-2 3.3-2.4 9-.6 7.5-.6 7.7 1.6 7.7s2.3-.4 2.3-6.5 1.1-8.4 2.4-5c.8 2.1 2.4 1.9 3.1-.5 1.2-3.8 2.5-.9 2.5 5.6 0 5.7.2 6.4 2 6.4s2-.7 2-7c0-5.7-.4-7.4-2-9-1.1-1.1-2.5-2-3-2s-1-2.4-1-5.3c0-4.6.3-5.5 3.1-7.8 2.7-2.2 3.2-3.3 3.6-9 .7-8.6-1-14.7-4.2-15.5-2.3-.6-2.5-1.1-2.5-6 0-4.8.3-5.6 2.5-6.6 3-1.3 4-4.4 3.9-11.5-.2-8.7-1.2-11.9-3.9-13.1-2.2-1-2.5-1.8-2.5-6.1 0-4.2.4-5.2 2.3-6.2 1.2-.7 2.4-1.5 2.7-1.9.3-.3 4.6-1.2 9.5-1.9 5-.7 12.7-2.2 17.3-3.2 4.5-1 8.7-1.9 9.1-1.9.5 0-.5 3.5-2.2 7.7-3.1 7.6-3.2 8.2-3.2 23.8 0 8.8.8 27.1 1.8 40.7 1.7 22.6 1.8 24.9.3 27-.9 1.2-1.6 3.4-1.6 4.8 0 1.5-1.1 3.7-2.5 5-2.8 2.6-3.3 5-1 5 .8 0 1.5-.5 1.5-1 0-.6.5-1 1.1-1 .5 0 .7.5.4 1-.4.7 14.3 1 43.5 1 32.9 0 43.9-.3 43.4-1.1-.5-.9.1-1 2.2-.4 1.6.5 14.7 1 29.1 1.2l26.1.4 10.6-10.9c21-21.6 23.8-26.4 21.7-38.5-2-12-7.6-20.2-26-38L346 286v-5.9c0-6.8 2.3-30 4.5-44.5 2.7-18.1 11.1-47.1 12.2-42.3.3.9.8 1.5 1.3 1.2s1.1.8 1.5 2.5c1 4.7 3.7 5.5 6.9 2.2 1.4-1.6 2.6-3.3 2.6-4s.5-1.2 1-1.2c1.4 0 6.6-6 10.8-12.3 3.3-5.1 10.2-18.7 10.2-20.3 0-.5.7-2.2 1.5-3.8 2.7-5.2 4-18 2.3-23-1.5-4.6-5-7-13-9.1-6.8-1.8-12.9-.5-20.5 4.4-5.3 3.4-6.3 3.7-10.8 3.2l-4.9-.6 13.9-12.4c7.7-6.9 16.3-14.7 19.2-17.4l5.2-5 3.3 1.6c6 2.8 8.4 3 13.3.8 2.5-1.1 5.8-2.9 7.3-3.9 1.5-1.1 5.2-2.7 8.2-3.7 7.8-2.5 8.8-3.6 6.2-7.2-1.2-1.6-4.6-4.3-7.7-6l-5.7-3 4.4-1.2c2.4-.7 5.4-2.1 6.8-3.1 2-1.5 2.2-2 1.1-3.4-.7-.9-1.9-1.6-2.5-1.6s-1.7-.4-2.5-.9c-1.1-.7.4-3.1 7.4-11.3 4.9-5.7 11.5-13.1 14.7-16.5 5.4-5.7 7-8.3 5-8.3-.4 0-4.9 2.4-9.8 5.3M244.5 174.4c1.6 1.1 1.7 1.9.8 5.3-1.3 5.2-.3 7.6 4.6 10.4 2.3 1.2 4.1 2.5 4.1 2.9 0 .3-1.4 4.1-3.1 8.5s-4.8 13.2-6.9 19.5l-3.8 11.5-4.9 1.8c-2.6 1-11.8 3.4-20.3 5.3-8.5 1.8-18.9 4.5-23 5.8-4.1 1.4-7.5 2.4-7.6 2.3s-.9-6.5-1.7-14.2c-1.5-14.8-1.6-14.3 2.9-17.1 1.7-1 1.7-1.3-.8-4.2-3.4-4.1-5.6-15.8-3.7-19.4.7-1.3 1.3-3 1.4-3.8s.7-3.2 1.4-5.2l1.3-3.8 4.1 2.4c4.5 2.6 15.7 5.6 21.1 5.6 8.6 0 20.8-5.4 27.6-12.3 2.9-2.9 4-3.2 6.5-1.3M167 274.6c0 .8-.4 1.2-1 .9-.5-.3-1-1-1-1.6 0-.5.5-.9 1-.9.6 0 1 .7 1 1.6m6.4 22c.9 2.4.7 13.7-.4 15.4-.8 1.2-1 1.2-1.6-.3-.7-2-3-2.3-3.7-.5-.9 2.6-1.9-.3-2.4-6.4-.2-3.8 0-6.9.7-7.8.9-1.1 1.3-1.2 1.7-.3.7 1.8 3.3 1.6 3.3-.2 0-2 1.6-1.9 2.4.1M310.1 342c1.1 5.2 2.3 13.4 2.6 18.1.5 8.1.4 8.9-2.2 13.7-1.5 2.8-3.8 6-5 7.2l-2.3 2.1-5.6-3.6c-4.2-2.7-5.6-4.1-5.6-6 0-1.3-1.2-3.8-2.7-5.6l-2.8-3.3v-39.1l3.4-8.5c2.7-6.6 3.6-8 4.1-6.5.7 1.9.8 1.8 1.8-.5.5-1.4 1.3-4.1 1.7-6s1-3.9 1.3-4.4c.6-1 7.9 26.4 11.3 42.4m33.5-6.4c.4 2.2.1 3.4-1.5 4.8-2.1 1.9-2.1 1.9-2.1-1.5 0-7.7 2.3-9.8 3.6-3.3m-169.8 6.6c-.2 4.6-.7 7.3-1.5 7.6-.7.2-1.3-.3-1.3-1.2 0-2.1-2-2-3.5.1-1.2 1.6-1.4 1.3-2-2-1.1-5.9.8-17 2.2-13 .7 1.9 3 1.6 3.8-.5 1.3-3.5 2.6 1.5 2.3 9"/></svg>