<svg xmlns="http://www.w3.org/2000/svg" width="682.667" height="512" version="1.0" viewBox="0 0 512 384"><path d="M444.5 33.1c-7.9 4.2-23.8 15.3-36.5 25.5-7.2 5.7-14.7 11.4-16.7 12.7-2.1 1.4-5.1 3.8-6.8 5.4-3.9 3.9-12.2 9.4-27 17.9-6.6 3.7-14.8 9-18.4 11.7-3.5 2.6-6.5 4.6-6.8 4.4-.2-.3.2-1.6.8-3 1-2.1.8-3.2-.8-6.4-2.2-4.2-5.6-5.9-9.7-4.9-2.7.7-3.6 2.6-1.2 2.6 2 0 .9 3.4-2 6.1-2.4 2.2-2.4 2.2-10.1.6-11.9-2.5-14.2-2.6-21.8-1.1-10 2-24.9 7.3-21 7.4 2.9.1 2.9.1 1 1.5-9.1 6.4-12.5 10.1-6.3 6.9l3.3-1.7-2.8 3.7c-4.1 5.3-5.6 9.7-6 17.2l-.4 6.7 2.2-2.7 2.2-2.8.6 2.4c1.7 6.1-.2 8.6-5.5 7.3-2.2-.6-2.3-1-2.3-9.3 0-7.7-.4-9.5-3.2-15.4-3.9-8.2-11.1-16.1-17.8-19.6-3.9-2-6.9-2.7-13.7-3-7.8-.4-8.9-.7-11.2-3.1-1.6-1.7-3.4-5.6-4.6-10-3-10.6-6.5-16.7-13.4-23.6-7-7-14.2-11.3-23.9-14.5-5.5-1.8-8.5-2.1-16.5-1.8-13.7.4-20.4 3.7-32.2 15.6-7.2 7.2-9.4 10.3-13.3 18.2-7.8 15.9-9.6 28.8-5.7 41.3 5.3 17 20.9 30.9 39.7 35.3 7.7 1.8 16.6 1.4 25.2-1.2 3.5-1 5.6-1.2 6-.5.4.5 1.9 1.4 3.4 2s2.7 1.7 2.7 2.6c0 2-1.9 1.9-4.1-.1-2.6-2.4-6.9-.4-14.4 6.6-3.3 3.1-7.9 6.9-10.2 8.4-6.1 4.1-6.4 4.7-4.6 8.3 1.4 3.1 1.4 3.3-1.6 7-4.3 5.4-6.5 11.1-5 12.9 1.9 2.3 3.8 1.6 6.1-2.2 1.9-3.2 2.5-3.5 5.1-3 3.3.7 5.3 2.1 6.7 4.6.7 1.3 0 2.8-2.7 6-3.2 3.7-3.4 4.3-2 5.2.9.5 1.7 1.6 1.7 2.4s1.1 1.9 2.3 2.3c2.3.9 2.4 1.3 3 18.3.6 18.2 1.5 23 4.7 27.1 1.1 1.4 2.3 4.2 2.8 6.4q.75 3.75 3 4.8c1.9.8 2.2 1.8 2.2 6.3 0 4.6-.4 5.7-2.5 7.4-2.3 1.8-2.5 2.5-2.5 11.3 0 9.6 1.1 12.5 4.6 12.5 1.1 0 1.4 1.5 1.4 6 0 3.3-.4 6-1 6s-1.9.9-3 2c-1.7 1.7-2 3.3-2 10.8 0 9 1.4 13.2 4.6 13.2 1.1 0 1.4 1.4 1.4 5.9 0 5.1-.3 6.1-2.1 6.6-2.7.9-3.9 4.4-3.9 11.6 0 5.2.2 5.9 2 5.9s2-.7 2-5.8c0-6.6.7-8 2.7-5.4 1.2 1.6 1.4 1.6 2.4-.1 1.9-3.3 2.9-1.7 2.9 4.8 0 5.8.2 6.5 2 6.5s2-.7 2-7c0-5.7-.4-7.4-2-9-1.1-1.1-2.5-2-3-2-.6 0-1-2.6-1-5.9 0-5.1.3-6.1 2.1-6.6 2.8-.9 3.9-4.4 3.9-12.5s-1.1-11.6-3.9-12.5c-1.8-.5-2.1-1.5-2.1-6.4 0-5.1.3-5.9 2.4-6.9 2.6-1.1 3.6-4.6 3.6-12.2 0-6.3-1.6-10.5-4.5-11.8-2.2-1-2.5-1.8-2.5-6.5 0-5.2.1-5.4 3.8-6.9 2-.9 7.3-2.1 11.7-2.8 4.4-.6 12-2 16.9-3.1 4.9-1 9.1-1.8 9.2-1.6.2.2-.5 2.1-1.6 4.3-4.3 8.8-5.3 15.7-4.7 34.9.2 9.9 1.1 27.2 1.8 38.4 1 15.6 1 20.7.1 22.2-.7 1-1.2 2.7-1.2 3.7s-1.1 3.3-2.5 5.2-2.5 3.7-2.5 4.2c0 1.3 90.8 1 91.2-.3.3-.9.9-.9 2.5 0 1.2.6 3.2 1.1 4.4 1.1 2 0 2.1-.2.9-1.4-.8-.8-3.1-2.3-5-3.3-2.5-1.4-3.6-2.9-4.1-5.2-.4-1.8-1.7-4.3-2.9-5.6-4.3-4.5-5.2-31.9-1.5-44.3 2.7-9.1 5.5-14.8 6.5-13.2.6.9 1.2.1 2-3.1 1.2-5 3.1-10.1 3.5-9.7.8.7 10.6 39.5 12.5 49.5 2.1 10.3 2.2 11.7.9 17.5-.9 4.2-2.8 8.4-5.6 12.5L303 384h47.7l14.4-14.8c18.1-18.4 20.6-23.2 18-35.1-2.3-10.6-5.7-15.7-22-32.4l-15.5-15.8 1.8-18.7c.9-10.3 2.4-23.4 3.2-29.2 1.6-11 8.6-39.6 10.6-43.3l1.2-2.2.7 2.5c.4 1.4.8 1.8.9 1s.8 0 1.6 1.8 2.1 3.5 3 3.9c1.7.6 6.4-3.3 6.4-5.4 0-.7.5-1.3 1.1-1.3 1.7 0 6.9-6 10.6-12.2 1.8-3.1 3.8-6 4.3-6.3.6-.3 1-1.4 1-2.4s.8-2.9 1.8-4.2c1.1-1.3 2.2-3.7 2.6-5.4.4-1.6 1.7-5 2.8-7.5 1.6-3.4 2.1-6.7 2.2-13.7.1-8.6-.1-9.4-2.4-11.8-2.9-2.9-12.5-6.5-17.2-6.5-3.4 0-12 3.6-16.7 7-2 1.3-4.2 1.9-7.4 1.7-2.6-.1-4.7-.5-4.7-.8 0-.7 11.3-11.1 25.5-23.6 4.4-3.9 8.8-7.9 9.8-9l1.8-2.1 4.1 2c5.4 2.6 11.4 2 17.1-1.8 2.3-1.5 7.3-4 11.2-5.4 4-1.5 7.1-3.2 7.3-4.1.4-2.1-4.3-6.6-9.6-9.3l-4.4-2.2 5.8-3c3.2-1.6 6-3.4 6.2-4.1.2-.6-1.1-1.9-2.8-2.8s-3-2-2.8-2.5c.2-.4 6.7-8.3 14.6-17.4 7.8-9.1 13.6-16.6 12.9-16.6s-3 .9-5.2 2.1M244.4 174.6c1.2 1.1 1.4 2.8 1 7.2l-.6 5.7 4.6 2.8c2.5 1.6 4.6 3 4.6 3.1 0 .2-2.4 6.8-5.4 14.7-2.9 7.9-6.2 16.8-7.2 19.8-1.7 4.9-2.3 5.5-6.5 7.1-2.6.9-10.5 2.9-17.5 4.4-11.9 2.4-27.6 6.4-31.5 8-1.8.8-2.4-2.4-3.5-19.5l-.7-9.5 3.2-1.4 3.2-1.3-2.5-2.6c-1.3-1.4-2.9-4.4-3.5-6.6-1.3-4.7-1.4-13.7-.3-15 .5-.6 1.5-3.5 2.2-6.6l1.3-5.7 4.4 2.8c5.6 3.5 12.1 5 22.2 5 7 0 8.6-.4 14.7-3.5 3.8-1.9 8.5-5 10.4-6.9 4-3.9 5.2-4.2 7.4-2m-71 122c.9 2.4.7 13.7-.4 15.4-.8 1.2-1 1.2-1.6-.3-.7-1.8-3.4-2.4-3.4-.7 0 .5-.4 1-1 1s-1-3.3-1-8 .4-8 1-8 1 .4 1 1c0 .5.7 1 1.5 1s1.5-.7 1.5-1.5c0-2 1.6-1.9 2.4.1m.6 45c0 4.6-.3 8.4-.6 8.4-.4 0-1.3-.8-2-1.8-1.3-1.6-1.5-1.6-2.7 0-.8 1-1.7 1.5-2 1.1-1.1-1-.8-15.1.3-15.8.6-.3 1-.1 1 .4 0 1.7 3 1.3 3.6-.4 1.4-3.4 2.4.2 2.4 8.1m168-1.1c-1.7 3.2-2.4 2.5-1.5-1.5.5-2.3 1-2.9 1.8-2.1s.7 1.8-.3 3.6"/></svg>