<svg xmlns="http://www.w3.org/2000/svg" width="682.667" height="512" version="1.0" viewBox="0 0 512 384"><path d="M0 192v192h298.1l1.6-3.7c4.7-11.5 12.7-27 18-34.8 3.3-5 6.8-10.5 7.7-12.3l1.7-3.2-10.6-19.6c-22.5-41.5-42.5-71.9-50.3-76.2-2.1-1.1-6.8-2.5-10.7-3.1-10.4-1.8-22.1-4.9-27.2-7.3-3-1.4-6.6-4.7-11.2-10.2-12.3-14.7-12.1-14.3-12.1-28.1v-12l10.6-10.1c10-9.4 10.6-10.2 9.4-12.3-1.6-3.2.1-4.7 2.4-2.2 1.8 2 1.9 2 6-1.3 7.6-6.2 12.2-7.9 19.8-7.4 9.4.7 16.1 4.2 23.8 12.5 7.2 7.7 12.2 17.2 14 26.8 1.8 9.4.7 14.5-4.2 20.2l-4 4.7 2.8 2.4c11.6 9.7 23.3 21.6 35.8 36.6 8.1 9.7 15.1 17.8 15.6 18.1.6.3 1.1-.1 1.2-.9 0-.9.1-2 .2-2.5s-1.1-2.2-2.6-3.9c-3.8-4.3-4.8-6.6-4.8-11.2 0-5.6 2.4-9.9 13.1-23.1 12-15 12.9-17.1 12.7-29.3l-.2-9.6 3.9-5.3c2.1-2.8 5.1-6.9 6.7-8.9 2.7-3.6 2.8-3.9 1.4-6.6-.8-1.6-3.4-5.2-5.6-8.1l-4.2-5.3 2.2-3c1.8-2.5 2-3.4 1.1-5.4-1.5-3.3-2.4-3-5.2 1.8l-2.4 4.3-.3-4.9c-.4-5.4.5-5.3-10.5-1.2-11.5 4.4-13.8 3.4-19.6-8.1-1.1-2.3-3-4.4-4.1-4.8-1.2-.4-2.3-1.8-2.6-3.4-.4-1.9-1.6-3.3-3.7-4.2-2.5-1.1-3.4-2.3-4.2-5.9-.8-3.4-1.9-5-4.5-6.7-7-4.5-8-5.4-8-7.7 0-1.6 1.4-3.5 3.8-5.5 3.6-3 3.7-3.1 1.7-4.7-2.2-1.7-11-6.4-12.1-6.4-.3 0-.4.9-.1 2 .8 3.3-1.1 2.3-2.9-1.5-2-4.2-4.3-4.7-3.7-.8l.4 2.8-2.6-2.9c-2-2.2-2.9-2.6-3.5-1.6-.6.9-1.8-.2-4.3-4.1-2.6-4-4.7-6-7.8-7.4-2.3-1.1-4.7-2-5.3-2-2.3 0-18.8-11-19.6-13-.9-2.4-20.5-14.9-22-14-.6.4-3-.9-5.3-2.8s-5.1-3.7-6.2-4.1c-1.1-.3-3.8-2.3-6-4.3s-6.4-5.4-9.2-7.6c-2.9-2.1-5.3-4.4-5.3-4.9 0-.6-1.7-2.9-3.7-5.2-3.7-4-3.7-4.1-1.4-4.4l2.3-.4-2.3-2.4-2.2-2.4H0zm502 20.8c.1.4 2.3 4.7 5 9.7l5 9v-15.1l-5-2.1c-2.7-1.2-5-1.8-5-1.5M385.6 332.5c-5.1 4.8-10.2 8.5-14.5 10.6-3.6 1.7-7.2 3.4-8 3.8s-2.4 3.4-3.4 6.6c-1.1 3.2-4.8 11.4-8.3 18.2l-6.3 12.3h80.6l1.2-2.6c1-2.3.9-3-.9-4.9-1.2-1.2-5.1-8.1-8.8-15.4-5.8-11.4-21.8-36.2-23.2-36.1-.3.1-4 3.4-8.4 7.5"/></svg>