<svg xmlns="http://www.w3.org/2000/svg" width="682.667" height="512" version="1.0" viewBox="0 0 512 384"><path d="M451.5 38.3c-1.1.8-4.6 2.8-7.9 4.6-3.2 1.7-7.9 4.6-10.5 6.3-4.9 3.4-33.9 24.9-42.9 31.8-7.1 5.5-13.3 9.4-28.6 17.9-7.1 4-15.4 8.9-18.5 11l-5.6 3.8.3-4.3c.3-3.7 0-4.7-2.3-6.9-1.8-1.6-3.9-2.5-6.1-2.5-3.6 0-5.5 1.7-3 2.6 1.7.7 1.2 2.1-2.3 6.2l-2 2.3-10.2-2.5c-12.3-3.1-16.3-3.2-25.4-.5-3.9 1.1-9.7 2.8-13 3.7-5.5 1.5-5.8 1.7-3 2.2l3 .6-3.5 1.8c-1.8 1-4 2.5-4.8 3.2-.7.8-2.3 1.9-3.4 2.5s-1.7 1.3-1.5 1.6c.3.2 1.5-.1 2.7-.7 3.3-1.7 3.7-.3.8 2.8-3.3 3.4-5 8.8-5.3 16.6-.2 5.7-.2 6 1.2 3.9 2.2-3.3 3-2.8 3.5 1.7.4 4.6-1.1 5.6-6.9 4.5l-3.5-.6.6-5.7c1.2-10.6-3.5-22.9-12.3-32-6.6-6.9-12.2-9.3-22.8-10-11.1-.7-13.2-2.5-16.3-13.9-4.3-15.9-14-27.4-29.5-34.8-20.1-9.5-37.4-6.7-53.8 8.9-16.1 15.3-25.1 38.7-21.7 56.4 3 15.9 17.3 31.5 35 38 8.1 3 18.6 3.3 28.3.8 6.3-1.7 7-1.7 8.6-.2 1 .9 2.5 1.6 3.3 1.6.9 0 1.8.9 2.1 2 .6 2.4-.5 2.5-3.9.3-2.3-1.5-2.8-1.5-5.7-.1-1.8.9-5.7 3.8-8.7 6.5s-7.6 6.1-10.1 7.5c-6.8 4-7.6 5.2-5.7 9.2 1.5 3.1 1.5 3.3-1.1 6.8-3.7 5-6.5 11.4-5.8 13.2.9 2.3 5.4 2 6.2-.3 1.5-4.7 6.2-4.6 11.2.1 3.1 2.9 2.9 3.7-1.2 8.3-3.2 3.4-3.4 4-2 5.5.8.9 1.5 2.4 1.5 3.3 0 1.1.8 1.7 2.5 1.7 2 0 2.5.5 2.5 2.4 0 10.8 2.4 33.9 4.1 38.8 1 3.2 1.9 7.2 1.9 9 0 3.9.7 5.1 3.7 6.7 1.9 1 2.3 2 2.3 6 0 3.8-.5 5.2-2.6 7.2-2.5 2.3-2.6 2.7-2.2 12.2s.8 10.8 4.1 11.9c.4.2 1.1 2.8 1.4 5.9.5 5.2.4 5.6-2.2 7.3-2.7 1.8-2.7 1.8-2.3 11.8.4 9.5.5 10.2 3.1 12.2 2.3 1.8 2.7 3 2.7 7 0 3.9-.5 5.3-2.5 7.2-2.1 1.9-2.5 3.2-2.5 7.9 0 4.6.3 5.5 1.8 5.5 1.3 0 1.7-.9 1.7-4 .1-4 1.4-6.5 2.2-4.3.6 1.8 3.2 1.6 3.9-.2 1.1-2.8 2.2-1.5 2.9 3.5.8 5.9 3.5 7.2 3.5 1.6 0-6.2-1.2-9.7-3.6-10.8-2.1-1-2.4-1.8-2.4-6.8 0-5.1.3-6 2.6-7.5 2.6-1.7 2.6-1.8 2.2-11.7-.4-10-1-11.7-5-13-.6-.2-1.2-2.6-1.5-5.3-.6-4.5-.4-5 2.3-7.2 2.8-2.2 2.9-2.5 2.8-11.1-.1-8.9-1.4-13.2-3.8-13.2-1.4 0-2.6-4.3-2.6-8.9.1-4.1 3.9-6.1 13.8-7.1 7.5-.8 17.1-2.5 25.9-4.5 2.2-.5 2.2-.4-.7 5.7-5.7 12.3-5.9 20.3-2.1 83.1.3 6 .3 11.1-.1 11.3-.3.2-1 1.9-1.3 3.7-.4 1.7-1.4 4-2.3 4.9-1.4 1.7.8 1.8 45.6 1.8 26 0 47.2-.2 47.2-.5s-1.1-1-2.4-1.5c-1.8-.7-2.7-1.9-3.2-4.7-.3-2.1-1.6-4.9-2.9-6.3-1.7-2-2.5-4.6-3.4-12.2-1.5-12.8-1.4-16.4.5-25.6 1.5-7.7 10.8-28.3 13-28.9.6-.2 1.8 3.2 2.8 7.9 1 4.6 2.6 11.7 3.6 15.8 6.1 24.7 7.4 38.3 4.4 44.3-.9 1.8-3.2 5.1-5.1 7.4l-3.4 4.3h52l6.8-5.8c12.2-10.6 22.2-21.3 23.9-25.9 2.9-7.6.7-19.9-5.2-28.6-1.6-2.3-9.6-11.1-17.8-19.4L344.7 289l1.2-10.2c4.1-34.7 6.5-46.5 14.3-70.7 2-6.1 3.3-8.9 3.9-8 .4.7 1.1 1 1.6.6.4-.5 1.3.7 1.9 2.5s1.8 3.4 2.7 3.6c2.3.5 6.7-2.7 6.7-4.9 0-1.2.5-1.6 1.5-1.3.9.4 1.8-.1 2.2-1.2.3-.9 2.4-3.5 4.5-5.6s3.8-4.4 3.8-5.1c0-.8.9-2.2 2-3.2 1-.9 2.7-3.7 3.6-6.1s2-4.4 2.4-4.4 1.5-2.1 2.4-4.8c1-2.6 2.2-5.6 2.8-6.7.7-1.1 1.5-4 2-6.5 2.9-15.9 1.8-19.7-6.7-23.6-10.3-4.7-17.3-4.1-27.1 2.5-4.1 2.8-4.9 3-9.6 2.3l-5.1-.7 9.9-8.5c5.4-4.7 12.6-10.8 15.9-13.5s6.2-5.2 6.5-5.5 2-1.8 3.7-3.4l3.3-2.9 3.9 1.8c5.3 2.3 12.7 1.7 17.2-1.6 1.9-1.3 6.8-3.5 10.9-4.9 5.1-1.8 7.6-3.1 7.8-4.4.5-2.4-3.1-6.2-9.2-9.6l-4.9-2.8 4-1.1c4.7-1.3 9.6-4.8 8.7-6.3-.4-.5-2-1.6-3.6-2.3l-3-1.2L437 59.9c5.7-6.3 12.8-14 15.9-17.2 5.1-5.3 5.3-5.7 3-5.7-1.3 0-3.3.6-4.4 1.3M253 160.9c0 1.1-.3 1.1-1.4.1-.8-.6-1.2-1.8-.9-2.7.5-1.2.7-1.2 1.4-.1.5.7.9 1.9.9 2.7m-7.7 15.4c2.5 2 2.7 2.5 1.8 5-2.1 5.5-1.4 7.5 3.8 11.2l5 3.6-2.2 4.7c-1.1 2.6-4.6 11.4-7.6 19.7l-5.6 14.9-5 1.9c-2.8 1-11.1 3.2-18.6 4.8-7.6 1.6-17.6 4-22.4 5.4s-8.9 2.4-9 2.3c-.4-.4-3.5-24.8-3.5-27 0-.9 1.3-2.5 2.9-3.4l3-1.8-2.4-2.8c-4.8-5.7-5.8-15.4-2.5-25.2 1.1-3.3 2-7 2-8.3v-2.4l3.3 2.5c6.2 4.7 14.1 6.8 24.2 6.4 10.2-.5 15.4-2.6 24-9.7 2.7-2.3 5.2-4.1 5.5-4.1s1.8 1 3.3 2.3m-79.7 98.8c.3.6.2 1.5-.4 2.1s-1.1.2-1.5-1.1c-.5-2.2.7-2.9 1.9-1m7.3 32.5c.1 6.6-.6 8.2-2.4 5.8-1-1.5-1.3-1.5-2.9.1-.9 1-1.9 1.5-2.2 1.3-.9-1-1.7-10.6-1-13.2.6-2.3.9-2.5 2.7-1.3 1.8 1 2.3.9 3.2-.5 1.1-1.7 1.2-1.7 1.9 0 .3.9.7 4.4.7 7.8m1.2 34.5c.8 6.6-.3 12.8-1.6 9.6-.9-2.2-3.1-2.2-3.9 0-1.3 3.3-2.6-.9-2.6-8.5 0-7.1 0-7.2 2.1-6 1.8 1.1 2.3 1 3.2-.4 1.6-2.4 2-1.6 2.8 5.3m171.9-3c0 .3-.9 1.4-2 2.4-2 1.8-2 1.7-2-1.9 0-3.4.1-3.5 2-2.4 1.1.7 2 1.6 2 1.9"/></svg>