<svg xmlns="http://www.w3.org/2000/svg" width="682.667" height="512" version="1.0" viewBox="0 0 512 384"><path d="M448 42.3c-11.2 6.2-15.1 8.8-33 22.1-7.4 5.6-16 11.8-19 13.9-3 2-7.6 5.4-10.2 7.5-2.6 2-10.9 7.1-18.5 11.2-7.5 4.1-17 9.6-21 12.2L339 114v-3c0-7-5.2-12-10.4-10-1.4.5-2.6 1.4-2.6 1.9 0 .6.7.8 1.6.4 1.5-.5 1.5-.3.1 2.3-.8 1.6-2.4 3.7-3.4 4.7-1.9 1.6-2.2 1.6-7.9-.5-7.9-2.9-26.5-3.2-33.4-.4-2.5.9-6.5 2.2-9 2.8-4 1-4.2 1.2-2 1.8 2.4.6 2.3.7-1.7 2.8-2.4 1.3-4.3 2.6-4.3 3s-1.2 1.5-2.7 2.4c-3 1.9-1.5 2.5 1.8.8 2.6-1.4 2.4-.7-1 4.1-3 4.1-5 11.5-4.9 17.8.1 3.3.2 3.3 1.8 1.2 2-2.8 3-1.8 3 3.1 0 3.6-.1 3.8-3.2 3.8-7.2 0-7.3-.1-7.3-10.3 0-8.4-.3-9.8-3.3-15.8-3.8-7.6-11.6-16-17.4-19-2.4-1.2-7.9-2.5-13.6-3.2-11.7-1.4-13.5-2.8-16.4-13.1-5.4-19.6-19.2-33.3-39.1-39.1-9.3-2.7-21.5-1.8-29.7 2.1-21 9.9-36.9 35.4-37 59 0 12.2 4.6 22.2 15 32.4 14.3 14 30.9 18.8 48.8 14.1 7-1.8 7.2-1.8 8.8 0 .9 1.1 2.5 1.9 3.6 1.9q1.8 0 1.8 2.1c0 2-.1 2.1-2.5.5-1.3-.9-3.3-1.6-4.3-1.6-2.3 0-8.3 3.9-13.2 8.5-1.9 1.7-6.1 4.7-9.2 6.4-6.1 3.4-6.8 4.8-4.7 9.5 1 2.1.8 2.9-1.4 5.8-1.4 1.8-3.5 5.4-4.6 8-1.8 4.3-1.8 4.9-.5 6.3 2.3 2.2 3.2 1.9 5.5-1.9l2-3.5 3.7 1.6c2 .8 4.7 2.5 5.9 3.8l2.3 2.2-3 4.2c-1.7 2.2-3.5 4.1-4.2 4.1s-.5.7.4 1.7 1.8 2.7 2 3.8c.2 1.3 1.2 2.1 2.9 2.3l2.6.3.7 15.2c.4 8.4 1.2 17.2 1.7 19.7s1.4 7.8 1.8 11.9c.8 7 2.4 10.1 5.3 10.1.4 0 .8 2.7.8 5.9 0 5.1-.3 6.1-2 6.6-2.7.9-3.3 4-2.8 14.1.4 8.2 1 9.5 4.2 10.7.5.2 1.1 2.8 1.4 5.9.4 4.7.1 5.7-1.6 6.9-2.2 1.6-2.7 4.8-2.4 15.7.2 5.2.6 6.6 2.6 8.3 1.7 1.5 2.7 3.7 3.1 7.1.7 4.6.5 5.2-1.8 7.2-3.8 3.1-4.3 12.6-.7 12.6 1.3 0 1.8-.5 1.4-1.5-.4-.8-.3-2.6 0-4 .6-2.2.9-2.4 2.7-1.2 1.7 1 2.2.9 3-.6 1.5-2.6 2.9-1.1 2.9 3.4 0 3.3.3 3.9 2.1 3.9 2 0 2.1-.3 1.5-5.7-.7-5.9-1.9-8.3-4.2-8.3-.9 0-1.4-1.1-1.4-2.9 0-1.6-.3-4.2-.6-5.9-.5-2.7-.3-3.3 1.9-4.3 3.3-1.5 4.2-6.7 2.8-16.3-.9-6.2-1.7-7.9-4.5-8.9-.5-.1-1.1-2.7-1.4-5.6-.4-4.8-.2-5.6 1.9-7.2 2.2-1.7 2.4-2.4 2.4-11.5 0-9.3-.1-9.7-2.8-11.8-2.4-1.9-2.7-2.9-2.7-7.8 0-4.8.3-5.8 2-6.3 1.1-.3 2-1 2-1.4s3.9-1.1 8.7-1.5c4.9-.3 12-1.3 15.8-2.1 14-3.1 12.9-3 12-.9-5.4 12.4-6 15.4-6 33.4 0 9.6.6 27.7 1.3 40.1 1.2 20.6 1.2 23.1-.3 27.5-.9 2.7-2.1 5.4-2.7 6.1-.8 1.1 8 1.3 45.8 1.2 34.3 0 46.3-.3 44.7-1.1-1.5-.7-2.5-2.4-2.9-4.7-.4-2-1.5-4.6-2.6-5.8-2.6-2.9-3.7-7.7-4.4-20.8-.6-9.3-.3-12.3 1.4-19.2 2.7-10.8 11.9-29.2 13.5-27.2.5.6 8.5 38 10.2 47.9 2.5 14.1 1.7 18.2-5.2 26.7l-3.4 4.3h52.8l4.9-4.2c10.1-8.6 22.6-21.4 24.6-25.2 3.2-6.2 2.2-16.4-2.6-26.1-3.1-6.2-6.3-10.1-19.2-23.4L344.8 289l1.6-13.2c2.4-19 6.4-40.9 9.3-50.8 4.2-14.3 8.7-26.6 9.1-24.7.2.9 1 1.7 1.8 1.7.7 0 1.6 1.1 2 2.5 1 4.2 3.7 4.9 6.8 1.7 1.4-1.6 2.6-3.3 2.6-4 0-.6.7-.9 1.5-.6.8.4 1.5.1 1.5-.5 0-.5 1.7-2.8 3.8-4.9 4-4.3 10.6-14.3 11.7-18 .3-1.2 1-2.2 1.5-2.2s1.4-1.7 2-3.8c.7-2 2.1-5.7 3.2-8.1 2.4-5.4 3.7-21.6 1.9-24.9-1.6-3-9.7-7-15.7-7.7-5.7-.7-11.3 1-18.4 5.5-3.8 2.4-5.2 2.8-8.7 2.3-2.4-.3-4.3-1.1-4.2-1.7 0-.6 2.8-3.4 6.1-6.1 3.4-2.8 12.1-10 19.3-16.1l13-11 3 1.8c5 3 11.8 2.4 18.4-1.6 3.1-1.9 8.5-4.2 11.9-5.2 3.5-.9 6.6-2.3 6.9-3.1.7-1.8-5.1-7.9-10-10.4-3.6-1.9-4.2-3.9-1.1-3.9 2.2 0 9.4-3.9 9.4-5.1 0-.5-1.3-1.8-3-2.7-1.6-.9-3-2-3-2.4 0-.7 18.4-21.2 25.3-28 4.3-4.4 5.8-6.8 3.9-6.8-.4 0-5 2.4-10.2 5.3M253.6 161.7c-1.2 1.2-2.9-1.5-2.1-3.4.7-1.7.8-1.6 1.8.5.5 1.2.7 2.5.3 2.9m-8.1 14.5c2.8 1.3 3.2 3.6 1.3 8.8-1.2 3.6-.9 4 6.6 9.5l2.8 2-4.5 11c-2.4 6-5.9 14.8-7.6 19.5l-3.2 8.5-5.9 2.3c-3.2 1.2-11.1 3.4-17.6 4.7-13.7 2.9-21.5 4.9-27.2 6.9l-4.1 1.5-.6-3.2c-.2-1.8-1-6.6-1.5-10.7-.6-4.1-1.3-9.1-1.7-11.1-.5-3.3-.2-3.9 2.3-5.5 1.6-1 3.1-1.9 3.3-2.1.3-.2-.6-1.4-1.8-2.7-2.6-2.8-5.1-10.4-5.1-15.7 0-2 .9-5.9 2.1-8.6 1.1-2.6 2.2-6.4 2.2-8.4l.2-3.5 3.8 2.7c6.2 4.5 13.1 6.4 22.7 6.3 9.9 0 16.3-2.4 24.5-9.3 5.5-4.6 5.4-4.5 9-2.9m-80.2 100.4c-.8 2.1-2.3 1.7-2.3-.6 0-1.3.5-1.8 1.4-1.4.8.3 1.2 1.2.9 2m6.8 28.9c.1 2.7.2 6.3.1 7.9-.2 2.8-.3 2.8-2.1 1.2-1.7-1.5-2-1.5-3.4-.2-.8.8-1.7 1.2-2.1.9-1-1.1-.7-15.3.4-15.3.6 0 1 .4 1 1 0 1.6 3 1.1 3.7-.6 1-2.6 2.1-.2 2.4 5.1m1.7 37.9c.2 3 .1 6.7-.2 8.2-.7 2.5-.8 2.5-2 .8-1.2-1.6-1.6-1.6-3-.5-2.4 2-3 .8-3.4-7l-.4-6.9 3.1.6c2.6.5 3.1.3 3.1-1.2 0-1.4.3-1.5 1.2-.6.6.6 1.3 3.6 1.6 6.6m171.1-5.1c.8 1.1.5 1.9-1.2 3.5l-2.3 2.2.4-3.5c.4-3.7 1.3-4.3 3.1-2.2"/></svg>