<svg xmlns="http://www.w3.org/2000/svg" width="682.667" height="512" version="1.0" viewBox="0 0 512 384"><path d="M452.5 45.8c-10.7 5.7-14.3 8-29.8 19.2-35.7 25.8-36.1 26.1-55.5 36.7-8.5 4.6-17.5 9.8-19.8 11.4-2.4 1.6-4.5 2.9-4.8 2.9s-.6-1.9-.6-4.3c0-5.3-3-8.7-7.8-8.7-3.3 0-5.2 1.7-3.2 3 1.4.9.3 3.5-2.8 6.3-1.9 1.8-2.2 1.7-9.3-.5-9.2-2.9-27.1-3.2-33.1-.6-2 .9-6.2 2.2-9.5 2.9-5.7 1.3-5.7 1.3-2.3 1.9l3.5.6-3.5 1.6c-1.9.8-5 2.9-6.9 4.7-3.3 3.1-3.3 3.1-.6 2.1 1.5-.6 2.9-.9 3.1-.7s-.9 1.9-2.5 3.8c-3.7 4.5-5.1 9-5.1 15.8.1 4.3.3 5.2 1.1 3.8 1.6-2.7 2.6-2 3.1 1.9.5 4.5-1.9 6-7.3 4.7l-3.4-.9-.6-9.5c-.4-8.2-1-10.2-4-15.9-4.2-8.1-11.4-15.4-17.6-18.1-3.1-1.4-7.9-2.3-13.5-2.6-6.1-.4-8.8-1-8.8-1.8 0-.7-1-2-2.3-2.8s-2.4-2.1-2.4-2.9c-.1-3-2.7-10.7-5.8-17.3-3.9-8.1-10.3-15.1-18.8-20.6-10.1-6.5-15.7-8.2-27.7-8.3-9.5-.1-11.1.2-16.5 2.7-22.7 10.6-40.3 39.4-38.2 62.4 1.5 15.5 13.4 31.1 30.3 39.4l8.8 4.4h11.5c6.9-.1 13.2-.6 15.4-1.4 3.3-1.1 4.1-1.1 5.6.3 1 .9 2.5 1.6 3.3 1.6.9 0 1.9.7 2.2 1.6 1.1 2.9.6 3.5-1.6 2-4.8-3.4-9.4-1.9-17.3 5.4-2.2 2.1-6.6 5-9.9 6.6-3.2 1.6-6.1 3.5-6.4 4.3-.3.7.1 2.9.7 4.8 1.2 3.2 1.1 3.8-.9 6.5-3.9 5.3-7 13.1-5.8 14.5 1.7 2.1 4.8 1.5 6-1.3 1-2.2 1.7-2.5 4.2-2 1.7.4 4 1.5 5.1 2.6 1.2 1.1 2.7 2 3.3 2 2.2 0 1.3 2.8-2.4 7.6-2.2 2.8-3.2 5-2.5 5.2.6.2 1.1 1.5 1.1 2.8 0 1.9.7 2.6 2.9 3l2.8.6 1.2 15.7c.7 8.6 1.8 19.3 2.6 23.6.8 4.4 1.4 9.4 1.5 11.2 0 2 .8 4 2.2 5.3 2.9 2.7 2.7 10.6-.3 13.2-2.7 2.3-3.9 6.9-3.9 15 0 6.4 1.4 9.8 4.1 9.8.5 0 .9 2.2.9 5 0 4.1-.5 5.4-2.9 7.9-2.5 2.6-3 4.1-3.6 10.4-.8 8.8 0 13.3 2.6 14.7 1.5.9 1.9 2.2 1.9 6.7 0 4.7-.4 5.9-2.5 7.9-3.2 3-3.5 8.4-.5 8.4 1.4 0 2-.7 2-2.1 0-1.8.2-1.9 1.5-.9s1.9 1 3.3-.4c2.1-1.8 3.2-1.2 3.2 1.6q0 1.8 2.1 1.8c1.9 0 2.1-.4 1.6-3.7-.4-2.4-1.6-4.6-3.2-5.8-2.1-1.7-2.5-2.9-2.5-7.2s.3-5.3 2.1-5.8c2.9-.9 4-4.6 4.2-14.3.2-7.8 0-8.5-2.2-10.3-2.1-1.7-2.4-2.7-2.2-7.2.2-4.3.7-5.6 2.9-7.4 2.6-2 2.7-2.5 2.7-12.2 0-9.3-.2-10.2-2.2-11.6-1.8-1.3-2.3-2.6-2.3-6.2 0-3.9.5-5.1 3.3-7.8 2.6-2.5 4-3.2 6-2.8 1.4.3 8.7-.7 16.2-2.2 7.6-1.4 13.9-2.4 14.2-2.1.2.2-.2 1.7-1 3.3-2.2 4.1-4.5 13.7-5.3 21.5-.4 3.7 0 18.5.7 33 1.6 30.6 1.7 39.9.2 45l-1.1 3.8h87.1l-.6-4.1c-.3-2.5-1.6-5.2-3.1-6.8-4.3-4.5-6-25.9-3-38 1.9-7.4 5.7-15.9 8.3-18.1 1-.8 2.6-3.6 3.5-6.2 1-2.7 2.2-4.8 2.6-4.8.5 0 1.2 1.7 1.6 3.7.3 2.1 2.2 11.6 4 21.1 1.9 9.5 3.9 21.6 4.6 27.1 1.1 9.4 1 10-1.2 14.6-1.3 2.6-3.6 6.3-5.3 8.1l-2.9 3.4h28.3l28.4-.1 11-9.2c14.2-11.9 16.8-15.7 17.3-24.5.8-13.5-4.3-22.4-24.7-43.5l-13.5-13.8 2.2-15.7c4.2-29.3 8.5-47.1 17.9-73.7l1.7-5 .9 3.7c.5 2.1 1.3 3.8 1.8 3.8s.9.8.9 1.8c0 2.2 1.9 4.2 4 4.2 1.9 0 6-4 6-5.8 0-.6.7-.9 1.5-.6.8.4 1.5.2 1.5-.4 0-.5 2-3.1 4.5-5.8 2.5-2.6 4.5-5.2 4.5-5.9 0-.6 1.1-2.2 2.4-3.5 1.4-1.2 2.8-3.5 3.1-5.1.4-1.6 1-3.1 1.5-3.4s2.8-4.5 5.1-9.2c3.7-7.8 4.2-9.6 4.6-18.2.5-8.7.3-9.8-1.6-12.3-2.6-3.3-12-7-18.1-7.1-4.4-.1-14.5 3.7-18 6.7-1.5 1.4-12 1.1-12-.3 0-.7 11.9-10.9 25.5-21.8 5.5-4.4 10.6-8.7 11.4-9.6 1.7-2.2 2.8-2.1 7.6.3 5.7 2.9 10.7 2.6 17.4-1.2 3-1.8 8.2-3.9 11.5-4.8 7.9-2.2 9-3.9 5.1-8.1-1.7-1.7-4.9-4.4-7.3-5.9l-4.3-2.8 4.1-.7c8.1-1.4 10.4-6.4 4-8.6-1.6-.6-3-1.5-3-2 0-.8 13.6-15.4 25.5-27.4 2.2-2.2 4.6-4.8 5.4-5.8 2.3-2.9-.6-2.1-10.4 3.1M255 160.5c0 .8 0 1.8.1 2.2 0 .4-.4.9-1 1.1s-1.1-.8-1.1-2.2.5-2.6 1-2.6c.6 0 1 .7 1 1.5m-7 19.3c1.8 1.5 2 2.1 1.1 4.5-1.9 4.8-1.3 6.5 3.2 9.8 2.3 1.7 4.8 3.4 5.6 3.9 1.3.7 1.2 1.4-.3 5.1-1 2.4-4 10.2-6.7 17.4-5.3 13.7-7.8 17.5-11.6 17.5-1.3 0-3.6.9-5.1 1.9-1.5 1.1-8.1 3.1-14.7 4.6-6.6 1.4-16.4 4-21.8 5.6-5.5 1.7-10 2.9-10.2 2.7s-1.1-5.8-2-12.6c-.8-6.7-1.8-12.8-2.1-13.6s.8-2.3 2.5-3.6l3.1-2.2-2.1-2.9c-2.6-3.6-4.9-11-4.9-15.4 0-1.8.9-5.4 1.9-8.1 1.1-2.7 2.2-6.6 2.6-8.7.6-3.8.7-3.8 2.8-2.2 1.2.8 4.7 2.8 7.7 4.3 4.8 2.3 6.8 2.6 15 2.7 11.4 0 16.3-1.6 24.6-8.1 6.3-4.8 8.1-5.3 11.4-2.6m-100 19c0 .4-.9 1.3-2 2-2.2 1.3-2.7.3-.8-1.6 1.4-1.4 2.8-1.6 2.8-.4m18.8 80.9c-.9 1.1-1.3 1.1-1.9.1-.5-.7-.9-2.2-.9-3.2 0-1.8.1-1.8 2-.1 1.6 1.4 1.7 2.1.8 3.2m5.2 1.3c0 .5-.5 1-1.1 1-.5 0-.7-.5-.4-1 .3-.6.8-1 1.1-1 .2 0 .4.4.4 1m-.3 30.8c-.4 3.6-1.1 7-1.7 7.6-.7.7-1 .4-1-.8 0-1.5-.5-1.7-2.9-1.3-2.4.5-3 .2-3.4-1.6-.3-1.2-.2-4.2.3-6.7s.9-4.8 1-5.3c0-.4.9-.2 2.1.5 1.8 1.1 2.3 1 3.2-.4 2-3 3 .7 2.4 8m-4.5 29.5c1.6-1.4 1.8-1.4 2.4.1 1 2.6-.2 14.6-1.6 15.9-.9.9-1.1.8-.8-.3.2-.9-.6-1.6-1.9-1.8s-2.3.1-2.3.7-.4 1.1-1 1.1c-1.1 0-1.3-9-.4-13.9.6-2.9.8-3.1 2.2-1.7s1.8 1.4 3.4-.1"/></svg>