<svg xmlns="http://www.w3.org/2000/svg" width="682.667" height="512" version="1.0" viewBox="0 0 512 384"><path d="M453.8 45.3c-9.4 4.8-22.2 13.3-38.3 25.2-6 4.5-13 9.6-15.5 11.2-2.5 1.7-7.4 5.1-11 7.6-3.6 2.4-13 7.9-21 12.2s-16.8 9.3-19.6 11.1c-2.8 1.9-5.3 3.4-5.6 3.4-.2 0-.2-1.6 0-3.5.3-2.8-.1-4-2.6-6.5-3-2.9-5.4-3.6-8.6-2.4-2.1.8-2.1 2.4 0 2.4 1.5 0 1.4.3-.2 2.7-3.9 6.1-4.4 6.2-13 3.3-8.2-2.9-19.3-3.6-27.4-1.7-14.3 3.4-26.3 7.4-17.6 6 4.6-.7 4.6.1-.1 2.7-4.1 2.1-8.3 5.4-8.3 6.4 0 .4.9.2 2.1-.4 3.1-1.7 3.1-.8 0 3.1-3 3.6-4.6 7.8-5.5 14.4-.6 4.5.8 8.3 2 5.2s2.4-1.7 2.4 2.8c0 4.3-.1 4.5-2.9 4.5-1.6 0-4.1-.4-5.4-.9-2.3-.9-2.5-1.5-2.9-10.3-.3-8.2-.8-10-3.7-15.5-3.8-7.1-10.8-14.6-16.1-17.3-4.6-2.4-14.8-4.1-19.5-3.3-2.8.4-3.6.2-4.2-1.3-.4-1.1-1.5-2.6-2.5-3.4s-2.5-4.3-3.3-7.8c-1.8-7.6-7.2-18.5-11.7-23.3-16.8-18-39.7-23.7-58.3-14.5-11.6 5.7-22 16.7-28.9 30.4-9.1 18.2-9 36.9.5 50.8 4.5 6.7 14.4 15 22.3 18.9 10.5 5.2 19.5 6.4 31.1 4.1 7.9-1.5 8.9-1.5 10.5-.1.9.8 2.4 1.5 3.2 1.5 1.5 0 3.3 2.8 2.4 3.7-.2.3-1.3 0-2.4-.6-4.8-2.6-9.1-1.1-16.2 5.4-1.9 1.8-6.5 4.9-10.2 6.9-7.1 3.9-7.9 5.2-5.7 10 1 2.1.8 2.9-1.5 5.8-4.2 5.6-7 12.7-5.6 14.4 1.9 2.2 4.9 1.7 6-1.1 1.2-3.2 3.6-3.2 8.8.2 5.1 3.3 5.4 5.8 1.1 10.4-2.5 2.7-2.9 3.6-2.1 5.3.6 1.2 1.3 2.9 1.6 3.8.3 1.1 1.5 1.8 2.9 1.8 2.3 0 2.4.2 3.5 16.8.7 9.2 1.8 19 2.6 21.7.8 2.8 1.7 7.6 2.1 10.8.5 4.1 1.2 6.1 2.6 7 2.8 1.7 2.8 12.3 0 13.2-2.7.8-4.1 5.6-4.1 13.7 0 7.3 1.1 10.8 3.5 10.8 2.9 0 1.2 12.2-1.8 13.6-2.8 1.2-3.5 4.1-3.6 14.6-.1 7.8.1 8.8 1.9 9.8 1.7.9 2 2.1 2 7 0 3.3-.4 6-.8 6-2 0-4.1 2.8-4.7 6.2-.7 3.4-.5 3.8 1.4 3.8 1.4 0 2.1-.6 2.1-2 0-2.3 1-2.6 2.9-.8 1 1.1 1.5 1 2.5-.5 1.8-2.3 2.3-2.2 3 .8.9 3.6 3.6 3.2 3.6-.5 0-2-.9-3.9-2.5-5.4-3.6-3.4-3.6-10.7.1-14.1 3-2.8 4.3-7.6 4.4-16.2 0-5.9-1.5-9.3-4.1-9.3-.5 0-.7-2.4-.3-5.8.5-4.5 1.2-6.2 3.3-7.9 2.4-2 2.6-2.8 2.9-11.6.4-9.3.3-9.6-2.2-11.2-2.3-1.5-2.6-2.4-2.6-7.1 0-4.8.3-5.6 2.5-6.6 1.4-.6 2.5-1.7 2.5-2.3 0-.8 2.6-1.5 7.3-2 3.9-.3 11.4-1.5 16.6-2.6s9.6-1.8 9.8-1.6c.1.2-.6 2.1-1.6 4.3-4.2 8.7-5.4 19.3-4.8 41.4.4 11.3 1.1 27.4 1.7 35.9.8 10.3.8 16.1.1 17.5-.5 1.2-1.1 3.3-1.4 4.8l-.4 2.8h87l-.6-3.7c-.4-2-1.7-4.8-3.1-6.2-1.9-2-2.7-4.4-3.5-10.4-2.5-17.9-1-29 5.5-41.9 2.9-5.7 3.8-6.9 4.4-5.4.5 1.4 1.2.3 3-4.5 1.9-5.3 2.4-6 3.1-4.4 1.1 2.7 7.5 35.6 9.3 47.5 1.3 8.9 1.2 9.8-.6 14.8-1.1 2.9-3.5 7.3-5.4 9.7L299 384h56.2l8.2-6.4c19.6-15.4 23.2-22.4 19.2-37.4-2.3-8.5-7.2-15.5-20.6-29.6-6.9-7.2-13.3-14.1-14.3-15.2-1.7-2-1.7-2.8.8-19.5 4-27.6 6.9-41.3 12.4-57.8 6.4-18.9 6.6-19.5 7.5-14.7.4 2 1 3.6 1.4 3.6s1.2 1 1.7 2.2c1.8 3.9 4.1 4.5 7 1.8 1.4-1.3 2.5-2.9 2.5-3.7 0-.7.6-1.3 1.3-1.3 2.3-.1 12.4-13.1 16.7-21.5 1.1-2.2 2.4-4.7 3-5.5.5-.8 2.4-4.7 4.2-8.5 2.6-5.9 3.2-8.6 3.6-16.7.4-9.2.3-9.7-2-12.1-3.2-3.1-12.7-6.7-18.1-6.7-4.2 0-17.7 5.6-19.1 7.9-.5.8-1.3.8-2.6.1-1-.5-3.4-1-5.2-1h-3.3l4.5-4.3c2.5-2.4 9.9-8.6 16.5-13.9s13.3-11 14.9-12.7c3.4-3.6 5.1-3.8 8.6-1.1 4.1 3.2 12 2.7 18.6-1.1 3-1.7 8.2-3.8 11.7-4.7 4.4-1.2 6.3-2.3 6.5-3.6.5-2.2-2.9-6-8.6-9.6l-4.3-2.8 5-1.7c8.1-2.7 9-5.4 2.5-8.1-1.9-.8-3.4-1.8-3.4-2.2s7.2-8.2 16-17.4c8.8-9.1 16-16.9 16-17.2 0-1.2-2.2-.5-10.2 3.7M255.2 161.2c.6 1.7-.1 3.8-1.3 3.8-.5 0-.9-1.1-.9-2.5 0-2.6 1.4-3.4 2.2-1.3m-8.1 18.4c2.5 1.2 3 2 2.4 3.7-2.2 7-1.9 8 3.9 12.2 3.1 2.2 5.6 4.2 5.6 4.6 0 .3-2.7 7.8-6.1 16.5-6.2 16.3-9.4 21.4-13.5 21.4-1.2 0-3.2.8-4.5 1.9-1.3 1-8 3.1-14.9 4.6s-16.9 4.1-22.4 5.7c-5.4 1.6-10 2.7-10.2 2.5s-1-5.3-1.8-11.3-1.7-12.1-2.1-13.6c-.6-2.2-.2-2.9 2.2-4.4 1.5-1 3-1.9 3.2-2 .1-.2-.8-1.8-2.2-3.6-4.7-6.2-6.1-16.7-3-22.9.9-1.8 1.9-5.7 2.1-8.5l.4-5.1 5 3.3c6.4 4.3 13.5 6.4 21.9 6.4 8.9 0 15.2-2.2 23-8 3.5-2.7 6.8-4.9 7.2-4.9.4-.1 2.2.6 3.8 1.5m-99.1 19c0 .8-3.2 3.3-4.3 3.4-.4 0-.2-.9.5-2 1.2-1.9 3.8-2.8 3.8-1.4m19.7 81.9c-1.4 1.5-2.7.1-2.7-2.9 0-1.8.1-1.8 1.9-.2 1.6 1.4 1.7 2.1.8 3.1m4.5 1.7c-.7.7-1.2.8-1.2.2 0-1.4 1.2-2.6 1.9-1.9.2.3-.1 1.1-.7 1.7m.3 30.5c-.4 3.5-1.1 6.5-1.6 6.8-.5.4-.9-.1-.9-.9 0-.9-.9-1.6-2-1.6s-2 .4-2 1c0 .5-.4 1-1 1-1.1 0-1.4-11.8-.4-14.4.5-1.2.9-1.3 2.5-.3 1.7 1 2.2.9 3.1-.7 1.1-1.9 1.2-1.9 2 .5.5 1.3.7 5.2.3 8.6m-4.6 28.9 2.1-1.9v7.9c0 8.1-1.2 12.5-2.6 9.1-.8-2.2-3-2.2-4.3 0-.8 1.4-1-.2-1.1-5.9 0-4.2.3-8.4.6-9.2.6-1.5.8-1.5 1.9.1 1.3 1.7 1.4 1.7 3.4-.1"/></svg>