<svg xmlns="http://www.w3.org/2000/svg" width="682.667" height="512" version="1.0" viewBox="0 0 512 384"><path d="M450.5 47.8c-14.2 8.2-17.4 10.3-32 21.2-7.1 5.3-15.5 11.3-18.5 13.3s-8 5.4-11.1 7.6-11.9 7.3-19.5 11.4c-7.7 4-16.5 9-19.7 11s-6 3.7-6.2 3.7c-.3 0-.5-1.8-.5-3.9 0-5-4.8-9.6-8.9-8.6-3.4.9-3.6 1.2-2.2 2.9.9 1.1.6 2-1.5 4.5-3 3.6-4.7 3.8-13 1.1-12.7-3.9-19.2-3.6-38.7 1.9-7.2 2-10.4 3.8-4.9 2.8 1.7-.4 3.2-.5 3.2-.3s-1.5 1.4-3.2 2.5c-6.3 4.1-10.1 7.1-8.9 7.1.7 0 2.2-.5 3.3-1.1 2.3-1.2 2.1-.6-1.7 4.6-3.1 4.2-4.5 8.9-4.5 14.8 0 4.9 0 5 2 3.2s2-1.7 2 2.8c0 4.6 0 4.7-3.2 4.7-1.8 0-4.3-.3-5.6-.6-2-.6-2.2-1-1.6-5.4.7-4.9-1-14.8-3.1-19-.7-1.4-3.5-5.4-6-8.8-7.3-9.7-13-12.4-28.1-13.6-7-.5-10.3-3.9-12.1-12.4-2.2-10.7-6.7-18.8-14.7-26.7-18-17.7-43.4-21.3-60.9-8.6-19.7 14.4-32.3 38.8-30.3 58.4.9 9.4 6.3 19.7 14.6 27.7 14 13.7 30.8 18.7 48.5 14.6 5.2-1.3 6.1-1.3 6.8 0 .4.8 1.6 1.4 2.5 1.4 2.2 0 4.2 1.9 4.2 3.8 0 1.2-.4 1.1-2.5-.2-4.6-3-7.7-2.1-15.9 4.8-2.7 2.3-7.7 5.5-11 7.2-6.7 3.4-7.7 5.4-5.5 10.5 1.1 2.7.9 3.2-1.1 5.1-2.1 1.9-7 11.6-7 13.8 0 .5 1 1.5 2.2 2.1 1.8 1 2.4.8 3.9-1 1-1.2 1.9-2.6 2.1-3.2.5-1.4 5 .4 9.3 3.7 3.4 2.5 3.4 2.7 1.9 5.6-.8 1.6-2.4 3.8-3.6 5-1.6 1.6-1.8 2.5-1 4.2.6 1.1 1.3 2.9 1.6 4 .5 1.3 1.3 1.7 3.1 1.4 2.4-.5 2.5-.3 2.5 4.8 0 11.4 2.2 31 4.1 35.9 1 2.7 1.9 6.3 1.9 8 0 4.7 1.1 7.4 3.1 8 1.6.5 1.9 1.6 1.9 6.4 0 5.1-.3 5.9-2.4 6.9-2.5 1.1-3.6 5-3.6 12.8 0 6.5 1.1 10.3 3.1 10.9 1.5.5 1.9 1.6 1.9 5.6 0 4.3-.4 5.4-3.2 7.9-3 2.8-3.1 3.1-3.6 13.3-.4 10-.4 10.5 1.7 11.2 2.2.7 2.4 1.1 2.1 6.5-.2 5.1-.9 6.8-3 7.5-1.7.5-4 5.2-4 8.1 0 2.7 3.8 1.5 4.5-1.3.6-2.7.7-2.7 2.1-.9 1.3 1.8 1.5 1.8 3.2.3 2.1-1.9 3.2-1.3 3.2 1.5 0 1 .7 1.8 1.5 1.8 1.1 0 1.5-1.1 1.5-4 0-3.3-.4-4.2-2.5-5.2-2.3-1-2.4-1.4-1.8-6.7.3-3.1 1-5.7 1.4-5.9.5-.2 1.8-1.1 3-2.1 2-1.6 2.3-3 2.7-12.2l.4-10.5-2.7-1.2c-2.6-1.2-2.7-1.5-2.2-6.5.6-4.7 2-7 4.9-7.9 1.3-.5 2.7-12.9 2.1-17.9-.4-3-1.2-4.4-2.9-5.1-2.1-1-2.4-1.8-2.4-6.8 0-5.1.3-5.8 2.5-6.8 1.4-.6 2.5-1.6 2.5-2 0-.5 2.8-1.3 6.3-1.6 3.4-.4 10.6-1.6 16-2.7s10.1-1.9 10.3-1.7c.2.3-.5 2.2-1.5 4.4-4.5 9.3-5.4 18.2-4.8 43.9.3 13.2 1.1 29.6 1.8 36.4.9 9.3.9 12.9 0 14.2-.6 1-1.1 3.2-1.1 4.9v3h86.3l-.7-3.3c-.3-1.7-1.5-4.3-2.6-5.7-3.5-4.4-4.2-7.2-4.7-21-.7-15.7.3-20.4 7-33.4 3.9-7.8 4.1-8 4.7-5.1l.7 3 1.1-2.8c.7-1.5 1.5-3.9 1.8-5.3.6-2.3 2.4-4.4 2.4-2.7 0 .4 2 10.7 4.5 22.9 4.9 24.3 6.4 35.4 4.7 35.4-.5 0-1.3 1.6-1.6 3.4-.4 1.9-2.5 5.9-4.7 8.8l-3.9 5.3 28.1.3 28.1.2 6.2-4.5c7.5-5.6 18.4-16.1 20.1-19.5 2.2-4.2 2.7-10.6 1.5-16.7-2.3-11.2-7.7-19-25.9-37.6-7.2-7.4-10.6-11.5-10.5-13 0-1.2.8-7.6 1.8-14.2 4.3-31 8.1-47.5 15.4-68l3.6-10 1 3.5c1 3.5 1.6 4.5 4.9 8.1 1.8 2 1.8 2 4.7-.8 1.7-1.5 3-3.3 3-4s.7-1 1.5-.7c.8.4 1.5.2 1.5-.4s2-3.1 4.5-5.6c2.5-2.6 4.5-5.3 4.5-6s1-2.1 2.1-3.2c1.2-1 3-3.7 4.1-5.9 1-2.2 2.5-5.1 3.3-6.5 3.9-6.8 6.5-14.4 7.6-22.1 1.6-11.5.2-14.6-8-18.3q-11.85-5.25-23.1 0c-3 1.4-6.3 3.2-7.2 4.1-1.5 1.3-2.2 1.4-4.8.3-1.6-.7-3.9-1-5-.7s-2 .2-2-.1c0-.9 8.4-8.1 18-15.7 4.1-3.2 10.7-8.7 14.6-12.2l7.2-6.3 4.3 2.5c6.2 3.5 10.8 3.3 18.3-.9 3.4-1.9 8.4-4 11.1-4.7 5.8-1.4 8.5-2.6 8.5-3.9 0-1.6-5.1-6.9-9.7-9.9-3.2-2.1-4-3.1-2.7-3.1 3.2-.1 10.4-3.8 10.4-5.5 0-.8-1.7-2.3-3.7-3.2-2.1-1-4-1.9-4.2-2-.4-.3 18.7-21.1 27.1-29.6 2.7-2.6 4.8-5 4.8-5.3 0-1.5-4.8.4-13.5 5.4m-195.9 117c-1.5 1.5-1.6 1.4-1.6-.9 0-3.3 1.1-4.4 2.3-2.3.6 1.1.4 2.1-.7 3.2m-6.7 16.1c2 1.5 2.2 2.1 1.2 3.9-2.4 4.6-1.4 6.9 4.8 11.2l6 4-1.6 3.8c-.9 2-3.7 9.5-6.4 16.6-5.3 14.2-7.3 17.1-12.6 17.9-1.9.4-4.3 1.3-5.2 2.1s-7.8 2.8-15.4 4.5c-7.7 1.7-17.7 4.2-22.4 5.6-4.7 1.5-8.7 2.4-9 2.1-.3-.2-1.1-4.9-1.8-10.3s-1.6-11.6-2-13.8c-.6-3.7-.4-4.1 2.5-5.8l3.1-1.9-2.4-3.2c-4.9-6.4-6-16.3-2.7-24.1 1.1-2.6 2-6.2 2-8.1s.2-3.4.5-3.4c.2 0 2.6 1.4 5.2 3 6.5 4.2 13.3 6 21.9 6 8.9 0 15.9-2.4 22.9-7.9 5.6-4.4 7.9-4.9 11.4-2.2m-100.8 17.6c0 .6-.9 1.6-2.1 2.4-2 1.4-2.1 1.3-.9-1.3 1.2-2.5 3.1-3.2 3-1.1m21.2 82.1c-.7 1.9-2.3.7-2.3-1.8 0-1.7.3-1.8 1.4-.8.8.6 1.2 1.8.9 2.6m5.4 31.1c-.3 3.6-1 7-1.6 7.6-.8.8-1.1.6-1.1-.6 0-1-.8-1.7-2-1.7-1.1 0-2 .6-2 1.2 0 .9-.4.8-1-.2-1.1-1.7-1.3-9.3-.4-12.7.5-1.9.9-2 2.6-1 1.6 1 2.1.9 3-.7 1-1.8 1.1-1.8 2.1-.1.5 1 .7 4.7.4 8.2m-5.4 30.7c.9-.3 1.7-1 1.7-1.6 0-.5.5-.6 1-.3 1.3.8 1.3 9-.1 14-1.1 3.7-1.2 3.8-2 1.7-1-2.6-2.2-2.8-3.9-.7-3 3.6-3.9-1.6-1.8-10.4.9-4.1 1.3-4.7 2.2-3.5.7.9 1.8 1.2 2.9.8"/></svg>