<svg xmlns="http://www.w3.org/2000/svg" width="682.667" height="512" version="1.0" viewBox="0 0 512 384"><path d="M458.5 44.2c-12 6.2-26.2 15.4-43.5 28.3-19.4 14.4-30.9 21.8-49 31.4-8.5 4.6-16.7 9.2-18.2 10.2-3.5 2.6-3.8 2.4-3.8-1.6 0-5.1-3.8-8.7-8.7-8.3-3.8.3-5.7 2.4-2.6 3 1.5.3 1.2.9-1.9 4.3l-3.6 3.9-6.8-2.2c-14.7-4.8-21.7-4.7-39.2.4-9.6 2.8-10.8 3.4-6.6 3.4l2.9.1-3.1 1.7c-1.7.9-4.6 3-6.5 4.5l-3.4 2.9 2.8-.6c2.5-.6 2.7-.5 1.8 1.2-.5 1-1.7 2.4-2.5 3.2-2.1 1.7-4.6 10.3-4.6 15.8 0 4.3.1 4.4 1.8 2.9 2.3-2.1 3.2-1.3 3.2 2.9 0 3.9-2.4 5-7.5 3.6l-3-.8-.5-9.5c-.7-11.7-3.7-18.4-12.5-27.5-6.8-7-12.1-9.2-22.8-9.5-4.9-.2-6.1-.6-7.4-2.6-.8-1.3-2.1-2.3-2.7-2.3-.8 0-2-3.3-3-7.9-5.1-24.2-24.7-41.7-48.7-43.8-25.9-2.2-54.9 27.2-57.6 58.3-2.5 29.7 31.3 57.2 61.7 50.1 6.1-1.4 6.5-1.4 7.7.3.7 1 2.3 2 3.5 2.2 1.3.2 2.4 1.1 2.6 2.2.4 1.9.3 1.9-2.2.3-4.7-3.1-7.8-2.2-16.1 4.8-2.7 2.3-7.8 5.6-11.2 7.4-6.7 3.3-7.2 4.3-5.2 9.9 1 2.8.8 3.5-1.3 6-1.2 1.5-3.4 5.1-4.7 8-2 4.2-2.2 5.4-1.1 6.7 1.9 2.2 3.7 1.8 5.7-1.3.9-1.5 1.8-2.8 1.9-3s1.9.6 4.1 1.7c8.3 4.5 9 6.2 4.4 12-2.7 3.4-2.9 3.9-1.8 7.4 1 3.1 1.6 3.7 3.9 3.7 2.7 0 2.8.2 2.8 5.4 0 12.2 2.2 31.1 4.1 35.5 1 2.4 1.9 5.4 1.9 6.6 0 5.1 1.3 8.7 3.6 9.7 2.1 1 2.4 1.8 2.4 6.2 0 4.3-.4 5.3-2.7 7.2-2.7 2.1-2.8 2.5-2.8 11.9 0 9 .2 9.9 2.2 11.2 1.9 1.3 2.3 2.5 2.3 6.9 0 4.6-.4 5.6-2.4 6.9-2.8 1.9-4.6 8.4-4.6 16.6 0 4 .5 5.5 2.6 7.5 2.3 2.4 2.5 3.1 1.8 8-.5 4-1.1 5.5-2.5 5.9-2.2.7-3.4 2.7-4.4 7.3-.6 2.8-.4 3.2 1.3 3.2 1.3 0 2.2-.9 2.6-2.5.6-2.4 2.6-3.6 2.6-1.5 0 1.6 3 1.2 3.6-.5.9-2.1 2.4-.8 2.4 2.1 0 1.7.5 2.4 2 2.4 1.7 0 2-.7 2-4s-.4-4.2-2.5-5.2c-2.7-1.2-2.8-2-1.9-9.1.5-3.3 1.2-4.7 2.5-5 3-.8 4.9-6.8 4.9-15.1 0-7-.2-7.7-2.5-9.2-2.2-1.4-2.5-2.3-2.5-7.5 0-3.3.4-5.9 1-5.9.5 0 1.9-.9 3-2 1.7-1.7 2-3.3 2-10.4 0-9.9-.5-11.4-3.6-12.7-2.1-.7-2.4-1.5-2.4-6.3 0-4.7.3-5.7 2.3-6.7 1.2-.7 2.6-1.8 3-2.5.5-.8 2.5-1.4 5.1-1.4 2.3 0 9.3-.9 15.6-2 6.2-1.2 11.4-1.9 11.6-1.7s-.5 2.1-1.5 4.3c-5.1 10.5-6.4 23.4-5.1 50.4.6 11.8 1.5 26.4 2.1 32.4.7 7.5.7 11.2-.1 12-.5.5-1 2.5-1 4.3v3.3h86l-.7-3.3c-.3-1.7-1.7-4.4-3.1-5.9-3.1-3.4-4-8.9-4.1-24.4-.1-7.4.4-12.8 1.5-16.5 1.6-5.3 6.1-15 9.3-19.9l1.6-2.4.5 4.4.6 4.5 1.9-5.8c1-3.1 2.1-5.7 2.4-5.7.8 0 8.7 38.1 10.1 48.2 1 7.2 1 7.8-1 9.8-1.1 1.1-2 2.7-2 3.5 0 2-2.6 6.2-6.4 10.3l-3 3.2h59l7-5.6c8.7-7.1 16.2-14.3 17.7-16.9 3.2-6 2.4-19.1-1.7-27.3-3.3-6.5-10.9-15.7-23.1-28.3-5.7-5.9-10.2-10.8-10-11.1.3-.2 1.4-7.6 2.5-16.4 3.9-30.2 7.2-44.9 16.2-70.4l2.2-6.5 1.2 4c.6 2.4 1.3 3.4 1.6 2.5s.8-.2 1.2 1.8c.5 1.8 1.4 3.6 2.1 3.8 1.8.7 6.3-2.3 7-4.7.4-1 1.1-1.9 1.6-1.9 3.3 0 15.5-16.4 21.4-29 6.3-13.3 6.5-13.7 7.1-23.5.6-9.1-.5-11.2-8.5-15.3-9.6-4.8-18.6-4-28.1 2.8-2.2 1.6-3.7 1.8-7.9 1.3-2.8-.3-5.1-1-5.1-1.4 0-.5 4.2-4.2 9.3-8.3 5-4.1 12.6-10.2 16.7-13.6 4.1-3.3 8.9-7.2 10.6-8.6l3.2-2.5 4.2 2.2c6 3.1 10.5 2.8 18.6-1.4 3.8-2 9.5-4.4 12.7-5.2 4.3-1.2 5.7-2 5.7-3.4 0-2-6.7-8.5-10.6-10.3-2.8-1.3-3.2-2.8-.6-2.8 2.6-.1 10.2-3.7 10.2-5 0-.9-4.4-4.1-7.5-5.4-.7-.3-.7-.7 0-1.3 2.2-1.7 31.5-33.1 31.5-33.7 0-1.1-2.5-.5-6.5 1.6m-119.3 72c-.8.8-.9.4-.5-1.3.4-1.3.8-1.8 1.1-1 .2.7-.1 1.8-.6 2.3m-84 49c-1.7 1.7-2.5.3-1.7-2.9l.7-2.8 1.1 2.3c.7 1.6.7 2.6-.1 3.4m-6 18.9c-1.8 7.2-1.7 7.4 4.7 11.9 6.3 4.4 6.7 4.9 5.2 6.5-.9 1.1-7.1 17.1-9.7 25.3-1.9 5.9-7 11.2-10.7 11.2-1.2 0-3.2.7-4.4 1.5s-7.7 2.7-14.5 4c-10.9 2.3-26.5 6.3-31.2 8.1-1.2.5-1.6 0-1.6-1.7 0-1.3-.9-7.8-2-14.4l-2.1-12 2.1-1.7c1.1-.9 2.6-1.8 3.3-2.1.8-.3.6-1.2-.9-2.8-3.4-3.8-4.4-6.4-5-12.8-.6-4.9-.3-7 1.6-11.7 1.3-3.1 2.3-7 2.3-8.6 0-1.5.3-2.7.6-2.6.3.2 4.1 2.1 8.4 4.2 6.8 3.4 8.9 4 16.1 4.4 10.2.5 15.5-1 25.1-7.3l6.8-4.5 3.1 1.9c1.7 1 2.9 2.4 2.8 3.2M148 197.9c0 .4-1.2 1.3-2.6 1.9-2.6 1.2-2.6.7-.1-2.5.9-1.3 2.7-.9 2.7.6m20.3 81.7c-.6 1.7-2.3.9-2.3-1.1 0-.8.6-1.2 1.4-.9s1.2 1.2.9 2m5.7.8c0 .3-.4.8-1 1.1-.5.3-1 .1-1-.4 0-.6.5-1.1 1-1.1.6 0 1 .2 1 .4m.5 30.1c0 8.1-.8 9.8-3 6.9-1.4-1.8-1.6-1.8-2.9-.1-1.2 1.6-1.4 1.6-2 .1-.9-2.5-.7-12.7.4-14.4.6-1 1-1.1 1-.3 0 .7.9 1.3 2 1.3 1.2 0 2-.7 2-1.7 0-1.4.3-1.5 1.3-.5.7.8 1.2 4.1 1.2 8.7m-7.2 30.7c.3 1 .9 1 2.6 0 1.1-.6 2.3-1.2 2.6-1.2.8 0 .5 13.3-.4 15.5-.8 1.9-.8 1.9-1.9 0-.9-1.7-1.4-1.8-3.1-.8-2.7 1.7-3.3-.3-2.5-8.3.6-6 1.7-8 2.7-5.2"/></svg>