<svg xmlns="http://www.w3.org/2000/svg" width="682.667" height="512" version="1.0" viewBox="0 0 512 384"><path d="M455.4 47.1c-9.2 4.9-23.4 14.1-35.4 23-7.9 5.8-19.2 13.7-31.4 21.8-2.8 1.9-11.8 7-19.9 11.3-8.2 4.3-16.9 9.2-19.3 10.9l-4.4 3v-3.6c0-4.2-4.4-9.5-7.8-9.5-4.4 0-7.1 2.5-3.5 3.2 1.4.2 1.1 1-1.6 4.1-1.8 2-3.9 3.7-4.7 3.7-.7 0-5.3-1.1-10-2.5-12.9-3.7-18.3-3.4-37.9 2-7.5 2.1-10.3 3.6-5.2 2.8 4.6-.7 4.8.2.4 2.1-1.8.7-4.6 2.6-6.3 4.1l-2.9 2.8 2.9-.7 2.8-.7-2.9 3.8c-1.6 2.1-3.5 5.1-4.2 6.7-1.3 3.1-2.5 14.6-1.5 14.6.3 0 1.4-1 2.5-2.3l1.8-2.2.1 4.8c0 5.5-1.3 6.5-6.7 5.1l-3.6-.9-.1-8.5c-.2-10.5-2.6-17.1-9.4-25.5-6.5-8-12.6-11.2-23.5-12.6-7.6-1-8.6-1.4-10.9-4.3-1.5-1.9-3.2-6.1-4.2-10.6-3.2-14.4-9.7-24.4-21.2-32.6-13.4-9.6-28.2-12.6-41.6-8.4-25.2 7.8-46.8 40.7-42.8 65.3 2.4 14.9 13.6 29 29.4 36.8 8.2 4.1 9.5 4.4 18.5 4.7 5.3.2 11.6-.1 14.1-.7 3.9-.9 4.7-.8 6.6 1 1.1 1 2.8 1.9 3.7 1.9 1 0 1.7.8 1.7 2.1 0 1.9-.1 1.9-2.2.5-4.1-2.9-8.5-1.5-16.8 5.3-2.5 2-7.1 5-10.4 6.6-3.2 1.6-6.1 3.6-6.4 4.3-.3.8.1 3 .7 4.9 1.2 3.1 1.1 3.8-.7 6.2-1.1 1.5-3.2 5.1-4.6 8-2.6 5-2.6 5.4-1 7.2 2.4 2.6 3.7 2.4 5.7-1.1 1.6-2.7 2-2.8 4.5-1.8 1.5.7 3.6 2 4.8 3 1.1 1 2.6 1.8 3.2 1.8.7 0 1.2.3 1.2.8 0 1.3-4.2 8.6-5.6 9.7-1.1.8-1.1 1.7-.1 4.7 1 3.2 1.6 3.8 3.9 3.8 2.7 0 2.8.1 2.8 5.7 0 11.2 2.1 29.9 4 35.8 1 3.3 2.1 8.1 2.5 10.6.4 3.6 1.1 4.9 3 5.7 2.2 1 2.5 1.8 2.5 6.6 0 4.5-.3 5.6-1.9 6.1-2.7.8-3.4 3.6-3.2 12 .2 9 .9 11.3 3.2 12 1.6.5 1.9 1.6 1.9 6.3 0 4.9-.3 5.9-2.7 7.8-2.7 2.1-2.8 2.5-2.8 12.4 0 9.4.2 10.2 2.3 11.9 2.1 1.5 2.3 2.2 1.6 7-.5 4.2-1.2 5.5-3 6.3-2.4 1.1-2.7 1.8-3.9 7.6-.6 2.8-.4 3.2 1.3 3.2 1.4 0 2.2-.9 2.7-3 .6-2.5.9-2.8 2.5-1.8 1.4.9 2.2.9 3.4-.1 1.4-1.2 1.7-.9 2.2 1.8.5 2.2 1.2 3.1 2.3 2.9 2.6-.6 1.7-7.8-1.2-10.1-2.2-1.7-2.3-2.2-1.5-7 .7-3.9 1.7-5.8 3.9-7.5 2.9-2.3 2.9-2.5 2.9-12.2 0-9.5-.1-10-2.5-11.6-2.2-1.4-2.5-2.4-2.5-7.4 0-5.1.3-5.8 2.5-6.8 2.4-1.1 2.5-1.5 2.5-11.1 0-9.9-.7-12.2-4.1-13.3-1.6-.5-2.5-11.8-1-11.8.6 0 2-.9 3.2-2.1 1.5-1.5 4-2.2 10.2-2.9 8.3-.8 19.6-2.6 23-3.6 1.6-.5 1.5 0-.8 4.5-4.7 9.5-5.9 16.9-5.9 36.6.1 16.2 1.9 51.2 2.9 56.7.3 1.1-.2 3-1 4.2-.8 1.1-1.5 2.8-1.5 3.8 0 1.7 2.5 1.8 43 1.8h43v-3c0-2-1-4.1-2.9-6.1-2.5-2.6-3.1-4.2-3.7-10.7-2.3-22 0-33 9.9-48.7l3.2-5 .5 5.5.5 5.5 2-5.9c1.5-4.5 2.1-5.4 2.7-4 1.7 4.2 10.7 49.6 10.8 54.3 0 .8-.6 1.1-1.5.7-1.1-.4-2.2.9-3.9 4.7-1.3 2.9-3.8 7-5.6 9l-3.2 3.7h29.8l29.9-.1 9.4-7.7c5.2-4.2 10.8-9.4 12.5-11.5 3-3.8 3.1-4.2 3.1-14 0-9.1-.3-10.7-2.7-15.3-3.4-6.6-10.3-15.1-23-28.7l-10-10.8 1.1-6.2c.6-3.4 1.6-10.3 2.1-15.2 2.8-23.7 7-42.4 14.2-62.3 2.6-7.1 3.3-8.2 3.9-6.4.5 1.2 1.3 2.2 1.8 2.2s1.4 1.3 2 3c1.3 3.8 4.1 3.9 7.3.2 1.3-1.5 3.1-3.1 4.1-3.5.9-.3 1.7-1.3 1.7-2.1s.9-1.8 2-2.1 2.5-1.6 3.1-2.8c.7-1.2 2.6-4 4.4-6.2 1.8-2.3 4-5.7 4.9-7.5.9-1.9 2.3-4.6 3.1-6 5.2-8.8 7.6-16.2 8.2-24.9.7-10.8-.4-13.2-7.5-16.4-10.3-4.5-16.9-4.1-26.7 1.8-5.1 3.1-6 3.3-10.1 2.6-2.5-.5-4.7-1.1-5-1.4-.3-.2 8.3-7.6 19.1-16.2 10.7-8.7 19.8-16.1 20-16.6.3-.4 2.4.3 4.8 1.7 6 3.4 10.1 3.1 18.8-1.5 4.1-2.1 9-4.2 10.9-4.6 5.8-1.1 6.8-1.5 7.4-3.1.7-1.9-5.2-8.4-9.8-10.9l-3.5-1.9 5.7-2.2c7-2.6 7.7-4.6 2.7-7.5-3.5-2.1-3.6-2.2-1.8-4.3 3.1-3.6 19.6-20.7 24.1-25 9.1-8.5 7.6-9.7-4.4-3.5m-115.2 69.1c-.6.6-.7 0-.4-1.9.5-2.1.7-2.3 1-.9.2 1 0 2.2-.6 2.8M256 163.5c0 1.6-.6 2.5-1.6 2.5-1.1 0-1.4-.5-1-1.6.3-.9.6-2 .6-2.5s.5-.9 1-.9c.6 0 1 1.1 1 2.5m-57.5 24.1c4.3 2 8.1 2.9 13.6 3.2 9.2.5 15-1.1 23.9-6.9 6.8-4.3 8.5-4.7 11.8-2.1 2 1.6 2.1 2.1 1.2 4.9-1.5 4.2-.3 6.2 6 10.3 2.7 1.8 5 3.3 5 3.5 0 .1-.6 1.5-1.4 3.1-2 4-8.6 21.4-8.6 22.5 0 .5-.9 2.9-2 5.3-2.1 4.3-2.6 4.7-12.2 9.1-1.8.8-8.2 2.4-14.3 3.6-12.8 2.4-30.1 6.6-32.6 8-1.9 1-2 .6-3.9-15.6-.6-5-1.3-10-1.6-11.2-.5-1.7.1-2.5 2.5-3.8 3.7-1.8 3.7-2 1.1-4.8-2.5-2.6-5-10.7-5-15.9 0-2.1 1-5.8 2.1-8.1 1.2-2.3 2.2-6 2.3-8.3l.1-4.1 3 2.3c1.7 1.3 5.8 3.5 9 5m-52.1 10.9c-3.5 2.7-4.1 1.6-1.1-2.3.7-.9 1.3-1 2.1-.2.7.7.4 1.4-1 2.5m21.6 80.6c0 1-.4 1.9-1 1.9-.5 0-1-1.2-1-2.6s.4-2.3 1-1.9c.6.3 1 1.5 1 2.6m7 31.6c0 4.2-.4 7.3-1 7.3-.5 0-1-.5-1-1 0-1.4-3.8-1.2-4.3.2-.9 2.7-2.1-.6-2.5-6.8-.3-4.4 0-6.9.8-7.7 1-.9 1.4-.9 1.7 0 .7 1.9 3 1.6 3.7-.4 1.3-3.3 2.6.9 2.6 8.4m-3.1 29.9c2-1.8 2-1.8 2.7.9 1.2 5-.9 17.7-2.3 13.7-.6-1.5-4.3-1.6-4.3-.1 0 .5-.4.7-1 .4-1.1-.7-1.3-10.6-.4-14.3.6-2.1.7-2.1 1.9-.5 1.3 1.7 1.4 1.7 3.4-.1"/></svg>