<svg xmlns="http://www.w3.org/2000/svg" width="682.667" height="512" version="1.0" viewBox="0 0 512 384"><path d="M457.7 48.6c-10.2 5.2-23.4 13.6-39.9 25.5-6.4 4.6-13.6 9.7-16 11.2s-7.2 4.8-10.8 7.3-12.7 7.7-20.3 11.5c-7.7 3.9-15.9 8.4-18.4 10-5.2 3.2-6.3 3-6.3-1 0-4.4-2.9-7.3-7.5-7.5-3.7-.1-6.2 1.9-3 2.6 1.2.2.9 1.1-1.6 4.1-3.7 4.5-3.5 4.5-18.9.2-8.9-2.5-10-2.6-16.9-1.5-4.1.7-9.5 1.8-12 2.6-2.5.7-6.6 1.9-9.1 2.6-4.4 1.1-4.4 1.2-1.5 1.7l3 .6-3.3 1.4c-1.8.7-3.6 1.9-4 2.5-.4.7-1.8 2-3.2 3l-2.5 1.7 3-.7 3-.7-1.8 2.4c-3.6 4.9-6 11.4-6.3 17.2l-.3 5.9 2.5-2.3 2.4-2.2v9.3h-3.9c-6.6 0-6.6-.1-6.3-9.4.3-7 0-9.3-2-14.2-3.2-7.8-9.1-15.8-14.3-19.4-4.7-3.3-13.8-6-19.7-6-2.8 0-4-.5-4.5-1.8-.3-.9-1.4-2.4-2.3-3.2-1-.9-2.3-4.9-3.3-9.9-3.4-17.7-13.5-31-29.7-38.9-9.7-4.8-16.5-6.1-26.4-5-29.8 3-57.9 44.4-48.7 71.7 5.7 16.6 21.5 31.3 38 35.1 3.5.8 9.1 1.1 15.7.7 8.1-.4 10.6-.2 11.5.9.6.8 1.7 1.4 2.4 1.4 1.5 0 4 2.8 3.2 3.6-.3.3-1.7-.2-3.2-1.2-2.5-1.7-2.8-1.6-7 .4-2.5 1.2-6.1 3.7-8.2 5.5-2.1 1.9-6.6 4.7-10.1 6.2-7.5 3.4-8.5 4.7-6.7 9.8 1.2 3.5 1.1 4-1.1 6.6-2.5 3-6.4 11.3-6.4 13.6 0 .8.9 1.9 2 2.5 2 1.1 2.5.7 5.3-3.2 1.1-1.6 1.4-1.6 5.2.1 8.8 4.1 9.5 6.7 3.3 13-2.1 2.2-2.9 3.6-2 3.8.6.3 1.2 1.8 1.2 3.4 0 2.5.4 2.9 2.8 2.9h2.8l1.1 18.3c.7 10.1 1.7 19.7 2.3 21.2.6 1.6 1.5 6.1 2 9.9.6 5.2 1.4 7.4 2.9 8.5 1.4 1.1 2.3 3.3 2.7 6.4.6 4.2.4 5-2 7.2-2.3 2.1-2.6 3.2-2.6 8.7 0 10 1 13.8 3.5 14.8 1.9.7 2.4 1.8 2.7 6.2.4 4.5.1 5.6-1.8 7.3-2.8 2.6-3.4 6.3-2.4 15.5.6 5.9 1.3 7.8 2.9 8.9 1.7 1.1 2.1 2.4 2.1 7.2 0 4.9-.3 5.9-2 6.4-2.2.7-4.5 7.5-3.5 10.5 1.1 3.4 3.2 2.2 4-2.3.4-2.3.9-3.6 1.2-3 .7 1.8 4.2 1.6 5-.3.9-2.3 2.3.3 2.3 4.3 0 2.7.4 3.3 2.1 3.3 2 0 2.1-.4 1.5-5.3-.5-3.8-1.3-5.7-3.1-7.2-2.1-1.7-2.5-3-2.5-7.2s.4-5.3 2.4-6.6c3-2 3.9-6.6 3-15.3-.6-5.4-1.2-7.2-3.6-9.6-3.8-3.9-4-10.4-.3-13.6 2.2-1.9 2.5-3 2.5-9.1 0-9.6-.9-13.1-3.5-14.3-1.8-.8-2.4-2.2-2.9-6.1-.7-4.7-.5-5.2 2.2-7.7 2.7-2.4 4-2.8 12.8-3.3 9-.6 19.3-2 23.6-3.3 1.3-.4 1.1.6-1.2 4.8-6.6 12.3-8.1 29-5.9 65 1.5 24.3 1.6 31.8.4 36l-.7 2.8h86.5l-.7-3.2c-.3-1.8-1.8-4.4-3.2-5.9-2-2.1-2.6-4.1-3.5-12-.6-5.2-.9-13.1-.6-17.7.4-7.1 1.1-9.5 4.8-17.4 2.4-5 5.9-11.2 7.7-13.7l3.3-4.6-.1 6c-.2 9.3 0 9.5 2.5 2.5 1.3-3.8 2.5-5.9 2.8-5 1 2.8 9.5 43.5 10.7 50.9 1 6.9.6 11.1-.6 6.4-1.2-4.5-6.4-3.1-6.4 1.8 0 .9-1.8 4-4 6.8l-4 5.1h60.1l9.5-7.1c5.3-4 10.8-9 12.2-11.2 2.4-3.7 2.7-5 2.7-13.2 0-8.7-.2-9.6-3.8-16.7-3.8-7.4-9-13.9-23.5-29l-7.4-7.7 2.2-17.8c3-24.2 5.5-37.9 9.1-49.8 3.2-10.4 7.6-23.2 8.5-24.7.6-1 3.5 2.5 5.2 6.4.6 1.6 1.7 2.8 2.4 2.8 1.6 0 6.8-4.7 6.8-6 0-.6.5-1 1.1-1 1.6 0 10.9-9.8 10.9-11.4 0-.7 1-2.1 2.1-3.2 1.2-1 3-3.7 4.1-5.9 1-2.2 2.5-5.1 3.3-6.5 5.3-9.2 8.5-19.4 8.5-27.5 0-7.6-1.4-10.1-7.7-13.2-9.7-4.7-17.6-4.2-27.4 1.8-4 2.5-5.2 2.8-9.7 2.2-2.9-.3-5.2-.8-5.2-1 0-.6 5.9-5.6 22.5-18.8 8.8-7 16.5-13.1 17.1-13.6s2.6-.1 4.9 1.1c6 3 11.6 2.6 18.8-1.4 3.4-1.9 8.2-3.9 10.7-4.6 7.7-1.9 8-2.1 8-3.9s-6.1-8.1-11-11.2l-2.4-1.6 3.9-1.3c8.7-2.7 10.3-5.6 4.4-8-1.6-.7-2.8-1.6-2.7-2 .2-.4 7.2-8 15.6-16.8 19.2-19.9 19.4-20.6 5.9-13.6M256.5 164.9c-.3 1.2-1.1 2.1-1.6 2.1-1 0-1.2-2.1-.3-4.5 1-2.4 2.7-.2 1.9 2.4M201.7 188c4.2 1.6 8 2.2 13.8 2.3 8.4 0 12.6-1.4 23.6-7.9l4.6-2.8 3.1 2.3c2.9 2 3.1 2.5 2.6 6.5-.6 4.3-.6 4.4 4.9 8.5l5.5 4.2-2.2 5.2c-1.3 2.9-4.3 10.4-6.6 16.7s-5.2 12.5-6.4 13.6c-2.9 2.9-9.4 4.8-27.1 7.9-8.2 1.4-18.3 3.5-22.4 4.6-5.8 1.6-7.5 1.8-8.1.8-.5-.7-.6-1.7-.4-2.3s-.4-6.7-1.4-13.4l-1.9-12.4 2.6-1.6c1.4-.9 2.8-1.7 3-1.8.2-.2-.6-1.5-1.6-3.1-2.6-3.6-5.3-11.8-5.3-15.7 0-1.7 1-5.1 2.1-7.6 1.1-2.4 2.3-6.3 2.6-8.6l.5-4.2 4.4 3.3c2.4 1.8 6.9 4.3 10.1 5.5m-53.7 6.5c0 .8-.9 1.9-2 2.5-2.3 1.2-2.5.7-1-2.1 1.3-2.2 3-2.5 3-.4m20.7 82c.1 0-.7.6-1.7 1.3-1.8 1.1-2 .9-2-1.4 0-2.4.2-2.5 1.8-1.3.9.7 1.8 1.4 1.9 1.4m5.3 31.6c0 7.1-1 10.1-2.3 6.6-.3-.9-.9-.9-2.5 0-1.1.6-2.3.9-2.6.6-.3-.4-.6-3.9-.6-8 0-7.2 0-7.3 2.1-6.1 1.8 1.1 2.3 1 3.2-.4 1.9-2.9 2.7-.9 2.7 7.3m1.4 30.5c.8 2.1.8 15.4 0 15.4-.4 0-1.3-.8-2-1.8-1.3-1.6-1.5-1.6-2.9.2-.8 1.1-1.8 1.7-2.1 1.3-1.3-1.2-1.7-14.4-.5-15.1.6-.4 1.1-.2 1.1.3 0 1.7 3 1.3 3.6-.4.8-1.9 2-1.9 2.8.1"/></svg>