<svg xmlns="http://www.w3.org/2000/svg" width="682.667" height="512" version="1.0" viewBox="0 0 512 384"><path d="M456.5 50.3c-12.3 6.5-18 10.1-35.3 22.6-7.6 5.4-15 10.5-16.7 11.4-1.6.9-5.7 3.6-9 6.1s-12.1 7.7-19.5 11.5c-7.4 3.9-16.9 9-21 11.4l-7.5 4.5-.6-3.9c-.7-5.3-3.3-7.9-8-7.9-2.1 0-4.1.4-4.4 1-.3.5.1 1 .9 1 2.4 0 1.9 1.7-1.6 5.5l-3.3 3.6-8.5-2.6c-4.7-1.5-11.6-2.9-15.5-3.1-6.9-.6-9.3-.2-27 4.3-6.7 1.6-6.8 1.8-3.5 2.3l3.5.6-3.5 1.6c-2 .8-5.1 3-7 4.8-2.2 2-2.7 2.8-1.3 2.1 4-2 4.4-1.1 1.4 3.2-3.7 5-5.1 9.3-5.6 16.7l-.4 5.5 2.2-3 2.2-2.9.5 2.9c1 5.5.1 7.5-3.4 7.5-5.6 0-6.1-1-6.1-11.2-.1-8.3-.4-10.1-3.1-15.8-6.8-14.4-15-21-28.7-22.9-5.4-.8-7.3-1.5-9.7-3.9-1.7-1.7-3-3.9-3-4.9-.1-4.5-3.2-16.2-6-22.1-8.5-18.2-35.1-33.1-52.7-29.4-24 5-47.1 31.7-49 56.6-1.4 17.9 11 37.6 29.2 46.5 8.4 4.2 16 5.5 26.9 4.7 8.3-.6 8.9-.6 10.3 1.4.9 1.2 2.1 1.9 2.9 1.6s1.7.1 2.1 1c.9 2.4-.3 2.7-3.2.8-2.5-1.6-2.8-1.6-6.3 0-2 1-5.4 3.2-7.6 4.9-2.2 1.8-7.1 4.8-11 6.8-7.7 3.9-8.8 5.7-6.6 10.9 1.1 2.6.9 3.3-1.8 6.7-4.4 5.5-6.8 11.9-5.2 13.8 1.9 2.3 4.5 1.8 5.8-1 1-2.2 1.4-2.4 3.9-1.4 4.8 1.8 9.3 5 9.3 6.6 0 2.1-3.7 8-5.8 9.4-1.2.7-1.4 1.2-.4 1.5.6.3 1.2 1.9 1.2 3.5 0 2.5.4 2.9 2.9 2.9h2.8l.8 14.1c.4 7.7 1.1 16.6 1.6 19.7.4 3.1 1.3 9.3 2 13.7.8 5.8 1.8 8.8 3.5 10.8 3.2 3.8 3.5 12.2.5 13.2-2.5.8-3.5 6.4-2.6 14.2.9 7.9 1.3 9.1 3.4 9.8 1.4.4 2 1.9 2.4 6.2.5 5.2.4 5.8-2 7.6-2.4 2-2.5 2.3-2.1 11.5.4 8.7.6 9.6 3 11.6 1.9 1.6 2.7 3.4 3.2 7.1.5 4.4.3 5.2-1.9 7-1.8 1.5-2.5 3.4-3.1 7.7-.6 5.7-.6 5.8 1.8 5.8 2.1 0 2.4-.4 2-2.9-.2-1.6.1-3.7.7-4.8.6-1 1.1-1.2 1.1-.6 0 1.9 3.7 1.5 4.4-.4 1.1-2.7 2.6.3 2.6 4.9 0 3.2.3 3.8 2.1 3.8 2 0 2.1-.3 1.5-5.7-.7-5.8-1.9-8.3-4.1-8.3-1.7 0-2.5-2.3-2.5-7.4 0-3.3.6-4.7 2.6-6.5 2.6-2.2 2.6-2.5 2.2-11.8-.4-8.9-.6-9.7-3-11.7-2-1.6-2.8-3.4-3.3-7.2-.7-4.7-.5-5.1 2-6.8 2.7-1.7 2.7-1.9 2.3-11.6-.3-9.2-.5-10-3.1-12.4-3.9-3.6-3.8-9.6.2-13.7 2.8-2.7 3.5-2.9 10.8-2.9 4.3 0 11.9-.7 16.8-1.5 5-.8 9.3-1.5 9.6-1.5s-1 3-2.8 6.7c-1.8 3.8-4 10.1-4.8 14.1-1.8 8.9-2 34.1-.4 56.4 1.3 18.7 1.4 25.5.4 29.1l-.7 2.7h43.1c38.4 0 43.1-.2 43.1-1.6 0-2.1-1.9-5.5-4.2-7.4-2.5-2-4.2-15.6-3.5-28.8.4-8.9.7-9.9 5.6-19.5 2.8-5.6 6.2-11.6 7.6-13.2l2.5-3v6.8c0 7.6 1.1 8 3 1.2 1.1-4 3-7 3-4.9 0 .5 2.2 11.2 4.9 23.8 5.4 25.1 7 35.6 5.3 35.6-.5 0-1.3-1.1-1.6-2.5-1-3.9-4.2-3.3-5.6 1-.7 2-2.7 5.6-4.6 8L298 384h61.4l7-5.4c13.5-10.4 16.6-15 16.6-25.1 0-12.1-6.4-23.3-23.5-41.3-9.4-10-10.9-12.2-10.7-15.7 1.3-18.8 6.6-51.1 10.6-64.5 5.2-17.4 9.6-28.2 9.6-23.8 0 .9.5 2 1.2 2.4s.8.3.4-.4-.5-1.2-.2-1.2 1.2 1.6 2 3.5c2 4.8 4.1 5.3 7.1 2.1 1.4-1.5 2.5-3.1 2.5-3.7 0-.5.4-.9 1-.9 1.1 0 9-7.4 9-8.4 0-.7.1-.9 4.8-6.6 1.6-1.9 3.4-5 4.1-6.8.8-1.7 1.7-3.2 2.1-3.2.5 0 1.8-2.6 3-5.7 1.2-3.2 2.6-6.4 3.2-7.1 1.3-1.5 2.6-7.6 3.4-15.5.9-8.4-.5-11-8.2-14.8-9.9-4.9-16.5-4.4-27.4 2.2-4.2 2.5-4.8 2.6-9.3 1.6-2.6-.7-4.6-1.5-4.5-1.9.2-.4 7.4-6.3 16-13.1s17.5-14 19.7-15.9l4.1-3.5 4.7 2.3c6.3 3.2 10 3 17.7-1.1 3.6-1.9 8.7-4 11.3-4.6 6.1-1.5 8.3-2.6 8.3-4.2s-6.5-7.9-10.8-10.5l-3.3-1.9 6.1-2.2c7.3-2.7 8.1-5.3 2.4-7.7l-3.6-1.5 9.7-10.2c5.4-5.6 12.7-13 16.1-16.5 5.9-5.9 7.5-8.2 5.7-8.2-.5 0-5.3 2.4-10.8 5.3M257 164c0 1.7-1.7 3.7-2.5 2.9-.2-.2-.1-1.6.2-3.1.6-3 2.3-2.8 2.3.2m-57.5 22.7c5.3 2.4 7.2 2.8 16 2.8h10l9.2-4.8 9.2-4.9 3.1 2.2c2.7 1.9 2.9 2.6 2.7 6.7-.2 4.6-.1 4.8 5 8.6l5.1 3.9-4 9.6c-2.2 5.3-5.1 12.8-6.5 16.7-2.9 8.1-6.2 12.1-10.6 12.8-16.3 2.8-37.6 6.9-43.9 8.5l-7.6 1.9-.6-4.1c-2.2-16.7-2.8-26-1.9-26.3.6-.2 1.8-.9 2.7-1.6 1.6-1.1 1.4-1.7-1.5-7.4-4-7.8-4.4-14.8-1.2-21.2 1.3-2.4 2-4.7 1.8-5.2-.3-.4-.1-1 .5-1.4.5-.3 1-1.6 1-2.7 0-2.1.1-2.1 2.8.5 1.5 1.4 5.4 3.8 8.7 5.4m-50.8 6.9c.3 1-3.6 3.8-4.4 3.1-.2-.3.1-1.5.7-2.7 1.1-2.1 3.1-2.3 3.7-.4m18.1 83.1c-.9 1.1-1.3 1.1-1.9.1-.5-.7-.9-2.2-.9-3.2 0-1.8.1-1.8 2-.1 1.6 1.4 1.7 2.1.8 3.2m6.6 24.5c1.6 6.2.1 18-1.8 13.3-.7-2-3.5-1.9-4.3.2-1.1 2.8-2.1-1.3-2.2-8.4l-.1-6.3 3 .6c1.9.4 3 .2 3-.5 0-2 1.8-1.2 2.4 1.1m2.3 44.2c.6 7.7-.3 9.7-2.6 5.8-1-1.6-1.2-1.6-2.6.2-2.2 2.9-2.9 1.3-3.3-7l-.4-7.6 2.2 1.4c1.9 1.1 2.4 1.1 3.3-.4 1.8-2.8 2.8-.6 3.4 7.6"/></svg>