<svg xmlns="http://www.w3.org/2000/svg" width="682.667" height="512" version="1.0" viewBox="0 0 512 384"><path d="M149.4 47.9c-8.7 3.1-14.6 7.1-22.9 15.5C114.2 75.8 107 91.1 107 105c0 12.8 4.6 22.7 15.5 33.6 11.9 11.9 23.3 16.2 40 15.1 8.3-.6 9.2-.5 10.3 1.4.7 1.1 2 1.8 2.9 1.7 1-.2 1.9.5 2.1 1.5.3 1.6.1 1.7-1.6.8-4.7-2.5-10.7-.4-18.2 6.4-1.4 1.2-5.5 3.6-9.2 5.3-7.3 3.3-8.2 5-5.7 10.6 1 2.1.8 2.9-1.2 5.3-1.3 1.6-3.5 5.2-4.8 8.1-2 4.2-2.2 5.4-1.1 6.7 1.9 2.2 4.5 1.8 5.8-1 1.1-2.4 1.2-2.4 4.8-.9 5.7 2.4 8.4 4.5 8.4 6.4 0 1-1.5 3.9-3.4 6.3-1.9 2.5-3 4.9-2.6 5.3.5.5 1 2 1.2 3.4.2 2 .8 2.5 2.9 2.3l2.7-.1.7 14.1c.4 7.8 1.1 17.1 1.7 20.7.5 3.6 1.3 9.8 1.7 13.9.5 5.9 1.1 7.7 2.9 9.1 1.5 1.2 2.4 3.4 2.9 6.5.5 4.3.4 4.9-2.3 7-2.8 2.2-2.9 2.7-2.8 10.2.1 9.8.9 13 3.4 13.8 1.7.5 2 1.5 2 6.8 0 5.1-.3 6.4-2 7.5-3.8 2.4-2.2 22.4 1.9 23.7 3.6 1.1 4.4 11.7 1.1 13.5-1.7.9-2 2.1-2 7.5 0 5.5.3 6.5 1.8 6.5 1.4 0 1.6-.8 1.4-5-.3-3.2 0-5 .7-5 .6 0 1.1.4 1.1 1 0 .5.9 1 2 1s2-.7 2-1.5.4-1.5.9-1.5c1.1 0 2.1 3.6 2.1 7.7 0 2.6.4 3.3 2 3.3 2.3 0 2.5-1.6.9-8.8-.7-3.7-1.6-5.2-3.5-6-2.1-1-2.4-1.8-2.4-6.9 0-4.7.4-6.1 2-7.1 1.7-1 2-2.3 2-8.6 0-10.1-.8-13.6-3.6-14.8-1.8-.9-2.4-2.2-3-6.4-.6-5-.4-5.6 2-7.5s2.6-2.6 2.6-10.2c0-9.8-.6-12.4-3-13.2-2.2-.7-4-11.7-2-12.3.7-.3 2-1.3 2.8-2.3 1.3-1.5 3-1.9 9.2-1.9 4.1 0 12-.7 17.4-1.5 5.5-.8 10.2-1.5 10.6-1.5.3 0-.9 3-2.7 6.7-5 10.3-6.3 18.6-6.3 40.1 0 10.3.5 25 1 32.7 1.3 18.3 1.4 23.4.5 26.7l-.7 2.8h86.3l-.6-2.3c-.4-1.2-1.5-3.3-2.6-4.7-3.1-4-3.6-5.9-4.8-18-1.3-13.6-.1-21.1 4.9-31 3.2-6.3 9.9-17 10.7-17 .2 0 .3 3.2.2 7-.1 3.9 0 7.3.3 7.6s1.6-2.5 2.8-6.1 2.4-6.5 2.5-6.3c.8.7 9.5 41.5 10.7 49.3.6 4.5.8 9 .4 10.1-.7 1.7-.9 1.5-2.1-1.4-1.9-4.4-4-4-6 1.1-.9 2.3-3 5.9-4.6 8l-3 3.7h62.3l8.5-6.6c4.6-3.6 9.6-8.4 11.1-10.7 2.4-3.6 2.7-4.9 2.6-12.6-.1-14.2-5.5-23.2-28.1-47.1-3.4-3.6-5.3-6.4-5.3-8 0-4.5 3.9-35.3 5.9-46.5 2-11 5.5-23.3 10.7-38l2.7-7.6 2.4 2.7c1.2 1.5 2.3 3.5 2.3 4.4 0 1 .6 2.3 1.4 3 1.2.9 2.1.7 4.5-1.1 1.7-1.3 3.1-3.1 3.1-4.1 0-1.1.6-1.8 1.3-1.6 1.4.3 11.7-9.8 11.7-11.4 0-.6 1.4-2.6 3-4.5 1.7-1.8 3-4 3-4.8 0-.7 1.1-2.6 2.4-4.2 1.3-1.5 2.9-4.6 3.6-6.8s1.7-4.5 2.2-5.2c1.2-1.5 4.8-16 4.8-19.4 0-7.4-10.1-14.3-21-14.4-5.6 0-7.4.5-13.1 3.6-5.7 3.2-7.1 3.6-11.7 3.1-2.9-.2-5.2-.8-5.2-1.1 0-.7 13.6-11.8 24.2-19.9 3.1-2.3 7.9-6.3 10.7-8.8l5.1-4.6 4.7 2.3c6.5 3.2 11.7 3 18.4-.9 3-1.6 8.1-3.7 11.3-4.6 3.3-.8 6.6-2.1 7.4-2.9 1.2-1.3.9-2.1-2.7-6-2.3-2.5-5.5-5-7.1-5.7-1.7-.7-3-1.5-3-1.9s2.1-1.3 4.7-1.9c8.4-2.3 9.5-4.9 3.4-7.9l-3.9-1.9 16.4-16.8c9-9.3 16.4-17 16.4-17.2 0-3.8-25.6 11.1-51.2 29.8-5.9 4.3-11.1 7.8-11.5 7.8-.5 0-3 1.7-5.8 3.8-7.9 5.9-13.9 9.5-31.2 18.5-8.8 4.6-17.1 9.2-18.4 10.1-3.1 2.1-3.8 2-3.2-.4.7-2.6-1.5-7.8-3.8-9-3.9-2.2-11.3-.4-7.4 1.7 1.2.7 1 1.5-1.6 4.6-1.7 2-3.8 3.7-4.7 3.7s-5.2-1.1-9.5-2.5c-14.1-4.5-18.5-4.4-40.2 1.4-6.5 1.7-6.7 1.9-3.5 2.3l3.5.4-4.2 1.8c-2.4 1-4.3 2.2-4.3 2.6s-1.5 1.8-3.2 3c-1.8 1.2-2.4 1.9-1.3 1.5 5.7-2 5.8-1.9 2.1 2.9-3.5 4.7-5.3 9.4-5.6 15.1-.4 5.6-.2 6 2 4 1.7-1.6 2-1.6 2.6-.2.3.8.4 2.8.2 4.4-.3 3.1-2.1 3.8-7.2 2.9l-3.1-.6v-10.8c0-9.6-.3-11.3-2.7-16.5-1.7-3.6-5.2-8.3-9-12.1-6.8-6.8-11.6-9-22-10.2-3.2-.4-5.8-1.1-5.8-1.5 0-.5-.9-1.8-2.1-3-1.4-1.4-2.4-4.2-3-8.7-1.6-11.4-4.9-19.2-11.7-27.9-5-6.2-16.9-14.3-25.3-17.2-8.1-2.7-20.2-2.8-27.5-.2M257 163.7c0 2.4-1.6 4.8-2.3 3.6-.8-1.3.3-5.3 1.4-5.3.5 0 .9.8.9 1.7M205.3 188c10.5 3.4 17.3 2.6 29-3.3l9.4-4.8 3.5 2.1c3.5 2 3.5 2.1 2.4 6.1-1 4-1 4.2 2.4 7.2 1.9 1.8 4.5 3.9 5.8 4.7l2.3 1.5-4.9 11.5c-2.6 6.3-5.9 14.3-7.1 17.7-1.3 3.4-2.9 6.7-3.6 7.3-1.9 1.6-10.5 3.5-26 5.9-7.7 1.2-17.7 3.1-22.3 4.2-4.6 1.2-8.6 1.9-8.8 1.6-.3-.3-.9-4.2-1.4-8.8-.4-4.6-1.2-11.2-1.5-14.6l-.7-6.1 3.2-1.7c2.7-1.4 3-1.8 1.8-3.3-.7-.9-1.6-1.9-1.9-2.2-1.4-1.1-4.1-10.7-4.1-14.6 0-2.2.8-5.8 1.7-8 .9-2.1 1.8-4.4 1.9-4.9.2-.6.6-2.2 1-3.7l.8-2.7 5.1 3.4c2.9 1.8 8.3 4.4 12 5.5m-56.6 4.7c.4 1.2-3.5 3.8-4.4 3-.2-.3.1-1.5.7-2.7 1.2-2.2 3.1-2.3 3.7-.3m17.8 83c-1.9 1.9-2.5 1.6-2.5-1.2 0-2.2.2-2.4 1.9-1.3 1.6.9 1.7 1.4.6 2.5m5.5.7c0 .3-.4.8-1 1.1-.5.3-1 .1-1-.4 0-.6.5-1.1 1-1.1.6 0 1 .2 1 .4m-2.4 23.5c2.3-1.9 3.4.4 3.4 7.7 0 6.7-.7 8.2-2.6 5.6-1.1-1.6-1.3-1.6-3.2.1-1.8 1.6-2 1.6-2.6.2-.8-2.2-.8-13 .1-13.8.3-.4 1.2-.2 2 .4 1 .9 1.7.8 2.9-.2m4.4 44.9c0 7-.1 7.2-2.1 6-1.7-1.1-2.2-1-3.2.7-1.1 1.9-1.1 1.9-1.8-.5-.4-1.4-.7-5.3-.8-8.8-.1-6.1 0-6.2 2-5 1.8 1.1 2.3 1 3.2-.4 1.8-2.7 2.7-.1 2.7 8"/></svg>