<svg xmlns="http://www.w3.org/2000/svg" width="682.667" height="512" version="1.0" viewBox="0 0 512 384"><path d="M150.4 48.8c-8.6 3-16.2 8.3-24.5 17-13.5 14.2-20.3 32-17.9 46.5 2.9 17.1 16.4 33 33.9 39.9 4.8 1.9 7.5 2.2 18.1 2.1 11.1 0 12.7.2 13.8 1.8.7 1.1 2.2 1.9 3.3 1.9 1 0 1.9.7 1.9 1.6 0 1.3-.3 1.3-2.9-.2-3.6-2.1-6.4-1.5-12.7 3-2.7 1.9-8.6 5.3-13.1 7.5-8.9 4.4-9.8 5.8-7.2 11.4.9 1.9.5 3.1-2.4 7.5-4.6 6.8-6.3 11.8-4.7 13.7 1.8 2.2 3.6 1.8 5.7-1.1l1.9-2.5 5.4 2.8c6.9 3.6 7.6 6.5 3.1 12.2-2.7 3.4-2.9 4.1-2 7.4.8 2.8 1.5 3.6 3.7 3.9l2.7.3.7 14c.4 7.7 1.2 17.3 1.8 21.3.5 4 1 10 1 13.3 0 5.1.4 6.3 2.5 8.3 2 1.9 2.5 3.3 2.5 7.2 0 4-.4 5.2-2.6 6.9-2.4 1.9-2.6 2.6-2.7 11.8-.2 9.7-.2 9.9 2.6 11.9 2.6 1.9 2.7 2.3 2.1 7.1-.4 3.4-1.3 5.7-2.6 6.8-1.5 1.2-2.2 3.4-2.8 8.9-1 9.4-.3 13.7 2.5 15.6 1.9 1.3 2.1 2.1 1.7 6.7-.3 3.8-1.1 5.8-2.8 7.4-1.9 1.7-2.4 3.3-2.4 6.8 0 5.7 2.4 6.3 3.5.7.4-2 1-3.1 1.2-2.5.7 1.8 4 1.6 4.7-.3 1-2.5 2.6-.6 2.6 3.2 0 2.7.4 3.4 2 3.4s2-.7 2-3.4c0-4.6-1.6-8.6-3.5-8.6-1.2 0-1.5-1.3-1.5-5.7 0-5 .3-6 2.7-7.9 2.7-2.1 2.8-2.5 2.8-12.4 0-9.5-.2-10.4-2.2-11.7s-2.3-2.4-2.3-7.5c0-4.7.4-6 1.8-6.5 2.8-1.1 3.2-2.4 3.2-12.6 0-9.1-.2-9.8-2.5-11.9-2-1.7-2.5-3.1-2.5-6.7 0-3.8.5-5.1 2.9-7.4 2.7-2.5 3.5-2.7 11.9-2.7 4.9 0 12.6-.5 17.1-1.1s8.4-.9 8.7-.7c.2.3-.9 2.9-2.6 5.9-5.8 10.9-6.5 16.1-6.3 49.4.1 16.5.6 34 1.2 39 .5 5.5.6 9.4 0 10-.5.5-.9 1.3-.9 1.7s19.1.8 42.5.8c39.3 0 42.5-.1 42.5-1.7 0-.9-1.1-2.9-2.5-4.3-2.1-2.2-2.8-4.4-4.2-14.5-1.9-14.3-1.1-20.1 4.2-31.2 3.2-6.9 11.2-19.3 12.3-19.3.3 0 .2 3.1-.1 7-.3 3.8-.2 7 .3 7s1.9-3.1 3.1-7c1.3-3.8 2.5-6.8 2.7-6.6.4.5 1.2 4 4.2 17.6 1 4.7 2.9 13.7 4.3 20 3.9 17.9 4.2 21.8 2.1 24.1-2.2 2.4-4.4 2.5-4.4 0 0-2.1-2.5-4.5-3.8-3.7-.6.3-1.3 1.8-1.7 3.3-.3 1.6-1.8 4.3-3.1 6l-2.5 3.3h66.9l5.3-4.2c10.2-8 12.6-12.9 11.7-24.2s-7.7-22.4-25.5-42.2c-7.3-8-7.1-6.5-4.3-28.9 3.6-29.2 7.9-48.1 15.3-67.3 1.6-4.2 2.3-5 3.3-4.1.8.6 1.4.8 1.5.3s.7.9 1.3 3.1c.8 2.4 2 4.1 3 4.3 2 .4 6.6-3.5 6.6-5.6 0-.9.6-1.2 1.6-.8 1.1.4 1.8-.1 2.1-1.4.3-1.1.9-2 1.4-2 1.2 0 7.9-7.1 7.9-8.5 0-.6 1.1-2.2 2.6-3.5 1.4-1.4 3.4-4.3 4.5-6.5 1-2.2 2.6-5.1 3.4-6.5 7.5-13.2 10.5-28.1 7.1-34.8-1.6-3.1-9.8-7.6-15.7-8.7-4.6-.9-11.1.9-17.2 4.6-4 2.5-5.4 2.8-8.5 2.2-2-.4-4.5-.6-5.4-.4-3.9.5-2.2-1.3 9.7-10.6 3.3-2.6 11.3-8.9 17.8-14.1l11.8-9.5 4.2 2.4c6.3 3.5 12.5 3.1 21-1.5 3.8-2 7.7-3.6 8.8-3.6 2.7 0 8.9-2.7 8.9-3.9 0-2-5.4-7.3-10.2-10.1l-5-2.8 5.3-1.6c3-.9 6-2 6.8-2.5 2.2-1.4.5-4-3.5-5.7l-3.7-1.6 9.4-9.5c5.2-5.3 12.7-12.9 16.8-16.8 4.7-4.6 7-7.5 6.2-7.9-.6-.4-6.4 2-12.9 5.4-10.6 5.6-19.7 11.4-41.2 26.3-4.1 2.9-9.6 6.6-12.1 8.2-2.6 1.7-7.1 4.6-10 6.6-3 2-13 7.6-22.4 12.3-9.3 4.8-17.4 9.2-17.9 9.7-1.7 1.6-2.6 1-2.6-2 0-4.6-3.4-8.1-8-8.1-4.2 0-6 1.4-3.5 2.7 1.3.7 1 1.4-1.4 4.3-3.6 4.4-7.1 4.7-17.1 1.3-9.9-3.4-21.4-3.5-32-.6-4.1 1.2-9.1 2.6-11 3.1l-3.5 1 3.5.1 3.5.2-4.7 2.5c-2.7 1.3-4.8 2.8-4.8 3.3 0 .4-1 1.3-2.2 2-2.2 1.1-2.2 1.1.5.6 3-.6 3.5.6 1.1 2.6-3 2.5-5.7 9.3-6.2 15.9-.5 6.4-.5 6.5 1.5 4.7 2-1.7 2-1.7 2.6 1.9.4 2.1.4 4.1.1 4.6-.7 1.1-5.5 1-9.2-.3-2.8-1-3.1-1.4-2.4-3.7.4-1.5.7-6.1.7-10.2 0-6.3-.5-8.6-3.2-14.2-6-12.8-15.1-19.8-28.4-21.9-9.5-1.6-12.4-4.4-13.4-13.4-2.5-21.6-17.9-39.5-39.4-45.9-7.2-2.1-18.2-2-24.7.2m107.2 120c-.4.3-1.2 0-1.8-.6-.9-.9-.8-1.8.2-3.9l1.4-2.8.4 3.3c.2 1.9.1 3.7-.2 4m-55.3 19.3c4.7 1.8 8.3 2.3 14.9 2.3 8.2 0 9.1-.2 17-4.2 4.6-2.3 9.2-4.2 10.3-4.2 1.7 0 4 1.1 7.3 3.6.2.1-.2 2.1-.9 4.3-1.1 3.8-1.1 4.3 1.2 6.7 1.3 1.4 3.8 3.4 5.6 4.5 3.8 2.4 4 3.2 1.4 8.5-1 2.1-4.2 9.5-7 16.3-3.1 7.7-5.9 13-7.3 14-2.7 1.9-5.2 2.5-22.8 5.2-13 1.9-28.8 5.1-32.3 6.5-.9.3-1.7.2-1.7-.2 0-1.4-2.9-23.5-3.5-27.2-.5-2.5-.2-3.4 1.2-3.9 4.1-1.4 4.2-2.3 1.1-7.3-4.2-6.7-5.1-16.4-2-21.9 1.2-2 2.4-5.6 2.8-7.9l.6-4.1 4 3.3c2.2 1.9 6.7 4.4 10.1 5.7m-53.9 4.6c.5 1.1-.1 2.3-1.6 3.5-3.2 2.4-3.9 2.2-2.7-.8 1.8-4.9 3.2-5.8 4.3-2.7m18.6 81.8c2.3 2.5 2.3 2.5.3 2.5-1.2 0-2.4.6-2.6 1.2-.3.7-.6.3-.6-.9-.1-1.2-.4-2.8-.7-3.7-.9-2.4.9-1.9 3.6.9m2.2 26.7c.6-.6 1.6-1.2 2-1.2 1.2 0 1 15.8-.2 16.5-.5.3-1-.1-1-.9 0-2-3.9-2.1-4.6-.1-1.2 3.1-2.4.1-2.4-6 0-8.3.6-9.8 3.1-8.2 1.4.9 2.1.9 3.1-.1m1.8 44.7c0 4.4-.4 8.3-1 8.6-.5.3-1 .1-1-.5 0-2-3.1-2.3-4.5-.4-1.2 1.7-1.4 1.6-2-1.9-1.1-6 .8-16.1 2.2-12 .6 1.8 3.2 1.6 3.9-.2 1.4-3.6 2.4-.9 2.4 6.4"/></svg>