<svg xmlns="http://www.w3.org/2000/svg" width="682.667" height="512" version="1.0" viewBox="0 0 512 384"><path d="M0 192v192h303.6l2.7-5.2c1.5-2.9 5.7-10 9.2-15.7 4.8-7.6 6.2-10.7 5.6-12-.5-.9-3.9-8.8-7.6-17.6-17.6-41.9-32-71.3-41.1-83.6-5.2-7.1-7.8-8.6-18.5-10.4-11.3-1.9-23-5-27.1-7.1-3.2-1.7-12.7-11.4-18.2-18.6-6-7.8-6.6-9.8-6.6-21.2v-10.4l4-5.1c2.2-2.8 4.4-5.1 4.9-5.1s3.9-3 7.5-6.6c5.2-5.2 6.4-6.9 5.5-8-.6-.7-.8-2.3-.4-3.4l.7-2.2 2.2 2.1 2.3 2.1 4.4-3.3c7.7-5.9 10.7-7 18.9-7.1 8.7 0 13.9 1.9 20.9 7.8 9.8 8.2 17 20.5 19.2 32.6 1.7 9.8.6 15.3-4.2 20.5-2.1 2.3-3.9 4.6-3.9 5.1s4.6 5.4 10.3 10.9c11 10.6 11.9 11.7 30.2 37.8 7.9 11.4 12 16.5 12.6 15.6.5-.8-.7-2.9-3.3-5.8-3.9-4.5-4-4.8-3.6-10.6.4-7.1 2.3-10.2 16.4-26.6 5.2-6 9.6-12 9.8-13.2.3-1.2.8-7 1.1-13 .6-8.7 1.1-11.3 2.9-14 1.2-1.7 4.1-6 6.5-9.4 2.5-3.8 3.9-6.8 3.5-7.5s-2.9-4-5.5-7.3l-4.7-6.1 2-3.6c1.9-3.4 2-3.6.3-6.2-1-1.4-2-2.6-2.4-2.6s-1.7 1.8-3 4c-1.2 2.2-2.6 4-3 4-.5 0-.6-2-.3-4.5.2-2.5.2-4.5-.1-4.5-.2 0-3.5 1.4-7.2 3.1-3.6 1.8-8.7 3.4-11.1 3.7-5.4.6-7.3-.9-11-8.5-1.7-3.4-3.8-6-5.6-6.9-1.7-.9-2.8-2.2-2.7-3.2.3-3.4-.2-4.1-3.6-5.2-3.9-1.3-4.9-2.7-5.9-8.3-.6-2.9-1.5-4.3-3.8-5.5-1.7-.9-4.5-2.9-6.1-4.3l-3.1-2.6 2.1-2.9 2.1-2.8-16.5-8.8c-9-4.8-18.5-10.3-21.1-12.1-5.7-4.2-10.7-6.8-11.5-6.1-1.1 1.1-18.7-11-18.7-12.8 0-2.3-20.3-16.1-21.7-14.7-.6.6-2.4-.3-4.9-2.4-2.1-1.8-4.6-3.6-5.5-3.9-2.4-.9-20.9-16.8-20.9-18 0-.5-1.1-2.3-2.5-4-2.7-3.2-3.2-5.4-1.3-6.1.9-.3.6-1.2-1.1-3-1.7-1.9-3.8-2.8-7.7-3.3-4.9-.6-5.8-1.1-9.5-5.5L150.8 0H0zM495.9 1.4c.6.7 3 1.6 5.4 2 2.3.4 5.7.9 7.5 1.2 2.9.6 3.2.4 3.2-2V0h-8.6c-7.2 0-8.5.2-7.5 1.4M385.5 349c-6.1 6.3-15.6 13.3-21.6 15.8-4.6 2-5 2.7-10.5 17.5-.6 1.6 1.3 1.7 31.5 1.7h32.2l-3.2-5.8c-3.8-7-16.8-26.5-20.6-31l-2.8-3.3z"/></svg>