<svg xmlns="http://www.w3.org/2000/svg" width="682.667" height="512" version="1.0" viewBox="0 0 512 384"><path d="M150.8 51.3c-19.5 6.8-37.7 28.5-41.3 49.1-2.7 15.6 1.7 28.8 13.5 40.6 12.3 12.4 23 16.6 40 15.8 9.8-.5 10.8-.4 11.9 1.4.8 1.3 1.9 1.8 3.2 1.5 1.4-.4 1.9 0 1.9 1.5 0 1.8-.2 1.8-2.2.4-3.6-2.5-6.2-1.9-14 3.3-4 2.7-9.8 5.9-12.8 7.1-8.2 3.4-8.7 4.1-7.2 9.5 1.1 4.3 1.1 4.8-1.2 7.8-2.4 3.1-6.6 11.9-6.6 13.7 0 .5.9 1.4 2.1 2 2.7 1.5 4.5 0 6-4.9.6-2 1.7-4.5 2.5-5.6 1.3-1.7 1.6-1.8 2.4-.5 1.5 2.4 1.2 3.6-1.5 4.8-1.4.6-2.5 1.5-2.4 1.9 0 .5 2.3 1.9 5.1 3.3s5.6 3.2 6.1 4.1c1.3 2.1-.5 6.9-4 10.3-1.4 1.5-2 2.7-1.3 3.1.5.3 1 1.9 1 3.6 0 2.6.3 2.9 3 2.9 1.7 0 3 .4 3 .8 0 .5.7 8 1.7 16.8.9 8.7 1.6 17 1.5 18.4-.8 20.8-.8 20.2 1.6 21.8 1.8 1.2 2.2 2.4 2.2 6.7 0 4.7-.3 5.6-2.7 7.3-2.7 2-2.8 2.3-2.8 12.2 0 9.5.2 10.4 2.3 11.7 1.9 1.3 2.2 2.4 2.2 7.4 0 4.8-.4 6-2 6.9-4.5 2.4-5.4 20.6-1.1 24.1 2.9 2.4 3.1 12.7.2 15.3-2.7 2.5-3.4 6.6-1 6.6 1 0 2.1-.5 2.4-1 .5-.8 1.1-.7 2.1.1 1.1.9 1.8.8 3.3-.5 1.6-1.5 1.9-1.5 2.4-.1.4.8 1.3 1.5 2.2 1.5 2.3 0 2-5.7-.5-7-1.7-.9-2-2.1-2-7.1 0-5.1.4-6.4 2.3-7.9 2-1.7 2.2-2.7 2.2-12s-.2-10.3-2.2-12c-1.9-1.5-2.3-2.8-2.3-7.4 0-4.5.4-5.8 2.2-7 2-1.4 2.3-2.6 2.6-11.5.4-9.6.4-9.9-2.3-12.3-2.5-2.4-2.7-3-2-7.7.5-3.4 1.3-5.5 2.5-6.1 1-.5 2.1-2.1 2.4-3.6.5-1.9 1.1-2.4 2.4-1.9 4 1.5 11.4 1.6 21.1.1 5.8-.9 10.9-1.6 11.4-1.6s-.3 2-1.7 4.4-3.5 7.9-4.8 12.2c-2.1 7.3-2.2 10-2.3 35.4 0 15.1.2 33.2.5 40.2l.5 12.8h42.3c23.2 0 42.2-.3 42.2-.7s-1.2-1.9-2.6-3.4c-3.2-3.3-4.2-7.5-5-20.4-1-14.7 2.3-24.4 13-38.3l4.1-5.3.5 7.3.5 7.3 2.3-6.5c1.3-3.6 2.6-7.2 2.9-8 .6-1.6 2.3 4.8 4.7 17.6.8 4.4 2.4 12.6 3.5 18.4 1.2 5.8 2.6 13.4 3.1 17 .8 5.9.7 6.6-1.2 8.7-2.6 2.8-4.8 3-4.8.5 0-1.8-1.8-4.2-3.1-4.2-.5 0-1.9 2.3-3.3 5l-2.5 5H370l4.2-3.8c5.4-4.9 7.8-10.2 7.8-17.8 0-13-4.9-22.1-24.8-45.6-5-6-7.2-9.4-6.8-10.5.3-1 1.7-9.9 3.1-19.8 4.4-30.6 6.5-39 16.5-67.2 1.6-4.5 4.7-4.1 6.1 1 1.4 5.4 3.5 5.8 7.6 1.4 1.8-2.1 3.6-3.7 3.9-3.7 1.9 0 17.4-18.5 17.4-20.7 0-.6 1-2.4 2.3-4 1.3-1.5 2.9-4.4 3.7-6.3.7-1.9 1.9-4.2 2.6-5 1.9-2.3 4.4-13.6 4.4-19.9 0-7.2-1.6-9.5-9.4-13.2-8.3-3.9-13.2-3.8-22.2.5-6 2.9-7.8 3.3-12.2 2.8-2.9-.2-5.4-.7-5.6-1.1-.2-.3 5.5-5.1 12.7-10.6s16.6-12.8 20.9-16.3l7.8-6.3 3.2 2.2c2.1 1.5 5.1 2.4 8.8 2.7 4.8.4 6.6-.1 11.8-2.7 3.4-1.7 8.5-3.6 11.4-4.2 5.3-1.1 7.8-2.4 7.8-4 0-1.8-6.2-7.7-10.5-10-4.7-2.5-5.7-3.9-2.7-3.6 2.9.2 11.2-3.3 11.2-4.7 0-1.5-3.2-4.6-4.8-4.6-3.7 0-.9-3.7 13.9-18.6C470.4 60.1 475.8 54 474.7 54c-1.5 0-7.8 2.9-21.1 9.8-1.6.8-11.7 7.3-22.5 14.5-10.8 7.1-23.4 15.5-28.1 18.6-6.3 4.1-44 24-45.7 24.1-.2 0-.3-1.2-.3-2.8 0-4.2-4-8.2-8.2-8.2-4.3 0-5.3.9-3 2.6 1.6 1.2 1.5 1.5-1.5 4.5-4.6 4.6-8.8 5-18.7 1.7-11-3.7-20.2-3.7-35.6.1-9.4 2.3-10.9 2.9-8 3.2l3.5.4-3.6 1.6c-1.9.9-4.8 2.9-6.4 4.3l-3 2.8 3-.8 2.9-.7-3.1 3.9c-3.7 4.8-6.2 11.7-6.1 17.3 0 3.9.1 4.1 1.8 2.6 1.6-1.5 1.8-1.3 2.3 2.2.8 4.5-.4 5.6-5.3 4.8-8-1.2-7.5-1.5-7.5 4.4 0 3.4-.5 5.6-1.2 5.8-1.8.7-1.7-5.4.3-10.8.8-2.4 1.8-7.3 2.1-10.9.4-5.4.1-7.6-2.1-13.3-5.8-15.4-16.4-24.7-29.8-26.2-8.2-1-9.8-1.4-9.8-3 0-.8-.8-1.9-1.8-2.4-1.3-.7-2.1-3.1-3-9.2-2.1-14.7-8.8-25.7-21.1-34.9-13.8-10.3-29.6-13.5-43.3-8.7M276 151.7c-1.1 1.7-1.1 1.7-.6 0 .3-1 .6-2.4.7-3 0-.9.2-.9.5 0 .3.7 0 2-.6 3m-75 36.7c13.2 6.1 22.5 5.8 36.2-1.2l9-4.6 4.3 2.3c4.2 2.2 4.2 2.3 3.2 5.6-1.5 4.9-.2 7.6 5.3 11.4 5.5 3.7 5.7 4.1 3.6 7.4-.8 1.2-4 8.3-7.1 15.7-5.9 14-8.8 18-13.1 18-1.4 0-3.3.4-4.3 1-1 .5-5.2 1.4-9.2 2-11.6 1.7-27.9 4.9-33.2 6.5-5.6 1.7-5.2 2.2-6.7-9-.6-4.4-1.6-10.5-2.2-13.5-1-5.4-1-5.5 2-8l3.1-2.6-2.4-2.8c-5-5.9-6.5-17.1-3-23.6 1-1.9 2-4 2-4.5.1-.6.5-2.5 1-4.3l.8-3.3 2.6 2.5c1.4 1.4 5.1 3.6 8.1 5m-32.6 86.9c2 1.8 3.6 4.1 3.6 5 0 1.9-1.5 2.3-2.5.7-.4-.6-1.6-1-2.8-.8-1.9.3-2.2-.2-2.5-4-.2-2.3-.1-4.2.1-4.2.3 0 2.1 1.5 4.1 3.3m.9 29.9c.7-.7 1.7-.9 2-.5.9.8.9 8.1.1 12.1-.6 2.7-.8 2.9-2.5 1.9-1.5-.9-2.4-.9-3.9.1-1.9 1.2-2 1-2-3.7 0-2.7.3-6.2.6-7.9.5-2.7.9-2.9 2.4-1.9 1.4.8 2.2.8 3.3-.1m-2.7 38.8c1.3 0 2.4-.5 2.4-1 0-.6.5-1 1-1 1.2 0 1.3 13.9.1 15.8-.7 1.1-.9 1.1-1.4-.2-.6-1.6-3.6-1.2-4.8.7-1.2 1.7-2.1-7.3-1.4-12.1.4-2.6 1-4.1 1.2-3.5.3.7 1.6 1.3 2.9 1.3"/></svg>