<svg xmlns="http://www.w3.org/2000/svg" width="682.667" height="512" version="1.0" viewBox="0 0 512 384"><path d="M150.7 52.1c-7.9 2.7-12.9 6-21 13.8-7.6 7.3-14.6 17.7-18 26.7-1.7 4.8-2.2 8-2.2 16.9 0 10.3.2 11.4 3.2 17.5 6.4 13.2 20.1 25.1 33.7 29.2 5.9 1.8 8.5 2 17.7 1.5 8.5-.4 10.9-.3 11.3.8.2.7 1.5 1.5 2.8 1.7s2.4 1.1 2.7 2.3c.3 1.9.3 1.9-1.6.2-3.3-2.9-7.5-2.1-15 2.9-3.7 2.5-9.1 5.5-12 6.6-2.9 1-6.2 2.7-7.5 3.7-2.2 1.8-2.2 1.9-.5 6.1 1.6 4.2 1.6 4.2-1.2 7.9-3.5 4.5-6.4 11.3-5.9 13.7.5 2.8 3.9 3 5.9.3l1.8-2.4 5.8 3.2c7.6 4 8.3 7.8 2.7 13.8-2.2 2.3-2.4 3.2-1.5 4.7.6 1 1.1 2.7 1.1 3.8 0 1.5.7 2 2.9 2h2.9l.7 8.3c.3 4.5 1.1 12 1.7 16.7s1 13.5.9 19.7c-.2 10.2-.1 11.4 1.8 13 1.6 1.3 2.1 2.9 2.1 6.9 0 4.5-.4 5.5-2.6 7.1-2.5 1.8-2.7 2.6-3.2 11.5-.4 8.7-.3 9.7 1.6 11.6 2.2 2.2 2.5 3.5 2.3 9.4-.1 2.3-.9 4.4-2.1 5.6-2.8 2.6-4 7.4-4 15.5 0 6 .3 7.1 2.5 9.1 2 1.9 2.5 3.3 2.5 7.5s-.4 5.5-2.5 7.3c-3 2.6-3.3 5.8-.6 5.8 1.1 0 2.2-.6 2.4-1.3q.6-1.5.6 0c.1 1.7 5.1 1.7 5.1.1 0-.9.3-.9 1.2 0 .7.7 2 1.2 3.1 1.2 1.4 0 1.7-.5 1.2-2.3-.4-1.2-1.5-2.8-2.6-3.6-2.8-2-2.8-12.6 0-14.1 2.4-1.2 3-4.2 3.3-14.9.1-7.6 0-8.5-2.2-10.1-2-1.5-2.2-2.3-1.8-6.9.4-3.6 1.2-5.9 2.9-7.7 2-2.2 2.4-3.8 2.8-10.5.4-9.4-.3-12.6-2.7-13.3-1.6-.5-1.8-1.5-1.4-6.4.3-4.5.9-6.1 2.8-7.5 1.3-1 2.4-2.6 2.4-3.5 0-1.5 1.4-1.7 10.7-1.7 6 0 13.6-.4 17-.8l6.2-.9-2.9 5.9c-5.9 11.9-6.4 15.9-6.5 48.3 0 16.2.2 34.1.5 39.7l.5 10.3h84.7l-3-3.5c-3.8-4.2-4.7-9.1-4.7-24.6 0-11.2.1-11.7 3.7-19 2-4 6.1-10.7 9-14.7l5.3-7.3.5 8.3.5 8.3 2.5-7.3c1.3-3.9 2.7-7.2 3.1-7.2.8 0 5.1 22.9 4.4 24-.3.4-.2 1 .3 1.2.8.3 4.9 21.2 5.8 29.8.5 5.4.5 5.5-2.9 7.7l-3.5 2.2-1.1-2.9c-1.3-4-3.4-3.8-5.4.5-.9 2-1.7 3.8-1.7 4 0 .3 16.3.5 36.1.5h36.1l3.8-3.8c4.7-4.7 6.4-10.4 5.8-19.4-.8-11-7.1-22.3-23.2-41.3-7-8.3-7.6-9.3-7.1-12.5.3-1.9 1.4-10 2.6-18 4-29 9.2-49.9 16.9-67.5 1.9-4.3 2.3-4.7 3-3 .5 1.1.9 1.4.9.7.1-2.2 2.1-.2 2.1 2 0 1.2.7 3 1.6 3.9 1.6 1.8 1.8 1.8 4.6.1 1.6-.9 3.1-2.7 3.4-3.9.4-1.3 1-2 1.5-1.7 1.7 1 15.6-14.6 18.1-20.3.7-1.5 2.1-3.4 3-4.1 1-.7 1.8-1.9 1.8-2.5 0-.7 1.4-3.9 3.1-7.2 5.2-10.3 7.3-23.1 4.6-28.5-.7-1.4-3.9-3.9-7.2-5.7-4.8-2.6-7.2-3.2-12-3.2-6-.1-13.1 2.3-16.6 5.5-1.3 1.2-2.2 1.3-3.8.5-1.1-.6-3.6-1.1-5.5-1.1-5.9 0-5.9 0 13.4-14.5 8-5.9 16.7-12.6 19.3-14.8l4.8-4 4.9 2.7c6.7 3.6 11.3 3.6 19.2-.2 3.5-1.7 7.7-3.4 9.3-3.7 7.2-1.6 9.5-2.7 9.5-4.5 0-2.3-5.6-7.9-10.5-10.6l-3.5-1.9 6.2-2c7.5-2.4 8.4-4.9 3-7.7-1.9-.9-3.6-1.9-3.9-2.2-.4-.3 6.6-7.8 15.5-16.5 8.9-8.8 16.2-16.2 16.2-16.5 0-3.2-21.3 8-44.5 23.4-33.9 22.6-43.2 27.9-72.7 41.8-.5.2-.8-1-.8-2.8 0-4.3-3.9-8-8.5-8-3.7 0-4.3.8-2.3 2.8 1 1 .6 1.9-1.9 4.4-4.4 4.4-9.2 5-16.8 2.3-3.3-1.2-8.9-2.7-12.5-3.4-6.9-1.2-13.3-.5-30 3.6-7 1.7-7.3 1.8-4 2.3l3.5.6-3.6 1.6c-1.9.8-4.8 2.7-6.4 4.2-2.9 2.7-2.7 3.3.6 1.6 2.6-1.4 2.4-.3-.7 3.7-3.6 4.8-5.6 10-5.9 16.1-.4 5.3-.3 5.4 1.6 3.6 1.8-1.6 1.9-1.6 1.9.9 0 1.4.3 3.2.6 4.1.8 2.2-3.6 3.1-8.1 1.6-5-1.6-6.3-.4-4.7 4.7 1 3.1.9 4-.4 5.3s-1.6 1.3-2.4 0c-1.4-2.2-1.2-4.4.8-9.2 1.2-3.1 1.7-7.1 1.7-14.3 0-9.4-.2-10.4-3.3-16.3-6.9-13.2-15.4-19.4-29.2-21.4-4.8-.7-8-1.6-8-2.3 0-.6-1.1-2.1-2.4-3.2-1.8-1.6-2.5-3.5-3-8.3-.8-6.9-3.7-15.6-7.1-21-3.1-4.9-15.2-16-20.5-18.9-12.4-6.5-25.9-8-37.3-4m127 100.5c-.6 2-1.3 3.2-1.4 2.7-.4-1.1 1.4-6.3 2.1-6.3.2 0-.1 1.6-.7 3.6m-82.3 32.8c7.2 5.4 12.7 7.1 23.8 7.1 9.6 0 9.7 0 18.8-4.8l9.2-4.8 4.4 2.6c3.8 2.2 4.3 2.9 3.4 4.5-.5 1-1 3.3-1 4.9 0 2.6.9 3.8 5.5 7.4 4.2 3.1 5.5 4.7 5.2 6.2-1.3 5.7-13.1 30.2-15.5 32.2-3.2 2.6-6.4 3.4-28.2 7.3-9.1 1.6-19.5 3.8-23.3 4.8-4.4 1.3-6.7 1.6-6.5.8.1-.6-.1-2.7-.5-4.6-.3-1.9-1.4-8.1-2.3-13.8l-1.7-10.4 2.7-2.2 2.8-2.2-3.3-5.3c-4.3-6.9-5.3-16.3-2.2-20.8 1.1-1.5 2.1-3.5 2.1-4.3.3-2.8 1.4-8 1.8-8 .2 0 2.4 1.5 4.8 3.4m-45.3 10.2c1.1 1.4 1 1.8-.6 3-1.8 1.3-4.5 1.9-4.5.9 0-1.1 2.4-5.5 3-5.5.4 0 1.4.7 2.1 1.6m23.5 86.3c-.5.8-1.3.8-2.7 0-1.5-.7-2.4-.7-3.5.2-1.2 1-1.4.3-1.4-4.1v-5.2l4.1 4c2.3 2.2 3.8 4.5 3.5 5.1m-3.3 24.3c.7-.7 1.7-.9 2-.5.9.8.9 5.6.1 10.5-.6 3.4-.9 3.7-3 3.2-1.4-.4-3.1-.1-3.9.6-1.3 1.1-1.5.5-1.5-4.6 0-8.5.7-10.6 3-9.2 1.4.9 2.2.9 3.3 0m-2.9 39.2c.9-.3 1.6-1 1.6-1.5s.5-.9 1-.9c1.1 0 1.4 11.1.4 14.8-.6 2.1-.8 2.2-2.4.7-1.6-1.4-1.9-1.4-3.3-.1-.8.8-1.7 1.2-2.1.9-.8-.8-.8-5.8.1-11.8.5-4.1.8-4.5 1.8-3.1.7.9 1.9 1.4 2.9 1"/></svg>