<svg xmlns="http://www.w3.org/2000/svg" width="682.667" height="512" version="1.0" viewBox="0 0 512 384"><path d="M150.4 51.9c-10.3 3.7-22.9 14.1-30.5 25.2-10.2 15-13.3 30.8-8.9 45.1 4.5 14.6 19.4 29.1 34.8 33.8 6.8 2.1 18.8 2.6 25.4 1.1 3.1-.7 3.7-.6 4.1.9.3 1 1.5 2 2.8 2.2 1.4.2 2.5 1.1 2.8 2.3.3 1.9.3 1.9-1.6.2-3.6-3.2-9.4-1.8-17.3 4.2-1.9 1.5-6.5 4-10.2 5.5-8.8 3.7-9.5 4.6-7.5 9.7 1.6 4.1 1.6 4.1-1.3 7.8-4.1 5.1-7 12.3-5.8 14.4 1.3 2.3 4.3 2.1 6-.4l1.4-2.2 3.9 2c9.8 4.7 10.6 7 5.4 14.3-2.2 3-2.8 4.5-2 5.3.6.6 1.1 2.1 1.1 3.4 0 1.9.5 2.3 3 2.3 1.9 0 3 .5 3 1.4 0 3.9 3.2 32 3.7 32.9.4.6.5 4.6.4 9-.2 10.3.6 14.5 3 15.2 1.6.5 1.9 1.6 1.9 6.4 0 5.1-.3 5.9-2.4 6.9-2.8 1.3-3.6 4.6-3.6 15.3 0 6.8.3 8 2 8.9 1.6.9 2 2.1 2 6.5 0 5.2-1.2 7.7-4.2 8.7-.9.3-1.4 3.9-1.6 11.5-.4 10.8-.3 11.1 1.8 11.8s2.2 1.1 1.7 6.8c-.5 5.1-1 6.4-3.1 8-3.1 2.2-3.5 5.7-.7 5.7 1.1 0 2.2-.6 2.4-1.3q.6-1.35.6 0c.1 1.7 5.1 1.7 5.1.1 0-.9.3-.9 1.2 0 .7.7 2 1.2 3.1 1.2 1.4 0 1.7-.5 1.2-2.3-.4-1.2-1.6-2.9-2.8-3.8-1.7-1.4-1.9-2.3-1.3-7q.75-5.4 2.7-6.9c2.5-2 3.8-7.5 3.9-16.2 0-6.1-.2-6.9-2.5-8.4s-2.5-2.1-1.9-6.8c.4-3.8 1.3-5.7 3.2-7.3 2.4-2 2.6-2.9 3-11.7.4-9.2.4-9.5-2.2-11.9-2.4-2.3-2.6-2.9-2-8 .4-3.3 1.2-5.8 2-6.1s1.9-1.7 2.4-3.1c.9-2.4 1.2-2.5 10.1-2.5 5.1 0 12.1-.5 15.6-1.1s6.6-.9 6.9-.6c.3.2-.4 2-1.6 3.8-1.1 1.9-3.2 7-4.7 11.4-2.4 7.5-2.6 9.5-3.1 31.7-.2 13-.1 31.1.3 40.3l.7 16.5h41.9c23 0 41.9-.3 41.9-.7s-1.1-1.9-2.5-3.3c-2-2.1-2.9-4.6-4-11.6-.8-4.9-1.5-10.7-1.5-13 0-10.2 6.4-23 20.3-40.6 1.8-2.2 1.8-2.1 1.3 7.6-.2 5.4-.1 9.5.4 9 .4-.5 1.8-3.7 3-7.2 1.3-3.4 2.4-6.2 2.5-6.2.2 0 1.3 5.3 2.5 11.7 1.2 6.5 3.2 17.2 4.5 23.8s2.6 14.7 3 18.1l.7 6-4.3 3-4.2 2.9 32.9.3 32.9.3 3.2-3.7c3.1-3.5 5.3-10.2 5.3-16.3 0-4.6-3.6-15.1-7.3-21.2-3.2-5.4-9.5-13.9-18.8-25.6l-4.1-5.2 2.2-16.3c4.3-33 7.8-48.1 16.3-70.2 2.6-6.9 3.1-7.7 4.2-6.2 1 1.3 1.4 1.4 1.8.4.2-.7.8 0 1.2 1.7 1.1 5 1.4 5.5 3 6.1 1.8.7 6.5-3.2 6.5-5.4 0-.9.6-1.2 1.6-.8s1.8-.1 2.1-1.4c.3-1 1.4-2.2 2.4-2.5 1.1-.4 3.7-3.1 5.9-6s4.5-5.7 5.1-6c.6-.4 1.9-2.7 2.9-5.1 1.1-2.4 2.3-4.4 2.8-4.4s1.7-2.1 2.7-4.8c1-2.6 2.4-5.5 3.2-6.4 1.9-2.2 5.3-15 5.3-20 0-6-2.1-9-9.1-12.6-8.7-4.5-15.3-4.5-24.2.2-4.2 2.2-7 3-7.8 2.5s-3.4-.9-5.8-.9c-3.9 0-4.2-.2-3-1.7.8-.9 7.7-6.3 15.4-12.1s16.3-12.4 19.2-14.8c2.8-2.4 5.6-4.4 6.3-4.4.6 0 2.8 1.1 4.8 2.5 5 3.4 12.4 3.4 19.2 0 2.7-1.4 7.7-3.2 11.1-4 3.4-.7 6.6-1.8 7.1-2.3 1.7-1.7-.2-5.2-5.1-9-2.5-2-4.7-4.2-4.8-4.7 0-.6 2.2-1.8 4.9-2.8 6-2.3 6.1-4.3.3-7.2-2.2-1.1-4.2-2.1-4.5-2.3-.2-.1 7.2-7.9 16.5-17.2 9.4-9.4 16.2-17 15.4-17-4.6 0-21.7 9.4-45.9 25.4-31 20.5-32.2 21.2-51.7 30.9l-18.8 9.5-.1-3.6c-.1-4.6-4.3-8.4-8.7-8-3.1.3-5.2 2.8-2.3 2.8.9 0 1.6.4 1.6.9 0 1.8-7.8 7.1-10.3 7.1-1.4 0-2.8.4-3.2.9-.3.5-4.2-.4-8.8-2.2-7.1-2.7-9.4-3.1-17.7-3-6.5 0-12 .7-17.4 2.1-4.4 1.2-8.8 2.2-9.8 2.2s-1.8.4-1.8 1c0 .5 1.3.7 3 .3 4.2-.8 3.8.5-.7 2.4-2.1.8-4.5 2.2-5.3 3-.8.7-2.4 2.1-3.5 2.9l-2 1.6 2-.7c1.1-.4 2.7-1 3.5-1.3s.2 1.1-1.4 3.2c-3.9 5.1-6.5 12.5-6.3 17.4.1 3.8.3 4 1.8 2.6 1.5-1.3 1.7-1.1 2.2 2.2.4 2.1.4 4.1 0 4.7-.3.6-3.2.7-7.1.3l-6.5-.7.6 5c.7 5.5-.5 7.3-3.1 4.8-1.4-1.4-1.3-2.3.7-9.2 3.3-11.1 2.8-21.7-1.6-30.6-3.8-7.6-10.8-15-17.3-18-2.5-1.2-8-2.6-12.2-3.2-5.3-.6-7.8-1.4-7.8-2.3 0-.7-.9-1.9-1.9-2.6-1.3-1-2.4-3.9-3.5-10.3-2.4-13-6-19.7-15.5-28.8-8.2-7.8-12.6-10.6-22-13.8-7.3-2.5-20.7-2.5-27.7 0M278.5 153c-.4 1.7-.9 2.9-1.2 2.6-.3-.2-.2-1.9.2-3.6s.9-2.9 1.2-2.6c.3.2.2 1.9-.2 3.6m-83.1 32.4c7.2 5.4 12.7 7.1 23.8 7.1 9.6 0 9.7 0 18.9-4.8l9.2-4.7 4.4 2.6c3.3 1.9 4.3 3 3.8 4.2-.4 1-.9 3.3-1.2 5.3-.5 3.4-.2 3.9 3.8 6.7 2.4 1.8 5.4 4 6.6 5.1l2.3 1.9-3.3 7.4c-1.9 4-4.6 10.5-6.2 14.5-2.3 5.9-3.5 7.7-6.9 10-4.5 3.1-4 3-28.1 7.3-9.3 1.7-20.1 3.9-23.8 5-5 1.4-6.9 1.6-7.2.7-.2-.7-1.1-5.9-1.9-11.7-.9-5.8-1.8-12.1-2.2-14.2-.6-3.3-.4-3.8 2.5-5.3l3.1-1.6-2.6-3.4c-5.5-7.3-6.9-16.7-3.4-23.4 1.1-2.2 2.2-5.8 2.6-8 .4-2.3.8-4.1 1-4.1s2.4 1.5 4.8 3.4m-45.6 9.8c1.8 1.8 1.5 2.6-1.8 4.3-4 2.1-4.2 2-2.3-2 1.8-3.8 2.3-4.1 4.1-2.3m22.5 83.2c1.5 1.1 2.7 2.8 2.7 3.9 0 1.6-.3 1.7-1.4.7-.8-.6-2.5-1-3.8-.8-2 .3-2.3-.2-2.6-3.6-.4-4.1-.3-4.1 5.1-.2m2 36.1c-.7 7.3-1.1 8.2-2.7 6-1-1.5-1.6-1.6-3.5-.6-2.2 1.2-2.2 1.2-1.9-6.1.3-7.2.3-7.3 3-7 1.4.2 3-.3 3.4-1 1.3-2 2.2 2.9 1.7 8.7m-2.2 35.7c-.2 8.7-.7 10.1-3.1 8.5-1.5-.9-2.2-.9-3.2.1-2.5 2.5-3.1 1.1-2.4-5.9.7-8.3 1.2-9.5 3.2-7.8 1.2 1 1.8.9 3.1-.4.9-.9 1.9-1.4 2.1-1.2.3.3.4 3.3.3 6.7"/><path d="m301.3 380.5-1.1 3.5h3.4c3.7 0 3.9-.5 2.4-4.4-1.3-3.6-3.5-3.2-4.7.9"/></svg>