<svg xmlns="http://www.w3.org/2000/svg" width="682.667" height="512" version="1.0" viewBox="0 0 512 384"><path d="M151.7 50c-12.1 3.8-24.3 14.1-33.1 27.8-11.3 17.7-12.5 36.7-3.3 52 4.2 7.1 15.3 17.5 22.5 21.1 8.5 4.2 15 5.5 26.2 4.8 8.7-.4 9.8-.3 10.8 1.4.7 1 2.1 1.9 3.2 1.9s2 .7 2 1.5c0 1.4-.3 1.4-2.5-.1-3.4-2.2-6.9-1.2-15.6 4.6-4.1 2.8-7.9 5-8.5 5-2.3 0-10.5 4.2-11.1 5.6-.3.8.1 3.2.9 5.3 1.4 3.5 1.4 3.9-.5 6.2-1 1.3-3.2 5-4.8 8.2-2.4 4.6-2.7 6.1-1.9 7.7 1.4 2.7 4.4 2.5 6.2-.2l1.5-2.3 5.9 3c5.3 2.8 5.9 3.4 6.2 6.5.2 2.7-.4 4.2-2.8 6.9-2.4 2.5-2.8 3.6-2 4.7.7.7.9 1.8.5 2.4-.3.5-.3 2 0 3.1.6 1.7 1.3 2 3.6 1.5 2.5-.5 2.9-.2 2.9 1.7 0 5.3 2.1 26.6 3.1 31.2.5 2.7 1.2 8.1 1.4 12 .6 10.2 1.3 12.5 4.1 13.5 2.2.9 2.4 1.5 2.4 6.9 0 5.1-.3 6.1-2 6.6-2.5.8-3.4 5.6-2.7 14.8.4 6.1.8 7.4 3.1 9.4 2.2 1.9 2.6 3 2.6 7.6 0 4.3-.4 5.8-1.9 6.8-2.1 1.5-2.5 4.1-2.2 14.7.1 5.3.5 6.7 2.6 8.8 3.6 3.6 3.6 11.7 0 15-2.9 2.6-3.4 6.4-.9 6.4.9 0 2.3-.8 3-1.8 1.3-1.6 1.3-1.6 1.4 0 0 2.6 2.9 2.2 4-.4l.9-2.3.7 2.2c.4 1.4 1.4 2.3 2.5 2.3 2.8 0 2.4-3.6-.6-6.4-2.1-1.9-2.5-3.2-2.5-7.8 0-4.8.3-5.8 2.5-7.2 2.3-1.5 2.5-2.2 2.4-9.4-.2-10.3-1-13.5-3.6-14.7-2.4-1-3.3-3.2-3.3-8.7 0-2.9.6-4.1 2.5-5.4 2.3-1.5 2.5-2.2 2.5-9.4 0-10.7-.8-14-3.6-15.1-2.2-.8-2.4-1.5-2.4-6.9 0-3.4.4-6 1-6s1.8-1.2 2.8-2.8c1.7-2.6 1.9-2.7 11.2-2.7 5.2 0 12.6-.4 16.3-.9l6.9-.9-2.6 3.9c-3.9 6-7.4 17.3-8.7 28.7-1.2 10.1-.7 54.3.7 66.4l.7 5.3h82.9l-2.5-2.9c-2-2.4-2.7-4.9-3.7-12.9-2.2-17.5-.3-24.5 12-43l7.4-11.2 2.8 3.3c2.7 3 2.8 3.6 2.4 9.9-.6 8.1.8 9.7 2.7 3.2.7-2.6 1.6-4.3 2-3.8.7 1.2 9.1 35.5 10.8 44.2 1.1 5.8 1 6.4-.7 7.6-1 .8-3 2.3-4.4 3.5l-2.5 2 31.7.1H375l1.7-2.7c1.4-2.2 1.8-4.8 1.8-13.3 0-10.2-.1-10.9-3.7-18.1-2-4-7-11.7-10.9-16.9-7.1-9.3-7.3-9.7-8.4-17.8-.9-6.6-.9-11.1.2-21.5 3-29.1 6.6-45.9 13.9-65 2.9-7.6 5.2-8.5 7-2.8 1.5 4.8 3.5 5.9 6.7 3.5 1.4-1 2.8-2.7 3.1-3.8.2-1 .9-1.5 1.4-1.2 1 .6 12.2-9.9 12.2-11.5 0-.4 1.2-2 2.8-3.6 2.7-2.9 4-4.8 9.9-15.2 4.3-7.5 4.8-8.5 6.9-16.1 3.8-13.2 1.9-18-9.3-23.5-7.2-3.5-14.1-3.2-22.8 1-3.3 1.6-6.4 2.8-7 2.6-.5-.2-2.9-.9-5.3-1.6l-4.3-1.1 17.3-12.4c9.5-6.8 19.2-13.9 21.5-15.7l4.2-3.4 4 2.7c6.3 4.1 11.8 4.3 19.9.5 3.8-1.7 9.3-3.5 12.2-4.1 7.6-1.4 8.6-2.7 5.4-6.8-1.5-1.8-4.8-4.8-7.5-6.6l-4.9-3.3 5.5-1.2c9.2-2.1 10.5-5.3 3.2-8.2-1.8-.7-3.4-1.4-3.6-1.5-.4-.4 16.5-16.6 26.7-25.5 11.8-10.4 9.3-10.7-10.3-.9-7.7 3.8-21.3 11.6-30.2 17.2-8.9 5.7-18.4 11.6-21 13.1s-8.2 4.8-12.3 7.2c-4.1 2.5-12.9 6.8-19.5 9.6s-14 6.2-16.5 7.4l-4.6 2.3.4-3.4c.7-6-7-11.5-11.8-8.4-1.3.8-1.1 1.1.7 1.6 2.2.6 2.2.7-1.1 4.1-5.1 5.4-9.9 5.9-20.9 2.2-13.9-4.8-15.7-4.7-40.7.4-5.4 1.1-5.5 1.1-2 1.7l3.5.6-4.5 2.1c-2.5 1.2-5.6 3.1-7 4.3l-2.5 2.1 2.8-.7c3.4-.8 3.4-.3-.2 3.8-3.2 3.7-6 10.9-6.4 16.9l-.3 3.9 2.1-2 2.2-2.1.6 4.3q.6 4.2-.6 5.1c-1.2.7-5.8.4-10.4-.9-2.1-.6-2.2-.2-2.5 5.2-.3 5.8-1.3 7.1-3.2 4.1-.7-1-.2-3.9 1.3-9.1 3.2-10.8 2.7-22.8-1.2-30.5-6.6-12.9-16.7-20.4-29.3-21.7-5.3-.6-6.3-1-9-4.3-2.4-2.8-3.2-5-3.8-9.8-1.8-16.4-9.7-28.8-25-39.2-11.2-7.7-27.3-10.2-39.9-6.1m204.4 74.7c-1.2 2-1.4 1.4-.5-1.2.4-.9.9-1.4 1.1-1.1.3.2 0 1.3-.6 2.3m-77.7 28.7c-.3 1.5-.8 2.5-1.1 2.3-.2-.3-.1-1.7.3-3.1.3-1.5.8-2.5 1.1-2.3.2.3.1 1.7-.3 3.1M200 188.5c12.7 6.5 26.8 5.8 40-1.9 5.5-3.2 7.1-3.2 11.5-.4 2.7 1.7 3.4 2.8 3 4.3-2.2 7.8-2.2 7.9 4.9 13.5 3.7 2.9 6.5 5.8 6.2 6.4s-3 7.2-6 14.6c-5.1 12.5-5.8 13.8-10.3 17.1-4.7 3.5-5.2 3.6-22.8 5.8-9.9 1.2-21.5 3.1-25.9 4.2-4.3 1-8.4 1.9-9.1 1.9-.8 0-1.5-2.2-1.9-5.8-.4-3.1-1.4-9.7-2.2-14.7l-1.5-8.9 3-2.6 3-2.5-2.8-3.8c-5.4-7.1-6.3-17.8-2-23.8 1-1.4 1.6-2.9 1.3-3.2s-.1-2.2.6-4.2l1.2-3.7 3.2 3c1.7 1.6 4.7 3.8 6.6 4.7m-51 5.4c.5 1.1 1 2.2 1 2.5 0 .7-6.1 3.9-6.5 3.4-.6-.6 2.7-7.8 3.6-7.8.4 0 1.3.9 1.9 1.9m22.3 84c3.4 2.1 5 5.1 2.7 5.1-.5 0-1-.5-1-1 0-1.4-3.8-1.2-4.3.2-.2.7-.6 1.1-.9.8-.8-.8-1.8-8.2-1-7.8.4.2 2.4 1.4 4.5 2.7m5.1 29.2c.8 4 .8 12.4 0 13.2-.4.3-1.3-.1-2.1-.9-1.4-1.3-1.7-1.3-3.3.1-1.6 1.5-1.8 1.4-2.4 0-.9-2.4-.7-14.5.2-14.5.4 0 1.3.5 1.9 1.1.8.8 1.5.6 2.4-.5 2-2.2 2.6-2 3.3 1.5m1 36.5c1 2.6.7 15.2-.4 15.9-.5.3-1-.1-1-.9 0-2-2.9-2.1-3.6-.1-1.1 2.7-2.1.7-2.8-5.3-.7-6.2.5-12.1 1.7-8.8.5 1.4 1 1.4 2.6.4 1.1-.7 1.7-1.6 1.5-2-.3-.4-.1-.8.4-.8.6 0 1.3.7 1.6 1.6"/><path d="M299.5 383c-.4.6.5 1 2 1s2.4-.4 2-1c-.8-1.3-3.2-1.3-4 0"/></svg>