<svg xmlns="http://www.w3.org/2000/svg" width="682.667" height="512" version="1.0" viewBox="0 0 512 384"><path d="M150.9 50.4c-12.6 4.4-23.5 13.7-32.3 27.5-11.7 18.1-12.6 37.6-2.6 52.9 6.8 10.4 15 17.4 26 22.3 4.9 2.1 6.9 2.4 18.5 2.4 11.2 0 13.2.2 14.3 1.7.7 1 2.2 1.8 3.3 1.8s1.9.7 1.9 1.6c0 1.5-.2 1.5-2.6-.1-3.5-2.3-6.7-1.3-15.5 4.5-4.1 2.8-7.9 5-8.5 5-1.8 0-10.3 4-11 5.1-.3.6-.1 2.9.6 5.2 1.1 4 1 4.5-2.3 9.9-5.2 8.7-6.2 11.5-4.7 13.3 1.8 2.2 4.5 1.8 6.2-.7l1.5-2.3 5.9 3.1c5.3 2.8 5.9 3.5 6.2 6.5.2 2.6-.4 4.2-2.8 6.8-2.1 2.2-2.9 3.9-2.4 5 .4.9.6 2 .5 2.5-.1.4.1 1.7.5 2.8.5 1.6 1.2 1.9 3.3 1.5l2.8-.6 1.2 14.8c.7 8.1 1.6 16.5 2.1 18.7.5 2.1 1 6.4 1 9.5 0 10.5 1 15 3.6 16 2.2.8 2.4 1.5 2.4 6.8 0 4.9-.3 6.1-2.2 7.3s-2.3 2.6-2.6 8.4c-.5 7.9 1.2 15.4 3.3 15.4s3.5 3.3 3.5 8.3c0 3.5-.5 4.8-2.2 5.9-1.8 1.2-2.2 2.6-2.5 7.9-.5 9.2.7 15.2 3.5 16.4 1.9.9 2.2 1.7 2.2 7 0 4.9-.4 6.2-2 7.3-2.1 1.3-2.8 6.2-.9 6.2.7 0 1.8-.8 2.5-1.8 1.3-1.6 1.3-1.6 1.4 0 0 1.1.8 1.8 1.9 1.8 1 0 2.2-.8 2.6-1.8.6-1.6.7-1.6 1.9 0 1.8 2.5 3.6 2.2 3.6-.5s-1-4.1-3.2-5c-2.7-1-2.6-12.2.1-13.7 1.3-.6 2.2-2.5 2.6-5.3.7-4.8-1.1-18-2.6-18.5-2.6-1-3.9-3.7-3.9-8.4 0-3.9.5-5.4 2.2-6.8 2.1-1.6 2.2-2.5 2-10.9-.2-9.4-1.2-13.1-3.7-13.1-.9 0-1.6-1.8-2.1-5.6-.6-5.2-.5-5.8 2-8 1.4-1.4 2.6-3 2.6-3.7 0-.9 3-1.2 10.8-1.2 5.9 0 13.5-.4 17-.9l6.4-.8-2.7 4.3c-4.1 6.4-7.3 16.8-8.6 28.2-1.2 10.2-.7 54.8.7 66.4l.7 5.3h41.6c40.4 0 41.5-.1 39.2-1.9-1.8-1.4-2.6-3.5-3.7-10.2-3.3-20.3-.9-28.8 14.4-50.7l4.6-6.5 2.2 2.6c1.7 2 2.3 4.4 2.9 10.9l.8 8.3 1.4-4c.8-2.2 1.5-4.6 1.6-5.3.1-3.4 1.9 1.8 5.7 17.3 4.5 18.5 7 29.9 7 32 0 .7-1.9 2.7-4.2 4.4l-4.2 3.1H375l1.7-2.6c1.1-1.7 1.8-5.4 2.1-10.8.6-12.5-2.9-20.8-16.4-38.9-5.9-8-6.1-8.4-7.3-17.4-.7-5.1-1-9.6-.8-10 .3-.5 1-6.2 1.7-12.8 1.9-19.9 4.9-36.3 8.9-49 4.8-14.7 8.3-22.7 8.8-20.2.3.9.8 1.5 1.3 1.2s1.2 1 1.6 2.9c.9 5.3 2.7 6.2 6.4 3.6 1.6-1.2 3-2.8 3-3.6s.6-1.4 1.3-1.2c1.6.3 12.7-10.1 12.7-11.9 0-.7.7-1.6 1.5-1.9s2.9-2.9 4.6-5.7c1.7-2.9 3.5-5.4 3.9-5.7s1.8-2.8 3-5.5c1.2-2.8 2.7-5.3 3.2-5.6 1-.6 3.4-8.6 5.1-16.7 1.3-6.7-.5-11-6.4-14.8-10-6.3-16.5-6.6-27.6-1.3-4.9 2.4-6.7 2.8-8.2 1.9-1.1-.5-3.4-1-5.2-1-2.7 0-3-.2-1.9-1.5s18.3-13.9 26.6-19.5c1.3-.8 5.2-3.7 8.8-6.3l6.6-4.8 4.3 2.6c5.9 3.4 12.6 3.4 20 0 3-1.4 8.3-3 11.6-3.6 9-1.6 9.4-2.9 3-9.2-3-2.9-6.5-6.1-7.9-7-1.4-1-1.8-1.6-.8-1.3 2.1.6 8.8-1.3 11-3.2 2.2-1.8 1.1-3.5-3.9-6.1l-3.4-1.7 17-15.8c9.4-8.7 17.1-16.2 17.1-16.7 0-2.7-24.2 9.2-44.1 21.8C429.4 90 420 95.8 417 97.5c-3 1.8-9.3 5.5-14 8.3-4.6 2.9-13.8 7.5-20.5 10.3-6.6 2.8-14.1 6.2-16.7 7.5L361 126v-3.9c0-3.2-.6-4.4-3.1-6.5-3.2-2.7-6.3-3.3-8.9-1.6-1.2.7-1.1 1 .8 1.7 2.2.8 2.2.9-1.5 4.5-5.2 4.9-10.1 5.6-18.5 2.4-3.5-1.3-9-2.9-12.3-3.6-6.2-1.2-10.1-.7-29.5 3.4-6 1.3-6.2 1.4-2.5 1.5l4 .2-5.2 2.4c-2.9 1.3-5.3 2.8-5.3 3.4 0 .5-.9 1.3-2.1 1.6-1.1.4-1.9.9-1.6 1.1.2.3 1.6 0 3.1-.5 1.4-.6 2.6-.9 2.6-.7s-1.5 2.3-3.4 4.5c-1.9 2.3-4.2 6.3-5 8.9-2.8 8.3-2.6 15.5.3 10.5 1.2-2.2 1.7-1.7 2.5 2.9.6 3.4.5 3.8-2 4.4-1.4.4-4.3.2-6.4-.5-2-.6-4-1.1-4.3-1.1s-.7 2.6-.9 5.7c-.2 3.3-.8 5.8-1.5 6-2.3.8-2.4-4.4-.3-11.6 7.5-24.5-6.9-49-30.5-51.7-5.1-.6-6.5-1.2-9.1-4.1-2.6-2.8-3.3-4.5-3.8-9.7-1.6-16-8.9-27.9-23.4-38.3-12.7-9.2-28.6-11.8-42.3-6.9m205.2 74.9c-1 .9-1.1.8-.5-.6.3-1 .9-1.5 1.2-1.2s0 1.1-.7 1.8m-78 28.8c-.5 1.3-1 1.9-1 1.2-.1-1.5 1-4.5 1.5-4 .3.2 0 1.5-.5 2.8m-75.3 35.7c5 2.4 6.9 2.7 15.7 2.7 9.8 0 10.2-.1 18.4-4.3 4.6-2.3 9.1-4.2 10-4.2s3.1 1.2 4.9 2.7c3.1 2.7 3.1 2.9 2 7-1.1 3.9-1 4.4 1.1 6.7 1.3 1.4 3.9 3.6 5.8 4.8 4.5 3.1 4.8 4.8 2 10.5-1.3 2.6-4.1 9.2-6.1 14.6-5.4 13.9-6.7 14.7-29.3 17.6-9.5 1.3-20.3 2.9-24 3.7s-8.2 1.7-9.8 2l-3.1.6-2.3-14.9-2.3-14.8 3.1-2.3 3-2.4-3.3-4.8c-5.2-7.5-5.8-16.9-1.6-23 .9-1.4 1.5-3 1.3-3.6s.1-2.3.7-3.9l1-2.7 3.5 2.7c2 1.4 6.1 3.8 9.3 5.3m-54.2 3.9c.7 1 1.4 2.1 1.4 2.5 0 .8-6 4.2-6.5 3.6-.4-.4 2.6-7.8 3.2-7.8.3 0 1.2.8 1.9 1.7m25.4 88.2c0 1.2-.3 1.2-1.2.3-1.6-1.6-4.8-1.5-4.8 0 0 .9-.4.8-1-.2-.5-.8-1-3-1-4.8v-3.3l4 3.2c2.2 1.8 4 3.9 4 4.8m1.9 32.3c.1 7-.3 8-2.4 5.2-1-1.5-1.3-1.5-2.9.2-2.6 2.5-3.6.4-3.6-7.9 0-6.7.5-7.8 2.8-5.5 1 .9 1.6.8 2.9-.5 1.7-1.6 1.8-1.6 2.5 0 .3 1 .7 4.8.7 8.5m-1.9 30.3c1.1-1 2.2-1.6 2.5-1.3 1.2 1.2 1.7 13.6.7 15.4-1 1.7-1.1 1.7-1.2.1 0-1-.8-1.7-1.9-1.7-1 0-2.2.8-2.6 1.7-.7 1.6-.9 1.5-1.5-.7-.5-1.4-.8-5.4-.9-9 0-5.9.1-6.3 1.4-4.6 1.4 1.9 1.5 1.9 3.5.1"/><path d="M299.5 383c-.3.5.3 1 1.5 1s1.8-.5 1.5-1c-.3-.6-1-1-1.5-1s-1.2.4-1.5 1"/></svg>