<svg xmlns="http://www.w3.org/2000/svg" width="682.667" height="512" version="1.0" viewBox="0 0 512 384"><path d="M155 43.5c-20.6 5-37.8 22-45.5 44.8-4.1 12.4-3.1 23.1 3.7 35.8 3.4 6.4 11.4 15.2 18.4 20 2.6 1.7 8.1 4.3 12.3 5.6 6.5 2.1 9.1 2.4 18 2.1 7.3-.2 10.5.1 10.8.9.2.6-.9 1.4-2.5 1.8-1.6.3-5.9 2.5-9.5 4.9s-9.3 5.3-12.6 6.6c-7.9 2.9-8.7 4-7.2 9.1 1.1 3.8 1 4.3-1.8 8.6-1.7 2.5-3.8 6.5-4.7 9-1.7 4.3-1.7 4.5.5 6.6l2.2 2.2 2.2-2.6c2.5-3 3.7-2.8 10.6 1.6 3.3 2 4.1 3.1 4.1 5.5 0 3.1-3.6 10-5.2 10-.6 0-.4.7.3 1.6.8.9 1.2 2.7 1.1 4-.3 2.1.1 2.4 3.1 2.4h3.5l.7 7.7c.4 4.3 1.4 12.5 2.2 18.3s1.6 14.9 1.7 20.3c.1 8.9.3 10 2.4 11.7 1.8 1.5 2.2 2.8 2.2 7.4 0 4-.4 5.7-1.6 6.4-3.5 2-3.9 22-.4 24.5 1 .7 2 3.3 2.4 6.5.6 5 .5 5.6-2 7.8-2.6 2.5-2.6 2.7-2.2 12.5.3 9.4.5 10.1 3 12.2 3.7 3 4.3 11.2 1 14.5-3 3-3.2 10.2-.2 10.2 1.6 0 2-.7 2-3 0-2.8.2-2.9 2.1-1.8 1.7 1.1 2.2 1 3.3-.5 1.9-2.5 2.4-2.2 3.2 1.8.5 2.6 1.1 3.5 2.6 3.5 1.4 0 1.8-.5 1.4-1.6-.3-.9-.6-2.7-.6-4 0-1.4-1.2-3.6-2.6-5.1-3.2-3.2-4.6-11.9-2.2-13.7 2.6-1.9 3.8-5.3 3.8-10.3-.1-7.2-1.6-13.5-3.6-15-1.1-.8-2-3.3-2.5-6.5-.6-4.8-.5-5.5 1.6-7.3 4.5-4 4.5-20.8-.1-24.8-2-1.7-2.4-3-2.4-7.4 0-4 .4-5.5 1.6-6 .8-.3 1.9-1.6 2.4-2.8.8-2.1 1.1-2.1 6.5-1.2 3.9.8 9.7.7 18.8 0 7.3-.6 13.3-1 13.5-.8.2.1-1.1 2.3-2.8 4.8-4 6-6.6 11.9-8.7 20.3-1.6 5.9-1.8 11.5-1.8 40.4.1 18.4.4 35.2.8 37.2l.8 3.8h82l-1.9-2.5c-1.4-1.7-2.4-5.5-3.2-12.3-2.2-17.3-.3-24.3 11.4-42 7.2-10.9 7.4-11.1 9.1-9.2 1.5 1.7 1.7 3.2 1.1 10.4-.7 10 .6 11.9 2.9 4.1 1.6-5.6 2.9-6.9 3.9-3.8 1.7 5.7 4.5 20.6 4.1 21.4-.4.5-.2.9.3.9.9 0 3.4 10.3 5.7 23.5 1.1 6.2 1.1 7.1-.4 8.2-1.3 1 4.3 1.2 28.6 1.3h30.2l.7-3.8c2.9-15.1-1.1-26.8-15.9-46.7-6.5-8.6-7.6-11.8-7.7-21 0-7.7 3.3-34 5.9-47.5 1.9-9.7 7.7-28.4 11.5-37.2 2.2-5 5.2-4.9 6.1.4 1 5.4 2.7 6.5 6.4 3.7 1.7-1.3 3.1-2.9 3.1-3.6s.7-1.3 1.5-1.3c2.5 0 16.5-15 19.6-21.3 1.1-2 2.3-3.7 2.7-3.7.5 0 1.9-2.5 3.1-5.5 1.3-3 2.6-5.5 3.1-5.5 1.4 0 5.1-13.7 5.3-19.8.2-5.5-.1-6.4-2.7-9.1-8.1-8.4-19.4-10.3-30.4-5.1-4.8 2.3-6.8 2.7-8.2 2-1-.6-3.2-1-4.9-1s-3.1-.4-3.1-.8c0-.5 4.8-4.2 10.8-8.2 5.9-4.1 15.4-10.8 21.2-15l10.5-7.7 3.8 2.5c5.7 3.8 12.1 4 19.6.7 3.4-1.5 8.9-3.3 12.4-3.9 5.1-.9 6.3-1.5 6.5-3.2.4-2.6-3.6-7.5-8.3-10.4-1.9-1.2-3.5-2.5-3.5-3 0-.4 1.7-1 3.9-1.4 2.1-.3 4.9-1.4 6.1-2.4l2.3-1.8-2.6-2c-1.3-1-3.3-2.4-4.2-2.9-1.6-1-1.2-1.7 3.6-6.1 11-10.3 19.5-18 24.3-22.1 13.1-11.5-12.5-1.1-39.9 16.1-6.6 4.1-14.9 9.2-18.5 11.2s-8.8 5.1-11.6 6.9c-6.8 4.4-15.1 8.6-30.3 15.2-17 7.4-15.7 7.2-15.3 2.4.5-5.3-3-9.1-8.3-9.1-3.4 0-4.8 1.4-2.2 2.3.7.3-.3 2-2.8 4.6-3 3.2-4.5 4.1-6.2 3.6-1.3-.3-2.8.2-3.8 1.2-1.6 1.5-2 1.5-6.4-.1-7.6-3-17.3-5.6-20.9-5.6-3.3 0-22.1 3.4-27.7 4.9-3 .9-3 .9 1 1.1l4 .2-4.5 2.1c-8.3 4-13.2 8.2-6.6 5.8 3.4-1.4 3.3-.1-.4 3.4-3.5 3.4-7 12-6.8 17 .1 3.7.7 4.2 2.6 2.3.9-.9 1.2-.5 1.2 1.9 0 1.7.6 3.3 1.3 3.6.6.3 0 1-1.6 1.6-2.1.8-4 .8-7.3 0-5.7-1.5-7.1-.4-5.5 4.2 1.4 4.1 1.4 4.9-.2 4.9-1.2 0-4.3-2.9-6.1-5.8-.4-.7.3-4.3 1.6-8 3.4-9.8 3.2-22.6-.3-30.2-3.6-7.7-11-16.2-16.6-19.2-4.9-2.7-13.2-4.8-18.3-4.8-1.7 0-3-.5-3-1.2 0-.6-.9-2.2-2.1-3.4-1.4-1.5-2.4-4.5-3-9.4-1.9-13.8-6.7-22.9-17-32.4-6.7-6.2-19.2-12.8-27.7-14.5-6.5-1.3-8.2-1.3-15.2.4m126 108.3c0 .5-.7 1.7-1.6 2.8-.8 1-1.4 1.4-1.1.9.2-.6.7-1.8 1-2.8.7-1.7 1.7-2.3 1.7-.9M178 156c0 .5-.2 1-.4 1-.3 0-.8-.5-1.1-1-.3-.6-.1-1 .4-1 .6 0 1.1.4 1.1 1m19.8 27.9c12.9 6.6 24.9 6.7 37.6.2 4.4-2.2 8.9-4.1 9.8-4.1 2 0 10.5 5.5 11.1 7.3.2.6-.2 2.7-.9 4.6-2.4 5.7-1.8 7.7 2.9 11 7.4 5 7.4 4.3.3 19.4-3.5 7.5-7.1 15.5-8 17.7-1.9 4.7-1.4 4.6-21.1 6-12.3.9-30.6 3.4-37.4 5.1-1.2.3-2.1-3.2-4.5-15.9-2.6-14.1-2.8-16.5-1.6-17.3 4.4-2.6 4.4-2.5 1.5-6.2-2.8-3.8-5.5-11.3-5.5-15.5 0-1.4.8-4.4 1.8-6.6 3-6.8 4.1-10.7 3.4-12.4-.3-1 .9-.4 3.1 1.5 2.1 1.8 5.4 4.1 7.5 5.2M147 190c.9 1.6.6 2.2-2.1 3.5-1.7.9-3.2 1.5-3.4 1.3-.7-.6 2.4-6.8 3.4-6.8.6 0 1.5.9 2.1 2m25.6 87.7c-.5.4-1.1.2-1.3-.5-.6-1.5-3.5-1.6-5.1 0-.9.9-1.2.2-1.2-3.4v-4.6l4.2 3.9c2.3 2.1 3.8 4.2 3.4 4.6m1.4 31.4c0 7.2-.6 8.8-2.6 6.1-1-1.4-1.6-1.5-3.2-.5-1.7 1-2.1.9-2.6-1-.7-2.8-.8-9.1 0-11 .3-.9 1.4-1.2 2.8-1 1.3.3 2.7-.1 3.1-.7 1.4-2.3 2.5 1.3 2.5 8.1m.4 32.1c.8 3 .8 10.2 0 12.2-.6 1.5-.8 1.5-2-.1-1.3-1.7-1.5-1.7-3.3.4l-1.9 2.2-.6-3.1c-.3-1.7-.6-5.2-.6-7.9V340l3 .6c1.9.4 3 .2 3-.5 0-2 1.8-1.2 2.4 1.1"/></svg>