<svg xmlns="http://www.w3.org/2000/svg" width="682.667" height="512" version="1.0" viewBox="0 0 512 384"><path d="M152.6 40.1c-18.3 4.3-37.2 23.3-44.1 44.4-6 18.3-.5 36.2 15.4 50.6 11.5 10.5 23.8 14.7 39.4 13.5 6.8-.5 8.8-.4 8.5.5-.2.7-2.1 1.8-4.1 2.5s-6.1 2.8-9 4.7c-2.8 1.9-8 4.4-11.4 5.7-8.3 3-9 3.9-7.4 9.7 1.1 4.4 1 4.8-1.3 7.2-3.1 3.3-7.6 12.9-6.9 14.8.3.7 1.5 1.9 2.6 2.5 1.6.8 2.3.7 3.3-.7.7-1 1.5-2.3 1.7-2.8.3-1.1 8.5 3.1 12 6.1 2.4 2.1 2.1 6.5-.6 11-1.8 2.8-2.3 4.7-1.9 7.6.4 3.7.5 3.8 3.7 3.3l3.3-.5.7 5.1c.3 2.9 1.3 9.7 2.2 15.2.8 5.5 1.8 16 2.2 23.4.6 12.1.8 13.5 2.9 15.1 3.2 2.6 3.2 11.1 0 13.2-2.2 1.4-2.3 2.3-2.3 12.3s.1 10.9 2.3 12.3c1.8 1.2 2.2 2.3 2.2 7.1 0 4.5-.4 5.9-2 6.9-1.8 1.1-2 2.3-2 12 0 10.3.1 11 2.5 13.2 3.4 3.2 3.6 11.3.4 13.9-1.7 1.4-2.2 2.9-2.3 7.7-.1 5.4.1 5.9 2.2 6.2 2 .3 2.2-.1 2.2-4.2 0-4.4.1-4.6 2.1-3.4 1.7 1.1 2.2 1 3.3-.4 1.8-2.4 2.6-1.2 2.6 3.9 0 3.7.3 4.3 2.1 4.3 2 0 2.1-.4 1.7-6.2-.4-5.1-.9-6.4-3.1-8.2-2.3-1.9-2.7-2.9-2.7-7.5 0-4.3.4-5.6 2.2-7.1 4.4-3.5 3.4-24.1-1.2-25.3-1.7-.4-2-1.4-2-5.7s.4-5.7 2.5-7.6c2.3-2.1 2.5-3 2.5-11.1 0-10.5-.6-13-3.1-13.6-1.6-.4-1.9-1.4-1.9-6.1 0-4.4.5-6 2.3-7.8 2.2-2.2 2.7-2.3 22.8-2.3h20.5l-4.7 7c-9.1 13.5-11 23.5-11 56.5 0 13.5.3 29.1.7 34.7l.7 10.3h41c39 0 40.9-.1 39.5-1.8-3.4-3.8-4.9-26.3-2.3-34.8 2.5-8.1 16.8-30.9 18.8-29.7.6.4.8 4.1.4 9.9-.3 5.2-.2 9.6.3 9.9s1.7-2 2.7-5.1 2.3-5.7 2.8-5.7c1.3-.2 4.5 12.4 4.8 18.8.1 2.7.6 5.3 1 5.6 1 .7 4.2 14.7 5.8 25.1l1.1 7.8H377l.6-2.7c1.3-4.9.7-16.7-1-21.3-2.5-6.6-7.7-15.5-15.3-26.1-8.6-12-8.8-13.4-5.7-38.4 3.8-30 7.4-45 15.5-64.7 2.2-5.2 3.9-7.4 3.9-4.8 0 .5.7.7 1.5.4 1.1-.5 1.5.1 1.5 1.8 0 1.3.6 3.3 1.4 4.3 1.3 1.8 1.6 1.8 4.1.5 1.5-.8 3.1-2.5 3.6-3.7.6-1.5 1.4-2.1 2.4-1.7 1.1.5 1.8 0 2.2-1.5.3-1.1 1.1-2.1 1.7-2.1 1.3 0 7.6-6.1 7.6-7.4 0-.4 1.5-2.2 3.3-4 3.7-3.8 6.7-8.1 10-14.8 1.3-2.6 2.9-5.3 3.4-6 2.1-2.6 5.3-15.1 5.3-20.8 0-7-2-9.4-11.6-14.1-7.6-3.8-11.8-3.6-21 .5-5 2.2-6.5 2.5-8.8 1.6-1.5-.5-3.9-1-5.4-1-2.3 0-2.4-.2-1.2-1.4.8-.8 8.9-6.5 18-12.6 9.1-6.2 18-12.6 19.9-14.1l3.4-2.8 4.1 2.4c6.9 4 11.2 4.2 19.2.7 3.8-1.7 9.5-3.5 12.7-4.1 6.3-1.1 7.7-1.7 7.7-3.1 0-1.7-6.5-8.3-10.7-11l-4.3-2.7 3.9-.6c5.1-.6 9.6-2.9 9.6-4.7 0-.8-1.7-2.4-3.7-3.5l-3.8-2.1 10.3-9.6c5.6-5.2 13.2-12.1 17-15.3 7.2-6.2 8.3-8.1 4-7-8.6 2.1-25.8 11-48.5 24.9-29.4 18.1-35.8 21.4-68.6 35.3-1 .4-1-.1-.2-2.2.6-1.5.8-3.7.4-4.9-1.4-4.6-6.8-8.2-10.5-7.1-2.4.8-2.5 2.5-.2 2.5 1.2 0 .4 1.3-2.7 4.5-3.4 3.4-4.9 4.3-6.6 3.9-1.5-.4-2.8.1-3.9 1.3-1.6 1.9-1.8 1.9-11.3-1.4-9-3.2-10.4-3.4-19.2-3-5.2.3-11.5 1-14 1.6s-6.3 1.5-8.5 2l-4 .9 3.3.1c4.1.1 3.4 1.6-1.6 3.2-3.9 1.3-8.1 3.9-8.2 5.1 0 .4 1.1.3 2.5-.2 3.3-1.3 3.2 0-.5 3.5-3.5 3.3-7 12-7 17.2 0 3.5 0 3.6 2 1.8s2-1.7 2 1.8c0 2.3.5 3.7 1.3 3.7.6 0 .3.7-.8 1.6-1.4 1-3.1 1.3-5.5.9-8.6-1.4-8.5-1.5-8.2 3.5l.3 4.5-4.7-4.6-4.6-4.7 2.3-6.8c1.8-5.3 2.4-9 2.4-16 0-8.4-.3-9.5-3.7-16.5-6.6-13.4-16.1-20.3-29.2-21.6-5.4-.5-6.9-1-7.8-2.7-.6-1.2-1.7-2.6-2.4-3.1-.7-.6-1.7-4.3-2.3-8.2-1.3-8.5-3.5-15.4-6.4-20.3-11.8-19.8-35.7-31.4-55.1-26.9m25.4 113c0 .5-.4.9-1 .9-.5 0-1-.7-1-1.6 0-.8.5-1.2 1-.9.6.3 1 1 1 1.6m103.3-.6c-.3.9-.8 1.4-1 1.1-.3-.3-.2-.9.2-1.5.9-1.6 1.5-1.3.8.4M188 173.9c0 1.9 11.3 8.4 17.7 10.2 11.2 3.1 18.6 2.1 30.1-4.1 7-3.8 8.9-3.8 15.1.2 4.8 2.9 5.2 3 6.9 1.5 2.4-2.2 3.2-2.1 3.2.2 0 1.1-.9 2.3-2 2.6-1.2.4-2 1.5-2 2.9 0 1.3-.7 4-1.5 5.9-.8 2-1.2 4.3-.9 5.1s3 3.3 5.9 5.5l5.4 4.1-4.9 9.7c-2.6 5.4-6.4 13.3-8.3 17.5-4.1 9-2.6 8.4-24.2 9.3-7.7.3-18.5 1.2-24 2.1s-10.9 1.7-12 1.8c-1.7.1-2.3-1.6-5.1-15.4-1.8-8.5-3.3-16.2-3.3-17.1-.1-.9 1-2.2 2.4-2.9 3-1.6 3.1-2 .4-4.8-5.7-6.2-7.5-17-3.9-23 1.1-1.8 2.3-5.3 2.7-7.8.3-2.4 1-4.4 1.4-4.4.5 0 .9.4.9.9m-42.6 11.7c1 2.5.7 3-2 4.3-3.5 1.5-3.9.9-1.9-2.8q2.55-5.1 3.9-1.5m27 88.6c-.3.5-1.2.1-1.9-.9-1.2-1.5-1.7-1.6-3.4-.5-1.7 1-2.1 1-2.1-.2 0-.7-.3-2.9-.6-4.7l-.7-3.4 4.6 4.4c2.5 2.4 4.4 4.8 4.1 5.3M169 299c1 0 2.1-.6 2.3-1.3 1.1-2.6 2.7 1.9 2.7 7.9 0 6.7-.7 8.2-2.6 5.6-1.1-1.4-1.6-1.5-3.3-.5-2.5 1.5-3.1.1-3.1-7.1 0-4.9 1-8.1 1.8-5.7.2.6 1.2 1.1 2.2 1.1m5 44c0 3.8-.4 7.2-1 7.5-.5.3-1 .1-1-.4 0-1.4-3.3-1.4-4.7 0-1.2 1.2-2.6-8.3-1.7-11.9.5-1.8.9-2 2.1-1.1 1.1 1 1.7.9 3-.4 2.6-2.5 3.3-1.1 3.3 6.3"/></svg>