<svg xmlns="http://www.w3.org/2000/svg" width="682.667" height="512" version="1.0" viewBox="0 0 512 384"><path d="M149 36.6c-7.6 2.4-15.8 7.7-23.5 15.4-16.1 15.8-23.4 36-19.1 52.8 2.5 9.7 6.3 16.1 14.5 24.3 12.2 12.2 24.1 16.7 40.7 15.6 4.5-.3 8.4-.3 8.7 0 .4.3-2.6 2.1-6.6 4s-7.9 4.1-8.7 4.8-4.4 2.3-8 3.5-7.1 2.6-7.7 3.2c-1.5 1.2-1.7 6.6-.4 8.7.7 1.1.2 2.4-1.6 4.5-2.9 3.4-7.3 12.2-7.3 14.6 0 2 1.9 4 3.8 4 .8 0 2.2-1 3.1-2.2l1.8-2.2 4.4 2.6c8.5 5 10 8.4 6.5 15.1-1.7 3.5-2.2 5.6-1.7 8 .6 2.8 1.1 3.2 3.9 3.1 1.8-.1 3.2.1 3.2.5 0 .3 1.3 8.2 2.8 17.6 1.9 11.1 2.7 19.2 2.4 23.4-.5 8.3.5 14.7 2.7 16.9 1 .9 2.2 3.9 2.6 6.6.6 4.5.4 5.1-1.7 6.7-2.1 1.7-2.3 2.5-2.3 11.8 0 8.9.2 10.2 2.3 12.3 3.1 3.3 3.2 12.7.2 14.6-1.8 1.1-2 2.3-2 12.2s.2 11.1 2 12.2c1.6 1.1 2 2.4 2 7.3s-.4 6.2-2 7.3c-1.7 1.1-2 2.3-2 9.7 0 7.8.2 8.5 2 8.5s2-.7 2-6.6c0-5.5.2-6.5 1.4-5.5 1.5 1.2 4.6.5 4.6-1.1 0-.5.5-.6 1-.3.6.3 1 3.5 1 7.1 0 5.9.2 6.4 2.1 6.4 2.1 0 2.1-.4 1.7-8.7-.4-7.5-.8-8.9-2.6-10.1s-2.2-2.4-2.2-7.3c0-4.7.4-6 1.9-6.9 4-2.1 4-21.4 0-24.8-2.8-2.4-2.7-12.1.1-14.5 1.7-1.4 2-2.9 2-9.6 0-10.2-.8-13.9-3.1-14.6-1.6-.5-1.9-1.6-1.9-6.3 0-4.8.4-6.1 2.5-8.1 1.4-1.3 3.2-2.1 4-1.7 4.1 1.5 19.1 2.5 29.8 1.8 6.5-.4 12-.6 12.2-.4s-1.4 2.7-3.6 5.5c-5.2 6.5-9.3 14.7-11.3 22.3-3.6 13.9-4.4 43.5-2 74.9l.7 8.5h80.5l-1.5-4.1c-2.3-6.8-2.9-25.4-1-31.9 1.6-5.3 7-15 14.3-25.5l3.4-5V328c0 11.4.8 11.9 3.5 2.5 1.5-5.2 1.8-5.7 2.9-4.2 1.5 2 5 17.2 4.8 20.6-.1 1.3.2 2.9.7 3.5 1 1.2 6.1 27.4 6.1 31.3v2.3h60v-9.3c-.1-12.2-2.9-19.3-14.7-36.9-6-8.9-9.3-14.8-9.7-17.4-.7-4.4 4.1-40.4 7.4-55.4 2-9.3 7-24.4 11.1-34.1 1.7-3.8 2.5-4.7 3.4-3.9s1.4.7 1.8-.2c.2-.7.8.4 1.2 2.4 1.1 5.5 2.8 6.5 6.5 3.8 1.6-1.2 3-2.8 3-3.7s.6-1.3 1.4-1c.7.3 2.3-.5 3.5-1.9 1.1-1.3 2.5-2.4 2.9-2.4 1 0 9.8-10.7 12.8-15.6 1.1-1.9 2.7-4 3.5-4.7.9-.6 2.4-3.2 3.4-5.7 1.1-2.5 2.5-5 3.1-5.5 2-1.7 5.4-14.6 5.4-20.5 0-5.2-.3-6.1-3.2-8.9-1.8-1.8-5.6-4.3-8.5-5.8-6.6-3.2-13.6-2.9-21.4 1-4.3 2.1-5.7 2.4-7.3 1.5-1.2-.6-3.4-1.4-5.1-1.8-2.9-.6-2.4-1 11-10 7.7-5.1 17.3-11.7 21.3-14.7l7.3-5.4 4.2 2.5c7.1 4.1 10.7 4.3 18.3.7 3.6-1.7 9.3-3.5 12.6-4.1 3.3-.5 6.6-1.4 7.4-2.1 2-1.6-.8-5.3-7.9-10.6-4-2.9-5.3-4.3-4-4.3 3.3 0 11.1-3.1 11.7-4.6.5-1.3-3.3-4.4-6.9-5.8-.5-.2 1.3-2.3 4-4.7 2.8-2.4 7.7-6.9 11-10 5.6-5.2 7.4-6.8 15-13.2 1.7-1.4 2.7-2.9 2.3-3.3-2.3-2.2-23.3 7.6-47 21.9-9.7 5.9-17.9 10.7-18.3 10.7s-3.8 2.1-7.7 4.6c-7.9 5.1-13.7 7.9-33.8 16.3l-13.5 5.6.3-5.6c.3-5.1.1-5.8-2.4-7.8-2.7-2.2-7.8-2.8-8.9-1.2-.3.6.2 1.4 1.2 2 1.5.8 1.2 1.4-2.6 4.9-2.9 2.7-5 3.8-6.3 3.4-1.1-.3-2.8.4-4.2 1.7l-2.3 2.2-4.7-2.1c-6.6-2.8-15.6-5-20.7-5-4.9 0-26.3 3.7-29.4 5.1-1.5.7-1.1.8 1.8.6 4.4-.4 4.4 1.2.1 2.7-3.6 1.4-7.4 3.8-7.4 4.9 0 .4.9.3 2-.3 2.7-1.4 2.6.2-.2 2.6-3 2.7-7.8 13.7-7.8 17.9 0 3.7 1.3 4.6 2.5 1.8.6-1.3 1-.6 1.6 2.7 1 5.2 0 6.3-5.1 5.5-8.8-1.4-8.5-1.5-8.2 3.9.3 3.9-.1 5.3-1.8 7.1s-2 3-1.5 5.4.2 3.3-1.4 4.3c-1.2.7-2.1 2.2-2.1 3.3 0 1-.8 3.9-1.7 6.4-1.9 4.9-2.2 4.3 6.7 11.3l3.4 2.7-8.2 16.8-8.2 16.8-19.3.7c-17.6.6-33.1 2-38.2 3.4-1.5.4-2.1 0-2.1-1.3-.1-1-1.8-9-3.9-17.7l-3.7-16 2.8-2.3 2.9-2.3-2.2-1.8c-2.8-2.2-7.3-11.8-7.3-15.7 0-1.7.8-4.4 1.9-6 1-1.7 2.4-5.4 3.1-8.2l1.3-5.1 4.9 3.8c8.9 7.1 22.7 10.5 32.5 8.1 2.6-.7 7.8-2.8 11.6-4.7 3.7-1.9 7.5-3.4 8.4-3.4s3.8 1.3 6.5 3c2.6 1.6 5.2 3 5.7 3 1.3 0 8.1-8.1 8.1-9.5 0-.6-1.2-2.2-2.6-3.6-1.5-1.3-3.4-3.7-4.4-5.2-1.6-2.7-1.6-3.1.7-12 3.2-12.1 2.8-19.7-1.6-28.9-6.5-13.6-16.5-21.3-29.5-22.5-5.8-.5-6.9-.9-7.6-2.9-.5-1.2-1.5-2.6-2.3-3.1-.9-.5-1.9-3.7-2.6-7.8-2.2-14.6-6.4-22.9-16.5-32.9-13.3-13.1-32.6-18.8-47.6-14m132.4 118.8c-.3 1.5-.8 2.5-1.1 2.3-.2-.3-.1-1.7.3-3.1.3-1.5.8-2.5 1.1-2.3.2.3.1 1.7-.3 3.1M144 182c.9 1.7.7 2.2-1.6 3-3.4 1.3-4 .7-2.6-2.5 1.4-3 2.8-3.2 4.2-.5m28 87.4c0 .6-.5.5-1.2-.2-1.6-1.6-4.8-1.5-4.8 0 0 .9-.4.8-1-.2-.5-.8-1-3.1-1-5v-3.4l4 3.9c2.2 2.1 4 4.4 4 4.9m-3 25.6c1 0 2.2-.5 2.6-1.2 1.2-1.9 2.3 2 2.3 8.3.1 6.3-.6 7.7-2.5 5.1-1-1.4-1.6-1.5-3.2-.5-1.7 1-2.1.9-2.6-1-1.3-4.9-.2-15.9 1.2-11.8.2.6 1.2 1.1 2.2 1.1m5 43.4c0 6.7-.6 8.2-2.6 6.5-.9-.7-1.9-.7-3.3 0-1.8 1-2 .7-2.7-3.4-.9-6.5 0-9.3 3-8.8 1.3.3 2.7 0 3.1-.6 1.4-2.4 2.5.3 2.5 6.3"/><path d="M169.8 383.7c.7.3 1.6.2 1.9-.1.4-.3-.2-.6-1.3-.5-1.1 0-1.4.3-.6.6"/></svg>