<svg xmlns="http://www.w3.org/2000/svg" width="682.667" height="512" version="1.0" viewBox="0 0 512 384"><path d="M155 11.7c-5.3.9-16.4 5.7-20.8 9-16.4 12.3-26 26.9-29.1 43.9-2.4 13.4 3.8 29.3 16.1 41 4.1 3.8 9.7 8.2 12.5 9.7 6.6 3.5 16.6 5.7 26.6 5.7 8.1 0 10.2 1.3 4.1 2.5-2 .3-6.2 1.8-9.3 3.1-3.1 1.4-8.7 3.2-12.6 4-8.2 1.7-9.9 3.3-9 8.6.6 3.4.3 4.2-3.8 8.9-2.5 2.9-5.4 6.7-6.4 8.6-1.8 3.4-1.8 3.5.6 5.4 2.1 1.8 2.6 1.8 4.1.4.9-.8 2.1-1.5 2.6-1.5 1.8 0 9.3 7.1 12.5 11.7 3 4.3 3.1 4.9 2.6 11.3-.7 8.2-.1 11.3 2.2 10.5 1.4-.4 1.6 1.7 1.8 21.8.2 23.3 1.7 50.7 3.3 61.7.6 3.6 1.7 11.7 2.5 18 .9 6.3 2.2 14.9 3 19s2.2 12.2 3 18c.9 5.8 2.3 14.1 3.2 18.5.8 4.4 2 13.5 2.6 20.2.8 10.8 1.2 12.3 2.7 12.3 1 0 2-.4 2.2-.9.2-.4 1.3-1.2 2.6-1.5 1.6-.6 2.2-.3 2.2.8 0 1 .9 1.6 2.5 1.6 2.9 0 3.1-1.1 1-7-1-2.7-1.7-9.2-1.9-17.4-.3-9.7-.9-14.8-2.4-19.6-1.2-3.6-2.6-11.9-3.2-18.5-1.2-12.8-1.5-14.7-3.6-21.4-.8-2.4-1.9-10.7-2.4-18.5-.5-7.7-1.4-15.5-2.1-17.1-.6-1.7-1.3-8.9-1.4-16.5-.1-7.4-.5-16.7-.9-20.5l-.7-7 3.9 8.1c8.5 17.5 19.5 22.9 57.1 28 8.9 1.2 13.1 2.2 13.1 3 0 .7-.4 1.5-.9 1.8s-1.4 2.8-2.1 5.5c-.7 2.8-2.2 5.9-3.7 7.2-3.8 3.6-11 14-13.2 19.2-4.6 10.7-5.6 19.5-5.6 48.2 0 14.8.4 30.5.8 34.8l.9 7.7h79.7l-1-3.3c-.5-1.7-1.2-8.6-1.6-15.2-.6-13.8-.1-16.1 6.8-28 4.6-8.1 6.5-9.5 5.5-4-1 5.1.1 4.3 3.1-2.2l2.6-5.6 1.4 2.7c1.3 2.5 8.3 44.2 8.3 49.8 0 6.1-1.5 5.8 30.7 5.8h29.5l-.7-4.3c-1.8-10.4-10.1-30.2-18.1-42.8-3.2-5.1-3.1-8.4.7-28.7 6.8-37.3 11.1-53.2 19.1-70.5 2.9-6.2 4.8-8.4 4.8-5.5 0 .9.3.8 1-.2 1-1.6 1.2-1.2 2.4 4.3.7 2.9 3.3 4.7 4.5 3 .3-.6 1.6-1.5 2.9-2.2 1.2-.6 2.2-1.9 2.2-2.7s.5-1.2 1.1-.9c.5.4 2.1-.4 3.4-1.7 1.3-1.2 4-3.6 6-5.3 1.9-1.6 3.5-3.4 3.5-4 0-.5 1.6-2.3 3.5-3.8s3.5-3.4 3.5-4.2c0-.9 1.2-2.5 2.6-3.8 1.4-1.2 3.5-4.2 4.6-6.7s2.5-4.8 3-5.1c1.4-.9 5.7-13.6 6.4-19 .4-3 .2-6-.5-7.8-1.4-3.3-7.9-8.2-14.7-11.3-5.5-2.4-11.9-1.9-19.4 1.3-4.4 1.9-4.6 1.9-8.4.1l-3.8-1.9 2.8-1.8c1.5-.9 9.1-5.6 16.8-10.2 7.8-4.7 16.2-10 18.8-11.9l4.7-3.3 4.3 2.4c5.5 3.1 14.1 3.4 19.6.6 2-1 6.4-2.2 9.7-2.6 8.3-.9 9.5-1.4 9.5-3.5 0-2.3-6-8.3-11.7-11.7-2.4-1.4-4.3-2.7-4.3-3s1.9-.3 4.3-.1c2.7.3 5.8-.2 8.7-1.5l4.5-1.9-2.6-2.1c-1.4-1.2-3.4-2.7-4.4-3.2-1.6-1-.9-1.8 5.1-6.5 3.8-3 8.3-6.7 9.9-8.2 1.7-1.6 6.2-5.2 10.2-8.1 4-2.8 7.5-5.8 7.8-6.6 1.8-4.5-24.4 5.8-47.7 18.7-9 5-18.5 10-21.1 11.1-2.7 1.2-6.7 3.4-9 4.9-5.3 3.7-15.2 8-30.3 13.3-6.5 2.3-14.9 5.6-18.6 7.3-7.2 3.4-8.7 3.4-4-.1 4-3 6.5-8.7 5.8-12.9-.8-4-4.8-7.4-8.7-7.4-3.3 0-4.6 1.5-2.4 2.8 2.4 1.3-6 9.4-9.1 8.6-2.3-.6-5.4 1.8-5.4 4.2 0 1.8.1 1.8-6.2-.7-13.3-5.3-21.9-6.2-33.3-3.4-3.3.8-7.7 1.4-9.7 1.5-4.4 0-6 1.7-2.1 2.2 2.7.4 2.7.5-1.2 2.1-2.2 1-5.3 2.4-7 3.2l-3 1.5 3.3-.3 3.3-.4-3.5 3.6c-4.1 4.2-7.6 11.6-8.1 17.2-.4 4-.3 4 1.9 2.6 2.2-1.5 2.2-1.4 1.8 1.5-.3 2.1-.1 2.9.7 2.4 1.4-.9.2 2.6-1.3 3.6-1.7 1.2-5.5.9-8.5-.6-4-2.1-5.4-.8-4.6 4.5.6 3.7.3 4.7-1.4 6.3-1.3 1.2-2.1 3.1-2.1 5.3 0 2.1-.6 3.6-1.5 3.9-.8.4-1.5 1.8-1.5 3.3-.1 1.4-.7 3.7-1.5 5.1-2.5 4.4-1.8 6.3 4.1 11.5l5.6 5.1-6 11.9c-3.2 6.6-6.4 11.9-6.9 11.8-19.5-4-43.6-7.3-53.8-7.3-10.8 0-10.6.1-15-10.8-2.1-5.3-6-14.4-8.7-20.1-2.6-5.6-4.8-10.8-4.8-11.3s1-1.8 2.1-2.7c2.1-1.7 2.1-1.8.3-3.4-5.5-5-8.5-8.5-9.5-11-1-2.4-.9-3.1 1.1-5.2 2.6-2.8 4.9-8.2 5.7-13.2l.5-3.2 4.7 4.7c5.6 5.9 13.7 10 22.6 11.5 5.6 1 7.6.9 13.2-.6 3.6-.9 8.7-2.8 11.5-4.2 2.7-1.4 5.5-2.5 6.2-2.5s3.5 1.6 6.2 3.5 5.4 3.5 6 3.5c1.2 0 8.4-7.5 8.4-8.8 0-.4-1.8-2.9-4-5.6-4.6-5.5-4.8-6.7-2-13.1 1.1-2.5 2.5-7.4 3.1-10.9 2.3-12.2-3.5-27.6-13.6-36.5-4.7-4.1-8.9-5.9-17.5-7.5-5.1-1-6.4-1.6-6.2-2.9.1-.9-.6-2.2-1.8-2.9-1.3-.8-2-2.4-2-4.3-.1-7.2-3.1-19.3-6.4-26-9.8-19.5-33.5-33-52.6-29.8m-18.6 141.9c1.1 2.9.6 4.2-2 4.8-3.6.9-3.9.3-1.8-3.3 2.1-3.5 2.9-3.8 3.8-1.5m20.1 50.1c.5 1.7.2 2.3-1 2.3-1.9 0-3-2.4-2.1-4.7.8-1.9 2.1-.9 3.1 2.4m1.3 15.4c-.2 3.2-.8 4.5-2 4.7-1.5.3-1.8-.4-1.8-4.6 0-3.1.5-5.2 1.3-5.5 2.1-.8 2.8.8 2.5 5.4m1.2 18.2c0 4.9-.2 5.3-2.5 5.5-2.4.2-2.5-.1-2.5-5.3s.1-5.5 2.5-5.5 2.5.3 2.5 5.3m.2 18.3c.5 3.3.3 5.1-.5 5.6-2 1.2-2.7-.2-2.7-5.8 0-7.1 2.2-6.9 3.2.2m2.8 18.8c0 4.5-.3 5.5-2 5.9-2 .5-2.3.1-3.5-6-.8-4-.1-5.3 3.1-5.3 2.2 0 2.4.3 2.4 5.4m1.1 15.7c1.2 4.3 1 7.9-.5 7.9-1.8 0-2.6-2.2-2.6-7.2 0-4.4 2-4.9 3.1-.7m4.4 21c.8 5.6.8 5.4-2.2 6.3-1.9.6-2.2.2-2.8-4.5-.5-3.9-.4-5.4.6-6 2.8-1.7 3.7-.8 4.4 4.2m1.9 17c1 5.2.7 7.9-.9 7.9-.9 0-1.6-1.4-2-3.8-.3-2-.8-4.5-1-5.5-.2-1.1.3-1.7 1.5-1.7s2 1 2.4 3.1m4 17.1c1.1 4.4.7 8.6-1.1 9.2-2.2.9-3-.1-4.2-5.2-.8-4-.7-4.4 1.2-5.2 3.2-1.3 3.4-1.2 4.1 1.2m1 18.4c1.2 3.1.7 10.4-.8 10.4s-2.6-3-2.6-7.6c0-4.3 2.1-6.1 3.4-2.8"/></svg>