<svg xmlns="http://www.w3.org/2000/svg" width="682.667" height="512" version="1.0" viewBox="0 0 512 384"><path d="M144.4 5.6C134.3 17 128 30.7 128 41.5c0 11.7 7.2 27.6 17 37.2 8.8 8.7 13.7 11.1 30.5 14.9 2.8.6 2.7.8-3 2.5-3.3 1-8.5 1.9-11.5 1.9-8.1 0-9.9.8-11.5 4.7-.8 2-1.5 4.3-1.5 5.2s-2.9 4.4-6.4 7.9c-6.4 6.2-8.4 10.5-6.4 12.9 1.4 1.8 2.8 1.6 5.1-.4 1.8-1.7 2-1.6 4.8 1.7 1.5 1.9 2.9 4 2.9 4.5 0 .6 1 2.6 2.3 4.5 4.2 6.4 6 12.4 4.8 16.7-1.6 5.8-1.4 9.6.4 8.9 2.7-1 2.6 1.7-.5 13.7-1.7 6.5-3.1 14.5-3.1 17.8-.1 3.3-1 9.2-2.1 13.2-4.3 16.2-4.8 18.4-4.8 23.2 0 2.7-.7 7.7-1.6 11-.8 3.3-2.2 8.5-2.9 11.5-.8 3-1.7 9.5-1.9 14.5-.3 4.9-1.1 12.2-2 16.1-2.3 10.7-1.5 52.2 1.3 61.9 1 3.8 2.4 10.6 3.1 15 .6 4.4 2 11 3.1 14.7l2 6.8h7.7c7.3 0 7.8-.1 8-2.3.2-2.7-2.3-10.6-5.3-16.7-2.7-5.4-3.6-10.1-4.1-19.7-.2-3.9-1-9.8-1.8-13-2.3-8.9-1.5-48.4 1.3-61.3 1.1-5.2 2.1-12.2 2.1-15.5 0-3.4 1.4-11.3 3.1-18 1.6-6.6 3.4-15.8 3.9-20.5s1.8-11.9 2.9-16c1-4.1 2.2-8.7 2.5-10.3.9-3.9 2.1-3.4 3.5 1.5.7 2.4 3 7.9 5 12.3 7.8 16.5 16.5 21.8 65.4 40 7 2.6 12.7 5.1 12.7 5.4 0 .9-4.9 6.1-8 8.6-3.9 3.1-5 5-6.4 10.2-.8 2.8-3.4 7.6-6.5 11.6-2.8 3.8-6.1 8.7-7.2 10.9-3.4 6.7-5.9 18.7-6.6 31.3-.5 11 1 49 2.4 57.7l.6 3.8h78.9l-.6-4.3c-.3-2.3-.9-9-1.2-14.8-.7-11.5.6-17.5 6-27.8 2.7-5.3 1.8-6.4 10.1 12.4 3.2 7.1 7 15.3 8.6 18 1.7 3 3.1 7.4 3.5 10.8l.7 5.7h40.9l-.7-2.7c-.4-1.6-.7-22.4-.8-46.3 0-42.9 0-43.7 2.6-58 2.8-15.1 7.6-29.5 14.2-42.5l3.6-7-.6 5.1c-.6 5.4.1 8.8 1.6 7.9.4-.3 1.1 1 1.5 2.9.9 4.9 2.8 6.3 6.1 4.5 1.4-.8 2.8-2.2 3.1-3.1.2-1 .9-1.5 1.4-1.2s1.7-.1 2.6-.9c4.2-3.6 17.2-17 17.2-17.7 0-.4 1.2-2 2.8-3.7q3.6-3.9 9.9-14.7c4.2-7.1 7.3-18.8 6.5-24.3-.4-2.9-11.5-13.1-16.7-15.4-4.5-2.1-12.6-2.5-17.3-.8-2.7.9-3.5.8-5.6-.9l-2.5-1.9 9.7-4.4c5.3-2.4 14.2-7.1 19.7-10.4 9.2-5.5 10.3-5.9 12.5-4.8 3.5 1.8 7.8 1.6 14.1-.6 3.1-1 8.9-2.2 13-2.6 4-.4 7.7-1.2 8.1-1.8 1.1-1.8-2.8-6.2-7.7-8.8-2.5-1.3-4.5-2.7-4.5-3.1s1.7-1 3.8-1.4c5.9-1.1 7.5-2.2 6.8-4.9-.5-2.1.2-3 4.7-6.4 3-2.2 8.2-5.7 11.7-7.8s6.7-4.9 7.1-6.1c.9-2.3.8-2.3-4.9-1.7-8.1 1-22.7 5.8-36.6 12.1-6.5 3-12.5 5.4-13.3 5.4-2.4 0-13.6 4.9-19.5 8.5-3.1 2-7.6 4.2-10 5.1-5.4 1.9-28.6 7.3-29.2 6.7-.2-.2 0-2 .6-3.9.5-1.9.7-4.3.3-5.3-.4-1.2.2-2.1 2.1-3 12.3-5.6 16.2-19.4 6.8-23.8-2.9-1.4-3.7-1.5-6-.3-2.4 1.3-2.4 1.5-.8 2.7 1.7 1.2 1.7 1.4 0 3.2-3.2 3.5-9.9 7.6-11.8 7.3-2.4-.4-5.8 2.5-5.8 4.8 0 2.9-3.8 5.4-8.5 5.5-2.7 0-5.1.7-6.3 1.9-2 1.7-2.3 1.7-9.9-1-8.7-3.1-17.1-3.6-26.3-1.7-3 .6-8.2 1.5-11.5 1.9-4.3.5-5.4.9-4 1.4 1.8.7 1.7.9-1 2-6.2 2.5-7 2.9-5.7 2.9.7.1 1 .5.7 1.1-.3.5-.1 1 .6 1s.4.9-.8 2.3c-1.2 1.2-3.5 4.5-5.2 7.4-2.7 4.4-3 5.5-2.1 7.4.7 1.2.8 1.9.2 1.5s-.8.2-.5 1.4c.3 1.1.9 2 1.4 2s.6 1.5.4 3.2l-.5 3.3 1.4-3c.9-1.7 1.5-3.6 1.6-4.3.1-2.6 2-1 2 1.7 0 6.5-4.6 8.6-14.9 6.6l-4.4-.8.6 4.5c.5 4 .3 4.8-1.9 6.9-1.9 1.8-2.4 3.1-2 5.1.3 1.7 0 2.8-.9 3.2-.8.3-1.5 1.2-1.5 2.1 0 .8-1.1 3.7-2.5 6.4-1.4 2.6-2.3 5.5-1.9 6.4.3.9 3.7 4.2 7.5 7.3s6.9 6.4 6.9 7.3c0 2.3-5.8 14.3-6.7 13.8-19-9.8-46.3-19.8-65.5-24.1-2.1-.5-2.8-1.2-2.8-3 0-3-2.7-10.7-10.2-29.4l-6.1-15.2 2.3-2.5c1.3-1.4 1.8-2.5 1.2-2.5-1.5 0-6.7-5.7-8.8-9.5-1.6-3-1.6-3 2.4-7.2 2.2-2.3 4.5-5.4 5.2-7l1.3-2.9 6.7 6.8c11.7 11.8 24.2 15.4 38.8 10.9 3.9-1.1 7.7-2.1 8.5-2.1s3.5 1.8 6 4 5.2 4 6.1 4c2.6 0 8.6-6 8.6-8.6 0-1.4-1.1-4.2-2.5-6.4s-2.5-4.6-2.5-5.4 1.9-5 4.2-9.2c3.8-7.2 4.2-8.6 4.6-16.6.5-9.7-.7-15.6-4.6-22.8-4.6-8.5-11.8-14.4-20.9-17.1-2.8-.8-4.5-1.9-4.9-3.3-.3-1.2-1.2-2.8-2-3.6-1-1.2-1.1-3-.4-8 2-13.8-2.6-28.4-13.4-42.3C222.4.1 219.4 0 185.8 0h-36.4zm3.6 117.3c0 2.4-.3 2.8-2 2.4-2.4-.6-2.5-1.1-.3-3.5 2.1-2.4 2.3-2.3 2.3 1.1m229.7 11.6c-.4.8-1.1 1.5-1.7 1.5-.7 0-.7-.6 0-2.1 1.3-2.3 2.6-1.9 1.7.6m-214.3 37.7c.9 3.4.8 3.8-.9 3.8q-1.5 0-1.5-3c0-3.5 1.5-4 2.4-.8m-.6 14.9c.6 3.3-1.6 6.9-4.3 6.9-2.6 0-2.7-.4-.8-7.3.6-2.2 4.6-1.9 5.1.4m-4.7 17.1c.2 2-.3 6.2-.7 7-.3.4-1.1.5-2 .1-2.1-.8-.6-8.3 1.7-8.3.5 0 .9.6 1 1.2m-2.1 19.7c0 4.5-1 6.1-3.6 6.1-2 0-2.4-.5-2.4-2.9 0-4.5 1-6.1 3.6-6.1 2 0 2.4.5 2.4 2.9m-4.5 18.8c-.9 4.7-1.2 5.3-3.2 5.3-1.2 0-1.4-.7-.8-3.7.9-4.7 1.2-5.3 3.2-5.3 1.2 0 1.4.7.8 3.7m-1.5 15.7c0 .7-.3 2.8-.6 4.5-.6 2.6-1.1 3.1-3.5 3.1-3.1 0-3.3-.6-2.3-5.9.6-2.6 1.1-3.1 3.5-3.1 1.8 0 2.9.5 2.9 1.4m-4.4 21.8c-.4 2.2-.9 4.5-1.2 5-1.1 1.7-2.4.7-2.4-2 0-4.3 1.1-7.2 2.7-7.2 1.3 0 1.4.8.9 4.2m.3 19.8c.1 3-1.5 5-4.1 5-1.5 0-1.8-.8-1.8-4.9 0-4.4.3-5 2.3-5.3 2.4-.3 3.5 1.2 3.6 5.2m-2.1 19.5c-.4 5.6-2.8 5.8-2.8.2 0-2.4.3-4.7.7-5.1 1.3-1.3 2.4 1.2 2.1 4.9m2.2 17.1c1.7 4.4 1.3 6.4-1.5 6.4-2 0-2.5-.6-3.1-3.4-.3-1.9-.3-3.9.1-4.5 1.1-1.9 3.5-1.2 4.5 1.5m2.2 20.8c.2 1.7-.2 3.1-.9 3.3-.9.3-1.3-.8-1.3-3.8 0-4.7 1.6-4.3 2.2.5m6.4 17.2c1.8 4.2 1.5 4.7-1.9 3.9-1.6-.4-2.9-1.7-3.6-3.5-.8-2.6-.7-2.9 1.2-3.3 1.2-.2 2.3-.5 2.5-.6.2 0 1 1.5 1.8 3.5"/></svg>