<svg xmlns="http://www.w3.org/2000/svg" width="682.667" height="512" version="1.0" viewBox="0 0 512 384"><path d="M0 192v192h307.8l-2.4-5.8c-1.3-3.2-5.7-18.8-9.9-34.6-10.4-39.2-16.8-59.4-24.1-75.3-6.2-13.8-9.4-16.5-20.9-17.8-7.6-.9-24.7-5.1-28.4-7-3.8-1.9-17-16.1-22-23.6l-4.1-6.1V202c0-13.1.3-13.7 8.5-21 2.2-1.9 6.6-6 9.8-9 5.6-5.3 5.8-5.7 4.6-8.3-1.8-3.9.2-5.8 2.7-2.5l1.8 2.5 6.6-4.7c3.6-2.6 8-5.2 9.7-5.8 5.6-1.8 16.1-.9 22.4 2 10.3 4.7 22 19 26 31.7 4.4 14.4 3.5 23.3-3.2 30.6-2.1 2.3-3.9 4.4-3.9 4.6 0 .3 3.7 4.3 8.3 8.9 10.4 10.7 13 14.6 23.7 35.3 8 15.4 8.8 16.6 9.3 13.8 1-4.8 5.1-10.4 16.6-23 5.9-6.4 11.3-12.6 11.9-13.8.7-1.2 1.2-4.7 1.2-7.9 0-12.2 1.8-18 8.6-28l6.3-9.3-4.7-5.3c-2.6-2.9-5-5.5-5.4-5.6-1.3-.6-.9-3.6.8-6 1.4-2 1.3-2.5-.2-5.7-2.2-4.7-3.5-5.3-5.3-2.5-.9 1.3-2.4 3.3-3.4 4.4-1.8 2.1-1.8 2-1.4-2.7.3-2.6.3-4.7 0-4.7-.2 0-3 1.3-6.2 3-8 4-14.6 5.6-17.5 4.2-1.3-.6-3.9-3.9-5.9-7.4-2.2-3.9-4.6-6.9-6.2-7.6-1.8-.9-2.6-1.9-2.5-3.5.4-4 0-4.5-4.5-6.6-3.3-1.5-4.6-2.8-5.1-4.8-1.7-7.7-2.4-8.9-7.7-11.9-6.5-3.7-7.4-7.1-2.8-10.5 1.7-1.2 2.8-2.6 2.5-3.1-.7-1.1-20.5-11.2-22-11.3-.6 0-1.9-.7-2.9-1.5s-3.2-2.4-5-3.5-6.1-3.9-9.6-6.2c-3.5-2.4-7.2-4.3-8.2-4.3-2.9 0-17.8-10-19.7-13.3-2.4-4-19.8-15.9-22.1-15.2-1.2.4-3.2-.7-5.7-3-2.2-1.9-4.4-3.5-5-3.5-1.5 0-21.2-15.8-21.2-16.9 0-.5-1.6-2.9-3.6-5.2-3.1-3.7-3.4-4.5-2.1-5.3s1.2-1.4-1-4.3c-2.3-3-3-3.3-7.7-3.3-4.9 0-5.5-.3-10-4.9-3.7-3.7-4.7-5.4-4.2-6.9s.2-2.2-1.2-2.6c-2.2-.7-5.8-7.9-4.8-9.5.5-.8-18.6-1.1-67.3-1.1H0zM499.4 3.8c-.7.4-1.5 3.4-1.8 6.7-.4 3.3-.9 7.4-1.2 9.2-.5 3.4-1.7 2.9 11.6 4.9l4 .6V3h-5.7c-3.2 0-6.3.4-6.9.8m-128.5 372-8.6 7.7 7.4.3c4.1.2 10.5.2 14.3 0l7-.3-5.1-7.8c-2.9-4.2-5.4-7.7-5.8-7.6-.3 0-4.5 3.5-9.2 7.7"/></svg>