<svg xmlns="http://www.w3.org/2000/svg" width="682.667" height="512" version="1.0" viewBox="0 0 512 384"><path d="M155.4 5.7c-2.1 7.1-1.4 16.2 2 26.2 6 17.6 16.6 28.5 34 34.7 7.6 2.7 7.8 2.8 5 3.7-1.6.4-8.3.8-14.9.8s-12.8.2-13.7.5c-1 .3-2.1 2.4-2.9 5.3-.9 3.8-1.9 5.2-4.4 6.6-1.8.9-5.4 3.6-8 5.9-4.3 3.8-4.7 4.4-3.6 6.4.6 1.2 2 2.2 3.1 2.2 2.6 0 7 5.8 9.7 12.7 2.8 7.3 2.8 9.7.2 17.8-1.2 3.6-1.9 6.8-1.6 7.2.4.3 1.9.1 3.3-.6 1.5-.6 2.9-.9 3.2-.7.3.3.4 3.5.4 7.2-.1 3.6.5 8.4 1.2 10.7 2.4 7.4 2.6 12 .5 14.6-2.6 3.1-2.8 19.5-.3 20.9.9.5 1.7 2.9 2.1 6.5.5 4.7.3 6.1-1.2 7.8-2.7 2.9-2.4 18.2.4 22 1.1 1.4 2.2 5.1 2.6 8.3.6 4.9.5 5.9-1.1 7-1.5 1.2-1.8 2.7-1.7 10.6.1 7.7.4 9.7 2.2 12.1 2.8 3.7 3 12.5.4 14.5-2.5 1.7-3.2 19.2-1 22.4 1.9 2.7.7 8.7-2.2 11-3.4 2.6-5.6 16.2-3.2 19.9 1.5 2.4-1.5 7.1-4.4 7.1-1.8 0-3.1 1.1-5 4.5-3.6 6-5 11.2-3.5 13s-1.7 7.5-4.2 7.5c-.9 0-2.9.5-4.3 1.2-2.3 1-2.9.9-5-1.5l-2.5-2.6-7.2 7.2c-4 4-9.2 9.5-11.5 12.2l-4.2 5 19.6.3c10.8.1 19.8.1 20-.2.2-.2-.2-1.4-.9-2.5-1-1.7-1-2.5-.1-3.9 3.8-5.3 4.5-7.4 3.3-9.8-1.1-1.9-.9-2.7.9-5.3 1.8-2.5 2.9-3.1 6-3.1 3.3 0 4.2-.5 6.3-3.8 1.4-2 3.1-5.4 3.7-7.5 1.1-3.3 1.1-4.1-.4-5.7-1.5-1.7-1.6-2.4-.5-5 .9-2.1 1.9-3 3.5-3 3.5 0 5.1-2.2 6.4-8.9 1.1-5.8.8-10.4-1.1-12.8-1.7-2.1.2-10.1 2.8-11.8 2.3-1.4 2.4-2.1 2.4-11 0-8.2-.3-9.8-2-11.5-2.9-2.9-2.9-14 0-15.8 1.7-1 2-2.3 2-8 0-7.8-1.5-14.2-3.7-15.9-2.3-1.8-3-11.8-1.1-14.1 2.2-2.5 2.6-6.2 1.8-14.9-.5-5.4-1.2-7.8-2.4-8.5-1.1-.6-1.6-2.3-1.6-4.9v-4.1l4 5.1c5.3 6.7 13.5 13.4 36.7 29.9l19.2 13.6-2.3 3.1c-23 30.2-39.3 56.9-44.4 72.5-6 18.2-4.5 29.9 5.9 47.2 3 5 4.3 8.4 5.1 13.7l1 7.1h13l-2.6-3.3c-1.4-1.7-3.4-4-4.4-5.1-1.2-1.4-1.4-2-.4-2.3.6-.3 1-.8.7-1.3s1.1-2.9 3-5.4c1.9-2.6 3.5-5 3.5-5.5s.6-1.1 1.3-1.4c.8-.3 2.2-2.2 3.2-4.3 2.4-5.2 3-3.6 5.1 13.9l1.7 14.7h63.8c35.2 0 63.9-.2 63.9-.4s-.6-2.1-1.4-4.3c-.9-2.6-1.1-5.2-.6-7.4l.7-3.4.8 3c.4 1.6 1.7 5.1 2.8 7.7 1.6 3.9 2.4 4.8 4.5 4.8 2.4 0 2.5-.1 1.8-6.3-1.1-10.4-5.5-38.3-8.9-56.2-2.8-15-3.2-19-3.2-34.6 0-18.6.5-20.9 4.7-20.9 2 0 6-2.8 12.5-8.8 1.9-1.7 3.9-3.2 4.3-3.2s2-1.7 3.6-3.8c1.5-2 3.3-4.2 3.9-4.7 2.8-2.5 7.8-9.8 10.1-15 2.6-5.5 2.6-6.2 2.2-19.9-.4-9.3-1.1-15.6-2.1-18.6-.9-2.6-1.3-4.8-.8-5.3 1.1-1.1 21.1-9.7 22.5-9.7 1.2 0 15 10.3 19.9 14.9 5.2 4.9 4.6 3-1.8-5.6-5.6-7.4-6-8.2-2.5-6.1 2.4 1.5 3.5.6 2.2-1.8-.8-1.4-.6-2.5.8-4.4 5.9-8.5 1.7-14.2-12.8-17-3.4-.7-9.2-1-12.7-.8-4.2.4-7.9.1-10.5-.8-2.9-1-5.2-1.1-8-.5-2.1.5-4.1.7-4.3.5s-2.9.9-5.9 2.5c-4.1 2.2-5.8 2.7-6.7 1.8-1.7-1.7-1.4-2.3 3.8-7.5 3.7-3.7 5.1-6 6-9.9 1.1-4.4 1.7-5.3 4.3-6.2 7.5-2.6 13.7-10.5 13.8-17.3 0-3.8 5.2-9.4 9.3-10.2 5.1-1 12.1-5.9 13.9-9.7 1.7-3.7 3.2-19.9 1.9-19.9-.5 0-1.4.6-2 1.4-.9 1-2.4 1.3-4.9.9-3.7-.6-3.7-.6-1.9 1.4s1.7 2.1-3 5.6c-10.6 7.7-17.7 11.6-19 10.5-2-1.6-4.6-.1-4 2.3.5 1.7-1.1 3.1-9.1 8.2-5.3 3.4-10.1 6-10.7 5.8-.5-.2-2.2-.6-3.7-.9-3.6-.6-8.2 3.9-7.5 7.4.4 2.1-.6 3.2-6.4 7.4l-6.8 4.9-5.7-3.4c-3.1-1.9-9.2-4.6-13.6-6.1-8.2-2.7-11.5-2.8-37.4-1.1-3.5.2-4.2 2.7-.8 2.7 1.3 0 2.5.4 2.8.8.6 1-6.3 5.2-11.4 6.9-1.9.6-2.9 1.2-2.2 1.2 2.3.2 1.2 2.6-3.8 8.8-4.5 5.6-6.8 9.5-3.8 6.5 2.2-2.2 3.2-1.2 1 1.1-2.7 2.8-2.8 4-.4 3.3 1.5-.5 1.7-.1 1.4 2.9-.5 3.9-1.7 4.3-6.3 1.9-4.6-2.3-6.3-1.2-5.6 3.8.5 3.5.2 4.4-1.9 6-1.4 1.1-2.4 3-2.4 4.4s-.7 2.7-1.5 3c-.8.4-1.5 1.6-1.5 2.8 0 1.1-.9 3.4-2 5.1-3.5 5.3-2.9 7.5 5.2 18.7 4.8 6.6 4.9 6.8 3.2 9.3-.9 1.4-1.9 2.5-2.2 2.5-.2 0-4.3-2.9-9.1-6.4-12.5-9.2-25.6-17.7-35.4-22.7l-8.5-4.3-.6-7.5c-.4-4.2-2.3-15.2-4.2-24.5-4.5-21.7-4.4-20.6-1.5-20.6 2.5 0 3.6-1.6 1.6-2.3-1.7-.7-7.5-11.9-7.5-14.6 0-1.2 1.1-2.3 3-3 1.7-.5 3-1.5 3-2 0-.6 1.7-2.6 3.7-4.5l3.7-3.4 2.1 4c2.7 5.4 11.1 13 18.3 16.5 5.4 2.6 6.4 2.8 17.4 2.6l11.7-.2 3.6 5c1.9 2.7 4.2 4.9 5 4.9 1.9 0 9.1-3.6 10-4.9.3-.6-.5-3.7-1.9-6.9l-2.4-6 5.9-7.8c7.6-10.1 9.3-15.5 8.7-27.9-.3-7.9-.8-10.1-3.6-15.8-3.5-7-8.3-11.9-15.7-15.8-3.6-1.9-4.5-2.9-4.5-5.1 0-1.5-.4-2.9-.9-3.2s0-3.6 1.1-7.3c2.4-8.2 2.8-20.1.9-26.6L258.7 0H157.1zm6.8 88.7-.4 4.4-2.9-1.1c-1.6-.6-2.9-1.4-2.9-1.8 0-.6 5.7-5.9 6.3-5.9.1 0 .1 2-.1 4.4m254.8 4c0 .2-.8 1-1.7 1.7-1.6 1.3-1.7 1.2-.4-.4s2.1-2.1 2.1-1.3m-25.6 27.3c-2 2.6-6.4 6.1-6.4 4.9 0-.3 1.6-2.4 3.6-4.6 4-4.4 6-4.6 2.8-.3m-18.1 21.6c-1 1.4-2.6 3-3.7 3.7-1 .6-.3-.6 1.5-2.8 3.6-4.3 5.3-5 2.2-.9m-199.8 33.4c-1.2 3.2-2.5.8-2.4-4.5l.1-5.7 1.4 4.5c.8 2.5 1.2 5.1.9 5.7m4 26.3c1.8-1.5 2.8 1.8 2.3 8-.3 4.2-.4 4.3-4 4.4s-3.6.1-4-4.4c-.2-2.5-.2-5.5 0-6.7.4-1.9.7-2.1 2.4-1.2 1.4.7 2.3.7 3.3-.1m-.8 26.7c-.2 1.6-.4.5-.4-2.2 0-2.8.2-4 .4-2.8.2 1.3.2 3.5 0 5m4.7 12.7c.3 1.2.6 4.1.6 6.6v4.5l-3.7-.1-3.8-.1-.5-6.2c-.3-3.5-.4-6.3-.3-6.4s1.7-.2 3.7-.3c2.7 0 3.6.4 4 2m.6 41.1c0 5.2-.1 5.5-2.4 5.5-1.4 0-2.8.6-3.2 1.2-1 1.6-2.2-2.2-2.3-7.4-.1-3.4.1-3.7 3.2-4.1 1.7-.2 3.5-.5 4-.5.4-.1.7 2.3.7 5.3m-4.6 33.2c-.5 2.5-1.2 3.2-3.5 3.5-3.4.5-4.3-.4-3.5-3.6.4-1.8 1.1-2.2 3-1.9 1.3.3 2.7 0 3.1-.7 1.1-1.8 1.6-.6.9 2.7M165 347c1.6 0 1.7.3.7 2.4-.7 1.5-1.4 2-1.9 1.3-.5-.8-1.1-.7-2.1.2-2.4 1.9-3.1-.6-1.1-3.7 1-1.6 1.9-2.2 2.2-1.4.2.6 1.2 1.2 2.2 1.2m3.7 1.2c-.3.8-.6.5-.6-.6-.1-1.1.2-1.7.5-1.3.3.3.4 1.2.1 1.9M148.5 372c.3.5.1 1-.4 1-.6 0-1.1-.5-1.1-1 0-.6.2-1 .4-1 .3 0 .8.4 1.1 1m2.1 1.8c-1.8 1.6-1.8 1.6-.6-.6.6-1.3 1.4-2.1 1.8-1.8.3.4-.2 1.4-1.2 2.4"/></svg>