<svg xmlns="http://www.w3.org/2000/svg" width="682.667" height="512" version="1.0" viewBox="0 0 512 384"><path d="M156.1 4.4c-1.5 6.2-1.4 17 .4 23.6 2 7.7 7.7 18.6 12.5 24.2 5.5 6.3 14.2 12 22.9 14.8 4.9 1.6 6.9 2.6 6.2 3.3-.6.6-7 1.1-15.3 1.1-7.9.1-14.9.5-15.6.9-.6.5-1.7 2.8-2.3 5.2-.9 3.4-1.9 4.9-4.6 6.5-6.1 3.6-11.3 8.4-11.3 10.5 0 2.6 1.8 4.5 4.1 4.5 4.3 0 11.6 15.6 10.6 22.7-.3 2.1-1.3 6-2.2 8.6-1 2.6-1.5 5-1.2 5.4.3.3 2 .1 3.6-.5l3.1-1.1v8.8c0 6.1.4 9.3 1.5 10.7 1.6 2.1 2.1 12.4.6 12.4-3.2 0-4.2 20.1-1.1 22 2.1 1.3 2.7 12.5.7 14.4-3.4 3.5-3.3 19 .2 22.4 2.7 2.5 3.7 12.9 1.5 15.3-2.6 2.9-1.5 19.7 1.5 23.4 2.3 3 3 12.2 1.1 14.1-2.9 2.9-1.8 20.7 1.5 24.4 1.9 2.1.9 8.8-1.6 11.3-1.1 1-2 3.2-2.1 5s-.2 4.8-.4 6.7c-.1 1.9.5 5.4 1.3 7.7 1.6 4.8.5 8.6-2.5 8.1-2.7-.5-5.7 6.6-5.6 13.5.1 6.2-.7 7.1-3.1 3.2-.8-1.4-2.2-3.7-3.1-5.1l-1.6-2.6-3.3 3.7c-1.9 2-3.9 3.4-4.4 3.1-.5-.4-2.2 1.5-3.8 4.1-1.5 2.7-5.6 8.8-9.1 13.8l-6.3 9 23.2.3c12.8.1 23.4.1 23.6-.2.2-.2-1-2.5-2.6-5.2-1.7-2.6-3.1-6-3.1-7.4s-.5-3.1-1.1-3.7c-2.1-2.1 1.5-5.6 5.8-5.7 3.5-.1 3.8-.4 5.9-5.6 1.8-4.5 2.4-5.1 2.9-3.5.4 1.1 1.6 4.2 2.7 6.9 1.6 3.9 3.7 16.9 3.8 23.3 0 .9 2.2 1.3 7.6 1.3h7.6l-5.1-6.5c-2.8-3.5-5.1-6.8-5.1-7.1 0-.4 3.7-4.4 8.2-9 8.9-9.2 12.9-14.7 15.5-21.2.9-2.4 2-3.9 2.4-3.5.8.8 3.7 18.8 6 37.1l1.2 10.2h120.6l-.6-3.4c-.8-5 1.4-5.5 3.3-.7 1.4 3.5 2 4.1 4.6 4.1 3 0 3-.1 2.4-4.3-.3-2.3-1.1-8.9-1.6-14.7-1.1-11.1-4.3-38.2-6.1-51.4-1-7.3-.7-21 .7-37.8.6-6.8 2.2-9.6 5.4-9.5 1.9 0 7-3.2 7-4.4 0-.5.6-.9 1.4-.9 2.3 0 17.5-15.9 22.7-23.8 2.7-4.1 5.1-9 5.5-10.9 1.2-6.4-.2-30.4-2-34.7-.9-2.2-1.3-4.3-.9-4.7.8-.8 21.7-9.9 22.8-9.9 1 0 15.7 11.1 19.8 14.9 6.4 6.1 4 1.4-5.2-9.9l-3.5-4.2 3.2 1.6c4.4 2.3 5.8 2.1 3.9-.7-1.3-2-1.3-2.5.9-6.3 1.9-3.2 2.2-4.7 1.5-6.5-2.2-6-10.3-9.1-25.1-9.7-5.8-.2-13.8-.5-17.8-.7-6.4-.3-8 0-13 2.5-4.1 2-6.1 2.5-6.9 1.8-1.9-1.6-1.7-2 3.6-7.5 3.6-3.8 5.1-6.3 6.1-10.1 1-4.5 1.6-5.2 4.6-6.2 7.1-2.4 13.3-10.4 13.4-17.2 0-4.3 5-9.2 10.9-10.7 6.3-1.6 12.8-7.5 13.5-12.3 1.2-7.8 1.6-16.8.8-16.8-.5 0-1.5.6-2.1 1.4-.9 1-2.4 1.3-4.9.9-3.6-.6-3.7-.6-1.9 1.4 2.1 2.4 2.2 2.4-11.1 11.2-7.5 5-9.6 6-10.8 5.1-2.1-1.8-4.7-.4-4.1 2.1.5 1.7-1.1 3.1-9.4 8.5-8.2 5.2-10.3 6.2-11.9 5.4-1-.5-2.6-1-3.5-1-2.6 0-6.5 4.6-6.5 7.8 0 2.4-1.1 3.6-6.5 7.5L345 134l-5.7-3.4c-3.2-1.9-9.3-4.6-13.5-6.1-8-2.8-11.1-2.9-37.4-1.2-3.4.2-4.3 2.7-.9 2.7 1.2 0 2.5.3 2.8.6.9 1-7.9 6.4-11.5 7.1-2 .4-2.5.8-1.7 1.4 1 .6.3 2.2-2.6 6.4-6.3 8.8-7.1 10.2-5.5 8.7 2.4-2.1 3.4-1.3 1.3 1-3.3 3.8-3.9 5.2-1.5 3.9 2.9-1.5 2.8-1.5 2.4 2.4-.5 4-2 4.4-6.6 2-4.3-2.2-5.8-1.3-5.5 3.4.2 3-.3 4.6-2.5 7.1-1.5 1.8-2.5 3.9-2.2 4.6s-.2 1.8-1 2.4c-.8.7-1.4 1.9-1.4 2.7s-1.2 3.4-2.6 5.8c-1.6 2.9-2.3 5.2-1.9 6.5.3 1.1 3.3 5.6 6.6 10 5.8 7.9 5.9 8.1 4.3 10.6-.9 1.4-2.2 2.3-2.9 2.1-.6-.3-5.6-3.7-11-7.7-11.9-8.6-24.6-16.5-34.2-21.4l-7.1-3.5-.6-7.3c-.4-4-2.4-15.5-4.5-25.6-3.8-18.7-3.8-20.2.3-20.2 1.9 0 1.9 0-.1-2.3-2.7-2.9-7.3-11.7-7.3-13.9 0-1 1-2.3 2.2-2.9 1.2-.7 4.2-3.2 6.6-5.6 2.4-2.5 4.5-4.3 4.6-4.1.1.1 1.2 1.9 2.4 3.9 2.9 4.8 11.9 13.2 17.3 16 3.9 2.1 5.7 2.4 16.8 2.4l12.4.1 4 5.2c2.2 2.9 4.7 5.2 5.7 5.2 2.5 0 8.4-4.3 8.8-6.4.2-1-.6-4-1.7-6.7l-2.2-4.9 5.1-6.3c8.9-11 11.7-20.4 10-32.9-1.8-12.7-7-20.6-18.1-27.5-3.2-1.9-5.6-4-5.3-4.5.4-.6.1-2-.6-3.3-1.1-2-.9-3.7 1-10.7 1.8-6.6 2.1-9.9 1.7-16.3-.3-4.4-1-9.2-1.6-10.8L259 0H157.2zM163 95c0 3.9-.1 4-2.7 3.4-4.6-1.1-5.1-2.3-2-5 3.9-3.3 4.7-3 4.7 1.6m254 3.4c0 .2-.8 1-1.7 1.7-1.6 1.3-1.7 1.2-.4-.4s2.1-2.1 2.1-1.3m-24.4 25.3c-1.7 3.4-6.4 7.9-7.2 7-.5-.5 7.3-9.7 8.3-9.7.2 0-.3 1.2-1.1 2.7m-19.2 23.1c-.9 1.6-2.5 3.4-3.7 4.1-1.2.8-.7-.2 1.4-2.8 4-4.8 4.6-5.1 2.3-1.3m-200.7 34.4c-.7.4-1.5.8-1.9.8-1 0-1-5.6-.1-8.9.5-2.1.8-1.7 1.9 2.5.9 3.7.9 5.1.1 5.6m30.6 34c6.1 4.7 15 11.1 19.7 14.3s10 6.9 11.8 8.2l3.2 2.4-7.7 9.7c-4.2 5.3-8.5 10.6-9.6 11.7-8.9 9.6-31.6 42.7-33.8 49.2-1.7 5.3-3.5 4.1-3.1-2.1.3-3.8 1-6 2.3-7.2 1.4-1.3 1.9-3.1 1.9-6.9 0-7.6-1.8-15.8-3.7-17.3-2.5-1.8-3.1-13.3-.9-15.1 3.1-2.6 1.6-21.9-1.9-23.8-.8-.5-1.7-3.3-2.1-6.6-.6-4.8-.4-6.1 1.2-7.8 1.6-1.8 1.9-3.7 1.9-11 0-7.7-.3-9.1-2.3-11.2-1.5-1.5-2.2-3.6-2.2-6.1v-3.8l7 7.5c3.9 4.1 12.1 11.3 18.3 15.9m-27.4-7.5c1.7-.4 2.1.2 2.7 3.8.9 6.4 0 8.2-4.1 8.1l-3.5-.1v-6.9c0-6 .2-6.7 1.5-5.6.8.7 2.4 1 3.4.7m-.2 26.5c-.2 1.3-.4.5-.4-1.7-.1-2.2.1-3.2.4-2.3.2 1 .2 2.8 0 4m2.5 10.7c2.2-1.2 2.5-.5 3.4 6.9l.7 6.3-2.7-.7c-1.5-.3-3.2-.1-4 .5-1.1.9-1.5.5-2-2-.3-1.7-.6-5.1-.6-7.6 0-3.9.2-4.3 1.8-3.4 1.1.6 2.4.6 3.4 0m5.7 46.3c.1 2.9-.3 3.7-1.6 3.7-1-.1-2.8.2-4 .6-2 .6-2.3.4-2.3-2.1 0-1.6-.3-4.6-.6-6.6-.6-3.3-.5-3.6 1.4-3.1 1.1.3 2.9 0 3.9-.5 1.5-.9 1.9-.7 2.4 1.6.4 1.5.7 4.4.8 6.4M182 323c0 2-.6 3.3-1.7 3.7-1 .4-2.3 1.3-2.9 2.1-.9 1.3-1.1 1.3-1.6 0-1.1-2.8.3-6.5 3-7.5 1.5-.6 2.8-1.1 3-1.2.1-.1.2 1.3.2 2.9m-1 19.7c0 1.9-.3 2.4-1 1.7-.6-.6-.8-1.8-.4-2.7.9-2.4 1.4-2.1 1.4 1m-9.1 8.7c.9 1 .8 1.6-.4 2.6-1.3 1.1-1.5.8-1.5-1.4 0-3 .3-3.2 1.9-1.2m5.3 0c.7-.5.9.3.4 2.2-1.1 4.2-2.8 5.6-2 1.6.4-2.2.3-3.2-.5-3.2-.7 0-.9-.5-.5-1.2.6-.9.9-.9 1.2 0 .2.7.8.9 1.4.6"/></svg>