<svg xmlns="http://www.w3.org/2000/svg" width="682.667" height="512" version="1.0" viewBox="0 0 512 384"><path d="M157.2 3.2c-5 16.1 1.2 38 14.3 51.4 6.1 6.3 14.2 11.1 22.5 13.5 2.5.7 4.9 1.6 5.3 2 1.4 1.1-10.8 2.3-21.4 2-10.7-.2-11 0-12.9 6.5-.7 2.5-2.1 4.6-3.4 5.2-1.1.5-4.5 2.9-7.4 5.2-5.9 4.7-6.5 7.6-2.2 9.7 4.1 1.9 7.6 6.4 9.9 12.6 2.6 7.2 2.6 10.8.1 17.5-2.5 6.6-2.6 8.7-.2 7.7 5.3-2.2 5.2-2.4 5.2 7.1.1 6.2.5 9.5 1.5 10.8 2.2 2.9 1.9 10.3-.5 13.3-1.6 2.1-2 4.1-2 11 0 5.5.5 9.1 1.4 10.6 2.2 3.3 2.4 11.2.3 13.5-2.7 2.9-2.4 19.4.3 22.9 2.5 3.2 2.7 12.7.5 15.7-2.7 3.6-1.3 19.8 1.9 22.2 1 .6 2.1 3.8 2.7 7.3 1 5.3.9 6.4-.5 8-2.9 3.2-1.5 20.3 2 24.2.8.9 1.7 4 2.1 6.9.5 4.3.3 5.4-1 6.2-1.5.8-1.7 2.9-1.7 15.3 0 13.1-1.1 20.8-2.7 19.1-.3-.3-1.4.1-2.4 1s-2.4 1.4-3.1 1.2c-.8-.3-3 2.3-5.5 6.4-2.4 3.7-4.3 7-4.3 7.2 0 .3-2.3 4.1-5 8.5s-5 8.3-5 8.6 10.4.5 23.1.5c26.1 0 24.4.8 18.4-8.5-4-6.3-4-6.5-2.1-6.5.8 0 2-1.5 2.6-3.3.7-2.1 3-4.6 6.7-7.2 9-6.4 14.8-13.2 19.9-23.2 2.7-5.1 5.1-9 5.4-8.5.4.4 1.7 8.1 2.9 17.2 2.6 19 5.1 38.2 5.1 39.2 0 .5 25.9.8 57.5.8 56.8 0 57.5 0 57.5-2 0-2.6 1.7-2.6 2.5 0 .4 1.4 1.5 2 3.6 2 3.5 0 3.5 1.2 1.4-28.5-.8-11.6-1.8-25.3-2.1-30.5-.6-8.8 1-41.8 2.5-52 .5-3.4 1-4.4 2.3-4.2.8.1 1.8-.4 2.1-1.2s1.4-1.2 2.4-1c1.2.3 2.9-.6 4.8-2.5 1.7-1.7 3.5-3.1 4-3.1.6 0 2.4-1.3 4-2.9 1.7-1.6 4.1-4 5.5-5.4 7.8-7.6 16.4-19.9 18.1-26 1.5-5.6-.3-31.3-2.6-35.7-.9-1.7-1.4-3.4-1.1-3.9.3-.4 5.7-2.9 12.1-5.5l11.6-4.8 5.2 3.9c2.9 2.2 6.3 4.6 7.7 5.3s4.2 2.8 6.3 4.8c2 2 3.7 3.1 3.7 2.5 0-1.4-3.7-6.1-9.9-12.6l-4.6-4.7 4.2 2c5.6 2.7 6.9 2.6 5.1-.2-1.3-2.1-1.3-2.6.4-5.3 3.8-6.2 1.4-10.8-7.2-14.1-3.1-1.2-8.7-1.9-17.5-2.2-23.3-.9-23.7-.8-29.9 2.3-5.3 2.7-5.7 2.7-6.9 1.1s-.7-2.4 3.9-7c3.4-3.4 5.4-6.4 5.9-8.7 1.2-6.2 1.6-6.8 5.1-7.9 7.1-2.4 13.3-10.4 13.4-17.2 0-4.3 5-9.2 10.9-10.7 6.3-1.6 12.8-7.5 13.5-12.3 1.2-7.8 1.6-16.8.8-16.8-.5 0-1.5.6-2.1 1.4-.9 1-2.4 1.3-4.9.9-3.6-.6-3.7-.6-1.9 1.4 2.1 2.4 2.2 2.4-11.1 11.2-7.5 5-9.6 6-10.8 5.1-2-1.8-4.4-.5-4.4 2.4 0 1.9-1.8 3.6-9.5 8.5-7.9 5.1-9.8 6-11.4 5.1-1.1-.5-2.7-1-3.6-1-2.6 0-6.5 4.6-6.5 7.8 0 2.3-1.1 3.6-6.4 7.4l-6.4 4.6-7.3-3.8c-4.1-2.1-10.3-4.8-13.9-6-6.5-2.2-11.2-2.3-35.6-.7-3.2.2-4.4 2.7-1.3 2.7 5.2 0 .7 4.4-7.7 7.4-2.2.8-3.3 1.5-2.6 1.5 2 .1 1.4 1.5-4 8.6-2.8 3.8-4.4 6.6-3.5 6.2 1.8-.7 2.4.8.7 1.8-.5.3-1.5 1.5-2.1 2.6-1 1.9-.9 2 1 .9 1.9-1 2.1-.8 2.1 2.5 0 4-1.1 4.3-6.6 2-2-.8-4-1.2-4.5-.9s-.9 2.4-.9 4.8c0 3.2-.6 4.8-2.5 6.6-1.4 1.3-2.5 3.1-2.5 4.1s-1.6 4.8-3.5 8.6c-1.9 3.7-3.5 7.4-3.5 8.2 0 .7 2.9 5.6 6.5 10.7 6.4 9.2 6.5 9.5 4.9 11.9-.9 1.4-1.8 2.5-2 2.5s-4.6-3.1-9.6-6.8c-12.2-9-23.1-15.9-34.8-22l-9.5-5-.6-8.3c-.4-4.6-2.1-15.6-3.9-24.4-1.7-8.8-3.2-16.4-3.3-16.9s1-1.6 2.5-2.3c2.7-1.4 2.7-1.4.8-3.3-2.6-2.6-7-11.4-7-14 0-1.3 1.2-2.5 3.7-3.5 2-.8 3.4-1.8 3-2.1-.3-.3 1.1-2 3.1-3.8l3.6-3.3 1.5 2.8c2.6 4.8 8.9 11.7 13.4 14.7 7.2 5 13.8 6.6 24.1 5.9 5-.3 9.6-.3 10.2.1s2.5 2.8 4.3 5.4c1.7 2.7 3.9 4.8 4.7 4.8 2.7 0 9.4-5 9.4-6.9 0-1.1-.9-4-2-6.6s-2-4.8-2-5 2.1-2.7 4.6-5.7c9.8-11.3 13-23.3 10-37-2.2-10-6.4-16.1-15.1-22.1-4.5-3.1-7.1-5.6-7.3-7-.2-1.2-.8-2.7-1.4-3.4-.7-.8-.4-2.9.9-6.5 2.2-6.5 2.6-27.9.5-31.6L258.9 0H158.2zm5.8 92.2v4.3l-3.5-1.1c-1.9-.6-3.5-1.4-3.5-1.8 0-.6 5.8-5.8 6.6-5.8.2 0 .4 2 .4 4.4m254 3c0 .2-.8 1-1.7 1.7-1.6 1.3-1.7 1.2-.4-.4s2.1-2.1 2.1-1.3m-24.8 26.3c-1.4 2.6-6.1 6.8-6.8 6.1-.3-.4 1.1-2.5 3.2-4.7 3.7-4.2 5.4-4.8 3.6-1.4m-19.3 23.1c-.6 1-2.1 2.5-3.3 3.2-1.5 1-1.3.4.9-2.2 3.2-3.7 4.4-4.3 2.4-1m-200.3 29.7c1 4.2.5 5.5-2.2 5.5-.2 0-.4-2.3-.4-5 0-6.2 1.2-6.5 2.6-.5m12.8 23.4c7 7.4 19.8 17.1 48.4 36.5 2.3 1.6 4.2 3 4.2 3.1 0 .6-12.3 15.1-19.5 23-9.2 10.1-21.1 24.5-26.1 31.6l-3.9 5.4-.3-4c-.6-9.7-2.4-17.5-4.3-18.9-2.5-1.7-4-13.3-1.8-14.7 1.1-.6 1.4-3.2 1.3-10.5-.1-8.2-.5-10-2.4-12.6-1.3-1.8-2.4-5.1-2.7-8.4-.5-4.6-.3-5.7 1.3-6.9 2.7-1.9 2.8-17.7.1-21.8-.9-1.5-2-4.8-2.4-7.4l-.6-4.8 2.3 3c1.3 1.6 4.2 5 6.4 7.4m-9.6 7.4c2.1-.5 2.2-.2 2.2 6.2 0 6-.2 6.6-1.7 5.9-1-.4-2.8-.7-4-.7-2.2.1-2.3-.3-2.3-6.3s.1-6.4 1.8-5.5c1 .6 2.8.7 4 .4m3.6 39.1c.9 3.5.7 13.3-.3 11.7-.5-.8-2-1.2-3.9-.9-2.9.4-3 .4-3.6-5.5-.3-3.2-.4-6.2-.2-6.6.2-.3 2-.6 3.9-.7 2.8 0 3.7.4 4.1 2m4.3 43.4c.5 5.8.5 6.1-1.6 5.5-1.1-.3-2.7 0-3.5.6-2 1.7-2.7.2-3.4-7.1-.4-5-.2-6 .9-5.6.8.3 2.3.2 3.4-.2 2.9-1.1 3.6 0 4.2 6.8m2.5 13.4c-.7.7-1.2.8-1.2.2 0-1.4 1.2-2.6 1.9-1.9.2.3-.1 1.1-.7 1.7m-5.5 2c-.3.8-.6.5-.6-.6-.1-1.1.2-1.7.5-1.3.3.3.4 1.2.1 1.9"/></svg>