<svg xmlns="http://www.w3.org/2000/svg" width="682.667" height="512" version="1.0" viewBox="0 0 512 384"><path d="M0 192v192h150.1c142.4 0 150-.1 149.5-1.8-1.3-4.5-3.9-15.6-8.6-36.5-12-54-20.5-80.1-28.7-87.9-2.4-2.3-4.5-3-12.8-4.2-9.5-1.5-25.8-5.6-29.4-7.5-2.7-1.5-12.3-12-18.7-20.5l-5.9-7.9-.3-11.9c-.4-11.4-.3-12.1 2.2-15.8 1.4-2.1 4.4-5.3 6.6-7.1 2.3-1.9 6.7-5.8 9.7-8.7 5.2-5.1 5.4-5.5 4.4-8.5-1.4-3.9.3-6.2 2.4-3.3.8 1 1.6 2.3 1.8 2.9.1.5 3.1-1.1 6.5-3.6 8.2-6 11.7-7.1 21.7-6.5 9.2.6 14.1 2.7 20.7 8.6 8.9 8 14.6 17.7 17.9 30.3 3.4 13 1.7 20.9-5.9 28.2l-3 2.8 7.2 7.2c9.5 9.5 15.5 19 24.5 38.4l7.4 16.1 2.5-5.1c1.4-2.8 6.9-9.6 12.1-15.1 16.5-17.3 16.1-16.7 16.1-24.4 0-12.9 1.4-17.8 7.7-27.1 3.2-4.7 6.1-9.1 6.5-9.7s-1.6-3.7-4.9-7.3l-5.6-6.2 1.8-3.9 1.8-3.9-2.8-3.7-2.9-3.7-1.5 2.3c-.9 1.3-2.4 3.3-3.4 4.4-1.8 2.1-1.8 2-1.2-2.7.3-2.6.4-4.7.1-4.7s-2.6 1.1-5.1 2.5-7.5 3.5-11.1 4.6l-6.6 2-2.5-2.3c-1.4-1.3-3.9-4.8-5.7-7.8s-4.4-6.1-5.9-6.8c-2.9-1.4-3.4-3.1-1.6-4.9 1.3-1.3.1-2.5-5.5-5.6-3.8-2.1-4.6-3.5-6-9.9-.4-1.9-2.3-3.8-6-6.2-3-1.9-5.7-3.9-6.1-4.5q-1.95-3.15 5.7-8.7l5.2-3.7-7.5-3.7c-7.2-3.7-7.4-3.7-7.8-1.6-.3 1.8-.5 1.7-2-1.3-1.9-4.2-3.8-5-4.3-2-.3 2.1-.5 2-3.7-1.2-1.9-1.9-3.1-2.7-2.8-1.7 1.4 4-1 2.3-4.5-3.1-3-4.8-5-6.6-9.9-9.2-3.3-1.8-6.8-3.3-7.8-3.4-2.6-.2-20.1-12.4-20.1-14 0-2.1-20.5-15.6-22.5-14.9-.9.4-3-.7-5.5-3-2.2-2-4.5-3.6-5.1-3.6-1.8 0-21.8-16.3-21.8-17.8-.1-.7-1.1-2.3-2.4-3.5-4.7-4.6-5.2-5.6-3.3-7 1.5-1.1 1.4-1.5-1.2-4-2.3-2.2-4.2-3-8.6-3.4-5.1-.5-6-1-10.2-5.5-3.7-3.9-4.4-5.2-3.3-5.9s.8-1.3-1.4-3.1c-1.5-1.3-3.6-4-4.6-6.1-1.8-3.6-1.8-3.7 0-3.7 1 0 1.9-.5 1.9-1 0-.7-23.3-1-68-1H0zM506.5 7.7c-8.4.7-8.3.6-9 8-.3 3.8-.9 8-1.1 9.5-.7 3.3 1.1 4.2 9.9 5.3l5.7.7V19.1c0-6.6-.3-12-.7-11.9-.5.1-2.6.3-4.8.5"/><path d="M327.7 304.1c.7.7 1.5 1 1.8.7s-.2-.9-1.2-1.2c-1.4-.6-1.5-.5-.6.5m42.8 74.9-5.5 5h19l-3.2-5c-1.8-2.7-3.6-5-4-5s-3.3 2.2-6.3 5"/></svg>