<svg xmlns="http://www.w3.org/2000/svg" width="682.667" height="512" version="1.0" viewBox="0 0 512 384"><path d="M160.3 4.7c-2.9 7.7-2.5 22.7 1 32.2 6.1 16.6 17.9 28.6 33.4 33.6 2.9.9 5.5 2 5.7 2.4 1 1.5-16.1 3-22.5 2-7.7-1.2-10.2.1-11.7 6.4-.8 2.9-1.9 4.7-3.4 5.4-4 1.9-12.8 9.6-12.8 11.3 0 2.1 2 4 4.1 4 5.7 0 13.2 18.8 9.9 24.9-.5 1-1.8 4.2-3 7-2.2 5.7-2.5 5.4 3.7 3.6 2.1-.6 2.1-.3 2.7 10.2.3 5.9.8 13.2 1.2 16.1.5 4.3.3 5.6-1 6.5-3.2 2.4-4.4 20.5-1.5 22.3 1.5.9 1.1 13.1-.5 13.7-1.6.7-3.6 8.9-3.6 15.1 0 2.8.7 5.2 2 6.9 1.4 1.8 2 4 2 7.7s-.6 5.9-2 7.7c-1.7 2.2-2 4.1-2 12.1 0 7.1.4 10 1.5 11.2 1.8 2 3.3 15 1.7 15s-3.2 5.7-3.2 11.4c0 6.4 1.4 11.4 3.8 13.7 2.7 2.5 3.9 13.4 1.8 15.8-2 2.2-2 8.3-.1 17 1.3 5.5 2.1 7 4 7.9 2.2 1 2.5 1.8 2.5 6.7 0 7.5-2.6 12.2-9.7 17.6-3.2 2.4-8 6.1-10.6 8.1l-4.9 3.8h18l2.3-3.8c1.2-2 2.9-4.5 3.8-5.6 1.5-1.7 1.7-1.5 3.1 3.5l1.6 5.4 8.2.3 8.2.3v-3.3c0-1.8-.7-5.8-1.5-8.8s-1.1-5.8-.6-6.3c.4-.4 2.8-1.6 5.2-2.5 7.6-3 15.6-8.1 19.9-12.8 2.3-2.5 4.3-4.4 4.5-4.2.6.5 4.3 23.6 5.1 31l.6 6.8h57.4c53.3 0 57.4-.1 57.4-1.7 0-.9-1.2-5.5-2.6-10.1-1.4-4.7-2.5-9.6-2.5-11.1 0-4.4 2.9-33 4.5-44.1.8-5.8 2.2-16.4 3.1-23.5 2.5-19.1 3.2-22.2 5.8-23 1.2-.4 2.7-.7 3.3-.6.7.1 1.4-.6 1.8-1.4.3-.9 1.1-1.3 1.6-1 1.2.7 6-2 7.3-4.2.4-.7 1.4-1.3 2.2-1.3s2.7-1.6 4.2-3.5 3.3-3.5 4-3.5c.6 0 2.6-2 4.4-4.5s3.6-4.5 3.9-4.5c1.2 0 10.7-15.3 12-19.2 1.5-4.8-.3-24.4-3-33.2-1.1-3.3-1.8-6.1-1.7-6.2.2-.1 13.8-5.8 21-8.7 2.2-.9 3.2-.8 5.5.6 1.5 1 5.2 3 8.2 4.4s7 3.9 8.7 5.6c1.8 1.7 3.6 2.8 3.9 2.4.4-.4-2.8-4.1-7-8.3-7.9-7.9-7.8-8.4.2-5.9 2.7.9 3-1.2.5-3-1.5-1.1-1.5-1.7-.5-3.9 1.8-4.1 1.5-7-1.2-9.5-4.4-4.1-10.3-5.1-29.9-4.9-17.5.1-18.2.2-23.4 2.9l-5.3 2.7-1.5-2c-1.3-1.9-1.1-2.3 2.3-4.8 3.7-2.7 7.6-9.1 8.6-14.1.4-2 1.9-3.3 6.1-5.4 6.5-3.2 10.3-8.1 11.6-15.2 1.1-5.8 4.6-9.6 10.2-11.2 10-2.9 16.7-11.1 15.2-18.7-.3-1.9-.1-5.1.5-7 1.5-4.4.7-5.4-2.3-2.6-1.6 1.5-2.7 1.8-3.7 1.2-2.2-1.4-4-1.2-4 .5 0 .8.5 1.5 1 1.5 2.8 0 0 2.6-9.7 9.1-9.2 6.2-10.9 7-12.5 6-2.4-1.5-5.2.4-4.5 3 .4 1.4-1.8 3.3-9 7.9-8.6 5.5-9.8 5.9-13.4 5.4-4.5-.8-7.9 1.4-7.9 5 0 3.1-2.1 5.6-8.3 9.9l-5.4 3.8-7.4-4c-13.5-7.2-18.5-8.4-33.4-7.7-20.6 1-20.3 1-19.8 2.3.3.7 1.3 1.3 2.3 1.3 1.1 0 2.1.4 2.4.9.8 1.2-6.2 5.7-10.2 6.6-1.7.3-3.4 1-3.7 1.5-.3.4.5.6 1.6.3 1.7-.5 1 1-3.7 7.8-3.2 4.6-5.1 7.8-4.1 7s1.7-.9 1.7-.3-.4 1.4-1 1.7c-.5.3-1.5 1.5-2.1 2.6-1 1.9-.9 2 1 .9 1.9-1 2.1-.8 2.1 1.7 0 4.8-1.1 5.4-5.9 3.2-2.4-1-4.7-1.6-5.2-1.3s-.9 2.3-.9 4.6c0 2.8-.7 4.9-2.5 7-1.4 1.6-2.5 4-2.5 5.3 0 1.2-.7 2.5-1.5 2.9-.8.3-1.5 1.3-1.5 2.3s-.9 3.3-2 5.1-2 4.3-2 5.6c0 2.3 8.5 15.2 13.5 20.6 2.2 2.3 2.2 2.7.9 5.2-.8 1.6-1.7 2.8-2 2.8s-3.1-2-6.3-4.4c-10.5-8.1-27.5-18.6-39.8-24.7l-12.3-6.1v-6.4c0-6.1-4.6-41-5.6-42.6-.3-.5.9-1.3 2.6-1.9 2.8-1 3-1.3 1.6-2.8-2.1-2.3-6.6-12.7-6.6-15.2 0-1.2 1-2.3 2.6-2.9 1.4-.6 4.4-2.9 6.5-5.1 2.2-2.3 4.1-4 4.2-3.8 7.5 12.3 15 18.9 24.9 22.1 5.1 1.6 7.8 1.8 14.4 1.3 9.1-.7 9.6-.5 13.5 6.5 2.6 4.6 4.2 4.9 10 1.9 4.5-2.3 4.6-2.5 1.9-12l-1.3-4.5 6.1-7.3c7.6-9.1 9.7-14.6 9.7-26.1 0-14.8-5.6-25.2-17.3-32.5-4.7-2.8-5.9-4.1-5.5-5.6.3-1 .1-2.5-.5-3.2-.8-1-.5-3.2 1.1-8.3 2.8-9.1 3-23.5.4-31.2L260.8 0h-98.6zM164 98c0 3.9-.1 4-2.7 3.4-4.4-1-4.6-1.9-1.3-4.8 1.7-1.4 3.3-2.6 3.6-2.6.2 0 .4 1.8.4 4m253 .3c0 .2-1 1.2-2.2 2.3l-2.3 1.9 1.9-2.3c1.8-2.1 2.6-2.7 2.6-1.9m-25.7 26.8c-1.6 2.8-7.3 7.8-7.3 6.4 0-.6 8.1-9.5 8.7-9.5.2 0-.4 1.4-1.4 3.1m-20.8 24.7-2.8 2.7 2.3-3.3c1.2-1.8 2.5-3.1 2.8-2.7.3.3-.7 1.8-2.3 3.3m-199.2 33.3c.5 2.1.3 2.8-1.3 3.2-2.2.6-2.4-.3-1.3-6.8.7-4.3.6-4.4 2.6 3.6m.4 17.1c-.2 1.3-.4.5-.4-1.7-.1-2.2.1-3.2.4-2.3.2 1 .2 2.8 0 4m25.6 15.2c5.6 4 18.1 12.4 27.7 18.6s17.6 11.4 17.8 11.6c.3.2-2 3.9-6.5 10.4-1 1.4-8.7 11.7-17.2 23-18 23.9-32 43.6-33.2 46.7-1.1 3-2.5 2.9-3.3-.2-.3-1.3-1.7-3.6-3-5-3.3-3.5-4.5-12.8-2.1-15.5 1.4-1.5 1.6-3.5 1.3-11.2-.2-7.9-.7-9.8-2.5-12.2-3-3.7-3.3-13.2-.5-15.2 1.4-1 1.7-2.9 1.7-11.4s-.3-10.4-1.7-11.4c-2.6-1.9-2.5-11.8.2-15.4 2.7-3.7 3.2-18.2.7-22.7-.9-1.7-1.7-4.8-1.7-6.9v-3.9l6.1 6.7c3.3 3.6 10.7 9.9 16.2 14m-24.6-3.4c2.4 0 2.4.1 1.7 5.7-.8 7-1.2 7.7-3 6.2-.7-.6-2.1-.9-2.9-.5-1.2.4-1.5-.6-1.5-6 0-5.6.2-6.5 1.6-6 .9.3 2.7.6 4.1.6m1.3 42.9c0 6-1.2 9.2-2.5 7.1-.4-.7-1.7-.9-3.1-.6-2.3.6-2.4.5-2.4-5.2 0-3.2.2-6.1.5-6.3.2-.3 2-.5 4-.5h3.5zm.2 33.6c.4.5.8 3.6.8 6.7v5.7l-3.7-.2-3.8-.2-.3-6.5-.3-6.5h3.3c1.8 0 3.6.4 4 1m4.1 40.2c1.2 4.3 1.6 8.9.9 10-.4.6-1.9 1.6-3.4 2.2-3.1 1.2-3.3.8-4.3-7.2-.7-5.5-.7-5.5 2.1-6 1.6-.2 3.2-.5 3.6-.6.4 0 .9.7 1.1 1.6m9.6 43.4c1.4 6.4 1.4 6.9-.3 6.9-.7 0-1.9.7-2.6 1.5s-1.6 1.5-2 1.5c-.9 0-2.5-4.6-3.4-9.8-.5-2.9-.2-3.3 2.7-4.6 1.7-.7 3.5-1.2 3.9-1 .3.3 1.1 2.7 1.7 5.5"/></svg>