<svg xmlns="http://www.w3.org/2000/svg" width="682.667" height="512" version="1.0" viewBox="0 0 512 384"><path d="M161.7 3.7c-5.1 12-3.5 28.2 4.1 42.8 6.2 11.8 17 20.8 30 25 6.1 2 6.7 3.5 1.5 3.5-2.1.1-5.6.4-7.9.9-2.2.4-7.3.3-11.2-.2-8.5-1.2-9.7-.5-11.3 6-.8 3.1-1.9 4.8-3.9 5.8-3.3 1.7-11.2 8.2-12.3 10.2-1.1 1.8 1.8 5.3 4.4 5.3 2.4 0 5.4 4.1 7.9 10.6 2.5 6.8 2.5 11.3.1 16.1-3.1 5.9-3.7 9.3-1.6 9.3.9 0 2.5-.4 3.5-1 1.7-.9 1.8-.2 2.4 10.8.3 6.4.8 13.6 1.2 16 .5 3.3.2 4.7-1.1 6.2-3.1 3.5-4 20.3-1.2 22.2 1.9 1.2.7 11.8-1.5 14.9-1.6 2.1-2.2 4.8-2.6 10.9-.4 7.4-.3 8.3 1.8 10.5 2 2.1 2.2 3.1 1.7 8.1-.3 3.3-1.3 6.4-2.4 7.6-1.4 1.6-1.9 4.1-2.1 11.3-.4 8.4-.2 9.5 1.7 11.4 3 3 3 12 0 16-1.9 2.5-2.1 4-1.8 12.6.3 8.1.7 9.9 2.3 11 2.7 2 3.7 15.1 1.2 16.1-1.3.5-1.6 2.1-1.6 7.8 0 8.9 1.5 14.5 4.4 17.1 2.7 2.3 5.5 14.3 3.7 15.4-.5.4-1.1 3.7-1.3 7.5-.2 5.7-.7 7.1-2.3 8-8 4.5-7.8 4.6 7.4 4.6h14.3l-.3-4.7c-.4-5.5-.5-5.4 12.8-10.4 4.6-1.6 11-5 14.3-7.5 3.3-2.4 6.4-4.4 6.8-4.4.5 0 1.4 4.2 2.1 9.2.6 5.1 1.4 11.2 1.8 13.5l.5 4.3h57.4c45.3 0 57.4-.3 57.4-1.3 0-.6-1.4-5.7-3.1-11.2-2.9-9.8-3-10.2-1.9-20 .6-5.5 1.5-14.1 2-19 1.4-13.4 5.8-47.1 7.1-54.1.9-5.1 1.5-6.4 3.7-7.5 1.5-.7 2.9-1.3 3.2-1.3.3-.1 1.2-.6 2-1.1s2.3-1 3.3-1c.9-.1 3-1.4 4.5-2.8 1.6-1.5 3.3-2.7 4-2.7.6 0 2.4-1.6 3.9-3.5s3.3-3.5 3.9-3.5 2.4-1.8 3.9-4c1.6-2.3 3.4-4.4 4-4.8 2-1.2 10.3-14 11.6-17.9 2.3-7.1-.7-34.7-4.2-39-.9-1-.5-1.5 1.5-2.3 1.5-.5 7.2-2.8 12.6-5.1l10-4 5.9 3.5c3.2 2 6.3 3.6 6.9 3.6.5 0 2.9 1.6 5.2 3.5s4.4 3.5 4.6 3.5c1.4 0-.5-2.5-6.6-8.5-3.8-3.8-6.7-7.1-6.5-7.4.3-.2 2.3.2 4.5.9 4.7 1.5 6 .8 3.6-1.9-1.5-1.6-1.6-2.4-.6-5.9 1.6-5.2.2-7.8-5.8-10.5-4.3-2-6.5-2.2-24-2.3l-19.3-.2-5.6 2.9c-5.2 2.7-5.7 2.8-6.9 1.1-1.8-2.4-1.8-2.5 1.6-4.5 3.9-2.4 7.2-7.1 8.6-12.6.9-4 1.7-4.9 5.5-6.7 6.7-3.3 11.5-9.1 12.9-15.8 1.3-6.4 4.5-10.1 9.5-11.2 4.9-1 11.2-5.1 13.5-8.9 1.6-2.7 2.2-5.4 2.5-12.6l.4-9.2-2.2 2.1c-1.7 1.5-2.7 1.8-4.6 1.1-3-1.2-3.9-.4-2.3 2.1 1.1 1.8.2 2.6-9.4 9.1-9.3 6.2-10.9 7-12.9 6.1-2.7-1.2-5.1.7-4.2 3.2.4 1-2.4 3.3-8.9 7.5-8.7 5.6-9.8 6-13.7 5.5-4.9-.7-7 .9-8.4 6.6-.7 2.7-2.3 4.5-7.1 7.8l-6.1 4.3-7.3-4c-13.2-7.2-18.3-8.3-33.2-7.7-19.2.9-20.3 1-20.3 2.3 0 .6 1.4 1.4 3.1 1.7l3.1.6-4.5 3c-2.4 1.6-5.7 3.2-7.2 3.5-1.5.4-3 1.1-3.3 1.6-.4.5.1.6.9.3 2.5-1 1.9.4-3.4 7.6-2.7 3.8-4.4 7-3.8 7.2q1.05.45-.6 3c-1.7 2.6-1.7 2.6.4 2.1s2.2-.3 1.5 2.8c-.4 1.9-.9 3.5-1 3.7-.2.2-2.2-.6-4.5-1.7-2.4-1.1-4.7-1.8-5.1-1.5-.5.3-.9 2.4-.9 4.8 0 3.2-.6 4.8-2.5 6.6-1.5 1.4-2.5 3.5-2.5 5.1 0 1.5-.7 2.9-1.5 3.3-.8.3-1.5 1.1-1.5 1.8s-.9 3-2 5.1c-3.6 6.8-3.1 8.2 7.6 22.3 5.9 7.8 6.1 8.2 4.7 10.8l-1.4 2.7-4.2-3.2c-10.7-8-29.4-19.6-41.4-25.6l-13.3-6.6v-4.1c0-4.8-2.4-25.5-4.3-37.5l-1.4-8.3 2.9-1c3-1.1 3.6-2.3 1.4-3.1-1.3-.5-6.6-12.5-6.6-15.2 0-.8 1.6-2.2 3.5-3.1s3.5-2 3.5-2.4 1.6-2 3.5-3.4l3.4-2.7 2 3.8c2.9 5.7 11.9 13.9 18.6 17 5.4 2.5 7.1 2.8 16.7 2.8H254l3.3 5c2.9 4.5 3.6 5 6.6 4.7 4-.3 8.1-2.9 8.1-5.2 0-1-.7-3.7-1.5-6s-1.5-4.8-1.5-5.6c0-.7 2.3-3.9 5.1-7.1 2.9-3.2 6.3-8.3 7.8-11.3 2.3-4.9 2.6-6.7 2.6-16 0-9.4-.3-11.1-2.8-16.5-3.3-7.1-6.2-10.4-13.8-15.5-7.2-5-7.7-7.4-4.3-20.8 2.9-10.9 2.8-17.5-.3-27.7l-1.9-6-49-.3-49.1-.2zm2.9 95.3c.1 3.8 0 3.9-2.5 3.4-4-1-4.3-1.8-1.7-4.7 3.4-3.6 4.1-3.4 4.2 1.3m252.4-.7c0 .2-1 1.2-2.2 2.3l-2.3 1.9 1.9-2.3c1.8-2.1 2.6-2.7 2.6-1.9m-24.6 24.9c-2.2 3.9-4.8 6.9-6.5 7.9-1.8.9-1.9.8-1.1-.8 1.1-1.9 7.1-8.3 7.9-8.3.2 0 .1.6-.3 1.2m-19.3 23.6c-1.2 2.2-4.1 4.8-4.1 3.6 0-.8 4-5.4 4.7-5.4.2 0-.1.8-.6 1.8m-203.2 40.3c-2 1.2-2.1.6-1.3-4.8l.8-4.8.9 4.4c.7 3.3.6 4.6-.4 5.2m13.8 18.5c2.3 2.3 7.9 6.8 12.5 10.1 8 5.7 37.9 25.1 44.6 28.9 1.7 1 3.2 2.2 3.2 2.7 0 .8-6.4 10.7-11.7 18-1.5 2.1-3.7 5.6-4.8 7.7-2.2 4.2-10.8 18-18.8 30-13 19.4-20.6 34.6-23.8 47-1.4 5.8-3 10.4-3.5 10.3-1.2-.3-3.5-12.5-2.5-13.7 1.7-2.2 2.1-7.3 1.1-15.1-.8-6-1.5-8.4-3-9.5-2.9-2.2-4-13.2-1.5-15.6 2.5-2.5 1.9-21.9-.7-23.8-1.4-1-1.8-2.8-1.8-7.1 0-4.2.5-6.4 1.8-7.8 1.3-1.5 1.8-4.1 2-11.4.4-8.6.2-9.7-1.8-11.8-1.9-2.1-2.1-3-1.4-8.2.4-3.5 1.3-6.3 2.3-7 2.2-1.5 3-21.1 1-22.4-.8-.4-1.5-3.1-1.6-6.1l-.3-5.3 2.2 3c1.3 1.6 4.2 4.8 6.5 7.1m-12-5.4c-.3.7-.5.2-.5-1.2s.2-1.9.5-1.3c.2.7.2 1.9 0 2.5m1 12.6c1-.8 1.3.2 1.3 5.5 0 6.2-1.1 9-2.5 6.7-.3-.5-1.8-1-3.2-1-2.5 0-2.6-.2-1.9-4.6.3-2.6.6-5.5.6-6.6 0-1.8.2-1.8 2.2-.4 1.6 1.1 2.5 1.3 3.5.4m-1.4 37.6c2 .1 2.2.6 2 5.6-.4 7.2-.9 8.6-2.8 7-.8-.6-2.3-.9-3.5-.5-1.8.6-2 .2-2-3.3 0-6.5 1-10.1 2.7-9.5.8.3 2.4.6 3.6.7m2.1 40.1c.9 3 .7 8.8-.3 10.4-.5.8-1.6 1.1-2.9.7-1.1-.4-2.3-.2-2.7.5-1.4 2.1-2.5-1.4-2.5-7.6v-6h3.9c3.2 0 4.1.4 4.5 2m2 39.1c.3.9.6 3.9.6 6.7v5.2l-3.5.2c-3.8.3-4.1-.2-4.7-8.4-.3-4-.2-4.2 2.7-4.6 1.6-.2 3.3-.5 3.6-.5.4-.1 1 .5 1.3 1.4m4.7 41.3c-.6 1.1-1.9 2.5-2.9 3-1.5.8-1.8.5-2-1.4-.1-1.7.5-2.6 2.6-3.3 3.3-1.1 3.7-.9 2.3 1.7m4.9 9.2c0 .5-.7.9-1.5.9-.9 0-1.2-.6-.9-1.5.6-1.5 2.4-1.1 2.4.6"/></svg>