<svg xmlns="http://www.w3.org/2000/svg" width="682.667" height="512" version="1.0" viewBox="0 0 512 384"><path d="M164 4.3c-3 6.8-4.1 15.9-2.9 24.5 3 21.3 15.5 37.2 34.7 44.2 3.4 1.2 6.2 2.6 6.2 3 0 1.5-20.6 2.9-26.7 1.9-4-.7-5.3.3-7 5.2-1.4 3.9-2.7 5.6-6.3 7.9-5 3.3-11 8.7-11 9.9 0 1.4 3.8 4.3 4.8 3.7 2.5-1.5 10.2 12.8 10.2 18.9 0 1.3-1.3 5.1-3 8.3-3.2 6.3-3.8 9.7-1.7 8.9 5.8-2.2 5.3-3.4 6.1 16.1.4 11.6.3 18.8-.4 20.6-.5 1.5-1 5.8-1 9.6 0 5.9.3 7.1 2.1 8.4 1.9 1.3 2.1 2.1 1.6 6.7-.4 3.4-1.4 6-2.9 7.6-1.9 2.1-2.3 3.7-2.6 12.3-.4 8.5-.2 10.1 1.2 10.6 2.6 1 2.2 10.8-.5 13.5-2.8 2.8-3.9 7-3.9 15.5 0 5.8.4 7.4 2 8.9 1.7 1.5 1.9 2.6 1.4 7.4-.4 3.7-1.3 6.1-2.5 7.1-2.6 2.1-3.9 7.2-3.9 15.7 0 6.2.3 7.4 2.1 8.7 2 1.3 2.1 2.1 1.6 7.8-.4 4-1.1 6.6-2.2 7.4-2.3 1.7-3.5 6.9-3.5 15.6 0 6.8.3 7.9 2.2 9.2s2.1 2.3 1.9 7.8c-.2 4.8-.8 6.8-2.3 8.5-1.7 1.8-2.2 4-2.6 10.3l-.5 8h2.7c2.6 0 2.6-.1 2.6-7.1 0-6.2.2-7 1.5-5.9 1.2 1 2 .9 4-.4l2.5-1.6v7.5c0 6.8.2 7.5 2 7.5s2-.7 2-8.4c0-6.4-.4-8.8-1.6-10-.8-.9-2-1.6-2.5-1.6s-.9-2.8-.9-6.1c0-5.2.4-6.5 2.4-8.4 4.5-4.1 4.9-23.6.5-25-1.8-.6-1.9-1.2-1.3-6.8.4-4.4 1.2-6.7 2.6-7.7 1.3-1.1 2.2-3.7 2.9-8.5 1.2-8.3.5-14.4-2-16.1-2.5-1.8-1.4-11.5 1.7-14.4 2.4-2.3 3.5-6.9 3.6-15.8.1-5-.3-6.6-1.6-7.6-2.7-2-2.5-12.2.2-14.4 4.2-3.4 5.5-19 2-23.5-1.1-1.4-2-3.8-2-5.4 0-2.9 0-2.9 5.8 2.7 6.3 6.2 19.8 15.3 45.8 31l17.1 10.4-1.5 2.5c-.8 1.4-2.9 3.5-4.6 4.6s-4.2 4.1-5.6 6.7c-1.4 2.5-3.4 5.9-4.5 7.4-1.4 2-2 4.6-2.1 8.9-.2 4.4-1.1 8.3-3.9 15-3 6.9-4.1 11.4-5.1 20.2-.7 6.2-1.8 13.9-2.4 17-1.6 9-1.2 21.3.9 28.2 1.1 3.4 3.8 9.3 6 13.1 2.3 3.7 4.1 8 4.1 9.4v2.6h116.1l-.8-2.3c-.4-1.2-.7-3.8-.6-5.7.2-1.9.6-21.5 1.1-43.5.7-29.8 1.4-42.4 2.6-49.4 1-5.2 1.9-9.8 2.2-10.3.6-1 8.4-4.8 9.7-4.8.5 0 2.6-1.4 4.7-3 2.1-1.7 4.3-3 4.9-3s2-1.3 3.3-3c1.2-1.7 2.7-3 3.4-3 .6 0 2.4-1.7 4-3.8 1.5-2 3.8-4.8 5.1-6.1 3.4-3.5 8.7-12 10.7-17 1.5-3.9 1.6-5.8.6-17.4-.6-7.1-1.8-14.8-2.6-17.1-.8-2.2-1.6-4.5-1.7-4.9s5.3-3.1 12-5.9l12.1-5 4.4 3c2.4 1.6 5.9 3.7 7.8 4.7 1.9.9 5 3.1 6.7 4.8 1.8 1.7 3.5 2.8 3.9 2.5.3-.4-2.9-4.3-7.1-8.7-4.3-4.5-7.5-8.1-7.1-8.1s2.3.7 4.3 1.5c1.9.8 4.2 1.5 5.1 1.5 1.3 0 1.3-.2-.1-1.8-1.9-2.1-2.2-4.8-.7-5.7.6-.3 1-2.4 1-4.5 0-3.1-.5-4.2-2.7-5.7-5.8-4-8.8-4.7-21.8-5.1-23.7-.8-24.5-.8-30.4 2.1-6.5 3.2-6.8 3.2-7.6.7-.4-1.4.5-2.9 3.5-5.6 4.6-4.2 6.4-7.2 7.4-12.5.6-3.2 1.2-3.9 5.1-5.4 7.2-2.7 13.5-11.7 13.5-19.3 0-2.7 5.3-6.7 10.8-8.2 5.3-1.4 11.7-7 13.2-11.5.6-1.8 1-5 .9-7.2 0-2.1.2-5.3.6-7.1.8-3.4-.4-4.3-2.4-1.8-.8 1-2.3 1.3-4.7.9-2.2-.4-3.4-.2-3.4.6 0 .6.5 1.1 1 1.1 3.2 0-.3 3.6-9.6 9.8-8.9 5.8-11 6.8-12.5 5.9-2.2-1.4-4.9.5-4.3 3.1.3 1.2-2.3 3.4-9.2 7.8-8.9 5.6-9.9 6.1-12.5 5-2.4-.8-3.5-.7-5.7.6-1.5.9-2.8 2.5-3 3.5-.1 1-.5 2.7-.7 3.8s-3.2 4-6.6 6.4l-6.1 4.3-8.7-4.5c-13.2-6.9-17.8-8-32.9-7.3-7 .4-14.5.7-16.7.7-2.2.1-3.4.4-2.7.6.6.3 1 .9.6 1.4-.4.8 2.5 1.4 4.9 1 3.2-.5-7.6 6.4-11.8 7.4-2.1.6-2.5.9-1.3 1.2 1.4.4.9 1.6-3.1 7.1-6.4 8.9-6.6 9.3-4.4 8.5 1.7-.6 1.7-.5.2 1.3-3.1 3.7-3.3 4.7-.9 3.9 2.1-.7 2.3-.5 1.6 2.6-.3 1.8-.8 3.4-1 3.6-.2.3-2.3-.5-4.5-1.7-2.3-1.1-4.6-1.8-5.1-1.5-.6.3-1 2.8-1 5.4 0 4.1-.4 5.1-2.5 6.5-1.7 1.1-2.5 2.6-2.5 4.6 0 1.6-.4 3.1-.9 3.5-1.5.9-6.1 11.5-6.1 14 0 2.2 8.7 15.3 13.6 20.6 2.8 3 2.9 3.7.8 6.7l-1.5 2.3-3.7-2.9c-10.1-8-37.9-24.1-48.7-28.3l-7-2.7-.6-14.4c-.6-13.4-2.6-32.8-3.5-33.7-.8-.9 1.9-3.1 3.8-3.1 1.1 0 1.8-.3 1.6-.8-6.9-13.4-8.2-19.3-4.4-20.1 1.1-.2 4-2.3 6.4-4.8l4.5-4.4 2.8 4.9c3.4 5.9 11.2 13.2 17.7 16.4 3.9 1.9 6.7 2.3 16 2.6l11.3.4 3.6 5.3c1.9 3 4.1 5.6 4.9 5.9 1.5.6 10.4-4.9 10.4-6.4 0-.5-.9-3.2-2-6.1-2-5.1-2-5.1-.1-8.3 1.1-1.8 3-4.1 4.2-5.2 10.7-9.6 14-28.7 7.5-42.9-3.2-7-7.1-11.5-14.3-16.1-4-2.6-5-3.8-4.6-5.4.3-1.1 0-2.6-.6-3.4-.9-1.1-.7-3 1.1-8.3 3.2-9.5 3.2-26.1-.1-34.6L261.9 0h-96zm2 96.7c0 2.2-.2 4-.4 4-1.4 0-6.6-2.4-6.6-3 0-.9 5.1-4.9 6.3-5 .4 0 .7 1.8.7 4m250-2.1c-.5 1.1-1.5 2.3-2.2 2.7-.7.5-.8.2-.3-.7 2.1-3.7 4.4-5.5 2.5-2m-25.5 26.8c-1.8 2.9-5.4 6.2-6.8 6.3-.5 0 1.1-2.3 3.4-5 4.4-5.3 6.4-6 3.4-1.3m-19 22.7c-.9 1.3-2.4 2.7-3.3 3.1-1 .4-.5-.6 1.2-2.4 3.6-3.7 4.2-3.9 2.1-.7m-199 67.6c.8 0 1.9-.8 2.4-1.8.8-1.3 1 0 1.1 5 0 8.1-.7 10.3-2.6 8.7-.8-.6-2.5-.8-4-.5l-2.7.7.7-5.3c.4-2.9 1-6.4 1.3-7.7.5-2 .7-2.1 1.5-.7.5.9 1.5 1.6 2.3 1.6m-.9 36.6 2.7-.7-.6 6.6c-.7 7.7-1.3 9.1-3.2 7.5-.8-.7-2.3-.9-3.5-.5-1.8.6-2 .2-2-4.7 0-7.4.9-10.2 2.6-8.7.8.6 2.5.8 4 .5m-.6 42.5c0 2.5-.3 6.1-.6 7.8-.5 2.5-.9 2.9-2 2-.8-.6-2.5-.8-3.9-.5-2.3.6-2.5.4-2.5-3.1 0-2.1.3-5.4.6-7.3.6-3.3.8-3.5 4.5-3.5l3.9-.1zm-6.6 35.9c1.2 0 2.7-.5 3.4-1.2.9-.9 1.2.3 1.1 5.7 0 3.9-.4 7.9-.9 9s-.9 1.4-.9.7c-.1-1.5-4.3-1.6-5.9 0-.9.9-1.2.1-1.2-3.8 0-5.8 1.2-13.4 1.8-11.6.2.6 1.4 1.2 2.6 1.2"/></svg>