<svg xmlns="http://www.w3.org/2000/svg" width="682.667" height="512" version="1.0" viewBox="0 0 512 384"><path d="M164 5.2c-6.9 15.8-1.2 41.2 12.3 55 5.2 5.2 15.3 11.3 23.1 13.8 6.7 2.1 1.7 3.4-13.9 3.5-7.7 0-14.5.3-15.1.7s-1.7 2.7-2.3 5.1c-1.1 3.8-2.2 5-7.4 8.4-8.5 5.6-10.2 7.6-8.7 10.2.6 1.2 1.9 2.1 2.8 2.1 2.7 0 6.8 4.8 9.1 10.8 2.6 6.6 2.6 10.4.2 15.1-1.1 2-2.7 5.1-3.6 7l-1.7 3.4 4-.6 3.9-.7.7 14.1c.4 7.8.4 20.1 0 27.4-.7 12.9-.6 13.3 1.5 14.6 1.7 1.1 2.1 2.4 2.1 6.3 0 4.1-.5 5.5-2.7 7.8-2.6 2.8-2.8 3.4-2.8 12.4 0 8.2.3 9.7 1.9 10.9s1.8 2.3 1.3 7.1c-.4 4-1.1 6-2.6 7-3.4 2.5-4.9 21.6-1.7 23.9 1.1.9 1.6 2.8 1.6 6.3 0 4-.5 5.7-2.5 7.8-2.9 3.1-3.9 7.4-4 16.6 0 5.5.4 7 1.9 8.1 1.7 1.2 1.8 2.2 1.2 7.3-.4 4.1-1.3 6.4-2.6 7.4-2.3 1.8-3.9 8.5-4 16.4 0 4.7.4 6.4 2.1 8.2 1.8 1.9 1.9 2.9 1.3 8.3-.5 4.5-1.1 6.2-2.4 6.6-2.2.7-2.8 2.8-3.6 12.7-.7 7.5-.6 7.8 1.5 7.8 1.8 0 2.1-.6 2.1-4.4 0-2.4.3-5.8.6-7.5.5-2.5.9-2.9 2-2s2 .7 3.9-.5l2.5-1.6v8c0 6.2.3 8 1.4 8 2 0 2.6-2.3 2.6-10.8 0-6.6-.3-7.9-2-9-1.6-1-2-2.3-2-6.7 0-4.6.4-5.9 2.4-7.6 2.9-2.5 4.6-9.2 4.6-17.9 0-4.9-.4-6.1-2.1-7.4-2-1.3-2.1-2.1-1.5-7.3.5-4 1.3-6.3 2.6-7.3 2.8-2.1 4-7.1 4-16.2 0-6.9-.2-7.7-2.1-8.3-1.8-.6-2-1.2-1.5-4.4.3-2 .6-4.9.6-6.4 0-2 .6-3 1.9-3.4 2.7-.7 3.2-2.5 3.8-12.9.5-8.5.4-9.3-1.6-11-1.7-1.5-2.1-3-2.1-7.5 0-4.9.3-5.7 2.5-6.9 2.9-1.6 3.9-5.3 3.9-15.4 0-6-.3-7.1-2.2-8.4-1.3-.8-2.2-2.5-2.2-3.8 0-2.3.5-2 6.7 3.3 7.2 6.1 23.3 16.8 45.5 30.3l13.7 8.4-2 3.7c-1 2.1-2.7 4.3-3.8 4.8-1 .6-2.4 2.5-3.1 4.3-.8 1.8-2.7 5.2-4.3 7.4-2 2.9-3.1 6.1-3.6 10-.5 3.3-1.8 8.4-3 11.4-8.7 21.2-13 43-11 54.9 1.2 6.7 5.7 16.9 10.3 23 1.8 2.5 2.7 5.1 3.2 10.2l.7 6.9H285c55.1 0 58.8-.1 59.5-1.8 1.5-3.8 1.7-35.3.4-53.2-1.7-22.3-1.6-36.7.2-47.8 1.4-8.3 1.4-8.4 5.6-10.7 2.2-1.3 4.3-2.1 4.6-1.9.2.3 2.5-1.1 5.1-3.1 2.5-1.9 5-3.5 5.6-3.5.5 0 1.9-1.3 3.2-3 1.2-1.7 2.7-3 3.4-3 .6 0 2.4-1.7 4-3.8 1.5-2 3.2-3.8 3.6-4 1.7-.8 10.2-13.9 12-18.5 1.7-4.5 1.8-6.1.9-17.8-.6-7-1.8-14.7-2.6-17.1-.9-2.4-1.7-4.7-1.8-5.1s5.3-3 11.9-5.8l12.2-5 7.8 5c4.4 2.7 9.6 6.4 11.7 8.1 6.4 5.5 4 1.4-4.1-7-7.5-7.8-8.3-9.4-3.2-6.5 1.4.8 3.6 1.4 4.9 1.5 2.4 0 2.4 0 .6-2-1.8-1.9-1.8-2.2-.2-5.6 2.3-4.7 2.2-5.8-1.2-9.1-4.1-4.1-9.8-5.6-24.1-6.1-21.9-.7-23-.7-28.9 2.2-6.4 3.1-6.7 3.1-7.5 1-.4-1.1 1-3.4 4.3-6.9 4.3-4.5 7.1-10 7.1-14 0-.6 2-1.8 4.5-2.8 7.3-3.1 13.5-11.6 13.5-18.8 0-2.1 5.9-7.9 8-7.9 3.1 0 11.6-5 14-8.2 1.8-2.4 2.4-4.7 2.6-9.3.2-3.3.6-7.5 1-9.3.7-3.5-.5-4.3-2.6-1.7-.9 1.1-2.2 1.4-4.6.9-3.3-.6-4.7.7-2.4 2.1 2 1.2.9 2.3-8.7 8.7-12.8 8.5-12.2 8.1-13.8 6.8-1.9-1.6-4.5.3-3.9 2.8.4 1.3-2 3.3-9.2 7.8-8.8 5.6-9.9 6-12.5 5.1-3.6-1.4-7.7.6-8.5 4.2-.3 1.4-.8 3.3-1 4.2-.4 1.4-11.3 9.9-12.7 9.9-.3 0-3.5-1.7-7.1-3.9-3.7-2.1-9.8-4.9-13.5-6.1-6.1-1.9-8.3-2.1-20.7-1.6-7.6.2-15.1.5-16.6.5-2 .1-2.6.5-2.2 1.6.4.8 1.5 1.5 2.5 1.5s1.9.3 1.9.7c0 1.2-6.1 4.8-10.5 6.3-2.5.9-3.4 1.5-2.3 1.8 1.4.3.9 1.4-2.8 6.5-6.2 8.3-6.9 9.8-4.7 9 1.7-.6 1.7-.5.2 1.3-2.9 3.5-3.2 4.6-1.3 4.2 1.4-.2 2 .4 2.2 2.1.6 3.8-1.1 4.5-5.7 2.1-2.3-1.1-4.6-1.8-5.1-1.5-.6.3-1 2.8-1 5.4 0 4.1-.4 5.1-2.5 6.5-1.7 1.1-2.5 2.6-2.5 4.5 0 1.5-.9 3.6-2 4.6s-2 2.6-2 3.5-.7 2.5-1.5 3.6c-3.5 4.6-.6 11.8 9.5 23.4 4.6 5.4 4.7 5.7 3.4 8.3-.8 1.5-1.7 2.7-1.9 2.7s-4.8-3-10.1-6.6c-13.1-9-32.1-19.7-41.6-23.6l-7.8-3.2v-10.5c0-5.9-.7-16.2-1.5-23.1-1.9-16.1-1.9-15.9.9-16.9l2.3-.9-2.9-5.9c-1.5-3.2-3.1-7.5-3.4-9.5-.6-3.3-.4-3.8 2.5-5.2 1.7-.9 4.7-3.3 6.5-5.4 1.9-2 3.6-3.5 3.8-3.2s2 3 4 6.1c4.3 6.6 10.5 12 17.4 15.1 3.8 1.7 7.3 2.3 15.7 2.6l10.8.4 3.6 5.3c1.9 3 4.1 5.6 4.9 5.9 1.5.6 10.4-4.9 10.4-6.5 0-.5-.9-3.2-2-6.1-2.3-6-2.2-6.1 5.6-14.9 7.3-8.2 8.8-12.5 8.8-24.9 0-8.6-.4-11.5-2.2-16.2-2.6-6.4-8.8-13.3-15.7-17.3-3.3-2-4.2-3-3.8-4.5.3-1.1 0-2.6-.6-3.3-.8-1-.5-2.7.8-6.3 4.5-11.7 4.5-27.6 0-38.1L262.1 0h-95.9zm2 95.4c0 3.5-.1 3.5-3.2 2.9-4.6-1-4.7-1.3-1.5-4.1 3.8-3.3 4.7-3 4.7 1.2m250-1.2c0 .2-.8 1-1.7 1.7-1.6 1.3-1.7 1.2-.4-.4s2.1-2.1 2.1-1.3m-25.4 26.4c-1.3 2.6-6.6 7.1-6.6 5.6 0-1 7.3-9.5 7.7-9 .3.2-.2 1.7-1.1 3.4m-19.1 22.6c-.9 1.3-2.4 2.7-3.3 3.1-1 .4-.5-.6 1.2-2.4 3.6-3.7 4.2-3.9 2.1-.7M175 215c2.9-1.9 3.3-1 2.7 6.1-.6 7.5-1.3 9.2-2.6 7-.6-.8-1.9-1.2-3.5-.9-2.5.5-2.6.3-2.6-3.7 0-2.3.3-5.7.6-7.4.6-2.9.8-3 2.3-1.7 1.1 1 2.1 1.2 3.1.6m-2 37.2c2.7-1.7 3.3-.1 2.5 7.1-.9 7.6-1.1 8-3.5 6.4-1.6-.9-2.4-.9-4.1.1-2.1 1.4-2.1 1.3-1.4-5.4.9-8.8 1.3-9.8 3.2-8.2 1.1.9 1.9.9 3.3 0m-.7 43.8c-.8 7.9-1.5 10.4-2.3 9-.5-.9-1.8-1.1-4-.6l-3.3.6.6-5.8c.9-8.3 1.3-8.9 4.7-8.4 2.1.3 3 0 3.1-.9 0-.8.4-.5.8.6.5 1.1.6 3.6.4 5.5m-3.8 44.7c-.6 3.9-.8 4.1-2.6 3-1.5-.9-2.3-.9-4.1.2-2.1 1.3-2.1 1.3-1.5-6.4.3-4.2.8-7.9 1.1-8.2s1.3 0 2.1.7c1.3 1.1 1.9 1 3.3-.4 1.6-1.6 1.7-1.4 2 2.6.2 2.4.1 6.2-.3 8.5"/><path d="M160.8 383.7c.7.3 1.6.2 1.9-.1.4-.3-.2-.6-1.3-.5-1.1 0-1.4.3-.6.6"/></svg>