<svg xmlns="http://www.w3.org/2000/svg" width="682.667" height="512" version="1.0" viewBox="0 0 512 384"><path d="M0 192v192h147.5c97 0 147.5-.3 147.5-1 0-.5-1.1-7-2.5-14.2-1.4-7.3-3.4-18.3-4.6-24.3-8.7-47.1-16.9-75.2-24.3-82.9-2.3-2.5-4.4-3.6-8.6-4.4-3-.6-9.5-1.8-14.5-2.7-12.7-2.4-19.1-5.1-24.8-10.4-5-4.6-16.4-18.7-18.6-22.8-.6-1.3-1.1-7.3-1.1-14.9v-12.7l5.4-5.1c2.9-2.8 8.3-7.9 12-11.3 5.9-5.4 6.6-6.4 5.7-8.2-2.5-4.7.2-7.2 3.1-2.9l1.5 2.3 5.6-4.3c8-6 11.9-7.3 20.8-6.9 9.1.5 14.6 2.8 21.7 9.2 9.8 8.9 15.9 19.7 18.7 33.2 2.4 11.7 1 17.4-6 24.6l-3.7 3.8 4.3 3.7c9.6 8.3 17.5 21.4 28.4 47l4.7 11.3 3-4.8c1.7-2.6 7.4-9.3 12.7-14.8 14.1-14.5 15.3-16.1 14.6-19.9-.4-1.7.1-7.4.9-12.6 1.4-8.8 1.9-10 7.6-18.3 3.3-4.9 6-9.3 6-9.7s-2.6-3.3-5.7-6.4l-5.8-5.7 1.8-3.1c2.3-4 2.2-5.5-.9-9.5l-2.6-3.4-2.9 4.5c-1.6 2.6-3.1 4.6-3.5 4.6-.3 0-.3-2.1.1-4.6.3-2.5.3-4.4-.2-4.2-21.5 10.1-23.3 10.1-29 .4-2.1-3.6-5.1-7.2-6.6-8.1-2.3-1.4-2.7-2.2-2.2-4.2.6-2.7-1.7-6.3-4-6.3-3 0-6.4-4.1-7.1-8.6-.5-3.4-1.4-5-3.9-6.9-1.7-1.4-3.6-2.5-4.2-2.5-1.8 0-4.3-3.6-4.3-6.2 0-1.9 1.2-3.2 5-5.7 2.8-1.8 5-3.6 5-4.1 0-1.3-8.1-9.4-10.9-10.9-2.6-1.4-2.4-.5.8 3.3 1.5 1.8 1.5 1.8-.6.7-2.6-1.3-3.6-1.4-2.8-.2.3.5.1 1.2-.5 1.6-.5.3-1.7-1-2.7-3-2-4.1-3.9-4.1-3.6.1l.3 2.9-2.5-3c-1.3-1.7-2.4-3.3-2.5-3.8 0-.4-.5-.7-1.1-.7s-.9.9-.6 2c1.4 5.3-3.4-1.2-8.6-11.6-2.4-4.8-6.4-7.9-10.3-7.9-2.2-.1-20.7-12.8-21.1-14.6-.7-2.4-20.1-15.3-22.8-15.1-1.1 0-3.3-1.2-5-2.8-1.6-1.6-4-3.3-5.2-3.7-2.6-1-23.1-17.4-23.2-18.6-.1-.5-1.7-2.7-3.6-5-3.3-3.8-3.5-4.3-1.9-5.4 1.6-1.2 1.6-1.5-1-4.2-2.2-2.3-4.1-3.1-8.1-3.6-4.7-.6-5.8-1.3-10.6-6.2-3.3-3.4-4.9-5.7-4.1-6 1.8-.7 1.5-2.1-.8-2.8-1.1-.4-3-2.5-4.1-4.7-2-3.8-2-4-.2-5.4C136.2.3 126.4.1 68.3 0H0zM504 12.9c-5.4 1.1-5.7 1.5-6.4 8.8-.4 3.8-1 8.2-1.2 10-.6 3.1-.6 3.1 5.3 4.3 3.2.6 6.8 1.4 8.1 1.7 2.2.5 2.2.5 2.2-12.6 0-14.7.6-13.9-8-12.2M369.5 381.1l-3 2.9h11.6l-1.8-3c-2.1-3.7-3-3.7-6.8.1"/></svg>