<svg xmlns="http://www.w3.org/2000/svg" width="682.667" height="512" version="1.0" viewBox="0 0 512 384"><path d="M168.6 3.1c-.3 1.7-.6 6.9-.6 11.4 0 21 11.4 39.6 29.7 48.5 4 1.9 7.2 3.8 7.3 4.1 0 .3-3.3.7-7.2.9-10 .4-10.5.4-16.8-.8-7.6-1.4-9.7-.3-11.2 5.4-1 3.7-2 4.9-4.9 6.4-1.9 1-5.8 3.9-8.5 6.4-4.2 3.8-4.7 4.7-3.8 6.3.6 1 2 1.9 3.2 2.1 3.9.6 9.1 10 10.6 19.4.5 2.4.1 5-1 7.5-.9 2.1-2.2 5.5-3 7.6l-1.4 3.9 4.1-.7 4-.7-.1 8.4c-.1 4.5.2 12 .6 16.6.6 7.1.4 8.5-1.1 10.2-2.6 2.8-3.4 18-1.1 21.4 2.3 3.5 2.2 13.2-.1 14.5-2.5 1.4-3.3 21-.9 23.4 2.3 2.3 2.2 12.4-.1 15-1.5 1.6-1.8 3.8-1.8 12.5 0 7.5.4 10.7 1.3 11 2 .6 1.6 13.1-.5 15.5-1.5 1.6-1.8 3.8-1.8 12.3 0 6.9.4 10.7 1.3 11.5 2 2.1 1.5 10.9-1 15.4-3 5.6-3.9 22-1.3 23.9 1.6 1.1 1.7 1.9.7 7.6-.7 3.5-1.8 6.8-2.6 7.2-1.8 1-3.7 10-3.8 17.4-.1 7 1.9 9.4 7.6 9.4 2.3 0 4.6-.4 5.3-.8 2-1.3 3.4-6.2 4-14.4.5-6.5.3-8.1-1.1-9.7-2.4-2.6-1.2-11.3 2.2-16.4 2.1-3.2 2.6-5.3 3-12.3.4-7.7.2-8.9-1.8-11.6-1.9-2.6-2.1-3.8-1.5-8.2.3-2.8 1.4-5.9 2.3-6.9 2.5-2.8 3.1-21.7.8-24s-2.2-13.4.2-16c1.4-1.5 1.7-3.8 1.7-11.7s-.3-10.2-1.7-11.7c-1.3-1.4-1.8-3.6-1.8-7.8 0-4.3.4-6.1 1.8-7.1 2.5-1.8 3.2-22.3.8-23.6-1.8-1-2.3-8.3-.6-9.3.6-.3 1-.2 1 .4s2.8 4 6.2 7.7c6.7 7.2 21.3 19.1 43.1 35.3 7.5 5.6 13.7 10.4 13.7 10.6s-5.1 7.9-11.4 17.2c-21.7 32.1-30.4 47.7-35.4 63.4-5.9 18.4-5.2 27 3.5 46.3 4.7 10.3 4.9 10.6 8.1 10.6 1.7 0 3.2-.4 3.2-.8 0-.5 2.8-4.1 6.2-8.2 6.2-7.3 6.2-7.3 6.9-4.6.4 1.6 1.1 5.2 1.5 8.2l.6 5.4H342l-1-2.6c-1-2.6-.3-10.4.9-10.4.4 0 1.3 2.9 2 6.5 1.3 6.5 1.3 6.5 4.7 6.5 2.2 0 3.4-.5 3.4-1.4 0-5.3-2.3-40.1-3.6-54.1-.9-9.4-1.8-19.8-2.1-23.2-.3-3.3 0-11.3.7-17.6 1.1-10 1.5-11.9 3.6-13.8 1.7-1.6 2.4-1.8 2.4-.8.1 1 .6.8 1.8-.7 1-1.1 2.3-1.9 3-1.6 1.4.4 9-4.8 13.8-9.6 1.8-1.7 3.6-3.2 3.9-3.2.9 0 10.2-10.2 13.8-15.2 1.6-2.3 4.3-6.9 5.8-10.2l2.9-6.1-1.1-12c-.9-10.3-2.4-16.9-5.3-23.6-.6-1.3.1-2 2.8-2.9 2-.6 7.8-2.9 12.8-5.1l9.2-3.9 5.7 4c3.1 2.2 6.9 4.4 8.4 5s4.5 2.4 6.6 4.1c6.7 5.2 4.3 1.2-4.4-7.6-4.6-4.7-8.3-8.5-8.1-8.5.1 0 2.4.9 5 2 5.6 2.4 8.8 2.4 6.3 0-1.4-1.3-1.4-1.8.3-5.7 1.9-4.3 1.9-4.4-.2-7.3-4.5-6.4-14.8-8.1-41.5-6.8-10.2.5-12.8 1-17 3.1-4.6 2.3-5.1 2.4-6.3.9-1.1-1.4-.6-2.2 2.9-5.6 4.6-4.5 6.4-7.7 7.4-12.8.6-3 1.2-3.7 3.8-4.2 6.8-1.4 14.7-11.4 14.7-18.7 0-3.5 3.6-6.6 9.8-8.4 5.8-1.7 11.5-6.2 13.9-10.8 1.5-3 2.8-18.7 1.5-18.7-.4 0-1.5.7-2.6 1.5-1.3 1-2.5 1.1-4.3.4-3.2-1.2-3.8-.7-2.2 2 .7 1.1 1.1 2.2.9 2.4-.3.3-5.2 3.5-10.9 7.2-9 6-10.6 6.7-12.3 5.6-2.4-1.5-4.9.1-4.5 2.9.3 2.6-18.1 14.2-20.5 12.9-4.5-2.4-10.8 1.5-10.8 6.8 0 2.3-1 3.5-6 6.6l-5.9 3.9-6.1-3.7c-10.4-6.3-17.5-8.7-27.6-9.3-13.1-.7-28.1.6-28.1 2.4 0 .9 1.2 1.4 3.6 1.4h3.6l-4.6 3c-2.6 1.6-6.3 3.2-8.3 3.5-2 .4-3.9 1.2-4.2 1.7s0 .8.7.6c2.6-.6 1.9 1.7-2.4 7.6-6 8.5-6.1 8.7-4 7.9 1.7-.6 1.7-.5.1 1.4-2.3 2.5-2.5 5.1-.3 3.3 1.3-1.1 1.5-.7 1.5 2.4 0 4.6-1.8 5.4-7 3.1-2.1-.9-4.3-1.4-4.8-1.1-.6.3-1 2.6-1 5.1.1 3.6-.4 4.9-2 6-1.2.9-2.3 3.2-2.7 5.5-.4 2.4-1.4 4.4-2.6 5-1 .6-1.9 1.8-1.9 2.6s-.7 2.9-1.6 4.7c-3.3 6.2-2.4 8.5 8.3 21.9 3.3 4.2 5.1 7.3 4.7 8.2-.3.9-.8 1.6-1 1.6-.1 0-5.8-4.4-12.6-9.8-13.6-10.9-26.8-20.1-37-25.7l-6.8-3.7V173c0-4.3-1.1-15.5-2.5-25-3-20.6-3-20-.6-20 2.7 0 3.6-1.8 1.8-3.8-2.6-2.9-7-13.1-6.3-14.7.3-.8 1.6-1.9 2.8-2.4 1.3-.5 3.6-2.3 5.2-4 1.7-1.7 3.2-3.1 3.5-3.1s1.9 2.4 3.4 5.4c3.6 6.8 11.8 15 18.2 18.1 3.5 1.7 8.1 2.8 14.9 3.5 5.5.6 10 1.1 10.2 1.3.1.1 1.3 2.4 2.7 5.2 1.4 2.7 3.4 5.9 4.6 6.9 2.1 1.9 2.2 1.9 4.4-.2 1.3-1.2 2.8-2.2 3.4-2.2s1.6-.7 2.3-1.5c1-1.2 1-2.8-.1-8l-1.3-6.6 7.2-7.2c8.6-8.7 12.1-15.8 12.9-26.3 1.1-13.6-2.6-22.4-13.2-32.2-4.6-4.2-6.3-6.4-5.9-7.6.3-.9.1-2.2-.5-3-.8-1-.4-2.9 1.8-7.7 4.9-11 6.3-22.1 4-32.9l-1.1-5H169.3zm-2.4 87.6c-.4 4.1-.4 4.1-3.3 3.1-1.6-.5-2.9-1.4-2.9-1.8 0-.8 6.3-6.2 6.6-5.7 0 .1-.1 2.1-.4 4.4m226.3 37.2c-1.5 3-5.5 6.5-6.3 5.6-.6-.5 6-8.3 7.1-8.4.4-.1.1 1.2-.8 2.8M375 148.3c0 .2-1.2 1.4-2.7 2.8l-2.8 2.4 2.4-2.8c2.3-2.5 3.1-3.2 3.1-2.4m-202.6 28.8c.6 3.7.4 4.6-.9 4.6-1.6 0-2.1-4.9-.9-8.2.9-2.1 1-1.8 1.8 3.6M174 196c0 2.2-.4 4-1 4-1.1 0-1.3-3.9-.4-6.4 1-2.6 1.4-1.9 1.4 2.4m-2.1 11.9c.9.6 2.2.6 3.3 0 1.6-.9 1.8-.5 1.8 3.8 0 6.9-.9 9.6-2.9 8.7-.9-.4-2.4-.6-3.3-.6-2.2.1-2.5-1.2-2-7.6.4-5.4.7-5.8 3.1-4.3m.7 29.9c-1.4 1.3-1.7-1.1-1-6l.9-5.3.3 5.4c.2 2.9.1 5.6-.2 5.9M176 252v6.6l-4-.1h-4V254c0-7.4.6-8.5 4.6-8.5h3.4zm-4.3 22.2c-.2 1.8-.4.6-.4-2.7s.2-4.8.4-3.3.2 4.2 0 6m3.9 12.1c.3 1 .3 4-.1 6.8l-.7 4.9H167v-5.4c0-7.3.4-8.1 4.5-8.1 2.5 0 3.7.5 4.1 1.8m-4.9 27.4c-.2 1.6-.4.3-.4-2.7s.2-4.3.4-2.8c.2 1.6.2 4 0 5.5m2.9 16.6c-.3 3.3-.7 6.1-.9 6.2-.1.1-1.9.5-4.1.8l-3.8.6.6-3.1c.3-1.7.6-4.7.6-6.8 0-3.4.2-3.7 2.4-3.3 1.3.3 2.7 0 3.1-.6 1.6-2.7 2.7.4 2.1 6.2m-5.9 20.9c-.3.7-.5.2-.5-1.2s.2-1.9.5-1.3c.2.7.2 1.9 0 2.5m2.3 15c0 1.8-.3 5-.6 7-.6 3.4-.9 3.7-3 3.2-1.4-.4-3.1-.1-3.9.6-1.3 1-1.5.8-1.5-1.2 0-1.4.3-4.6.6-7.2.5-3.7 1-4.5 2.3-4.1.9.2 2.3 0 3.1-.5 2.5-1.6 3-1.2 3 2.2"/></svg>