<svg xmlns="http://www.w3.org/2000/svg" width="682.667" height="512" version="1.0" viewBox="0 0 512 384"><path d="M170.4 4.6c-.9 6.5.2 17.9 2.4 24.4 5 14.5 12.7 23.9 25.2 30.8 4 2.2 6.8 4.2 6.3 4.5-2.5 1.6-24.6.9-27.4-.9-1.9-1.1-5.7 2.5-7.1 6.7-1.1 3.3-2.3 4.6-5.7 6.5-6.4 3.4-12.1 8.2-12.1 10.2 0 2.3 1.9 4.2 4.1 4.2 2.6 0 6.5 5.9 8.8 13.4 2.6 8.4 2.6 10.6.2 15.9-1.1 2.4-2.3 5.5-2.7 7.1-.7 2.9-.4 3 5.2.9 1.5-.6 2.2 4.5 1.4 10.4-.3 2.7-.3 6.1.1 7.8 1.4 6.3 1 14.8-.8 16.7-2.2 2.4-3.2 18.8-1.3 22.2 1.4 2.8.8 12.9-1 15-2.5 3.1-3.2 21.7-.9 23.2 1.5.9 1 13.7-.6 15.8-2.1 2.8-2.1 20.8 0 22.6 2 1.7 2 13.7 0 16.4-2.2 3-2.1 20.9.1 22.7 1.3 1.1 1.5 2.6 1.1 7.9-.3 3.6-1.3 7.8-2.1 9.5-2.1 4-2.2 19.3-.1 22.1 1.9 2.5.9 11.5-1.8 16.7-2.6 5-3.5 19.2-1.6 23.6 1.2 2.7 1.9 3.1 5.5 3.1 7 0 8.5-2.1 9.7-13.2.9-8.5.9-9.9-.7-12.2-2.2-3.4-1.3-13.9 1.5-17.5 2.5-3.2 2.8-21.1.4-23.5-2.2-2.2-2-13.3.3-15.9 1.4-1.6 1.7-3.8 1.7-12.2s-.3-10.6-1.7-12.2c-2.5-2.7-2.5-12.9-.1-15.5 1.2-1.4 1.8-4.3 2.1-10.8.4-7.6.2-9.4-1.4-11.7-2.6-3.8-2.6-14-.1-16.5 2.4-2.6 3-18.1.7-22.3-.6-1.2-1-4.8-.8-8l.3-6 1.8 3.3c4.2 7.8 21.3 23.5 51 47.1 6.4 5.2 11.7 9.7 11.7 10.1s-1.7 3.2-3.7 6.2c-20.7 29.8-26.7 39-33.4 50-8.7 14.6-14.4 27-17 37.7-3 11.8-2.7 14.7 4.4 39.3 1 3.4 1.5 3.8 4.3 3.8 2.7 0 4.9-1.6 14-10.5 5.9-5.7 10.9-10.3 11-10.2s.7 4 1.3 8.7c.7 4.7 1.4 9.3 1.7 10.2.5 1.7 4.2 1.8 58.4 1.8h57.8l.6-2.3c.3-1.2.6-3.4.6-4.9 0-5 1.9-3.8 2.5 1.7l.7 5.5h8l-.7-9.3c-.3-5-1-16.2-1.6-24.7-1.2-17.9-3.8-44-4.5-45.2-.3-.4.2-6.8 1.1-14 1.8-13.6 3-16.8 6.6-16.8 1 0 2.1-.5 2.4-1 .3-.6 1.6-1 2.9-1 1.2 0 3.5-1.3 5.1-3s3.4-3 4-3c1.8 0 18.2-16.8 23.1-23.6 6.7-9.4 7.7-12.9 6.9-25.9-.6-11.2-2.5-20.2-5.1-24.3-1.7-2.6-3.2-1.6 14-8.7l11-4.4 6.1 4.3c3.3 2.4 7.6 5.1 9.5 6 1.9.8 5 2.7 6.8 4.2 6.5 5.4 3-.1-5.6-8.8-4.9-4.8-8.6-8.8-8.3-8.8s3.3 1.1 6.6 2.4c6.4 2.6 9.2 2.4 5.6-.5-2.1-1.7-2.1-1.8-.4-5.4 1.6-3.3 1.6-3.9.2-6.3-3.6-6.5-19.4-10.5-32.6-8.2-3.7.7-10.3 1.3-14.5 1.5-5.4.2-9.2.9-12.3 2.4-5.3 2.5-5.9 2.5-7.4.7-.9-1-.4-1.9 2.2-3.9 3.4-2.5 7.2-9 8.1-13.8.4-2 1.9-3.3 6.2-5.4 6.4-3.1 10.8-9 11.9-15.8.9-5.6 3.7-8.3 10.4-10.3 11.5-3.3 15.1-8.4 15.1-21.5 0-8-.1-8.2-1.9-6.5-1.5 1.4-2.3 1.5-4.5.5-3.2-1.5-4.2-.8-2.4 2 1.5 2.4 1.5 2.4-11.6 10.7-7.7 4.8-9.3 5.5-10.9 4.5-2.3-1.5-5.1.4-4.4 2.9.3 1.2-2.2 3.3-9.4 7.8-5.4 3.3-10.1 5.6-10.4 5.1-.4-.5-2.2-.9-4.1-.9-4.2 0-7.4 3-7.4 7 0 2.5-.9 3.6-5.8 6.9l-5.9 4-2.9-2c-5.6-3.8-16.5-8.9-22.1-10.4-9.6-2.5-37-1.7-37 1.1 0 .9 1.3 1.4 3.6 1.4h3.6l-5 3c-2.7 1.6-5.9 3-7.1 3-1.1 0-2.9.7-4 1.5-1.8 1.4-1.8 1.4.4.8 3-.7 2.8.3-1.1 5.1-7.2 9-9.1 12-7.4 11.3 2.1-.8 2.2.6.2 2.3-2.2 1.8-1.9 3.3.4 2.1 1.8-1 1.9-.8 1.4 3.2-.3 2.3-.7 4.4-.9 4.5-.1.2-2.3-.6-4.9-1.7s-5.1-1.8-5.6-1.5-.9 2.5-.9 4.9c0 3.5-.5 4.8-2.5 6.3-1.4 1.1-2.5 2.8-2.5 3.8 0 3.7-1.2 6.3-3.1 6.9-1 .4-1.9 1.2-1.9 1.9 0 .8-.9 3.4-2 5.9-2.6 5.9-1.8 7.9 7.4 20 3.6 4.8 6.6 9.1 6.6 9.7 0 1.7-1.5 1.1-5.1-2.1-10-9.1-26.8-22.1-37.3-29-6.5-4.3-12.2-7.9-12.7-8.1-.8-.3-1.3-3.6-2.4-17.8-.5-6.2-2.5-19.9-4.9-34.1-.4-2.3-.1-2.8 2.6-3.3 3-.6 3-.7 1.4-2.5-1.8-2-7.6-13.6-7.6-15.2 0-.5 1.2-1.5 2.8-2.2 1.5-.6 4-2.4 5.5-3.9 1.6-1.6 3.2-2.8 3.5-2.8.4 0 1.9 2.6 3.4 5.8 3.2 6.9 11.5 15.4 18.3 18.7 2.9 1.4 8.4 2.9 13 3.5 4.4.6 8.8 1.3 9.8 1.6 1.1.3 3.1 3.3 4.8 6.9 3.2 7 5.6 8.7 8.8 5.8 1-1 3-2.6 4.4-3.5l2.5-1.7-1.5-6.2-1.6-6.1 8.1-8.1c8.6-8.8 11.2-13 13.2-21.6 3.2-13.5-1.1-27.2-11.5-37-5.2-4.8-6.2-6.3-5.8-8.3.3-1.4 0-2.9-.5-3.2-.7-.4 0-3.1 1.9-7.1 5.4-12 6.9-21.1 5.3-32.9l-.7-4.6H171.1zm-4 83.1c-.6 4-.7 4-3.5 3-1.6-.6-2.9-1.5-2.9-1.8 0-.9 6.3-5.9 6.8-5.5.1.2 0 2.1-.4 4.3m226.1 42.6c-1.5 2.4-6.5 6.4-6.5 5.2 0-.9 7.3-8.6 7.7-8.1.3.2-.3 1.6-1.2 2.9m-17.5 20c0 .2-1.2 1.4-2.7 2.8l-2.8 2.4 2.4-2.8c2.3-2.5 3.1-3.2 3.1-2.4m-201.6 24c1.3 5.4 1.3 5.5-1.1 5.3-1.9-.1-2.3-.6-2.3-3.6 0-3.9 1-8.3 1.7-7.6.2.2 1 2.9 1.7 5.9m-.8 23.5c-1.3 1.2-1.6-.7-.9-5.4l.8-4.9.3 4.9c.2 2.6.1 5.1-.2 5.4m2.9 14.6c-.4 3.3-.8 6.2-.9 6.3s-1.5-.1-3.2-.5c-2.5-.7-2.9-1.4-3.2-4.7-.6-6.7.2-8.2 4.4-7.7l3.6.4zm-3.6 18.8c0 4.2-.3 5.6-.8 4.3-.5-1.1-.7-2.7-.5-3.5.1-.8.3-2.7.3-4.3.1-1.5.3-2.7.6-2.7s.5 2.8.4 6.2m2.9 19.2-.3 6.1h-7l-.1-6.2-.1-6.2 3.9.1h3.9zm-4.1 22.8c-.2 1.8-.4.4-.4-3.2s.2-5 .4-3.3c.2 1.8.2 4.8 0 6.5m4.1 16.4.3 6.2-4.1.4-4 .4v-13.3l3.8.1 3.7.1zm-4.1 23.1c-.2 2.1-.4.6-.4-3.2 0-3.9.2-5.5.4-3.8.2 1.8.2 5 0 7M174 329c0 6.9 0 7-2.4 6.4-1.3-.3-2.7-.1-3 .5-1.6 2.5-2.6.7-2.6-4.7 0-5.8 1.1-8.9 2.6-8 .5.3 1.8.2 2.9-.3 1.1-.4 2.1-.8 2.3-.8.1-.1.2 3.1.2 6.9m-4.9 22.5-.9 4-.1-3.5c0-1.9.2-4.6.6-6 1.2-4.1 1.6.7.4 5.5m2.9 12.9c0 1.3-.3 4.4-.6 7-.6 3.9-1 4.6-2.5 4.1-1-.4-2.7-.1-3.9.5-2.3 1.2-2.4.8-1.3-7.8.5-4.2.9-5.1 2.2-4.7.9.2 2.3 0 3.1-.5 2.3-1.5 3-1.2 3 1.4"/></svg>