<svg xmlns="http://www.w3.org/2000/svg" width="682.667" height="512" version="1.0" viewBox="0 0 512 384"><path d="M176.3 9.2c1.3 22.3 8.6 34.3 29.7 49 2.4 1.7 2.1 1.8-9 1.3-6.3-.2-14.3-.7-17.8-1.1-7.3-.8-8.6 0-10.4 5.9-.9 3.1-2 4.3-4.7 5.4-4.8 2-14.1 9-14.1 10.7 0 1.5 3.4 4.8 4.2 4.1 1.6-1.6 6.8 7.4 9.4 16.2 2.4 8.3 2.6 9.8 1.5 12.6-2.8 7-4.3 11.8-3.9 12.3.3.2 1.8 0 3.3-.6 4.1-1.5 4.7-.2 3.6 6.9-1 6.4-.6 11.6 1.2 13.8 1.2 1.6 0 10.1-1.8 13-2.5 3.8-3.8 15.1-2.4 21.5 1.3 6.4.8 15.6-1 16.7-2.5 1.6-4.2 22.3-2 23.7 1.7 1 .4 13.1-1.8 17.4-2.5 4.9-3.2 21.7-.9 22.6s2.3 14 0 16.5c-1.2 1.3-1.6 4.3-1.7 12.4-.2 9.2 0 10.8 1.6 11.6 2.4 1.4 2.4 13.8.1 17.4-2.4 3.6-1.6 20.5 1 23.4 1.6 1.8 1.8 3.2 1.2 10.8-.3 4.8-.9 10.7-1.2 13s-.1 7.4.6 11.3l1.2 7.1 7.1-.3 7.2-.3v-11.1c0-9-.3-11.6-1.7-13-.9-1.1-1.9-4.7-2.3-8.7-.6-5.7-.5-7.1 1-8.7 2.4-2.7 1.9-21.8-.8-24.7-2.2-2.5-2.3-11.7-.1-18.3 2-6 1.6-19.8-.5-22.4-1.9-2.2-1.5-13.1.5-16.2.9-1.3 1.8-5.9 2.1-11.3.5-7.5.3-9.4-1.1-11.7-1.4-2.1-1.6-3.8-1.1-8.7.4-3.4 1.3-6.9 2-7.7 3.2-3.6 4.6-20.9 1.9-23.1-1.3-1.1-1.5-2.5-1-7.8.4-3.5.9-6.8 1.2-7.3s2.2 1.9 4.2 5.4c4.3 7.4 28.7 32.3 48.2 49.2 17.2 14.9 15.6 13.2 13.8 15.3-2.6 3-38 56.1-43.7 65.5-5.7 9.6-12.9 24.5-15.6 32.3-1.2 3.4-1.9 9.4-2.3 19.2l-.5 14.3h8c6.9 0 8.7-.4 13.5-3 3-1.7 8-5.2 10.9-8 3-2.7 5.7-5 6-5 .4 0 1.2 3.6 1.9 8l1.2 8H354v-11.3c0-6.1-.7-18.6-1.5-27.7-2.4-26-2.9-42.5-1.6-53 1.1-8.4 1.5-9.8 3.9-11.6 1.4-1.2 3.2-2 3.8-1.7.6.2 1.4-.3 1.8-1.2.4-1.1 1.2-1.5 2.2-1.1 1.6.6 7.4-2.2 7.4-3.6 0-.4 1.5-1.5 3.3-2.4 3.5-1.8 5-3.1 15-13.3 7-7.2 13.1-15.1 16.2-21.1 1.5-2.9 1.7-5.1 1.2-15-.6-12-2.5-20.2-5.9-25.8-1.2-1.9-1.7-3.7-1.2-4.2s6.7-3.2 13.7-6l12.8-5.2 6 4.2c3.3 2.3 8.3 5 11 6s6.3 3 8 4.4 3.5 2.6 4 2.6c2 0-1.7-4.8-10.2-13.3-4.8-4.8-8.4-8.7-7.8-8.7.5 0 2.9 1 5.2 2.1 8.5 4.4 12.5 4.5 8.5.2l-2.2-2.3 2.4-3.2 2.3-3.2-3.8-3.2c-9.9-8.6-31.1-10.4-46.6-3.9-3.5 1.5-7.8 2.5-10.6 2.5-2.7 0-5.7.6-6.8 1.4-3.9 2.6-6.3 2.8-7.5.6-.9-1.7-.7-2.4 2-4.6 3.4-3 7-9.2 7-12.4 0-1.5 1.2-2.6 4.3-3.9 7.9-3.5 12.8-9.7 14.2-17.8.7-4.7 4-7.5 10.4-8.8 5.4-1.1 10-4.4 12.6-9 2.1-3.5 2.5-5.5 2.5-11.8 0-7.5-.5-8.8-2.6-6.7-.8.8-1.9.7-3.8-.1-3.1-1.5-4.5-.5-2.9 2.1 1.5 2.2 1.7 2-10.4 9.3-7.9 4.8-9.7 5.5-12.7 5-2.7-.4-3.6-.2-3.7.8-.1.8-.2 2-.3 2.8-.2 2-18.1 12.1-19.7 11-.8-.5-2.8-.9-4.6-.9-3.6 0-7.3 3.8-7.3 7.6 0 1.6-1.3 3.2-4.4 5.4-2.5 1.6-4.9 3-5.5 3-.5 0-3-1.3-5.4-3-9.5-6.4-19.3-10.2-28.5-11.1-8.4-.9-30.8-.2-29.7.9.2.3-.1 1.2-.7 2-1.1 1.3-.6 1.4 3.2.8l4.5-.7-4.4 2.5c-2.4 1.5-6.1 2.9-8.2 3.2-4.3.7-6.3 2.4-2.9 2.4 1.8 0 1.1 1.3-4.6 8.7-3.7 4.7-5.9 8.3-5 8 2.1-.8 2 .1-.1 2.5-1.9 2.1-1 3.6 1.2 1.8 1.3-1 1.4-.6 1.1 3.6-.2 2.7-.9 5-1.5 5.2s-3.1-.6-5.6-1.8c-2.4-1.2-4.9-1.9-5.5-1.5-.5.3-1 2.6-1 5 0 3.5-.5 4.7-2.5 6.2-1.7 1.2-2.8 3.2-3.3 6.3-.5 3.3-1.3 4.8-3 5.5-1.2.5-2.2 1.6-2.2 2.3s-.9 3.1-2.1 5.4c-1.3 2.6-1.8 4.9-1.4 6.6.7 2.8 5.2 9.7 10.1 15.6 1.8 2.1 3.8 5.2 4.3 7l1.1 3.1-2.6-3.2c-4.4-5.6-30.2-28.1-40.8-35.6-5.6-3.9-10.4-7.6-10.8-8.2-.4-.5-.8-3.3-.8-6 0-5.4-2.7-23.2-6-38.9-2.5-12.1-2.5-11.6.4-11.6 2.8 0 4.4-1.8 2.3-2.5-1.9-.8-8.1-14-7.4-15.9.4-.9 1.5-1.6 2.5-1.6s2.8-1.1 4-2.5 2.5-2.5 3-2.5c.4 0 1.4 2 2.1 4.5 1.9 6.4 8.6 16 14 19.9 6.2 4.5 9.6 6.1 16.1 7.5 11.5 2.6 11.7 2.7 13.6 8.4 2.3 7.2 4.2 10.7 5.7 10.7.7 0 3.4-1.4 6.1-3l4.7-3-.3-7.2-.3-7.1 6.6-5.1c3.6-2.8 8-6.7 9.8-8.6 6.5-7.1 9.6-17.5 8.9-30.5-.5-10-2.9-15.4-10.5-23.5-3.3-3.6-4.9-6.1-4.3-6.5.7-.4.9-1.9.5-3.5-.5-2.1.1-3.9 1.8-6.7 6.7-10.7 10.6-25.8 9-35.6l-.8-5.2-55.4-.3-55.4-.2zm-10.6 71.9c-.3 2.2-.7 4.2-.9 4.5-.6.5-6.8-1.9-6.8-2.7 0-1 6-5.9 7.2-5.9.7 0 .9 1.5.5 4.1M398 131.5c0 .9-6.2 7.5-7.2 7.5-1.1 0 5.3-8 6.5-8 .4 0 .7.2.7.5m-224.1 39.2c.6 3.1 1 5.7.8 5.8-.1.2-1.6 0-3.4-.2-2.8-.5-3.2-.8-2.8-3.2 1.6-10.3 1.6-10.3 2.9-9.2.7.6 1.8 3.7 2.5 6.8m-2.8 23c-.8 1.4-1 .8-1.1-2.9 0-6.7 1.4-9.6 1.8-3.6.2 2.6-.2 5.6-.7 6.5m2.5 15.6c-.3 3.3-.7 6.2-.9 6.3-.2.2-2 .1-4.1-.3l-3.7-.6.7-5.6c.3-3.1.8-5.9 1-6.2.1-.3 1.9-.3 4-.1l3.7.4zm-5.5 24.4c-.8 1.4-1 .5-1.1-3.8 0-3.1.3-5.9.8-6.3 1.1-1.2 1.4 8.2.3 10.1m2.4 9.3c.3.5.3 3.6-.1 6.8l-.6 5.8h-3.4c-3.7-.1-3.7-.1-3.4-6.1.2-6.3.8-7.5 4-7.5 1.6 0 3.2.4 3.5 1m-4.8 29.2c-.2 1.8-.4.4-.4-3.2s.2-5 .4-3.3c.2 1.8.2 4.8 0 6.5m4.1 16.5-.3 6.8-3.7.3-3.8.3v-6.5c0-7-.3-6.6 6.8-7.5 1-.1 1.2 1.6 1 6.6m-4.1 24c-.2 2.1-.4.6-.4-3.2 0-3.9.2-5.5.4-3.8.2 1.8.2 5 0 7m4.8 16.4c.4 3.3.5 6.2.3 6.4-.2.3-2 .6-3.9.7l-3.4.3-.3-6.2c-.3-6.5-.3-6.5 5.5-7.2.6 0 1.4 2.3 1.8 6m-1.6 25.1c.1 4.9-1.7 3-2.1-2.1-.4-6.7.4-9.6 1.3-4.6.4 2.2.8 5.2.8 6.7m3.5 12c.3 1.3.6 4.5.6 7.2 0 4-.3 4.7-1.6 4.2-.8-.3-2.4-.1-3.4.4-1.6.9-2 .7-2.4-1.2-1.6-7.7-1.4-12.4.5-11.3.5.4 1.7.1 2.6-.4 2.6-1.5 3-1.4 3.7 1.1"/></svg>