<svg xmlns="http://www.w3.org/2000/svg" width="682.667" height="512" version="1.0" viewBox="0 0 512 384"><path d="M0 192v192h294.2l-.5-2.2c-.9-3.4-3.2-17.2-7.8-45.2-6.9-42.7-15.1-70.3-22.5-75.1-1.3-.8-8.4-2.6-15.8-4-23-4.3-27.1-6.5-39.4-22.3-9.7-12.5-10.2-13.7-10.2-26.5 0-5.9.4-11.7 1-12.7 1.2-2.3 6.2-7.3 10-10 1.5-1.1 5.3-4.4 8.3-7.3 5.2-5 5.4-5.4 4.1-7.7-.7-1.4-1.3-3.1-1.4-3.8 0-2.1 2.9-1.3 4.6 1.3l1.7 2.5 4.1-3.3c8.1-6.7 11.9-8 22-7.5s14.1 2 21.4 8.4c11.5 9.9 20.2 27.7 20.2 41.4 0 7.6-1.2 10.6-6.3 15.8l-4.1 4.2 5.2 5.2c9.8 9.6 16.6 22.1 26.8 49 1.6 4.3 3.1 7.8 3.4 7.8s1.8-1.9 3.5-4.2c1.6-2.3 7.3-8.7 12.5-14.3 12.8-13.3 13-13.6 13-21.6 0-11.9 1.7-17.5 8.1-27.2 3.3-4.9 5.9-9.1 5.9-9.5s-2.5-3.4-5.4-6.8c-5.3-5.9-5.4-6.2-4-8.9 1.9-3.7 1.8-5.3-.8-9.2-2.6-3.7-3.4-4-4.2-1.6-.3 1-1.7 3.1-3.2 4.8l-2.5 3 .6-4.8.6-4.8-5.3 3c-6.8 3.8-14.5 6.3-16.9 5.6-1-.4-3.9-3.7-6.3-7.5-2.4-3.7-5.4-7.1-6.5-7.5-1.5-.4-2.1-1.6-2.3-4.8-.3-3.5-.8-4.5-3.8-6.3-5.6-3.5-8-6.2-8-8.8 0-4.3-2.1-7.3-6.6-9.5-8.1-4.1-8.3-7.4-.9-12.6 3-2 5.5-4.1 5.5-4.5 0-.5-1.2-2.1-2.7-3.7-1.6-1.5-4.5-4.8-6.6-7.3-3.7-4.4-3.8-4.4-3.2-1.5.4 1.6 1.6 4.1 2.8 5.4l2.2 2.4-2.2-1.2c-3-1.5-3.3-1.4-3.4 1.1 0 1.8-.5 1.3-1.9-1.8-2.4-5.4-5.2-6.7-4.4-2.1l.5 3.2-2.9-3.3c-3.4-3.8-4.2-4-3.4-1 .5 2.1.4 2.1-1.1.9-2.1-1.7-9.7-16.7-9.7-19.2 0-2.3-3.8-5.9-6.2-5.9-2.6 0-21.5-12.8-22.1-15-.6-2.1-21-16.4-23.5-16.5-1 0-4-1.6-6.6-3.5C188 57.9 171 43.9 171 43.1c0-.5-1.6-2.8-3.6-5.2-3.1-3.7-3.4-4.4-2-5.4 2.5-1.9-4-7.5-9.5-8.2-3.6-.4-5.4-1.5-9.6-5.6-4.1-4-5-5.4-4.3-6.8.7-1.3.4-2.1-1.6-3.3-1.3-1-3.2-3.3-4.1-5.1L134.6 0H0zM501.3 19c-2.4 1-3.2 4.6-3.6 16l-.2 6.4 4.5.8c2.5.4 5.7.9 7.3 1.2l2.7.5V18l-4.2.1c-2.4 0-5.3.4-6.5.9M370.5 382c-1.8 2-1.8 2 .8 2 2.8 0 3.2-.6 1.9-2.8-.7-.9-1.3-.8-2.7.8"/></svg>