<svg xmlns="http://www.w3.org/2000/svg" width="682.667" height="512" version="1.0" viewBox="0 0 512 384"><path d="M181.3 9.2c1 16.5 5.6 26 18.6 38.7 7.6 7.4 8.2 8.3 5.6 7.8-1.7-.3-6.4-.9-10.5-1.2s-10.5-1.3-14.1-2.1c-9.6-2.2-11-1.8-13.8 4.1-2.1 4.4-3.2 5.4-9 8.2-8.6 4.1-12.1 6.9-12.1 9.8 0 2.6 2.2 4.8 4.1 4 2.2-.8 6.6 7.1 9.4 16.8 3 10.4 3.1 13.1.6 18.8-1 2.4-2.2 5.7-2.5 7.3-.6 2.4-.4 2.8 1.1 2.3 6.9-2.2 6.3-3 5.6 8-.4 7-.2 10.2.6 10.7 1.9 1.2 1.3 11.1-1 15.5-2.5 4.9-3.3 20.7-1.1 23.4 1.6 1.9.6 13.1-1.5 16.3-.7 1.1-1.7 5.5-2.3 9.7-1 7.8-.5 13.2 1.3 15.5 1.4 1.7.1 13.6-1.7 16.5-3.3 4.9-4.3 24-1.5 25.8 1.5.9-.6 12.3-3.1 17.5-2.8 5.7-4 22.3-1.8 24.1 1.2 1.1 1.3 2.3.2 8.3-.6 3.8-1.7 7.6-2.3 8.4-1.5 1.8-4.1 13.9-4.1 19.2q0 4.05 1.8 5.7c1.6 1.4 1.7 2.6 1.1 9.2-.4 4.2-1.2 8.2-1.8 8.9-.7.8-1.4 5-1.8 9.5l-.6 8.1h6.5l-.4-4.9c-.3-4.7-.2-4.9 2.8-6 1.7-.6 3.3-1.1 3.7-1.1s.7 2.7.7 6c0 5.7.1 6 2.5 6 2.3 0 2.5-.4 2.6-4.8.2-7.2-.1-9.5-1.7-11.9-1.9-3-1.9-14.6 0-17.6 3.3-5 4.8-22.5 2.1-24.7-2-1.7-1-12.5 1.6-16.2 3.7-5.3 5.4-23.5 2.5-26.7-1.9-2.1-.1-13.7 2.5-16.7 1.3-1.3 2.2-4.7 2.9-9.9 1.1-8.4.6-14-1.5-16.5-1.8-2.2-.3-14.5 2.1-17.1 1.6-1.7 2-4.1 2.2-13.1.3-8.2 0-11.2-1-12.1-.9-.9-1.2-3-.8-7.7l.5-6.4 4 6.9c6.1 10.5 19.8 25 57.2 60.8l9.2 8.8-3.3 5.2c-1.8 2.8-4.6 5.9-6.2 6.7-1.7.9-4.2 4-5.9 7.2-1.6 3-4 7-5.2 8.9-1.3 1.9-2.3 4.6-2.3 6s-5.3 13.1-11.8 26c-15.5 30.7-19.8 44-18.6 57.5l.7 7.4H358v-2.8c0-1.5-.7-11-1.5-21.2-2.8-33.7-2.9-39.6-1.1-53.4 1.9-14.5 2.7-16.6 6.1-16.6 1.3 0 2.6-.4 3-1 .3-.5 1.2-.7 2-.4.7.3 1.8-.4 2.4-1.5.7-1.2 1.7-1.8 2.6-1.5 1.7.7 7.4-2.3 9.3-4.9.7-.9 2-1.7 2.8-1.7s3.4-1.8 5.8-4 4.5-4 4.7-4c1.1 0 13.9-13.2 17.5-18 9.8-12.9 11-18.8 7.4-35.1-2.4-10.7-4.9-16-9-19-4-3-2.7-5.1 4.7-7.9 3.2-1.1 9.9-3.7 15-5.7l9.2-3.6 7.3 4.9c8.5 5.8 11.9 7.4 15.6 7.4 1.5 0 5 1.4 7.7 3 2.8 1.6 5.3 3 5.8 3 3.2.1-6.3-12.4-14.9-19.3-3.7-3.1-5.8-5.5-5.1-5.9.6-.3 4.1.9 7.9 2.8 6.4 3.2 11.8 4.4 11.8 2.6 0-.5-1.1-1.9-2.5-3.2-1.7-1.6-2.5-3.4-2.5-5.6 0-3.1.3-3.4 4.3-4.4 10.4-2.6 11-4.3 2.6-7.8-5.2-2.1-6.2-2.2-25.4-1.7-17.9.5-21.3.9-32.5 3.7-6.9 1.7-13.7 3.7-15.2 4.4-3.2 1.7-13.4 1.9-14.3.3-.4-.5 0-1.8.8-2.7s1.9-3.1 2.4-4.7c.7-2.1 2.4-3.8 5.8-5.6 6.5-3.5 10.1-7.8 12.1-14.6 2.1-7.3 3.5-8.9 8.5-9.7 11.3-1.8 20.6-12.2 18.4-20.4-.5-1.5-.8-3.8-.9-5.2-.1-2-.6-2.5-3.2-2.6-1.6-.1-4-.5-5.2-.8-2.6-.9-2.8.1-.6 2.5 1.4 1.5 1.3 1.9-1.4 3.8-1.7 1.2-3.2 2.1-3.5 2.1s-3.8 1.8-7.8 4.1c-6.2 3.6-7.5 3.9-9.7 3-2.9-1.4-4.9-.1-5.4 3.2-.4 3.2-16 11.2-18.8 9.7-2.7-1.5-7.2-1.2-9.7.5-1.3.9-2.7 3.4-3.3 5.5-.7 2.7-2 4.4-3.9 5.4-2.6 1.4-3 1.3-9.2-3.1-3.5-2.5-9.7-6.1-13.8-8.1-6.6-3.2-8.6-3.6-19-4.3-6.4-.4-15.3-1-19.8-1.3-5.3-.4-8.3-.2-8.3.4 0 .5.8 1 1.7 1 2.2 0 .9 1.2-3 2.8-3.2 1.2-3.2 1.2 1.3.7 4.3-.5 4.4-.4 2 1-1.4.8-3.2 1.4-4 1.5-.8 0-3.3.5-5.5 1.2-3.8 1.1-3.9 1.2-1.3 1.7 2.7.6 2.7.6-4.7 9.1-7.6 8.8-8.7 10.4-5.9 9.3 1.5-.5 1.5-.3-.1 2-.9 1.5-1.3 2.7-.7 2.7s1.4-.4 1.7-1c1-1.5 2.8-1.2 2.2.4-1.4 3.7-1.9 8.9-.8 8.2.7-.5.9-.1.4.9-.7 2-4.9 1.4-10.4-1.4-4.5-2.4-5.9-1.4-5.9 4.3 0 3.4-.5 4.6-3.1 6.7-2.4 1.9-3.2 3.5-3.6 7.1-.5 3.9-1 4.7-3.7 5.9-1.7.8-3 2-2.8 2.8.1.7-.6 2.9-1.8 4.8-1.1 1.9-2 4.4-2 5.7 0 2.3 3.8 8.9 9.6 16.4 7.1 9.4 2.9 7.1-9.3-5-14.5-14.3-19.4-18.7-30.8-27.1-4.4-3.3-8.3-6.4-8.7-7.1-.4-.6-.8-3-.8-5.4 0-5.5-2.2-20.1-5.9-38.6-1.6-8.3-2.8-15.4-2.5-15.8s1.6-.8 3-.8c2.9 0 3-.7.5-3.4-2.9-3.3-7.3-12.2-6.9-14.2.1-1 1.6-2.1 3.2-2.5 1.7-.5 3.4-1.5 3.8-2.4 1.4-2.5 2.5-1.7 3.2 2.2 1 6.1 5.9 15.4 11.4 21.3 5.4 6 12 9.8 22.7 13.1 6.4 2 6.4 2 8 7.1.8 2.8 1.5 5.7 1.5 6.3 0 1.5 3 7.5 3.7 7.5.3 0 1.6-.9 3-2s3.6-2 4.9-2c3.2 0 4.4-2.8 4.4-9.9 0-6.6.6-7.4 11-13.4 14.1-8.1 21.9-23.5 20.8-41.3-.5-8.9-2.4-13.4-9.4-22.6-2.5-3.4-3.9-6-3.3-6.4.6-.3.9-1.8.8-3.2-.2-1.8.9-4.3 3.4-7.7C293.6 32.3 298 19.8 298 7.3V0H180.7zm-19.7 70.5c-.6.6-7.4-1.6-8-2.6-.3-.4 1.4-2 3.7-3.5l4.2-2.7.3 4.2c.2 2.2.1 4.3-.2 4.6m241.8 61.5c-1.3 2.3-3.8 5-5.6 5.9-2.6 1.4-2.2.5 1.3-3.6 3-3.4 5.8-4.8 4.3-2.3m-233 26.6c.3 2 .9 4.8 1.2 6.1.6 2.1.5 2.2-1.5 1.2-1.2-.7-2.6-.9-3.1-.6-1.1.7-1.4-6.6-.4-10.3.9-3.2 3-1.2 3.8 3.6m-1.3 26.9c-.8 1.4-1 .3-1.1-4.3 0-3.3.3-6.4.8-6.8 1.1-1.2 1.4 9.2.3 11.1m1 9c1.7-.5 1.9.1 1.9 5.1 0 7.4-.7 8.3-5.4 7.5l-3.8-.6.6-5.1c.3-2.8.6-5.9.6-6.9 0-1.5.3-1.6 2.1-.6 1.2.6 3 .9 4 .6m-4 31.3c-.9 2.2-1 2-1-2-.1-2.5.3-5.6.7-7 .6-2.1.7-1.7 1 2 .2 2.5-.1 5.7-.7 7m2.8 15.5c-.2 7.8-.8 9-5.2 9H160v-5c0-8.2.6-9.1 5.1-9h3.9zm-5.5 21.7c-.7 5.8-2.3 9.9-2.4 6.2 0-4.3 1.3-11.4 2.2-11.4.5 0 .6 2.3.2 5.2m1.5 19c-.2 7.7-1.2 10.3-3.6 10-1.2-.2-3.2.2-4.3.8-2.1 1.1-2.2 1-1.5-4.7.9-8.3 1.4-9.5 3.3-8.9.9.3 2.4.1 3.2-.4 2.6-1.6 3-1.1 2.9 3.2m-6.4 25.2c-.4 3.1-1.2 5.6-1.7 5.6-.8 0-.3-7.4.8-10.9 1-3.1 1.5.1.9 5.3m1.1 24.2c-.4 1.6-1.5 2.3-4.1 2.6-4.2.5-4.6-.4-3.8-7.2.5-4.2.9-5 2.7-5 1.2 0 2.8-.5 3.6-1 1.2-.8 1.6-.1 1.8 3.7.2 2.6.1 5.7-.2 6.9m-4.9 20.6c-.2 1.8-.4.4-.4-3.2s.2-5 .4-3.3c.2 1.8.2 4.8 0 6.5"/></svg>