<svg xmlns="http://www.w3.org/2000/svg" width="682.667" height="512" version="1.0" viewBox="0 0 512 384"><path d="M181.4 5.6c1.5 12.9 6.8 22.5 19.2 34.9 4.4 4.3 7 7.5 5.9 7.1s-6-1.2-11-1.8c-4.9-.5-13.1-2.1-18.2-3.5-5-1.4-9.8-2.3-10.7-2-.9.4-2.8 3.2-4.3 6.4-1.8 3.8-3.5 5.9-4.8 6.1-2.6.5-13.3 5.7-16.5 8.2-2.1 1.6-2.3 2.2-1.5 4.7.8 2 1.8 2.9 3.8 3.1 3.8.5 6.9 6.2 10.7 20 3.5 12.3 3.5 14 0 24-1.2 3.5-2 6.5-1.8 6.8.3.2 2.1-.3 4.1-1.1 4.2-1.7 5.2-.8 3.6 3.2-1 2.6-1.1 7.1-.8 25.6 0 4.4-.5 8.1-1.5 10.2-.9 1.8-2.1 6.9-2.7 11.3-.9 6.4-.8 8.5.4 11.3 1.8 4.3.8 16.9-1.6 21.4-1 1.9-1.9 7-2.3 12.8-.6 8.3-.5 10 1 11.6 1.4 1.5 1.6 3 1 8.7-.4 3.8-1.3 8.5-2.1 10.4-2 5-2.8 21.7-1.2 25.5s1.2 17.6-.7 22.1c-2 4.7-2.3 24.6-.5 26.8 1.8 2.1.8 14.8-1.5 19.4-1.9 4-3.2 24.8-1.6 27.8 1.2 2.3-.4 12.1-2.4 14.5-.8.8-1.4 1.9-1.4 2.2 0 1.1 13.8.8 14.4-.2.4-.5.9-3.1 1.2-5.8.4-2.7 1.8-6.5 3.3-8.7 2.4-3.6 2.6-5 3-15.4.2-7.8-.1-12.1-.9-13.7-1.6-3-.9-18.3.9-19.4 2.9-1.9 4-26.6 1.2-29.4-1.4-1.4-1.5-18.4 0-18.9 1.7-.6 2.9-7.7 2.9-17.4 0-7.1-.4-9.4-1.6-10.4-1.2-1.1-1.4-2.7-.8-9.4.4-4.6 1.4-9.2 2.3-10.5 2.1-3.3 2.9-22.2 1.1-25.7-1.4-2.6-.8-15 .9-16.7.5-.5 2.2 1.6 4.1 5.5 6.9 13.7 20.5 29.7 57.8 67.8 6.7 6.9 12.2 12.9 12.2 13.4 0 1.8-8.4 12.8-10.4 13.6-2.7 1-6.2 5.1-7.2 8.3-.4 1.2-2.2 4.3-4 6.8-2 2.8-3.8 6.7-4.4 9.7-.5 2.8-2.3 7.3-4 10-10.6 17.2-22.9 48.3-24.5 62l-.6 5.2H362v-4.8c0-2.6-.7-11.7-1.5-20.2-1.6-15.3-1.6-15.8.8-32 2.4-17 4.1-22.4 6.7-22.6.8-.1 2.5-.2 3.8-.2 1.2-.1 3.1-1.1 4.1-2.1 1.3-1.3 2.1-1.6 2.4-.8s1 .7 2.4-.6c1.1-.9 3.1-1.7 4.5-1.7s3.7-.9 5-2c1.4-1 2.8-1.7 3.1-1.3.4.3.9-.2 1.3-1.1.3-.9 2.5-2.5 4.9-3.5s5.6-3.3 7.1-5 3.4-3.1 4.2-3.1 3.7-2.5 6.5-5.5c2.7-3 5.5-5.5 6.2-5.5 1.4 0 13.1-14.9 16.1-20.5 3.4-6.4 3.7-11 1.4-20-3.2-12.3-7.1-19.8-12.1-23.4-2.3-1.7-5-3.1-6.1-3.1-1 0-2.1-.6-2.4-1.4-1.4-3.6 1.6-5.3 18.8-11.3 9.5-3.3 18-6.3 18.8-6.7.9-.4 4.1 1.3 8.5 4.5 9.7 7.1 13 8.6 20.5 9.1 3.8.3 9.2 1.7 12.9 3.2 3.5 1.5 6.5 2.5 6.8 2.2 2.2-2.2-8.3-15.9-17.9-23.6-7.8-6.2-6-7.6 3.5-2.7 6.9 3.5 14.6 5.1 16.4 3.3.8-.8-3.8-5.3-9.3-9.2l-2.9-2.1 7.8-3.6 7.7-3.6V151h-3.8c-6.3 0-19.9 1.9-35.7 4.9-8.2 1.6-19.3 3.4-24.5 4s-12.8 2.2-16.9 3.6c-5.6 1.9-9.5 2.5-15.8 2.5-4.9 0-8.3-.4-8.3-1s.5-1 1-1c.6 0 3.1-1.9 5.5-4.1 3.5-3.2 4.9-5.6 6.4-10.2 1-3.4 2.5-6.5 3.2-6.9.8-.4 4-1.2 7.2-1.9 4.9-.9 6.7-1.9 10.7-5.7 3.7-3.6 4.9-5.7 5.5-8.9.9-5.8-.9-10.9-4.5-12.8-5.2-2.7-9.1-1.5-5.4 1.6 1.4 1.1.2 2-9.2 6.7-9.7 4.9-10.9 5.3-13.1 4.1-2.9-1.6-5.5-.3-6.3 3-.4 1.6-2.4 3.1-7.3 5.2-5.9 2.6-7.3 2.9-9.9 2-6.9-2.4-12.9-.2-14.8 5.4-.6 1.9-1.3 3.5-1.6 3.5-.2 0-4.1-2.8-8.6-6.1-4.6-3.4-11.7-7.8-15.8-9.8-6.7-3.2-8.4-3.6-16-3.7-4.7-.1-12.5-.9-17.4-1.8s-10.3-1.6-12-1.5l-3.1.1 2.8 1.1c3.6 1.4 3.4 2.4-.5 3.2-1.8.4-4.2 1.4-5.3 2.1-1.1.8-3 1.4-4.2 1.4-1.3 0-2.3.4-2.3 1 0 .5 1.2 1 2.6 1 2.5 0 2.5.1-1.8 4.3-6.5 6.4-13.6 15.2-11.5 14.4 1.8-.7 2.4.7.7 1.8-.5.3-1.5 1.5-2.1 2.6-1 2-1 2 1.5.4 3-2 3.2-1.3 1.1 4.5-1.8 5.2-1.8 5.1-.1 4.4.8-.3 2-1.9 2.6-3.5.7-1.6 1.4-2.8 1.6-2.6.3.2-.5 2.5-1.6 5-1.9 4.2-2.4 4.7-5.3 4.7-1.8 0-5.2-1.1-7.6-2.5-2.3-1.4-4.9-2.5-5.6-2.5-1.5 0-2.5 3.1-2.5 7.7 0 2.4-.8 3.8-3.2 5.7-2.6 2-3.5 3.7-4.3 7.7-.9 4.6-1.3 5.3-4.4 6.3-2 .6-3.5 1.9-3.7 2.9-.1.9-1.2 3.3-2.3 5.3-3.5 5.9-3.4 6.4 7.9 24.2 1.8 2.9 3.1 5.4 2.9 5.6-.2.3-5.5-5.1-11.7-11.9-6.1-6.8-17.9-18.3-26.2-25.5-8.4-7.4-15.2-14.2-15.5-15.4-.2-1.1-.7-5.5-1-9.6s-2.6-17.5-5-29.7c-2.5-12.2-4.5-22.7-4.5-23.3s1-1.1 2.3-1c4.8.4 5.2.1 2.5-2.8-3.2-3.4-8.8-13.3-8.8-15.5 0-1 .8-1.7 1.9-1.7s3.2-1.1 4.7-2.5 3-2.5 3.4-2.5 1.3 2.7 1.9 6c2.3 11.4 10.6 23.3 21 30.1 2.4 1.5 7.9 4 12.2 5.4 4.2 1.4 8.2 3.2 8.9 3.9.6.8 1.7 4.2 2.4 7.7 2.5 11.7 4.6 14.8 7.5 11.1.9-1.1 3.4-2.5 5.7-3.1l4.1-1.1.6-7.6c.3-4.1 1.1-8.1 1.7-8.9.7-.8 4.6-3.3 8.8-5.6 14.2-7.8 21.7-18 25-34 1.4-6.6 1.4-8.9.4-14.9-1.4-7.9-4.8-15.4-9.9-21.7-2.9-3.6-3.2-4.6-2.3-6.3.6-1.1.8-2.9.5-4-.4-1.4.9-3.9 4.5-8.6 2.8-3.6 6.2-8.9 7.6-11.6 2.5-4.9 6.4-18.3 6.4-22 0-1.7-2.5-1.8-62.6-1.8h-62.7zm-24.2 61.1c-.2 2.7-.6 4.9-.7 5.1-.1.1-2.4-.7-5.1-1.8l-4.8-2.1 4.5-2.9c6.1-4.1 6.8-3.9 6.1 1.7m7.5 86.5c-.3.8-.6.5-.6-.6-.1-1.1.2-1.7.5-1.3.3.3.4 1.2.1 1.9m244.8 1.8c-1.6 1.6-3.3 3-3.9 3-.5 0 .3-1.4 1.9-3 1.6-1.7 3.3-3 3.9-3 .5 0-.3 1.3-1.9 3m-244.2 8.5c1.6 1.6 3.1 9.3 2.2 11.7-.5 1.2-1.2 1.3-4 .4-3-.9-3.5-1.5-3.5-4.2 0-8.2 2-11.2 5.3-7.9m-1.3 21.9c0 4.6-1.3 11.6-2.1 11.6-1 0-1.2-8.3-.3-11.8.8-2.9 2.4-2.8 2.4.2m-.3 20.6c2.5 0 2.5.1 1.9 5.2-1.2 9-1.6 9.9-3.6 8.8-1-.6-2.8-1-4-1-2 0-2.1-.4-1.5-4.8 1.1-8.3 1.5-9.4 3.1-8.8.9.3 2.7.6 4.1.6m-2.9 28.7c-.2 4.2-.8 6.8-1.5 7.1-1.4.4-1.8-7.3-.7-11.6 1.3-4.5 2.5-2 2.2 4.5M163 257c0 3.6-.4 7-.8 7.6s-2.4.9-4.6.6l-3.8-.4.7-6.7c.4-3.6.8-6.8 1-7.1s1.9-.5 3.9-.5h3.6zm-4 23.9c0 6.6-1 9.5-2.5 7.1-.9-1.5.5-14 1.6-14 .5 0 .9 3.1.9 6.9m2.8 23.8-.3 7.7-4.2.2-4.3.2v-6.1c0-7.3.6-8.4 4.5-9 1.7-.2 3.4-.5 3.8-.6.4 0 .7 3.4.5 7.6m-4.1 23.4c-.5 5.7-1.9 9-3.2 7.7-.3-.3-.3-3.5.1-7.2.5-4.9 1.1-6.6 2.2-6.6 1.2 0 1.4 1.1.9 6.1M159 352v7h-2.9c-1.7 0-3.3.4-3.6 1-1.8 2.9-2.6.5-2.1-6.3.2-3.9.5-7.3.5-7.4.1-.1 1.8-.4 3.9-.6 2-.2 3.8-.4 4-.5.1-.1.2 2.9.2 6.8m-6.1 24c-1.6 6.9-3.3 7.7-2.5 1.1.8-6.1 1.4-7.7 2.7-6.4.4.4.3 2.8-.2 5.3"/></svg>