<svg xmlns="http://www.w3.org/2000/svg" width="682.667" height="512" version="1.0" viewBox="0 0 512 384"><path d="M177.5 3.2c2.4 11.5 13.9 27.6 25.2 35.5 1.3.8 2 1.9 1.7 2.5-.3.5-1 .5-1.7 0-1.4-1-14-3.2-18.6-3.2-1.7 0-7.2-1.4-12.3-3-5.1-1.7-10.3-2.8-11.4-2.5-2 .4-3.9 3.3-6.3 9.7-.7 1.9-2.3 3-6.4 4.3-7.4 2.3-17.7 8.9-17.7 11.3 0 2.5 3.1 5.2 5.8 5.2 3.3 0 7.4 8.3 11.2 22.5 3.6 13.8 3.5 15.5-.4 25.9l-2.7 6.8 2.3-.6c1.3-.4 3.6-.9 5.2-1.3l2.8-.6-.8 5.4c-1 5.8-.9 11.2.1 25.2.6 7.3.4 9.1-.9 10.6-2.4 2.6-3.8 12.4-3.1 20.5 1.2 12.9.8 23.6-.9 25.5-2.8 3.1-5 27.1-2.6 28.6 2 1.2.4 19-1.8 20.4-2.9 1.8-4.8 26.5-2.2 29.6 1.6 2 .4 18.3-1.6 20.6-3.1 3.4-4.2 29.7-1.3 31.4 1.5 1 1.1 18.2-.6 21.5-1.9 3.7-3 15.9-2.1 23.3l.7 5.7h9.5c8.1 0 9.6-.3 10.2-1.8.4-.9.7-7.4.7-14.3 0-10.9-.3-13-1.8-14.7-1.6-1.7-1.8-3.3-1.4-10.9.2-5 1.1-10.7 2.1-13.2 1.1-3 1.7-7.8 1.9-15.3.2-9.5-.1-11.1-1.6-12.3-1.5-1.1-1.7-2.3-1.1-9.6.4-4.6 1.2-9.1 1.9-9.9 3.6-4.2 5.5-26.8 2.6-30.3-1.8-2.2-.6-18.6 1.4-19.3 3.3-1.3 5.6-26.7 2.8-29.5-2-2-1.3-17.9.7-17.9.4 0 1.4 1.4 2.1 3.2 2.4 5.9 12.5 20.2 21 29.8 14 16 36.1 40 45.8 49.8 5.1 5.1 9.1 9.9 8.8 10.5-1.4 3.6-9.9 13.7-11.5 13.7-2.4 0-4.6 2.4-6.9 7.5-1 2.2-3.2 6.1-5 8.6-1.7 2.5-3.5 5.9-3.9 7.5s-3.5 7.4-6.9 12.9c-12.9 20.8-24.9 44.2-27.1 52.9l-.6 2.6h186.3l-.7-5.6c-1.4-11.3-.8-26.6 1.4-38.9 2.7-14.3 9.1-32.6 9.2-25.9 0 1.2.6 2.6 1.3 3.3 1.9 1.5 7.9.5 9.7-1.7 1.2-1.5 1.9-1.6 3.3-.8 1.3.9 2 .6 3.1-1s2.2-2 4.6-1.6c2.1.3 3.7-.2 5.1-1.4 1.1-1 2.7-1.9 3.6-2 .8-.2 2.1-1.1 2.9-2.2.7-1.1 2.6-2.2 4.2-2.5s5.2-2.7 8-5.2c2.8-2.6 5.6-4.4 6-4.1.5.3 2.3-.9 4-2.7 1.7-1.7 3.7-3.7 4.4-4.3s2.1-2.1 3.1-3.3 2.2-1.9 2.7-1.6 2.2-1.2 3.9-3.2c18.7-22.9 20.1-26.3 15.6-39-6.8-19.2-13.5-26.1-27-28-5.2-.7-6.1-1.9-4.8-5.9.8-2.5 1.9-3 11.9-5.5 6-1.5 17-4.8 24.4-7.2l13.5-4.5 8.5 6.4c8.1 6.1 16.8 10.4 21 10.4 1.9 0 2-.8 2-27.1 0-25.3-.1-27-1.7-26.5-5.4 1.6-26.2 5.5-34.8 6.5-5.5.7-12.7 2.1-16 3.1-11.8 3.8-34.3 5.6-33.1 2.7.2-.6 1-3 1.7-5.2 1.8-5.6 2.7-6.5 6.8-6.5 5.3 0 13.4-4.2 16.7-8.6 2.4-3.1 2.9-4.7 2.9-9.5 0-6.6-2.5-10.3-7.7-11.4-3.4-.8-4.7 0-3 1.7 2.1 2.1 1.4 2.9-5.5 6-11.4 5.1-13.4 5.7-16.8 4.3-3.3-1.4-6.5-.2-6.5 2.6 0 2.2-1.5 3.2-7.3 5.4-4.5 1.7-5 1.7-8.3.2-4.8-2.3-8.5-2.1-12.6.6l-3.4 2.4-4-3.5c-11-9.7-25.7-17.2-33.8-17.2-2.3 0-9.2-.9-15.2-2s-12.9-1.9-15.4-1.9h-4.5l3.9 1.5c2.2.8 4.1 1.6 4.4 1.8.2.2-4.2 1.2-9.9 2.2-8.6 1.5-9.8 2-7.8 2.8 1.3.5 2.5 1.1 2.7 1.2.1 0-4.1 4.5-9.5 9.9-6.7 6.7-9.1 9.6-7.5 9.2 2.3-.5 2.3-.5.7 1.9s-1.5 2.4.9 1.8l2.5-.6-1.8 3.9c-1 2.1-2.2 4.9-2.6 6.2l-.7 2.4 2.5-1.9c1.4-1.1 3.1-3 3.7-4.3s1.3-2.1 1.6-1.8-.7 3-2.3 5.9c-2.7 5.1-3 5.3-7 5.2-2.8 0-5.6-1-8.3-2.8-5.8-3.8-7.3-3.2-8.3 3.3-.8 5.6-2.1 8.1-4.2 8.1s-4 3-5 8.4c-1 4.8-1.2 5.2-5.3 6.4-2.7.9-4.2 2-4.2 3s-1.2 3.5-2.5 5.7c-3.4 5.5-3.1 8.2 1.5 15.4 5 7.7 9 15.5 9 17.6 0 .8-4.7-3.8-10.3-10.2-11.5-13.1-20.7-22-34.2-33.3-13.3-11.1-12.3-9.6-13.5-21.7-.9-8.9-8.3-48.5-10.6-57.1-.6-2-.3-2.2 3.5-2.2 4.4 0 5.2-.9 2.3-2.7-2.4-1.4-9.1-12.8-9.9-16.5-.5-2.5-.3-2.8 2-2.8 3.3 0 5.8-1 5.2-2.1-.7-1 3.2-3.2 4.4-2.5.4.3 1.1 2.6 1.4 5.1 1 7.2 6.9 18.8 12.7 25 6.7 7 12.5 10.6 22.5 14.1 4.4 1.5 8.8 3.4 9.8 4.3.9.9 2.3 4.6 3.1 8.1 1.6 7.7 4.1 14 5.5 14 .6 0 1.8-1.1 2.7-2.5 1.1-1.6 2.6-2.5 4.3-2.5 5.3 0 6.6-2 7.1-11.1l.5-8.3 9-5c20.5-11.6 29.3-26.8 28.4-49.1-.4-7.6-.9-10.1-3.6-15.8-1.8-3.8-4.7-8.7-6.5-10.9-2.5-3.3-3.2-5-3.2-9.2-.1-4.5.3-5.6 3.7-9.6 5.2-6.1 10.3-14.9 12.7-22.1 1.1-3.2 2-6.3 2-6.9 0-.7-21.2-1-65.6-1h-65.6zm-28 59.4c-.3 1.9-.9 3.4-1.3 3.4-1.7 0-9.2-3.4-9.2-4.1 0-.5 2.4-2.2 5.3-3.9 5.1-2.9 5.2-2.9 5.5-.9.2 1.2.1 3.7-.3 5.5M420 162.4c0 .2-1.2 1.2-2.7 2.1l-2.8 1.8 1.9-2.1c1.7-2 3.6-2.9 3.6-1.8m-261.3 1.4c1.3.8 3.2 8.1 3.3 12.5 0 2.4-.2 2.6-1.9 1.7-1.1-.5-2.9-1-4.1-1-2.1 0-2.2-.3-1.5-5.7 1-8.3 1.5-9.2 4.2-7.5m-1.6 36.5c-.8.8-1.1-.9-1.1-5.4 0-8.5 1.4-9.9 1.8-1.8.2 3.4-.2 6.7-.7 7.2m1.9 10c2.1-.6 2.3-.4 1.7 2.7-.4 1.8-.7 4.9-.7 6.9 0 5.3-.9 6.1-5.8 5.4l-4.3-.6.6-5.1c1.1-10 1.4-10.6 4-9.6 1.2.5 3.3.6 4.5.3m-5 31.7c0 4-.4 7-1 7-1.1 0-1.4-12.3-.3-13.3 1.2-1.3 1.3-.7 1.3 6.3m1.8 24.5c-.2 4.1-.6 7.6-.8 7.9-.3.2-2.5.2-4.9-.1l-4.3-.6.7-5.6c1.1-9.8 1.1-9.7 5.7-9.3l4 .4zm-5.8 25c0 4.3-.4 7.5-1 7.5-1.1 0-1.3-9.1-.4-12.8 1.1-3.8 1.4-2.5 1.4 5.3m2.5 31.3c-.6 3.1-.7 3.2-5 3-5.1-.3-5-.1-3.9-10.4l.6-6 3.3.4c2 .2 3.6-.1 4.1-1 1.1-1.6 1.8 9.2.9 14M148 343c0 4.7-.4 8-1 8-1.1 0-1.4-14.2-.3-15.3 1.2-1.3 1.3-.7 1.3 7.3m3.8 26.7.3 8.1-4.6.4-4.6.3.3-8c.3-8 .3-8 3.3-8.6 1.7-.4 3.5-.6 4-.4.6.1 1.1 3.8 1.3 8.2"/></svg>