<svg xmlns="http://www.w3.org/2000/svg" width="682.667" height="512" version="1.0" viewBox="0 0 512 384"><path d="M0 192v192h294.2l-.6-2.3c-.3-1.2-1.2-7.2-2.1-13.2-.8-6.1-2.8-20.7-4.5-32.5-6.5-47.1-13.2-69.4-21.8-72.9-1.5-.6-7.6-2-13.5-3.1-17.5-3.4-23.3-5.5-29-10.8-6.3-6-17.3-19.9-19.2-24.6-1-2.3-1.5-7-1.5-13.7 0-12 1.2-14.6 9.4-21.1 2.8-2.2 7.3-6.1 10-8.6 4.7-4.4 4.8-4.7 3.7-7.7-.6-1.7-1.1-3.4-1.1-3.8 0-1.4 2.4-.7 4.5 1.3s2.1 1.9 7-1.6c9.3-6.7 16.3-8.2 27.7-5.9 19.7 4 39.3 36.9 33.7 56.8-.6 2.3-2.7 5.4-5.4 7.9l-4.4 4.1 5.9 5.9c9.5 9.5 15.6 21 23.5 44.5 2 6.2 4.1 11.3 4.5 11.3s1.6-1.2 2.5-2.7c1-1.5 5.1-6.1 9-10.2 13.1-13.7 15.4-16.9 14.8-20.8-.3-1.9 0-7.5.7-12.6 1.3-8.6 1.7-9.7 7.2-17.8 3.2-4.8 5.8-9.1 5.8-9.6s-2.5-3.7-5.6-7.1l-5.6-6.2 2.2-3.6c2.2-3.5 2.2-3.6.4-7-3.1-5.8-3.9-5.9-6.8-.9-1.5 2.5-2.9 4.5-3.2 4.5-.4 0-.4-1.8-.2-4s.1-3.9-.2-3.7c-.3.1-4.5 2.2-9.3 4.6-10.5 5.2-11.7 5-17.3-3.4-2-3.1-4.8-6.2-6.1-6.8-2.4-1.1-2.6-1.6-2.3-6 .2-3.4-2.1-6.2-7.2-8.8-4.2-2.1-5.8-4.5-5.8-8.4s-1.6-6.3-5.9-8.4c-4.1-2.2-5.5-3.6-6.5-6.7-.5-1.7.3-2.6 4.3-5.2 8-5.2 8-5.3 2-12.2-3-3.3-5.7-6-6.1-6-1.5 0-.8 2.7 1.4 5.5l2.1 2.8-2.1-1.2c-1.8-1-2.2-.9-2.2.4 0 2.5-1.6 1.7-3.1-1.7-1.8-4.1-4.3-5.1-3.3-1.4.4 1.6.2 2.6-.5 2.6-.6 0-1.1-.3-1.1-.8-.1-.4-1.1-2-2.4-3.6l-2.4-2.8.5 2.8c.5 2.6.4 2.7-1 1.4-2.8-2.7-9.5-16.4-10.2-20.7s-4.1-8.3-7.2-8.3c-2.3 0-20-12.8-20.5-14.8-.6-2.3-21.5-17.5-22.8-16.7-1.5.9-33-24.8-33-26.8 0-.5-1.6-2.7-3.5-5-3.9-4.5-4.2-5.4-1.9-5.9 1.2-.2.7-1.1-1.8-3.9s-4.4-3.8-8-4.3c-4-.6-5.3-1.4-9.2-6-3.2-3.8-4.3-5.9-4-7.4.4-1.4 0-2.2-1.4-2.7-1.2-.3-2.7-1.9-3.4-3.5l-1.3-3H0zM506.3 24.1c-2.3.6-4.6 1.5-5.1 2.2-.9 1.2-3.2 14.7-3.2 19.1 0 2.1.7 2.5 6.3 3.5 3.5.6 6.7 1.1 7 1.1.4 0 .7-6.1.7-13.5s-.3-13.5-.7-13.4c-.5.1-2.7.5-5 1m1 262.6c1.9 3.8 3.7 7.5 4 8.3s.6-1.3.6-4.8c.1-6 0-6.3-3.1-8.2-1.8-1.1-3.6-2-4.1-2-.4 0 .8 3 2.6 6.7"/></svg>