<svg xmlns="http://www.w3.org/2000/svg" width="682.667" height="512" version="1.0" viewBox="0 0 512 384"><path d="M179.5 3.7c1.5 2.1 6.8 7.8 11.9 12.6 5.5 5.3 7.9 8.2 6.1 7.3-1.6-.9-4.2-1.6-5.6-1.6s-4.8-.7-7.5-1.5-7-1.5-9.5-1.5c-2.8 0-5.1-.6-5.8-1.4s-2.8-1.7-4.8-2.1c-2.1-.4-5.4-1.5-7.5-2.6-7.3-3.7-9.8-2.4-14.2 7.3-1.5 3.6-3.1 5.8-4.1 5.8-2.9 0-13.1 3.9-18.8 7.2-5 2.8-5.7 3.6-5.7 6.4 0 3.7 2.9 6.7 6.1 6.2 1.8-.2 2.8.8 5.6 6.2 3.1 6 4.6 11.1 9 30.5 1.7 7.6 1.6 8.2-3 20.9l-2.5 6.8 4.9-.6c2.7-.4 4.9-.5 4.9-.4 0 .2-.7 4.1-1.4 8.8-1.1 6.3-1.1 10.1-.4 15 1.3 8.2.6 18.9-1.5 22.1-3.3 5.2-5.3 28.3-2.6 31.5 1.7 2 .5 18.9-1.5 23-3 5.9-4.1 30.4-1.5 32 .5.3.9 5.6.9 11.9 0 8.4-.3 11.4-1.3 11.8-3.6 1.4-4.7 30.8-1.3 34.6 1.1 1.3 1.3 3.7.7 11.8-.4 5.6-1.2 10.8-1.8 11.5-3 3.7-4.8 33.7-2.2 35.4 1.5.9.2 16.7-1.7 21.3-.8 1.8-1.4 3.5-1.4 3.7s4.2.4 9.4.4c8.8 0 9.4-.1 8.9-1.9-.9-3.6 1.7-19.2 3.7-22 4-5.5 5.4-32.8 1.9-36.8-1.4-1.5-1.5-3.3-.9-11.4.5-6 1.3-10.5 2.4-12 2-3.2 4.1-21 3.2-28.3-.4-3.1-1.5-6.3-2.3-7.2-2.2-2.2-1.2-20.1 1.4-24 2.6-4.1 3.3-29.6.8-32.4-1.4-1.6-1.6-3.2-1-11.9.5-6.7 1.2-10.1 1.9-10.1s2.6 2.8 4.2 6.2 5 9.4 7.5 13.3c4.2 6.6 25.4 32.6 32.9 40.5 1.8 1.9 8.5 9.3 14.9 16.5 6.4 7.1 15.7 17.3 20.8 22.5l9.2 9.5-5 8.5c-4.5 7.8-5.2 8.5-9.3 9.7-4.5 1.3-7.5 4.8-8.9 10.4-.4 1.4-2.1 4.3-3.8 6.5-4.2 5.3-5.8 8.6-6.9 14.3-.7 3.5-3 8-8.6 16.2-4.2 6.3-9.4 14.2-11.5 17.6L183 384h197.7l2.3-11.7c1.9-9.9 3.3-13.8 9.2-26 6.8-13.9 8.8-17.1 8.8-13.8 0 .9.4 1.3 1 1 .6-.4.8 1.4.4 4.8-.6 5-.4 5.7 2.4 8.8 2.6 2.9 3.2 3.1 3.7 1.7.5-1.3 1.5-1.5 4-1.1 3 .5 3.6.2 4.6-2.1 1.4-2.9 2.7-3.3 3.5-1.1.8 2.1 3.2 1.9 4.6-.5 1-1.5 2.4-2 5.6-2 4.3 0 8.1-1.3 9.4-3.3.3-.6 1.6-1.1 2.7-1.2s3-1.4 4.2-2.8c1.1-1.5 2.5-2.4 3-2.1 1.2.7 11.9-4.4 11.9-5.6 0-1.4 7.1-5.9 8.5-5.4.6.3 3-1.3 5.3-3.5 2.2-2.2 5.2-4.7 6.6-5.6 1.4-1 2.3-2.1 2.1-2.6-.8-1.2 3-3 4.1-1.9.6.6 2.7-1 5.4-4.1 2.5-2.8 6.2-6.8 8.3-8.9 2-2 3.7-4.3 3.7-5 0-.6 1.4-2.9 3-5 2.9-3.7 3-4 3-15.1v-11.3l-4.1-6.2c-7-10.9-16.8-18.4-27.4-21.3-2.2-.6-7.7-1.1-12.2-1.2-8-.1-8.2-.2-11.6-3.8-1.9-2-3.7-4.8-4-6.2l-.6-2.5 18.7-3.8c10.4-2.1 23.7-5 29.8-6.5l10.9-2.7.3-20.4.2-20.3-6.7.7c-3.8.3-11.1 1.1-16.3 1.6-11.7 1.2-21 1.3-21 .2 0-.4.5-1.3 1.1-1.9 1.9-1.9 2.9-8.6 1.8-12-1.3-3.9-5.7-7.9-9.9-8.8s-4.8 0-2.1 2.9l2.2 2.3-4.3 1.6c-13.4 4.8-14.7 5-18.8 3.2-4.7-2.1-6.4-1.6-9.1 2.9-1.1 1.8-2.9 3.6-4 3.9-2.7.7-10.4-3.6-16.4-9.3-12.4-11.7-24-19.7-33-22.8-8.5-2.9-31.5-7.5-43.5-8.7-5.7-.6-5.3 0 1.5 2.6 2.9 1.1 2.9 1.1.8 1.9-1.1.5-5.6.9-9.8.8-4.2 0-7.9.3-8.2.6s1 1.2 2.8 2c2 .8 2.7 1.5 1.6 1.5-.9.1-1.6.5-1.5.9.2.5-3.7 4.2-8.7 8.4-4.9 4.2-9.9 8.6-11 9.8l-2 2.3 2.3-.8c2.1-.6 2.3-.5 1.3 1.3-1.4 2.6-1.4 3.5-.1 2.7 1.5-.9.2 4-2.1 8.7-2.8 5.5-2.2 6.8 1.3 2.8 2-2.4 3.2-3.1 3.5-2.2s1.2.2 2.5-1.8c3.2-5.3 3.4-2.4.2 3.6-1.6 3.1-3.8 6.1-4.9 6.6-4.5 2.5-12.5.4-18.8-4.8-5.1-4.3-7-2.7-8.2 6.7-.5 4.3-.9 4.9-5.3 7.1-4.4 2.3-4.7 2.7-5.8 8.2-.6 3.1-1.6 6.2-2.1 6.7s-2.9 1.3-5.3 1.7c-3 .5-4.4 1.2-4.6 2.5-.1 1-1.9 4.2-3.8 7-2 2.9-3.6 6.1-3.6 7.1 0 1.1 2.4 6.3 5.4 11.5 5.1 9.1 8.6 18.1 8.6 22.4 0 1.2-2.3-1-6.7-6.5-8.8-10.9-31.7-34.2-46.5-47.5-13.1-11.7-11.6-8.6-13.7-28.8-.6-5.5-3.3-21.3-6.1-35-2.7-13.7-5-25.6-5-26.3 0-1 1-1.2 3.9-.7 4.7.8 6.2-.8 2.8-2.9-2.2-1.5-3.9-4.2-9.4-14.5-3.2-6.2-3-6.9 2.3-7.7 3-.4 4.4-1.1 4-1.9-.3-.9 5-4.5 6.8-4.5.2 0 .7 2 1.1 4.5 1.7 11.8 9.1 26.8 16.9 34.4 5.9 5.7 14.5 10.6 25.1 14.1 5.1 1.7 10 3.9 10.8 4.8s2.1 4.6 2.7 8.2c1.3 6.7 5.4 17 6.7 17 .5 0 1.5-1.3 2.4-2.9 1.3-2.2 2.6-2.9 5.8-3.4 6.5-.8 7.1-1.8 7.1-11.4 0-10 .7-10.9 11.5-16.6 19.1-10 28-22.4 32.3-44.5 1.4-7 1.4-9.3.4-15.4-1.7-9.6-4.8-16.9-10.9-25.4l-5.1-7.1.7-6c.5-4.7 1.4-6.9 4.2-10.4 2-2.4 4.6-5.9 5.8-7.7l2.2-3.2H176.8zm-43 38.5c-1.3 9-1.2 9-7.4 6-2.9-1.5-5.3-3.2-5.3-3.7 0-.8 11.7-7.5 13-7.5.2 0 .1 2.4-.3 5.2m8.2 108.5c-.3 1-.5.4-.5-1.2 0-1.7.2-2.4.5-1.8.2.7.2 2.1 0 3m1.6 13.2c1.4 1.4 2.6 8.2 2 11.7-.6 3.9-1.9 5.2-3.6 3.5-.6-.6-2.1-1.1-3.4-1.1-2.1 0-2.3-.5-2.3-4.9 0-2.7.3-6.3.6-8 .6-2.9 1-3.2 3.3-2.6 1.4.4 3 1 3.4 1.4m-3.3 33.2c0 6.8-.3 9-1.2 8.7-2.5-.9-1.8-17.8.7-17.8.3 0 .5 4.1.5 9.1m2.8 24c.4 6.6-1.1 13.5-2.9 13-.8-.3-2.9-.5-4.7-.5H135l.6-8.1c.3-4.4.8-8.3 1-8.7.2-.3 2.3-.5 4.7-.3l4.2.3zM141 253c0 7.3-.3 9-1.5 9s-1.5-1.6-1.5-8.3c0-4.6.3-8.7.7-9 1.8-1.8 2.3 0 2.3 8.3m2.6 36.5c-.4 1.6-1.5 2-5 2.2-5.5.2-5.8-.5-5-10.7l.7-7.8 3.7.5c2.5.4 4 .1 4.6-.8 1-1.5 1.8 13.2 1 16.6m-4.7 19.2c-.1 8-.9 11.5-2.8 12.1-1.1.4-1.2-1.2-.6-8.4.7-9.3 1-10.4 2.6-10.4.5 0 .9 3 .8 6.7m3.1 30.9c0 9-1 11.3-4.4 10.7-1.3-.3-3.3 0-4.5.6-1.8 1-2.1.8-2.6-1.1-.3-1.3-.2-5.4.2-9.2l.8-6.9 4.5-1.2c2.5-.6 4.8-.9 5.3-.7.4.2.7 3.7.7 7.8m-6.7 28.6c-.8 8-1.6 10.8-2.8 10.5-1-.2-1.1-10.3 0-14.4.3-1.3 1.2-2.3 2-2.3 1.2 0 1.4 1.1.8 6.2"/></svg>