<svg xmlns="http://www.w3.org/2000/svg" width="682.667" height="512" version="1.0" viewBox="0 0 512 384"><path d="M137.8 6.9c-3.1 6.8-3.2 6.9-8.4 8-6.6 1.5-23.2 9.5-24 11.6-.9 2.1 1.5 7.4 3.8 8.6 1 .6 2.8.7 3.8.4 1.7-.5 2.6.5 5.5 6.6 1.9 3.9 3.9 9.7 4.5 12.8.7 3.1 2.3 9.8 3.7 15 3.4 12.7 2.6 18.4-4.3 32.5l-1.5 2.9 5.6-.7c5.9-.7 6.2-.4 4.4 4.1-.7 1.7-1.3 10.5-1.4 21.8-.2 17-.5 19.4-2.3 23-4.1 7.9-6.2 29.4-3.1 33.1 1.1 1.4-.9 20.1-2.6 23.9-2.5 5.4-3.7 15.8-3 25.6 1.2 17.7 1.1 33.3-.1 34.9-3.4 4.4-4.8 30.8-1.9 36.4 2.2 4.2 2.1 24.1-.2 28.7-3.3 6.5-3 34.1.4 37.4 1.1 1.2 1.4 2.7.8 6l-.6 4.5h8.1v-4c0-3.3.3-4 2-4s2 .7 2 4c0 3.8.2 4 3 4 2.7 0 3-.3 3.2-3.3.2-5 .3-5.3 1.5-6.8 2.5-3 3.5-10.9 3.1-24.7-.2-11.6-.6-14.3-2-15.9-2.4-2.7-2.6-22.7-.3-25.3.8-.9 2-4.3 2.6-7.6 1.4-7.7.8-28.9-.8-30.6-1.9-1.8-1.8-23.2.1-24.8 3.5-2.8 5.7-31.8 2.8-35.3-2.1-2.5-.6-22 1.8-24.2 1.6-1.5 2-1 5.9 7.1 6.5 13.5 24.6 38.2 41.5 56.4 2.3 2.5 10.3 11.5 17.7 20 7.5 8.5 17.5 19.5 22.3 24.4 4.7 4.8 8.6 9 8.6 9.1 0 .2-1.7 3-3.8 6.2s-4.7 7.3-5.8 9.2c-1.5 2.7-2.9 3.7-6.4 4.5-4 1-4.8 1.7-7.2 6.1-1.5 2.7-2.8 5.6-2.8 6.2 0 .7-2 4-4.5 7.4-4.6 6.3-6.5 11.2-7 18.5-.2 3.2-1.5 6.1-5.2 11.6-2.7 4-5.5 8.3-6.2 9.5l-1.2 2.3H291c85.9 0 101-.2 101-1.4 0-2.6 16.7-35 19.8-38.4 3.3-3.7 4.1-3.3 3.7 1.5-.2 2.1.1 3 .8 2.6.6-.4.7.4.2 2.3-1.4 4.9-.9 8 2 11.8 2.6 3.4 6.3 4.6 5.8 1.9-.2-.7 1.1-.9 3.6-.6 3.6.5 4.1.3 5.6-2.8l1.8-3.3 1.8 2.3c1.4 1.8 2.2 2 3.7 1.2 1.1-.6 2.2-1.7 2.5-2.4.4-1 1.8-1.3 5.4-1 4 .4 5.4 0 8.6-2.1 2.1-1.4 4.1-2.5 4.5-2.5 2 .3 3.1-.3 3.7-2 .6-2.1 2.2-2.9 7.1-3.4 3.7-.5 7.5-2.8 13.7-8.5 3.5-3.2 5.1-4.1 6-3.3 1.4 1.1 7.2-2 7.2-3.8 0-.6 2.2-2.4 4.8-4.2 2.9-1.9 4.6-3.7 4.3-4.5-.3-.7.4-1.6 1.5-1.9 1.8-.6 1.9-1.9 1.9-39.5v-38.9l-6.7-2.2c-4.8-1.5-10.5-2.3-19.2-2.6-11.9-.6-12.6-.7-15.5-3.4-1.7-1.6-4.7-4.2-6.6-5.8l-3.5-3 2.7-1c1.5-.5 10.9-2.6 21-4.6 10.1-1.9 20.4-4 23.1-4.6l4.7-1.1V167l-6.2.1c-3.5.1-10.9.4-16.4.8l-10.2.6-.5-4.9c-.4-4.1-1.1-5.5-4.1-8.3-1.9-1.8-4.4-3.3-5.5-3.3s-2.6-.3-3.5-.6c-2.5-1-1.9 2.1.7 3.9 1.2.8 2 1.7 1.7 1.9s-4.7 1.6-9.8 3l-9.2 2.5-4-1.9c-3.7-1.9-4.2-1.9-6.4-.4-1.4.8-2.7 2.5-3.1 3.6-.9 2.9-2.1 2.5-5.8-1.8-7.8-9.1-15.8-16.9-23.2-22.7-10.2-7.9-15.6-11-22.5-12.9-3-.8-9.5-2.6-14.3-4s-9.4-2.3-10.2-2-4.3-.1-7.7-.9c-13.9-3.4-20.5-3.1-10.3.4 4 1.4 3.9 1.4-7 1.9l-11 .6 4.3 1.8c4.4 2 4.2 3.6-.5 3.6-1.2 0-2.3.6-2.5 1.4-.2.7-4.3 4.8-9.3 9.1-11.6 10-11.5 9.9-8.6 9l2.4-.7-2.3 3.3c-1.8 2.4-2 3.1-.8 2.7 1.3-.6 1.4-.2.5 2.5-.5 1.8-1.4 4.3-2 5.7s-1.1 2.7-1.1 3c-.1.3-.5 1.1-1 1.8-1.9 3 .5 2.2 3.4-1.2 3.2-3.6 5.6-4.8 4.7-2.4-.2.7.3 1.8 1.2 2.5 1.4 1 1.4 1.4-.5 3.9-2.2 3.1-4.9 4.2-10.4 4.3-3.6.1-8-2.2-14.4-7.3-3.5-2.8-3.7-2.8-5.6-1.1-1.2 1.1-2.2 3.8-2.6 6.8-.8 5.5-3.9 9.7-7.2 9.7-2.8 0-5.2 3.2-5.2 6.9 0 3.8-2.3 8.6-4.5 9.5-.9.3-3.2.6-5.1.6-2.8 0-3.5.4-4 2.7-.4 1.6-1.7 3.9-2.9 5.3-3.6 4.1-5.5 7.3-5.5 9.4 0 1.1 2.2 5.9 4.9 10.7 2.8 4.8 5.7 10.9 6.6 13.5 1.4 4.6 3.5 14.4 3 14.4-.1 0-3.8-4.4-8.3-9.8-12.5-15.1-29.4-32.9-44.9-47.2-7.9-7.2-14.7-13.8-15.1-14.8-.5-.9-1.2-5.8-1.5-10.7-.7-10.5-4.3-32-9.2-55.6-1.9-9.1-3.5-17.1-3.5-17.8 0-.9 1.1-1.1 3.9-.6 5.2.9 6.1-.8 2.4-4.8s-10.2-15.2-11-18.7c-.5-2.6-.3-2.7 4.7-3.4 4.1-.6 4.9-1 4.1-2-.9-1-.1-1.7 3.5-3.1 2.5-.9 4.6-1.6 4.7-1.4.2.2 1 4.1 1.9 8.6 3.1 15.8 12.9 31.3 24.6 39.1 6.1 4.1 11.8 6.7 22.5 10.2 4.1 1.3 7.3 3 8.2 4.3.8 1.2 2.2 5.8 3.1 10.2s2.3 8.7 3 9.5c.6.8 1.4 2.4 1.6 3.5.5 3 3.6 3.1 4.7.2 1.1-2.7 2.9-3.7 7-3.7 5.1 0 6-1.6 6.7-12.3.8-11.4.7-11.2 14.4-18.6 15.1-8.3 24.3-19.3 29.7-35.6 2.2-6.7 2.7-9.9 2.7-19.5.1-15.8-2.6-23.4-13.2-37.3-3.6-4.7-4.2-6-3.2-7.2.8-.9 1.1-3.1.7-5.5-.3-2.7-.1-4.3 1-5.1.8-.7 1.9-2.1 2.4-3.1.9-1.7-1.2-1.8-61.3-1.8l-62.3.1 7 6.5c7.8 7.3 8.3 7-6.7 3.3-4.3-1-9.4-1.9-11.4-1.9s-4.8-.9-6.3-1.9c-1.5-1.1-4.9-2.5-7.4-3.2-2.6-.6-5-1.5-5.3-2s-3-.9-5.9-.9h-5.4zm-7.2 21.8c-.2 1-.8 4.2-1.1 7-.4 2.9-1 5.3-1.3 5.3-1.5-.1-11.6-5.6-11.9-6.5-.3-1.1 11.1-7.3 13.5-7.4.8-.1 1.1.6.8 1.6m8.1 120.9c-2.1 2.1-3.6-4.2-2-8.3.6-1.3 1-.5 1.6 3 .5 2.6.7 5 .4 5.3m.2 12.4c1 0 2.1.6 2.3 1.2.6 1.5-1.5 14.4-2.4 15.3-.3.4-1.5.2-2.6-.4-1.2-.6-3-1.1-4.1-1.1-2.5 0-2.6-1.2-1-11.1l1.2-6.9 2.3 1.5c1.3.8 3.2 1.5 4.3 1.5m175.1 0c-.6 1.2-1.4 1.9-1.7 1.7-.2-.3.1-1.5.7-2.7s1.4-1.9 1.7-1.7c.2.3-.1 1.5-.7 2.7m-179.5 37.7c-.5 5.6-1 7.3-2.2 7.3-1.4 0-1.5-1.3-1-8.6.3-5.7 1-8.9 1.8-9.5 1.9-1.2 2.3 1.8 1.4 10.8m2 25.8c-1.1 12.4-1.1 12.4-5.3 11.8-6.5-.9-6.4-.8-5.7-7 1.3-12.9.9-12.1 6.6-12l5.1.2zm-5.5 27.9c0 8.5-1.1 14.6-2.6 14.6-1.1 0-1.4-1.7-1.4-6.9 0-8.7.9-13.1 2.6-13.1 1 0 1.4 1.5 1.4 5.4m3 34.6c0 4.7-.4 9-.8 9.6s-2.8 1.3-5.4 1.6l-4.8.6V294c0-3.1.3-7.7.6-10.1l.6-4.4h9.8zm-4.3 29.7c.6 5.4-1.3 13.7-2.7 12.8-1.1-.7-1.4-17.8-.3-18.9 1.3-1.3 2.6 1.3 3 6.1m3.1 35c-.3 9.4-.3 9.6-2.8 9.9-1.4.2-3.6.4-5 .6-2.4.3-2.5.1-2.8-7.2-.4-10.3.1-11.8 4.1-12.3 7.4-.9 6.8-1.7 6.5 9"/></svg>