<svg xmlns="http://www.w3.org/2000/svg" width="682.667" height="512" version="1.0" viewBox="0 0 512 384"><path d="M132.9 3.8c-1.4 3.5-1.9 3.8-7.7 4.9-3.4.6-10.1 3.1-14.9 5.5-7.9 3.9-8.8 4.6-9.1 7.4-.4 4.5 3.2 8.8 6.9 8 2.7-.5 3.1-.1 6 5.6 1.7 3.4 3.9 10.1 4.9 14.8s2.8 12 4 16.3c2.7 9.8 2.3 16.8-1.4 25.7-1.5 3.6-3.1 7.3-3.7 8.4-1 1.7-.7 1.8 4.6 1.4l5.6-.5-.6 2.6c-1.7 6.6-2.4 14.7-2.3 28.2 0 12-.3 15.3-1.7 18-3.1 6.3-4.5 12.4-5.2 23.1-.4 7.9-.3 11.1.6 12.2.7.8 1.1 1.9.8 2.3-.2.4-.8 5.5-1.2 11.3s-1.1 10.8-1.7 11.1c-3 1.9-6.4 34.2-3.9 37.3 1.8 2.1.7 25.3-1.3 27.5-3.2 3.5-4.7 36.9-1.7 37.9 1.4.5.4 26.7-1.1 29.5-.9 1.5-1.3 7.2-1.3 19.2 0 15.4.2 17.3 2 19.7 1.9 2.6 2.4 2.7 11.1 2.8h9.1l1.7-3.8c3.5-8 4.5-20.9 2.5-33.2-.5-3.5-1.6-7.1-2.2-7.9-1.8-2.2-1-25.3 1.1-29.4 2.5-4.8 3.1-32.7.8-36.1-1.3-2.1-1.5-4.4-.9-13.8.4-7.6 1-11.8 2-13 3.5-4 5.8-32.2 2.9-36.3-1.1-1.6-1.1-4.1-.3-13 .6-6.1 1.4-11.2 1.7-11.5.4-.3 1.1-1.3 1.7-2.3.9-1.7 1.2-1.5 2.8 2 7.3 15.9 14.2 27.1 24.4 39.7 3.1 3.8 8 9.9 10.9 13.5s7 8.4 9.1 10.6c2 2.2 8.9 10.1 15.3 17.5s17 19.3 23.7 26.4c6.7 7 12.1 13.1 12 13.5 0 .3-2.8 5.1-6.2 10.6-5.8 9.3-6.5 10-10.1 10.6-4.6.7-6.7 3.2-9.6 10.8-1.1 2.9-3.6 7.2-5.4 9.5-4.4 5.4-6.6 11.5-6.6 17.9 0 5.1-.5 6.6-4.9 14l-2.3 3.7h206.1l7-13.7c5.9-11.5 14.1-23.4 16.1-23.3.3 0 .5 2.4.5 5.4s.4 5.2.9 4.8c.6-.3.6.3.1 1.4-1.8 4.4-1.6 6.5.9 10.8 2.9 5 5.3 6.3 7.4 4.2 1.1-1 1.9-1.2 3.1-.4 2.3 1.4 7.1-.6 7.1-3.1 0-2.9 1.7-3.5 3.2-1.1 1.7 2.6 4.3 2.6 6.2-.2 1.3-1.8 2.5-2.1 8-2.2 5.4-.1 6.9-.5 9-2.5 1.4-1.4 2.9-2.2 3.2-1.8 1 1 4.4-1.2 4.4-2.8 0-1.3 2.9-2.8 4.6-2.4 2.2.5 12.4-4.2 13.9-6.3 2.2-3.3 7.8-6.8 9.7-6.3.9.4 2.9-.1 4.3-1.1l2.5-1.6v-97.6l-8.6-1.2c-4.8-.7-11.5-1-14.8-.6-6 .6-6.3.5-9.1-2.4-1.6-1.7-5.4-4.4-8.4-6.1-4.3-2.5-5.1-3.3-3.9-4 .9-.5 11.3-2.8 23.2-5.1l21.6-4.3v-52.6l-14.3.7-14.4.7-.6-3.3c-1-4.7-6.9-10-11.3-10-3.8 0-4.1.5-1.7 3.2.9 1 1.4 2 1.1 2.3s-4.4 1.5-9.1 2.7c-8.1 2-8.8 2-12 .4-4.3-2-5.8-2-8.2-.2-1.7 1.2-2.8.3-13.3-10.5-12.1-12.6-20.5-19.5-28.6-23.6-7.6-3.9-28.5-10.5-34.1-10.8-2.7-.1-8.7-1-13.3-1.9-9.1-1.9-13.8-1.7-8.7.3 7.3 2.8 7 3.1-2.5 2.6-5.5-.4-10.1-.2-11 .4-1.4 1-1.2 1.1 5.9 3.7 2.1.7.7 1.5-5.1 3-2.9.7-4.4 1.3-3.3 1.4 2.3.1 3-.6-11.1 11-4.3 3.6-8 7.2-8.2 8-.3 1 .3.9 1.7-.4 1.2-1.1 2.1-1.4 2.1-.9 0 .6-.7 1.6-1.5 2.3-1.7 1.4-2.1 4.5-.4 3.4.6-.3.3.6-.7 2.2-1.4 2-1.5 2.9-.6 3.2s.7 1.1-.7 3.1c-1.1 1.5-2.3 4-2.6 5.7-.7 2.8-.6 2.8 3.2-1.5 3.1-3.4 4.3-4.2 6-3.7 2.2.7 2.3 1.3.4 6.3-.8 2.1-2.3 3.5-4.3 4.2-7.1 2.5-14.3.6-20.9-5.4-2.2-1.9-4.3-3.5-4.7-3.5-2 0-4.3 4.1-5.1 8.8-1 6.2-2.1 7.7-6.9 9.3-5.1 1.6-5.4 2-6.3 8.5-.9 6.9-2.6 8.7-8.1 9-2.4.1-4.6.2-5 .3-.5.1-.8.9-.8 1.9s-2 4.5-4.5 7.6c-2.5 3.2-4.5 6.8-4.5 8.1 0 1.2 1.1 4.2 2.5 6.6 6 10.5 9.6 18.9 11 25.8.8 4.1 1.4 7.6 1.2 7.8-.3.2-1.7-1.3-3.3-3.4-13.4-17.8-37.5-43.6-58.3-62.4l-9.4-8.4-.8-11.1c-.9-12.6-3.1-26.2-8.9-54.8-2.2-11-4-20.7-4-21.7 0-1.5.4-1.6 3.5-.7 2.6.9 3.8.8 5-.2 1.5-1.2 1.3-1.6-1.4-3.7-3.3-2.6-12.1-18-12.1-21.2 0-1.7.6-2.1 3.4-2.1 4.6 0 7.2-1 5.5-2.1-1.6-.9-1.7-.8 4.3-3.7L187 59l.4 2.3c3.5 18.8 8.4 29.9 17.8 40.2 7.4 8.1 14.4 12.3 28.1 17 7.1 2.5 11.4 4.6 12.6 6.1 1 1.3 2.4 5.4 3.1 9.1 1.2 6.6 5.2 16.7 7 17.8.5.3 1.6-.8 2.5-2.4 1.1-2.3 2.4-3.2 5.3-3.6 8.2-1.3 8.6-1.9 9.2-13.1.3-5.6 1-10.7 1.7-11.5.6-.8 5.7-3.9 11.3-6.9 17.7-9.6 26.6-19.9 32.5-37.4 3.1-9.1 4.3-24.2 2.7-32.7-1.7-8.8-6.4-18.1-14.1-27.7-3-3.7-3.3-4.7-2.3-6.3 1.3-2 1.6-5.8.6-8.3-.6-1.4-6.7-1.6-59.2-1.6h-58.6l3.3 3.4 3.3 3.4-6.4-1.3c-3.4-.8-8.1-1.8-10.3-2.4C168.3.8 160.6 0 147.9 0h-13.4zm-6.3 21.9c-.4 2.7-.9 6-1.2 7.5l-.5 2.8-7-3.5c-3.8-2-6.9-3.8-6.9-4.1 0-.6 14-7.4 15.3-7.4.5 0 .6 2.1.3 4.7m8.3 118.5c.1 2.8-.3 3.8-1.4 3.8-1.6 0-2.1-5.4-.8-10l.7-2.5.7 2.5c.4 1.4.7 4.2.8 6.2m.6 16.8c1.4 0 2.5.3 2.5.7 0 1.3-3 16.7-3.3 17-.2.1-1.9-.2-3.8-.9-1.9-.6-3.9-1.2-4.5-1.4-1-.2-.5-7.9 1.2-15.7.6-2.7.7-2.8 3-1.3 1.3.9 3.5 1.6 4.9 1.6m-6.5 45c-.6 1.1-1.6 2-2.2 2-1.6 0-.2-18.1 1.5-19.2 1.6-1 2.3 14.3.7 17.2m2.4 20.3c-1.2 11.8-1.7 13.3-4.5 12.8-1.3-.3-3.5-.5-4.8-.5-2.3-.1-2.3-.2-1.7-7.6 1-11.9 1-11.9 6.7-11.7l5 .2zm-5.4 29c0 2.3-.3 6.6-.6 9.4-.6 4.4-1 5.3-2.6 5.3-1.9 0-2-.5-1.3-9.3.7-8.5 1.7-11.3 3.7-10.1.4.3.8 2.4.8 4.7m1.2 36.2c-.3 11.8-.4 12-5.4 12.2-2.4.1-4.6-.4-5.1-1-.7-1.1 0-15.7.9-18.5.2-.9 1.9-1.2 5.1-1l4.8.3zm-4.6 28c1 5.4-.5 16.5-2.2 16.5-1.1 0-1.4-1.9-1.4-9.3 0-5.2.3-9.7.7-10 1.4-1.4 2.2-.6 2.9 2.8m3.4 40.1c0 8-.3 10.5-1.2 10.1-.7-.2-3 .2-5 .9-3.4 1.2-3.8 1.1-3.8-.4-.1-.9-.3-5.3-.6-9.8-.7-9.9-.5-10.1 9.4-11.3.9-.1 1.2 2.6 1.2 10.5"/></svg>