<svg xmlns="http://www.w3.org/2000/svg" width="682.667" height="512" version="1.0" viewBox="0 0 512 384"><path d="M122.9 1c-5 .9-20.5 6.9-24.5 9.5-3.4 2.2-3.2 6.6.4 10.6 2.4 2.7 3.1 3 5 2s2.3-.6 6 6.8c2.5 5 4.4 10.6 5.2 15.3.7 4 2.3 11.1 3.6 15.7 3 10.3 3.1 17.3.4 22.6-1.1 2.2-2 4.4-2 5 0 .7-1.1 3.3-2.4 5.8l-2.3 4.7 5.9-.3c5-.3 5.8-.1 5.3 1.2-1.5 3.9-2.6 14.4-2.4 23.1.3 12.6-1 23.7-3.3 28.2-3.2 6.1-4.6 17.9-4.5 37.3 0 15.2-.2 18.6-1.7 21.6-4.3 9.1-7.1 31.1-4.8 37.9 1.5 4.1-.2 26-2.3 30.5-3.2 7-4.8 36.3-2.1 39.4 1.1 1.3 1.2 3.8.5 13.1-.5 6.3-.7 12.1-.4 12.8s-.2 2.3-1 3.5c-1.9 3-4 23.7-3.1 30.9l.7 5.8h26.7l.6-3.1c.3-1.7.6-9.8.6-17.9 0-12.6-.3-15.1-1.8-17.1-1.6-2.1-1.7-3.8-1.1-14.9.3-7.6 1.2-14.1 2.2-16.6 3.5-9 4.4-34.7 1.3-37.6-1.7-1.7-.1-25.6 2-27.9 3.6-4 6.3-32 3.5-37.1-1.9-3.6 0-23.7 2.6-27.3 1.9-2.5 3.3-3.2 3.3-1.6 0 1.9 7.2 16.5 12 24.2 4.4 7.1 13.4 19.6 15 20.9.4.3 3.5 4.1 7 8.5 3.4 4.4 8.8 10.9 12 14.5s10 11.5 15.1 17.6c5.2 6.1 15.5 17.7 22.9 25.9 7.4 8.1 13.9 15.2 14.4 15.9.5.8-1.4 4.8-5.6 11.7-6.1 9.9-6.7 10.5-10.8 11.5-4.9 1.2-7.7 4.5-10.1 11.6-.7 2.4-2.9 6.3-4.8 8.8-4.7 6.2-6.9 11.6-7.6 18.6-.3 3.2-.8 7.1-1 8.6l-.4 2.8h213.4l4.7-8.9c5.9-10.9 19.8-28.4 17.1-21.5-.4 1-.6 3.4-.5 5.4.2 1.9.3 6.6.3 10.5.1 5.9.5 7.5 2.7 10.6 2.6 3.6 2.9 3.8 8.7 3.7 7-.1 9.5-1.1 9.5-3.8 0-2.6 2.7-2.6 4.8.1 2 2.4 4.5 1.8 6-1.6 1-2.1 1.5-2.3 4.1-1.5 3.9 1.1 11-.5 13.8-3.2 1.3-1.2 2.6-1.9 2.9-1.5 1 1 4.4-1.2 4.4-2.7 0-1.7 2.2-2.6 7.2-3.1 4.5-.5 9.3-2.8 13.1-6.3l2.7-2.6V248l-2.5-.6c-1.4-.3-5.9-.3-10.1.1l-7.5.7-4.1-3.7c-2.2-2.1-6-4.6-8.4-5.6-8.6-3.9-7.3-4.7 15.6-9.2l16.5-3.3.3-28.8.2-28.9-6.7.7c-3.8.4-9.1.9-11.8 1.2-4.9.6-5.1.6-7.5-3.2-3.2-4.8-7.9-7.6-12.2-7.2l-3.3.3 2.9 2.6 2.8 2.6-9.1 2.3-9.1 2.2-4.5-2.1c-2.6-1.2-5-1.9-5.4-1.6-.5.2-2.1-1.1-3.6-3.1-7.6-10-26.3-26.9-35.8-32.3-8.5-4.9-34-13.1-40.7-13.1-1.9 0-7.5-.9-12.5-1.9-10.6-2.2-13.3-1.5-5.1 1.2 3.1 1 5.5 2.1 5.3 2.3s-3.9-.1-8.2-.7-9.5-.7-11.4-.3l-3.6.7 4.8 2.2c4 1.9 4.5 2.4 3.3 3.5-.9.6-3.3 1.4-5.5 1.7-2.6.4-3.8 1-3.5 1.8s-3.4 4.5-9 8.9c-9.1 7.2-11.8 10.3-7.8 8.9 1.4-.5 1.4-.2-.4 1.8-3.3 3.7-3.8 5-1.8 4.2 1.5-.6 1.4-.1-.5 2.5-2 2.9-2 3.2-.5 3.2s1.4.4-.7 2.7c-2.4 2.7-3.7 7.3-2 7.3.4 0 2.2-1.6 4-3.5 4-4.5 6.1-4.6 6.1-.2 0 4.5-2.1 7.1-6.9 8.7-6.5 2.1-13-.4-21.7-8.5-4.4-4.1-7-1.1-8.8 9.6-.8 4.3-1.9 5.4-7.2 7.2-4.4 1.6-6.3 4.5-6.4 9.7-.1 5.4-4.8 9.8-9 8.5-2.7-.8-6 .3-5.4 1.8.2.7-1.6 3.9-4.1 7.1-2.5 3.3-4.8 7-5.1 8.3-.5 1.7.9 5.4 4.9 13.1 5.5 10.6 8 17.7 9.1 26.1l.7 4.4-6.7-8.4c-15.6-19.6-34.7-40.1-54.1-57.9l-12.2-11.2-.5-5.7c-1.9-19.8-4.2-35-8.6-57.3-2.7-13.9-5.2-26.3-5.5-27.5-.5-2.1-.3-2.2 3.9-1.7 5.7.8 6.8-.9 2.9-4.4-3-2.9-10.7-16.1-11.8-20.5-.7-2.5-.5-2.6 4.5-3.3 3.5-.5 5-1.1 4.6-1.9-.3-.8 1.4-2 4.2-3.1 2.6-1.1 5-2 5.3-2.2.4-.2 1 2.1 1.4 5 1.2 8.6 5.1 19.8 9.9 27.8 8.4 14.1 20.7 23.4 39.3 29.5 4.6 1.4 9.2 3.4 10.3 4.3 1.4 1.2 2.6 4.5 3.9 10.4 1.8 8.5 5.3 17.2 7.2 18.4.6.3 1.5-.8 2.2-2.5.9-2.4 1.9-3.2 4.7-3.7 5.7-.9 8.3-1.9 9.1-3.5.5-.8 1.1-5.8 1.5-11.2l.6-9.8 3.8-2.7c2.2-1.5 7.4-4.6 11.8-7 4.3-2.4 10.2-6.4 13.1-8.9 17.8-15.6 26.4-46.7 18.8-68.6-2.8-7.9-5.1-12.1-12.1-21.5-3.4-4.6-3.8-5.7-2.8-7.3.7-1 1.2-2.3 1.2-2.9 0-1.2-178.9-1.2-186.1 0m0 16.7c-.5 2.1-.9 5.4-.9 7.4s-.3 3.8-.6 4.2c-.7.7-8.7-3.2-11.9-5.7-2-1.6-2-1.7.4-3.4 2.1-1.6 11.8-6 13.2-6.2.4 0 .3 1.7-.2 3.7m8.4 124.5c.5 3.5.4 3.8-1.9 3.8-2 0-2.4-.4-2-2.3.3-1.2.8-4.5 1.2-7.2l.7-5 .7 3.5c.4 1.9 1 5.2 1.3 7.2m2.2 19.8c-.2.8-.9 4.8-1.5 8.8-1.1 6.9-1.4 7.3-3.4 6.7-1.1-.4-3.4-.9-5-1.2-2.8-.6-2.8-.6-2.2-6.2.4-3.1 1.1-7.2 1.6-9.2l1-3.6 5 1.6c3.5 1.1 4.8 2 4.5 3.1m-7.6 30.7c-.2 9.7-1.3 14.8-3.3 15.1-1.8.4-1.9-.1-1.3-8.3.6-8.1 1.7-11.5 3.8-11.5.5 0 .9 2.1.8 4.7m-2.3 28.3h2.7l-.6 8.7c-.7 12.1-.8 12.2-6.5 11-2.6-.6-4.8-1.1-4.9-1.1-.3-.2 1.6-16.8 2.2-18.6.5-1.6 1-1.8 2.5-1 1 .6 3.1 1 4.6 1m-4 41.7c-.7 9.9-1.5 12.1-3.6 10.8-.9-.5-1-2.9-.6-7.9.3-3.9.5-8.3.6-9.9 0-2.1.5-2.7 2.1-2.7 2.1 0 2.2.2 1.5 9.7m2 30.7c-.4 3.3-.9 8-1.2 10.3l-.6 4.3h-11l.7-6.8c1.3-14.7 1.1-14.1 6.3-14.4 2.6-.2 5.1-.1 5.6.1.4.2.5 3.1.2 6.5m-5.6 33.5c0 8.8-1.1 15.1-2.6 15.1-1.6 0-2-3.3-1.6-13.3.3-6.8.6-7.7 2.3-7.7s1.9.7 1.9 5.9m2.4 31.3c.7 2.9.7 10.3 0 14.9-.5 3-1.2 3.8-3.3 4.3-1.4.3-3.6.8-4.8 1.2-2.3.6-2.3.6-2.3-10.4v-11.1l3.8-.4c2-.2 4.2-.4 4.8-.5.7-.1 1.4.8 1.8 2"/></svg>