<svg xmlns="http://www.w3.org/2000/svg" width="682.667" height="512" version="1.0" viewBox="0 0 512 384"><path d="M90.1 5.7c1.1 3.2 2.6 9.7 3.4 14.5s2.3 11.7 3.5 15.5c1.2 3.7 2.4 10.7 2.7 15.4.5 7.6.3 9.3-1.6 13.1-1.1 2.4-2.8 6.7-3.6 9.5s-2.2 5.6-3 6.3c-2.2 1.8-1.9 3.3.4 2 2.7-1.4 4.1-1.3 4.1.5 0 1 1 1.5 3.1 1.5 2.7 0 3 .3 2.6 2.2-1.9 7.6-2.8 16.5-2.3 22 .3 3.5.7 7.2.8 8.3.3 4.4-2.6 24.1-3.8 25-1.5 1.3-3.9 9.8-5.3 19.2-1.3 8.4-1.5 23-.3 23.7.5.3.3 4.5-.4 9.3s-1.3 11.1-1.3 14c-.1 3.2-.7 5.7-1.6 6.7-4.6 4.5-9.9 42.8-6.4 46.3 1.5 1.5-1.7 27.7-4.1 32.8-2.5 5.4-3.7 10.2-5.5 22.2-2 13.6-2 25.9 0 27 1.2.7 1.3 1.6.5 4.3-.6 1.9-1.5 8.7-2.2 15-.7 7.3-1.8 12.8-3 15-3.7 7-3.7 7 13.7 7H96v-2.9c0-1.6-.7-3.4-1.6-4.2-.9-.7-1.3-2.1-1-3.4.3-1.1 1.2-7.7 2-14.6 1-8.7 2.1-13.6 3.5-16 5.4-9.2 9.3-46.3 5.1-48.9-.8-.5-.6-5.1.6-15.6 1.3-11.8 2-15.3 3.6-17 2.6-2.9 5.7-18.1 6.5-32.1.5-9.7.4-11.6-1.1-13.8-1.6-2.4-1.7-3.7-.7-10.9.5-4.4 1.3-10.7 1.6-13.8.4-3.2 1.3-6.2 2.2-6.9.8-.8 1.8-2.2 2.2-3.3.6-1.5 1.2-.7 3.1 4 9 22.8 19.7 38.4 61.4 89.4 15.5 18.9 42.4 50.3 48.1 56 1.4 1.3 2.5 2.8 2.5 3.2s-4 6.9-8.9 14.5c-8.5 13.3-9 13.8-13 14.6-4.8 1-5.9 2.3-10.6 13.6l-3.3 8.1H512V179.9l-3.5.7c-2.6.5-4.1.1-6.5-1.6-1.7-1.2-5.3-2.8-7.8-3.4-4-1.1-5.4-2.1-9.2-7.2-7-9.3-28.7-30.4-36.9-35.9-4.1-2.7-10.2-6-13.5-7.2-3.4-1.3-8-3.3-10.3-4.4-8.3-3.9-21.7-7.9-26.7-7.9-2.8 0-8.7-.9-13.1-1.9s-10-2.2-12.5-2.6c-4.1-.7-4.3-.6-3.1.9 1.3 1.5.9 1.6-4.1 1-3.1-.4-6.3-.2-7.3.3-1.5.9-1.3 1.3 1.8 3.2 1.9 1.1 3.9 2.1 4.6 2.1 5.1 0-5.7 6.1-13.4 7.6-2.6.5-3.3.9-2.3 1.6 1.5 1 1.2 1.3-11.2 10.3-5.9 4.3-7.7 6.1-6.6 6.5 1.4.4 1 1.2-1.9 4-3.7 3.6-4.6 5.6-2 4.6 1-.3.6.8-1.1 2.9-2.5 3.4-2.7 6.2-.2 3.7.7-.7 1.7-1.2 2.2-1.2.6 0-1.2 2.3-3.9 5.1-3.8 3.9-4.5 5-2.7 4.4 2.1-.6 2.2-.4 1.6 2.2-.6 2.7-.4 2.6 3.2-1.4 3.7-4.1 9.4-7.3 9.4-5.3 0 .5-1.6 3.6-3.5 6.9-4 6.7-6 7.8-12.8 6.7-5.3-.9-11.1-4.3-16.1-9.5-2.1-2.3-4.5-4.1-5.2-4.1-2.4 0-5.3 3.7-5.9 7.7-1.7 9.9-3.5 12.1-11.3 13.8-4 .8-5.8 3.5-6.7 9.8-.4 3.2-1.6 5.9-3.4 7.9-2.5 2.8-3.4 3.1-8.6 3.2-5.5.1-5.9.3-6.6 2.9-.4 1.5-3 5.2-5.7 8.2-7.3 7.9-7.4 9.5-1.3 21.4 2.8 5.5 6.1 13.7 7.5 18.3 2.6 9.1 4.3 19.9 2.8 18.3-.4-.6-5.4-6.9-10.9-14-16.9-21.8-28.7-35.1-50.3-56.5l-20.8-20.5-.6-9c-1-14.1-2.5-25.5-6.1-45.5-3.1-16.7-8.8-46.8-9.9-51.3-.4-1.5.1-1.7 4.5-1.1 3.3.4 5.4.3 6.4-.6 1.3-1.1 1-1.7-2.4-4.9-2.1-2-4.8-5.5-6-7.8-1.2-2.4-3.5-6.4-5.1-9-1.7-2.7-3-6.1-3-7.9v-3.3l6.1.4c5.8.4 6.1.3 4.5-1.4-2.2-2.4-2-3.1.7-3.1 1.3 0 4.6-1.1 7.2-2.5 2.7-1.3 5-2.3 5.1-2.2.2.1.8 3.4 1.4 7.2 3.8 24.4 16.1 45.4 33.2 57 4.6 3.1 13.4 6.9 29.9 12.9 7.2 2.6 8.4 4.3 10.4 14.8 1 5.1 2.6 10.9 3.6 12.8s2.3 4.7 2.9 6.2q1.95 5.55 4.5-.6c1.5-3.4 3.6-4.6 8.8-4.6 2.4 0 6.1-1.3 7.7-2.7.2-.2.7-5.8 1-12.4.6-10 1-12.3 2.6-13.9 1-1.1 6.7-4.5 12.6-7.7 18.2-9.9 28-19.5 35.6-34.9 10-20.2 12.1-45.2 5.1-61.5L334.8 0H88.1zm21.3 121c.4 3.1.9 6.7 1.2 8 .7 2.6-2 4.3-3.8 2.5-1.2-1.2-.1-16.2 1.1-16.2.5 0 1.1 2.6 1.5 5.7m-4 25.8c1.1.8 3 1.5 4.3 1.5 2 0 2.3.5 2.3 3.7 0 3.9-2.6 17.2-3.4 18.1-.3.3-1.7-.3-3-1.2-1.4-.9-3.6-1.6-5-1.6s-2.7-.3-2.9-.8c-.5-.7 1.8-15.9 2.8-19.3.7-2.3 2.3-2.4 4.9-.4m-2.3 45.7c-1.6 12.1-1.9 12.8-4.3 12.8-2 0-2.1-.3-1.4-9.3.9-11.5 1.4-13.5 3.4-14 3.2-.7 3.6 1.1 2.3 10.5m-3.8 28.3c2.1.2 4 .5 4.4.8.6.7-1.5 16.8-2.9 21.4-.8 3-1.1 3.1-4.1 2.2-1.7-.5-4.5-.9-6-.9h-2.8l.6-5.8c.9-7.7 2.6-17.5 3.2-18.5.3-.5 1.2-.5 2.2-.1.9.4 3.3.8 5.4.9m-5 42.7c-1.3 11.6-2.4 19.1-2.9 19.9-.3.5-1.4.9-2.5.9-2.2 0-2.4-2.1-.9-12 2.1-13.4 1.9-13 4.5-13 2.1 0 2.3.3 1.8 4.2m-1.5 52.3-1.3 9-6.7.3-6.6.3.4-4.3c.3-2.4 1-8 1.5-12.5l1.1-8.2 6.1-.3 6.2-.3.3 3.5c.1 1.9-.3 7.5-1 12.5m-8.4 26.3c.5.9-.9 17.6-2 22.5-.5 2.3-1 2.7-2.7 2.1-1.2-.3-2.4-.8-2.6-1-.4-.4 2.8-22.4 3.5-23.5s3.1-1.2 3.8-.1"/></svg>