<svg xmlns="http://www.w3.org/2000/svg" width="682.667" height="512" version="1.0" viewBox="0 0 512 384"><path d="M64.5 2.2C66.6 8.8 69 22.3 69 27.9c0 5.1-.5 7.3-2.5 10.7-1.4 2.4-3.4 7.2-4.5 10.7s-2.9 7.2-4 8.2c-2.6 2.4-1.4 4 1.6 2.1 3.3-2.2 4.1-2 5.3 1.5.7 2.2 1.5 2.9 2.6 2.5 1.8-.7 1.8-1.1-.1 9.4-.9 5.1-1.4 13.5-1.3 21 .3 19-1.3 33.9-3.9 37.5-5.4 7.7-10.8 48.1-6.8 51.4 1 .9 1.1 2.2.5 5.8-.5 2.5-1.4 10.7-1.9 18.2-.7 9.4-1.5 13.9-2.4 14.6-5.3 4-11.3 52.8-7.1 57.5 1.3 1.4 1.4 2.6.5 6.6-.5 2.7-1.7 11.6-2.5 19.8-.9 9-2.1 15.6-2.9 16.5-3.7 4.4-8.8 39.3-7.7 53.6l.6 8 17.7.3 17.7.2 1.9-3.7c6-11.9 9.3-55.1 4.6-59.8-1.4-1.3-1.3-3 0-14.3.9-7 1.6-15.6 1.6-19 0-5 .4-6.3 1.9-7.1 3.4-1.9 6.4-12.8 8.2-30.5 1.3-13.6.6-27.5-1.6-29.2-1.1-.8-1.2-2.3-.5-7.5.5-3.5 1.2-11.1 1.5-16.9.6-8.7 1.1-10.9 2.8-12.8 1.2-1.3 2.6-3.5 3.3-5 1-2.7 1.1-2.6 2.9 2.8 2.5 7.9 13 29.1 18.9 38.5 6.4 10.1 12.7 18.8 24.4 34 13 16.8 38.9 49.4 40.2 50.5.3.3 2.4 2.7 4.5 5.5 7.6 9.6 34.4 41.4 37.2 44.2 1.6 1.5 4.3 4.5 6.1 6.7 3 3.4 3.2 4 1.9 5.5-.8.9-4 5.3-7 9.8l-5.5 8.3H512V137.2l-4.4-3.5c-7.6-6.3-20.6-13.5-29.5-16.3-4.7-1.5-10.2-3.7-12.1-4.9s-8.4-4-14.5-6.2c-9.6-3.6-12.4-4.2-22.2-4.7-6.2-.4-12.5-1.1-14-1.7-8.4-3.2-28.3-4.3-30.9-1.6-.6.6 8.3 6.7 9.8 6.7.4 0 .8.4.8.8 0 1.2-20 10.2-22.5 10.2-1.1 0-2.7.5-3.5 1-1.3.8-1.2 1 .3 1 3.2 0 1.8 1.7-5.5 6.5-9.3 6.1-15.8 11.3-15.8 12.7 0 .6.6.6 1.5-.2 1.3-1.1 1.4-1 .9.4-.3.9-1 1.6-1.4 1.6-.5 0-2.8 2.3-5.2 5.2s-3.5 4.9-2.5 4.5c2.4-.9 2.1.3-1.3 4.2-1.6 1.9-2.8 3.7-2.5 3.9.2.3 2-.5 4-1.7 2-1.1 3.9-2.1 4.3-2.1.7 0-6.1 6.5-10.7 10.1-3.1 2.5-2.1 3.4 1.9 2l3.1-1-.7 3.2-.7 3.2 5.6-5.2c6.4-6.1 8.8-6.9 5.9-2-1.1 1.7-3.2 5.4-4.7 8.1l-2.8 4.8-5.2-.4c-7.4-.6-14.1-4.3-21.1-11.5-3.3-3.5-6.8-6.3-7.7-6.3-2.7 0-6.5 5.7-7.7 11.7-.7 3.2-1.6 6.8-2.1 8-1 2.6-7.7 6.3-11.4 6.3-3.2 0-8.5 5-8.5 8 0 4.8-2.4 11.3-5.3 14.1-2.8 2.9-3.3 3-10 2.7l-7.1-.3-.7 3.4c-.4 2.1-2.7 5.4-6.2 9-11 11.4-11.2 13.2-2.6 31.5 4.2 8.9 6.8 16.2 8.5 23.5 3.9 17.2 3.7 17.2-9.1.1-20.5-27.4-38.3-47.7-64.4-73.5-9.5-9.4-18.2-18.5-19.3-20.4-1.8-2.8-2.3-5.8-2.9-17.5-1-19-3.5-34-16.2-99.4-1.7-8.9-2.1-12.5-1.3-12.8.7-.3 3 .2 5.3 1 3.6 1.3 4.3 1.3 6.2 0 3-2.1 2.6-3.4-2-7.4-2.2-1.9-5-5.3-6.1-7.5s-4-7.2-6.4-11c-5.1-8.2-6.7-15-3.8-15.9 1.1-.3 3.7-.1 5.9.4 6.4 1.5 7.1 1.3 4.7-1.3-2.9-3.1-2.8-3.7.7-3.7 3.8 0 10.6-2.5 13.8-5l2.6-2H63.8zm18.2 112.3c.5 6.7.3 8.4-1.1 9.8-2.3 2.3-4.6 1.1-4.6-2.5 0-3.2 1.9-16.4 2.7-18.8.9-2.7 2.4 3 3 11.5M76 144c2.1 1.1 4.5 1.8 5.2 1.5s1.9-.1 2.7.4c1.1.7 1.2 2.3.2 9.2-2.5 16.9-3.7 19.1-8.5 15.4-1.1-.8-3.3-1.5-4.8-1.5-1.6 0-3.1-.6-3.4-1.3-.4-1.1.8-9.6 3.3-23 .6-3.2.4-3.2 5.3-.7m275.4 25.5c-.9 1.4-1.8 2.5-2.1 2.5-.5 0 .5-1.8 2-3.8 1.7-2.2 1.8-1.3.1 1.3M74 193.7c-.1 6.1-1.6 21.2-2.2 21.9-.2.1-1.6.6-3.2 1l-2.8.7.7-7.9c1.1-13.4 2.3-20.7 3.7-21.5 3.1-2 3.8-1 3.8 5.8m-4.8 42c3.4.4 4.9 1.1 5.3 2.4.6 1.8-2 24.3-3 27.1-.5 1.1-1.7 1.3-5.8.7-2.9-.4-6-.8-6.9-.8-1.5-.1-1.8-1.1-1.8-5.9 0-5.4 1.3-16.2 2.6-22.5.5-2.4 1-2.8 2.7-2.2 1.2.3 4.3.9 6.9 1.2M64 288.2c0 4.7-1.7 20.6-2.6 25-.5 2.4-.9 2.7-3.2 2.2-1.5-.4-2.9-.9-3.1-1.1-.5-.4 2.8-26.8 3.6-28.9.3-.8 1.6-1.4 2.9-1.4 2.2 0 2.4.4 2.4 4.2m0 52c0 5.6-1.7 22.2-2.6 24.9-.3 1.2-2.1 1.8-5.7 2.2-2.9.3-6.3.9-7.6 1.3l-2.4.7.6-12.9c1-19.9.6-19 9-20.1 4-.6 7.5-1.1 8-1.2.4 0 .7 2.3.7 5.1"/><path d="M165.5 8.2c1.9 22.5 16.8 52.7 32.1 65.4 11.3 9.3 17.5 12.7 33.7 18.3 13 4.5 16.5 6.1 18.9 8.7.9 1.1 2.6 6.9 3.8 13.4 1.6 8 3 12.7 4.8 15.4 1.6 2.3 2.6 5.3 2.7 7.5 0 2.9.4 3.6 1.9 3.6 1.4 0 2.2-1.2 3.3-4.7 1.4-5.1.2-4.5 13.2-6.4 6.4-.9 7-2.3 7.9-17.8.8-13.4.9-13.8 3.8-16.5 1.6-1.6 7.9-5.5 13.9-8.6 19.9-10.4 32-21.4 41.4-37.9 6.4-11.3 11.6-27.8 13.5-43.4l.7-5.2H164.7z"/></svg>