<svg xmlns="http://www.w3.org/2000/svg" width="682.667" height="512" version="1.0" viewBox="0 0 512 384"><path d="M15.7 5c-1.5 2.7-3.6 7.4-4.7 10.5-1.8 5.2-5.7 11.4-9 14.3-1.3 1.1-.9 1.3 2.3.8 2.1-.3 5.1-1.1 6.7-1.9 2.5-1.3 3.1-1.3 4.1-.1.6.8.9 2.6.5 4.2-.3 1.5-1.5 6.7-2.6 11.7-1.2 4.9-2.5 15.1-3 22.5S8.4 85.2 7.5 91C6.7 96.8 6 104.2 6 107.5c0 3.5-.7 7.2-1.6 9-4.4 8.2-4.4 8.6-4.2 81 0 41.2.4 66.6.9 63 .5-3.3.9-6.6 1-7.2.2-.9 1.1-1 2.8-.5 1.4.4 5.2.7 8.5.7h5.9l-.7 10.8c-.8 13.2-2.4 25.5-3.7 27.9-.9 1.6-1.9 1.7-7.9 1.2l-7-.7v26.4l3.5-.7 3.5-.6v6.3c0 6.5-1.5 25.3-2.6 32.1-.4 2.9-1 3.8-2.5 3.8-1.8 0-1.9.9-1.9 12v12h25.3l-.6-8.1c-.4-6.4-.9-8.4-2.4-9.4-1.9-1.3-1.9-1.8-.7-9.2.7-4.3 1.8-16.1 2.5-26.3 1.1-16.6 1.5-18.8 3.5-21.2 3-3.7 6-17.5 7.9-36.1.8-8.3 1.7-16 1.9-16.9.9-3.9-1.2-22.1-2.6-22.9-1.2-.7-1.2-2.3-.2-10.6.7-5.4 1.6-16.2 2-24 .7-13.5.8-14.3 3-15.8 1.3-.9 2.4-2.3 2.4-3.3 0-.9.9-4.4 2-7.6 1.1-3.3 2-7.1 2.1-8.5 0-2.3.1-2.4.9-.6.4 1.1 2.6 7.7 4.8 14.7 6.1 19.1 21 48.3 33.3 64.8 1.4 1.9 6.3 8.7 11 15 7.6 10.4 39.7 51 49 62 2.1 2.5 9.8 11.7 17.1 20.5 7.3 8.9 18.5 22.2 24.8 29.8l11.5 13.7H512V235.2l-.1-148.7-10.2-3.3c-9-2.9-11.5-3.3-21.2-3.3-7.1.1-12.8-.5-16-1.4-7.9-2.4-23.7-5.5-31.7-6.1-6.9-.6-7.4-.5-8.7 1.7-1.2 2.1-1.1 2.5 1.4 4.5 1.6 1.2 4.6 3 6.7 4 2.1.9 3.7 2.1 3.5 2.7-.1.5-4.5 2.8-9.8 5-5.2 2.3-11.7 5.6-14.5 7.4-3.4 2.2-6.8 3.4-10.7 3.9-6.2.7-7.1 1.5-3.2 3 2.5.9 2.2 1.2-6.7 7.1-9.2 6.1-21.4 16.4-17 14.3 1.2-.6 2.2-.8 2.2-.5 0 .2-2.9 3.4-6.5 6.9s-6.5 6.9-6.5 7.6c0 .6-.5.8-1.2.4s-.8-.3-.4.5c.4.6 1.2.9 1.7.6 1.9-1.3.7.8-3.3 5.6-2.2 2.7-3.9 5.2-3.5 5.5.3.3 2.6-.6 5.2-2.1 2.6-1.4 4.9-2.5 5-2.3s-2.8 3-6.4 6.3c-3.7 3.3-7.5 7-8.4 8.2l-1.7 2.2 6.8-2.3 6.9-2.4-1.4 4c-.8 2.2-1.2 4.2-1 4.4s2.5-1.9 5.1-4.7 5-4.9 5.3-4.5c.3.3 0 1.3-.8 2.2s-3 4.6-4.9 8.3c-3.5 6.6-3.5 6.6-7.5 6.3-2.2-.1-7.7-2-12.2-4.3-6.6-3.2-9.4-5.3-14.5-10.9-3.4-3.9-7-7.2-8-7.5-5.3-1.8-10.4 5.6-12.8 18.8-1.7 9.5-3.7 11-18.8 14.7-4.9 1.3-7.7 4.9-8.7 11.4-1.6 10.2-5.2 16.5-11.1 19.3-2.9 1.4-4 1.5-9 .3-6.9-1.7-8.3-1-10.1 5.2-1 3.5-2.5 5.7-5.8 8.4-2.5 2-6.5 6.4-9 9.6-4.1 5.4-4.5 6.5-4.5 11.5 0 4.5.8 7.1 4.6 14.6 8.6 17.3 14 32.6 15.8 45.1.6 4.8 1.3 5.4-12-12.4-11.2-15.1-17.9-23.5-31.1-39.2-16.1-19.1-24.3-28-48.2-52-13.5-13.6-25-25.8-25.7-27-.6-1.3-1.6-10.4-2.2-20.3-1.2-19-4.3-39.6-11.7-77.5-2.5-12.4-5.8-29.4-7.5-37.9-3-15.5-3.6-21.6-2.2-22.4.4-.3 2.6.2 5 1 5.7 1.9 8.3 1.4 10.2-1.9 1.5-2.7 1.4-2.8-3.7-7.3-2.8-2.5-6.6-7-8.3-10L113.9 0H18.5zm16.8 46.5.7 6-2.2-2.2c-2-1.8-2.2-2.7-1.5-6.8.8-6 2.1-4.7 3 3M35 81.8c0 4.6-2.3 23.8-3.1 25.9-.7 1.8-1.6 2.3-4.4 2.3H24v-4.8c0-8.4 2.8-22.6 4.7-23.9 2.6-2 6.3-1.6 6.3.5M28.5 136c1.9 0 3.7.4 4 1 .6 1-1.8 18.7-3.7 27.1-1.4 5.9-2.5 6.6-6.6 4.5-1.6-.8-4.8-1.8-6.9-2.2l-3.9-.6 1.2-8.1c1.1-7.3 2.4-14.8 3.8-21.5.9-4.1 1.6-4.4 5.2-2.2 2 1.1 5 2 6.9 2M382 156.9c-.5 1.1-1.5 2.3-2 2.6-.6.4-.8 1.1-.5 1.6 1.1 1.7-9.8 14.9-12.2 14.9-1.5 0 4.8-9.5 11-16.6 4.2-4.7 5.4-5.5 3.7-2.5M20 197c0 8.9-1.8 26.8-3 29.7-.7 1.8-1.8 2.3-4.5 2.3H9v-5.8c.1-6.1 1.6-23.6 2.6-28.9.6-3.2 1.8-4 6.2-4.2 2.1-.1 2.2.3 2.2 6.9"/><path d="M150 1.1c0 2.5 8.6 18.9 14.3 27.4 3.4 4.9 9.7 12.7 14.2 17.1 12.8 13 24.9 19.9 49.5 28.4 14.2 4.9 19.7 8 21 11.6.5 1.3 2.2 8.8 3.7 16.7 2.3 12 3.1 14.5 5.3 16.5 2.1 2.1 2.5 3.2 2.3 7.7-.1 4.1.3 5.7 1.8 7.1 4 3.6 9-1.8 6-6.5-.6-.9-.5-2.3.1-3.7 1.1-2.4 2.1-2.7 12.7-3.9 5.9-.7 10.6-2.6 11.4-4.8.3-.8.9-8.8 1.2-17.8l.8-16.4 4.2-4c2.3-2.2 9.5-6.7 16-10 27.8-14.1 44.9-30.9 56.5-55.8 2.2-4.7 4-9 4-9.6C375 .3 343.8 0 262.5 0 181.3 0 150 .3 150 1.1"/></svg>