<svg xmlns="http://www.w3.org/2000/svg" width="682.667" height="512" version="1.0" viewBox="0 0 512 384"><path d="M0 82.4v82.4l2.4 9.3c4.7 18 14.1 39.5 26 59.4 6 10 22.7 34 29.6 42.5 2 2.5 9.2 11.5 16.1 20 10.1 12.7 39.7 48.2 67.9 81.5l5.4 6.5H512V48l-2.2-.5c-15.5-3.5-22.8-4.7-30.7-5.2-8.9-.6-9.3-.5-8.3 1.2 1.3 2.4-.9 4.8-3.5 3.9-4-1.5 6 6.5 11.6 9.2 3.9 1.8 5.6 3.1 4.8 3.6-.6.4-7 3.3-14.2 6.5-7.1 3.1-17 8.3-21.9 11.5-7.9 5.2-9.3 5.8-14.1 5.8-6.4 0-9.3.9-7.3 2.1 1 .7 1 .9-.2 1-.8 0-.1.6 1.7 1.2l3.2 1.2-9.6 6.5c-11.7 7.9-22.1 17-19.6 17 1.2 0-1.4 3.2-7.5 9.1-5 5.1-9.2 9.8-9.2 10.6s.5 1.1 1.2.7c.6-.4-1.2 2.1-4 5.7-6.5 8-6.8 10-.8 6.5 7.7-4.5 6.9-2.9-2.9 6-8 7.3-10.8 10.4-9.2 10.4.2 0 3.9-1.3 8.3-2.9 4.3-1.6 9-3.2 10.3-3.6l2.4-.7-2.2 3.7c-1.6 2.7-1.8 3.6-.7 3.2 1.7-.7 1.2 1.3-1.2 5.1-1.2 1.9-1.3 2.5-.2 3.5.7.7 1 .7.7.1s0-1.1.8-1.1c1.2 0 1.1.7-.5 3.1-1.8 2.8-2.4 3.1-6.6 2.9-8.6-.3-18.5-6.1-29.4-17.3-11.6-11.8-12.9-12.6-16.9-10.5-5.4 2.7-8.2 8.1-10.7 20-2.5 12.6-3.7 14.8-9.8 17.7-2.9 1.5-7.5 3-10.2 3.3-2.7.4-6.1 1.4-7.6 2.1-3.8 1.9-7.5 8.8-8.3 15.4-1.8 14.1-11.7 25-21.3 23.4-10.6-1.7-13.5-1.7-14.9.2-.7 1-1.3 3.3-1.3 5.1 0 2.9-1.4 4.9-10.6 14.5-6.4 6.7-11.5 13-12.7 15.6-2.7 6.2-2 13.8 2 22.2 1.7 3.6 5.3 11.2 8.1 17 5.3 11.1 11.6 29 12.5 35.3.5 3.5-.2 2.8-9-9-9.4-12.5-26.6-34.3-32.7-41.4-1.7-1.9-5.1-6-7.6-9-13.8-16.6-40.5-44.2-76.4-78.8-16.2-15.7-15.6-14.3-16.6-36.9-1.3-27.4-4.9-50.2-19.5-123.7C83.9 22.4 81.1 6 81.2 4l.3-3.5L40.8.2 0 0zm412 66.5c0 .5-1.6 3.5-3.5 6.7s-3.5 6.1-3.5 6.5c0 1.1-16.1 14.2-16.7 13.6-.5-.6 6.4-10.9 13.5-20.2 4.2-5.6 10.2-9.5 10.2-6.6"/><path d="M145.9 4.2c19.2 26.2 37.6 38.9 74.6 51.8 24.9 8.6 24.5 8.2 29 31.4 3.7 19 4 19.9 7.9 23.5 3.2 3 4 7.2 2.6 13.5-.9 4.2-.8 5.1.7 6.8 2.4 2.7 5.4 1.9 7.6-2 1.9-3.2 1.9-3.6.3-6.8-1.5-3.2-1.5-3.7 0-6.7.9-1.8 1.7-3.3 1.8-3.4s4.2-.7 9.1-1.3c5-.6 10.4-1.5 12.1-2.1 6-1.9 6.2-2.7 7.2-24 .7-14.6 1.4-20.4 2.6-22.7 1.7-3.3 5.3-5.6 26.6-17.2 16.6-9 23.6-13.9 34.2-23.9C370.7 13 380 2.4 380 .7c0-.4-53.4-.7-118.6-.7H142.8z"/></svg>