<svg xmlns="http://www.w3.org/2000/svg" width="682.667" height="512" version="1.0" viewBox="0 0 512 384"><path d="M0 110.5V221l5.2 9.3c14.3 25.6 35.9 53.9 88.4 115.9 5.5 6.4 14.9 17.5 20.9 24.7l11 13.1H512V30.3l-6.9-1.2c-9.7-1.5-14.1-1.4-14.1.3 0 .8.4 1.8 1 2.1s1 1.1 1 1.6c0 .6-.4.7-1 .4s-1-.1-1 .4c0 .6-1 1.1-2.2 1.1h-2.1l2.3 2.5c2.2 2.3 2.2 2.5.4 2.5-1.1 0-.1.9 2.5 2 2.4 1.1 4.7 2 5.2 2 .4 0 2.5 1 4.5 2.2l3.7 2.2-7.4 3.6c-4.1 1.9-11.6 5.5-16.8 7.8-5.2 2.4-13.4 7.1-18.3 10.4-8.7 6-8.9 6.1-16.8 6.6-4.4.2-8 .8-8 1.3s.5.9 1.1.9c.5 0 .8.4.5.9-.4.5.6 1.3 2 1.8 2.6.9 2.4 1-5.2 6.3-13.8 9.4-23.4 17.4-23 19.1.2 1-3.2 5.2-8.9 10.9-5.4 5.3-9.2 9.9-9 10.9.1.9-2.2 4.5-5.1 8.1-3 3.7-4.9 6.9-4.4 7.4s2.8-.3 5.5-1.9c2.6-1.5 4.8-2.5 5.1-2.3.2.3-4.1 4.6-9.6 9.7s-9.8 9.6-9.5 10.1c.3.4 5.3-1 11.2-3.1 5.9-2.2 11.3-3.9 12-3.9.8 0 .4 1.3-1.2 3.6-1.3 1.9-2.1 4.2-1.8 5s.1 2-.4 2.7c-.6.6-1.5 2.8-2.2 4.7l-1.1 3.5 2.1-2.5c2-2.5 2-2.5-.1 1.7-1.1 2.4-2.5 4.3-3.2 4.3-.6 0-4.1-.9-7.8-2-9.5-2.8-18.1-8.8-28.9-20.1s-12.6-12-18.6-6.8c-5.6 4.9-6.8 7.9-9.9 23.6-.8 3.9-2.2 8.5-3 10.1-1.8 3.5-11.2 8-18.6 8.9-9.8 1.1-13.9 5.9-16.6 18.9-2.5 12-7.5 20.3-14.6 24-3.2 1.7-9.8 1.8-15.1.3-2.7-.7-4.8-.7-7.1.1-3.1 1-3.4 1.5-3.8 6.1-.5 4.7-1 5.4-11.7 16.4-18.7 19.1-19.8 24.7-9.6 46.7 12.8 27.3 16.9 37.5 18.4 45.5.5 2.4.7 4.3.6 4.3-.2 0-2.6-3-5.3-6.8-10.5-14.1-26.8-34.7-36.7-46.2-10.9-12.7-15.7-18.3-24-27.4-10.8-12-42.8-44.2-65.6-66.2-10-9.5-17.3-17.4-18.3-19.6-1.2-2.7-1.6-6.7-1.6-16.6 0-19-1.7-34.1-8.5-73.2-1.5-8.9-7.1-38.1-12.6-65.3C70.7 14.2 68 .6 68 .4S52.7 0 34 0H0zm423.8 36.2c-4 8.9-7.5 13.8-13 18.3-3.5 2.8-7.8 6.5-9.6 8.2-1.8 1.6-3.6 2.8-3.9 2.5-.6-.7 14.8-23.5 17.9-26.4 2.1-2 4.4-2.9 7.6-3.2.8 0 1.2.2 1 .6"/><path d="M143.7 1.4c.4.8 2.6 3.3 4.9 5.7 18.1 19.5 35.7 30.2 68 41.5 17.5 6.1 20.8 7.6 24.6 11.2 3.4 3.2 3.9 4.7 7.9 26.2 3.1 16.5 3.5 17.7 6.5 20.5 3.2 3 6.7 8.9 5.8 9.7-.2.3-1.1 3.1-1.9 6.3-1.4 5.3-1.4 5.9.1 7.6 3.5 3.9 10.4 1.2 10.4-4 0-1.2-.9-4-1.9-6.2-2-4-2-4 .2-7.4 2.3-3.6 2-3.5 16.4-5.4 10.2-1.3 13.8-3 15.1-7.3.6-1.8 1.3-11.7 1.6-22.1.4-13.9 1-19.5 2.1-21.7 1.9-3.6 6.9-7.1 21-14.5 26.2-13.8 40.4-24 52.6-38l3.1-3.5H261.6c-101 0-118.6.2-117.9 1.4"/></svg>