<svg xmlns="http://www.w3.org/2000/svg" width="682.667" height="512" version="1.0" viewBox="0 0 512 384"><path d="M0 130.5V261l5.2 7.3C15.1 281.9 35.9 308 48 322c3.1 3.6 9.4 11 14 16.5s9.1 10.7 10 11.5c.8.8 6.7 7.6 12.9 15 6.3 7.4 12.6 14.7 14 16.2l2.6 2.7 205.3.1H512V213.9c0-135.7-.3-170-1.2-169.6-12.1 4.9-17.7 7.9-33.3 18.4-7.6 5.1-7.7 5.2-17.7 5.9-9.3.6-9.9.8-7.2 2 1.6.7 2.3 1.3 1.7 1.3-2.7.2-1.1 2 2 2.3s3.1.4-5.3 6.2c-14.5 10.1-25 19-24.6 20.7.2 1-3.8 5.8-10.5 12.5-7.2 7.2-10.5 11.1-9.9 11.9.6.7-.2 2.3-2.3 4.6-7.1 7.9-9.7 11.7-8.3 12.2.7.3 2.8-.4 4.6-1.5 1.9-1.1 4.5-2.4 5.9-2.9 2.6-1 2.6-1 .6.9-1.1 1.1-6.2 5.6-11.2 10.1-5.1 4.5-9.3 8.8-9.3 9.5 0 .9 4.2-.2 13.6-3.5 7.4-2.7 13.9-4.9 14.4-4.9.4 0-1.6 4.8-4.6 10.7-3 6-4.8 9.9-4 8.8 4.2-5.5 4.4-5.5 1.9-.2l-2.8 5.9-4.1-.6c-9.7-1.3-20.5-8-31.9-19.7-12.9-13.3-13.7-13.9-17-13.9-8.7 0-14.3 9.2-18.5 30.7-1.5 7.4-3.9 11.7-8.1 14.2-3.8 2.3-11.7 4.7-18.4 5.6-8.4 1.1-12.7 7.4-15.5 22.4-2.9 16-14.6 27.4-26.2 25.7-11.5-1.8-14.5-1.8-16.1-.1-1 .9-1.7 3.2-1.7 5.1 0 5.1-1.1 6.7-13.7 19.6-9.1 9.4-12 13.1-14.5 18.5-2.5 5.6-2.9 7.6-2.5 11.9.5 5.2 5.4 17.5 13 33.2 7.4 15.1 14.7 34.2 13.2 34.2-.2 0-1.9-2.1-3.8-4.7-6.6-9-14-18.6-24.2-30.8-12.1-14.8-26.2-31.3-28.8-34-.7-.7-4.8-5.2-9.2-10.1-10.5-11.7-44.8-46-70.8-70.8-11.4-11-21.4-21.1-22.2-22.6-1-1.9-1.6-8.2-2-20.6-.6-18.8-2.5-38.8-5.1-53.9-.9-5-2-11.7-2.4-15-.5-3.3-2.3-13.2-4-22s-3.5-18.3-4-21c-1.4-8.4-9-46.7-10.2-51.8L54.6 0H0zm436 14.2c0 .3-1.6 3.4-3.5 6.8-3 5.5-9.5 12.1-15.9 16.4-1.2.8-3.8 3-6 5l-3.8 3.6 1.7-3.3c6-12 21-29.2 25.4-29.2 1.2 0 2.1.3 2.1.7"/><path d="M150.5 6.6c15.6 14.6 32.2 23.7 64.2 34.9 27.6 9.8 27.3 9.4 31.8 32.1 1.8 9.3 3.6 18.9 4 21.4.6 3.4 1.7 5.4 4.5 8 2 1.9 4.2 4.5 4.9 5.7 1.7 3.4 6.3 3.1 9.3-.5 2.1-2.6 3.1-2.9 13.2-4 11.9-1.3 17.5-3.3 19.3-7.2.7-1.5 1.4-11 1.9-23.3.5-16 1.1-21.5 2.3-24 2.2-4.4 9-9.2 23.4-16.7 21.3-11.1 38.2-22.3 45.6-30.4l2.4-2.6H260.4L143.5.1zm360 14.4c.3.5.8 1 1.1 1 .2 0 .4-.5.4-1 0-.6-.5-1-1.1-1-.5 0-.7.4-.4 1m-248.2 94.2c-2.3 2.8-4.3 7.8-4.3 10.6 0 3.3 3.6 7.2 6.7 7.2 5.4 0 6.8-6.6 3.1-14-2.5-4.8-3.9-5.8-5.5-3.8"/></svg>