<svg xmlns="http://www.w3.org/2000/svg" width="682.667" height="512" version="1.0" viewBox="0 0 512 384"><path d="M0 149.1v149.1l3.2 4.2c5.1 6.5 28.5 34.3 36.3 43.1 3.9 4.4 10 11.4 13.5 15.5s9.5 11 13.3 15.3l7 7.7H512V213.5c0-93.8-.2-170.5-.5-170.5s-5.3 3.2-11.2 7.2c-11.2 7.5-14.5 8.7-24.8 8.8-6.8 0-10.2 1.3-6.3 2.4 1.9.5 2 .8.8 1.5-1.8 1.2-1.4 1.5 2.8 2.7l3.3.9-7.8 5.2c-9.9 6.6-25.6 19.8-25.9 21.7-.1.9-5.4 6.8-11.8 13.1-6.4 6.4-11.6 12.2-11.6 13v2c0 .3-2.9 4-6.5 8.2-3.7 4.3-6.1 7.9-5.5 8.1.8.3.7.8-.1 1.8-.7.8 1.6-.1 5.1-2.1 8.2-4.6 9.2-4.4 3.3.6-12.3 10.5-21.1 19.9-18.7 19.9.8 0 15.6-5.3 22.3-7.9 6.9-2.8 8.6-2.5 6.7.9-3.7 7-6.9 12.6-7.7 13.4-.5.6-.9 1.4-.9 1.9s.9-.1 2-1.4l2-2.4-1.4 4.2c-2.6 7.4-3.4 8.4-6.4 7.7-5-1.2-18.6-8-23.7-11.9-2.7-2.1-9.7-8.7-15.4-14.7-11.4-11.9-13.4-12.8-19.8-8.8-7 4.2-10 11.1-14.8 33.2-.9 4.3-2.6 9-3.8 10.4-2.9 3.7-14.9 9-22.1 9.8-11.5 1.3-16.1 6.7-19.6 23.1-2.5 11.3-5.4 17.5-11.2 23.4-5.4 5.4-11.1 7.5-18 6.7-16-1.9-15.5-1.9-17.8.4-1.6 1.6-2.1 3-1.7 4.9.9 4.3-1.3 7.5-12.8 19.3-14.7 15-18.1 19.7-21 29.4-2.1 7.2.2 16 10.1 37.2 1.9 3.9 5 10.7 7 15 2 4.2 4.5 10.2 5.5 13.2l1.9 5.5-2.1-2.5c-2.2-2.7-7-8.7-17.6-22-3.7-4.7-7-8.7-7.3-9s-4.4-5-9-10.5c-33.6-39.8-66-73.1-106-109-11.2-10-25-24.3-26-26.9-.5-1.4-1.4-13.5-2-26.9-1.2-29.5-3.5-46.5-13.5-100.7C50.2 50.4 42 7.7 41.2 4L40.4.5 20.2.2 0 0zm447.8-2c-3 5.6-5.5 8.8-9 11.4-4.6 3.6-13.6 10.9-15.3 12.4-4 3.5-4.8 3.5-3.1.2 1.6-3 28.4-30.1 29.8-30.1.5 0-.7 2.7-2.4 6.1"/><path d="M149.7 2.4c11.9 10 35 21.8 60 30.5 24.7 8.6 29.1 11.2 31.6 18.3.9 2.4 3.3 13.3 5.3 24.3 3.6 18.9 4 20.2 6.8 22.8 1.7 1.5 4.2 3.9 5.6 5.2 3.2 3.1 8.3 3.4 10.3.5 1.1-1.6 3.3-2.2 11.3-3 11.9-1.3 19.8-3.4 22.4-6 2.3-2.3 2.7-6.5 3.5-31.5.7-21.7 1-22.7 8.9-28.6 2.7-2 10.3-6.5 17-9.9 17.5-9 27.2-14.8 36.5-21.7l4.4-3.3H146.8zM260 118.1c-2.5 3.5-3 5.1-2.8 8.7.2 3.5.8 4.7 3.1 6 2.5 1.5 3 1.5 5.4.2 1.5-.9 3.4-2.8 4.3-4.3 1.4-2.5 1.3-3-.9-7.1-1.3-2.5-3.1-5.2-4.1-6.1-1.8-1.6-2-1.4-5 2.6"/></svg>