<svg xmlns="http://www.w3.org/2000/svg" width="682.667" height="512" version="1.0" viewBox="0 0 512 384"><path d="M0 169.5c0 136.2.2 169.6 1.3 170.2.7.4 7.3 7.8 14.7 16.3s16.2 18.3 19.4 21.8l5.9 6.2H512V46l-2.6 1c-1.4.6-4.9 1-7.7 1-2.9 0-8.3.3-12.2.7l-7 .7 4.5 1.2c2.6.7 3.5 1.2 2.3 1.3-3.5.2-1.7 2.8 2.5 3.8l3.7.9-3 1.9c-8.9 5.7-31.5 24.2-31.5 25.9 0 .5-6.3 7-13.9 14.6-10 9.9-14.1 14.6-14.6 16.9-.3 1.7-1.3 3.4-2 3.8-2 1.2-12.6 15.3-11.2 15 .6-.1 1.1.3 1 1-.2.7 2-.1 4.8-1.7 2.7-1.7 5.3-3 5.7-3s-4.8 5.4-11.6 11.9c-8.9 8.5-11.9 12-10.8 12.4.8.3 7-1.5 13.8-4s13.8-4.9 15.6-5.3l3.2-.8-1.8 3.2c-1.1 1.7-2.9 4.8-4.2 6.9-2.8 4.7-2 6 .9 1.5 3.5-5.5 2.4-1.6-2.3 8l-4.5 9-4.3-1.5c-13.1-4.5-25.9-13.9-40.1-29.5-10.8-12-14-13-22.5-6.8-5.4 3.9-9.2 11.6-12.1 24.5-3.9 16.9-5 20.4-8 23.8-3.7 4.1-13.8 8.4-23.2 9.7-8.5 1.2-11.7 2.8-15.3 7.4-3.8 5-5.2 8.9-7 18.9-2.5 14.4-9.9 25.8-20 30.6-6.6 3.3-12.7 3.8-17.6 1.6-2.9-1.3-5.2-1.6-8.7-1.1-6.1.8-8.6 3.6-7.7 8.8.3 2.1 0 4.6-.7 5.9-.6 1.3-7.3 8.6-14.9 16.4-19.3 19.9-24.5 29.9-22.1 43.1 1 5.4 2.8 9.9 14.5 37.9 2.5 6 3.8 10 2.8 8.9-5.9-7.3-19.7-24-20.2-24.4-.3-.3-3-3.4-6-7s-8.8-10.3-13-15c-4.1-4.6-9.1-10.2-11-12.4-16.7-19-49.1-51.7-72.5-73.1-6.6-6.1-12.2-11.2-12.5-11.5s-5.9-5.4-12.5-11.2c-12.4-10.9-19.9-18.4-22.9-23-1.5-2.2-1.8-5.8-2-25-.4-27.1-2.1-41-12.6-98.8-1-5.8-3.1-17-4.5-25S29 27.4 28 22.5c-1-5-2.4-12-3-15.8L23.8 0H0zM463 146c-1.1 2.1-9.7 11-10.5 11-.3 0-.5-.5-.5-1.2 0-1 10.7-11.8 11.7-11.8.2 0-.1.9-.7 2m-16.8 11.3c-2.3 4.3-5.4 8.4-8 10.5-5.9 4.8-4.8 2.2 4.5-11.4 6-8.7 8.3-8.1 3.5.9m3.8 2.1c0 .3-.4.8-1 1.1-.5.3-1 .1-1-.4 0-.6.5-1.1 1-1.1.6 0 1 .2 1 .4"/><path d="M159.5 3.6c11.1 6.5 26.7 13.4 42.4 18.9 28.5 10 33.5 12.6 36.7 18.7.8 1.6 3.5 13.3 5.9 26 2.5 12.7 5.2 24.2 6 25.5.9 1.3 2.8 2.9 4.3 3.6 1.5.6 3.8 1.9 5.1 2.9 2.4 1.9 7.1 1.7 9.6-.2.6-.4 6-1.3 12-2 20.3-2.1 24.6-3.9 26.4-10.8.5-2 1.2-14.1 1.6-26.7.6-20.3.9-23.4 2.7-26.5 2.8-4.9 8.7-9 26.9-18.6 8.8-4.6 18-9.7 20.6-11.4l4.8-3H259L153.5.1zm98.6 117.5c-3.7 5.1-3.8 6.9-.7 10.5 4.6 5.4 12.4 3 14.2-4.3.8-3.2-4.2-9.7-7.9-10.1-2.1-.3-3.2.5-5.6 3.9"/></svg>