<svg xmlns="http://www.w3.org/2000/svg" width="682.667" height="512" version="1.0" viewBox="0 0 512 384"><path d="M188.1.4c.2.3 6.3 2.4 13.4 4.9 18.5 6.3 25.4 9.7 29.7 14.5 4.3 4.7 4.1 4 10.3 36.4 2.8 14.7 5.5 25.9 6.6 27.7 2.4 4 6.8 5.1 20.2 5.1 22.9 0 41-3.7 45.1-9.2 1.8-2.6 2.1-5.1 2.8-28.5 1.2-35.6 1.2-35.6 5.6-40.5 2-2.2 5.9-5.6 8.7-7.4l5-3.4h-73.9c-40.7 0-73.7.2-73.5.4"/><path d="M504.5 65.6c-6.5 6.1-23.8 23.2-32 31.5-1.9 2-3.5 4-3.5 4.3 0 .6-10.2 13.7-17.9 23-1.5 1.8-1.5 1.9.2 1.3 1.1-.4 1.7-.1 1.7.8 0 1 1.2.7 4.6-1.2 2.5-1.4 4.8-2.2 5.2-1.8.4.3-.1 1.1-1 1.6-2 1.1-14 12.3-21.1 19.6-2.8 2.9-5.8 5.3-6.6 5.3-1.8 0-9.7-7.9-20-19.7-3.8-4.4-7.9-8-10.6-9.3l-4.4-2.1-6.1 2.7c-6.7 3-11.7 7.9-15.4 15.1-2.1 4.2-8.6 28-8.6 31.6 0 2.9-4.3 14.3-6.5 17.2-3.8 5.1-16.2 10.5-29.4 12.7-12.3 2.1-15 3.3-20 9.7-3.8 4.8-6.6 12.3-8.6 23.1-2.2 11.2-7 21-14.3 29.1-10.4 11.2-22 15.1-34.5 11.5-4.4-1.3-6.5-1.4-10.4-.6-5.8 1.3-6.3 1.6-8.4 5.5-1.1 2.1-1.4 4-.8 6.5.5 2.3.3 4.3-.7 6.2-1.5 2.9-12 14.5-18.7 20.7-12.9 11.9-18.6 19-24.2 30-5.4 10.9-6.7 18.1-4.9 28.8.7 4.8 1.3 8.8 1.1 8.9-.1.1-4.4-4.6-9.4-10.4-11.3-13.1-11.6-13.4-37.2-40.6-26.4-28.1-60.4-60.2-91.4-86.6-1-.8-3.3-2.9-5.1-4.5-1.9-1.7-5.8-5-8.7-7.5-16.5-14-21-18.4-25.7-25.4l-2.7-4 .3-19.5c.4-20.7-.7-34.6-5.3-66.6-1.3-9.4-2.6-18.8-2.8-21S.3 154.2.2 235.7L0 384h512V221.5c0-89.4-.1-162.5-.2-162.5-.2 0-3.4 3-7.3 6.6m-4.8 67.6c-.9 1.3-3.5 5.6-5.7 9.5-2.2 4-4.4 7.3-4.8 7.3s-2.7 1.9-5.1 4.1c-2.5 2.2-7.1 5.9-10.3 8.1l-5.9 4 2.2-4.3c1.2-2.4 5.9-9.8 10.5-16.5 7.4-10.8 8.9-12.3 12.2-13.2 2-.5 4.8-1 6.1-1.1 2.2-.1 2.3 0 .8 2.1m-27.8 9c-.7 1.3-2.2 3.9-3.4 5.8s-2.5 4.4-2.8 5.5l-.7 2 1.5-2c3.1-4.1 4.7-5.7 5.1-5.3.6.7-8.9 19.8-9.9 19.8-2 0-13.9-6.6-20.1-11.2-6.5-4.7-7.8-7.3-3.3-6.3 1.3.3 8.4-1.8 16.7-4.9 8-3 15.3-5.5 16.3-5.5 1.5-.1 1.6.2.6 2.1"/><path d="M257.1 123.6c-4.4 3.7-4.3 8.4.3 13 7.1 7.1 16.9 1.8 15-8.1-1.4-7.6-9.2-10.1-15.3-4.9"/></svg>