<svg xmlns="http://www.w3.org/2000/svg" width="682.667" height="512" version="1.0" viewBox="0 0 512 384"><path d="M229.4 5.2c1 7.8 9.5 50.4 11.2 56.5.9 3.3 2.5 6 4.3 7.6 2.8 2.3 4.5 2.8 16.2 4.2 11.9 1.5 51.6-3.2 59-7.1 4.6-2.3 7.7-6.5 8.8-11.3.5-2.6 1.3-16 1.7-29.9l.7-25.2H228.7zM468 87.4c-7.4 2.8-17.7 9.1-21.7 13.3-4.8 5-12.4 20-14.8 28.9-.9 3.2-1.8 6.6-2 7.4-.3.8-1.2 4.9-2.1 9-5.9 27.7-9.6 38.6-14.9 44.2-2.3 2.5-12.8 9.8-14 9.8-.5 0-11.4 4.7-13.6 5.9-2.1 1.2-11.1 2.9-18.9 3.5-12.1 1.1-18.5 4-25.7 12.1-5.1 5.6-11.5 17.5-13.2 24.3-4.1 16.4-7.7 27.1-12.3 36.1-6.7 13.3-19.7 27.5-30.5 33.3-10.5 5.7-16.3 6.8-34.8 6.8-17.4 0-26.1 1.6-27.1 4.8-.3.9-1.5 3.6-2.6 5.8-1.8 3.4-2 5.2-1.5 10.6.6 6.2.5 6.7-3 11.9-2 3-9 10.7-15.6 17.1l-12 11.8H512V120.7l-6.9-8.1c-14.7-17.2-21.1-23-27.3-24.7-2.2-.5-4.5-1.2-5.1-1.4-.7-.2-2.8.2-4.7.9M257.6 129c-5.2 1.6-7.6 4.8-7.6 10.2 0 10.3 8.5 15.5 18.5 11.4 7.1-3 8.9-15.1 3-20.9-1.8-1.9-8.9-2.2-13.9-.7M0 332.4V384h112.5L94 365.7c-10.2-10-23.4-22.7-29.3-28.2s-13.1-12.2-16-14.9c-2.8-2.7-9.2-8.3-14.1-12.5S22.7 299.8 19 296.5s-9.4-8.2-12.8-10.8L0 280.9z"/></svg>