<svg xmlns="http://www.w3.org/2000/svg" width="682.667" height="512" version="1.0" viewBox="0 0 512 384"><path d="M225 .7c0 .5 1.5 8.7 3.4 18.3 5.7 29.5 7.7 32.1 27 34.2 18.2 2 57.5-1.8 75.1-7.3 5.5-1.7 8-3.1 11.6-6.8 5.9-5.8 6.8-9.1 7.6-25.9l.6-13.2h-62.7c-34.4 0-62.6.3-62.6.7m31.4 139.2c-3.4 1.6-4.6 3-8.2 10-4.7 9-5.1 12-2.3 16 3.2 4.4 12.6 10.3 17.4 10.8 8.9 1 18.7-7.3 18.7-15.9 0-5.7-9.7-18.9-15.7-21.4-4.1-1.8-5-1.7-9.9.5M509.5 209c-1 1.2-3.7 3-5.9 4-2.3 1.1-5.7 2.9-7.6 3.9-8.4 4.7-32.8 15.9-35.5 16.5-1.6.3-6.4.8-10.5 1.1-30.5 2.2-46 10.8-62 34.5-5.7 8.4-14.4 25.6-17.1 33.5-.7 2.2-1.9 4.9-2.6 6s-1.3 2.9-1.3 4.2c0 1.2-.4 2.5-1 2.8-.5.3-1.4 2.4-2 4.6-.6 2.3-3.3 8.7-5.9 14.2-4.3 9.2-5.8 11.2-15.2 20.7-5.7 5.8-14 13.7-18.3 17.5-4.4 3.9-9.1 8-10.4 9.2l-2.5 2.3H512v-88.5c0-48.7-.2-88.5-.3-88.5-.2 0-1.2.9-2.2 2"/></svg>