<svg xmlns="http://www.w3.org/2000/svg" width="682.667" height="512" version="1.0" viewBox="0 0 512 384"><path d="M223.4 1.7c.3 1 1.5 6.7 2.6 12.7 4.4 22.6 7.7 27.1 22.7 30.1 16 3.2 58.2.4 81.4-5.5 10.9-2.8 14.5-4.5 19.4-9.5 5-5 7-10.6 7.9-22.3l.5-7.2h-67.5c-63.9 0-67.5.1-67 1.7M255.5 147c-10.5 6.7-13.5 11-13.5 19.5 0 6.4 1.4 9.7 6.2 14.2 8.8 8.3 13.9 9.8 21.3 6.4 9-4.2 14.2-13.9 13.1-24.1-.9-7.1-4-11.8-10.2-15.2-8-4.3-11.1-4.4-16.9-.8m253.4 102.5c-1.5.8-7.8 1.9-14 2.5-6.3.6-15.2 2-19.9 3.1-7.7 2-24.6 9.4-27.5 12.2-.7.7-2.3 1.9-3.5 2.7-3.5 2.3-15.7 14.5-18.2 18.2-3.9 5.6-8.3 11.3-9 11.6-.5.2-.8 1.2-.8 2.2s-.4 2-.8 2.2c-2.2.9-15 25.6-22.3 43.1-2 4.9-4.8 8.2-17.6 20.8-8.4 8.2-15.3 15.2-15.3 15.4 0 .3 34.2.5 76 .5h76v-68c0-37.4-.1-68-.2-68-.2.1-1.5.7-2.9 1.5"/></svg>