<svg xmlns="http://www.w3.org/2000/svg" width="682.667" height="512" version="1.0" viewBox="0 0 512 384"><path d="M222 1.9c0 4.3 4.9 20.4 7.4 24.1 4.7 7.2 10 9.4 26.4 11.1 21.7 2.4 71.4-3.3 90.1-10.3 9.9-3.8 19.1-15 19.1-23.6V0h-71.5C224.1 0 222 .1 222 1.9m32 150.8c-3.4 1.3-9.8 6.6-11 9.1-4.4 9.7-5 17.8-1.7 23.7 2.4 4.2 14.4 14.1 18.3 15.1 3.8 1 7.7-1.2 15.2-8.5 7.5-7.2 10.2-12 10.2-18.5-.1-8-6.2-16.7-14.2-20-3.6-1.5-13.7-2-16.8-.9m252 146.4c-2.5 1.6-5.4 3.5-6.4 4.1-7.9 5.3-25.6 23.3-33.6 34.2-4.6 6.3-10.6 12.4-21 21.6-4.7 4.1-9.9 8.8-11.7 10.5-1.7 1.6-4.9 4.4-7 6.2-7.2 6-8.3 7-8.3 7.7 0 .3 21.2.6 47 .6h47v-44c0-24.2-.3-44-.7-43.9-.5 0-2.8 1.4-5.3 3"/></svg>