<svg xmlns="http://www.w3.org/2000/svg" width="682.667" height="512" version="1.0" viewBox="0 0 512 384"><path d="M221.7 5.2c3.4 11.7 7.6 16.6 16.8 19.8 22.3 7.8 95.1 1.3 118.5-10.5 4.5-2.3 14-11.4 14-13.5 0-.7-23.7-1-75.4-1h-75.5zm31.5 153.4c-5.4 2.7-12.1 9.4-14.4 14.2-1.1 2.6-2.3 7.5-2.6 11-.6 8 1.9 13.2 10 20.7 8.3 7.7 14.5 8.8 23.4 4.2 6.9-3.5 15-15.9 16.1-24.5 1.1-8.2-6.6-21-15-25.1-5.2-2.5-12.9-2.7-17.5-.5M508 371.2c-4.5 5.4-10.1 10.8-11.2 10.8-.4 0-.8.4-.8 1s3.3 1 8 1h8v-8.5c0-4.7-.1-8.5-.3-8.5-.1 0-1.8 1.9-3.7 4.2"/></svg>