<svg xmlns="http://www.w3.org/2000/svg" width="682.667" height="512" version="1.0" viewBox="0 0 512 384"><path d="M0 192v192h298.2l-.6-8.3c-.4-4.5-1.1-16.5-1.6-26.7-1.1-20.6-1.5-24.7-3.6-40.5-2.2-15.5-3.8-20.6-8.5-25.8-4.3-4.9-8.6-6.7-24.4-10.2-16.8-3.7-21.4-6.9-34.5-24-5.4-7-7.2-10.3-8.1-14.5-1.5-7.3-.4-19.4 2.2-23.7 2-3.1 9.1-9.6 11.5-10.4 1.9-.6 10.4-8.8 10.4-10 0-.5-.7-2.4-1.6-4.1-2.1-4.1-.4-5.9 2.4-2.3 1.1 1.4 2.2 3.1 2.5 3.8.2.6 2.4-.6 5.3-3 7.3-6.1 12.4-7.9 21.9-7.7 8.1.1 14 1.8 16.5 4.8 2.2 2.7 2.7 1.8 2-3.6-.5-3.8-1.3-5.6-2.9-6.7-1.3-.9-3.9-3-5.9-4.7-4.1-3.6-3.9-5.4 1-8.3 5-3 9.7-6.5 9.8-7.3 0-.7-6.2-9.3-7.7-10.8-.8-.7.2 5 1.2 7.5.8 1.8.7 1.8-.8.6s-1.7-1.1-1.8 1c0 2.1-.2 2-1.2-.8-1.5-3.8-2.7-5.2-2.7-3 0 2.5-1.6 2.1-4-1l-2.2-2.8.7 3c2.1 8.9-8.3-9.4-11.4-20.1-2-6.6-2.4-7.3-7.3-10.5-2.9-1.9-6.4-4.1-7.7-4.8-4.9-2.7-17.1-13.6-17.1-15.2 0-2.1-18.3-17.9-20.7-17.9-1 0-3.6-1.8-5.8-3.9-13-12.8-24.5-24.7-24.5-25.5 0-.5-1.1-2.4-2.5-4.2-2.7-3.5-3.2-6-1.4-6.6 2.4-.8-4.1-6.6-8.6-7.7-3.7-.9-5.3-2.1-9-6.8-2.7-3.5-4.1-6.1-3.5-6.7.5-.5-.2-1.9-1.8-3.6-3.5-3.5-5.7-9-3.6-9 .8 0 1.4-.5 1.4-1 0-.7-25.7-1-75-1H0zM262 1c0 .5.7 2.8 1.6 5.1l1.7 4.1 12.6-.7c7.4-.5 15.2-1.6 19.1-2.7 3.6-1.1 12.6-3 20-4.3L330.5.2 296.3.1C274.5 0 262 .4 262 1m243.9 53c-.9.5-2.1 3.5-2.8 7.2-.7 3.5-1.7 8.5-2.3 11.1s-.8 5-.5 5.3 3 1.1 6.1 1.8l5.6 1.3V66.9c0-13.8 0-13.9-2.2-13.9-1.3 0-3 .5-3.9 1M296.6 189c2.7 4.5 8.9 11.9 9.2 11 .6-1.7-3.1-7.1-6.7-9.9-1.9-1.4-3-1.9-2.5-1.1m45.4 20.8c0 .4-1.4 2.3-3.1 4.2-3 3.5-3 3.5-2.6.8.4-2.6.4-2.6-6.1 1.8-3.5 2.4-7.5 4.4-8.7 4.4-1.4 0-4.1-1.9-7-4.8-4-4-4.6-4.3-4.1-2.2 3.8 14.4 2.1 23.3-5.3 28.8l-3 2.2 5 4.7c6.6 6.1 11.5 16.5 16.9 35.3 2.3 8 4.4 14.7 4.7 15 .6.7 4.6-4.1 9.4-11.4l3.9-5.9V258l3.3-3.7c1.8-2.1 4.4-5.6 5.9-7.8 3-4.7 2.9-4.9-4.9-16.2l-4.2-6 2.4-2.3c3-2.8 3-3.2.8-8.7-1.6-3.8-3.3-5.6-3.3-3.5"/></svg>