<svg xmlns="http://www.w3.org/2000/svg" width="682.667" height="512" version="1.0" viewBox="0 0 512 384"><path d="M250.5 201.8c-1.1 1.1-4.4 2.8-7.3 4-2.9 1.1-9.1 4.9-13.9 8.4-7.2 5.2-9 7.1-10.9 11.4-3.6 8.1-3.9 13.3-1.5 21.1 2.9 9.4 4.9 12.3 13.7 19.5 5.5 4.5 10.2 7.3 16.8 10 5 2.1 9.7 3.8 10.5 3.8.7 0 5.5-1.6 10.5-3.6 7.3-3 10.8-5.2 17.7-11.1 7.6-6.4 8.9-8.1 10.7-13.1 4.9-13.5 4.7-12.4 2.3-21.3-2.4-9.1-3.4-10.6-10.1-15.2-2.5-1.7-5.9-4.2-7.5-5.6-1.7-1.4-6.4-3.6-10.5-4.9s-9-3-10.8-3.8c-4.4-1.9-7.4-1.8-9.7.4"/></svg>