<svg xmlns="http://www.w3.org/2000/svg" width="682.667" height="512" version="1.0" viewBox="0 0 512 384"><path d="M253.4 215.1c-1.2.4-2.4 1.4-2.7 2.2-.3.9-3.6 3.2-7.4 5.3-7.7 4.3-15.5 9.8-19.6 13.9-3.2 3.3-5.7 10.9-5.7 17.6 0 5 3.5 15.9 5.1 15.9.5 0 .9.6.9 1.4 0 1.6 6.8 8 13 12.2 2.5 1.7 8.2 4.5 12.8 6.2l8.2 3.2 5.3-2.1c2.8-1.2 6.7-2.6 8.5-3.1 1.7-.5 3.2-1.3 3.2-1.8 0-.6.6-1 1.4-1s4.8-3.1 8.9-7c7.9-7.4 11.2-13.1 12.4-21.5.7-5.2-1.8-15.8-4.5-19-5.2-6.3-23.9-17.4-29.3-17.5-.9 0-2.4-1.1-3.2-2.4-1.8-2.7-4.4-3.6-7.3-2.5"/></svg>