<svg xmlns="http://www.w3.org/2000/svg" width="682.667" height="512" version="1.0" viewBox="0 0 512 384"><path d="M258.3 230.2c-1.2.6-2.3 2-2.5 3.1-.2 1.4-2.2 3-5.9 4.8-4.1 2.1-5.9 3.6-6.8 5.9-.6 1.6-1.6 4.3-2.2 6-.7 1.9-2.9 3.9-6.4 5.9-6.4 3.6-9 7.1-11 14.6-2.5 9.9.8 17.5 11.7 26.6 8.9 7.4 15.6 10.3 22.3 9.6 12.7-1.3 26.7-9.6 31.4-18.7 2.9-5.5 2.9-15.2 0-19.9-2.2-3.6-8.4-9.6-13.9-13.4-1.9-1.3-3.4-2.9-3.2-3.5.1-.7-.3-1.2-.8-1.2-.6 0-1-2.4-1-5.3-.1-8.9-.3-10.7-1.1-10.7-.5 0-.9-.6-.9-1.3 0-1.4-4.1-3.8-6.3-3.6-.7 0-2.2.5-3.4 1.1"/></svg>