<svg xmlns="http://www.w3.org/2000/svg" width="682.667" height="512" version="1.0" viewBox="0 0 512 384"><path d="M0 192v192h304.2l-.6-6.3c-.3-3.4-.8-11.2-1.1-17.2-1.2-22.2-3.6-47.2-5.4-56.3-1.6-8.3-2.2-9.7-5.6-13.2-4.8-4.9-10.3-7.2-24.5-10.4-6.3-1.4-13.8-3.8-16.6-5.4-5.6-2.9-16.3-14-22.9-23.6l-4-5.8-.3-12.9-.4-12.9 5.7-6c3.2-3.3 6.7-6.2 7.9-6.6 1.1-.4 4.1-2.6 6.5-5l4.5-4.3-1.9-4.1c-1.3-3-1.5-4.4-.7-5.2s1.7-.1 3.2 2.6c1.2 2 2.6 3.6 3.2 3.6.5 0 3-1.8 5.6-3.9 6.9-5.7 11-7.1 21.3-7.1 6.7 0 8.9-.3 8.9-1.3 0-1.5-3.4-4.9-6.7-6.6-1.3-.6-3-2.5-3.8-4.1-1.7-3.3-2-2.9 7.8-9.1 2.6-1.7 4.7-3.5 4.7-4 0-1.4-4.5-8.2-6.5-9.9-1.7-1.4-1.8-1.3-1.3 2.5.5 3.4.3 4.1-1.2 4.2-1 .1-2.3-1-3-2.5l-1.3-2.7-.6 2.5-.7 2.4-2.4-3.4c-2.4-3.4-2.4-3.4-3-1-.5 2.3-.9 1.9-3.9-3.5-3-5.6-6.2-14.4-7.5-20.7-.6-2.6-9.2-9.8-11.9-9.8-1.7 0-17.7-14.9-17.7-16.5 0-2-18.8-18.5-21-18.5-1 0-3.3-1.8-5-4s-3.7-4-4.4-4c-1.5 0-18.3-18.1-20.5-22-.9-1.6-2.4-4.2-3.4-5.9-1.5-2.7-1.5-3.1-.2-3.1 2 0 1.9-.5-.6-4-1.5-2-3.7-3.2-7-4-4-1-5.4-2-8.8-6.4-2.3-2.9-4.1-6-4.1-6.9s-1.1-2.8-2.4-4.2c-2.9-3.1-4.2-7.5-2.5-8.5 1.5-1-2.4-3.6-6.8-4.5-3.4-.7-4.6-2.5-1.7-2.5.8 0 1.2-.5.9-1-.4-.7-25-1-70.6-1H0zM260.4 5.1c.4 2.8 1.4 6.8 2.2 8.8l1.5 3.7 13.2-.2c10.2-.1 14.9-.7 20.6-2.3 4.1-1.2 13-3 19.8-4.1 12.9-2 13.9-2.4 22.7-10.2.6-.4-17.4-.8-39.8-.8h-40.9zm244 59.9c-1.6.6-2.4 2.6-3.9 10.1-1 5.2-1.8 11-1.9 12.9-.1 3.4-.1 3.4 6.4 5.2 3.6.9 6.6 1.7 6.8 1.8.1 0 .2-7 .2-15.5V64l-2.7.1c-1.6 0-3.7.4-4.9.9M336.1 221.6c-3.1 3.8-3.2 3.8-2.8 1.1.2-1.5.1-2.7-.2-2.7-.4 0-2.9 1.4-5.6 3.1s-5.9 3.5-7.2 4c-2.1.8-2.3 1.5-2.3 7.4 0 7.7-1.6 11.3-6.5 15.1l-3.5 2.6 4.3 3.3c5.6 4.3 10.4 13.4 15.2 29 5.4 17.6 4.8 16.6 7.4 12.5 3.5-5.7 4.4-10.7 3.7-20.6l-.7-9 3.9-4.5c2.1-2.4 4.8-5.8 6-7.5l2.2-3.2-2.4-4.5c-1.3-2.4-4.1-6.8-6.1-9.7l-3.7-5.2 3-3.2 3-3.1-2.2-4.4-2.2-4.3z"/></svg>