<svg xmlns="http://www.w3.org/2000/svg" width="682.667" height="512" version="1.0" viewBox="0 0 512 384"><path d="M262.5 228c-.3.5-1.2.7-2 .3-1-.3-1.5.1-1.5 1.4 0 1.6-.8 2-4.7 2.2-2.7.1-5.8.9-7 1.7-2.2 1.4-7.3 10.2-7.3 12.5 0 .6-.9 2.2-2 3.6s-2 3.6-2 4.9-.4 2.4-1 2.4c-1.4 0-7.9 5.9-9.2 8.3-.6 1.2-1.7 4.4-2.4 7.2-1.2 4.4-1.2 5.7.3 10.5 1.4 4.4 3.1 6.9 8.8 12.7 4.5 4.4 9.6 8.3 13.6 10.3l6.3 3.2 7.8-1.5c8.9-1.8 16.8-5.1 21.7-9.3 6.6-5.5 10.1-18.4 6.6-24.4-.8-1.4-1.8-3.4-2.3-4.5-.6-1.1-2.4-3.3-4.1-4.8-1.8-1.5-2.9-3.3-2.5-3.9.4-.7.3-.8-.4-.4-.6.4-1.9 0-2.9-.9-1-.8-2.6-2.1-3.6-2.8-1.1-.7-1.9-2.4-1.8-3.8.2-8.4 1-17.9 1.6-18.9.4-.6-.7-2.4-2.4-4.1-3.1-2.9-6.4-3.8-7.6-1.9"/></svg>