<svg xmlns="http://www.w3.org/2000/svg" width="682.667" height="512" version="1.0" viewBox="0 0 512 384"><path d="M245.1 230.9c-2.3 2.7-4.4 6.4-4.7 8.2-.4 1.9-1.5 4.3-2.5 5.4-2.3 2.5-2.2 3.2.4 7.4 2 3.3 2 3.5.2 4.5-12.3 7.2-18.2 17.2-15.4 26.1.7 2.2 2 5.1 2.8 6.5 3.3 5.5 11.7 14.2 16.9 17.7 4.9 3.2 6.1 3.6 11.6 3.4 11.4-.3 23.2-5.3 29.1-12.3 1.5-1.8 3.1-3.2 3.4-3.1.8.2.9-1 1.3-8.7.3-7.5-4.1-15.6-12.3-22.5-6.5-5.5-7-7-3.9-13 1.4-2.7 2-5.9 2-10 0-3.4.4-6.5 1-7.1s.1-2-1.5-4c-2.3-3-2.4-3-13.4-3.2l-11-.1z"/></svg>