<svg xmlns="http://www.w3.org/2000/svg" width="682.667" height="512" version="1.0" viewBox="0 0 512 384"><path d="M245.6 228.2c-2.5 2.6-4.7 5.9-5.1 7.8-.4 1.8-1.6 4.8-2.7 6.7l-2.1 3.4 3.1 4.5 3.1 4.4-3.2 1.6c-8.3 4.3-14.6 11.7-16.2 19-1.5 7.5 6.8 20.9 19.3 31.1 4.4 3.6 6 4.3 9.5 4.3 20.6 0 36.7-10.8 36.7-24.5 0-2.9-.7-6.5-1.4-8.1-.8-1.5-1.2-3.2-.9-3.8s.3-.8-.2-.4c-.4.4-2.4-1.5-4.5-4.1s-5.6-6.2-7.9-8c-4.6-3.6-4.7-5.1-.7-10.4 1.7-2.3 2.1-4.4 2.2-10.5.1-4.5.6-7.8 1.3-8 1.2-.4-1.5-5.2-3.9-6.7-.8-.5-3.5-1-6-1.2s-7.1-.6-10.3-.9l-5.7-.6z"/></svg>