<svg xmlns="http://www.w3.org/2000/svg" width="682.667" height="512" version="1.0" viewBox="0 0 512 384"><path d="M251.9 216.7c-5.9 2.5-9.5 5.9-10.8 10.5-.8 2.3-1.9 5.6-2.6 7.2-1.2 2.6-1 3.8 1.1 9.4 1.3 3.5 2.4 7 2.4 7.6 0 1.5-4.4 6.2-9.8 10.5-9.8 7.9-11.8 16.7-6.3 28.3 3.8 7.9 5.5 10.5 11.4 16.7 4.6 4.9 4.8 4.9 12.4 5.7 14.8 1.3 29.2-4.5 34.3-13.9 2.3-4.4 2.4-4.9 1.1-10.8-1.5-7.4-5.9-14.7-13-21.4-3.8-3.6-5.1-5.5-5.1-7.7 0-2.4.5-3 2.9-3.4 1.6-.4 4-1.7 5.3-3.1 1.9-2 2.3-3.6 2.4-9.6 0-4 .4-8.2.8-9.4 1.1-3.5-1.9-8.3-5.2-8.3-1.6 0-3.3-.5-4-1.2s-1.2-1-1.2-.7-1.8-1.1-3.9-3.1c-4.6-4.4-7.7-5.2-12.2-3.3"/></svg>