<svg xmlns="http://www.w3.org/2000/svg" width="682.667" height="512" version="1.0" viewBox="0 0 512 384"><path d="M0 192v192h153.5c84.4 0 153.5-.3 153.5-.8-.2-10-4.6-62.1-6-71.2-2.2-13.3-3.1-15.5-8.3-19.4-4.7-3.6-9.2-5.3-23.1-8.6-6.7-1.6-13.9-3.6-15.9-4.5-6-2.5-22.8-21.3-26.8-30-2.4-5.1-2.7-22.1-.5-26.3 1.8-3.3 9.2-10.5 12.7-12.3 1.5-.8 4.5-3.1 6.8-5.2l4.1-3.7-2-4.2c-2.4-5-2.5-5.8-.5-5.8.9 0 2.3 1.6 3.2 3.5s2.1 3.5 2.6 3.5c.4 0 2.9-1.7 5.5-3.9 6.4-5.3 10.7-7.3 16.1-7.5 9.6-.4 10.3-.6 9.9-2-.2-.7-2.3-2.9-4.7-4.7-6.9-5.3-7.2-6.5-3.1-10 1.9-1.6 3.9-2.9 4.5-2.9s2.4-1.3 3.9-2.9l2.8-2.9-3.2-4.3c-1.7-2.4-3.9-4.8-4.7-5.3-1.4-.7-1.5-.3-1.1 3.1.5 3.2.3 3.9-1.2 4-1 .1-2-.7-2.3-1.8-.3-1-1.3-1.9-2.2-1.9s-1.3.4-1 1c1.3 2-.7.9-3-1.8l-2.4-2.7-.1 2.5c-.1 2.5-.1 2.5-1.7.5-2.3-3-8-15.5-8.8-19.5-.3-1.9-.9-4.3-1.1-5.2-.5-1.8-9-8.3-12.7-9.8-3.8-1.4-17.7-14-17.7-16 0-2.1-17.6-18-20-18-.8 0-3.1-1.5-5-3.4-1.9-1.8-7.6-7.2-12.6-12s-9.7-9.9-10.5-11.4-2.7-4.5-4.2-6.7c-1.6-2.2-2.3-4.1-1.8-4.3 3.8-1.3-2.1-7.7-7.8-8.7-3.4-.6-4.9-1.6-8.6-6.2-2.5-3-4.2-5.9-3.9-6.5.3-.5-.4-2.2-1.7-3.6-3.2-3.6-5.1-7.1-4.4-8.2.5-.9-3.6-4.1-7-5.4-2-.8-2-.8 0-1.6 1.9-.7 1.9-.7 0-1.7-1.1-.6-3.2-1.3-4.7-1.7-3.7-.9-3.6-2.6.2-2.6 1.7 0 3-.4 3-.8 0-.5 1.6-.7 3.5-.6 1.9.2 3.5-.1 3.5-.6 0-.6-26.6-1-71.5-1H0zM256.5 4.9c.4 2.7 1.5 7.6 2.5 10.8l1.8 5.8 12.8.3c11 .2 14.4-.1 22.9-2.3 5.5-1.3 14.5-3.2 19.9-4 5.5-.9 10.5-1.9 11-2.3C329.2 12.2 343 .7 343 .4c0-.2-19.6-.4-43.6-.4h-43.6zm244.2 64.6c-.8.7-1.8 3.6-2.2 6.2S497 84 496 88.3c-1.6 7.3-1.7 7.8-.1 8.7 1.4.7 14.2 4 15.7 4 .2 0 .4-7.4.4-16.5V68h-4.9c-3 0-5.5.6-6.4 1.5M334.3 225.8l-3.2 3.7.9-3.3c.5-1.7.6-3.2.4-3.2-.3 0-3.1 1.4-6.3 3.2l-5.8 3.2.5 6.6c.5 7.7-1.7 13.4-6.8 17l-3.1 2.2 4.6 4c5.6 4.9 9 11.5 14.1 27 2.1 6.5 4.1 11.8 4.5 11.8s1.5-2 2.5-4.5c1.3-3.5 1.5-5.8.9-10.3-1.6-11.5-1.3-12.6 3.8-18.1 7-7.4 7.4-8.8 4.4-14.7-1.4-2.7-3.9-6.6-5.6-8.8-1.7-2.1-3.1-4.2-3.1-4.7 0-.4 1.1-2.1 2.5-3.7 2.4-2.9 2.4-3 .8-7.1-.9-2.2-1.9-4.1-2.2-4.1s-2 1.7-3.8 3.8"/></svg>