<svg xmlns="http://www.w3.org/2000/svg" width="682.667" height="512" version="1.0" viewBox="0 0 512 384"><path d="M248.5 216.8c-5.3 2.9-8.4 7.4-8.5 12.4 0 1.5-.4 3-1 3.3-1.6 1-1.1 4.5 1.5 12l2.5 7-8.5 8.3c-9.4 9-11.5 12.6-11.5 20 0 6.1 6.9 20.5 13.2 27.4 4.2 4.6 4.4 4.7 12.3 5.5 4.5.5 9.6.5 11.5.1s5.2-.9 7.2-1.2c2.1-.2 4.5-1.1 5.4-2 .8-.9 1.9-1.4 2.4-1.1.4.2 2.3-1.1 4.1-2.9 1.8-1.9 3.6-3.3 4-3 .4.2.5-.6.1-1.8-.4-1.7-.2-2 1.2-1.5 1.1.5 1.5.3 1-.5-.4-.6-.8-3.6-.9-6.8-.1-3.1-1.2-7.7-2.3-10.3-1.2-2.6-2.1-5-2.1-5.3s-2.8-3.4-6.3-7c-7.4-7.7-8.1-8.8-7.3-11.4.4-1.4 1.5-2 3.6-2 2 0 3.9-.9 5.4-2.6 2.2-2.4 2.5-3.6 2.5-10.1 0-4.1.5-8.3 1-9.3.8-1.4.6-2.9-.4-5.5-1.3-2.9-2-3.5-4.5-3.5-1.7 0-3.1-.5-3.1-1 0-.6-.5-1-1-1-.6 0-3-2-5.3-4.5-5.3-5.5-8.7-5.8-16.2-1.7"/></svg>