<svg xmlns="http://www.w3.org/2000/svg" width="682.667" height="512" version="1.0" viewBox="0 0 512 384"><path d="M248.4 211.9c-5.9 2.7-8.9 9.1-8.8 18.6.1 3.8.6 8.8 1.2 11 2.6 9.3 2.9 8.3-5.7 17.7-4.4 4.8-8.8 10.2-9.8 12-3.9 7.5-.9 23.7 6.6 34.5 3.2 4.6 4.6 5.8 9.2 7.4 5 1.8 20.3 2.8 21.6 1.5.3-.3 1.4-.1 2.3.4 1.3.7 1.9.6 2.3-.3.2-.7 2.8-2 5.6-3.1 2.8-1 5.1-2.1 5.1-2.6 0-.4 1.1-2.3 2.4-4.2 2.2-3.3 4.1-10.2 2.5-9.2-.4.2-.7-.4-.7-1.3.1-1-.6-4.3-1.5-7.3-1.5-5-3.4-8.4-12.5-21.8-2.8-4-3.5-8.9-1.2-8.3 5.1 1.4 7.7 1.1 10.4-1 2.6-2 2.8-2.6 2.2-6.9-.4-3-.1-7 1-10.9 1.5-5.9 1.4-6.4-.3-9.4-1.1-1.8-2.7-3.2-3.8-3.2-1 0-2-.6-2.3-1.3-.8-2.4-2.2-1.1-2.8 2.8-.4 2.1-1.5 4.7-2.5 5.6-2.8 2.5-3.4 1-1-2.4 2.5-3.6 2.6-5.7.5-10.8-2.7-6.6-6.1-9.4-11.3-9.4-2.5 0-6.4.9-8.7 1.9"/></svg>