<svg xmlns="http://www.w3.org/2000/svg" width="682.667" height="512" version="1.0" viewBox="0 0 512 384"><path d="M250.6 204.8c-6.3 2.2-8.4 5-10.7 14.8-2.2 9.3-2.3 9.7-.7 8.8.8-.5.9.2.5 2.4-.4 1.9-.2 3.2.3 3.2.6 0 1 1.5 1 3.3s.8 4.9 1.8 6.8l1.8 3.6-2.5 3c-7.4 8.5-15.8 21.5-17.2 26.7-1.5 5.5-.3 18.3 2.2 25 2 5 2.8 6 7 8.1 2.6 1.4 5 2.9 5.4 3.5s1 .8 1.5.5c1.1-.7 6.1 1.5 8.3 3.7 1.7 1.7 6.6 2 10.7.5.8-.3 3.5-1.2 6-2s6.4-3.2 8.8-5.4l4.2-3.9.1-9c0-10.3-1.3-14.7-8.7-27.3-2.8-4.9-4.7-9.6-5-12.3-.4-3.4-.3-3.9.6-2.5.6.9 2.4 2.4 3.9 3.2 3.5 1.7 9.5.4 11.1-2.5 1.3-2.4 1.3-7.6 0-10-.7-1.3-.5-2.6.5-4.7 2.8-5.4 1.4-14.5-2.4-15.8-1.1-.3-2.1-1.4-2.3-2.3-.5-2.2-3.8 3.7-3.8 6.7 0 1.4-1.1 2.5-3.6 3.6-4.7 1.9-4.7 1.9-6.1-1.2-1.1-2.2-1-3.1.2-5 .9-1.3 1.9-2.3 2.4-2.3 1.4 0 3.1-5 3.1-9.2 0-5.2-4.1-11.6-7.9-12.4-1.4-.3-3.3-.7-4.1-.9s-3.7.4-6.4 1.3"/></svg>