<svg xmlns="http://www.w3.org/2000/svg" width="682.667" height="512" version="1.0" viewBox="0 0 512 384"><path d="M248.3 202.5c-3.9 1.6-6 4.7-8 11.7-2 6.9-2.3 13.8-.6 16.3.7 1.1 1.3 3.5 1.3 5.5 0 1.9.8 5.1 1.9 7l1.9 3.5-2.8 3.5c-1.5 1.9-3.7 5.3-4.9 7.5s-3.7 6.1-5.6 8.7c-9.6 13.6-10.1 37.7-.9 42.4 1.6.9 5.2 2.9 8 4.5s6.1 2.9 7.3 2.9c1.4 0 2.1.6 2.1 1.9 0 3.5 2.5 4.4 10.5 3.8 9-.7 12.9-2.3 13.3-5.7.2-1.4 1.3-3.2 2.5-4.1 1.1-.9 2.2-3 2.3-4.5.1-1.6.6-6.6 1-11l.7-8.1-6.8-14.2c-4.1-8.5-6.5-14.8-6.1-15.8.6-1.4.9-1.3 3 .6 3.2 3.1 7 3.3 10.9.7 2.9-2 3.2-2.6 3-7.1-.3-6.9-.3-7.1.3-14.7.6-7-.5-10.8-3.1-10.8-.8 0-1.5-.7-1.5-1.5s-.4-1.5-.9-1.5c-1.2 0-3.6 6.1-3.3 8.1.3 1.7-2.4 2.9-6.4 2.9-4.3 0-5.8-8.2-2.1-11.7 1.3-1.2 2.9-4 3.6-6.4 1.1-3.8 1-4.5-1.1-8.8-1.3-2.5-3.5-5.2-4.9-5.8-3.2-1.7-10.6-1.6-14.6.2m20.7 38.9c0 .2-.7.6-1.5 1-.8.3-1.5.1-1.5-.4 0-.6.7-1 1.5-1s1.5.2 1.5.4"/></svg>