<svg xmlns="http://www.w3.org/2000/svg" width="682.667" height="512" version="1.0" viewBox="0 0 512 384"><path d="M248.3 199.5c-3.4 1.4-4.5 3-7.9 11.4-2.6 6.1-3.1 11.5-1.6 15.1.6 1.4 1.1 1.9 1.1 1.2.1-.6.5-1.2 1.1-1.2s.7 2.3.4 5.8c-.5 4.7-.2 6.8 1.5 10.7l2.1 4.8-2.4 2.6c-1.3 1.4-3.4 4.6-4.6 7.1-1.3 2.5-4.3 7.6-6.8 11.3-5.2 8-9.1 17-9.2 21.1 0 1.7.5 5.6 1.2 8.9 1 4.9 1.9 6.4 4.9 8.8 2 1.6 4 2.9 4.3 2.9.4 0 2.1 1.3 3.9 3 1.8 1.6 4 3 5 3s2 .6 2.3 1.4 1.2 1.2 2.1.9c1.1-.4 1.4 0 1.1 1.8-.6 4.3 2 5.8 11.5 6.5 10.6.8 13.7-.5 13.7-6.1 0-1.8-.4-3.7-1-4-.5-.3-.1-2.2 1.1-4.5 2-3.8 4.6-11.7 5.6-17.1.3-1.9-1.6-8-6.2-19.4-7.5-18.9-8.3-22.1-6.1-25 1.5-2 1.5-2 1.6.3 0 1.5-.4 2.1-1.1 1.6-.9-.5-1 .4-.4 3.2.4 2.1.8 3.9.8 4 .1 0 1.5 1 3.1 2.2 8.1 6.2 17.8-2.7 13.4-12.3-.9-1.9-.8-3.1.1-4.9.9-1.7 1.1-4.2.6-8.6-.6-5.2-1.1-6.3-3.1-7.2-1.6-.8-2.3-1.7-1.9-2.7.3-.9-.9-.1-2.6 1.8-2.3 2.5-2.9 3.9-2.5 5.7.6 2.2.3 2.4-3.2 2.4-3.4 0-3.9-.3-5.1-3.5-.7-1.9-1-3.9-.7-4.3.3-.5-.1-2-.8-3.4-1.3-2.4-1.2-2.8 2-5.9 1.8-1.7 3.6-4.4 3.9-6 .8-3.7-3.4-12.1-7-13.7-3.4-1.6-10.2-1.5-14.2.3m17.7 43c-.7.9-1.5 1.3-1.7 1.1-.7-.7.7-2.6 1.9-2.6.6 0 .6.6-.2 1.5"/></svg>