<svg xmlns="http://www.w3.org/2000/svg" width="682.667" height="512" version="1.0" viewBox="0 0 512 384"><path d="M246.5 199.2c-5.5 4.3-10.8 20.7-7.9 24.5 1.1 1.4 1.3 1.5 1.4.3 0-1.3.1-1.3 1 0 .5.8.6 4.1.3 7.2-.5 4.6-.1 6.7 1.6 10.8l2.2 5.1-3 3.5c-1.7 1.9-4.2 5.7-5.6 8.4s-4.7 8.4-7.5 12.6c-7 10.7-8.6 18.2-5.9 27.8.9 3.3 5.1 8.5 7 8.6.4 0 2.6 1.8 5 4s4.9 4 5.5 4c.5 0 2.2.6 3.6 1.2 2.1 1 2.5 1.8 2.1 3.8-.8 4.3 2.1 5.8 12.5 6.6 8.1.6 9.5.5 11.2-1.1 3.4-3 1.8-10.7-2-9.8-.8.2-.5-.4.8-1.3 1.2-.9 2.2-2.2 2.2-2.9s1-2.5 2.2-4 2.3-4.1 2.5-5.7.7-3.8 1.3-4.8c1.6-3 1.2-5.1-2.6-15.1-8.3-21.9-10.3-27.8-9.4-28.4.6-.3 1 .5 1 1.9 0 2.7 3.1 6.3 6.8 7.7 2.9 1.1 8.6-1.5 10.1-4.8 1.4-3.1 1.4-6.9 0-9.5-.8-1.6-.8-3 .1-5.8 1.7-5-.2-14.6-3.1-15.5-1-.4-1.9-1.1-1.9-1.7 0-.7-1.2-.1-2.6 1.3-1.9 1.8-2.4 3-2 5.1.5 2.7.4 2.8-3.2 2.8-3.5 0-3.8-.3-5-4.1-.7-2.2-1-4.5-.6-5 .3-.5-.2-2.1-1.1-3.5-1.6-2.5-1.6-2.6 1.2-5 1.5-1.3 3.1-2.4 3.5-2.4s1-1.6 1.4-3.5c.8-4.5-2.7-12-6.7-14-4.4-2.3-13.1-1.9-16.4.7m20.5 42.2c0 .2-.7.6-1.5 1-.8.3-1.5.1-1.5-.4 0-.6.7-1 1.5-1s1.5.2 1.5.4m1 7.8c0 .7-.4 1.9-.9 2.7-1.1 1.7-2.5-.3-1.7-2.4.7-1.8 2.6-2 2.6-.3"/></svg>