<svg xmlns="http://www.w3.org/2000/svg" width="682.667" height="512" version="1.0" viewBox="0 0 512 384"><path d="M249.4 194.4c-6.4 2.9-13.5 17.8-11.7 24.7.5 1.8.6 1.8 1.8.2 2.2-3 3 4.4 1.1 10.7-1.7 5.7-2 7.7-.9 6.7.8-.9 2.8 3 3.6 7 .7 3.3.7 3.2-13.7 25.4-6.7 10.3-7.6 12.9-7.6 23.2v7.7l7.2 7.2c4.6 4.5 9.2 8 12.5 9.4 5.1 2.3 5.2 2.5 4.1 4.9-1.6 3.6.8 5.8 8.5 8 8.7 2.4 13.7 2.5 15.9.3 2.1-2.1 2.4-7.4.4-8.1-.7-.3-1.8-1.9-2.4-3.7-1-2.8-.8-3.4 2.4-6.8 5.1-5.4 7.7-11.7 7-17-.3-2.4-2.8-10.9-5.6-19-2.7-8-4.8-14.8-4.6-15s.7.6 1.1 1.7c.3 1.2 1.4 2.1 2.4 2.1.9 0 2.2.5 2.8 1.1 1.4 1.4 6.4-1.1 9.2-4.7 2.5-3.2 2.7-6.4.6-10.5-1.2-2.2-1.3-3.4-.5-5 1.9-3.5.2-12.7-3-16.1l-2.7-2.8-2.7 2.1c-2.1 1.7-2.6 2.7-2.2 4.5.6 2.2.3 2.4-2.9 2.4-3.1 0-3.5-.3-3.5-2.6 0-1.4-.5-3.4-1-4.4-.7-1.3-.7-2.1 0-2.5.6-.4.4-1.7-.5-3.5-2.1-4.1-1.9-5.1 2-8.5 2-1.7 3.5-3.9 3.5-5.2 0-3.6-3.7-11.1-6.5-12.9-3.4-2.2-10.3-2.8-14.1-1m18.4 56.2c.4 3.3-1.1 2.4-2.3-1.5-.5-1.7-.4-2.2.6-1.9.8.3 1.5 1.8 1.7 3.4m-1.1 7.6c-.3.8-.6.5-.6-.6-.1-1.1.2-1.7.5-1.3.3.3.4 1.2.1 1.9"/></svg>