<svg xmlns="http://www.w3.org/2000/svg" width="682.667" height="512" version="1.0" viewBox="0 0 512 384"><path d="M247.9 188.9c-5.2 3.2-8.3 9.2-9.5 17.9-.6 4.4-.4 5.2 1 5.2 3.1 0 3 4.7-.3 9.7-3.8 5.6-3.8 6.3-.5 10.2 1.7 2 2.3 3.7 1.9 5-.3 1.1-.1 2.2.5 2.6s1.5 1.8 2.1 3.2c.7 1.9.4 3.1-1.5 5.6-1.3 1.8-4 6.3-6 10.1s-5 8.6-6.6 10.6c-9.4 11.8-10.4 28.5-2.3 37.9 4.1 4.8 14.8 13.3 15.6 12.4 1.6-1.5 3.6 2 3.1 5.3-.8 4.9.8 6.9 8.7 10.8 8.2 4.1 12.6 4.6 15.2 1.6 1.7-2 2-7.7.5-8.6-.5-.3-.6-1-.3-1.5.7-1.1-2.4-7.9-3.6-7.9-.5 0-.9-.6-.9-1.4 0-1.7 2.7-2.9 4.3-1.9.7.3.9.3.6-.1-.4-.4 1.4-2.6 3.9-5l4.5-4.3-.2-7.9c-.2-6.8-3.4-23.6-5.7-29.9-.4-1.1-.3-1.7.1-1.3.8.8 8.4-3.1 11.8-6 2.1-1.9 2.2-6.3.1-10.4-1-1.9-1.7-6.1-1.8-10.8-.2-5.5-.7-8.6-2-10.5-1-1.4-1.5-3.3-1.2-4.2.5-1.2 0-1.3-2.7-.8-3.9.8-5.7 2.9-5.7 6.7 0 2.8-.7 3.4-2.5 2-1.1-.7-1.4-3-1.5-10.6-.1-2.1-.7-5.5-1.5-7.4-1.9-4.3-1.9-6.2-.2-6.2 3.2 0 5-3.7 4.5-9.5-.5-6.2-3-9.8-8.5-12.1-4.9-2.1-8.4-1.7-13.4 1.5"/></svg>