<svg xmlns="http://www.w3.org/2000/svg" width="682.667" height="512" version="1.0" viewBox="0 0 512 384"><path d="M0 192v192h448.9l-.9-3.1c-.5-1.7-1.6-4.2-2.5-5.5-.8-1.3-1.5-3.2-1.5-4.3s-1.3-4.4-2.9-7.3c-2.1-3.9-3.8-5.5-5.9-6.2-3.8-1.1-4.9-5-1.9-7.1 2-1.4 2-1.4-.8-8.2-1.6-3.7-5.7-12.2-9-18.8-3.4-6.6-6-12.5-5.8-13.1.2-.7-1-3.9-2.7-7.3-1.7-3.3-3.2-7-3.3-8.1s-.8-2-1.7-2c-1.4 0-1.5-.9-.9-5.7.4-3.2.8-8.7 1-12.3l.2-6.5.6 6c.4 3.3.6-13.7.6-37.7s-.3-42.9-.7-42-.4-.3-.1-2.8c.4-3.5.1-4.9-1.1-5.9-.9-.8-1.5-2.7-1.5-4.5l.1-3.1.9 3c.7 2.6.8 2.3.6-1.7-.2-4.7-.1-4.8 3.6-6.3 2-.8 4.4-1.5 5.1-1.5s2-.9 2.8-2.1c1-1.5 2.4-2.1 5.3-2.1 2.4 0 4.9-.8 6.4-1.9 1.3-1 2.8-1.9 3.3-1.9s1.7-.8 2.6-1.7c1.3-1.2 1.4-1.7.4-2.1-1-.3-1-.7-.1-1.9 2.4-2.8 1.9-6.1-1.6-9.9-1.9-2-3.2-4.1-2.9-4.5.2-.4-.5-1.1-1.7-1.4-1.2-.4-1.8-1.2-1.5-2.1s-.1-1.4-1.4-1.4c-1.8 0-2-.6-1.8-7.3.1-3.9-.5-11.9-1.4-17.7s-1.9-12.3-2.2-14.5c-.5-3.9-2.9-20.4-4-27.5-.7-4.6-2.5-19.8-3.2-26.7-.3-3-.9-6.6-1.5-7.9-.5-1.4-.9-5.2-.9-8.5 0-3.6-.4-5.9-1.1-5.9-.6 0-.9-.6-.6-1.3.2-.7-.2-4.1-.9-7.7S411 5.8 411 3.7V0H0z"/><path d="M411.2 286.5c0 1.6.2 2.2.5 1.2.2-.9.2-2.3 0-3-.3-.6-.5.1-.5 1.8"/></svg>