<svg xmlns="http://www.w3.org/2000/svg" width="682.667" height="512" version="1.0" viewBox="0 0 512 384"><path d="M0 192v192h312v-2.8c0-2.6-.6-9.5-3-39.7-1.2-15.4-4.3-34.8-6-38.7-1.3-2.8-9.3-7.9-15.8-10.3-2.4-.8-9.2-2.6-15.1-3.9-16.3-3.7-18.8-5.1-29.7-18-5.2-6.1-10.1-12.5-10.9-14.3-1.1-2.2-1.5-6.5-1.5-15.3v-12.1l5.9-6c3.2-3.2 6.5-5.9 7.3-5.9.7 0 3.5-1.9 6.1-4.3l4.9-4.3-2.3-4.7c-1.6-3.3-2-5-1.2-5.8.7-.7 1.8.3 3.7 3.6l2.7 4.6 5.2-4.4c6.2-5.3 10.6-7.7 14.4-7.8h2.8l-2.5-1.7c-5.9-4.1-7.3-5.8-6.5-8.1.4-1.2 2.9-3.6 5.6-5.3 7.6-4.6 7.9-5.9 2.3-12.3-5-5.9-5.7-6.5-4.7-3.8.4 1.1.3 1.4-.6.9-1.3-.9-1.2 2.9.3 5.2 1.3 2.1-2.6 1-4.6-1.3-1.5-1.7-1.9-1.8-2.7-.5-.8 1.2-1.4.9-3.2-1.4-2.1-2.6-2.3-2.7-3.5-1.1-1.1 1.5-1.5 1.3-3.7-2.2-3.7-5.8-6.4-11.5-7.1-14.9-.9-4-12.1-14.4-15.5-14.4-2.3 0-18-12.3-18.5-14.6-.7-2.6-18-16.4-20.7-16.4-.9 0-3.1-1.3-4.7-2.8-1.7-1.6-4.3-3.7-5.9-4.7-4.2-2.7-19.3-16.8-19.3-18-.1-.5-1.4-2.6-3-4.5-3.3-3.8-3.8-5.2-1.5-4.4 2.7 1.1 1.6-1.3-2-4.5-2.6-2.3-4.6-3.1-7.2-3.1-3.1 0-4.4-.8-8.4-5.1-3-3.3-4.5-5.7-4.2-6.8.3-1.3-.2-2-1.7-2.4-1.2-.3-2.4-1.5-2.7-2.6s-2.1-3-3.9-4.2c-1.9-1.1-3.2-2.5-2.8-3 .3-.5-1-1.6-2.8-2.4l-3.3-1.4 3.5-.1c4.8-.1 1.8-2-3.1-2-2 0-4.2-.7-4.9-1.5-1.1-1.3-.5-1.5 4.2-1.5 3.1 0 6.2-.6 7.3-1.4 1.9-1.4 1.9-1.5.2-3.3-.9-1.1-1.7-2.9-1.7-4.1 0-1.5-1-2.6-3.4-3.6-1.9-.8-4-2.5-4.7-3.8-1.1-2-1.1-2.2.3-1 .9.7 1.9.9 2.2.4s2.7-.7 5.3-.5c4.5.5 4.7.4 2.8-1.1-2.4-1.8-2.1-1.9 2.3-.7l3.2 1-3.2-4.5-3.1-4.4H0zM142.2.5c1.1 1.1 21.1 10.6 21.8 10.3.4-.2-.8-2.7-2.7-5.6L157.9 0h-8.1c-4.5 0-7.9.2-7.6.5m97.4 1.1c-1.8 4.7 1 20.5 5 28.6l2.4 4.7 13.3-.6c9.7-.4 16.1-1.3 24.2-3.4 6.1-1.5 13.9-3.3 17.5-3.9 6.4-1.1 6.7-1.3 18.5-12.3 6.6-6.2 13.1-12 14.5-12.9 2.4-1.6-.1-1.7-46.1-1.7-43.5-.1-48.8.1-49.3 1.5m265.4.5c1.9 1.2 4.3 2.8 5.3 3.7 1.6 1.4 1.7 1.3 1.7-2.1V0h-10.5zm-18.2 69.3c-1 1-1.9 4.2-2.3 8.3-.7 7.3-2.2 18.2-3.1 22.5-.5 2.3-.1 2.7 2.8 3.3 3.7.8 24.4 6.4 26.5 7.2 1.1.4 1.3-3.1 1.3-18.9V74.4l-6.3-1.7c-10.4-2.7-17.1-3.2-18.9-1.3m-160 159.4c-3.4 2.5-3.7 3-3 6.2 1.7 8.8-.3 15.7-5.9 20.4-1.7 1.5-3 2.8-2.8 2.9 7.6 5 11.4 10.8 17 25.5l2.9 7.7-.6-8.8-.6-8.8 4.6-4.9c6.5-7 7.2-8.9 5-13.6-1-2.2-3.5-6.5-5.7-9.7l-4-5.8 2.6-2.7c3.2-3.3 3.1-3.2 1.2-7.9l-1.6-3.7-2.5 3.7c-1.3 2-2.7 3.7-3 3.7s-.2-1.6.2-3.5c.3-1.9.5-3.5.3-3.4-.2 0-2.1 1.3-4.1 2.7"/></svg>