<svg xmlns="http://www.w3.org/2000/svg" width="682.667" height="512" version="1.0" viewBox="0 0 512 384"><path d="M252.5 169c-7.7 3.8-10.8 10-10.7 21.3 0 4.6.5 6.3 2.1 8.1l2.2 2.3-4.5 1.7c-6.9 2.6-7.2 3.5-4.6 11.7 1.2 3.8 1.9 7.7 1.6 8.5s0 2.5.8 3.7 1.7 4.7 2.1 7.7 1.1 6.3 1.7 7.3c.6 1.2.4 2.2-.7 3.4-.9.9-4.5 7.5-8 14.7-3.4 7.2-7.8 15.7-9.8 19-7.9 12.9-9 22.7-3.7 34.3 3 6.6 3.6 7.3 8.2 9.3 2.7 1.2 5.6 1.9 6.4 1.6s1.4-.1 1.4.3c0 .5 1.8 1.2 4 1.6s4.2 1.1 4.5 1.5c.3.5 1 5.4 1.5 10.9 1.6 16.4 6.6 24.6 14.8 23.9 2.8-.2 4-.9 4.9-2.9.7-1.5 2.5-3 3.9-3.3 2.6-.7 2.7-.8 2.1-7.4-.2-3.7-1.1-8.6-2-11-1.8-5.2-1.2-8 1.8-8.8 1.3-.3 4.5-3.1 7.2-6.2 5.4-6.4 10.9-20.2 10-25-2.3-11.5-3.9-17.6-6.1-22.9-3-7.1-3.2-9.1-1.2-9.9.8-.3 1.9-2 2.5-3.7 1-2.8.8-3.7-2.3-8.7-2.5-4.1-3.6-7.2-4.1-12-.4-3.6-1.3-9-2-11.9-1.1-4.2-1.1-5.8-.3-6.9.9-1 .9-1.8 0-3.3-.7-1-1.3-5.1-1.4-9.1-.2-6.7-.4-7.3-3-8.7-1.5-.9-2.8-1.9-2.8-2.2 0-1.3 4.2-5.9 5-5.4.4.3 1-1.9 1.2-4.8.6-8-3-14.9-9.6-18.2-6-3-7.8-3-13.1-.5"/></svg>