<svg xmlns="http://www.w3.org/2000/svg" width="682.667" height="512" version="1.0" viewBox="0 0 512 384"><path d="M256.2 159.9c-9.4 3.2-11.5 6.6-12.7 19.9-.5 6.4-.4 7.5 1.4 9.8 3 3.8 2.6 4.9-1.8 6.2-5.2 1.6-6.8 3.6-5.3 6.5.7 1.2 1.3 5.6 1.5 9.7.2 4.2.9 8.4 1.4 9.5.6 1.1 1.4 4.9 1.8 8.5s1.3 7.5 2.1 8.7 1 2.4.5 2.7-3.9 6.8-7.6 14.3c-3.7 7.6-8.9 17.4-11.6 21.8s-5.8 10.6-6.9 13.7c-2.1 6.2-2.6 15.2-1 20.2.5 1.7 1.2 4.2 1.5 5.6.7 3.2 7.2 8.2 9.7 7.4 1.2-.3 1.7-.1 1.6.6-.2.7 2.9 2.4 7.4 3.9 4.2 1.4 8 2.9 8.4 3.4.8.8.8.4 2.4 18.2 1.2 14.4 3 19.5 7.1 20.9 3.5 1.2 8 0 8.6-2.4.4-1.5 1.1-1.8 3.3-1.3 2.2.4 3.5-.1 5.6-2.2 2.6-2.6 2.6-2.9 1.9-9.8-.9-8.5-1-17.7-.1-21.1.4-1.6 2.4-3.5 5.6-5.3 3.1-1.7 5-3.5 5-4.6 0-1 .4-1.6.9-1.3 1.1.7 8.1-8.8 8.1-11 0-.8.6-2.7 1.4-4.2 1.2-2.4 1.1-3.8-.6-11.2-1.1-4.7-4.3-14.7-7.3-22.2-3.2-8.1-5.1-14.5-4.8-15.7s-.3-3.3-1.3-4.8c-1.1-1.6-2.9-5.3-4.2-8.3l-2.3-5.5 3.1-2.5c3.4-2.8 3.7-4.8 1.9-13-.8-3.9-.8-5.4.1-6.5 1-1.2 1-1.8-.1-3.1-.7-.9-1.2-3.3-1.1-5.3.2-2.1-.2-5-.7-6.4-.7-1.7-.7-2.8-.1-3.2 2.1-1.3.9-3.7-2.5-5.1-3.5-1.4-4.4-2.8-2.5-3.9.6-.3 1-1.5 1-2.7 0-1.4.5-1.8 1.5-1.4 1.3.4 1.5-.7 1.5-7.3 0-10.3-1.2-13.3-6.9-17.5-6.1-4.5-8.5-5-14.9-2.7m5.8 183.6c-.4 4.4-.8 7.1-.9 6-.2-1.1-.6-4.6-1-7.7-.4-3.6-.3-6.2.3-6.8 1.8-1.8 2.2.4 1.6 8.5"/></svg>