<svg xmlns="http://www.w3.org/2000/svg" width="682.667" height="512" version="1.0" viewBox="0 0 512 384"><path d="M260.5 147.2c-7.7 2.7-13.8 10.4-14.9 19-.5 4-.3 4.8 1 4.8 1.2 0 1.5.7 1.2 2.9-.2 1.7-.1 2.8.4 2.5.4-.3.8 1 .8 2.9 0 3.6 2.6 5.9 4 3.7.5-.8.9-.6 1.4.5 1 2.8.7 3.3-3.1 4-2.1.4-5 1.3-6.6 2.2-2.3 1.2-2.8 1.9-2.2 3.6.4 1.2.8 6.5.9 11.7s.7 10.5 1.4 11.7 1.2 6.1 1.2 11.3c0 7.1.3 9.2 1.5 9.6.8.4 1.5 1.4 1.5 2.3 0 3.7-12.4 30-22.9 48.6-6.6 11.6-10.8 24.6-9.2 28.1.6 1.4 1.1 3.8 1.1 5.5 0 1.6.7 4.4 1.6 6 1.2 2.5 1.8 2.8 3 1.8s1.3-.9.9.3c-.5 1.1 2 3.2 8.6 7.4 5.1 3.2 10.1 5.7 11.1 5.7 1-.1 1.8.2 1.8.6 0 .5 1.3 1.4 3 2.1 1.6.7 2.7 1.6 2.4 2.1s.3 4.5 1.2 8.9c1.6 7.5 1.6 8.2 0 13.2-.9 2.9-2 7.2-2.3 9.5l-.6 4.3H280l.5-2.8c.3-1.5 1.3-4.8 2.1-7.4 1.4-4.2 1.4-6.1.3-15.3-1.2-10.3-1.2-10.5.9-12.8 1.2-1.3 2.2-2.9 2.2-3.5 0-1.5 1.7-1.6 2.2-.1.2.7 3.7-.7 8.6-3.6 6.3-3.6 8.4-5.4 8.8-7.4.3-1.4 1.5-4.7 2.6-7.4 2-4.5 2.1-5.3.9-14-.9-7.3-2.3-11.6-6.6-21.3-2.9-6.7-7.2-17.5-9.5-24-2.3-6.6-5.5-14.5-7.1-17.7-2.1-4-2.5-5.7-1.6-5.7.7 0 2.4-1.1 3.6-2.4 2.2-2.4 2.3-2.6 1.1-11.6-.9-7.1-.9-9.4 0-10.5.9-1 .9-1.9.2-2.8-1.1-1.3-.9-14.2.3-17q1.5-3.45-6.3-6.9l-4.3-1.9 1.9-2.7c2-2.8 3.6-7.4 3.7-10.7.1-1.1.5-3.7.9-5.8 1.1-5-.8-11.8-4.3-15-7.7-7.2-13.3-9-20.6-6.5m9 205.8c.8 3.4.1 8-1.9 13.5l-1.4 4V367c0-1.9-.5-4.8-1.1-6.3-1.2-3.1-1.5-9-.4-10 1.7-1.7 4.2-.5 4.8 2.3"/></svg>