<svg xmlns="http://www.w3.org/2000/svg" width="682.667" height="512" version="1.0" viewBox="0 0 512 384"><path d="M261.6 136.5c-5.4 1.9-11.5 8.2-12.6 13.1-1.5 6.4-1.2 10.9 1 13.7 1.4 1.7 2.1 4.2 2.2 7.2 0 3.3.4 4.5 1.3 4.1.8-.3 1.6.3 2 1.2.4 1.1.8 1.3 1.3.5.9-1.4 2.9-.4 3.4 1.6.2.9-1.9 2.1-6.2 3.5l-6.5 2.1v5.8c0 5.6-.1 5.9-3.1 7.2-4.1 1.7-4.9 3.1-2.6 4.7 1.5 1.1 1.7 2.6 1.4 9.8-.1 4.7-.5 11.3-.8 14.7-.5 5.2-.3 6.4 1 6.9 2.2.8 2 3.2-1 16.5-1.9 8.6-2.3 11.9-1.5 13.6 1.2 2.7.6 4.3-10.8 27.7-11.6 23.8-13.2 27.5-12.5 30.2.3 1.3 1 2.4 1.4 2.4s.3 2.1-.2 4.6l-1 4.6 5.9 5.6c15.3 14.7 15.3 14.7 15.4 12.1l.1-2.4.7 2.4c.5 1.7 2.5 3.3 7.1 5.5 6.3 3 6.5 3.2 7.2 7.6 2 12.4 2.1 14.8.4 17.1-.9 1.3-1.6 2.7-1.6 3.1 0 .5 8.8.8 19.5.8 14.9 0 19.5-.3 19.5-1.3 0-.6-.7-4.1-1.6-7.7s-1.9-9-2.4-12c-.4-3-1.1-6.4-1.5-7.5-.7-1.7-.6-1.8.6-.8 1.3 1 3.2.6 10.4-2.2 4.9-1.9 9.4-3.5 10.1-3.5.6 0 2.9-2.1 5-4.6 5.3-6.3 8.8-17 7.8-23.9-1-7.6-4-16.5-9.4-27.8-2.6-5.6-6.9-16.3-9.5-23.7s-6.4-16.8-8.6-20.8l-3.9-7.4 2.5-2c2.4-1.9 2.5-2.3 2.5-13.8 0-8 .4-12 1.1-12.2.9-.3.9-1 0-2.7-1-1.8-1-3.8-.1-8.9.6-3.6 1.6-7.4 2.1-8.4 1.5-2.8-.9-5.9-6.9-8.7l-5-2.4 2.1-4.6c1.2-2.5 2.6-4.9 3.1-5.3.5-.3 1-4.8 1.2-10 .1-7-.3-10.3-1.6-13.3-1.8-4.3-8.6-11-12.6-12.5-3.6-1.4-11.2-1.1-15.8.5m12.1 228c1.8 6.9 1.6 10.8-.5 13.3l-1.9 2.2-1.1-3.9c-.7-2.1-1.2-6.9-1.2-10.5 0-5.8.2-6.7 1.7-6.4 1.1.2 2.1 2.1 3 5.3"/></svg>