<svg xmlns="http://www.w3.org/2000/svg" width="682.667" height="512" version="1.0" viewBox="0 0 512 384"><path d="M263 130.1c-2.5 1.1-6.2 3.6-8.2 5.6-6.5 6.3-7.7 18.7-2.4 24.2 1.8 1.9 2.6 3.8 2.6 6.4 0 2 .4 3.6.9 3.5.5-.2 1.7.6 2.5 1.7 1 1.3 1.5 1.5 1.6.6 0-1.1.3-1.1 1.5-.1 2.7 2.3 1.6 3.8-3.9 5.4-7.1 2.1-8.7 3.8-8.4 8.8.2 4.4-1.1 5.8-5.4 5.8-5.3 0-7.5 2.3-4.5 4.8 1 .9 1.2 4.8 1 16.6-.2 12.7 0 15.6 1.3 16.6 1.6 1.4 1.5 3.1-2.2 18.5-1.3 5.5-2.4 10.6-2.4 11.3 0 .8 1.3 2.6 3 4.2l2.9 2.7-1.9 5.1c-2.1 5.6-14.2 32-19 41.6-3.3 6.5-3.9 10.6-1.5 10.6 1.8 0 1.8.1 0 3.6-1.7 3.3-2 8.4-.5 8.4.6 0 1 .6 1 1.2.1 1.5 16 18.7 16 17.3 0-.5.6-.1 1.3.8.7 1 4.8 3.7 9.2 6.1l7.9 4.3 1.2 5.9c.7 3.2 1.3 7.4 1.3 9.1l.1 3.3h7.5c7.3 0 7.5-.1 7-2.3-.6-2.9-.9-8.2-.7-13.4.2-5.1 2.7-5.1 3.5 0 .3 1.8 1.1 6 1.8 9.4l1.4 6.3h7.7c4.3 0 7.8-.3 7.8-.6s-.9-5.1-2-10.6c-1.2-5.5-1.9-10.2-1.7-10.5.3-.2 5.3-1.9 11.2-3.7 8.7-2.6 11.6-4.1 15.7-7.6 3.7-3.1 4.8-4.8 4.5-6.2-.3-1.1-.3-1.7 0-1.4.4.3 1.5-2 2.6-5.2 3.6-10.6 1-23.7-8.8-43.2-2.3-4.7-6.4-14.6-9-22-5.7-16-8.3-22.1-11.9-27.8l-2.7-4.3 2.6-3.1c2.6-3 2.6-3.5 2.4-14.5-.2-8.8.1-11.7 1.1-12.3 1.1-.7 1.1-1.1.1-2.4-1.6-1.9-.9-7.5 1.6-14.6 2.4-6.7 1.4-9.2-5.2-12.6-3.8-2-5.4-3.4-5.1-4.4 1.7-5.5 3.5-9.3 4.6-10 .7-.4 1.2-2.1 1.1-3.6 0-1.6-.1-5.6-.1-8.8 0-11.2-3.2-17.2-12.6-23.7-5.3-3.6-12.5-3.9-19.4-.8"/></svg>