<svg xmlns="http://www.w3.org/2000/svg" width="682.667" height="512" version="1.0" viewBox="0 0 512 384"><path d="M268.5 121.9c-4.1 1-7.3 2.8-12 6.7-3.4 2.8-4.3 4.2-5.4 9.4-1.8 7.8-.9 12.5 2.9 16.5 2.4 2.5 3 4 3 7.4 0 3.7.2 4.2 1.5 3.1 1.2-1 1.6-.8 2.5 1.5.6 1.5 1.3 2.5 1.7 2.1.7-.7 3.3 1.2 3.3 2.4 0 .5-2.2 1.6-4.8 2.4-7.1 2.4-9.2 4.2-9.2 8 0 3.1-.1 3.2-6.2 4.5-9.5 2-9.8 2.1-9.8 4.2 0 1 .3 1.9.8 1.9.4 0 .8 7.5 1 16.7.1 9.2.7 17.2 1.2 17.7 1.7 1.7 1.1 7.5-2.2 19.7-3.5 13.4-3.2 16.2 2.1 18.2 6.1 2.3 5.5 7.1-3.1 25.7-2.2 4.7-5.3 11.7-6.8 15.6-1.6 3.8-4 9.1-5.4 11.7-1.8 3.1-2.6 6-2.5 8.9.1 2.4-.2 6.3-.6 8.8-.7 4.4-.6 4.6 6.5 13.8 5.3 6.8 7.5 9 8.1 8 .6-.9.9-.8.9.8 0 1.1 1 2.9 2.3 4 4.2 3.7 13.8 9.5 16.7 10.1 2.2.4 3 1.1 3 2.7 0 1.1.5 3.8 1.1 5.8l1 3.8H275v-6c0-7.1 1.5-7.9 2.5-1.4 1.1 7.6.8 7.4 10.2 7.4 7.5 0 8.4-.2 8-1.8-.3-.9-.8-3.5-1.2-5.7s-1.2-4.6-1.8-5.3c-1.5-1.9-.2-2.5 11.2-5.1 7.4-1.6 11.1-3.1 15.9-6.2 3.4-2.2 6.2-4.7 6.2-5.5 0-.9.4-1.3.9-1 1.1.7 2.1-1.7 2.1-5.2 0-1.5 1-5 2.2-7.9l2.1-5.2-2.6-10.2c-1.6-6-5.5-16-9.6-24.8-3.8-8-7.7-17.1-8.6-20.1-4.5-14.2-10.1-28-13.6-33.6-4.5-7-4.6-7.5-2-9.8 1.6-1.5 1.9-3.5 2.2-13.5.3-7.6.9-12.3 1.7-13.3 1-1.3 1-2.1 0-4.2-.9-2.1-.9-3.4 0-6 .7-1.8 1.2-4.2 1.2-5.4s.5-2.2 1.1-2.2.9-.7.6-1.5c-.4-.8-.2-1.7.3-2 .6-.4 1-1.7 1-2.9 0-2.6-6.3-8.9-9.9-10.1-1.2-.3-2.1-1.1-2.1-1.6 0-1.5 4.1-9.3 5.3-10.1.7-.4.8-4.8.4-12.7-.9-15.8-2.8-19.7-13.3-26.9-3.5-2.4-12.1-3.6-16.9-2.3m22.5 50.5c0 .3-.4.8-1 1.1-.5.3-1 .1-1-.4 0-.6.5-1.1 1-1.1.6 0 1 .2 1 .4"/></svg>