<svg xmlns="http://www.w3.org/2000/svg" width="682.667" height="512" version="1.0" viewBox="0 0 512 384"><path d="M0 192v192h157.5c147.3 0 157.5-.1 157.5-1.7 0-.9-.5-6.9-1.2-13.2-.9-9.3-1.6-12.3-3.5-15.1-2.7-4.1-3-10.3-.8-15.7 1.4-3.3 1.3-4.7-1-18.2-1.4-8-3.2-15.5-4-16.7-2.6-3.9-12-8.4-23.3-11.1-23.6-5.6-24-5.7-31.7-13.6-10.2-10.4-16.7-19.2-17.6-24.1-.5-2.2-.8-8-.9-12.7 0-7.9.2-8.9 2.9-12.5 3.5-4.8 7.5-8.5 10.5-9.9 1.3-.5 4.2-2.5 6.4-4.4l4.1-3.4-2.5-4.9c-2.3-4.6-2.5-6.8-.4-6.8.5 0 1.9 1.8 3 4s2.6 4 3.3 4 3-1.8 5.1-3.9c2.2-2.2 5.2-4.5 6.8-5.2l2.8-1.2-2.5-2.3c-3.7-3.5-3.2-5.7 2.8-10.4 2.8-2.3 5.6-4.8 6-5.7.8-1.3-1.7-4.6-10.6-13.8-.6-.6-.8-.2-.4 1.2.2 1.2 0 2.4-.6 2.6-.7.2-.5 1.4.5 3.5 1.5 3 1.5 3.1-.2 2.9-1.1-.2-2.8-1.1-3.8-2-2.2-2-4.7-2.3-3.6-.5.4.7-1-.3-3.1-2.2-3.3-3.1-3.7-3.2-3.2-1.3 1 4.3-.9 3.1-5.2-3.1-2.3-3.5-4.9-8.7-5.8-11.7-.8-3-2.2-6.2-3.1-7.1-1.8-2.2-9.6-6.8-12.1-7.3-3.5-.7-18.9-11.6-19.5-13.8-.3-1.2-2.7-3.5-5.3-5.2-2.6-1.6-6.8-4.5-9.1-6.3-2.4-1.8-5-3.1-5.8-2.8-.7.3-3.2-1-5.5-2.9-2.2-1.9-4.6-3.5-5.1-3.5-2 0-17.3-13.1-22.6-19.3-4.1-4.8-4.9-6.3-3.7-6.7 1.4-.5 1.3-1-.8-3.2-1.7-1.8-3.9-2.8-7.7-3.3-4.5-.6-6.1-1.5-10.2-5.3-3.1-2.9-4.5-4.8-3.7-5.2.7-.5-1-2.2-4.4-4.4-3-2-6.3-4.8-7.2-6.2s-2.6-2.9-3.8-3.4l-2.2-.9h2.2c1.2-.1 2.4-.5 2.7-1s-1.4-.6-3.7-.4c-3.1.4-4.6.1-5.6-1.1-1.2-1.4-1.1-1.6.7-1.6 3.1 0 12.2-2.3 12.2-3 0-.4-1.1-2-2.4-3.5-1.4-1.6-2.3-3.2-2-3.6.2-.4-1.1-1.5-3-2.4s-4.2-2.6-5.3-3.7l-1.8-2.1 6.9.6c5.8.4 7.2.2 8.9-1.3 1.9-1.9 1.9-1.9-3.4-7l-5.4-5.2L118 15c6.9 2.8 12.4 3.5 11.6 1.5-.6-1.6-1.6-1.9 14.9 4.9 6 2.5 11.3 4.6 11.7 4.6.3 0-1.7-3.8-4.6-8.3-2.8-4.6-6-10.5-7-13L142.8 0H0zM229.1 5c-2.6 12-.6 25.4 5.3 35.4 2.5 4.3 2.7 4.4 5.9 3.5 1.8-.5 8.5-1.3 14.8-1.8s12.8-1.5 14.4-2.1c1.7-.6 8.3-2.5 14.9-4l11.8-2.9 12.4-13C315.4 13 323.2 5.8 326 4c2.7-1.8 5-3.4 5-3.6S308.3 0 280.6 0h-50.4zm264.6-1.4c2.6 2 7.1 5.5 9.8 7.8 9.4 7.8 8.5 8 8.5-2.3V0h-23.2zm-19.1 67.5c-.3 1.3-1 8.9-1.6 16.9-.5 8-1.1 15.4-1.3 16.4-.2 1.6.9 2.3 5.8 3.7 3.3.9 9.6 2.6 14 3.8s10.7 3.1 13.9 4.2c3.3 1 6.1 1.9 6.3 1.9.1 0 .3-8.3.3-18.4V81.2l-5.2-3.3c-6.9-4.2-17.7-7.8-25.5-8.6-5.9-.6-6.2-.5-6.7 1.8M326.8 232.8c-2.7 1.6-2.7 1.8-2.1 8.7.6 7.9-1.1 12.7-6.1 17.4l-2.5 2.4 4.6 4.1c3 2.6 5.7 6.4 7.9 11 2.7 5.7 3.4 6.5 3.4 4.2 0-2 1.5-4.4 5-8.3 2.8-3 5.3-6.5 5.6-7.8.6-2.5-1.9-8.1-7.3-15.9l-3.4-4.9 3-3.1c2.9-3.1 2.9-3.1 1.2-6.4l-1.7-3.3-1.4 2.5c-1.7 3.3-2.8 3.3-3.2.2-.3-2.4-.4-2.5-3-.8"/></svg>