<svg xmlns="http://www.w3.org/2000/svg" width="682.667" height="512" version="1.0" viewBox="0 0 512 384"><path d="M268 115.2c-4.6 1.3-14 8.6-14 10.8 0 1-.7 3.4-1.5 5.3-1.8 4.3-1.9 10-.4 13 .6 1.2 2.6 3.6 4.5 5.4 2.9 2.8 3.4 3.8 3.4 7.9 0 4.4.1 4.6 1.4 2.8 1.4-1.9 1.5-1.9 2.2.1.4 1.1 2.1 3.2 3.8 4.6l3 2.6-2.4.7c-1.4.4-4.6 1.6-7.2 2.8-5 2.2-6.8 5.2-6.8 10.9 0 3.6-1.2 3.7-3.9.3-1.7-2.2-2.5-2.5-5.3-1.9-8.9 1.8-10.8 2.6-10.8 4.5 0 1 .4 2.1 1 2.5s.5 1.6-.1 3.3c-1.3 3.5-.3 24.4 1.7 33.5 1.4 6.8 1.4 6.8-2.1 19.6-4.2 15.1-4 17.3 1.6 19.8 2.1.9 3.9 2.2 3.9 2.9 0 .6 1.1 2.8 2.5 4.8l2.5 3.8-3.6 8.6c-2 4.8-6 14.6-9 21.9-2.9 7.3-6 14.3-6.9 15.7-.9 1.3-2 6.5-2.6 12l-1.1 9.6 3.7 6.7c5.8 10.5 10.5 16.6 17.5 22.3 5.6 4.7 7 5.4 11.7 5.8 5 .4 5.4.7 6 3.3l.6 2.9h8.3c4.9 0 8.4-.4 8.4-1s.5-1 1.1-1c.5 0 .7.4.4 1-.4.6 2.8 1 9 1h9.5l-1.4-3.5c-.8-1.9-1.1-3.7-.6-4 1.3-.8 16.2-3.5 16.9-3.1.3.2 4.2-1.5 8.6-3.9 7.7-4.1 8-4.5 7.8-7.7l-.1-3.3 1.3 2.5c1 1.9 1.5 2.1 1.9 1 .3-.8 2-5.9 3.7-11.3l3.3-9.8-3.3-11.2c-1.7-6.1-5.9-16.8-9.1-23.7-3.3-6.9-8.4-19.8-11.4-28.7-5.3-15.4-11.5-29.5-15.8-35.6-2-2.7-2-2.8.1-7 1.8-3.6 2.1-6.2 2.1-16 0-10.1.2-11.7 1.6-11.7 1.2 0 1.4-.5.9-1.8-1.6-3.7-1.6-6.1-.1-9 .9-1.7 1.6-4 1.6-5.2 0-1.1.5-2 1.1-2 .5 0 .7-.5.4-1-.3-.6-.3-1.6.1-2.2 2.5-4 .2-8.7-6.2-12.4-4.8-2.8-5.3-4.7-2.9-9.9 1.1-2.4 1.4-2.6 1.5-1 .1 1.7.3 1.5 1.7-.9 2.2-4.2 1.5-26.6-1.1-31.6-2.5-4.8-9.3-11.8-13.8-14.1-4.1-2.1-12.8-2.4-18.8-.7m-12.5 79.5c-.4 1.9-.9 2.3-1.7 1.5-.9-.9-.8-1.8.2-3.8 1.6-2.9 2.5-1.6 1.5 2.3M248 266c0 .5-.4 1-1 1-.5 0-1-.5-1-1 0-.6.5-1 1-1 .6 0 1 .4 1 1"/></svg>