<svg xmlns="http://www.w3.org/2000/svg" width="682.667" height="512" version="1.0" viewBox="0 0 512 384"><path d="M270 107.6c-4.9 1.6-11.9 6-13 8.4-2.4 4.8-5 12.9-5 15.3 0 4.3 2.6 9.4 6.5 13 2.7 2.5 3.8 4.4 4.2 7.4.4 2.7 1 4 1.8 3.7.7-.3 2 .7 2.9 2.1s2.8 3.1 4.2 3.7c3.4 1.6 3 2.4-2 3.8-7.3 2-10.2 4.3-12 9.6-2 6.1-2 8.1.1 9.3 1.7.9 1.7 1.2-.1 6-1 2.7-1.8 7.1-1.8 9.6 0 3.4-.3 4.5-1.5 4.5-1.1 0-1.4-.6-.9-2.3.3-1.2-.2-4.1-1.1-6.5-1.3-3.6-1.4-4.7-.3-6.7 1.5-2.8.7-5.4-3.5-11-2.5-3.2-2.5-3.2-6.8-1.9-2.3.8-5.5 1.6-7.1 1.9-2.5.5-2.8.9-2.2 3.8.3 1.8.2 4.8-.2 6.7-.8 3.4.8 31.2 2.3 39.5.5 3.1-.1 6.8-2.9 16.3-2.3 7.7-3.4 13.2-3 14.7.7 3 4 5.5 7 5.5 1.6 0 2.3.8 2.7 2.8.7 3.4 5.3 8.6 6.8 7.6 1.1-.6.8-3.5-.6-8.1-.6-1.8-.3-2.3.9-2.3s1.5.6 1 2.4c-.3 1.3-.1 2.7.5 3 .6.4 1.1 1.6 1.1 2.7 0 2.1-4.1 14.9-6.5 20.4-3.8 8.5-7.3 17.3-7.9 20-.4 1.6-2.3 6.1-4.2 9.9-2.7 5.2-3.8 8.9-4.6 15.6l-1 8.7 3.7 8.8c5.5 13.3 6.8 15.5 13.4 22.3l6.2 6.4 33.2-.4 33.2-.4 10-4.2c9.9-4.1 10-4.2 9.8-7.4-.2-3.1-.1-3.1.9-1.1 1.6 3.3 2.3 2.9 4.3-2.5 1-2.6 2.4-5.7 3.1-6.9 1.4-2.2 1.9-4.4 3.1-12.4.7-5-5.5-24.3-13.2-40.9-3.4-7.4-8.8-21.2-12-30.5-6.5-19.3-8.8-24.6-14.5-33.4-4.6-7-4.6-7.3-2.3-10.7 1.2-1.9 1.7-5.7 2.1-15.5.4-10 .8-12.9 1.8-12.9 1.7 0 1.7-.5.2-4.7-1-2.8-.9-3.8.6-6.4 2.1-3.6 4.6-12.2 4.6-16 0-2.9-4.5-8-9.2-10.5-2.4-1.2-2.6-1.7-1.8-4.1.5-1.6 1.1-5 1.5-7.7.7-5.3 2.4-4.7 2.5.9l.1 3 1.4-2.5c2.5-4.3 1.2-26.1-2-33.6-2-4.8-10.3-13.4-15-15.5-4.8-2.2-13.2-2.4-19.5-.3"/></svg>