<svg xmlns="http://www.w3.org/2000/svg" width="682.667" height="512" version="1.0" viewBox="0 0 512 384"><path d="M281.2 68.8c-3 1.1-6.7 2.9-8.2 4.1-1.6 1.1-3.5 2.1-4.3 2.1-2 0-4.7 3.3-4.7 5.8 0 1.1-.4 2.4-1 2.7-.5.3-1.9 3.5-3 7.1-1.6 5.4-1.9 8.1-1.4 15 .4 4.6 1 8.1 1.5 7.9.4-.3 1.6.6 2.7 2s2.6 2.5 3.4 2.5 1.8.3 2.2.7c.4.5 1.3.8 1.9.8.8 0 1.1 1.6.9 4.2-.2 3.4.1 4.3 1.8 4.8 1.1.3 2 1 2 1.5s2 2.8 4.5 5.2c3.4 3.3 5.3 4.3 7.7 4.3 2 0 3.6-.6 4-1.5.5-1.2.7-1.1.7.4.1 2.8-4.5 8.3-8.7 10.5-4.1 2.1-7.7 5.7-11.6 11.5-3.2 4.8-3.5 7.1-.7 5.6 3.3-1.7 3.3-1.2-.8 6.2-5.6 10.6-6.5 13.8-5.2 20 .6 2.8 1 5.3.8 5.5-.7.6-19.1-6.8-19.9-8-.4-.6-.5-2.2-.2-3.3.3-1.2 0-3.2-.6-4.4-1.8-3.3-1.5-11.1.4-12.2 2.2-1.2 2-5-.3-7.9-1-1.3-2.1-3.4-2.5-4.6-1.2-3.6-3.3-4.8-5.4-2.9-1 .9-2.6 1.6-3.6 1.6-3.1 0-7.5 3-9.3 6.3-1.2 2.3-1.9 7.4-2.5 17.7-.5 8-1.2 17.4-1.6 21-.7 6.6 1 17.8 3.9 24.6 1.1 2.9.8 4.4-3.8 18-2.8 8.2-5 16.6-5.1 18.6 0 3.5.2 3.8 2.7 3.8 1.5 0 3.1.3 3.5.7s2.3.6 4.2.4c3.2-.2 3.4-.1 2.9 2.2-.5 1.9.3 3.6 3.7 7.7 4.7 5.8 6.8 7.2 6.8 4.4 0-1.4.6-1.2 3 1.1 2.6 2.5 3.2 2.7 4 1.5.5-.8.9-1.7.7-2-1.8-4.1-3.9-10.2-3.5-10.6.3-.2 1.7 0 3.1.7 1.9.8 3.4.9 5.7.1 1.7-.6 4.4-.9 5.9-.6 2.7.6 2.9.4 3.5-3.2 1.1-6.9.9-12.7-.7-21.4-.9-4.7-2.1-12.3-2.6-17s-1.1-9.1-1.3-9.8.9-2 2.3-2.9c2.6-1.6 2.8-1.5 7 1.9 4.3 3.6 4.3 3.6 4.6 10.9.1 4.1.3 8.7.3 10.4 0 12.6-12.8 61.7-24.3 93.2-7.1 19.4-14.7 44.9-14.7 49.2 0 .8 21.3 1.1 73.1 1.1h73.1l-.5-2.3c-.3-1.2-1.1-5.9-1.7-10.5-2.1-15.3-4.6-23-13.9-41.7-8.6-17.2-14.2-30.5-21.2-50-1.7-5-4.7-12.1-6.6-15.9-3.6-7.2-13.6-23.9-15.9-26.6-.7-.9-1.1-2.5-.8-3.6s-.1-3.8-.8-6c-1.1-3-1.2-6.1-.5-12.9 1.7-18 1.5-17.5 4.3-17.5 2.2 0 2.4-.3 1.8-2.3-2.2-6.9-2.2-8.8-.1-10.9 1.2-1.1 3.1-2.6 4.2-3.4 1.8-1.2 2-2.4 2-12.2 0-10.1-.2-11.1-2.6-14.8-2.5-3.8-2.6-4.4-1.7-9.5 1.2-6.9 2.4-8.1 3.6-3.8l.9 3.4 2.3-7.5c2.6-8.4 2.6-10.5 0-20.5-1-3.9-2.4-10.6-3-15-1.6-10.7-3.6-14.8-10.6-22.1-9.5-9.8-11.2-10.6-21.8-11.1-7.1-.3-10.2 0-14.4 1.5"/></svg>