<svg xmlns="http://www.w3.org/2000/svg" width="682.667" height="512" version="1.0" viewBox="0 0 512 384"><path d="M288.4 60c-5.1 1-10.7 3.3-14.2 5.8-1.5 1.1-3.9 2.2-5.4 2.6-1.9.4-2.8 1.4-3.3 3.7-.4 1.7-1.6 5.1-2.7 7.6-2.2 5-4 23.3-2.7 26.8.5 1.3.8 1.5.9.5 0-.8.9.1 1.9 2 1.1 1.9 2.5 3.5 3.3 3.6.7 0 2.8.6 4.6 1.3 2.4 1 3.2 1.8 2.8 3-1.7 5.3-1.8 6.1-.7 6.1.6 0 3.6 2.6 6.7 5.7 5.1 5.2 6.1 5.8 9.8 5.8 2.9 0 4.1.4 4.4 1.6.4 2.2-3.7 6.9-9 10.3-3.7 2.4-13.8 14-13.8 15.9 0 .4 1.1.5 2.5.1 1.4-.3 2.5-.4 2.5-.2s-2 4.3-4.5 9.1c-3.8 7.5-4.5 9.7-4.5 14.7 0 3.2.5 7.1 1 8.6.6 1.5.9 2.8.7 3-.2.3-3.3-.9-6.8-2.5s-8.3-3.5-10.7-4.2c-6.7-2-6.9-2.4-7.6-17.2-.2-3.7.1-6.7.5-6.7.5 0 1.4-1.1 2.1-2.5.9-2.1.7-2.9-1.3-5.7-1.4-1.8-3-4.5-3.7-6.1-1.3-3.1-1.9-3.2-5.8-1.2-1.6.8-3.9 1.5-5 1.5-3.1 0-7.1 3.5-8.2 7.3-.6 1.7-1.3 8.6-1.6 15.2s-1.1 14.7-1.7 18c-2.1 11 .6 30.5 4.3 31.7.8.3-.6 5.6-4.6 17.4-3.2 9.3-6 18.6-6.1 20.6l-.2 3.7 6.6.6c8.7.8 8.9.9 8.4 3.7-.6 3.3 8 14.1 10.6 13.3 1-.3 2.4.1 3.1 1 1.5 1.8 3.7 2 4.3.2.2-.6-.4-3.1-1.5-5.5-1-2.4-1.8-4.9-1.8-5.5 0-.9 2.8-1.2 9-1.2 8.5 0 9-.1 9-2.1 0-1.1.3-2.4.6-2.7 1.2-1.2 1-10.2-.3-18.7-.7-4.6-1.8-12.5-2.3-17.5-.6-4.9-1.3-10.4-1.6-12.1-.5-2.7-.2-3.2 2.4-4.3 2.7-1.1 3.4-.9 8.3 2.2l5.4 3.4-.1 13.4c-.1 9-.8 17.4-2.3 25.4-2.9 16.1-12.8 52.6-19.1 70.5-7.9 22.5-15.8 46.2-16.5 49.7l-.7 3.3h75.6c41.6 0 75.6-.3 75.6-.8 0-.4-.7-4.8-1.5-9.9-2-12.2-6-22.8-13.9-37.1-8.6-15.5-12.2-23.6-20.2-45-8.1-21.7-11.8-29.6-20.7-43.7-4.7-7.5-7-12.1-7.2-14.5-.1-2-1-5.3-2-7.3-1.5-3.2-1.7-5.3-1.1-13.5 1.1-15.9 1.5-17.2 4.3-17.2 2.1 0 2.4-.4 1.9-2.3-2.3-8.5-2.2-9.2 3.3-13.3 5.1-3.9 5.1-3.9 4.5-8.4-.4-2.5-.8-7.3-.9-10.7-.2-4.5-1-7.5-2.9-10.9-1.6-2.8-2.2-5-1.7-5.4.6-.3 1.3-2.6 1.7-5 1-6.8 2-8.1 3.5-4.5l1.2 3 2-6.5c1.1-3.6 2.4-6.8 2.9-7.1.6-.4.6-1.5-.2-2.9-.6-1.2-.9-2.8-.6-3.6s-.3-3.8-1.4-6.7c-1.2-2.9-2.9-9.9-3.9-15.7s-2.7-12.3-3.9-14.5c-2-4-13.4-15.7-18.2-18.7-3-2-15.9-3-21.6-1.8"/></svg>