<svg xmlns="http://www.w3.org/2000/svg" width="682.667" height="512" version="1.0" viewBox="0 0 512 384"><path d="M290.4 44.8c-6 1.8-14.7 6.3-15.9 8.2-.3.6-1.9 1-3.5 1-2.8 0-4.6 2.2-3.4 4.2.3.5-.8 3.5-2.4 6.6-3.6 6.7-5.4 16.1-5 25.2.2 5 .7 6.5 1.8 6.5.8 0 2.5 1.7 3.8 3.7 2.6 4.3 3.6 4.9 2.7 1.5-.6-2.1-.6-2.1.9-.3.9 1.1 1.6 2.5 1.7 3 0 .6.3.3.7-.6.6-1.5 1-1.4 3.5.8 2.8 2.4 2.8 2.5 1.2 5-1.3 2-1.4 2.8-.4 4 .6.8 1.7 1.4 2.5 1.4.7 0 1.8.8 2.3 1.8.5.9 3.3 3.7 6.1 6.1 4.8 4.1 5.5 4.4 8.1 3.4s2.9-.9 2.9.9c0 2 .1 2.1 2 .3 2.7-2.4 2.6-.2 0 3.5-1.1 1.6-6.2 7.1-11.4 12.2-5.1 5.1-10.1 10.8-11 12.6-1.8 3.4-1.5 3.8 1.4 2.2 1.4-.7.8 1.2-2.6 8.7-5.4 12.1-6.1 16.5-4 25 .9 3.7 1.4 6.8 1.2 7-.2.3-2.8-.9-5.8-2.5-2.9-1.6-9.3-4.2-14.2-5.8-9.3-3-11.4-4.8-12.2-10.1-.2-1.6-.6-4.5-1-6.5-.4-2.5-.1-4.4 1-5.9 1-1.6 1.2-2.6.5-3.5-.6-.8-.5-1.3.6-1.8.8-.3 2-1.7 2.5-3.2.9-2.2.6-3.2-2-6.7-1.6-2.3-3-4.6-3-5.3s-.7-2-1.6-2.9c-1.4-1.4-1.8-1.4-3.3-.2-.9.8-3.2 1.8-5.1 2.2-4.6.9-9.6 4.3-11.1 7.5-.6 1.4-1.3 7.7-1.4 14-.2 6.3-1.1 16-2.1 21.5-2.6 15.1-1 37.2 2.5 35 1.7-1 1.8 5.9.1 10.4-12.2 32.8-13.2 36.5-10.3 36.9 1 .1 3.9.5 6.5.8s5.2 1.2 5.9 2c.6.8 1.8 1.4 2.5 1.4.8 0 1.4.7 1.4 1.6 0 2 8.8 13.4 10.9 14.1.9.2 2.6 1 3.9 1.6 3.6 1.7 5.1-.5 2.9-4.6-2.3-4.5-3.8-8.7-2.9-8.5.4.1 2.8-.2 5.3-.6 3-.5 5.4-.4 6.7.3 1.4.8 2.3.8 2.7.1.4-.6 1.5-.8 2.6-.5 4.1 1.3 5.3-7.8 3.3-24.5-.7-5.8-1.8-15.2-2.4-21s-1.3-11.9-1.6-13.6c-.5-2.7-.2-3.2 2.3-4.3 2.8-1.1 3.5-.9 10.9 4.1l7.9 5.4-.3 6.1c-.2 3.3.1 7 .7 8.1 1.1 2-.7 14.6-4.4 30.7-.9 3.8-2.7 13.3-4.1 21-4.2 23.9-10.7 46.2-22 76.4-3 7.9-5.4 14.8-5.4 15.2 0 .5 36 .9 80 .9s80-.1 80-.3c0-.1-.9-2.6-2-5.6-2.6-6.7-5.9-13.1-12.8-25.1-6.8-11.7-15.1-28.4-18.5-37-15.5-39.6-20.9-51-31.9-68-3.8-5.9-5.7-10-6.2-13.3-.4-2.6-1.3-5.9-2.1-7.3-2-3.9-3-21.9-1.5-28.7 1.1-5.3 1.3-5.7 3.6-5.1 2.8.7 2.8.7.8-4.1-.9-2.3-1.3-4.9-.8-6.9.8-4 5.4-8.8 7.1-7.5.8.8 1 .4.6-1.1s-.1-2.1.8-2c4.2.6 4.7.1 4.1-4.3-.9-7.3-7-26.9-9.2-30-2.6-3.4-1.9-4.8 1-2.2 2 1.8 2 1.7 2.1-1.1 0-2.5.2-2.6.9-.9s.9 1.8.9.2c.1-.9 1.2-2.3 2.6-2.9s2.5-1.5 2.5-2c0-.4.7-.8 1.6-.8 1.3 0 1.5-.7 1-3.1-.5-2.5-.2-3.2 1.3-3.6 1.6-.4 1.8-.9 1-3-1.4-3.6-1.2-6 .3-4.5 2.2 2.2 2.7 1.2 1.2-2.3-1.7-4.2-1.8-4.8-.3-3.9 1.7 1 .4-3.6-3-11-1.6-3.4-3.6-9.7-4.6-14.1-2.9-13.2-5.1-18-11.8-25.2-6.2-6.5-13.9-12.6-16.7-13-9.5-1.3-17.1-1.1-22.6.5"/></svg>