<svg xmlns="http://www.w3.org/2000/svg" width="682.667" height="512" version="1.0" viewBox="0 0 512 384"><path d="M292.5 41.4c-7.3 2-9.6 3-14.7 6.9-2.9 2.2-5.3 3.4-6.5 3.1-2.3-.6-4.8 2-3.9 4.2.3.8-.5 3.4-1.9 5.7-1.3 2.3-3.1 6.9-3.9 10.2-2.7 10.1-1.7 28.2 1.3 23.7.6-1 1.1-.5 2.1 1.7 1.4 3.6 4.4 6.6 3.4 3.5-.5-1.6-.3-1.5 1.4.4 1.2 1.3 2.3 1.8 2.7 1.2.8-1.2 5.4 1.9 5.5 3.8 0 .7-.6 2.2-1.2 3.3-1.1 1.8-1 2.3.6 3.3 1 .6 4.8 3.9 8.5 7.3 6.5 6.2 9.5 7.5 11.9 5.1.9-.9 1.2-.5 1.3 1.7 0 3 .1 3 1.8-.9 1.4-3.2 1.9-3.6 2.4-2.2.4 1 .7 2.4.7 3.2 0 .7-5.5 6.9-12.1 13.6-10.4 10.5-14.9 16.4-14.9 19.4 0 .4.8-.3 1.9-1.4 3.3-3.9 3-1.2-.9 7.1-2.1 4.5-4.3 10.5-4.8 13.4-.9 5.3-.1 13.8 1.8 18.9.6 1.5.8 2.9.6 3.2-.3.2-2.6-.8-5.1-2.3-3.6-2-25.4-10.5-27.2-10.5-.8 0-3.3-6.2-2.8-7 .3-.5-.1-2.3-1-3.9-2-4-1.9-5.7.5-9.1 1.3-1.8 1.6-3.1 1-3.5-1.5-.9-1.2-2.5.5-2.5.9 0 2-1.2 2.6-2.7.8-2.2.6-3.3-1.9-6.7-1.5-2.3-3.3-5.3-4-6.9-1.3-2.9-3.9-3.6-4.8-1.2-.4.8-1.7 1.5-3 1.5-3.5 0-8.5 2.3-11.2 5.2-2.7 3-4.2 10.9-4.2 22.4 0 4.5-.5 10.6-1 13.5-2.4 12.3-2.8 17.9-1.9 26 1.2 10.3 1.7 12.2 3.4 11.5 1.6-.6 3 7.5 1.7 10.1-2 3.8-11.6 30.9-11.8 33.3-.1 1.4-.5 3.2-.8 4-.7 1.7 4.6 4.6 6.5 3.5 1.6-1 10.5 3.6 11.7 6 1.8 3.9 10.3 13.5 11.9 13.5.9 0 2.4.7 3.3 1.5 1.5 1.4 1.9 1.4 2.9.1 1-1.2.7-2.4-1.3-6.1-1.4-2.5-2.6-5.2-2.6-6 0-1.8 4.1-2.6 12.1-2.2 9.1.5 10.2-.4 10.4-9 .1-3.8-.6-13.6-1.6-21.8-1-8.3-2.1-18.2-2.4-22-.4-3.9-.9-7.8-1.1-8.7-.3-1 .4-2.3 2-3.3 2.4-1.6 2.7-1.5 11.8 4.6l9.4 6.3-.4 5.6c-.2 3.2 0 6.6.6 7.6 1.1 2.1-.6 14.5-3.3 23.9-.8 2.7-1.9 7.2-2.5 10-.5 2.7-1.8 9-2.9 14-1 4.9-1.9 9.7-2 10.5-1 15-6.6 36.3-17.6 66.5-2 5.5-4.3 11.7-5 13.7l-1.4 3.8h160.8l-1.2-2.8c-2.7-6-8.9-17.4-14.2-26.3-8.2-13.7-14.2-26.6-24.5-52.4-10.6-26.9-13-31.7-23.9-49.2-4.6-7.5-8.1-14.2-8.1-15.7 0-1.4-.9-4.9-2.1-7.8-1.7-4.3-2.1-7.7-2.3-17.8-.1-14.4.5-18 3.4-18 2 0 2-.1.5-3-1.3-2.5-1.4-3.7-.4-7.3 1.2-4.2 5.6-10 6.9-9.2.4.3 2.2-.2 3.9-1.1 4-2 4-3.2-.5-18.5-3.5-12.1-6.4-19.2-8.4-20.4-.5-.3-1-1-1-1.6 0-1.5 1.9-1 4 1.1 1.1 1.1 2 1.7 2 1.2 0-.4.4-.1.9.7.7 1 1.1.1 1.6-3.2.7-4.8 2-6.1 2.8-3 .3 1.3.8.9 1.7-1.5.8-2.1 1.7-3.1 2.6-2.8 1.7.6 1.7.5.4-2.9-.9-2.3-.7-2.8 1-3.2 2.3-.6 2.4-1.1 1-4.9-1.2-3.2-.6-4.2 1.5-2.4s2-.2-.5-5c-2.6-5-2.5-6.2.1-3l2 2.5-.7-2.5c-.3-1.4-2-5.4-3.6-9s-4.3-11.4-5.9-17.3c-3.7-13.8-4.8-15.7-12.8-24-10.5-10.9-13.6-12.6-23.9-13.2-5.6-.3-10.5 0-13.7.9m47.2 90.3c-.3 1-.5.4-.5-1.2 0-1.7.2-2.4.5-1.8.2.7.2 2.1 0 3"/></svg>