<svg xmlns="http://www.w3.org/2000/svg" width="682.667" height="512" version="1.0" viewBox="0 0 512 384"><path d="M287.5 42c-3.3 1.1-8.4 3.8-11.3 6s-5.7 3.8-6.2 3.5-1.9-.1-3.1.5c-1.5.9-1.9 1.8-1.5 3.4.4 1.5-.5 4.2-2.3 7.7-3.6 6.7-4.8 11.8-5.5 23.5-.5 8-.3 9.3 1.1 9.8.9.4 1.9.2 2.3-.4.4-.7 1.2.1 2 1.9 1.4 3.6 4.9 7 3.6 3.6-.6-1.7-.4-1.7 1.8.4 1.4 1.4 2.9 2.2 3.2 1.8.4-.3 1.5-.2 2.5.3 1.2.7 1.9.6 2.2-.3.2-.6.4.1.5 1.8 0 1.6-.6 4-1.3 5.1-1.5 2.3-.4 4.4 2.1 4.4.7 0 1.9.8 2.6 1.8.7 1.1 3.9 4 7.2 6.6 5 4.2 6.1 4.7 8.1 3.8 1.9-.9 2.4-.7 3.3 1.1 1 2.1 1.1 2 1.7-1 .8-3.7 2.5-3.5 2.5.4 0 1.9-2.7 5.2-10.7 13.2-9.6 9.6-18.4 20.1-16.8 20.1.3 0 1.8-.8 3.2-1.7 2.2-1.5 2.6-1.5 2.1-.3-.4.8-2.5 5.7-4.8 10.8-5.2 11.7-5.9 17.1-3.1 27.7 1.1 4.3 1.9 8.1 1.7 8.2-.2.2-3.2-1.2-6.7-3.1s-11.3-5.1-17.4-7.1c-11.6-3.9-14.5-6-14.5-10.4 0-1.5-.7-3.6-1.5-4.7-2-2.6-1.9-5.1.5-9 1.3-2 1.7-3.5 1-3.9-1.3-.8-1.3-2.6.1-2.2.6.1 1.6-.7 2.2-1.8.7-1.1 1.5-2.3 2-2.6.4-.3-.4-2.1-1.7-4-1.4-1.9-3.3-5.1-4.2-7.2-1.6-3.8-3.1-4.4-6.2-2.8-.9.5-3.7 1.4-6.1 2.1-5.5 1.5-9.6 5.4-11 10.6-.6 2.1-1.1 8-1.1 13.1 0 5.3-.9 13.8-2.1 20-1.7 8.5-2 13-1.6 20.8.6 10.4 2.4 17.7 3.7 15.5.5-.8 1.2.8 1.9 3.9 1.1 5 .9 5.7-4.8 22.4-3.2 9.5-6 18.8-6.4 20.8-.5 3.2-.2 3.8 1.9 4.8 1.4.6 3.8 1.1 5.3 1.1 1.6 0 3.4.7 4.1 1.5s2.1 1.5 3.1 1.5 2.4 1 3.1 2.3c3.1 5.5 9.6 12.6 12.9 14.1 7 3.2 8.2 1.4 3.9-5.6-2.5-4-2.9-5.3-1.8-5.9 2.4-1.6 7.7-2.1 10.7-1.1 2.2.8 3.2.7 4-.2.6-.7 2.1-1.1 3.4-.9 3.6.7 5-2 5.3-10 .2-5.7-3.4-36.8-6.1-51.9-.3-2 .2-3 1.9-4.1 2.2-1.5 2.8-1.2 12.9 5.5l10.7 7.1v5.4c0 3 .4 6.2 1 7.2.9 1.8-2.6 22.3-4.8 28.2-.6 1.4-1.3 4.1-1.6 6s-1.4 7.7-2.5 12.9-2.2 12.4-2.6 16c-1.1 10.8-5.2 26.5-12.9 49.1-4 11.8-7.6 22.2-8.1 23.1-.7 1.7 3.5 1.8 78.9 1.8h79.7l-2.7-4.7c-1.5-2.7-5.6-9.6-9.1-15.5-10-17.1-15.8-29.5-26.5-56.3-11.8-29.5-12.5-30.8-23.9-49.2-5-8-8.9-15.3-8.9-16.7s-.9-4.8-2-7.5c-4-10.2-3.6-36.1.5-36.1 1.8 0 1.8-.5.4-3.1-1.5-2.8.7-11.5 3.7-15.2 1.3-1.6 2.4-3.4 2.5-4 0-.7.5-.1 1.1 1.3.9 2.1 1.2 2.2 1.5.7.4-1.6 2-2.2 5.1-1.8 1.7.3 1.5-2.3-.8-10.9-3.9-14.2-7.3-23.5-9.7-26.8-2.9-3.9-2.4-5.2 1.2-2.8 1.4.9 2.5 1.3 2.5.9 0-.5.5-.1 1 .7.7 1.1 1.1.4 1.6-2.8.6-4.1 1.8-5.4 2.7-3 .3.7 1-.2 1.7-2 .8-2 1.7-3.1 2.5-2.8 1 .4 1.2-.4.8-3.1-.6-3.3-.5-3.5 1.7-2.8 2 .6 2.2.5 1.5-1.1-.4-1.1-1-3.2-1.3-4.9-.4-2.6-.3-2.8 1-1.8 2.7 2.3 2.8.2.3-4.8-3-5.9-3.2-7.3-.4-3.9l2 2.5-.6-2.5c-.4-1.4-2.2-5.9-4-10-1.9-4.1-4.3-11.3-5.5-15.9s-3.3-10.7-4.7-13.5c-3.1-6.2-12.8-16.4-19.7-20.8-4.7-3.1-5.6-3.3-15-3.5-7.9-.2-11.4.1-16.1 1.7"/></svg>