<svg xmlns="http://www.w3.org/2000/svg" width="682.667" height="512" version="1.0" viewBox="0 0 512 384"><path d="M290.3 40.5c-6.6 1.8-14 5.6-17.4 8.9-1.7 1.5-3.4 2.3-4.6 2-2.3-.6-4.8 1.9-4 4 .3.8-1 4.6-2.9 8.4-3.2 6.3-3.6 8.3-4.4 19.2-.8 10.1-.7 12.4.5 13.6q1.35 1.5 2.1.3c.4-.6 1.6.6 3.1 3 2.7 4.6 3.8 5.3 2.8 1.8-.6-2.1-.5-2.1 1.6.3 1.2 1.4 2.9 2.4 3.9 2.2s2.1.2 2.5.9c.6.8 1 .7 1.7-.2 1-1.5.5 3.9-.7 7.9-.6 1.9-.3 2.4 2.3 3.3 1.7.6 3.4 1.8 3.7 2.7.4 1 3.2 3.7 6.2 6.1 5.1 4 5.9 4.3 8.4 3.4 2.5-1 2.8-.8 3.2 1.1.3 1.8.5 1.7 1.9-1.3l1.5-3.3.7 2.6c.8 3.4-2.6 7.9-12.1 16.3-3.6 3.1-8.4 8.2-10.7 11.3-6.3 8.2-6.5 8.7-2.3 6.3l3.6-2.2-3.6 7.7c-8 17.4-8.5 21-5.1 33.3 1.1 4.4 1.9 8.2 1.6 8.4-.3.3-5.2-1.7-10.8-4.5-5.7-2.7-11-5-11.9-5s-4.7-1.1-8.5-2.3c-5.2-1.8-7.2-3-8.3-5.1-.8-1.5-1.2-3.3-1-4 .3-.6-.3-2.7-1.3-4.6-1.8-3.5-1.4-7.6 1.1-10.6.9-1.1.9-1.7 0-2.8-1-1.1-.8-1.6.9-2.1 1.2-.4 2.5-1.8 3.1-3.2.8-2.1.5-3.1-1.5-5.7-1.3-1.8-3.1-4.8-3.9-6.8-1.9-4.5-3.4-5.4-5.5-3.5-.9.8-3.6 1.8-6 2.2-5 .8-9.9 4.6-11.8 9-.7 1.7-1.6 8.7-1.9 15.5-.4 6.9-1.6 17.2-2.6 23-2.8 14.8-1.2 35 2.8 35 .7 0 1.3.9 1.3 2 0 1 .5 3 1.1 4.3.9 2 .1 5.4-5 20.9-6.7 20.3-7.4 25.2-3.8 26.2 1.2.3 3 .6 4 .6 4.1 0 8.8 3.5 15.2 11.1 3.7 4.3 7.3 7.9 8.1 7.9s2.6.7 3.9 1.6c2.3 1.5 2.5 1.5 3.2-.1.4-1.1-.4-3.7-2.1-6.7-3.5-6.2-2.7-7.2 5.7-7.4 3.4 0 7-.4 8-.8.9-.5 2.4-.5 3.3-.2 2.4.9 5.5-2.7 5.5-6.5.1-9.8-.3-14.4-2.1-25.4-4.9-30.3-5.2-33.9-3.3-35.2.9-.7 2.2-1.3 2.7-1.3.6.1 5.8 3.3 11.6 7.3l10.5 7.2.6 5.5c.3 3 .9 6.2 1.3 7 .7 1.6-2.1 16.3-6.9 36-2.7 11.3-4.1 19.2-5 28-.9 9.6-5.7 27.8-12.6 48.5-3.7 11-6.6 20.1-6.5 20.3.2.1 35.2.1 77.9 0l77.6-.3-9.6-16.5c-11.7-20.4-14.1-25.4-26-55.5-10.2-25.8-13.9-33.5-25.7-52.2-5.2-8.2-7.6-13.1-7.6-15.2 0-1.6-.9-5.3-2-8.2-3.8-9.6-3.7-34.9.2-34.9.6 0 .8-.9.4-2.3-.8-3.1 1.4-12.8 3.4-15.2 1-1.1 2.5-3.4 3.4-5 1.3-2.3 1.6-2.5 1.3-.8-.3 1.2.1 2.8.9 3.4 1.2.9 1.3.9.9-.4-.8-1.8 1-3.2 4.6-3.6 2.9-.3-5.2-29.5-10.2-36.8-1.6-2.4-2.9-4.6-2.9-4.9 0-1 1.8-.3 3.8 1.7 2.4 2.1 2.7 1.8 3.5-3.1.4-2.3.4-2.2.6.5.2 2.9.3 2.9 1.6-1 .7-2.2 1.3-3.2 1.4-2.3.2 2.8 1.8 2.1 3-1.3.9-2.7 1.3-3 2.6-1.9 1.4 1.1 1.4 1 .5-1.5-1.3-3.4-.6-5.7 1.5-4.9 1.8.7 1.9-.2.4-4.5-1.3-3.7-.6-5 1.6-3.1 2.3 1.9 1.9-.3-1.1-6.1-2.7-5.5-2.7-7.6 0-3.3 3.4 5.1 2.6 1.5-1.7-8.2-2.4-5.5-5.4-13.9-6.6-18.8-3.1-12.5-6.2-18-14.6-25.8-11.6-10.9-13.1-11.7-23.8-12.3-6.5-.3-10.7-.1-14.4 1"/></svg>