<svg xmlns="http://www.w3.org/2000/svg" width="682.667" height="512" version="1.0" viewBox="0 0 512 384"><path d="M293.5 39.5c-7.3 1.3-16.3 5.2-20.2 8.7-1.2 1.2-3.4 2.2-4.8 2.3-3.8.5-5.6 2.3-4.9 5.2.4 1.4.1 3.1-.8 4.1-4.3 5-7.7 19-7.8 31.9 0 3.9.4 5.3 1.4 5.3.8 0 1.7.6 1.9 1.2.3.7.6.4.6-.6.1-1.4 1-.6 3.1 2.7 3 4.7 5.1 6.5 3 2.6-1.9-3.4-.3-3.4 1.8.1 1.2 1.8 2.3 2.7 2.6 2.1.6-1 1.8-.5 6.4 2.5.2.1-.4 1.6-1.3 3.4-1.7 3.3-.8 6 2.1 6 .7 0 1.9.8 2.6 1.8 1.9 2.8 12.6 11.2 14.1 11.2.7 0 1.9-.6 2.5-1.2 1-1 1.4-.8 1.9 1.1.6 2.3.6 2.3 2.3-.9l1.7-3.3.7 2.9c.5 2 .3 3.1-.8 4-.9.6-1.6 1.6-1.6 2.2s-2.8 3.5-6.1 6.4c-8.4 7.2-10.7 9.6-15.8 16.2-4.6 6-4.9 8-.6 5.2 1.4-.9 2.5-1.5 2.5-1.3 0 .3-2.1 4.9-4.7 10.3-5.9 12.4-6.7 19.8-3.4 31.9 1.2 4.3 2 8 1.7 8.2-.2.2-4.5-1.6-9.4-4.1-5-2.5-12.1-5.4-15.9-6.5-12-3.4-14.7-4.6-16.4-7.7-.9-1.6-1.5-3.8-1.2-5 .2-1.1-.3-2.6-1.1-3.3-2.2-1.9-2-5.8.5-9.3 1.6-2.2 1.9-3.2 1-4.1-1.3-1.3-1.5-3.1-.3-2.3 1 .6 5.2-3 5.2-4.5 0-.6-1.3-2.9-2.8-5.2s-3.3-5.5-4-7c-1.5-3.5-3.7-4.4-5.7-2.3-.9.9-2.8 1.6-4.1 1.6-1.4 0-3.9.6-5.7 1.4-7.2 3-9.6 8.9-9.7 23.2 0 4.4-1 13.2-2.1 19.5-1.2 6.3-2.1 15.1-2.1 19.7.1 10.1 1.8 19.2 3.7 19.2.8 0 1.6 1.7 2 4 .4 2.2 1.1 4.2 1.5 4.5 1.2.7 1 1.6-5 19.9-6.4 19.7-7.4 25.3-4.9 26.6 1 .6 2.9 1 4.3 1 4.5 0 10.1 3.9 15.5 10.6 3.1 3.8 6.7 7.2 8.6 8 1.9.7 3.6 1.8 4 2.4 1.1 1.8 3.5 1.1 3.5-1.1 0-1.1-1.2-4.1-2.6-6.6-1.7-3.2-2.2-4.9-1.5-5.6.6-.6 4.2-1.1 8-1.1 3.8-.1 7.3-.5 7.7-.9s1.9-.7 3.4-.7c7 0 7.6-7.8 2.9-37-1.7-10.2-3.4-21-3.9-24-.7-4.6-.6-5.7.8-6.7.9-.7 2.1-1.3 2.6-1.3.6 0 6.1 3.3 12.1 7.3 9.5 6.3 11 7.7 11.3 10.2.1 1.7.7 4.9 1.2 7.3 1.1 4.5-.4 16.2-3.4 26.8-3.2 11.5-7.1 31.3-8.1 41-.3 3.3-.8 7.2-1.1 8.9-1.2 6.2-9.4 34.4-12.8 43.9-2 5.4-3.6 10.2-3.6 10.7s33.1.9 76.5.9c42.1 0 76.5-.2 76.5-.5s-3.6-6.8-8-14.5c-9.8-17-13.5-25-24.5-52.7-10.1-25.4-14.9-35.3-25.5-52.3-4.6-7.5-8-14.1-8.4-16.5-.4-2.2-1.6-6.5-2.8-9.5-2.9-7.7-3.2-29.2-.5-33.3 1-1.5 1.5-3.6 1.2-4.6-.8-2.6 2.2-13.1 4.4-15.5 1.1-1.2 2.4-3.2 3-4.6.9-2.4 1-2.4 1-.3.1 2.7 1.7 3.8 2.5 1.8.3-.8 1.7-1.5 3.1-1.5 2.4 0 2.5-.2 1.9-4.3-1.6-10.6-8.8-32.3-12.1-35.9-2.6-2.9-.9-4.1 2-1.4l2.7 2.5.1-3.2.1-3.2.7 3c.7 2.8.8 2.7 1.6-1.9.7-4.6.8-4.8 2-2.6 1.2 2.3 1.3 2.3 2.5-1.4 1-3.1 1.4-3.5 2.6-2.5 1.3 1 1.4.6.8-3.1-.7-4-.6-4.2 1.5-3.5 2.5.8 2.5.9.6-4.5-1.7-4.9-1.4-6 1.1-3.6 2.5 2.6 2.8 1.2.6-3.1-1.1-2.1-2.3-4.9-2.6-6.3-.6-2.2-.4-2.1 1.4.7 1.2 1.8 2.3 3.3 2.5 3.3.7 0-1.5-6.2-4.8-13.7-2-4.3-4.6-11.9-5.8-16.8-2.9-11.9-5.9-17.6-13.3-25.4-7.7-8.1-15.8-13.4-21.1-13.8-2.2-.2-5.1-.5-6.5-.7s-5.7.2-9.5.9"/></svg>