<svg xmlns="http://www.w3.org/2000/svg" width="682.667" height="512" version="1.0" viewBox="0 0 512 384"><path d="M289.3 39.5c-6.1 1.7-11.3 4.2-16.2 7.9-1.9 1.4-4.3 2.6-5.2 2.6-3.5 0-4.9 1.2-4.9 4.2 0 1.7-1.6 6.3-3.6 10.4-3.2 6.4-3.8 8.7-4.7 19.3-1 11.5-1 12.2.9 13.5 1.6 1.3 2 1.3 2.4 0 .3-.9 1.4.3 2.9 3.1 2.4 4.5 5.1 6.5 3.1 2.2-1-1.9-.8-1.9 1.3.5 1.4 1.4 2.9 2.3 3.3 1.8.5-.5 2.2.2 3.8 1.5 2.9 2.3 2.9 2.4 1.3 4.9-2.4 3.6-2.1 4.5 1.7 6.1 1.9.8 3.7 2.3 4.1 3.2 1 2.7 11.5 10.6 13.4 10 .9-.3 2.4-.8 3.4-1.2 1.3-.6 1.7-.2 1.7 1.6.1 2.1.3 1.9 1.7-1.1l1.6-3.5.7 3c.4 1.9.1 3.6-.6 4.5-6.6 7.8-9 10.2-11.9 12-4.9 3.1-18.4 20-15.9 20 .3 0 1.9-.9 3.5-2 2.8-2 2.7-1.9-2.3 9.2-6.5 14.3-7.2 21-3.5 33.5 1.4 4.6 2.4 8.3 2.3 8.3s-5.6-2.5-12.1-5.5c-6.6-3-12.7-5.5-13.5-5.5s-5-1.2-9.2-2.6c-6.3-2.1-8-3.1-9.2-5.5-.8-1.7-1.2-3.7-.9-4.5s-.2-2.5-1.1-3.9c-2-3-2-7.4-.1-9.9.9-1.1 1.2-2.9.9-4.3q-.6-2.4.6-2.1c.6.2 1.7-.6 2.3-1.7.7-1.1 1.6-2.3 2.1-2.6.5-.4-.8-3.1-2.8-6.1s-3.6-6-3.6-6.6-.7-1.8-1.6-2.7c-1.4-1.4-1.9-1.4-3.3-.2-.9.8-4.1 1.9-7.2 2.6-6 1.3-9.9 4.4-11.9 9.5-.6 1.5-1.5 9.2-2 17.1-.5 7.8-1.2 14.9-1.5 15.6-.3.8-1.2 5.8-2 11.2-1.1 7.4-1.2 11.8-.4 18.5 1 9 2.6 14.5 3.9 13.7.4-.3 1.1 1.1 1.4 3 .4 1.9 1.3 4 2 4.7 1 1.1.2 4.4-4.1 17.8-6.6 20.1-8 27.8-5.5 29.6.9.8 3.2 1.4 5 1.4 4.6 0 10.2 3.9 15.6 10.8 4.4 5.6 13.5 11.9 15 10.4 1.2-1.2.5-4.4-1.9-8.2-1.4-2.2-2.5-4.4-2.5-4.9 0-1.2 5.1-2.1 11.6-2.1 2.9 0 5.6-.5 6-1.1.3-.6 1.6-.8 2.9-.5 6.4 1.6 7.8-9.3 3.9-30.9-1.3-7.2-3-17.5-3.9-23-.8-5.5-1.8-11-2.1-12.2-.5-1.7-.1-2.5 1.9-3.4 2.3-1 3.5-.5 12.9 5.5 14.8 9.6 14.1 8.8 14.6 15.1.2 3 .8 5.7 1.2 6 .8.5-2.1 17-4.5 26-.9 3.3-2 8-2.6 10.5-2 10.1-4.6 23.6-4.8 25 0 .8-.4 4-.6 7-.7 7.3-6.5 29.4-11.9 45.2l-4.3 12.8h75.9c41.8 0 75.7-.3 75.5-.8-.3-.4-2.3-3.7-4.6-7.5-7.6-12.4-15.8-30-25.6-54.7-10.4-26.4-15.6-36.8-27.1-55.2-4.1-6.5-7.4-12.9-7.4-14.3s-.9-4.8-2-7.7c-2.9-7.8-4.6-24.8-3.1-32.1.8-3.7 1.7-5.7 2.6-5.7 1.1 0 1.2-.6.5-2.6-1.3-3.3 1.3-12.6 4.6-17 1.3-1.7 2.4-3.8 2.4-4.7 0-1 .5-1.7 1-1.7.6 0 1 1.1 1 2.4 0 1.4.5 2.8 1.1 3.2.8.4.9 0 .4-1.5-.6-2.1.2-2.5 4.3-2.4 1.8.1 1.5-4.2-.9-13.3-3.3-12.7-5.8-19.6-9-24.8-3.5-5.8-3.4-7.7.3-4.3 2.9 2.7 3.7 2.1 3.9-3.1.1-2.7.1-2.7.8.3l.7 3 .7-3.5c.7-3.1.9-3.3 1.9-1.6.9 1.7 1.2 1.5 2.8-2 1-2.2 1.9-3.3 1.9-2.7.1.7.5 1.3 1 1.3.6 0 .6-1.2.2-2.8-1.1-3.6-.4-5.1 1.9-4.5 1.9.5 1.9.4.5-3.7-2-5.8-1.9-6.3 1.1-4.3 2.6 1.7 2.7 1.7 1.6-.3-.6-1.2-2-4.5-3.2-7.5-2-5.3-1.6-5.2 2.5.6 1.9 2.9-.7-4.9-4.5-12.9-1.5-3.4-3.8-10.3-5-15.2-3.2-13.9-6.9-20.6-16-29.6-7.6-7.4-11.8-10.4-16.3-11.5-5.5-1.3-18.5-1.2-23.4.2"/></svg>