<svg xmlns="http://www.w3.org/2000/svg" width="682.667" height="512" version="1.0" viewBox="0 0 512 384"><path d="M287 39.8c-6.7 2.2-9.4 3.7-14.1 7.3-2 1.6-4.8 2.9-6.2 2.9-3.1 0-5.1 2.3-4.2 4.9.4 1.3-.3 3.4-1.9 5.9-4.2 6.6-5.8 13-6.4 25.1-.4 8.4-.2 11.2.7 10.7.7-.5 1.1.1 1.2 1.6.1 1.7.3 1.8.6.5.2-.9.8-1.7 1.3-1.7s1.1.8 1.4 1.7c.4 1 1.6 2.9 2.7 4.3 1.4 1.6 1.9 1.9 1.5.7-.6-2 1.2-2.3 2-.3.3.8 1.2 1.7 2 2 1 .4 1.3.2.7-.7-.4-.6.5-.4 1.9.5 1.9 1.3 2.8 1.4 3.1.5.2-.6.5.1.5 1.8 0 1.6-.4 4-1 5.2-1.2 2.4.3 5.3 2.8 5.3.7 0 1.9.9 2.7 2 3 4.4 12.9 12.1 14.6 11.4 4.1-1.6 5.1-1.7 4.5 0-.3.9-.1 1.6.5 1.6s1.3-1.1 1.7-2.5c.9-3.5 2.4-3.1 2.4.6 0 2.6-1.8 4.9-11.8 14.7-13.7 13.6-17.7 18.5-16.8 20.8.5 1.4 1 1.2 3.2-1.2 3.3-3.5 2.9-1.7-2.1 8.4-4.9 10.1-6.8 17.5-6 22.9.6 3.9 2.6 12.8 4.1 17.5.8 2.6-.4 2.3-11.8-3.1-5.7-2.7-11.6-5.2-13.3-5.6-1.6-.4-6.1-1.6-9.9-2.8-7.5-2.3-11.2-6.1-10.1-10.3.3-1.3-.2-2.7-1-3.4-1.9-1.6-1.9-7.9 0-10.4.9-1.1 1.2-2.9.9-4.3-.4-1.3-.2-2.3.2-2.2 2 .5 4.3-1.3 3.7-2.8-.4-1.1-.2-1.4.5-.9.7.4 1.2.5 1.2.2 0-1.2-3.4-7.6-4.1-7.6-.4 0-1.4-1.7-2.2-3.8-2.1-5.3-4.2-6.9-6.5-4.9-.9.8-3.5 1.8-5.8 2.2-2.2.3-5.5 1.5-7.2 2.5-5 3.1-6.3 6.9-7.2 21.4-.5 7.2-1.8 17.8-2.9 23.6-2.5 13.4-2.7 15.8-1.7 25.4.8 8.1 2.9 15 3.8 12.5.3-.8 1.1 1.2 1.7 4.4.7 3.1 1.7 5.5 2.2 5.2.5-.4.9-.2.9.3 0 1.3-4.1 15.3-8 27.2-1.7 5.2-3.3 11.8-3.6 14.7l-.4 5.2 6 1.2c3.3.6 6.5 1.8 7.1 2.5.6.8 1.7 1.4 2.3 1.5.6 0 3.7 3.1 6.8 6.9 5.1 5.9 11.9 11 14.8 11 1.8 0 1-4.4-1.5-8.5-1.4-2.2-2.5-4.3-2.5-4.7 0-1.4 7.4-3 11.6-2.5 2.9.3 5 0 6.4-1 1.2-.8 2.6-1.3 3.3-1s2.3-.4 3.6-1.4c1.8-1.5 2.3-2.8 2.1-6.6 0-2.7-.1-6.2-.1-7.8.1-1.7-1-8.9-2.4-16-1.3-7.2-3.1-17.5-4-23-.8-5.5-1.8-10.7-2.1-11.6-.3-1 .5-2.3 2-3.2 2.3-1.6 2.7-1.4 14.6 6.5 6.7 4.5 12.3 8.6 12.5 9.2 2.9 11.3 2.4 18.8-2.3 36.6-1.1 4.1-2.3 8.8-2.6 10.5-.3 1.6-1.4 7.3-2.5 12.5s-2.4 13.8-3 19c-1.1 9.6-6.5 31.2-12.1 47.4-1.6 4.9-2.8 9.1-2.7 9.3.2.2 33.9.2 74.9.1l74.6-.3-4.5-7.5c-6.9-11.5-14.7-28.4-24-52-10.4-26.3-15.6-37-26.7-54.9-5.1-8.2-8.6-14.9-8.6-16.4 0-1.4-.9-5-1.9-7.9-3.9-10.6-4.7-32-1.4-37.1.5-.7.9-2.6 1-4.2.2-5.6 2.6-13 4.9-15.8 1.3-1.6 2.4-3.7 2.4-4.8 0-1 .5-1.9 1-1.9.6 0 1 1.1 1 2.4 0 1.4.5 2.8 1 3.1.6.3 1-.1 1-1s1.3-2.1 3-2.6c3.5-1.3 3.4-1.5-1.2-18.3-3.3-12-5.8-18.4-8.8-22.6-2.6-3.7-2.5-4.2.5-2.8 1.5.7 2.5 2 2.5 3.2 0 1.7.2 1.8 1 .6.5-.8 1-2.6 1.1-4l.1-2.5.7 2.5c.6 2.2.8 2 1.5-2 .7-4.4.8-4.4 2-2.1l1.3 2.4 1.4-3.6c1-2.9 1.6-3.4 2.6-2.5 1.1.9 1.3.4.7-3.2-.7-4.1-.6-4.2 1.6-3.5 2 .6 2.2.5 1.6-1.1-.4-1.1-1-3.4-1.3-5.3-.6-3.2-.5-3.3 1.6-2.2 2.6 1.5 2.6 1.5-.5-5.3-2.8-6.1-2.7-9 .1-3.6.9 1.8 1.9 3 2.1 2.7.5-.5-2.7-9-5.6-14.7-1.1-2.1-3.3-9-4.9-15.2s-3.7-13.1-4.6-15.3c-2.1-4.9-15.1-18.4-21.9-22.8-4.7-3-5.6-3.2-15.6-3.4-8-.2-11.8.1-16 1.5"/></svg>