<svg xmlns="http://www.w3.org/2000/svg" width="682.667" height="512" version="1.0" viewBox="0 0 512 384"><path d="M285 40c-3 1.1-8.1 3.8-11.3 6s-6.9 4-8.3 4c-2.3 0-2.6.4-2.9 4.5-.1 1.1-1.8 5.5-3.9 9.8-3.5 7.1-3.9 8.8-4.7 19.4-.5 8.3-.4 12.1.4 13.4 1.5 2.4 2.7 2.4 2.7.1 0-1.1.6-.6 1.6 1.3.8 1.6 2.4 4.1 3.5 5.5l2 2.5-.7-2.5-.6-2.5 2.6 2.4c1.6 1.5 2.6 1.9 2.6 1.1 0-.9.5-.8 1.9.4 1.1 1 2.4 1.6 2.8 1.3 1.5-1 1.3 4.3-.2 6.7-1.7 2.6-.9 3.8 3.3 5 1.2.4 2.2 1.3 2.2 2s3 3.6 6.7 6.6c6.1 4.9 6.9 5.2 9.4 4.3 2.5-1 2.8-.8 3.2 1.1.3 1.9.5 1.7 1.8-1.2 1.7-3.5 2.9-3.3 2.9.6 0 3.2-5.7 10.2-12.4 15.2-4.9 3.7-13.9 13.9-16.4 18.7-1.1 1.9-1 2.1.8 1.8 1.1-.2 2.5-.7 3-1 1.5-.9 1.2.1-1.6 5.7-4.7 9.2-7.4 17.7-7.4 22.8 0 4.4 2.5 15.8 4.6 21.3.9 2.5-.4 2.2-11.2-3.1-5.5-2.7-13.5-5.8-17.9-7-11.8-3.1-15-4.7-16.5-8.1-.7-1.7-1-3.7-.7-4.4s-.4-2.4-1.4-3.8c-2.5-3.2-2.4-6.3.3-9.9 1.7-2.3 1.9-3.3 1-4.2s-.6-1.4 1-2.2c1.2-.6 2.5-2.3 3-3.8.8-2.3.4-3.5-2.1-7.2-1.7-2.5-3.1-5.1-3.1-5.9s-.9-2.2-2-3.2c-1.9-1.7-2.1-1.7-3.8-.2-1 1-2.8 1.7-3.9 1.7-3.2 0-8.6 2.1-11.2 4.4-3.9 3.4-5.2 8.2-5.8 20-.2 6.1-1.4 15.8-2.6 21.6-3.3 16.5-2.2 42 1.8 42 .7 0 1.5 1.7 1.9 3.9.3 2.1 1.2 4.1 2.1 4.4 1.6.7 1.9-.4-6 25.2-2.3 7.7-4.5 15.8-4.8 18.1-.4 3.6-.2 4.2 2.3 5.6 1.5.9 3.9 1.3 5.4 1.1 1.6-.3 3.4.1 4.4.9.9.9 2.2 1.7 2.8 1.9s4 3.7 7.4 7.6c6.2 7.2 10.5 10.3 14.2 10.3 1.2 0 1.8-.7 1.8-2.4 0-1.4-.4-2.7-.9-3s-1.8-2.3-2.9-4.4l-2-3.8 5.4-1.2c3-.7 6.9-1 8.8-.7 2 .4 3.6.2 4-.4s2-1.1 3.5-1.1c1.6 0 3.6-.9 4.7-2.1 2.8-3.1 2.1-14.2-2.6-40.4-2.2-12.1-4.2-23.2-4.4-24.6-.4-2.1 0-2.9 1.9-3.7 2.2-1 3.7-.3 15 7.1 11.4 7.5 12.5 8.5 13 11.7.3 1.9.9 4.8 1.4 6.5.9 3.6-.8 14.6-4.3 28.8-4.7 18.8-6.6 28.6-8.1 40.8-1.5 11.6-6.6 32.4-11.9 47.6l-2.5 7.3h74c44.1 0 73.9-.4 73.9-.9s-2.1-4.4-4.6-8.7c-5.8-9.8-11.5-22.6-22.1-49.4-11.2-28.3-19.1-43.8-31.5-61.8-1.7-2.5-3.3-6.4-3.8-9.6-.5-3-1.7-6.9-2.6-8.8-2.5-4.7-2.7-33.3-.3-35.1 1-.8 1.4-1.9.9-3.1-.8-2.5 2.1-14 4.2-16.3 1-1.1 2.4-3.7 3.2-5.9 1.3-3.5 2.2-2.9 1.7 1.3-.1.6.3 1.4.9 1.8.6.3 1-.3 1-1.5 0-1.6.5-2 1.5-1.6.8.3 1.5.1 1.5-.5s.7-.9 1.5-.5c2.3.8 1.9-2.6-1.9-16.1-3.5-12.5-7.5-22.4-10.3-25.5-2.5-2.7-.8-3.3 2.6-.9l3 2.1.4-2.2c.4-1.9.5-1.8.7.7.2 2.8.3 2.8 1.2-1 .5-2.2.9-4.9.9-6 0-1.8.2-1.7 1.3.4l1.4 2.5 1.6-3.3c.9-1.7 2.1-2.9 2.7-2.6.5.4.8-.7.7-2.7-.3-2.7 0-3.3 1.6-3.1 1.5.1 1.7-.4 1.1-3-2-8.9-2-8.4.2-6.5 2.6 2.3 3.6 2.3 2.4-.1-1.8-3.2-5.1-12.7-3.8-10.7 4.1 6.2 4.6 5.9 2.1-.9-1.4-3.9-2.9-7.5-3.4-8-1.2-1.5-5-13.3-5-15.4 0-3-5.1-17.3-7.3-20.6-3.2-4.6-14.7-15.8-19.7-19.1-4.4-2.9-5-3.1-16.5-3.2-9.8-.2-13 .2-17.5 1.8"/></svg>