<svg xmlns="http://www.w3.org/2000/svg" width="682.667" height="512" version="1.0" viewBox="0 0 512 384"><path d="M289.3 38.4c-6.1 1.5-15.6 6.2-17.9 8.8-1 1-2.9 1.8-4.4 1.8-3.2 0-5.3 2.1-4.9 4.7.2 1-1.5 5.5-3.8 10-3.7 7.3-4.2 9.1-4.8 18-.3 5.4-.7 10.9-.8 12.3-.1 1.5.3 2.4 1.1 2.2.6-.1 1.2.6 1.3 1.5 0 1.1.3 1.3.6.5.2-.6.9-1.2 1.4-1.2s.9.6.9 1.2c0 .7 1.2 2.6 2.6 4.3 1.5 1.7 2.3 2.2 2 1.2-.7-2.3.2-2.1 2.5.5 1 1.3 1.8 1.8 1.9 1.1 0-1.8 6.9 2.9 7 4.8 0 .9-.7 2.2-1.5 2.9-2.4 2-1.7 3.9 2 5.4 1.9.8 3.5 2.1 3.5 2.9s1.2 2.2 2.6 3.2c1.4.9 4.4 3.3 6.6 5.3 4 3.6 4 3.6 6.9 2 2.9-1.7 2.9-1.7 3 1 .1 2.6.2 2.5 1.8-1.1 1.4-2.9 2-3.5 2.5-2.2 1.5 4.1.3 6-11.7 17.8-14.8 14.7-17.8 18.5-17 21.5.5 2.2.6 2.2 2.9-.5 3.2-3.8 3.1-3-1.6 7-2.2 4.7-4.8 11.4-5.7 15-1.7 6.5-1.7 6.5 1.1 17.7 1.5 6.1 2.6 11.3 2.4 11.6-.3.2-5.6-2-11.9-5s-13.6-6-16.4-6.6c-2.7-.6-7.6-2-10.7-3.2-4.5-1.6-5.9-2.6-7-5.2-.7-1.7-1.1-3.9-1-4.8.2-1-.4-2.8-1.2-4-2.2-3-2-6.4.4-9.8 1.3-1.8 1.6-3.1 1-3.5-1.6-1-1.2-2.2 1-2.8 1.1-.3 2.4-1.7 3-3.2.9-2.3.6-3.5-1.7-7.4-1.5-2.5-3.3-5.8-3.9-7.2-1.6-3.6-3.2-4.4-5.2-2.6-.9.8-3.7 1.7-6.1 2.1-5.7.9-9.5 2.9-12.1 6.6-1.8 2.5-2.3 5.2-3.1 16.8-.5 7.5-1.9 18.4-3.1 24.2-3.2 15.8-2.2 40 1.7 40 .7 0 1.6 1.5 2 3.2 1.1 5.7 1.6 6.8 2.8 6.5 1.5-.3 1.8-1.2-4.6 20.3-6.2 20.8-7.5 28-5.2 28 .8 0 1.5.4 1.5 1 0 .5 1.7 1 3.8 1 5.1.1 10.2 3.4 16.1 10.6 4.8 5.8 14 12.2 15.5 10.7 1.2-1.2.6-4.5-1.3-7.1-1-1.5-2.1-3.7-2.5-4.8-.6-1.9-.1-2.3 4.3-3.4 2.8-.6 6.4-.9 8.1-.5 2.3.5 3.7.2 5-1 1.1-1 2.6-1.4 3.8-1.1 1.4.5 2.6-.1 4-1.8 2.7-3.5 2.2-15-1.7-35.2-1.7-8.8-3.5-19.1-4.1-22.9-.6-3.9-1.3-7.8-1.6-8.7-.4-1.2.3-2.1 1.9-2.9 2.2-1 3.7-.2 15.4 7.3l12.9 8.5 1.3 7.9c1.3 8.5.6 14.3-3.9 30.9-2.9 10.5-5.9 26.3-7.6 39.4-1.5 11.8-6.3 31.6-10.9 45-1.4 4.1-2.5 7.8-2.5 8.3 0 .4 33 .8 73.4.8h73.5l-4.6-8.3c-6.5-11.6-10.1-19.7-21.5-48.2-11-27.5-15.1-35.9-26.8-54.5-6-9.6-8.1-13.8-8.9-18.2-.6-3.2-1.8-7.2-2.7-9-2.6-4.9-2.7-31.7-.2-34.5 1-1.1 1.4-2.4.9-3.1-1.1-1.9 2.4-15.1 4.7-17.6 1.1-1.1 2.5-3.7 3-5.6l.9-3.5.8 3.9c.8 3.8.9 3.9 2.4 2 .9-1 2.2-1.9 2.9-2 .6-.1 1.6-.2 2.1-.2 2.2-.4-5-26.8-10.2-37.2-1.7-3.6-3.3-6.8-3.5-7.2-.2-.5.7-.4 1.9.1 1.3.4 2.6 1.9 3 3.2.5 2 .7 1.6 1.4-2.1.6-3.5.9-4 1.5-2.5.5 1.6.8 1.2 1.4-2 .8-3.9.8-3.9 2-1.6l1.3 2.3 1.3-3.1c1.2-3.1 3-4.2 3-1.9 0 .6.3.9.6.5.4-.3.2-1.9-.3-3.4-1.3-3.7-.7-5.2 1.9-4.5 1.8.4 2 .2 1.4-1.4-.4-1-1-3.5-1.3-5.4l-.6-3.5 2.1 1.9c2.9 2.5 2.8 1.1-.4-5.8-2.8-6.1-2.7-9 .1-3.6.9 1.8 1.9 3 2.1 2.7.6-.5-2-7.7-4.6-12.7-2.1-4.2-4.2-10.9-6.5-21-.9-4.1-2.8-9.9-4.2-12.7-2.7-5.8-14.2-18-21.7-23.2-4.3-3-5.3-3.2-14.9-3.6-6.5-.3-12 0-15.4.9"/></svg>