<svg xmlns="http://www.w3.org/2000/svg" width="682.667" height="512" version="1.0" viewBox="0 0 512 384"><path d="M287.5 37.8c-7 2.1-11.1 4.2-15.2 7.6-1.6 1.3-4.5 2.6-6.4 2.8-3.1.3-3.4.6-3.7 3.8-.2 1.9-1.1 4.6-2.1 6-2.8 4-5.8 12-7 18.4-2.3 12.6-.8 24.9 2.6 21.5.7-.7 1.4 0 2.3 2 .7 1.7 1.9 3.6 2.8 4.3 1.3 1.1 1.4 1 .8-1.2l-.7-2.5 2.2 2.5c1.2 1.4 2.6 2.5 3.3 2.5.6.1 2.1.6 3.3 1.3 1.7.9 2.2.9 2.6-.1.2-.6.4.1.5 1.8 0 1.6-.7 4-1.5 5.3-1.1 1.8-1.2 2.6-.2 3.8.6.8 1.6 1.4 2.1 1.4s4.3 3.4 8.6 7.5c7.6 7.4 9.7 8.6 11.9 6.4 1.4-1.4 3.3-.3 3.4 1.9 0 .9.7 0 1.6-2.1 1.1-2.8 1.8-3.5 2.4-2.5 1.2 1.8 1.1 6.8-.1 6.8-.6 0-1.3.7-1.7 1.6-.8 2.1-3.7 5.1-9.7 9.9-7.7 6.2-22.7 24.1-17.5 20.9.8-.4.9.1.4 1.7-.3 1.3-.3 1.9.2 1.4.4-.6 1.6-1.7 2.6-2.5 1.8-1.4 1.8-1.3.4 2-.8 1.9-2.9 6.5-4.6 10.1s-3.7 9.1-4.3 12.1c-1 4.9-.9 6.6 1.5 16.4 1.5 6 2.7 11.4 2.7 12.1 0 .6-3-.3-7.2-2.4-11.6-5.6-17.3-8-20.9-8.8-1.9-.4-6.5-1.6-10.2-2.7-5.5-1.6-7.3-2.7-8.8-5.2-1.1-1.7-1.7-4-1.5-5 .3-1.1-.4-3.2-1.5-4.7-2.5-3.5-2.4-6.3.3-9.9 1.6-2.3 1.9-3.2 1-4.3s-.6-1.7 1.3-2.7c3.7-2 4.3-5.7 1.6-10-1.2-1.9-2.9-5.2-3.8-7.2-1.8-4.3-3.9-5.4-6.2-3.5-.9.8-3.6 1.7-6 2.1-5.7.9-9.5 2.9-12.1 6.6-1.8 2.6-2.4 5.6-3.5 18.8-.8 8.6-2.3 20.2-3.5 25.7-1.8 8.3-2.1 11.9-1.5 21.2.6 11.1 2.4 19.3 4.1 18.3.4-.3 1.2 1.3 1.6 3.5.5 2.2 1.5 4.3 2.3 4.8 2.1 1.1 1.9 2.3-2.1 16-9.2 31.2-9.5 32.8-5.8 35.2 1.3.8 3.9 1.5 5.7 1.5 1.9 0 4 .7 4.7 1.5s1.8 1.5 2.5 1.5 4.1 3.1 7.4 6.9c7.8 8.7 17.1 14 17.1 9.6 0-.9-1.3-3.9-3-6.7l-2.9-5.2 5.5-1.7c4-1.2 6.4-1.5 8.7-.8 2.3.6 3.5.5 4.7-.6.9-.8 2.7-1.5 3.9-1.5s3.1-.9 4.2-1.9c2.1-1.9 2.2-2.7 1.9-15.1-.1-2.2-3-18.5-8.5-47-1.4-6.9-1.4-7.6.2-8.8.9-.6 2.2-1.2 2.7-1.1.6 0 7 3.9 14.1 8.7l13 8.7 1 5c.6 2.7 1.3 5.5 1.7 6 .6 1-2.4 16.9-7.1 37-3.6 15.1-4.9 22.5-6.6 35.1-.9 6.9-3.5 18.9-6 27.9-2.5 8.7-4.5 15.9-4.5 16.1s32.2.4 71.5.4 71.5-.2 71.5-.4-2.7-5.9-5.9-12.7c-3.3-6.8-10.6-23.9-16.1-37.9-11-27.6-15.5-36.8-27.5-55.9-6.1-9.7-8.1-13.7-8.7-17.9-.5-3-1.5-6.6-2.3-8.1-1.9-3.7-3.8-22.4-3-29 .9-6.8 1.4-8.1 3.1-8.1 1.1 0 1.2-.4.3-1.8-1.6-2.5 1.5-14.6 4.8-19 1.3-1.8 2.7-4.9 3-6.9.6-3.4.7-3.5 1.5-1.3.5 1.2.6 3.1.3 4.1-.8 2.5 1.2 3.3 2.4 1 .6-1 2.1-2.1 3.5-2.5l2.4-.6-1.5-6.7c-2.9-12.8-8.3-28.7-11.3-33.6-2.2-3.5-2.6-4.8-1.5-4.3.9.3 2.1.6 2.6.6s1.4 1 1.9 2.2c.9 2.3.9 2.3 1-.2 0-1.9.2-2.2.9-1 .7 1 1.3.1 2.2-3.5 1.1-4.5 1.3-4.7 2.2-2.4.9 2.4 1 2.4 2.6-1.3 1.6-3.5 1.8-3.6 3.5-2 1.6 1.6 1.7 1.6.7-1.1-1.8-4.7-1.4-7 1-6.4 1.8.5 2 .2 1.5-1.6-.4-1.2-1-3.8-1.3-5.7-.6-3.4-.6-3.5 1.4-1.8 3.3 3 3.3 2.1.2-4.8-3.1-6.8-3.4-10.2-.4-4.4.9 1.8 1.9 2.9 2.2 2.7.7-.8-1.5-7.2-4.7-13.7-1.5-3-3.9-10.7-5.4-17-3.5-15.1-6.1-20.5-14.2-29.2-6.2-6.6-15.5-13.7-19.4-14.7-.8-.2-5.8-.5-11-.7-7.1-.3-11 .1-15.5 1.4"/></svg>