<svg xmlns="http://www.w3.org/2000/svg" width="682.667" height="512" version="1.0" viewBox="0 0 512 384"><path d="M293.3 31.5c-7.3 1.6-14.5 4.6-19 8.1-2.3 1.8-3.9 2.3-5.8 1.8-3.4-.8-5.5 1.1-5.5 5.2 0 1.8-.4 3.6-1 3.9-2.7 1.6-9 14.5-10.4 21-2.1 10.1-3.1 22.9-1.8 22.1.6-.3 1.3.4 1.5 1.6l.4 2.3.8-2.3c.7-2 1-1.8 3 2.6 2.5 5.4 4.7 7.7 3.7 4-.5-2.1-.4-2.2 1.1-.9.9.7 1.7 1.9 1.7 2.7 0 .7.8 1.1 1.9.9s3.3.8 5.1 2.3l3 2.7-2.5 3.7-2.5 3.8 4 2.5c2.2 1.4 4 3 4 3.6 0 1.7 12.7 13.9 14.5 13.9.9 0 2.5-.5 3.6-1 1.6-.9 1.9-.7 1.9 1.1 0 2.1.1 2.2 2 .4 1.1-1 2.2-2.6 2.5-3.6 1-3.2 2.5-1.1 2.5 3.4 0 3.1-.5 4.5-2 5.5-1.1.7-2 1.7-2 2.2 0 1.7-4.2 5.9-9.8 9.8-3 2-8.8 7.7-12.8 12.5-7.4 8.9-9.8 13.2-4.7 8.6l2.6-2.4-1.6 2.5c-1.6 2.3-2.5 6.6-.9 4.5.4-.6 1.3-1.1 2-1.3.9-.2 1 .3.4 1.5-3.4 6.4-8.2 17.7-9.2 21.4-1.6 5.8-.7 16.3 2.3 26.7 1.3 4.5 2 8.2 1.5 8.2s-7.5-2.9-15.6-6.4-16.7-6.7-19.2-7.1c-2.5-.3-7.3-1.5-10.8-2.7-5.6-1.8-6.5-2.4-8.2-6.1-1.4-2.7-1.7-4.4-1-5.2s.4-2-.9-3.7c-3.4-4.3-3.6-7.4-.8-11.7 2.3-3.4 2.4-4 1-5.4-1.4-1.3-1.2-1.6 1.5-2.1 2.5-.6 3.1-1.3 3.6-4.4s.1-4.4-2.4-8c-1.7-2.3-3-4.9-3-5.8 0-.8-1.2-2.7-2.6-4.1l-2.7-2.7-1.8 2.3c-1 1.2-2.3 2-2.9 1.6-.6-.3-3.6.1-6.7 1-10.9 3.2-13.4 8.4-14.7 30-.3 4.9-1.5 13.3-2.6 18.5-3.9 17.6-4.2 20.4-3.6 31 .5 10.8 2 16.9 4.2 18.3.7.4 1.5 2.2 1.9 4 1.2 5.8 1.6 6.8 3.2 6.5 4-.7 3.7 2.6-2.4 26.3-3.3 12.9-6.1 24.7-6.1 26.2 0 4.3 3 6.7 8.2 6.7 2.8 0 4.6.5 4.9 1.4.3.8 1.9 1.7 3.5 2.1 2 .4 4.5 2.5 7.3 6.1 4.6 5.7 14.2 12.7 16.8 12.2s2.4-3.7-.2-7.6c-1.4-2-2.7-4.3-2.9-5-.5-2 9.9-5.3 14.8-4.6 3 .4 4.4.2 5.3-1 .8-.9 2.5-1.6 3.9-1.6 4 0 7.2-4.3 7.3-9.8.1-7.7-.9-16.5-2.6-23.1-2-8-9.5-43.7-9.5-45.6 0-3.3 4.6-2.7 11.1 1.5 23.2 15.1 24.8 16.4 25.4 20 .4 1.9 1 4.4 1.4 5.5 1 2.4-.9 13.9-4.7 29.8-6.4 26.3-8.7 38.4-9.8 50.7-.3 3-1.2 8.3-2 11.8s-1.4 6.5-1.4 6.8c0 .2 30.4.4 67.6.4 53.7 0 67.5-.3 67.1-1.3-.3-.6-4.4-11.1-9.2-23.2-11.4-28.8-18.2-43-29.2-60.6-10.8-17.3-11.3-18.2-11.3-20.9 0-1.2-1.1-5.4-2.4-9.3-3.4-10.1-5.2-27.9-3.5-35.2.7-3.1 1.6-5.8 2.1-6.1.4-.3.8-2 .8-3.7 0-6.1 3-16.1 5.6-18.8 2.3-2.4 3.1-5 3.3-10.2.2-3.5 3.1.9 3.1 4.6 0 4.9 1.1 5.3 3.7 1 1.3-2.1 2.3-3.2 2.3-2.6 0 .7.5 1.3 1.1 1.3 1.8 0 .3-8.5-4.3-23.8-4.1-13.8-6.7-20.2-9.6-23.5-1.9-2.2-1.2-3 2.1-2.2 1.6.4 3 1.8 3.6 3.3.9 2.7.9 2.7 1.1-.8.1-1.9.6-4.9 1.1-6.5.6-2.2.7-1.4.4 3l-.4 6 1.4-4c.7-2.2 1.4-4.9 1.5-6 .1-1.8.2-1.8 1.4.5l1.4 2.5 1.8-3.8c1.6-3.4 2-3.6 3-2.2s1.2.8 1.1-3.2c-.2-4.2 0-4.8 1.7-4.5 1.5.3 1.8-.1 1.2-2-.3-1.3-.9-4.1-1.3-6.2l-.6-4 2.3 2.2c3.1 2.9 3.5 2.2 1.5-2.4-2.4-5.6-4.5-11.4-4.1-11.4.2 0 1.6 2 3 4.5 1.5 2.5 2.9 4.5 3.1 4.5.4 0-2.1-7.2-7.1-20.3-.8-2-2.1-8.1-2.9-13.5-1.7-10.8-4.5-21.4-6.6-25.4-2.4-4.6-16.1-19.8-20.3-22.7-4.4-3-6.7-4-10.6-4.7-1.4-.3-4.3-.9-6.5-1.4-5.4-1.3-10.8-1.1-18.2.5M272 107.1c0 .6-.4.7-1 .4-.5-.3-1-1.1-1-1.6 0-.6.5-.7 1-.4.6.3 1 1.1 1 1.6m76.6 93.5c-.4.9-.9 1.5-1.1 1.2-.3-.3-.3-1.3.1-2.2s.9-1.5 1.1-1.2c.3.3.3 1.3-.1 2.2m-160.4 72.1c-.9 2.8-.9 2.7-.9-1 .1-2.2.5-3.3 1-2.8.6.6.5 2-.1 3.8"/></svg>