<svg xmlns="http://www.w3.org/2000/svg" width="682.667" height="512" version="1.0" viewBox="0 0 512 384"><path d="M302.5 27.1c-6.8.8-14.5 3.2-19.3 6-2.2 1.2-4.2 1.6-6.2 1.2-3.7-.7-7.2 2-6.8 5.3.2 1.4-1.4 4.1-4.5 7.7-2.6 3-5.8 7.8-7.2 10.6-4.1 8-9.2 30.3-6.6 28.7.7-.5 1.1.1 1.1 1.6.1 2.2.1 2.2 1.5.4.8-1.1 1.5-1.4 1.5-.7 0 1.9 4.1 11.1 5 11.1.5 0 .6-1 .3-2.3-.4-2.1-.4-2.2 1.1-.3.9 1.1 1.6 2.5 1.6 3.2s.8 1.1 1.8.9c1.6-.3 7.2 3.6 7.2 5.1 0 .4-1.2 2.3-2.7 4.2l-2.7 3.5 3.7 3.1c2 1.7 3.7 3.8 3.7 4.6s1.4 2.8 3.1 4.4 4.2 4.7 5.5 6.8c2.9 4.6 4.7 5.5 8 4 2.1-1 2.4-.9 2.4 1.1 0 2.2.1 2.2 2-.3 1.4-1.7 2-2 2.1-1 0 .8.7 0 1.5-1.8 2.1-4.7 3-4 3.2 2.5.1 4.4-.3 6.1-1.9 7.7-1.1 1.2-3.4 3.8-5.1 6-1.8 2.1-5.6 5.6-8.5 7.7-7.5 5.6-25 25.9-19.2 22.3.8-.4.9.4.5 2.7-.7 3.2-.6 3.3.8 1.5 3.2-4 2.8-.4-.7 7.1-2 4.3-4.3 9.8-5.2 12.2-2.3 6.6-1.9 18.3 1 29.5 1.4 5.3 2.5 9.8 2.5 10.1 0 .5-14.6-5.6-20-8.4-4.8-2.5-15.6-5.8-21.1-6.6-2.5-.3-6.7-1.4-9.2-2.3-3.8-1.5-5.1-2.6-7-6.5-2-3.8-2.1-4.7-.9-5.2 1.1-.4.9-1.2-1.2-3.9-3.3-4.4-3.3-8 0-12.4 2.4-3.1 2.5-3.6 1-4.4-2.3-1.3-2-2.5.9-3.2 1.4-.4 2.9-1.4 3.2-2.4.4-.9 1.1-2 1.6-2.3.6-.4-.1-2.5-1.6-5-1.5-2.4-3.3-6-4.2-7.9s-1.9-4.2-2.4-5c-1.1-2.1-5-2.5-5.7-.6-.4 1-1.8 1.6-3.6 1.6-9.8 0-17.7 5.5-19.8 13.7-.6 2.7-1.6 10.5-2 17.4-.5 6.9-1.8 16.2-2.9 20.5-3.7 14.4-4.8 24.2-3.9 33.4 1.2 11.8 2.7 18.8 4.2 19.7.6.5 1.7 2.7 2.4 4.9 1.7 5.7 7 7.1 6.6 1.7-.2-3.1 1.3-5.3 2.1-3.1.4 1-2.3 13.6-6.1 28-3.7 14.5-6.8 28.5-6.9 31.3-.3 6.7 2.1 9.5 8.1 9.5 2.3 0 4.7.6 5.3 1.4.7.8 2.4 1.7 3.9 2.1 1.5.3 5.7 3.6 9.3 7.3 7.8 8 12 11.2 14.7 11.2 3.2 0 3.2-3.4-.1-8.4-1.7-2.7-2.6-5-2.1-5.5 2.5-2.2 10.9-4.3 14.9-3.8 3.6.5 4.6.3 6.5-1.8 1.4-1.5 3.1-2.3 4-2 1 .3 2.7-.6 4.3-2.3 4.6-4.8 4-15.1-2.7-43.2-4-17.4-7.6-34.2-7.6-36.2 0-.4.9-1.2 2-1.8 1.6-.9 4.4.6 18.2 9.6 9 5.9 16.6 11.1 17 11.8.4.6 1 3 1.4 5.4.3 2.3 1 4.4 1.4 4.7.9.6-2.2 17.9-5.5 30.9-1.5 5.5-3 11.8-3.4 14-.5 2.3-1.6 7.5-2.4 11.6-2 10-2.9 15-3.2 18-.1 1.4-.5 5.3-.9 8.7l-.8 6.3h66.7c53 0 66.6-.3 66.2-1.2-6.7-17.5-18-44.4-21.3-51-2.4-4.8-9-16-14.6-25-8.2-13.1-10.4-17.5-11.4-22.3-.6-3.3-1.8-7.7-2.7-9.8-2.5-5.9-4.3-27.9-2.8-35 .7-3.1 1.6-5.7 2.1-5.7.4 0 .8-1.7.7-3.8-.1-6 2.9-17.3 5.1-18.8 2-1.3 3.6-4.7 4.6-9.7.4-1.5 1.3-2.7 2-2.7.9 0 1.2.7.9 2-.6 2.4.4 7 1.6 7 .5 0 1.2-1.2 1.5-2.6.5-1.7 1.2-2.4 2.1-2 .9.3 1.5-.1 1.5-1 0-.8.5-1.2 1-.9 1.2.7 1.1.5-1.9-12.6-2.9-12.2-7.8-26.7-10.7-31.6-2.7-4.6-2.1-5.9 1.9-4 2 .9 2.7 2.1 2.9 4.7.3 3.2.4 3.1 1.5-2 1.1-5.5 1.1-5.5 1.3-1.5l.2 4 1.6-6 1.5-6 1.3 3 1.3 3 1.8-4.2c2.1-4.9 2.6-5.1 4.2-2.1 1.1 2.3 1.1 2.3.5-.2-1.4-5.6-1-7.5 1.4-7.3 2.5.3 2.6.1 1.3-4.5-1.3-4.2-.5-6.7 1.5-5.1 2.5 2 2.4.5-.2-7-2.8-8-2.7-10.4.1-4.1 1 2.2 2.1 4 2.5 4 .8 0-2-10.5-4.4-16.5-.9-2.3-2.2-11.1-3.1-20.3-1.1-12.2-2-17.7-3.8-22.1-4.4-10.8-18.3-27.8-26.2-31.8-2.1-1.1-14.7-3.9-20.5-4.6-1.9-.2-6.2 0-9.5.4"/></svg>