<svg xmlns="http://www.w3.org/2000/svg" width="682.667" height="512" version="1.0" viewBox="0 0 512 384"><path d="M305 24.6c-4 .8-12.4 3.6-13.6 4.6-.7.5-2.2.4-3.8-.2-3.9-1.5-7.3.2-8.1 4.2-.5 2.1-2.9 5.3-7.1 9.4-7.1 6.8-11.5 14.9-15.8 29.2-1.9 6.5-2.2 8.3-1 7.8 1-.4 1.4.2 1.5 2.2 0 1.5.3 2.1.6 1.4.9-2.3 1.9-1.2 3.2 3.8 1.4 5.4 3.1 7.5 3.1 3.8.1-2 .3-1.8 1.8 1.2.9 1.9 2.3 3.5 2.9 3.5 1.3 0 6.3 4.9 6.3 6.2 0 .4-1.5 2.2-3.2 4l-3.3 3.4 3.8 3.4c2 1.9 3.7 4.1 3.7 5 0 .8 1.5 3.7 3.4 6.3 1.8 2.7 4.1 6.3 5 8 1.4 2.7 2.2 3.2 5.1 3.2 2.7 0 3.5.4 3.5 1.7 0 1.5.4 1.3 2.1-.7 1.5-1.8 2.2-2.1 2.6-1.1.4.9 1.2.5 3-1.5l2.4-2.9-.6 4.7c-.4 2.8-.2 4.9.5 5.3 1.8 1.1 1.1 3.1-1.5 4.3-1.4.6-2.5 2-2.5 3 0 2-6.2 8.2-13 13.1-4.4 3.1-20 20.6-20 22.4 0 .5.7.4 1.5-.3 1.8-1.5 1.8-1.5.5 3-.8 3-.7 3.3.4 1.7 1.2-1.6 3.6-2.4 3.6-1.2 0 .3-1.8 4.1-3.9 8.3-6 12-7.5 18.1-6.7 28.2.3 4.7 1.5 11.6 2.6 15.5 1.1 3.8 2 7.5 2 8.2s-2.7.1-7.2-1.9c-21.3-8.9-26.3-10.9-30.1-11.4-2.3-.3-7.5-1.5-11.5-2.6-7-2-7.3-2.3-9.5-6.8-1.7-3.4-2-5.2-1.3-6.3.8-1.2.5-2.2-1.2-4-2.9-3.1-2.9-8.9 0-12.9 2-2.8 2-3.2.5-4.3-2.3-1.7-2.1-2.2 1.2-2.8 2.2-.5 3.2-1.4 4.1-4.1 1.2-3.8.7-5.4-3.7-11.2-1.2-1.7-2.3-3.7-2.3-4.5 0-4.3-6.3-7.9-7.6-4.4-.4.9-1.9 1.5-3.6 1.5-5.5 0-11.9 2.3-15.2 5.4-4.3 4-6.3 11-7.1 25.1-.4 6.1-1.9 16.5-3.5 23.5-3.4 14.6-5.3 25.8-4.6 26.9.3.5.8 5 1.2 10.2.5 8.5 1.5 12.4 4.3 16.9.5.8 1.5 3.4 2.2 5.7.6 2.3 1.6 4 2.1 3.7s1.5 0 2.3.6c.8.7 1.6.9 1.6.4.3-1.6.6-3.9.8-5.7.1-2.3 1.7-2.2 2.3.1.3 1-2.7 15-6.7 31.1-4 16-6.8 29.4-6.4 29.7.5.3.6 1.6.3 2.9-.9 3.6 2.6 6.5 8 6.5 2.9 0 4.6.5 4.9 1.4.3.8 2.1 1.8 4 2.1 2.5.5 5.9 3 12.5 9.5 9.6 9.3 12.3 11 14.7 9 2.1-1.8 1.9-2.9-1.5-8-1.6-2.5-3-4.8-3-5.1 0-.4 2.5-1.7 5.5-2.9 4.3-1.7 6.6-2.1 10.3-1.6 4 .5 4.9.3 5.9-1.3.7-1.1 2.8-2.3 4.7-2.6 9.6-1.8 10.1-13.1 2.1-46-4.2-17.5-8.8-38.6-8.3-38.9.2-.1 1.1-.8 2-1.5 1.5-1.1 4 .2 19.2 10.3 17.2 11.5 17.4 11.7 18.1 15.9.4 2.3 1.1 5 1.7 6 .8 1.6-1.9 19.3-4.2 27.2-1.9 6.6-4.1 15.2-4.9 19.5l-2.9 14.5c-1.1 5.5-2.4 12.8-2.8 16.3l-.7 6.2h133.1l-7-17.3c-7.3-18.1-17.4-38.5-24.9-50.2-12-18.6-12.8-20.2-13.7-25.5-.6-3.1-2-8-3.2-11-3.8-9.6-4.1-42-.4-42 1 0 1.3-.7.8-2.5-.3-1.3.2-6 1.1-10.2 1.4-6.1 2.5-8.6 5.2-11.6 2.1-2.4 3.3-4.7 3.1-6-.3-2.8.9-4.7 2.9-4.7 1.2 0 1.4.7.9 3.2-.3 1.8-.1 4 .4 4.8.8 1.3 1.1 1.2 2.4-.5.9-1.1 1.6-2.8 1.6-3.8 0-2.1 2-2.3 2-.1 0 .8.5 1.2 1 .9.6-.4.7-2.4.4-4.8-1.6-11-9.1-36.7-12.4-42.3-1.2-2.2-1.5-3.6-.8-4.8.9-1.6 1.2-1.6 2.6-.2 1 .8 2.2 1.5 2.7 1.5.6 0 1.3 1.5 1.6 3.3.5 3.1.6 3 1.4-2 .9-6 2.2-7.1 1.8-1.5-.2 3.7-.2 3.6 1.3-1.2 1.5-4.6 1.7-4.8 3.1-3 1.5 2.1 1.7 2 4.5-2.9 1-1.9 1.1-1.9 2.4-.1 1.2 1.6 1.3 1.1.7-3.6-.5-4.5-.3-5.2.8-4.2 2.4 2.3 4 1.6 2.9-1.3-1.2-3.2-1.3-8.4-.1-8.4.5 0 1.4.7 2.1 1.5 2.2 2.6 2.1 1.1-.4-6.3-1.4-4-2.1-7.2-1.6-7.2s1.4 1.6 2 3.5 1.6 3.8 2.2 4.1c1.3.8.4-3.5-2.7-13.1-1.8-5.7-2.3-10.4-2.9-25-.3-9.9-1.3-20.3-2-23.2-2-7.6-11.2-23-17.6-29.4-4.6-4.7-6.9-6.1-14.5-8.8-7.4-2.7-10.7-3.4-18.5-3.6-5.2-.2-10.6-.1-12 .1m49 183.8c0 .3-.4.8-1 1.1-.5.3-1 .1-1-.4 0-.6.5-1.1 1-1.1.6 0 1 .2 1 .4m-168.8 57.8c-.7.7-1.3 2.1-1.3 3.2-.1 1.7-.2 1.7-.6.4-.5-1.9 1.5-6.3 2.5-5.4.3.4 0 1.2-.6 1.8"/></svg>