<svg xmlns="http://www.w3.org/2000/svg" width="682.667" height="512" version="1.0" viewBox="0 0 512 384"><path d="M298.6 22.4c-1.5 1.4-2.6 3.1-2.6 3.8s-3.2 3.3-7.1 5.8c-8.2 5.1-14.5 12.8-21.4 26.2-4.9 9.5-5.2 10.3-3 9.4 1.8-.6 1.9.3.4 4-1 2.7-.9 2.7.9 1.1 1.9-1.7 1.9-1.6 2.6 4.5.7 6.8 2.5 10.2 2.7 5.2.2-2.7.2-2.7.6-.4.5 2.8 8.1 10.2 9.6 9.3 2.2-1.4-1.9 4.5-5.2 7.4l-3.6 3.1 3.3 3.5c2.6 2.7 3.2 4 2.7 5.9-.4 1.6-.1 3.1.9 4.1.9.8 1.6 2 1.6 2.5 0 .6.7 2.3 1.5 3.9.8 1.5 2.1 4.5 2.9 6.5 1.2 3 2 3.8 4 3.8 1.7 0 2.6.6 2.6 1.6 0 1.3.5 1.2 2.6-.5 3.5-2.8 4.2-2.6 3.7.6l-.4 2.8 3.1-3.5c2.1-2.3 3-2.8 2.5-1.5-.3 1.1-.9 3.3-1.2 5-.6 2.7-.5 2.9 1 1.6 1.5-1.2 1.7-1 1.7 2.4 0 2.8-.6 4.2-2.5 5.7-1.4 1.1-2.5 2.6-2.5 3.5 0 1.8-6.5 8.2-12.6 12.4-2.4 1.6-8 7.1-12.4 12.1-8.5 9.6-10.8 12.8-9.1 12.8.5 0 1.2-.6 1.4-1.3.3-.7.6-.4.6.6.1 1-.4 2.7-.9 3.8-.7 1.3-.7 1.9 0 1.9.5 0 1-.5 1-1 0-.6.7-1 1.5-1s1.5-.5 1.5-1.2c0-.6.3-.9.6-.6s-1.3 4.2-3.5 8.6c-7 14-8.4 19.3-7.8 30.7.3 6.4 1.4 12.9 2.9 18.2 1.4 4.6 2.3 8.5 2.1 8.7s-3-.6-6.1-1.9-10.9-4.4-17.2-7c-6.5-2.7-14.3-5.1-18.1-5.6-3.7-.6-9.1-1.8-12-2.8-4.9-1.7-5.6-2.4-8-7.3-1.5-2.9-2.3-5.4-1.8-5.6 1.5-.6 1-3.3-1.1-5.9-2.8-3.5-2.5-7.9.6-12.1 2.4-3.1 2.5-3.6 1-4.4-1.7-1-2.2-3.8-.6-3.8.6 0 1 .5 1 1.2 0 1.6 3.8-2 5.4-5.2 1.5-3 .6-5.5-4.1-11.6-1.2-1.7-2.3-4.1-2.3-5.2 0-2.5-3.3-6.2-5.5-6.2-.8 0-1.9.9-2.5 2-.8 1.4-2.1 2-4.8 2-5.7 0-10.9 1.8-14.7 5.1-4.7 4.1-7.1 12.3-8 26.9q-.75 11.55-4.2 25.5c-1.9 7.7-3.7 17.8-4 22.5-.7 11.8 1.1 26.3 3.8 30.9 1.2 2 2.7 5.4 3.3 7.6.9 2.9 1.7 3.9 2.9 3.7.9-.2 1.7.2 1.7.8 0 .5.5 1 1 1 .6 0 1-2.5 1-5.6v-5.7l2.1 2.7 2.1 2.7-3.2 13.7c-1.7 7.5-4.9 20.8-7.1 29.4-4.6 18.4-5 25.7-1.7 29 1.6 1.6 3.2 2.1 5.8 1.9 2.6-.1 4.1.4 5.4 1.8 1.2 1.3 3.1 2.1 5 2.1 2.4 0 4.2 1.2 9.1 6.5l6 6.5h12.6l-2-2.9c-2.3-3.2-2.8-6.3-.8-6 .6.1 3-.6 5.2-1.6 2.9-1.3 5.3-1.6 9.1-1.1 4.7.5 5.3.4 6.8-1.9 1-1.5 2.6-2.5 4.1-2.5s3.9-1.4 6-3.6l3.6-3.5-.6-8.2c-.3-4.5-.6-9.1-.6-10.2s-2.3-11-5-22c-2.8-11-5.9-24.1-6.9-29-1.1-5-2.2-9.9-2.5-11.1-.5-1.5 0-2.3 1.9-3.2 2.3-1 3.2-.7 8.3 2.6 3.2 2.1 11.3 7.3 18.1 11.7 9.1 6 12.4 8.6 12.7 10.5.3 1.4 1 3.9 1.6 5.7 1.2 3.8-.5 14.8-5.5 35.8-4.9 20.4-7.4 31.6-8.2 36.3l-.7 4.2h132.4l-.7-2.3c-.3-1.2-3.3-8.4-6.6-16.1-6.2-14.6-12.1-25.3-26-47.8-6.8-11-8.7-14.8-9.2-19-.4-2.9-1.6-7.3-2.7-9.7-3.4-7.8-5.1-32.4-2.8-41.5.9-3.7 1.4-4.3 3.1-3.8 1.9.5 1.9.4.5-2.5-1.4-2.7-1.4-3.5-.1-7.8.7-2.7 1.4-5.9 1.4-7.2 0-1.4 1.7-4.2 4.1-6.8s4.2-5.6 4.4-7.2c.5-7.2 3.5-7.9 3.5-.8 0 5.6 1.3 6.4 2.9 1.9.7-2 1.5-3.3 1.8-3 .9.9 3.3-2.2 3.3-4.2 0-2.6-4.3-19.4-8.1-31.3-2.9-9.3-3-9.7-1.5-13.4 1.3-3 1.9-3.6 2.8-2.7.7.7 2 1.2 3 1.2q1.8 0 1.8 2.4c0 1.4.5 2.8 1 3.1.6.3 1-.3 1-1.4 0-2.5 1.7-2.8 2.3-.4.2 1.1.7.1 1.2-2.2 1.1-5.5 1.6-6.1 3-3.5l1.2 2.3 1.9-3.2c1.8-3.1 3.4-4.1 3.4-2.1 0 .5.4 1 .9 1 .6 0 .6-1.2-.1-3.1-1.3-3.8.2-6 2.7-3.9 1.8 1.5 1.9.3.4-3.6-.5-1.6-.7-3.9-.4-5.2l.6-2.5 2.6 2.4c2.4 2.2 2.5 2.2 1.8.4-2.8-7.4-4.5-12.8-4.1-13.2.2-.3 1.3 1.6 2.5 4.1 1.1 2.5 2.2 4.6 2.4 4.6.7 0-2.2-12.9-4-18.1-1.6-4.5-1.6-5.5 0-16.6.9-6.5 1.7-16.4 1.7-22.1 0-9.3-.3-11.1-3.5-19.5-5.3-13.9-8.5-19.5-14.2-24.6-11.4-10.2-28.1-15.9-42.8-14.6-11.1 1-14.6 1-17.7.1-2.2-.6-3.2-.3-5.2 1.8M181 273.4c0 .2-.7.9-1.5 1.6-1.3 1.1-1.4 1-.9-.4s2.4-2.3 2.4-1.2m-4.3 13.8c-.3.7-.5.2-.5-1.2s.2-1.9.5-1.3c.2.7.2 1.9 0 2.5"/></svg>