<svg xmlns="http://www.w3.org/2000/svg" width="682.667" height="512" version="1.0" viewBox="0 0 512 384"><path d="M310.9 17c-.9.5-1.9 2-2.3 3.2-.4 1.6-3 3.6-9 6.6-9.7 4.9-14.5 9.7-23.6 23.2-7.9 11.9-7.6 11.3-5 10.5 2.4-.8 2.5-.1.4 5-.8 1.9-.7 1.9 1 .2.9-.9 1.9-1.7 2-1.7.2 0 .1 1.9-.1 4.2-.3 2.4 0 5.9.5 7.8.7 2.4 1 2.8 1.1 1.3.2-3.5 2.1-3.8 2.1-.3 0 2.3.5 3.3 1.9 3.7 1.1.3 2.2 1.6 2.5 2.9.4 1.3 1.1 2.4 1.7 2.4s.7.4.4 1c-.3.5-.1 1 .5 1 2.1 0-.9 3.7-4.5 5.4-4 1.9-4.5 4.4-1.5 7.1 1.4 1.3 2 3.1 2 6 0 2.2.4 4.5.8 5 .5.6 1.7 3.7 2.6 7 2.4 8.4 3.8 10.9 6.4 11.3 1.2.2 2 .8 1.7 1.3-.4.5-.2.9.4.9.5 0 1.2-.4 1.5-.9.8-1.2 5.6-2 5.6-.9 0 .5-.5 1.8-1 2.9-.7 1.3-.7 1.9 0 1.9.5 0 1-.4 1-1 0-.5 1-1.4 2.2-2.1 1.9-1 2-.9 1.3.7-.4 1.1-1 2.8-1.3 3.9-.5 1.9-.4 1.9 1.5.2 1.1-.9 2.1-1.7 2.4-1.7.2 0 .2 2.2.1 4.9-.3 4-.9 5.3-2.8 6.6-1.4.9-2.4 2.4-2.2 3.3.3 1.9-9.3 11.2-15.4 15-5.2 3.2-20.7 21.7-20.7 24.7 0 .5.4.2 1-.8 1.8-3.1 2.8-1.8 1.3 1.8-.8 2.1-1 3.5-.4 3.5.5 0 1-.4 1-1 0-.5.9-1.4 2-2 2-1.1 2-1 .6 2.2-.7 1.8-3.2 7.2-5.5 11.9-7.2 15.1-7.7 24.5-2.5 43.8 1.5 5.6 2.5 10.4 2.2 10.7-.3.2-1.6 0-2.9-.5-6.7-2.9-27-10.5-30.9-11.7-2.5-.7-7.6-1.8-11.5-2.5-11.6-2-15.1-4-17.8-10.1-2-4.6-2.2-5.4-.9-6.4 1.3-.9 1.1-1.6-1.2-5-1.4-2.1-2.6-4.8-2.6-6.1 0-2.3 3-8.3 4.3-8.3s.8-2.7-.8-4c-1.5-1.3-1.1-3.5.5-2.5 1.1.7 5.9-1.6 5.9-2.8.1-.4.1-.8.2-1 1.1-3.6.6-5.7-2.5-10.2-1.8-2.7-3.7-6.4-4.1-8-1.3-5.9-5.4-8.2-7.7-4.5-.9 1.5-2.4 2-5.3 2-10.2 0-18 5.3-20.9 14.2-1 2.9-2.4 11.6-3.1 19.3-.7 8.3-2.5 18.9-4.3 26-4.9 19.2-5.4 23.5-4.3 37 .8 10.7 2.2 16.9 4.1 18.5.4.3 1.5 3 2.6 6s2.6 5.4 3.2 5.2c.7-.1 1.5.5 1.8 1.3 1.1 2.9 2.4.4 2.4-4.7 0-4.5.2-4.9 1.6-3.7 2.2 1.8 1.7 4.9-6.1 37.8-7.3 30.8-7.9 36.5-4 40.7 2.1 2.2 3 2.5 5.9 2 3-.6 3.9-.3 5.8 1.9 1.6 1.8 3.2 2.5 5.8 2.5 2 0 4.1.5 4.7 1.1.7.7 5.8.8 14.9.5 7.6-.4 16.5-.6 19.8-.6 5-.1 6.2-.4 7.8-2.5 1.1-1.5 3-2.5 4.4-2.5 1.6 0 3.8-1.4 6-3.8l3.5-3.7-.6-7.5c-.3-4.1-.5-8.6-.6-10 0-1.4-3.6-17.1-8-34.8-4.4-17.8-7.9-32.5-7.7-32.7 3.3-2.7 4.5-2.3 17.4 5.3 24.7 14.8 25.3 15.3 26 19.2.3 1.9.9 4.2 1.3 5 .9 1.6-1.8 19.3-4.3 28.5-.7 2.7-2.3 9.5-3.6 15-1.2 5.5-2.6 11.3-3 13-.5 1.6-1.2 5.1-1.5 7.8l-.7 4.7h65.6c36.1 0 65.6-.4 65.6-.8 0-1.6-10.2-23.8-14.7-32.2-2.6-4.7-9.1-15.6-14.6-24.4-8.3-13.1-10.2-16.8-10.9-21.5-.5-3.1-2.1-8.5-3.5-12.1-2.4-6.1-2.6-7.6-2.7-23.5-.1-19.6.4-22.9 3.6-21.9 1.8.5 2 .3 1.3-1.2-1.6-4-1.6-6.4 0-13.8 1.2-5.3 2.3-8 3.6-8.7 2.4-1.2 7.2-8.6 6.4-9.9-.3-.4 0-2.1.6-3.7 1.1-2.7 1.1-2.7 1.9-.6.5 1.2.7 3.3.4 4.8s.2 3.5 1.2 4.8c.9 1.2 1.4 1.5 1.2.7-.6-1.9.5-5.2 1.6-5 .5.1 1.3-.4 1.7-1.2.7-1 .9-1 .9 0 0 .7.5 1 1 .7 1.7-1 1.1-5.4-2.5-19.5-5.8-22.5-6-23.1-4.9-23.8.6-.4 1.8-2.8 2.8-5.5 1.9-5 2.5-5.4 4.4-3.5.7.7 1.8 1.3 2.5 1.3s1.5 2 1.8 4.5c.5 3.5.6 3.8.7 1.4.2-3.5 2.8-5.4 3.5-2.6.2.9.7-.2 1.1-2.6.8-4.2.9-4.3 2.7-2.6 1.8 1.6 1.9 1.6 1.9-.5 0-1.2.4-1.9 1-1.6s1.3-.1 1.6-.9c.5-1.3.9-1.2 2.5.7 1.9 2.2 1.9 2.2.4-1.6-1.8-4.3-1.4-5.7 1.5-5 2.3.6 2.4.3.9-3.1-.6-1.3-.9-3.7-.5-5.1.7-2.6.8-2.7 2.6-1 2.5 2.3 2.5 1.8 0-3.6-2.8-6.2-2.4-8.3.5-2.9l2.5 4.5-.6-4c-.4-2.2-1.5-6.6-2.5-9.7-2.4-7.4-2.4-15.3.1-25.3 2.9-11.5 3.7-28.7 1.7-35.6-.9-3-2.5-8.6-3.6-12.5-2.8-9.6-8.4-17.8-16.3-23.5-13.1-9.6-19.7-11.9-36.8-13-7.4-.4-15.1-1-17-1.4-1.9-.3-4.2-.1-5.1.5M354 165.9c0 1.1-.4.9-1.4-.4-.8-1.1-1.2-2.4-.9-2.8.7-1.1 2.3 1.2 2.3 3.2"/></svg>