<svg xmlns="http://www.w3.org/2000/svg" width="682.667" height="512" version="1.0" viewBox="0 0 512 384"><path d="M317.2 14.7c-.7.3-1.9 1.7-2.6 3.2-1 1.8-3.5 3.5-8.6 5.6-8.3 3.5-14.1 8-20.8 16.2-6 7.2-13.3 17.6-12.8 18.1.3.2 1.4-.1 2.5-.8 2.6-1.4 2.6-.6 0 3.6-2.2 3.6-1.7 4.4 1.1 1.9 1.4-1.3 1.5-.8 1.2 5.7-.3 5-.1 6.9.7 6.4.6-.4 1.1-1.4 1.1-2.2s.5-1.2 1-.9c.6.4.8 1.5.5 2.6-.5 1.3.5 3.2 2.9 6.1 4.9 5.6 4.8 8.5-.4 10.6-4.6 2-5.2 4.4-1.9 8.6 1.5 1.9 1.9 3.4 1.4 5.5-.3 1.6-.2 3.8.3 4.8 1.4 2.6 4.2 12.2 4.2 14.4 0 1.1 1.3 2.7 3 3.8 1.6 1 2.7 2.1 2.3 2.4-1 1 1.2.8 2.3-.2.5-.4 2.2-1.1 3.8-1.5 2.3-.6 2.7-.4 2.2.8-.3.9-.9 2.3-1.2 3.1-.5 1.1-.2 1.3 1 .9.9-.3 1.6-1 1.6-1.4s.7-1 1.5-1.4c1.3-.5 1.3-.2-.1 2.5-2 3.9-1.4 4.5 1.8 2l2.5-2-.5 5.2c-.3 4.1-1.1 5.8-3.3 7.9-1.7 1.6-2.7 3.3-2.3 4.2.3.9-1 2.9-3.7 5.3-2.3 2.1-4.7 4.2-5.3 4.8-.6.5-3.1 2.3-5.5 4-5.1 3.4-20.4 20.9-21.6 24.5-.7 2.3-.7 2.3.9.7 2.4-2.4 2.7-2.1 1 1-.7 1.6-1.4 3.5-1.3 4.3 0 1 .4.7 1.1-.7.6-1.2 1.8-2.3 2.8-2.6 2.3-.6 2 .4-3.8 11.8-2.2 4.4-4.7 10.4-5.6 13.4-2.9 9.8-1.6 25.1 3.4 39.5 1 3 1.6 5.7 1.2 6-.4.2-9.3-2.7-19.8-6.4-10.5-3.8-22.2-7.3-26-7.8-3.8-.6-9-1.9-11.5-3-4-1.7-5.1-2.8-7.1-7.4-2.2-4.7-2.3-5.4-.9-6.4 1.3-1 1.2-1.7-1.2-5.1-1.5-2.1-2.7-4.9-2.7-6 0-2.6 3.8-9.3 5.3-9.3.5 0 .3-.8-.6-1.8-2.2-2.4-2.2-4.1.1-4.1 4.7-.2 5.2-.5 5.2-3.2 0-1.5.5-2.9 1-3.1 1.4-.4-1-6.1-4.4-10.7-1.4-1.9-2.6-4.4-2.6-5.6 0-4.7-6.9-7.9-8.4-3.9-.3.9-2 1.4-4.8 1.4-6.6 0-11.6 1.8-15.9 5.7-5.1 4.6-7.5 12.5-8.8 28.8-.6 7.7-2.3 17.3-4.6 26.5-4.1 16.4-5.1 27-3.7 41.1.6 6.7 1.7 11.2 3.4 15 1.5 3 3.1 6.6 3.7 8.1.6 1.6 1.7 2.8 2.5 2.8s1.6.5 1.8 1.2c.2.6 1 .8 1.7.4.9-.6 1-2.4.6-6.4-.7-5.6-.7-5.6 1-3.3 2.4 3.1 1.9 6.3-5.6 37.6-3.5 14.7-6.3 29.1-6.6 33.2-.3 6.5-.1 7.4 2.1 9.8 2.1 2.2 3 2.6 5.6 2 1.8-.4 3.6-.2 4.5.5 1 .8 10 1 32.6.8 29.5-.3 31.2-.4 32.3-2.2.6-1.1 1.9-2.7 2.8-3.8 3.7-3.7 2.3-19.2-3.7-41.8-8.6-32.8-11.6-46.3-10.3-47.2 2.3-1.4 5.2-.8 9.8 1.8 2.5 1.4 6.8 3.9 9.7 5.5 2.8 1.6 9.1 5.3 14 8.2 8.4 5.2 8.9 5.6 10.1 10.3 1.9 7.2.3 17.4-7.3 48.4-3.7 15.4-4.7 20.1-4.3 20.5.3.3 30 .4 66.1.3l65.6-.3-9.2-18.5c-5.1-10.2-13.8-25.9-19.5-34.9-8.5-13.5-10.5-17.4-11.2-22-.5-3.1-2-8.5-3.4-12.1-3.4-8.9-5.4-30.3-3.7-38.1 2-8.8 2.1-9 4.1-8.7 2.1.3 2.2-.5.9-4-1.2-3.2-1.1-4.5.7-11.6 1.2-4.6 2.5-7 5.5-9.9 3.9-3.8 5.7-7.7 4.5-9.6-.4-.5-.2-1.2.4-1.6.5-.3 1-1.6 1.1-2.8.1-2 .2-2 .9.3.4 1.4.8 4.1.9 6.1s.7 4.2 1.5 4.8c1.2 1 1.3.9.9-.8-.5-2.1 3.2-6.6 4.7-5.6 1.8 1.1 1.1-6.4-1.6-16.8-3.9-15.6-7.5-27.9-9-30.8-1.2-2.4-1.1-2.7.5-3.2 1.4-.3 2.3.7 4.1 4.7l2.2 5.1 1.8-5c1.7-5.1 1.9-5.2 7-4.1.8.1 1.6 1.5 1.8 2.9.3 2.8 2.2 3.8 2.2 1.2 0-1.4 1.2-1.9 3.3-1.6.4 0 .7-1.3.7-3.1 0-3 0-3.1 2-1.3 1.9 1.7 2 1.7 2 .1 0-.9.5-1.4 1-1.1.6.3 1.3-.1 1.6-1 .5-1.3.9-1.3 2.2-.3 1.3 1.1 1.4 1 .7-1.2-1.2-4.1-1.1-4.5 1.2-4.3 2.1.2 2.1.1.9-3-.7-1.7-1-4.3-.7-5.6.6-2.1.8-2.2 2-.7 2.7 3.3 3.1 1.5.6-3.4-1.4-2.7-2.5-5.7-2.4-6.7 0-1 1 .2 2.1 2.7 2.8 6.3 3.2 3.8.7-4.5-3.5-11.3-3.5-17.2 0-31.5 4.2-16.8 4.2-26.4.1-42.4-4.1-16.2-7.6-21.7-19.4-30.6-11.7-8.8-27.2-13.8-39.3-12.5-4.9.5-6.7.3-8.5-.9-2.2-1.6-5.1-1.9-7.6-.9"/></svg>