<svg xmlns="http://www.w3.org/2000/svg" width="682.667" height="512" version="1.0" viewBox="0 0 512 384"><path d="M0 192v192h308.7l.7-3.7c1-6.1.7-8.3-.9-8.3-2.5 0-2.6-2-1.2-11.7l1.4-9.2-2.8-2c-1.4-1.1-3.7-4.1-4.9-6.6-2.7-5.5-2.2-9.6 2-17.1 1.6-2.9 2.7-5.4 2.5-5.6-.3-.2-1.3-4.6-2.4-9.7-1-5.1-2.3-9.6-2.7-10-2.7-2.4-13.6-5.4-25.8-7.1-7.6-1.1-15.8-2.9-18.1-3.9s-8.8-6.2-14.3-11.6c-11.3-10.8-11.7-11.6-12.8-25.1-.5-6.3-.3-8.6.9-11 1.8-3.4 9.3-11.4 10.7-11.4.5 0 2.5-1.7 4.3-3.7l3.4-3.6-2.9-4.4c-2.7-3.9-3-6.3-.9-6.3.5 0 2.1 1.8 3.5 4.1l2.8 4.1 4.8-5.3c3.5-4 4.6-5.8 3.9-7-.6-1.2.1-2.5 2.6-4.9 3.2-3.1 7.1-9.7 6.3-10.6-1.3-1.2-17.7-11.1-17.2-10.3.3.5 0 1.7-.7 2.5-1 1.2-.8 2 1 4.4 2.5 3.4 2.3 3.5-2.6 1.5-2-.9-4.3-1.3-5-1.1-.7.3-3.2-1.1-5.5-3.2-4.3-3.9-4.4-3.7-2 2.7.4 1.1.1 1.1-1.6.2-2.6-1.4-8.2-9.3-9.1-12.9-.5-1.9-1.4-2.7-3.2-2.8-4.4-.2-19.8-5.4-20.7-7-1.3-2.3-21.2-8.6-22.8-7.3-.9.7-2.5.4-5.4-1.1-2.2-1.1-4.4-1.8-4.9-1.6-1.1.7-23.1-7.4-23.1-8.5 0-.4-1.8-1.8-3.9-3-2.4-1.3-3.7-2.7-3.4-3.5.6-1.7.6-1.7-7.7-1.9-3.6-.1-8.1-.9-10-1.7-1.9-.9-4.5-1.9-5.8-2.3-3.6-1-8.4-5.9-7.6-7.8.8-2.3-1.3-2.2-5.1.2-2.3 1.4-3.5 1.6-5.2.8-2.7-1.2-3-2.5-.8-3.3.9-.4 1.5-1.1 1.4-1.8-.3-2.5.2-3.5 2.1-4.1 2.4-.8 1.7-2.3-1.7-3.6-1.7-.6-2.3-1.4-1.9-2.5.5-1.3.1-1.5-1.6-1.1-1.3.3-3.2.2-4.3-.3-1.9-.7-1.9-.8.5-1.8 1.4-.5 3.5-2.2 4.7-3.6 1.3-1.4 3.1-2.6 4-2.6 1.1-.1 0-1.2-2.7-2.8l-4.5-2.7 3.8-.3c2.4-.2 3.7-.8 3.7-1.8 0-1.2 4.1-1.4 28.3-1.4H160c3.3 0 3.3-.1-3.8-4.4-20.4-12.6-39-32-42.3-44.1-2.5-9.1 2.6-19.8 13.1-27.7 3.6-2.6 9.8-7.3 13.8-10.4 4.1-3.1 9-6.3 11-7 3.1-1.1-8.7-1.3-74-1.4H0z"/><path d="M165.8 1.2c2.8 1.4 4.4 7 4.2 15.6-.1 3.7-.1 8.3-.1 10.3l.1 3.6 11.8 1.1c17.1 1.7 26.1 3.9 29.4 7.3 4.4 4.4 3.8 6.8-5.7 21.4-6.9 10.6-8.5 13.9-8.5 17 0 2.2 1.3 5.8 2.5 7.3.2.2 2.7-.7 5.7-2.1 8.7-3.9 17.8-6.5 26.8-7.7 4.7-.6 11.8-2 15.9-3.2 7-2.2 7.5-2.4 10-7.2 1.4-2.7 6.5-10.8 11.2-18 7-10.7 10.7-15.1 19.9-23.9 6.2-5.9 12-10.7 12.9-10.7 1 0 2.1-.4 2.6-.8 1.3-1.2 21.2-9.3 25-10.3 1.7-.4-35-.7-81.5-.7-61.5-.1-83.9.2-82.2 1m272.3 4.1c5.3 2.9 10.7 6.2 12.1 7.2 1.4 1.1 6.1 4.7 10.4 7.9 4.4 3.3 8.6 6.6 9.4 7.5 4.5 4.4 39.4 29.1 41.2 29.1.4 0 .8-12.8.8-28.5V0h-83.5zm-7 55.7c-7.2 1.1-7.6 1.7-6.2 8.6.6 3.2 1.6 13.2 2.1 22.3.6 9.1 1.3 17.1 1.5 17.8s1.9 1.4 3.7 1.7c23.4 3.6 50.5 8.2 61.3 10.2 13.4 2.6 17.8 3.4 18.1 3.4.2 0 .4-8.5.4-18.9 0-17.2-.2-19-1.7-19.4-1-.3-4.3-1.1-7.3-1.7-3-.7-15.4-6.1-27.5-12-18.1-8.9-23.3-11-29.2-11.9-7.8-1.2-7.4-1.2-15.2-.1M244 184c0 .5.5 1 1.1 1 .5 0 .7-.5.4-1-.3-.6-.8-1-1.1-1-.2 0-.4.4-.4 1m73.5 51.2c-2.4 1.8-3.9 3.7-3.7 4.6 2 10.7 1.5 14.6-2.5 19.3l-2.7 3.2 2.4 1.6c3.1 2 6.1 4.9 8.2 7.9l1.6 2.4 4.4-4.7c2.3-2.6 4.6-5.3 5.1-6.1 1-1.7-1.8-8.6-6-14.9-1.8-2.7-3.3-5.5-3.3-6.2 0-.6 1.2-2.1 2.6-3.2 2.4-1.9 2.4-2.6.2-2.2-.5 0-.8-.8-.8-1.8 0-3.1-1.2-3.1-5.5.1m142.3 63.5c15.1 23.9 31.1 54.7 39.1 74.8l3.9 10 4.6.3 4.6.3v-31.5c0-21.7-.3-31.6-1.1-31.6-1.3 0-35.7-19.2-42.9-24-3-2-7.6-4.9-10.2-6.4l-4.8-2.8zm31.7-8.5c1.1.8 4 2.7 6.5 4.1 2.5 1.5 6.3 4.2 8.5 6.2l4 3.4-3-.3c-1.6-.2-4.2-.9-5.7-1.5-3.4-1.3-3.5-1-.3 3.7 1.4 2 2.5 4.1 2.5 4.7s1.8 2.9 4 5l4 3.9v-25.9l-8.8-1.7c-4.8-1-9.8-2.1-11.2-2.4-2.4-.6-2.4-.6-.5.8"/></svg>