<svg xmlns="http://www.w3.org/2000/svg" width="682.667" height="512" version="1.0" viewBox="0 0 512 384"><path d="M325.7 11.8c-1 1-1.7 2.3-1.7 2.9s-4.1 2.5-9.1 4.3c-10.2 3.7-15.4 7.4-24.4 17.2-6.3 6.9-13.1 15.8-12 15.8.3 0 1.5-.5 2.6-1 2.4-1.4 2.4-.6-.2 3.6-2.2 3.6-1.7 4.4 1.2 1.8 1.7-1.6 1.8-1.5.9 1.7-.6 1.9-1 5.6-1 8.4l.1 5 1.5-2.8c2-3.7 2.6-3.4 1.8.8-.4 2.3-.2 3.5.5 3.5.6 0 1.1.7 1.1 1.5s.4 1.5.9 1.5 1.4 1.4 2 3.1c.7 2.1 1.5 2.8 2.3 2.3s.7.1-.3 1.6c-.9 1.4-3.5 3.1-5.8 3.8-4.8 1.6-5.3 3.7-2 8.3 1.7 2.4 1.9 3.5 1.1 5.8-.7 1.9-.6 3.4.1 4.7.6 1 1.2 3 1.3 4.4s.8 5.2 1.6 8.5c1 4.5 1.9 6.2 3.6 7 1.2.5 2 1.6 1.7 2.3-.3.9 0 1 1.5.2 3-1.6 7.3-1.3 6.6.5-2.2 5.4-2.2 5.2.8 3.2l2.7-1.8-1.6 3.1c-1.8 3.5-.9 3.4 3.3-.3l2.2-2v4.9c0 6.8-.8 9-3.6 10.3-1.6.7-2.4 1.9-2.4 3.7 0 2.7-5.7 8.6-15.7 16.1-5.9 4.5-22.3 22.9-22.3 25 0 1.3.2 1.3 1.7.2 1.5-1.2 1.6-1.2.9.6-.5 1.1-1 2.9-1.3 4-.4 1.7-.2 1.7 1.6-.5 1.1-1.4 2.1-2.1 2.1-1.6 0 .6.7.1 1.5-1 .9-1 .5.3-.8 3.1-11.6 23.7-13 29-11.7 41.7.7 7.3 4.4 23.5 6.6 29.3.9 2.3-1.2 1.9-18.8-3.6-9-2.9-21-6.2-26.8-7.4-11.9-2.5-20-5.7-20-7.9 0-.8-.8-3.2-1.8-5.2-1.3-2.8-1.4-3.8-.4-4.1 1.8-.7 1.5-3.4-.8-6.8-1.1-1.7-2-4.3-2-5.8 0-2.8 2.4-7.3 4.8-9.3 1.2-.8 1.1-1.2-.2-2.3-1.8-1.5-2.1-4.1-.5-4.1.5 0 .7.4.4 1-.3.5.8.2 2.4-.8 1.7-.9 3.1-2.3 3.1-3s.5-2 1.1-3c.9-1.4.7-2.7-1-5.9-1.1-2.3-2.5-4.4-3.1-4.8-.5-.3-1.7-3.1-2.6-6.1-1.9-6.7-4.8-8.8-7.5-5.5-1.3 1.5-2.8 2.1-6.1 2.1-9.5 0-17.3 4-20.7 10.8-2.8 5.5-3.9 10.4-5.1 23.2-.7 6.7-3 19-5.6 29.4-4 16.2-4.4 18.9-4.4 30 0 12 2.1 25.8 3.9 26.4.6.2 2 3.2 3.1 6.8 1.3 3.8 2.7 6.3 3.3 6.1.7-.2 1.8.3 2.5 1.2.8.9 1.1 1 .7.3-.3-.6-.1-1.2.4-1.2.6 0 1.1-2.2 1.1-5.1 0-3.3.4-4.8 1.1-4.4 1.4.9.9 3.8-7.7 40.9-4.1 17.6-7.2 32.8-6.8 33.8.5 1.7 3 1.8 42.9 1.8h42.3l.6-3.3c.4-2 0-5.1-.9-7.7-.8-2.4-1.3-5.1-1-6.1.4-1-1.5-9.6-4-19.1-2.6-9.5-6.4-24.5-8.6-33.3-3.6-14.8-3.7-16.1-2.2-17.2 2.6-2 3.5-1.7 15.6 4.3 17.7 8.9 28.5 15.3 29.1 17.2 1.5 5.6 1.5 9.1-.3 20-1.1 6.6-3 15.6-4.2 19.9-2.8 10.1-4.7 18.4-4.7 20.3 0 .8-.3 2.3-.7 3.2-.7 1.7 2.8 1.8 64.9 1.8H386l-2.6-5.8c-4.3-9.9-12.1-23.8-23.4-42-8.4-13.5-11.1-18.6-11.5-22.1-.3-2.5-1.7-7.5-3.2-11.1-3-7.8-4.8-24.2-3.9-37.5.8-12.7 1.2-13.8 4.8-13.1 2.1.4 2.8.2 2.4-.7-2.6-6.3-2.9-8.8-1.6-14.9 1.1-5.1 2.1-6.9 5.1-9.6 4-3.6 6.5-8.3 5.6-10.6-.3-.8 0-1.9.7-2.6 1.7-1.3 2.6.6 2.6 5.5 0 1.8.7 3.8 1.7 4.6 1.5 1.2 1.6 1.2 1-.3-.6-1.8 1.4-8 2.6-7.9 3.5.4 3.8 0 3.2-3.2-1.2-5.9-9.5-38.5-10.5-41.2-.5-1.4-1-3.4-1-4.3.1-1.5.2-1.5 1.1.2.9 1.5 1.3 1.6 2 .5 1.7-2.9 4.4-1.5 6.7 3.5 2.5 5.5 3.3 5.3 5.2-1.7 1.2-4.7 2.3-5.7 3.5-3.6.4.6 1.3.8 2 .5.9-.3 1.6.6 2 2.4.8 3.6 2.5 5 2.5 2.1 0-2.4 1.8-2.8 2.6-.6 1.2 3 1.9 1.4 1.5-3.2-.3-4.3-.2-4.6 1.3-3.4 1.4 1.2 1.9 1.1 3.1-.5 1.1-1.5 1.4-1.6 1.5-.4 0 1.2.2 1.3.9.1.6-.9 1.1-1 1.5-.2.4.6 1.2 1.1 1.7 1.1.6 0 .3-1-.5-2.2-2.2-3.1-2.1-5.9.1-5.1 1.3.5 1.5.3.8-1.3-.4-1-1-3.7-1.3-5.9l-.4-4 2.6 2.4c3.4 3.2 3.3 2.3-.5-4.5-1.7-3-2.9-5.7-2.7-5.9.2-.3 1.5 1.3 2.7 3.6 1.3 2.2 2.5 3.8 2.7 3.6.3-.2-1-4.4-2.7-9.3-4.1-11.4-3.9-16.8.8-32.2 4.5-14.6 5.2-24.1 2.8-37.8-.9-5.4-2.1-11.5-2.7-13.4-1.3-4.4-6.9-16-7.7-16-.3 0-3.3-2.5-6.5-5.5-6.2-5.8-15-11.3-22.6-14.1-2.5-.8-9.2-2-14.8-2.5-6.2-.5-11.3-1.5-12.5-2.4-2.9-2-7-1.9-9 .3"/></svg>