<svg xmlns="http://www.w3.org/2000/svg" width="682.667" height="512" version="1.0" viewBox="0 0 512 384"><path d="M328.8 11c-1.7 2.3-4.1 3.6-10.3 5.6-12 3.7-19.6 9.6-32.1 24.6-6.2 7.5-6.7 9.1-2.2 6.7 1.9-1 1.9-.7-.7 3.7l-2.9 4.9 2.9-1.9c2.7-1.8 2.8-1.8 2 0-.4 1.1-.9 4.8-1.1 8.4-.3 5.7-.2 6.2.8 3.7 1.3-3 3.3-3.7 2.3-.8-.8 2.8.5 7.3 2 6.7.8-.3 1.5.9 1.9 3.4.3 2.1 1.1 4 1.8 4.2 1.8.6-3 4.6-6.4 5.3-3.9.9-4.4 2.8-1.9 7.1 1.6 2.6 2 4.5 1.5 6.9-.3 1.9-.2 4 .2 4.7.5.7.9 2.4 1 3.8 1 14.2 3.9 18.9 11.3 18.2 3.8-.4 4.3-.2 3.8 1.2-2.3 5.5-2.3 5.2.8 3.2l3-1.9-1.9 2.7c-2.5 3.8-1.5 4.2 2.4.9l3.3-2.7-.5 6.8c-.5 6.2-.9 7.1-3.8 9.4-2.4 1.9-3 3-2.6 4.8.5 1.7.1 2.4-1.4 2.9-1.1.3-2 1-2 1.5 0 .6-4.2 4.3-9.2 8.3-8.6 6.8-11 9.3-21.2 21.6-4.5 5.4-6.1 8.1-4.6 8.1.5 0 1-.5 1-1 0-.6.5-1 1.1-1s.8.7.5 1.5-.9 2.3-1.3 3.2c-.4 1.2.5.8 3-1.2l3.8-2.8-5.7 11.9c-8.1 16.8-9.7 23.5-8.5 34.9.5 4.9 2.4 14.1 4.1 20.3 1.7 6.3 2.9 11.7 2.6 12-.4.3-8.8-1.8-18.9-4.7-10-2.8-22.5-6-27.7-7-11-2.2-18.8-5.3-19.6-7.8-.3-1-1.2-3.3-2-5.2-1.3-3-1.3-3.5 0-5 1.4-1.5 1.4-2.1-.4-5.4-2.8-5.2-2.6-10.3.6-14.4 2.4-3.2 2.5-3.6 1-5.2-2.3-2.5-2-3.2.9-2.5 1.8.4 2.7.1 3.1-1 .3-.9 1-1.3 1.5-1s.9-.4.9-1.5.5-2.3 1-2.6c1.7-1 1.2-2.9-2.6-9.1-1.9-3.2-3.8-7.2-4.1-8.9-1.1-5.6-6-8.6-8.1-4.9-.7 1.2-2.6 1.7-7.3 1.9-16.7.6-22.4 8.9-25.4 36.5-.9 8.4-2.7 18.2-4.9 26-5.2 18.6-6 25.3-4.8 40.2.8 10.8 1.4 13.7 4 19.1 1.6 3.6 3.3 7.9 3.7 9.6.7 3.5 2.5 5.1 2.5 2.4.1-1.5.3-1.4 1.3.5.7 1.2 1.6 1.9 2 1.6 1.3-1.3.7 1.9-2.8 17.1-6.9 29.1-9.5 40.7-9.5 42.6 0 1.8 1.5 1.9 43.6 1.9h43.6l-.7-2.3c-.3-1.2-1-5.4-1.5-9.2-.4-3.9-2.8-14.5-5.4-23.7-2.5-9.1-5.7-21.5-7.1-27.5-1.4-5.9-3-12.6-3.6-14.7-2.3-8.4 3.7-7.4 27.6 4.5 18.5 9.2 18.5 9.2 19.6 13.3.8 3 .8 6.1-.1 11.6-1.5 10-3.6 20.2-5.6 27.5-3.2 12-4.5 17.9-4 19.2.4 1.1 12.8 1.3 65.1 1.3 35.5 0 64.5-.2 64.5-.5s-2.4-5.4-5.4-11.3c-5.8-11.5-9.9-18.6-22.3-38.4-6.4-10.1-8.1-13.8-8.6-17.7-.3-2.8-1.8-7.9-3.2-11.3-3.6-8.4-5.5-32.3-3.6-43.6l1.3-7.2h6.6l-1.9-5.1c-1.8-4.6-1.9-5.7-.7-10.8 1-4.5 2.2-6.6 6-10.5 2.6-2.7 4.9-5.6 5-6.5s.2-2.3.4-3.1c.1-.8.2-2.2.3-3 .1-1 .6-.7 1.7.8.9 1.3 1.4 3.4 1.1 4.7-.2 1.5.2 3 1.3 4 1.6 1.5 1.7 1.4 1.3-.8-.3-1.6.3-3.3 2-5.1l2.5-2.7.5 2.3c.3 1.3.3-.6 0-4.2-.2-3.6-2.5-14.3-4.9-23.9s-4.1-18.4-3.8-19.4c.5-1.5.3-1.7-.7-1.1-1.2.6-1.1.5 0-.9s1.7-1.5 2.8-.6c1 .9 1.7.9 2.4.2 1.9-1.9 4.4-.3 6.8 4.3 2.7 5.1 3.6 4.8 4.8-1.6.8-4.1 1.1-4.5 3.8-4.5 2.6.1 3.1.6 3.8 3.8.5 2 1.4 3.7 1.9 3.7.6 0 .8-.6.5-1.3-.3-.8-.2-1.9.2-2.6.6-1 1.2-.9 2.5.4 1.5 1.5 1.6 1.3 1.6-2.7.1-3.8.2-4.1 1.4-2.5 1.3 1.7 1.4 1.7 1.9-.2.3-1.4 1.2-1.8 3.7-1.5 3.2.4 3.2.4 1.6-2.1-2-3-2-4.5-.1-4.5 1.1 0 1.2-.5.5-2.6-.6-1.4-1-3.6-1-5 0-2.4 0-2.4 2.8-.7l2.7 1.8-1.9-3c-1.1-1.7-2.5-3.9-3.3-5-.7-1.1-1.3-2.4-1.3-3 0-.5 1 .5 2.1 2.3 3.5 5.4 3.3 2.9-.6-6.8-4.4-11.1-4.3-14 1.4-32.5 5.1-16.3 5.6-22.3 3.1-38-3.1-19.3-5.8-24.7-17.3-35.2-12.6-11.4-25-16.8-40.2-17.5-5-.2-7.5-.8-8.7-2.1-2.9-2.8-7.4-2.2-10 1.3m-35.1 65.2c-.3.8-.6.5-.6-.6-.1-1.1.2-1.7.5-1.3.3.3.4 1.2.1 1.9M394 157c.6 1.1.8 2 .6 2-.3 0-1-.9-1.6-2s-.8-2-.6-2c.3 0 1 .9 1.6 2M164.8 317c-1.4 5.5-2.4 5-2-1 .3-4 .7-4.9 1.7-4 1 .8 1 2 .3 5"/></svg>