<svg xmlns="http://www.w3.org/2000/svg" width="682.667" height="512" version="1.0" viewBox="0 0 512 384"><path d="M331.7 9.1c-1.8 2.4-4.1 3.6-10.6 5.4-9.8 2.9-13.7 5.1-21.5 12.5-7.1 6.6-17.9 19-17.3 19.7.3.2 1.5-.1 2.7-.7 3.3-1.8 3.3-.7 0 3.8-3.1 4.3-2.7 5.8.5 2.2 2.1-2.3 3.1-2 1.7.7-1.4 2.8-2.4 13.3-1.2 13.3.5 0 1-.6 1-1.4s.5-1.8 1.1-2.2c.9-.5 1 .4.5 3.1q-.75 3.75.3 3c.7-.4 1.1.5 1.2 2.2 0 2.2.2 2.4.8 1 .5-1.4 1-.6 2 3.2 1.5 5.9.7 7.6-3.9 8.6-4.8 1.1-5.5 2.8-2.9 7.4 1.9 3.4 2.1 4.4 1.1 6.6-.9 2-.9 3.1 0 4.8.7 1.2 1.3 3.5 1.4 5.2.3 4.8 1.9 13.9 2.8 15.3.4.6 1.4 1.2 2.2 1.2s1.4.3 1.4.8c0 .4 2.1.5 4.7.3 3.9-.3 4.5-.1 4 1.3-.4.9-1 2.3-1.4 3.2-.5 1.4-.3 1.5 1.6.4 2.1-1.1 2.2-1 1.1 1q-2.4 4.65 2.4.9c1.5-1.2 3-1.9 3.3-1.6.3.4.2 3.5-.2 7.1-.6 5.8-1 6.7-3.3 7.8-1.9.9-2.8 2.2-3 4.3-.4 3.2-5.5 8.5-14.8 15.5-5.4 4.1-19 18.5-23.1 24.6-2.6 3.8-2.4 6.1.3 2.8 1.6-2 1.6-1.8-.3 4.6-.3 1 0 .9 1.1-.4.8-1 1.9-1.5 2.5-1.2.5.4 1.3-.3 1.6-1.5.4-1.1.9-1.9 1.1-1.6.2.2-2.3 6-5.6 12.9-7.9 16.5-9.3 22.8-8 35 .6 5.1 1.9 12.4 3 16.3 3.2 11 4.4 16.5 3.8 17-.6.6-15.6-2.6-27.3-6-4.9-1.4-13.6-3.4-19.2-4.5-10.5-2-19.2-5.4-20.4-8-3.9-8.6-4.1-9.2-2.2-10.6 1.7-1.2 1.7-1.5-.5-5.6-1.2-2.4-2.2-5.6-2.2-7.1 0-2.7 2.4-7.5 4.4-8.9.6-.4.5-1.6-.3-3.1-1.4-2.6-.5-6 .9-3.7 1.1 1.8 4.8-.5 5.6-3.5.3-1.4 1-2.5 1.4-2.5 1.4 0-.7-6-3.6-10.3-1.4-2.1-2.8-5.4-3.1-7.2-.6-3.7-3.6-7.5-5.8-7.5-.8 0-1.9.9-2.5 2-.9 1.6-2.1 2-6.8 2-17.1 0-23.7 8.4-26.2 33.6-.7 7.1-3 18.8-5.5 28.9-6.3 24.7-6.6 26.7-5.4 40.2 1.1 12.9 2.4 19.3 4 19.3.5 0 .9.6.8 1.2-.1.7.3 2.6 1 4.3.7 1.6 2 4.5 2.8 6.4.9 2.2 1.7 3 2.2 2.3.5-.8 1.2-.6 2.3.7.9 1.1 1.5 2.1 1.3 2.3s-1.5 5.3-2.9 11.3c-2.1 9.1-7.9 33.1-10.1 42.2l-.5 2.3h86.7l-.4-5.3c-.3-2.8-2.6-13.3-5.3-23.2-2.6-9.9-6-23.2-7.5-29.5s-3.1-13-3.6-14.9c-1.1-4.4-.6-5.1 4.1-5.1 4.1 0 10.6 2.6 30.4 11.9 15.7 7.4 15.5 7.1 13.2 23.1-1.6 11.5-3.7 21.4-5.8 28-.6 1.9-1.7 6.1-2.3 9.2l-1.3 5.8h64.9c43.8 0 64.9-.3 64.9-1 0-2.1-10-20.8-17.5-32.5-15.8-24.8-16.6-26.4-17.6-32.7-.6-3.5-2-8.3-3.1-10.8-3.9-8.4-5.8-34.1-3.5-45.5 1.3-5.9 1.3-6 5-6.3s3.7-.3 2.3-3c-4.1-8-2.6-17.7 3.6-23.1 4.3-3.7 6.9-8 6.5-10.8-.1-1 .2-1.9.7-2s1.3-.7 1.7-1.5c.5-.7.6.6.3 3.4-.5 3.3-.2 5.2.9 6.8 1.2 1.7 1.6 1.8 2 .5.4-.8.2-1.5-.2-1.5-1.5 0-.1-3.5 2-4.8 1.6-1 1.9-.9 1.9.4 0 .8.5 1.2 1.1.8.7-.4.9-2.4.5-5.8-.8-5.8-8.1-35.9-10.2-41.9-1.7-4.8-1.7-4.7 0-4.7.7 0 1.6.9 1.9 2s1 2 1.7 2 .9-.8.5-2c-.3-1.1-.2-2 .3-2 .6 0 1.2.6 1.5 1.2.3 1 .7 1 1.8.2 2.7-2.1 4.9-1.1 7.1 3.2 3.2 6.5 4.5 6.3 5.3-.6.6-5.1.9-5.8 2.3-5.1 1 .4 2.2.6 2.9.4.6-.2 1.7 1.3 2.3 3.4 1.5 4.6 3.5 7.1 2.5 3.1-.9-3.7.1-5.1 2.7-3.7 2 1.1 2.1.9 1.5-2.5-.3-2-.2-3.6.4-3.6.5 0 .9.5.9 1.1 0 .5.4.7 1 .4.6-.4.4-2-.6-4.3-3-7-3-6.8-1.1-5.3.9.7 1.9 2.8 2.3 4.6.6 3.5 3.4 5.8 3.4 2.8 0-1.3.3-1.3 1.5-.3.9.8 1.5.9 1.5.2 0-.6-.4-1.4-1-1.7-1.3-.8-1.3-4.5 0-4.5.7 0 .7-.6 0-1.9-.5-1.1-1-3.4-1-5.2 0-3.1 0-3.2 2-1.4 1.1 1 2 1.3 2 .7s-.5-1.4-1-1.7c-.6-.4-.8-1.5-.5-2.5.4-1.1-.9-5.1-2.9-9.6-4.8-10.2-4.7-14.4.3-30.5 6.9-22 7-23.6 3.6-45.3-2.1-13.2-6.4-22.2-14.2-29.7-7.7-7.3-12.6-10.9-19.5-14.3-7.8-3.7-10.9-4.5-21.1-5.6-4.9-.6-9.8-1.7-11-2.5-3.5-2.5-7.3-1.9-10 1.6m73.3 134c1.5 2.8.5 2.3-1.5-.7-.9-1.5-1.2-2.3-.6-2 .6.4 1.6 1.6 2.1 2.7m-46 20.3c0 1.8-1.7-.8-2.4-3.4l-.7-2.5 1.5 2.5c.9 1.4 1.5 2.9 1.6 3.4M163.1 319.1c-.9 2.3-1 2.2-1-1.1q-.15-3.45.9-2.4c.7.7.7 1.9.1 3.5"/></svg>