<svg xmlns="http://www.w3.org/2000/svg" width="682.667" height="512" version="1.0" viewBox="0 0 512 384"><path d="M336.5.9c-.6.6-5 2.1-10 3.6-11.8 3.4-16.1 6.4-29.9 20.5-13.3 13.7-14.9 16.9-5.6 11.1 2.1-1.4 1.9-.8-1.4 3.7-2.1 2.9-3.6 5.5-3.4 5.8.3.2 1.1-.2 1.8-1.1 1.9-2.2 3.1-1.8 2.1.7-.5 1.3-1.1 5-1.5 8.3l-.7 6L290 57l2.1-2.5-.6 3.8c-.4 2.7-.3 3.7.4 3.2.7-.4 1.1.4 1.1 1.9s.6 2.6 1.3 2.6 1.8 1.8 2.3 4c1.3 4.6.3 6-5.8 8-4.4 1.4-4.7 3-1.7 8 1.9 3 2 3.9 1 6.7-.9 2.5-.9 3.7.1 5.5.7 1.3 1.1 2.7 1 3.2-.3 1 1.6 13.7 2.4 16.8.3.9 1.5 2 2.7 2.5 2.3.8 3.2.9 8.6 1.2 3.3.1 3.3.1 1.7 2.6-2.3 3.5-2 5.2.5 2.9 2.1-1.9 2.2-1.9 1.5.3-.7 2.3.7 3.2 1.9 1.3.3-.5 1.5-1.5 2.6-2.1 2-1 2-.8 1.3 6.3-.6 6.4-1 7.6-3.5 9.6-1.7 1.4-2.9 3.3-2.9 4.7 0 2.1-2.2 4.6-11.4 13-.6.6-3.4 2.7-6.3 4.8-4.6 3.4-17.9 17.9-22.6 24.7-2.1 3-2.2 5.3-.2 2.6 1.8-2.4 3-1.5 1.6 1.2-.6 1.2-1.1 2.9-1 3.9 0 1.5.2 1.4 1.1-.5.6-1.2 1.7-2.2 2.4-2.2s1.8-.8 2.3-1.8c2.8-4.7.5.9-4.9 11.9-7.9 16.2-9 20.2-9 31.8 0 9.9 1 15.7 5.5 32 1.4 5.2 2.5 10.8 2.3 12.5-.3 2.8-.6 3.1-3.8 3.2-12.8.2-54.6-6.4-62.3-10-4.7-2.1-5.1-2.6-6.8-8.1-1.7-5.6-1.7-6.1-.1-7.8 1.5-1.7 1.5-2.1-.6-6-1.2-2.3-2.2-5.6-2.2-7.2 0-3.1 2.3-7.3 4.7-8.8 1.6-1 1.7-3.4.2-3.9-.7-.2-.9-1.3-.4-2.7.5-1.5 1-2 1.4-1.2 1.2 1.9 6.1-.4 6.1-2.9 0-1.1.5-2 1-2 2.4 0-.1-8.6-4.1-14.2-1.1-1.4-1.9-4-1.9-5.7 0-4.4-4.2-8.6-7-7.1-1.1.6-2 1.5-2 2 0 .6-3.5 1-8 1-17.7 0-24.3 8.6-28.1 36.4-1.1 8.3-3.7 20.2-6.4 29.5-6.2 21.8-7 27.7-5.8 44.1.9 11.7 1.4 14.4 4 20 1.6 3.6 3.5 8.2 4.2 10.2 1.3 3.9 2.5 4.8 3.4 2.5.3-.6.6.3.6 2.1.1 1.8-1.9 11-4.4 20.5s-4.5 17.6-4.5 18 18.5.7 41 .7c33.3 0 41-.2 41-1.3 0-.7-2-9.2-4.4-18.8-7-27.4-8.8-37.1-7.3-38.1 3-2.1 14.5.1 32.7 6.2 10.2 3.4 19 6.7 19.7 7.3.9.9.7 4.4-1.3 15.7-1.3 8-2.7 15.2-3.1 16-.3.8-.9 3.3-1.3 5.5s-1.1 4.8-1.5 5.8c-.7 1.6 2.8 1.7 64.3 1.7h65.1l-5.3-9.3c-2.9-5-9.9-16.6-15.6-25.7-8.9-14.1-10.5-17.3-11.2-22.3-.4-3.2-2.1-9.2-3.8-13.3-3.9-9.7-5.8-30.7-4-44 1.5-11.8 1.5-11.7 6.7-11 4.8.6 4.9.6 2.9-3.2-.7-1.5-1.9-5.1-2.5-8.1-1.6-7.4-.2-11.8 4.9-15.3 4.4-3 6.7-7 8.5-14.3l1.3-5 .1 7.1c.1 5.4.5 7.5 1.8 8.5 1.5 1.2 1.6 1.2 1-.3-.8-2.3 1.5-6.6 3.2-6 1 .3 1.2 0 .8-1.2-.4-1-.1-1.9.7-2.2 1.5-.6 1.4-1.3-3.9-24.9-4.3-19.5-6-24.9-9.2-29.8-1.3-2.1-2.3-4.6-2.1-5.5.3-1.1 1.6.5 3.6 4.3 3.4 6.6 4.3 5.3 1.2-1.9-1-2.5-1.7-4.6-1.5-4.6s2.1 3 4.2 6.7c3.7 6.6 3.8 6.7 4.3 3.8.6-3 .6-2.9 3.2 2.5 2.4 5 2.6 5.2 2.7 2.6.1-2.3.4-2.7 1.3-1.8 1.6 1.6 2.8 1.5 2.8-.3 0-3.3 4.5-.9 8.5 4.3l4 5.4.3-7.2c.3-6.7.4-7.1 2.4-6.4 1.8.5 2 .3 1.5-1.5-.9-3.4.1-2.4 2.8 2.8 2.7 5.5 5.1 7.9 3.5 3.6-.6-1.5-1-2.9-1-3.1 0-.5 2.4.1 5.8 1.4 1 .4 1-.4-.2-3.3-2-4.6-2-4.6-.1-3.9 1.9.8 1.9-.5.2-3.1-.8-1.1-2.2-3.4-3.3-5l-1.9-3 2.5 1.6c1.4.9 3.8 3.5 5.3 5.7 2.3 3.4 3.1 3.9 4.1 2.9 1.1-1 1.1-1.6-.1-3.4-.9-1.3-1.3-2.9-1-3.7.3-.7.2-1.7-.3-2.2s-1.2-2.7-1.5-4.9c-.6-3.3-.5-3.8.6-2.8 3.1 3 3 1-.2-2.5-1.8-2-2.7-3.1-1.9-2.5 3.1 2.8 2.6.9-2.1-7.5-3.6-6.5-4.9-9.7-4.9-12.9 0-2.3 2.2-11.1 4.9-19.6s5.2-18.3 5.6-21.8c.6-6.2-1.3-24.3-3.6-33.3-4.8-18.5-25.3-37.2-46.1-42.1C362.7-.2 338-.6 336.5.9m-37.8 67.8c-.3 1-.5.4-.5-1.2 0-1.7.2-2.4.5-1.8.2.7.2 2.1 0 3m51.3 68.8c0 .8-.4 1.5-1 1.5-.5 0-1-.7-1-1.5s.5-1.5 1-1.5c.6 0 1 .7 1 1.5m4.5 12.6c1.1 1.7-.1 2.1-1.5.4-.8-.9-.8-1.5-.2-1.5s1.4.5 1.7 1.1"/></svg>