<svg xmlns="http://www.w3.org/2000/svg" width="682.667" height="512" version="1.0" viewBox="0 0 512 384"><path d="M318.1 3.2c-3.9 2-9.4 6.3-15 11.9-8.8 8.7-16.1 17-16.1 18.3 0 .3 1.6 0 3.5-.8l3.5-1.5-2.8 4.2c-5.1 7.5-5.1 8.3.1 3.8 1.7-1.4 1.7-1.3.8 1.1-.5 1.4-1.3 5.5-1.6 9l-.6 6.3L292 53l2.1-2.5-.6 3.8c-.4 2.7-.3 3.7.4 3.2.7-.4 1.1.5 1.1 2.2 0 2 .3 2.4.9 1.4.7-1.1 1.2-.6 1.9 2 .5 1.9 1.3 4.1 1.6 5 1 2.2-1.7 4.6-6.4 5.9s-5.2 3.4-1.9 8.6c1.8 3 1.9 3.8.8 6.8-1 2.7-1 4-.1 5.8.7 1.3 1.2 3.2 1.2 4.3s.4 5.1.9 8.9c1.2 9.1 3.3 11.2 10.8 10.8 5.6-.4 6.2.1 3.8 3.2-2.1 2.7-1.9 3.9.4 2.7 1.6-.9 1.8-.8 1.3 1.1l-.5 2.2 3-2.2c4.1-2.9 4.3-2.8 4.3 1.2 0 8.3-1.1 12.1-4.1 13.8-2.1 1.3-2.9 2.5-2.9 4.5 0 2.2-1.5 4.2-6.9 9.1-3.8 3.5-8.7 7.6-10.8 9.1-8.7 6.5-26.7 28-24.9 29.8.3.3.8-.2 1.2-1.1.3-.9 1-1.4 1.5-1.1.4.3.4 1.7-.2 3.2-1.3 3.6-.4 4.1 1.5.6.8-1.5 1.5-2.1 1.6-1.3 0 1 .7.7 2-1 1.1-1.4-.5 2.9-3.6 9.5-9.9 20.7-10.7 24-10.1 38 .5 9.3 1.3 14.4 3.7 22.5 3.4 11.6 5.5 23.3 4.6 25.7-.6 1.4-2.9 1.5-19.4 1-21-.6-41.8-3.5-49.4-7-4.5-2-4.9-2.6-6.8-8.5-1.8-5.6-1.9-6.4-.5-7.8 2-2 1.9-3.3-.5-6.9-3.2-4.9-2.5-10 2.3-15.2 1.6-1.8 1.8-2.5.7-3.8-1.8-2.1-.5-4.6 2.2-4.2 2.4.4 4.8-1.3 4.8-3.4 0-.7.7-2.1 1.7-3.1 1.5-1.7 1.4-2.3-2-9.2-2.1-4.1-3.7-8-3.7-8.8 0-3.1-2.3-7.9-4.2-8.9-1.6-.9-2.4-.6-4.2 1-1.8 1.7-3.5 2.1-9 2.1-18.7 0-25.2 8.2-29.6 37-1.2 8-3.8 19.7-5.7 26-7.1 23.4-8.4 31-7.7 45.5.7 14.2 1.4 18.5 4.9 26 1.2 2.7 2.8 6.7 3.4 8.7 1.3 3.9 2.6 4.8 3.4 2.5.3-.8.7-.7 1.2.5.5 1.3-4.9 24.5-7.1 30.3-.5 1.3 4.3 1.5 39.4 1.5h39.9l-1.4-5.8c-.7-3.1-3.1-13.8-5.3-23.7-3.7-16.6-3.8-18.1-2.3-19.2 3.1-2.3 11.2-1.4 30.6 3.6 24.5 6.3 24.9 6.5 24.2 9.3-.2 1.3-1.3 7.5-2.4 13.8s-2.4 12.8-3 14.3c-.6 1.6-1.1 3.9-1.1 5.3v2.4h129.2l-3.2-5.8c-1.8-3.1-8.6-14.2-15.1-24.7C366.6 342 362 333.6 362 332c0-3.8-2.7-13.5-5.1-18.3-4.3-8.7-5.2-42.2-1.4-54.3.2-.7 1.9-.9 4.9-.4 5 .7 5.3.3 3.2-3.8-2-3.9-3.5-15.1-2.4-18.2.5-1.4 2.2-3.4 3.9-4.4 4.2-2.5 8.5-8.7 9.5-13.8l.8-4.3.4 5.5c.3 5.5 1.7 8.5 3.3 7.4.5-.3.7-1 .3-1.5-.9-1.5.5-6.1 1.6-5.4.6.3 1-.2 1.1-1.2.1-1.3.3-1 .9.7.6 2.2.8 2.3 1.5.7 1.6-3.9-8-47.1-12.5-55.9-1.7-3.2-3-6.6-3-7.6.1-1.4.2-1.4 1.2.3 6.3 11.6 8.4 13.6 4.9 4.6-1.2-2.8-1.9-5.1-1.8-5.1.2 0 1.8 2.2 3.6 5 4.1 6.4 5.6 7.3 4.8 3.1-.9-4.4.4-3.2 3.3 2.8 2.5 5.5 4.4 6.8 3.4 2.3-.5-2.2-.4-2.5.7-1.5 2 1.9 3.2 1.6 2.6-.7s.5-2.6 2.3-.6c.6.8 1.7 1.3 2.4 1 .6-.2 2.9 1.8 5 4.6 2.1 2.7 3.9 5 4.1 5 .3 0-.1-4.5-1-11.8-.4-3-.2-3.2 2.2-2.6 2.3.6 2.5.5 1.8-1.7-.4-1.3.7-.2 2.4 2.4s3.1 5.1 3.1 5.6.7 1.4 1.5 2.1c1.2 1 1.3.7.5-1.9-.4-1.7-1.2-3.5-1.5-4.2-1-1.5 3.5-.1 5.7 1.8 1.6 1.4 1.7 1.3.8-1.5-.4-1.7-1.1-3.6-1.4-4.1-.4-.5.1-1.1.9-1.3 1.3-.2.9-1.3-1.9-5.3-2-2.7-3.6-5.3-3.6-5.8 0-1.5 5.4 2.8 8 6.5q2.85 3.75 3.3 2.4c.5-1.2-2.7-14.8-3.9-16.8-.7-1.1.3-1 2.9.3 2.2 1.2 2.2 1.2.3-1-1.1-1.1-1.6-2.1-1.3-2.1s-1.9-4.1-4.9-9.2c-7.1-12.1-7.2-14.8-.8-33.7 6.9-20.2 7.4-25.3 4.7-42.5-3.3-21.6-6-27.5-17.5-38.8-4.3-4.2-10.5-9.3-13.7-11.2L386.2 0h-61.9zm-17.4 62.5c-.3 1-.5.2-.5-1.7s.2-2.7.5-1.8c.2 1 .2 2.6 0 3.5m53.3 70.5c0 .5-.7.8-1.5.8-1.5 0-2-2.1-.8-3.3.7-.7 2.3 1.1 2.3 2.5m3.5 11.8c.3.5.2 1-.4 1-.5 0-1.3-.5-1.6-1-.3-.6-.2-1 .4-1 .5 0 1.3.4 1.6 1m-202 191.9c.3.5.1 1.2-.5 1.6-.5.3-1-.1-1-.9 0-1.8.6-2.1 1.5-.7"/></svg>