<svg xmlns="http://www.w3.org/2000/svg" width="682.667" height="512" version="1.0" viewBox="0 0 512 384"><path d="M0 192v192h306.3l-.8-8.7c-.4-4.9-.9-11.7-1-15.3-.6-11.3-1.5-15.9-4-19.6-3.1-4.5-3.5-13.5-.9-17.3 1.5-2.1 1.5-3.1 0-12.5-1-5.5-2-10.8-2.2-11.7-1-3.5-10.4-6.2-30.8-8.9-11.4-1.5-14.9-3.5-26.2-14.6-9.8-9.6-10.2-10.1-11.2-15.9-2.8-15.6-2.8-15.5 2.2-22.2 2.4-3.4 5.3-6.4 6.3-6.7 1.1-.3 3.5-2.2 5.4-4.2l3.4-3.5-2.3-3.9c-3.8-6.8-2.2-10 1.8-3.5 1.2 1.9 2.6 3.5 3.1 3.5s3.2-2.4 6-5.3c4.3-4.5 4.9-5.5 3.9-7.1s-.6-2.5 2.8-6c2.2-2.2 4.5-5.1 5.1-6.3 1-2.1.8-2.5-2.1-4.3-7.4-4.5-11.6-6.3-13.1-5.7-2.2.8-2.2 4.3.1 5.6 2.6 1.6-.4 1.3-4.4-.4-2-.8-4-1.3-4.4-1-.5.3-2.6-.9-4.6-2.7-3.8-3.4-4.1-3-1.8 2.6.7 1.9.7 1.9-1.8 0-1.4-1-4.1-4.1-5.9-6.7-3.6-5.3-5.9-7-8.3-6.1-2.5.9-17.9-4.3-19.4-6.6-.7-1.1-1.8-2-2.6-2-.7 0-4.7-1.1-8.7-2.4-4.4-1.4-7.8-2.1-8.5-1.5-1.1.9-6.1-.3-21.4-5.4-8.5-2.8-17.8-8.2-18.8-10.8-.2-.5-2.9-.9-5.9-.9-7.6 0-16.9-3.5-21.6-8.2-3.7-3.6-3.9-3.7-6.2-2.2-1.4.9-3.3 1.3-4.4.9-3.3-1-3-3.8.8-7.1l3.6-3.2-3.8-1.8c-2.2-1.1-3.6-2.3-3.3-3.1.4-.9-.3-1.1-2.4-.6-1.7.3-3 .2-3-.2 0-1.3 5.1-5.6 7.8-6.6 3-1.2 2.2-2.3-3.5-5-3.7-1.7-3.7-1.7-1-1.8 1.6-.1 2.6-.5 2.2-1.1-.3-.6.2-1 1.2-1.1 1 0 13.1-.8 26.8-1.8 22.1-1.6 24.6-1.9 21.8-3-5.3-2.1-20.3-10-25.2-13.3-6.9-4.8-15.7-14.2-17.1-18.3-1-3-.9-4.9.5-10.8 1.7-7.1 3.4-10.4 8.6-16.2 1.5-1.7 4.9-5.9 7.5-9.5 7.3-9.6 15.6-13.4 21.1-9.5 3.4 2.4 7.1 12.3 8.5 23 .3 1.5 1.2 2.1 3.8 2.2 10.2.7 26 2.6 29.5 3.5 6.5 1.6 12.3 4.9 12.9 7.3.7 2.9-.4 6.6-4.8 15.2-4.3 8.6-4.5 11.4-1 14.2l2.6 2L203 87c8.5-4.3 19.3-7.7 28.5-8.9 4.4-.6 11.3-2.1 15.3-3.3l7.3-2.1 3.4-6.6c11.1-21.7 31.6-44.9 44.9-51 15.9-7.2 22.7-9.3 38.8-12.1L357.5.2 178.8.1 0 0zM412 2.6c4.7 1.3 12.3 4.3 17 6.7 8.2 4.1 11.4 6.2 32 21.4 14.4 10.6 29.9 20.5 41 26.2l10 5.2V0l-54.2.1h-54.3zm13 62.1c-7.5 1.1-7.3.9-6.6 6.6.3 2.9 1.2 13.5 2 23.5.8 10.1 1.6 18.5 1.8 18.7s5.9 1.3 12.8 2.4c22.2 3.7 39.1 7 62.8 12.2 7.4 1.6 13.6 2.9 13.8 2.9s.4-9.9.4-22c0-16.9-.3-22-1.2-22-13.4-.2-28.2-4.1-42.5-11.3-18-9.1-32.4-12.8-43.3-11"/><path d="M243.5 184c.3.5.8 1 1.1 1 .2 0 .4-.5.4-1 0-.6-.5-1-1.1-1-.5 0-.7.4-.4 1m70.8 49.6c-5 3.3-5.1 3.5-4.1 6.5.6 1.6.8 5.7.6 9-.3 4.8-1 6.5-3.3 8.9-1.6 1.6-2.7 3.1-2.4 3.2.2.2 1.8 1 3.4 1.9 1.7.9 4.5 3.8 6.3 6.4 1.7 2.6 3.2 4 3.2 3.2 0-.9 1.8-3.5 4.1-5.9 2.2-2.4 4.5-5.1 5-6 1.1-2.1-.5-6.5-5.7-15l-3.6-5.9 2.3-2.5c1.6-1.7 2-2.7 1.2-3.2-.6-.4-1.2-1.5-1.4-2.4-.3-1.5-1.2-1.2-5.6 1.8m177.9 60.8c4.3 2.4 9.6 5.7 11.8 7.3 4.1 2.9 5.4 5.1 2.3 3.8-1-.4-4.7-1.8-8.2-3.1l-6.3-2.5 3.6 4.8c2 2.6 4.1 5.7 4.5 6.8.8 1.9 10.3 10.5 11.5 10.5.3 0 .6-6.2.6-13.8v-13.8l-10.7-1.8c-6-1-12.1-2-13.8-2.3-2.2-.3-1 .7 4.7 4.1m-39.1.7c14.3 22.1 32.7 58.4 40.4 79.4l3.3 9 4.1.3 4.1.3v-16.9c0-19.3 1-26.1 4.5-31.4 1.4-2.1 2.5-5.1 2.5-6.7 0-2.8-.8-3.3-19.2-12.4-10.6-5.2-22.9-11.9-27.3-14.9-4.4-2.9-9.4-6.2-11-7.2l-3-1.9z"/></svg>