<svg xmlns="http://www.w3.org/2000/svg" width="682.667" height="512" version="1.0" viewBox="0 0 512 384"><path d="M307.9 6.3c-10.8 10.5-18.2 18.7-17.7 19.3.4.3 2-.2 3.7-1 4.4-2.3 4.5-2.1 1.3 2.6-4.6 6.9-4.8 7.3-1.5 5l3-2.1-1.4 5.2c-.7 2.8-1.3 6.7-1.3 8.5v3.4l2.1-2.3 2-2.4-.6 3.8c-.4 2.7-.3 3.7.4 3.2.7-.4 1.1.8 1.2 3.2 0 2.9.2 3.3.8 1.8.7-1.7.9-1.5 1.6 1.5.4 1.9 1.3 4.3 1.9 5.3 1.4 2.2-.9 4.2-6.7 5.8-5 1.3-5.5 3.2-2.6 8.5 2.1 3.9 2.2 4.7 1 7.9-1 3-1 3.9 0 5.2.8.8 1.4 3.2 1.4 5.2.3 7.1 1.8 15.6 3.2 17.2.8 1 3.8 1.9 7.3 2.3 6.3.7 7.1 1.6 4.5 5-2.3 3-1.8 3.8 1 2 2.3-1.5 2.5-1.5 1.9 0-.8 2.1.2 2 3.4-.3l2.7-1.9-.1 6.7c-.1 9.9-.3 11.1-1.7 11.1-2.1 0-4.7 3.4-4.7 6.2 0 1.8-2 4.3-7.6 9.3-4.1 3.8-8.5 7.6-9.7 8.3-7.1 4.7-26.8 27.4-26.7 30.7.1.5.7.1 1.5-.9 1.6-2.1 1.8-1.8 1.6 2.9-.1 2.8-.1 2.9 1.1.9.7-1.2 1.8-1.9 2.5-1.7.6.2 1.4-.5 1.8-1.7s.9-1.9 1.1-1.7c.3.2-2.5 6.7-6.1 14.3-9.1 19.2-9.9 22.3-9.2 36.4.5 8.9 1.4 14.3 4.2 24 2.4 8.5 3.8 15.6 4.2 22.1l.6 9.6-3.4.6c-1.9.4-10.4 1.4-18.9 2.3-16.6 1.7-26.7 1.5-41.3-1.1-12.5-2.2-14.2-3.2-16.2-10.2-.9-3.2-2.2-6.4-2.7-7-.7-.9-.7-1.3.1-1.3.6 0 1.1-.6 1.1-1.4s.5-1.6 1.2-1.8c.8-.3.5-1.5-1-4-1.4-2.3-2.2-5.1-2.2-8.1 0-3.7.5-5 3-7.3 2.8-2.7 2.9-3 1.4-5.2-1.8-2.7-.6-4.3 2.5-3.5 2 .5 6.4-3.4 5.5-4.9-.4-.6 0-1.6 1-2.3 1.5-1.1 1.5-1.6.1-5.5-.8-2.4-2.4-5.7-3.5-7.5s-2-4.4-2-5.9c0-6.4-5.3-11.2-8.4-7.7-1.2 1.3-3.6 1.8-10.3 2-20.3.5-26.1 8.9-31.3 45.6-.6 3.8-3.1 13.6-5.5 21.6-7.3 23.9-8.5 31-7.5 46.9.9 13.6 2.5 22 4.2 22 .5 0 .7.4.4.9s.8 4 2.6 7.7c1.7 3.8 3.3 6.3 3.6 5.5.3-1 .9-.8 2.2.9 1.6 2.1 1.6 2.6-.5 9.9l-2.2 7.6 37 .3c20.4.1 37.2.1 37.4-.1.2-.3-3.2-18.6-6.2-32.3-1-4.6 11-5.6 31.5-2.5 21.3 3.3 27 4.4 27 5.3 0 2.5-3.3 21-4.5 25.1l-1.4 4.7h65.5c35.9 0 65.4-.3 65.4-.6 0-1.2-11.7-20.7-23.7-39.2-4-6.2-5.3-9.2-5.3-12 0-4.6-1.6-10.3-4.5-16.4-1.2-2.6-2.5-7.7-2.9-11.5-.4-3.7-1.2-10.7-1.8-15.5-1.1-8.7-.3-17.8 2.3-27.9l.9-3.6 5.2.5c4.7.4 5.1.3 4.3-1.4-2.6-6.4-3.8-10.6-4.2-15.9l-.5-6 5.6-4.8c6.2-5.3 8.9-9.7 8.8-13.9 0-1.6.4-2.8.9-2.8.9 0 1.3 4 1 8.6-.1 1.1.4 2.6 1.2 3.3 1.2 1 1.6.4 2.1-3.3.7-4.5 2.7-5.6 4.7-2.5 1.9 2.8-1.7-20.4-4.1-26.7-.5-1.3-.7-3-.4-3.8.6-1.7-1.7-12.7-4.1-19.5-1-3-1.2-4.7-.5-5.1s.4-2.3-1-5.4c-2.9-6.8-2.5-6.7 2 .2 2.2 3.4 4.4 6.2 5 6.2 1 0 .9-1-.7-7.5-.6-2.8 1-.5 4.8 6.7 2.9 5.8 4.6 7.5 3.6 3.9-.3-1.4 0-1.7 1.3-1.4 1.3.4 1.9-.2 2.2-1.8.3-2.1.4-2.2 2-.6.9 1 2.1 1.6 2.5 1.5.4-.2 3 2 5.6 4.7 2.7 2.8 4.6 4.5 4.3 3.8-.4-.6-.8-4.1-1.1-7.6l-.4-6.4 2.6.5c1.8.3 2.4.1 1.9-.7-.4-.6-.5-1.1-.3-1.1.3 0 1.9 2.3 3.7 5 3.5 5.5 5.1 6 3 1-1.7-4-1-4.5 3.2-2.2 3.2 1.8 3.4 1.9 3.5.1.1-1-.5-2.3-1.3-3-1-.8-1.1-1.5-.4-2.4.7-.8-.1-2.7-2.7-6.3-2-2.9-3.4-5.5-3-5.8.6-.6 4.6 2.5 8.9 6.9 3.3 3.5 5.3 2.8 3.2-1.1-.7-1.5-1.4-3.4-1.4-4.3s-.7-3.5-1.5-5.8c-1.5-4.5-1.4-4.7 1.8-3 2.1 1.1 2.1 1.1.6-.7-.9-1-4-6.1-6.9-11.3-7.5-13.3-7.6-15.6-1.2-34.7 8.1-23.8 8.3-25.8 5.8-43.9-3.1-21.3-6.5-29.2-17.2-39.9L406.7 0h-92.3zM363 144c0 .5-.2 1-.4 1-.3 0-.8-.5-1.1-1-.3-.6-.1-1 .4-1 .6 0 1.1.4 1.1 1m13.4 10.6c.3.8.2 1.2-.4.9s-1-1-1-1.6c0-1.4.7-1.1 1.4.7M152.2 357.7c-.9 2.5-1 2.1-1-2.7s.1-5.2 1-2.8c.6 1.9.6 3.7 0 5.5"/></svg>