<svg xmlns="http://www.w3.org/2000/svg" width="682.667" height="512" version="1.0" viewBox="0 0 512 384"><path d="M302.6 9.1c-4.7 4.9-8.6 9.4-8.6 9.9 0 1.1 4.7-.5 6.7-2.2 2.4-2 1.3.3-2.7 5.6-4.8 6.3-5.2 8.1-.9 4 3.1-2.9 3.1-2.9 2.4-.4-1.8 5.6-2.4 9.7-2.3 14 0 2.5.3 3.5.5 2.3s1.1-2.7 2-3.5c1.4-1.2 1.5-.9.9 2.5-.5 2.7-.4 3.7.3 3.2.7-.4 1.1.6 1.1 2.7 0 2.4.3 2.9.9 1.9.8-1.2 1.1-.8 1.6 1.5.4 1.6 1.2 3.9 1.8 5.2 1.4 2.8.5 3.8-5.9 6-5.8 2.1-6.7 4.6-3.4 9.3 2 2.8 2.1 3.4 1 7.5-1.1 3.8-1.1 4.7.3 6.2 1.1 1.1 1.3 2.2.7 3.2-.5.8-.6 1.8-.3 2.3s.9 4 1.3 7.9c.5 4 1.5 7.6 2.4 8.7.9 1 1.4 2 1.2 2.2s2.3.5 5.6.6 6.3.4 6.6.7c.2.3-.5 2.1-1.6 4.1-2.3 3.8-2.2 4.1 1 2.4 1.5-.8 1.9-.8 1.4 0-1.1 1.8.9 1.3 3.7-.9 1.4-1.1 2.7-2 2.9-2 .1 0 .4 3.6.5 8 .3 7.9.3 8-3.2 11.1-2.2 2-3.5 4.1-3.5 5.7 0 2.6-7.2 10.1-16.5 17.2-8.6 6.5-27.6 27.9-27.4 30.9 0 1 .2 1.2.6.3.9-2.3 2.3-1.2 2.3 2l.1 3.3 1.5-2.9c1.3-2.2 1.8-2.6 2.5-1.5.7 1.2.9 1.2.9 0 0-.8.2-1.2.5-1 .2.3-2.6 7.2-6.4 15.5-3.8 8.2-7.4 17-8 19.6-2.2 9.2-1.1 18.4 4.9 41.5 2.7 10.4 5.4 33.3 3.9 33.3-.3 0-7.9 1.5-16.9 3.4-20.4 4.3-30.7 5.2-43 3.7-13.2-1.6-19.9-3.6-20.9-6.4-.5-1.2-1.8-4.6-2.9-7.6-2-5.1-2-5.5-.5-8.1s1.5-2.9-.5-5.5c-3.4-4.3-3-10.5.8-14.3 3.5-3.5 3.6-3.9 1.3-6.4-1.5-1.7-1.5-1.8 1.1-1.8 3.8 0 7.6-2.8 7.6-5.6 0-1.4.6-2.4 1.4-2.4 1.3 0 1.2-.7-.1-4.8-.9-2.6-2.7-6.6-4-8.9s-2.3-5.3-2.3-6.7c0-6.3-4.5-10.3-8-7.1-1.3 1.2-4.4 1.8-11.1 2.1-5.4.3-10.5 1.1-12.3 2.1-9.4 4.7-14.3 14.5-17.6 35.8-1.3 8-4.4 20.9-7.2 30-7.6 25-8.4 30.5-7.1 49.2.9 14.6 1.3 16.5 4.7 25.3 3.7 9.5 7.1 15.1 6 9.9-.5-2.3-.4-2.3 1.1.3 1.7 3 2.8 3.7 1.9 1.3-.5-1.1-.2-1.3 1-.9 1 .4 1.5 1.2 1.2 2-.3.7-.8 2.9-1.2 4.8l-.6 3.6h35.6c19.6 0 35.6-.4 35.6-.8 0-.5-1.1-6.4-2.5-13.2-1.3-6.8-2.3-12.5-2.2-12.6 2.3-1.6 11.7-3.4 18.1-3.4 7.8 0 40.7 2.9 41.5 3.6.7.6-2.1 17.6-3.5 21.8-.8 2.1-1.4 4-1.4 4.2s29.9.4 66.5.4 66.5-.3 66.5-.6c0-.9-8.6-15-22.5-36.9-5.2-8.3-6.4-11-6.9-15.6-.6-6-2.3-11.6-5.2-17-4-7.6-5.6-40.3-2.6-51.9l1.7-6.5 5.2.3 5.3.4-1.9-4.4c-2.5-5.7-4.4-15.4-3.7-18.4.4-1.3 2.8-4 5.4-5.9 5.6-4 9.7-10.5 8.8-14-.3-1.3-.2-2.6.3-2.9 1.1-.7 2.1 2.7 2.1 7 0 3.1 2.1 6 3.3 4.7.4-.3.4-1.6.1-2.8-.6-2.5 2.1-5.9 3.8-4.9 1.6 1 .4-10.3-2.2-20-1.1-4.6-1.6-8.4-1.1-8.9 1.2-1.2-2.9-18.4-7-29.1-1-2.7-1.7-5.1-1.6-5.3.2-.1 2.1 2.4 4.2 5.7 5.1 7.9 6.5 8.1 4.4.7-1.7-6.4-.3-5.4 3.7 2.4 2.6 5 3.9 6.8 4.2 5.6.2-1.1.9-1.6 1.8-1.3s1.4-.1 1.4-1.4c0-2 1.1-2.6 2.4-1.3.4.5 1.2.8 1.7.8.4 0 3.1 2.2 5.8 4.8l5 4.9-.5-3.6c-.2-2-.6-5.2-.9-7.2-.4-3.4-.3-3.6 2-3 2.9.7 3.1-.1.9-3.2-.9-1.3-1.4-2.5-1.2-2.8.3-.2 2.3 2.6 4.5 6.3 4.5 7.6 7.4 9.8 4.8 3.7-.8-2-1.3-3.9-1.1-4.2.3-.2 2.1.5 4 1.6 2.7 1.6 3.6 1.7 4 .7.2-.7-.2-2.1-.9-3.2-1.7-2.2-1.9-3.7-.3-2.7 1.3.8.5-.6-2.8-5.1-1.2-1.7-2.5-4.1-2.9-5.4l-.7-2.4 3.1 2.2c1.7 1.2 4.4 3.6 6.1 5.3 3.6 3.6 4.6 3.2 3.1-1.4-2.7-8.6-3.9-14.3-3.1-15.3.5-.6-.9-3.9-3.6-8.2-7.9-13.1-8.5-18.9-3.1-33.3 9.1-24.1 10.1-32 6.8-52.3-2.6-16-7-27.2-13.4-34L418.3 0H311.2zm-151 359.1c-1.4 5.2-2.6 2.8-2.6-5.2l.1-6.5 1.7 4c1.5 3.1 1.6 4.7.8 7.7"/><path d="M436.5 134c.3.5.8 1 1.1 1 .2 0 .4-.5.4-1 0-.6-.5-1-1.1-1-.5 0-.7.4-.4 1"/></svg>