<svg xmlns="http://www.w3.org/2000/svg" width="682.667" height="512" version="1.0" viewBox="0 0 512 384"><path d="M304.5 4c-2.1 2.2-3.7 4.2-3.4 4.4.2.3 2.4-.4 4.7-1.4l4.3-1.9-3.3 4.5c-6.8 9.2-6.8 9.2-2.9 6.4 3.1-2.1 3.4-2.2 2.7-.4-1.5 3.6-2.6 8.9-2.5 12.9 0 3.6.1 3.8 1.1 1.7 1.5-3.1 3.1-2.8 2.4.5-.7 3.2.7 8.9 2.1 8.6.5-.1 1.5 1.8 2.2 4.3 1.6 5.5.7 7-5.6 8.6-2.5.6-4.7 1.7-5 2.5s.5 3.6 1.7 6.3c2 4.3 2.1 5.3 1 7.9-.9 2.3-1 3.8-.2 5.8.6 1.6 1.1 3.9 1.1 5.3 0 5.7 1.7 16.9 3 18.3.7.9 1 2.1.6 2.7-.4.7.2.7 2 0 2.9-1.1 11.5-.2 11.5 1.2 0 .6-.9 2.3-2.1 4-2.2 3-1.9 4.9.4 3 .8-.7 1.7-.9 2-.6s2-.4 3.8-1.7l3.2-2.3-.5 4.2c-.5 3.3-.3 4.2.9 4.2 1.3 0 1.4 1 .8 5.7-.4 3.2-.8 5.8-.8 5.9-.1 0-1.4.8-2.9 1.7-2.2 1.4-2.8 2.5-2.8 5.2 0 1.9-.4 3.5-.9 3.5-.4 0-3.5 2.6-6.7 5.8s-8.3 7.5-11.2 9.6-9 8.2-13.5 13.5c-11.5 13.4-14 16.8-12.8 17.6.6.3 1.1.2 1.1-.3s1.2-1.8 2.8-2.8c2.5-1.6 2.6-1.6 1.3 0-.8.9-1.6 2.9-1.7 4.4-.3 2.6-.2 2.6 1.2.7.8-1.1 1.9-2 2.5-2 .5 0 1.4-.7 1.9-1.5 2.7-4.2.3 1.9-4.9 12.6-13 26.9-13.6 33.6-5.5 60.6 2.9 9.8 5.6 29.3 5.2 37.6l-.3 6.4-6 2.4c-12 4.9-36.5 13.4-43.3 14.9-6.4 1.5-8.1 1.5-19.4 0-17.5-2.3-16.4-1.8-17.7-7.1-.7-2.6-2.3-6.8-3.6-9.4-2.4-4.8-2.4-4.8-.3-5.3 2-.6 2-.6-.3-3.7-1.3-1.8-2.8-3.8-3.3-4.4-1.5-2.1.3-8.3 3.5-11.7 2.8-3 2.9-3.3 1.3-5.1-1.4-1.4-1.5-2.1-.6-3s1.5-.9 2.4 0c.8.8 1.6.6 3-1 1-1.2 1.8-1.7 1.8-1.2.1.5 1-.9 2.1-3.1 2.2-4.4 1.6-7.6-2.7-15.2-1.3-2.3-2.4-5.4-2.4-7 0-3.6-3.5-9.3-5.7-9.3-.9 0-2.5.7-3.5 1.6-1.3 1.2-4.1 1.7-10.5 1.9-9.6.3-11 .7-16.6 4.4-2.7 1.7-4.8 4.5-7.1 9-4 8.1-5.1 12.2-7.5 28.1-1.1 7.1-4.1 19.7-6.9 29-7.8 25.9-8.4 29.9-7.3 48.1.8 14 1.2 16.2 4.3 24.4l3.5 9 4.2.3 4.1.3.1-7.3.1-7.3 2.3 6.5c1.3 3.6 2.4 5.9 2.5 5.2.2-.6.4-1.7.5-2.2.1-.6.4-3.4.5-6.3l.3-5.2.7 5c.4 2.7.3 6.3-.2 8-.4 1.6-.8 3.1-.8 3.2 0 .2 15.1.3 33.5.3 26.1 0 33.5-.3 33.5-1.3 0-.6-.7-3.7-1.5-6.7-1.6-6.2-1.7-6.2 6-8.4 9.9-2.9 54.5-7.4 54.5-5.5 0 .4-.7 4.4-1.6 9s-1.7 9.4-1.9 10.6l-.2 2.3h137.6l-3.5-6.3c-3.4-6-7.2-12.1-16-25.7-11-17.2-12.7-20.5-12.5-23.8.2-4-3.2-15.5-5.8-19.9-1.5-2.4-2.3-7-3.5-19.7-1.6-15.9-1.3-22.9 1-33.5 1.4-6.4 1.2-6.2 6.1-5.5 4.3.6 4.6.5 3.8-1.2-.4-1.1-1.6-5.2-2.6-9.3-1.5-6.1-1.6-8.3-.7-11.8.5-2.4 1.4-4.3 1.8-4.3s2.8-1.8 5.2-4c5.2-4.5 8.6-11.4 6.7-13.6-.6-.8-.8-1.4-.4-1.4 1.7 0 4.3 4.6 3.8 6.8-.4 1.6.1 2.9 1.5 4.2l2.1 2-.5-4.8c-.2-2.8 0-4.2.5-3.3.7 1 1.3 1.1 3 .1 1.7-.9 2.1-1.7 1.6-3.8-3.3-15.2-5.1-27.2-4.2-28.1.7-.7.7-2.3-.1-4.9-.6-2.1-1.4-5.5-1.6-7.5-.3-2-1-4.5-1.6-5.6-1.4-2.6-1.3-3.1.6-3.1 1 0 1.4-.6 1-1.8-.3-.9-.8-3.1-1.1-4.7-.6-2.9-.6-2.9 1-1 .9 1.1 2.8 4.2 4.2 7 1.5 2.7 2.8 4.5 3 3.8s1.1-.9 1.9-.6c.9.3 1.4-.2 1.4-1.7 0-3.5 4-1.8 9.9 4.2l5.1 5.2-.5-7.3c-.4-6.5-.3-7.2 1.2-6.7.9.4 2 .1 2.4-.5.4-.7 1.7.6 3.4 3.5 3.8 6.5 6.4 6.1 2.9-.5-.8-1.7-1.3-3.3-1.1-3.6.6-.5 4.2 1.4 7 3.6 1.6 1.3 1.7 1.1 1.2-2.8-.3-2.3-1.6-5.9-2.9-7.9s-2.7-4.8-3.1-6.1l-.7-2.4 3.8 2.9c2.2 1.5 4.9 3.7 6.1 4.8 1.3 1.1 2.5 1.7 2.7 1.5.3-.2-.6-4.4-1.9-9.2-2.3-8.6-2.2-9.9.5-7.5 1.2 1.1 1.2 1 .1-.5-4.6-5.9-11-19.7-12.1-25.9-1.1-5.4-.3-8.2 7-27.2 2.3-5.9 4.8-14.4 5.5-18.8 1.3-7.2 1.2-9.3-.5-22.6-1.6-11.5-2.8-16.7-5.7-24L436.7 0H308.4zM427 148c.6 1.1.8 2 .6 2-.3 0-1-.9-1.6-2s-.8-2-.6-2c.3 0 1 .9 1.6 2M161 359.2c0 .2-.9 2.8-2 5.8l-1.9 5.5v-5.8c-.1-5.1.1-5.7 1.9-5.7 1.1 0 2 .1 2 .2"/></svg>