<svg xmlns="http://www.w3.org/2000/svg" width="682.667" height="512" version="1.0" viewBox="0 0 512 384"><path d="M305 2.5c-3.1 3.2-2.1 4 2.5 2.1 2.1-.9 3.9-1.6 4.1-1.6s-1.6 2.7-4.1 5.9c-5.3 6.9-5.8 8.7-1.3 4.5 1.9-1.8 2.9-2.3 2.5-1.2-2.5 7-4.3 19.3-2.8 18.3.6-.3 1.1-1.2 1.1-1.9 0-.8.6-1.8 1.3-2.4 1.1-.9 1.3-.1 1.3 4 0 3.4.5 5.4 1.5 6.2.9.6 1.9 2.4 2.3 4.1 1.6 6.6 1.4 6.9-3.9 8.7-6.8 2.2-7.6 3.7-4.6 9.3 2.3 4.3 2.3 4.8.9 7.8-1.1 2.4-1.3 3.8-.5 5.7.5 1.4 1.1 3.8 1.2 5.5.6 9.5 2 17.6 3.1 18.6.7.6 1 1.7.7 2.6-.5 1.3-.3 1.4 1.6.3 1.5-.7 4-.9 7.2-.5l5 .7-2.6 4.4c-2.7 4.6-2.6 5 .3 3.5.9-.5 3.1-1.5 4.7-2.2 1.7-.7 3.3-1.5 3.7-1.7s.5 1.8.1 4.4c-.4 3.4-.3 4.5.5 4 .9-.5 1.2.8 1.2 4.4 0 4.6-.4 5.5-3.6 8.5-2.5 2.4-3.4 4-3 5.2.7 2.1-7.9 10.9-17.6 18.1-9.4 7.1-29.2 30.1-27.4 31.9.4.4 1.2 0 1.7-1 1.3-2.2 2.9-1.3 2.2 1.3s1.1 2.6 2.3 0c.6-1.2 1.4-1.7 2.2-1.1.9.6-.3 4.2-5.2 14.7-11.1 23.6-11.8 31-5.2 54.1 4.1 14.5 5.4 23.1 5.8 37.6l.3 10.9-10 4.4c-22.1 9.8-38.5 15.6-46 16.1-6.3.5-23.8-.9-28.6-2.3-.9-.2-2.2-2.3-2.8-4.7-.7-2.3-2.6-6.6-4.1-9.5-2.8-5.2-2.8-5.3-.8-6.1 2-.7 2-.8-.9-4.2-2.7-3-3-3.9-2.4-7.7.4-2.7 1.6-5.3 3.5-7.2 2.6-2.9 2.7-3.2 1.2-4.9-2.2-2.5-2-3.1 1.2-3.1 3.6-.1 5.7-1.8 7.5-6.3 1.4-3.3 1.4-4.2.1-7.8-.8-2.3-2.3-5.6-3.4-7.4s-2-4.5-2-6.1c0-3.7-3.5-9.4-5.7-9.4-.9 0-2.4.7-3.4 1.6-1.2 1.1-4.5 1.7-10.6 2.1-4.8.3-10.1 1.1-11.8 1.7-10.7 4.5-16.7 18.2-20 45-.4 3.3-2.9 13.3-5.6 22.3-8 26.4-8.9 32.2-7.8 49.3.8 14.6 1.1 16 4.7 26 2 5.5 2 5.5 6.6 5.8l4.6.3v-4.5c0-5.9 1.4-5.9 3.1-.1.7 2.5 1.7 4.5 2.1 4.5s.9-3.3.9-7.3c.1-5.8.3-6.5.9-3.7.4 1.9.8 3 .9 2.5.1-.6.5-.4 1 .4.6.9.6 2.4 0 3.8-.5 1.4-.9 2.9-.9 3.4s13.2.9 33.1.9h33.1l-.8-3.8c-1.7-8.4-1.7-8.4 6.8-10.9 8.8-2.5 31.3-6 44.8-7 8.8-.6 9.2-.5 8.7 1.3-1 3-3.7 19.7-3.3 20.1.1.2 31.4.2 69.4.1l69.2-.3-9.3-15.3c-5-8.3-12.5-20.5-16.6-27-4.1-6.4-7.4-12.4-7.4-13.2.2-4.8-2.2-14.9-4.8-20.3-2.4-4.8-3.3-8.3-3.9-15.7-1.2-12.7-1.2-30.4 0-36 2.2-10.1 1.6-9.3 6.5-8.5 2.5.3 4.5.5 4.5.3s-.9-2.7-2-5.6c-2.3-6-2.7-17.9-.7-20.3.6-.8 2.9-2.7 4.9-4.2 2.1-1.5 5-4.8 6.4-7.4 2.3-3.7 2.5-4.9 1.6-6.4-.7-1.1-.8-1.9-.3-1.9s1.2.8 1.5 1.7c.6 1.5.8 1.5 1.7.3.7-1.1.9-.1.7 3.2-.1 2.6.1 5 .4 5.4 1.2 1.1 3-.8 2.5-2.6-.2-1 .6-3 2-4.6 2.7-3.2 2.7-5-.7-20.9-1.1-5.7-1.4-8.7-.7-9.4 1-1-.1-8.3-2.4-15.7-.5-1.7-.7-3.8-.4-4.6s.2-3.4-.4-5.7c-.8-3.6-.7-4 .6-3 .8.7 3 4.2 4.8 7.8 2.3 4.4 3.4 5.9 3.5 4.4 0-1.6.5-2.1 1.5-1.7s1.5 0 1.5-1.6c0-1.7.4-2 2.3-1.5 1.2.4 3.1 1.6 4.3 2.8 1.1 1.2 3.4 3.5 5.1 5.1l3.1 2.8-.4-6.5c-.4-6.3-.3-6.5 2.1-7 2.2-.4 3 .2 5.2 4 2.9 5.1 5.5 4.6 2.9-.5-.9-1.7-1.6-3.6-1.6-4.2 0-1.2 6.1 1.6 7.2 3.4.5.7.8.4.8-.7 0-1 .5-1.5 1-1.2 1.8 1.1 1.1-1.1-1.6-5.1-1.5-2.1-3.5-5.9-4.5-8.2l-1.9-4.4 5.2 3.8c2.9 2.1 5.7 4.4 6.1 5.1s1.5 1.3 2.4 1.3c1.1 0 1.3-.3.5-1.3-.5-.6-1.7-4.1-2.6-7.7s-1.9-7.3-2.2-8.3c-.5-1.7-.3-1.7 1.8-.6 2.2 1.1 2.2 1.1.7-.7-5.3-6-12.9-22.8-12.9-28.4 0-1.6 1.6-7.3 3.6-12.7s4.9-13.2 6.4-17.3c4.9-13.3 5.4-19.5 3-36-2.1-14.5-3.1-18.8-6.6-26.8L439.5 0H307.3zm123.8 145c-.3.3-.9-.2-1.2-1.2-.6-1.4-.5-1.5.5-.6.7.7 1 1.5.7 1.8M162.7 338.2c-.3.8-.6.5-.6-.6-.1-1.1.2-1.7.5-1.3.3.3.4 1.2.1 1.9m-.7 25.3c0 .2-.4 1.4-.9 2.7s-1.2 3.6-1.6 5.2c-.8 3.9-2.5 1.6-2.5-3.6 0-5.5.8-7 3.1-5.7 1 .5 1.9 1.2 1.9 1.4m-13.3 9.7c-.3.8-.6.5-.6-.6-.1-1.1.2-1.7.5-1.3.3.3.4 1.2.1 1.9"/></svg>