<svg xmlns="http://www.w3.org/2000/svg" width="682.667" height="512" version="1.0" viewBox="0 0 512 384"><path d="M306 1.5c-1 1.2-.9 1.5.7 1.5 1 0 2.8-.7 3.9-1.5 1.8-1.4 1.8-1.4-.7-1.5-1.5 0-3.2.7-3.9 1.5m4.3 3.7c-6.4 8.5-6.6 9.6-.9 4.9 1.8-1.5 1.9-1.5 1.1.4-1.2 2.8-3.3 14.8-2.8 15.8.3.4 1.3-.3 2.4-1.5l2-2.3-.6 3.2c-.4 1.8-.3 3.3.2 3.3s.7 1.7.5 3.7c-.3 3.4-.2 3.6 1.1 2 1.4-1.6 1.5-1.5 2.1 2 .3 2.1.7 4.7.9 5.7.2 2-2.1 3.6-7.8 5.3-3.6 1-4.4 4.2-2 8 1.3 2 1.6 3.7 1 7.9-.3 3-.3 5.9.1 6.5.4.7.9 5.5 1.1 10.8.3 6.2.9 10.4 1.9 11.9.8 1.2 1.2 2.7.8 3.3-.4.8.1.9 1.7.4 3.3-1 2.9-1 7.7-.2 2.3.4 4.2 1.1 4.2 1.5s-.9 2-2 3.7c-1.1 1.6-2 3.3-2 3.7 0 1 4.7-1 8.4-3.6l2.9-1.9-.5 4.7c-.5 3.8-.3 4.6.8 4.2s1.4.7 1.4 4.8c0 4.9-.4 5.8-3.6 9-2.3 2.3-3.4 4.2-3 5.2.7 1.8-8.3 10.9-17.4 17.7-6.8 5-7.5 5.7-18.2 18.5-8.5 10.3-12.4 16.7-7.5 12.5 1.2-1 2.8-2.5 3.5-3.3.8-.9.7-.2-.3 1.8-.9 1.8-1.4 4.1-1.2 5 .3 1.3.7 1 1.6-1.2.6-1.6 1.4-2.6 1.8-2.2.3.3 1.2.1 2-.6 1.8-1.5 1 .5-6 15.2-11.4 23.8-12 30.1-5.7 53.4 4.7 16.9 7.2 33.3 6.8 43.5l-.3 7.2-12.5 5.8c-19.6 9.2-22.9 10.6-33.2 14.5-11 4.1-14.7 4.3-30.3 2.1-5.5-.8-10.3-1.5-10.6-1.5-.4 0-1.1-1.9-1.7-4.3-.6-2.3-2.7-6.8-4.6-10-3.1-5.1-3.3-5.7-1.5-5.7 2.5 0 2.4-.6-.6-4.6-3.9-5-2.8-12 2.4-16 1.2-1 1.3-1.5.3-2.7-1.5-1.8-.5-4.8 1.3-4.1 1.9.8 6.4-2.7 6.5-4.9 0-1 .4-1.5 1-1.2.6.4.7-.1.3-1.1-.4-1.2-.3-1.5.5-1 1.5.9-1.1-6.4-4.3-12.2-1.4-2.5-2.5-6-2.5-7.9 0-2.3-.8-4.2-2.5-5.8-2.9-3-4.9-3.2-6.8-.5-.8 1.1-1.6 1.8-1.8 1.6s-4.7 0-9.9.3c-8.6.6-10 1-14.4 4-8 5.5-12.2 16.7-15.6 41.8-.6 4.5-3.3 15.5-6 24.4-7.5 24.7-8.3 29.9-7.6 46.4.5 10.8 1.3 16 3.3 22.8l2.6 8.8 5.1-.3c4.3-.3 5.1-.6 5.2-2.3.3-6.8.5-7 2.1-2.3.9 2.7 2 4.8 2.4 4.8.9 0 1.4-4.4 1-9.4-.2-1.8.1-2.6.8-2.1.6.3 1.1 2.7 1.2 5.3.1 8 1.8 1.7 1.8-7l.1-7.8 2.8 1.2c1.5.7 2.8 1.2 2.9 1.3.1 0-.9 3.1-2.3 7-1.3 3.8-2.4 8-2.4 9.2v2.3h64.2l-.7-5c-.7-5-.7-5 2.7-6.4 5.7-2.4 19.4-5.6 34.7-8.1 19.5-3.2 23.6-3.4 23.4-1.5-.4 3.6-3.2 17.7-3.8 19.2-.7 1.7 3.1 1.8 69.9 1.8 38.8 0 70.6-.3 70.6-.6 0-.9-9.4-16.5-22.3-37.3-10-15.9-12.1-19.9-11.8-22.6.3-4-2.3-13.3-5.5-19.2-4.3-8.1-5.7-41.6-2.4-54.6l1.3-4.9 4.5.7c4.1.6 4.4.5 3.7-1.2-4.3-9.9-4.9-13.1-3.8-18.7 1.1-5 1.9-6.3 7.7-11.9 4.1-3.8 6.6-7.1 6.6-8.4 0-1.2.8-2.3 2-2.6 1.7-.4 2 0 2 3.3 0 2.5.5 4 1.5 4.4 1 .3 1.5.1 1.4-.7-.3-1.8 1.2-4.8 2.1-4.2.4.3 1.2-.8 1.8-2.3.7-2 .4-5.4-.9-12.2-1.1-5.2-2.1-13.1-2.3-17.5-.3-4.4-1.2-12.1-2.1-17-2.5-13.6-2.5-13.8-1.1-12.6.7.6 2.3 3.2 3.6 5.8 3.5 7.1 3.9 7.5 5.6 5.8.8-.7 1.4-2.1 1.4-3 0-1.2.5-1.5 1.6-1.1.9.3 1.9.6 2.3.6s3.1 2.2 5.9 5c5.7 5.5 6.2 5.8 5.7 3.2-.2-.9-.6-4.1-.9-7-.5-4.8-.4-5.1 1.3-4.2 2.8 1.5 3.1.2.9-3.6-1.1-1.9-1.8-3.4-1.5-3.4s2.4 3.1 4.7 7c3.9 6.5 6 8.5 6 6 0-.6-.7-2.5-1.6-4.1-2.1-4.2-1.1-4.7 3.5-1.6l3.9 2.6.6-2.2c.3-1.4-.3-3.5-1.9-5.8-1.3-2-3.1-5.3-3.9-7.3-1.4-3.5-1.4-3.6.3-2.6 1.1.5 4 2.5 6.5 4.5 2.5 1.9 4.7 3.2 4.7 2.7.2-.8.2-.6-2.2-9.7-2.3-8.6-2.3-9.1-.3-7.4.9.8.3-.9-1.4-3.6-6.8-11.1-9.7-18.6-9.7-25.5 0-5.6.8-8.5 5.8-21 8.3-20.6 9.1-26.1 6.7-44.9-1.3-9.5-2.9-17.4-4.6-22L442.8 0H314.2zM399 201c0 .5-.2 1-.4 1-.3 0-.8-.5-1.1-1-.3-.6-.1-1 .4-1 .6 0 1.1.4 1.1 1M165 339.9c0 .5-.6 1.1-1.3 1.4-.8.3-1.4-.1-1.4-.9s.6-1.4 1.4-1.4c.7 0 1.3.4 1.3.9m-3.3 14.3c-.3.8-.6.5-.6-.6-.1-1.1.2-1.7.5-1.3.3.3.4 1.2.1 1.9"/></svg>