<svg xmlns="http://www.w3.org/2000/svg" width="682.667" height="512" version="1.0" viewBox="0 0 512 384"><path d="M318 5.7c-.6 3.2-1.3 6.8-1.6 8-.2 1.3 0 2.3.6 2.3.5 0 1-.6 1-1.4 0-.7.7-1.9 1.5-2.6 1.3-1.1 1.5-.9 1.3 1.6-.1 1.6-.1 4.6 0 6.8.2 3.2.4 3.6 1.6 2.7 1.1-.9 1.5-.5 1.8 2.1.3 1.8.8 4.1 1.2 5 .6 1.3 0 2.1-2.6 3.2-1.8.8-4.5 1.7-6 2.1-2.3.4-2.8 1.1-2.8 3.6 0 1.6.7 4.4 1.6 6.1 1.4 2.6 1.4 3.7.4 6.8-.7 2.3-.9 4.7-.4 6.1.4 1.3.9 3.7.9 5.4.1 1.6.2 6 .3 9.8.2 5.3.6 7.1 2.2 8.4 1.5 1.4 1.7 2 .7 3.2s-.9 1.3.8.6c2.1-1 11.3-1 12.2-.1.3.3-.6 2.4-2.1 4.7-1.5 2.2-2.6 4.3-2.4 4.5.3.2 2.9-1.2 5.9-3 2.9-1.9 5.5-3.4 5.6-3.2.1.1-.1 2.5-.6 5.4-.4 2.9-.4 5.2 0 5.2.5 0 .9-.5.9-1 0-.6.5-1 1-1 .6 0 1 2.7 1 6.1 0 5.5-.3 6.3-3 8.6-1.7 1.4-3 3.5-3 4.7 0 2.3-10.5 13.1-21.7 22.3-2.8 2.3-8.6 8.4-12.9 13.5-4.2 5.1-8.4 10.1-9.2 11-2.7 3.1-.8 4.4 2.2 1.5l2.8-2.8-.7 3.1c-.7 3.1.8 4.3 1.9 1.5.7-1.9 2.6-2 2.6-.1 0 .7-2.5 6.4-5.6 12.7-8.8 18-10.7 24.6-10.1 35.4.3 5.8 1.4 12.2 3.2 18 5 16.4 6.5 24.7 7.1 39l.7 14-18.9 12.1c-20.7 13.3-33 20.5-39.4 23-3.5 1.4-6.2 1.6-16.3 1-6.7-.4-13.1-.9-14.2-1.2-1.4-.3-3-2.6-4.8-6.8-1.5-3.4-4.4-7.9-6.5-10.1-3.1-3.3-3.4-3.7-1.5-3.3 3.1.8 2.9-.5-.7-4.5-1.6-1.9-3-4.3-3-5.3 0-2.3 3.7-8.6 5.7-9.7 1.2-.8 1.2-1.1-.2-2.7-1.9-2.1-1.2-4 1.4-4 2.4 0 6.1-3.3 6.1-5.4 0-.9.6-2.5 1.3-3.6 1-1.8.7-3.1-2.5-9.3-2.1-4-4-8.9-4.4-11-.8-4.7-4.7-8.1-7.5-6.6-1 .5-1.9 1.5-1.9 2 0 .7-1 .9-2.4.5-1.4-.3-2.8-.1-3.1.4-.4.6-2.1.8-4 .4-1.9-.3-5.5.1-8.7 1-12.6 3.7-17.5 12.7-21.4 39.5-1.6 11.3-3.8 21.4-6.9 31.6-6.8 22.5-7.8 29.4-7 45.5.3 7.4 1.3 16.1 2.2 19.2l1.6 5.8h6.3c5.1 0 6.3-.3 6.7-1.7.4-1.6.5-1.6.6-.1.1 1.3 1 1.7 4.1 1.5l4-.1V375c0-4.7.4-9 .9-9.5.6-.6 2-8.4 3.1-17.5 1.2-9.1 2.3-17.4 2.5-18.5s.4-2.5.5-3c.1-.6.5-.1 1 1 1.4 3.3 1.1 9.1-.5 10.5-.8.7-1.5 2.8-1.5 4.6 0 2.8.5 3.5 2.5 4 3.3.8 3.2 2-.5 3.9-3.8 2-4.2 6.5-.8 8.8 2 1.3 2.1 1.8 1 3.4-3.7 5.4-3.8 6.4-.9 8.9 2.6 2.2 2.6 2.3 1.2 6.5-.8 2.3-1.5 4.5-1.5 5s14.2.9 31.6.9h31.6l-.7-2.8c-.6-2.8-.3-3 8.2-6.9 13.6-6.3 51.5-18.5 52.9-17 .5.5-1 9.4-3.1 18.7-.2.8-.7 3-1.1 4.7l-.6 3.3H436l-3.1-6.3c-5.7-11.2-27.5-47.4-35.1-58.1-1.9-2.6-2.5-4.3-1.8-5 1.7-2.2-3.3-20.5-6.3-22.7-2.9-2.1-4.3-43.1-1.8-52.7 1.2-4.9 1.5-5.3 4-5 3 .3 3-.1 1.1-6-1.2-3.7-1.1-5.4.4-13 1.1-5.9 2.2-8.9 3.4-9.6 3.1-1.6 9.2-8.6 9.8-11.2.4-1.6 1.2-2.3 2-2 .9.3 1.4-.2 1.4-1.4 0-1 .5-2.2 1-2.5.6-.4 1 1.3 1 4.3 0 3.5.4 5.2 1.5 5.6 1.2.4 1.5-.4 1.6-4.2.1-2.6.3-4 .6-3 .2.9 1.1 1.9 2 2.2 1.4.6 1.5-.2.8-7.1-.4-4.3-.9-9.6-1-11.8-.2-2.2-.8-6.1-1.4-8.8-.8-3.5-.8-5.2 0-6.6.9-1.4.8-2.9-.4-6.6-.9-2.6-1.4-5.1-1.1-5.6s-.4-3-1.5-5.6l-2.1-4.8 2.5 3c1.3 1.6 3 4.2 3.6 5.7.9 2.2 1.4 2.5 2.3 1.5.7-.7 1.5-1.9 1.7-2.6 1-3 4.7-2.1 7.9 1.9 1.7 2.2 3.6 4 4.2 4s1.6.8 2.3 1.7c1.2 1.6 1.3 1.5 1-.7-1.4-9.7-1.3-11 .6-11 2.5 0 2.4-.3-.8-5.8-1.8-3.1-2.1-4.2-1-3.3.9.7 1.7 1.7 1.7 2.2 0 1.7 9.3 15.4 9.7 14.3.2-.6-.6-3.5-1.7-6.4l-2-5.2 3.7 2.3c2.1 1.2 4.7 2.9 5.7 3.8 1.8 1.5 1.8 1.5.7-.6-.9-1.8-.8-2.2.6-2.5 1.3-.2 1.2-.8-1.1-3.5-2.6-3-6.1-10.2-5.4-10.9.2-.2 2.9 1.4 5.9 3.6 2.9 2.2 5.7 4 6 4 .4 0-.2-3.5-1.4-7.8-1.1-4.2-2.1-8.6-2.2-9.7s-1.8-5.5-3.8-9.9c-4.1-8.7-6.7-16.7-6.7-20.5 0-1.4 3.1-10.2 6.9-19.5 9.1-22.7 10-27.9 7.7-46.3-.9-7.6-1.9-14.8-2.2-16.1l-.6-2.2H319.1z"/></svg>