<svg xmlns="http://www.w3.org/2000/svg" width="682.667" height="512" version="1.0" viewBox="0 0 512 384"><path d="M320.6 2.2c-.3 1.3-.6 3.9-.6 5.8.1 2.9.2 3.2 1.1 1.7 1.7-3 2.6-1.9 2.5 3.4-.1 3.3.3 5.3 1.1 5.6.7.3 1.3 1.6 1.3 2.8 0 1.3.7 3.1 1.6 4 2.2 2.1.4 4.2-5 5.6-7.2 1.9-8.2 4.1-4.6 10.2 2 3.3 2 3.6.4 7-1.1 2.3-1.4 4.1-.8 5.4.4 1 .9 3.4 1 5.3.4 10.5 1.8 19.2 3.1 19.7 1 .4 1.1.9.2 1.9-1.6 2-.5 2.8 1.9 1.5 2.5-1.3 8.2-1.4 10.1-.2 1.2.8 1 1.7-1.3 5.1-1.5 2.3-2.6 4.4-2.4 4.6s2.7-1.2 5.6-3.1c2.8-1.9 5.4-3.5 5.8-3.5.6 0-.1 5.5-1.3 9.5-.5 1.9-.5 1.9 1.4.2 2-1.8 2.1-1.7 2.5 4.5.5 5.9.4 6.5-2.3 9-1.6 1.5-2.9 3.7-2.9 4.8 0 2.4-10.9 13.6-19.7 20.2-2.8 2.2-8.7 8.1-13 13.1-4.2 5.1-8 9.4-8.4 9.7-1.1.8-4.9 7.4-4.9 8.4 0 .6 1.5-.5 3.3-2.2l3.4-3.3-.4 3.3c-.4 3.1-.3 3.2 1.1 1.4.9-1.1 2.2-2.1 3-2.2 1.5-.2-.4 4.6-6.9 17.6-9.7 19.2-10.9 31.9-5.1 51.2 4.8 15.9 6.8 27.5 7 40.7l.1 11.3-10 6.9c-22 15.3-38.9 26.2-45.7 29.6l-7.2 3.6-12.9-.7c-7.1-.4-13.4-1-14.1-1.2-.7-.3-2.4-3.1-3.9-6.3-1.4-3.1-4.2-7.4-6.2-9.5-3.9-4.1-4.2-4.8-2-4 2.4 1 1.7-1-1.4-4-2.5-2.4-2.9-3.4-2.4-6.5.3-2 1.8-5.2 3.3-7.2l2.9-3.6-2.2-2.2-2.1-2.1h2.9c3.6-.1 7.5-3.1 7.5-5.9 0-1.1.7-2.4 1.6-2.9 1.3-.7.9-2.1-3-9.7-2.5-4.9-4.6-10.2-4.6-11.7 0-5.2-6.6-9.1-8.8-5.2-.7 1.2-2.8 1.8-8.3 2.1-10.5.6-14 1.8-19.1 6.3-6.6 5.8-9.4 13.4-12.2 33.9-1.6 11.5-3.8 21.5-7.1 32.5-6.8 23.2-7.6 28.5-7 44.5.3 7.7 1.3 16.1 2.2 19.3l1.6 5.8h6.3c4 0 6.4-.4 6.7-1.3q.6-1.35.6 0c.2 2.2 4.1 1.5 4.1-.7 0-1.1.5-2 1-2 .6 0 1 .9 1 2s.5 2 1 2c.6 0 1-3.4 1-8.3s.5-9.2 1.4-10.8c.7-1.4 1.6-6.4 2-11 1.1-12 3.5-27.2 4.5-28.2.4-.4 1.1 1.9 1.4 5.3.6 5.3.4 6.5-1.5 9-1.8 2.5-2 3.3-1 5.5.7 1.5 2 2.5 3.2 2.5 3 0 2.4 2.3-1 4.2-3.8 2.2-3.9 5.5-.2 8.4l2.7 2.2-2.2 2.4c-2.9 3-2.9 6.2-.2 8.1 1.8 1.3 1.9 1.9 1 5.3-.6 2.2-1.1 4.2-1.1 4.6 0 .5 14.2.8 31.6.8h31.6l-.7-2.9c-.6-2.8-.3-3.2 4.3-5.5 12.6-6.4 55.7-22.2 56.6-20.7.4.5-2.9 18.1-5.1 26.8l-.5 2.3h152.4l-5.6-10.6c-3.1-5.8-12.7-21.9-21.3-35.7-14.2-22.7-15.7-25.5-15.4-29.2.3-4.8-3.1-16.2-5.8-19.7-3.5-4.5-5.2-36.5-2.7-50.8 1-6 1.3-6.5 3.9-6.8 3.1-.4 3.3-1 1.1-5.5-1.5-3.1-1.4-4 .4-12.7 2-8.9 2.3-9.5 6.7-13.3 2.5-2.1 5.5-5.7 6.6-7.8 1.1-2.2 2.4-3.7 2.9-3.4.6.4 1 .1 1-.5s.5-.8 1-.5c.6.3 1 1.9 1 3.6 0 1.9.5 2.9 1.5 2.9 1.4 0 2-1.7 1.6-4.8-.1-.6.3-1.2.9-1.2.5 0 1 .4 1 1 0 2.4 1.5.7 1.7-1.8.1-3.1-1.4-14.4-2.4-16.9-.4-1.1-.3-1.4.6-.9.8.6 1 .1.6-1.6-2.2-9.8-2.3-11.3-1.2-12 .9-.5.8-2.2-.4-6.7-.9-3.3-1.3-6.5-.8-7.2.6-1.1.9-1 1.5.4.9 2.5 3.1 2.1 3.8-.8.4-1.4 1.1-2.3 1.5-2 .5.3 1.1 0 1.3-.5.2-.6 3.1 1.6 6.5 4.9l6.2 5.9-.4-5.9c-.2-3.2-.6-6.3-.9-6.8s.3-.7 1.4-.4c2.8.7 2.6-1.4-.6-6-1.4-2.1-2.4-4.1-2.1-4.3.2-.3 3 3.8 6.1 9.1 3.1 5.2 5.9 9.5 6.2 9.5.8 0-.7-6.2-2.2-9.3-.8-1.5-1.2-2.7-1-2.7 1.1 0 8.2 4.5 9.4 6 1.1 1.3 1.2 1.2.7-.8-.5-1.6-.2-2.2 1-2.2s.9-.9-1.4-3.8c-2.9-3.6-6.7-11.2-5.6-11.2.3 0 3.1 1.8 6.1 4.1 3.1 2.2 5.8 3.9 6 3.6.3-.3-.4-4.1-1.5-8.5-2.5-9.4-2.5-9.5-.8-8.6.6.4.4-.2-.6-1.3-2.3-2.6-8.1-16.2-10.3-23.9l-1.7-6.1 4.8-11.4c12.4-29.8 13.1-33.2 11-52-.8-7.6-1.5-14.5-1.5-15.4 0-1.3-7.6-1.5-69.9-1.5h-69.9z"/></svg>