<svg xmlns="http://www.w3.org/2000/svg" width="682.667" height="512" version="1.0" viewBox="0 0 512 384"><path d="M332.8 3.7c.3 2.1.7 4 1.1 4.3.3.3 1.2 2 1.8 3.9 1.6 4.3.5 5.8-4.6 6.7-2 .4-4.2 1.1-4.8 1.7-1.7 1.3-1.6 5.9.2 8.3s1.9 4.8.1 8.3c-1.3 2.3-1.3 3.2-.2 5.3.8 1.5 1 3.1.5 3.9-.4.8-.6 2.3-.4 3.4s.7 5.1 1 9c.4 4.3 1.1 7.4 2 8.1 1.2.9 1.2 1.3-.2 2.7-2.5 2.5-1 3 3 1.1 2.4-1.1 4.6-1.5 7.1-1 2 .4 3.6.9 3.6 1.2 0 .2-1.2 2.2-2.6 4.4-1.5 2.2-2.4 4.3-2.1 4.6s2.5-.7 4.9-2.3c6.9-4.7 6.8-4.7 5.7-1.1-.5 1.8-.9 4.6-.9 6.3v2.9l1.7-2.4 1.8-2.5.6 3c1.6 7.3 1 11-2.1 14-1.6 1.6-3 3.8-3 4.9 0 2.1-10.6 13-20.9 21.5-6.4 5.3-24.1 25.8-24.1 27.9 0 1.2.3 1.2 1.8.1.9-.8 2.2-2.1 2.9-2.9 1-1.3 1.2-1.1 1.3 1.2 0 1.6.4 2.8.8 2.8.5 0 1.3-1.2 1.9-2.8.9-2.3 1.1-2.4 1.8-1 .5 1.2-1.2 5.8-5 14-12.7 27-13.7 34.2-8 53.8 6 20.7 7.5 27.9 8.1 40.5l.5 12-7.8 5.8c-4.3 3.2-11.8 9.1-16.8 13.3-11.6 9.6-31.6 25-35.8 27.3-4.8 2.8-9.9 3.3-22.5 2.6l-11.3-.7-2.4-5.2c-1.3-2.8-4.3-7-6.6-9.4-2.3-2.3-3.5-4.2-2.8-4.2s-.1-1.5-1.9-3.3c-4.7-4.9-4-11.7 1.8-16.5 1.3-1.1 1.3-1.3-.2-2.3-2.4-1.4-2.2-2.6.5-3.5 3.7-1.2 6.6-3.8 6.7-6 0-1.1.5-2.5 1-3 1.1-1.1-.7-5.8-5.5-14.3-1.4-2.4-2.5-5.4-2.5-6.5 0-5.3-6.6-8.9-8.9-4.9-.5 1-2.2 1.8-3.8 2-11.2.8-17.6 2.3-21.1 4.9-2 1.6-4.5 3.8-5.4 4.9-3.2 3.9-6.6 16.8-8.3 31.5-1.2 10.5-3 19.4-6.5 32-4.9 17.6-8.3 33.7-7.5 35 .2.4.7 6.1 1 12.6s1.3 14.3 2.1 17.1l1.5 5.3h8.9c8.4 0 8.9-.1 9.3-2.2l.4-2.3.2 2.2c0 1.4.7 2.3 1.6 2.3 1.3 0 1.5-.9.9-5.9-.4-3.5-.2-6.1.4-6.4.5-.4.7-1.8.4-3.2-.2-1.4 0-2.5.6-2.5.5 0 1.3-3.3 1.7-7.3 1.7-19 5.4-40.7 6.5-38.5.4.7 1.3 5.3 1.9 10.2 1.1 7.7 1 9-.3 10.5-2.1 2.3-2 6 .1 8.3 1.6 1.8 1.6 2.1 0 4.7-2.1 3.6-2.1 5.5-.2 7.1 1.1.9 1.5 3 1.5 6.9-.1 3.1.2 8 .6 10.8l.6 5.3h63.7l-1-3.2c-.5-1.8-.9-3.8-.9-4.5 0-2.4 55.6-30.3 60.4-30.3 1.2 0 1.5.6 1.1 2.3-.3 1.2-1.6 8-3 15.2-1.3 7.2-2.9 14.5-3.4 16.4-.6 1.9-.9 3.6-.7 3.8.1.2 36.1.2 79.9.1l79.7-.3-6.4-13.2c-3.6-7.3-8.4-16.5-10.8-20.5-2.3-4-4.7-8.1-5.3-9.1-2.8-4.8-23-36.4-24.4-38-1.1-1.3-1.2-2.2-.5-3.5 1.9-3-2.2-18.4-6.2-23.2-1.1-1.4-2.7-12.8-4.1-30.1-.6-7.2 2-24.3 4-26.8.7-.8 1.3-3.5 1.3-6 .1-2.5 1.1-8.8 2.2-13.9 1.5-7 2.5-9.7 4.1-10.9 3.3-2.2 7-6.5 8.3-9.4.8-1.8 1.7-2.5 3-2.1 1.2.3 1.8-.1 1.9-1.4 0-1.1.5-.5 1 1.2 1.3 4.6 3.3 4.9 4.8.7.9-2.4 1.6-3.1 2.1-2.3.9 1.5.3-6.4-1.1-13.3-1.2-6.2-1.1-7 .2-6.1.8.5 1 0 .6-1.7-1.6-6.4-1.9-11-.8-12.3.8-1 .9-2.1.1-4.1-.6-1.6-.7-3.1-.3-3.4.5-.3 1.8-2.1 2.9-3.9l2.1-3.4 3.8 4.6c2 2.5 4.1 4.4 4.5 4.1.5-.3 1.6.5 2.5 1.7 1.6 2.2 1.7 2.1 1.3-4-.3-4.7-.1-6.2.9-6.2 1.8 0 1.7-.7-1.3-5.7-1.4-2.5-2.4-4.7-2.1-4.9.2-.3 1.5 1.2 2.7 3.3 4.8 8.3 9.5 15.3 10.2 15.3.4 0-.3-2.9-1.7-6.5-1.3-3.6-2.2-6.5-2-6.5 1 0 8.2 4.5 9.4 5.9s1.3 1.4.7-.3c-.4-1.1 0-2.3.9-3 1.3-1 1.2-1.5-1.3-4.6-3.2-3.9-5.6-8-5-8.6.2-.2 2.9 1.5 6 3.7s5.9 3.6 6.2 3.1-.4-4.1-1.5-8.1-1.8-7.8-1.6-8.6c.3-.7.1-1.7-.5-2.3-1.1-1.1-4-7.7-8.4-19-1.3-3.4-2.4-7.9-2.4-9.8 0-2.2 2.5-9.3 6.6-18.8 9.1-20.7 10.8-27.4 10-40-.3-5.4-.9-10.2-1.2-10.7S440.7 0 401.6 0h-69.2zM460 102c1.7 2.7 3 5.5 2.8 6.1-.5 1.4-6.8-7.8-6.8-9.8 0-2.1.6-1.6 4 3.7"/></svg>