<svg xmlns="http://www.w3.org/2000/svg" width="682.667" height="512" version="1.0" viewBox="0 0 512 384"><path d="M342 1.3c0 .7.5 1.8 1.2 2.5 1.8 1.8-.8 4.1-5.4 4.8-4.9.8-6.9 3.5-5.7 7.6.4 1.6 1.3 3.6 2 4.4.9 1.1.8 2.3-.6 5.4-1.1 2.4-1.5 4.6-1 5.7.4 1 .9 6.7 1 12.7.2 9.2.6 11.2 2.1 12.3 1.7 1.2 1.7 1.4-.1 3.3-2.6 2.9-1.3 3.4 3.2 1.2 3.7-2 8.7-2 9.9-.1.2.4-.7 2.7-2.2 4.9s-2.5 4.3-2.2 4.5c.2.3 2.6-.9 5.2-2.5 2.5-1.7 4.9-3 5.2-3 .6 0-.2 5.6-1.3 9.5-.5 1.8-.3 1.8 2.1-.4 1.4-1.4 2.8-2.3 3-2 .2.2.6 3.1.7 6.5.3 5.4.1 6.5-2.4 9.7-1.5 1.9-2.7 4.3-2.7 5.1 0 1.9-12.3 14.2-19.5 19.6-5.1 3.8-22.7 23.7-25.4 28.7-1.5 2.9.2 3.1 2.6.3 1.3-1.5 2-1.7 3.1-.8 1.1 1 1.7.9 2.7-.5 1.1-1.5 3.5-2.4 3.5-1.2 0 .2-3.3 7.5-7.4 16.2-9.7 20.9-10.1 21.9-10 34.3 0 9.1.4 11.9 3.3 21 4.7 15.1 7 26.1 7.7 37.5l.6 10-6 4.5c-3.2 2.5-11.7 9.8-18.8 16.2-18.7 16.9-35.3 30.5-40 32.8-3.2 1.6-6.1 2-13.6 2-14.6 0-15.4-.3-18.8-6.9-1.6-3.1-6.1-9-10-13.1-8.7-9.3-9.1-12.8-2.3-19.8 1.6-1.6 1.7-2.9.3-3.7-.5-.3-1-1.3-1-2.1s.4-1.3.8-1c.4.2 2.2-.2 4-1.1 2.5-1.2 3.2-2.2 3.2-4.5 0-1.6.6-3.1 1.4-3.4 1.2-.5 1.1-1.4-.7-5.2-1.2-2.6-3.3-6.2-4.6-8.1-1.3-1.8-2.5-5-2.7-7-.2-2.4-1.2-4.4-3-5.9l-2.7-2.3-2.9 2.7c-2.5 2.5-3.5 2.8-8.8 2.7-10.3-.3-19.2 4.3-23.2 12-3.8 7.5-4.9 12.1-6.8 29.2-1.5 12.2-3.2 21-6.1 31.5-6.9 24.4-7.9 31.6-6.8 47.1 1.1 15.8 1.4 17.9 4.2 24.1l2.2 4.8h5.2c4 0 5.2-.4 5.5-1.7.3-1.6.4-1.6 2 0 2.2 2.2 3.8 2.1 3.8-.2 0-1.1.5-2.1 1.2-2.3.7-.3 1.4-4.1 1.9-9.9.4-5.2 1.2-12.6 1.8-16.4.6-3.9 1.8-12.7 2.6-19.6 1.8-13.8 3.9-23.3 4.8-20.9 2.6 6.8 3.7 25.3 1.6 26.6-.7.4-.9 2.3-.5 4.8.3 2.2.8 9 1 15 .4 8.8.9 11.3 2.4 13 1.4 1.5 1.7 2.8 1.1 4.6-.4 1.4-.7 3.5-.8 4.7l-.1 2.3h33.6c31.6 0 33.6-.1 32.9-1.8-.4-.9-1.3-3.8-2-6.5l-1.3-4.7 5.6-3.9c12-8.1 54.5-31.1 55.5-30.1.3.3.2 2.5-.3 5s-2.3 11.8-3.9 20.7c-1.7 9-3.3 17.4-3.7 18.8l-.6 2.5h82.6c45.4 0 82.6-.2 82.6-.5 0-1.6-9-21.7-13.9-31-6.1-11.6-23.2-39.4-33.2-54.1-3.3-4.8-5.5-9.9-3.8-8.9 1.4.9.3-8-1.7-13.7-.8-2.4-2.5-5.9-3.8-7.8-2.1-3.1-2.6-5.5-3.7-20.2-1.3-17.2-.5-30.6 2.2-37.5.6-1.6 1.2-4.4 1.4-6.3.1-1.9 1.2-8 2.4-13.5 2.1-9.3 2.5-10.3 7.2-15.2 2.7-2.8 4.9-5.7 4.9-6.2 0-.6.9-1.1 2-1.1s2-.5 2-1c0-1.7 1.8-1.1 2.5.9.6 2 4.5 3.6 4.5 1.8 0-.6.7-1.9 1.7-2.9 1.4-1.6 1.5-2.7.5-10-1.5-10.6-1.5-13.1-.1-12.2.9.5 1-.1.5-2-1.4-5.7-1.8-11.4-.8-12 .5-.3.8-2.3.6-4.4-.3-2.4.1-4.4 1.1-5.7 1.6-2 1.7-1.9 5.3 2.3 2 2.3 4.2 4.2 4.9 4.2.6 0 1.9 1 2.8 2.2 1.6 2.2 1.6 2 .9-3.6-.5-4.4-.3-6 .7-6.6 1.1-.7.9-1.7-.9-5.3-3.3-6.5-2.7-6.9 1.1-.6 5 8.2 9 14 9.3 13.6.2-.2-.7-3.2-2.1-6.7s-2.3-6.5-2.1-6.8c.7-.6 9.5 4.8 10.7 6.6.8 1.4.9 1.2.3-.8-1.1-4.1-1-4.5.8-4.4 1.4.1.8-1.1-2.2-4.8-6.1-7.8-5.5-8.3 2.7-2.5 2.4 1.7 4.6 2.7 5 2.4.6-.6-1.9-12.6-3.4-16.6-.4-1-.1-1.1.8-.5 1.2.6 1.2.5 0-1-2.7-3.3-12-27.2-12.1-30.9 0-1 3.4-9.3 7.5-18.4 8.2-18 10.5-26 10.5-35.9V0h-69c-55.9 0-69 .2-69 1.3m124.8 91.8c4.6 7.7 5.4 10.3 2.1 7.3-2.3-2.1-6.3-8.7-7.4-12.2-1.2-4.3 1-2.2 5.3 4.9M189 363c0 .5-.5 1-1.1 1-.5 0-.7-.5-.4-1 .3-.6.8-1 1.1-1 .2 0 .4.4.4 1"/></svg>