<svg xmlns="http://www.w3.org/2000/svg" width="682.667" height="512" version="1.0" viewBox="0 0 512 384"><path d="M345 1.5c-1.4.7-3.8 1.7-5.5 2.2-4.2 1.2-5.4 5.1-3 9.7 1.6 3 1.7 4.1.8 6.8-1.7 4.8-.6 28.7 1.4 31 1.3 1.4 1.3 1.9-.2 4.2-2.1 3.1-1.6 3.2 3.8.6 2.8-1.4 5.1-1.8 7.4-1.4 1.8.3 3.3.8 3.3 1.1s-1.6 2.8-3.6 5.5-3.4 5.1-3.2 5.3c.2.3 2.9-1.1 5.9-3s5.7-3.5 6.1-3.5.3 1.2-.2 2.7c-.4 1.6-1.1 4.1-1.5 5.8l-.7 3 2.6-2.4c1.4-1.4 2.9-2.2 3.2-1.8.3.3.8 3.3 1.1 6.7.5 5.5.4 6.3-1.9 8.8-1.4 1.5-3.3 4.4-4.3 6.5s-5.3 7-9.8 11c-16 14.3-29.3 28.5-33.8 36.1-2.4 4.1-1.3 4.8 2.1 1.1 2.1-2.2 2.4-2.3 3.5-.8 1.1 1.4 1.3 1.4 2.8-.7.9-1.3 2-2.1 2.3-1.7.7.7-1.8 7-6.8 17.2-8.7 17.8-11.7 30.1-9.8 40.9.6 3.3 2.7 11 4.5 17.1 4.1 13 6.3 24 7.1 35l.6 8-6.4 4.7c-5.9 4.4-14.3 11.8-33.3 29.6-8.7 8.2-18.8 16.5-24.9 20.6-3.7 2.5-4.5 2.6-17 2.6l-13.1-.1-2.8-6.3c-2-4.5-5.1-8.5-10.8-14.4-9.3-9.5-9.8-11.6-4.5-17.9 3.2-3.6 3.3-4.1 1.9-5.5-1.7-1.8-.9-4.2 1.2-3.4 1.9.7 6.1-4.2 5.7-6.6-.2-1.2.1-1.8.7-1.4.7.5.9-.3.7-2.1-.5-3.8-1.5-6.1-4.6-10.8-1.5-2.2-3-5.7-3.3-7.9-1.1-6.8-6.6-10.1-9.5-5.6-.9 1.5-2.3 2-6 2.1-21.7.2-28.7 9.2-31.8 41.4-1.1 11.1-2.7 19.3-6 31.5-6.8 25.5-7.6 30.5-6.8 45.5.6 12.5 2.4 23.2 4.1 24.4.5.3 1.5 2.8 2.4 5.6l1.5 5 4.7.3 4.7.3V380c0-4.9 1.6-4.5 2.6.6.6 3.4.7 3.4 2.1 1.4.8-1.1 1.2-2.4.8-3-.9-1.5.6-5.9 1.8-5.4.9.3 1.2-2.4 1.2-9.4 0-5.9.5-10.5 1.1-11.3.7-.8 1.5-5.5 1.8-10.4.9-11.1 4.5-33.7 5.6-34.9 1.6-1.7 3.5 8 3.5 18.6 0 7.3-.4 11.1-1.2 11.9-1.6 1.6-1.7 6.5-.3 7.4.6.4 1 3.2.9 6.3-.2 6.8 1.8 17.2 3.6 19 .9 1 1 2.4.4 5-.5 2.1-.9 4.7-.9 5.9v2.3h34.5c19 0 34.5-.1 34.5-.3 0-.1-1.1-3.8-2.5-8.2s-2.5-8.1-2.5-8.1c0-.5 21-14 29-18.6 12.9-7.4 30.6-16.8 31.8-16.8.6 0 .4 2.6-.4 6.8-.7 3.7-2.4 13-3.9 20.8-1.4 7.7-3.2 16.4-4 19.2l-1.3 5.2h169.7l-3.2-7.7c-6.2-15.5-18.8-39.2-31.6-59.3-18.6-29.3-20.3-32.2-19.3-32.9 2.6-1.7-1.4-17.3-5.8-22.6-1.3-1.5-2-5.9-3-17.7-1.3-16.4-.9-27 1.5-37.3 2.8-11.9 5.4-24.1 6-28.2.5-3.1 1.5-4.8 3.4-6.2 1.5-1.1 3.9-3.6 5.2-5.6 1.3-1.9 3.2-3.8 4.2-4.1.9-.3 1.7-1.3 1.7-2.2.1-1.2.5-.9 1.5.9.8 1.5 2.3 2.9 3.5 3.2 1.1.3 1.7.1 1.4-.4s.2-1.2 1-1.5c2.5-1 2.8-4 1.5-13.5-1.1-7.3-1.1-9.2 0-9.8 1-.7 1-2 0-6.9-.9-4.7-.9-6.5 0-7.6.7-.8.9-2.5.6-3.8-.3-1.2-.2-3.6.3-5.2l.8-2.9 4.3 5.1c2.4 2.8 4.9 4.8 5.6 4.6.7-.3 1.5.2 1.8 1 1.4 3.6 2.4 1.3 1.6-3.6-.6-3.7-.5-5.4.3-5.9.9-.6.8-1.7-.5-4.5-2.2-4.4-1.5-5.8.7-1.5.9 1.7 3.5 5.6 5.7 8.8 4.2 5.9 4.3 5.2.9-4-1.1-2.7-1.4-4.7-.8-4.7s3.3 1.6 5.9 3.5l4.9 3.5-.4-3.6c-.4-3-.2-3.3 1-2.3 2.4 2 1.5 0-2.1-4.8-1.9-2.5-3.3-4.8-3.1-5.1.3-.2 2.6 1.1 5.1 2.8 2.9 2 5 2.9 5.6 2.3 1.4-1.4-3.3-18.2-9.1-32.5-2.7-6.9-5-13.9-5-15.7 0-1.9 3.1-9.9 7.4-19.4C480.7 20.9 484 10.5 484 3.4V0l-68.2.1C361.6.2 347 .5 345 1.5m126 87.6c2.9 4.9 5 9.3 4.7 9.5-1.1 1.2-7.8-7.4-9.7-12.4-2.3-6-2.3-6.2-1.1-6.2.5 0 3.3 4.1 6.1 9.1M192 360.9c0 .5-.7 1.4-1.5 2.1-1.6 1.4-1.8 1-.9-1.4.6-1.7 2.4-2.2 2.4-.7"/></svg>