<svg xmlns="http://www.w3.org/2000/svg" width="682.667" height="512" version="1.0" viewBox="0 0 512 384"><path d="M367 1c0 .5.9 1.5 2 2.2 2.6 1.7 2.5 2.6-.7 6-1.4 1.5-2.4 3-2.1 3.3.3.4 3.4-.7 6.9-2.2 7.5-3.4 10.5-3.3 8.7 0-.6 1.2-2.4 3.7-3.9 5.5-4.9 5.6-3.4 7 2.9 2.7 5.5-3.7 6.3-3.3 4.6 2.2-2.1 6.9-1.7 7.2 2.6 2.4l3.8-4.4.6 3.6c.3 2 .9 5.3 1.2 7.3.8 5.2-4.4 12.3-21.1 28.9-17.9 17.7-31.9 34.4-30.3 36.1.3.2 1.4-.5 2.6-1.6 2.2-2.1 2.2-2.1 2.2-.1 0 1.1-2.6 6.2-5.8 11.3s-6.1 10.1-6.5 11c-1.3 3.5 1.2 1.7 4.9-3.5 6.2-8.7 6.7-8 .9 1.3-3.5 5.7-3.7 6.8-1 6.2l2.4-.4-1.9 6.1c-4.4 13.9-3.9 19.8 3.1 41.9 2.1 6.8 3.9 13 3.9 13.8s-1.4 6.9-3.2 13.5c-3.1 11.8-3.3 12.2-7.2 14.7-2.3 1.4-9.9 8.2-17.1 15.1-43.2 41.9-44.4 42.9-58.9 45.3-9.1 1.4-7.2 2.6-16-10.7-5.2-8-13.4-15.7-20.7-19.5-4.9-2.5-5.6-6.8-2.3-12.6 2.4-4.1 2.4-4.1.4-5.9-2.4-2.2-2.6-3.5-.4-3.5.9 0 1.2.5.8 1.2s.7.2 2.4-1.1c2-1.4 3.2-3.1 3.2-4.6 0-1.2.7-2.6 1.5-2.9 1.4-.5 1.4-.9-.1-3.8-.9-1.8-3.4-5.5-5.5-8.1s-4-6.1-4.4-7.6c-.9-4-4.8-7.5-7.6-6.8-1.3.4-2.8.2-3.3-.2-1.2-.9-10.7-6.1-11.2-6.1-.8 0 1 6.7 2.3 8.7 1.6 2.4 1.4 2.7-4.6 4.3-2.7.7-6.1 2.8-9.1 5.6-4.1 3.8-5.2 5.7-7.3 12.7-2.2 6.9-2.7 10.9-3.2 25.2-.5 13.8-1.2 19.6-3.7 30.5-4.7 21.1-5.6 30.9-4.1 43.2 1.8 13.4 4.5 24.7 8 32.9 2.3 5.5 3.2 6.5 5.1 6.4 1.3-.1 2.7.5 3.2 1.4.8 1.4.9 1.4 1-.2 0-1.1.5-1.5 1.1-1.1.9.5 1-.9.5-5-.5-3.4-.4-5.6.2-5.6.5 0 1.2.9 1.5 2 1 3.8 2.7 2.1 2.8-2.8 0-3.8.2-4.3.9-2.5 1.9 4.8 4.2 2 2.9-3.6-.4-1.9-.5-4-.1-4.5.4-.6.5-3.5.3-6.4-.2-4.3.1-5.6 1.5-6.7 1.6-1.1 1.8-2.6 1.6-9.2-.2-7.4 3-30.5 4.8-34.8 1.4-3.3 1.2 33.3-.2 37.2-.9 2.6-.9 4 0 6.8 1.1 2.9 1 3.9-.3 6.4-1.9 3.8-1.9 7.1 0 9.7 1.4 1.9 1.5 1.9 5.5-.4 3.6-2.1 4-2.1 3.2-.5-.6 1-2 2.7-3.1 3.7-2.4 2.2-2.7 5.3-.7 7.8 1.7 2.4 3.7 2.3 7-.3 2.2-1.7 2.6-1.8 2.6-.4 0 .8-.8 2.7-1.7 4.1-1.3 2.1-1.5 3.1-.5 5.5 1 2.8 0 11.2-4.2 34.1l-.5 2.8H314v-3.2c0-2.1-4.7-12.8-13.7-31.1l-13.8-27.9 7.5-7.2c9.7-9.2 50.8-36.5 53-35.1 1.1.7-4.3 26.1-9.5 43.9-2.4 8.3-7.5 25.1-11.4 37.4s-7.1 22.5-7.1 22.8c0 .2 43.4.4 96.5.4H512v-27c0-25.7-.1-27.3-2.1-31.3-5.1-9.9-21.1-35.4-38.3-60.9-14.1-21-18.4-28-17.9-29.6.3-1.2.9-2.2 1.3-2.2 1.1 0-.7-8.8-3.1-14.7-1.5-3.8-2.7-5.3-4-5.3-1.5 0-1.9-.7-1.7-3.3.1-1.7-.4-9.5-1.1-17.2-1.5-16.5-1.1-21.6 3.6-43.4 1.9-9 3.8-18.8 4.3-21.7 1-5.8 3.9-9.5 9.3-11.5 1.5-.6 2.7-1.6 2.7-2.2 0-.8.3-.8.8.1 1.1 1.6 4.2.5 4.2-1.6 0-1.2.3-1.3 1.2-.4.7.7 1.7 1.2 2.4 1.2 1.6 0 4.4-6.1 3.9-8.6-1.5-7.3-1.4-8.3.2-7.7 1.4.5 1.5.1.9-2.8-2-10.2-2-10.9.4-10.9 1.7 0 2.1-.4 1.5-1.8-.3-.9-.9-3-1.2-4.6l-.6-3L482 76c3 2.2 3.3 2.2 2.6.5-.6-1.7-.5-1.7 1.7.3 1.3 1.2 2.6 2.2 2.9 2.2.8 0-.1-7.6-1.3-11.4l-.9-2.9 2.1 1.9c1.2 1 3.5 3.8 5.1 6.2 1.7 2.4 3.2 4.2 3.4 3.9.2-.2-.5-2.7-1.7-5.6-1.2-2.8-1.9-5.5-1.5-5.8.4-.4 2.1.2 3.9 1.2 3 1.8 3.1 1.8 1.7 0-1.4-1.7-1.3-1.7 1-1 1.4.4 3.1 1.4 3.9 2.4 1.2 1.4 1.3 1.3.6-.9-.9-3-1.5-9-.9-9 .3 0 1.7.8 3.1 1.7 1.5 1 2.4 1.2 2 .5-.5-.6-.4-1.2.1-1.2.4 0-2.2-3.3-6-7.3-6.9-7.3-10.6-14.2-9.4-17.3.6-1.5 1.3-1.1 4.9 2.4 2.4 2.3 5.6 6.7 7.2 9.7 6 11 7.4 6.3 2.6-8.2-1.6-4.9-4.5-12.6-6.4-17.3-3.6-8.5-4.7-14.6-3.3-18.8l.7-2.2h-66.5C390.2 0 367 .3 367 1"/></svg>