<svg xmlns="http://www.w3.org/2000/svg" width="682.667" height="512" version="1.0" viewBox="0 0 512 384"><path d="M372.2 2.1c-2 3.1-1 3.2 4.9.5l5.4-2.4-4.5-.1c-3.6-.1-4.8.3-5.8 2m15.3-.7c-6.2 8.5-7.6 10.8-7.1 11.3.3.3 2.6-.7 5.1-2.2 2.6-1.5 4.9-2.4 5.3-2.1.3.4 0 2.7-.6 5.3-.7 2.5-1.1 4.7-.9 4.9s1.8-1.4 3.6-3.6c1.7-2.2 3.6-4 4.1-4 .4 0 1.1 3.4 1.5 7.5.7 7.1.6 7.6-1.9 10.5-1.4 1.8-2.6 3.6-2.6 4.1s-7.1 8-15.7 16.7c-8.7 8.7-17.6 18.1-19.8 21-2.1 2.9-4.2 5.2-4.6 5.2-1.1 0-7.1 10.1-6.5 10.8.3.3 1.5-.3 2.6-1.3 1.9-1.8 2-1.7 2 .1 0 1-1.8 4.6-4.1 7.9-2.2 3.3-5.1 8.1-6.5 10.7-3.3 6.5-.6 5.3 4.6-2 4.9-6.8 5.1-6.2.5 1.5-4.1 6.8-4.3 7.7-1.4 6.8 1.9-.6 2.1-.4 1.5 1.6-4.4 15.1-4.9 18.4-3.9 25.5.6 3.9 2.9 13 5.3 20.2l4.2 13.1-2.5 9.3c-1.4 5.1-3.1 11.2-3.7 13.6-.9 3.4-2 4.8-5.3 6.9-2.3 1.4-10 8.3-17.2 15.2-27.9 27.1-39.2 37.5-43.3 40.1-2.7 1.8-7.5 3.4-13.2 4.5-8.7 1.7-9.1 1.7-11 0-1.1-1-2-2.2-2-2.7 0-1.2-10.2-14.8-12.9-17.2-1.1-1.1-3.1-2.4-4.4-3-1.2-.6-2.6-2.1-3.1-3.2-.5-1.2-2.8-2.8-5-3.6-3.7-1.3-4.1-1.9-4.4-5.2-.2-2.4.4-4.9 1.7-7.1 2-3.4 2-3.5.1-4.5-1.1-.6-2-1.7-2-2.5 0-1.7 1.7-2 2.2-.5.2.5 1.6 0 3.1-1.3 2.3-1.8 2.8-3 2.9-7.2.2-4.2-.3-5.8-3-9.8-1.8-2.6-3.7-4.7-4.2-4.7s-1.4-1.7-1.9-3.8c-1.4-5-4.5-8.2-8-8.2-1.5 0-3.6-.9-4.6-2-1.1-1.2-2.6-1.8-3.5-1.5-1 .3-2.3-.2-3-1-.7-.9-2.2-2-3.1-2.6-1.7-.8-1.8-.6-1.2 2.3.3 1.8 1.4 4.4 2.5 5.7 2.8 3.7 2.2 4.8-3.6 6.5-7.2 2.1-12.6 7.6-16.1 16.4-2.6 6.2-2.8 8.2-3.5 26.7-.6 16.8-1.2 22.3-3.9 34.5-3.8 17.5-4.7 28.1-3.2 38 .7 4.1 1.6 10.2 2 13.5 1 7.1 6.5 24.2 8.6 26.9.8 1.1 1.5 1.4 1.5.7s.5-.9 1-.6c.6.3 1 0 1-.7s.9-.2 2 1.2 2 1.9 2 1.2.5-1 1.1-.6c.9.5 1-.3.5-2.8-1.1-5.9 1.1-9 3.2-4.5.9 1.8 1.1 1.2 1.1-4.1.1-3.7.5-6.2 1.2-6.2.6 0 .8.9.4 2.1-.5 1.5-.3 2 .6 1.7 1.1-.3 1.5-3.3 1.7-11.6.2-10.2 1.1-13.3 2.6-10 .3.7.3-.9 0-3.6-.7-5.7 1.2-5.6 2.1.2.3 2 1 4.5 1.5 5.4.6 1.1.4 2.9-.5 5.2-2 4.8-1.9 8.9.3 10.9 1.7 1.6 2.1 1.5 5.5-.2 2-1 3.7-1.7 3.7-1.5s-.9 1.8-2 3.6c-2.3 3.8-2.5 6.6-.6 9.1 1.7 2.2 2.3 2.2 6.2-.8 2.5-1.9 3.3-2.2 3.7-1 .3.7-.3 2.5-1.4 3.8-2.2 2.9-2.3 4-.8 6.5.8 1.3.5 5.7-1.5 17.7-1.5 8.8-2.9 17.7-3.2 19.7l-.6 3.8H512v-75l-7.2-11.7c-3.9-6.5-10.5-16.8-14.7-22.8-23-33.7-31.1-46-31.1-47.6 0-.9.6-1.9 1.4-2.2 3.2-1.2-3.6-21.5-6.8-20.4-1.4.5-3.4-17.9-3.5-32-.1-7.3.6-13.7 2.5-22.5 1.4-6.8 3.6-17.8 4.9-24.5 2-10.9 2.6-12.6 5.3-15 1.6-1.6 3.8-2.9 4.8-3.1 2.6-.4 5.8-.9 6.5-1.1.4 0 .9-1.1 1.3-2.4s.9-1.8 1.3-1.1c.5.6 1.6 1.3 2.6 1.7 1.2.5 1.7.1 1.7-1.1 0-1 .6-2.4 1.2-3 .8-.8 1.2-3.5 1-7.2-.3-5.1-.1-6 1.3-6 1.2 0 1.5-.5 1-1.8-.4-.9-.9-4.1-1.2-7.1-.6-4.8-.4-5.4 1.1-4.8s1.6.2 1-3.1l-.7-3.7 2.2 1.9c2 1.8 2.1 1.8 2.1.1s.1-1.7 2 0c2.8 2.6 3.4 1.4 2.3-4.8-1.2-6.8-.2-6.7 5.1.8 2.2 3 4.2 5.3 4.3 5.1.2-.2-.8-3-2.2-6.1-1.4-3.2-2.3-6-2-6.3s1.6 0 3 .6c3.4 1.6 4 1.5 2.5-.3-.7-.8-.8-1.5-.3-1.5 1 0 5.4 2.9 6.6 4.4.5.6.6 0 .2-1.4-1.4-5.1-1.7-8.8-.6-9.4 1.9-1.2 1.2-3.7-2.1-6.9C504.1 38 500 31 500 27.8V25l4.9 3.7c2.7 2.1 5.4 4.7 5.9 5.8.8 1.5 1.1.1 1.1-6 .1-7-.3-9-3.4-16-1.9-4.4-3.5-9-3.5-10.3V0h-58.3c-48.4 0-58.4.2-59.2 1.4M208 282.3c-.1 9.3-.4 13.7-1.4 14.9-.7 1-1.6 1.5-1.9 1.1-1.9-1.8.6-30.8 2.5-29.7.4.3.8 6.5.8 13.7m143-.1c-2.6 12.6-6.6 28.5-9.5 37.3-.7 2.2-4.1 12.8-7.5 23.5s-7.1 22.3-8.3 25.7c-2.1 6.2-3.7 7.3-3.7 2.7 0-2.1-12.5-27.7-19.7-40.4-1-1.9-3.7-6.7-5.8-10.6l-3.8-7.2 3.9-4.7c3.6-4.3 13.8-12.4 25.6-20.4 8-5.3 30.2-19.1 30.8-19.1.4 0-.5 6-2 13.2"/></svg>