<svg xmlns="http://www.w3.org/2000/svg" width="682.667" height="512" version="1.0" viewBox="0 0 512 384"><path d="M0 192v192h435.1l-1.4-2.8c-.8-1.5-2.8-5.7-4.5-9.5-2.7-5.6-3.6-6.7-5.7-6.7-3.4 0-4.9-3-2.9-5.9 1-1.4 1.4-3.1.9-4.8-.9-3.7-11.1-23.8-13.9-27.7-1.3-1.7-2.6-4.7-2.9-6.6-.7-4.8-6.8-15.3-9-15.6-2.7-.4-3-1-3.3-5.7-.2-4.1-4.4-13.4-6.8-14.9-.6-.4-2.3-.8-3.9-.8-2.5 0-2.7-.3-2.1-2.8.4-1.5 1-3.1 1.5-3.6.4-.5.3-1.8-.3-3-1.5-2.9-5.9-8.1-6.9-8.2-.5-.1-1.3-.2-1.9-.3-.5 0-1-1-1-2 0-1.1-.5-2.3-1.1-2.7-.7-.4-.8-2-.4-4.1.8-4.3-2.1-13-4.9-14.5-1.4-.8-1.6-1.2-.6-1.8 1.6-1 1.5-8.2-.3-17.6-.9-4.5-1.1-7.9-.5-9.4.5-1.4.8-4.3.6-6.5-.2-3.7 0-4 3-4.9 2.3-.6 3.2-1.5 3.2-3 0-1.2.4-2.6.8-3.2 1-1.5 4.4-.9 5.9 1.1.8 1.2 2 1.5 4.2 1 2.7-.6 2.9-.9 2-3.2-.8-2.1-.6-2.8 1.2-4 1.5-1.2 1.9-2.2 1.5-4.2-.5-2.1-.4-2.3.4-.9 1.7 2.8 3 2.1 1.9-1.1-.5-1.5-.9-3.2-.7-3.7.4-1.4-2.3-7.4-3.4-7.4-.5 0-.7-.4-.3-.9.3-.6-.3-1.5-1.4-2-1.5-.9-1.9-2-1.6-5.8.1-2.7-.2-8.4-.6-12.8-1.7-15.9-4.1-41.2-4.9-52.2-.5-6.1-1.4-14.7-1.9-19-.6-4.3-1.5-15.2-2.1-24.3-1-15-2.5-32.8-3.5-40.5-.2-1.7-.7-5.8-1.1-9.3l-.7-6.2H0zm359.5 46.9c.3.5.1 1.2-.5 1.6-.5.3-1-.1-1-.9 0-1.8.6-2.1 1.5-.7"/></svg>