<svg xmlns="http://www.w3.org/2000/svg" width="682.667" height="512" version="1.0" viewBox="0 0 512 384"><path d="M0 192v192h295l.6-2.5c.5-1.9 0-3.1-1.8-4.9-5.1-4.6-6.1-7.2-6.5-16.9-.2-5.1-.8-23.4-1.2-40.9-.6-19.5-1.4-32.4-2-33.7-1.4-2.6-8.4-4.6-21.6-6.1-13.1-1.5-17.1-3.5-27.6-14l-8.6-8.5-1.1-7.2c-1.7-10.2-1.5-13.1 1-16.6 2.6-3.8 6.6-7.7 7.8-7.7.4 0 2.3-1.8 4-4l3.2-4-2.1-2.6c-2.2-2.8-2.8-5.4-1.2-5.4.6 0 1.8 1.4 2.8 3 .9 1.6 2 3 2.3 3s2.5-2 4.9-4.4c4-4.1 5.8-5.2 11.4-7 1.6-.5 1.5-.8-1-3l-2.8-2.4 4.3-4.6c5.6-6.1 5.5-7.8-.8-10.5-2.7-1.2-6.4-2.4-8.2-2.8l-3.3-.6 1.9 2.8 1.8 2.8-2.8-.7c-1.6-.4-3.9-.8-5.1-.9s-3.4-1.3-4.9-2.7l-2.7-2.5.7 2.8c1 4.3-1.3 3-5.4-3.1-3.4-5.1-6.2-6.7-10.5-6.4-3.2.2-14.8-3.9-16.5-5.8-1.9-2.2-17.1-7.3-19.3-6.5-.8.4-2.6.1-3.9-.6-1.2-.7-3.4-1.4-4.9-1.5-7.9-.9-26.1-10.4-25.2-13.1.3-.8-.9-1.2-3.4-1.2-6.9-.1-7.8-.2-11.8-1.9-4.9-2-10.7-7.2-10-8.9.3-.9-.9-.6-3.4.6-3.1 1.6-4.2 1.8-5.4.8-1.4-1-1.2-1.5 1.9-3.7 2-1.4 4.8-3.5 6.2-4.7l2.7-2.3-3.2 1.1c-2.5.8-3.8.7-6.2-.6-1.7-.8-3.1-2-3.1-2.5s-1.2-1-2.7-1.2c-2.6-.4-2.3-.7 3-3.1 3.1-1.5 5.7-2.9 5.7-3.1 0-.3-1.9-1.6-4.2-3-2.7-1.6-3.7-2.7-2.8-3 5.1-1.5 5-1.4 5-6.8 0-7.7 1.5-12.2 4.7-13.9 2.8-1.5 10.7-1.8 16.3-.7l3.5.8-3.3-2.1c-1.7-1.2-3.5-3.3-3.9-4.7-1.2-4.9 8.5-10.6 22.6-13.2 5.2-.9 7.9-.8 17.9 1 12.4 2.2 19.3 4.2 23 6.6 3 1.9 2.9 6.1-.3 12.4-1.4 2.7-2.5 5.2-2.5 5.5s1.2 1 2.6 1.5c2.1.8 3.9.4 9.7-2.4 7.7-3.6 16.9-6.2 25.7-7.1 3-.4 8.5-1.5 12.1-2.6 6.2-1.9 6.7-2.3 8.8-6.7 5.5-11.5 17-26.9 26.6-35.8 8.9-8.2 10.4-9.2 21.3-13.6 9.8-4.1 13.9-5.1 25.2-6.7 29-4.1 49.9-3.5 65 1.6 12.5 4.3 20.2 8.7 40.7 23.4 21.6 15.6 35 22.3 61.3 31 5.2 1.7 10 3.4 10.5 3.9.6.4 2 1.1 3.2 1.4l2.3.7V0H0z"/><path d="M398.6 77.9c-.4.6-.2 3.7.3 6.8.6 3.2 1.6 12.3 2.2 20.3s1.5 14.8 2.1 15.1c.5.3 5.5 1.7 11.1 2.9 12.4 2.8 27.5 6.5 46.2 11.5 7.7 2 17.2 4.5 21 5.5 3.9 1 12.1 3.2 18.3 4.9s11.5 3.1 11.7 3.1c.3 0 .5-14.2.5-31.5s-.2-31.5-.5-31.5c-.4 0-1.9.7-3.6 1.5-1.6.9-8.4 2.9-14.9 4.5-19.8 4.9-32.6 3.9-49.8-4.2-15.1-7-22.2-9-33.3-9.6-7.2-.3-10.9-.1-11.3.7M194 99c0 .5.7 1 1.5 1s1.5-.5 1.5-1c0-.6-.7-1-1.5-1s-1.5.4-1.5 1m110 125.5c-3 1.9-5.9 3.5-6.6 3.5-.9 0-.8 1 .2 3.7 2.2 6.3 1.8 13.5-1.1 17.6l-2.4 3.7 3.4 2.6c3.6 2.7 8.4 10.4 10.5 16.7.7 2.2 1.6 3.5 2.1 3 1.1-1.1 1.3-7.7.4-13.6-.8-4.7-.7-4.9 3.6-9.3s4.3-4.4 3-8.1c-.8-2.1-2.9-6.2-4.8-9.2l-3.4-5.3 2.2-2.4c1.2-1.3 1.7-2.4 1.1-2.4-.7 0-1.2-.9-1.2-2 0-2.7-.6-2.5-7 1.5m201 33.2c.8 1 1.4 1.9 1.5 2 0 .1 1.3.5 2.8.8 2.6.7 2.8.5 2.5-1.6-.2-2-1-2.5-4.2-2.7-3.7-.3-3.9-.2-2.6 1.5m-11 25.6c0 .4 10.6 6.9 15.8 9.6 2 1.1 2.2.9 2.2-1.1 0-1.9-1.2-2.7-7.8-5.2-4.2-1.6-8.3-3.1-8.9-3.3-.7-.3-1.3-.3-1.3 0m-53.9 5.4c0 .5 3.6 3.7 7.9 7.3 7.8 6.4 9.2 8 6.8 8-.7 0-.6.6.4 1.7 3.3 3.9 2.8 4.4-1.6 1.8l-4.7-2.7 1.3 2.8c.7 1.6 2.8 4.9 4.8 7.3 2.3 2.9 3.1 4.6 2.3 4.8-.9.3-.5 1.5 1.2 3.7 3.5 4.6 3.1 5.2-1.2 1.9-2.1-1.6-3.4-2.2-3.1-1.3.4.8 2.5 5.7 4.7 10.8 2.2 5 5.4 13.1 7 18 2.9 8.5 4.3 10.3 8.9 11.7l2.2.6-.6-10.8c-.7-11.6.8-28.2 2.8-32.9 2.6-6 5.3-8.7 11.3-11.5 3.3-1.6 7-2.9 8.3-2.9 4.6 0 1.9-1.7-8-4.9-5.6-1.9-13.1-5-16.7-6.9-3.5-2-6.2-3.2-5.9-2.6.3.5 3.5 2.4 7 4.3s6.9 4.5 7.5 5.8.8 2.3.4 2.3c-2 0-36.9-13.6-41.3-16-1-.6-1.8-.7-1.7-.3m-106.6 78.5c-2.9 13.3-3.5 16-3.5 16.4 0 .2 4.1.4 9.1.4h9.1l-1.6-2.2c-.8-1.3-3.7-5.6-6.3-9.5-2.7-4-5.1-7.3-5.5-7.3s-1 1-1.3 2.2"/></svg>