<svg xmlns="http://www.w3.org/2000/svg" width="682.667" height="512" version="1.0" viewBox="0 0 512 384"><path d="M413.7 2.3c-.8 1.2-5 5.9-9.3 10.3-19.5 19.9-30.6 32.2-37.2 41.3-3.3 4.6-3.4 7.5-.1 4.5 1.9-1.7 2-1.7 1.3.2-.7 1.8-.7 1.8 1.6-.1 1.5-1.4.7.5-2.6 6-6.6 11-8.7 15.2-8.2 16.7.2.6 1.7-.8 3.4-3.1 5.4-7.8 6.4-8.6 3.4-2.7-1.9 3.7-2.7 6.2-2 6.6.6.4.2 3-1.3 7.6-3.6 10.6-4 16.9-1.8 27.1 1.1 4.9 3.2 11.9 4.6 15.8 3.2 8.4 3.1 9.9-2 26.5-3.7 12.2-3.9 12.6-8.2 15.4-2.4 1.5-12.6 10.8-22.6 20.5-35.1 34-37.8 36-51 38.7-3.9.8-8.1 1.6-9.2 1.9-1.6.3-3.2-1-7-6-5.1-6.8-9.8-10.7-15.2-12.5-3.2-1.2-3.5-3.4-.9-5.3 1.4-1-2.1-3.7-4.8-3.7-3.1 0-4.2-1.1-4.9-4.7-.4-2.1-.2-3.5.9-4.3 1.2-1.1 1.2-1.4-.2-2.5-1.5-1-1.3-1.5 1.7-4.9 2.2-2.6 3.3-4.8 3.3-7.2.1-1.9.5-3.4.9-3.4 1.3 0-5.5-9.1-8-10.7-1.3-.9-2.7-3.2-3.3-5.2-.7-2.5-2.9-5.3-7.1-9-3.3-2.9-6.2-5.1-6.4-4.9-.3.3-.6 1.7-.7 3.1-.1 1.5-.5 2.7-.8 2.7-1 0-5.5-3.3-6.3-4.7-.4-.7-2.1-2-3.6-2.8-2.8-1.4-2.9-1.4-2.3.8.3 1.2 2.1 5 4 8.4 3.1 5.8 3.2 6.3 1.5 6.9-5.7 1.9-7.6 3-10.7 6.5-8.8 9.6-10.6 17.1-10.6 42.8 0 16.5-.4 22.3-1.9 29.2-1.1 4.8-2.5 13.2-3.1 18.7-1.1 8.9-1 11.1.8 20.8 1.2 6 2.4 13.6 2.8 16.9.8 7.1 4.3 16.5 7.6 20.3 2.8 3.2 4.8 3.8 4.8 1.6 0-1.2.5-1.1 2 .7 1.1 1.4 1.9 1.8 2 1.1 0-.7.4-1.1.9-.8 1.1.7 2.2-2 1.5-3.8-.3-.8.2-1.7 1.4-2 1.1-.4 2.4-2.3 3.1-4.6s1.6-3.8 2-3.5c.5.2.7-1.7.5-4.3-.3-3.9-.2-4.2.5-1.7l.9 3 .1-3.1c0-1.7.9-3.8 1.8-4.5 1.5-1.2 1.6-1.2.9.6-2.8 6.8-1.2 8.7 5.5 6.5 4.3-1.5 5.9-.9 3.9 1.4-1.8 2.2-2.9 8.1-1.8 10 1.4 2.5 3.2 1.9 8.6-2.9 5.5-5 7.1-4.7 4.3.6-3.1 5.8-3.4 7.9-1.6 9.9 1.6 1.8 1.6 3.1-1.4 22.7-1.7 11.4-3.3 23.5-3.7 26.8-.3 3.3-.8 6.8-1 7.7-.5 1.7 6.6 1.8 139 1.8H512V247.8l-6.1-8.7c-20.6-29.3-28.9-41.4-28.9-42.2 0-.4.8-1.3 1.9-1.8 1.6-.9 1.7-1.6 1-5.8-1.5-7.9-3.1-11.6-6-14.4-2.7-2.6-2.9-3.1-3.9-18-1.3-18.3-.8-25.9 3.1-43.9 1.6-7.3 3.6-17.2 4.4-21.9 1-6 2.1-9 3.6-10.4 1.7-1.6 2.3-1.7 3-.6.6 1 .9 1 .9.1 0-.6.7-1.2 1.5-1.2s1.5-.5 1.5-1.2c0-.9.3-.9 1.2 0s1.7.6 3.4-1.3c1.2-1.3 2.5-2.1 2.8-1.8.3.4.6-.2.6-1.3.1-1.8.1-1.8 1.1-.2 1.2 2.2 3.3 2.4 2.5.3-.3-1 .1-1.5 1.3-1.5 1.4 0 1.8-.5 1.4-2-.3-1.1.1-3 .9-4.2 1-1.5 1.2-3 .7-4.3-1.3-3.5-1-7.5.6-7.5 1.8 0 1.9-2.1.5-7-.9-3-.8-3.7 1-4.9 1.1-.7 2-2.1 2-3 0-1.3.2-1.3.9-.2 2.4 3.8 3.1-.6 3.1-19.5V0h-96.8zm-44.2 248.5c-2.8 14.5-7.2 30.4-16.2 57.7-4.7 14.3-8.8 26.4-9.1 26.9-.2.5-.9 0-1.5-1-.6-1.1-7.7-12.1-15.9-24.6-8.1-12.5-14.8-23-14.8-23.3 0-1.2 8.9-13 11.7-15.6 4.3-4 18.6-13.9 33.4-23.3 9.7-6.2 13.5-8.1 13.7-7.1.2.9-.4 5.5-1.3 10.3"/></svg>