<svg xmlns="http://www.w3.org/2000/svg" width="682.667" height="512" version="1.0" viewBox="0 0 512 384"><path d="M405.1 7.5c-3.3 4.1-8.3 9.8-11.3 12.7C382.7 31.3 373 43.3 371 48.6c-1.1 2.7-1 2.7.8 1.1 2-1.9 3.7-2.3 2.7-.7-1.2 1.9.7 1 2.6-1.3 1.1-1.2.3.7-1.8 4.3-7.5 13.3-10.3 18.5-10.3 19.4 0 2.1 4.6-3.5 9.3-11.2 2.7-4.5 5.2-8.2 5.4-8.2s-1.8 3.9-4.4 8.7c-2.5 4.7-4.8 10-4.9 11.7s-1.2 6.2-2.3 10c-3.8 12.6-2.9 21.8 3.9 40.5l3 8.5-2.1 6c-1.1 3.4-3.1 10.1-4.5 15.1-1.3 5.2-3.1 9.4-4 10-3.7 2.3-11.2 9-30 27-33.4 31.8-33.2 31.7-51.3 35.5l-10.3 2.2-6-6.1c-3.4-3.5-8.2-7.2-11.2-8.6-2.8-1.3-4.3-2.4-3.2-2.4 1.5-.1 1.6-.4.6-1.6s-1-1.8-.1-2.9c1-1.2.8-1.7-.8-2.5-1.1-.6-2.8-1.1-3.9-1.1-3 0-4.5-2.6-3.9-6.5.3-1.9.2-3.5-.3-3.5-.9 0-.2-3 .9-4 1.6-1.4 5-6.9 5.2-8.6.4-2.2-2-6.6-8.2-14.6-2.4-3.1-5.9-8.1-7.7-11.1-1.9-3-4.6-6.1-6.2-7-2.7-1.6-2.8-1.6-3.4.5-.3 1.3.1 3.3 1 4.6s1.4 2.6 1.1 2.8c-.7.7-10-4.7-13.3-7.8-4.8-4.5-5-1.7-.4 5.9 2.2 3.7 3.9 7.1 3.8 7.5-.2.4-2.3 1.8-4.8 3-5.9 3-11.5 10.5-14.1 19-2.2 7.1-2.6 14-2 38.8.2 11-.1 15.2-1.9 23-2.5 10.8-3.2 30.2-1.2 36 .6 1.9 1.6 7.9 2.2 13.3 1.1 10.4 3.3 16.7 7.9 22.4 3.2 4 4.4 4.1 5.7.5 1-2.6 1-2.6 1.6-.4.3 1.2.2 2-.3 1.6-.5-.3-.9-.1-.9.5 0 1.5 1.6 2.2 3.4 1.5 1.5-.6 3.2-4.1 2.8-5.7-.1-.4.3-.7.8-.7.6 0 2-1.9 3-4.3 1.1-2.3 2-3.8 2-3.2 0 .5.5.3 1-.5s1-3.8 1-6.5c0-5.4 2.5-10.4 4.2-8.7.6.6.6 1.7-.1 3-.6 1.1-1.1 3.3-1.1 4.8 0 2.3.3 2.6 2.5 2 8.6-2.1 7.9-2.3 7 2-2.2 11.2-.5 12.6 7.5 6.3l5.3-4.2-.7 3.9c-.5 2.1-.9 8.6-1 14.4-.2 5.8-1.7 21.3-3.4 34.5-1.8 13.2-3.2 24.8-3.2 25.7 0 1.7 6.6 1.8 136 1.8h136V226.7l-10.7-15.1c-19.2-27.1-19.1-26.9-15.4-27.9 1.7-.4 1.8-1 .9-5.8-1.4-7.7-4.7-14.9-6.8-14.9-1.5 0-1.9-1.9-3-16.1-1.6-19.7-1.1-24.6 4.6-52.7 4.4-21.5 6.6-28 8.6-24.9.6.9 1 .9 1.6-.1.5-.7 2.2-1.4 3.8-1.5 1.9-.2 3.2-1 3.9-2.5.8-1.9 1.6-2.2 3.8-1.8 2.3.5 2.7.2 2.7-1.6 0-1.2.3-1.8.7-1.5.7.8 3.3-3.8 3.3-5.8 0-.7.5-1.5 1.1-1.7.7-.2.6-1.9-.3-5.2-1-3.9-1-5 0-5.3.9-.4 1.2-5.5 1.2-21.4V0H411zm-27.5 223.7c-.3 1.3-1.4 7.1-2.6 12.9-1.1 5.9-3.1 14.6-4.5 19.5-4.6 16.1-19.7 61.4-20.5 61.4-.4 0-2.4-2.6-4.5-5.8-2.1-3.1-6.8-9.8-10.5-14.7-3.7-5-9.2-12.7-12.3-17.3l-5.7-8.3 4.8-6.6c9-12.7 16.4-18.8 44.1-36.5 5.9-3.7 10.9-6.8 11.4-6.8.4 0 .5 1 .3 2.2m-134.4 62.6c-5.2 4.9-6.2 5.5-6.2 3.6 0-1.5 1.3-2.8 4.5-4.5 2.5-1.3 4.5-2.9 4.5-3.6 0-.6.6-1.3 1.3-1.6 2.8-1 1.7.7-4.1 6.1"/></svg>