<svg xmlns="http://www.w3.org/2000/svg" width="682.667" height="512" version="1.0" viewBox="0 0 512 384"><path d="M400 1.1c0 .5.5.7 1 .4.6-.3 1-.8 1-1.1 0-.2-.4-.4-1-.4-.5 0-1 .5-1 1.1m3 0c0 .5.5.7 1 .4.6-.3 1-.8 1-1.1 0-.2-.4-.4-1-.4-.5 0-1 .5-1 1.1m-1.2 7.2c-2.6 4.5-5.2 9.5-5.8 11.2l-1.1 2.9 2.1-1.9c1.2-1.1 4.2-5.2 6.7-9.2s4.7-7.3 4.9-7.3c.3 0-1.4 3.4-3.7 7.6-2.2 4.2-3.8 7.8-3.5 8.1.2.3-.7 3.7-2.1 7.7-6.2 16.9-6 25 1.2 45.2l4.4 12.6-3.3 11.2c-1.9 6.1-3.7 12.8-4.1 14.8-.5 2.7-1.9 4.7-5.1 7.3-2.4 2-14.1 13.3-25.9 25.1-31 30.8-29.9 30.1-63.5 39.4-19.9 5.5-21.2 6.2-27.2 14.8-2.8 4-2.9 4.5-1.4 6 1.4 1.5 1.8 1.4 4.8-.1 1.8-.9 4.4-2.4 5.8-3.3 2.9-1.9-8.4 9-11.8 11.3-2.1 1.5-2.4 1.4-7.2-3.1-2.7-2.5-5.4-4.6-5.9-4.6-2 0-6.3-8.1-5.7-10.6.5-1.7 0-2.7-1.7-3.9-1.3-.8-3.4-3.7-4.6-6.4-2-4.1-2.1-5.2-1.1-7.2 1.8-3.4 2.9-8.8 1.9-9.4-.4-.3-1.8-2-3.1-3.7-1.8-2.6-1.9-3-.5-2.5.9.4 2.3 1 3.1 1.3.9.3 1.9-.3 2.6-1.5.9-1.8.6-2.6-2.2-5.5-1.8-1.9-4.3-6.1-5.6-9.4-1.2-3.3-4.1-7.9-6.3-10.3l-4.1-4.4-2.4 2.8c-1.8 2.1-2.4 4-2.4 7.2 0 3.8-.3 4.5-2.3 5-2.8.7-12.4-3.4-15.1-6.4-1.7-1.9-4.6-2.9-4.6-1.6 0 .2 1.8 3.2 4 6.6 4.5 7 4.8 8.5 2 9.4-3.7 1.2-8.1 5.7-10.9 11.4-3.7 7.4-4.2 9.7-4.2 20 0 8.2.8 12.5 5.6 29.6 1.4 4.8 1.7 9.8 1.6 25.1-.2 14.4.2 20.9 1.4 26.5.9 4.1 2 10.8 2.5 15 .7 6.6 1.7 11.6 3.6 18.2.3.9.9 1.5 1.4 1.2s1.1.1 1.3.7c.3.7.6-.3.7-2.2l.2-3.5.8 3c.7 2.8.8 2.9 1 .5.1-2.3.2-2.3 1-.5.5 1.1.9 3.7.9 5.8.1 4.3 1.2 4.2 4.2-.7l1.9-3.1v3.2c0 1.8.4 3.3.8 3.3 1.1 0 4.8-5 5.6-7.8.4-1.2 1.4-2.2 2.2-2.2s1.4-.7 1.4-1.6c0-.8.4-1.3.9-1 1.1.7 1.8-1.9 2.7-10.1.5-4.6 1-6 2-5.6.8.3 1.4 0 1.4-.7 0-1 .3-1 1.4-.1s1.5.9 1.9-.1c.3-.7.6-.2.6 1.2.1 1.4.5 3.1 1 3.9.6.9 1.6-1.5 3.1-7.3 1.3-4.7 2.6-8.3 3-8.1.5.3.6 1.4.3 2.5-.3 1.2 0 2 .7 2 .6 0 1.1 1.2.9 2.7-.1 1.6 0 3.5.3 4.3.9 2.5 5.8 29 6.8 37 1.6 12 2.8 39.7 2.3 49.6-.5 7.3-.2 9.8 1.1 12.4.9 1.8 1.6 3.9 1.6 4.7 0 1.1 4.9 1.3 28.8 1.1 29.9-.3 30.4-.4 41.5-5.6.5-.3.4.5-.2 1.6s-1.1 2.5-1.1 3.1c0 .8 26.4 1.1 88 1.1h88V245.4c0-100.1-.3-139.1-1.1-140.6-1.6-3-1.7-41.9-.1-47.8.7-2.9 1.2-13.8 1.2-30.8V0H406.5zm4.7 178.4c-.8 6-4 19.4-7 29.8-3 10.6-25.6 78.5-26 78.5-.2 0-2.5-2-5.2-4.5-2.6-2.4-8.8-7.3-13.6-10.7-20-14.2-27.7-20-27.7-20.8 0-.5 4.2-4.2 9.4-8.4 14.8-11.9 24.1-22.6 33.7-38.9 1.5-2.4 5.7-6.9 9.5-9.9 8-6.3 26.4-19.8 27.1-19.8.3 0 .2 2.1-.2 4.7m-119 41.3c-.3.5-1.1 1-1.6 1-.6 0-.7-.5-.4-1 .3-.6 1.1-1 1.6-1 .6 0 .7.4.4 1m10.5 7.5c-.7.8-2 1.5-2.8 1.5-1.3 0-1.2-.3.4-1.5 2.5-1.9 4-1.9 2.4 0m17 1.6c0 1.3-5.9 8.9-6.8 8.9-.4 0-1.4-.4-2.2-.9-1.1-.8-.5-1.8 3-5 4.7-4.2 6-4.9 6-3m8.1 12.1c-2.1 3.4-5.1 4.9-5.1 2.6 0-1.1 5.6-5.8 6.8-5.8.2 0-.5 1.5-1.7 3.2m-77.4 22 .2 4.3-.9-3.5c-.7-2.9-.6-5 .4-5 .1 0 .3 1.9.3 4.2m-9 20c-.3.8-.6.5-.6-.6-.1-1.1.2-1.7.5-1.3.3.3.4 1.2.1 1.9"/></svg>