<svg xmlns="http://www.w3.org/2000/svg" width="682.667" height="512" version="1.0" viewBox="0 0 512 384"><path d="M406.3 1.7c-.3 1-.8 2.2-1.1 2.8-.3.5.4.1 1.6-.9 2.4-2 2.8-3.6 1.2-3.6-.6 0-1.3.8-1.7 1.7"/><path d="M411.2 2.7c0 1.6-1.4 6.8-3.2 11.8-2.8 8.1-3.1 9.9-2.8 18 .3 7.6 1.1 11.1 5.2 22.7l4.8 13.7-3.6 13.3c-2 7.3-4 14.2-4.4 15.3-.9 2.6-48.9 49.8-56.2 55.2-6.8 5.1-12.2 7.3-32 12.9-23.3 6.6-23.3 6.6-29.1 14.2l-5 6.6 2 2 2 2 4.5-3.2c6.2-4.5 6.6-4 .9.9-2.6 2.3-5.6 5-6.5 5.9-.9 1-4.5 3.9-8 6.6-3.5 2.6-6.9 5.4-7.5 6.2-2 2.5-10.2-5.7-14.4-14.3-1.8-3.9-4.1-7.9-5-9s-2.7-3.9-3.9-6.3c-2.1-3.7-2.2-4.6-1.2-7.5 1.8-5 1.5-7.5-1.4-11.3l-2.7-3.5 2.7 1.1c3.9 1.4 4.6 1.3 5.5-1.3.7-1.7.3-2.8-2.1-5.3-1.7-1.6-4.3-6.2-5.9-10-3.2-7.7-8.7-14.1-11.4-13-2 .7-4.5 6.6-4.5 10.4 0 4.6-3.3 5.4-10 2.4-3-1.4-6.6-3.5-8.1-4.8-5.4-5.1-5.3-2.1.3 6.4 4 6.1 4.1 6.6 2.4 7.6-6.9 4.1-8.3 5.6-11.6 12.1-3.4 6.8-3.5 7.2-3.4 19 .1 10.3.4 13.1 2.8 20 6.2 18.3 6.7 20.6 7.6 38 .6 12.4 1.5 19.7 3.3 27 1.4 5.5 3.3 14.3 4.3 19.5 1.3 7.1 2 8.9 2.5 7 .5-2.3.7-2.2 1.4 1.4.8 3.9.8 3.9 2.1 1.5l1.3-2.4.1 2.4c0 1.7.4 2.2 1.6 1.7 1.3-.5 1.5-.1 1.2 2.4-.4 2.4-.2 2.7.9 1.9.7-.7 1.3-.8 1.3-.4s.6.2 1.4-.4c1-.9 1.6-.8 2.6.4 1.7 2.1 3 1.9 3-.5 0-1.1.6-2.3 1.4-2.6s1.8-1.9 2.1-3.5c.4-1.6 1.2-2.9 2-2.9 2.1 0 4.9-7.1 5.3-13.8.3-4.9.8-6.2 1.8-5.8.9.3 1.4-.1 1.4-1.1 0-2.4 1.9-.3 2.5 2.7.8 4 2.3 4.6 3.6 1.4 1.1-2.8 1.2-2.4 3 6.1 1.1 4.9 2.6 11 3.4 13.5 5.1 16 9.2 43.5 10.8 72.7.2 3.4 1 6.9 1.8 7.9.8.9 1.9 3.5 2.4 5.8l1 4.1 14.8.3c13 .2 15.2 0 18.6-1.7 3.8-2 3.9-2 5.6-.1 1.4 1.6 3.1 2 8 2 7.4 0 9-1.3 8.2-6.4-.5-3.4-.4-3.5 4-5 2.6-.9 4.9-1.4 5.2-1.1s-.7 3-2.2 6.1c-1.5 3-2.7 5.7-2.7 5.9 0 .3 39.4.5 87.5.5H512V0H411.3zm4.7 171c-1 4.9-2.9 13.1-4.3 18.3-2.3 8.7-21.2 66.7-27.3 83.5-1.3 3.8-2.7 7.6-2.9 8.3-.2.8-2.5-.4-6.6-3.5-7.7-5.9-16.3-11.4-28.8-18.3-5.2-2.9-10.7-6.1-12.3-7.2l-2.7-2 4.7-5.5c2.6-3 9.8-9.8 16.1-15 13.3-11.1 25-24.8 31.2-36.3 3.6-6.8 5.4-8.9 11.8-13.7 6.6-5.2 22.6-17.2 22.8-17.3 0 0-.8 3.9-1.7 8.7M292 205c-.6 1.1-1.8 2-2.8 2-1.3 0-1.2-.4.8-2 3.1-2.5 3.3-2.5 2 0m15.9 17.3c-2.4 2.4-5.8 6.1-7.5 8.2-1.8 2.3-3.3 3.5-3.7 2.8-.7-1.2 12.5-15.3 14.3-15.3.7 0-.7 1.9-3.1 4.3m20.7-.4c-1.6 2.9-16.3 19.1-17.5 19.1-.3 0-1.2-.4-2-.9-1.1-.7-.2-2.3 4.3-7.3 6.1-6.6 14.2-13.8 15.7-13.8.5 0 .3 1.3-.5 2.9m-39.7.7c-.6.8-2.1 1.4-3.3 1.4-2.1-.1-2.1-.1.3-2 2.5-2.2 4.9-1.7 3 .6m51.2 6.2c-.5 1-2.7 3.6-4.8 5.8-2.1 2.1-5.5 6-7.6 8.6-3.6 4.5-6.7 5.6-6.7 2.2 0-1.1 18.4-18.4 19.6-18.4.3 0 0 .8-.5 1.8"/></svg>