<svg xmlns="http://www.w3.org/2000/svg" width="682.667" height="512" version="1.0" viewBox="0 0 512 384"><path d="M429 .9c0 1.4 7.6 23.5 9 26 1.4 2.7 1.1 5.8-1.8 16.1-1.1 4.1-2.5 10-3.1 13.1-1.2 5.5-1.2 5.6-27.4 31.6-14.4 14.3-28.3 27.4-30.9 29.2-4.5 3-11.9 5.7-37.8 13.7-12.6 4-15.1 5.7-20.6 14.1-3.4 5.4-3.6 8.3-.4 8.3 1.7 0 6.8-3.4 8.2-5.4.4-.6.9-.8 1.2-.5.7.7-10.7 11.9-18.9 18.6-3.3 2.7-7.9 7.8-10.3 11.3-6.2 9-4.3 11.6 4.6 6.4 2.4-1.4 4-2 3.6-1.2-5.6 8.8-5.5 8.8-11.4 8.1-3.7-.3-7.4 0-11.3 1.2-3.2.9-6 1.5-6.1 1.3-.2-.1-1.8-2.5-3.6-5.3-1.9-2.7-4.2-5.9-5.1-7-16.8-20-18.2-22-17.4-24.4 1.4-4.7 1.5-7.4.2-9-3-3.5-2.9-4.1.2-3.5 2.7.6 3.2.3 4.1-2.1.9-2.5.7-3.2-1.8-5.9-1.6-1.7-4.4-6.3-6.2-10.3-1.7-3.9-4.7-8.6-6.6-10.4l-3.4-3.3-2.6 2.5c-1.7 1.7-2.7 4.1-3.1 7-.7 5-1.8 6.9-4.3 6.9-2.6 0-11.1-3.9-14.3-6.6-1.6-1.3-3.2-2.4-3.6-2.4-1.7 0-.3 4 3.3 9.4 2.1 3.2 3.4 6.1 3 6.5-.5.4-2.6 2-4.8 3.5-2.6 2-4.9 5-7 9.5-2.9 6.2-3.1 7.2-3 18.1 0 12.6 0 12.5 10.1 33.9 6 12.8 6.7 14.7 9.8 28 1.5 6.3 4.5 15.8 6.7 21 2.2 5.3 4.7 11.9 5.6 14.8.9 3.3 1.9 5 2.7 4.7.7-.3 1.7.7 2.3 2.3.6 1.5 2 3.9 3.1 5.3 1.8 2.2 2.1 2.3 2.1.6s.2-1.7 2 .4c1.1 1.3 2 3 2 3.9 0 1.4.2 1.4 1.1.1.8-1.2 1.2-1.2 1.6-.2.7 1.7 3.3-.4 3.3-2.6 0-1.3.3-1.2 2 .3 1.9 1.8 2 1.7 2-.3 0-1.3.6-2.2 1.5-2.2 1.1 0 1.5-1.2 1.6-4.3 0-2.3.5-5.1 1-6.2.9-1.8.9-1.8.5.3-.3 1.7-.1 2.2 1 1.8 1.5-.6 2.5 1.3 8.9 16.8 9.1 21.9 14.7 40.5 18.5 60.1 1.5 8.2 2.6 11.4 4.1 12.7 1.1 1 2.5 3.2 3 5 1.6 5.8 2.2 6.2 6.5 4.8 2.1-.7 7-1.2 11-1.1 7.2.2 10.6-.8 17-4.9 1.9-1.1 2.6-1 5.6.8 5 3.1 8 2.8 10.7-.9 1.7-2.3 2.1-3.9 1.7-6.3-.6-2.9-.3-3.3 2.6-4.4 1.7-.6 3.4-1 3.6-.7.3.2-3.2 7.6-7.7 16.4-4.4 8.7-8.1 16.4-8.1 17 0 .8 24.3 1.1 86.5 1.1H512V0h-41.5c-24.6 0-41.5.4-41.5.9m9.8 134.8c-1 4.9-2.3 10.7-2.8 12.9-.9 4.2-6.4 20.8-23.4 70.9-12 35.2-13.9 40.5-14.8 40.5-.4 0-3-1.3-5.6-3-7.8-4.8-20.6-10.4-36.2-16-8-2.9-19.4-7.4-25.3-10.1-6-2.7-13.4-5.6-16.5-6.5-8.6-2.4-22.3-9.5-23.2-12-.5-1.2-2-2.4-3.4-2.8-2.7-.7-5.2-4.1-3.8-5 .5-.3 2.6-.8 4.8-1.1 3.1-.5 5.1 0 9.8 2.3 6.7 3.4 8.9 3.2 10.6-.9 1-2.4 1.8-2.9 4.7-2.9 4.1 0 7.2-1.8 14.2-8.4l5.4-5.1-3.2 4.8c-3.5 5.2-8.4 18.4-7.7 20.4 1.6 4 6.1.3 21.8-18.3 8.8-10.3 18.7-19.9 19.6-18.9.8.8-6.5 10.9-13.3 18.3-8.4 9.1-13.5 16.8-13.5 20.3 0 4.7 3.4 3.7 9.8-3 3.1-3.2 9.4-9.7 13.8-14.4 4.5-4.6 9.7-9.5 11.5-10.8l3.4-2.4-2.5 3.5c-1.3 1.9-3.7 4.8-5.2 6.5-8.4 9-15.3 22.5-11.6 22.5 2.2 0 8.3-5.1 14.1-11.7 2.7-3.2 11.6-12.3 19.7-20.3 16.4-16.1 21.4-22.3 26.8-33.4 3.3-6.7 4.9-8.6 13.7-16.1 5.5-4.6 10.1-8.4 10.1-8.5.1 0-.7 3.9-1.8 8.7m-118.4 32.5c-.3.7-3.5 3.5-7.1 6.2-7.9 5.9-7.5 4.5.8-2.4 6.3-5.3 7.2-5.8 6.3-3.8m10.4 5.8c-.7 1.1-3.5 3.9-6.2 6.3-7.2 6.2-9.8 9-12.9 13.6-2.3 3.5-3.1 4.1-4.2 3.1-2.5-2.1-1.7-3.6 5.8-10.2 6.3-5.6 17.7-14.8 18.5-14.8.1 0-.3.9-1 2m8.2 8.3c0 .2-1 1.2-2.2 2.3l-2.3 1.9 1.9-2.3c1.8-2.1 2.6-2.7 2.6-1.9"/></svg>