<svg xmlns="http://www.w3.org/2000/svg" width="682.667" height="512" version="1.0" viewBox="0 0 512 384"><path d="M450 1c0 .6.7 2.7 1.5 4.7 1.6 3.8 1.7 3.3-4.6 27.4-.5 2-.9 4.4-.9 5.4s-12.2 14-27.7 29.5c-20.4 20.2-29 28.2-32.4 29.8-2.5 1.1-13.5 5-24.5 8.7-11 3.6-21.1 7.6-22.5 8.8s-4.5 5.1-6.9 8.6c-3.3 5-3.9 6.5-2.9 7.2 2.4 1.5 5.5 1 7.5-1.2 1-1.1 2.8-2.5 3.9-3.1 2.9-1.5-11.1 12.6-17.4 17.5-5.1 4-15.1 16.7-15.1 19.2 0 3.3 6.4 2 11.4-2.4 1.8-1.6 1.8-1.5.3 1.4-.9 1.6-3 5-4.6 7.5-3.5 5.1-3.8 6.8-1.5 7.7 1.6.6 6.6-3 14.9-10.9 6.4-6 19.5-16.2 19.5-15.1-.1 1.6-4.6 6.3-9.9 10.2-11.3 8.4-19 26.1-8.1 18.4 1.4-1 3.3-1.6 4.3-1.5 1.9.4 9.7-4.4 9.7-5.9 0-.5.5-.9 1.1-.9s.1 1.6-1.1 3.5c-1.2 2-2 4.4-1.7 5.4.2 1.1.1 3.7-.3 5.9-1.8 10 2.7 7.1 18.7-12 10.4-12.6 20.1-22.3 21.1-21.3.8.8-4.3 8.1-10.8 15.5-13.3 15.1-17.8 23.7-13.6 25.3 1.9.8 9.6-6.2 18.1-16.2 6.4-7.6 16.2-16.7 17-15.9.2.2-1.3 2.6-3.5 5.3-6.2 8-13.7 19.1-14.5 21.3-.3 1.2-.2 2.9.2 3.7.8 1.3 1.6 1.1 5.4-1.9 2.5-1.8 5.8-5.1 7.4-7.2 1.6-2.2 9.5-10.4 17.5-18.4 16.2-16.2 25.3-27.6 31-39 2.9-5.7 5.5-9.2 10.1-13.4 3.4-3.1 6.4-5.4 6.7-5.2 1.1 1.1-3.8 19.5-10.8 40.6-12 36.2-24.5 72.5-28.5 83-2 5.2-4.2 11-4.7 12.7-1.3 3.9-2.1 4-6.2 1-4.3-3.3-23.8-10.9-37.6-14.7-14.6-4-25.4-7.5-35.1-11.2-4.2-1.5-10.7-3.5-14.3-4.2-3.7-.8-10.1-3.1-14.4-5.1-7.1-3.3-7.9-4-10.4-9-1.6-3-2.8-5.6-2.8-5.9 0-.2 1.8-.7 3.9-1.1 3.2-.5 5-.1 9 1.9 3 1.4 5.3 2.1 5.6 1.5.4-.5 1.4-.8 2.3-.7 1 .2 2.1-1 3-3.5 1.5-3.7 1.5-3.8-1.7-7.1-3-3-3.1-3.5-1.6-4.4 2.4-1.3.3-2.4-2.7-1.4-2.4.9-13.6.8-14.5-.1-.2-.3-2 .1-4 .9-1.9.9-4.2 1.4-5.2 1.2-2.4-.4-31.1-30.5-31.1-32.6 0-.9.4-3.3 1-5.1.7-2.6.6-3.9-.4-5-2.7-3.3-2.7-4 0-3.8 2.1.2 2.9-.4 3.6-2.5s.5-3-1.5-5c-1.3-1.3-4.3-6.2-6.6-10.9-2.4-4.7-5.5-9.5-7.3-10.8l-3.1-2.5-2.8 3.2c-2.2 2.4-2.9 4.2-2.9 7.2 0 5.9-2.8 7-10.1 3.7-3-1.4-6.9-3.6-8.8-5.1-3.6-2.7-5.3-2.8-3.1-.1.7.9 1 1.8.7 2.1-.3.4 1 2.9 2.9 5.8 3.5 5.2 4.2 7.6 2.3 7.6-2.4 0-7.1 4.4-9.3 8.9-4.9 9.6-6.3 19.1-4.1 29.2 1.6 8.1 3.8 12.8 13.6 30.1 3.6 6.4 8.1 15.8 9.9 21 1.8 5.1 4.6 11.8 6 14.8 5.3 10.9 11.3 21.5 12.6 22.6.9.7 1.2 1.9.7 2.9-.4 1.2-.3 1.6.5 1.1.6-.3 1.6-.1 2.2.6 6.7 7.9 7.1 8.2 7.9 6.9.7-1.1 1-.9 1.6.8.7 2.3 2.1 2.8 2.7 1 .3-.8 1-.6 2 .5 1.8 1.7 2.9 2.1 2.6.8-.4-1.3 1.3-5.2 2.2-5.2.6 0 1.3 1.2 1.6 2.6.5 1.9.9 2.2 1.5 1.3.4-.7 1-1.1 1.2-.9.3.3 3.7 7.2 7.7 15.4 7.3 15.1 16 36.4 16 39.2 0 .8.4 2.2 1 3.2.5.9 2.1 6 3.4 11.2 1.9 7.2 3.2 10 5.1 11.5 1.4 1.2 2.5 2.8 2.5 3.7s.8 2.6 1.8 3.8c1.7 2.1 1.9 2.2 5.7.5 2.9-1.2 5.5-1.5 9.5-1 4.8.6 6.2.3 11-2.2l5.5-2.9 3.5 2c4.7 2.5 8.3 1.7 10-2.5 1-2.4 1.1-3.9.2-6.1-.9-2.5-.8-3 .6-3.5.9-.3 3.1-1.2 4.9-2.1s3.4-1.4 3.7-1.1c.3.2-2.4 6.3-6.1 13.4-5.6 11.3-15.3 32.7-15.3 34 0 .3 38.5.5 85.5.5H512V0h-31c-20.6 0-31 .3-31 1M336.5 147.8c-5.3 4.6-10.4 8.2-9.9 6.9.3-.9 2.6-3 5.2-4.7 4.3-2.8 6.7-4 4.7-2.2"/></svg>