<svg xmlns="http://www.w3.org/2000/svg" width="682.667" height="512" version="1.0" viewBox="0 0 512 384"><path d="M451.5 3c-2.7 1.6-7.4 3.6-10.5 4.6-6 1.8-25.7 9.7-29.9 11.9-1.4.7-3.8 2.6-5.2 4.2-4.2 4.5-10.1 14.2-9.4 15.3 1.3 2.1 5.1.9 9.4-3 2.5-2.2 4.8-4 5.2-4 1.1 0-5.5 7.4-15.6 17.5-13.4 13.4-20.1 23.8-16.7 25.9 1.6 1 6.8-2.6 14.2-9.7 9.8-9.5 12.3-11.5 11.5-9.6-.3.9-3.1 3.8-6.3 6.5-3.1 2.7-6.3 5.6-7 6.4-2.9 3.3-9.2 14.2-9.2 16 0 4.4 4.2 1.9 16.3-9.8C405 68.7 412.1 62.3 414 61l3.5-2.4-3 3.9c-1.6 2.2-5.1 5.9-7.7 8.3-5.5 5-13 15.8-12.6 18.1.7 3.5 3.9 1.9 13.3-6.9 5.4-4.9 10.1-9 10.5-9 1 0-1.4 5.1-4.7 10-5.7 8.5-.8 9.4 7.2 1.2l5.6-5.7-.3 3.9c-.2 2.4.2 4.1.9 4.3 1.8.7 9.3-7.6 22.3-24.7 12.3-16.2 15.5-19.8 16.7-18.6 1.1 1.1-2.6 7.4-9.2 15.6-9.9 12.4-13.7 18-15.2 22.2-1.2 3.6-1.2 4.3.1 5.6s1.8 1.2 4.1-.7c2.6-2 9.7-10.2 17.9-20.6 5.4-6.8 10.5-12.3 14.1-14.8 2.7-2 2.5-1.5-1.9 4.8-12.5 17.7-14.4 20.8-15.1 24.2-1.2 6.4.9 6 8.4-1.6 3.9-4 8.7-9.5 10.5-12.3 3-4.4 20-22.8 21.1-22.8.6 0-.9 4.4-5.8 17.5-2.4 6.6-8 22.3-12.2 35-8.8 26.2-19.2 53.6-25.6 67.5-7.1 15.5-23 47.2-23.5 46.8-.2-.3.2-2.9.8-6l1.2-5.6-4.1-4.5c-3.7-4.3-11.4-10.2-17.4-13.2-2.7-1.4-18.1-2.9-45.4-4.5-8.8-.5-22.9-1.6-31.4-2.4-8.4-.9-15.8-1.3-16.4-.9-.5.3-.7.1-.3-.5.3-.6-1.4-2.5-4-4.4-2.5-1.8-4.2-3.4-3.7-3.5.5-.2 4.8 1 9.6 2.6s8.7 2.8 8.7 2.6c0-.7-13-8.4-22-12.9-10.8-5.5-12.3-6.5-9.4-6.7 3.5-.2 5.9.3 7.4 1.6 1.7 1.4 7.6 4.5 13.4 6.9 3.2 1.3 3.7 1.4 3.3.1-.4-1-.1-1.2 1.1-.8 1.4.6 1.5.4.5-.8s-.2-1.4 4.9-1.3c6.8 0 6.6-.3-2.5-5.4l-4.8-2.7.7-5.3.6-5.2-4.1-1.8c-3.1-1.3-3.9-2.1-3.5-3.5.6-2.1-1.3-2.2-3.9-.2-1 .7-4 1.9-6.7 2.5-4.8 1.1-5.1 1.1-17.2-4.2-12-5.2-24.9-12.8-27.8-16.4-1.6-1.9-2.1-10.4-.6-10.4.5 0 .1-.9-.9-2s-1.5-2.3-1.2-2.7c.4-.3.7-.2.7.2 0 1.6 2.9-3 3-4.6 0-.8-1.2-2.6-2.6-4-1.5-1.3-4.2-5.6-6.1-9.5s-5.2-8.9-7.4-11l-4-3.9-1.9 2.3c-1 1.3-2.2 4.4-2.5 7-.9 6.5-1.2 7.2-3.2 7.1-2.4 0-9.2-3.7-13.7-7.3-2-1.6-3.9-2.7-4.1-2.4-.8.8 1.8 7.1 4.7 11.5 3.3 5 3.4 6 .8 6.8-3.8 1.2-7.8 5.5-9.9 10.7-5.8 14.6-4 30.3 4.8 43.2 3.2 4.6 22.1 24.1 22.1 22.7 0-.3 4 3.5 8.8 8.4 11.4 11.9 16.6 16.4 19.3 16.8 3.4.6 5.6 4 6.9 11.4.7 3.7 2.5 9.3 4.1 12.3 2.7 5.1 4.5 7.4 11.7 15.5 8.7 9.8 16.3 18.6 19.7 23 2.2 2.7 4.8 5.9 5.8 7 2 2.2 13.1 18.9 18.9 28.4 2.2 3.5 4.8 6.5 6.2 7.1 1.4.5 3.2 2.3 4.1 4 1.8 3.6 2 3.6 7 1 2.2-1.1 6-2 8.5-2.1 2.5 0 5.4-.4 6.4-.8 1.2-.5 3.1-.2 4.9.7 4.5 2.3 7.4 1.8 11.2-1.9 4.1-4 4.3-5.2 1-9.5l-2.4-3.2 2.7-.7c1.5-.3 5.5-3.6 9-7.2 3.4-3.6 6.5-6.3 6.8-6s-.5 3.1-2 6.2c-3 6.5-4.1 11.5-3.1 14.4 1 3.3 2.9 2.5 7.9-3.1l4.6-5.3-2.6 6c-1.5 3.3-3.5 9.4-4.6 13.5-2.1 8.1-2.5 9.5-6.2 21.7-1.4 4.5-2.6 9.9-2.8 12-.3 3.8-.3 3.8 6.7 7.3 12.7 6.2 48.7 23 49.5 23 .4 0 1.5-1.8 2.4-4 1.4-3.5 1.9-4 4-3.4 2.2.5 2.5.2 3.1-3.6l.7-4.2 4.7.7c2.5.4 4.8.8 4.9 1 .2.2-.1 3.5-.7 7.4-.6 3.8-1.1 7.4-1.1 7.9s6 1.2 13.3 1.6c7.2.3 17.8.9 23.5 1.3l10.2.6V0l-27.7.1-27.8.1zM284.6 141.8c-1.7 1.7-2.9 1.1-9.6-4.8l-3.5-3 7.3 3.2c6.4 2.8 7.1 3.3 5.8 4.6m122.9 114.9c-1.4 2.6-2.3 3.7-1.9 2.3.9-3.5 3.4-8.3 4-7.7.3.3-.6 2.7-2.1 5.4"/></svg>