<svg xmlns="http://www.w3.org/2000/svg" width="682.667" height="512" version="1.0" viewBox="0 0 512 384"><path d="M431.4 1.1c-.3.6.1 1.8.9 2.6 1.4 1.4 1.9 1.3 5.1-.6 2-1.3 3.6-2.5 3.6-2.7 0-.9-8.9-.3-9.6.7m8.9 4.2c-3.2 5.1-4.4 10.7-2.2 10.7 2 0 6.6-3.9 11.9-10l5.2-6h-5.9l-5.8.1zm17.1-3.1c-3.6 4.1-8.4 12.4-8.4 14.6 0 4.2 3.5 2.2 13.1-7.3l9.6-9.5h-6.2c-5.1 0-6.5.4-8.1 2.2m13.8 2c-6.1 8.9-7.5 13.8-4 13.8.7 0 5.3-4.1 10.1-9l8.7-9h-5.9c-5.9 0-6 0-8.9 4.2M492.5 1c.3.5 1.2.7 2 .3 2.1-.7 1.9-1.3-.6-1.3-1.1 0-1.8.4-1.4 1m17.3-.3c.7.3 1.6.2 1.9-.1.4-.3-.2-.6-1.3-.5-1.1 0-1.4.3-.6.6M242.5 40.9c-.8 1.7-1.5 5.1-1.5 7.6 0 3.2-.5 4.7-1.5 5.1-2.3.9-7.4-1.5-12.6-5.8-2.6-2.1-5.1-3.8-5.7-3.8-1.5 0 .3 5.8 2.6 8.4 1 1.2 2.9 3.5 4.1 5.3l2.2 3.2-5.4 3.4c-6.5 4.2-9.3 9.4-10.5 19.7-1.1 9.1.1 16.8 3.8 24.7 2.3 5 5.5 8.9 15.9 19.2 9.1 9.1 13.5 12.8 14.8 12.5 1.2-.2 4 1.7 8.3 5.7 3.5 3.4 8.3 7.5 10.7 9.1 2.3 1.7 4.6 4.4 5.2 5.9.6 1.6 2.1 3.3 3.5 3.9 1.6.6 2.8 2 3.2 3.7.3 1.5 1.6 5.9 2.7 9.7 2.9 9.2 6.8 13.4 32.1 34.6 19.2 16 32.8 29 41 39.2 2 2.5 5.1 5.1 6.7 5.7 1.7.6 3.8 2 4.8 3.2l1.8 2.2 3.6-2.2c2-1.2 6-2.5 8.9-2.8s6.9-1.6 8.8-2.8c3.1-1.9 4.5-2.1 11.6-1.7 7.3.4 8.3.2 10.1-1.7 6.4-6.8 5.6-9.8-3.7-13.5l-3.5-1.4 4-1.7c2.2-.9 5.1-2.1 6.5-2.7 2.6-1.1 8-7.9 8-10.1 0-.7-.5-1.8-1.1-2.4-.8-.8-.8-2.7.1-6.9 1.1-5 2-6.6 6.2-10.7 5-4.8 7.8-9.8 7.8-13.9 0-1.3.7-3.7 1.6-5.3 4.8-8.8 4.8-8.8 4.5-18.5l-.2-9.5-4.3-4.1c-5-4.8-20.4-12.7-24.3-12.6-1.6 0-11.6.6-22.3 1.2-34.6 1.9-59 2.4-59 1.1 0-.6-1.1-1.6-2.5-2.1-3.4-1.3-3.2-3 .4-3 4.6 0 4.5-1.5-.2-3.4-3.6-1.5-3.9-1.9-2.2-2.5 1.9-.8 1.9-.8 0-1.9-1.8-1-1.6-1.2 2.5-3.1 3.9-1.7 4.2-2 2-2.2-1.4-.1-3.1-.2-3.7-.2-3.4.2.4-1.6 5.8-2.6 3.3-.7 5.8-1.5 5.5-1.9-.4-.3-6.8-.6-14.4-.6-8.9-.1-14.4-.5-15.7-1.3-1.8-1.1-1.8-1.2-.2-1.3 1 0 2-.6 2.3-1.4.4-1 2.4-1.4 7.2-1.4 8 .1 15.6-1.7 14.9-3.6-.3-.9 1.3-1.9 4.9-3 2.9-.9 5.5-2 5.8-2.4.2-.4-2.8-.6-6.8-.4-6.9.3-7.3.2-8.4-2.2-.7-1.5-2.3-2.8-3.9-3.2-4.8-1-5.3-1.3-4.7-2.9.8-2-1-1.9-2.7.2-.8.9-3.3 2.9-5.7 4.4l-4.2 2.7-10.1-2.4c-12.1-2.9-22.7-7.2-29.1-11.9-4.7-3.4-4.8-3.6-4.5-8.5.2-3.3-.1-5.4-1-6.1-1.6-1.4-1.7-3-.1-2.7.6.2 1.6-.9 2.2-2.5.9-2.4.6-3.1-2.7-6.5-2-2-4.6-5.9-5.7-8.5-2.2-5-7.9-12.1-11.1-13.8-1.5-.8-2.1-.4-3.4 2m266.2 25.6c-10.6 26-26.6 58-45 89.4-13.1 22.5-25.7 47.3-25.7 50.7 0 2.2 1.7 3.4 4.7 3.4.9 0 2.9-1.4 4.5-3.2 1.5-1.7 3-2.9 3.3-2.7.2.3-2.2 6.6-5.6 14.1-5 11.4-6.1 15-7 22.5-.5 4.8-1.2 10.2-1.5 11.9-.7 3.6-1.6 3.3 22.6 7.8 7.4 1.4 19.6 3.7 27 5.1s14.2 2.5 15 2.5 2.4-1.7 3.5-3.8c1.5-2.7 2.7-3.6 4.2-3.5 1.9.2 2.3-.4 2.8-4 .3-2.3.4-47.6.3-100.7l-.3-96.5z"/></svg>