<svg xmlns="http://www.w3.org/2000/svg" width="682.667" height="512" version="1.0" viewBox="0 0 512 384"><path d="M243.8 35.7c-.9 1-1.8 4.2-2 7.1-.3 2.9-1 5.8-1.6 6.4-1.5 1.5-8.1-1.5-11.8-5.3-1.5-1.6-3.4-2.9-4.1-2.9-1.9 0-1.7 6.5.3 8.1 1.7 1.4 4.4 6.2 4.4 7.8 0 .5-1.7 1.9-3.7 3.1-6.7 3.7-10 11-10.7 23.2-.9 15.4 3.6 25.1 18.2 39.7 11.7 11.6 16.6 15.6 18.2 14.6.6-.3 4.7 2.9 9.3 7.2 4.5 4.3 9.3 8.7 10.7 9.8s3.1 3.2 3.7 4.8c.7 1.5 2.3 3.1 3.5 3.6 1.8.7 3 2.9 5.1 9.5 3.7 11.3 8 16.6 21.4 26.3 25.7 18.7 37.6 28.2 49.8 39.6 7.1 6.7 14.1 12.8 15.5 13.5 1.4.6 3.4 1.9 4.6 2.7 1.8 1.4 2.2 1.3 4.2-.5 1.3-1.2 5-2.6 9.2-3.4 5.2-1 7.8-2 10-4.1 2.7-2.6 3.2-2.7 8.5-2 8.8 1.1 13.1-.1 15.5-4.1 3.1-4.9 2.4-8.4-2.2-10.9-2.1-1.1-3.8-2.5-3.8-3.2s2.2-2.2 5-3.4c3.3-1.4 5.6-3.2 7-5.6 2.4-4 2.6-8.8.5-9.7-1.8-.6-2-4.8-.4-7.9.6-1.2 2.6-3.6 4.5-5.4 4.1-3.9 5-5.7 5.8-11.3.4-2.5 1.8-6.7 3.2-9.4 2.5-4.7 2.6-5.3 1.9-16.2l-.7-11.3-3.4-2c-1.9-1.1-3.4-2.5-3.4-3 0-2-17.3-9.3-22-9.4-6.4 0-35.3 2.1-43.5 3.2-3.9.5-13.7 1.1-22 1.3l-15 .3-.3-5.5c-.2-3-.7-5.9-1.2-6.5s-.5-1.7-.1-2.4c.5-.7.6-2.2.4-3.2-.3-1 0-1.9.6-1.9s1.1-1.1 1.1-2.4c0-2.7-2.3-3.5-13.2-4.3-3.8-.2-6.8-.8-6.8-1.2s3.6-1.5 8.1-2.4c8.9-1.7 12.9-3.8 12.9-6.6s-7.3-10.3-10.4-10.6c-1.5-.2-3.4-.9-4.3-1.6-1.3-1.1-1.8-1-3.3.8-2 2.5-10.9 7.5-12 6.8-.4-.2-4.5-1.2-9.1-2.1-7.9-1.6-21.8-7-26.5-10.4-3.9-2.8-4.6-5.6-3.9-15 .7-8.4.6-8.9-1.5-10.2-1.2-.7-3.9-4.7-6-8.9-2.2-4.3-5.6-9.1-7.9-11.2-2.3-2-4.3-3.7-4.4-3.7-.2 0-1.1.8-1.9 1.7m263.7 43.4c-4.2 8.8-16.5 31.7-23.2 43.4-2.2 3.8-7.3 12.6-11.3 19.5-10.2 17.7-15.6 28.5-17.9 36-1.7 5.5-1.8 6.7-.7 7.9 1.1 1.1 2.1 1.1 4.5.3 4-1.4 4-.3.1 9-6.9 16.1-9.8 32-6.7 36.2 1.5 2 4.6 2.5 37.7 5.9l21.5 2.2.3-42.3c.1-23.3.1-61.3 0-84.4l-.3-42z"/></svg>