<svg xmlns="http://www.w3.org/2000/svg" width="682.667" height="512" version="1.0" viewBox="0 0 512 384"><path d="M0 192v192h138.5c135.8 0 138.4 0 139.5-1.9.5-1.1 3.5-5.3 6.5-9.3s5.5-7.6 5.5-8-1.8-1.7-3.9-2.7c-2.7-1.4-4.5-3.4-6-6.4-2-4.1-2.1-5.9-2.2-39.3 0-19.2-.4-36.9-.7-39.3-1-6.4-3.5-7.7-16.7-9.1-6-.6-12.8-1.9-15.1-2.9-5.3-2.4-18.3-14.6-20.1-18.9-.7-1.8-1.6-6.8-2-11l-.5-7.7 4.2-4.8c2.3-2.6 4.7-4.7 5.3-4.8.7 0 2.3-1.4 3.6-3l2.4-3.1-2.2-3.8c-2.4-4.2-2.5-5-1.1-5 .5 0 2 1.5 3.2 3.4l2.3 3.4 4.8-4.8c4-4.1 5.8-5.1 10.5-6.1 8.7-1.7 9.1-2 5.3-3.3-1.8-.7-4-2-4.7-3.1-1.3-1.7-1.1-2.2 1.5-4.9 5.7-6.1 5.7-6.9-.4-11-3-2-6.2-3.6-7-3.6-1.8 0-2 3.1-.2 4.9 1 1.1.8 1.2-1.3.6-1.4-.4-3.5-.8-4.7-.9-1.3-.2-3.2-1.1-4.3-2.1-2-1.8-2-1.8-2 .5 0 2-.2 2.1-1.7.9-.9-.8-3.1-3.8-5-6.7-2.5-3.8-4-5.2-5.7-5.2-3.4 0-13.7-3.8-16.1-5.9-2.3-2.1-13.7-6.1-17.5-6.1-2.4 0-14.1-3.8-22.2-7.3-5.3-2.3-10.8-6.6-10.2-8.1s-6.4-3-8.9-2c-1.8.6-10-3.3-9.3-4.5.7-1.1-6-4.1-9.4-4.1-4.3 0-4.5-1.6-.4-4.1l3.7-2.2-2.4-1.9c-1.3-1.1-3.2-2.6-4.2-3.4-.9-.7-2.2-1.4-2.7-1.4-2.5 0-.6-1.8 3-2.9 4.6-1.4 5.2-3.6 1.5-5.3-3.4-1.5-3.2-3.8.3-3.8 1.5 0 5.1-.9 8-1.9 11.6-4.3 18.3-4.5 41.8-1.6 15.7 2 21.9 2.4 22.7 1.6s.7-1.1-.4-1.1c-.7 0-6.1-.9-11.9-1.9-16.4-2.8-25.1-7.5-29-15.6-2.6-5.4-2-8.5 2.8-12.6 7-6.2 21.7-10.9 33.8-10.9 13.7 0 30.8 4.2 34.3 8.4 2 2.4.3 5.1-8.3 13.3-6.9 6.7-11.6 12-11.6 13.4 0 .3 3-.4 6.6-1.8 3.9-1.4 11.1-2.8 17.3-3.4 12.6-1.3 16.6-2.7 18.9-7 .9-1.7 5.2-8.4 9.4-14.8 6.1-9.2 9.6-13.3 16.6-19.3C294 36.2 305.1 31.8 326 29c28.7-3.9 51.6-1.9 66.9 5.9 8.6 4.4 11.4 6.2 23.2 14.6 19.3 13.9 26.4 18.3 36.8 23.2 21.2 9.9 23.7 11 26.1 11.8 3.1.9 11 5.8 11 6.7 0 2.9-18.3 6.7-32.2 6.8-10.5 0-19.3-2.2-29.6-7.4-11.8-6-20.5-8.7-29.2-9.3-11-.7-13.5.3-12.5 5.3.3 1.9 1 10.4 1.5 19s1 15.7 1.2 15.9 9.3 2.2 20.3 4.5c27.5 5.8 63 14.3 75 18 10.1 3.1 11.5 3.8 21.8 10.4l5.7 3.7V0H0zm507-18.2c0 .5 1.1 1.9 2.5 3.2l2.5 2.3v-3.1c0-2.7-.4-3.2-2.5-3.2-1.4 0-2.5.4-2.5.8m3.3 6.9c-.7.2-.9 1.1-.6 1.9.4 1.1-.4 1.3-4.2.7-4.8-.6-4.8-.6-4.3 2 .3 1.5.1 2.7-.3 2.7-.5 0-.8.3-.8.7.4 2.7-.3 3.5-2.6 2.9-2.8-.7-3.3.5-1 2.7 1.4 1.4 14.3 4.3 15.2 3.4.2-.3.3-4.3.1-8.9-.2-6-.6-8.4-1.5-8.1"/><path d="M301 214c-1.4 1.1-4.8 2.9-7.6 4l-5.1 2.1 1.3 3.7c2 5.7 1.7 12.9-.7 16.8l-2 3.3 3.7 3.7c3.1 3.2 7.6 11.3 9.8 17.8.5 1.5.9 1.6 2.1.6 2.5-2.1 3.7-7.7 3-14.4-.7-6.3-.7-6.5 2.5-9.6 2.8-2.7 3.2-3.6 2.7-6.8-.4-1.9-2.3-6.2-4.3-9.5l-3.7-6 2.2-1.6c1.2-.9 1.8-2 1.4-2.5-.4-.4-.8-1.3-.8-1.9 0-1.8-1.9-1.7-4.5.3m118.9 57.2c2.1 2.9 4.9 7.3 6.1 9.8l2.3 4.4-3.7-3.2c-2-1.8-3.8-3.2-4.1-3.2-.2 0 1.7 3.7 4.2 8.2 6.5 11.7 13.4 26.7 17.7 38.3 2 5.5 4.1 11.2 4.7 12.6 1.1 2.9 7.8 5.7 9 3.8.3-.6.9-7.2 1.2-14.7.3-7.6 1.1-15.5 1.7-17.6 1.9-6.2 6-11.6 11.3-14.6l4.9-2.8-7.3-4.2c-4.1-2.3-10.3-5.9-13.9-8-11.4-6.6-12-6.8-8.1-2.6 1.9 2 3.1 3.6 2.7 3.6-.5 0-.2.7.5 1.6.8 1-.9.4-4.1-1.4-8.5-4.7-28.3-15.2-28.7-15.2-.2 0 1.4 2.4 3.6 5.2m85.2-1.4c2.4 1.5 5 3.1 5.7 3.6.9.5 1.2-.3 1.2-2.8V267h-11.4zm-50.1.5c.9.7 7 5.6 13.7 10.9l12.2 9.8 4.6-.6c2.5-.4 4.5-1 4.5-1.5 0-1.4-6.1-5.1-7.5-4.5-.9.3-5-1.8-9.6-4.9-7.8-5.4-17-10.5-18.6-10.5-.4 0-.1.6.7 1.3m37 6.1c0 .4 1.8 2.6 4 5 2.6 2.8 4.3 5.8 4.7 8 .5 3.5.5 3.6-2.3 3.4-1.6-.1-3.5-.6-4.1-1.1-1.7-1.3-1.6-.1.1 2.6.8 1.2 3 8.6 4.9 16.5 2 7.9 3.7 14.6 3.9 14.8.3.2 2.3-.4 4.6-1.4l4.2-1.7v-40.4l-8.7-2.7c-4.9-1.5-9.4-2.9-10-3.1-.7-.3-1.3-.2-1.3.1m-166.5 70.8c-1.8 8.6-6.6 27.8-8 31.7-.8 2.4-1.5 4.5-1.5 4.7s9 .4 20.1.4h20.1l-2.2-3.7c-1.2-2.1-5.4-7.9-9.3-13-4-5.2-9.4-12.4-12-16.1s-5.2-6.8-5.6-7c-.5-.2-1.2 1.2-1.6 3"/></svg>