<svg xmlns="http://www.w3.org/2000/svg" width="682.667" height="512" version="1.0" viewBox="0 0 512 384"><path d="M0 192v192h267.9l4.1-7.8c2.3-4.3 6.6-11.1 9.6-15.1 3-4.1 5.4-7.8 5.4-8.2 0-.5-1-.9-2.3-.9-1.2 0-3.3-.7-4.5-1.6-5-3.4-5.1-4.7-5.8-45.4-.6-33-.9-38.5-2.3-40.2-1.3-1.6-4-2.3-13.1-3.4-6.3-.8-12.9-1.9-14.6-2.4-1.7-.6-6.8-4.5-11.2-8.8-7.2-6.9-8.1-8.2-9.1-13-.6-2.9-1.1-7.6-1.1-10.4 0-5 .1-5.2 7.2-11.9l7.1-6.8-1.8-3.5c-2.5-4.5-1.1-5.9 2-2.1l2.4 3 4.4-4.3c3.5-3.4 5.6-4.6 10.7-5.8 3.5-.8 7.1-1.2 8.1-.9 3.7 1.2.9-2.2-3.2-3.8-5.5-2.2-5.9-4.1-1.5-8.3 2-1.9 3.6-4 3.6-4.7-.1-.9-9.2-8.1-12-9.5-1.1-.5-.9 4.2.2 5.5 1.7 2.1.3 2.6-2.9 1-1.5-.8-3.3-1.2-3.9-1s-1.7-.3-2.4-1.2c-1.6-1.9-3.1-2-2.4 0 .4.8.2 1.5-.4 1.5-1.1 0-5.3-5.5-6.9-9-.8-2-2.7-3-8.4-4.9-4.1-1.3-8.3-3.1-9.4-4.1-2.6-2.2-13-6.1-17.5-6.5-3.7-.3-6.2-1.1-18-5.8-7.9-3.1-13.7-7.2-13.2-9.2.4-1.8-4.8-3.4-7.6-2.4-2.6 1-10.7-2.5-9.7-4.1.7-1.1-5.1-4-8-4-3.7 0-3.8-1.3-.4-4.1l3.3-2.7-3-1.5c-1.6-.8-3.7-2.5-4.7-3.6-1.7-2.1-1.6-2.2.8-3.1 3.6-1.4 4.1-3.7 1.4-6l-2.4-1.9 2.9-.1c1.5 0 4.1-1.1 5.7-2.5 1.6-1.3 4.6-2.9 6.7-3.5 4.8-1.3 19.4-1.3 25.2.1 10.8 2.6 30.6 5.7 31.9 4.9.9-.5-1.3-1.2-6-2-13.3-2.2-19.3-4.6-24.9-9.8-4.4-4.1-5.2-5.4-5.9-9.9-.8-5.4-.3-7.2 3.3-11.2 4.5-5 23.1-12.1 31.8-12.1 5.8 0 24.9 3 28.6 4.6 6.3 2.6 5.6 6.4-3 15.4C220.3 85.9 217 90 217 92.2c0 1.5.4 1.8 1.8 1.3 5-2.2 15.5-4.6 22.2-5.1 11.9-.9 13.4-1.6 17.4-8.7 5.8-10.4 14.8-21.9 22.8-29 6.2-5.5 9.4-7.5 17.4-10.7 13.8-5.6 25.9-7.3 50.4-7.4 18.6 0 19.9.2 28 2.8 10.9 3.6 18.3 7.7 33.6 18.8C428 66.7 437 72.1 456.4 81.6c9.4 4.5 18.4 9.2 20.1 10.3l2.9 2-3.9 1.7c-6.7 2.8-22.8 4.5-31.8 3.3S431 96.5 419.5 91c-17.3-8.2-28.7-10.6-35.9-7.6l-3.9 1.6.6 5.3c.4 2.8 1 11 1.3 18 .4 7 1 13 1.4 13.2.4.3 14.4 3.2 31.1 6.6 35.6 7.1 47.5 9.8 58.4 13.4 7.9 2.6 20.3 9.8 23.8 13.9 3.3 3.8 5.7 8.1 5.7 10.2 0 2-3.5 4.4-6.5 4.4-2 0-1.9 1.9.1 4.1 1.6 1.8 1.1 4.4-.7 3.4-.5-.3-.6.1-.3.9.5 1.3-.1 1.6-2.9 1.6-2.2 0-3.7.6-4.1 1.5-.3.8-.2 1.5.3 1.5 2 0 .4 3.3-2.1 4.2-1.5.6-2.8 1.6-2.8 2.4 0 1.9-6.6 1.8-10.4-.1-3.2-1.7-7.6-2.1-6-.5 1.2 1.2 24.4 9.3 34.4 12.1 4.1 1.1 8.3 2.3 9.3 2.5 1.6.5 1.7-4.8 1.7-101.5V0H0z"/><path d="M297 209.5c-1.9 1.4-5 3-7 3.6-1.9.6-4 1.2-4.7 1.4-.8.3-.6 1.9.9 5.7 2.3 6.2 1.8 12.2-1.3 16.2-1.9 2.4-1.9 2.7-.4 3.3 2.3.8 8.7 10.8 10.4 16.1.8 2.3 1.7 4.2 2.1 4.2s1.7-1.2 3.1-2.6c2.2-2.3 2.4-3.3 2.2-10.7-.2-7.9-.1-8.3 2.9-11.4 3.1-3.2 3.1-3.3 1.9-7.5-.7-2.3-2.7-6.2-4.3-8.6-2.7-3.9-2.9-4.6-1.6-5.9 1.4-1.3 1.3-6.4-.1-6.3-.3.1-2.2 1.2-4.1 2.5m116.8 45.8c1.2 1.3 3.1 4.8 4.2 7.7l1.9 5.3-2.7-2.6c-2.6-2.5-5.2-3.5-5.2-2.1 0 .3.5 1.5 1.1 2.7l1.2 2.2-2.4-2c-5.8-5-6.2-5.1-3.5-.5 6.8 11.6 21.1 41.6 24.5 51.4 3.7 10.7 4 11 7.6 12.3 2.1.7 4 1.1 4.3.9.2-.3.8-5.5 1.3-11.7s1.6-13.9 2.5-17.1c2.3-8 8.3-14.6 15.5-17.2 5.9-2.1 8.1-3.6 6.2-4.3-.6-.2-5.8-3.3-11.5-6.9-5.6-3.5-10.4-6-10.6-5.4-.2.5-2.6-.2-5.3-1.6-2.7-1.3-5.4-2.2-5.9-1.9s-3.7-1-7.2-2.9-9-4.7-12.3-6.1l-6-2.7z"/><path d="M452.1 260.2c13 11.6 25.2 20.8 27.6 20.8 4.2.1 6.1 3.6 9.4 17.3 1.7 6.7 3.2 12.3 3.4 12.5.1.2 3.5-.9 7.6-2.3 4-1.4 8.3-2.5 9.6-2.5h2.3v-31.9l-3.2-.9c-3.1-.9-22.8-8-27.2-9.8-1.4-.5-1 .5 1.7 4.1 3 3.8 3.7 5.7 3.7 9.1 0 2.4-.3 4.4-.6 4.4-.4 0-3.1-2.1-6.1-4.8-3-2.6-6.6-5.6-8-6.6l-2.5-1.9 1.6 3.1c2 3.8 1.3 4-2.8.9-8.1-6.1-18.8-13.6-16.5-11.5m56.9 7.2c0 .2.7.9 1.5 1.6 1.2 1 1.5 1 1.5-.4 0-.9-.7-1.6-1.5-1.6s-1.5.2-1.5.4m-186.3 65.3c-.3.5-2.1 7.4-4.1 15.3-4.3 17.8-6.9 26.1-10 31.7l-2.5 4.3h25.6c14 0 25.3-.3 25.1-.8-5.2-11.7-12.1-22.9-20.4-33.3-2.9-3.7-7.1-9.2-9.3-12.3-2.1-3.1-4.2-5.3-4.4-4.9M466 379.5c0 .6 7.1 4.5 8.2 4.5.6 0 .8-.3.5-.7-.9-.8-8.7-4.3-8.7-3.8"/></svg>