<svg xmlns="http://www.w3.org/2000/svg" width="682.667" height="512" version="1.0" viewBox="0 0 512 384"><path d="M198.4 201c-2.4.9-5.1 6.7-6.2 12.9l-.7 4.4-7 2.1c-3.9 1.2-7.5 2.5-8.2 2.9-1.4.9-.6 6.8 1 7.8.6.4.5 2.6-.2 5.8-4 18.7 4.3 34.3 21.3 40 4.1 1.4 5.4 2.5 6.8 5.3 2.1 4.5 7.2 6.7 9.8 4.3.9-.8 2.2-1.5 2.9-1.5.6 0 4 2.9 7.5 6.4 3.4 3.5 8.1 7.3 10.3 8.5 2.3 1.1 4.3 2.9 4.5 3.8.2 1.2 1.2 1.8 2.9 1.8 1.9 0 3.7 1.4 7 5.5 7.4 9 11.4 11 29.9 14.5 12.7 2.5 47.7 11.2 54.2 13.5 6.9 2.4 9 2.5 12.9.4 1.7-.8 4-1.4 5.3-1.2 1.2.1 3.7-.7 5.6-1.8s6.8-2.6 10.9-3.3c6-1.1 8.1-2 11.1-4.8 4.6-4 6.5-8.6 4.5-10.3-.8-.6-3.9-1-7.4-.8-3.3.1-6.2 0-6.5-.3-1.5-1.5 1.9-7.7 7.3-13.5 5.8-6.1 8.2-10.6 6.6-12.2-.4-.4-2.6-.7-5-.6-4.3.1-4.4 0-5-3.7-.4-2.2-.1-5.4.5-7.5.7-1.9.9-5.1.6-7s-.8-5.1-1.1-7.2c-1.1-7-1.4-7.7-5.9-12.5-2.9-3-5.3-4.7-6.9-4.7-1.3 0-3.2-.9-4.2-2-.9-1-3.7-2.2-6.2-2.6-3.7-.5-5.5-.1-11.2 2.5-3.7 1.7-10 4.2-13.9 5.5-3.9 1.4-11.3 4.3-16.4 6.5s-12.7 4.9-16.8 6c-4.2 1.1-8.3 2.3-9.3 2.7-2 .7-2.1.1-.7-2.7.9-1.6.7-1.9-1-1.9-2.4 0-2.4-.4-.6-3.8 4.3-8 3.5-12.2-2.3-12.2-4 0-3.9-1.3.4-7.4 1.9-2.7 3.4-5.1 3.2-5.3-.2-.1-4.7.8-9.9 2.1-5.3 1.3-12 2.7-14.8 3.1-5 .7-5.1.6-4.1-1.3.6-1.2 1.6-2.4 2.1-2.7 1.7-1 6-8.3 7.5-12.5.7-2.1 2.7-5.7 4.4-8s2.8-4.6 2.5-5.1c-1.4-2.4-4.9.2-15.9 11.8-14.2 14.9-18.1 17.8-22.7 16.9-11.1-2.2-15.5-6.5-13.6-13.3.8-2.8.4-3.9-2.8-8.5-8.8-12.7-13-16.3-17-14.8"/></svg>