<svg xmlns="http://www.w3.org/2000/svg" width="682.667" height="512" version="1.0" viewBox="0 0 512 384"><path d="M190 218.5c-1.5 1.8-3.8 9.7-3.3 11.2.8 2.2-1.7 5.1-4.9 5.8-12.2 2.3-13 2.6-14.4 6.1-1.9 4.5-1.8 5 1.4 6.9 2.7 1.6 2.7 1.8 2.8 11.3 0 8.2.3 10.5 2.4 14.6 3.2 6.7 10.2 13.2 18 16.9 3.6 1.7 7.9 4.4 9.6 6.1 1.9 1.9 6.6 4.4 12 6.5 4.9 1.8 10.6 4.4 12.6 5.7 2.1 1.3 4.2 2.4 4.8 2.4.5 0 1.7 1.2 2.6 2.6 1.2 1.8 2.3 2.4 3.8 2 1.7-.4 2.7.4 4.8 3.7 4.4 6.9 8 10.3 13.7 13.1 3 1.4 6 2.6 6.7 2.6.6 0 8.8 2.5 18 5.6 16.7 5.5 49 14.4 52.3 14.4.9 0 2.7-.7 4-1.6 1.4-1 3.3-1.4 5.2-1 2.6.5 3.3 0 6.6-4.4 2.8-3.7 4.4-5 6.3-5 1.4 0 5-.7 8-1.5 6.4-1.7 13-7.7 13-12 0-2.8-.1-2.9-9-3-9.4 0-9.4-2 .4-12.5 8.3-8.9 9.7-12.4 5.1-13.6-1.6-.4-3.5 0-5.1 1.1-1.4.9-2.8 1.4-3.1 1.1-.4-.3 0-3.7.7-7.5 1-5.3 1-7.9.1-11.4-.6-2.5-1.1-5.8-1.1-7.2 0-3.4-8.6-13.5-11.6-13.5-1.2 0-3.1-.9-4.3-1.9-4-3.5-12.4-3.9-15-.7-2.2 2.7-34.6 14.2-46.6 16.6-12.1 2.4-13.6 2.5-12.9.6.4-1.1 0-1.3-1.6-.9-2.2.6-2.2.6-.4-2.8 1.9-3.6 2.4-7.1 1.7-10.5-.4-1.9-1-2.1-4.4-1.7-4.9.7-5-.4-.6-6.6 1.7-2.5 3.3-5.2 3.5-5.9.2-1.4-2.4-1.6-3.3-.2-1.2 1.9-24.9 8-26.2 6.7-.9-.9 2.6-6.4 5.1-8 3.3-2.2 8.6-10 8.6-12.6 0-1.2.9-3.8 2-5.8 1.1-2.1 2-4.3 2-5 0-.6 1-1.9 2.2-2.7l2.2-1.6h-2.3c-1.3 0-3.6 1.4-5.4 3.4-1.8 1.8-7.2 7.7-12.2 13.1-9.4 10.1-19.7 18.2-22.4 17.7-3.2-.7-9.1-5.3-9.1-7.1 0-1.1-.8-3.3-1.7-5-1.5-2.5-1.6-3.4-.5-5.1 1.6-2.6 1.5-4-.2-4-1.4 0-2.5-1-10.2-9.8-4.9-5.6-8.7-7.7-10.4-5.7"/></svg>