<svg xmlns="http://www.w3.org/2000/svg" width="682.667" height="512" version="1.0" viewBox="0 0 512 384"><path d="M198.9 208.6c-2.1 2.2-2.9 2.4-7.6 1.8-4-.5-5.9-.2-7.7.9-3.4 2.3-6.6 9-7.3 15.7-.5 5.3-.3 6.3 1.9 9.2 1.3 1.8 3.1 4.9 3.8 6.8 2 4.9 9.5 12.7 13.6 14 3.8 1.3 8.9 8 8.6 11.5-.2 2.9 5.7 12.5 7.6 12.5 1 0 2.6 1.6 3.7 3.6 2.1 3.9 7.8 8.4 10.7 8.4.9 0 3 1.6 4.5 3.5s3.3 3.5 3.9 3.5c.5 0 2.3 1.4 4 3.1 4.3 4.5 7.9 6.2 10.5 4.8 1.6-.8 2.8-.7 5.1.2 3.3 1.4 9.7 7.6 9.8 9.5 0 .6.7 1.8 1.6 2.5 2 1.7 6.4 10.7 6.5 13.3 0 1.2 1.5 5 3.3 8.6 2.3 4.6 4.1 6.9 6.3 8 1.7.8 4.8 3.2 6.8 5.3 2 2 4.2 3.7 4.9 3.7 2.2 0 15.8-5.8 18.9-8 3.3-2.5 4.3-2 6.3 3 1.7 4.3 3.7 5 13.3 5 6.7 0 11.5-2.5 12.5-6.6 1-4-1.4-5.4-9.4-5.4-7 0-8.5-.7-11.4-5.4-1.8-2.8-1.8-2.9 1.5-9.5 1.8-3.6 3.7-7.6 4.3-8.9.7-1.6 1.5-2 2.5-1.5 3.4 1.5 20.6 1.4 24.4-.2 4.6-1.9 7.5-5.9 5.7-8-1.9-2.3-7.9-3.8-15-3.7-6.7 0-6.7 0-8.4-3.4-.9-1.9-1.6-3.9-1.6-4.5 0-1.3 8.8-14.2 13.9-20.4 2.3-2.8 5.1-6.9 6.2-9.2 1.8-3.6 1.9-4.7.8-8.1-.7-2.6-.8-4.5-.2-5.7 1.1-2-.4-6.1-2.5-7-.7-.2-4 .5-7.3 1.6-3.3 1.2-7 1.8-8.2 1.5-3-.8-16.9 2.5-32.9 7.8-18.3 6-32.8 7.7-36.7 4.2-.9-.9-3.1-1.6-4.7-1.6-2.6 0-3.2-.7-5.6-5.9-2.1-4.7-3.7-6.6-7.8-9.2-4.6-3-5-3.6-4.5-6.1.6-2.3.3-2.8-1.4-2.9-3.6-.2-4.1-.4-4.2-1.2-.1-1.6.7-2.5 5.6-5.8 8.8-6.1 17.5-13.2 17.5-14.3-.1-6.2-12.3-6.5-15.9-.5-1.3 2.1-2 2.6-2.8 1.8-1.4-1.4-11 4.5-11.8 7.1-.3 1-1.9 2.3-3.5 3-1.6.6-3.6 2-4.5 3-2 2.3-7.8 1.3-8.3-1.4-.2-1 0-1.6.6-1.2 1.6 1 4.1-.4 3.5-2-.3-.8-.8-1.2-1.2-1-.4.3-2-2.3-3.5-5.7-2.3-5.1-4-7.1-9.6-11.4l-6.8-5.1zm48.7 84.9c.8 2.5.8 3.5 0 3.5-.6 0-2 .3-3.1.6-1.5.4-2.1 0-2.1-1.3-.1-1-.4-2.5-.8-3.5-.5-1.1-.2-1.8 1.1-2.1 3.4-.9 3.8-.7 4.9 2.8"/></svg>