<svg xmlns="http://www.w3.org/2000/svg" width="682.667" height="512" version="1.0" viewBox="0 0 512 384"><path d="M187.3 206.5c-3.7 2.6-8.3 11-9 16.4-.5 4.5-.2 5.6 2.3 9.3 1.6 2.4 3.6 5.9 4.5 7.8 2.4 5 5.2 7.6 11.8 11 4.5 2.2 6.3 3.8 7.8 6.9 1.3 2.5 1.7 4.5 1.1 5.5-1.1 2 4.7 14.3 7.1 15.1 1 .3 3.1 2.5 4.6 4.8 2.6 4.3 6.6 7.1 11.5 8.2 1.6.4 3.6 2.2 5 4.6 1.4 2.1 3 3.9 3.7 3.9.6 0 3.3 1.8 5.8 4 5.2 4.5 6.8 4.9 9.2 2 1-1.1 2.1-2 2.6-2 1.3 0 12.5 18 13.3 21.3.3 1.7.1 3.9-.7 5.3-1 2-1 3.4.1 7.7 2 7.8 3.9 11.2 7.4 13.1 1.8.9 4 3.3 5.1 5.2 1 1.9 2.8 3.7 4 4 2.5.6 13.1-3.4 18.8-7.2 2.1-1.3 4.2-2.2 4.7-1.9.6.3 1.3 2.3 1.6 4.4.7 4.5 3.2 6.1 9.7 6.1 2.3 0 5.3.6 6.7 1.3 2.2 1.1 3 1 6.7-1.2 4.7-2.8 8.8-9.1 7.8-12.1-.6-1.8-1.3-1.9-10.5-1.3l-9.9.6-2.6-5.4-2.7-5.4 4.2-7.8c3.2-6 4.6-7.7 5.8-7.2 2.5.9 15.1 2.4 20.8 2.5 6 0 9.7-1.6 11.8-5.1 2.2-3.8 2-6.4-.6-7.7-3.3-1.5-13.7-3.1-17.4-2.5-2.5.4-3.5 0-4.8-1.8-.9-1.3-1.6-3.3-1.6-4.5 0-2.3 6.1-11.2 14.4-20.9 9.3-10.9 10.6-13 10.6-17.7 0-2.4.6-5.5 1.4-6.9 1.6-3.1 1-8.5-1.1-9.3-.8-.3-3.1.1-5.1 1-2.5 1.1-6.3 1.6-11.7 1.5-8.6-.2-16.4 1.8-37 9.4-12.9 4.8-21.8 5.5-33.5 2.9-8-1.8-8.5-2.1-12.9-7.3-2.5-3-6.5-7.2-8.9-9.4-3.7-3.5-7.2-8.7-7.2-10.7 0-.3 5.1-3.7 11.4-7.5 13.2-8 15-10.2 11-14.2-2.2-2.2-3.1-2.5-6.7-1.9-2.3.4-5.6.9-7.4 1.1-3 .4-13.7 8-15.6 11.1-1.4 2.4-10 6.5-12.4 5.9-3.3-.8-2.8-2.5.7-2.5 3.8 0 3.8-1.3 0-7-5.3-8.1-6-9-11.7-13.1-5.3-4-5.7-4.1-9.4-3-2.7.8-4.5.9-5.8.1-2.8-1.4-6.3-1.3-8.8.5m60.2 81.6c.8 4.6.1 5.8-2.2 4.3-3.2-2-3.9-4.1-1.9-6.3 2.7-3 3.3-2.6 4.1 2"/></svg>