<svg xmlns="http://www.w3.org/2000/svg" width="682.667" height="512" version="1.0" viewBox="0 0 512 384"><path d="M0 192v192h258.8l4-7.7c2.3-4.3 5.8-11.1 7.9-15.1s6-10.1 8.6-13.7c2.6-3.5 4.7-6.6 4.7-6.9s-1.2-.6-2.6-.6c-3.9 0-6.2-1.7-8.1-5.8-1.5-3.2-1.7-6.9-1.5-28.7.3-29-.8-46.9-2.9-49-.8-.8-5.4-1.9-10.9-2.5-13.8-1.5-15.8-2.3-23.6-8.9-8.3-6.9-10.3-10.6-11.1-19.9-.5-6.2-.3-7.2 2.1-11.1 1.5-2.3 3.5-4.5 4.4-4.8s2.9-1.7 4.4-3.1l2.8-2.5-2-3.1c-1.2-2.1-1.6-3.7-1-4.6.7-1.1 1.1-.8 2.1 1.2 1.6 3.7 3.5 4.1 5.6 1.5 1-1.2 2.8-3 4-4 2.5-2.2 13.7-4.7 15.5-3.5.7.4 1.9.8 2.6.8 2.4 0-.7-3.9-4.6-5.8-4.8-2.2-5.2-4.7-1.3-8.3 1.7-1.5 3.1-3.4 3-4.1 0-.7-2.3-3-5.2-5-4.3-3.2-5.3-3.5-6-2.2-.5.9-.4 2.1.4 3 1.6 2 .5 2.8-2.1 1.4-1.1-.6-2.6-.9-3.3-.7s-2.2-.5-3.5-1.7c-1.9-1.7-2.2-1.7-1.6-.3.3.9.1 1.7-.4 1.7-1.5 0-4.9-4.6-6.3-8.5-.7-1.9-1.9-3.3-2.8-3.3-2.7.1-13.3-4.1-14.5-5.7s-14-6.5-17.1-6.5c-7.4-.1-30-11.4-28.9-14.5.8-1.9-3-3.7-6.1-2.9-3.8.9-6.6-.1-11.3-4.4-2.8-2.5-5-3.8-6.2-3.5-3.8 1-2.8-1.6 1.8-4.6l4.7-3.1H149c-3.5-.1-7.5-2.2-6.3-3.3.3-.4-.2-.7-1.3-.7-1.7 0-1.7-.2.4-1.8 1.9-1.5 2.1-2.2 1.4-4.3-.8-2.1-.2-3.5 4.2-9.9 5.7-8.2 8.5-10.2 16.1-10.8 3.8-.3 6.1.2 9.5 2l4.5 2.3-2.2-4.4c-1.3-2.5-2.3-5.5-2.3-6.9C173 66 190.2 56 205.9 56c14.4 0 27.4 2.9 28.7 6.5.7 1.8-1.6 6.1-6.9 12.7-7.1 8.6-9.7 12.9-9.7 15.8 0 1.5.3 2.9.6 3.2s3.1-.3 6.2-1.4 10-2.4 15.2-2.8c12.6-1.1 15.1-2.1 18-7.3 1.3-2.3 5.3-8.3 9-13.2C285.1 45 302.3 38 344.5 37.8c14.3-.1 18.2.2 24.6 2 10.1 2.7 18.3 6.9 30.3 15.6 15.9 11.5 22 15.7 23.6 16.3.8.4 2.6 1.4 4 2.3 1.4 1 10.2 5.7 19.7 10.5 17 8.6 20 10.5 18.9 12.4-1.2 1.9-11.6 3.6-23.1 3.6-13.4 0-17.5-1-30.8-7.6-4.2-2.1-10.4-4.8-13.7-5.9-10.8-3.6-26.1-2.1-24.4 2.4.3.8.8 8.5 1.2 17.1l.7 15.8 21.5 4.4c11.8 2.4 24 4.8 27 5.4 33.1 6.5 51 14.3 58.7 25.7 4.5 6.5 4.3 8.6-.8 10.6-4.1 1.7-4.1 1.7-2.3 3.8 1.3 1.4 1.5 2.2.7 2.5-.7.2-.9 1.1-.6 1.9s.2 1.4-.3 1.3c-3.5-.6-5.3.4-6.9 3.8-2.3 4.8-3.6 6-6.6 6.5-2.6.3 20.7 10.4 35.2 15.2 4.2 1.4 8.4 2.8 9.3 3.2 1.5.6 1.6-7.4 1.6-103V0H0z"/><path d="M206 99c3.4 1.1 6 1.1 3.5 0-1.1-.5-2.9-.8-4-.8-1.6 0-1.5.2.5.8m87.6 105.5c-2.2 1.3-6.1 2.9-8.7 3.5l-4.7 1.1 2 5.2c2.3 6 2 12.7-.7 15.7-1.6 1.8-1.5 2.1 2.4 6.7 2.2 2.7 5.2 7.6 6.5 10.8l2.4 5.9 3.7-3.7c3.5-3.5 3.7-4.1 3.2-8.5-.2-2.6-.8-5.4-1.2-6.4-.4-1.1.5-2.9 3-5.7 3.5-3.8 3.6-4.3 2.6-7.3-.6-1.7-2.5-5.4-4.3-8.1-2.7-4.2-2.9-5-1.6-5.8 1-.5 1.4-1.7 1-3.4-.5-3-.7-3-5.6 0m195.4 4.8c2.5 1.4 7.7 3 11.7 3.6 10.4 1.6 11.3 1.5 11.3-1.3 0-2.2-.4-2.3-9.7-3-5.4-.4-11.6-.9-13.8-1.2l-4-.6zm18.4 9.2c2.5 1.9 4.6 1.9 4.6 0 0-1-1-1.5-3.2-1.5-3.1.1-3.2.1-1.4 1.5M434 241.4c0 .2 5.8 4.3 12.8 9 12.8 8.5 23.6 17.2 19.7 15.9-1.8-.6-1.9-.5-.5 1.3 1.3 1.7 1.3 1.8 0 .8-1.4-1.1-3.3-2.1-17.7-10.1-3.4-1.9-6.8-3.3-7.5-3.1-.7.1-2.3-.3-3.5-1s-3.5-1.4-5-1.6c-1.5-.1-4.6-1.2-6.8-2.3s-7.1-3.2-11-4.6c-3.8-1.4-7.8-2.9-8.9-3.3-1-.4.2 1.5 2.8 4.1 5.4 5.7 6.3 8.8 1.5 5.5-3.5-2.6-4.6-2.1-2.8 1.1.8 1.6-.4 1-4.2-2.2-8.9-7.4-9-7.4-9.8-6-.5.8 1.8 5.9 6.1 13.3 11.6 20.2 21.6 41.9 24.7 53.3.9 3.4 1.7 4.3 5.3 5.7 2.3 1 4.2 1.7 4.3 1.5.1-.1.7-5.4 1.3-11.7 1.3-14.4 3.9-21.6 9.3-26.5 2.2-2 5.2-4 6.7-4.6 3-1.1 15.7-3.9 17.5-3.8 2.6.1 5.8 6.2 8.1 15.1 1.3 5.1 2.7 9.3 3.2 9.3s4.5-1 8.9-2.2 11.5-2.7 15.8-3.4l7.8-1.2-.3-14.5-.3-14.5-5.3-3c-2.9-1.6-5.5-2.7-5.8-2.5-.2.3 1.7 2.7 4.3 5.3 2.9 2.9 4.3 4.9 3.6 5.2-1 .4-1 1-.2 2.5.6 1.1.7 1.8.2 1.5-.4-.2-3.7-2.2-7.3-4.4q-10.65-6.3-13.2-6.3c-.9 0-.9.3 0 1.2.7.7 1.2 1.6 1.2 2.1s-2.1-.9-4.7-3c-2.7-2.1-6-4.7-7.5-5.6-2.4-1.5-2.8-1.5-2.8-.2 0 .8 1.5 2.4 3.3 3.5 2.1 1.3 2.6 2 1.5 2q-1.8 0-1.8 2.4c0 4.1-1.9 4-7.3-.6-7-6-8.2-6.7-6.7-3.8 1.8 3.4.4 3.5-3.7.2-3-2.4-12.7-8.7-24-15.6-.7-.4-1.3-.5-1.3-.2m-118.9 92.3c-5.3 22.7-9.1 31.8-18.2 44-2.1 2.9-3.9 5.5-3.9 5.8s11.2.5 25 .5h25l2.3-3.8c1.3-2 3-5.5 3.9-7.7 1.6-4 1.6-4-2.4-12-4.7-9.2-9.7-16.9-17.9-27.2-3.2-4-6.6-8.6-7.5-10.3-1-1.6-2.1-3-2.5-3-.3 0-2 6.2-3.8 13.7M452 363.3c1.6 1.7 18 10.1 18.5 9.5.2-.2-4.2-2.8-9.8-5.7s-9.5-4.7-8.7-3.8"/></svg>