<svg xmlns="http://www.w3.org/2000/svg" width="682.667" height="512" version="1.0" viewBox="0 0 512 384"><path d="M182.3 200.9c-7.6 7.5-9.8 18.9-4.9 24.8 1.3 1.5 2.8 4.4 3.5 6.4 1.6 4.9 6.6 9.7 12.8 12.5 4.3 1.9 5.5 3.1 7.1 6.7 1.1 2.5 1.8 5.6 1.5 6.9-.6 3.3 4.1 12.5 7 13.9 1.2.6 3.4 3 4.9 5.4 3.2 5.3 6.4 7.5 11.8 8.2 3.5.5 4.7 1.3 7.8 5.4 2 2.7 4.1 4.9 4.7 4.9s2.9 1.8 5 4c4.3 4.4 5.9 4.8 9.2 2.5 2.1-1.5 2.3-1.3 5.9 4.2 6.2 9.6 8 14.7 6.6 18.6-.9 2.5-.9 4.3.3 8.5 1.7 6.6 3.7 9.7 7.4 11.6 1.6.9 3.8 3.1 4.9 5 3 5.1 5.5 5.3 14.5 1.2 7.6-3.4 7.7-3.5 7.7-1.2 0 3.8 2.2 5.3 11.9 8.4 7.7 2.4 10 2.8 12.9 2 4.3-1.2 7.1-3.7 7.4-6.8.3-2.5-1.1-3.1-13-6-3.8-1-4.5-1.7-7-6.6-1.7-3.6-2.3-5.7-1.6-6.2 1.6-1.1 8.8-14.7 12.4-23.5 1.7-4.2 3.5-7.7 3.8-7.6.7 0 6.2 6.6 10.2 11.9 1.7 2.4 2.4 2.5 11.2 2.5 10.6 0 16.9-2 20.4-6.3 3.3-4.2 3.7-6.6 1.6-9.3-1.9-2.3-2.1-2.3-10.3-1.1-4.6.6-9.3 1.4-10.5 1.7-1.6.5-3.1-.8-7.7-6.5-3.1-3.9-5.7-7.7-5.7-8.3 0-1 2.7-4.2 17-20.3 2.7-3 3.5-5.4 4.6-14.6.6-4.5.5-4.7-2-5.4-1.4-.3-4-.1-5.6.6-2 .8-4.7 1-7.8.5-10.6-1.6-14-.9-46.2 8.7-5.4 1.6-8.3 1.9-17 1.4-13.3-.7-19.2-2.5-22.7-6.8-1.5-1.8-5-5.6-7.8-8.4-4.3-4.3-9.5-11.4-9.5-13 0-.2 5.6-3.2 12.5-6.6 7.5-3.7 12.7-6.9 13.1-8 1-3.3-.6-5.5-5.4-7.5-4-1.6-5.5-1.7-9.8-.8-2.9.6-6.5 2.2-8.5 3.8-8.4 6.9-12.2 9.7-13 9.7-.6 0-2.3.9-3.8 2.1-2.3 1.7-3.3 1.9-4.7 1-1.5-.8-1.6-1.1-.4-1.2.8-.1 1.9-.1 2.4 0 1.2.2-.2-6.3-1.4-6.7-.6-.2-1.9-2-3-4-1-2.1-4.4-6.3-7.6-9.5-5.4-5.6-5.9-5.8-9.3-5.2-2 .4-4 .7-4.6.6-9.2-1.4-10.1-1.3-13.2 1.8m62.4 81.6c1.3 4 .6 4.4-2.6 1.4-1.7-1.6-2-2.4-1-3.5 1.8-2.1 2.5-1.7 3.6 2.1"/></svg>