<svg xmlns="http://www.w3.org/2000/svg" width="682.667" height="512" version="1.0" viewBox="0 0 512 384"><path d="M180.8 192.3c-7.8 7.2-10.9 18.4-7.1 24.9 1 1.8 2.7 5.4 3.7 8 2.1 5.6 8.6 11.8 14.4 13.7 3.1 1.1 4.4 2.2 6.1 5.7 1.7 3.6 1.9 4.8.9 6.3-1.6 2.6 2.7 12.8 6.2 14.9 1.4.8 3.7 3.4 5.2 5.8 3.5 5.7 8 8.4 13.9 8.4 4.5 0 4.8.2 8.4 5.5 2.1 3 4.4 5.5 5 5.5.7 0 2.9 2 4.9 4.5 3.8 4.5 7 5.7 9.3 3.4 1.6-1.6 2.8-.6 6.2 5.4 3.6 6.3 5.7 14.8 4.3 17.3-1.3 2.3 1.2 12.7 3.9 16.5 1.1 1.6 2.9 2.9 4 2.9s2.9 1.6 4.3 3.9c3.4 5.3 6.2 5.8 13.8 2.4 4.3-1.9 6.3-2.4 6.6-1.5.9 2.9 4.3 5.3 12 8.6 12.3 5.3 19.8 4.6 19-1.9-.3-2.6-1.2-3.5-7.7-6.5-7.3-3.6-10-6.4-10.1-10.6 0-1.1 2.4-6.7 5.4-12.5s7-14.7 9-19.9 3.9-9.6 4.1-9.8c.9-.9 22.1 15.1 26.1 19.7 1.5 1.7 3.4 2.5 7.1 2.8 5.4.6 5.6.5 15-8.9 4.7-4.8 7.3-11 5.6-13.6-1.6-2.5-6.7-1.8-14.6 1.7l-6.7 3-6.7-5c-3.7-2.8-7.5-6.2-8.6-7.5-1.1-1.5-2.9-2.4-4.6-2.4-1.5 0-3.6-.9-4.6-2-2-2.2-2.2-1.5 3-7.6 4.9-5.7 15-15.4 16.1-15.4.8 0 1.5-2 2-5.6.8-6.5.1-7.4-5.8-7.4-2.8 0-4.1-.6-5.6-2.7-1.8-2.5-2.3-2.6-10.2-2.5-4.6.1-8.8.6-9.4 1.1s-3.3 1.6-6.1 2.4c-2.7.8-6.6 2.4-8.5 3.5-5.3 3.1-20.5 7.2-26.9 7.2-7.6 0-21.9-1.9-24.5-3.2-4.7-2.4-23.7-24.1-22.3-25.5.2-.2 4.4-1.9 9.3-3.9 14.1-5.5 17.9-7.6 18.2-10.2.5-3.1-1.4-5.1-6.7-7.4-3.5-1.5-5.1-1.7-7.4-.8-1.7.5-4.3 1-5.8 1s-3.2.6-3.6 1.3c-1.1 1.9-9.1 7.3-13.9 9.6-2.3 1.1-4.5 2.4-4.8 3-.4.6-1.6 1.1-2.7 1.1-1.7 0-1.8-.3-.9-2 1.6-2.9-4.8-14.5-11.7-21.4-5.2-5.3-5.4-5.4-8.9-4.3-2.6.8-4.4.8-6.8-.1-4.8-1.7-7-1.5-9.8 1.1m61.7 84.7.7 3.5-2.8-2.7c-2.3-2.3-2.5-2.9-1.4-4.3 1.6-2 2.6-1 3.5 3.5"/></svg>