<svg xmlns="http://www.w3.org/2000/svg" width="682.667" height="512" version="1.0" viewBox="0 0 512 384"><path d="M184.5 165.1c-7.2 6.6-10.3 14.1-8.3 20.2.6 1.8 1 5.4.9 8-.3 7.7 2.4 14.3 7.3 17.9 2.2 1.7 6 3.8 8.2 4.8 3.5 1.5 4.4 2.6 5.7 6.5.9 2.5 1.4 5.9 1.1 7.5-.7 3.3 2.1 12.6 4.6 15.5 1 1.1 2.3 3.7 3 5.9 1.6 5 7.3 11.3 11 12.1 3.4.8 4.4 1.8 6 6.8.7 2.1 2.4 5.3 3.9 7 1.5 1.8 3.5 4.5 4.4 6 3 4.7 5.5 5.2 11 2.2 3.8-2.2 4.7-3.2 4.7-5.3 0-2.7-1.3-4-7.3-7-2.3-1.1-8.7-11-7.5-11.6.2 0 2.2-1.6 4.5-3.4 2.3-1.7 4.4-3.2 4.7-3.2s.6 2.2.6 5c0 4.1 1 7 6 16.7 10.2 19.8 12.1 27.2 8.4 32.8-1.3 2-1.4 4-.8 11.5.6 8.7.8 9.2 3.5 10.6 1.6.8 2.9 1.9 2.9 2.5s.7 2.6 1.6 4.5c2.2 4.7 6.5 6.8 12.3 6.1 4.7-.6 15.3-4.5 15.9-5.9.2-.4 1.1-.8 2-.8 1 0 3.3-1.4 5.2-3.1 7.6-6.6 21.8-17.8 27.2-21.4 3.2-2 6-4.6 6.3-5.6.4-1.1 1.2-1.9 2-1.9 2.8 0 10.7 4.1 13.6 7 1.7 1.6 3.6 3 4.2 3 .7 0 3 1.4 5.1 3 2.2 1.7 4.8 3 5.8 3s2.7.9 3.7 1.9c5 5 10 5.3 18.6 1.2 8.8-4.2 14.5-11.3 13-16.1-.8-2.4-3.5-2.9-12.9-2.5-5.7.3-8.7 0-10.7-1-1.6-.8-4.2-2.2-5.8-3s-3.8-1.5-4.9-1.5-4.6-1.4-7.8-3c-4.4-2.4-5.9-2.8-6.5-1.8-.7 1-1.2 1-2.5-.3-1.5-1.5-1.5-1.9 0-4.8.9-1.7 2.9-3.8 4.4-4.8 4.5-2.8 7.1-6.5 7.2-10.3 0-1.9.7-4.6 1.5-6 1.7-3 1.9-9 .4-12.4-1.3-2.7-5.5-4.6-10.3-4.6-1.8 0-5.6-.9-8.6-1.9-3.8-1.3-10.9-2.3-22.5-3.1-23-1.6-28.9-2.9-42-9.5-6-3-11.8-5.5-12.8-5.5-2.2 0-11.2-9.5-14.8-15.7-1.5-2.4-3.9-5.7-5.5-7.4-1.5-1.6-2.6-3.1-2.3-3.3.2-.2 6.4.3 13.7 1.1 9.5 1.1 14 1.2 15.6.5s2.9-3 4.6-8.1l2.2-7.1-2.3-2c-6.3-5.2-15-4.5-15.7 1.3-.3 2.1-.9 2.7-2.8 2.7-1.4 0-2.4-.6-2.4-1.5 0-.8-.9-1.9-2-2.5-2.3-1.2-11.8-1.1-12.6.2-.3.4-2.3.8-4.6.8-2.2 0-5.5.7-7.3 1.6-4.2 1.9-8.9 1.5-9.3-.9-.2-1.2.3-1.7 1.7-1.7 3.3 0 4.2-3 2.4-8.6-2.6-8.7-3.5-10.3-6.7-13.5-4.4-4.4-8.4-6.2-14.1-6.6-2.7-.1-7.1-.6-9.7-.9-4.4-.6-4.9-.4-9.3 3.7"/></svg>