<svg xmlns="http://www.w3.org/2000/svg" width="682.667" height="512" version="1.0" viewBox="0 0 512 384"><path d="M189.4 113.6c-9.7 5.1-13.4 10.3-13.4 18.6 0 2.9-.7 7.2-1.7 9.6-1.5 4.1-1.5 4.7.1 9.8 2.1 6.6 6.4 11.7 12.4 14.8l4.5 2.3.2 14.9c.1 14.3.5 17.2 4.7 34.6 1.2 5.2 7.3 11.3 12.5 12.7 5.1 1.4 11.9.1 17.9-3.4 4.6-2.7 5.4-2.5 5.4 1.8 0 1.6.9 6.3 1.9 10.5 2.1 8.2 3.8 22.7 3.2 27.7-.1 1.6-1.1 3.9-2 5.2-1 1.2-2.4 4.9-3.1 8.3-1.2 5.6-1.1 6.5.8 10.8 1.5 3.3 2.2 7.4 2.5 13.6.3 8.7.4 8.9 3.8 11.7 5.8 4.8 11.3 6.4 22.4 6.4 5.5 0 11.4-.2 13-.5 2.9-.5 3.3 0 11.1 11.5 8.4 12.5 10.7 14.4 15.7 13.1 3.4-.8 6.1-4.8 5.2-7.7-.4-1.2-3-4.7-5.9-7.8-2.8-3.1-6.5-7.3-8.1-9.5-2.8-3.7-2.9-3.9-1-5.2 1.1-.7 3.8-2.6 6-4.2s6.6-3.7 9.7-4.6 6.1-2.4 6.6-3.2c.9-1.7 5.2-1.2 5.2.6 0 .9 10.7 8.8 15 11 3.3 1.8 9 3 9 2 0-.5.8-1.1 1.8-1.4s2.6-1.9 3.5-3.6c3.1-5.2.2-8.6-15.5-17.9-2.1-1.3-3.8-3.1-3.8-4 0-1 1.8-3.8 4.1-6.2 9.3-10 19.2-27.3 19.8-34.4.1-2.2 2.3-10.2 4.7-17.8 2.5-7.6 4.4-14.9 4.2-16.4-.3-2.4-.7-2.7-5.3-2.8-2.7-.2-7.2-1-9.9-2-3.2-1.1-8.8-1.8-16-2-10.9-.3-11-.3-24.9 4.6-14.5 5.1-17.9 5.7-22.2 3.7-3.1-1.4-3.1-2.1 0-5.2 4.3-4.3 2.5-9.5-4.5-13.1-2.5-1.3-5.2-3.1-5.9-3.9-.8-.9-6.2-4.1-12.1-7.2l-10.7-5.6-1.7-5.9c-.9-3.2-1.6-7-1.6-8.4 0-6.6-8.2-13.3-17.5-14.2-3.4-.4-5.5-1.1-5.5-1.8 0-.8.9-1 2.5-.7 2.1.4 2.5 0 2.6-1.9.1-1.3 0-2.9-.1-3.4-.1-.6-.6-4.3-1.2-8.4-1.1-8.8-3.2-13.2-9.1-19-4.1-3.9-4.9-4.3-8-3.7-2.6.5-3.8.2-4.8-1-1.6-2-7-4.4-9.7-4.4-1.1 0-4.1 1.2-6.8 2.6m84.2 92.9c2 1.4 4.3 2.5 5 2.5.8 0 1.4.5 1.4 1.2 0 .6-.3.8-.7.5-.3-.4-1.2-.2-1.9.4-1 .8-2.2.3-4.9-1.8-1.9-1.5-3.5-3.4-3.5-4.1 0-1.7.4-1.6 4.6 1.3"/></svg>