<svg xmlns="http://www.w3.org/2000/svg" width="682.667" height="512" version="1.0" viewBox="0 0 512 384"><path d="M191.1 102c-6.2 2.9-12.1 7.9-13.7 11.7-.8 1.8-1.4 5.3-1.4 7.9 0 3-.8 5.9-2.1 8.1-3 4.8-2.8 10.1.7 17 2.5 5.1 3.8 6.3 9.7 9.6l6.8 3.9-.3 15.1c-.2 11.9.2 16.8 1.6 22.7 1 4.1 2.3 9.4 2.8 11.6 1.3 5.4 6.8 11 12.1 12.5 5.1 1.4 10.4.6 17.2-2.6 6.3-3 6.5-3 6.5-.5 0 1.1 1.1 8.2 2.5 15.6 3.4 18.4 3.3 24.3-.6 34-2.3 5.8-2.9 8.4-2.3 10.8.4 1.7.6 8.4.5 14.8-.2 10.6-.1 11.9 1.9 14.6 2.4 3.3 9.2 7 14.2 7.8 7.8 1.3 15.7 1.5 20.8.5 5.3-1 5.6-.9 7.7 1.6 1.1 1.4 4.2 6.2 6.7 10.7 6.6 11.9 10.7 15.1 16.3 13.2 5.7-1.9 4.1-9.2-4.2-19.2-3.6-4.4-6.5-8.5-6.5-9.2 0-1.5 4.8-3.5 6.7-2.8 2.6 1 8.9-2.4 14-7.7 2.8-2.8 6.5-6 8.1-7l3-1.7 4.6 8.4c5.3 9.6 12.1 18.8 13.9 18.5.7-.1 2 .1 3 .6 2.1.9 8.7-.2 8.7-1.5 0-.6.7-1 1.5-1 1.7 0 4.8-2.9 6.5-5.9 1.8-3.5-.3-5.6-11.4-11.1-6.7-3.3-7.3-3.9-10.3-10-6-12.3-6-11.9-1.1-19.7 5.7-9 11.4-20.9 12.2-25.6.4-2 3.2-11 6.3-20 3-8.9 5.8-17.8 6-19.8l.5-3.6-8.4-.5c-4.6-.2-9-.8-9.8-1.3-2.1-1.3-24.6-.5-28.9 1-2.1.7-7.3 3-11.7 5-7.5 3.6-16.4 5.7-16.4 3.9 0-.4 1-1.8 2.2-3.1 1.8-2 2-2.8 1.2-6-.7-3.1-1.9-4.3-6.6-7-3.2-1.9-5.8-3.8-5.8-4.3s-4.2-3.7-9.2-7.1c-5.1-3.4-10.2-6.9-11.2-7.8-2.8-2.4-5.9-10.1-5.8-14.1.2-4.7-3.5-10.1-9.5-13.6-4.9-2.9-13-4.8-13.9-3.2-.9 1.5-2.4.8-2.4-1.1 0-1.4.5-1.8 2-1.4 1.6.4 2 0 2.1-1.8.1-3.2.8-9.8 1.4-13.3 1.2-6.6-4.1-16.3-11.5-21.2-3.2-2.1-4.5-2.5-6.2-1.7-1.7.7-3.1.3-7.1-2.4-5.7-3.8-7.6-4-13.6-1.3m88.2 101.7c1.8.6 2.2 1.8.9 2.7-.5.3-2.4-1.1-4.3-3.1-2.5-2.8-2.8-3.3-.9-2 1.4 1 3.3 2 4.3 2.4"/></svg>