<svg xmlns="http://www.w3.org/2000/svg" width="682.667" height="512" version="1.0" viewBox="0 0 512 384"><path d="M196.7 92.5c-9.5 3.5-16.7 11.8-16.7 19.3 0 2.1-1.3 5.1-3.5 8.3-7.5 10.9-2.3 22.8 13 30 2.5 1.2 4.8 1.9 5.2 1.6.5-.5-.1-2.7-2.3-8.2-.6-1.4.1-1.1 2.4 1.2l3.3 3.2-1.7 5.1c-1.1 3.4-1.5 6.9-1.1 10.3.4 3.7.1 5.8-1 7.2-1.7 2.4-1 13.8 1.2 19.5.7 1.9 1.8 6.1 2.5 9.3 2.7 13.5 15.1 19.1 29.5 13.2 3.3-1.4 6.1-2.5 6.2-2.5s-.1 1.5-.4 3.3.3 7.3 1.2 12.2c1.9 10.4 2.2 31.7.5 38.5-.6 2.5-1.5 6.7-2 9.5-.4 2.7-1.7 9.4-2.9 14.7-2.7 12.6-2.7 16.1.1 19.4 3.1 3.5 8.4 6.6 11.6 6.9 1.5.1 3.8.7 5.1 1.4s6.8 1.5 12.3 1.8c5.4.3 10.1 1 10.4 1.4.3.5 1.6.9 2.9.9 1.7 0 3.2 1.3 5.5 5 1.8 2.8 4.5 5.9 6 7 3 2.1 7 2.7 7 1 0-.6.6-1 1.4-1 2.4 0 2.4-4.7 0-10.6l-2.3-5.6 2.7-2.5c3.4-3.1 12.8-9.3 14.1-9.3.5 0 2.1-1.3 3.4-3 1.4-1.6 3-3 3.5-3s1.5-.7 2.2-1.5c1.7-2.1 2.5-1.3 5.5 5.2 1.4 3.2 4.3 8 6.5 10.8 2.1 2.7 4.6 6.8 5.5 9 1 2.2 2.2 4.8 2.7 5.8s.6 2.3.2 2.9c-.4.7-.3.8.4.4 1.1-.7 3.8 3.2 3.4 4.7-.1.5.2.6.7.3s1.4.7 2 2.2c1.5 3.4 5.2 7.6 7.5 8.5s9.9-1.1 9.1-2.4c-.4-.5.1-1.2.9-1.5.9-.3 1.6-1.4 1.6-2.4s.6-3.3 1.4-5.1c1.3-3.5 1.6-11.3.3-12.5-.4-.4-.7-1.8-.7-3 0-3.6-5.1-5.9-9.7-4.3-3.2 1-3.7.9-4.7-.7-.6-1.1-3.3-5.8-6.1-10.6-2.7-4.7-6.9-11.9-9.3-15.8l-4.4-7.1 5.8-7.7c6.1-8.2 8.6-10.7 12.2-12.2 1.2-.5 2.2-1.6 2.2-2.4s1-1.6 2.1-1.8c1.8-.2 2.6-1.7 4.4-7.8 1.2-4.1 3.4-10.3 4.8-13.7 2.9-6.6 3.3-9.3 1.7-9.3-.5 0-1-1.1-1-2.4 0-4.9-2.7-5.5-17-3.6-6.9.8-15.6 1.1-25.2.7-16.2-.6-16-.5-25.4-8.6-3.9-3.3-4-3.6-2.7-6.2 2-4 .7-7.4-4.1-11.1-2.2-1.8-6.3-5.5-9.1-8.2-2.7-2.8-8.2-7.6-12.1-10.8-6-4.7-7.5-6.5-8.8-10.5-1-2.9-1.4-6.2-1-8 .5-2.5 0-4-2.2-7.2-1.6-2.2-3.8-4.5-4.9-5.1s-3.5-2.2-5.4-3.5c-2.5-1.9-4.7-2.5-8.2-2.5-4.8 0-4.9-.1-4.9-3 0-2.5.4-3 2.5-3 1.9 0 2.5-.5 2.5-2.1 0-1.2.7-4.8 1.6-8.1 2-7.9 1.2-12.3-3.4-18-5.2-6.5-14.8-10.9-16.8-7.7-.4.7-1.6.1-3.3-1.5-4.8-4.6-9.7-5.5-16.4-3.1M285.5 203c.3.5.1 1-.4 1-.6 0-1.1-.5-1.1-1 0-.6.2-1 .4-1 .3 0 .8.4 1.1 1"/></svg>