<svg xmlns="http://www.w3.org/2000/svg" width="682.667" height="512" version="1.0" viewBox="0 0 512 384"><path d="M206.6 82.5c-9.1 3.7-12.7 7.9-14 16.1-.3 2.3-2.2 6.5-4.1 9.4-3 4.5-3.5 6-3.5 11.1 0 7.1 1.5 11 6.7 17.7 2.1 2.7 4.6 6.4 5.6 8.2l1.8 3.3 1.6-2.3c.9-1.3 1.9-4.8 2.1-7.7l.5-5.3 3.1 3.2c3 3.2 3.1 3.6 3 11.8 0 5.5-.6 9.6-1.6 11.5-.8 1.6-1.8 6-2.2 9.6-.5 5.7-.4 6.9 1.4 9.1 1.7 2.2 1.9 3.5 1.4 8.2-.8 7.1-.1 9.9 3.4 13.1 2 2 3.4 2.5 5.5 2.1 1.8-.4 4.3.2 6.7 1.4 2.5 1.3 5.9 2 9.4 2h5.4l.7 19.4c.8 21.2-.1 31.9-3.5 40.7-1.1 3-2 6.6-2 8s-.9 6.1-2 10.5c-3.3 12.8-3.5 17.4-1.2 22 2.7 5.2 7.7 9.8 10.7 9.9 1.4.1 3.1.9 3.8 1.9 1.5 2 17.5 5 22.5 4.1 2.4-.4 4 0 6.1 1.5 2.4 1.6 3.4 1.8 5.6 1 1.6-.6 6.4-.8 11.1-.5 7.7.5 8.7.3 12.1-1.9 6.7-4.3 7.8-4.2 10.7.6 1.4 2.4 3.2 6.8 4 9.8 1.8 6.7 3.6 11.4 5.9 15.9.9 1.9 1.7 4.1 1.7 4.9s1.5 3.1 3.3 5.2c1.7 2 3.7 4.5 4.3 5.5 1.8 3.3 12.7 1.3 17.6-3.2 2.1-1.9 2.4-6.6.4-8.2-.8-.7-1.7-2.4-2.1-3.8-.3-1.4-2.1-4.1-4-6-2.2-2.2-4-5.4-5-9.1-.9-3.1-2.9-7.1-4.5-8.7-2.4-2.6-7-13.2-7-16.2 0-1.7 4-7.9 8.7-13.4 2.4-2.7 5-6.3 5.8-7.9.9-1.7 1.9-3 2.3-3 .9 0 7.2-8.6 7.2-9.7 0-.4.8-1.6 1.9-2.7 1-1.2 2.9-4 4.2-6.4l2.3-4.3-2.4-4.5c-1.4-2.4-4.4-6.3-6.7-8.6-3.6-3.5-4.1-4.5-3.6-7.3.6-3.9-1-5.3-11-9.1-4.7-1.8-7.9-2.5-10.3-2.1-3.1.5-4.4-.2-13.2-6.7-12.5-9.4-19.8-17-20.7-21.6-.4-1.9-1.6-5.2-2.6-7.2-1.1-2.1-1.9-4.9-1.9-6.3 0-1.5-3.1-7-8-14.1-10.9-15.6-11.5-16.9-9.9-20.6 1.7-4 .1-6.6-8.8-14.4-6.4-5.5-12.4-8.6-14-7-.3.3-1.4.1-2.4-.5-2-1-2.6-4.4-.9-5.4.6-.3 1-1.5 1-2.5 0-1.7.2-1.7 2.5.5 3 3.1 4 3.1 4.1.2.8-18.1.2-22.1-4.9-28.2-4.1-5-10.4-8.8-14.3-8.7-2 .1-3.8-.6-5-1.9-4.9-5.4-11.6-6.2-20.8-2.4"/></svg>