<svg xmlns="http://www.w3.org/2000/svg" width="682.667" height="512" version="1.0" viewBox="0 0 512 384"><path d="M206.8 83.7c-6.2 3.2-7.7 4.5-9.5 8.3-1.3 2.4-2.3 5.9-2.3 7.7 0 1.7-.5 3.5-1 3.8-.6.4-2.2 2.8-3.5 5.5-2.7 5.3-3.1 10.2-1.4 16.5 1.1 4 12.6 23.5 13.9 23.5 1.4 0 3.1-4.8 3.3-9.3.1-2.6.5-4.7.9-4.7.3 0 2 1.2 3.8 2.6 2.1 1.8 2.9 3.2 2.5 4.5-.4 1-.7 3.8-.7 6.1s-.8 6.5-1.8 9.4c-1 2.8-2.1 8.1-2.5 11.7-.6 5.7-.4 7.1 1.4 10 1.5 2.5 2.1 5.1 2.1 9.6 0 3.4.6 7.7 1.4 9.6 2.3 5.4 7.2 7.1 10.3 3.6 1.5-1.8 1.9-1.9 4.5-.5 1.6.9 4.8 1.9 7.1 2.3 3.4.6 4.2 1.1 4 2.7-.5 4.6-.4 12.8.3 26 .8 16.6-.5 27.7-4.3 36.1-1.4 3.2-2.7 8-2.9 10.8-.1 2.7-1.2 9.7-2.4 15.5-1.1 5.8-1.8 11.5-1.5 12.7.2 1.1 2.9 4.7 5.9 7.8 4.3 4.6 5.8 5.6 7.5 5 1.5-.4 2.1-.2 2.1.9 0 3.1 19 6 23.6 3.5 1.8-.9 3-1 4.2-.3 2.1 1.3 12.7 1.1 14.4-.3 1.9-1.5 15.2-4.5 17.9-4.1 2.6.3 6.3 6.8 7.4 12.8.3 1.9 2.2 7.8 4.2 13 7.3 19.7 9 21.4 17.9 18.6 7.1-2.2 10.4-5.5 10.4-10.3 0-3.2-.8-4.7-4.5-8.8-3.1-3.3-5.1-6.7-6.1-10.2-.9-2.9-2.7-6.7-4.1-8.4-1.5-1.7-3.4-6-4.4-9.5l-1.8-6.4 3.8-2.6c3-1.9 4.7-4.3 7.4-10.4 4.9-10.9 13.5-22.8 21.8-30.1 3.8-3.4 6.9-6.7 6.9-7.4 0-.6-3.1-4.5-7-8.6-4.2-4.5-6.9-8.2-6.8-9.4.3-5-.2-5.6-7.7-9.1-7.6-3.5-11.6-4.3-14.6-3-1.8.8-13.6-6.6-24.2-15.1-6-4.8-6.8-5.8-6.2-8 .3-1.4-.3-5.8-1.5-9.9-1.1-4.2-1.8-7.9-1.5-8.4s-4.2-8.1-10-16.9c-9.2-14-10.4-16.2-9.4-17.9 1-1.6.8-2.6-1-5.5-1.2-2-3.7-4.8-5.5-6.4-1.8-1.5-4.4-3.7-5.7-4.8-4.6-3.9-7.4-5.5-9.9-5.5-1.4 0-3.4-.7-4.5-1.5-1.8-1.4-1.8-1.9-.6-6.2 1.4-5.6 1.9-6.3 3.1-4.3 1.9 3.2 2.6 3.8 4.7 4.4 2.1.7 2.1.6 1.6-9.1-.6-12.2-1.6-15.5-6.2-20.6-3.8-4.2-13-9-15.5-8.1-.8.3-3.5-1.1-6.1-3-6.5-5-11.7-5-21.7.1M278.5 188c2.4 4.6 1.7 5.3-2.3 2.2-1.5-1.2-2.1-2.4-1.6-3.5.9-2.5 2.1-2.1 3.9 1.3"/></svg>