<svg xmlns="http://www.w3.org/2000/svg" width="682.667" height="512" version="1.0" viewBox="0 0 512 384"><path d="M212.2 82.1c-7.2 3-11.7 8.2-12.6 14.6-.4 3-1.2 5.3-2.1 5.7-.8.3-2.1 3-3 6.1-1.7 5.9-1.4 11.1 1 16.9 2.5 6 14.1 20 15.7 19 .4-.3.8-2.3.8-4.5 0-3.7.1-3.9 2-2.9 1.2.6 2.6 2.2 3.2 3.5.8 1.9.7 2.9-.9 5.2-1.1 1.5-2.6 5.3-3.3 8.3s-1.7 6-2.1 6.6c-.5.6-1.2 4.5-1.5 8.6-.6 7.1-.5 7.5 1.8 9.4 1.7 1.3 2.7 3.4 3.2 6.5.6 3.9.3 5-2.5 9.2-3.4 5.1-3.4 6.1-.7 16.8 1.9 7.5 2.3 7.9 6.8 7.9 6 0 9.9-5.4 7.1-9.8-.6-1-1-1-2.1.3-4 4.8-2.6-2.4 1.7-8.9 1.5-2.3 2.9-4.3 3-4.5.2-.3 2.1 1.2 4.2 3.3l3.8 3.7-1.4 4.2c-1.1 3.1-1.4 9.7-1.4 27.1.1 25.4-1 33.7-4.9 36.8-1.2 1-3.7 5.6-5.7 10.4l-3.5 8.6 2.1 2.9c1.8 2.5 2 3.4 1.1 8-1.4 7.1-1.3 12.4.3 13.7 1.8 1.5 14.6 1.7 19.6.3 3.1-.9 6.2-1 11-.3 3.6.5 10.4 1.1 15.1 1.2 7.2.1 9 .5 12.1 2.6 4.1 2.8 6.6 3 9.6.9 2.6-1.8 2.5-1.9 5.1 7 2.4 8.3 3.4 16.3 2.1 16.7-1.4.5 4 10.7 6.3 11.9 2.7 1.5 8 .5 12.3-2.1 5-3.1 4.7-6.9-1-17.5-3.4-6.5-4.8-10.4-5.9-16.9-.7-4.7-1.8-9.1-2.4-9.8-.5-.7-1.2-2.6-1.4-4.2-.3-2.7.1-3 4.9-4.6 2.9-.9 8.1-2 11.5-2.4 4.2-.4 6.9-1.3 8.3-2.6 3.1-2.9 9-3.7 11.4-1.6 2.1 1.9 3.1 1.2 3.1-2.1 0-1.2 2.5-7.4 5.5-13.8 3-6.3 5.5-12.6 5.5-14 0-1.9-1.1-3.1-5.2-5.6-13-7.6-14.1-8.4-14.3-10.9-.1-1.3-1.2-3.1-2.5-3.9-3.7-2.5-15.2-7.1-17.6-7.1-3.1 0-22.1-18.3-29.3-28.4-3.3-4.4-7-9.1-8.4-10.4l-2.4-2.3 4.1-4.4c2.3-2.5 6.4-7 9.3-10 10.6-11.1 10.2-13.9-3.4-24.4-2.9-2.2-4.3-4-4.3-5.6 0-2.3-3.4-6.5-5.2-6.5-.5 0-2.6-1.1-4.8-2.5s-4.9-2.5-6.1-2.5c-1.3 0-4.2-2.3-7.6-6-3.1-3.3-6.3-6-7.1-6-1.1 0-1.3-.8-.8-3.2.9-4.3 1.1-4.4 4.6-1.4 1.7 1.4 3.5 2.6 4 2.6s1.6.3 2.6.7c1.9.7 1.9.7-1.4-13.2-1.9-8.5-3-11.1-6.9-16.1-3-4-9.6-8.4-12.5-8.4-1.2 0-3.9-1.7-6-3.7-3.5-3.4-4.4-3.7-10-4-4.6-.2-7.7.3-11.6 1.8"/></svg>