<svg xmlns="http://www.w3.org/2000/svg" width="682.667" height="512" version="1.0" viewBox="0 0 512 384"><path d="M213.8 53c-6.5 2-10.8 6.8-12.3 14-.4 1.9-2 4.6-3.5 6-5 4.7-5.9 18.6-1.7 26.6 2 3.8 14.6 15.6 15.8 14.8.5-.3.9-1.2.9-2 0-2.1 2.8-1.7 3.5.5.4 1.2-.4 2.9-2.3 4.9-3.5 3.7-5.5 11-5.6 20.5-.1 6.5.1 7 3 9.5 1.7 1.5 3.9 4.8 4.8 7.3l1.6 4.6-4.5 14.2c-2.5 7.8-4.3 14.6-4 15.2.4.5.1 4.1-.6 8l-1.2 6.9 2.8 3c4.5 4.7 10.5 3.7 10.5-1.8 0-2.1-.3-2.3-2.5-1.8-2.6.7-2.6.7-1.9-4.6.8-6.2.8-6.3 4.1-6.3 2.5-.1 2.5-.1 1.9 7.5-.3 4.1-.8 12.2-1.2 18-.9 14.6-2.6 20.6-7.3 25.5-4.4 4.5-10.1 15.2-10.1 18.9 0 1.4.9 3.1 2.1 4 1.6 1.1 2 2.1 1.5 4.4-.4 1.6 0 6.1.9 9.9 1.9 8.4 4.2 10.4 9 7.9 1.7-.9 4.6-1.6 6.5-1.6 3.1-.1 3.9-.7 6.9-5.5 2.6-4.1 4.4-5.7 7.5-6.9 2.3-.9 4.6-1.6 5.1-1.6 1.3 0 5.5 12.8 5.5 16.5 0 1.4 2 8.7 4.5 16.1 5 14.7 5.2 16.6 2.9 23.9-2 6.7-1.1 11.1 2.6 13 1.5.8 3 1.1 3.2.7.4-.9 9.6-4.3 12-4.5.9-.1 1.5-.3 1.3-.5s.5-1.7 1.5-3.4c1.3-2.2 1.5-3.6.9-5.6-1.9-5.8-8.8-35.1-9.5-40.1-.4-2.9-1.3-5.9-2.1-6.7-.8-.7-1.7-3-2-5l-.6-3.5 3.7.5c2 .3 5.1.8 6.9 1.1 1.7.2 3.9.1 4.6-.4 3.8-2.4 7.7 4.6 9.2 15.9 1.8 15.2 4.1 24.5 6.5 27.7 3.1 4.1 6.6 5.1 9.9 2.9 3.7-2.5 4-6.8 1-17.1-1.5-5-3.1-11.5-3.6-14.5s-1.1-6.7-1.5-8.2c-.5-2.6-.3-2.8 2.4-2.8 1.7 0 3.7-.7 4.6-1.5.8-.8 2.1-1.2 2.9-.9.9.3 4.9-.4 8.9-1.5 4.1-1.2 9.1-2.1 11.1-2.1 2.1 0 4.1-.7 4.9-1.6.7-.9 2.5-2.9 4.1-4.4 3.7-3.8 3.4-5.9-1.4-11.4-3.3-3.7-4-5.1-3.5-7.3.7-3.5 1.2-2.9-11.9-16.7-9.3-9.9-11.4-11.6-14-11.6-5.5 0-16.9-12.6-28-31-3.1-5.2-7.5-11.3-9.6-13.6l-3.9-4 5.1-2.4c11.5-5.2 17.5-16.3 13.8-25.7-.6-1.5-1.1-4.9-1-7.4.2-4-.2-5-2.6-6.9-1.5-1.2-4.1-4-5.6-6.3-4.3-6.4-7.8-9.7-10.4-9.7-1.5 0-3.1-1.3-4.9-4-1.4-2.1-4.1-5.1-5.9-6.4l-3.3-2.5 2.5-6.8c3.4-9.3 3.5-16.4.3-22.8-2.5-5-8.2-9.4-12.3-9.5-.9 0-3.7-2-6-4.5l-4.4-4.5-7.9.1c-4.3 0-9.1.4-10.6.9M228 176.7c-.1.5-1 2.4-2.1 4.3l-2 3.5.7-3.5c.7-4.1 1.2-5 2.5-5 .5 0 .9.3.9.7"/></svg>