<svg xmlns="http://www.w3.org/2000/svg" width="682.667" height="512" version="1.0" viewBox="0 0 512 384"><path d="M216 50c-6.3 2.2-9.7 5.8-10.7 11.3-.3 2.2-1.2 4.4-2 5-6.2 5-8.3 9.8-8.3 18.8.1 6.7.8 8.1 9.5 16.9l6.9 7.2 1.1-3.1 1-3 3.3 2c4.2 2.7 4 4.5-.7 8.5-3.2 2.8-4.1 4.4-5.5 10.1-2 8.5-1 15.7 2.6 18.8 1.4 1.1 3.4 4.3 4.5 7.1l2.1 5.1-3.5 12.9c-1.9 7.1-3.6 14.9-3.8 17.4-.1 2.5-.5 6.7-1 9.5-.6 4.3-.4 5.4 1.5 7.7 1.2 1.6 3 2.8 4.1 2.8 2.4 0 2.5 2.1 0 14.7-2.4 12.1-5.8 20.3-9.5 22.2-1.5.8-4.6 4.7-7 8.5-5.8 9.8-6 10.5-3.6 13.1 1.9 2.1 2 2.7 1 6.5-1.3 4.8-.5 12.6 1.5 15.4 1.1 1.5 2.2 1.7 5.7 1.2 2.4-.4 6.3-.9 8.7-1.2 2.7-.4 7.4-2.5 12.4-5.5 4.4-2.7 8.4-4.9 8.8-4.9s1 3.3 1.4 7.2c.4 4 1.3 10.4 2.1 14.3.7 3.8 1.3 8.3 1.3 10-.1 1.6 1 8.3 2.5 14.9 2.5 11.3 2.6 11.9.9 13.2-1 .7-2.1 1.4-2.5 1.4-1.3 0-3.8 5.8-3.8 8.9 0 3.5 3.1 7 9.9 11.1 6.6 3.9 11.1 4.6 14.4 1.9 1.5-1.1 2.7-2.7 2.7-3.5 0-.9.7-2.2 1.5-3 2.8-2.8 2.3-12.9-1-19.9-2.8-6-4.5-14.7-4.5-22.7 0-3.4-.7-7.2-1.6-9-.9-1.7-2-7.2-2.5-12.2s-1.2-11.7-1.6-14.9c-.5-4.7-.3-5.7.9-5.7 5.8 0 28.6 2.4 30.1 3.1 2.8 1.6 4.7 7.7 5.3 17.3.7 10.7 2.6 18.6 5.2 20.9 2.5 2.2 7.6 1.3 9-1.7 2-4.1 2.1-5.7 1.2-12.9-.6-3.9-1.3-9.2-1.6-11.7l-.6-4.6 10.8-1.7c6-.9 11.8-1.7 12.9-1.7 2.6 0 10.5-7.4 10.5-9.9 0-1-1.6-3.8-3.5-6.2-2.1-2.4-3.4-4.8-3-5.7.3-.8 1-3.5 1.7-6l1.1-4.5-4.4-3.6c-2.4-2-7.1-6.5-10.4-10-3.5-3.7-7.8-7.1-10.3-8.2-7.2-3.1-21.9-18.7-28.7-30.4-3.2-5.5-7.5-12.1-9.6-14.6l-3.8-4.5 6.2-2.7c3.4-1.5 7.2-3.6 8.4-4.6 6.8-5.6 8.4-16.1 3.8-25.1-1.4-2.7-2.5-5.7-2.5-6.7-.1-4.3-10.7-19.3-13.6-19.3-1.4 0-3.3-1.8-5.8-5.4-2-2.9-5.2-6.2-7.1-7.2S253 97 253 96.3c0-1.8 1.9-1.6 2.6.2.6 1.4 2.3-1.4 5.4-9 1-2.3 2.3-9 2.5-12.4.2-3.5-3.8-11.4-6.9-13.9-1.5-1.1-5.1-2.6-8-3.2-3.7-.7-6.2-2-8.2-4.1-1.6-1.7-4.1-3.7-5.6-4.5-3.7-1.9-12.2-1.7-18.8.6m3.1 147.3c-1 .9-1.1.8-.5-.6.3-1 .9-1.5 1.2-1.2s0 1.1-.7 1.8"/></svg>