<svg xmlns="http://www.w3.org/2000/svg" width="682.667" height="512" version="1.0" viewBox="0 0 512 384"><path d="M220.5 56.1c-6.1 1.5-9.2 5.1-10.9 13-.3 1.4-1.7 3.1-3.1 3.7-4.7 2.1-8.9 16.3-7.1 23.5.6 2.5 7.5 13.3 11 17.5 2.3 2.6 3.5 1.5 3.7-3.3 0-1.7.3-2.4.6-1.8.2.7.9 1.3 1.5 1.3s1.7.8 2.4 1.7c1.1 1.5 1.3 1.5 1.4.3 0-1.3.1-1.3 1 0 1.9 2.9 1 4.9-2.8 6.9-2.1 1.1-4.4 2.6-5.1 3.5-1.9 2.3-4 12.4-4.1 19.4 0 6 .2 6.4 3 8 4.7 2.6 5.3 6.2 4.5 24.3-.5 9.9-.4 16.4.2 17.2.6.6 1.8 4.3 2.7 8l1.6 6.8-2.9 8.7c-4.8 14.2-8.7 22-13.1 25.9-2.2 2-5.6 6-7.7 9-3.1 4.5-3.5 5.8-2.7 8 .9 2.6-1 7.8-7.6 20.7-2 3.8-2 3.9 0 6.6 3 4.3 8.8 9 11 9 1.1 0 2 .4 2 1 0 2.8 22.1 10.3 27.9 9.4 4.4-.7 7.2 1.5 5.1 4.1-.9 1.1-.7 3.2.9 9.9 1.2 4.6 2.1 10.3 2.1 12.5s.5 5.2 1 6.7c.9 2.3.6 3.3-1.7 6.8-3.8 5.6-7.2 13.7-6.5 15.6 1.1 3.3 2.6 4 7.8 4 7.2 0 10.2-1.3 15.3-6.7l4.3-4.7-.7-8.2c-.4-4.5-1.1-9.9-1.6-12-2.2-8.6-2.8-12.1-2.9-17 0-5.8.1-5.9 12.9-10 5-1.6 8.5-2.2 11.1-1.8 3.1.5 5.1-.1 13.1-4.4 5.2-2.7 12.5-5.9 16.3-7 4.6-1.4 7.7-3 9.5-5 1.4-1.6 4.8-4.8 7.5-7.1s6.4-6.1 8.3-8.3c2.8-3.4 3.3-4.6 2.7-7.2-.9-4.8-8-18.6-12.2-23.8-4.2-5.4-13.3-12.2-17.6-13.2-1.6-.4-4.5-2.4-6.3-4.4-4.3-4.6-12.8-18.2-18.6-29.8-2.5-4.9-5.9-10.6-7.6-12.8-1.7-2.1-3.1-4-3.1-4.1 0-.2 2-1.5 4.4-2.9 7.9-4.6 12.6-11.9 12.6-19.6 0-1.4-1.3-5.3-2.9-8.6-1.9-4-2.6-6.6-2-7.5 1.4-2.2 1.1-3.2-3.3-10.5-4.5-7.6-5.3-8.4-8.4-8.4-1.3 0-2.8-1.4-4.4-4.2-1.3-2.4-3.9-5.6-5.7-7.3-2.7-2.5-3.2-3.5-2.6-5.3.8-2.1.9-2.1 3.7 1.3 1.6 1.9 3.7 3.5 4.6 3.5s2.1.5 2.7 1.1c3 3 2.8-19.5-.2-26.8-2.2-5.3-8.2-12.1-11.9-13.7-1.7-.7-4.5-2.9-6-4.7-4.9-5.9-9.2-7.9-16.6-7.8-3.6.1-8.3.5-10.5 1"/></svg>