<svg xmlns="http://www.w3.org/2000/svg" width="682.667" height="512" version="1.0" viewBox="0 0 512 384"><path d="M228.5 62.5c-4.6 1.6-7.2 4.6-8.1 9.3-.5 2.4-1.7 4-4.4 5.7-2.5 1.6-4.7 4.2-6.4 7.7-3.8 7.9-4.2 12.4-1.7 20.9 1.1 4.1 2.4 8.9 2.9 10.7.4 1.8 1.2 3.4 1.7 3.4 1.6.2 5.4-8.2 6.1-13.4.5-3.9.9-4.6 2-3.7.8.6 1.4 2.6 1.4 4.3.1 3.1 2.2 7.1 3.3 6 1-1 3.7 6.7 2.9 8.1-.4.8-2.3 2.4-4.2 3.7s-4.5 4.3-5.7 6.7-3.1 5.4-4.2 6.5c-1 1.2-3 4.4-4.4 7.2-2.4 4.7-2.5 5.3-1 7.3 1.4 2.1 1.3 2.8-1.1 9.5-1.5 4-4.9 10.5-7.6 14.5-5.2 7.7-5.9 10.3-3.7 13.6.7 1.1 1.9 3.9 2.6 6.3 1.6 5.6 7.2 11.2 11.2 11.2 1.9 0 4-1 5.5-2.5 1.4-1.4 2.2-2.5 1.8-2.5-.3 0-.2-.6.4-1.3.7-.8.7-1.8.2-2.7-.6-.8-1-2.6-1-3.8 0-1.5-.7-2.6-2-2.9-3.3-.9-3.4-4.3-.2-10.3 1.6-3 4.6-10.3 6.7-16.3 2.1-5.9 4-10.7 4.4-10.7.3 0 .6 2.7.7 5.9 0 5.6 1.5 9.7 7.6 21.4.6 1.3.2 3.6-1.6 8-1.3 3.4-3.2 10.2-4.1 15.2-2.8 15.1-13.3 33.9-33.2 59.5-4.5 5.7-8.5 11.6-8.8 13-.7 3.2 2 10 4 10 .8 0 1.5.8 1.5 1.8 0 2.2 2.4 4.6 10.3 10 3.2 2.3 6.5 3.8 7.3 3.5s2.2.1 3.2.9c1.9 1.7 8 4.8 9.4 4.8.4 0 .8-.9.8-2 0-2.9 7.3-6.4 11.6-5.5 3.3.6 4.7 2.9 2.3 3.7-.8.3-.2 3.3 1.9 9.3 1.6 5 3.2 11.2 3.5 13.8.4 4.6.2 5.1-5 11.4-4.7 5.8-5.3 7-4.7 9.7.3 1.7 1 3.5 1.5 4 1.1 1.2 13.3.8 13.7-.5.2-.5 1.3-.9 2.4-.9 2.9 0 11.8-7 12.5-9.8.8-3.5-.4-12.5-2.7-18.5-2-5.4-6.3-23.8-5.6-24.4.2-.2 3.6-.3 7.7-.1 27.9.7 33 .1 38.9-4.8 1.6-1.4 5.7-3.4 9.2-4.5 3.5-1.2 9.9-3.7 14.3-5.6l8.1-3.4-.1-6.4c-.1-5.1-.7-7.1-2.8-10.4-2-3-2.5-4.8-2.1-7 .6-2.7-.1-3.8-5.7-9.7-4.1-4.2-8.3-7.5-11.5-9-7.9-3.5-10.5-7.2-19-27.1-7-16.3-10.9-23.5-14.8-27.2l-3.6-3.4 4.8-3.1c3.3-2.2 5.5-4.7 7.5-8.5 3.2-6.5 3.4-11 .6-17.1-1.4-3-2.1-6.2-2-9.6.2-4.4-.4-6-4-11.8-3.2-5.2-4.6-6.6-6.6-6.6-1.9 0-2.8-.9-4.3-4.3-1.8-4.1-1.8-4.3.1-10.1 1.1-3.3 2.3-9 2.6-12.8.6-6.3.4-7.3-2.8-13.4-1.8-3.7-4.6-7.6-6.1-8.7s-3.9-3.8-5.3-5.9c-3.7-5.5-8.8-7.8-17.7-7.8-4 .1-9.1.7-11.3 1.5"/></svg>