<svg xmlns="http://www.w3.org/2000/svg" width="682.667" height="512" version="1.0" viewBox="0 0 512 384"><path d="M244.5 54c-8 .9-11.4 3.5-14 10.9-.8 2.4-2.6 5.2-3.9 6.2-3.6 2.9-6.8 12.2-6.9 19.9 0 9.6 1.1 21.2 2.1 22.2.6.6 2.3-.2 4.3-1.9 6.3-5.3 6.8-5.4 11.8-2.6.2.1-.4 1.8-1.3 3.8-2 4.2-8.4 8.6-11.4 7.8-2.1-.5-11.3 2-20.9 5.8-4.5 1.8-5.7 2.9-8.5 7.8-4.9 8.4-5.1 9.1-3.3 13.8 2.8 7.3 4.7 7 23.8-3.5 10.4-5.8 11.6-5.8 11.7-.4 0 1.5.7 2.6 2 2.9 1.7.5 2 1.4 2 7.2 0 9.7 1.5 13.7 7 19.1l4.7 4.6-1.8 3.5c-1.7 3.3-3.9 14-5.4 25.4-.8 6.3-3.3 11.3-9.9 19.5-6.6 8.3-15.7 21.5-17.8 26-.9 1.9-2.9 4.6-4.3 6-1.5 1.4-3.3 3.8-4.1 5.5-.7 1.6-2.5 5-3.9 7.5-3.3 5.9-3.2 7.3 1 11.5 3.8 3.7 13.1 9.1 15.2 8.7.7-.2 3.4.9 6 2.3s6.4 2.5 8.3 2.5c4.3-.1 8.1-3 7.4-5.6-.3-1.1.1-2.6.8-3.5 1.1-1.4 3.1-1.6 15.1-1.2 12.2.5 13.7.8 13.2 2.2-.4.9-.9 4-1.2 6.9-.9 8.4 3.2 11.5 10.8 8.1 2.3-1.1 4.3-1.8 4.3-1.7.1.2 1.2 2.3 2.4 4.8l2.3 4.4-6.8 6.7c-6.6 6.6-7.8 9.3-5 11.1 2 1.3 10.1.9 15.3-.7 5.8-1.8 8.4-3.8 10.7-8.4 2.8-5.6 2.2-10.1-3.7-27-1.5-4-2.9-9-3.2-11.1-.6-3.7-.5-3.8 3.2-5 3.5-1.2 3.8-1.1 5.6 1.4 1.6 2.1 2.8 2.6 6 2.6 2.2 0 5.7.5 7.7 1.1 3.3 1 4.3.8 9.7-1.8 6.2-3 12.4-7.8 12.4-9.6 0-.6-1.4-3.2-3.1-5.9-2.4-3.7-2.9-5.2-2-6.1.6-.6 1.1-2.6 1.1-4.4 0-4.3-10.5-16.8-14.9-17.8-4.6-1-11.3-12.4-17.1-29.5-1.8-5.2-4.1-11.4-5.1-13.8l-1.8-4.2 5.4.4c4.3.4 5.9.1 7.9-1.5 3-2.4 3.3-5.2 1.1-13.4-.8-3.1-1.2-6.2-.9-6.9.4-1-9.6-17.4-13.5-22.2-2.3-2.8-3-5.1-1.9-6.2 2-2 1-7-2.7-13.6-2.4-4.4-4.3-6.6-6-7-1.6-.4-3.2-2.1-4.6-4.9-1.2-2.3-2.8-4.9-3.5-5.8-1.3-1.4-1-2.6 2-9 2.1-4.4 3.6-9.2 3.7-11.9.3-6.3-2.6-14.6-6.1-17.2-1.6-1.1-3.1-3.1-3.4-4.3-.8-3.2-4.3-7.3-7.8-9.1-3.3-1.7-8.9-2.2-16.3-1.4m45.7 121.7c.2 3.5.2 6.3-.1 6.3-.4 0-2.6-1.8-5-4.1l-4.3-4.1 3-1.8c1.6-1 3.3-2.4 3.7-3 1.3-2.1 2.3.4 2.7 6.7"/></svg>