<svg xmlns="http://www.w3.org/2000/svg" width="682.667" height="512" version="1.0" viewBox="0 0 512 384"><path d="M239 29.1c-3.8 1.5-7.8 5.8-8.5 9-.4 1.6-2.5 4.7-4.8 6.8-3.9 3.7-4.1 4.3-4.4 10.3-.5 10.9.3 14.2 5.2 19.5 3.6 4.1 4.2 5.4 3.8 7.8-.5 2.5-.3 2.8.8 1.7 1.8-1.7 2.9-1.5 2.9.6 0 1.4.9 1.9 3.7 2 5.4.4 5.8 1.4 2.1 5.4-3.5 3.8-14.9 9.5-16.8 8.3-.6-.3-3.1.1-5.5 1.1l-4.5 1.7-3.2-3.2c-3.8-3.7-5.2-3.6-12.5.7l-4.8 2.8-.6 7c-.4 3.8-1.2 8.7-1.8 10.9-1.6 5.7-1.4 9 .7 10.8 3.6 3.3 7.9 2.1 23.1-6.2 8.1-4.4 15.9-8.4 17.4-9l2.8-1.1-.7 5c-.6 4.7-.5 5.1 2.5 7.7 2.8 2.5 3.1 3.3 3.1 8.3 0 3.1.9 8.2 2.1 11.5 2.9 8.2 2.8 14.4-.5 24-6.4 18.8-13.7 31-28.6 47.5-12.2 13.6-20.7 25-26.5 35.8-3.1 5.9-7 12.3-8.5 14.3-4.8 6.1-4.8 7.8.5 12.2 4.1 3.5 5 3.8 8.4 3.2 2.1-.3 6.6-.1 10 .5 5.6 1 6.7.9 10.5-.9 4.7-2.3 7.2-2.6 8.1-1.1.3.5 2.5 1 4.8 1s4.7.4 5.4.8c1.8 1.2.3 6.2-2.2 7.2-1.8.7-2.3 1.9-2.8 6.9-.9 7.9-4.6 23-6.3 25.7-1.3 1.8-2.3 2-9.6 1.8-6.8-.2-8.9.2-11.6 1.8-3.3 2.1-5.2 4.6-5.2 7.2 0 2.2 4.6 7.2 8.2 8.9 1.8.9 4.8 2.7 6.7 4.1s4 2.6 4.7 2.6 1.5.9 1.9 1.9c.4 1.3 1.2 1.8 2.2 1.4.9-.4 1.4-.2 1.1.3-.4.5.5 1 1.9 1.1 1.4 0 2.8.5 3.2 1 .3.6 1.9.6 3.6.2 2.4-.7 3.5-2 5.3-6.1 1.3-2.9 2.5-6.7 2.6-8.4.3-3.5 6.4-18.4 10.7-26 1.6-2.8 2.6-5.4 2.3-5.7-.4-.3.7-2.8 2.3-5.4 6.7-11.1 10.6-21.3 12.6-33.4l1.2-7.4 10-.2 10-.3 4.8 6.5c4.1 5.6 5.2 6.5 7.8 6.5 5.9 0 10.9 7.8 10.7 16.5-.2 5.6 2.3 15.1 4.3 16.7 2.8 2.4 3.9 2.3 8-.7 5.1-3.8 5.9-7 5.2-21.5l-.6-12.5 10.4-5.3c5.7-2.9 11.2-5.9 12.3-6.7 2.9-2.2 2.6-8.3-.6-12.6-2.6-3.3-2.7-3.7-1.2-5.8 2.3-3.3.4-7-8-15.9-6.1-6.4-7.4-7.3-9.7-6.8-2.4.4-3.5-.3-7.6-4.8-5.4-5.9-13.8-22.1-19.4-37.5-2.7-7.6-4.4-10.6-8.6-15.1l-5.1-5.6 6-2.1 6-2.1 2 4.7c1 2.5 2.3 5.7 2.9 7 .7 1.6 1.5 2.2 2.9 1.8 2.4-.6 2.6.6.5 2.3-2 1.7-1.9 4.8.4 9.3 1.8 3.6 1.8 3.7.1 3.7-4.7 0-2.1 4.5 3 5.5 2.9.5 4.2.1 7.8-2.5 5.1-3.9 5.3-5.5 1.1-14.4-1.8-3.9-2.9-7.5-2.6-8.7.4-1.4-1.1-5.4-3.9-11-3.6-7.1-4.3-9.3-3.4-10.8 1.9-3.6 1.1-10.3-1.9-16.7-1.9-4-2.6-6.6-2-7.5 1.7-2.7.8-5.9-3.7-13.4-3.9-6.4-5-7.5-7.3-7.5-2.1 0-3.1-.8-4.4-3.5-.9-1.9-3.5-5.5-5.7-7.9-4-4.4-5.1-8.3-3.1-11.5.8-1.2 1.4-.7 3.2 2.3 1.9 3.2 6.4 6.4 7.5 5.3 1.2-1.2 3.7-14.3 3.7-19.8.1-5.8-.3-7.2-3.2-11.8-3.9-6-7-8.7-11.1-9.6-1.7-.4-4.3-2.4-6.4-5-5.1-6.2-10.5-8.5-19.7-8.4-4.1 0-8.5.5-9.9 1"/></svg>