<svg xmlns="http://www.w3.org/2000/svg" width="682.667" height="512" version="1.0" viewBox="0 0 512 384"><path d="M243.9 34.3c-3.4 1.8-5 3.6-7 7.6-2.1 4.1-3.6 5.7-6.7 7.1-4.5 2-5.2 2.9-6.2 7.6-.5 2.3-.3 3.9.6 5.1.7 1 1.4 4 1.4 6.6 0 5.4 2.3 10.5 6.9 15.6 3.3 3.7 3.9 7 2.2 12.9-1.2 3.9 0 4.1 2.8.6l2.1-2.7v3.6c0 2.9.4 3.6 2.5 4.1 1.3.3 2.9 1.5 3.5 2.6 1.6 3 3.2 2.5 2.4-.8-.7-2.4-.6-2.6.9-1.3 2.4 1.9 2.2 2.6-2.1 6.9-2.1 2.1-4.6 5.4-5.5 7.5-1.8 3.8-3.1 4.5-4.3 2.6-.3-.6-2.5-2-4.8-3-7-3.2-15.6-2.1-15.6 1.9 0 1-.5 2.3-1 2.8-.6.6-1.3 3.4-1.7 6.2-.9 8.2.5 9.2 13.1 9.1h11.5c.9.1 1.1.8.8 2.3-.4 1.2-.1 2.8.5 3.5.6.8 1.2 4.2 1.2 7.6.1 4.7.9 8 3.4 13.4 3.7 8.4 4.2 14.1 1.2 16.8-1.1 1-2.2 2.6-2.6 3.7-.3 1.1-2.4 4.5-4.5 7.6-5.1 7.2-5.2 10.8-.5 15.3l3.4 3.2-3 8.6c-3.7 10.5-4.1 11.3-8.9 17.8-2.8 3.7-5.9 6.2-11.1 9.1-4 2.3-8.9 5.7-10.8 7.7-4 4.2-9.8 7.5-13.1 7.5-1.5 0-4.6 2.4-8.8 6.8-9.2 9.6-19 18.3-29.3 26-4.9 3.6-8.8 6.9-8.8 7.3s.6.9 1.4 1.2 1.6 1.6 1.8 2.9c.2 1.2 2.1 3.5 4.5 5.3 2.3 1.6 4.2 3.8 4.2 4.7.2 4.1 14.1 15.5 17.4 14.2 1.9-.7 7.3 2 8.6 4.4 1.2 2.2 11.7 5.6 23.5 7.7 4.9.8 9 1.5 9.2 1.5s.4-.7.4-1.5c0-1.9 1.4-1.9 2.9-.1.6.8 3.2 1.9 5.7 2.5l4.5 1.1-5.1 9.7c-5.3 10.4-5.8 12.8-3.5 17.2 2.3 4.5 7.9 5.5 12.6 2.3 5.8-3.9 15.3-13 17.6-17 1.9-3.3 3.1-4.2 5.2-4.2 1.5 0 4.3-.8 6.2-1.8 3.4-1.7 4.4-1.7 18-.4 14.8 1.5 30.3 1.9 35.1.9 1.6-.3 4.6-2 6.8-3.7s4.5-3 5.1-2.8c1.9.6 5 11 4.5 14.7-.3 2-1.9 4.8-3.7 6.7s-2.9 3.9-2.6 4.7c.6 1.7-2.4 4.7-7 7.1-1.8.9-3.3 2-3.3 2.4 0 2.6 3 3.2 16.7 3.2 16.4 0 14.3 1.4 18.4-12 2.6-8.8 3.5-16.6 2.1-18.3-1.2-1.4-5.2-14.7-5.2-17.1 0-.9.8-1.6 1.8-1.6 2.8 0 11.4-7.9 10.7-10-.4-1.1.1-1.9 1.2-2.2 2-.6 6.3-8 6.3-10.9 0-1 .5-1.9 1.1-1.9 2.1 0 .2-13.4-2.8-19.5-2.7-5.4-2.7-5.6-.9-8.6 2.6-4.5 1.5-7.1-7.2-15.9-5.7-5.8-8.8-8.1-12-9.1-3.7-1.1-5.3-2.6-11.5-10.7-13-17-18.1-25.5-25.4-42.7-1.2-2.8-3.1-6.5-4.3-8.3l-2.2-3.2h2.7c4.4 0 14.6-3 19.8-5.7 11.5-6.3 15.7-19.4 10.4-32.3-1.3-3.1-5.3-9.8-8.9-15s-9.4-14.6-12.8-20.7c-3.4-6.2-8.4-13.7-11.1-16.7l-4.9-5.4-.9-13.7c-.9-12.4-1.3-14.4-4.1-20.1-1.7-3.5-4.6-7.8-6.5-9.5-1.9-1.8-3.7-4.5-4-5.9-.8-3.6-7.9-10.4-13.5-12.9-6.8-3.1-21.1-3-27.1.2"/></svg>