<svg xmlns="http://www.w3.org/2000/svg" width="682.667" height="512" version="1.0" viewBox="0 0 512 384"><path d="M246.1 17.5c-4.9 1.5-9.4 5.4-11.2 9.6-.9 2.3-2 3-5.3 3.6-6.2 1-9.6 4.9-9.6 11.2 0 2.7.5 5.3 1.1 5.7.7.4.9 2.5.4 6-.5 4.5-.3 6 1.4 8.8 1.2 1.8 2.1 3.9 2.1 4.5 0 .7 1.3 2.6 3 4.4 2.5 2.6 3 4 3 8 0 2.6-.7 6.2-1.6 7.9-1.7 3.3-.8 3.2 3.5-.6l2.4-2.1-.6 4.5-.6 4.5 2-2.4 1.9-2.3.1 2.3v2.4l1.6-2.3c2-2.8 4.7-3 4-.2-.4 1.5 0 2 1.4 2 2.4 0 4 3 2.8 5.3-.6.9-1.6 1.7-2.4 1.7s-2 1-2.6 2.2c-.7 1.3-2.5 3.9-4 5.8s-3.1 4.7-3.5 6.3c-.7 3.1-3.6 5.1-6.2 4.3-.9-.3-2.6-1.9-3.7-3.6-2-3-9.3-6.8-14.9-7.7-7.4-1.1-11.6 3.9-12.3 15-.6 8-.1 8.4 13.6 8.5 6.3.1 11.6.4 11.8.6s-.1 1.5-.6 2.9c-1.1 2.7-1.1 2.7 8.2 5.8 2.8 1 3.9 2 4.3 3.9 1.3 7 2.7 11.7 4.6 15.9 1.6 3.4 2.2 6.3 2.1 11.1-.1 3.6.3 9.5.8 13.2 1 6.5 1 6.8-2.3 13-1.9 3.4-4.2 10.1-5.2 14.8-5.6 26.1-11.3 36.3-26.3 47-15.9 11.3-14.6 10.8-18.9 8.5-2.9-1.5-3-1.5-6.7 2.7-2.1 2.4-5.1 5.6-6.6 7.3-3.8 4.1-6.4 8.2-7.6 12.1-.8 2.6-3 4.7-9.5 9.2-6.7 4.6-8.5 6.4-8.7 8.5-.1 1.7.4 2.8 1.6 3.2 1 .3 2.4 1.7 3.1 3 .8 1.4 2.8 3.7 4.6 5 2.1 1.6 3.7 4 4.4 6.5 1.1 4.2 10.8 15 18.6 20.6 2.7 2 3.8 3.5 3.6 4.9-.5 3.3-3.6 8.5-4.9 8.5-1 0-1.3 3-1.3 12.5V384h12.5c7.7 0 12.5-.4 12.5-1 0-1.9 3.1-21.4 3.4-21.7.2-.2 3.7.7 7.8 2.1 10.6 3.6 15.8 4.3 15.8 2.2s1.3-2 3.4.3c1.3 1.4 4.2 2.1 12.9 3 11.5 1.3 13.9 1.8 21.7 4.6 5.3 1.9 9.4 1.4 14.3-1.9 2.5-1.7 6.4-2.8 14.6-4 6.2-.9 12.1-2.2 13.2-2.9 1.6-1 2.1-.9 2.8.2.7 1 2 1.2 5 .7 5.6-.9 13.3-3.5 15.2-5.2.9-.8 1.8-1.2 2.1-.9s1.8-1.4 3.4-3.7c2.7-4.2 6.2-7.7 7.6-7.8.4 0 2.5 3.4 4.7 7.6 4.2 8 5.6 15.9 3.3 18.6-.6.8-1 3.3-.9 5.6l.1 4.2h24.3l.7-5.3c.3-2.8.6-9.1.6-13.9 0-10.1-1.8-15.9-5.6-17.7-2.3-1-7.4-9.8-7.4-12.7 0-1.1 8-7 14.7-10.9 7.2-4.1 8-10.7 2.9-22.9-1.9-4.4-4.7-9.6-6.2-11.5-2.4-3-2.9-4.4-2.6-8.1.3-5.8-.9-7.2-12.5-14.8-6.3-4.1-10.6-6.2-13.7-6.6-4.9-.8-6.1-1.7-13.6-10.5-10.9-12.8-21.2-29.7-31.8-52.3-.2-.4 3.4-.7 8-.6 17.8 0 29.8-5.9 34.5-17 2.3-5.4 2.1-16.5-.4-23-1.2-2.9-5.5-10.5-9.6-17.1-4.2-6.5-10.2-17.1-13.4-23.6-6.7-13.7-12.9-21.2-20.7-25-4-2-5.9-3.7-8.3-7.8C293.5 78 290 69.3 290 67c0-.5 3.1 2.2 6.9 6 5 5 8.1 7.2 11.1 8 2.3.6 4.8 1.4 5.7 1.7 1.2.5 1.4.3.8-.7s-.3-1.2 1.3-.8c2.7.8 3.3-1.1 1.3-4.2-1.2-1.8-1.3-2.2-.2-1.6 1.2.8 1.3-.4.7-7.5-1-12.2-2.3-15.5-8.8-22.4-5.9-6.4-11.3-9.8-18.4-11.5-3.1-.8-4.8-2-6.9-5-7.3-10.5-24.1-15.7-37.4-11.5"/></svg>