<svg xmlns="http://www.w3.org/2000/svg" width="682.667" height="512" version="1.0" viewBox="0 0 512 384"><path d="M233.7 26.4c-7.4 2.7-11.7 6.4-14.3 12.2-2 4.5-2.8 5.4-5 5.4-3 0-6 1.4-9.1 4.3-2.8 2.5-3 7.4-.6 12 1 2 1.5 5.1 1.4 8.3-.2 6.1.8 9.1 4.8 13.5 1.6 1.9 3.9 4.5 5 5.9l2 2.5-.6-2.5c-.5-2.1-.4-2.3.8-1.2 1.6 1.5 2 15.9.6 20.2-.7 2.1-.3 1.9 2.6-1.4 3.8-4.3 5-3.5 4.1 3.1l-.5 3.8 1.8-3 1.7-3 .6 3c.6 2.8.7 2.8 1.3.8.7-1.9 6.4-4.9 7.5-3.9.2.3.8 2.4 1.3 4.7.9 4 .8 4.4-1.9 6.5-1.6 1.3-4.1 5.1-5.7 8.5-2.6 5.8-2.7 6.9-2.2 15 .8 10-.5 15.5-3.2 14.3-.9-.4-2.7-.7-4-.7-2.4.1-10.1-4.1-10.1-5.5 0-1.7-6.9-5.1-11.7-5.8-8.3-1-12.2.1-13.9 4.1-.7 1.8-1.9 3.7-2.5 4-.6.4-.8 1.8-.5 3 .3 1.3.1 2.7-.5 3-.6.4-.8 1.8-.5 3.1.4 1.3.1 3.3-.6 4.5-1 1.7-1 2.3-.1 2.6.8.3 1.1 1.4.7 2.8-1 4 2.4 5 17.6 5h13.5v2.9c0 2.7.4 2.9 7.3 4.7 13.3 3.4 14.8 5.1 13.6 16.1-.4 3.1-.1 8.5.5 12 1.2 6.1 1.1 6.5-1.8 12.8-2.9 6.5-5.3 16.4-6.6 27-1.4 12.3-6.3 33.5-10.2 44.5-2.2 6.1-12.6 27.5-15.2 31.4-.7 1.2-1.4 1-3.6-.8-4.9-3.8-8.7-2.5-12.2 4.2-.9 1.8-3.7 6.1-6.2 9.7-4.4 6.2-4.6 6.7-4.3 12.8.1 3.5.9 7.6 1.7 9.1 1.2 2.5 1.1 3-1.2 5.9-2.5 3.3-3.5 8.5-2.6 13.4l.6 2.8h101.9c56.7 0 101.7-.4 101.4-.9-.3-.4 1.2-1.6 3.4-2.6s4.5-2.4 5.1-3.2c1.8-2.1 2.7-1.5 4 2.7l1.2 4h23l-.7-6.2c-1.6-16.1-4.6-30.2-7.4-34.7-1.6-2.5-3.4-6.2-4.2-8.1-1.8-4.7-5.3-9.8-7.9-11.6-1.4-1.1-2.1-2.6-2.1-5 0-7.6-5-13.2-21.3-23.8-6.7-4.4-9.4-5.6-12.5-5.6-3.2 0-4.8-.8-8.8-4.2-7.7-6.6-10.4-9.8-17.8-20.9-3.8-5.7-7.7-11.6-8.7-13-1.3-2-10.3-19-12.7-24-.1-.4 3.4-1 8-1.4 21.3-1.8 32.4-12.5 31.9-30.9-.1-7.6-2.5-14.5-10.6-30.5-4-8-9.2-19.6-11.5-25.6-4.3-11.5-7.7-18-11.7-22.9-1.3-1.6-2.2-3.4-1.9-4.1.2-.6-2.1-2.8-5.2-4.8-4.8-3.1-5.3-3.7-3.2-3.7 2.5-.1 2.5-.1-.8-3-2.5-2.3-2.8-3-1.5-3 1-.1-.4-1-3.1-2-2.7-1.1-6.5-3.4-8.3-5.2-3.4-3.3-9-13.4-8-14.4.3-.3 2.7 1.1 5.5 3 9.1 6.6 12.5 7.6 24.8 7.3 10.4-.3 14.7-1.3 14.4-3.3 0-.5 1-1 2.2-1.2 4.8-.6 5.2-1.1 2.8-3.2-1.3-1.1-2.7-2-3.1-2-.5 0-.6-.6-.3-1.4s-.4-1.6-1.8-1.9c-1.3-.4-6.5-4.4-11.6-9.1-9.5-8.6-23.6-17-32.8-19.5-2.5-.7-4.8-2.1-5.8-3.5-2.8-4.4-8-8.6-14.6-11.8-5.7-2.8-7.7-3.2-16-3.5-6.4-.2-10.7.1-13.3 1.1"/></svg>