<svg xmlns="http://www.w3.org/2000/svg" width="682.667" height="512" version="1.0" viewBox="0 0 512 384"><path d="M229.8 31.5c-9.4 2.6-15.9 8.9-17.6 17.2-.8 3.6-1 3.8-5.7 4.5-8.7 1.2-12 8.8-7.1 16 1.7 2.5 2.4 5.3 2.8 10.7l.5 7.1 6.3 6.1c3.9 3.9 6 5.3 5.5 4-.3-1.2-.2-2.1.2-2.1.5 0 1.5 2.9 2.2 6.5 1.2 5.8 1.1 9.7-.5 16l-.5 2 1.6-2c.9-1.1 2.3-2.9 3.1-4 1.3-1.7 1.6-1.8 2.4-.5.5.8.7 3.1.4 5l-.5 3.5 2-2.5 2-2.5 1 2.5c.6 1.6 1 1.9 1 .8.1-1.9 1-2.6 5.1-3.8 2.2-.6 2.8-.5 2.4.5-.3.7-.1 1.6.5 2 1.9 1.1 1.2 4.1-1.5 6.8-6.2 6.3-8.6 13.5-7.3 22.2.9 5.7.7 7.9-1.6 18l-2.7 11.4-5.6-.3c-6.3-.5-10.2-1.5-10.2-2.6 0-.4-1.8-1.9-4-3.4-8.4-5.5-22.6-4.3-26 2.1-1 1.8-2.3 3.9-2.9 4.7-.6.7-.9 2-.5 2.9.3.8 0 2.5-.6 3.7-1 1.8-.9 2.5.3 3.8 1.2 1.1 1.3 1.9.4 3.3-.8 1.3-.7 2.1.4 3.5.8.9 1.3 2.5 1.1 3.5s.5 2.2 1.6 2.8c2 1.1 20.4.8 26.4-.4 3.4-.7 3.8-.5 4.7 1.8.6 1.5 2 2.8 3.3 3.1 1.3.2 6.1 1.2 10.8 2 4.6.9 8.8 2 9.3 2.5.6.6 1.3 4 1.6 7.8.4 3.7 1 7.3 1.3 7.9.4.6-.8 4.6-2.6 8.8-3.5 7.9-4.2 11.1-7.2 31.6-1.8 13-6.5 33.5-9.6 42.5-1.1 3.3-5.2 12.2-9 19.8l-7 13.9-2.2-2.1c-2.2-2.1-4.8-2.3-7.4-.8-.7.5-2.7 3.8-4.6 7.5-1.8 3.7-4.5 9-5.9 11.8-2.9 5.7-3.3 9.7-1.5 15.9 1.3 4.5 1.3 4.2.3 7.2l-.6 2.3H414l-.4-2.3c-.3-1.2-1-5.8-1.6-10.2-2.5-19.2-2.6-19.3-12.2-27.4-2.6-2.1-4.5-4.1-4.3-4.3.5-.5-2.7-9.6-4.8-13.4-2-3.8-9.1-10.2-14.3-12.9-2.2-1.1-4.1-2.3-4.4-2.7-.3-.3-2.5-1.8-4.9-3.1-4.1-2.4-4.6-2.4-6.8-.9-1.5.9-2.7 1.2-3.1.6-.4-.5-3.7-3.3-7.4-6.2-6.4-5-12.9-13.4-17.3-22.2-1-1.9-2.3-4.2-3-5-2.3-2.8-20.5-37.2-20-38 .2-.4 4.4-1 9.2-1.3 16.3-1 28-8 32.2-19.3 4.5-11.8 2.1-21.7-10-43.1-4.6-8-11.1-20.7-14.4-28.2-8.4-18.7-14.4-27.1-22.2-30.8-2.4-1.1-3.1-1.8-2.1-2.4.9-.6.7-1.3-1-3.2-2.9-3-2.8-3.7.6-3.8l2.7-.1-2.5-.7c-6.2-2-12.3-5.7-15.5-9.4-1.9-2.2-3.5-4.4-3.5-4.8s2.5.5 5.6 2.2c4.8 2.5 6.7 2.9 13.4 2.9 10.1 0 20-1.1 20-2.1 0-.5-.8-.9-1.7-1-1.6-.1 1.1-.9 8.7-2.6l2.5-.5-2.5-1.1c-2.1-.8-2.2-1.1-.7-1.4 1.6-.4 1.5-.8-1-2.9-4.5-3.9-5.2-4.4-6.2-4.4-.5 0-4.3-2.8-8.3-6.3-9.8-8.6-14.8-11.8-27-17.6-8.4-4.1-10.8-5.8-13.2-9.2-7.9-11.3-27.8-17.5-42.8-13.4m37.6 92c-.7 1.6-2.4 2.1-2.4.6 0-.8.7-1.3 2.7-2 .1-.1 0 .6-.3 1.4"/></svg>