<svg xmlns="http://www.w3.org/2000/svg" width="682.667" height="512" version="1.0" viewBox="0 0 512 384"><path d="M0 192v192h433.3l-1.9-2.1c-1.8-2.1-15.7-11.5-22.4-15.2-3.1-1.7-3.2-1.8-1.6-3.6s1.5-2.4-3.2-11.8c-2.7-5.5-6.9-13-9.3-16.8s-4.3-7.3-4.1-7.8c.4-1.4-3.7-9.7-6.9-13.7-1.5-2-3.7-6.5-4.9-10-2.7-8.2-11.8-23.7-18.2-31.3-2.9-3.4-4.8-6.4-4.6-7.5.6-2.4-3.9-11.2-6-11.8-7.2-2.4-7.4-2.5-6.7-6.3.4-2 1.1-3.9 1.7-4.2.6-.4-.5-6.4-2.7-15.4-2-8.1-3.4-15.4-3.1-16.1s0-1.5-.7-1.7.5-.5 2.6-.5c4 0 9.1-2.7 8.2-4.3-.4-.5.3-2.5 1.5-4.4l2.2-3.5-2.3-3.2c-1.3-1.8-2.8-3.6-3.4-4-.5-.4-.6-.8-.1-.8s0-1-1.1-2.3c-1.5-1.6-2.1-3.7-2.2-7.7 0-3-.4-8.8-.7-12.8-.3-3.9-.4-7.2-.1-7.2.6 0 11.4 16.1 12.3 18.4.3.9 1 1.6 1.4 1.6.5 0-.7-3.9-2.5-8.6-2.5-6.4-3.2-9.2-2.5-10.9.5-1.3.7-2.5.5-2.7s-.6-1.6-.9-3.1c-.3-1.6-1.4-4.7-2.5-7-6.8-14-7.2-17-9-65.2-.6-16.5-1.5-38.6-2-49-.8-18.6-.8-19.1 1.5-24.7 1.3-3.2 2.4-6 2.4-6.3S265.1 0 171 0H0zm336.7 25c1.2 3.5 2 6.6 1.8 6.9-.6.5-.4.8-3.8-5.6-2.9-5.6-3.5-8.7-1.5-8.1.6.2 2.2 3.3 3.5 6.8m3.8 11.1c.9 3.8.3 4.4-2.4 2.7-2.4-1.5-2.6-2.9-.9-4.6 1.9-1.9 2.6-1.5 3.3 1.9"/></svg>