<svg xmlns="http://www.w3.org/2000/svg" width="682.667" height="512" version="1.0" viewBox="0 0 512 384"><path d="M283 34.1c-9.6.7-14.4 2.1-20.1 5.8-6.5 4.1-9.8 8.8-10.6 14.9-.6 5.6-.4 5.4-10.8 6.7-9.1 1.2-11.5 2.3-11.5 5.5 0 2.6 5.5 11.3 8.3 13.1.5.4.7 1.6.4 2.8s-.1 2.1.5 2.1.7.7.3 1.7c-.9 2.1-1.3 10.3-.5 10.3.3 0 1.2 2.1 1.9 4.7.9 3.4 2.5 5.9 5.6 8.9 4.3 3.9 4.3 4.1 2.4 5.7-2.6 2.3-2.4 4.1.6 6.1 1.4.9 2.5 2.5 2.5 3.6s1.4 4.6 3.1 7.9c2.6 5 2.9 6.2 1.9 8.1-1.3 2.5-.8 3.6 1.2 2.4.7-.5 2.6-.9 4.1-1 2.6-.2 2.8 0 2.2 3l-.6 3.1 3-3.5 3-3.5.7 3.5.8 3.5 1.2-3c.7-1.7 1.3-2.6 1.4-2.1 0 .5.6.3 1.4-.3 1.1-.9 1.6.2 3 5.7 1.6 6.8 1.6 6.9-.8 12.5-2.1 4.6-3.5 6.2-8 9.1-3.7 2.3-6.3 5.1-8.2 8.3-1.5 2.6-5.1 7.7-8 11.3-2.8 3.6-5.9 8.7-6.8 11.5-1.8 5.6-7.8 17.5-8.7 17.5-.8 0-15.2-15.8-19.8-21.8-1.8-2.3-4.1-4.2-5.1-4.2s-3.9-1.8-6.5-4c-13.8-11.9-24.4-16.4-33.1-14.1-5.9 1.6-10.7 9.2-11.2 17.6-.4 6-.3 6.2 3.1 8.8 5 3.8 6.1 3.5 5.3-1.4-.9-5.6 0-6.4 3.7-3.6 4.4 3.3 9.1 5.6 14.9 7.4 4.9 1.4 5 1.5 4.4 4.7s-.2 3.7 7.5 10.7c4.4 4 12.6 12.7 18.2 19.3 5.5 6.7 10.8 12.6 11.6 13.3.9.7 3.9 1.3 6.7 1.3 3.8 0 6.1-.7 9.6-2.9 4.9-3.1 15.4-14.7 19-21.1 1.3-2.2 2.6-4 3.1-4 1.1 0 2.3 3.7 3.1 9.5 1.1 8 1.7 10.5 2.6 10.5.5 0 1-1.2 1.2-2.8.3-2.5.5-2.4 3.5 2.7 2.5 4.3 3.3 7.1 3.8 13 .4 4.2 1.1 9.4 1.7 11.6s1.1 7.6 1.2 12 .4 8.5.8 9.1c1.2 1.7-1.6 10.3-6.4 19.9-2.5 4.9-6.2 13.5-8.3 19-7.4 19.9-13 28.6-29.4 45.7l-7.4 7.8h102.8c91.2 0 102.6-.2 101.5-1.5-.7-.8-1.6-1.5-2.1-1.5s-3.3-1.6-6.1-3.6-7.1-4.5-9.5-5.6c-3.2-1.4-5.4-3.4-8-7.4-3.2-4.8-3.5-5.7-2.5-8 1.5-3.1 1.5-12.3.2-19.4-.5-2.8-2.9-9.9-5.1-15.6-3.8-9.4-4-10.6-2.7-12.2 1.4-1.5 1.1-2.7-2.2-11.5l-3.7-9.7h2.6c5.3 0 19.8-4.2 27.8-8.2 14.5-7 21.2-16.6 22.1-31.3.5-9.7-.8-17-4.8-25.3-3.9-8.2-7.5-12.9-24-30.7-7.6-8.3-18.3-21.1-23.7-28.5-13-17.9-21.6-26.8-29.5-30.8l-6.3-3.2h4.4c5.8 0 4.3-1.3-3.4-3-5.3-1.1-8.4-3-8.5-5.3 0-.4.7-.7 1.7-.7 1.4 0 1.4-.2-.2-2-1.8-1.9-1.7-2 .6-2.1 1.8-.1 2-.2.6-.6-1.3-.3-1.7-1.1-1.4-2.4.3-1 0-1.9-.6-1.9s-.8-.3-.4-.6c.3-.4 5.1-.1 10.7.6 5.7.7 12.1.9 14.8.5l4.7-.8-3.5-1.3-3.5-1.2 3.5-.3c1.9-.1 4.9-.2 6.5-.3 1.7-.1 4.4-.3 6-.5l3-.2-4-1.9c-3.4-1.6-3.6-1.9-1.6-1.9 3.4-.1 1.9-1.3-2.6-2.1l-3.8-.7 3.4-.9 3.4-1-4-2.6c-2.1-1.4-7-5.5-10.8-9.1-14.7-13.7-23.6-19.9-36.6-25.2-7-2.8-8.8-4.1-11.6-7.9-4.1-5.7-9.6-9.8-19.1-14.3-11.3-5.3-18.4-7-27.2-6.2m70.4 87.8c.3.5-.1 1.1-.9 1.5-1.5.6-2.9-.7-1.8-1.8.9-.9 2.1-.8 2.7.3M317 158.1c0 3-1.3 2.2-3.7-2.1l-2.1-4 2.9 2.1c1.6 1.1 2.9 2.9 2.9 4M361.3 282c2.6 1.2 4.7 2.8 5 4 .3 1.1.3 2 .1 2-.3 0-2.7-1.8-5.5-4-5.8-4.6-5.8-4.7.4-2"/></svg>