<svg xmlns="http://www.w3.org/2000/svg" width="682.667" height="512" version="1.0" viewBox="0 0 512 384"><path d="M271 41.6c-3 .8-7.3 2.6-9.6 3.9-7.5 4.4-14 13.6-12.8 18.2.8 2.8 0 3.1-9.3 4.2-8.8.9-13.3 3.1-13.3 6.5 0 1.8 6.6 11.1 9.1 12.6.4.3.4 1.2-.1 2-.6.8-1 2.1-1 2.9 0 1.1.3 1.1 1.5.1 1.3-1.1 1.4-1 .9.6-.4 1-1 2.3-1.5 2.9-2.9 3.9 3.7 22.5 8 22.5.5 0 1.7 1 2.5 2.2 1.5 2.1 1.4 2.4-.9 4.8l-2.5 2.6 3 2.9c1.7 1.6 2.9 3.7 2.8 5-.1 1.2.7 3.4 1.8 5.1 2.7 3.7 4.5 9 3.8 10.9-.5 1.2.1 1.4 2.7.9 1.9-.3 4-.8 4.7-1 1-.3 1.2.4.7 2.9l-.6 3.2 2.7-3.4 2.8-3.4 1.2 3.4 1.2 3.4 1.2-3.3c1.6-4.2 2.8-4.1 3.6.5.4 2.1 1.3 5.5 2 7.5 1.2 3.4 1.1 4.3-1.1 9.3-1.9 4.2-3.3 5.9-6.4 7.4-2.1 1.1-5.6 4.1-7.8 6.7-2.1 2.5-6.4 7.5-9.6 11.1-3.2 3.5-6.8 8.5-7.9 11.1-2.8 6.4-7.9 14.2-8.9 13.6-.5-.2-4.1-6.1-8-13-4-6.9-8.2-13-9.3-13.6s-5.2-4.1-9.1-7.7c-12.1-11.5-20.6-16.1-29.8-16.1-3.3 0-5.1.7-8 3.1-2 1.7-3.7 3.6-3.7 4.2 0 .7-.9 2.3-2 3.7-1.3 1.7-2 4.1-2 7.3 0 4.3.4 5.2 3.7 8.2 2 1.9 4.1 3.1 4.6 2.8s.6-2.3.3-4.4c-.6-3.7-.5-3.9 2-3.9 1.4 0 4.4 1.5 6.7 3.4s6.8 4.6 10 6c6.1 2.7 6.2 2.8 4.7 5.7-.9 1.6-.1 3.2 4.8 9.6 6.3 8.4 15 22.1 20.1 31.8 4.2 7.8 6.2 9.5 11.8 9.5 8.1 0 17.1-6.1 27.4-18.5 3.4-4.1 6.5-7.5 6.9-7.5s1 1.5 1.3 3.2c2 12.6 3.8 21.3 4.7 22.2.7.7 1 0 1-2.3 0-3.9 1.2-3.4 4.5 2 1.9 2.9 2.8 6.2 3.6 13.6.6 5.4 1.7 13.4 2.4 17.7.8 4.3 1.1 9.2.8 10.7-.3 1.6-.1 3.5.5 4.1 1.7 2.1-.4 10.7-5.3 21.6-2.4 5.5-5.1 12.6-6 15.8-2.7 9.5-6.6 21.4-8.1 24.3-.8 1.4-1.4 2.9-1.4 3.3s-2 4.1-4.5 8.3l-4.4 7.5h87.6c48.2 0 87.4-.2 87.1-.5s-2.9-1.3-5.9-2.3c-4.1-1.5-6-2.8-8.1-5.8-2.4-3.6-2.5-4-1.1-5.6 1-1.1 2.4-1.6 3.8-1.2 1.5.4 3.2-.3 5.3-2.1 3-2.6 3.2-3 3.2-9.8 0-10.3-2.3-19.4-7.5-30.4-4.8-10.2-5.2-11.9-3.2-12.6.8-.3.4-2.1-1.8-6.6-2.5-5.3-2.7-6.4-1.5-7.1.8-.6 2.1-1 2.9-1s4.6-1.6 8.6-3.5c13-6.2 21.3-17.4 23.8-32 1.3-7.9 0-17.6-3.7-26-2.9-6.3-10.7-17.9-16.6-24.5-8.6-9.5-20.3-24.5-26.8-34.3-3.7-5.6-7-10.4-7.4-10.5-.5-.2-.8-.8-.8-1.3 0-1.2-5.3-8.3-10.2-13.7-4.5-4.9-11.4-10.5-16.3-13l-4-2.1 4.5-.1c5.6 0 3.7-1.6-3.1-2.5-3.5-.5-4.8-1.2-5.2-2.6-.5-1.7-3.3-2.5-7.4-2-2.4.3-2.3-1.9.1-3.1 1.9-.8 2.3-1.4 1.6-2.3-.8-1 .1-1.4 3.5-1.9 4.7-.8 5.7-1.9 2.8-3.1-3.2-1.3 2.5-2.7 12.2-3 5-.2 11.5-1 14.5-1.8l5.5-1.5-4.5-.1c-2.6-.1-4-.5-3.5-1 1.2-1.1 10.6-3.1 14.6-3.1 3.8 0 2.9-1.6-1.4-2.6-2.8-.6-2.9-.8-1.2-1.4 2.2-.9 1.1-1.6-3.5-2.3l-2.5-.3 3-1.3 3-1.2-5.6-2.3c-3.1-1.2-9.3-4.9-13.8-8.2-4.6-3.2-10.4-7.4-12.9-9.2-5.2-3.7-17.8-9.9-25.9-12.7-3.9-1.4-5.9-2.9-7.7-5.4-3.7-5.7-8.6-9.9-16.2-14.2-15.1-8.3-28.7-10.7-41.4-7.3M315.5 167c-1.1 4.2-1.9 4-4.6-1.6l-2.5-5.3 3.8 2.2c3.4 1.8 3.8 2.5 3.3 4.7M377 306.4c2 4.6 3.3 9.6 2.5 9.6-.2 0-1.1-1.2-1.9-2.8-.8-1.5-3.3-4.6-5.5-6.9-2.3-2.3-4.1-4.4-4.1-4.6 0-.1 1.6-.1 3.6.1 3.1.4 3.9 1 5.4 4.6"/></svg>