<svg xmlns="http://www.w3.org/2000/svg" width="682.667" height="512" version="1.0" viewBox="0 0 512 384"><path d="M265.5 48.9c-6.7 1.9-9.5 3.3-14.2 6.9-4.1 3.1-9.3 10.8-9.3 13.9 0 4.8-1.5 6-8.7 6.8-3.7.4-7.6 1.1-8.8 1.5-2.3.9-6.5 4.4-6.5 5.4 0 .4 2.6 3.4 5.7 6.7l5.7 6-1.7 2.8c-2.3 3.9-2.1 4.8.3 2.6 2.5-2.3 2.5-1 .1 4.1-1.1 2.1-1.5 4-1 4.2s.9 1.1.9 2c0 2.8 4.4 12.2 5.8 12.2.6 0 1.2.7 1.2 1.6 0 .8.4 1.3.9 1 .4-.3 1.8.5 3 1.8 2.4 2.6 2 4.8-1.3 7.6-1.4 1.1-1.3 1.6 1.4 4.7 1.7 1.8 3 3.9 3 4.6s1.6 4.4 3.6 8.2c1.9 3.9 3.3 7.8 3 8.8-.3 1.3-.1 1.5.7.9.7-.5 2.9-1.2 5-1.5 3.8-.6 3.9-.5 3.3 2.1-.6 2.7-.6 2.6 2.5-.8 2.3-2.6 3-3 2.6-1.5-.2 1.1.2 2.6.9 3.3 1.1 1 1.6.7 2.7-1.4 1.3-2.5 1.4-2.3 3.4 5.2l2.1 7.7-2.2 4.8c-1.7 4-3 5.3-7.3 7.5-2.9 1.4-6.2 3.8-7.3 5.4s-4.9 5.1-8.5 7.9c-4.3 3.4-7.3 6.7-8.9 9.9-2.7 5.3-6 8.7-7.5 7.8-.5-.3-2.6-5.5-4.6-11.5-3.2-9.6-5.6-14.2-8.2-15.2-.5-.2-3-3-5.5-6.2-8.5-10.4-17.1-16.5-27.4-19.1-5.5-1.4-6.5-1.4-9.8-.1-2.1.9-5 3.5-7.1 6.3-2.9 3.9-3.5 5.5-3.5 10 0 4.9.3 5.6 3.7 8.7 4.1 3.7 5.6 3.2 4.6-1.7-.5-2.6-.4-2.8 3-2.8 2.9 0 4.5.9 7.9 4.1 2.4 2.3 6.1 5 8.3 6.1 5.1 2.6 4.8 2.3 3.4 4.5-1 1.7-.6 3.1 2.4 8.9 4.3 8.3 8.5 18.7 12.3 30.9 3.4 10.9 4.8 13.4 9.1 15.1 8.6 3.6 17.7-.4 32.2-14.2l10-9.5-.1 7.3c-.1 4 .3 9.3.9 11.8s1.4 7.1 1.8 10.2c.7 6.1 2 7.5 3.1 3.3.3-1.4.9-2.5 1.3-2.5.3 0 1.8 2.2 3.3 4.8 1.9 3.4 3 7.4 3.8 13.8.6 4.9 1.8 12.9 2.6 17.9.9 4.9 1.8 10.3 2.1 12 1.2 7.3.4 12.5-3.7 22.8-2.2 5.8-6.2 19.2-8.8 29.6l-4.8 19.1h74.8c41.1 0 74.8-.3 74.8-.8 0-.4.4-1.3.9-2.1.8-1.2 1.2-1.2 2.6.2 2.2 2.2 2.5 2.2 6.1-1.1 1.8-1.7 3.8-2.6 5.2-2.4 1.3.2 3.4-.4 4.8-1.2 2.2-1.5 2.4-2.2 2.4-10.5 0-11.1-2.6-21.7-8.4-33.7-3.1-6.4-4.1-9.5-3.5-10.7.6-1 .5-1.8-.1-2.2-.5-.3-1-1.3-1-2.2 0-.8-.9-2.8-2.1-4.5-1.2-1.6-2-3-1.8-3.2.2-.1 2.6-1.5 5.4-3.1 6.9-4 14-10.9 16.6-16.1 6.9-14.3 6.5-29.9-1.1-44.9-3.1-6-6.1-10.1-24-32.3-5.2-6.4-11.6-14.9-14.1-18.7-19.5-29.7-21.9-33-29.3-38.6-2.8-2.2-5.5-4.3-6.1-4.7-.5-.4-1.8-1.1-2.8-1.5-2.5-.9-1.2-2.7 2.1-2.8 2.1 0 1.7-.3-1.8-1.4-2.5-.7-6.3-1.6-8.5-2.1-2.3-.4-3.2-.9-2.2-1.1 3.7-.9.3-3.3-5.6-3.8-2.9-.3-3.1-1.4-.4-2.6 1.7-.8 2.3-1.7 1.9-2.8-.5-1.4-.4-1.4 1.2-.2 1.3 1.1 1.6 1.1 1.4.1-.2-.7 1.1-1.7 3.2-2.2 1.9-.6 3.8-1.4 4.1-2 .3-.5 2.6-1.2 5-1.4 8.5-.9 16.9-2.6 17.5-3.5.3-.5 1-.7 1.5-.4.5.4.9.1.9-.6s-1-.9-2.5-.7c-1.4.3-2.5.2-2.5-.3 0-1 2.2-1.7 10.7-3.4 5.2-1 6.3-1.5 4.6-2-2.4-.8-3.2-3.4-1-3.6.6 0-.6-.6-2.8-1.4-2.2-.7-3.2-1.3-2.2-1.4 2.1-.1 2.3-2.1.1-2.1-.8 0-2.2-.7-3-1.5-.9-.8-2.9-1.5-4.5-1.5s-3.7-.8-4.7-1.8c-4.9-4.8-29.9-18.9-42.9-24.1-2.1-.8-4.4-3.2-6.5-6.5-5.1-8.1-10.4-12.5-21.3-17.6-16.6-7.9-26.4-9.5-38-6.1M309.3 176c-.3 1.2-.6 1.9-.7 1.8-.2-.2-1.2-2-2.4-4.1l-2.2-3.9 2.9 2.1c2.1 1.5 2.8 2.7 2.4 4.1m71.3 139.6c1.4.4 3.7 3.9 7.5 11.7 2.9 6.2 5.5 11.4 5.6 11.6.2.2 1.4-.1 2.8-.7 1.5-.7 2.5-.8 2.5-.2s-.6 1-1.2 1c-1.9 0-5.7 4.4-6.9 7.9-.6 1.7-1.5 2.9-1.9 2.6-.5-.3-3-4.7-5.6-9.8-5.3-10.3-7.9-14.2-13.8-20.5l-4-4.2h6.4c3.6 0 7.4.3 8.6.6"/></svg>