<svg xmlns="http://www.w3.org/2000/svg" width="682.667" height="512" version="1.0" viewBox="0 0 512 384"><path d="M261.5 57c-5.8 1.4-14.2 5.9-17.6 9.3-4 4-6.9 9.9-6.9 14 0 4.5-1.2 5.3-9.5 6.7-10.7 1.7-11.5 1.9-11.5 3.4 0 .8-.7 1.6-1.5 2-2.5.9-1.7 2.4 4.2 8.1l5.7 5.5-1.7 4.7-1.8 4.7 2.7-2.5c1.5-1.3 2.4-1.9 2-1.2-1.2 2.2-3.4 10.3-2.6 9.8.9-.6 2 1.8 2 4.5 0 .9.7 2.3 1.5 3s1.5 2.1 1.5 3.2.8 2.2 1.9 2.5c1 .3 2.3 1.4 2.9 2.6s1.1 1.6 1.1.9c.1-.7.9-.4 2.2.9 2 2 2 2.2.3 4-.9 1-1.3 1.9-.9 1.9s.1.8-.8 1.8c-1.6 1.8-1.5 2 1.3 4.5 1.6 1.5 3 3.4 3 4.2 0 .9 1.1 3.3 2.4 5.4 1.4 2.1 3.4 5.9 4.6 8.4 2.1 4.4 2.2 4.5 5.3 3.6 5.1-1.5 5.8-1.2 5.1 1.8l-.6 2.8 2.5-3c2.5-2.9 2.6-3 2.1-.5-.5 2-.4 2.2.6 1 .9-1.1 1.3-1.2 1.7-.3.8 2.1 2.3 1.5 2.3-.9 0-3.3 1-1.6 2.6 4.7 1.4 5.1 1.3 6.2-.2 10.8-1.8 5.6-3.6 7.7-6.8 7.7-1.2 0-4.1 1.4-6.6 3s-6.9 4.2-9.8 5.6c-3.8 1.9-5.9 3.7-7.8 7-1.4 2.4-3.8 5.3-5.2 6.5-2.5 1.9-2.6 1.9-3.3.2-.3-1-1.2-5.2-1.8-9.3-1.8-11.6-1.9-11.9-5.9-16.3-2.1-2.3-5.5-6.6-7.6-9.4-6-8.4-13.9-14.8-21.8-17.7-11.7-4.4-18.6-3-23 4.5-3.3 5.6-3.9 10.6-1.9 13.8.8 1.2 1.2 1.2 2.5.2 1.2-1 1.5-.8 1.8 2 .4 4 2.5 4.9 3.4 1.5 1.5-6.2 5.7-5.4 14.4 2.7 3.1 2.9 6.4 5.7 7.4 6.3 1.5.8 1.7 1.4.9 2.9-.8 1.4-.5 3.4 1.4 8.4 2.9 7.7 5.8 19.7 7.3 30.1 1.6 11 2.7 13.7 6.4 16 4.3 2.6 10 2.6 17.3-.2 6.3-2.3 18.1-9.1 25.2-14.5 2.4-1.8 4.5-3.2 4.7-3.1.1.2-.2 4.2-.7 9-.8 6.8-.7 9.9.5 14.5.8 3.2 1.7 8.3 2.1 11.3.3 3 .9 6.3 1.1 7.2.9 3.2 2.4 1.9 2.4-2v-3.7l2 2.5c4.1 5.1 5.9 10.7 7.5 22.5.9 6.6 2.6 15.4 3.7 19.5 3.2 11 2.8 15.7-2.2 28-2.3 5.8-5.6 15.9-7.2 22.5s-3.1 12.8-3.4 13.7c-.5 1.7 3.8 1.8 81 1.8H427v-4.9c0-8.7-5.1-28.5-8-31.1-1.4-1.3-3-8.1-2.4-10.4.4-1.9-.3-4.2-2.9-8.9l-3.6-6.3 9-4.5c18.8-9.2 27-24.1 24.1-44-2.4-16.7-8.9-26.9-35.1-55.4-4.2-4.5-7.5-9.1-18.6-25.5-4.3-6.3-9.4-13.5-11.4-16-2-2.4-4.3-5.3-5.1-6.3-2.2-2.8-12.6-10.7-14.2-10.8-.7 0-.4-.4.7-.9 1.8-.7 1.8-.9-1-1.9-6.8-2.7-10.5-4.5-10.5-5.3 0-.4-1.5-1.5-3.2-2.4-2.9-1.5-3.1-1.8-1.4-2.4 1.4-.5 1.6-.9.7-1.4-2-1.3 3.8-3.8 7.1-3.1 1.6.4 2.8.2 2.8-.3 0-.6 1.9-1.3 4.3-1.7 4.8-.8 14.7-3.5 14.7-4 0-.2-1.6-.1-3.5.2-2.1.3-3.5.1-3.5-.5 0-1.3 2.4-2.2 5.8-2.2 1.5 0 4.9-.6 7.6-1.3l5-1.3-3.3-1.4c-3.1-1.3-3.2-1.4-1.5-2.7 1.6-1.2 1.7-1.5.4-2.3-1.1-.7-1.2-1-.2-1 2.1 0-1.1-2.8-4.1-3.6-1.5-.3-2.5-1.1-2.4-1.7s-1.6-1.4-3.8-1.7c-4.9-.7-7.8-2.3-13.1-6.9-2.3-2-10.1-7-17.4-11.1-12.8-7.2-13.3-7.6-15.5-12.6-4.1-9.2-9.7-15-19.3-20.2-15.9-8.4-31.7-11.8-42.7-9.2m108.7 269.1c1.5.8 5.8 10.4 5.8 13 0 .6-2-1.4-4.5-4.4-2.5-3.1-5.9-6.7-7.7-8.2l-3.3-2.6 4 .7c2.2.4 4.8 1.1 5.7 1.5m17.3 30.7c0 1.8-2 1.5-2.3-.4-.3-1 .1-1.5 1-1.2.7.3 1.3 1 1.3 1.6"/></svg>