<svg xmlns="http://www.w3.org/2000/svg" width="682.667" height="512" version="1.0" viewBox="0 0 512 384"><path d="M269.5 80.7c-13.4 2.9-20.8 7.6-26.5 16.8-1.8 2.9-2.1 4.6-1.8 8.6.3 3 .1 5.3-.6 5.8-.6.5-5.4 2-10.6 3.3-8.7 2.1-9.4 2.5-9.7 5-.3 2.1.5 3.3 4.4 6.4 2.7 2.1 5.3 4.4 5.9 5.1 1.1 1.3.7 5.3-1.1 9.4-.3 1-.2 2 .4 2.4.6.3 1.1 1.9 1.1 3.4 0 1.6.7 3.4 1.5 4.1s1.5 2.1 1.5 3.1c0 1.8 6 8.9 7.5 8.9.5 0 1.7.8 2.8 1.7 1.5 1.3 1.8 1.4 1.2.3-.8-1.3-.7-1.3.8-.1 1.7 1.3 1.6 1.6-.5 3.8-2.9 3.1-2.5 6.8.9 10.3 1.4 1.4 5 6.5 8.1 11.4l5.6 8.8 4.2-.6c2.9-.4 4.4-.1 4.8.7.3.8 1 .6 2.1-.8 1.6-1.9 1.6-1.9 1 1l-.7 3 2-2.4 1.9-2.3 1.6 4.1c2.1 5.1 2.1 5.6 0 10.9-1.7 4-2 4.3-4.8 3.7-4.5-.8-4.3-.8-14 .4-11.3 1.5-15.8 3.4-18 7.5-1.4 2.6-3.4 3.9-10.1 6.6-4.6 1.8-8.6 3.2-8.8 2.9-.5-.5-1.6-3.5-7.6-19.9-5.9-16.2-6.6-17.7-8.9-18.5-1.1-.3-4.1-3.7-6.6-7.5-11.6-17.2-23.8-26-38.1-27.5-8.2-.8-12.9.5-12.1 3.4.3 1.2-.5 2.4-2.4 3.5-3.7 2.2-3.8 4.6-.2 4.6 2.5 0 2.5.1 1 1.8-2.9 3.2-2.1 4.5 2.3 4 2.2-.2 4-.2 4 0 0 .1-.7 1.4-1.6 2.7-1.6 2.4-1.1 5.1.7 3.9.5-.3 2.2-.7 3.7-1s3.4-.7 4.2-.9c2.6-.8 7.8 3.2 11.6 8.9 2 3 5.3 6.6 7.5 8 3.8 2.5 5.4 5.1 2.5 4-.8-.3-1.9.4-2.6 1.6-1 1.9-.7 3 2.3 7.8 5.1 8.3 9.2 16.8 13.7 28.4 5.7 14.6 7.1 17 11 19.3 6.9 4 27.7 2 51.2-5.1 11-3.2 10.7-3.3 9.6 2.3-1.2 6.3-1.1 20.3.1 25 .5 2.1 1.2 6.3 1.6 9.3.7 5.9 4 14 5.7 14 .6 0 .8-1.2.5-3-.8-3.9.3-3.8 3.1.4q2.25 3.3 4.8 16.2c2.8 14.8 3.6 17.4 7.5 26.5l2.8 6.5-1.8 7c-1.4 5.6-5.8 16.2-9.8 23.6-.2.5 25.9.8 58.1.8 48 0 58.6-.2 58.6-1.3 0-3-12.6-20.2-20.5-28-4.7-4.6-8.5-8.9-8.5-9.6 0-1.4-.4-1.4 7.2.5 4.9 1.3 9.2 1.5 19.3 1.1 15.2-.6 22.6-2.5 36.2-9.2 16.9-8.3 24.1-18.4 25.1-35.1.4-7 .1-9.1-2.5-16.5-4.5-13-10.4-20.9-30-40.2-9.8-9.6-22.5-23.4-28.7-31.2-14.3-17.7-25.6-28.5-34.5-32.7-3.6-1.7-7.3-3.9-8.2-4.7-1.5-1.5-1-1.7 5-2.7 5.1-.9 5.8-1.2 2.9-1.3-2 0-3.9-.5-4.3-1-.9-1.5 5.9-2.4 13.6-1.9 3.8.3 6.9.4 6.9.2 0-.1-1.9-1.4-4.2-2.8l-4.3-2.6 4-.1c2.2-.1 3.1-.4 2-.6-1.1-.3-2.9-1.2-4-2-2-1.5-2-1.5.2-1 1.3.3 2.4-.1 2.7-.9.4-.9-.2-1.4-1.5-1.4-1.1 0-1.8-.4-1.5-.8.6-.9-2.9-4.2-4.4-4.2-.6 0-.9-.5-.7-1 .1-.6-1.1-1.8-2.8-2.8-1.6-.9-3.2-2-3.5-2.3s-2-1.4-3.7-2.3c-1.8-.9-4-2.7-4.9-4.1s-3-3.4-4.8-4.5c-7.2-4.6-8.9-6.9-9.8-13.2-1-7.6-6.2-17-13.9-25.3-4.4-4.7-7.5-6.9-13.1-9.4-4-1.8-8.2-3.7-9.3-4.2-7.1-3.2-23.9-5.6-30-4.2"/></svg>