<svg xmlns="http://www.w3.org/2000/svg" width="682.667" height="512" version="1.0" viewBox="0 0 512 384"><path d="M0 149.4v149.3l3 .7c1.7.3 10.3 1 19.3 1.6 8.9.6 17.6 1.5 19.2 2 6 1.9 82.9 9.7 127 13 15.4 1.1 33.3 2.5 39.7 3 19.3 1.6 16.9 2.6 28.2-10.5 12.8-14.9 14.2-16.9 21.3-30.2 3.3-6.1 7.7-13.1 9.7-15.6 4.5-5.5 4.7-7.7.6-7.7-5 0-5.8-2.6-7.5-23.6-1.5-18.1-2.1-23.9-3.1-27.6-.4-1.2-2-1.9-5.2-2.3-2.6-.3-6.4-.8-8.4-1.1-4.5-.7-12.4-7.3-14.4-12.1-.8-1.8-1.4-4.9-1.4-6.9 0-3.1.7-4.4 4.5-7.8 3.3-3.1 4.2-4.5 3.5-5.6-.5-.8-1-2.2-1-3 .1-1.1.6-.9 1.9.7 1.7 2 2 2.1 3.2.7 2-2.5 6.5-4.4 10.3-4.4 8.9 0 18.7 16.3 14.5 24.1-.8 1.6-.4 2.7 2.1 5.9 1.7 2.1 3.5 5.2 4.1 6.9l1.1 3.1 4.8-4.1c4.2-3.5 4.8-4.5 4.4-6.8-.4-1.8 0-3.2 1-4 2.3-1.9 2-6-.8-10.5-1.9-3.1-2.1-4.4-1.3-5.7 1.7-2.8.2-3.3-4.3-1.5-6.3 2.5-8.5 2.1-11-1.9-1.2-1.9-2.6-3.5-3.1-3.5s-2-1.8-3.4-4c-1.6-2.5-3.3-4-4.5-4-2.7 0-2.5-1.3.6-4.7l2.5-2.7-3.3-2.8c-3-2.4-3.3-2.5-3.6-.9-.3 1.9-3.3 1.9-5.8 0-.6-.5-1.4-.6-1.7-.3-.3.4-1.6-1-2.7-2.9-1.3-2.2-3.4-4-5.4-4.7-1.7-.5-5.7-2.6-8.7-4.5-2.9-2-6.5-3.8-7.9-4.1-7.1-1.6-20.7-10.5-20-13.1.2-.4-1.3-1.1-3.3-1.4-2.3-.3-4.7-1.8-6.9-4.1-3.2-3.4-3.3-3.7-1.4-4.8 1.8-1.1 1.8-1.2-.4-2.3-3-1.5-3.7-3.7-1.3-3.7 2.9 0 3.5-1.1 1.6-3.2-2.1-2.4-2.2-2.4 18 1.3 9.3 1.7 17.1 2.9 17.3 2.6.3-.2-2.1-1.7-5.2-3.3-8.9-4.5-12.9-10.6-10.6-16.6.6-1.6.8-5.3.5-8.3-.4-4.2-.2-6 1.2-8.1 2.1-3.3 3.1-2.1 4 4.8.4 2.6.8 4.8 1 4.8.1 0 2.2-.7 4.6-1.6 3.3-1.2 6.4-1.4 12.2-1 8.4.6 13 2.2 13.5 4.7.1.9-1.8 4.4-4.4 7.9-3 4.1-4.8 7.7-5.2 10.3-.5 3.7-.3 4 1.4 3.3 2.8-1.1 11.8-2.7 14-2.5 5.3.5 6.4-.2 12.4-8.1 7.8-10.3 15.2-16.2 23.7-19.1 6-2.1 8.7-2.4 22.3-2.4 21.8.1 29.7 2.8 44.9 15.9 3.5 3 12.8 9.8 20.8 15.2 14.9 10.2 17.1 12 15.9 13.2-1.2 1.1-13.5.7-19.2-.7-2.8-.7-8.9-3.4-13.5-6.1-9.3-5.6-17-7.8-21.5-6.3l-2.9 1-.3 12-.2 12 11.2 2.8c27.4 6.8 39.1 11.9 47.4 20.7 4.8 5.2 5.5 7.7 2.4 9.6-1.1.6-1.7 1.8-1.4 2.6s-.5 2.4-1.8 3.5c-1.8 1.7-2 2.5-1.2 3.8 1.2 1.9 9.6 4.7 19.2 6.4 7.7 1.4 7 3.3-1.2 3.3-3 0-5.2.4-4.9.9s3.8.6 7.9.2c6-.5 7.3-.4 6.9.7-.4 1 .6 1.3 4.2 1.1 2.7-.2 4.2 0 3.5.3-.6.3-1 1-.6 1.5.3.5-.2.9-1.1.9-3.2 0-.4 1.8 5.7 3.6 6.8 1.9 5.6 2.9-2.8 2.2-4.9-.4-4.8.5.8 3.3 5.2 2.7 4.2 3.6-1.8 1.5-2.6-.9-5-1.6-5.3-1.6-.2 0 2.8 2.1 6.8 4.6 3.9 2.6 7 4.9 6.7 5.1-.3.3-6.9-2-14.8-5-19.3-7.4-19.6-7.5-9.3-2.2 11.4 5.9 24.5 13.7 24.5 14.6 0 .4-4.8-.5-10.7-2.1-15.7-4.3-16.1-4.1-5.3 1.8 2.3 1.3 4 2.6 3.7 2.8-.2.3-2.6-.1-5.3-.7-3.3-.9-4.9-.9-5.1-.2-.3.7-2.7.2-6.5-1.3-7.1-2.7-9-3-6.2-.9 2.4 1.8 1.5 1.8-6.1 0-5.4-1.2-5.8-1.2-3.8.1 7.5 5.3 11.5 8.5 9.8 8-6.7-1.8-14.1-3.6-15.2-3.6-.8 0-.3 1.4 1.2 3.6 1.4 2 2.5 4.1 2.5 4.5 0 .5.6.9 1.4.9.7 0 2.4.8 3.7 1.9 2.2 1.7 2.9 1.8 8.9.5 3.6-.7 8.6-1.4 11.2-1.4 4.3 0 4.8.3 7 3.7 2.2 3.6 2.3 4.7 2.4 22.8l.1 19 4.9 1.3c7.2 1.8 52.8 11.8 60.4 13.2 3.6.6 8.1 2.3 10.2 3.7 3.1 2.1 3.5 2.8 2.6 4.3-1.3 2-.5 4.8 1.6 5.6.8.3 4 0 7-.6l5.6-1.1V0H0z"/><path d="M360 204.2c0 .3 4 4 9 8.2 7.2 6.1 9.3 7.4 11 6.8 1.8-.7.8-1.6-6.7-6.5-4.8-3.2-9.8-6.5-11-7.3-1.3-.9-2.3-1.4-2.3-1.2m-11 10c2.2 4.4 5.4 12 7.1 17 2.6 7.1 3.8 9.2 5.7 9.9 1.4.5 2.7.8 2.9.5.3-.2 1.1-3.4 2-7.1 1.2-5.1 2.3-7.5 5.3-10.6l3.8-4-3.6-2.4c-3.9-2.7-5.8-3.2-4.6-1.3.4.6-1.8-.3-4.8-2.1-3.1-1.7-5.8-2.7-6-2.2-.1.5-2.9-.6-6-2.4l-5.7-3.4zM290 257c-3.6 13.2-6.8 19.3-15.4 29.9-8.5 10.5-14.8 20.7-15.6 25.3-.5 2.4-.6 4.6-.4 5 1.5 2.4 8.9-.6 17-6.9 2.7-2.1 7.8-5.9 11.4-8.5 9-6.4 20.6-18 23.4-23.6l2.4-4.7-3.6-6.5c-4.2-7.8-7.9-13.2-12.4-18.4l-3.4-3.8zm106 24.8c0 3.2 25.6 14.8 37.3 16.9 4.5.8 11.8 2.1 16.1 2.9 4.4.8 8.4 1 8.8.6.5-.5-3.7-2.4-9.3-4.1-5.6-1.8-15.6-5.6-22.2-8.4l-12-5.1-1.5 2.2c-1.9 2.8-3.9 2.8-8.2-.1-7.6-5.2-9-5.9-9-4.9m52.2 5.2c1 .6 8.4 3.2 16.4 5.9 13.1 4.2 15.1 4.6 18.5 3.7 2.2-.5 3.9-1.3 3.9-1.7s-3.7-1.4-8.2-2.3c-9.8-1.8-27.4-5.5-30.3-6.2-1.8-.4-1.8-.4-.3.6M0 356.9V384h139.3l-4.9-3.8c-21.3-16.8-52.2-33.3-70.5-37.8-6.6-1.6-7.2-1.6-8.1-.1-.5 1-1.4 1.7-2 1.7s-1.9.7-2.9 1.6c-1.4 1.2-2.2 1.3-3.9.4-3.2-1.7-3.7-.4-1 2.5 2.2 2.3 2.2 2.5.4 2.5-1 0-3.4-.4-5.2-.9-2.6-.8-3.2-.7-3.2.5 0 .8-.4 1.2-1 .9-.5-.3-1 0-1 .9 0 2.7-7.9-1.2-8.7-4.3-.9-3.6-.9-9.2.1-11.4 1.2-2.5-4-4.4-14.9-5.2-5-.4-9.8-.9-10.7-1.1-1.7-.5-1.8 1.2-1.8 26.5m121.5-15.1c2.2 1 7 2.9 10.7 4.1 7.5 2.5 8.9 3.6 5.7 4.6-1.2.4-1.8 1.2-1.5 2.1.3.8-.4 2.4-1.5 3.5-1.9 1.9-1.9 2.2-.4 3.9.9 1 6.9 5.5 13.3 10.1 6.4 4.5 12.1 8.6 12.6 9.1.6.4.2 1.6-.9 2.8l-1.8 2h85.9l85.9-.1-7-2.5-7-2.6-16.5 1.4c-22.2 1.8-31.8 1.6-36.6-.8-4.7-2.3-6.3-5.3-7.1-13.8-.5-5.5-.3-6.9 1.6-10 1.3-2 1.8-3.6 1.3-3.6-.6 0-2.5-1.2-4.2-2.7-2.8-2.3-3.5-2.5-5.2-1.4s-2.2 1-3-.1c-.7-1-1.1-.9-2.3.7-1.3 1.7-1.8 1.8-3.6.7s-2.3-1.1-3.3.3c-1.2 1.6-1.4 1.6-3-.1-2.2-2.2-.9-2-31.6-3.8-55-3.2-77.6-4.7-81-5.1l-3.5-.6zm331 39.2-2.9 3h10l9.9-.1-6.4-2.9c-3.5-1.7-6.7-3-7-3-.4 0-2 1.3-3.6 3"/></svg>