<svg xmlns="http://www.w3.org/2000/svg" width="682.667" height="512" version="1.0" viewBox="0 0 512 384"><path d="M297.5 68.7c-11.2 2.5-20 7.9-24.6 15.2-2.3 3.6-2.9 5.6-2.9 10.2 0 6.5.3 6.2-12 9-5.9 1.3-11 3.5-11 4.7 0 1.1 6 7.3 9.4 9.8l2.8 2.1-2.1 4.9-2.1 4.9 2.7-3 2.6-3-.6 3c-.3 1.6-.9 3.9-1.3 4.9-.4 1.1-.3 1.7.2 1.4.5-.4 1 .4 1 1.7.1 1.2.9 3.5 1.7 5.1.9 1.6 2.1 4.1 2.7 5.5s2.3 3.2 3.8 4 3.1 2 3.5 2.6c.4.7 1.8 1.3 2.9 1.3 2 0 1.9.3-1.2 3.5-3.6 3.7-3.4 4.6 1.8 8.8 1.2 1 2.2 2.3 2.2 2.9 0 .5 2.5 4.8 5.6 9.5 5.4 8.4 5.6 8.5 8.9 8 1.9-.3 3.7-.1 4.1.5.4.5 1.9.7 3.5.4 4.1-.8 5.6.1 7 4.1 1 3.1.9 3.9-.9 6.2-2.3 3-1.1 3-20.5.3-15.6-2.2-18.8-2-21.4 1.8-1.5 2.1-3.5 2.5-22.3 4.1l-13.5 1.1-7.5-3.5c-4.1-1.9-12.4-5.6-18.5-8.3-6-2.6-15.4-6.9-20.7-9.6-5.3-2.6-11-4.8-12.5-4.8-2.4-.1-3.7-1.4-8.8-8.6-10.5-14.9-26.7-28.1-36.6-29.9-4.5-.8-5.9.8-3.3 3.7 1.9 2 1.8 2-1.6 1.7-7.6-.7-7.3 3 .5 5 4.6 1.2 7.2 3.1 3 2.3-3.1-.6-7.5.5-7.5 1.9 0 .5 1.7 1.7 3.7 2.5 2.1.8 4.9 2 6.3 2.6 2.5 1.2 2.5 1.2-1.3 1.7-2.1.4-3.8 1-3.8 1.6 0 .5 2.8 1.8 6.3 2.8 7.5 2.2 10.8 5.1 15.1 13 2.1 4 4.9 7.3 8.6 10.2 8.6 6.6 9.7 8 8.2 11.2-.7 1.4-.8 2.9-.4 3.3.4.3 5.1 2.2 10.3 4.1s15.6 6.4 23.2 10.1l13.7 6.7-1.9 3.8c-1.1 2.1-3.3 6.9-5 10.8-1.7 3.8-3.6 8-4.2 9.1-1.9 4 4.9 12.6 11 14 4.8 1 5.1 1.2 7.2 5.3 1.4 2.8 2.9 4.2 4.8 4.7 10.7 2.3 22.5 6.4 36.8 12.9 18.2 8.3 21.7 8.9 29.2 5.5 4.4-2 9.8-5.7 14.4-9.8l2.6-2.4 2.9 4.3c1.5 2.3 3.3 5.6 3.8 7.3.7 2 1.7 3 2.8 3 2.6-.3 5.6 4.8 6.8 11.3.6 3.2 2.4 10.4 4 15.9 3.7 13.1 3.8 18.2.1 24.3-3.1 5.1-6.2 12.5-11.8 27.6-2 5.5-4.1 10.6-4.6 11.3-.8.9 13.2 1.2 69.6 1.2 38.8 0 70.6-.2 70.6-.5 0-.8-7.6-14.8-13.6-25-5.1-8.7-12.9-17.3-22.8-25l-3.8-3 8.1.3c18.2.8 42.2-7.3 52.5-17.6 5.6-5.5 9.1-12.5 10.7-21.3 2.1-11.7-2.9-28.3-12.4-40.9-4.4-5.9-11.1-13.3-24.2-27-4.4-4.7-13.6-15.5-20.2-24-13.2-16.9-21.1-25.1-28.7-29.9-4.8-3-4.9-3.1-2-3.2l2.9-.1-3.2-1.1c-3.9-1.4-4.6-2.2-6.3-6.7-2.2-5.8-12.2-26.2-14.8-30.2-2.2-3.4-2.4-4.8-2.3-12.6.2-8.6 0-9.2-3.9-16.9-5.4-10.4-11.4-17.2-18.9-21.2-14.2-7.5-32.7-11.6-42.6-9.4m-31.8 165.2c11.1.1 18.4.5 18.8 1.1s-1.4 3.4-3.8 6.3c-2.4 2.8-5.5 6.8-6.8 8.8l-2.4 3.7-20.5-6.7-20.4-6.7-.7-3.4c-.4-1.9-.6-3.7-.4-4s4.3-.2 9.2.2c4.8.3 17 .7 27 .7"/></svg>