<svg xmlns="http://www.w3.org/2000/svg" width="682.667" height="512" version="1.0" viewBox="0 0 512 384"><path d="M293.5 57c-16.9 3.3-29.7 15.3-28.1 26.5.6 4.9.3 5.1-11.2 8-7.7 1.9-11.2 3.5-11.2 4.9.1 2.3 2.7 5.6 6.8 8.5 4.7 3.5 4.7 3.6 2.7 7.1s-1.8 4.3.5 3c1.7-.9 2-.8 2 .7 0 1-.4 3.3-.9 5.1-.6 1.8-.6 3-.1 2.7s1.2 1 1.6 2.9c.3 2 1.2 4 2 4.7.8.6 1.4 1.9 1.4 2.8 0 1.5 3.5 4.5 5.3 4.6.4 0 1.1.6 1.6 1.3.5.8 1.1 1.3 1.5 1.3 3.4-.5 3.5 1.7.1 4.9-2.4 2.3-2.4 2.4-.8 4.9.9 1.4 2.2 3 3 3.4.7.4 2.3 2.7 3.4 5 1.2 2.3 4 6.8 6.1 10 3.3 4.9 4.4 5.8 6.1 5.3 5.1-1.5 5.9-1.5 5.3-.1-.9 2.4 3.2 1.8 4.5-.6 1.1-2.2 1.1-2.1 3.5.7 3.6 4.5 4 7.9 1.2 12-2.1 3.2-2.6 3.5-6.3 3-2.2-.3-10.4-.8-18.1-1.2l-14.1-.7-3.3 3.2c-1.8 1.7-3.7 3.1-4.3 3.1-.5 0-7.6 1.1-15.8 2.5l-14.8 2.6-19.3-7.7c-10.6-4.2-24.4-9.9-30.7-12.7-9.1-4-11.5-4.7-12.2-3.6-1 1.7-.9 1.8-8.3-8.4-10.2-14-17-19.9-30.8-26.8-7-3.6-14.5-1.6-8.8 2.2 2 1.3 1.8 1.4-2.1 1.6-7.8.3-7.7 3.5.2 4.8 2.1.4 4.4 1.2 5.3 1.8 1.3 1 .7 1.2-3.6 1.2-7.7 0-7.1 2.4 1.2 5.1l6.5 2.1-3.8.8c-3.5.7-5.5 2.1-4.4 3.1.3.3 3.3 1.2 6.7 2 7.9 1.8 11.3 4.4 15 11.6 2.3 4.3 4.8 7.1 10.9 11.8 7.8 6 7.9 6.2 6.9 9.1-.6 1.7-.7 3.3-.4 3.6.3.4 5.9 2.4 12.3 4.5 13.4 4.4 34.3 13.6 34.3 15 0 .6-1.8 4.8-4 9.4-4.1 8.7-4.8 12.7-2.7 15.5 2.6 3.5 9 6.9 12.7 6.9 3.5 0 3.8.2 4.4 3.5.8 4.2 3.1 5.8 10.6 7.5 8 1.8 18.7 5.9 34 13 7.4 3.5 15.3 6.5 17.5 6.7 5.1.6 13.2-3.1 20.6-9.4 4.4-3.7 5.5-4.2 6.3-3.1 4.4 6 6.6 8.6 10.4 12.4 2.9 3 4.2 5.1 4.2 7.1 0 1.5 1.1 8 2.4 14.3 3.9 19.2 3.8 21-1.7 31.2-2.5 4.6-6.2 13-8.2 18.8-3.8 10.8-9.2 22.4-12.7 27.3l-1.9 2.7h159l-5.8-9.2c-3.2-5.1-9.4-15.4-13.7-22.8-9.4-16-16.4-23.6-30.7-32.9-9.7-6.4-12.3-9.6-6.9-8.6 19.7 3.6 40.1-.1 57.7-10.3 15.3-8.9 21.7-18.1 23.7-33.9.9-7.8.9-10.1-.6-15.9-2-8.2-6.8-17.1-12.7-23.8-2.3-2.6-11.5-10.7-20.3-17.9-8.9-7.3-22.2-19.3-29.6-26.8s-16.3-15.9-19.8-18.8c-3.5-2.8-5.8-5.1-5.3-5.1.6 0 1.1-.5 1.1-1 0-.6-.7-1-1.6-1-1.3 0-1.4-.3-.5-1.3.6-.8.7-1.7.3-2.2-.4-.4.5-.5 2.1-.3 1.5.3 2.7.3 2.7.1s-1.2-1.5-2.7-2.9l-2.8-2.5 2.9.4 3 .5-2.5-1.9c-1.3-1-2.8-1.9-3.4-1.9-.5 0-.4-.4.4-.9 1-.7.4-1.9-2.8-5.2-2.3-2.4-4.7-5.3-5.2-6.4-1.1-2.1 1.9.8 8.4 8.5 4.5 5.2 4.5 5.2-1.9-6-4.6-8.2-14.7-22.8-21.9-31.8-1.9-2.4-3.5-5.3-3.5-6.4 0-6.9-12.9-24.3-21.7-29.2-12.2-6.9-32.2-11.4-41.8-9.6M282 225c0 .5-2.5 4.6-5.5 9.1-3 4.6-5.6 8.7-5.8 9.2-.4 1.3-43.2-12.6-44.3-14.4-.8-1.3 3-1.7 22.6-2.4 10.2-.3 20.8-1 23.5-1.4 7.3-1.2 9.5-1.2 9.5-.1"/></svg>