<svg xmlns="http://www.w3.org/2000/svg" width="682.667" height="512" version="1.0" viewBox="0 0 512 384"><path d="M289.8 48.5c-8.6 2.2-14.3 5.2-18.7 10-5.6 6.1-8.3 11.8-7.9 16.8.3 4.6 1.7 3.8-14.2 8.2-3 .8-6.1 1.9-6.9 2.4-2.5 1.6-.4 5.7 4.9 9.2 2.7 1.9 5 3.8 5 4.2s-.7 2.4-1.5 4.4c-1.7 4.1-1.3 5.2 1.1 3.2 1.6-1.3 1.7-1.1 1.1 2.6-.7 4.1.8 11.2 2.7 13 .6.6 1.6 1.9 2.2 3 .6 1 1.9 2.3 3 2.9 1 .6 2.1 1.3 2.4 1.6s1.7 1.1 3.3 1.7c3.5 1.6 3.4 2.6-.3 5.5-3.4 2.7-3.2 5.9.5 7.6 1.3.6 2.7 2.1 3.1 3.4.4 1.2 3 5.8 5.7 10.1 4.2 6.5 5.4 7.7 7.1 7.3 6.5-1.8 6.6-1.8 7.4.3.7 2 .8 2 2.6-1l1.9-3.2 1.8 3.4c4.6 8.7 4.7 11.1.7 14.9-2 1.9-3.5 2-20.5 2h-18.4l-2.7 2.7c-2.2 2.2-5.1 3.1-18.9 6l-16.4 3.3-11.7-4.1c-16.4-5.7-31.2-11.2-41.4-15.2-5.2-2.1-9-3.1-9.6-2.5-1.5 1.5-3.5 0-8.4-6.5-9.8-12.9-16.7-19.1-26.5-24.1-12.2-6.1-22.1-6.5-15.1-.5l2.3 1.8-4 .1c-7.2.1-8.7 3.2-2.2 4.5 7.2 1.5 7.4 1.7 2.4 3.2-2.6.7-4.7 1.8-4.7 2.3s2.6 1.7 5.7 2.5c9.7 2.7 10.3 3.1 5.6 3.8-2.2.4-4.6 1.3-5.3 2.1-1.3 1.7-.7 1.9 8 3.1 5.8.8 11.4 4.5 13.9 9.3 3 5.5 4.8 7.4 12.9 13.2 7.5 5.4 7.5 5.3 5.5 10.7-.3.7 1.7 1.8 5.4 2.8 11.7 3.3 19.1 5.8 31.5 10.6l12.7 5-4 8c-2.2 4.4-3.9 8.9-3.7 10.1s2.4 3.6 5.2 5.5c3.8 2.6 5.8 3.3 9.7 3.3 4.7 0 4.9.1 4.9 2.7.1 4.6 2.2 6.1 12.1 8.7 11.3 3.1 15 4.5 34.4 13.1 12.5 5.6 15.7 6.6 19 6.2 5.6-.6 10.1-2.9 16.2-8.2l5.2-4.6 7.5 7.8c5 5.2 7.7 8.8 8 10.8 1.8 11.5 3.3 27.2 3.1 33.5-.1 6.7-.6 8.2-3.8 13.5-2 3.3-5.7 12.1-8.3 19.5-6 17.6-11.2 27.5-18.7 35.7l-2 2.3h171.4l-2.9-4.3c-2.6-3.9-9.9-15.9-24.6-41-7.1-12.1-15.1-20.4-27.1-28.1-9.7-6.3-11.5-8-11.5-10.8 0-1.7.9-1.9 11.3-1.8 17.9.3 27.6-1.9 43.2-9.5 11.7-5.8 22.2-15.3 26.2-24 5.1-11.1 4.1-28.3-2.4-39.5-3.6-6.1-15.2-18-23.8-24.3-13.2-9.7-27-21.2-37.5-31.2-5.8-5.5-12.6-11.8-15.2-13.9-2.7-2.1-4.8-4.4-4.8-5 0-.7-1.6-1.8-3.5-2.5-3.8-1.3-4.7-3.1-1.5-3.1 1.1 0 2-.5 2-1 0-.6 1-1 2.3-1.1 1.2 0-.2-.8-3-1.6-5-1.5-7.1-3.3-3.8-3.3.8 0 1.5-.5 1.5-1 0-.6 1.5-1 3.3-1 3.3 0 7.8-1.9 4.7-2-1.2-.1-1.2-.3.2-1.1 1-.6 1.5-1.6 1.1-2.6-.6-1.4 0-1.5 4-1 2.6.4 4.7.5 4.7.2 0-.2-1.9-1.5-4.2-2.9l-4.3-2.6 3-.1c2.6 0 2.4-.2-1.7-1.5-5.9-1.8-6.2-2.7-.7-2.2l4.1.4-3.3-2.9c-1.9-1.6-8.3-7.5-14.2-13S362 93.2 359.6 91.3c-2.9-2.3-4.6-4.4-5-6.5-1-5-7.2-15.3-12.4-20.5-5.7-5.7-14.5-10.3-26.7-13.8-11.4-3.3-18.5-3.8-25.7-2m93.7 68.3c-.4.5-7.5-3.7-7.5-4.4 0-.3 1.8.6 3.9 1.8 2.2 1.2 3.8 2.4 3.6 2.6M282 217.1c0 1.1-10 17.9-10.7 17.9-1.3 0-34.2-10.5-36.3-11.5-2.3-1.2-1.9-1.3 4.5-1.9 15.4-1.5 26-2.8 32.3-4.1 8.5-1.7 10.2-1.7 10.2-.4"/></svg>