<svg xmlns="http://www.w3.org/2000/svg" width="682.667" height="512" version="1.0" viewBox="0 0 512 384"><path d="M295.5 47.4c-8.5 2.2-15.8 6.1-19.4 10.1-4.7 5.4-8.4 13.8-7.6 17.3.8 3.8-.2 4.5-11.2 7.2-13.3 3.2-13.9 4.8-4.4 11.2 2.5 1.7 4.7 3.2 4.9 3.4.2.1-.3 1.5-1.1 3.1-.8 1.5-1.7 4.1-2.1 5.8-.6 2.4-.5 2.8.5 1.7q3.45-3.3 2.4 2.7c-.5 3.1-.1 5.1 2.1 9.6 1.5 3.1 3.7 6.1 4.8 6.7s2.7 1.7 3.4 2.5c1.6 1.5 3.6 1.8 2.7.3-.3-.6-.2-1 .3-1s1.4 1.1 2.1 2.4c1.5 2.7.3 5.9-2.9 7.6-2.8 1.5-2.5 2.8 1 4.8 1.7 1 3.2 2.8 3.5 4.4.4 1.5 1.3 3.2 2.1 3.9.8.6 1.4 1.5 1.4 2 0 1.4 6 9.8 8.1 11.3 1.7 1.2 2.5 1.2 4.6.1 2.2-1.1 2.8-1.1 3.9 0 .8.7 1.4 2.2 1.4 3.2 0 1.2.8.5 2.3-2l2.4-3.9 2.3 5.3c1.8 4.2 2.1 6.1 1.4 8.8-1.3 5.2-3.3 5.8-17 4.8-21.3-1.6-24.9-1.5-27.6 1.1-2.1 1.9-4.9 2.5-18.4 4.3-8.7 1.1-17.2 1.8-18.9 1.6-6.6-1-60.8-17.9-64.4-20.2-.5-.3-1.4.3-2 1.2-.8 1.6-2.7 0-13.9-11.3-13.1-13.4-15.6-15.4-19-15.4-1 0-4.6-1.1-8-2.5-6.8-2.8-13.3-3.2-15.1-1.1-1.2 1.5-.3 2.6 3.4 4.1 1.9.8 1.8.9-.5 1.2-10.1 1.6-11.9 4.8-3.3 5.9 7.8.9 11.2 2.2 6.1 2.3-4.5.1-8.8 1.9-8.8 3.7 0 1.3 1.4 1.6 11.5 3l5 .6-5.2 2.4c-2.9 1.2-5.3 2.8-5.3 3.3 0 .7 2.6 1.1 6.5 1.1 8.3 0 12.8 2.2 18.4 8.9 2.6 3.1 7.5 7 12.7 10.2 8.3 5 8.5 5.1 7.8 8.4l-.6 3.3 5.8 1.2c12.2 2.5 43.5 13 46.2 15.4 1 1 .9 2.1-.5 5.9-1.7 4.5-1.7 4.7.3 7.4 3 3.9 9.9 7.3 15.1 7.3 3.8 0 4.5.3 5.3 2.6 1.5 3.9 4.8 6 12 7.9 10.1 2.7 21.2 7.2 35.4 14.4 12.1 6.1 13.6 6.6 19.7 6.6 5.5 0 7.2-.4 10.8-2.8 2.3-1.6 4.6-2.7 5.1-2.5.4.2 4.2 3.6 8.5 7.6l7.7 7.3.4 21.6.4 21.6-4.6 9.2c-2.8 5.6-6.3 15.2-8.9 24.6-4.9 17.4-6.6 22.2-9.5 27.3-1.1 2-2 3.9-2 4.1 0 .3 36.9.5 82 .5s82-.3 82-.6-3.5-6.5-7.8-13.8c-4.3-7.2-11.4-19.1-15.8-26.5-10.6-18-18.5-25.8-37-36.6-2.1-1.2-3-2.3-2.7-3.5.3-1 0-2.1-.6-2.4-.6-.4-1.1-1.3-1.1-2.1 0-.9 2-1.5 6.3-2 28.8-3.1 44.7-9.2 59.3-22.8 5.3-5 8.2-8.7 10.6-13.5 3.1-6.2 3.3-7.3 3.3-17.2 0-10-.2-10.8-3.4-17-3.9-7.5-14.4-18.8-24.2-26.1-3.7-2.7-7.6-6.4-8.9-8.2-1.2-1.8-5.4-5.7-9.3-8.7s-9.9-8.1-13.4-11.2-7.7-6-9.5-6.4c-3.3-.7-13.8-9.1-13.8-11 0-.6-2.8-2.6-6.2-4.5l-6.3-3.4 6-.5c6.8-.6 6.5-1.1-1.7-3-5.9-1.3-7.7-2.9-3.5-3.1 1.2-.1.2-.6-2.3-1.1-6.6-1.4-6.7-2.2-.3-4.3 5.1-1.6 5.5-1.9 3.3-2.5-2.3-.6-2.1-.8 2-2 2.5-.7 5.6-1.6 7-2l2.5-.7-3-1.6c-2-1.1-2.4-1.6-1.2-1.7.9 0 1.7-.4 1.7-.9s-1-.7-2.2-.5c-1.3.3.5-.6 4-2 7.6-2.9 9-4 3.9-3.1-3 .6-3.6.5-3.2-.7.4-.9 3.2-2 7-2.7 3.6-.6 7.7-1.7 9.3-2.3l2.7-1.1-4.5-1.2c-4.3-1.2-4.4-1.3-2.1-2.2l2.5-1-2.9-.7c-1.7-.4-3.1-.3-3.5.4-.4.6-1.4.8-2.3.4-2.4-.9-1.3-2.1 2.8-2.8 1.9-.4 3.5-1.1 3.5-1.6s-.6-.7-1.4-.4c-3.3 1.3-17.8-3.8-34-12.1-4.9-2.5-6.2-3.7-7.2-6.6-1.9-5.8-9.2-16.5-14.2-20.9-11.7-10.4-38.7-18-51.7-14.6m92.1 55.3c-.7.7-9.7-1.1-11.3-2.3-1.3-.9 0-.8 4.9.4 3.7.8 6.6 1.7 6.4 1.9M290 215c0 .5-.4 1-.8 1s-2.3 2.7-4.2 5.9l-3.4 5.9-13.1-4.5c-7.1-2.5-13.4-4.8-13.8-5.3-.4-.4 2.5-1 6.5-1.4s9.8-1.1 12.8-1.5c8.2-1.2 16-1.2 16-.1"/></svg>