<svg xmlns="http://www.w3.org/2000/svg" width="682.667" height="512" version="1.0" viewBox="0 0 512 384"><path d="M297.4 49.8c-16.3 4.8-24.3 13-25.4 25.7l-.5 6-10.5 2.8c-5.8 1.5-10.9 3.2-11.3 3.6-1.5 1.5 1 4.7 5.8 7.7 5 3.2 5.2 3.8 3 9.1-2 4.7-1.9 6 .3 4 1.6-1.5 1.7-1.3 1.6 3.6-.2 3.8.5 6.8 2.6 11.2 1.6 3.3 2.9 5.6 2.9 5.1.1-.6.8-.1 1.6 1 1.5 1.9 1.5 1.9 1-.1-.5-1.9-.5-1.9.5 0 .6 1.2 2 2.6 3.1 3.3 1.6 1 1.9.9 1.9-.5s.3-1.3 2.1.6c2 2.2 2.1 2.3.2 4.4-1 1.2-2.4 2.6-3 3-2.2 1.4-1.5 4.7 1.2 5.9 1.4.6 2.8 2.3 3.2 3.7.3 1.4 1.1 3.2 1.6 4 .6.7 1.6 2.1 2.2 3.1 5.1 8.6 9.3 12.9 10.9 11.3.4-.4 2-.8 3.6-.9 2.9-.2 3.5.5 3 3.6-.1.8.9 0 2.3-1.8 2.7-3.6 3.5-3.3 6.2 3.1 1.9 4.6 1.9 4.6-.4 8.3-1.9 3.1-2.1 3.1-6.8 2.3-2.6-.4-11.2-1.8-18.9-3l-14.2-2.1-3.8 2.1c-3.2 1.7-6.6 2.3-19.6 3-8.6.5-17.5.5-20 0-8.9-1.7-42.7-10-55.1-13.5-10.1-2.9-13-3.4-14.2-2.4s-3-.2-10.1-6.7c-4.8-4.3-11.4-10.4-14.6-13.6-5.2-5.2-6.3-5.8-8.8-5.2-1.9.4-4.9-.1-8.3-1.3-4.9-1.9-9.1-2.5-14.4-2.3-1.6.1-2.3.7-2.3 2 0 1.4 1.2 2.4 4.3 3.4l4.2 1.4-3.5.1c-4.2 0-11 2.6-11 4.1 0 .6.1 1.1.3 1.1.1.1 2.9.3 6.1.7 3.3.3 7.1.9 8.5 1.3 2.2.7 1.8.8-1.9.9-8 .2-13 6.1-5.1 6.1 5.9 0 13.1 1.2 13.1 2.1 0 .5-1.3.9-2.8.9-3.1 0-7.6 3.5-6.9 5.3.2.7 1.3 1.1 2.3.9 9.3-1.4 10.1-1.4 14.5.8 2.4 1.3 6.1 4.2 8.1 6.5 2.4 2.8 7 6 12.8 8.9 4.9 2.6 9 5.2 9.1 5.9s0 2.2 0 3.3c-.2 2 .5 2.3 7.1 3.3 10.1 1.6 31.1 6.5 44.3 10.4 7.8 2.3 10.9 3.7 10.8 4.7-.4 2.7-4.2 13.5-5.9 16.3-.9 1.6-1.8 5.9-2 9.7-.3 6.5-.2 7 2.3 9 3.7 2.9 12.4 5.2 18.6 4.8l5.2-.3.3 3.3c.4 4.1 3 5.8 10.7 6.7 7 .8 21.1 4.8 35 10 23 8.4 23.7 8.6 27.6 8 2.1-.4 5.8-2 8.2-3.6l4.4-2.9 4.2 3.8 4.1 3.8.3 21.9.2 22-3.2 6.3c-3.9 7.5-4.2 8.8-9.3 31.2-2.1 9.6-4.2 18.5-4.6 19.7l-.6 2.3H461l-5.3-8.3c-3-4.5-8.9-14.3-13.2-21.7-12.9-22.2-18-27.8-36-39.4-4.4-2.8-8.1-5.9-8.3-6.8-.5-2.5 2.4-3.4 15.9-5.1 19.2-2.5 34.7-9.4 47.3-20.9 7.8-7.1 12-14.8 13.5-24.6 2.7-17.3-5-32.5-23.6-47.4-3.6-2.8-8.1-7.5-9.9-10.4-1.9-2.9-6.2-7.6-9.6-10.6-3.4-2.9-9.4-8.3-13.4-12.1-5.2-4.8-8.1-6.7-9.9-6.7-3.2 0-15.7-10.4-14.9-12.4.3-.7-1.7-2.5-4.8-4.2l-5.3-2.9 6-.5 6-.5-7.8-2.5c-6.5-2-7.6-2.6-6.3-3.6 1.4-.9 1.1-1.3-1.7-2.1-2.8-.9-3-1.1-1.2-1.7 1.1-.4 3.4-1.4 5-2.2 2.2-1.1 2.4-1.3.8-1-1.3.2-2.3.1-2.3-.2 0-1.1 5.1-3 10-3.7 4.4-.7 4.4-.8 2.2-2.3-2.5-1.7-2.9-3.2-.7-3.2.9 0 1.8-.7 2.1-1.5.4-.8 1-1.2 1.5-.9s1.7-.2 2.6-1.2c1.6-1.5 1.5-1.6-1.8-1-1.9.3-2.8.3-2.1 0 .6-.3 1-1 .6-1.5-.3-.5.5-.9 1.8-1 1.3 0 5.5-.8 9.3-1.8l7-1.9-3.2-1.2c-3.8-1.4-4-1.8-1.6-3.5 1.3-1 1.1-1.1-1.5-.7-1.8.2-3.2 0-3.2-.6s-1-.8-2.2-.6l-2.3.5 2.3-1c1.2-.6 2.8-.9 3.5-.7.6.1.9.1.4-.1-.4-.3-.4-.9-.1-1.5.4-.6-.1-.8-1.4-.4-1.1.4-2.9.3-3.9-.3-1-.5-5.6-2.1-10.3-3.6-4.7-1.4-12.1-4.5-16.4-6.8-7.9-4.2-7.9-4.2-10.2-10.6-2.7-7.7-7-14-13.8-20.4-6.1-5.7-14-9.8-25.6-13.1-12.2-3.4-20.1-4-27.6-1.8m-12.7 165.8 11.2.6.7 3.4c.5 2.6 0 5-2.1 9.7-3.4 7.7-4.4 9-6.4 8.1-1.9-.8-4-1.3-18.7-5.3-6.2-1.6-13.1-3.6-15.5-4.4s-6.3-2-8.6-2.6c-2.4-.7-4.3-1.7-4.3-2.4s-.9-3-1.9-5l-1.9-3.8 18.1.6c10 .3 23.3.8 29.4 1.1"/></svg>