<svg xmlns="http://www.w3.org/2000/svg" width="682.667" height="512" version="1.0" viewBox="0 0 512 384"><path d="M306.9 55.4c-7 2-15 6.1-18.6 9.5-4.6 4.3-8.3 12.4-8.3 18.3 0 5.5-.2 5.7-11.5 8.4-8.3 2.1-11.6 3.5-11.2 4.8.2.6 2.3 2.6 4.8 4.4 6.8 5 7 5.2 6.4 7.1-.6 2.1-.9 12.1-.3 14.1.3.8 1 3.4 1.7 5.7.6 2.4 1.6 4.3 2.1 4.3s1.6 1.2 2.4 2.7c.8 1.6 1.5 2.1 1.6 1.3 0-1 .5-.8 1.5.7 1.7 2.5 7.5 5.7 7.5 4.2 0-.6.5-.7 1-.4 1.8 1.1 1 3.3-2.5 7.1l-3.5 3.7 2.2 1.6c3.2 2.3 3.1 2.3 5.1 6.1.9 1.9 2.6 4.8 3.7 6.5 1.1 1.6 2.4 3.9 2.9 5.1.5 1.1 2.6 3.3 4.6 4.9 3.3 2.5 4.2 2.7 6.6 1.8 2.2-.8 2.9-.8 2.9 0 0 .7.7.4 1.4-.6 2.1-2.7 3.7-2.1 3.1 1-.6 2.6-.5 2.6.8 1 2-2.4 2.4-2.2 3.7 1.7.7 2.2.8 4.6.2 6.8l-.9 3.3-6.7-.2c-3.7-.1-10.5-1.2-15.2-2.3-10.1-2.4-20-2.6-22.8-.5-1.6 1.2-5.4 1.5-17.3 1.5-14 0-16-.2-22.6-2.6-3.9-1.4-14.4-5-23.2-8.1-8.8-3-21.6-7.7-28.3-10.5-9-3.6-12.7-4.7-13.5-3.9-1.7 1.7-2.2 1.5-8.5-3.8-3.3-2.7-8.2-6.3-10.9-8s-6.4-4.8-8.2-7.1c-1.7-2.2-4.6-4.7-6.2-5.6-2.9-1.5-3.2-1.4-5.3.4-2.1 2-2.1 2-9.6.1-4.9-1.3-9-1.8-11.7-1.4-9.1 1.3-6 5.1 5.6 6.9 4.5.7 8.5 1.7 8.9 2.1s-.2.5-1.3.2c-6.1-1.6-13.5-1.7-17.1-.2-5.3 2.2-6.7 3.5-5.3 5.1.7.9 2.9 1.1 7.7.8 3.7-.3 8.5-.1 10.7.4l4 1-5.7.1c-6.3.1-9.7 1.1-12.2 3.6-2.8 2.9-.8 3.7 8 3.4 5-.3 8.5 0 8.6.6.2.5-.8 1.2-2.2 1.3-2.9.4-7 3.9-7 5.9 0 1.9 2.7 2.8 4.3 1.5 2.2-1.8 9.3-2.5 13-1.3 1.9.7 4.8 2.3 6.3 3.7 4.8 4.2 7.4 5.8 15.3 9l7.6 3v7.8l6.5 1.7c8.7 2.3 24.7 8 34.5 12.3 16.8 7.4 24.5 10.5 27 11 5.4 1.1 36.6 3.5 57.2 4.6 11 .5 20.7 1.2 21.6 1.5 2 .8 2.4 3.1 4.1 21.5 1 10.7 2.1 17.3 3.7 21.3 1.2 3.1 2 5.9 1.8 6.1s-6 0-12.9-.5c-47.2-2.9-51.3-3.1-51.9-2.1-.9 1.6-2.3.3-4.6-4.3-2.7-5.3-7.1-8.1-15-9.4-5.4-1-7.1-.9-9.3.2-1.5.8-4 1.9-5.7 2.3-2.7.9-3.1 1.5-4.2 7.4-.7 3.6-1.7 8.5-2.2 11s-1.1 8.8-1.3 14l-.3 9.5 5.5 1.9c6.3 2.1 17.5 2.6 29.4 1.2 7.4-.8 7.9-.7 7.2.9-.3 1-.4 2.5-.1 3.5.5 1.5 3.1 1.8 24.3 2.3 13 .4 29.8 1.4 37.2 2.2s15.8 1.5 18.5 1.5h5l1.3 5.3c1.9 8.1 1.5 20.3-.7 26.3-1.8 4.6-3.8 16.3-5.6 31.6l-.6 5.8H462l-6.2-11.7c-12.1-23.2-13-24.2-38.3-43.5-3.8-3-7.1-6.1-7.3-7-.4-2 1.5-2.5 16.4-4.3 27.8-3.3 50.5-16.5 58.8-34 3.9-8 4.9-16.1 3.2-24.2-2.5-12.3-5.8-17.6-18.8-30.6-6.5-6.5-11.8-12.5-11.8-13.3 0-3.4-3-6.8-20.6-23.6-8.5-8-10.8-9.7-14.4-10.3-3.3-.6-5.4-1.9-10.1-6.6-3.3-3.3-5.8-6.3-5.5-6.7.2-.4-1.2-1.9-3.2-3.2l-3.6-2.5 2.7-.3c4.1-.5 3.3-1.6-3-4.5-3.2-1.5-5.2-2.7-4.4-2.7.9 0 1.1-.7.8-2.1-.5-2-.3-2.1 3.9-1.5 4.5.6 5.8-.5 2.7-2.3-1-.6-1.2-1.1-.6-1.1 1.4 0 1.3-2.1-.1-3.1-1.5-1.2 9.7-3 14.3-2.3l4.6.6-4.5-3.1-4.5-3.1 3.5-.1c2.3-.1 2.8-.3 1.3-.6-1.3-.2-2.3-.8-2.3-1.3 0-.4-1-1.1-2.2-1.5-1.3-.3-1.8-.9-1.1-1.1.7-.3 2.2 0 3.5.7 2.2 1.2 2.2 1.1.8-.6-.8-1-2.9-2.4-4.7-3.1-1.7-.8-3.7-1.9-4.5-2.6-.7-.8-4.4-3.3-8.3-5.6-3.8-2.3-9.5-5.9-12.5-8l-5.5-3.7-.1-6c-.1-3.3-.9-8.3-1.9-11.2-2.4-7.4-10-17.9-16.6-23.3-12.4-9.9-42.3-17.3-55-13.6"/></svg>