<svg xmlns="http://www.w3.org/2000/svg" width="682.667" height="512" version="1.0" viewBox="0 0 512 384"><path d="M0 143.5V287h4.8c2.6 0 10.5.7 17.7 1.5S39 290 43.3 290s8.6.4 9.6 1c2.2 1.1 9.9 2.1 53.1 6.5 33.7 3.5 108 9.5 117 9.5 4.3 0 4.7-.3 11.7-7.8 9.9-10.9 16.8-20.2 20.8-28.2 1.9-3.8 5.9-10.5 9-15 3-4.4 5.5-8.5 5.5-9 0-.6-1.1-1-2.5-1s-3.3-.8-4.4-1.9c-2-2-2.4-4.6-4.2-26.6-.6-7.7-1.5-15.6-2-17.5-.8-3.5-.9-3.6-8.5-4.8-11.8-1.8-19.4-8.6-19.4-17.2 0-3.7 3.5-10 5.5-10 1.7 0 2.4-2 1.8-5.6-.4-2.6-.3-2.7.8-.9.7 1.1 1.3 2.2 1.5 2.4s1.6-.8 3-2.2c5.9-5.9 13.2-4.1 19.1 4.7 4.1 6 5.1 11.1 3 14.7-1.4 2.6-1.4 2.8 1.3 5.4 1.6 1.5 3.4 4.1 4.1 5.9.7 1.7 1.4 3.3 1.5 3.5.2.2 2.3-1.3 4.6-3.5 3.2-2.9 4.2-4.4 4-6.4-.2-1.5.4-3.2 1.2-4 2.2-1.7 2-4.8-.5-9.4-1.1-2.1-1.8-4.7-1.6-5.7.7-2.7-.6-3.1-3.9-1.4-4.5 2.3-7.9 1.9-10-1.3-.9-1.5-3-4.1-4.6-5.7-7.9-8.3-7.7-7.8-5.1-10.7 1.5-1.7 1.5-2-.7-4.3-2.7-2.9-4-3.2-4-.9 0 1.1-.6 1.4-2.1.9-1.2-.4-2.8-.8-3.5-.9-1.8-.3-3.3-1.8-4.8-4.8-.7-1.2-1.7-2.2-2.2-2.1s-3.2-1.1-5.9-2.7c-5.2-3-10.5-5.7-19-9.5-5.8-2.6-11.8-7.3-11-8.6.3-.4-.7-1.1-2.2-1.5-1.5-.3-3.5-.8-4.4-1-2.5-.7-6.4-6.5-4.9-7.4.9-.6.6-1.4-1-3l-2.3-2.3 2.1-.8c2.5-.9 2.7-2 1-3.7-1.6-1.6-1.3-1.6 13.2 1.2 19.5 3.7 20.3 3.8 19.6 2.7-.4-.6-2.6-1.9-4.9-3-9-4.2-10.2-6.3-10.3-18.5-.2-9.2.5-12.6 2.6-12.6.4 0 1.3 2.1 1.9 4.6 1.1 4.1 1.4 4.5 3.4 3.9 3.8-1.3 20.1-1.7 23-.6 3.7 1.5 3.5 4.4-1 11.1-4.3 6.3-5.2 12.7-1.8 12.3 1.1-.2 6-.7 10.8-1.2 4.8-.4 8.9-1 9.1-1.2s2.8-3.6 5.7-7.6c3-3.9 7.7-8.9 10.4-11.1 9-7.2 24.5-10.1 42.8-8.1 12.7 1.5 18.1 3.8 29.9 13.1 5.7 4.4 15.7 11.7 22.3 16.1s12.8 8.7 13.8 9.5c1.8 1.6 1.8 1.7 0 2.3-3.1 1.3-12.8 1-17.9-.6-2.7-.8-9.3-3.7-14.7-6.5-9.6-4.9-16.1-6.3-19.4-4.2-.6.4-1.4 5.3-1.8 11.8l-.7 11.1 4.8 1.3c26.6 7.1 35.1 9.9 41.5 14 5 3.3 13.9 12.2 13.9 14 0 .6-1.2 1.5-2.7 2.1-1.9.7-2.3 1.3-1.5 2.1 1.3 1.3.4 3.8-1.4 3.8-.8 0-1.4 1-1.4 2.4 0 2.5 3.1 4.2 11.5 6.4 13.1 3.4 13.2 3.5 10.5 4.3-1.4.4-4.1.8-6 .8-3 .1-3.2.3-1.7 1.2 1.2.7 4 .8 7.3.4 3.1-.4 5.4-.3 5.4.3 0 .5 1.6.9 3.6 1 4.8.2 5.3.9 1.8 2.2l-2.9 1.2 3.1 1.3c1.7.7 4.5 1.6 6.2 2 5.8 1.2 4.5 2.5-2 1.9l-6.3-.6 3.1 2c2.9 1.9 5.2 4.2 4 4.2-.2 0-2.5-.9-5.1-2-6.6-2.8-6.6-2.5.2 1.9 10.7 6.9 9.6 7.9-2.9 2.5-15.9-6.9-16.8-6.8-4.3.2 4.7 2.6 10 6 11.8 7.5l3.2 2.8-9.5-2.5c-5.2-1.5-10.3-2.8-11.2-3.1-3.5-1-1.7.6 4.5 4.1 6.6 3.8 6 4.5-1.9 2.1-6.1-1.8-6.2-1.8-3.8 0 2.5 1.9 1.2 1.9-3.4-.1-8.3-3.6-8.6-3.6-7.1-1.8 1.2 1.5 1.1 1.6-1.1.9-2.5-.7-2.5-.7.5 2.5l3 3.2-4-1.6c-4.2-1.8-11.5-2.9-11.5-1.7 0 .4.4 1.1.9 1.7.4.5 1.2 2.2 1.5 3.8.6 2.5.5 2.8-.7 1.7-.8-.6-2.4-1.4-3.6-1.6s-4-1.9-6.4-3.8c-7-5.6-7.6-5.3-1.2.6 6.7 6.2 6.6 7.3-.1 2.7-2.7-1.9-4.1-2.5-3.8-1.5.6 1.6-1.1 2.1-2 .6-.3-.4-3.6-2.3-7.3-4-3.7-1.8-8-4.2-9.6-5.3-1.5-1.1-3-1.8-3.2-1.6-.3.3 2.9 8 8.2 19.8 1.2 2.5 2.9 7.1 3.9 10.2 1.4 4.6 2.3 5.9 4.5 6.7 3.3 1.1 3.4 1 4.4-4.4 1-5.6 4.4-11.3 8.2-13.6 4.1-2.5 13.6-3.7 15.8-1.9 1.1.9 2.6 1 6.2.2 2.7-.6 6.9-1.3 9.4-1.6 4.2-.5 4.8-.3 6.6 2.3 3.3 4.3 4.9 20 3.3 30.8-.7 4.9-.9 8.8-.4 9.3s8.3 2.5 17.4 4.5c9 2 19.8 4.4 24 5.4 4.1 1 11.9 2.9 17.3 4.1 11.7 2.7 15.6 5.3 14.9 9.9-.3 2.2 0 3.3 1.2 3.7 1 .4 7.8-.4 15.2-1.7l13.4-2.4V0H0z"/><path d="M290.7 237.7c-.3.5-1.7 5.1-3.2 10.3s-3.3 10.9-4.1 12.8c-1.3 3.2-7.1 11.9-10.2 15.2-.7.8-3.6 4.6-6.4 8.5-5.4 7.5-8.2 13-9.2 18.2-.5 3.2-.4 3.3 2.9 3.3 5.4 0 7.7-1.3 20.8-11.8 14.7-11.9 21.3-18.6 24.9-25.3l2.6-5.1-2.9-5.8c-1.6-3.2-5.2-8.9-8-12.7-6.6-8.7-6.6-8.6-7.2-7.6m97.3 34.1c0 .7 2 2 6.4 4 .5.3.6-.1.2-.7-1-1.5-6.6-4.4-6.6-3.3m41 2.2c.8.6 7.3 4 14.3 7.6l12.8 6.5 8.5-1.7c4.6-.9 8.4-2 8.4-2.3 0-.4-3-1.5-6.7-2.4-6.5-1.6-10-2.4-27.3-6.2-4.1-.9-8.4-1.9-9.5-2.2-1.7-.4-1.7-.2-.5.7m-27.3 2.4c-1.5 2.2-1.4 2.4 1.1 3.6 6.2 2.9 17 6.1 22.2 6.6l5.5.5-12.5-6.5c-6.9-3.6-13-6.5-13.6-6.5-.7-.1-1.9 1-2.7 2.3M0 349.4V384h345l-1-2.6c-.6-1.4-1-4.2-1-6.2 0-3.4-1.2-6.7-2.1-6.1-.5.3-12.7-2.8-20.8-5.4-5.9-1.8-7.7-1.9-19-1.1-6.9.5-18.7.9-26.1.9-12.2 0-13.8-.2-15.6-2-3-2.9-4.1-5.3-4.9-11.3-.6-4.3-.3-5.8 1.4-8.8 2.5-4.1 2.5-4.4.8-4.4-.8 0-2.2-.9-3.2-2-1.9-2.2-5.5-2.7-5.5-.9 0 .8-.5.7-1.5-.1-1.3-1-1.9-1-3.4.4-1.7 1.5-1.9 1.5-3.2 0-1.2-1.4-1.4-1.4-2.7.3s-1.4 1.7-3-.2c-.9-1.1-3-2.1-4.7-2.1-2.8-.1-36-2-77.3-4.5-10.1-.6-18.6-.9-18.9-.6-.2.3 2 1.1 5 1.8 7.4 1.6 8.4 2.3 6.8 4.3-.7.9-1.1 2.2-.8 2.9s-.4 1.9-1.4 2.5c-1 .7-1.9 1.9-1.9 2.6 0 .8 5.1 5.6 11.2 10.7 13.5 10.9 14.7 12.4 11.8 13.9-1.1.6-2.9 2.8-4 5-1.1 2.1-2.4 4.1-2.9 4.4-.7.5-14.6-10.9-22.3-18.3-10.1-9.6-38.2-23.7-57.3-28.6-8.1-2.1-9.6-1.9-12.9 1.6-1.7 1.6-3.6 2.7-4.3 2.4s-2-.8-2.8-1.1c-1.7-.7-2.1 2.1-.5 3.1 2.2 1.4.9 2.6-2.1 2-2.1-.5-3.6-.2-4.8.9-1.7 1.6-2.1 1.6-5.5-.1-4.2-2-5.1-4.2-4.4-11.4.5-4.7.3-5.1-2.1-6.1-1.4-.5-8.4-1.6-15.6-2.3-7.2-.8-15.1-1.7-17.7-2.1l-4.8-.7zm440.4 13.1c-.4.8-1.2 1.5-2 1.5s-1.4 1-1.4 2.4c0 2.8-4.5 8.6-6.6 8.6-.8 0-1.4.5-1.4 1 0 1.9-4.8 3.4-6.4 2.1-1.9-1.6-7.6-.5-7.6 1.4 0 .9-2.3 1.5-7.5 2-18.4 1.8-3.9 2.5 48.5 2.5h56v-3c0-1.7-.5-3-1.2-3.1-2.1-.1-6.5-.8-22.8-3.5-15.1-2.5-33.7-7.7-41.2-11.5-4.5-2.3-5.7-2.4-6.4-.4m-78.5 13.3c-.6 1.5-1.3 3.9-1.6 5.4l-.5 2.8h6.1c3.3 0 6.1-.3 6.1-.6 0-.4-1.2-2.6-2.7-5-3.4-5.3-6-6.3-7.4-2.6"/></svg>