<svg xmlns="http://www.w3.org/2000/svg" width="682.667" height="512" version="1.0" viewBox="0 0 512 384"><path d="M320 59.4c-7.5 2.1-15.3 6.6-19.2 10.9-4.6 5.1-8.1 13.8-7.3 17.9.4 1.6.2 3.5-.5 4.3-.6.7-5.3 2.4-10.4 3.6-9.7 2.3-13.3 4-12.1 5.8.3.6 3.3 2.9 6.5 5.1 5.8 4 5.9 4 4.4 6.8-1.3 2.6-1.3 5.4 0 13.7.6 3.8 2.6 7.6 5.6 10.8 1.6 1.8 3 3.6 3 4.1 0 .4.7.5 1.6.2.8-.3 1.2-.2.9.4-.5.9.8 1.4 1.9.7.3-.1 1.5.8 2.8 2.1 1.4 1.2 2.7 1.9 3.1 1.6.3-.3.3.3 0 1.5s-2 3.4-3.8 5l-3.2 2.8 3.3 2.7c1.9 1.5 3.4 3.3 3.4 4.1 0 .7 1 2.6 2.3 4.2 1.2 1.5 3.3 4.9 4.7 7.5 1.3 2.7 2.7 4.8 3.1 4.8.3 0 2.4 1.2 4.5 2.6 3.3 2.3 4.3 2.5 6.6 1.6 2-.7 2.8-.7 2.8 0 0 .6.9.3 2-.7 2-1.8 2.4-1.5 2 2-.1 1.6.1 1.8 1.1.8s1.5-.7 2.6 1.8c1.1 2.6 1 3.5-.2 6-.9 1.6-1.9 2.9-2.4 2.9s-7.6-2-15.7-4.6c-18.6-5.6-23.1-6.3-27.3-3.8-2.9 1.7-3.8 1.8-20.3.2-13.7-1.2-18.7-2.1-23.8-4.2-3.6-1.4-12.8-4.8-20.5-7.5s-19.6-7.3-26.4-10c-6.9-2.8-13.8-5.1-15.4-5.1-2 0-4.8-1.4-8.2-4-2.9-2.2-7.5-5.3-10.3-6.8s-6.5-4.6-8.2-6.7c-1.7-2.2-4.5-4.8-6.3-5.8-4.1-2.2-10.3-2.3-11.5 0-.9 1.4-1.6 1.5-6.7.5-9.9-2-19.5-1.3-19.5 1.3 0 1.4 6.6 4.2 11.5 4.8 1.7.2.5.5-2.6.6-4 .1-6.6.8-9 2.4-1.9 1.2-3.3 2.6-3.1 3 .1.4.4.6.5.4.2-.1 1.2.5 2.2 1.3 1.3 1.1 4.3 1.4 11.9 1.3l10.1-.1-8 .7c-7.7.7-12.5 2.4-12.5 4.6s5.9 3.7 12.7 3.1c4.6-.4 6.1-.3 4.8.3-1.1.5-2.9 1-4 1-1.1.1-2.7 1.4-3.7 3.1l-1.7 3 2.6-.6c2.2-.6 2.5-.4 2 1-1.3 3.3.3 3.5 5.4.9 4.6-2.4 5.3-2.5 8.6-1.4 2 .7 5.4 2.7 7.7 4.3 2.4 1.6 8.3 4.4 13.2 6.1 8.9 3.2 8.9 3.3 8.9 6.7s.2 3.5 6 5.3c16.7 4.9 34.8 11.3 48.6 17.2 14.1 6 17.4 7 38.9 11.5 12.9 2.6 29.4 5.5 36.5 6.5 7.2.9 14.6 2 16.6 2.6 4.4 1.1 4.6 1.8 5.9 21.5 1 15.1 2.2 21.9 4.5 26.5 1.6 2.9 2 9.6.7 11.5-.7 1.2-18.7 2.7-50.2 4.4-10.7.6-18.6 1.4-18.8 2-.2.5-1.6 1-3.1 1-2 0-3.5-1-5.7-3.9-3.9-5.4-6.4-6.3-17.2-6.9-8.5-.4-9.5-.3-11.3 1.7-1.1 1.1-3.1 2.1-4.4 2.1-3.9 0-4.3 1.4-4.5 14.9-.1 10.5.8 19 2.4 21.6.7 1.1 1.1 3.7.8 5.7-.4 3.3-.1 3.9 2.3 4.8 4.6 1.7 22.3 1.2 30-.9 3.9-1.1 9.1-2.2 11.8-2.6 4.2-.6 4.7-.5 4.7 1.1.1 4.5.8 4.6 17.1 2.5 8.5-1.2 27.3-2.7 41.9-3.5 23-1.2 26.7-1.2 28 0 2.5 2.5 2.6 15.7.1 24-1.1 3.9-2.5 10.6-3.1 14.9-.6 4.4-1.3 8.8-1.6 9.7-.5 1.7 3 1.8 64.5 1.8 35.8 0 65.1-.2 65.1-.5s-1.8-4-3.9-8.3c-5-10-10.1-15.6-28.3-30.9-8.1-6.9-14.5-12.9-14.2-13.4.3-.6 1.1-.6 1.9.1 1.7 1.4 3.8.3 3.2-1.5-.4-.9 2.6-1.5 11.1-2.4 20.9-2.3 31.9-6 44.2-15.2 11.2-8.3 17.3-16.3 20.4-27 5-16.8-3.2-36.5-21.5-51.7-3.8-3.1-6.9-6.4-6.9-7.2 0-2.9-4.3-9.5-8.9-13.9-2.5-2.4-8.7-8.4-13.8-13.2-6.7-6.5-9.9-8.9-11.8-8.9-3.3 0-5.9-1.5-12-7-2.7-2.5-6.8-6-9-7.8-3.7-3-3.8-3.2-1.5-3.2 1.8 0 .2-1.3-5.8-4.6-8.8-4.8-9.9-6.2-3.6-4.5 4.4 1.2 5.1.9 2.9-1.3-1.5-1.4-1.2-1.5 3.2-1.1l4.8.5-4.3-1.1c-2.3-.6-4-1.5-3.6-2 .3-.5 1.5-.7 2.6-.3 1.4.4 1.8.2 1.4-.5-.9-1.4.5-1.3 7.9.4l6 1.4-3.8-3.2c-4.1-3.5-4-5 .2-4.1 2 .4 2.3.3 1.1-.5-.8-.6-2.2-1.1-3.1-1.1s-2.7-.9-4-2c-2.8-2.2-2.6-2.3 1.9-1.1 4.1 1.2 4.1.2-.2-2.6-3.4-2.2-15.5-12.5-25-21.4-4.8-4.5-4.9-4.7-3.7-7.8.8-1.9 1.2-5.6.9-9.5-.8-13.7-13.1-30.5-27.3-37.4-15.4-7.6-39.9-11.8-50.5-8.8m86.5 75.3 3 2.5-3-1.5c-1.6-.9-3.9-2.2-5-3.1l-2-1.5 2 .5c1.1.3 3.4 1.7 5 3.1m-277.2 12c-.7.2-2.1.2-3 0-1-.3-.4-.5 1.2-.5 1.7 0 2.4.2 1.8.5"/></svg>