<svg xmlns="http://www.w3.org/2000/svg" width="682.667" height="512" version="1.0" viewBox="0 0 512 384"><path d="M364.5 66.5c-18.5 5.7-28.9 16.1-29 29.2 0 7.2 1 6.5-14.5 10.8-5.2 1.4-9.9 3-10.4 3.5-1.4 1.4 1.8 4.5 8.1 8.1 2.9 1.7 5.3 3.2 5.3 3.4 0 .1-.7 1.9-1.5 3.8-1.7 4.2-1.9 5-.6 4.3.5-.3.8 2 .7 5.2-.1 3.1.5 6.8 1.1 8.2.7 1.4 1.3 3.1 1.3 3.7 0 .7.5 1.3 1 1.3.6 0 1 .4 1 1 0 .5.9 1.9 2 3 2.1 2.1 3.5 2.7 2.5 1-.3-.6-.1-1 .4-1 .6 0 1.1.5 1.1 1.1 0 .5.4.8.9.4.6-.3 1.3 0 1.8.7.4.8 2.2 2.5 3.8 3.8 1.7 1.4 3 3 3 3.6s-1.8 2.7-3.9 4.6l-4 3.5 3.8 2.4c2.3 1.5 3.9 3.4 4.3 5.2.3 1.5 1.7 3.6 3 4.7 1.4 1.1 2.3 2.6 2 3.3-.3.8.5 2.5 1.7 3.9 1.3 1.3 2.9 3.4 3.5 4.7.7 1.2 1.8 2 2.5 1.8.7-.3 2.7.2 4.5 1 2.5 1.3 3.9 1.4 6.7.5 2.8-.8 3.4-.8 3.4.5 0 .8.4 1.2.9.9.5-.4 1.2 0 1.4.6.4 1 .7 1 1.5 0 .7-1.1 1-1 1.6.3 2.5 6.7-4.7 15.9-10.7 13.6-2.5-1-24.7-3.1-32.3-3.1-7.5 0-10.7 1.5-13.3 6-1.7 3.1-2.8 4-4.9 4-1.5 0-8 .9-14.5 2.1l-11.7 2.1-15.3-9.3c-8.3-5-21.2-13.2-28.5-18-7.2-4.9-14.2-8.9-15.5-8.9-1.2 0-4.9-1.8-8.2-4.1-3.3-2.2-8.5-5.3-11.5-6.9-3-1.5-7.3-4.7-9.5-7-4.6-4.8-9.8-7.8-13.7-7.8-3.1.1-5.6 2.2-3.8 3.3 2.3 1.4.8 2.2-2.7 1.4-5.2-1.2-22-1.1-24.3.1-1.8 1-1.8 1.1.5 3.5 1.3 1.5 4.1 2.9 6.6 3.4l4.4.9-4.5.1c-5.2.1-7.4 1.3-7.7 3.8-.1 1-.5 2.9-.9 4.2-.7 2.3-.6 2.4 3 1.8 3.2-.5 3.6-.4 2.6.8-.9 1-.9 1.5-.1 1.5.7 0 .7.7-.1 2.5-1.8 3.9 0 5 5.3 3.2 2.4-.8 5.8-1.7 7.4-2l3-.6-3.2 1.4c-1.7.8-3.5 2-3.9 2.7-.6.9-.3.9.9-.1 2-1.6 2.1-1.2.7 2.5-1.1 2.9-.5 6.4 1.2 6.4.5 0 2.3-1.4 3.9-3.1 2.6-2.8 3.2-3 7.1-2.4 2.2.4 7.7 2.5 12.2 4.6 4.4 2.2 8.7 3.9 9.5 3.9 3 0 9.1 2.1 9.1 3.1 0 .6-.4.8-.9.4-1.1-.6-2.5 3.1-1.7 4.4.4.5 5.5 3.5 11.4 6.6 9.9 5.3 16.6 9.7 37.3 24.7 11.9 8.5 15.6 9.3 43.4 9.1 12.7-.1 27.5-.6 33-1.2 19.5-2.1 22-2.2 23.4-1.2 1.2.8 1.4 3.5 1.3 13.3-.3 16 1.5 26.2 6.3 35.8 3.4 6.9 3.6 8 3.1 13.5-.3 3.2-1 6.3-1.5 6.8-1.3 1.3-25.5 8.1-48.6 13.6l-20 4.8-3.9-2c-4.4-2.3-21.8-4.2-35.9-4-6.2.2-8.3.6-10.4 2.2-1.4 1.2-3.3 2.1-4.2 2.1s-3.1.9-4.8 2c-3.9 2.3-4.5 6.3-1.2 8 1.9 1.1 1.9 1.3.5 2.9-2.4 2.6-2 4.7 1.5 7.4 2.7 2.1 2.8 2.5 1.5 3.6-2.3 2-2 4.5 1.1 7.5 2 2 2.7 3.8 2.8 6.7.1 2.1.6 4.4 1.2 5 .7.7 4.6 1.3 8.7 1.4 4.2.1 7.9.5 8.3.8.3.4 9 .7 19.2.7 17 0 19.3-.2 26.6-2.5l8-2.5 2.2 2.5c1.2 1.4 3.1 2.5 4.3 2.5 1.1 0 8.2-1.8 15.8-4 20.7-6 54.7-13.5 56-12.5.3.3-1.5 11-2.4 14.2l-.6 2.3h58.1c31.9 0 58.1-.4 58.1-.8 0-.9-10.9-11.6-22.1-21.7l-6.6-6 9.1-.1c5 0 12.1-.4 15.9-.8l6.7-.8V221.3l-5.2-5.6c-4.5-4.9-5.9-5.7-9.2-5.9-3.5-.2-4.5-1-9.9-7.3-3.3-3.8-8.1-8.9-10.6-11.2-2.7-2.5-4-4.3-3.1-4.3.8 0-1.3-1.8-4.7-4-3.5-2.2-6.3-4.2-6.3-4.4 0-.7 7.2 2.4 8.9 3.8 1.2.9 1.2.8.3-1-.6-1.1-1.8-2.7-2.7-3.4s-2.1-2.2-2.6-3.3c-1.1-2-1-2 5.1.1.8.3-1-1.4-4-3.8-3.8-2.9-4.7-4-3-3.5 1.4.4 3.8 1.6 5.4 2.7 3.2 2.3 3.1 2.2-3.2-7.2-7.1-10.3-11.2-15.9-17.9-24.4-5.6-6.9-6.2-8.1-5-9.5 6.2-7.3 6.2-18.8.1-30.9-5.1-10-15.1-20.2-23.7-24.2-12.6-5.9-23-8.3-37.7-8.6-10-.3-14.8 0-18.5 1.1m91.6 89.2c1.3 1.6 1.2 1.7-.3.4-1.7-1.3-2.2-2.1-1.4-2.1.2 0 1 .8 1.7 1.7m-292.4 27.9c-.3.3-1.2.4-1.9.1-.8-.3-.5-.6.6-.6 1.1-.1 1.7.2 1.3.5"/></svg>