<svg xmlns="http://www.w3.org/2000/svg" width="682.667" height="512" version="1.0" viewBox="0 0 512 384"><path d="M442 13.6c-13.4 2.4-25.3 8-32.8 15.6-7.9 7.8-10.5 12.8-11.1 21.1l-.6 7-7 1.9C371 64.5 369 65.7 370.8 71c.6 1.7.9 3.7.6 4.4-.3.8 1.7 3.1 5 5.7 5.9 4.6 6.2 5.2 4.6 9.5-.9 2.3-.8 2.5.3 1.5 2.5-2 4.2 1.2 2.8 5.1-.8 2.2-.8 3.4-.1 3.6.5.2 1 1.3 1 2.3 0 3.6 2.2 10.9 3.1 10.3.5-.3 1.6 1.3 2.5 3.6 1.1 2.8 2.1 3.9 3.1 3.6.7-.3 1.6.1 1.9.9s1.3 1.7 2.2 2c1 .3 2.6 1.2 3.6 2 1.9 1.5 1.9 1.5-.3 3.9-1.7 1.8-2.1 3-1.6 4.3.5 1 .9 2.6.9 3.6.1 1 1.2 2.3 2.6 3s3 2.7 3.6 4.5 2.2 4.4 3.7 5.8 2.7 3.3 2.7 4.4c0 1 1 3 2.3 4.4 3.8 4.1 4.4 5.1 3.9 6.5-.3.9 0 1.1.7.7s1.9-.2 2.7.5c1.1.9 2 .9 4 0 3.3-1.5 3.4-1.4 3.4 1.1 0 1.9.4 1.7 3.5-1.7 3.8-4.3 3.8-4.3 5.3 0 1 2.9 1.1 2.9 1.7.7.4-1.2 1-2.2 1.4-2.2 1.3 0 1.1 5.4-.3 6.9-.7.9-1.6 2.7-1.9 4.1-.4 1.7-1.9 3.2-4.2 4.3-2.6 1.3-3.5 2.3-3.5 4.2 0 2.8-1.2 3.2-2.9 1.1-1.5-1.7-13.2-4.3-23.1-5.1l-15-1.1c-9-.7-12.4.4-15 4.9-1.9 3.2-2.2 3.3-12.2 4.5-5.7.7-14.6 2-19.8 2.8l-9.5 1.5-9-4.1c-21.6-10-29.9-13.9-45-21.3-10.8-5.3-16.7-7.7-18.3-7.4s-4.2-.7-8.1-3.3c-3.1-2-8.9-5.4-12.9-7.5-4.1-2.1-8.5-5.3-9.9-7.1-2.7-3.6-10.4-8.4-13.3-8.4-2.5 0-3.3 2.9-1.6 5.5l1.5 2.3-13.7-.5c-12.6-.4-14-.3-16.9 1.6-1.8 1.1-3.3 2.4-3.3 2.9s1.4 1.8 3.1 3.1l3 2.2-3.5 4c-2 2.1-3.6 4.3-3.6 4.8 0 1.6 2.2 2.7 5.9 3 1.7.1 1.8.5 1 3.3-.8 2.9-.6 3.5 1.9 5.4 2.7 2.2 2.7 2.2 5.8.3 4-2.4 4.7-2.4 3.4 0-1.9 3.6-1.2 6.8 1.9 9 3.6 2.6 4.1 2.6 4.1.3 0-1 .5-2.3 1.2-3 1.6-1.6 11.9-1.5 14.3.2 3.3 2.2 13.7 5.4 20.1 6.1 5.7.7 6.1.9 5.6 3.1-.4 2.3 3.1 7.3 5.1 7.4.9 0 11.7 4.2 18.7 7.2 5 2.2 16.6 8 22 11.1 25 14.2 26.5 14.8 36.8 15.8 15.5 1.3 33 1 57.3-1.1 25.7-2.2 33.7-1.9 34.4 1.4 1.7 7.7 2.2 10.9 2.4 17.1.6 20.8 5.4 34.3 18.1 51.5 6.9 9.3 10 15.8 10.7 22.1.7 7.2 3.4 14.1 8.3 21.6 2.2 3.4 4 7.3 4 8.7 0 5-3.8 14.4-9.8 23.8l-6.1 9.8H512V40.8l-6.7-6.9C495.5 23.7 487 19.5 468 15.5c-7.2-1.5-22.1-2.6-26-1.9"/></svg>