<svg xmlns="http://www.w3.org/2000/svg" width="682.667" height="512" version="1.0" viewBox="0 0 512 384"><path d="M406.6 7.2c-9 9.2-12.9 16.7-12.4 24.1l.3 5.1-12.8 3.6c-8 2.3-13.7 4.5-15 5.8l-2.1 2.1 2.2 4.4c1.2 2.4 2.2 4.9 2.2 5.5 0 .5 2.1 2.8 4.7 4.9 4.5 3.9 4.6 4 3.5 7.3-1.2 3.2-1.1 3.2.6 1.7 1-1 2.2-1.7 2.5-1.7 1 0 .8 6.5-.3 9.4-.5 1.4-.6 2.6-.1 2.6s1.9 3.2 3 7c1.2 3.9 2.6 6.8 3.1 6.5.4-.3 1.3 1 2 2.9 1.1 3.4 5 7.9 5 5.7 0-.6 1.6.3 3.5 2.1l3.5 3.2-2.5 2.6-2.6 2.7 3.1 4.7c1.7 2.5 3.6 4.6 4.1 4.6s1.5 1.6 2.3 3.5 3.1 5.6 5 8.1c2 2.6 3.6 5.1 3.6 5.6 0 1.7 6.2 9.3 8.1 10 1.1.5 3 .3 4.1-.3 1.8-.9 2.4-.8 3.6.7 1 1.3 1.6 1.5 1.9.7.2-.7 1.4-2.4 2.5-3.9l2.1-2.6 2.1 3.8 2 3.9.6-3 .7-3 1.1 2.8c1.6 3.8 1.5 4.4-.7 5.9-1 .7-2.6 2.8-3.5 4.6-1 1.9-3.1 4.1-4.7 5-1.7 1-2.9 2.5-2.9 3.8 0 3-1.1 3.6-3.1 1.8-3-2.7-13.2-4.3-32.2-5l-18.5-.7-2.3 2.5c-1.3 1.3-2.8 3.1-3.4 4-.8 1.3-6.2 2.4-22.3 4.8-19.7 3-21.5 3.1-24.5 1.7-1.7-.9-11.5-4.5-21.7-8.2-17.3-6.2-46.7-17.7-49.9-19.5-.8-.4-2.2-.3-3.1.2-1.2.8-2.9.2-7-2.4-3-1.9-8.2-5-11.5-6.8s-8.2-5.4-11-7.9c-5.9-5.5-13.5-9.7-15.8-8.8-2 .7-2.3 4.7-.5 6.5s.5 2.3-3.2 1.2c-1.9-.6-7.5-1.3-12.5-1.6-8-.6-9.7-.4-13.9 1.4-2.8 1.3-4.6 2.7-4.4 3.4.3.7 2.4 2.3 4.9 3.4 4.4 2.2 4.4 2.2 1.7 2.9-3.1.8-9.1 7.1-8.5 8.8.4 1.3 5.4 1.6 10.4.6 1.9-.4 3-.3 2.7.2s-1.3.9-2.3.9c-1.9 0-4.1 3.8-4.1 7 0 1.4.7 2 2.5 2.1 6.2.3 5.6.4 12.5-2.2 2.2-.8 2.1-.6-.8 1.8-3.5 3.1-4.2 6.6-1.8 9.8 1.1 1.5 1.7 1.7 2.8.7.8-.6 1.8-.9 2.1-.5.4.3.7 0 .8-.8 0-.8.4-.6.9.6.8 1.9.9 1.9.9-.2.1-1.2.9-2.6 1.9-3.1 2.6-1.4 12 .2 18.3 3.1 5.2 2.3 10.5 3.7 21.2 5.3 3.2.4 3.7.8 3.1 2.2-2.1 5-1.8 5.2 16.6 11.2 17.7 5.8 32.2 11.7 50.5 20.6l10 4.9H348c17.9 0 36.8-.3 42-.7 17-1.4 30.1-1.2 31.1.3 1.7 2.6 2.9 8.4 4 18.4 2.3 22 5.9 32 17.7 49 3 4.4 6.7 9.8 8.3 12 3.2 4.7 4.9 10.4 4.9 16.2 0 4.3 4 16.5 6.4 19.3.7.8 1.8 3.8 2.4 6.7 1 4.5.9 5.9-1 11.5-1.2 3.4-4.5 10.3-7.5 15.1-6 9.9-10.3 18.1-10.3 19.7 0 .7 11 1 33 1h33V17.2l-6.2-6.5C494.6-.8 498.5 0 453.1 0h-39.3zM192.3 150.7c-1.3.2-3.3.2-4.5 0-1.3-.2-.3-.4 2.2-.4s3.5.2 2.3.4"/></svg>