<svg xmlns="http://www.w3.org/2000/svg" width="682.667" height="512" version="1.0" viewBox="0 0 512 384"><path d="M392.7 4.9c-.9 2.9-1.3 6.5-1 8.9.6 4.5 1.3 4.1-14.7 8.3-14.7 3.8-16.8 5.6-14.6 12.9.9 3 3 6.1 6.7 9.7 5.2 5.1 5.3 5.3 4.2 8.4-1.1 2.9-1.1 3 .5 1.6 1.1-1 2.2-1.3 3.2-.7 1.1.7 1.2 1.7.2 6.1-.7 3-.9 5.6-.3 6.3.4.6 1.4 3.5 2.1 6.3.7 3.4 1.7 5.3 2.6 5.3.8 0 1.7 1.3 2 2.9.3 1.5 1.7 4.1 3 5.6 2.1 2.4 2.4 2.6 2.5.9 0-1.4.3-1.2 1.1.9.5 1.5 1.3 2.5 1.7 2.2.5-.2 1.8.6 3 1.9l2.2 2.4-2.7 2.1c-2.7 2.2-2.7 2.2-1 5.7.9 2 2.5 3.8 3.6 4.1 1 .3 2.7 2.6 3.9 5.4 1.2 2.7 3 5.3 4 5.8 1 .6 2.1 2.3 2.4 3.9s2.2 4.8 4.1 7.1c2 2.4 3.3 4.7 3 5.2-.7 1.1 4.5 3.2 6.6 2.6.8-.3 2.3-.8 3.3-1.2 1.3-.5 1.7-.2 1.7 1.4 0 3.3 1.6 2.5 4.3-2.2l2.5-4.2 2.1 4.5c1.5 3.3 2.1 4 2.5 2.7 1.7-5.1 1.9-5.2 2.8-1.3.7 3.4.5 4.4-1.7 7.6-1.4 2-2.5 4.1-2.5 4.8 0 .6-1.8 2.6-4 4.3-2.6 2.1-4 4-4 5.6 0 2.8-.4 2.8-3 .6-3.2-2.8-12.1-4.1-33.1-4.9l-19.7-.7-2.3 2.5c-1.3 1.3-2.8 3.1-3.4 4-1.2 2-40.1 8.3-46.8 7.5-6.3-.7-50.4-11-65.2-15.2-7.1-2.1-15.1-3.8-17.7-3.9-3.5-.2-6.1-1.2-11-4.4-3.4-2.2-8.3-5-10.8-6.1s-6.9-4.5-9.9-7.5c-4.2-4.3-6.6-5.9-10.8-7.1-6.6-1.9-8.8-.9-7.9 3.8.5 2.7.4 2.9-1.7 2.3-1.2-.3-7.1-.9-13.2-1.2-8.9-.5-11.7-.4-14.8 1-2.7 1.1-3.8 2.1-3.5 3.3.4 2.3 3.7 3.1 14.3 3.3 13.5.2 14.8 1.6 2.2 2.2-9.5.5-11.3.9-14.8 3.2-8 5.3-6.4 8.1 3.7 6.6 12.4-2 16.2-2.3 20.1-1.4 3.5.7 3.1.8-4.3 1.4-4.7.4-9.8 1.5-12 2.6-3.9 1.9-7.5 6.6-6.1 8 .4.4 4 .2 8-.5 11.8-2.1 15.7-2.4 15.7-1.2 0 .6-1.3 1.1-2.9 1.1-5.2 0-10.5 7.1-8.2 10.9 1 1.5 1.3 1.4 8-2.4 6-3.4 9.6-3.2 19 1.4 4.9 2.4 11 4.4 15.4 5.1 16.8 2.8 15.2 2 14.9 6.8-.2 2.3 0 4.2.5 4.2.4 0 6.3.9 13.1 2 16.1 2.6 27.2 5.7 51.5 14l20.1 7h13.1c18.5 0 50.9-1.8 65-3.5 12.6-1.6 22.3-1.9 27.2-.9 2.6.5 3.2 1.3 4.7 6 .9 3 2.4 10 3.2 15.7.8 5.6 2.2 12.9 3 16.2 2.3 9.3 9.5 22.9 18.5 35 9.5 12.8 9.9 13.8 9.9 21.4 0 6.4 2.1 15.3 5.2 22 1.1 2.5 2 6.1 1.9 7.9-.2 1.9.3 4.7.9 6.3 1.6 3.9-1.2 12.2-8.1 23.6-5.4 9-11.1 19.9-12.8 24.6L442 384h70V0H394.3z"/></svg>