<svg xmlns="http://www.w3.org/2000/svg" width="682.667" height="512" version="1.0" viewBox="0 0 512 384"><path d="M394.9.4c-.2.3-4.9 1.7-10.3 3.1-14.1 3.7-20.4 6.3-22.2 9-1.4 2.2-1.4 2.7.1 6 1 1.9 4.8 6.4 8.5 9.8l6.8 6.3-1.9 3.9c-2.8 5.6-2.3 6.3 1.5 2.6 2.1-2 3.6-2.9 4-2.2.4.6.4 1.6.1 2.1-1.5 2.4-4.2 16-3 15 .9-.7 1.7.7 3 5.7 1.4 5 2 6.2 2.5 4.8.6-1.6 1-1.2 2 2.2.7 2.4 2 4.9 2.9 5.7s2.6 2.4 3.9 3.6c1.2 1.1 2.8 2 3.5 2 .6 0 2.7 1.3 4.6 2.9l3.4 2.8-4.7 3.8c-5.2 4.3-5.1 5.2 1.6 8.6 3.2 1.6 3.9 2.6 4.4 6 .6 3.3 1.4 4.5 4.5 6.5 3.2 2 3.9 3 3.9 5.7 0 2.4.9 4.1 3.1 6.3 4.4 4.1 5.1 5.8 3.8 9-1 2.7-1 2.8 1 1 1.6-1.5 2.2-1.5 4-.4 1.6 1 2.7 1 5.1.1 2.9-1.1 3-1.1 3 2 0 3.2 0 3.2 3.5-2.1 2-2.8 3.9-5.2 4.4-5.2.4 0 1.3 1.8 2 4 1.6 5.2 2.8 5.1 3.7-.5.3-2.5 1-4.5 1.4-4.5s1.1 2.7 1.5 5.9c.6 5.2.4 6.3-1.9 9.7-1.3 2.2-2.8 5.1-3.1 6.7-.4 1.5-2.5 4.1-4.6 5.8S437 158 437 159c0 5.1-2.7 6.5-5.2 2.8-.9-1.4-3.5-2.7-6.9-3.6-6.5-1.7-42.8-3.4-48.2-2.2-4.5 1-7.5 3.4-9.3 7.5l-1.2 3-24.4 4.8c-25.2 4.9-28.3 5.3-29.2 3.8-.3-.5-2-1.1-3.8-1.3-7.6-1.1-57.3-12.5-75.2-17.3-8.3-2.3-10.3-2.5-12.2-1.4-2.1 1.1-3 .7-9.6-4-4-2.8-10.8-7.2-15.1-9.7-4.3-2.6-8.5-5.7-9.4-7.1s-3.7-4-6.1-5.9c-5.2-4-10-4.5-11.9-1.4-1.2 1.8-1.5 1.8-5.2.5-7-2.4-20.8-4.8-24.4-4.1-4.5.8-7 2.7-6.2 4.8.9 2.2 4.9 3.5 15.3 4.9 7.5 1 14.2 3.1 14.2 4.3 0 .2-1.7 0-3.7-.4-2.1-.5-7.4-1.1-11.8-1.5-7.3-.6-8.6-.4-13.8 1.9-5.4 2.4-7.8 4.8-6.2 6.4.3.4 6.6.8 13.8.9 14.6.2 24.4 1.8 12.1 2-3.9.1-8.9.6-11.2 1.2-5.3 1.5-9.8 5.2-8.9 7.4.7 2 4.8 2.2 15 .7 6.9-1 11.7-.5 11.7 1.1 0 .5-1.1.9-2.4.9-5.9 0-12.6 5.2-12.6 9.7 0 1.9.5 2.2 2.8 2 1.5-.2 4.7-1.3 7.2-2.4 2.5-1.2 5.4-2.2 6.5-2.4 5-.7 11.3 1.5 19 6.7 5.9 3.9 10.1 5.9 16 7.4 16 4.2 17.7 5 17.1 7.4-2.3 7.8-2.7 7.2 7 8.6 21.1 2.9 39.4 7.3 70.4 17.1 11.4 3.5 13.6 3.9 23.6 3.9 17.3 0 54.3-2.7 74.3-5.5 10.1-1.4 23.1-2.5 29-2.5h10.7l2.2 6.7c1.2 3.8 3.1 12.2 4.2 18.8 3.1 18.4 7.8 31.5 15.2 42.2 1.6 2.4 6.5 8.7 11 14 10.2 12.4 11 14.1 9.8 22.5-1 7 .5 18.4 3.4 25.2 1.3 3.1 2 10.6 1.9 21.4 0 3.1-1.4 7-5.2 14.3-2.8 5.6-5.1 10.3-5.1 10.5s10.4.4 23 .4h23V0h-58.3c-32.1 0-58.6.2-58.8.4"/></svg>