<svg xmlns="http://www.w3.org/2000/svg" width="682.667" height="512" version="1.0" viewBox="0 0 512 384"><path d="m426.6 3.8.6 3.8-10.9 3.2c-22.3 6.6-24.8 7.6-27.5 10.3-3.2 3.1-3.4 4.4-1.3 8.6 1.4 2.8 10.1 11.6 17.4 17.6 3.2 2.6 3.3 2.9 2.3 6.7-.5 2.2-.6 4-.1 4q1.35 0-.6 8.7c-.5 2.1-.4 3.3.3 3.3.5 0 1.3 1.5 1.6 3.2 1 4.8 4.2 11.4 4.8 9.7.3-.8.8 0 1.2 1.8s1.8 4.3 3.2 5.5c1.3 1.3 2.4 2.8 2.4 3.3 0 .6 3.6 3.5 8 6.4s8 5.7 8 6.2c0 1.1-6 6.9-7.1 6.9-.4 0-.9.7-1.3 1.5-.4 1 1.3 2.7 5.2 5.3 4.9 3.2 5.7 4.3 6.5 7.9.6 3.3 1.7 4.9 4.7 7 4 2.8 5.7 5.9 5.8 10.2.1 1.5 1.3 3.4 3.2 4.9 1.6 1.3 3 2.9 3 3.6s1.1 2.3 2.4 3.5c1.4 1.3 2.2 3 1.9 3.8-.5 1.3-.3 1.3 1.4.2 1.8-1.1 2.7-.8 6.9 2 2.7 1.7 5.4 2.9 6.1 2.7.7-.3 1.3 0 1.3.6 0 .7.6.5 1.3-.4 1.3-1.8 8.1-5.8 9.8-5.8.5 0 1.5 1.4 2.1 3 .8 2.5 1.3 2.8 2.4 1.9s1.4-.6 1.4 1.5c0 1.8-.7 3-2.4 3.7-1.5.7-3.1 2.9-4.1 5.5-1.2 3.3-2.8 5-6.6 7.4-3.7 2.2-5.1 3.8-5.6 6-.3 1.7-.9 3.2-1.2 3.4-1.1.7-10.5-1.5-12.1-2.9-3.7-3-11.9-4.2-44.5-6-11.4-.7-13.5-.6-16.5 1-4.5 2.2-6.9 5.3-7 8.7 0 3.7-1.6 4.3-15 6.3-6.3.9-18.2 2.7-26.5 4.1l-15 2.4-12-3c-6.6-1.6-20.3-4.8-30.5-7-15.8-3.5-32.9-7.7-60.4-14.8-5.7-1.5-6-1.5-7.5.5-1.6 2-1.6 2-5.6-.6-2.2-1.4-4.2-2.8-4.5-3.1-1.7-1.7-15.2-13.2-19-16.1-2.5-1.8-4.7-3.6-5-3.9-.5-.6-8.1-5.5-19.2-12.5C157.5 136 138 129.8 133 133c-3.1 2 5.3 9.3 13.2 11.3 1.2.4 2 .9 1.7 1.1-.3.3-2.3.1-4.4-.5-3.9-1.1-12.8-.5-17.2 1.2l-2.3.9 2.2 2.5c2.2 2.5 7.2 4.5 11.8 4.5 1.4 0 4.8 1.1 7.5 2.4l5 2.3-5.8-.5c-4-.3-7.1.1-10.2 1.3-4.1 1.5-6 3.5-3.5 3.5.6 0 1 .7 1 1.5 0 1.5 3.1 2.5 14.4 4.5l6.9 1.3-6.4 3c-3.5 1.6-5.8 3.1-5.1 3.4.6.3.9.9.6 1.4-.3.6 0 1.6.6 2.5 1 1.2 3.2 1.3 11.9.8 9.5-.6 11.3-.4 16.7 1.5 5.2 1.9 6.8 3.2 12.7 10.1 7 8.3 11.4 11.2 25.9 16.9 7.1 2.9 8 3.9 6.9 7.9-.7 2.3-.6 3.2.5 3.6.8.3 1.4 1.9 1.4 3.5 0 3.3-1.1 3 18 5.1 18.8 2 35.3 5.7 70 15.7l19.5 5.6 42.5-.6c25-.4 46.6-1.1 52.5-1.9 10.7-1.3 40.9-1.8 42.1-.6.7.8 1 5.5 1.8 27.8.7 21.1 2.6 29.4 9.6 43.5 4.2 8.4 8.5 15 14.1 22 14.4 17.6 16.2 21.4 17.3 35 .3 3.8.6 7.1.6 7.2 0 .2 1.1.3 2.5.3h2.5V0h-86z"/></svg>