<svg xmlns="http://www.w3.org/2000/svg" width="682.667" height="512" version="1.0" viewBox="0 0 512 384"><path d="M469 .8c0 2.3 16.1 20.2 18.2 20.2.6 0 .8 1.1.6 2.5-.4 2.1-.3 2.3.9 1.3 1.1-.9 1.7-.8 2.8.3 1.3 1.3 1.2 2.1-.5 6.7-2.7 7.1-2.7 9.5.1 6.2 1.1-1.4 1.8-2 1.5-1.3-1.1 2.2-1.8 14.9-.7 13.3 1.5-2.2 2.2-.8 2.8 5.5.3 3.2.9 5.1 1.3 4.4.5-.8 1.5.1 2.8 2.7 3.5 6.9 13.2 15.8 13.2 12.1 0-.7-.6-1.9-1.2-2.6-1-1.1-1-1.3 0-.7.9.6 1.2-6.8 1.2-35.3V0h-21.5c-11.8 0-21.5.4-21.5.8M195 39.5c-2.5 3 .6 6.2 14.2 15.1 15.6 10.3 14.2 9.3 13.7 9.8-.2.2-3.5-1.2-7.4-3.1-14.4-7.1-26.5-9.4-29.6-5.7-1.1 1.4-.8 2.1 2.4 5L192 64h-3.2c-4 0-2.9 1 4.2 3.9 6.1 2.5 9.2 4.8 5 3.7-7.4-1.9-8.6-2-7.2-.4 1 1.2.9 1.8-.3 2.8-2.1 1.8-1.9 4.7.5 5.5 2.7.9 2.5 2.5-.2 2.6-1.6 0-.4.9 3.7 2.9l6 2.8-4.5-.5-4.5-.5 4.9 3c2.7 1.7 4.3 3.2 3.7 3.6-1.4.9-.8 4.5 1 5.7 1.2.7 1.2.9 0 .9-2.4 0-.2 1.4 4.2 2.7l4.2 1.1-3.5.1c-1.9.1-4.1.5-4.8.9-1.5 1 3 2.5 14 4.6 11.4 2.2 16.6 5.3 23.8 14.1 7.3 9 9.9 11 21 16.5 12.1 6 17 9.6 17 12.3 0 1.3-.4 2.7-.9 3.2-.5.6-1.2 2.5-1.6 4.2-.8 3.9-.5 4.1 13.9 7.8 19.8 5.2 34.1 10.3 64 22.9 11.8 5 13.1 5.6 25.1 11.2 5.3 2.4 11.2 4.2 17.5 5.2 5.2.9 9.7 1.7 9.9 1.9.2.1-.6 2.4-1.7 5.1-1.2 2.7-2.4 6.8-2.8 9-.4 2.5-2.2 6.2-4.4 9.2-2.1 2.8-4.3 7-4.9 9.4-.6 2.3-2 5.4-3.1 6.8-2.9 3.7-2.6 7.9.8 11 3.6 3.5 16.5 11.6 20.3 13 2.5.9 2.9 1.4 2.5 3.7-1.9 10.5-1.8 12.1.9 14.3 2.6 2 2.7 2.3 2 9.7l-.7 7.6 4.9 2.6c7.8 4.2 15.7 6 31.2 7 8 .5 16 1.2 17.6 1.7 2.9.8 3 1 3.6 8.6.7 8.6 2.5 11.6 6.8 11.6 2.9 0 27.8 3.6 31.7 4.6l2.4.6V234.3l-16.4-3.2c-9-1.7-17.1-3.1-17.9-3.1-1.6 0-2.7-2.9-2.7-7v-2.6l8.3.7c4.5.4 12.8 1 18.5 1.3l10.2.7v-72.9l-4.7-1.6c-6.9-2.4-15.6-3.1-19.2-1.6-1.7.6-3.7 2.3-4.7 3.7l-1.6 2.6-11.7-.7c-27.5-1.7-48.4-3.7-52.4-5.2-2.3-.9-19.3-6.6-37.7-12.9-31.9-10.7-69.3-24.5-75.8-27.9-2-1-3.3-1.2-3.7-.6s-1 .8-1.5.5-1.5.4-2.4 1.6l-1.5 2.2-4.3-3.4c-2.4-1.8-7.7-6.3-11.8-9.9-11.8-10.3-19-16.3-25.2-20.9-3.1-2.3-6.4-5.3-7.2-6.6-.9-1.4-3.1-3.2-4.9-4.1-1.7-.9-6.6-4.2-10.7-7.3-10.7-8.1-20.1-13.9-25.9-16.2-6.2-2.3-8.4-2.4-10.1-.4m17.7 65.1c-.3.3-1.2.4-1.9.1-.8-.3-.5-.6.6-.6 1.1-.1 1.7.2 1.3.5"/></svg>