<svg xmlns="http://www.w3.org/2000/svg" width="682.667" height="512" version="1.0" viewBox="0 0 512 384"><path d="M123.5 1.1c-1.2 1.9 2.5 4.6 10.3 7.4 9.5 3.4 31.9 15.1 30.9 16.1-.2.2-4.6-.5-9.8-1.7-10.7-2.3-19.4-1.9-23.1 1.1-1.9 1.5-2 2-.9 3.3 1.5 1.9 10.1 4.8 22.5 7.7 4.8 1.1 10.6 3.1 12.7 4.4l4 2.3-7.7.6c-7.8.7-14.9 3.1-17.2 6-2.2 2.6 1.5 3.7 17.1 4.8 19.2 1.3 23.7 2.8 29.6 9.9 9.4 11.2 12.7 13.8 26.4 20.4 7.2 3.5 14.7 7.7 16.5 9.3 3 2.6 3.2 3 2.2 6.3-1.6 5.5-1.3 9.8.8 10.4.9.2 6.2 1.4 11.7 2.6 22.5 4.7 58.2 14.8 80 22.7 3.9 1.3 8.5 2.9 10.3 3.5 1.9.5 8.6 3 15 5.4 7.1 2.8 14 4.7 17.8 5.1 3.4.3 6.7.8 7.2 1.2.6.4.4 3.2-.8 7.7-1.9 7.9-2.1 8.3-6.1 13.4-1.6 1.9-3.2 5.5-3.8 7.9-.5 2.4-1.8 5.6-2.8 7-3.9 5.6-4.7 7.9-3.4 10.3 4.2 7.9 5.2 8.8 16.8 14.3 16.2 7.7 17.6 8 40.8 8 29.2.1 26.5-.5 26.5 5.5 0 6.1 1.8 15 3.5 16.6.6.7 6.7 1.9 13.4 2.8 10 1.3 28.4 4.3 45.4 7.3l2.7.5v-43.1c0-23.7-.2-43.1-.5-43.1-2.3 0-27.2-5.4-27.9-6-.5-.5-.1-.7 1-.5 1 .2 7.6.6 14.7.9l12.7.6V91h-4c-2.2 0-10.2-1.1-17.6-2.5-16.5-3.1-23.7-3.2-28-.6-2.9 1.7-6.1 2-34 2.6-20.7.5-32.2.4-34.9-.4-28.1-7.4-81.8-24.1-106.5-33C270.2 51 256.1 46 255.5 46c-.5 0-1.8 1.4-2.7 3-.9 1.7-2.3 3-3.1 3-1.8 0-7.8-4.3-18.7-13.4-8.9-7.5-17.8-14.4-30.9-24-4.5-3.2-8.6-6.6-9.3-7.4s-3.1-2.8-5.2-4.4c-3.8-2.7-4.3-2.8-16-2.7-11.7 0-12 .1-9.6 1.7 3.5 2.4 6.3 5.3 5.7 5.9-.3.2-2.7-.5-5.4-1.7-11-5-15.3-6-25.9-6-6.2 0-10.5.4-10.9 1.1m343.3 159.4c1.7 3.7 1.5 5.8-.4 5.1-.9-.3-1.8-.6-2-.6s-.4-1.6-.4-3.5c0-4.1 1.2-4.5 2.8-1m39.6-157c1.5 1.9 2.4 4 2.1 4.5-.3.6-.4 1-.1 1 .2 0 1.1.3 2 .6 1.3.5 1.6-.2 1.6-4.5V0h-8.2z"/></svg>