<svg xmlns="http://www.w3.org/2000/svg" width="682.667" height="512" version="1.0" viewBox="0 0 512 384"><path d="m117.6 2.5-3 2.8 2.6 2.2c1.4 1.2 5.8 3.2 9.9 4.5 8 2.6 29.5 12.8 28.6 13.6-.3.3-4-.2-8.3-1.1-10.7-2.2-17.9-1.3-21.7 2.8-2.6 2.8-2.6 3.1-1.2 4.7 1.8 2 12.9 5.2 24.1 7 6.1 1 14.4 4.4 13.3 5.5-.2.2-2.9.4-5.9.6-7.3.3-15.3 4.2-16.7 8-1 2.7-.9 2.9 2.4 4 2.4.8 7.5.9 15.7.5 10.5-.6 13-.4 19.1 1.3 6.4 1.9 7.5 2.6 12.5 8.3 9.5 10.9 11.9 12.8 25.4 19.3 15.6 7.6 18.4 10 17 14.7-.5 1.8-.9 5.3-.9 7.7v4.3l18 6.3c21.8 7.6 42.6 15.7 55.8 21.9 5.5 2.5 10.1 4.6 10.3 4.6.3 0 10.2 4.7 22.2 10.4 11.9 5.8 23.3 10.8 25.4 11.1l3.6.7-1.9 3.3c-1.4 2.4-1.9 4.8-1.7 8.1l.3 4.8 7.5 3.9c4.1 2 9.4 5.1 11.7 6.8 3.4 2.4 5.6 3.1 11.5 3.6 11 .9 26.3.9 35.9-.1 4.8-.5 11.2-.5 14.3-.2l5.6.7-.2 9.4c-.3 8.8-.2 9.4 2.3 11.9 2.2 2.2 4.3 2.9 12.5 4.1 20.2 3 38 6.1 43.4 7.5 1.9.6 3.8 1 4.3 1 .4 0 .7-32 .7-71.1V90.8l-3.2.6c-1.8.3-10.9-.1-20.3-1-22.8-2.2-30.2-1.4-36 3.6-1.5 1.3-8.7 2.6-31 5.4-33.4 4.2-35.9 4.3-41.7 1.6-2.4-1-9.9-4-16.8-6.5-12.5-4.6-16-6-19.2-7.6-1-.5-2.6-.9-3.6-.9s-2.2-.4-2.8-.9c-.5-.4-5.2-2.5-10.4-4.5-5.2-2.1-11.1-4.5-13-5.3-11-5-20.5-9.4-43.7-20.4-15.8-7.4-16-7.5-16.8-4.9-.3 1.1-1.1 2-1.7 2s-1.6.7-2.2 1.5c-1.9 2.5-2.7 2-36.3-23.7-6.8-5.1-15.8-11.8-20-14.8-7.2-5-9.8-7-16.4-12.5-2.1-1.8-4.1-2-16.4-2.3l-14-.2 5.1 3c2.8 1.6 5.9 3.9 7 5.1l1.9 2.1-4-1.7C142.6 2.5 137.2.8 129 .3s-8.6-.4-11.4 2.2"/></svg>