<svg xmlns="http://www.w3.org/2000/svg" width="682.667" height="512" version="1.0" viewBox="0 0 512 384"><path d="M497.5 1c.4.6 3.3 2.4 6.6 4.1 3.4 1.7 6.4 3.9 6.9 5.2.7 1.6.9.6.9-4.1L512 0h-7.6c-4.9 0-7.3.4-6.9 1m-400 1c.3.5-.1 1-.9 1-.9 0-1.6.5-1.6 1.1 0 .5-.4.8-.8.5-1.3-.8-7.2 3.2-7.2 4.8 0 2.8 4.2 6.4 12.5 10.6 4.7 2.4 8.8 4.7 9.1 5.2.3.4-2.7.8-6.6.8-6 0-7.1.3-6.6 1.5.4 1-.1 1.5-1.4 1.5-1.1 0-2 .4-2 .9s-1.1 1.2-2.4 1.5c-3.2.8-5.7 3.3-5 5 .7 1.9 4.5 3.4 13.8 5.6 4.4 1 11 3.2 14.6 4.9 6.1 2.8 6.3 3 3.1 3.1-6 0-11 2.2-16.1 6.9-5.4 4.9-6 6.5-3.2 8 2.1 1.1 12.9 2.8 24.2 3.7 4.7.3 9.3 1.1 10.4 1.6 1.6.9 1.1 1.4-3.8 3.5-3.1 1.4-5.6 3.1-5.6 3.6 0 .6-1.8 2.8-4 4.8-4.2 4-5.1 6.6-2.4 7.6.9.3 7.3-.4 14.3-1.6 15.3-2.6 17.8-2.6 26.3-.3 5.3 1.5 7.2 2.6 9.9 5.8 8.9 10.6 15.4 16 21.9 18.4 9.5 3.4 17.8 7.6 21.5 10.8 2.7 2.4 3 3.2 2.3 5.3-.5 1.3-.7 3.4-.5 4.7.2 1.2 0 2.5-.4 2.8-.5.3-.9 2-.9 3.9v3.3l18.8 6.2c31.9 10.6 56.5 20.7 98.9 40.6 16.2 7.6 21.4 9.6 26 10 9.3.8 10.6 1.2 9.8 3.2-.4.9-1.1 4.5-1.6 8s-1.7 8-2.8 10c-3 6.1-3.3 8.7-1.1 11.5s20.8 11.1 34.5 15.4l9 2.8H432c22.1 0 31.1.3 32.6 1.2 1.2.7 2.5.9 2.9.5s.5 1.1.2 3.3c-2.5 17.5-1.9 20.1 4.5 20.9 7.6 1 33.2 4.7 36.6 5.3l3.2.5V106l-12.2.5c-6.8.3-19.9.7-29.3 1-9.3.2-18.6.9-20.5 1.5-1.9.5-5 2.8-7 5-3.4 3.9-3.8 4-18 7-13 2.7-23.1 5-42.9 9.6l-6.4 1.5-10.1-4.2c-5.6-2.3-15.5-6.4-22.1-9.1s-13.6-5.7-15.5-6.5c-1.9-.9-7.3-3.1-12-5s-23.5-10.8-41.8-19.8L241 71l-3.7 3.5c-2.1 1.9-4.1 3.5-4.5 3.5-2.8 0-13.6-6.8-40.3-25.4-2.7-2-5.7-4-6.5-4.5-.8-.6-3.7-2.6-6.5-4.6-2.7-1.9-6.8-4.4-9-5.6s-6.6-3.9-9.8-6c-3.2-2.2-6-3.9-6.1-3.9-.2 0-4.1-2.5-8.7-5.6-9.3-6.2-29.5-16.7-37.8-19.5C102.2.8 96.5.4 97.5 2"/></svg>