<svg xmlns="http://www.w3.org/2000/svg" width="682.667" height="512" version="1.0" viewBox="0 0 512 384"><path d="M477 .8c0 1.4 8.3 8.9 11.8 10.6 3.2 1.7 4.2 4.1 2 4.8-.9.3-.9 1.3.2 3.9 1.9 4.9 2.8 5.8 9 8.9 5.3 2.7 5.6 3.1 7.4 8.9 1 3.3 2.4 6.5 3.2 7.2 1.2 1 1.4-2.2 1.4-22V0h-17.5c-9.6 0-17.5.4-17.5.8M63.4 45.5c.4 1-.1 1.5-1.4 1.5-1.1 0-2 .4-2 1 0 .5-.6 1-1.4 1s-2.7 1-4.2 2.3c-5.2 4.5-2 7.8 13.6 14.3l9.5 3.9-6.3.3c-4.8.2-6.5.7-6.9 2-.8 2-2.8 4.2-3.9 4.2-1.5 0-7.4 4.5-7.4 5.7 0 2.2 5.2 4 15.5 5.6 9.6 1.4 25.4 6.5 20.8 6.6-3.1.1-13.3 4.1-13 5.1.1.4-2 2.8-4.7 5.2-8.6 7.9-3.9 10.3 17.8 9.2 12.8-.6 18.6-.2 18.6 1.4-.1.4-2.1 2-4.6 3.6-2.5 1.5-5.6 4.5-7 6.5-1.3 2-3.3 4.8-4.5 6.3-2.4 2.9-2 5.8.9 5.8 1 0 7.8-2 15.2-4.5 14.3-4.8 16.8-5.1 26.5-3.4 6.1 1 6.5 1.3 13.1 8.7 9.2 10.1 12.8 12.5 24.2 16.3 9.6 3.1 17 6.5 20.5 9.3 1.7 1.3 1.7 2.1.8 8.8-.6 4-1.4 8.3-1.7 9.5-.8 2.9-.3 3.1 22.1 8.8 30.5 7.9 71.6 22.2 113 39.6l15 6.3 11-.1c16.8-.2 73.1-7 102-12.4 6.1-1.1 18.7-3.8 28-5.9 9.4-2.1 19.8-4.4 23.3-5.1l6.2-1.2v-79.9l-2.2.6c-3.7 1-21.1 2.6-41 3.6-27.1 1.4-35.3 3.9-37.7 11.3-1 2.9-1.8 3.4-7.8 5.1-3.8 1-12.2 3.4-18.8 5.3s-13.8 3.9-15.9 4.4c-2.2.6-8.4 2.3-13.9 3.9-9.4 2.8-10 2.9-13.5 1.4-2-.9-7.3-2.9-11.7-4.4-9.6-3.4-18.3-6.7-21-8-1.1-.6-4.5-1.8-7.5-2.9-10.2-3.4-33.4-13.1-44-18.2-5.8-2.8-12.3-5.8-14.5-6.7-2.2-.8-4.7-2-5.5-2.7s-3.3-1.9-5.5-2.8c-2.2-.8-9.3-4-15.8-7.1-12.6-6-14.4-6.5-15.3-4.1-.4.8-1.2 1.5-2 1.5s-1.9.9-2.6 2-2.1 2-3.1 2c-1.6 0-19.9-9.1-27.3-13.6-1.7-1-6.5-3.9-10.5-6.3-4.1-2.4-9-5.3-10.9-6.6-8.3-5.3-21.4-12.7-29.6-16.8-4.9-2.4-11.1-5.7-13.9-7.3-8.8-5.2-33.7-16.1-40.5-17.9-.8-.2-4.2-1.1-7.5-1.9-7.6-2-9.9-2.1-9.1-.1m312.2 231c-1.6.9-3.9 2.7-5.1 4-1.9 2.4-2.6 2.5-7.7 1.9-5.2-.6-5.9-.4-10.4 2.7-4.5 3-4.6 3.3-2.6 4.2 1.1.5 2.3 1.6 2.6 2.4.5 1.2-.3 1.7-6.1 3.8-2 .7-1.5 4 .7 6 2.6 2.3 2.6 3.5 0 2.8-1.4-.4-3.2.6-6 3.5-3.3 3.3-4 4.6-4 8 0 3.3.6 4.5 3.3 6.9 4.5 3.9 4.5 6.9.2 8.7-6.6 2.8-8.5 11-3.5 15.6 2.1 2 3.3 4.3 3.9 7.6 1 5.2.7 6.4-1.4 6.4s-5.5 4.9-5.5 7.9c0 1.4 1.2 5.4 2.7 8.8l2.8 6.2 86.3.1H512v-63.8l-3.5-.6c-2-.4-6.2-.9-9.3-1.1s-7.8-.7-10.4-1c-4.7-.7-4.8-.6-6.5 2.9-1.9 4.2-3.2 4.4-10.6 1.8-9-3.2-13-6.3-14.9-11.8-1-2.7-3.3-6.6-5-8.6-1.8-2-4-4.5-4.8-5.5-2.2-2.8-11.2-9.1-15.6-10.9C420.9 281 393.6 275 384 275c-3 0-6.8.7-8.4 1.5"/></svg>