<svg xmlns="http://www.w3.org/2000/svg" width="682.667" height="512" version="1.0" viewBox="0 0 512 384"><path d="M119.7 133c-10.2.8-13.3 2.7-12.2 7.3.9 3.6 4.8 5.3 17.4 7.8 5.8 1.1 14.2 2.8 18.6 3.9 4.4 1 9.6 2.1 11.5 2.5 5.6 1.2 1.3 2.1-13.5 2.9-17 1-28 4.1-32.8 9.3-3.6 4.1-1.6 5 12.7 5.7 7.3.3 14.1.4 14.9 0 2.9-1.1 30.5 3.1 29.2 4.5-.5.4-7.9 2.6-17.1 5-5.2 1.4-11.9 5.1-16.1 9-4.2 3.8-6.9 7.9-5.9 8.9.4.3 3.4 0 6.9-.6 5.9-1.1 6.3-1.1 7.9 1s1.9 2.2 7 1c2.9-.6 9-2.3 13.5-3.6 4.6-1.4 10.6-2.8 13.5-3.1 6.1-.7 5.9-.5-4.6 5.9-5.1 3.2-7.1 5.1-10 10.1-4.8 8.2-4.8 10.5-.1 6.9 3-2.3 14.3-9.4 15-9.4.1 0-.8 2.1-2.1 4.7-1.3 2.5-2.4 6.1-2.4 8 0 5.3 3.4 4.4 12.6-3.3 18.6-15.6 22.5-16.6 33.2-8.1 12.4 9.9 19.1 13.2 30.1 14.7 24.5 3.3 32.6 5.5 34.9 9.3 1.4 2.2 1.4 3 .3 5.1-1 1.7-1.2 4.1-.7 7.6 1.1 8.4.1 8 14.9 7.2 16.8-.9 50.7-.9 66.2 0 16.4.9 54.1 5.9 89 11.8 11.9 2 22.4 3 35 3.5 9.9.3 19.7.9 21.8 1.2l3.7.6v-82l-16.7-.6c-9.3-.3-20.2-1.2-24.3-2-8.2-1.7-28.1-3.1-66.5-4.8-41.2-1.8-38.6-1.5-75.8-6.6-16.8-2.3-20.4-2.5-23-1.4-4.7 1.8-19.3 2-25.2.3-2.7-.8-15.7-5.4-28.9-10.3-13.1-4.9-28.5-10.3-34.1-11.9-5.5-1.6-16.4-5-24.1-7.5-7.6-2.5-21.7-6.1-31.2-8-17.9-3.6-23.9-4-42.5-2.5"/></svg>