<svg xmlns="http://www.w3.org/2000/svg" width="682.667" height="512" version="1.0" viewBox="0 0 512 384"><path d="M169.2 112c-3.9.9-7.2 3.7-7.2 6 0 2 4.3 6.6 8.1 8.5 2.6 1.4 12.6 3.3 30.9 6.1 11.2 1.7 20 4.1 20 5.4 0 .6-2.6 1-5.7 1-3.2 0-12.1.7-19.8 1.4-14.9 1.4-23 3.9-30.7 9.5-6.7 4.8-7.1 7.9-1.4 9.9 4.3 1.6 8.8 1.5 16.1-.3 6.3-1.5 37.7-2 42.5-.6 2.4.7 2.4.7-.8 1.4-1.8.4-9 3-16 5.9-11.3 4.6-13.3 5.8-18.4 11-6.6 6.6-8.1 10.4-5.2 12.5 3.9 2.9 6.2 2.5 22.6-4 11.6-4.5 18.2-6.6 22.8-7l6.5-.6-4 3.2c-9.8 8-12.2 11.1-14.5 18.5-2.5 8.3-2.1 11.4 1.6 13 2.4 1.2 2.9.8 10.2-6.7 15-15.4 14.5-15.1 32.2-19.1l5.6-1.2 14.6 7.2 14.6 7.2 11.9 1c26.1 2.1 24.3 1.8 25.3 4.2.5 1.3 1.6 2.6 2.4 2.9 2.2.9 2 2.4-.4 3-3.6.9-2 10 2.6 14.8 2.9 3 2.8 3 21.4 4.9 17 1.8 48 7.3 59.5 10.5 2.8.8 13.6 3.7 24 6.5 20.4 5.5 29.8 8.2 47 13.8 6.1 1.9 14 3.8 17.8 4.1l6.7.7-.2-41.1-.3-41-8.5-2.2c-4.7-1.1-22.9-5.6-40.5-9.8-34-8.2-55.2-14-83.5-22.7-9.6-3-17.8-5.1-18.1-4.6s-1.8.6-3.3.2c-2-.5-3.7 0-6.6 2-2.2 1.4-4.5 2.6-5.2 2.6s-11.1-2.9-23.1-6.4c-12-3.6-30.7-8.5-41.5-11.1-10.8-2.5-23.7-5.9-28.7-7.5-4.9-1.5-11.2-3.1-14-3.5-2.7-.3-8.6-1.5-13-2.7-13.3-3.3-40.6-7.8-47-7.7-3.3.1-7.5.5-9.3.9"/></svg>