<svg xmlns="http://www.w3.org/2000/svg" width="682.667" height="512" version="1.0" viewBox="0 0 512 384"><path d="M151.7 107c-4.2 1.3-5.7 2.9-5.7 6.1 0 2.2.8 3.4 3.1 4.8 3.2 2 17.2 4.9 36.4 7.6 11.1 1.5 26.1 6.7 24.9 8.6-.3.5-2.9.9-5.7.9-2.9 0-12.9.9-22.3 1.9-15.7 1.8-17.8 2.2-24.7 5.6-7.4 3.6-13.7 8.6-13.7 10.9 0 4 6.8 4.6 20.1 1.9 6-1.2 13.7-1.7 26.9-1.7 28.7-.1 33.2.7 19 3.3-3.6.7-12.2 3.7-19.2 6.8-11.1 4.8-13.4 6.2-18.2 11.3-5.5 5.7-7.4 9.6-6.2 12.6.9 2.3 9 1 17.4-2.8 3.7-1.6 8.1-3.5 9.7-4.3 11.5-5.1 15.7-6.4 23.3-7 4.5-.4 8.2-.5 8.2-.2s-2.4 1.9-5.2 3.5c-6.3 3.6-14 10.7-16 14.8-2.3 4.3-4.1 13.1-3.4 15.9.7 2.7 2.7 3.2 6.9 1.6 1.3-.5 4.8-3.9 7.7-7.6 8.5-10.7 14.2-14.7 25.2-17.8l9.5-2.7 6.9 3.1c3.8 1.7 8.8 4 11.1 5 6.6 3 16.1 4.9 25.3 5 4.7.1 11.9.4 16 .8 7.4.6 7.5.6 8 3.6.4 2.1 1.1 3.1 2.8 3.3 3 .5 2.8 2-.4 2.8-2.5.6-2.6.9-2.2 6.1.3 3 1.1 6 1.9 6.8.9.9 8.6 2.4 20.4 4 40.1 5.4 68.3 12.1 122.5 29 26.3 8.2 27 8.4 39.8 8.5H512l-.2-38.8-.3-38.7-33.5-8.2c-44.8-11.1-72.2-18.3-91.5-24.2-8.8-2.6-21.6-6.6-28.4-8.6-8.7-2.7-12.6-3.5-12.9-2.7-.2.7-1.3 1-2.6.6-1.4-.3-3.5.4-6 2.1l-3.8 2.6-21.1-6c-21.2-6-35.8-9.5-51.7-12.6-4.7-.9-13.2-3.4-19-5.7-9.2-3.6-11.9-4.2-21.7-4.9-6.1-.4-11.6-1-12.1-1.3-.6-.3-9-2-18.7-3.6-17.6-3-31.1-3.7-36.8-2"/></svg>