<svg xmlns="http://www.w3.org/2000/svg" width="682.667" height="512" version="1.0" viewBox="0 0 512 384"><path d="M231.6 281.9c-.3.5 1.8 2.4 4.6 4.2l5.2 3.4-2.9.5c-3 .6-3 .6 2.5 3.8 3 1.7 4.7 3.2 3.8 3.2-2.5 0-4.8 2.8-4.8 5.7 0 1.8 1.4 4 4.4 6.8l4.3 4.2-10.9-2.9c-6.1-1.5-12.1-2.8-13.3-2.8-5.4 0-2.9 1.9 6.5 5 5.5 1.8 10 3.4 10 3.6s-3.5.1-7.7-.3c-4.3-.3-7.5-.3-7.2.1.3.3 3.7 1.7 7.5 3.1 3.8 1.3 6.2 2.4 5.4 2.5-4.7.1-18.8 2.1-21.6 3-7.8 2.6-4.3 8.9 5.9 10.5 7.6 1.3 9.6 1.8 17 4.2 6.8 2.4 9.8 4.3 6.5 4.3-1.6 0-14 6.1-15.6 7.7-.7.7-1.1 1.7-.8 2.2s-1.3 2.1-3.7 3.6c-9.4 6.1-10.9 9.3-5.6 12 2.5 1.3 4 1.4 8.2.6 2.9-.6 10.6-1.3 17.2-1.6 10.8-.6 12.4-.4 16 1.3 3.5 1.8 3.8 2.1 2 2.8-8.9 3.1-18.5 8.6-18.5 10.6 0 .4 41.3.8 91.8.8 104.7-.1 97.1 1 62.7-9-9.9-2.8-19.3-5.6-20.9-6.1-4-1.2-5.9-1.1-8.1.5-1.8 1.3-1.8 1.5-.2 3 .9 1 1.7 2.2 1.7 2.8 0 1.1-5.5-2.8-13.1-9.4-3-2.6-6.7-5.8-8.4-7.3-3.2-2.7-15.8-12.6-29.5-23-4.7-3.6-10.7-8.4-13.5-10.6-2.7-2.2-6.4-4.6-8.2-5.4-1.7-.7-8.5-5.4-15.1-10.3-17.4-13.2-33.7-23-43.6-26.3-6.5-2.1-9.2-2.4-10-1"/></svg>