<svg xmlns="http://www.w3.org/2000/svg" width="682.667" height="512" version="1.0" viewBox="0 0 512 384"><path d="M281.6 347.5c-1.8 1.4-1.8 1.5.5 3.4 1.3 1.1 3.2 2.3 4.2 2.7q1.8.6 1.2 2.4c-.5 1.4.3 2.5 2.9 4.2 4.3 2.8 4.6 4.1.9 3.2l-2.8-.6 2.3 1.6c1.2 1 2.2 2.5 2.2 3.4 0 1 1.7 3.5 3.8 5.6 3.4 3.6 3.5 3.8 1.2 3.2-2.7-.8-6.6-2.2-15-5.6-3.5-1.4-8.4-2.4-13.5-2.6l-8-.4 5.8 2.9c3.2 1.6 6.6 3.2 7.5 3.4.9.3-.2.5-2.6.6-3.6.1-4.1.3-3 1.4.7.7 3.1 2 5.3 3l4 1.6-5.5.1c-3 0-6.8.7-8.5 1.5-2.6 1.2 2.2 1.3 36.5 1.4h39.5l-5.5-5.1c-13-12.1-31.1-25.1-41.5-29.8-7.5-3.4-9.2-3.6-11.9-1.5"/></svg>