<svg xmlns="http://www.w3.org/2000/svg" width="682.667" height="512" version="1.0" viewBox="0 0 512 384"><path d="M0 192v192h512v-40.8l-4.2-3.7c-2.4-2-6.8-5.3-9.9-7.4-6.2-4.1-13.3-5.8-42.4-10.1-29.4-4.3-41.2-7.2-52.2-12.8-4.1-2.2-4.2-2.2-5.6-.2-1 1.4-2.4 1.9-5.6 1.7-2.8-.1-4.5.4-5.1 1.3-.7 1.2-3.2 1.5-11.6 1.4-10.4-.2-10.6-.2-10 2 4.6 15.9 4.6 22.4.1 26.4-5.8 5-12.5.5-17.6-11.7-1.7-4.1-3.9-8.6-4.7-10-1.6-2.3-1.6-2.3-3.4 4.8-1.8 7.4-4.9 13.1-7.2 13.1-3.6 0-7.6-8.6-7.6-16.3 0-3-.3-6.9-.6-8.6-.6-2.7-1-3.1-4.1-3.1-1.8 0-4.4-.7-5.6-1.5-2-1.3-4-1.3-17.3 0-35 3.6-39.7 3.2-42.7-3-2-4.2-2.1-8.1-.4-11.5 1.2-2.3 1-2.7-1.8-4.6-1.9-1.3-3.4-1.8-4.2-1.2-.7.5-1.4.5-1.8-.2-.5-.8-1.1-.8-2.1.1-1 .8-1.8.8-2.7 0-1-.8-1.7-.7-2.5.1s-1.5.8-2.6-.1c-.9-.8-10-1.7-25.8-2.6-13.4-.8-28.6-1.7-33.9-2-8-.5-9.8-.4-10.9 1-1.9 2.3-.7 3.1 11.1 7.1 11.2 3.8 13.2 5 10.6 6-.9.3-1.7 1.7-1.7 3 0 2.6-2.7 6.4-4.6 6.4-.7 0-2.5-.6-4.1-1.4-14-7.1-24.7-11-46.3-17-26.5-7.4-25.4-7.3-29.4-3.8-1.9 1.7-3.2 3.3-2.8 3.7s-1 .4-3.2 0c-2.7-.6-4.1-.4-4.6.6-2.2 3.5-10-5.4-8.4-9.5.8-2.1-2.5-3.4-10.2-4.1-12-1.1-21.4-2.6-24.8-4-3.3-1.4-5.9-4.8-8.5-11.3-1.3-3.1-1.2-3.5 1.5-6.4l2.9-3 10.5.6c13.1.7 39.8 3.3 42.5 4.1 3.8 1 71.1 7.4 102.8 9.6l31.8 2.3 7.8-8.3c4.6-4.8 9.9-11.8 12.7-16.7 2.7-4.7 7-11.8 9.6-15.7 2.7-4 4.8-7.7 4.8-8.3s-1.4-1.4-3-1.8c-3.9-.7-4.5-2.5-6-16.1-.6-6.1-1.7-13.7-2.3-17l-1.2-5.9-6-1.1c-10-1.8-14.4-5.6-15.2-12.9-.5-4.2-.3-4.8 2.8-7.7 2.2-2 3.3-3.9 3.1-5.3-.2-2-.2-2 .9-.3 1 1.8 1.2 1.8 3.3-.2 1.2-1.1 3.6-2.3 5.3-2.7 2.4-.5 3.7 0 6.5 2.5 4.6 4 6.2 8 5.5 13.7-.4 3.7-.1 5 1.9 7.3 1.3 1.6 2.8 4 3.4 5.5l1 2.6 3.3-3.7c3.8-4.2 6.7-9.3 6.7-11.7 0-.9-.9-3-2-4.8-1.3-2.2-1.6-3.6-.9-4.4 1.5-1.8-.5-2.6-3.6-1.4-4 1.5-7.3 1.2-7.9-.8-.3-.9-2.7-3.9-5.2-6.5-4.3-4.6-4.5-4.9-2.9-6.7 1.9-2.1.9-3.1-3.6-3.6-4.5-.6-5.2-.8-7.3-3-1.2-1.2-4.2-2.9-6.8-3.8-2.5-.9-4.8-2.3-5.1-3s-3.1-2.3-6.4-3.6c-7.6-3.1-12-6-13.2-8.8-.6-1.2-1.9-2.2-3-2.2-2.4 0-7.1-4.8-6.4-6.5.2-.7 0-1.6-.6-2-1.7-1-1.3-3.5.5-3.5 1.4 0 1.4-.3.4-1.5-1.9-2.3-1.1-2.5 6-1 9.4 2.1 9.5 2 3.5-3.8-5.9-5.7-7-9.1-3.7-12 2.5-2.2 3.8-2.1 5.6.4 1.4 2.1 1.6 2.1 5.6.5 5-2 13.9-2.1 18.5-.2 1.9.8 3.5 1.8 3.5 2.2 0 .3-1.2 2.8-2.6 5.4-2.9 5.4-2.9 8.6.1 8.2 1.1-.1 5.2-.6 9.2-1s7.4-1 7.5-1.2c8.4-11.7 14.1-16.8 22-19.6 5.9-2.1 22.6-2 30.7.1 7 1.8 8.7 2.8 22.3 13.1 5.1 3.9 12.9 9.3 17.2 12 4.4 2.7 8.1 5.4 8.3 6 .5 1.5-7.5 2.7-12.4 1.8-3.5-.6-5.9-1.7-17.5-7.7-4.2-2.1-10.7-3.2-12.4-2-.7.5-1.3 4.6-1.5 9.8l-.4 9 15 5c15.6 5.2 21 8.2 28 15.5 3.6 3.7 3.8 4.3 2.4 5.3-.9.7-1.9 2.1-2.1 3.2s-1 1.9-1.7 1.7c-.7-.1-1.1.3-.9 1s5.1 3.2 10.9 5.5c5.7 2.4 10.9 4.5 11.4 4.8.6.2-2.1.2-6-.1l-7-.5 3.5 2c1.9 1.1 6.7 2.5 10.5 3.2 6.2 1.2 6.6 1.4 3.6 1.8l-3.4.6 5.2 3.4c5.5 3.5 6.2 4.8 1.7 3.1-4.2-1.6-4.8-1.2-2.9 1.7l1.8 2.6-3-1.9-3-1.9 3.3 4.4c1.7 2.5 3.2 4.8 3.2 5.3 0 .9-4.3.4-8.5-1-1.6-.6-4.3-1.3-6-1.7l-3-.6 4 3.6 4 3.6-4.2-2.1c-4.7-2.2-5.7-2.5-4.8-1s0 1.2-3.7-.9c-1.8-1-4.8-2.2-6.6-2.6l-3.3-.7 2.6 2.8c4.9 5.3 3.2 5.6-6.7 1.4-3.9-1.7-7.3-2.8-7.5-2.6s2.4 2.1 5.9 4.1 5.2 3.3 3.8 2.9-3.8-.8-5.5-1c-1.6-.1-4.3-.7-5.8-1.3-3.5-1.4-4-1.4-3.1 0 .8 1.3-2.5.4-6.9-1.8-3.7-1.8-4.3-1.2-2.4 2.4.9 1.5 3 6.6 4.7 11.3 4.3 11.5 6.9 13.1 9 5.5 1.5-5.3 6.8-10.5 10.6-10.5 1.4 0 5-.7 8-1.6 2.9-.8 7.2-1.4 9.6-1.2 6.1.4 6.9 2.7 7.6 20.3.5 13.6.6 14.4 2.6 14.9 4 .9 33.2 4.5 44.6 5.5 9.1.7 11.7 1.3 12.7 2.7.7 1 1.2 2.3.9 2.9-.2.5.8 2.5 2.2 4.4l2.5 3.4-3.9-.6c-9.3-1.5-36.8-4.6-37.1-4.3-.2.2 2.7 2 6.4 3.9 3.7 2 8.5 4.7 10.5 5.9l3.7 2.1 23.8-4.4c23.7-4.4 23.9-4.4 46.6-4.4H512V0H0z"/><path d="M280 219.2c-3 10.7-5.1 14.8-11.4 22.8-8.6 10.7-11.8 16-12.3 20.1-.5 3.1-.2 3.9 1 3.9 3.3 0 7.4-2.3 18.2-10.5 12-9 16.4-13.3 19.5-19.5l2-3.9-3.6-6.3c-3.7-6.5-9.5-14.7-10.5-14.8-.3 0-1.6 3.7-2.9 8.2m90 20.8c-1.7 2.4-3.8 2.5-6.4.5-1.1-.8-2.4-1.5-3-1.5-4.1 0 14.8 9.9 22.4 11.8 2.5.6 7.6 1.3 11.5 1.6l7 .4-2.5-2c-3.1-2.6-18.4-9.8-20.8-9.8-.9 0-2.6-.7-3.6-1.5-2.5-1.9-2.9-1.9-4.6.5m132 91.4c0 .2 2.3 2.3 5 4.6 4.9 4.1 5 4.1 5 1.7 0-1.4-.6-2.7-1.2-3-.7-.3-3-1.2-5-2.1-2.1-.9-3.8-1.4-3.8-1.2"/></svg>