<svg xmlns="http://www.w3.org/2000/svg" width="682.667" height="512" version="1.0" viewBox="0 0 512 384"><path d="M365.7 265c-1.6.5-3.5 1.4-4.4 2.1-1.3 1.2-1.3 1.4.1 2.5 1.4 1 1.4 1.3-.4 2.9-2.6 2.4-2.6 5.5 0 5.5 1.7 0 1.8.3.8 2.5-1.9 4.2.4 5.4 4.4 2.3 1.8-1.3 4.8-3 6.5-3.7 3.4-1.4 6.9-.8 5.8.9-.4.6.5.8 2.2.4 2-.4 3.5.1 5.3 1.8 9 8.3 15.2 12.5 22.4 15.2 5 1.8 14.7 7.8 15.2 9.2.2.8.7 2.2 1.1 3.1.3 1 .5 2.6.4 3.5-.3 2.3 3.4 4.4 9.1 5.3 3.3.4 5.1 1.3 5.8 2.6.6 1 1.7 1.9 2.5 1.9.7 0 2.4 1 3.7 2.1 1.5 1.3 6.8 3.3 13.4 4.9 15.5 4 21.5 5.7 24.9 7 1.7.7 5 1.8 7.5 2.5 2.5.8 7.8 2.5 11.8 3.9 4.1 1.4 7.6 2.6 7.8 2.6s.3-11.1.2-24.7l-.3-24.7-5.5-1.3c-3-.7-12.5-2.8-21-4.8-8.5-1.9-22.8-5.6-31.7-8.1l-16.2-4.6-4.4 2.1-4.5 2.2-8.3-5c-4.6-2.8-12.4-6.4-17.3-8.1-11.9-4.2-29.8-6.1-36.9-4"/></svg>