<svg xmlns="http://www.w3.org/2000/svg" width="682.667" height="512" version="1.0" viewBox="0 0 512 384"><path d="M406 2.1c-3 1-11.9 5.1-19.7 9-11.2 5.6-15.8 8.5-21.2 13.6-17.1 15.7-24.9 31.9-21.9 45.7 1.4 6.5 3.8 11.3 7.7 15 1.7 1.7 3.1 3.7 3.1 4.6s-2.9 5.9-6.4 11.2c-7.5 11.2-9.8 15.3-8.9 16.2 1.1 1.1 11.6.6 17.4-.8l5.7-1.4 2.2 8.2c3.7 13.4 3.8 13.8 4 8.6.1-2.5.4-3.9.7-3.2.2.6.8 1 1.3.7s2.2 1.1 3.8 3.1c2 2.4 3.6 3.5 4.6 3.1.8-.3 1.8-.2 2.1.3.9 1.5 9.5 5 12.1 5 1.3 0 2.8.9 3.5 2.1.7 1.3 1.7 1.9 2.9 1.6 1.1-.3 2.6.3 3.6 1.4 1.7 1.9 5.4 2.1 6.6.4.4-.6.8 0 .8 1.3 0 1.2.7 2.5 1.5 2.8 1 .4-2.2 4.5-11.4 14.4-7.1 7.6-14.1 15-15.7 16.4-4.6 4.1-70.9 36-81.7 39.3-1.4.4-1.6 1.2-1.1 3.9.8 4.1.5 4.3-16.8 7.9-15.1 3.1-30.5 9.2-40 15.6-7.4 5-15.7 14.1-15.8 17.1 0 2.3 2.8 2.3 5.9.1 2.4-1.6 2.4-1.6 1.7 1.3-1.8 6.9 0 8.5 4.4 3.9 3.2-3.4 3.9-3.2 4.6 1.5.4 2.2 1 4 1.4 4 1.2 0 2.8-2.3 3.5-5.3.4-1.5 1.1-2.7 1.7-2.7.5 0 .6.4.3 1-1.1 1.8.4 1.1 2.5-1.2 1.4-1.5 2-1.7 2-.8 0 .8 1.2-.2 2.6-2.2 4.2-5.9 10-7.8 24.1-7.8 9.7 0 13.2-.5 19.8-2.5 9.8-3.1 10.2-3.1 12.5-.2 1.7 2 2.1 2.1 5.1 1 2.3-.9 4.3-1 7.3-.2 3.8.9 4.8.7 12.6-2.9 4.7-2.2 10.5-4.9 13-6 7.7-3.5 21.9-8.8 38-14.3 13.9-4.7 16.3-5.9 23.4-11.3 4.3-3.4 12-9.1 17-12.9 5-3.7 9.8-7.3 10.6-8 .8-.6 4.7-3.6 8.5-6.6 3.9-3 7.9-6.4 9-7.5 3.4-3.5 18.2-16.7 21.3-18.9 1.6-1.2 4.2-3.1 5.7-4.2s3.9-2.9 5.4-4c7.5-5.9 7.5-5.9 13.1-1.9 2.8 2 5.3 3.4 5.5 3.2.3-.3.4-31.5.3-69.4l-.3-68.9-9.9 9.7c-9.5 9.3-12.6 11-12.6 6.8 0-5.4-11.7-21-15.8-21-1 0-3.4-1.1-5.4-2.5s-4.1-2.5-4.7-2.5c-.5 0-4.2-2.2-8.3-4.9-4-2.7-9.1-5.4-11.3-6s-10.3-1.1-18-1c-11.1 0-15.1.4-19.5 2"/></svg>