<svg xmlns="http://www.w3.org/2000/svg" width="682.667" height="512" version="1.0" viewBox="0 0 512 384"><path d="M226.5 3.5c-6.4 8.4-12.5 26.9-12.5 37.7 0 11 5.5 22 13 25.8 6.2 3.2 6.3 3.8 1.4 18.2-2.4 7.2-4.4 13.6-4.4 14.4 0 2.3 4.8 2.7 11.1 1 3.2-1 6.4-1.4 6.9-1.1s1.9.1 3.1-.5c2.6-1.5 4.9.4 8.7 7.2 1.5 2.6 3 4.8 3.4 4.8.3 0 0-2.1-.8-4.7-.8-2.5-1.2-4.8-1-5 .3-.3 4.3 2.5 11.5 8.1 1.2.9 1.3.8.6-.3-.6-1.1-.3-1.3 1.6-.6 3.2 1 25.9 1.3 25.9.3 0-.4.7-.8 1.5-.8s1.5.8 1.5 1.7c.1 4.1 1.6 4.8 5.9 2.9 2.5-1.2 4.9-1.6 6.6-1.2 2.3.6 2.6 1 2 3.6-.4 1.7-1.3 4.3-2 5.8s-3.6 8.3-6.3 15.2c-2.8 6.9-5.8 14.3-6.9 16.5-1.8 4.1-29.4 31.7-51.8 51.9-6.1 5.5-11.2 10.4-11.4 10.8-.1.5.5 1.8 1.5 2.9 1.8 2 1.8 2.1-.6 4-1.4 1-8.3 5.4-15.4 9.6-19.2 11.6-37.1 29.5-39.8 40-2.1 8.2-2.1 8.3-.4 8.9 1 .4 2.5-.1 3.6-1.1s2-1.4 2-.9.5.2 1-.6c.7-1.1 1-.7 1 1.8 0 3.8 2.6 5.5 4.5 2.9.7-1 1.7-1.7 2.4-1.7.6 0 1.1-.5 1.1-1.1 0-.7 1-.5 2.6.6 3.1 2 5.4 1.3 5.4-1.7 0-1.9.2-2 1.1-.8.8 1.2 1 1.2.8-.5-.4-3.4 3.6-10.8 7.8-14.6 2.7-2.5 6.5-4.4 12.7-6.3 7.9-2.6 16.8-7.8 18.8-11.1.4-.6 3-2.2 5.7-3.5 4.5-2 5.4-2.2 7.6-1 1.6.9 2.9 1 3.7.3.7-.5 2.7-.8 4.4-.6 1.9.1 3.7-.3 4.4-1.2.7-.8 1-1.5.7-1.5-.7 0 12.8-12.9 28.8-27.4 2.2-2 9.3-8 15.7-13.2s12.9-11.1 14.3-13.2c4.2-6 14.5-22.2 14.5-22.7 0-.3 1.8-3.2 4-6.4s4-6.2 4-6.5c0-.4 1.3-2.6 2.8-4.9 1.6-2.3 6.3-11.1 10.5-19.5 7.4-14.6 18-32.3 19.8-33 .5-.2.9-1.1.9-1.9 0-1.4.3-1.3 2 .2 2.2 1.9 32.2 15.2 47.5 21 32.7 12.3 45.1 12.4 69.3.9l7.2-3.5V0H229.2z"/></svg>