<svg xmlns="http://www.w3.org/2000/svg" width="682.667" height="512" version="1.0" viewBox="0 0 512 384"><path d="M185.7 6.4c-6.2 8.7-8.5 13.4-10.8 22.3-2.3 9.1-2.5 22.5-.5 30.1 2.1 7.7 7.1 14.2 13.4 17.3 2.9 1.4 5.7 3 6.3 3.6.8.8.3 4.8-1.6 14.2-1.5 7.2-2.5 13.7-2.1 14.6.8 2.3 4.5 1.8 12.6-1.5 4-1.7 8-3 8.8-3s4.1 2.7 7.4 6.1l5.9 6.1-2.5-5.5-2.4-5.4 5.7 3c3.8 2.1 7.1 3 10.4 3.1 2.6.1 4.7-.1 4.7-.4 0-.4 1.5-.4 3.4-.2 1.8.2 3.7-.1 4-.7.4-.6 1.7-1.1 3-1.1 1.2 0 3.7-1.1 5.6-2.5 3.8-2.8 4.6-2.6 5.5 1.6.9 4 2.5 4.4 6.8 1.9 2.7-1.6 4.4-2 7.1-1.4 2 .3 3.6.7 3.6.8s-2.2 10-5 21.9c-3.5 15.5-5.5 22.3-6.8 23.5-1 .9-3.8 4.2-6.3 7.2-7 8.9-23.5 27.5-35.7 40.3-10.4 11-11.2 12.1-9.8 13.6 2.5 2.8 2 3.7-4.5 8.8-17.3 13.6-21 16.8-27.9 24.7-9.6 11-15.1 19.9-15 24.6 0 1.9-.2 4.9-.6 6.6-.9 4.5.9 4.9 5 1.3 3.6-3.1 3.6-3.1 3.6-.8.1 6.2 4.1 6.2 7 .1.8-1.7 1.7-3.2 2-3.2s1.3 1.4 2.3 3.2c1.7 2.9 1.9 3 3.4 1.5 1.1-1.1 1.8-3.6 1.9-7.2.4-9.4 4.3-14 17.4-20.4 6.3-3.1 9.7-5.5 13-9.3 2.5-2.8 6.3-6.3 8.5-7.8 3.7-2.6 4.3-2.7 6.7-1.4 3.8 2 8.4.8 11-3 4.8-6.9 19.2-22.9 38.3-42.6 11.4-11.7 14.7-15.8 17.3-21.2 1.8-3.7 3.2-7 3.2-7.3s1.8-4.9 4.1-10.3c2.2-5.3 4.4-10.6 4.8-11.7.5-1.1 1.4-3.4 2.1-5 1.6-3.9 7.1-20.6 10.4-31.5 2.5-8.1 8.9-24.3 11.3-28.5 1.1-1.9 1.2-1.9 6 .3 2.6 1.2 7.3 2.8 10.3 3.6s8 2.1 11 3c9.8 2.8 40.9 7.6 49.2 7.6 8.4 0 18-1.9 23.7-4.8 3.1-1.5 17-10.6 22.7-14.7 1.2-.9 5-2 8.5-2.6 5.8-.9 15.8-3.7 21.7-6 1.3-.5 2-1.4 1.7-1.9-1.4-2.3 7.1 0 11.7 3.2 1.4 1 2.9 1.8 3.2 1.8s.6-14.6.6-32.5V0H190.4z"/></svg>