<svg xmlns="http://www.w3.org/2000/svg" width="682.667" height="512" version="1.0" viewBox="0 0 512 384"><path d="M174.6 4.8c-6.8 6.9-16.4 20.6-20.1 28.7-4.1 8.8-5.5 15.4-5.5 25.8 0 19.6 8.4 33.8 21.2 36.2 2.4.5 3.9 1.4 4.3 2.6.4 1.1.3 6.8 0 12.8-.4 5.9-.4 11.8-.1 12.9 1.1 3.4 4.7 2.7 12.2-2.3 3.6-2.5 6.9-4.5 7.3-4.5.3 0 2.1 1.4 3.9 3.1s3.6 2.8 3.9 2.5c.4-.3 1.8.4 3.2 1.6l2.4 2.3-2.2-3.8c-2.6-4.3-2.4-4.4 4.9-1.8 3 1.1 5.7 1.6 6 1.3.3-.4 2.5-.8 4.9-1 4.1-.2 10.1-2.8 10.1-4.2 0-.4 2-2.1 4.4-3.8 4.8-3.5 5-3.4 8 2.5 2 4 2.6 4 6.5.7 1.8-1.5 4-2.4 5.3-2.2 2.1.3 2.3.8 2.3 5.8-.1 8.3-2.6 33.2-3.6 35.1-3.1 5.8-34.3 45.9-43.7 56.2l-4.4 4.8 2.1 2.3 2.2 2.3-11.6 10.9c-12.5 11.8-23.4 25.2-28.7 35.3-3 5.9-3.3 7.2-3 14 .1 4.1.4 7.7.7 7.9.9 1 3.8-2.4 5.6-6.5 1-2.4 2-4.3 2.1-4.3.2 0 .3 2.3.4 5.1.2 9 3.4 9.2 6 .2l1.6-5.5 1.9 4.1c1 2.2 2.5 4.1 3.4 4.1 1.2 0 1.5-1.4 1.5-7.4 0-9.7 2-13.2 11.4-19.6 8.6-5.8 10.5-7.5 15.6-14.4 2.1-3 5.3-6.4 7.1-7.7 3.1-2.1 3.3-2.2 6.3-.5 1.8.9 3.8 1.4 4.6 1.1s4.7-5.1 8.5-10.6c8.7-12.5 22.6-30 32.5-40.8 4.1-4.6 8.1-9.4 8.8-10.8 4.3-8 14.4-46.8 17.6-67.5 1.9-11.9 4.2-22.5 6.7-31l1.9-6.6 6.8 1.9c5.9 1.8 9.7 2 31.2 2.1 44.4 0 52.3-2.6 72.9-23.5 5.4-5.5 7.5-7 14-9.3 4.2-1.5 7.8-3.1 8.1-3.5s2.9-1.9 5.7-3.4c2.9-1.4 5.2-3.1 5-3.8-.5-2.6 8.7-1 17.9 3.2 9.7 4.4 21.8 7.6 32.7 8.7l6.7.6V0H179.3z"/></svg>