<svg xmlns="http://www.w3.org/2000/svg" width="682.667" height="512" version="1.0" viewBox="0 0 512 384"><path d="M204.4 8.2c-1.9 8.7-2.4 20.1-1.2 28l.7 4.7-4.2-1.9c-6.1-2.8-13.7-2.5-22.2.8-8.7 3.5-16.2 8.5-20.6 13.8-4.8 5.7-12.5 22.4-15.1 32.8-2 8.2-2.1 9.5-1 19.6 1.4 12.3 3.7 19.9 8.2 26.7 5.7 8.5 13 12.7 20.2 11.6 3.3-.5 3.8-.3 4.2 1.8 3.5 15.8 4.9 20.9 6 22.4 1.2 1.7 1.6 1.5 4.9-2.1 1.9-2.1 4.6-5.2 5.9-6.8l2.4-2.8 5.2 2.6c2.9 1.4 5.2 2.2 5.2 1.6s1.2-.3 2.8.7l2.7 1.7-2.9-3.1-2.8-3.2 5.3.3c5.5.3 10.3-1 9.3-2.6q-.45-.75.3-.6c.4.1 2.3-.3 4.2-1 2.6-.9 3.2-1.6 2.8-3.2-.3-1.1-.1-2 .4-2s1.9-1.6 3.1-3.5c1.3-1.9 2.8-3.5 3.5-3.5.6 0 2.4 1.5 3.9 3.2 1.5 1.8 3.1 3.2 3.5 3.1 1-.3 1.7 3.9 2.3 14.7l.5 8.5-7.1 13c-3.9 7.1-10.2 18.3-14.2 24.8-3.9 6.5-7.5 12.6-8.1 13.5-.5 1-1.9 3.1-3.1 4.7-1.4 2.1-2 4.4-1.9 7.5.1 4.8.8 3.7-12.6 20.7-9.1 11.6-17.4 28.8-17.4 36.3 0 4.9 4.1 14.3 5.9 13.7.6-.2 1.5-1.3 2.1-2.5 1.3-2.9 2.9-2.8 4.3.3.6 1.4 1.6 2.5 2.1 2.5 1 0 3.1-6.1 3.1-8.9 0-1 .9-.6 2.8 1.2 1.5 1.5 3.2 2.7 3.6 2.7s.4-2.5.1-5.5c-1.2-9.3-.2-11.9 8-20.5 4-4.2 8.5-10.1 10-13 1.5-3 4.1-7.1 5.8-9.1 2.7-3.1 3.5-3.6 5.5-2.8 1.3.5 2.9.9 3.6.9.6 0 3.9-5.7 7.1-12.7 3.3-6.9 8.3-16.6 11.2-21.6 2.9-4.9 5.3-9.1 5.3-9.3s2.5-4.4 5.5-9.3c6.7-10.8 7.4-12.5 8.6-22 2.5-19.7 3-26.2 3.9-47.6.5-12.7 1.2-26.4 1.6-30.6l.7-7.6 10.6.1c10.6.1 10.6.1 23.1-5.1 40-16.4 46.5-21.5 57.5-44.3 2.7-5.6 5.4-9.2 10.8-14.5 6-5.8 8.4-8.8 13.4-16.4.1-.2 8.2-.4 18-.6 14.5-.2 20.2-.7 30.8-2.8 7.2-1.4 14.8-2.9 17.1-3.2 2.2-.3 6-.9 8.5-1.4 2.6-.5-50.3-.9-128.7-1L206.3 0zM228.5 140c.3.5-.1 1-.9 1-.9 0-1.6-.5-1.6-1 0-.6.4-1 .9-1 .6 0 1.3.4 1.6 1"/></svg>