<svg xmlns="http://www.w3.org/2000/svg" width="682.667" height="512" version="1.0" viewBox="0 0 512 384"><path d="M186.6 8.2c.9 8.1 1 25.4.4 56.8-.2 12.9.1 16.7 1.7 22.7l2 7.3H188c-7.4 0-18.1 5.8-25.8 14-6.6 7-13.1 30.5-11.7 42 2.3 18.6 11.2 33 23.2 37.6 3.8 1.5 5 1.6 8 .5 4.5-1.7 5.1-1 9.3 9.1 4.6 11.1 5.3 11.4 9.1 3.4 1.7-3.6 3.4-6.6 3.8-6.6s2.9.6 5.5 1.4c3.8 1.2 4.7 1.2 4.3.1-.4-.9.1-1.1 1.6-.8 2.2.5 2.2.5.2-1-2-1.6-2-1.6.5-1.7 2.4-.1 11.4-3.8 9.6-3.9-.5-.1.4-1.1 1.8-2.2 2-1.5 2.4-2.4 1.5-2.9-.8-.6-.6-1.1.8-1.9 1.9-1 2.1-.7 2.7 6.7.7 7.3.4 8.8-3.9 23.7-2.5 8.8-6.6 22.1-9 29.5-3.7 11.2-4.3 14.1-3.6 16.7.9 2.9.4 4.1-5.5 13.5-3.5 5.7-6.9 11.9-7.5 13.8-.7 1.9-2 5.3-2.9 7.5-4.9 11.2-5.2 17.8-1 22.5 1.6 1.8 3.1 3.8 3.4 4.4s1.3.1 2.4-1.4c1.9-2.3 2.1-2.4 3.9-.7 2.3 2 4.3.6 4.3-3 0-2.6 1.1-2.9 4-1.1 2.8 1.8 3.5.3 1.6-3.6-3-6.4-1.5-12.4 5.4-20.6 2.2-2.7 4.9-7.4 6-10.5s2.9-7.3 4-9.3c1.7-3.1 2.6-3.7 5.3-3.7 3 0 3.2-.2 4.4-6 3.4-15.9 6.7-28.4 10.9-41.1l4.5-13.8 1.3-23.1c.7-12.6 1.1-28.1.9-34.3-.3-7.3-.1-11.2.6-11.2.6 0 .8-.7.5-1.5-.4-.8-.2-1.5.3-1.5s.8-2.2.6-4.9l-.4-4.9h4c7.5-.1 12-2.2 24.3-11.4 15.6-11.6 29.5-25.4 33-32.8 1.4-3 3.6-10 4.8-15.5 1.7-7.3 3.3-11.6 6-16 4.3-6.7 7-12.8 7-15.6 0-2.3 1.9-3.2 9.5-4.8 3.3-.7 13.7-4.9 23-9.4 9.4-4.4 21.9-10.2 28-12.9 6-2.7 11.1-5.1 11.4-5.3.2-.3-51-.5-113.9-.5H185.7z"/></svg>