<svg xmlns="http://www.w3.org/2000/svg" width="682.667" height="512" version="1.0" viewBox="0 0 512 384"><path d="M192.4 2.9c-8.2 6-12.6 13.6-14.9 25.5-2.2 11.5-1.9 18.4 1.9 37.7 1.9 9.6 3.7 21.2 4.1 25.9 1.5 20.8 3.1 28.9 7.9 40.2.6 1.2 0 1.8-2.6 2.3-10 2.2-19.3 12.1-21.6 23.2-1.8 8.1-1.6 24 .3 29.3 3.5 9.7 8.9 16.6 15.9 20.2 3.8 1.9 8 2 13.1.4 1.7-.6 2.7.5 6 6.1 2.2 3.7 4.6 6.8 5.4 6.8s2.1-2.1 3-5c1.4-4.4 1.9-5 4.1-4.8 4.2.4 9.5-.8 8-1.7-.9-.6-.2-1.4 2.6-2.8 2.1-1.1 3.7-2.4 3.5-2.8-.3-.5.3-1 1.1-1.2.9-.2 1.9.6 2.3 1.8.9 2.7-1.2 30.3-3.5 46-1.5 10.6-1.5 12.6-.4 13.3 2 1.1 1.8 1.8-2.6 11.4-5 10.7-9.2 29.3-7.2 32.1.7.9 1.5 2.4 1.8 3.3.4 1.2 1.7 1.6 4.5 1.5 2.1 0 3.9-.4 3.9-.9 0-.4.7-.7 1.5-.7s1.5-.5 1.5-1.1c0-1.4 2.6-4 3.3-3.3.3.4 1 .3 1.6 0 .6-.4.3-1.8-.9-3.9-2.5-4-2.5-8.1-.1-11.5 3.1-4.5 5.8-10.5 6.5-14.7 1.1-6.5 2.6-9.3 5.5-10.3l2.8-1 .7-13.2c.4-7.3 1.4-18.3 2.2-24.4 1.4-10.3 1.4-20 0-56.8-.1-1.4-.4-3-.8-3.4-1.4-1.3-.8-8.2.8-9.8.8-.9 1.1-1.6.6-1.6s-.8-1-.7-2.3c.1-1.2-.2-2.7-.7-3.3-.6-.8.3-1.4 2.9-1.9 2-.4 5.1-1.4 6.8-2.2 6.4-3.4 26.9-25.4 31.3-33.7 2.3-4.2 3.5-9.5 5.1-22.1.5-4.4 1.9-10 3-12.5s2.3-6.6 2.7-9c.7-4.4 2.8-8 4.7-8 2.4 0 12.5-6.1 26.2-15.9 25.6-18.3 46.7-32.1 49-32.1.8 0 1.7.5 2.1 1.1 1.4 2.3 12.6.1 26.2-5C436-.7 441.6 0 346.3 0c-52.7 0-84.4.4-84.8 1-.3.5-.8 3.8-1.2 7.3l-.6 6.4-6.1-4.2c-3.3-2.3-8.9-5.7-12.3-7.4L235.1 0h-38.8z"/></svg>