<svg xmlns="http://www.w3.org/2000/svg" width="682.667" height="512" version="1.0" viewBox="0 0 512 384"><path d="M246 .8c0 3.9-3.6 26.9-5.6 35.4-1.3 5.9-2.4 13.8-2.4 17.6v7l-6.2-3.3c-3.5-1.9-10.1-4.5-14.8-5.8-15.5-4.4-27.4-1.7-36 8-5.3 6.1-6.5 10.5-6.4 23.8.1 9.8.5 12.2 3.7 22.1 1.9 6.1 4.5 16.7 5.7 23.5 2.6 14.9 4.4 21.1 7.7 26.3 2.5 3.9 2.1 5.5-1.4 5.6-2.5 0-8.5 6.5-11.5 12.4-2.9 5.8-3 6.4-2.6 16.3.4 9.3.8 11 3.9 17.1 4.2 8.3 10.6 13.2 17.3 13.2 2.3 0 4.8-.6 5.5-1.3 1-1 2.2-.2 5.9 4.1 2.6 2.8 5 5.2 5.4 5.2s1.1-1.8 1.4-4c.5-3.3 1.1-4.1 3.3-4.6 4.9-1.1 6.1-1.5 5.8-2.2-.1-.4 1.4-2.2 3.3-4l3.4-3.3.9 2.3c.5 1.3.8 12.4.7 24.7-.1 15.9.2 22.6 1 23.1.9.5.5 3-1.4 8.8-1.4 4.5-2.8 11.6-3.2 15.9-.6 6.9-.4 8.3 1.6 12.1 1.8 3.4 2.5 4 3.6 3.1.8-.6 1.1-1.5.8-2s-.1-.9.5-.9c.5 0 1.3.5 1.7 1.1.5.8 1 .6 1.6-.5.5-.9.6-2.1.2-2.7-.4-.7 0-.9 1.4-.5 2.8.9 3.4-1.5 1.1-4.5-2.5-3.2-2.4-5.7.6-12.1 1.4-2.9 2.5-6.7 2.5-8.4 0-4.9 1.9-9.4 4-9.4 1.7 0 1.9-1.5 2.2-21.8.2-11.9 0-24-.5-26.7-.5-2.8-2-11.3-3.4-19-3.2-17.7-3.4-25.3-.7-27.1 6.2-4.2 8.6-6.6 15.4-15 10.7-13.3 12.2-16.6 13.2-29.9.5-6.1 1.2-12.4 1.7-14 .6-1.7 1.2-5 1.6-7.5 1-7.3 1.4-7.9 6.8-11.5 2.9-1.8 7.3-5.3 9.9-7.7 38.6-35.9 43.7-40.3 45.7-40.1 4.1.6 11.9-2.1 19.9-6.9C370.3 27 376 22.5 376 20.5c0-.7 5.1-4.6 11.3-8.7 6.1-4.2 12.1-8.5 13.1-9.7l1.9-2.1h-78.1c-43 0-78.2.4-78.2.8"/></svg>