<svg xmlns="http://www.w3.org/2000/svg" width="682.667" height="512" version="1.0" viewBox="0 0 512 384"><path d="M233.7 4.2c1.5 8.5.7 37.7-1.3 47.8-1.1 5.5-1.9 13.2-1.8 18.2.1 4.9-.1 8.8-.3 8.8s-2.1-1.1-4.3-2.5c-5.9-3.7-15.2-5.9-25-6-7 0-9.3.4-13.2 2.4-14.3 7.3-17.5 23.3-9.4 47.1 2 5.8 4.8 16.1 6.3 23 2.6 12.6 4.5 17.9 8.3 23.7l2.1 3.1-3.4 1.1c-4.5 1.5-7 4.3-10.2 11.4-2.6 5.6-2.6 6-1.6 15.3 1.2 11.1 3.5 16.7 9.1 21.8 4.6 4.1 9.8 5.4 14.8 3.6 3.5-1.2 3.6-1.2 7.2 3q6 7.05 6 0c0-2.7.4-3.1 4.7-4.2 3.8-.9 4.3-1.3 2.7-1.9-1-.4-1.3-.8-.6-.8.8-.1 2.7-1.5 4.3-3.2 2.8-3 2.8-3 3.4-.7.3 1.3.9 12.5 1.4 24.9.7 18.3.6 23.6-.5 28-2.2 8.4-1.8 19.4.8 23.6 2 3.4 2.1 3.5 3.2 1.4.9-1.7 1.4-1.9 2.4-.9.9.9 1.2.6 1.2-1.4 0-2.1.4-2.5 2-2.1 1.2.3 2 0 2-.7 0-.6-.9-2.3-2-3.7-2.4-3.1-2.5-4.5-.4-8.5.9-1.7 2-6 2.5-9.7.7-4.8 1.5-7 3-8.2 2-1.5 2.1-2.3 1.7-23.5-.4-19.6-.7-23.2-3.2-33.9-1.5-6.6-3.4-14-4.2-16.4-2.2-6.5-1-10.5 4-13.7 2.2-1.4 5.3-4.5 6.8-6.8 1.5-2.2 4.9-7.4 7.7-11.4 6.1-8.7 7.4-13.1 6.8-22.6-.3-4.5.1-8.9 1-12 .8-2.7 1.3-6.4 1.1-8.3-.3-2.7.2-3.8 2.7-6.1 5.6-5.2 33-32.6 41.6-41.7 7.9-8.4 8.9-9.1 14.1-10.2 8.1-1.7 23.2-12.2 27.3-19 .9-1.5 5-5.3 9-8.3 4.1-3 8-6.7 8.9-8.1.8-1.4 1.7-5.6 1.9-9.2l.3-6.7H233z"/></svg>