<svg xmlns="http://www.w3.org/2000/svg" width="682.667" height="512" version="1.0" viewBox="0 0 512 384"><path d="M267.3 2c.4 1.7 0 2-2.7 2-4.4 0-12.8 2.9-12 4.2.5.7-.7.8-3.2.4-2.2-.3-5-.6-6.4-.5-3.8.2-4.8.1-14-1.6-4.7-.8-11.4-1.7-15-1.9-5.9-.3-6.7-.1-8.9 2.2-2 2.2-2.2 3.2-1.7 6.9.4 3.4.1 5.4-1.5 8.6-2.4 4.6-2 7.9 2.1 18.9 1.6 4.3 2.7 5.9 4.8 6.6 2.2.7 3.1 2.1 4.5 6.4 2.4 7.8 3.8 23.4 3.5 40-.2 7.9.1 15.7.6 17.5l.8 3.2-7.3-2.5c-6.2-2.2-8.8-2.5-16-2.2-7.7.4-9.1.7-12.4 3.2-4.9 3.8-7.5 9.6-7.5 17.2 0 4.7.9 8.3 4.1 16.5 2.2 5.7 5.1 14.3 6.4 19 2.7 10.1 4.6 14.3 8.8 18.6 1.7 1.8 2.9 3.4 2.6 3.5-.2.2-2 1.1-4 2.1-4.4 2.3-7.9 8.9-7.9 15.1 0 5 3 14.4 6 18.7 3.9 5.3 12.2 7.7 17 4.7 1.6-1.1 2.3-.8 4.8 1.5 3.6 3.5 5.2 3.4 5.2-.2 0-2.2.6-3.1 3-4.1 1.6-.7 2.8-1.6 2.5-2-.2-.4.4-1.5 1.5-2.5s2-1.6 2-1.4c.4 2.5 1.1 21.4 1.4 35.7.3 13.8.8 18.6 2 21 1.8 3.5 3.2 4.6 4.1 3.3.3-.6 1.2-.8 2-.5 1 .4 1.2 0 .8-1.7-.4-1.5-.3-2 .5-1.5 1.8 1.1 1.4-1.5-.4-3.5-1.3-1.5-1.5-2.8-.8-6.6.4-2.6.7-6.5.5-8.5-.2-2.7.2-4 1.6-4.8 1.6-1.1 1.8-2.6 1.5-17.7-.2-13.5-.6-18-2.5-24.7-2.6-9.3-3.1-24.6-.9-26.8 1-1 1.4-.9 1.8 1 .4 1.2 1.3 2.2 2 2.2 1.5 0 1.9-2.6 1.4-9.3-.1-2.4.4-4.5 1.4-5.6 3.1-3.4 5.7-11 5.5-16.3-.3-11.6.6-24 1.8-26.2.4-.8 2.6-3.4 4.9-5.8 3.6-3.8 25-33.9 29.2-41 1-1.7 3.3-3.3 6.1-4.3 5.5-1.9 17.1-12.8 17.1-16.1 0-1.2 1.7-4.1 3.8-6.5 5.7-6.5 6-7.4 5.8-18.6-.2-8.7-.6-10.9-3-15.7-1.5-3.1-3.2-5.6-3.7-5.6s-2-.9-3.2-2c-1.2-1.2-3.3-2.3-4.7-2.6s-3.5-1-4.8-1.5l-2.3-.9 2.1-4c1.1-2.1 2-4.2 2-4.5s-7.5-.5-16.6-.5c-16.1 0-16.6.1-16.1 2"/></svg>