<svg xmlns="http://www.w3.org/2000/svg" width="682.667" height="512" version="1.0" viewBox="0 0 512 384"><path d="M244.3 1.7c1 1.2 1.8 4.8 2.3 10.1.4 4.7 1.3 8.9 2 9.7 1.9 1.8.2 3-6.6 4.8-3.9 1-5.5 1.8-5.4 3 .1 1.4-1.3 1.5-13 1.1-7.2-.3-14.4-.6-16.1-.6-1.6 0-3.2-.4-3.5-.9-.6-.9-7.6.7-8.4 1.9-.2.4.1 2.9.7 5.5.9 4 .8 5-.6 6.5-2.4 2.6-2.1 6.8.9 14.3 3.1 7.7 4.2 9.2 6.4 8.6 1.3-.3 2.2 1 3.8 6.2 3 9.7 3.2 11.3 4.1 30.2.5 10.4 1.4 18.5 2.1 20.2.7 1.5 1.1 2.9.9 3.1-.2.3-3.1-.5-6.4-1.6-8-2.7-20-2.3-24.2.8-8.7 6.4-9.6 14.9-3.3 30.6 2.2 5.5 4.7 12.7 5.6 16.1 2.3 9 5.2 14.3 9.7 18.2l4.1 3.5-4.2 1.7c-7.7 3-10.1 12.1-6.1 22.8 3.9 10.5 12.6 15.9 19.2 12.2 2.7-1.6 3-1.6 6.1.8 4.2 3.2 4.9 3.1 4.1-.4-.4-2.1-.2-3 1.1-3.5.9-.4 1.9-.5 2.1-.3.2.3.6 5.1 1 10.8.3 5.7 1.1 11.3 1.6 12.4.6 1.1 1.2 5.4 1.2 9.5.2 7.7 1.8 12.3 5.1 15.1 1.6 1.2 1.7 1.2 1.1-.3-.4-1.2-.2-1.5.9-1.1.8.3 1.4-.1 1.4-1.1 0-.9.5-1.6 1.2-1.6.6 0 .2-1-.9-2.3-1.8-1.9-2.1-3.4-1.9-10 .1-6.1.5-8.1 1.8-8.8s1.4-1.6.8-4.6c-.5-2.1-1.1-7.6-1.4-12.3-.4-4.7-1.2-12.2-1.8-16.7-.9-6.3-.8-9.2.1-12.3 1.3-4.4 2.6-5.1 3.4-2 1 3.7 2.7 2.1 2.7-2.6 0-3.1-.7-5.6-2.2-7.6l-2.1-3.1 2-1.6c1.5-1.1 1.9-2.2 1.3-3.6-.5-1.4.3-3.9 2.5-8.1 3.2-6.1 3.3-6.3 3.2-20 0-15.3.4-16.7 6.6-24.1 1.9-2.3 7.1-10.8 11.7-19 4.6-8.1 9.3-16.6 10.6-18.9 1.7-3 3.2-4.3 6.1-5.2 4.8-1.4 13.3-11.1 13.3-15.1 0-1.4 1.1-4.3 2.5-6.3 4.2-6.1 4.5-8 3.2-16.5-1-5.9-2.1-9-4.5-12.6-1.8-2.6-4-4.7-4.8-4.7s-2.4-.9-3.6-2-3.4-2-5-2c-3.2 0-3.4-.6-1.3-3 .9-1 2-5.2 2.5-9.6.5-4.3 1.2-9.6 1.6-11.7l.7-3.7h-17.1l-.7 3.7c-.8 3.9-.9 3.8-1.9-1L262 0h-9.7c-9.1 0-9.5.1-8 1.7"/></svg>