<svg xmlns="http://www.w3.org/2000/svg" width="682.667" height="512" version="1.0" viewBox="0 0 512 384"><path d="M230 .9c0 .9 2.9 3.5 6.4 5.6 1.1.6 2.2 4.1 3.2 9.5 2.2 11.3 2.3 14.4.4 14.7-8.4 1.1-9.2 1.4-8.7 3.4.5 1.7 0 2-3.1 2-2.1 0-5.3.1-7.2.1-1.9.1-8.5-.1-14.7-.4-6.4-.3-11.5-.2-12.1.4-.5.5-.5 2.8.1 5.9.9 4.3.7 5.1-.8 6.3-1.4 1-1.7 2.2-1.2 5.5.8 6.3 5.7 15.5 8.4 15.9 4.4.6 7.6 13.9 9.2 38.3.6 8.9 1.5 14.7 2.5 16.7.9 1.7 1.6 3.3 1.6 3.6s-2.1-.5-4.7-1.6c-3.6-1.6-6.9-2.2-13.3-2.2-10.3-.1-14.7 2-17.9 8.8-2.8 5.6-2.6 10.1.5 18.3 1.5 3.7 4.5 12.3 6.8 19 4.4 12.9 6.9 17.3 11.8 20.3l3 1.8-2.3 1.4c-1.3.7-3.3 1.8-4.4 2.4-2.8 1.5-5.5 7.2-5.5 11.6 0 6 3.6 14.2 8 18.2 3.3 2.9 4.8 3.6 8.2 3.6 2.3 0 4.9-.7 5.7-1.4 1.5-1.3 2.1-1.2 5.8 1.2 4 2.5 4.2 2.9 5.2 10.1.7 4.2 1.6 8 2.1 8.5.6.6 1 3.3 1 6 0 6.6 1.7 12.5 4.2 15.3 1.8 1.9 2.2 2 3.5.8.8-.8 1.2-1.9.9-2.4-.4-.5 0-1.1.6-1.4 1-.3.9-.8-.3-1.8-2.4-2-3.3-16.5-1.1-17.4 1-.4 1.3-1.4.8-3.8-3.2-16.9-3.6-29-1.2-36.5.9-2.8 3.2-2.9 3.9-.1.3 1.2 1 1.8 1.7 1.4 1.2-.8.4-9.2-1.2-11.2-.6-.8-.4-2 .7-3.6 1.4-2.2 1.5-3.3.4-8.4-1.1-5.6-1.1-6 1.7-11.3 2.4-4.6 2.8-6.5 2.6-12-.4-9.5-.4-10 .2-16.2.5-6 1.6-9 4.6-12.3 2.5-2.8 8-12.5 16.2-28.8 6.5-13 7.1-13.9 11.1-15.6 5.7-2.5 13.2-11.9 12.4-15.7-.3-1.9.4-4.1 2.4-7.2 1.6-2.5 2.9-6 2.9-7.6 0-5.7-2.7-14.5-5.4-18.1-2.9-3.8-11.1-8.5-14.7-8.5-2.2 0-2.2 0-.3-2.1 1.3-1.4 2.1-4.4 2.5-9.2.4-4 1.1-10.2 1.5-14l.7-6.7h-10.4c-10.3 0-10.4.1-8 1.9 2.1 1.6 2.2 2.3 1.6 6.2-.4 2.4-1.1 5-1.5 5.8-.9 1.6-1.4.4-2.5-6.4C253.2 0 253.2 0 241 0c-6.1 0-11 .4-11 .9"/></svg>