<svg xmlns="http://www.w3.org/2000/svg" width="682.667" height="512" version="1.0" viewBox="0 0 512 384"><path d="M225 1.7c0 2.5 1.1 3.8 4.6 5.6 2.8 1.5 3.2 2.2 4.4 9.4.7 4.3 1.9 8.8 2.6 10 .8 1.2 1.4 2.9 1.4 3.8 0 1.7-3.8 3.5-7.7 3.5-2.1 0-2.4.4-2 2 .4 1.7 0 2.1-2.6 2.1-1.8.1-8.3.2-14.5.4-6.2.1-11.4-.1-11.7-.4-.2-.4-2-.5-3.9-.3-4 .5-4.4 1.8-2.6 8.1.8 2.9.6 3.6-1.3 5.1l-2.2 1.8 2.3 6.8c2.9 8.3 4.9 11.4 7.4 11.4 4.2 0 7.7 13.3 9.8 37 .7 7.4 1.9 15 2.6 16.9 1.3 3 1.2 3.3-.4 2.6-15.2-6.3-28.6-3.7-32.8 6.2-2.4 5.5-1.7 11.5 2.4 22 2.1 5.4 5.1 13.8 6.7 18.6 2.7 8.6 5.2 12.5 10.5 15.8l2.4 1.6-4.3 2.8c-2.3 1.6-4.9 4.1-5.7 5.6-4 7.9 1.3 23.1 9.6 27.4 3.8 1.9 6.5 1.9 10-.2 2.6-1.5 3-1.5 5.3 0 2.1 1.3 2.6 2.7 3.2 7.9.4 3.5 1.3 7.6 2 9.1.8 1.5 1.7 4.9 2 7.5 1.5 10.7 5.8 19.1 8.2 16 2.3-2.8 2.4-5.4.3-7.3-1.7-1.5-2-2.6-1.5-5.5.3-2 .1-4.8-.4-6.3-.9-2.2-.7-2.8.8-3.6 1.8-1 1.8-1.2-.1-7.8-1-3.8-1.7-8.4-1.4-10.3 2.2-16 4.1-21.6 5.8-17.1.4 1.2 1.3 2.1 1.9 2.1.9 0 1-1.8.6-6.5-.4-3.9-.2-6.5.3-6.5.6 0 1-5.2 1-12.6 0-8.9.5-14 1.6-17.5 1.3-3.9 1.5-6.2.7-10.7-.5-3.2-.6-6.9-.2-8.2.4-1.4.7-4.5.8-7 .1-3.5 1-5.7 4.3-10.4 2.3-3.2 8.2-14 13.2-24 8.5-17 9.3-18.2 13.1-19.9 5-2.3 11.6-11.3 11.3-15.4-.1-1.5 1-5.1 2.4-7.8 2.4-4.6 2.6-5.5 1.7-11.4-1-7-3.4-11.7-8.1-15.6-3.7-3.2-9.7-5.7-11.6-5-2.5 1-3.6-.7-1.4-2.4 1.8-1.4 2.1-3.2 2.7-16.4l.7-14.7h-10.1c-5.6 0-10.1.4-10.1.9s1.2 1.8 2.6 2.8l2.6 2-1.2 7.1c-.6 4-1.5 7-1.9 6.7-.4-.2-1.3-3-2-6.2-.8-3.2-2-7.5-2.8-9.6L244.8 0h-9.9c-8.8 0-9.9.2-9.9 1.7"/></svg>