<svg xmlns="http://www.w3.org/2000/svg" width="682.667" height="512" version="1.0" viewBox="0 0 512 384"><path d="M221 1.9c0 1.8 3.6 5.5 6.1 6.3.6.2 1.9 4.1 2.9 8.7s2.3 8.8 2.9 9.4c1.5 1.5 1.4 5.7-.1 6.2-.7.2-3 .6-5.1 1-3.2.5-3.7.9-3.2 2.5.5 1.7.2 1.9-2.7 1.8-7.8-.4-29.4.3-30.6 1-1 .7-.9 1.7.3 5.2 1.4 3.9 1.4 4.5 0 6-2.4 2.6-1.8 8.5 1.5 15 2.4 4.8 3.5 6 5.4 6s2.7 1 4.5 5.8c2.7 7.6 3.7 13.2 5.5 30.2.8 7.7 2 14.8 2.5 15.9 1.7 3.1 1.5 3.1-4.6 1-10.7-3.6-19.2-2.2-25 4.4-5.7 6.5-5.4 13.2 1.3 28.2 1.2 2.8 3.2 8.8 4.4 13.3 2.5 9.1 6.6 15.7 11 17.5 3.5 1.5 2.7 3.8-2 5.7-11.8 4.9-4.8 30.9 8.9 32.7 2.9.4 4.8.1 6.7-1.2 3.4-2.2 3.8-1.5 5.4 8.4.6 4.2 1.9 8.3 2.7 9.2.8 1 1.8 4.4 2.3 7.8.8 6.1 4.6 14.4 6.5 14.4.6 0 1.6-1.2 2.3-2.7 1.2-2.4 1.1-2.9-.6-4.4-2.6-2.2-3.8-14.8-1.6-16 1.1-.6 1-1.9-.6-7.1-2.3-7.3-2.5-9.2-.8-8.9.7.2 1.6-1.4 2.1-3.7 2.5-11.5 3.8-14 5-9.5.3 1.1 1.1 2 1.7 2 .9 0 1.1-1.6.8-5.5-.3-3.1-.1-5.8.4-6.1.4-.3.8-1.8.8-3.4s.7-6.6 1.6-11c1.6-7.6 1.6-8.2-.1-10-1-1.1-2.4-2-3.2-2-1.7 0-1.7-.4.9-5.3 1.9-3.6 2.2-5.9 2.4-16.7.1-13.5 1.2-18.6 5.1-23.8 1.4-1.9 5.9-10.4 9.9-19 4.1-8.6 8.2-17.3 9.2-19.2 1-2.1 3.1-4.2 5.4-5.2 5.1-2.4 11.9-12 11.2-15.8-.4-1.7.2-4.2 1.5-6.8 2.3-4.5 2.7-10.6 1-16.6-1.3-4.6-8.2-12.4-11.8-13.3-1.4-.3-3.5-1.2-4.5-1.9-1.1-.8-3.1-1.1-4.5-.8l-2.6.6 2.2-1.9c2.1-1.7 2.2-2.6 2.3-16.1V0h-9.8l-9.7.1 2.8 2.4c2.8 2.5 2.8 2.5 1.8 9.5-.6 3.8-1.1 7.1-1.1 7.4s-.4.6-.9.6-1.9-3.7-3.1-8.3C240.7-.7 241.4 0 230.5 0c-8.7 0-9.5.2-9.5 1.9m7 189c0 .6-.4 1.3-1 1.6-.5.3-1-.1-1-.9 0-.9.5-1.6 1-1.6.6 0 1 .4 1 .9"/></svg>