<svg xmlns="http://www.w3.org/2000/svg" width="682.667" height="512" version="1.0" viewBox="0 0 512 384"><path d="M218 .9c0 1 4.3 4.7 6 5.3.8.2 3 7.3 6.6 21.4.5 2 .1 2.3-4.6 2.9-3.8.5-5 1.1-4.6 2.1s-.3 1.4-2.3 1.4c-1.5 0-3.1.3-3.5.7-.3.4-5.2.8-10.7.9-5.6.1-10.3.5-10.7.8-.3.3-1.4.6-2.4.6-2.1 0-2.4 3.2-.7 7.7.7 1.9.7 2.9 0 3.1-3 1-3.1 4.1-.6 10.9 2.8 7.4 4.9 10.3 7.5 10.3 1.1 0 2.5 1.7 3.8 4.8 2.9 6.8 4 11.7 6.1 28.8 1 8.3 2.4 16.1 3.1 17.4 1.1 2 1 2.2-.4 1.7-12.8-4.9-21.8-4.2-28.1 2.3-3.6 3.6-3.9 4.6-4.3 10.3-.3 5.2.1 7.5 2.3 12.8 2.9 7 4.2 10.9 7.5 21.4 2.5 8 5.7 12.8 10.2 15.1l3.1 1.6-5.1 4.7c-7.2 6.6-7.9 11.9-3 21.7 4.2 8.4 12.5 13.3 17.8 10.4 1.2-.6 2.4-1 2.6-.7.2.2 1.1 4 1.9 8.3.9 4.3 2.1 8.3 2.8 8.9.7.5 1.8 3.9 2.5 7.4 1.1 6.2 5.2 14.1 7.2 14.1.6 0 1.6-1.2 2.2-2.6 1-2.2.9-2.8-.9-4.2-2.5-2-4.2-13.4-2.3-15.7.8-1 .6-3.1-1-8.5-1.2-3.9-1.9-7.7-1.7-8.3.3-.7.8.3 1.2 2.1 1.1 4.7 2.8 3.4 4-2.9 1.4-6.9 2.2-8.9 3.4-8.9.5 0 1.1 1 1.5 2.2.4 1.8.8 2 1.7 1.1s1-2.4.2-5.7c-.8-3.6-.7-4.6.4-5 .7-.3 1.3-1.6 1.3-2.9s.9-5.9 2-10.2l2-7.9-2.1-2.2c-1.2-1.2-3.4-2.8-5-3.4-1.6-.7-2.9-1.4-2.9-1.5s1.6-2.9 3.5-6c3.9-6.5 5.1-11 4.1-15.8-.4-1.8-.4-6.9 0-11.5.6-7.3 1.2-9.1 4.7-14.9 2.2-3.6 7.2-13.9 11.2-22.8 9-20.1 8.4-19.2 12.5-21.3 4.8-2.4 11.3-11.8 10.6-15.4-.3-1.6.3-4.5 1.4-7 2.2-4.8 2.5-10.4.9-16-1.2-4.5-9.8-13.5-13.7-14.4-1.5-.4-3.2-1.1-3.9-1.6s-2.1-.7-3.3-.3c-1.1.3-2 .2-2-.3 0-.6.5-1.2 1.1-1.4s1.1-5.3 1.2-13.3l.2-13-8.3-.3c-8-.3-8.2-.2-7.1 1.7.9 1.4 1 3.8.3 9.5-.6 4.6-.6 8.2-.1 9.2.7 1.2.6 1.5-.2 1-.6-.4-2.5-5.4-4.3-11.1L237.7 0h-9.9c-5.4 0-9.8.4-9.8.9m10 202.5c0 .3-.4.8-1 1.1-.5.3-1 .1-1-.4 0-.6.5-1.1 1-1.1.6 0 1 .2 1 .4"/></svg>