<svg xmlns="http://www.w3.org/2000/svg" width="682.667" height="512" version="1.0" viewBox="0 0 512 384"><path d="M220.2 1.5c1.9 1.1 3.1 3 4.2 6.9.9 3 1.6 6.2 1.6 7.1s.7 2.9 1.6 4.5c2.4 4 1.3 5.7-4 6.5-2.9.5-4.6 1.2-4.6 2.1 0 .8-1 1.4-2.3 1.4s-2.6.3-2.9.6c-.4.3-3 .7-6 .9-10.8.7-17.3 1.6-18.2 2.5-.5.5-.4 2.9.3 5.6 1.1 4.1 1 4.9-.3 5.6-.9.5-1.6 2.2-1.6 3.9 0 4.1 5.5 15.8 7.7 16.5 1 .3 2.5.9 3.3 1.3 2.7 1.4 6 13.9 8.4 31.1 1.3 9.3 2.7 17.3 3.1 17.9.8 1.4 0 1.4-5.9-.4-9.8-3-16.8-1.5-22.3 4.8-5.6 6.4-5.6 11.8 0 26.2 1.9 5 4.3 11.9 5.2 15.5 2.3 9 5.8 14.7 10.3 16.8 2 .9 3.9 1.8 4.2 2 .2.1-2.2 2.7-5.3 5.6-5.5 5.1-5.7 5.4-5.7 10.4 0 11.4 10.2 23.3 18.5 21.8 3.8-.7 3.9-.5 5 8.1.4 2.9 1.5 6.2 2.6 7.4 1 1.2 1.9 3.2 1.9 4.4 0 6.1 7.3 19.2 9.1 16.4 1.4-2.3 1-5.7-.8-6.8-1.3-.7-1.9-2.7-2.3-7.6-.3-3.7-.2-6.9.3-7.2s.6-2.3.3-4.4c-.5-3.1-.3-3.7.9-3.3 1.5.6 1.9-.6 3-8.8.7-5.3 2.2-6.9 4-4.5 2.1 2.9 2.8 1.9 2.2-2.9-.3-2.9 0-5.6.9-7.3.8-1.4 1.4-3.6 1.4-4.7 0-1.2.7-4.1 1.5-6.4 2.7-7.6 1.8-9.5-7.5-16l-2.1-1.5 2.9-4.1c6.2-8.5 6.6-9.9 6.7-24.4l.2-13.5 5.5-10.5c3.1-5.8 8.4-17.2 11.8-25.3 5.8-13.7 6.6-14.9 10-16.7 5.2-2.7 11.3-12.3 10.5-16.6-.3-2 .2-4.7 1.5-7.5 2.6-5.8 2.5-10.3-.4-16.5-2.6-5.5-10-12.4-13.3-12.4-1.1 0-2.6-.7-3.4-1.6-.8-1-2.1-1.3-3.7-.9-1.8.4-2.2.3-1.6-.7.5-.7.9-6.1 1-12.1l.2-10.7H243l-.1 4.2c-.1 2.4-.4 5.4-.9 6.8-.7 2.5-.7 2.5-2.3-1-.8-1.9-1.8-5-2.2-6.8l-.7-3.2h-9.6c-9.1.1-9.5.2-7 1.5"/></svg>