<svg xmlns="http://www.w3.org/2000/svg" width="682.667" height="512" version="1.0" viewBox="0 0 512 384"><path d="M224.2 7.2c1 4 2.4 8.3 3 9.5 1.4 2.8-.5 4.7-5.2 5.1-1.9.2-4 1-4.6 1.7-1 1.3-7.7 2.7-19.2 4-5.5.6-10.2 2-10.2 3.1 0 .4.5 2.4 1.2 4.5 1 3.4.9 4.2-.7 5.9-2.2 2.5-1.5 6.6 2.6 14.9 2.5 5 3.5 6.1 5.5 6.1 4.2 0 7.9 11.1 10.9 32.5.9 6.6 2 13.3 2.5 14.9.9 2.6.8 2.8-1.3 2-1.2-.4-6-.9-10.7-1.1-7.6-.4-8.9-.2-12 1.9-1.9 1.3-4.5 4.3-5.8 6.8-3 5.8-2.5 10.6 2.2 22.6 1.9 4.9 4.6 12.8 6 17.6 2.8 9.3 6.4 14.1 12 16.1l2.9 1-5.6 5.3-5.7 5.2v6.4c0 5.8.4 7 3.8 11.9 3.6 5.2 7.2 7.7 13.7 9.6 2.7.8 3.1 1.3 3.8 6.8.5 3.2 1.7 7 2.8 8.3 1 1.4 1.9 3.3 1.9 4.3 0 4.7 7 17.6 8.9 16.4.5-.2 1.1-1.8 1.3-3.4.3-2.3 0-3.2-1.9-4-1.3-.6-2.3-1.6-2.4-2.3-.3-5.3.5-12.6 1.6-13.8.7-.8 1.6-4 2-7s1.3-6.6 2.1-8l1.3-2.5.7 2.3c1.1 3.8 2.9 1.9 2.6-2.6-.2-2.3.1-5.6.7-7.4 5.5-17.4 5.4-16.7 3.6-19.5-1-1.4-3.5-4.6-5.7-6.9-2.2-2.4-3.8-4.7-3.6-5.1.1-.4 2.6-4.1 5.3-8.2l5-7.4.1-11.1c.2-13.4 1.6-20.8 4.9-25.8 2.1-3.1 8.9-18.6 16.5-37.6.7-1.9 3-4.4 5.2-5.8 2.1-1.3 5.4-4.9 7.4-7.9 3-4.4 3.6-6.1 3.1-8.8-.3-2.2.2-4.9 1.4-7.6 2.4-5.4 2.4-11.4 0-16.6-2.1-4.7-10.2-12.3-14-13.2-1.4-.3-3.1-1-3.8-1.5s-2.7-.7-4.5-.3c-2.8.6-3.1.5-1.8-.7 1.2-1 1.5-3.1 1.2-9.6l-.4-8.3-7.1.3-7.2.3-.5 4-.5 4-1.3-4.3-1.3-4.2h-14.6z"/></svg>