<svg xmlns="http://www.w3.org/2000/svg" width="682.667" height="512" version="1.0" viewBox="0 0 512 384"><path d="M225 1.8c0 1 .6 2.7 1.4 3.7 1.3 1.8 1.1 2.1-2.4 3.6-2 .9-5.1 2-6.9 2.4-1.7.3-3.1 1-3.1 1.5 0 .4-5.4 1.8-12 3-15.3 3-15.7 3.3-14 9.4 1.2 4.3 1.1 4.8-.6 6-1.7 1.3-1.8 1.8-.6 6.3 2.1 7.6 6.5 14.7 9.4 15.1 2.1.3 3 1.5 5.1 6.5 1.4 3.4 2.8 7.1 3.1 8.2 1.2 4.4 5.7 32.8 5.2 33.2-.2.2-2.1 0-4.3-.6-9.3-2.6-19-.1-23.3 5.9-4.1 5.8-3.9 12.3.8 25.3 2.2 6.2 5 14.4 6.1 18.3 2.7 9.2 5.6 13.5 10.6 15.3 2.2.8 4.2 1.6 4.4 1.7.6.5-5 7.6-7.8 10-3.2 2.8-4 10.7-1.6 15.5 3.1 6 6.9 10 11.6 12.4 4.6 2.4 4.6 2.4 5.3 8.6.3 3.4 1.2 7 1.9 7.8.8.9 2.2 3.8 3.2 6.6 2 5.4 5.7 11.9 7.5 13 .7.4 1.7.2 2.3-.4.8-.8.5-1.8-1.1-3.8-1.2-1.6-2.7-3.9-3.3-5.3-.9-2.1-.7-2.7 1-3.8 1.7-1.2 1.9-2.1 1.5-6-.3-2.6-.1-6.1.6-7.7 1.1-2.7 1.3-2.9 2.4-1.3.7 1 1.6 1.8 1.9 1.8s.5-3 .5-6.8c-.1-3.7.7-9.8 1.7-13.6 1.5-6 1.6-7.8.5-14.5-.7-4.2-1.8-8.5-2.6-9.6-2.4-3.4-1.6-6.8 3-13.2 7.7-10.5 8.9-13.8 8.3-21.3-.9-8.9 1.3-21.4 4.6-27 1.4-2.5 4.9-10.4 7.7-17.5 9.6-24.6 10-25.4 13.4-27 1.8-.9 4.7-4 7-7.5 3.3-5.2 3.8-6.6 3.2-9.9-.4-2.8 0-5.1 1.4-8.3 2.4-5.2 2.5-8.2.5-13.9-1.6-4.4-8.9-12.9-11.1-12.9-.6 0-1.7-.7-2.5-1.6-.7-.8-2.1-1.3-3-1.1-1 .3-2 0-2.2-.6s-2.2-1.1-4.5-1c-3.4.2-4.1-.1-4-1.5.4-5.3.7-5.2-13.2-5.2-11.9 0-13 .2-13 1.8"/></svg>