<svg xmlns="http://www.w3.org/2000/svg" width="682.667" height="512" version="1.0" viewBox="0 0 512 384"><path d="M227.5 1c.4.6-.7 1.5-2.4 2.1S222 4.5 222 4.8c0 .4-1.4.8-3.1.9s-4.7 1.2-6.6 2.3-4.4 2-5.7 2c-2.2 0-15.4 3.2-18.8 4.5-1.5.6-1.5 1.1-.2 5.7 1.4 4.5 1.4 5.2 0 6.7-2.5 2.7-1.9 6.3 2.1 14 2.9 5.7 4.1 7.1 5.9 7.1 4.6 0 8.5 10.8 12.4 34.5 1.2 7.1 2.4 13.4 2.8 13.9.3.5-.1.7-.9.4s-4-1.1-7.1-1.8c-10-2.3-19.1 2-22.3 10.5-2.2 5.7-1.6 10.3 2.9 22 1.9 5 4.2 11.9 5.1 15.4 3 11.6 7 17.2 13.5 18.6 1.7.4 3 .9 3 1.2 0 .9-6.7 9.7-8.9 11.7-2.4 2.2-2.9 10.1-1 13.9 2.3 4.3 8.1 10.8 11.2 12.4 4.3 2.1 4.7 2.9 4.7 9.2 0 3.2.6 6.1 1.4 7 .7.9 2.1 4 3.1 6.9 1.7 5.3 6.9 13.2 9.3 14 2 .6 1.4-4.2-.9-6.1-1.3-1.2-1.8-2.4-1.4-3.5.4-.9.6-5 .6-9-.1-4.6.2-7.2.9-7.2.6 0 1.3.7 1.6 1.5 1.3 3.2 2.7 1.5 1.9-2.3-1.1-5.7-.7-10.6 1.2-11.9 1.3-1 1.4-1.7.5-3.7-.8-1.8-.7-2.7.5-3.9 2-2 2.6-7.2 1.2-9.8-.8-1.5-.7-2.4.2-3.6 1.9-2.2 1.1-10.4-1.2-12.9-3-3.2-2.3-6 3.9-14.7 3.2-4.5 6.2-9.1 6.7-10.2.4-1.1.9-7.4 1-14 .2-12.5 1.5-19.2 4.5-23.5.9-1.4 4.5-9.7 7.9-18.5 9-23.2 9.9-25 12.9-26.1 1.7-.7 4.2-3.5 6.6-7.3 3.1-5.2 3.7-6.9 3.3-9.8-.4-2.3.1-5.2 1.3-8.4 2.5-6.2 2.5-10.2 0-15.7S266.1 2.9 262.2 2.5c-.9-.1-2.5-.6-3.5-1-.9-.4-3.3-.4-5.2-.1-2.2.4-3.5.3-3.5-.4 0-.6-4.2-1-11.6-1-7.6 0-11.3.3-10.9 1"/></svg>