<svg xmlns="http://www.w3.org/2000/svg" width="682.667" height="512" version="1.0" viewBox="0 0 512 384"><path d="M218.5 1.4c-1.6.7-3.5 1.1-4.2.9-.7-.3-2.2.5-3.4 1.6s-2.6 1.8-3 1.5c-.9-.5-13.9 2.7-19.1 4.8-3.3 1.2-3.3 1.2-1.3 6.8 1.4 3.9 1.4 4.5 0 6-2.4 2.6-1.7 7 2.3 14.5 3 5.8 4.1 7 6.1 6.9 3.5-.1 7.4 9.4 10.6 25.7 1.4 7.4 2.9 15.4 3.4 17.9s.8 4.6.6 4.8-2-.1-4.2-.7c-6.2-1.7-12.4-1.3-17.3 1.1-6.2 3.2-8.3 6.6-8.8 14.1-.3 5.3.1 7.6 3 15.2 1.9 5 4.3 12.1 5.3 16 1 3.8 2.6 8.6 3.6 10.6 2.1 4.2 7.2 8.9 9.7 8.9 4.1.1 4.5 1.6 1.6 6.1-1.5 2.4-4 5.9-5.5 7.7-6.1 6.9-1.7 18.9 9.4 25.9l3.9 2.5-.6 6c-.6 4.6-.4 6.4.7 7.7.9.9 2.2 4.1 3.1 7.1 1.8 6.2 10.7 17 11.4 13.8.2-.9-.3-2.7-1.2-4-2-3.1-3.2-9.8-1.7-9.8 1.4 0 1.5-3.7.1-4.5-.5-.3-1-1.4-1-2.3.1-1.6.2-1.6 1.4 0 2 2.7 2.9 2.1 2.1-1.5-.7-3.3-.9-8.6-.6-14.6.1-3.2.2-3.3 3.4-2.7 4.2.8 5 0 3-3-1.4-2.2-1.4-2.5.8-4.4 1.6-1.3 1.9-1.9.9-2-1.1 0-1.1-.3-.2-1.2 1.8-1.8 1.5-5.5-.5-6.7-1.7-1-1.7-1.2-.1-2.4 2.8-2.2 1.7-10.5-1.7-13.5-3.5-3-3-5 4.1-14.9 3.1-4.3 6-8.8 6.5-10.1s.9-6.2.9-11c0-12.3 1.6-21.7 4.4-26.5 1.4-2.3 4.7-10.3 7.6-17.7 10-26.5 9.5-25.3 13.6-28.2 2.5-1.7 5.1-5 7.4-9.2 3-5.6 3.3-6.9 2.3-8.6-1.1-1.6-.9-2.8.7-7 3.7-9.4 2.1-16.2-5.8-24.3L267.6 0h-23.1c-16.6.1-23.8.4-26 1.4"/></svg>