<svg xmlns="http://www.w3.org/2000/svg" width="682.667" height="512" version="1.0" viewBox="0 0 512 384"><path d="M208.5 1c-.3.5-1.1.7-1.8.4-.7-.2-5.5.8-10.7 2.4-10.6 3.1-11.2 3.8-8.7 10.9 1.3 3.7 1.2 4.1-.5 5.2-2.6 1.6-2.2 4.6 1.7 12.6 2.7 5.5 4.2 7.4 6.7 8.6 5.8 2.5 9.6 12.9 14.3 38.9.7 4.1 1.6 8.3 2 9.2.6 1.5.3 1.6-3.1.6-6.3-1.7-17.4-.7-21.2 2-7.5 5.4-8.7 14.8-3.4 27.6 1.8 4.3 4.3 11.6 5.6 16.1 3.4 12.1 6.7 17.3 12.7 19.8 2.9 1.2 4.9 2.7 4.9 3.7 0 1.8-4.4 10.4-7.1 13.9-4.1 5.2-1.7 12.3 6.4 19.8l5.7 5.1-1.1 5.8c-.8 4.1-.8 6.4 0 8.1.6 1.3 1.1 3.7 1.1 5.2 0 6.1 1.4 9.3 6.1 14.1 3.5 3.6 5.3 4.7 6.8 4.3 2.7-.7 2.6-2.3-.4-8.3-2.8-5.5-3.1-7.2-1.2-6.5.6.3 1.9.1 2.7-.5 1.2-.7 1.1-1.3-1-3.5-1.9-2-2.5-3.9-2.8-9l-.4-6.5 4.3-4.2c3.8-3.7 4.8-4.2 8.2-3.9l3.9.3-1.8-2.6c-1.5-2.3-1.5-2.9-.2-4.4 1.9-2.2 1.5-7.4-.7-10.8-1.6-2.4-1.6-2.6.4-3.1 1.5-.4 1.8-.9 1.2-2.2-.5-.9-1.1-3.2-1.5-5.3-.4-2.3-1.6-4.2-3.2-5.3-3.4-2.2-2.7-4.9 3.6-13.5 7.7-10.7 8.2-11.9 7.9-22.3-.4-12.9.9-21.2 4.3-28.1 1.6-3.2 5.5-13.3 8.7-22.5 6.9-19.7 8.1-22.3 11.4-23.8 1.5-.7 4.1-4 6.2-7.7 2.9-5.2 3.5-7.2 3-9.8-.4-2 0-5.1.9-7.7 2.9-7.9 1.4-16.4-3.6-21.8C272.7 0 272.6 0 240.9 0c-19.1 0-32 .4-32.4 1"/></svg>