<svg xmlns="http://www.w3.org/2000/svg" width="682.667" height="512" version="1.0" viewBox="0 0 512 384"><path d="M214.9.7c-.1.5-.3 1.7-.4 2.8-.2 1.1-.6 3.9-1 6.3l-.8 4.2 4.1 1.8c4 1.6 4.2 1.9 5.8 8.9 1.9 8.5 1.3 10.9-3.1 13-1.8.9-3.1 2.1-2.9 2.7s-.6 1.2-1.8 1.3c-2.3.1-14.3 2.4-22.8 4.4-3.1.7-4.6 1.6-4.8 2.7-.1.9-.4 6.6-.6 12.6-.5 10.8-.5 11.1 2.7 16.9 2.3 4.4 4 6.4 6.4 7.3 2.3 1 4 2.9 5.9 6.5 2.4 4.8 7.4 24.7 8.8 35l.7 4.5h-8.8c-7.5-.1-9.4.3-12.9 2.3-5.7 3.2-7.4 7.2-7.4 17.3 0 7.7.3 8.8 5 18.9 2.8 5.9 5 11.2 5 11.6 0 .5 1.1 3.8 2.5 7.3 2.9 7.5 8.5 13.7 13 14.6 2.8.5 3.2 1 3.3 3.9.1 1.9-.5 5.6-1.3 8.2-2.8 9-1.3 18.1 4 24.3.8.9 1.5 5.6 1.9 11.5 1 19.3 3 25.1 10.4 31.4 2.8 2.2 5.3 4.1 5.7 4.1s.5-1.4.2-3c-.4-1.9-.2-3 .4-3 .7 0 .8-.7.4-1.7s-.9-4.2-1-7.1c-.1-4 .1-5.2 1.3-5.2 1.3 0 1.3-.2 0-1.8-2.6-2.8-4.8-9.2-4.8-13.7 0-4.1.2-4.4 3.3-5 6.1-1.2 8.6-2.7 10.2-6.2 1.7-3.5 1.9-3.7 7-4.8l3-.7-2.3-1.8c-2-1.7-2.2-2.2-1.1-4.2.7-1.3 1.1-2.5 1-2.8-.2-.3-2.3-6.1-4.7-13-2.5-6.9-5.1-13-5.9-13.6-1.6-1.2-1.8-.5 5.4-13.9l3.3-6-.6-16.3c-.7-16-.6-16.4 1.8-21.2 2.6-5.1 9.4-24.7 14-40.2 2.1-7 3.2-9 5.4-10.3 5.3-3.2 11.7-20.9 11.5-31.8-.2-7-4.6-17.6-9.1-22-5.2-5.1-8.3-6-19.3-5.8l-9.6.2-1.6-6.4c-.9-3.5-2.2-10.8-2.8-16.1L235.7 0h-10.4c-5.6 0-10.4.3-10.4.7"/></svg>