<svg xmlns="http://www.w3.org/2000/svg" width="682.667" height="512" version="1.0" viewBox="0 0 512 384"><path d="M236 77c-.8.5-2.5.7-3.7.4-2.6-.7-5 .5-6.6 3.4-8 14.3-11.6 21.5-11.2 22.3.4.5-.1 3.4-1 6.4-.9 3.1-1.3 6-1 6.6.4.5 2.3 1.7 4.3 2.7 3.5 1.6 3.8 2.1 5.2 9.2.8 4.1 1.8 7.9 2 8.5.3.5.4 4.3.2 8.2-.3 6.9-.5 7.3-2.7 7.3-1.3 0-2.7.5-3 1-.4.6-1.1.7-1.7.4-.6-.4-2.6-.9-4.5-1.1-1.8-.2-5.6-1.7-8.5-3.4-3.1-1.9-5.4-2.7-5.6-2-.2.6-1.7 1.1-3.3 1.1s-2.9.3-2.9.7c0 .5-.5 6.3-1 13.1-.9 12-.9 12.4 1.7 18.8 2 5.2 3.4 7.1 6.4 9 6.1 3.8 6.5 5.2 11.7 43.4l.7 5.5h-9c-7.2 0-9.8.4-12.9 2.1-7 3.6-8 5.9-8.1 18.2v10.7l4.6 7.5c2.6 4.1 6.7 11.8 9.2 17.1 5.1 10.6 8.9 15.1 14.6 16.7 2.5.8 4.2 2.1 5 3.9 1.1 2.3 1 2.5-.3 1.3-1.3-1-1.6-1-1.6 0 0 .7.6 1.8 1.4 2.4 1.1.9 1.2 2.8.7 9.1-.9 8.8.4 20.1 2.5 22.6.8.8 1.4 2 1.4 2.6 0 1.3 2.3 2.3 5.2 2.3 1.3 0 2.4-1 3.1-3 .9-2.2 1.7-3 3.2-2.8 2 .3 2.2 1 1.2 5.8-.7 3.7 2 11.8 4.4 13 1.1.6 1.7 1.5 1.3 2.1s-1.1.6-2-.2c-2-1.6-2.8-.5-1.5 2 .7 1.1.9 3.1.6 4.4-.4 1.2-.1 3.5.4 5l1.1 2.7h276v-28H382.3c-113.2 0-130.2-.2-132.7-1.5-1.5-.8-4.9-1.5-7.5-1.5-2.5 0-5.3-.5-6.1-1-1.8-1.1-2-1.1 5-1.7 8.7-.7 14.5-5.5 14.3-12-.1-2.7.5-3.6 3.3-5.2 3.9-2.3 4.2-3.4 1.3-5.4-1.1-.8-2.1-2.6-2.3-4.1-.1-1.4-.5-2.9-.9-3.2-.3-.3-.3-1.2 0-2s-.2-1.7-1.1-2-1.6-1-1.6-1.5c0-.6-1.7-2.7-3.7-4.8-4.6-4.5-8.3-9-8.3-9.9 0-.4 1.4-4.3 3.1-8.7 2.7-6.7 3.1-9.3 3-15.7 0-4.2-.5-8.8-1.1-10.2-.5-1.4-1-5.4-1.2-8.9-.2-5.6.3-7.4 4.9-17.7 2.8-6.3 6.5-15.8 8.3-21 7.3-21.7 8.2-23.9 10-24.5 4.1-1.3 12.8-21.2 11.6-26.3-.4-1.5-.7-4.1-.6-5.7 0-1.7-.9-4.8-2-7-1.1-2.1-2-4.7-2-5.6 0-2.3-4.8-6.8-7.9-7.5-1.4-.3-3.5-.9-4.6-1.3-1.1-.5-3.1-.4-4.4.1-2.3.8-8.4 1-15.8.5-2.7-.2-3.2-.6-3.1-2.7 0-1.4-1.1-9.4-2.5-17.8-2.7-16.8-2.9-14.7 2.4-25.4 1.9-3.7 2.5-9.8 1.2-11.2-.4-.3-.7-2.1-.7-3.9-.1-3.4-1.9-4.5-4.6-2.7m10.3 278.7c-1.3.2-3.5.2-5 0-1.6-.2-.5-.4 2.2-.4 2.8 0 4 .2 2.8.4m-30.2-2.9c-.1.8-.9 1-2.6.6-1.9-.5-2.5-.2-2.5 1 0 1.5-9.2 1.6-105.5 1.6H0v28h111.5c88.5 0 111.5-.3 111.5-1.3 0-.6-.5-3-1.2-5.2-.6-2.2-2.1-9-3.4-15-1.2-6.1-2.3-10.4-2.3-9.7"/></svg>