<svg xmlns="http://www.w3.org/2000/svg" width="682.667" height="512" version="1.0" viewBox="0 0 512 384"><path d="M228.3 163.2c-3.5 3.8-13.3 22-13.1 24.2.1 1.2-.4 4-1.1 6.3-1.7 5.2-1.1 6.9 3.3 8.7 2.6 1.1 3.6 2.2 4.1 4.8 1.4 7.2 1.5 7.2 4.3 2.9 3.2-5 7.3-6.9 11.4-5.3 2.5.9 2.8.9 2.4-.6-.3-.9-1-4-1.5-6.7-.5-2.8-1.2-5.7-1.6-6.6-.3-.9.1-2.2 1-2.9.8-.7 1.5-1.9 1.5-2.6 0-.8 1.4-3.9 3.1-6.9 3.5-6.3 3.5-6 1.7-8.8-.8-1.2-1.3-3.4-1.2-5 .2-2.2-.1-2.7-1.9-2.7-1.2 0-2.8.4-3.6.9-1 .6-2.2.5-3.5-.5-2.7-1.8-2.9-1.8-5.3.8m11.7 46.9c0 1.1.5 4 1.1 6.5.8 3.2.8 4.8 0 5.7-.8 1-.7 2.6.6 6.3.9 2.7 1.8 4.3 2 3.7.3-.8 1.3-.6 3.3.5 4.8 2.8 5.6.7 3-8-3.3-11.1-10-21-10-14.7m-22.1 12.8c-3.8 7.8-5.3 9-8.2 6.4-1.9-1.8-9.7-2.6-9.7-1.1 0 .5-.6.7-1.2.5-.9-.1-1.4 1.9-1.6 7.3-.2 4.1-.7 7.9-1.3 8.6-1.6 2-1.3 20.4.5 23.2 1.7 2.8-.5 2.3-3.4-.8l-3-3.2v5.6l-4.6-4.4c-3.7-3.6-4.6-4-4.1-2.3.3 1.2 0 2.4-.7 2.6-.8.3-.6 1.3.5 3.4 1.6 2.9 1.5 3.1-.2 4.4-1.1.8-1.7 1.9-1.4 2.6.3 1-17.3 1.3-89.5 1.3H0v107h98.5c54.2 0 98.5-.2 98.5-.5 0-.8-2.4-4.7-9.9-15.8l-6.6-9.9-.2-10c-.1-5.9.2-10.9.9-12.2 1.8-3.4 5.3-6.5 9.3-8.2 4.2-1.7 15.6-2.3 19.4-1 2 .7 2.3.6 1.8-.8-.4-1-1.2-10.1-1.7-20.4-.6-10.3-1.4-20.1-1.9-21.7-.4-1.7-2.3-4.6-4.1-6.5-4.6-4.9-5.7-6.9-6.4-11.8-.6-3.9-.5-4.2 1.1-3.3 1 .5 2.8 1.9 4.1 3.1 2.1 2 2.3 2 2.8.3.3-1 1-2.6 1.5-3.5.5-1 .9-4 .9-6.7 0-2.8.4-5.2.9-5.5.4-.3 1.1-2.8 1.4-5.6.3-2.7 1.3-6.5 2.2-8.3 1.4-2.9 2-3.3 5.4-3.3 2.4.1 4.7.9 6 2l2.1 1.9-.1-6.4c-.1-6.6-1.8-13-3.6-13.6-.6-.2-2.6 2.8-4.4 6.6m41.1 8.5c-1.4.8-2.8 1.2-3.3.9-1.2-.7-3.8 1.8-3 3 .3.5.7 2 .8 3.1.8 6.4 3.7 21.1 4.5 22.6.6 1 1 3.1 1 4.6v2.8l2.5-3.5c3.5-4.9 5.8-7 6.6-6.2.4.5 1 2.6 1.3 4.7.8 4.9 1.2 5.3 3.6 3.8 2.7-1.7 2.8-1.6 2.8 2.5 0 4.2-2.1 8.3-4.2 8.3-1.7 0-5.2 7.1-10.1 20.5-2.1 5.5-6.8 16.2-10.6 23.8-6.8 13.8-6.8 13.9-5.9 19.4.5 3.1 1.4 7 1.9 8.7 2.6 8.8 1.7 21.1-2.5 32-.6 1.5 9.5 1.6 133.5 1.6H512V277l-110.7-.1c-61-.1-111.1-.1-111.5 0-1.1.1-1-.7.3-3 .7-1.5.7-2.4 0-3.3-.6-.7-1-2.4-.9-3.6.5-3.6-1.5-3.3-6.4 1-4.5 3.9-7.2 5.4-4.9 2.6.6-.7 2-3.9 3.1-7 3.2-9.4 1-29.6-3.2-29.6-.7 0-2.2-1-3.5-2.1-1.9-1.8-2.5-2-3.8-.9-1.2 1-2.1 1-4.1.1-3.2-1.4-4.3-1.4-7.4.3"/></svg>