<svg xmlns="http://www.w3.org/2000/svg" width="682.667" height="512" version="1.0" viewBox="0 0 512 384"><path d="M217.6 1.7c-.3 1-1.3 7.2-2.2 13.8-1.3 8.9-1.8 20-1.9 43.5-.1 20.6-.8 37.4-1.9 48.5-1.8 18.3-2.5 23.9-3.1 23.4-.2-.2-.8-3.9-1.4-8.2-2.3-16.8-7.3-18.4-8.7-2.8-.6 6.6-2.2 10.2-3.2 7.3-.2-.7-1-1.2-1.8-1.2-1 0-1.4 1.3-1.4 4.4 0 3.4-.4 4.6-1.8 5-1 .4-2.3 1.8-2.9 3.4-.9 2.5-1.1 2.5-1.7.7-2-5.6-3.7-8.5-4.6-8-.5.3-2.6-2.7-4.5-6.7-4.2-8.4-6.1-10.8-8.7-10.8-1.4 0-1.8.8-1.8 3.7 0 2.1-.8 5-1.8 6.5-1.7 2.5-1.7 3.5-.6 10 1.3 7.3 1.7 12.6 1.5 18.3-.1 2.3-.4 2.7-1.1 1.5-.8-1.3-1-1.3-1 .2 0 6.7-5.5-2.9-12.6-22.2-5.9-16-7.6-20-8.5-20-1.9 0-.7 6.7 3.1 17.7 4.4 12.9 4.4 12.7 3.1 11.8-.6-.3-.8 1-.4 3.2l.5 3.8-2.9-4.5c-1.7-2.5-4-5.4-5.3-6.5l-2.3-2 .5 2c.4 1.1 1.8 5.4 3.4 9.5 1.8 5 2.3 7.5 1.5 7.8-.6.2-1.1 1.3-1.1 2.5 0 1.7-1 2.5-4.2 3.5-5.4 1.7-21.4 7.8-25.3 9.7-6.5 3-12.4 5.4-20.8 8.4l-8.9 3.1H0v202h102c56.1 0 102-.2 102-.5 0-.4-.7-2-1.7-3.8-1-2-1.8-6.5-2-12.5-.4-7.7-.1-9.9 1.5-13.5 1.1-2.3 2.3-6.2 2.7-8.6.4-2.6 1.8-5.5 3.5-7.5 2.4-2.6 3.5-3.1 7.4-3 2.4 0 5.7.9 7.1 1.8l2.7 1.8-.5-4.4c-.3-2.3-1.2-8.1-2.1-12.8s-1.6-8.6-1.6-8.7c0-.2-1.7-1.1-3.7-2.1-3.7-1.7-3.8-1.8-3.4-6.7.4-5.7.3-5.5 8.3-19.2 6.7-11.3 9.7-13.4 12.8-9.2 1.6 2.1 1.8 2.1 4.3.4 3.7-2.4 5.3-1.4 6.1 3.9.6 3.8.3 5.1-1.8 8.5-1.5 2.2-2.6 4.9-2.6 5.9 0 1.1-.9 2.9-2 4.2-1.2 1.3-1.9 2.9-1.6 3.6.9 2.5 2.4 9 3.6 16.4.7 4.1 1.6 9.1 2.1 11 .6 2.2.5 3.6-.1 3.8-1.4.5-1.2 5.2.3 8.1.6 1.4 2.3 2.8 3.7 3.2s5.2 1.5 8.5 2.4c9 2.6 14.4 4.5 20.3 7.1 2.9 1.3 5.7 2.4 6.3 2.4 2.1 0 6.9 3.1 6.9 4.5 0 .8.7 1.8 1.6 2.3 1.5.8 1.4 1.4-1 5.5-1.8 3.1-2.5 5.3-2.1 7 .5 1.7-.1 3.2-2 5.5l-2.7 3.2H512V182H384.9l-6.2-3.1c-3.4-1.8-8.1-4.5-10.4-6.1-8.3-5.6-16-8.6-24.1-9.3-4.3-.3-9.9-.8-12.5-1.1-5.7-.7-5.7.1 1.5-15.8 2.7-5.9 4.7-11 4.5-11.3-.3-.2-3.5 5.3-7.1 12.4-9.5 18.2-7.2 10.6 3.3-11 4.9-10 8.7-18.4 8.4-18.7-.9-.9-6.7 6.6-13.2 16.9-5.4 8.5-6.7 10-8.4 9.5-1.4-.4-2.6.1-3.9 1.7l-1.9 2.4.6-6 .7-6-2.2 2-2.2 2 .2-5c.3-9.1.3-9.3-2.6-5.4-1.4 1.9-3.5 5.3-4.6 7.7-2.4 5-3.2 5-1.8.1.6-1.8 1-5.4 1-7.9-.1-4.3-.1-4.4-1.4-2-.8 1.4-2.2 5.1-3.2 8.2-1 3.2-2.1 5.8-2.5 5.8-.5 0-1.4-1-2-2.3-1.6-2.9-3-3.8-5.3-3.1-1.7.6-1.8.1-1-9.7 1.1-12.9 1.2-28.5.1-29.5-1.5-1.6-3.7 2.3-5.1 9.2-2.3 10.9-5.6 18.2-8.8 19.5-1.5.6-4 2.2-5.5 3.5-5 4.3-4.9 5.2-2.2-23.9.7-7.4.6-11.3-.1-12.7-1.4-2.6-1.5-2.6-4.3 1.5-2 2.9-2.6 3.3-3.1 1.9-.3-.9-1.3-16.1-2.1-33.8-.8-17.8-2.2-38.7-3-46.5-.8-7.9-1.5-14.7-1.5-15.2s-7.8-.9-17.4-.9c-15.8 0-17.5.2-18 1.7M266 198.6c0 .9-.7 1.4-1.7 1.2-2.5-.5-2.8-2.8-.4-2.8 1.2 0 2.1.6 2.1 1.6m0 18.5c0 2.2-2.5 2.6-3.3.5-.6-1.6 1.2-3.8 2.5-3 .4.3.8 1.4.8 2.5m-10.5 6.8c-1 3.2-3.2 2.5-3.8-1.2-.6-4.4.2-5.3 2.5-2.9 1.4 1.3 1.8 2.6 1.3 4.1m-11.9-.8c1 1.7-1.3 3.6-2.7 2.2-1.2-1.2-.4-3.3 1.1-3.3.5 0 1.2.5 1.6 1.1m6.8-.2c.3.5-.1 1.5-1 2.2-1.3 1-1.7 1-2.5-.2-.5-.8-.9-1.7-.9-2.2 0-1 3.8-.9 4.4.2m-17 11.9c-.4 1.2-1 2.2-1.4 2.2-1 0-2-5.2-1.3-6.3 1-1.7 3.2 1.8 2.7 4.1m-4.4 3.8c0 1.3-.4 2.4-.9 2.4-1.3 0-2.4-3.7-1.6-5 1-1.6 2.5-.1 2.5 2.6m19 1.4c0 1.1-.4 2-1 2-.5 0-1-.9-1-2s.5-2 1-2c.6 0 1 .9 1 2m-3.6 1.8c.8 1.3-1.1 3.5-2.3 2.8-1.6-1-1.4-3.6.3-3.6.8 0 1.7.4 2 .8m-5.7 2.8c.8 2.1-1.3 4.2-2.8 2.7-1.3-1.3-.5-4.3 1.1-4.3.6 0 1.3.7 1.7 1.6m-5.7 1.5c0 .5-.7.9-1.5.9-1.5 0-2-1.2-.9-2.3.8-.8 2.4.1 2.4 1.4m-8.2 1.8c.3.8-.1 1.2-.9.9-.7-.2-1.5-1-1.7-1.7-.3-.8.1-1.2.9-.9.7.2 1.5 1 1.7 1.7m22.2 1.6c0 .8-.7 1.5-1.5 1.5-1.6 0-2-1.2-.8-2.3 1.1-1.2 2.3-.8 2.3.8m-14.7 5.2c-.5 1.2-.7 1.2-1.4.1-.5-.7-.9-1.9-.9-2.7 0-1.1.3-1.1 1.4-.1.8.6 1.2 1.8.9 2.7m25.2-1.7c.7 1.1-1.7 6.1-3.8 7.8-1.2 1-1.6 1-2-.1-.3-.8-.1-2 .4-2.8.4-.8.6-2.4.2-3.6-.4-1.9-.1-2.3 2-2.3 1.4 0 2.9.4 3.2 1m-10.3 4.2c-1.5 1.5-2.6.4-1.8-1.8.5-1.3.9-1.5 1.8-.6s.9 1.5 0 2.4m-9.5 4.4c-.9.9-2.8-.6-2.1-1.8.4-.6 1-.6 1.7.1.6.6.8 1.3.4 1.7m8.1 2.1c.4 2.6-.1 2.8-2.9 1.3-2.7-1.5-2.5-4.2.4-3.8 1.4.2 2.3 1.1 2.5 2.5m8.2.8c0 .8-.7 1.5-1.5 1.5-1.6 0-2-1.2-.8-2.3 1.1-1.2 2.3-.8 2.3.8m5.5 6.3c0 1.8-2 1.5-2.3-.4-.3-1 .1-1.5 1-1.2.7.3 1.3 1 1.3 1.6"/></svg>