<svg xmlns="http://www.w3.org/2000/svg" width="682.667" height="512" version="1.0" viewBox="0 0 512 384"><path d="M209.9 7.2c0 4-.2 8.4-.4 9.8-.6 3.7-2.4 34.3-3.1 52.2-.4 8.7-1 15.8-1.4 15.8-.9 0-2.2-5.4-4-15.5-2-11.4-3.9-17.5-5.5-17.5-3 0-3.8 4-3.3 17.1.5 12.1.5 12.7-1.2 11.6-1.4-.8-2.2-.8-3.4.3-.9.7-1.9 1.1-2.1.8-.3-.3-2.6-4.7-5.1-9.9-5.1-10.5-6.9-12.9-9.6-12.9-3.7 0-3.6 2.2 2.4 34.1 2 10.6 2.9 17.6 2.4 19.4l-.7 2.9-2-4.4c-1.1-2.5-3.3-6.5-4.9-9s-4-8.8-5.5-14-3.4-11-4.3-13l-1.6-3.5-.4 3.2c-.2 1.8.1 4.9.7 6.9 1.8 6.4-.6 2.3-3.2-5.6-3.2-9.4-5.7-15.3-6.3-14.8-.2.3 1.7 6.3 4.2 13.4 7.5 20.9 10.2 31.4 8.3 31.4-.5 0-.9-.6-.9-1.3-.1-.6-.9-3-2-5.2-1.3-2.8-2-3.4-2-2-.1 2.7-5.5-9-9-19.7-3.5-10.5-4.6-12.8-6.5-12.8-1.7 0-2.9 5.1-2 9.2.4 1.8 2.5 8.7 4.6 15.3s3.9 12.9 3.9 14c0 1.8-.1 1.8-1.6-.3-1.9-2.8-3.4-2.8-3.4-.1 0 1.6-1.3.3-4.9-4.6-2.7-3.7-6.1-7.3-7.6-8.1-2.6-1.3-2.7-1.3-2.2.8.2 1.3 1.7 5.4 3.2 9.3 5.2 13.5 6.6 17.7 6.1 18.2-.3.3-2.8 0-5.6-.7-6.6-1.6-14.6-.7-27.5 3-5.5 1.6-15.5 4.3-22.3 5.9-6.8 1.7-14.4 4-16.9 5.1s-4.9 2-5.4 2-3.2 1.1-6.1 2.4c-11 4.9-15.4 5.6-34.1 5.6H0v242h205.5l3.8-4.1c3.5-3.7 4.2-4 8-3.6 2.3.3 4.9.8 5.8 1.2 2.3.9 3.5-4.1 1.6-6.4-.8-.9-1.7-4.1-2.1-7.1-1.2-9-1.5-9.6-5.8-11.4-4-1.5-4.1-1.6-3.5-5.8.8-5.5 2.4-9.1 9.6-20.8 6.4-10.5 9-12.1 12.2-7.8 1.4 1.8 2 2.1 3 1.1 2.2-2.2 5.9-1.5 6.9 1.3 1.5 4 1.2 6.2-1.5 10.2-1.4 2-2.5 4.5-2.5 5.6s-.9 2.9-2 4.1c-1.9 2-1.9 2.5-.6 8.6.8 3.5 2.2 10 3.1 14.4s1.8 9 2.1 10.3c.3 1.5 0 2.2-1.1 2.2s-1.5.6-1.1 1.7c.2 1 .7 2.8 1.1 4l.6 2.3H512V142h-40.1c-40.4 0-46.9-.5-54.4-4-14.9-7-21.4-9.1-33.3-11-13.7-2.2-16-2.9-29.7-9.5-4.9-2.3-10.3-4.7-12-5.2-1.6-.5-2.9-1.5-2.7-2.1.3-1.7-.9-1.5-2.4.5-1.1 1.5-1.3 1.5-1.3.3 0-4.1 3.3-13.9 9.1-27 7.1-15.9 7.6-17.2 8.9-21.4.8-2.8.8-2.8-1.2-1-1.1 1-5.2 7.1-9.2 13.6-9.1 15.1-15.3 23-17.5 22.6-1.5-.3-1.7-1.5-1.4-8.1.4-10.2-1.3-10.2-7.8 0-2.8 4.3-5 7.1-5 6.3s.7-5.6 1.5-10.5c1.9-11.6 2-11.3-1.2-10.9-3.5.4-5.4 2.9-9.3 12.8-3.7 9.2-5.6 12.6-7 12.6-1.3 0-1.3-8.2 0-13.5 1.9-8.4 4.2-36.9 3.1-39.8-2-5.1-3.6-2.9-6.6 8.7-1.5 6.1-3 8.6-4.9 8.6-.7 0-2.5 1.3-4.1 3-2.5 2.6-2.9 2.8-4 1.3-.9-1.2-2.1-1.4-4.3-1l-3.2.6v-5.7c0-3.1.5-10 1-15.2 1.7-15.8-.7-19.2-7.4-10.4-3.3 4.3-3.5 4.4-4.1 2.2-.5-2.3-4.5-35.3-4.5-37.6 0-.9-5.4-1.2-23.5-1.2H210zm62.4 155.4c.9.9-1.4 5.4-2.8 5.4-1.2 0-1.7-2.4-.9-4.8.4-1.2 2.6-1.6 3.7-.6m-30.1 24.6c.3.7.2 2.4-.2 3.8l-.6 2.5-1.3-2.3c-1.3-2.4-.9-5.2.8-5.2.5 0 1.1.6 1.3 1.2m29.6 6c-.4 2.7-2.8 3.6-2.8 1 0-2 .8-3.2 2.2-3.2.5 0 .8 1 .6 2.2m-11.4 1.7c1 1.6-.5 4.1-2.5 4.1-1.4 0-1.9-.7-1.9-2.5s.5-2.5 1.9-2.5c1.1 0 2.2.4 2.5.9m-7.7 4.7c.8 2.2-1.5 4.4-2.6 2.5-1-1.6-.4-4.1 1-4.1.5 0 1.2.7 1.6 1.6m-23.2 6.4c0 1.3-.5 2.5-1.2 2.7-1.3.5-2.7-3.2-1.8-4.7 1.1-1.8 3-.5 3 2m-7.5 5.3c0 3.2-1 4-2.6 1.9-1.9-2.5-1.7-4.2.6-4.2 1.4 0 2 .7 2 2.3m25-.9c0 .2-.3 1.2-.6 2-.5 1.3-.9 1.4-2 .5-1.6-1.3-.9-2.9 1.2-2.9.8 0 1.4.2 1.4.4m-12.2 5c.2 1-.1 2.3-.6 2.8-1.2 1.2-3.6-2.7-2.7-4.3 1-1.5 2.9-.5 3.3 1.5m-6.8 1.1c0 1.4-.4 2.5-.9 2.5-1.2 0-2.3-2.9-1.5-4.1 1-1.8 2.4-.9 2.4 1.6m23 2.5c0 1.1-.7 2-1.5 2s-1.5-.9-1.5-2 .7-2 1.5-2 1.5.9 1.5 2m-34 1.1c0 2.4-2.3 2.1-2.8-.4-.2-1 .3-1.7 1.2-1.7 1 0 1.6.9 1.6 2.1m28 .9c0 1.1-.7 2-1.5 2-1.5 0-2.1-2.1-.8-3.3 1.2-1.3 2.3-.7 2.3 1.3m14 2.9c0 1.7-1.2 4.1-2 4.1-1 0-2-3.7-1.2-4.4.9-.9 3.2-.7 3.2.3m-10.9 1.4c-.1.4-.1 1.4-.1 2.2s-.4 1.5-1 1.5c-.5 0-1-1.2-1-2.6s.5-2.4 1.1-2.2 1 .7 1 1.1m-22.1 2.2c0 .8 0 1.8.1 2.2 0 .4-.4.9-.9 1.1-1.2.4-2.4-2.6-1.6-3.9.8-1.4 2.4-1.1 2.4.6m10.5 2.8c0 2.6-2 2.5-2.3-.2-.3-1.6.1-2.2 1-1.9.7.3 1.3 1.2 1.3 2.1m21.5 1.2c0 1.4-.6 2.5-1.4 2.5s-1.2-.9-1.1-2.3c.3-2.7.3-2.7 1.5-2.7.6 0 1 1.1 1 2.5m4-.5c0 1.1-.7 2-1.5 2-1.5 0-2.1-2.1-.8-3.3 1.2-1.3 2.3-.7 2.3 1.3m-28 1.4c0 .2-.3 1.2-.6 2-.5 1.3-.9 1.4-2 .5-1.6-1.3-.9-2.9 1.2-2.9.8 0 1.4.2 1.4.4m11.4.5c1.1 1.8-1.3 6.3-3.1 5.9-2.5-.5-2.8-3.7-.6-5.3 2.1-1.7 3-1.8 3.7-.6M258 238c0 1-.4 2.2-1 2.5-.6.4-1-.7-1-2.5s.4-2.9 1-2.5c.6.3 1 1.5 1 2.5m-25.2 7.4c.2 1-.1 2.3-.6 2.8-1.2 1.2-3.6-2.7-2.7-4.3 1-1.5 2.9-.5 3.3 1.5m35.3 1.5c-.7 1.2-1.6 2.1-2.1 2.1-1.4 0-1.2-3.4.2-4.8 1.8-1.8 3.2.2 1.9 2.7m-4.7-.1c.6 1-1.9 4.3-2.7 3.5-1.3-1.2-.7-4.3.7-4.3.8 0 1.7.3 2 .8m-38.3 5.4c2 2.5 2.5 4.8 1 4.8-1.1 0-5.1-4.8-5.1-6.1 0-1.7 2.2-.9 4.1 1.3m25.9 1.2c0 .8-.4 1.7-.9 2-1 .7-2.3-1.9-1.4-2.8 1.1-1.1 2.3-.6 2.3.8m7 1.3c0 .5-.8 1.8-1.8 3.1l-1.8 2.3-.2-3.1c-.2-2.4.2-3 1.8-3 1.1 0 2 .3 2 .7m-9.5 9.1c0 1.8-2 1.5-2.3-.4-.3-1 .1-1.5 1-1.2.7.3 1.3 1 1.3 1.6m7.1 2.3c.3.6-.1 1.8-1 2.7-1.5 1.5-1.6 1.4-1.6-1.1 0-2.7 1.3-3.6 2.6-1.6m-5.8 3.9c-.3 2.1-.7 2.4-3 2.2-2-.3-2.8.1-2.8 1.2 0 2-1.6 2.1-2.4.1-.4-1.1-1.3-1.4-2.9-1-1.7.5-2.6.2-3-.9-.8-1.9.7-2.9 3.3-2.2 1.1.3 2.8.8 3.9 1.1 1.2.4 2 0 2.3-1.3.3-1 1.4-1.8 2.7-1.8 1.8 0 2.1.5 1.9 2.6m7.2 1.7c-.1.5-1.1 2.1-2.4 3.7-1.5 1.8-2.6 2.4-3.1 1.7-.3-.6.4-2.3 1.7-3.6 2.3-2.5 3.8-3.2 3.8-1.8m-7 6.3c0 .5-.7 1-1.5 1s-1.5-.5-1.5-1c0-.6.7-1 1.5-1s1.5.4 1.5 1m-8 1c0 .5-.9 1-2 1s-2-.5-2-1c0-.6.9-1 2-1s2 .4 2 1"/></svg>