<svg xmlns="http://www.w3.org/2000/svg" width="682.667" height="512" version="1.0" viewBox="0 0 512 384"><path d="M206 2.7c0 1.6-.7 10.7-1.5 20.3S203 41.2 203 41.9c0 1-.3 1.2-1 .5-1.3-1.3-3.6-12.4-5-24.9C195.6 5.7 193.9 1 191.1 1c-2.9 0-4.1 4.9-4.7 19.5-.3 7.1-.7 13.5-.9 14.2-.2.6-1.3.9-2.5.6-1.4-.4-3.6-3.5-6.7-9.7-5.9-11.7-8.9-15.6-12-15.6-1.3 0-2.6.7-3 1.6-.3.9.8 8.9 2.5 17.8 5.7 29.4 6.4 34 5.9 38.4-.4 4.1-1.2 6-2.1 5.1-.3-.2-2.7-8.7-5.6-18.7-2.8-10.1-6-20.4-7.2-22.8-3.2-7-4.3-4.2-2.4 6.7 2.5 14.5 1.9 17-1.5 6.4-7.1-21.6-8.8-23.5-3.4-3.7 5.8 21.6 4.4 19.1-7.5-13.1-4.1-11.2-6.5-14.7-9-13.2-1.8 1.1-1.1 15.4 1.4 26.3 3.9 17.4 4.1 18.8 1.7 19.5-1.3.3-2.5-.2-3.4-1.7-1.9-2.8-6.9-7.7-7.4-7.2-.2.2.3 2.1 1.1 4.1 2.1 5 2 5.5-.5 2.5-1.7-2-1.9-2.1-1.4-.5 5.1 14.2 6.7 19.6 6.2 20.2-.7.6-10.2-.8-19.4-2.8-6.2-1.3-16.5-1.1-21 .5-2.2.8-9.3 4-15.7 7.1-13.1 6.4-16.9 7.2-37.1 7.4-12.5.2-13.6.4-26.7 4C4.5 95 .8 96 .5 96S0 160.8 0 240v144h213.6l-.4-3.7c-.2-3.1.8-5.8 5.8-14.7 3.4-6 7.1-12.2 8.3-13.7 2.6-3.3 6-3.7 8-.9 1.3 1.9 1.6 1.9 4.9.6 3.4-1.5 3.6-1.4 4.7 1 1.7 3.7 1.4 6-1.4 10.4-1.4 2.2-2.5 4.8-2.5 5.8 0 1.1-1 3.2-2.1 4.6-2 2.5-2.1 3.1-.9 6.7l1.3 3.9H512V103.1l-5.2-1.6c-8.8-2.7-15-2.9-26.3-1-11.9 2.1-15.5 1.6-29-3.5-8.1-3.2-11.5-3.7-28.9-4.4-12.4-.6-16.7-2.2-27.1-10.2-11-8.4-19.1-11-26.2-8.3-1.5.6-6.8 3.6-11.8 6.9-8.8 5.7-15.5 9-18 9-2.1 0-2.6-2.9-1-6.7 1.9-4.5 1.9-5.2-.1-2.7-1.5 1.8-1.5 1.8-1-.6 2.8-13.2 5.4-20.9 13-37.3 4.7-10.4 8.6-19.6 8.6-20.5 0-3.5-5.9 4.4-12.6 16.8-8.3 15.5-12 21-14.1 21-1.4 0-1.5-1.1-.9-8.5.4-5.3.2-8.5-.4-8.5-.5 0-2.1 1.7-3.6 3.7l-2.6 3.8.6-4c2.1-13.6 1.9-14.6-3.7-15l-3.6-.3-2.7 8.1c-5 15.2-10.4 26.4-10.4 21.6 0-.8-.4-.8-1.4 0-2.9 2.4-6.6-7.2-4.7-12.2.9-2.3 5.8-30.9 7.6-44 .6-4.5.5-4.7-1.8-4.7-2.5 0-4.4 3.5-7.7 14.2-.6 2.1-1.7 3.8-2.4 3.8-.8 0-2.5.9-3.9 2-2.2 1.8-2.6 1.8-3.8.4-.9-1.1-2.5-1.5-5.1-1.2-3.3.3-4 0-4.4-1.9-.4-1.3-.1-5.1.5-8.6C279.5-.4 279.7 0 273 0c-5.6 0-6.1.2-7.2 2.7l-1.2 2.8-.4-2.8-.3-2.7H206zm70.6 136.8c.8 2-1.6 4.9-2.9 3.6-1.1-1.1 0-5.1 1.4-5.1.5 0 1.2.7 1.5 1.5m-36 24c.4.8 0 2.2-.7 3.1-1.2 1.4-1.4 1.3-2.1-.6-.9-2.3-.3-4 1.3-4 .5 0 1.2.7 1.5 1.5m22.1 17.2c-.1 2.6-.7 3.8-1.7 3.8-.8 0-1.5-.6-1.4-1.3.1-.6.2-2.3.3-3.7 0-1.5.7-2.5 1.6-2.5 1.2 0 1.5.9 1.2 3.7m14.1-1c-.5 2.5-2.8 2.8-2.8.4 0-1.2.6-2.1 1.6-2.1.9 0 1.4.7 1.2 1.7m-30.7 4.6c-.1.4-.1 1.4-.1 2.2s-.4 1.5-.9 1.5c-1.2 0-2.3-2.9-1.5-4.1.6-1.1 2.6-.8 2.5.4m-21.3 4.5c.2 1.4-.2 2.2-1.1 2.2-1.7 0-3-2.7-2.1-4.1.9-1.6 2.9-.4 3.2 1.9m31.7-.8c0 .7-.6 1.5-1.2 1.7-.8.3-1.3-.4-1.3-1.7s.5-2 1.3-1.8c.6.3 1.2 1.1 1.2 1.8m-42.2 7.1c-.8.8-1.4.6-2.2-.9-.6-1-.7-2.2-.4-2.6.4-.4 1.4 0 2.2.9 1.1 1.1 1.2 1.8.4 2.6m17.7.8c0 2.3-1.6 3.6-2.5 2.1-.9-1.4.1-4 1.5-4 .5 0 1 .9 1 1.9m-10 2.2c0 1.1-.4 1.7-1 1.4-.5-.3-1-1.3-1-2.1s.5-1.4 1-1.4c.6 0 1 .9 1 2.1m-13 4c0 1-.4 1.9-.9 1.9-1.2 0-2.3-2.9-1.5-4.1.8-1.4 2.4 0 2.4 2.2m44 4.5c0 .8-.7 1.4-1.5 1.4-1.5 0-2.1-2.1-.9-3.3 1-.9 2.4.2 2.4 1.9m-4 .4c0 1.1-.7 2-1.5 2-1.5 0-2.1-2.1-.8-3.3 1.2-1.3 2.3-.7 2.3 1.3m13.8-.3c-.5 2.5-2.8 2.8-2.8.4 0-1.2.6-2.1 1.6-2.1.9 0 1.4.7 1.2 1.7M232 208c0 2.3-1 2.6-2.8.8s-1.5-2.8.8-2.8c1.3 0 2 .7 2 2m12.5 1c-.5.8-1.1.8-1.7.2s-.7-1.6-.3-2.2c.5-.8 1.1-.8 1.7-.2s.7 1.6.3 2.2m-24.1 1.6c.7 1.9-.2 3.7-1.5 2.9-1.2-.8-1.2-4.5 0-4.5.5 0 1.2.7 1.5 1.6m41.3 2c.8 2.1-1.3 4.2-2.8 2.7-1.3-1.3-.5-4.3 1.1-4.3.6 0 1.3.7 1.7 1.6m-15.9 2.7c.2 1-.3 1.7-1.2 1.7-1.8 0-2.9-1.6-2.1-3.1.9-1.4 2.9-.6 3.3 1.4m-17.8 1.9c0 .5-.4.8-1 .8-.5 0-1-1-1-2.3 0-1.8.2-1.9 1-.7.5.8 1 1.8 1 2.2m39-.6c0 .8-.7 1.4-1.5 1.4-1.5 0-2.1-2.1-.9-3.3 1-.9 2.4.2 2.4 1.9m-25 1.5c0 2.5-3.3 2.2-3.8-.4-.2-1.2.3-1.7 1.7-1.7 1.5 0 2.1.6 2.1 2.1m19.6 3.5c-.5 1.3-1 1.4-1.8.6-.6-.6-.8-1.8-.4-2.8.5-1.3 1-1.4 1.8-.6.6.6.8 1.8.4 2.8m-33.6 6.5c0 2.5-3.3 2.2-3.8-.4-.2-1.2.3-1.7 1.7-1.7 1.5 0 2.1.6 2.1 2.1m43.1 1.1q0 1.5.6 0c.7-1.8 2.3-1.4 2.3.6 0 1.4-.8 1.9-3 1.9s-3-.5-3-1.9c0-2 3-2.6 3.1-.6m-54.7 7.4c.8 2.2.8 2.4-.8 2.4-1.8 0-2.9-1.6-2.1-3 .9-1.5 2.2-1.2 2.9.6m36 1.7c-.3.9-1 1.7-1.5 1.7-1.1 0-1.2-3.4-.2-4.4 1.1-1.1 2.4.9 1.7 2.7m10.6-.9c0 1.8-1.7 2.9-3 2.1-.8-.5-.7-1.1.1-2.1 1.5-1.8 2.9-1.8 2.9 0m-42.2 6.9c.2 1-.3 1.7-1.2 1.7-1.8 0-2.9-1.6-2.1-3.1.9-1.4 2.9-.6 3.3 1.4m39 3.9c-.4 2.7-2.8 3.6-2.8 1 0-2 .8-3.2 2.2-3.2.5 0 .8 1 .6 2.2M250 250c0 1.1-.4 2-1 2-.5 0-1-.9-1-2s.5-2 1-2c.6 0 1 .9 1 2m15 5.1c0 3.2-2.7 7.6-5.1 8.2-3 .8-4.1 0-3.7-2.6.1-1.2-.1-2.8-.5-3.5-1-1.6 0-3.2 2-3.2 1.1 0 1.4.6.9 2.4-1 4.2 1.1 3.8 2.8-.5 1.6-4 3.6-4.5 3.6-.8m5 2.3c-1.7 2.2-3.2.9-1.9-1.6.8-1.4 1.4-1.7 2.2-.9.7.7.6 1.5-.3 2.5m-39 3.3c0 2.5-.1 2.6-1.6 1.1-.9-.9-1.3-2.1-1-2.7 1.3-2 2.6-1.1 2.6 1.6m9-1.1c0 1.1-.6 1.5-2 1.1-1.1-.3-2-.1-2 .4s-.9.9-2 .9-2-.6-2-1.3c0-2 .7-2.4 4.5-2.5 2.6-.1 3.5.3 3.5 1.4m12.2 1.6c-1.5 1.5-2.6.4-1.8-1.8.5-1.3.9-1.5 1.8-.6s.9 1.5 0 2.4m-3.7.8c0 .8-1 1.6-2.2 1.8-2.5.4-2.9 1.2-1.3 2.8.8.8.6 1.5-.4 2.3-1.1 1-1.7.6-3-2-2.1-4.1-2-4.9.3-4.9 1.1 0 2.3-.5 2.6-1.1 1-1.5 4-.7 4 1.1m-8.5 4.6c0 .9-.7 1.4-1.7 1.2-2.5-.5-2.8-2.8-.4-2.8 1.2 0 2.1.6 2.1 1.6m19.8 1.7c.2 1.2-.3 1.7-1.7 1.7-1.5 0-2.1-.6-2.1-2.1 0-2.5 3.3-2.2 3.8.4m-8 .9c-.7 1.9-3.8 2.2-3.8.4 0-1 .9-1.6 2.1-1.6s1.9.5 1.7 1.2m-13.2 1.1c.3.8 0 2.5-.5 4-.7 1.7-.7 2.8-.1 3.2 1.7 1 1.2 6.5-.5 6.5-2.1 0-2.9-2.4-1.6-4.9.9-1.6.8-2.2-.6-2.9-1.4-.8-1.5-1.4-.3-4.1 1.3-3.3 2.7-4 3.6-1.8m4.6 4.2c0 .5-.5 1.1-1.1 1.3s-1.1-.4-1.1-1.3.5-1.5 1.1-1.3 1.1.8 1.1 1.3m-10.8 1.4c1.1 1.2 1.3 2.1.7 2.5-1.3.9-5.1-1.5-5.1-3.1 0-1.9 2.5-1.6 4.4.6m29.2.2c.8 1.4-1.8 3.1-3 1.9-.9-.9 0-3 1.4-3 .5 0 1.2.5 1.6 1.1m3.2 7.1c-.5 1.5-4.8 2.4-4.8 1s1.2-2.2 3.3-2.2c1 0 1.7.5 1.5 1.2"/></svg>