<svg xmlns="http://www.w3.org/2000/svg" width="682.667" height="512" version="1.0" viewBox="0 0 512 384"><path d="M127.5 1c-.3.5-.8 3.7-1.1 7.2-.5 5 .2 10.1 3 24.2 2 9.8 3.5 18 3.3 18.2-.3.4-8.1-8.2-12.5-13.5-.7-.9.2 2.2 1.9 6.9 3.8 10.6 4.3 12 3.6 12-.3 0-1.6-1.8-2.8-4-3.6-6.4-3.3-3.9.6 4.1 4 8.3 4.7 13.6 1.7 12-1.1-.6-9-2.9-17.8-5.2-23.4-6.1-25.8-5.7-48.2 7.8-13.7 8.2-14.9 8.5-38.8 6.8-6.1-.4-13.2-.5-15.8-.1l-4.6.7V384h213.6l4.4-7.7c9.1-16.1 10.9-18.4 13.8-18.1 1.6.2 3.1 1.2 3.6 2.4 1 2.1 1 2.1 4.2.2l3.2-1.9 1.6 2.3c2.1 3 2 6.4-.3 9.7-1 1.4-2.4 4.5-3 6.9-.7 2.3-1.6 4.2-2.1 4.2-.6 0-1 .4-1 1 0 .7 46.3 1 137 1h137V81h-2.9c-1.6 0-7.1 1.4-12.2 3-14.4 4.7-16 4.7-29 1-11.2-3.2-11.6-3.3-26.1-2.6-18 .8-20.6 0-34.1-10.7-11.5-9-12.7-9.7-18.7-10.4s-10.4.9-20.4 7.4c-11.1 7.3-18.1 9.7-27 9.4-2.6-.1-2.8-.4-2.4-3.1.3-2.1.1-2.7-.6-2-2.1 2.1-2.4.9-.9-3.8.8-2.6 1.5-5.9 1.5-7.5-.1-1.5 1.4-6 3.3-10.1 6.6-14.5 18-44.5 17.2-45.3-.7-.7-3.6 3.5-7.7 11.2-8.3 15.7-14 25.2-16.6 28.1-2.6 2.7-2.8 2.7-3.5.9-.4-1.1-.5-5.6-.2-10.1.5-7.7.5-8.1-1.6-8.7-1.7-.4-2.1-1.3-2.1-4.5 0-4.1-1.9-7.2-4.4-7.2-1.4 0-4.2 5.8-10 21-3.8 10.1-7 16-8.5 16-.5 0-2.1-1.4-3.6-3.2-3.2-3.7-3.1-4.6.8-25.3 1.4-7.2 2.8-15.6 3.2-18.8l.7-5.7h-4.9c-5.1 0-10.1 1.8-12.3 4.5-1 1.2-1.6 1.3-2.6.4-.8-.6-2.6-.9-4.1-.6-6.7 1.3-6.8 1.3-7.1-1.6l-.3-2.7H206l-.4 2.2c-.3 1.3-.7 7.2-1.1 13.2-.3 6-.9 11.4-1.2 11.9-1.1 1.8-3-5.5-4.4-16.6L197.6 0h-4.7c-3.4 0-4.9.4-5.3 1.6-.4.9-.4 7.1 0 13.8l.6 12.1-2.1-3.3c-2.5-3.8-4.6-4.9-6.5-3.3-1.1.9-1.9-.1-4.2-5.5-1.5-3.7-4.1-8.6-5.6-11-2.6-4.1-3-4.4-7.3-4.4-4.2 0-4.5.2-4 2.2.3 1.3 2.1 12 4 23.8 4.4 26.5 4.3 32.8-.3 14-3.5-14.4-6.4-22-8.3-22-1.2 0-.9 7.9.7 20 1.1 7.9-1.2 3.1-4-8.5-3.3-13.8-6.8-25.7-7.3-25.2-.2.3.6 4.7 1.7 9.8 4.7 20.9 9.1 43.2 8.7 44.3-.5 1.6-4.2-5.9-6.1-12.6-.9-3.1-2.5-7.3-3.5-9.4-1-2.2-4-10.4-6.6-18.4s-5.1-15.3-5.6-16.3c-1-1.8-3.4-2.3-4.4-.7m150.2 132.6c.8 2.2-1.5 4.4-2.6 2.5-1-1.6-.4-4.1 1-4.1.5 0 1.2.7 1.6 1.6M240 157.5c0 2.5-2.3 3.5-3.5 1.5-1-1.6.2-4 2-4 .9 0 1.5.9 1.5 2.5m23.5 17.5c0 2.2-2.9 1.8-3.3-.3-.3-1.4.1-1.8 1.5-1.5 1 .2 1.8 1 1.8 1.8m14.1 2.6c-.5 1.3-1 1.4-1.8.6-.6-.6-.8-1.8-.4-2.8.5-1.3 1-1.4 1.8-.6.6.6.8 1.8.4 2.8m-30.6.3c0 2.5-2 3.8-3.1 2-1.5-2.3-1-3.9 1.1-3.9 1.3 0 2 .7 2 1.9m17 2.1c0 .5-.5 1.2-1.1 1.6-1.4.8-3.3-1.1-2.5-2.5.7-1.1 3.6-.4 3.6.9m-40 4c0 1.1-.7 2-1.5 2s-1.5-.9-1.5-2 .7-2 1.5-2 1.5.9 1.5 2m33.8.7c-.5 2.5-2.8 2.8-2.8.4 0-1.2.6-2.1 1.6-2.1.9 0 1.4.7 1.2 1.7m-45.4 4c.4.9.3 2-.2 2.5-1.1 1.1-3.6-1.7-2.7-3.2s2.2-1.2 2.9.7m19 2.8c.7 2-2.3 3.3-3.4 1.4-.5-.7-.6-1.7-.4-2.1.9-1.3 3.2-.9 3.8.7m-10.4 1c0 .8-.4 1.5-.9 1.5-1.3 0-2.2-1.6-1.4-2.4 1.1-1.1 2.3-.6 2.3.9m-13.7 4c.8 1.8-1.1 3.1-2.5 1.7-1.1-1.1-.3-3.2 1.2-3.2.4 0 1 .7 1.3 1.5M230 202c0 1.1-.4 2-1 2-.5 0-1-.2-1-.4s-.3-1.1-.6-2c-.4-1.1-.1-1.6 1-1.6.9 0 1.6.8 1.6 2m19.3.5c-.6 1.6-1.6 1.9-2.6.8-.9-.8 1.3-3.4 2.4-2.8.4.3.6 1.2.2 2m14.5-.8c-.5 2.5-2.8 2.8-2.8.4 0-1.2.6-2.1 1.6-2.1.9 0 1.4.7 1.2 1.7m-19.6 3.5c-1.5 1.5-2.6.4-1.8-1.8.5-1.3.9-1.5 1.8-.6s.9 1.5 0 2.4m9.6-2c-.6 1.8-2.8 2.1-2.8.4 0-.9.7-1.6 1.6-1.6s1.4.5 1.2 1.2m-34.8 4.4c0 .8-.4 1.4-1 1.4-.5 0-1-.9-1-2.1 0-1.1.5-1.7 1-1.4.6.3 1 1.3 1 2.1m43.6.5c1 1.7-1.3 3.6-2.7 2.2-1.2-1.2-.4-3.3 1.1-3.3.5 0 1.2.5 1.6 1.1m-17.6 2.4c0 1.8-.4 2.3-1.5 1.9-1.6-.6-2-2.6-.8-3.7 1.3-1.4 2.3-.6 2.3 1.8m-19 1.1c0 1.6-1.6 1.9-2.5.4-.8-1.3.4-3.2 1.6-2.5.5.4.9 1.3.9 2.1m42 1c0 .8-.7 1.4-1.5 1.4-1.5 0-2.1-2.1-.9-3.3 1-.9 2.4.2 2.4 1.9m-26.7-1c.9 1-.4 3.4-1.8 3.4-1.7 0-2.8-1.7-2-3 .7-1.1 2.8-1.3 3.8-.4m22.1 3.2c.2.4.1 1.4-.4 2.1-1.1 1.9-4.1.6-3.4-1.4.6-1.6 2.9-2 3.8-.7m-37 8.7c.3.9-.1 1.8-1 2.2-1.9.7-2.8-.2-2.1-2.2.8-1.9 2.3-1.9 3.1 0m50.1 1.6c0 .8-1.3 1.5-3.2 1.6-3.1.3-4.4-1.2-2.7-3 1.1-1.1 5.9 0 5.9 1.4m-23.5 7.3c0 .8-.4 1.7-.9 2.1-1.2.7-2.4-1.2-1.6-2.5.9-1.5 2.5-1.2 2.5.4m-38.2 1.9c.2 1-.3 1.7-1.2 1.7-1.8 0-2.9-1.6-2.1-3.1.9-1.4 2.9-.6 3.3 1.4m49.7-.2c0 .7-.8 1.5-1.7 1.7-1.8.3-2.5-1.8-1.1-3.2 1-1 2.8-.1 2.8 1.5m-45.5 8.4c0 .8-.6 1.5-1.4 1.5-1.7 0-2.8-1.4-1.9-2.4 1.2-1.2 3.3-.6 3.3.9m43 1c0 1.6-2.7 3.2-3.7 2.2-.3-.4-.3-1.3 0-2.2.8-2 3.7-2 3.7 0m-11.2 3.2c-.4 2.2-2.2 2-2.6-.1-.2-1 .3-1.6 1.3-1.6s1.5.7 1.3 1.7m16.2 5.2c0 3.1-1.3 4.7-2.9 3.6-1.2-.7.7-6.5 2-6.5.5 0 .9 1.3.9 2.9m7.6 1c-.4.6-1.4 1.1-2.2 1.1-1.2 0-1.3-.4-.3-2.1.7-1.4 1.4-1.8 2.1-1.1.6.6.7 1.5.4 2.1m-14.6-.5c0 1.8-1.7 2.9-3 2.1-.8-.5-.7-1.1.1-2.1 1.5-1.8 2.9-1.8 2.9 0m-31.1 1.5c1.2.8 1.3 1.2.1 2.6s-1.5 1.4-2.8.1c-.8-.8-1.1-1.9-.8-2.5.9-1.3 1.6-1.4 3.5-.2m10.1 3.2c0 2.4-2.3 2.1-2.8-.4-.2-1 .3-1.7 1.2-1.7 1 0 1.6.9 1.6 2.1m-4 .2c0 2.1-1.2 2.8-2.7 1.6-1.9-1.6-1.6-2.9.7-2.9 1.1 0 2 .6 2 1.3m18.2 1.9c-1.5 1.5-2.6.4-1.8-1.8.5-1.3.9-1.5 1.8-.6s.9 1.5 0 2.4m9.6-2.6c3.3.9 2.4 3.9-1.1 3.9-3 .1-5.3-1.8-4.2-3.5.7-1.1 2-1.2 5.3-.4m-14.3 4.4c0 2.2-2.9 1.8-3.3-.3-.3-1.4.1-1.8 1.5-1.5 1 .2 1.8 1 1.8 1.8m-11.1 8.2c-.2 5.1-.4 10.1-.4 11 0 1.1-.8 1.8-2 1.8-2.3 0-2.7-1.8-.6-2.6 1.2-.5 1.2-.9.1-3.1-1.3-2.5-1-8.8.6-10.8.4-.6.4-1.7-.1-2.5-1-1.7-.4-3 1.4-3 1 0 1.2 2.1 1 9.2m5.6-7.7c0 .8.5 1.5 1 1.5.6 0 1 .9 1 2 0 2.9-2.3 2.4-3.7-.7-1.7-3.5-1.6-4.3.2-4.3.8 0 1.5.7 1.5 1.5m18.5 5.5c0 2.2-2.9 1.8-3.3-.3-.3-1.4.1-1.8 1.5-1.5 1 .2 1.8 1 1.8 1.8m-10.2.5c.1.5-.6 1.1-1.5 1.3-1.1.2-1.8-.3-1.8-1.3 0-1.7 3-1.8 3.3 0m-22.1 5.4c1.8 1.6 2.5 4.1 1 4.1-1.8 0-5.2-3.3-5.2-5.1 0-2.1.8-1.9 4.2 1m13.8-1.5c0 2.1-2.1 3.1-3.1 1.5-1.4-2.2-1.1-2.9 1.1-2.9 1.1 0 2 .6 2 1.4m21 2c0 1.5-1.8 3.1-2.6 2.3-.7-.7.7-3.7 1.7-3.7.5 0 .9.6.9 1.4m-16 1.6c0 .5-.7 1-1.5 1s-1.5-.5-1.5-1c0-.6.7-1 1.5-1s1.5.4 1.5 1m4.8 3.3c.2 1-.3 1.7-1.2 1.7-1.8 0-2.9-1.6-2.1-3.1.9-1.4 2.9-.6 3.3 1.4m12.5.8c-1.7 1.7-3.7.1-2.2-1.7.8-1 1.5-1.2 2.3-.4.7.7.7 1.3-.1 2.1m2.5 3.1c-.5 1.5-4.8 2.4-4.8 1s1.2-2.2 3.3-2.2c1 0 1.7.5 1.5 1.2m-15.8 4.3c0 .8-.4 1.5-1 1.5-.5 0-1-.7-1-1.5s.5-1.5 1-1.5c.6 0 1 .7 1 1.5m-9 4c0 .8-.7 1.5-1.5 1.5s-1.5-.7-1.5-1.5.7-1.5 1.5-1.5 1.5.7 1.5 1.5m10.5.6c1 1.5-.1 2.3-2 1.5-.9-.3-1.3-1-1-1.6.8-1.3 2.2-1.3 3 .1"/></svg>