<svg xmlns="http://www.w3.org/2000/svg" width="682.667" height="512" version="1.0" viewBox="0 0 512 384"><path d="M124 .8c0 .5.7 3.1 1.5 5.8.9 2.7 2 7.4 2.5 10.4.4 3 1.1 6.3 1.5 7.2 1.1 2.7-2.1 1.6-6.1-2.3l-3.6-3.4.7 4.9c.3 2.7 2 8.1 3.6 12.1 3 7.7 3.9 12.9 1.7 10.7-.6-.6-2.4-3.3-4.1-5.9-1.6-2.6-2.6-3.9-2.2-2.8s1 3 1.2 4.2l.5 2.3-4.8-2.2c-7.8-3.6-20.1-3.1-38.6 1.5-16.1 4-23 6.8-37 15-5.1 3-10.8 5.9-12.7 6.5-5.6 2-14 1.4-20.6-1.3C4.2 62.1 1.2 61 .8 61 .3 61 0 133.7 0 222.5V384h111.5c105.3 0 111.6-.1 112.2-1.7 1.2-3.2 5.3-8.1 7.3-8.6 1.3-.3 2.6.3 3.9 1.9 1.8 2.2 2.1 2.3 4.7.9 2.5-1.3 3-1.3 4.6.2 1 .9 1.8 2.9 1.8 4.5v2.8h266V56.7l-3.2.7c-1.8.4-9.4.7-16.8.7-13-.1-13.9 0-23.5 3.4-17.4 6.1-22.9 4.8-37.5-8.9-7.9-7.5-13.7-11.3-18.8-12.6-5.5-1.3-6.8-.9-28.7 7.8-5.5 2.2-13.8 5-18.5 6.2-4.7 1.3-11.6 3.3-15.3 4.6-3.8 1.3-7.2 2.4-7.7 2.4-1.1 0-.6-2.3 1.5-7.5 1.3-3.4 1.3-3.7 0-2.1-1.2 1.6-1.5 1.7-1.5.4 0-4.7 2.7-13.7 9.5-31.3C355.6 9.6 359 .5 359 .4c0-.2-1-.4-2.3-.4-1.8 0-2.9 1.3-5.5 6.6-5 10-10 17.4-11.8 17.4-1.5 0-1.6-1.1-.9-10 .7-10.4.2-11.6-3-8-2.7 3-3.6 2.4-2.9-2l.7-4h-14l-2 8.2c-2.8 11.3-6.2 20-7.6 19.5-.7-.2-2.7-2.5-4.6-5.3-3.5-5.2-3.6-6.1-1.5-18.7l.7-3.7H204.1l-.3 4.2c-.4 4.3-.7 4.1-2.7-1.4l-1-2.7-19.6-.1h-19.6l.6 3.3c4.2 24.8 5.3 35.3 3.6 34.3-1.4-.9-5.9-14.3-7.6-22.6-2.9-13.9-3.3-15-6-15-2.9 0-3 .8-1.4 11 .7 4.5.7 7.5.1 8.6-.8 1.4-1.7-.5-4.3-8.6-4.7-14.5-6.4-13.8-2.4.9 1.8 6.5 3.5 13.6 3.9 15.7l.6 3.9-1.6-3.5c-.8-1.9-2.9-7.6-4.6-12.5-1.7-5-3.6-9.7-4.3-10.5s-1.5-2.3-1.8-3.3c-.5-1.3-1.8-1.7-6.2-1.7-3 0-5.5.4-5.5.8m156 122.3c0 1-.7 1.9-1.5 1.9-1.5 0-2.1-3.1-.9-4.3 1.1-1 2.4.3 2.4 2.4m-42.3 20.5c.2.5-.3 1.9-1.1 2.9-1.4 1.9-1.5 1.9-2.1.2-.4-.9-.4-2.4-.1-3.3.6-1.6 2.7-1.5 3.3.2m9.3 21.9c0 2.5-2.3 3.5-3.5 1.5-1-1.6.2-4 2-4 .9 0 1.5.9 1.5 2.5m17.8.8c.2 1.2-.3 1.7-1.7 1.7-1.5 0-2.1-.6-2.1-2.1 0-2.5 3.3-2.2 3.8.4m15.5 5.2c-.5 1.6-3.3 2.1-3.3.7 0-1.3 2.2-3.2 3.1-2.6.5.2.6 1.1.2 1.9m-14.3 4.6c0 .5-.7.9-1.5.9-1.5 0-2-1.2-.9-2.3.8-.8 2.4.1 2.4 1.4m-44 .9c0 1.1-.4 2-.9 2-1.3 0-3.2-2.6-2.4-3.3 1.3-1.4 3.3-.6 3.3 1.3m38.5 3.1c0 .7-.8 1.5-1.7 1.7-1.8.3-2.5-1.8-1.1-3.2 1-1 2.8-.1 2.8 1.5m-51.1 3c-.8 1.4-2.1 1-2.8-.7-1-2.5.5-4 2-1.9.7 1 1.1 2.2.8 2.6m8.1-.2c.7 1.2-1.2 2.4-2.5 1.6-1.1-.7-.4-2.5 1-2.5.5 0 1.1.4 1.5.9m12.1 1.2c1 1.7-1.3 3.6-2.7 2.2-1.2-1.2-.4-3.3 1.1-3.3.5 0 1.2.5 1.6 1.1M204 190c0 2.1-1.5 2.7-2.5 1-.7-1.2.2-3 1.6-3 .5 0 .9.9.9 2m23.8 1.3c.2 1-.3 1.7-1.1 1.7-1.6 0-3-2.4-1.9-3.4 1-1 2.7-.1 3 1.7m20.8 3.2c-.7 1.8-2.6 2-2.6.2s2.4-4.1 2.8-2.7c.2.6.1 1.7-.2 2.5m16.4-.2c0 2-.1 2-1.6.5-.9-.9-1.3-2.1-.9-2.7 1-1.6 2.5-.3 2.5 2.2m-11 3.3c0 1.6-1.6 1.9-2.5.4-.8-1.3.4-3.2 1.6-2.5.5.4.9 1.3.9 2.1m-11-.7c0 .5.3 2.3.6 4 .4 2 .3 3.1-.5 3.1-.6 0-1.1-1.1-1.1-2.4 0-1.4-.5-2.8-1-3.1-.6-.4-.8-1.1-.5-1.6.8-1.1 2.5-1.2 2.5 0m-27 2.1c0 2.3-1 2.6-2.8.8s-1.5-2.8.8-2.8c1.3 0 2 .7 2 2m48.4.9c.3.5-.1 1.4-.9 2.1-1.3 1-1.5.9-1.5-.9 0-2.1 1.4-2.8 2.4-1.2m-42.6 3.7c-1 1-2.8-.6-2.8-2.4 0-1.5.1-1.5 1.7.1.9.9 1.4 1.9 1.1 2.3m17 .7c.2 1-.3 1.7-1.1 1.7-1.6 0-3-2.4-1.9-3.4 1-1 2.7-.1 3 1.7m30.2 1.2c-1.2 1.5-1.4 1.5-2.3-.1-.6-1.1-.5-1.9.4-2.5 2.1-1.2 3.5.7 1.9 2.6m-4.1 4.1c-.6.7-1.7 1-2.5.7-1.7-.6-1.8-1.5-.2-3.1 1.7-1.7 4.3.5 2.7 2.4m14.8 7.8c-.8 2-5.7 2.1-5.7.3 0-1.7 4.2-3.8 5.4-2.7.5.5.6 1.6.3 2.4m-54.7-1c0 .7-.6 1.9-1.4 2.5-1.9 1.6-4.1-1-2.4-2.7 1.6-1.6 3.8-1.5 3.8.2m29 9c0 .8-.4 1.7-.8 2-1.3.8-3.5-1.1-2.8-2.3 1-1.6 3.6-1.4 3.6.3m13.5.7c0 .7-.8 1.5-1.7 1.7-1.8.3-2.5-1.8-1.1-3.2 1-1 2.8-.1 2.8 1.5m-56.5 3.5c0 .8-.4 1.4-1 1.4-.5 0-1-.9-1-2.1 0-1.1.5-1.7 1-1.4.6.3 1 1.3 1 2.1m55 4.9c0 1.6-2.7 3.2-3.7 2.2-.3-.4-.3-1.3 0-2.2.8-2 3.7-2 3.7 0m-51 4.4c0 1.4-1.8 2.3-3 1.6-.6-.4-.8-1.1-.5-1.6.8-1.2 3.5-1.2 3.5 0m37 3.2c0 .5-.7.9-1.5.9-1.5 0-2-1.2-.9-2.3.8-.8 2.4.1 2.4 1.4m19 2.4c0 2.4-.5 3.5-1.5 3.5-1.7 0-2-2.3-.5-5.1 1.5-2.7 2-2.4 2 1.6m-47.6 1c.3.9-.1 1.8-1 2.2-1.9.7-3.9-1.1-3-2.6 1-1.6 3.3-1.3 4 .4m57.6-.6c0 1.2-2 2.5-2.7 1.8s.6-2.7 1.8-2.7c.5 0 .9.4.9.9m-19 3.1c0 1.1-.7 2-1.5 2-1.5 0-2.1-2.1-.8-3.3 1.2-1.3 2.3-.7 2.3 1.3m3.6 1.2c-.3.7-.9 2.1-1.2 3-.4 1-1.3 1.8-2 1.8-1.8 0-1.8-.5.2-3.5 1.7-2.5 4-3.5 3-1.3m-28.2 2.9c1.2 1.1.7 1.6-2.5 2.4-2.7.7-6.5-1.8-5.4-3.5.6-1 6.5-.2 7.9 1.1m31.4 2.6c-.2 1-1 1.8-1.8 1.8s-1.6-.8-1.8-1.8c-.2-1.2.3-1.7 1.8-1.7s2 .5 1.8 1.7m-13 .5c-.6 1.8-2.8 2.1-2.8.4 0-.9.7-1.6 1.6-1.6s1.4.5 1.2 1.2m-12.5 3.3c1.7 2.3 1.6 4.5-.1 4.5-1.3-.1-4.3-5-3.7-6 .9-1.5 1.8-1.2 3.8 1.5m6.3-.4c.3.6 0 1.5-.7 2-2.2 1.4-2.9 1.1-2.9-1.1 0-2.1 2.4-2.7 3.6-.9m-16.8 2.7c.2 1.2-.1 2.2-.6 2.2-1.5 0-3.4-2.8-2.7-4 1-1.7 3-.6 3.3 1.8m31 3.9c.3 1.8-2.3 5.2-3.2 4.2-.2-.2-.1-1.9.1-3.7.6-3.5 2.6-3.9 3.1-.5m-22.8.3c0 1.1-.7 2-1.5 2-1.5 0-2.1-2.1-.8-3.3 1.2-1.3 2.3-.7 2.3 1.3m11.8-.8c-.6 1.8-2.8 2.1-2.8.4 0-.9.7-1.6 1.6-1.6s1.4.5 1.2 1.2m-31.2 2.3c.4.8 1.2 1.5 2 1.5s1.4.9 1.4 2-.2 2-.5 2c-1.4 0-6.5-4.5-6.5-5.7 0-1.8 2.9-1.6 3.6.2m13.8 4.3c-.9 3.8-1.3 4.2-2.9 3.5-2-.7-1.9-3.2.1-5.4 2.2-2.4 3.6-1.4 2.8 1.9m34.1-1.8c0 .7-.6 1.5-1.2 1.7-.8.3-1.3-.4-1.3-1.7s.5-2 1.3-1.8c.6.3 1.2 1.1 1.2 1.8m-20.9.1c.7 1.2-1.5 3.1-2.8 2.3-.4-.3-.8-1.2-.8-2 0-1.7 2.6-1.9 3.6-.3m6.4 1.9c0 1.1-.7 2-1.5 2s-1.5-.9-1.5-2 .7-2 1.5-2 1.5.9 1.5 2m17.4 2.5c-.4.8-1.5 1.5-2.6 1.5-1.7 0-1.8-.3-.8-1.5.7-.8 1.9-1.5 2.6-1.5.8 0 1.1.6.8 1.5M240 275c0 1.1-.4 2-1 2-.5 0-1-.2-1-.4s-.3-1.1-.6-2c-.4-1.1-.1-1.6 1-1.6.9 0 1.6.8 1.6 2m-7 2.6c0 .9-.7 1.4-1.7 1.2-2.5-.5-2.8-2.8-.4-2.8 1.2 0 2.1.6 2.1 1.6m37 .2c0 .4-.9 1.3-2 2-2.2 1.3-2.7.3-.8-1.6 1.4-1.4 2.8-1.6 2.8-.4m4.8 4c.2.7-.6 1.2-1.7 1.2-2.1 0-2.7-1.1-1.4-2.4.9-.9 2.6-.2 3.1 1.2m-20.8 3.6c-1.3 1.3-3.5-.7-2.5-2.4.5-.8 1.1-.8 2.1.1 1 .8 1.2 1.5.4 2.3m17 1c0 1.4-2.4 2.9-3.3 1.9-.3-.3-.3-1.1 0-1.9.7-1.8 3.3-1.8 3.3 0m-29.7 1.2c.8.9-1.1 4.4-2.3 4.4-.6 0-1-.8-1-1.8 0-2.7 1.8-4.1 3.3-2.6m8.7 2.7c0 2.1-1.2 2.8-2.7 1.6-1.9-1.6-1.6-2.9.7-2.9 1.1 0 2 .6 2 1.3m8 .7c0 .5-.9 1-2 1s-2-.5-2-1c0-.6.9-1 2-1s2 .4 2 1m9 1.1c0 2.4-2.3 2.1-2.8-.4-.2-1 .3-1.7 1.2-1.7 1 0 1.6.9 1.6 2.1m-27.4 5c1 1.7-1.3 3.6-2.7 2.2-1.2-1.2-.4-3.3 1.1-3.3.5 0 1.2.5 1.6 1.1m4.4.4c0 .8-.7 1.5-1.5 1.5s-1.5-.7-1.5-1.5.7-1.5 1.5-1.5 1.5.7 1.5 1.5m6 7.6c0 1.2-2.9 2.4-3.7 1.6-.3-.4-.3-1.3 0-2.1.6-1.6 3.7-1.1 3.7.5"/><path d="M351.2 32.5c-1.7 3.7-1.4 4.5.4 1.2.9-1.6 1.4-3.1 1.1-3.3-.2-.2-.9.7-1.5 2.1m-3.6 8.6c-.9 2.3-1.5 4.3-1.3 4.6.3.2 1.2-1.5 2.1-3.8s1.5-4.3 1.3-4.6c-.3-.2-1.2 1.5-2.1 3.8"/></svg>