<svg xmlns="http://www.w3.org/2000/svg" width="682.667" height="512" version="1.0" viewBox="0 0 512 384"><path d="M126 1.3c0 .7.9 4.5 2 8.5 1.9 6.9 2.6 12.2 1.5 12.2s-8.1-8.5-10-12.2c-1.2-2.1-2.4-3.6-2.8-3.2-.3.4-.2 1.5.3 2.5 2.8 5.2 10.7 30.9 9.5 30.9-.3 0-1.9-2.7-3.6-6.1-1.6-3.4-3.2-5.9-3.4-5.7-.3.2.5 2.8 1.6 5.7 1.1 3 1.8 5.5 1.5 5.8-.2.2-3.5-.5-7.3-1.7-9.2-2.9-20.1-3.6-28.3-1.7-3.6.9-11.9 2.7-18.5 4.2-23.4 5.2-27.8 6.5-36.8 10.8-14.6 7-19.9 8.1-28.5 6.3L0 56.8V384h114c72.6 0 114-.4 114-1 0-.5 1-1.5 2.2-2.1 1.8-1 2.4-.8 3.9.9l1.7 2.1 138.1.1H512V47.3l-6.7-.7c-8.5-.8-13.6.6-26.6 6.9-15.9 7.8-20.6 6.8-36.9-7.5-13.4-11.8-16.8-13.4-26.1-12.7-4 .3-11.7 1.8-17.2 3.5-5.5 1.6-14 3.9-19 5.1-5.1 1.3-13.9 4.6-20.4 7.7-10.3 5-17.1 7.4-17.1 6.1 0-.2 1.2-3.1 2.6-6.3 1.4-3.3 3-7 3.5-8.4l.9-2.5-1.9 2.5-2 2.5.5-4c1.1-8 2.7-14.2 7-26.1C355 6.7 357 1 357 .6c0-.3-1.3-.6-2.8-.6-2.4 0-3.2.7-4.6 3.8-1 2.1-2.8 5.2-4.1 6.8-2.1 2.5-2.6 2.7-3.5 1.4-.6-.9-.8-3.7-.5-6.8l.6-5.2h-3.3c-2.8 0-3.7.7-6 4.3L330 8.5V0h-12.7l-3 7.7c-1.6 4.3-3.3 7.8-3.8 7.7-.6-.1-2.3-2.3-3.8-5-2.1-3.4-2.7-5.6-2.3-7.6L305 0h-50.4c-47.1 0-50.4.1-51.1 1.7-.6 1.7-.7 1.7-1.6 0-.9-1.5-3-1.7-21-1.7H161l.4 2.2c2.4 10.8 3.7 19.3 3.4 21.5-.3 2.5-.6 2.2-3.5-3.2-2.8-5.4-3.8-8.4-5.8-17.8-.5-2.3-1-2.7-4-2.7h-3.4l.4 8.2.5 8.3-2.7-8.3c-1.6-4.8-3.2-8.2-4-8.2-.7 0-1.3.1-1.3.2 0 .2.7 2.8 1.5 5.8s1.3 5.6 1 5.8c-.5.5-4.5-8.7-4.5-10.4 0-1.1-1.7-1.4-6.5-1.4-4.6 0-6.5.4-6.5 1.3m155 115.6c0 2.4-1.8 3.7-3.1 2.4s-.1-4.3 1.7-4.3c.8 0 1.4.9 1.4 1.9m-45.2 21.9c.2 1.5-.2 2.2-1.2 2.2-1.1 0-1.6-.9-1.6-2.6 0-3.1 2.3-2.8 2.8.4m11 20.4c-.4 2.7-2.3 3.4-3.2 1.3-.8-2.1.1-3.5 2-3.5 1 0 1.4.8 1.2 2.2m18.1 2.2c.9 1 .9 1.6.1 2.1-1.7 1.1-4-.3-3.4-2 .8-1.9 1.8-1.9 3.3-.1m17.1 7.1c0 1.8-2.7 2.7-3.3 1.1s1.2-3.8 2.5-3c.4.3.8 1.1.8 1.9m-60.5 3.5c.8 1.3-1.4 4.2-2.6 3.4-.5-.3-.9-1.4-.9-2.5 0-2 2.4-2.6 3.5-.9m44.7 1.5c0 .5-.5 1.1-1.1 1.3s-1.1-.4-1.1-1.3.5-1.5 1.1-1.3 1.1.8 1.1 1.3m-58.2 5.8c0 2-2.5-.1-2.8-2.4-.2-2.3-.2-2.3 1.3-.5.8 1.1 1.5 2.4 1.5 2.9m54-2.4c0 1.3-2.6 3.2-3.3 2.4-1.4-1.3-.6-3.3 1.3-3.3 1.1 0 2 .4 2 .9m-46.2 2.5c.3 1.2-.1 1.7-1 1.4-.7-.3-1.5-1.3-1.6-2.2-.3-1.2.1-1.7 1-1.4.7.3 1.5 1.3 1.6 2.2m13.2 2.2c0 .8-.7 1.4-1.5 1.4-1.5 0-2.1-2.1-.9-3.3 1-.9 2.4.2 2.4 1.9m-26 4.4c0 1.1-.7 2-1.5 2s-1.5-.9-1.5-2 .7-2 1.5-2 1.5.9 1.5 2m23 0c0 1.1-.7 2-1.5 2-1.5 0-2.1-2.1-.8-3.3 1.2-1.3 2.3-.7 2.3 1.3m22.8 2.7c-.5 2.5-2.8 2.8-2.8.4 0-1.2.6-2.1 1.6-2.1.9 0 1.4.7 1.2 1.7m16.8 1.8c-.5 1.4-.9 1.5-2.1.5s-1.3-1.6-.4-2.7c1.5-1.8 3.4-.1 2.5 2.2m-22.6 4.4c1.8 4.4.2 5.9-2 1.9-1-1.8-1.6-3.6-1.3-4.1.9-1.4 2.1-.6 3.3 2.2m11-.9c0 2.1-1.5 2.7-2.5 1-.7-1.2.2-3 1.6-3 .5 0 .9.9.9 2m-40 .5c0 .8-.6 1.5-1.4 1.5-1.7 0-2.8-1.4-1.9-2.4 1.2-1.2 3.3-.6 3.3.9m51.4 1.3c.8 1.3-1.1 3.5-2.3 2.8-1.6-1-1.4-3.6.3-3.6.8 0 1.7.4 2 .8m-45.6 2.6c.3 1.2-.1 1.7-1 1.4-.7-.3-1.5-1.3-1.6-2.2-.3-1.2.1-1.7 1-1.4.7.3 1.5 1.3 1.6 2.2m18.6.4c.8 1.3-1.1 3.5-2.3 2.8-1.6-1-1.4-3.6.3-3.6.8 0 1.7.4 2 .8m31.2 2.8c-.5 1.3-1 1.4-1.8.6-.6-.6-.8-1.8-.4-2.8.5-1.3 1-1.4 1.8-.6.6.6.8 1.8.4 2.8m-3.6 3.5c0 1-.7 1.9-1.5 1.9-1.5 0-2.1-3.1-.9-4.3 1.1-1 2.4.3 2.4 2.4m14.7 8.3c-.4.9-1.6 1.6-2.7 1.6-2.1 0-2-.8.3-3.8 1.3-1.7 3.2.1 2.4 2.2m-56.2.6c0 .8-1 1.6-2.2 1.8-2.2.3-3.2-1.6-1.6-3.2 1.2-1.1 3.8-.2 3.8 1.4m30.5 7.4c0 1.6-1.8 3.1-2.7 2.2-.8-.8.5-3.6 1.7-3.6.5 0 1 .6 1 1.4m15 1c0 .8-.7 1.7-1.6 2-2.3.9-2.4.8-2.4-1.4 0-1.3.7-2 2-2 1.1 0 2 .6 2 1.4m-60 4.2c0 .9-.7 1.4-1.7 1.2-2.5-.5-2.8-2.8-.4-2.8 1.2 0 2.1.6 2.1 1.6m56.8 3.6c-.4 2.7-2.8 3.6-2.8 1 0-2 .8-3.2 2.2-3.2.5 0 .8 1 .6 2.2m-52.8 7.2c0 1.7-2.7 2.9-3.5 1.6-.4-.6-.3-1.5 0-2 .9-1.5 3.5-1.2 3.5.4m38 2.1c0 .8-.4 1.5-1 1.5-.5 0-1-.7-1-1.5s.5-1.5 1-1.5c.6 0 1 .7 1 1.5m21.8 1.2c-.4 3.9-2.8 4.2-2.8.4 0-2.1.5-3.1 1.6-3.1s1.4.8 1.2 2.7m-53.8.3c0 1.3-.7 2-1.8 2-2.4 0-3.2-.8-2.5-2.6.8-2.2 4.3-1.7 4.3.6m64 1.5c-.7.8-1.6 1.2-2.1.9-1.3-.8-.1-2.4 1.8-2.4 1.3 0 1.3.3.3 1.5m-20.4 2.6c1 1.7-1.3 3.6-2.7 2.2-1.2-1.2-.4-3.3 1.1-3.3.5 0 1.2.5 1.6 1.1m4.4.3c0 1.7-1.4 2.9-2.3 2-.8-.8.3-3.4 1.4-3.4.5 0 .9.6.9 1.4m-34.2 2.2c4.4 2.1 4.3 4.8 0 3.9-3.7-.8-7-3.3-6.2-4.6s2.7-1.1 6.2.7m32 2.6c-.6 1.8-2.8 2.1-2.8.4 0-.9.7-1.6 1.6-1.6s1.4.5 1.2 1.2m4.9 1.4c.8 2-1.3 4.2-2.7 2.8-1.2-1.2-.3-4.4 1.1-4.4.5 0 1.2.7 1.6 1.6m-14.3 1.3c.3.5-.1 1.4-.8 2-1.6 1.3-3.2-.2-2.1-1.9.8-1.2 2.2-1.3 2.9-.1m-26.2 5.3c-1.6 1.6-3.7-.4-2.8-2.8.6-1.6.8-1.6 2.3-.1 1.3 1.3 1.5 1.9.5 2.9m14.8 1c0 1.7-4 .7-5-1.2-1.7-3.3-.1-4.4 2.6-1.9 1.3 1.2 2.4 2.6 2.4 3.1m4.5-3.2c1 1.6-1.6 4.3-2.8 3.1-1.1-1.1-.2-4.1 1.2-4.1.5 0 1.3.5 1.6 1m17.2 4.6c.8 2.1-2.3 5.2-3.8 3.7-.8-.8-.8-1.7 0-3.2 1.4-2.5 2.9-2.7 3.8-.5m-25.9 1.7c.2 1.2-.3 1.7-1.7 1.7-1.5 0-2.1-.6-2.1-2.1 0-2.5 3.3-2.2 3.8.4m13.2.8c0 .5-.7.9-1.5.9-1.5 0-2-1.2-.9-2.3.8-.8 2.4.1 2.4 1.4m-35 .4c0 .9.7 1.8 1.5 2.1.8.4 1.5 1.2 1.5 2s-.7 1.4-1.5 1.4-1.5-.6-1.5-1.3-.9-1.8-2-2.5c-2.2-1.3-1.9-3.2.6-3.2.8 0 1.4.7 1.4 1.5m36.8 3.7c-.4 2.7-2.8 3.6-2.8 1 0-2 .8-3.2 2.2-3.2.5 0 .8 1 .6 2.2m16.9-.5c.2.6-.3 1.3-1.2 1.6-1 .5-1.5 0-1.5-1.4 0-2.1 2.1-2.2 2.7-.2m-38.6 3.2c-1.4 2.5-4.1 2.8-4.1.5 0-2.1 3.2-4.6 4.3-3.4.5.4.4 1.7-.2 2.9m14.3-2.4c-.7 1.7-2 2-2.8.6-.7-1 .3-2.1 2-2.1.8 0 1.1.6.8 1.5M239 270c0 1.1-.7 2-1.5 2s-1.5-.9-1.5-2 .7-2 1.5-2 1.5.9 1.5 2m37 1c0 1.2-2.8 2.5-3.6 1.7-.9-.9.6-2.7 2.2-2.7.8 0 1.4.5 1.4 1m-45.5 4.1c1 1.5-.1 2.3-2 1.5-.9-.3-1.3-1-1-1.6.8-1.3 2.2-1.3 3 .1M272 277c-1.8 1.1-2.4.6-1.6-1.6.5-1.4.9-1.5 1.9-.5.9.9.9 1.4-.3 2.1m6 4.5c0 .8-.9 1.5-2 1.5s-2-.7-2-1.5.9-1.5 2-1.5 2 .7 2 1.5m-23 1.6c0 2.4-2.3 2.1-2.8-.4-.2-1 .3-1.7 1.2-1.7 1 0 1.6.9 1.6 2.1m18.8 2c-.2.6-.8 1-1.3 1s-1.1-.4-1.3-1 .4-1.1 1.3-1.1 1.5.5 1.3 1.1m-33.2 3.1c.1 1.5-.3 2.9-1.1 3.2-1.6.6-2 .2-2.9-3.7-.6-2.5-.4-2.8 1.5-2.5 1.5.2 2.3 1.1 2.5 3m10.2 3c-.2 2.5-.8 3.3-2.3 3.3-1.6 0-2-.7-2-3.3 0-2.7.4-3.2 2.3-3.2 2 0 2.3.4 2 3.2M261 290c1.2.7 1.2 1.2.2 2.2-.8.8-1.2.8-1.2.1 0-.6-.7-1-1.6-.9-.9 0-1.9-.5-2.1-1.2-.5-1.4 2.5-1.6 4.7-.2m10 .5c0 .8-.6 1.5-1.4 1.5-1.7 0-2.8-1.4-1.9-2.4 1.2-1.2 3.3-.6 3.3.9m-33.2 5.1c1.2.4 2.2 1.3 2.2 2.1 0 2.1-5.4 1.3-5.8-1-.4-1.8.1-2 3.6-1.1m5.7 1.4c0 .7-.6 1.5-1.2 1.7-.8.3-1.3-.4-1.3-1.7s.5-2 1.3-1.8c.6.3 1.2 1.1 1.2 1.8m-4.3 5.5c0 .5-.5 1.1-1.1 1.3s-1.1-.4-1.1-1.3.5-1.5 1.1-1.3 1.1.8 1.1 1.3m10.5 5.1c-1.2 1.2-3.7-.5-3-2.1.5-1.5.7-1.5 2.1-.1.9.9 1.3 1.8.9 2.2"/><path d="M354.6 23.7c-.6 1.4-.5 1.5.5.6.7-.7 1-1.5.7-1.8s-.9.2-1.2 1.2m-2.4 5.8c-1.7 3.7-1.4 4.5.4 1.2.9-1.6 1.4-3.1 1.1-3.3-.2-.2-.9.7-1.5 2.1"/></svg>