<svg xmlns="http://www.w3.org/2000/svg" width="682.667" height="512" version="1.0" viewBox="0 0 512 384"><path d="M117 2.7c.4 1.6 2.2 5.5 3.8 8.8 4.1 8.1 6.2 14.8 6.2 19.3-.1 3.7-.1 3.7-3.6-3.2-1.9-3.7-3.7-6.6-4-6.4-.5.6 2 7 4.2 11.1.9 1.5 1.3 3.5 1 4.4-.9 2.1-9.2 1.2-20.6-2.2-13.1-4-23.9-4.3-37.5-1.1-6 1.4-16.8 3.5-24 4.7-8.7 1.4-16.1 3.3-22.5 5.9-5.2 2-11.9 4.3-14.8 5.1L0 50.4V384h512V37h-3.2c-3.8 0-11.8 3.5-18.3 8-14.6 10-21.7 9.3-36.5-3.5-17.4-15.2-19.2-15.7-43-12.6-4.7.6-12.3 1.6-17 2.2-9 1.1-17.4 4.3-25.5 9.9-7.6 5.2-17 9.2-20.9 8.8l-3.5-.3 4.4-10.4c4.2-10 5.4-14.8 2.1-8.3-6.5 12.6-2.7-9.8 4.9-29 .6-1.5-1.2-1.7-20.8-1.7L313.2 0l-.6 2.2-.7 2.3-1.6-2.3-1.5-2.2h-147l.5 2.2c1.4 5.4 1.9 11.1 1.1 10.5-.5-.3-2.2-3.3-3.9-6.6-2.9-6-3.1-6.1-7.1-6.1h-4.2l.6 4.5c.2 2.5.2 4.5-.2 4.5-.3 0-1.1-2-1.7-4.5-1.1-4.4-3.9-6.3-3.9-2.8-.1 1.7-.1 1.7-1.1 0-.8-1.3-2.4-1.7-7.4-1.7-3.6 0-6.5.3-6.5.7 0 .5.7 3 1.5 5.8 1.6 5 1.3 9.5-.5 9.5-1.3 0-6.1-6.7-8.4-11.8-2.2-4.8-5-5.9-3.6-1.5m164.7 107.9c.8 2.1-1.3 4.2-2.8 2.7-1.3-1.3-.5-4.3 1.1-4.3.6 0 1.3.7 1.7 1.6M234 132.5c0 2.8-2.4 3.4-3.4.9-1-2.6-.7-3.4 1.4-3.4 1.5 0 2 .7 2 2.5m12.7 21.9c-.2.5-.8 1.1-1.4 1.3-1.2.4-2.5-3.6-1.6-5 .7-1.2 3.5 2.3 3 3.7M265 158c0 1.1-.7 2-1.5 2s-1.5-.9-1.5-2 .7-2 1.5-2 1.5.9 1.5 2m18.8 7.8c.2.7-.4 1.5-1.3 1.8-2 .8-2.7.1-1.9-2 .7-1.8 2.5-1.7 3.2.2m-63.6 5.4c-1.6 1.6-3.7-.4-2.8-2.8.6-1.6.8-1.6 2.3-.1 1.3 1.3 1.5 1.9.5 2.9m47.8-.2c0 .5-.7 1-1.5 1s-1.5-.5-1.5-1c0-.6.7-1 1.5-1s1.5.4 1.5 1m-62.2 2.8c.2 1.2-.1 2.2-.7 2.2-1.3 0-3.2-3.5-2.4-4.4 1.2-1.2 2.8 0 3.1 2.2m7.2.8c0 1.6-1.6 1.9-2.5.4-.8-1.3.4-3.2 1.6-2.5.5.4.9 1.3.9 2.1m49-.2c0 .8-.4 1.7-.9 2.1-1.2.7-2.4-1.2-1.6-2.5.9-1.5 2.5-1.2 2.5.4m-33.5 3.6c0 .7-.6 1.5-1.2 1.7-.8.3-1.3-.4-1.3-1.7s.5-2 1.3-1.8c.6.3 1.2 1.1 1.2 1.8m-3 3.1c0 .7-.8 1.5-1.7 1.7-1.8.3-2.5-1.8-1.1-3.2 1-1 2.8-.1 2.8 1.5m-24.5 1c0 2.4-2.3 2.1-2.8-.4-.2-1 .3-1.7 1.2-1.7 1 0 1.6.9 1.6 2.1m48 3c0 1-.7 1.9-1.5 1.9-1.5 0-2.1-3.1-.9-4.3 1.1-1 2.4.3 2.4 2.4m18 1c0 2-1.5 2.6-2.5.9-.9-1.5.3-4.3 1.5-3.5.5.3 1 1.5 1 2.6m-55.1 5.8c-1.6.5-3.3-1.5-2.4-3 .6-.9 1.2-.7 2.2.7.9 1.3 1 2 .2 2.3m29.4-2c-.2.6.4 1.1 1.2 1.1s1.5.9 1.5 2-.3 2-.7 2c-1.3 0-5.3-5.2-4.7-6.2.8-1.2 3-.3 2.7 1.1M254 191c0 2.1-1.5 2.7-2.5 1-.7-1.2.2-3 1.6-3 .5 0 .9.9.9 2m12 2.1c0 2-1.5 2.6-2.5.9-.9-1.5.3-4.3 1.5-3.5.5.3 1 1.5 1 2.6m-48.2.7c.2 1.2-.1 2.2-.7 2.2-1.3 0-3.2-3.5-2.4-4.4 1.2-1.2 2.8 0 3.1 2.2m19 1.5c.2 1-.3 1.7-1.2 1.7-1 0-1.6-.9-1.6-2.1 0-2.4 2.3-2.1 2.8.4m33.8-.2c.3.6.1 1.6-.5 2.2-.9.9-1.4.8-2.1-.3-.9-1.5-.4-3 1-3 .5 0 1.2.5 1.6 1.1m-4.1 5.9c0 .7-.6 1.5-1.2 1.7-.8.3-1.3-.4-1.3-1.7s.5-2 1.3-1.8c.6.3 1.2 1.1 1.2 1.8m15.3 7.2c-.5 3.2-2.8 3.5-2.8.4 0-1.7.5-2.6 1.6-2.6 1 0 1.4.7 1.2 2.2m-58 2.5c.5 1.7-2.6 2.9-4 1.5-.6-.6-.7-1.5-.3-2.2.9-1.4 3.7-.9 4.3.7M255 218c0 1.1-.7 2-1.5 2-1.5 0-2.1-2.1-.8-3.3 1.2-1.3 2.3-.7 2.3 1.3m16.4-.1c.9 1.5-2.3 3.6-3.6 2.3-.5-.5-.7-1.5-.4-2.1.9-1.3 3.3-1.4 4-.2m-62.8 5.2c.9 1.6-1.8 3-3.3 1.7-.7-.6-1.3-1.4-1.3-1.9 0-1.3 3.8-1.1 4.6.2m60.7 1.5c.9 1-.4 3.4-1.9 3.4-.8 0-1.4-.9-1.4-2 0-1.9 1.9-2.7 3.3-1.4M216.5 236c0 .9-1.2 1.5-3.7 1.6-3.2.2-3.8 0-3.8-1.6s.7-1.9 3.8-1.7c2.5.1 3.7.7 3.7 1.7m60.3 2.1c-.4 2.8-3.1 3.2-3.6.6-.5-2.3 1.8-5.1 3-3.9.6.6.8 2 .6 3.3M253 237c0 2.1-1.5 2.7-2.5 1-.7-1.2.2-3 1.6-3 .5 0 .9.9.9 2m35 1.5c0 .8-.7 1.5-1.5 1.5-1.6 0-2-1.2-.8-2.3 1.1-1.2 2.3-.8 2.3.8m-18.7 3.1c-.3.8-1.1 1.3-1.9 1-.7-.3-1.8.2-2.4 1-1.6 1.8-3 1.8-3-.1 0-.8.9-1.5 2-1.5s2-.5 2-1c0-.6.9-1 2-1 1.3 0 1.8.5 1.3 1.6m-38.9 1.1c.7 1.6-.8 3.3-3 3.3-1.8 0-2.7-3.2-1.2-4.2 2-1.2 3.5-.9 4.2.9m5.4 5.1c.3.9-.2 1.3-1.4 1-.9-.1-1.9-.9-2.2-1.6-.3-.9.2-1.3 1.4-1 .9.1 1.9.9 2.2 1.6m29.8 1.9c-1.1 1.1-1.9-.6-1.1-2.4.8-1.7.8-1.7 1.2 0 .3 1 .2 2.1-.1 2.4m6.8 1.4c-.5.9-3.4 1.3-3.4.5 0-.2.3-1.2.6-2 .5-1.3.9-1.4 2-.5.8.6 1.1 1.5.8 2m-44.4.9c0 1.1-.7 2-1.5 2s-1.5-.2-1.5-.4-.3-1.1-.6-2c-.4-1.2 0-1.6 1.5-1.6 1.4 0 2.1.6 2.1 2m29 .6c0 .8-.7 1.4-1.5 1.4-1.5 0-2.1-2.1-.9-3.3 1-.9 2.4.2 2.4 1.9m-14.1 1.3c1.3 1 2.1 2.3 1.7 3-1 1.6-1.9 1.4-4.4-.9-4.1-3.8-1.8-5.6 2.7-2.1m6.9 1.8c-.5 2.6-3.8 2.9-3.8.4 0-1.5.6-2.1 2.1-2.1 1.4 0 1.9.5 1.7 1.7m19.7.3c.4.6.1 1.8-.6 2.7-.8.9-1.4 2.3-1.4 3.2 0 2.2-2.9 2.1-3.3-.2-.2-.9.2-1.7.8-1.7s.8-.5.5-1c-1-1.6.2-4 1.9-4 .8 0 1.8.5 2.1 1m-29.5 2.4c0 2-1.9 3.1-3.2 1.8-.6-.6-.7-1.5-.4-2.1 1-1.6 3.6-1.3 3.6.3m-23.4.7c1.1 1.8-1.3 3.4-3.1 1.9-.8-.7-1.5-1.6-1.5-2.1 0-1.3 3.8-1.1 4.6.2m37.4.9c0 .5.6 1 1.4 1 1.9 0 2.7 2.6 1.2 3.9-.9.8-1.9.4-3.5-1.3-1.3-1.4-2-2.9-1.6-3.5.8-1.4 2.5-1.4 2.5-.1m-35 4.6c0 .8-.7 1.4-1.5 1.4-1.5 0-2.1-2.1-.9-3.3 1-.9 2.4.2 2.4 1.9m58 .4c0 1.4-3.3 2.1-4.1.8-1.2-1.9 1-4.1 2.7-2.7.8.6 1.4 1.5 1.4 1.9m-40 0c0 1.1-.7 2-1.5 2s-1.5.4-1.5.9c0 1.7-4.2 2.4-5.1 1-1.1-1.7 1.6-4 3.7-3.2.8.3 1.4-.1 1.4-1.1 0-.9.7-1.6 1.5-1.6s1.5.9 1.5 2m12-1.1c0 1.2-2 2.5-2.7 1.8s.6-2.7 1.8-2.7c.5 0 .9.4.9.9m30 4.5c0 1.8-1.7 2.9-3 2.1-.8-.5-.7-1.1.1-2.1 1.5-1.8 2.9-1.8 2.9 0m-50.2 5c.3 1.2-.1 1.7-1 1.4-.7-.3-1.5-1.3-1.6-2.2-.3-1.2.1-1.7 1-1.4.7.3 1.5 1.3 1.6 2.2m48.2-.4c0 1.2-2.8 2.5-3.6 1.7-.9-.9.6-2.7 2.2-2.7.8 0 1.4.5 1.4 1m-20.6 6.8c.2.4.1 1.4-.4 2.2-.7 1.1-1.2 1.2-2.1.3-.6-.6-.8-1.6-.5-2.2.8-1.3 2.3-1.4 3-.3m25.3.8c.4 1.5-4.7 4.6-6.5 3.9-1.5-.6-1.3-1 1.3-3.1 3-2.4 4.6-2.6 5.2-.8m-42.9 3.7c.2 1-.3 1.7-1.2 1.7-1.8 0-2.9-1.6-2.1-3.1.9-1.4 2.9-.6 3.3 1.4M251 290c0 2.8-.4 4-1.4 4-2.1 0-2.7-1.4-2-4.9 1-4.6 3.4-4 3.4.9m14.3-3.4c.8.8-1.1 4.4-2.3 4.4-.8 0-.8-2.3-.1-4.8.2-.4 1.8-.2 2.4.4m9.7 2c0 .8-.9 1.4-2 1.4-1.9 0-2.7-1.9-1.4-3.3 1-.9 3.4.4 3.4 1.9m-35.8 1.6c-.9.9-1.5.9-2.4 0-1-1-1-1.5.2-2.2 2-1.2 3.8.6 2.2 2.2m21.6-1c-.6 1.8-2.8 2.1-2.8.4 0-.9.7-1.6 1.6-1.6s1.4.5 1.2 1.2m-23 6.5c-.4 2.2-4.8 3.1-4.8 1 0-1.9 1-2.7 3.2-2.7 1.3 0 1.8.6 1.6 1.7m5.7.4c0 .7-.8 1.5-1.7 1.7-1.8.3-2.5-1.8-1.1-3.2 1-1 2.8-.1 2.8 1.5m5.3 2.7c.2.7-.3 1.2-1.2 1.2s-1.6-.7-1.6-1.6c0-1.7 2.2-1.4 2.8.4m-10.3 3.7c0 2.5-3.1 4.3-4.6 2.8-1-1-.8-1.7.6-3.3 2.1-2.4 4-2.1 4 .5m7.1 3c.5 1.2 1 1.3 2 .4 1.1-.9 1.5-.7 2 .5.9 2.4-.4 3.2-2.6 1.8-1.1-.7-2.7-1.2-3.5-1.2s-1.5-.7-1.5-1.5c0-2 2.9-1.9 3.6 0M239 313c0 1.1-.7 2-1.5 2-1.5 0-2.1-2.1-.8-3.3 1.2-1.3 2.3-.7 2.3 1.3"/><path d="M353.6 24.5c-.9 2.6-.7 3.2.5 1.2.6-1 .9-2.1.6-2.3-.2-.3-.7.2-1.1 1.1"/></svg>