<svg xmlns="http://www.w3.org/2000/svg" width="682.667" height="512" version="1.0" viewBox="0 0 512 384"><path d="M117 .3c0 .2 1.4 4.2 3.1 8.8 4.6 12.3 4.5 11.5.7 12.8-6.1 2-19.2 4.1-25.4 4.1-6.7 0-18.2-2.7-25.9-6-5.8-2.5-16.5-3.9-21.8-2.8-2 .4-8.5 3-14.4 5.7C22.5 27.8 13.5 30 4.7 30H0v354h512V30l-2.6 1c-5.8 2.3-12.1.6-23.4-6.3-8.6-5.3-14.6-7.3-26-8.7-9-1-13.8-2.4-29.3-8.4-3.7-1.4-8.2-2.6-10-2.6-4.8 0-12.2 4.1-21.7 12-16.6 13.9-24 15.1-40.5 7-8.8-4.4-9-4.6-9-8.1 0-2-.6-4.2-1.2-5.1-.9-1-1-2.4-.3-4.9.6-1.8 1-4 1-4.6 0-1-23.5-1.3-116-1.3-63.8 0-116 .2-116 .3m167 90.6c0 2.5-2 3.8-3.1 2-1.5-2.3-1-3.9 1.1-3.9 1.3 0 2 .7 2 1.9m-56.2 17.8c-.4 3.1-2.3 4.2-3 1.6-.7-2.5.1-4.3 1.8-4.3 1.1 0 1.4.8 1.2 2.7m17.3 22.6c-.1.4-.1 1.4-.1 2.2s-.4 1.5-.9 1.5c-1.2 0-2.3-2.9-1.5-4.1.6-1.1 2.6-.8 2.5.4m21.1 8.3c1 .9-.4 4.4-1.7 4.4s-2.7-3.5-1.7-4.4c.3-.3 1.1-.6 1.7-.6s1.4.3 1.7.6m20.8 16.5c0 2.4-2.3 2.1-2.8-.4-.2-1 .3-1.7 1.2-1.7 1 0 1.6.9 1.6 2.1m-69.2 1.2c.2 1-.3 1.7-1.2 1.7-1 0-1.6-.9-1.6-2.1 0-2.4 2.3-2.1 2.8.4m-17.3 1c0 2.6-2 2.5-2.3-.2-.3-1.6.1-2.2 1-1.9.7.3 1.3 1.2 1.3 2.1m6.8-.2c.3 1.3.1 1.9-.6 1.6-1.5-.5-2.2-3.7-.9-3.7.5 0 1.2.9 1.5 2.1m63.5 3.1c-.6 1.8-2.8 2.1-2.8.4 0-.9.7-1.6 1.6-1.6s1.4.5 1.2 1.2m-7.3 1.8c0 .7-.6 1.5-1.2 1.7-.8.3-1.3-.4-1.3-1.7s.5-2 1.3-1.8c.6.3 1.2 1.1 1.2 1.8m-43.5 1c0 1.1-.4 2-1 2-.5 0-1-.2-1-.4s-.3-1.1-.6-2c-.4-1.1-.1-1.6 1-1.6.9 0 1.6.8 1.6 2m-24.2 2.8c.4 2.4-.7 2.9-2.6 1-1.8-1.8-1.5-4 .6-3.6.9.2 1.8 1.3 2 2.6m32.2-.3c0 1.6-2.7 3.2-3.7 2.2-.3-.4-.3-1.3 0-2.2.8-2 3.7-2 3.7 0m18 2.6c0 1-.4 1.9-1 1.9-.5 0-1-1.2-1-2.6s.4-2.3 1-1.9c.6.3 1 1.5 1 2.6m25 2.3c0 2.4-1.8 2.8-3 .6-.9-1.7-.8-2 1-2 1.1 0 2 .6 2 1.4m-64.6 3.2c.8 2.2.8 2.4-.8 2.4-1.5 0-2.8-2.4-1.9-3.4 1.1-1 2.1-.7 2.7 1m30.6 0c0 .9-.5 1.4-1.2 1.2-1.8-.6-2.1-2.8-.4-2.8.9 0 1.6.7 1.6 1.6m16.4 2.7c-.7 1.9-2 2.2-2.9.7s1.6-4.3 2.7-3.2c.5.5.6 1.6.2 2.5m-20.1-1.7c.3.4.2 1.6-.4 2.6-1.3 2.4-3.5.9-2.6-1.6.7-1.7 1.9-2.1 3-1m8.1.3c.8 1.3-.4 4.2-1.5 3.5-1.2-.7-1.2-4.4 0-4.4.6 0 1.2.4 1.5.9m28 .4c1 .7 1.5 1.9 1.1 2.9-.5 1.3-1.1 1.4-3.1.4-2.5-1.2-3.3-4.6-1.1-4.6.7 0 2.1.6 3.1 1.3m-58.4 1.8c0 2.4-2.3 2.1-2.8-.4-.2-1 .3-1.7 1.2-1.7 1 0 1.6.9 1.6 2.1m58.8 8.6c-.2 1-1 1.8-1.8 1.8s-1.6-.8-1.8-1.8c-.2-1.2.3-1.7 1.8-1.7s2 .5 1.8 1.7m13.3.6c-.1.4-.1 1.4-.1 2.2s-.4 1.5-.9 1.5c-1.2 0-2.3-2.9-1.5-4.1.6-1.1 2.6-.8 2.5.4m3.9 6.6c0 2-1.3 3.5-2.3 2.5-.7-.8.4-4.4 1.4-4.4.5 0 .9.9.9 1.9m-65.3 4.7c.8 2.1-1.3 4.2-2.8 2.7-1.3-1.3-.5-4.3 1.1-4.3.6 0 1.3.7 1.7 1.6M255 204c0 1.1-.4 2-1 2-.5 0-1-.9-1-2s.5-2 1-2c.6 0 1 .9 1 2m19 1c0 1.1-.4 2-.9 2-1.1 0-2.2-2.6-1.4-3.4 1.2-1.2 2.3-.5 2.3 1.4m.6 4.1c1 1.7-2.3 4.6-3.8 3.1-.8-.8-.8-1.5.2-2.7 1.5-1.8 2.6-1.9 3.6-.4m-71.6 3c0 1.6.4 1.9 2 1.4s2-.2 2 1.9c0 1.4-.3 2.6-.7 2.6-1.4 0-7.3-6.7-6.6-7.3 1.4-1.4 3.3-.6 3.3 1.4m19.8 12.1c-.4 2.8-2.1 3.3-4.2 1.3-2-2.1-1.2-3.5 2-3.5 2 0 2.5.4 2.2 2.2m62-1c1.7 1.7 1.5 3.5-.5 4.2-2.2.9-3.6-.7-2.8-3.3.7-2.4 1.6-2.6 3.3-.9M275 226c0 1.1-.4 2-1 2-.5 0-1-.9-1-2s.5-2 1-2c.6 0 1 .9 1 2m-20.5 1c0 .7-.6 1.5-1.2 1.7-.8.3-1.3-.4-1.3-1.7s.5-2 1.3-1.8c.6.3 1.2 1.1 1.2 1.8m43.5-.5c0 .8-.4 1.5-1 1.5-.5 0-1-.7-1-1.5s.5-1.5 1-1.5c.6 0 1 .7 1 1.5m-91.7.1c.3.3.3 1.2 0 2-.4 1.1-.9 1.2-1.9.3-.8-.6-1.1-1.5-.8-2 .6-1 1.8-1.2 2.7-.3m13.1 6c.4 1.5.5 2.9.2 3.2-1 .9-3.6-2-3.6-3.9 0-2.9 2.7-2.3 3.4.7m50.6.4c0 1.1-.7 2-1.5 2-1.7 0-1.8-.2-.9-2.4.9-2.3 2.4-2 2.4.4m-38 2.6c0 .9-.5 1.4-1.2 1.2-1.8-.6-2.1-2.8-.4-2.8.9 0 1.6.7 1.6 1.6m40.4 2.3c.3.5-.1 1.4-.8 2-1.6 1.3-3.2-.2-2.1-1.9.8-1.2 2.2-1.3 2.9-.1m6.6 1.9c0 2.1-3.3 5.6-4.3 4.5-1.2-1.2-.7-3.6 1.1-4.9 2.4-1.8 3.2-1.7 3.2.4m-39.9 2.4c.2 2-.3 6.2-.7 7-.3.4-1.1.5-1.9.1-1.7-.6-2.1-3.3-.5-3.3.6 0 .8-1.1.4-2.5-.5-1.9-.2-2.5 1-2.5.9 0 1.6.6 1.7 1.2M207 244c1.1 2.1.6 4-1 4-1.3 0-3.2-3.9-2.5-5 1-1.6 2.3-1.2 3.5 1m36.3 0c.3 1.3 0 2-.9 2-.8 0-1.4-.9-1.4-2s.4-2 .9-2 1.1.9 1.4 2m17.5 3.5c-.2 1.1-1 2-1.8 2-1.7 0-2.5-3.7-1.5-6.3.6-1.5.8-1.5 2.1.3.8 1.1 1.3 2.9 1.2 4m-29.3-1.4c.4 1.1.4 2.3.1 2.6-.8.9-3.6-1.7-3.6-3.3 0-2.2 2.8-1.6 3.5.7m18.5.9c0 1.3-.7 2-2 2s-2-.7-2-2 .7-2 2-2 2 .7 2 2m-40.3 7.6c-.9 1-3.8-1.6-3.1-2.8.4-.6 1.3-.4 2.2.6.9.8 1.3 1.9.9 2.2m47.6-2.9c.9.9-1.3 3.4-2.4 2.7-1.4-.8-1.1-3.4.4-3.4.8 0 1.7.3 2 .7m-7.6 2.8c.3.9.3 1.9-.1 2.2-.8.9-3.7-1.8-3-2.8.8-1.4 2.4-1.1 3.1.6m23.2-.6c1.6 1 .6 3.1-1.4 3.1-1.7 0-2.8-1.7-2-3 .8-1.2 1.6-1.2 3.4-.1m-44.9 3.2c0 1.2-2.7 1.1-3.5-.1-1.1-1.7.5-3.2 2.1-1.9.8.6 1.4 1.5 1.4 2m59-1.7c0 .8-.7 1.6-1.5 2-1 .4-1.5-.1-1.5-1.4 0-1.1.7-2 1.5-2s1.5.6 1.5 1.4m3 2.4c0 .4-.6 1.4-1.2 2-.7.7-1.3 2-1.3 3 0 .9-.8 1.8-1.8 2-1.5.3-1.6 0-.5-2.5.6-1.5 1.6-3.4 2.1-4.1 1.1-1.4 2.7-1.6 2.7-.4m-57 3.1c0 1.4-.9 2.1-3.1 2.6-1.7.4-3.3.5-3.6.2-.9-1 .9-2.9 2.2-2.3.7.2 1.6-.2 1.9-1 .8-2.1 2.6-1.7 2.6.5m-9.2 1.4c.2 1-.3 1.7-1.2 1.7-1.8 0-2.9-1.6-2.1-3.1.9-1.4 2.9-.6 3.3 1.4m36.2 8.1c0 .2-.3 1.1-.6 2-.9 2.3-2.4 2-2.4-.4 0-1.1.7-2 1.5-2s1.5.2 1.5.4m-24 4.6c0 2.3-3.5 2.8-4.3.6-.7-1.8.1-2.6 2.5-2.6 1.1 0 1.8.7 1.8 2m39-.5c0 .8-.9 1.5-2 1.5-1.3 0-1.8-.5-1.4-1.5.4-.8 1.2-1.5 2-1.5s1.4.7 1.4 1.5m17.8.7c-.5 1.5-5.8 2.4-5.8 1 0-1.5 1.2-2.2 3.8-2.2 1.4 0 2.2.5 2 1.2m-39.4 4.5c-.1 4.8-1 6.4-2.9 5.6-1.8-.6-1.9-4.3-.3-7.8 1.6-3.6 3.3-2.5 3.2 2.2m32.6.8c0 1.6-2.7 2.8-3.6 1.4-.7-1.2 1.5-4.1 2.7-3.3.5.3.9 1.1.9 1.9m-21.5 1.5c.3.6-.1 1.3-1 1.6-1.9.8-3 0-2-1.5.8-1.4 2.2-1.4 3-.1m-25.5 2.4c0 1.6-1.8 3.1-2.7 2.2-.8-.8.5-3.6 1.7-3.6.5 0 1 .6 1 1.4m-4 2.7c0 1.8-.2 1.9-1.5.9-.8-.7-1.5-1.6-1.5-2.1s.7-.9 1.5-.9c.9 0 1.5.9 1.5 2.1m14.7 1.5c.9 2.3-1.1 3.8-2.6 2-1.3-1.6-.7-3.6 1-3.6.5 0 1.2.7 1.6 1.6m-14.9 3.1c.2.8-.6 1.3-2.2 1.3-2.5 0-3.3-1-1.9-2.4 1-1 3.6-.3 4.1 1.1m8.2-.3c0 1.5-2.4 2.8-3.4 1.9-1.3-1.4-.5-3.3 1.4-3.3 1.1 0 2 .6 2 1.4m15.4 5c-.3.9-1 1.6-1.5 1.6-1.7 0-2.2-3-.8-4.6 1.1-1.3 1.4-1.3 2.1 0 .4.8.5 2.1.2 3m-24.9.2c3.5 2.3 3.1 3.3-.9 3.1-4.3-.3-5.3-1.2-3.6-3.2 1.5-1.9 1.5-1.9 4.5.1m10.8 2.1c.9.9-1.3 3.4-2.4 2.7-1.4-.8-1.1-3.4.4-3.4.8 0 1.7.3 2 .7m9.7 4.4c0 2-2.1 4.9-3.5 4.9-1.8 0-1.9-1.4-.3-4 1.4-2.1 3.8-2.7 3.8-.9m10.8 1.7c.5 1.7-2.7 2.7-4.1 1.3-.9-.9-.8-1.4.3-2.1 1.8-1.1 3.2-.8 3.8.8m-27.8 7.7c0 2.1-2.8 3.1-4.3 1.6-.9-.9-.8-1.4.3-2.1 2.2-1.4 4-1.2 4 .5m13 4.1c0 .8-.7 1.4-1.5 1.4-1.5 0-2.1-2.1-.9-3.3 1-.9 2.4.2 2.4 1.9m11.1-.3c-.1 1.2-1.5.9-1.9-.4-.3-.6.1-1 .8-.8.6.3 1.1.8 1.1 1.2m12.2 2.8c-1.7 1.7-3.7.1-2.2-1.7.8-1 1.5-1.2 2.3-.4.7.7.7 1.3-.1 2.1m-25.1 2.4c0 .5-.5 1.1-1.1 1.3s-1.1-.4-1.1-1.3.5-1.5 1.1-1.3 1.1.8 1.1 1.3m8.9 5c-.1 1.5-2.4 1.2-2.9-.3-.3-.9.2-1.3 1.2-1 1 .1 1.7.7 1.7 1.3m-7.1 3c0 .8-.9 1.5-2 1.5s-2-.7-2-1.5.9-1.5 2-1.5 2 .7 2 1.5m-6.5 3.6c0 .7-.8 1.5-1.7 1.7-1.8.3-2.5-1.8-1.1-3.2 1-1 2.8-.1 2.8 1.5m6.5 2c0 2.5-3.3 2.2-3.8-.4-.2-1.2.3-1.7 1.7-1.7 1.5 0 2.1.6 2.1 2.1"/></svg>