<svg xmlns="http://www.w3.org/2000/svg" width="682.667" height="512" version="1.0" viewBox="0 0 512 384"><path d="M28.5.7c-3.6.7-9.9 3.7-17 7.9-3.8 2.3-8 4.5-9.2 4.9l-2.3.6V384h512V15.2l-5-1.7c-3.1-1-10.6-2-18.8-2.4-14.6-.8-19.6-2.3-27.9-8.7C457.2.1 456.6 0 440.2 0 426.3 0 423 .3 422 1.5c-2.7 3.3-14.8 10.4-20.4 12-5.2 1.5-7 1.6-15 .5-12.5-1.7-27.2-4.7-32.4-6.6-4-1.5-4.4-1.9-4-4.5l.5-2.9H119l3 6 3.1 6-2.7 2.5c-1.5 1.4-5.9 3.5-9.7 4.7-6.4 1.9-7.8 2-14.6.9C87.8 18.5 71.5 13.7 60 8.9 40.1.4 35.3-.8 28.5.7m257.2 73.8c.1.5-.2 1.7-.7 2.5-.9 1.3-1.1 1.3-2 0-1.5-2.3-1.2-4.2.7-3.8.9.2 1.8.7 2 1.3m-63.5 16.4c.4 3.1-1.3 3.7-3 1-1-1.6-1.1-2.4-.1-3.5 1.4-1.8 2.6-.8 3.1 2.5m21.8 25.5c0 3.4-1.5 4-2.8 1.2-1.1-2.5-.7-3.6 1.5-3.6.7 0 1.3 1.1 1.3 2.4m22 11c0 2.1-2.1 3.1-3 1.5-.5-.7-.6-1.7-.4-2.1.9-1.4 3.4-.9 3.4.6m-70.4 18.8c.3 1.1.4 2.2.1 2.4-.7.8-3.7-2.6-3.7-4.1 0-2.1 2.8-.7 3.6 1.7m6.8-.6c.4.9.4 1.9.2 2.1-.8.8-2.6-.8-2.6-2.3 0-1.9 1.6-1.8 2.4.2M216 150c0 2.2-.4 4-1 4-1.4 0-3.2-3.8-2-4.5.5-.3.7-1.2.3-2-.3-.9.1-1.5 1.1-1.5 1.2 0 1.6 1 1.6 4m74-1.4c0 1.4-1.2 1.9-2.3.8-.9-.9.4-3.5 1.4-2.8.5.3.9 1.2.9 2m-25.6 4.7c-.3.9-1.2 1.7-2 1.7-1.7 0-1.7-.5-.3-3.2 1.3-2.4 3.3-1 2.3 1.5M189 153c0 1.1-.4 2-.9 2-1.1 0-2.2-2.6-1.4-3.4 1.2-1.2 2.3-.5 2.3 1.4m85 .4c0 .8-.5 1.8-1.1 2.2-1.4.8-3.3-1.1-2.5-2.5 1-1.6 3.6-1.3 3.6.3m-30 2.5c0 1.1-.4 2.2-.9 2.5-1.1.7-2-1.4-1.3-3.2.7-1.9 2.2-1.4 2.2.7m-17 3.1c0 1.1-.7 2-1.5 2s-1.5-.9-1.5-2 .7-2 1.5-2 1.5.9 1.5 2m46 .6c0 1.2-4.2 7.4-5 7.4-.4 0-1.1-.7-1.4-1.6-.6-1.6 1.7-4.8 2.8-3.7.3.4.6-.1.6-1 0-1 .7-1.7 1.5-1.7s1.5.3 1.5.6m-40 2.4c0 1.1-.4 2-1 2-.5 0-1-.2-1-.4s-.3-1.1-.6-2c-.4-1.1-.1-1.6 1-1.6.9 0 1.6.8 1.6 2m-30 1.4c0 .7.9 1.6 2 1.9s2 1.2 2 2.1c0 2.1-.5 2-4-.6-3.2-2.3-4-4.8-1.5-4.8.8 0 1.5.6 1.5 1.4m26.5 1.1c0 1-.5 2-1.1 2.2-1.3.4-2.7-2.4-1.8-3.8.9-1.5 2.9-.4 2.9 1.6m10.3 1.4c.3 1.6-.1 2.2-1 1.9-.7-.3-1.5-1.5-1.6-2.7-.3-1.6.1-2.2 1-1.9.7.3 1.5 1.5 1.6 2.7m13.2-1c0 2.3-1.6 3.6-2.5 2.1-.9-1.4.1-4 1.5-4 .5 0 1 .9 1 1.9m31 9.1c0 1-.4 2.1-.9 2.5-1.2.7-2.5-3.1-1.6-4.5.9-1.5 2.5-.2 2.5 2m-11.7.6c.9 1-.4 3.4-1.9 3.4-.8 0-1.4-.9-1.4-2 0-1.9 1.9-2.7 3.3-1.4m19.5 8.1c-.2 1-1.1 1.9-2 2.1-1.2.2-1.5-.2-1.1-1.7.7-2.5 3.6-2.8 3.1-.4m-73 5.5c1.8 1.8 1.4 3.8-.8 3.8-1.5 0-2-.7-2-2.5 0-2.7.9-3.2 2.8-1.3m39 5.5c-.5 2.5-2.8 2.8-2.8.4 0-1.2.6-2.1 1.6-2.1.9 0 1.4.7 1.2 1.7m19.7 3.3c0 1.8-.6 3.5-1.2 3.7-.9.3-1.3-.8-1.3-3.7s.4-4 1.3-3.8c.6.3 1.2 2 1.2 3.8m-77.5 5c0 2.7-2.8 3.3-4.1.9-1.4-2.7.6-5.5 2.7-3.8.8.6 1.4 1.9 1.4 2.9m15.5 7.1c0 2.8-2.9 3.8-3.9 1.3-.7-1.9 1.1-4.7 2.8-4.1.6.2 1.1 1.4 1.1 2.8M278 215c0 1.1-.4 2-1 2-.5 0-1-.9-1-2s.5-2 1-2c.6 0 1 .9 1 2m13.5.4c1.7 1.2 1.7 1.6.6 3-1.3 1.5-1.5 1.5-3.2 0-1-.9-1.5-2.2-1.2-3 .7-1.8 1.4-1.8 3.8 0m-77.7 4.4c.2 1.4-.2 2.2-1.1 2.2-1.7 0-3-2.7-2.1-4.1.9-1.6 2.9-.4 3.2 1.9m92-1.6c-.2.6-1 1.4-1.6 1.6-.7.2-1-.2-.6-1.2.7-1.8 2.8-2.2 2.2-.4M256 220c0 2.1-1.5 2.7-2.5 1-.7-1.2.2-3 1.6-3 .5 0 .9.9.9 2m-52.3.6c.8 2.1-1.3 4.2-2.8 2.7-1.3-1.3-.5-4.3 1.1-4.3.6 0 1.3.7 1.7 1.6m69.8 5.4c0 .7-.6 1.5-1.2 1.7-.8.3-1.3-.4-1.3-1.7s.5-2 1.3-1.8c.6.3 1.2 1.1 1.2 1.8m-44.5.6c0 .9-.7 1.4-1.7 1.2-2.5-.5-2.8-2.8-.4-2.8 1.2 0 2.1.6 2.1 1.6m-2 7.1c0 2.4-2.5.9-2.8-1.7-.3-2.1-.2-2.2 1.2-1.1.9.7 1.6 2 1.6 2.8m48.3-.6c-1.7 1.7-3.7.1-2.2-1.7.8-1 1.5-1.2 2.3-.4.7.7.7 1.3-.1 2.1m8.1-2.2c.8 1.3-2 4.5-3.3 3.7-.8-.5-.8-1.3-.1-2.7 1.1-2 2.5-2.5 3.4-1m-82.4 4.7c0 1.6-2.6 1.9-3.5.4-.4-.6-.4-1.8-.1-2.7.5-1.2.9-1.3 2.1-.3.8.7 1.5 1.9 1.5 2.6m36.5 1.5c-.5 4.8-1.1 5.7-2.7 4.1-.8-.8-.8-1.5.2-2.7s1-1.9.2-2.7c-1.8-1.8-1.5-2.8.8-2.8 1.7 0 1.9.6 1.5 4.1m24.3 0c-.1 1.3-1 2.4-1.8 2.4-1.7 0-2.1-3.3-.7-5.3 1.4-1.8 2.9 0 2.5 2.9m-19.5-1.7c.6 1.6-.2 2.8-1.4 2-1.2-.7-1.1-3.4 0-3.4.5 0 1.1.6 1.4 1.4m7.2 3.6c1 1.6-1.6 4.3-2.8 3.1-1.1-1.1-.2-4.1 1.2-4.1.5 0 1.3.5 1.6 1m-45.7 7.4c.3 1.2-.1 1.7-1 1.4-.7-.3-1.5-1.3-1.6-2.2-.3-1.2.1-1.7 1-1.4.7.3 1.5 1.3 1.6 2.2m54.2.1c0 .8-.7 1.5-1.5 1.5s-1.5-.7-1.5-1.5.7-1.5 1.5-1.5 1.5.7 1.5 1.5m-32.4 1.6c1 1.7-1.3 3.6-2.7 2.2-1.2-1.2-.4-3.3 1.1-3.3.5 0 1.2.5 1.6 1.1m25.4.4c0 .8-.7 1.5-1.5 1.5s-1.5-.7-1.5-1.5.7-1.5 1.5-1.5 1.5.7 1.5 1.5m46 2.1c0 1.9-3.2 2.6-4.8 1-.8-.8-1.2-2.2-.9-3 .5-1.3 1.1-1.4 3.2-.4 1.4.6 2.5 1.7 2.5 2.4m-19-.6c0 1.3-.7 2-1.8 2-2.6 0-3.4-1.1-2.1-2.7 1.7-2 3.9-1.6 3.9.7m-58.2 5.4c.3 1.3-.1 1.7-1.4 1.4-1.1-.2-2-1.1-2.2-2.2-.3-1.3.1-1.7 1.4-1.4 1.1.2 2 1.1 2.2 2.2m12.2 1.5c0 1.6-1.1 2.3-5 3.1-.2.1-.6-.3-.8-.9s.6-1.1 1.8-1.1 1.9-.4 1.6-.9c-.5-.8.2-1.4 2.2-2 .1-.1.2.7.2 1.8m63.8-.7c-.3.7-1.5 1.5-2.8 1.6-2.1.3-2.2.2-1.1-1.2 1.6-1.9 4.4-2.1 3.9-.4m-33.8 8.9c0 2-2.4 2.6-3.5.9-.4-.6-.4-1.7-.1-2.5.7-2 3.6-.7 3.6 1.6m19-.7c0 1.6-1.8 3.1-2.7 2.2-.8-.8.5-3.6 1.7-3.6.5 0 1 .6 1 1.4m-47 4c0 2.1-2.1 3.1-3 1.5-.5-.7-.6-1.7-.4-2.1.9-1.4 3.4-.9 3.4.6m21 1.6c0 1.1-.6 2-1.4 2-1.8 0-2.9-1.6-2.1-3 1.1-1.8 3.5-1.1 3.5 1m44.7-.3c.5 1.5-3.6 2.8-4.9 1.5-.6-.6-.7-1.5-.3-2.2.9-1.4 4.7-.9 5.2.7m-6.4 4.8c.1.5-.6 1.1-1.5 1.3-1.1.2-1.8-.3-1.8-1.3 0-1.7 3-1.8 3.3 0m-38.9 1.1c1.1 2.9.6 4.4-1.4 4.4-1.1 0-2-.6-2-1.4s-.3-2.1-.6-3c-.4-1.1 0-1.6 1.4-1.6 1.1 0 2.3.7 2.6 1.6m13.4 1.6c-.6 1.8-2.8 2.1-2.8.4 0-.9.7-1.6 1.6-1.6s1.4.5 1.2 1.2m-33 6.2c.3 1.2-.1 1.7-1 1.4-.7-.3-1.5-1.3-1.6-2.2-.3-1.2.1-1.7 1-1.4.7.3 1.5 1.3 1.6 2.2m5.2.1c0 .8-.4 1.5-.9 1.5-1.3 0-2.2-1.6-1.4-2.4 1.1-1.1 2.3-.6 2.3.9m10.8.2c-.5 2.5-2.8 2.8-2.8.4 0-1.2.6-2.1 1.6-2.1.9 0 1.4.7 1.2 1.7m11.7 3.4c0 .7-.8 1.5-1.7 1.7-1.8.3-2.5-1.8-1.1-3.2 1-1 2.8-.1 2.8 1.5m-28.9 2c.3.6.2 1.5-.2 1.9-1.2 1.2-3.8-.5-3-1.9.9-1.4 2.3-1.4 3.2 0m9.4.4c0 .8-.4 1.5-.9 1.5-1.3 0-2.2-1.6-1.4-2.4 1.1-1.1 2.3-.6 2.3.9m-13.6 5.3c-.9 3.2-3.4 2.8-3.2-.6.2-3.8.8-4.6 2.4-3 .8.7 1.1 2.3.8 3.6m15 .8c.8 2.2.8 2.4-.8 2.4-1.8 0-2.9-1.6-2.1-3 .9-1.5 2.2-1.2 2.9.6m-10.8 1.5c1 1.7-1.3 3.6-2.7 2.2-1.2-1.2-.4-3.3 1.1-3.3.5 0 1.2.5 1.6 1.1m21.8-.2c.9 1.4-.4 4.1-2 4.1-.8 0-1.4-.8-1.4-1.8 0-2.9 2.2-4.3 3.4-2.3m15.1 4.1c0 .8-1 1.6-2.2 1.8-2.2.3-3.2-1.6-1.6-3.2 1.2-1.1 3.8-.2 3.8 1.4m-16.5 4.5c0 .8-.7 1.5-1.5 1.5-1.6 0-2-1.2-.8-2.3 1.1-1.2 2.3-.8 2.3.8m-18.5 7.5c0 .9-1.1 1.6-2.7 1.8-2 .2-2.8-.1-2.8-1.2 0-.8.6-1.7 1.3-1.9 2.1-.9 4.2-.2 4.2 1.3m25 0c.3.5-.1 1-.9 1-.9 0-1.6-.5-1.6-1 0-.6.4-1 .9-1 .6 0 1.3.4 1.6 1m6.5.5c0 .8-.7 1.5-1.5 1.5s-1.5-.7-1.5-1.5.7-1.5 1.5-1.5 1.5.7 1.5 1.5m-15.2 2.7c1.5 1.5 1.6 3.8.1 3.8-.7 0-1.7.7-2.3 1.5-.8 1.1-2 1.4-4.4.9-3.3-.7-4.6-2.7-1.4-2.3 5.1.5 6.3 0 5.6-2.6-.7-2.7.4-3.3 2.4-1.3m31.2.9c0 1.2-3.7 1.2-4.4 0-.7-1.1 1.4-2 3.2-1.3.6.2 1.2.8 1.2 1.3m-18.4 4.3c1.8 1.4 1.8 1.5-.6 2.4-2.5.9-6 .5-6-.7 0-1.1 2.3-3.1 3.5-3.1.6 0 2 .6 3.1 1.4m-4.1 8.4c0 1.8-2 1.5-2.3-.4-.3-1 .1-1.5 1-1.2.7.3 1.3 1 1.3 1.6m-9 2.2c0 1.9-3.5 2.6-4.6.9-.4-.7-.5-1.7-.2-2.2.8-1.4 4.8-.3 4.8 1.3m-8.7 6.4c.4 2-1.6 2-4.2.1-1.1-.9-1.6-2-1.2-3.1.6-1.5.9-1.5 2.9-.1 1.2.8 2.3 2.2 2.5 3.1m10.2-.9c0 .8-.4 1.5-1 1.5-.5 0-.7.6-.5 1.2.5 1.6-4.1 5.2-5.5 4.3-1.6-1-1.2-1.9 2.1-5.3 3.4-3.5 4.9-4 4.9-1.7"/></svg>