<svg xmlns="http://www.w3.org/2000/svg" width="682.667" height="512" version="1.0" viewBox="0 0 512 384"><path d="M2.8 1.8 0 3.5V384h512V7h-2.2c-1.2 0-5.9.5-10.3 1.2-9.8 1.4-15.2.2-22.6-4.9L472 0h-45.9l-6 3C412.4 6.9 406 7.6 384 7c-17.3-.5-17.6-.5-24.1-3.8L353.3 0H121.8l.7 2.2c1.9 6.3-.4 8.9-11 12.3-7.6 2.3-12 1.6-27.1-4.5-6.8-2.7-16.8-6.1-22.3-7.5C52.8.2 50.5 0 28.8 0 8.6 0 5.1.3 2.8 1.8m282.3 62.5c-.1.4-.1 1.6-.1 2.7s-.4 2-1 2c-.5 0-1-1.4-1-3.1s.5-2.9 1.1-2.7 1 .7 1 1.1M218 80.7c0 3.6-.1 3.7-1.5 1.6-.8-1.2-1.2-2.8-.9-3.7 1.1-2.9 2.4-1.7 2.4 2.1m25 27.3q0 3-1.5 3t-1.5-3 1.5-3 1.5 3m22.6 11.6c-.3.9-.6 2-.6 2.5 0 1.7-1.8.9-2.3-1-.6-2.3 0-3.1 2.1-3.1.9 0 1.2.6.8 1.6m-72.8 20.2c.2 1.2-.1 2.2-.6 2.2-1.5 0-3.4-2.8-2.7-4 1-1.7 3-.6 3.3 1.8m6.6-.2c.9 2.2-.3 3.2-1.4 1.4-1.2-1.9-1.2-3-.1-3 .5 0 1.2.7 1.5 1.6m15.2 3.6c-.8 3.9-1.3 4.5-2.7 3.1-1.6-1.6-.2-6.3 1.7-6.3 1.3 0 1.5.7 1 3.2m-28.7 1c1.2 3.2.2 4.4-1.6 1.9-.8-1.2-1.1-2.6-.8-3.1.9-1.5 1.5-1.2 2.4 1.2m106.1.8c-1.8 1.1-2.4.6-1.6-1.6.5-1.4.9-1.5 1.9-.5.9.9.9 1.4-.3 2.1m-27.5 2c0 .7-.6 1.5-1.2 1.7-.8.3-1.3-.4-1.3-1.7s.5-2 1.3-1.8c.6.3 1.2 1.1 1.2 1.8m-22 2.3c0 2.6-2 2.5-2.3-.2-.3-1.6.1-2.2 1-1.9.7.3 1.3 1.2 1.3 2.1m32.3.4c-.4 2.2-2.2 2-2.6-.1-.2-1 .3-1.6 1.3-1.6s1.5.7 1.3 1.7m-46 3.3c.6 0 1.2.9 1.2 2 0 1.3-.5 1.8-1.6 1.3-1.1-.4-1.5-.1-1.2 1.2.6 3.2-1.9 2.7-3.1-.6-1.6-4.5-1.4-5.2 1.2-4.5 1.2.3 2.8.6 3.5.6m45.8 1.1c.3.6-.1 1.8-1 2.7-1.5 1.5-1.6 1.4-1.6-1.1 0-2.7 1.3-3.6 2.6-1.6m-4 2.5c.4 1.7.2 2.9-.7 3.4-1.8 1.2-2.9.3-2.9-2.4 0-4.2 2.6-5 3.6-1m-68.2 2.7c1.6.6 2.3 3.7.9 3.7-1.9-.1-5.5-5.1-4.8-6.8.6-1.5.8-1.5 1.5.4.5 1.2 1.5 2.4 2.4 2.7m35.6-.2c0 1.1-.4 1.7-1 1.4-.5-.3-1-1.3-1-2.1s.5-1.4 1-1.4c.6 0 1 .9 1 2.1m14-.1c0 1.1-.4 2-1 2-.5 0-1-.2-1-.4s-.3-1.1-.6-2c-.4-1.1-.1-1.6 1-1.6.9 0 1.6.8 1.6 2m32.4 7.3c-.3.9-1 1.7-1.5 1.7-1.1 0-1.2-3.4-.2-4.4 1.1-1.1 2.4.9 1.7 2.7m-11.9 2.7c.4.6.4 1.8.1 2.7-.5 1.2-.9 1.3-2.1.3-.8-.7-1.5-1.9-1.5-2.6 0-1.6 2.6-1.9 3.5-.4m20.9 6.8c.2.4 0 1.4-.5 2.2-.8 1.3-1 1.3-1.8 0-1-1.5-.6-3 .9-3 .5 0 1.1.4 1.4.8m-75.6 9c.2 1.4-.2 2.2-1.1 2.2-1.7 0-3-2.7-2.1-4.1.9-1.6 2.9-.4 3.2 1.9m40 4.6c.3 1.2-.1 1.7-1 1.4-.7-.3-1.5-1.3-1.6-2.2-.3-1.2.1-1.7 1-1.4.7.3 1.5 1.3 1.6 2.2m21.7 1.6c.3 2.6-1.2 5.3-2.4 4.5-.4-.2-.8-2-.9-4-.1-2.9.2-3.6 1.5-3.3.9.2 1.7 1.4 1.8 2.8m-84.1 4.1c.9 2.3 1.5 4.4 1.2 4.6-1.1 1.1-3.7-.8-3.4-2.4.2-1-.3-2.3-1.1-2.9-1.4-1.1-.8-3.4.9-3.4.4 0 1.5 1.9 2.4 4.1m16.6 6.4c0 3.1-2.7 4-4.1 1.3-.9-1.8-.8-2.4.6-3.4 2.3-1.7 3.5-.9 3.5 2.1m67.2 8.7c-1.5 1.5-2.6.4-1.8-1.8.5-1.3.9-1.5 1.8-.6s.9 1.5 0 2.4m-68.4 3.1c.2 1.5 0 2.7-.5 2.7-1.3 0-3.4-4-2.7-5.1 1-1.7 2.9-.4 3.2 2.4m84.7-2c2.1 1.6 1.3 3.7-1.5 3.7-2.2 0-3.4-1.5-2.6-3.5.7-1.9 1.7-1.9 4.1-.2m14.5 2.1c0 1.7-1.4 2.9-2.3 2-.8-.8.3-3.4 1.4-3.4.5 0 .9.6.9 1.4m-53.2 2.9c.2 1-.3 1.7-1.2 1.7-1 0-1.6-.9-1.6-2.1 0-2.4 2.3-2.1 2.8.4M201 218c0 1.1-.7 2-1.5 2s-1.5-.9-1.5-2 .7-2 1.5-2 1.5.9 1.5 2m26 2.4c0 .2.3 1.1.6 2 .4 1.2 0 1.6-1.5 1.6-1.4 0-2.1-.6-2.1-2 0-1.1.7-2 1.5-2s1.5.2 1.5.4m49.8 1.8c-.7 1.9-3.8 2.2-3.8.4 0-1 .9-1.6 2.1-1.6s1.9.5 1.7 1.2m-51.8 4.4c0 1.9-2.5 1.8-4.1-.2-1-1.3-1-1.7.1-2.4 1.7-1 4 .5 4 2.6m61.5.4c0 .7-1 1.9-2.2 2.7-2.1 1.4-2.3 1.4-3-.2-.4-1.2 0-2.3 1.2-3.2 2.2-1.5 4-1.2 4 .7m-88.7 2.8c.2 1.4-.2 2.2-1.1 2.2-1.9 0-4-2.6-3.2-4 1.1-1.8 4-.6 4.3 1.8m64.3.9c-.7 1.4-.7 2.3.1 3.1 1.2 1.2.1 3.5-1.5 2.9-1.3-.4-1.7-5.7-.4-8.1.6-1.2 1.2-1.5 1.9-.8s.6 1.6-.1 2.9m15.4-1.7c0 .7-.6 1.5-1.2 1.7-.8.3-1.3-.4-1.3-1.7s.5-2 1.3-1.8c.6.3 1.2 1.1 1.2 1.8m-40.9 4.3c.1 3.2-.2 4.7-1.1 4.7-1.7 0-2.7-2.7-1.4-3.6.7-.4.7-1 0-1.7-1.8-1.8-1.3-4.9.7-4.5 1.3.2 1.7 1.4 1.8 5.1m5.7-2.9c.6 1.6-.2 2.8-1.4 2-1.2-.7-1.1-3.4 0-3.4.5 0 1.1.6 1.4 1.4m7.4 5.2c.8 2-1.3 4.2-2.7 2.8-1.2-1.2-.3-4.4 1.1-4.4.5 0 1.2.7 1.6 1.6m-49.8 6.7c.6.8.8 1.6.5 2-1 .9-3.4-.4-3.4-1.9 0-1.8 1.4-1.8 2.9-.1m59.1 1.2c0 .8-.7 1.5-1.5 1.5s-1.5-.7-1.5-1.5.7-1.5 1.5-1.5 1.5.7 1.5 1.5m-34.6 1.3c.8 1.3-1.1 3.5-2.3 2.8-1.6-1-1.4-3.6.3-3.6.8 0 1.7.4 2 .8m27.6.6c0 .8-.7 1.6-1.5 2-1 .4-1.5-.1-1.5-1.4 0-1.1.7-2 1.5-2s1.5.6 1.5 1.4m47.5 1.1c0 2.2-1.4 2.8-3.4 1.6-1.2-.8-1.3-1.2-.1-2.6 1.6-2 3.5-1.4 3.5 1m-19.5.9c0 .8-.5 1.8-1.1 2.2-1.4.8-3.3-1.1-2.5-2.5 1-1.6 3.6-1.3 3.6.3m-62.5 4.6c0 2.2-2.9 1.8-3.3-.3-.3-1.4.1-1.8 1.5-1.5 1 .2 1.8 1 1.8 1.8m81.5 1c0 1.1-.7 2-1.5 2-1.5 0-2.1-2.1-.8-3.3 1.2-1.3 2.3-.7 2.3 1.3m-67 3c0 2.1-1.5 2.7-2.5 1-.7-1.2.2-3 1.6-3 .5 0 .9.9.9 2m-3.5 1.8c0 1.8-2 1.5-2.3-.4-.3-1 .1-1.5 1-1.2.7.3 1.3 1 1.3 1.6m34.1 4.8c-.6 1.6-.8 1.6-2.3.2-.9-1-1.3-2.3-.9-3.4.6-1.6.8-1.6 2.3-.2.9 1 1.3 2.3.9 3.4m21.4-3.1c0 1.5-2.6 3.2-3.6 2.3-.2-.3-.2-1.3.2-2.2.8-2 3.4-2.1 3.4-.1m-51.2 6.3c.4 2.6-.7 2.8-3.4.7-1.6-1.3-1.7-1.6-.4-2.5 2.1-1.4 3.4-.7 3.8 1.8m22.2.7c0 2.5-1.4 3.4-2.4 1.6-.8-1.2.3-4.1 1.5-4.1.5 0 .9 1.1.9 2.5m48.8.7c.3 1.3-.3 1.8-2.2 1.8-2.7 0-4.1-1.4-3.1-3.1 1-1.6 4.9-.6 5.3 1.3m-6.3 3.7c.8 1.4-2.8 3.1-4.4 2.1-.8-.4-1-1.3-.7-1.9.9-1.3 4.3-1.5 5.1-.2m-42.5 2.2c1.3 2.4.7 4.9-1.2 4.9-1.2 0-3.8-4.3-3.8-6.2 0-1.7 4-.7 5 1.3m15 1.4c0 .8-.7 1.5-1.5 1.5s-1.5-.7-1.5-1.5.7-1.5 1.5-1.5 1.5.7 1.5 1.5m-19 6.6c0 2.4-2.3 2.1-2.8-.4-.2-1 .3-1.7 1.2-1.7 1 0 1.6.9 1.6 2.1m-16 .4c0 .8-.7 1.5-1.5 1.5s-1.5-.7-1.5-1.5.7-1.5 1.5-1.5 1.5.7 1.5 1.5m29.4 1.1c.8 2-.1 3.4-2 3.4-1.5 0-1.7-.9-.8-3.4.8-2 2-2 2.8 0m-23.4.9c0 .8-.7 1.5-1.5 1.5s-1.5-.7-1.5-1.5.7-1.5 1.5-1.5 1.5.7 1.5 1.5m3 5.6c0 2.4-2.3 2.1-2.8-.4-.2-1 .3-1.7 1.2-1.7 1 0 1.6.9 1.6 2.1m-16 2c0 .5-.7.9-1.5.9-.9 0-1.5-.9-1.5-2.1 0-1.8.2-1.9 1.5-.9.8.7 1.5 1.6 1.5 2.1m6-1.6c0 .8-.9 1.5-2 1.5-2 0-2.6-1.1-1.3-2.3 1.2-1.3 3.3-.7 3.3.8m-5.2 5.2c-.2 1-1 1.8-1.8 1.8s-1.6-.8-1.8-1.8c-.2-1.2.3-1.7 1.8-1.7s2 .5 1.8 1.7m16.1-.4c1.3 1.6.5 2.7-2.1 2.7-1.8 0-2.5-2-1.1-3.3 1-1 1.9-.8 3.2.6m11.9 1.4c-.3 3-2.5 4.2-3.4 1.9-.9-2.2.2-4.6 2.1-4.6 1.2 0 1.5.8 1.3 2.7m-24 2.6c.2 1-.3 1.7-1.2 1.7s-1.6-.2-1.6-.4-.3-1.2-.6-2.1c-.5-1.3-.2-1.6 1.2-1.3 1 .2 2 1.1 2.2 2.1M274 300c0 1.3-.7 2-1.9 2-2.2 0-3.5-1.5-2.6-3 1.2-1.9 4.5-1.1 4.5 1m-18.4 5.1c1 1.7-1.3 3.6-2.7 2.2-1.2-1.2-.4-3.3 1.1-3.3.5 0 1.2.5 1.6 1.1m8.4 4.7c0 1-2.2 3.2-3.2 3.2-.4 0-.8-.9-.8-2 0-1.3.7-2 2-2 1.1 0 2 .4 2 .8m6 2.7c0 .8-.7 1.5-1.5 1.5-1.6 0-2-1.2-.8-2.3 1.1-1.2 2.3-.8 2.3.8m-35.2.7c-.5 1.5-5.8 2.4-5.8 1 0-1.5 1.2-2.2 3.8-2.2 1.4 0 2.2.5 2 1.2m52 3.6c.3.9-.2 1.3-1.4 1-.9-.1-1.9-.9-2.2-1.6-.3-.9.2-1.3 1.4-1 .9.1 1.9.9 2.2 1.6m-32.8.7c0 1-1.1 1.5-3.5 1.5s-3.5-.5-3.5-1.5 1.1-1.5 3.5-1.5 3.5.5 3.5 1.5m-9 2.4c0 1.2-2 2.5-2.7 1.8s.6-2.7 1.8-2.7c.5 0 .9.4.9.9m5 1.1c0 1.2-2.8 2.5-3.6 1.7-.9-.9.6-2.7 2.2-2.7.8 0 1.4.5 1.4 1m18.9.4c.7.8.8 1.7.3 1.9-1.3.9-7.2.5-7.8-.5-1.7-2.7 5.3-4 7.5-1.4M258 328c0 2.1-1.5 2.7-2.5 1-.7-1.2.2-3 1.6-3 .5 0 .9.9.9 2m-6.1 4.3c1.4 1.7.4 2.7-2.6 2.7-3.5 0-2.8-3.5.8-3.9.4-.1 1.2.5 1.8 1.2m11.1.2c0 .8-.7 1.5-1.5 1.5s-1.5.9-1.5 2c0 2.2-1.5 2.7-2.6.8-.4-.6 0-1.6.9-2.3 1-.7 1.7-1.7 1.7-2.4 0-.6.7-1.1 1.5-1.1s1.5.7 1.5 1.5m-24.9 6c-.1 1.5-2.4 1.2-2.9-.3-.3-.9.2-1.3 1.2-1 1 .1 1.7.7 1.7 1.3m3.9 2.5c0 1.6-1.8 3-4.1 3-1.4 0-1.1-2.2.7-4.1 1.9-2.1 3.4-1.6 3.4 1.1m13-.4c0 1.7-2.2 1.4-2.8-.4-.2-.7.3-1.2 1.2-1.2s1.6.7 1.6 1.6m-2.2 3.2c.2.7-.5 1.6-1.6 1.9s-2.3 1.2-2.6 2c-.7 1.8-2.6.8-2.6-1.4 0-3.4 5.8-5.5 6.8-2.5"/></svg>