<svg xmlns="http://www.w3.org/2000/svg" width="682.667" height="512" version="1.0" viewBox="0 0 512 384"><path d="M0 192v192h512V4.5l-5.3-1.9C501.6.7 496.7.6 302 .2 116.8-.1 101.9 0 94.8 1.6c-7.2 1.6-8.1 1.6-14.5 0C74.6.3 67.5 0 36.8 0H0zM286.6 42.3c.2.7 0 2.4-.5 3.8-.5 1.3-1 1.7-1.1.9 0-.8-.3-2.5-.6-3.8-.7-2.4 1.3-3.2 2.2-.9m-76 14.3c1.9 4.6 1 5.5-2.3 2.2-2.2-2.3-2.4-2.9-1.3-4.2 1.7-2.2 1.9-2.1 3.6 2m29.5 29.6c-.1.5-.1 1.8-.1 3l-.1 2.3-1.9-2.4c-1.1-1.2-1.7-2.7-1.4-3.3.7-1 3.5-.7 3.5.4m25.9 14.7c0 2.1-1.3 4.1-2.6 4.1-.8 0-1.4-1-1.4-2.5 0-1.8.5-2.5 2-2.5 1.1 0 2 .4 2 .9m-79.9 22.7c.5 1.5.7 2.9.4 3.2-.9 1-4.8-3.5-4.1-4.7 1.2-1.8 2.6-1.2 3.7 1.5m-10.8 2.9c.4 2.5.4 2.5-1.4.9-2.2-2-2.4-3.4-.5-3.4.7 0 1.6 1.1 1.9 2.5m18.7.6c0 1.1-.4 1.7-1 1.4-.5-.3-1-1.3-1-2.1s.5-1.4 1-1.4c.6 0 1 .9 1 2.1m19 2.9c0 1-.5 2.2-1 2.5-1.3.8-2.4-2-1.6-4.1.8-2 2.6-.9 2.6 1.6m-4.7-.1c.5 2.2-.1 3.3-1.4 2.5-1.2-.7-1.2-4.4 0-4.4.5 0 1.1.9 1.4 1.9m29.9 3.6c.3 1.3.3 2.7 0 3-.8.8-3.4-3.4-2.7-4.5 1.1-1.7 2.2-1.1 2.7 1.5m27.4-1.1c.3.8.1 2.3-.4 3.2-.9 1.6-1.1 1.5-2.1-.5-1.2-2.2-.7-4.1 1-4.1.5 0 1.2.6 1.5 1.4m32.4 2c0 1.7-1.4 2.9-2.3 2-.8-.8.3-3.4 1.4-3.4.5 0 .9.6.9 1.4m-75 4c0 1.3.7 2.7 1.5 3 1.3.4 1.4 1 .5 2.6-1.5 2.7-3.2 2.5-5.2-.7-1.5-2.5-1.5-2.9 0-5 2.2-2.9 3.2-2.9 3.2.1m46.5.2c0 1 .3 2.4.8 3.1.8 1.3-.1 4.3-1.4 4.3-.5 0-1-.6-1-1.3-.3-2.5-.7-5.2-.9-6.2-.4-1.9 0-2.7 1.3-2.2.6.2 1.2 1.2 1.2 2.3m8.3 2.3c.1 3.8-2.3 6.1-3.1 3-.6-2.3.7-5.9 2.2-5.9.4 0 .8 1.3.9 2.9m-83.8 3c0 1 .7 2.4 1.5 3.1s1.5 1.9 1.5 2.8c0 1.3-.3 1.2-2-.3-1.1-1-1.8-2-1.5-2.3.2-.3-.3-1-1.2-1.7s-1.3-1.7-.9-2.3c1.1-1.8 2.6-1.4 2.6.7m41 1.7c0 1.4-.4 2.2-1 1.9-.5-.3-1-1.7-1-3.1s.4-2.2 1-1.9 1 1.7 1 3.1m15-1c0 1.4-.4 2.3-1 1.9-.5-.3-1-1.5-1-2.6 0-1 .5-1.9 1-1.9.6 0 1 1.2 1 2.6m35.3 1.1c.2.5-.2 1.8-.8 3.1l-1.2 2.3-.6-2.2c-.3-1.2-.4-2.6-.1-3.1.6-1 2.2-1 2.7-.1m-11.1 11.8c-.5 2.5-.8 2.9-2.1 2-1.9-1.1-1.3-4.7.7-4.3 1.1.2 1.6 1.1 1.4 2.3m22.5 6.9c-.4.9-1.1 1.6-1.7 1.6-1.1 0-1.4-3.3-.3-4.4 1.1-1 2.6 1.1 2 2.8m-82 10c-.4.9-1.3 1.6-2.1 1.6-1.8 0-2.9-4.2-1.3-5.2s4.1 1.7 3.4 3.6m-30.7 3.2c1.4 3.6 1.3 3.9-1 1.9-2.1-1.9-2.7-4.5-1-4.5.6 0 1.5 1.2 2 2.6m74.4.7c-.3.9-1 1.7-1.5 1.7-1.1 0-1.2-3.4-.2-4.4 1.1-1.1 2.4.9 1.7 2.7m26-.1c.8 1.4.7 2.2-.7 3.5-1.5 1.6-1.9 1.6-2.7.3-.5-.8-1-2.5-1-3.8 0-2.8 2.6-2.7 4.4 0m-81.5 5.6c.7 1.3.6 2.3-.1 3-2.4 2.4-4.8.7-4.8-3.4 0-2 3.8-1.7 4.9.4m-12.5 3.9c.4.9.3 2-.2 2.5-1.1 1.1-3.6-1.7-2.7-3.2s2.2-1.2 2.9.7m92.9 9.9c-.9 2.5-3.1 1.6-2.5-1.1.3-2 .7-2.3 1.8-1.4.7.6 1 1.7.7 2.5m-80.3-.7c0 .5.3 1.6.6 2.5.4 1 .1 1.6-.9 1.6-1.9 0-4.1-2.6-3.2-4 .8-1.2 3.5-1.3 3.5-.1m102.7 6.6c.2.6-.6 1.6-1.8 2.3-2.8 1.8-4.9.1-2.9-2.3 1.4-1.7 4.1-1.7 4.7 0m12.2 2.6c-1.9 1.2-2.4.2-.8-1.7.9-1.1 1.4-1.3 1.7-.4.3.7-.2 1.6-.9 2.1m-60.3 3.4c-.5 1.4-.9 1.5-2.1.5s-1.3-1.6-.4-2.7c1.5-1.8 3.4-.1 2.5 2.2m-39.7.7q.75 2.25 1.5.9c.6-.9 1.1-.9 2.2 0 1.6 1.3 1.9 3.9.4 3.9-2.2 0-9-4.7-9-6.2 0-1.8 4.1-.7 4.9 1.4m-23.3.3c.3.8.3 1.9 0 2.4-1 1.6-3.6.1-3.6-2 0-2.2 2.8-2.6 3.6-.4m86.9 4.5c0 .7-.6 1.5-1.2 1.7-.8.3-1.3-.4-1.3-1.7s.5-2 1.3-1.8c.6.3 1.2 1.1 1.2 1.8m-16.7 2.6c-.5 2.8-2.8 2.9-2.8.1 0-1.3.3-2.7.7-3.1 1-1 2.5 1 2.1 3M291 216c.9-1.4 4-.7 4 .9 0 1.3-3.5 3.2-4.3 2.4-.4-.3-1.2-.1-2 .5-.7.6-1.8.7-2.6.3-1-.7-1.1-1.3-.1-3 .9-1.9 1.4-2 2.6-1 1.3 1 1.7 1 2.4-.1m-101.2 3.4c.3 1.3-.1 1.7-1.4 1.4-1.1-.2-2-1.1-2.2-2.2-.3-1.3.1-1.7 1.4-1.4 1.1.2 2 1.1 2.2 2.2m44.2 2.7c0 2-1.5 2.6-2.5.9-.9-1.5.3-4.3 1.5-3.5.5.3 1 1.5 1 2.6m8-.6c0 2.6-1.4 3.3-2.5 1.5-.9-1.4.1-4 1.5-4 .5 0 1 1.1 1 2.5m40-.1c0 1.6-1.8 3.1-2.7 2.2-.8-.8.5-3.6 1.7-3.6.5 0 1 .6 1 1.4m-46.2 6.8c-.4 2.7-2.3 3.4-3.2 1.3-.8-2.1.1-3.5 2-3.5 1 0 1.4.8 1.2 2.2m12.6-1.6c2.1.8 2.1 4.3 0 5.1-.8.3-2.3-.1-3.1-1-1.3-1.3-1.4-1.9-.3-3.1 1.4-1.8 1.3-1.8 3.4-1m16.6 1.8c0 1.8-1.6 2.9-3 2.1-1.3-.8-.1-3.5 1.6-3.5.8 0 1.4.6 1.4 1.4m-73 8.2c0 .8-.7 1.4-1.5 1.4s-1.5-.9-1.5-2c0-1.3.5-1.8 1.5-1.4.8.4 1.5 1.2 1.5 2m68.8.1c-.5 2.5-2.8 2.8-2.8.4 0-1.2.6-2.1 1.6-2.1.9 0 1.4.7 1.2 1.7m46.2-.8c0 .5.3 1.6.6 2.4.6 1.6-2.5 3.2-3.7 2s.1-5.3 1.7-5.3c.8 0 1.4.4 1.4.9m-84.5 3c.7 1.2-1.2 2.4-2.5 1.6-1.1-.7-.4-2.5 1-2.5.5 0 1.1.4 1.5.9m29.8.6c.1.5-.6 1.1-1.5 1.3-1.1.2-1.8-.3-1.8-1.3 0-1.7 3-1.8 3.3 0m33.3.6c1 1.7-2.3 4.6-3.7 3.2-.7-.7-.9-1.9-.6-2.7.7-1.8 3.3-2.1 4.3-.5m-73.1 4.4c0 2.8-2.9 2.5-3.3-.3-.3-1.9 0-2.3 1.5-2 1 .2 1.8 1.2 1.8 2.3m95.5 1.1c0 .8-.9 1.4-2 1.4-2.2 0-2.6-1-.8-2.8 1.3-1.3 2.8-.7 2.8 1.4m-18.5 2.4c.7 1.2-1.2 4-2.6 4-1 0-1.2-3.4-.2-4.3.9-1 2.1-.9 2.8.3m-25.7 5.2c-.4 2.7-2.8 3.6-2.8 1 0-2 .8-3.2 2.2-3.2.5 0 .8 1 .6 2.2m-32 .6c.2.7-.3 1.2-1.2 1.2s-1.6-.7-1.6-1.6c0-1.7 2.2-1.4 2.8.4m-3.8 1.4c0 .7.3 2.3.6 3.5.5 1.6.2 2.3-.9 2.3-2.2 0-3.9-2.6-3.2-5 .7-2.2 3.5-2.8 3.5-.8m28.5 3.3c0 2.8-2.9 2.5-3.3-.3-.3-1.9 0-2.3 1.5-2 1 .2 1.8 1.2 1.8 2.3m55.9.4c1.1 1.8-.6 4.1-3 4.1-2.8 0-3.1-1.7-.6-3.6 2-1.6 2.9-1.7 3.6-.5m-6.4 6.5c0 1.8-3 3-4.3 1.7-.5-.5-.6-1.4-.3-2 1-1.6 4.6-1.3 4.6.3m-51 2c0 2-1.9 3.1-3.2 1.8-.6-.6-.7-1.5-.4-2.1 1-1.6 3.6-1.3 3.6.3m18.4 2.7c-.8 1.4-3.4 1.1-3.4-.4 0-.8.3-1.7.7-2 .9-.9 3.4 1.3 2.7 2.4m-15.4 1.3c0 2-1.9 3.1-3.2 1.8-.6-.6-.7-1.5-.4-2.1 1-1.6 3.6-1.3 3.6.3m-5 4.1c1 1.2.9 1.6-.5 2.1-1.9.8-4-.9-3.1-2.5 1-1.5 2.1-1.4 3.6.4m15.5-.5c.7 1.2-1.2 4-2.6 4-1 0-1.2-3.4-.2-4.3.9-1 2.1-.9 2.8.3m-33.5 5c0 2.3-1 2.6-2.8.8s-1.5-2.8.8-2.8c1.3 0 2 .7 2 2m7.2 4.2c-1.5 1.5-2.6.4-1.8-1.8.5-1.3.9-1.5 1.8-.6s.9 1.5 0 2.4m-18.4 2.2c.3 1.2-.1 1.7-1 1.4-.7-.3-1.5-1.3-1.6-2.2-.3-1.2.1-1.7 1-1.4.7.3 1.5 1.3 1.6 2.2m21.2 1.1c1 1.2.9 1.6-.5 2.1-1.9.8-4-.9-3.1-2.5 1-1.5 2.1-1.4 3.6.4m-10.2 2.2c.2.8-.5 1.3-1.7 1.3-2.1 0-3.5-1.3-2.4-2.4 1-1 3.6-.3 4.1 1.1M259 291c0 1.6-.5 3-1 3-1.4 0-2.4-2.6-1.6-4.5 1-2.6 2.6-1.6 2.6 1.5m-33.2 2.3c.2 1.2-.3 1.7-1.7 1.7-1.2 0-2.1-.6-2.1-1.3 0-3.1 3.2-3.4 3.8-.4m19 0c.2 1.2-.3 1.7-1.7 1.7-1.2 0-2.1-.6-2.1-1.3 0-3.1 3.2-3.4 3.8-.4m36 4c.2 1.1-.3 1.7-1.7 1.7-2.3 0-3.5-1.5-2.6-3.1 1-1.5 3.9-.6 4.3 1.4m-49.8 3.1c-1.3 1.3-3.5-.7-2.5-2.4.5-.8 1.1-.8 2.1.1 1 .8 1.2 1.5.4 2.3m38.4 3.4c.9 1.5-1.2 3.5-2.9 2.8-1.4-.5-1.5-.9-.5-2.1 1.4-1.7 2.6-1.9 3.4-.7m-11.4 2.6c0 1.8-1.7 2.9-3 2.1-.8-.5-.7-1.1.1-2.1 1.5-1.8 2.9-1.8 2.9 0m19.6 3.7c1 1.7-1.3 3.6-2.7 2.2-1.2-1.2-.4-3.3 1.1-3.3.5 0 1.2.5 1.6 1.1m-25.8 4.2c.2 1-.3 1.7-1.2 1.7-1.8 0-2.9-1.6-2.1-3.1.9-1.4 2.9-.6 3.3 1.4m-18.8.6c0 1.2-.9 2-2.5 2.3-3.2.7-4.4-1.1-2-2.9 2.6-1.9 4.5-1.6 4.5.6m65 2.2c0 1.3-3.8 1.1-4.6-.2-.9-1.6 1.8-3 3.3-1.7.7.6 1.3 1.4 1.3 1.9m-41-.7c0 1.2-4 4.6-5.5 4.6-1.1 0-.4-2.4 1.2-4.2 1.9-2.1 4.3-2.4 4.3-.4m-14 2.7c0 .5-.4.9-1 .9-.5 0-1-.7-1-1.6 0-.8.5-1.2 1-.9.6.3 1 1 1 1.6m7 2.4c0 .8-.7 1.5-1.5 1.5-1.6 0-2-1.2-.8-2.3 1.1-1.2 2.3-.8 2.3.8m13 1.5c0 1.3-.7 2-2 2-1.9 0-2.7-2-1.3-3.3 1.3-1.4 3.3-.6 3.3 1.3m13.6-.9c1.1 1.8-.9 2.7-4.8 2.2-5.3-.7-5.1-3.3.1-3.3 2.2 0 4.3.5 4.7 1.1m-12.6 6.4c0 .8-.7 1.5-1.5 1.5s-1.5-.7-1.5-1.5.7-1.5 1.5-1.5 1.5.7 1.5 1.5m-11.9 3.2c.8.9 1.3 1.7 1.1 1.7-.2.1 0 .9.4 1.9.4 1.2 0 2.3-1.2 3.2-3.9 3-6 .9-2.7-2.7 1.4-1.6 1.4-1.8.1-1.8-.9 0-1.8-.6-2.1-1.4-1.1-2.9 2.2-3.6 4.4-.9m14.9-.3c0 1.8-4.8 4.9-6.6 4.2-2.4-.9-1.6-3.6 1-3.6 1.4 0 2.8-.5 3.1-1 .9-1.5 2.5-1.2 2.5.4m-30 6.6c0 .5-.6 1.5-1.3 2.2-.8.7-1.2 2-1 2.9.6 2.1-2.6 3.4-3.4 1.3-.3-.8-.1-2 .6-2.7.6-.6 1.1-1.9 1.1-2.9 0-1.1.7-1.8 2-1.8 1.1 0 2 .4 2 1m31.5 1c0 2.3-4.9 2-5.3-.3-.3-1.5.2-1.8 2.5-1.5 1.7.2 2.8.9 2.8 1.8m-10.9 8.6c-.5 1.3-1 1.4-1.8.6-.6-.6-.8-1.8-.4-2.8.5-1.3 1-1.4 1.8-.6.6.6.8 1.8.4 2.8m-17 1.1c-.4 1.4-1.6 2-3.6 2.1-3.8.1-4-2.2-.2-4.1 3.1-1.6 4.7-.8 3.8 2m18.1 7.2c-.3 2.3-2 2.2-5.1-.4-2.5-2-2.8-2.6-1.7-3.9 1.2-1.4 1.6-1.3 4.2.7 1.5 1.2 2.7 2.8 2.6 3.6m-16.7-1.4c0 .8-.7 1.5-1.5 1.5s-1.5-.7-1.5-1.5.7-1.5 1.5-1.5 1.5.7 1.5 1.5m8.7.1c.7 2-1.1 3.8-3.2 3-1.3-.4-1.4-1-.5-2.6 1.3-2.4 2.8-2.6 3.7-.4"/></svg>