<svg xmlns="http://www.w3.org/2000/svg" width="682.667" height="512" version="1.0" viewBox="0 0 512 384"><path d="M0 192v192h512V0H0zM286.8 16.8c.2 1.2-.1 2.2-.7 2.2s-1.1-.4-1.1-.9-.3-1.7-.7-2.7c-.4-1.2-.2-1.5.8-1.2.8.2 1.5 1.4 1.7 2.6m-87 10.5c.2 1.5.1 2.7-.2 2.7-1.8 0-3.6-1.5-3.6-2.9 0-4.1 3.3-3.9 3.8.2M235 60.9c0 2.9-1.2 4-3.2 3-1.5-.8-1.7-1.3-.7-2.5 1.3-1.6 3.9-1.9 3.9-.5m29 17.5c0 .2-.3 1.2-.6 2-.5 1.3-.9 1.4-2 .5-2-1.6-1.7-2.9.6-2.9 1.1 0 2 .2 2 .4m-103.2 23.9c.2 1-.3 1.7-1.2 1.7-1 0-1.6-.9-1.6-2.1 0-2.4 2.3-2.1 2.8.4m17 3.1c.8 1.5 1.1 3 .8 3.3-1 1-4.6-2.9-4.6-4.9 0-2.7 2.2-1.8 3.8 1.6m9.2 6.7c0 1.1-.4 1.7-1 1.4-.5-.3-1-1.3-1-2.1s.5-1.4 1-1.4c.6 0 1 .9 1 2.1m13.8 1.2c.4 2.9-1.2 3.7-2.2 1.1s-.7-4.6.7-4.2c.6.3 1.3 1.7 1.5 3.1m8.8 1.5c.1 1.2-.3 2.5-.8 2.9-1.2.7-2.8-1.5-2.8-4 0-2.8 3.5-1.7 3.6 1.1m23.2-1.1c-.4 2.2-2.2 2-2.6-.1-.2-1 .3-1.6 1.3-1.6s1.5.7 1.3 1.7m35.2 2.9c0 1.8-.4 2.5-1.4 2.1-.8-.3-1.7.2-2.1 1.1-.6 1.5-.8 1.5-1.5-.3-1.3-3.1-1.2-3.5 1.3-4.5 3.4-1.3 3.7-1.2 3.7 1.6m-52 7.1c0 1.3-.4 2.3-.8 2.3-1.6 0-3.4-4.7-2.7-7.1l.7-2.2 1.4 2.4c.7 1.3 1.3 3.4 1.4 4.6m68.7 3-1.1 2.5-.8-2.3c-1.2-3.2-.2-5.5 1.7-3.9 1.1.9 1.2 1.7.2 3.7m20.8-3.7c1 1.6-1.6 4.3-2.8 3.1-1.1-1.1-.2-4.1 1.2-4.1.5 0 1.3.5 1.6 1m-34 1c.3.5.1 2-.6 3.2l-1.2 2.2-.9-2.3c-1.2-3.3 1-5.8 2.7-3.1m-24.2 3c.7 2.7-1.1 3.6-2.8 1.4-.9-1.3-1-2.3-.3-3.1 1.3-1.6 2.4-1 3.1 1.7m-60.5.5c.6 1.3.8 2.7.3 2.9-1.2.8-4.4-3.1-3.6-4.3 1-1.7 2.1-1.3 3.3 1.4m44.7 1.2c.1 1.3-.1 2.3-.5 2.3-1.1 0-3-2.4-3-3.8 0-2.3 3.3-.8 3.5 1.5m50-1.7c.6 1-1.5 5-2.7 5-.5 0-.8-1.4-.8-3 0-2.9 2.1-4.2 3.5-2m-58.5 3.5c0 2.8-2.1 3.3-4 1-1.5-1.8-.5-3.5 2.1-3.5 1.4 0 1.9.7 1.9 2.5m-33.3 4c.3.9.3 1.9-.1 2.2-.7.7-3.6-1.6-3.6-2.8 0-1.5 3-1 3.7.6m85.7 5.4c.8 1.2-.3 4.1-1.5 4.1-.5 0-.9-1.1-.9-2.5 0-2.5 1.4-3.4 2.4-1.6m27.6 6.4c0 1.4-1.9 3.7-3.1 3.7-.5 0-.5-3.7 0-4.8.4-.9 3.1 0 3.1 1.1M209 158c0 2.7-1.9 3.5-3.8 1.7-1.2-1.3-1.3-1.9-.3-3.1 1.6-1.9 4.1-1 4.1 1.4m-35.9 1.3c1 3.7-.3 4.1-3.2 1.1-2-2.1-2.1-2.7-.9-3.4 2.2-1.4 3.3-.7 4.1 2.3m18.6 5.8c-.3 1.1 0 1.9.6 1.9.7 0 .4.5-.6 1.1-1.4.8-2.3.7-3.8-.7-2.5-2.3-2.4-4.2.4-4.6 3-.5 4 .1 3.4 2.3m68.7-2.2c.8 1.2-.3 4.1-1.5 4.1-.5 0-.9-1.1-.9-2.5 0-2.5 1.4-3.4 2.4-1.6m28.1.5c1.9 1.4 1.9 1.5.1 3.4-2.2 2.5-4.6 1.8-4.6-1.2 0-3.8 1.4-4.5 4.5-2.2M184 178.7c0 1.8-1.4 1.6-3.3-.5-1.3-1.4-1.4-2.1-.4-3.1.9-.9 1.4-.8 2.4.6.7.9 1.3 2.3 1.3 3m10.4 2.5c2 2.8 2 3.8.3 3.8-1.9 0-5-3.7-4.2-4.9 1-1.7 2.2-1.3 3.9 1.1m92.1-1.2c.3.5.1 2-.6 3.2l-1.2 2.2-.9-2.3c-1.2-3.3 1-5.8 2.7-3.1m-77.8 11.2c.9 1.6 1.5 4.8.8 4.8-1.4 0-4.6-4-4-4.9.8-1.5 2.2-1.4 3.2.1m107.8 1.8c0 .8-1.5 2.2-3.2 3.3-2.9 1.6-3.3 1.7-3.3.3 0-2.1 3.8-5.8 5.3-5.3.7.2 1.2 1 1.2 1.7m15.2.7c.4 1.2-3.5 2.9-4.4 1.9-.8-.8 1.8-3.7 3-3.3.6.2 1.2.8 1.4 1.4m-73.4 4.8c.4.8.2 1.7-.4 2.1-1.2.7-4.1-1.5-3.3-2.7.8-1.4 3.1-1.1 3.7.6m7.6 4.6c-.5 1.1-1.6 1.9-2.4 1.9-1.8 0-2-4.1-.3-5.8 1.9-1.9 4.1 1.4 2.7 3.9m-48.1-1.3c.2 1.4-.2 2.2-1.2 2.2-1.9 0-2.9-1.7-2.2-3.6.8-2.2 3-1.2 3.4 1.4m-31.4-.2c1 2.6.7 3.4-1.3 3.4-2.3 0-3.5-1.5-2.7-3.5.7-2 3.2-1.9 4 .1m106.1 1.4c1 1.6-1.3 4.7-3.9 5.2-5 1-5-1.9-.1-4.9 2.5-1.5 3.2-1.5 4-.3m11.5 2.4c0 .7-.7 1.9-1.5 2.6-2 1.6-3.8.1-2.9-2.3.7-2 4.4-2.3 4.4-.3m-124.2.8c1.6 1.6 1.5 3.8-.1 3.8-1.8 0-4.9-3.4-4-4.3 1-1.1 2.8-.8 4.1.5m61 4.7c.3 1.6-.1 2.2-1 1.9-.7-.3-1.5-1.5-1.6-2.7-.3-1.6.1-2.2 1-1.9.7.3 1.5 1.5 1.6 2.7m-8.8 1c0 2.5-2 3.8-3.1 2-1.5-2.3-1-3.9 1.1-3.9 1.3 0 2 .7 2 1.9m54 1.6c0 1.4-.4 2.5-1 2.5-1.1 0-1.4-3.3-.3-4.3 1.1-1.1 1.3-.8 1.3 1.8m-52.5 6c0 2.8-2.9 2.5-3.3-.3-.3-1.9 0-2.3 1.5-2 1 .2 1.8 1.2 1.8 2.3m14.5-.1c0 3.1-1.4 4-3 2.1-1.5-1.8-.6-4.5 1.5-4.5.9 0 1.5.9 1.5 2.4m19.8 1.8c-.6 1.6-3.6 3.4-4.4 2.6-.3-.4-.4-1.4-.1-2.3.7-1.7 5.1-2.1 4.5-.3m45.3 4.7c-1.2 2.2-4.1 2.9-4.1.9 0-.6.8-2 1.7-3 2.1-2.4 3.9-.8 2.4 2.1M182 229.1c0 1.2-2.7 1.1-3.5-.1-1.1-1.7.5-3.2 2.1-1.9.8.6 1.4 1.5 1.4 2m80.5.2c0 2.6-2 2.5-2.3-.2-.3-1.6.1-2.2 1-1.9.7.3 1.3 1.2 1.3 2.1m55-1.3c.9 1.5-1.4 4-3.6 4-2.3 0-2.4-.8-.2-3.2 1.8-2 2.9-2.3 3.8-.8m-96.5 5.1c0 2.4-2.3 2.1-2.8-.4-.2-1 .3-1.7 1.2-1.7 1 0 1.6.9 1.6 2.1m32.6-1c1 1.7-1.3 3.6-2.7 2.2-1.2-1.2-.4-3.3 1.1-3.3.5 0 1.2.5 1.6 1.1m36.9 1.5c0 1-.8 2-1.7 2.2-1.8.3-2.6-2.7-1.1-4.2 1.2-1.1 2.8 0 2.8 2m-84.5 2.5c0 2-1.5 2.6-2.5.9-.9-1.5.3-4.3 1.5-3.5.5.3 1 1.5 1 2.6m89.9 2c-1 2-3.9 2.6-3.9.8 0-.6.5-1.9 1.1-3 .8-1.6 1.3-1.8 2.4-.9s1.2 1.7.4 3.1m21.5-3.2c.9 1.4-2.2 3.4-4 2.7-1.3-.5-1.4-.9-.4-2.1 1.4-1.7 3.6-2 4.4-.6m-51.4 8.3c0 .7-.5 2-1 2.8-1.2 1.9-3.5-.2-2.7-2.4.7-1.9 3.7-2.1 3.7-.4m-8.2 6.4c-.5 2.6-3.8 3.1-3.8.7s2.1-4.6 3.3-3.4c.5.5.7 1.7.5 2.7m-34.6-.6c.7 1.1 1.8 2 2.5 2s1.3.6 1.3 1.4c0 2.9-2.3 2.8-5.2-.2-1.7-1.6-2.7-3.5-2.4-4.1 1.1-1.7 2.4-1.3 3.8.9m8.8 2.6c0 1.6-1.6 1.9-2.5.4-.8-1.3.4-3.2 1.6-2.5.5.4.9 1.3.9 2.1m91 .9c0 1.6-3 3.5-5.5 3.5-2.4 0-1.4-3.2 1.5-4.7 2.6-1.3 4-.9 4 1.2m-9.5 5.5c0 .8-1 1.6-2.2 1.8-2.2.3-3.2-1.6-1.6-3.2 1.2-1.1 3.8-.2 3.8 1.4m-57.1 1.9c.3.4-.1 1.6-.8 2.7-1.2 1.5-1.6 1.6-3 .5-2.4-2-2-4.1.8-4.1 1.4 0 2.7.4 3 .9m19.6 2.5c0 .8-.4 1.7-.9 2.1-1.2.7-2.4-1.2-1.6-2.5.9-1.5 2.5-1.2 2.5.4m-15.5 4.6c0 .8-.8 1.6-1.7 1.8-1.3.2-1.8-.3-1.8-1.8s.5-2 1.8-1.8c.9.2 1.7 1 1.7 1.8m12 .4c1.6 1.2 1.7 1.6.6 3-1.5 1.8-2.1 1.9-4 .7-.8-.5-1.1-1.6-.6-3 .8-2.5 1.4-2.6 4-.7M255 271c0 1.1-.7 2-1.5 2-1.5 0-2.1-2.1-.8-3.3 1.2-1.3 2.3-.7 2.3 1.3m-19 6.5c0 .8-.9 1.5-2 1.5-2 0-2.6-1.1-1.3-2.3 1.2-1.3 3.3-.7 3.3.8m-17.6 4.5c-1.4 1.4-3.9-1.4-2.9-3.1.5-.8 1.2-.6 2.3.5s1.3 1.9.6 2.6m27.1 5.1c0 4.9-.2 5.4-2.4 5.7s-2.3.1-1.6-2.5c.4-1.5.9-3.9 1-5.3.3-3.9.4-4.2 1.8-3.8.7.3 1.2 2.4 1.2 5.9m16.6-3.9c-.1.5-.1 1.9-.1 3.3 0 1.5-.6 2.5-1.4 2.5-1.5 0-3-4.5-2-6.1.7-1.1 3.5-.8 3.5.3m-27.1 6.4c0 1.4-2.1 1.9-3.3.7-.9-.9 1.3-3.4 2.4-2.7.5.3.9 1.2.9 2m-12.3 1c.3.8.1 2-.6 2.7-1.4 1.4-4.7-1.5-3.7-3.2 1-1.6 3.6-1.3 4.3.5m66.8 3.4c0 .9-1.1 1.6-2.7 1.8-2 .2-2.8-.1-2.8-1.2 0-.8.6-1.7 1.3-1.9 2.1-.9 4.2-.2 4.2 1.3m-59.5 6.6c0 1.6-.9 1.8-2.9.5-.7-.5-1.1-1.4-.7-1.9.9-1.5 3.6-.4 3.6 1.4m46.5-.5c0 .7-.8 1.5-1.7 1.7-1.8.3-2.5-1.8-1.1-3.2 1-1 2.8-.1 2.8 1.5m-14.7 7.6c.5 1.7-2.6 2.9-4 1.5-.6-.6-.7-1.5-.3-2.2.9-1.4 3.7-.9 4.3.7m23.5.8c.1.5-.6 1.1-1.5 1.3-1.1.2-1.8-.3-1.8-1.3 0-1.7 3-1.8 3.3 0m-31.5 1.8c.2 1.2-.3 1.7-1.7 1.7-1.5 0-2.1-.6-2.1-2.1 0-2.5 3.3-2.2 3.8.4m-22.3 4.8c.8 1.3-2.8 4.9-4.9 4.9-2.7 0-2.9-2.2-.5-4.1 2.7-2.1 4.5-2.4 5.4-.8m10.5 1.5c0 1.6-1.6 1.9-2.5.4-.8-1.3.4-3.2 1.6-2.5.5.4.9 1.3.9 2.1m68.8-1.4c-.5 1.5-3.3 2.2-5.4 1.4-2.4-.9-.6-2.6 2.7-2.6q3 0 2.7 1.2m-50.8 2.4c0 1.6-1.6 1.9-2.5.4-.8-1.3.4-3.2 1.6-2.5.5.4.9 1.3.9 2.1m9.5 2.5c0 .8-1 1.5-2.2 1.7-2.5.4-3-.7-1.1-2.6 1.5-1.5 3.3-1 3.3.9m-19.2.5c.9.9-.4 3.5-1.4 2.8-.5-.3-.9-1.2-.9-2 0-1.4 1.2-1.9 2.3-.8m7.1.9c-.7 1.6-3 2-3.8.6-.7-1.1.4-2.1 2.5-2.1 1.2 0 1.6.5 1.3 1.5M280 324c0 2.2-2 2.6-3.8.8-1.9-1.9-1.4-2.8 1.3-2.8 1.8 0 2.5.5 2.5 2m6 0c0 1.3-.7 2-1.9 2-2.2 0-3.5-1.5-2.6-3 1.2-1.9 4.5-1.1 4.5 1m-15 6c0 1.3-.7 2-1.9 2-2.2 0-3.5-1.5-2.6-3 1.2-1.9 4.5-1.1 4.5 1m-17 1.4c0 .8-.5 1.8-1 2.1-1.3.8-4.2-1.4-3.4-2.6.9-1.5 4.4-1 4.4.5m22.5.7c0 .8-1 1.5-2.2 1.7-2.5.4-3.3-2.2-1-3.1 1.8-.8 3.2-.2 3.2 1.4m-6.1 2.2c1.6 1.2 1.6 1.4.3 2.6-2.5 2-7.2-1.1-5-3.2 1-1.1 2.7-.8 4.7.6m-13.6 5.9c.2 1.1-.3 1.8-1.1 1.8s-1.7.9-2 2-1.3 2-2.2 2c-1.3 0-1.5-.6-1-3.3.4-1.7.9-3.6 1.2-4 .9-1.4 4.8-.3 5.1 1.5m-24.4 1.4c.8 2.1-1.1 4.5-3 3.7-1.7-.6-1.9-3.9-.1-4.6 2.1-.9 2.5-.8 3.1.9m42.6 1.3c0 .9.5 2.2 1.1 2.8 1.4 1.4.3 3.3-1.7 3.3-.8 0-1.2.5-.9 1 .8 1.4-1.4 4.2-2.7 3.4-.5-.3-.3-1.6.6-2.9 1.2-1.9 1.4-3 .6-5.1-.6-1.5-.9-3.3-.6-4.1.7-1.8 3.6-.5 3.6 1.6m-42.2 7.2c.3 1.9-2.7 3.4-4 2.1s.2-4.3 2.1-4c.9.2 1.7 1 1.9 1.9m28.7 4.2c0 2.6-2 2.5-2.3-.2-.3-1.6.1-2.2 1-1.9.7.3 1.3 1.2 1.3 2.1m-10.7.4c.5 1.7-2.6 2.9-4 1.5-.6-.6-.7-1.5-.3-2.2.9-1.4 3.7-.9 4.3.7m-16 3c.3 2.2-2.5 4-4.1 2.4-1.2-1.2 1-5.4 2.6-4.8.7.2 1.3 1.3 1.5 2.4m6.2.9c0 2.6-1.7 3.3-2.6.9-.8-2 .3-4.8 1.6-4 .5.3 1 1.7 1 3.1m17.3 1.4c.8 1.2 2.1 1.8 2.9 1.5 1.6-.6 4.5 2.1 3.5 3.2-.4.3-.2 1.2.5 2 .8 1 .8 1.7-.1 2.6-1 .9-1.5.8-2.7-.7-.8-1.1-1.4-2.6-1.4-3.3 0-1-.4-1.1-1.9-.1-2.4 1.5-5.1-.4-5.1-3.7 0-3.9 2.1-4.6 4.3-1.5m-16.5 5.2c-.5 3.4-3.8 3.7-3.8.4 0-2 .5-2.6 2.1-2.6 1.5 0 2 .5 1.7 2.2m10.9 3.3c-.6 1.7-3.7 1.8-4.3.1-.3-.9 0-2.3.7-3.2 1.2-1.4 1.4-1.4 2.6.2.7 1 1.2 2.3 1 2.9m5.9.6c.3.6.1 1.6-.5 2.2s-1.1 1.9-1.1 2.8c0 2.9-1.9 3.2-3.1.6-1.9-4.1 2.4-9.2 4.7-5.6"/></svg>