<svg xmlns="http://www.w3.org/2000/svg" width="682.667" height="512" version="1.0" viewBox="0 0 512 384"><path d="M0 192v192l125.8-.2 125.7-.3.3-3.3c.2-1.7.7-3.2 1.2-3.2 1.4 0 3.2 4 2.6 5.6-.7 1.8 4.4 1.9 6.3.1 1.1-.9 1.4-.9 1.8 0 .3.8 2.2 1.3 4.4 1.3 3.8 0 3.9-.1 2.6-2.2-2-3.2-2.2-9.8-.4-9.8.8 0 2 .7 2.7 1.5 1 1.2 1 1.8 0 3s-1 1.9-.2 2.7c.7.7 1.2 2 1.2 3 0 1.7 5.1 1.8 119 1.8h119V0H0zM227.5 32.1c0 .7-.8 1.5-1.7 1.7-1.8.3-2.5-1.8-1.1-3.2 1-1 2.8-.1 2.8 1.5M262 51.9c0 2.8-1.9 3.6-3.5 1.5-2-2.7-1.8-3.4 1-3.4 1.8 0 2.5.5 2.5 1.9M141.6 72.1c1 1.7-1.3 3.6-2.7 2.2-1.2-1.2-.4-3.3 1.1-3.3.5 0 1.2.5 1.6 1.1m26 11.4c1.7 4.2 1.7 4.5.1 4.5s-4.6-5.1-4-6.8c.8-2.2 2.4-1.3 3.9 2.3m98.2 6.5c.4 2.7-1.7 11-2.8 11-.4 0-1.1-1.2-1.5-2.7-.5-2-.2-3.1 1.1-4 1.4-1 1.5-1.5.4-2.8-1.4-1.7-.6-4.9 1.3-4.3.6.3 1.4 1.5 1.5 2.8m-40.3.5c0 .5-1 1.1-2.2 1.3-1.6.2-2.3-.2-2.3-1.3s.7-1.5 2.3-1.3c1.2.2 2.2.7 2.2 1.3m-34.5 1c0 .8-.7 1.5-1.5 1.5s-1.5-.7-1.5-1.5.7-1.5 1.5-1.5 1.5.7 1.5 1.5m13.9 4.1c1.2 1.9 2.1 4.6 2.1 6v2.6l-2.9-2.4c-3.4-2.7-4.7-6.4-3-8.4 1.5-1.9 1.4-1.9 3.8 2.2m-24.6-.5c.3 1.3.1 1.9-.6 1.6-1.5-.5-2.2-3.7-.9-3.7.5 0 1.2.9 1.5 2.1M192 95c0 .5-.2 1-.4 1-.3 0-.8-.5-1.1-1-.3-.6-.1-1 .4-1 .6 0 1.1.4 1.1 1m92.5 2.5c0 2.8-2.9 2.5-3.3-.3-.3-1.9 0-2.3 1.5-2 1 .2 1.8 1.2 1.8 2.3m-12.5 4.7c-.1 1.5-3 5.6-3 4.2 0-.5-.3-1.9-.6-3.2-.5-1.8-.2-2.2 1.5-2.2 1.1 0 2.1.6 2.1 1.2m-30 2.3c0 2.6-1.4 3.3-2.5 1.5-.9-1.4.1-4 1.5-4 .5 0 1 1.1 1 2.5m-66.2 2.3c.3 1.6-.1 2-1.2 1.6-1.9-.7-2.2-4.8-.3-4.2.6.3 1.3 1.4 1.5 2.6m49.9 2.3c-.2 1-.7 2.2-1.2 2.6-.4.5-.5.3-.1-.4.3-.6-.1-1.6-1-2.1-1.1-.6-1.5-1.6-1-2.7.5-1.4.9-1.5 2.1-.5.8.7 1.3 2 1.2 3.1m58.8 1c1.1 1.7-.4 5.9-2.1 5.9-1.1 0-1.4-.5-1-1.6.3-.9.6-2.4.6-3.5 0-2.1 1.5-2.6 2.5-.8m29.5 0c0 1.2-2.9 4.3-3.5 3.7-.2-.2-.2-1.4.2-2.6.5-2.2 3.3-3.1 3.3-1.1m-94.2 4c-.4 3.1-2.4 3.5-3.9.8-1-1.9-.9-2.5.7-3.6 2.2-1.6 3.7-.4 3.2 2.8m-39.2 5.7c.1 2.1 0 2.2-1.7.6-2.4-2.1-2.4-3.6-.1-3.2 1 .2 1.7 1.3 1.8 2.6m96.9.1c.3.5 0 2.2-.7 3.6l-1.2 2.7-.8-2.7c-.4-1.6-.5-3.2-.2-3.7.7-1.1 2.1-1 2.9.1m30.2 5.7c.2.7-.4 1.9-1.3 2.9-1.7 1.6-1.8 1.6-2.6-.5-.4-1.2-.5-2.6-.2-3.1.8-1.3 3.6-.7 4.1.7m-150.9 10.8c.3 1.3-.1 1.7-1.4 1.4-1.1-.2-2-1.1-2.2-2.2-.3-1.3.1-1.7 1.4-1.4 1.1.2 2 1.1 2.2 2.2m43.2 1.8c0 .7.3 2.3.6 3.5.9 3.1-1.1 2.9-3.2-.3-1.5-2.2-1.5-2.7-.3-3.5 2-1.2 2.9-1.1 2.9.3m-22.1 3.1c.6.8.8 1.7.4 2-.3.4 0 1.4.8 2.3.8 1 1 1.5.4 1.2-.5-.2-2.5-1-4.2-1.7-4-1.6-4.6-5.1-.9-5.1 1.3 0 2.9.6 3.5 1.3m117.8 4.3c.4 1.2-4.1 6.4-5.7 6.4s-1.2-4.1.7-6.2c1.8-2 4.4-2.1 5-.2m-34.3 2.3c.7 1.1-.3 4.1-1.4 4.1-1 0-2-3.7-1.2-4.4.8-.9 2-.7 2.6.3m-78.9 13.2c2 3.7 1.3 4.7-2 2.9-3.5-1.9-3.4-4.7.2-5.9.1-.1 1 1.3 1.8 3m-7.5.8c0 .5.3 1.6.6 2.5.9 2.3-2.3 2-3.6-.3-1.4-2.7-1.3-3.1 1-3.1 1.1 0 2 .4 2 .9m115 .5c0 1.9-2.7 2.8-3.3 1.1-.7-1.5.1-2.5 2-2.5.7 0 1.3.6 1.3 1.4m-90.9 10.2c1.3 3.5.6 4-2.5 1.7-3.1-2.2-3.3-4.3-.6-4.3 1.3 0 2.4 1 3.1 2.6m129.2 7c-.2 2.5-3.5 6.3-5.5 6.4-1.5 0-.8-3.3 1.3-6.7 2.5-4 4.5-3.8 4.2.3m14.7-.6c0 1-.9 2.4-2 3-2.3 1.2-2.7.1-1-3.1 1.4-2.5 3-2.4 3 .1m-75.4 1.3c.6 1.7-1.2 6.7-2.5 6.7-1.1 0-2.1-4.8-1.4-6.7.7-1.7 3.2-1.7 3.9 0m29.1 4.8c.7.7.7 1.7-.1 3.5-1.5 3.3-3.6 3-3.6-.4 0-4 1.5-5.3 3.7-3.1m-37.9 2.1c-.2 1.3-.7 2.3-1.3 2.3-.5 0-1.1-1-1.3-2.3-.2-1.5.2-2.2 1.3-2.2s1.5.7 1.3 2.2m-46.9 1c.9 2.4.6 3.8-.9 3.8-1.3 0-3.2-3.9-2.5-5 1-1.7 2.5-1.1 3.4 1.2m-36.4 2.4c2.5 3.8.4 5.6-3 2.4-1.9-1.8-2.2-2.6-1.4-3.7 1.6-1.9 2.4-1.6 4.4 1.3m138.5.7c0 1.7-3.8 5.2-4.7 4.4-1-1.1 1.5-5.7 3.2-5.7.8 0 1.5.6 1.5 1.3m-143.4 1.8c1.6 1.7 1.6 2.2.4 2.9-2.1 1.3-2.5 1.3-4.4-.9-1.9-2-1.4-4.1.8-4.1.7 0 2.1.9 3.2 2.1m126 1c.7 1.2-2.2 4.6-3.2 3.7-.8-.9.5-4.8 1.6-4.8.5 0 1.2.5 1.6 1.1m-58.1 1.9c.7 2.3-.2 4.3-1.6 3.5-1.2-.8-1.2-5.5 0-5.5.5 0 1.2.9 1.6 2m-8.7 4.3c.4 2.2-2.7 3.5-3.9 1.6-.5-.8-.9-2-.9-2.7 0-2 4.4-1 4.8 1.1m62.5 3.3c-.3.8-1.2 1.4-2 1.4-1 0-1.3-.6-.9-1.6.3-.9.6-2 .6-2.6 0-.7.5-.6 1.4.2.8.6 1.2 1.8.9 2.6m-45.9 3.6c.7 1.2.6 2.1-.3 3.2-1.8 2.1-2.8 2-4.1-.5-.9-1.5-.8-2.4.1-3.5 1.4-1.7 2.8-1.4 4.3.8m-15.6 1.6c.2 1.2-.1 2.2-.7 2.2-1.3 0-3.2-3.5-2.4-4.4 1.2-1.2 2.8 0 3.1 2.2m90 2.1c-.7 1.1-1.6 2.1-2.1 2.1-1.5 0-1.9-2.8-.7-5 1.1-2 1.4-2.1 2.7-.7 1.2 1.2 1.3 1.8.1 3.6m-52.6 2.6c-1.2 2.2-2.7.2-1.8-2.2.5-1.2 1-1.3 1.7-.6s.8 1.7.1 2.8m60.4 2.7c.4.6-.2 1.8-1.2 2.6-1.3 1-1.5 1.6-.6 1.9 1.7.7 1.5 2.4-.5 3.9-3.4 2.5-3.5 1.7-1.7-7.4.5-2.3 2.8-3 4-1m-159.8 2.9c1.2 1.9 1.1 2-1 1.7-1.2-.2-2.4-1.1-2.6-2.1-.5-2.4 2-2.1 3.6.4m96.7.4c0 2.8-2.9 2.5-3.3-.3-.3-1.9 0-2.3 1.5-2 1 .2 1.8 1.2 1.8 2.3m37 2.1c0 1.6-5.2 5.2-7.8 5.4-2 .1.1-4.5 2.8-6.1 3.6-2.1 5-1.9 5 .7m-104 2.5c.4 1.2.3 2.5-.2 3-1.2 1.2-4.7-2.6-3.8-4 1.1-1.8 3.3-1.2 4 1m55.5.5c0 .8-.7 1.4-1.5 1.4-1.5 0-2.1-2.1-.9-3.3 1-.9 2.4.2 2.4 1.9m-33.2 1.1c-.5 2.5-2.8 2.8-2.8.4 0-1.2.6-2.1 1.6-2.1.9 0 1.4.7 1.2 1.7m47.9 5.8c.2.6-.3 2-1.1 3-1.8 2.5-3.8.9-2.9-2.3.6-2.3 3.3-2.7 4-.7m-52.6 5.7c1.7 3.1-.4 4.5-3.5 2.4-2.5-1.6-3.3-3.6-2-4.8 1-1.1 4.5.4 5.5 2.4m41.4-.1c0 1.5-.7 2.5-1.7 2.7-1.3.3-1.8-.3-1.8-2.1 0-1.3.3-2.7.7-3.1 1.3-1.2 2.8.1 2.8 2.5m79 5.8c0 2-7.3 4.7-8.8 3.2-.9-1-.6-1.7 1.2-3.2 2.7-2.2 7.6-2.2 7.6 0m-11.9 4.3c.8 1.2-2.1 3.8-4.3 3.8-1.3 0-1.8-3.2-.6-4.3 1-1.1 4.1-.8 4.9.5m-91.3 1.3c.1.5-.6 1.1-1.5 1.3-1.1.2-1.8-.3-1.8-1.3 0-1.7 3-1.8 3.3 0M226 250c0 1.1-.7 2-1.5 2-1.5 0-2.1-2.1-.8-3.3 1.2-1.3 2.3-.7 2.3 1.3m28.8 2.2c-.4 2.7-2.3 3.4-3.2 1.3-.8-2.1.1-3.5 2-3.5 1 0 1.4.8 1.2 2.2m25.9 1.4c.3.8.1 2-.5 2.6s-.8 1.7-.5 2.6c.4.8-.1 2-1 2.7-2 1.4-6.7.8-6.7-.9 0-2.2 1.8-3.9 3.5-3.2q1.65.6 1.2-.6c-.5-1.6 1-4.8 2.4-4.8.5 0 1.2.7 1.6 1.6m-17.9 5.6c1.5 1.5-1.3 4.9-3.4 4.1-1.7-.6-1.8-2.5-.2-4.1 1.5-1.5 2.1-1.5 3.6 0m-5.3 5.3c0 1-.5 2-1.1 2.2-1.3.4-2.7-2.4-1.8-3.8.9-1.5 2.9-.4 2.9 1.6m-45.5 8c0 .8 0 1.8.1 2.2 0 .4-.4.9-.9 1.1-1.2.4-2.4-2.6-1.6-3.9.8-1.4 2.4-1.1 2.4.6m25.8 2.2c-.2 1-1 1.8-1.8 1.8s-1.6-.8-1.8-1.8c-.2-1.2.3-1.7 1.8-1.7s2 .5 1.8 1.7m27.8 4.5c-.1 3.3-.5 4.4-1.9 4.6-1.6.3-1.8-.2-1.3-4 .3-2.3.5-4.4.5-4.6.1-.1.7-.2 1.4-.2.9 0 1.3 1.4 1.3 4.2m-17.5 3.5c.8 2.2.6 3-1.3 5-2.5 2.7-6.1 2.7-6.6 0-.3-1.2.3-1.7 2.2-1.7 2.3 0 2.5-.3 2-3-.5-2.4-.3-3 1-3 .9 0 2.1 1.2 2.7 2.7M219 288c0 2.3-2.2 2.7-3.9.7-1.3-1.6-.5-2.7 2.1-2.7 1.1 0 1.8.7 1.8 2m17-.6c0 .8-.5 1.8-1 2.1-1.3.8-4.2-1.4-3.4-2.6.9-1.5 4.4-1 4.4.5m63 1.1c1.9 2.3-.5 4-4.7 3.6-2.7-.2-.5-5.1 2.3-5.1.6 0 1.7.7 2.4 1.5m-14.1 6.1c-1.7 2-3.9 1.7-3.9-.5 0-2.3 2-3.2 3.8-1.8.9.7.9 1.3.1 2.3m-58.3 5.5c.3.6.1 1.6-.4 2.1-1.3 1.3-4.5-.8-3.6-2.3.7-1.2 3.1-1.1 4 .2m66.4 4.4c0 1.9-2.7 2.6-4 1-.8-1-.7-1.6.7-2.3 2-1.2 3.3-.7 3.3 1.3m-38.3 1.9c-.4.9-1.1 1.6-1.7 1.6-1.7 0-2.4-3.1-.9-4.1 1.8-1.1 3.4.5 2.6 2.5m9.2 3.3c-1.5 1.8-3.4.1-2.5-2.2.5-1.4.9-1.5 2.1-.5s1.3 1.6.4 2.7m59 1.6c1.4 1.7.4 2.7-2.5 2.7-3 0-3.9-1.6-1.7-2.9 2.4-1.4 2.9-1.3 4.2.2m-82.9 1.1c0 2-1.9 3.1-3.2 1.8-.6-.6-.7-1.5-.4-2.1 1-1.6 3.6-1.3 3.6.3m36.5 2.6c.9 1.5-1.4 4-3.6 4-2.1 0-2.5-2-.7-3.8 1.5-1.5 3.5-1.5 4.3-.2m-48 1c.4.6.2 1.6-.4 2.3-.6.8-.6 1.8-.1 2.7 1 1.7.4 3-1.5 3-1 0-1.4-1.1-1.3-3.8 0-2 .3-4 .5-4.5.6-1 2.1-.9 2.8.3m35.3 1.3c.2 1-.3 1.7-1.2 1.7-1.8 0-2.9-1.6-2.1-3.1.9-1.4 2.9-.6 3.3 1.4m-12 3.4c-.4 2.2-3.8 3-3.8 1 0-1.4 1.3-2.4 3.3-2.6.5-.1.7.7.5 1.6m7.6 3.6c-.7 1.9-2 2.2-2.9.7s1.6-4.3 2.7-3.2c.5.5.6 1.6.2 2.5m29.5-1c1.4 1.7.4 2.7-2.6 2.7-3.5 0-2.8-3.5.8-3.9.4-.1 1.2.5 1.8 1.2m9.1 2.8c0 1.6-.5 2-2.7 1.7-1.7-.2-2.9-1-3.1-2.1-.3-1.3.3-1.7 2.7-1.7 2.5 0 3.1.4 3.1 2.1m-40 4.8c0 .6-.5 1.3-1 1.6-1.5.9-4.3-.3-3.5-1.5.8-1.3 4.5-1.3 4.5-.1m22 1.1c0 2.1-.8 2.4-3.4 1.4-2.5-1-1.9-3.4.9-3.4 1.8 0 2.5.5 2.5 2m8 .4c0 .8-.6 1.6-1.3 1.9-1.9.7-4.1-.8-3.3-2.2 1-1.6 4.6-1.4 4.6.3m-9.2 3.2c4 2.7-.3 4.8-4.9 2.3-1.6-.8-1.8-1.3-.8-2.5 1.5-1.8 2.9-1.8 5.7.2m-20.4 6c2.6 1 2 4.4-.8 4.4-3 0-4.2-1.6-2.6-3.5 1.4-1.7 1.3-1.7 3.4-.9m23.6 1.9c.6.8.9 1.9.5 2.5-1 1.6-4.2 1.2-4.9-.6-1.2-3.2 2.1-4.7 4.4-1.9m-53.5 3.4c0 .8-.8 1.9-1.7 2.5-2.2 1.3-4.1-.3-3.2-2.8.8-2 4.9-1.8 4.9.3m27.9 3.8c.9 2.2-1 4.1-2.5 2.6-1.3-1.3-.5-4.3 1-4.3.5 0 1.2.8 1.5 1.7m13.6 1.2c0 1.4-.5 1.8-2 1.4-2.1-.5-2.5-1.5-1.3-2.6 1.3-1.4 3.3-.6 3.3 1.2m16.5 3.5c4 3.2 2.5 5-2.7 3.4-3.6-1.1-5.4-3.1-4.2-4.9.9-1.6 3.8-1 6.9 1.5m-56.5 2.5c0 2.2-1.5 3.5-3 2.6-.7-.4-.7-1.3 0-2.6 1.4-2.5 3-2.5 3 0m22.4 4.7c.7 1.9-.1 3.4-1.9 3.4-1.5 0-2.8-2.7-1.9-4.1s3.1-1 3.8.7m15.1.4c1.6 1.7 1.6 2 .2 2.6-2.2.8-3.7-.3-3.7-2.7s1.2-2.4 3.5.1m10.5-.6c0 1.9-1.4 2.8-3.4 2-2.5-1-1.9-3.4.9-3.4 1.5 0 2.5.6 2.5 1.4m-45.5 5.6c0 1.6-.6 2.6-1.9 2.8-2.7.6-4-1.2-2.6-3.8 1.5-2.8 4.5-2.2 4.5 1m8.3 1.1c-.1 1.3-1.1 2.5-2 2.7-1.4.3-1.8-.3-1.8-2.6 0-3 1.7-4.6 3.3-3.2.5.4.7 1.8.5 3.1m23.5.6c.3 1 .4 3.1.3 4.8-.1 3.3-2.5 4.3-7.2 3.1-3.1-.8-3.1-2.3.1-3.8 1.6-.7 2.5-1.9 2.5-3.5 0-2.8 3.6-3.3 4.3-.6m-23.3 7.9c1.2 3.1.6 4.4-2.1 4.4-1.4 0-1.9-.7-1.9-2.8 0-4.8 2.4-5.8 4-1.6"/></svg>