<svg xmlns="http://www.w3.org/2000/svg" width="682.667" height="512" version="1.0" viewBox="0 0 512 384"><path d="M0 192v192h236.7l-.4-2.3c-.6-3.3 2-5.3 4.1-3.2.9.9 1.6 2.5 1.6 3.6 0 1.8.8 1.9 12.6 1.9 10.6 0 12.5-.2 11.5-1.4-1.3-1.6-.4-4.6 1.4-4.6 1.9 0 3.8 2.8 3.1 4.5-.5 1.3 12.9 1.5 120.4 1.5h121V0H0zM256.4 14.9c1 1.6-.5 4.1-2.5 4.1-1.9 0-2.7-2.9-1.2-4.3.9-1 3.1-.9 3.7.2M119 40.2c0 1.2-3.8 1-4.5-.2-.4-.6-.1-1.8.6-2.6 1.2-1.4 1.4-1.4 2.6.2.7 1 1.3 2.1 1.3 2.6m37 15.2c0 .7.3 2.9.6 4.7l.5 3.4-2.5-3c-3.1-3.6-3.4-6.5-.6-6.5 1.1 0 2 .6 2 1.4m106.5-.4c.3.6.3 2-.1 3.2l-.7 2.2-1.8-2.3c-1.1-1.3-1.6-2.7-1.3-3.2.7-1.2 3.1-1.1 3.9.1m19.3 7.8c.3 1.9-.1 2.3-1.5 2-1-.2-1.9-1.4-2.1-2.6-.3-1.9.1-2.3 1.5-2 1 .2 1.9 1.4 2.1 2.6m-67.8-.3c0 .8-.6 1.5-1.4 1.5-1.7 0-2.8-1.4-1.9-2.4 1.2-1.2 3.3-.6 3.3.9M180.5 65c.3.5.2 1.7-.2 2.5-.8 1.3-1.2 1.3-2.7.2-1.1-.8-1.6-1.9-1.2-2.5.9-1.5 3.3-1.6 4.1-.2m11.5 3.1c0 .8.4.8 1.4 0s1.6-.8 2.4.1c1.5 1.9 2.5 9.5 1.4 10.2-1.5.9-5.4-4.5-4.9-6.5.3-1.1 0-1.6-.8-1.3-1.5.6-2.9-1.2-2-2.6.8-1.4 2.5-1.3 2.5.1m70.8 3.9c-.3 4-1.8 5.7-1.8 2.1 0-1.1-.5-2.3-1-2.6-.8-.5-.7-1.1.1-2.1 2-2.4 3-1.5 2.7 2.6m-90.3 4.1c.4 1.1.5 2.2.3 2.5-.6.6-4.8-2.6-4.8-3.7 0-1.8 3.9-.9 4.5 1.2m97.5-.6c0 .8-.9 1.5-2 1.5s-2-.7-2-1.5.9-1.5 2-1.5 2 .7 2 1.5m-34 2.1c0 .9-.5 1.4-1.2 1.2-1.8-.6-2.1-2.8-.4-2.8.9 0 1.6.7 1.6 1.6m-73.3 3c.8 2-.8 3.6-2.6 2.5-1.5-1-.8-4.1.9-4.1.6 0 1.3.7 1.7 1.6m54.3.9c.7.9 1 1.8.7 2.1-1 1.1-3.7-.5-3.7-2.1 0-1.9 1.4-1.9 3 0m-2.4 9c.7 2.9-.1 5.5-1.6 5.5-.6 0-.8-.5-.5-1 .3-.6-.1-1.3-.9-1.6-.9-.3-1.6-1.4-1.6-2.3 0-3.8 3.7-4.3 4.6-.6m76.2-.8-1.8 4.5c-.8 2.1-2 3.8-2.7 3.8-1.6 0-1.6-.3-.1-5.1.8-2.8 1.7-3.9 3-3.9 1.1 0 1.8.3 1.6.7m34.2 3.1c0 .5-1.1 1.9-2.5 3.2-2.6 2.4-3.3 1.4-1.5-2.1 1.1-1.9 4-2.7 4-1.1m-46.4 3.7c.3.8-.1 2.3-.9 3.4-1.4 2.1-1.4 2.1-2.6-.5-.6-1.4-.9-3-.6-3.5.9-1.4 3.5-1.1 4.1.6M170.5 102l.8 2.5-2.1-2.5c-1.1-1.4-1.8-2.9-1.5-3.3.7-1.2 1.9.3 2.8 3.3m141-2c.3.5.2 1.7-.3 2.6-.8 1.4-1 1.4-2.1 0-1.3-1.5-.8-3.6.9-3.6.5 0 1.2.4 1.5 1m-174.7 7.9c1 2.8.9 2.9-1.1 2.2-1.2-.5-2.3-1.8-2.5-3-.5-3.2 2.4-2.6 3.6.8m22.8 5.9c2.5 2.1 4.8 7.2 3.3 7.2-.6 0-2.7-1.2-4.7-2.7s-3.9-2.8-4.1-3c-.2-.1-.1-.9.2-1.8.8-2 2.7-1.9 5.3.3m31.9 3.9c1.2 2.8 1.3 3.8.3 4.4-1.5.9-5.2-4.7-4.4-6.7.9-2.4 2.5-1.5 4.1 2.3m110.1 3.4c.3.6.1 1.6-.5 2.2s-1.1 1.8-1.1 2.6c-.1 2-3.4 6.1-4.9 6.1-1.7 0-1.3-5.7.4-6.4.8-.3 2-1.7 2.5-3.1 1-2.6 2.4-3.2 3.6-1.4m-38.2 7.7c.2.4-.2 1.8-1 3.2l-1.3 2.5-.1-3.3c0-2.9 1.2-4.3 2.4-2.4m-96.7 6.6c1.6 4.7.8 6-1.7 2.8-1-1.2-2.3-2.2-2.9-2.2-1.2 0-1.5-3.3-.4-4.4 1.5-1.5 3.7.1 5 3.8m123.9 4.8c-.3 1.3-.6 2.7-.6 3.3 0 .5-.5.3-1-.5-1.5-2.3-1.2-5 .6-5 1.2 0 1.5.6 1 2.2M166.3 147c.8 3-1.7 3.6-4.4 1.1-1.8-1.7-2-2.3-.9-3.5 1.5-2 4.5-.6 5.3 2.4m19.7-1.2c0 2.6-1 3.3-3.1 2.1-2.8-1.4-2.4-3.9.6-3.9 1.8 0 2.5.5 2.5 1.8m82.4 9c.3.5.3 2.5-.1 4.5-.4 2.7-1.1 3.7-2.4 3.7-2.2 0-3.6-5.4-1.9-7.5 1.4-1.7 3.6-2 4.4-.7m74.2 3.7c.4.8.1 2.2-.5 2.9-.8 1-.9 1.6-.1 2.1 2.3 1.4-.2 6.4-3.4 6.5-.9 0-.2-10.2.9-11.9.9-1.6 2.5-1.3 3.1.4m14.9 2.5c0 .7-1 1.9-2.3 2.8-2 1.3-2.2 1.3-1.7-.2.3-.9.7-2.3 1-3.2.6-1.8 3-1.4 3 .6m-54.5 1.1c0 1.4-3.9 6.9-5 6.9-1.3 0-1.9-5.4-.8-6.8 1.3-1.5 5.8-1.6 5.8-.1m-99 8.6c0 .5.3 1.8.6 3 .5 1.6.2 2.3-.8 2.3-2 0-5.2-3.6-4.3-4.9.7-1.2 4.5-1.5 4.5-.4m54.8 1.5c-.5 3.2-2.8 3.5-2.8.4 0-1.7.5-2.6 1.6-2.6 1 0 1.4.7 1.2 2.2m66.9 1.4c.6 1.5-2.7 5.4-4.7 5.4-1.6 0-1.2-3.7.6-5.4 2-2 3.3-2 4.1 0m-164.4 2c1.5 2 1.6 2.8.7 3.9-1.5 1.8-3.1 1.9-6.5.3-3-1.3-3.3-3.8-.5-4.5 1.1-.3 2-.9 2-1.4 0-1.8 2.5-.8 4.3 1.7m74.2 4.5c.8 3.4-.1 5.1-1.5 2.9-1.2-1.9-1.3-6-.1-6 .5 0 1.2 1.4 1.6 3.1m70.5-.8c0 1.7-3.4 4.9-4.3 4.1-.3-.3-.1-1.7.5-3 1.2-2.6 3.8-3.3 3.8-1.1m-80.8 5.2c.9 1.9.9 2.8 0 3.7-1.6 1.6-4.2-.8-4.2-3.8 0-3.2 2.7-3.1 4.2.1m74.8 4.3c0 1-.9 2.3-2 3-1.7 1-2 1-2-.4 0-2.3 2-5.5 3.1-4.9.5.4.9 1.4.9 2.3m30-.7c0 2.3-2.5 5.9-3.9 5.7-1.8-.4-1.7-5.8.2-7 1.2-.7 3.7.1 3.7 1.3m-85.5 5.4c0 3.7-2.8 4.6-4.5 1.5-1.6-2.9-.5-5.2 2.2-4.8 1.8.2 2.3.9 2.3 3.3m-17.7 1.8c.2 1.9-.1 2.7-1.2 2.7s-1.6-1-1.6-3.1c0-3.8 2.4-3.5 2.8.4m45.7 3.7c.8 1.3-1.4 4.2-2.6 3.4-.5-.3-.9-1.4-.9-2.5 0-2 2.4-2.6 3.5-.9m68.2.6c.2.7-.2 1.8-1 2.5-.7.8-1.2 2-.9 2.7.4 1.4-2.5 5.2-4 5.2-.5 0-.6-.9-.3-2.1.4-1.2.8-3.1 1-4.2.5-3.8 1.7-5.8 3.3-5.5.8.2 1.7.8 1.9 1.4m-29.7 1.7c0 3-2.4 6.2-3.8 5.3-1.6-.9-1.5-4.9 0-6.4 1.9-1.9 3.8-1.4 3.8 1.1m-44.5 5.5c0 3.1-1.9 2.8-2.3-.4-.3-1.8 0-2.5 1-2.2.7.3 1.3 1.4 1.3 2.6m-112.3.9c2.6 2.4 2.2 3.6-.9 2.8-3.4-.8-4.7-2-3.9-3.4 1-1.6 2.7-1.4 4.8.6m33.8 1.9c.6 1.4.7 3 .4 3.5-.9 1.4-4.4-2-4.4-4.3 0-2.7 2.9-2.2 4 .8m120-.2c0 1.8-4.9 5.8-6.1 5-1.4-.8-1.1-2.5.8-4.6s5.3-2.4 5.3-.4m-54 4.1c0 2.8-1.5 3.4-2.4.9-1-2.5-.7-3.4.9-3.4.9 0 1.5.9 1.5 2.5m-33.3 3.1c.8 2.1-1.3 4.2-2.8 2.7-1.3-1.3-.5-4.3 1.1-4.3.6 0 1.3.7 1.7 1.6m48.8-.6c1 1.6-.5 5-2.1 5-.8 0-1.4-1-1.4-2.3 0-3.4 2.1-5 3.5-2.7m-13 2.1c1 1.6-.4 5.9-1.9 5.9-1.3 0-2.6-2.9-2.6-5.8 0-1.5 3.6-1.6 4.5-.1m-52.1 2.8c2.4 4.5-.7 5.8-4.4 1.9-2.7-2.9-2.5-4.8.5-4.8 1.7 0 2.9.9 3.9 2.9m147.4 8.3c.4 2-1.9 3.3-7 4.1-3.1.5-3.8.3-3.8-1.1 0-.9.5-2.4 1-3.2.8-1.2 1.3-1.3 3-.3 2.6 1.7 3 1.6 3-.3 0-2.1 3.4-1.4 3.8.8m-16.9 5.1c.8 1.1.6 1.8-.8 3.1-2.2 2-4.1 1.4-4.1-1.3 0-3.2 2.8-4.2 4.9-1.8m-81.9 4.3c1.1 2.9.6 4.4-1.5 4.4-2.2 0-3.9-3.8-2.4-5.6 1.7-2.1 2.8-1.7 3.9 1.2m33.8 4.7c.6 3-3.6 7.7-6.9 7.7-2.3 0-2.9-.4-2.9-2.3 0-3.4 1.6-5.5 3.2-3.9 1.7 1.7 2.8 1.5 2.8-.6 0-3.5 3.2-4.2 3.8-.9m-51 1.4c-.5 2.5-2.8 2.8-2.8.4 0-1.2.6-2.1 1.6-2.1.9 0 1.4.7 1.2 1.7m-10 1.6c.2 1-.3 1.7-1.1 1.7-1.6 0-3-2.4-1.9-3.4 1-1 2.7-.1 3 1.7m40.2 5.6c0 1-.7 2.4-1.6 3.1-1.2 1.1-1.8 1-3.1-.3-2.1-2.1-.9-4.7 2.2-4.7 1.8 0 2.5.5 2.5 1.9m-6.5 3.1c.8 1.3-1.3 4-3.1 4-1.4 0-1.9-3.1-.7-4.3 1-1 3.1-.8 3.8.3m-54.7 8.2c-.2 1.5-1 2.3-2.3 2.3s-2.1-.8-2.3-2.3c-.3-1.8.1-2.2 2.3-2.2s2.6.4 2.3 2.2m63.7 5.9c0 1.3.4 3 .8 3.7.9 1.4-1 4.5-2.3 3.7-1-.6-2.2-8.4-1.4-9.6 1-1.7 2.9-.3 2.9 2.2m-30 .4c0 1.1-.7 2.1-1.6 2.3-1.8.3-3.3-2.3-2.3-3.9 1-1.7 3.9-.5 3.9 1.6m12.5 9.1c0 2.4-1.9 5.4-3.5 5.4-2.2 0-2.8-2-1.4-4.6 1.4-2.7 4.9-3.3 4.9-.8m-7.3 4.8c-.8 2-4.3 2.1-5.1.1-.3-.8.2-2.2 1.1-3 1.4-1.5 1.8-1.5 3.1-.1.8.8 1.2 2.2.9 3m-31.8-1.5c1.1 2 .5 3.1-1.6 3.1-.7 0-1.3-1.1-1.3-2.5 0-2.9 1.5-3.3 2.9-.6m99.2-.3c1.1 1.4 1 1.8-.6 3-2.4 1.8-3.9 1.8-5.5-.1-1-1.2-1-1.8 0-3 1.6-2 4.4-1.9 6.1.1M236 283c0 2.4-2.6 3.8-4.2 2.2-.8-.8-.8-1.5.2-2.7 1.8-2.1 4-1.9 4 .5m58.8 2.2c-.2 1.5-1.1 2.4-2.5 2.6-2.5.4-3.1-1.6-1.1-3.6s4-1.4 3.6 1m8 12c.4 2-3.6 3.4-5.1 1.9-.8-.8-.6-1.5.9-2.6 2.3-1.7 3.8-1.4 4.2.7m-47 2c-.2 1.3-1 2.3-1.8 2.3s-1.6-1-1.8-2.3c-.3-1.7.2-2.2 1.8-2.2s2.1.5 1.8 2.2m-33 1.7c-.2.9-1.1 1.7-2.1 1.9-2.1.4-3.5-2.7-1.7-3.8 1.9-1.2 4.2 0 3.8 1.9m114.9 4.7c.4 1.3-4.5 3.7-5.8 2.8-1.4-.8 2.1-4.5 4-4.2.8.2 1.6.8 1.8 1.4m-100.9 1.7c.2 1.1-.3 1.7-1.6 1.7-2.4 0-3.2-.8-2.5-2.6.7-2 3.7-1.3 4.1.9m31.6-.5c.9 1.4-1.2 3.5-2.8 2.9-2.3-.9-2-3.7.3-3.7 1.1 0 2.2.4 2.5.8m15.8 3.4c.8 2.1-.2 3.8-2.3 3.8-1.9 0-2.7-2.9-1.2-4.3 1.1-1.1 3.1-.8 3.5.5m-15.3 5.2c1 1.2.8 1.7-.8 2.5-2.2 1.2-3.7 0-2.7-2.4.7-1.9 2-1.9 3.5-.1m-42.9 1.1c1.3 1.6.6 3.5-1.5 3.5-1.8 0-2.8-1.7-2.1-3.5.7-1.9 2-1.9 3.6 0m25.8 2.2c-.4 2.2-2.2 2-2.6-.1-.2-1 .3-1.6 1.3-1.6s1.5.7 1.3 1.7m11.2 5.8c0 2.6-1.4 3.3-2.5 1.5-.9-1.4.1-4 1.5-4 .5 0 1 1.1 1 2.5m36-1c1.4 1.7 1.2 2.2-1 2.5-3 .5-4 0-4-2 0-2.4 3.2-2.7 5-.5m-69.1 5.1c-1.4 1.4-1.7 1.4-2.9 0-1-1.3-1-1.9 0-3.2 1.2-1.4 1.5-1.4 2.9 0 1.4 1.5 1.4 1.7 0 3.2m82.1-1.7c0 2.5-1.1 3.2-3.8 2.4-1.3-.3-2.2-1.3-2.2-2.4 0-1.4.7-1.9 3-1.9s3 .5 3 1.9m-50.2 3.4c.3 1.2-.4 1.7-2.2 1.7-2.7 0-3.7-2.4-1.3-3.3 1.9-.8 3.2-.2 3.5 1.6m27.6 1.3c.4.9.1 2.3-.5 3-.8 1-.8 1.4 0 1.4.6 0 1.1.9 1.1 2 0 2.2-2 2.6-5.1 1-1.5-.8-1.8-1.7-1.3-3.8.6-2.5 2.9-5.2 4.5-5.2.4 0 1 .7 1.3 1.6m12.2-.5c1.1 1.8-1.3 3.2-4.1 2.5-2.2-.6-2.5-.9-1.5-2.1 1.5-1.8 4.6-2 5.6-.4M291 345.6c0 3.3-3.3 3-3.8-.4-.3-1.7.2-2.2 1.7-2.2 1.6 0 2.1.6 2.1 2.6m-29.6-1c1.8.7 2.1 3.9.5 5-1.6.9-4.3-2.1-3.6-4 .7-1.8.9-1.8 3.1-1m-37.6 8.2c.4 3-2.6 4.2-4.4 1.7-1-1.4-1.1-2.2-.2-3.2 1.6-2 4.2-1.2 4.6 1.5m57.7 1.2c0 .8-.7 1.6-1.5 1.7-2.2.4-4.4-1.3-3.5-2.6 1-1.7 5-.9 5 .9m-20.5 3.5c1.3 1.6.6 3.5-1.5 3.5-1.8 0-2.8-1.7-2.1-3.5.7-1.9 2-1.9 3.6 0m44.2 4.3c.9.9.9 1.5 0 2.4-1.6 1.6-6.4-.6-5.6-2.6.7-1.7 3.8-1.6 5.6.2m-10.7 1.6c1.6 1.1 1.7 1.9.9 4.6-1.1 4.1-2.4 4.6-5.4 2.2-2.2-1.8-2.2-1.9-.6-5 1.9-3.6 2.4-3.8 5.1-1.8M228 365c1.8 1.1.3 4.3-2.4 4.8-2.1.4-3.2-2.4-1.6-4.3 1.4-1.7 2-1.8 4-.5m28 10.1c0 .4-.4 1-.9 1.3-1.4.9-3.4-2.2-2.6-4.1.6-1.7.7-1.7 2.1.1.8 1.1 1.4 2.3 1.4 2.7m18.1-3.1c2.3 1.3 2.5 3.6.4 4.4-1.4.5-3.5-2-3.5-4.3 0-1.4.6-1.4 3.1-.1m-44.3 7.3c.3 2.3 0 2.7-2.2 2.7-2.6 0-3.2-1.3-2-4.5 1-2.5 3.9-1.3 4.2 1.8"/></svg>