<svg xmlns="http://www.w3.org/2000/svg" width="682.667" height="512" version="1.0" viewBox="0 0 512 384"><path d="M0 192v192h110.8c109.6 0 110.7 0 112-2 1.6-2.6 4.8-2.6 6.2 0 1.2 2.3 6.8 2.8 8.8.8.9-.9 1.5-.9 2.4 0 1.7 1.7 29.5 1.7 30.1-.1.3-.9 1.1-.9 3.9.1 2.7.9 29.4 1.2 120.6 1.2H512V0H0zM103.9 16.3c.8 1.1.6 1.8-.8 3.1-1.5 1.4-2 1.4-3 .2-.9-1.1-.8-1.7.4-3 2-1.9 2-1.9 3.4-.3m154.9 18.5c.3 1.6-.2 2.2-1.7 2.2-2.4 0-3.5-1.5-2.7-3.6.9-2.3 4-1.3 4.4 1.4m-110.6 3.9c1.7 1.9 3.2 8.3 2 8.3-1.1 0-5.2-6.7-5.2-8.5 0-2 1.3-1.9 3.2.2m132.8.8c1.3 1.6.6 3.5-1.5 3.5-1.8 0-2.8-1.7-2.1-3.5.7-1.9 2-1.9 3.6 0m-72.6 6.6c-.3.5-1.4.9-2.5.9-2.1 0-2.6-2.6-.6-3.3 1.5-.5 3.9 1.2 3.1 2.4m-35.6 4.6c.5 1.7-2.6 2.9-4 1.5-.6-.6-.7-1.5-.3-2.2.9-1.4 3.7-.9 4.3.7m14.7 1.7c1.2-1.6 1.6-1.7 2.4-.5 1.6 2.4 2.3 9.3 1 10.5-.8.8-1.3.8-1.6-.2-.3-.6-1-1.2-1.7-1.2-1.6 0-5.8-7.9-4.9-9.2.4-.7 1.1-.4 2 .7 1.3 1.8 1.3 1.8 2.8-.1m74.3 1.3c-.5 2.6-3.8 2.9-3.8.4 0-1.5.6-2.1 2.1-2.1 1.4 0 1.9.5 1.7 1.7m7 4c.5 1.7-2.6 2.9-4 1.5-.6-.6-.7-1.5-.3-2.2.9-1.4 3.7-.9 4.3.7m-37.1 1.9c.8 2.1-1.3 4.2-2.8 2.7-1.3-1.3-.5-4.3 1.1-4.3.6 0 1.3.7 1.7 1.6M167 64c0 2.1-1.5 2.7-2.5 1-.7-1.2.2-3 1.6-3 .5 0 .9.9.9 2m-13.4 2.3c.1 2.2-.2 2.5-1.7 1.6-1.9-1-2.5-3-1.2-4.3s2.8.1 2.9 2.7m58.4 1.4c0 2.5-.1 2.6-2 .8-2.1-1.9-1.8-3.5.6-3.5.9 0 1.4 1 1.4 2.7m-1.5 9.7c0 2.1-.3 4-.7 4.3-.5.2-.8-.1-.8-.7 0-.7-1-2-2.2-3.1-2.3-1.9-2.3-1.9-.3-3.4 2.8-2.2 4-1.3 4 2.9m82.1.8c-.3 1.8-1.3 4.3-2.2 5.6-1.5 2.3-1.6 2.3-2.9.5-1.3-1.6-1.2-2 .5-3.4 1-.9 1.7-1.9 1.3-2.2-1-1.1.6-3.7 2.3-3.7 1.3 0 1.5.6 1 3.2m-15 2.3c.4.8.3 2.3 0 3.2-.6 1.4-.8 1.4-2.2-.5-1.5-2.2-1.2-4.2.7-4.2.5 0 1.2.7 1.5 1.5m52.4.7c-.1 1.3-3.4 5.8-4.3 5.8-.8 0 .4-4.3 1.6-5.8.5-.6 1.3-1.2 1.8-1.2s.9.6.9 1.2m-16 2.7c0 1.1-.5 2.3-1.1 2.7-1.5.9-3.3-1.2-2.6-3 .9-2.3 3.7-2 3.7.3M164.5 88c1.1 1.7-.5 3.2-2.1 1.9-.8-.6-1.4-1.5-1.4-2 0-1.2 2.7-1.1 3.5.1m-40.7 2.8c.4 2.3-1.2 2.9-3.7 1.3-1.9-1.2-.6-4.3 1.6-3.9 1 .2 1.9 1.3 2.1 2.6m27.2 8.3 1.8 3.6c2.5 4.9.1 4.5-5-.8-3.2-3.3-3.7-4.3-2.7-5.5s1.5-1.2 3.2-.1c1.2.8 2.4 2 2.7 2.8m32.8 4c.2 1.3.8 2.9 1.3 3.6.6.6.6 1.4.1 1.7-1.3.8-5.5-5.3-4.8-7.1.9-2.1 3-1 3.4 1.8m122 2.9c.1.9-.6 2.4-1.5 3.5-1 1.1-1.7 2.7-1.5 3.6.4 1.9-2.3 4.3-3.8 3.4s-1.2-4.5.4-5.1c.8-.3 1.3-1.5 1.1-2.7-.3-1.1.1-2.7.7-3.4 1.4-1.7 4.2-1.3 4.6.7m-150.3 9c.9 1.5-.4 5-1.9 5-2 0-3.9-2.7-3.2-4.5.6-1.7 4.2-2 5.1-.5m108 1c.8 1.3-.3 5-1.5 5s-2.3-3.7-1.5-5c.3-.5 1-1 1.5-1s1.2.5 1.5 1m29.1 7.1c1 1.7-2.3 4.6-3.7 3.2-.7-.7-.9-1.9-.6-2.7.7-1.8 3.3-2.1 4.3-.5m-114.8 7.6c.3 2 0 2.2-2 1.4-3.2-1.2-3.8-4.4-.6-3.9 1.5.2 2.4 1.1 2.6 2.5m-18.5 5.1c.8 3.9-.9 5-3.2 2.1-2.3-2.8-2.6-4.5-.8-5.2 2.1-.7 3.5.3 4 3.1m109.1 3c1 1.6-.7 9.2-2 9.2-1.5 0-3.8-7.5-2.9-9 .7-1.2 4.2-1.3 4.9-.2m82.7 5.8c1.1 1.3.8 1.9-1.6 4-2 1.7-2.3 2.4-1.2 2.4 3.5 0 3.1 3.4-.7 6.2l-2.4 1.7.6-4.1c.4-3.3.2-4-.9-3.3-1 .6-.9.2.2-1.1.9-1 1.4-2.5 1.2-3.2-.5-1.3 1.4-4.2 2.7-4.2.4 0 1.3.7 2.1 1.6m-47.8 2.5c-.3 4.6-1 6.4-2.7 6.7-1.3.3-1.6-.1-1.1-2.1.4-1.4.2-2.8-.5-3.2-.8-.5-.6-1.3.6-2.6 2.2-2.5 3.9-1.9 3.7 1.2m61.2.9c0 .7-.6 1.5-1.2 1.7-.8.3-1.3-.4-1.3-1.7s.5-2 1.3-1.8c.6.3 1.2 1.1 1.2 1.8M200 162.6c0 4-1.1 4.4-3 .9-1-2-1.1-2.7 0-4 1.8-2.1 3-.9 3 3.1m59-.5c0 3.6-2.2 3.9-3.8.5-.7-1.6-.7-2.7 0-3.4 1.7-1.7 3.8-.2 3.8 2.9m73.7-.5c.3 1-.4 2.6-2.1 4.2-1.4 1.5-2.6 2.1-2.6 1.4 0-.6.6-1.2 1.3-1.2.8 0 .8-.3.2-.8-.9-.6-1.1-2-.7-4.5.3-1.3 3.3-.7 3.9.9m-180.4 3.5c.9 1.7 1.7 3.7 1.7 4.5 0 2.5-2.7 2.7-5.3.4-2.3-2-2.4-2.3-1-5.1 1.8-3.6 2.4-3.6 4.6.2m81.7 3.8c0 4-1.8 4.9-3 1.6-1.1-3-.6-4.5 1.6-4.5.9 0 1.4 1 1.4 2.9m78.3-.5c.5 1.3-3.1 5.6-4.6 5.6-.7 0 .1-4.6 1-6.3.7-1.2 3.1-.8 3.6.7m-89.5 6.4c.2 1.8-.1 3.2-.7 3.2s-1.4.1-1.8.2c-.8.4-1.5-4.3-.8-6 .9-2.4 3-.7 3.3 2.6m110.5-1.2c.5.6-.8 3.6-3.1 7.3-.1.3-.8-.1-1.4-.7-.7-.7-.8-1.2-.2-1.2s.9-1.3.6-3c-.3-2.5-.1-3 1.5-3 1.1 0 2.3.3 2.6.6m-30.3 4.6c0 .7-.7 2.2-1.5 3.2-1.4 1.9-1.5 1.8-1.5-1.2 0-2.2.5-3.2 1.5-3.2.8 0 1.5.6 1.5 1.2m-60.2 4.1c.3 2.7-1.2 5.7-2.8 5.7-.5 0-1.3-1.4-1.9-3.1-.8-2.4-.8-3.6.1-4.6 1.8-2.2 4.3-1.1 4.6 2m-17 4.1c-.2 1.2-1 2.1-1.8 2.1-1.6 0-2.5-2.8-1.6-5.2.9-2.3 3.8.4 3.4 3.1m90.5.8c.5 1.6-2 6.8-3.3 6.8-.6 0-1-1.8-1-4 0-3.3.3-4 1.9-4 1.1 0 2.1.6 2.4 1.2m31.7.7c0 1.1-.9 2.2-1.9 2.6-1.2.4-1.8 1.2-1.4 2.1.6 1.7-1.5 4.6-2.8 3.8-1.4-.8-1-4 .6-5.4.8-.7 1.5-2.1 1.5-3.1 0-1.2.7-1.9 2-1.9s2 .7 2 1.9m-74 2.4c0 1.4-2 3.7-3.2 3.7-.4 0-.8-1.1-.8-2.5 0-1.8.5-2.5 2-2.5 1.1 0 2 .6 2 1.3m-6.1 9.8c-1.6 3.2-3.2.9-1.9-2.7 1-2.5 1.3-2.7 2.1-1.2.7 1.2.6 2.5-.2 3.9m-121.6.4c2 2.8.8 4.1-2.3 2.5-2.2-1.2-2.8-5-.7-5 .6 0 2 1.1 3 2.5m36.6-.3c1 2.7.1 4.1-2.2 3.3-1.8-.7-3-3.2-2.1-4.6 1-1.7 3.5-.9 4.3 1.3m130.9.5c.3 2.2-3 5.3-5.6 5.3-1.6 0-.9-4.5 1-6.8 1.6-1.9 4.2-1 4.6 1.5m-58.4 7c.1 4.1-1.3 6.1-3.4 4.8-1.6-1-2.2-6.5-.9-8.1 2.2-2.7 4.2-1.2 4.3 3.3m14 1.1c-.4 1.8-1 3.2-1.5 3.2-1.1 0-1.2-6.3-.2-7.4 1.3-1.3 2.3 1.1 1.7 4.2m-72.6-1.6c1.5 1.5 1.6 6.8 0 6.8-1.8 0-4.8-3.1-4.8-5 0-3.1 2.6-4 4.8-1.8m24.6 2.7c1 1.6-.6 4.2-2.3 3.9-.9-.2-1.7-1.3-1.9-2.6-.3-1.6.2-2.2 1.7-2.2 1.1 0 2.2.4 2.5.9m138.6 7.5c0 .2.3 1.1.6 1.9.3 1-.6 2-2.7 3.1-3.3 1.6-5.4 1.3-4.2-.7.5-.9.3-.9-.8-.1-.8.6-2.4 1.3-3.5 1.6-2 .5-2 .3-1-2.3 1.1-2.9 3.9-3.9 5.2-1.8.5.8 1 .6 1.6-.5.8-1.4 4.8-2.4 4.8-1.2m-18.5 6.7c.9 1.4-3.4 5.9-5 5.2-2.2-.8.5-6.3 3.1-6.3.7 0 1.6.5 1.9 1.1m-88.9 3.4c1.1 2.7-.5 6.5-2.6 6.5-1.6 0-2-.7-2-3.4 0-4.1 3.4-6.4 4.6-3.1m37.4 7.2c0 2-4.1 8.3-5.4 8.3-.4 0-.6-.9-.3-2.1.5-2 .5-2-1.4-.3-2.5 2.2-3.4 1.3-2.1-2.3.6-1.8 1.6-2.7 2.8-2.6 1 .1 2.4-.7 3.2-1.8 1.5-2.1 3.2-1.7 3.2.8m-52.5 6.4c0 .7-.8 1.5-1.7 1.7-1.8.3-2.5-1.8-1.1-3.2 1-1 2.8-.1 2.8 1.5m-11.7 1.1c-.5 3.2-2.8 3.5-2.8.4 0-1.7.5-2.6 1.6-2.6 1 0 1.4.7 1.2 2.2m42.8 1.2c.7 1.9-1.3 5.6-3 5.6-.7 0-2.1.9-3.1 2s-2.7 2-3.7 2c-3 0-2.1-5.4 1-5.8 1.2-.2 2.2-.9 2.2-1.6 0-3.1 5.5-5 6.6-2.2m-68.8 12.1c.7 1.6.8 2.6.1 3.1-1.4.8-3.9-1.5-3.9-3.7 0-2.7 2.5-2.3 3.8.6m69.7 5.5c0 1.3-.5 2.5-1.1 2.7-1.3.4-2.6-3.5-1.8-4.9 1-1.6 2.9-.2 2.9 2.2m-30.7 3.4c.6 2.9-1.5 4.3-3.5 2.4-1.4-1.4-1.4-2-.3-3.3 1.6-1.9 3.4-1.5 3.8.9m33.5 2c.6 1.6-2.9 5.3-4 4.3-.8-.9 1.4-5.7 2.6-5.7.5 0 1.1.6 1.4 1.4m-18.9 8.3c.8 2-1 4-4.6 4.8-2.4.6-2.8.4-2.8-1.5 0-4.1 6.1-6.8 7.4-3.3m64.6-.2c1 1.3 1 1.9-.5 3.5-3.5 3.9-7.9 1.6-5.5-2.9 1.3-2.5 4.2-2.7 6-.6m-108 2.9c0 3-.9 3.7-3.1 2.5-2.1-1.1-2.4-3-.8-4.6 1.7-1.7 3.9-.4 3.9 2.1m32.8-.1c.2 1.9-.1 2.7-1.3 2.7-1.9 0-3-2.4-2.1-4.6.9-2.3 3.1-1.1 3.4 1.9m57.2.2c1 1.2 1 1.8 0 3-2.1 2.5-4 1.8-4-1.5s1.9-4 4-1.5m-63.6.4c1.1 1.7-.6 4.1-2.9 4.1-2.6 0-3.9-2.2-2.2-3.9 1.3-1.3 4.4-1.5 5.1-.2m71.5 12c1.3 2.2-1 4.7-3.4 3.7-1.2-.4-1.3-1-.3-3.1 1.3-3 2.4-3.2 3.7-.6m-52 2.5c.9 1.1.6 4.6-.4 4.6-1.7 0-3.5-1.5-3.5-2.9 0-3.2 2-4 3.9-1.7m-35.5 5.9c1.2 1.9.3 3.2-1.9 2.4-1.7-.7-2.1-5.1-.3-4.5.6.2 1.6 1.2 2.2 2.1m125.6 1.2c0 1.7-4.6 3.9-6.1 2.9-.5-.3-.5-1.3.1-2.5 1.3-2.3 6-2.6 6-.4m-111.1.8c.8 1 .7 1.7-.1 2.5-1.6 1.6-2.5 1.5-3.2-.4-1.2-3 1.2-4.5 3.3-2.1M271 305c0 2.4-2.6 3.8-4.2 2.2s-.2-4.2 2.2-4.2c1.3 0 2 .7 2 2m18-.5c1 1.2 1 1.8 0 3-2.7 3.3-6.7 1-4.8-2.8 1.1-2.1 3.1-2.2 4.8-.2m-16.6 9.2c.6 1.5-.8 3.2-2.6 3.3-1.2 0-2-2-1.4-3.5.7-2 3.2-1.9 4 .2m-18.4.6c0 1.7-2 3.7-3.7 3.7-1.6 0-1.7-2.2-.1-3.8s3.8-1.5 3.8.1m-29.3.8c1.4 1.4.6 3.9-1.2 3.9s-2.8-1.7-2.1-3.5c.6-1.8 1.8-1.9 3.3-.4m79.4 4.9c3 1.6 2.4 4-1 4-3.5 0-4.8-1.5-3.1-3.5 1.5-1.8 1.6-1.8 4.1-.5m-38.3 5.1c-.1 2.8-.7 4.3-2.1 5-3.2 1.8-3.8-.3-1.6-4.9 2.7-5.3 3.9-5.4 3.7-.1m55.3-.5c1.1 1.4 1.1 1.8-.4 2.9-2.1 1.5-5.7.8-5.7-1.1 0-1.2 2.6-3.3 4.1-3.4.4 0 1.3.7 2 1.6m-87.7 3c1.2 3.1-2.1 4.7-4.3 2.1-.8-1-.7-1.7.1-2.5 1.7-1.7 3.5-1.5 4.2.4m76.1 1.3c0 1.8-5.2 3.4-6.1 1.9-.9-1.4 2.5-4 4.6-3.6.8.2 1.5 1 1.5 1.7m-13.3 1.3c0 .7.2 1.7.2 2.3.1.5.5 1.5.9 2.1 1.1 1.8-1.9 3.6-5.4 3.2-4.1-.4-4.4-1.4-1.9-5.6 2-3.2 5.8-4.5 6.2-2m1.4 10.9c.3.6-.2 2-1.3 3-1.6 1.7-2.1 1.8-3.8.5-1.6-1.2-1.7-1.6-.6-3 1.5-1.8 4.7-2.1 5.7-.5m-30.6 4.3c0 2-2.7 3.9-4.5 3.2s-2-3.2-.2-3.9c2.4-1 4.7-.7 4.7.7m-45.2 8.4c.4 2.8-2.4 4-4.5 1.9-1.4-1.3-1.4-1.9-.3-3.2 1.8-2.2 4.4-1.5 4.8 1.3m67.1-1.5c1.4 1.7.4 2.7-2.6 2.7-3.5 0-2.8-3.5.8-3.9.4-.1 1.2.5 1.8 1.2m-23.1 8.8c.2.9-.5 1.9-1.4 2.3-2.1.8-5-1.7-3.9-3.4 1-1.6 4.9-.8 5.3 1.1m51.5 1.3c1 2.7-1.7 3.8-5.4 2.2l-3.4-1.5 2.5-1q5.4-2.1 6.3.3m-14.1 5.3c1 .9 1.8 2.5 1.8 3.6 0 1.5-.5 1.8-2.2 1.3-1.3-.3-2.8-.6-3.3-.6-1.4 0-3.7-3.9-3-5 1-1.6 4.7-1.2 6.7.7m-76.2.9c1.1 1.2 1.1 1.8-.2 3.1-1.9 1.8-3.8 1-3.8-1.6 0-3.3 2-4 4-1.5m53.1 8.3 2.3 1.8-2.1 1.1c-1.8 1-2.3.8-3.6-1.2-2.5-3.8-.4-4.8 3.4-1.7m-21.3 1.8c.4 2.9-2.3 3.1-3.8.4-1.5-2.8-1.3-3.3 1.3-2.9 1.4.2 2.3 1.1 2.5 2.5"/></svg>