<svg xmlns="http://www.w3.org/2000/svg" width="682.667" height="512" version="1.0" viewBox="0 0 512 384"><path d="M0 192v192h129.9c129.4 0 129.9 0 129.4-2-.7-2.7 2-2.7 4.7 0 1.7 1.7 3.3 2 11.6 2 8.6 0 9.5-.2 8.4-1.5-.8-1-.9-1.9-.4-2.4 1.3-1.3 5.4.6 5.4 2.4 0 1.3 12 1.5 111.5 1.5H512V0H0zM253.4 11.3c.8 1.2.7 2-.2 2.9-1 1-1.5 1-2.2-.2-1.4-2.1-1.2-5.2.2-4.8.6.2 1.6 1.2 2.2 2.1m24 7.5c-1.3 2-2.5 2-3.8-.1-.7-1-.5-2.1.4-3.2 1.2-1.5 1.5-1.5 2.9 0 1.2 1.2 1.3 1.9.5 3.3m-135.9 7.4c1.8 5.4.4 6.2-3.3 1.7-3.4-4.1-3.4-6.2 0-5.7 1.3.2 2.4 1.6 3.3 4m57.1.9c1 1.7-1.3 3.6-2.7 2.2-1.2-1.2-.4-3.3 1.1-3.3.5 0 1.2.5 1.6 1.1M164.5 36c0 .8-.8 1.6-1.7 1.8-1.3.2-1.8-.3-1.8-1.8s.5-2 1.8-1.8c.9.2 1.7 1 1.7 1.8m93.3 2.5c-.2 3.4-.2 3.4-2 1.5-2.1-2.2-2.2-3.2-.6-4.8 1.8-1.8 2.9-.4 2.6 3.3M184.5 36c.4.6.9 2.6 1.1 4.5.4 3.7-.9 4.8-2.1 1.8-.6-1.6-.8-1.5-2.4.6s-1.9 2.2-3.4.6c-.9-.9-1.7-2.1-1.7-2.6s-.7-.9-1.6-.9c-2.1 0-1.4-3.4.9-3.8 1-.2 1.7.3 1.7 1.2 0 2.2 1.7 2 3-.4 1.2-2.1 3.5-2.6 4.5-1m81.5 3.4c0 2-1.9 3.1-3.2 1.8-.6-.6-.7-1.5-.4-2.1 1-1.6 3.6-1.3 3.6.3m-39.7 5.8c-.3.6-1.2.3-2-.5-.9-.9-1.2-2-.8-2.8.6-.9 1.1-.8 2.1.6.7 1 1.1 2.2.7 2.7m-82.6 4.4c.8 2.1-1.3 4.2-2.8 2.7-1.3-1.3-.5-4.3 1.1-4.3.6 0 1.3.7 1.7 1.6m63 1c.9 2.3-1.1 3.8-2.6 2-1.3-1.6-.7-3.6 1-3.6.5 0 1.2.7 1.6 1.6m-45 1.9c.3.9.3 1.9-.1 2.2-.8.9-3.7-1.8-3-2.8.8-1.4 2.4-1.1 3.1.6m44.1 9.5c.2 1.8-.2 3.8-.8 4.4-.8.8-1 .7-.5-.5.4-1 0-1.9-.9-2.2-1.6-.6-2.2-3.8-.9-5.1 1.4-1.4 2.8.1 3.1 3.4m90.2 1.4c0 .7-.7 1.9-1.5 2.6-.9.7-1.3 1.5-1.1 1.8.7.6-2.6 6.2-3.5 6.2-.4 0-.9-1-1.3-2.3-.4-1.5 0-2.7 1.4-3.9 1.1-.9 2-2.6 2-3.7 0-1.4.6-2.1 2-2.1 1.1 0 2 .6 2 1.4m-19.4 3.2c-.5 1.3-1 1.4-1.8.6-.6-.6-.8-1.8-.4-2.8.5-1.3 1-1.4 1.8-.6.6.6.8 1.8.4 2.8m39.2-.3c.2 1.2-.3 1.7-1.7 1.7-1.2 0-2.1-.6-2.1-1.3 0-3.1 3.2-3.4 3.8-.4m18.3 5.6c-2.7 3.8-3 3.8-2.3.3.6-3.6 2.2-5.6 3.5-4.3.6.6.2 2-1.2 4m-224.1.6c1.5 1.8.5 3.5-2 3.5-2.2 0-3.4-1.5-2.6-3.5.7-1.9 3-1.9 4.6 0m48.5 6.5c1.8 3.4 1 3.8-2.4 1.1-1.3-1-2.1-2.3-1.7-3 1.2-1.8 2.5-1.3 4.1 1.9m-16.7 6.8c2.7 4.8.7 5.5-4.4 1.7-3.8-2.9-5.1-6-3.3-8.1 1.1-1.3 1.6-1.1 3.8 1.4 1.4 1.6 3.2 3.9 3.9 5m37 3.4c.9 3.5.6 5.8-.9 5.8-.5 0-.9-.6-.9-1.4s-.7-1.6-1.5-2c-1.5-.5-2.1-3.7-.8-4.9 1.5-1.6 3.3-.5 4.1 2.5m129 .1c.3 1.5-1.8 4.7-3.1 4.7-.9 0-1.8-5.1-1.1-6.1.9-1.5 3.8-.6 4.2 1.4m-2.4 7.6c-.5.3-1.6 1.9-2.4 3.4-1.3 2.6-1.5 2.7-2.7 1.1-2-2.8-1.6-4.4 1.2-4.4 1.4 0 2.5-.5 2.5-1.1 0-.5.5-.7 1.1-.3.6.3.7.9.3 1.3m-162.7.3c.4.7.8 2.3.8 3.6.1 1.8-.3 2.1-2 1.6-3-.9-4.9-3-4.2-4.8.8-1.9 4.2-2.1 5.4-.4m122 9.2c-.4.9-1.1 1.6-1.6 1.6-1.3 0-2.4-3.7-1.5-5.1 1-1.6 3.8 1.6 3.1 3.5m27.3 2.7c0 1-.3 1.9-.8 1.9-1 0-3.2-3.7-2.5-4.3 1-1.1 3.3.6 3.3 2.4m-123.4 5.7c.1 2.1 0 2.1-1.9.9-3.1-2-3.4-3.9-.6-3.5 1.7.2 2.4 1 2.5 2.6m100 7.7c1.2 1.1 1.3 1.9.4 3.6-.7 1.1-.9 2.3-.6 2.6.8.8-1.4 3.3-2.9 3.3-1.3 0-2.9-8.5-1.9-10.1.8-1.4 3.4-1.1 5 .6M152 124.6c2 5.1 1 5.6-3.4 2.1-3.1-2.5-2.9-4.7.5-4.7 1.2 0 2.3 1 2.9 2.6m153.7 3c.3.9.1 2.5-.5 3.5-.7 1-1.2 2.8-1.2 3.9 0 1.3-.5 1.8-1.5 1.4-.8-.3-1.4-.9-1.3-1.2.1-.4-.2-2.2-.6-3.9-.4-1.8-.5-3.7-.1-4.3 1-1.6 4.5-1.2 5.2.6m53 3.8c-.9 2.2-4.7 2.1-4.7-.2 0-1 .5-2.3 1.2-3 1.6-1.6 4.3 1 3.5 3.2m14.1 2c.3 1.2-.1 1.7-1 1.4-.7-.3-1.5-1.3-1.6-2.2-.3-1.2.1-1.7 1-1.4.7.3 1.5 1.3 1.6 2.2m-13.3 5.7c.5 1.4-.1 2.7-2 4.5-3.2 3-4.4 2.5-2.1-.8.9-1.2 1.6-3 1.6-4 0-2.5 1.7-2.3 2.5.3m-100.9 12.3c-.3 1.4-1 2.6-1.6 2.6-1.5 0-2.2-4-.9-5.6 1.7-2.1 3.3-.2 2.5 3m83-3.3c.3.6-.5 2.2-1.9 3.5-1.4 1.2-2.7 2.9-3 3.6-.3 1-.8 1-1.7.2-.8-.8-.9-1.7-.2-3 .6-1.1 1.3-2.7 1.6-3.7.6-1.9 4.1-2.3 5.2-.6m-145.5 3.1c1 3.8-.7 4.5-3.7 1.7-3.3-3-3.1-5.1.3-4.7 1.9.2 2.9 1 3.4 3m-52.8 4.4c4 3.8 4.7 6.1 2 7.1-2.1.8-7.3-5.2-7.3-8.4 0-3.1.9-2.9 5.3 1.3m88.3 0c-.3.9-.6 2.4-.6 3.5 0 2.3-1.6 2.5-2.4.3-.9-2.4.3-5.4 2.1-5.4 1 0 1.3.6.9 1.6m86 .8c.6 1.5-2.4 6.5-3.8 6.6-1.1 0-1-3.8.2-6.1 1.3-2.3 2.8-2.5 3.6-.5m19.4 2.1c.9 1.1.8 2-.6 4.5-1 1.6-2.5 3-3.4 3-1.2 0-1.2-.2-.1-.9.9-.6 1-1.1.2-1.5-1.2-.8-1.5-4.9-.4-5.9 1.1-1.1 3-.8 4.3.8m-115.9 5.3c.7 3.3-.5 5.2-2.2 3.5-.5-.5-1.2-2.4-1.5-4.2-.6-2.9-.4-3.3 1.2-2.9 1.1.2 2.1 1.5 2.5 3.6m85.9 4c0 1.8-1.8 4.2-3.1 4.2-.6 0-.5-3.6 0-5.8.1-.1.8-.2 1.6-.2s1.5.8 1.5 1.8m-66.2 4.9c-.4 4.5-2.4 5.4-3.8 1.7-1.4-3.5-.6-5.4 2-5.4 1.8 0 2.1.5 1.8 3.7M321 175c0 .4-.7 1.3-1.5 2s-1.5 1.9-1.5 2.6c0 .8-.6 1.1-1.5.8-1.2-.5-1.4-1.5-.9-4.3 1-6.5 1.3-6.9 3.5-4.2 1 1.3 1.9 2.7 1.9 3.1m33.6.5c-1.2.9-1.6 2-1.2 3.1.4 1-.1 2.5-1 3.5-2.6 2.9-4.1 2.4-3.6-1.1.2-1.7.9-3 1.4-3 .6 0 .7-1.1.4-2.4-.8-3.3 2.2-5.2 4.4-3 1.3 1.4 1.3 1.7-.4 2.9m-131.6-.1c0 .8.3 2.1.6 3 .4 1 .1 1.6-.9 1.6-.8 0-1.7-.8-2.1-1.8-.3-.9-.9-2.3-1.2-3-.4-.7.2-1.2 1.5-1.2 1.2 0 2.1.6 2.1 1.4m52.9 4.5c1 .7 1.1 1.3.2 3-1.7 3.1-4.1 2.7-3.7-.7.5-3.7.8-4 3.5-2.3m-4.9 8.5c0 2.5-2.2 5.1-3.3 3.9-.9-.8-.9-4.8 0-5.6 1.4-1.5 3.3-.6 3.3 1.7m48.4.9c.8 1.2.5 2.2-1.3 4.1-2.9 3.1-5.5 2.4-4.6-1.3 1.3-5.1 3.7-6.3 5.9-2.8m-143 .9c2 2.8 2 4.8.3 4.8-2.1 0-5-3.7-4.4-5.5.9-2.1 2.3-1.9 4.1.7m-37.4 6c0 1.1-4.9.2-6.4-1.2-.5-.5-.6-1.6-.2-2.5.5-1.5.9-1.4 3.6.5 1.6 1.2 3 2.6 3 3.2m115.2-2.6c2.1 2.1 2.5 3.1 1.7 4.5-1.6 3.1-5.3 2.4-6.7-1.3-.8-2.3-.9-3.5-.1-4.5 1.5-1.8 1.9-1.7 5.1 1.3m-65 4.3c2.5 4.4 1 6.3-3 3.9-3.9-2.4-4.9-4.3-3.2-6.3 1.9-2.3 4.1-1.5 6.2 2.4m83.6-1.8c.3 1.7-2.4 5.7-3.2 4.8-.3-.3-.3-2 0-3.8.7-3.1 2.6-3.8 3.2-1m-49.3 9.4c0 2.5-4 3.3-4.9 1-.9-2.4.2-3.7 2.7-3.3 1.4.2 2.2 1 2.2 2.3m138.7 2.1c1.6 1.6 1.8 1.6 2.4 0 .7-2 5.4-2.2 5.4-.2 0 2.2-2.8 3.9-5.4 3.2-1.4-.3-2.8-.2-3.1.4-.3.5-1.5 1-2.6 1-1.3 0-1.8.4-1.3 1.2.4.7.3.8-.4.4-.8-.4-.8-1.3-.3-2.4.5-.9 1.2-2.5 1.5-3.5.7-2.1 1.4-2.1 3.8-.1m2.3 4.4c.3.5.1 1-.4 1-.6 0-1.1-.5-1.1-1 0-.6.2-1 .4-1 .3 0 .8.4 1.1 1m-16.2 1.4c.3.7-.7 2.3-2.3 3.4l-2.8 2.1.5-2.2c.9-4.1 1.2-4.7 2.7-4.7.7 0 1.6.6 1.9 1.4m-97.5 6.8c-.4 5.2-2.2 5.9-4.4 1.7-1.5-3.1-1.5-3.3.2-4.6 3.3-2.4 4.5-1.6 4.2 2.9m43 4c.7.7 1.2 1.7 1.2 2.4 0 1.4-6 7.4-7.4 7.4-2.7-.1-3.8-1.8-3.1-4.9s2.9-4.2 3.8-1.9c.2.8 1 .1 1.7-1.5 1.5-3 2-3.3 3.8-1.5M272 236.8c0 1.8-3.3 5.2-5 5.2-1 0-2.2.9-2.5 2-.4 1.1-1.5 2-2.6 2-1.6 0-2-.6-1.7-2.8.2-1.9.9-2.7 2.3-2.7 1.2 0 2.1-.8 2.4-2 .5-2.8 3.2-4.5 5.3-3.4 1 .5 1.8 1.3 1.8 1.7m-31.3 1.6c-.9 2.3-3.7 2-3.7-.3 0-2.1 2-3.3 3.4-2 .5.4.6 1.5.3 2.3m-13.1-1.3c1 1.7-2.3 4.6-3.7 3.2-.7-.7-.9-1.9-.6-2.7.7-1.8 3.3-2.1 4.3-.5m-32.4 10.4c.9 2 .9 2.8-.1 3.8-1.8 1.8-5.6-2.9-4-4.9 1.7-2 2.8-1.7 4.1 1.1m79.8 5.2c0 .4-.7 1.5-1.7 2.5-3.3 3.6-6.5 1.4-3.9-2.8 1.4-2 2-2.2 3.6-1.4 1.1.6 2 1.4 2 1.7m-34 8.7c-1.7 2.2-4 2-4-.2 0-3 2.1-4.5 3.9-2.8 1.2 1.2 1.2 1.8.1 3m35.6-1.9c.7 1.8-1.2 4.5-3.2 4.5-1.4 0-2-4.1-.7-5.3 1.1-1.2 3.3-.7 3.9.8m49.8 6.1c2.6 1 1.8 4.2-1.3 5.9-3 1.5-6.1 1.1-6.1-.8 0-1.2 4-5.7 5.1-5.7.4 0 1.4.3 2.3.6m-83.4 6.5c0 2.6-.3 3-2.2 2.7-1.7-.2-2.4-1.1-2.6-3.1-.3-2.3 0-2.7 2.2-2.7s2.6.4 2.6 3.1m13.5-1c.8 2.3-.9 4.1-3.5 3.7-.8-.2-2.1.1-2.8.6-1.8 1.1-3.5-.7-3-3 .2-1.2 1.2-1.9 2.5-1.9 1.2 0 2.5-.3 2.9-.8 1.4-1.4 3.3-.7 3.9 1.4m52-.1c0 2.1-5.1 4.8-6.6 3.3-.8-.8-.6-1.6.8-3.2 2-2.4 5.8-2.5 5.8-.1m-101.2 1c.5 2.1-1.6 4.5-3.3 3.5-1.1-.7-1.4-3.8-.3-4.8 1.3-1.3 3.1-.7 3.6 1.3m28.6 1.4c1.5 1.8.3 4.6-2 4.6-1.3 0-1.9-.7-1.9-2.3 0-3.7 1.8-4.8 3.9-2.3m77.7 8.7c1 1.7-3.3 5.6-4.7 4.2-.8-.8-.8-1.7 0-3.2 1.3-2.3 3.6-2.8 4.7-1m-54.8 5.5c-.5 2.5-3.5 4.1-4.9 2.7-.9-.9-.9-1.6.1-2.8 1.7-2.1 5.2-2 4.8.1m97.2 3.3c0 1.1-5.4 5.1-6.8 5.1-1.9 0-2.3-1.9-1-4s7.8-3 7.8-1.1m-136 6.7c0 1.6-2.6 1.9-3.5.4-.4-.6-.4-1.8-.1-2.7.5-1.2.9-1.3 2.1-.3.8.7 1.5 1.9 1.5 2.6m14-1.8c0 2.7-2.1 4.4-3.7 3.1-.9-.8-1-1.6-.2-3 1.2-2.4 3.9-2.5 3.9-.1m61.8 3.4c.2.9-.8 2.4-2.3 3.4-2.4 1.6-2.7 1.6-4.2.1s-1.5-1.8.2-3.7c2.2-2.4 5.8-2.3 6.3.2m-20.1 2.4c.7 2-2.2 4.5-4.3 3.7-1.7-.6-1.8-2.5-.2-4.1 1.7-1.7 3.8-1.5 4.5.4m-19.7 9.2c0 .5-.9 1.7-1.9 2.6-2.1 1.9-3.5.8-2.5-1.8.6-1.6 4.4-2.3 4.4-.8m21.3.6c.7 1.7-.1 2.6-2.4 2.6-2.1 0-3.3-1.5-2.4-3s4.2-1.2 4.8.4m-50.5 3.8c-.2 1.3-1 2.3-1.8 2.3s-1.6-1-1.8-2.3c-.3-1.7.2-2.2 1.8-2.2s2.1.5 1.8 2.2m86.1 2.7c1.4 2.5-1 4.5-4.4 3.7-2.9-.7-3.2-2.3-.7-4.2 2.4-1.9 4-1.7 5.1.5m-41.9 3.5c0 4.7-3.3 8.3-6.1 6.6-1.1-.7-1.1-1.2.2-2.7.9-1 1.9-2.6 2.2-3.6.8-2 3.7-2.3 3.7-.3m61.5 2.6c0 1.8-4.7 2.6-7.2 1.1-1.6-.9-1.6-1.1.7-2 3.4-1.4 6.5-.9 6.5.9m-12.7 1.9c-.2 1-1.5 1.7-3.6 1.9-3.8.4-4-.3-1-2.8 2.5-2 5-1.5 4.6.9m-15.3 3.6c3 3.1 3.2 5.5.5 5.5-1.9 0-2 .1-.5 2.4s1.5 2.5-.7 4c-1.2.9-2.8 1.6-3.4 1.6-1.9 0-2.3-2.6-.8-4.9 1.4-1.9 1.3-2.1-.5-2.1-2.5 0-3.7-1.8-2.2-3.3.6-.6 1.1-1.9 1.1-2.8 0-1.6 1.2-2.6 3.2-2.8.4-.1 1.9 1 3.3 2.4m-66.4-.5c.5 0 .9.9.9 1.9 0 2.5-3 3.6-4.8 1.7-1.9-1.8-.8-5 1.4-4.2.9.3 2 .6 2.5.6m34.7 16.6c.3 2.4-1.6 3.5-4.7 2.7-2.3-.6-2.9-3.8-.8-4.7 2.5-1 5.2-.1 5.5 2m25 6.7c.3 1.3-.4 1.7-2.7 1.7-3.4 0-4-1.4-1.3-2.9 2.2-1.3 3.6-.9 4 1.2m-76.3 2.7c0 1.8-.6 2.6-2.1 2.8-2.6.4-4-2.4-2.3-4.5 1.8-2.1 4.4-1.1 4.4 1.7m109.3 8.2c-.5 3.4-3.8 3.7-3.8.4 0-2 .5-2.6 2.1-2.6 1.5 0 2 .5 1.7 2.2m-58.1.5c.2.6-.5 1.7-1.7 2.3-2.4 1.3-5-.1-5-2.7 0-1.8 6.1-1.4 6.7.4m39.8 6.3c.5.8 1.1.8 2 0 .9-.7 1.5-.7 2.3.3 1.6 1.9.2 3.3-4 4.1-3 .6-4.1.3-5.9-1.5-1.7-1.7-1.9-2.3-.8-3 1.9-1.2 5.6-1.1 6.4.1m-85.1 1.6c2 2 2 3.3 0 4.1s-4.9-2.1-4.1-4.1 2.1-2 4.1 0"/></svg>