<svg xmlns="http://www.w3.org/2000/svg" width="682.667" height="512" version="1.0" viewBox="0 0 512 384"><path d="M0 192v192h115.6c102.2 0 115.5-.2 114.4-1.5-1.8-2.1-.5-4.5 2.4-4.5 3 0 5.1 3.1 3.4 4.8-.9.9 32.7 1.2 137.5 1.2H512V0H385.1c-126 0-126.9 0-127.4 2-.3 1.1-1.3 2-2.2 2s-1.9-.9-2.2-2c-.3-1.3-1.4-2-2.9-2-2 0-2.4.5-2.4 3.2 0 3 0 3.1-2 1.3-1.1-1-2-2.4-2-3.2C244 .2 233.7 0 184.4 0c-55.7 0-59.8.1-61 1.7-1.3 1.7-1.5 1.7-2.8 0-1.2-1.6-5.3-1.7-61-1.7H0zM167.4 7.7c1.5 2.5 2.4 4.8 2.1 5.1-.6.7-7.5-6.4-7.5-7.6 0-1.1 1.1-2.2 2.1-2.2.4 0 1.9 2.1 3.3 4.7m-24.6-.5c.7.7 1.2 2 1.2 3s.5 1.8 1 1.8c.6 0 1 .4 1 .9s-1.8 0-4-1c-3.7-1.8-4.9-3.7-3.3-5.2 1-1.1 2.8-.8 4.1.5m67.5.8c.7 2.6-.7 3.4-3.3 2-1.7-.9-1.9-1.4-.9-2.6 1.6-2 3.6-1.7 4.2.6m-48.5.6c.4.8.6 2.9.4 4.5l-.4 3-2.5-2.3c-1.3-1.2-3.4-2.3-4.6-2.3-1.3 0-2.2-.6-2.2-1.5 0-1 1-1.5 2.7-1.5 1.4 0 3-.3 3.4-.8 1.1-1.1 2.2-.8 3.2.9M190 22.1c0 1.1-.4 1.9-.9 1.9-1.6 0-3.3-3-2.7-4.6.5-1.3.9-1.4 2.1-.4.8.7 1.5 2.1 1.5 3.1m-71.6-.5c.4.9.1 2.3-.5 3.1-1.1 1.2-1.4 1.2-2.7-.1-1.7-1.7-1-4.6 1.2-4.6.7 0 1.7.7 2 1.6M315 26.5c0 .7-.3 2.1-.6 3-.6 1.4-.8 1.4-2.5-.1-2.2-2-2.5-4-.6-4.7 1.8-.6 3.7.3 3.7 1.8m-124.3.7c1.7 2.7 3 7.8 2.2 8.4-.5.3-1.9-.4-3.1-1.5-1.2-1.2-2.5-2.1-3-2.1-1.2 0-1-3.4.4-4.8 1.5-1.5 2.5-1.5 3.5 0m81.1 2c1.4 1.4 1.5 2.8.3 4.7-.8 1.2-1.3 1.1-2.9-.9-3-3.7-.6-7 2.6-3.8M150 34.6c1.2 3.2 1.2 3.4-.1 3.4-1.8 0-4.1-3-3.5-4.5.8-2.3 2.5-1.8 3.6 1.1m151.3-1.8c.3.4-.4 1.8-1.5 3.2-1.6 2-2.1 2.1-2.9.9-1-1.7-1.2-3.3-.2-4.2.9-.9 4.1-.9 4.6.1m44.1 6c.3.5-.2 1.9-1.1 3.1-2 2.9-4 1.3-2.4-1.8 1.2-2.2 2.6-2.7 3.5-1.3m-51.8 3.9c-.4 1.6-.7 3.4-.8 4-.1.7-.6 1.3-1.1 1.3s-.7-.6-.4-1.4c.3-.7.1-1.8-.5-2.4-1.4-1.4-.3-4.2 1.8-4.2 1.3 0 1.5.6 1 2.7m-217.2.5c2.3 3.2 2 4.6-.9 4.1-3-.6-4.9-2.8-4.1-4.8.8-2.2 3.2-1.8 5 .7m35.5 10.1c4.5 5.9 4.8 6.7 2.6 6.7-2.5 0-6.5-2.3-6.5-3.7 0-.8-1.2-2.4-2.7-3.7s-2.3-2.8-1.9-3.4c1.5-2.5 4.5-1 8.5 4.1m198.6-4.2c.8 1.2-1.3 6.9-2.5 6.9-1 0-2-2.6-2-5 0-2.5 3.3-3.9 4.5-1.9M159 59.2c0 .7.7 2.6 1.5 4.2 1.6 3 1.1 5.2-.8 3.6-.7-.6-2.2-1.8-3.5-2.8-2.1-1.6-2.2-1.8-.7-4 1.8-2.4 3.5-2.9 3.5-1m-14 1.7c1.4 2.7 1.3 3.1-.7 3.1-2.8 0-4.7-1.6-4-3.4.9-2.2 3.4-2 4.7.3m-34 3.7c1.3 3.4 1.3 3.4-1.3 3.4-3.3 0-6.2-2.3-5.4-4.4 1-2.7 5.6-2 6.7 1m197 1.7c0 .7-.6 2.1-1.3 3.1-1.2 1.6-1.4 1.6-2.6.2-.7-.9-1.1-2.3-.7-3.1.7-1.8 4.6-2 4.6-.2M290 74c0 2.3-1 2.6-2.8.8s-1.5-2.8.8-2.8c1.3 0 2 .7 2 2m-26.8 6.2c-.2 1.8.5 2.8 2.4 3.7 2 .9 2.5 1.6 2 3.4-.3 1.2-.6 3.4-.6 4.9 0 2.1-.5 2.8-2 2.8-1.4 0-2-.7-2-2.4 0-1.3-.7-2.9-1.5-3.6-1.7-1.4-2-4.6-.5-5.5.5-.3.7-2 .3-3.7-.5-2.4-.3-3 .8-2.6.8.3 1.3 1.6 1.1 3m-118.4 1c1.6 1.6 1.5 4.8-.1 4.8-.8 0-2.1-.8-3-1.8-1.3-1.4-1.4-2.1-.5-3 1.5-1.5 2.1-1.5 3.6 0M308 86.8c0 2.1-2.2 7.2-3.1 7.2s-2.9-4.8-2.9-7c0-1.6.7-2 3-2 2.2 0 3 .5 3 1.8m-160.3 2.4c-.3.8-.6.5-.6-.6-.1-1.1.2-1.7.5-1.3.3.3.4 1.2.1 1.9M375 91.8c0 1.6-1.8 3.7-4.5 5.4-1.4.8-1.6-4.4-.3-6 1.6-1.8 4.8-1.5 4.8.6m-69 3.6c0 .3-.4.8-1 1.1-.5.3-1 .1-1-.4 0-.6.5-1.1 1-1.1.6 0 1 .2 1 .4m83.8 2.4c.3 1.7-.2 2.2-1.7 2.2q-2.1 0-2.1-1.8c0-3.8 3.3-4.1 3.8-.4M136 104.4c1.3 1.5 2 3.2 1.7 4-.8 2-1.7 2-4.6-.3-1.7-1.3-2.2-2.3-1.6-3.9.8-2.8 1.6-2.8 4.5.2m243 .8c0 1.3-1.4 3.8-3.1 5.6-3.2 3.6-4.8 3.7-3 .4.6-1.2 1.1-2.9 1.1-3.9 0-2.2 1.8-4.3 3.7-4.3.7 0 1.3 1 1.3 2.2m-24.6 11.4c2.3.9 1.9 2.5-1.4 6.1-3.4 3.8-4.4 4.1-3.5 1.4.3-1.1.8-2.9 1-4 .7-3.9 1.4-4.5 3.9-3.5m-9.6 12.5c-2.2 4.3-5.4 5.6-3.9 1.6.6-1.4.5-3-.1-4.1s-.6-2.2.2-3.1c1-1.2 1.5-1.2 3.5.1l2.4 1.6zm-88-3.9c1.5 1.5 1.6 5.5.1 6.4s-2.8-.6-3.5-4.4c-.7-3.4 1-4.4 3.4-2m-71.9 2.1c1.9 2.4 1.8 6.1-.3 6.5-2.5.5-6.6-1.8-6.6-3.8 0-3.5 4.6-5.3 6.9-2.7m145.1 2.6c0 1-.7 2.4-1.5 3.1-1.9 1.6-1.9 2.9.2 5.2 1.4 1.6 1.4 2.2.3 4.6-.7 1.5-1.2 3.3-1.1 4.1.1.7-.4 1.1-1.1.9-1.4-.5-2.8-12.7-1.5-13.5.4-.2.7-1 .6-1.6-.4-3.3.2-4.7 2.1-4.7 1.3 0 2 .7 2 1.9m-104 2.9c0 4.8-1 6-2.6 3-.8-1.6-.9-2.8-.1-4.5 1.5-3.4 2.7-2.8 2.7 1.5m-105.8 3.7c3.4 2.9 2.9 6.1-.5 4.3-1.2-.6-2.9-1.4-3.7-1.8s-1.6-1.7-1.8-2.9c-.5-2.9 2.5-2.7 6 .4m93.7 2.9c1.7 2 1.9 7.1.3 7.1-1.9 0-4.6-4.9-3.9-6.9.8-2 2.1-2.1 3.6-.2m157.8.3c.4 1-.2 2.3-1.6 3.4-1.2 1-2.1 2.7-1.9 3.7.3 1.9-1.8 5.2-3.3 5.2-1.8 0-.2-8.7 2.4-12.8 1.2-1.7 3.6-1.5 4.4.5M132.8 144c2.4 3.9-1.1 5.5-4.2 2.1-1-1.1-1.5-2.5-1.1-3 1-1.8 3.9-1.2 5.3.9m181.9-.4c.3.9-.3 2.4-1.7 3.7-2 1.9-2.2 1.9-1.6.4.3-1 .6-2.7.6-3.8 0-2.3 1.8-2.5 2.7-.3m-75.7 6c1.3 3.8.4 5.3-3 5.4-2.3 0-4.5-5.7-3-7.5 2.2-2.7 4.8-1.8 6 2.1m-20.2 9.2c.2 1.8-.1 3.2-.8 3.2-1.3 0-3.2-4.8-2.4-6.1 1.1-1.9 2.9-.2 3.2 2.9m62.7 1.1c.8 1.4-1.5 5.8-3.1 5.8-1.4 0-2-4.7-.7-6 .9-1 3.1-.9 3.8.2m-33.1 7.1c0 3.8-.4 4.5-2.2 4.8-1.6.3-2.2-.2-2.2-1.5 0-1.1-.5-2.4-1.1-3-1.6-1.6 1.1-5.4 3.6-5.1 1.7.3 2 1 1.9 4.8m85.6-1.1c0 2.4-4.6 6.5-6.4 5.8-1.2-.5-1.2-1.1-.1-4.2.6-2.1 1.8-4.1 2.6-4.5 1.7-1.1 3.9.6 3.9 2.9m-57.4 4.6c.1 4-1.9 9.5-3.5 9.5-1 0-2.3-11.8-1.5-13.2.3-.5 1.5-.8 2.7-.6 1.7.2 2.2 1.1 2.3 4.3M162.5 172c.3.5 1.9.7 3.4.4 2.4-.5 3.3 0 5.7 3.1 3.4 4.5 2 6.1-3.3 3.4-2-1-4-1.6-4.5-1.2-1.5.9-5.8-1.8-5.8-3.7 0-2.8 3.1-4.2 4.5-2m230.5 5.5c1 1.2 1 1.8 0 3-.7.8-1.8 1.5-2.6 1.5-1.9 0-2.9-4.1-1.3-5.1 1.9-1.2 2.5-1.1 3.9.6M257.5 179c.7 1.2-1.2 5-2.5 5-.6 0-1-1.4-1-3 0-3 2.1-4.2 3.5-2m126.5.9c0 1-1.6 3.1-3.5 4.5-3.6 2.7-4.7 2.7-2-.1.8-.8 1.2-1.9.9-2.4-1-1.7.4-3.9 2.6-3.9 1.3 0 2 .7 2 1.9M120 186c0 1.3-.6 1.6-2.5 1.2-2.9-.5-3.9-1.7-3.1-3.7.7-2 5.6.2 5.6 2.5m245.4.8c.3.5-1.1 2.4-3.1 4.3-2.3 2.2-3.4 2.8-3 1.6.4-1 .7-3 .7-4.3 0-1.9.5-2.4 2.4-2.4 1.4 0 2.7.4 3 .8m-134.6 8.5c.4 2-2.5 3.4-4 1.9s-.1-4.4 1.9-4c1 .2 1.9 1.1 2.1 2.1m18.1.1c1.9 2.3 1 7-1.4 7.4-1.6.2-2.4-.6-3.3-3.3-.7-1.9-1-3.9-.7-4.5.9-1.5 4.1-1.2 5.4.4m55.8 8.7c.9.9.9 1.8-.1 3.8-2 3.7-5.4 6.7-6.6 5.5s.4-7 1.9-6.7c.6.2 1.1-.6 1.1-1.7 0-2.2 2-2.6 3.7-.9m-8.8 1.8c.8 1.5.5 2.4-1.4 4.5-3.2 3.5-3.9 3.3-3-1.1 1.1-5.9 2.5-7 4.4-3.4M276 219.5c1.4 1.6.5 5.2-1.9 7.8-5.2 5.6-5.4 5.8-6.9 4.4-1.1-1.2-1-2 .7-5.3 1.2-2.1 2.1-4.3 2.1-4.9 0-1.5 2.1-3.5 3.6-3.5.6 0 1.7.7 2.4 1.5m-26 10.9c0 1.9-1.7 2.9-3.7 2.2-1.2-.5-1.3-.9-.3-2.1 1.6-1.9 4-1.9 4-.1m-15 .9c0 1.9-2.1 3.7-4.2 3.7s-2.4-2-.6-3.8c1.6-1.6 4.8-1.5 4.8.1m-49.2.9c1.7 1.7 1.5 4.8-.2 4.8-2.7 0-4.6-1.2-4.6-2.9 0-3.2 2.6-4.1 4.8-1.9m96.6 3.4c.8 2-2.1 5.5-3.9 4.8-1-.4-1-1.2-.2-3.5 1.3-3.2 3.1-3.8 4.1-1.3m4.4 11.1c-.5 2.5-3.5 4-4.9 2.6-1-1-1-1.8-.1-3.8 1-2.2 1.5-2.4 3.3-1.5 1.1.6 1.9 1.8 1.7 2.7m61.2-1.3c0 .2.3 1.1.6 2 .8 2-7.2 7.4-8.7 5.9-.8-.8-.6-2.2.6-4.7 1.4-2.9 2.3-3.6 4.6-3.6 1.6 0 2.9.2 2.9.4M248 249c0 1.7-2.6 4-4.4 4-1.2 0-.5-3.4 1-5.1 1.9-2.1 3.4-1.6 3.4 1.1m79 3.5c1.3 1.6.6 3.5-1.5 3.5-.7 0-2.1.7-3 1.7-1.4 1.3-1.8 1.4-2.5.3-.5-.8-.4-2.3.2-3.4 2-3.8 4.7-4.6 6.8-2.1m-82.3 5.6c1.4 1.4-.4 5.9-2.3 5.9s-2.5-1.6-1.8-4.5c.7-2.7 2.3-3.2 4.1-1.4m11.3 2.3c0 2.8-1.2 4.6-3.1 4.6-2.2 0-2.6-2.9-.7-4.8 1.6-1.6 3.8-1.5 3.8.2m11 3c0 1.7-.7 2.6-2.5 3-2.9.7-4.5.1-4.5-1.8s2.2-3.6 4.7-3.6c1.8 0 2.3.6 2.3 2.4m61.3-1.1c.7 1.8-.2 3.1-3.2 4.7-2.1 1.1-2.3 1-1.8-.5.4-.9.7-2.5.7-3.6 0-2.2 3.5-2.7 4.3-.6m-122.5 2.4c.2 1.4-.3 2.3-1.7 2.8-2.8.9-4.1-.1-4.1-3.1 0-2.2.4-2.5 2.8-2.2 1.9.2 2.8.9 3 2.5m35.7.3c.9 1.5-1.4 4-3.6 4-2.5 0-3.1-1.4-1.9-4.5.8-2.2 1.3-2.4 2.9-1.5 1.1.5 2.3 1.5 2.6 2m136 4.4c0 1.9-6.9 6.6-8 5.4-.4-.4.5-2.3 2.1-4.3 2.8-3.7 5.9-4.3 5.9-1.1m-112 4.6c.9 1.5-1.4 4-3.7 4-1.4 0-1.8-.5-1.4-1.6.3-.9.6-2 .6-2.5 0-1.2 3.7-1.1 4.5.1m45.9 9.3c.9 1.5.7 2.2-1.3 3.8-2.5 2.1-5.6 2.5-6.6.9-.9-1.5 3.5-7.2 5.2-6.8.9.2 2.1 1.1 2.7 2.1m-76.4 3.8c0 2.3-2.8 2.5-3.6.4-.4-.8-.3-2.2 0-3.1.5-1.3.9-1.4 2.1-.4.8.7 1.5 2.1 1.5 3.1m-12.3 6.5c.3.8-.1 2.2-.9 3-1.2 1.2-1.6 1.2-3.3-.1-2-1.5-2-1.5-.1-3 2.5-1.9 3.5-1.9 4.3.1m65.6 1.8c.6 1.5-.6 2.9-3.5 3.9-2.1.7-3.3-2-1.7-3.9 1.5-1.8 4.5-1.8 5.2 0m-23.3 8.1c0 1.2-2.8 3.5-4.4 3.5-1.1 0-.6-2.6.6-3.8 1.7-1.7 3.8-1.5 3.8.3m27.3 4.1c-.7 1.8-5.9 1.8-6.6 0-.3-.8.4-2.1 1.6-2.9 1.9-1.3 2.4-1.3 3.9 0 .9.8 1.4 2.1 1.1 2.9m43.1 1.6c1.3 2.2.2 3.3-4.2 4.2-4.3.7-5.4-1.6-2.1-4.4 2.8-2.3 4.7-2.2 6.3.2m-101 4.4c.6 1.6-.9 4.4-2.3 4.4-.4 0-1.6-.6-2.6-1.4-1.6-1.2-1.7-1.6-.6-3 1.7-2.1 4.7-2.1 5.5 0m111.3 2.1c.4 1.2-1 2-6.4 3.7-1.7.6-2.3.3-2.3-.8 0-.9.6-1.6 1.4-1.6.7 0 1.9-.7 2.6-1.5 1.5-1.8 4.1-1.6 4.7.2m16.3 1.8c0 2.2-2.8 3.9-4.3 2.6-.8-.6-1.7-.8-2-.4-.4.3-.7-.2-.7-1.2s.3-1.5.7-1.2c.3.4 1.3-.2 2.1-1.4 1.1-1.6 1.7-1.7 2.8-.8.8.6 1.4 1.7 1.4 2.4m-75.6 2.1c.9 3.3-.8 5.4-3.7 4.6-2.7-.7-3.6-1.9-3-4.2.5-1.8 4.2-4.1 5.4-3.4.4.2 1 1.6 1.3 3m41.9 3.8c2.3 1.8 2.1 3.4-.6 4.7-1.3.6-2.7 2-3.2 3.2-1.2 2.5-7.2 4.4-8.9 2.7-1.5-1.5 3.1-9.5 6.3-10.8 3.5-1.4 4.3-1.3 6.4.2m-73.5 14.3c.4 2.5-1.6 3-4.9 1.3-3.2-1.8-2.4-4.2 1.4-3.8 2.4.2 3.3.8 3.5 2.5m34 5.5c1.8 1.8-.5 3.8-4.4 3.8-2.6 0-3.4-.4-3.4-1.8 0-1 .3-2.2.7-2.5 1.1-1.1 5.8-.8 7.1.5m35.7 5.3c0 1.6-.7 2-3.8 2.1-4.7.1-5.5-1-2-2.9 3.7-2 5.8-1.6 5.8.8m-97 11.5c0 3.5-2.9 4.8-5.4 2.6-2.5-2.3-2.6-3-.6-5 2.2-2.1 6-.6 6 2.4m139 0c1.5 1.6 1.6 2.2.5 3.5-1.7 2-4 .2-4-3.1 0-2.9 1.1-3 3.5-.4m-73.2 9c2.1 0 2.2 2.3.2 4-1.1.9-2 .8-4.5-1-3.3-2.3-3.1-4.5.4-3.6 1.1.3 2.9.6 3.9.6m57.1.6c2.7 1 2 4.4-.9 4.4-1.8 0-2.5-.5-2.5-1.8 0-2.9.9-3.6 3.4-2.6m-4.4 2.3c0 1.3-1.2 2-2.6 1.4-2-.8-1.7-1.9.6-2 1.1-.1 2 .2 2 .6m-4.2 6.5c.6 2.8-1.1 3.9-4.1 2.5-1.5-.7-2.7-1.6-2.7-2.1s-.4-.6-1-.3c-.5.3-1 0-1-.8 0-1 1.2-1.4 4.2-1.3 3.3.1 4.4.5 4.6 2"/></svg>