<svg xmlns="http://www.w3.org/2000/svg" width="682.667" height="512" version="1.0" viewBox="0 0 512 384"><path d="M0 192v192h189.3c157-.1 188.9-.3 187.5-1.4-1.7-1.2-1.7-1.4.2-3.1s2.1-1.7 4 0c1.1 1 2 2.4 2 3.2 0 1.1 11.1 1.3 64.5 1.3H512V0H387C262.7 0 262 0 262 2c0 1.1-.4 2-.9 2s-1.1-.9-1.4-2c-.5-2-1.4-2-44.6-2-24.3 0-44.1.2-44.1.4 0 .3.4 1.5.9 2.9.5 1.3.5 3 .1 3.8-1.3 2-8.5-2.3-8.4-5.1.1-2-.4-2-40-2-36.5 0-39.8.1-37.8 1.6 2.7 1.9 2.8 3 .3 3.7-2.3.6-4.1-1-4.1-3.5C82 .1 79.8 0 41 0H0zM303 4.5c0 .7 1.1 1.6 2.4 1.9s2.6 1.3 3 2.1c.7 1.9-1 6.5-2.4 6.5-3.4 0-9-9.1-6.9-11.6 1.2-1.5 3.9-.8 3.9 1.1m49 2.8c0 .7-.7 2.3-1.6 3.5-.8 1.2-1.2 2.7-.9 3.2.3.6.2 1-.4 1-1.2 0-2.6-6.4-1.6-7.9.9-1.5 4.5-1.4 4.5.2m-59.8 6.3c.8.7-1.3 7.4-2.4 7.4-.4 0-.8-.4-.8-.9s-.3-2.3-.6-4c-.6-2.6-.4-3.1 1.3-3.1 1.1 0 2.2.3 2.5.6m15.8 4c0 .2-.9.4-2.1.4-1.1 0-1.8-.4-1.4-1 .5-.8 3.5-.3 3.5.6M38.3 23c1.4 1.1 3.2 2 4.1 2s1.6.6 1.6 1.4c0 .9-1.3 1.3-4.2 1.3-5.6.1-7.8-1.2-7.8-4.2 0-3.1 2.7-3.3 6.3-.5m99.1.2c.5.9.7 2 .4 2.3-1 1-4.8-1.4-4.8-3.1 0-2 2.9-1.4 4.4.8m-60.8 5.5c1.8 1.6 3.4 3.4 3.4 4 0 .7.5 1.3 1.1 1.3s.9.7.5 1.5c-.3.8-.2 1.4.2 1.4 1.7-.3 3.2.2 3.2 1 0 1.3-7.9 1-9.1-.5-.6-.7-.8-2.2-.4-3.3.5-1.6.1-2-2.2-2.3-2.2-.2-2.9-.9-3.1-3.1-.2-1.9.1-2.7 1.3-2.7.9 0 3.2 1.2 5.1 2.7m231.9 5.5c-.4 1.8-.7 3.8-.8 4.5 0 .7-.6 1.4-1.3 1.7s-1.4-1-1.8-3.5c-.8-4.7-.2-5.9 2.6-5.9 1.8 0 2 .4 1.3 3.2M71 37c.7 1.6 1.6 2.7 2.1 2.4s.9 0 .9.6c0 .7.7 1 1.4.7q1.5-.6.9.9c-.6 1.6-3.3 1.9-3.3.3 0-.5-.4-.7-1-.4-.5.3-1 .1-1-.6 0-.9-.3-.9-1.5.1-1.7 1.4-5.1.5-5.9-1.6-.6-1.7 3.9-6.8 5.3-6 .5.3 1.4 1.9 2.1 3.6m69 6.1c0 1.3-6.2 0-7.9-1.6-1.3-1.3-1.2-1.7.3-3.4 1.8-2 1.9-2 4.7 1 1.6 1.7 2.9 3.5 2.9 4m143-5.7c0 2.5-1.2 4.6-2.6 4.6-2.4 0-2.8-3-.8-4.5 2.4-1.8 3.4-1.9 3.4-.1m19.6 5.1c.1 2.2-.4 4.3-1 4.7-.7.5-.4.8.7.8.9 0 1.7.4 1.7 1 0 2-2.7.9-3.8-1.5-.6-1.4-1.6-2.5-2.1-2.5-.6 0-1.5-.9-2.1-2.1-1.5-2.7.5-5.1 3.9-4.7 2.3.3 2.6.8 2.7 4.3m-45.2 2.1c.9.8 1.6 2.6 1.6 3.9 0 1.2.7 2.5 1.5 2.9 1.6.6 2.1 5.1.6 6-1.7 1.1-5.9-2-8-5.9-2.4-4.6-2.6-5.6-.9-7.3 1.6-1.6 3.3-1.5 5.2.4m128 2c1.4 1.4 1.4 1.8-.2 3.9-2.2 3.1-2.5 3.1-3.9-.4-.8-2.1-.8-3.2 0-4 1.5-1.5 2.3-1.4 4.1.5m-254.6 5.7c.3 1.4-.1 1.8-2 1.5-1.2-.2-2.4-1.1-2.6-2.1-.3-1.4.1-1.8 2-1.5 1.2.2 2.4 1.1 2.6 2.1M401.5 54c.9 1.5-.4 5-2 5-1.3 0-2.8-3.8-1.9-5.2.7-1.1 3.2-1 3.9.2m-283.2 8.3c-.3.4-1.6.1-2.9-.8-1.4-.9-2.9-1.3-3.4-1-1.6 1-3.3-3.4-1.9-5.1 1-1.3 1.7-.9 4.9 2.3 2.1 2.1 3.5 4.2 3.3 4.6m275.9 1.9c.4 2.7-3.3 10.8-4.7 10.4-.5-.2-.8-1-.7-1.7.2-.8.6-3 .9-4.9.2-1.9.6-4.1.9-4.8.6-2.1 3.2-1.3 3.6 1m-24.5 17.4c.7 1.9-1.6 6.4-3.4 6.4-1.4 0-1.9-6.1-.6-7.3 1.2-1.2 3.3-.7 4 .9m-18.8 3.3c1.3.8 1.3 1.6.1 5.3-2.7 8.4-4.8 8.7-4.8.6-.1-6.9 1-8.2 4.7-5.9m-232.8 5.9c3.1 2.6 2 5.5-1.8 4.6-3.7-.9-5.7-2.9-5-4.8.8-2.1 4-2 6.8.2M367 90c0 .5-.7 1-1.5 1s-1.5-.5-1.5-1c0-.6.7-1 1.5-1s1.5.4 1.5 1m-27.3 8.5c.3.9-.2 2.4-1.1 3.4s-1.6 2.4-1.6 3.3c0 1.8-3.6 5.3-4.3 4.1-.2-.4-.8-3-1.2-5.7-.5-3.6-.3-5.1.7-5.7 2.2-1.4 6.8-1 7.5.6m45.1.7c1.9 1.9-.4 4.8-3.8 4.8-3.5 0-4.1-2.4-1.2-4.6 2.1-1.7 3.5-1.7 5-.2m-131 6.1c.2 1.8-.2 2.9-1.3 3.3-2 .8-2.3.5-3.1-3.5-.6-3-.5-3.3 1.7-2.9 1.8.2 2.5 1 2.7 3.1m-35.8 4.5c0 4.8-.8 5.7-3.2 3.5-2.1-1.9-2.3-4.4-.6-6.1 2.3-2.3 3.8-1.3 3.8 2.6m162.8-.6c.2.9-.5 2.3-1.5 3.3-1.6 1.7-1.7 1.7-2.6-.3-.7-1.5-.6-2.6.3-3.7 1.5-1.8 3.4-1.5 3.8.7m-209.4 1.3c2.1 3.2 2 5.2-.3 5.8-1.9.5-8.1-2.8-8.1-4.3 0-1.1 4.1-4 5.6-4 .6 0 1.9 1.1 2.8 2.5m150 5.1c1.8.7 2.2 3.9.6 4.9-.6.4-.8 1.1-.5 1.6.4.5-.1.9-1 .9-1.2 0-1.5-.5-1.1-1.6.3-.8.2-2.4-.4-3.3-1.3-2.5-.3-3.5 2.4-2.5m-114.7 3.6c2.2 2.9 2.4 8.8.3 8.8-1.8 0-5.1-6-4.5-8 .7-2.3 2.8-2.6 4.2-.8m-114.4 3.4c2.7 1.3 3.3 2.1 2.9 4-.5 2.7-1.1 2.8-6.4 1.4-3.7-1.1-5.2-2.9-4.2-5.5.8-1.9 3.5-1.9 7.7.1m140.7 4.5c0 4.7-1.7 7.2-4 5.9-2.8-1.5-3.5-4.8-1.4-7.1 2.7-3 5.4-2.5 5.4 1.2m4.5 5.1c.3.7.6 2.2.8 3.3.1 1.1.6 2.6 1.1 3.3.9 1.5-1 4.2-2.9 4.2-1.4 0-3.5-5.1-3.5-8.6 0-2.9 3.6-4.7 4.5-2.2m-115.4 3.4c2.1 1.9 1.4 4.4-1.1 4.4-2.3 0-4.4-2.6-3.6-4.5.7-1.9 2.5-1.9 4.7.1m229.3.3c1.6 1.7 1.5 2-.9 4.2-1.3 1.3-2.5 2.9-2.5 3.6 0 1.1-3 1-4.9-.1-.5-.4-.5-1.9.1-3.9.6-1.7 1.2-3.8 1.4-4.5.5-1.8 4.9-1.4 6.8.7m-65.4 3.7c0 2.4-1.9 5.4-3.6 5.4-1.1 0-1.3-.7-.8-2.8.9-3.7 1.3-4.2 3-4.2.8 0 1.4.7 1.4 1.6m128.4 0c2 .8 2 2.8 0 4.4-1.2 1.1-1.8 1-3.1-.3s-1.4-1.9-.3-3.1c1.4-1.8 1.3-1.8 3.4-1m-199 2c.8 2.2.8 5.4-.1 5.4-1.7 0-3.2-1.7-3.8-4.3-.6-2.3-.4-2.7 1.3-2.7 1.1 0 2.3.7 2.6 1.6m190.4 2.5c.2 1.1-.8 2.3-2.7 3.2-2.8 1.4-3 1.4-3.6-1-.3-1.3-.3-2.8.1-3.4.9-1.6 5.8-.6 6.2 1.2m-124.4 4.4c.9 3.6-.3 7.7-2.2 7.3-1.8-.4-3-4.2-2.4-7.6.6-3.1 3.8-2.9 4.6.3m-131.6 6.8c2.9 3.1 3.9 8.2 1.8 9-2.4 1-4.5-.2-7.1-4.1-1.9-2.8-2.1-3.8-1.2-5.3 1.6-2.5 3.9-2.4 6.5.4m230.7-.3c.3.5-.5 2.1-1.9 3.4s-2.6 2.8-2.6 3.5c0 .6-.4 1.1-.9 1.1-1.1 0-.9-5.9.2-7.8 1-1.4 4.3-1.6 5.2-.2m-120 5.9c.8 1.4-1.6 6.2-2.9 5.8s-2-3.3-1.2-5.3c.6-1.6 3.2-1.9 4.1-.5m-16.6 12c.5.9.8 2.9.7 4.6-.1 2.4-.6 3-2.4 3.1-2.7.1-4.2-2.2-4.2-6.5 0-4.2 3.9-5 5.9-1.2m74.1 8.8c0 3.3-2.6 6.3-5.5 6.3-1.3 0-2.5.7-2.9 1.5-.3.8-1 1.5-1.6 1.5-1.5 0-.3-6 1.7-8 1.3-1.3 1.6-1.3 2.9.4 1.3 1.9 1.4 1.9 1.4-.5 0-2.7 1.8-5.1 3.2-4.3.4.3.8 1.7.8 3.1m-12.4 2.5c-.9 3.5-2.2 5.1-3.5 4.4-1.4-.9-1.4-3.7-.1-7.2 1-2.5 1.2-2.6 2.7-1.2 1 1.1 1.3 2.5.9 4m-202.8-1.6c.2 1.5-.4 2.3-1.9 2.7-3 .8-3.9.1-3.9-2.9 0-2.2.4-2.5 2.8-2.2 1.9.2 2.8.9 3 2.4m141.2 2.8c0 1.5-1.6 3-4.3 3.9-2.6 1-3.5-2.2-1.2-3.9 2.4-1.8 5.5-1.8 5.5 0m39 16.1c.7.9 1 2.5.6 4-1.3 5.2-7.4 4.2-6.7-1.1.1-1.6.5-3.2.8-3.7.7-1.2 4-.8 5.3.8m-.3 10c.7 2-2.4 5.5-4.9 5.5-2.2 0-2.3-1.3-.2-4.5 1.8-2.8 4.2-3.3 5.1-1m10.2 3.9c.8 1 .6 1.9-1 4-2 2.5-4.9 3.6-4.9 1.7 0-.4.5-2.2 1.1-4 1.2-3.3 2.9-4 4.8-1.7m76.9 4.8c.4 3.5-4 7.7-8 7.8-3.1 0-3.7-2-1.3-4 .8-.7 1.5-1.7 1.5-2.3 0-2 3.4-4.8 5.4-4.5q2.1.3 2.4 3m-191.4 2c.8 1.3.7 2.1-.2 3-1.7 1.7-4.6-.1-5-3.1-.3-1.8.1-2.2 1.9-1.9 1.2.2 2.7 1.1 3.3 2m85.4 2c-.3 2.3-3.8 3.4-5 1.5-.9-1.5 1-3.7 3.4-3.7 1.4 0 1.9.6 1.6 2.2m-19.5 1.2c.7 1.7-1.1 3.6-3.5 3.6-2.1 0-2.4-2-.6-3.8 1.6-1.6 3.5-1.5 4.1.2m55.1 2.9c.8 1.3.6 2.2-1.1 3.8-1.1 1.2-2.6 1.8-3.2 1.5-1.5-.9-1.4-4.9.1-6.4s2.8-1.1 4.2 1.1m50.1 3.2c0 1.2-1.1 2.5-2.8 3.3-1.5.7-3.3 2.8-4.1 4.6-1.6 3.9-3 5-5 3.9-1.1-.7-1-1.5.5-5.1 1-2.3 2.5-4.2 3.3-4.2.9 0 1.9-1.1 2.2-2.6.5-2 1.2-2.4 3.3-2.2 1.8.2 2.6.9 2.6 2.3m-92.7 5.9c.4 2-1.5 4.6-3.5 4.6-2.2 0-2.7-2.9-.7-5.1s3.7-2 4.2.5m143 .8c.2.9-.4 2.2-1.3 3-.9.7-2.8 2.3-4.1 3.5s-2.6 1.7-2.9 1.2c-.4-.5-.1-.9.4-.9.6 0 1.1-1.8 1.1-3.9 0-2.2.6-4.2 1.3-4.5 2.2-.9 5.2-.1 5.5 1.6m-150.4 9c.8 1.3.6 2.1-.8 3.6-1.4 1.7-1.5 2.3-.5 4 1.6 2.5-.2 5.2-3.3 5.2-1.8 0-1.9-.5-1.3-6.6.3-3.7.8-7.1 1.1-7.6.9-1.3 3.5-.6 4.8 1.4m14.6 2.9c0 2-3.5 4.3-5.1 3.4-1-.7-.3-4.2 1.4-6.3 1.3-1.6 3.7.3 3.7 2.9m16.1 2.5c1.1 1.4 1 1.9-1 3.5-2.8 2.3-5 2.4-5.8.4-.6-1.7 2.3-5.5 4.2-5.5.7 0 1.9.7 2.6 1.6m-73 4c1.7 2.1 0 4.9-3.2 4.9-2.7 0-3.7-2.8-1.9-5 1.6-1.9 3.4-1.9 5.1.1m65.9 3.7c0 4-4.4 6.5-5.7 3.2-.6-1.8 2.3-5.5 4.4-5.5.7 0 1.3 1 1.3 2.3m55.8 1.9c1.9 1.9 1.3 5.2-1.4 7.1-2.4 1.8-2.6 1.8-4.5.1-1.9-1.8-1.8-4.4.3-7.2 1.3-1.5 4-1.6 5.6 0M239 274.4c0 3.1-2.8 5.6-4.1 3.5-1.2-1.9-1.1-3.3.3-4.7 1.9-1.9 3.8-1.4 3.8 1.2m65.8 10.8c.7.7 1.2 2 1.2 3 0 2.4-4.7 3.5-6.6 1.6-1.2-1.2-1.2-1.7.3-3.6 2-2.5 3.4-2.7 5.1-1m-75.2 8.3c.4.8.1 2.2-.6 3-1.6 1.9-5 .2-5-2.5 0-2.4 4.7-2.8 5.6-.5m47.2 1.3c.2 1.6-.4 2.5-2 3.1-3.3 1.3-4.4-.3-2.4-3.4 2-3 4-2.8 4.4.3m86.2 1.5c0 1.9-.8 2.6-3.9 3.5-4.9 1.5-5.1 1.5-5.1-.5 0-2.6 3.1-5.3 6.2-5.3 2.3 0 2.8.4 2.8 2.3m-51.2 3.1c-.2 1.4-1.1 2.1-3 2.3-3.7.3-4.3-1.1-1.7-4.1 1.8-2 2.5-2.3 3.6-1.4.8.6 1.3 2.1 1.1 3.2m66.2-.4c1.3.8 1.2 1.2-.5 2.8-2.5 2.4-11.3 3.9-9.4 1.6.6-.8 1.5-1.4 2-1.4s1.8-.9 2.9-2c2.2-2.2 2.9-2.4 5-1m20.8 6c.5 3-1.9 4.5-3.5 2.3-.9-1.1-.9-2.1-.2-3.5 1.3-2.4 3.3-1.8 3.7 1.2m-41.4 7.3c2.3 3.7-2.8 7.4-10.7 7.8-2.7.2-5.1.7-5.3 1.1-.7 1.1-3.4-1-3.4-2.6 0-.7 1.5-2.7 3.3-4.4 3-2.9 3.5-3.1 4.7-1.7 1.6 2 3 1.9 6-.5 2.8-2.2 3.9-2.1 5.4.3M248 313.5c1.9 2.3.4 4.5-2.9 4.5-2.1 0-3.2-.6-3.6-2.1-1.2-3.5 4-5.4 6.5-2.4m62.8 1.2c.4 2.6-2.7 4.6-6.6 4.1-3.6-.4-4.2-4-1-5.6 3.6-1.8 7.2-1.1 7.6 1.5m-.4 21.9c.9.3 1.6 1.6 1.6 2.9 0 2.5-1.7 3.5-6.1 3.5-3.9 0-4-3.3-.1-5.3 1.5-.8 2.8-1.5 2.9-1.6s.8.2 1.7.5m46 2.3c1 1.6-.6 4.2-2.3 3.9-.9-.2-1.7-1.3-1.9-2.6-.3-1.6.2-2.2 1.7-2.2 1.1 0 2.2.4 2.5.9m-73.6 3.9c.4 1.3-1.5 4.2-2.9 4.2-.4 0-1.5-.8-2.5-1.8-1-.9-2-1.6-2.3-1.4s-.7-.3-.9-1c-.4-1.8 8-1.8 8.6 0m131 9.5c3 3.2 1.5 5.6-2.2 3.2-2.5-1.7-3.3-3.5-1.9-4.8 1.1-1.1 1.8-.8 4.1 1.6m-175.4 11.6c1.8 2 1.4 6.1-.5 6.1-2 0-5.9-3.3-5.9-4.9 0-3.6 3.7-4.2 6.4-1.2m158.4.3c1.7 1.7 1.5 3.1-.8 4.5-3.9 2.5-7-1.5-3.2-4.3 2.1-1.7 2.5-1.7 4-.2m-7.8 3.6c0 .5-.7.9-1.5.9s-1.5-.4-1.5-.9c0-.4.7-.8 1.5-.8s1.5.4 1.5.8m-63 8.1c0 2.3-2.3 3.4-3.9 1.8-1.9-1.9-1.2-3.7 1.4-3.7 1.8 0 2.5.5 2.5 1.9"/></svg>