<svg xmlns="http://www.w3.org/2000/svg" width="682.667" height="512" version="1.0" viewBox="0 0 512 384"><path d="M0 192v192l202.3-.1c146.1 0 201.6-.3 200-1.1-1.3-.6-2.3-2-2.3-3 0-1.6.6-1.9 3.3-1.6 2.7.2 3.3.8 3.5 3l.3 2.8H512V0H399.8C338 0 288 .4 288.7.8c1.5 1 1.2 6.4-.5 7-.6.2-1.2-.3-1.2-1.1s-.7-2-1.6-2.8c-1.4-1.2-1.4-1.4.2-2.6C287.1.2 262.2 0 143.7 0H0zM298.1 14.9c.1.9 0 2-.1 2.6-.1.5-.3 1.8-.5 2.8-.2.9-.6 2.1-.9 2.6-.4.5-.1 1.1.6 1.3 1.6.6.1 2.8-1.9 2.8-.9 0-1.3-.6-1-1.4s-.3-2.3-1.4-3.4c-1-1.2-1.9-3.2-1.9-4.6 0-4.5 6.8-7.1 7.1-2.7m7.9 4.6c0 2.5-.4 4.5-1 4.5-.5 0-1-.9-1-1.9 0-1.1-.4-2.3-1-2.6-1.9-1.2-1.1-4.5 1-4.5 1.7 0 2 .7 2 4.5M17.3 18c1.4 1.1 3.2 2 4.1 2s1.6.7 1.6 1.6c0 1-.5 1.4-1.5 1-.8-.3-2.6-.1-4 .4-1.8.7-2.9.5-4.6-.9-1.8-1.5-2-2.1-1-3.9 1.4-2.7 2.2-2.7 5.4-.2M131 21c0 1.3-.7 2-2 2s-2-.7-2-2 .7-2 2-2 2 .7 2 2m-73 .5c1.7.9 3 2 3 2.5q0 2.7-1.5 2.1c-.5-.2-2.2-.3-3.7-.2-1.8.1-3.1-.6-3.8-1.9-2.1-3.9.9-5.2 6-2.5m329.8-.3c1.7 1.7 1.5 4.7-.3 5.4-.8.4-1.2 1-.9 1.5 1.3 2.2-1.7.6-3.2-1.6-1.6-2.4-1.6-2.7.1-4.5 2.1-2.3 2.7-2.4 4.3-.8M275 22.4c0 .8-.3 2.2-.6 3.1-.6 1.4-.8 1.4-2.5-.1-1.4-1.3-1.6-2-.8-3.1 1.5-1.7 3.9-1.7 3.9.1m-23.2 2.9c.6.7 1.2 3.2 1.3 5.6.2 3.2-.2 4.7-1.5 5.6-1.9 1.4-5 .9-4.1-.6.3-.5-.6-1.8-2-3.1-2.9-2.5-3.1-3.5-.9-6.6 1.7-2.4 5.6-2.9 7.2-.9M48.9 27.4c1.5 2.6.1 6.6-2.3 6.6-1.9 0-3.5-4.1-2.5-6.8 1.1-2.9 3.2-2.8 4.8.2M62.1 29c2.1 1.7 2.2 2.1.9 3-3.9 2.6-8.7-.2-6-3.5 1.6-2 2.3-1.9 5.1.5m63.8 1.5c3 3.2 2.1 5.5-2.2 5.5s-6-1.6-4.5-4.4c1-2 2.7-3.6 3.8-3.6.3 0 1.6 1.2 2.9 2.5m-58.5 1.6c-.3.5-1 .7-1.5.3-.5-.3-.7-1-.3-1.5.3-.5 1-.7 1.5-.3.5.3.7 1 .3 1.5m337.6-.6c1 1.2 1 1.8 0 3-.7.8-1.8 1.5-2.5 1.5-1.9 0-3.8-2.8-3.1-4.5.7-1.9 4-1.9 5.6 0m-19 .9c0 .3-.4.8-1 1.1-.5.3-1 .1-1-.4 0-.6.5-1.1 1-1.1.6 0 1 .2 1 .4M258.8 42.8c.2 1.7-.1 3.2-.5 3.2-1.3 0-4.4-5.6-3.6-6.4 1.6-1.6 3.8.1 4.1 3.2m140-2.6c.7.7 1.2 2.1 1.2 3.2 0 2.6-3.3 9.6-4.3 9.3-.9-.3-1.9-11.6-1.1-12.9.7-1.2 2.8-1 4.2.4m-298.4 8.1c4 3.2 2.8 4.8-2.6 3.5-5.1-1.3-6.3-2.1-5.5-4.2.9-2.3 4.8-1.9 8.1.7m23.6.7c1.3.9 1.2 1.2-.4 2.5-3.6 2.8-6.5.8-3.4-2.3 1.4-1.4 1.9-1.5 3.8-.2m249.8 13.2c1.8 1.8 1.5 4.2-.8 5.6-1.8 1.1-2.1.9-3.1-1.5-1.7-4.4.9-7.1 3.9-4.1m-22.2 2.9c1 1.7-1.7 11.9-3.3 11.9-.7 0-1.3-1.1-1.3-2.5s-.5-3.4-1.2-4.5c-1-1.5-.9-2.3.6-3.9 2.1-2.3 4.1-2.7 5.2-1M372 71c0 .5-.4 1-1 1-.5 0-1-.5-1-1 0-.6.5-1 1-1 .6 0 1 .4 1 1m-36 7.5c.8.9.9 2.5.4 4.7-.4 1.8-.8 4-.8 4.8-.1 2.3-3.1 1.8-3.2-.6-.1-1.2-.4-3.4-.8-4.9-.4-1.6-.2-3.3.5-4.1 1.5-1.8 2.4-1.8 3.9.1m53.6-.4c1 1.6-1.7 5.9-3.7 5.9-1 0-2.3-.9-2.9-2.1-.9-1.7-.8-2.3.7-3.5 2.2-1.6 4.9-1.8 5.9-.3m-46.7 3.3c.9 1.1 1 2 .1 3.5-1.3 2.6-1.9 2.6-3.6.3-3-3.9.4-7.6 3.5-3.8m-236.4 4.8c1.6.7 2.5 1.9 2.5 3.5 0 2.4-.9 2.7-4.7 1.7-2.2-.6-3.2-4.2-1.6-5.7.8-.9.8-.9 3.8.5m279.3 1.9c.4 1.9-2.5 5.2-3.9 4.4-1.1-.7-1.2-4.9-.2-5.9 1.2-1.1 3.8-.2 4.1 1.5m-44.8.3c0 .3-.4.8-1 1.1-.5.3-1 .1-1-.4 0-.6.5-1.1 1-1.1.6 0 1 .2 1 .4m-90.4 5c1 5.9-1.2 7.6-3.5 2.6-1-2.4-1-3.4-.1-4.5 1.9-2.3 2.9-1.8 3.6 1.9m-39 6.1c.8 4.4.1 5.2-3.1 3.5-2.9-1.6-3.1-2.7-.8-5.2 2.3-2.6 3.1-2.3 3.9 1.7m113.8 3.7c.7 1.2.6 2.4-.4 4.2-1.7 3.2-2.4 2.6-2.7-2.5-.3-4.2 1-4.9 3.1-1.7m-162.1 1.1c2.8 2.2 2.8 2.3.9 4-1.8 1.7-2.3 1.7-5.6.3q-5.55-2.25-2.4-5.4c1.8-1.8 4-1.5 7.1 1.1m40.5 9.1c2 5.1.3 7-3.3 3.6-2.7-2.6-3.2-4.9-1.3-6.8 1.8-1.8 2.9-1.1 4.6 3.2m24.9 1.8c.4.7 1.5 3.5 2.4 6.1 1.4 4.2 1.4 5 .2 6.3-.8.8-1.7 1.4-2.1 1.4-1.5 0-5.2-7.1-5.2-9.8 0-4.2 3-6.7 4.7-4m-152.4 4.6c2.6.4 5.5 3.7 4.3 4.9-1.1 1.1-6.8 1.3-8.7.3-2.6-1.4-2.8-7.6-.1-6.5.9.4 2.9 1 4.5 1.3m283.4 1.4c.9 1 .4 2.1-1.8 4.6-2.9 3.2-4.4 3.7-7.3 2.6-1.2-.5-1.3-1.1-.6-2.4.6-1 .7-2.5.4-3.4-.4-.9.4-2 2.3-2.9 2.8-1.5 4.9-1.1 7 1.5m65.1-2c1.8 1.8 1.4 3.8-.8 3.8-2 0-4.4-3.2-3.3-4.4 1-1 2.8-.7 4.1.6m-11 4.1c1.3 1.5.6 2.7-2.4 4.4-1.8 1-2.3.8-3.4-1.2-.7-1.3-.9-2.8-.6-3.4 1-1.5 5.1-1.4 6.4.2M287.5 129c.9 1.5-.6 6-2.1 6-1.6 0-3.7-4.6-2.8-6.1.7-1.2 4.1-1.2 4.9.1m-170 5.4c2.4 1.8 1.3 4.6-1.9 4.6-3 0-4-1.3-3.1-4 .7-2.3 2.4-2.5 5-.6m95.3.8c1.4 1.4 1.6 4.4.3 5.3-1.3.8-4.1-2.3-4.1-4.6 0-2.1 2-2.5 3.8-.7m70.2 5.7c-.7 1.7-1.8 3.1-2.6 3.1-3 0-3.7-5.5-1.1-8.8.8-1 1.4-.9 3 .7 1.8 1.7 1.9 2.3.7 5m104-2.9c0 1-1.1 2.7-2.5 3.8-1.3 1.1-2.1 2.2-1.8 2.6.3.3 0 .6-.8.6-2.2 0-1.8-6.9.5-8.5 2.2-1.7 4.6-.9 4.6 1.5m-250 10.2c1.7 1.2 3 2.7 3 3.4s.8 1.5 1.8 1.8c2.6.9 4.6 4.5 3.2 6.1-1.6 2-6.4.4-6.8-2.3-.2-1.4-1.3-2.3-3.2-2.7-4.1-.9-5.6-3-4.2-6 1.4-3.1 2.5-3.1 6.2-.3m123 5.3c1.4 1.7 1 4.7-.7 5.2-1.5.5-3.5-3.1-2.7-5.1s1.8-2 3.4-.1m-18.2 12.4c.4 5.3-1.8 5.5-4.7.5-1.7-2.8-1.9-3.9-1-5.5.9-1.8 1.3-1.9 3.2-.6 1.6 1 2.3 2.6 2.5 5.6m83.1 2.5c1.2 2.1 1.1 2.8-.5 5-2.1 2.8-2.3 2.9-4.2 1.7-1.1-.6-1.1-1.7-.2-5 1.2-4.6 3-5.3 4.9-1.7m-15.3 1.2c.8 3-1.1 7.7-2.9 7.2-1.6-.6-2.1-6.6-.6-8.4 1.7-2.1 2.8-1.7 3.5 1.2m6.3 1.8c1.9 2.3-.9 7.9-3.5 6.9-1.3-.5-1.2-2.5.2-7.1.5-1.6 1.9-1.5 3.3.2m-64.4 11.1c0 1.5-.8 2.1-3.2 2.3-3.5.3-4.4-1.3-2.1-3.6 1.9-1.9 5.3-1 5.3 1.3m-155.9 1c.8 2-1.3 4.5-3.7 4.5-2.3 0-3.2-1.5-2.4-4 .8-2.4 5.3-2.8 6.1-.5m190.8 8.8c1.4 2.1-1.1 7-3.7 7.5-2.5.5-3-1.9-1.2-6.2 1.6-3.9 3.1-4.2 4.9-1.3m93.8 10.4c1.9 1.7 2.4 4.3.8 4.3-.5 0-2 1.2-3.4 2.7-2.3 2.4-2.7 2.6-5 1.4-2.1-1.2-2.4-1.9-1.9-4.5.3-1.7 1-3.7 1.6-4.4 1.4-1.7 5.7-1.5 7.9.5m-90.7 1c.4 1.2-.2 2.5-2 4-3.7 3.3-5.9 3.1-5-.4.4-1.6 1.1-3.4 1.7-4 1.5-1.9 4.5-1.6 5.3.4m8.1 1.6c.7 2-1.3 6.7-3 6.7-2.2 0-2.8-1.6-2.1-5 .7-3.2 4.1-4.3 5.1-1.7m61.2 10.9c2.2 2.2 1.4 4.8-1.8 5.9-1.6.6-3 1.5-3 2.1 0 .5-.4.7-.9.3-1.2-.7-6.1 3.8-6.1 5.5 0 1-.3 1-1.5 0-1.9-1.6-1.9-6-.1-8.6 1.3-1.6 1.8-1.7 3.6-.6 2.5 1.5 4 .8 4-1.8 0-1 .8-2.4 1.8-2.9 2.2-1.3 2.6-1.3 4 .1m-183.3 1.9c.4 1.2.2 2.6-.4 3.2-1.6 1.6-4.5-.3-4.9-3.2-.5-3 4.4-3 5.3 0m130.3 2c.2 1.9-.3 2.8-2.4 3.8-3.8 1.7-5 .1-2.9-3.8 1.9-3.8 4.9-3.8 5.3 0m-33.3-1.1c.9 1.4-1 3.6-3.6 4.3-2.5.7-3.6-1.7-1.9-3.8 1.4-1.7 4.6-2 5.5-.5m136.3 1c.1.8-.9 2.7-2.3 4.2s-2.5 3.2-2.5 3.7c0 .6-.7.8-1.5.5-1.2-.5-1.3-1-.4-2 .6-.8.9-2.4.6-3.6-.4-1.2-.1-2.8.5-3.5 1.4-1.8 5.2-1.3 5.6.7M251 223.5c0 2.2-3.8 3.9-5.6 2.4-1.1-.9-1.2-1.5-.3-2.5 1.5-1.9 5.9-1.8 5.9.1m11 8.3c0 1.1-.9 2.7-2 3.7-1.9 1.7-2.2 1.7-3.6.3s-1.4-1.8.7-3.7c2.8-2.6 4.9-2.7 4.9-.3m-11 10.6c0 1.2-.6 3.1-1.4 4.1-1.2 1.6-1.6 1.7-3 .6q-3-2.55 0-6.9c1.3-1.8 1.9-2.1 3-1.1.8.6 1.4 2.1 1.4 3.3m14.8-.2c1.7 1.7 1.5 4.8-.4 5.5-2.2.8-4.5-1.8-3.8-4.5.7-2.4 2.4-2.8 4.2-1m22 6.6c.3 1.6-.4 2.5-2.3 3.2-1.5.6-3.1.8-3.6.4-1.5-.9-1-3.6.9-5 2.4-1.9 4.6-1.3 5 1.4m-35 .4c1.8 1.8 1.4 3.6-1.2 5.3-4.4 2.9-7.5-.7-3.9-4.7 1.9-2.1 3.4-2.3 5.1-.6m84.6.4c2.4 2.4 1.7 7.4-1 7.4-.7 0-1.7.8-2.3 1.7-1 1.9-2.7 1-3.2-1.7-.3-1.7 3.1-9 4.2-9 .4 0 1.5.7 2.3 1.6m-59.4 3.9c0 1.7-.7 2.8-2.2 3.4-3.1 1.2-4.4-.3-3-3.4 1.6-3.4 5.2-3.4 5.2 0m-68.4.9c.8 2.1-1.5 5.8-3.3 5.4-2.6-.5-3.9-3.4-2.4-5.2 1.7-2 5-2.1 5.7-.2m31.9 14.5c.8 2.6-.4 5.1-2.5 5.1-2.6 0-3.2-1.4-1.9-4.4 1.4-3 3.5-3.4 4.4-.7m74.1 11.7c1.8 2.6.6 4.1-3.6 4.6-4.3.4-5.3-2.3-1.8-5.2 2.7-2.2 3.6-2.1 5.4.6m61.5 6.2c.7 1.9.4 2.4-1.9 3.3-1.5.6-3.5 1.5-4.5 2.1-1.4.7-2.2.5-3.2-.9-1.2-1.6-1.1-1.9.5-2.7 1.1-.5 2.2-1.7 2.6-2.8.8-2.7 5.4-2 6.5 1m-93.6 3.3c0 1.5-.7 2.5-1.9 2.7-2.7.6-3.8-1.9-1.9-4.1 2.1-2.3 3.8-1.7 3.8 1.4m112.8-1.5c.9 1-1.2 4.4-2.7 4.4-2.2 0-3.7-2.5-2.4-3.8s4.1-1.6 5.1-.6m-73.5 2.6c.7.7 1.2 2.2 1.2 3.4 0 1.9-.5 2.2-3.4 2.1-2.4-.1-3.6-.8-4-2-.2-.9 0-1.5.4-1.2.5.3 1.4-.4 2-1.5 1.2-2.3 2.1-2.5 3.8-.8m-87.8 3.2c0 1.4-.4 2.7-.8 3-1.6 1-5.2-.6-5.2-2.3 0-2.4.9-3.1 3.7-3.1 1.8 0 2.3.6 2.3 2.4m184.5 1.6c0 3.5-2.1 5.3-3.1 2.6-.9-2.3.5-6.8 1.9-6.3.7.2 1.2 1.9 1.2 3.7m-31.5-1c0 .5-.4 1-1 1-.5 0-1-.5-1-1 0-.6.5-1 1-1 .6 0 1 .4 1 1m-29 8.4c2.1 2.6.7 6-3.2 8.1-3 1.6-3.9 1.7-5.2.6-2.4-2-1.9-4.2 1.7-7.2 3.7-3.2 5-3.5 6.7-1.5m14 .5c2.5 4.8.5 7.2-7.3 8.6-5.1 1-5.4-1.9-.8-6.8 3.9-4.1 6.5-4.7 8.1-1.8m-49.2 7.5c-.5 3.1-6.7 4.1-9.2 1.6-1.1-1.1-1.8-2.1-1.5-2.2 4.8-3.1 6.4-3.5 8.6-2.5 1.6.7 2.3 1.8 2.1 3.1m-65 2.7c.4 3.5-2 5.3-5.5 4.2-3.5-1.2-3.7-4.3-.3-6 3.5-1.8 5.5-1.2 5.8 1.8m114.6 16.5c2.3.9 2.1 5.4-.3 5.4-2.9 0-4.6-2.6-2.9-4.4 1.6-1.8 1.3-1.7 3.2-1m-48.5 3.1c1.5 2.8-.4 5.1-4.4 5.1-2.8 0-3.5-.4-3.5-1.9 0-1 .6-1.9 1.4-1.9s1.6-.7 2-1.5c.7-2 3.3-1.9 4.5.2m-25.5 10.5c1.4 2.3-1.1 5.3-3 3.7-2.3-1.9-1.5-6.4 1-5.6.5.2 1.4 1 2 1.9m141.4-1c1.6 1.6 1.5 5.8-.1 5.8-2 0-3.7-2.2-3.7-4.7s1.9-3 3.8-1.1M424.5 359c.8 1.3-1.2 4-2.9 4-2.2 0-3.9-1.8-3.3-3.4.7-1.8 5.2-2.2 6.2-.6m-175.7 7.2c1.5 1.5 1.5 3-.1 5.1-1.1 1.7-1.5 1.7-4.5.2-3.3-1.7-3.6-2.3-2.6-4.9.7-1.9 5.5-2.1 7.2-.4m97.6 9.4c.8 2.1-.1 3.4-2.5 3.4s-3.7-2.9-1.8-4.1c2.1-1.3 3.6-1.1 4.3.7"/></svg>