<svg xmlns="http://www.w3.org/2000/svg" width="682.667" height="512" version="1.0" viewBox="0 0 512 384"><path d="M0 80.3v80.3l3.4-.4c2.6-.3 3.7.1 4.9 1.9 2.3 3.2 1.1 4.2-3.9 3.6l-4.4-.5V384h159.3l159.2-.1-4.5-2.2c-4.8-2.3-6-5.2-2.3-5.2 1.2 0 2.5-.4 2.9-.7 2.2-2.2 7.1 4.5 5.2 7-.8.9 18.4 1.2 95.6 1.2H512V0h-33.3c-31 0-33.4.1-34.7 1.8-2.7 3.3-4.1 6.2-3 6.2.5 0 1 .7 1 1.5s-.9 1.5-1.9 1.5c-1.3 0-2.1-.9-2.6-2.9-.3-1.6-1.3-3.2-2.1-3.5S434 3.1 434 2V0H0zM342.9 5.1c1.2 3.6.2 6.4-2.8 7.2-2.5.6-3.6-.7-4.6-5.2-.8-3.7.3-5.1 4.2-5.1 1.5 0 2.4.9 3.2 3.1m-114.1.5c2.6 1.8 2 3.4-1.2 3.4-3.1 0-5-2.2-3.4-3.8 1.5-1.5 1.9-1.5 4.6.4M46 8c0 .6-.7 1.3-1.5 1.6-2 .8-4.8-.3-4-1.6S46 6.7 46 8m382.8 0c.4 0 1.5.7 2.6 1.5 1.8 1.3 1.8 1.5-.3 4.1-1.6 2.1-1.9 3-.9 4.1.8 1 .8 1.7.1 2.4-1.5 1.5-5.8.7-5.8-1.1.1-.8-1-2.9-2.2-4.7-1.3-1.7-2.3-3.4-2.3-3.7 0-1 5.5-3.5 6.8-3.1.8.3 1.7.5 2 .5M28.4 11.6c1.9 1.8 1.2 3.4-1.4 3.4-2.2 0-3.4-1.5-2.6-3.5.7-1.9 2.1-1.9 4 .1m363.8 27.5c2 1.1 2 1.1-.3 2.7-1.9 1.3-2 1.6-.6 2.1 1.6.6 1.6.9-.2 4.1-1.5 2.8-2.4 3.5-4.6 3.3-3.5-.3-4.1-.9-2.6-2.7.7-.8 1-2 .6-2.6-.3-.5 0-1 .7-1.1 1 0 1-.2.1-.6-.7-.2-1.3-1.1-1.3-1.9s-.4-1.4-1-1.4c-.5 0-1-.7-1-1.5 0-1.8 7-2.1 10.2-.4m-339 2.6c2 1.7 2.3 4.9.8 7.3-.7 1.2-1.2.7-2.5-2.2-2.5-6.2-1.9-8.4 1.7-5.1m57.8 3c0 3.3-.2 3.6-1.5 2.3-.8-.9-1.2-2.4-.9-3.8 1-3.5 2.4-2.6 2.4 1.5m210.2 0c2.2 2 2.4 5.3.3 5.3-1.8 0-6.5-4.3-6.5-6 0-1.6 4.1-1.2 6.2.7m69.2 8.8c-.7 1.6-2.4 2.1-2.4.6 0-.8.7-1.3 2.7-2 .1-.1 0 .6-.3 1.4M19.2 59.6c1 .9-3.6 7.3-5.3 7.4-2.7 0-4.4-2.7-2.9-4.5.7-.8 1.9-1.5 2.6-1.5.8 0 1.4-.5 1.4-1 0-1.1 3.3-1.4 4.2-.4m200 5.8c2.3 3.4-1.6 5.1-4.6 2-1.7-1.7-2-2.7-.9-3.7.9-.9 4.6.2 5.5 1.7m-47.7 10.8c2.7.5 5.3 5.3 4 7.4-1.4 2.3-5.8 2.6-10 .8-4.1-1.7-4.2-2.2-1.4-7.5 1.8-3.7 2.2-4 3.7-2.6.9.8 2.6 1.7 3.7 1.9M102.3 79c-.2 3.8-.9 4.8-2.4 3.3-1.4-1.4-.1-7.5 1.4-7 .7.2 1.1 1.9 1 3.7m182.1 11.9c1.9 1.9 1.6 5.8-.4 4.6-.5-.3-1.8 0-2.9.6-1.5 1-2.4.9-4.5-.4-2.9-1.9-3.1-2.9-1.5-5.9.9-1.6 1.7-1.9 4.2-1.4 1.8.4 4 1.5 5.1 2.5M204 95c0 4-1.9 5.7-3.9 3.7-2.3-2.3-.3-9.1 2.4-8.1 1 .4 1.5 2 1.5 4.4m-23.5-1.5c1.7 1.6 2.5 3.5 2.5 5.8 0 4.5-.7 5-4.1 2.5-2.4-1.8-4.9-6.9-4.9-10.1 0-1.6 4.3-.5 6.5 1.8m107.3 6.8c.2 1.5-.1 2.7-.5 2.7-1.5 0-3.3-2.3-3.3-4.3 0-3 3.4-1.6 3.8 1.6m111.1.7c2.9 1.4 4 2.7 4.5 5.1 1 5.3.7 8.5-1.1 10.1-1.5 1.3-2.3 1.3-4.9.2-3.1-1.3-7.4-7.1-7.4-10.1 0-1.5 3.7-7.3 4.6-7.3.3 0 2.2.9 4.3 2m-275 1.9c2.8 1.8-4 9.1-8.5 9.1-3.4 0-3-2.6 1-6.6 3.5-3.5 5.1-4 7.5-2.5m220.4 2.4c1.6 2.1 1.8 3.2 1.1 5.9l-.9 3.2-2.3-2.4c-1.5-1.6-2.2-3.6-2.2-6.3 0-4.4 1.3-4.5 4.3-.4m-280.7 2.8c.3.5.2 2.4-.2 4.4-.5 3-1 3.5-3.3 3.5-5.1 0-6.9-4.7-2.9-7.9 2.1-1.8 5.3-1.7 6.4 0m250.6 3.6c2.3 2 2.5 6.5.3 5.6-1.4-.5-4.5-5.2-4.5-6.8 0-1.1 2.4-.4 4.2 1.2m12.1 1c2.7 3.2-.1 9.8-3.4 7.7-.5-.3-.9-2.2-.9-4.3 0-5.4 1.4-6.5 4.3-3.4m92.2 6c.3 2.1.9 4.8 1.2 6 .4 1.8.1 2.3-1.6 2.3-1.6 0-2.1-.6-2.1-2.4 0-1.4-.4-2.8-1-3.1-1.4-.8-1.3-4.8.2-6.3 1.6-1.6 2.5-.7 3.3 3.5m-215.7 7.9c1.2.8 2.2 1.9 2.2 2.5 0 1.3-4.2 1-6.2-.5-4.1-3.1-.3-5 4-2m19 .4c.8 0 3.2 7.2 2.7 8-1 1.6-7.1 1.1-9.4-.8-1.1-.9-2.4-3.1-2.7-4.9-.7-3.6 1-4.5 6.1-3.1 1.6.4 3.1.8 3.3.8m36.2 3.5c0 2.9-1 3.8-2.7 2.4-1.4-1.2-1.8-5.1-.6-6.2 1.1-1.1 3.3 1.4 3.3 3.8m143.8 11.7c.4 3.6-2.4 8.8-4.7 8.8-3.1 0-3.1-1.5-.5-10.8.2-.7 1.4-1.2 2.6-1 1.6.2 2.4 1.1 2.6 3m-40.4 3c1.7 2.4 2.2 10.3.7 11.3-1.5.9-5.1-4.5-5.1-7.6 0-3.3.9-5.9 2.1-5.9.4 0 1.5 1 2.3 2.2m-73.3 5.8c2.2 1.3 2.5 5.2.4 7s-4.8.8-5.9-2.1c-1.7-5 .9-7.3 5.5-4.9m-210.7 7.3c-2 3.6-5.7 7.7-6.8 7.7-.8 0-1.9-.7-2.6-1.5-1.5-1.8 1.2-6.8 4.4-8.3 2.5-1.1 6 .3 5 2.1m232 .9c1.3 3.1 1.3 3.4-1.1 5.5-1.3 1.3-3.7 2.3-5.4 2.3-3.2 0-3.7-1.1-1.4-3 .8-.7 1.5-2.8 1.5-4.6 0-3 .3-3.4 2.5-3.4 1.9 0 2.9.8 3.9 3.2M7 158c0 .5-.4 1-.9 1-.6 0-1.3-.5-1.6-1-.3-.6.1-1 .9-1 .9 0 1.6.4 1.6 1m109.4 1.4c1.8 2.8 1.6 9.7-.4 12.1-1.8 2.1-4.7 1.9-6-.5-1.2-2.2-.5-6 1.1-6 .5 0 .7-1.1.3-2.5-1.3-5.3 2.1-7.5 5-3.1m195.1 9.3c-.9 3.8-3.4 7.5-4.5 6.8-1.6-1-1.1-4.1 1.1-6.9 2.7-3.4 4.3-3.4 3.4.1m21.7 4.2c.4.3 1 1.8 1.3 3.3.6 2.4.3 2.8-2 3.4-3.6.9-5.4-1.2-4.8-5.4.5-2.8.9-3.2 2.7-2.6 1.1.3 2.4.9 2.8 1.3m39.8 8.3c2.5 4.1 2.5 5.7.1 8.5-4 4.8-9.1.9-9.1-6.9V178h3.5c2.9 0 3.9.6 5.5 3.2m-55.1 17.2c1.7 1.8 2.2 3.2 1.7 5-.5 2.1-1 2.3-3.3 1.7-3.8-1-5-3.4-3.3-6.5 1.7-3.2 2.1-3.2 4.9-.2m-28.6 10.9c.9 2 2.2 3.7 2.8 3.7.8 0 .8.5-.1 1.5-.7.8-2.7 1.5-4.4 1.5-3.1 0-3.2-.1-3.4-4.6-.3-7.6 2-8.5 5.1-2.1m192.4 2.2c.9 3-11.3 12.3-13.4 10.2-.9-.9 4.9-9.5 7.2-10.6 2.4-1.2 5.7-1 6.2.4m-148.1 8c2.1 3.2.5 5.5-3.7 5.5-3.6 0-4.9-3.3-2.3-6.1 2.3-2.6 4-2.4 6 .6m-51.3 2.3c.9.8 1.7 2.1 1.7 2.9 0 2.1-3.5 1.5-5.9-1.1-3.9-4.2-.4-5.7 4.2-1.8m16.2-1.2c2 1.5 2 1.5-.4 3.5-2.8 2.3-5.4 2.4-7.2.3-1.1-1.4-1-1.9 1-3.5 2.8-2.3 4-2.3 6.6-.3m143.3.6c.3 1.7-6.1 8.8-7.9 8.8-.4 0-1.5.3-2.4.6-1.3.5-1.5.2-.9-2.2.4-1.6 1.6-4.3 2.7-6.2 1.6-2.8 2.5-3.3 5.1-3 2 .2 3.2.9 3.4 2m-265 .4c3.6 2.5 2.8 4.6-1.4 4.2-4.3-.3-6.9-3.2-4.4-4.8 2.1-1.3 3.2-1.2 5.8.6m86.2 1.9c1.8 2.2 1.8 7.9-.1 8.3-2 .4-4.1-4.2-3.3-7.4.7-2.8 1.6-3 3.4-.9m-186 5c0 .8.5 2.4 1.2 3.4 1.7 2.8-.6 5.5-3.4 4-1.4-.8-1.9-1.9-1.7-4.2.2-1.8.5-3.5.7-4 .6-1.3 3.2-.7 3.2.8m203.5 3.5c1.2 1.9-1.6 4-5.1 4-3.9 0-4.3-1.2-1.2-3.4 2.6-1.8 5.4-2.1 6.3-.6m131.9 6.5c.9 1.3 1.6 3.4 1.6 4.7 0 2.7-4.8 9.8-6.6 9.8-1.7 0-3.4-3.1-3.4-6.1 0-2.5 4.6-10.9 5.9-10.9.5 0 1.6 1.1 2.5 2.5m34.5 1.2c1.2 1 3 3.4 4 5.3 1.1 2.2 2.9 3.8 4.7 4.4 7.2 2.1 7.1 2.1 4.1 4.1-2.5 1.6-2.9 1.6-4.5.2-3.6-3.2-9.1-5.6-11.9-5.1-2.1.3-2.4.2-1.3-.5 1-.7 1.4-2.5 1.3-5.6-.2-4.9.4-5.4 3.6-2.8m-81.1 7.5c1.8 1.8 1.5 2.8-.8 2.8-1.1 0-2 .5-2 1.1s-.9.8-2.2.3c-3.1-.9-3.1-.9-1.8-3.3 1.2-2.3 4.9-2.8 6.8-.9m-104.3 8.3c0 2.5-3.7 3.2-5.4 1.1-1.8-2.1-.4-3.8 2.7-3.4 1.9.2 2.7.9 2.7 2.3m-25.6-.3c1.8 1.1 1.8 1.4.5 4-1.6 3-4.9 3.7-8.5 1.8-2.3-1.3-2.4-2.8-.2-5.2 1.9-2.1 5.5-2.3 8.2-.6m153.7 5.5c.8 3.1.1 3.7-2.4 2.2-3.1-1.9-4-4.1-3-6.9l.9-2.5 2 2.4c1.1 1.3 2.2 3.4 2.5 4.8m-67.4 2q3.75 3.3-.6 3.3c-2.6 0-5.1-2.4-4.1-4 .9-1.5 2.6-1.2 4.7.7m81.1 12c.7 3.7.1 4.1-3.2 2.2-2.2-1.3-2.9-1.3-3.9-.2-1.7 1.7-2.8 1.7-3.6-.2-.4-1 .1-1.5 1.4-1.5 1.8 0 2.5-1.1 2.1-3.4-.1-.5 0-1.5.3-2.3.9-2.2 6.2 2 6.9 5.4m67.2-2.3c2.7 1.9 1.2 4.3-3.5 5.6-6.1 1.6-8.1-.9-4-5 2.3-2.3 4.9-2.5 7.5-.6m-8.9 8.3c-.7.7-2.6-.7-2.6-1.9 0-.6.6-.6 1.5.2.9.7 1.3 1.5 1.1 1.7m-62.6 1.5c0 1-4.4 1.1-5.3.1-.4-.3-.2-1.2.4-1.9.8-1 1.5-1.1 3-.1 1 .6 1.9 1.5 1.9 1.9m2.4 18c1.7 2.7-.4 5.2-4.7 5.5-4.8.4-5.3-1-2-4.6 3-3.4 5-3.6 6.7-.9m-118.6 1.1c1.3 1.1 1.7 5.7.4 5.7-.5 0-2.3-.7-4-1.6-3-1.4-4-3.3-2.6-4.7.9-.8 4.7-.5 6.2.6m45.8 5.4c1.9 2.5 1.7 4-.6 7.3l-2 2.8-4-1.9c-4.4-2.1-5.3-5.1-2.1-6.8 1-.6 2.1-.8 2.3-.5.3.2 1.1-.2 1.8-1.1 1.6-2 3-1.9 4.6.2m79.2 23.9c2.2 1.5 3.2 7.4 1.3 7.4-1.5 0-5.1-5.1-5.1-7.1 0-2.3.9-2.4 3.8-.3m64 26.7c.2 1.5-.1 2.7-.7 2.7-1.4 0-4.1-4.1-3.5-5.2 1.2-1.8 3.9-.2 4.2 2.5M434 367.9c0 3.7-2.2 7.2-3.4 5.3-.3-.5-1.7-.7-3.1-.4-2.8.5-3.1-.4-1-3.2 1.1-1.5 1.5-1.6 1.6-.5 0 1.2.2 1.1.6-.1.7-2 3.4-5 4.5-5 .4 0 .8 1.7.8 3.9m58.1 7.1c2.1 1.2 2.5 4 .7 5.8-1.4 1.4-3.7-1.3-3.8-4.6 0-2.5.3-2.6 3.1-1.2"/></svg>