<svg xmlns="http://www.w3.org/2000/svg" width="682.667" height="512" version="1.0" viewBox="0 0 512 384"><path d="M0 38.5C0 75.5.1 77 1.9 77c2.8 0 4.7 2.6 3.1 4.5-.7.8-2.1 1.5-3.1 1.5C.1 83 0 84.7 0 132.3c0 37 .3 49.6 1.2 50.5s.9 1.5 0 2.4S0 209.7 0 285.2V384h328l-.6-2.7c-.3-1.6-.2-2.4.3-1.8 1.2 1.5 4.3 1.5 4.3-.1 0-1.7 3.2-1.8 4.8-.2.7.7 1.2 2 1.2 3 0 1.7 3.9 1.8 87 1.8h87V0h-87.8c-67 0-88.1.3-89 1.2s-1.5.9-2.4 0C331-.6 62.8-.5 60 1.2c-1.5 1-2.6 1-5.3 0C52.8.5 46.2 0 39.1 0 27.8 0 27 .1 27.8 1.7c.5 1 .7 3 .6 4.5-.2 1.6.3 2.9 1.2 3.2 1.6.6 2 6.6.4 6.6-.5 0-1.2-1.1-1.6-2.5-.4-1.5-1.9-3.1-4-4.1-2.5-1.2-3.4-2.3-3.4-4 0-1.4.7-2.7 1.5-3C26.2.9 21.9 0 11.4 0H0zM221.8 6.2c.4 2.1-3.9 3.1-5.7 1.3-1.1-1.1-1.2-1.7-.2-2.9 1.5-1.8 5.4-.7 5.9 1.6M69.6 5.4c1 .8 1.6 1.8 1.2 2.2-1 .9-5.8-1.2-5.8-2.6s2.3-1.2 4.6.4m327.3 17.5c2.1 1.3-5.2 8.1-7.9 7.4-1.3-.4-2 0-2 .9 0 .8-.9 2.4-2 3.6-2.4 2.6-2.6 3.6-.4 2.8 1.4-.6 1.5-.4.4.9-1.2 1.5-1.4 1.5-2.3 0-.6-1.2-1.6-1.5-3.9-1-2.8.7-2.9.6-1.8-1.4 1.3-2.5 8.2-7.1 10.5-7.1 1.4 0 1.3-.5-.4-2.9-1.6-2.2-1.8-3.1-.9-3.4 2.2-.9 9.2-.7 10.7.2M32.5 24c.8 1.3-2 2.4-4.1 1.6-2-.8-.9-2.6 1.6-2.6 1 0 2.2.5 2.5 1m-13.1 4.7c.4.9.2 2.1-.3 2.6-1.5 1.5-4.6.3-4.9-2.1-.3-1.8.1-2.2 2.1-2.2 1.4 0 2.8.7 3.1 1.7m298.4 8.9c1.2.8 2.2 2.1 2.2 2.8 0 1-.7 1.2-2.2.9-2.5-.6-6.8-4.1-6.8-5.5 0-1.1 3.7-.1 6.8 1.8M110.6 57.7c-1.4 1.4-2.7-1.5-2-4.3l.8-2.9.9 3.3c.6 1.8.7 3.5.3 3.9m-69.1.4c1.1 2 1.3 3.5.7 4.6-.8 1.4-1.2 1.2-2.6-1.5-1.8-3.4-2.2-7.7-.6-6.7.6.3 1.7 2 2.5 3.6m169.8 11c-.6.6-2.3.9-3.9.7-2.2-.2-3-.9-3.2-2.7-.3-2 0-2.3 1.7-1.8 1.2.3 2.1 0 2.1-.6s1-.1 2.2 1.1c1.6 1.6 1.9 2.5 1.1 3.3M5.5 75c.3.5.1 1-.4 1-.6 0-1.1-.5-1.1-1 0-.6.2-1 .4-1 .3 0 .8.4 1.1 1m146.1 2.1c.3.6 1.5.8 2.6.5 2.5-.6 7.8 3.1 7.8 5.4 0 1.9-2.2 4.1-5.9 6-2.1 1.1-2.6 1-4.3-1.1-4.5-5.7-4.9-6.5-3.9-9.3 1.1-2.7 2.5-3.3 3.7-1.5m241.5 5.1c2.4 1.3 4.2 3.2 4.6 4.8 1.2 4.2.9 10.6-.5 12.3-1.2 1.4-1.6 1.4-5.1-.1-6.2-2.7-9.1-12.9-5-17.9 1.5-1.7 1.4-1.7 6 .9m-111.3 4c2.9 2.8 3.1 6.4.3 4.8-1.3-.7-2.2-.7-2.6 0-.9 1.4-5.8 1.3-7.3-.2-1.7-1.7-1.5-3.8.5-6 2.1-2.3 5.7-1.7 9.1 1.4m-180.3 4.4c.7 4.2-.8 6.7-2.3 3.7-1.1-1.9-.5-7.3.8-7.3.4 0 1.1 1.6 1.5 3.6m98.5 6.5c0 1.5-.6 3.2-1.4 3.8-1.1 1-1.7.7-3-1.1-2.1-2.9-2-3.4.5-5.9s3.9-1.3 3.9 3.2m146.1-3c1.4 1.4 1.9 3 1.7 5.1-.6 6.3-4.2 3.8-5.4-3.6-.6-4.1.6-4.6 3.7-1.5m-59.7.5c.9.8 1.6 2.2 1.6 3.1 0 1.4-.2 1.4-2.2.1-2.4-1.6-3.7-4.8-1.9-4.8.5 0 1.7.7 2.5 1.6M175.7 97c5.5 5.2 5.6 11.2.2 9.1-3.5-1.3-5-3.4-5.6-8.1-.7-5 .8-5.3 5.4-1m238.7 2.2c2.1 3 2.1 9.8.1 9.8-.9 0-1.9-.8-2.2-1.8-.4-.9-1.2-2.1-2-2.5-1.6-1-1.7-4.9-.1-6.5 1.7-1.7 2.5-1.5 4.2 1m-102.5 5.4c2.4 3.1 2.7 5.4.7 5.4-1.8 0-3.3-1.9-4.1-5.3-.9-3.5.7-3.5 3.4-.1m14.1-.7c1.5 2.8 1.2 5.7-.6 7.6-2.2 2.2-3.7 1.5-4.7-2.4-.6-2.6-.4-3.7.9-5.2 2.2-2.4 3.1-2.4 4.4 0m-210 7.7c0 2.7-4.2 9.3-6.3 10-3.3 1-4-1-1.7-5.2 1.2-2.1 2.7-4.5 3.2-5.2 1.5-1.8 4.8-1.5 4.8.4m-59.4 11.9c.1 1.6.5 3.8.9 4.7.6 1.5.2 1.8-2.7 1.8-4 0-5.8-1.5-5.8-4.8 0-2.9 2.7-5.3 5.5-4.9 1.5.1 2 1 2.1 3.2m158 3c3.9 1.6 7 7.1 5.2 9.2-1.6 2-7.2 1.5-10.2-.8-3.1-2.4-3.6-7.2-.8-8.8 2.2-1.3 1.7-1.3 5.8.4m190.7.6c1 1.6.5 5.3-1.2 7.8-1.7 2.7-4.1-.6-4.1-5.6 0-4 .2-4.4 2.1-4.1 1.2.2 2.6 1 3.2 1.9m-149.7.3c.3.8.4 2.7.2 4.3l-.3 2.8-1.8-2.6c-.9-1.4-1.5-3.4-1.1-4.3.8-2 2.3-2.1 3-.2m-53.5 2.6c1 .6 1.9 1.7 1.9 2.5 0 2-6.3 2-8 0-2.4-2.9 1.8-4.7 6.1-2.5m157.9 5.2c2.8 3.1 2.5 9.5-.5 9-2.8-.4-5.5-3.9-5.5-7.1 0-4.7 2.6-5.5 6-1.9m-75.6 13c2.1 3 2 5.5-.4 6.8-1.5.8-2.3.6-4-1.2-2.3-2.5-2.4-3.1-.8-5.8 1.7-2.6 3.3-2.5 5.2.2m22.6 3.9c1.5 2.7.9 6.3-1.1 6.7-1.7.3-3.9-3.6-3.9-6.8 0-2.7 3.6-2.6 5 .1m18 5.9c0 1.2-3.8 3.7-7 4.5-1.7.4-3 1.9-4.2 4.5-1.8 4.3-3.8 5.3-3.8 2 0-3.6 2.9-7.9 6.8-9.9 4-2.2 8.2-2.7 8.2-1.1m11.8 9c3.9 2.4 4.1 3.7.5 4.6-2 .6-3.1.2-4.5-1.6-3.8-4.7-1.6-6.4 4-3m36.8.2c1 1.3 2.4 3.3 3.1 4.4 2.9 5.3-2.7 9.6-7.1 5.5-2.8-2.7-4.4-10-2.4-11.3 2.2-1.4 4.4-.9 6.4 1.4m-307.1.5c1 1.3.9 2.4-.3 5.5-1.8 4.6-4.6 6.5-6.8 4.7-2-1.7-1.8-3.1 1.6-7.7 3.4-4.7 3.8-4.9 5.5-2.5m55.3 5.7c-.3 2.2-2.5 3.1-4.6 1.8-1.8-1.2-2.5-6.1-1-7.9 1.1-1.3 1.5-1.2 3.6 1.2 1.3 1.5 2.2 3.7 2 4.9m-10.7.6c4.3 2.4.7 11-4 9.5-3.5-1.1-4.6-4.3-2.4-6.8 3.3-3.9 3.7-4.1 6.4-2.7m215.7 20.2c1.1 1.3 2.4 3.6 2.8 5.2.6 2.7.5 2.9-1.7 2.3-1.3-.4-2.9-.7-3.6-.7-2.3 0-3.6-4-2.2-6.6 1.5-3 2-3 4.7-.2m169.2-1.3c0 1.5-8.3 11.1-9.6 11.1-3.7 0-4.2-1-2.3-4.6 3-6 3.6-6.4 10.7-7.3.6 0 1.2.3 1.2.8m-200.7 14.3c.8 2.1-1.2 2.4-3.5.5-2.1-1.7-2.9-4.2-1.6-5.5 1.1-1.1 3.8 1.5 5.1 5m155.7-.1c0 2.5-7 9.9-9.4 9.9-2 0-2.1-2.8 0-6.8 1.7-3.6 3.9-5.1 7.2-5.2 1.6 0 2.2.6 2.2 2.1m-149.5 6.4c0 .5-1.9 1.1-4.2 1.3-4 .3-5.8-1-3-2.2 2-.8 7.2-.2 7.2.9m41 1.8c2 2.9 1.9 4.4-.6 5.2-2.8.9-6.6-.2-7.3-2.1-.4-.9 0-2.7.8-4 1.8-2.6 4.9-2.3 7.1.9m-41.4 2.8c3 1.6.6 3.9-4.1 3.9-4.6 0-5.5-.8-3.3-3.2 1.8-2 4.5-2.3 7.4-.7m-15.7 2c3.1 2.4 3.3 3.9.7 3.9-2.3 0-7.3-3.9-6.6-5.1 1-1.5 3-1 5.9 1.2m-18.5 5c1.5 4.5 1.4 7.9-.4 7.9-1.9 0-3.5-3.1-3.5-6.8 0-5.1 2.3-5.7 3.9-1.1m155 4.4c0 1.1-1.3 4-2.8 6.5-3.2 5.2-6 5.9-7.4 1.7-.7-2.2-.3-4 2.3-9.5l3.2-6.7 2.4 3c1.3 1.6 2.4 3.9 2.3 5m41.7 1.7c2.7 5.3 3 7 1.2 6.3-.7-.3-2.8-.7-4.6-.9-2.5-.3-3.2 0-2.8 1 .3.8.1 1.4-.4 1.4-.6 0-1-.6-1-1.4s-.5-1.6-1.1-1.8c-.8-.3-.7-1.8.4-5 .9-2.5 1.3-5.6 1-6.9l-.6-2.4 2.8 2.5c1.5 1.4 3.8 4.6 5.1 7.2M183 229.5l2.3 2.4-2.8.7c-2.9.7-7.8-2-8.3-4.8-.4-2.3 6.3-1 8.8 1.7m103 1.8c0 2-2.2 3.7-4.7 3.7s-3-1.9-1.1-3.8c1.6-1.6 5.8-1.5 5.8.1m189.5 4.7c2.3.9 2.5 1.3 1.5 2.5-.7.8-2.3 1.5-3.6 1.5-1.2 0-2.6.4-2.9 1-1.1 1.8-2.3 1.1-2.8-1.7-.8-4.1 2.3-5.4 7.8-3.3m-100.4 4.6c1 1.3 1 1.7-.2 2.5-1.5.9-3.5 1.3-5.9.9-2.4-.3-2.5-.8-.5-3 2.2-2.4 4.8-2.6 6.6-.4M78 246.1c0 1 .4 1.9.9 1.9 1.7 0 2.2 3.4.6 4.9-1.4 1.4-1.7 1.3-3.6-.6-1.4-1.4-1.8-2.6-1.3-3.4s.7-2.4.5-3.6c-.2-1.7.1-2.1 1.3-1.7.9.3 1.6 1.5 1.6 2.5m390.7-2.5c-.3.3-1.2.4-1.9.1-.8-.3-.5-.6.6-.6 1.1-.1 1.7.2 1.3.5m-67.3 8.5c2.8 4.7 1.5 5.4-2.8 1.4-3.1-2.9-3.8-7.2-.7-5.3 1 .6 2.6 2.4 3.5 3.9m-136.3 2.8c1.9 1.5 2.1 2.2 1.2 3.2-2.4 2.4-8.5-1.3-6.7-4.2.9-1.4 3-1.1 5.5 1m221.9 2.9c2.8 2.3 2.1 3.7-2.6 5.2-4.2 1.4-7.2.7-5.5-1.4.6-.7.8-1.6.4-1.9-.9-1 1.7-3.7 3.7-3.7 1 0 2.8.8 4 1.8m-245.5.4c2.9 1.3 3.2 3.4.8 6-1.8 2-4.5 2.3-7.4.8-2.3-1.3-2.4-3.7-.2-6.2 1.9-2.1 3.3-2.2 6.8-.6m86.6.8c2.8 1.6 2.3 3.2-.8 2.8-1.7-.2-2.9-1-3.1-2.1-.4-1.9 1-2.2 3.9-.7m89.7 4.4c2 1.9 3.4 3.7 3.1 4s-2.6.3-5.1 0c-4.3-.6-4.6-.8-5-4-.5-4.6 2-4.5 7 0M479 265c.8.5 1.1 1.2.8 1.5-.4.4-1.7 0-3-.9-2.4-1.7-.5-2.3 2.2-.6m-64 9c1.9 1.2 1.3 1.6-3.2 2.3-3.5.5-3.7.4-2.5-1.4 1.3-2.1 3.3-2.4 5.7-.9m2.4 18.2c1.5 2.4-.4 5.3-3.5 5.4-1.3.1-3.1.3-3.9.5-.9.3-1.6-.4-1.8-1.9-.2-1.4.1-2.1.9-2 .7.2 1.8-.7 2.4-2 1.2-2.6 4.2-2.6 5.9 0m-72 14.1c.9 3.5.7 5.1-1.3 7.7-1.9 2.4-2 2.4-4 .6-1.2-1.1-2.1-1.6-2.1-1.2s-.9.2-1.9-.4c-1.7-.9-1.8-1.4-.9-4 .6-1.8 1.7-3 2.8-3 1 0 2.3-.6 3-1.4 1.5-1.9 3.6-1.1 4.4 1.7m-48.6-1.1c1.2 1 1.7 4.8.6 4.8-.3 0-1.7-.9-3.1-2s-2.9-1.7-3.4-1.4-.9-.1-.9-.9c0-1.7 4.8-2 6.8-.5m135.1 20.2c1.3 1.4 2.1 3.3 1.9 4.7-.3 2.1-.5 2-4-1.6-2-2.1-3.5-4.2-3.2-4.7.9-1.5 3-.8 5.3 1.6m66.9 19.8c.7.7 1.2 2.3 1.2 3.7l-.1 2.6-1.9-2.4c-3.1-3.6-2.3-7 .8-3.9M451 359.3c0 4.3-2.3 7.7-4.1 6q-1.2-1.2-3-.3c-1.9 1.1-3.2-.8-2-2.9.9-1.3 7.2-6 8.4-6.1.4 0 .7 1.5.7 3.3"/></svg>