<svg xmlns="http://www.w3.org/2000/svg" width="682.667" height="512" version="1.0" viewBox="0 0 512 384"><path d="M0 192v192h173.5c169.7 0 173.5 0 172.6-1.9-1-1.7-.6-1.9 4-1.9 3.8 0 5.3.5 6.2 1.9 1.1 1.8 3.8 1.9 78.4 1.9H512V0H0zM18.4 1.6c1.2.5 1.3 1 .6 2.5-1 1.9.5 5.9 2.2 5.9.5 0 .8.5.8 1 0 1.4-7.9.2-10.7-1.6C10 8.6 9 7.5 9 7s1-1.2 2.3-1.6c1.2-.4 2.8-1.5 3.5-2.5C16.3.8 16.3.8 18.4 1.6M212.8 8c.3 1.9-3.2 4.2-5.3 3.4-1.5-.6-2-3.5-.8-4.8 1.2-1.2 5.8-.2 6.1 1.4m187.1.9c1.1.7 1 1-.6 1.5-1.1.4-2.5 1.8-3.1 3.1-.6 1.4-1.6 2.5-2.2 2.5-.9 0-8-6.4-8-7.2s12.7-.7 13.9.1M11 13.6c0 1.4-.4 2.2-1 1.9-.5-.3-1-1.7-1-3.1s.4-2.2 1-1.9 1 1.7 1 3.1m31.4.1c2.8 1.3 3.3 1.9 2.5 3-1.6 1.9-3.9 1.6-6.6-.9-4.2-4-2.1-5.1 4.1-2.1M24 21.4c0 5.4-1.8 6.4-5.4 3.1-3.2-2.9-3.4-5.5-.5-5.5 1.4 0 1.9-.5 1.6-1.4-.8-2 .3-2.7 2.4-1.5 1.4.7 1.9 2.1 1.9 5.3m354.5-2.2c-.4 1.3-1.1 2.7-1.6 3.2-1.2 1.3-1.1 2.9.1 2.1.6-.3 1-.2 1 .4 0 .5-.4 1.3-1 1.6-.5.3-1 .1-1-.5 0-.7-1.2-.9-3.5-.4-4.6.8-4.5-.5.5-5 4.6-4.2 6.4-4.6 5.5-1.4M59.6 21.1c.3.6.2 1.5-.3 2-1.2 1.2-6.3-.5-6.3-2.1 0-1.3 5.7-1.3 6.6.1M19 31c0 1.6-.5 3-1 3-1.4 0-2.4-2.6-1.6-4.5 1-2.6 2.6-1.6 2.6 1.5m294.1 1.1c3.5 2.5 3.7 3.9.5 3.9-2.4 0-7.6-3.4-7.6-5.1 0-1.6 4.1-1 7.1 1.2M20 43c.8.5 1.2 1.2.8 1.5-.9.9-4.8-.4-4.8-1.6s2.1-1.1 4 .1M8.8 47.9c1.5.9 1.3 4.3-.3 4.7-1.8.6-4.8-2.4-4.2-4.1.7-1.7 2.5-1.9 4.5-.6m103.1 21.8c.1.7-.3 1.3-.8 1.3-1.4 0-2.2-3.1-1.4-5.4.6-2 .7-2 1.4.4.4 1.4.7 3.1.8 3.7M382 66.6c5 2 10 9 10 14 0 2.9-.3 3.4-2.2 3.4-3.1-.1-10.1-3.3-12.7-5.9-2.4-2.4-2.9-9.9-.9-11.9 1.5-1.5 1-1.5 5.8.4m-180.2 3c2.3 4.2-1.8 7.2-5.2 3.8-2.2-2.1-2-3.4.4-3.4 1.1 0 2-.5 2-1 0-1.6 1.8-1.2 2.8.6M31.4 75.4c1.8 2.8 2.1 5.6.6 5.6-.9 0-6-7.9-6-9.4 0-1.3 3.7 1.3 5.4 3.8m246.5 8.2c1.7 1.4 3.1 3.4 3.1 4.5 0 2.3-1.3 2.5-3 .4-1-1.2-1.5-1.2-3.5.1-3.6 2.4-6.5 1-6.5-3.1 0-3.3.9-4.1 5.2-4.4.9 0 3 1.1 4.7 2.5m-139-.3c2.8-.7 6.1 2.2 6.1 5.4 0 2.3.1 2.3 2.2.9 2.8-2 6.8-2.1 6.8-.2 0 2.5-5.6 7.6-8.4 7.6-2.3 0-2.6-.3-2-2.5.7-2.7-1-3.5-2-1-1.6 4.2-9.6-1.9-9.6-7.4 0-3.5.8-4.3 3-3.1.9.5 2.7.6 3.9.3m268.9-.1c.5.7 1.5 3 2 5.1 2 7.4-1.1 8.6-4.2 1.7-2.4-5.4-.8-10.3 2.2-6.8m-60.3 2.9c2.4 3 3.1 7.4 1.1 7.4-1.3 0-4.3-4.6-5-7.8-.8-3.6.6-3.4 3.9.4M285.1 92c1.7 1 2.7 4 1.3 4-1.6 0-4.4-2.3-4.4-3.5 0-1.8.5-1.8 3.1-.5M195 102.2c0 4.9-1.5 5.6-3.5 1.8-1.5-2.9-1.5-3.3 0-5.7 2.1-3.2 3.5-1.6 3.5 3.9m128.6-2.5c1.1 2.5 1 3.4-.3 5.3l-1.6 2.3-1.8-2.4c-2.1-2.8-2.3-4.3-.8-7 1.4-2.6 3-2 4.5 1.8m-12.2 1.6c.6.9.7 1.9.3 2.3-.9 1-5.7-3.5-5.7-5.4 0-1.3.3-1.3 2.2 0 1.2.8 2.6 2.2 3.2 3.1m-136 4.1c1.8 3.9 2.1 8.6.5 8.6-2.1 0-8.2-5.6-9.5-8.7-1.7-4.1-1.7-4.3.1-4.3.8 0 1.5-.5 1.5-1 0-2.2 5.8 2.1 7.4 5.4m-72.6-.7c1.3 4.2.9 5.1-1.2 3.4-1.4-1.2-1.9-7.1-.6-7.1.4 0 1.2 1.7 1.8 3.7m306.1 8.5c.8 2.1.8 3.5.1 4.2-.5.5-1 1.8-1 2.8 0 2.7-3.6 2.3-4.4-.5-.8-3-.8-8.2.1-9 1.6-1.7 4.2-.5 5.2 2.5m-300.4 11.7c-1.4 5.7-3.7 9.1-6 9.1h-2.3l1.9-5.3c1.9-5.2 4.4-8.1 6.1-7.1.5.4.7 1.8.3 3.3m248 .6c3.1 3 3.6 10.5.8 10.5-3.3 0-6.3-4.1-6.3-8.7 0-5.1 1.7-5.7 5.5-1.8m-143.2 5.6c2.1 2.6 3.1 6.3 2.3 8.4-.7 1.9-3.9 1.9-7.5.1-3.3-1.8-6.5-8.8-4.7-10.6 1.6-1.7 7.8-.4 9.9 2.1m40.5-1.9c1.4 1.4 1.6 5.4.3 6.3-1.2.7-4.1-3.4-4.1-5.7 0-2.1 2-2.4 3.8-.6m-52.6 6.5c2.9 2.6 2.2 4.3-1.6 4.3-4.1 0-6.5-2.3-4.6-4.5 1.6-2 3.9-1.9 6.2.2m-150.1 3.6c-.6.8-.5 2 .4 3.7 2 3.6 1.9 4-1.8 4-3.4 0-5.8-1.8-7-5.3-.5-1.2-.1-1.7 1.3-1.7 1.1 0 2.4-.9 3-2 .9-1.7 1.4-1.8 3.1-.9 1.4.7 1.7 1.4 1 2.2m230.2 7.9c1.5 2.3-.6 6.8-3.3 6.8-2.8 0-4.6-4-3-6.9 1.3-2.6 4.7-2.5 6.3.1m23.7 2c1.5 2.8.8 5.7-1.6 6.5-1.2.4-5.6-7.5-4.8-8.8 1.1-1.8 4.8-.5 6.4 2.3m34.5 3.8c.8 1.3-3.6 4-7.9 4.7-5 .8-4.7-1.3.7-3.7 4.7-2.2 6.3-2.4 7.2-1m36.5 6c2.4 3 3 4.7 2.6 6.5-1.8 7.1-12.6 1.3-12.6-6.8 0-3 .7-3.7 4.1-3.7 2 0 3.6 1.1 5.9 4m-59 .7c0 3-2.4 8.3-3.7 8.3-1.8 0-1.6-3.7.4-7.1 1.9-3.2 3.3-3.8 3.3-1.2m24.4 3.6c2.7 1.9 2.8 2.1 1 2.8-3.1 1.2-4.2 1-6.4-1.3-4.6-5-1-6 5.4-1.5M509 174.4c0 1.6-5.7 8.8-8.3 10.5-.9.6-2.8.9-4.1.5-2.3-.5-2.3-.6-.5-4 2.5-5.1 3.8-6.3 7.3-7.3 4.5-1.3 5.6-1.3 5.6.3m-381.1 11.8c-2 3.8-6.9 1.1-6.9-3.7 0-4.5 1.9-5 5.2-1.2 2 2.4 2.4 3.6 1.7 4.9m-69.7 1.3c-.5 7.6-6.3 12.8-7.8 6.9-1-4.1 3.5-12.8 6.4-12.2 1.4.3 1.6 1.3 1.4 5.3m49.4-1.7c1.7 1 2 5.3.6 7.9-1.5 2.8-4.2 2.9-7.2.5-2.3-1.8-2.3-1.9-.4-4.8 2-3.2 3.4-4.4 4.9-4.4.6 0 1.5.4 2.1.8m229.8 7.4c.9 1.2 1.6 3.3 1.6 4.6 0 2-.4 2.2-2.2 1.7-6.1-1.8-8.5-5.7-5.5-8.9 1.4-1.7 3.9-.6 6.1 2.6m121 1c-2.1 6.9-10.4 13.1-10.4 7.7 0-4.8 4.3-9.9 8.2-9.9 2.6 0 2.9.3 2.2 2.2m-160.6 10.1c1.9 2.7 2 3.2.6 3.5-2 .5-5.4-2.6-5.4-5 0-2.8 2.3-2.1 4.8 1.5m54.4 7.7c1.6 2.8 1.6 3-.2 4-3 1.6-5.8 1.2-7.4-1.2-2-2.9-.4-5.8 3.2-5.8 1.9 0 3.2.8 4.4 3m118.7-1c3.1 1.5 4.1 2.8 5.5 6.9 2.1 6.4 2.1 6.3-1.1 5.5-1.9-.5-3-.2-4 1.2-1.4 1.8-1.5 1.8-3.9-1-1.9-2.1-2.4-3.5-1.8-5 .4-1.2.7-3.8.7-5.9-.1-2 .1-3.7.3-3.7.3 0 2.2.9 4.3 2m-45.3 2.2c2.1 4 1.4 9.3-1.7 14.1-1.3 2-2.7 3.7-3 3.7s-1.4-1.8-2.4-3.9c-1.7-3.8-1.7-4.2-.1-8.3 1.8-4.4 4.3-8.8 5.1-8.8.2 0 1.2 1.4 2.1 3.2M311 213c0 .5-1.1 1.7-2.5 2.6s-2.5 2.2-2.5 2.9c0 2.2-5.7 3.9-8.5 2.7-1.4-.7-2.5-1.6-2.5-2.1 0-1.4 3.4-3.1 6-3.1 1.3 0 1.9-.4 1.4-1.1-.3-.6 0-1.5.7-2 1.9-1.2 7.9-1.1 7.9.1m-21.9 8.9c1.3 1.1 2.1 2.3 1.7 2.7-1 .9-8-1.8-8.6-3.4-.6-1.9 4.3-1.4 6.9.7m203.9 1c0 2.8-8.8 4.4-11.3 2.1-.9-.9-1.4-2-1-2.3 1-1.1 12.3-.8 12.3.2m-222.6 4.2c.3 1.7.6 4.6.6 6.3l-.1 3.1-1.9-2.4c-2.7-3.2-2.7-10.1 0-10.1.4 0 1 1.4 1.4 3.1m21.6 5c0 1.5-4.7 4-6.4 3.3-2.2-.8-2-2 .5-3.7 2-1.5 5.9-1.2 5.9.4m-102.7 4.3c3.6 2.4 1.6 4.2-4 3.7-1.4-.1-5.3-3.7-5.3-4.9 0-1.5 6.6-.6 9.3 1.2m194.3-1c1.8 1.4 1.8 1.5-.9 2.5-3.5 1.4-7.7 1.4-7.7.2s4-4.1 5.5-4.1c.6 0 2 .6 3.1 1.4m26.5 5.6c1.8 1 4.9 5.9 4.9 7.9 0 .7-1 .6-2.7-.1-4.6-1.9-6.1-3.6-5.5-6.3.5-2.8.6-2.9 3.3-1.5m92.4 2c2.2 2.4 1.4 3.5-3.5 4.8-1.9.5-3.4 1.5-3.2 2.1.3 1.6-3 1-3.6-.7-.2-.7.2-1 1.2-.6.9.3 1.6.1 1.6-.5s-.4-1.1-.9-1.1c-1.5 0-.6-3.2 1.4-4.6 2.6-1.9 4.9-1.7 7 .6m-70 11.2c3.1 2.7 3.4 3.3 2 4-1.7 1-7.3.2-9.1-1.3-.6-.5-.9-2-.6-3.4.6-3.4 3.3-3.2 7.7.7m-162.1 2.3c2.2 1.7 1.5 4.5-1.2 4.5-2.8 0-5.6-2.5-4.9-4.4.8-2 3.5-2 6.1-.1m64.9.2 3.2 1.8-2.8.3c-3 .4-6.1-1.4-5.1-2.9.7-1.2 1-1.2 4.7.8m-253.5 6.9c.2 1 1.3 2.6 2.3 3.4 1.8 1.4 1.8 1.8.5 3.5-2.4 3.3-5.1.8-5.2-4.9-.1-3.1.2-4.6 1-4.3.6.2 1.3 1.2 1.4 2.3m166.6-1.1c3.1 1.3 3.6 1.9 3 3.8-1 3.5-2.4 4.7-5.4 4.7-3.1 0-6.6-3.2-5.4-5.2.8-1.4 3.6-4.8 3.9-4.8.2 0 1.9.7 3.9 1.5m184.1 4.5c.4.6-.8 1-3 1s-3.4-.4-3-1c.3-.6 1.7-1 3-1s2.7.4 3 1m.3 16.2c2.7 2.7-.2 8.3-3.1 5.9-.8-.6-1.7-.8-2-.4-.4.3-.7-.7-.7-2.4 0-1.6.3-3.3.7-3.6 1-1.1 3.8-.8 5.1.5m-6.8 6.3c0 .5-.5.3-1-.5s-1-2-1-2.5c0-.6.5-.3 1 .5s1 1.9 1 2.5m-64.6 14.7c2.2 3.1 2 6-.5 9.2-1.9 2.5-2.3 2.6-3.8 1.2-1-.9-2.5-1.6-3.5-1.6-2.1 0-3-2.3-2.2-5.5.5-1.8 1.3-2.5 3.2-2.5 1.3 0 2.7-.7 3-1.5.8-2.1 2-1.9 3.8.7m-48.7 5.4c2.3 3.1-.2 4.1-4.4 1.7-2.1-1.2-3.9-2.6-4.1-3.1-.5-1.7 7.2-.4 8.5 1.4m140.2 7.5c2.9 1 6.1 5.2 6.1 7.9 0 2.1-8.3-3.8-10.1-7.3-1.1-2-.4-2.1 4-.6m13.1 36.3c0 1.9-.3 4.2-.6 5-.6 1.4-.9 1.4-2.4-.4-1.3-1.5-1.9-1.7-2.3-.8-.3.7-.6.3-.6-1-.1-1.3.3-2 .9-1.7s1-.2 1-1.3c0-2.2.8-3.2 2.7-3.2.8 0 1.3 1.2 1.3 3.4m-7.3 3.8c-.3.8-.6.5-.6-.6-.1-1.1.2-1.7.5-1.3.3.3.4 1.2.1 1.9"/></svg>