<svg xmlns="http://www.w3.org/2000/svg" width="682.667" height="512" version="1.0" viewBox="0 0 512 384"><path d="M0 25.6c0 15.7.4 26.3 1 27.5.8 1.4.7 1.9-.1 1.9-1.2 0-.7 18.5.7 22.9.5 1.7.4 2.2-.4 1.7-.9-.5-1.2.7-1.2 4.2 0 4.1.4 5.1 2.3 6l2.2 1.1H2.3L0 91v293h512V199.5l-2.6-.1c-2.2-.2-5.8-3.3-4.9-4.2.2-.2 2-.4 3.9-.4h3.6V0H0zM359 2c0 .6-.7 2.5-1.7 4.3-1.5 3-1.5 3.1 0 1.8 1.1-.9 1.7-1 1.7-.2 0 1.1-1.3 1.5-3.7 1.2-.7-.1-2.1.3-3.2.8-3.6 2-3.1-.3 1.1-4.6S359 .1 359 2M192.3 22.6c-1.5 3.1-1.8 3.3-3.7 2-3.1-2-3.1-4.3.1-5.8 4.1-2.1 5.6-.6 3.6 3.8M30.2 25.7c2.3 2 2.3 4.3.1 4.3-2 0-5.3-2.8-5.3-4.7 0-1.8 3-1.6 5.2.4m272.6 1.8c2.9 1.3 3.4 1.8 2.2 2.5-2.3 1.5-8.4 1.2-10.6-.5-1.6-1.3-1.7-1.6-.4-2.5 2.1-1.4 4.5-1.2 8.8.5M351.3 49c8.5 1.8 11.5 3.6 13.2 7.6 1.8 4.3 1.9 7.1.3 7.6-2.5.9-15.4-1.3-17.8-3.1-2.7-2-5.7-9.9-4.6-12.6.3-1 1.3-1.4 2.3-1.1s4 1 6.6 1.6M18 54.1c0 1 .9 1.9 2.3 2.1 2.2.4 2.2.4-.4 1.7-2 1-2.4 1.8-2.1 4.2.5 3.7-1.6 4.6-5.7 2.4-3.6-1.8-4.2-5.4-1.1-6.2 1.6-.4 1.8-.8.9-1.9-1.8-2.2-.3-4.3 3-4.2 2.3.1 3.1.6 3.1 1.9M40.5 61c1.6.7 1.2.9-1.8.9-2.3.1-3.6-.3-3.2-.9.7-1.2 2.3-1.2 5 0m356.3 4.3c2.4 3.7 2.7 5.2 1.1 6.3-1.4.8-6.9-4.4-6.9-6.6 0-4.1 2.9-3.9 5.8.3m-47.9 10.2c1.5 3 2.3 6.5 1.6 6.5-1.8 0-7.9-9.3-6.9-10.3.9-.9 4.2 1.5 5.3 3.8M268 85.4c0 2.5-.7 4-2.6 5.5-3.5 2.8-5.2 2.6-6.4-.5-1.7-4.2 1.7-8.1 7.3-8.3 1.3-.1 1.7.7 1.7 3.3m6.4 2.9c1.1.8 1.5 1.9 1 3-.8 2.3-2 2.1-3.8-.5-2.4-3.3-.6-5 2.8-2.5m-91.9 2.3c1.5 1.4 2.4 2.8 2.1 3.2-1.1 1-6-2.2-6.4-4.1-.5-2.4 1.1-2.1 4.3.9m225 0c2.5 2.7 3.5 8.7 1.6 9.8-1.6 1-5.3-4.2-5.8-8.3-.7-4.9.7-5.3 4.2-1.5m-90.1 1.3c1.9 2 1.4 6.2-.9 8.1-1 .8-1.8.4-3.4-1.6-1.2-1.5-1.9-3.4-1.6-4.2.3-.7.5-2 .5-2.8 0-2 3.4-1.7 5.4.5m-199.8 6.8c-1.5 1.5-3.7-2.4-3-5.2l.7-2.8 1.5 3.7c.8 2 1.2 4 .8 4.3m165.9-4.2c0 1.5-.8 2.1-2.9 2.3-3.8.5-5.2-1.1-3-3.2 2.2-2.3 5.9-1.7 5.9.9m18.7 1.1c2 1 2.7 1.9 2 2.6-1.1 1.1-7.2-1.6-7.2-3.2 0-1.4 1.7-1.2 5.2.6m-196.5 14.8c1.8.6 2.2.4 1.7-.8-1-2.5 3.2-2 5 .6 1.4 2 1.4 2.3.1 3.1-.9.5-1.5 2.2-1.5 4.3 0 3.5-.1 3.5-3.2 2.9-1.8-.4-4.3-1.9-5.5-3.3-3.1-3.7-3-10.8.1-8.3.6.5 2.1 1.2 3.3 1.5m33.9 2.2c-.3.9-.6 2.2-.6 3 0 2.6-4.7 6.4-8 6.4-3.6 0-3.6 0-1-5.1 2-3.9 4.6-5.7 8.4-5.8 1.3-.1 1.6.4 1.2 1.5m48.9 2.8c1.9 2.9 1.6 8.1-.4 8.1-2.4 0-5.4-5-4.7-7.9.8-3.3 3.1-3.3 5.1-.2m158.9-1.1c1.1.8 2 3.1 2.3 6 .5 4.2.4 4.7-1.5 4.7-3.3 0-6.1-3.2-6.8-7.8-.6-4-.5-4.2 1.8-4.2 1.3 0 3.2.6 4.2 1.3m-331.4 6c1.2 1.6 1.9 3.1 1.6 3.4-.8.8-3.1-1.2-6.9-6.1l-3.2-4 3.2 1.9c1.8 1 4.2 3.2 5.3 4.8m149.8-.2c3.4 1.2 6.8 5.8 7.3 9.9.4 3.2-.4 3.5-4.9 1.7-6.6-2.6-12.1-9.9-9.1-11.8 1.8-1.1 3-1.1 6.7.2m-57 16.1c.7.7 1.2 2 1.2 3 0 1.6-.3 1.6-2 .6-1.1-.7-2-2.1-2-3 0-2.1 1.1-2.3 2.8-.6m141.9 2c1.3 1.7 2.2 6.8 1.2 6.8-1.6 0-3.9-3.2-3.9-5.6 0-2.6 1.2-3.1 2.7-1.2m-44.9 5.2c2.3 2.2 4.6 9.2 3.6 10.8-.3.4-1.8.8-3.3.8s-3.6.7-4.7 1.5c-2 1.5-6.1 1.9-8.8.9-1.3-.5-1.2-1.1 1-3.9 1.9-2.5 2.3-4 1.8-6-.4-1.5-.1-3.6.6-4.9 1.5-3 6.5-2.6 9.8.8m168.1 1.8c5.1 4.8 4.7 7.1-1.2 7.6-3 .3-3.9-.2-6.3-3.1-2.7-3.4-2.8-3.4-6-2.1-4.7 2-5.7 1.8-4.4-.6.6-1.1 1.7-2 2.4-2s2.1-.9 3.1-2c3-3.3 7.4-2.6 12.4 2.2m-79 3.4c2.2 2.8 2.7 5.9 1.2 6.8-1.3.8-7.1-4.5-7.1-6.5 0-3.7 3.1-3.9 5.9-.3m-24.9 2.9c1.4 1.7-.2 7.6-2.7 9.6-1.3 1.1-1.7 1-2.9-.6-2-2.7-1.7-5.5.8-8.2s3.1-2.8 4.8-.8m-172.7 1.8c1 2.6-1.2 12.1-3.4 14.1l-2.1 2.1.6-5.5c1.1-9.4 3.4-14.5 4.9-10.7m245.9 3.3c3.8 1.9 4.8 2.8 3.7 3.5-1.8 1.1-4.8.2-7.6-2.4-2.2-1.9-3-3.7-1.8-3.7.3 0 2.9 1.2 5.7 2.6m-25.2 5c0 3.4-.4 5.3-1 4.9-1.8-1.1-1.2-10.5.7-10.5.2 0 .3 2.5.3 5.6m152 9.1c0 .3-1.1 2.5-2.5 4.8-2.2 3.8-7.7 7.6-9 6.3-1.1-1 1.9-7.4 4.4-9.5 2.4-2.1 7.1-3.2 7.1-1.6m-424.6 6.9c.3.9.4 1.9.1 2.4-.2.4.7 2 2 3.4 3 3.3 2.5 4.6-1.9 4.6-4.1 0-10-5.5-7.6-7 .8-.5 2.1-1 2.8-1s1-.5.7-1c-.3-.6-.3-1.5 0-2 .9-1.5 3.2-1.2 3.9.6m448.9 9.7c1.5 1 2.5 2.2 2.2 2.8-.4.5-1.1.7-1.6.4-1.9-1.2-.8 1.2 1.6 3.5 3.4 3.2 3.2 4-1 4-1.9 0-3.5.4-3.5 1 0 1.5-1.6 1.2-3.4-.5-.8-.8-1.9-1.5-2.4-1.5-.9 0-2.2-2.2-2.7-4.5-.1-.6.2-2.1.8-3.5.5-1.4.9-3.2.8-4.1-.2-1.5.2-1.6 3.1-.5 1.9.6 4.6 1.9 6.1 2.9M352 189c3.7 1.9 6.8 5.5 5.6 6.7-.3.3-2 .3-3.9-.1-4-.7-8.2-4.8-7.4-7 .8-2 1-2 5.7.4m81 5.6c2.3 5.8 0 16.9-3.7 18.1-1.2.4-3.3-4.8-3.3-8.4 0-3 3.9-12.3 5.1-12.3.5 0 1.4 1.2 1.9 2.6M305.5 207c2.9 3 3.5 4 2.2 4-2.2 0-6.7-4.4-6.7-6.5s.1-2 4.5 2.5M140 205.5c0 .8.9 1.9 2.1 2.5 3 1.7 2.2 5.4-1.3 5.8-1.6.2-2.9-.1-2.9-.7-.2-1.5-.4-2.3-1.3-4.4-.5-.9-.6-2.4-.2-3.2.7-1.9 3.6-2 3.6 0m229.5 1.5c3.2 3.4 3.2 3.5-1.1 4.4-2.7.6-3.5.3-5.8-2.4-3-3.6-2.7-5 1.3-5 1.7 0 3.8 1.1 5.6 3m-39.5 8c0 .5-1.1 1.7-2.5 2.6-2.2 1.4-3 1.5-5.3.5-2.6-1.2-2.6-1.3-.7-2.7 2.1-1.6 8.5-1.9 8.5-.4m-228.3 6.6c-.2 1.3.1 2.5.7 2.7.8.3.7 1.2-.3 3-1.6 3.1-5.5 3.6-8.6 1.3-1.9-1.4-1.9-1.5-.2-3.3.9-1.1 1.7-2.7 1.7-3.7 0-1.8 3.7-3.6 5.8-2.8.8.3 1.2 1.4.9 2.8m208.7-2.6c3.4 1.3 3.3 2.6-.4 4.5-3.5 1.8-10 1.7-10-.1 0-1.5 4.8-5.4 6.6-5.4.7 0 2.4.4 3.8 1m-262.9 5.2c.2.7.6 3.6.9 6.5.6 4.5.3 5.5-1.8 8l-2.5 2.8-2.1-2.1c-1.9-1.9-2-2.4-.9-7 .6-2.7 1.5-5.9 2-7.2.9-2.4 3.7-3 4.4-1m249.1 3.9c1.9 1.1 3.4 2.3 3.4 2.5 0 1.1-7.9.2-9.6-1.1-1.6-1.3-1.7-1.6-.4-2.5 2.1-1.4 2.8-1.3 6.6 1.1m101.4 1.3c0 1.7-2.2 2.6-6.1 2.6-3.5 0-3.8-1.3-.6-2.8s6.7-1.4 6.7.2m33.8.5c3.1 2.6 5.4 7.4 4 8.2-1.4.9-6.8-.7-8.5-2.4-1.1-1.1-1.1-1.9.3-4.5.8-1.8 1.7-3.2 1.8-3.2.2 0 1.3.8 2.4 1.9m-154.4 10.2c1 3.3 1.5 6.3 1.3 6.5-.8.8-4.5-6-4.7-8.6-.6-7.2 1.1-6.2 3.4 2.1m25.5-3.5c1.1 1-2.1 5.4-3.9 5.4-2.6 0-3.5-2.2-2-5 .8-1.6 1.7-1.9 3.3-1.4 1.2.3 2.4.8 2.6 1m157.1.4c4.8 2.4 5.1 3.8 1 4.7-1.7.3-3.3 1-3.6 1.4-.9 1.6-3.8 1-6.8-1.4-2.5-2-2.7-2.6-1.7-4.5 1.5-2.8 5.8-2.9 11.1-.2m3 14.8c0 .5-2.2 1.5-5 2.4-2.7.9-5 1.5-5 1.3s1.5-1.2 3.3-2.4c3.2-2.1 6.7-2.8 6.7-1.3m-259 3.7c0 .9 1 1.5 2.6 1.5 4.2 0 2.2 2.5-2.2 2.8-4.9.3-6.5-.7-5.7-3.6.6-2.6 5.3-3.2 5.3-.7m144.8.5c.6 0 1.2.4 1.2 1 0 1.5-3.4 1.2-5.6-.6-1.8-1.5-1.8-1.5.6-1 1.4.3 3.1.6 3.8.6m-68.7 9.7c3.2 1.9 3.6 3.1 1.4 3.9-4 1.6-9.6-2.6-6.4-4.7 1.8-1.1 1.6-1.2 5 .8m184 2.4c1.3 1.3 1.9 3 1.7 4.7-.3 2.4-.7 2.7-4.5 2.9-3.5.1-4.5-.3-5.9-2.4-1.6-2.5-1.5-2.6 1.2-4.9 3.6-2.9 4.8-3 7.5-.3m-199.8 7.3c5.1 3.9-1.7 13.2-7.1 9.7-2-1.2-1.8-6.8.3-9.1s4.3-2.5 6.8-.6m133.7 31c0 2.8-1.9 8.6-2.9 8.6-.3 0-1.2-.9-1.9-2s-2.3-2-3.6-2-2.6-.6-2.8-1.3c-.7-2.1.6-6.2 2.2-6.5.8-.1 2.2-1.1 3-2.2 1.5-1.9 1.6-1.9 3.8.6 1.2 1.4 2.2 3.5 2.2 4.8m-302.5-.5c-.4 1.4.1 2 2 2.5 2.8.7 3.2 2.3 1.2 5-1.2 1.6-1.7 1.7-3.6.6-1.8-.9-2.2-1.8-1.8-3.8.3-1.5-.1-3.5-.8-4.6-1.9-2.5-.9-3.9 1.6-2.5 1.3.7 1.8 1.6 1.4 2.8m403.2-2.9c1.4 0 8.3 5.8 8.3 7 0 1.7-6.8-1.4-10.6-4.7-3.5-3.1-3.6-3.4-1.4-2.9 1.4.3 3 .6 3.7.6m-153.9 15.2c1.2 1.1 1.7 3.8.6 3.8-.3 0-1.7-.9-3.1-2s-3.2-2-3.9-2-1.6-.5-2-1.1c-.9-1.4 6.4-.3 8.4 1.3m150.6 21.4c.8 2.2.7 8.2-.2 8.7-1.1.8-5.2-2.9-5.2-4.7 0-1.6 2.9-5.6 4.1-5.6.4 0 1 .7 1.3 1.6"/></svg>