<svg xmlns="http://www.w3.org/2000/svg" width="682.667" height="512" version="1.0" viewBox="0 0 512 384"><path d="M0 66.8c0 50.6.3 67.1 1.2 68s.9 1.2 0 1.2S0 139.3 0 147.7c0 10.2.2 11.5 1.3 9.3.7-1.4 2.8-3 4.7-3.7 2.8-.9 3.1-1.3 1.7-1.8-2.1-.9-2.2-2.5-.1-2.5.8 0 1.2-.5.9-1-.3-.6.4-1 1.7-1 1.8 0 2 .2.8 1-.9.6-1 1-.3 1 1.2 0 1.3.7 1.5 6.7.2 5.9-3.5 7.4-10.8 4.6C.2 159.9 0 165 0 195.9v36.2l2.8 2.5 2.7 2.5-2.8-.5L0 236v148h512v-74.7c0-73.6 0-74.6-1.9-72.9-1.6 1.5-1.9 1.5-1.7.2.1-.8 1-2.3 1.9-3.4 1.5-1.7 1.7-5.1 1.7-33.4v-31.6l-3.4-2c-4-2.4-6.9-7.1-5.6-9.2.7-1.2 1.5-1.2 4.3-.2 4.5 1.6 4.7 1.6 4.7-1.3 0-1.5-.6-2.5-1.4-2.5-2.2 0-2.7-2.7-.5-3.3 1.9-.5 1.9-2.2 1.9-75.1V0H0zM190.6 7.9c-.9 1.7-2.5 3.5-3.6 4.1-3.4 1.8-2.5-3.3 1.3-7.6 2.9-3.4 3.2-3.6 3.5-1.6.2 1.1-.4 3.4-1.2 5.1m121-.7c.8 1.2-3.2 5-8.8 8.2-3.1 1.9-3 1.6 1.7-3.7 5.3-6 6-6.4 7.1-4.5m-169.9 14c1.9.9 4.3 5.4 4.3 7.9 0 1.4-3.6 1-6.7-.7-1.5-.9-4.1-3.5-5.6-5.6l-2.8-4 4.3.7c2.4.3 5.3 1.1 6.5 1.7m137.7 22.4c2.1.8.9 3.2-2.5 4.9-3.5 1.9-7 1.9-9.3.2-1.8-1.3-1.7-1.5.9-3.5 2.7-2.1 7.6-2.9 10.9-1.6M77 47.9c1.2 2.3 1.3 4.1.2 4.1-.4 0-1.3-1.4-1.9-3-1.2-3.3 0-4.1 1.7-1.1m294.9 2.4c.5 1.3 1.6 2.9 2.5 3.6 1.9 1.6 1.2 3.1-1.4 3.1-2.3 0-4-2.8-4-6.4 0-3.2 1.8-3.4 2.9-.3m-253.9.8c.9 1.6.8 2.6-.4 4.4-.9 1.4-1.6 3.3-1.6 4.3s-.6 2.6-1.3 3.6c-1.2 1.7-1.4 1.6-3.1-.9-1.5-2.3-1.6-3.1-.6-5.6.7-1.6 1.6-2.9 2.1-2.9s1.5-1.1 2.1-2.5c1.4-3 1.4-3 2.8-.4M21 53c.5 0 1.4.9 2 2 1.4 2.7.1 2.5-3.5-.6-1.8-1.6-2.3-2.4-1.2-2 1 .3 2.3.6 2.7.6m21.7 3.2c3.2 3.3 7.6 11.8 6.7 12.8-.8.7-5.9-5.7-8.9-11.3-3.1-5.5-2.2-6 2.2-1.5m303.2 13.3c3.9 4.2 5.3 7.5 3.2 7.5-1.3 0-9.1-9.2-9.1-10.8 0-2.2 1.7-1.3 5.9 3.3m-67.1 1.7c.6.6 1.2.8 1.2.5s1.4.7 3 2.1c2.9 2.6 4 5.2 2.1 5.2-.5 0-2.2 1.1-3.8 2.4-4.2 3.5-13.9 6.8-17.8 6-3.5-.6-10.8-6.2-12.6-9.5-.8-1.5-.6-2.1.8-2.5 1-.4 4.3-1.8 7.3-3.1 3-1.4 6.9-2.9 8.5-3.2 3.1-.8 9.1.4 11.3 2.1M29.3 69.6c2.6.4 4.4 1.1 4.1 1.5-.8 1.4-8.6 1-11.4-.6l-2.5-1.4 2.6-.1c1.4 0 4.7.3 7.2.6m365.1 3.8c3.1 1.3 8 5.5 7.2 6.3-.2.2-4.1-1.5-8.7-3.7-7.2-3.5-7.9-4-5.1-4 1.8 0 4.8.6 6.6 1.4m-242.6 4.8c1.6 1.6 1.6 6.8 0 6.8-4.1-.1-7-8-3-8 1 0 2.3.5 3 1.2m148 32.5c-.4 4.6-3.3 6.7-5.4 3.9-3.2-4.3-.3-10.7 3.9-8.4 1.3.7 1.7 1.9 1.5 4.5m-56.5 5c1.3 3.3 1.3 4.1-.2 7.2-2.7 6-3.8 7.4-4.9 6.7-1.1-.6-4.2-6.3-4.2-7.6s6-10 6.9-10c.5 0 1.5 1.7 2.4 3.7m19.3 2.4c.1.8.2 2.2.3 3.2.1 1.6.4 1.5 2.4-.6 2.4-2.7 7.5-4.7 10.4-4.2 1 .2 3 .4 4.6.4 4.1.1 3.2 2.1-1 2.1-2.5 0-4.5.8-6.2 2.4-2.1 1.9-10.1 5.2-10.6 4.3-.1-.1-1.1-1.6-2.3-3.4-2.6-3.7-2.8-5.5-.5-4.6 1.2.5 1.4.3.8-.7-.5-.8-.3-1.1.6-.8.8.3 1.5 1.1 1.5 1.9m56.8 8.6c1.3 4.9 1.8 10.5.7 9.9-.7-.5-1.1.4-1.1 2.5v3.2l-2.4-2.2c-1.5-1.4-2.6-3.8-3-6.9-.5-4.1-.3-4.9 1.6-6.4 2.9-2.2 3.5-2.2 4.2-.1m90.6 1.4c-3.8 2.5-11.3 6-11.8 5.4-1.4-1.4 7.5-6.4 11.3-6.4 1.7-.1 1.8.1.5 1M357.8 148l4.9 5-2.3 2.5c-3.6 3.9-8.8 3.5-13-1.1-6.3-6.6-5.3-11.4 2.2-11.4 2.6 0 4.3 1 8.2 5m120.2 4.8c0 .4-3.2 3.9-7.1 7.7-5.5 5.4-6.9 6.4-6.4 4.5 1.2-4.4 5.2-9.6 8.6-11.3 3.8-1.9 4.9-2.1 4.9-.9m-323.8 5.9c2.8 1.9 3.6 2.9 2.5 3.1-2.3.5-7.7-2.6-7.7-4.3 0-2 .4-1.9 5.2 1.2m-18.2-.2c.9 1.1 1 1.9.3 2.6-1.5 1.5-5.4-.7-4.7-2.6.8-1.9 2.8-1.9 4.4 0m-115 6.2c-10.4 3.4-12.4 3.7-7.2.9 1.5-.8 4.1-1.5 5.7-1.5 1.7 0 2.3.3 1.5.6m321.3 4.3c1.4 0 3 .7 3.7 1.5s1.9 1.5 2.6 1.5c.8 0 1.4.4 1.4 1 0 2.5-10.1-1-13-4.5-1.4-1.7-1.4-1.7.7-.7 1.2.7 3.3 1.2 4.6 1.2m-157.2 0c1 .6 1.9 1.6 1.9 2.2s.8 2 1.7 3c1.5 1.7 1.5 2 .3 2.8-2.4 1.5-4.5 1.2-8-1.3-3.8-2.5-4.1-4-1-4.5 1.7-.3 1.9-.6.9-1.8-.9-1.1-.8-1.4.5-1.4 1 0 2.6.5 3.7 1m130 16.2c2.1 4.1 2.6 5.8 1.5 4.9-1.8-1.5-3.9-5.2-5-8.9-1.3-4.1.3-2.2 3.5 4m-65.5-2 2.9 3.3-3.2-2.9c-3.1-2.8-3.8-3.6-3-3.6.2 0 1.6 1.5 3.3 3.2m-83.8.3c1.9 1.6 2.8 3.2 2.5 4.3-.2 1 .3 2.4 1.1 3.1 2.6 2.2 1.9 4.1-1.4 4.1-6.2 0-12.6-2.1-16.3-5.4-4-3.5-3.9-4.6.4-4.6 2.2 0 2.6-.4 2.2-2-.5-1.8 0-2 4-2 3.4 0 5.3.6 7.5 2.5m268 3.2c2.4 4.5 2.4 10.4.1 17.3-1.2 3.9-2.6 7-3 7-.9 0-2.9-8.1-2.9-11.9 0-3.6 3.1-14.1 4.2-14.1.4 0 1.1.8 1.6 1.7M117 188.8c0 .2-.7 1-1.6 1.7-1.5 1-1.3 1.3 1.5 1.8 1.7.4 3.1 1 3.1 1.5 0 1.9-5.8 6.2-9.7 7-3.8.9-4.3.8-4.3-.8 0-1 1.3-3.1 2.8-4.8 1.5-1.6 2.6-3.5 2.4-4.1s.3-1.4 1.2-1.7 1.4-1 1.1-1.4c-.3-.5.4-.6 1.5-.3s2 .8 2 1.1m146.1-.7c3.6 1.2 7.2 3.9 6.4 4.7-.2.3-1 0-1.7-.5-.7-.6-3-1.6-5-2.2-2.1-.7-4-1.7-4.3-2.2-.8-1.2.5-1.1 4.6.2m119.4 7c4.3 1.2 9.5 4.5 9.5 6 0 1.3-8.7 1.1-11.3-.2-2.8-1.5-6.7-5-6.7-6.1s3.8-1 8.5.3m-190.7 5.5c1.2.8 2.2 1.9 2.2 2.4s.8 1.7 1.8 2.7c1.3 1.2 1.8 3.2 1.8 6.3-.1 3.9-.4 4.6-2.8 5.4-7.2 2.5-16.4-7.6-12.9-14.2.5-.9 1.2-2.5 1.5-3.5.6-2 4.3-1.6 8.4.9m50.8 4.6c-.9 7.5-1.5 8.7-3.3 6.3-1.7-2.5-1.7-5.5.3-9.3 2.5-5.2 3.7-4 3 3M134.5 209c.8 1.3-4.5 1.3-6.5 0-1.1-.7-.6-1 2.2-1 2 0 4 .4 4.3 1m-80.1 5 3 2.9-2.8 1.1c-5.7 2.1-13.6-1.8-13.6-6.8 0-2.7 9.9-.6 13.4 2.8m340.1-1.6c4.8 1.1 8.5 2.8 7.9 3.7-1 1.6-7.6.9-11-1.2-3.6-2.2-4.6-4.4-1.6-3.6.9.3 3.1.8 4.7 1.1m74.6 10.9c2.9 2 3.4 2.9 3.1 5.7-.1 1.9-.5 3.6-.8 3.9-.8.8-7.6-3.1-8.7-5-1.3-2-.1-6.9 1.7-6.9.7 0 2.8 1 4.7 2.3m36.1-.7c.6.4-1.1 2-3.7 3.7-5 3.3-11.3 4-15.6 1.7l-2.3-1.3 2.9-2.3c1.6-1.3 3.8-2.5 5-2.8 2.4-.5 12.4.2 13.7 1M363 231.9l3.1 1.9-2.7 2.1c-3.4 2.6-3.7 2.6-7.1-.3-2.8-2.4-2.8-2.5-.8-4 2.6-2 3.8-2 7.5.3m-47.3 4.6c4.2.9 5.2 2.5 1.6 2.5-3.1 0-7.3-2.4-7.3-4.2 0-.7.4-.7 1.3 0 .6.5 2.7 1.3 4.4 1.7m104.7-.3c2 2.9.4 5.8-3.2 5.8-3.2 0-4.6-.9-5.5-3.2-1.5-4.2 6-6.5 8.7-2.6m-97.6 13.2 2.2 2.4-2.9 2.1c-3.1 2.3-10.8 3-9.5 1 .4-.7.8-2.1.9-3.3.4-3.4.4-3.4 2.3-3.9 3.5-.9 4.7-.6 7 1.7m-238.7 8.1c1.9 4.2 2.5 9.5 1.1 9.5-.5 0-1.3-1.9-1.9-4.3-.6-2.3-1.8-6-2.8-8.2-1.6-3.7-1.6-3.8.1-2.5.9.8 2.5 3.3 3.5 5.5m97.6 6.8c.4.8 1.6 1.6 2.6 2 2.6 1 2.3 7.2-.5 9.1-3.2 2.3-3.6 2-3.5-1.9 0-1.9-.6-4.2-1.4-5.2-1.8-2.1-1.4-5.3.6-5.3.8 0 1.8.6 2.2 1.3M309 264c0 .5.9 1 2 1 4.3 0 1.8 4.3-3.2 5.5-3.2.8-4.8-1.5-2.8-4 .9-1 .9-1.5.1-1.5-.6 0-1.1-.5-1.1-1 0-.6 1.1-1 2.5-1s2.5.4 2.5 1m14.9 5.6c2.7 4.6 2.7 5-.8 6.2-3.6 1.3-5.6 0-6.5-4.1-1.4-6.1 4-7.7 7.3-2.1m50.7 4.5c1.6 1.7 1.6 2.2.4 3-2.6 1.6-5.5.6-5.3-1.9.1-3.1.2-3.2 1.6-3.2.8 0 2.2.9 3.3 2.1m-85.9 8.2c1.1 2.3 2.3 5.8 2.7 7.7.7 3.4.6 3.4-1 1.5-2.2-2.7-5.4-9.6-5.4-11.8 0-2.9 1.5-1.9 3.7 2.6m-236.6 3.4c3.9 2.3 3.7 3.7-1 5.7-3.7 1.7-4.1 1.7-7.5.1-5-2.4-5.1-3.1-.9-5.3 4.9-2.5 5.9-2.6 9.4-.5m411.4 19.9c.8.9 2.2 2.8 2.9 4.3 1.7 3.3 3.1 12.1 2 12.1-.5 0-2.6-1.6-4.6-3.6-2.1-1.9-3.8-2.9-3.8-2.2-.1 2.2-2.9-3.6-3-6 0-1.2.7-2.5 1.5-2.8.8-.4 1.5-1.2 1.5-2 0-1.9 1.5-1.8 3.5.2m-159.6 3.5c1.7.6 3.1 1.5 3.1 2 0 1.2-6.1 1.1-8-.1-1.3-.9-1.3-1.1 0-2 1.8-1.2 1.1-1.2 4.9.1m-54.4 4c-4.2 2-7.4 2.3-11.5 1.2-2.1-.6-1.7-.9 3-1.9 3-.6 7.1-1.2 9-1.2h3.5zm40.8 11.6c.9 2.7 1.7 5.6 1.7 6.5 0 2.3-3.5 5.8-5.7 5.8-.9 0-1.4-.3-1-.6.3-.3 0-2.5-.7-4.9-3.1-10.3 2.2-16.5 5.7-6.8m-196.6 1.8c1.1 2.9-2.6 5.5-7.9 5.5-2.6 0-4.8-.4-4.8-.8 0-1.5 3.6-4.3 6.6-5.2 4.3-1.2 5.4-1.2 6.1.5m-48.3 10.1c1.1.4 1.6 1.9 1.6 4.4 0 2.1.7 5 1.5 6.6 1.3 2.6 1.2 3.1-.8 6.9-2.4 4.4-5.5 5.6-7.7 3-1.1-1.3-1.1-2.5-.2-6.1.7-2.4 1.2-6.6 1.2-9.3 0-3 .5-5.1 1.3-5.4.6-.3 1.3-.6 1.4-.6.1-.1.8.2 1.7.5m368.6 5c2.6.9 5.9 2.7 7.2 4.1 2.6 2.9 2.7 2.9-6.4-1.6-9-4.5-9.3-5.3-.8-2.5"/></svg>