<svg xmlns="http://www.w3.org/2000/svg" width="682.667" height="512" version="1.0" viewBox="0 0 512 384"><path d="M0 63.1v63.2l4-.6c2.2-.3 4-.1 4 .4s1.5.6 3.2.2c2.8-.5 3.1-.3 2 .8-.8.9-3.5 1.4-7.2 1.4H0v36.2c0 36 0 36.3 2.1 36.3 1.5 0 1.9.5 1.5 1.8-.3 1-.8 4.2-1 7.1-.3 3-1 5.9-1.5 6.4-.6.6-1.1 3.7-1.1 6.8v5.8l4.5-2.6c2.5-1.3 5-2.3 5.6-2.1.7.2-1.3 1.7-4.4 3.3l-5.7 3V384h512v-73.6c0-66.8-.1-73.6-1.6-73-.9.3-4.1.9-7.2 1.3-4.8.5-5.5.4-4.9-1 .3-.9.2-1.7-.4-1.9-.5-.2.4-1.9 2.1-3.9 1.9-2.4 4.5-4.1 7.5-5l4.5-1.3V195l-.1-30.5-2.9-3.5c-1.7-1.9-3-4.3-3-5.3 0-1.6.5-1.8 3-1.4l3 .6V0H386c-97.3 0-126.5.3-128 1.2-1.5 1-2.9 1-6.5 0C248.1.3 225.6 0 162.1 0 78.9 0 77.2 0 77.7 1.9c.3 1.1.1 2.7-.4 3.5-.8 1.4-1.5 1.1-5-1.9L68.2 0H0zm146-40.2c0 .6-.4 1.2-.8 1.5-.5.3-.9-.1-.9-.9s.4-1.5.9-1.5c.4 0 .8.4.8.9m135.5 6.8c-7.5 6.8-9.7 6.9-2.7.2 2.8-2.8 5.2-5.5 5.2-6s.8-.5 1.7-.2c1.4.5.5 1.7-4.2 6m-138.8-3.5c1.3 1.8.1 6.2-1.9 6.6-.9.2-2-.9-2.8-2.8-1.1-2.7-1.1-3.3.1-4.1 2-1.2 3.5-1.1 4.6.3m33.3 6.7c0 .6-.4 1.3-1 1.6-.5.3-1 1.7-1 3 0 2.1-3.2 5.5-5.2 5.5-3 0 2.4-10.9 5.5-11 .9 0 1.7.4 1.7.9M45.4 44.2c1.9 4.7.5 4.9-2.3.4-2.5-4-3-7.9-.7-5.6.8.8 2.1 3.2 3 5.2m317.1 7.5c.3 1.6 1.4 3.6 2.2 4.5 1.4 1.6 1.4 1.8-.2 2.4-2.2.9-5.5-2.8-5.5-6 0-4.3 2.5-4.9 3.5-.9m-97.2 10.9c2 .7 1 4.1-1.6 5.9-2.2 1.5-10.8 2.1-12.1.8-.4-.4 1-2.2 3.1-4 3.6-3.2 7.2-4.1 10.6-2.7m-162.7 2.8c1.9 2 3 8.1 1.5 9-.6.4-3.1-.2-5.5-1.3-3.4-1.4-5-3-6.6-6.2l-2.2-4.2 5.6.6c3.1.3 6.3 1.3 7.2 2.1m239.7 7.7c2.7 2.2 3.7 3.8 3.7 6 0 3.9-1.1 3.7-5.7-1.1-7.1-7.6-5.7-11.2 2-4.9m45.1 5c1.4.7 2.7 1.7 2.9 2.3.4.9-1.5.9-7.2-.1-9.8-1.7-11.4-2.3-8.1-3.4 3-.9 8.9-.3 12.4 1.2M95.3 97.9c-.6.3-1 2.7-.9 5.3.1 5.4-1.5 7.8-3.9 5.8-.8-.7-1.5-2.3-1.5-3.7 0-3 1.8-6.5 2.9-5.8.5.2 1.2-1 1.5-2.8.6-2.9.8-3 1.8-1.3.7 1.2.7 2.1.1 2.5m-41.7-2.1c1.5.9 3.7 5.2 3.1 5.9-.3.2-1-.4-1.6-1.5s-1.8-2.8-2.7-3.6c-1.6-1.6-.8-2.2 1.2-.8m179.8 11.7c3.1 1.4 5.6 2.8 5.6 3.1 0 .4-2.6 3.2-5.8 6.3-6.6 6.4-13.4 10.1-18.3 10.1-5.6-.1-16.9-6.2-16.9-9.2 0-.5 2.1-1.8 4.6-2.8 2.5-1.1 6.4-3.5 8.7-5.4 2.3-1.8 4.9-3.6 5.7-3.9 3.7-1.4 11-.6 16.4 1.8M9.5 112.3c2.9 2.8 4.5 5.2 4.5 6.8 0 2.2-.3 2.1-3.5-1.6-8.7-9.9-9.3-13.1-1-5.2m121.5 9.9c2.2 2.4 2.7 6.8.7 6.8-2.7 0-5.7-3.1-5.7-6.1 0-3.5 2-3.8 5-.7m156 11.2c-.7 2.5-1.6 4.6-2.1 4.6-1 0-4.9-5-4.9-6.3 0-.6 1.2-2.1 2.8-3.3 2.3-1.9 2.9-2.1 4.1-.9 1.2 1.1 1.2 2.1.1 5.9m133.2-5.9c-1.8.8-4.6 2.4-6.2 3.5-3.5 2.5-4.4 2.5-3 0 1.4-2.6 5.8-4.9 9.5-4.9h3zm-152.5 13.1c1 2.1.9 2.6-.4 3.1-.9.4-2.8 1.9-4.2 3.5-2.3 2.5-11.1 7.5-11.1 6.2 0-.2.5-1.3 1.2-2.4 1-1.6.9-2.3-1.2-4.5-2.4-2.5-2.3-4.4.2-2.9 1.6 1 6.8 1.4 6.6.5-.2-2 .5-3 3.5-4.5 4.1-2 4-2 5.4 1M228 151c0 3-2.9 12-3.8 12-.4 0-1.9-1.6-3.4-3.4-3.5-4.4-3.5-8-.2-13l2.6-3.8 2.4 2.7c1.3 1.6 2.4 4 2.4 5.5m73 4.3c0 2.4-.3 2.8-1 1.7-.6-1-1 .7-1.2 5.5l-.3 7-2.3-4.8c-2.7-5.7-2.8-12.4 0-11.9.9.1 1.9-.2 2.3-.8 1.1-1.8 2.5 0 2.5 3.3M470.3 167c-4.3 4.1-7.9 7.2-8.1 6.8-.6-1.3 3.7-8.4 7-11.4 4.5-4.3 7.1-5.6 8.1-4.1.4.8-2.1 4-7 8.7m-130.9-6.8c.1.2 2 2.6 4.4 5.5 2.9 3.6 4 5.7 3.5 7-2.6 7.5-11.3 6.9-16.2-1.1-3.2-5.3-3.4-7.1-.9-10 1.9-2.2 2.9-2.6 5.7-2.2 1.8.3 3.4.6 3.5.8m-3.2 28.9c2.3 1.2 5.8 2.7 7.7 3.4 3.3 1.2 3.4 1.4 1 1.4-2.4.1-11.1-3.8-13.3-6-1.6-1.5.2-1 4.6 1.2m-192.6 4.6c2.1 3-.1 4.6-3.8 2.7-2.4-1.2-2.7-1.8-1.7-3 1.6-1.9 3.9-1.8 5.5.3m286.9 15.1c0 5.6-.7 10.8-1.9 14.6l-1.8 5.9-1.4-3.2c-2.5-5.9-1.5-19.2 1.8-25.9 2-4 3.3-.6 3.3 8.6m-288.9-3.3c3.4 1.8 4.2 2.6 3 3.1-1.7.7-7.7-2.4-8.4-4.4-.5-1.7 0-1.5 5.4 1.3m43.4-1.1c0 .9-4 1.3-4.6.5-.3-.5.6-.9 2-.9s2.6.2 2.6.4m217.4 3.4c1.6 1 3.1 2.2 3.3 2.7.3 1.1-6.4 3.5-9.7 3.5-3 0-7.8-2.7-9-5-.9-1.6-.7-2 1.2-2.4 1.3-.3 3.2-.7 4.3-1 2.8-.6 6.5.2 9.9 2.2m-214.2 1.3c2.1 1.1 2.1 1.2.3 2.5-2.5 1.8-6.7 1.8-11.3-.2-3.6-1.5-3.6-1.6-1.7-3 2.2-1.7 8.9-1.3 12.7.7m125.3 6.8c-.7.6-6.4-4.9-7.7-7.4-.6-1.1 1 0 3.6 2.4 2.5 2.5 4.3 4.7 4.1 5m-60.6.7c1.4 1.2-1.9.1-3.5-1.2-1.8-1.4-1.8-1.4.6-.3 1.4.6 2.7 1.3 2.9 1.5m-91.8 8c1.8 1.6 1.8 1.9.3 2.7-1.4.8-1.2 1.3 1.6 4.2 1.8 1.8 2.9 3.8 2.6 4.4-.4.6-4 1.1-8.5 1.1-6.8 0-8.2-.3-12.4-3-2.6-1.6-4.7-3.3-4.7-3.8 0-.4 1.9-1.2 4.3-1.8 2.7-.6 4.1-1.4 3.9-2.3-.1-.7.3-2 1-2.8 1.6-2 9.2-1.2 11.9 1.3m88.1 3c2.5.8 5.4 2.4 6.4 3.5 1.8 2 1.7 2-3.6-.1-3-1.2-6.5-2.6-7.7-3.1-1.3-.5-2.3-1.1-2.3-1.4 0-.9 2.5-.5 7.2 1.1m158.3.4c-.4.6.7 1 2.4 1s3.1.4 3.1 1c0 1.7-5.3 2.3-9.9 1.1-6.3-1.7-7.9-3.5-2.3-2.6 2.8.4 4.2.3 4.2-.4 0-.6.7-1.1 1.6-1.1.8 0 1.2.4.9 1m75.6 2.1c2.4 1.7 2.9 2.7 2.9 6.2 0 5.6-1.1 7.2-3.8 5.8-2.9-1.5-6.2-6-6.2-8.3 0-2.5 1.8-5.8 3.1-5.8.6 0 2.4.9 4 2.1m-305.9 13.8c3.8 1.9 5.4 6.2 3.8 10.1-1 2.4-1 3.6 0 5.9 1.5 3.8.7 5.1-3.4 5.1-4.3 0-8.1-3.1-9.6-7.6-1.2-3.7-.7-8.4 1-8.4.5 0 1.6-1.6 2.5-3.6.8-1.9 1.8-3.4 2.2-3.2.5.2 2 1 3.5 1.7m-68.8 1.9c.8 1.4-5.6 7-8.9 7.7-1.6.4-3.8.9-4.7 1.2-1 .2-1.8-.1-1.8-.7 0-1.7 3.8-6.3 6.3-7.7s8.3-1.7 9.1-.5m87 5.9c.3 5.7.1 6.5-3.1 8.2-2.9 1.5-3 1.5-3.6-1.5-.6-3.2 1-10.6 2.6-11.6 2.6-1.7 3.9-.3 4.1 4.9m32.6.4c0 .9-.7 2.2-1.5 2.9-2.2 1.8-4.1-3.4-2.5-7l1.2-2.5 1.4 2.5c.7 1.4 1.3 3.2 1.4 4.1m-81.5-4.1c.4.6-1.2 1-4 1s-4.4-.4-4-1c.3-.6 2.1-1 4-1s3.7.4 4 1m231.8 1.6c2.3 2 2.7 2.7 1.7 3.9-1.9 2.3-4.7 2.7-7.8 1.1-3.2-1.6-3.8-5-1.2-6.6 2.4-1.5 4.3-1.1 7.3 1.6m50.2 3.4c.8 1.6 1.5 4 1.5 5.3 0 2.2-.4 2.4-4.6 2.2-5.3-.1-7.4-2.1-6.6-6.1.9-4.8 7.4-5.8 9.7-1.4m-111.2 13.1c2.5-.1 3.6.2 3.2.9-1 1.7-8.1 1.2-9.6-.7-1.2-1.5-1.2-1.6.6-.9 1.1.5 3.7.8 5.8.7m6.6 10.2c.6.8.8 1.6.5 2-.3.3.4 1.1 1.6 1.7l2.2 1.2-2.3 2.4c-2.9 3.1-10.6 3.6-9.4.6.4-.9 1.1-2.9 1.5-4.4 1.5-5.1 3.6-6.2 5.9-3.5m-305.8 5.2c2.7.3 5.4 1.4 6.4 2.5 1.6 1.7 1.6 1.9-.2 2.8-5.4 2.7-11.9 1.8-15.2-2.1-1.9-2.4-.7-4.9 2.1-4.3 1.3.3 4.4.8 6.9 1.1M383 294.2c0 .6.7 2 1.6 3 1.4 1.4 1.4 2 .4 3.3-1.6 1.9-4.4 1.9-5.9.1-.9-1-.9-1.6-.1-2.1.6-.4.9-1.4.6-2.2s-.4-1.9 0-2.4c.8-1.3 3.4-1.1 3.4.3m-68.1 2.4c2.8 3.6 2.6 4.9-1 7.5-2.8 2-3.2 2-4.7.5-1.4-1.4-1.5-2-.4-3.7.8-1.2 1.1-2.3.8-2.6-.7-.8 1.2-4.3 2.4-4.3.5 0 1.8 1.2 2.9 2.6m16.8-1.5c.6.6.9 1.7.6 2.4-.2.8.5 1.8 1.6 2.5 3.2 1.6 2.5 3.3-1.9 5.2-3 1.4-4.6 1.5-6.6.8-2.4-.9-2.5-1.3-1.9-5.3.9-5.8 5.1-8.7 8.2-5.6m-128.1 2.1c1.7 1.7 2.4 3.4 2.4 6.3-.1 3.5-1.8 7.5-3.2 7.5-.9 0-4-13-3.4-14.5.7-2 1.4-1.9 4.2.7M73.9 317.5c3.3 3.7 4.5 7 3.9 10.4-.2 1.5-1.4-.1-4.4-5.9-2.3-4.4-3.8-8-3.4-8 .5 0 2.2 1.6 3.9 3.5m429.5 10.7c1.4 3.2 2.3 5.8 2 5.8s-3.3-2.1-6.6-4.8c-3.8-2.9-6.8-6.2-7.9-8.7-1.8-4-1.8-4 .4-4.6 3.1-.9 8.9 5.1 12.1 12.3m-210.3-2c1.2 2.7 2 5 1.7 5.3-.8.8-5.6-5.9-7.4-10.1l-1.5-3.6 2.5 1.9c1.3 1 3.5 3.9 4.7 6.5m22.6 18.4c1.3.4 2 1 1.7 1.5-.8 1.4-5.6 1-8.4-.6l-2.5-1.4 3.5-.1c1.9 0 4.5.3 5.7.6M53.4 348c3.7 1.4 3.2 3.3-1.5 5.9-4.4 2.5-7.2 2.3-11-.8l-2.3-1.8 4.4-2.1c5.2-2.4 6.9-2.6 10.4-1.2m217.1.9c-3 2.7-16.6 4.3-18 2.1-.3-.5 0-.8.7-.5s3.6-.2 6.3-.9c5.7-1.6 12.4-2 11-.7m26.2 10.3c.5.7 1.7 4.2 2.7 7.7 1.5 5.8 1.5 6.5.1 8.8-.9 1.3-2.1 2.3-2.7 2.1-3.2-1.1-5.5-19.8-2.4-19.8.7 0 1.8.6 2.3 1.2M455 362c3.2 1.6 6.1 3.4 6.5 4 .8 1.2 0 1.3-2.3.1-.9-.5-3.8-1.7-6.4-2.6-2.5-.9-4.9-2.3-5.2-3-.8-2.2.8-1.9 7.4 1.5"/></svg>