<svg xmlns="http://www.w3.org/2000/svg" width="682.667" height="512" version="1.0" viewBox="0 0 512 384"><path d="M0 192v192h290l-2.9-3.1c-2.9-3-5.7-8.9-4.3-8.9 1.1 0 7.8 7.1 9.1 9.7l1.2 2.3H512V263h-2.6c-2.1 0-2.5-.3-1.9-1.8.4-.9.7-2.8.6-4.1 0-1.3.8-4 1.9-5.8 1.9-3.3 2-5.2 2-40.9v-37.5l-3.1-3.9c-3.9-4.8-3.7-8.6.4-8.3l2.7.2V0H188.8l-3.5 3c-3 2.7-4.1 3-9.6 3-4.5 0-6.9-.6-8.6-1.9-3-2.3-1.7-3.1 3.6-2.1 3.2.5 4.6.4 5.4-.6 1-1.2-.4-1.4-7.9-1.4h-9L157 3.5c-2.5 4.1-3.7 4.4-4.9 1.1C150.4.2 147 0 71.1 0H0zM211.5 6.6l5 1.2-5.3.1c-5.9.1-14.2-1.6-14.2-3 0-1 7-.2 14.5 1.7m22.2 7.2c2 2.3 2.1 2.8.8 3.8-.8.6-1.5 1.8-1.5 2.7 0 1.7-6.7 3.3-9.9 2.2-2-.6-6.1-6.2-6.1-8.4 0-.6 1.6-1.1 3.5-1.1s3.5-.4 3.5-.9c0-1.2 3-2 5.5-1.4 1.1.3 3 1.7 4.2 3.1M37.8 38c2.6 2.5 3.9 4.6 3.6 5.5-.8 2-1.3 1.9-6.7-1.5-4.8-3-5.6-4.7-3.5-6.8 1.7-1.7 2-1.6 6.6 2.8m221.3 11.9c-1.3 2.3-11.9 12.1-13.2 12.1-2.1 0-.3-2 8.4-9.8 5.3-4.6 6.3-5.1 4.8-2.3m93.1 5.3c0 1.8.2 4.5.2 5.9.2 3.4-1.9 2.7-4-1.3-2-3.8-1.1-7.8 1.6-7.8 1.6 0 2 .7 2.2 3.2M108.5 71.4c3 3 2.4 6.6-1.1 6.6-1.6 0-2.8-1-3.9-3.1-3-5.6.5-8 5-3.5m47.9-.9c-.4.8-1 1.5-1.4 1.5s-.5 1.1-.3 2.4c.4 2-.2 2.9-2.8 4.6-3.4 2-3.4 2-3.7 0-.4-2.2 5.4-10 7.4-10 .8 0 1.1.6.8 1.5m178.7 9.4c4.1 3.6 4.3 4 3.1 6.5-1.6 3.6-3.1 3.3-8.1-1.8-3.3-3.4-4.2-4.9-3.6-6.5 1-3.1 3.7-2.6 8.6 1.8m-86.3 11.7c0 3.7-4.1 6.4-9.9 6.4-5 0-7.3-1.6-4.5-3.2.9-.5 2.6-2 3.9-3.3 2-2.2 6.7-3.5 9.3-2.7.6.2 1.2 1.4 1.2 2.8M370 89.1c.3.3 2 .9 3.9 1.5 2.8.8 2.1.9-5 1.1-4.6.2-9.7.5-11.4.9-5 1-1.4-1.7 4.2-3.2 4.8-1.3 7.4-1.4 8.3-.3M13.6 101.7c-.7.8-3.4-3.9-4.1-7.2-.5-2.4-.1-2.1 2 1.8 1.5 2.7 2.4 5.1 2.1 5.4m48.7 9.7c.3.8-.2 1.6-1.1 1.8-2.5.7-4.2-.1-3.5-1.8.7-1.8 3.9-1.8 4.6 0m-8 2.5c1.5 0 2.6.4 2.5.8 0 .5.1 1.5.5 2.3 2.1 5.6 1.6 9-1.4 9-3.5 0-9.6-3.8-10.3-6.4-.3-1.3-.9-3.1-1.2-3.9-.6-1.6 1.5-2.5 5.1-2.1 1.1.1 3.2.2 4.8.3M426.5 133c-.3.5-1 1-1.5 1s-3 1.4-5.5 3.1c-5.8 3.9-7.2 2.9-2.3-1.7 2.6-2.3 4.7-3.4 6.8-3.4 1.8 0 2.9.4 2.5 1M28.9 152.4c1.3 1.4 2.1 3 1.9 3.6s-1.8-.5-3.6-2.4c-1.9-2.1-2.7-3.6-1.9-3.6.7 0 2.4 1.1 3.6 2.4m41.1 4c0 1.2-.3 3.1-.6 4.4l-.7 2.3-2.3-2.2c-2.6-2.4-3-4.9-1.3-8 1-2 1.1-2 3-.3 1 .9 1.9 2.7 1.9 3.8m108.5 0c2.7 1.2 3.4 1.9 2.8 3-1.6 3-19.9 17.9-24.2 19.8-3.9 1.8-5 1.9-9.5.9-7.2-1.6-13.6-4.7-13.6-6.5 0-.9 1.7-2.5 3.8-3.6 3.9-2.2 7.4-4.6 13.8-9.7 6.9-5.4 9.3-6.2 16.6-5.8 3.7.2 8.3 1.1 10.3 1.9m91.6 3.7c-.5 1.3-1.2 3.7-1.6 5.2-.7 3.6-3.6 3.3-4.9-.6-1.1-3.2.5-5.1 3.7-4.3.9.2 1.4 0 1.1-.5-1-1.6.5-4.4 1.7-3.2.7.7.7 1.8 0 3.4m-21.9 12.1c-.4 1.6-.2 2 .9 1.6 2-.8 2.2 2.7.3 4.3-1.2.9-1.2 1.4-.3 2 .9.5.1 1.9-2.8 4.6-4.5 4.2-9.8 8.3-10.7 8.3-1.1 0 1.5-4.3 4.2-7.3l2.6-2.7-2.2-3c-2.7-3.6-2.8-4.7-.2-5.5 1.1-.3 2.5-1.5 3-2.6.6-1 2.1-1.9 3.4-1.9 2 0 2.3.4 1.8 2.2m-141.8 1.9c1.8 1.4 2.6 3 2.6 5 0 2.7-.3 3-2.2 2.3-3.7-1.1-4.8-2.5-4.8-6 0-3.9.8-4.2 4.4-1.3m366.1 2.4c0 .6-3.7 4.5-8.2 8.9-4.6 4.3-8.3 7.5-8.3 7 0-1.2 5.5-10.4 7.7-13 3.4-3.8 8.8-5.6 8.8-2.9m-155.3 11.2c.8 1 2.8 4.2 4.4 7.1 2.7 4.9 2.8 5.4 1.2 6.5-1.1.9-1.3 1.8-.8 2.8 1.4 2.4-.4 4.1-4.3 4.2-6.4.2-11.7-6.8-11.7-15.3 0-3.2.4-4 1.9-4 1 0 2.4-.7 3.1-1.5 1.7-2 4.3-1.9 6.2.2m-114.6 3.4c1.9 2.2 1.9 2.2-.3 1-1.3-.6-2.3-1.6-2.3-2.1 0-1.5.5-1.2 2.6 1.1m69.2 7.9c-.3 10.1-1.6 9.2-1.7-1.1-.1-5.7.3-7.9 1.6-7.9.1 0 .2 4.1.1 9m-74.8-5.5c4 2.1 6 5.3 6 9.7s-.9 4.7-4.6 1.5c-2.9-2.4-5.4-7.4-5.4-10.7 0-2.4.3-2.4 4-.5M330.6 222c4.3 2.2 7 4 5.9 3.9-3.9-.1-14.5-5.4-14.5-7.1 0-1.2.2-1.1 8.6 3.2m84.1 4.6 2.5 2.3-5.1 2.5c-6.3 3.3-9.8 3.3-15.9.1-.1-.1.5-1.6 1.4-3.3 1-2 2.5-3.4 4.2-3.8 1.5-.3 3.1-.7 3.6-.8 2.5-.6 7 .9 9.3 3m8 5.6c.6 6.5.1 9.8-3.3 21.3l-1.4 5.1-8.6-.7c-9.4-.7-14.1-2.9-6.3-2.9 2.4 0 5.8.4 7.4.8 5 1.5 5.4.8 4.8-6.8-.4-4.9-.1-8.7 1.1-13.2 3.7-13.8 5.2-14.6 6.3-3.6M145 236.1c0 1.7-3 2.1-6 .9-3.6-1.5-3.8-2.8-.8-3.9 2.3-.8 6.8 1.2 6.8 3m161 17c0 1.3-5-1.4-8.9-4.7-5.2-4.3-3.5-4.5 2.9-.2 3.3 2.2 6 4.4 6 4.9m189.6-3.5c2.6 4.4 2.7 4.8 1.4 9.8-1.7 6.7-1.8 6.9-4.2 5.2-3.1-2.2-4.6-4.8-5.3-9.7-.5-3.7-.3-4.9 1.5-7.2 1.2-1.5 2.5-2.7 3-2.7s2.1 2.1 3.6 4.6m-314.5-.2 3.3 1.4-3.2 1.6c-3.1 1.6-9.8 2.1-13.9 1-3-.8-2.9-1.5.5-3.6 3.4-2 9-2.2 13.3-.4m66.6 7.2c-.7.7-6.4-2.2-7.2-3.7-.4-.6 1.2-.1 3.5 1.1s4 2.4 3.7 2.6M124.5 262c3 1.9 3.5 2.6 2.2 2.8-2.2.4-8.7-3.8-8.7-5.6 0-.8.5-1 1.3-.5.6.5 3 1.9 5.2 3.3m20.5 12c1.4 1.1 1.9 2 1.3 2-.7 0-1.3.7-1.3 1.5s-.6 1.5-1.2 1.6c-.8 0-.8.3.2.6 1.8.8 4.9 4.4 5 6 0 .6-1.5 1.4-3.2 1.8-1.8.3-5.2 1.1-7.6 1.7-3.2.8-5.3.8-8 0-4.3-1.4-10.2-4.8-10.2-6 0-.5 2.7-1.6 6.1-2.6 4.5-1.2 5.9-2 5.5-3.1-.8-2.1 4.1-5.5 7.8-5.5 1.7 0 4.2.9 5.6 2m241.6-.1c.6.1 1.6 1.2 2.2 2.6s1.8 2.5 2.7 2.5c2.2 0 1.8 1.6-.7 3.4-2.8 2-4.7 2-8.6 0-3.5-1.7-4.1-3.1-1.6-4.1.8-.3 1.3-1.2 1-2-.8-2 .1-3.2 2.2-2.8.9.2 2.2.4 2.8.4m-154.1 5.9c2.4 1.3 2.7 1.7 1.2 2-2.6.5-16.8-2.8-16.2-3.8.8-1.3 11.6 0 15 1.8m201.6.8c.7.9 1.4 2.5 1.6 3.7.2 1.1.9 2.7 1.5 3.4 1.7 2.1-.2 3.3-6.3 4-4.5.4-5.8.2-7.9-1.5-2.2-1.8-2.3-2.3-1.2-4.1.6-1.1 1.2-2.7 1.2-3.5 0-3.4 8.6-5 11.1-2M152.5 292c.4.6-1.2 1-4.2 1-3.5 0-4.4-.3-3.3-1 2-1.3 6.7-1.3 7.5 0m35.2 10.8c.2 6.3-.1 7.5-2 9.2l-2.1 2-1.3-2.2c-1.7-3.1-1.6-7 .2-9.4.8-1 1.5-3.2 1.5-4.7 0-2.2.4-2.8 1.8-2.5s1.7 1.6 1.9 7.6m-36.9.4c2 2.5 1.8 8.8-.2 8.8s-3.2 8.5-1.8 12.2c1.5 3.9-.5 5.4-5.3 3.8-4.7-1.6-6.5-4.4-6.5-10.5 0-5.6 1.5-8.5 4.5-8.9 1.1-.1 2.7-1.7 3.5-3.4 1.6-3.3 4-4.1 5.8-2m56.9 2c1.5 2.4 1.5 2.8 0 5.2-2.2 3.3-3.1 3.3-4.5.1-3.3-7.1.7-11.7 4.5-5.3m107.6 3.9c-.6.6-3.3 1.3-6 1.5l-4.8.3 4.4-.9c2.4-.5 4.6-1.2 4.9-1.5s1-.5 1.6-.5.6.4-.1 1.1m-228.1 5.2c-2.3 2.3-4.9 3.7-8.4 4.6-2.8.6-5.3.9-5.5.7-.8-.8 2.7-6.6 4.8-7.6 3-1.6 10.3-2.8 11.3-1.8.6.5-.3 2.1-2.2 4.1M322 318c0 1.1-.7 2-1.5 2s-1.5-.9-1.5-2 .7-2 1.5-2 1.5.9 1.5 2m1.3 4.6 3.1 1.7-2.8 2.3c-2.8 2.4-7 3.2-8.1 1.4-.7-1.2 2.2-7 3.6-7 .5 0 2.4.7 4.2 1.6m65.7 6.1c0 1.4.7 3.4 1.6 4.4 3.1 3.4-1.5 7.5-5.5 5-1.1-.7-1.1-1.5-.2-4.1.6-1.8.9-3.6.6-4-.8-1.3.6-4 2.1-4 .9 0 1.4 1.1 1.4 2.7m-168.6 7c2 5.9 2 9.7 0 12.8-1.5 2.2-4.2 2.6-2.9.5.3-.5-.1-3.3-1-6.2-1.8-6.3-1.9-9.4-.2-11.2 1.7-1.9 2.3-1.3 4.1 4.1m115 2.1c-.1 1.6.7 2.7 2.7 3.8 1.6.8 2.9 1.8 2.9 2.2 0 1.9-8.3 6.2-12 6.2-4.9 0-5.8-1.4-3.1-5.1 1.1-1.5 2.1-4.1 2.1-5.8 0-3.2 1.2-4.1 5-3.8 1.9.2 2.5.7 2.4 2.5m-21.5 3.9c0 2.1.3 5.1.6 6.6.5 2 .2 3.3-1 4.7-2.2 2.4-3.3 2.5-5.7.3s-2.3-4.8.3-6.7c1.4-1 1.9-2.1 1.5-3.2-.6-1.6 1.8-5.4 3.5-5.4.5 0 .8 1.7.8 3.7"/></svg>