<svg xmlns="http://www.w3.org/2000/svg" width="682.667" height="512" version="1.0" viewBox="0 0 512 384"><path d="M0 192v192h150.5c124.2 0 150.3-.2 149.9-1.3-.2-.7 1.1-3 3.1-5.1 1.9-2.1 3.3-4.1 3-4.6s-.1-1.1.5-1.5.8-1 .5-1.5c-.3-.4.2-1.1 1.1-1.4 1.4-.5 1.6.1 1.1 4.4-.3 2.9-.1 5.2.5 5.6.5.4.8 1.7.5 3l-.4 2.4H512v-51.5c0-34.8-.3-51.5-1-51.5s-.7-.6 0-1.9c.6-1.3 1-18.8 1-50.1 0-40.5-.2-48.1-1.4-48.6-2.8-1.1-6.8-8.4-6.1-11.1.5-2.3 1-2.5 4-2l3.5.6V0H0zM135.5 16.6c-4.4 4.3-4.6 4.6-2.9 5.9 1.8 1.3 1.7 1.4-.8 2-4.3 1.1-6.5-.2-7.1-4.1-.3-1.9-.2-4.5.2-5.7 1.4-3.7 6-7.9 7.9-7.3.9.3 2.8-.1 4.2-.9 2.4-1.3 2.5-1.3 2.8 2.1.3 3-.3 4.1-4.3 8m36.9-8.7c1 1.6-7.6 10.9-12.7 13.7-1.7 1-1.7 1.2-.3 1.7 2.5 1 1.9 2.5-1.3 3.2-3.6.8-10.3-2.2-8-3.6.8-.4 1.4-1.2 1.4-1.7 0-2.9 5.4-8.1 11.4-11 7-3.4 8.6-3.7 9.5-2.3m25.2 13.4c.3.3-1.4.9-3.9 1.2-5.1.8-12.4-.1-13.3-1.7-.7-1 16.2-.6 17.2.5m19.1 3.9c2.8 2.7 2.9 3.1.1 6.1-5.3 5.6-9.2 6-13.7 1.3-3.9-4.1-3.6-6.6.7-6.6 1.6 0 3.5-.7 4.2-1.5 1.8-2.2 6-1.8 8.7.7M344 54.5c.7.8 1 1.5.7 1.5s-.2 1.5.3 3.3c.5 2.2.3 4-.5 5.1-1.2 1.5-1.5 1.5-3.4-1-4.2-5.3-1.3-14 2.9-8.9m-333.7.6c3.6 1.9 7.7 6.2 7.7 8.1 0 2.3-.1 2.3-6-.7-4.6-2.4-6.8-5.3-5.5-7.5.8-1.3 1.1-1.3 3.8.1m230.5 13c-3.4 4.3-11.8 10.7-11.8 9C229 76 241.9 64 243.2 64c.5 0-.6 1.9-2.4 4.1m83.5 12c3.1 1.6 7.7 6 7.7 7.4 0 .6-1.2 2.2-2.6 3.6l-2.6 2.4-4.4-4.8c-6.6-7.3-5.4-12.3 1.9-8.6M142.9 94.9c1.9 1.2.1 4.1-3.8 5.7-3.8 1.6-4.2.1-1-4 2.2-2.8 2.7-3 4.8-1.7M89.2 98c2.3 3.1 1.5 6-1.7 6-2.2 0-7.5-5.6-7.5-8 0-2.2 7.2-.6 9.2 2m272.8.9c-1.9 1-16.1 3.3-16.7 2.7-1.4-1.3 5.9-3.5 11.7-3.5 4 0 5.9.3 5 .8m-123 7.2c0 .5-.4.9-.9.9s-.7.9-.4 2c.7 2.8-5 6-10.9 6-5 0-7.2-1.6-4.4-3.2 1-.5 3.2-2.2 4.9-3.8 4-3.5 11.7-4.8 11.7-1.9M33.5 139.8c-.8.8-2.5-1-2.5-2.6 0-1.3.2-1.3 1.4.4.8 1 1.3 2.1 1.1 2.2m386.3 3.8c-7 4.7-6.8 4.6-6.8 3.5 0-2.1 5.2-7 7.8-7.3 4.6-.6 4.4.2-1 3.8m-392-1.4c1.8 2.3 2.4 10.4.9 11.6-1.8 1.5-10.3-1.2-11.6-3.7-1.2-2.4-2.1-7.8-1.4-8.5 1.2-1.1 11-.6 12.1.6M256 183c0 3.3-.4 4-1.9 4-2.7 0-3.8-5-1.5-6.7 2.8-2 3.4-1.6 3.4 2.7m-245.2-1.4c2.2 1.5 4.7 6.2 3.9 7-.2.2-2.3-1.6-4.6-4.1-4.1-4.4-3.7-6 .7-2.9m42.7 1.3c1.1 2.2 1.2 3.7.5 5.5-1.2 3.3-2.5 3.3-4.6.1-1.4-2.1-1.4-3-.4-5.5 1.6-3.8 2.5-3.8 4.5-.1M141 185c2.8 1.5 2.5 3.1-1.2 6.7-5.8 5.4-20.2 16.7-23.8 18.5-3.9 2.1-10.1 2.3-16.7.7-3.7-1-4.7-.9-5.4.2-.7 1.2-1.3 1.2-3.6-.1-2.2-1.2-2.9-2.4-3.1-5.4-.3-3.7-.3-3.8 2.4-3.2 2.3.6 4.2-.3 11.3-5 4.7-3.1 10.2-6.7 12.1-7.9s5.1-3.2 7-4.4c3.1-1.9 4.4-2.2 11.3-1.7 4.2.3 8.6 1 9.7 1.6m326.6 4.1c.4.7-.8 2.3-2.7 3.7s-6 5.3-9.2 8.7c-4.5 4.7-5.5 5.4-4.7 3.3 1.4-4.2 3.9-7.8 8.4-12.6 4-4.2 6.8-5.2 8.2-3.1m-230.2 2.3c-.3.9-1.3 1.2-2.7.8-2.1-.6-2.1-.6.3-1.3 1.4-.4 2.6-.7 2.7-.8s0 .5-.3 1.3m-.2 4.6c4.1 3.8-1 13.2-10.1 18.4l-3.3 1.8 1.3-2.3c.7-1.3 2.5-4 4.2-6.1 3.6-4.6 3.3-7.3-.9-7.3-3.8 0-7-2.3-5.4-3.9 1.8-1.9 7.4-3.4 10-2.8 1.3.3 3.2 1.3 4.2 2.2m66.4 14.7c2.3 5.2 2.4 5.7.9 7.9-.9 1.4-2.1 2.2-2.8 1.8-.9-.5-.9-.3.1.7 2.1 2.3 1.5 5.8-1.2 6.5-6.2 1.5-13.1-7.8-12.4-16.9.3-3.9.5-4.2 3.5-4.5 1.7-.2 3.7-1 4.3-1.7 2-2.4 4.9.1 7.6 6.2m-49.5 11c-.9 1.6-1 1.5-1.1-.7 0-1.4.4-3.6.8-5 .7-2.4.7-2.4 1 .7.2 1.8-.1 4.1-.7 5m-68.5 5c.8 1.8 1.4 4.4 1.4 5.7v2.5l-3.3-2.2c-4.5-3-6.7-6-7.4-10.4l-.6-3.6 4.3 2.4c2.7 1.5 4.8 3.6 5.6 5.6m232.1 12c2.5 2.6 2.5 2.6.5 4.2-1.7 1.4-2.1 3.1-2.5 12.1-.2 5.8-1.1 12.5-2 15-1.1 2.9-1.3 4.8-.6 5.6 2.5 3-6.3 3.5-14.1.8-2.4-.8.9-2.4 5.3-2.4h3.7v-7.4c0-4.1.4-8.5.9-9.8.4-1.3 1.1-3.9 1.5-5.8l.6-3.5h-4.3c-2.3 0-5-.4-6.1-.8-1.7-.7-1.8-.9-.2-2.5.9-1 1.6-2.4 1.6-3 0-2.2 5.3-5.2 9.3-5.2 3 0 4.6.6 6.4 2.7m-96.2 3.8c6.4 3.6 5.7 4.7-1 1.6-3.8-1.7-7.7-5.1-5.9-5.1.5 0 3.6 1.6 6.9 3.5m-183.4 15.4c4.4 3.6-1.2 5.5-6.1 2.1-1.3-.9-1.2-1.2.4-2.5 2.5-1.9 2.9-1.9 5.7.4m362.4 7.5c1.5 4 1.6 5 .3 10.3-1.8 6.9-3.7 7.8-6.7 3-2.5-4.2-2.8-12.4-.6-16.8 1.3-2.4 1.9-2.8 3.4-1.9 1.1.5 2.7 3 3.6 5.4m-208.2 7c4.9 2.1 7.5 4.2 6.6 5.1-.6.5-8.1-3.3-10.9-5.5-3.3-2.6-2.2-2.5 4.3.4M174 273c1.7 1 1.6 1.2-2.7 3.4-4.7 2.4-15.3 2-15.3-.5 0-3 14.2-5.3 18-2.9m65.9 6.1c2.1.7 2.9 1.5 2.3 2.1s-2.1.4-4.1-.6c-5-2.6-3.9-3.5 1.8-1.5M109.2 294c3.6 2.4 4.8 4 2.9 4-1.4 0-7.4-4.4-7.9-5.9-.5-1.6.2-1.4 5 1.9m281.9-.1c.6 1.5 2.2 3.4 3.7 4.1l2.7 1.2-2.4 1.9c-1.3 1-3 1.9-3.9 1.9-2.2 0-10.2-3.1-10.2-4 0-.3 1.1-1.3 2.5-2 1.6-.8 2.5-2.2 2.5-3.7 0-3.5 3.8-3.1 5.1.6m42.7 6c.7.4 1.4 1.9 1.4 3.2.1 1.3 1 3.5 2 4.8 3.6 4.7 2 6.1-6.8 6.1-8.3 0-13.4-4.3-8.4-7 1.2-.6 2-2.1 2-3.6 0-3.5 6.3-5.8 9.8-3.5m-304.4 2.7c2 .8 2.1 2.8.1 4.4-2.1 1.7-1.9 4.3.5 5.8 1.1.7 2 1.8 2 2.6 0 1.7-11.7 5.6-16.7 5.6-3.9 0-13.6-4.6-13.1-6.2.2-.6 3.3-2.1 6.8-3.4 3.6-1.3 6.6-2.8 6.8-3.3.2-.6 1.2-2.1 2.3-3.5 1.6-2 3-2.6 5.9-2.6 2.1 0 4.5.3 5.4.6m88.5 8c1.2.9 1.9 2 1.4 2.4-1 1-11.4-.6-15.6-2.4-3.1-1.4-3-1.4 4.3-1.5 5.4-.1 8.2.4 9.9 1.5m-68.2 7c-.3.3-1.2.4-1.9.1-.8-.3-.5-.6.6-.6 1.1-.1 1.7.2 1.3.5m30.8 16.5c-.2 6.7-.6 8.5-2.3 10.2l-2.1 2.1-1-2.8c-2.3-5.9-2.3-7.2.2-10.2 1.3-1.6 2.7-4.2 3.1-5.7 1.2-5.2 2.4-1.8 2.1 6.4M192 338c2.4 2.4 2.5 3.4.3 7.1-2.6 4.4-4 4.3-5.8-.5-2.7-7 .9-11.2 5.5-6.6m114.5-.1c-1.5 1.3-6.5 2.3-6.5 1.2 0-.5 1.2-1.2 2.8-1.4 1.5-.2 3.1-.5 3.7-.6.5 0 .5.2 0 .8m-181.9 3.7c-.3.9-.6 2-.6 2.5s-.4.9-1 .9c-.5 0-1-1.1-1-2.5 0-1.6.6-2.5 1.6-2.5 1.1 0 1.4.5 1 1.6m-8.3 5.6c2.1 2 2.4 2.9 2 6.3-.3 2.2-.6 6.5-.6 9.5-.2 6.1-1.9 7.4-6.2 4.6-3.5-2.3-5-7.7-3.5-13.4.9-3.6 4.2-9.2 5.5-9.2.1 0 1.3 1 2.8 2.2m-41.7 1.9c1.3 2.1-4.7 6.8-10.3 8-2.9.7-5.6.9-6 .6-1-1 1.5-5.1 4-6.7 4.1-2.5 11.2-3.7 12.3-1.9m243.4 1.4c3.7 1.9 3.7 2.8.5 5.3-2.5 2-5.9 2-7.1 0-.8-1.2 1.5-6.8 2.8-6.8.5 0 2.2.7 3.8 1.5m71.6 3.1c-.4 1.3 0 2.7.9 3.4 1.8 1.5 2 6.1.4 7.7-.8.8-2 .8-4.1.1-2.6-.9-2.8-1.3-2.2-4.2.3-1.7.9-3.6 1.3-4.1.3-.6.7-1.9.7-3 .3-4.9.3-4.8 2-3.4.9.7 1.3 2.1 1 3.5m-164.8 5.9c1.1 5.6 1.2 7.6.1 10.7-2.2 6.6-3.4 4.6-4.5-8-.4-3.9-.4-7.8 0-8.7 1.2-3.3 3.1-.7 4.4 6m109.7 5.9c.1 2.1.8 3.2 2.9 4.3l2.9 1.5-3.9 3.4c-5 4.4-7.7 5.5-11.4 4.8-3.6-.8-3.7-1.8-.8-6.4 1.2-1.9 2.2-4 2.3-4.5.1-.6.6-2.3 1.3-3.8 1-2.3 1.7-2.8 4-2.5 2.2.2 2.7.8 2.7 3.2"/></svg>