<svg xmlns="http://www.w3.org/2000/svg" width="682.667" height="512" version="1.0" viewBox="0 0 512 384"><path d="M0 120.5v120.6l2.8-1.5c1.5-.8 6.1-4.4 10.2-8 4.1-3.7 9.1-7.1 11-7.7 4.8-1.4 20.9-2.3 25.4-1.5 4 .8 4.7 3 2.3 7.3-2.3 4.2-11 12.4-15.6 14.8-8.3 4.2-27.6 5-34.2 1.4-1.8-.9-1.9.9-1.9 68.6V384h74.9c65.6 0 75-.2 75.5-1.5.3-.8 1.3-1.5 2.2-1.5 1.3 0 1.5-.7.9-3.8-1.3-7.9 4.7-9.6 8-2.3 1.3 3 1.4 4.3.6 5.9-.6 1.1-1.1 2.3-1.1 2.6s14 .6 31 .6h31v-2.5c0-3.1 2.8-8.8 3.9-8.1.8.5 2.6 8.3 2.2 9.8 0 .5 63.6.8 141.4.8H512V184.3l-3.5-3.7c-4-4.3-5.2-7.8-3.8-11.5.7-2.2 1.4-2.6 4.1-2.3l3.2.2V0H134l1 2.6c1.1 2.8.4 6.8-1.4 8.3-1.4 1.2-9.5-2.4-10.3-4.6-.3-.7.2-2.4 1.1-3.8L126 0H0zM89.8 17.8c3.7 5.6 3.9 7.8 1.2 13.3-2 3.9-2.1 3.9-5 2.4-1.6-.8-4-3.4-5.4-5.7-2.3-3.9-2.4-4.3-.9-7.2 1.6-3.2 5.2-7.6 6.2-7.6.3 0 2.1 2.2 3.9 4.8m39.3 1.2c1.1 5.4-2.5 11-7.2 11-3.1 0-8-1.9-9.1-3.5-.4-.5-.2-1.5.5-2 .7-.6 2-2.3 3-3.8 2-3.1 7-5.8 10.2-5.4 1.3.1 2.1 1.3 2.6 3.7m42.9 6.5c0 1.2-8.3 4.5-11.4 4.5-3.8 0-9.2-1.7-8.3-2.6.3-.3 3.9-.9 7.9-1.4 9.8-1 11.8-1.1 11.8-.5m14.8 3.2c1.1 1 2.3 3.2 2.7 4.9.5 2.6.2 3.4-1.9 4.8-4.8 3.1-9.2 1.4-12.5-5.1-1.5-3-1.5-3.1 2.2-4.7 4.4-2 7.1-1.9 9.5.1m149.5 2c.2.5.7 3.5 1.1 6.9.6 5.6.5 6.3-2 8.9-2.1 2.3-2.8 2.5-3.5 1.4-1.3-1.8-.2-14.8 1.2-16.6 1.3-1.5 2.6-1.7 3.2-.6M133.5 42c.8.7 1.2 1.6.9 2.1-.9 1.5-8.3 1-11.7-.8l-3.2-1.7 2.5-.7c3.3-1 9.7-.4 11.5 1.1M103 44.4c0 2-2 2.4-5.8 1.4-4.3-1.1-3.2-2.8 1.9-2.8 2.7 0 3.9.4 3.9 1.4m217.3 19.9c3 2.9 3.4 4.9 1.3 6.6-.8.7-1.8 2.5-2.1 4.1-.8 3.6-3 4.5-5.3 2.1-4.6-4.8-4.9-5.6-4.2-11.2.8-7.5 1.5-8.4 4.8-6 1.5 1 3.9 3 5.5 4.4M215.4 77.2c-2.7 4.6-4.8 6.6-8.3 7.8-2.3.7-4.4 1.1-4.7.7-.9-.9 2.7-4.3 7.6-7.1 5-2.9 6.5-3.2 5.4-1.4M347 95.5c0 1-15.9 7.5-18.5 7.5-1.8 0 .1-2.3 3.5-4 5.2-2.7 15-5 15-3.5m-223 20.3c0 2.8-2.1 4.2-6.2 4.2-4.3 0-4.7-1.1-1.8-4 2.6-2.6 8-2.7 8-.2m-75.5 3.6c7.1 2.5 10.5 9.6 4.5 9.6-4.5 0-7.5-1.8-9.9-6-2.9-5.2-1.7-6.1 5.4-3.6m170.5 3c0 1.4-1 3.2-2.2 4-3.2 2.3-10.4 2-13.5-.4l-2.5-1.9 3.4-2.1c2.3-1.4 5-2 9.1-2 5.4 0 5.7.1 5.7 2.4m200.9 22.2c-3.4 3.6-8.9 6.8-9.9 5.8-1.9-1.9 6.1-8.3 10.4-8.4 1.8 0 1.8.2-.5 2.6m-186.8 55.5c.9 1.7.8 2.5-.5 3.7-1.2 1.3-1.8 1.3-3 .2-1.9-1.5-2-3.2-.4-4.8 1.7-1.7 2.6-1.5 3.9.9m227.9.4c0 .8-1 2-2.2 2.6-1.3.7-5.6 4.4-9.5 8.2-4 3.9-7.6 6.8-7.9 6.4-.8-.8 3.8-8.6 6.8-11.4 2.4-2.2 10.7-7.3 12.1-7.3.4 0 .7.7.7 1.5m-437.6 11c3.1 2.9 3.4 6 .5 7.6-1.7.9-2.5.7-4.5-1.2-2.6-2.5-2.9-4-1.4-7 1.4-2.5 2.2-2.4 5.4.6m188 4c5.7 3.6 9.6 7.8 9.6 10.2 0 .8-2.1-.8-4.6-3.6l-4.5-4.9-4.6 2c-5.6 2.5-10 1.6-12.3-2.5-1.3-2.4-1.3-2.9 0-3.7.8-.5 3.6-1 6.2-1 3.7 0 5.9.8 10.2 3.5m47.5 2.5c1.2 1.7 2.9 6.3 3.7 10.2s2.1 8.6 2.9 10.5 1.2 3.9.9 4.4c-1.1 1.9-4.7.8-7.9-2.4-3.7-3.7-5.5-8.9-5.5-16.2 0-9.8 1.9-11.9 5.9-6.5m-44.2 12.7c.6 1.7-6 8.5-10.6 11.1-6.2 3.5-5.4.3 1.9-7 5.7-5.6 7.9-6.7 8.7-4.1m-151.8 4.8c2.7 1.3 4.1 3.9 4.1 7.7 0 2.2-2.9 2.8-6.1 1.2-2.9-1.4-3.9-3.2-3.9-6.8 0-3.9 1.5-4.4 5.9-2.1m159 16.7c-.6 3.2-1.6 5.8-2.2 5.8-1.3 0-.3-9.7 1.5-14.7l1.3-3.7.3 3.5c.2 1.9-.2 6-.9 9.1m203.1-2.9c0 1.5-6.5 8-9.7 9.6-1.2.6-4.2 1.1-6.7 1.1-3.9 0-4.6-.3-4.6-2 0-1.1.4-2 .8-2 .5 0 2.3-1.3 4-2.9 3.6-3.1 8-4.8 13-5 2-.1 3.2.4 3.2 1.2m-275.2 6.3c1.3.8 3.2 2.9 4.2 4.7 4.8 7.9-6.2 6.6-11.5-1.4-1.4-2.1-2.5-4.4-2.5-5 0-1.5 6.7-.3 9.8 1.7m154.9 10.2c8 5 8.8 6.4 2.2 3.8-4.4-1.8-9.8-5.7-11.3-8.4-1-1.7-1.1-1.8 9.1 4.6m97.1 6.5c.3 5.3-1.7 20.1-3.3 23.9-.5 1.3.4 1.9 4.9 2.9 3.1.7 5.6 1.5 5.6 1.9 0 2.4-12.7 2.6-17.8.3l-3.7-1.6 3.6-1 3.6-1 .5-9.6c.5-10 3.5-22.4 5.3-21.8.5.2 1.1 2.9 1.3 6m-277 7.7c6.5 4 2.2 7.6-4.7 4-4.5-2.2-5-3.4-2.3-4.9 2.4-1.5 3.3-1.3 7 .9m380.2 3.6c.6 1.4 1 4.1 1 5.9 0 4.4-3.1 14.5-4.5 14.5-1.8 0-5.5-6.5-5.5-9.8 0-5.5 4.2-13.2 7.1-13.2.5 0 1.4 1.2 1.9 2.6M157.5 292c1.1 1.7-3.2 4.8-8.4 5.9-6.8 1.4-7.6 1.4-11.3-.5l-3.2-1.6 3-1.6c5.2-2.8 18.6-4.3 19.9-2.2m119.9 11c4.2 1.3 6.6 2.6 6.6 3.5 0 1.9.5 1.9-7.3-.5-3.5-1.1-7-2.7-7.7-3.5-1.8-2.1.2-2 8.4.5m-51.5 5c4 1 5.6 3 2.6 3-2.4 0-9.5-3.1-9.5-4.2 0-.6.6-.8 1.4-.5s3.3 1.1 5.5 1.7m171.7 12.5 2.8 1.8-2.3 1.8c-3 2.4-5.1 2.4-11.2-.2-4.8-2.1-6.2-4.2-3.6-5.3 2.4-1.1 11.6.1 14.3 1.9M82.4 337.1c-1.1 1.8-9.4-4.2-9.4-6.8 0-.8 2 .1 5 2.3 2.8 2 4.7 4 4.4 4.5m348.4-2.7c3.1 1.6 7.8 6.3 7 7.1-.7.8-11.6 3.5-13.9 3.5-1.1 0-3.8-.9-6-2.1-5.1-2.6-4.8-4.7 1.1-7.7 5.1-2.6 8-2.8 11.8-.8m-341.5 9c4 1.7 7.4 5.3 6.1 6.6-1.9 1.9-14.8 6-18.9 6-5.1 0-14.5-3.7-14.5-5.7 0-.8 1.7-2.1 3.8-2.9 2-.8 5.5-2.3 7.7-3.4 4.8-2.2 11.3-2.5 15.8-.6m53.2-.4c-.3.5-2.1 1-3.8.9-3.1-.1-3.1-.1-.7-.9 3.6-1.1 5.2-1.1 4.5 0m45.3 5.3c2.5 2.6-1.8 4-9.6 3.1-7.6-.7-12.8-2.8-10.1-3.9 6.4-2.5 16.8-2.1 19.7.8m103.1 25.4c-1.6 1.9-7.1 4.3-9.6 4.3-1-.1.7-1.4 3.7-3 6.3-3.3 7.8-3.7 5.9-1.3"/></svg>