<svg xmlns="http://www.w3.org/2000/svg" width="682.667" height="512" version="1.0" viewBox="0 0 512 384"><path d="M0 114c0 113.3 0 114 2 114 1.3 0 2 .7 2 2 0 2.4-2.1 7-3.2 7-.4 0-.8 33.1-.8 73.5V384h144.9l-1-2.9c-1.4-3.9-.8-8.6 1.1-8.6s6 6.2 6 9.1v2.4h62.4c34.3 0 62.6-.3 62.8-.8.3-.8 6.4-5.2 7.3-5.2 1.1 0 .4 2.4-1.2 4.2-1.6 1.7 2.1 1.8 114 1.8H512v-39.5c0-38.7 0-39.5-2-39.5-2.4 0-6-6.5-6-10.8 0-3.6 5.1-13.8 6.8-13.5.9.2 1.2-28.3 1.2-140.2V0H360.4l-1.1 3.1c-.9 2.4-1.6 2.9-3.2 2.4q-1.95-.6-3 1.2c-1.3 2.4-2.4 1-2.5-3.2l-.1-3.5H232.2c-65.1 0-118.1.4-117.8.8 1.7 2.8-7.9 10.8-12.1 10-3-.6-3.9-3.5-2-6.7.9-1.6 1.7-3.2 1.7-3.5S95 0 86.4 0H70.9l1.5 2.2c1.9 2.6 2 6.3.5 10.7-1.5 4.3-3.9 4-8.8-1.4-4.3-4.6-4.8-6.3-3.1-9.6C62 0 61.4 0 31 0H0zM163.8 8.5c-2.6 2.4-4.9 3.5-8.4 4.1-4.8.7-9.8-.4-9.7-2.1.2-1.3 6.6-3.4 13.3-4.4 8.6-1.3 8.7-1.3 4.8 2.4m21 .8c.4 3.1-4.4 8.7-7.5 8.7-2.6-.1-5.1-2.2-5.8-5.2-.6-2.3-.2-2.9 3.2-4.7 2.1-1.1 5.2-2 6.8-1.8 2.5.2 3.1.7 3.3 3m156.7 12.8 4.8 5.1-5.4 5.4c-2.9 3-6.1 5.4-6.9 5.4-1 0-2.6-2-3.9-4.9-2.3-4.8-2.3-4.9-.5-8.2C331.7 21 335 17 336 17c.4 0 2.9 2.3 5.5 5.1M120.5 34c1.1 1.8-4.1 3.3-8.9 2.6-4.7-.7-6-2.1-2.8-2.9 3.3-.9 11.1-.7 11.7.3M88 36.4c0 1.9-3.7 2.7-6.9 1.3-2.6-1.1-2.6-1.1 1.4-1.7 2.2-.4 4.3-.8 4.8-.9.4 0 .7.5.7 1.3M210 62c0 3.1-9.3 9-14 9-3.6 0-2.1-2.5 3.3-5.7C206.6 61 210 59.9 210 62m138 14c-3.1 2.6-14.1 9-15.6 9-1.2 0 1-4.6 2.9-6 2.3-1.7 12.5-5.9 14.7-5.9.8-.1-.1 1.2-2 2.9m-231.6 28.9c.9 1.4-2.1 3.2-6.4 3.8-4.4.6-4.9-.1-2.3-2.9 1.7-1.9 7.7-2.5 8.7-.9m99.7 2.7c1.5.9-.8 4-4.3 5.7-2.7 1.3-4.3 1.4-7.8.6-6.5-1.5-7.7-3.9-3.2-6.4 1.9-1.1 4.3-1.4 8.5-1 3.2.3 6.3.7 6.8 1.1m-186.4 6.7c2.3 1 6.3 7.2 6.3 9.7 0 1.5-3.7 1.2-7.6-.6-2.7-1.3-8.4-8.8-8.4-11.1 0-.8 6.8.6 9.7 2m396.1 17.9c-.5 1.7-9.5 6.5-10.4 5.6-1-1.1 1.7-3.9 5.1-5.4 3.8-1.7 5.8-1.7 5.3-.2M225 192.1c0 2.5-1.7 5.9-3 5.9s-1.3-2.4.2-5.5c1.4-3 2.8-3.3 2.8-.4m248 2.8c0 .4-1.1 1.3-2.4 1.9s-5.6 3.5-9.5 6.6c-10.4 8-14.7 8.9-9.5 2.1 3.4-4.5 9.5-8.8 15.4-10.8 4.4-1.5 6-1.4 6 .2m-218.8 20.6c.1 8 .2 15.4.2 16.5.1 2.9-1.5 2.7-3.9-.4-3.1-4.2-3.5-19.6-.6-26 1.1-2.5 2.5-4.6 3-4.6.7 0 1.2 5.1 1.3 14.5m-54.4-9.1 3.7 3.5-3.8 1.6c-7.5 3.1-9.4 3.1-12.7-.5-5.2-5.6-4-7.6 4.8-7.9 3.5-.1 4.9.5 8 3.3M5.6 204.8c1.4.9 3.4 4.7 3.4 6.4 0 .7-.4 1.9-.9 2.7-.8 1.2-1.3 1.2-3.4-.2-3.1-2-4.2-5-2.7-7.7 1.1-2.1 1.9-2.4 3.6-1.2m208.1 9.7c4.1 7.3 2.3 7.2-2.8-.1-2.6-3.8-2.8-4.5-1.3-4.2 1 .2 2.9 2.1 4.1 4.3M202 230.7c0 1.3-6.4 8.9-9.9 11.8-6.6 5.6-4.6-.2 2.7-7.8 4.2-4.2 7.2-5.9 7.2-4m-152.6 4.5c2 2.9 2.1 8.8.2 8.8-2.8 0-4.7-1.3-6.2-4.2-1.3-2.5-1.3-3.5-.4-5.9 1-2.3 1.5-2.7 3.1-1.9 1 .6 2.5 2 3.3 3.2m391.6-1.6c0 2-6.8 8.6-11.2 10.8-4.9 2.4-12.8 3.6-12.8 1.8 0-.7 3.8-4.1 10.2-9.1 3.5-2.7 13.8-5.3 13.8-3.5m-227.6 12.5c-3.6 13.6-6 17.1-5.2 7.6.4-5.4 5-16.7 6.7-16.7.5 0-.1 4.1-1.5 9.1m86.1 17.9c4 3.6 7.2 6.6 7 6.8-.8.8-8.3-3.9-11.1-7-8.4-9.2-6.6-9.1 4.1.2m-167.9-2.5c4 3 5.6 5.6 4.5 7.4-.6.9-1.4 1-3.7 0-3.2-1.4-11.4-8.7-11.4-10.2 0-1.7 7.1.2 10.6 2.8m281.9 7.4c-1.3 11.1-6.4 27.1-8.6 27.1-1.6 0-3-7.1-2.4-11.7 1.4-10.7 7.8-23.5 10.8-21.6.5.3.6 2.9.2 6.2m-292.1 3.2c3.7 2.9 3.4 4.9-.8 4.9-3.9 0-9.4-3.9-8.2-5.8 1.1-1.9 6.1-1.4 9 .9m39.6 5.8c0 1.5-7 4.3-13.6 5.4-5.7 1-6.5.9-8.4-.8-2.1-1.9-2.1-1.9 2.7-3.1 9.4-2.4 19.3-3.2 19.3-1.5m243.7 26.2c2.4 1.1 4.3 2.4 4.3 2.8 0 1-6.2 3.1-9.2 3.1-3.5 0-12.8-4-12.8-5.5 0-2.1 1.2-2.5 7.4-2.5 4 0 7.4.7 10.3 2.1M270 306.4c2.5.6 4.3 1.5 4 2.1-1.1 2.3-15-.9-15-3.4 0-1.1 2.4-.8 11 1.3m-52 1.2c3.4 1 4.9 1.9 4.1 2.4-2.1 1.2-10.1-1.2-10.1-3.2 0-1-.3-1.1 6 .8m186.5 9.4c3.5 2.2 3.6 2.4 1.9 3.7-3 2.2-8.3 1.5-14.1-1.8-5.5-3.2-5.8-4.4-1.3-5.1 4-.6 9.5.7 13.5 3.2M145 332.5c0 .6-3.8 2.2-7.7 3.1-3.4.9-2.7-1.8.8-2.7 3-.9 6.9-1.1 6.9-.4m-85 3.4c2 3.9 4.1 5.2 7.1 4.6 1.6-.4 4.2-.4 5.8 0 3.4.7 8.1 4.7 8.1 6.8S66.6 356 62.1 356 50 352.6 50 350.6c0-.9 2.4-2.7 5.5-4.2 5.8-2.9 6.3-3.5 4.2-5.6-1.4-1.4-3.7-5.3-3.7-6.2 0-1.4 3-.4 4 1.3m375.6 5.3c6.7 4.5 6.7 6 .2 7.7-7.3 2-12.6 1.9-17.3-.4-5.5-2.7-5.4-5.3.5-8.2 6.5-3.2 10.8-2.9 16.6.9m-264.8 9.4c1.5 1 2.2 2.4 2 3.7-.3 2-1 2.2-6.6 2.5-5.1.2-7-.1-9.8-1.9-1.9-1.2-3.3-2.3-3-2.6.7-.8 9.9-3.1 12.6-3.2 1.4-.1 3.6.6 4.8 1.5m74.1 8c1.3 4.9.8 9.1-1.5 13.7-2.5 4.8-4.6 2.7-5.7-5.8-.4-3 0-4.9 2-8.2 1.4-2.4 2.8-4.3 3.3-4.3.4 0 1.3 2.1 1.9 4.6"/></svg>