<svg xmlns="http://www.w3.org/2000/svg" width="682.667" height="512" version="1.0" viewBox="0 0 512 384"><path d="M0 192v192h142.8l-.4-3.8c-.3-2 0-4.4.6-5.2.9-1.3 1.3-1.2 3.1.9 1.1 1.4 2.3 3.7 2.6 5.3l.6 2.8H512V0h-68c-66.1 0-68 .1-71.2 2-5 3-7.5 2.5-6.9-1.3 0-.4-40.2-.7-89.5-.7-78.3 0-89.7.2-91 1.5-.9.8-2.6 1.5-4 1.5s-2.7-.7-3-1.5C177.9.2 170.8 0 123 0H68.2l-.6 2.5C67.2 4.1 66.3 5 64.9 5c-1.1 0-3.1-1.1-4.5-2.5L57.9 0H0zM81 31.5c-.7.9-2.9 1.5-5.3 1.5-4.6 0-4-1.6.8-2.3 5.9-.8 5.9-.8 4.5.8m32-.6c0 1.6-7 3.3-10.7 2.6-4-.7-3.8-1.4.9-2.5s9.8-1.2 9.8-.1m99.4 21.2c-3.6 4-16.4 8.8-16.4 6.1 0-1.4 6.3-5.2 11.3-6.8 6.3-1.9 7.4-1.8 5.1.7M363 57.8c0 1.9-10.9 10.5-14.7 11.7-5.9 1.7.7-5.9 8.6-10 5-2.6 6.1-2.9 6.1-1.7M114 97c1.3.9 1.3 1.1 0 2-.8.5-2.4 1-3.5 1s-3 .3-4.2.6c-3.6 1-2.8-1.5 1-3.1 3.9-1.7 4.7-1.8 6.7-.5m105.4.9 3 1.2-2.1 2c-2.5 2.6-9 3.5-13.7 1.9-4.3-1.4-4.6-3.4-.8-5.5 2.9-1.7 8.8-1.5 13.6.4M18.7 111.7c3.6 1.7 6.3 6.1 6.3 10.3 0 4.7-8.7-.2-11.9-6.8-1.2-2.3-2.1-4.5-2.1-4.7 0-1.1 4.4-.4 7.7 1.2M433 131c1.2.7.7 1.2-2.2 2.5-4.3 1.7-7.8 2-7.8.5 0-1.1 5.5-3.9 7.5-3.9.6-.1 1.7.4 2.5.9m-207 57.3c0 2.6-2.5 6.5-3.5 5.5-.9-.9 1.4-7.8 2.6-7.8.5 0 .9 1 .9 2.3m44.8 20.4c-1.7 7.6-3.3 16.5-3.7 19.8l-.6 6-3.3-5c-3-4.6-3.3-5.5-2.8-10.8.9-9.4 3.4-16.7 6.2-17.9 1.3-.6 3.1-2.2 3.9-3.5 3.1-4.7 3.2-2 .3 11.4M498 196.9c0 1-21.4 12.1-23.5 12.1-.8 0-1.5-.8-1.5-1.8 0-4.4 11.8-11.1 19.8-11.2 2.8 0 5.2.4 5.2.9M199.2 200c1.3.6 3.3 2.6 4.5 4.5l2.2 3.3-2.7 1c-4.6 1.8-10.1 2.3-12.1 1.3-1-.6-2.8-2.7-4-4.7-1.7-2.8-1.9-3.9-1-5 1.4-1.7 9.7-1.9 13.1-.4m17.1 9.3c3 6 1.6 8-1.6 2.3-1.5-2.7-2.7-5.3-2.7-5.8 0-2.1 2.6 0 4.3 3.5m248.1 10.6c.7 1-3.5 6.5-7.3 9.6-4.6 3.8-17.1 7.1-17.1 4.6 0-1.9 11-10.2 16.6-12.6 6.7-2.8 7.1-2.8 7.8-1.6M44 230.2c2.1 2.3 2.7 8.1 1 10.8-.7 1.2-1.3 1.1-3.4-1-2.8-2.5-3.2-5.3-1.6-9.4 1.2-3.2 1.4-3.2 4-.4m152 5.1c0 1.8-4.8 8.3-8.9 12.1-5.7 5.4-2.8-2.5 3.6-9.5 3.7-4.1 5.3-4.8 5.3-2.6m26.9 4.8c-1.5 6.5-7.7 19.1-9.1 18.7-3.9-1.3.1-14.8 5.8-19.7 1.9-1.7 3.6-3.1 3.8-3.1s0 1.9-.5 4.1m82.1 26c5.4 6.9 5.9 7.9 3.4 6.6-3.1-1.6-6.8-5.4-10.2-10.4-2.6-3.6-2.7-4.3-.8-4.3.7 0 4.2 3.6 7.6 8.1m141-1c0 6.2-6.6 24-10.9 29.5l-2 2.6-.7-4.1c-.4-2.5-1.2-4.1-2-4.1-1.9 0-1.7-3.1.6-9.8 1.8-5.2 4.4-8.6 5.9-7.8.3.2 2.2-1.6 4.1-4 4-4.8 5-5.3 5-2.3m-321.4 2.5c7.2 7.6 6.3 9.5-2.4 4.9-6.6-3.5-8.5-5.2-7.9-7 1.2-2.9 6.6-1.8 10.3 2.1m54.4-2.7c0 1.6-8.3 4.2-15.1 4.8-5.5.5-7.1.3-8.4-1.1-.9-.9-1.3-1.6-.8-1.6 2.7-.2 10.6-1.1 15.8-1.9 8.5-1.2 8.5-1.2 8.5-.2m40.4 44.2c4.9 1.3 3.4 3.5-1.7 2.5-4-.8-7.2-3.6-4.1-3.6 1.1 0 3.6.5 5.8 1.1m51.4 1.5c3.7.7 2.5 2.4-1.9 2.4-4.9 0-12.9-1.9-12.9-3.1 0-.8 9.6-.4 14.8.7m140.4.4c4.1 1.2 11.8 5.9 11.8 7.2 0 .4-1 .8-2.2.8-1.3.1-4.1.9-6.3 2-6.2 3-13.1 2.6-18.9-1-6-3.8-5.8-5.9.7-7.5 2.6-.7 5-1.5 5.4-1.8.9-1 5.3-.8 9.5.3m-257.8 11.9c.6 1-6.4 4.1-9.1 4.1s1.3-3.8 4.6-4.3c1.4-.2 2.9-.5 3.3-.6.4 0 .9.3 1.2.8M271.3 345c0 2.5-.7 6.3-1.7 8.5-1.6 3.7-1.8 3.9-2.9 2-.7-1.1-1.9-2-2.7-2-2.1 0-2-9 .1-10.8.9-.6 2.4-2.5 3.4-4.1l1.8-3 .9 2.5c.6 1.3 1 4.4 1.1 6.9m-217.8-1c1 2.2 2.6 4.7 3.6 5.6 1.7 1.6 2.3 1.4 8.9-2.6 5.9-3.6 7.5-4.1 10.4-3.6 3.4.7 9.6 5.4 9.6 7.4 0 1.6-13.1 9.3-16.7 9.9s-11.4-1.9-13.3-4.3c-.9-1-1-1.7-.1-2.7.8-1.1.6-1.8-1-3.3-2.5-2.2-4.9-6.6-4.9-8.9 0-2.7 1.7-1.6 3.5 2.5m387.4 2.5c4.7 1.6 11.1 6.2 11.1 7.9 0 2.6-16.1 5.4-21.4 3.6-3.9-1.2-8.6-4.6-8.6-6.1 0-1 11.6-6.9 13.6-6.9.6 0 3 .7 5.3 1.5m-271.2 8.1c2.3.6 4.9 5.6 3.8 7.3-.3.6-3.4 1.1-6.9 1.1-5.4 0-6.6-.3-8.6-2.5-2.8-2.9-2.6-3.1 3.1-4.9 5.3-1.7 5.8-1.7 8.6-1"/></svg>