<svg xmlns="http://www.w3.org/2000/svg" width="682.667" height="512" version="1.0" viewBox="0 0 512 384"><path d="M0 101.5c0 79.1.3 102 1.2 103.5 1 1.6 1 2.4 0 4-.9 1.5-1.2 21.4-1.2 88.5V384h149.8l-.6-4.5c-.4-3.5-.1-4.6 1.2-5.1 2.3-.9 4.1.9 5.5 5.6l1.2 4H512V215h-2.2l-2.3-.1 2.3-1.8 2.2-1.9V0H293.5C148.5 0 75 .3 75 1c0 .5-1.1 1-2.5 1S70 1.5 70 1c0-.6-12.3-1-35-1H0zm80.9-73c-1.7 1.7-7.9 3.2-7.9 1.8 0-.9 8.1-4.2 8.9-3.6.3.2-.2 1-1 1.8M112 31c0 1.5-4.5 3-9.1 3-5.5 0-4.9-1.7.9-2.5 2.6-.4 5.2-.8 5.7-1 1.9-.6 2.5-.5 2.5.5m111.6 14.9C221.2 48.5 206 53 206 51c0-1.7 5.1-4.4 10.9-5.6 8.2-1.8 8.7-1.8 6.7.5M384 49.2c0 .7-2.2 3.7-4.8 6.7-4.7 5.3-5 5.5-8.2 4.5l-3.4-1 3.4-3.6c5.4-5.7 13-9.5 13-6.6M229.4 92c2.5 1 4.6 2.4 4.6 2.9 0 1.3-5.6 3.1-9.6 3.1-3.5 0-10.4-2.8-10.4-4.2 0-1.2 5.9-3.7 8.7-3.8 1.2 0 4.2.9 6.7 2m-109.5.6c1 .9-1 1.6-6.5 2.1-5.3.6-5.8.5-4.6-1 .8-.9 2.3-1.8 3.5-2 2.2-.5 6.8.1 7.6.9m-100.1 19c1.3.9 3 3.1 3.8 4.9 1.4 3.4 1.9 8.5.9 8.5-1.4 0-6.2-3-8.2-5.2-1.8-1.9-5.3-8.9-5.3-10.5 0-1 6.4.7 8.8 2.3m420.1 27.8c2.4 1.3 2.4 1.4.3 2.5-3 1.6-6.2 1.4-6.9-.5-.6-1.6 1.2-3.4 3.2-3.3.6 0 2.1.6 3.4 1.3M237 187c0 1.9-3 7-4.1 7-1.5 0-2.2-2.7-1.5-5.5.5-1.8 1.3-2.5 3.1-2.5 1.4 0 2.5.5 2.5 1m-28.5 12.3c4.1 1.1 5.5 2.1 7.9 5.6 3.5 5.2 2.7 6.3-4.6 6.8-6.6.5-9.6-1-12.5-6.2-2.7-4.8-2.8-6.2-.5-6.8 3-.8 4.6-.7 9.7.6m102.9 10.3c-1.9 5.3-4.8 12.7-6.4 16.5s-3.2 8.5-3.6 10.4c-.3 1.9-1.1 3.8-1.7 4.2-1.9 1.2 0-17.7 2.4-23.7 3.1-7.6 9.7-17 12-17 .4 0-.8 4.3-2.7 9.6m-85.8-3.1c.7 1.9 1.4 4.9 1.3 6.7v3.3l-1.6-3.5c-.9-1.9-2-4.5-2.6-5.7-.8-1.9-.4-4.3.9-4.3.3 0 1.2 1.6 2 3.5m268.4 2.8c0 2.3-7 9.7-11.2 11.8-2.2 1.1-6.3 2.3-9.1 2.6l-5.2.6 4.5-4.8c2.7-2.8 7.3-6.1 11.5-8.1 7.5-3.7 9.5-4.1 9.5-2.1M51.4 227.9c1.9 3.6.3 10.1-2.5 10.1-2.2 0-4.9-3.7-4.9-6.5 0-2.6 2.7-6.5 4.5-6.5.8 0 2.1 1.3 2.9 2.9M246 242.7c-.7 2.1-2.3 5.5-3.6 7.5-1.3 2.1-2.4 4.1-2.4 4.5 0 .5-.9 1.9-1.9 3.2l-1.9 2.4-1.2-2.4c-.7-1.3-1.7-2.7-2.2-3-1.7-1.1 3.1-10.5 6-12 1.5-.7 3.8-2.2 5.1-3.1 3.1-2.4 3.6-1.8 2.1 2.9m-47-.7c0 1.6-3.7 8.6-5.5 10.4-2.9 2.8-.8 3.9 6.4 3.1 3.6-.3 7.6-.9 8.9-1.2 1.2-.3 2.2-.1 2.2.4 0 1.4-12.8 4.3-18.7 4.3-4.5 0-7.3-1.2-7.3-3.2 0-.4.6-.8 1.3-.8s1.9-1.6 2.6-3.6c2.2-6.1 10.1-13.4 10.1-9.4m-66.9 22.1c3.6 3.9 3.3 5.5-1.2 5.1-3.5-.4-10.3-5.7-9.3-7.4.3-.4 2.1-.8 4.1-.8 2.6 0 4.2.8 6.4 3.1m183.8.1c3.2 5.1 8.9 15.8 8.4 15.8-3.6 0-13.2-13.3-11.9-16.6.8-2 1.9-1.7 3.5.8m178.1 7.9c0 7.5-12.9 28.3-16.2 26.3-.5-.4-.8-2.4-.6-4.4.2-2.8 0-3.6-.8-2.9-1.7 1.4-2.8-5.5-1.3-8.3 2.1-4.1 7.9-8.2 7.9-5.6 0 .5 2.1-1 4.8-3.6 2.6-2.5 5-4.6 5.5-4.6.4 0 .7 1.4.7 3.1M129 276c1.9 1 4.4 2.8 5.5 4l2 2.3-2.5-.8c-3.8-1.1-13-6.5-13-7.6 0-1.2 3-.4 8 2.1m305.5 34.9c2.8 1.6 5.9 3.8 6.9 5l1.9 2.1h-5.7c-3.2 0-6.7-.5-7.8-1.1-3.8-2.1-10.7-7.7-10.1-8.3 1.7-1.7 10.1-.4 14.8 2.3m-208.5.7c3.7.7 3 2.4-1 2.4-3.3 0-8-1.9-8-3.2 0-.5 1.4-.7 3-.4 1.7.3 4.4.9 6 1.2m-58.4 3.9c-2.2 1.7-8.4 3.1-9.3 2.1-1.3-1.3 3.3-3.5 7.2-3.5 3.7 0 3.9.1 2.1 1.4M276 315c1.3.8 1.3.9 0 1.4-4.5 1.4-9.5 1.6-12.8.4l-3.7-1.3 6.5-.6c3.6-.3 7-.6 7.5-.7.6-.1 1.7.2 2.5.8m26.4 11.2c1.1 4.3.6 9.3-1.6 13.8-1.5 3.3-2.2 4-2.5 2.7-.3-1-1.6-2.2-2.9-2.7-1.8-.7-2.4-1.7-2.4-3.9 0-3.8.9-6.1 2.4-6.1.6 0 1.9-1.4 2.8-3 2-3.6 3.3-3.8 4.2-.8m112.3 4.9c4.6 2.2 9.9 8.1 8.8 9.9-.8 1.4-11.1 1.3-13.8-.1-5.9-3.1-10.5-8.7-9.1-11 1-1.7 9.7-.9 14.1 1.2M54.9 352.2c.7 2.3 2 5.3 2.9 6.7l1.6 2.6-2.3-2c-3.6-3-6.7-11.5-4.3-11.5.5 0 1.4 1.9 2.1 4.2m49.3.6c1.4.8 3.1 2.6 3.7 3.8.9 2.1.4 2.7-5.7 7.2-8.4 6.2-9.9 6.7-16.1 4.6-9.5-3.1-10.3-5.4-3.2-9.8 2.2-1.4 4.8-3.4 5.8-4.4 4.2-4.4 9.4-4.9 15.5-1.4m356.5 4.7c6 3.1 9.3 6.2 7.2 7-12.6 4.8-15 5.3-19.6 3.9-6.1-1.8-10.8-4.7-10.8-6.5 0-2.2 9.4-6.8 14.1-6.9 2.3 0 6.1 1 9.1 2.5m-273 3.9c.3.2.7 2.3 1 4.5l.6 4.1h-5.7c-6.3 0-9-1-10.6-4-1-1.8-.6-2.3 3.2-4.1 3.8-1.7 10-2 11.5-.5"/></svg>