<svg xmlns="http://www.w3.org/2000/svg" width="682.667" height="512" version="1.0" viewBox="0 0 512 384"><path d="M0 159.2c0 87.6.4 158.8.8 158.3 1.9-2.6 5.4-3.7 8.3-2.5 1.6.7 2.6 1.7 2.2 2.3s.2.8 1.7.4c2.9-.8 7 .8 7 2.8 0 4.1-11.4 20.5-17.5 25.3l-2.5 2V384h163.8l-.5-4.4c-.4-3.3-.1-4.9 1-6 .9-.9 1.8-1.6 2.1-1.6 1.2 0 3.6 6.1 3.6 9v3h342v-85.5c0-81.2-.1-85.5-1.7-84.6-1.6.8-6.6 1.5-8.4 1.2-1-.2 7.8-9.1 9-9.1.8 0 1.1-27.1 1.1-103V0H93.4l.1 2.7c0 4-3.3 4.1-10.2.4L77.6 0H0zm89.8-134c-.6 1.9-5.5 4-8.1 3.6-1.8-.3-1.4-.7 2.3-2.5 5.4-2.5 6.3-2.7 5.8-1.1m28.2 7.6c0 1.4-4.8 3.2-8.5 3.2-4.8 0-4.4-1.7.8-2.8 5.6-1.3 7.7-1.4 7.7-.4M241.5 43c-1.7 2.8-19.5 6.6-19.5 4.2 0-1.5 1-2 7.1-3.6 6.4-1.7 13.3-2.1 12.4-.6M410 47.8c0 2.1-5.5 10.2-6.9 10.2-2.8 0-7.1-1.4-7.1-2.4 0-2.1 5.6-7.7 8.6-8.5 4.5-1.4 5.4-1.3 5.4.7M247 90.2c4.6 2.6 4.9 3.4 1.8 4.4-6.5 2-17.8-.6-17.8-4.2 0-3.2 10.6-3.2 16-.2M129 90c0 .5-2.5 1-5.5 1s-5.5-.5-5.5-1c0-.6 2.5-1 5.5-1s5.5.4 5.5 1M28 111.5c4.1 2.1 6 5.3 6 10.2 0 5.1-1 5.3-6.2 1.8-2.9-1.9-4.1-3.7-5.3-7.7-.8-2.8-1.5-5.3-1.5-5.5 0-.9 4.5-.1 7 1.2m418.8 44.3 2.3 1.8-2.6 1.2c-3.3 1.5-6.9.6-6.1-1.5.3-.8.6-1.9.6-2.4 0-1.5 3.3-1 5.8.9m-194.1 32.8c1.3 3.5-3.5 9-5.9 6.6-1.4-1.4 0-7 2-7.5 3-.8 3.3-.7 3.9.9m-24.9 13.8c2.9.8 5.9 1.9 6.6 2.5.8.6 2.1.9 3 .5 2-.8 3.8 3.6 3.4 8-.3 3.1-.3 3.1-6.3 3.1-8.6 0-12.1-1.8-15.1-7.7-4-7.9-2.2-9.2 8.4-6.4M8.1 205.1c2.7 3.8 1.3 6-2.5 3.9-3-1.6-4-3.8-2.5-5.6 1.7-2 2.5-1.7 5 1.7m365.9 7.3c0 .7-14 26.7-15.8 29.4-1 1.5-3.1 5.2-4.5 8.1-2.1 4.3-2.7 4.9-2.7 3 0-5.4 2.3-14.7 5.2-20.7 3.6-7.6 17.8-23.4 17.8-19.8m-307.7 11c1.2 3.6-1.7 10.6-4.4 10.6-4.5 0-5.3-8.7-1.2-12 3.2-2.5 4.4-2.2 5.6 1.4m214.8 20.8c-.6 1.8-3 6.1-5.4 9.6-4.2 6.3-6.8 7.6-7.5 3.7-.2-1.1-1-2.5-1.7-3.1-1.2-.9-1-1.6.9-4.5 1.3-1.9 3.3-3.5 4.5-3.6s3.8-1.5 5.8-3.2 3.9-2.9 4.1-2.6c.2.2-.1 1.9-.7 3.7m-33.7 3.1c5.7-.2 3 1.4-4.4 2.6-8.4 1.4-15.6 1.4-18.2 0-2-1.1-2-1.1.3-2.4 1.8-1 4.6-1.2 10.4-.7 4.4.4 9.7.6 11.9.5m-39 3.9c-1.2 3.9-3.1 7.2-5.7 9.6l-2.4 2.3-.6-2.2c-1.1-4.2 3.7-11.9 7.5-11.9 1.5 0 1.8.5 1.2 2.2m-64.5 10.5c1.7 1.6 3.1 3.7 3.3 4.8.3 1.7-.2 2-3.2 1.7-2.5-.2-4.4-1.3-6.7-3.9-1.8-2-3-4-2.7-4.4 1.1-1.9 6.4-.8 9.3 1.8M340 273.2c1.2 2.8 2.8 7.1 3.5 9.5l1.4 4.5-2.1-1.9c-5-4.4-7.4-8.9-7-13.2.2-2.2.8-4.1 1.2-4.1s1.8 2.3 3 5.2M148.6 283c4 1.7 6.1 3.6 5.2 4.6-.7.7-14.8-5.8-14.8-6.8 0-1.1 4.2-.1 9.6 2.2m39 23.9c-2.1 2.3-9.3 4.4-10.2 2.9-1.1-1.8 3.9-4.8 8-4.8 3.8 0 3.9.1 2.2 1.9m264.2.1c4 1.1 13.2 7.9 13.2 9.7s-7.2.7-12.5-1.8c-3.7-1.8-10.5-7.2-10.5-8.4 0-.8 6.3-.6 9.8.5m-217.5 6.6c4.3.8 4.8 1.9 1.1 2.8-2.8.8-9.4-1-9.4-2.5 0-1 2.9-1.1 8.3-.3m100.1 4.6c1.1 4.3.6 8.9-1.4 12.8-2.3 4.4-3.5 5-4.3 2-.3-1.3-1-1.8-2.1-1.4-1.3.5-1.6-.2-1.6-4 0-2.9.6-5 1.6-5.8.9-.7 2.6-2.3 3.8-3.5 2.7-2.8 3.2-2.8 4-.1m-48.9 1.8c-.8 1.3-6.3 2.2-11.5 1.8l-4.5-.3 5.5-1.1c7.1-1.5 11.3-1.6 10.5-.4m141.2 30.2c2.2 1.3 5.8 4.2 7.9 6.6 4.6 5.3 3.7 6.5-4.9 5.9-5.2-.3-6.1-.7-10.3-4.8-5.8-5.6-7.1-7.9-5.3-9 2.5-1.6 8.5-.9 12.6 1.3M65.5 363.4c.6 4.5.5 4.9-.9 3.7-1.8-1.5-3.1-7.3-2.1-9.8.5-1.5.8-1.6 1.4-.3.5.8 1.2 3.7 1.6 6.4m77.4-.8c1.7 1.4 3.1 3.4 3.1 4.4 0 .9-2.6 4.1-5.7 6.9-4.6 4-6.5 5.1-9.2 5.1-4.4 0-11.1-1.9-13.4-3.8-1.6-1.4-1.2-2 5-8.4 6.6-6.7 6.8-6.8 11.9-6.8 4.2 0 5.9.5 8.3 2.6m337.6 4.8c4.6 2.1 8.3 5.1 7.4 6-1.2 1.1-13.9 5.6-15.7 5.6-5.8 0-17-5.9-15.6-8.2.3-.4 2.6-1.9 5.2-3.3 6.1-3.1 12.2-3.2 18.7-.1M214 372.5v5.5h-4c-6.1 0-10.2-2.5-9.8-5.8s3.8-5.2 9.6-5.2h4.2z"/></svg>