<svg xmlns="http://www.w3.org/2000/svg" width="682.667" height="512" version="1.0" viewBox="0 0 512 384"><path d="M0 61.9v61.8l9.3.7c13.7 1 19.9 2.7 25.3 7.1 5.2 4.3 9.9 11.1 11.6 16.7 1 3.2.9 4.1-.6 5.7-1.6 1.8-1.7 2.5-.5 7 1.6 6.5.1 12-4.5 16.2-2.8 2.5-3.4 3.9-3.9 8.4-.8 7.7-3.7 12.3-10.6 16.6-4 2.5-6.1 4.6-6.9 6.7-1 3-.9 3.3 2.8 6.2 2.9 2.3 5 3.1 7.9 3.2 4.5 0 9 3.9 11.4 9.8 1.3 3.2 1.3 3.8-.8 7.5-1.2 2.2-3.3 4.6-4.6 5.3-5.3 2.7-14.5 6.6-16.1 6.6-3.8.2-4.5 4.2-1.7 10.3 3.7 8.3 4.1 12.5 4.5 44.3.2 17.3.9 32.8 1.4 34.4.6 1.6 1 4.8 1 7.2 0 3.8-.3 4.3-2.9 5.2s-3 1.7-3.5 5.9-3.8 23.2-4.8 27.3c-.3 1.3 6 1.5 51 1.8l51.2.2v-3.4c0-3.6 1.8-8.6 3-8.6.4 0 .2 2.7-.5 6l-1.3 6h84c58 0 83.7-.3 83.3-1-1-1.6 1.4-4 3.9-4 1.1 0 2.9-.7 3.9-1.5 2.7-2 6.7 0 7.4 3.7l.6 2.8H512v-41.4c0-35.5-.2-41.5-1.5-42.6-1.9-1.6-1.9-4 0-4 1.3 0 1.5-17.1 1.5-148V0H208.8l-1.9 2.4c-1.1 1.4-2.8 2.8-3.9 3.1-2.4.8-7.3-2.3-6.6-4.1C196.9.2 180.8 0 98.5 0H0zM318 9c-1.2 2.2-5.8 5.6-6.6 4.8-.5-.5 6.2-6.8 7.2-6.8.2 0 0 .9-.6 2M137 20c0 1.7-5.1 6-7.1 6-3 0-2.2-1.8 1.9-4.4 4.1-2.8 5.2-3.1 5.2-1.6m31.5 12.5c-3.4 1.6-10.5 2-10.5.6 0-.6 2.1-1.2 4.8-1.4 8.7-.7 8.9-.6 5.7.8m-3.2 7.2c4.5 1.7 7.7 4 7.7 5.5 0 .5-.9.4-1.9-.2-1.1-.5-5-1.4-8.7-1.9-5.3-.8-7.3-1.6-9.3-3.7l-2.6-2.6 5.3.6c3 .4 7.3 1.4 9.5 2.3m138.4 8.9c-1.2 1.3-9.3 2.2-13.4 1.7-7.5-1-4.6-2.3 4.9-2.3 5 0 8.9.3 8.5.6m186.6 15.8c1.2 3.5-.3 5.1-5.4 6-2.8.5-3.9.2-5.4-1.4-1.5-1.7-1.6-2.4-.5-4.9 1.3-3.3 3-4 7.4-3.1 2.1.4 3.2 1.4 3.9 3.4m-324 22.8c1.5 1.1.7 1.2-4.4 1-4.1-.3-5.7-.7-4.8-1.3 2-1.3 7.3-1.1 9.2.3m139.5 7.1c1.7 1.7 3.2 3.5 3.2 4s-2.5.7-5.7.5c-4.8-.4-6.1-1-8.6-3.8-2.8-3.1-2.9-3.4-1.1-4.1 3.3-1.4 8.8.1 12.2 3.4M92.4 114.6c2.9 3 3.3 5.9 1.2 10.9-1.8 4.3-2.9 4.3-6.7.6-3.7-3.7-4-9-.7-12.1 2.8-2.6 3-2.5 6.2.6m218.3 88c.6 1.7-3.6 6.4-5.7 6.4-2.8 0-3.2-1.5-1.3-4.9 1.4-2.4 2.4-3.1 4.2-2.9 1.4.2 2.6.8 2.8 1.4m164.8 2.8c1.9.8 3.5 2.2 3.5 3 0 1.3-1.3 1.6-6.4 1.6-6.6 0-8-.7-7-3.4.5-1.3 1.6-1.7 5.7-2.5.4 0 2.3.6 4.2 1.3m-342.4 5.4c-1.9 4.5-5.5 7.5-8 6.7-2.1-.6-2.7-2.9-1.4-6 .8-2.2 8.5-5.7 9.7-4.5.5.5.4 2.1-.3 3.8M47 217.5c.7.9 1 1.8.7 2.2-.8.8-6.7-1.7-6.7-2.8 0-1.5 4.7-1 6 .6m241.6 3.4c-.9 1.7-2.1 3.1-2.6 3.1-1.5 0-1.2-2.8.6-5.6 2.4-3.6 4-1.5 2 2.5m20-1.7c4.5 3.1 5 3.8 6.5 9.8.9 3.6 1.3 6.9.9 7.4-1.2 1.3-11.9-2.3-14.5-4.8-2.4-2.4-4.4-12.3-3-14.5 1.2-2 5.2-1.1 10.1 2.1m63.8 12.9c7.6 2.3 11.5 4.7 9.4 6-2.4 1.5-18.4.4-21.2-1.4-3.5-2.3-3.3-4.1.7-5.4 1.7-.5 3.4-1.1 3.6-1.2.2 0 3.6.8 7.5 2m-170.9 21.3c.7 1.1 1.5 3.2 1.7 4.6.3 2.3 0 2.5-3.2 2.2-5.7-.5-9-6-5.3-8.7 2.1-1.6 5.1-.8 6.8 1.9M401 258c0 1.1-3 4-7.8 7.7-3 2.4-3.4 2.5-5.1.9-.9-.9-2.3-1.6-2.9-1.6-4.3 0 3.4-6.4 7.9-6.6 1.6-.1 3.2-.4 3.6-.8 1-1 4.3-.7 4.3.4m-138 8.4c0 1.2-.6 3-1.3 4-1.2 1.6-1.6 1.7-3.5.5-3.4-2.1-2.6-6.2 1.3-7.1 2.7-.6 3.5-.1 3.5 2.6m-12 17.1c0 5.7-13.5 8.9-20 4.7l-2.5-1.6 3-.8c1.7-.5 4.7-.6 6.8-.3 2.7.4 3.7.2 3.7-.8 0-1.6 3.6-3.5 6.8-3.6 1.7-.1 2.2.5 2.2 2.4m166.3 2.7c.7 2.4-.9 11.8-2.1 13-.5.5-1.8-.5-3-2.1-2.4-3.3-2-5.7 1.5-10.6 2.2-3 2.9-3.1 3.6-.3M271 321c-2 1.3-8.7 1.3-7.4.1.9-.9 7.4-1.9 8.4-1.3.2.2-.2.7-1 1.2m128 10.9c1.3 3.3.8 5.5-2 9-2 2.3-2.1 2.3-4 .6-2.4-2.1-2.5-4.4-.6-9 1.9-4.4 4.9-4.7 6.6-.6m-81.5-.9c-.8 1.3-7.2 4.5-10.7 5.4-4.8 1.1-3-1.2 2.5-3.2 2.8-1.1 5.9-2.2 6.7-2.5 2.2-.8 2.2-.8 1.5.3M66 346.7c1.7 2.6 3 5.5 3 6.5 0 2.1-2.8 9.5-4.6 12.1-1.1 1.7-1.4 1.6-2.9-1.7-1.7-3.6-3.2-4.2-8.7-3.7-1.1.1-1.8-.9-2.3-2.9-.8-3.8.2-10.3 1.6-9.5 1.7 1.1 5-.6 5.9-3.1 1.5-3.9 4.6-3 8 2.3m160 19.8c0 5.4-1.8 9.7-3.9 9.3-2.3-.5-1.9-8.9.6-12.1 2.4-3.3 3.3-2.5 3.3 2.8"/><path d="M18.9 216.9c-2.5 2.7-3 7.2-1.3 11.6 1.2 3.2 2 4 4.2 4.2 1.4 0 3.9-.8 5.4-1.9l2.8-1.9-2.2-3c-1.7-2.3-2-3.2-1-3.8s.3-1.6-2.3-3.9c-2-1.8-3.7-3.2-3.8-3.1-.1 0-.9.9-1.8 1.8M0 366v18h6.9l.3-17.2c.2-10.8-.1-17.6-.7-18-.5-.4-2.2-.8-3.7-.8H0z"/></svg>