<svg xmlns="http://www.w3.org/2000/svg" width="682.667" height="512" version="1.0" viewBox="0 0 512 384"><path d="M0 62.1v62l4.2-3.3c10-7.9 19.4-12.8 31.5-16.4 12-3.6 33.1-4.5 46-1.9 7.8 1.5 9.8 2.4 17.8 7.8 7.6 5.3 9.5 7.2 12.7 12.7 2.9 5 3.7 7.5 3.7 11-.1 2.5.4 5.7.9 7.1.9 2.3 1.5 8.6 1.3 13-.1.9-1.5 3.3-3.1 5.4-2.6 3.3-3 4.6-3 9.9q0 13.35-9.9 19.8c-3.2 2-5.4 4.3-5.7 5.8-.4 1.4-1.8 5.1-3.2 8.3l-2.5 5.8 4.5 4.7c6.5 6.7 7.1 8.1 5.2 12.8-1.3 3.3-2.9 4.6-10.1 8.7-7.1 4-9 4.7-10.8 3.9-1.7-.8-2.4-.6-3.3.9-.8 1.2-.8 2-.1 2.4.5.4.7 1.5.4 2.4-.3 1 .6 4.2 1.9 7.2 3.7 8 4.6 16 4.6 39.6 0 11.9.4 21.4.9 21.8.5.3 1.3 1.9 1.6 3.6.4 1.8 1 2.7 1.4 2.2.8-1.3 11.3-8.3 12.4-8.3 1.3 0-2.9 5.4-10.5 13.7-6.1 6.5-6.9 7.8-6.3 10.1.4 1.5.9 5.7 1.2 9.4.4 6.5.3 6.8-2.1 7.9-2.3 1.1-2.4 1.5-1.9 6 .5 4.1-.6 15.6-2.3 23.6L77 384h77.7l.6-2.9c.8-3.6 5.6-9.5 5.7-6.8 0 1-.9 3.6-2 5.7l-2 4h355V220l-2.3.6c-2.4.5-12.3-2.1-13.2-3.6-.3-.4.9-1.3 2.5-2 2.9-1.2 7.9-1 11.3.5 1.6.7 1.7-4.8 1.7-107.4V0H0zm228.5-50.2c1.6.7 1.4.9-1.6 1.5-3.8.7-6.9 0-6.9-1.5 0-1.1 5.7-1.1 8.5 0m-52.5 2c0 2.4-4.7 8.1-6.6 8.1-2.3 0-1.6-2.7 1.7-6.5 3.5-3.9 4.9-4.4 4.9-1.6m218.1 0c-1.3 2.4-7.9 6.3-9.9 5.9-.9-.2.9-1.8 4.4-3.9 3.2-2 6-3.7 6.2-3.8.1-.1-.2.7-.7 1.8m-135.8 2.8c1.4.8.7 3.2-1.3 3.8s-8-1.9-8-3.4c0-.5.6-1.2 1.3-1.4 1.2-.6 6.5.1 8 1m90.2 27.5c1.4-.3 1.7-.2 1 .7-1.6 1.7-9.6 2.4-13 1.1-4.3-1.6-1.6-2.8 4.7-2 2.9.4 6.2.5 7.3.2M232.3 69.5c6.9 1.3 5.3 2.7-2.4 2-9.2-.8-11.3-1.5-7.9-2.6 1.4-.4 3.4-.6 4.5-.4s3.7.7 5.8 1m-44 19c.1.6-1.3 1.1-3 1.3-3.7.4-4.5-1.4-1-2.1 2.9-.5 3.8-.4 4 .8M342.2 97c.9 1.9 1.3 3.9.9 4.3-1.3 1.4-6-.4-8.1-3-3.1-4-2.6-5.5 1.7-5.1 3.2.3 4.1.8 5.5 3.8m-197 18.5c1 2.2.8 3-1.8 6.2-4.1 5-6.2 6.2-7.4 4.3-1.8-2.8-1.1-6.7 1.9-9.9 3.5-3.8 5.8-3.9 7.3-.6m36.8 84.6c0 3.3-5.5 7.9-9.5 7.9-2.1 0-1.9-3.3.3-5.3 3.2-2.9 9.2-4.7 9.2-2.6m153.7 15.6c.7 1.9-2.9 5.3-5.8 5.3-2.7 0-2.4-1.7.9-4.5 3.2-2.9 4.1-3 4.9-.8m123.4.8c4.7 2.5 6.9 5.3 6.9 9.2 0 1.3-1.1 1.5-7 1.1-8.4-.6-12-2.6-12-6.7 0-2.8 3-5.9 5.8-6 .7-.1 3.5 1 6.3 2.4M320 221.8c0 1.5-4.8 5.4-6.2 5-.8-.3-.4-1.3 1.4-3.1 2.7-2.7 4.8-3.5 4.8-1.9m43 3.4c2.3 3.2 3 5.2 3 8.9 0 2.6-.3 5.4-.6 6.3-1 2.7-5.2 1.8-9.2-1.8-3.4-3.2-3.7-3.9-3.6-8.4.3-10.1 5.1-12.4 10.4-5m-109.2 9.5c.3 2.6-.1 3.1-2.3 3.5-1.8.4-3 0-4-1.6-1.9-2.6-1.9-3.1.2-5.6 1.5-1.7 2-1.8 3.8-.6 1.1.7 2.1 2.7 2.3 4.3m36.2 29.6c0 3.6-1.5 5.7-4.1 5.7-1.7 0-2.9-1.9-2.9-4.5 0-2 2.8-4.5 5.1-4.5 1.5 0 1.9.7 1.9 3.3m15.8 1.5c.3 1.9-.1 2.3-1.5 2-1-.2-1.9-1.4-2.1-2.6-.3-1.9.1-2.3 1.5-2 1 .2 1.9 1.4 2.1 2.6m165.2 1.1c0 1.2-4.9 2.5-8.5 2.2-3.7-.3-4.4-.9-2.5-2.1s11-1.3 11-.1m-158.3 8.2 2.8 1.1-3.3 2.7c-2.7 2.3-3.9 2.7-6.5 2.2-4.3-.9-4.5-3.3-.5-5.3 4.1-2 4-2 7.5-.7m146.4 17.8c-1.9 3.6-4.6 6.1-6.7 6.1-1.2 0 .6-6.3 2.4-8.3 2-2.3 5.6-3.8 6-2.7.2.5-.6 2.7-1.7 4.9M202 319.8c3.9 3.8 4 4.1 4 10.5 0 3.7-.4 6.7-.8 6.7-.5 0-1.9-1.2-3.3-2.6-1.9-2-3.1-2.5-5.8-2.2-3 .4-3.5.1-4.7-2.9-2-4.6-1.8-5.8 1.1-7.1 1.4-.6 2.5-2 2.5-3 0-4.3 1.9-4.2 7 .6m85.5.2c-2.8 1.2-3.7 1.2-3 0 .3-.6 1.6-1 2.8-.9 2.1 0 2.1.1.2.9m45.5 15.9c0 2.5-11.2 9.2-12.8 7.6-.8-.8 3.9-4.8 8.3-7 3.5-1.7 4.5-1.8 4.5-.6m83.2 14.8c2.4 2.2 2.3 3.9-.7 6.9-2 2-2.8 2.3-4.5 1.4-2.6-1.4-2.5-4 .1-7.4 2.4-3.1 2.7-3.1 5.1-.9M259 354.6c0 2.8-3.8 10.4-5.2 10.4s-.9-2.9 1.3-8.1c2.4-5.4 3.9-6.3 3.9-2.3M409.8 370c.3 7.2-1.2 12-3.8 12-2.7 0-4.4-2.5-2.6-3.9.7-.6 1.7-3.9 2-7.3.8-7 1.3-8.1 2.9-7.5.7.2 1.3 3 1.5 6.7"/><path d="M82.5 216.1c-.4.6-1.3.8-2.1.5-1.6-.6-1.8 1.2-.5 3.3 1.1 1.8 6.1 2.4 7.8.9 1.1-.9 1-1.5-.8-3.5-2.5-2.5-3.5-2.8-4.4-1.2M42 239.5c-.9 1.1-.8 1.9.4 3.7 1.1 1.5 1.6 1.7 1.6.8 0-.8.3-2.5.6-3.8.7-2.5-.7-2.9-2.6-.7m-4 1.6c0 .5.5.7 1 .4.6-.3 1-.8 1-1.1 0-.2-.4-.4-1-.4-.5 0-1 .5-1 1.1M0 267.3v22.8l5.8-3.9c6.8-4.7 16.6-14.2 22.2-21.5l3.9-5.3-1.5-6.7c-1.4-6-1.8-6.7-4-6.7-3.6 0-3.8.2-3.5 3.6.2 2.4-.4 3.7-2.9 5.8-3.6 2.9-5.2 3.2-6.9 1.2-1.6-1.9-.1-5 4.1-8.9 3.5-3.1 4-2.9-8.9-3.1l-8.3-.1zM0 364v20h43.7l-1.3-6.8c-.7-3.7-1.3-9.9-1.4-13.8 0-5.4-.4-7.5-1.7-8.5-.9-.8-5.5-1.7-10.2-2.2-13.3-1.1-13.3-1.1-19.1-5-3-2-6.5-3.7-7.7-3.7H0zm54.7-11.3c-.4.3-.7 7.5-.7 16V384h14v-5.3c0-3-.3-10.2-.7-16l-.6-10.7H61c-3.1 0-6 .3-6.3.7"/></svg>