<svg xmlns="http://www.w3.org/2000/svg" width="682.667" height="512" version="1.0" viewBox="0 0 512 384"><path d="M0 65.2v65.2l4-4c2.2-2.1 4-4.5 4-5.2 0-.6.4-1.2 1-1.2.5 0 4-2.3 7.7-5.1 8.6-6.4 22.5-13.2 32.8-16 6.4-1.8 10.9-2.2 23-2.3 22-.1 27.2 1.1 39.4 9.2 8.6 5.7 10.4 7.4 13.6 12.8 2.3 4 4 8.4 4.5 12.1.5 3.2 1.4 7.4 1.9 9.3 1.9 6.1 1.3 11.4-1.5 15.6-2 2.9-2.9 5.8-3.5 11.5-1.1 10.9-4.2 16.3-12.1 21.2q-2.7 1.65-4.2 6.6c-1.7 5.9-3.9 10.3-6 12-1.3 1.1-.9 2 3.5 6.4 4.6 4.6 5 5.5 4.5 8.5-.8 5.2-2.8 7.5-10.6 12-8 4.7-9.5 5-12.2 2.5-1.7-1.5-1.8-1.5-1.8.5 0 1.2-.5 2.2-1.2 2.2-.9 0-.9.3 0 1.2.7.7 1.2 2.7 1.2 4.4 0 1.8.4 3.6 1 3.9.5.3 1.9 3.6 3.1 7.3 2.7 8.5 3.5 28.8 2.1 52.2-.9 14-.8 16.7.4 18.1.9 1 1.3 2.8.9 4.7-.3 1.7-.1 3.4.5 3.7.5.3 1 .3 1.1-.2 0-.4.2-2.6.4-4.8.1-2.1.8-4.1 1.5-4.3.7-.3 2-1.3 2.8-2.3.9-1.1 2.4-1.9 3.4-1.9s4-1.6 6.7-3.5c2.6-1.9 5.1-3.5 5.5-3.5 1.1 0-6.2 10-13.2 18.2-3.7 4.3-7.2 7.8-7.9 7.8-.9 0-1.3 1.8-1.3 6 0 4.8-.4 6.1-1.9 7-1.7.8-1.9 1.9-1.6 7.7.2 3.8-.3 10.5-.9 15l-1.3 8.3h35.4c30.9 0 35.3-.2 35.3-1.5 0-1.9 4.1-8.3 5.7-8.9 2-.8 1.5 1.3-1.2 6.1l-2.6 4.3H512V217.3l-4-1.2c-2.2-.6-4-1.5-4-2 0-.9 4.5-3.1 6.5-3.1 1.3 0 1.5-13.9 1.5-105.5V0H0zM238.6 6c.8 0 1.4.4 1.4 1 0 1.1-4.9 1.4-7.4.4-2.9-1.1-1.7-2.7 1.5-2 1.7.3 3.8.6 4.5.6m169.5 6.4c-1.9 2.2-9.9 5.9-11.2 5.1-.6-.4 1.6-2.1 5.2-3.9 6.8-3.3 7.9-3.5 6-1.2M180.8 15c-1.6 4.8-6.8 7.5-6.8 3.5 0-1.9 5.8-7.8 6.9-7.1.6.4.6 1.7-.1 3.6m83.3 4c2.8 1.6 2.3 3-1.2 3-3.6 0-7.2-1.7-6.4-3.1.8-1.2 5.1-1.2 7.6.1m91.2 23.9c-2.9 1.5-10.8 1-12.6-.8-.9-.9.9-1.1 7-.9 7.6.3 8 .4 5.6 1.7M246.7 72.2c2.8 1.2 2.8 1.2-1.7 1.6-6.4.5-15.7-.7-13.9-1.9 2.1-1.3 12.3-1.1 15.6.3m-55.2 15.4c2.3.9 0 2.4-3.7 2.4-3.1 0-3.8-1.6-1-2.3 2.7-.7 2.9-.7 4.7-.1M344.8 94c1.9 1.8 2.4 3.4 2.1 6.7-.1 1.3-4.2.4-6.1-1.4-1-.9-1.8-2.6-1.8-3.8 0-4 2.4-4.6 5.8-1.5M153 116.3c0 2.3-6.6 9.7-8.6 9.7-1.8 0-2.6-3.3-1.5-6.2.5-1.4 2.4-3.7 4.1-5.2 2.5-2.1 3.5-2.4 4.6-1.5.8.6 1.4 2.1 1.4 3.2m37 82.4c-.1 1.6-2.6 4-5.7 5.6-3 1.6-6.3 2.2-6.3 1.2 0-1.7 2.6-5.5 4.4-6.3 2.5-1.2 7.6-1.5 7.6-.5m282.5 11.8c5.5 3.3 6.2 4.2 6.7 8.4.3 3.3.2 3.3-4.2 3.7-6.4.5-13.4-3-13.8-6.9-.2-2 .4-3.6 2-5.2 3-3 4.1-3 9.3 0M337 218.4c0 2.2-2.9 4.6-5.6 4.6-3.3 0-3-1.4.9-3.8 3.9-2.5 4.7-2.6 4.7-.8m31.8 3.9c4.7 5 5.2 8.6 2.6 18.4-.6 2.4-3.6 1.3-7.6-2.7-3.8-3.8-4-4.3-3.6-8.5.6-4.9 3.1-9.5 5.1-9.5.8 0 2.3 1 3.5 2.3m-44.8-.6c0 1.2-4.3 5.3-5.7 5.3-2.1 0-1.5-1.7 1.3-3.9 2.7-2.1 4.4-2.7 4.4-1.4m-61.2 8.2c.3 2.9.1 3.1-2.7 3.1-4.2 0-5.8-3-3.5-6.5 1.5-2.3 1.9-2.4 3.8-1.2 1.2.8 2.2 2.7 2.4 4.6M296 260c0 3.2-.5 4.3-2.6 5.6-2.2 1.5-2.7 1.5-3.5.3-1.5-2.4-1-5.7 1.3-7.9 3.4-3.1 4.8-2.6 4.8 2m15.8 3.2c1.4 1.4 1.6 3.8.3 3.8-1.5 0-4.2-3.1-3.6-4.1q1.2-1.8 3.3.3m170.2 2.7c0 1.2-8.5 2.6-9.9 1.6-.6-.3-.9-1.1-.6-1.6.8-1.2 10.5-1.2 10.5 0m-156.3 7.7c.5 1.4-6.1 5.4-9 5.4-5.2 0-4.1-4.1 1.7-6.5 3-1.3 6.7-.7 7.3 1.1M466 288.1c0 2.2-4.1 7.8-6.1 8.4-2.6.8-3.3.2-2.5-2.3 1.5-4.5 8.6-9.6 8.6-6.1m-241.6 25.1c2.9 2.7 3.9 4.4 4.8 9 1.5 7.4.2 9.5-3.7 5.8-1.8-1.7-3.6-2.3-5.8-2.2-2.8.2-3.4-.3-5.1-3.7-1.9-4-1.6-6.1 1-6.1.8 0 1.4-1 1.4-2.3 0-4.7 2.3-4.9 7.4-.5M290 319c-.8.5-2.2 1-3 1-1.3 0-1.3-.1 0-1 .8-.5 2.2-1 3-1 1.3 0 1.3.1 0 1m43.1 18.8c-1.4 2.6-6 5.9-9.4 6.7-5.5 1.4-2.5-2.5 5.3-6.9 4.9-2.8 5.7-2.7 4.1.2M261 358c-.7 1.6-2 3.6-3.1 4.6-2.8 2.5-2.5.1.8-6.6 2.2-4.6 2.7-5.1 3.1-3.2.2 1.3-.2 3.7-.8 5.2m158.8-5.8c2.9 2.9-.6 8.3-5 7.6-3-.4-3.4-2.8-.8-6.1 2.3-2.9 3.9-3.4 5.8-1.5m7 14.2c.2 4.9-.1 7.5-1.3 9.2-2.3 3.6-3.8 3-3.1-1.4.3-2 .8-6.3 1.2-9.5.9-7.9 2.8-6.9 3.2 1.7"/><path d="M92.8 215.7c-1.4.4-1.6.8-.7 2.4.5 1.1 1.5 1.7 2.1 1.3.5-.4 1.3-.2 1.7.4.4.7 1.2.6 2.5-.4 1.6-1.1 1.7-1.6.6-2.9-1.2-1.5-2.8-1.7-6.2-.8M0 265.9c0 15.5.3 28.1.8 28.1.4 0 4.3-2.1 8.6-4.6 7.8-4.5 23.3-18.5 29.8-26.7 3-3.8 3-3.9 1.8-9.6-.7-3.2-1.5-6.3-1.9-7-1.3-2-11.1-3.2-16.8-2.1-5.5 1.2-4.6 1.4-21-5.7-1-.4-1.3 5.5-1.3 27.6m27.8-14.3c.2 2.5-.3 3.7-2.4 5.3-2.8 2.2-6.9 2.8-7.9 1.1-1.4-2.2 5.6-10.2 8.5-9.7.9.1 1.6 1.5 1.8 3.3m25.6-10.2c-.4 1-.2 2.2.4 2.8.8.8 1.3.7 1.8-.6.4-1 .2-2.2-.4-2.8-.8-.8-1.3-.7-1.8.6M0 364.9V384h54.2l-.6-3.2c-.3-1.8-.9-7.9-1.2-13.5-.4-5.7-1.2-10.7-1.8-11.2s-5.7-1.1-11.3-1.3c-9.9-.5-10.2-.6-15.4-4.4-5-3.7-5.6-3.8-14.6-4.2l-9.3-.4zm65.7-5.9c-.9 7.9-.9 17.8-.1 21.9l.7 3.1h14l-.7-6.1c-.3-3.4-.6-9.6-.6-13.8s-.4-8.2-.9-8.9c-.4-.7-3.3-1.6-6.3-1.9l-5.5-.5z"/></svg>