<svg xmlns="http://www.w3.org/2000/svg" width="682.667" height="512" version="1.0" viewBox="0 0 512 384"><path d="M0 94.5c0 52 .3 94.4.7 94.4 2.5-.4 4.1.4 5.3 2.6 1.7 3.2 0 5.4-3.5 4.7l-2.5-.4v113.9l8.8-3.3c26.9-10.5 45.2-23.3 60-42.5l5.1-6.6-1.3-8.2c-.7-4.8-1.9-8.7-2.7-9.2-2-1.2-8.3-1.1-11.3.2-3 1.4-9.5-.6-20.6-6.2-5.6-2.8-9.6-5.9-15.7-12.1-8-8.1-8.2-8.5-10.7-17.3-5.2-18.5-5.5-26.9-1.9-44.3 8.3-40.5 40.9-71.8 83-79.8 11.2-2.1 32.2-1.4 43.4 1.4 11.1 2.7 27.8 12.9 32 19.4 1.7 2.7 3.8 5.2 4.7 5.7 2.1 1.2 6.2 18.1 6.9 28.3.4 6.6.2 8.2-1.5 11-1.3 2.1-2.3 6.1-2.8 10.8-.9 10.2-3.9 16.7-10.2 22-4.1 3.4-5.4 5.3-6.6 9.4-1.9 6.4-6.9 14.1-10.6 16.3l-2.8 1.6 2.5 3.4c2.3 3 2.4 3.6 1.4 8-.9 3.8-1.9 5.3-4.9 7.3-2 1.3-5.6 3.9-7.9 5.7-5 4-6.8 4.1-10.5.6-2.3-2.2-2.8-2.4-2.8-.9 0 .9-.4 1.4-1 1.1-1.6-1-1.1 1.7.7 3.7.9 1 1.7 3 1.9 4.6.1 1.5 1.5 5.8 3 9.7 2.6 6.6 2.7 8 2.8 23.5.1 18-2 54.1-3.4 59.1-.7 2.2-.5 4.2.7 7 1.7 4.3 1.9 8.8 1.1 30.6l-.4 14.3H512V0H0zM197 4.9c0 2.1-4 8.3-5.7 8.9-2.3.7-1.4-5.3 1.2-8.2 2.8-3.1 4.5-3.3 4.5-.7M278.5 24c.3.5 0 1-.7 1s-2.5.7-4 1.4c-1.7.9-3 1.1-3.4.5-.3-.5 1-1.6 2.8-2.4 4-1.7 4.5-1.8 5.3-.5m101.3.2c-.7 2-8.4 2.2-11 .4-2.1-1.5-1.9-1.6 4.6-1.6 5 0 6.7.3 6.4 1.2M292 63c1.2.7 1.2 1.2.3 2.1-1.6 1.6-16.5 2.5-18.9 1.1-1.7-1-1.6-1.2 1.6-2.6 3.9-1.7 14.7-2.1 17-.6m-92 21.5c0 1.7-3.9 3-5.2 1.7s1.8-4.3 3.7-3.6c.8.4 1.5 1.2 1.5 1.9m155.5 11.4c-.7 3.2-2.3 3.9-4.3 1.9-1.7-1.7-1.5-4.4.4-6.3 2.5-2.5 4.9.2 3.9 4.4m-142.7 95.3c-.6 1.7-6.9 4.8-9.8 4.8l-2.5-.1 3.3-2.9c3.3-3 9.8-4.3 9-1.8m72.6 17.4c1.9.7 2.1 5 .4 5.7-2 .7-4.8-1.2-4.8-3.2 0-2.9 1.3-3.7 4.4-2.5m106.2 8.9c.7 1.9 1.4 4.4 1.4 5.5 0 2.3-4.4 11.5-5.9 12.4-1.3.8-5-4.5-5.7-8.3-.9-4.1 4.5-13.1 7.8-13.1.5 0 1.6 1.6 2.4 3.5m-58.5 3.5c-2.4 2.1-5.1 2.6-5.1 1.2 0-1.1 3.9-3.1 6-3.1 1 0 .8.6-.9 1.9m0 6c-2.4 2.1-6.1 2.7-6.1 1.1 0-1 4.5-2.9 7-3 1 0 .7.6-.9 1.9m-22.3 17.9c.3 3.1-1.9 7.1-3.8 7.1-1.6 0-1.8-6.5-.3-8.8 1.9-3.1 3.7-2.3 4.1 1.7M39.7 256.7c.8 2.2-3.1 5.3-6.8 5.3-5.2 0-4.6-2.8 1.1-5.3 4.6-2 4.9-2 5.7 0m288.6 1.9.5 2.6-2-2c-1.1-1.1-1.7-2.5-1.4-3.1 1-1.6 2.3-.5 2.9 2.5m30.3 3.5c.8 1.3-7.9 9.9-10.1 9.9-.9 0-1.5-.9-1.5-2.5 0-1.8 1.2-3.4 4.2-5.5 4.4-3.2 6.3-3.7 7.4-1.9M479 283.8c0 1.1-2.8 3.6-5.9 5.2-2.4 1.2-4.5.3-3.3-1.6 2.1-3.1 9.2-5.8 9.2-3.6m-186.4 10.8c2.1 2.6 4.4 8.7 4.4 11.6 0 1.4-.5 1.4-4.2.1-5-1.7-5.7-2.3-8.8-8-2-3.6-2.1-4.4-1-5.8 1.9-2.3 6.9-1.2 9.6 2.1m0 19.9c-2.2 1.7-5.6 2-5.6.6 0-.8 1.9-1.4 6.5-1.9.6-.1.1.5-.9 1.3m-130.9 14.2c-.3 1-.8 3.5-1.2 5.7-.7 4.3-8.5 20.6-9.8 20.6-1.7 0-4.6-4.5-4.7-7.1 0-3.8 5.6-14.3 9.6-17.8 3.9-3.5 6.8-4.1 6.1-1.4m171.3 11c0 2.8-4.3 7.3-8 8.4-5.3 1.6-6 .6-2.4-3.2 3.6-3.9 10.4-7.2 10.4-5.2m145.1 1.5c1.9 3.4 3.9 12.8 3.1 14.6-.4 1.2-.8.9-1.5-1.3-1.1-4-3.5-15.5-3.1-15.5.2 0 .9 1 1.5 2.2m-37.6 3.4c3.2 2.1 3.1 2.6-.4 4.7-6.1 3.6-10.4.8-6.1-3.9 2.8-2.8 3.3-2.9 6.5-.8m-175.9 11.2c-1.6 3.1-5.4 6.8-6.1 6-.7-.7 5.3-8.8 6.5-8.8.6 0 .5 1.1-.4 2.8M181 371.5c0 .9-7.2 8.5-8.1 8.5-1.8 0-.8-2 2.6-5.5 3.2-3.1 5.5-4.4 5.5-3"/><path d="M87 240c-.9.6-1 1-.3 1 .6 0 1.5-.5 1.8-1 .8-1.2.4-1.2-1.5 0M.1 359.7 0 384h85.9l-.3-10.3-.4-10.2-7.1.3c-4 .2-7.1-.1-7.1-.6s-1-.7-2.2-.5c-1.5.2-4.3-.9-7.8-3.2-3-2-6.5-3.8-7.8-4.2-3.7-.9-17.3.3-22 2-4 1.4-5.2 1.4-15-.4-12.7-2.2-14.1-3.4-14.3-11.3-.1-2.8-.5-6.2-.9-7.6-.5-1.4-.8 8-.9 21.7m102.1.5c-.8.8-1.2 5-1.2 12.5V384h14.2l-.6-9.8c-1.1-15.5-.9-15.2-6.5-15.2-2.6 0-5.2.5-5.9 1.2"/></svg>