<svg xmlns="http://www.w3.org/2000/svg" width="682.667" height="512" version="1.0" viewBox="0 0 512 384"><path d="M0 95.5v95.4l2.5 2.5c2.7 2.8 2.4 5.6-.6 5.6-1.8 0-1.9 1.7-1.9 57v56.9l3.5-2.4c2-1.3 6.8-3.6 10.8-5.1 24.5-9.3 44.5-23.2 60.2-42.2 5.1-6.2 5.2-6.3 4.4-11-.5-2.6-1.1-6.8-1.4-9.5-.7-5.3.4-4.9-13.5-5.1-7.7-.1-9.3-.5-17-4.1-6.8-3.1-10.2-5.6-17.3-12.5-4.9-4.7-9.5-9.6-10.2-11s-2.5-7.7-4-14c-2.5-10.3-2.7-12.7-2.1-23 .9-18.7 5.5-33.1 15.2-48.6 14.8-23.6 37.7-40 65.4-47 10.6-2.7 37.1-2.7 48.5 0 8.8 2 18.5 6.9 30.2 15.1 5.3 3.7 11.8 15.9 14.9 28 3 11.6 3.1 18.6.3 23.2-1.5 2.3-2.4 6.2-3 12-1.1 10.4-4.4 17.3-10.6 21.6-2.3 1.7-4.7 4.4-5.3 6.1-3.9 10.8-9 18.3-14.8 21.5-1.5.9-1.5 1.1.1 2.8 1.9 2.2 2.3 9.3.7 12.2-.5 1-4.6 4.6-9 7.9-8 6-8.2 6.1-11 4.7-1.6-.8-3.1-2.4-3.5-3.5-.7-2.1-2.5-2.8-2.5-.9 0 .5-.4.8-.8.5-1.4-.9-.1 5.3 1.4 6.5.8.6 1.4 2.2 1.4 3.6 0 1.3 1.1 5 2.5 8.2 4.5 10.7 5.5 26.4 3.4 52.1-3 37.2-3 38.3-1.4 43.4 1.6 5.3 2.1 16.6.6 16.6-.4 0-.8 5.6-.8 12.5l.1 12.5H512V0H198v3.2c-.1 3.3-1.1 5.2-4.2 7.7-1.6 1.2-1.8 1-1.8-2.1 0-2.5.8-4.3 2.6-6.2l2.7-2.6H0zm384-77c-1.6 1.9-8 1.9-10.6 0-1.7-1.3-1.3-1.4 5-1.5 6 0 6.7.2 5.6 1.5m-104 5.3c0 .4-1.5 1.2-3.2 1.8-1.8.6-4.2 1.4-5.3 1.8-1.5.6-1.3.2.8-1.8 2.6-2.4 7.7-3.6 7.7-1.8m20 31.5c1.9.7 3.5 1.6 3.5 2.1 0 2.6-16 4.8-19.3 2.7-1.6-1 .6-3.1 5.2-4.7 4.1-1.5 6.4-1.5 10.6-.1m-98.7 25.3c1.2 1.2-.6 3.4-2.9 3.4-2.6 0-2.7-.1-1.8-2.4.6-1.6 3.5-2.2 4.7-1m155.5 11.5c.1.9-.5 2.6-1.5 3.8-1.8 2.2-1.9 2.2-3.6.4-1.5-1.8-1.5-2.1-.1-4.2 1.8-2.4 4.7-2.5 5.2 0m-139 95.7c.4 1.3-4 3.7-8.5 4.5-4.6.9-3.3-2 2.1-4.4 4.3-2 5.7-2 6.4-.1m71.2 18.7c1.5 1.8.6 4.5-1.3 4.5-2 0-4-2.7-3.3-4.5.7-1.9 3-1.9 4.6 0m106.1 8.6c1.4 4.8.8 7.9-2.2 12.8-1.8 2.8-3.6 5.1-4.1 5.1-1.4 0-4.8-6.3-4.8-8.9 0-4.4 6.7-12.7 9.5-11.8.5.2 1.2 1.4 1.6 2.8m-61.1 5.4c-1.4 1.7-5.5 2.1-4.5.4.8-1.1 4.8-2.9 5.4-2.3.2.2-.2 1-.9 1.9m-2.4 7.1c-2.1 1.5-6.6 1.9-6.6.6 0-.9 7.2-3.1 8-2.4.3.2-.4 1-1.4 1.8M313 241.1c0 3.8-1.6 6.9-3.5 6.9s-2.1-7-.3-8.8c2.2-2.2 3.8-1.3 3.8 1.9m17.7 15.9c1.2 3.1.6 3.9-1.5 1.8-1.3-1.3-1.6-4.8-.4-4.8.4 0 1.3 1.3 1.9 3M40 258.9c0 2.2-1.9 3.1-6.6 3.1-4.3 0-4.4-1.7-.1-3.5 4.5-2 6.7-1.9 6.7.4m325 1.4c0 1.5-9.2 9.7-10.9 9.7-1.2 0-1.4-3-.3-4.5 3.3-4.7 11.2-8.3 11.2-5.2m114.9 23.3c-2.5 3-8.9 5.5-8.9 3.4 0-1.9 4.5-5 7.3-5 2.6 0 2.8.2 1.6 1.6M301.3 291c2.3 1.8 7.4 12.7 6.4 13.6-.7.7-7.1-2.4-9-4.3-3.8-3.9-6.5-9.1-5.4-10.2 1.7-1.7 5.2-1.3 8 .9m-8.7 22.5c-1.8 1.4-6.6 2.1-6.6 1 0-.5 5.7-2.3 7.5-2.4.6 0 .1.6-.9 1.4m-126.9 22.9c-.7 8.2-5.6 21.9-8 22.4-2.3.5-4.7-3.8-4.7-8.1 0-4.1 3-10.7 7.9-17.5 4.6-6.2 5.5-5.6 4.8 3.2m324.3 5.4c1.7 6.2 2.4 12.2 1.2 12.2-.8 0-3-6.9-5.8-18.5-.9-3.7 3.4 2.3 4.6 6.3m-41.4-2.2c2.3 1.6 2.4 1.8.8 3.5-2.3 2.5-7.3 3.5-9 1.7-1.3-1.3-1.1-1.8 1.2-4.1 3.1-3.2 3.7-3.2 7-1.1M332 341.1c0 3.5-7.8 9.9-12 9.9-3.4 0 1.6-6.2 7.5-9.3 3.6-1.9 4.5-2.1 4.5-.6m-68.9 16.8c-1.1 2-7.1 6.8-7.1 5.6 0-.4 1.7-2.7 3.7-5.2 3.6-4.3 5.6-4.6 3.4-.4m-83.2 15.7c-1.3 1.4-3.7 3.5-5.3 4.6-2.8 2.1-2.8 2.1-1.8.1 1.4-2.6 8.2-8.6 9-7.9.3.4-.5 1.8-1.9 3.2M.1 317.9c-.1 2.7.2 3.2 1.1 2.3.8-.8.8-1.7 0-3.4-1-2.2-1.1-2.1-1.1 1.1M0 359v25h92.1l-.7-8.3c-.4-4.5-1.1-8.5-1.7-8.9-.6-.3-3.8-.6-7.2-.6-5.1.1-7.1-.4-11.1-2.7-10.8-6.2-11.7-6.5-18.7-6.5-3.7 0-9.7.7-13.3 1.6-6.2 1.6-7.2 1.6-16.2-.1-5.3-1-11.1-2.4-12.9-3.1-3.3-1.3-3.4-1.4-4.8-12.9-.6-4.7-2.7-8.5-4.7-8.5-.4 0-.8 11.2-.8 25"/><path d="m110.3 363.1-3.3 2.1V384h15.2l-.5-4.2c-.4-2.4-.9-7.3-1.3-11-.5-5.6-.9-6.7-2.8-7.2-3.2-.9-3.8-.7-7.3 1.5"/></svg>