<svg xmlns="http://www.w3.org/2000/svg" width="682.667" height="512" version="1.0" viewBox="0 0 512 384"><path d="M0 192v192h110.1l-.3-3.3c-.3-2.9-.8-3.4-5.3-4.9-6.4-2.2-14.6-2.2-24.3-.1-10.7 2.3-16.7 2.2-22.7-.4-2.7-1.2-9.1-2.9-14.2-3.8-5.9-1.1-9.7-2.3-10.8-3.5-.9-1-2.2-5-2.8-8.9-1.2-8-3.2-10.6-11.4-15-3.8-2.1-4.9-3.3-5.4-5.9-.4-1.8-1.6-4.3-2.8-5.6-1.1-1.2-2.1-2.5-2.1-2.9 0-.5 3.7-3.2 8.8-6.3.2-.1-.4-1.7-1.3-3.4-1.4-2.7-1.5-3.4-.3-4.2 3-2 8.8-4.7 17.8-8.1 24-9.2 43.3-24 60.2-46.2l4.6-6-1.2-14.5-1.1-14.4-3.5-.8c-1.9-.4-6-.4-9-.1-11.3 1.1-27.3-8.3-39.2-22.9-8-9.8-8.5-11.2-10.9-26.3-3.7-23.8 3.7-49.9 20.9-73.9 16.3-22.5 43.5-38.6 73-43.1 17.9-2.7 33.9-1.4 51.2 4 8.9 2.9 11.8 4.4 23.5 12.4 9.6 6.6 9.4 6.3 15.1 17.7 5.3 10.5 7.3 18.7 7.4 29.8 0 6.6-.4 8.6-2.4 12-1.3 2.3-2.7 6.4-3.1 9.1-1.8 12.9-5.7 20.2-13.7 25.5-3.7 2.4-5.2 4.4-7.7 10.1-3.7 8.3-11.3 16.3-17.2 18.1-2.2.6-3.9 1.4-3.9 1.7s.9 1.7 2 3.1c2.4 3 2.7 10.6.6 13.6-.8 1.1-3.4 3.3-5.7 5-2.4 1.6-5.3 3.9-6.5 5.1s-3.5 2.5-5 2.9c-2.3.6-3.2.2-5.4-2.3l-2.7-3-1.8 3.3c-1.7 3.2-1.7 3.5-.2 5.2 1 1 1.7 2.7 1.7 3.8s1.3 5.1 2.9 8.9c5 11.8 7.1 27 10.1 72 2.3 32.8 2.6 35.2 5.4 38.6 1.4 1.7 2.6 3.4 2.6 3.9s1.1 2.5 2.4 4.5c1.4 2 2.8 5.6 3.1 8l.7 4.3 4.1-2.4c4.3-2.4 7.7-3.1 7.7-1.5 0 .5-2.1 1.8-4.7 3-7.3 3.3-7.8 3.6-8.1 6l-.3 2.1 159.8-.1c87.9 0 159.2-.3 158.6-.6-.7-.2-1.3-1.4-1.3-2.5 0-1.9.5-2 7.1-1.6 4.7.2 7.3.8 7.9 1.8.6.9 1-72.1 1-189.8V0H362C213.3 0 211.9 0 209.8 2c-1.2 1.1-3 2-4 2-1.1 0-1.8-.7-1.8-2 0-2-.7-2-102-2H0zM354.5 19.4c1.9.8 3.5 1.9 3.5 2.5 0 3.4-19.4 7.1-22.3 4.2-1.6-1.6-.1-2.7 6.9-5.6s7.4-2.9 11.9-1.1M286 23.1c0 .5-2.1 1.9-4.7 3.1-2.7 1.1-5.6 2.7-6.5 3.6-1.6 1.3-1.8 1.3-1.8 0 0-1.7 2.3-3.9 6.5-6.1 3.5-1.9 6.5-2.2 6.5-.6M219.5 69c0 2-.6 2.6-2.7 2.8-2.2.3-2.8-.1-2.8-1.5 0-1.1.6-2.5 1.2-3.1 2-2 4.3-1 4.3 1.8M367 89.7c0 .9-5.7 4.3-7.1 4.3-1.6 0-1-2.9.9-3.9 2-1.2 6.2-1.4 6.2-.4M248 175c2 1.2-2.7 3-8.2 3-4.5 0-4.4-.9.5-2.7 4-1.4 5.8-1.5 7.7-.3m50.5 34c1.8 1.9 1.7 2-.1 2-2 0-4.4-1.7-4.4-3.2s2.7-.8 4.5 1.2m116.5 2c0 3.5-2.7 7.6-7.5 11.5-5 4.2-7.5 4.1-7.5-.2 0-6.3 6.5-13.3 12.3-13.3 2.1 0 2.7.5 2.7 2m-74.6 15.7c.3.4-.3 1.2-1.5 1.8-1.6.9-3 .9-5.5 0-5.3-1.8-5.1-2.5.8-2.5 3 0 5.8.3 6.2.7m-14.4 9c-.1 4.1-2.2 7.9-3.9 6.8-1.6-.9-1.3-5.7.5-8.3 2.2-3.2 3.4-2.7 3.4 1.5M84.5 248.6c0 1.2-.8 2-2.2 2.2-2.6.4-2.8-.1-1.2-2.9 1.3-2.4 3.4-2 3.4.7m314.8 4.3c-.7 2.7-11.3 12.9-11.3 10.9 0-.9-.3-2.3-.6-3.1-.6-1.6 2.3-4.8 7.1-7.8q5.7-3.6 4.8 0m-52.9 6c1 1.7 1.5 3.5 1.1 3.9-.9.9-5.5-4.5-5.5-6.4 0-2.4 2.3-1.1 4.4 2.5m-301.6 9.3c-.6 1.6-3.2 2.2-6.4 1.4-4-1-2.7-2.6 2.2-2.6 3.2 0 4.4.4 4.2 1.2m448.8 14.9c1 1.6-1 3-4.5 3.1-4 .1-5.1-1-2.7-2.8 2.3-1.7 6.2-1.8 7.2-.3m-160.3 14.8c3 2.7 7.2 9.9 6.4 10.8-1.6 1.5-13.7-10.4-13.7-13.4 0-2 3.8-.7 7.3 2.6m-321.5 5.8c.3 3.2-4.3 13.3-6 13.3-1.5 0-3-4.4-2.5-7.6.7-4.1 4.6-9.6 6.7-9.2.9.2 1.6 1.6 1.8 3.5m492 8.2c1.8.7 3.1 1.8 2.9 2.5-.4 1.1-11.5 3.1-12.4 2.2-.6-.6 5-6.8 5.7-6.3.3.2 2 .9 3.8 1.6m-204.9 3.6c-2.1 2.2-9.3 3.3-8.7 1.4.5-1.4 3.8-2.6 7.8-2.8 2.2-.1 2.3.1.9 1.4m35.5 38.3c.7 1.2-2.1 6.4-4.5 8.4-2.3 2-8.4 2.4-9.4.8-1.1-1.8 4.3-7.9 7.8-8.9 4.2-1.2 5.5-1.3 6.1-.3M261 371.7c0 1.3-1.4 2.8-4.3 4.6-4.4 2.9-5.6 1.4-1.7-2.1 3.2-3 6-4.1 6-2.5"/><path d="M111.6 234.5c-.3.9 0 1.5.9 1.5s1.2-.6.9-1.5c-.4-.8-.7-1.5-.9-1.5s-.5.7-.9 1.5m48.7 136.2c-2.1.4-2.3 1-2.3 6.9v6.4h5.1c4.5 0 5-.2 4.3-1.8-.4-.9-1-3.9-1.3-6.7-.6-5.2-1.3-5.7-5.8-4.8m-27.5 9.1c-7.3 2.3-6.3 4.2 2.3 4.2 6.6 0 7-.1 6.7-2.1-.4-3.1-3.6-3.8-9-2.1"/></svg>