<svg xmlns="http://www.w3.org/2000/svg" width="682.667" height="512" version="1.0" viewBox="0 0 512 384"><path d="M0 192v192h33.7c18.5 0 33.4-.2 33.2-.4s-3.8-.7-7.9-1c-9.8-.9-11.8-2.4-14.5-10.9-2.4-8-5.9-12.1-13-15.2-6-2.7-8-4.8-8.9-9.5-.3-1.9-1.8-4.7-3.3-6.2-2.6-2.7-2.6-2.8-.7-4.9 1-1.1 3.1-2.8 4.6-3.7 2.6-1.5 2.6-1.7 1.2-4.5-.9-1.6-1.3-3.5-1-4.4.3-.8 6.3-4.1 13.3-7.5 24.5-11.5 42.5-26.1 57.9-46.8 11.1-15 10.3-12 9-31.9l-1.1-17.4-4-1.4c-2.6-.9-5.9-1.2-9.5-.8-6.7.8-10.8-.8-22.9-8.9-6.8-4.5-9.8-7.3-15.3-14.6-3.8-4.9-7.3-10.1-7.8-11.4s-1.4-7.8-2.1-14.5c-1-9.9-1-13.9 0-21.4 6.9-48.8 46.5-87.6 97.1-95.3 18.4-2.7 35.1-1.1 53.9 5.2 11.7 3.9 13.8 5 26.7 14.5 8.3 6.1 9.5 7.4 12.4 13.6 6.1 12.8 7.2 17 7.7 29.8.4 12.3.4 12.6-4 18.7-1 1.4-2.2 5.4-2.8 8.8-1.8 11.4-6.3 19.2-13.2 23-6.2 3.4-7.5 4.8-10.8 11.6-3.8 8-11.1 14.7-18.5 17.1-3 .9-5.4 2.1-5.4 2.7.1.6 1.4 2.7 3 4.6 5.4 6.3 3.9 12.7-4.6 19.2-11.7 8.9-11.9 9-14.7 7.7-1.5-.7-3.4-2.3-4.2-3.6-1.8-2.8-3.5-2.2-3.5 1.2 0 1.3-.6 2.5-1.2 2.8-.9.3-.7 1.3.9 3.5 1.3 1.7 2 3.7 1.8 4.4-.3.8.8 4.3 2.4 7.8 3.8 8.5 6.8 24.1 8.1 42 1.7 23.4 5 57.1 6.1 61.7.5 2.4 1.9 7.1 3 10.4 1.9 5.5 2 6.2.5 8.4-.9 1.3-1.6 3.7-1.6 5.4 0 2.6-.4 2.9-4.4 3.5-4.6.7-6.9 2.5-8 6.3-.6 2-.4 2.3 1.7 2.3 1.7 0 2.7-.7 3.1-2.3l.6-2.2 1.9 2.2 1.9 2.3H512V0h-61.6c-60.9 0-61.6 0-59.3 1.9l2.4 1.9-5 2.2c-6.4 2.8-10.3 3.4-16 2.6-4.1-.7-4.5-.9-3.3-2.3.7-.9 3.6-2.7 6.3-3.9l5-2.4h-78.9c-67.6 0-79 .2-80 1.4-.6.8-2.4 1.8-3.9 2.2-2.3.5-2.9.3-3.4-1.5l-.5-2.1H0zM293 23.9c0 1.1-5.3 5.1-6.8 5.1-.5 0-2.1.9-3.6 2.1-3.6 2.8-5.2 2-2.6-1.4 3.5-4.4 13-8.6 13-5.8m-56.4 37.7c.8 2.9-.7 4.9-3.1 4.1-2.2-.9-2.9-3.5-1.5-5.2 1.9-2.3 3.9-1.8 4.6 1.1M379 89.5c0 .3-1 .9-2.2 1.4-5.3 2-6.8 2.2-6.8 1.1 0-.6 1-1.5 2.3-2 2.4-1 6.7-1.3 6.7-.5m-109.5 81.4c.7 1.2-5.2 2.4-9.1 1.9l-2.9-.4 2.5-1.1c3.1-1.4 8.7-1.6 9.5-.4M431 210.5c0 1.5-3 6.2-5.2 8.1-3.6 3.3-10 6.6-11.4 6-3.3-1.3.3-9.5 5.5-12.5 3.2-1.8 11.1-3 11.1-1.6m-127.2 7.2c.2.8-.5 1.3-1.7 1.3s-2.1-.6-2.1-1.6c0-1.8 3.1-1.5 3.8.3m41 7.3c2.1 0 2.4.2 1.2 1-2.1 1.4-3.3 1.2-5.6-.6-1.7-1.4-1.7-1.5-.1-1 1 .3 3.1.6 4.5.6m-5.9 15c.4 0 1.2-.5 1.8-1.1.8-.8 1.3-.8 1.8.1 1 1.6.1 2.2-3 2.2-1.4 0-2.8.4-3.1.9-.8 1.4-3.4 1-4-.6-.9-2.2 1.5-7.3 3.4-7.7 1.3-.3 1.8.5 2 2.9.2 1.8.7 3.3 1.1 3.3m87.1 7.5c0 1.7-3.3 6.5-6.8 9.8l-3.9 3.9-.6-2.9c-.7-3.8.5-5.7 5.5-8.6 4.5-2.6 5.8-3.1 5.8-2.2M84.5 261.9c0 1.6-3.1 3.8-4 2.9-.4-.4-.4-1.6 0-2.8.7-2.3 4-2.4 4-.1m273.9 1.5c3 4 3.1 4.6 1.2 4.6-1.5 0-6.6-5.5-6.6-7.1 0-2 2.9-.7 5.4 2.5M48.5 277.1c1.6 1.6-4 1-6.1-.6-1.8-1.5-1.7-1.6 1.6-.9 1.9.3 3.9 1 4.5 1.5m457.3 12.1c.3 1.5-.4 1.8-3.7 1.8-4 0-5.8-1.1-4.6-3.1 1.1-1.7 7.9-.7 8.3 1.3m-156.7 21.5c3 3.2 6.4 9.3 5.1 9.3-1.6 0-12.4-11.8-11.8-12.9.9-1.4 3.3-.2 6.7 3.6m-328.2-2.3c1.4 1.7-1.1 7-5.8 12.5-2.7 3-3 3.1-3.8 1.5-.5-1.1-.8-2.5-.7-3.2.1-.6.2-2.1.3-3.3.1-2.1 6.1-8.9 7.9-8.9.5 0 1.5.6 2.1 1.4m284.6 12.7c0 1.9-7.1 3.7-8.7 2.1-1.5-1.5-.7-2.2 3.4-3.2s5.3-.7 5.3 1.1m36.3 44.9c.1.8-.7 3-1.8 4.7-1.8 3-2.4 3.3-6.9 3.3-3.6 0-5-.4-5.5-1.7-.7-1.8 2.6-6 5.9-7.4 3-1.3 7.9-.6 8.3 1.1M202 376.6c0 1-7 3.4-10.2 3.4h-3.3l2.5-2c2.3-1.8 11-2.9 11-1.4"/><path d="M109.8 383.7c1.2.2 3 .2 4 0 .9-.3-.1-.5-2.3-.4-2.2 0-3 .2-1.7.4"/></svg>