<svg xmlns="http://www.w3.org/2000/svg" width="682.667" height="512" version="1.0" viewBox="0 0 512 384"><path d="M0 120c0 118.4 0 120.1 1.9 119 2.3-1.2 9.7-1.2 12.6 0 1.8.7 1.8.9-1 2-1.6.7-5.4 1.5-8.2 1.8l-5.3.4V384h24c13.2 0 24-.4 24-.8 0-.5-.7-3.1-1.5-5.9-1.5-5.1-3.3-6.7-10.3-8.8-2.3-.7-2.4-2-.6-8.6.5-1.7-1.3-4.1-4.3-5.8-1.5-.8-1.4-1.3 1-4.4 4.3-5.7 3.5-10.1-1.3-6.7-3.7 2.6-4 2.5-4-.9 0-3.8 3.9-8.5 8.7-10.4 2.1-.8 5.8-3.3 8.3-5.4 2.5-2.2 9.2-7.7 15-12.3 23-18.4 32.8-28.7 48.9-51.5l7-10-.4-8.5c-.3-4.7-.7-15.2-.9-23.4-.3-8.2-.7-15-.8-15.1-.2-.1-4.1-1.9-8.7-4-7.2-3.2-8.7-3.6-10.9-2.6-3.5 1.7-10.7-2-19.8-10.1-6-5.4-7.9-8-13.4-18.3l-6.4-11.9 1.2-14.2c1.4-16.9 4.3-27.6 11.1-41.4C74.2 86.2 84 74 97.3 63.7 111.8 52.6 121 47.5 136 42.6c28.7-9.5 57.1-8.5 84.9 3 11.2 4.7 20.2 10.6 29.7 19.6 11 10.5 14.8 20.4 14.5 38.4-.3 13.8-2 19.8-6.9 24.3-2.9 2.7-4.4 5.2-5.6 9.6-1.9 6.5-4.5 11.8-7.4 15.2-2.5 2.9-9.1 7.3-10.9 7.3-3.5 0-8.5 3.5-10.4 7.2-1.1 2.2-3.9 6-6.2 8.5-4.1 4.5-14 10.3-17.5 10.3-3.1 0-3.3 1.2-.8 4.4 4 5.4 6.6 11.4 6.6 15.6s-2.3 10-3.9 10c-.5 0-4.3 2.3-8.4 5-11.2 7.5-14.9 6.5-19.2-5-1.9-5.4-2.5-6.2-3.2-4.5-.4 1.1-.8 5.4-.8 9.6 0 5.9.4 8.1 1.7 9.6 1 1 1.7 3.2 1.6 4.9 0 1.6 1.1 5.7 2.6 9.2 4.9 11.5 5.6 17.6 6.6 64.2.8 33.6 1.4 45.3 2.6 51.5 1 4.4 1.6 8.7 1.5 9.5s-.3 4.3-.4 7.7l-.3 6.3H512V0H0zM247.4 2c4.7 1.7 2 8-3.4 8-3.5 0-5.4-2.2-4.4-5.2 1.1-3.8 3.3-4.6 7.8-2.8m71.9 12.9c2.7 2.5 3.5 4.1 1.9 4.1-1.2 0-8.2-7.1-8.2-8.3 0-1 1.9.2 6.3 4.2m123.4-2.2c1.7.8 3.9 2.4 5 3.5l1.8 2.1-5.3-.6c-6.1-.7-11.5-3.5-12-6.1-.3-1.5.1-1.6 3.5-1 2.1.3 5.2 1.3 7 2.1M310.3 28.6c1.2 1.2-2.7 5.6-8.1 9-3 1.9-5.7 3.3-6 2.9-.9-.9 3.1-5.7 7.7-9.3 4.3-3.3 5.3-3.7 6.4-2.6M276 51.9c1.1 2.1 1.4 6.4.4 7.3-.8.9-4.4-2.9-4.4-4.6 0-2.2 1.1-4.6 2.1-4.6.4 0 1.3.9 1.9 1.9M410.5 88c-2.7 1.2-3.5 1.2-3.5 0 0-.6 1.2-1 2.8-.9 2.4 0 2.5.1.7.9m-93 81c.8 1.2-6.1 1.2-9 0-1.5-.6-.6-.9 3.2-.9 2.8-.1 5.5.3 5.8.9m-103.2 25.2c3.1 1.1 5.7 2.4 5.7 2.9 0 2.6-11.6 2-12.7-.6-.3-.8-1-1.2-1.7-.8-.6.3-.8.2-.3-.2.4-.5-.1-1.7-1-2.8-1.8-2-1.7-2 1.2-1.3 1.7.4 5.6 1.7 8.8 2.8M468 216.3c0 3.3-19.2 11.1-20.4 8.2-.5-1.5 4.9-7 8.4-8.4 3.7-1.5 12-1.4 12 .2m-91.5 5.2 5 1.4-4.9-.2c-2.9-.1-5.1-.7-5.4-1.5-.2-.6-.2-1.2 0-1.2.2.1 2.6.7 5.3 1.5m118.6 19.2c-1.1 2.1-2.9 4.9-4 6.3l-2.1 2.5v-2.3c0-2.7 1.3-5.3 4.9-10.1 3.3-4.4 4.1-1.9 1.2 3.6m-125.6 2.6c-2.2 4.6-5 5.9-4.1 2 .7-2.7 4.4-6.8 5.3-5.9.3.2-.3 2-1.2 3.9m-52.6.1c1.4 1.7 0 2.9-2.3 2q-2.55-1.05-.9-2.7c1-1.1 1.9-.8 3.2.7m28.1 37.7c0 .5-1.1.9-2.5.9-2.7 0-3.2-.9-1.3-2.8 1.2-1.2 3.8.1 3.8 1.9m43.4.8c4.6 4.7 3.2 6.4-1.9 2.5-1.9-1.4-3.5-2.8-3.5-2.9 0-.2-.3-1-.6-1.9-1.1-2.9 2.1-1.7 6 2.3M61.5 297.2c5.2 2.5 5.9 4.3 1.3 3.4-3.2-.6-6.8-3.2-6.8-4.8 0-1.2.4-1.1 5.5 1.4m263.1 42c1 1.6-2.5 3.8-6.2 3.8-3.1 0-5.1-2.1-3.8-4.1.8-1.3 9.2-1.1 10 .3m62.3 5.3c2.2 2.4 4.1 5.4 4.1 6.5s-.2 2-.5 2c-.9 0-7-6.8-8.8-9.9-2.8-4.8.2-4 5.2 1.4"/><path d="M187.2 198.3c.2 1.5.7 2.8 1.3 2.8 1.6.1 1.6-1.6 0-3.6-1.5-1.9-1.5-1.9-1.3.8"/></svg>