<svg xmlns="http://www.w3.org/2000/svg" width="682.667" height="512" version="1.0" viewBox="0 0 512 384"><path d="M0 192v192h462.2l-3.4-4.2c-4-5.1-12.7-13.4-19-18.2-5.3-4-20.5-12.1-25.9-13.7l-3.6-1.1-.7-23.7c-.8-24-1.8-31.9-5.8-44.1-6.4-19.7-20.4-38.7-39.7-53.8-12.1-9.6-20.1-14.5-39.6-24.3-9.3-4.7-17.1-9.2-17.2-10-.2-.8 3.5-6.8 8.2-13.4 9.4-13.4 14.5-22.3 14.5-25.3 0-1.8-.8-2.1-5.7-2.7-9.3-1-10.3-1.3-10.3-3.6 0-1.1-1.3-5.3-2.9-9.2-1.6-4-3.5-9.2-4.2-11.7s-1.7-5-2.2-5.7c-.7-1 2.6-52 3.8-58.8.3-1.1 3.6-7.2 7.5-13.5 6.4-10.4 24-44.2 24-46.2 0-.4-76.5-.8-170-.8H0zm308-44.6c0 .4-1.3.6-3 .6-2.7 0-3-.3-3-3.3 0-1.9.3-3.7.7-4 .6-.6 5.3 5.4 5.3 6.7"/></svg>