<svg xmlns="http://www.w3.org/2000/svg" width="682.667" height="512" version="1.0" viewBox="0 0 512 384"><path d="M0 192v192h512V0H0zM236 86c.9 1.7 1.4 1.8 3.1.9 2.6-1.3 8.8-.3 9.5 1.6.3.8-.1 2.4-1 3.7-2.9 4.1-2.1 5.1 3.4 4.6 4.4-.4 5.5-1 8.5-4.5 4.9-5.8 9.2-7.5 18.5-7.5 9.1 0 13.2 1.5 20.3 7.4 2.9 2.4 6.3 5.2 7.6 6.3s3.8 3.3 5.5 4.8l3.1 2.8-4.5-.4c-2.7-.2-6.5-1.7-9.6-3.6-5.3-3.2-10.2-4-10.9-1.9-.2.7-.6 3.4-1 5.9l-.6 4.5 7.3 2.3c7.5 2.4 17.5 8.1 18.4 10.6.8 1.9-1.4 5.5-3.9 6.4-1.8.7-1.2 1.3 5.3 5 4.8 2.7 6.4 4 4.5 3.6-3.7-.8-2.5.6 1.8 2.1 1.8.7 3.1 1.7 2.9 2.3-.1.7 1 2.3 2.5 3.7 2.4 2.2 2.5 2.4.5 1.4-2.9-1.4-4.5-.5-3.2 2 1.7 3.2 1.2 4.5-1 2.5-1.1-1-2.2-1.6-2.4-1.4s-.1 4.9.2 10.4l.7 10 15 3.2c19.6 4.3 19.8 4.4 20 7 .2 2.8.3 2.8-13-.2-6.1-1.4-11.7-2.5-12.5-2.5s1.3 1.8 4.6 3.9c3.4 2.1 6.4 4.4 6.8 4.9.4.7 1.8.7 4 .1 10.5-2.9 32-5.9 42.3-5.9 14.2 0 25.4 1.8 25 4-.1.9.7 1.6 2.1 1.8 1.7.3 2.1.8 1.7 2.2-.8 2.5 1 5.7 3.6 6.5 1.2.4 1.8 1.2 1.5 2.1-.6 1.7-.5 1.7 2.8.4 1.7-.6 2.7-.6 3.2.2.5.7.3.8-.6.3q-1.35-.75-.6.3c.4.7 1.6 1.2 2.8 1.2 1.7 0 1.8.2.8 1.5-1 1.2-.9 1.5.8 1.5 2.7 0 5.2 1 5.2 2.1 0 .5-.9.9-1.9.9-1.5 0-1.9.6-1.7 2.7.2 1.5.8 2.9 1.5 3.1.6.2 1.1.8 1.1 1.3 0 .6-.4.7-1 .4-.5-.3-1-.2-1 .4 0 .5.6 1.2 1.3 1.4q1.2.6-.3.6c-1.7.1-2 3.7-.6 6 1.3 2 0 2.4-3.6 1.2-3-1-3.1-.9-1.4.4 1.1.8 2.3 1.5 2.8 1.5.4 0 .8.4.8.9s-1 .7-2.2.3c-1.4-.3-1.9-.2-1.4.6 1 1.6.6 1.5-4.9-.9-2.5-1.1-4.9-1.8-5.2-1.5-.4.3-.2.6.4.6s1.4.7 1.7 1.6c.3.8.2 1.2-.3.9s-1.3-.1-1.6.5c-.5.8-1.2.7-2.3-.2-.9-.8-1.3-.8-.9-.1 1.2 2-.4 4.2-3.6 4.9l-3 .6 2.4 2 2.4 2-2.5-.7c-1.4-.4-3.3-.7-4.3-.6-.9 0-3.6-1.1-6-2.4-6.4-3.7-7.1-3-1.9 2 5.9 5.6 4.9 5.9-1.4.4-2.6-2.2-5.6-4.7-6.8-5.4-2.5-1.7-17.8-5-30.1-6.5-4.9-.6-13.3-2.6-18.6-4.4-8.1-2.7-9.8-3-10.5-1.8-.7 1-3.2 1.5-8.4 1.7-6.8.2-7.5.4-7.2 2.1 1.2 7.7 1.1 10-.2 11.7-3.1 4-6.5 2.7-9.9-3.8l-1.5-3-1.1 2.8c-.6 1.6-1.1 3.2-1.1 3.6s-.8 1.6-1.9 2.5c-1.8 1.6-2 1.6-4-1-2-2.5-2.8-8.1-2.2-15 .1-1.9-.6-2.2-5.7-2.8-3.2-.4-8.9-.2-12.7.4-9.1 1.3-18.1 1.3-20.6 0-1.4-.8-1.9-2.1-1.9-5 0-4.5-.8-5.2-6.4-5.6-2.2-.2-9.3-.7-15.6-1.3-16.4-1.4-26.3-1.6-27.7-.8-2.5 1.6-1.2 3.6 4.7 7.2l6 3.6-1.5 3c-.9 1.6-1.8 2.9-2.1 2.9s-3.2-1.8-6.5-4.1c-8.3-5.6-16.9-9.5-26.9-12l-8.5-2.2-3.9 2.7c-3.5 2.3-4.2 2.5-6 1.3-1.2-.8-2.2-2.4-2.4-3.6-.5-2.9-2.5-3.7-10.5-4.4-8.4-.8-11.5-2.2-14-6.5-2-3.3-2-3.4 0-5.3 1.8-1.8 2.6-1.9 11.9-.9 5.4.6 13.1 1.5 16.9 2 9.5 1.3 44.4 4.6 63.8 6.1l15.9 1.1 4.4-4.8c2.3-2.7 6-8.1 8-11.9 2.1-3.9 4.6-8.2 5.7-9.7l2-2.8-2.5-2.3c-1.7-1.6-2.8-4.2-3.7-8.7-2.1-11.3-2.8-12.7-6.5-13.4-7-1.3-11.2-8.9-6.6-11.8 1.1-.7 2-1.8 2-2.5s.3-1.2.8-1.1c.4.1 2-.2 3.6-.7 2.5-.7 3.3-.4 5.3 2 1.7 1.9 2.3 3.8 2.2 5.9-.2 1.7.5 4.2 1.4 5.6s2.2 4 2.8 5.8c1.1 3.3 3.4 3.5 2.4.3-.3-1.1.2-2.4 1.1-3.2 3-2.5 4.5-7.3 3.1-10.3-.9-2-1.9-2.6-4.4-2.6-1.8 0-3.3-.3-3.3-.8 0-.4-1.2-2-2.6-3.5-1.9-2.1-2.3-3.1-1.5-4.1 1.3-1.5.5-2.6-2-2.6-1 0-4.4-1.7-7.6-3.9-3.2-2.1-6.8-4.1-8-4.5s-3.6-2-5.4-3.7c-1.7-1.6-3.5-2.9-3.9-2.9-1.7 0-3.3-5.9-2.1-7.9.7-1.1 1.5-1.1 4.2-.2l3.3 1.1-2.7-2.8c-3.1-3.2-3.3-4.9-1.1-8 1.9-2.7 5-2.8 6.4-.2m-46.9 136.3c-1 .9-1.1.8-.5-.6.3-1 .9-1.5 1.2-1.2s0 1.1-.7 1.8"/><path d="M298 147.5c0 .4 1 1.6 2.2 2.6 2.9 2.6 1.3 2.4-2.4-.2-1.6-1.2-3.1-1.9-3.3-1.7-.9.9 4.7 13.8 6 13.8.7 0 2.2-1.5 3.3-3.4 1.1-1.8 3.4-4.2 5.1-5.2 3.2-1.9 4.3-3.8 1.6-2.8-.8.4-1.5 1-1.5 1.6 0 1.4-4-.1-7.7-3-1.8-1.3-3.3-2.1-3.3-1.7m-29.8 22c-1.2 3-4.4 8.9-7.2 13.1-5.9 8.7-7.6 14.4-4.2 14.4 1.2 0 5.2-2.6 8.9-5.9 7.9-6.8 9.5-8.5 11.6-12.5 1.4-2.9 1.3-3.2-2.2-8.8-2-3.2-3.9-5.8-4.2-5.8s-1.6 2.5-2.7 5.5m49.8 11.4c0 .9 9.4 5.1 11.4 5.1 1.5 0-8.6-6-10.1-6-.7 0-1.3.4-1.3.9"/></svg>