<svg xmlns="http://www.w3.org/2000/svg" width="682.667" height="512" version="1.0" viewBox="0 0 512 384"><path d="M0 192v192h43.2l-.7-3.2c-2.1-10.2-2.4-10.9-7.2-13-3.8-1.7-4.4-2.3-3.9-4.1 2-7 1.9-7.8-.8-10l-2.7-2.2 3.1-3.7c2.5-3.1 2.9-4.1 2-5.7-1.9-3.6-1.1-5.9 4-11.5 4.7-5.1 23.9-21.1 32-26.6 13.2-9 29.2-25.6 44.9-46.3l5.2-6.9-1.2-13c-.6-7.1-.9-18.6-.7-25.5l.3-12.6-5.3-1.8c-2.9-1-7.7-3.2-10.6-4.9-3.6-2-6.7-3-9.5-3-5.3 0-10.7-3.6-18.4-12-4.8-5.3-6-7.6-9.7-18.2l-4.3-12.2 1.7-12.6c5.4-39.2 27.1-69.8 63.9-90l7.8-4.2-.6-3.7-.6-3.6 1.7 3c.9 1.6 1.7 3.1 1.8 3.2s4.1-1.1 8.9-2.8c34.2-11.4 69.3-7.8 101.2 10.5 7.7 4.5 24.8 21 26.9 26.1s4.8 19.5 4.1 21.8c-.3 1.2-.9 4.9-1.1 8.2-.7 7.6-3 17-4.9 19.8-.8 1.2-3.3 3.3-5.6 4.7-3.4 2.1-4.5 3.6-6.9 9.8-1.5 4-4 8.9-5.5 10.8-2.2 2.8-2.6 4.2-2.1 6.9s.2 3.9-1.4 5.5c-2.7 2.7-5 1.9-5-1.6 0-2-.4-2.5-1.7-2-.9.4-3.6 1.1-6.1 1.7-6.5 1.4-7.7 2.3-12.3 9-3.9 5.8-14.1 13.9-17.5 13.9-2.7 0-2.2 2.1 2.6 11.1 5.5 10.3 5.8 12 3.4 17.9-1.4 3.4-2.7 4.6-7.7 7.2-3.4 1.7-7.8 4.1-9.9 5.4s-4.6 2.4-5.6 2.4c-4.5 0-8.7-5.9-11.2-15.8-1.1-4.3-2.3-5.3-3.4-2.7-.3.8-.2 6 .1 11.6.5 8.3 1 10.4 2.6 12 1.3 1.2 1.8 2.5 1.4 4-.4 1.3.4 4.6 1.8 7.9 5.8 13.7 6.3 19.7 7.6 82 .9 42 1.1 49.2 1.7 56.7l.2 2.3h322V0H0zM260.5 8.4c4 1.7 4.4 3.5 1.5 6.1-1.4 1.3-2.8 1.6-5.5 1.1-4.3-.8-5.3-2.7-3.1-6.1 1.9-2.9 2.5-3 7.1-1.1m199 16c6.2 2.6 3.5 4.6-4.2 3-1.6-.3-4-1.4-5.3-2.5l-2.5-1.9h4.3c2.3 0 5.8.7 7.7 1.4m-130 4.7c3.2 3.3 3.5 3.9 1.5 2.9-2.3-1.2-7-5.6-7-6.6 0-1.3 2 .1 5.5 3.7M319 34.4c0 1.2-11.3 12.6-12.5 12.6-.3 0-.5-1-.5-2.2 0-1.3 2-4.1 5-7 4.9-4.7 8-6.1 8-3.4m-25 18.5c1.3 2.5 1.3 6.8 0 7.6s-4.4-5.9-3.7-7.9c.9-2.2 2.4-2 3.7.3m140.8 32.8c-1.5.2-4.2.2-6 0s-.6-.4 2.7-.4 4.8.2 3.3.4M339 172c1.2.8 1 1-1 .9-1.4-.1-3.6-.5-5-.9-2.3-.7-2.2-.8 1-.9 1.9 0 4.2.4 5 .9m-99.6 12.8c3.8 1 7.1 2.3 7.3 2.9.6 1.6-7.5 2.5-11.1 1.3-1.7-.6-3.9-2.2-4.9-3.5-1.7-2.4-1.7-2.5 0-2.5 1 0 4.9.8 8.7 1.8M397.1 220c1.6 0 2.9.4 2.9 1 0 1.3-6.6 1.3-9.1 0-2.9-1.6-2.4-3.1.7-2 1.4.6 3.9 1 5.5 1m90.9-.6c0 2.8-20.1 8.9-21.5 6.6-.6-1 2.5-3.7 7.1-6 4.7-2.3 14.4-2.8 14.4-.6m-96.9 23.4c-1.2 2.3-4 4.7-4.6 4-.3-.3.4-1.7 1.6-3.1 2.4-3.1 4.5-3.7 3-.9M29.5 244c.8 1.3-2.9 2.7-9.8 3.5-4.8.6-5.7.5-5.7-.8 0-.9.8-2.1 1.8-2.6 2.2-1.3 12.9-1.4 13.7-.1M325 256.4c0 .2.3 1.1.6 2 .5 1.2 0 1.6-2 1.6-1.9 0-2.6-.5-2.6-2 0-1.3.7-2 2-2 1.1 0 2 .2 2 .4m77.5 36.8c4.3 3.2 5.8 5.8 3.2 5.8-1.9 0-8.7-5.9-8.7-7.6 0-2 .5-1.8 5.5 1.8m-57.7 9.3c1.7 3.7 1.5 4.5-1.2 4.5-3.1 0-3.8-1.2-3-4.5.8-3.2 2.8-3.2 4.2 0m-10.7 47.6c3.2 1.7.5 3.9-4.6 3.9-4.2 0-6.4-1.8-4.9-4.1.7-1.2 7.1-1.1 9.5.2m74.8 5.5c4.9 2.9 9.3 11.5 5.9 11.4-2.6-.1-11.8-9.6-11.8-12.2 0-1.3 3-.9 5.9.8"/><path d="M190 184.7c0 .5.7 4.3 1.5 8.6s1.5 8.1 1.5 8.3c0 1 2.9.3 3.9-1 .8-1 .4-2.9-1.9-8-1.7-3.7-2.8-7.1-2.5-7.6.4-.6-.1-1-.9-1-.9 0-1.6.3-1.6.7m4.8 0c.7.3 1.6.2 1.9-.1.4-.3-.2-.6-1.3-.5-1.1 0-1.4.3-.6.6"/></svg>