<svg xmlns="http://www.w3.org/2000/svg" width="682.667" height="512" version="1.0" viewBox="0 0 512 384"><path d="M0 192v192h38.7l-.8-3.8c-.5-2-1.2-5.7-1.6-8.2-.7-3.7-1.4-4.8-4.1-6.2-4.6-2.2-4.6-2.1-2.4-6.5 1.8-3.8 1.9-7.3.1-7.3-1.5 0-1-2 1.1-4.7 1.3-1.7 1.7-3.3 1.3-5.3-.8-4.1.2-7.2 3.4-10.7 3.5-3.8 18.1-15.3 34.3-26.8 15.2-10.9 29.2-24.6 42.8-42.2l10.2-13.1-1.5-11.4c-.8-6.2-1.5-13-1.5-15 0-2.4-.6-4-1.6-4.6-1.5-.8-1.5-1.2.4-3.8 1.5-2.2 2.1-4.9 2.5-11.2.4-8.2.4-8.2-2.2-8.8-7.7-1.5-11.4-3-18.9-7.5-5.6-3.4-8.9-4.8-10.2-4.4-2.3.7-9.5-5.6-15.9-13.8-3.6-4.7-4.1-6.3-6.2-17.5-2-11-2.2-13.3-1.1-20 2.6-18.3 11.8-40.7 22.4-54.7 10.5-14.1 25.4-26.6 42.4-35.6 4.3-2.3 8-4.3 8.2-4.5.2-.1-.4-2.6-1.2-5.5-.9-2.9-1.4-5.4-1.2-5.6s1.6 1.8 3.1 4.4 2.9 4.9 2.9 5c.1.1 4.3-1.1 9.4-2.7 25.3-8.2 51-8.5 75.9-.9 8.5 2.6 25 10.6 32.3 15.7 5.3 3.7 15.9 15.3 20.2 22.1 4.2 6.7 6.3 24.7 3.3 28.1-.8.9-2.2 5.6-3 10.4-2.3 13.2-5.3 18-13.9 22.1-3.5 1.7-4.6 3.1-7.8 9.7-5.9 12.3-13.7 18.6-24.8 20.3-7.2 1-9.5 2.3-13.1 7.3-1.9 2.6-4.9 6.1-6.8 7.9l-3.4 3.1 2 4.9c1.1 2.6 3.3 8.6 4.8 13.2 2.5 7.5 2.6 8.8 1.5 12.5-1.3 4.4-4.5 8.6-6.6 8.6-.8 0-5.2 2-10 4.5-4.7 2.5-9.4 4.5-10.4 4.5-3.7 0-7.8-5.4-10.2-13.4-1.2-4.2-2.6-7.6-3-7.6-1.5 0-2.1 5.4-1.5 14.7.6 8.2 1 9.7 2.9 11.3 1.9 1.5 2.1 2.2 1.2 3.8-.8 1.2-.9 2.4-.2 3.5 2.8 5.1 6 16.5 7.4 26.7 1.3 8.9 1.7 21.7 1.9 57 .2 25 .6 49.2 1 53.7l.8 8.3H512V0H0zM273 15.5c4.9 2.5 3.3 6.5-2.6 6.5-6.4 0-8.2-2.4-4.7-6.2 2-2.2 3.5-2.3 7.3-.3m207.8 17.2c.5 1.8-5.4 1.6-9.3-.2-2.9-1.4-2.9-1.4 2.9-1.2 3.7.1 6.1.7 6.4 1.4M346 45.7c0 .6-4.4-1.8-6.3-3.6-4.5-3.9-3.4-5 1.2-1.1 2.8 2.4 5.1 4.5 5.1 4.7m-23-1.5c-3.5 5-7.2 8.8-8.7 8.8-1.7 0-1.7-.4.7-4.9 2.2-4.5 8-9.5 9.4-8.1.5.5-.1 2.2-1.4 4.2m-15 13.4c2.1 5.5.5 10-2 5.5-1.3-2.5-1.3-8.1 0-8.1.6 0 1.5 1.2 2 2.6M455.5 83c1.4.6.5.9-3.5.9-3 0-6.2-.4-7-.9-1.9-1.2 7.6-1.2 10.5 0m-192.2 93.4c8.5 1.5 9.9 2.2 7.7 3.6-4 2.5-17-.2-17-3.4 0-1.9-.4-1.9 9.3-.2m94.7.6c1.2.8 1 1-1 1-1.4 0-3.2-.5-4-1-1.2-.8-1-1 1-1 1.4 0 3.2.5 4 1m-106 5.4c0 3.7-.4 5.6-1.4 5.9-1.7.7-2.6-1.3-2.6-5.3 0-3.8.9-6 2.6-6 1 0 1.4 1.4 1.4 5.4M412.7 218c1.5 0 3.5.5 4.3 1 1.1.7-.1 1-4.1 1-3.5 0-6.1-.5-6.8-1.3-1.5-1.9-.3-2.9 2-1.7 1 .6 3 1 4.6 1m92.3 5c2.1 1.3.5 2.4-5.7 3.9-7.6 1.9-14.3 2.1-14.3.6 0-3.3 16.1-7 20-4.5m-91.5 19c-1.6 1.6-3.3 3-3.7 3-1.6 0 1.3-4.1 3.5-5 3.3-1.3 3.3-1.2.2 2M45 245.9c2.4.7 2.4.8.5 1.8-3.2 1.7-11.1 2.6-13.2 1.5-1.6-1-1.4-1.2 1.7-2.6 3.7-1.6 7-1.8 11-.7m288.8 23.3c1.8 1.8 1.5 3.5-.8 4.1-2.7.7-4.7-1.8-3-3.8 1.5-1.8 2.2-1.9 3.8-.3m82.6 37.6c2.2 1.5 4.1 3.3 4.4 3.9.7 2.4-3.3 1.3-7.1-1.8-6.3-5.2-4.1-6.9 2.7-2.1M346.5 325c1.8 3.5 1.3 5-1.9 5-3.5 0-4.5-1.7-3.3-5.1 1.5-3.7 3.2-3.7 5.2.1m-3.6 35.1c3.5 1.2 3.8 2.1 1.6 3.9-1.6 1.4-8 .6-9.1-1.1-1-1.6.4-3.9 2.4-3.9 1.1 0 3.3.5 5.1 1.1m99.8 8.4c5.1 5.3 5.6 7.6 1.6 7-5.2-.6-8.1-2.4-10.7-6.2-1.4-2.1-2.6-4.1-2.6-4.5 0-.5 1.7-.8 3.7-.8 3 0 4.4.8 8 4.5"/><path d="M199 181.7c-1.9.3-3.9.8-4.3 1.2-1.1 1.1 2.4 18.2 3.9 18.8.7.2 2.6-.5 4.2-1.7l3-2.2-1.7-3.2c-1-1.7-2.1-4.3-2.4-5.8-.4-1.4-1-3.4-1.4-4.4-.5-1.4-.2-1.6 2.1-1 2 .5 2.7.3 2.4-.5-.5-1.5-1.3-1.7-5.8-1.2"/></svg>