<svg xmlns="http://www.w3.org/2000/svg" width="682.667" height="512" version="1.0" viewBox="0 0 512 384"><path d="M0 192v192h18.1c16.9 0 18.1-.1 17.4-1.8-1.4-3.4-2.5-8.8-2.5-13 0-3.7-.4-4.5-3-6-3.6-2-3.6-2.5-.8-6.4 1.7-2.5 1.9-3.4.9-5s-.8-2.4.9-4.8 1.9-3.3 1-5c-1.4-2.5-.6-5.5 2.7-9.7 2.6-3.6 20.7-17.7 37.8-29.7 15.3-10.7 29.3-24.3 42-41.1 2.9-3.9 6.5-8.4 7.9-10 1.4-1.7 2.6-3.5 2.6-4.1 0-.5-.9-5.9-2-11.8-1.1-6-1.7-12-1.3-13.4.5-2 0-3-2.8-5.4-2.8-2.3-3.1-3-1.9-3.8.8-.5 2.1-1.4 2.9-1.9 1.6-1 3-8.2 3-15.9.1-4.9 0-5.2-1.8-4.2-4.7 2.5-12.1.2-23.2-7.1-4.8-3.1-8.2-4.7-9.2-4.3-1.9.7-5.6-2.8-11.9-11.4-5.8-7.9-6.8-11.1-7.5-24.1-.9-18.4 2.1-31.7 11.4-50.6 3-6 7.5-13.8 9.9-17.3 10-13.9 29.1-30 45.6-38.3 3.2-1.6 5.8-3.3 5.8-3.7s-.9-3.6-2-7.1c-1.8-6.1-2-9.8-.3-5.5.9 2.1 6.3 11.4 6.7 11.4.1 0 3.6-1.1 7.7-2.5 13.8-4.7 26.2-6.8 41.4-6.8 26.3-.2 46.3 6 70 21.6 7.2 4.7 8.7 6.3 15 15.7 5.9 8.7 7.3 11.6 8.3 17.1 2.1 11.5 1.4 17.5-2.4 20.4-.8.5-2 4.6-2.9 8.9-2.5 13.6-7.2 20.5-15.5 22.9-4.1 1.2-4.7 1.8-8.6 9.2-7.4 13.9-15 19.6-28.1 21-6.6.7-7.2 1.2-15.8 11.1-3.9 4.6-4.5 6.9-1.6 5.9 2.5-.8 4.3 1.9 7.2 10.5 3 9.2 3.1 20.8.3 24.7-2.2 3-2.3 3.1-15.8 9.3-10.3 4.7-13.3 4.7-17-.3-1.3-1.8-3.2-5.9-4.3-9.1-1.1-3.3-2.5-6.2-3.2-6.4-1.1-.4-1.2 2-1 11.2.4 10.5.6 11.9 2.6 13.4 1.5 1.2 1.9 2.3 1.3 3.7-.4 1.3.4 4.8 2.2 9.9 4.8 13.1 5.9 23.7 5.9 55.1 0 15.4-.3 35.4-.6 44.5-.5 13-.3 18.2.9 24.5.9 4.4 1.6 9.7 1.6 11.7v3.8h318V227.8l-3.2.6c-7.2 1.5-14.6 1.8-15.2.7-1.1-1.7 6.4-4.4 12.6-4.5l5.8-.1V0H0zM278.4 19.1c4.4 2 3.8 5.6-1 6-7.2.7-10.2-1.5-6.9-5.1 2.1-2.3 4.3-2.5 7.9-.9M490.5 34c-.8 1.3-6.5 1.3-8.5 0-1.1-.7 0-1 3.8-1 3.3 0 5.1.4 4.7 1M323.2 50.2c-1.6 2.4-3.9 5.2-5.1 6.2-2.1 1.9-2.1 1.9-2.1-.6 0-2.6 5.9-11.3 8.2-12.1 2.4-.8 1.9 2.2-1 6.5m29.4.6c-1.1 1-9.6-5.2-9.6-7 0-.5 2.2.8 5 2.9 2.7 2 4.8 3.9 4.6 4.1m-40.2 8.8c1.7 1.6 2.2 8.4.7 8.4-1 0-3.1-5.4-3.1-8.1 0-2.3.4-2.4 2.4-.3M464.5 82c1.5.6.7.9-3 .9-2.7 0-5.9-.4-7-.9-1.5-.6-.7-.9 3-.9 2.8 0 5.9.4 7 .9M284 174.6c0 1.6-7.9 2.9-11.7 1.9-3.5-.8-7.5-3.3-6.9-4.3.8-1.3 18.6 1 18.6 2.4m83.5 6.6c.7.8.1.9-2.5.4-1.9-.3-3.9-1.1-4.5-1.8-.7-.8-.1-.9 2.5-.4 1.9.3 3.9 1.1 4.5 1.8m-114 13.5c-.9 5.3-1.3 6.3-2.5 6.3-1.1 0-1.4-8.3-.3-9.3.3-.4 1.3-.7 2-.7 1 0 1.2.9.8 3.7M420.9 217c3.9 0 4.8 1.6 1.5 2.4-2.7.7-9.4-1-9.4-2.3 0-1.6 1.3-2 3.1-1.1 1 .6 3.1 1 4.8 1m3.7 23.6c-1.5 1.4-3.1 2.2-3.4 1.9-.4-.3.7-1.7 2.3-3 3.9-3 4.9-2.1 1.1 1.1m-369.1 6.3c.7 1.2-5.8 3.1-10.7 3.1-4.1 0-4.9-1.3-2-2.9 2.2-1.3 11.9-1.4 12.7-.2m284.3 29.3c.4 1.9-3.5 3.5-5 2-.6-.6-.8-1.8-.4-2.7.8-2.1 5-1.6 5.4.7m81.1 36.7c4.4 2.3 6.6 4.6 5.2 5.5-.9.6-9.1-2.9-9.1-3.8 0-.3-.3-1.1-.6-2-.8-2.1-.1-2 4.5.3m-73.3 22.7c1.7 4.1.8 5.7-3 5.2-2.8-.4-3.9-2.9-2.7-6.1 1.5-3.8 3.9-3.4 5.7.9m-.1 28.8c3.8 1.6 4.4 3 1.9 4-4.4 1.7-10.3-.7-9.1-3.8.8-2 2.7-2 7.2-.2m109.1 3.7c2.9 1.7 7.4 7.4 7.4 9.3 0 .3-1.7.4-3.7.1-7.6-1-9.6-2-11.9-6.1l-2.2-3.9 2.6-.6c4.2-1 4.3-1 7.8 1.2"/><path d="M200.8 180.8c-2.7.9-4.8 2-4.9 2.5-.2 1.1 2.1 12.8 3.2 16.4 1 3.2 1.1 3.2 3.7 1.9 6.3-3.4 6.6-3.9 4.7-7.7-1-1.9-2-4.3-2.1-5.4-.2-1.1-.6-3-1-4.3-.6-2.1-.4-2.2 2.1-1.6s2.6.5 1.6-1.5c-1.4-2.5-1.2-2.4-7.3-.3M138 220.2c0 1.3.5 3 1 3.8.7 1.1 1 .5 1-2.3 0-2-.4-3.7-1-3.7-.5 0-1 1-1 2.2"/></svg>