<svg xmlns="http://www.w3.org/2000/svg" width="682.667" height="512" version="1.0" viewBox="0 0 512 384"><path d="M0 192v192l51.8-.1c29.8 0 50.9-.4 49.7-.9-1.1-.5-3.5-.9-5.4-.9-1.9-.1-6.3-.6-9.7-1.2-5.1-.9-7.2-1.9-10.9-5.1-5.9-5.2-10-6.1-19-4.2-3.8.8-8 1.7-9.2 2-1.4.3-3.8-.5-6-2-2.1-1.4-6.7-3.2-10.3-4.1-11.8-3-13-4.9-9.9-15 1.1-3.6 1.7-7.4 1.4-8.5-.4-1.3.1-2.4 1.8-3.5s2.7-2.9 3.1-5.6c.8-5.2 2.7-8.7 6.3-12 3.7-3.4 23.7-15.9 39.8-24.9 17.5-9.7 26.4-16.3 37.8-27.8 12.2-12.4 22.7-24.7 22.7-26.4 0-.8-1.3-5.4-3-10.3-1.6-4.9-3-10.5-3-12.5 0-2.7-.7-4.3-3-6.5-1.6-1.6-3-3.2-3-3.7s1.6-1.6 3.5-2.5c3.8-1.8 4.1-2.3 5-10.4l.7-5.6-4.1-.7c-2.2-.3-7.6-2.2-12-4.1-8.9-3.9-10.3-4.2-12.1-2s-2.9 1.9-8.5-1.9c-7.5-5.2-14.1-11.7-15.3-15.1-.5-1.7-2.4-6.7-4-11.3-3-8.1-3-8.6-2.1-18.5 1.2-14 2.7-21.6 6.1-32.1 8.9-27.6 26.4-50 52.6-67.2 4.5-3 8.2-6 8.2-6.7 0-1.3-6.4-16.4-7.4-17.4-.3-.4-.6-1.3-.6-2 0-1.7 5.5 5.4 9.4 12 1.6 2.6 3.1 4.9 3.6 5.2.4.3 3.6-.8 7.1-2.4C196 8.3 246.6 13.3 280.9 40.7c6.6 5.2 8.9 7.8 10.7 11.7 3.3 7.4 5 16.1 3.7 18.9-.6 1.2-1.6 6.7-2.1 12.2-1.2 12.5-3.5 16.9-9.4 18.7-4.6 1.4-6.2 3.4-8.4 10.9-3.6 12.4-11.5 21-21 22.9-10.3 2-10.7 2.2-14.4 9.1-4.1 7.4-10.8 14.6-16.5 17.4-2.2 1.1-4.2 2.1-4.3 2.2-1 .5 9.2 17.3 11.4 18.8 1.4.9 3.6 3.9 4.9 6.8l2.3 5.2.1-3.6c.1-2-1-5.6-2.4-8.2-3.6-6.9-1.4-10.4 3.4-5.3 4.4 4.7 6.6 18.1 3.8 23.6-.7 1.4-2.2 2.9-3.4 3.5-1.3.5-2.7 2.1-3.2 3.5-2.4 6.3-6.1 8.8-19.6 13.6-7.1 2.5-14 4.8-15.2 5.1-3.2.7-8.2-2.6-10.5-7-1.1-2.2-2.2-3.6-2.5-3.3-1.1 1 .9 11.7 2.2 12.2 1.9.8 2.7 3.4 1.6 4.8-.7.8-.2 3.8 1.4 8.9 4.8 15 5.3 29 1.9 56.5-1.2 9.9-1.1 12.6.2 21 .9 5.3 2 20 2.5 32.7.5 12.6 1.2 24.7 1.5 26.7l.6 3.8H512V238.2l-2.2-.7-2.3-.8 2.3-.4 2.2-.4V0H0zM294.9 31.5c2.9 2.8-3.2 5.4-8.1 3.4-3.5-1.4-3.5-2 0-4.1 2.8-1.8 5.7-1.5 8.1.7m82.5 27.6c2.9 2.5 3.3 3.9 1.1 3.9-1.6 0-8.5-5.7-8.5-7.1 0-1.3 4.5.7 7.4 3.2m-62.9 10c-.4 1.8-1.5 4.8-2.3 6.8l-1.7 3.6-.3-3.7c-.3-3.8 2.1-9.8 3.9-9.8.7 0 .8 1.2.4 3.1m3.5 14.6c0 1.6-.5 3.5-1 4.3-.7 1.1-1 .4-1-2.8 0-2.3.5-4.2 1-4.2.6 0 1 1.2 1 2.7m166.3-.3 3.2 1.4-3.1.1c-3.4.1-9.3-1.6-10.9-3.2-1.4-1.3 6.7-.1 10.8 1.7M281.5 118c2.4 2.7-.1 2.7-3.5 0-2.4-1.9-2.4-2-.4-2 1.1 0 2.9.9 3.9 2m49.9 28.9c1 1.5-3.2 4.3-7.4 4.8-2.9.4-5.3 0-8-1.3-5.5-2.6-5-3.8 1.3-3.2 2.8.2 6.8.1 8.7-.2 1.9-.4 3.8-.8 4.2-.9.4 0 .9.3 1.2.8m53.5 56.4c.6.8.8 1.6.5 1.9-1 1-4.4-.4-4.4-1.8 0-1.8 2.4-1.8 3.9-.1m62 3.3c1.8.6.2 2.3-2.7 2.9-3.1.6-9.2-1.4-9.2-3 0-1.1 1.2-1.3 5.3-.9 2.8.3 5.8.8 6.6 1m24.1 13.9c0 .9-6.2 3.6-7.3 3.2-.7-.2.4-1.1 2.3-2 3.8-1.7 5-2 5-1.2M271.1 234c-6.3 5.9-8.1 7-8.1 4.9 0-4 7.6-10.9 12-10.9 2.3.1 1.9.7-3.9 6M86.8 245.2c-.5 1.4-5.1 2.3-7.4 1.4-2.7-1-.4-2.6 3.7-2.6 2.8 0 3.9.4 3.7 1.2m-51.6 27.4c2.3 2 4.5 3.8 4.6 3.9.2.2-1.6 1.4-4 2.6-2.9 1.5-6.2 2.2-10.2 2.3-5.6.1-6-.1-8.9-3.6l-3-3.8 2.3-2.5c2-2.1 3.2-2.5 8.6-2.5 5.7 0 6.6.3 10.6 3.6m319.5 17c.4 1.1-.1 2.2-1.2 3-4 2.9-6.1.8-2.8-2.8 2-2.2 3.2-2.3 4-.2m82.4 51.4c1.1 0 1.9.7 1.9 1.5 0 1.8-5.1 2.1-8.1.5-3.1-1.7-2.3-3.3 1.2-2.6 1.7.3 4 .6 5 .6m-89.8 27.3c1.9 2.5 1.9 2.7.3 5.2-2.1 3.2-4.2 2.9-6.3-.7-1.5-2.4-1.5-2.8.1-5.3 2-3 3.2-2.9 5.9.8m18 1.9c1.5 1.1 2.5 2.4 2.2 2.9-.9 1.3-5.7 1-7.7-.5-2.1-1.5-2.3-2.7-.6-4.4 1.2-1.2 1.6-1 6.1 2"/><path d="M198 166.9c-1.4.4-2.5 1.3-2.5 2.1s2 9.4 4.4 19.2l4.5 17.6 9-4.5c5-2.5 9.3-4.7 9.5-4.9s-.5-2-1.6-4.1c-2.2-4.4-2.9-10.3-1.2-11.4.8-.4-.1-2.9-2.7-7.8l-3.9-7.1-6.5.1c-3.6.1-7.6.4-9 .8m-52.5 52.8c1.1 4.6 2.5 5.1 2.5 1 0-2.7-.4-3.7-1.6-3.7-1.3 0-1.5.6-.9 2.7"/></svg>