<svg xmlns="http://www.w3.org/2000/svg" width="682.667" height="512" version="1.0" viewBox="0 0 512 384"><path d="M0 192v192h512V0H0zM236.6 85.5c.5 1.1 1.6 1.3 4.3.9 2-.3 4.9-.1 6.4.5l2.9 1.1-2.1 3.4c-3.2 5.2-2.8 5.9 2.9 5.4 4.4-.4 5.6-1.1 9.4-5 2.4-2.5 6-5.1 8.1-5.8 4.8-1.6 17-.9 20.9 1.2 3.9 2 22.5 17 22.6 18.2 0 1.8-8.2-.3-12.9-3.3-2.6-1.7-6-3.1-7.4-3.1-2.8 0-3.5 1.3-4 7.9-.2 3.4-.2 3.4 7.3 5.9 7.2 2.4 17 8.3 17 10.4 0 1.4-2.1 5.2-3.3 6-.6.3 1.1 1.9 3.7 3.5 2.6 1.5 5.5 3.4 6.4 4.1 1.5 1.1 1.3 1.2-1.3.7-2.8-.5-2.7-.4 1.1 1.7 2.3 1.3 3.9 2.9 3.7 3.5-.3.7 0 1.3.5 1.3s1.3.7 1.6 1.6c.3.8.2 1.2-.4.9-.5-.3-1.9-.8-3-1-1.9-.4-1.9-.2-.5 2.5 1.9 3.6 1.9 4.6.2 3.1-.8-.6-1.6-.9-1.8-.7s-.2 4.4.1 9.2l.5 8.9L336 172c16.4 3.5 16.5 3.5 16.8 6.3.3 2.4 0 2.8-1.5 2.3-4.9-1.5-19.6-4.7-20.4-4.4-2 .7 9.5 8.2 12.6 8.2 1.6 0 11.3-1.5 21.4-3.3 17.4-3.1 18.9-3.3 27.5-2.2 14.7 1.9 15.6 2.1 15.6 4.2 0 1.3.7 1.9 2.1 1.9 1.5 0 1.9.4 1.5 1.6-.8 2 1 5.4 2.9 5.4.7 0 1.6.9 2 2 .5 1.6 1.2 1.8 3.7 1.3 2.6-.5 3-.3 2.5 1-.9 2.3 4.2 5.8 7.4 5.1 2.4-.5 2.4-.5-.3 1.6-3.4 2.6-3.5 4.5-.6 6.1 1.4.8 1.8 1.4 1 1.7-.6.2-1 .8-.6 1.3.3.5.1.9-.4.9-1.3 0-2.2 4.9-1.1 5.6 1.4.8 1.1 2.7-.3 2.1-.7-.2-2.4-.7-3.8-1.1-2.2-.6-2.2-.5.5 1.1 2.4 1.3 2.6 1.8 1.3 2.1-1 .2-1.8.8-1.8 1.3 0 .6-.7.6-1.9-.1-1.1-.5-3.2-1.5-4.6-2-2.3-.9-2.6-.8-2.1.5.3.8.1 1.5-.4 1.5s-1.5.7-2.4 1.5c-.8.9-3 2.2-4.7 2.9-3.1 1.3-3.2 1.4-1.1 2.5 3.5 1.9 2.5 3.1-1.2 1.6-1.8-.8-3.6-1.2-3.8-.9-.3.3-2.7-.7-5.3-2.1-2.7-1.4-5-2.3-5.2-2.1-.3.2 1.5 2.3 3.9 4.6s3.4 3.7 2.3 3.2c-1.1-.6-2.9-2-3.9-3.1-5-5.5-14.9-8.8-33.6-11.1-11.3-1.4-15.4-2.4-23.8-5.7-3.9-1.5-6.7-2.1-7.5-1.6-.7.5-4.2.9-7.9.8-7.5 0-7.4-.2-5.6 7.4 1 4.3.9 5.3-.6 7.5-2.8 4.4-6.3 3.1-9.8-3.7l-1.4-2.9-1.2 4c-.7 2.2-1.9 4.6-2.8 5.3-1.4 1.1-1.9 1-3.5-1-1.5-1.8-1.9-4-1.9-9.6v-7.2l-5.7-.6c-3.2-.4-8.9-.2-12.8.3-10.1 1.4-19.1 1.2-20.3-.3-.6-.7-1.2-3-1.4-5.2l-.3-4-10.4-1.1c-5.8-.7-16.8-1.5-24.4-1.9-15.9-.8-17.1 0-7.6 4.7 2.9 1.5 5.4 3.2 5.3 3.8-.1.5-.2 1.6-.2 2.4-.4 2.8-3.1 2.3-11.3-1.9-7.8-4-18.7-7.6-28.6-9.4-3.7-.7-4.6-.5-6.8 1.5-4.2 3.8-8 2.9-9.4-2.2-.7-2.8-1.1-2.9-9.3-4-10.1-1.4-12-2.3-14.1-6.6-2.6-5.3-1-6.2 9.8-5.4 14.7 1.1 16.2 1.2 36 3.4 10.5 1.2 28 2.9 39 3.7l19.9 1.6 4.4-4.8c2.4-2.6 5.9-7.7 7.7-11.3 1.9-3.6 4.3-7.9 5.4-9.5 2.5-3.6 2.6-4.5.6-4.5s-3-2.3-4.9-11.4c-1.8-8.5-2.8-10.6-5.6-10.6-2.4 0-7.6-4.4-8.3-6.9-.3-1.1 0-2.6.7-3.4 1.8-2.2 7.3-5.7 8.9-5.7 2.6 0 5.8 5.1 5.5 8.6-.1 1.7.3 3.8.9 4.6.7.8 2.1 3.3 3.1 5.7 1.2 2.6 2.2 3.8 2.7 3.1.4-.6.4-1.8.1-2.6-.4-.9.5-2.9 1.9-4.6 2.7-3.2 3-5.2 1.6-9.1-.7-1.9-1.5-2.3-3.8-2s-3.3-.3-5.6-3.6c-1.7-2.4-2.3-4.2-1.7-4.6 1.5-.9.2-2.5-2-2.5-1 0-4.5-1.7-7.7-3.9-3.2-2.1-6.7-4.1-7.8-4.5-2.8-.8-10.1-7.7-10.8-10.1-1.2-3.6.7-5 4.8-3.8l3.6 1.1-3.1-3.4c-3.5-4.1-3.5-3.9-1.2-6.9 1.9-2.7 5-3.3 5.8-1M425 198c0 .5-.2 1-.4 1-.3 0-.8-.5-1.1-1-.3-.6-.1-1 .4-1 .6 0 1.1.4 1.1 1m-233.8 23.2c-.7.7-1.2.8-1.2.2s.3-1.4.7-1.7c.3-.4.9-.5 1.2-.2.2.3-.1 1.1-.7 1.7"/><path d="M299 146.9c4.2 3.7 3.4 4-2 .6-2.2-1.4-4.2-2.5-4.4-2.5-.4 0 .4 2.3 4.5 12.7 1.2 3.2 3.4 2.9 4.9-.6.6-1.7 2.7-4 4.5-5.3 1.9-1.2 3.1-2.6 2.8-3.1s-.9-.3-1.4.4c-.8 1.4-2.4.9-8.9-3.2l-3.5-2.1zm-31 19.7c-1.1 2.5-2 4.8-2 5.1 0 .2-2.3 3.8-5 7.8-2.8 4-5.4 8.9-5.7 10.9-.5 3.3-.4 3.6 1.8 3.6 1.7 0 4.9-2.4 10.5-7.9 11.3-11.3 11.4-11.6 7-18.5-2-3.1-3.8-5.6-4.1-5.6s-1.5 2.1-2.5 4.6m49 11.3c0 1 9.1 4.4 9.8 3.7.5-.5-7.3-4.6-8.8-4.6-.5 0-1 .4-1 .9"/></svg>