<svg xmlns="http://www.w3.org/2000/svg" width="682.667" height="512" version="1.0" viewBox="0 0 512 384"><path d="M0 192v192h53.8l53.7-.1-3.2-2.9c-2.7-2.5-4.3-2.9-11.3-3.6-4.4-.3-8.3-1.1-8.6-1.5-.3-.5-1.6-.9-2.9-.9s-4.6-1.9-7.6-4.5c-4.9-4.2-5.7-4.5-11.1-4.5-3.2 0-8.8.5-12.6 1.2l-6.8 1.1-4.2-3.1c-2.4-1.7-7.3-4.1-10.9-5.3-10.9-3.6-12.1-6-7.8-16.3 1.3-3.2 2.1-6.5 1.8-7.3s.6-2.6 1.9-4.1c1.4-1.5 2.8-4.2 3.2-6.1 1.7-9.4 6.8-13 43.1-31.1 30.2-15 37-19.7 55.3-38.3l12.3-12.5-2.7-6.8c-4.4-11.6-5.5-15.8-5-19.1.2-1.8 0-3.5-.5-3.8-1.4-.9-1.1-4.7.6-5.9.9-.7 2.1-4.8 3.1-10.6.8-5.2 1.7-10.5 2.1-11.8.5-1.9.1-2.2-2.8-2.2-2.7 0-4.1.8-7 4.1-3.4 4-3.8 4.2-8.9 4-3.9 0-7.4-1-12.8-3.6-7.7-3.6-11-4.3-12.9-2.4-1.1 1.1-8.5-4.7-14.2-11.3-4.5-5.2-6.5-14.8-6.5-31.3-.1-24.5 7.1-47.3 21.8-68.4 8.4-12.3 25.1-28.3 38.6-37.2l2.5-1.6-5.9-11.4c-6.5-12.7-5.2-12.6 4.2.3 3.1 4.3 5.9 7.8 6.3 7.8.3 0 4.9-2 10-4.4 25.9-12.1 52.4-16.7 75.3-13.1 23.2 3.6 42 11.4 54.7 22.8 8.3 7.5 9.9 10.2 11.9 20.5 1.4 6.8.4 11.2-2.5 11.2-1.7 0-2.2 1.8-3 12-.9 12.4-5.3 18.6-14.7 20.5-3.9.7-5.6 2.9-7.4 9.3-4.6 15.9-12.9 23.4-28.4 25.7-6.2.9-8.6 2.7-11.6 8.8-1.4 2.8-3.7 6.7-5.1 8.5l-2.5 3.3 7.7 12.8c4.5 7.5 8.6 13.3 9.9 13.9 2.4 1 8.6 11 8.6 13.6 0 .8.5 1.8 1.1 2.2.8.5 1-1.3.7-6.2-.3-5.3-.9-7.7-2.7-10.1-2.6-3.5-2.3-6.3.7-6.3 5.4 0 10.4 13.8 8.1 22.4-1.5 5.5-3.5 7.6-7.6 7.6-2.8 0-3.3.4-3.3 2.2 0 3.7-7.1 10.5-12.1 11.7-2.4.6-9.5 2.8-15.7 4.8-11.1 3.6-11.3 3.6-15 2l-3.7-1.7 2.3 2c1.9 1.5 2.2 2.6 1.7 4.9-.4 2 .3 5.7 2 11.3 3.7 11.3 4.4 28.4 2.1 49.8-1.6 15.1-1.6 15.8.4 27 1.7 9.4 3.7 39.9 4 59.7v2.3h308V0H0zM292 32.5c1.9 2.3 0 3.7-4.5 3.3s-5.5-2-2.3-3.6c3.3-1.5 5.4-1.4 6.8.3m90 24.7c3.5 2.4 3.8 4.5.5 4-2-.3-6.5-4-6.5-5.4 0-1.5 2.6-.8 6 1.4m-81.3 18.3c-.2 5.6-1.1 7-2.2 3.5-.7-2.3.4-9 1.6-9 .4 0 .7 2.5.6 5.5m173.6 10.7c1 .5 1.7 1.1 1.5 1.4-.6.5-9.8-2.6-9.8-3.3 0-.6 6.1.7 8.3 1.9m-166.6 8c-.3.8-.6.5-.6-.6-.1-1.1.2-1.7.5-1.3.3.3.4 1.2.1 1.9m-28.1 23.9c.3.6-.5.3-2-.6-1.4-1-2.6-1.9-2.6-2.2 0-.7 3.9 1.7 4.6 2.8m59.9 12.8c-1.7 1.6-8.6 3-11.9 2.5-5.4-1-6.4-1.6-3.6-2.4 3.6-1.1 16.6-1.2 15.5-.1m105.1 65.4c1.3 1.2-.5 2-4.8 2.1-4.7.1-8.2-.9-7.5-2.1.6-1 11.3-1 12.3 0m28.1 17.3c-.3.3-1.2.4-1.9.1-.8-.3-.5-.6.6-.6 1.1-.1 1.7.2 1.3.5M377 216c1.3.8 1.3 1-.2 1-.9 0-2-.5-2.3-1-.8-1.3.5-1.3 2.5 0m-94.6 12.9c-5 3.6-12.2 8.1-12.9 8.1-.3 0 .2-1.1 1.1-2.5 2.2-3.3 10.2-8.5 13.2-8.5 2.3 0 2.2.2-1.4 2.9M510 235c0 1.9-3.3 2.7-6.6 1.7-4.9-1.5-4.2-2.7 1.6-2.7 2.8 0 5 .4 5 1m-422.2 7.9c1.1.7 1.1.9-.2 1.4-1.9.7-4.6-.1-4.6-1.4 0-1.1 3.1-1.1 4.8 0m-46.4 11c4.1 1 10.5 6.5 10.6 9.2 0 2-2.8 2.9-9 2.9-5.4 0-8.2-1.7-10.4-6.5-3-6.2-.6-7.7 8.8-5.6M351.5 291c-2.1 2.3-3.5 2.6-3.5.6 0-2.3 3.1-4.9 4.3-3.7.7.7.5 1.7-.8 3.1m80.4 54.6c.2.2-.7.4-2.2.4-1.4 0-2.9-.5-3.2-1-.6-1 4.2-.4 5.4.6m-65.5 21.6c-1 1.5-4.3.8-6.3-1.4-1.5-1.6-1.8-2.5-1-3.4.9-1.1 1.8-.8 4.4 1.3 1.9 1.5 3.1 3.1 2.9 3.5m-25.4 4c2.4 3.3 2.1 5.1-1.3 7.2-3.2 2-5.9-4.2-3.7-8.5 1.5-2.6 2.2-2.4 5 1.3"/><path d="M205 164c-1.9 1-5.2 2.2-7.2 2.5-2.1.4-3.8 1-3.8 1.4s1.9 3.7 4.2 7.2c3.7 5.7 4.2 7 4 11.4-.9 15.1-.3 20.5 1.9 20.5 1.2 0 18.9-7.9 20.2-9 .5-.4.1-2.5-.8-4.6-.9-2.2-1.5-5.8-1.4-8 .2-3.5-.6-5.6-5.5-13.8-3.3-5.3-6.4-9.6-7-9.5s-2.7.9-4.6 1.9m-57 54.5c0 1.2 2.4 5.5 3.2 5.5.4 0 .8-1.4.8-3 0-2.3-.4-3-2-3-1.1 0-2 .2-2 .5"/></svg>