<svg xmlns="http://www.w3.org/2000/svg" width="682.667" height="512" version="1.0" viewBox="0 0 512 384"><path d="M0 192v192h55c32.4 0 55-.4 55-.9 0-1.2-5.8-6.1-7.3-6.2-2.5-.1-15.4-1.8-18.3-2.4-1.8-.4-5.3-2.5-7.9-4.6l-4.8-4-13.6.2c-13.2.2-13.8.1-17.6-2.4-2.2-1.4-7.1-3.8-11-5.2-11.6-4.4-12.4-6-7.9-17.2 2.1-5.2 2.4-7 1.6-8.4-1-1.5-.7-2.2 1.8-3.9 1.9-1.3 3-3 3-4.5 0-4 3.7-11.2 7.2-13.8 4.7-3.7 21.6-11.9 41.4-20.2 19.1-7.9 29.3-14.2 42-25.7 9.7-8.8 20.4-20.1 20.4-21.7 0-.6-1.6-5-3.5-9.8-3.7-9.2-4.6-18-2.6-24.7 1.9-6.2 4.2-20.9 3.3-21.8-1.4-1.4-11.6-3.2-14.3-2.5-1.4.4-3.6 2.3-5 4.4-2.3 3.6-2.7 3.8-7.7 3.8-3.9-.1-7.1-1-13.2-4-6.9-3.3-8.4-3.8-10-2.7-1.8 1.1-2.7.5-8.5-5.5-4.1-4.2-6.9-8-7.5-10.3-2-7.8-3-23.8-2-34.4 3.6-38 22.6-69.4 58.3-96.1l2.7-2-3.6-5.5c-1.9-3-4.9-8.2-6.6-11.5l-3-6 3.2 3c1.8 1.6 4.9 5.5 7.1 8.5 7.1 10.2 5.5 9.7 15.5 4.6 21.6-10.8 38.6-15.4 59.9-16.3 16.2-.6 26.5.8 42.2 5.8 18.4 5.9 31.1 14 37.7 24.1 4 6.1 6.1 21.3 3.4 23.6-.7.5-2.2 1.2-3.3 1.4-2.2.4-3.3 4.7-3.4 12.9-.1 5.3-4.2 14.3-7.7 16.5-1.2.9-4.7 2.2-7.6 2.9-6.1 1.7-7.2 2.8-9.4 10.4-2.2 7.7-4.6 12-9.1 16.4-5.2 5.3-9.4 7.3-18.5 8.7-5 .8-8.5 2-9.8 3.2-2 1.9-6 9.8-6 11.8 0 2.2 20 31.7 22.7 33.5 2.9 1.9 8.2 9.8 9.3 13.9.8 3 2.8 3 3.6.2 1-3.9-.3-8.9-3.5-13.7-3.2-4.7-3.1-6.9.4-6.9 3.1 0 6.1 4 8 10.3 1.9 6.4 1.9 11 .1 14.6-2.1 4-4.2 5.4-8.3 5.5-3 .1-3.8.5-4.3 2.6-.4 1.4-2.3 4.2-4.3 6.4-2.9 3.1-4.8 4.1-9.9 5.3-3.5.8-10.6 2.7-15.8 4.4-12.3 3.8-12.6 4.3-8.6 16.4 3 8.8 3 9.4 3 30 0 11.6-.5 24.5-1.2 28.7-1 6.4-.9 8.9.3 14 2.4 10.8 4.8 32 4.2 38.3-.3 3.3-.1 11.1.6 17.2l1.1 11.3h25.8c20.9 0 25.8-.3 25.8-1.3 0-.8.9-2.2 2-3.2 1.6-1.4 2.2-1.5 3.4-.5.9.6 1.8 2 2.1 3.1.6 1.9 3.4 1.9 123.1 1.9H512V0H0zM288.8 33.2c.2 1.2-.6 1.9-3.3 2.4-4.7.8-7-1-4-3.2 2.6-1.9 6.9-1.4 7.3.8m93.7 22c3.6 2.4 4 4.1 1.1 4.6-1.7.4-7.6-4.3-7.6-6 0-1.5 3-.8 6.5 1.4M293 72.6c0 1.4.5 3.4 1.1 4.6 1.4 2.7.1 3.8-1.7 1.4-1.6-2.3-1.9-8.6-.4-8.6.6 0 1 1.2 1 2.6m171.5 14c2 .8 3.5 1.8 3.2 2.1-.7.7-7.5-1.6-8.2-2.8-.9-1.3.7-1.1 5 .7M300.7 97.2c-.3.8-.6.5-.6-.6-.1-1.1.2-1.7.5-1.3.3.3.4 1.2.1 1.9M273 115.5c1.7.9 3 1.8 3 2.1 0 .4-5.9-2.3-6.9-3.2s1.3-.3 3.9 1.1m65.4 6.2c-2.1 1.5-15 1.8-15.9.4-.6-1.1 4.1-1.7 12.4-1.7 4.7 0 5.1.1 3.5 1.3m101.9 68.8c-.5 1.8-6.5 2.7-9.2 1.4l-2.6-1.3 4-.7c5.2-.9 8.1-.6 7.8.6m32 19.2c-.7.2-1.9.2-2.5 0-.7-.3-.2-.5 1.2-.5s1.9.2 1.3.5m-184.7 11.7c-4.3 3.5-14.9 9.6-15.5 9-1.1-1.1 8-8.2 12.2-9.8 5.9-2 6.6-1.9 3.3.8m81 .1c1 .8 1.4 1.5.8 1.5-.5 0-1.9-.7-3-1.5-1-.8-1.4-1.5-.8-1.5.5 0 1.9.7 3 1.5m132.9 9.4c.9 1.6-3.4 3.3-6.6 2.6-3-.7-3.8-2-1.6-2.8 2.1-.9 7.6-.7 8.2.2M87 242c0 1.3-3 1.3-5 0-1.1-.7-.7-1 1.8-1 1.7 0 3.2.4 3.2 1m-43.9 5c2.4.7 4.7 2.4 6.5 4.8 1.5 2 3.3 4 3.8 4.4 2 1.3-1 2.9-6.7 3.5-6.8.7-9.7-.8-12.7-6.7-3-5.8-2.7-7 1.8-7 2 0 5.3.5 7.3 1m306.3 41.4c-.3.9-1.5 2.1-2.5 2.7-1.5.8-1.9.6-1.9-.7 0-2.3 3.1-5.7 4.2-4.6.5.5.6 1.6.2 2.6M424 344c0 .5-.2 1-.4 1-.3 0-.8-.5-1.1-1-.3-.6-.1-1 .4-1 .6 0 1.1.4 1.1 1m-62.5 16c2.5 2.6 2.6 3 1.1 3.6-2.1.8-7.2-3.8-6.2-5.5 1.1-1.7 2-1.4 5.1 1.9m-25.2 9.9c2.2 3.7 2.1 5.4-.2 7.5-1.8 1.6-2 1.6-4-1-2.4-3.1-2.5-3.5-.9-6.9 1.5-3.3 3-3.2 5.1.4"/><path d="M203.2 159.3c-.6.7-3.1 2.3-5.6 3.5-5.2 2.7-5.2 3.4.5 10.2 7.2 8.6 8.1 13.7 3.7 22.3-1.1 2.1-1.6 4.7-1.3 5.8.4 1 .8 3.1 1 4.7.1 1.5.7 2.6 1.1 2.5.9-.2 21.6-8.5 22.3-9 .2-.1-.5-2.7-1.4-5.7-1-3-1.5-6.7-1.2-8.2.4-2.2-.9-4.9-6.1-12.8-6.6-10.2-10-14.6-11.3-14.6-.3 0-1.1.6-1.7 1.3M150 219.1c0 1.9 2.1 5 3.1 4.4 1.5-1 1-4.2-.7-4.9-2.1-.8-2.4-.8-2.4.5"/></svg>