<svg xmlns="http://www.w3.org/2000/svg" width="682.667" height="512" version="1.0" viewBox="0 0 512 384"><path d="M0 192v192h58.5c36.2 0 58.5-.4 58.5-.9 0-.6-1.5-2.2-3.4-3.6-2.7-2-5.2-2.8-11.8-3.5-15.5-1.8-14.5-1.4-23.9-8.3-2.9-2-4.1-2.2-17.7-2.2-14.3 0-14.8-.1-18.2-2.6-1.9-1.5-5.7-3.4-8.5-4.3-2.7-.9-6.5-2.5-8.2-3.6-3-1.8-3.3-2.4-3.3-6.7 0-2.7.9-6.8 2-9.2 2.4-5.2 2.5-6.5.5-8.1-2.1-1.7-1.9-2.3 1.2-4.2 2.5-1.5 3.5-3.9 5.8-13.2.2-1.1 1.9-3.4 3.6-5.2 3.2-3.3 7.5-5.2 39.4-17.4 18.7-7.1 24.7-10.2 35.9-18.1 8.4-6 30.6-27.1 30.6-29 0-.5-1.8-5.5-4.1-11.2l-4-10.2 1.1-8.5c.6-4.6 2-12.6 3.1-17.8 1-5.2 1.9-9.5 1.9-9.6s-3.3-.2-7.2-.3c-4 0-10.5-.4-14.3-.8l-7-.7-2.1 3.9c-2 3.7-2.1 3.8-7.5 3.7-4 0-7.2-.9-12.1-3.3-3.9-1.9-7.6-3.1-8.8-2.8-1.5.4-3.2-.8-6.6-4.6-6.4-7.2-7.1-8.8-8.5-22-1.5-13.8-.4-27.6 3.5-43 6.9-27.1 23.4-51.3 50-73.2l4.9-4.1-3.5-5.4c-1.9-3-5.2-8.7-7.3-12.5l-3.8-7 5.4 5.9c3 3.3 6 6.9 6.8 8 .8 1.2 2.5 3.5 3.8 5.3l2.4 3.2 9.2-4.9c23.4-12.4 44.4-18 68-18 20.5 0 36.1 3.6 55 12.6 6.7 3.1 8.6 4.7 13.1 10.3 9.4 11.8 11.9 30.1 4.1 30.1-3.6 0-5.5 2.6-5.5 7.5 0 14.5-6.6 24.4-17.3 26-2.3.4-5 1.2-5.9 1.9-1 .7-3.1 5.2-4.7 10-3 8.8-6.4 13.8-12.5 18.4-4.5 3.4-8.5 4.9-16.8 6.1-5.7.9-7.8 1.7-9.5 3.7-1.3 1.4-2.3 2.8-2.3 3.2 0 2.1 28.3 41.7 30.9 43.3 3.2 1.9 10.1 11.6 10.1 14.2 0 2.2 2 3.2 3.1 1.6 2.3-3.6.2-13.8-3.4-16.8-2.1-1.7-2.2-5-.2-5.7.8-.4 2.7.1 4.1 1.1 6.3 4.1 8.6 18.9 4.1 25.6-2.1 3.1-2.8 3.4-6.9 3.2-4.3-.1-4.7.1-5.9 3-2.3 5.7-8.3 10.4-14.7 11.7-12.7 2.6-20.7 5.3-22.8 7.7l-2.1 2.5 2.3 6.6c4.7 13.7 6 30.8 4.1 55-1.3 16.8-1.2 17.7 1 29.5 1.4 7.6 2.2 16.2 2.3 22.8 0 5.8.3 16.1.7 22.7l.6 12.2H512V0H0zM283 31.5c1.7 2 1.1 2.5-3.6 2.8-6.3.3-4.8-3.2 1.7-4.2.4-.1 1.2.6 1.9 1.4m98.1 20.8c3.9 2.6 4 4.1.4 4.5-1.7.2-3.3-.5-5-2.4-1.4-1.5-2.5-3.1-2.5-3.5 0-1.7 3.7-.9 7.1 1.4M286.9 72c.5 0 1.1.9 1.4 2.1.4 1.6.1 2-1.5 1.7-1.4-.2-2.6-1.6-3.4-4.2-1.7-4.8-.5-7.3 1.3-2.8.7 1.8 1.7 3.2 2.2 3.2m168.7 15.5c2.6 1.9-.1 2-3.6 0-2.3-1.3-2.3-1.4-.4-1.5 1.1 0 2.9.7 4 1.5M292.5 101c-.4 1.2-.9 1.9-1.2 1.7-.3-.3-.2-1.5.2-2.7s.9-1.9 1.2-1.7c.3.3.2 1.5-.2 2.7m43 9.9c-.8 1.4-8.9 2.4-13 1.7-6-1.2-2.8-2.6 5.6-2.6 4.8 0 7.8.4 7.4.9m-70.6 2.2c1.7.6 3.1 1.5 3.1 2 0 1.4-1.2 1.1-4.5-1.1-3.4-2.3-3.1-2.5 1.4-.9m168.9 70.1c-.7 1.9-6.3 2.9-9.4 1.7-2.3-.8-2.5-1.2-1.4-1.9 2.3-1.5 11.3-1.3 10.8.2m31.5 23.5c-.7.2-1.9.2-2.5 0-.7-.3-.2-.5 1.2-.5s1.9.2 1.3.5M289 213.6c-7.3 4.2-13.8 7.4-15.1 7.4-.7 0-.2-1.1 1.1-2.5 3.1-3.3 11.7-7.4 15.5-7.5 2.9 0 2.9.1-1.5 2.6m200.4 12c2.4.9 1.9 2.1-1 2.8-2.8.7-6.4 0-6.4-1.4 0-1.5 4.9-2.4 7.4-1.4M358.5 227c.3.5.2 1-.4 1-.5 0-1.3-.5-1.6-1-.3-.6-.2-1 .4-1 .5 0 1.3.4 1.6 1M83 240c0 .4-1.3.7-3 .8-3 .1-4.1-1.3-1.7-2.1 1.6-.5 4.7.3 4.7 1.3m-41.2 1.2c3.5 1.7 8.8 10.8 7 11.9-2.1 1.4-10.6.7-13.5-1.1-2.9-1.7-6.8-10.3-5.7-12.2.8-1.3 8.6-.3 12.2 1.4m302.9 44.3c-.7 1.7-3.4 3.1-4.3 2.2-.3-.3.2-1.7 1.2-3.2 1.8-2.8 4.2-2 3.1 1m80.3 54c0 .2-.9.9-2 1.5-1.2.6-2 .7-2 .1 0-.5.8-1.2 1.8-1.4.9-.3 1.8-.5 2-.6.1 0 .2.1.2.4m-68.4 15.1c2.8 3 3 4.4.7 4.4-2.1-.1-5.7-4.6-4.8-6 .9-1.5 1.5-1.3 4.1 1.6m-26.2 12.8c2.2 3 2.5 3.8 1.5 6-.7 1.4-1.8 2.7-2.5 3-1.5.6-4.4-3.5-4.4-6.4 0-2 1.6-6 2.4-6 .2 0 1.5 1.5 3 3.4m-70.4 6.1c1.7 2.1.8 4.7-2.3 6.5-2.4 1.3-2.9 1.3-3.7 0-1.4-2.2-1.2-4.7.6-6.4 1.9-2 3.8-2 5.4-.1"/><path d="M194.4 156.6c-4 4.4-4 4.5-2.3 7.2.9 1.5 4 5.4 6.8 8.6 2.7 3.3 5.8 7.5 6.7 9.4 1.8 3.9 1.2 7.1-3.2 16.8-1.3 2.9-2.4 6.6-2.4 8.3v2.9l10.3-4c5.6-2.2 11.2-4.4 12.4-4.9 2.2-.8 2.2-1 .8-5.6-.8-2.6-1.5-6.4-1.5-8.4 0-2.8-1.9-6.3-9.1-17-9-13.2-12.7-17.9-13.8-17.9-.3 0-2.4 2.1-4.7 4.6M152.7 222c.3 1.1 1.2 2 1.9 2 .8 0 1.4-.9 1.4-2 0-1.3-.7-2-1.9-2-1.4 0-1.8.5-1.4 2"/></svg>