<svg xmlns="http://www.w3.org/2000/svg" width="682.667" height="512" version="1.0" viewBox="0 0 512 384"><path d="M0 192v192h25.8c21-.1 26.1-.3 27.6-1.5 2.6-2 6.6-1.9 6.6 0 0 1.3 4 1.5 30.8 1.4 23.3-.1 29.1-.4 24.2-1.1-3.6-.5-6.9-1.3-7.4-1.9-.6-.5-2.1-.9-3.4-.9s-4.9-2-8-4.3c-3.1-2.4-6.7-4.9-8-5.6-3.2-1.7-16.7-2.5-23-1.3-4.7.8-5.9.7-9.5-1.2-2.3-1.3-6.6-3.1-9.5-4.1-9.9-3.6-11.1-6.8-6.7-17.6 2.5-6.1 2.5-6.2.5-8.9-1-1.5-2.6-3.2-3.4-3.9-1.3-1.1-1.1-1.6 1.4-3.8 1.7-1.4 3-3.3 3-4.3 0-1.1 1.1-3 2.5-4.4s2.5-3.7 2.5-5.2c0-4.2 5.8-9 12.7-10.4 14.2-2.9 24.6-6.5 36.8-12.5 18.2-9 23.8-13.9 48.2-42.1l5.1-6-4.9-11.7c-2.7-6.4-4.9-12.7-4.9-13.9 0-1.3 2.3-11.5 5.1-22.8s5.5-24.2 6-28.8 1.6-9.9 2.4-11.9l1.5-3.5-2.7 1.8c-1.5.9-4.1 3.2-5.8 4.9-5.4 5.7-12.3 8.5-23.1 9.2-10.4.7-14.4 2.5-14.4 6.6-.1 4.8-3.7 10.5-8.1 12.8-4.4 2.2-7.3 2.2-20.6.3l-4.2-.6-.6 3.8c-1.3 7.8-1.9 7.9-11.4 3.1-5.8-2.9-6.5-3.7-8.3-8.2-3.5-9.2-4.8-18.2-4.8-32.4 0-21.4 3.7-37.6 12.7-55.6C69.2 84.6 85 62 94.6 51.8c2.4-2.6 4.4-4.9 4.4-5.3 0-.3-2.6-4.1-5.8-8.3s-7.3-9.9-9.2-12.6l-3.3-4.9 3.4 2.4c3 2.2 6.9 6.1 16 16.2l3.5 3.9 6.4-3.8c17-9.9 40.9-19.5 58.8-23.4 11-2.5 33-2.7 45.8-.5 9.4 1.7 31.7 8.6 34.2 10.8 2.1 1.6 7.2 9.8 7.2 11.4 0 .9-.9 1.1-3.2.6-2.8-.5-3.1-.4-2.4 1.3.5 1 1 4.8 1.3 8.4.3 5.3.1 7.1-1.6 9.7-1.8 2.8-2.7 3.3-8 3.9-3.4.3-6.5 1.2-7.1 1.9-.5.6-1.4 4.3-2 8.2-1.3 9.2-2.1 11.3-6.7 16.4-4.2 4.6-10.2 7.8-14.7 7.9-2.6 0-2.8.2-2.1 2.7.9 3.7 2.1 5 5.1 5.7 3.6.9 7.4 3.6 7.4 5.2 0 .9-1.6.4-5-1.6-4.2-2.4-5-2.7-5-1.3s-.2 1.4-1.4-.3c-1.4-1.8-1.5-1.7-1.4 1.2.1 3.9-5.2 11.6-6.2 9-.4-1.3-1.3-.9-4.4 2.3-3.3 3.3-3.7 4.3-2.7 5.5 1.1 1.3.6 2.2-2.8 5.8-2.4 2.5-4.1 5.2-4.1 6.6 0 1.3-.3 2.1-.7 1.9-.5-.3-1.6-.1-2.6.2-1.6.6-.7 2.1 6.5 10.7 4.5 5.5 14.1 17 21.3 25.7 7.2 8.8 13.9 16 15.1 16.3 2.5.6 13.4 12.6 13.4 14.7 0 .8.9 2.2 2.1 3.3 2.1 1.9 2.1 1.8 4-.5 3.6-4.4 2-12.5-3.2-17.4-3.5-3.1-3.4-5.1.2-5.5 5.4-.6 11.8 8.1 11.9 16.1 0 4.5-2 9.7-4.9 12.6-2.4 2.4-8.7 2.9-11.5.8-1.5-1.1-2.2-.9-5.2 1.9-1.9 1.8-3.4 4-3.4 4.8 0 .9-.7 1.6-1.5 1.6-.9 0-2.7 1.2-4 2.6-1.8 2-4 2.8-10.1 3.7-10.2 1.6-10.5 2.2-7.1 13.3 4.4 14.1 6 31.3 5.3 56.3-.5 17.3-.3 23.3 1 30.5.8 5 2 10 2.6 11.2.5 1.2.9 3 .8 4s-.2 10.1-.1 20.1l.1 18.3h145.9c132.1 0 145.9-.1 146.5-1.6.3-.9.6-87.3.6-192V0H0zM362.9 35.7c2.3 1.5 2.3 1.7.6 3-1.1.7-2.9 1.3-4.1 1.3-2.5 0-7.7-3.8-6.9-5.1 1-1.5 7.9-1 10.4.8m-68.1 27.2c1.9 1.2-.4 2.8-6.1 4.1-3.9.8-5.4.7-8.5-.6l-3.7-1.6 3-1.4c3.3-1.5 13.3-1.8 15.3-.5M403 80.5c2 2.4.6 2.8-1.5.5-1-1.1-1.3-2-.8-2 .6 0 1.6.7 2.3 1.5M257 94.8c0 .5-1.1 1.9-2.5 3.2-2.8 2.6-3.3 1.6-.9-1.8 1.5-2.2 3.4-3 3.4-1.4m134.1 51.6c-1.7 2-6.6 3.6-8.1 2.6-1-.6-.4-1.3 2.1-2.3 4.6-2.1 7.6-2.2 6-.3m-108.4 12.7c-3.4 2-18.7 6.7-19.2 5.9-.6-1 5.4-4.6 9.8-5.9 1.7-.5 5-.9 7.2-1 3.2 0 3.6.2 2.2 1m156.7 30.5c3.2 1.2 1.5 1.9-4.9 1.9-6.2 0-7.3-.3-5.8-1.8.8-.9 8.6-.9 10.7-.1M51 225c0 .5-1.7 1-3.7 1-2.8 0-3.4-.3-2.3-1 2-1.3 6-1.3 6 0m248.4 17.6c2.4 2.3 1.9 2.7-.9.8-1.4-.9-2.5-1.8-2.5-2 0-1 2-.3 3.4 1.2m13 23.9c-.6 1.6-2.4 2.1-2.4.7 0-1.1 1.1-2.2 2.1-2.2.5 0 .6.7.3 1.5m188 20.9c5.6 2.3 5.3 3.6-.6 3-7.3-.7-14.7-2.4-15.4-3.5-.9-1.4 12.3-1 16 .5M394 310.8c0 2.2-2.5 4.7-5.7 5.6-3.4 1.1-2.9-1.4.9-4.6 3.9-3.3 4.8-3.4 4.8-1m-70.6 25.1c-.8 1-2.4-1.4-2.4-3.7l.1-2.7 1.3 3c.7 1.6 1.2 3.2 1 3.4m-29.1 12.9c2.1 1.9 2.2 5.1.1 8.1l-1.7 2.3-2.3-2.8c-2.7-3-2.9-4.1-1.4-7.9 1-2.7 1.8-2.6 5.3.3m211 4.8c4.6.8 4.9 2.4.3 2.4-4 0-6.6-.8-6.6-2.1 0-1.1 1.2-1.1 6.3-.3m-65.8 13.6 3 2-4.9-.6c-4.8-.6-7.6-2-7.6-3.7 0-1.3 6.2.2 9.5 2.3M235.2 369c4.8 2.2 10.9 15.4 6.4 13.7-.8-.3-3.2-.9-5.3-1.3-5-.9-6.9-1.9-10.4-5.7-3.6-4-4.5-6.7-2.8-7.9 1.6-1 8.6-.3 12.1 1.2"/><path d="M177 142c0 .5.5 1 1.1 1 .5 0 .7-.5.4-1-.3-.6-.8-1-1.1-1-.2 0-.4.4-.4 1m35.5 43.6c.4 2.3-.4 5.8-2.9 12.5-1.9 5.1-3.3 9.5-3.1 9.8.3.2 2.2-.1 4.4-.7 2.1-.7 4.8-1.2 5.9-1.2 3 0 3.4-1.2 2.6-8.8-.5-5.9-1.1-7.4-4.1-10.8l-3.4-3.9z"/></svg>