<svg xmlns="http://www.w3.org/2000/svg" width="682.667" height="512" version="1.0" viewBox="0 0 512 384"><path d="M0 192v192l62.8-.1c58.4 0 69.8-.6 51.2-2.4-4.1-.4-8.6-1.3-10-2-1.4-.8-3.6-1.6-5-1.9s-4.5-2.3-7-4.5c-6.2-5.5-13.8-6.6-25-3.6-4.9 1.3-5.7 1.3-7.8-.1-1.3-.9-4.9-2.4-8-3.5-11.2-3.9-12.1-5.7-7.8-17.3 2.3-6.3 2.3-6.6.5-9.5-.9-1.6-2.3-3.1-3-3.3s.4-1.4 2.4-2.7c2-1.2 3.7-2.8 3.7-3.5 0-1.3 3.1-9.8 5.2-14.3 1.6-3.2 8-6 20.1-8.8 8.1-1.9 13.7-4 21.9-8.2 15.9-8.1 25.2-15.5 36.2-28.7 15.6-18.7 19.6-24 19.6-25.7 0-1-2.1-6.6-4.6-12.5-5.4-12.6-5.4-12.9.3-34.4 1.9-7.4 3.9-15.2 4.4-17.2 1.2-5.2 4-25.1 3.5-25.5-.2-.2-1.5.1-3 .7-4.5 1.7-5.1 1.1-2-1.8 1.6-1.5 3.6-3.6 4.4-4.7 1.3-1.7 1.1-1.7-2.2.4-2.1 1.2-4.2 2-4.8 1.6-1.6-1-6.5 2.1-9 5.8-4.9 7.1-14.6 11.6-25 11.7-2.5 0-6.2.5-8.2 1-3.3.9-3.9 1.6-4.9 5.3-2.7 10.3-3.2 11.1-8.2 13.6-4.6 2.2-5 2.3-12.6 1.1-10.4-1.7-11.4-1.3-10.5 4.5.6 4.1.4 4.5-1.5 4.5-1.1 0-4.5-1.2-7.6-2.7-5.1-2.5-5.6-3-7.5-8.7-6.3-18.4-6.4-43.7-.4-65.1 5.6-19.7 22.3-48.6 39.6-68.4 2.1-2.4 3.8-4.7 3.8-5.1s-2.5-3.8-5.6-7.6-6.7-8.5-8-10.4-3.2-4.6-4.1-6c-3.1-4.3 6.4 4 14.6 12.9l7.5 8 3-2c5.6-3.7 32.9-16.7 43-20.4 5.5-2 15.4-4.8 22-6.2 10.9-2.3 13.6-2.5 27.6-2 12 .4 17.9 1.1 25.9 3.1 5.7 1.5 10.6 2.4 10.8 2.2.3-.2 3.6 1.2 7.5 3.1 7.1 3.6 10.9 7.9 12.4 13.7l.6 2.6-3.5-1.5c-4.4-1.8-5.2-.9-3.8 4.2 1.5 5.3 1.4 8.7-.5 12.6-2.1 4.5-4.6 5.8-11.6 6.5-6.8.6-7.2 1.1-8.2 9.7-.8 7.8-4.8 15.8-9.4 19.2-2 1.5-4 2.9-4.4 3.2-.3.4.4 3.7 1.7 7.5 1.8 5.5 2.1 7.2 1.1 8-.7.6-2.3 2.8-3.7 4.8-1.3 2.1-2.8 3.8-3.2 3.8-.5 0-.5-.5-.2-1 1.5-2.5-1.5-.6-5.3 3.3-3.2 3.2-3.9 4.6-3.1 5.4.9.9.4 2-2 4.3-1.7 1.7-3.2 3.8-3.2 4.6-.1.8-.2 2-.3 2.6 0 .7-.5 1.3-1.1 1.3-.5.1-1.9.6-3.1 1.2-1.6.9-2.4.9-3.2.1-.9-.9-1.5-.9-2.4 0-.8.8 1.1 3.7 7.8 11.5 4.9 5.8 14.7 17.3 21.8 25.7 10.2 12 13.9 15.6 17.3 17.1 2.4 1 4.3 2.3 4.3 2.8 0 .6 2 3.1 4.5 5.7 2.5 2.5 4.2 5 3.9 5.6-.7 1.1 2.4 4.8 4.1 4.8 2.5 0 4.5-3.7 4.5-8.1 0-4.5-1.2-7-5.7-11.5-2.6-2.6-2.6-4.1 0-5.8 1.2-.8 2.4-.3 5.4 2 4.9 3.9 7.2 8.6 7.3 14.7 0 6.4-2.2 11.2-6.2 13.7-4 2.4-6.1 2.5-9.8.4-2.7-1.6-2.9-1.6-6.9 1.6-2.2 1.8-4.1 3.9-4.1 4.7 0 .7-.8 1.7-1.7 2-1 .4-3 1.6-4.4 2.8-1.7 1.3-4.8 2.4-8 2.8-7.9 1-8.3 1.8-5.4 10.5 4.6 13.5 5.8 26.9 5.1 53.7-.6 23.1-.6 24.4 1.9 36 1.3 6.6 2.5 15 2.5 18.7 0 7 .6 9.8 2.2 9.8 3.8 0 14.4 13.9 11.8 15.5-.9.6-4.9-.4-10.7-2.6-2.5-.9-3 0-3.2 6.9l-.2 4.2H512v-22.7l-4.9.8c-2.7.4-5.9 1.2-7 1.8-2.9 1.6-3.3 1.4-2.1-1 1.4-2.5 9.7-7.9 12.2-7.9 1.7 0 1.8-7.1 1.8-177.5V0H0zM356.4 31.1c1.4.7 2.7 1.8 3 2.6.7 1.8-3.6 3.7-6.7 2.9s-7.9-4.5-7.2-5.7c.8-1.3 7.9-1.1 10.9.2m-74.5 22.5c1.7 1.4 3.1 3 3.1 3.4 0 1.1-6.1 3.1-9.8 3.2-2.9.1-11.2-3.9-11.2-5.4 0-1 8.7-3.6 12.2-3.7 1.5-.1 4 1 5.7 2.5M391 77.5c.7.9 1 1.8.7 2.2-.8.7-3.7-1.5-3.7-2.8 0-1.4 1.6-1.1 3 .6M249 92.4c0 1.8-5.8 6.1-6.8 5.1-.6-.6 5.1-6.5 6.3-6.5.3 0 .5.6.5 1.4M380.5 136c.8 1.3-5.2 4.2-7.8 3.7-2.1-.3-2.1-.4-.2-1.1 1.1-.4 3.1-1.4 4.5-2.1 3-1.7 2.8-1.7 3.5-.5m-103.7 11c-6.5 3.4-12.5 5-15.2 4-1.5-.5-1.5-.8-.4-1.7 3-2.4 12.2-4.9 18.3-5.1 2.7-.1 2.4.2-2.7 2.8m149.6 32c1.4.5 2.6 1.6 2.6 2.4 0 1.1-.7 1.2-3.7.4-2.1-.6-5.3-1-7-1-3.2.1-4.1-.7-2.6-2.1 1-1 7.8-.8 10.7.3M45 221c0 1.3-1.2 1.4-7.7 1.1-2.2-.1-2.5-.3-1.3-1.1 2-1.3 9-1.3 9 0m241 25.5c3 3.2 1.4 3.2-2.5 0-2-1.7-2.5-2.5-1.4-2.5.8 0 2.6 1.1 3.9 2.5m17 16c-.7.8-1.7 1.5-2.3 1.5-.5 0-.2-.9.8-2 2.1-2.3 3.5-1.9 1.5.5m179.8 21c5.3 1.6 7 3.5 3.1 3.5-4.2 0-22.4-3.2-23.3-4.1-1.7-1.5 14.6-1 20.2.6m-95.5 19.9c1.2 3.7-1.5 6.8-5.7 6.4-4.1-.4-4.2-2-.4-6.2 3.7-4.1 4.8-4.1 6.1-.2m-73.7 28.4c-.9.8-1.4 0-2.1-3.3l-.6-3 1.6 2.8c.9 1.6 1.4 3.1 1.1 3.5m178.4 6.8c4 1.6 4.5 3.4 1 3.4-2.9 0-7-2.2-7-3.7 0-1.7 1.1-1.6 6 .3M283.8 344c3.8 2.3 4.7 4 3.8 7.5-1.4 5.4-9.6 1.1-9.6-5 0-5 .9-5.4 5.8-2.5m148.8 14.6c1.9.9 3.4 2.3 3.4 3.1 0 2.3-6.9.7-10-2.3l-2.5-2.4h2.9c1.5 0 4.3.7 6.2 1.6M56 374.1c0 5.8-6.1 8.7-10.7 5.1-2.2-1.7-2.2-1.7-.2-4.1 1.9-2.3 8.7-5.3 10.1-4.4.5.2.8 1.7.8 3.4"/><path d="M213.1 193c-.6 2.1-2.3 6.3-3.6 9.2s-2.3 5.4-2.1 5.5c.2.2 2.2.1 4.5-.3 6.3-1 7.4-2.6 6.6-9.3-1.2-9.6-3.4-11.7-5.4-5.1"/></svg>