<svg xmlns="http://www.w3.org/2000/svg" width="682.667" height="512" version="1.0" viewBox="0 0 512 384"><path d="M0 192v192h61.5c39.5 0 61.5-.4 61.5-1 0-1.8-7.8-5-13.7-5.6-9.6-.9-16.4-3.4-20.9-7.5-6.1-5.5-11.7-6-23.5-2.3-4 1.3-5 1.3-8.2-.1-3.4-1.4-3.7-1.4-6.4.9-3.9 3.2-7 3.8-9.4 1.8-2.4-2.1-2.4-3.4 0-5.6 1.6-1.5 1.7-2.2.8-4.7-1.2-3-1-4 3.4-14.7 1.1-2.7 1.1-3.6 0-5.4-1.2-2-1.1-2.4 1.8-4.7 2-1.7 3.1-3.5 3.1-5.1 0-2.9 3.2-9.4 6.4-12.9 2.6-3 6.7-4.7 18.1-7.8 11.1-3 20.7-7.5 32.7-15.5 11-7.4 19.3-15.5 30.8-30.4 4.6-6 9.9-12.6 11.7-14.6l3.3-3.8-2.1-5.2c-2.3-5.9-4.6-9.9-6.4-11-.6-.4-1.2-3.5-1.3-7.3-.2-6.4 1.3-13.4 7.7-37.2 1.1-3.9 2.6-11.8 3.4-17.5s1.8-11.2 2.3-12.2c.6-1.7.4-1.8-1.8-1.3-1.5.4-3.4 1-4.5 1.3-1.3.5-.9-.3 1.3-2.7 4.8-5.4 6.3-7.8 3-4.9-1.5 1.4-4 2.5-5.4 2.5-1.5.1-3.8.5-5.2.9l-2.5.9 2-2.3 2-2.3-2.3.5c-1.4.4-2 .2-1.5-.5.4-.6-.2-.8-1.6-.4-1.8.4-2.1.2-1.7-1 .4-1 .2-1.3-.8-1-1.6.6-4-1.6-2.9-2.6.3-.4.2-.7-.3-.7-.6 0-2 3.3-3.1 7.3-3.8 12.9-11 18-28 20.1-6.4.8-10.8 1.8-11.3 2.6-.5.7-1.1 3.4-1.5 5.9-1.7 11.1-5.6 13.7-19.3 12.7l-9.5-.7.7 5c.6 4.5.5 5.1-1.1 5.1-2.7 0-12.1-5.7-12.7-7.7-.3-1-1.5-6.5-2.7-12.2-1.9-9.1-2.1-12.4-1.6-28 .6-19.7 2.4-28.3 9.2-44.1C60 92 74 69.7 86.3 54.8c2.5-3 3.6-5.2 3.1-6-.4-.7-3.5-4.7-6.9-8.8-7.1-8.8-12.9-17-11.9-17 .4 0 6 5.2 12.5 11.6l11.8 11.7 4.8-3.2c6.8-4.5 29-15.2 40.7-19.5 33.4-12.5 60.6-12.6 94.7-.5 5 1.8 6 2.6 8.4 7 3.5 6.5 2.9 8.4-2 6.4-1.9-.9-3.6-1.2-3.6-.8-.1.5-.2 4.5-.3 9-.1 7.9-.2 8.4-3.3 11.4-2.8 2.8-4 3.3-10 3.8-5.9.5-6.9.9-8 3.1-.7 1.4-1.3 4.1-1.3 6.1 0 4.7-2.4 11.4-5.5 15.5l-2.5 3.3 1.9 3.3c1 1.8 2.6 5.7 3.6 8.6 1.5 4.8 1.6 5.6.1 9.2-1.7 4.3-4.5 8-6 8-.5 0-2.1 1-3.4 2.2-1.7 1.6-2.6 1.9-2.9 1-1.1-2.9-2.5-1-2 2.7.4 3.2.1 4.2-1.5 5.3-1.4.9-2.2 2.9-2.5 6.1-.5 3.9-.8 4.4-1.7 3.1-1.1-1.4-1.4-1.3-3 .5-1 1.1-2.4 1.7-3.2 1.4s-2.1 0-2.9.7c-1.2 1-1.5.9-1.5-.8 0-1.1-.7-2.5-1.5-3.2-1.3-1.1-1.5-.7-1.5 2.2 0 3.7 2.1 6.3 5.5 6.9 1.1.2 2.7 1.9 3.6 3.7s5.7 7.6 10.6 13c4.9 5.3 9.8 11 10.8 12.7 4.7 7.5 15 18.7 17.7 19.2 1.7.3 4.1 2.2 6.1 4.7 1.7 2.2 4.2 4.9 5.4 5.9 1.3 1 2.3 2.9 2.3 4.1 0 1.4 1 2.8 2.6 3.6 7.9 4.3 9.4-10.3 1.8-18.1-3.5-3.6-3.7-4-2.2-5.6 3.7-3.7 11.6 3 13.9 11.9 1.6 6 0 11.9-4.6 16.5-3.8 3.8-7.4 4.3-12 1.4l-3-1.8-4 3.5c-2.2 2-4.3 4.4-4.7 5.4s-1.6 1.8-2.6 1.8c-1.1 0-2.6.9-3.3 2-.9 1.2-3.2 2.3-6.2 2.9-2.7.5-5.3 1.3-5.8 1.8-.6.6 0 4.1 1.5 9 4 13.2 4.9 25 4.1 51.3-.7 23.1-.6 23.8 1.9 35.3 3.1 13.8 4.5 30.2 3.8 44.4l-.5 10.3H512V257.1l-2.8-1.5c-2.5-1.3-10.2-9.6-10.2-10.9 0-.9 7.3 1.4 9.5 2.9 1.1.8 2.3 1.4 2.7 1.4.5 0 .8-56 .8-124.5V0H0zM227.6 11.2c3.1 2.1 5.2 6.3 3.9 7.6-.9.9-5.9-3.3-7.8-6.7-2.3-3.8-.8-4.1 3.9-.9M350 27.5c3.5 1.8 3.8 3 1.1 4.5-3.3 1.7-6.8 1.1-10.1-1.7-2.9-2.4-3.1-2.8-1.4-3.4 3.1-1.2 7.3-1 10.4.6m-82.2 17.2c2.3 1.5 4.2 3 4.2 3.4 0 1-7.7 3.9-10.3 3.9s-10.9-4.2-11.5-5.8c-.3-1.1 7.6-4 11.3-4.1 1.2-.1 4 1.1 6.3 2.6M378.5 74c1 1.1 1.3 2 .7 2-.7 0-1.5 0-1.9.1-.4 0-1-.9-1.5-2-.9-2.7.4-2.7 2.7-.1M241 88.8c0 1.6-3 5-5 5.5-2.8.7-2.5-.9.6-3.8 2.7-2.5 4.4-3.2 4.4-1.7m126.5 39.7c-1.6 1.4-3.9 2.5-4.9 2.5-2.2 0-1.8-.6 2.1-3.1 4.2-2.7 6.3-2.2 2.8.6m-95.5 6.4c-5.4 2.8-14.6 4.6-15.5 3.1-1.4-2.3 8.6-5.9 16.5-5.9h4.5zm143 33c1.4.4 2.6 1.5 2.8 2.5.3 1.5-.1 1.6-3.5 1-2.1-.4-4.6-1.1-5.6-1.6s-2.5-.7-3.4-.4c-2.1.8-3.9-.4-2.2-1.5 1.6-1 8.3-1 11.9 0m-6 21.1c0 1.3-2 1.3-4 0-1.2-.8-.9-1 1.3-1 1.5 0 2.7.4 2.7 1M37 215.5c1.1 1.3.6 1.5-3.9 1.5-5.5 0-6.4-.6-2.8-2 3.3-1.3 5.3-1.2 6.7.5m234.6 32.8c1.5 1.3 2.3 2.6 1.8 2.9-.5.4-2.2-.7-3.8-2.3-3.5-3.5-1.9-3.9 2-.6m22.4 9.2c-.7.9-1.5 1.3-1.9 1-.3-.3.1-1 .9-1.5 2.1-1.4 2.4-1.2 1 .5m167.5 23.9c1.9.8 3.5 1.8 3.5 2.2 0 .8-16.6-.1-21.7-1.2-6.1-1.2-3.3-2.4 5.7-2.4 5.7 0 10.4.5 12.5 1.4m-82 12.5c1.8 3.5 1.2 5.4-2.1 7.6-2.8 1.8-6.4.6-6.4-2.2 0-1.4 5.6-8.3 6.7-8.3.1 0 .9 1.3 1.8 2.9M480 324c4.2 2.1 4.5 2.6 3.1 4.9-.8 1.2-1.9.8-6-1.8-7.3-4.8-5-7.1 2.9-3.1m29 11.5c0 2.3-7.4 6.4-14.3 7.8-3.4.8-7.2 1.9-8.4 2.6-3.1 1.6-2.9 0 .5-3.1 3.6-3.4 6.5-4.8 13.7-6.9 7.7-2.2 8.5-2.2 8.5-.4m-236.1 4.1c4.1 2 5.4 4.5 4.1 7.8-2.2 6-11.2-.6-9.6-7 .7-2.8 1.3-2.9 5.5-.8m153.4 11.6c.9.5 1.7 1.5 1.7 2.4 0 1.1-.7 1.3-2.7.8-3.4-.9-7.3-3.3-7.3-4.6 0-1 5.3-.2 8.3 1.4"/><path d="M214.4 193.6c-.4 1.1-2 4.8-3.6 8.3l-2.8 6.4 3.8-.7c2-.3 4.3-.6 5-.6 1.9 0 1.6-12.4-.3-14-1.2-1-1.6-.9-2.1.6"/></svg>