<svg xmlns="http://www.w3.org/2000/svg" width="682.667" height="512" version="1.0" viewBox="0 0 512 384"><path d="M0 86.5V173l2.8-.5 2.7-.5-2.7 1.2-2.8 1.2V384h62.8c62.4-.1 62.7-.1 60.4-2-2.4-2-13.9-6-17.1-6-4.7 0-14.7-4.8-20.2-9.7-6.4-5.7-9.1-6.7-21.9-8.4-7.5-1-8.9-1.5-12-4.4-1.9-1.8-4.9-4-6.7-4.9-4.1-2-6.3-4.3-6.3-6.5 0-1 2.3-4.4 5.1-7.6 3.8-4.4 5-6.4 4.6-8.2-.2-1.3.1-2.7.7-3.1s2-2.6 3-5c2.3-5.2 9.2-11.7 15-14.1 2.3-1.1 7.7-2.6 12-3.5 11.5-2.4 21.6-6.1 36.4-13.3 13.1-6.4 13.6-6.7 26.1-19.1 7-7 15.2-15.3 18.1-18.4l5.3-5.8-5.7-11.4c-3.6-7.4-5.6-12.8-5.6-15 0-1.9 2-11.5 4.5-21.3 2.4-9.8 4.9-20.7 5.5-24.3.9-5.8 1.4-18 .7-18-.1 0-1.7.4-3.6 1-3.2.9-3.3.8-1.7-.9 2.2-2.4 2.1-5.4-.1-4.7-1 .3-3.1.8-4.8 1.2-3 .7-3 .7-1.2-1.3 1.7-2 1.7-2.1-.9-2.7-1.4-.4-2.8-.5-3.1-.2-.3.2-1.3-.3-2.2-1.2-1.2-1.2-1.5-2.2-.9-3.4.7-1.4.4-1.6-1.8-1.2-1.9.3-3.2-.2-4.9-2-1.3-1.4-2.5-2.3-2.8-2-.2.3-.2-.7 0-2.1.4-1.6.1-2.5-.7-2.5-1 0-1-.3 0-1.5s1-1.5 0-1.5c-2.7 0-7.6 3.3-10 6.6-3.2 4.5-9.3 8.1-15.2 8.9-5.6.8-6.3 1.6-7.2 7.3-1.5 9.7-7.1 16.1-16.1 18.3-10.4 2.5-10 2.2-10.3 6.5-.4 6.6-1.1 8.2-5.4 12.9-3.1 3.3-5.2 4.7-8 5.1-3.5.6-3.8.9-3.8 4 0 2.4-.5 3.4-1.5 3.4-.8 0-1.5.4-1.5 1 0 1.7-2.4 1-5.3-1.5-3.2-2.9-5.8-11.7-8.3-28.5-4.9-32.3 7.2-69.2 34.8-106.3l5.9-7.9-9.8-11.1C63.6 35.5 61.5 33 62.2 33c.8 0 12.4 9.3 19.5 15.7l6.9 6.1 3.9-3C111.3 37.6 138.9 24 158 19.5c11.1-2.6 10.7-2.4 8.3-3.8-9.2-5.2-10.2-6.9-5.2-8.6 5.8-2 10.1-1.4 14.2 2 4.4 3.6 3.9 5.1-2.3 6.7-2.5.6-.1.8 8 .4 12.6-.5 28.4 1.4 40.5 4.8 5.3 1.5 7.7 2.7 9.8 5.2 2.6 3.1 3.6 5.5 1.8 4.4-.4-.3-1.3.6-1.9 1.9-.7 1.4-1.8 2.5-2.7 2.5-.8 0-2.1 1.3-2.9 2.9-1.6 3.1-3.4 4.1-7.2 4.1-1.6 0-2.4.6-2.4 1.7-.1 3.2-3.4 8-8.7 12.8-5.4 4.8-9.4 6.5-15.1 6.5-2.8 0-3.5.5-4.8 3.5-2.5 6.1-2 7.2 3.9 8.5 6.1 1.5 8.3 2.5 15.5 7.4 2.9 1.9 5.9 3.3 6.6 3 1.9-.7 6.8 1.4 6.1 2.7-.4.6-1.8.8-3.1.5-2.9-.8-3-.2-.3 5.4 4.8 10 5 11.5 2.3 18-1.9 4.4-10.4 10.7-8.8 6.5.4-.8.4-1.5 0-1.5-2 0-5.9 14.1-5.2 19l.4 3.5-1.6-3.3c-1.5-3.2-3.4-4.4-3.1-2 .2 2.4-1.2 5.4-3.3 6.7-1.8 1.1-1.9 1-1.3-.8.5-1.8.3-1.9-2.4-1.1-2.2.6-3.1.5-3.5-.6-.8-2.1-3.6-.5-3.6 2.1 0 2.7 2.4 4.9 4.5 4.1.9-.3 2.3.3 3.3 1.6.9 1.1 7 7.4 13.5 13.9 12.8 12.8 16.1 18.1 15.6 24.9-.3 3.4.2 4.5 3.1 7.5 1.9 1.9 4.3 3.5 5.3 3.5 1.1 0 3.8 1.8 6 4.1 2.2 2.2 5.3 4.9 6.9 6 2 1.5 2.7 2.6 2.3 3.9-.7 2.2 2.8 5 6.1 5s6.4-4.5 6.4-9.3c0-3.5-.6-4.6-4.6-8.4-4.7-4.6-5.4-7.6-1.8-8.1 5.6-.8 13.4 8.9 13.4 16.8 0 11.9-11.6 20-20.2 13.9l-2.9-2.1-2.7 2.5c-1.5 1.3-4.2 3.2-5.9 4.1-1.8.9-3.3 2.3-3.3 3 0 .8-1.2 1.9-2.8 2.5-1.5.6-4 1.9-5.7 2.9-1.6.9-3.2 1.8-3.4 1.9s.4 5.3 1.3 11.5c3.6 25.4 4.7 37.5 5.6 62.8.6 14.6 1.5 34 2.1 43.2.7 9.2.9 20.1.5 24.3l-.7 7.5H512V194h-6.4c-3.6 0-6.7-.4-7-.9-.7-1 4.1-2.1 9.5-2.1h3.9V0H0zm305-76.2c0 .7-1.3 2.6-2.9 4.1-2.4 2.3-3.5 2.7-6 2.1-4.4-.9-4.8-2.4-1.5-5.1C297.8 8.8 305 8 305 10.3m9.6 35.1c1.4 1.1 1.6 1.8.8 2.6-1.4 1.4-6.4.3-6.4-1.4 0-2.9 2.6-3.4 5.6-1.2m-2.2 23.4c-1 1.4-1.9 2.1-2.1 1.5-.3-.7.4-2.4 1.3-3.9 1-1.5 2-2.1 2.2-1.5s-.4 2.4-1.4 3.9m-116.7 1.3c-2.7 1.6-7.7 2.9-7.7 2 0-1.2 4.2-3 7-3 2.2 0 2.3.1.7 1m146.9 42.1 4.9 2.3-5.2.3c-3.7.2-6.3-.3-9.2-1.8-2.3-1.1-4.1-2.3-4.1-2.5 0-1.4 9.4-.2 13.6 1.7m153.8 32.2c5.2 2.2 6.1 7.3 1.4 7.4-1.3 0-4.2.5-6.6 1.1-3.6 1-4.7.9-7.2-.6-4.2-2.5-3.4-4.4 3-7 6.6-2.7 5.4-2.6 9.4-.9m.9 29.5c.6 2.5 0 3.1-3.2 3.1-4.1 0-7.1-1.1-7.1-2.5s2.3-2.1 7.1-2.4c1.9-.1 2.8.5 3.2 1.8m-158.6 2.2c1.7.7 2.3 1.3 1.5 1.6-1.9.7-8.2-.6-8.2-1.7 0-1.3 3.2-1.3 6.7.1M89 206c1.5 3.6.3 9.3-2.1 9.8-2.4.4-4-4.3-3.3-9.9.6-4.2.9-4.7 2.4-3.9.9.5 2.3 2.3 3 4m320.6 7.2c1.5 2.9 1.9 10.8.6 10.8-3 0-8.2-9.6-8.2-15.3 0-1.7.1-1.7 3.1 0 1.7 1 3.7 3 4.5 4.5m-165.1 14.7c.5 1-2.1 4.1-3.4 4.1-.5 0-1.4-.7-2.2-1.6-1-1.3-1-1.7.2-2.5 1.8-1.1 4.6-1.1 5.4 0M418 244.4c0 .2-2.2 1.8-4.9 3.4-2.7 1.7-6.7 5-9 7.3-3.6 3.8-4.1 4-4.1 2.1 0-1.2-.4-2.2-.8-2.2-1.6 0-7.2-6.3-7.2-8.1 0-3.1 2.6-2.2 6.3 2.3l3.5 4.2 3.3-2.9c4.3-3.5 12.9-7.6 12.9-6.1m-88 6.3c0 5.6-4.3 11.5-7.2 9.7-1.7-1.1-.1-7.1 2.7-10.9 3.2-4.1 4.5-3.8 4.5 1.2m158.1 11.4c4.7 2.3 4.7 4.5-.1 4.1-3.8-.3-13-4.1-13-5.3 0-1.7 9.1-.9 13.1 1.2m-244.3 32.6c-1.5 3.6-3.8 6.3-3.8 4.4 0-2.3 3.1-7 4.7-7.1.2 0-.3 1.2-.9 2.7M40 298c0 2.1-1.1 3.3-7.4 8.1-4.2 3.2-5.9 3.3-6.4.5-1.1-5.2 4.1-10.4 10.6-10.5 2.6-.1 3.2.3 3.2 1.9m-24.6 7.6c.3.8 1.2 1.4 2.1 1.4 1.9 0 1.9 1.5-.2 5-1.7 2.9-3.9 4-8 4-2.7 0-2.9-.9-.8-3.6.8-1 1.5-2.7 1.5-3.7.1-4.7 3.9-6.9 5.4-3.1m271.1.4c2.3.9 1.2 1.5-4.6 2.3-3.9.6-7.6-.8-4.9-1.7 4.6-1.5 6.9-1.7 9.5-.6m93.5 6c1.2.8 1.2 1-.4 1.6-1.1.4-2.4 0-3.4-1-1.5-1.5-1.5-1.6.3-1.6 1.1 0 2.7.4 3.5 1M21.9 352.6c2.6 3.8 2.6 4.4 0 4.4-3.2 0-7.9-5.3-7.9-9v-3.2l2.9 2.4c1.5 1.3 3.8 3.7 5 5.4m470.5 19.3c1.3 6.2-.2 7-5.8 3.2-4.4-3-4.6-3.4-4.6-8 0-2.6.3-5.1.7-5.4.3-.4 2.5.8 4.7 2.7 3 2.5 4.3 4.4 5 7.5m-144.6-1.7c.4 2.2-7.8 7-12.2 7-1.8 0-5.6-1-8.2-2.2l-4.9-2.1 5.5-2.4c6.9-2.9 19.3-3.1 19.8-.3"/><path d="M220.2 201.8c-.7 2.4-1.6 5-1.9 5.8s.1 1.4 1.1 1.4c1.9 0 2.9-3.4 2.4-8.1l-.4-3.4z"/></svg>