<svg xmlns="http://www.w3.org/2000/svg" width="682.667" height="512" version="1.0" viewBox="0 0 512 384"><path d="M0 192v192h512V0H0zM238.3 85.4c.4 1 1.7 1.3 4.6.9 2.6-.4 4.6-.1 5.6.7 1.4 1.2 1.4 1.5 0 3.6-.8 1.3-1.5 3.2-1.5 4.4 0 1.7.6 2 4.3 2s4.8-.6 8.2-4.1c2.2-2.2 5.2-4.7 6.7-5.5 3.3-1.7 15.9-1.8 20.5-.1 3.5 1.3 22.3 16.5 22.3 18.1 0 1.7-7.2-.3-11.9-3.4-6.4-4-9.6-4-10.5.1-1.4 7.2-1.2 7.5 7.2 10.3 4.5 1.5 9.4 4 11.7 6 3.6 3.1 3.8 3.5 2.8 5.9-1.2 2.5-1 2.7 4.3 5.4 4.9 2.5 5.3 2.9 3.2 3.4l-2.3.6 2.5.7c2.6.8 7.7 6.3 6.7 7.3-.3.3-2-.2-3.7-1l-3-1.6 2 2.9c2.6 3.6 2.7 5.9.2 3.7-1-1-2.1-1.7-2.4-1.7-.6 0 .1 19.2.6 19.7.2.3 29.2 4.3 30.7 4.3.4 0 .7 1.1.7 2.5s-.3 2.5-.7 2.5c-.3 0-4.4-.7-9.1-1.4-4.7-.8-8.6-1.3-8.8-1.1-.1.1 2.9 2 6.7 4.2l6.9 4 13.8-2.4c11.5-2 16-2.4 25.9-1.9 13.5.6 16.5 1.2 16.5 3.3 0 1.1.7 1.4 2.5 1.1 2.8-.6 3.3.6 1 2-1.4.7-1.3 1.2.5 3.5 1.2 1.5 2.7 2.7 3.5 2.7.7 0 1.5.7 1.9 1.5.4 1.1 1.1 1.3 3 .5 2-.7 2.4-.6 1.9.5-.3.9.1 1.5.8 1.5 1.1 0 1.1.2 0 .9-1.2.8-.8 1.1 1.5 1.6 5 1.1 6.2 1.8 3.8 2.2-2.7.5-3.8 4-1.6 5.2 1.8 1 2.4 5.1.7 5.1-1.2 0-1.4 3.5-.2 4.6 1.4 1.4-.5 2.3-2.9 1.4-3.8-1.5-4.3-1.1-.9.7 2.9 1.6 2.9 1.6.7 2.4-1.5.6-3.5.4-5.9-.6-4.3-1.8-5.1-1.9-3.5-.3.8.8-.1 1.9-4 4.4-4 2.6-4.8 3.5-3.5 4 2.6.9 2 2.6-.5 1.8-1.3-.4-3-.7-3.8-.8s-3.7-1.2-6.3-2.5-5-2.1-5.2-1.9c-.3.2 1.3 1.8 3.5 3.4s4 3.2 4 3.7c0 .4-2.7-1.3-6.1-3.7-6.7-4.9-12.3-6.5-30.8-9.1-13-1.9-17.1-3-24.5-6.7-4.1-2.1-7.9-3.1-12.7-3.5-3.8-.3-6.9-.2-6.9.3s.7 3.1 1.5 5.8 1.5 6.3 1.5 7.9c0 3.1-2.4 6.7-4.5 6.7-1.4 0-4.9-3.8-6-6.5-.7-1.7-.9-1.5-1.7 1.5-1.1 4.1-2.5 6-4.4 6-2.2 0-3.3-3.3-3.7-10.6l-.4-6.9-4.4-.8c-2.4-.4-7.9-.3-12.3.3-10.5 1.3-17.9 1.3-19.4-.2-.7-.7-1.2-2.7-1.2-4.4 0-3.7-1.2-4.8-5.5-5.1-1.6-.1-9.5-.6-17.5-1.2s-16.3-1-18.5-1c-3.5.1-3.7.2-1.5.9 1.4.5 4.1 1.1 6.1 1.4 3.2.6 3.6.9 3.1 3.1-.2 1.4-.8 2.7-1.1 3-.4.2-4.1-.4-8.2-1.4-4.1-1.1-12.9-3.1-19.7-4.5-6.8-1.5-12.9-2.9-13.5-3.2-.7-.2-2.5.8-4 2.2-2.5 2.3-3.2 2.5-5.3 1.5q-2.4-1.05-2.4-3.6c0-2.8-.5-3-11.5-4.5-5.6-.7-7.4-1.4-9.2-3.5-2.6-2.9-2.9-5.7-1-7.4 1.4-1.1 7.8-.6 26.7 1.9 9.1 1.3 46.5 4.7 61 5.6l10.6.6 4.4-5c2.5-2.8 6.5-8.9 8.9-13.6 4.1-7.9 4.3-8.7 2.7-9.9-1-.7-2.5-4.8-3.7-10-2.1-8.8-2.1-8.9-6.3-10.6-4.3-1.9-5.8-3.3-6.9-6.4-.8-2.1 3.8-7.1 7.4-8.2 3.1-1 7.1 3.6 6.7 7.5-.1 1.5.3 3.4.9 4.1.6.8 1.9 3.4 2.9 5.8 1.4 3.4 1.9 4 2.6 2.7.5-.9.6-2.1.3-2.6-.4-.6.5-2.4 1.9-4.1s2.6-3.8 2.6-4.7c-.1-2.7-2.5-5.2-5.1-5.2s-7.2-5.6-6.7-8c.2-.7-.6-1.6-1.7-1.9s-4.5-2.3-7.6-4.4c-3.1-2-6.1-3.7-6.6-3.7-1.5 0-9.9-8.2-10.7-10.4-1.2-3.4 1-4.6 5.6-3l4 1.4-3.1-3.5c-3.5-4.1-3.7-5.1-1.4-7.7 1.9-2.2 3.9-2.3 4.6-.4m-44.3 134c0 .3-.4.8-1 1.1-.5.3-1 .1-1-.4 0-.6.5-1.1 1-1.1.6 0 1 .2 1 .4"/><path d="M291.5 143.8c.3 3.2 3.7 12.2 4.6 12.2.5 0 3-2.2 5.6-4.9 2.7-2.6 5.5-5.1 6.3-5.3 1.2-.5 1.3-.8.3-1.9-1-.9-1.3-1-1.3-.1 0 1.6-2.9 1.5-6.4-.3-3.9-2.1-4.6-1.8-1.6.6l2.5 2-2.5-.7c-1.4-.3-3.7-1.2-5.1-2-2.3-1.1-2.5-1.1-2.4.4M268 160.4c-.6 1.4-1.5 3.8-2.1 5.3-.6 1.6-3 5.7-5.4 9.3-9 13.3-6.1 16.2 5.8 5.7 3.9-3.4 7.8-7.5 8.8-9.1 1.7-2.8 1.7-2.9-1.3-7.7-3.7-6.1-4.6-6.6-5.8-3.5m45 11.6c-1.6 1-2.1.7 5.9 3.5 2.4.8 5.5 1.5 7 1.4 2.1-.1 1.4-.6-3.4-2.9-6.7-3.2-7.4-3.4-9.5-2"/></svg>