<svg xmlns="http://www.w3.org/2000/svg" width="682.667" height="512" version="1.0" viewBox="0 0 512 384"><path d="M0 192v192h58.5c32.2 0 58.5-.2 58.5-.4 0-1.6-4.5-10.5-6.3-12.4-1.3-1.4-6.3-3.6-13.7-5.9-9.3-2.9-12.3-4.3-15.7-7.4-4.2-3.8-4.4-3.9-12.2-3.9-6.9 0-8.3-.3-10.4-2.3-1.3-1.2-3.8-3-5.5-3.9-4.6-2.5-4.1-5 2.2-11.7 4.3-4.4 5.5-6.3 5.4-8.7-.3-8.7 10.9-16.9 29.3-21.5 13.6-3.4 35-13 45.3-20.3 2.5-1.8 7.5-6 10.9-9.4 9.4-9 30.2-31.2 30.5-32.6.1-.6-2.2-5.3-5.3-10.5-6.8-11.6-6.9-13.2-2-39.5 2.9-15.6 3.4-20.5 3.2-30.6-.2-12.1-.2-12.1-2.5-11.5-2.1.5-2.2.3-1.2-1.5s.8-2-2.5-2c-2 0-3.4-.4-3.1-.9.4-.5-.3-.7-1.5-.4-1.8.5-2 .3-1.4-1.7.7-2.1.5-2.2-2.6-1.5s-3.3.6-1.9-1c1.4-1.7 1.3-1.7-.6-.7-1.2.6-2.4.8-2.8.5-.3-.4-2.2 1.2-4.2 3.6-4.1 4.8-7.3 6.6-14 8.1-6.3 1.4-7.2 2.3-8 7.8-1.5 10.9-6.1 15.6-16.9 17.5-6.3 1.1-6.6 1.2-7.5 4.7-.5 1.9-1 4.7-1 6.2 0 5.4-5.6 8.8-14.6 8.8h-5.5l.3 5.2.3 5.3h-5.3c-6.3 0-7-.6-11.1-9.7-4-8.7-7.1-26.2-7.1-39.2.1-27.5 12.8-60.9 33.4-87.9l2.9-3.8-10.6-10.8C77.8 52.2 73 47 73 46.6c0-.9 9 5.5 17.5 12.4l7 5.8 5-4.5c2.8-2.4 9.1-7.4 14-11.2 29.4-22.1 56.1-31.2 88-29.8 18.5.8 24.4 2.1 29.5 6.4 4.4 3.8 4.8 5.5.6 2.7-1.5-.9-2.9-1.5-3.1-1.2-.3.3.2 2.4 1 4.8 3.1 8.9 1.5 12-6.4 12-4.6 0-5 .8-4.3 7.3.6 5.8-2 12.2-5.7 14.2-1.4.7-4.5 1.6-6.9 2-6.7 1.1-8.6 7.2-3.1 10.1 2.9 1.5 3.2 1.5 4.5-.5 2.7-3.9 8.4.2 8.4 6.1 0 2.5 1.4 6.6 4 11.8 2.2 4.4 4 9.1 4 10.6 0 4-3.5 9.7-8.4 13.4-1.8 1.4-1.9 1.3-1.3-.9.5-2.1.4-2.2-.8-1-2.2 2.2-4.7 12.9-4.1 17.2.6 3.6.6 3.7-1.5 2.5-1.5-.9-2.3-1-2.6-.2-.2.6-1.1 2-1.9 3-1.5 1.8-1.5 1.8-.9-.9.3-1.5.1-2.7-.5-2.7-.5 0-1 .3-1 .7 0 1.4-4.7 3-6.2 2.2-.9-.5-2.3-.3-3.4.6-1.5 1.1-1.7 1.7-.8 3.2.7 1 2.1 1.7 3.4 1.6 2.7-.4 6 1.4 6 3.1 0 1.4 11.6 12.8 19.2 18.9 5.7 4.7 7.9 7.9 9.2 13.7.9 3.7 2.3 5.6 6.9 9.8 3.7 3.4 6.6 5.2 8.3 5.2 1.5 0 4.2 1.6 7.2 4.3 2.6 2.4 5.9 5.1 7.5 6 1.5 1 2.7 2.6 2.7 3.7 0 2.3 3.6 5 6.6 5 2.8 0 7.4-5.4 7.4-8.6 0-3.9-2.5-7.8-7-10.8-6.8-4.5-3.6-7.8 4.9-5.1 2.1.7 2.2.6 1.2-1.3-.6-1.1-1.1-2.9-1.1-3.9s1.7 1.6 3.7 5.7c6.6 13.4 5.5 23.9-2.9 29-4.2 2.6-8.8 2.5-13.2-.1l-3.6-2.1-3.6 3.2c-2 1.7-4.7 3.6-5.9 4.2-1.3.6-2.6 1.9-2.8 2.9-.3 1.1-1.4 1.9-2.5 1.9-1 0-2.7.9-3.6 1.9-1 1.1-3 2.1-4.4 2.3-2.9.3-7.2 7.3-7.2 11.6 0 2.3.3 2.4 4 1.9 5.1-.7 5.1.3 0 2.5-3.5 1.5-3.9 2-3.5 4.5 1.1 6.7 3.5 28.8 4.5 41.3.6 7.4 2.2 26.7 3.6 42.8s2.4 33.1 2.2 37.8l-.3 8.4H512V0H373C252.5 0 234 .2 234 1.4c0 1.5-3.6 4.6-5.3 4.6-.5 0-.7-1.4-.5-3l.5-3H0zM87 5c1.2.8 1 1-1 1-1.4 0-3.2-.5-4-1-1.2-.8-1-1 1-1 1.4 0 3.2.5 4 1m147.9 7c3.9 2 6 4.4 4.8 5.6-2.1 2.1-13.7-4.2-12.2-6.7.9-1.4 2.7-1.1 7.4 1.1M54.8 43.2c.3 2.5-3.9 8.8-5.9 8.8-1.7 0-.9-6.2 1.2-9.1 2.4-3.5 4.3-3.3 4.7.3m340.1 58.3c1.4 1.3.8 1.5-4.7 1.5-5.7 0-6.2-.2-6.2-2.1 0-2 .4-2.1 4.7-1.5 2.6.3 5.4 1.3 6.2 2.1m77.1 15.6c0 .5-.2.9-.5.9-1.5 0-7.3-2.9-8.8-4.4-3.2-3.3-1.7-3.4 3.8-.4 3 1.6 5.5 3.4 5.5 3.9m-105.2-.5c3.3.9 2.7 1.8-2.8 4.2-5.2 2.3-17 3.1-17 1.2 0-.5 1.7-2.1 3.7-3.5 3.8-2.5 10.6-3.3 16.1-1.9m-104.8 37c0 2.2-4.9 2.9-6.8 1.1-1.6-1.7-1.7-1.7 2.8-3 2.1-.6 4 .3 4 1.9m38.6 1.6c1.6 1.9 2 3.3 1.6 7.5-.5 6.2-2.1 6.9-4.4 1.9-1.1-2.2-1.5-4.7-1.1-7.5.6-4.7 1.2-5 3.9-1.9m173.2 2.4c-2.3 3.8-7.1 7.4-10.1 7.4-1.5 0-1.4-.5 1-4.1 2.7-4.1 6.4-6.8 9.5-6.9 1.6 0 1.5.4-.4 3.6m-210.9 29c1.2 1.5 2.1 3.7 2.1 4.9 0 4.3-1.3 8.7-2.7 9.2-1.6.6-7.3-4.4-7.3-6.4 0-1.8 4.2-10.3 5.1-10.3.4 0 1.7 1.2 2.8 2.6m87 5c3.9.8 4.1 2.4.2 2.4-3.5 0-6.1-.9-6.1-2.1 0-1.1 1.6-1.1 5.9-.3m85 18c2.1 2.7 3.1 7.8 1.1 5.8-1.7-1.7-4.8-8.4-4-8.4.5 0 1.8 1.2 2.9 2.6m-274.6 3.2c2.3 2 2.2 4.2-.2 4.2-2.7 0-7.6-4.4-6.7-5.9.9-1.4 4.3-.6 6.9 1.7m219.1 7.9c1.4 2 2.4 3.8 2.2 4-.1.2-1.9-.3-3.8-1.1-3.5-1.5-8.2-7.2-7.2-8.8.9-1.4 6.3 2.2 8.8 5.9M141 229.4c0 1.1-.4 2.7-.9 3.5-.8 1.2-1.2 1.2-2.5.2-1.7-1.4-2-4-.9-8l.6-2.4 1.9 2.2c1 1.3 1.8 3.3 1.8 4.5m-102 9.8c4 2.9 3.8 3.8-.9 3.8-4 0-9.6-3.3-8.6-5.1 1.1-1.7 6.5-.9 9.5 1.3M58.1 254c4.6 2.4 4.4 4.1-.5 3-4.3-1-5.6-1.8-5.6-3.6 0-1.9 1.3-1.8 6.1.6m437.3 12c1.8 1.8.1 1.7-3.9-.1l-4-1.9 3.5.5c1.9.3 3.9 1 4.4 1.5m-178.7 3.2c2.4 2.3 2.9 4.3 1.3 5.3-.5.3-1.8-1.2-3-3.5-2.3-4.5-1.8-5.1 1.7-1.8m124.5 16.4c1.9.6 6.8 6 6.8 7.5 0 1.1-6.4.2-9.5-1.3-2.5-1.3-5.4-4.8-5.5-6.6 0-1.3 2.5-1.2 8.2.4m-10.4 7.4c3.5 2.2 6.2 7.2 6.2 11.6v2.7l-3.2-2.5c-3.6-2.8-6.3-6.8-7.3-11.1-.8-3.2-.1-3.4 4.3-.7M12 324.5c.7.8 2.1 1.5 3.1 1.5 2.2 0 6.9 2.1 6.9 3s-16.8.5-17.7-.4c-.8-.8 3.7-5.6 5.3-5.6.6 0 1.7.7 2.4 1.5m416.8 49.1c1.9 1.3 5.2 6.3 5.2 7.9 0 1.3-4 .3-6.4-1.6-1.7-1.4-2.6-3-2.6-5 0-3.3.6-3.5 3.8-1.3"/><path d="M230.7 196.2c-.3 2.4-.9 6.2-1.3 8.5l-.6 4.3 4.2-.5c2.3-.2 4.4-.6 4.6-.8s.7-2.4 1-4.9c.6-4.3.4-4.8-2.7-7.7-1.9-1.7-3.7-3.1-4-3.1-.4 0-.9 1.9-1.2 4.2"/></svg>