<svg xmlns="http://www.w3.org/2000/svg" width="682.667" height="512" version="1.0" viewBox="0 0 512 384"><path d="M0 160.4c0 127.4.3 160.6 1.3 161 .9.5.9.7-.1 1.2-.9.4-1.2 7.6-1.2 31V384h32.6c29.3 0 32.5-.2 31.4-1.5-1.5-1.8-1.7-1.6 7.5-8.6 8-5.9 13.8-8.8 17.8-8.9 3.1 0 3.6-1.6.8-2.5-1-.3-3.8-2.3-6.1-4.5l-4.3-4h-9.3c-7.9 0-9.3-.2-9.8-1.8-.3-.9-2.7-2.8-5.3-4.2s-4.9-3.1-5.1-3.8 2.6-4.2 6.2-7.8c3.7-3.5 6.4-6.9 6.1-7.4-.8-1.3 2.2-8 4.3-9.7 3.9-3.1 10.9-6.8 15.6-8.4 2.8-.9 5.2-2.1 5.2-2.8.1-.6.2-1.3.3-1.5 0-.3 1.6 0 3.5.5 2.7.8 4.8.5 9.8-1.2 8.9-3 28.5-12.8 34.9-17.6 7.6-5.7 20.6-18.8 29.3-29.6 4.1-5.1 8.6-10.3 10-11.6 1.4-1.4 2.6-3.1 2.6-4 0-1.2-.3-1.2-1.2-.3-.7.7-1.6 1.2-2 1.2-1.2 0-1-3.4.3-4.7.7-.7-.3-3.3-3.7-8.7l-4.7-7.6.6-7.8c.4-4.2 1.9-13.3 3.3-20.2 1.9-9.1 2.8-16.7 3.1-28.3.5-15.3.2-17.2-2.5-14.5-1.5 1.5-1.6.3-.2-2.3.9-1.7.7-1.9-1.7-1.9-4.8 0-7.3-1.1-7.3-3.1 0-2.2-.4-2.3-3.1-.9-1.5.8-1.9.7-1.9-.4 0-.9-.7-1.2-2-.9-1.1.3-2 .9-2 1.4 0 3.2-11.8 10.8-16.8 10.9-3.7 0-6.8 4-7.5 9.5-1.3 9.1-7.3 14.6-17.5 16-6 .8-7.2 2.2-7.2 8.3 0 7.3-5.5 11.2-15.9 11.2h-4.4l.6 4.3c.4 2.8.2 4.8-.5 5.5-1.4 1.4-5.7 1.5-7.8.2-.9-.6-1.7-.5-2.1.2-.9 1.3-5.2-5.4-7.9-12.1-5.3-13.6-7.1-43-3.6-59.6 2.4-11.3 6.8-24 11.6-33.6 2.3-4.4 4-8.3 3.7-8.5-.2-.2-3.3 1.2-7 3.1s-6.7 3.1-6.7 2.7c0-.5 1.6-2.7 3.5-5 2.7-3 5-4.6 9.2-5.9 4.9-1.5 5.9-2.3 9-7.3 2-3 5.1-7.4 6.9-9.6l3.4-4.2-10.5-10.5C79.7 53.9 75 48.9 75 48.6c0-1.5 9.4 4.9 19.4 13.2l4.9 4.1 7.1-6.6c3.9-3.6 10.3-8.9 14.3-11.6 5.6-4 7-5.4 6.1-6.4-.8-1-.5-1.3 1.7-1.3 1.5 0 7.3-2.4 12.9-5.4 25.2-13.5 53.2-18.4 79.5-14 7.7 1.3 10.4 2.3 13.4 4.7 4 3.1 4.4 4.7.7 2.7-3.2-1.7-3.4-.7-1.1 4.5 1.2 2.6 2.1 5.5 2.1 6.5 0 2.8-3.2 4.8-8 5.2l-4.5.3v7c0 9.3-2.3 13.5-8.5 15.4-8.1 2.4-9.5 3.4-9.8 6.9-.2 1.8.1 3.2.5 3.2.5 0 4 2.5 7.8 5.5 5.7 4.5 7.7 7 10.7 12.8 2 4 3.7 8.3 3.8 9.6 0 3.6-4 11-7.4 13.4l-2.9 2.1.6-2.4c.5-2 .4-2.1-.9-.9-1.8 1.8-4.7 15.5-4 18.5.5 1.9.3 2.1-1.5 1.7-1.5-.4-2.7.1-4 1.8l-1.9 2.4v-3c0-1.7-.4-2.6-.8-2-1.4 2-4.8 3.3-6.4 2.4-1.1-.6-2.1-.2-3.3 1.1-1.5 1.6-1.6 2.2-.5 3.6.8.9 2.2 1.3 3.3 1 2.5-.6 5.7 1 5.7 2.8 0 1.6 7.8 9.2 18.3 18.1 7.1 6 9.2 9 10.5 15.2.9 4.5 3.4 5.4 5 1.8 1.4-3.1 2.2-3.1 5.6 0 2.1 2 2.6 3.3 2.6 7.5 0 4.7.2 5 2.5 5 1.6 0 4.3 1.6 7.3 4.3 2.6 2.4 5.9 5.1 7.5 6 1.5 1 2.7 2.6 2.7 3.7 0 3.9 6.7 6.3 10.1 3.7 5.9-4.6 4.7-13.2-2.6-17.7-2.4-1.5-3.5-2.9-3.5-4.5 0-3.5 1.6-3.9 6.6-1.5 9 4.4 12.6 14.5 8.2 23-4.2 8.1-13.1 11.5-18.8 7-3.2-2.5-4.3-2.5-6.6.1-1 1.2-3.5 2.9-5.5 4-2 1-3.9 2.7-4.2 3.9-.3 1.1-1.3 2-2.2 2s-2.8.9-4.2 1.9c-1.3 1.1-4.4 2.3-6.7 2.6-2.4.4-4.8 1-5.5 1.4-.9.6-.7 5.1.9 19.2 1.2 10.1 2.5 21.1 3 24.4s1.1 9.8 1.5 14.5c1.1 14.4 3.5 39.6 5.6 59 1.1 10.1 1.9 21.5 1.7 25.2l-.3 6.8H512V154h-2.2c-3.8 0-6.8-1.2-6.8-2.5 0-.7 2-1.9 4.5-2.6l4.5-1.3V0H368.5C243.1 0 225 .2 225 1.5c0 1.2-2.8 3.5-4.4 3.5-.3 0-.6-1.1-.6-2.5V0H0zM226.5 9.5c2.5 2.1 2.8 2.6 1.5 3.5-.8.5-2 1-2.6 1-1.3 0-8.3-5.2-8.4-6.3-.1-1.8 6.7-.5 9.5 1.8M49.4 37.4c-.7 2.3-5.3 7.6-6.6 7.6-1.8 0-.6-5.9 2-9.3 2.4-3.2 2.8-3.4 4-1.9.6.9.9 2.5.6 3.6M378.5 90c3.8 1.4 3 3-1.5 3-3.6 0-6-1.8-6-4.5 0-.8 3.3-.1 7.5 1.5m129.2 3.6c3.8 6.6 2.6 13.8-1.7 9.9-2.6-2.4-4.3-7.9-3.5-11.6.9-3.8 2.4-3.3 5.2 1.7m-59.9 20.3c4.7 2.1 6.8 4.1 4.2 4.1-2.5 0-9.2-3.4-10.1-5.2-.6-1.1-.7-1.9-.2-1.7.4.3 3.2 1.5 6.1 2.8m-95.8-.2c2.3.4 2.2.7-2.3 2.9-6 3.1-17.7 4.5-17.7 2.2 0-1.7 4-4.6 7.9-5.8 2.5-.8 6.5-.6 12.1.7m-61.4 35.9c3.5 3.6 4.2 5.4 2.3 5.4-.5 0-1.5 1.3-2 3-.6 1.6-1.5 3-1.9 3-1.1 0-4-6.4-4-8.7 0-2.4 1.1-6.3 1.7-6.3.3 0 2.1 1.6 3.9 3.6m-38 .5c.8 1.4-1.4 2.9-4.3 2.9-2.7 0-4-1.9-2.2-3.1 2-1.2 5.7-1.1 6.5.2m206.7 6.2c-1.9 3.2-8.6 7.7-9.8 6.5s4.3-8.5 7.7-10.1c4-1.9 4.6-.8 2.1 3.6m-194.2 26.3c1.2 2.5 1.8 4.8 1.5 5.1-.7.8-4.6-5.9-4.6-8 0-2.9 1-1.9 3.1 2.9m71.4 11.9c0 1.7-4.9 1.7-7 0-1.9-1.4-1.7-1.5 2.5-1.3 2.5.2 4.5.7 4.5 1.3m86.4 15.6c.8 2.3.7 2.9-.4 2.9-.7 0-1.8-1.2-2.3-2.8-.5-1.5-1.3-3.6-1.8-4.7-.7-2-.7-2 1.4-.2 1.1 1.1 2.5 3.2 3.1 4.8m-58.4 2.3c2.8 3 5.2 7.6 3.8 7.6-.8 0-4.7-2.3-5.8-3.4-1.3-1.4-4.5-6.4-4.5-7.1 0-1.7 3.7 0 6.5 2.9m-216.6 1c2.9 3.1 2 4.9-1.6 3.5-2.5-.9-5.2-3.6-5.3-5.2 0-1.7 4.8-.5 6.9 1.7m-14.6 8.7c1.1 1.8.1 8.9-1.3 8.9-1.8 0-3.2-4.2-2.5-7.7.6-3.5 2.1-3.9 3.8-1.2m-106 11.6c2 1.6 3.6 3.1 3.7 3.5 0 .5-1.7.8-3.8.8-2.8 0-4.5-.7-6.2-2.6-2.1-2.1-2.2-2.7-1-3.4 2.3-1.5 3.4-1.2 7.3 1.7m21.2 13.7c4.8 2 4.6 3.9-.2 3-4-.7-6.3-2-6.3-3.5 0-1.3 2.6-1.1 6.5.5m437.3 11.8c.7.6 1.1 1.3.9 1.5-.5.5-7.7-2.6-7.7-3.3 0-.9 5.2.6 6.8 1.8m-177 6.3c.6 1.3.8 2.6.4 2.9-.5.3-1.3-.8-1.9-2.5-1.4-3.5-.1-3.9 1.5-.4m126.7 9c2.9.6 8.5 5 8.5 6.7 0 1.1-4.1 1-8.1-.3-3.7-1.2-6.9-4.3-6.9-6.6 0-.9.7-1.3 1.8-1 .9.3 3.1.8 4.7 1.2m-15.1 9.5c2.9 1 5 4.8 6 10.3l.7 3.9-3.6-2.8c-2-1.5-4.5-4.4-5.6-6.5-3-5.9-2.5-6.9 2.5-4.9M8 315.5c2 2.5.8 5-2.5 5-3.6 0-4.7-3.1-1.9-5.2 2.3-1.7 2.9-1.6 4.4.2M423.3 366c2.7 2.1 5.3 8 3.6 8-2.6 0-6.8-3.2-7.7-5.9-1.6-4.5 0-5.3 4.1-2.1"/><path d="M231.3 200.2c-.6 4.6-1 8.4-.9 8.6.2.1 2.4-.1 4.9-.4 4.5-.6 4.7-.8 5.5-4.8.8-3.9.7-4.3-2.7-7.9-1.9-2-4-3.7-4.6-3.7s-1.6 3.7-2.2 8.2M97.5 371.1c-3.2 2.2-7.5 5.5-9.6 7.2-2 1.7-5.2 3.7-7 4.3-2.9 1.1.1 1.3 18.9 1.3 25.3.1 24.7.4 19.3-8-2.3-3.8-3.8-4.9-8.8-6.7-3.3-1.2-6.2-2.2-6.5-2.2s-3.1 1.8-6.3 4.1"/></svg>