<svg xmlns="http://www.w3.org/2000/svg" width="682.667" height="512" version="1.0" viewBox="0 0 512 384"><path d="M0 153.4v153.3l2.4-.4c1.8-.4 2.6 0 3.1 1.6.9 2.8-.1 4.1-3.1 4.1H0v72h81v-2.6c0-1.5.4-2.3 1.1-1.8.6.3.9 1.5.6 2.5-.5 1.8.4 1.9 22.9 1.9 14.9 0 23.4-.4 23.4-1 0-.5-1.7-2.7-3.9-4.9-3.2-3.2-5.8-4.5-17.2-8.1-10.8-3.5-14-5-17.4-8.1-6.4-5.9-8.6-6.4-15.3-3.2-6.3 3-14.3 4-18.4 2.4-3.8-1.4-3.5-3.5.7-6 4.3-2.5 4.4-3.5.5-5.1-5.9-2.4-4.9-6.4 3.4-13.5 3.6-3.2 4.6-4.7 4.6-7.1 0-6.6 13.2-14.7 29-17.9 6.1-1.2 12.2-3.4 21.5-8 21-10.2 28.7-17 50.9-44.8l12.7-15.9-2.7-4.6c-1.5-2.6-2.8-4.9-3-5.1s-1.6.8-3 2.2c-2.9 2.9-3.9 3.3-4.9 1.7-.7-1.1 3.8-6 5.5-6 .7 0 .3-1.4-.9-3.4-2.9-4.6-2.7-13.2.6-30.3 2.2-11.3 2.7-16.8 2.7-30.1.1-8.9-.1-16.2-.4-16.2s-1.1.5-1.8 1.2c-1.5 1.5-1.5.3-.1-2.4 1-1.9.9-2-2.5-1.6-2 .2-3.6 0-3.6-.4s-.7-.8-1.6-.8c-1.1 0-1.4-.6-.9-2 .7-2.3.6-2.4-3-1-2.3.9-2.6.8-2.1-.5 1.1-3-1.1-1.4-4.2 3-3.4 4.9-8.8 8.1-15.2 9.1-4.8.8-6.5 2.9-7.5 9.4-1.4 9-8.8 15.9-17 16-4.9 0-7.1 2.3-7.8 7.9-1.1 8.9-3.7 11.1-13.3 11.2-7.2.1-8.1.9-6.4 5.4.9 2.3.7 3.1-.7 4.7-1.7 1.9-4.1 2-8.7.2-1.5-.6-1.7-.4-1.1.7.8 1.2.6 1.2-.9 0C68.3 205.1 62 182 62 161c0-10.1 2.4-24.9 6-36.5 4.3-13.9 17.2-38.2 26.3-49.8l3-3.9-10.7-10.6C80.8 54.3 76 49.1 76 48.6c0-1 11.6 7.1 18.7 13.1 2.8 2.3 5.5 4.3 6 4.3s2.2-1.4 3.9-3.1c4.1-4.3 18.7-16 27-21.5 26.7-17.7 58.6-25.3 88-20.9 11.1 1.6 12.3 2 15.7 5.1 4.1 3.7 4.8 5.1 1.7 3.2-2.9-1.8-3.4-.4-1.6 4.2 1.9 4.8 2.1 8.4.4 9.8-.7.5-3.4 1.3-6 1.7-2.7.4-4.8 1.2-4.9 1.9 0 .6 0 3.8.1 7.1.2 8.7-2.5 12.5-10.4 14.5-4.1 1-6.1 2.1-6.7 3.5-1.5 4-1 6 2.4 7.8 6.4 3.6 11.6 9.3 15.2 16.8 1.9 4 3.5 8.2 3.5 9.2 0 2.6-3.5 10-5.7 11.8-3.6 3.1-4.6 3.3-3.8.8.7-2.1.6-2.2-.8-1.1-1.9 1.6-3.7 9.5-3.7 16.2 0 4.3-.2 4.8-2 4.3-1.3-.4-2.7.3-4.1 1.8-1.6 1.9-1.9 2-1.5.6 1-3.2-.4-3.8-3.2-1.2-1.6 1.5-2.9 2-3.3 1.4-1-1.7-4.3-.6-4.7 1.5s1.6 3.8 3.6 3.1c1.8-.7 5.2 1.2 5.2 2.9 0 1.2 9.8 10.7 21.3 20.6 4 3.5 7.7 9.6 7.7 12.8 0 2.6 12.3 13.2 16.8 14.4 2 .6 5.8 2.9 8.3 5.3 2.5 2.3 5.6 4.6 6.8 5 1.6.5 2.1 1.3 1.8 2.6-.6 2.3 3.5 5.9 6.8 5.9 3.1 0 7.5-5.4 7.5-9.1 0-3.9-2.2-7.1-7-10.3-4.3-2.8-4.9-4.6-2.4-6.7 1.4-1.1 2.3-.9 6.2 1.1 5.5 3 8 6.2 9.3 11.9 2.9 13-10.8 25.4-20.1 18.1-3.3-2.5-4.2-2.5-6.9.4-1.3 1.4-3.6 3-5.2 3.6-1.5.7-3.5 2.3-4.4 3.6-.8 1.3-2.1 2.4-2.9 2.4-.7 0-2.3.9-3.5 1.9-1.2 1.1-4.5 2.2-7.2 2.6-3 .4-5.3 1.3-5.6 2.2-.6 1.6 1.2 22.3 3.2 36.3.8 5.2 2.4 19.6 3.5 32s3.2 32.2 4.6 44c1.3 11.8 2.6 24.8 2.7 28.7l.2 7.3H512V0H364.7C222.9 0 217.2.1 215.6 1.8c-1.5 1.8-1.5 2 .1 3.4 1 .8 2.6 1.8 3.6 2.1 2 .8 2.3 3.7.3 3.7-2.5 0-7-2-9.3-4.2-2.8-2.6-2.9-3.8-.3-3.8 1.1 0 2-.7 2-1.5C212 .2 199.6 0 106 0H0zM43 29c0 2.1-1.1 4.2-3.5 6.8l-3.4 3.7-.1-3.7c0-2.5.8-4.6 2.6-6.7 3.2-3.9 4.4-3.9 4.4-.1m77.7 8.6c-.3.3-1.2.4-1.9.1-.8-.3-.5-.6.6-.6 1.1-.1 1.7.2 1.3.5m243.8 41.6c1.4.6 2.5 1.5 2.5 2 0 1.2-5.4 1-6.8-.4-2.8-2.8-.3-3.7 4.3-1.6M494.8 94l.3 6.5-3-3.3c-3.3-3.5-4.1-8.4-2-12.4 1.1-2 1.1-2 2.7.3 1 1.4 1.8 5 2 8.9M59.5 98.5c-2.7 2.5-6.4 5-8.2 5.6s-3.3 1.5-3.3 2-.5.9-1 .9c-1.5 0 1.3-5 4.5-8s7.2-4.8 10.5-4.9c2.3 0 2.1.4-2.5 4.4m276.9 12.3c1.5 2.5-13.9 7.4-18 5.8-1.5-.6-1.3-1.1 1.1-3.6 2.6-2.7 3.4-3 9.6-3 3.7 0 7 .4 7.3.8m95.6 7.4c0 2.2-8.5 0-10.2-2.6-1.6-2.3-.6-2.4 4.7-.3 3 1.2 5.5 2.5 5.5 2.9m-153.5 24.7c1.9 4.2 1.3 10.1-.9 10.1-1.8 0-3.6-4.4-3.6-8.9 0-6.3 1.9-6.9 4.5-1.2m231.5 7.9c0 9.8-2.3 11.8-5 4.4-1.2-3.6-1.7-4.1-3.5-3.4-2.8 1-9.8.7-12-.5-1.7-1-1.6-1.2 1.1-2.9 2-1.4 4.7-1.9 9.5-1.9 3.7 0 7.1-.3 7.5-.7 1.4-1.5 2.4.5 2.4 5m-267.1-3.4c.9 1.1.8 1.5-.5 2-2.9 1.1-6.4.7-6.4-.8 0-2.6 5-3.5 6.9-1.2m204.1 2.8c0 2.5-4 7.7-7 9.3-4 2.1-4.6 1.5-2.5-2.7 2.7-5.4 9.5-10.1 9.5-6.6M249.5 173c2.6 5.1 3.5 8 2.5 8-1.4 0-3.9-4.2-4.6-7.8-.8-4 .1-4.1 2.1-.2m70.9 20.6c2.1.8 2 2.1-.3 2.9-2.2.7-7.1-1-7.1-2.5 0-1.1 4.9-1.4 7.4-.4m89.3 13.1c1.6 4 1.6 4.3-.1 4.3-1.1 0-4.6-7-4.6-9.4 0-1.7 3.3 2 4.7 5.1m-56.2 2.3c3.3 5.3 3.2 6.5-.6 4.3-3-1.8-7.4-8.5-6.2-9.6 1.1-1.2 4.3 1.4 6.8 5.3m-217.3 5.3c2.3 2.9 2.2 3.7-.1 3.7-2.1 0-8.1-4.6-8.1-6.2 0-1.8 6.4.1 8.2 2.5m-9.8 3.3c1 2.6.7 8.2-.5 9-.6.3-1.8-.1-2.7-.9-1.3-1.4-1.4-2.2-.3-5.7 1.2-4.2 2.5-5.1 3.5-2.4M16.5 229.1c5.7 5.1 1.1 7.2-5.2 2.3-4.4-3.4-4.2-4.4.9-5.3.4 0 2.3 1.3 4.3 3m24 12.1c4.1 1.9 3 3.1-2.2 2.3-5.3-.8-6.3-1.2-6.3-2.6 0-1.3 5.4-1.1 8.5.3M474 251.5c1.7.9 3 2 3 2.6s-.3.9-.7.7c-4.9-2.4-6.3-3.2-6.3-4 0-1.1.7-1 4 .7m-39.6 14.4c2.9 1.6 5.4 4.6 4.6 5.5-.3.2-2.8 0-5.7-.6-5.4-1.1-9.3-3.8-9.3-6.4 0-1.9 6-1 10.4 1.5M410.7 276c2.4 1.4 3.6 3.2 4.7 7.1.9 2.9 1.4 5.5 1.1 5.7-.9.9-6.6-5.1-8.6-9-3.2-6.2-2.5-7.1 2.8-3.8M95.9 302.3c1.4 1.7-2.5 5.5-9.3 9.1-5.8 3.1-12.4 3.3-20.5.8-5.4-1.7-8-4.2-4.4-4.2 1.9 0 9.4-3.7 10.3-5.1 1.3-1.9 22.3-2.4 23.9-.6m324.2 61c1.5 3.6 1.1 3.9-2.8 2-3.1-1.4-5.9-6.5-4.7-8.4.8-1.4 6.1 3.2 7.5 6.4"/><path d="M233.1 197.9c-1.8 11-1.8 11 3.2 10.6 3.2-.2 4.5-.8 5.4-2.6 2.1-3.9 1.5-7.3-1.4-10-6.1-5.5-5.9-5.6-7.2 2"/></svg>