<svg xmlns="http://www.w3.org/2000/svg" width="682.667" height="512" version="1.0" viewBox="0 0 512 384"><path d="M0 192v192l66.8-.1c57.4-.1 66.3-.3 63.7-1.4-1.6-.8-3.7-1.4-4.5-1.4s-5.5-1.3-10.4-2.8c-7-2.2-9.9-3.8-14.3-7.5-2.9-2.6-6.2-5.2-7.1-5.7-2.1-1.1-17.1-3.3-18.2-2.6-.4.2-1 2.5-1.3 5-.5 5.2-1.2 6.4-2.9 4.7-.9-.9-.8-2.1.1-5 1.9-5.6 1.2-7.4-3.9-10-6.8-3.4-7.5-4.4-5.6-8 .8-1.6 3.6-4.8 6.1-7 3.4-3 4.5-4.7 4.5-6.9 0-2 1.1-3.9 3.8-6.5 4.5-4.4 8.9-6.6 21.2-10.7 10.2-3.5 22.1-9.5 33.5-17 9.7-6.4 21.3-18.4 33.5-34.7 5.7-7.7 12.1-16 14.2-18.6 3.8-4.6 3.9-4.7 2.3-7.8-1.8-3.4-1.8-3.4-4.7-1.9-2.1 1.1-2.1.7-.5-5.1.1-.3-1.1-3.1-2.7-6.2-2.8-5.7-2.8-5.9-1.7-14 .7-4.6 1.4-9 1.7-9.9.3-1.2-1-2.2-4.7-3.8-6.1-2.5-6.1-3.5-.1-1.9 2.4.6 4.5.8 4.8.5 2.1-2 3.7-15.7 3.8-30.8l.1-16.6-4 .5-4 .5 1.9-2.1 1.9-2.2-4.2.4c-2.2.2-4.1-.1-4.1-.5 0-.5-.7-.9-1.6-.9-1.1 0-1.4-.6-.9-2 1-3.3-.1-2.3-2.9 2.5-2.9 4.9-8.9 8.9-14.9 10-5.6 1.1-7.6 3.2-8.3 9-.7 6-4.3 11.9-8.4 14-1.6.8-5.8 2.1-9.2 2.8l-6.3 1.2-.8 6.2c-1.3 9.6-5.1 12.1-17 11.3l-3.8-.2.2 4.4c.1 2.3.1 4.8 0 5.4-.2 2-4 2.3-9.2.6-4.4-1.4-5.5-2.3-8-6.7-6.8-11.9-10-43-6.5-63 3.7-21.1 14.2-44.9 28.2-63.4l4.8-6.4-6-5.6C87.3 59.6 77.8 49.3 80 50.5c3.4 1.9 12.8 8.6 18 12.8l5.5 4.4 8.1-7.6c14.8-14 35.2-26.9 52.3-33.1 16.9-6.2 41.8-8.6 60.6-6 8.9 1.3 10 1.7 13.4 5.3 2.2 2.5 2.3 2.6.2 2-2.6-.7-2.6-.6-.1 5.2 3.4 8 2.5 10-5.1 11.3l-4.4.8.2 4.9c.6 10.8-2.6 16.7-9.4 18-5.6 1-8.3 3.1-8.3 6.3 0 2.3 1.3 3.9 6.3 7.9 4.8 3.9 7.1 6.6 10 12.2 2 4 3.7 8.6 3.7 10.3 0 3.3-2.2 8.2-5.3 11.5-2.5 2.8-4.9 3-4.1.5.5-1.4.4-1.4-.7.2-1.7 2.8-3.9 11.5-3.9 16 0 3.8-.1 3.9-1.6 2s-1.5-1.8-1.1.3c.3 1.3.1 2.3-.4 2.3-.6 0-2.1 1.2-3.4 2.7l-2.5 2.8 1.1-3.3c1.5-4.5.8-4.8-3-1.3-1.9 1.8-3.1 2.4-3.1 1.5 0-1.9-2.4-1.8-4 .1-1.7 2.1.5 4.8 3.2 3.9 2-.6 5.8 2 5.8 4 0 1.6 9.2 9.2 10.7 8.8.6-.1 2 .9 3 2.4 1 1.4 4.4 5.3 7.5 8.6 4 4 6.2 7.3 7.1 10.4 1 3.6 2.7 5.7 8.2 10.4 4.2 3.7 7.8 6 9.2 6 1.3 0 4.2 1.7 6.6 3.9 2.3 2.1 5.7 4.6 7.5 5.5 2.2 1.1 3.2 2.4 3.2 4s1 2.8 3.4 4.1c3.1 1.7 3.8 1.7 6.1.5 1.5-.8 3.4-2.8 4.2-4.4 2-3.8.4-9.8-3.3-12.3-7-4.9-7.6-5.7-6.1-7.7 1.4-1.9 1.6-1.9 5.6-.4 2.3.9 4.9 1.4 5.6 1.2 2-.8 8.2 1.4 8.9 3.2.7 1.7-1.7 2.9-4 2-1.3-.5-1.5-.2-.9 1.6 1.4 4.3 1.7 11.9.5 14.7-.6 1.6-2.6 4.3-4.4 6-4.6 4.4-10 5.1-15.5 2.1l-4-2.3-4.1 3.6c-2.2 2.1-4.7 3.7-5.5 3.7-.9 0-2 1.1-2.5 2.5s-1.7 2.5-2.8 2.5c-1 0-2.7.9-3.6 1.9-1.2 1.3-3.8 2.2-7.2 2.7-2.9.3-5.8 1.2-6.3 1.8-.9 1.1 1.2 23.9 3.9 41.1.5 3.3 2.1 18.1 3.5 33 1.4 14.8 3.4 34.5 4.5 43.6s2.1 19.7 2.3 23.7l.2 7.2H512V0H410.8c-97.9 0-101.1.1-99.5 1.8 2.6 2.9 2 3.2-2.2 1.4-2.2-.9-3.7-2-3.4-2.4.2-.5-23.7-.8-53.1-.8-47.2 0-53.5.2-53 1.5.5 1.1-.1 1.5-1.9 1.5-1.4 0-3.2-.7-4.1-1.5C192.3.2 180.1 0 96.1 0H0zM30 16.5c0 2.3-2.4 6.7-4.9 8.9-1.7 1.6-2.2 1.6-2.6.4-.7-1.8 1-6.6 3.2-9 2-2.2 4.3-2.3 4.3-.3m311.1 42.1c1.7 2.1.3 3-1.8 1.2-1-.8-2.6-1.8-3.5-2.1-1-.4-1.8-1.1-1.8-1.6 0-1.3 5.5.6 7.1 2.5m126.6 17.7c.6 4-.4 10.7-1.6 10.7-2.6 0-3.9-8.8-2.1-13.6 1.3-3.4 2.8-2.2 3.7 2.9M503 99.7c0 3.1-1.5 6.1-2.5 5.1-.9-.9.5-7.8 1.6-7.8.5 0 .9 1.2.9 2.7m-473 .1c0 1.7-9.5 9.7-12.7 10.8-3.9 1.4-4 1-.9-3.7 3.2-4.6 13.6-10 13.6-7.1m277.2 5.8c2.4 1.5-2.9 5.1-6.7 4.6-1.3-.2-4.2.2-6.5.8-6.2 1.7-7.6-.2-3.1-4.2 3.2-2.9 3.7-3 9.5-2.3 3.3.3 6.4.9 6.8 1.1m76.2 17c4.2.7 5.4 2 2.8 2.8-2.2.7-9.2-2-9.2-3.5 0-.6.6-.9 1.4-.6s3.1.9 5 1.3m-128.9 6.5c1.7 3.3 1.7 9-.1 9.6-2.5.8-4.8-8.6-2.9-11.7.9-1.5 1.3-1.3 3 2.1m236.6 12c-1.5 4.9-3.7 5-5 .3-1.1-3.9-.4-6.1 2.8-9.8 1.5-1.7 1.6-1.6 2.5 1.9.5 2.4.4 5.1-.3 7.6m-266.8.6c1.2 1.1-1.4 3.3-3.9 3.3-2.8 0-4.2-1.9-2.3-3.1 1.7-1 5.3-1.2 6.2-.2m194.4 6c-.6 3.6-4.5 8.3-6.8 8.3-1.8 0 .2-6.4 2.9-9.3 3.5-3.7 4.6-3.4 3.9 1m55.7-2.6c3.5 1 3.7 1.2 2.3 2.6-2.1 2.1-10 2.8-13.7 1.3-3.8-1.6-3.8-2.5.3-3.8 4.3-1.4 6.5-1.4 11.1-.1m-145.1 53.3c1.6 3.2 2.7 6 2.4 6.2-.7.7-5.9-4.9-6.8-7.4-2.8-7.4.7-6.5 4.4 1.2m56.4 2.9c1.2 7.4-2.5 3.2-4.3-4.8l-.6-3 2.1 2.1c1.2 1.1 2.4 3.7 2.8 5.7m-272.3 9.3c1.1 2.9.6 7.1-.9 8.4-1.3 1.1-2.1.8-5-2-4.3-4.2-4.4-5-.5-5 1.8 0 3.3-.6 3.6-1.5.8-1.9 2-1.9 2.8.1m45.6 11.2c0 1-1.3 2.6-3 3.5l-3 1.8v-2.5c0-2.4 2.2-4.5 4.8-4.6.6 0 1.2.8 1.2 1.8m-135.7 5.3c5.4 1.5 3.6 3.1-2.6 2.3-7.4-.8-8.5-1.3-6.7-2.4 2-1.3 4.6-1.2 9.3.1M455.1 239c1.8 1 2.7 4 1.2 4-1 0-4.3-3.2-4.3-4.2 0-1.1.7-1 3.1.2M421 249.2c5.3 2.8 6.3 4.8 2.3 4.8-6.5 0-12.3-3-12.3-6.4 0-1.4 6-.4 10 1.6M389.1 260c2.2 1.3 4.9 6.1 4.9 9 0 1.9-.2 1.9-2.3.5-2-1.3-6.7-8.2-6.7-9.9 0-.9 1.9-.7 4.1.4M52 269.8c0 1.3-5.2 5.8-9 7.8-6.7 3.4-16.3 3.5-24.7.3-2.7-1-2.6-1.1 4.7-4.1 7.2-3 14-4.3 24.3-4.6 2.6-.1 4.7.2 4.7.6m1.9 22.1c3.1 2.2 6.7 6.9 5.9 7.7-1.1 1-12.8-8-12.8-9.9 0-1.1 3.9.1 6.9 2.2m15.6 16.5c1.8 1.3 1.8 1.4-.6 2.6-1.3.7-5.1 3.3-8.4 5.8-3.3 2.4-7.5 5.2-9.3 6-2.4 1.2-3.2 2.1-2.9 3.4.6 2.2-2.1 2.5-2.9.3-.5-1.1-2.2-1.5-6.3-1.5-3.2 0-6.5-.6-7.5-1.3-2-1.5-1.9-1.6 7-7.7 1.2-.8 3.4-2.4 4.9-3.4 6.8-4.9 21.8-7.3 26-4.2m332.7 38.3c2.6 2.9 4.3 6.3 3 6.3-.4 0-2.2-.9-3.9-2-2.3-1.4-3.3-2.7-3.3-4.5 0-3.2 1-3.2 4.2.2m-75.1 18.5c.7 1.3 2.3 3.6 3.5 5.1 1.6 1.9 2.4 4.1 2.4 6.8 0 5.3-1.7 5-5.7-.9-2.5-3.5-3.3-5.8-3.3-9 0-4.6 1.3-5.4 3.1-2"/><path d="M235.6 197.7c-.3 3.8-.9 7.8-1.2 9-.6 2.2-.4 2.3 4.7 1.8 5.9-.5 6.9-1.4 6.9-6.6 0-3-.7-4.3-4-7.3-2.2-2-4.4-3.6-4.9-3.6-.4 0-1.1 3-1.5 6.7"/></svg>