<svg xmlns="http://www.w3.org/2000/svg" width="682.667" height="512" version="1.0" viewBox="0 0 512 384"><path d="M0 105.5V211l4.3.1c2.3 0 5.1.4 6.2.9 1.8.7 1.9.8.2 1.5-.9.4-3.7.4-6.2.1l-4.5-.7v29.3l3.5-.6c4.7-.9 4.7 1.3 0 4.5L0 248.5v47.7l4.7-3.6c7.2-5.4 14.3-8.5 21.1-9.2 3.4-.4 6.2-1 6.2-1.4s-1.4-1.9-3.2-3.3c-1.7-1.5-2.8-3-2.4-3.4 1.1-1.2 5.6 1.8 9 6.1 2.9 3.6 3 3.9 1.2 5-1 .6-4 2.8-6.6 4.9-7.1 5.5-13.1 7.8-22.1 8.4l-7.9.6V384l60.3-.1c46.8 0 59.6-.3 57.6-1.2-1.5-.7-5-3.4-7.8-6-6.4-6-9.3-7.2-20.6-8.6-8.1-1-9.1-1.3-11.3-4.1-1.3-1.6-4.3-3.8-6.8-4.9-5.1-2.3-6.8-5.6-5.9-11.3.9-4.8 2.2-5.7 3.5-2.2l1.1 2.8 3.7-3.7c2.2-2.3 4-5.3 4.7-7.9 1.4-5.7 8-10.6 21.1-15.7 29.4-11.4 48.5-26.6 67.6-53.4 5.1-7.2 11.4-15.6 14.1-18.6 2.6-3 4.7-5.7 4.7-6.1 0-.3-2.7-5.1-6-10.6-3.3-5.4-6-11-6-12.4s1.1-9.3 2.5-17.5c4.2-25 4.6-28.6 3.9-38.2l-.7-9.3-4.1.6-4.1.7 2.8-2.2c3.3-2.7 3.6-4.6.5-3.7-2.6.8-8.8 1.3-8.8.8 0-.2 1-1.3 2.3-2.4l2.2-1.9-2.7.5c-1.6.4-2.8.2-2.8-.4 0-.5-1.8 1-4 3.4-3.7 4-5.4 5-11.5 7.1-1.8.6-1.5.9 1.8 2.6 4.1 2.2 7.7 7.1 7.7 10.6 0 3-1.8 2.9-8.6-.3-4.1-1.9-5.5-3.2-6-5.2-1.1-5.1-1.4-5.6-2.6-4.4-.6.6-1.3 3.2-1.5 5.9l-.5 4.8 5.4 1.9c2.9 1 6.2 2.5 7.3 3.2 3.8 2.7-2.3 1.6-7.7-1.3l-5-2.7-3.1 3.6c-3.8 4.4-7.6 6.4-13.9 7.3-2.6.4-5.2 1.2-5.7 1.9-.8 1-2 6.8-2.1 10.4 0 2.6-5.2 6.2-10 6.8-4.3.6-4.6.8-4.2 3 .7 3.8-2.1 7.1-6.8 7.9-3 .5-4 1.1-4 2.6 0 5.4-7.6-1.1-12.8-11-5.8-10.9-8.8-29.7-7.8-48.6 1.2-25 9.4-48 25.4-72 3.7-5.5 6.8-10.2 7-10.6s-4.6-5.5-10.5-11.4c-5.9-5.8-9.7-10.1-8.3-9.4 3.4 1.7 11.5 7.4 17.1 12.1 2.6 2.1 5.1 3.8 5.5 3.8.5 0 2.2-1.5 3.9-3.3 9.2-10.2 29.6-25.2 43.8-32.4 21.4-10.7 49.1-15.3 72.7-12 6.7 1 9.4 1.9 12.3 4.1 4.2 3.2 4.6 4 1.6 3.1-2.4-.8-2.4-.7.8 7.7 1.6 4.3 1.6 4.9.2 6.3-.8.8-3.5 1.9-6 2.3l-4.4.8.3 7.2c.5 10.5-2 14-11.8 16.8-3.9 1-5 2.4-4.9 5.8 0 2.6.9 3.8 6 7.5 5 3.6 6.6 5.6 9.9 12.2 2.2 4.3 4 8.8 4 9.9 0 1-1 4-2.2 6.4-1.9 4-2 4.9-.9 8.3.8 2.6.9 4.6.3 6.3l-.9 2.5-2.2-3.5c-1.1-1.9-2.1-4-2.1-4.7 0-.6-.8-1-1.7-.9-2.4.4-4.5 7.9-4 14.5l.4 5.4-1.7-3.3c-1.9-3.7-3.4-2.6-2.4 1.7.4 1.5.3 2.5-.1 2-.5-.4-2.2.5-3.7 2l-2.9 2.8 1.6-3.7c2.4-5.9 1.8-6.3-2.5-1.7-3 3.2-4 3.8-4 2.5 0-1.2-.5-1.6-1.6-1.2-.9.3-1.8.6-2 .6-1.1 0-.2 3 .9 3.1 1.9.2 5.1.6 6.3.7.7.1 1.4 1.2 1.8 2.4.3 1.3 6.6 7.8 13.9 14.4 11.7 10.7 13.5 12.8 14.7 16.8 1 3.8 2.5 5.5 8.5 10.6 4.8 3.9 8.2 6 9.9 6s4.2 1.5 6.9 3.8c2.3 2.1 5.7 4.7 7.5 5.8 2.3 1.3 3.2 2.4 2.8 3.7-.3 1.3.5 2.4 2.7 3.8 3.7 2.2 6.3 1.7 9.4-1.7 4.5-4.9 2.1-12.9-4.8-16.4-3.1-1.6-4-2.6-3.7-4.3.8-5.6 12.2-.7 15.8 6.9 4.8 9.7-.3 21.4-10.4 24-1.9.4-4.2 0-7.5-1.6l-4.8-2.2-4.6 3.5c-2.6 2-5.5 3.8-6.6 4.2-1 .3-2.1 1.5-2.4 2.5-.3 1.1-1.4 2-2.4 2s-2.6.9-3.5 1.9c-1.1 1.3-3.6 2.2-7.2 2.6-3 .4-6 1.3-6.6 2-.7.8-.7 3.8 0 9.1 3.8 30.6 6.2 53.9 7.5 72.4.9 11.8 2.5 29.6 3.5 39.4 1.1 9.9 2 20.1 2 22.8v4.8h261V245.9c0-131.1-.1-138.1-1.7-137.4-3.8 1.4-6.9 1.6-9.8.5s-2.9-1.2-1-2.6c1.3-1 3.7-1.4 7.3-1.2l5.2.3V0H0zM13.6 8.6c-.3.9-.6 2.1-.6 2.7 0 1.9-4.8 7-5.9 6.3-1.2-.8.5-6.3 2.7-8.9 1.9-2.2 4.6-2.3 3.8-.1m259.3 6.1c1.6 1 2 1.8 1.3 2.5q-1.05 1.05-3.3-.6c-1.3-.9-3.1-1.6-4.1-1.6-1.8 0-2.4-1.1-1.1-2.3.8-.9 4 0 7.2 2M318 34c2.2 1.1 4 2.4 4 2.9 0 1-11-3.1-11-4.2 0-1.3 3-.7 7 1.3m124.6 34.4c-.9 6.8-2.1 7.8-3.6 3.1-1.1-3.3-.3-8.2 1.8-11.9 1.2-2.2 2.4 3.7 1.8 8.8m-173.9 33.2c3.3.9 1.2 4-3.6 5.5-5.2 1.5-7.3.7-6.2-2.3 1.1-2.9 5.5-4.3 9.8-3.2m6 1c-.3.3-1.2.4-1.9.1-.8-.3-.5-.6.6-.6 1.1-.1 1.7.2 1.3.5m194.1 3.6c.2 2.2-.3 3.9-1.2 4.8-1.4 1.1-1.6.6-1.6-4 0-6 2.3-6.7 2.8-.8m4.6 13.8c.7 4.3-1.4 11-3.4 11-1 0-4-5.8-4-7.9 0-1.2 4.9-7.1 6-7.1.4 0 1 1.8 1.4 4m-132.6 11c1.7 0 3.2.4 3.2.9 0 1.6-4.3 2-7.7.6-3.7-1.6-4.5-3.1-1-2.1 1.2.3 3.7.6 5.5.6m51.2 13.5c0 2.6-2.7 6.5-4.6 6.5-2.2 0-1.8-6.2.7-8.9 1.7-1.8 2.3-2 3-.9.5.7.9 2.2.9 3.3m56.9-.5c2.2 1.2-2.8 4-7.2 4-2.1 0-5.2-.7-7-1.7l-3.2-1.6 3-1.4c3-1.3 11.5-.9 14.4.7m-177.8 38.7c4 2.4 3.7 5.9-.4 5.6-3.7-.3-5.7-2-5.7-4.9s2-3.1 6.1-.7m33.7.8c.7 1.4 1.5 4.4 1.8 6.7.8 5-1 4.5-3.2-.8-2.6-6.1-1.2-11.7 1.4-5.9m57.5 3.8c1.9 2.9 2.6 8.1 1.2 8.6-1.2.5-3-3.2-3.9-7.7-.7-3.8.5-4.2 2.7-.9M510 207.1c1.6 2.8 1.2 6.9-.5 6.9s-3.5-3.9-3.5-7.5c0-2.8 2.4-2.5 4 .6m-365 4.3c0 1.4-3.6 4.6-5.1 4.6s-1.7-3-.3-4.5c1.9-1.9 5.4-2 5.4-.1m21.3 11.8c-1.7 3-9.1 8.3-10.2 7.3-.2-.2.2-1.8.9-3.5.9-2.1 2.9-3.9 5.9-5.5 2.5-1.2 4.8-2.1 5-2 .2.2-.5 1.9-1.6 3.7m269.2 5.8c1.5 1.6 1.6 2.3.6 3.3-1 .9-1.5.8-2.7-.7-2.9-4-1.2-6.2 2.1-2.6m-32.6 8.8c4.7 2.3 5.1 4.2 1.1 4.2-3.4 0-11-3.5-11-5 0-1.6 6.2-1.1 9.9.8m-37.3 10c.6.4 2.1 2.6 3.3 4.9 1.6 3.2 1.8 4.3.8 4.3-1.2 0-7.7-7.9-7.7-9.4 0-.8 2.3-.7 3.6.2M29 319.9c1.7 3.3 1.2 4.3-1.5 2.5-1.4-.9-2.5-2.3-2.5-3 0-2.1 2.8-1.7 4 .5m471.8 3.4c2.2 1.7 1.3 2.7-2.6 2.7-3.7 0-8.2-2.2-8.2-4 0-1.2 9-.1 10.8 1.3m-115.4 15.5c2.8 3.2 1.6 4.5-2.1 2.2-2-1.2-3.3-2.8-3.3-4 0-1.7.3-1.9 1.8-1.1.9.5 2.6 1.8 3.6 2.9m-80.7 13c1.3 3.2 1 7.2-.6 7.2-1 0-5.6-5.1-7-7.7-1.2-2.4-1.5-6.6-.4-7.6 1-1.1 6.4 4.4 8 8.1"/><path d="M223.5 117c-.3.5-.1 1 .4 1 .6 0 1.1-.5 1.1-1 0-.6-.2-1-.4-1-.3 0-.8.4-1.1 1m16.1 75.2c-.3.7-.9 4-1.5 7.3s-1.4 6.9-1.7 8.1c-.5 2-.4 2.1 5.8.9l6.3-1.1.9-4.3c.9-4.2.9-4.3-3.5-8.1-4.8-4.2-5.8-4.7-6.3-2.8M95 205c0 1.1.2 2 .5 2 .2 0 .9-.9 1.5-2 .9-1.6.8-2-.5-2-.8 0-1.5.9-1.5 2"/></svg>