<svg xmlns="http://www.w3.org/2000/svg" width="682.667" height="512" version="1.0" viewBox="0 0 512 384"><path d="M0 124.4v124.4l2.4 1.5c2.7 1.8 6.9 8.2 6.4 9.7-.2.6-2.1-1.3-4.3-4.1l-4-5.3-.3 29.3c-.2 29-.2 29.3 1.9 31 2.3 1.9 1.9 4.4-.6 3.4-1.3-.4-1.5 4.1-1.5 34.6V384h121.4l-4.3-4.4c-4.7-4.7-8.2-6.2-18.1-7.1-8.3-.9-12.1-2.6-15.5-7.1-1.5-2-4.7-4.5-7-5.5-6.5-2.9-6.9-3.9-3.6-9 1.5-2.4 4.2-5.5 5.9-7 2.2-1.8 3.2-3.6 3.5-6.3.8-7 7-11.7 25.5-19.5 5.2-2.2 13.5-6.3 18.5-9.2 20.3-11.6 29.5-20.3 48.1-45.2 6.3-8.4 12.3-16.1 13.5-17.1 1.2-1.1 2.1-2.5 2.1-3.3s-2.5-5.6-5.5-10.7c-6.5-10.9-6.6-11.4-3-33 3.6-22.1 4.4-30.3 3.6-38.1-.5-5.5-.9-6.9-2.1-6.6-.8.2-3.1.6-5 .9-3.5.4-3.5.4-1.3-1.3 2.9-2.1 3.2-5.1.4-3.5-1.2.6-3.4.7-5.8.2-3.4-.8-3.5-.9-1.5-1.6 1.2-.4 2.2-1.2 2.2-1.7 0-2.1-2.9-.6-8.1 4.5-4.4 4.1-6.8 5.6-10.8 6.6-6.6 1.6-7.7 2.8-8.6 9.2-1.4 10-5.9 14.9-15.2 16.8-3.2.7-6.4 1.7-7 2.2-1.5 1.2-1.7 7.4-.3 8.3 2 1.2.9 3.2-3.2 6-3.4 2.3-5.8 3-11.3 3.5l-7 .5.3 4.4c.4 7-2.2 8.5-10.1 5.7-3.9-1.3-7.9-6-9.9-11.7-1-2.8-1.1-2.9-2.9-1.4-3.5 3.3-5.6-2-2.2-5.7 1.5-1.6 1.5-2.6.2-10.6-2-12.7-1.8-36.7.5-46.7 4.3-18.5 13.4-39.6 24.1-55.6l5.2-7.7-7.1-6.3C91.5 63.7 82.2 53.8 85 55.5c4 2.4 11.2 7.3 17.3 11.8l6.7 4.9 10.9-10.4q31.65-30.3 69.3-38.4c10.2-2.2 40.2-2.6 45.8-.6 4.2 1.5 10.9 6.8 7.3 5.7-2.8-.8-2.9 0-.3 5.3 3.6 7.3 2.4 9.7-5.1 11l-4.4.8.4 8.2c.3 8.1.3 8.2-3 11.5-2.2 2.2-4.9 3.7-7.4 4.1-5 1-6.5 2.2-6.5 5.2 0 1.6 1.2 3 3.8 4.6 8.6 5.1 13.3 10.8 17.3 21.1l2 4.9-2.6 5.6c-2.3 5-5.9 9-7.7 8.5-1.7-.6-3 3.3-3.5 10.2-.4 5.3-.9 7.3-1.6 6.6-1.6-1.6-2.6-1.3-2.1.6.2 1.1-1.1 2.9-3.4 4.8l-3.7 3 1.8-2.7c1.7-2.7 2.3-5.8 1.1-5.8-.3 0-2.1 1.7-4 3.7-3.1 3.5-3.4 3.6-3.4 1.5 0-2-.3-2.1-2-1.2-1.1.6-2 1.7-2 2.5 0 1.5 3.4 3 5 2 1.1-.7 5 2.9 5.1 4.7 0 1.2 4.2 5 20.7 19.3 2.8 2.5 4.8 5.4 6 8.8 1.4 4.2 3 6 9.5 11.3 4.4 3.6 8.9 6.4 10.1 6.4s4.8 2 8 4.5c3.1 2.4 6.6 4.7 7.7 5 1.1.4 1.9 1.5 1.9 3 0 3.2 4.3 5.8 8.1 5 3.8-.9 5.9-4 5.9-8.8 0-3.9-2.7-7.5-9-11.7-1.7-1.2-2.1-2.1-1.6-3.8.9-2.7 2.4-2.8 7.9-.1 2.7 1.3 5.5 3.8 7.1 6.3 2.4 3.5 2.7 4.9 2.4 9.9-.5 6.4-2.5 9.8-7.8 13.4-4.1 2.9-8.3 2.9-12.7.2l-3.3-2.1-3.9 3.5c-2.1 1.9-4.9 3.8-6 4.2-1.2.4-2.6 1.8-3.1 3.1-.6 1.3-1.8 2.4-2.8 2.4s-2.7.9-3.7 2c-1.2 1.3-3.7 2.1-7.6 2.6-3.2.4-6.3 1.2-6.9 1.9-.8.9-.8 4 0 10.1.5 4.9 1.9 16.5 3 25.9 1.1 9.3 2.4 25.3 3 35.5s1.5 26.1 2.1 35.5c.6 9.3 1.3 22.5 1.6 29.3l.6 12.2h3.3c1.8 0 3.4-.5 3.6-1.2.2-.6 3.1-1.3 6.6-1.6 5-.4 6.3-.1 6.8 1.2.6 1.5 10.9 1.6 119.5 1.6H512V0H403.4C303.1 0 294.9.1 296.1 1.6s1 1.6-2.1.9c-1.9-.4-3.9-1.1-4.4-1.6-.6-.5-61.8-.9-145.3-.9H0zM73.3 22.7c-.7.2-2.1.2-3 0-1-.3-.4-.5 1.2-.5 1.7 0 2.4.2 1.8.5m32.9 15.8c-.2 2.2-.8 4.4-1.2 4.8-.9 1-3.1-4.8-2.5-6.6.2-.7 1-2.6 1.6-4.2l1.2-3 .7 2.5c.4 1.4.5 4.3.2 6.5m301.2 6.2c-.8 4.4-3.1 10.3-4 10.3-1.1 0 .7-9.4 2.2-11.8 2.1-3.2 2.6-2.7 1.8 1.5m40.6 56.6c0 1.1-1 3.2-2.1 4.9-1.8 2.5-2.4 2.8-3.5 1.6-.7-.7-1.6-2.7-2-4.4-.5-2.4 0-3.7 2.2-6.4l2.8-3.3 1.3 2.9c.7 1.6 1.2 3.7 1.3 4.7m17.8-4.4c1.1.7 1 1-.3 1.5-3.7 1.4-13 .2-11.9-1.5.7-1.1 10.5-1.1 12.2 0m-51.6 16.8c2.3 2.1 2.6 9.3.3 9.3-1.4 0-1.8-.9-2.9-7.8-.6-3.6-.1-3.9 2.6-1.5m-65.6 25c1.5 2 1.8 6.9.5 7.7-1.2.8-4.5-5.9-3.8-7.8.8-2.1 1.7-2 3.3.1m55.3.9c5.5 1.8 5.8 2.9 1.1 3.9-5.2 1.1-13.1-1.9-11.5-4.4.9-1.6 4.5-1.4 10.4.5M281 141c-.8.5-2.6.9-4 .9-2.3-.1-2.3-.2.5-.9 4.3-1.1 5.2-1.1 3.5 0m-34.5 24.5c4.4 4.4 2.5 9.6-2.5 7-3.3-1.7-4-3.2-3.3-6.8.7-3.4 2.7-3.4 5.8-.2m24.9 2.1c.3.9.6 3.7.6 6.2-.1 4.4-.2 4.6-1.5 2.8-.8-1.1-1.5-3.9-1.5-6.3 0-4.3 1.2-5.7 2.4-2.7m62.6 4.3c.5 1.1 1 3.9 1 6.2 0 4-.1 4.2-1.6 2.7-1.9-1.9-3.2-10.8-1.6-10.8.6 0 1.6.9 2.2 1.9m140.3 14.8c1.8 2.1 3.1 6.8 2.3 8.2-1.8 2.9-6.5-3.4-5.8-7.7.4-2.7 1.4-2.8 3.5-.5m-327.2 18.2c-1.2 2.2-4.5 4.4-8.8 5.9-4 1.3-4.2.4-.5-3 3.4-3.2 6.2-4.7 8.5-4.8 1.4 0 1.6.4.8 1.9m-87.3.7c2.2 1.5 3.1 6.4 1.2 6.4-1.7 0-5-3.9-5-6 0-2.4.8-2.5 3.8-.4m345.7 11c0 1.2-.8 2-2.2 2.2-1.7.3-2.3-.2-2.3-1.6 0-2 1.6-3.3 3.5-2.8.6.2 1 1.1 1 2.2M368.1 231c2.6 1.5 2.4 3-.5 3-3.1 0-8.6-2-8.6-3.1 0-1.2 6.7-1.1 9.1.1m-40.2 6.6c2.2 2.8 2.8 5 1.1 3.9-.5-.3-1.9-1.9-3-3.5-2.6-3.7-.9-4 1.9-.4m-200.4 64.6c3.2 1.4 2.8 2.7-1.5 5.2-3.2 1.9-3.3 1.9-6.7.1-3.9-2.1-4-4.6-.3-5.6 3.8-1.1 5.7-1 8.5.3m336.6 4.8c3.2 1.8 2.2 3-2.5 3-4.1 0-7.4-1.9-5.9-3.3 1-1.1 6.2-.8 8.4.3m44.9 5.5c0 1.7-3.3 6.6-5.6 8.4-2.1 1.6-4.1 2.1-9 2.1-4.6 0-6.4-.4-6.4-1.3 0-2.2 6.6-7.9 10.2-8.7 3.9-.9 10.8-1.2 10.8-.5m-247.5 7c3.8 3.8 3.8 3.6 2.9 5.9s-2.7 2-5.7-1.2c-2.7-2.8-3.8-8.2-1.7-8.2.6 0 2.6 1.6 4.5 3.5m-203.1.1c.8 2.1.6 7.4-.3 9.7-.6 1.7-.8 1.7-2.5-.2-1.4-1.6-1.7-2.8-1.1-5.8.4-2.1.9-4.1 1.1-4.5.8-1.3 2.1-.9 2.8.8M350.5 333c1.6 1.6 2.5 3 2.1 3-1.3 0-6.6-4.1-6.6-5.1 0-1.7 1.6-.9 4.5 2.1"/><path d="M228.7 115.7c-.4.3-.7 1.1-.7 1.7s.5.5 1.2-.2c.6-.6.9-1.4.7-1.7-.3-.3-.9-.2-1.2.2m14.7 79c-.4 2.1-1.5 6.2-2.6 9.2-1 3-1.7 5.5-1.5 5.7.1.1 3.4-.3 7.4-.9 7.7-1.2 8.3-1.8 8.3-7.9 0-2.1-1.1-3.6-4.6-6.3-2.6-1.9-5.1-3.5-5.5-3.5s-1.1 1.7-1.5 3.7"/></svg>