<svg xmlns="http://www.w3.org/2000/svg" width="682.667" height="512" version="1.0" viewBox="0 0 512 384"><path d="M0 192v192h69.1c65.4 0 69.1-.1 68.4-1.8-.4-.9-1.4-3.6-2.2-5.9-2.6-7.6-5.4-9.4-20.7-13.4-2.9-.7-6.6-2.8-9.3-5.1-3.5-3-5.3-3.8-8.2-3.8-8.7 0-13.2-1.2-14.2-3.7-.5-1.3-2.3-3.2-4-4.1-1.8-.9-4.3-2.7-5.7-3.8l-2.6-2.1 6.3-6.6c6.1-6.4 6.9-7.7 7-12.5.2-6.1 15-16.6 28.4-20.2 9.4-2.5 33-11.7 43.2-16.7 11-5.5 17.9-11 33.7-27l14.8-14.8-6-9.5c-7-10.9-7-11.5-4-29 4.2-24.2 5-30.6 4.4-37.5-.9-11.6-.8-11.4-5.6-10.9-2.4.2-3.7.1-3-.2s1.7-1.5 2.3-2.6c.9-1.7.8-1.9-1.8-1.7-5.4.4-6.7 0-5.4-1.5 1.5-1.8 0-2.9-2.6-1.9-1 .3-3.3 1.9-5.1 3.5-1.8 1.5-4.5 3-6 3.4-11.3 2.5-11.1 2.4-13.1 11.4-1.8 8.8-8.1 14-17 14-4.4 0-7.1 2-7.1 5.3 0 1.2-.5 3.9-1.1 5.9-1.3 5-4.9 6.8-13.4 6.8h-6.7l.4 4.7.3 4.8-4.5-.2c-2.5-.1-5.3-.3-6.3-.3-3.7-.2-9.1-12.6-11.3-26-1.8-11.1-1.8-30.6.1-41.1.8-4.6 3-13 4.9-18.6 1.9-5.8 3-10.5 2.5-10.8-.5-.4-.9-1.1-.9-1.8 0-.8.3-.8 1.2.1 1 1 2.2-.7 5.6-7.5 4.1-8.3 11.3-19.6 18.3-28.9l3.1-4.2L119 61c-3.9-4-6.9-7.4-6.6-7.7s3.1 1.4 6.1 3.8c3.1 2.4 6.7 5.3 8 6.3l2.4 1.9 6.1-5.6c12.1-11.3 25.5-20.5 40.8-28.1 21.3-10.7 47.5-14.7 72.4-11.2 8.3 1.2 10.3 1.9 13.8 4.6 4.7 3.7 4.9 4.3 1.5 3.4-2.9-.7-3-.5-1 4.3 1.8 4.3 1.9 9.7.3 11.1-.7.5-3.3 1.4-5.8 1.9l-4.5.9V54c0 9.2-2.5 13.4-8.9 15.1-2.3.5-4.9 1.3-5.9 1.5-2.3.7-3.9 4.7-2.9 7.3.4 1.1 2.9 3.8 5.6 6.2 3.5 3.1 5.8 6.3 8.2 11.7 4.8 10.6 4.5 14.1-1.9 20.9-3.5 3.7-5.1 4.2-4.2 1.3s-.2-2.4-1.8.7c-2 4-3.9 14.7-3.2 18 .6 2.6.5 2.7-.8 1-1.4-1.6-1.7-1.5-4.5 2l-3.1 3.8.6-4 .6-3.9-3.4 3.2c-2.6 2.5-3.5 2.8-3.7 1.6-.2-.9-1-1.3-1.9-1-.8.3-1.7.6-1.9.6-.7 0-.4 4 .4 4.1.4.1 2 .2 3.6.3 1.8.1 3.4 1 4 2.1s4.9 5.6 9.6 10c15.2 14.2 18.8 18.1 19.5 21.4.8 4 16.3 18.1 19.8 18.1 1.4 0 4.2 1.8 6.9 4.2 2.5 2.4 5.7 5.1 7.2 6.1 1.5 1.1 2.5 2.5 2.2 3.3-.8 2.1 4.4 5.6 7.4 4.9 4.4-1.1 6-3.4 6-8.7 0-5.1-1.1-6.8-7.5-11.4-6.1-4.3.5-7.5 7.3-3.4 9.2 5.6 10.6 18.8 2.8 26.6-4.7 4.7-9.7 5.4-15.8 2.2-4.7-2.5-4.7-2.5-6.5-.6-1 1.1-3.5 2.9-5.5 3.9-2.1 1.1-4.2 2.8-4.8 3.9s-1.8 2-2.7 2-2.6.9-3.7 1.9c-1.3 1.2-4.5 2.3-8.1 2.8l-6 .8.1 5c.1 5.3 1.7 23.7 3.5 39.5.5 5.2.9 20.7.8 34.5-.1 22.9.1 25.9 2.2 35 1.7 7.5 2.3 13.2 2.3 22.7l.1 12.8H512V228.4c0-86.5-.4-155.3-.9-155-1 .7-6.1-1.6-6.1-2.8 0-.5 1.6-.6 3.5-.3l3.5.6V0H0zM333.4 19.9c1 1.6-2 4.1-5.4 4.3-2.4.2-3.5-.1-3.5-1.1 0-.7 1.6-1.9 3.5-2.6 4.5-1.6 4.8-1.7 5.4-.6m44.3 11.3c2.7 2.5 3.1 7.5.7 8.5-1.9.7-6.4-3.4-6.4-5.8 0-2.6 1.1-4.9 2.3-4.9.6 0 2.1 1 3.4 2.2m51.6 9c2.3 1.1 3.7 2.3 3 2.5-1.3.5-6.8-2.2-7.8-3.7-.9-1.5.1-1.2 4.8 1.2m-346 9.5c-.7.2-1.9.2-2.5 0-.7-.3-.2-.5 1.2-.5s1.9.2 1.3.5m7 0c-.7.2-1.9.2-2.5 0-.7-.3-.2-.5 1.2-.5s1.9.2 1.3.5m317.4 18.5c2.1 6 3.8 14.8 2.9 14.8-1.3 0-6.6-10.3-7.5-14.7-2.1-10.4 1.1-10.5 4.6-.1M63.9 72.9c3.8 2.7 3.5 3.8-1 4.4-7.6 1-15.3-4.6-8.9-6.4 3.3-1 6.9-.2 9.9 2M86.1 71c2.5 1.4 2.5 3-.1 2.3-2.4-.6-4.9-3.3-3.1-3.3.7 0 2.1.5 3.2 1M336 74.6c0 .8-6.7 3.4-9 3.4-3.1 0-2.4-1.6 1.3-2.8 3.6-1.1 7.7-1.5 7.7-.6m-10.1 19.8c1.3.7 1.9 1.6 1.4 1.9-1.3.8-7.5-.9-9.8-2.9-1.9-1.4-1.8-1.5 2-.9 2.2.4 5 1.2 6.4 1.9M64 111c-3.3 1.1-6.9 1.2-5.3.2.7-.4 2.7-.8 4.5-.9 3-.1 3.1-.1.8.7m231.5 4c.9 1 1.7 3.2 1.7 4.7s.5 3.2 1.2 3.6c.6.4-.1.6-1.7.5-3.6-.4-6.3-4.4-5.3-8.2.8-3.1 1.7-3.3 4.1-.6M256 129.4c0 1.8-.6 4.1-1.4 5.1-1.3 1.8-1.4 1.8-2.5-.3-.9-1.7-.8-2.9.4-5.7 1.7-4.2 3.5-3.8 3.5.9m118.8 8.9c.5 2.6-3.2 6.9-4.7 5.4-1.6-1.6-1.4-3.7.6-5.9 1.9-2.1 3.7-1.9 4.1.5M14.4 155.5c-2.9 2.2-4.2 1.7-1.5-.6 1.3-1.1 2.6-1.7 2.9-1.4s-.3 1.2-1.4 2m45.7-.5 2.4 1.9-3.2-1.2c-1.8-.6-3.3-1.5-3.3-1.9 0-1.4 1.7-.9 4.1 1.2m129.2 30.8c-4.5 6-5.9 2.9-1.6-3.3 2.6-3.8 2.8-3.9 3.1-1.6.2 1.3-.5 3.5-1.5 4.9m-176.7-4.6c1 1.6-3.4 5-6 4.6-3-.4-3.3-3.6-.4-4.7 3.2-1.3 5.6-1.3 6.4.1m302.9.5c1.9.9 3.5 2 3.5 2.5 0 1.7-4.9 1.9-7.9.4-3.3-1.7-3.9-3.1-1.8-3.9 2-.9 2.5-.8 6.2 1M55.9 232.8c3.4 2.5 3.1 3.7-.9 4-3.7.3-9.9-3-10.8-5.7-.7-2 8.5-.7 11.7 1.7m320 19.8c1 .9-3.5.3-4.9-.6-1.1-.8-.7-.9 1.5-.4 1.7.4 3.2.8 3.4 1M365 288c5.3 4.3 2.8 4.8-2.7.4-7-5.6-7-5.5-3.8-4.4 1.7.6 4.6 2.4 6.5 4m129.1 10.2c4.5 2.5 6.5 7 5 11.2-1.2 3.1-2.2 3.3-4.6.6-1-1.1-2.6-2.2-3.6-2.5-2.3-.8-4.9-5.5-4.9-9q0-4.8 8.1-.3m-169.6 20.6c2.7 1.5 4.9 3.1 4.8 3.7 0 .5-1.8 1.6-3.9 2.3-4.2 1.4-7.4.6-12.6-3.2-3.6-2.6-3.5-3.3.5-4.5 4.9-1.4 5.8-1.3 11.2 1.7M88.8 366c1 1.7.9 2.5-.4 4.6-.9 1.3-2.4 2.4-3.3 2.3s-2.9.3-4.4.9c-3.2 1.4-6.7 1.6-6.7.4 0-2 3.6-5.4 7.8-7.7 5.8-3 5.4-2.9 7-.5m277.7 8c5.3 5.2 4.9 6-3.9 7.5-3.2.5-4.3.2-6.3-1.7-2.9-2.7-5.6-7.5-4.9-8.6.3-.5 3-.8 6-.7 4.9 0 6 .5 9.1 3.5"/><path d="M256.6 189.7c-.3.3-.6 1.7-.6 3s-1.1 5.1-2.5 8.5c-3.5 8.7-3.4 9.2 1.8 8.3 2.3-.4 5.3-.9 6.7-1.1 1.4-.1 2.8-.3 3.2-.3.7-.1 2.8-6.6 2.8-8.7 0-1.5-10.6-10.5-11.4-9.7"/></svg>