<svg xmlns="http://www.w3.org/2000/svg" width="682.667" height="512" version="1.0" viewBox="0 0 512 384"><path d="M0 113.3v113.4l2.8 1.3 2.7 1.4-2.7.4-2.8.3V384h68.3c44.9-.1 67.6-.4 66.5-1-.9-.6-2.2-2.7-2.9-4.8-4.1-12.9-4.9-14.2-9.7-16.6-2.6-1.2-7.7-3.3-11.4-4.6-5.1-1.8-7.5-3.3-9.8-6.1-2.5-3.1-3.8-3.9-7.7-4.4-9.5-1.2-12-2.2-12.6-5.5-.5-2.1-1.7-3.5-4.7-5-2.2-1.1-4-2.6-4-3.3 0-1.5 3.4-4.8 9.3-9.1 2.9-2.1 3.6-3.2 3.1-4.9-.7-3.1 1-7.3 4.3-10.3 4.3-4 15.5-9.2 25.6-11.9 5.1-1.4 18.1-5.6 28.9-9.4 27.5-9.5 33.2-13.3 61-40 7.1-6.8 12.6-12.7 12.3-13.1s-4.9-2.7-10.4-5c-8.2-3.4-10.1-4.6-11.1-7.1-2.2-5.1-.7-17 3.9-30.9l4.1-12.5-2.1-5c-3.2-7.3-2.8-13.4 1.6-23.9.7-1.6.5-1.8-.8-1.3-.9.3-1.7.2-1.7-.4s-.9-.8-2.1-.4c-1.8.6-2 .4-1.4-1.6.6-1.9.5-2.1-1.1-1.4-4.6 2-10.3-.8-8.9-4.3.3-.9 0-1.2-.8-.9-2.1.8-4-2.9-2.7-5.4.6-1.1 1-2.7.8-3.7-.1-.9.1-2.4.6-3.2s-.2-.5-1.6.7c-1.3 1.3-2.8 2.3-3.2 2.3-.5 0-2.7 2-5 4.4-5.1 5.5-9.8 6.7-16.7 4.3-6.2-2.2-8.6-2.1-9.4.3-.4 1.1-1.8 3.4-3.2 5-3.3 3.9-8.6 4.1-14.4.5-4.2-2.7-5.9-2.6-5.9.4 0 .9-.6 2.5-1.3 3.5-1.2 1.7-1.6 1.5-5.5-2.9-3-3.4-4.2-5.7-4.2-7.9 0-6.6 3.1-23.1 5.9-31.4 2.5-7.5 2.7-8.9 1.5-10.3-2.6-3-1.7-5.8 2.5-7.5 2.2-.8 4.4-2.7 5.2-4.2 6.6-13.1 23.1-31.9 37.9-43.2 8.9-6.7 21.9-15 23.7-15 .7 0 1.3-.7 1.3-1.5 0-.9.9-1.5 2.5-1.5 1.5 0 3.8-.6 5.4-1.4 4.7-2.5 21.1-7.6 31.5-9.8 13.1-2.8 38.2-3.1 49.4-.5 13.3 3 23.5 6.7 34.7 12.5 9.9 5.1 11.2 6.1 13.3 10.2 3.2 6.5 3 8.1-1.2 7.6-3.6-.5-4.6.8-4.6 6.4 0 1.4-.9 4-2 5.8-2 3.3-2.2 3.3-8.2 3.1l-6.2-.3-2.3 6c-1.3 3.2-3.7 7.2-5.3 8.9-2.8 2.8-3.6 3-10.3 3.1-3.9 0-7.7.1-8.3.2s-2.1 2.3-3.2 4.9c-1.1 2.7-3.7 6.6-5.7 8.8-2.9 3.1-3.5 4.5-3.1 6.6.3 1.9-.1 3.2-1.5 4.5-2.3 2.1-4.1.9-4.4-2.8-.1-2-.8-2.3-4.8-2.6-2.6-.2-4.7-.1-4.7.2 0 .2.9 2.5 2 5.1 3.5 8.1 2.5 13.2-3.7 19-4 3.8-6.6 4.6-5.6 1.7.4-1.2.3-1.4-.6-.6-.6.6-1.5 2.4-2 4.1-1 3.3-.6 4.1 9.8 23.8 5.2 9.7 11.5 21.7 21.9 41.5q5.1 9.45 7.8 11.1c1.8.9 3.6 3.4 4.9 6.5 1.1 2.7 2.8 6.1 3.9 7.7s1.6 3.6 1.2 4.9c-.7 2.8 3.8 7.8 7 7.8 3.1 0 6.2-3.5 7-7.9.6-2.8.1-4.7-2.1-8.9-2.6-4.9-2.7-5.4-1.2-7 1.6-1.5 1.9-1.4 4.6 1.2 10.7 10.2 6.3 26.4-7.8 29.1-3.3.6-8.7-2.1-11.6-5.9l-2.6-3.4-5.2 2c-2.9 1.1-5.6 2.6-6 3.4s-1.5 1.4-2.4 1.4-2.4.7-3.3 1.5c-1 .9-3.7 1.9-6.1 2.3-4.1.7-4.4 1-4.1 3.7.1 1.7.5 3.7.9 4.5.3.8.5 3.1.4 5s.7 13.1 1.9 24.9c2.2 23.5 2.5 41.8 1 55.3-.9 8-.8 9.5 1.6 18.5 2 7.5 2.8 13.1 3.1 23.5l.6 13.8H512V0H0zM341.6 10.9c3.4 2.1 5.1 5.9 2.9 6.7-1.7.7-7.4-2.3-8.2-4.2-.6-1.6.3-4.4 1.4-4.4.4 0 2.2.9 3.9 1.9M387.5 30c1 1.1 1.6 2 1.3 2s-1.3-.9-2.3-2-1.6-2-1.3-2 1.3.9 2.3 2M36.1 38.9l2.4 1.9-2.8.7c-3.1.8-11.4.1-12.5-1-.4-.3.2-1.3 1.2-2.1 2.8-2 8.9-1.8 11.7.5M462.8 45c1.8 1.1 3.1 2.4 2.7 2.9-1 1.7-10.3 2.4-13.5.9-3.7-1.6-3.8-2.3-.2-4.2 3.7-2.1 7.1-1.9 11 .4M42 49.9c0 .5-.7 1.2-1.6 1.5-2.8 1.1-5.4.6-5.4-.9 0-1 1.1-1.5 3.5-1.5 1.9 0 3.5.4 3.5.9m4 6.1c0 .5-.9 1-1.9 1-1.1 0-2.3-.5-2.6-1-.4-.6.5-1 1.9-1s2.6.4 2.6 1m285.9 6.4c1.7 3.6 3.6 7.8 4.1 9.3l1 2.8-2.5-3c-3.1-3.8-7.8-15.5-6.1-15.5.2 0 1.8 2.9 3.5 6.4m131.7 1.1c1.9 1.4 1.9 1.4-.3 1.5-2.8 0-5.3-1-5.3-2.1 0-1.4 3.4-1.1 5.6.6m9.1 8.4c1.5 2.2 2.3 4.9 2.3 7.5v4.1l-2.1-2.5c-2.6-3.3-4.5-6.9-5.3-10.3-.6-2.4-.4-2.8 1.1-2.5.9.2 2.8 1.8 4 3.7M25.5 94.4c-1.1.7-3.6 1.7-5.5 2-1.9.4-4.4 1-5.5 1.2-2 .5-2 .5 0-.7 2.2-1.4 9.2-3.7 11.5-3.8 1-.1.8.3-.5 1.3m38.3 8.8c1.9 1.9 1.4 2.9-.8 1.6-2-1.3-2.7-2.8-1.2-2.8.4 0 1.3.5 2 1.2M79.5 115c-.3.5-1.1 1-1.6 1-.6 0-.7-.5-.4-1 .3-.6 1.1-1 1.6-1 .6 0 .7.4.4 1m254.5 2.4c0 1.4-4.1 4.6-6 4.6-1.2 0 .6-4 2.4-5.2s3.6-.9 3.6.6m-230.4 27.1c-.7 3.4-3.9 6.4-5 4.6-1.1-1.7.7-7.2 2.8-8.7 2.5-1.7 3.1-.7 2.2 4.1m63.9-.5c.4.6-.6 1-2.2 1-2.2 0-2.5-.2-1.3-1 1.9-1.2 2.7-1.2 3.5 0m4.5 13.3c0 .7-.7 2.3-1.6 3.5-.8 1.2-1.2 2.6-.9 3.2.8 1.3-4.4 2.5-5.7 1.2-.7-.7.2-2.3 2.7-5.1 3.8-4.2 5.5-5.1 5.5-2.8m282.4 7.3c1 .4 1.6 1.8 1.6 4 0 3.1-.3 3.4-4.1 4.4-3.3.9-4.4.9-5-.2-1-1.6-1.2-7.2-.2-8.1.8-.9 5.6-.9 7.7-.1m-176.6 4.6c2.9 2.8 2.8 3.8-.6 3.8-3 0-8.9-5-7.5-6.4 1.1-1.1 5.6.3 8.1 2.6m-109.9 26.2c3.5 1.9 1 2.9-5.1 2.1-4.7-.7-5-.9-3.3-2.1 2.3-1.7 5.3-1.7 8.4 0m-52.1 6.3c.5 1.8-1 1.6-3.4-.2-1.8-1.5-1.8-1.5.5-1.3 1.4.2 2.6.9 2.9 1.5M496 256.6c0 .3-1.7 2.7-3.8 5.3-2.2 2.5-4.4 5.5-5.1 6.6-1 1.7-1.2 1.7-.7.2.3-1 .6-2.5.6-3.3 0-1.6 6.7-9.4 8.1-9.4.5 0 .9.3.9.6m-332.6 6.3c.3.5-.7 1.1-2.2 1.4s-3.6.9-4.6 1.3c-1.4.5-1.7.4-1.2-.5 1.5-2.3 7-3.9 8-2.2m129.9 9.3c2.9 1.5 4.8 4.1 3.7 5.2s-7-3.1-7-5c0-1.7.5-1.7 3.3-.2m119 8.8c2.4 2.7 3.6 6 2.1 6-.3 0-2.9-1.1-5.8-2.5-5.7-2.7-10.2-6.8-9.2-8.4 1.1-1.7 9.9 1.6 12.9 4.9M58.1 310.6c2.3 2.6 3.4 6.4 1.8 6.4-1.7 0-7.7-4.7-9-7.1-.6-1.1-.8-2.7-.5-3.5.5-1.3 1-1.2 3.3.4 1.6 1.1 3.5 2.8 4.4 3.8m411.9.9 2.3 2.5h-2.8c-2.7 0-6.5-2.4-6.5-4.2s4.8-.7 7 1.7M47.8 349.2c-.2.6-1.6 2-3 3.1-3 2.2-11.8 3.6-11.8 1.9s4.7-4.4 8.8-5.3c5.6-1 6.4-1 6 .3m247.8 4.9c4.3 2.6 4.3 4.6-.1 6.5-5.1 2.1-8.9 1.8-12.4-1.2-3.9-3.3-3.9-4.7.2-6.1 5.2-1.7 8.7-1.4 12.3.8M80.1 364.8c-1.3 2.4-5 5.6-5.7 5-.8-.9 1.8-4.6 4.1-5.7 2.7-1.3 2.7-1.3 1.6.7m44.7 8.3c.3 1.7-3.5 3.9-5.5 3.2-1.6-.6-1.7-2.5-.1-4.1 1.7-1.7 5.2-1.1 5.6.9"/><path d="M240.6 132.5c-.3.9-.6 2.9-.6 4.3-.1 2.5-.2 2.6-1.4.9-.9-1.2-1.6-1.4-2.1-.7-.3.5-1.1.8-1.6.5-.5-.4-1 .4-1 1.7q-.15 2.4-.6.6c-.4-1.4-.8-1.5-2.3-.6-1.4.9-2.5.9-4.3.1-2.1-1-2.6-.9-3.5 1.2-1.3 2.8.7 5.1 3.4 4.1 1.1-.4 3.5 1.3 7.7 5.5 3.4 3.4 10.3 9.5 15.4 13.6 14.8 12 15.5 14.3 9.4 30.9-5.5 14.8-5.4 15.4.8 15.4 2.7 0 5.5.2 6.3.5s2.5-1.7 4.5-5.4l3.3-5.9-8.1-16.8c-4.5-9.3-9.8-20.5-11.9-24.9-12.2-25.6-12.7-26.6-13.4-25"/></svg>