<svg xmlns="http://www.w3.org/2000/svg" width="682.667" height="512" version="1.0" viewBox="0 0 512 384"><path d="M0 3.6c0 2.1.4 3.3 1 2.9 1.6-1 7 .5 7 2S5.8 11 2.4 11H0v17c0 10.7.4 17 1 17s1 .7 1 1.5S1.6 48 1 48s-1 2.8-1 6.5C0 60.6.2 61 2.3 61l2.2.1-2.2 1.8L0 64.8V384h140.7l-2.6-7.7c-3.7-11.1-6-13-25.1-21.6-5.2-2.4-9.2-5.1-13-8.9-4.1-4.2-6.7-5.9-10-6.7-6.3-1.6-7.5-2.4-7.8-5.5-.2-1.7-1.3-3.1-3.4-4.2-2.8-1.5-2.9-1.6-1.3-3.4 1-1.1 4.4-3.1 7.6-4.6 5.8-2.7 6.8-3.7 4.9-4.9-1.7-1-1.1-5 1-7.3 3.3-3.5 8.4-5.7 27-11.2 41.8-12.4 47.6-14.6 61-24.1 7.3-5.2 35.2-31.6 39.2-37.2l2-2.7-2.6-3c-1.3-1.6-2.7-3.9-3.1-4.9-.4-1.4-1.9-2.1-5.5-2.6l-4.9-.7 3.6-4.6 3.5-4.6-.7-8c-1.4-16.8-2.2-20.3-5.7-25.3-3.8-5.6-6.8-12.7-6.8-16.4 0-3.5 2.1-8.4 6.1-13.9 1.8-2.5 2.3-3.7 1.2-2.7-2.2 1.9-3.8 2.3-2.7.5.5-.8 0-.9-1.4-.6-1.2.4-2.2.2-2.2-.3s-1.1-.7-2.5-.5c-1.4.3-2.5 0-2.5-.6 0-.5-.7-.8-1.5-.4-1.1.4-1.5-.2-1.5-2.3 0-2.7-.3-2.9-3.4-2.7-3.4.3-3.4.3-1.9-2 .8-1.3 1.3-2.4.9-2.4-.3 0 .6-1.6 1.9-3.6 3-4.4 3.3-6.9.4-3.4-1.2 1.4-2.6 2.5-3.1 2.5s-1.6 1.1-2.4 2.5l-1.5 2.5.5-2.5c.3-1.4.6-3 .6-3.5 0-.6 2-4.1 4.3-7.7 2.4-3.6 4.9-8.1 5.6-10 .7-1.8 1.9-4.8 2.7-6.6 1.2-2.7 1.2-3.2 0-3.2-.8 0-2.8-1.1-4.4-2.5-1.9-1.5-3.3-2.1-3.7-1.5-.9 1.5-3.5 1.2-4.2-.5-.3-.9.3-2.5 1.3-3.6 1.6-1.8 1.6-2.1.2-3.5s-1.8-1.4-4.6 0c-2.7 1.4-3.2 1.4-4.6.1-.8-.8-2-4-2.7-7-1.2-5.3-1.1-5.5 2.6-12.7 6.3-12.3 15.4-22.2 30.5-33 19.8-14.2 45.5-23.1 70.5-24.4 5.5-.3 12.1-1 14.7-1.5 3.1-.7 5.3-.7 6.5-.1 1 .6 5.7 1.5 10.3 2.1 41.9 5.5 74.6 24.9 96.1 56.9 6.1 9.1 6.9 10.8 6.9 15 0 6.6-.9 9.2-3.1 9.2-1.1 0-1.9-.5-1.9-1.1 0-.7-1.1.5-2.5 2.5s-2.5 4.1-2.5 4.6c0 1.1-5.8 6-7.1 6-.6 0-2.7-1.1-4.7-2.5s-4.1-2.5-4.7-2.5-3.4 2.2-6.3 4.9c-6.9 6.5-12.3 7.6-18 3.9-6.4-4.2-7-4.2-13.6.1-10.6 6.8-15.2 7.1-25.5 1.3-5.8-3.3-6.4-3.2-12.9.9-3 1.9-6.4 3-10.7 3.4l-6.4.7-.5 6.2c-1 11.5-2.8 57.7-2.2 58.3.3.3 1.2-.2 2.1-1.1s2-1.4 2.5-1.1c1 .6.2 4.3-1.1 5.1-.5.3-.9 1.2-.9 2.1s-.7 2.1-1.5 2.7c-2.4 1.8-3.2 15.4-1.1 19.3.9 1.8 1.6 4.6 1.6 6.3 0 1.6.5 3 1 3 .6 0 1 .4 1 1 0 .5-.6.9-1.3.7-.8-.1-1.2 1.4-1.2 5 0 2.8-.6 5.7-1.2 6.4-.7.7-1.3 2.8-1.3 4.5 0 3.9 3.8 7.4 8 7.4 3.5 0 8-4.4 8.1-7.9.3-10.5 1.1-12.7 4.2-11.5 1.7.6 3.7 6.1 3.7 10.2 0 6.3-5.8 13.2-13.1 15.3-3.4 1.1-4.6 1-8.6-.7-5.6-2.3-8.3-5.7-9-11.3-.5-3.3-1.1-4.5-2.9-5.2-3.2-1.1-10.9.4-13.7 2.7-1.2 1-2.3 1.9-2.5 2-.1.1.4 4.3 1.3 9.5.8 5.2 2.1 15.5 3 22.9.8 7.4 2.1 19.3 3 26.5.8 7.1 2.2 25.4 3 40.5.9 15.1 1.8 28.4 2 29.5s.4 5.5.4 9.7l.1 7.8h238V264.7l-2.1 1.9c-2 1.8-2.1 1.8-3.5-.1-.8-1-1.4-3-1.4-4.3 0-3.2 3.8-8.5 5.6-7.8 1.2.4 1.4-2.5 1.4-17.5v-18.1l-2.5-2c-3.2-2.5-3.2-4 0-3.2l2.5.6V0H302.9l1.2 2.1c1.1 2.1 1 2.2-2.1 1.5-1.8-.3-4.1-.6-5.1-.6-1.1 0-1.9-.7-1.9-1.5C295 .2 277.9 0 147.5 0H0zm351 14.6c1.1 1.8 2 3.7 2 4.2 0 1.4-3-1.6-4.6-4.6-2-3.9.2-3.6 2.6.4m32.9 8.9c1.7.6 3.1 1.4 3.1 1.9 0 .4-2.2 1.7-5 2.8-4 1.7-5.6 1.9-8.5 1.1-4.5-1.3-4.4-2.4.3-4.8 4.3-2.3 5.8-2.5 10.1-1M124.2 39c-.3 2.8-3.5 6-6.2 6-1.6 0-3-2.6-3-5.8 0-1.6 3.7-3.2 7-2.9 2 .2 2.5.7 2.2 2.7M6.5 39c.8 1.3-2 2.4-4.2 1.6C.8 40 .8 39.8 2 39c2-1.3 3.7-1.2 4.5 0m415 15.1c1 1.8 1.5 4.7 1.3 7.2l-.4 4.2-1.6-3.5c-3.6-8-3-15.1.7-7.9m40.5.8c-1.1 2.1-3 3.7-3 2.5 0-.8 3-4.4 3.7-4.4.2 0-.1.9-.7 1.9m-324 3.3c-.1.7-.7 2.4-1.5 3.8-1.1 2.1-1.5 2.2-2 .8-.7-1.8 1-5.8 2.5-5.8.6 0 1 .6 1 1.2m276.3-.5c-.7.2-2.1.2-3 0-1-.3-.4-.5 1.2-.5 1.7 0 2.4.2 1.8.5m-240.5 6c.5 1.8-1 1.6-3.4-.2-1.8-1.5-1.8-1.5.5-1.3 1.4.2 2.6.9 2.9 1.5M32.1 97.6c.7.8.9 1.7.6 2.1-.8.7-5.7-2.4-5.7-3.6 0-1.3 3.7-.2 5.1 1.5m3.4 18.4c.3.5-.3 1-1.4 1-1.2 0-2.1-.5-2.1-1 0-.6.6-1 1.4-1s1.8.4 2.1 1m351 22.2c5.8 2.6.7 9.3-5.5 7.1-2-.7-2.4-1.4-2.1-3.8.1-1.7.5-3.3.8-3.8.6-1.1 3.9-.9 6.8.5m-239 3.8c-1.7 1.9-6.2 3.2-7 2-.6-1 2-3.2 5.4-4.6 3.1-1.3 4 0 1.6 2.6m-98.6 9.5c-1.2 1.9-2.7 3.5-3.5 3.5-1.8 0-1.8-.4.1-4 .9-1.8 2.4-3 3.5-3 1.9 0 1.9.1-.1 3.5m36.6 7.6c1.2 1.9-.5 2.3-2.2.6-1.6-1.6-1.6-1.7-.1-1.7.9 0 2 .5 2.3 1.1m47.1 14.9c1.5.6 2.4 1.3 2.1 1.6-.9 1-9.7-.6-9.7-1.7 0-1.2 4.2-1.2 7.6.1M426 236.5c0 1.3-3 6.2-4.4 7.4-2.3 2-2.1-.6.4-4.7 1.7-2.8 4-4.3 4-2.7m-274 22c0 .8-7.3 3.6-8.4 3.2-1.4-.5 4.3-3.6 6.7-3.7.9 0 1.7.2 1.7.5m-36.5 2.5c-1.1.5-2.7.9-3.5.9-.9 0-.8-.4.5-.9 1.1-.5 2.7-.9 3.5-.9.9 0 .8.4-.5.9m208.5 3c4.3 2.2 5.9 4 3.6 4-2.2 0-12.6-4.3-12.6-5.3 0-1.4 5.1-.7 9 1.3m157 7.5c0 .8 0 1.8.1 2.2 0 .4-.4.9-1 1.1s-1.1-.8-1.1-2.2.5-2.6 1-2.6c.6 0 1 .7 1 1.5M20.7 290c3.2 1.9 7 6.6 6.1 7.5-1.2 1.2-7.9-2.8-9.3-5.5-2.4-4.7-1.9-5.1 3.2-2m393.7 17.9c1.9 2 1.4 4.1-.8 4.1-.7 0-2.1-.9-3.2-2.1-1.6-1.7-1.6-2.2-.4-2.9 2.1-1.3 2.5-1.3 4.4.9M26 315c0 1.7-3.7 3-8.4 3-4.8 0-7.1-1.6-3.4-2.4 1.3-.3 3.2-.7 4.3-.9 3.8-.8 7.5-.7 7.5.3m70 30.4c0 .2.3 1.1.6 1.9.7 1.8-3.5 3-5.3 1.5-1-.8-1-1.4-.2-2.4 1-1.3 4.9-2 4.9-1M79.5 364c-.3.5-1.1 1-1.6 1-.6 0-.7-.5-.4-1 .3-.6 1.1-1 1.6-1 .6 0 .7.4.4 1m-55.5.9c0 1.4-9.1 9.1-10.7 9.1-2.6 0 1.8-6.3 5.7-8.2 4-2 5-2.2 5-.9"/><path d="M269.8 112.5c-2.6 1.4-5.6 2.6-6.8 2.8-1.1.2-3.3 1.6-4.9 3.1-1.6 1.6-3.4 2.6-3.9 2.2-.5-.3-2.2.8-3.7 2.4-2.9 3-4.9 3.2-3.8.3.4-1.1.3-1.4-.6-.9-.7.5-1.1 2-1 3.4.2 1.8-.6 3.7-2.4 5.6-2 2.1-2.7 3.9-2.7 7-.1 3.6-.2 3.9-1.4 2.3-1.5-1.9-4.6-1.4-4.6.8 0 1-.5 1.1-2.5.2-1.4-.7-2.5-1.8-2.5-2.5 0-.8-.6-1.2-1.2-1-.7.3-1.3 1.6-1.3 2.9 0 1.8.8 2.7 3 3.4 3.3 1.1 5.5 2.7 14.4 10.4 3.1 2.6 8.5 7.3 12.1 10.3 5.9 4.9 10.2 10 11.3 13.1.2.8 1 .7 2.8-.4 2.8-1.9 9-3.4 8.8-2.2-.1.4-.1 2.3 0 4 .1 3.5 2.1 4.7 2.1 1.3 0-1.1.5-2 1-2 1.3 0 1.3-4.7.1-5.5-.6-.3-.4-1.8.4-3.8 1.4-3.5 4.3-51.2 3.2-54-.8-2.2-6.6-5.7-9.2-5.6-1.1 0-4.1 1.1-6.7 2.4m-1.8 83.9c0 .9-2 3.5-4.5 5.9-5.6 5.5-5.8 8.1-.9 10.2 4.8 2 6.7 1.9 8.1-.4.7-1.1 2.9-2.5 5-3.1 4.6-1.5 6.3-3.4 6.3-7.2 0-3.1-1.6-4.2-7.3-5.2-2.1-.4-4.5-1-5.3-1.3s-1.4.1-1.4 1.1"/></svg>