<svg xmlns="http://www.w3.org/2000/svg" width="682.667" height="512" version="1.0" viewBox="0 0 512 384"><path d="M0 185.3v185.2l2.5-3.1c2.4-3.1 8-6.2 9.1-5.1 1 .9-6.7 8.7-9.2 9.3-2.2.6-2.4 1.1-2.4 6.5v5.9h148.1l-.6-2.3c-2.6-8.6-8.8-14-23.2-20.2-12.3-5.2-14-6.3-18.8-12-4.5-5.2-8.2-7.6-13.8-9-2.2-.6-2.6-.4-2.1.9s0 1.6-2.4 1.6c-3.4 0-5.2-1.8-3.2-3 .7-.4 1.3-2.4 1.4-4.4.1-3-.4-3.8-3.1-5.3-2.9-1.6-3.1-1.9-1.7-3.4.8-.9 4.2-2.9 7.5-4.3 3.2-1.5 5.9-2.9 5.9-3.1s-.5-1.6-1.2-3c-2.5-5.5 3.7-10.3 19.2-14.8 31-9.1 46.8-14.6 55.8-19.1 11.6-5.9 38.1-29 48.1-42l4.1-5.3-3.7-5.7c-3.3-4.9-4.1-5.6-7-5.6-1.8 0-3.3-.3-3.3-.6s1.2-2.1 2.7-4l2.6-3.5-1.5-15.5c-1.5-15-1.7-15.6-5.2-20.7-3.8-5.6-6.6-12.5-6.6-16.4 0-2.7 4.1-11.3 6.4-13.2.8-.7 1.2-1.9.9-2.7-.5-1.3-.8-1.2-2.4.2-1.8 1.6-1.9 1.6-1.9-.1 0-1.5-.2-1.6-1.7-.4-1.3 1.1-1.7 1.1-2 .1-.3-.6-1.3-1.2-2.4-1.2-1 0-1.9-.5-1.9-1.1 0-.5-.4-.8-.8-.5-.5.3-1.9-.6-3.1-2-1.3-1.5-2.9-2.3-3.7-2-1.2.5-1.2.2-.2-1.7.7-1.2 1.3-3.7 1.3-5.6l.2-3.4-2.5 2.9c-2.5 2.9-2.5 2.9-1.9.4.4-1.4.7-3 .7-3.5 0-.6 2-3.5 4.5-6.5s5-7.1 5.6-9c.7-1.9 2.2-5.8 3.5-8.7 2.9-6.3 3-7.9.4-12.1-1.4-2.3-2.6-3.2-3.8-2.8-6.3 1.9-6.9 1.8-8-1.1-1.1-2.8-1.8-5.6-2.6-10.5-.3-1.5.7-5.6 2.1-9.2 2-5.3 4-8 10.3-14.4 10.8-10.8 26.5-21.5 39.3-26.8 3.4-1.4 7.7-4.1 9.6-6 3.7-3.7 6.2-4.5 5.4-1.6-.4 1.8.1 1.8 9.9-.5 8.4-2 13.7-2.6 28.7-2.9 10.1-.2 18.7-.6 18.9-.9.9-.9 4.2-.6 4.2.4 0 .5 4.2 1.6 9.3 2.6 41.9 8 74 30.2 94.2 65.3l4.8 8.3-.9 6.7c-.8 5.7-1.2 6.7-2.9 6.7-1.1 0-2.4 1-3 2.2-.5 1.3-1.3 2.3-1.7 2.3-.5 0-.8.5-.8 1.2 0 1.9-5.2 6.8-7.1 6.8-1 0-3.1-1.1-4.7-2.5-1.7-1.4-3.3-2.5-3.7-2.5-.3 0-3 2.2-5.8 4.8-2.9 2.7-6.9 5.3-9.2 6-3.8 1.1-4.3 1-9.8-2.4l-5.8-3.6-7.1 4.3c-9.7 5.7-14.8 5.9-23.3.6-3.3-2-6.4-3.7-6.8-3.7s-3.8 1.4-7.4 3.1c-7.3 3.4-13.1 4-18.2 1.9-1.7-.7-3.4-1.1-3.6-.8-.3.2-1.4 8.5-2.5 18.4-1.1 9.8-2.2 19.5-2.6 21.5-.5 3.5-.4 3.6 2.8 3.6 1.8 0 2.7-.2 2-.5-1.6-.5-.6-2.2 1.4-2.2 1.6 0 2 4.5.4 5.5-.5.3-1 1.5-1 2.6s-.7 2.2-1.5 2.5c-.8.4-1.5 1.3-1.5 2 0 .8-.9 2.7-2 4.2-2.4 3.4-3.7 9.1-4.6 20.9-.5 6.4-.3 9.7.5 10.6 1.5 1.9.3 19.3-1.5 20.8-.8.6-1.4 2.8-1.4 4.8 0 6.5 4.6 9.4 11.8 7.5 3-.8 5.2-5.3 5.2-10.3 0-5.2.8-7.1 3.1-7.1 2.5 0 3.9 3 3.9 8.5 0 15.3-18.5 22.2-28.3 10.6-1.5-1.8-2.7-4.5-2.7-5.9 0-4.8-1.1-7.1-3.9-8-3.7-1.3-9.7-.3-11.6 1.8-1.6 1.7-1.6 2.6-.1 12.2 1.5 9.8 4.3 31 10.6 82.8 1.6 12.9 3.4 26 3.9 29s1.3 8.9 1.6 13c.4 4.1.9 8.3 1.1 9.2.5 1.7 6.9 1.8 116 1.8H512V0H0zM291.3 10.6c4.3.8 5 2.4 1 2.4-3.8 0-7.3-1-7.3-2.1s1.2-1.1 6.3-.3m17.4 1.6c-.3.8-.6.5-.6-.6-.1-1.1.2-1.7.5-1.3.3.3.4 1.2.1 1.9m33.9 4c.8 1.6 1.3 3.3.9 3.6-1 1-4.5-3.7-4.5-6 0-2.5 1.6-1.5 3.6 2.4m-218.2 6.7c1.1 1.7-1.5 6.9-3.7 7.5-4.1 1.1-4.7.7-4.7-2.9 0-2.2.6-3.8 1.8-4.4 2.1-1.3 5.9-1.4 6.6-.2m241.4-.3c3.4.9 2.7 2.3-2.3 4.5-3.2 1.4-5.5 1.8-8 1.3-4.6-.8-4.5-2.8.3-4.7 4-1.7 6.5-2 10-1.1M132.9 51.8c-.6 1.8-1.5 3.2-2 3.2-1.3 0-1.1-3.7.3-6 1.8-2.9 3-.9 1.7 2.8m277 4.1-.1 4.6-1.3-3c-.7-1.7-1.6-4.8-2-7l-.6-4 2 2.4c1.5 1.7 2.1 3.6 2 7m36.6-4.5c-1 2-2.2 3.6-2.7 3.6s.1-1.8 1.3-4c2.7-4.8 3.7-4.5 1.4.4m-46.3 5.8c-.9.9-1.5.9-2.4 0s-.7-1.2 1.2-1.2 2.1.3 1.2 1.2M154.5 68c.3.5-.1 1-.9 1s-1.8-.5-2.1-1c-.3-.6.1-1 .9-1s1.8.4 2.1 1m24.1 27.6c-.8 2-2.4 1.7-3.1-.7-.4-1.3 0-2.8 1.2-4.1 1.8-2 1.8-2 2.1.7.2 1.5.1 3.3-.2 4.1m-154.7-.7c.7.5 1.2 1.4.9 2.1-.2.8-1.1.5-2.8-.9s-2-2-1-2.1c.8 0 2.1.4 2.9.9m-1.5 24c.3.4-.6.6-1.9.3-1.4-.2-2.5-.6-2.5-.8 0-.8 3.9-.4 4.4.5m348.1 12.7c2.6 1 3.5 2 3.1 3-.3.9-.6 2-.6 2.5s-2.2.9-5 .9c-4.6 0-5-.2-5-2.4 0-5.8 1.4-6.6 7.5-4M142 136.9c-1.2 2.3-1.6 2.6-5.2 3.5-3.8.9-3.6-1 .5-3.4 4.3-2.6 6.1-2.7 4.7-.1m-63.9 11.7c1.2 1.4 1.1 1.6-.5 1.3-1.1-.2-2.1-1-2.4-1.7-.5-1.7 1.3-1.5 2.9.4M37 150.3c0 1.7-2.9 5.7-4.1 5.7-1.4 0-1.1-1.8.7-4.5s3.4-3.3 3.4-1.2m88 18.7c1.1.8.2 1-3.3.8-2.7-.1-5-.5-5.3-1-.7-1.2 6.8-1 8.6.2m379.9 39.4c3.4 1.5 4.1 4.1 1 3.1-4.3-1.3-7.2-3-7.7-4.4s2-1 6.7 1.3M409 233.2c0 1.9-4.7 7.4-5.6 6.5-1.1-1.1 2.3-7.7 4.1-7.7.8 0 1.5.6 1.5 1.2m96.8 13.3c1.8 3.8 1.5 6.6-1 9.2-3 3.2-4.5 2.9-5.8-1.2-1.1-3.3-.9-3.8 1.7-6.9 1.5-1.9 3.1-3.5 3.4-3.5.3-.1 1.1 1 1.7 2.4m-359.3 1.4c-.6.5-3.5 1.9-6.5 3-4.3 1.7-5 1.8-3.5.5 3.7-3 12.7-6.1 10-3.5m-41.2 11.8c-.7.2-1.9.2-2.5 0-.7-.3-.2-.5 1.2-.5s1.9.2 1.3.5m198.6 1.5c2.5 1.2 3.9 2.4 3.2 2.6-1.7.6-12.1-2.9-12.1-4 0-1.5 4.4-.8 8.9 1.4m164.1 7.4c0 2.1-.4 3.3-1 2.9-1.7-1-1.1-6.5.7-6.5.2 0 .3 1.6.3 3.6M15.8 288.7c1.2 1.3 2.2 3.1 2.2 3.9 0 1.2-.7 1.1-4-.6-3.7-1.9-6-4.5-6-6.9 0-1.6 5.1.8 7.8 3.6m5.8 15.3c2.5 0 1.5 1.8-1.6 2.9-3.2 1.1-8.6.5-9.6-1-.8-1.4 3.7-2.9 7-2.4 1.6.3 3.5.5 4.2.5m378.8 3.6c1.1 2.8.6 4.4-1.3 4.4-2 0-3.7-3.2-2.6-5 .9-1.5 3.2-1.2 3.9.6M61 368c-2 1.3-4 1.3-4 0 0-.6 1.2-1 2.8-1 2.1 0 2.4.2 1.2 1"/><path d="M256.7 120.1c-1.1 1.5-1.6 1.7-2 .7-.5-1.6-7.7 4.8-7.7 6.9 0 .7-1.4 2.6-3 4.1-1.7 1.5-3.7 4.5-4.5 6.7s-1.4 3.4-1.5 2.7c0-1.7-2.9-1.5-3.6.3-.8 2-2.4 1.9-2.4-.1 0-1.4-.3-1.4-1.5-.4-1.3 1.1-1.5.8-1.5-1.4 0-1.4-.5-2.6-1.1-2.6s-.9 1.4-.7 3.2c.2 2.7.9 3.5 3.7 4.4 1.8.6 7 4.2 11.5 8.1 9.1 7.9 23.3 19.3 24 19.3.3 0 2.5-1.8 5-3.9s6.7-4.9 9.4-6.2c3.1-1.5 5.5-3.5 6.5-5.4.9-1.7 2.5-10.4 3.7-19.5 2-15.6 2-16.5.3-17.7-2.4-1.9-6.4-1.6-11.9.8-5.4 2.3-13 2-17-.6-3.1-2-4-1.9-5.7.6M242 155.5c1.9 1.9 3.6 3.5 3.9 3.5s-1-1.6-2.9-3.5-3.6-3.5-3.9-3.5 1 1.6 2.9 3.5m44.4 4.6c-.6.8-1.4 3-1.8 4.9l-.6 3.5 2-3.4c2.2-3.5 2.5-7.7.4-5m-8.1 24.6c-.9 2.6-5.9 9-12.5 16-6.5 6.9-7.4 10.1-3.3 12.7 3 2 5.4 2 7.4.2.9-.8 3.9-2.1 6.6-2.9l5-1.4 1.1-7.4c.6-4.1 1.5-10 1.8-13.2l.7-5.7H282c-2 0-3.3.6-3.7 1.7"/></svg>