<svg xmlns="http://www.w3.org/2000/svg" width="682.667" height="512" version="1.0" viewBox="0 0 512 384"><path d="M0 140.4v140.4l3.4 1.2c3.1 1 7.4 5.5 6.3 6.6-.9.9-5.5-.8-7.6-2.7l-2.1-2v37.5c0 29 .3 37.5 1.3 37.9q1.5.6 0 .6C.3 360 0 363.1 0 372v12h77c65.7 0 77-.2 77-1.4 0-2.6-9.1-9.4-16.8-12.7-15.3-6.3-20.8-9.6-25.7-15.4-3.7-4.2-6.7-6.5-13.4-9.8-8.3-4.1-8.6-4.4-8.3-7.5.2-2.6-.3-3.4-2.8-4.7-1.6-.9-3-2-3-2.5s3-2.3 6.8-4.1c3.7-1.7 6.9-3.3 7.1-3.5s-.2-1.7-.9-3.4c-1-2.5-1-3.4.4-5.5 2.2-3.3 9.4-6.8 20.2-9.9 16.9-4.8 41.9-13.7 49.4-17.7 4.1-2.2 9.8-5.8 12.5-7.9 5.8-4.5 36-34.9 39.3-39.6l2.1-3.1-2-1.9c-1.2-1-2.8-3.2-3.6-4.9-1.9-3.6-3.1-4.5-6.1-4.5h-2.3l2.2-3.2 2.3-3.1-1.6-16.4c-1.5-15.8-1.7-16.6-5-21.6-3.6-5.4-6.8-13.5-6.8-17.2 0-1.2 1.5-4.7 3.4-7.8s3-5.7 2.5-5.7c-.6 0-.7-.5-.3-1.1.4-.8 0-.8-1.5 0-1.7 1-2.1.9-2.1-.5 0-1.3-.3-1.4-1.5-.4-1.7 1.4-3.8.4-2.9-1.3.5-.8.3-.8-.7 0-1.8 1.8-2.9 1.6-2.9-.5 0-1.5-.2-1.5-1.1-.2-.8 1.2-1 .9-.6-1.2.3-1.9 0-2.7-1.2-2.7-4.6-.2-5-.4-4-2.2 1.5-2.8 1.1-4.2-1.1-3.6-4.1 1.1-1.8-5.5 4.4-12.5 2.4-2.7 4.9-6.8 5.6-9.1.8-2.3 2.9-7.2 4.7-10.9 4.3-8.7 4.3-9.8-.1-9.1-4.2.7-5.2-.8-6.6-9.9-.5-3.5-1.1-7-1.2-7.8-.2-.8.5-4 1.4-7 1.5-4.8 2.8-6.5 10-13.1 18.1-16.5 39.3-27.4 64.3-33 4.1-1 13.1-1.4 28.3-1.4 20.8 0 22.3-.1 22.8-1.9.6-1.7.7-1.6 1.8.5.9 1.9 2.9 2.8 9.6 4.5 30.3 7.4 53.7 20.8 71.7 41.2 11.5 12.9 22.5 31 22.6 37.1.2 7.2-.7 13.2-1.8 12.7-.6-.2-2.4 2.1-4 5.1-3.2 5.9-7.7 9.9-9.7 8.7-.7-.4-2.3-1.6-3.6-2.7l-2.2-2.1-4.8 4.7c-4.9 4.8-10.4 7.7-14.4 7.7-1.3-.1-3.9-1.4-5.8-3-1.9-1.7-4-3-4.8-3s-4.1 1.7-7.3 3.7c-4.4 2.7-7.4 3.7-11.2 4-5.4.4-6.7-.1-13.5-5l-3.9-2.8-7.7 3.1c-4.2 1.6-8.9 3-10.4 3-4.5 0-10-1.9-13.1-4.5-3.4-3-3.6-2.7-5.1 7.4-.5 3.6-1.3 8.4-1.7 10.5l-.6 4 3.7-2.2c2-1.2 3.9-2.2 4.2-2.2.9 0 .3 5.7-.8 6.8-.7.7-.9 1.2-.4 1.2.4 0 .1 1.2-.7 2.7-.8 1.6-2 4-2.7 5.5-.7 1.4-2.1 2.9-3.1 3.1-2.7.7-3.3 3.1-7 25-2.9 16.9-3.2 19.8-2 22 1.1 2.1 1.1 3.5.1 7.7-.7 2.8-1 6.4-.6 8.1.4 2.2.1 3.2-1.4 4.1-1.5 1-2 2.4-2 5.5 0 5.8 2.5 8.3 8.3 8.3 6 0 8.5-2.8 9.5-10.6.6-5.4.9-5.9 3.2-5.9 5.1 0 5.3 11.6.3 17.5-10.6 12.6-30.4 4.5-29-11.9.2-1.9-.5-2.6-2.8-3.3-3.6-1.2-9.7-1-10.9.2-.5.5-.2 5.3.8 11.7.9 5.9 2.5 18.2 3.6 27.3 2.8 22.2 8.4 56.1 12.4 75 1.9 8.5 4.1 19.7 5.1 24.7l1.7 9.3H512V0H0zM288.5 3.9c1.9.8 1.9.8-.3 1.5-2.5.8-7.9-.1-8.7-1.5-.7-1.1 6.2-1.1 9 0m44.6 8.3c1.1 2.2 1.8 4.3 1.4 4.6-1 1.1-4.3-3.2-5-6.7-.9-4.4.8-3.4 3.6 2.1M124.5 10c1.1 1.7-2.4 6.9-5.1 7.6-4.1 1-6.1-3.8-2.8-7 1.7-1.8 6.9-2.2 7.9-.6M239 15.1c0 2.1-3.4 6.7-5.7 7.8-3.1 1.4-2.9.2.7-4.7 2.9-4.1 5-5.3 5-3.1m110.7 4.5c.6 1.7-6.5 4.4-11.2 4.4s-5.6-.9-3-3c4.1-3.4 13.2-4.3 14.2-1.4M129 41.8c0 1-.6 2.6-1.3 3.7-1.8 2.3-3.2.4-2.3-3.1.7-2.8 3.6-3.3 3.6-.6M431.5 48c-2 4.4-4.1 5.6-2.5 1.4s3.1-6.6 3.7-6c.4.3-.2 2.4-1.2 4.6m-34.4-.9c1 3.6 1 8.9 0 8.9-.5 0-1.2-1.9-1.6-4.3-.3-2.3-.9-5-1.2-6.1-.3-1.2-.1-1.7.8-1.4.7.2 1.6 1.5 2 2.9M136.5 72c1 1.6-1.2 1.2-2.9-.6-.9-.8-1.6-1.8-1.6-2 0-.7 3.8 1.5 4.5 2.6M171 88.9c0 1-.6 2.4-1.4 3-2.3 1.9-4-1.8-1.9-4.1 1.8-2 3.3-1.5 3.3 1.1M17.1 93.6c.7.8.9 1.7.6 2-.6.7-5.7-2.5-5.7-3.6 0-1.2 3.8 0 5.1 1.6M114 124c-.8.5-2.2 1-3 1-1.3 0-1.3-.1 0-1 .8-.5 2.2-1 3-1 1.3 0 1.3.1 0 1m21 9.5c0 1.7-3 3.5-5.9 3.5-3.2 0-2.5-1.9 1.2-3.5 4.1-1.8 4.7-1.8 4.7 0m-64 6c.7.8.8 1.5.2 1.5-.5 0-1.5-.7-2.2-1.5s-.8-1.5-.2-1.5c.5 0 1.5.7 2.2 1.5m-46.6 13.1c-1.6 2.3-3.4 3.2-3.4 1.6 0-.4.7-1.8 1.6-3 2.1-3 3.8-1.7 1.8 1.4m93.1 11.6c.7.7-.3.9-3 .4-2.2-.3-4.6-.6-5.2-.6-.7 0-1.3-.5-1.3-1.1 0-1.3 8-.2 9.5 1.3M496 201.1c2.5 1.2 3.9 2.3 3.2 2.6-1.7.6-10.2-2.5-10.2-3.8 0-1.4 2.1-1 7 1.2m-104 28.7c0 1-1.1 2.9-2.5 4.2-2.2 2-2.5 2.1-3.1.6-.8-2 2.1-6.6 4.1-6.6.8 0 1.5.8 1.5 1.8m107 8.1c1.8 3.4 1.2 6.8-1.7 9.1-2.6 2-2.8 2-4 .4-1.9-2.7-1.6-6.5.9-9.1 2.6-2.8 3.4-2.9 4.8-.4m-363 2.6c-5.5 3-8.6 3.3-5 .5 2.4-1.8 4.6-2.6 8-2.8.8-.1-.5 1-3 2.3m148 17.1c4.2 1.7 5.6 4 1.8 2.9-9.8-2.9-12.9-4.5-8.5-4.5 1.5 0 4.5.7 6.7 1.6m171 8.5c0 1-.4 1.9-.9 1.9-1.2 0-2.3-2.9-1.5-4.1.8-1.4 2.4 0 2.4 2.2M19.2 293c1.7 0 1.8.3.8 1.5-1.9 2.3-12 1.8-12-.5 0-1.2 3.1-1.9 6.4-1.4 1.6.2 3.7.4 4.8.4M387 310.1c0 2.3-2.3 2.5-4 .4-1-1.2-1-1.8 0-3 1.6-1.9 4-.3 4 2.6M81.9 334.9c.8 1.5.7 2-.6 2.5-2.2.9-5.3-.2-5.3-1.9 0-2.8 4.5-3.2 5.9-.6M45 371c0 .5-1.4 1-3.1 1s-2.8-.4-2.4-1c.3-.6 1.7-1 3.1-1 1.3 0 2.4.4 2.4 1"/><path d="M256.8 121.1c-1.6 1.1-2.8 1.6-2.8.9 0-.6-1.6.1-3.5 1.6-2.3 1.7-3.2 3.1-2.6 3.7.5.5-.9 2.8-4 5.9-2.7 2.8-4.9 5.8-4.9 6.9 0 1.6-.4 1.7-2.5.9-2.3-.9-2.9-.6-2.6 1.2 0 .5-.4.8-.9.8s-1-.7-1-1.5c0-1.9-1.6-2-2.3-.1-.6 1.6 1.7 4.1 3 3.3.8-.5 3.5 1.6 22.4 17.6l9.2 7.8 1.6-2.5c2.7-4.1 16.2-16.7 21.3-19.8 5.7-3.6 7.8-6.6 8.4-12.6.7-6.9-.3-7.8-6.2-5.8-2.6.9-6 1.6-7.5 1.6-4.8 0-11.1-3-16-7.5-2.7-2.5-5.2-4.5-5.6-4.5s-2 1-3.5 2.1m-71.9 11.1c-1.2 2.3-1.2 2.3 1 .4 2.3-2.1 2.6-2.6 1.1-2.6-.5 0-1.5 1-2.1 2.2m106.5 15c-.4.7-.9 2.3-1 3.6l-.3 2.3 2-2.5c1-1.3 1.9-2.9 1.9-3.5 0-1.5-1.7-1.4-2.6.1"/><path d="M241 152.9c0 1 6.7 7.1 7.7 7.1.4 0-1.1-1.8-3.2-4-4.2-4.3-4.5-4.5-4.5-3.1m40.1 31.6c-3.9 7.7-8 15.6-8.9 17.5-1.6 3.2-2.1 3.5-5.9 3.4-3.4 0-4.3.3-4.7 2-1.5 5.5.5 8.5 5.7 8.6 2.9 0 3.7-1.7 1.2-2.6-.8-.4-1.5-1.3-1.5-2 0-1.2.5-1.1 2.5.2 1.8 1.2 3.9 1.5 7.1 1.1 2.5-.2 4.7-.7 5-.9.7-.8 7.5-39.1 7.1-40.2-.2-.6-3.6 5.3-7.6 12.9"/></svg>