<svg xmlns="http://www.w3.org/2000/svg" width="682.667" height="512" version="1.0" viewBox="0 0 512 384"><path d="M0 140.8c0 111.3.3 141.1 1.3 142.1 1 1.1 1 1.4 0 1.8S0 296 0 334.6V384h79.1c76.5 0 79.1-.1 76.8-1.8-2.4-1.8-13.9-7.2-15.4-7.2-.4 0-4.4-1.8-8.9-4-6.5-3.1-9-5-12.6-9.5-4.2-5.4-11.1-10.3-18.8-13.5-3.5-1.3-5.2-4.3-5.2-8.6 0-1.6-.8-2.8-2.5-3.6l-2.5-1.1 2.1-2.3c1.2-1.3 3.8-2.9 5.8-3.5 5-1.6 6.4-2.8 5-4.5-.6-.7-.9-2.5-.7-4 .6-5.1 6.8-8.5 27.5-15.3 19.2-6.3 37.3-14.3 46-20.2 2.6-1.9 8.2-6.8 12.4-11 8.5-8.6 32.9-36.6 32.9-37.8 0-.4-1.1-1.8-2.4-3-1.4-1.3-3-3.6-3.6-5.2-.7-1.7-2.3-3.2-3.6-3.5-2.8-.7-2.9-1.2-.8-3.5 1.3-1.5 1.4-2.8.5-9.6-.6-4.3-1.6-12.3-2.1-17.8-.9-8.7-1.5-10.6-4.4-15-6.2-9.2-7.2-18.1-2.7-24.4 1.5-2.1 2-3.8 1.6-5.2-.5-1.5-1-1.8-1.8-1-1.6 1.6-2.7 1.3-2-.6.6-1.5.5-1.5-1.7 0-2.1 1.4-2.6 1.5-3.9.3-.9-.8-2-1.4-2.6-1.3-.5.1-1.1-1-1.3-2.6-.3-2.1-.8-2.7-2.8-2.7-2.6 0-2.6-.5-.6-5.9.4-1.1.1-1.1-1.8-.1-2.2 1.2-2.2 1.1-1.6-2.6.5-2.3 2.2-5.2 4.7-7.8 2.3-2.4 5.2-7.2 7-11.6 1.7-4.1 3.9-9.1 4.9-11 1.2-2.3 1.5-4.1 1-5.1-.5-.9-1.3-4.5-1.8-8-.5-4.5-1.2-6.3-2.1-6.1-1.5.3-1.1-3.6 1.4-12.4 1.3-4.4 2.6-6.2 8.5-11.4 3.8-3.5 8.5-7.4 10.5-8.8l3.5-2.5-2.2-2.6c-2-2.2-2-2.3-.2-.8 1.1.9 2.5 1.7 3.1 1.7.5 0 5.7-2.5 11.6-5.5 20-10.5 34.8-14.4 57.7-15.2 9.5-.3 18.9-.1 24.4.6 6.4.9 9.1.9 10.1.1s1.6-.7 2.2.4c.5.9 4.9 2.8 9.8 4.2 15.1 4.3 32.6 12.6 44.3 21.1l2.3 1.6-.6-6.4c-.6-6-.5-6.3 1-4.4 1.2 1.4 1.5 3.3 1.2 6.8l-.4 4.7 7.3 6.5c4 3.6 10.4 10.5 14.1 15.3 7.8 9.9 8.4 10.8 14.7 22.2 4.1 7.4 4.6 8.9 4.6 14.7 0 7.6-4.2 18.9-8.9 24.1-3.3 3.5-5.2 4-7.1 1.7-2-2.4-3.9-1.8-8.6 2.7-2.5 2.4-5.5 4.8-6.7 5.5-3.7 2.1-8.5 1.5-12.3-1.4l-3.5-2.6-4.2 2.1c-2.3 1.2-5.8 3.1-7.7 4.2-2.2 1.3-5.3 2-8.6 2-4.3 0-5.8-.5-9.8-3.6-5.3-4.1-8-4.1-15.1-.3-5.1 2.8-14.8 2.3-19.3-1l-3-2.1-1.6 2.5c-.9 1.3-1.6 3.3-1.6 4.5 0 2.3-3.3 6-5.4 6-2 0-3.8 6.1-9.6 33.1-5.5 26-5.5 26.1-3.8 28.8.9 1.4.8 3.2-.5 7.7-.9 3.3-1.4 7.1-1.1 8.5.5 2 0 2.9-2.1 4.3-2.4 1.6-2.7 2.3-2.2 5.3 1.1 6.5 7.3 10.6 12.7 8.3 3.8-1.6 5.5-4.4 6.5-10.5 1-7.3 3.6-8.5 6.1-3.1 2.9 5.9-.4 14.7-6.8 18.6-4.7 2.9-13.4 2.7-17.9-.3-5.7-3.8-8.1-8.4-7.7-14.3.4-5 .4-5.2-2.7-6.3-4.7-1.6-9.5-1.4-9.5.5 0 4.4 2.5 16.1 3.7 17.5 1 1.2 1.1 1.8.2 2.1-2.7.9 6.8 59.2 14.3 87.8 1.7 6.3 4.5 17.6 6.3 25l3.2 13.5 110.2.3 110.1.2V0H122v2c0 2.4-4 4.6-6.6 3.6-1.1-.4-1.5-1.4-1.2-3.1l.5-2.5H0zM325.5 10.7c1 2.5 2 3.3 3.9 3.3 3.8 0 3.2 1.7-1.4 4-4.2 2.1-10.5 2.7-11.5 1-.3-.5 1-1.9 2.9-3.1 2-1.2 3.6-2.2 3.6-2.4 0-.1-.7-1.6-1.5-3.1-.8-1.6-1.5-4-1.5-5.4V2.5l2 2.5c1.2 1.4 2.7 4 3.5 5.7m-98.2 2.7c-.5 2.6-4.9 7.3-5.9 6.4-1.1-1.1 3.9-8.8 5.6-8.8.4 0 .5 1.1.3 2.4M123 35.2c0 1.3-.4 2.9-.9 3.7-1.3 2.1-3.2-1.8-2-4.1 1.3-2.5 2.9-2.2 2.9.4m293.5 10.4c-2.4 5.7-3.1 3.1-.9-3.7 1.6-5.2 1.9-5.6 2.2-3.1.2 1.7-.4 4.7-1.3 6.8M119.1 73c1 .6 1.9 1.5 1.9 2 0 1.7-2.6 1.1-4.5-1-2-2.2-.7-2.7 2.6-1M162 85.4c0 3.1-1.4 4-3 2.1-1-1.2-1-1.8 0-3 1.8-2.2 3-1.8 3 .9M9.3 90.5c1.4 1.9 1.5 2.5.4 2.5-2.1 0-5.1-2.6-4.3-3.8 1-1.7 1.9-1.4 3.9 1.3m96.7 29c-1.4.7-2.7 1.1-3 .9-.6-.7 2.2-2.4 4-2.3.9 0 .5.6-1 1.4m-43.6 10.1c.3.8.2 1.2-.4.9s-1-1-1-1.6c0-1.4.7-1.1 1.4.7M128 131c0 1.3-3.4 3-5.9 3-3 0-2.6-1.7.7-2.8 3.6-1.4 5.2-1.4 5.2-.2M14 150.4c0 1.6-2.8 4.2-3.6 3.3-.7-.6 1.8-4.7 2.8-4.7.5 0 .8.6.8 1.4m92.5 7.6c1.6.7 1.3.9-1.7.9-2 .1-4-.4-4.3-.9-.7-1.2 3.2-1.2 6 0m381.8 35.7c2.8 1.5 2.9 1.8 1.2 2.1-2 .3-9.5-2.3-9.5-3.3 0-1.2 5.4-.4 8.3 1.2M375 226.2c-.1 2-2.6 4.8-4.3 4.8-2.5 0-3.1-2-1.1-4.1 1.9-2.1 5.4-2.6 5.4-.7m116.5 6.2c.8 3.6.7 4-2 6.3-2.7 2.4-2.9 2.4-4.2.7-1.9-2.7-1.6-6.5.9-9.1 2.8-3 4.1-2.5 5.3 2.1m-359.9-1.6c-.2.4-2.7 1.9-5.5 3.2-5.2 2.4-7.9 2.1-4.5-.5 3-2.3 11.1-4.5 10-2.7M83 257c-.8.6-2.2 1-3 .9-.9 0-.5-.6 1-1.4 2.7-1.4 4.4-1 2 .5m358.3 5.2c.7 2.5 0 4.1-1.4 3.3-1.2-.8-1.2-5.5 0-5.5.5 0 1.1 1 1.4 2.2M14.9 281.6c4 .8 4 2.1-.2 2.9-3.6.7-9.1-1-8.2-2.5.7-1.1 3.8-1.3 8.4-.4M373 308c1.2 2.3.6 4-1.5 4-1.9 0-2.7-1.7-2-4 .8-2.6 2.1-2.5 3.5 0M75 330.1c0 1.4-4.2 2.1-5.4.9-1.6-1.7 2.2-4.4 4.1-2.9.7.6 1.3 1.5 1.3 2m-46.2 43.1c-.5 1.5-5.8 2.4-5.8.9 0-.9 2-1.7 4.8-2 .8 0 1.2.5 1 1.1"/><path d="M263.5 130.2c-2.2.5-6.8.7-10.1.4l-6.1-.5-4.2 5.1c-2.2 2.8-4.1 5.7-4.1 6.5 0 1.2-.3 1.2-1.6-.1-2.2-2.3-3.4-2-3.4.9 0 1.9 1 2.9 4 4.5 2.1 1.1 6.3 4.4 9.2 7.3s7.8 7.3 10.8 9.7 6.7 5.7 8.2 7.3c1.6 1.5 3.2 2.6 3.7 2.2.5-.3 1.2-3.1 1.6-6.3 1-9.3 2.2-12.4 7.5-18.6 4-4.6 4.8-6.1 3.9-7.2-.6-.8-1.7-1.4-2.4-1.4s-3.3-2.1-5.7-4.6c-5.5-5.8-6.5-6.3-11.3-5.2M230 141.4c0 1.5 1.8 3.1 2.6 2.3.7-.7-.7-3.7-1.7-3.7-.5 0-.9.6-.9 1.4m16 14.8c4.1 4.5 5 5.3 5 4.5 0-.2-2.1-2.3-4.7-4.7l-4.8-4.5zm40 29.8c-2 8.4-2.4 9-7.6 9-2.4 0-6.1-.7-8.1-1.5-3.1-1.3-3.9-1.3-5.1-.2-1.9 1.9-3.1 8-3.2 15.3 0 7.1 1.4 9 5.7 7.9 1.6-.3 5.1-1 8-1.4s5.5-1 5.9-1.4c1-1 5.4-21 4.9-22.4-.2-.7 0-1.5.6-1.8.5-.4.6-1.1.3-1.7-.4-.6-.1-1.3.5-1.7.8-.5.9-1.5.3-3.1-.8-2.2-1-1.8-2.2 3"/></svg>