<svg xmlns="http://www.w3.org/2000/svg" width="682.667" height="512" version="1.0" viewBox="0 0 512 384"><path d="M0 109.2v109.1l2.3-2.1c2.7-2.6 7.7-4.6 7.7-3.1 0 2.2-3.1 6.5-6.4 8.9-3.2 2.3-3.5 3-3.6 7.2 0 3.4.4 4.8 1.4 4.8 1.5 0 1.1 4.6-.5 5.6-.5.3-.9 32.1-.9 72.5V384h79c43.5 0 79-.2 79-.4s-3-1.6-6.6-3c-7.5-3-10-5.5-10.8-10.7-.6-4-2.3-5.7-8.4-8.8-5-2.6-7.7-7.5-6.7-12.2.4-1.7.2-3.6-.4-4.3-.9-1-.4-2 1.8-4.2 1.5-1.6 3.2-4.3 3.5-5.9 1.3-5.2 4.6-9.4 13.3-17 9.4-8.2 17.4-13.7 30.8-21.1 11.4-6.3 21.7-16.2 35.3-34.4 5.6-7.4 12.5-16.3 15.3-19.7l5.1-6.3-4-1.6c-4.1-1.6-6.2-4.6-7.7-10.6-.7-2.6-1-2.7-4.9-2.2-3.3.5-4.7.1-7.4-1.9l-3.2-2.4 3.7-.7c2.1-.3 5.2-1.4 6.9-2.5l3-1.8-1.3-16.2c-1-12.1-1.9-18-3.8-23.3-2.7-7.7-3.3-15.6-1.2-17.7 1-1.1.6-1.2-2.3-.6l-3.5.8 3.8-4.3c2.1-2.3 3.6-4.4 3.4-4.7-.3-.2-2.9.9-5.9 2.6-5.9 3.4-7.7 3.9-5.9 1.7.8-1 .8-1.6-.2-2.5-.8-.6-1.8-.7-2.2-.3-.5.4-.5-.1-.1-1.2.5-1.4.2-1.7-.9-1.2-.8.3-2.6-.6-4-2-2.5-2.5-2.9-5.1-1-6.7.6-.5 0-.7-1.3-.4-1.2.3-2 .1-1.6-.4.3-.5 0-.9-.7-.9s-.3-1 .9-2.3c2.7-2.9 2.8-4.1.2-3.4-4.2 1.1 2.5-7 6.9-8.4 2-.6 4.7-2.1 5.9-3.3 3.6-3.2 10.6-13.5 13.4-19.6 2.9-6.2 9.7-14.4 13.8-16.5 8.1-4.2 16.2-3.9 26.7 1.2 8.3 3.9 12.2 7.9 16.1 16.3 1.9 4.1 3.6 7.7 3.8 7.8.1.2 2.3-1 4.8-2.8 7-4.7 9.9-5.6 24.8-7.5 12.8-1.6 14.5-1.6 25 0 32.7 4.7 57.5 20.3 74.8 46.7 9.1 14 17 36.9 17 49.6 0 8.2-3.9 26.1-6.8 30.7-5.5 8.9-9.6 13.5-13.1 14.6-2 .6-5.4 2.6-7.6 4.3-9.6 7.7-13.5 8.9-18.5 5.9-2.7-1.5-3.1-1.5-9.4 1-9.6 3.9-14.6 3.6-19.6-.9-3.9-3.5-4-3.6-10.5-2.9-10.1 1.1-14.8-.6-19.6-7.1-3.7-5.1-4.1-5.3-9.6-5.9-3.2-.3-7.1-1.3-8.8-2.1-2.8-1.5-3-1.5-5.2 1-1.7 2-2.1 3.4-1.6 6.1.5 3.1.1 4-2.5 6.6-1.7 1.7-3.6 4.6-4.2 6.5-1 3-1.6 3.5-3.8 3.2-2.5-.3-2.7 0-2.4 2.7.4 3.7 4 7.1 9.1 8.5 5.3 1.4 9.1-.1 11.6-4.8 2.8-5.2 5.9-5.1 6.3.1.4 4.6-1.6 8-6.1 10.7-3.5 2.2-10.9 2.6-15.3 1-1.5-.6-2.8-.9-3-.8-1 1 6.9 68.7 9.6 83.1 1.1 5.4 2.5 14.3 3.2 19.8l1.2 9.9H512V0L277.8.1C148.9.2 44.8.5 46.4.9c3 .6 4.9 3.1 2.3 3.1C46.3 4 41 1.9 41 .9c0-.5-9-.9-20.5-.9H0zm295-97.7c0 1.2-.7 3-1.5 4.1-1.3 1.6-1.6 1.7-2.5.4-1.3-2-1.3-5.6.1-8.2 1.1-2.1 1.2-2.1 2.5-.3.8 1 1.4 2.8 1.4 4M167 13c0 .5-1.6 1-3.5 1s-3.5-.5-3.5-1c0-.6 1.6-1 3.5-1s3.5.4 3.5 1m115.8 2.7c-1.2 3-5.7 7.7-6.5 6.9-.9-.9.9-4.7 3.3-7.1 3.3-3.3 4.6-3.2 3.2.2M99 21c0 1.6-.2 3-.4 3s-.9-1.4-1.5-3c-.8-2.4-.7-3 .5-3 .9 0 1.4 1 1.4 3m11.7.6c3 .9 5.3 1.7 5.1 1.9-.5.5-12.8-2.2-13.5-2.9-1.1-1.1 2.8-.6 8.4 1M239 43.9c0 1.4-2.7 2.1-7.3 2l-4.2-.1 4.5-1.3c5.6-1.6 7-1.7 7-.6M29.2 50.5c-.4 3.7-1.9 5.3-5.2 5.7-2.2.3-2.5-.1-2.8-3.3-.2-2.9.1-3.8 2-4.7 1.3-.6 3.2-1 4.3-.9 1.6.2 1.9.8 1.7 3.2M177 50c0 .5-.7 1-1.5 1s-1.5-.5-1.5-1c0-.6.7-1 1.5-1s1.5.4 1.5 1m-85.2 3.2c-.6 1.8-2.8 2.1-2.8.4 0-.9.7-1.6 1.6-1.6s1.4.5 1.2 1.2M263 57c.8.5 1.1 1 .5 1-.5 0-1.7-.5-2.5-1s-1-1-.5-1c.6 0 1.7.5 2.5 1M54.2 67.2c2.2 1.8 3.1 4.8 1.4 4.8-2.2 0-6-3.6-5.2-4.8.9-1.5 1.8-1.5 3.8 0M464.5 103c.4.6-.7 1-2.4 1s-3.1-.5-3.1-1c0-.6 1.1-1 2.4-1 1.4 0 2.8.4 3.1 1m-315 3.6c3.1 2.9 2.8 4.1-.7 2.3-2.3-1.2-3.8-2.8-3.8-4.2s1.7-.7 4.5 1.9m29.7 3.2c1.4 1.4-6.9 2.7-11.7 1.8-3.8-.7-4.6-2.1-1.7-3 2.8-.8 12.2 0 13.4 1.2m-146.4 4.4c-.5 1.5-3.3 2.2-5.4 1.4-2.4-.9-.6-2.6 2.7-2.6q3 0 2.7 1.2m11.9 8.4c-.3.3-1.2.4-1.9.1-.8-.3-.5-.6.6-.6 1.1-.1 1.7.2 1.3.5m375.3 4.8c0 .2-.7.6-1.5 1-.8.3-1.5.1-1.5-.4 0-.6.7-1 1.5-1s1.5.2 1.5.4M196 160c0 .4-.9 1-2 1.3-2.6.7-4.2-2-2.8-4.7 1-1.9 1.1-1.9 2.9.3 1.1 1.3 1.9 2.7 1.9 3.1m-55.9 32c.6 0 .8.4.5.9-.3.4-1.7.6-3.1.4-1.3-.3-2.2-1-1.9-1.5s1.3-.7 2.1-.4 1.9.6 2.4.6M476 269.2c.6 2.4 1.3 4.9 1.5 5.6.3.8-.9 2.7-2.5 4.4-3.7 3.6-5.5 2.7-6.5-3.3-.6-3.3-.3-4.6 1.7-7.4 1.2-1.9 2.8-3.5 3.5-3.5s1.7 1.9 2.3 4.2M8.8 284.3c.3 2.8-.9 3.4-4.2 2.1-1.9-.7-2.1-4-.3-4.7 2.5-1.1 4.2-.1 4.5 2.6M39 283c1 .7-1.1 1-7 1s-8-.3-7-1c.8-.5 4-1 7-1s6.2.5 7 1m105.7 6.7c1.7 4.2 1.7 4.6-.6 3.3-1.1-.5-2.3-2-2.6-3.2-1.9-6.8-1.9-6.4 0-4.8 1 .8 2.4 2.9 3.2 4.7M46 296.8c0 1.1-3.9 4.6-6.7 6.1-1.2.6-3.7 1.1-5.5 1.1h-3.3l2.5-2c5.3-4.1 13-7.2 13-5.2m436.6 41.4c2.4 1.1 4.1 2.5 3.8 3-.3.4-3.3.8-6.7.8-4.5 0-6.9-.6-8.7-2-1.9-1.4-2.2-2-1-2.4.8-.2 2.2-.7 3-.9 3-1 5.4-.7 9.6 1.5"/><path d="m253 139.3-2.4 3.5-1.9-2.4c-2.1-2.7-3.7-2.4-3.7.7 0 1.3 1.1 2.5 3.2 3.4 3.9 1.6 4.4 1.4 6.3-3.2 2.2-5.1 1.4-6.2-1.5-2m-35 8.3c-2.9 2.9-2.2 3.1 2 .6 1.6-1 2.7-2.2 2.3-2.5-1-1.1-1.6-.8-4.3 1.9m53.5 65.1c1.4 13.8 1.4 14 4.3 15.1 10.1 3.9 10.2 3.9 12.8.9 3-3.5 3-5.1.2-10.7-2-3.8-3-4.6-7.7-6.2-3-1-6.2-2.5-7.1-3.3-2.7-2.4-3-1.8-2.5 4.2"/></svg>