<svg xmlns="http://www.w3.org/2000/svg" width="682.667" height="512" version="1.0" viewBox="0 0 512 384"><path d="M0 192v192h79c75.2 0 79-.1 78.1-1.8-1.5-2.7-4.1-4.7-10.8-8.1-6.9-3.4-9.3-6.1-9.3-10.6 0-3.9-.6-4.6-5.7-7.8-2.3-1.5-4.7-3.6-5.3-4.7-1.6-3-.2-11 2.4-14 1.3-1.4 2.8-4.4 3.4-6.6 2.2-7.7 19-21.8 39.2-32.9 5.8-3.1 12.8-7.5 15.6-9.6 6.1-4.7 16.2-15.1 22.9-23.8 2.8-3.5 7.7-9.6 11-13.5 3.4-3.9 7.3-8.8 8.9-10.8l2.8-3.7-3.6-1.5c-3.7-1.6-7.1-6-8.2-10.9-.5-2.6-.8-2.8-4.2-2.2-3 .4-4.3.1-6.7-1.9l-3-2.5 5.7-2.5 5.8-2.6v-10.7c-.1-13.3-1.3-23.2-4.1-32.3q-2.1-7.05-1.5-10.5c.5-2.4.3-3.5-.5-3.5-.6 0 .3-1.6 2-3.5 4.4-5.1 3.9-5.7-2.1-2.4-5.6 3.1-7.3 3.6-6.3 1.8.7-1-3.2-5.4-4.8-5.4-.4 0-1.1-.5-1.5-1.1s-1.5-1.4-2.6-1.7c-1.1-.5-1.6-1.3-1.2-2.2.3-.8.9-2.2 1.2-3 .5-1.1-.1-1.5-2-1.5-3.1 0-3.3-1.1-.5-3.6l2.1-1.9-2.2-.5-2.2-.5 2.1-2.6c1.1-1.5 1.8-2.9 1.5-3.2s1.7-1.3 4.5-2.2c3.7-1.2 6-2.8 8.4-5.8 4.7-6 9.4-13.7 10.2-16.9 1-4 11.4-15.8 16-18.2 6.9-3.6 15.9-2.9 25.6 1.9 2.6 1.3 5.5 2.2 6.5 2.2 1-.1 2.6 1.3 4 3.8 3.7 6.3 8.1 15.7 8.8 18.9.6 2.6.5 2.8-.8 1.7-1.4-1.2-1.6-1-1.6 1.5 0 1.8-1.1 3.8-2.8 5.4-3.8 3.6-6.7 5.7-5.9 4.3 1.3-2.1-1-2.3-2.9-.2-1.8 2-1.8 2.2 0 5.2 1.2 2.1 1.4 3.3.6 3.5-.6.2-1.5.9-2.1 1.6-5.6 6.8-9.7 10.7-10.3 9.7-1.3-2-3.6-1.2-3.6 1.3 0 1.9.8 2.7 3.8 3.6 5.2 1.7 11 5.8 13.7 9.8l2.4 3.5 1-4.1c.7-2.5 2.9-5.8 6-9 2.7-2.8 5.2-6 5.6-7.1.6-1.9 7.7-7.1 14-10.4 2.6-1.3 13.3-3.5 25.7-5.4 7.7-1.2 33.2 5.6 45.7 12.2 3.6 1.9 9.8 6 13.6 9 3.9 3.1 7.8 5.8 8.7 6.1 1 .4 1.5 1 1.3 1.5-.3.4 1.1 3 3.1 5.6 8.1 10.5 14.5 28 17.4 47.3 1 6.3.8 9.5-.8 20.6-1.8 12.1-2.3 13.6-6.2 19.7-2.7 4.4-6.8 8.8-11.8 12.9-12.4 10.2-14.9 11.3-19.1 8.6-1.6-.9-3-.7-7.9 1.5-3.5 1.6-7.7 2.7-10.3 2.7-3.8 0-4.8-.5-7.5-3.6-3-3.6-3.1-3.7-6.8-2.4-2.1.7-6.1 1-8.9.7-5.4-.5-6.3-1.2-11-8.7-2-3.1-2.9-3.6-7.7-4.1-7.7-.8-11.4-3-13.4-7.9-.9-2.2-1.6-4.7-1.6-5.5 0-2-1.9-2.9-3.5-1.5-.9.8-1.2 2.2-.8 4.1.5 2.5-.1 3.6-3.8 7.2-2.4 2.4-4.9 5.1-5.6 5.9-.7.9-1.7 1.8-2.4 2-1.9.6.4 6.1 3.2 7.5 1.3.7 4.1 1.3 6.3 1.3 3.1 0 4.5-.7 7.2-3.6 3.8-4 6.7-4.2 7.3-.4.9 7-6.8 12.6-16.3 11.8-4-.3-5.6-.1-5.6.8 0 6.9 7 62.9 10.6 84.8 1.3 8.1 2.4 17.2 2.4 20.2v5.4h214V0H392C285.5 0 272.1.2 272.6 1.5c.7 1.6-2.1 6.5-3.6 6.5-1 0-2.6-4.7-2.2-6.8.2-.9-27-1.2-133.3-1.2H0zM264 6.4c0 2-5.5 7.6-7.4 7.6-2.5 0-1.9-1.9 1.8-5.6 3.6-3.6 5.6-4.3 5.6-2M146 13c0 .5-1.6 1-3.5 1s-3.5-.5-3.5-1c0-.6 1.6-1 3.5-1s3.5.4 3.5 1m-55.7 4c2.2.9 2.2.9-.3.9-1.4 0-4.7-.6-7.5-1.4l-5-1.5 5.3.5c2.9.3 6.2 1 7.5 1.5m-18 9c.3 1.1.2 1.8-.3 1.5-.4-.3-1-1.4-1.3-2.5s-.2-1.8.3-1.5c.4.3 1 1.4 1.3 2.5m148.1-.6c-.6 1.5-5.4 3.6-8.1 3.6-2.6 0-.8-2.3 2.8-3.6 4.6-1.7 5.9-1.7 5.3 0M16.2 39.1c-.3 3.7-3.3 6.9-6.3 6.9-4.6 0-3.5-7.4 1.4-9.5 4.3-1.9 5.3-1.4 4.9 2.6M80 43.5c0 .8-.7 1.5-1.5 1.5-1.6 0-2-1.2-.8-2.3 1.1-1.2 2.3-.8 2.3.8m75.7 3.1c-.3.3-1.2.4-1.9.1-.8-.3-.5-.6.6-.6 1.1-.1 1.7.2 1.3.5m87.3 7.8c0 .2-.9.2-2-.1s-2-.9-2-1.5c0-.5.9-.4 2 .2s2 1.2 2 1.4M43.8 57.6c1.2.8 2.2 2.1 2.2 2.9 0 2-5 .4-6.8-2.3-1.3-2-1.3-2.2.5-2.2 1 0 2.9.7 4.1 1.6m93.8 38.8c1 .8 1.6 1.7 1.2 2.1-.8.8-4.8-1.3-4.8-2.5 0-1.4 1.3-1.2 3.6.4m18.9.6c1.4.5 2.4 1.4 2 2-1.4 2.3-14.5 2.4-14.5 0 0-1 4.7-2.8 7.7-2.9 1.2-.1 3.4.3 4.8.9M17 104c1.1.7 1.2 1.2.3 2.1-1.5 1.5-4.7.7-5.1-1.4-.4-1.9 2.3-2.3 4.8-.7m387.7 10.6c-.3.3-1.2.4-1.9.1-.8-.3-.5-.6.6-.6 1.1-.1 1.7.2 1.3.5m-372.1 4.6c.4.5-.6.8-2.2.6-1.5-.2-2.9-.8-3.1-1.4-.5-1.4 4.4-.6 5.3.8m149.2 28.1c.3 2.2-.1 2.7-1.8 2.7-2.3 0-3.5-2.2-2.6-4.6 1-2.5 4.1-1.2 4.4 1.9M122.5 173c.4.6-1.2 1-4 1s-4.4-.4-4-1c.3-.6 2.1-1 4-1s3.7.4 4 1m55.5 44c0 .5-2.5 1-5.5 1s-5.5-.5-5.5-1c0-.6 2.5-1 5.5-1s5.5.4 5.5 1m276.5 30.7c1.6 3.8 1.3 8.3-.5 8.3s-1 1.8 1 2.3c1.1.3 2 1 2 1.6s-.9 1.1-2 1.1c-2.9 0-3.5-.3-3.2-1.8.2-.9-.3-1.2-1.6-.8-1.6.5-2.1.1-2.4-2.1-.3-1.5-.8-3.5-1.2-4.3-.8-1.9 2.9-8 4.9-8 .8 0 2.2 1.7 3 3.7m-321.1 20.7c2 4.3 2.1 6.7.2 6-1.4-.6-3.6-5.4-3.6-8 0-2.5 1.7-1.5 3.4 2m-110.6.7c3.7 1.4 2.5 2-3 1.4-6.8-.8-8.1-1.3-7.3-2.5.7-1.1 5.9-.5 10.3 1.1M19 290.8c0 1.4-8.3 6.2-10.7 6.2-3.6 0-2.7-1.4 2.5-4.3 4.6-2.6 8.2-3.4 8.2-1.9m432 35.7c2.8 3 1.6 3.8-5.5 3.3-8.5-.5-8.8-5.7-.4-5.8 2.5 0 4.2.7 5.9 2.5m10.8 53.2c-.6 3.2-10.8 2.9-10.8-.2 0-1.1 1.3-1.5 5.6-1.5 4.7 0 5.5.3 5.2 1.7"/><path d="M247 140c0 .5.5 1 1.1 1 .5 0 .7-.5.4-1-.3-.6-.8-1-1.1-1-.2 0-.4.4-.4 1m-20.5 5c-.3.5-.1 1 .4 1 .6 0 1.1-.5 1.1-1 0-.6-.2-1-.4-1-.3 0-.8.4-1.1 1m44.2 16.1c.4 1.3.8 1.8 1.1 1 .2-.7-.1-1.8-.6-2.3-.8-.8-.9-.4-.5 1.3m3.8 55.6c.8 10 2.7 13.1 9.3 15.2 2 .7 4.3 1.5 5 1.7 2.3 1 1.2-1.1-1.7-3.1-3.9-2.5-5.1-5.4-5.1-11.9 0-4.4-.4-5.6-2.8-7.9-4.9-4.7-5.5-3.8-4.7 6"/></svg>