<svg xmlns="http://www.w3.org/2000/svg" width="682.667" height="512" version="1.0" viewBox="0 0 512 384"><path d="M0 144.1v144.1l3.3-.7 3.2-.6-3.2 3L0 293v91h78.5c43.2 0 78.5-.2 78.5-.4 0-.3-1-2.1-2.1-4.1-1.5-2.5-4-4.5-8.3-6.7-8.6-4.3-10.5-6.2-11.2-12-.6-4.3-1.1-5.1-5-7.5-3.4-2.2-4.4-3.4-4.4-5.5 0-3 3.3-11.2 4.9-12.2.6-.4 1.1-2 1.1-3.6s1.1-4.2 2.7-6.1c4.9-5.8 19.6-17.3 29.8-23.3 5.5-3.2 12.4-7.3 15.3-9 10-5.8 17.7-13.2 32.2-31 19-23.3 21-25.7 21-26.5 0-.4-1.8-1.5-3.9-2.4-3.3-1.5-4.3-2.7-6.2-7.3-2.1-4.9-2.6-5.5-4.8-5.1-2.8.6-9.1-2.1-9.1-3.9 0-.6 2.3-2.1 5-3.2 2.8-1.2 5.3-2.9 5.7-3.9 1.3-3.3-1.5-34.5-3.7-40.8-3.1-9-2.7-12.4 2-18.1 2.2-2.6 3.8-5 3.5-5.2-.2-.2-2.9 1-5.9 2.8-4.5 2.5-5.6 2.8-5.6 1.5 0-.8-.7-1.8-1.5-2.1-.8-.4-1.5-1.2-1.5-1.9 0-.8-.8-1.1-2-.8-1.4.4-2 0-2-1.1 0-.9-.6-1.6-1.4-1.6-2.1 0-2.8-1.7-1.7-3.9.9-1.6.6-1.9-2.1-2.5l-3.2-.6 2.9-3c2.8-2.9 2.8-3 .7-3-2.8 0-2.8-1.1.2-4.3 1.3-1.4 2.1-2.8 1.8-3.1s.2-.6 1.2-.6c5.3 0 12-7.8 18.8-22 6.4-13.5 16.7-22 26.6-22s24.5 7.8 29.6 15.8c2.7 4.4 6.8 16.2 5.6 16.2-.5 0-1.1-.6-1.3-1.3-.3-.6-.6 0-.6 1.5-.1 1.6-1 3.7-2 4.7-1.1 1.1-1.7 2.2-1.5 2.5s.1.4-.3.1c-.3-.3-1.2 0-1.9.6-.8.6-2 .9-2.8.6s-2.5.2-3.7 1.2c-2 1.6-2.1 1.9-.6 4.8l1.6 3-4.9 5.4c-2.8 3-5 5.8-5 6.3 0 .4-1.6.5-3.5.2-3-.6-3.5-.4-3.5 1.2 0 2.3 1.5 3.6 5 4.7 5.7 1.8 11.2 6.7 13.8 12.4 1.3 3.1 3.4 6.6 4.5 7.8l2 2.3 2.1-3.3c1.2-1.9 4-5.1 6.4-7.2s4.1-4.4 3.8-5.1c-1.4-3.7 13.4-11.3 26.9-13.8 12-2.1 13.4-2.1 26.6 1.3 19.3 4.9 35.8 13.2 46.5 23.3 3.3 3.1 5.8 4.7 6.5 4.2.9-.5 1.1-.1.7 1.4-.4 1.4.5 4.2 2.3 7.5 4.9 9.1 7.2 21 7.3 38.2.1 8.7-.5 18.5-1.3 23.4-1.2 7.5-2 9.3-7.3 17.3-3.3 4.8-6.2 8.8-6.6 8.8s-2.3 1.5-4.3 3.4c-6.6 6-10.8 8.1-13.9 6.9-2.2-.8-3.8-.6-8.1 1.3-3 1.3-7.5 2.3-10 2.4-3.9 0-4.9-.4-6.4-2.6-1.6-2.4-1.9-2.5-9.3-2-9.3.7-11.6-.4-14.6-6.5-2-4.2-2.4-4.4-7.1-5-2.8-.4-6-.9-7.1-1.3-1.8-.5-2.3 0-3.3 3.4-1.8 6.1-5.8 8.2-14.4 7.8l-6.8-.4.6 3.6c.3 1.9 1.4 12.2 2.5 22.8 2.2 20.6 5.8 47.2 9.1 66.7 1.1 6.6 1.8 13.7 1.5 15.7l-.6 3.8h213V0H386.1C271.2 0 260.2.1 259.6 1.6c-.5 1.2-1 1.4-1.9.5-1-.8-1.9-.4-3.5 1.9-2.3 3.1-7.9 6.6-9 5.6-1-1.1 3.2-5.8 6.8-7.7 3.4-1.9.6-1.9-124.3-1.9H0zM67.9 12.6c1 .9-3.5.3-4.9-.6-1.1-.8-.7-.9 1.5-.4 1.7.4 3.2.8 3.4 1m66 .3c1.1.7 1 1-.6 1.5-2.4.8-5.5-.2-4.7-1.5.7-1.1 3.5-1.1 5.3 0m-62.2.7c-.3.3-1.2.4-1.9.1-.8-.3-.5-.6.6-.6 1.1-.1 1.7.2 1.3.5m5.6 1.1c-.7.2-1.9.2-2.5 0-.7-.3-.2-.5 1.2-.5s1.9.2 1.3.5M211 15.9c0 1.5-4.8 4.1-7.5 4.1-3.3 0-2.4-1.7 1.9-3.6 3.6-1.6 5.6-1.8 5.6-.5M58.1 22.2c1.1 2.1 1.1 2.2-.4.9-1-.7-1.7-1.7-1.7-2.2 0-1.5.9-1 2.1 1.3m2.9 6.1c0 .5-.4.5-1 .2-.5-.3-1-1.4-1-2.3 0-1.5.2-1.5 1-.2.5.8 1 1.9 1 2.3M9.7 33.7C9 37.8 6 41 2.9 41 1.4 41 1 40.3 1 37s.5-4.2 2.8-5.4c1.5-.8 3.5-1.5 4.6-1.6 1.6 0 1.8.5 1.3 3.7M75 37.5c0 .8-.7 1.5-1.5 1.5-1.6 0-2-1.2-.8-2.3 1.1-1.2 2.3-.8 2.3.8M38.7 53.6l2.8 2.6-3.9-.6c-3.6-.5-5.5-1.8-5.6-3.9 0-1.6 4.1-.5 6.7 1.9M233 52c.8.5 1.1 1 .5 1-.5 0-1.7-.5-2.5-1s-1-1-.5-1c.6 0 1.7.5 2.5 1M131.9 91.6c1.9 1 4.2 1.3 5.7 1 2.7-.7 9.4 1 9.4 2.3s-7.7 3.4-10.2 2.8c-2.3-.6-8.8-5.8-8.8-7 0-1 .3-.9 3.9.9M8.8 99.2c.7.7 1.2 1.6 1.2 2 0 1.3-3.7.9-4.9-.5-2-2.4 1.4-3.8 3.7-1.5m389.2 8.2c0 .3-.4.8-1 1.1-.5.3-1 .1-1-.4 0-.6.5-1.1 1-1.1.6 0 1 .2 1 .4m-371.2 9c1.1 1.2-2.6 1.6-5.2.6-3.7-1.4-2.4-3.1 1.5-2 1.8.5 3.4 1.2 3.7 1.4m147.8 25.2c.6 2.4-.6 4.3-2.8 4.4-1.1 0-2.1-4.7-1.3-5.9 1.2-2 3.5-1.1 4.1 1.5M113.5 163c.3.5-.3 1-1.3 1-1.1 0-3.4.3-5.1.6-1.9.4-3.1.2-3.1-.4 0-1.9 8.4-3 9.5-1.2m47.8 52c1.5 0 2.7.4 2.7 1 0 .5-2.5 1-5.5 1s-5.5-.4-5.5-.8c0-1.6 1.4-2.3 3.5-1.8 1.1.3 3.2.6 4.8.6m279.2 24.6c2.1 5.1 1.9 7.1-1 9q-4.95 3.3-6-3c-.6-2.7-.2-4.2 1.5-6.6 1.2-1.6 2.5-3 3.1-3 .5 0 1.6 1.6 2.4 3.6m7.3 15.1c.2.8-.6 1.3-2.2 1.3-2.5 0-3.3-1-1.9-2.4 1-1 3.6-.3 4.1 1.1m-319.4 5.4c1.8 4.5 1.4 5.9-1.2 4.3-1.8-1.2-3-8.4-1.4-8.4.6 0 1.7 1.9 2.6 4.1m-115.7 3.4c2 .8 3.4 1.8 3.1 2.1-.8.8-12.7-1.7-13.4-2.7-.9-1.5 6.4-1 10.3.6M435 320.7c2.4 3.1 1.4 4.3-3.8 4.3-6.4 0-9.8-4-4.9-6 3.9-1.6 6.5-1.1 8.7 1.7m15.8 47.4c.3 1.8-5.1 3.2-8.7 2.2-3.2-.8-2.5-3.1 1.2-3.6 5.2-.7 7.2-.3 7.5 1.4"/><path d="M249 138.9c0 .5.5 1.3 1 1.6.6.3 1 .2 1-.4 0-.5-.4-1.3-1-1.6-.5-.3-1-.2-1 .4m27.2 75.7c.3 12.1 1.7 15.4 7.2 17.4 3.5 1.2 4.6.1 4.6-4.5 0-2.3-1.2-4.1-5.6-8.2-5.6-5.1-5.7-5.2-5.1-9.7.4-2.8.2-4.8-.4-5.2-.8-.4-1 2.7-.7 10.2m20.4 30.9c-.4 1.4-1.2 2.5-1.9 2.5-1.6.1-6.2 4.1-7 6.3-.3.9-1.3 1.7-2.2 1.7-2.3 0-1.8 4.6.7 6.4 1.3.9 4.3 1.6 7 1.6 3.8 0 5.3-.6 8-3 1.8-1.7 3.6-3 4.1-3 .4 0 .3-.9-.3-1.9-.5-1.1-1-3.3-1-4.9 0-2.8-3.8-8.2-5.8-8.2-.6 0-1.3 1.1-1.6 2.5"/></svg>