<svg xmlns="http://www.w3.org/2000/svg" width="682.667" height="512" version="1.0" viewBox="0 0 512 384"><path d="M0 12.5C0 22.7.3 25 1.4 25s1.3.9.9 3.7c-.3 2.1-1 4.2-1.4 4.8C.4 34 0 47.8 0 64.1 0 89.2.2 93.9 1.5 95c1.9 1.6 1.9 3 0 3C.2 98 0 107.6 0 178.5 0 256.6.1 259 1.9 259c1 0 2.5.7 3.2 1.6 1.2 1.5 1 1.6-1.9 1l-3.2-.8V384h155.2l-.7-2.8c-1.1-4.5-3.3-7.1-8.7-10-8.6-4.6-10.9-7.1-11.5-12.6-.5-3.7-1.2-5.2-3.4-6.9-3.7-2.6-3.6-4.4.1-8.7 2.2-2.6 2.9-4.5 3-7.7 0-3 .7-5 2.8-7.4 3.4-4.1 19.9-17.2 27.5-21.9 23-14.1 33.8-23.5 46.3-40 3.2-4.1 8.3-10.4 11.4-14s7.3-8.7 9.4-11.5l3.7-5-2.8-.9c-4.2-1.3-5.4-2.6-7.9-8.4-2.2-4.7-2.7-5.2-5.7-5.2-3.3 0-7.7-2.3-7.7-4 0-.5 2.5-2.1 5.5-3.5l5.5-2.6v-8.2c-.1-8.5-2.4-30.9-3.4-32.6-.4-.5-1-3.1-1.5-5.6-1.2-6.5.2-10.9 4.3-13.5 3-1.8 4.6-3.8 4.6-5.7 0-.3-1.2.3-2.7 1.2-5.7 3.8-9.6 5.9-9 4.8 1.1-1.8-.3-4.2-2-3.6-1.1.4-1.4.2-.9-.5.5-.8 0-1.2-1.2-1.2-1.1 0-2.5-.7-3.2-1.5s-2.1-1.5-3.2-1.5c-1.7 0-1.8-.3-.8-1.5.7-.8.9-1.5.5-1.5s-.2-.7.5-1.5c1.1-1.3.8-1.5-1.3-1.5-3.5 0-4.1-1.3-1.7-3.5 2.6-2.3 2.6-3.9 0-3.2-1.9.5-1.9.4-.1-3.2 1.3-2.4 3.2-4.2 5.9-5.4 2.3-1 5-3.3 6.4-5.5 4-6 9.4-15.4 10.8-19.1 1.7-4.3 8.8-12.6 13.6-15.8 10.2-7 30.2-1.8 39.7 10.2 5.1 6.4 9.3 18.5 6.5 18.5-.8 0-1.8 1.4-2.3 3.2-1.1 3.5-6.5 7.3-7.7 5.4-.4-.7-1.6-.2-3.2 1.3-2.4 2.3-2.5 2.5-.9 5.1 1.6 2.7 1.5 2.8-2.7 7.1-2.3 2.4-4.9 5.4-5.7 6.6-1.4 2.1-1.6 2.1-3.9.6-1.7-1.1-2.4-1.2-2.4-.3s-.3 1-1.3.1c-.8-.6-1.7-.8-2-.4-1.1 1 4.3 5.4 9.2 7.5 6.4 2.7 10.7 7.2 13.2 13.7 1.1 3.1 2.9 6.5 3.9 7.6 3.3 3.6 6 9 6.1 12l.1 3 1.4-3.2c.8-1.8 3.6-4.9 6.4-7 3.8-2.9 4.8-4.1 4.4-5.8-.3-1.3.3-2.8 1.9-4.3 3.4-3.2 18.4-9 26.4-10.2 6.2-1 7.9-.8 16.7 1.4 11.5 3 31.4 11.1 40.6 16.6 3.6 2.1 9 6.4 12 9.4 3 3.1 5.9 5.6 6.5 5.6s1.2 1.2 1.3 2.6.9 5.2 1.7 8.4c2.2 8.5 1.8 16.6-1.5 34.5-4.2 22-3.9 21-9.8 31.1-7.1 11.8-18.8 21.8-22.9 19.5-1.3-.7-3.1-.2-6.7 1.6-7.1 3.6-12 3.6-14.9 0-2.1-2.7-2.3-2.8-6.7-1.6-8 2.1-15-.8-15-6.2 0-2.5-3.1-4.5-7.5-4.8-2.2-.1-5.5-1.1-7.3-2.1l-3.3-2-3 2.3c-2.5 1.8-4.4 2.2-10 2.2-6.8 0-6.9 0-6.9 2.6 0 8.8 5.9 59.1 9.6 81.1 1.4 8.4 2.6 18.6 2.7 22.6l.1 7.2H512V34l-3.2-.1h-3.3l3.3-1.6 3.2-1.7V0H378.1C264 0 244.1.2 243.7 1.4c-.6 1.5-6.4 3.2-7.4 2.2-.3-.3 0-1.2.7-2.1C238.1.2 225.7 0 119.1 0H0zm200.3-3.4c-2.2 2.3-8.3 3.7-8.3 2 0-1.4 8-5.2 9.3-4.4.5.3.1 1.4-1 2.4m-144.2.5c2.2.4 4.2 1.1 4.5 1.6.8 1.3-6.5-.1-9.6-1.9-1.4-.8-1.7-1.2-.7-.9s3.6.9 5.8 1.2m66.7 5.1c.2.9-.7 1.3-2.7 1.3-3 0-4.6-1.1-3.4-2.4 1.1-1.1 5.6-.2 6.1 1.1M49.9 28.5c0 .5-.6-.1-1.4-1.5s-1.4-3-1.4-3.5c0-.6.6.1 1.4 1.5s1.4 2.9 1.4 3.5m20.2 3.8c-1.3 1.3-2.6.3-1.6-1.2.3-.6 1.1-.8 1.7-.5.6.4.6 1-.1 1.7M31.5 47.4c4.2 1.8 4.6 3.6.8 3.6-2.6 0-6.3-2.5-6.3-4.2 0-1.2 1.6-1 5.5.6m191.1 2.1c1.8 1.3 1.8 1.4-.4.8-1.2-.3-2.5-.9-2.8-1.4-.8-1.4 1-1.1 3.2.6m-1.4 25c1.3 1.3-1.7 9.3-5 13.5-2 2.5-3.7 4.7-3.9 4.9-1.4 1.9-2.5-6.3-1.2-9.6 1.9-5.1 8.3-10.6 10.1-8.8m-95.4 12.1c1.2.4 2.2 1.1 2.2 1.6 0 1-3.9.1-5.4-1.3-1.2-1.1-.1-1.1 3.2-.3m5 4c5.7 1.6-1 6.2-7.2 5-4.7-.9-5.3-2.2-1.9-4 3-1.6 5.5-1.9 9.1-1m272.9 6c-.3.3-1.2.4-1.9.1-.8-.3-.5-.6.6-.6 1.1-.1 1.7.2 1.3.5m-383.9 16c.7.2 1.1.8.8 1.2-.8 1.3-6.4.2-7-1.4-.5-1.4 1.5-1.3 6.2.2M167 138c0 3-2.1 4.5-3.9 2.7-1.6-1.6-1.3-4.5.6-5.6 2.4-1.3 3.3-.5 3.3 2.9m161.6 6.7c-.6.6-13 4.1-15.1 4.2-1.9.2 3.9-3.2 6.9-4 4.1-.9 9.1-1.1 8.2-.2m-224.2 8c.6.7-6.5 3.3-9.1 3.3s-1.2-2 2-2.9c4.1-1.2 6.2-1.3 7.1-.4M147 214c1.1.7-.1 1-4.2 1-3.1 0-6-.5-6.3-1-.8-1.3 8.5-1.3 10.5 0m277.8 20.3c1.8 4.9 1.5 6.3-1.5 8.7-2.6 2-2.8 2-4 .4-1.8-2.4-1.6-7.5.3-10.2 2.1-3.1 3.8-2.7 5.2 1.1m-302.2 17.3c1.8 4.2 1.8 5.4-.1 5.4s-3.5-3.1-3.5-7c0-3.8 1.6-3.1 3.6 1.6m316.4-2.1c0 1.6-3.5 2.1-4.4.6-.8-1.2.4-2.1 2.6-2.1 1 0 1.8.7 1.8 1.5m-20.6 64.7c2.8 3.9 2.1 4.9-3 4.6-5.7-.4-8.1-3-5-5.4 2.9-2.1 6.3-1.7 8 .8m21.2 41.9c1 1.7-1.7 2.9-6 2.7-5.3-.4-5.9-2.6-.9-3.1 2.1-.2 4.3-.4 5-.5.6-.1 1.5.3 1.9.9"/><path d="M277.3 214.6c.4 6.9 1.1 11.2 2 12.3.8.9 1.7 2.3 2 3.2s2.5 2.3 4.9 3.2c2.4.8 5.2 1.8 6.2 2.3 1.9.7 1.9.6.4-1.5-.9-1.3-3-3.2-4.7-4.2-4.8-2.9-5.7-5.9-3.7-11.4l1.8-4.5-4.2-5c-2.3-2.8-4.4-5-4.7-5-.4 0-.3 4.8 0 10.6m14.8 37.6c-1.7 1.1-3.1 2.4-3.1 2.8 0 .5-.9 1.2-2 1.5s-2 1.3-2 2c0 4.3 11.6 6.2 16.1 2.7 1.3-1 3.2-2.1 4.2-2.5 3.5-1.3.9-4.3-5.9-6.9-3.9-1.5-4.4-1.4-7.3.4"/></svg>