<svg xmlns="http://www.w3.org/2000/svg" width="682.667" height="512" version="1.0" viewBox="0 0 512 384"><path d="M0 192v192h150.8l-1.4-6.2c-1.9-8.1-3.4-10.3-9.2-13.2-6.7-3.4-7.8-4.9-6.4-9.1.8-2.8.7-3.7-.4-4.3-1.2-.7-1-1.3 1-3.5 2.2-2.4 2.4-3.3 1.9-7.7l-.6-5.1 9.9-9.7c11.2-11 17.5-16 32-25.5 13.2-8.6 22.5-17.4 34.7-32.7 5.5-6.9 12.4-15.2 15.2-18.5s6.4-7.7 7.9-9.8l2.8-3.7-3.4-1.4c-4.2-1.8-5.4-3.2-7.1-8.1-1.2-3.4-1.9-4-6.1-5-2.6-.7-5.5-1.9-6.3-2.8-1.4-1.4-1-1.8 4.6-4.6l6.1-3.1-.5-10.3c-1.1-20.9-1.5-25.4-3.1-32.3-2.5-10.3-1.6-13.7 4.7-17.5 2.7-1.7 5.4-3.9 6-5 1.4-2.7.6-2.4-5 1.6-5.4 3.9-6.3 4.2-5.4 1.9.4-1-.1-1.7-1.6-2.1-1.1-.3-2.1-.9-2.1-1.4s-.7-.6-1.5-.2c-.9.3-2.2-.2-2.9-1.2s-1.8-1.5-2.5-1.1c-1.7 1.1-2.5-2.2-1-4.1 1.2-1.5 1.1-1.6-.8-1.1-2.8.7-5.2-1.7-3.5-3.4s1.5-4.1-.3-3.4c-4.4 1.6.9-7.4 6.3-10.9 5-3.2 10-10.2 15.3-21.4 3.9-8.3 11.7-16.5 17.8-18.8 10.8-4.1 23.3-.8 33.8 9 6.7 6.3 7.1 6.9 9.7 15.5.9 3.2 1.1 5.1.4 4.9-.6-.1-1.2.8-1.4 2.1-.5 2.7-3.4 7.5-4.2 6.7-.3-.3-1.4.3-2.4 1.2-1.4 1.2-2.1 1.4-2.6.6-.6-.9-1.6-.5-3.7 1.1-2.9 2.3-2.9 2.4-1.2 5 1.9 2.8 1.5 4.6-.9 4.6-.8 0-1.4.4-1.4.9 0 .4-1.3 2.2-3 3.9-1.6 1.8-3 3.6-3 4.2 0 .5-1.6.9-3.5.7-2-.1-3.5-.7-3.5-1.5 0-1.5-1.6-1.6-2.5-.1-1.1 1.6 2.5 4.9 8.2 7.6 7.1 3.4 11.9 8.3 13.6 14.1.8 2.6 3 7 5 9.9 1.9 2.8 3.8 6.8 4.1 9 .7 3.5 6.2 13.7 10.4 19.1l1.8 2.3 5.2-2.9c4.6-2.5 5.1-3.1 3.7-4.2-3.5-2.9-.6-6.2 7.5-8.3 3.5-.9 5.4-1.9 5.2-2.7-.5-2.2 1.9-3 9.1-3 8.6 0 21.3 3.3 29.1 7.5 3.4 1.9 8.1 3.9 10.6 4.5 11 2.9 29.3 12.3 43.8 22.5l2.2 1.6-2.9 5.7c-1.6 3.1-4.3 8.8-6 12.5-3.6 8.1-9.7 17-19.6 28.7-3.9 4.7-8.6 10.6-10.4 13.3-4.3 6.3-11.9 11.9-21.4 15.6-9.2 3.7-11.7 3.9-11.7 1.1 0-1.9-.4-2-7-1.4-7.9.8-10.5-.4-9.6-4.2.8-2.9-.8-4-6.9-4.8-2.9-.4-5.8-1.4-7-2.6-1.7-1.8-1.8-2.4-.7-5.2 2-5.3.2-6.2-12.8-6.2-9.3-.1-10.9.1-10.5 1.4.2.8 1.3 13 2.4 27 2.8 34.9 3.8 43.9 6.7 63 1.6 10.3 2.3 18.1 1.9 20.7l-.6 4.3H512V0H0zM34.5 5.2c2.8.6 4.4 1.3 3.7 1.6-2.2.7-9.8-.8-11.8-2.4-1.8-1.5-1.8-1.5.6-1 1.4.4 4.8 1.1 7.5 1.8m63.6 10.9c2.5 1.3 1.4 3.2-1.4 2.3-2.8-.8-3-1.1-2.2-2.3.8-1.4 1.1-1.4 3.6 0M63 18.5c0 .8-.7 1.5-1.5 1.5-1.6 0-2-1.2-.8-2.3 1.1-1.2 2.3-.8 2.3.8m-31.9 3.7q.9 1.8 0 1.8c-.6 0-1.8-1.5-2.7-3.3-1.6-3-1.6-3.1 0-1.8.9.8 2.2 2.3 2.7 3.3m466.6-1.1c-7.7 3.4-13.9 3.8-7.7.5 4.5-2.4 7.7-3.4 11.5-3.5 2.4 0 1.7.5-3.8 3m-475 18.1c1.7 1.3.7 2.8-1.8 2.8S13 39.3 13 38c0-1.2 7.9-.2 9.7 1.2M205 45c.8.5 1.2 1.1.9 1.4s-1.4-.1-2.5-.9c-2.1-1.6-.8-2 1.6-.5m-31 21.2c-.1 2.8-4 9.5-7.4 12.7l-3.6 3.5v-2.8c0-3.9 2.7-9.2 6.2-12.1 3.3-2.8 4.8-3.2 4.8-1.3M115 78c1.8 1.2.2 1.2-2.5 0-1.3-.6-1.5-.9-.5-.9.8 0 2.2.4 3 .9m-14.1 12.9c3.5 2.2-2.1 6.4-7.2 5.4-3.8-.7-4.2-2-1.5-4.3 2.4-2.1 6.4-2.5 8.7-1.1m277.7 2.6c-2.2 1.7-3.6 1.9-3.6.7 0-1.4 1.2-2.2 3.4-2.2 2.1.1 2.1.1.2 1.5M8.8 104c.6 0 1.2.7 1.2 1.5 0 1.7-2.3 2-5.1.5-2.7-1.5-2.4-3.4.4-2.6 1.2.3 2.8.6 3.5.6M502 128.9c0 4.5-2.6 8.2-7.2 10.5-4.2 2.1-4.8 2-4.8-.9 0-4.7 2.7-9.3 6.7-11.4 5.1-2.7 5.3-2.7 5.3 1.8m-352.4 1.6c.7 2.7-.9 5.5-3.1 5.5-2.1 0-2.6-4.2-.8-6.2 2.2-2.4 3.1-2.3 3.9.7m141.9-.6c-.3.5-2.7 1.7-5.3 2.7s-5.3 2.2-6 2.7c-2 1.6-2.7-.1-.8-2.2 2.4-2.6 13.6-5.6 12.1-3.2M88 134.8c0 1.1-6.9 3.2-10.4 3.2-3.4 0-3.3-1.6.2-2.8 3.4-1.3 10.2-1.5 10.2-.4m410.7 25.8c.2 8.4-1.5 9.2-2.4 1.1-.4-3.5.8-8.7 2-8.7.1 0 .3 3.4.4 7.6m-381 47c1.3.4 2 1 1.7 1.5-1 1.7-12.4.6-12.4-1.2 0-1 7.3-1.2 10.7-.3m-7.7 31.5c0 3.2-1.9 3.9-4 1.4-.8-1-1-2.8-.5-5.2l.7-3.8 1.9 2.4c1 1.3 1.9 3.6 1.9 5.2m311.4 1c-.8 1.4-3.4 1.1-3.4-.4 0-.8.3-1.7.7-2 .9-.9 3.4 1.3 2.7 2.4m-34 64.1c.8 3.9-.3 5.1-4 4.6-5.4-.6-3.8-7.8 1.7-7.8 1.1 0 1.9 1.1 2.3 3.2m30.6 29.7c0 1.2-2.6 2.1-6.1 2.1-3.9 0-3.7-1.8.4-2.3 1.7-.2 3.8-.5 4.5-.5.6-.1 1.2.2 1.2.7"/><path d="M280.3 214.6c.4 8.5 1 12 2.1 13.3.9 1 1.6 2.5 1.6 3.3 0 1.1 2.1 2.3 6.3 3.7l6.2 2.2 1.8-2.2c2.4-2.9 2.2-4.1-1.3-7.4-2.1-2-3-3.8-3-6.1 0-1.7-.7-3.7-1.5-4.4s-3.5-4.1-6-7.6c-2.6-3.5-5.1-6.4-5.7-6.4-.8 0-.9 3.5-.5 11.6m20.7 38.3c-1.9.4-5 1.5-6.9 2.4s-4.1 1.7-5 1.7c-1.3.1-1.2.3.4 1.2 2.5 1.5 9.1 2.7 10.2 1.9.8-.5 5.6-8.3 5-8-.1.1-1.8.4-3.7.8"/></svg>