<svg xmlns="http://www.w3.org/2000/svg" width="682.667" height="512" version="1.0" viewBox="0 0 512 384"><path d="M0 10.4c0 7.4.4 10.6 1.3 11 1 .5.9.7-.1 1.2C.3 23 0 60.2 0 203.6V384h82.5c45.4 0 82.5-.2 82.5-.5 0-.8-8.1-4.2-14.1-5.9-8.8-2.5-9.9-3.8-10.8-12.9-.5-6-1.1-8-2.6-9.1-6.4-4.4-6.8-5.1-5.4-7.7.8-1.3 2-3.1 2.7-4.1 1-1.1 1.2-3.3.7-7.3l-.6-5.7 10.3-10.5c13-13.3 18.9-17.8 32.7-25.3 6.1-3.2 13.9-7.8 17.4-10.1 7.4-4.9 37.9-35.6 44.4-44.7l4.5-6.4-3.5-2.9c-2.5-2.1-3.9-4.3-4.8-7.9l-1.3-5h-5.2c-3.6 0-5.9-.6-7.5-1.9l-2.4-1.9 7-3.4 7-3.3-.1-17.1c-.1-12.5-.6-18.9-2-24.3-1.3-5.8-1.5-8.2-.7-11.2.5-2.1.6-3.6.2-3.3-.5.3-.9.2-.9-.3.1-.4 2.1-2.3 4.5-4.1 5.2-3.8 6-6 1.3-3.3-1.8 1.1-5.3 2.2-7.8 2.6-4 .7-4.3.6-3.1-.8 1.7-2.1.5-4-2-3.2-1.4.5-1.7.3-1.3-.9s0-1.6-1.6-1.6c-1.1 0-1.9-.4-1.5-.9.3-.5-.4-1.3-1.6-1.6-1.2-.4-1.8-1.2-1.5-2 .3-.9 0-1.2-1-.8-1.2.4-1.3.1-.5-2.1.9-2.1.7-2.7-1-3.7-2.1-1.1-2.1-1.1.8-3.8 1.5-1.5 3.7-3.1 4.8-3.5 1.9-.7 1.9-.8.1-1.8-1.4-.8-2.6-.6-5 .7l-3.1 1.8 2.9-3.1c1.6-1.7 5.1-3.9 7.7-4.7 5.8-2 14-10.8 18.2-19.6 5.3-11 20-20.2 29.5-18.4 12 2.2 25.3 11.5 29 20.3 2.5 5.8 3.9 13.8 2.3 12.8-.7-.4-1.1.1-1.1 1.3 0 2.9-1.1 5.1-2.5 5.1-.7 0-1.5.7-1.9 1.5-.3.8-1 1.5-1.5 1.5-.6 0-.7-.8-.4-1.7.5-1.3.1-1.1-1.8.6-1.3 1.2-3.6 2.9-5.1 3.7-2.8 1.5-3.7 4.7-1.7 5.9.6.4-.6 2.1-3 4.2-2.3 1.9-4.1 4.3-4.1 5.4 0 1-.3 1.8-.7 1.7-.5 0-1.6.2-2.7.7s-2.6.3-3.8-.4c-1-.6-2.3-.9-2.9-.5-1.5.9 2.8 5.2 7.6 7.6 6.6 3.3 10.4 7.6 12.4 14.3 1 3.3 3.4 8.4 5.2 11.4 2.7 4.3 3.3 6.4 3.5 11.4.1 5.1.9 7.9 4.9 16.2 2.6 5.5 6.4 12.2 8.5 15 2 2.7 5.6 7.6 7.9 10.7 2.3 3.2 4.9 5.8 5.8 5.8 1.2 0 1-.8-1.1-3.5-1.5-1.9-2.4-4-2-4.6.6-1 5.4-.6 9.1.8 1.3.5 1.3.1-.2-2.7l-1.7-3.3 3.3.6c1.9.3 4.3.9 5.3 1.3 1.4.5 1.7.4 1.2-.4-.4-.7-.4-1.2-.1-1.2 1.3 0 9.3 4.4 14 7.8 6.9 4.9 11.8 6.8 20.9 8.2 12.7 1.9 31.3 9 57.6 21.8 13.5 6.6 25.4 12.2 26.5 12.5 1.1.2-.2.3-2.9 0-2.7-.2-7.2.3-10 1.1s-10.3 2.4-16.6 3.6-13.3 2.6-15.5 3.1c-2.2.4-5.1 1.1-6.5 1.3-1.4.3-3.6.8-5 1.1-7.4 1.6-28.3 2.1-38.5 1-5.1-.5-7.6-.1-16.5 2.5-5.8 1.8-12 3.4-13.9 3.6-1.9.3-4 1.2-4.6 2.1-.7.9-1.7 1.3-2.3.9-1.5-.9-1.6-4.6-.2-4.6.6 0 1-.6 1-1.3q0-1.35-3.3-.9c-2.2.2-3.8-.2-4.6-1.2-1.1-1.3-.8-1.8 2-3.5 3.5-2.2 3.5-2.2-3.9-4.1-6.2-1.6-5.5-3.9 2.3-7.4 2.5-1.2-3.2-3.6-8.4-3.6-3.1 0-7.3-.5-9.4-1.1-2.2-.6-4.1-.8-4.5-.5-.3.4 0 4.1.6 8.4 2.3 15.1 10.9 105.8 10.4 110.4l-.4 4.8H512V0H258.9C56.8 0 6 .3 6.6 1.2c.6 1 .4 1-.7 0C5.2.6 3.6 0 2.3 0 0 0 0 .2 0 10.4m456.9-5.8c-4.1 4.5-13.9 9.8-13.9 7.5 0-1.4 6.6-7 10-8.5 5.4-2.3 6.7-2 3.9 1M54 23c0 1.9-1.9 2-2.9.1-1.6-2.8-1.4-3.3.9-2.1 1.1.6 2 1.5 2 2m19 10c1.8 1.2.2 1.2-2.5 0-1.3-.6-1.5-.9-.5-.9.8 0 2.2.4 3 .9m96.5 3c.3.5.1 1-.4 1-.6 0-1.1-.5-1.1-1 0-.6.2-1 .4-1 .3 0 .8.4 1.1 1M85 50.7c0 1-9.2 10.3-10.2 10.3-1.4 0 1-3.8 4.8-7.5 3.3-3.3 5.4-4.4 5.4-2.8m7 9.3c0 .5-.7 1-1.5 1s-1.5-.5-1.5-1c0-.6.7-1 1.5-1s1.5.4 1.5 1m256 4.5c0 .2-1 .9-2.2 1.5-2.2 1.1-2.2 1-.4-.4 2.1-1.7 2.6-1.9 2.6-1.1m-21 22.9c0 2.1-2.1 3.1-3.1 1.5-1.4-2.2-1.1-2.9 1.1-2.9 1.1 0 2 .6 2 1.4M52 102c0 .5-2 2.1-4.5 3.5-3.4 2-5.2 2.5-7.5 2-4-.9-3.8-2 .8-4.4C44.6 101 52 100.3 52 102m169 .6c0 1.9-5.6 7.4-7.6 7.4-.8 0-1.4-1-1.4-2.5 0-1.8 1-3.1 3.3-4.5 3.9-2.4 5.7-2.5 5.7-.4m225 2.4c0 4.2-6 10.4-11.1 11.5-2.5.6-2.9 1-2.3 2.8.3 1.2 1.2 3.2 2 4.4 1.6 2.5 1.9 7.3.5 7.3-1.1 0-5.1-8-5.1-10.1 0-.8-.5-2-1.1-2.6-1.4-1.4 1-7 4.2-10 3.5-3.2 12.9-5.6 12.9-3.3m-419.2 3.2c.4 3.1-2.7 5.3-5.9 4.3-3.5-1.1-.3-7.8 3.5-7.3q2.1.3 2.4 3m429.4 11.2c4.1 2.1 5.7 4.6 3 4.6-1.8 0-6.1-2.6-7.4-4.4-1-1.4-1-2.9 0-2.4zM106 128.8c0 3-1.6 5.2-3.7 5.2-1.6 0-1.7-5.2-.1-6.8 2.1-2.1 3.8-1.4 3.8 1.6m-33.2 58.4c2 2 1.4 2.8-1.9 2.8-3.4 0-6.9-1.5-6.9-3 0-1.4 7.4-1.2 8.8.2M225 201c0 .5-.4 1-1 1-.5 0-1-.5-1-1 0-.6.5-1 1-1 .6 0 1 .4 1 1M72.8 215.2c.7.7 1.2 2.7 1.2 4.5 0 3.6-1.8 4.4-4.4 1.8-1.2-1.2-1.3-2.2-.4-4.5 1.1-3.3 1.8-3.6 3.6-1.8m314.7 2.9c.4 1.1.4 2.3 0 2.7-.7.7-2.5-1.7-2.5-3.6 0-2 1.8-1.4 2.5.9m-179 17.9c-.9 1.6-2 3-2.5 3-1.4 0-1.2-.8.8-3.5 2.4-3.4 3.6-3.1 1.7.5m-1.5 10.5c0 1-1 1.5-2.9 1.5-3.2 0-5-1.5-2.9-2.3 2.7-1.1 5.8-.7 5.8.8m168.2 45.7c-1.2 1.2-4.4.7-4.9-.8-.2-.7.8-.9 2.7-.6 2.1.3 2.8.8 2.2 1.4"/><path d="M286 217.3c0 7.4.3 8.6 2.3 10.4 1.2 1.1 3 2.3 3.9 2.6 1.1.4 1.5 1.2 1.2 2.2-.5 1.1.8 2.2 4.7 4 3 1.3 5.5 2 5.7 1.5s-2.6-5.5-6.1-11.2c-3.6-5.7-7.3-12-8.3-14.1-1-2-2.1-3.7-2.6-3.7-.4 0-.8 3.7-.8 8.3"/></svg>