<svg xmlns="http://www.w3.org/2000/svg" width="682.667" height="512" version="1.0" viewBox="0 0 512 384"><path d="M0 192v192l81.3-.1c57 0 80.5-.3 78.7-1.1-6.7-2.7-7.5-3.6-8.3-8.5-.4-2.6-.9-6.3-1.2-8.1-.6-3.5-2.9-6.1-9-10-6.2-4-6.9-4.9-5.7-7.7.6-1.4.9-3.1.6-3.9-.3-.7.9-2.5 2.6-4 3-2.4 3.1-2.9 2.1-5.8-1-2.7-.8-3.6 1-6.2 2.2-3.3 13-12.2 23.9-19.8 6.1-4.3 23.7-14.8 24.8-14.8 2 0 21.3-15.9 24.1-19.9l2-2.7-3 .4c-3.9.6-3.9-2.2.1-4.3 3.7-1.9 4.8-1.9 5.2 0 .4 2.1 26.9-29.5 28.3-33.7.3-.9-.4-2.7-1.9-4.2-1.3-1.5-3.1-5.3-3.8-8.4-.9-3.5-2-5.6-2.7-5.4-6.3 1.4-10.3 1.3-12.6-.2-1.4-.9-2.5-2.1-2.5-2.6 0-.4 2.5-1.8 5.5-2.9 3.1-1.2 6.7-2.9 8.2-3.8l2.6-1.7-.6-16.6c-.4-10.5-1.1-18.3-2.1-21.5-.9-2.8-1.6-6.9-1.6-9.3 0-3.6.6-4.8 3.3-7.4 1.7-1.7 2.4-2.8 1.5-2.5-1.2.4-1.5.2-1.1-.9.3-.7 0-1.4-.7-1.4-.9 0-.9-.4.1-1.7 1.3-1.7 1.2-1.7-1.3 0-2.4 1.5-2.8 1.5-2.8.2 0-.8-.5-1.5-1-1.5-.6 0-1.6-.5-2.3-1-.7-.6-2.3-1.9-3.6-3-1.6-1.3-2.2-2.6-1.8-4 .3-1.2 0-2-.7-2s-1.7-.5-2.3-1.1c-1.2-1.2.7-3.6 6.1-7.7l3-2.2h-3.5c-1.9 0-4.1.6-4.8 1.2-1.1 1.1-1.3 1-.7-.5.3-1 .6-2 .6-2.3 0-.2 1.7-1.2 3.8-2.3 6.3-3.3 11.8-10.4 17.8-23.2 2.4-5.2 10.9-12.9 17.5-15.8 5.7-2.7 11.3-2.6 19.6.1 5.8 1.9 7.8 3.3 13.9 9.3 7.3 7.3 8.5 9.7 10 19.9.5 3.5.4 4.7-.5 4.2-.7-.4-1.1 0-1.1 1.3 0 2.2-5.2 6.9-5.8 5.2-.2-.6-1.8 0-3.6 1.4-3.5 2.7-5.2 3.2-4 1.3.4-.6.3-.8-.3-.5-1.7 1-3.3 6.6-2.2 7.2 1.5 1 1 2.1-1.6 3.3-1.6.7-2.8 2.3-3.1 4.1-.4 1.7-1.1 2.8-1.8 2.5s-2 .4-3 1.5c-1.7 1.9-2 1.9-4.8.5-6.8-3.5-2.3 1.4 8.2 8.9 5.4 3.9 8.7 8.6 9.6 13.6.4 2 2.2 6.1 4.1 9.2 4.4 7.2 5.1 11.6 2.8 17.5-1.8 4.6-1.7 4.7 1 14.5 2.5 8.6 3.8 11.2 10.5 20.6 7.5 10.7 9.6 12.5 15.5 13.8l3 .6-2.9-2.6c-3.7-3.4-2.9-4 1.9-1.4 3.6 1.9 3.8 2 2.5.3-1.4-1.8-1.4-1.8 1.5 0 1.7 1.1 6.9 4.8 11.8 8.2 9.2 6.6 9.7 6.8 27.2 9.4 13.1 1.9 30.5 8.3 56.5 20.9 28.7 13.9 44.4 21.1 46.2 21.1 1.4.1 8.8 3.9 7.6 4-.3 0-4.2-.7-8.5-1.6-4.3-.8-10-1.7-12.8-2-2.7-.2-8.1-.9-12-1.4-3.8-.5-10.6-1.2-15-1.5-38.3-3-59.8-7.4-75.5-15.6l-6.5-3.4-15-.1c-8.2 0-16.3-.5-18-1.1-2.5-.9-2.6-1.1-.8-1.2 3.3-.1 3.7-2 .6-2.7-5.5-1.2-6.3-1.6-5.8-2.5.4-.5 2.2-.9 4.1-.9 5.5 0 3.9-1.7-3.8-4.1-14.2-4.2-16.3-4.8-16.6-4.4-.2.1.4 3.6 1.2 7.6.8 4.1 2.2 12.8 3.1 19.4 2.5 18.7 7.2 46.1 11.5 67.7 2.4 11.8 4 22.5 4 26.8v7h196l-.1-192.3C511.8 86 511.4 1 511 2.8c-1.1 4.5-3 6.4-3.1 3.1-.1-1.3-.1-3.2 0-4.2.2-1.6-2.6-1.7-45.8-1.7-32.5 0-46.1.3-46.1 1.1 0 2.2-6.3 9.8-8.7 10.4-1.4.3-2.8.4-3 .1-.7-.7 5.4-9.3 7.5-10.5 1.1-.7-65.8-1-205-1.1H0zM21.9 25.4c-.3.3-1.1-.5-1.8-1.7-1.3-2.1-1.2-2.1.5-.5 1 1 1.6 2 1.3 2.2M48 25c1.2.8 1.2 1-.5 1-1.1 0-2.7-.5-3.5-1-1.2-.8-1.2-1 .5-1 1.1 0 2.7.5 3.5 1m97.5 4c.3.5.1 1-.4 1-.6 0-1.1-.5-1.1-1 0-.6.2-1 .4-1 .3 0 .8.4 1.1 1M23.1 38.7c-1.4 1.6-3.9 4.4-5.4 6.3S15 48 15 47.4C15 46 23.8 36 25 36c.5 0-.4 1.2-1.9 2.7M323 51.5c-1.3 1.4-2.6 2.2-2.9 1.9s.5-1.4 1.9-2.4c3.4-2.7 3.8-2.5 1 .5M23.3 78.6c.7.7-2.9 6.3-4.8 7.6-1.2.9-8.5 1.1-8.5.3 0-1.5 3.6-5.8 5.9-7 2.8-1.5 6.3-1.9 7.4-.9m147.1 5c1.1 3 .6 5.3-1.9 8.1-2.1 2.4-2.6 2.6-3.5 1.3-2.5-3.6-2.4-6.3.4-8.7 3.2-2.7 4.2-2.9 5-.7M384.2 95c1.7 2.9 1.9 3 7.3 2.4 4.5-.6 5.5-.4 5.5.8 0 2.3-3.6 6.4-6.7 7.6-4.3 1.7-11.3 3.1-11.8 2.3-.2-.4.5-2.2 1.5-3.9 1.5-2.5 1.8-4.2 1.3-7.7-.7-5.2.5-5.8 2.9-1.5m122.6 12.2c2 2 1.4 2.8-2.2 2.8-3.8 0-5.7-1.7-3.5-3.1 2-1.2 4.3-1.1 5.7.3m-93.4 2.3c4.3 1.8 4.9 3.8.9 2.9-3.8-.9-6.3-2.3-6.3-3.4 0-1.4 1.2-1.2 5.4.5M69.1 131.7c.9 2.4-1.4 6.3-3.7 6.3-1.8 0-1.9-4.3-.2-7 1.5-2.4 2.8-2.2 3.9.7m-23.3 35.5c.3 2.4 0 2.8-2.2 2.8-3 0-4-1.3-3.1-4.1 1-3.1 4.9-2.1 5.3 1.3M363 205.3c0 1.8-.2 1.9-1 .7-1.3-2-1.3-4.3 0-3.5.6.3 1 1.6 1 2.8m-322.2 4.9c1.2 1.2 1.6 5 .6 6.1-1 .9-6.4-1.4-6.4-2.8 0-4.1 3.2-5.9 5.8-3.3M183.5 227c-1 1.1-2.3 2-2.8 2-.6 0 0-1.1 1.3-2.5 2.7-2.9 4.2-2.5 1.5.5m-11.7 16.7c.2.9-.7 1.3-2.7 1.3-3.1 0-4.2-1.4-1.8-2.3 1.9-.8 4-.3 4.5 1m316 87.9c2.1 1.4 3 5.8 1.4 6.7-1.4 1-9.2-4.5-9.2-6.4 0-2.4 4.5-2.6 7.8-.3m5.9 39.7c2.4 2.4-8.2 3.9-14.1 2.1-2-.6-2-.7 0-2.1 1.9-1.5 12.6-1.5 14.1 0"/><path d="M290 223.9c0 .5.5 1.3 1 1.6.6.3 1 .2 1-.4 0-.5-.4-1.3-1-1.6-.5-.3-1-.2-1 .4m33 18.1c0 .5.5 1 1.1 1 .5 0 .7-.5.4-1-.3-.6-.8-1-1.1-1-.2 0-.4.4-.4 1"/></svg>