<svg xmlns="http://www.w3.org/2000/svg" width="682.667" height="512" version="1.0" viewBox="0 0 512 384"><path d="M0 18.7c0 17.9.1 18.7 1.8 16.8.9-1.2 2.6-2.7 3.6-3.5 1.8-1.4 1.8-1.4.9.5-.6 1.1-2.3 3.1-3.7 4.4L0 39.3V384h79.5c77.8 0 79.5 0 78.6-1.9-.6-1-1.4-4.4-1.7-7.4-.9-7.3-3.2-11-9.7-15.1-7.1-4.6-8.1-5.9-6.7-8.6.8-1.5.8-2.5.1-3.4-.8-.9-.1-2.1 2.3-4.4 3.2-3 3.3-3.4 2.3-6.2-.9-2.5-.9-3.6.3-5.8 2-3.5 25.6-21.4 38.8-29.3 18.9-11.4 28.4-20.3 44.7-41.9 2.7-3.6 7-8.8 9.5-11.6 2.6-2.8 6.2-7.6 8.2-10.5l3.6-5.4-2.4-2.8c-1.4-1.6-3.2-5.6-4.1-8.9l-1.7-6-3.5.8c-5.6 1.2-8.9.9-11.1-1.1-2.4-2.2-2-2.6 4.5-5 2.8-1 6.3-2.7 7.9-3.8l2.9-2-.6-15.1c-.4-8.8-1.3-17.2-2.2-20.1-.8-2.8-1.5-7.4-1.5-10.4 0-4.5.5-5.9 3-8.8 1.7-1.8 3-3.8 3-4.2 0-1.2-2.9-2.3-4.1-1.5-.5.3-.9 0-.9-.5 0-.6-.7-1.1-1.5-1.1s-1.5-.5-1.5-1c0-.6-.7-1-1.5-1-.9 0-2.7-.7-4.1-1.6-2.3-1.6-2.4-1.8-.9-4 1.3-2.1 1.3-2.3-.4-1.9-1 .2-2.4-.1-3.1-.5-1.2-.7-1.1-1.2.3-2.8.9-1 1.4-2.2 1-2.5-.3-.4 0-.7.9-.7.8 0 2.5-1.2 3.9-2.6l2.4-2.7-3.4.7c-1.9.3-4.3 1.4-5.4 2.4-1.9 1.7-1.9 1.7-.3-1.5.9-1.8 2.9-3.9 4.4-4.7 5.3-2.8 11-10.5 17.4-23.7 3.1-6.1 10.4-12.9 17.7-16.2 9.6-4.3 22.8-.3 33.8 10.2 5 4.8 6.4 6.8 7.7 11.2 2.2 8.3 2.9 13.2 1.7 12.4-.6-.3-1.1.1-1.1 1 0 2.1-6.2 7.8-7 6.5-.4-.6-2.1 0-4.1 1.5-5.6 4-6.1 4.6-5.5 7 .4 1.7-.1 2.7-1.9 3.9-1.6 1-2.5 2.6-2.5 4.2 0 2-.4 2.4-1.8 2-1.2-.4-2.6.1-3.7 1.4-1.7 1.9-2 1.9-4.2.4-1.4-.8-2.7-1.3-3.1-1-1 1 3.9 5.5 9.4 8.5 6.6 3.8 8.9 6.8 11.4 14.8 1.1 3.6 2.8 7.7 3.8 9.1 4.8 7.1 5.4 13.6 2 20.7l-2.2 4.5 2.3 9.4c1.9 8.1 3 10.5 8.2 17.7 3.3 4.6 6.8 9.6 7.7 11.1 1.4 2.3 4 3.8 11.7 6.7.5.2-.3-1-1.9-2.8-3.1-3.2-2.5-4.2 1-1.6 2.6 2 3.9 1.9 2.3-.3-1.6-2-2.2-2.4 9.6 6.5 11.5 8.7 14.5 9.9 28 11.8 7.5 1 16.2 3.1 23.6 5.6 11.7 3.9 34.7 13.9 42.3 18.4 5.2 3 37.3 18 44.6 20.7 3 1.2 6.8 3 8.5 4l3 1.8-3.5-.6c-1.9-.3-5.9-1.2-8.7-2-6.6-1.8-28.5-5.6-51.3-8.8-34.6-4.9-52.1-10-70.9-20.6-4.2-2.4-6.6-3-11.1-3-3.1 0-10.6-.3-16.6-.7-9.7-.6-10.6-.8-8-1.8l2.8-1.2-4.8-1.3-4.9-1.2 3.3-1.2c2.6-.9 3-1.4 2-2.4-.6-.6-2.1-1.2-3.2-1.2-1.2 0-5.2-1.1-9.1-2.4-3.8-1.4-7.1-2.3-7.3-2.1-.3.2.5 5.5 1.7 11.7 1.1 6.2 2.5 15.3 3.1 20.3 2.4 20.8 6 40.5 12.1 67.2 2.4 10.6 3.9 19.7 3.9 23.7v6.6h194V.1L456.6 0h-55.4l-.7 3.1c-.4 1.7-.4 3.3-.1 3.6.7.7-8.7 7.2-9.6 6.6-1-.5 2.8-8.1 5.5-11.1l2-2.2H0zM40 22c1.2.8.9 1-1.2 1-1.5 0-3-.5-3.3-1-.8-1.3 2.5-1.3 4.5 0m-28.5 1c.3.6-.1.7-.9.4-1.8-.7-2.1-1.4-.7-1.4.6 0 1.3.4 1.6 1M315 47.5c-1.3 1.4-2.8 2.5-3.3 2.5-.6 0 0-1.1 1.3-2.5s2.8-2.5 3.3-2.5c.6 0 0 1.1-1.3 2.5M14 72.2c0 3.2-4 7.7-7.4 8.3-4.9 1-6.1-.1-4.1-3.3 1-1.5 2.6-3.5 3.7-4.5 2.3-2 7.8-2.3 7.8-.5m140.5 7.1c.6 3.3-.6 8-2.4 9.1-1.1.7-5.1-4-5.1-6.2 0-1.9 3.9-6.2 5.6-6.2.7 0 1.6 1.5 1.9 3.3M367 85.9c0 2 8.1 9.1 10.4 9.1 3.7 0 3.9 1.5.9 5.1-3.2 3.7-7.8 5.9-12.8 5.9-4.5 0-4.5-1.5.1-6.8l3.6-4.2-2.1-2.6c-2.2-2.8-2.9-7.4-1.1-7.4.6 0 1 .4 1 .9m32.3 20.2c4.6 1.3 5.1 3.4.5 2.5-1.8-.4-3.9-1.3-4.8-2.1-1.7-1.8-.8-1.9 4.3-.4m95.6.8c1.8 1.2.5 3.1-2.2 3.1-2.9 0-5.1-1.5-4.3-2.9.8-1.3 4.5-1.4 6.5-.2M56.6 133.4c.7 2.9-1.1 6.6-3.1 6.6-1.9 0-2.1-6-.3-7.8s2.7-1.5 3.4 1.2m-19 26c1 4.2-2 6.3-4.5 3.2-.9-1.1-1-2-.1-3.5 1.5-2.8 3.8-2.6 4.6.3m317.4 41c0 .6-.7.2-1.5-.8-.8-1.1-1.5-2.5-1.5-3 0-.6.7-.2 1.5.8.8 1.1 1.5 2.5 1.5 3m-324.8 9c.4.6.8 2.2.8 3.5 0 2.1-.3 2.3-3.2 1.7-4.4-.9-5.1-1.8-3.8-5 .8-2.2 1.4-2.6 3.3-2 1.2.4 2.5 1.2 2.9 1.8m144.2 16.3c-3 2.2-3.9 1.5-1.3-1.3 1.5-1.6 2.5-2.1 2.8-1.3.2.7-.4 1.8-1.5 2.6M161.5 241c.4.6-.7 1-2.7 1-2.5 0-2.9-.3-1.8-1 1.9-1.3 3.7-1.3 4.5 0m34.5 32.6c0 1.5-3.8 3.4-7.1 3.4-3.1 0-2.2-1.8 1.9-3.9 3.9-2 5.2-1.9 5.2.5M470.8 328c2.5 1.5 3.2 2.7 3.2 5 0 1.6-.2 3-.4 3-1.4 0-9.6-6.3-9.6-7.4 0-3.1 2.3-3.3 6.8-.6m8.2 35.1c1.2.6.8 1-1.5 1.9s-4.3.9-8.4 0c-5.1-1.2-5.7-2.3-1.6-3.3 2.4-.5 9.4.3 11.5 1.4"/><path d="M318 241c0 1.4 3.8 3.2 5.8 2.8 1.3-.3.9-.8-1.5-2.1-3.7-2-4.3-2.1-4.3-.7"/></svg>