<svg xmlns="http://www.w3.org/2000/svg" width="682.667" height="512" version="1.0" viewBox="0 0 512 384"><path d="M0 192v192h164.2l-.7-3.3c-2.2-10.8-4-13.4-12.7-17.8-4.4-2.2-5.6-4.2-3.8-6.4.6-.8.9-2.3.5-3.4-.4-1.5.2-2.9 2-4.7 2.3-2.3 2.5-3 1.6-5.1-1.6-3.6-1.4-5.3 1.4-8.9 3.3-4.3 25.8-22.8 37.5-30.9 16.5-11.3 24.6-19.8 38.9-40.8 1.8-2.7 7.1-9.5 11.6-15.2 11.4-14.2 11.2-13.7 8.1-19.4-1.4-2.6-2.8-6.7-3.2-9l-.7-4.3-4.1.6c-2.3.3-5 .8-6.1 1.1-1.3.4-3.1-.2-4.9-1.6l-2.8-2.2 2.3-1.3c1.3-.7 3.1-1.3 4-1.4.8 0 3.7-1.4 6.4-3.1l4.8-3.1-.6-15.1c-.5-9.8-1.4-18.2-2.7-23.6-2.3-9.3-2-11 2.1-16.1 3.3-4 3.7-5.5 1.2-4.6-1.5.5-1.5.4.1-.9 2.6-2 .7-1.9-2.2 0-2 1.4-2.1 1.4-1.6 0 .4-.9.1-1.5-.9-1.5-.8 0-1.7-.5-1.9-1-.2-.6-1.3-1.2-2.6-1.3-1.2 0-2.2-.7-2.2-1.5 0-.7-.5-1-1-.7-1.2.7-.9-2.3.4-4.4.7-1.1.4-1.3-1.7-.7-3.2.8-4.4-.9-2.3-3.3.9-1 1.3-2.1.9-2.4-.3-.4 0-.7.8-.7.9 0 2.8-1.4 4.5-3.2 1.6-1.7 2.4-2.8 1.8-2.5s-2.3.8-3.8 1.1c-1.6.3-3.7 1.3-4.7 2.2-1.3 1.2-1.9 1.3-1.9.5 0-1.3 3.5-4.8 10.7-10.8 3.7-3 5.3-5.5 11.5-17.3 3.4-6.6 11.2-14.1 18.1-17.6 6.5-3.3 14.5-3 22.9.8 6.6 3.1 15.2 10.7 17.8 15.8 2.7 5.2 5.1 18.8 3.1 17.6-.5-.3-1.2.4-1.5 1.7-.7 2.7-5.8 6.6-6.4 4.9-.2-.8-1.5-.3-3.6 1.3-1.8 1.4-3.8 2.5-4.4 2.5-1.1 0-1.3.6-1.6 5-.1.8-1.1 2.5-2.3 3.7-1.3 1.3-2.3 3.5-2.3 5-.1 2.3-.2 2.5-1 1.1-.9-1.5-1.3-1.4-3.6.8-2.4 2.5-2.6 2.5-5 .9-1.4-.9-2.8-1.5-3-1.2-.6.5 7.3 7.5 12.5 10.9 4.2 2.8 7.3 7.9 8.6 13.8.4 1.9 2.3 6 4.1 9 4.6 7.4 4.6 13.1.3 21.4l-3.1 5.9 1.7 8.1c2 9.2 2.1 9.4 8.6 19.5 2.6 4 5.1 8.6 5.4 10.1.4 2 1.5 3.2 3.5 3.9 2.4.8 2.8.7 2.3-.5-.5-1.3 0-1.3 3.3.1 6.7 2.9 7 2.8 2.9-1l-4-3.7 3.8 2.1c4.3 2.4 5.1 2.6 4.1 1-.3-.6 3.4 2.1 8.2 5.9 12.1 9.5 15.4 11 27.1 12.2 19.8 2.2 30.5 6.2 78.3 29.5 19.5 9.5 37.1 17.8 39 18.4 1.9.7 6 2.5 9 4.1l5.5 3-4-.6c-2.2-.4-7.7-1.7-12.3-3-9.4-2.7-24.1-6-48.9-10.9-37-7.4-56-13.5-71.9-23.1-11-6.7-13.5-7.3-28.4-7.5-11.6-.1-21-1.5-12.5-1.9 3.2-.1 3.6-.3 2-1-1.1-.5-3.3-1.2-5-1.6l-3-.7 3-.7c1.7-.4 2.4-.8 1.7-.9-.8 0-2.8-.7-4.5-1.5-8.3-3.6-13.9-5.7-14.3-5.3-.2.2.2 3.5 1 7.4.8 3.8 2.4 14.8 3.6 24.4 3.2 26.1 6.7 48.2 11.2 69.4 2.7 13.1 3.8 20.6 3.5 24.2l-.4 5.3H512V0H0zM368.5 8.2c-1.4 5.1-5.3 10.4-7.3 9.7-1.4-.5 1.9-10.2 4.3-12.9 3.4-3.7 4.5-2.6 3 3.2M24.5 16c1.1 1.8-2.6 2.3-4.3.6-1.5-1.5-1.4-1.6 1-1.6 1.5 0 3 .5 3.3 1M62 31c0 .5-.5 1-1.1 1-.5 0-.7-.5-.4-1 .3-.6.8-1 1.1-1 .2 0 .4.4.4 1m238.1 6.8c-.5.9-1.9 2.6-3.2 3.7l-2.2 2L296 41c1.7-3.4 3.1-5 4.2-5 .5 0 .5.7-.1 1.8M122.8 67.3c1.7 2.5 2.1 4.1 1.6 6.5-.9 4.7-2.3 4.9-5.5 1.1-3.3-4-3.5-5.1-1.3-8.4 2.1-3.2 2.5-3.1 5.2.8M338 73.9c1.8 1.6 4.1 3.6 5.1 4.5 4 3.4 1 5-3.7 2-2.4-1.6-5.4-6.2-5.4-8.4 0-1.5.5-1.3 4 1.9m-82 5c0 1.2-.5 1-2-.9-2.7-3.4-2.6-6.3 0-3.1 1.1 1.3 2 3.1 2 4m91 15c0 1.4-4.1 5.6-6.7 6.9-3 1.6-11.3 1.6-11.3-.1.1-1.6 3-5.2 5.5-6.5 2.5-1.4 12.5-1.6 12.5-.3m25.1 6.1c1 0 1.9.4 1.9 1 0 1.5-3.4 1.2-5.6-.6-1.7-1.4-1.7-1.5-.1-1 1 .3 2.7.6 3.8.6m99.9 6c0 1.1-6.5 2.4-7.9 1.5-2.4-1.4-.9-2.5 3.4-2.5 2.5 0 4.5.4 4.5 1M33.6 134.7c.7 2.7-.4 5.4-2.4 6.1-1.7.5-2.6-4.3-1.2-6.7 1.5-2.8 2.8-2.6 3.6.6M21 144.9c0 1.9-2.3 7.1-3.1 7.1-1.6 0-2-2.5-1-5.3 1-2.5 4.1-3.9 4.1-1.8M506 173c0 .5-.2 1-.4 1-.3 0-.8-.5-1.1-1-.3-.6-.1-1 .4-1 .6 0 1.1.4 1.1 1M7.4 206.3c1.7 1.3 2 5.3.4 4.9-.5-.1-1.9-.2-3.3-.2-2.7 0-4.1-2-3.1-4.5.7-1.9 3.6-1.9 6-.2M156 221.4c0 .3-.7 1.2-1.6 2-2.3 2.3-4 1.9-1.9-.4 1.6-1.8 3.5-2.6 3.5-1.6M143.5 235c-.3.5-1.7 1-3.1 1s-2.2-.4-1.9-1 1.7-1 3.1-1 2.2.4 1.9 1m10 44.9c1 1.7-2.6 4.1-6.1 4.1-4.7 0-4.3-1.5.9-3.3 2.3-.9 4.3-1.6 4.4-1.6.1-.1.4.3.8.8m286.5 42c1.6 1.1 2.6 3 2.8 5l.3 3.1-3.5-2.1c-4.1-2.4-7.8-6.7-7-8.1.7-1.1 4.2-.2 7.4 2.1m2.5 27.2c5.9 1.5 4.7 3.3-1.6 2.5-6.7-.9-8.5-1.6-6.7-2.7 1.7-1.1 3.1-1.1 8.3.2m-14.8 30.8c1.2.9 2.3 2 2.3 2.4 0 1.2-5.8-2.5-8.3-5.2l-2.2-2.5 3 1.9c1.7 1 4 2.5 5.2 3.4"/><path d="M294.7 119.7c-.4.3-.7 1.1-.7 1.7s.5.5 1.2-.2c.6-.6.9-1.4.7-1.7-.3-.3-.9-.2-1.2.2"/></svg>