<svg xmlns="http://www.w3.org/2000/svg" width="682.667" height="512" version="1.0" viewBox="0 0 512 384"><path d="M0 192v192h164.3l-.7-4.3c-1.4-8.7-2.4-10.5-8.4-14-5.5-3.3-5.7-3.5-5.5-7.2.2-2.1-.2-4.4-.7-5-.7-.9-.5-1.6.5-2.5 2.9-2.4 3.5-4.6 2.4-7.9-.9-2.7-.7-3.7 1.5-7.5 3.9-6.8 22.6-23.8 36-32.8 6.7-4.5 15.4-11.3 19.5-15.2 6.5-6.3 11.8-13 36.8-45.9 6.5-8.5 7.3-10.6 4.8-12.7-.8-.7-2.2-3.8-3.1-6.9s-2-6-2.4-6.5c-.5-.5-3-.3-5.8.4-4.3 1-5.5.9-8.1-.4-1.7-.9-3.1-2-3.1-2.5s2.6-1.8 5.9-3c3.2-1.2 7.1-3.1 8.6-4.3l2.8-2.2-.7-15c-.4-10-1.3-17.7-2.6-22.6-2.6-9.8-2.5-11.3.8-15.2 1.5-1.8 2.7-4.4 2.7-5.8 0-2.5-.5-2.7-3.8-1.5q-1.8.75-1.5-.6c.2-.9-.4-1.3-1.4-1.1-1.3.2-1.6-.2-1.1-1.4.5-1.3.2-1.6-.9-1.1-2.7 1-5.6-2.4-4.8-5.4.7-2.3.5-2.5-1.5-2.1-2.5.4-4.2-2.2-2.2-3.5.7-.5 2.8-2.5 4.7-4.6l3.5-3.8-2.9.5c-1.6.3-3.9 1.5-5.2 2.7-2.7 2.5-2.9 2.2-1.2-1.6.6-1.4 2.8-3.5 4.7-4.7 7.3-4.3 14.1-12.7 17.7-21.9 1.9-4.5 11.4-13.7 17-16.4 9.8-4.6 22.1-2 32.2 6.9 8 6.9 10 10 11.9 18.8 1.5 7.1 1.5 7.7 0 9.3-.9.9-2 2.1-2.4 2.8-.5.7-1.9 2.1-3.2 3.2-2.1 1.8-2.4 1.8-1.8.2.8-2.2.1-2.2-3 .3-3.1 2.4-4.7 2.6-3.9.4.3-.9.2-1.2-.5-.9-.5.4-.8 1.2-.6 1.8.2.7-.3 1.8-1 2.6-.8.8-1.2 2.3-.9 3.6.4 1.7-.1 2.7-1.9 3.9s-2.5 2.5-2.5 4.8c0 2.4-.3 2.9-1.1 2.1-.9-.9-1.9-.6-3.9.9-2.7 2-2.8 2-5.6.2l-2.9-1.9 2.9 3.5c1.5 1.9 5.2 4.9 8.2 6.7 6 3.8 8.7 7.6 10.5 14.7.7 2.7 2.7 7.4 4.6 10.4 4.3 7.2 4.4 11.8.3 19.8-3.4 6.8-3.5 7.8-1.5 17.4 1.2 5.6 2.7 8.8 7.1 15.3 3 4.5 5.8 9.4 6.1 11 .4 2 1.7 3.3 4.6 4.7 5.2 2.5 6.6 2.5 3.6 0-2.8-2.3-1.5-2.6 2.1-.5 4.4 2.5 5.7 1.6 2-1.5s-3.5-4 .4-1.5c1.3.9 3.3 1.7 4.4 2 1.2.2 5.2 2.9 8.9 6 9.5 7.8 15.1 10.3 25.8 11.6 18.6 2.2 32.9 7.5 70.7 26.5 36.4 18.3 39.1 19.6 47.8 23.3 4.1 1.7 8.6 3.8 10 4.7 2.4 1.5 2.4 1.5-1.5.9-2.2-.4-8.5-1.9-14-3.5s-17.6-4.5-27-6.5c-41.5-9-49.4-10.9-59.9-14.2-13.7-4.3-21.3-7.8-32.1-14.4-9.9-6.1-12.1-6.6-29.2-7.5-7.3-.4-13.3-1.1-13.3-1.6 0-.4 1.1-.6 2.5-.2s2.5.2 2.5-.4-1.8-1.3-3.9-1.7c-2.7-.4-3.8-1.1-3.5-2 .6-1.4-14.3-9.2-15.4-8.1-.3.3.2 4.5 1.1 9.4.9 4.8 2.8 17.5 4.2 28.2 3.2 24.9 5.8 42 9.6 64 1.7 9.6 3.1 20.3 3 23.7l-.1 6.3h195v-95.4c0-94.9 0-95.4-2-94.9-1.2.3-2 0-2-.7 0-.6.9-1.4 2-1.7 2-.5 2-1.4 2-95.9V0H0zM352 10.5c0 3.8-.6 5.1-3.6 8.3l-3.6 3.7.6-5.3c.5-5 3.6-11.2 5.7-11.2.5 0 .9 2 .9 4.5M17.5 13.3c1.1.9 1.4 1.6.7 2.1-1.2.7-5.7-.8-6.7-2.3-.9-1.6 3.8-1.4 6 .2m273.6 21.9c-2 3.3-4.1 4.8-4.1 3 0-1.4 4-6.2 5.2-6.2.5 0 .1 1.5-1.1 3.2M108.9 63.7c1.6 3.1 1.4 7.3-.5 8-2.6 1-6.4-3.5-6.4-7.7 0-4.8 1.8-6.6 4.1-4.2.9 1 2.1 2.8 2.8 3.9m216.4 4.8c6.5 4.8 6.3 7.4-.3 4-3.8-2-7.7-7.6-5.2-7.5.4 0 2.8 1.6 5.5 3.5M243.5 74c1.7 3.3 1 4-1.1 1.2-1.3-1.7-1.9-4.2-.9-4.2.2 0 1.1 1.3 2 3m87.1 18.2c.4.6-.8 2.5-2.9 4.5-2.9 2.6-4.5 3.3-7.6 3.3-2.2 0-4.6.3-5.5.6-2.9 1.1-1.8-2.6 1.8-6.2 3-3 4-3.4 8.4-3.4 2.8 0 5.4.5 5.8 1.2M360 98c0 1.3-2 1.3-4 0-1.2-.8-.9-1 1.3-1 1.5 0 2.7.4 2.7 1m100 6.9c0 1.2-5.6 2.5-7 1.6-2.2-1.3-.8-2.5 3-2.5 2.2 0 4 .4 4 .9M23.2 134.6c2 4.2-2 8.5-4.1 4.5-.8-1.4-.8-2.7.1-4.5 1.4-3.3 2.5-3.3 4 0M12 138.7c0 1.6-2.5 7.3-3.2 7.3-1.3 0-.9-5.5.4-6.8s2.8-1.6 2.8-.5m483.1 32c1.3 1.6 1.2 1.7-.3.4-1.7-1.3-2.2-2.1-1.4-2.1.2 0 1 .8 1.7 1.7m-352 53.4c-1.3 1.1-2.7 1.7-3 1.4-.3-.4.5-1.5 1.9-2.5 3.2-2.4 4.2-1.4 1.1 1.1m-7.4 6.5c-.3.3-1.2.4-1.9.1-.8-.3-.5-.6.6-.6 1.1-.1 1.7.2 1.3.5m103.3 12c0 .3-.9 1.7-2 3.1s-2 3.1-2 3.8c0 1.6-2.5 3.7-3.3 2.9-.9-.9 2.1-7.7 4-9.2 1.8-1.3 3.3-1.6 3.3-.6m-105 40.8c0 1.7-2.2 2.6-6.1 2.6-3.4 0-3.8-1.7-.6-3 3.4-1.4 6.7-1.2 6.7.4m290.8 35.1c2.7 2.2 5 7.1 3.9 8.2-.7.7-9.4-5.6-10.1-7.3-1.6-4.2 1.7-4.7 6.2-.9m-.9 25.5c.9 0 2.6.7 3.7 1.6 1.8 1.4 1.6 1.5-3 .9-6.6-.9-8.2-1.5-6.4-2.6.7-.5 1.9-.7 2.6-.4.8.3 2.1.5 3.1.5m-7.9 34.2c0 1.5-1.7.8-5.8-2.2-5.7-4.1-5.3-4.7.8-1.3 2.7 1.5 5 3.1 5 3.5"/></svg>