<svg xmlns="http://www.w3.org/2000/svg" width="682.667" height="512" version="1.0" viewBox="0 0 512 384"><path d="M0 3.3c0 1.8.5 3.8 1.2 4.5.9.9.9 1.2 0 1.2S0 23.3.1 70.7c0 34 .3 61.2.6 60.5.8-2.1 3.2-1.3 3.9 1.2.3 1.3 0 3.4-.6 4.7-1.2 2.2-1.3 2.2-2.6.4-1.2-1.6-1.4 17-1.4 122.3V384h167l-.5-2.8c-2.3-10.9-2.5-11.1-9.2-15-4.6-2.7-6.2-4.1-5.7-5.2 1.8-4.3 1.6-5.7-1-6.4-3.3-.8-3.3-2 .3-6.5 2.5-3.1 2.9-4.3 2.4-7.7-.7-5.8.9-8.4 12.9-20 7.7-7.5 14.7-12.9 26.4-20.6 17.5-11.6 23.6-17.4 36.3-34.4 4.1-5.4 10.5-13.5 14.1-17.9 8.3-9.9 10.1-12.6 10.6-16.2S251 218.1 249 217c-.8-.4-4.1-.3-7.3.2-4.8.8-6.1.7-8.3-.7-3.3-2.2-2.7-3.4 2.6-5.5 2.4-.9 6.1-3.2 8.2-4.9 3.7-3.1 3.8-3.4 3.8-9.4-.1-7.8-2.3-23.5-4.4-30.7-.9-3-1.6-6.7-1.6-8.2 0-2.8 1.9-7.8 2.9-7.8.3 0 1.7-1 3.1-2.1l2.5-2-3.2.6c-2.9.6-3.2.4-2.6-1.1.5-1.4.3-1.6-1.3-1.1-1.9.7-1.9.7 0-.8 2.3-1.7 1.4-2-1.5-.5-1.5.9-1.9.7-1.9-.6 0-1-.5-1.4-1.5-1-.9.3-1.5 0-1.5-.9 0-.8-.6-1.5-1.3-1.5-.8 0-2.2-.9-3.3-2.1-1.5-1.6-1.6-2.4-.6-3.9 1.7-2.8 1.5-3.3-1.1-2.8-1.5.3-2.4 0-2.4-.9 0-1.3.7-2.1 6.7-7.3l3.5-3-3.5.6c-1.9.4-4.6 1.6-5.9 2.8l-2.4 2.1 1.7-3.2c1-2 3.3-4.1 5.9-5.4 7.1-3.6 10.7-7.9 18.1-21.5 3.5-6.5 14-14.7 20.9-16.5 9.8-2.4 19.6 1 29.4 10.4 7.1 6.8 7.8 8 9.9 17.9l1.4 6.7-4.2 4.5c-4.2 4.7-6.2 5.9-5.1 3 .4-1-1.1-.5-4.3 1.6-5.2 3.2-6.8 5.7-5.2 7.7.7.9.3 1.5-1.5 2.2-2.6 1-3.7 2.9-3.7 6.4 0 1.8-.2 1.9-1 .7s-1.2-1.1-3.2.6c-2.4 2.3-4.1 2.1-7-.4-1-.8-1.8-1.1-1.8-.6 0 1.4 5.8 6.7 10.2 9.3 5.7 3.4 9.4 8.3 10.8 14.2.7 3 2.8 7.6 4.6 10.2 5.7 8.3 5.7 13.5-.2 23.3-3.4 5.6-3.4 5.8-2.4 11.8.6 3.4 1.3 7.1 1.5 8.2.6 2.5 14.1 20.4 15.4 20.4.5 0 3.3 1.8 6.2 4 6.7 5 9.6 5.3 4.9.5-3.8-3.9-3.1-4.5 1.8-1.5 4.4 2.7 4.7 2.5 2.1-1.1l-2.2-3.2 2.5 1.7c1.3.9 2.7 1.3 3.1 1 .3-.4 4.1 2.6 8.3 6.5 9.6 8.9 14.3 11.3 26.3 13.5 17.8 3.2 33.1 10.3 70.6 32.9 13.8 8.2 29.7 17.5 35.5 20.5 9.1 4.8 16.2 9.2 14.8 9.2-.2 0-4.2-1.4-8.8-3.1-11-4-14.8-5.1-49.5-14.9-39.3-11-55-17.2-70-28-10.1-7.2-12.5-8.1-20.5-7.8-6.9.3-18.3-2.3-21.1-4.8-.8-.8-2.6-1.4-3.8-1.4-1.4 0-4.2-1.8-7-4.6-4.3-4.3-9.8-8-10.6-7.2-.2.2.7 5.8 2 12.5 1.4 6.7 3.4 19.3 4.5 28s3.4 25 5 36.3c5.6 40.1 6.2 45.2 5.8 52l-.4 7H512V0H0zm318 15.6c0 3.5-.6 5.6-2.2 7.6-2 2.6-2.2 2.6-2.9.9-1.4-3.4-.9-7.9 1.1-11.2 2.6-4.3 4-3.3 4 2.7M50 15c0 .5-.4 1-1 1-.5 0-1-.5-1-1 0-.6.5-1 1-1 .6 0 1 .4 1 1m49 1.1c0 .6-.4.7-1 .4-.5-.3-1-1.1-1-1.6 0-.6.5-.7 1-.4.6.3 1 1.1 1 1.6m177 8.4c0 1.7-3.1 7.5-4 7.5-.6 0-.5-1.3.5-3.6.8-2 1.5-3.8 1.5-4s.5-.4 1-.4c.6 0 1 .2 1 .5m-197.1 26c2.2 2.5 3.1 4.6 3.1 7 0 4.3-1.5 4.5-5.8.6-2.4-2.3-3.2-3.8-3.2-6.4 0-5.8 1.5-6.1 5.9-1.2m219.4 3.7c4.9 2.6 5.7 3.3 4 3.6-2.9.4-8.5-2.2-10.1-4.8s-1.2-2.6 6.1 1.2M222 71.4c0 .6-.7.2-1.5-.8-.8-1.1-1.5-2.5-1.5-3 0-.6.7-.2 1.5.8.8 1.1 1.5 2.5 1.5 3m110.1 21.5c-.8.5-2 .7-2.8.4-2.1-.8-1.5-1.3 1.5-1.3 2 0 2.3.3 1.3.9m104.9 10c0 1.1-4.9 2.1-6.7 1.4-2.7-1-1.2-2.3 2.7-2.3 2.2 0 4 .4 4 .9m38.6 64.2c1.9 2.2 1.9 2.2-.3 1-1.3-.6-2.3-1.6-2.3-2.1 0-1.5.5-1.2 2.6 1.1m16.8 19.5c2.9 1.1 1.6 2.4-2.4 2.4-3.8 0-5.4-1.3-2.7-2.3 1.8-.8 3.3-.8 5.1-.1M122 220c0 .5-1.3 1-3 1-1.6 0-3-.5-3-1 0-.6 1.4-1 3-1 1.7 0 3 .4 3 1m-.4 4.6c-2.2 1.6-3.6 1.8-3.6.6 0-1.1 4.3-3.2 5-2.5.3.3-.4 1.1-1.4 1.9m93.9 9.6c-2.4 5.2-5.5 7.6-5.5 4.3s4.3-9.5 6.6-9.5c.9 0 .6 1.5-1.1 5.2M100 284.5c0 1.6-3.6 2.8-6.9 2.3s-3-2.2.4-2.9c5-1.1 6.5-1 6.5.6m76.9 18c0 1.3-.7.7-2-2-2.4-5.2-2.4-8 .1-3.5 1.1 1.9 1.9 4.4 1.9 5.5m217.4 7.6c2.2 1 5.7 6.5 5.7 8.9 0 1.6-6.9-3-9-6-1.1-1.5-2-3.1-2-3.4 0-1 2.7-.7 5.3.5m-4.9 29.9c.8 1 .2 1.1-2.9.5-6-1-8-2.7-2.6-2.1 2.4.2 4.9 1 5.5 1.6m-4.9 26.2c4.3 2.1 5.8 3.8 3.3 3.8-1.3 0-9.8-4.8-9.8-5.5 0-1 2.1-.4 6.5 1.7m87.5 8.3c2 2.4.2 3.7-2.5 1.8-1.4-1-2.5-2.1-2.5-2.6 0-1.3 3.7-.7 5 .8m-137.6 3.1c1.1 2.7.7 3.7-.9 2.4-1.6-1.4-2-4-.6-4 .5 0 1.2.7 1.5 1.6"/></svg>