<svg xmlns="http://www.w3.org/2000/svg" width="682.667" height="512" version="1.0" viewBox="0 0 512 384"><path d="M0 192v192h169.8l-1.3-5.1c-1.7-6.2-3.5-8.4-9.8-11.6-4.8-2.4-4.9-2.4-4.2-6.4.5-3.1.3-4-.9-4.5-2.2-.9-2-1.7 1.4-5.4 2.5-2.6 2.8-3.5 1.9-5.2-1.8-3.3-.1-8.3 4.4-13 4.5-4.8 24.9-21.2 33.2-26.9 2.8-1.8 6.5-4.7 8.3-6.4 1.9-1.6 4-3.3 4.7-3.7 2.1-1.3 14.8-16.9 20.5-25.3 2.9-4.4 8.3-11.8 11.9-16.5 14.2-18.3 16.1-21.9 16.1-31.3v-4.5l-8.3.5c-6.5.4-9 .2-11.4-1.1-5-2.5-4.8-3.4 1.4-6.1 6.5-2.9 9.8-5.6 12-10 2.1-3.9 1.1-17.3-1.8-25.8-1.2-3.4-2.8-8.9-3.5-12.2-1.5-7.2-.4-10.8 4.7-14.8 3.5-2.7 3.3-3.5-.3-1.6-1.8 1-1.9.8-1.3-1.2.6-1.8.4-2.1-.9-1.6-1.2.5-1.5.3-1-.5s.2-.9-.9-.5c-1 .3-1.7.2-1.7-.3 0-.6-.9-1-2.1-1-1.1 0-1.7-.4-1.4-1s.2-1-.4-1-2.2-1.2-3.6-2.6c-2.5-2.5-2.5-2.7-.9-4.5s1.6-1.9-.9-1.9c-4.4 0-3.9-1.6 2.1-7.1 3.1-2.9 4.9-5 3.9-4.6-1.1.4-3.1 1-4.5 1.3-1.5.4-3.3 1.1-4 1.7-1.1.8-1.1.6-.1-1.5.6-1.5 3.2-3.7 5.8-5.1 5-2.8 8-5.8 12.7-12.7 4.6-6.7 6.6-11.2 5.5-12.3-2.4-2.4 2.8-7.5 7-6.9.9.2 4.2-1.1 7.5-2.9 5.3-2.8 6.6-3.1 12.4-2.6 8.4.5 16.8 4.7 23.5 11.6 6.3 6.5 7.2 8.3 8.7 17.2 1 5.7 1 7.3 0 7.7-.6.2-1.2 1-1.2 1.7s-1.7 2.5-3.7 4.1c-2.8 2.1-3.5 2.4-3 1 .7-1.8.6-1.8-1.5-.2-1.3.9-3.4 2.2-4.8 2.8-3.3 1.7-4.1 2.9-3.5 5.4.3 1.6-.2 2.7-2 3.8-1.4.9-2.7 2.7-3.1 4.1-.3 1.4-1 2.2-1.6 1.9-.5-.3-1.8.2-2.8 1.1-1.2 1-2.8 1.5-4 1.2-4.5-1.2-1.6 1.8 9.5 9.8 2.7 1.9 7.5 10.5 7.5 13.5 0 .8 1.6 4.1 3.6 7.2 5.9 9.6 5.8 15.4-.2 25.4-3.4 5.5-3.6 6.3-3.1 12.4.4 5.2.9 6.8 2.7 8 1.2.8 3.2 2.5 4.5 3.8 1.2 1.2 3 2.2 3.9 2.2s2.1 1.1 2.5 2.3c.5 1.4 4.1 4.4 8.3 7 4 2.5 7.9 5.5 8.6 6.6.7 1.2 2 2.1 2.9 2.1 1.3 0 .9-.8-1.5-3.3-4.5-4.6-4-5.2 1.6-2l4.7 2.7-2.8-3.7c-2.7-3.5-2.4-5.4.3-2.1.8.8 2.3 2 3.4 2.6 2.1 1.1 2.1 1.1.1-1.3-1-1.3 2.6 1.9 8 7.3 11.2 10.7 14.6 12.8 25.7 15.2 13.6 3 37.2 16 64.3 35.5 12 8.6 32.7 22.5 40.3 27 12.4 7.5 10.5 7.9-4.8 1.1-4.7-2-16.4-6.6-26-10-39.8-14.1-46-16.5-56.8-21.6-12.6-5.9-21.1-11.3-28.8-18.4-4.8-4.3-8.4-6-17.2-8.1-3.1-.7-3.3-.6-1.8 1 .9 1 1.3 2.1.9 2.4-1.3 1.4-5.7.6-17.6-3.4-10.8-3.5-12.7-4.5-16.2-8.3-2.2-2.4-5.2-4.8-6.8-5.4-2.6-1.1-2.7-1-2.2 1.1 2.2 9 5 28.2 7.5 51.2 2.7 24.6 3.7 32 7.2 57.3.6 4.5 1.7 8.7 2.5 9.3 1.5 1.3 1.8 5.3.3 4.4-.6-.4-1 1.1-1 3.9 0 2.4-.3 5.1-.6 6-.6 1.5 8.4 1.6 97.5 1.6H512v-4.5c0-3.3-.4-4.5-1.4-4.5-1.7 0-6.6-6-6.6-7.9 0-.9 1.2-1.2 4-.9l4 .4V0H0zM41.5 5c-.3.5-1.1 1-1.6 1-.6 0-.7-.5-.4-1 .3-.6 1.1-1 1.6-1 .6 0 .7.4.4 1M83 11.6c0 1.7-2.2 1.4-2.8-.4-.2-.7.3-1.2 1.2-1.2s1.6.7 1.6 1.6m175.6 12c-.3.8-1 1.4-1.6 1.4-1.4 0-1.3-3.7.2-6.3 1.3-2.2 1.3-2.2 1.6.6.2 1.6.1 3.5-.2 4.3m25.4 0c1.4 3.7 1.2 7.1-.7 10.7l-1.6 3.2-1.3-3c-2.2-5-1.2-13.5 1.6-13.5.6 0 1.5 1.2 2 2.6M51.3 39.4c2 1.8 3.7 4.3 3.7 5.4s.3 2.7.6 3.6c1 2.6-1.8 1.9-5.9-1.5-3.1-2.6-3.7-3.7-3.7-7 0-2.1.4-3.9.8-3.9s2.5 1.5 4.5 3.4m222.5-.3c2.8.8 4 1.5 3.4 2.1-1.3 1.3-7.5-.7-9.4-2.9-1.1-1.4-1.1-1.5.2-1 .8.3 3.4 1.1 5.8 1.8m-74 26.4c-.3.3-.9-.2-1.2-1.2-.6-1.4-.5-1.5.5-.6.7.7 1 1.5.7 1.8m213.8 35.7c-.9.5-2.9.8-4.4.6l-2.7-.4 2.5-1.1c1.3-.5 3.3-.8 4.3-.5 1.7.4 1.8.6.3 1.4m43.3 62.8c1.2 1.8 1.3 2.2.2 1.9-.8-.3-2.1-1.6-3-2.9-1.2-1.8-1.3-2.2-.2-1.9.8.3 2.1 1.6 3 2.9m14.5 17.6c4.4 1.7 0 3.1-5.2 1.7-1.8-.4-2-.8-1-1.4 1.5-1 4-1.1 6.2-.3M112 207c0 .5-1.3 1-2.9 1-1.7 0-3.3-.5-3.6-1-.4-.6.8-1 2.9-1 2 0 3.6.4 3.6 1m85.2 12.3c-2 5.5-3 6.7-5.4 6.7-2 0-2-.7.3-6.6.9-2.4 4.8-5.6 6-4.9.4.3 0 2.4-.9 4.8m-96.7 5.7c-.3.5-1.4 1-2.3 1-1.5 0-1.5-.2-.2-1 2-1.3 3.3-1.3 2.5 0m54 57.5c2 6.3 1.5 9.4-.7 5-1.9-3.8-3.2-10.5-2-10.5.5 0 1.7 2.5 2.7 5.5m-86.1 1c-.1 1.9-4.8 2.7-7.9 1.5-2.8-1.1-2.8-1.3-1-2.1 2.6-1.1 9-.7 8.9.6M367.1 302c2.3 1.3 5.1 6.5 4.7 8.8-.2 1.3-1.3.7-4.6-2.6-5.5-5.5-5.6-9.1-.1-6.2m-20.5 36c1.5.6 2.4 1.3 2.2 1.6-.3.3-2.1-.2-3.9-1-3.9-1.6-2.4-2.1 1.7-.6m15.6 17.3c4.9 1.7 5.8 2.7 2.4 2.7-2.7 0-9.6-2.5-9.6-3.4 0-1 3.3-.6 7.2.7m89.6 10.5c.2.7-.5.7-2.2-.1-1.4-.7-2.6-1.5-2.6-1.9 0-1.1 4.3.7 4.8 2"/></svg>