<svg xmlns="http://www.w3.org/2000/svg" width="682.667" height="512" version="1.0" viewBox="0 0 512 384"><path d="M0 192v192h84.3c73.5-.1 83.8-.3 80.9-1.5-3.4-1.5-5.2-4.7-5.2-9.6 0-5.1-2.6-9.7-6.5-11.6-2.6-1.2-3.4-2.1-2.9-3.2.4-.9.9-2.8 1.2-4.3.2-1.5 1-3.2 1.7-3.8 1-.8 1-2.1.3-5.2-.5-2.3-.7-5.2-.4-6.4.3-1.1 6.2-8 13.2-15.3 10.8-11.2 14.8-14.6 27-22.7 16.1-10.7 25.2-19 36.9-33.9 4.4-5.5 10.4-12.7 13.3-15.9 6.4-7 12.4-15.9 12.9-18.9.2-1.2.6-4.8 1-8l.6-5.9-7.9.7c-12.2 1.1-20.4-3.3-12-6.3 5.7-2.1 11.6-7.1 13.7-11.5 2.3-5.3 2.5-15.3.3-20.5-3.7-8.6-6.4-17.8-6.4-22 0-4.1.5-4.8 6.5-10.9 3.6-3.6 6.3-6.8 6-7.1s-1.5.4-2.8 1.5c-1.2 1.1-3.8 2.3-5.8 2.6-3.4.5-3.6.4-3.1-2.1.4-2.1.2-2.4-1.3-1.8-1.8.6-7.1-2.7-10.8-6.8-1.7-1.9-1.6-2 .3-4.1l2-2.2-3 .5c-5.4.8-3.5-3.2 4.6-9.3 1.8-1.4 1.7-1.4-1.1-1.5-1.7 0-4.1.7-5.4 1.7l-2.4 1.6 1.8-3.1c1.3-2.1 3.6-3.8 7.2-5.3 6.6-2.6 14.5-9.6 19-16.6 3.6-5.7 12.3-12.3 19.6-14.9 9.1-3.3 23.4 2 31.8 11.8 6 7 6.6 8.3 7.9 16.6 1.1 6.7 1 7.3-.9 9.4-1.2 1.2-2.1 2.5-2.1 3 0 .4-.5.8-1.2.8-.6 0-2 .8-3.1 1.7-1.1 1-1.7 1.2-1.3.5 1.2-2-1.2-1.4-6.1 1.5-3.9 2.2-4.4 3-4 5.2.4 2.1-.1 3-2.6 4.6-1.7 1.1-3.4 3.1-3.7 4.5-.4 1.8-.8 2.1-1.4 1.2-.6-1.1-1.2-1-2.6.3-1.2 1.1-2.7 1.5-4.2 1-1.9-.5-1.7-.1 1.3 2.7 2 1.8 5.5 4.8 7.8 6.6 3.9 3.2 8.1 9.6 8.1 12.5 0 .7 1.9 4.2 4.2 7.7 6.9 10.7 6.6 15.9-2.2 29.7-1.7 2.6-3 5.2-3 5.9 0 .6 3.2 2 7.2 3 6.5 1.7 7.8 2.5 14.5 9 6.6 6.3 10.3 9 15.3 10.8.8.3 2.6 1.4 4 2.3 1.8 1.4 2.2 1.4 1.5.3-.5-.9.1-.7 1.5.5l2.3 2-.7-2c-.5-1.1-1.1-2.9-1.4-4-1-3.5 6.9 4.2 11.6 11.4 6.4 9.8 8.8 11.8 19.2 16.8 5.2 2.4 12.4 6.5 15.8 9 7.3 5.2 22.8 20.2 39.3 38.2 17.6 19.2 20.2 22.1 19.8 22.6-.2.2-3.1-1.3-6.4-3.2-3.3-2-12.3-6.9-20-11.1-33.7-18.1-48.5-28.4-58.3-40.7-8.1-10.1-10.3-11.6-22.4-15.6-5.5-1.8-9.5-3.5-8.9-3.7.9-.3.9-.7 0-1.8s-.8-1.4.2-1.4c2-.1-3-4-5-4-5.9 0-.8 7.2 11.8 16.8 2.7 2 2.9 2.5 1.7 3.8-1.7 1.7-5.8 1.8-7.3.3-.6-.6-2.9-1.5-5-1.9-14.6-2.9-15.9-3.6-24-13.4-1.2-1.4-2.7-2.6-3.4-2.6-1.3 0-1.2 1.2 1.5 16.5 2.1 12 4.3 32.5 5.6 51.5.6 8.5 2 24.3 3.1 35 1.2 10.7 1.9 22.3 1.6 25.8l-.5 6.2H512V0H0zM59 7.5c0 .8-.4 1.5-.9 1.5s-1.4-.7-2.1-1.5c-1-1.3-.9-1.5.9-1.5 1.2 0 2.1.6 2.1 1.5M235.8 13c-.3 2.2.1 2.5 3 2.8 1.8.2 3 .7 2.7 1.2-.5.8-4.3.5-7.2-.5-.8-.3-1.3-2.3-1.3-5.2.1-4.5.2-4.7 1.6-2.8.8 1.1 1.3 3.1 1.2 4.5M11.5 22.2c3.3 2.2 7.3 9.3 6 10.7-.4.3-2.3-.4-4.3-1.5-3.8-2.1-7.9-8.5-6.7-10.4.8-1.4 1-1.3 5 1.2M238 39c0 6.7-1.5 8.2-3.4 3.5-1.6-3.9-2.1-10.6-.9-11.9 1.5-1.5 4.3 4 4.3 8.4m273-1.1c0 2.6-2.3 4.4-3.8 2.9-.9-.9-.8-1.6.5-3 2.1-2.3 3.3-2.3 3.3.1M225.3 75.7c3.3.7 3.5 2.7.5 4.7-2.7 1.7-8.7 1-9.5-1.1-.8-1.9 2.7-5.5 4.6-4.8.9.4 2.8.9 4.4 1.2M381 97c0 .5-1.5 1-3.2 1-2.5 0-2.9-.3-1.8-1 2-1.3 5-1.3 5 0m49.6 64.7c-.8.9-4.6-3.2-4.6-5 0-.7 1.2.1 2.7 1.5 1.5 1.5 2.3 3.1 1.9 3.5M89 167c0 .5-.2 1-.4 1-.3 0-.8-.5-1.1-1-.3-.6-.1-1 .4-1 .6 0 1.1.4 1.1 1m353.6 5.5c1.8 1.4 1.8 1.4-.8 1.5-3.2 0-5.8-.9-5.8-2.1 0-1.4 4.4-1 6.6.6m-341 10.6c1 1.7-1.2 3.2-3.9 2.5-1.4-.3-2.7-1.3-3.1-2.1-.4-1.2.2-1.5 2.9-1.5 1.8 0 3.7.5 4.1 1.1M222 190c0 2.3-3.7 3.7-5.4 2-.8-.9-.5-1.6 1.3-3.1 2.6-2.1 4.1-1.7 4.1 1.1m-48.3 2.4c-.3.8-1.1 3.3-1.7 5.5-.8 3.1-1.7 4.2-3.6 4.7-1.4.4-2.7.4-3 .1-1.1-1.1 1.8-8.7 3.9-10.2 2.7-1.9 5.1-2 4.4-.1m-104 32.2c-.3.3-1.2.4-1.9.1-.8-.3-.5-.6.6-.6 1.1-.1 1.7.2 1.3.5m54.3 38.6c0 4.3-1.6 4.1-3.4-.3-1.1-2.8-1.5-5.3-1-7.3l.7-3.1 1.8 4c1 2.2 1.9 5.2 1.9 6.7m-97.2 14.5c-.3 1.4-1.3 1.8-4.6 1.7-2.3 0-4.5-.3-4.8-.7-1.4-1.4 1.1-2.7 5.2-2.7 3.8 0 4.5.3 4.2 1.7m303.1 12c1.1 1 2.4 3.3 2.7 5.1.7 3.2.6 3.3-1.4 2.1-1.6-1-5.2-6.8-5.2-8.4 0-1 1.9-.4 3.9 1.2m7.6 43.3c1.5.7.9.9-2.5.9-2.5 0-5.2-.4-6-.9-1.9-1.3 5.6-1.3 8.5 0m133.3 19.6c1.9 1.3 5.2 6.3 5.2 7.9 0 .9-5.1.5-7.2-.6-1.6-.9-4.8-6.4-4.8-8.4 0-1.1 4.7-.4 6.8 1.1"/><path d="M316.3 232.4c-4.3 2-2.5 5.1 3.5 6.1 4.2.7 4.2.6 4.2-2.3 0-2.4-.6-3.2-2.7-3.9-1.8-.6-3.6-.5-5 .1"/></svg>