<svg xmlns="http://www.w3.org/2000/svg" width="682.667" height="512" version="1.0" viewBox="0 0 512 384"><path d="M0 192v192h91c50.1 0 91-.2 91-.5 0-1.2-9.7-6.6-16.4-9-11.4-4.2-12.7-5.6-13.5-15-.7-8.6.1-7.5-8.7-13.2-1.8-1.2-1.8-1.3.2-3 1.1-1 3-2.5 4.3-3.3 2.2-1.5 2.2-1.8 1.1-6s-1.1-4.5 1.1-6c1.3-.8 8.1-5.8 15.2-11.1 7-5.3 16.3-11.5 20.5-13.9 16-9 24.8-15.5 35.2-26 15.6-15.5 38.4-42.6 37.8-44.7-.1-.4.4-3.1 1.1-6s1-5.7.6-6.3c-.3-.5-3.4-1-6.8-1.1-3.4 0-7.8-.5-9.7-1.2-4-1.4-5.1-4.2-2.1-5.2 1.2-.3 4.3-2.4 7.1-4.6 4-3.1 5.2-4.9 6.5-9.1 2.3-7.7 1.9-12.7-2-24.5s-4.6-20.3-2-24c1.5-2.1 1.4-2.2-2.2-2.5l-3.8-.3 4.8-2.8c5.7-3.3 5.7-4.4.1-2.1-2.6 1.1-3.9 1.3-4.2.5-.2-.6-1.2-1.1-2.2-1.1-1.3 0-1.7-.5-1.3-2 .3-1.2 0-2-.7-2-1.4 0-7.1-5.5-6.4-6.2.3-.3-.1-1.7-.7-3.1-1.1-2.3-.9-2.9 1.2-4.6l2.4-2-2.2-.1c-1.8 0-2.3-.6-2.3-2.5s.5-2.5 2.3-2.5c1.2-.1 3.3-.7 4.6-1.4l2.4-1.3-2.7-.7c-1.4-.3-3.6-.2-4.9.4-1.6.8-1.3.3 1.1-1.9 2.1-2.1 4.3-3.1 6.2-3.1 5.9 0 16.3-6.2 21.3-12.7 1.2-1.5 2.8-3.4 3.7-4.1 2.9-2.4 14.6-8 18.2-8.7 8.8-1.7 21.5 5.4 28.3 15.7 5.4 8.2 7 13.8 5.9 21.5-.4 3.2-.9 5-1.2 3.9-.3-1.5-.7-1.3-2.3 1.3-1 1.7-2.6 3.1-3.4 3.1s-1.5.4-1.5 1c0 .5-.7 1-1.5 1s-1.5-.4-1.5-1c0-.5-1.4-.4-3.2.4s-4.1 1.7-5.2 2c-1.3.5-1.7 1.2-1.2 3 .5 2.1 0 2.8-3.9 4.7-2.5 1.2-4.5 2.6-4.5 3.1 0 .4-1.4 1.4-3.2 2.1l-3.1 1.3 7 6.3c6 5.5 8.6 7 18.4 10.9 6.3 2.5 12.8 5.4 14.4 6.6 6.2 4.3 22.4 17.6 24.1 19.9 1.4 1.6 2.9 2.3 5.4 2.3 1.9 0 5.1.8 7.1 1.8 7.2 3.4 15.9 14.1 15.9 19.4 0 2.8-2.3 4.5-3.9 2.9-1-.9-1.1-.8-.5.7.5 1.3.4 1.7-.3 1.3-.6-.4-1-.1-1 .6.1.6-.7 4.7-1.7 8.9l-1.9 7.7 4 7.8c4.6 8.9 5.1 10.6 6.4 21.7 1 8.8 0 48.7-1.1 44.6-.4-1.4-3.2-7.5-6.3-13.6-11.5-22.8-14.9-34-15.1-49.5l-.1-10.6-4.7-6.1c-2.7-3.3-4.8-6.5-4.8-7.2 0-.6-.7-2.5-1.6-4.3l-1.5-3.2 2 2.5c2.5 3 2.6 2.5.6-2.9-.8-2.3-1.4-4.3-1.4-4.6-.1-.3-.4-2.2-.7-4.3-.5-3.5-1-3.9-4.8-5-3.2-.8-6.5-3.2-13.2-9.7-4.9-4.7-10-9.2-11.4-9.9l-2.5-1.4v5.2c0 4.5-.7 6.4-4.8 13.1-4 6.4-5.1 9.3-6.4 16.6l-1.6 8.9 3.9 3.9c2.1 2.1 5 5.1 6.4 6.6 1.4 1.4 6.4 4.6 11.3 7.1 4.8 2.4 8.7 4.8 8.7 5.4 0 1.7-1.8 2-3 .5-1.2-1.4-5-2.1-5-1 0 .3.8 1.8 1.9 3.3 9.2 13.4 12.4 20.5 8.3 18.3-1-.5-2.4-2.2-3.2-3.8-1.6-3.1-5-6.9-5-5.5 0 .5 1.3 2.7 2.9 4.9 3.4 4.6 4.6 7.9 3.2 8.7-.5.4-2.6-2-4.5-5.3-5.9-9.6-8.8-10.7-4.4-1.6 2.1 4.2 1.8 8-.3 4.2-.6-.9-2.1-2.9-3.4-4.5-2.3-2.6-2.4-2.6-2.5-.5 0 2.7-1.9 4.1-3 2.2-.5-.7-.7-1.6-.5-1.9s-1.5-3-3.7-6-3.7-4.6-3.5-3.5c1.3 4.9 2.8 14.2 4.8 29 1.1 8.7 2.2 16.2 2.5 16.6.2.4 3.2.5 6.6.2 4.5-.5 5.9-.3 5.4.5-.4.7-3.2 1.2-6.6 1.2h-6l.5 4.3c2.6 21.7 6.6 68.2 6.2 71.9l-.4 4.8H512V0H209.2l1.1 3c.6 1.6.8 3.3.3 3.7-1 1-3.6-2.5-3.6-4.9C207 .1 202.7 0 103.5 0H0zM34.4 1.6c.9.3 1.6 1.3 1.6 2.1 0 2-3.4 1.2-3.8-1-.4-1.9-.1-2 2.2-1.1M482 28.3c0 1.4-2 3.7-3.2 3.7s-1-2.4.4-3.8c1.6-1.6 2.8-1.5 2.8.1m-286.8 9.9c.8 1.3 1.8 3.3 2.2 4.6.8 2.5 0 7.2-1.2 7.2-1.4 0-4-5.4-4.7-9.8-.5-3.3-.4-4.2.8-4.2.8 0 2.1 1 2.9 2.2m-54.5 17c-.3.7-.5.2-.5-1.2s.2-1.9.5-1.3c.2.7.2 1.9 0 2.5m51 11.5c.2.5-.3 1.6-1.1 2.2-3.1 2.6-10.8-2.3-8.1-5.1.8-.8 8.8 1.7 9.2 2.9m36.7 9.2c-.5.5-1.9 1.2-3.1 1.6-3.3.9-2.8-1.1.5-2.3 2.9-1 4.1-.7 2.6.7m121.3 17.7c-.3.3-1.2.4-1.9.1-.8-.3-.5-.6.6-.6 1.1-.1 1.7.2 1.3.5m-103 59.1c-.3 1-.5.4-.5-1.2 0-1.7.2-2.4.5-1.8.2.7.2 2.1 0 3m156.4.5c1.6 3 0 3.6-2.2.9-1-1.3-1.9-2.7-1.9-3.2 0-1.4 3 .2 4.1 2.3M91.4 156c2.9 1.1 3.7 5 1 5s-5.4-2-5.4-4c0-2.3.8-2.4 4.4-1m324.4 6.3c2.1 1.6 1.3 2.8-1.5 2.1-3.9-.9-5.8-2.5-4.2-3.5 1.3-.8 3.6-.2 5.7 1.4M151 170.9c0 3.1-.6 4.4-2.6 6-3.7 2.9-4.4 2.7-4.4-1.9 0-2.7.7-4.7 2-6 3.2-3.2 5-2.6 5 1.9m37 4.6c0 1.8-.7 2.8-2.6 3.5-3.3 1.3-3.4 1.3-3.4-.7s2.8-5.3 4.7-5.3c.7 0 1.3 1.1 1.3 2.5m-95 58.4c1.3 3.3 1 9.3-.6 9.8-1.5.5-3.8-7-3-10.1.8-3.4 2.1-3.3 3.6.3m342.1 104c4.9 5 3.3 9-2.4 6-2.9-1.6-3.7-2.8-3.7-6.2 0-3.6 2.3-3.5 6.1.2m-44.1 2c0 .4-1.1.6-2.5.3-1.4-.2-2.5-.6-2.5-.8s1.1-.4 2.5-.4 2.5.4 2.5.9"/><path d="M261.6 142.9c-.3.5 0 1.1.8 1.4 1.5.6 2.6-.1 2.6-1.5 0-1.1-2.7-1-3.4.1m96.4 56c0 .6 1.1 2.2 2.4 3.6 2.2 2.4 2.6 6.3.6 5-.5-.3-.7.3-.5 1.2.2 1 .4 2.4.4 3.1.2 2.3 1.8.4 2.4-2.8 1-4.6 2.7-3.6 2.8 1.7 0 4.8.2 4.7 2.5-1.2.6-1.6.9-1.2 1.4 2 .5 3.9.6 3.9 1.3 1.2 1-3.5-.2-5.5-5.9-10.6-4.5-3.9-7.4-5.2-7.4-3.2"/></svg>