<svg xmlns="http://www.w3.org/2000/svg" width="682.667" height="512" version="1.0" viewBox="0 0 512 384"><path d="M0 192v192h92.5c50.9 0 92.5-.2 92.5-.5 0-.8-12.6-7.2-18.5-9.4-9.6-3.5-10.5-4.5-11.2-13s-2.7-11.6-9.2-14.6c-2.3-1-4.1-2.2-4.1-2.6 0-.5 2.2-2.4 5-4.2 2.7-1.9 4.8-3.6 4.5-3.9s-.7-1.4-.9-2.4c-.3-1.1-.7-2.6-1-3.5-.5-1.1 2.2-3.5 10.4-9 12.3-8.2 25.4-16.6 39.2-24.9 11.6-7 23.2-18 41.4-39.1 16.2-18.8 19.4-23.2 19.4-26.5 0-1.2.5-2.6 1-2.9 1.4-.8 1.3-6.2-.1-7.1-.6-.3-4.5-1-8.6-1.5-11-1.2-13.5-4.2-6.5-7.8 11.6-5.9 15.1-19.6 9.2-36.5-3.5-10.2-4.4-17.9-2.7-22.9l1.4-4.3-3.3.4c-4.5.6-4.3-.8.7-3.6 5-2.9 4.7-3.6-.6-1.7-2.3.7-4.1.9-4.3.4s-1.2-.9-2.1-.9c-1.4 0-1.8-.7-1.5-2.6.2-1.9-.1-2.4-1.2-2-.8.3-1.4-.1-1.4-.9s-.4-1.5-.8-1.5-1.6-1.4-2.5-3c-1.1-1.8-1.4-3-.7-3 .6 0 .8-.5.5-1-.4-.6-1-.8-1.5-.5-1.7 1-.3-2.5 1.5-3.8 1.7-1.3 1.7-1.4-.4-2-3.5-.9-.7-4.1 4.8-5.6 3.9-1.1 4.3-1.4 2.8-2.3-1.1-.5-3-.8-4.3-.5-2.3.4-2.4.3-.8-1.4.9-1 3.3-2.1 5.3-2.4 7.5-1.3 11.8-3.6 19.1-10.6 9.5-9 19.9-14.4 27.6-14.3 10.1.2 21.9 8.9 27.7 20.4 2.3 4.7 2.7 6.8 2.7 13.8 0 5.5-.4 8.1-1 7.7s-2 .5-3.1 1.9c-1.1 1.5-2.4 2.4-2.9 2.1-.4-.3-1.3.2-2 1.1-.8.9-1.6 1.1-1.9.5q-.75-1.05-5.1.3c-4 1.2-4.5 1.7-4.8 4.5-.2 2.2-.8 3.1-2.1 3.1-1 0-2.4.7-3.1 1.5s-1.6 1.3-2 1c-.4-.2-1.3.6-2 1.9-.8 1.6-1.8 2.2-3.1 1.9-2.1-.6-2.5 1-.6 2.4 1.3 1.1 4 1.8 24.2 6.4 16.6 3.7 15.6 3.2 38.9 20.4 2.7 2 4.5 4.4 5.4 7 1.7 5.1 1.7 5.1 4.8 3 7.4-4.8 23.4 5.6 25.4 16.6.6 3.1.4 4.5-.9 6.1-1.6 1.9-1.8 2-3.5.3-.9-1-1.5-2.4-1.2-3.1.3-.8.8-2 1.1-2.7 1.3-3.1-7.1-11.8-12.7-13.2-2.3-.6-2.8-.4-2.8 1.2 0 1-.5 2.4-1 2.9-.7.7-.4 1.6 1 2.9 1.3 1.2 2 3.1 2 5.4l.1 3.6 1.5-2.8c1.9-3.5 2.8-3.4 2.1.3-.6 2.9.7 5.2 1.6 2.8.2-.7.6.4.9 2.5.3 3.1-.2 4.7-3.4 9.4-4.2 6.1-4.7 9.3-2.3 15 3.1 7.3 1.7 20.4-4 39.8-1.3 4.4-3.1 10.6-3.9 13.8-.9 3.1-2 5.7-2.5 5.7-.4 0-1.5-3.5-2.4-7.8-.9-4.2-2.4-11.1-3.3-15.2-2.4-10.2-2.5-29-.1-34.4 2.7-6.1 2.2-11.7-1.8-19.6-3.8-7.5-4.1-8.5-2.4-7.4 1.2.7.8-1.9-.8-6.3-.6-1.5-.4-1.6.9-.6 1.3 1.1 1.2.5-.3-4-1.5-4.4-2.2-5.2-4.6-5.5-1.7-.2-5.5-2.8-9.8-6.6-11.8-10.5-14.6-12.2-21.3-13.6-3.4-.7-6.5-1-6.8-.7s1.1 2.7 3 5.5c6.2 8.5 5.9 12.5-1.6 24-4.1 6.3-6.7 15-6.8 23 0 5.3 8.4 14.8 18.8 21.3 6 3.8 7.8 5.9 4.7 5.9-.8 0-1.5-.5-1.5-1 0-.6-.7-1-1.5-1s-1.5.2-1.5.4 2.4 4.8 5.4 10.2c3.7 6.7 5.2 10.2 4.5 10.9-1.1 1.1-4.9-2.7-4.9-4.9 0-.6-1-2.2-2.1-3.6-1.4-1.7-1-.5 1.1 3.9 4.6 9.4 2.9 11.4-2.1 2.3-2.2-4-4.4-7.2-4.9-7.2-1.3 0-1.3.1.5 4.3 1.7 4 2 9.1.6 8.2-.5-.3-1.2-1.8-1.6-3.4-.3-1.6-1.5-3.7-2.6-4.7-1.8-1.7-1.9-1.6-1.9.9 0 2.2-.5 2.7-2.5 2.7-2.1 0-2.4.3-1.9 2.7.3 1.6 1.1 6.4 1.8 10.8l1.2 8 3.4.6c1.9.4 2.6.7 1.5.8-4.8.3-4.8.4-2.6 23.2 1.2 11.8 3.1 29.7 4.2 39.9 1.2 10.2 1.9 21.1 1.7 24.2l-.4 5.8H512V0H202v2.6c0 2.2-.2 2.5-1.5 1.4-.8-.7-1.5-1.9-1.5-2.6C199 .2 185.5 0 113.5 0 40.7 0 28.1.2 28.6 1.4c.9 2.3-1.4 2.8-2.8.6-1.2-1.8-2.3-2-13.5-2H0zM472.5 26.1c0 .8-1 1.5-2.2 1.7-2.5.4-3-.7-1.1-2.6 1.5-1.5 3.3-1 3.3.9M185 46.2c0 4.6-1.3 5.5-3.4 2.3-2.1-3.1-3.1-7.9-2.1-10.2 1.1-3 5.5 3.3 5.5 7.9M178.6 61c.8 0 1.4.9 1.4 2 0 1.5-.7 2-2.6 2-3.4 0-6.4-1.7-6.4-3.7 0-1.2.7-1.4 3.1-.9 1.7.3 3.8.6 4.5.6m37.3 13.4c-1.3 1.1-4.9 1.6-4.9.6 0-1.4 4.4-3.1 4.9-1.8.1.5.1 1.1 0 1.2m122.8 18.2c-.3.3-1.2.4-1.9.1-.8-.3-.5-.6.6-.6 1.1-.1 1.7.2 1.3.5m-99.1 57.1c-1.1 1.1-1.9-.6-1.1-2.4.8-1.7.8-1.7 1.2 0 .3 1 .2 2.1-.1 2.4M88.4 148c2.7 1 3.6 4.3 1.6 5.5-1.7 1-6-2.3-6-4.5 0-2.3.8-2.4 4.4-1m305.6 1.5c3.1 1.6 4.1 4.5 1.5 4.5-1.7 0-5.5-3.5-5.5-5 0-1.3.6-1.3 4 .5m12.4 9.1c2.1 2 2 2.4-.3 2.4-1 0-2.9-.9-4.2-2l-2.4-1.9 2.7-.1c1.5 0 3.4.7 4.2 1.6m-262.3.7c-.1.4-.1 2.2-.1 4 0 3.9-1.6 6.2-4.7 7.2-2.1.6-2.3.3-2.3-3.5 0-3.2.6-4.7 2.7-6.6 2.5-2.3 4.6-2.8 4.4-1.1m32.7 11.4c.3 2.2-1.3 3.9-4.2 4.5-2.7.5-3-1.5-.5-4.6 2.4-3 4.2-3 4.7.1m-92.2 57.9c.3 1.9.3 4.6-.1 6.1l-.7 2.8-1.9-2.4c-1.9-2.3-2.7-10-1.2-11.4 1.1-1.2 3.2 1.4 3.9 4.9M424 332c2.8 2.8 2.7 7-.2 7-3.1 0-5.8-2.9-5.8-6.2 0-3.4 2.9-3.9 6-.8m-43 3c1.2.8 1 1-1 1-1.4 0-3.2-.5-4-1-1.2-.8-1-1 1-1 1.4 0 3.2.5 4 1m-7.5 46c-.3.5-1.4 1-2.3 1-1.5 0-1.5-.2-.2-1 2-1.3 3.3-1.3 2.5 0"/><path d="M262.5 143c-.3.5.1 1 .9 1 .9 0 1.6-.5 1.6-1 0-.6-.4-1-.9-1-.6 0-1.3.4-1.6 1M305 261.3c0 2.6 1.1 4.7 2.5 4.7 1.6 0 .9-3.5-1.1-5.1-1.1-.9-1.4-.8-1.4.4"/></svg>