<svg xmlns="http://www.w3.org/2000/svg" width="682.667" height="512" version="1.0" viewBox="0 0 512 384"><path d="M0 192v192h188.5l-3.4-2.1c-1.9-1.1-7-3.4-11.3-5-13.8-5-13.3-4.6-14.5-14-1-7.6-1.4-8.5-4.5-11-1.8-1.6-5-3.5-7-4.5-2-.9-3.9-2.2-4.2-3-.5-1.3 2.4-4.2 7.4-7.5 2.4-1.5 2.4-1.7.8-5-1-1.9-1.4-3.7-1-4 2.9-2.5 32.7-21.7 40.3-25.9 18.6-10.4 29.1-19.1 42.7-35.5 4.1-5 10.4-12.3 14.1-16.3 3.6-4.1 8.3-9.9 10.5-13 3.6-5.3 3.8-6.1 3.3-11.1-.7-6.2-1.6-7.1-7.5-7.1-5.2 0-11.2-2.4-11.2-4.4 0-.9 1.7-2.5 3.8-3.5 9.4-5 11.2-8.6 11.2-21.7 0-7.1-.6-11.9-2.2-17.3-1.4-4.9-2.2-10.5-2.2-15.9l-.1-8.2h-3c-2.9-.1-2.8-.2 1.8-2.6 5.3-2.8 5.7-4.3.7-2.6-3.9 1.4-9.3.5-8.6-1.4.3-.8.1-1.4-.5-1.4s-.7-.5-.4-1c.3-.6 0-1-.8-1-1.4 0-3.2-2.7-2.9-4.3.1-.4-.2-.7-.7-.7s-1.4-1.5-2-3.3c-1-2.8-.9-3.4.9-4.9l2-1.7-2-.6c-3.4-1.1-1.8-3.7 3.3-5.3 2.6-.8 4.7-1.8 4.7-2.2 0-1.2-4.6-2.1-6.7-1.4-1.6.6-1.7.5-.2-1 .8-.9 4.3-2.1 7.7-2.7 5.2-.9 7.2-1.9 12-6 3.2-2.7 6.8-6.3 8.1-8 1.4-1.9 5.4-4.6 10.6-7.1 10.3-4.9 16-5.2 24-1.3 9.9 4.8 19.4 17.2 20.3 26.5.5 5.1-.7 15.5-1.5 13.2-.4-1-.9-.8-1.9.7-1.8 2.5-7 5.1-8.1 4-.4-.4-3-.1-5.6.8-4.3 1.4-4.8 1.9-4.4 4 .3 1.8-.1 2.7-1.7 3.3-3.2 1.4-7.2 4.8-6.4 5.5.4.4 4.6 1.1 9.5 1.6 23.3 2.4 26.9 3 30.9 5.2 3.7 1.9 15.4 9.5 22.3 14.3 1.3.9 3.2 3.7 4.3 6.3 3.2 7.2 3.6 7.5 7 4.6 3.5-3 4.8-3.1 11.2-.8 6.6 2.4 14.2 9.8 15.1 14.7.9 4.3-1.4 7.6-5.2 7.6-1.8 0-2.3-.5-2.3-2.4 0-1.4.4-2.8 1-3.1 1.8-1.1 1-3.4-2.5-7.3-3-3.4-8.6-6.2-12.3-6.2-1.6 0-2 5.9-.4 7.2.9.8 1.2 2.2.8 4-.4 2-.1 3 .9 3.4.8.4 1.2 1 .9 1.5s.1.9.9.9 1.7.6 2 1.4c.6 1.5-1.9 5-8.1 11.6-3.3 3.5-3.3 3.5-2.7 11 .9 10-2 19.2-13 40.6l-8.2 16.2-.6-15.6c-.9-21.6.9-33.1 6.4-42.8 3.4-6.1 3.6-8.2.9-15.8-1.4-4.3-1.7-6.3-.9-8.3.6-1.7.6-4.2-.3-7.9-1-4.4-1.6-5.4-3.3-5.4-2.3 0-4.6-1.5-15.9-10.6l-7.6-6.2-11.1-.7c-6-.4-11.3-.5-11.6-.1-.3.3 1.6 3.2 4.4 6.3 10.6 12.2 11.2 16.8 3.6 28.1-3.2 4.8-4.8 8.6-5.9 13.5-1.6 7.9-1.8 15.3-.4 16.2.6.3 1 1.5 1 2.6 0 3 5.8 9.6 11.8 13.6 5.5 3.7 8.4 7.3 5.9 7.3-.7 0-1.8-.5-2.5-1.2-2.1-2.1-1.3 0 3.4 9.3 2.5 5 4.3 9.8 4 10.6-.9 2.2-2.5.6-4.6-4.3-1.1-2.4-2.2-4.4-2.5-4.4s.2 1.7 1.1 3.8c1.9 4.1 3 9.2 2 9.2-.3 0-2.1-3.1-4.1-6.9-1.9-3.8-4-7.3-4.6-7.7-.9-.5-1-.2-.6 1.1 2 5 2.9 10.7 2 11.6-.7.7-1.4-.4-2.1-3.4-.7-2.4-1.8-5-2.7-5.7-1.3-1.1-1.5-.8-1.7 1.6-.5 7.6.7 12.4 3 12.4 1.5.1 1.6.2.1 1.3-1.4 1-1.5 2.3-.7 8.2.4 3.9 1.9 17.8 3.3 31 1.3 13.2 3.2 30.7 4 39 .9 8.2 1.5 17.6 1.3 20.8l-.4 5.7H512V0H353C205.7 0 194 .1 194 1.7c0 1.5-.1 1.5-1.8 0C190.5.1 183.1 0 106.4 0c-64 0-84.3.3-85.2 1.2s-1.2.9-1.2 0S17.1 0 10 0H0zM463 22.4c0 1.8-1.7 2.9-3 2.1-.8-.5-.7-1.1.1-2.1 1.5-1.8 2.9-1.8 2.9 0M170.9 40.6c2.1 2.7 2.9 8.8 1.2 9.8-1.4.9-4.3-4.2-4.8-8.5-.7-4.6.7-5 3.6-1.3m340.1-.3c0 2-4 4.1-5.4 2.7-.8-.8-.6-1.5.8-2.6 2.4-1.7 4.6-1.8 4.6-.1M121.2 51.2c-.9.9-1.2.7-1.2-1.2s.3-2.1 1.2-1.2.9 1.5 0 2.4m44.7 5.9c3.6 1.3 4.2 3.9.8 3.9-2.5 0-6.7-2.6-6.7-4.1 0-1.2 2-1.1 5.9.2M205 71c0 1.3-5 3.3-5.9 2.4-.7-.7 2.8-3.4 4.6-3.4.7 0 1.3.5 1.3 1M85.1 141c2.6 1.4 2.6 6 0 6-2 0-5.1-3.5-5.1-5.7 0-1.6 2.4-1.7 5.1-.3m146.5 6.8c-1.2 1.1-1.7-.7-.9-3.4l.8-2.9.3 2.8c.2 1.6.1 3.1-.2 3.5m156.2 1.9c.8.8 1.1 1.7.8 2.1-1.1 1-6-2.2-6.4-4.2-.3-1.6-.1-1.6 1.9-.5 1.3.7 3 1.8 3.7 2.6m-250.1 5.6c-.6 4.3-2 6.1-5.4 7.2-2.1.6-2.3.3-2.3-3 0-2.7.8-4.4 3-6.6 3.7-3.8 5.4-2.9 4.7 2.4m260.1-.1c1.7 1.7 1.5 2.8-.6 2.8-1.1 0-2.7-.9-3.7-2-1.8-1.9-1.7-2 .6-2 1.4 0 3 .5 3.7 1.2M166 165.9c0 2.2-4.7 6.4-6.1 5.5-1.5-.9-1-2.6 1.3-5.1 2.6-2.8 4.8-3 4.8-.4M75.5 219c1.5 2.8 1.1 8.5-.6 9.6-2.2 1.3-4.8-8.2-3.3-12 .8-2 2-1.2 3.9 2.4m336.3 106.6c1.4.9 2.2 2.6 2.2 4.3 0 3.8-.8 4.3-4.1 2.5-2.8-1.4-3.5-3.6-2.3-6.8.8-2 1.4-2 4.2 0m-40.5 5.1c-.7.2-2.1.2-3 0-1-.3-.4-.5 1.2-.5 1.7 0 2.4.2 1.8.5m-6.8 46.3c-.3.5-1.2 1-1.8 1-.7 0-.6-.4.3-1 1.9-1.2 2.3-1.2 1.5 0"/><path d="M298 165.2c0 .9.5 2 1 2.3 1.3.8 1.3-.5 0-2.5-.8-1.3-1-1.3-1 .2"/></svg>