<svg xmlns="http://www.w3.org/2000/svg" width="682.667" height="512" version="1.0" viewBox="0 0 512 384"><path d="M0 192v192l96.8-.1c57.4 0 95.9-.4 94.7-.9-1.1-.5-5.3-1.9-9.3-3-8.1-2.3-9.2-3.7-10.6-12.6-1.1-6.6-3.8-9.8-12.2-14.6-4.2-2.3-8.2-5.2-8.8-6.2-.6-1.1-1.9-2.8-2.8-3.8-2.4-2.4-2.3-4.1.1-3.3 2 .6 10.5-4.1 9.8-5.4-2.8-5.3-2.9-6.1-1.8-7.5 2-2.4 29-20.1 39.1-25.6 14.8-8.1 22.8-14.2 33-24.8 13.9-14.3 38-42.7 38-44.6 0-.6-1.1-2.1-2.4-3.5-1.4-1.5-2.8-4.1-3.3-6-.8-3-1.4-3.5-5.6-4.6s-8.7-3.9-8.7-5.4c0-.3 2.5-1.9 5.5-3.5 7.9-4.1 9.8-7.7 10.3-19.1.3-6.6-.2-12.1-1.7-19.9-1.2-5.9-2.1-12.3-2.1-14.1s-.7-3.8-1.5-4.5c-1.3-1.1-1.2-1.4.3-2.9 1-.9 1.2-1.2.5-.7-1 .6-1.2.4-.7-.8.5-1.3-.1-1.6-3-1.6-3.5 0-4.9-1.4-2.3-2.3.7-.2 0-1-1.5-1.7-1.6-.7-2.8-1.7-2.8-2.1s-1-1.1-2.2-1.5l-2.1-.6 2.2-1.2c2.3-1.3 1.9-2.6-.8-2.6-2 0-4.5-3.7-3.1-4.5 1.5-1 1.2-4.5-.4-4.5-1.8 0-1.3-4.3.5-4.9.6-.2 2.6-1.6 4.3-3.2 3.4-3.1 2.2-3.8-2.9-1.9-2 .8-2.6.7-2.3-.2.3-.7 2.4-1.9 4.9-2.7 2.4-.8 5.6-1.8 7.1-2.4 2.6-.9 6.9-5.2 15.1-15 5.1-6.3 16-11.7 23.1-11.6 9.3.1 17.5 4.9 24.6 14.2 3.4 4.5 4.4 7.1 5.7 13.6 1.3 6.6 1.4 8.5.4 10.4-1.6 2.8-6.5 6.7-9.1 7.2-1.1.2-2.5.7-3.2 1.1-.7.5-.9.2-.5-.9s.2-1.4-.9-1c-1.7.6-5.7 8-5 9.1.3.5 6 0 12.8-.9 17.8-2.6 17.1-2.7 28.4 4.1 5.4 3.3 10.4 6 11 6 1.7 0 5.1 4.2 6.4 8.1 2 5.5 4.3 6.5 8.4 3.4 2-1.5 4.6-2.5 6.6-2.5h3.4l-2.2-2c-2.3-2.1-3-5-1.2-5 1.9 0 5.2 4.2 4.7 6-.4 1.4.3 2 3 2.5 4.3.8 10.5 4.6 12.7 7.7 2.1 2.9 2 3.3-.6 5.8-4.2 3.9-8.3 1.5-6-3.5.9-1.8.7-2.6-.6-3.8-2.3-2.1-9.1-3.9-12.7-3.5-2.9.3-2.9.4-2.6 5.1.1 2.7-.3 5.4-.9 6.3-1 1.1-.8 1.4 1.1 1.4 1.3 0 2 .4 1.4.8-.5.4-1.6 1.5-2.3 2.4-1.2 1.4-1 1.6 1 1 2-.5 1.9-.3-.8 2.4-1.7 1.7-4.6 3.6-6.5 4.4-4.9 1.9-6.9 3.9-6.9 7 0 7.5-6 16.8-19.5 30l-9.7 9.5.7-4.5c1.1-7.7 4.7-21.3 6.8-26 1.1-2.5 4.2-6.8 6.9-9.6l5-5.1-.8-10.6-.7-10.6-3.3-1.1c-1.9-.7-5.2-2.7-7.4-4.5s-5.5-4.3-7.4-5.5l-3.5-2.1-13.8 2.6c-19.4 3.7-18.4 2.7-12.3 11 2.9 3.9 6.2 8.1 7.5 9.5 5.3 5.8 7.5 10.2 7.5 15.1 0 4-.7 5.8-4.5 11.4-6.7 9.7-9.7 24.5-5.8 28.7 1.4 1.6 1.5 2.3.5 3.8-.9 1.5-.9 3.6.3 9.5 1.2 6.4 1.9 8.1 5 10.9 3.6 3.4 4.5 6.1 2.3 6.8-1 .4-.5 2.3 1.5 7.2 3.6 8.7 3.6 13.5.1 8.8-1.2-1.5-1.3-1.2-1.4 2.3-.1 3.3-.3 3.6-1.1 2-.7-1.5-.8-1.2-.4 1.5 1.1 8.1 3.4 31.3 4 41 .3 5.8 1.3 17.2 2.2 25.5.9 8.2 1.6 20.1 1.7 26.2l.1 11.3H512V0H0zM444.5 17.1c-.8 1.2-3.5 1.2-3.5 0 0-1.1 2.2-2 3.3-1.4.4.2.5.9.2 1.4M490 33.5c0 .9-.7 1.8-1.6 2.2-1.8.7-3.9-1.1-3-2.6 1.1-1.7 4.6-1.3 4.6.4m-341.6 6.4c1.2 1.3 1.6 3.2 1.4 6.2l-.3 4.4-2.2-3.5c-2.2-3.4-3.1-9-1.5-9 .5 0 1.7.9 2.6 1.9m-48.3 10.4c-1.3 1.3-1.5-1.1-.4-4 .7-1.6.8-1.5 1.1.6.2 1.3-.1 2.8-.7 3.4m45.2-.6c2.8.6 3.5 1.7 1.6 2.8-1.4.9-6.6-1.3-7.3-3.2-.5-1.1-.2-1.3 1.1-.8 1 .3 3 .9 4.6 1.2M182 66.4c0 1.4-2.1 2.6-4.6 2.6-2.2 0-1.6-2 .9-3 3.1-1.2 3.7-1.2 3.7.4M75 131c3.7 3.7 1.5 7.4-2.9 5-1.4-.7-2.1-2.1-2.1-4 0-3.6 2-4 5-1m143 5.7c0 2.2-1.7 4.9-2.5 4.1s.5-5.8 1.6-5.8c.5 0 .9.8.9 1.7m-95 3.8c0 3.6-.5 4.7-2.5 6.1-3.7 2.4-5.9 1.2-5.1-2.9.6-3 4.6-7.7 6.7-7.7.5 0 .9 2 .9 4.5m247.2 3.2c2.1 1.8 2.3 3.3.6 3.3-1.4 0-4.8-3-4.8-4.2 0-1.3 2.2-.9 4.2.9M144 157.4c0 2.5-3.2 5.6-5.7 5.6-1.6 0-.6-2.8 2-5.8 2.6-2.9 3.7-2.8 3.7.2M26.5 199c.3.5.1 1-.4 1-.6 0-1.1-.5-1.1-1 0-.6.2-1 .4-1 .3 0 .8.4 1.1 1m33.3 3.4c1.5 2.9.9 9.6-.8 9.6-1.5 0-4-5.6-4-8.8 0-5.1 2.6-5.5 4.8-.8M196 293.1c0 1.2-.7 1.9-1.9 1.9-2.2 0-3.4-2.3-1.9-3.8s3.8-.3 3.8 1.9m195.9 22.3c.8.9.8 2.1.1 4-.8 2.3-1.2 2.5-3.5 1.4-2.4-1.1-3.4-4.5-1.8-6.1 1.1-1.2 4-.8 5.2.7m-37 5.5q1.5.9-2.1.9c-1.9 0-4.1-.4-4.9-.9q-1.5-.9 2.1-.9c1.9 0 4.1.4 4.9.9"/><path d="M297.6 161.2c.8 2.6 2.5 5 3.1 4.4.5-.5-2.5-6.6-3.3-6.6-.3 0-.2 1 .2 2.2m14.6 107.9c.6 1.6 1.2 2.8 1.4 2.6.5-.5-1.3-5.7-2-5.7-.3 0 0 1.4.6 3.1"/></svg>