<svg xmlns="http://www.w3.org/2000/svg" width="682.667" height="512" version="1.0" viewBox="0 0 512 384"><path d="M0 192v192h477.9l-3.2-5.2c-4.3-7.1-18.7-21.3-26.9-26.7-3.7-2.4-10.7-6-15.5-8.1l-8.8-3.8.1-6.3c0-3.5.4-14.3.9-23.9.9-18.8.1-27.8-3.5-42.2-8-31.5-36.4-60.6-80.5-82.6-6-3-11.1-5.6-11.3-5.7-.2-.2.3-2.9 1.1-6.2 1-4.3 3.2-8.8 8.4-16.4 9.5-14.2 11.6-18 10.5-19.1-.6-.6-11.3-1.6-23.8-2.4-12.6-.8-23.9-1.7-25.1-1.9-4.6-1-5.4-9.4-2.3-24.7 3.4-16.7 6.2-23.9 13.7-35.6 16.6-25.6 33.7-55.7 41.1-72.5.2-.4-79.1-.7-176.2-.7H0zM320.6 21.1c-.9 1.9-1.5 2.6-1.6 1.7 0-2.1 2.3-7.4 2.7-6.1.2.5-.3 2.5-1.1 4.4"/></svg>