<svg xmlns="http://www.w3.org/2000/svg" width="682.667" height="512" version="1.0" viewBox="0 0 512 384"><path d="M0 192v192h110c60.5 0 110-.3 110-.6 0-1-9.4-4.6-18.4-7.1-5-1.3-10.1-3-11.3-3.8-1.4-1-2.9-3.9-4.3-8.4-1.1-3.7-2.9-8-4-9.4-1.9-2.3-3.7-3.4-14.4-8.3-2.6-1.2-4.3-2.8-5.2-5.1-1-2.4-2.1-3.3-3.7-3.3-3.6 0-3-3.3 1.4-7.6 4.2-4.1 4.7-5.5 2.4-7.4-2.6-2.2-1.7-3.7 6.3-10.3 10.8-9 18.6-14 29-18.6 28.7-12.7 39.1-20.4 63.6-47.4l7.9-8.8-2.7-9.8c-1.5-5.4-2.6-11.6-2.4-13.6.1-2.1-.2-3.9-.7-4.1-.6-.1-2.2-.5-3.7-.8-2.2-.5-2.8-1.2-2.8-3.2s.9-2.8 4.5-4.4c3.7-1.6 5-2.8 6.6-6.4 2.8-6.5 3.9-17.4 2.9-29.6-.5-5.8-.9-11.6-1-12.8 0-1.5-.7-2.6-2-2.9-2-.5-2.8-2.3-1-2.3.6 0 1-.5 1-1 0-.6-1.1-1-2.5-1s-2.5-.5-2.5-1c0-.6-1.2-1.5-2.7-2.1-2.7-1-2.7-1.1-.9-2.5 2-1.4 2-1.4 0-1.5-1 0-1.3-.3-.6-.6 1.7-.7.5-2.3-1.9-2.3-1.1 0-1.8-.4-1.5-.9.4-.5 0-1.1-.6-1.4-1-.3-.9-.8.2-2.2 1.4-1.7 1.3-1.8-.4-1.1-2 .7-2 .7 0-1.6 1.5-1.8 1.6-2 .1-.9-2.2 1.7-3.4.7-1.7-1.4 1-1.2 1-1.5 0-1.5-.7 0-.1-1.5 1.4-3.5 2.9-3.7 2.1-4.9-.9-1.5-1.4 1.5-2 1.7-2.6.8-.4-.7-.2-1.9.4-2.7 1-1.2.9-1.4-.6-.8-1.6.6-1.6.5-.2-2.1 1.3-2.2 2.7-4.7 4.3-7.2.1-.2 1.8-.3 3.7-.2 1.8.1 3.6-.2 3.9-.7s1.3-4.2 2.1-8.2c2.3-10.9 3.1-12.3 10.5-17.8 7.9-5.9 10-6.8 17.5-7.6 6.2-.7 12.4 1.5 20.4 7.3 4.5 3.3 11 12.4 11.1 15.5 0 1.4.4 1.6 1.9.8 1.9-1.1 23.5-2 26.1-1.1.8.3 1.8.9 2.1 1.3 1.3 1.8 8.3 1.5 11.1-.5 3.3-2.3 18.3-7.8 21.6-7.8 1.2 0 2.2.4 2.2.9 0 1.7-7 5.3-9.3 4.8-3.5-.9-13.1 4.4-13.5 7.4-.2 1.3-.9 3-1.4 3.6-.7.9-.7 1.3.1 1.3 2 0 1.1 2-1.4 3.2-2.3 1-2.3 1.2-.7 2.4 1.5 1.2 1.4 1.4-1.6 2-2.3.5-2.9.9-2.1 1.5 2.5 1.5-.3 2.4-7.6 2.4h-7.3l-2.6 4.2c-2.8 4.7-10.3 10-18.8 13.4-2.9 1.1-5.7 2.4-6.2 2.9s-1.4.6-2.2.3c-.7-.2-2.7 1-4.5 2.9-1.7 1.8-2.6 2.5-1.9 1.5 1.7-2.3.6-3.3-2.3-2-4.1 1.9-2.9 5.8 5.3 17.1 12.5 17.2 13.5 19 13.4 24.3 0 4-.8 6-4.7 11.8L315 202v9.6c0 8.1.3 9.9 1.8 11 1.4 1.1 1.5 1.6.4 3.4-1 1.6-1 3.2.2 8.3 1.3 5.7 2.9 16.4 7.2 48.2.8 6.6 1.8 21.9 2.1 34s.9 22.5 1.3 23c.5.6.5 2.5.2 4.3-.4 1.8-.2 10.8.4 20 .6 9.3.7 17.5.2 18.5-.8 1.6 3.9 1.7 91.2 1.7h92V201.2l-2.2.4-2.3.5 2.3-1.2 2.2-1.2V0H0zM500 6.4c1 2.6.3 6.6-1.1 6.6-2.6 0-7.8-3.1-8.4-4.9-.9-3.1.2-4.1 4.6-4.1 3.2 0 4.1.4 4.9 2.4M452 18c0 1.3-1.1 1.3-3 0-1.2-.8-1.1-1 .8-1 1.2 0 2.2.4 2.2 1M109.3 36.8c1.3 1.4 1.6 2.6 1.1 4.6-.8 3.4-2.6 2.9-3.8-1.1-.6-2.3-1.6-3.2-3.7-3.7-1.6-.3-2.9-1.1-2.9-1.7 0-1.8 7-.3 9.3 1.9M56 49.9c-1.2 2.3-3 2.8-3 .9 0-1.6 3.4-5.2 3.8-3.9.2.5-.2 1.9-.8 3m81.3 7.8c1.1 1-1.3 3.3-3.4 3.3s-2.6-2.6-.6-3.3c1.8-.8 3.3-.8 4 0M90 119.2c0 2.1-.8 3.1-3 4.3-5.7 3-7-1.8-1.8-6.6 3.4-3.3 4.8-2.7 4.8 2.3m-49.8 4.5c1.9 1.7 2.3 4.9.9 7.1-.6 1.1-1.3.7-3-1.4-2.3-2.9-2.4-3.4-1.5-5.8.8-2 1.3-2 3.6.1m145.9 4.6c-1.7 1.7-2.2.2-.9-2.9 1.1-2.8 1.2-2.9 1.6-.5.2 1.3-.1 2.8-.7 3.4m155.5 4.9c1.1 1.7 1.3 9.8.4 9.8-1 0-2-2.6-2-5 0-1-.9-2.1-1.9-2.5-1.1-.3-2.2-1.2-2.5-2-.7-1.9 4.9-2.1 6-.3M102 140.9c0 2.4-3.7 7.1-5.6 7.1-1.7 0-1.7-.5-.3-3.3 2.7-5.2 5.9-7.3 5.9-3.8m-69.3 24.3c2.4 2.2 3.3 9.1 1.3 10.3-1.7 1-6.3-7.1-5.6-10 .8-3.1 1.3-3.1 4.3-.3M207 249.8c0 1.1-.8 2.6-1.9 3.6-1.5 1.4-2 1.4-2.9.3-.9-1-.8-1.9.4-3.5 1.8-2.7 4.4-2.9 4.4-.4m-49 29.6c0 2.4-2.3 5.6-4 5.6-2.3 0-2.7-2.9-.8-4.8 1.1-1.1 4.8-1.7 4.8-.8m193.6 13.7c1 1.7-3.7 5-5.3 3.7-1.7-1.3-1.7-3.5 0-4.1 2.2-.9 4.6-.7 5.3.4m-245.1 23c2.3 4.4 1.2 6-1.3 1.9-2.4-3.9-2.7-5-1.2-5 .5 0 1.7 1.4 2.5 3.1"/></svg>