<svg xmlns="http://www.w3.org/2000/svg" width="682.667" height="512" version="1.0" viewBox="0 0 512 384"><path d="M0 61.5C0 114.4.2 123 1.4 123c2 0 4.6 3.9 4.6 6.7 0 2.3-2.3 3.2-3.5 1.3-.3-.6-1-1-1.6-1-.5 0-.9 48.3-.9 127v127h112.5c61.9 0 112.5-.3 112.5-.8-.1-1.5-6.6-12.1-9.2-15.1-3.5-3.8-6.6-5.5-17.8-9.1-7-2.3-9.8-3.8-13-7-3.4-3.4-4.7-4-8.2-4.1-2.4 0-5.1-.4-6.1-.7-1.6-.7-1.5-1 .5-3.9 1.3-1.7 4-4.2 6-5.4 2.1-1.3 3.8-2.7 3.8-3.1 0-.3-1.2-1.6-2.6-2.7-2.4-1.9-2.4-2.1-.9-4.4 1.3-2.1 11.5-9.7 12.9-9.7.7 0 33.4-19.8 38.2-23.1 10.1-6.9 23-21.2 31.8-35.4 2.7-4.4 2.8-4.8 1.7-10.7-.6-3.6-1.9-7-3.1-8.3-1.6-1.7-2.3-4.5-3.2-13.6-.7-6.3-1.2-14.1-1.2-17.4-.1-6.7.7-8.2 14-27.3l7.2-10.2-.6-14.7c-.6-16-1.5-18.9-5.3-16.5-1.9 1.2-2.4.7-2-2.6.1-.6-.3-1.2-.9-1.2-.5 0-1-.7-1-1.5 0-2.1-1.6-1.9-2.5.2-.6 1.6-.8 1.6-2.6-.6-2.1-2.6-2.5-6.2-.9-9.2.8-1.3.7-1.9 0-1.9-.6 0-.3-1.2.8-2.8 3-4.3 3.4-6 4.2-18.4.9-13.8 2.1-17.9 6.8-23.7 7-8.6 13.1-11.7 25.2-12.6 6.3-.4 8-1.4 8-4.7 0-5 2.5-12.4 5.6-16.4 2.1-2.7 3.4-5.5 3.4-7.4 0-1.7.5-3 1-3 .6 0 1-1.2 1-2.6 0-2 .4-2.4 1.9-1.9 1.4.4 2.1 0 2.6-1.5s1.3-2 2.6-1.7c1.1.3 2.3-.1 2.8-1 .6-1.2 1.3-1.3 2.8-.5 1.1.6 2.4.7 2.9.3.5-.5 1.7-1.1 2.8-1.3 1.2-.2 3.7-3.8 7-9.7 4.9-9 7.6-12.1 7.6-8.7 0 .9-2.2 6.1-5 11.5-4.1 8.3-4.7 10-3.4 10.5 1.5.6 1.5.9 0 3.1-1.6 2.4-1.5 2.5 1.1 3.1l2.6.7-2.3 1.9c-2.3 1.9-2.3 2-.6 3 1.8 1 1.8 1.2-.5 2.8-2 1.6-2.1 2-1 3.4 1.2 1.4 1 1.7-1.7 2.2-2.2.5-2.9 1-2.5 2.1.5 1.3 0 1.5-2.5 1.1-2.2-.3-3.2 0-3.2.9 0 .7-.8 1.3-1.7 1.3-1.4 0-1.8.9-1.8 4.3 0 2.7-1.2 6.9-3.4 11.6-2.7 5.9-3.2 7.7-2.2 9 3.7 5.1 5.1 9.8 5.1 17.6 0 4.6-.4 7.4-.9 6.7-.6-1-1-1-2 .2-.9 1.1-1 2-.1 3.6.6 1.2.9 2.9.6 3.7-.4.9 0 2.5.7 3.7 1.1 1.7 1.1 2.5 0 4.6-.9 1.8-1.3 2-1.3.7 0-.9-.4-1.7-1-1.7-.5 0-1 .4-1 1 0 .5-.5 1-1.1 1s-.9-.7-.5-1.5c.3-.8.1-1.5-.4-1.5-.8 0-1.6 5.6-1.1 8.3.1.4-.5.7-1.3.5s-2.6 1.2-3.9 3c-2.1 2.8-2.6 3-3.2 1.5-.5-1.5-.9-1.2-2.1 1.6-2.2 5.3-1.7 6.9 4.4 13.8 6.8 7.8 13.3 17.1 16.3 23.2 2.7 5.5 2.3 11.1-1.5 20.1-1.5 3.6-3.3 7.7-3.9 9.2-1.8 4.3.4 19.3 3.2 21.9 1.7 1.7 2 2.4 1 3.5-.9 1.1-.7 3.7.9 11.7 1.2 5.6 3.1 15.6 4.2 22.2 7 40.4 12 60.4 22.4 91 1.9 5.5 4.7 14 6.2 18.8 2.5 8.1 2.5 8.9 1 10.6-.9.9-1.6 2.7-1.6 3.9v2.2h152V0H0zm56.8-42.9c-.4.3-1.9.4-3.5.2l-2.8-.4 2.5-1.1c2.3-1 5.1-.1 3.8 1.3M67.5 29c.8 1.3-1.4 4.2-2.5 3.5-1-.6-.1-4.5 1.1-4.5.4 0 1.1.5 1.4 1M80 53.5c0 2.1-3 3.1-4 1.4-1.1-1.7-.3-2.9 2.1-2.9 1 0 1.9.7 1.9 1.5m-36.2 47.2c.2 1.4-.4 2.3-1.7 2.7-1.2.3-3 .9-4.1 1.2-3 .8-2.5-2 .7-4.6 3.1-2.4 4.7-2.2 5.1.7M146 116c-.6 1.1-1.5 2-2.1 2s-.6-.7.1-2c.6-1.1 1.5-2 2.1-2s.6.7-.1 2m-97 10c0 1-1.1 3.2-2.5 4.7-2.3 2.7-2.4 2.7-2.5.6 0-2.6 3.1-8.3 4.2-7.7.5.3.8 1.4.8 2.4M6.8 137.7c-1 .2-2.6.2-3.5 0-1-.3-.2-.5 1.7-.5s2.7.2 1.8.5m474.8 49c-.3 2.6-1.3 5.4-2.1 6.2-2.3 2.3-3.2-3.3-1.2-7.5 2.5-5.1 4.1-4.4 3.3 1.3m-236.8 2.2c1.9 1.1-.8 2.1-5.8 2.1-3.9 0-6.1-1.4-3.8-2.3 2.1-.9 8.2-.7 9.6.2m-97.4 49.7c2.2.8 2 4.1-.3 5.4-2.7 1.4-3.7 1.3-5.5-.6-2.2-2.2-1.3-3.3 4.1-5.3.1-.1.8.2 1.7.5M72 273.4c0 1.1-.4 2.7-.9 3.5-1.3 2-3.1-1.8-3.1-6.6l.1-3.8 1.9 2.4c1.1 1.3 2 3.3 2 4.5m31.4 2.8c-2.9 5.7-7.1 7.8-6 3 .7-2.9 4-6.2 6.2-6.2 1.2 0 1.2.6-.2 3.2m43.1 69.4c-4.9 4.1-7.3 4.8-3.3 1 2.1-2 4.3-3.6 5-3.6.7.1 0 1.2-1.7 2.6M39 368.5c-.8.9-2.7 2.3-4.3 3.1-4.1 2.2-3.2-.3 1.3-3.4 3.6-2.4 5.1-2.2 3 .3"/><path d="M271.8 209.5c-.3.3.8 5.6 2.4 11.7 2.4 9.4 2.7 11.6 1.7 13.5-2.1 3.8.1 4 3.2.3 6.9-8.1 8.2-10.8 8.6-17.4l.4-6.4-6.3-.7c-3.5-.3-7-.8-7.9-1.1-.8-.2-1.8-.2-2.1.1"/></svg>