<svg xmlns="http://www.w3.org/2000/svg" width="682.667" height="512" version="1.0" viewBox="0 0 512 384"><path d="M0 66c0 66 0 66 2.1 66 1.2 0 1.7.4 1.4 1.1-.4.6-1.3.8-2.1.5C.2 133.1 0 151.4 0 258.5V384h229.2l-1.9-3.1c-5.4-8.4-8.3-10.2-24.3-15-5.9-1.7-8.5-3.1-12-6.5-3.9-3.8-5.2-4.4-8.7-4.4-2.3 0-4.5-.5-4.8-1.1-.4-.5-1.8-1.4-3.1-1.9s-2.4-1.4-2.4-2 2.3-3.3 5.2-6.1c4.8-4.6 5-5 3.5-6.7-2.5-2.7-2.1-4.4 1.6-7.9 2.5-2.5 23.6-16.6 40.8-27.5 11.5-7.2 24.9-21.3 35.7-37.4 4.2-6.3 4.5-7.2 4.3-11.4-.2-2.5-.2-2.5-1.4.4-1.3 2.9-1.3 2.8-2.6-4.5-1.8-10.2-3.1-14.1-5.1-16.1-1-1-2.1-4-2.5-7-.3-2.9-1.5-8.5-2.5-12.5-1.7-6.4-1.8-7.5-.5-10.5 1.5-3.7 10.8-16.5 19.5-27.1l5.5-6.6v-14c0-13.2-.1-13.9-1.7-12.4-1.7 1.5-1.8 1.4-1.8-.5 0-1.5-.5-2-1.5-1.6-.8.4-1.5.1-1.5-.5s-.4-1.1-1-1.1c-.5 0-1 1-1 2.2-.1 2.1-.2 2.1-1.1.5-.5-.9-1.6-1.7-2.4-1.7-1.5 0-2.9-5.3-2.4-8.6.2-1.1 0-2.5-.5-3.2-.5-.8-.1-2.1 1.1-3.4 1.6-1.8 1.8-3.9 1.8-18.7 0-19.7.9-22.3 10.4-31.4 4.6-4.4 7-5.9 11.7-7.2 3.2-.9 6.6-1.9 7.4-2.4.7-.4 2.1-3.7 3-7.3 1.7-6.9 4.1-11.5 6.6-12.5 2.8-1 4.4-5.7 3.3-9.4-1.6-5.7-1.9-10.2-.7-11.6.6-.7 1.1-2.3 1.2-3.6.1-1.5.8-2.3 2.4-2.5 1.6-.3 2.2-1 2.2-2.8 0-2.4 1.4-3.2 2.5-1.4.9 1.5 2.3 1.2 2.7-.7.2-1.2 1.5-1.7 5.1-1.8 2.6-.2 5-.4 5.2-.6s1.3-2.8 2.4-5.7L329 0H0zm48-51.5q0 1.5-3 1.5c-4.7 0-3.5-2.7 1.3-2.9.9-.1 1.7.6 1.7 1.4m11.8 13.7c-.6 1.8-2.8 2.1-2.8.4 0-.9.7-1.6 1.6-1.6s1.4.5 1.2 1.2m8.5 25.3c-.3 1.7-3 1.7-3.7 0-.4-1.3-.1-1.6 1.7-1.3 1.2.2 2.1.7 2 1.3M34 97.4c0 2.4-2.2 3.6-6.5 3.6-1.7-.1-1.5-.5 1.3-3 3.9-3.6 5.2-3.8 5.2-.6m4 25.6c0 2.4-2.1 7-3.2 7s-1-1.8.4-5.7c1.3-3.7 2.8-4.4 2.8-1.3m196.9 60.6c1.7.4 2.8 1 2.5 1.5-.7 1.2-11.1 1.2-11.9 0-1-1.6 4.4-2.5 9.4-1.5m-97.8 55c1.1 1.4 1 1.8-.6 3-2.6 1.9-4.9 1.8-6.9-.5-1.7-1.8-1.7-2 .1-3 2.7-1.5 5.9-1.3 7.4.5m-72.3 26.2c-.2 2-.8 3.7-1.4 3.9-1.5.5-2.4-3.3-1.7-6.9.8-4.2 3.5-1.6 3.1 3m28.2 8.6c0 3.4-5.2 9.8-6.7 8.2-.9-.8.6-5.3 2.3-7 1.3-1.4 4.4-2.2 4.4-1.2m47 64.1c0 .8-8.2 6.5-9.3 6.5-1.7 0 1.5-3.1 5.2-5 4.1-2.2 4.1-2.2 4.1-1.5M34 361c-1.1 2.1-4.1 4-6.2 4-.7 0 .2-1.4 2-3 3.8-3.5 5.8-4 4.2-1"/><path d="M333.2 2.7c-3.2 8.5-3.7 10.6-2.5 11 1 .4 1 1 .1 2.6-.6 1.1-.7 2.2-.2 2.4s1.6.8 2.4 1.3c1.3.9 1.2 1.2-.4 2.5-1.9 1.4-1.9 1.5 0 3.6 1 1.2 1.5 2.4.9 2.6-3.2 1.1-3.9 2.1-2.6 3.7 1.1 1.3 1.1 1.7-.1 2.1-.8.3-2.1.5-2.9.3-1-.2-1.3.5-1.1 2.4.3 2.7-1.1 3.8-2.3 1.8-1.1-1.7-2.3-1.1-2.9 1.6-.5 2-1 2.4-1.9 1.5-1.8-1.8-3.7-1.3-4.9 1.4-.9 2-.8 3.3.8 6.6l1.8 4.2-3.2 9-3.2 8.9 4.1 4.7c2.3 2.5 4.7 5.7 5.4 7.1 1.4 2.8 3.1 20.2 1.7 18.2-.7-1-1.1-1-2.2.3-1 1.2-1 1.8 0 3 .7.8.9 2.2.6 3.1-.4.9 0 2.4.7 3.3 1.2 1.3 1.2 2 .1 4.1-1 1.9-1.4 2-1.4.7 0-1.9-1.5-2.3-2.6-.6-.4.8-.9.7-1.5-.2s-.9.6-.9 4c0 4.6-.2 5.2-1.5 4.1-1.2-1-1.7-.7-2.6 1.4-.7 1.4-1.5 2.6-1.9 2.6-.9 0-3 7.9-3 11.2 0 1.5 2.5 5.2 6.6 9.8 6.6 7.5 12.3 15.2 15.7 21.3 2.6 4.5 1.7 11.5-2.8 22.6l-3.7 9.2 1.2 8.2c.8 5.8 1.8 8.9 3.3 10.5 1.6 1.8 1.9 2.7 1.1 4s-.2 6 2.1 18.2c1.8 9.1 4.7 24.4 6.5 34 4.7 26.1 10.1 46.9 18.5 72.5 7.7 23.4 8.6 28.3 6 30.5-.8.7-1.5 1.9-1.5 2.6 0 1.2 12.2 1.4 76.5 1.4H512V0H334.2zm139.5 179.4c-.3 2.3-1.3 4.9-2.1 5.8-1.5 1.4-1.6 1.2-1.6-2.3 0-4.1 1.5-7.6 3.2-7.6.7 0 .9 1.5.5 4.1m-203 17.7c-2 2.1-3.7 4.8-3.7 6 0 4.6 3.3 1.6 6.5-6.1.8-2 1.4-3.7 1.2-3.7s-2 1.7-4 3.8m-1.2 11.2c-.3.5.3 3.5 1.4 6.6 1.7 5.2 1.8 6.2.5 10.4-1 3.4-1.1 5.6-.4 8.1.6 1.8 1 4.7 1 6.2 0 1.6.4 2.7.9 2.5.8-.3 12.7-15.5 14.6-18.7.4-.7 1-4.2 1.2-7.7.4-6.2.3-6.5-2.2-7.4-3.3-1.3-16.2-1.3-17 0"/></svg>