<svg xmlns="http://www.w3.org/2000/svg" width="682.667" height="512" version="1.0" viewBox="0 0 512 384"><path d="M0 192v192h229.3l-2.4-2.7c-3.4-3.9-3.6-4-11.4-6.4-15.9-4.7-16.4-5-20.3-9.4-3.5-4-4.3-4.4-9-4.7-3-.2-5.2-.8-5.2-1.4 0-.7-1.6-1.9-3.5-2.8s-3.5-2.1-3.5-2.6c0-.4 2.2-3.3 5-6.3 4.3-4.7 4.8-5.6 3.5-6.7-.8-.7-1.5-2-1.5-3 0-2.3 9.4-10.9 18.5-17 34.7-23.2 43.9-31.8 59.9-56 6-9 14.6-21.2 19.1-27.1 7-9.1 8.3-11.5 8.9-15.7.3-2.7.4-5.6.1-6.4-.6-1.6-17.6-4.5-19.5-3.3-.5.3-1 1.8-1 3.3s-.7 3.8-1.6 5c-.8 1.2-1.3 2.6-.9 3.1.3.6 1 4.6 1.5 9 .9 7.1.8 8.7-1.1 14.3-2.9 8.6-3.7 9.9-4.5 7.1-.3-1.3-1.1-2-1.7-1.6-.7.4-.8-1.4-.3-5.6.7-6.1-.4-8.3-1.9-3.9-.7 2.1-.8 2.1-1.2-.7-.2-1.7-.8-3.9-1.3-5-.4-1.1-1.1-3.8-1.4-5.9s-1.4-4.8-2.4-6c-1.1-1.2-2.2-3.5-2.6-5.1-.4-1.7-1.6-6-2.8-9.6-2-6.3-2-6.7-.4-10.1 1-2 5.1-7.6 9.2-12.5 4.1-4.8 9.9-11.8 13-15.5l5.6-6.7-1.1-7c-.6-3.8-.8-8.3-.5-9.9.3-1.7.1-3.8-.5-4.9-.7-1.1-1-1.3-1.1-.4 0 1.1-.3 1.1-1.5.1s-1.5-1-1.5.1c0 .9-1.1 1.4-3 1.4-2.5 0-3.1-.6-4.6-4.3-.9-2.4-1.4-5.2-1.1-6.3.3-1.2 0-1.9-1-1.9-1.5 0-1-3.3 1-5.8.6-.8.7-5.6.1-14-1.1-16.9-.7-22.9 1.6-27.7 3.7-7.4 13.3-16.2 20.2-18.4 4.1-1.3 4.3-1.9 5.3-10.6.9-7.8 3.1-13 6-14.3 1.3-.6 2.7-2.1 3.1-3.4.3-1.3 1.5-3.3 2.4-4.6 1.7-2.1 1.7-6.2 0-6.2-.5 0-.6-.8-.3-1.9.2-1-.2-2.4-.9-3.2-.8-.7-1.2-2.5-1-4.1.3-1.9 0-2.8-.9-2.8-1-.1-.9-.4.4-1.4.9-.7 1.6-2.4 1.6-3.7-.1-1.3.5-4.3 1.3-6.7l1.6-4.2H0zM38.6 10.1c1.1 1.8-1.3 3.2-4.3 2.4-2.7-.6-2.7-.7-.9-2.1 2.4-1.7 4.2-1.8 5.2-.3m12.8 16.4c-.6 1.6-2.4 2.1-2.4.7 0-1.1 1.1-2.2 2.1-2.2.5 0 .6.7.3 1.5m5.9 26c.1.5-.6 1.1-1.5 1.3-1.1.2-1.8-.3-1.8-1.3 0-1.7 3-1.8 3.3 0M25.6 93.1c.3.6 0 1.7-.7 2.4-1.9 1.8-6.4 2.3-6.4.7 0-.7 1.1-1.9 2.5-2.6 3.2-1.8 3.7-1.8 4.6-.5M28 120c0 1.5-3.3 8-4.1 8-.7 0 .7-6.5 1.8-8.3.6-1 2.3-.9 2.3.3m200.3 60.9c.8.8-.2 1.1-4 1.1-5.9 0-8.6-.8-7.7-2.2.8-1.3 10.1-.5 11.7 1.1m-102.8 55.7c3.3 3.4-3 6.5-6.8 3.3-2.2-1.9-2.2-1.9-.3-3.4 2.6-1.9 5.1-1.9 7.1.1M58 255.7c0 1.3-.5 3.4-1.1 4.5-.9 1.7-1.3 1.8-2 .7-1-1.6-1.2-8.3-.2-9.2 1.1-1.2 3.3 1.5 3.3 4m22.4 20.5c-2.9 5.7-7.1 7.8-6 3 .7-2.9 4-6.2 6.2-6.2 1.2 0 1.2.6-.2 3.2m48.6 57.3c0 .5-7.7 5.5-8.5 5.5-1.9 0 .2-2.1 3.8-3.9 4.6-2.3 4.7-2.3 4.7-1.6m-99.1 19.2c-2.1 2.9-5.3 5.3-6.9 5.3-.9-.1 0-1.4 2.2-3.5 4-3.7 7.1-4.9 4.7-1.8M322.3 3.9c.1 2.2 1.1 4.8 2.1 5.9 1.6 1.9 1.6 2.1.1 2.9-1.5.9-1.5 1.1-.1 2.6 2 2 2.1 3.7.1 3.7-1.8 0-2 2.1-.3 3.8 1.9 1.9-.4 3.7-3 2.3-1.9-1-2-.9-1.5 2.4.6 3.9-.1 4.3-2.9 1.8-1.7-1.5-1.8-1.4-2.4 1.5-.7 3.4-1.4 3.8-3.1 2.1-.7-.7-1.5-.2-2.7 1.6-2.6 4-3.1 8.1-1.2 11 2.2 3.3 2 5.6-.9 15.8l-2.5 8.6 5.4 5.5c6.8 6.7 8.6 10.2 9.1 17.4.2 3.1.7 7 1.1 8.7.6 2.9.5 2.9-1 1-1.7-2.2-1.8-2-2 4.3-.1 2.4.3 4.7 1 5.3 1.9 1.5.5 4.1-1.7 3.4-2.1-.7-3.9 2.6-3.9 7.3l-.1 2.7-1.3-2.5-1.4-2.4-1.7 3.9c-1.2 2.6-1.7 6.1-1.6 9.9.2 5.3.1 5.8-1.3 4.7-1.4-1.2-1.6-.9-1.6 1.8 0 2.1.7 3.5 2.4 4.6 3.5 2.3 18.7 19.9 21.8 25.3 1.5 2.6 2.8 5.8 2.8 7.2 0 3.1-1.9 9.5-5.5 18.4-2.6 6.5-2.7 7-1.5 15.2.9 6.5 1.7 8.8 3.2 9.8 1.6 1.2 1.9 2 1.3 4.3-.5 1.5-.8 3.1-.7 3.5 2 9.5 3.9 19.4 7.2 37.8 8.2 45.6 13.1 67.1 21.5 95 4 13.6 4.2 16.6 1.3 19.7l-2.1 2.3H512V0H322zM465 174.5c0 2.8-2 7.5-3.2 7.5s-1-4.5.4-7.5c1.4-3.2 2.8-3.2 2.8 0m32.5 49.5c-.3.5-1.8 1-3.3.9l-2.7-.1 2.5-.8c3.5-1.1 4.2-1.1 3.5 0"/><path d="M268.9 195.7c-7.5 7.9-7.4 7.7-4.8 12.2 1.2 2.2 2.6 3.8 3.1 3.5 1.9-1.2 5.9-10.9 6.5-15.5.3-2.7.4-4.9.2-4.9-.3 0-2.5 2.1-5 4.7"/></svg>