<svg xmlns="http://www.w3.org/2000/svg" width="682.667" height="512" version="1.0" viewBox="0 0 512 384"><path d="M0 192v192h113.8c98.7-.1 113.5-.3 111.8-1.5-1-.8-4.4-1.9-7.5-2.6-3.1-.6-6.5-1.5-7.6-1.9-8.5-3.3-11.1-4.9-14.2-8.7-3.3-4-3.9-4.3-8.4-4.3-3.8 0-4.9-.4-4.9-1.6 0-.8-1.6-2.2-3.5-3s-3.5-1.8-3.5-2.2 1.8-3.1 4-6c4-5.3 4.8-7.6 3-8.7-3.3-2.1 3.5-9.3 22-23.2 36.1-27.2 38.1-29.2 55.6-56 6.2-9.4 14.2-20.9 17.7-25.5 8-10.3 8.7-11.7 8.7-16.6v-3.8l-9.5-1.3c-5.2-.8-9.5-1.6-9.5-1.9s1.2-3 2.7-6c2.1-4.2 2.8-7.4 3.1-13.8.3-4.6.3-8.4.1-8.4-.3 0-3.5 3.4-7.2 7.4l-6.7 7.5 2 3.3c2.3 3.8 2.4 4.7.8 8.5-.6 1.6-1 6.6-.9 11.8.2 7-.2 10.5-1.9 15.8-2.1 6.5-3.2 7.8-4.5 5.7-.4-.6-1.1-.8-1.6-.4-1 .6-.8-1.5.7-9.8.8-4-.7-3.4-3.4 1.3-1.3 2.2-2.6 3.8-2.9 3.5s.2-1.7 1.1-3c2.8-4.4 1.6-10.7-1.4-7.1-.7.8-1.7 1.5-2.2 1.5-.6 0 0-.8 1.3-1.9 3.3-2.6 3-8.3-.5-11.6-1.4-1.3-2.6-3.1-2.6-3.9s-.9-3.6-2-6.2c-2.8-6.5-1.7-9.3 8.3-21 4.5-5.3 10.8-12.5 13.9-16.2l5.6-6.7-1-5.5c-.5-3-.7-7.8-.4-10.7.6-5.2 0-6.5-3.2-6.9-1.1-.2-1.2.6-.8 3.2.6 2.9.5 3.3-1.1 2.7-1-.3-2.4-1-3-1.6-.9-.7-1.3-.4-1.3.9 0 1.4-.5 1-2-1.4-1.1-1.8-2-4.4-2-5.9 0-1.4-.6-3.1-1.3-3.7-1.1-.9-1.2-3.3-.6-11.3.4-5.6.3-11.9-.2-14s-.9-7.6-.9-12.3c0-7.6.3-9 2.9-13.5 4.5-7.8 12-14.6 18.7-17.1 6.6-2.4 6.1-1.4 7.8-17.6.7-6 1.2-7.1 4.7-10.8 2.1-2.2 3.9-4.5 3.9-5.1s.9-2.2 2-3.6c2-2.6 2.8-6.9 1.1-5.8-1.6.9-2.2-1.2-1.1-4 1-2.6.9-2.7-1.5-2.1-2.8.7-3.2-.3-1.2-3.5 1-1.7 1-2.3 0-2.6-1.8-.6-1.6-2.3.5-4.6 1.3-1.5 1.4-2.1.4-2.4-1-.4-1-.9.3-2.3.9-1 1.4-2.4 1-2.9C291.1.3 247.1 0 145.4 0H0zM30 7.5c0 1.6-1.8 2.3-4.2 1.7s-2.2-1.7.5-2.9c2.5-1.2 3.7-.8 3.7 1.2M44 24c0 .5-.5 1-1.1 1-.5 0-.7-.5-.4-1 .3-.6.8-1 1.1-1 .2 0 .4.4.4 1m2.4 28.1c-.8 1.4-2.4 1-2.4-.6 0-.9.6-1.2 1.5-.9.8.4 1.2 1 .9 1.5M197 76.4c0 .2-.8 1-1.7 1.7-1.6 1.3-1.7 1.2-.4-.4s2.1-2.1 2.1-1.3M17.4 89.9c.8 1.2-1.3 2.7-4.6 3.5-4 .9-4.5-1.2-.6-2.9s4.5-1.8 5.2-.6m104.8 20.3c-.7.7-1.2.8-1.2.2 0-1.4 1.2-2.6 1.9-1.9.2.3-.1 1.1-.7 1.7M15.9 122.6c-1.6 4.1-2.3 1.2-.8-3.3 1-2.9 1.4-3.3 1.7-1.7.1 1.1-.2 3.4-.9 5m201.5 53.5c5.4 2.5-.9 4-7.2 1.8-1.8-.6-2.9-1.5-2.6-2 .7-1.3 6.8-1.1 9.8.2m-103 58.5c2 2 2 3 0 3.8-2.8 1.1-5.7.6-7-1.2-1.9-2.4-1.7-3 .9-3.5 4-.8 4.5-.7 6.1.9m-64.6 13.2c.2 1.7-.2 4.1-.9 5.3-1 2-1.2 2.1-2.1.5-1.2-2.2 0-9.8 1.5-9.3.7.2 1.3 1.8 1.5 3.5M70 274.5c0 .8-1.4 3-3.1 5-3.8 4.3-5.9 3.4-3.5-1.3 2.2-4.3 6.6-6.8 6.6-3.7m167.5 7.5c-.3.5-1.1 1-1.6 1-.6 0-.7-.5-.4-1 .3-.6 1.1-1 1.6-1 .6 0 .7.4.4 1m-119 47.6c-3.1 2.4-9.5 5.5-9.5 4.7 0-1.1 3.7-3.5 7.5-5 4-1.6 4.4-1.5 2 .3m-95.2 17.6c-1.8 1.8-3.5 3-3.8 2.7-.9-1 3.5-5.9 5.3-5.9 1.2 0 .8.8-1.5 3.2M320.3.7c.4.3.2 1.2-.4 1.9-.8.9-.4 1.7 1.6 3 2.5 1.7 2.6 1.9.9 3.1-1.6 1.2-1.6 1.4-.1 3.1 2.3 2.5 2.1 4.1-.3 3.5-2.3-.6-2.4-.3-.8 3.2 1.4 3.1.6 4-2.2 2.5-2.1-1.1-2.2-1.1-1.5 2.9.7 4.3-.3 5.3-2.5 2.6-1.9-2.3-3-1.8-3 1.5 0 3.1-.9 3.7-2.7 1.9-.8-.8-1.6-.4-2.8 1.5-3 4.5-3.3 8.6-1.1 12.7l2 3.6-2.7 10.7c-3.3 13-3.3 14-.1 16.5 4.1 3.2 8.3 9.1 9.3 13 1.6 6.1 2.4 15.4 1.3 14.7-1.9-1.1-3.6 2.3-2.4 4.9.8 1.7.8 2.5 0 2.7-.8.3-.7 1.3.3 3.4 1.2 2.4 1.3 3.3.2 5.4-1.2 2.5-1.3 2.5-1.3.2 0-1.2-.4-2.2-1-2.2-.5 0-1 1.5-1 3.4 0 3.7-1.4 5.6-2.4 3.1-1-2.6-2.6-1.6-2.6 1.6 0 2-.4 2.8-1.1 2.3-.9-.5-1 .7-.5 4.5.4 2.9.3 5.1-.1 4.8-.5-.3-1.5 1.2-2.4 3.2l-1.6 3.7 4.1 2.8c2.3 1.5 5.2 4.3 6.6 6.2 1.4 1.8 4.9 6 7.8 9.1 9.2 9.9 11.2 13.1 11.2 17.8 0 2.3-1.6 9.1-3.6 15-3.6 10.7-3.6 10.9-2.4 18.4.7 4.2 1.9 8.4 2.8 9.5q1.65 1.8 1.8 7.5c0 3.1 2.1 16.6 4.7 30.1 4.1 22.4 6.5 36.3 11.3 66 .9 5.8 3.3 17.5 5.4 26 6.2 25.4 6.4 26.7 4.6 29.6L352 384h160V0h-96.2c-52.9 0-95.8.3-95.5.7m135 173.5-1.8 3.3-.3-2.8c-.2-1.6.5-4 1.5-5.5 1.7-2.6 1.8-2.6 2.1-.5.2 1.2-.5 3.7-1.5 5.5"/><path d="M312.1 99.6c0 1.1.3 1.4.6.6.3-.7.2-1.6-.1-1.9-.3-.4-.6.2-.5 1.3"/></svg>