<svg xmlns="http://www.w3.org/2000/svg" width="682.667" height="512" version="1.0" viewBox="0 0 512 384"><path d="M0 192v192h91.3l91.2-.1-5.1-4.8c-3.8-3.4-7-5.3-11.8-6.9-9.7-3.2-11.4-4.6-13.2-10.8-1.3-4.5-2.2-5.7-5.5-7.6-2.4-1.3-3.9-2.9-3.9-4.1 0-1 2.5-4.3 5.5-7.2 3.7-3.5 5.3-5.8 4.9-6.8-1.2-3.1 1.7-8.6 6.8-13.1 5.9-5.2 29.7-17.6 51.3-26.7 15.7-6.6 28.4-14.4 36.7-22.2 3.6-3.4 5.1-5.8 6.3-10.2.9-3.1 1.5-5.9 1.2-6.1-.5-.5-.7-.3-5.3 5.4-3.5 4.3-4.2 3.4-1.1-1.5 1.4-2.1 2.8-5.1 3.1-6.6l.7-2.9-4 2.3c-2.3 1.2-4.4 1.9-4.8 1.4-.5-.4-.2-1 .6-1.3s2.6-1.6 3.9-2.9c2-2 2.3-3.1 1.9-6-.4-2-1.5-4.5-2.6-5.7-1.6-1.8-2-4.2-2.6-15.7l-.7-13.6 4.1-8.8c2.2-4.8 4.1-9.4 4.1-10.2 0-.7-1.2-1.9-2.6-2.5-2-1-2.7-.9-3.4.2-.7 1.2-1.3 1.1-3.3-.8s-3-2.1-7.3-1.5c-2.7.4-8.7.7-13.4.7-9.6 0-13.8-1.2-30-8.4-12.7-5.6-30.2-11.5-39-13-7.2-1.3-19.2-6-19.2-7.5.1-.6 2.1-1.4 4.6-1.9 2.9-.6 4.6-1.5 4.6-2.3 0-1.1.7-1.3 3.3-.7 7.1 1.7 28.3-.7 44.7-5.1 21.7-5.8 25.8-6.2 40-3.9 3 .5 3.8.2 5.7-2.4 2.1-2.9 2.1-3 .4-4.9-1-1.1-2.2-3-2.5-4.4-.4-1.3-1.2-3.4-1.8-4.6-.9-1.8-.6-3.2 1.6-7.6 2.8-5.9 3.3-10.7 2.1-22.3-.8-7.9-.2-9.7 6.8-19.4 4.6-6.3 6.7-8.3 11.9-11 13.1-7 30-3.4 40.3 8.3 3.2 3.7 5.3 7.7 8.4 16 2.2 6.1 3.8 11.3 3.6 11.5s-1.4-1.1-2.5-2.9l-2.2-3.4.8 6c.4 3.3.6 8.2.5 10.9-.1 4.6.6 8.5 2.4 12.9.5 1.3.3 1.6-.8 1.1-1-.3-2 .3-2.7 1.6-.6 1.2-1.4 1.9-1.7 1.6-.4-.3-1.2-.1-1.9.5-.9.8-1.1.5-.8-1.3.3-1.7 0-1.5-1 .8-.8 1.7-3.1 4.5-5.2 6.3-2.7 2.4-3.4 3.5-2.5 4.4.6.6 1.1 1.9 1.1 2.9 0 .9 1.6 2.8 3.5 4.1 7.3 4.9 27.3 22.3 29.6 25.6 3.4 4.9 3.2 11.7-.6 20.1-2.8 6-3 7.3-2.8 17 .1 10.9.8 13.7 4.5 18.2 1.9 2.4 2 3.1.9 5.1-1 1.9-.9 3.5.4 8.8 3.4 13 11.7 63.1 14.5 88.1 1.7 14.1 3.6 28.7 4.4 32.5.8 3.7 1.8 9.6 2.2 13.1l.7 6.2H512V0H0zM136 73.8c0 2.3-2.6 5.9-3.6 5-.8-.9 1.5-6.8 2.7-6.8.5 0 .9.8.9 1.8m88.4 29.8c.3.8.2 1.2-.4.9s-1-1-1-1.6c0-1.4.7-1.1 1.4.7m178.6 36c-1.7 1.9-5 3.7-5 2.7 0-.7 4.8-4.2 5.9-4.3.2 0-.2.7-.9 1.6M52.5 208.4c4 1.7 4.7 4.6 1.1 4.6-2.7 0-7.9-3.7-7.1-5.1.8-1.2 2-1.1 6 .5m324.9 10.2c2.5 1 1.9 2.6-.6 1.9-3.1-1-4.7-2.5-2.6-2.5.9 0 2.3.3 3.2.6M207.8 227c.7 1.1 1.1 2 .9 2s-1.2-.9-2.2-2-1.4-2-.9-2 1.5.9 2.2 2m-29.1 38.7c.3.7-1 1.5-3.2 1.9-4 .7-5 .2-4.1-2.1.7-1.9 6.7-1.7 7.3.2m66.1 1.9c3.2 2.2 2.8 3.8-1 3-5.3-1.1-8-4.6-3.5-4.6 1.2 0 3.3.7 4.5 1.6m228.3 24.5c-1.6.6-2.8.6-3.5-.1s.1-1 2.5-.9c3.2 0 3.3.1 1 1m30.5 2.6c-.8.8-3.6-.5-3.6-1.7 0-.7.6-.7 2.1 0 1.1.7 1.8 1.4 1.5 1.7M41 309c0 .5-1.2 1-2.7.9-2.5 0-2.6-.1-.8-.9 2.7-1.2 3.5-1.2 3.5 0m69 41.5c0 .2-2 1.8-4.5 3.5-4.2 2.9-5.5 3-3.7.4 1.8-2.5 8.2-5.7 8.2-3.9"/><path d="M242 132.7c0 4.4.5 4.9 3 3.3 1-.6 1.1-1 .3-1-.7 0-1.3-.8-1.3-1.8 0-.9-.5-2.4-1-3.2-.7-1.1-1-.4-1 2.7m46 5.2c-.7 1.5-.7 2.1 0 2.1 1.2 0 2.5-2.8 1.7-3.6-.3-.3-1 .4-1.7 1.5m-22.9 70.4c-.7.9-1.1 2.6-.9 3.9.4 2.2.5 2.2 1.7-.6 1.4-3.5 1-5.4-.8-3.3m1.5 19.6c.5 2.1-.1 4.3-1.7 7.3-2.2 3.9-2.4 5.2-1.9 13.7l.5 9.4 7.2-7.6c8.5-9.2 13.5-16.4 13.1-19.2-.2-1.4-1.4-2.1-4.3-2.7-2.2-.3-5.7-1.4-7.7-2.2-5.2-2.2-5.8-2-5.2 1.3"/></svg>