<svg xmlns="http://www.w3.org/2000/svg" width="682.667" height="512" version="1.0" viewBox="0 0 512 384"><path d="M0 192v192h85.8c56.4 0 85.2-.4 84.2-1-.8-.6-5.1-2.4-9.5-4.1-9.7-3.7-13-6.6-13.9-12.2-.5-3.2-1.7-5.1-5.3-8.3-4.5-4.2-4.6-4.3-3-6.8.9-1.4 3.4-3.9 5.6-5.6 3.3-2.7 3.9-3.8 4.4-8.2.5-3.6 1.6-6.3 3.5-8.7 4.2-5.3 17.7-13.3 29.4-17.6 5.7-2.1 10.8-4.1 11.3-4.5.6-.4 6.3-2.8 12.8-5.4 6.5-2.5 15.2-6.4 19.5-8.5 13-6.6 34.2-25.3 34.2-30.1 0-2.5-1.4-1.9-4.9 2.2-3.4 4.1-3.7 2.7-.6-2.6 1.5-2.5 2.5-5.2 2.3-6.1-.3-1.3-.6-1.3-3.2 0-3.3 1.8-4.6 1.9-4.6.5 0-.6.6-1 1.4-1s2.4-1.2 3.6-2.7c2.6-3.4 2.1-7.6-1.5-11.3-1.7-1.8-2.6-4.1-3-7.5-.3-2.8-1-8.6-1.6-13l-1.1-8 4.6-11.8c2.5-6.5 4.6-12 4.6-12.2 0-.7-7.4-2.5-7.9-1.9-.3.3 0 1.4.7 2.4 1.5 2.5 1.4 2.5-3.9.1-2.9-1.3-4.6-1.6-5-.9s-1.7.3-3.5-1.1c-3.7-2.6-7.5-2.8-14.3-.8-6.9 2.1-20.6 2.2-30.3.2-4-.9-14-3.8-22.3-6.5-19.2-6.2-37.9-10.6-53-12.5-16.3-1.9-32.1-6.4-29.9-8.5 1.8-1.6 18.2-4.1 33.3-5.1 17.6-1.1 18.6-1.3 17.7-3.5-.5-1.4-.2-1.5 2.1-.9 5.7 1.6 15.3.6 33.3-3.6 16.1-3.7 20-4.3 30-4.3 9 .1 12.9.5 17.9 2.2 3.5 1.1 6.9 1.8 7.7 1.5.7-.3 2.4-2.4 3.7-4.8 2.3-4.1 2.4-4.3.6-6.6-1-1.3-2.3-4.5-2.9-7.1-1-3.9-.9-5.1.6-8 .9-1.8 2.6-4.2 3.7-5.2 1.8-1.7 1.9-2.6 1.1-9-1.6-14-1.2-16.6 3.9-24.9 8.8-14 17.8-19.3 31.8-18.5 17.3 1 25.9 9.4 35.8 34.8l2.2 5.4-2.9-2.7-2.9-2.8.8 5c.4 2.7 1.2 5.9 1.8 7 1.4 2.6 1.5 5.2.1 3.1-1.9-3-1 6 1 10.2 2.3 4.8 2.5 5.7.8 4-1-1-1.6-.5-3 2-1.3 2.6-1.7 2.9-1.8 1.3-.1-1.9-.1-1.9-1.1-.2-.6.9-1.4 1.5-2 1.2-.5-.4-1.2.2-1.6 1.1-.3 1-2 3-3.7 4.5-2.5 2.2-3.2 2.4-3.6 1.3-.5-1.3-.9-1.2-2.3.4-1.7 1.8-1.7 2 .8 3.6 1.4.9 2.5 2.5 2.5 3.5s1.2 2.7 2.8 3.6c1.5 1 5.8 4.3 9.6 7.4 24 19.6 24.9 20.7 24.3 29.1-.2 3.1-1.6 8.4-3.2 12-3.3 7.7-4.1 15.2-2.5 25.2.8 5.4 1.7 8 3.5 9.8 2.7 2.8 3.1 5 1.4 6.7-.7.7-.4 3.4 1 8.9 1.1 4.3 3.4 15.8 5.1 25.4 1.8 9.6 3.8 20.9 4.6 25 .7 4.1 3.4 19.5 5.9 34.1 3.7 22.2 7.7 41.6 10.1 50.1.5 1.7 5.2 1.8 79.5 1.8H512V0H0zM129 73.8c0 1-.7 2.7-1.5 3.8-1.4 1.8-1.4 1.7-1.5-1.2 0-1.7.3-3.4.7-3.7 1.2-1.3 2.3-.7 2.3 1.1m92 26.7c.7.9.8 1.5.2 1.5-.5 0-1.2-.7-1.6-1.5-.3-.8-.4-1.5-.2-1.5s.9.7 1.6 1.5M398.1 136c-2.1 1.8-5.1 2.7-5.1 1.5 0-.6 5.3-3.4 6.5-3.4.6 0-.1.9-1.4 1.9M47.8 203.6c1.2.8 2.2 1.9 2.2 2.5 0 1.8-4.9.8-7.7-1.6l-2.8-2.4 3-.1c1.7 0 4.1.7 5.3 1.6m318.2 15c2.2.9 4 2 4 2.5 0 1.1-6.1-1-8-2.7-1.9-1.8-.9-1.8 4 .2m-165 6.7c0 .6-1.1 0-2.5-1.3s-2.5-2.8-2.5-3.3c0-.6 1.1 0 2.5 1.3s2.5 2.8 2.5 3.3m-28.6 36.3c.9.3 1.6 1.2 1.6 1.9 0 1.7-5.7 2.5-7.7 1-1.5-1.1-1.5-1.3.3-2.3 2.2-1.3 3.6-1.4 5.8-.6m65.4 7c3 2.1 2.8 3.4-.7 3.4-2.9 0-6.1-2.2-6.1-4.1 0-1.4 4.3-1 6.8.7M492 287.5c1.4 1.6 1 1.8-1.4.9-.9-.3-1.6-1-1.6-1.5 0-1.4 1.6-1.1 3 .6m-24.3 3.1c-.3.3-1.2.4-1.9.1-.8-.3-.5-.6.6-.6 1.1-.1 1.7.2 1.3.5m-441 19c-.3.3-1.2.4-1.9.1-.8-.3-.5-.6.6-.6 1.1-.1 1.7.2 1.3.5m69.7 35.8c-.5 1.4-7.8 7.6-8.8 7.6-.3 0-.6-.5-.6-1 0-1.9 6.1-6.9 9.7-7.9.1-.1 0 .5-.3 1.3"/><path d="M237.7 131.7c-1 .9-.9 2.3.1 2.3.5 0 .9-.7.9-1.5 0-1.7-.1-1.8-1-.8m17.3 52.2c0 .6.5 1.3 1 1.6.6.3 1-.1 1-.9 0-.9-.4-1.6-1-1.6-.5 0-1 .4-1 .9m15 47.1c0 1.1-.8 3.7-1.7 5.8-2 4.1-2.5 18.2-.8 18.2 1.1 0 10-9.9 12.6-14 2.1-3.3 2.9-7.9 1.5-8.8-1-.7-9.3-3.1-10.8-3.2-.5 0-.8.9-.8 2"/></svg>