<svg xmlns="http://www.w3.org/2000/svg" width="682.667" height="512" version="1.0" viewBox="0 0 512 384"><path d="M0 192v192h73c42.2 0 73-.4 73-.9s-.6-1.1-1.4-1.4-2-3.2-2.6-6.4c-1-4.7-2-6.5-5.3-9.5-3.9-3.6-3.9-3.8-2.4-6.2.9-1.4 3.5-3.9 5.7-5.7 3.3-2.7 4-3.9 4-6.8.1-11.3 12.3-21.8 33.3-28.8 13.2-4.4 36.5-13.8 44.7-18.1 11-5.8 31.5-23.4 32.7-28.1.3-1.4 1.5-3.8 2.5-5.4 1.1-1.5 2.3-4 2.8-5.7.7-2.6.6-2.9-1-2.7-1 .2-2.5.9-3.4 1.6s-2.4 1-3.3.6c-1.5-.5-1.3-.9 1.4-2 6.2-2.6 6.9-7.7 1.9-13.3-3-3.3-3.6-4.8-4.6-12.1-.6-4.5-1.5-9.4-2.1-10.8-1.5-4-1.1-6.5 3.1-20.2 2.2-7.1 4-13.7 4-14.5 0-1-1.5-1.5-5-1.8-5.2-.3-6 .1-3.5 2.2 2.9 2.4 1.8 3.9-2.2 2.9-6.3-1.4-7.5-1.2-6.3 1.1l1.1 2-5.2-2c-2.9-1-5.6-1.7-6.1-1.4-.4.3-.8.1-.8-.5 0-.5-2.5-2.1-5.5-3.5l-5.5-2.5-5.2 2.4c-7.7 3.5-17.5 4.9-29.3 4.2-5.5-.4-11.1-.9-12.5-1.2s-4.1-.8-6-1.1-10.5-2.4-19-4.6c-17.4-4.6-21-5.3-43.5-9.8-8.8-1.7-17.1-3.5-18.5-4s-9-1.4-17-2c-17.1-1.2-48-7.5-48-9.7 0-.7.3-1.3.8-1.3.4 0 5.2-.7 10.7-1.6 5.5-.8 20.6-1.9 33.5-2.4 23.9-.8 62.1-4.4 65.2-6.1 1-.5 3.1-.9 4.8-.9 1.6 0 9.8-1.1 18.2-2.5 18.2-3 35.9-3.5 46.4-1.2 7.2 1.6 15.6 4.9 18.6 7.5 1.5 1.2 2.1 1.2 4.7-.4 1.9-1.1 3.1-2.6 3.1-4 0-1.2 1.1-3.8 2.5-5.7 2.3-3.4 2.3-3.9 1-6.9-.8-1.8-1.5-2.9-1.5-2.3-.1 1.9-3.1-6-3.2-8.5-.1-3.1 4-9.7 6.6-10.6 1.7-.6 1.8-1.2 1-7.8-1.5-12.1-1-15.4 3-23.4 4.6-9.2 9.4-14.5 15.9-17.7 7.2-3.4 13.9-4.5 21-3.4 13 2.1 21.2 9.3 29 25.5 2.7 5.5 5.5 11.1 6.2 12.6 1.6 3.2 1 3.6-1.7 1.1-1.7-1.5-1.8-1.4-1.8 1.6 0 1.7.9 4.9 2 7.1 2.6 5 2.5 5.8-.1 3.4l-2.1-1.9.7 4.5c.4 2.5 1.6 6.2 2.6 8.2 2.2 4.4 2.3 4.9.6 4.2-.8-.3-2 .9-3 2.8-1.2 2.2-1.6 2.6-1.3 1.1.3-1.9.2-2.1-1.7-1-1.1.7-3.6 2.9-5.6 5.1-1.9 2.1-3.7 3.3-3.9 2.6-.3-.7-1-.6-2.3.6-2.4 2.2-2.4 2.9.1 5.4 1.2 1.2 1.8 2.5 1.5 2.9-.3.5 1.6 2.5 4.2 4.4 15.7 11.7 28 21.7 30.6 24.9 4.6 5.7 4.8 12 .7 23.4-3.9 10.8-4.5 15.9-3.1 26.5.9 6.5 1.6 8.7 3.6 10.7 2.5 2.5 3.2 5.6 1.6 8-.4.8 0 4.1 1.1 8 1 3.7 3 12.8 4.4 20.2 9.9 52.9 16 81.8 21.5 101.8l3.1 11.2H512v-53.8l-3.4-2.1c-1.9-1.2-4-2.9-4.7-3.8-.8-.9.4-.5 2.8 1s4.5 2.7 4.8 2.7.5-73.8.5-164V0H0zM122 77.4c-.8.8-1.3.7-1.9-.3-1-1.5-.5-3.7 1.3-6 .9-1.1 1.2-.8 1.4 1.9.2 1.8-.2 3.8-.8 4.4m98.1 20.9c1.2 2.2 1.2 2.2-1 .3-1.1-1.1-2.1-2.3-2.1-2.8 0-1.4 1.9.1 3.1 2.5m176.4 33.1c-2.7 1.8-6.5 2.9-6.5 1.9s4.5-3 7-3.2c1-.1.8.3-.5 1.3M43.3 197.8c2.6 2.3 2.1 3.5-1.5 2.8-3.7-.7-5.8-2.3-5.8-4.2 0-1.8 4.7-.9 7.3 1.4m315.5 21.9c1.1.5 1.8 2.3.8 2.3-1.4 0-7.5-3.2-8.6-4.5-1.3-1.6-1.1-1.6 2.5 0 2.2.9 4.6 1.9 5.3 2.2m-166.8.4c2 3.6.9 4.2-1.5.9-1.4-1.9-2.5-3.5-2.5-3.7 0-.9 3.2 1.3 4 2.8m-22.2 39.1c2.1 2.1 1.3 2.8-3.3 2.8-4.7 0-5.8-1.2-2.7-2.9 2.3-1.4 4.5-1.4 6 .1m62 12c2.1 1.8 1.3 2.8-2.1 2.8-3.3 0-5.7-1.5-5.7-3.5 0-1.4 5.9-.8 7.8.7M483.5 282c1.4 1.6 1.5 2 .4 2-1.6 0-3.9-1.9-3.9-3.2 0-1.4 1.6-.9 3.5 1.2m-18.5 8c-.8.5-2.4.9-3.5.9-1.6-.1-1.6-.2.5-.9 3.5-1.1 4.8-1.1 3 0M16.3 310.7c-.7.2-1.9.2-2.5 0-.7-.3-.2-.5 1.2-.5s1.9.2 1.3.5m66.8 30.2c-1.5 2.8-8.5 8.5-8.9 7.3-.6-1.8 1.8-5.2 5.1-7.2 4-2.5 5-2.5 3.8-.1"/><path d="M281.4 134.2c-.9 1.8-2.1 3.6-2.6 3.9-1.3.9 1.7 3 3.4 2.4 1.2-.5 2.5-9.5 1.3-9.5-.2 0-1.2 1.5-2.1 3.2m-9.3 105.1c-1.6 4-2 6.4-1.5 9.5.4 2.3 1 4.2 1.4 4.2 1.1 0 6.3-6.7 8.4-10.7 2.3-4.5.8-8.3-3.3-8.3-2.5 0-3.1.6-5 5.3"/></svg>