<svg xmlns="http://www.w3.org/2000/svg" width="682.667" height="512" version="1.0" viewBox="0 0 512 384"><path d="M0 87v87h8.3c14.9 0 40.1-5.6 56.2-12.5 5.8-2.5 9.1-3.5 17.5-5.4 10.2-2.4 21.1-6.8 25.9-10.7 6.2-5 17.7-10.4 22.3-10.5 6.4-.2 37.6 2.1 81.7 6.1 13.6 1.2 22 1.6 23 1 1.2-.7 1.3-.9.2-1-1.1 0-1-.5.4-2 1.8-1.9 1.7-2-.6-2-1.4 0-3 .5-3.7 1.2-.9.9-1.2.6-1.2-1.4 0-1.5-.5-3.9-1-5.3-.9-2.3-1.3-2.5-2.5-1.5-2.2 1.8-3.1.3-1.2-1.8 2.2-2.5 2.1-3.5-.2-2.9-1.5.4-1.8.1-1.4-1.2.6-1.5.5-1.5-1.3 0-3.7 3.1-4.7 3.3-3 .7.9-1.4 1.4-3.4 1-4.4-.3-1-.8-2.5-1-3.2-.3-1-.9-.9-2.8.3-2.3 1.5-2.4 1.5-2.8-1.5-.3-1.7.2-3.9.9-5 .8-1.1 1-2 .5-2s-1.7 1-2.6 2.2c-1.5 2.2-1.6 2-.9-4.1.5-5.3.4-6.3-.8-5.5-2.8 1.7-4.1 1.4-3.3-.9.4-1.2.5-4.9.3-8.2-1-16-.6-19.4 4.2-29.5 4.9-10.4 9-14.7 21.6-22.7 9.5-6.2 23.4-7.8 35.5-4.3 4.5 1.3 16.7 9.3 23.5 15.4 7.8 7.1 12.4 17.8 14.3 33.9.5 4.3 1.9 10.5 3.1 13.8s1.9 6.3 1.5 6.6c-.4.4-.9-.2-1.2-1.4-1-3.8-3.5-1.6-2.9 2.6 1 6.6 1.2 27.1.3 27.1-.5 0-3.4 2.5-6.4 5.5s-6.5 6.2-7.7 7l-2.2 1.7 2.9 2.1c1.6 1.2 6.1 4.7 10 7.7 3.9 3.1 10.3 7.8 14.1 10.5 11.4 8 16.6 13.9 20 22.5 4 9.9 3.9 17.5 0 28-3.5 9.3-3.7 17.1-.6 31.5 2.3 10.4 3.8 13.7 7 15.5 2.7 1.4 3.5 4.6 2.2 7.9-1 2.2-.6 5.2 1.9 16.6 1.7 7.7 4 18.3 5.1 23.5s2.7 11.7 3.4 14.5c.8 2.7 3.4 15.3 5.9 28 2.6 12.6 4.8 24 5.1 25.2l.5 2.3h143V248.6c0-107.4-.3-135.5-1.2-135.9q-1.5-.6 0-.6c.9-.1 1.2-12 1.2-56.1V0H0zm312.8-34.8c.7.7 1.2 2.1 1.2 3.1 0 1.7-.2 1.7-2-.6-1.1-1.4-2-2.8-2-3.1 0-1 1.5-.7 2.8.6M148 66.7c0 2.9-1.4 3-3.4.1-1.1-1.6-1.2-2.6-.4-4.1 1-2 1.1-2 2.4-.2.8 1 1.4 2.9 1.4 4.2m281.4 34.2c.8 1.2-1.8 2.1-6.4 2.1-4.3 0-6.3-1.6-2.8-2.3 4.2-.8 8.7-.7 9.2.2M149.3 111c-.3 1.1-1 2.3-1.6 2.7-.7.4-.8 0-.4-1.1.4-1 .7-2.2.7-2.7s.4-.9.9-.9.7.9.4 2m-84.8 42.1c1.5 1.5-1.7 1-4.5-.7l-2.5-1.5 3 .6c1.7.4 3.4 1.1 4 1.6m391.9 100.1c1.3 5.6 1.1 7.3-.7 7.6-3.1.6-6.7-2.5-6.7-5.7 0-3.1 1-3.9 4.7-4 1.6-.1 2.4.6 2.7 2.1M424 304.7c1.3 4.4 1.2 4.7-1 6.5-1.3 1-3.3 1.8-4.4 1.6-1.7-.2-2.2-1.1-2.4-5.2-.3-3.9.1-5.3 1.9-7.2 2.8-3 4.2-2 5.9 4.3m77-5.7c-2 1.3-9 1.3-9 0 0-.6 2.4-1 5.3-1 3.7 0 4.8.3 3.7 1"/><path d="M288 126.7c-1.3 2.7-3.5 6.7-5.1 9-2.4 3.6-2.6 4.3-1.3 5.4 1.9 1.5 2.5.8 5.9-6 2.4-4.7 4.5-13.1 3.3-13.1-.2 0-1.5 2.1-2.8 4.7m-56 7.4c0 .5.5.7 1 .4.6-.3 1-.8 1-1.1 0-.2-.4-.4-1-.4-.5 0-1 .5-1 1.1m46.6 1.4c-.9 1.4-1.3 2.5-.8 2.5s1.4-1.1 2-2.5 1-2.5.8-2.5-1.1 1.1-2 2.5m12 5.8c-1.4 1-1.6 1.6-.7 2.2 1.5.9 3.5-.8 3-2.4-.3-.8-1-.7-2.3.2M79.5 161.1c-3 1.4-3.4 1.9-1.8 1.9 3 0 7.3-1.7 7.3-3s-.8-1.2-5.5 1.1m94.5 14.6c-13.7 1-37.2 5.2-36.4 6.5.3.4 1.5.8 2.8.8 1.2 0 4.6.7 7.6 1.6 14.7 4.4 25.6 27.6 22.2 47.5-1.4 8.2-3 11.5-7.8 16.9-4.7 5.1-12.8 6.9-19.4 4.2-6.1-2.5-9-5.1-9-8.1 0-4.1 2.1-5.5 7.4-4.7 3.7.6 5.3.3 9.3-1.8 2.6-1.5 5.3-2.6 5.9-2.6 2 0 3.9-6.3 3.9-13-.1-7.8-3.1-16-7.9-21.6-3.2-3.6-3.6-3.8-9.7-4-10.3-.2-13.9.6-14.9 3.1-1.3 3.4-5.9 6-8.2 4.6-2.2-1.4-8.8-1.4-17.6-.1-3.7.6-9.4 1.4-12.7 1.8l-6 .8 10 3.2c5.5 1.8 10.6 3.6 11.3 4.1 2.5 1.5-1.8 2.2-13.1 2-5.9-.1-11 .1-11.3.3-.2.3 2.3 1.5 5.7 2.7 3.3 1.3 5.9 2.4 5.7 2.6s-3 0-6.3-.4c-3.3-.5-6.5-.6-7.2-.4-.6.3-4.5-.7-8.5-2-9.8-3.4-21.6-6.5-31.3-8.4-6.8-1.3-9.9-1.3-20.5-.3-6.9.7-13.6 1.5-15 1.9l-2.5.8-.3 85.1L0 384h201l8.4-6c18.3-13.1 24.6-20.7 44.7-53.5 4.1-6.6 10.6-16.3 14.4-21.5 15-20.2 16-22 16-27.5-.1-6.8-.7-7.5-5.2-6.4-5.9 1.4-11.9.1-16.9-3.7-2.4-1.9-4.8-3.4-5.3-3.4-2.3 0-1.9-2.3 1.7-9.1l3.7-7.3-.1-12.5c0-13.6-.8-17.2-8.9-38.2-5.8-15.4-4.6-14.2-16-16.1-18-3-46.1-4.4-63.5-3.1m6.1 22.4c.4 1.5 0 3.1-.9 4.1-2.4 2.9-4.2 2.2-4.2-1.5 0-5.6 3.8-7.5 5.1-2.6m29.3 38.9c3.3 1.2 3.3 2.4 0 3.8-2.9 1.4-7.4.6-7.4-1.3 0-.9 2.1-2.5 4.7-3.4.1-.1 1.3.3 2.7.9M29.3 263c-.6 2.2-2.3 3.8-2.3 2.1s1.2-4.1 2-4.1c.5 0 .6.9.3 2m206.1 28c1.4.5 2.6 1.4 2.6 2 0 1.5-6.6 1.2-7.9-.3-2.1-2.6.8-3.5 5.3-1.7M35 302.5c0 2.6-2.7 6.5-4.5 6.5-1.3 0-3.5-4.9-3.5-7.7 0-.8 1.2-2.6 2.7-4.1l2.7-2.7 1.2 3c.7 1.7 1.3 3.9 1.4 5m156.3 32.2c-.7.2-1.9.2-2.5 0-.7-.3-.2-.5 1.2-.5s1.9.2 1.3.5"/></svg>