<svg xmlns="http://www.w3.org/2000/svg" width="682.667" height="512" version="1.0" viewBox="0 0 512 384"><path d="M0 85.5V171l4.2-.6c2.4-.3 5.9-1 7.8-1.5 9.7-2.5 7.3-.1-3.7 3.7-11.4 3.9-10.9 5.4 1.3 3.4 9.5-1.5 9.5-1.5 13.7-6.3 3.9-4.5 4.9-5 13.2-7.2 7.2-1.9 9.5-3 11.6-5.5 2.2-2.6 3.2-3 7.3-3 3.7 0 5.7-.7 8.9-2.9 6.6-4.7 10.9-5.4 26-4.2 7.2.6 23.5 1.1 36.1 1.1 12.7 0 28.7.4 35.6 1 6.9.5 26.2 1.4 43.1 2 16.8.6 35.4 1.5 41.5 2 6 .6 12.9 1.2 15.4 1.3 4.4.2 4.5.1 4.8-3 .3-2.8.1-3.1-2-2.6-2 .4-2.1.3-.7-.9 2.4-2 3.4-5.8 1.5-5.8-1.8 0-2.1-1.6-.5-2.5.6-.5.4-1.2-.8-2.1-2.5-1.9-3.3-1.7-3.3.7 0 1.5-.4 1.9-1.6 1.5-1.1-.4-1.8.1-2.1 1.4-.6 2.3-2.3 2.7-2.3.6 0-.7-1-3.5-2.2-6.2-1.9-4.1-2.3-4.5-2.6-2.6q-.3 2.4-1.8 1.8c-.9-.3-1.4.1-1.4 1.4 0 3.9-1.7 1.9-2.9-3.3-1.5-6.6-2.7-8.8-4-6.8-.7 1.1-1.1.9-2-.8-.7-1.2-.9-2.6-.6-3.1.4-.6.3-1-.2-.9-1.9.3-2.3-.2-1.4-2 .8-1.4.6-2.3-.9-3.6-1.8-1.6-2-1.6-2.6-.1-1 2.5-1.9 1.9-2.1-1.5-.3-4.1-2.1-6.3-3.9-4.8-1.1.9-1.4.6-1.4-1.4 0-1.3-1.4-5.4-3.1-9-5.7-12.2-4.9-20.3 3.6-37.9 4-8.1 4.9-9.2 12.5-15 4.5-3.5 9.9-7.5 12.2-9 4.2-2.8 19.2-6.8 25.7-6.8 5.5 0 13.7 2.7 21.1 7 3.6 2 8.6 4.9 11.1 6.3 4.8 2.7 11.4 9.8 14.2 15.2 3.9 7.7 6.8 20.4 8.3 37 .3 3.8 1.7 10.4 3 14.5s2.3 8.8 2.3 10.5c-.1 2.9-.1 2.9-.8.5-.7-2.3-.8-2.4-1.4-.5-.4 1.1-.5 3.6-.2 5.5.3 2.6 0 3.9-1.5 5-1 .8-2.2 3-2.5 4.8-.3 1.9-1.3 4.6-2.2 6-1.7 2.8-8 9.2-9 9.2-.3 0-.3-1.4.1-3.1l.6-3-2.7 2.1c-4 3.2-4.9.6-2.3-7.1 1.1-3.4 2-7.4 1.9-8.8 0-1.6-.7-.4-1.8 3.4-.9 3.3-2.5 7.5-3.5 9.4-1.5 2.8-1.5 3.5-.4 4.2.7.5.9.9.5.9s1.9 2.7 5.3 6c3.3 3.4 7.2 7.9 8.6 10.1 1.4 2.3 2.8 3.8 3.1 3.5s-.5-2.2-1.8-4.3l-2.3-3.8 4.4 3.6c2.5 2 10.4 7.4 17.5 12.1 15.2 9.9 19.8 14.3 23.3 21.7 2.2 4.8 2.4 6.2 1.9 14.5-.3 6.5-1.4 11.6-3.5 17.9-2.9 8.4-3 9.4-2.5 19.5.7 11.7.1 10.6 10.1 19 4.3 3.6 5.7 4.2 9.6 4.2 2.5 0 4.8.5 5.1 1 .6 1-1.3 7.8-2.7 9.4-.4.6-.8 1.7-.8 2.5s-.6 2.2-1.4 3c-1.2 1.4-1.2 2.4-.1 6.8 3.2 12.2 3.9 19.9 2.8 29.5-1.1 9.1-1.1 9.6 2.7 24.8 2.1 8.5 4.6 19.7 5.5 24.7l1.7 9.3H512V0H307.5C126.2 0 103.1.2 103.6 1.5c.4 1 0 1.5-1 1.5-.9 0-1.9-.7-2.2-1.5C99.9.2 93.3 0 49.9 0H0zM86.7 7.6c-.3.3-1.2.4-1.9.1-.8-.3-.5-.6.6-.6 1.1-.1 1.7.2 1.3.5m343.4 13.1c1.3 1.5 1.2 1.5-1.1.3-3.4-1.7-3.6-2-1.8-2 .9 0 2.2.7 2.9 1.7M102 49.1c0 1.4-6.3.7-6.7-.8-.2-.6.4-1.3 1.4-1.5 2.2-.5 5.3.9 5.3 2.3m-45-1.5c0 3.1-6.5 6.5-9.2 4.8-1.7-1.1 3.4-5.4 6.4-5.4 1.5 0 2.8.3 2.8.6m311.4 11c2.5 1 1.9 2.6-.6 1.9-3.1-1-4.7-2.5-2.6-2.5.9 0 2.3.3 3.2.6M499.3 81c5.3 0 6.3 1.4 1.6 2.4-3.7.7-10.9-1-10.9-2.6 0-.6.9-.8 2.3-.4 1.2.3 4.3.6 7 .6m-357.8 52.8c-.6.7-6.5-.9-6.5-1.7 0-.5 1.5-.3 3.4.3s3.3 1.2 3.1 1.4M470 239.9c0 2.5-2.9 9.4-4.4 10.3-1.6 1.1-8.8.9-10.5-.1-1.3-.8-1.2-1.5.4-5.1 2.2-4.8 5.4-6.9 10.8-7 3 0 3.7.4 3.7 1.9"/><path d="M236.5 110.9c-.3 1.2-1.1 1.8-1.7 1.5-.7-.4-.8-.2-.4.5.4.6 1.2.9 1.7.6.5-.4.9 0 .9.7 0 .8.5.6 1.1-.5s.7-2.3.1-3.4c-.9-1.4-1-1.4-1.7.6m69.5 35.6c.7.9 1.5 1.3 1.7 1.1.7-.7-.7-2.6-1.9-2.6-.6 0-.6.6.2 1.5M7.1 182.3c-8.1 2.8-9.6 5.2-2.6 4.5 4.6-.6 9.5-3.2 10.3-5.6.5-1.5 0-1.5-7.7 1.1m143.4 4.9c-29.3 1.7-57.8 5.3-64.8 8.1l-3.2 1.4 5.8.6c14.8 1.8 24.8 12.2 28.7 30 1.1 4.6 1.1 7.1.1 12.3-3.5 19.2-15.7 31.4-32.6 32.8-3.8.3-7.1.5-7.2.6-.2 0-.3.6-.3 1.3s-.6 2.1-1.3 3.1c-1.3 1.7-1.5 1.6-3.1-1.8-.9-2-2.9-4.4-4.4-5.3-8-4.9-9.1-8.5-4.1-12.8 2.8-2.3 3.6-2.5 7.8-1.8 8.2 1.4 14.3.9 19.3-1.5 11.8-5.8 15.4-22.4 7.4-34-5.1-7.3-8.2-8.6-21.1-9-12.8-.4-15.9.4-17.8 5-2.8 6.6-3.8 6.7-14 1.5-7.2-3.7-10.6-4.9-15.7-5.3-3.6-.3-7.8-1-9.5-1.4-1.9-.6-6.4-.4-12 .4l-9 1.3 5.5.7c10 1.4 18.8 3.7 19.3 5.1.6 1.4-2.2 2-16 3.1-5.5.4-8.3 1.1-8.3 1.9 0 .7 4.4 2.3 10.7 3.8 5.9 1.5 11.1 3.1 11.7 3.7.7.7-2.9 1-10.7 1-12.2 0-14.9 1.1-7.4 3 2.3.6 6 1.7 8.2 2.5l4 1.5-7.3-.5c-4-.2-7.7-.7-8.2-1-.7-.4-1 22.8-1 66.5 0 36.9.4 66.9.9 66.6 1.1-.7 4.8 2 3.9 2.9-.3.4-1.6.2-2.7-.5-2-1-2.1-.8-2.1 5v6l125.2-.2 125.3-.3 5.5-8.2c3-4.6 6.6-10.4 8-13 6.6-12.8 12.4-21.6 26.2-40.1 6-7.9 10.8-14.7 10.8-15.2s-.4-1.2-1-1.5c-1.5-.9-1.2-5.8.5-8.1.8-1 1.5-3.5 1.5-5.5 0-4.3-1.8-5.2-7.7-3.8-4.4 1-12.4 1.2-14.7.3-2.7-1-2-9.2 1.3-16 4-8.2 5.1-12 5.1-17.3-.1-11.1-6.6-28.2-15.5-40.1-2.6-3.6-6.3-9.8-8.2-13.8-2.2-4.7-4.2-7.6-5.6-8.1-4.1-1.5-23.5-3.4-27.7-2.7-2.7.4-4.7.2-5.6-.5-1.3-1-9.9-1.5-52.9-3.1-4.4-.2-13.4 0-20 .4M126 245.7c-.1 2.9-4 7.2-4 4.4 0-.5.4-2.1 1-3.5 1.1-3 3-3.5 3-.9m-56 55.2c0 1-5.3 3.1-7.7 3.1s-.4-1.9 3-2.9c4.3-1.2 4.7-1.3 4.7-.2M13.6 194.6c-1 2.5.1 2.9 1.4.5.6-1.2.7-2.1.1-2.1-.5 0-1.2.7-1.5 1.6"/></svg>