<svg xmlns="http://www.w3.org/2000/svg" width="682.667" height="512" version="1.0" viewBox="0 0 512 384"><path d="M0 97.9v97.9l5 1.1c7.4 1.6 24.7 1.3 33.2-.4 4-.9 12.5-3.1 18.8-4.9 14.5-4.3 20.5-5.6 25.4-5.5 3.3.1 3.7.3 2.1 1.1-1 .6-3.9 1.2-6.4 1.3-6.9.5-7 .5-1.6 2 5.9 1.6 8.1.9 14.1-4.4 2.7-2.3 5.9-4.1 8.2-4.5 7.6-1.4 14.2-3.7 14.2-5s4.1-2.6 8.3-2.6c1.1 0 3.1-1 4.3-2.1 1.3-1.2 3.6-2.3 5.1-2.6 3.5-.5 68.4-.3 69.3.2.3.2 17.2.8 37.5 1.4 44 1.3 67.6 2.7 77.1 4.4 5.9 1.1 7.6 1.1 11.7-.2 2.6-.8 4.6-2 4.5-2.5-.1-.6.1-2.4.6-4 .7-2.9-.9-8.6-2.5-8.6-.4 0-1.1.9-1.4 2-.8 2.6-2.2 1.7-3-2-.8-3.6-1.9-4.4-4.4-3.1-2.7 1.5-4.4-1-6.6-10.2-1.5-6.3-2.1-7.6-3.5-7.2-1.1.4-3.2-1.1-6.2-4.2-2.4-2.7-5.7-5.5-7.2-6.3-4.2-2.2-7.3-6.4-9-12.4-2.9-9.8-2.3-13.6 4.3-27.1 5.3-10.8 6.7-12.9 12.3-17.7 11.5-10.1 24.8-15.1 40-15.2 8.5 0 8.9.1 19.1 5.2 8.2 4 11.6 6.4 15.6 10.7 8.6 9.5 13.3 22 16.6 44 .9 6 2.5 15 3.6 20 1.1 4.9 1.9 10.5 1.7 12.5-.3 3.5-.3 3.5-2.6-2.5-3.5-9.3-4.3-10.6-3.6-6.2.5 3.1.4 3.6-1 3.1-.9-.3-1.6-.1-1.6.6 0 .6-.4.9-.9.6-1.2-.8-2.1 5.5-2.1 14.9v8h-2.7c-1.6 0-3.3-.4-4-.8-.6-.4-1.4-.3-1.8.3-.3.6.8 1.8 2.6 2.8 5.3 2.9 8.6 6.1 9.4 8.9 1 4.1 7.8 11.7 16.9 18.8 20.6 16.1 24.9 25.2 21.3 45.3-1.4 8.1-1.4 8.4.8 13 1.2 2.6 2.8 6.3 3.5 8.2 1 2.7 3.3 4.9 9.9 9.3 20.8 14.1 38.9 27.1 42.3 30.3 2.3 2.2 4 4.8 4.4 6.9.6 3.5 3.7 6.5 9.9 9.8 2.5 1.3 2.7 1.7 1.3 2.2-1.7.7-1.7.9.2 3.6 1.2 1.5 3.2 5.3 4.5 8.3 2.3 5.2 2.4 6.2 2 22.3-.2 9.2-.8 18.1-1.3 19.8l-.9 3-.8-3c-1.2-5.2-1.4-5.5-4-5.5-2.9 0-3.1-.7-.9-3.1 1.3-1.5 1.3-2.1.1-5-1.8-4.4-4.5-6.6-8.2-7.1-3.3-.3-4.2 1.5-4.4 8.7-.2 5.7-1.4 7.3-3 3.8-.9-1.9-1.2-7.4-1-18 .2-13.1 0-15.6-1.4-17-.9-.9-2.4-1.7-3.4-1.8s-4.1-.7-6.8-1.4c-4.3-1-6.8-2.8-16-11.3-6.1-5.5-15.5-13.6-20.9-17.9-8.1-6.5-10.2-7.7-11.4-6.7-2.2 1.9-1 10 2.2 14.6 1.5 2.2 2.8 5.6 3 8 .2 2.9 1.7 6.3 4.8 10.9 2.5 3.8 5.7 8.8 7.1 11.3 2.6 4.6 11.5 26 15.8 38.3l2.4 6.7H512V0H0zM240 15c0 .5-.7 1-1.6 1-.8 0-1.2-.5-.9-1 .3-.6 1-1 1.6-1 .5 0 .9.4.9 1m95.5 4c-.3.5-1.3 1-2.1 1s-1.2-.5-.9-1c.3-.6 1.3-1 2.1-1s1.2.4.9 1m126 5.3c-3.6 4.2-5.5 5.3-5.5 3.1s7.2-9.3 7.7-7.6c.3.6-.7 2.7-2.2 4.5m30.2 1.3c.3.8-.1 2.3-1 3.2-1.5 1.4-1.7 1.4-2.3-.1-.8-2.1.1-4.7 1.6-4.7.6 0 1.3.7 1.7 1.6M357.3 49.7c-.7.2-1.9.2-2.5 0-.7-.3-.2-.5 1.2-.5s1.9.2 1.3.5M301.4 54c-.6.6-2.8 1.3-5 1.6-3.7.5-3.8.4-2-1 2.2-1.8 8.7-2.3 7-.6m-7.8 20.1c1.9 1.1 3.2 2.5 2.8 3-.7 1.1-3.3-.2-5.8-3-2.4-2.7-1.3-2.7 3 0M418 168.6c0 .2-.5 1.5-1.2 2.9-.9 2.1-1.8 2.5-5.4 2.5-5.5 0-6.2-1.2-2.5-4.3 2.1-1.7 3.7-2.3 6-1.9 1.7.2 3.1.6 3.1.8m-142.5.4c.3.5-.1 1-.9 1-.9 0-1.6-.5-1.6-1 0-.6.4-1 .9-1 .6 0 1.3.4 1.6 1m226.7 50.2c4 3.2 7.4 9 6.3 10.8-1 1.7-8.3-3.3-9.9-6.8-1.6-3.3-2.1-7.2-1-7.2.3 0 2.4 1.4 4.6 3.2"/><path d="M306.4 129.4c.3 1 .1 2.5-.5 3.2-.8 1-.6 2 1.1 4.1l2.3 2.8-.6-4.8c-.2-2.7-1-5.4-1.7-6-1-1-1.2-.8-.6.7M73 198c-1.2.8-1.1 1 .7 1 1.2 0 2.5-.5 2.8-1 .8-1.3-1.5-1.3-3.5 0m119 3.7c-16.1.5-38.5 2.4-49.4 4l-10.9 1.6 4.5 1.2c11 2.8 18.4 14.4 17.6 27.5-.7 10.8-7.8 22.5-16.7 27.3-7.6 4.2-18.1 3.5-25.4-1.6-2.2-1.5-2.7-2.6-2.5-5.1l.3-3.1 10 .3c11.7.4 15.4-.8 20.6-6.5 6.6-7.4 7.4-15.6 2.1-22.6-2.8-3.9-5.8-5.1-14.9-6.3-8.4-1.1-13.6.1-15.7 3.6-.9 1.7-2.2 3-2.8 3s-3.3-1.4-6-3c-5.3-3.3-17.9-6.3-24.8-5.8-4.5.2-4.2 1 1.2 2.8 5.1 1.6 5.6 2.8 1.3 3.4-1.9.4-5.1.8-7 1.2-4.5.6-3.8 1.8 2 3.4 5.6 1.6 6.4 2.6 2.5 3.5-1.6.4-3.2 1.1-3.6 1.6-.8 1.3 2.4 4.2 3.7 3.3.8-.4.9-.3.5.4-1.1 1.8-2.6 1.5-20.4-4.2-23.8-7.7-30.5-9-42.1-8.3-5.3.3-11.1.9-12.8 1.3l-3.3.6V384h314.9l8.5-17.3c10.1-20.3 10.5-21 19.5-32.9l6.9-9.2-1.9-2.4c-2.7-3.5-2.4-6.4 1.1-9.7 1.9-1.8 3-3.9 3-5.6 0-2.6-.3-2.7-7.9-3.9-13.2-2-17.5-6.5-11.5-12.1s8.2-13.7 6.4-23.6c-1.6-8.3-7.7-23.6-11.9-29.7-1.7-2.5-4.5-8.7-6.2-13.8-1.6-5.1-3.5-9.8-4.2-10.5-4-4.1-53.6-9.4-108.7-11.6-4.1-.2-11.3-.2-16 0m1.6 11.1c-.8.7-2.5-.8-3.7-3.1-1.1-2.1-1-2.1 1.5.2 1.4 1.4 2.4 2.6 2.2 2.9m70.3 18.4c.1 4.5-1.6 5.9-2.5 2.1-.3-1.5-.7-3.3-.9-3.8-.1-.6.2-2.1.7-3.5 1-2.4 1.1-2.4 1.8-.5.5 1.1.9 3.7.9 5.7M72 317.5c1 1.3.7 1.7-2.1 2.9-5.5 2.3-7.9.3-3.1-2.6 3.5-2.1 3.7-2.1 5.2-.3M55 330c.6 1.1.8 2 .5 2-1.4 0-4.5-2.1-4.5-3 0-1.8 2.9-1 4 1m60.5 10c1.8 1.5 4.5 6.3 4.5 8 0 3-9.6-1.4-13.3-6.2-1.4-1.8-2.4-3.5-2.2-3.8.7-1.1 9.2.5 11 2m10.2-135.3c-1.5 1.4-.5 2.3 2.5 2.3s3.1-.1 1.2-1.5c-2.2-1.6-2.8-1.8-3.7-.8"/><path d="M70.8 216.7c.7.3 1.6.2 1.9-.1.4-.3-.2-.6-1.3-.5-1.1 0-1.4.3-.6.6"/></svg>