<svg xmlns="http://www.w3.org/2000/svg" width="682.667" height="512" version="1.0" viewBox="0 0 512 384"><path d="M0 192v192h512V0H0zM242.5 85c.3.5 2.4 1 4.7 1h4.1l-.8 3.2c-1.3 6.1-1.2 6.3 2.9 6.6 3.3.3 4.4-.2 7.5-3.2 2-1.9 4.9-4 6.4-4.5 6.8-2.6 17.2-.4 23.7 4.8 2 1.6 6 4.1 8.9 5.6 4 2 5.1 2.9 4 3.6-2.2 1.4-6.1 1-10.8-1.1-4.6-2.1-7.7-2.5-8.5-1.2-.3.5-.8 2.7-1.2 4.8l-.6 3.9 5.9 2c4 1.4 7.3 3.5 10.8 6.9 2.8 2.6 6.1 5.2 7.5 5.6s2.4 1.2 2.2 1.9c-.1.8.7.9 2.5.5 2.1-.6 2.5-.4 2 .9-.6 1.6 1.8 3.1 3.4 2.1.5-.3.9 0 .9.5 0 .6-1.2 1.1-2.7 1.1-2.5 0-2.6 0-.8 2 1.8 1.9 1.7 2-.2 2-1.1 0-2.6.6-3.2 1.4-.9 1.1-2 1.2-4.4.5-4.1-1.2-7.7-1.2-5.9 0 1 .6 1 1-.2 2s-2.3 1.1-4.7.2l-3.2-1.1 1.9 2.1c1.9 2.2 1.9 2.2-.1 1.2-3.7-1.9-7.3-2.4-7.1-1 .6 3.5 2.9 8.7 3.8 8.7.6 0 2.6-1.8 4.5-3.9 3-3.6 8.5-6.2 10-4.8.3.3.9 4 1.4 8.3.4 4.2 1 7.8 1.2 8 .7.7 15 2.3 20.4 2.4 4.3 0 5.4.4 6.4 2.2l1.1 2.1-9.3-.6-9.4-.7 7.5 3.5 7.4 3.6 11.5-2c6.4-1.2 15.1-2.1 19.3-2.1 9.1 0 17.8 1.7 17.5 3.3-.1.7.8 1.1 2.3 1 1.4-.1 1.9 0 1.3.3-2.1.9-1.5 4.3 1.2 6 1.4.9 2.2 2 1.9 2.5-.3.6.5.7 2 .3 1.9-.5 3.1.1 5.5 2.5 1.7 1.7 2.6 3.1 2.1 3.1-1.8 0-1.5 3.5.5 4.7s2 1.2 0 1.3c-1.7 0-1.7.2-.5 1s1.2 1-.5 1c-1.6 0-1.7.2-.5 1 .8.5 1.1 1.2.7 1.6s-.2 1.3.4 2.1c.9 1 .6 1.3-1.2 1.3-1.9 0-2.1.2-.9 1 1.3.8 1.2 1-.2 1-1 0-1.8.5-1.8 1 0 .7-.6.7-1.9.1-1.4-.8-3-.5-6.5 1.4-2.6 1.4-5.7 2.5-6.9 2.5-2.1.1-2.1.1.3 1.5l2.5 1.4-3.5-.1c-1.9-.1-4.8-.9-6.5-2-4.8-2.9-5.3-2.1-1 1.7 5.4 4.6 4.1 4.4-2.4-.4-5.6-4.2-11.1-5.8-29.1-8.4-5.2-.8-12.4-2.6-16-4s-9.6-2.9-13.4-3.3c-6.5-.6-6.9-.6-6.2 1.2 2.2 5.6 2.9 11.3 1.6 12.9-2 2.4-5.9 1.9-7.2-1l-1.2-2.6-1.2 3.1c-3 7-7.7 4-7.3-4.6.3-5.7-.6-7.8-2.8-7-.9.4-2.2.1-2.9-.5-1-.8-3-.8-7.7 0-13.8 2.4-20.7 1-19.4-3.9.5-2.1-1.4-4.3-3.5-3.9-.7.2-3.3 0-5.8-.4-6.5-.9-44-3-44.6-2.4-.3.2 2.7 1.2 6.6 2.2 4.5 1.1 7 2.2 7 3.1 0 .8 2 2.4 4.5 3.6 4.8 2.4 5 2.5 3.5 4.8-.8 1.3-2.1.9-8.7-2.7-8.9-4.7-22.5-10.3-25.2-10.3-1 0-2.4.7-3.1 1.5s-1.6 1.2-2.1.9-.9 0-.9.6c0 2-3.9-.9-4.6-3.5-.6-2.5-1.4-2.8-10.6-4-3.7-.5-5.2-1.3-6.8-3.5-1.1-1.5-2-3.6-2-4.5 0-2 3.2-1.9 33 1.5 9.1 1.1 23.5 2.4 32 3s16.7 1.3 18.1 1.6c3.6.7 8.5-5 13.9-15.9 3.9-8 4-8.7 2.7-11.4-.8-1.5-1.8-4.6-2.2-6.8-.9-5.1-3.2-9.5-4.9-9.5-2.4 0-6.6-4.1-6.6-6.4 0-2.4 2.6-5 6-6.1 3-.9 6 2 6 5.9 0 1.7 1 5 2.2 7.3 2.4 4.4 3.8 5.5 3.8 2.8 0-.9 1-2.9 2.2-4.5 1.8-2.5 2-3.5 1.2-5.8-.7-2.1-1.5-2.6-3.4-2.4s-3-.5-4.5-3c-1.1-1.8-1.8-3.9-1.7-4.6.2-.6-.4-1.2-1.2-1.2s-2.1-.6-2.8-1.3-3.9-3-7.1-5c-8.8-5.8-10.9-8.1-10.5-11.4.3-2.9.7-3 4.7-1.8l2.4.7-2.1-2.7c-2.6-3.3-2.7-4.3-.5-6.7 1.8-2 2.9-2.3 3.8-.8M310 235.4c0 .3-.4.8-1 1.1-.5.3-1 .1-1-.4 0-.6.5-1.1 1-1.1.6 0 1 .2 1 .4M5.5 255c.3.5.1 1-.4 1-.6 0-1.1-.5-1.1-1 0-.6.2-1 .4-1 .3 0 .8.4 1.1 1M72 271c0 .5-.5 1-1.1 1-.5 0-.7-.5-.4-1 .3-.6.8-1 1.1-1 .2 0 .4.4.4 1"/><path d="M264.7 154.7c-1.5 3.2-4.3 8.5-6.2 11.8s-3.5 6.3-3.5 6.7c0 3.4 13.7-5.1 17.4-10.6 1.7-2.7 1.7-3 0-6.1-1-1.8-2.5-4.3-3.4-5.5-1.6-2.2-1.7-2.1-4.3 3.7m39.9 8.1c-.9 1.4 8.7 5.2 13.1 5.1l3.8-.1-5.4-2.4c-6.6-3-10.6-3.9-11.5-2.6"/></svg>