<svg xmlns="http://www.w3.org/2000/svg" width="682.667" height="512" version="1.0" viewBox="0 0 512 384"><path d="M0 96.5V193h20.8c22.7 0 33.5 1.2 49.7 5.6 16.1 4.3 24.1 4 45.5-2 14.6-4 28-6.4 28-5 0 .2-2 .9-4.5 1.5-2.8.7-4.5 1.7-4.5 2.6 0 2.7 5.9.6 10.5-3.6 3.4-3.1 5.4-4 10.8-5.1 4.1-.7 7.2-1.9 8-3 .6-.9 3.1-1.9 5.3-2.2 2.3-.3 5.6-1.6 7.3-2.8l3-2.3 29.3.7c54.9 1.2 111.3 3.6 124.8 5.3 24.4 3 27.5 2.4 30.4-6.1 2-5.7 1.5-8.6-1-6.5-.8.6-1.4 1.8-1.4 2.5 0 .8-.4 1.4-.9 1.4s-.7-.9-.4-1.9c.3-1.3-.3-2.4-1.9-3.3-2.3-1.3-2.9-1.5-6-1.7-1.3-.1-1.8-1-1.8-3.1 0-4.6-2.5-9.8-7-14.3-2.9-2.9-3.9-4.6-3.5-6.1.3-1.2.2-1.6-.1-1-.6 1.4-9.1-2.4-11.6-5.2-.9-1.1-2.8-5.3-4.2-9.5l-2.6-7.6 3.5-10.3c2-5.6 4.3-11.4 5.2-12.9 8.1-13 21.7-21 41-24.1 11.8-1.9 23.3 2 35.5 12.1 8.8 7.5 13.5 17.6 17.8 39.1 1.2 5.7 3.5 15.9 5.1 22.8 2.6 10.6 2.9 13 1.9 15.5l-1.2 3-1.5-4.7c-1.5-4.4-3.3-5.6-3.3-2.3 0 .9-.6 1.2-1.5.9-1.3-.5-1.5.7-1.5 7.7 0 4.6-.5 9.1-1 9.9s-1 1-1 .4c0-.5-.6-1.8-1.3-2.8-1.2-1.6-1.3-1.3-.9 2 .3 2.4 1.3 4.5 2.7 5.6 1.2.9 2.5 3 2.8 4.5s3.4 5.9 6.7 9.8c3.4 3.8 6.9 8.3 7.7 10 .9 1.6 3.7 5.3 6.4 8.2 2.7 2.8 5.9 7.3 7.1 10 1.3 2.6 2.6 5 2.9 5.3s.6 2.7.6 5.5c0 4.2 1.3 7.7 8.1 21.9 4.5 9.3 8.2 17.2 8.2 17.7 0 .4 2 2.2 4.5 3.9s11.2 8.3 19.3 14.6 15 11.4 15.5 11.4c.4 0 .7-30.3.7-67.4 0-66.5 0-67.4-2-67.9-2.6-.7-2.6-2.3 0-3.7 2-1.1 2-2.1 2-83.5V0H0zM461 23c0 1-3.2 3-4.9 3-1.9 0-1.2-1.7 1.2-2.8 2.8-1.4 3.7-1.4 3.7-.2M334 41.4c0 .8-.4 1.8-1 2.1-.5.3-1-.3-1-1.4 0-1.2.5-2.1 1-2.1.6 0 1 .6 1 1.4m-28.8 23.8c-.7.7-1.2.8-1.2.2s.3-1.4.7-1.7c.3-.4.9-.5 1.2-.2.2.3-.1 1.1-.7 1.7m114.3-.3c-.6.5-2.6 1.2-4.5 1.6-3.1.7-3.3.6-2.1-.9.7-.9 2.7-1.6 4.4-1.6 1.9 0 2.7.4 2.2.9m-2 18.1c1.1 1.2 1.3 2 .5 2.5-1.4.9-6-2.1-6-3.9s3.4-1 5.5 1.4m77.5 44.1c0 .6-.4.7-1 .4-.5-.3-1-1.1-1-1.6 0-.6.5-.7 1-.4.6.3 1 1.1 1 1.6m-47.5 45.1c2.5 1.2 4.5 2.5 4.5 3 0 1.4-6.4 4.1-10 4.2-3.9.1-11.4-3.9-10.4-5.6.9-1.4 6.5-3.7 9.1-3.8 1.2 0 4.3 1 6.8 2.2m60.5 57.2c0 2-3.9 4.6-5.8 3.9-1.2-.5-1-1.1 1.2-3 3.1-2.6 4.6-2.9 4.6-.9"/><path d="M343.2 141.3c-1.3 1.5-.7 4.7.8 4.7s2-1.8 1.2-4c-.7-1.9-1-2-2-.7m25.8 26.3c0 1.4.3 1.4 1.5.4.8-.7 1.5-1.4 1.5-1.6s-.7-.4-1.5-.4-1.5.7-1.5 1.6m-193 40.5c0 .7-.9.9-2.1.6s-1.8-.2-1.3.2c.5.5 4.4 1.6 8.6 2.5 6.6 1.5 8.2 2.2 10.9 5.3 4.6 5.3 5.9 9.3 5.9 17.7s-.8 10.9-6.1 18.1c-6.6 9.1-17.5 12.1-26.9 7.2-2.4-1.2-4.8-3-5.4-4-1.6-2.6.5-5.2 4-5 8.7.6 15.6.3 18-.9 1.5-.7 4.1-3 5.7-5 5.6-7 4.3-19.4-2.3-22.5-1.4-.6-6.2-1.4-10.6-1.8l-8.2-.7-1.8 3.1c-2.3 3.8-3.4 3.9-8.7.2-4.1-2.8-12.2-5.1-17.5-5.1l-2.7.1 3.3 1.7c4.1 2.2 3.2 3.2-2.7 3.2-7.2 0-7.8 1.4-1.5 3.5 7.6 2.6 8 3.9 1 3.3-6.6-.5-8 .4-3.4 2.3 3.2 1.3 3.2 1.3.8 1.9-3.2.8-6.2.1-5.3-1.3.3-.6.1-.7-.5-.3-.7.4-6.4-1.1-12.7-3.3-22.5-7.9-27.2-8.3-48-3.8-8.3 1.8-13.4 2.1-30.5 2.2-11.3 0-24-.4-28.2-.8l-7.8-.9V384h345.8l3.3-9.3c6.2-17.6 18-39.4 25.9-48.2 1.8-1.9 1.8-2.1-.1-4.4-2.6-3.2-2.4-6.7.6-9.5 3.2-2.9 3.3-5.6.3-5.6-3.6 0-9.4-1.9-11.8-3.8l-2.1-1.7 3.3-7c2.9-6.2 3.3-7.9 3.3-15.5 0-9.8-2.2-17.4-9-31.6-2.4-5.1-5.1-12.2-5.9-15.8-2.8-12-4.4-13.7-14.7-15.6-8.7-1.7-46.4-5.9-66.9-7.6-23.1-1.9-62.4-1.5-79.2.7-8.7 1.2-10.1 1.1-13.3-.4-2.2-1-3.5-1.3-3.5-.6M64.3 239.8c3.6 3.9 4.5 8.1 3.2 13.9-.7 3-1.5 5.6-1.8 5.9-1.1 1.1-2.9-.9-4.8-5.1-1.5-3.5-1.7-5.2-1-9 .5-2.7.7-5.4.4-6.2-.8-1.9 2.1-1.6 4 .5m133.1 41.9c-2.3 1.7-3.4 1.7-3.4 0 0-1.8 4.3-3.9 4.9-2.4.2.6-.4 1.6-1.5 2.4m-.8 23.7c1 .8 1.5 1.8 1.1 2.2s-1.7-.2-2.9-1.4c-2.5-2.5-1.3-3 1.8-.8m29.9 14c2.6 1.1 3.6 2.4 4.6 5.5 1.5 4.9.8 5.9-2.7 4-3.1-1.6-5-4.2-5.9-8.2-.8-3.1-.6-3.2 4-1.3m224.1-21.2c-2.6 1-2.8 1.3-2.2 5.1.4 2.3 1.6 5.6 2.8 7.5 1.1 1.9 2.3 5.3 2.6 7.5.3 2.8 1.9 6.2 4.7 10.2 6.5 9.2 13.1 22 20.1 39.3l6.4 15.7 13.5.3 13.5.3v-41.7l-3.8-1.7c-2.1-.9-4.3-1.7-4.7-1.7-.5 0-6.8-5.7-14-12.8-7.1-7-15.5-15-18.5-17.7-13.5-12.3-14.1-12.6-20.4-10.3"/></svg>