<svg xmlns="http://www.w3.org/2000/svg" width="682.667" height="512" version="1.0" viewBox="0 0 512 384"><path d="M0 95.6v95.5l2.3-2.6C3.5 187 7 185 10 184c7.9-2.7 8.9-1.6 4 4.5-1.7 2.1-3 4.2-3 4.6 0 .5 11.3.9 25.1.9 27 0 33.3.6 50.7 5.1 17.9 4.6 26.9 4 51.2-3.5 10.7-3.3 13.3-3.9 12.5-2.7-.4.7.6.9 2.7.6 2.6-.4 2.9-.3 1.3.4-1.1.5-3.2 1-4.7 1-4.1.1-4.2 1.8-.2 2.6 3.7.7 4 .5 10.8-4.8 2.1-1.8 6.1-3.5 10.1-4.4 4.3-1 6.9-2.1 7.5-3.4.8-1.4 2.2-1.9 5.5-1.9 2.5 0 4.5-.3 4.5-.8 0-.4 1.6-1.6 3.5-2.6 3.3-1.8 4.9-1.8 34.7-.7 17.2.6 43.9 1.6 59.3 2.1 27.2.9 55.9 2.6 62 3.5 1.7.3 6.4.8 10.5 1.1 10.6.9 13.9-.6 16.3-7.6 2.2-6.1.9-9.2-1.7-4.4-1.4 2.7-1.5 2.7-1.6.7 0-2.6-3.5-4.8-6.7-4.4-1.9.2-2.3-.2-2.3-2.5 0-3.5-4.5-13-6.5-13.8-.9-.3-2.5-2.5-3.5-4.8-1.1-2.4-2-4-2-3.6s-2.4-.5-5.2-2c-5.8-3-9.1-7.7-10.2-14.2-.3-2.1-1.1-4-1.8-4.2-1.3-.5 3.5-15.3 7.5-23.3 5.3-10.8 17.1-19.2 33.1-23.6 15.5-4.2 28.6-1.4 40.5 8.5 2.4 2 4.9 4 5.5 4.4 2.3 1.3 7.2 9.7 9.4 15.8 1.2 3.4 3.7 12.9 5.6 21 1.9 8.2 4.4 18.7 5.7 23.4 1.6 6.5 2 9.6 1.4 12.5-.7 3.1-1 3.5-1.3 1.7-.2-1.2-.8-2.2-1.4-2.2-.5 0-.8-.7-.5-1.5.4-.8.2-1.7-.3-2-1-.6-1.4.7-1.1 3.2.1.7-.7 1.7-1.7 2.2-1.4.7-1.8 1.8-1.5 3.6.3 1.3.9 2.2 1.4 1.9s.9.4.9 1.5-.4 2.3-1 2.6c-.5.3-1 2-1 3.6 0 3.4-1.6 3.1-3-.7-1.2-3.1-2.9-3.1-2.3 0 .4 1.8 0 2.5-1.4 2.8-1.5.4-1.3.7 1.1 1.8 1.7.9 3.5 3 4.6 5.5.9 2.2 4.2 6.9 7.2 10.5s7.1 9.2 9.1 12.6c2 3.3 4.6 6.9 5.8 8 3 2.7 6.7 10.4 7.5 15.6.4 2.3 5.2 13.4 10.6 24.5 8.4 17.2 10.3 20.5 13.3 22.3 2 1.2 4.1 2.7 4.8 3.4 2.6 2.4 19.5 15.6 20.1 15.6.3 0 .6-67.5.6-150V0H0zm490-71.1c0 1.6-3.8 4-4.8 3-.4-.3.4-1.5 1.8-2.5 3-2.4 3-2.4 3-.5M366.6 43.1c.3.6.1 1.6-.5 2.2-.9.9-1.4.8-2.1-.3-.9-1.5-.4-3 1-3 .5 0 1.2.5 1.6 1.1M447.5 69c-.3.5-2 1-3.6 1-1.8 0-2.8-.4-2.4-1 .3-.6 2-1 3.6-1 1.8 0 2.8.4 2.4 1m-.4 15.6c2.1 2.3 2.1 2.4.3 2.4-2.5 0-6.4-2.7-6.4-4.5 0-1.9 3.4-.8 6.1 2.1M488 136c0 .5-.9 1-2 1s-2-.5-2-1c0-.6.9-1 2-1s2 .4 2 1m-25.3 25.5c2.3 1.4 4.3 3 4.3 3.5 0 1.5-8.7 4.2-11.2 3.5-2.5-.8-6.8-4.4-6.8-5.7 0-1 5.7-3.7 7.9-3.8.8 0 3.4 1.1 5.8 2.5M485 232c-2 1.3-4.3 1.3-3.5 0 .3-.6 1.6-1 2.8-1 1.8 0 1.9.2.7 1"/><path d="M353.3 144.1c-.7.9-.9 2-.3 2.9 1.2 1.9 2.2.7 1.8-2.1-.2-1.9-.5-2-1.5-.8m25.2 24.9c-.3.5.1 1 .9 1s1.8-.5 2.1-1c.3-.6-.1-1-.9-1s-1.8.4-2.1 1M189 209c0 .5-.7.6-1.7.3-1.1-.4-1.4-.3-.9.5.4.7 1.3 1.2 2.1 1.2 4.8 0 12.1 2.5 15.2 5.3 10.8 9.5 9.7 29-2.2 39.5-6.1 5.4-11 6.8-17.8 5.3-7.2-1.6-11.2-4.9-10.3-8.4l.6-2.7 8.3.6c10.3.8 14.4-.7 18.4-6.7 2.3-3.5 2.8-5.3 2.8-10.1-.1-4.9-.5-6.2-2.6-8.4-2.9-2.9-8.1-4.3-15.6-4.4-4.7 0-5.5.3-7.5 3-1.2 1.6-2.6 3-3 3-.5 0-2.6-1.4-4.7-3.1-2.3-1.8-6.2-3.6-9.6-4.4-6.5-1.5-10.1-1-6.4.9 3.3 1.7 2.3 3.1-2.4 3.2-8 .1-8.4.4-3.2 2.5 7.4 3 8 4.2 1.8 3.7-6.4-.6-7.4.1-3.2 2.2 2.5 1.3 2.8 1.8 1.5 2.3-.9.4-1.6.1-1.6-.4 0-.6-.9-.9-2-.6-1.2.3-6.9-1.2-12.8-3.4-5.9-2.1-14.4-4.8-18.9-5.9-9.1-2.3-11.3-2.2-34.5 2-6.4 1.1-15.5 2-21.3 2-15.1 0-47.1-2.7-55.2-4.7l-2.3-.5V384h354.7l4.8-12.8c6.2-16.6 11.3-26.8 18.7-37.1 7.1-10 7.3-10.4 5.3-12.1-2.5-2.1-1.9-7.7 1-9.6 4.1-2.7 3.2-5-2-5.7-2.5-.4-5.9-1.4-7.6-2.3-3.6-1.8-3.5-2.4.6-12.4 4.7-11.2 2.9-22.9-7-45-2.4-5.2-4.8-12.1-5.5-15.2-1.5-7.3-4.6-12-9.1-13.5-5-1.6-48.6-7-71.6-8.8-21.2-1.7-52.1-1.9-65.3-.5-21.6 2.4-21.8 2.4-24.4.6-2.9-1.9-3.6-2-3.6-.6m-85.1 22.6c2.4 3 2.8 9.2 1 14.3-1.5 4.2-3.9 3.7-5.7-1.1-1.2-3.2-1.3-4.7-.1-9.8.7-3.3 1.6-6 2-6s1.7 1.2 2.8 2.6M229 269.5c0 1.5-3.8 4-4.7 3.1-.7-.7 2.6-4.6 3.9-4.6.4 0 .8.7.8 1.5m.4 31.1c.9.8 1.6 2 1.6 2.5 0 1.7-1.8.9-3.4-1.6-1.8-2.8-.6-3.4 1.8-.9m26.3 14.9c1.9 1.3 4.3 6.8 4.3 9.7 0 3-6.5-1.7-8-5.7-2.1-5.4-.6-7 3.7-4m203-16.2c-2.6 1-2.8 1.4-2.1 5 .3 2.2 1.4 5.4 2.4 7.1s2.1 4.9 2.5 7.1 2.7 6.8 5.3 10.5c6.1 8.7 13.6 23.5 20.7 40.7l5.9 14.3H512v-42.8l-12.2-12.4c-6.8-6.9-16.8-16.6-22.3-21.6-10.6-9.8-12.3-10.5-18.8-7.9"/></svg>