<svg xmlns="http://www.w3.org/2000/svg" width="682.667" height="512" version="1.0" viewBox="0 0 512 384"><path d="M0 101c0 99.5 0 101 2 101 1 0 14-1.3 28.7-2.9 44-4.8 52.6-5.4 80.8-5.5 30.3 0 38.6.8 60 6.1 21.8 5.4 31.2 4.9 59.2-3.2 15.5-4.5 17.6-4.9 22.7-4.7 3.6.2 3.1.9-1.1 1.6-1.7.3-4.2 1-5.5 1.5-2.1.9-2.1 1-.3 1.2 1.1.1 2.4.1 2.8 0s1.7.3 2.7.9c2.5 1.3 6.2-.5 10.9-5.4 2.9-3 4.7-3.8 12.6-5.6 7.3-1.7 9.4-2.5 9.8-4.1.4-1.5 1.4-1.9 5.3-1.9 3.5 0 5.4-.6 7-2.1 3.3-3.1 8.1-3.8 20.1-2.8 5.9.4 18.9.8 28.8.9 9.9 0 21.8.4 26.5 1 4.7.5 23.8 1.6 42.5 2.5 39.7 1.8 58.6 3 74.5 5 6.3.8 13.9 1.6 16.8 1.8l5.2.4v-17l-2.1 1.9-2 1.8.6-4.9c.5-3.9.1-7.3-2-15-1.5-5.5-2.9-10.2-3.1-10.4s-1 .2-1.8.8c-1.3 1.1-2.4.5-6.6-3.1-2.7-2.3-5-4.6-5-5s-2.2-1.9-5-3.4c-5.7-3.1-7.9-7-9.9-17.7-1.6-8.4-1-11.8 3.5-19.3 2-3.2 5-8.5 6.6-11.6s4.8-7.4 7.1-9.7c7-6.7 13-11.7 16.5-13.7l3.2-1.8V0H0zm234.3 48.1c-1 1.6-2 2.9-2.4 2.9s-1.4.3-2.3.6c-2.8 1.1-1.8-2.3 1.5-5 3.8-3.2 5.5-2.5 3.2 1.5m27.3 28.4c-1.6 2.5-4.6 3.4-4.6 1.5 0-.6 1.2-2.2 2.7-3.6 3.2-2.9 4.3-1.6 1.9 2.1"/><path d="M497.1 136.9c-1.1.7-1.1 1.3.3 3.2l1.6 2.3v-3.2c0-3.6 0-3.5-1.9-2.3m-250.5 66c-1.2.5-1.6 1-.9 1.4 1.3.8 4.3-.2 4.3-1.4 0-1-.8-1-3.4 0M298 213c.8.5 2.2 1 3 1 1.3 0 1.3-.1 0-1-.8-.5-2.2-1-3-1-1.3 0-1.3.1 0 1"/><path d="M319.8 213.1c-3.7.4-8.1 1-9.7 1.4l-3 .6 5.2 2.8c22.7 11.9 15.5 50.6-10.7 57.2-8.4 2.1-20.6-3.3-20.6-9.1 0-4.4 2.8-5.5 10.7-4 8.6 1.7 14.4.9 18.9-2.5 9.3-7.1 11-20.4 3.6-28.5-3-3.3-10.5-5-22.2-5-6.3 0-6.6.1-8.8 3.6-1.4 2.2-2.7 3.2-3.5 2.7-.7-.4-3.1-2-5.3-3.5-4.4-2.9-20.3-6.9-27.3-6.7-4 0-4.4-.3 5.1 3.7 4.5 1.8 4.1 3.2-1 3.3-2 .1-4.8.4-6.2.8-2.3.7-2 1 3.5 3.6l6 2.8-3.1.7c-5.5 1.2-6 2.1-2.3 4.1l3.4 1.8-4.2.1c-2.4 0-7.3-1.2-11-2.6-22.1-8.5-37.3-12.4-47.9-12.4-3 0-9.4.9-14.2 1.9-24.5 5.4-56.9 5.6-97.7.5-10.4-1.3-68.9-10.6-75.2-12L0 218v166h512V230l-3.1-1.9c-3.7-2.3-7.8-3-40.6-7.6-45.2-6.2-76.4-8.6-111.2-8.4-16.8.1-33.6.6-37.3 1m39.2 72c0 1-.4 1.9-.9 1.9-1.2 0-2.3-2.9-1.5-4.1.8-1.4 2.4 0 2.4 2.2M80 306c0 .5-.5 1-1.1 1-.5 0-.7-.5-.4-1 .3-.6.8-1 1.1-1 .2 0 .4.4.4 1"/></svg>