<svg xmlns="http://www.w3.org/2000/svg" width="682.667" height="512" version="1.0" viewBox="0 0 512 384"><path d="M0 101.6v101.7l8.3-.7c4.5-.4 20.8-2.3 36.2-4.2 75.1-9.4 98.1-11.4 138-12.1 44.8-.8 66 1.3 102.5 10.2 13.1 3.2 30.4 4.3 43.3 2.6s22.8-4.1 49.2-12c28.7-8.6 32-9.4 30.4-7.5-.9 1.1-.8 1.4.2 1.4.8.1-.2 1-2.1 2l-3.5 1.9 10.5-.4 10.4-.5 4.3-4.5c5-5.2 8.3-7.1 13.8-8 2.2-.3 8.2-1.6 13.3-2.7 8-1.8 9.3-2.4 9.8-4.4 1-3.7 2.9-4.6 10.6-4.6 6.5 0 7.7-.3 11.6-3.1 4.4-3.1 4.7-3.2 14.8-3l10.4.2V0H0zM413 181c0 .5-.5 1-1.1 1-.5 0-.7-.5-.4-1 .3-.6.8-1 1.1-1 .2 0 .4.4.4 1m4.7 7c-1.9 1.2-2.5 2-1.7 2.5.7.4 2.3-.4 3.8-1.9 3-3 2-3.3-2.1-.6m-11.2 8-5 1.8 4.6.1c3.4.1 5.1-.4 6.4-1.9 2.3-2.5.9-2.5-6 0m7 13c-3.4 3.5-3.7 4-1.8 4 1.3 0 3.1-1.3 4.3-3 3.4-4.8 1.9-5.5-2.5-1M0 306v78h512v-70.8l-4.7 1.5c-9 2.7-23.1-.2-32.8-6.9-6.4-4.3-7-10.9-1.4-15 2.5-1.9 2.7-1.9 16.2.3 8.8 1.4 15.2 1.9 18.1 1.5l4.6-.7v-57.7l-2.7-.6c-1.6-.4-11.3-.9-21.8-1.3l-19-.5-2.7 4.6c-1.6 2.6-3.4 4.9-4.1 5.2-.7.2-4.9-1.7-9.2-4.3-11-6.6-23.5-9.1-48.5-9.8l-16.5-.5 9 2.4c11.3 2.9 16.5 5.1 16.5 6.9 0 2.2-3.2 2.7-18 2.7-9.1 0-13 .3-12 1 .8.5 7 2.8 13.7 5.1 6.8 2.2 13.3 4.9 14.5 5.8 2.2 1.8 2.1 1.8-2.8 1.4-2.7-.2-7.7-.8-11-1.3-3.4-.6-7.1-.7-8.2-.3-1.6.6-.1 1.5 7 4.3 8 3.1 8.7 3.6 6.2 4-1.6.3-3 .2-3.2-.2s-1-.4-1.9-.1c-1 .4-1.4.2-1-.4s-.3-1.1-1.6-1.1-11.3-2.9-22.3-6.6c-44.3-14.6-60.6-16.2-92.9-9-22.3 4.9-29.6 5.7-61.5 6.1-49.6.8-82.2-2-155-13.2-34.6-5.3-57.1-8.5-60.5-8.5H0z"/></svg>