<svg xmlns="http://www.w3.org/2000/svg" width="682.667" height="512" version="1.0" viewBox="0 0 512 384"><path d="M0 106.3v106.3l3.3-.3c8.5-.8 49.5-5.4 51.7-5.8 1.4-.3 7.7-1.1 14-2 6.3-.8 18.3-2.4 26.5-3.5 62.2-8.5 120.8-12.7 162.5-11.7 37.1.9 49.3 2.5 93.5 12.2 9.6 2.1 14.6 2.6 25.3 2.6 23-.1 36.6-3 91.8-20 19.7-6 27.1-7.9 28.5-7.1.7.5-.2 1.3-2.4 2.1-2 .7-3.3 1.7-3 2.1.3.5-.3 1.6-1.3 2.3-1.7 1.3-1.6 1.4 1.7 1.5 3.1 0 11.4-1.2 17.7-2.5l2.2-.5V0H0zm498 84.4c-2.5.9-3.9 1.8-3.2 2q3.3 1.2-3 4.2l-4.3 1.9 4.5.1c4.2.1 4.8-.2 8.8-4.9 4.6-5.3 4.3-5.7-2.8-3.3m3.9 19.5c-.8 1.1-2.2 3.1-3.2 4.4-1.8 2.4-1.8 2.4.5 2.4 3 0 7.8-7.4 5.5-8.3-.8-.3-2 .4-2.8 1.5M0 310.5V384h512V239.2l-7-1.2c-4.2-.7-9.6-.9-13.2-.5-6.5.8-6.3 1.7.7 2.9 6.6 1.1 13.2 3.6 15 5.6 1.5 1.7 1.5 1.9-.2 2.4-1 .3-5.2 1-9.3 1.6-4.1.7-10.4 1.6-14 2.2s-7.4 1-8.4 1c-3.9-.2.2 1.6 10.7 4.7 5.9 1.7 12.9 4.1 15.4 5.3 3.9 1.8 4.3 2.3 2.6 2.9-3.6 1.3-12.5 1.8-18.1.9-3-.5-6-.6-6.6-.2-.6.3-2 .5-3.1.4-3.8-.5.8 1.6 11.6 5.3 14.5 4.9 16.3 7.1 3.2 4-3.4-.8-7.7-1.7-9.5-2s-9.3-2.6-16.8-5c-51.7-16.7-68.2-20.2-90-19.1-13.5.6-17 1.1-39.6 6-34.9 7.4-71.7 9.3-122.9 6.1-42.2-2.7-63-5-125-14C49.4 243 4.6 237 1 237c-.7 0-1 25-1 73.5"/></svg>