<svg xmlns="http://www.w3.org/2000/svg" width="682.667" height="512" version="1.0" viewBox="0 0 512 384"><path d="M0 108.6v108.5l4.3-.5c2.3-.3 12.8-1.5 23.2-2.6 10.5-1.2 39-4.7 63.5-8 90.5-12.1 107.5-13.4 168-13.5 58.1 0 56.7-.1 112 11.4 30 6.3 48.6 3.7 112.3-15.6l28.7-8.7V0H0zm509.8 91.1c-2.4.6-2.3 2.3.2 2.3 1.1 0 2-.7 2-1.5s-.1-1.4-.2-1.4c-.2.1-1.1.3-2 .6M0 312v72h512v-52c0-28.6-.3-51.9-.7-51.8-1.4.3-7.6-1.3-21.8-5.7-56.8-17.8-66.7-19.9-90-19.8-15.7 0-18.3.3-34 3.7-41.8 9.1-52.1 10-105.8 9.3-57.7-.7-79.5-2.7-167.1-15.2-24.8-3.6-54.8-7.6-66.6-9s-22.5-2.7-23.7-3L0 240zm506-54.8c-4.8 1.1-4.3 1.7 2.8 3.2 3 .7 3.2.6 3.2-1.8 0-1.4-.3-2.6-.7-2.5-.5.1-2.8.6-5.3 1.1m-3 15.6c0 .5 6.8 3.2 8 3.2.5 0 1-.9 1-2 0-1.8-.6-2-4.5-1.8-2.5.2-4.5.4-4.5.6"/></svg>