<svg xmlns="http://www.w3.org/2000/svg" width="682.667" height="512" version="1.0" viewBox="0 0 512 384"><path d="M0 116.1v116.1l4.3-.6c2.3-.3 16.8-2 32.2-3.6 31.8-3.4 43.4-4.9 94-11.9 78.8-11 115.2-14.3 171.5-15.7 45.2-1.1 73.1 1.4 118.1 10.6 21.7 4.4 25.8 5 37 5 13.3 0 28.9-2.2 45.4-6.3l9-2.3.3-103.7L512 0H410.3l.1 3.7.1 3.8h-5.7c-5.6 0-5.7 0-6 3-.2 2.4-.8 3.1-2.8 3.3-2.9.3-10.6-4.4-16.2-10.1L376 0H0zM0 318v66h512V275.2l-10.7-2.6c-31.9-7.5-46-7.5-80.2 0-34.2 7.6-50.1 9.3-89.6 10.1-59.9 1.1-114.3-3.1-200-15.2-32.7-4.7-54.3-7.5-76.5-10-21.5-2.4-51.3-5.5-53.2-5.5-1.7 0-1.8 3.8-1.8 66"/></svg>