<svg xmlns="http://www.w3.org/2000/svg" width="682.667" height="512" version="1.0" viewBox="0 0 512 384"><path d="M0 129v129h2.3c1.2 0 4-.5 6.2-1s16.6-2.3 32-4c44.1-4.8 59.6-6.7 97.5-12.1 66-9.3 96.6-12.9 130.5-15.3 82.3-6 120.6-4.6 175.5 6.4 33.8 6.7 48 7.9 62.8 4.9l5.2-1v-71.6c0-83.1 1.1-77.8-11.1-54.2-9.8 19.2-14 25.4-17.9 26.7-2.8 1-3.4.9-5.6-1.3-1.3-1.3-2.4-3.3-2.4-4.4 0-2-.3-1.9-4.7.8-7.3 4.5-20 9.3-23.6 8.9-4-.4-4.7-3-1.8-6.9 1.2-1.6 1.7-3 1.1-3.4-2-1.3-.9-4.8 3.1-9.4 2.3-2.7 4.2-5.2 4.1-5.7 0-.5.4-1.4 1-2.1.5-.7.7-2 .4-3-.8-2.6.1-3.5 7.1-7.3 4.4-2.4 5.9-3.7 5.2-4.6-.7-.8.6-1.3 4.7-1.7 9.6-1 13.2-6.1 21.2-29.2 4.8-14.1 6-22.5 4.7-34-.6-6.2-1.1-7.2-5.9-12.9-2.9-3.4-6.5-8.1-8.1-10.4-1.5-2.3-3.5-4.2-4.4-4.1-4 .2-8.2 2.7-11.1 6.7-5.2 7.2-11.9 9.9-17.3 7-5.6-2.9-5.9-6.4-1.3-13.8l3.5-5.5-43.6-.3c-24-.1-43.8-.1-43.9.1-.2.2-2.4 7.4-4.8 16-5.4 18.4-8.7 26.3-16.3 37.5-5.8 8.6-8.2 10.9-10 9.1-.8-.8-1.3-.7-1.7 0-1.1 1.7-7.4 1.3-16.1-.9-4.3-1.1-8.5-2-9.4-2-1.2.1-3 4.2-6.5 15.1-6 18.1-8 22.5-14.2 31.5-8.7 12.7-11.8 14.8-17.4 11.9-5.9-3-6.4-9.3-1.8-19.5 1.4-3 2.9-7 3.3-8.8l.7-3.3-7.6 5.2c-7.5 5.1-7.6 5.2-9.7 12.2-3.6 12.2-3.6 12.9.7 20.1 2.1 3.7 4.6 6.9 5.6 7.2s1.8 1 1.8 1.5c0 1.4-5.4-2.6-8-5.8-1.1-1.4-2-2.3-2-1.9 0 1.8 3.4 7.3 5.8 9.4 2.1 1.8 2.3 2.1.7 1.6-1.1-.4-2.6-1.2-3.3-1.7s-1.5-.7-1.8-.4c-.5.5.8 1.5 10.4 8.4 1.7 1.3 3.2 3.3 3.2 4.4 0 3.9-2.3 3.6-17.8-1.9-1.5-.5-1.2 2.1 1.1 8.6 1.4 4.1 1.4 4.3-.2 2.8-2.7-2.4-3.3-1.9-1.6 1.4 1.9 3.6 1.9 4.4 0 3.6-.8-.3-1.5-.4-1.5-.3s.7 2.4 1.5 5.1c2 6.5 1.2 9-2.3 8.1-1.5-.3-4.2-2.1-6.1-3.8-3.2-3.1-3.3-3.1-2.6-.7.4 1.4 1 3.2 1.2 4 .3.8-.5.4-1.8-1l-2.2-2.5.7 2.5c.4 1.4 1 5.1 1.3 8.2.5 4.8.3 5.9-1.1 6.4-2 .8-5.7-2.4-8.7-7.3-1.2-1.8-2.9-3.3-3.9-3.3-3 0-5.7-4.5-7.5-12.8-1.4-6.3-1.7-10.8-1.2-24.7l.5-17 6.1-17.7c8.8-25.9 8.4-25.1 38-65.1l7.3-9.8-4.4-4.7c-11.4-12.3-15.4-19.4-13-23.2 1.2-2 .1-2-123.8-2H0zm0 199.4V384h512v-91.8l-2.7-.6c-1.6-.4-9.1-.9-16.8-1.2-15.2-.6-14.8-.7-54.5 7.5-35.2 7.2-40.8 7.6-99.5 7.6-41.3 0-56.5-.4-74-1.8-33.1-2.7-69.3-6.9-111-12.7-35.5-5-58.2-7.8-78.5-10-10.7-1.2-29.6-3.2-42-4.6s-24.9-2.8-27.7-3.1l-5.3-.6z"/></svg>