<svg xmlns="http://www.w3.org/2000/svg" width="682.667" height="512" version="1.0" viewBox="0 0 512 384"><path d="M0 132.5C0 205.4.3 265 .8 265c.4 0 9.7-1.1 20.7-2.4 11-1.4 25.2-2.9 31.5-3.6 22.6-2.2 31.7-3.2 46.5-5.1 8.3-1.1 18.6-2.4 23-3 4.4-.5 10.7-1.4 14-1.9s9.4-1.2 13.5-1.5c4.1-.4 10-1.1 13-1.6s13.5-1.8 23.3-2.8 18-2.1 18.3-2.4-1.9-3-4.8-6.2c-2.9-3.1-6.1-7.1-7-8.8-1.2-2-1.8-2.5-1.8-1.4 0 .9-.4 1.7-1 1.7-.5 0-1 2.1-1 4.6 0 6.1-1.4 8.4-5 8.4s-5.4-2.4-8-10.9c-1.7-5.3-2-9.2-2-25.3v-18.9l4-13.7c2.2-7.5 4.8-15.7 5.7-18.2 4.2-12 14.7-29.2 34.5-56.7l11-15.2-7.4-8.1c-7.7-8.6-11.8-14.4-11.8-17.1 0-.9 1.4-3.4 3.1-5.5 1.8-2.2 4.6-6.2 6.4-8.9 2.9-4.5 11.3-13.5 17.7-19 2.6-2.3 12.3-10.2 15.2-12.5S261 1.1 261 .5c0-.3-58.7-.5-130.5-.5H0zM359.9 12.7c-18.2 24.5-26.5 38.6-36.5 62.3-2.6 6.3-6.8 15.3-9.3 20-4.7 9-15 24.7-17.9 27.3-2.7 2.4-10.9.5-22.6-5.2l-10.1-4.9-1.1 3.2c-.6 1.7-2 5.1-3.1 7.6s-2.9 7-4 10c-7.1 18.9-9.3 23.5-16.2 34-4.2 6.3-7.6 11.9-7.6 12.5 0 .5 1.4 1.3 3 1.7 2.3.6 2 .6-1.3.3-4.2-.3-4.3-.3-2.6 1.6 1.6 1.8 1.6 1.9-.1 1.9-3.9 0 .7 2.8 5.8 3.5 2.9.4 6.4 1.4 8 2.3 5.9 3.5 1.9 6.4-9.4 6.6-7.2.1-8-.1-12.3-3.1-2.6-1.8-4.8-3.3-5-3.3-.5 0 2.2 9.3 3.5 12.5.4 1.1 1.8 3.5 3 5.4l2.3 3.4-2.3-1.2c-3-1.7-3.6-.9-1.1 1.4 2.8 2.5 2.5 4.1-.4 2.2-2.2-1.5-2.1-1.1 1 3.4 5.5 8.2 4.1 13.3-2.6 9.9-1.1-.6-2.9-1.5-4-2-2.5-1.3-3.3-1.3-2.5 0 .3.6-.1.7-.9.4-.9-.3-1.6-1-1.6-1.5s-.5-.9-1.1-.9c-.7 0-.5 1 .5 2.5 1.8 2.7 2.1 4.9.6 4-.5-.3-1-.3-1 0 0 1 3.9 8.3 4.7 8.8.5.3 8.7-.1 18.3-.9 26.2-2 31-2.3 49.5-3.4 19-1.1 92.8-.4 99 1 2.2.4 8.1 1.1 13 1.5 15 1 27.2 3 51 8.1 12.2 2.6 25.9 5.1 32 5.9 8.2 1 28.3 1.8 30.8 1.1l2.7-.6-.1-77.8V96.5l-2.4 10c-3 12.8-6.6 21.6-11.8 28.5-2.2 3-11.6 13.1-20.8 22.3-9.3 9.2-18.3 18.9-20.1 21.5-10.7 15.2-18.4 20.5-22.2 15.1l-1.5-2.1-6.8 2.7c-7.6 2.9-14.6 3.2-15.1.4-.1-.8 1.2-3.5 3-6 1.8-2.4 3.1-5.2 3-6.1-.2-1 1.6-3.9 4-6.4s4.3-5.1 4.3-5.7c0-.7 1.5-2 3.3-3 3.6-1.9 3.6-2.1 2.2-4.7-1.1-2.1-.2-3 5-5 1.9-.8 3.9-2 4.3-2.7s1.6-1.3 2.5-1.3c1.5-.1 1.5-.2-.2-1.5-1.9-1.4-1.8-1.5 1.1-1.5 6 0 8.2-1.6 11.4-8.3 3.3-7.2 10.6-38.2 11.5-49.2.7-8.3-.1-10-8.9-19.6-5.5-6-6.1-6.4-10-6.3-7.4.3-12.7 3.4-17 10.1-4.7 7.3-8.4 9.7-13.8 9-5.2-.7-6.9-2.2-6.9-6.4 0-3.9 1.4-6.9 7.9-16.8 6.1-9.2 7-10.4 18.1-21.6 16.5-16.8 21-21.8 20.2-22.3-.5-.3-3.1-1.2-5.8-2.2-2.7-.9-5.2-1.9-5.6-2.2-.4-.4.6-3.8 2.3-7.7 1.6-3.8 2.9-7.1 2.9-7.2 0-.2-18.1-.3-40.3-.3h-40.4zM0 335v49h512v-75.5l-3.8-1.2c-11.2-3.5-37.8-2.4-63.2 2.7-14.9 3-34.7 5.1-55.3 6-23 .9-74.1-.3-100.2-2.4-10.4-.8-25.7-2-34-2.6-8.2-.6-16.3-1.3-18-1.5-1.6-.2-9.5-.9-17.5-1.5s-18.1-1.5-22.5-2-12.8-1.4-18.7-1.9c-5.8-.5-13.2-1.4-16.5-2-3.2-.5-9.2-1.3-13.3-1.6-4.1-.4-13.3-1.5-20.5-2.5-7.1-1-17.3-2.1-22.5-2.5-5.2-.3-12.9-1-17-1.5-11.7-1.4-28.6-3-38.5-3.5-8.1-.4-22-1.6-34.5-3-2.5-.3-7.1-.7-10.2-1l-5.8-.4z"/></svg>