<svg xmlns="http://www.w3.org/2000/svg" width="682.667" height="512" version="1.0" viewBox="0 0 512 384"><path d="M0 132.5C0 235.5.3 265 1.2 265c.7 0 6.9-.6 13.8-1.4s19.9-2.2 29-3.1c27.6-2.6 55.9-5.8 81-9 5.8-.7 14.3-1.7 19-2 4.7-.4 8.8-.9 9.3-1.2.4-.2.7-5.8.7-12.4 0-10.1.5-14 3-23.9 4.5-18 7.8-27.6 12.5-37 8.2-16.5 13.7-25.2 34.3-54.9l5.2-7.5-8.8-9c-12.7-13-12.5-12.3-5.8-21 3.1-4 5.6-8 5.6-8.8 0-2 12.6-14 30-28.5 8-6.7 17-14.8 20.1-18C257.2 19.9 273 1.4 273 .6c0-.3-61.4-.6-136.5-.6H0zM373.9 4.3c-31 36.2-56.6 72.8-65.9 94.6-6.6 15.2-12.1 26.9-17.3 36.5-8.2 15.2-17.7 27.3-17.7 22.6 0-.5-.6-.7-1.4-.4-1.6.6-16.8-6.4-23.2-10.8l-4.2-2.7-1 2.7c-.6 1.5-2 5.8-3.3 9.7-2.4 7.6-5.3 12.4-12.2 20-4.9 5.6-13.7 21.6-13.7 25.1 0 2.2 8.6 10.6 12 11.7.8.2.2.3-1.5 0-1.6-.2-4.7-1.7-6.7-3.4-2.1-1.6-3.8-2.6-3.8-2 0 1.1 1.4 2.6 6.4 6.5 2 1.6 3.5 3.1 3.2 3.3-.5.6-4.4-1.6-7.3-4.1-1.3-1.1-2.6-1.7-2.9-1.4-.3.4 1.9 2.5 4.8 4.7 4.9 3.7 5.9 4 10.2 3.7 9.5-.8 14.3 3.9 7.2 6.9-5.4 2.3-12.8 3.7-16.2 3.1-1.6-.4-5.8-2.9-9.2-5.6s-6.2-4.6-6.2-4.2c0 .5 1.1 3 2.4 5.8 1.2 2.7 2.6 6 3 7.4.3 1.4 1.4 3.6 2.5 4.9 1.8 2.3 2.4 2.4 12.7 2.3 6 0 21-.5 33.4-1 25.8-1 94.5-.6 113 .7 14.4 1.1 47.8 4.9 50 5.7 1.4.6 21.5 4.9 46 10 6.3 1.3 14.2 2.6 17.5 2.9 3.3.4 8.9 1 12.5 1.5s8.4 1 10.8 1h4.2V74.2l-2.9-1-2.9-1-1.1 6.1c-.6 3.4-2.2 15.2-3.6 26.1-4.8 37-8 47.1-19.6 61-12.7 15.1-25.5 27.1-36.3 34-4.3 2.8-8.4 6.6-12.5 11.8-8.4 10.7-15.9 15.2-19 11.4-1-1.2-1.8-1.2-5.8 0-6.2 1.9-12.2 1.8-12.9-.1-.7-1.7 1.5-5.5 5.4-9.8 1.4-1.5 2.7-3.4 2.8-4.2.4-2.6 9.4-13.2 12.9-15.1 2.8-1.5 3.4-2.4 3.3-4.4-.2-2 .4-2.8 3.2-4.2 1.9-.9 4-2.1 4.5-2.6.6-.4 1.9-1.4 3-2s1.4-1.2.8-1.2c-1.8 0-1.6-2 .2-2 .8 0 2.5-1.9 3.9-4.3 2.2-3.7 4.2-11.2 12.1-44.4 2.7-11.3 1.4-16.7-5.7-24.8-6.2-7.1-11.3-7.9-21.9-3.4-4 1.8-5.3 3.1-8.6 8.6-2.1 3.6-4.9 7.4-6.2 8.4-3 2.4-9.8 2.5-13 .3-3.4-2.4-2.5-8.3 2.6-15.9 2.2-3.3 5.6-8.5 7.6-11.5 3.9-6 7.1-9.6 26.5-29.9 7-7.3 12.8-13.7 13-14.2s-2.4-2.1-5.7-3.5c-3.4-1.5-6.1-3.3-6.1-4 0-2.1 9.3-21.2 14.3-29.6 2.6-4.2 4.7-7.9 4.7-8.2S432.9 0 413.3 0h-35.8zM172.1 240.7c-.1 3.2.3 4.3 1.4 4.3 1.8 0 1.8-.4 0-5l-1.3-3.5zM0 338v46h512v-66.7l-4.2-1.1c-15-3.7-41.3-3.3-74.8 1.2-23.7 3.2-98 1.7-143.5-2.8-17.1-1.8-49.6-4.3-57-4.5-4.9-.1-18.6-1.2-38-3.1-5.5-.5-13.4-1.2-17.5-1.5s-11.5-1-16.5-1.5c-4.9-.6-16.6-1.7-26-2.5-9.3-.9-24-2.2-32.5-3-15.8-1.4-25.6-2.1-46-3-11.9-.6-17.6-.9-39.5-2.5-7.2-.6-13.8-1-14.7-1-1.7 0-1.8 2.9-1.8 46"/></svg>