<svg xmlns="http://www.w3.org/2000/svg" width="682.667" height="512" version="1.0" viewBox="0 0 512 384"><path d="M0 132.5V265h3.8c2 0 6.6-.4 10.2-.9 6.4-.9 17.7-1.9 29.5-2.6 3.3-.2 12.1-1 19.5-1.9 7.4-.8 17.1-1.7 21.5-2.1 4.4-.3 11.4-1 15.5-1.5s14.4-1.6 22.8-2.6l15.2-1.7 1-4.1c5.6-21.9 8.3-29.1 19.6-52.1 7.4-15.1 16.9-30.8 27-44.6l3.3-4.6-9.4-7.8c-5.2-4.2-9.5-8.4-9.5-9.2s2.3-4.7 5-8.6c2.8-3.9 5-7.8 5-8.7 0-1.8 9.9-12.2 21.6-22.5 21.3-18.9 35.2-33.8 49.4-53 4-5.5 9-12.3 11-15 4.2-5.6 14-20.4 14-21.1 0-.2-62.1-.4-138-.4H0zM369.6 4c-1.5 9.2-4 13.2-29.8 46.9-29.1 37.9-44.5 63.6-56.6 94.1-6.2 15.6-14.1 31.3-20.3 40.7-5.2 7.7-6.4 8.9-7.4 7.3-.3-.5-1.4-1-2.3-1s-5.7-2.3-10.7-5.1c-4.9-2.8-9.4-5.1-9.9-5.2-.4-.1-2.1 4.6-3.6 10.4-1.6 5.8-3.7 12.1-4.8 14.1-3.3 5.8-13.3 20.7-14.4 21.4-1.2.7 0 13.4 1.5 15.2.7.9 4 1.2 11.6 1.1 5.8-.1 11.3-.1 12.1 0s18.6 0 39.5-.3c30.2-.3 43.4 0 64 1.5 14.3 1 29.4 1.8 33.5 1.8h7.5l4.3-5.4c2.3-3 4.2-5.6 4.2-6 0-1.5 9.8-12.3 13.4-14.8 4.4-3 7-6.8 13.4-19.2 3.1-6 5.5-13.3 9.7-29.8 3-12 5.5-23.1 5.5-24.7 0-6.7-7.1-17.5-13-20-4-1.7-10.3-.6-16.5 2.8-3.8 2-5.8 4.1-8.2 8.2-1.7 3-4.3 7-5.8 8.8-2.4 2.9-3.2 3.2-7.9 3.2-8.5 0-10.6-4.1-6.5-12.3 6.7-13.1 23-33.4 44.2-55.3 6-6.2 10.9-11.5 10.8-11.9 0-.4-2.7-2-5.9-3.5-3.3-1.5-6.2-3.3-6.6-3.8-.7-1.2 6.3-15.7 12.1-24.9 2.1-3.4 8.3-12.8 13.8-20.9S450.9 2 451.3 1.3C452 .2 444.7 0 411.2 0h-40.9zm121 101.9c-.3 2.5-1.2 12.2-2.1 21.6-2.7 31.8-6.4 47.1-13.7 57.5-5.3 7.5-19.9 23.3-24.2 26.3-2.3 1.5-5.7 4.3-7.6 6.2-1.9 1.8-8.2 6.3-13.9 10s-14.4 10.2-19.1 14.4c-10.1 8.8-10.6 7.8 6.5 10.6 5.5.9 14.7 2.7 20.5 4 39.8 9.2 43.9 10 71.3 14.1l3.7.6v-164l-7.2-2.2c-14.2-4.4-13.5-4.4-14.2.9M0 340.9V384h512v-58.8l-7.7-1.2c-12.6-1.9-35.2-3.1-43.8-2.3-4.4.5-26.4.7-49 .6-48-.2-86.8-2.4-137-7.8-11.6-1.2-27.2-2.3-57-4-2.2-.2-8.4-.6-13.8-.9l-9.7-.7-1 2.5c-1.3 3.6-5.4 3.4-11.6-.6-4.2-2.7-6.3-3.2-14.9-4.1-15.1-1.4-16.7-1.3-17.9.7-3.2 5.3-4.2 6.1-7 4.8-1.4-.6-3.3-2.7-4.2-4.6-2-4-2.8-4.2-32.8-5.6-11.1-.5-24.4-1.2-29.6-1.5-12.9-.6-30.6-1.3-54.7-2.1L0 297.8z"/></svg>