<svg xmlns="http://www.w3.org/2000/svg" width="682.667" height="512" version="1.0" viewBox="0 0 512 384"><path d="M0 133.3v133.2l4.7-.3c2.7-.2 10-1 16.3-1.8 6.3-.9 14.7-1.7 18.5-1.9 3.9-.2 13.3-1.1 21-1.9 15.8-1.7 43.6-4.3 56.8-5.2 7.1-.5 9.3-1 11.2-2.7 4.3-4.1 11.3-15.6 12.5-20.9 3.6-14.7 8.9-25.5 23-45.9 3.8-5.6 4.7-7.5 3.9-8.6-.7-.7-4.5-3.4-8.5-5.9-4.1-2.5-7.4-5-7.4-5.6 0-.5 2.1-4.2 4.6-8.1 2.6-3.9 4.7-7.6 4.8-8.3.4-2.7 5-8 21.7-24.9 32.1-32.5 36-38 74.7-104.2 4-6.7 7.6-12.5 8.2-12.8.5-.3 1-2.2 1-4.1V0H0zM349.7 4.7c-3.2 26.7-7.4 39.7-17.1 52.8-8.8 11.8-37.5 55.2-43.4 65.5-11 19.3-14.9 28.4-26.8 61.5-4.8 13.5-10.1 24.9-16.2 34.8-4.1 6.7-4 6.7-15.1 0-4-2.4-7.4-4.3-7.6-4.1-.1.2-.7 3.2-1.4 6.8-1.1 6-5.2 21.5-6.7 25.5-.6 1.4-.3 1.6 1.4 1.1 3.3-1.1 80.2-.8 98.2.3 31.6 2 46.5 3.1 54 4 11.6 1.3 11.5 1.4 22-17.3 7.5-13.3 8.4-15.9 15.6-44.1 2.4-9.2 3.4-15.4 3.1-18.1-.6-5.9-5-14.9-8.3-17.1-3.9-2.5-10.8-2.3-16.7.6-7.2 3.5-9.9 6.2-13.6 13.6-3.8 7.5-7.5 10.5-13.2 10.5-4.2 0-6.9-2.4-6.9-6.3 0-3.3 5.5-13.7 12.6-24 7.7-11 32.6-39.8 42-48.6l7.5-7-2.9-1.8c-1.7-1-5.1-3-7.7-4.6l-4.6-2.7 4.2-7.8c6.3-11.4 11.9-19.9 25-37.8C438.6 24.7 454 1.9 454 .6c0-.3-23.3-.6-51.9-.6h-51.8zm127 129c-.4 2.1-.7 8.4-.7 13.9 0 19.9-3.1 41.8-7.5 52.5-2.6 6.6-6.1 11.5-18.1 25.9-5.8 7-8.7 9.6-13.3 12-3.2 1.6-6.7 4-7.7 5.3-1.1 1.4-6.1 5.2-11.2 8.7-5.2 3.4-9.2 6.3-9 6.5s4.6 1.1 9.8 1.9c5.2.9 11.3 2 13.5 2.5s6 1.4 8.5 2 9.7 2.2 16 3.6 15.1 3.5 19.5 4.5c4.4 1.1 9.8 2.2 12 2.5 2.2.4 6.5 1.2 9.5 2 3 .7 7.4 1.6 9.8 1.9l4.2.6v-75c0-41.2-.2-75-.5-75-.2 0-1.4 1.8-2.5 4-2.4 4.6-1.3 4.6-17-.2-15-4.6-14.6-4.6-15.3-.1M0 343.4V384h512v-49.5l-14.7-2.7c-18.2-3.4-32.9-4.5-77.8-5.8-19.2-.6-39.9-1.7-46-2.5-12.3-1.6-25.9-3.2-36.2-4.1-3.7-.3-7-.7-7.4-1-.3-.2-9.6-.8-20.5-1.4s-28-1.7-37.9-2.6c-9.9-.8-25.6-1.9-35-2.4-9.3-.5-20.5-1.4-24.8-2-9.4-1.3-19 .2-17.9 2.8.4 1.1.1 1.4-1.1.9-2-.7-2.2.5-.6 3.5.9 1.6.8 1.9-.2 1.3-1.3-.9-1.1.5 1.2 6.1.7 1.7.9 3.9.5 4.9-.5 1.5-1.4 1.7-5.3 1.1-2.6-.3-6.3-1.4-8.3-2.4-3.5-1.8-4.2-3.2-8.6-18.1-.3-.8-.6-1.2-.8-1-.8.9 2.3 14.1 3.6 15.7 3.1 3.5 3.1 4.3.2 3.2-2.7-1-2.7-1-1 1.4 2 3.2 2 4 0 3.2-1.2-.5-1.5-.2-.9 1.1 2.3 5.7 2.8 9.5 1.2 11-2.5 2.5-6.1.8-13.3-6l-6.5-6.2-1.4-12c-.8-6.5-1.5-12.2-1.5-12.6 0-1.2-11.2-2-12.6-.8-.7.6-1.6 3.2-1.9 5.7-1.4 10.1-2.8 15.6-6 22.7-4 8.8-6.6 10.7-10 7.5-4.5-4.2-6.1-20.1-3.1-30.9.8-3 1.3-5.7 1.1-6.1-.7-1.1-27-2-74.7-2.7L0 302.7z"/></svg>