<svg xmlns="http://www.w3.org/2000/svg" width="682.667" height="512" version="1.0" viewBox="0 0 512 384"><path d="M0 135.6v135.6l3.2-.5c14-2.5 78.4-7.8 102.1-8.4l19.8-.6 2.8-3.6c1.6-2 5.4-7.7 8.4-12.8l5.5-9.1-7.9-5.1c-4.3-2.7-7.9-5.6-7.9-6.3s2.3-5.1 5.1-9.8c4.9-8.1 7.3-11.4 19.7-26.8 14.7-18.1 21.1-27.6 32.1-47.2 5.6-10.2 24.1-47.2 24.1-48.4 0-.2 1.5-3.6 3.4-7.7s3.5-7.7 3.5-8.1c.1-.4 3.2-6.8 7-14.1 7.9-15.4 9.2-19.4 6.4-20.3-12.1-3.9-18-12.3-23.6-34.2L201.5 0H0zM330 1.9c0 1.1-1.4 2.7-3.3 3.8-2.5 1.5-3.5 3-4.3 6.4-.6 2.4-4.5 16.5-8.7 31.4-4.1 14.8-9 32.6-10.7 39.5-3.6 13.9-4 14.9-11.5 27-2.8 4.7-6.5 11-8.2 14-1.6 3-5.9 10.7-9.5 17-19.3 33.9-30.5 61.1-37.9 91.5-1.6 6.6-3.9 15.5-5.2 19.7l-2.4 7.6 8.1.6c4.4.4 16.9 1.1 27.6 1.6s24.9 1.6 31.5 2.4c6.6.9 15.7 1.8 20.3 2.1 4.5.4 12.9 1.4 18.7 2.4 16.1 2.8 15.7 2.9 17.7-5.4.9-3.9 1.7-8.6 1.7-10.5.1-5.4-2.7-17.1-4.5-19.1-2.6-2.9-7.4-2.4-13 1.3-7 4.6-9.5 7.9-12.9 17.1-2.4 6.4-3.8 8.6-6.4 10.4-4.1 2.8-7.2 2.9-9.4.5-2.4-2.6-2.1-5.6 1.3-15.6 3.6-10.8 9-20.1 21.2-36.8 5.1-7 11.3-15.4 13.7-18.8 7.2-10 12.7-16.1 19.4-21.5 2-1.6 3.7-3.4 3.7-4 0-.5-2.2-2.5-4.9-4.4-7.2-4.8-9.5-7.5-8.8-10.3.4-1.3 3.7-7 7.5-12.8 6.1-9.4 11.2-16.1 34.7-45 12.7-15.7 28.6-42.3 46.1-77.3L450 0h-60c-58.3 0-60 .1-60 1.9m174.3 98.5c-8.3 16.5-15.2 33.4-21.1 51.6-9.8 29.8-13.2 37.9-21.8 52l-4 6.5-7.6-.1-7.6-.1-.1 19.8c-.1 10.9-.5 22.9-1.1 26.7-1.3 9.3-5.1 19.7-9.2 25.1-1 1.3-1.8 2.9-1.8 3.5 0 .7 6.5 2.8 15.3 5 13.9 3.6 51.6 14.5 61.9 18 2.3.8 4.4 1.4 4.5 1.2.2-.1.2-50.6.1-112l-.3-111.7zM119.4 314.2c-4.1 4.6-5.8 8.4-6.5 14.1-.9 7.4-5 13-9.7 13.5-2.6.3-3.5-.2-5.2-3-2.2-3.4-2.3-7.5-.4-21.2l.7-4.9-9.9.6c-5.4.4-21.8 1.4-36.4 2.2-14.6.9-31.6 2.2-37.8 3S2.2 320 1.4 320C.2 320 0 324.7 0 352v32h512v-21.5l-13.3-4.2c-7.2-2.4-17.9-5.6-23.7-7.3-5.8-1.6-13.8-3.8-17.7-5-6.4-1.8-10-2.6-20.3-4.6-1.4-.3-5.4-1.2-9-2-10.4-2.4-30.7-6.3-39.6-7.6-6.4-.9-8.9-.9-10.9 0-1.4.7-4.7 1.2-7.4 1.2-4.4 0-5 .3-8 4-5.8 7.3-21.3 12.6-25.2 8.7-1.1-1-2-1.2-3.2-.5-1 .5-3.4.8-5.4.6-3.1-.2-3.9-.8-4.7-3.1-.9-2.4-.4-4.1 3.2-11.4 2.4-4.7 4.1-8.8 3.8-9-.3-.3-4.2-.9-8.8-1.4s-14.1-1.6-21.3-2.4c-16.6-1.9-83.9-6.7-88.4-6.3-3.4.3-3.4.4-5.2 7.8-1 4.1-1.8 10.2-1.9 13.6 0 8.5-2.9 12.8-8.7 13.2-6 .4-7.3-1.9-7.3-13 0-4.9-.4-8.8-.9-8.8-1.1 0-6.3 21.9-7 30.2-.8 8.2-3.3 12.2-8 12.6-4.5.5-9.1-3-9.1-6.9 0-1.7.5-3.9 1.1-5 1.6-3.1 3.4-26.3 2.1-28.5-1.6-2.9-3.9 6.4-6.3 25.5-2.1 16.7-3.2 20.1-7 22.1-3 1.7-9.3.3-12-2.6l-2.4-2.5 2.8-7.8c2.5-7 2.7-8.9 2.7-22.1-.1-9.6-.4-14-1-12.9-2.3 3.9-10.1 27.6-11.1 33.7-1.6 10.3-2.7 12.8-7 16.6-4.6 4.3-6.7 4.5-10.7 1.1-4.5-3.8-4.7-7.5-1.2-18 3.5-10.2 9.8-37.1 10.2-43.6.4-5.1-1.6-6.3-4.8-2.7"/></svg>