<svg xmlns="http://www.w3.org/2000/svg" width="682.667" height="512" version="1.0" viewBox="0 0 512 384"><path d="M0 143.6v143.6l2.8-.6c4.8-.9 10.6-1.6 16.2-2.1 3-.2 12.5-1.1 21-2 13-1.3 56.5-4.5 62.2-4.5 1.1 0 4.6-4.2 9.2-11.3 8.5-12.5 16.1-21.1 22.2-25 2.3-1.4 5.2-4 6.4-5.7l2.2-3.1-6.7-6.9c-3.7-3.9-6.5-7.4-6.3-7.9.1-.6 2.9-4.1 6.1-8 5.7-6.7 17-17.7 34.8-33.4 17.3-15.3 37.7-40.7 65.9-82.2 7.9-11.6 15.2-22 16.3-23.2 1.6-1.8 2.3-4.9 3.3-15.5 1.9-19.1 2-17.8-1.8-16.7-6.2 1.7-13.6 1.1-18.1-1.6-7.6-4.4-15.2-16.8-19.2-31.3L214.7 0H0zM342.1 5.2c-.5 2.9-1.7 10.7-2.7 17.3-4.9 35.2-12.1 73.7-16 85.4-2.9 8.7-3.1 9-18.9 28.6-6.6 8.2-13.4 16.8-15 19s-3.2 4.2-3.6 4.5c-1.6 1.2-24.6 34.3-29 41.8-6.2 10.5-12.4 22.9-17.9 35.7-6.7 15.8-12.8 28.4-16.1 33.2-1.7 2.4-2.9 4.7-2.6 5 .6.6 2.5.7 35.7 2.8 13.5.9 28.7 2 33.9 2.6 7.6.9 9.6.8 10.6-.3.7-.7 5.3-9.2 10.1-18.8 4.9-9.6 10.3-19.1 12-21 1.6-1.9 4.2-5.1 5.7-7l2.7-3.5-7-6.5c-5.6-5.2-7-7.1-7-9.5 0-3.9 10.7-25.1 14.8-29.2 1.7-1.8 3.2-3.7 3.2-4.2 0-.6 4.7-7.9 10.4-16.3 21.2-31.3 32.7-55.8 59.2-126.2l9.5-25.1-3.3-6.8-3.2-6.7h-64.5zm167.3 45.1c-1.1 2.3-8.4 16.6-16.1 31.7-29.7 57.6-42.4 89.6-50.2 126-1.7 8-3.6 16.5-4.2 19-2.1 9.2-7.2 23.7-10.7 31-3.5 7.1-3.9 7.5-8.7 9.1-4.3 1.4-5 1.9-4.7 4 .1 1.3.5 8.7.8 16.5l.6 14.1 5.2 1.3c28 6.9 83.2 23.1 88.7 26 1.9 1.1 1.9-1.5 1.9-141 0-78.1-.1-142-.2-142-.2 0-1.2 1.9-2.4 4.3M205 327.9c0 2.1-5.3 7-8.6 8.1q-6.3 2.1-10.5-2.1l-2-2-6.7 4.5c-8.8 6-12.7 6.2-17.2.8l-3-3.7-4.4 4.7c-4.8 5.2-8.2 7-11.7 6.1-2.9-.7-6.9-4.2-6.9-5.9 0-3.2-2.6-2.2-7.9 3-6 5.9-8.2 6.6-12.9 4.2-4.5-2.3-6.2-5-6.9-10.7-.3-3-1.1-5.7-1.7-6.1s-4.9-.5-9.6-.3c-18.9 1.1-61.3 4.6-73.5 6-7.2.8-14.9 1.5-17.2 1.5H0v48h256c204.1 0 256-.3 256-1.3 0-.7-8.4-3.9-20.8-7.9-35.3-11.5-49.5-15.5-81-23l-8.2-2-3.1 2.6c-4.3 3.7-8 3.4-12.9-1-2.2-2-4.2-3.5-4.4-3.3s-2 3.6-4 7.6c-3.8 7.7-6.5 10.3-10.7 10.3-2.6 0-11.9-5.5-11.9-7.1 0-2.3-1.9-.5-3.3 3-2.1 5.2-6 8.1-10.9 8.1-4.4 0-10.7-2.3-12.5-4.6-1-1.4-1.5-1.3-4.3.8-4.2 3-10.8 3.1-14.7.2-3.7-2.9-3.6-7.1.5-15.5 1.8-3.8 3.2-8.4 3.4-11.4l.3-5-6.5-.7c-48.8-5.4-102-8.5-102-5.9"/><path d="M335.6 340.5c-.3.8-.1 1.5.4 1.5.6 0 1-.7 1-1.5s-.2-1.5-.4-1.5-.6.7-1 1.5"/></svg>