<svg xmlns="http://www.w3.org/2000/svg" width="682.667" height="512" version="1.0" viewBox="0 0 512 384"><path d="M0 145.1c0 116.3.3 145 1.3 144.6 3.6-1.4 70.1-7.7 82.2-7.8 4.4 0 10.1-.4 12.7-.7 4.6-.7 4.7-.8 11.6-11.3 8.5-13 17.5-23.5 23.3-27.3 5.3-3.6 10.9-8.6 10.9-9.9 0-.5-2-2.7-4.5-5-2.5-2.2-5.5-5.3-6.6-6.9l-2.1-2.9 5.5-6.7c5-6.1 14.3-15.3 25.8-25.7 28.9-26 44.2-44.4 75.8-91 7.9-11.6 15.2-22 16.4-23.2 1.7-2 2.2-4.6 3.3-17.5.7-8.4 1.6-16.8 1.9-18.6l.6-3.2h-5.5c-7.4 0-14.8-3.7-20.1-10.1-4-4.7-11.5-18.2-11.5-20.7C221 .3 198.2 0 110.5 0H0zM342.1 5.2c-.6 2.9-1.5 8.9-2.1 13.3-2 14.6-9.9 60.9-12 71-2.7 12.6-5.3 21.3-7.9 26.2-2.1 4-2.7 4.7-18.6 24.4-31.8 39.3-49.6 66.7-61.5 94.9-8.7 20.3-12.6 28.5-17.7 36.4-2.4 3.7-4.3 7-4.1 7.1.2.2 13.1 1.1 28.8 2s33.9 2.3 40.5 3.1c6.5.7 12.3 1 12.7.6s4.4-8.8 8.9-18.7 9.6-20 11.5-22.5 4.6-6.2 6-8.3l2.7-3.8-6.6-6.5c-5-4.9-6.7-7.2-6.7-9.2.1-4.8 12.5-29.4 15.5-30.6.8-.3 1.5-1.2 1.5-2.1 0-.8 3.8-7.2 8.4-14.3 11.8-18 17.7-28.8 25.7-46.9 7.3-16.5 22.4-56 30.2-79.4 2.5-7.4 5.7-16.6 7.2-20.4l2.6-6.9-3.3-7.3-3.3-7.3h-57.4zm166.7 46c-1.3 2.9-9 18.1-17 33.8-7.9 15.7-16.1 32.1-18.1 36.5-1.9 4.4-5 11.1-6.8 15-10.3 22.8-17.5 44.7-23.4 71.5-1.9 8.5-3.9 17.5-4.5 20-2.2 8.9-7.2 23.6-10.3 30-3 6.1-3.5 6.6-8.2 8.2-4.2 1.4-5 2-4.8 4 .2 1.3.6 9.3.9 17.9l.7 15.7 22.1 5.7c20.7 5.3 27.9 7.4 59.9 17.3l12.7 4V188.4c0-78.3-.1-142.4-.3-142.4s-1.5 2.4-2.9 5.2M202 330.9c0 1.4-6.5 4.1-9.8 4.1-1.6 0-4.1-.9-5.6-2.1l-2.6-2.1-6.4 3.6c-9.2 5.2-16.4 4.9-19.3-.7-.9-1.7-1.4-1.5-6.2 2.3-7.1 5.6-9.9 6.5-14.5 4.6-2.2-.9-4-2.5-4.6-4.1l-1-2.7-6.4 5.1c-5 4-7.2 5.1-9.9 5.1-4.7 0-9.3-3.8-10.1-8.5-.7-3.5-.7-3.5-5.8-3.5-12 0-94.7 7.1-98.6 8.5-.9.3-1.2 5.6-1.2 22V384h254.7c140 0 254.4-.2 254.2-.4-.5-.5-11.5-4.5-15.4-5.6-1.6-.5-11.1-3.4-21-6.4-21.7-6.8-30-9.2-34-10-1.6-.3-7.9-1.9-14-3.6-6-1.7-18.1-4.5-26.9-6.2-14.3-2.9-15.9-3.1-17-1.6-.6.9-2.6 3.6-4.3 6.2-2.5 3.4-3.9 4.6-5.8 4.6-4.2 0-6.3-1.7-9.6-7.6-1.8-3-3.5-5.2-3.9-4.7-.4.4-1.7 3.5-2.9 6.8s-2.9 6.6-3.8 7.2c-4.4 3.3-11.9.1-16-6.8-2.2-3.7-3-3.7-3.8.1-1.3 5.9-7.8 6.7-15.1 1.7l-4.9-3.2v-8.8c0-5.3-.4-8.7-1-8.7-.5 0-4.1-.5-8-1-29.7-3.8-99.5-7.4-99.5-5.1"/></svg>