<svg xmlns="http://www.w3.org/2000/svg" width="682.667" height="512" version="1.0" viewBox="0 0 512 384"><path d="M0 144.6v144.7l5.8-.7c26-3.2 48.1-5.2 87.5-8.1l8.7-.7 8.2-12.1c8.9-13 18.4-23.9 23-26.3 1.6-.8 4.7-3.1 6.9-5.1l3.9-3.5-7.1-6.8-7.2-6.8 1.9-3.2c2-3.5 16.9-18.7 42.6-43.5 20.9-20.2 28-29.3 67.5-87l11.7-17 1.7-18c2.4-24.8 2.5-24-.8-24.3-1.6-.1-5-.9-7.7-1.8-5.8-2-15.3-11.1-20.1-19.2l-3-5.2H0zM341.1 4.7c-.6 2.7-1.3 7-1.7 9.8C337.1 33 327.3 88 324 101.1c-3 11.6-4.8 14.9-15.6 28.4-37.9 47.3-57.1 77.3-69.4 108.5-5.9 14.8-12.6 28.7-16.7 34.3-2 2.6-3.4 5-3.2 5.1.2.2 13.2 1.2 28.9 2.1s33.9 2.3 40.5 3 12.3 1 12.7.6c.4-.3 4.3-8.7 8.7-18.5 5.7-12.5 9.7-19.9 13.6-25 3-4 5.5-7.5 5.5-7.9 0-.3-2.9-3.5-6.5-6.9-3.9-3.8-6.5-7.2-6.5-8.5 0-4.8 10.8-27 14.9-30.7 1.2-1.1 2.1-2.3 2.1-2.9 0-.5 3.8-6.9 8.5-14.2 14.8-23.2 23.1-40.5 36.7-77 6.3-16.6 25.8-73.2 25.9-75 0-.6-1.4-4.5-3.3-8.7L397.5.1 369.8 0h-27.6zm161.4 4.5c1.9 22.8.9 31.1-5.2 43.8-42.7 89.1-51.3 111.5-58.8 153-1.4 7.6-3 15.1-3.5 16.5-.6 1.5-1 3.9-1 5.5 0 3.1-7 24.1-10 29.9-1.8 3.6-3.7 5.1-9.1 7l-2.5.9.4 17.4c.2 9.5.7 17.6 1.1 18.1.4.4 12.6 3.8 27.2 7.7 21.9 5.7 62.4 17.8 69.2 20.5 1.6.7 1.7-7.5 1.7-164.4V0h-10.2zM201.2 331.1c-2.9 3.1-10.9 3.4-14 .6-1.9-1.8-2.2-1.7-9.1 1.7-8.9 4.5-13.2 4.7-17.2.7l-2.9-2.9-4.2 3.2c-6 4.6-8.2 5.6-12.1 5.6-3.4 0-7.7-3.3-7.7-5.8 0-1.9-.6-1.5-7.6 3.8-3.9 3-7.5 5-9.1 5-3.8 0-9.2-3.7-9.9-6.8-1.2-5.8-.5-5.5-13.7-4.8-26.2 1.4-84.7 6.6-91.4 8.1C0 340 0 340 0 362v22h256.2c150.7 0 255.8-.4 255.2-.9-1.8-1.7-42.6-15-60.4-19.8-20.7-5.4-46.8-11.7-59.9-14.3l-15.4-3.1-2.6 2.6c-4.7 4.4-10.7 2.9-12.5-3.2-.7-2.3-3.9-3.9-5.6-2.8-.6.4-1.7 2.3-2.6 4.3-2.3 5.5-4.2 7.2-8.5 7.2-4.5 0-8.3-3.8-9.3-9.4-.4-2-1-3.6-1.4-3.6s-1.8 2.4-3.2 5.3c-2.3 4.9-2.8 5.2-6.5 5.5-5.7.4-10.1-3.5-11.7-10.5-1.2-5-1.4-5.2-5.3-5.7-15.9-2.3-55-5.1-85-6.2-18-.6-18-.6-20.3 1.7"/></svg>