<svg xmlns="http://www.w3.org/2000/svg" width="682.667" height="512" version="1.0" viewBox="0 0 512 384"><path d="M0 137.1v137.2l3.7-.7C24.1 270 71.9 265.1 106 263c33.4-2 35.6-2.2 36.6-2.8.5-.4 3.5-4.6 6.7-9.3 6.5-9.7 10.3-13.6 17.3-18.2 2.7-1.8 5-3.9 5.1-4.7.2-.9-2.1-3.1-5.7-5.4-3.3-2.1-6-4-6-4.2 0-2 11.6-16.5 23.4-29.2 24.4-26.4 33.8-40 60.6-87.2 5.1-9.1 9.9-17.2 10.5-18 .7-.8 1.6-2.9 1.9-4.5.7-3.3 3.6-35.4 3.6-39.7v-2.7l-3.7 1.5c-2.1.9-4.9 2.6-6.3 3.9-9 8.2-22.5 10.4-33.2 5.2-10-4.8-20.6-16.1-26.1-27.8-2-4.3-4.7-14.4-4.7-17.6V0H0zM334.6 3.2c-.3 1.8-1.7 11.4-3.1 21.3-5.8 40.8-12.5 80.1-15.1 88.9-.8 3-6.6 12.8-14.3 24.5-26.3 40-36.4 59.8-45.7 89.1-6.1 19.3-8.1 24.7-10.8 29.6l-2.4 4.3 7.2.5c3.9.3 14.1 1 22.6 1.6s21.1 1.8 28 2.6c6.9.7 13 1.4 13.6 1.4s1.8-1.7 2.7-3.8c6.9-16.3 11-24.7 14.1-28.7l3.5-4.7-5.4-5.2c-3-2.8-5.5-5.9-5.5-6.7 0-3.8 5.7-17.7 14.5-35 5.2-10.3 11.1-22.6 13-27.4 6.3-15.6 13.4-42 21.9-81 2.6-11.6 5.3-22.2 6.1-23.7 1.3-2.5 1.1-3.5-1.4-11-1.5-4.6-4.9-15.4-7.6-24.1L365.7 0h-30.6zM456 .5c0 .3.7 5.1 1.6 10.8 5.1 33.8 5.6 48.7 2 58.7-1.3 3.6-5.1 14.1-8.5 23.4-17.6 48.3-24.6 76-27.1 108.1-1.6 20.4-1.9 22.4-4.6 32.5-2.9 11.2-4.5 13.8-10.3 16.5-3.7 1.7-4.2 2.3-3.7 4.5.3 1.4.9 8.5 1.2 15.8l.7 13.2 6.6 1.9c3.6 1.1 12.9 3.8 20.6 6 16.4 4.7 46.8 15.2 64.2 22.2 6.6 2.7 12.4 4.9 12.7 4.9s.6-71.8.6-159.5V0h-28c-15.4 0-28 .2-28 .5M227.8 308.2c-4.1 2.8-9.9 3.6-14.2 1.9-1-.4-4.4-.1-7.5.7-5.7 1.5-8 1.1-12.2-1.9-1.3-1-3.1-.6-8.9 1.7-7 2.7-7.3 2.8-10.2 1.1-4-2.3-6.6-2.1-13 .8-2.9 1.4-6 2.5-6.9 2.5-2.3 0-6.9-3.8-7.9-6.6-.9-2.2-1.2-2.3-10.7-1.8-37.4 1.8-74 5-110.8 9.5C12.3 317.7 1.2 319 .8 319c-.5 0-.8 14.6-.8 32.5V384h512v-20l-3.7-1.6c-10.3-4.4-38.7-14.8-53.8-19.7-31.4-10.3-79.3-22.5-82.8-21.1-.9.3-4.2-.5-7.3-1.7-5.5-2.3-5.7-2.3-6.8-.5-2 3.5-4.6 5.6-6.9 5.6-3.3 0-6.5-2.6-7.2-6-.9-4-2.6-3.8-5 .8-1.9 3.4-2.4 3.7-6 3.6-4.3-.2-8.5-3.9-8.5-7.5 0-1.1-1-2.3-2.2-2.8-3.3-1.3-40-4.9-62.8-6.1-10.7-.6-21.2-1.2-23.3-1.3-2.7-.2-4.9.5-7.9 2.5"/></svg>