<svg xmlns="http://www.w3.org/2000/svg" width="682.667" height="512" version="1.0" viewBox="0 0 512 384"><path d="M0 135.1v135.2l4.8-.6c2.6-.3 15.3-1.9 28.2-3.6 30.7-3.9 60.2-6.7 93.5-8.6 14.9-.8 28-1.8 29.2-2 1.4-.3 4-3.2 6.9-7.7 6.1-9.3 11.8-15.5 16.6-17.9 2.1-1.1 3.8-2.6 3.8-3.4 0-.7-2.7-2.8-6-4.6l-5.9-3.1 1.6-3.1c2.3-4.6 11.3-16.7 12.4-16.7.4 0 1.5-1.2 2.3-2.8.8-1.5 4-5.4 7.2-8.7 10.1-10.4 23.4-29.2 34.6-48.5 5.8-10 7.8-13.7 19-34.5 3.8-7.2 7.8-14.4 8.8-16 1.4-2.4 2.2-7.3 3.4-23.5.9-11.3 1.6-21.7 1.6-23.1v-2.6l-6.6 3.4c-3.7 1.8-7.3 3.3-8.2 3.3s-3.8 1.6-6.6 3.5c-13.8 9.3-27.9 7.3-41.4-6.1-11.6-11.6-18-31.1-13.7-41.7.7-1.6-4.1-1.7-92.4-1.7H0zM337.8 2.8c-3.7 2.1-4.9 3.4-5.3 5.7-.2 1.6-1.4 10-2.6 18.5-5.4 39.9-12.4 82.7-14.6 89.5-.9 2.7-4.8 10.2-8.8 16.5-17.6 28.2-32.4 56.2-37.9 71.5-1.4 3.9-4.1 12.8-6 19.7-1.9 7-3.9 13.6-4.5 14.6-.6 1.1-.8 2.2-.5 2.4.3.3-.9 3.6-2.6 7.3-2.2 4.7-2.8 7-2 7.5.6.4 6.6 1 13.3 1.4 6.7.3 19.4 1.3 28.2 2.3 8.8.9 18.2 1.6 20.9 1.7l5 .1 5.1-12.2c2.9-6.7 6.7-13.9 8.4-16l3.2-3.8-4-3.5c-2.1-1.9-4.4-4.5-5-5.7-2-4 1.6-15.2 11.4-35.3 13-26.5 19.8-50.4 29.5-104.9 1.7-9.5 3.6-18.2 4.3-19.2 1.2-2 .4-5.7-9.2-40.4l-5.6-20-8-.2c-7.1-.2-8.5.1-12.7 2.5m130.4-1.3c-2.3.8-8.6 2.3-13.8 3.4-5.3 1.1-9.8 2.2-10.1 2.4-.2.3.5 7.2 1.6 15.4 2.5 18.2 4.1 33.7 4.2 42.3.1 5.5-.8 9.3-6 24.8-10.4 31.1-18.3 60.3-21.6 79.1-.9 5.2-2.2 19.8-3 32.5-1.4 23.4-3.5 35.9-6.8 40.9-.9 1.4-3.5 3.3-5.7 4.3-3.9 1.8-4.1 2.1-3.5 5.4.3 1.9.8 6.9 1.1 11s.7 9.4 1 11.7l.5 4.2 8.7 2.7c4.8 1.4 12.3 3.6 16.7 4.9 15.7 4.3 60.4 21.1 74.5 27.9 3 1.4 5.5 2.6 5.7 2.6s.3-71.3.3-158.5V0l-19.7.1c-13.6.1-21.2.5-24.1 1.4M237.2 301c-2.6 2.4-4.1 3-7.7 3-2.4 0-4.6-.4-4.9-.9-.4-.5-2.2-.5-4.3 0-5.8 1.3-10.1 1.1-12.9-.8-2.4-1.5-2.9-1.5-9.6.6-6.3 2.1-7.5 2.2-11 1-3.3-1-4.8-1-8.6.1-9.3 2.6-9.9 2.5-13.9-1.5l-3.8-3.8-15 .7c-44.3 1.9-119.2 9.4-142.8 14.2l-2.7.6V384h512v-12.8l-.1-12.7-10.7-4.7c-26.6-11.7-58.1-22.7-87.5-30.7-25.8-7-36.9-9.3-41.1-8.5-2.7.5-4.1.1-6.2-1.5-3.6-2.8-5.4-2.7-8.4.8-4.8 5.7-10 4.7-12.5-2.5l-1.3-3.8-2.1 4.1c-2.5 5-4.8 5.9-9.5 3.9-2.8-1.2-3.7-2.3-4.6-5.6-.6-2.2-1.6-4.3-2.3-4.5-2.7-1-38.4-4.6-54.7-5.5-9.6-.6-20.4-1.2-24-1.5-6.2-.5-6.7-.4-9.8 2.5"/></svg>