<svg xmlns="http://www.w3.org/2000/svg" width="682.667" height="512" version="1.0" viewBox="0 0 512 384"><path d="M0 135.6v135.6l2.8-.7c8.9-2.3 38.6-8.1 56.7-11 39.9-6.6 87.9-11.7 120.5-13 24-1 22.3-.4 26.1-8.6 1.8-3.9 4.5-8.1 6.1-9.4l2.8-2.3-4.5-2.9c-2.5-1.5-4.5-3.2-4.5-3.6 0-2.2 13.6-24.8 16-26.7 1.3-1 12.8-18.5 15-23 7.2-14.1 12.6-25.3 15-31 1.5-3.6 5-12 7.9-18.8 2.8-6.7 5.7-13.3 6.5-14.5 1.3-2 1.9-8 4.1-37.7.2-3.6.7-12.7 1.1-20.3l.6-13.9-2.2.4c-1.6.2-3.3 2.1-5.5 6.3s-4.6 7-7.9 9.2c-6.5 4.4-14.7 7.3-18.8 6.7-2-.4-4.9 0-7.2 1-8.4 3.5-18.2.4-25.6-8.2-12.1-14-13.1-34.8-2.2-46.5l2.6-2.7H0zM348.8 20.4c-1.7 2-3.6 3.6-4.1 3.6s-2.2 1-3.7 2.2c-1.5 1.3-4.7 3.5-7.1 4.9l-4.4 2.6-1.8 14.4c-1 7.9-3.8 28.8-6.3 46.4l-4.5 32-10.3 21.5c-11.2 23.3-18.4 40.7-21.1 51-1.5 5.6-3.4 15-7.5 36.2-.5 2.6-1.4 5.6-2 6.8s-.9 2.4-.7 2.6c.3.3 2.9.7 5.8 1 3 .2 14 1.2 24.4 2.1 10.5.9 21 1.7 23.4 1.8h4.4l3.7-9.3c2.1-5.1 4.5-10.1 5.5-11.2 1.7-1.9 1.6-2.1-2.4-6-3.8-3.7-4.2-4.5-3.5-7.3 1.3-6.4 5.3-18.5 9.9-30.2 5.2-13.5 7.6-22.6 10.5-40 1.7-10.5 6-44.3 7.7-60.5.4-4-.7-12.9-4.1-33-6.7-39.5-6.1-38-11.8-31.6m93.7 21.3c-1.6.2-6.8.8-11.3 1.4l-8.4 1.1.6 10.7c.4 5.8 1.1 16.9 1.7 24.7l1.1 14.1-4.6 18.9c-9.9 41.6-12 57.2-11.3 83.1.3 13.6.1 21.1-.9 27.1-1.6 9.5-2.4 10.9-7.1 14.2-2.3 1.6-3.2 2.8-2.8 3.9.4.9 1.1 5.2 1.7 9.6.5 4.4 1.2 9.4 1.4 11.1.4 3 .8 3.2 12.2 6.8 24.5 7.8 45.5 16.2 66.2 26.6 6.6 3.3 12.1 5.6 12.3 5.2.3-.4.8-4.3 1.2-8.7 1.4-16.1 7.5-39.6 15.4-59.3 2-5.1 2.1-6.7 2.1-52.1v-46.9l-7-23.8c-8-27.3-8.8-29.5-14.2-42.2-3.9-9-4.3-9.5-13.4-17.1-7.9-6.6-10.1-7.9-14-8.5-4.8-.6-15.4-.6-20.9.1m-265 239.9c-36.6 2.6-67.4 5.9-98 10.5-24.8 3.8-69.4 13-77.2 16L0 309v75h501.7l.6-10.3c.6-8.8.3-11.9-2-23.1l-2.7-12.8-4-2.6c-21.3-13.5-79.1-35.5-108.7-41.3-5.3-1-6.2-1-7.9.6-2.4 2.2-5.8 1.2-7-2.1-1.3-3.3-2.4-3-4.9 1.1-1.1 2-2.8 3.8-3.6 4.2-2.3.8-6.6-1.4-7.2-3.7-.6-2.4-1.9-2.6-2.7-.5-.3.8-1.7 2-3.2 2.5-3.7 1.4-7-.9-9.4-6.6-2.1-4.7-3-5.3-5-2.9-1.7 2.1-3.6 1.9-5.3-.6-1.3-1.8-3.4-2.2-14.6-3.4-7.2-.8-19.9-1.7-28.2-2.1l-15.2-.7-1.8 2.4c-1.7 2.3-2.3 2.4-13.1 2.3-6.2 0-12.6-.2-14.3-.3-1.6 0-8.9.2-16.1.5l-13.1.6-2-2.6c-2.5-3.1-3.2-3.1-32.8-1"/></svg>