<svg xmlns="http://www.w3.org/2000/svg" width="682.667" height="512" version="1.0" viewBox="0 0 512 384"><path d="M0 138c0 99.8.3 138 1.1 138 .6 0 5.7-1.3 11.3-2.9 15.5-4.4 42.9-10.7 56.3-13 29-5 36.9-6.3 47.1-7.6 22.1-3 55.7-6.3 75.2-7.5 27.6-1.6 25.5-1 28-7.8 1.1-3.1 2.9-6.9 4-8.3l1.9-2.7-3.9-2.6c-2.2-1.5-4-2.8-4-3 0-2.7 11.1-21.4 21.2-35.9 5.3-7.6 17.6-34.9 26.8-59.4 2.2-5.9 4.7-11.8 5.5-13 .9-1.3 1.9-6.8 2.4-13.5 1.6-18.1 3.4-56.5 2.8-58.1-.3-.8-1.5-1.7-2.6-2-1.7-.4-2.9.8-6.6 6.3-6.1 9.2-11.7 12-25.6 13-5.3.4-10.2 1.1-10.8 1.5-2.6 1.5-10.2-1.8-15.6-6.7-4-3.6-6-6.4-7.5-10.6-4.5-12-4.4-19.7.6-29.2 3.1-6 4.2-7.3 8.8-10.4l3.9-2.6H0zM348.7 30.4c-.9 1.3-2.9 3.1-4.4 3.9-14.4 7.6-14.1 7.3-14.8 13.5-.8 6.5-6.7 51.9-9.1 69.7-1.6 12.2-3 16-14.7 41.5-11.1 24.1-17.3 46.1-20.2 71.7-.2 1.8-.9 5.1-1.5 7.4-.6 2.2-1 4.2-.8 4.3s10.9 1 23.8 2 25.1 2 27 2.3c3.6.5 3.6.5 5.3-5.1 1-3.1 3.1-8.1 4.7-11.2l3-5.6-3.5-3.2c-2-1.9-3.5-4.3-3.5-5.6 0-3.5 2.9-12.5 8.2-25.7 8.1-20.3 10.6-31.6 16.4-75.3 4.2-30.8 4.4-24.6-2.1-66-2.4-15.1-2.3-14.8-7-18-2.4-1.7-4.6-3-4.8-3-.3 0-1.2 1.1-2 2.4m80.8 24.3c-7.8.9-7.2-1.6-5.7 24.4l1.3 23.2-5.5 22.1c-9 35.9-9.8 41.7-10.2 68.6-.2 12.9-.9 26.5-1.5 30.2-1 6-1.5 7.2-4.9 10l-3.8 3.3 1.4 6.5c.7 3.6 1.4 8.1 1.4 10 .2 6.7.5 6.9 18.6 13 18.2 6.1 38 14.1 48.3 19.6 3.6 1.8 6.5 3.3 6.6 3.1.1-.1.9-4.4 1.9-9.6 2.4-13.2 7.5-29.4 14.2-45.1l5.8-13.5.4-11.9c.6-21.6-3.6-48.6-14.7-93.1-9.8-39.3-10.5-41.1-20.5-51.1-7.9-8-8.3-8.2-14.7-9.3s-12.2-1.2-18.4-.4M279.3 276.5c-1 2.8-6.3 4.1-14.8 3.6-9.2-.5-13.4-.4-26.5.4-9.1.6-9.7.6-13.3-1.9-4.6-3.1-6.2-3.2-32.8-1.1-58.6 4.7-117.4 14-157.4 25.1-19.6 5.5-27.2 7.7-30.7 9.1L0 313.2V384h478.7l.8-12.3c.5-6.7.8-13.3.8-14.7 0-3.9-5.8-35.3-6.7-36.8-1-1.7-15.1-8.5-29.6-14.4-15.7-6.4-33.6-12.2-49.3-16.2-13-3.3-13.2-3.3-15.3-1.5-1.7 1.6-2.6 1.8-4.7 1-1.4-.5-2.8-1.9-3.2-3.1-.5-1.7-1-1.9-2.1-.9-.8.6-1.4 1.7-1.4 2.4 0 1.8-3.4 4.5-5.7 4.5-1.2 0-3-1.2-4.1-2.7l-2-2.8-2.4 2.1c-2.3 2.1-4.6 2.1-7.8-.1-1.9-1.2-4-5-4-7 0-1.9-.5-1.9-3.6.2-2.4 1.6-2.6 1.5-4.9-.9-2.7-2.9-4.7-3.2-27-4.8-20.5-1.4-26.4-1.3-27.2.5"/></svg>