<svg xmlns="http://www.w3.org/2000/svg" width="682.667" height="512" version="1.0" viewBox="0 0 512 384"><path d="M0 142.5C0 220.9.3 285 .8 285c.4 0 4.3-1.4 8.7-3 8.8-3.3 38.5-12.2 51-15.2 46-11.2 89.6-18 145.7-22.8 24.4-2.1 24-1.9 25.3-8.8.3-2 1.3-4.8 2.2-6 .8-1.3 1.3-2.5 1.1-2.6s-1.8-1.3-3.5-2.5c-1.8-1.2-3.3-2.8-3.3-3.5 0-2.5 6.8-15.1 14.2-26.1 9-13.6 20.2-38.8 29.5-66.5 1.3-4.1 3.1-8.4 3.8-9.6.7-1.1 1.6-4.1 2-6.5.8-6 3.3-67.1 2.7-68.7-.9-2.7-4.1-.9-8.5 4.8-6.7 8.6-12.4 11.3-24.3 11.6-5.1.1-10.1.5-11.2.8-4.5 1.5-14.3-5.1-18-11.9-5.1-9.4-5.8-21-1.7-29.1 4.6-9.1 11.3-14.9 18.6-16 2.4-.4 5.5-1.3 6.9-2C244.1.3 224.3.1 122.3 0H0zM349.8 40.2c-.4 1.1-9.4 6.6-15.1 9-1.5.7-3 2.2-3.2 3.3s-2.4 19.3-5 40.5-5.1 40.1-5.7 42-2.4 6.4-4 10c-5.4 11.6-15.6 38.3-18.2 47.3-1.4 4.9-3.3 14.1-4.1 20.5-.9 6.4-2.3 15.1-3 19.2-.8 4.1-1.1 7.8-.7 8.1.6.6 35.1 3 47.2 3.3 3.3.1 3.5 0 6.1-7 1.4-4 3.6-8.7 4.8-10.7l2.1-3.5-3.5-2.6c-5.4-4.2-4.7-9.1 4.4-29.2 8.2-18.3 11.7-31.7 18.7-72.4 1.5-8.5 2.9-17.8 3.1-20.5.4-4.8-4.2-39.9-5.5-42.1-1-1.5-16.8-16.4-17.5-16.4-.3 0-.7.5-.9 1.2M426.5 68c-.4.6-.1 10 .5 20.9 1.3 22.1 1.9 18.1-6.9 48-8.2 27.9-10.1 38.6-11.1 61.6-.9 22.4-2.4 29.8-6.4 33l-2.6 2.1 1.8 10.9 1.9 11 3.4 1.1c1.9.7 7.2 2.4 11.9 3.9 10.1 3.2 35.6 13.3 38.7 15.2 2.7 1.8 2.7 1.7 6.4-11.3 1.6-5.9 5.5-16.8 8.6-24.3l5.5-13.6-1.1-17.5c-1.4-19.6-3.2-36.4-5.6-49-4.9-26.2-10.9-56.6-12.7-64.3s-2.8-9.9-8-16.9c-3.8-5.1-7-8.4-9.1-9.3-4.7-1.9-14.4-2.9-15.2-1.5M288.7 272.6c-3 3.2-7.2 4-17 3.2-5.4-.4-10.9-.2-13.4.4-6.3 1.5-18.7.7-21-1.5-2.3-2-8.2-2.2-25.3-.7-76 6.7-145.3 21.7-204.2 44.2L0 321.1V384h458.7l.7-15.8c.4-8.6.7-16.4.8-17.2s-.7-6.5-1.6-12.5c-1-6.1-1.8-16.1-1.8-22.3l-.1-11.3-3.6-1.9c-11.4-5.8-35.1-14-56-19.4-12.7-3.3-13-3.4-14.7-1.5-2.4 2.7-5.8 2.4-7.4-.6-1.7-3.2-2.1-3.1-4.5.8-2.5 4-6.6 4.8-8.8 1.7-1.4-2.1-1.6-2.1-4-.5-2.2 1.4-2.9 1.4-5.9.2q-3.45-1.5-4.8-4.8c-1.8-4.5-1.7-4.5-4.1-2.3-2.1 1.9-2.1 1.9-4-.5-2.7-3.3-6.8-3.9-28.9-4.7-18.2-.6-19.6-.5-21.3 1.2"/></svg>