<svg xmlns="http://www.w3.org/2000/svg" width="682.667" height="512" version="1.0" viewBox="0 0 512 384"><path d="M0 148.4v148.5l5.8-2.5c3.1-1.4 8-3.6 10.7-4.8 7.2-3.2 34-12.8 47.5-17 41.8-12.9 98.8-23.6 156-29.1 22.2-2.2 20.7-1.7 21.5-6.7.4-2.4 1.4-5.4 2.2-6.6 1.3-2.2 1.3-2.5-.4-3.7-6.1-4.4-5.8-3.8-3.9-8.6 1-2.4 2.9-6.4 4.4-8.9s2.7-4.7 2.7-5 1.3-2.4 2.8-4.8c7-10.8 16.4-30.5 20.5-42.8 5.5-16.3 11.3-31.8 12.3-33 .7-.9 1.4-10.8 2-28.1.4-14.8 1.1-30 1.4-33.9.5-6.8.4-7.4-2.2-10.4-2.5-3-2.7-3.1-3.4-1.2-1.1 2.8-8.9 8.9-13.7 10.6-5.7 2-23.3 2-28.4-.1-8.2-3.3-14.5-16-13.4-27.2 1.1-10.8 6.8-19.1 16.2-23.7 3.7-1.8 6.2-2.4 8-2 3.2.8 9.4-2.7 9.4-5.5C258 .1 255 0 129 0H0zM498 .4c0 .4 4.6 6.4 12 15.6l2 2.5V0h-7c-3.8 0-7 .2-7 .4M342.8 54.9c-8.5 4.4-8.8 4.7-9.3 8.6-.3 2.2-2.3 20.1-4.6 39.9l-4 35.9-5.8 13.6c-12 28-17.1 45.3-19.6 65.6-.9 7.2-2 14.5-2.5 16.4s-.7 3.7-.4 4 9 .9 19.2 1.2c10.3.4 20.8 1 23.3 1.4 5.3.8 5.9.3 8.4-7.5 1-3 3-7.8 4.6-10.6l2.8-5-2.9-1.8c-6.7-3.9-6-8.2 4.1-27.2 8.6-16.3 12.2-26.6 19.4-55.2 3.6-14.1 6.9-26.6 7.4-27.8.6-1.3.1-7.2-1.5-17l-2.3-14.9-5.3-4.7c-2.9-2.6-5.5-4.5-5.7-4.2-.3.2-4.1-3.1-8.5-7.4l-8.1-7.9zm90.9 44.9.6 16.8-7.6 19.9c-11.7 31.2-15.8 46.7-17.2 66.4-.8 11.6-3.8 23.8-6.6 26.7l-2 2.1 2 9.6c2.2 10.8 2.5 11.7 4.9 11.7.9 0 9.6 2.7 19.2 6.1 21.8 7.5 22 7.5 22 5.6 0-.9 2.1-7.1 4.6-13.9l4.6-12.3-.5-22c-.5-22.3-1.8-34.7-6.2-62.5-1.3-8.5-3.4-22.9-4.5-32-2.8-22.4-3.4-24.5-8.6-32.3-2.4-3.7-4.6-6.7-4.9-6.7-.2 0-.1 7.6.2 16.8m-137 169.9c-2.7 2.7-3.1 2.8-14.5 2.9-6.4.1-15.7.5-20.5.9-8.1.7-9.1.6-11.7-1.4-3.7-2.7-6.4-2.7-33 .4-85.4 9.8-148.9 26.1-208 53.6l-9 4.2V384h440.7l.7-19.4c.5-12.9.3-23.3-.5-31.4-.9-9.4-.9-15.2 0-26.1.7-7.8 1-14.5.7-15-1-1.5-16.1-6.9-32.3-11.6-19.1-5.5-23.5-6.2-25.2-4.1-1.9 2.3-5.4 2-7-.6-1.3-2.1-1.3-2.1-3.3 1-2.3 3.6-6 4.3-8.9 1.6-1.4-1.2-2.2-1.3-3.9-.4-1.1.6-2.9.8-4 .5-3.2-1-7-4.6-7-6.6 0-1.9-.1-1.9-2.6-.2-2.5 1.6-2.7 1.6-4.3-.6-1.6-2.1-2.9-2.4-15.2-3.1-7.4-.5-16.8-.9-20.9-1-6.9 0-7.8.2-10.3 2.7"/></svg>