<svg xmlns="http://www.w3.org/2000/svg" width="682.667" height="512" version="1.0" viewBox="0 0 512 384"><path d="M0 152.5C0 236.4.2 305 .4 305s3.3-1.6 6.8-3.6c13-7.4 42.5-19.7 66-27.5 45.8-15.1 102.9-26.4 162.8-32 6.9-.6 12.8-1.5 13.3-1.8.4-.4 1.4-3.3 2.2-6.5l1.5-5.7-2.9-2.5c-2.9-2.4-2.9-2.5-1.5-6.2 2.8-7 4.9-11.2 5.7-11.2.4 0 .7-.5.7-1.1s1.3-3 2.8-5.3c3.7-5.6 11.3-20.5 14.7-29.1 6-15.1 15.7-43.3 16.5-48 .4-2.8 1.1-17.8 1.4-33.5l.6-28.6-3-2.9-3-2.9-2.2 2.1c-5.5 5-8.6 5.8-20.6 5.6-12.8-.3-16.4-1.5-21.2-6.9-3.4-3.9-6.2-12.6-6.3-19.4-.2-11.5 12.5-26 22.7-26 1.8 0 4.8-.3 6.5-.6 2.9-.6 3.1-1 3.1-4.8 0-2.2-.4-4.7-.8-5.4-.7-1-6.5-1.2-27.3-.8-14.5.3-27.7.5-29.4.5C207.9.8 160 .6 103.3.4L0 0zM480.8 9.7c7.9 9.9 16 21.4 20.1 28.8 3 5.2 9.3 13.5 10.3 13.5.4 0 .8-11.7.8-26V0h-39.1zm-180-2.3.4 6 1.4-3.3c1.9-4.4 1.8-6.4-.3-7.7-1.7-1-1.8-.6-1.5 5m47.7 54.5c-1.1.3-4.4 1.9-7.2 3.4-5.1 2.7-5.3 2.9-5.3 7 0 2.4-1.6 19.5-3.4 37.9l-3.5 33.6-5.2 12.3c-11.8 28.1-16 42.4-18.8 63.9-1 8-2.2 15.3-2.6 16.2-.6 1.6.1 1.8 7.6 1.9 4.6 0 9.5.2 10.9.4 1.4.1 8.3.4 15.4.6l12.9.4 1.8-6.7c1-3.7 3.3-9 5-11.9l3.2-5.1-4.4-3.7-4.3-3.8 1.8-4.6c1-2.6 3.9-8 6.5-11.9 13.2-20.3 16.1-26.7 26.8-58.3 4.1-12.1 7.7-22.3 8.2-22.8.8-.8-2.8-19.3-4.2-21.5-.5-.6-1.6-1.2-2.6-1.2-4.8 0-14.4-6.5-24.6-16.6-5.7-5.7-10.8-10.4-11.2-10.3s-1.7.4-2.8.8m77.8 95.4c-8.8 20.2-11.8 29.1-14.4 43.2-2.3 12.6-6.5 27-8.4 28.5-.9.8-.8 2.1.6 6.2 1 2.9 1.8 6.8 1.9 8.5 0 3.5 2.9 7.3 5.5 7.3.9 0 6.4 1.6 12.4 3.5 5.9 1.9 11.4 3.5 12.2 3.5.9 0 2.2-2.2 3.3-5.4 2.9-8.5 1.8-48.5-2.3-84.1-1.8-14.8-3.3-27-3.5-27.2-.1-.2-3.4 7-7.3 16m-123 109.8-2.8 3.1-10.5-.1c-5.8-.1-14.6.2-19.7.5-8.4.5-9.4.4-12.2-1.7l-3.1-2.3-16.7 1.8c-76.1 8-138.5 22.4-189 43.5-12.5 5.2-32.2 14.7-41 19.7-9 5.1-8.3 2.8-8.3 29.1V384h425l.1-4.8c1-58.1 1.8-79.4 3.3-87.1 1-4.6 1.5-8.9 1.2-9.6-.5-1.5-9.3-4.2-27.1-8.6-12.3-3-13-3-15.7-1.5-2.9 1.8-6.2 1-7-1.6-.3-.8-1.2-.2-2.2 1.5-1.9 2.8-6.8 3.8-8.2 1.6-.4-.6-1.9-.9-3.5-.5-1.7.3-4.6-.1-6.9-1-3.6-1.5-4.5-2.4-4.1-4.7.1-1-.7-.9-3 .4-1.6.8-2.5.7-4.1-.7-2-1.9-14.8-3.1-34.5-3.3-6.9-.1-7.4.1-10 3"/></svg>