<svg xmlns="http://www.w3.org/2000/svg" width="682.667" height="512" version="1.0" viewBox="0 0 512 384"><path d="M0 155c0 85.2.3 155 .6 155s4.3-2.2 8.8-4.9c33.1-19.7 74.6-36 119.1-46.6 30.8-7.4 69.6-13.7 103-17 8.8-.8 18.3-1.8 21.2-2.1l5.2-.5 1.5-5.1c1.5-5 1.4-5.1-1-7-1.3-1.1-2.4-2.6-2.4-3.3 0-1.6 7-15.2 12.6-24.5 5.5-9 11.4-22.3 16.3-36.5 2.3-6.6 5.6-15.6 7.4-20l3.1-8 .4-31.5.3-31.6-3.5-3.3-3.4-3.3-6.1 2.2c-5.3 2-6.6 2.1-10.5 1.1-2.5-.6-6.1-1.1-8.1-1.1-7.2 0-14.2-5.5-17.6-14-2.2-5.4-1.8-16.7.8-21.5 4.4-8.2 13.5-14.8 20.2-14.7 9.1.1 10.2-1.5 8-11.8l-1.1-5h-22.6c-19.8 0-22.8.2-24.4 1.7-2.3 2.1-8 2.1-11.3-.1C214.3.2 203.4 0 107 0H0zM454.2 1c.2.5 2.2 3.3 4.6 6.2 2.3 2.9 6.4 8 9 11.3 7.6 9.4 15.4 21.9 22.6 36 6.7 13.1 9.8 17.3 17.4 23.3l4.2 3.3V0h-29.1c-18.1 0-28.9.4-28.7 1M344.5 73.4c-4.8 3-5 3.3-5.3 8.1-.5 8.9-4.2 52.8-5.2 61-.6 6-2 10.5-5.3 18-10.2 22.9-16 42.3-18.2 61-.9 7.1-1.7 13.5-2 14.2-.4 1.2 5.7 1.7 31.7 2.8l13.6.5 1.2-5.5c.6-3 2.9-9.1 5.1-13.6 2.3-4.4 3.9-8.2 3.7-8.3-6.1-4.5-7.8-6.1-7.8-7.3 0-1.9 5.8-10.9 11.6-18 9.4-11.5 19-29.1 29.8-54.3 1.6-3.6 3.9-8.8 5.1-11.6 2.3-5 2.3-5.3.8-11.5-2-7.9-2.7-8.9-6.8-8.9-5.4 0-18.6-3.9-22-6.5-4.1-3.1-12.1-11.4-17.4-18.3-2.3-2.9-4.9-5.2-5.9-5.1-.9.1-3.9 1.5-6.7 3.3m74.7 115.4c-1.7 4.3-4.5 13-6.2 19.2-1.8 6.2-4.1 13.3-5.3 15.7-1.9 4-2 4.7-.8 9.1.8 2.6 1.9 7.2 2.5 10.2l1.2 5.5 6.8 1.8c3.7 1 7.1 1.6 7.4 1.3 2.1-2.1.4-67.7-1.8-69.9-.4-.5-2.2 2.7-3.8 7.1m-110.3 75.6c-1.4 3.1-3.4 3.5-13.4 3-4.4-.2-11.3.1-15.3.7-8.4 1.2-12 .6-15.2-2.3-2.2-2.1-2.2-2.1-19.4-.4-82.1 8.1-147.4 23.7-198.1 47.3-15.9 7.5-30.9 16-40.8 23.4L0 341.2V384h410.7l.6-18.3c2.2-61.1 3.2-72.1 7.6-87.4.9-3 .8-3.3-2.2-4.2-8.4-2.7-22.5-5.2-26.1-4.6-2.1.3-4.4.1-5.1-.5-.9-.8-2.3-.5-4.8 1-3.1 1.8-3.9 2-5.9.8-1.3-.7-4.2-1.3-6.5-1.3-2.6 0-5.3-.8-7-2.1-5-3.7-15.9-5.2-37.1-5.3-14.1-.1-14.3-.1-15.3 2.3"/></svg>