<svg xmlns="http://www.w3.org/2000/svg" width="682.667" height="512" version="1.0" viewBox="0 0 512 384"><path d="M0 192v192h512V0H0zM242.2 82.2c.3.8 2.3 1.1 5.6.9 5.8-.3 6.2.4 3.5 5-3.6 6.1 4.1 7.2 10.8 1.5 3.9-3.3 4.8-3.6 10.3-3.6 9.8 0 12.9 1.4 21.9 9.7 4.5 4.1 8.4 7.9 8.6 8.5.6 1.8-5-.1-10-3.3-5.9-3.7-8.7-3.8-9.5-.2-.3 1.6-.8 3.5-1 4.5-.4 1.2.8 2 4.7 3.3 8.1 2.7 16.5 11.8 12.9 14-1.8 1.1-1 2.3 3 4.6 2.1 1.2 3.7 2.6 3.5 3-.3.4.7 1.2 2.2 1.7 1.6.6 2.2 1.1 1.4 1.1-1.1.1-1 .6.4 2.1 2.3 2.5 0 2.8-2.7.3-1-.9-1.8-1.2-1.8-.6 0 .5.9 1.8 2 2.8s2 2.2 2 2.7-.9.4-2-.2c-1.9-1-2-.8-2 6.4 0 6.3.3 7.5 1.8 8 16.6 4.7 25.3 7.9 24.8 9.1-.9 2.4.7 2.5 10.5.5 5.2-1.1 13-2 17.5-2 8.1 0 18.4 2.3 18.4 4 0 .6 1 1.1 2.3 1.1 1.6.1 1.7.3.5.6-1.7.4-1.7.6 0 3.1 3 4.7 5.3 6.4 7.7 6q2.4-.6 1.8.9c-.3.8.9 1.9 3.3 3 3.4 1.5 3.6 1.8 1.7 2.1-2.3.3-3.1 2.6-1.3 3.7 1.7 1 1.2 4.8-.5 4.1-.8-.3-1.5-.1-1.5.4 0 .6.8 1 1.8 1 1.4 0 1.4.2.3.9-1.3.8-1.3 1.2-.1 2.6 1.2 1.5 1.1 1.6-1.6.9-2.7-.6-2.8-.5-1 .8 1.8 1.4 1.8 1.5-.5 2.1-1.4.4-3.3 0-4.6-.8-2.5-1.7-3.7-1.9-2.9-.7 1 1.7-5.4 5.7-8.4 5.3-1.1-.1-.9.3.4 1.4 1.9 1.4 1.9 1.5-1 1.2-1.6-.1-4.4-1.1-6.1-2-3.9-2.1-4.2-1.3-1 2.2 1.5 1.8 1.1 1.6-1.6-.7-6.5-5.6-8.2-6.1-31-9.7-5.4-.9-11.9-2.4-14.5-3.4-3.7-1.5-6.3-1.8-12-1.3l-7.3.5.7 4.2c.3 2.4.3 5.2-.1 6.4-.9 3-5 2.8-7.1-.5l-1.7-2.5-1.3 2.9c-2.9 7-6.4 4.7-6.4-4.3v-6.3l-3.8-.9c-2.5-.6-7.5-.6-14.6.1-12.2 1.1-13.9.6-14.4-4.2-.2-1.7-.9-3.3-1.7-3.6-2.4-.9-35.2-2.9-36.9-2.3-2.8 1.1-1.7 3.5 2.9 6.3 4.7 2.7 5 3.1 3.6 5.2-.6 1-2.9.2-10.2-3.6-5.2-2.8-12.9-6-17.2-7.3l-7.8-2.2-2 2.1c-1.1 1.2-2.4 2.2-2.9 2.2-1.2 0-4.6-3.3-5.1-4.9-.3-.7-3.4-1.6-6.9-2.1-3.6-.4-7.3-1.1-8.3-1.5-2.2-.9-5-6.2-4.1-7.6.7-1.2 15.8-.5 24.4 1.1 2.5.5 12.6 1.5 22.5 2.4s22.7 2.1 28.4 2.7l10.3 1.1 3.8-4.3c2-2.4 5.6-8.1 8-12.7 3.6-7 4.1-8.7 3.2-10.5-.6-1.2-1.6-5-2.3-8.4-1.2-6.6-1.9-7.6-7.2-10.2-2.5-1.2-3.3-2.3-3.5-4.9-.2-2.2.2-3.4 1.2-3.8.9-.3 1.6-1.1 1.6-1.8 0-.6 1.3-1.2 3-1.3 3.4-.2 6 2.6 6 6.7 0 1.5 1 4.6 2.2 7.1 1.8 3.7 2.3 4.1 2.7 2.4.3-1.1 1.4-3.2 2.4-4.7 1.7-2.5 1.7-2.8.1-5.3-1.1-1.7-2.2-2.4-3.4-2-2.2.7-6.4-5.4-5.4-7.9.4-1 .1-1.6-.8-1.6-.8 0-3.2-1.6-5.3-3.6-2.2-2-5.1-4.2-6.6-4.9-2.8-1.5-7.6-7.3-7.9-9.6-.6-4.2.1-4.5 5.3-2.4 1.7.7 1.7.6.1-2.8-1.4-3-1.5-3.9-.4-5.2 1.5-1.8 2.7-1.9 3.2-.3m79.8 46.2c0 .3-.4.8-1 1.1-.5.3-1 .1-1-.4 0-.6.5-1.1 1-1.1.6 0 1 .2 1 .4M312.5 236c.3.5.1 1-.4 1-.6 0-1.1-.5-1.1-1 0-.6.2-1 .4-1 .3 0 .8.4 1.1 1"/><path d="M287.4 136.8c.3.6.2 1.2-.4 1.4-1.7.5 1.1 7.8 3 7.8 2 0 4.5-4.3 3.6-5.9-.4-.6-2.1-1.8-3.8-2.7-1.6-.9-2.7-1.1-2.4-.6m2.1 2.2c.3.5.1 1-.4 1-.6 0-1.1-.5-1.1-1 0-.6.2-1 .4-1 .3 0 .8.4 1.1 1m-25.4 12.2c-.6 1.8-3.1 6.7-5.6 10.8-4.5 7.5-5.7 12-3.1 12 2 0 12.4-8.8 15.1-12.8l2.3-3.4-3-4.9c-1.6-2.7-3.3-4.9-3.8-4.9s-1.3 1.5-1.9 3.2m46.9 8.2c0 .1 2.8 2.1 6.3 4.3 4.7 3.2 6.8 4 9 3.6 4.7-.9 3.9-2.1-3-4.3-11.7-3.7-12.3-3.9-12.3-3.6m-7.8 1.7c.2.6 1.9 1.7 3.8 2.5l3.5 1.4-3-2.5c-3.2-2.6-4.9-3.2-4.3-1.4"/></svg>