<svg xmlns="http://www.w3.org/2000/svg" width="682.667" height="512" version="1.0" viewBox="0 0 512 384"><path d="M0 130.5C0 202.3.1 261 .3 261c1.7 0 21.1-4.7 27.7-6.6 10.9-3.3 11.9-3.9 22.6-12.4 10.3-8.3 22.3-14.4 37.8-19.5 23.1-7.4 57.5-12.5 85.1-12.5 22.3 0 67.8 4.4 93.5 9 14.4 2.6 22.1 3.4 25.2 2.7 1.5-.4 4.2-3.4 7.5-8.4 6.6-10.1 6.9-10.7 14.7-31.3l6.5-17.6-.6-24.7-.6-24.7-3.3-2.1c-5.9-3.6-9-13.6-6.4-20.3.8-2.3.7-2.6-1.1-2.6-6.2 0-14.9-8-17.3-15.9-1.2-4.2-1.3-5.7-.1-10 1.7-6.6 5.7-13.4 9.5-16.1 5.7-4 16-5.8 21.3-3.5 1.3.6 1.7.2 1.7-1.7 0-3.4-2.2-6-7.3-8.6-4-2-4.4-2.5-4.2-5.6.2-2.3-.5-4.6-2.5-7.6-1.6-2.4-2.6-4.9-2.3-5.6.2-.7-.1-2.2-.7-3.4-1-1.9-1.9-2.1-9.8-2-4.8.1-10 0-11.7-.3-1.6-.2-4.2-.5-5.7-.5-3.3-.2-6.8-3.7-6.8-6.9V0H0zM431.1 6.2c-2.8 8.3-5.1 12-9.8 15.4-2.1 1.5-4.1 3.1-4.5 3.4-.5.3 3.5.4 8.7.2 10.9-.5 16.9.8 20.8 4.4 1.4 1.3 2.9 2.4 3.2 2.4s1.5.9 2.7 2l2.2 2h-2.5c-2.3.1-2.2.3 1.6 3.5l4 3.5h-2.9c-1.9 0-2.6.4-2.3 1.2.3.7 1.8 4.2 3.2 7.8s4.8 11.3 7.4 17.1c8.5 18.4 8.8 24.3 1.6 32.6-3 3.6-3.4 4.4-2.5 6.9.9 3 1.3 5.5 5.5 34.3 1.4 9 3 17.1 3.7 17.9.7.9 3.8 4.4 7 7.7 11.3 12.1 14.6 17 26.5 40l7.2 14 .1-111.3V0h-78.8zm-78.6 109.7c-.3.5 0 1.3.6 1.7.8.4.9 2.7.5 7.2-.4 3.5-.9 13-1.2 21.1-.9 27.1-1.8 32.6-7.4 46.1-8.1 19.3-10.3 26.7-10.4 34.3l-.1 6.9 16.5 5c9.1 2.7 17.2 5.2 18.2 5.5 1.4.4 1.7-.5 2.2-5.9 2.5-29.2 3.8-39.3 6.1-47.8 6.4-23.6 7.5-28.6 7.5-34.2 0-5.5-.2-6-3.1-7.6-13.2-7.3-17.5-12.3-21.5-24.7-2.4-7.3-3.1-8.5-5-8.5-1.3 0-2.5.4-2.9.9"/><path d="M156.5 234.1c-28.1.9-52.6 5.2-73.2 12.8-12 4.4-17.8 8.3-29.9 20.2-9.1 8.8-12.5 11.4-18.7 14.4-4.2 1.9-8.1 3.5-8.7 3.5-2.7 0 .5 17 7 37.5 3.4 10.5 18.3 54 20.2 58.7l1 2.8h150.9c95.1 0 151-.4 151.4-1 .3-.5 1-6 1.5-12.2 3.3-39.8 4.3-49.6 6.9-68.4 2.9-20.5 4.5-33 4.6-34.8 0-1.1-8.7-4.1-27.4-9.7-13.2-3.8-15-3.9-15.1-.7 0 1.4-5.4.8-19.2-2.1-15.1-3.3-17.1-4-19.4-7.5-1.7-2.8-7.2-4-36.4-8-34.9-4.9-62.7-6.5-95.5-5.5"/></svg>