<svg xmlns="http://www.w3.org/2000/svg" width="682.667" height="512" version="1.0" viewBox="0 0 512 384"><path d="M0 115v115h3.8c6 0 25.9-2 36.2-3.6 12.9-2 17.8-3.7 27.8-10 19-12 44.5-18.2 81.7-20s90.9 6.7 149 23.4c12.6 3.7 16 3.4 18-1.6 2.4-5.6 4.2-11.2 6.8-21.3 2.2-8.2 2.6-12.4 3.1-32.7l.6-23.3-4.4-4.4c-3.5-3.4-4.6-5.3-5.1-8.9-.9-5.9 0-11.7 3-19l2.4-6-3.9-4.2c-6.3-6.9-7.5-14.5-3.6-22.9 2.2-4.9 11.5-14.5 14-14.5 4.3-.1 5.7-6.8 2.7-12.8-1.9-3.7-1.9-3.8 0-6.1 1-1.3 1.9-3.1 1.9-4.2 0-1 .5-2.1 1-2.4s1-.1 1 .4c0 .6.5 1.1 1.1 1.1.7 0 .9-1.1.6-2.8-.3-1.5-1.2-6.8-2.1-11.7-.8-5-1.5-9-1.6-9.1 0-.1-3-.4-6.7-.7-23.6-2.3-27.9-4.3-22.1-10.4l2.1-2.3H0zM444 1c0 .5.5 1 1 1 .6 0 1-.5 1-1 0-.6-.4-1-1-1-.5 0-1 .4-1 1m8.9.9c1.3 1.3 2.7 1.7 4.6 1.3 2.1-.4 3.2.1 4.7 1.9 3.9 4.9 4 6.3.4 17.2-1.8 5.6-3.8 12.4-4.5 15.2-1.6 6.6-3.6 9.5-6.5 9.5-1.3 0-4.2 1.7-6.7 4l-4.3 3.9 2.8 1.1c1.5.5 3 1 3.4 1s3.9 2.4 7.9 5.3c3.9 2.8 8 5.8 9 6.5 1.6 1.1 1.5 1.2-.7.6s-2.3-.5-1.1 1c.8.9 1.5 2.6 1.6 3.9.3 2.4 7.7 17.9 15 31.7 2.5 4.7 4.3 9 4.1 9.7-.3.7-.1 1.5.4 1.8 2.5 1.6.4 8.5-4.7 15.3-1.7 2.3-2.2 3.7-1.5 4.5 2.5 3.1 11.2 46.6 11.2 56 0 10.1-1.6 13.5-10.8 22.2l-8.4 8.1 6.2 13.9c8 18.2 19.2 39.6 28 53.7 3.9 6.2 7.5 11.7 8.1 12.2.5.6.9-55.6.9-151.2V0h-30.5c-29.9 0-30.5 0-28.6 1.9m-94.3 144.3c-.3 2.4-1.3 14.2-2.2 26.3-1.8 25.8-2.1 27.7-6.8 46-2 7.7-3.6 14.5-3.6 15.2 0 1.5 5.7 4.6 7 3.8.6-.3 1-1.4 1-2.4 0-2.9 4.5-16.9 8.9-27.7 7.9-19.6 9.1-30.4 4.5-40.2-3.1-6.6-5-12.9-5.9-20-.8-6.3-2.1-6.7-2.9-1m84.7 26.3c.3 5.9 1.1 10.3 2.3 12.7 2 4.2 2.6 4.5 4.5 2.2 1.1-1.3.8-3.1-2.1-11.2-4.7-13.7-5.2-14.1-4.7-3.7"/><path d="M135 217.6c-1.9.2-7.7.9-12.8 1.5-12.4 1.4-27.7 5.2-35.4 8.7-3.5 1.6-10.3 6.1-15.2 10-11.3 9-16.3 11.6-27.2 14.5l-8.9 2.4.3 4.4c.7 11.5 2.5 24.7 5.2 37.9 4 19.9 13.3 61.1 17 74.9 1.6 6.2 3 11.5 3 11.7s60.7.4 134.9.4h134.8l.7-10.8c.9-12.4 3-29.5 5-40.2.8-4.1 3.3-17.6 5.6-30 2.2-12.4 4.9-27 6-32.5 1.1-5.8 1.6-10.3 1.1-10.8-.6-.6-2.7.8-5.2 3.2-2.3 2.2-5.8 4.6-7.7 5.2-4.5 1.5-12.7.6-15.1-1.6-1.1-.9-2.4-1.4-2.9-1.1-1.3.8-12.4-7.5-15.1-11.3-1.5-2.1-2.2-4.2-2-6.6.2-1.9-.1-3.9-.6-4.4-1.2-1.1-34.7-10.1-52-14-36.1-8.1-58.9-11-88-11.5-12.1-.3-23.6-.2-25.5 0M.1 375.2 0 384h7l-2.1-5.3c-1.2-2.8-2.7-6.8-3.4-8.7-1.3-3.4-1.4-3.1-1.4 5.2"/></svg>