<svg xmlns="http://www.w3.org/2000/svg" width="682.667" height="512" version="1.0" viewBox="0 0 512 384"><path d="M0 58.5c0 43.3.3 59 1.2 60.4.9 1.5.9 3.1-.1 7.3-.7 2.9-1.1 6.4-1 7.7.4 2.8 1.7 3.2 14.4 5.5 4.4.8 13 2.4 19 3.6 40.9 7.7 62.9 9 79 4.5 19.7-5.6 36-6.6 59-4 45.5 5.3 79.5 15.8 128.4 39.6 19.1 9.3 20 9.5 20.1 4.2 0-1.8 7.4-17.8 9-19.3 2.1-2 6.7-10 5.8-10-.6 0 0-1.2 1.4-2.8 5.2-5.6 6.1-7.7 5.2-13.4-1.1-7.2-.7-10.6 1.7-14.7 1.8-3.1 1.9-3.9.8-7.3-.9-2.9-.9-4.3.1-6.7.7-1.7 1.5-3.1 1.9-3.2.3-.1 1.8-.2 3.3-.3 4.9-.2 5.4-1.9 4.8-15.3-.2-5.7.9-10.1 4.6-17.9 1.3-2.8 2.4-5.6 2.4-6.1 0-.6-2.4-1.7-5.2-2.3-7.3-1.7-10.8-3.7-10.8-6 0-2.9 2.8-3.9 13.6-4.9 11.2-1 10.9-.7 15.9-12.5 4.7-11.1 10.2-20.1 13-21.4 6.5-3 65.7-.1 73.3 3.5 1.8.9 4.3 3.2 5.4 5.3l2.2 3.7 7.1-7.2c7-7 15.2-12.2 17.9-11.2.7.3 1.6 2.9 2 6.1.7 6.6 4.6 15.2 8.6 19.3 1.6 1.6 2.8 3.8 2.6 4.9-.3 2.1-5.7 5.2-10.2 5.8q-6.9.9-6 3.3c.4.8.8 2.6 1.1 3.9s.7 3.5 1 4.8c.3 1.6 1.7 2.9 4.3 3.9 3.5 1.4 7.3 6 5.9 7.3-1.3 1.3-8.7 2.4-16.8 2.4-4.8 0-9.9.3-11.5.6-2.9.5-2.9.6-2.6 6.6.5 7.2-1.2 16.8-3.8 21.8-2.2 4.3-7 9-7 6.9-.1-.9-.7-.6-2 1-2.3 2.7-2.7 7.1-.6 7.1 2.6 0 13.1 5.2 15.9 7.8 7.3 6.9 9.3 17.7 4.8 26.4-2.9 5.6-5.3 8.1-10.5 10.6l-3.8 1.9 7.3 5.9c4.1 3.3 8.1 7.3 8.9 8.9s2.1 3.5 2.8 4.3c1.6 1.8 1.5 4.7-.3 11.1l-1.6 5.2 4.2 7.7c11.2 20.6 14 26.3 16.3 33.4 5.6 16.8 1.2 29.5-10.9 31.2-5.9.9-26.8 5.9-30.6 7.4-2.1.8-2.5 1.5-2.2 3.9.3 1.5-.2 4.8-1.1 7.2-1.5 4.4-1.4 4.5 1.3 8 15.5 20.1 28.1 44.5 36.7 71.4l2.8 8.7H512V0H0z"/><path d="M127.5 167.4c-3.9.7-12.8 3.7-19.9 6.5-13.5 5.5-19.4 6.7-34.6 7-5 .1-9 .7-9.7 1.4-1.6 1.6-6 21.6-7.3 33.1-4.7 41.2-8.5 98.2-7.6 113.1 1.4 21.7 4.4 42.2 7.7 52.3l1.1 3.2 111.6-.2 111.7-.3 8.5-17c4.7-9.4 11.6-25.1 15.4-35 8.3-21.9 14.8-35.1 21.8-44.7 3-4 5.7-7.8 6.1-8.5 1.3-2.2-2.3-4.2-9.9-5.4-10.6-1.7-15.1-5.8-16.8-15-.5-2.8.3-6.2 3.9-16 2.6-6.8 5.5-14.3 6.6-16.7 1-2.3 1.9-4.6 1.9-5.1 0-1.1-30.4-16.5-45.5-23.1-6.6-2.8-12.9-5.6-14-6.1-20.5-9.3-59.7-20-85.5-23.4-12.5-1.7-36.7-1.7-45.5-.1m306.1 53.4c-.3.9-1 3.7-1.6 6.2-1.9 7.3-4.8 12.1-11.6 19.2-6.3 6.5-8.1 9.7-4.7 8.4 1-.4 7.8-1.1 15.3-1.6 7.4-.6 14.9-1.2 16.5-1.5 6-1.1 16.5-3.7 16.5-4.1 0-.2-3.4-5.6-7.6-11.8-7.6-11.4-7.6-11.5-12.8-12.6-2.8-.7-6.1-1.8-7.3-2.6-1.9-1.2-2.2-1.2-2.7.4m-7.5 79.2c-1.2.7-.9 2.8 2.1 12.7 2 6.5 4.6 16.1 5.8 21.3 4.6 19.4 7 26.8 13.2 40.7l4.2 9.3h26.5l-3.1-9c-6.4-19.3-20-43.5-34.8-62-9-11.2-12.1-14.2-13.9-13M0 373.8V384h8.8l-4-9.8c-2.2-5.3-4.2-9.9-4.4-10.1s-.4 4.1-.4 9.7"/></svg>