<svg xmlns="http://www.w3.org/2000/svg" width="682.667" height="512" version="1.0" viewBox="0 0 512 384"><path d="M0 44.4v44.5l3.7-3.5c4.8-4.5 9.9-7.1 16.3-8.5 14-3 18.3 4.8 7 12.6-4.2 2.9-4.2 2.9-2.2 4.6 3.9 3.1 62.5 18.4 84.2 21.9l13.4 2.3 11.1-2.2c17.6-3.4 25.8-4.1 40-3 24 1.7 48.6 7.5 76.5 17.8 10.5 3.9 45.7 21.2 56.5 27.8 4.4 2.7 9.1 5.5 10.4 6.3s6.7 4.3 12 7.7l9.6 6.3 3.4-3.5c3.4-3.3 3.4-3.4 2.1-7.4-1.7-5.2-.7-12.8 2.1-15.8l2.2-2.2-2.2-5c-3.3-7.7-2.8-13 1.8-20.9 2.1-3.7 4.1-8.6 4.5-10.9.5-3.3 4.7-13.6 8.4-20.5.2-.3-2.3-1.2-5.5-1.8-6.1-1.3-9.3-2.6-9.3-3.8 0-1.8 4.9-3.5 11.4-3.9 3.9-.2 7.6-.6 8.3-.8 2.2-.7 10.5-13.2 18.1-27.1 2.8-5 6-5.7 24.7-5.1 26.1.9 47.9 4.4 51.8 8.3l2.3 2.3 4-5.4c2.1-3 4.4-5.5 5-5.5s1.4 1.9 1.7 4.1c.6 4.8 6 16.1 8.8 18.8 3 2.8 1.6 6.3-3.4 9.1-6.7 3.7-7.5 4.7-6.8 8.3.6 3.1 1 3.3 8.6 5 10.9 2.5 16.2 4.5 16.9 6.4.4.9.4 1.9 0 2.2-.7.7-14.4.8-23.4.1l-6.5-.5.3 3.7c.4 4.8-1.6 18.3-3.5 22.9-1.4 3.5-9.3 11.1-9.3 8.9 0-2.3-2.9-.8-4.9 2.6-1.2 1.9-2.1 3.9-2.1 4.3 0 .9 5.4 3.3 11.2 5.1 14.1 4.3 17.2 25.4 5.2 35.9-3.3 3-10.6 5.7-12.3 4.6-.5-.3-1.9-.2-3 .3-1.9.7-1.3 1.4 5.4 6.1 6.6 4.7 12.5 10.7 12.5 12.6 0 .4.7 1.3 1.5 2.1 1.7 1.8 2 7.3.4 10.6-.9 2.1.3 4.3 10.6 19.6 12.5 18.6 17.5 27.9 17.5 32.7 0 5-2 10.4-5 13.8l-2.8 3.1-14.1.7c-7.8.3-14.3.8-14.5 1s1.8 4.2 4.6 8.9c14.1 24.3 23.4 47.4 30.1 75l1.3 5.5 7.7.3 7.7.3V0H0zm.1 104.2.1 40.9L2.1 179c2.1-11.9 4.7-23.5 9.5-43.2 1.9-7.5 3.4-14.3 3.4-15 0-.8-1.5-2.2-3.2-3.3-1.8-1-3.5-2.1-3.8-2.4s-2.2-2.2-4.3-4L0 107.6z"/><path d="M146 135.4c-3 .7-10.9 3-17.5 5.1-11.3 3.6-12.6 3.8-23.5 3.7-6.3-.1-13-.3-14.9-.5-3.3-.2-3.5 0-5.8 5.8-1.3 3.3-3.9 11.2-5.8 17.5-2.9 10.2-5.2 21-15 70.5-7.3 37-10 62.8-9.2 89 .6 20.3 2.1 32.9 5.8 48.8l2.1 8.7h223.5l4.1-8.8c2.2-4.8 5.6-12.7 7.6-17.5 7.6-18.5 12.4-26.5 28.2-47.4 5-6.7 9.9-14.1 10.7-16.4 1.9-5.4 2.9-10.9 1.9-10.9-.4 0-6.7 2.9-14.1 6.5-7.3 3.6-14.3 6.5-15.6 6.5-3.6 0-7.9-4.3-11.6-11.4-3.2-6.1-3.3-6.7-2-10.3.7-2.1 2.5-5.6 4-7.8s6.5-11.2 11.1-20 8.8-16.3 9.3-16.6c.5-.4.4-1.6-.3-2.9-2.2-4.2-.8-15 2.8-22.1l3.3-6.4-2.8-2.3c-4.7-3.8-38.5-23.8-49.9-29.5-20.3-10.1-38.3-17.5-54.9-22.5-28.9-8.8-56.6-12.2-71.5-8.8m283.1 114.7c-1.2 4-1.2 4.2 2 7 2.1 1.9 4.7 3 7.8 3.4 2.5.3 6.3.8 8.4 1 2 .3 3.7.3 3.7 0 0-1.5-11.5-14.4-13.3-14.9-5.6-1.5-7.3-.8-8.6 3.5m-23.4 34.4c-.4.9-.7 4.3-.7 7.5 0 5.7.3 6.6 11.5 39.3 3.2 9.3 6.6 24.3 8 35.2.3 2.7 1.1 7.8 1.7 11.2l1 6.3h49l-.7-3.8c-1.5-8.6-10-31.7-16.5-44.7-7-14.3-20.1-35.5-21.9-35.5-.5 0-2 .4-3.3.9-1.3.4-4.8 1.1-8 1.5l-5.6.7-4.3-4.3c-2.3-2.4-5.4-6.9-6.9-10.2-2-4.3-2.9-5.4-3.3-4.1M.1 354.2 0 384h10.1c7.7 0 10-.3 9.6-1.3-.3-.6-2.4-5.4-4.6-10.5-4.8-10.9-10.2-27.3-12.9-39.2l-2-8.5z"/></svg>