<svg xmlns="http://www.w3.org/2000/svg" width="682.667" height="512" version="1.0" viewBox="0 0 512 384"><path d="M0 192v192h25l-1.4-3.3c-.8-1.7-2.6-5.9-4.1-9.2-4.5-10-10.4-29.3-13-42.5-4.2-21.6-5-32.4-4.9-67.5 0-42.1 2.1-63.8 9.4-99 3-14.8 3.8-17.9 9.1-36.9 2.4-9 2.9-12.1 2-12.4-2.1-.7-13-10.1-14.8-12.8-2.6-4-2.8-11.3-.4-15.1 6.1-9.7 27.2-16.7 32.9-10.9 2.3 2.3-.2 7.1-5.5 10.7-6.8 4.7-6.4 5 21.7 12.8 38.9 10.8 59.2 15.1 70.9 15.1 4.3 0 11.8-.9 17.1-2.2 26.8-6.1 70.5.5 111.5 16.9 22.7 9.1 55.1 26.7 79.7 43.3 7.5 5.1 8.6 5.5 7.8 3.4-1-2.6.1-9.9 2.1-13.7.8-1.3.8-2.6.1-4.1-2.2-4.6-3.2-9.1-3.2-14.8 0-6.4 1.5-11 5.3-16 1.4-1.8 2.8-5.1 3.2-7.3s2.2-7.1 4.1-10.8 3.4-7 3.4-7.2-2.7-.9-6-1.6c-3.3-.6-6.7-1.7-7.6-2.3-2.8-2.1 2.4-4.5 11.3-5.2l7.8-.6 4.7-6.2c2.5-3.3 5.6-8.1 6.8-10.4 3.8-7.6 8.9-14 12.2-15.1 9.1-3.2 56.3.9 66.1 5.8 3.4 1.7 4.2 1.8 5.4.5.8-.8 1.1-1.4.6-1.4-.4-.1.3-1 1.6-2.1l2.5-2 1.7 5.4c2.1 6.6 7.2 16.9 9.3 18.6 1.4 1.1 1.4 1.5 0 3.6-.8 1.3-2.8 2.8-4.4 3.5-3.4 1.4-4.1 2.9-3.1 6.7.7 2.6 1.4 2.9 9.2 4.5 13.9 2.9 16.7 3.9 17.2 5.9.7 2.6-4.1 3.3-17.4 2.5-8.2-.5-11-.3-11.6.6-.4.7-.8 6.5-.9 12.8 0 10.7-.2 11.9-2.6 15.4-1.4 2-2.8 3.2-3 2.6-.2-.8-1.5-.3-3.5 1.4-3.6 3-4.8 3.3-3.8.9.4-1.3-.1-1.1-1.7.6-2.7 2.8-5.8 7.3-5.8 8.3s5.8 3.5 10 4.4c7.1 1.4 12.8 8.8 13.7 17.7 1.1 10.8-8.5 22.2-18.8 22.2-6.2 0-6.3 1.3-.2 6.2 7.6 6.2 12.2 10.7 12.5 12.3.2.8.9 1.9 1.6 2.5 1.4 1.1 1.9 7.9.8 11.3-.5 1.6-.3 2.7.7 3.5 4.4 3.6 27.7 37.2 29.7 42.8 1.8 5-.8 13.7-5.2 17.4-3.1 2.6-3.6 2.7-13 2.3l-9.7-.4 3 5.1c13.3 22.3 22 43.9 31.4 77.7l1.6 5.8H512V0H0z"/><path d="M151.3 130.1c-2.4.4-9.2 2.4-15.2 4.3-12.7 4.1-23.1 5.2-34.6 3.8-4.4-.6-8.4-.7-8.8-.3-1.6 1.6-10.5 29.8-13.2 41.6C70.1 221.7 62 266.4 59.4 290c-2.9 26.9-1.1 59 4.7 84.8l2.1 9.2 111.1-.2 111.1-.3 8.2-18.3c7.6-16.8 16.8-32.8 22.7-39.2 3.2-3.6 10.9-13.9 13.5-18.1 4.6-7.6 7.2-22.9 3.7-21.6-.8.4-6.9 4-13.6 8.2-7.7 4.8-13.1 7.5-15 7.5-3.6 0-8.3-4.6-12.3-11.9-2.4-4.5-2.7-6-2.2-9.9.4-2.9 1.7-6 3.5-8.2 2.8-3.5 7.4-11.3 16.2-27.2 4.7-8.6 4.8-8.8 4.2-15.7-.8-9 1.3-14.7 8.9-24.8 3.2-4.2 5.8-7.8 5.8-7.9 0-.5-29-19.1-39-24.9-37.4-21.9-74.4-35.8-108.6-41-10.6-1.6-26.2-1.8-33.1-.4m284.4 126.4c2.1 2.4 4.4 4.4 5.1 4.5 1.8 0 1.5-.6-2.4-5-5.1-5.6-7.6-5.2-2.7.5M404.9 289c-.9 1.6-1.4 5.5-1.4 11 .1 7.8.7 10.2 6.7 28.5 6.6 19.7 8.5 28 10.9 46.2l1.2 9.3h57.5l-.8-3.3c-6.6-27-16.6-49.9-32.9-75-2.4-3.7-4.7-6.7-5.1-6.7s-2.6.7-4.9 1.5-6.9 1.6-10.1 1.7c-5.3.2-6.3-.1-9.7-2.8-3.4-2.8-5.7-5.5-8.9-11-1-1.7-1.2-1.7-2.5.6"/></svg>