<svg xmlns="http://www.w3.org/2000/svg" width="682.667" height="512" version="1.0" viewBox="0 0 512 384"><path d="M0 192v192h15c14.2 0 16.1-.3 14.1-2.5-1.2-1.4-6.8-15.4-9.8-24.4C5.3 314.5 2.7 262 11.1 195c2.5-19.5 9.6-53.2 15.8-74.3 1.5-5.1 1.7-7 .8-7.7-.7-.5-3.7-3-6.8-5.5C15 102.9 11 96.4 11 91.9c.1-3.7 3.1-8.9 7.1-12.1 7.3-5.9 20.8-8.7 25.7-5.2 4 2.8 2.4 6.4-5.8 12.5l-3.4 2.6 3 1.6c3 1.5 21 6.6 47.2 13.2 32.1 8.1 44.6 9.2 62.5 5.3 24-5.3 59.8-1.2 95.7 10.9 13.9 4.7 34.5 13.4 45 19 21.6 11.6 40.3 22.6 49.4 29 3.8 2.7 5.1 3.2 5.7 2.1 1.3-2 1.1-4.4-.5-5.7-2.5-2.1-4.6-10.2-4.6-17.8 0-8.2.7-10 5.6-15.6 1.9-2 3.4-4.7 3.4-6 0-1.2 1.4-5.1 3-8.6 3.2-6.7 3.3-9.1.3-9.1-2.4 0-8.4-1.8-10.3-3-2.7-1.7 2.2-5 8.3-5.6 11.1-1.1 11.2-1.1 15.6-7 2.3-3 5.4-8.1 7-11.2s4.7-7.7 6.9-10.2l4-4.5 23.8.1c24.4 0 34.2 1.1 41.4 4.7 1.7.9 3.3 1.1 4.1.6 2.6-1.6 3.6-.9 4.9 3.3 1.7 5.5 6.7 15.9 8.5 17.7 1.2 1.2 1 1.9-1.2 4.8-2.1 2.8-2.4 3.8-1.6 5.6.9 1.9 2.5 2.6 10.5 4 11.3 2 17 4.1 16.2 6.1s-3.3 2.5-16.4 3.2c-6.5.4-11.8 1.2-12.3 1.8-.4.6-.4 4.9 0 9.6.8 10.3.8 13.1-.4 13.9-.5.3-1.7 1.9-2.7 3.5-1.4 2.2-2 2.6-2.7 1.5s-1.1-1.1-1.7-.2c-1.2 1.8-8.2 6.4-8.2 5.3 0-2.1-3.2.5-5 4-1.5 2.9-1.7 4-.7 4.7 1.9 1.5 4.9 2.5 8.5 2.8 9.2.6 16.2 16.5 11.7 26.6-2.9 6.6-9.4 11.8-15 12-4.1.1-7.2 1.3-5.7 2.3.7.4 1.2 1.5 1.2 2.4s1.9 2.9 4.3 4.4c5.6 3.6 9.7 7.5 9.7 9.4 0 .8.7 1.7 1.5 2 2 .8 2.9 6.7 1.6 10.4-.9 2.8-.7 3.4 1.8 5.8 1.6 1.5 7.7 8.8 13.6 16.2s11.6 14.6 12.7 15.9c4.6 5.4 6.1 9 5.4 13.2-1.3 8-5.7 13.8-10.6 13.9-1.4.1-3.3.5-4.3.8-1.6.7-1.5 1.1.8 5.2 5.6 9.8 16.4 33 19.9 42.5 4.2 11.7 10.6 33.2 10.6 35.7 0 1.3.8 1.8 3 1.8h3V0H0z"/><path d="M156.7 128c-2.7.5-9.4 2.4-15 4.3-14.3 4.9-23.3 6.2-33.7 4.8-10.9-1.5-10.5-1.5-12 1.6-2.3 5-9 26.6-11 35.3-3.8 16.9-14 69.9-16.4 85-7.5 47.3-7.4 79.7.5 115l2.2 10h109.9c103.7 0 109.9-.1 110.5-1.8.3-.9 3.4-7.8 6.8-15.4 6.5-14.4 10.7-21.1 21.4-34.7 8.3-10.5 9.4-12.1 13.3-20.1 2.7-5.4 3.3-7.9 3.6-15.4l.5-8.8-5.9 4c-3.3 2.3-9.1 6.4-13.1 9.2-4 2.7-8.3 5-9.6 5-3.1 0-11.1-8.4-13.9-14.7-2.7-6-2-11.4 2-15.7 1.6-1.7 4.8-6.5 7.2-10.6 13.4-23.4 13.9-24.3 12.8-26.3-1.5-2.8-.5-12.5 1.7-17.2 1-2.2 4.5-7.4 7.7-11.6s5.8-8.1 5.8-8.7c0-.5.5-1.2 1-1.4.6-.2 1.2-1.7 1.3-3.3.2-2.8-.6-3.6-12.3-11.3-24.6-16.3-54.9-32.5-77.2-41.2-33.5-13.1-68-19.3-88.1-16m248 164.3c-1.5 2.2-3 5.6-3.3 7.5-1.2 6.5.3 17.5 4.1 29.2 6.5 20 8.5 28.1 10.5 41.5 1.1 7.2 2 13.1 2 13.2 0 .2 15.1.3 33.5.3s33.5-.1 33.5-.3c-.1-2.8-8.5-29.3-11.7-36.7-6.6-15.3-19.9-39.3-25.6-46.4l-2.4-2.9-7.9 2.1c-9 2.4-14.9 2.7-18 .9-3.9-2.3-7.2-5.3-9.6-8.9l-2.5-3.6z"/></svg>