<svg xmlns="http://www.w3.org/2000/svg" width="682.667" height="512" version="1.0" viewBox="0 0 512 384"><path d="M0 192v192h512V0H0zM246 78.5c0 1.1 1.1 1.5 3.9 1.5 5.2 0 5.8 1.2 2.7 5.3-3 3.9-3.2 5.2-1 6.1 3.1 1.2 5.7.5 9-2.3 4.6-4.1 9.2-5.2 16.6-4 3.4.6 6.7 1.3 7.4 1.7 2.9 1.6 17.3 14.8 17.3 15.9.1 1.6-5.5-.1-9.1-2.7-1.5-1.1-4.1-2.3-5.8-2.6-2.5-.6-3.1-.3-4 2-1.8 4.9-1.3 6.2 3.1 7.5 5.2 1.6 13.9 9.5 13.9 12.7 0 1.5 1.2 3 3.6 4.4 1.9 1.2 3.3 2.4 3 2.7-.9.9 1.9 3.1 3.3 2.5.9-.4 1.2-.1.7.7-.5.7 0 2.1 1.1 3.3 1.8 2.1 1.8 2.1-.5.9-2.7-1.4-4.2-.7-2.4 1.1s1.4 2.7-.8 2.1c-1.9-.5-2 0-2 7v7.6l3.8.7c18 3.1 23.2 4.6 23.2 7 0 1.8-1.2 1.7-12.5-1l-6-1.5 3 2.5c1.7 1.3 4.5 2.9 6.3 3.5 1.7.6 3.2 1.5 3.2 2.1s.8.7 1.8.3c4-1.6 24-4.5 31.2-4.5 10.1 0 19 1.8 18.3 3.6-.3.9.1 1.4 1.2 1.4.9 0 1.4.4 1 1-.3.5 1 2.6 2.9 4.6 2.7 2.8 3.9 3.5 5.6 2.9 1.4-.4 2-.3 1.7.2-1.1 1.7 3 5.2 5.5 4.7 1.8-.3 1.7-.2-.5.7-1.5.6-2.5 1.5-2.1 2 .3.5-.1.9-.8.9s-.2 1 1.2 2.1 1.8 1.7 1 1.3c-1.3-.7-1.3-.5-.1.9 1.2 1.5 1.1 1.7-.5 1.8-1.1 0-1.4.3-.6.6 1.8.7.4 2.3-1.6 1.7-.9-.2-.7.1.6.7 2.6 1.4 2.9 2.9.5 2.9-1.4 0-1.5.2-.5.9 2.6 1.6-4.1 2-7.2.4-2.6-1.4-2.8-1.4-2.3.1.4 1 .1 1.6-.8 1.6-.8 0-1.5.5-1.5 1.1 0 .5-1.4 1.5-3 2.1-2.9.9-2.9 1.1-1.3 2.4 1.6 1.2 1.5 1.3-1.3.9-1.8-.2-4.6-1.1-6.4-2-1.7-.9-4.1-1.7-5.3-1.8-1.2-.2-3.1-.7-4.2-1.3-2.3-1.3-9.3-2.7-24.5-4.9-7.6-1.1-12.4-2.5-17.6-5-5.3-2.6-8.6-3.5-12.3-3.5-5.6 0-5.6-.1-4 6.8 1.6 6.6.6 10.2-2.6 10.2-1.7 0-3.1-1-4.4-3.1l-1.9-3-.6 3.6c-.4 2-1.4 3.9-2.2 4.2-2.8 1.1-4.3-1.7-4.6-8.5-.3-5.9-.5-6.7-2.3-6.8-1.1-.1-2.8-.5-3.8-.9s-4.9-.3-8.7.4c-13.8 2.2-19.8.8-18.4-4.6.4-1.5 0-2.5-1.4-3.2-1.1-.6-2.1-.9-2.3-.7-.2.3-8-.1-17.4-.8-16.4-1.3-21.8-.8-16.1 1.4 1.5.5 3.5 1 4.4 1 2.9 0 4 1.3 3.1 3.7l-.8 2.2-6.3-2.3c-3.5-1.3-11.7-3.6-18.2-5.1-11.2-2.6-12-2.6-13.2-1-.7.9-1.7 1.4-2.2 1.1-.6-.3-1.2-.1-1.4.5-.6 1.7-3.8-.2-4.4-2.7-.7-2.6-1.5-3-9.4-3.9-3-.3-6.2-1.2-7.1-1.8-2.5-1.9-4.2-5.8-3.1-6.9s11.2-.4 37.7 2.6c7.2.8 21 2 30.8 2.7l17.9 1.2 2.9-3.4c4.9-5.6 13.2-21.9 11.9-23.4-.5-.7-1.5-3.9-2-7.1-1.3-7.4-2.6-10.4-4.3-10.4-5.2 0-9.2-9.1-4.6-10.3 1.3-.4 1.8-1 1.3-1.8-.4-.8-.3-1 .5-.5.6.4 1.8.2 2.6-.4s1.9-.9 2.4-.6c.6.4.9-.5.7-2.1-.1-1.6-.8-2.7-1.4-2.6-.6.2-2-.9-2.9-2.5-1-1.5-2.9-3.6-4.3-4.7-4.9-3.8-11.1-10.6-11.5-12.4-.7-3.5 1.9-4.4 5.8-2.1l3.4 2-.9-5.1c-.7-3.6-.6-5.5.3-6.5 1.5-1.8 3.9-1.8 3.9.1m122.5 126.6c2 2.2 2 2.2 0 1.1-1.1-.5-2.9-2-4-3.3-2-2.2-2-2.2 0-1.1 1.1.5 2.9 2 4 3.3M9.5 255c.3.5.1 1-.4 1-.6 0-1.1-.5-1.1-1 0-.6.2-1 .4-1 .3 0 .8.4 1.1 1"/><path d="M256.7 119.7c-1.2 1.1-.8 3.9 1.1 8.1l1.8 3.9 1.8-3.8c1.6-3.2 1.7-4.4.8-6.4-1.1-2.3-4-3.3-5.5-1.8m28.7 17.7c1.3 5.2 2.6 7.6 4.1 7.6.8 0 1.5-.4 1.5-.9 0-.4 1.1-2 2.4-3.4l2.5-2.7-2.2-1.5c-1.2-.8-2.8-1.5-3.7-1.4-1 0-1.1.2-.2.6.6.2 1.2.9 1.2 1.4s-1.4.2-3.1-.7l-3.2-1.6zm-22.5 14.3c-1.2 2.6-3.1 6.1-4.4 7.8-9.5 12.8-6 18.7 4.6 7.7 9-9.2 9.1-9.5 6.2-14.8-1.3-2.4-2.9-4.6-3.4-5-.5-.3-1.9 1.6-3 4.3m40.7 7.2c-.3.5.8 1.4 2.6 2 4.9 1.7 6.6 1.2 2.8-.9-4-2.2-4.7-2.3-5.4-1.1"/></svg>