<svg xmlns="http://www.w3.org/2000/svg" width="682.667" height="512" version="1.0" viewBox="0 0 512 384"><path d="M0 192v192h27c14.9 0 27-.2 27-.4 0-.1-1.1-2.3-2.4-4.8-5.6-10.5-13.7-35.9-17.1-53.3-7.2-36.8-9.4-97.7-5-136.5 1.4-11.6 5.4-38.1 7.1-46.9.5-2.5.1-3.1-4.3-5.6C23.1 131.2 19 126 19 119.6c0-7.8 4.2-13.3 13.5-17.7 12.1-5.8 20.3-2.2 14.6 6.4-1 1.5-2.8 3.5-4 4.3-5 3.6-2.4 4.4 32.4 10 20.5 3.3 32.1 4.6 43.5 5.1l15.5.5 11.1-3.6c20.3-6.6 37.2-7.8 65.9-4.5 18.1 2 41.4 7.5 60.2 14 11.4 4 35.9 14.1 42.2 17.4 2.9 1.5 3.3 1.4 6.1-.7 1.7-1.2 3-3.1 3-4.2.1-1.2.7-3.8 1.4-5.8 1.3-3.7 1.3-3.8-1-3.2-2.6.7-8.4-2.9-8.4-5.2 0-2.1 5.4-6.6 12.2-9.9 5.7-2.8 6.4-3.5 10.4-11 2.4-4.4 4.8-9.6 5.4-11.6 2.3-8.1 7.1-11.4 22.6-15.3 24.3-6.1 42.9-5.1 49.6 2.8 1 1.1 3.7 5.1 5.9 8.9 2.3 3.7 4.6 7 5.2 7.4s6.2 1.3 12.5 2c12.3 1.4 19.2 4.1 19.2 7.5 0 2.5-7.3 7-16.8 10.4-4.3 1.5-8.1 3-8.5 3.4s.1 4 1.2 8.1c2.6 9.7 2.8 13.1 1.1 15.4-3.6 4.5-10.4 10.3-11.5 9.8-1.8-.6-9.2 3.3-10.5 5.6-1.7 3.3-1.2 4.8 3.6 9.6 5.7 5.8 7.4 9.8 7.4 17.2 0 7.7-3 13.8-7.6 15.5-1.9.6-3.4 1.5-3.4 1.8 0 .4 2.1 2.2 4.8 4.1 5.5 3.9 15.9 12.8 25.2 21.5 3.8 3.5 8.4 6.7 11.1 7.7 4.6 1.7 8.8 5.2 7.6 6.3-.3.3.6 2.2 1.9 4.1 1.3 2 2.4 4 2.4 4.6 0 .5 2.6 3.9 5.8 7.6 12.8 14.7 25.8 34.9 37.3 57.9l2.8 5.7V164.7L512 0H0z"/><path d="M167.5 138.6c-6.1 1-14.3 3.7-23.5 7.9-11.8 5.4-15.6 6.4-29.9 7.3l-11.5.7-1.3 5c-5.2 19.9-11.2 68.7-14.4 117.5-1.4 21.6-.6 50 2 67.5 1.7 11.7 7.3 36.4 8.7 38.6.3.5 42.6.9 98.5.9 79.8 0 97.9-.2 97.9-1.3 0-3.2 9-19.3 18.6-33.4 11.4-16.7 14-22.4 15-33.1.7-7.5.9-7.1-6.2-12.1-4.6-3.3-8.7-9.9-10.2-16.3-.5-2.4-1.2-5-1.6-5.8-.4-.9.2-2.5 1.4-3.7 1.1-1.2 3.1-5.7 4.4-9.9l2.5-7.8-2-6c-1.8-5.3-1.9-6.8-.9-11.8.6-3.2 1.8-7.4 2.6-9.3s1.2-3.5 1-3.5c-.3 0 .2-1.9 1.1-4.3.8-2.3 1.7-5.6 1.8-7.2.7-6.3 4.9-15.4 8.4-18.1 1-.8 1.5-3.1 1.5-6.7l.1-5.5-3.5-.6c-3.6-.6-8.6-4.9-11-9.5-2-4-34.4-18.7-59-26.7-26.3-8.7-47.1-12.5-70.5-12.9-9.3-.2-18.3-.1-20 .1M401 282.8c-2.4 4.2-6.2 11.3-8.5 15.7l-4 8V319c0 10.9.6 15 4.2 31.5 2.2 10.4 4.6 22.3 5.3 26.2l1.2 7.3h111.7l-1.9-5.3c-1-2.8-3.4-9.9-5.5-15.7-7.3-21.3-16.2-39.7-27.1-56.4-9-13.6-13.1-18.9-13.9-17.6-.3.5-.4 1 0 1 1.4 0-3.6 7.7-5.7 8.7-6.3 3.1-11.7 2.2-19.7-3.1-2.8-1.9-7-3.7-9.3-4.1-10.9-1.7-16.5-5-20.1-12l-2.2-4.3z"/></svg>