<svg xmlns="http://www.w3.org/2000/svg" width="682.667" height="512" version="1.0" viewBox="0 0 512 384"><path d="M0 192v192h66.8l-2.8-5.3c-4.1-7.4-12.5-28.7-15.4-38.7-6.5-22.7-10.9-51.1-13.3-86-1.4-21.1-1.5-27.7-.4-48.2.6-13.1 2.1-30.7 3.1-39 2.7-21 2.9-19.8-3.1-22.8-2.8-1.3-6.9-4.4-9-6.9-3.3-3.7-3.9-5.1-3.9-8.8 0-5.4 1.8-9 6.6-13.3 5-4.4 11-7 16.2-7 3.5 0 4.4.4 5.4 2.5 1.2 2.7-.1 5.4-5 10.7l-2.5 2.7 2.5 1c1.4.5 6.1 1.4 10.4 2 38.3 5.2 41.4 5.4 61.9 5.5l21 .1 10-3.8c14-5.3 23.8-6.8 44-6.8 38.2 0 71.6 7.4 116.3 25.8.7.3 1.2-.3 1.2-1.6 0-1.6-.6-2.1-2.8-2.1-3.2 0-5.2-1.6-5.2-4.1 0-2.6 4.3-7.3 10.4-11.3 4.6-3.1 5.6-4.3 7.6-9.8 1.2-3.5 2.6-6.8 3-7.3 1-1.4 2.5-7.1 2.8-10.7.3-2.8 7.3-8.9 13.7-11.9 3.3-1.6 6.6-2.9 7.3-2.9s2.3-.6 3.5-1.4c4.3-2.8 21.2-5.9 29.1-5.4 9 .6 12 2.3 19.6 11.2l5.5 6.4 12-.5c11.1-.4 12.3-.3 16.5 1.9 2.7 1.4 4.6 3.1 4.8 4.3.4 3-5.5 8.4-15.2 13.8-7 4-8.4 5.2-7.7 6.5 1.8 3.6 5.1 13.9 5.7 18.2.5 3.7.4 4.3-.7 3.3-1.9-1.8-3.4-1.6-1.9.2 1.1 1.3.8 2.3-1.6 5.8-2.5 3.4-4.2 4.6-9.9 6.7-7.9 2.9-8.8 4.4-5.9 9.7 1.7 3.2 1.7 3.4 0 4.6-1.7 1.3-1.7 1.6.5 5.8 1.5 2.9 2.3 6.4 2.4 10.1.2 5 .6 6.1 3 8 1.5 1.2 3.3 3.4 3.9 4.9.7 1.6 5.9 6.3 12.6 11.4 6.3 4.8 14.2 11.1 17.5 14 6.8 5.9 8.6 7 13.4 7.9 4.1.7 6.1 2.2 6.1 4.5 0 1 1.4 3 3 4.6 1.7 1.6 2.8 3.5 2.5 4.3s2.5 5 6.7 10c14.6 17.4 26.1 34.1 34.3 49.9 2.6 5.1 4.9 9.3 5.1 9.3s.4-71.1.4-158V0H0z"/><path d="M176 141.1c-11.4 1.2-17.5 3.1-29.2 9-11.9 6-17.2 7.4-30.5 8.4l-10.3.7-1.1 4.2c-4.3 15.9-6 33.8-10.1 105.9-2.1 38.7 1.7 72.5 11.8 103.9l3.5 10.8h176.7l3.7-9.5c2-5.4 7.1-15 11.7-22.2 13.8-21.9 14.8-23.7 16.5-29.2 1.2-4.4 1.4-8.1.8-20-.5-11.1-.3-17.7 1-27.2l1.6-12.6-2.7-4.9c-2.6-4.8-2.6-5.2-2-18.4.4-9.6.3-13-.5-11.8-1.3 2.2-2.9 2.3-2.9.2 0-1.4-.3-1.4-1.5-.4-2 1.7-2-.6-.1-5.7.8-2.1 2.2-7 3.2-10.8q2.85-12 6-13.2c2-.7 1.8-4.7-.4-6.6-1-1-4.1-2.4-6.8-3.2-2.8-.8-6.2-2.7-7.6-4.2-2.4-2.6-6.8-13.3-6.8-16.7 0-3.5-42.1-17.7-66.8-22.6-19.5-3.8-43.2-5.4-57.2-3.9m224.7 81.6c-.4.3.2 1.2 1.3 2s2 2 2 2.6c0 .7 1 2.1 2.1 3.1 1.9 1.6 2.1 2.5 1.6 7.6-.5 5.3-.3 6 2.2 8.4 2.4 2.3 2.8 2.4 5.6 1.1 1.7-.8 5-2.1 7.5-2.8s4.5-1.8 4.5-2.4c0-1.2-12.6-11.6-20.7-17.1-5.1-3.5-5.2-3.5-6.1-2.5m50.1 46c-.9 1-1.9 3.2-2.2 4.9-.4 1.8-2 4.9-3.6 7-1.9 2.6-3 5.1-3 7.4 0 8.1-6.5 12.8-15.1 10.9-6.8-1.6-9-3.2-21.2-15.8-7.1-7.4-11.9-11.6-12.3-11-.4.7-3.7 7.1-7.3 14.3l-6.6 13.1-.3 13.2c-.3 10.6 0 15.2 1.7 23 2.4 11.5 5.7 31.9 6.7 41.5l.6 6.8H512v-8.1c0-7.3-.5-9.5-4.6-20.3-12.2-32.2-21.9-50.2-39.3-72.6-8.7-11.2-13.1-16-14.6-16-.6 0-1.9.8-2.7 1.7"/></svg>