<svg xmlns="http://www.w3.org/2000/svg" width="682.667" height="512" version="1.0" viewBox="0 0 512 384"><path d="M0 192v192h36c19.8 0 36-.2 36-.5s-2.2-4.9-4.9-10.3c-11.9-23.9-19.2-48.6-24.2-82-4.8-32.5-6.7-68.1-5-93.8 1.2-18.1 3.7-42.6 4.6-45.9.5-1.7-.3-2.5-4.1-4.3-10.5-5.1-14.4-9.9-14.4-17.5 0-3.3.7-5.4 3-8.5 5-6.9 16.9-12.3 22.4-10.2 4.5 1.7 3.1 6.4-3.8 13.4-1.9 1.9-1.9 1.9.3 2.8 2.2.8 21 3.2 46.1 5.9 6.3.7 18.7 1.3 27.5 1.3 17.1 0 15.4.4 35.4-6.8 21.4-7.8 60.3-7.3 98 1 9 2 33 9.1 40.5 12 .7.3 2.6-1.5 4.4-3.8 1.8-2.4 5.2-5.7 7.6-7.3 4-2.7 4.8-3.9 7.5-11.5 1.7-4.7 3.3-10.5 3.7-13 1.5-10.4 4.8-13.3 24.9-22 11.6-5.1 25-7.6 32.2-6 5.3 1.2 9.6 4.2 16.5 11.4l4.6 4.8 6.4-1.1c10.5-1.8 19.5-1.4 23.4 1 2 1.2 3.4 2.9 3.4 4 0 2.8-7.7 10.1-15.4 14.5-3.6 2.1-6.6 4.3-6.6 5 0 .6 1.3 4.2 2.8 8 1.6 3.8 3.2 8.2 3.6 9.9.4 1.6 1 3.9 1.3 5 .5 1.8.4 1.9-1.2.5s-1.7-1.3-1.1.8c.4 1.2.3 2.2-.1 2.2-.5 0-1.6 1.5-2.5 3.3-1.2 2.5-3.1 3.9-9.2 6.6-8.3 3.8-9 5-5.4 9.6l2.2 2.8-2.2 1.8c-1.2.9-2.8 1.9-3.5 2.2-.9.3-.8 1.2.4 3.8.9 1.9 2 5 2.4 6.9.8 3.6 4.7 7.8 10 10.6 3.6 1.9 6.4 5.3 6.5 7.5 0 .9.6 1.9 1.3 2.2 2.1.8 25.9 18.8 30.7 23.2 3.7 3.4 5.2 4.2 8.9 4.3 4.7.1 8.1 2.3 8.1 5.2 0 1 1.1 2.5 2.5 3.4 1.5 1 2.5 2.6 2.5 4 0 1.3.7 2.9 1.6 3.6.8.8 2.1 2.7 2.9 4.4s3.5 5.3 6.1 8.1c9.3 9.8 21 26.9 31.1 45.5l6.3 11.5V0H0z"/><path d="M171.8 142c-7.5 1.3-14.6 3.9-25.1 9.2-11.5 5.7-17.8 7.5-29.9 8.4-10.6.8-9.8-.2-12.7 16.9-3.6 21.5-6.7 85-5.8 118.5.9 30.4 4.1 49.9 12.3 75.2l4.5 13.8h167.5l1.8-5.7c3.4-10.9 7.4-19 16.7-33.9 15-24.2 14.5-22.4 14.1-45.4-.2-12.6.2-24.1 1.2-32.5.8-7.2 1.5-19.5 1.5-27.3v-14.4l-2 2.6c-2.3 2.9-4.3 2.6-3.4-.5.4-1.1.2-1.9-.4-1.9s-1.1.8-1.2 1.7c0 1.1-.3 1.3-.6.5-.2-.6-1.1-1.2-1.9-1.2-1.7 0-1.8.4.5-7.1 1.1-3.5 2.2-8 2.6-9.9 1-5.6 2.6-9.3 5.3-12.2 1.3-1.4 2.2-3 1.9-3.5-.3-.4-3.6-2.3-7.4-4.1-11.3-5.6-11.7-5.9-14.1-10.5-1.3-2.4-2.7-7-3.1-10.1s-1.2-6.1-1.7-6.6c-3.2-3.1-43.1-14.6-62.9-18.1-13.2-2.3-49-3.5-57.7-1.9m228.7 77c-.4.7.2 2.2 1.4 3.4 2.7 2.9 2.6 4.6-.4 10.6-3.4 6.6-3.1 8.7 1.5 13.9l4 4.4 3.3-3.6c2.3-2.4 5.2-4.1 9.3-5.3 5.4-1.6 9.4-3.9 8.3-4.7-.2-.2-3.3-2.6-6.9-5.3-13.4-10.3-19.8-14.5-20.5-13.4m51.3 44.1c-1 .5-2.2 2.7-2.8 4.8-1.5 5.7-5 10.3-9.9 13-3.4 1.8-4.8 3.5-6.6 7.6-2.9 6.6-6.5 9.5-11.6 9.5-7.4 0-11.3-2.6-23.3-15.3l-11.4-12-4.2 8.4c-10.1 19.9-11 28.6-6 54.2 3.8 19.9 5.7 31.6 6.5 40.2.4 3.8.9 7.8 1.1 8.7.5 1.7 4.4 1.8 64.5 1.8H512v-21.7l-7-17.4c-12.6-31.1-22-47.7-38.7-68.4-10.5-13-12.3-14.6-14.5-13.4"/></svg>