<svg xmlns="http://www.w3.org/2000/svg" width="682.667" height="512" version="1.0" viewBox="0 0 512 384"><path d="M0 192v192h77.9l-6-11.4c-3.3-6.3-7.1-14.3-8.5-17.8C44.6 307.9 36.1 236.5 42 174.2c1.2-12.9 2-23.5 1.8-23.7-.2-.1-2.6-1.4-5.4-2.8-5.7-2.9-12-9.3-13-13.3-1.7-6.7 4.8-15.7 14.4-20 6.3-2.9 10.3-3 12.6-.5 2.1 2.3 1.1 5.3-3.4 10.5l-3.2 3.6 2.4.9c1.9.7 14.9 2.1 51.8 5.6 10.1 1 31.4.6 37-.6 3-.6 9.4-2.7 14.3-4.6 13.6-5.2 20.3-6.4 41.3-7 29.9-.9 61.6 3.9 89.2 13.3l7.3 2.6 4.2-4.4c2.3-2.5 5.4-5.3 6.9-6.4 3-2.2 7.2-13.6 8.3-23 .4-3.2 1.3-7.1 2.1-8.5 1.5-3 8.3-8.8 12.8-10.8 1.7-.8 5.4-2.5 8.1-3.9 8.2-4 18.5-7.2 25.5-7.8 8.6-.8 13.1 1.1 22.3 9.6l6.7 6.2 7.1-1.6c14.2-3.2 24.9-1.5 24.9 3.9 0 2.7-7.1 9.6-15.3 14.8-6.4 4.1-6.5 5-2.6 12.8 2.4 4.8 5.9 14.1 5.9 15.6 0 .6-.9 1-2 .8-1.6-.3-2 .2-2 2.4 0 3-3.6 8.5-5 7.6-.5-.3-1.1-.1-1.4.4-.4.5-2.6 1.9-5.1 3.1-5.2 2.5-5.7 4.5-2.3 9 2.1 3 2.1 3 .2 4.5-1 .8-2.4 1.5-3.1 1.5s-1.7.9-2.3 2c-1.4 2.7.6 9.8 3.1 10.5.9.3 2 1.2 2.2 2 .3.7 2.5 2.2 4.9 3.3 2.4 1 5.2 2.9 6.2 4.1 1.1 1.1 2.4 2.1 3.1 2.1 1.6 0 5.5 4.3 5.5 6.2 0 .8 4.1 4.4 9.2 7.9 5 3.5 13.2 9.6 18.1 13.6 7.9 6.2 9.4 7.1 12.2 6.6 3.6-.6 9.5 2 9.5 4.1 0 .7 1.3 2.7 3 4.4 1.6 1.8 3 4 3 5s.5 2.3 1.2 3 2.1 3 3.3 5.1c1.1 2.2 5.7 8.5 10.3 14.1 11.5 14.1 19.5 26.2 27.4 41.5l6.7 13 .1-156.3V0H0z"/><path d="M176.5 141.4c-11.3 1.6-14.5 2.6-27.5 9.1-15.4 7.7-21.7 9.5-32.8 9.5-3.1 0-6.3.4-6.9.8-1.8 1.1-5.1 21.9-6.5 39.7-.6 8.2-1.1 37-1.2 64-.1 42.7.1 50.4 1.7 60.2 3 18.5 9.4 42.5 14.7 54.9l1.9 4.4h157.8l2.2-8.3c3-11 8.5-22.4 18.1-37.7 13-20.6 12.4-18.4 12.5-47 .1-13.5.7-29 1.3-34.5.7-5.5 1.5-14.8 1.8-20.6.6-9 .4-11-1-13-1.3-1.9-1.6-2-1.6-.6 0 .9-.4 1.7-.8 1.7-.5 0-1.4 1-2 2.2-1 2.2-1.1 2.1-1.1-1-.1-2.9-.9-3.7-3.3-3.3-1.1.1-1.1.2 1.2-6.9 1.1-3.4 2-7 2-8 0-2.6 3.1-11.3 4.8-13.3 1.8-2 1.9-1.9-3.8-4.6-12-5.7-14.4-7.6-17.2-13.2-1.7-3.2-3.1-7.9-3.4-11.6l-.7-6.1-10.6-3.6c-20.8-6.8-39.7-10.9-61.6-13.1-16.5-1.7-25.8-1.7-38-.1m224.8 76.4c1.5 1.5 2.7 3.5 2.7 4.3 0 .7-2.3 5.8-5 11.2l-5 9.8 5.2 6.5c2.8 3.5 5.3 6.4 5.5 6.4.1 0 .8-1.9 1.4-4.3 1.6-6.5 5.7-10.6 13.1-13.1 4.1-1.4 6.3-2.7 6.3-3.8 0-1.7-7-7.6-17.8-15.1-7.6-5.3-10.4-6.1-6.4-1.9m49 41c-.7.4-1.7 3.1-2.4 6.1-1.4 6.5-5.5 10.9-12.8 13.5-5.7 2-7.6 3.5-13.3 10.7-5.2 6.5-8.1 7.5-15.5 5.4-5.2-1.5-6.7-2.5-14.9-11.2l-9.1-9.6-3.4 13.9c-3.3 13.7-3.5 13.9-7.2 16.4l-3.9 2.5.5 7.5c.3 4.1 2.1 15.1 4 24.4 2 9.2 4.3 23.3 5.3 31.2l1.7 14.4H512v-24.6l-7-17c-14.8-36.1-25.6-54.2-45.3-76.7-7-7.9-7.4-8.2-9.4-6.9"/></svg>