<svg xmlns="http://www.w3.org/2000/svg" width="682.667" height="512" version="1.0" viewBox="0 0 512 384"><path d="M0 192v192h83l-3.4-5.3C60.5 348.8 48.3 303.4 43.4 244c-2.2-26-1.2-65.7 2.2-88.5.6-4 .5-4-4.3-6.4-6.7-3.2-11.8-7.5-13.3-11.1-1.8-4.4-.7-10.6 2.8-14.9 3.3-4.1 14-10.1 18.1-10.1 6.1 0 6.8 5.1 1.5 11-2 2.1-3.3 4.3-3 4.8.7 1.2 4.8 1.8 24.6 3.7 44.7 4.1 61.3 3.8 74.9-1.7 18.5-7.5 26.7-8.8 53.6-8.8 27.8 0 47.4 2.7 72.4 9.9l10.4 3 6.3-5.7c5.6-5.1 6.6-6.5 8.8-13.3 1.4-4.2 2.7-10.8 2.9-14.7.2-4.4 1-7.9 2-9.6 1.9-2.8 8.9-8.3 14-10.8 11.1-5.5 13.9-6.8 20.2-8.9 4.7-1.6 9.4-2.3 14.2-2.4 7.9 0 9.2.7 20.6 10.7l5.3 4.7 7.4-2c9.9-2.6 20.1-2.6 22.4 0 1.1 1.2 1.5 2.7 1.1 4-.8 2.5-10.6 11.4-15.7 14.3-2.4 1.4-3.8 2.9-3.8 4.1 0 1.1 2.3 6.9 5 13 2.8 6 4.8 11.2 4.5 11.5-.3.4-1.5 0-2.7-.7-2-1.3-2.1-1.2-1.6 2.7.6 4.2-1.4 7.2-4.8 7.2-.8 0-1.3.4-.9.9.4.8-2 2.1-4.5 2.5-.3 0-1.5 1.1-2.6 2.4-2.3 2.4-2.2 5.3.2 7.3 2.1 1.7 1.7 4.7-.6 5.4-2 .6-7 7.4-7 9.5 0 .5.7 1 1.5 1s2.2 1.1 3.1 2.5c.9 1.3 2.6 2.7 3.7 3.1 1.2.4 3.5 1.7 5 3 1.6 1.3 3.4 2.4 4.1 2.4s2.1.9 3.3 1.9c1.1 1.1 3.8 2.8 6.1 4 2.9 1.5 4.2 2.9 4.7 5 .4 2.1 2.2 3.9 6.3 6.6 6.7 4.5 22.8 16.5 25.9 19.4 1.7 1.6 3.5 2.1 8.1 2.1 5.8 0 9.2 1.7 9.2 4.7 0 .5 1.1 1.5 2.4 2.1 1.4.6 2.7 2.3 3.1 4 .3 1.7 1.5 3.8 2.6 4.8 1 .9 1.9 2.9 1.9 4.4 0 1.6 1.4 4.4 3.3 6.8 1.7 2.2 6 7.4 9.4 11.6 9.2 11.2 20.2 28.4 27.7 43l6.6 12.9V0H0z"/><path d="M173 141.5c-9.6 1.7-14.2 3.4-25.5 9.5-10.4 5.6-17.9 7.8-29.8 8.8l-8.2.7-1.2 5.5c-2.5 11-4.2 30.2-5.4 62-2.7 71.4 1.4 107.3 16.4 145.7l4 10.3h149.2l2.4-10c3.6-15 7.8-23.9 21.8-46.6 9-14.6 9.3-15.8 9.3-44.2 0-13.6.7-31.9 1.5-40.7 1.9-21.1 1.9-23.9 0-23.1-.8.3-1.5 0-1.5-.7s-.7-.3-1.5.7c-1.7 2.3-2.6 1.7-2.9-1.9-.1-2.3-.2-2.4-1.5-.8-1.2 1.7-1.3 1.7-.7-.2 1.2-4.2 6.7-25.1 6.9-26.4.1-.8-1.1-1.8-2.7-2.2-4.4-1.2-15.1-8.9-17.7-12.7-2.5-3.7-4.9-11.9-4.9-16.8 0-3.1-.2-3.3-7.7-5.7-17.6-5.7-31.9-8.9-50.6-11.2-14.6-1.8-39.3-1.8-49.7 0m184.2 51.2c-1 .4-.9.9.4 2.4 2.3 2.6 3.4 2.4 3.4-.6 0-2.4-1.1-2.9-3.8-1.8m40.3 19.2c-.3.5.4 1.2 1.5 1.6 1.1.3 2.5 1.5 3.1 2.6 1.3 2.6.1 6.2-6.3 19.6l-5 10.3 3.7 5c4.4 5.9 5.1 5.7 9.5-2.9 3.6-7.1 8.3-11.6 13.6-13 2.2-.6 4.8-1.9 5.8-3 1.6-1.8 1.3-2.1-7.1-8.3-13.6-10-18.1-12.9-18.8-11.9m50.2 42.8c-.3.5-.8 3-1.2 5.7-1 6.2-5 10.9-11.3 13.1-2.6.9-6.6 2.3-8.8 3.1-2.4.9-7.4 4.4-11.8 8.4-6.7 6.1-8.1 7-11.5 7-6 0-10.2-1.9-15.3-6.8-2.6-2.5-4.9-4.4-5.2-4.1-.2.2-1.1 4-1.9 8.4-2.1 10.4-4.5 12.8-12.4 12.3l-5.3-.3v6.7c0 3.8 1.3 12.5 3 20 3.9 17.7 5.6 27.7 7.1 43l1.2 12.8H512v-13.5c0-11.6-.3-14.2-2-17.5-1.1-2.1-5.4-11.9-9.5-21.7-11.6-27.2-18.1-38.7-32.3-57.3-12.9-16.8-18.7-22.3-20.5-19.3"/></svg>