<svg xmlns="http://www.w3.org/2000/svg" width="682.667" height="512" version="1.0" viewBox="0 0 512 384"><path d="M0 192v192h86l-4.2-6.8c-19.4-31.7-31-72.5-36.3-127.7-2.4-25.3-1.9-73.6 1.1-94.1l.6-4.1-4.8-1.8c-2.6-1-6.9-3.9-9.5-6.5-4.4-4.1-4.9-5.1-4.9-8.9 0-2.3.6-5.4 1.4-6.9 5.8-11 25.6-18 25.6-9 0 1-1.6 3.5-3.5 5.7-4.1 4.5-4.3 5.7-1.1 6.5 6.9 1.7 40.8 3.9 62.1 4 23 .1 24.2 0 30-2.3 25.9-10.2 35.1-11.7 67-10.8 22.2.6 38.5 2.9 57.9 8.1l9 2.4 6.8-6.1c3.8-3.4 7.1-7.1 7.3-8.2 1.9-8.3 2.5-12.2 3.1-19.6l.6-8.4 5.4-5.1C308.2 76.1 335.1 64 345 64c3.6 0 8.9 3.1 17.4 10.1l7.3 5.9 9.4-2.5c11.3-3 16.9-3.2 19.2-.7 1 1 1.7 2.6 1.7 3.6 0 2.1-7.9 9.8-14.7 14.3l-5.1 3.5 1.8 5.1c1 2.9 3.4 8.1 5.4 11.7 4.1 7.6 4.3 8.4 1.6 7.5-1.8-.6-2-.2-2 3.4 0 4.6-.9 7.3-2.1 6.5-.5-.3-.9 0-.9.6s-.4.9-.9.6-1.4.1-2.1.9-1.8 1.5-2.4 1.5c-1.8.1-5.6 3.7-5.6 5.3 0 .8.9 2.6 2 4 2.7 3.4 2.5 4.2-1 6.7-1.6 1.2-3 2.7-3 3.4s-1.1 2.6-2.4 4.1c-1.4 1.7-2.4 4-2.4 5.7.1 2.8 1.2 3.7 2.3 1.8 1.1-1.8 6.4-1.1 7.5.9.5 1.1 2 2.3 3.2 2.7 1.3.4 3.4 1.6 4.8 2.6 1.4 1.1 3.9 2.6 5.5 3.4 8.6 4 12.6 7.4 13.9 11.6.2.9 5.1 4.8 10.8 8.6 5.7 3.9 13.1 9.3 16.5 12.1 6.1 4.9 6.2 5 11.6 4.4 4.6-.5 5.7-.3 7.3 1.5 3.2 3.5 4.3 4.6 6.4 6.6 1.1 1.1 2 2.7 2 3.5 0 .9.9 2.2 2 2.9s2 2.3 2 3.6c0 4.4 1.9 7.7 10.1 17.5 11.6 14 22.1 30.1 31.6 48.4l8.2 16.2.1-156.8V0H0z"/><path d="M174.4 140.4c-10.5 2-13.7 3.2-25.9 9.6-12.9 6.8-15.6 7.7-29 9.3l-10 1.2-1.7 10c-1 5.5-2.2 18.8-2.9 29.5-1.6 28.2-1.7 87.7-.1 103.5 2.5 24.7 8.5 49.7 16.9 70.5l3.9 9.5 70.5.3 70.5.2 1.4-6.7c3.3-17.2 9.3-32.2 18.6-46.8 13.7-21.6 15.7-27.5 14.4-43.7-.9-10.2.1-39.7 2-61.3 1.3-14.5 1.3-14.3-.5-11.9-1.2 1.5-1.6 1.6-2.3.6-.7-1.1-1.1-1-1.7.5-.6 1.4-1 1-1.6-2.2-.7-4.1 1-14.3 3.8-21.9 1.5-4.1.8-5.5-2.5-5.6-2.2 0-8.5-3.7-13-7.5-6.2-5.3-9.1-11-9.7-18.6-.3-3.5-.8-6.6-1.3-7-1.3-1.4-27.3-7.8-40.2-10-16-2.7-48.9-3.5-59.6-1.5m176.1 46.5c-.7 1.2 7 9.9 7.9 9 .3-.3.2-2.5-.2-5-.7-4-1-4.4-3.9-4.7-1.7-.2-3.4.2-3.8.7m44.5 21.8c0 .5 1.4 1.6 3.1 2.6 2.9 1.6 3.1 2 2.4 5.5-.3 2-3 9.1-5.9 15.7s-5.6 13-6 14.2c-.8 2.6.8 6.3 2.8 6.3 1.8 0 6.7-4.8 10.5-10.3 4-5.9 9.7-10.5 13.8-11.3 1.7-.3 4-1.5 5-2.6 1.7-1.9 1.7-2.1-1.2-4.4-3.9-3.2-23.2-16.4-23.9-16.4-.3 0-.6.3-.6.7m50.2 41.5c-.5.7-1.3 3.5-1.7 6.2-.3 2.7-1.1 5.9-1.7 7.1-1.4 3.1-6.9 6-16.3 8.5-8.7 2.3-10.7 3.4-21 11-7.8 5.7-11.8 6.4-18.7 3-4.4-2.1-5.7-1.6-5.8 2.1 0 3.5-2.2 7.7-4.6 8.8-3.5 1.5-9.8 1.4-14.1-.4-1.9-.8-3.7-1.5-3.9-1.5-1.5 0 .3 14.7 3.6 30.4 4.4 20.5 6.5 33.9 7.6 48.9l.7 9.7H512v-14.1c0-13-.2-14.3-2.4-18.2-1.3-2.3-5.9-12.1-10.1-21.7-15.3-34.7-24.7-50.6-41-68.9C447 248 447 248 445.2 250.2"/></svg>