<svg xmlns="http://www.w3.org/2000/svg" width="682.667" height="512" version="1.0" viewBox="0 0 512 384"><path d="M0 192v192h88.2l-1.6-2.2c-7.1-9.9-16-27.6-21.6-42.8-17.8-48.5-25.3-122.4-18.5-183.1l.5-4.5-5.8-2.7c-11.6-5.4-15.6-13-11.3-21.5 4.3-8.4 19.7-16.2 23.9-12 2.1 2.1 1.3 4.7-2.9 9.3-3.8 4.1-3.9 4.4-2 5.4 3.5 1.9 43.2 4.3 65.1 3.9 19.5-.4 20.8-.5 27.3-3.1 21.6-8.7 27.1-10 46.7-11.6 18.4-1.4 46.3.9 66.5 5.5l7 1.6 7.6-7.5c7.5-7.4 7.7-7.7 8.8-14.4.6-3.7 1.3-10.6 1.4-15.2l.3-8.5 6.1-5.5c3.3-3.1 8.7-7 11.9-8.6 3.3-1.7 6.1-3.2 6.4-3.6 1.9-2.1 21.8-8.9 26.1-8.9 2.7 0 10.8 4.9 19.4 11.9l5.1 4 7.8-2.4c11.5-3.6 16.1-4.1 19.1-2.1 1.4.9 2.5 2.3 2.5 3.1 0 2.3-5.7 8.2-12.7 13.2-3.4 2.4-6.3 4.8-6.3 5.2 0 2.3 2.9 8.5 7.2 15.3 2.6 4.3 4.8 8 4.8 8.3 0 .2-1.1 0-2.4-.5-2.1-.7-2.3-.6-1.9 1.1 1.3 4.8-.7 8.3-6.8 12.2-3.2 2.1-5.9 4.3-5.9 4.9 0 .5 1.1 2.3 2.5 4 3.2 3.7 3.2 5.5 0 7-1.4.6-2.8 2.3-3.2 3.7-.3 1.4-1.4 3.4-2.4 4.3-1 1-2.1 3.5-2.4 5.5-.3 2.1-.8 4.6-1 5.6-.2 1.2.8 2.3 3.5 3.7 3.3 1.7 4 1.8 5 .5 1.8-2.1 5.4-1.8 7.6.6 1 1.1 3.2 2.7 4.9 3.5 1.6.8 4.8 2.5 7 3.8 13.1 7.6 14 8.3 14.3 10.7.3 1.8 3.3 4.4 12.5 10.7 6.7 4.5 14.1 9.7 16.4 11.4 4.1 3 4.3 3 8.7 1.8l4.5-1.2 5.5 4.8c3.1 2.6 5.6 5.3 5.6 6s1.1 2.1 2.3 3.1c2.3 1.8 3.6 5.1 4.1 10.6.2 1.8 2.5 5.2 6.3 9.5 17.1 19.3 27.5 35.2 41.8 64.4l8.5 17.2V0H0z"/><path d="M175.5 138c-10 1.6-18.6 4.7-28 10.1-10.8 6.3-18.2 8.7-29.4 9.9-4.6.5-8.8 1.4-9.1 2.1-1.1 1.7-2.9 13.8-4.1 27.9-1.6 18.8-1.7 94.7-.1 110.5 3 29.9 8.2 51.2 18.4 75.7l4 9.8h63.4c59.4 0 63.3-.1 63.8-1.8.3-.9 1.5-6.4 2.6-12.2 4.4-23 8.9-34.4 21.5-54.5 3.7-5.9 7.9-13.3 9.4-16.4l2.6-5.6-.3-22.5c-.3-14.4.2-30.8 1.3-45.4.9-12.5 1.4-23.1 1.1-23.4s-1.5.3-2.6 1.3c-1.9 1.8-2 1.7-2.1-.1 0-1.8-.1-1.8-.9.1-1.3 2.9-1.2-.2 0-4.5.6-1.9 1.7-6.7 2.6-10.5.8-3.9 1.7-7.8 2-8.8.4-1.3-.1-1.7-2.1-1.7-6.3 0-18.7-8.8-23.6-16.7-1.8-2.9-2.7-6.9-2.8-12.9-.1-1.9-1.3-2.5-8.8-4.3-20.4-5-30.2-6.2-51.8-6.6-11.5-.2-23.7 0-27 .5m164.1 39.9c1 1.8 3.8 5.4 6.1 8.1 2.4 2.6 3.8 5 3.2 5.2-.8.3-.7 1.4.5 3.6s2.4 3.2 4 3.2c2.4 0 2.4-.1 1.1-3.8-.8-2-1.7-5.8-2-8.5-.6-4.4-.9-4.9-5.3-7.1-2.6-1.3-5.8-2.7-7.1-3.1l-2.3-.7zm48.9 25.1c-.9 1.5 1.1 3.7 4.2 4.5 2.3.5 2.5.9 1.9 4.3-.3 2-3.8 10-7.7 17.7-4.1 8.1-6.6 14.1-6 14.3 1.7.6 8.9-4.1 15.9-10.3 6.6-5.7 11-8.5 13.6-8.5 1.8 0 5-4.5 4.2-5.8-.6-1-24.1-17.2-25-17.2-.2 0-.8.5-1.1 1m49.3 39.7c-.9 1-1.9 4.5-2.3 7.8s-1.2 6.8-1.7 7.8c-1.3 2.5-8.1 5.4-14.8 6.2-9.9 1.2-16.8 3.5-27.9 9-8.4 4.3-11.9 5.5-15.4 5.5-4.2 0-4.6.2-5.2 2.9-1.5 7-9.7 9-19 4.7l-5.7-2.6.7 8.3c.4 4.5 2.5 16.3 4.6 26.3 3.3 15.5 5.3 29.5 8.5 59.6l.6 5.8H512v-29l-3.6-5c-3.6-5-13.6-24.6-20.9-41-10.4-23.3-23.3-42.5-40.5-60.3-7.2-7.5-7.6-7.8-9.2-6"/></svg>