<svg xmlns="http://www.w3.org/2000/svg" width="682.667" height="512" version="1.0" viewBox="0 0 512 384"><path d="M0 192v192h87l-4.5-7c-18.7-29.1-30.4-68.6-37.1-125-2.4-20.6-2.9-60.8-1-82.4 1.5-16.8 1.5-19.1-.2-19.1-2.1 0-12.4-6.9-14.6-9.8-3.1-4.1-3.3-7.4-.6-13.2 3.9-8.5 19.5-16.6 23.8-12.3 2 2 1.4 4.4-2.4 9.4-2.6 3.4-3.2 4.9-2.4 5.4 3 1.8 49.2 4.4 67.4 3.7 16.5-.6 18.7-1.1 32.3-6.8 16.4-7.1 24.1-8.3 52.8-8.3 21.7 0 26.8.3 38.4 2.3 7.4 1.3 14.6 2.7 15.9 3.2 1.9.7 2.3.6 1.9-.5-.7-1.8 3.4-7.3 9.5-12.6l4.6-4 .7-8.3c.4-4.5.8-11.1.9-14.7.2-5.1.7-7.3 2.6-9.8 3.1-4.2 11.6-10.3 21.8-15.7 11.8-6.3 18.4-8.5 25-8.5 5.5 0 6 .3 15.8 7.5l10.1 7.4 7.3-2.5c22.8-8 28.2-.9 9.9 12.8-6.6 4.8-7 5.4-6.5 8.2.7 3.5 4.2 9.6 9.1 16l3.5 4.6h-2.6c-2.3 0-2.6.3-2.1 2.7.5 2.8-.7 6.3-2.2 6.3-.4 0-2.5 1.6-4.5 3.5-2.1 1.9-4.2 3.5-4.7 3.5-1.7 0-.9 3.1 1.8 6.6l2.7 3.6-3.2 2.9c-1.8 1.7-3.2 3.7-3.2 4.5s-.6 2.5-1.4 3.7-1.7 4.8-2 7.9-.7 6.2-.8 6.9c-.2.7 1.4 2.2 3.4 3.3 3.2 1.8 4.1 1.9 5.8.8 2.7-1.6 5.5-1.5 7 .4.8.8 3 2.3 4.9 3.3 2 1 7.8 4.2 12.9 7.2 7.1 4.1 9.2 5.8 9.2 7.5 0 1.5 2.3 3.6 8.8 7.9 4.8 3.2 12 8.2 16 11.2 6.8 5.1 7.5 5.4 10.4 4.4 4.8-1.7 7.5-1.3 9.6 1.4 1.1 1.3 3.1 3 4.6 3.6 1.4.7 2.6 1.8 2.6 2.6 0 .7 1.4 2.5 3.1 4 1.7 1.6 2.8 3.4 2.6 4.3s.1 2.4.8 3.4c.7.9 1.1 2.6.8 3.6-.4 1.4 1.4 4.2 6.4 9.7 18.5 20.8 27.5 34.6 43.7 67 5.3 10.6 9.8 19.3 10.1 19.3s.5-72.2.5-160.5V0H0z"/><path d="M266 126c0 .5.5 1 1.1 1 .5 0 .7-.5.4-1-.3-.6-.8-1-1.1-1-.2 0-.4.4-.4 1m-92.5 11.1c-9.4 1.4-15.7 3.7-27 10-12.9 7.2-17.4 8.7-29.5 10.2l-9.5 1.2-1.2 7c-2.6 15.5-3.3 31.1-3.3 75 0 45.1.6 58.1 3.5 77.9 2.7 18.2 9.7 42.2 17 58.2l3.4 7.4h121l.7-3.7c.3-2.1 1.9-10.1 3.5-17.8 5-23.8 8.3-32 21.5-53.1 12.9-20.4 12.4-18.2 12.4-57.6 0-18.3.5-38.2 1-44.2.6-6 .8-11.1.5-11.4s-1.3.2-2.2 1c-3.7 3.1-4 2.9-3.2-2.5.4-2.9 1.4-7.5 2.2-10.2 3.1-10.3 3.1-10.5-.1-10.5-4.5 0-13-4.8-18.8-10.8-5.4-5.6-7.4-9.8-7.4-15.9 0-3.6.7-3.3-13.5-6.3-21.4-4.6-54.1-6.3-71-3.9M334 172.6c0 .3 1.5 2.4 3.4 4.6s4.2 5.7 5.1 7.7c2.9 6.2 5.9 10.1 7.9 10.1 1.3 0 1.6-.4 1.1-1.8-.4-.9-1.3-4.5-2-8s-1.4-6.5-1.6-6.6c-.7-.6-12.8-6.6-13.4-6.6-.3 0-.5.3-.5.6m50 28.4c-.9 1.7-.5 2.2 3 4 6 3.1 5.6 4.6-5.7 23.7-3 5.1-5.3 9.7-5.1 10.2.5 1.6 9.6-3 17.1-8.8 3.7-2.9 8.7-6 11.2-7.1 3.6-1.5 6.5-4.3 6.5-6.3 0-.5-20.7-15-23.7-16.6-1.9-.9-2.4-.8-3.3.9m49.3 39.3c-1.4 1.5-2.2 4.1-2.6 8.5-.3 3.8-1.2 7.1-2.2 8.2-2 2.2-7.5 3.7-19.1 5-10.1 1.1-16 2.9-29.5 9-7.1 3.2-9.8 3.9-12.3 3.4-3.1-.5-3.4-.3-4.5 2.7-1.9 5.4-3.8 6.9-9.3 6.9-2.7 0-6.5-.7-8.5-1.5-1.9-.8-3.8-1.5-4.1-1.5-1.2 0 .9 15.1 4.6 32.5 3.6 16.8 6.6 38.5 8.8 62.7l.7 7.8H512v-29.2l-4.3-5.6c-7.2-9.5-10.2-14.9-19.2-34.2-4.7-10.2-11.1-23-14.2-28.4-8.6-15.3-26.3-37.7-36.9-46.8-2-1.7-2.1-1.7-4.1.5"/></svg>