<svg xmlns="http://www.w3.org/2000/svg" width="682.667" height="512" version="1.0" viewBox="0 0 512 384"><path d="M0 192v192h84l-4.1-6.3c-6.2-9.5-15.3-28.9-19.9-42.2-7.7-22.3-13.6-50.3-17.6-83.5-2-16.2-2.6-66.4-1-89.1l.8-12.6-5.1-2.2C29.7 145 24 139 24 134.5c0-7.9 8.2-16.9 17.6-19.5 9-2.5 11.4 2.6 4.8 10l-3.6 4 2.5.9c4.1 1.6 43.4 3.4 62.5 2.9s19.2-.6 37.3-8.1c11.1-4.7 19-6.4 37.9-7.9 13.3-1 18.1-.9 33 .5 9.6.8 21.4 2.4 26.2 3.3 8.5 1.7 8.9 1.7 12.3-.2 5.3-2.8 4.5-4.8-1.5-3.5-3.9.9-9-1-9-3.3 0-.7 3.2-4.4 7.2-8.2l7.2-6.9.4-14c.4-12.4.7-14.5 2.7-18.1 2.8-4.9 13.2-12.3 26.1-18.8 10.2-5.1 15.1-6.6 21.4-6.6 4.9 0 5.2.2 17.2 9.1l7.6 5.7 8.4-2.9c9.1-3.2 16.8-3.8 18.8-1.4 1.9 2.3-1.9 7.5-10 13.7-3.9 2.9-7 5.9-7 6.6 0 2.1 2.9 7.2 7.7 13.5 4.2 5.6 4.7 7.7 1.8 7.7-1.1 0-1.2.6-.6 2.2.5 1.5.3 3.4-.5 5.3-.7 1.6-1.3 2.6-1.4 2.1 0-.5-1.1.2-2.4 1.5s-3.5 3.2-5 4.2c-3.3 2.3-3.3 3 .4 6.8 2.4 2.6 2.8 3.5 1.9 5.1-.6 1-1.6 2.1-2.4 2.4-1.4.6-3 6.5-2.6 10.1.4 3.4-1.9 13.5-3.6 16.2-1.8 2.8-1.4 3.2 5.8 6.4 5.3 2.3 5.8 2.4 7.3.8 1.6-1.5 1.9-1.5 4.9.3 1.8 1 4.8 2.8 6.7 3.9s6.9 3.8 11 6c9.3 4.9 10 5.4 10 8.1 0 1.6 2.6 3.7 10.1 8.5 5.5 3.5 12.6 8.3 15.8 10.7 5.7 4.3 6 4.4 8.7 2.9 4.2-2.2 7.1-1.9 9 1 .9 1.4 2.5 2.5 3.6 2.5s2.6 1.3 3.6 3c.9 1.6 2.7 3.5 3.9 4.1 1.6.8 2.3 2.2 2.3 4 0 1.5.5 3.1 1.1 3.5.6.3.9 1.9.5 3.5-.5 2.5.4 3.9 7.8 11.8 16.6 17.8 28.4 35.3 44.7 66.5 5.7 10.9 12.1 21.7 14.1 24l3.7 4.1.1-162.3V0H0z"/><path d="M175 134.6c-13.7 1.7-23.4 5.2-39.5 14.4-6.7 3.8-13.3 5.7-26.5 7.7l-5.5.8-1.8 11.5c-1.4 9.1-1.9 20.2-2.4 54-1 80.3 3.7 113.3 22.4 155.2l2.6 5.8h54.8c30.1 0 55-.4 55.3-.9.3-.4 2.8-11.1 5.6-23.6 7.3-32.2 9.4-37.8 22.6-58.3 4.1-6.5 8.9-14.6 10.7-18.2l3.2-6.5-.3-37c-.1-20.3.2-41.1.7-46 .9-8.6.1-13.2-1.4-8.4-.4 1.2-1.6 3.2-2.6 4.3-1.9 2-1.9 2-1.9-.5 0-1.3 1.1-6.6 2.5-11.7s2.5-9.7 2.5-10.2c0-.4-1.7-1.1-3.7-1.5-2.1-.4-6-1.8-8.6-3.3-5.8-3.1-14.5-12.3-15.3-16-1.2-6.1-1.2-6.1-19.9-9.3-11.6-2-44.4-3.4-53.5-2.3m155.8 37.7c1.2 1.3 2.2 2.7 2.2 3.1 0 1.1 8.3 12.6 9.2 12.6.8 0 .3-3.6-1.3-10-.7-2.9-1.7-4-5.4-5.8-5.8-2.8-7.4-2.8-4.7.1m44.5 24.7c-1.1 1.7-.8 2.3 3.2 5.1l4.4 3.2-1.9 3.6c-1 2.1-3.9 6.4-6.4 9.7-2.6 3.2-6 7.8-7.6 10.1l-3 4.2 5.1-1.5c8.5-2.6 30.2-14.2 32.1-17.3l1.8-2.7-12.3-8.2c-6.7-4.5-12.7-8.2-13.2-8.2-.6 0-1.6.9-2.2 2m48.6 38.3c-2.3 1.9-2.7 3.2-3.2 9.1-.3 4-1.1 7.4-2 8.3-2.1 2.2-8.1 3.2-18.2 3.3-10.5 0-18.3 1.5-33.5 6.5-9.4 3-11.7 3.4-14.6 2.6-3.5-1-3.5-.9-5.3 3.2-2.4 5.6-4.2 6.9-9.3 6.7-2.4-.1-4.8-.1-5.5-.1-1.8.1-.8 8.4 3.1 27.3 3.3 15.5 5.5 31 9.1 63.3.8 7.7 1.8 15 2.1 16.2l.6 2.3H512v-29.3l-6.6-6.9c-8.8-9.4-13.3-16.7-26.4-42.9-15.4-31-26.4-46.9-46.6-67.7-2.3-2.3-4.5-4.2-5-4.2-.5.1-2.1 1.1-3.5 2.3"/></svg>