<svg xmlns="http://www.w3.org/2000/svg" width="682.667" height="512" version="1.0" viewBox="0 0 512 384"><path d="M0 192v192h38c20.9 0 38-.2 38-.4s-1.6-2.8-3.6-5.7c-6.1-9.1-17-32.7-21.8-47.4C33.7 278.9 27.1 211 33.3 153.8c.1-1.1-2.1-2.8-7.3-5.5-6.5-3.3-7.8-4.4-9.8-8.4-2.2-4.4-2.2-4.9-.9-8.2 3.6-8.4 14.1-16.1 21.4-15.5 3.3.3 3.8.7 4.1 3 .2 1.9-.7 3.8-3.4 6.8-2.4 2.6-3.4 4.4-2.7 5.1 1.3 1.3 52.4 3.2 65.3 2.5 13-.8 21.3-2.7 29-6.6 15.7-7.9 32-11 59-11 16.1 0 39.5 2 42.1 3.6 1.4.8 12.1-10.3 11.7-12.2-.3-1.7-.4-1.7-6.3-.8-3.4.5-5.1.2-7-1-2.5-1.7-2.5-1.7-.8-4.8 1-1.6 4.3-5 7.5-7.5 6.3-5 6.7-6 6.8-15.3.1-3.6.4-9.6.9-13.4.7-6.8.8-7 6.7-12.5 9.7-9.1 31.5-19.2 41.6-19.4 6.4 0 7.6.6 18.4 9.5 7 5.7 9.1 6.7 11 4.9.5-.5 5.1-1.8 10.2-3 6.9-1.6 9.7-1.9 11.2-1.1 4.4 2.3 1.2 7.3-10.5 16.1-3 2.3-5.5 4.3-5.5 4.6 0 1.2 2.9 5.5 7.8 11.7 3.1 3.8 4.8 6.7 4 6.3-1.8-.6-3.1 1.5-2.2 3.6.2.7-.2 2.9-1 4.8s-1.5 3-1.6 2.6c0-1.3-3 2-3 3.3 0 .6-.5.8-1 .5-1.1-.7-4.9 3.3-5 5.2 0 .6 1.5 2.3 3.2 3.7l3.3 2.5-2.7 2.8c-2.4 2.5-2.9 4.2-4.1 14.7-1.6 12.5-3 15.9-7.8 18.3-2.3 1.2-2.3 1.2 1.6 2.8 2.2.9 7.1 3 10.8 4.7 5.1 2.4 7 2.9 7.9 2 1.8-1.8 4.8-1.4 8.7 1.1 6.3 4 7.5 4.6 14.1 7.7 9.1 4.2 9.4 4.4 10 7.3.4 2 2.8 4.1 10.5 9 5.6 3.5 12.4 8 15.3 10.1 4.9 3.4 5.4 3.6 7.5 2.1 2.9-2.1 6.3-1.9 8.7.5 1.1 1.1 3.1 2.2 4.5 2.6 1.5.4 2.8 1.6 3.1 2.9.3 1.4 1.6 2.6 3 2.9 1.7.5 2.4 1.3 2.4 3 0 1.3.7 2.9 1.5 3.6 1 .8 1.5 2.7 1.3 5-.1 3.2.5 4.3 4.8 8.6 14.1 13.9 25.5 28.1 36.1 44.9 5 8 7.3 12 15.3 27 10.1 18.8 14.3 24.2 19.9 25 2 .3 4.8.8 6.4 1l2.7.4V0H0z"/><path d="M164.2 134.1c-14.4 1.7-21.2 4.1-34.8 12.6-8.8 5.4-16 8-26.2 9.4-4.2.6-8 1.4-8.5 1.8-.4.4-1.4 5.7-2.2 11.7-1.8 13.2-2.1 85.7-.5 111.4 2.3 36 8.4 63.6 20.2 91.2l5 11.8h99.5l1-4.3c3.1-13 13.6-51.4 15.4-56.9 3.4-9.9 7.7-18.3 16.6-31.6 4.5-6.7 9.4-14.8 11-18 3.3-6.7 3.3-5.9 1.9-62.4-.7-29.5-1.2-36.4-2.1-35.1-.7 1-1.1 2.2-.8 2.8.2.7-.3 1.8-1.2 2.5-1.3 1.1-1.5.8-1.5-2.1 0-1.9.9-7.2 2-11.9 2.4-10.7 2.5-10-.8-10-6.6 0-20-9.4-24.7-17.3-2.7-4.6-47.2-8.2-69.3-5.6m157.4 36.1c.4.7 1.7 2.6 2.8 4.1 1.6 2.1 1.7 3 .8 3.6-1 .6-.9 1.4.4 3.9 1.6 3.3 2.8 4 3.9 2.2 1.2-1.9-1.8-12.1-3.9-13.6-2.5-1.8-5-1.9-4-.2m40 22.3c-1.5 2.2-1.5 2.5.2 3.7.9.7 2.8 2.5 4.1 4l2.3 2.7-2.2 3.3c-1.3 1.8-5.7 6.8-9.9 11-5.7 5.9-7.1 7.8-5.6 7.8 3.7 0 15.5-3.8 24.4-7.9 4.8-2.3 9.3-4.1 9.9-4.1s1.8-1.5 2.7-3.3c1.6-3.1 1.5-3.3-.9-5.2-2.7-2.1-22.2-14.5-22.9-14.5-.3 0-1.2 1.1-2.1 2.5m47.8 37.9c-2.7 2.6-3.3 4-3.7 9.5-.8 9.5-.9 9.6-19.5 9.7-16 .2-22.5 1-36.7 4.6-7.6 1.9-12.6 2-18.2.3-1.9-.6-2.6.1-5 4.4-1.8 3.2-3.8 5.4-5.5 6s-2.8 1.7-2.8 2.8c0 2.2 1.9 13.2 5.3 31.3 2.7 14.2 3.5 20.3 6.7 52 1.1 10.7 2.5 22.5 3.1 26.2l1.1 6.8H512v-15.8l-.1-15.7-5-2.3c-6.3-3-17.5-14.1-23.6-23.5-2.5-4-8.2-14.2-12.6-22.7-14-27.1-23.2-41.5-36-56.1-9.6-11-19.7-20.9-21.1-20.8-.6.1-2.5 1.5-4.2 3.3"/></svg>