<svg xmlns="http://www.w3.org/2000/svg" width="682.667" height="512" version="1.0" viewBox="0 0 512 384"><path d="M0 68.1v68.1l3.9-3.5c4-3.6 12-7.7 15.1-7.7 4.7 0 4.9 5.5.5 10.8-1.4 1.7-2.5 3.4-2.5 4 0 1.7 7.9 2.3 34.5 2.3 26.5.1 43.6-1.1 50.3-3.6 2-.7 7.8-3.2 12.7-5.5 17.8-8.3 39.5-11.7 67.7-10.7 9 .4 18.6.9 21.3 1.2 4.9.5 5.1.5 8-3.4 1.7-2.1 4.2-4.7 5.7-5.7 2.4-1.6 2.8-2.6 2.8-6.6v-4.7l-3.2 1c-5 1.4-10.5 1.1-12.2-.7-.9-.8-1.6-1.8-1.6-2 0-1.8 4.3-6.2 10.1-10.6 3.8-2.8 6.9-5.6 6.9-6.2s.5-6.4 1-13c.8-8.9 1.5-12.7 3-15.2 5.7-9.1 35.1-22.1 48-21.2 6.1.4 8.1 1.7 20 13l3.5 3.3 7-1.8c9.3-2.3 19.8-2 20.3.7.5 2.2-5.2 8.3-12.5 13.3-2.9 2-5.3 3.9-5.3 4.2s2.8 4.1 6.2 8.5c3.4 4.3 5.6 7.6 5.1 7.3-1.8-1.1-4.5.4-3.8 2.1.3.8.3 3-.1 4.9-.5 2.7-.9 3.1-2 2.2s-1.4-.8-1.4.2c0 .8-1.6 2.7-3.5 4.2-4.2 3.3-4.4 5-1 8.1 3 2.8 3.2 4.7.5 6.4-1.1.7-2 2.2-2 3.5 0 1.2-1.1 3.9-2.5 5.9-1.3 2-2.9 5.8-3.5 8.5-.6 2.6-1.2 5.8-1.5 7-.3 1.3-1.9 3.8-3.5 5.7-1.7 1.9-2.7 3.7-2.3 3.9.4.3 6.6 2.8 13.6 5.7 9.4 3.8 13.2 4.9 14 4.1 1.7-1.7 4.9-1.3 8.2.9s10.2 5.6 18.3 9.2c4.2 1.8 5.4 2.9 5.9 5.1q.6 2.85 4.2 4.8c5.1 2.8 9.6 5.6 17.9 11.1 4.1 2.6 7.8 4.8 8.3 4.8.6 0 2.4-.7 4.1-1.6 3.1-1.6 3.2-1.6 5.5 1.1 1.5 1.7 2.9 2.5 4 2.1 2.1-.8 4.3 1.1 4.3 3.9 0 1.6.6 2.1 2.3 2.1 1.7-.1 2.3.5 2.5 2.7.2 1.5 1.2 3.2 2.4 3.8 1.5.8 1.9 1.8 1.5 3.7-.5 2.4 1 4.3 11.7 15.2 20 20.5 30 34.1 49.9 67.7 4.8 8.1 9.5 15.8 10.5 16.9 2.7 3.2 7.6 5.4 12.2 5.4 5.4 0 8.4 3.2 11 11.8 3.8 12.3 1.8 23.2-4.3 23.2-3.7 0-12.2-5.6-19.3-12.7-7.7-7.7-15.7-19.5-26.9-39.9-10.2-18.5-12.4-21.9-22.7-35.5C420.4 250.8 398 227 396 227c-.6 0-2.8 1.7-5 3.8-3.5 3.2-4.1 4.5-4.8 10-1.4 9.7-1.4 9.8-20.6 9.4-14.9-.3-17.5-.1-31.9 2.8l-15.6 3.1-4.5-1.9-4.4-2-3.6 5.4c-2.2 3.2-3.6 6.6-3.6 8.4 0 3.7 1.6 14.9 3.5 24.6 2.9 14.3 4.6 28.2 6 49.3.9 11.9 2 26 2.5 31.5.6 5.4 1 10.4 1 11.2 0 1.2 14.9 1.4 98.5 1.4H512V0H0z"/><path d="M151.3 140.5c-19.4 2.5-25.9 4.7-40.4 14.2-8.1 5.1-17.6 8.7-26.3 9.8-3.1.4-6.3 1.3-7 2-2.7 2.7-3.9 25.1-3.2 57.9 1.8 81 6.6 113.2 22.4 150.8l3.7 8.8 48.4-.2 48.4-.3 4.3-13c2.3-7.2 7-21.6 10.3-32 7.5-23.5 10.1-28.9 23.5-48.8 13-19.4 14.1-22.7 13.2-37.6-.4-5.8-1.4-16.9-2.2-24.6s-1.9-19.6-2.5-26.5c-.5-6.9-1.3-14.5-1.6-17l-.5-4.5-1.6 3.5-1.6 3.5-.4-4.5c-.2-2.4.1-7.2.7-10.5.6-3.4 1.1-7.6 1.1-9.3 0-3-.2-3.2-3.8-3.2-5.3 0-15.1-5.1-20-10.4-2.2-2.4-4.5-4.7-5.1-5-1.8-1.1-22.9-3.5-36.1-4-8-.3-16.6 0-23.7.9M0 269v115h28.1c15.4 0 27.9-.3 27.7-.8-.1-.4-2.6-5-5.5-10.2C28 332.1 12.5 255.2 14.4 194c.3-11.3.9-23.2 1.2-26.5l.6-6-6-2.3c-3.3-1.3-6.6-3-7.2-3.8-.7-.7-1.6-1.4-2.1-1.4S0 203.7 0 269m302.8-95.8c.7.7 1.2 2 1.2 3.1 0 2.2 4.8 10.7 6.1 10.7 2.5 0-.3-11.3-3.4-13.5-2.7-1.9-5.7-2.1-3.9-.3m39.8 20.6c-1.3 2.5-1.2 2.9 2 6.4 1.9 2.1 3.4 4.5 3.4 5.4s-4.3 5.9-9.6 11c-5.3 5.2-9 9.4-8.3 9.4 3.4-.1 17.9-4.3 26.7-7.9 7.4-2.9 10.1-4.6 11.4-6.7.9-1.6 1.7-3.2 1.7-3.6.1-.8-7-5.5-18.6-12.4l-7.3-4.3z"/></svg>