<svg xmlns="http://www.w3.org/2000/svg" width="682.667" height="512" version="1.0" viewBox="0 0 512 384"><path d="M0 67.9v68l4.3-2.4c2.3-1.3 5.8-2.7 7.9-3 3-.6 3.8-.4 4.7 1.4 1.3 2.3.2 5-4.1 10.3-1.2 1.5-1.8 3.1-1.4 3.5.4.5 16.1.8 34.9.8 41-.1 44.5-.5 60.9-8.1 14.1-6.4 23.2-9 39.8-10.9 15-1.8 28.5-1.9 43.5-.4l11.2 1.2 5.4-5.5c3-3.1 5.9-5.7 6.6-5.9.8-.3 1-1.8.6-4.6l-.5-4.2-6.7.6c-5.5.5-6.9.3-8.1-1.1-2-2.5.2-5.9 8.3-12.4 7.3-6 7.3-5.8 8.1-23.4.5-9.8 2.5-13.3 11.5-19.3 3.8-2.5 7.2-4.5 7.5-4.5.4 0 3.6-1.4 7.3-3.1 8.5-4 21.5-7.3 25.6-6.5 2.9.6 5.8 2.6 17.9 12.7l4.3 3.7 7-1.8c9-2.4 18.3-2.6 19.2-.4 1.1 2.8-1.5 6.2-9.6 12.5-7.1 5.4-7.9 6.4-6.8 7.8.7.9 3.5 4.1 6 7.2 3.9 4.6 4.4 5.8 3.1 6.3-.9.3-2 .4-2.5 0-.5-.3-.5.6.1 2 .5 1.4.7 4 .3 5.7-.5 2.8-.8 3-1.8 1.5-1.1-1.4-1.3-1.3-1.8 1.4-.4 1.6-1.3 3-2 3-1.7 0-4.7 3.2-4.7 4.9 0 .7 1.4 2.5 3.2 4.1l3.2 3-2.7 2.8c-1.5 1.5-2.7 3.6-2.7 4.6s-.8 3-1.9 4.4c-2.2 3.2-6.1 11.9-6.1 13.7 0 .7-1.1 3.4-2.6 6-1.4 2.6-2.3 5.3-2.1 5.9.3.7 2 1.7 3.8 2.3 1.9.6 7.6 2.9 12.8 5.1 8.4 3.5 9.7 3.8 11.9 2.6 2.2-1.1 3.3-.8 11.1 3.1 4.7 2.4 11.2 5.5 14.4 7 4.7 2.1 5.7 3 5.7 5 0 1.8.9 2.9 3.3 4.1 1.7.9 8.5 5 15 9 6.4 4.1 12.2 7.4 12.7 7.4.6 0 2.2-.7 3.6-1.6 2.3-1.6 2.6-1.5 4.4.1 1.1 1 2 2.3 2 2.9s1.5 1.1 3.3 1.1c2.9 0 3.2.3 3.2 2.8-.1 2.2.3 2.7 1.7 2.4 2.4-.7 5.3 1.6 4.5 3.6-.4 1.1.1 2.1 1.4 2.8 1.5.8 2 1.8 1.7 3.8-.3 2.3.4 3.5 4.6 7.2 7.9 6.7 24.2 24.8 32.3 35.6 7.5 10.1 12.2 17.3 25.8 39.8 4.3 7.1 9.7 14.9 12.1 17.3 3.8 3.9 4.5 4.2 9.3 4.2 4.1 0 5.7.5 7.5 2.3 6 6 9.4 25.9 5.2 30.6-4.4 4.8-12.9 1.1-24.2-10.6-7.6-7.9-14.1-17.5-25.9-38.3-11.7-20.5-15.7-26.6-25.2-38.5-8.7-10.9-29.7-32.5-31.7-32.5-.6 0-3.1 1.9-5.4 4.3-3 3.1-4.2 5.1-4.2 7.2 0 4.1-1.8 10.3-3.3 11.2-.7.4-9.7.8-20.2.8-15.9.1-20.6.4-28.9 2.3-11.6 2.6-17 2.8-21 .7-1.5-.8-3-1.5-3.2-1.5s-1.9 2.4-3.8 5.3l-3.3 5.2.8 8.5c.5 4.7 1.8 13.2 2.9 19 3.1 16.5 4.8 31.8 6 54 .7 11.3 1.5 24.1 1.8 28.5l.7 8 101.3.3 101.2.2V0H0z"/><path d="M140.5 145.6c-12.6 1.9-22.5 5.7-33.1 12.5-10.1 6.6-17.5 9.5-28.1 11-4.4.7-7.4 1.7-7.7 2.5-3.9 10.2-2.7 98.1 2 136.4 2.9 24.2 8.3 46.6 16.2 66.7l3.6 9.3h100.3l6.2-19.3c16.2-50 15.9-49.3 29.7-69.7 10.7-15.9 14.1-22.5 14.9-29.1.6-4-.8-19.3-5-59.4-.9-8.3-1.9-16.6-2.2-18.5-.5-3.2-.6-3.3-1.4-1.3-.5 1.3-1.4 2.3-2 2.3-1.1 0-.7-13.6.8-23.1l.5-3.7-4.6.5c-6.1.7-13.7-3-19.9-9.6-2.6-2.7-5.1-5.2-5.6-5.5-.5-.4-6.3-1.3-12.8-2.1-14.5-1.8-39.7-1.8-51.8.1M0 273.1V384h24.1c13.2 0 23.9-.3 23.7-.8-.2-.4-2.2-4.4-4.6-8.9-15-29.1-25.8-70.6-31.8-121.8-1.4-11.8-1.8-22.5-1.7-50.6l.1-35.6-4.9-2.1-4.9-2zm300.1-90c2.9 6 4.3 7.9 5.1 7.1s.8-2.6-.1-6.8c-1.1-4.9-1.7-5.7-4.7-7-1.8-.8-3.5-1.4-3.8-1.4-.2 0 1.3 3.7 3.5 8.1m36.9 14.4c-1.3 2.4-1.1 2.8 2.5 6.5l3.8 3.9-2.8 4.1c-1.6 2.3-5.9 6.8-9.7 10.2-3.8 3.3-6.7 6.2-6.5 6.5.6.5 13.9-2.4 19.2-4.2 11.9-4 17.9-7.3 19.6-10.8l1.8-3.5-5.2-3.2c-9.8-6.2-19.8-12-20.6-12-.4 0-1.4 1.1-2.1 2.5"/></svg>