<svg xmlns="http://www.w3.org/2000/svg" width="682.667" height="512" version="1.0" viewBox="0 0 512 384"><path d="M0 68.6c0 59.9.2 68.5 1.5 67.4 2.5-2.1 10-3.9 11.8-2.8 3 1.6 1.7 6.8-3 11.6-.7.7-1.3 2-1.3 2.9 0 1.3 4.3 1.5 37.8 1 42.5-.5 41.7-.4 60.7-9.1 11.2-5.1 21.5-8 34.9-9.8 10.2-1.4 44.4-1.4 52.1-.1l5 .9 4.1-4.6c2.3-2.5 5.3-5.2 6.8-5.9 2.2-1.2 2.6-2.1 2.6-5.8 0-4.8.1-4.7-6.8-3.3-5.5 1.2-10.2.1-10.2-2.5 0-2 6.9-9.4 11.9-12.9 4.5-3.2 5-4.8 5.2-18.1.2-11.6 2-15.9 8.5-20.7 9.9-7.3 28.5-15.1 38.2-16.3 6.5-.7 8.7.4 19.3 9.5 6.2 5.4 8.5 6.8 9.7 6.1 2.6-1.3 15.7-4.1 19.5-4.1 1.9 0 4 .7 4.7 1.5 2.4 2.9-1.8 7.8-14.6 17.1l-2.9 2.1 5.8 7.2c5.3 6.5 6.6 9.8 3.4 8.5-.9-.3-1.1.8-.8 4.2.3 3.9.1 4.6-1.2 4.1-1-.4-1.7.2-2.1 1.9-.4 1.4-1 2.3-1.5 2-.4-.3-1.8.8-3 2.5-2.5 3.3-2.1 6.3 1 7.9 2.4 1.4 2.4 3.2-.1 5.5-1.1 1-2 2.5-2 3.4s-2 5.7-4.5 10.5c-2.5 4.9-4.5 9.5-4.5 10.2s-.9 2.9-2.1 4.8c-1.1 1.9-1.9 4.3-1.7 5.2.2 1.1 4.8 3.5 13.2 6.9 12.3 5 13 5.2 15.6 3.7 2.5-1.4 2.9-1.4 5.6.4 2.8 1.9 7.7 4.4 19.7 9.8 4.6 2.2 5.7 3.1 5.7 5s1.3 3.2 6.3 5.9c3.4 2 10.2 6 15 9.1 8.6 5.4 8.9 5.5 12.1 4.2 3.6-1.5 6.6-.6 6.6 2 0 1 .8 1.4 2.3 1.3 3.1-.5 4.7.8 4.7 3.7 0 1.8.5 2.5 1.8 2.3 3.5-.3 4.2.2 4.2 3 0 2.1.6 3.2 2 3.6 1.5.5 1.8 1.2 1.3 3.6-.3 1.6-.1 2.9.4 2.9 1.4 0 23.2 22.3 30.8 31.5 8.4 10.1 30.5 42.8 30.5 45.1 0 1.5 13.3 20.5 15.2 21.8 1.3.8 4.3 1.8 6.8 2.1 8 1.1 8.6 1.4 10.7 5.2 5.1 9.2 6.8 23.2 3.2 27.7-2.5 3.2-5.4 3.3-11 .4-10.9-5.7-22.8-20.3-36.4-44.3-17.5-30.9-26.4-43-46.1-62.9l-13.6-13.8-4.1 3.9c-5.5 5.1-5.4 4.8-6.1 11-.4 3-1.1 6.3-1.6 7.3-1.4 2.7-7.7 3.3-19.3 2-9.7-1.2-10.9-1.1-25.2 1.5-21.1 4-22.9 4.1-26.9 1.7l-3.4-2-3.1 5c-4 6.4-4 9.8.3 35.3 1.9 11 3.7 23.4 4 27.5.7 8 3.6 55.3 3.6 58.2 0 1.7 5.2 1.8 102.5 1.8H512V0H0z"/><path d="M143.3 147c-16.8 2.1-26.2 5.5-38.3 13.5-9.5 6.3-14.9 8.5-25.9 10.4l-9.6 1.7-1 4.5c-.6 2.6-.9 21.2-.9 45.4.2 79.8 4.7 114.6 20.4 155.7l2.1 5.8h102.5l8.8-27.3c4.8-14.9 9.8-29.9 11.2-33.2 3.3-7.9 9.8-19.2 17.5-30.1 7.7-11.1 11.5-18.6 12.4-24.5.7-4.8-.9-29.8-2.6-40.6-.5-3.4-1.8-14.2-2.9-23.9s-2.1-17.9-2.4-18.1c-.2-.2-.7 1.1-1.1 2.9-.8 3.3-.8 3.3-1.7.8-.9-2.3-.5-11.5.8-21.5l.6-4.1-4.2.4c-6.4.6-12.6-2.3-20-9.4-6.3-6.1-6.7-6.3-14-7.4-10.1-1.5-42.8-2.1-51.7-1M0 275v109h22c12.1 0 22-.2 22-.5s-2-4.5-4.4-9.3c-13.9-27.7-24.5-69-30.3-117.2-1.6-14.1-2.5-61.5-1.4-80.9l.4-7.3-3.9-1.4c-2.1-.8-4-1.4-4.1-1.4-.2 0-.3 49-.3 109m295.6-95.5c.9 1.4 1.3 2.5 1 2.5s.4 1.7 1.7 3.7c1.3 2.1 2.7 4.7 3.1 5.8.7 1.8.8 1.8 1.7.3.6-1 .5-3.5-.3-6.9-1-4.4-1.7-5.4-4.5-6.5-4.4-1.9-4.6-1.8-2.7 1.1m39.4 20c-1.2 2.2-1 2.7 2.4 6.5l3.7 4.1-2.7 3.7c-1.5 2-5.9 6.7-9.8 10.4l-7.1 6.6 9-1.8c13.4-2.9 27.3-8.7 29.6-12.5 1.1-1.6 1.9-3.5 1.9-4.1 0-1-23.2-15.4-24.9-15.4-.4 0-1.4 1.1-2.1 2.5"/></svg>