<svg xmlns="http://www.w3.org/2000/svg" width="682.667" height="512" version="1.0" viewBox="0 0 512 384"><path d="M0 71v70.9l3-.5c3.4-.7 6 .9 6 3.6 0 1-1.6 4-3.6 6.5-1.9 2.6-3.2 5-2.9 5.3 1.2 1.2 48.7 1.4 63.6.3 17.4-1.4 19.3-1.8 33.3-8.3 18.8-8.7 37.3-12.1 64.6-12 8.5 0 19.1.5 23.5 1.1 7.1.9 8.1.8 9-.7.6-.9 3.4-4.1 6.3-7 4-4 5.2-5.9 5.2-8.3 0-2.5-.3-3-1.7-2.5-4.8 1.9-10.6 2.6-11.9 1.5-2.8-2.3-1.4-5.2 5.9-12.1l7.2-7-.2-13c-.2-9.7.2-13.8 1.2-15.8 4.6-8.9 31.1-24.3 44-25.7 6.5-.6 8.4.2 18.8 8.1 8.5 6.5 8.7 6.6 11.5 5.2 1.5-.8 5.5-2.1 8.9-3 17.2-4.5 19 .7 4.6 12.7-4 3.3-7.3 6.5-7.3 7.1s3.3 4.7 7.2 9c7 7.7 7.2 7.9 4.1 7.3s-3.2-.6-2.1 2.4c.5 1.6.7 4.2.3 5.7-.7 2.5-.8 2.5-1.5.7s-.9-1.6-1.5 1.2c-.4 1.8-1.3 3.3-2 3.3-.6 0-2.2 1.1-3.4 2.4-1.9 2-2.1 2.8-1.2 4.5.6 1.1 2 2.5 3.1 3.1 2.5 1.4 2.5 3.2 0 5.5-1.1 1-2 2.6-2 3.5 0 1-1.1 3.7-2.5 6.2-1.3 2.4-3.2 7.2-4.1 10.7-.8 3.5-3.1 8.7-4.9 11.5l-3.3 5.3 13.8 5.4c12.2 4.8 14 5.3 15.8 4.1s2.8-1 8.6 1.8c3.7 1.8 6.8 3.6 7.1 4 .3.5 1.9 1.1 3.5 1.5 5.7 1.2 11.5 5 11.8 7.6.2 1.9 2.2 3.5 9 7.4 4.8 2.7 11.7 6.9 15.4 9.3 6.3 4.2 6.9 4.4 9.8 3.2 3.3-1.4 6-.2 6 2.7 0 1 .6 1.2 2 .8 2.6-.8 5 1.1 5 3.9 0 1.7.6 2.2 2.8 2.1 2.1 0 2.8.5 3 2.5.2 1.4 1.2 3.3 2.3 4.3 1 .9 1.6 2.3 1.3 3-.2.7 2.5 3.9 6.2 7.1 10 8.9 27.8 28.8 36.1 40.6 4.1 5.8 12.8 19 19.3 29.5 14.4 23.1 16.5 25.4 24.6 26.2 3.2.3 6.5 1.1 7.3 1.7 4 3.1 9.2 22 7.8 27.8-1 3.7-3.3 5.8-6.6 5.8-3.9 0-13.5-6.6-20.7-14.1-5.6-6-16.9-22.1-20.9-29.8-2.6-5.2-13.3-22.8-17.8-29.6-10.7-16-27.7-35.3-39.9-45.7l-4.8-4-5 4.9c-3.8 3.6-5 5.5-5 7.8 0 5-2 10.4-4.2 11.6-1.4.7-4.6.9-9.2.5-20-1.8-25.2-1.8-36.1 0-15.1 2.5-19.3 2.4-23.1-.3l-3.2-2.3-3.1 4.8c-1.7 2.7-3.1 6.1-3.1 7.5 0 3.4 2.7 22.2 4.5 31.2 2.3 11.7 3.5 23.6 5 50.4.8 14.1 1.5 26.4 1.5 27.3 0 1.7 5.7 1.8 105 1.8h105V0H0z"/><path d="M141.5 154.7c-8.1.7-20.9 3.5-26.9 5.7-3.4 1.3-10.5 5.1-15.7 8.5-9.8 6.4-17.5 9.4-27.1 10.6-3.2.4-6.5 1.3-7.4 1.9-3 2.3-4.6 24.4-3.9 54.1 1.8 78.7 5 106.9 15.6 139.2l3.1 9.3h112.6l1.1-2.8c.6-1.5 3.7-11.9 7-23.2 9.4-32.3 10.4-34.6 25-56.8 6-9.2 11.6-19 12.6-21.7 2.1-6.3 1.5-21.5-2-47.5-1.3-9.6-2.9-22.1-3.5-27.7-.7-5.7-1.6-10-2.1-9.7s-.9 1.3-1 2.2c0 1.4-.2 1.4-1-.3s-.9-1.6-.6.7c.3 1.6 0 2.8-.6 2.8s-.7-2.3-.3-6.3c.4-3.4.9-9.9 1.3-14.4l.6-8.1h-4.5c-5.8.1-11.9-2.8-19.2-9.2-3.2-2.8-6.3-5-6.9-5-.7 0-7-.7-14.2-1.5-11.8-1.3-31.8-1.7-42-.8M0 188.7c0 6.4.2 11.4.4 11.2s.6-5.5 1-11.7c.5-7.6.4-11.2-.3-11.2S0 181.2 0 188.7m291.5-1.5c1.4 4.7 7.5 13.8 7.5 11.3 0-.4-.7-3.1-1.5-5.9-1.1-3.9-2.2-5.6-4.1-6.5-2.4-1-2.5-1-1.9 1.1m38 19.8c-1.5 3-1.5 3.1 2 6.5 1.9 2 3.5 4 3.5 4.5 0 1.2-5.9 7.8-12.3 13.8-2.6 2.5-4.5 4.7-4.3 4.9.9.9 18-2.9 26.1-5.9 7.7-2.8 8.8-3.5 10.6-6.9 1-2.1 1.9-4 1.9-4.3s-4.8-3.4-10.7-6.9c-16.4-9.7-15-9.2-16.8-5.7M.1 312.7 0 384h31l-2.1-5.1c-1.1-2.9-2.4-5.9-2.8-6.8-1.4-2.6-6.7-18.7-10-30.6-6.6-23.5-13.1-61.6-15-88-.6-8.3-.9 9.9-1 59.2"/></svg>