<svg xmlns="http://www.w3.org/2000/svg" width="682.667" height="512" version="1.0" viewBox="0 0 512 384"><path d="M0 70.9v71l3.3.3c4.6.4 5 4.6.8 9.9-1.7 2.1-3.1 4.2-3.1 4.7 0 1.7 22.3 2.5 46 1.8 31.8-1 37.5-1.9 50-8.1 18.9-9.4 32.5-12 63.5-12 12.7 0 25.7.3 29.1.8l6 .8 1.6-3.5c.9-1.8 3.7-5.1 6.2-7.2 3.5-2.9 4.6-4.5 4.6-6.7 0-2.7-.2-2.8-3.2-2.1-1.8.5-5.1.8-7.3.9-3.4 0-4-.3-4.3-2.3-.3-1.8 1.3-4.1 6.7-9.5l7.1-7V89.1c0-15.9.6-17.5 9.4-24.3 12.7-9.9 30.1-17.8 38.9-17.8 3.6 0 5.6 1 14.2 7.3l9.9 7.2 8.4-2.8c10.2-3.4 16-3.9 17.5-1.5 1.4 2.1-2.5 7.2-10.4 13.7-3 2.4-5.5 5.1-5.7 6-.1.9 3 5.1 6.9 9.3 6.6 7.3 6.9 7.8 4.4 7.8-2.4 0-2.5.2-1.9 3.4.3 1.9.1 4.3-.5 5.3-1 1.7-1 1.7-1.1-.2-.1-1.3-.6-.9-1.4 1.5-.7 1.9-1.5 3.3-1.7 3-.3-.3-1.7.7-3.3 2.2-2.9 2.6-2.9 2.7-1.2 5.3.9 1.4 2.4 2.9 3.2 3.2 2 .7 1.8 2.7-.6 4.8-1.1 1-2 2.9-2 4.2s-1.1 4-2.5 6c-1.3 2.1-3.2 6.9-4 10.8-1.2 5.1-2.7 8.5-5.4 12.2l-3.8 5 14.1 5.6c9.2 3.7 14.4 5.3 15 4.7s1.8-1 2.7-1c1.6 0 9.7 3.5 12.9 5.5.8.5 4.9 2.3 9 4 6.5 2.7 7.5 3.5 7.8 5.8s2 3.7 10 8.4c5.3 3.1 12.3 7.4 15.6 9.6 5.1 3.5 6.1 3.8 8.1 2.7 3.1-1.6 5.9-.9 6.3 1.7.2 1.7 1 2.1 3.5 1.9 2.8-.1 3.2.3 3.5 2.6.3 2.1.9 2.7 3 3 2 .2 2.8.9 3 2.8.2 1.3 1.3 3.1 2.4 3.8 1 .8 1.7 2 1.5 2.7-.3.6 5.1 6.8 12 13.6 19.5 19.3 31.3 34.6 48.8 63.4C469 327 470.8 329 479.3 329c3.7 0 5.3.5 7.1 2.3 4.8 4.8 8.7 20 7.2 28.1-1.7 9.2-11.8 5.9-25.6-8.3-8.9-9.1-12.4-14.2-29.9-43.6-16.7-28.1-21.1-33.8-41.8-54.2L382.9 240l-4.8 5.1c-4.1 4.3-4.9 5.8-5.5 10.2-1.2 10.4-5.2 12.2-20.6 9.3-10.2-2-16.8-2-29-.1-13.2 2-18.8 1.9-22.8-.5-1.8-1.1-3.4-2-3.6-2s-1.6 1.9-3.1 4.2c-2.6 3.9-2.7 4.5-2.1 11.7.4 4.2 1.8 14 3.2 21.8 3.9 22.9 4.4 27.2 5.9 55.2.8 14.6 1.5 27.2 1.5 27.8 0 1 21.7 1.3 105 1.3h105V0H0z"/><path d="M137 156c-15.9 1.9-26.9 5.6-36.5 12.2-11.4 7.9-16 9.8-29.9 12.3-4.3.8-8 1.6-8.2 1.8-.2.1-.9 3.6-1.6 7.7-1.7 9.6-1.6 76.3.1 104.5 2.2 36.4 5.4 56.7 13.3 82.7l2 6.8h58.3c54.7 0 58.4-.1 58.9-1.8.3-.9 3.5-12.3 7.1-25.2 7.8-27.6 11.5-36 24.5-55.5 13.4-20.2 13.5-20.6 13.3-35-.1-6.6-.8-17.4-1.7-24-2.6-20.7-4.5-35.8-5.4-43-.8-6.3-1-6.7-2-4.5-.6 1.4-1.1 2-1.2 1.5 0-.6-.5-.3-1.1.5-1.1 1.5-1.1 1.2.7-18.1l.7-6.6-4.6-.5c-5.9-.7-13.2-4.3-18.3-9-3.9-3.6-4.8-3.9-14.5-5.4-12.5-1.8-43.5-2.6-53.9-1.4m154.7 31.6c-.3.3.9 3 2.6 6 3.5 6 4.4 5.8 2.7-.5-1-3.7-4-6.8-5.3-5.5m37.5 20.4c-1.9 3-1.5 4.3 2.3 8 3.4 3.3 3.4 3.3 1.7 6.3-.9 1.6-5 5.7-9.1 9.1-4.9 4-6.8 6.2-5.8 6.4 3 .6 18.7-2.9 27-5.9 7.3-2.6 8.4-3.4 9.9-6.6.9-2 1.5-4 1.3-4.4-.7-1-24.1-14.9-25.2-14.9-.4 0-1.4.9-2.1 2M.1 326.7 0 384h13.5c7.4 0 13.5-.4 13.5-.9 0-.4-1.4-4.1-3.1-8.2C14.8 352.7 6 315 1.1 276.5c-.6-4.7-.9 11.7-1 50.2"/></svg>