<svg xmlns="http://www.w3.org/2000/svg" width="682.667" height="512" version="1.0" viewBox="0 0 512 384"><path d="M0 80.1v80.1l35.3-.5c40.3-.6 42.6-.9 58.7-8.4 5.8-2.8 13.2-5.7 16.5-6.6 8.1-2.2 23.7-4.4 37-5.2 9.9-.6 35.1.6 43.2 2.1 2.6.5 3.2.2 3.8-1.8 1.2-3.8 5.3-9.2 8.5-11.1 2.5-1.5 3-2.4 3-5.9 0-3.4-.3-3.9-1.7-3.3-1 .4-4.1.9-6.8 1.2-3.9.4-5.4.2-6.4-1.1-1.1-1.3-1.1-2 .3-4.1 2.1-3.3 6.3-7.4 10.9-10.9l3.7-2.8v-13c0-14.7.8-17.5 6.6-22.9C222.2 57 246.2 46 256 46c4.1 0 7.6 2.1 18.1 10.6l6.6 5.3 4.9-1.8c7.2-2.8 16.6-4.5 19.7-3.7 5.4 1.3 2.4 6.6-8.3 14.7-3.8 3-7 5.9-7 6.5s2.9 4.5 6.5 8.7c5 5.8 6.1 7.7 4.7 7.7-2.6 0-3.3 1-2.2 3 .6 1 .7 3.3.3 5.1-.5 2.8-.7 3-1.4 1.4-.6-1.8-.8-1.7-1.8.8-.6 1.6-2.4 4-4.1 5.4-1.6 1.3-3 3-3 3.6s1.4 2.6 3.1 4.3l3.2 3.3-2.7 3.1c-1.4 1.7-2.6 3.7-2.6 4.3 0 .7-1.6 4.3-3.5 8.2-1.9 3.8-3.8 8.6-4.1 10.5-.7 4.1-4.6 11.2-7.6 14-1.2 1.1-2 2.1-1.7 2.3.2.2 6.8 3 14.7 6.2 10.8 4.4 14.6 5.5 15.4 4.7 1.9-1.9 3.8-1.4 10.8 2.3 3.6 1.9 7.2 3.7 8 4.1 12.1 4.7 14 5.9 14 8.9 0 1.8 1.8 3.3 8.8 7.3 4.9 2.8 12.3 7.4 16.5 10.1 7 4.6 7.8 4.9 10.6 3.8 3.1-1.2 6.1.2 6.1 2.8 0 .8.8 1.1 2 .8 2.5-.7 5 1.3 5 3.8 0 1.4.7 1.9 2.5 1.9 2 0 2.7.6 3.1 3 .4 1.6 1.3 3.5 2 4.1.8.6 1.4 1.8 1.4 2.6s6 7.4 13.3 14.7c18.7 18.7 30.8 34.6 47.1 61.5 17.1 28.2 18.9 30.2 27.3 30.9 8.2.6 10.1 2.6 14.2 15.1 2.2 6.9 2.7 14.4 1.1 18.5-3.6 9.5-21.4-1.7-36.3-22.7-2.4-3.4-9.2-14.5-15.2-24.7-5.9-10.2-12.4-21-14.3-24-8.9-14-27.4-35.6-40.1-46.9l-7.2-6.3-4.5 4.6c-3.9 3.9-4.8 5.6-6 11.2-.7 3.7-2.1 7.5-3 8.5-2.2 2.4-4.7 2.4-19.6-.3-11.4-2-13.3-2.1-25.8-1-18.7 1.7-21.1 1.6-25.1-1.1l-3.4-2.3-2.7 3.2c-2.3 2.6-2.8 4.1-2.8 8.3 0 5.4 1.9 19.3 4.5 32.6 2.1 10.9 4.2 30.5 4.9 45.5.4 6.9.9 16.2 1.2 20.7l.6 8.3H512V0H0z"/><path d="M136 157.7c-15.9 1.3-30.7 5.9-40.2 12.3-9.4 6.5-17.2 10-25.6 11.6-16.5 3.2-14.5 1.9-16 10.9-3.1 18.9-2.3 102.5 1.3 138 1.6 15.9 4.4 32 7.7 44.5l2.3 8.5 63.6.3 63.7.2 4.1-15.2c9.3-34.1 12.6-42.1 25.8-61.5 9.6-14.2 14.2-23.3 15-29.4.6-4.5-.7-19.1-4.2-47.4-1.3-10.5-2.7-22.5-3.1-26.8-.3-4.2-1-8-1.5-8.3s-.9.4-.9 1.5c0 1.2-.4 2.1-.9 2.1s-1.2.8-1.4 1.7c-.6 2.4.1-17 .9-23 .6-4.7.5-4.8-1.8-4.2-3.4.9-12.3-2.7-18.6-7.5-4.5-3.4-6.5-4.2-14-5.5-15.8-2.7-41.8-4-56.2-2.8m156 33.7c0 .2 1.2 2.4 2.6 4.7 1.8 3 2.4 3.6 2 1.9-.3-1.4-.6-3-.6-3.7s-.9-1.7-2-2.3-2-.9-2-.6m37.6 20.8c-2.2 3.1-2 4.1 1 6.9 4.5 4.2 4.8 5.6 1.9 9.3-1.4 1.8-5.2 5.5-8.6 8.1-3.3 2.6-5.9 4.9-5.7 5 .9.9 17.4-1.9 25.7-4.3 8.5-2.4 9.6-3 11.7-6.4 1.3-2.1 2.4-4 2.4-4.2 0-.5-13.7-9.2-21.2-13.5l-5.6-3.2zM.1 360.7 0 384h13.9l-3.5-10.3c-2-5.6-5-16.1-6.9-23.2l-3.4-13z"/></svg>