<svg xmlns="http://www.w3.org/2000/svg" width="682.667" height="512" version="1.0" viewBox="0 0 512 384"><path d="M0 79.9v79.9l16.8.7c19.5.9 44.5 0 55.4-1.9 4.8-.9 11.8-3.3 18.8-6.5 13.5-6.2 22.7-8.7 39-10.6 17.4-2.1 45.4-1.7 61.8.8.8.1 2-1.5 2.7-3.6 1.5-4.5 4.8-8.2 8.8-10.4 2.4-1.2 2.8-1.9 2.5-5.1-.2-3-.7-3.7-2.3-3.4-11.9 1.5-12.3 1.5-12.9-.6-1-3 .5-5.2 7.9-11.9l6.6-6 .6-14.1c.7-16.4 1.3-17.9 9.5-24 12.1-9.1 31.1-17.2 40.4-17.2 4.8 0 5.9.5 12.1 5.1 3.7 2.8 8.2 6.4 9.9 8.1 3 2.8 3.3 2.9 6 1.5 4.4-2.2 16.7-4.9 20.5-4.5 7.2.7 3.5 7.7-8.5 16.3-3 2.2-5.6 4.4-5.6 4.9 0 1 8.2 11.1 11.2 13.8 2.3 2.1 1.6 3.8-1.2 3.1-2.4-.6-2.5-.1-.5 3.6 1.2 2.5 1.2 3.1 0 4.7-1.4 1.8-1.4 1.8-1.5-.1-.1-1.5-.4-1.3-1.2.9-.6 1.6-2.6 4.2-4.4 5.9-1.9 1.6-3.4 3.5-3.4 4.1 0 .7 1.3 2.5 3 4.1 3.5 3.4 3.6 3.9 1.1 6.2-1.1 1-2.3 3.1-2.7 4.8-.4 1.6-1.5 4.2-2.5 5.6-1 1.5-3.1 6.4-4.6 11-2.7 8.5-7 16.1-10 17.7-2 1.2-2.4.9 14.1 7.6 12.1 4.9 14.3 5.5 16.6 4.6 2.6-1.1 6.2.2 18 6.5 1.4.7 4.5 2.1 7 3.1 5.9 2.3 8.2 4.3 7.5 6.5-.5 1.4 1 2.7 6.7 6 4 2.3 11.5 6.9 16.6 10.2 8.3 5.3 9.6 5.8 11.7 4.9 2.9-1.4 5.2-.7 6.6 1.9.5 1.1 2 1.9 3.2 1.9 2.8 0 4.7 1.7 4.7 4.2 0 1.1.7 1.8 1.9 1.8 2.1 0 4.5 2.5 3.7 3.8-.3.5.3 1.7 1.4 2.7s2 2.5 2 3.3c0 .9 4.9 6.3 10.9 12.1 19.1 18.6 32.4 36.1 50.6 66.1 16.4 27 19.1 30 27.9 30 3.6 0 5.2.6 7 2.3 3.7 3.7 6.8 13.2 7.3 22.8.5 7.9.4 8.7-1.7 10.6-1.7 1.7-2.8 1.9-5.2 1.3-5.6-1.7-11.3-5.8-19.4-14.2-9.5-9.8-13.3-15.3-26.1-37.6-17.3-30.1-28.8-45.7-47.9-64.7l-13.5-13.4-5 5.2c-3.8 3.9-5.1 6.1-5.5 9.2-1.8 13-4.4 14.2-22.4 10.5-10.9-2.3-19.7-2.5-35.6-.9l-11.3 1.2-4.4-2.7-4.5-2.6-2.7 3.2c-2.7 3.2-2.7 3.5-2.2 12.3.3 4.9 1.5 14.2 2.7 20.5 4 22.1 5 31 6.5 54.7.8 13.1 1.5 24.4 1.5 25 0 1 21.7 1.3 105 1.3h105V0H0z"/><path d="M132 158.5c-.8.2-4.9.9-9 1.5-12.2 2-19.1 4.6-30.6 11.6-12.6 7.7-18.6 10.1-30.3 12-4.6.7-8.6 1.6-8.9 1.8-.2.3-1.2 5.4-2.1 11.3-1.3 8.8-1.6 18.2-1.4 51.3.2 47 1.6 76.6 4.4 97 1.8 12.9 5.8 33 7.5 37.4.6 1.4 7 1.6 65.8 1.6h65.3l3.8-14.3c5.1-19.2 10-33.7 14-41.6 1.8-3.6 7.8-13.5 13.4-22 12.7-19.3 13.6-22.1 12.7-39.1-.4-6.9-1.8-21.1-3.1-31.5-1.3-10.5-2.6-22.2-3-26-.3-3.9-.8-9-1.2-11.5l-.6-4.5-.9 3.2c-.5 1.8-1.3 3.3-1.9 3.3-.7 0-.8-4.2-.3-12.9l.7-12.8-5.6-.7c-4.2-.6-7.2-1.8-11.8-4.9-9.4-6.3-9.5-6.4-21.9-8.2-10.3-1.6-50.8-3-55-2m161 35.2c0 .5.7 1.8 1.5 2.9 1.2 1.6 1.4 1.6 1.5.3 0-.9-.7-2.2-1.5-2.9s-1.5-.8-1.5-.3m36.5 20.3c-1.6 3.1-1.6 3.2 1.9 7.1 2 2.1 3.6 4.5 3.6 5.3s-3.7 4.8-8.2 9c-7.9 7.4-8 7.6-5.1 7.6 4.6 0 17.8-2.6 25.9-5.1 6.2-2 7.3-2.7 9.1-6.1l2.1-3.8-4.1-2.8c-2.3-1.6-7.6-4.8-11.7-7.2s-8.5-5-9.7-5.7c-2-1.3-2.3-1.2-3.8 1.7M.1 369.7 0 384h4.6c4 0 4.5-.2 3.9-1.7-.4-1-2.3-7-4.2-13.3-1.8-6.3-3.5-12-3.7-12.5-.3-.6-.5 5.4-.5 13.2"/></svg>