<svg xmlns="http://www.w3.org/2000/svg" width="682.667" height="512" version="1.0" viewBox="0 0 512 384"><path d="M0 80.5V161h28.8c36.4 0 43.9-1 58.9-7.8 17.9-8.2 26.8-10.3 50.4-12.3 13.8-1.2 34.2-.5 50.5 1.8 4.1.5 4.1.5 4.8-3 .7-3.6 7.4-11.2 10.9-12.3 1.4-.4 1.7-1.4 1.5-4.2-.3-3.5-.5-3.7-3.3-3.3-6.7 1-11.8.6-12.8-1-1.3-2 .6-4.6 8.4-11.4 3.2-2.8 6-5.9 6.3-7 .4-1.1.8-7.7.9-14.6.4-15.1 1.5-17.6 11-24.3 13.3-9.4 28.6-15.6 38.4-15.6 6.7 0 10.1 1.6 17.3 8 1.4 1.2 3.9 3.3 5.6 4.6l3.1 2.4 9.1-2.5c10.5-3.1 18.5-3.1 19-.2.4 1.9-6.3 9-14.7 15.8l-4.4 3.5L295 84c2.9 3.6 6.2 7.2 7.3 8.1 1.8 1.5 1.8 1.6.2 2.2-.9.4-2.2.4-2.7 0-.7-.4-.9.1-.6 1.3 1 3.4 1 3.9.9 7.4-.2 3.5-.2 3.5-1.5 1.1l-1.4-2.5-.6 3c-.4 1.7-2.1 4-4.1 5.4-1.9 1.4-3.5 3-3.5 3.6 0 .5 1.3 2.3 3 3.9 3.5 3.4 3.7 4.6 1 7-1.1 1-2.2 2.7-2.6 3.9-.3 1.1-2.1 5.2-3.9 9.1-1.8 3.8-3.8 9.1-4.4 11.7-1.2 5.1-4.6 10.8-8.2 13.7-2.8 2.2-3.3 1.9 13.6 8.6 6.6 2.7 12.6 5.3 13.3 5.8.9.7 1.7.6 2.4-.1 1.9-1.9 5.9-1.3 11.8 1.8 6.3 3.3 8.5 4.4 15.5 7.4 5.6 2.3 6.5 3.2 6.5 6.2 0 1.6 2.1 3.3 8.2 6.9 4.6 2.7 12.2 7.4 17 10.6 7.4 4.9 8.9 5.5 9.9 4.3 1.7-2.1 5.2-1.3 6.4 1.3q.9 2.25 3 1.8c2.1-.5 5.7 1.6 5.4 3.1-.4 2.4.3 3.4 2.5 3.4 2.4 0 4.6 3.3 3.2 4.7-.3.4.3 1.2 1.4 2s2 2.2 2 3.1 6.9 8.7 15.3 17.3c20.4 20.8 30 34 52.7 71.6 3.4 5.7 8 12.4 10.4 14.9 3.9 4.4 4.6 4.7 10.1 5.2 4.1.3 6.7 1.1 8.2 2.4 4.9 4.6 9.9 22.1 8.3 29.3-1.7 7.6-5.9 8.3-14.7 2.6-12.6-8.1-23.2-21.5-38.8-49.1-16.8-29.7-30.4-48-49.2-66.3-13.4-13.1-12.4-12.7-17.9-7.3-3.9 4-4.8 5.6-6 11.3-2 9.4-3.3 10.6-11.4 10-3.6-.3-9.6-1.3-13.5-2.1-8.3-1.8-22.1-2-33.4-.5-9.3 1.3-11.3.9-16.4-2.5l-3.6-2.5-2.7 3.6c-2.6 3.4-2.7 3.8-2.1 12.7.3 5 1.5 14.3 2.7 20.6 3.9 22 4.9 30.2 6 47.3.6 9.5 1.3 20.5 1.6 24.4l.6 7.3H512V0H0z"/><path d="M125.5 160c-16.7 2.6-23 4.8-36.4 12.9-11.4 6.9-20.2 10.4-29.1 11.6-10.3 1.4-9.6.8-10.8 8.8-3 18.9-3.4 28.9-2.7 65.2.8 45.1 1.9 70.2 4 86 1.6 12.7 4.9 30.8 6.6 36.2l1.1 3.3h134.3l2.9-11.3c3.9-15.3 9.9-33.4 13.5-41 1.6-3.4 7.9-13.7 13.9-22.8 14.1-21.5 14.8-24 13.3-42.8-.7-7.5-2.3-22.6-3.6-33.6s-2.7-23-3-26.8c-.4-3.7-1.1-6.7-1.6-6.7s-.9.5-.9 1.1c0 .5-.4.8-.9.4-.5-.3-1.2.5-1.5 1.7-.6 2.7.1-11.5 1-21.5l.7-6.7h-4.6c-5.5 0-8.3-1.1-15.7-6.2-6.5-4.4-9.8-5.2-31.8-7.8-20.3-2.4-32.9-2.4-48.7 0M294 197.1c.7 1.1 1.4 1.9 1.6 1.6.7-.7-.7-3.7-1.7-3.7-.6 0-.5.9.1 2.1m35.5 19c-1.7 3.1-1.7 3.1 1.9 6.8 2 2 3.6 4.4 3.6 5.3 0 1.7-13.5 14.8-15.2 14.8-.5 0-.7.4-.4.8.8 1.4 16.6-.7 26.3-3.5 8.8-2.5 9.4-2.9 11.3-6.6 1.2-2.2 2-4 1.8-4.1s-3-2-6.3-4.3c-3.3-2.2-9.5-5.9-13.7-8.2l-7.7-4.2zM0 378.8c0 4.5.3 5.2 1.9 5.2 1.9 0 1.9-.2.4-4.8-2.1-6.3-2.3-6.4-2.3-.4"/></svg>