<svg xmlns="http://www.w3.org/2000/svg" width="682.667" height="512" version="1.0" viewBox="0 0 512 384"><path d="M0 81.1v81.1l30.8-.5c35.7-.6 40.2-1.3 56.2-8.8 17.2-7.9 30.8-10.7 57-11.6 15.6-.5 34.4.5 44.6 2.3 2.9.5 3.2.3 3.8-2.7.8-4.2 5-9.6 9.2-12.1 3-1.7 3.4-2.5 3.4-6 0-3.3-.3-3.8-1.7-3.4-1 .3-4 1-6.6 1.5-3.9.7-5.2.6-6.9-.8-2.8-2.3-1.7-4.1 7.3-12.5l7.2-6.6.5-14.3c.5-16.8 1.2-18.5 10.5-25.1 13.2-9.3 30.9-16.6 40.1-16.6 5.3 0 5.8.2 15.6 7.9l10.1 7.9 7.5-2.4c13.7-4.2 20.4-4.3 20.4-.3 0 2.5-5.8 8.8-13.1 14.3l-5.9 4.4 3.6 4.9c2 2.6 5.2 6.4 7.1 8.4 3.4 3.6 3.3 5.6-.2 4.3-1.4-.6-1.6-.3-1 1.7.9 2.6.9 3.1.7 6.8-.2 1.9-.5 2.1-1.6 1.2-1.2-1-1.5-.6-2.1 1.9-.4 1.6-1 2.8-1.4 2.5-.4-.2-1.9.8-3.3 2.3-2.9 3.1-2.5 6.2 1.1 8.2 2.7 1.4 2.7 4.2.1 5.8-1.1.7-2 2.1-2 3.2s-1.5 4.8-3.4 8.2c-1.9 3.5-4 8.5-4.7 11.3-1.4 6.2-5 12.7-8.5 15.4-2.2 1.7-2.4 2.3-1.4 3.6.7.8 1.7 1.5 2.2 1.5s6.7 2.5 13.9 5.5c12.2 5.1 13.2 5.3 15.3 3.9 2.2-1.3 2.8-1.2 9 2.1 9.4 5 9.5 5 15.6 7.6 7.2 3 7.8 3.5 8.2 6.7.2 2 1.9 3.5 7.8 7 4.1 2.5 11.6 7.1 16.5 10.3 8.6 5.6 9.2 5.8 12.2 4.7 3.4-1.3 6.3 0 6.3 2.9 0 .8.8 1.3 1.8 1.2 3.5-.3 4.3.2 5.3 3 .6 1.8 1.6 2.8 2.3 2.5 1.7-.7 4.6 2.2 4.6 4.5 0 1 .7 2.4 1.5 3.1s1.5 1.9 1.5 2.8c0 .8 6.4 8.1 14.3 16.1 19.4 19.9 31.4 36 49.2 65.6 15.2 25.4 18 28.5 25.3 28.5 5.8 0 8.6 1.4 10.9 5.2 4.8 8.1 7.6 23.5 5.5 29.7l-1.1 3.1H512V0H0z"/><path d="M131 159.7c-20.5 2-33.1 6.2-46.5 15.3-2.2 1.5-5.9 3.7-8.2 4.9-4.7 2.4-19.1 6.1-23.8 6.1-1.6 0-3.6.4-4.3.9-.7.4-2.1 5.2-3 10.7-1.5 8.5-1.7 17.4-1.7 62.4.1 61.9 1.6 84.8 7.6 113.3l2.2 10.7h138.5l1.1-3.3c.5-1.7 1.9-6.8 3.1-11.2 7-26.3 11.7-37 25.8-58.3 5.5-8.4 11-17.8 12.3-21 2.1-5.6 2.1-6.1.9-23.7-.6-9.9-1.8-22.7-2.6-28.5s-2.1-17.4-3-25.9c-.8-8.5-1.6-15.6-1.8-15.8s-.6 1.1-1 2.9c-.5 2.6-.9 3-1.6 1.8-.7-1.1-1-.6-1.1 2 0 1.9-.3 2.9-.6 2.1-.5-1.3 1.2-22.6 2.3-27.9.4-2 .1-2.2-3.8-2.2-5.7-.1-10.6-2-16.5-6.3-3.8-2.8-6.7-3.9-13.3-5.1-19.7-3.7-46.6-5.4-61-3.9m163 38.1c.6 1.3 1.4 2.1 1.8 1.8.3-.4-.2-1.4-1.2-2.4-1.8-1.6-1.8-1.6-.6.6m35.8 19.9c-1.6 2.7-1.5 2.9 2.3 7.2 2.1 2.4 3.9 4.7 3.9 5.1 0 .5-3.7 4.3-8.2 8.5l-8.3 7.8 8-.7c7.2-.6 10.4-1.2 24-4.8 3.2-.8 4.5-1.9 6.3-5.1 1.2-2.2 2.1-4.1 2-4.1-.2-.1-3.4-2.2-7.3-4.7-6.9-4.5-19.8-11.9-20.6-11.9-.3 0-1.2 1.2-2.1 2.7m51.1 39.1c-3.8 3.9-4.8 5.6-5.4 9.7-.4 2.7-1.3 6.5-2 8.2-1.4 3.3-1.5 3.3-8.2 3.3-3.7 0-9.3-.8-12.3-1.7-4.4-1.3-10.1-1.7-28.2-1.7-21.8-.1-22.7-.2-25.7-2.3l-3-2.3-2.6 3.3c-3.5 4.7-3.3 11.4.9 36.7 4.1 24.5 5.3 34.4 6.1 51 .3 6.9.8 14.9 1.1 17.8l.5 5.2h190.2l-3.9-2.6c-6.8-4.5-18.4-16.6-24.3-25.4-3.2-4.7-10.2-16.2-15.6-25.5-8.5-14.7-15.4-25.7-22.2-35.5-6.9-10-37.9-43.2-40.1-42.9-.4 0-2.8 2.1-5.3 4.7"/></svg>