<svg xmlns="http://www.w3.org/2000/svg" width="682.667" height="512" version="1.0" viewBox="0 0 512 384"><path d="M0 81.6v81.6l29.8-.5c33.1-.5 35.1-.8 49.8-7.8 14.6-6.9 25.6-9.7 47.9-12 15.5-1.5 47.9-.2 60.1 2.6 1.8.4 2.2-.1 2.8-3.6.7-4.2 7.1-12.3 10.7-13.4 1.5-.5 1.9-1.6 1.9-4.7 0-3.9-.1-4-2.7-3.4-8.1 1.8-11.9 1.8-13.2.2-2.1-2.5 0-5.7 8.7-13.5l7.2-6.6V86.7c0-16.1.4-17.4 8.2-24 9.5-8 35.5-19.7 44-19.7 3.9 0 6.8 1.6 17.3 9.9 5.6 4.4 9.6 6.9 10.5 6.5 10-3.9 21.9-6.2 25.4-4.8 4.2 1.6-.6 8.6-11.6 17.1-3.2 2.4-5.8 4.7-5.8 5.1s3.1 4.6 6.9 9.3c5.7 7 6.5 8.5 4.9 8.6-2.8.3-3.3 1-2.2 3.5.6 1.3.7 3.6.4 5.3l-.7 3-1-2.5c-1.1-2.4-1.1-2.4-1.8 1.3-.4 2.1-1 3.5-1.3 3.2-.9-.9-6.2 4.7-6.2 6.6 0 1 1.5 2.9 3.2 4.3l3.3 2.5-2.8 2.9c-1.5 1.6-2.7 3.9-2.7 5.4s-.4 2.9-.9 3.2c-1.7 1.1-5 8.5-6.6 14.8-1.9 7.1-6.4 14.8-10.2 17.3-3.5 2.4-2.2 3.4 11.7 9.1 6.3 2.5 12.7 5.3 14.2 6 1.7.9 2.9 1 3.3.4 1.1-1.8 7-.9 12.5 2 3 1.6 7.1 3.6 9 4.5 5.2 2.4 10.3 4.7 12 5.5.8.4 1.7 2 1.8 3.6.4 2.8 1.7 4.2 6.2 6.6 3.7 1.9 12.8 7.5 19 11.8 8.5 5.8 9.5 6.2 12.3 4.9s6.7.2 6.7 2.6c0 1 1 1.5 3.1 1.5 2.5 0 3.3.6 4.2 3 .6 1.6 1.8 3 2.7 3 2.1 0 4 2 4 4.1 0 .9.7 2.2 1.5 2.9s1.5 2.1 1.5 3.1c0 1.1 5 7 11.6 13.6 6.4 6.5 15.5 16.4 20.3 22.1 8.6 10.4 24.6 33.5 31.1 45 6.2 11 16.6 26.6 19.8 29.6 2.3 2.2 4.2 2.9 8.4 3.2 2.9.3 6.3.9 7.5 1.5 3 1.6 7.9 13 9.3 21.6 1 6.1 1.5 7.3 3.1 7.3 1.9 0 1.9-3.7 1.9-192V0H0z"/><path d="M125.5 161.6c-19.4 1.9-31.1 5.4-43.1 13-14.1 9-19 10.7-38.6 13.9-2 .3-3.8 1.2-4.1 2-.3.7-1.6 9.1-2.8 18.7-2 16.3-2.1 20-1.6 65.3.6 50.1 2 73.6 5.7 95.9 1.1 6.5 2 12.2 2 12.7s31.9.8 74.1.7l74.2-.3 4.2-14.5c7.5-25.6 9.7-30.3 25.3-53.8 13.3-20.2 13.7-21.4 12.9-41.7-.4-8.8-1.3-20.7-2.1-26.5s-2.2-18.7-3.2-28.8c-1-10-2.1-18.2-2.6-18.2-.4 0-.8.9-.8 2s-.4 2-.9 2-1.2.8-1.5 1.7c-.7 2.3.3-22.2 1-26 .5-2.5.3-2.7-3-2.7-4.5 0-10.9-2.5-16.2-6.2-4.7-3.4-7.8-4.2-25.9-6.9-12.4-1.8-43.8-3.2-53-2.3m205 60.5c-1.6 3-1.6 3.1 1.9 7 2 2.1 3.6 4.5 3.6 5.3s-3.5 4.7-7.7 8.6l-7.8 7.3 8.4-.7c8.8-.7 14-1.7 22.8-4.2 4.1-1.2 5.6-2.2 7.2-5 1.2-1.9 2.1-3.7 2.1-3.9 0-.5-14.9-10.5-15.5-10.5-.2 0-3-1.6-6.2-3.5s-6.1-3.5-6.5-3.5-1.5 1.4-2.3 3.1m56.5 34.7c0 .6-2 3-4.4 5.5-3.7 3.7-4.6 5.3-5.5 10.3-2.1 11.4-6.5 13.4-21.7 9.5-15.1-3.8-23-4.5-36.2-3.2-12.8 1.2-16.9.5-21.3-3.5-1.5-1.3-1.9-1.2-4.4 1.8-2.7 3.2-2.8 3.4-2.2 13.8.3 5.8 2 18.1 3.6 27.5 3.3 18.8 4.9 32.4 5.9 52l.7 13 91.3.3 91.3.2-6.7-7.7c-8-9.2-13.9-18.2-26.6-40.4-15.6-27.1-23.8-38.8-40.7-57.7-8.3-9.2-23.1-23-23.1-21.4"/></svg>