<svg xmlns="http://www.w3.org/2000/svg" width="682.667" height="512" version="1.0" viewBox="0 0 512 384"><path d="M0 192v192h512V0H0zM242.3 76.5c-.4 1.2.4 1.5 3.9 1.5 2.5 0 4.7.3 5.1.6.3.3-.9 2.6-2.6 5-2.7 3.8-2.9 4.7-1.7 5.4 2.8 1.8 5.6 1 8.8-2.5 4.6-4.8 9.7-6.2 17.9-4.8 4.8.9 7.5 2 10.2 4.2 2 1.7 6.2 4.7 9.3 6.8 3.2 2.1 5.8 4.1 5.8 4.5 0 1.7-7.4.6-11.9-1.7-5-2.6-8.1-2.5-8.1.4 0 .9-.3 2.6-.6 3.8-.5 1.9.2 2.4 5.5 4.4 4.6 1.6 7.3 3.4 10.6 7.1 2.9 3.2 5.4 5 7.7 5.5 4.5.8 10.9 6.1 6.6 5.4-1.7-.2-.7 1.8 1.2 2.4 1.1.3 2 1.1 2 1.7 0 .5-.6.8-1.4.5-.7-.3-2.1.4-3 1.4-1.2 1.5-2.4 1.8-4.9 1.4-1.7-.3-4.5-.1-6.2.4-1.6.5-2.4 1-1.7 1 .6.1 1.2.8 1.2 1.6 0 1.1.8 1.3 3 .9 3.4-.7 3.8.3 4.2 10.1.3 5.8.4 6 3.3 6.6 1.7.4 7.8.7 13.6.8 8.3.1 10.8.4 11.2 1.5.3.8-.1 2-.9 2.6-.8.7-1.4 1.9-1.4 2.7 0 1.1-1.1 1.2-5.2.8-9.4-1.1-18.6-2.5-20-3-.8-.3-2 .1-2.7.9-1.9 2.3 6.8 5.1 15.4 5 3.9-.1 7.2.2 7.5.7.3.4 5.3-.1 11-1.2 13.9-2.6 23-3.3 33.5-2.4 7.2.6 8.4.9 7.4 2.1-1.1 1.4-.2 1.9 2.4 1.5.5-.1.6.7.2 1.8-.6 2.1 1.8 5.1 4.2 5.1.9 0 1.3.6.9 1.5-.6 1.7.7 1.9 3.5.5 1.6-.9 1.9-.7 1.9 1 0 2.2 3.3 4 6 3.4.8-.3.4.1-1 .8-2.8 1.5-3.2 3.7-1 5.6 1.3 1.2 1.3 1.3 0 .6s-1.3-.5-.1.9c1.2 1.5 1.1 1.7-.5 1.7s-1.7.2-.4 1c1.3.9 1.3 1.1 0 2-1 .6-1.1 1-.2 1 .6 0 1.2.5 1.2 1.1 0 .7-.9.9-2.1.6-1.4-.4-1.7-.2-1.1.6 1.8 2.1-1.1 3.7-3.9 2.1-3.1-1.7-5-1.8-4.3-.1.3.8-1 2.1-3.1 3.3-2.2 1.1-3.3 2.4-3 3.2.4 1.1-.1 1.3-2.1.8-1.8-.5-2.4-.3-1.9.4.4.6-1.1.2-3.4-.9q-8.25-4.35-2.1.9c4.8 4.1 2.8 3.8-3.1-.6-5.9-4.3-7.6-4.8-26.4-7.9-12-1.9-16.4-3.1-22-5.9-7.8-3.8-11.9-4.8-15.1-3.6-2.2.9-2.2 1-.8 5.6.8 2.6 1.4 5.9 1.4 7.4 0 5.2-4.8 6.8-7.6 2.4l-1.7-2.5-1.3 2.9c-2.9 7-6.4 4.5-6.8-4.9l-.2-6.4-4.7-.9c-2.6-.4-8.6-.4-13.5.1-11.4 1.1-13.6.6-14-3.2-.5-4.1-1.8-5.4-5.5-5.3-2.8 0-21.5-1.2-40.7-2.6l-6.5-.5 5 1.5c2.8.8 5.8 1.9 6.7 2.4 1 .6 3.8 1 6.3 1 4.6 0 5.4 1 3.6 3.9-1.3 2-11.1.2-25.2-4.6-9.7-3.3-10.9-3.5-13.7-2.2-1.7.7-2.8 1.7-2.6 2.1.7 1.1-.4 1-2.7-.2-1-.6-1.9-1.9-1.9-3 0-2.5-.8-2.9-8.2-3.7-5-.5-6.8-1.2-9-3.4-1.6-1.5-2.8-3.7-2.8-4.9 0-2.2.2-2.2 7.8-1.5 4.2.4 8.4.7 9.2.7s3.8.4 6.5.9c2.8.5 12.2 1.5 21 2.3 8.8.9 21.8 2 28.8 2.7l12.8 1.2 2.9-2.8c1.5-1.5 4.3-5.5 6.1-8.9 1.8-3.3 4.1-7.3 5.1-8.8s1.9-4 2-5.5c.1-2.6-2-17.4-2.5-17.9-.1-.1-2.1-1.1-4.4-2.3-6.7-3.4-6.9-8.4-.5-11 3.6-1.5 4-4.9.6-5.7-1.3-.3-2.4-1.2-2.4-1.9s-2.1-2.8-4.6-4.6c-5.2-3.8-8.1-6.5-10.6-10-2-2.6-2.2-3.8-.9-5.8.8-1.2 1.5-1.1 4.5.7l3.6 2.1V82c0-4.6.4-6.1 1.7-6.9 2.2-1.2 3.4-.5 2.6 1.4M324 129c0 .5-.2 1-.4 1-.3 0-.8-.5-1.1-1-.3-.6-.1-1 .4-1 .6 0 1.1.4 1.1 1m-117 88.4c0 .3-.4.8-1 1.1-.5.3-1 .1-1-.4 0-.6.5-1.1 1-1.1.6 0 1 .2 1 .4M77.5 271c.3.5.1 1-.4 1-.6 0-1.1-.5-1.1-1 0-.6.2-1 .4-1 .3 0 .8.4 1.1 1"/><path d="M255.7 118.9c-.2 1.1.3 3.1 1.3 4.6l1.8 2.7 1.2-2.2c.9-1.8.9-2.8-.1-4.6-1.5-2.9-3.5-3.1-4.2-.5m32.6 14.5c.5 1.2 0 1.4-2.5.9-2.7-.5-3-.4-2.5 1.1.4 1 1 2.9 1.3 4.2.6 2.2 4.4 3.6 4.4 1.6 0-.4 1.2-2 2.6-3.5 1.4-1.6 2.4-2.9 2.3-3.1-.2-.1-1.7-.8-3.3-1.4-2.4-1.1-2.8-1.1-2.3.2m-27.6 15.8c-1.3 2.9-4.1 7.7-6.1 10.7-3.7 5.4-4.7 10.1-2.2 10.1 2 0 12.4-8.8 15.1-12.8l2.3-3.4-3-4.9c-1.7-2.7-3.2-4.9-3.3-4.9-.2 0-1.4 2.4-2.8 5.2"/></svg>