<svg xmlns="http://www.w3.org/2000/svg" width="682.667" height="512" version="1.0" viewBox="0 0 512 384"><path d="M0 82.6v82.7l24.3-.6c28.5-.6 33.5-1.5 49.6-8.7 13.5-6.1 22.4-8.6 38.1-10.5 15-1.9 43.2-1.9 59 0 6.9.8 13.4 1.6 14.5 1.8 1.5.1 2.1-.5 2.3-2.3.6-5.3 1.3-7.1 4.4-10.5 1.7-2 4.4-4.3 5.9-5.1 2.5-1.2 2.9-2.1 2.9-5.5 0-3.8-.2-4.1-2.2-3.4-1.3.4-4.8.9-7.8 1.2-4.4.4-5.9.2-6.9-1.1-1.2-1.4-1-2.2 1.3-5.4 1.4-2 5.2-5.9 8.5-8.6 5.5-4.5 5.9-5.2 6.5-10 .4-2.8.7-9.4.7-14.6.1-5.2.7-10.9 1.4-12.5 2.4-5.8 12.8-13.4 29-21 10.4-4.8 17.9-6.8 24-6.3 4.5.4 6.2 1.2 13.1 6.5 4.3 3.4 8.8 7 10 8.1l2.1 2 8.1-2.4c14.6-4.2 22.2-4.1 22.2.2 0 2.2-9.4 11.8-15.1 15.5-2.7 1.7-4.9 3.4-4.9 3.7 0 1 8.2 11.7 12.3 15.9l4.1 4.3-3.4-1c-1.8-.5-3.5-.8-3.7-.6-.2.1.2 1.7.8 3.5.6 1.7.8 4.3.5 5.7-.7 2.5-.8 2.5-2 .9-1.2-1.7-1.4-1.5-2 1.9-.4 2-1.1 3.4-1.5 3.1-.5-.2-2.1.6-3.6 1.9-3.3 2.9-2.9 6.4 1 9 3.2 2.1 3.2 3.7 0 6.4-1.4 1.2-2.5 3.3-2.5 4.6 0 1.4-.4 2.8-1 3.1-1.6 1-6 10.9-6 13.6-.2 6.3-6.2 16.8-11 19.1-2.7 1.3-2.8 1.5-1.2 3.5 2.2 2.8 29.6 14.3 31.4 13.2 2.6-1.7 6.2-.8 14.7 3.5 4.7 2.4 11.3 5.7 14.6 7.2 5.2 2.5 6 3.3 6.3 5.9s1.4 3.6 8 7.5c4.2 2.4 12.3 7.5 17.9 11.2 9.3 6.3 10.4 6.7 12.7 5.6 3.1-1.3 7.6.2 7.6 2.7 0 1 1 1.5 3.1 1.5 2.5 0 3.3.6 4.2 3 .6 1.6 1.8 3 2.7 3 2.2 0 4 2 4 4.6 0 1.2.7 2.7 1.5 3.4s1.5 1.9 1.5 2.8c0 .8 5.7 7.4 12.8 14.6 20.9 21.6 33.1 37.6 50.7 67.1 19.1 31.9 21.3 34.5 29 34.5 2.4 0 5.5.4 6.8.9 3 1.2 6.4 6.5 8.8 13.9 1.7 5.5 1.8.5 1.8-185.6L512 0H0z"/><path d="M110.5 164.6c-17 2.6-21.8 4.4-39.4 14.8-11.1 6.5-18.4 9.1-30.6 10.9l-9 1.2-1.2 6c-2.7 14-3.3 27.6-3.3 81.3 0 55.9.5 68.8 3.6 92.5l1.7 12.7 79-.2 79.1-.3 4.1-13.7c5.4-17.8 10.8-28.7 24.2-48.9 14.4-21.7 15-23.7 13.4-45.1-.7-8.4-2.1-22.5-3.1-31.3-1.1-8.8-2.4-22.3-3.1-30-.6-7.7-1.3-14.2-1.4-14.4-.2-.1-.7 1.3-1 3.3-.4 1.9-1.4 4.1-2.3 4.8-1.4 1.2-1.5.3-.8-8.7.3-5.5.9-12.3 1.3-15.2l.6-5.1-5.7-.7c-3.8-.5-7.6-1.9-11.9-4.5-4.9-2.9-8.5-4.1-17.7-5.9-27.1-5.1-57.1-6.5-76.5-3.5m220.7 61.6-2.1 3.2 4 4.3c2.1 2.3 3.9 4.9 3.9 5.6 0 1.4-6.4 8-12.3 12.9l-2.9 2.3 9.4-.6c9.5-.7 10.7-.9 21.3-3.6 5.3-1.3 6.3-1.9 8.2-5.3l2.1-3.9-7.7-4.9c-10.6-6.8-21-13.2-21.5-13.2-.2 0-1.3 1.4-2.4 3.2m53.6 41.5c-3.7 3.9-4.8 5.9-5.7 10.3-.6 3.1-2 7-3.1 8.8-1.8 3-2.4 3.2-7.2 3.2-2.9 0-9.3-1.2-14.3-2.7-8.3-2.4-10.6-2.6-29.7-2.8-21.5-.3-22.6-.4-27-4.9-1.4-1.3-1.9-1.1-4.8 2.5-3.2 4.1-3.2 4.1-2.6 12.2.4 4.5 2.2 17.2 4.1 28.2 3.9 23.3 5.2 33.6 6.1 49.7l.7 11.8H480l-4.5-6.1c-4.9-6.7-13.5-20.7-24-39.4-9.1-16-19-30.8-29.4-43.5-9.1-11.2-29.6-32-31.5-32-.7 0-3.3 2.1-5.8 4.7"/></svg>