<svg xmlns="http://www.w3.org/2000/svg" width="682.667" height="512" version="1.0" viewBox="0 0 512 384"><path d="M0 84.2v84.1l17.3-.6c21.8-.8 27.6-1.8 39-6.8 21-9.2 30.7-11.7 53.7-14 14.6-1.4 40.9-.7 57.5 1.6 6.1.8 11.9 1.6 13 1.7 1.6.3 2-.5 2.6-4.5.9-5.9 4-10.7 9.1-13.8 3.5-2.2 3.8-2.8 3.8-6.7 0-3.7-.3-4.3-1.7-3.8-.9.4-4.2.9-7.4 1.3-4.5.4-6.1.2-7.3-1-.9-.9-1.6-2-1.6-2.5 0-1.8 5.7-8.2 11.6-13.1s6.2-5.2 6.8-10.8c.3-3.2.7-10.3.7-15.8 0-8.2.4-10.6 2.1-13.3 2.3-3.8 11.1-10.7 18.3-14.5 18.3-9.5 29.2-13.2 36.6-12.5 4.8.5 10.4 4.1 23 14.8l3.6 3.1 8.9-2.7c10.9-3.2 20.1-3.7 21.8-1.2 2 3.2-2.7 8.5-17.4 19.8l-3.2 2.5 7.5 9.5c7.3 9.3 8.4 11.7 4.7 10.5-1.7-.5-1.8 0-1.3 5.7.4 5.8.3 6.1-1.1 4.4-1.5-1.8-1.6-1.8-2.6.8-.5 1.5-1 3.2-1 3.8s-.3.8-.6.5c-.4-.4-2 .3-3.5 1.4-3.9 2.7-3.8 6.2.1 9.1 3.7 2.7 3.8 4.4.5 7-1.4 1.1-2.5 3-2.5 4.3 0 1.4-1.4 4.4-3 6.7-2 2.9-3.4 6.4-4 10.5-.6 3.5-1.5 7.4-2 8.8-1.5 3.9-7.1 10.5-10.4 12.2l-2.9 1.5 3.4 3.3c4.5 4.3 29.5 15.3 31.2 13.6.6-.6 2-1.1 3.2-1.1 2.3 0 16.1 6.5 17 8 .3.6 1.3 1 2.1 1 2.6 0 14.1 5.9 14.8 7.5.3.9.6 2.5.6 3.4 0 1.2 3 3.7 8.8 7.1 4.8 3 13.3 8.5 19 12.3 7.7 5.2 10.6 6.7 11.5 5.8 1.8-1.8 6.4-1.3 8 1 .8 1.1 2.8 2.4 4.3 2.8 1.6.4 3.4 1.8 4.1 3.2.7 1.3 2.5 3.1 4 4 1.6.9 2.9 2.6 3.1 4 .2 1.3 1.1 3.2 1.9 4.1s1.2 2.1.8 2.7c-.3.6 3.3 4.8 8.1 9.3 19.9 19 38.2 43 58.1 76.3 19.7 33 21.3 34.9 29.5 36 2.4.3 5.5.8 7.1 1l2.7.4V0H0z"/><path d="M111.5 166.6c-1.6.3-7.8 1.1-13.6 1.9-14.4 2.1-23.4 5.3-36.1 13-13.3 8.2-21.1 11.1-34.6 13.1-5.9.9-10.8 1.7-10.9 1.8-.7.6-3.3 18.2-4.3 28.3-1.4 13.5-1.8 112.9-.7 132.7.5 7.6 1.3 16.4 1.8 19.5s.9 5.9.9 6.4c0 .4 39.4.6 87.6.5l87.6-.3 2.7-8.6c4.2-12.8 9.9-24 20.7-40 17.2-25.5 18.1-28.2 16.5-47.9-1.5-17.8-5.1-51.2-5.6-52.1-.3-.3-.7-6.4-1-13.5-.6-13-1.4-16.9-2.5-12.4-.4 1.4-1.2 2.4-1.8 2.3-.7-.2-1.2 1-1.2 2.9 0 1.7-.3 2.8-.7 2.5-.3-.4 0-7.9.7-16.7s1-16.3.7-16.7c-.3-.3-2.8-.9-5.4-1.4s-7.5-2.2-10.8-3.9c-10.9-5.4-44.6-10.9-71-11.5-8.8-.2-17.3-.1-19 .1m221.3 66.5c-2.4 4.1-2.3 4.5 1.7 9.2 1.9 2.2 3.5 4.8 3.5 5.8s-3 4.5-6.7 7.8l-6.8 6.1h7.5c6.8 0 16.5-1.5 26.1-4 2.6-.7 3.9-1.9 5.2-4.5.9-2 1.7-3.8 1.7-4 0-.8-29.2-19.6-30.4-19.5 0 0-.9 1.4-1.8 3.1m55.6 44.1c-4.1 4.2-5.3 6.2-5.9 9.8-1 6.3-3.9 12.6-6.5 14-2.4 1.3-8 .4-18.4-3.1-10.7-3.5-14.6-4-34.7-4.8-19.3-.7-19.7-.7-23.2-3.4l-3.5-2.7-3.1 3.9c-2.7 3.4-3.1 4.7-3.1 9.7 0 6.7 2.1 21.8 5.1 37.8 2.4 13 4.9 33.1 4.9 40.3v5.3h88c48.4 0 88-.3 88-.6s-2.2-4.3-4.9-8.8c-2.6-4.4-7.4-12.8-10.6-18.6-14.1-25.3-25-41-41.3-59.3-8.5-9.6-24.1-24.7-25.4-24.7-.2 0-2.6 2.4-5.4 5.2"/></svg>