<svg xmlns="http://www.w3.org/2000/svg" width="682.667" height="512" version="1.0" viewBox="0 0 512 384"><path d="M0 84.7v84.6l16.3-.6c18.4-.7 26.7-2.4 39.2-8.2 22.3-10.4 37.6-13 73.5-12.9 22.4 0 40.2 1.5 49.6 4 1.9.5 2.2.1 2.6-4.4.6-5.9 5.5-13.4 9.9-15.2 2.6-1.1 2.9-1.7 2.9-5.5v-4.3l-8.7.1c-8.6.2-8.8.1-9.1-2.2-.3-2 1.4-4.2 9-11.4l9.3-8.8.1-9.2c.3-21.5.3-21.1 3-25.2 1.4-2.2 4.4-5.4 6.7-7.2 5.4-4 16.5-10.3 18.3-10.3.8 0 1.4-.4 1.4-.9 0-1.6 19.4-8.3 25.6-8.8 5.8-.5 6.5-.3 11.5 3 3 2 8.5 6.3 12.4 9.5 4.9 4.3 7.4 5.8 8.5 5.2 2.5-1.3 21-6 23.7-6 3.6 0 6.3 1.8 6.3 4.1 0 2.5-8.1 11.2-15.4 16.4-3.1 2.2-5.6 4.3-5.6 4.6 0 .4 3.3 4.9 7.4 10 7.2 9.1 8.4 11.6 4.6 10.4-1.7-.5-1.8-.1-1.3 5.5.4 4.1.2 6-.6 6-.6 0-1.1-.6-1.1-1.4s-.5-1.8-1-2.1c-.6-.4-1-.3-.8.2.4 1.5-1.4 7.3-2.1 6.9-.4-.3-2.2.8-4 2.4-3.5 3.3-3.4 4.6 1.3 8.9 3.3 3.1 3.3 4.6.1 6.7-1.4.9-2.5 2.4-2.5 3.4s-1.5 4.7-3.4 8.2c-1.8 3.5-3.7 8.4-4.1 10.8-.3 2.5-1.1 6.2-1.7 8.2-1.1 3.6-7.5 11.2-11.3 13.4-1.9 1.1-1.8 1.4 2 4.9 2.5 2.2 8.7 5.7 16.3 9 11.8 5.1 12.4 5.3 15 3.8s3.1-1.4 10.2 2.2c4.1 2 8.2 4.3 9 5s3.3 1.8 5.5 2.5c7.7 2.2 12 5.2 12.5 8.7.4 2.9 1.8 4 12.5 10.6 6.6 4.1 15.1 9.5 18.8 12.2 6.5 4.5 7.1 4.7 10.4 3.7 4.1-1.3 6.8-.3 7.8 2.8.4 1.4 1.5 2 3.6 2 2.4 0 3.2.6 4 2.9.7 1.9 2.1 3.3 3.9 4 2 .6 3.2 1.9 3.6 3.8.4 1.5 1.3 3.6 2 4.7.7 1 1.1 2.3.8 3-.2.6 6.3 7.9 14.4 16.2 21.1 21.5 34 38.9 53.2 71.4 19.8 33.5 22 36 31.5 36h4.5V0H0z"/><path d="M94.6 169.5c-14.7 2.1-24.5 5.6-37.7 13.6-13.5 8.2-22.3 11.5-35.2 13.2-5.1.8-9.8 1.6-10.4 2-1.3.8-2.9 9.4-4.9 26.2-3.1 26.2-2.9 126.1.3 154.2l.6 5.3h181.2l2.3-6.8c4.1-11.8 10.8-24.2 22.6-42 12.6-18.9 14.6-23.7 14.6-34.8 0-10.5-1.9-33.1-4.5-52.9-1.3-9.8-2.1-18.3-1.8-18.8s-.1-5.4-.7-11c-1.3-9.9-1.3-10.1-2.5-6.7-1.2 3.3-1.3 3.4-1.7 1-.5-2.5-.5-2.5-.7.2 0 1.6-.6 2.8-1.2 2.8-.7 0-.9-1.2-.5-3.3.3-1.7.8-6.8 1.1-11.2s.8-10 1-12.5l.5-4.5h-4.3c-2.6-.1-7.2-1.4-12.2-3.7-8-3.6-18.9-6.2-40-9.4-14.3-2.2-53.2-2.7-65.9-.9m238.4 67-2.2 3.5 4.1 4.9c2.3 2.7 4.1 5.3 4.1 5.8 0 .6-2.9 3.8-6.5 7.2-3.6 3.5-6.5 6.5-6.5 6.8 0 2 34.6-2.7 36.5-4.9.6-.7 3.5-6.7 3.5-7.3 0-.7-17.6-12.2-25.1-16.4l-5.7-3.2zm56.6 44.2c-3.3 3.3-5.6 6.5-5.6 7.8 0 4.4-3 12.2-5.8 14.8-2.8 2.7-3.1 2.7-7.8 1.7-2.7-.6-9-2.4-14-4-10.3-3.3-24.3-5-40.9-5-10.3 0-11.5-.2-14.9-2.5-2-1.4-4.1-2.5-4.5-2.5-.5 0-2 1.5-3.5 3.4-4.2 5.5-3.8 13.3 2.4 48.1 1.6 8.8 3.4 21.6 4 28.5.7 6.9 1.3 12.6 1.4 12.8.2.1 39.7.1 87.8 0l87.6-.3-6.5-11.5c-3.6-6.3-8.6-15.1-11-19.5C443.4 326.1 418 294 400 279l-4.7-4z"/></svg>