<svg xmlns="http://www.w3.org/2000/svg" width="682.667" height="512" version="1.0" viewBox="0 0 512 384"><path d="M0 87.1v87.1l5.2-.7c10.8-1.4 19.4-3.9 29.7-8.5 14.7-6.6 25.8-9.7 43.6-12.2 13.4-1.9 58-1.6 72.5.5 6.3.9 13.6 1.9 16.1 2.3l4.6.6-.5-3.1c-.7-5.1 4.3-13.9 10.1-17.4 4.5-2.9 4.7-3.2 4.7-7.5s-.1-4.4-2.7-3.8c-1.6.3-5.4.9-8.5 1.2-4.5.5-6 .3-7.3-1-3.2-3.2.1-8.2 12.4-18.8l5.3-4.6.6-17.1c.5-16.6.6-17.3 3.2-21.5 2.9-4.6 18.7-16 23.8-17.2 1.5-.4 3.7-1.5 5-2.5 5.1-4 21.2-8.8 29.3-8.9 5.3 0 9.2 2.2 21.6 12.3l8.2 6.7 10.6-3c15-4.4 19.7-4.8 22.4-2.1 2 2 2 2.4.7 4.9-1.6 3-10.8 12.1-17.3 17.1-5.1 3.9-5.3 3.5 5.1 16l7.4 8.8-3.5-.3c-2.9-.2-3.3 0-2.7 1.4 1.3 3 1.7 10.3.5 11.5-.8.8-1.1.5-1.1-1.1 0-3.5-1.8-2.5-2.6 1.4-.4 1.9-1.4 3.8-2.3 4.1s-2.8 1.7-4.3 3.1c-3.2 2.9-2.6 4.9 2.6 9.4l3.1 2.6-3.2 3.4c-2 2.1-3.3 4.4-3.3 6 0 1.5-.4 2.9-.9 3.2-1.9 1.2-6.2 10.9-6.7 15.4-1.4 11.2-6.6 19.6-14.1 22.7l-2.8 1.1 5.2 4.9c4.1 3.8 8.2 6.2 18.5 10.7 11.8 5.1 13.4 5.6 14.8 4.3 2.6-2.3 4.2-1.9 15 4 5.5 3 10.5 5.5 11 5.5 1.8 0 13.1 6.2 13.5 7.3.2.7.6 2.4.9 3.8.4 2 2.4 3.8 7.8 6.9 4 2.4 13.3 8.3 20.6 13.2 10.9 7.2 13.6 8.6 15.2 7.8 3.6-1.9 7-1.2 8.8 2 1.2 2 2.2 2.8 3.4 2.4 2-.6 6.8 3.7 6.8 6.1 0 .8.9 1.5 1.9 1.5 2.3 0 5.2 3.6 4.5 5.5-.3.6.2 1.8 1.1 2.5.8.7 1.5 2.1 1.5 3.2 0 1.2 5.4 7.5 13.3 15.6 24.6 25.4 37.9 43.4 59.7 80.4l10.5 17.8H512V0H0z"/><path d="M74.5 175.5C58 178.2 48.8 181.8 30 193c-7.4 4.4-18 8.5-27.2 10.5L0 204v180h187.8l2.6-5.5c1.5-3 8.5-14.3 15.6-25 7.1-10.8 13.6-21.9 14.6-24.8 1.4-4.3 1.6-7.7 1.1-22.6-.7-19.4-4-49.5-6.1-54.4-.8-2.1-1.3-8-1.3-17-.1-8.8-.5-14.3-1.2-15-.8-.8-1.1-.6-1.1.6 0 2-1.6 2.3-2.3.4-.3-.6-.6.4-.7 2.3 0 2.6-.3 3.1-1 1.9-.8-1.4.1-20.9 1.5-31.1l.5-3.6-4.3.1c-3 .1-6.1-.8-10.6-3.1-6.4-3.2-22.9-7.2-45-10.8-13.2-2.2-64.3-2.8-75.6-.9m259.9 72.6-2.5 4.1 4.5 4.8c2.5 2.7 4.6 5.6 4.6 6.5s-2.8 4.4-6.2 7.7l-6.3 6 12.5-.6c10.9-.5 22.1-2.3 24.7-3.9 1.1-.7 4.7-7.6 4.2-8-3.8-3.1-31.6-20.7-32.4-20.7-.3 0-1.6 1.8-3.1 4.1m60.4 47.1c-3.5 3.6-5.8 6.9-5.8 8.2 0 4.2-3 12.5-5.7 15.7-2.4 2.8-3 3-6.6 2.5-2.2-.4-9.5-2.4-16.1-4.6-14.4-4.7-21-5.7-41.7-6.9-13.3-.7-16.2-1.1-19.1-2.9l-3.4-2.1-3.7 3.7c-3.6 3.7-3.7 3.9-3.7 11.7 0 4.4.7 12.3 1.4 17.5 1.7 11.3 7.6 45.4 8 45.8.2.1 39.9.1 88.3 0l88.1-.3-7.3-12.9c-15.5-27-31.1-47.4-52.2-68.4-7.3-7.2-13.7-13.2-14.1-13.1s-3.3 2.8-6.4 6.1"/></svg>