<svg xmlns="http://www.w3.org/2000/svg" width="682.667" height="512" version="1.0" viewBox="0 0 512 384"><path d="M0 87v87h3.3c4.7 0 16.9-3.6 23.5-6.9 22.5-11.3 50.8-15.9 90.2-14.8 18 .5 48.5 3.7 51.2 5.3.4.3.8-1.7.8-4.3 0-7.4 4.3-14.3 10.9-17.8 2.8-1.4 3.1-2 3.1-6.6 0-3.1-.4-4.8-1-4.4-.5.3-3.7 1-7 1.6-4.7.7-6.7.6-9.5-.5-1.9-.8-3.5-1.9-3.5-2.4 0-2.6 10-13.5 18.2-19.8l2.8-2.2.1-16.8c.1-15.8.2-17.2 2.4-21 1.3-2.2 4.4-5.7 6.9-7.8 5.3-4.3 17-11.6 18.8-11.6.6 0 1.9-.7 2.7-1.5 2.8-2.5 19.9-8.5 26-9.1 3.2-.4 7.5-.4 9.4 0 3 .6 11.2 6.2 23.4 16.1l3.1 2.6 8.4-2.7c6.4-2.1 10.4-2.7 17.3-2.8 9-.1 9-.1 9.3 2.5.4 3.2-6.2 10.8-15.2 17.6-3.3 2.5-6.5 4.9-6.9 5.3-.9.8 7.4 12.2 13.5 18.6l4 4.1-3.7-.3c-3.5-.2-3.7-.1-3 2.4.9 3.2.9 3.6.6 8.2l-.3 3.5-1.3-3-1.3-3-1.3 4.8c-.7 2.6-1.7 4.6-2.2 4.4-.6-.2-2.5 1-4.3 2.6-3.1 2.8-3.2 3.1-1.9 5.6.7 1.5 2.5 3.3 3.9 4.1 3.3 1.7 3.3 4.3.1 6.8-1.4 1.1-2.8 3.5-3.2 5.3-.3 1.9-1.9 5.4-3.4 7.9-2.6 4.3-3.4 6.7-5.9 19.2-.9 4.5-2 6.7-5.3 10.2-2.4 2.4-5.5 4.8-7 5.1-1.5.4-2.7 1-2.7 1.4.1.3 2.2 2.7 4.8 5.3 3.8 3.9 7.3 5.9 18.6 10.8 12.5 5.4 14.1 5.8 15.6 4.5.9-.8 2.3-1.5 3.1-1.5 1.7 0 13.6 5.9 17.7 8.8 1.6 1.2 3.6 2.2 4.3 2.2 1.1 0 10 3.8 13.9 5.9.8.4 1.6 2.4 1.8 4.4.3 3.2.9 3.9 7.5 7.8 9 5.3 19.2 11.9 28 18.1 5.5 4 7.1 4.7 8.7 3.8 3.6-1.9 7.9-1.2 9.2 1.5.6 1.4 2 2.5 3 2.5 3.2 0 5.5 1.8 6.6 5 .7 1.9 1.8 3 2.9 3 2.4 0 4.3 1.9 4.3 4.3 0 1 .9 3 2 4.4 1.1 1.5 1.8 3.3 1.5 4.2-.3 1.1 2.9 5 10.1 12.1 17.3 17.2 31.5 34.3 44.2 53.2 5.1 7.6 19.7 31.5 24.2 39.6l2.4 4.2H512V0H0z"/><path d="M89.5 174.6c-1.6.3-8.8 1.1-16 2-17.1 2-27.9 5.7-42.8 14.5-12.2 7.2-21.4 11.4-27.3 12.5l-3.4.6V384h94.3l94.2-.1 2.4-4.7c1.3-2.6 7.3-12.1 13.4-21.2 13.1-19.6 15.8-25.1 16.4-33.5 1-12.1-4.3-64.9-7.1-70.3-.9-1.9-1.3-6.7-1.3-16.2.1-7.5-.3-14.1-.7-14.8-.6-1-1.4-.6-3.2 1.3-1.3 1.4-2.4 3.1-2.4 3.7s-.2.9-.5.6c-.6-.5 1.3-32.5 2.1-34.9.4-1.3-.5-1.7-4.9-2.1-3.2-.3-8-1.7-12-3.6-13-6.3-61.2-13.9-88.2-13.9-5.5 0-11.3.1-13 .3m245.2 76.6-2.6 4.3 3.9 4c6.8 7.2 6.8 7.5-.2 14.4l-6.1 6.1h9.3c5 0 13.2-.7 18.2-1.6 8.7-1.6 9-1.8 11.8-5.9l3-4.3-10.8-6.9c-12-7.8-22.7-14.3-23.5-14.3-.3 0-1.6 1.9-3 4.2m61.6 47.4c-4.7 4.8-5.4 6.1-6.7 12.3-3.5 16.6-7 17.9-27.4 10.4-13-4.7-20.8-6-41.4-7.3-13.7-.8-18-1.4-20.9-3l-3.7-1.9-4.1 4.4c-3.5 3.8-4.1 5.1-4.1 8.8 0 6.1 2.4 23.4 5.9 43.1 1.7 9.3 3.1 17.3 3.1 17.7 0 .5 39.5.9 88.5.9 48.7 0 88.5-.3 88.5-.6 0-3-21.1-35.9-31.7-49.2-8.1-10.4-38.1-41.3-39.8-41-.5.1-3.4 2.5-6.2 5.4"/></svg>