<svg xmlns="http://www.w3.org/2000/svg" width="682.667" height="512" version="1.0" viewBox="0 0 512 384"><path d="M0 87.5c0 50.8.4 87.5.9 87.5 2.2 0 14.8-4.4 21.4-7.4 22.8-10.5 44.6-14.5 81.2-14.7 20.9-.1 53.7 2.9 60.8 5.6 1.5.6 1.7.1 1.7-3.9 0-6.9 3.9-13.9 9.5-17.1 4.3-2.5 4.5-2.9 4.5-7.1V126l-8.7.6c-6.8.5-9.2.3-10.7-.8-1.7-1.4-1.8-1.6-.2-4.7 1.8-3.3 7.9-9.9 15.4-16.3l4.2-3.7.2-11.8c.1-6.5 0-13.7-.1-16-.3-5.4 2.6-11.8 7.5-16.4 5-4.7 17.2-12.8 20.4-13.6 1.4-.3 3.2-1.2 4-1.9 2.6-2.2 15.2-7.1 23.1-8.9 10.9-2.6 13.8-1.5 28 9.6 7 5.4 12 8.6 12.9 8.3 7.4-2.7 19.7-5.7 25.1-6.1 6.1-.5 6.7-.4 8.2 1.7 1.4 2 1.4 2.7.2 5-1.8 3.4-8.4 10.1-16.3 16.3-5.4 4.2-6.1 5.2-5 6.6 4.9 6.4 9.7 12.2 13.1 15.7 3.2 3.4 3.6 4.2 2.2 4.8-.9.3-2.5.1-3.6-.4-2.2-1.2-2.5 0-.8 3.2.7 1.3.8 3.8.4 6.7l-.8 4.6-1-3.5-1-3.5-1.1 4.5c-.8 2.8-1.8 4.6-2.9 4.8-1 .2-1.5.7-1.3 1.1.3.4-.9 1.6-2.5 2.6-1.6 1.1-2.9 2.7-2.9 3.6 0 1.8 4.3 6.9 5.8 6.9.6 0 1.3.8 1.7 1.7.4 1.3-.3 2.6-2.6 4.5-2.4 2-3.2 3.5-3.1 5.7 0 1.7-.3 3.3-.8 3.6-2.1 1.3-7 13-8 19-.6 3.7-1.7 8.2-2.4 9.9-1.5 3.5-8.9 10.6-11 10.6-3.1 0-2.4 1.9 2.3 6.8 4 4.1 6.9 5.8 16.2 9.8 6.3 2.6 12.4 5.4 13.6 6.2 1.9 1.2 2.5 1.2 4.5-.2 1.2-.9 3-1.6 3.9-1.6 1.8 0 16.5 7.4 19 9.6.8.8 2.2 1.4 3 1.4s3.7 1.1 6.4 2.5c2.8 1.3 5.5 2.5 6.2 2.5 1.8 0 4.3 4.1 4.3 7.1 0 2.3 1.2 3.4 8.7 7.7 4.9 2.8 14.4 8.9 21.3 13.6 9.6 6.5 12.9 8.2 14.2 7.5 3.4-1.8 7.3-1 10 2.1 1.4 1.7 3.6 3 4.7 3 1.4 0 2.9 1.2 4.2 3.5 1.2 1.9 2.7 3.5 3.3 3.5 1.9 0 4.6 3.4 4.6 5.7 0 1.1.7 2.6 1.5 3.3s1.5 2.2 1.5 3.3c0 1.3 4.7 6.8 12.3 14.6 24.6 25.2 43.8 51.1 62.7 84.3l4.4 7.8H512V0H0z"/><path d="M73 177c-20.2 2.2-33.4 6.7-50.7 17.1-4.7 2.9-11.6 6.5-15.2 8l-6.6 2.8-.3 89.5L0 384h188.9l1.6-3c.8-1.6 6.3-10.1 12.2-18.7 13.4-20.1 15.5-24.4 16.1-34.9.8-15.2-4.1-64.1-7-70-1.2-2.2-1.6-6.5-1.6-17.3 0-8.9-.4-14.7-1.1-15.4-.8-.8-1.1-.6-1.1.6 0 2-1.6 2.3-2.3.4-.3-.6-.6-.2-.6 1.1-.1 1.3-.5 2.1-1.1 1.7-1.1-.7-.3-26.6 1-30.7.8-2.6.7-2.8-2.8-3.4-5.9-.9-10.4-2.5-14.7-4.9-4.5-2.6-26.3-7.6-43-9.9-6-.8-12.8-1.8-15-2.1-7.6-1-48-1.4-56.5-.5m262.1 77.5-2.4 4.5 4.7 5c2.5 2.7 4.6 5.6 4.6 6.4 0 .9-2.5 4-5.6 7.1-4.5 4.4-5.3 5.6-3.9 6.1 2.4 1 16.6-.2 26.8-2.1 8.6-1.7 8.8-1.8 10.8-5.7 1.1-2.1 1.8-4.2 1.5-4.7-1-1.5-31.9-21.1-33.4-21.1-.4 0-1.8 2-3.1 4.5m67.9 42.4c0 .5-2.4 3.3-5.4 6.2-4.8 4.6-5.5 5.9-6.6 11.3-1.3 6.5-3.9 12.4-6.4 14.6-2.5 2-10.8.7-21.3-3.4-12.7-4.8-21.9-6.5-41.7-7.7-13.5-.8-17.9-1.4-21.1-2.9l-4-2-4.2 4.3c-4.2 4.1-4.2 4.3-4.3 11.2 0 6.7 2.4 24.6 5.4 40.5.8 4.1 1.7 9.2 2.1 11.2l.6 3.8H385c49 0 89-.2 89-.4 0-.6-5.9-10.9-11-19.1-10.6-17.3-35.8-47.7-50.8-61.3-8.1-7.2-9.2-8-9.2-6.3"/></svg>