<svg xmlns="http://www.w3.org/2000/svg" width="682.667" height="512" version="1.0" viewBox="0 0 512 384"><path d="M0 82.6c0 78.3.1 82.6 1.7 81.9 5-2 26.5-5.6 39.8-6.6 28.6-2.2 81.1.5 98.1 5l3.1.9 1.7-7.5c1.6-6.7 2.2-7.7 5.9-10.4 2.2-1.6 5.2-3.2 6.5-3.6 2.2-.5 2.4-.9 2-5.5-.3-2.6-.8-5.1-1.1-5.4s-2.9-.1-5.7.5c-6.1 1.3-13 1.4-13 .2 0-.5-.9-1.1-2-1.4s-2-1.3-2-2.2c0-3.1 6.7-12.1 14.8-19.7l8.2-7.6-.3-19.9-.2-19.8 3.2-4.6c5.1-7.4 22.5-20.9 26.9-20.9 1 0 2.7-.9 3.8-1.9 6.1-5.5 25.1-12.1 35-12.1 7.3 0 11.5 2.1 25.8 12.8l9.6 7.2 7.9-2.4c16.4-5.2 18.4-5.6 24.7-5.6 5.5 0 6.7.3 8 2.2 1.3 1.8 1.3 2.5.1 5.5-2.2 5.2-6.6 10.3-15.5 17.9-4.4 3.8-8 7.2-8 7.7 0 1.2 16.6 20.2 19.2 22 2.2 1.5 2.1 1.5-2.4 1.1-2.7-.2-4.8-.1-4.8.1 0 .3.6 2 1.3 3.8.9 2 1.1 5 .8 8.2l-.6 5-1.4-3.5-1.4-3.5-.9 4c-1.6 6.7-1.9 7.3-2.8 5l-.8-2-.7 2c-.5 1.1-2.1 3.4-3.7 5.1-3.5 3.7-3 5.6 2.7 10 4.3 3.2 4.4 5.2.5 8.9-2.3 2.2-3 3.8-3 6.6 0 2.1-.4 4-.9 4.3-2 1.3-10.1 20-10.1 23.5 0 .9-.7 4-1.5 6.7-1.7 5.8-6.3 11-11.9 13.4l-4 1.6 6.1 6c5.3 5.3 7.8 6.7 22.5 13.2 9 3.9 16.9 7.2 17.5 7.2s1.6-.7 2.3-1.5 2-1.5 3-1.5c2.1 0 17.8 7.9 21.6 10.9 1.4 1.1 3.2 2.1 4 2.1 1.5 0 14.9 6.3 16.9 8 .8.7 1.5 2.8 1.5 4.6 0 2.4.6 3.7 2.3 4.7 15.6 9.7 27 17 30.7 19.6 14.3 10.2 14.4 10.2 17.8 9 4.3-1.5 8-.4 9.4 2.6.8 1.8 2.2 2.7 4.9 3.1 4.3.7 5.3 1.6 6.3 5.7.4 1.8 1.3 2.7 2.6 2.7 2.7 0 6 3.5 6 6.4 0 1.3.7 2.9 1.5 3.6s1.5 2.5 1.5 4c0 2.2 2.1 4.9 9.8 12.7 20.7 20.9 37.4 41.1 50.2 61.1l6.5 10.1h7.3l7.2.1V0H0z"/><path d="M39.1 184.1c-11.6 1-23.9 3.3-32.6 6l-6.5 2V384h195.9l3.6-6c7.7-12.6 8.5-18.6 6.5-44.6-1.2-15.8-4.9-43.2-6.1-45.9-.5-1.1-2.1-3.5-3.4-5.4-1.4-1.9-2.6-4.8-2.6-6.5-.2-9.6-.2-17 .2-23.9.2-4.9 0-8-.7-8.5-.6-.4-1.6-1.6-2.2-2.7-1-1.8-1.1-1.6-1.2 1.5 0 4.7-2 7.8-2 3.2 0-1.7-.4-3.2-1-3.2-1.2 0-1.2-19.3-.1-28.3.8-6.4 1.3-5.9-7.7-7.2-5-.6-12.6-4.2-19.2-9-3.8-2.7-6.9-3.8-19-6.3-34.3-7.1-71.9-9.8-101.9-7.1m298.2 89.7-3.2 5.7 6.1 6.3 6 6.2-5.6 6.4c-3.1 3.5-5.6 6.7-5.6 7 0 1.6 37.2-1.9 38.4-3.6 1.3-1.8 4.6-8.1 4.6-8.8 0-1.3-17.2-12.7-36.5-24.2-.6-.4-2.5 1.9-4.2 5m69.1 54.1c-6.6 6.4-7.2 7.3-7.8 12.1-1 7.5-4.4 15.8-7.2 17.6-3.2 2.2-8 1.3-23.9-4.6-15.8-5.8-23.4-7.5-39-9-21.7-2-29-2.8-31.1-3.5-1.7-.5-3 .5-7.4 6l-5.3 6.7.7 11.1c.3 6.2.9 13.1 1.2 15.4l.7 4.3h182.8l-2.2-3.3c-5.1-7.3-15.7-20.7-22.3-28.2-7.8-8.8-30.5-31.5-31.5-31.5-.3 0-3.8 3.1-7.7 6.9"/></svg>