<svg xmlns="http://www.w3.org/2000/svg" width="682.667" height="512" version="1.0" viewBox="0 0 512 384"><path d="M0 81.5c0 44.8.4 81.5.8 81.5.5 0 5.7-.9 11.6-2 29.8-5.5 73.9-5.4 110.1.1 19.2 2.9 18 2.9 18.3-.6.6-7.1 2.2-10.4 6.9-14 2.5-1.9 5.4-3.5 6.4-3.5 1.6 0 1.9-.8 1.9-6 0-3.3-.2-6-.5-6-.2 0-3 .7-6.2 1.5-6.3 1.7-13.3 2-13.3.6 0-.5-.9-1.1-2-1.4-2.9-.7-2.5-4.6.9-9.7 3.1-4.6 15.5-17.6 18.3-19.1 1.6-.8 1.7-2.7 1.1-20.8l-.6-19.9 2.6-4.5c1.5-2.4 5-6.6 7.9-9.2 6.1-5.5 18-13.5 20.1-13.5.8 0 2.7-1.1 4.2-2.4 3.1-2.7 17.2-8.8 24.5-10.7 6.4-1.6 15.9-1.5 20 .3 1.9.8 8.8 5.4 15.2 10.1l11.6 8.5 6.9-2.4c22.3-7.9 35.3-8.3 35.3-1 0 4.6-9 15.4-21.9 25.9l-3.3 2.7 2.5 3.3c1.3 1.7 6.2 7.1 10.7 11.9 4.5 4.9 7.8 8.8 7.3 8.8s-1.5-.6-2.2-1.3c-1.1-1-1.2-.9-.6.2s.2 1.3-1.9.7c-3-.7-3.1-.2-1.3 4.5.8 2 1.1 5.3.7 7.9-.5 4.7-1.2 4.6-2.5-.5-.7-2.8-.9-2.6-2.2 3.2-.8 3.5-1.9 6.3-2.5 6.3s-.8-1.2-.4-2.8l.5-2.7-1.2 2.7c-.7 1.5-2.6 4.1-4.2 5.8-2.8 2.9-2.9 3.2-1.4 5.8.8 1.5 2.9 3.6 4.6 4.7 4.6 2.9 4.7 4.2.8 8.2-2.8 2.9-3.5 4.4-3.5 7.5 0 2.5-.5 4.1-1.5 4.4-.8.4-1.5 1.1-1.5 1.8 0 .6-1.1 3.1-2.4 5.6-2.4 4.6-5.5 13.8-7.5 22.5-1.6 6.7-5.4 11.3-11.3 13.9l-4.9 2.2 5.6 5.6c4.4 4.5 7.6 6.5 15.3 9.8 5.3 2.3 13.5 6 18.1 8.1 7.2 3.4 8.6 3.7 10 2.6.9-.8 2.3-1.7 3.2-2 1.8-.6 15.7 6 22.4 10.6 2.2 1.5 4.6 2.7 5.5 2.7 2.6 0 16 7.1 17 9.1.6 1 .8 2.9.5 4.2-.6 2.1 0 2.8 4.2 5.2 4.5 2.6 10.5 6.4 24.3 15.4 3 1.9 8.6 5.7 12.3 8.4 6.8 4.9 6.8 4.9 11.1 3.7 3.8-1 4.7-1 6.9.4 1.4 1 2.7 2.6 3 3.6.4 1.4 1.4 2 3.5 2 3.1 0 7.2 3.8 7.2 6.6 0 .7 1.5 1.8 3.4 2.4 3.3 1.1 4.6 2.6 4.6 5.7 0 .8.9 2.6 2 4 1.1 1.5 1.8 3.4 1.5 4.3-.4 1.1 3.1 5.3 11.1 13.6 18.5 18.8 35 39 48.4 59.1l5.5 8.3H512V0H0z"/><path d="M43.5 183.7c-10.1.7-29.2 3.4-36 5.1l-7 1.8-.3 96.7L0 384h196.7l3-5.8c7.1-13.4 7.3-15.5 3.8-49.7-2.7-27.2-4.7-37.7-7.8-41-3.5-3.9-5.3-8.3-3.9-9.7.8-.8.6-1.8-.5-3.5-1.4-2.1-1.4-3.4-.3-11.6 1.5-10.5 1.5-16.7.1-17.6-.6-.4-1.4-1.8-2-3.1-1-2.5-1-2.5-1.1.5-.1 1.6-.5 3.9-.9 4.9-2.6 6.6-4.7-18.3-2.8-32.7l.7-5.7-2.7.1c-6.5.5-18.2-4.4-26.1-10.8-3.6-3-6.2-3.9-15.3-5.9-31.6-6.8-71.8-10.4-97.4-8.7m243.5 64c0 .4.5 1.5 1 2.3.8 1.3 1 1.3 1-.2 0-.9-.4-2-1-2.3-.5-.3-1-.3-1 .2m50.1 28.9-3 5.6 5.9 6.1c3.3 3.3 6 6.3 6 6.6s-2.5 3.3-5.4 6.6l-5.5 6 9.7.3c5.5.2 13.4-.4 18.6-1.3 4.9-.8 9.3-1.5 9.7-1.5 1.1 0 6-9.1 5.3-10.1-1.1-1.8-35.9-23.9-37.6-23.9-.4 0-2 2.5-3.7 5.6m70.3 54.2c-6.2 5.9-7.1 7.3-7.7 11.2-1 7-3.5 14.5-5.9 17.5-2 2.6-2.5 2.7-7.7 2.2-3.3-.3-11.2-2.6-19.1-5.6-15.8-6.1-28.5-8.6-51.6-10.1-8.6-.6-16.6-1.6-17.7-2.2-1.8-.9-2.5-.6-5 2.3-1.6 1.9-4.3 5.4-6 7.8l-3.1 4.5 1.3 12.5c.7 6.9 1.4 12.7 1.5 12.8.2.2 41.3.2 91.5.1l91.2-.3-6.1-7.9c-10.2-13.4-22.9-27.6-35.3-39.9-6.6-6.4-12.3-11.7-12.6-11.7-.3.1-3.8 3.1-7.7 6.8"/></svg>