<svg xmlns="http://www.w3.org/2000/svg" width="682.667" height="512" version="1.0" viewBox="0 0 512 384"><path d="M0 80.1v80.1l3.2-.6c16.2-3 52.8-4.3 75.3-2.7 13.1 1 41.8 4.5 51.9 6.4.5.1 1.3-1.8 1.8-4.3 1-6 3.5-9 9.6-12l5.1-2.5v-5.9c.1-5.6 0-5.8-2.1-5.2-1.3.4-5.3 1-8.9 1.3-7.9.7-13.9-.9-13.9-3.7 0-3.7 7.1-13.9 15.6-22.2l8.6-8.6-1.1-17.5c-1.5-22.5-1.1-24.3 7.5-33.5 6.5-7.1 20-17.2 22.9-17.2.9 0 3.3-1.3 5.3-2.8C189.2 22.7 206 17 216.6 17c7.4 0 12.5 2.4 26 12.2 11.6 8.5 10.8 8.1 15 6.3 6.1-2.5 23.5-7.3 28.9-8 7.6-.9 12.5 2.5 11.2 7.7-1.1 4.3-9.1 14.2-17.6 21.7l-8.2 7.1 7.3 7.8c3.9 4.2 9.2 9.7 11.7 12 2.5 2.4 3.6 3.9 2.4 3.3-1.6-.8-2.2-.8-2.5.1-.3.8-1 .8-2.6-.1-2.8-1.5-2.9-.2-.2 5.7 1.1 2.3 1.4 4 .8 3.6-.8-.5-.9.5-.4 3.4.8 5-.7 5.5-2.4.9l-1.3-3.2-.9 5.2c-.5 3-1.6 5.4-2.4 5.7-1.2.5-1.4.1-1-1.7.3-1.2-.1-.7-.9 1.1-.9 1.9-2.8 4.4-4.3 5.7-2.6 2.3-2.6 2.5-1.2 5.2.9 1.5 3.2 3.9 5.3 5.2 2 1.3 3.7 3.2 3.7 4.1s-1.6 3.2-3.6 5.1c-3 2.9-3.4 3.9-2.9 6.5.4 2.3 0 3.5-1.5 4.9-1.1 1-2 2.5-2 3.3s-1.2 4-2.6 7.1c-5.6 12.2-6.2 13.8-7.8 20.6-2.1 8.8-3.9 11.4-10.5 14.6l-5.2 2.6 5.3 5.2c4.7 4.7 7.7 6.4 25.2 14.1l19.9 8.9 2.9-2.2 2.9-2.2 10.2 5.4c5.6 3 11.3 6.3 12.6 7.3s3 1.8 3.8 1.8 4.4 1.6 8 3.5 7.2 3.5 7.8 3.5c2.1 0 3.7 2.8 3.8 6.6.2 3.6.5 3.9 14.7 12.8 8 5.1 19 12.5 24.5 16.4 6.3 4.5 10.6 7 11.5 6.6 5.9-2.5 10.7-1.4 12.2 2.6.8 2.5 1.5 3 4.2 3 3.5 0 5.4 1.7 7.4 6.2.7 1.7 1.9 2.8 3.1 2.8 2.5 0 5.1 2.6 5.1 5.1 0 1.1 1 3.3 2.1 4.9 1.3 1.7 1.9 3.5 1.5 4.5-.4 1.2 3.1 5.5 13 15.8 14 14.5 32.8 37.1 42.3 51l5.3 7.7H512V0H0z"/><path d="M18 185.5c-6.3.7-13 1.6-14.7 1.9l-3.3.8V384h99c54.5 0 99-.2 99-.3 0-.2.9-3.8 2-8 1.9-7.6 1.9-7.8 0-28.4-1.1-11.5-2.9-26.9-4.1-34.3-2-13.1-2.2-13.6-6-17.7-3.8-4.2-5.6-8.3-4.5-10.2.4-.5.1-2.1-.6-3.6-.9-2-.9-5.5.1-15.8 1.2-12.5 1.2-13.4-.8-17.7l-2-4.5-.1 4c-.1 2.2-.6 5.1-1 6.5-.7 2.2-.8 2.1-.9-1.3-.1-3.8-1.6-5.1-2.4-2-.2 1-.7-2.2-1.2-7-.7-8.1-.1-22.1 1.2-27.5.4-1.9.1-2.2-2.3-2.2-7.7 0-21.4-6.5-29.4-13.8-6.2-5.7-8.6-6.5-34-10.7-31-5.2-68.3-6.8-94-4M285.5 253c1.2 4.1 2.7 6 2 2.5-.4-1.7-1.1-3.5-1.7-4q-1.05-1.05-.3 1.5m51.8 28.8-3.2 5.7 6.2 6.2c7 7.2 7 7.1-1 16.2l-4.5 5.1h8.7c7.3 0 20.6-1.6 30.1-3.5 1.2-.3 2.4-1.3 2.7-2.2.3-1 1.5-3.2 2.6-4.9l2.1-3.2-15.2-9.9c-19.7-12.9-23.6-15.3-24.5-15.3-.5 0-2.2 2.6-4 5.8m77.3 51.7c-.9 1.4-4 4.3-6.8 6.6-5.1 4-5.3 4.3-6.9 12.3-2 10-5.1 16.3-8.6 17.7-3.2 1.2-12-1-27.8-7.1-13.4-5.1-26.4-7.6-47.8-9.1-8.9-.6-17.4-1.4-18.9-1.9-3-.9-4-.1-11 9.3l-4.3 5.8.6 7.9c.3 4.4.8 8.2 1.1 8.5.2.3 41.2.4 91.1.3l90.6-.3-4.5-6c-8.3-11.1-42.1-46.5-44.4-46.5-.4 0-1.5 1.1-2.4 2.5"/></svg>