<svg xmlns="http://www.w3.org/2000/svg" width="682.667" height="512" version="1.0" viewBox="0 0 512 384"><path d="M0 78.6v78.6l2.8-.6c12.7-2.8 52-3.3 76.2-1.1 16.1 1.5 40.2 4.8 43.2 6 1.4.6 2.2-.2 3.7-3.8 2.1-4.8 6.4-8.7 12.5-11.2 2.7-1.1 3.6-2 3.2-3.1-.3-.9-.6-2.8-.6-4.2 0-4.8-.9-5.2-7.5-3.6-7.1 1.6-12.5 1.8-12.5.4 0-.6-1.1-1-2.5-1-7.7 0-1.3-13.3 13.3-27.8l7.3-7.3-1.2-19.3-1.3-19.3 2.7-5.6c4.2-8.4 19.7-22.2 28.7-25.3 1.9-.7 3.4-1.7 3.3-2.1-.3-1.8 21.3-11.8 28.2-13 6.1-1.1 13.7-1.5 17.2-.8 2 .3 9.5 4.7 17.4 10.1l14 9.4 3.7-1.6c7.6-3.3 26.8-8.4 31.4-8.4 15.3 0 13.7 9.4-4.8 27.7l-10.3 10.1 11.2 11.6c6.2 6.4 10.7 11.4 10 11.2-.7-.3-1.5-.1-1.8.4-.3.6-1.5.6-3 0-2.9-1.1-2.9-1.1-.9 3.8.9 2.5 1.4 6.2 1.2 9.8l-.3 5.9-1.6-4.5-1.6-4.5-1.3 6.3c-1.4 6.1-3.8 9.1-2.6 3.2.3-1.9.2-2.9-.4-2.5-.6.3-1 1.3-1 2.2 0 .8-1.4 3.3-3.1 5.4-4.4 5.6-3.6 8.6 3.9 12.9 4.1 2.5 4 4.2-.4 8.7-3.1 3-3.5 4-3 6.8.5 2.4.2 3.6-1.4 5-1.1 1-2 2.8-2 4.1s-.4 2.5-.9 2.8c-.5.4-2.1 3.7-3.6 7.5-1.4 3.8-3.2 7.2-3.9 7.4-.7.3-1.6 2.9-2 5.9-1.7 12.7-4.8 17.9-12.1 20.1l-4.4 1.2 4.2 4.7c3.6 4 6.3 5.5 19.7 11.3 8.5 3.7 18.6 8.3 22.4 10.2l6.8 3.4 2.2-2c3.1-3 5.2-2.6 12.6 1.9 3.6 2.2 7 4 7.6 4s2.8 1.4 4.9 3c2.1 1.7 5 3.3 6.4 3.7 4.6 1.1 18.1 8.4 19.1 10.2.5 1 .8 3 .7 4.5-.2 2.5 1 3.5 12.9 11 7.1 4.5 18.2 11.9 24.4 16.4l11.4 8.1 5.6-.6c5.8-.6 9 .9 9 4.3 0 .7 1.1 1.6 2.5 1.9s3.6.7 4.8 1c1.6.3 2.9 1.7 3.9 4.3 1.2 3 2.2 4 4.5 4.5 2.8.6 6 4.8 4.8 6.6-.2.5.4 1.6 1.5 2.6s2 3.1 2 4.7c0 2.4 2.3 5.4 11.9 15.6 15.9 16.9 24.5 27.1 36.4 42.9l9.9 13.3H512V0H0z"/><path d="M21 182.6c-2.5.2-8.2.9-12.7 1.5L0 185.2V384h98c92.5 0 98.1-.1 98.8-1.7 2.3-5.7-.5-45.4-4.8-68.1-1.8-9.2-2.3-10.5-5.3-13.2-4.4-3.8-7.7-10.8-5.7-12 1.2-.7 1.1-1.2-.3-2.8-2-2.2-2.1-7.2-.4-21.2 1-8 1-10.2-.3-14l-1.4-4.5-1.1 6.5-1.1 6.5-.8-4.3c-.8-4.3-1.9-4.6-2.9-.7-.3 1.1-.6-.9-.7-4.5-.1-4.5-.4-5.9-1-4.5-.8 2-.4-15.3.6-23.2.3-2.4.4-4.6.3-5-.1-.5-3.2-1.3-6.9-1.9-9.2-1.6-17.7-6.3-27-15.1-6.9-6.5-8.3-7.3-14.2-8.7-10.7-2.5-29.4-5.4-44.8-7.1-14.3-1.5-49.2-2.7-58-1.9m263.3 74.3c1.2 2.7 2.3 4.3 2.5 3.5.4-1.6-2.7-8.4-3.9-8.4-.4 0 .2 2.2 1.4 4.9m54.4 24.3c-.9 1.8-2.4 4.5-3.4 6l-1.8 2.8 6.4 6.4 6.4 6.5-1.8 2.8c-1 1.5-3.9 4.9-6.3 7.5l-4.5 4.8 10.9-.1c6 0 15.3-.8 20.7-1.7l9.7-1.7 3-5.2 3-5.2-9.4-6.5c-8.4-5.7-30.2-19.6-30.9-19.6-.2 0-1.1 1.5-2 3.2m71.2 61.1-7.5 7.2-1.2 7.3c-1.9 11.6-6.1 18.2-11.6 18.2-1.7 0-8.3-1.8-14.6-4.1-27.5-9.7-34.2-11.2-60.5-12.9-8.8-.6-17.1-1.3-18.5-1.5-2.2-.4-3.3.6-8.2 7.1-5.6 7.5-5.8 7.8-5.8 14v6.4h182.1l-2.3-2.9c-13.8-17-41.3-46.2-43.4-46.1-.5.1-4.3 3.3-8.5 7.3"/></svg>