<svg xmlns="http://www.w3.org/2000/svg" width="682.667" height="512" version="1.0" viewBox="0 0 512 384"><path d="M0 76.5v76.6l3.3-.6c25.6-4.3 68.2-2.8 106.2 3.6 11.5 1.9 12 2 13.2.2 2.9-4.1 6.8-7.3 11-9l4.5-1.8-.4-5.2c-.3-2.9-.7-5.5-.9-5.8-.3-.2-2.9.2-5.9 1-6.4 1.7-13 1.9-13 .5 0-.6-1.4-1-3.1-1-3.1 0-3.2 0-2.7-4.3.7-5.7 5.5-13.1 15.4-23.7l8-8.5-.7-6c-.4-3.3-1-11.9-1.4-19.1-.7-12.7-.7-13.3 1.8-18.5 1.4-3 4.2-7.2 6.3-9.5 5.3-5.6 18.3-15.1 21.7-16 1.6-.3 3.9-1.7 5.2-3 6.2-6.2 26.8-13.8 37.6-13.8 7.7 0 12 1.9 27.5 12.6l10.1 7 3.1-1.6c1.6-.8 6.8-2.7 11.4-4 4.5-1.3 9.6-2.9 11.1-3.5 4.3-1.7 15.8-1.4 18.5.5 5 3.5 1 11.4-12.7 25.7l-10.6 10.9 11.7 11.4c6.5 6.3 11.5 11.4 11.2 11.4s-1.5-.5-2.7-1.2c-2-1-2.1-1-.8.5 1.6 2 .8 2.2-2.1.6-2.8-1.5-3-.9-1.2 4.3.8 2.6 1.4 6.6 1.2 9l-.4 4.3-1.6-3.5c-1-2.1-1.7-2.8-1.8-1.7 0 2.7-2.4 9.7-3.2 9.7-.5 0-.8-1-.9-2.3-.1-2-.2-1.9-.9.5-.4 1.5-2 4.3-3.6 6.3-2.6 3.5-2.7 3.9-1.3 6.4.8 1.4 3.1 3.7 5.2 5 2 1.3 3.7 3.1 3.7 4 0 .8-1.4 3-3.2 4.8-2.6 2.7-3.1 4-3 7.1.2 2.8-.3 4.3-1.8 5.7-1.1 1-2 2.8-2 4.1s-.9 3.8-1.9 5.6-2.2 4.8-2.6 6.6-1.7 3.9-3 4.8c-1.8 1.2-2.4 2.7-2.9 8.1-1 10-3.6 14.9-8.8 17.3-2.4 1.1-5.2 2-6.3 2-1.7 0-1.5.5 1.5 3.4 2.4 2.3 8.9 5.8 19.9 10.7 9.1 4 20.2 9.1 24.8 11.4 8 4 8.3 4.1 9.9 2.3 2.4-2.6 7.4-2.3 11.5.8 1.9 1.4 5.3 3.5 7.6 4.5 2.3 1.1 5.5 3 7 4.3s4.2 2.6 5.8 3c1.7.4 4.6 1.7 6.5 3s5.2 2.8 7.3 3.5c4.2 1.4 6 3.9 5.5 8.1-.2 2.7.6 3.4 11.7 10.5 13.7 8.8 34.2 23.1 35.1 24.7.4.6 2.8.7 6.5.3 6.5-.8 8.4.1 10 4.2.6 1.8 1.6 2.3 4.2 2.3 3.8 0 6.1 2 7.1 6.3.4 1.7 1.3 2.7 2.4 2.7 2.8 0 6.2 2.9 6.2 5.4 0 1.3.9 3.5 2.1 5 1.3 1.7 1.9 3.6 1.7 5.1-.4 1.9.7 3.5 4.9 7.7 13.9 13.5 37.5 41.5 47.7 56.6l5 7.2H512V0H0z"/><path d="M22 179c-6.9.4-14.6 1-17.3 1.5l-4.7.7V384h194.9l1-3.8c.6-2 1.1-6.3 1.1-9.6 0-9.6-2.9-36.1-5.7-51.1-2.5-13.8-2.6-14.1-6.9-18.7-5.5-5.9-7.4-9.6-5.4-10.8 1.2-.7 1.1-1.2-.4-2.9-1.7-1.9-1.8-3.1-1-15.8 1-15 .9-19.9-.5-23.5-.7-1.9-1-1.2-1.6 4-.9 7.6-2.1 7.7-2.4.1-.1-1.9-.5-2.8-1.2-2.3-.6.3-.9 1.5-.6 2.5.3 1.1.1 1.9-.4 1.9-1.1 0-1.3-1.2-.9-6.4.1-2.8-.1-3.6-1-3.1-1 .6-1.1-1.9-.7-11.1.4-6.6.8-13 .9-14.4.3-2.3-.1-2.5-3.7-2.6-12.3-.5-29.4-11.4-38.7-24.7-2-2.8-4.9-3.7-24.8-7.1-26.4-4.5-58.2-6.7-80-5.6m255.1 66c1.4 3.1 1.9 3.6 1.9 2.4 0-.6-.7-1.9-1.6-3-1.4-1.8-1.4-1.8-.3.6m4.9 1.6c0 .5.7 1.8 1.5 2.8 1.2 1.6 1.5 1.7 1.5.4 0-.8-.7-2.1-1.5-2.8s-1.5-.9-1.5-.4m1.1 9.9c3.8 8.7 5 10 3.4 4-.6-2.6-2.3-6.1-3.8-7.9l-2.6-3.1zm53.4 25.7c-1.6 2.9-3.2 5.6-3.3 6.1-.2.4 2.5 3.4 5.9 6.6 7.5 6.8 7.5 6.9-1.6 16.8l-5.7 6.3h8.4c7.2 0 22.6-1.8 30.9-3.5 1.8-.4 3.7-2.3 5.9-5.7l3.2-5.2-2.4-1.8c-5.1-4-36.9-24.8-37.9-24.8-.2 0-1.7 2.4-3.4 5.2m77.6 54.6c-1.1 1.6-4.4 4.7-7.4 7-5.2 4.1-5.3 4.2-6.6 11.8-1.4 8.3-2.4 11.3-5.4 15.6-2.6 4-8.5 3.8-21.2-.8-26-9.3-33-10.8-59.5-12.4-9.1-.6-17.6-1.3-19-1.5-2.2-.5-3.3.4-8.3 7.2-5.5 7.5-5.7 7.9-5.7 14v6.3h90.5c49.8 0 90.5-.3 90.5-.8 0-2.3-42.9-49.2-45-49.2-.5 0-1.8 1.3-2.9 2.8"/></svg>