<svg xmlns="http://www.w3.org/2000/svg" width="682.667" height="512" version="1.0" viewBox="0 0 512 384"><path d="M0 74.6c0 70.5.1 74.5 1.8 74 .9-.2 8.4-1 16.7-1.7 23.3-1.9 58.1.3 89.4 5.6 10.9 1.8 13.8 2 14.6 1 2-2.4 9.8-7.5 11.7-7.5 1.5 0 1.8-.8 1.8-4.8 0-7.1-.6-7.5-7.5-5.7-7.4 1.9-13.5 2-13.5.2 0-.8-1-1.3-2.2-1.3-1.9.1-2.4-.5-2.6-3.1-.5-5.5 5.4-14.6 17.3-26.9l5.7-5.8-1.2-9.5c-.6-5.3-1.3-14-1.7-19.3-.5-8.8-.3-10.1 1.9-15 1.4-2.9 4.9-7.8 7.9-10.9 6.3-6.5 17.6-14.9 20-14.9.9 0 3.1-1.4 4.9-3.1 7.4-7.1 32.5-15.8 41.2-14.4 4.9.9 14.5 5.8 25.2 13.2 8.7 5.9 8.4 5.8 17.6 2.4 11.6-4.2 19.7-6.4 26.2-6.9 6.1-.4 6.8-.3 9.2 2.1 4.7 4.7 1.1 12.1-13.1 26.8l-9.3 9.6 11.6 11.2c6.3 6.2 10.6 10.8 9.5 10.2-2.8-1.5-3.6-1.4-2.1.4s.7 1.9-2.2.4c-2.8-1.5-3.1-.8-1.2 3.6 1.7 4.1 2.5 13.5 1.2 13.5-.4 0-.8-.6-.8-1.3s-.7-2.2-1.5-3.3c-1.5-1.8-1.5-1.8-.9.8.4 1.8.2 2.8-.5 2.8-.6 0-1.1 1.3-1.1 3 0 1.9-.5 3-1.4 3s-1.2-.9-.9-2.8c.3-2.1.1-1.8-1 1.1-.8 2-2.6 5.2-4 7-2.3 3-2.4 3.5-1.1 6 .8 1.5 3.2 3.6 5.4 4.7 4.8 2.5 5.1 4.6 1 8.5-2.6 2.5-3 3.6-2.8 7.4.1 3.5-.3 4.7-2 6.1-1.3 1.1-2 2.4-1.6 3.4.3.8-.3 3-1.4 4.8s-2.6 5.3-3.3 7.7c-.7 2.3-2.3 4.9-3.5 5.7-1.7 1.2-2.3 2.8-2.8 8.3-.4 3.9-1.7 8.8-2.9 11.2-1.8 3.6-3.1 4.8-7.5 6.5-5 2-5.1 2.2-3.4 3.7 1 1 6.1 3.5 11.3 5.8 5.2 2.2 17.2 7.7 26.7 12.1 16.2 7.6 17.3 8 19 6.4 2.9-2.5 6.2-1.9 12.6 2.4 3.2 2.2 6.4 4 7.1 4s2.9 1.3 5 3c2.1 1.6 5.4 3.4 7.4 4 2 .5 5.2 2.1 7.1 3.5s4.1 2.5 5 2.5c3.5 0 6 3 6 7.3v4.2l11.5 7.4c6.4 4 17.3 11.5 24.4 16.7l12.8 9.3 5.6-.6c5.6-.6 5.6-.6 7.7 3 1.5 2.6 2.6 3.4 4 3 2.9-.8 6.8 2.2 7.8 6 .6 2.5 1.4 3.3 3.5 3.5 3 .4 5.7 3.6 5.7 6.8 0 1.1.9 2.9 2 3.9 1.4 1.3 1.8 2.5 1.4 4.2-.6 2.1.5 3.6 6.3 9.6 16.1 16.6 32.7 36.7 45.7 55.4l5.8 8.3H512V0H0z"/><path d="M135.7 149.4c-.4 1-.5 2.1-.2 2.4.9.9 1.7-.6 1.3-2.5-.3-1.7-.4-1.7-1.1.1M21.5 175c-7.7.4-15.7 1.1-17.8 1.5l-3.7.7V384h193.9l1.2-4.3c2.2-8 0-36.5-4.7-61.6l-2.5-13.3-4.8-4.7c-4.8-4.6-7.4-10.2-5.1-10.9.7-.3.5-1.1-.6-2.3-1.5-1.7-1.6-3.6-1-18.4.6-16.3.3-21.5-1.6-21.5-.5 0-.7.4-.4.8.3.5.1 3-.3 5.8-.7 4.3-.9 4.6-1.4 2.1-2.1-8.6-2-8.4-2.4-6-.7 4-2.3 2.4-2.3-2.3 0-3.2-.3-4.3-1.2-3.8-.8.5-1-2.3-.5-11.2.4-6.5 1-12.9 1.3-14.2.6-2 .3-2.2-3.7-2.2-13.1-.1-34.6-14.6-39.6-26.5-1.2-3.1-2.5-4.6-4.3-5-6.4-1.6-30.8-5.7-42-6.9-11.2-1.3-16.9-1.8-37-3-3-.2-11.8 0-19.5.4M276 244c.6 1.1 1.3 2 1.6 2 .2 0 0-.9-.6-2s-1.3-2-1.6-2c-.2 0 0 .9.6 2m4-.3c0 .5.7 1.9 1.6 3.1.8 1.2 1.7 3.2 1.9 4.5.3 1.9 0 1.7-2.6-1.3l-3-3.5 3.8 8.2c2.1 4.6 4.2 8.3 4.6 8.3 1 0-.1-6-1.4-7.6-.5-.6-.6-2.1-.4-3.4.7-3.4-.5-6.9-2.6-8.1-1.1-.5-1.9-.6-1.9-.2m55.6 37.1-3.5 5.7 6.5 6.6 6.5 6.6-2.7 3.4c-1.5 1.9-5 5.8-7.8 8.6l-5 5.3h8.7c7.6 0 32.8-3.3 34.9-4.6.4-.3.8-1.1.8-1.7 0-.7 1.1-2.9 2.5-4.9l2.5-3.7-8.7-6.3c-8.3-6-12.2-8.6-25.5-17.1l-5.7-3.6zm74.4 57.1c-2.5 2.6-5.7 5.6-7.2 6.6-2.3 1.7-3 3.5-4.7 11.8-2.3 11.4-5.4 16.7-9.9 16.7-3.2 0-11.6-2.4-27.2-7.9-13.8-4.8-24.8-6.7-47.5-8.1-9.3-.6-18.2-1.2-19.6-1.5-2.3-.3-3.3.5-8.4 7.6-5.7 7.9-5.7 8-5.3 13.9.2 3.3.7 6.2 1 6.5.2.3 40.9.4 90.3.3l89.8-.3-6.7-8.5c-11.4-14.4-37.7-42.3-39.6-41.8-.3 0-2.5 2.2-5 4.7"/></svg>