<svg xmlns="http://www.w3.org/2000/svg" width="682.667" height="512" version="1.0" viewBox="0 0 512 384"><path d="M0 72.8v72.9l5.7-1c8.5-1.6 53.5-1.4 68.8.2 7.2.7 20.8 2.6 30.3 4.2l17.3 2.8 4.7-3c2.5-1.6 5.5-2.9 6.5-2.9 1.8 0 1.9-.5 1.2-5.8-.4-3.1-.8-5.8-1-6-.1-.1-3.1.4-6.6 1.3-7.4 1.7-12.9 1.9-12.9.5 0-.6-1.1-1-2.5-1-3 0-4.2-3.5-2.7-7.9 1.7-4.8 8.4-14 15.7-21.5l6.7-6.9-1.8-18.8c-1.6-18-1.6-19 .1-23.4.9-2.6 3.9-7.2 6.5-10.4 5.5-6.6 19-17.3 22.2-17.6 3.7-.4 3.8-.4 3.8-1.8 0-2.7 14.2-9.9 26.8-13.6 14.3-4.3 19.2-3 39 10l10.3 6.7 4.7-2c9-4 26.4-8.8 31.8-8.8 4.1 0 5.9.5 8 2.4 2.7 2.2 2.7 2.5 1.6 6.3-1.7 5.7-6.3 12.2-15.6 21.8l-8.3 8.6 11.1 10.6c6.1 5.9 10.2 10.4 9.2 10-1.6-.6-1.7-.5-.6.8 1.5 1.8 1.1 1.9-2.4.5-3-1.1-3.1-.6-1 4.5.8 2.1 1.4 5.7 1.2 8.3l-.4 4.7-1.6-3.5c-1-2.1-1.7-2.8-1.8-1.7 0 2.6-2.4 9.7-3.2 9.7-.4 0-.9-1-1.1-2.3-.4-2.2-.4-2.2-.6.2 0 1.3-1.5 4.1-3.3 6.3-3 3.8-3.1 4.2-1.7 6.7.8 1.4 3.4 3.6 5.7 4.9s4.2 3 4.2 3.8-1.6 3.2-3.6 5.3c-3.1 3.5-3.4 4.4-2.9 7.5.6 2.8.3 3.8-1.4 5.2-1.2 1-2.1 3-2.1 4.4s-.7 3.5-1.4 4.6c-.8 1.2-2 4.2-2.7 6.7-.7 2.8-2 5.2-3.4 6.1-1.7 1.1-2.4 2.8-2.9 7.3-.4 3.2-1.2 7.4-1.7 9.5-1.1 4.3-6.4 9.3-10.9 10.3-1.8.4-2.8 1.1-2.3 1.5.4.4 7 3.5 14.6 6.9s20.3 9.3 28.2 13.2c13.7 6.6 14.6 6.9 16.7 5.5 3.4-2.4 6.6-1.9 11.9 1.9 2.7 1.9 5.9 3.7 7.3 4.1 1.3.3 3.7 1.8 5.2 3.3 1.6 1.6 5.3 3.6 8.1 4.5 2.9 1 5.5 2.2 5.9 2.7.3.6 3 2.1 6 3.4s5.5 3 5.5 3.7c.1.7.2 2.7.3 4.4.1 2.9 1.2 4 14.3 12.7 7.9 5.3 18.7 12.9 24 17 7.7 5.8 10.2 7.2 11.8 6.6 1.1-.4 3.5-.8 5.3-.8 2.7-.1 3.6.5 5.3 3.4 1.6 2.6 2.8 3.5 4.8 3.5 3.6 0 6 1.9 6.9 5.4.6 2.1 1.7 3.2 3.8 3.8 3.4.9 5.4 3.3 5.4 6.3 0 1.2.9 3 2.1 4.1 1.5 1.4 1.9 2.6 1.5 4.9-.5 2.7 0 3.7 4.5 8 13.6 13.3 39.8 45.5 49.4 60.7l3 4.8H512V0H0z"/><path d="M134.2 151c0 1.4.2 1.9.5 1.2.2-.6.2-1.8 0-2.5-.3-.6-.5-.1-.5 1.3m-125 21.2-9.2 1V384h193.6l1.4-6.2c2.1-9.5-.6-39.2-5.8-64.6-1.9-8.8-2.2-9.5-6.2-12.9-4.9-4.2-7.9-10.1-5.9-11.4 1.1-.6 1-1.2-.3-2.6-2.1-2.4-2.4-6.2-1.4-22.3.4-8.3.4-14.5-.2-16-.9-2.2-1.1-1.6-1.8 4-.7 6.6-2.2 6.2-2.3-.7-.1-3.8-2.1-5.6-2.1-1.9 0 1.4-.4 2.8-1 3.1-.6.4-1-1.6-1-5.4 0-3.3-.5-6.1-1.1-6.3-.7-.2-.8-4.1-.2-12.5l.8-12.1-6-.6c-15.8-1.5-36.3-17.8-39-30.8-.6-3.2-2.1-3.7-22.2-7.3-29.1-5.2-69.8-7.6-90.1-5.3m270.5 72c1.7 2.4 3.3 5.4 3.6 6.8.5 2.3.3 2.2-2.4-1-1.6-1.9-2.9-3.1-2.9-2.7 0 1.7 7.5 15.5 8.2 15.1.8-.5.1-4.8-1-6.8-.3-.6-.6-3.1-.7-5.6-.2-5.6-.7-6.5-4.7-8.6l-3-1.6zm-4.7-1.3c.5 1.1 1.5 2.3 2.1 2.7.6.3.3-.5-.6-2-2-3-3-3.5-1.5-.7m60.5 36.3c-1.6 2.9-3.1 5.6-3.3 5.9-.2.4 2.4 3.3 5.8 6.4 3.3 3.2 6 6.4 6 7.1s-3.4 4.9-7.6 9.3c-8.6 9.2-9.1 8.4 5.2 8.1 8.2-.1 29.2-3.4 30.4-4.6.4-.5 1.9-3 3.4-5.6l2.7-4.6-7.3-5.4c-6.4-4.8-31.5-21.8-32.1-21.8-.1 0-1.5 2.4-3.2 5.2m73 58.6c-3.3 3.2-6.8 6.3-7.8 6.8-1.2.7-2.1 3.1-2.8 7.5-1.4 9.1-3.6 15.3-6.4 17.9-3.2 3-7.7 2.4-23.3-3.1-6.4-2.3-15.1-5-19.2-6-7.5-2-27.8-4.2-48.2-5.3l-10.6-.7-5.1 7.1c-5.1 6.9-5.1 7-5.1 14.5v7.5h90.1c72 0 90-.3 89.2-1.3-9-12-22.6-27.8-32.4-38l-12.4-12.8z"/></svg>