<svg xmlns="http://www.w3.org/2000/svg" width="682.667" height="512" version="1.0" viewBox="0 0 512 384"><path d="M0 72.1v72.1l9.3-.9c5-.4 19.1-.8 31.2-.7 23.8 0 42.1 1.7 66.7 6l14.6 2.6 6.1-2.8 6-2.9v-5.8c.1-6.4.4-6.3-8.4-4.2-6.8 1.7-12.9 1.9-12 .6.3-.5-.7-1.1-2.2-1.3-2.3-.2-2.9-.8-3.1-3.5-.5-5 4.8-13.8 14.3-24.1l8.4-8.9-1.4-14.9c-1.9-19.7-1.8-24 .5-29.3 3.4-7.5 22.7-25.4 27.8-25.7.9-.1 3.2-1.5 5-3.2 7.1-6.6 27.4-14.2 38.1-14.2 7.3 0 10.6 1.5 26.2 11.8 8 5.3 11 6.7 12.2 6 .9-.5 7.7-2.9 15.1-5.3 33.4-11.1 39.3-1 14.6 24.8l-9 9.5 11.2 10.8c6.2 5.9 10.4 10.5 9.4 10.1-1.7-.7-1.7-.6-.5.9s1.1 1.6-1.1.9c-1.4-.4-3.1-1-3.7-1.2-1.7-.7-1.6.2.3 3.8 1.8 3.7 3 15.4 1.4 14.4-.5-.3-1-1.2-1-1.9s-.6-2.1-1.4-3.2c-1.5-1.9-1.5-1.9-1.5.1.1 2.4-1.7 9.4-2.5 10.2-.3.4-.6-.9-.6-2.8l-.1-3.4-1.4 3.8c-.7 2.2-2.3 4.9-3.4 6.1-1.2 1.2-2.1 2.9-2.1 3.7 0 2.5 3 5.8 7.1 7.9 2.1 1.1 3.9 2.5 3.9 3 0 .6-1.6 2.8-3.6 5-3.3 3.6-3.6 4.4-3 7.9.5 3.3.2 4.2-1.7 5.8-1.3 1-2.1 2.6-1.9 3.7.2 1-.5 3.5-1.6 5.5s-2.3 5.1-2.7 6.9c-.4 1.9-1.9 4.2-3.5 5.3-2.4 1.8-2.8 2.9-3.2 8.9-.7 9.7-3.1 13.9-9.6 17.1l-5.3 2.6 13.3 5.8c7.3 3.2 20.4 9.3 29.2 13.6 14.7 7.3 16 7.7 17.9 6.4 3.4-2.4 7.5-1.8 11.7 1.5 2.1 1.7 5.3 3.7 7.2 4.4 1.8.8 5 2.8 7.2 4.5 2.1 1.7 4.6 3.1 5.5 3.1 1 0 3.7 1.3 6.2 2.8 2.4 1.5 5.9 3.4 7.7 4.1 4 1.7 5.4 4 4.6 7.8-.5 2.6 0 3.2 10.1 9.7 5.9 3.8 16.8 11.5 24.3 17 12.9 9.6 13.9 10.1 16.9 9.3 4.7-1.4 8.3-.1 9.6 3.3.9 2.4 1.7 3 4.2 3 4 0 6.3 1.7 7.3 5.4.6 2.1 1.7 3.2 3.6 3.7 3.3.9 5.5 3.5 5.6 6.5 0 1.1.9 2.9 2 3.9 1.6 1.4 1.9 2.6 1.4 4.8-.5 2.6.1 3.7 5.8 9.6 14.7 15.1 30.6 34.5 43.2 52.9l7.8 11.2H512V0H0z"/><path d="M134.1 150.6c0 1.1.3 1.4.6.6.3-.7.2-1.6-.1-1.9-.3-.4-.6.2-.5 1.3M20 170.6c-1.4.2-6.4.6-11.2.9l-8.8.7V384h192.9l1.7-5.8c1.5-5.1 1.6-7.3.5-21.7-1.3-16-3.9-34.5-6.7-46.4-1.2-5.4-2.1-7-5.8-10.2-4.9-4.3-7.5-9.4-5.8-11.1.8-.8.5-1.9-1-3.9-2.1-2.7-2.1-3.2-.8-17.7 1.2-14.3.9-19.2-1-19.2-.5 0-1 2.4-1.2 5.2-.4 5.6-.9 4.8-2.4-3.7l-.7-4-.8 4.4c-1.3 6.8-1.9 6.1-2-2 0-5.4-.3-6.9-1-5.4-.6 1.3-.8-2.9-.4-12.1l.5-14.1-5.7-.6c-12.8-1.3-31.9-14.4-36.9-25.2-1.3-2.8-2.4-5.7-2.4-6.6 0-2.8-2.1-3.6-16.5-6.3-31.6-5.8-68.7-8.9-84.5-7m260 73.8c1.6 2.5 3 5.1 3 5.9s.8 2.1 1.7 2.8c1.5 1.2 1.6 1.2 1-.4-.4-1-1-3.7-1.3-5.8-.5-3-1.4-4.3-3.5-5.4-4.2-2.2-4.3-1.9-.9 2.9m-2.5 2.6c2 3.6 4.5 8.7 5.7 11.3 1.5 3.4 2.4 4.4 2.9 3.5 1.3-1.9.1-4.7-4.5-10.8-2.2-3.1-4.9-6.7-5.9-8-.9-1.4-.1.4 1.8 4m57.6 32.6-3.3 5.6 6.2 6.3 6.3 6.3-2.4 3.4c-1.3 1.8-4.8 5.9-7.8 9l-5.4 5.8h9.4c8.7 0 28-2.3 32.2-3.8.9-.4 3.1-3 4.7-5.9l3-5.2-7.3-5.4c-7.1-5.2-31.4-21.7-31.9-21.7-.2 0-1.8 2.6-3.7 5.6m73.4 58.2c-2.7 2.6-6 5.4-7.3 6.2-1.8 1.2-2.7 3.4-4.1 10.6-4 19.4-6.2 20.3-29.1 12.3-6.3-2.3-14.6-4.9-18.5-6-7.4-2-28.2-4.4-47.6-5.4l-11.6-.6-5.2 6.9c-5.1 6.9-5.1 7-5.1 14.6v7.6h89.5c49.2 0 89.5-.4 89.5-.8 0-3-42-50.2-44.7-50.2-.4 0-3 2.2-5.8 4.8"/></svg>