<svg xmlns="http://www.w3.org/2000/svg" width="682.667" height="512" version="1.0" viewBox="0 0 512 384"><path d="M0 71.2v71.3h36.2c38.4 0 50.7 1 77.3 6.5l9.6 2 3.7-2.5c2-1.4 4.5-2.5 5.4-2.5 1.5 0 1.8-.9 1.8-5.4 0-3-.4-5.7-.9-6-.5-.4-3.8.1-7.3.9-7.2 1.7-12.8 1.9-12.8.6 0-.5-1-1.1-2.2-1.3-1.9-.2-2.4-1-2.6-4.1-.5-5.4 3.7-12.3 14-23.2l8.8-9.3-1-7.8c-3-24.2-3-30.6-.1-36.7 3.6-7.4 21.5-24.1 27-25.2 1.2-.2 4.1-2 6.5-3.9 8.5-7 26.5-13.7 37.1-13.8 6.5-.1 11.3 2.1 25.7 11.5 10.7 6.9 11.7 7.3 13.9 6.1 1.3-.7 8.1-3.2 15.1-5.5 14.4-4.6 21.9-5.3 26.3-2.5 2.4 1.6 2.7 2.3 2.2 5.8-.7 5.2-6.1 13.1-15.8 23.3l-7.9 8.2 11.1 10.8c6.1 5.9 10.1 10.4 8.9 10-1.7-.5-2-.4-1.5.5.6 1 .1 1.1-1.9.6-3-.7-3.1-.5-1.1 3.5 1.5 2.7 3 14.9 1.9 14.9-.3 0-1.3-1.9-2.3-4.2l-1.8-4.3-.7 5c-.8 6.2-2.6 9.5-2.6 5 0-2.9-.1-2.8-2.1 1.5-1.1 2.5-2.9 5.4-3.9 6.5-1.9 2-1.9 2.1 0 5.3 1.1 1.8 3.6 4 5.5 4.9 4.4 2.1 4.5 4.4.5 9-2.5 2.8-3 4.2-2.8 7.5.1 3-.3 4.4-1.7 5.5-1.3.9-1.9 2.3-1.7 3.9.2 1.4-.3 3.3-1.1 4.2s-2.2 4.1-3.2 7c-1 3.2-2.6 5.9-4.1 6.9-1.7 1.1-2.4 2.4-2.4 4.9 0 10.2-4.2 18.3-10.8 21.1-1.9.8-3.3 1.6-3.1 1.8s6.5 3 14 6.3c7.5 3.4 20.5 9.5 28.8 13.7 13.6 6.8 15.3 7.4 16.7 6 2.5-2.5 7.5-1.8 11.6 1.5 2 1.6 5.6 3.8 8 4.9 2.3 1 5.1 2.8 6.2 3.9 1 1.2 3.1 2.4 4.6 2.7s4.9 1.9 7.4 3.5 5.7 3.2 7 3.6c3.9.9 5.9 3.9 5.3 7.6-.5 3.2-.3 3.4 10.1 10.3 5.8 3.8 16.7 11.5 24.2 17 13.1 9.8 13.6 10 17.1 9.1 4.6-1.1 6.5-.4 8.7 3.4 1.3 2.3 2.4 3 4.9 3 3.2 0 7.3 3.7 7.3 6.6 0 .7 1.7 2.1 3.8 3.1 2.5 1.2 4 2.8 4.7 4.9.6 1.7 1.6 3.9 2.4 4.8s1.4 3.2 1.5 5c.1 2.9 1.9 5.4 11.8 16.2 14.1 15.5 26.9 31.6 36.9 46.4l7.4 10.9 11.3.1H512V0H0z"/><path d="M134.1 150.6c0 1.1.3 1.4.6.6.3-.7.2-1.6-.1-1.9-.3-.4-.6.2-.5 1.3M18.5 170.1c-7.2.3-14.2.7-15.7.8L0 171v213l96.7-.2 96.7-.3 1.5-6c1.3-5.4 1.3-8-.2-25-1-10.5-3.1-25.7-4.7-33.9-2.9-14.8-3-14.9-7-18.3-4.8-4.1-7.3-8.6-6.5-11.4.4-1.3 0-2.8-1.1-4-1.8-1.9-1.7-6.7.2-27.9.4-5 .2-6.9-1-8.5-1.4-1.9-1.5-1.7-1.6 3.3 0 6.6-1.5 6-2.5-1l-.8-5.3-1.1 4.5-1.1 4.5-.5-7c-.3-4.5-.8-6.3-1.2-5-.4 1.1-.6-4.4-.4-12.3l.4-14.2h-3.2c-8.6 0-23.2-7.1-31.5-15.2-5.6-5.5-8.7-10.5-10.2-16.2-.6-2.6-1.8-4.8-2.8-5-13.2-4.1-72.6-11.4-84.6-10.4-1.1.1-7.8.5-15 .9M280 244.4c1.6 2.5 3 5.1 3 5.9s.7 2 1.5 2.7c1.8 1.5 1.8 1.5.4-5-.8-4-1.7-5.3-3.9-6.5-4.3-2.2-4.4-1.9-1 2.9m-.2 7.3c3.4 6.6 6 10.6 6.4 10 1.4-2.1.9-3.3-3.9-9.9-2.7-3.5-5.6-7.5-6.5-8.9-.9-1.3.9 2.6 4 8.8m55.3 27.9-3.3 5.6 6.2 6.3 6.3 6.3-2.4 3.4c-1.3 1.8-4.8 5.9-7.8 9l-5.4 5.8h8.6c7.3 0 24.9-1.9 32.4-3.5 1.3-.3 3.3-2.5 5.1-6l3-5.5-7.1-5.3c-6.9-5.1-31.3-21.7-31.9-21.7-.2 0-1.8 2.5-3.7 5.6m76.5 55.1c-1 1.4-4.4 4.5-7.6 7-5.4 4.1-5.8 4.8-6.4 9.6-1.1 8.4-4.5 17.6-7.2 19.4-3.4 2.2-8.9 1.1-25.7-4.8-19.9-7-28.4-8.4-63.8-10.5l-10.6-.6-5.1 6.9-5.2 6.8V384h179.1l-2.2-3.3c-7.7-10.9-38.9-46.3-42.4-48-.6-.2-1.8.7-2.9 2"/></svg>