<svg xmlns="http://www.w3.org/2000/svg" width="682.667" height="512" version="1.0" viewBox="0 0 512 384"><path d="M0 71.1v71.2l4.7-.7c19.1-2.4 57.2-1.6 83.3 1.9 10.6 1.4 31 5 34.3 6.1.9.3 3.2-.4 5.1-1.5 1.8-1.2 4.1-2.1 5-2.1 1.3 0 1.6-1.1 1.6-5.4 0-3-.4-5.7-1-6.1-.5-.3-4.8.2-9.5 1.2-8.4 1.7-8.7 1.7-10-.1-.8-1.1-2.1-1.6-2.9-1.3-1 .4-2-.2-2.7-1.4-2.3-4.4 3.4-14.2 15.8-27.3 6.1-6.4 7.2-8 6.8-10.3-.3-2.4-1.2-10.6-2.6-24.8-.7-7.4-.1-12.5 2.1-17 3.9-8.2 23.2-25.5 28.3-25.5 1.1 0 2.8-1.1 3.9-2.5 2.5-3.2 18.2-10.9 26.4-12.9 3.4-.9 9-1.6 12.3-1.6 7.3 0 9.7 1.1 25.7 11.5 10.4 6.8 11.3 7.1 13.5 5.9 1.3-.8 6.2-2.5 10.9-4 4.7-1.4 10.4-3.2 12.8-4 2.3-.8 7-1.4 10.2-1.4 15 0 12.7 11.1-6.2 30.6l-7.9 8.1 8.3 8c4.6 4.4 9.7 9.3 11.3 10.7 2.8 2.5 2.8 2.7.6 2-1.7-.4-2.1-.3-1.6.6.6 1 .1 1.1-1.9.6-3-.7-3.1-.5-1.1 3.5 1.5 2.7 3 14.9 1.9 14.9-.3 0-1.3-1.9-2.3-4.2l-1.8-4.3-.7 5c-.8 6.2-2.6 9.5-2.6 5 0-2.9-.1-2.8-2.1 1.5-1.1 2.5-2.9 5.5-4.1 6.7l-2 2.2 2.2 3.1c1.2 1.7 3.9 3.9 6.1 5 2.1 1.1 3.9 2.4 3.9 2.9s-1.6 2.8-3.5 5.1c-2.8 3.4-3.5 5-3.5 8.6 0 3.2-.5 4.6-1.9 5.3-1.3.7-1.7 1.8-1.3 3.6.2 1.5-.2 3.3-1.1 4.3-.8.9-2.1 3.7-2.8 6.2-1.4 5-3.5 8-5.6 8-.8 0-1.3 1.2-1.3 3.4 0 10.5-3.9 19.1-9.9 21.6-1.7.7-3.1 1.5-3.1 1.9 0 .3 4 2.3 8.8 4.4s17.7 8.2 28.7 13.7c17.7 8.8 20.1 9.8 21.5 8.5 2.7-2.5 7.8-1.8 11.9 1.4 2.1 1.7 5 3.5 6.7 4.2 1.6.7 4.3 2.5 5.9 4 1.7 1.5 4.8 3.2 7 3.9s5.4 2.3 7.1 3.6c1.7 1.2 4.3 2.6 5.8 3 3.8.9 6.6 4.9 6 8.3-.6 2.7.2 3.3 12.3 11.6 7 4.9 17.3 12.3 22.9 16.5 12.7 9.7 11.8 9.2 14.9 8 3.7-1.4 7.2-.3 9.2 3.1 1.2 2 2.5 2.9 4.3 2.9 3.6 0 6.2 2.1 7.5 6.1.9 2.6 1.8 3.5 3.8 3.7 3 .4 5.7 3.6 5.7 6.8 0 1.2.7 2.7 1.5 3.4s1.5 2.9 1.5 4.9c0 3.1.8 4.5 5.1 8.6 10.6 10.4 36.3 42.6 46.4 58.2l4 6.2 11.8.1H512V0H0z"/><path d="M134.1 150.6c0 1.1.3 1.4.6.6.3-.7.2-1.6-.1-1.9-.3-.4-.6.2-.5 1.3M11 168.6c-1.4.3-4.4.7-6.7 1l-4.3.5V384l96.7-.2 96.7-.3 1.5-6c1.3-5.4 1.3-8-.2-25-1-10.5-3.1-25.7-4.7-33.9-2.9-14.8-3-14.9-7-18.3-4.9-4.2-7.2-8.5-6.5-11.6.4-1.5.1-2.8-.9-3.6-1.9-1.6-2-7-.5-21.1 1.1-10.2.6-17-1.1-17-.6 0-1 2.3-1 5.1 0 3.1-.4 4.8-1 4.4-.5-.3-1-1.9-1-3.5 0-1.5-.3-3.6-.7-4.6-.5-1.4-.9-.9-1.9 2.2l-1.2 3.9-.2-7c-.1-5.2-.4-6.5-1.1-5-.6 1.3-.8-2.8-.5-12.1l.4-14.1-6-.7c-16-1.6-35.5-17.1-38.9-30.8-.6-2.6-1.6-5.2-2.3-5.7-2.6-2.1-32.4-7.3-55.5-9.6-13.7-1.3-45.4-1.9-52.1-.9m269 76.1c1.7 2.6 3 5.2 3 5.7 0 .6.8 2 1.6 3.1 1.5 1.9 1.6 1.7 1-3.3-.9-6.9-1.3-7.7-4.2-9.1-4.2-1.9-4.5-1.3-1.4 3.6m-.2 7c3.1 6.1 6 10.9 6.4 10.6 1.9-1.1.5-4.8-3.9-10.6-2.7-3.4-5.6-7.4-6.5-8.7-.9-1.4.9 2.5 4 8.7m58.5 23.6c-.5.7-2.2 3.3-3.6 5.8l-2.7 4.7 3.8 3.4c2 1.9 4.8 4.7 6.1 6.1 2.3 2.6 2.3 2.7.6 5.4-1 1.5-4.5 5.6-7.7 8.9-4.7 4.9-5.5 6.3-4.3 6.8 3 1.1 10.8.6 25.8-1.6l14.9-2.2 3.5-5.4c1.9-3 3.1-5.8 2.6-6.2-3-2.6-18.5-13.8-27.5-19.8-7.8-5.2-10.9-6.8-11.5-5.9m72 60.9c-1.5 1.8-4.9 5-7.5 7.1-4.4 3.6-4.7 4.2-5.8 11-1.5 8.8-4.2 15.1-7.2 17.1-2.1 1.4-3 1.4-8.8 0-3.6-.8-12-3.5-18.6-5.9-17.2-6.2-25.4-7.5-63-10l-9.1-.6-5.3 7.1-5.3 7.1.2 7.2c.1 3.9.3 7.3.5 7.4.1.2 40.2.2 89.1.1l88.7-.3-5.8-7.5c-12.5-16.2-36.5-43-38.5-43-.4 0-2 1.5-3.6 3.2"/></svg>