<svg xmlns="http://www.w3.org/2000/svg" width="682.667" height="512" version="1.0" viewBox="0 0 512 384"><path d="M0 70.5V141l5.8-.7c3.1-.5 18.1-.8 33.2-.7 30 0 41.9 1.1 71.2 6.5 15.6 2.9 16.8 3 19.7 1.5 1.7-.9 3.4-1.6 3.8-1.6 1 0 1-10.6.1-11.5-.4-.4-3.8 0-7.7.9-7.8 1.8-13.5 2.1-12.6.7.3-.5-.7-1.1-2.2-1.3-2.6-.3-2.8-.6-2.7-4.8 0-5.7 4.2-12.5 14.7-23.7l7.7-8.1-1.7-18.9-1.6-18.9 2.6-5.8c4-8.7 21.1-24.8 27.8-26.1 1.2-.2 3.3-1.6 4.7-3 3.5-3.5 17.2-10 26.8-12.6 14.2-3.9 19.3-2.4 41.2 12.3l7.3 4.9 6.2-2.4c8.6-3.4 22.3-7.5 27.8-8.2 5.8-.8 11.6 1.4 12.4 4.7 1.3 4.9-3.9 13.2-15.9 25.6l-8 8.2 5.5 5.6c2.9 3.1 8.1 7.9 11.4 10.6 3.9 3.4 5.1 4.8 3.5 4.3-2.2-.7-2.3-.6-1.1.8 1.2 1.5 1 1.6-1.8.6-1.8-.6-3.4-1-3.6-.7-.2.2.5 2.3 1.6 4.7 2 4.5 2.6 12.1.9 12.1-.5 0-1.3-1.2-1.7-2.8l-.6-2.7-1 3c-.5 1.6-1.2 4.3-1.6 6l-.8 3-1.1-2.5c-.8-2-1.1-2.1-1.1-.6-.1 1-1.5 3.9-3.2 6.4-2.9 4.3-3 4.8-1.6 7.2.8 1.4 3.2 3.4 5.3 4.6 5 2.6 5.2 4.4 1.5 8.7-2.5 2.7-3.1 4.4-3.1 7.8s-.5 4.7-2.1 5.7c-1.3.9-1.8 1.9-1.4 3.2.3 1-.1 3-1 4.3-.8 1.3-2.2 4.7-3 7.5-1.2 3.8-2.3 5.6-4.4 6.6-2.6 1.4-2.9 2.1-3.4 8.5-.7 9-2.9 13.6-7.8 16.4-3.8 2.2-5 3.7-2.8 3.7.6 0 13.7 6.1 29 13.7 26.3 12.9 28 13.5 29.7 12 2.9-2.6 6.5-2 10.8 1.7 2.2 1.9 5.8 4.1 7.9 5.1 2.2.9 5.1 2.7 6.5 3.9 1.4 1.3 4.1 2.9 6.1 3.5s5.1 2.3 6.9 3.6c1.9 1.4 3.9 2.5 4.6 2.5.6 0 2.3.9 3.8 2.1 2 1.6 2.6 2.9 2.6 5.9 0 3.2.5 4.3 2.8 5.7 7.2 4.7 27.1 19 35.1 25.3 8.3 6.5 9.1 6.9 11.7 6 4-1.6 7.2-.4 9.5 3.4 1.5 2.6 2.4 3.2 4.4 2.9 2.8-.6 7.5 3.5 7.5 6.6 0 1.3.9 2.1 3 2.6 3.2.7 6 3.8 6 6.7 0 1 .9 2.7 2.1 3.9 1.5 1.5 1.9 2.7 1.4 5-.6 2.6 0 3.7 5.7 9.7 13.6 14.3 30.1 35 41.8 52.5l6.5 9.6 12.3.1H512V0H0z"/><path d="M134 150.4c0 .9.5 1.6 1 1.6.6 0 1-.4 1-.9 0-.6-.4-1.3-1-1.6-.5-.3-1 .1-1 .9M7.5 167.6c-1.6.3-4 .7-5.2.9L0 169v215l96.8-.2 96.7-.3 1.4-5.7c2.2-8.4-.1-34.8-5.4-63.7-1.7-8.9-2-9.7-5.7-13-5-4.5-8.6-11-6.7-12.2 1.1-.6 1-1.2-.4-2.7-2-2.2-2.2-10.8-.7-24.3.8-6.9.7-9.4-.4-12.5l-1.5-3.9v4.5c-.2 6.4-1.6 8.2-2.5 3.1-.7-4.7-2.3-5.4-2.9-1.4-.2 1.6-.5.3-.6-2.8 0-3-.7-6.1-1.3-6.7-1.2-1.2-1.4-19.3-.3-23.2.4-1.2-1-1.8-6.5-2.7-18-2.8-35.4-17.2-39-32.2l-1.6-6.6-13-2.7c-25.5-5.3-41.8-7-69.9-7.3-14.3-.2-27.3-.1-29 .1m269.5 72c0 .3 1.4 2.5 3 4.9 1.7 2.4 3 4.9 3 5.5s.7 2.2 1.6 3.5c2.7 4.1 1 2.8-2.6-2-1.8-2.5-3.5-4.3-3.7-4.1-.4.3 6.3 14.4 7.3 15.5.3.3.9 0 1.5-.6.9-.9.3-7.7-1.7-17-.5-2.5-8.4-7.9-8.4-5.7"/><path d="M274.9 242.8c.6 1.2 1.6 2.4 2.2 2.8.8.4.8.1 0-1.4-.6-1.2-1.6-2.4-2.2-2.8-.8-.4-.8-.1 0 1.4m61.4 37.2c-1.8 2.7-3.3 5.3-3.3 5.7 0 .5 2.7 3.5 6 6.7l6 5.9-2 3.1c-1 1.7-4.7 5.9-8.1 9.3l-6.2 6.3h8.9c4.9 0 14.5-.7 21.3-1.7l12.3-1.8 3.4-5.3c1.9-2.9 3.4-5.4 3.4-5.7 0-1.1-36.8-27.6-38.2-27.5-.2 0-1.8 2.3-3.5 5m72.7 58.6c-2.5 2.5-5.9 5.4-7.6 6.4-2.7 1.7-3.2 2.7-4.2 9.7-1.4 8.7-4.4 15.7-7.6 17.8-1.9 1.3-3 1.3-8.6-.2-3.6-.9-11.7-3.5-18.1-5.9-17.3-6.3-28.6-8.3-56.9-9.9-6.3-.4-12.3-.9-13.2-1.1-1.2-.4-3.3 1.7-7.2 6.9-5.6 7.4-5.6 7.4-5.6 14.5v7.2h88.6c70.8 0 88.5-.3 87.7-1.2-.5-.7-3.2-4.2-5.8-7.8-8.9-11.8-34.8-41-36.4-41-.4 0-2.7 2.1-5.1 4.6"/></svg>