<svg xmlns="http://www.w3.org/2000/svg" width="682.667" height="512" version="1.0" viewBox="0 0 512 384"><path d="M0 70.1v70.2l4.8-.7c2.6-.4 12.8-.9 22.7-1.3 25.6-.8 54.4 1.8 85 7.7 13.7 2.7 15.3 2.8 19 1.6l4-1.5-.3-5.8c-.2-3.2-.5-6-.7-6.2-.3-.2-3.3.4-6.9 1.3-7.3 1.8-13.6 2.1-13.6.6 0-.6-1.1-1-2.5-1-7.4 0-2-13 11.3-27.2l8.9-9.3-1.4-11c-.7-6.1-1.4-15.1-1.5-20-.3-10.9 1.4-14.8 10.1-23.8C145.2 37.1 156 29 158.5 29c.9 0 3-1.4 4.7-3 3.6-3.7 17.5-10.4 26-12.7 3.5-.9 9-1.7 12.3-1.7 7.2-.1 10.5 1.4 26 11.5 10.5 6.8 11.1 7.1 14 5.9 1.6-.7 8.5-3 15.3-5.1 18.6-5.9 28.2-5.1 28.2 2.2 0 5.7-3.3 10.6-15.8 23.2l-8.7 8.8 7.5 7.2c4.1 4 9.3 8.8 11.5 10.6 3.3 2.7 3.5 3.2 1.5 2.6-2.2-.7-2.3-.6-1.1.9 1.3 1.5 1.2 1.6-1.4.6-3.7-1.4-4.2-.7-2.2 3.5 1 2.1 1.7 5.8 1.6 8.8l-.1 5.2-1.6-4-1.6-4-1.1 6c-.7 4.3-1.4 5.9-2.5 5.8-.8-.1-2.9 2-4.6 4.6-3 4.5-3.1 4.9-1.7 7.2.8 1.4 3.2 3.4 5.2 4.5 4.8 2.5 5.1 5.3 1 9.3-2.8 2.8-3.1 3.6-2.5 7.1.5 3.3.2 4.1-1.8 5.8-1.7 1.3-2.2 2.3-1.6 3.2s.2 2.5-1 4.5c-1 1.6-2.3 4.9-2.9 7.2-.8 2.7-2.2 5.1-4.1 6.4-2.5 1.9-3 3.1-3.6 8.6-.8 7.8-3.9 14.2-8.1 16.8-1.8 1.1-3.2 2.2-3.3 2.5 0 .4 4.8 2.8 10.6 5.5s18.7 9 28.6 14.1c17.7 9 18 9.2 19.9 7.3 2.8-2.8 5.6-2.3 11.3 1.9 2.8 2.2 6.5 4.4 8.3 5.1 1.7.7 4.1 2.4 5.4 3.7 1.2 1.3 4 2.9 6 3.4 2.1.6 5.1 2.1 6.6 3.4s3.9 2.7 5.3 3.1c4.2 1.3 6 3.5 6 7.6 0 3.7.2 3.9 14.3 13.8 7.8 5.5 18.3 13.2 23.2 17 8.8 6.9 9.1 7 13.6 6.5 3.9-.5 5-.3 6.8 1.5 1.1 1.1 2.1 2.8 2.1 3.6 0 1 1 1.5 3.3 1.5 4.2 0 6.5 1.7 7.5 5.4.6 2.1 1.7 3.2 3.8 3.8 3.4.9 5.4 3.3 5.4 6.3 0 1.2.9 3 2.1 4.1 1.5 1.4 1.9 2.6 1.5 4.9-.4 2.5.2 3.8 4 8 19.7 21.9 31.1 36.2 43.2 54.2l6.3 9.3H512V0H0z"/><path d="M270.1 98.6c0 1.1.3 1.4.6.6.3-.7.2-1.6-.1-1.9-.3-.4-.6.2-.5 1.3m-135.5 50.9c-.3.8-.1 1.5.4 1.5.6 0 1-.7 1-1.5s-.2-1.5-.4-1.5-.6.7-1 1.5M11.5 166.7c-1.6.2-4.9.6-7.3.9l-4.2.5V384h193.6l1.2-4.5c2.5-9.5.2-37.8-5.4-66.2-1.7-8.2-2.1-9.1-6.4-13.3-4.7-4.6-7.1-9.7-5-11 .7-.5.6-1.1-.5-2-1.4-1.2-1.6-3.8-1.3-20.1.2-14.6 0-19.1-1-20.1-.7-.7-1.3-.9-1.2-.3.6 3-.1 10.5-1 10.5-.5 0-1-1-1-2.3 0-1.2-.3-3.3-.7-4.7-.6-2.2-.7-2.1-1.9 1.5-1.2 4-1.2 4-1.4-3.5-.1-5.5-.4-7-1.1-5.5-.6 1.3-.8-2.7-.5-11.8l.4-13.7-2.3.4c-6.6 1.2-24.2-7.2-32.9-15.7-6.1-6-8.7-10.8-10.5-18.9-1.4-6.4.2-5.6-18-9.3-13.3-2.7-29.6-5-46.1-6.5-10.7-.9-38.7-1.2-45.5-.3m267.6 76c3.4 5.7 6.9 12.3 6.9 13.1 0 .3-1-.7-2.2-2.2-1.3-1.6-3.1-3.8-4-5-1-1.1-.1 1.6 2 6.1 2 4.6 4.2 8.1 4.7 8 1.2-.4 1.2-4.9.1-13-.7-5.3-1.1-6-4.7-8.2-5.2-3.3-5.5-3.2-2.8 1.2M276 244c.6 1.1 1.3 2 1.6 2 .2 0 0-.9-.6-2s-1.3-2-1.6-2c-.2 0 0 .9.6 2m60.6 36.7-3.8 5.6 5.2 5.1c7.8 7.6 7.8 7.6 2.1 14.3-2.6 3.2-6 6.9-7.5 8.2-1.4 1.4-2.6 2.9-2.6 3.4 0 1.4 18.2.3 31.2-1.8l10.8-1.8 3-5.3c1.6-3 3-5.6 3-5.8 0-.6-13.5-10.5-29.6-21.8l-8.1-5.6zm73.3 57.9c-1.8 2-5.2 4.8-7.4 6.4-3.8 2.6-4.1 3.1-5.3 10.6-1.4 9.2-4.3 15.6-7.7 17.4-3.3 1.8-8.6.6-26.8-6-16.5-6-29.2-8.4-54-10-9.9-.6-18-1-18.2-.8-.1.2-2.5 3.6-5.4 7.6-4.9 6.9-5.1 7.5-5.1 13.7v6.5h88c48.4 0 88-.3 88-.6 0-2.9-39.5-48.4-42-48.4-.3 0-2.2 1.6-4.1 3.6"/></svg>