<svg xmlns="http://www.w3.org/2000/svg" width="682.667" height="512" version="1.0" viewBox="0 0 512 384"><path d="M0 192v192h507.2l-.7-3c-1.9-8.5-10.4-21.7-18.7-28.9-8.8-7.6-24.2-16.5-33.5-19.2l-4.3-1.2v-10.9c0-6 .7-18.9 1.6-28.6 2.8-31.1 1-48.7-6.6-64.9-11.4-24.2-37-48.2-69-64.7l-9.2-4.8.7-5.5c1.4-11.5 6.2-24.4 10.5-28.3 1.2-1 5.2-8.1 4.9-8.5-.2-.2-10.3-.8-22.4-1.5-12.1-.6-27.6-1.5-34.4-2-6.8-.6-13.3-1-14.4-1-1.4 0-1.8-.5-1.4-1.8.4-1.4 8.7-20.1 12.7-28.7 2.6-5.8 9.5-25.5 12.5-36 2.4-8.4 5.7-16.7 11.2-27.5 4.3-8.5 7.9-15.8 8.1-16.3.2-.4-79.5-.7-177.2-.7H0z"/><path d="M355.2 2.7c-.6 1.6-3.4 10.2-6.3 19.3s-6.9 21.6-9 27.8c-2.9 8.5-3.4 11.2-2.3 10.8 1.2-.5 1.4.1.9 3.2l-.6 3.7 3.2-5c1.8-2.8 4-6.4 4.9-8 7.3-12.6 10.9-19.2 19.4-34.8C370.7 9.8 375 1.4 375 .9s-4.2-.9-9.4-.9c-9.3 0-9.4 0-10.4 2.7"/></svg>