<svg xmlns="http://www.w3.org/2000/svg" width="682.667" height="512" version="1.0" viewBox="0 0 512 384"><path d="M0 68.6v68.7l3.2-.7c19.6-3.9 56.9-2.7 92.3 3 10.5 1.7 38.8 7.8 42.7 9.3 1.3.4 3.6 1.1 5.2 1.5l2.9.7-.6-6.1c-.3-3.4-.7-6.4-1-6.6-.3-.3-3.1.1-6.3.9-9.7 2.4-13.3 2.7-14.1 1.2-.5-.7-1.7-1.3-2.8-1.2-1.6.2-2.1-.5-2.3-3.3-.4-4.6 4.8-12.7 15.2-23.5 7.4-7.7 7.6-8.1 7.1-12-1.4-11.3-2.5-23.8-2.5-30.3 0-8.6 1.9-13 8.7-20.3 5.7-6.1 18.4-15.9 20.6-15.9.8 0 3.1-1.4 4.9-3 4.4-4 19.7-11.5 27.6-13.4 7.5-1.9 14.6-2 19.3-.4 1.9.6 9.2 4.9 16.3 9.5l12.8 8.4 7.7-2.9c21.3-8.1 32.1-10 36.6-6.2S293 39.3 279 53.2l-8.8 8.7 8.2 7.8c4.4 4.3 9.9 9.3 12.1 11.1 3.9 3.2 4.1 4.1.5 2.2-1.6-.8-1.8-.8-1.4.5.7 1.8 0 1.9-2.7.5-2.4-1.3-2.5-.1-.3 4.2 1.6 3 2.3 11.2 1.2 12.3-.3.3-1.1-.9-1.9-2.7l-1.3-3.3-1.1 5.9c-.6 3.4-1.6 6.1-2.4 6.4s-1.1 0-.7-.7c.4-.6.2-1.1-.3-1.1-.6 0-1.1.7-1.1 1.5s-.3 1.5-.8 1.5c-.4 0-1.6 1.6-2.6 3.5-2.5 4.6-1.3 7.4 4.6 10.7 5.1 2.8 5.2 4.7.6 9.5-2.6 2.7-3 3.7-2.5 6.8.5 2.9.1 4.1-1.6 5.8-1.4 1.4-2 3.1-1.8 4.9.1 1.5-.2 2.8-.8 2.8s-1.9 2.8-2.9 6.2c-1.7 5.9-2.8 7.3-7.4 9-.4.2-1.1 3.1-1.7 6.5-1.5 9.4-4.2 14.8-8.7 17.1l-3.7 1.9 9.4 4.8c13.3 6.7 24.8 12.9 36.6 19.7 5.6 3.2 10.6 5.8 11.1 5.8s1.5-.7 2.2-1.5c2.1-2.5 6-1.7 10.1 2 2.1 1.9 5.9 4.5 8.5 5.6 2.5 1.2 5.2 3.2 6 4.5.9 1.2 2.9 2.6 4.5 2.9 1.6.4 4.9 2.2 7.3 4s5.3 3.6 6.5 4c3.9 1.2 6.3 4.7 5.6 8.1-.5 3-.1 3.5 10.7 11.5 6.2 4.6 16 12.4 21.8 17.2 9.7 8.1 10.8 8.7 13.8 8.2 3.8-.7 7.7 1.3 8.7 4.4.4 1.4 1.9 2.3 4.3 2.7 4.4.8 7.2 3 7.2 5.6 0 1.1 1.2 2.3 2.8 3 4.2 1.8 6.2 3.9 6.2 6.5 0 1.2.9 3.2 2.1 4.4 1.6 1.6 2 2.8 1.4 5.5-.5 2.9-.1 3.9 2.9 7.1 10 11 24.4 29.6 35.5 46.1l6.3 9.2H512V0H0z"/><path d="m8.5 163.3-8 1.2-.3 109.8L0 384h197l.6-2.7c.8-3.2 0-21.2-2.1-43.3-2.4-25.7-3.3-30.9-6.4-35.5-3.5-5.1-4.2-7-2.9-8.3.7-.7.4-1.8-.7-3.6-1.6-2.4-1.6-3.7-.5-15.4 1.2-12.4.8-22.2-1-22.2-.5 0-1.2-1.5-1.6-3.3-.8-3.1-.8-3-2 2.8-.9 4.6-1.4 5.5-1.9 3.8-.4-1.2-1.2-2-1.9-1.7-.9.3-1.2-1.1-.9-5.3.1-3.2.4-10.9.6-17.1.3-10.3.2-11.2-1.4-10.7-2.5.8-10.4-1.3-17.4-4.6-11.6-5.5-23.5-17.1-25-24.4-.4-1.7-1.3-6-2.1-9.6l-1.5-6.7-12.2-3c-13.5-3.4-29.5-6.4-46.2-8.7-14.6-2.1-51.5-2.8-62-1.2M281 242.6c0 .4 2 4 4.5 8.1 2.5 4 4.5 7.7 4.5 8.1s.9 2 2 3.7l2 3-.6-7c-.4-3.9-1-7.8-1.3-8.8-.7-1.7-11.1-8.4-11.1-7.1m1.1 7.4c1.4 3.1 1.9 3.6 1.9 2.4 0-.6-.7-1.9-1.6-3-1.4-1.8-1.4-1.8-.3.6m3.9 7.6c0 .4 1.2 3.3 2.7 6.6 2.3 5.1 2.8 5.7 4 4.5 1.3-1.3 1-2.1-2.2-6.6-3.5-4.9-4.5-5.9-4.5-4.5m55.7 30.8-3.5 5.3 5.9 5.9c3.2 3.2 5.9 6.3 5.9 7 0 .6-3.4 4.7-7.6 9.2-7.5 8.1-7.5 8.1-4.8 8.8 3.2.8 19-.1 29.6-1.7l7.7-1.1 3.4-5.8 3.5-5.8-6.6-5.4c-10.1-8.1-28.5-21.8-29.2-21.8-.4 0-2.3 2.4-4.3 5.4m72.6 57.6c-.7 1-3.7 3.8-6.8 6.1-4.4 3.3-5.6 4.8-6 7.8-1.2 7.1-4.5 16.8-6.6 19.6-2.1 2.6-2.6 2.7-7.8 2.2-3.4-.3-11.1-2.7-19.7-6.1-17.9-7.1-26.3-9-49.8-11.6-10.4-1.1-19.3-2-19.8-2-.9 0-15.8 19.8-15.8 21.2 0 .4 37.9.8 84.1.8 67.2 0 84-.3 83.2-1.3-.5-.6-3.2-4.1-5.8-7.7-7.9-10.5-25.7-31-26.9-31-.6 0-1.7.9-2.3 2"/></svg>