<svg xmlns="http://www.w3.org/2000/svg" width="682.667" height="512" version="1.0" viewBox="0 0 512 384"><path d="M0 68.6v68.6l2.3-.6c7.8-1.9 24-2.8 41.7-2.3 28.6.9 55.6 4.6 82.5 11.4 7.7 2 15.8 3.6 18 3.7l4 .1v-5.7c0-3.1-.3-5.9-.6-6.2s-4.3.1-8.8 1.1c-6 1.2-8.8 1.3-10.4.5-1.2-.5-3-1.3-3.9-1.6-5-1.6-.2-10.9 12.4-24.1l9.9-10.4-1.6-18.3c-1.7-18.1-1.7-18.4.4-23.8 1.4-3.9 3.9-7.4 8.3-11.8 6.9-7 19.9-16.2 22.8-16.2 1.1 0 2.4-.8 2.9-1.9 1.1-2 13.2-8.2 22-11.3 6.7-2.3 16.2-3.3 22.3-2.4 4.3.6 9.9 4 28.4 16.8l4 2.8 6.4-2.5c18.7-7 31.7-9.2 36.5-6.1 5.8 3.8 1.3 13-13.3 26.7-5.1 4.8-9.2 9.1-9.2 9.6s5.1 6 11.4 12.1C294.7 83 299.5 88 299 88s-1.2-.5-1.5-1c-.3-.6-1.1-1-1.7-1s-.6.6.2 1.5c1.1 1.3 1 1.4-.6.9-1-.4-2.4-1.1-3-1.5-2-1.6-2.3.2-.7 3.9.9 2 1.8 6.4 2 9.7.3 5.5.3 5.9-1.2 4.1-.8-1.1-1.5-2.4-1.5-2.9s-.7-.4-1.5.3-1.5 2.1-1.5 3c0 1-.3 2.6-.6 3.5-.6 1.3-.9 1.4-1.6.3-.8-1.1-1-1.1-1.5 0-.3.8-1.9 2.9-3.5 4.8-2.8 3.1-2.9 3.7-1.8 6.4.7 1.7 3.1 4 5.6 5.5 2.4 1.4 4.4 3 4.4 3.5 0 .6-1.6 2.7-3.5 4.9-2.8 3.1-3.5 4.7-3.5 8 0 3-.5 4.4-2 5.3-1.1.7-2 2.2-2 3.3s-1 4-2.1 6.5c-1.2 2.5-2.9 6.1-3.8 8-1 2.1-2.5 3.6-4.1 4-2.1.5-2.6 1.4-3.1 5-1.4 9.4-3 13.4-7.1 17.2l-4 3.7 7 3.5c7.7 3.9 37.5 20.5 43.4 24.2 3.9 2.5 5.8 3 5.8 1.6 0-.5 1-1.4 2.3-1.9 2.9-1.3 7.2.3 10.6 4.1 1.3 1.4 4.4 3.5 6.8 4.7s5.1 3.1 5.9 4.4c.8 1.2 2.7 2.5 4.2 2.8s4.8 2.2 7.2 4.1c2.5 2 5 3.6 5.6 3.6s2.3 1 3.8 2.1c2.3 1.8 2.7 2.8 2.5 6-.3 3.5.1 4.1 4.1 7 6.4 4.6 22.2 17.2 30.9 24.6 6.9 5.9 7.7 6.3 12.3 6.3 4.4 0 5.1.3 6.6 3 .9 1.7 2.8 3.3 4.2 3.6 5.3 1.1 7 2.4 7.7 5.4.4 2.4 1.2 3.2 3.5 3.7 3.2.6 5.8 3.7 5.8 6.8 0 1.1 1 2.9 2.1 3.9 1.7 1.4 2 2.5 1.6 5.3-.6 3.4 0 4.3 9.6 15.9 10.2 12.1 23.9 30.6 29.4 39.6l2.8 4.7 16.3.1H512V0H0z"/><path d="M8.5 163.1c-3.3.5-6.6 1.1-7.2 1.4-1 .3-1.3 23.3-1.3 110V384h198v-11.4c0-11.5-2.1-41.9-4.1-57.5-.7-5.9-1.8-9.7-3.6-12.9-2-3.4-2.4-4.8-1.6-6.1.8-1.2.7-2.2-.3-3.6-1.7-2.3-1.8-9.1-.3-18.6 1.1-7.3-.3-20.9-2.2-20.9-.5 0-1.2-1.2-1.5-2.6-.9-3.5-2.4-1.2-2.4 3.8 0 2-.4 4-1 4.3-.6.4-1-.7-1-2.7 0-2.6-.3-3-1.1-1.8-.9 1.3-.8-8.8.5-31 .1-2.3-.3-2.5-5.8-3.2-9.9-1.3-21.8-7.8-30.4-16.7-5.4-5.5-7.7-9.9-9.2-17.9-.7-3.4-1.8-6.8-2.4-7.5-2.4-3-36.8-10.4-63-13.7-17-2.1-48.4-2.6-60.1-.9M283 244.5c0 .2 2.5 5 5.6 10.5 5.7 10.1 7 14.5 2 7-3.3-5-4.1-5.1-2-.3.9 2.1 2.1 5.1 2.6 6.6 1.1 2.9 3.4 3.2 3.2.4-.1-.9.3-1.4.8-1.1.5.4.7-.8.4-2.8-.3-1.8-.8-5.8-1.1-8.9-.6-5.5-.8-5.8-5.6-8.8-5.1-3.1-5.9-3.5-5.9-2.6"/><path d="M283 250.7c0 .6.8 1.7 1.8 2.4 1.6 1.3 1.6 1.3.2-.6-.8-1.1-1.6-2.2-1.7-2.4q-.3-.3-.3.6m60.6 39.3c-2 2.7-3.6 5.3-3.6 5.7s2.7 3.3 6.1 6.5l6 5.8-3.3 4.6c-1.8 2.6-5.4 6.5-8 8.7-2.7 2.2-4.8 4.4-4.8 4.9 0 1.3 18.5.9 29.5-.7 10.7-1.5 11-1.7 15-9.2l2-3.6-4.9-4.3c-4.9-4.5-23.1-18.7-27.7-21.8l-2.7-1.7zm69.4 60.3c-2.5 2.3-5.7 5.1-7.2 6.2-2.2 1.6-3 3.5-4.3 9.7-1.7 8.2-3.8 14.3-5.5 15.3-3.3 2.1 1.1 2.5 25.5 2.5 14.6 0 26.5-.3 26.5-.6 0-.4-3-4.5-6.6-9.3-5.8-7.6-10.5-13.1-21-24.8l-2.9-3.3zm-118.1 18.4c-2 2.7-5.2 7.2-7.3 10l-3.8 5.3 50.4-.1c42.3 0 49.7-.2 46.3-1.3-2.2-.7-8.3-3.1-13.5-5.3-15.8-6.7-27-9.3-52.5-11.8-8.2-.8-15.2-1.5-15.5-1.5s-2.2 2.1-4.1 4.7"/></svg>