<svg xmlns="http://www.w3.org/2000/svg" width="682.667" height="512" version="1.0" viewBox="0 0 512 384"><path d="M0 68.6v68.6l2.3-.6c11.3-3.1 50.8-3.2 74.7-.1 21.9 2.7 55.2 9.4 63.3 12.7 2.1.8 3.1.8 4-.1.6-.6 2.4-1.1 3.9-1.1 2.7 0 2.8-.2 2.8-4.8 0-7-.7-7.6-6.9-6.3-6.5 1.4-13.1 1.4-13.1.1 0-.6-1.1-1-2.5-1-7.1 0-2.2-10.3 11.6-24.1l10.2-10.2-1-12.1c-1.9-21.5-1.7-25.2 1.1-30.9 1.4-2.9 5.1-7.7 8.3-10.8C165.5 41.2 177.3 33 180 33c1.1 0 2.7-.9 3.7-1.9 2.4-2.5 14-8.2 22.8-11.2 5.2-1.8 9.2-2.4 15.5-2.4 10.2 0 12.1.9 27.9 12.5l10.8 7.9 8.9-2.8c21.7-7 29.7-8.1 34.9-4.7 2.4 1.6 2.7 2.3 2.2 5.4-.8 4.7-7.4 13-17.3 21.6-4.5 3.9-8.4 7.6-8.7 8.2s4.5 6.3 10.7 12.7c6.1 6.5 10.6 11.5 9.9 11.3-.6-.3-1.3-.1-1.5.4-.2.6-1.6.3-3.2-.5-2.8-1.5-2.8-1.5-2.1 1.3 1.2 4.9 2.4 14.5 1.9 15.4-.3.5-1.2.1-1.8-.8-1.8-2.4-3.3-1.1-4.1 3.8-.7 3.9-.8 4-2.1 2.3-.8-1-1.4-1.3-1.4-.7 0 .7-1.5 2.9-3.4 5-3.1 3.4-3.4 4.1-2.3 6.3.7 1.3 2.9 3.5 5 4.8 4.6 3 4.7 5.3.2 10.2-2.7 3.1-3.3 4.4-2.9 6.6.4 2.1 0 3.4-2 5.2-1.3 1.3-2.2 2.9-1.9 3.7.3.7-.4 2.6-1.5 4.1-1 1.5-2.5 4.6-3.2 6.8-1.6 5-2.7 6.5-5.1 6.5-2.2 0-3.9 3.6-3.9 7.9 0 5.6-3.1 12.1-7 15l-3.8 2.8 9.1 4.8c12.4 6.5 38.6 21.3 41.9 23.6 2.6 1.9 2.7 1.9 6.1-.1 4.2-2.5 5.7-2 11.9 3.7 2.6 2.3 5.4 4.3 6.2 4.3s3 1.5 4.8 3.3c1.8 1.9 4.8 3.9 6.6 4.5 1.9.7 4.9 2.5 6.8 4.2 1.9 1.6 4.1 3 4.8 3s2.5.9 4 2.1c2.1 1.6 2.6 2.9 2.6 6.2 0 4.2.1 4.3 10.4 12 5.7 4.3 15.3 12 21.3 17.1 10.2 8.7 11.1 9.2 14.6 8.8 4.1-.5 6.4.9 7.8 4.5.6 1.7 1.6 2.3 3.9 2.3 3.6 0 8 3.8 8 7 0 1.2.7 2 1.8 2 2.6 0 6.2 2.8 6.2 4.9 0 1 .9 3 2 4.4 1.3 1.6 2 4 2 6.7 0 3.8.8 5.1 7.8 13.4 9.3 10.9 19.8 24.9 27.7 36.8l5.8 8.8H512V0H0z"/><path d="M21.5 162.1c-7.2.4-14.8 1.1-17 1.6l-4 .9-.3 109.7L0 384h198l.6-2.5c.7-2.9-.8-28.8-3.2-55.9-1.4-15-2-18.7-4-22.4-2.7-5.1-3-6.8-1.1-7.5.8-.3.7-1-.7-2.5-1.7-2-1.8-3-1-10.9 1.4-14.8.5-32.6-1.6-29.3-.6 1-1.1.4-1.8-2.1l-.9-3.4-.7 4c-.4 2.2-1.1 5.1-1.6 6.5l-.8 2.5-.1-2.8c-.1-1.8-.5-2.6-1.2-2.1-1.1.7-.4-22.4 1.1-31.9l.7-4.7h-3.9c-4.9 0-14.7-3.3-20.1-6.7-12.8-8-19.7-16.7-22.2-27.7-1.8-8.6.2-7.2-17.3-11.6-19.7-5-46.1-9.4-62.2-10.5-17-1.1-21.7-1.2-34.5-.4M288 253.6c2.9 5.5 5.9 11 6.7 12.2.8 1.3 1.3 2.6 1 2.8-.3.3-1.7-1.7-3.3-4.3-1.5-2.6-2.9-4.2-3.2-3.5-.4 1.4 3.8 11.2 4.9 11.2 2.1 0 2.7-4 1.7-12-1-9.2-1.4-9.7-9.1-14.1l-3.9-2.1zm-4-1.7c0 .6.4 1.3 1 1.6s.7-.1.4-.9c-.7-1.8-1.4-2.1-1.4-.7m60.6 38.8c-2 2.6-3.6 5.3-3.6 5.8 0 .6 2.5 3.5 5.5 6.5s5.5 5.8 5.5 6.3c0 1.5-8.2 11.6-11.6 14.2-1.9 1.4-3.4 3-3.4 3.6 0 1.9 24.3.8 37.5-1.6 1.6-.4 8.5-9.9 8.5-11.8 0-1-29.4-24.5-33.7-27.1-.8-.4-2.5 1.1-4.7 4.1m70.3 59.9c-1.3 1.4-4.5 4.1-7 6-4.4 3.2-4.7 3.6-5.8 10.6-.7 4-2.2 9.4-3.5 12l-2.3 4.8h25.9c20.1 0 25.7-.3 25.2-1.2-4-6.5-27.9-34.8-29.3-34.8-.4 0-1.8 1.2-3.2 2.6M292.6 374c-3.7 5-6.6 9.3-6.4 9.6.3.2 21.5.3 47.2.2l46.8-.3-14.3-5.7c-18.7-7.3-30.3-9.7-59.5-12.3l-7-.6z"/></svg>