<svg xmlns="http://www.w3.org/2000/svg" width="682.667" height="512" version="1.0" viewBox="0 0 512 384"><path d="M0 68.6v68.6l2.7-.6c8.6-1.9 24.7-2.8 42.8-2.3 28.6.8 52.9 4.2 82.4 11.4 14.1 3.5 14.4 3.5 18.1 1.8 2.1-1 4.3-1.4 4.9-1.1.8.5 1.1-1.4 1.1-6 0-6.4-.1-6.6-2.2-5.9-4.3 1.3-16.8 1.8-16.8.7 0-.6-1-1.2-2.2-1.4-6.4-.9-1.4-10.4 12.4-23.9l9.9-9.6-.6-18.6c-.6-18.5-.6-18.6 2-24.1 1.6-3.4 4.8-7.5 8.3-10.7 7.1-6.5 20-14.9 22.9-14.9 1.2 0 2.6-.6 3-1.4 1.1-2 11.4-6.9 21.3-10.2 6.6-2.2 10.3-2.8 16.5-2.8 10 .1 12.4 1.1 25.4 11 5.7 4.3 11.3 8.5 12.3 9.3 1.5 1.1 2.4 1.2 4.5.2 1.4-.7 7.8-2.5 14.1-4.1 22.8-5.9 33.2-2.8 27.6 8.2-1.9 3.7-18.1 19.9-22.5 22.5-1.6 1-2.9 2.3-2.9 2.9 0 1.2 10.3 13.9 15.4 19 5.6 5.5 6 6.3 3.4 5.9-1.3-.1-3.2-.6-4.2-1-1.7-.7-1.8-.5-1.2 2.1 1.5 5.9 1.9 15.4.7 15.4-.6 0-1.5-1-2-2.1-.7-2-.9-1.9-2.4 1.4-.9 1.9-1.7 4-1.7 4.7s-.8.9-1.9.5c-1.4-.4-2.3.1-3.2 1.7-.6 1.3-2 3.2-3.1 4.4-2.6 2.9-1.1 6.6 4.2 9.9 2.2 1.4 4 3.2 4 4.1s-1.6 3-3.5 4.7c-2.7 2.4-3.5 3.8-3.5 6.4 0 2.3-.8 4.2-2.5 5.9-1.4 1.4-2.2 3.1-1.8 3.9.3.9-.2 2.4-1 3.3-.9 1-2.8 4.4-4.3 7.6-1.5 3.3-3.5 6.1-4.5 6.3-1.2.4-2.1 1.8-2.5 4.2-1.8 11.3-4.8 16.6-10.8 19.9-1.7.9-.9 1.5 6.4 5.2 8.7 4.4 23.5 12.7 37.9 21.3 7.3 4.4 8.5 4.8 9.3 3.3.6-1 2.2-1.6 4.7-1.6 2.9 0 4.4.7 7.2 3.6 1.8 1.9 5.3 4.4 7.6 5.4s4.9 3 5.8 4.3c.9 1.4 2.9 2.9 4.5 3.2 1.6.4 4.8 2.1 7.2 3.9s5.3 3.6 6.5 4c3.6 1.2 6.4 5.4 5.8 9-.5 2.9 0 3.5 10.1 11.1 5.8 4.4 15.4 12.1 21.2 17.2 8.5 7.3 11.2 9.1 12.9 8.6 3.8-.9 7.2.6 8.8 3.7 1.2 2.2 2.3 3 4.3 3 3.8 0 6.8 2.4 7.5 6 .4 2 1.2 3 2.5 3 2.8 0 6.2 2.9 6.2 5.4 0 1.3.9 3.5 2.1 5 1.5 1.9 2 3.6 1.6 5.9-.5 3.2.8 5.3 8.3 13.7 4.1 4.6 19.6 25.4 25.8 34.7l6.3 9.3H512V0H0z"/><path d="M20 162c-6.3.4-13.4 1.3-15.7 1.9L0 165.1V384h199v-7.8c0-9.7-1.6-35.1-3.5-54.7-1.1-11.4-1.9-16-3.6-19.3-1.7-3.5-1.9-4.6-.9-5.2.9-.5 1-1.4.4-2.6-.5-1.1-.9-9.8-.9-19.4 0-17.2-.8-23.7-2.5-20.9-.6.9-1.1.4-1.5-1.7-.4-1.6-.8-3.4-1-3.9-.1-.6-.5 1.2-.9 4-.4 2.7-1.1 5.9-1.6 7-.8 1.9-.9 1.9-.9-.3-.1-1.3-.5-2-1.1-1.7-1.5.9-1.1-8.4 1.5-34.1l.5-5.1-4.8-.6c-10.5-1.2-20.9-6.7-30.1-15.9-5.7-5.7-8.7-11-11.3-19.8l-1.3-4.5-12-3.2C86.9 164.5 49 160 20 162m269.6 93.7c3.1 6 6.3 11.5 7.1 12.3 1.2 1.3 1.3 1.1.9-1.5-.3-1.7-.8-5.6-1.1-8.8-.7-5.7-.7-5.9-6-9.3-3-1.9-5.7-3.4-6-3.4s2 4.8 5.1 10.7m.4 5.9c0 1.9 4.2 11.4 5.1 11.4 2.2 0 1.7-2.4-1.6-7.2-1.9-2.9-3.5-4.8-3.5-4.2m55.6 30.3c-2 2.7-3.6 5.2-3.6 5.7s2.5 3.4 5.6 6.5c4.1 4.1 5.4 6.2 5 7.5-.3 1.1-3.5 5.1-7 8.9-4.5 4.7-6.1 7.2-5.3 7.7 2.5 1.6 35.7-.4 36.9-2.2 1-1.4 6.8-11.2 6.8-11.5 0-.5-23.6-19.4-29.7-23.8l-5.1-3.7zm71 58.5c-.9 1.4-4 4.3-6.9 6.6-5.1 3.8-5.4 4.2-6.6 10.7-.7 3.8-2.1 8.8-3.2 11.2-1 2.4-1.9 4.5-1.9 4.7s11.3.4 25.1.4h25l-6.7-8.8c-7.6-9.8-10.5-13.2-17.9-21.5l-5.2-5.8zM296 371.6c-2.4 3.3-5.5 7.4-6.8 9.1l-2.4 3.3h91.7l-10.5-4.6c-16.2-7.1-31.9-10.5-60-13l-7.6-.6z"/></svg>