<svg xmlns="http://www.w3.org/2000/svg" width="682.667" height="512" version="1.0" viewBox="0 0 512 384"><path d="M0 68.6c0 64.8.1 68.5 1.8 68 5.9-1.8 17.6-2.6 38.7-2.6 31.9 0 53.9 2.7 86.6 10.6l14.5 3.5 5.9-3.6c3.2-1.9 6.7-3.5 7.7-3.5 1.4 0 1.8-.8 1.8-3.3 0-1.7.3-4.2.6-5.4.6-2.3.6-2.3-8.5-1.6-6.6.4-9.1.3-9.1-.6 0-.6-1.1-1.1-2.4-1.1-3 0-4.1-2.7-2.6-6.5 1.7-4.4 8.9-12.4 17-18.8 4.1-3.3 7.8-6.7 8.1-7.6.8-1.9 2.3-26.3 2-30.9-.5-6.2 2.6-12.6 9-18.9 7.1-6.9 19.9-15 25.2-15.9 2-.4 3.7-1 3.7-1.5 0-1.3 10.2-5.7 19.5-8.4 12.2-3.5 25.5-3.6 32.3-.1 2.6 1.3 5.6 3.3 6.7 4.3s5.8 5.2 10.4 9.2l8.3 7.4 12.2-2.9c21.2-5.1 34.6-3.7 34.6 3.5 0 5.1-10.4 16.3-23.2 25-2.6 1.7-5 3.6-5.3 4.2-.4.5 1.1 3.3 3.2 6.2 2.2 2.9 5.2 7 6.8 9.2 1.5 2.2 4.6 5.9 6.8 8.2l4.1 4.3-3.3-1c-1.8-.5-3.9-1.4-4.6-2-1.9-1.6-2.7.3-1.5 3.5 1.1 3 1.2 9.7.1 13.5l-.7 2.5-.8-2.3c-1-3.1-2.3-2.8-4.2 1-2.2 4.3-2.1 4.3-3.7 2.9-1.2-.9-1.7-.5-2.7 1.9-.7 1.7-2.1 3.5-3.1 4.1-3.9 2-1.6 7.5 5 12.1 2.2 1.5 2.3 2 1.2 4-.6 1.3-2.5 3.2-4.1 4.3-2.1 1.4-3.1 3.1-3.7 6.4-.5 3.1-1.5 4.9-2.9 5.6-1.1.5-1.9 1.6-1.6 2.3.2.7-.8 2.8-2.2 4.7-3.1 4-6.1 11.7-7.6 19.7-1.4 7-4.4 11.6-9.3 14.4l-3.8 2.1 15.8 8.8c8.7 4.8 20.2 11.4 25.5 14.6 5.4 3.3 10.2 5.9 10.7 5.9s1.1-.7 1.5-1.5c1.2-3.2 6.6-1.8 11.7 3 2.6 2.5 5.4 4.5 6.2 4.5s3.4 1.7 5.8 3.9c2.4 2.1 5.4 4.1 6.6 4.5 1.3.4 4.1 2.3 6.4 4.2 2.2 1.9 4.7 3.4 5.3 3.4.7 0 2.5 1.1 4 2.5 2.2 2 2.7 3.3 2.4 6.1-.2 3.3.2 3.9 5.9 8.2 8.2 6.3 19.1 15.2 28.5 23.4 5.7 4.9 8.2 6.5 9.7 6.1 3.5-.9 7 .6 8.5 3.6 1.2 2.2 2.5 3 5.6 3.5 3.7.6 4.4 1.1 5.8 4.6q1.65 3.9 4.2 4.5c3.5.9 5 2.4 5 5 0 1.2.9 3.4 2 4.8 1.2 1.6 2 4 2 6.5 0 3.6 1 5.3 8.8 14.9 9.5 11.7 11.6 14.4 22.2 30l7 10.3h32V0H0z"/><path d="M13.7 162c-3.1.5-7.5 1.4-9.7 2l-4 1.1V384h201v-6.9c0-3.8-.4-13.8-1-22.3-.5-8.4-1.5-22.5-2-31.3-.7-9.5-1.7-17.8-2.7-20.3-1-3-1.2-4.7-.5-5.4s.5-1.9-.6-3.8c-1.4-2.4-1.5-3.9-.5-10.5 1-7 0-30-1.4-31.5-.2-.2-.8.2-1.3 1-.6 1-1.1.5-1.8-2.1l-.9-3.4-.7 5c-.8 5.7-2.4 10.3-2.5 7.2-.1-1-.5-1.5-1.1-1.2-.5.3-1-.2-.9-1.2 0-3.2 3.8-36.7 4.5-39.9l.6-3.1-6.1-.6c-15.1-1.3-34.3-16.6-39-31-1.5-4.4-1.8-4.5-17.4-8.8-31.3-8.5-54.3-11.9-83.7-12.4-12.4-.2-25.1 0-28.3.5m275.8 88.2c1.4 3.4 10.1 19.8 10.9 20.6.3.2.3-2.2 0-5.4-1-11.9-1.2-12.3-6.2-15.5-5.8-3.7-6.4-3.6-4.7.3m4.5 14.6c0 .5.9 3.2 2.1 5.8 1.4 3.5 2.2 4.5 2.9 3.5.5-.9-.1-2.9-1.7-5.5-3.1-5-3.3-5.2-3.3-3.8m54.4 29.6-3.5 5.4 6.2 6 6.1 6-2.3 3.4c-1.3 1.8-4.7 5.7-7.6 8.6s-5.3 5.5-5.3 5.7c0 1.1 13.2 1.5 22 .5 15-1.5 15.6-1.7 17.8-5.4 1.1-1.8 2.7-4.4 3.6-5.8l1.6-2.5-9.7-8.1c-14.7-12.1-23.7-19.2-24.5-19.2-.4 0-2.4 2.4-4.4 5.4M420 352c0 .5-2.9 3.2-6.4 6-5.6 4.4-6.5 5.6-7.1 9.3-.7 4.1-2.6 11.6-4 14.9-.7 1.7.8 1.8 22.9 1.8H449l-7.7-9.8c-9.4-12-19.2-23.2-20.4-23.2-.5 0-.9.4-.9 1m-122.7 23.5-6.2 8.5h42.5c23.3 0 42.4-.2 42.4-.4 0-1-22.2-9-29.7-10.6-7.2-1.6-39.5-6.1-42.1-6-.4.1-3.5 3.9-6.9 8.5"/></svg>