<svg xmlns="http://www.w3.org/2000/svg" width="682.667" height="512" version="1.0" viewBox="0 0 512 384"><path d="M0 68.6c0 55.2.2 68.5 1.3 68.1 6.7-2.5 15-3.2 40.7-3.1 22.7 0 30.2.4 43.1 2.2 17.6 2.5 35.1 5.9 48.8 9.6l9.4 2.5 3.7-3.2c2-1.9 5.7-4.2 8.3-5.3 4.4-1.8 4.7-2.2 4.8-5.7.1-2 .2-4.2.3-4.9.1-.8-2.4-1-8.1-.9-5 .1-8.3-.2-8.3-.8 0-.5-1-1.1-2.1-1.3-9-1.3-.7-14.2 17.3-27l5.6-4.1 1.1-7.6c.5-4.2 1.3-12.5 1.6-18.5.8-15.3 2.6-18.9 13.4-27.6 6.8-5.4 19.2-12 22.7-12 1.2 0 2.6-.5 3-1.1 1.1-1.8 10.6-5.7 19.6-8 5.6-1.4 11.3-2.1 17.5-2.1 13.3 0 16.1 1.5 33.5 18.1l6.7 6.4 14-2.7c15-2.8 20.6-3.2 26.3-1.6 4.4 1.3 6.8 3.4 6.8 6.1 0 5.1-11.1 16.2-24.7 24.8-2.9 1.8-5.3 3.7-5.3 4.2s2.2 4.1 4.9 8.1c2.6 4 6 9.1 7.4 11.3 1.5 2.2 3.6 5.3 4.8 6.8l2.1 2.8-4.7-2.6-4.7-2.7.8 3.4c1 4.3.6 15-.6 16.2-.7.7-1 .5-1-.6 0-.9-.6-1.8-1.4-2.1q-1.5-.6-3.6 3.9c-2.4 4.9-2.5 5-3.4 2.8-.4-1-.2-1.3.6-.8q1.05.75.3-.6c-1.1-1.7-8.4 6.8-8.5 9.9 0 1.4 1.5 3.9 4 6.3 2.2 2.2 4 4.6 4 5.3 0 .6-1.7 2.6-3.9 4.3-2.9 2.3-4 4-4.5 7.2-.5 3-1.3 4.3-3.2 5.2-1.3.6-2.3 1.7-2 2.4s-.2 1.8-1 2.5c-2.6 2.2-5.1 8.2-5.8 14-1 9-3.5 15.6-7.3 18.9-1.9 1.7-4 3-4.8 3-3.8 0-1.7 2.3 6.2 6.6 4.9 2.6 16 9.1 24.9 14.4l16 9.6 2.6-1.9c3.4-2.6 6.7-1.7 11 2.9 1.8 1.9 5 4.3 7.1 5.1 2 .8 4.7 2.7 6 4.2 1.2 1.5 3.7 3.3 5.6 4 1.8.8 5.1 2.9 7.3 4.8 2.2 1.8 4.6 3.3 5.2 3.3.7 0 2.5 1.1 4 2.5 2.2 2.1 2.6 3 2.1 5.8-.6 3.3-.5 3.5 13.7 14.7 7.9 6.3 14.5 11.7 14.8 12 .3.4 3.1 3 6.3 5.8 4.6 4.2 6.4 5.2 9.3 5.2 4.5 0 7.3 1.5 8.4 4.6.7 1.7 1.7 2.4 3.8 2.4 3.6 0 6.8 2.3 7.6 5.4.4 1.5 2 3.1 4.3 4.3q3.75 1.8 4.8 4.8c.6 1.7 1.7 4 2.6 5.3 1.2 1.7 1.5 3.2.9 5.7s-.4 3.8.9 5.2c5.6 6.1 19.9 24.8 27.5 36.1l9 13.2H512V0H0z"/><path d="M17 161.5c-4.7.7-10.4 1.8-12.7 2.4L0 165.1V384h100.9c99.5 0 101 0 101.6-2 .3-1 .2-8.1-.4-15.7-.5-7.6-1.3-19.6-1.6-26.8-.9-19.5-2.4-35-3.5-38.1-.7-1.7-.7-3.1-.1-3.8s.6-1.7.1-2.6c-.6-.8-1-8-1-16s-.3-17.6-.7-21.4c-.5-5.8-.8-6.6-1.9-5.2-1.1 1.6-1.3 1.5-2-.6-.7-2.2-.7-2.2-1.5-.3-.4 1.1-.8 3.3-.9 5-.1 1.6-.4 2.5-.6 1.8-.3-.7-1.2-.9-2.1-.6-1.3.5-1.4 0-.9-3.3.4-2.1 1.3-10.4 2-18.4.8-8 1.9-15.8 2.5-17.3 2.2-5.6 1.6-6.7-3.4-6.7-12.4 0-32.7-14.3-38.9-27.5-3.1-6.4-2.7-6.2-20.6-11.1-40.6-11-84-15.7-110-11.9m274.4 87.7c.8 1.3 1.5 2.6 1.6 3 .2 1.8 8.6 18.7 9.3 18.8.7 0 .1-10.8-.9-15.6-.2-1.2-2.5-3.6-5.2-5.3-5.8-3.7-6.7-3.9-4.8-.9m5.9 20c2.7 6.6 2.5 6.4 3.8 5.1.8-.8.2-2.4-2-5.7-1.8-2.5-3.4-4.6-3.6-4.6s.6 2.4 1.8 5.2m53.3 25.9-3.9 5.1 6.3 6.3c7.4 7.4 7.5 6.6-2.9 17.4-3.3 3.5-6.1 6.6-6.1 6.9 0 .7 31.6-.6 35.3-1.4 1.8-.4 3.5-1.9 4.7-4.3 1.1-2 2.7-4.6 3.5-5.7 1.5-2.1 1.2-2.5-7.7-10.1-10.4-8.8-23.8-19.3-24.7-19.3-.3.1-2.3 2.4-4.5 5.1m65.3 63.2c-6.1 5.7-6.8 6.7-7.9 12.1-.7 3.3-1.8 7.7-2.6 9.8l-1.3 3.8h22.4c12.4 0 22.5-.2 22.5-.5 0-1.8-24-31.4-25.5-31.4-.5 0-4 2.8-7.6 6.2m-116.1 17.5-5.7 7.7 20.5.3c11.2.1 29.7.1 41.2 0l20.7-.3-10.5-4.1c-11.5-4.6-23.9-7.4-42.7-9.8-18.3-2.4-16.9-2.8-23.5 6.2"/></svg>