<svg xmlns="http://www.w3.org/2000/svg" width="682.667" height="512" version="1.0" viewBox="0 0 512 384"><path d="M0 68.4v68.3l5.8-1.3c8.4-1.9 24.8-3.4 37.6-3.4 10.1 0 39 2.2 47.6 3.6 14.2 2.3 27.6 5 40.3 8l14.8 3.6 3.3-3.7c1.7-2.1 5.7-5 8.7-6.4 5.3-2.5 5.4-2.7 5.7-7.2l.3-4.7-7.6-.4c-4.3-.2-7.9-.9-8.3-1.5s-1.6-1.1-2.6-1-2.3-.6-3-1.6c-.9-1.3-.6-2.6 1.3-6.3 2.7-5 8.2-10.2 18.1-17.2 3.6-2.5 6.8-4.8 7.2-5.1.4-.4 1.9-9.3 3.2-19.9 2.5-19 3.5-22.7 7.4-26.8 6.7-7 23.9-17.4 29-17.4 1.2 0 3.5-.9 5-2 2.9-2 7.6-3.8 18.2-6.6 8.7-2.3 27.1-2.5 32-.3 1.9.9 8.8 6.7 15.3 12.9L291 43.2l10.8-1.8c14.5-2.5 27.8-2.4 32.3.2s4.8 5.8 1.1 11c-3.1 4.2-15.2 13.9-22.8 18.1-2.4 1.3-4.6 2.9-4.9 3.4-.6.9 6.8 13.9 13.7 24.1 2.1 3.2 3.6 5.8 3.3 5.8s-2.2-1.1-4.2-2.5c-2-1.3-3.8-2.3-4-2.1s.1 2.3.6 4.7c.6 2.7.6 6.2.1 8.9-.5 2.5-.9 4.9-1 5.4 0 .4-.9-.2-1.9-1.5l-1.9-2.4-1.9 3.3c-1.8 3.3-5.1 7.9-3.8 5.4.3-.6.1-1.2-.5-1.2s-.8-.6-.4-1.3c.3-.6-1.2.8-3.4 3.3-2.3 2.5-4.1 5.5-4.2 6.8 0 1.3 1.7 4.1 4.1 6.7 4.6 5 4.5 5.7-1.7 9.6-2.5 1.5-3.4 2.8-3.4 4.8 0 3.2-2.5 7.1-4.6 7.1-.8 0-1.4.9-1.4 2 0 1.2-.9 3.3-1.9 4.8-1.1 1.6-2.1 5.3-2.5 9.2-.9 10.2-3.3 16.5-7.7 20.5-2.2 1.9-4.8 3.5-5.9 3.5-3.6 0-2.1 1.6 5.3 5.7 8.8 4.9 23.7 13.5 33.7 19.6 6.6 4 7.7 4.4 9.1 3.1.8-.8 3.2-1.4 5.1-1.4 2.9 0 4.3.8 7 3.8 1.9 2.1 4.8 4.4 6.5 5.1s4.5 2.8 6.4 4.7c1.8 1.9 4 3.4 4.9 3.4.8 0 3.7 1.8 6.4 4 2.6 2.2 5.3 4 5.8 4s2.3.9 3.9 2.1c2.4 1.7 2.9 2.7 2.9 6.3 0 4.2.2 4.4 8.1 10.5 4.5 3.4 13.8 11.1 20.6 16.9 6.9 5.9 13.5 10.7 14.6 10.8 1.2.1 3.2.2 4.5.3 1.4 0 2.9 1.2 3.9 3 1.2 1.9 3.1 3.3 6.2 4.2 2.4.8 4.8 2.2 5.3 3.1.4 1 1.2 2.6 1.7 3.5.4 1 1.7 2 2.7 2.2 2.9.5 5.4 3.1 5.4 5.6 0 1.2.9 3 2.1 4.1 1.7 1.5 1.9 2.6 1.5 5.9-.6 3.8-.3 4.4 6.6 12.9 8.6 10.5 12.1 15.3 22.5 30.4l7.7 11.2H512V0H0z"/><path d="M15.5 161.4c-3.8.7-8.9 1.8-11.2 2.5L0 165.1V384h204v-6.5c0-9.3-2.9-62.6-3.9-71.5-.4-4.1-.8-8.4-.9-9.5-.2-15.4-1.4-40.9-2-44l-.8-4-.8 3-.9 3-1.2-2.9-1.2-2.9-.7 4.6c-.9 5.7-3.2 7-3.4 1.9-.2-5.9 3.7-35.7 5.3-40.3 2-5.7 2-5.9-2-5.2-10.2 1.7-33.4-13.3-39.8-25.7-1.3-2.5-3.5-5.1-4.9-5.7-7.3-3.6-45.8-12.6-67.8-15.9-14.2-2.1-54.1-2.8-63.5-1m278.6 87.7c.7 1.3 1.3 2.8 1.4 3.4 0 .5 2.2 5.2 4.8 10.2 4.6 9 5.1 12.9.7 5.8-2.9-4.7-3.3-4.4-1.3.7 1.9 5.1 4.3 8.2 4.3 5.6 0-.9.4-1.8.8-2 .5-.2.5-4.4 0-9.3-1-9.7-1.5-10.5-8.9-14.9l-3.1-1.8zm61.8 43.3c-.8 1.1-2.6 3.6-3.9 5.4l-2.4 3.3 4.7 4c2.6 2.3 5.4 5.3 6.2 6.9 1.4 2.6 1.2 2.9-3.8 8.6-2.9 3.2-6.2 6.7-7.5 7.7-1.2 1-2 2.3-1.7 2.8.9 1.3 15.2 1.1 26.7-.3l9.8-1.2 3.7-6 3.6-6-4.4-3.8c-4.9-4.4-26.8-22.1-28.4-23-.5-.3-1.7.4-2.6 1.6m66.1 63.5c-1.4 1.5-4.4 4.1-6.7 5.9-3.6 2.8-4.2 3.9-4.8 8.4-.4 2.9-1.4 7-2.1 9.2-.8 2.1-1.3 4.1-1.1 4.3s10.2.2 22.2.1l21.7-.3-5.7-7.5c-9.7-12.5-18.8-23-19.9-22.9-.6 0-2.2 1.3-3.6 2.8m-116.2 15.9c-1.4 2-4.1 5.6-5.8 8l-3.2 4.2h39.9c25.6-.1 39.2-.4 38.2-1-5.2-3-18.9-7.6-28.9-9.6-8.8-1.8-34.8-5.5-37.2-5.4-.1 0-1.5 1.7-3 3.8"/></svg>