<svg xmlns="http://www.w3.org/2000/svg" width="682.667" height="512" version="1.0" viewBox="0 0 512 384"><path d="M0 68.1v68.1l2.7-.7c15.6-3.9 23.4-4.8 44.3-4.9 30.4-.1 62.3 4.1 93.6 12.5 6.1 1.6 11.5 2.9 12 2.9.6 0 1.6-1.6 2.3-3.5 1.6-4.6 4.4-7.2 10.7-10.1 4.6-2.2 5.2-2.9 5.8-6.2 1.1-7 1.2-6.9-6.4-7.6-3.8-.4-7-1.1-7-1.7 0-.5-1.3-.9-2.9-.9-6.3 0-4.5-7.9 3.5-14.9 2.6-2.3 8.5-6.6 13-9.4 7.2-4.5 8.3-5.6 8.9-8.7.3-1.9 1.2-5.8 2-8.5.8-2.8 2.1-9.3 3-14.5 2.1-12.2 4.4-17 10.8-22.1 5.8-4.7 22.6-13.1 26.6-13.3 1.4-.1 4.6-1.1 7.1-2.3 6-2.9 23.5-6.3 32.4-6.3 4 0 9.7.7 12.7 1.5C280 19 281.7 20.3 293 32l12.6 12.9 8.9-.9c45.2-4.8 49.9 7.5 11 29-7.6 4.2-7.2 3.7-5.5 6.3 2.4 3.9 14 26.9 14 27.9 0 .5-1.5-.3-3.2-1.8l-3.3-2.7-.6 7.9c-.4 4.3-1 9.2-1.5 10.9l-.8 3-.6-2.5c-.8-3.5-2.3-3.1-6.1 1.5-1.8 2.2-2.9 3.2-2.6 2.2.9-2.3-1.9-2.3-3.2.1-.5 1-2.1 2.4-3.5 3.2-4 2.1-3.5 6.1 1.4 11.4l4.1 4.4-3.1 2.3c-6.2 4.7-8 6.8-8 9.4 0 1.7-.9 3.1-2.8 4.3-2.5 1.6-2.8 2.3-3.1 8.7-.8 17.7-4.6 26.5-13.4 30.5l-3.8 1.7 7.8 4.3c4.3 2.4 14.7 8.5 23.2 13.7 14 8.5 15.5 9.2 17.1 7.8 3.1-2.8 7.5-1.9 11.8 2.4 2.2 2.2 5.6 4.6 7.4 5.4 1.9.8 4.4 2.7 5.6 4.2s4.3 3.8 7 5c2.6 1.2 5.3 3 6.1 3.9.8 1 3.3 2.7 5.5 3.8 5.4 2.7 6.6 4.6 6 8.8-.4 3.1-.1 3.8 2.9 6 4.1 3 22.1 17.8 25.8 21.1 11.3 10.5 12 11 14 10.4 2.8-.9 7.4 1.2 8.6 3.8.6 1.3 2.8 2.7 5.9 3.6 4.1 1.3 5.1 2.1 5.8 4.8.7 2.3 1.9 3.5 4.7 4.6 3.1 1.2 3.9 2.1 4.4 5 .4 2 1.5 4.3 2.6 5.3 1.4 1.3 1.7 2.6 1.3 5.8-.5 3.9-.1 4.5 7.2 13.6 7.3 9 22.6 30.1 26.2 36.2l1.6 2.8H512V0H0z"/><path d="M22.3 159.4c-4.5.7-11.4 2.4-15.3 3.7l-7 2.3V384h208.3l-.7-23.3c-.4-12.7-1.3-35.1-2.1-49.7s-1.6-34.6-1.9-44.4c-.3-9.9-.8-18.1-1.1-18.4-.2-.3-1 .8-1.6 2.4s-1.3 2.3-1.6 1.6c-.9-2.4-2.1-1.1-2.8 3-.6 4.1-.7 4.2-1.7 1.8-2-5.2 3.3-41.7 7.1-48.8.6-1.1 1.1-2.3 1.1-2.5s-2.9-.7-6.4-.9c-4.4-.4-8.3-1.5-12.4-3.6-7.1-3.6-22.8-16.4-23.8-19.4-.8-2.5-4.1-3.9-22.7-9.2-32.1-9.2-59-13.5-87.7-14.1-13.4-.3-22 0-27.7.9m278.4 89.8c.6.7 1 2 1 2.9 0 .8 2.1 5.7 4.7 10.8s4.6 9.5 4.3 9.7c-.2.2-1.3-.5-2.5-1.6-2.5-2.4-2.6-2.3-1.1 1.9 1.3 3.6 2 3.8 3.6 1.2 1.2-1.9.7-17.8-.6-19.9-.7-1-8.7-6.2-9.7-6.2-.4 0-.2.6.3 1.2m59.9 46.8c-2 2.7-3.6 5.4-3.6 5.8s2.7 3.4 5.9 6.6l6 5.9-2.1 3.1c-1.2 1.7-4.6 5.6-7.5 8.7l-5.5 5.6 3.8.7c2 .4 10.2.2 18-.5l14.4-1.2 3.6-6.1 3.6-6.1-5.3-4.9c-4.3-3.8-18.2-15.2-26.5-21.8q-1.2-.9-4.8 4.2m66.9 61.8c-2.3 2-5.3 4.6-6.9 5.7-2.1 1.6-3.1 3.4-4.2 8.5-.8 3.6-1.7 7.7-2 9.2l-.6 2.8h21.1c19.9 0 21.1-.1 20.2-1.8-1.5-2.8-22.2-28.2-22.9-28.2-.4 0-2.5 1.7-4.7 3.8m-118.7 18.7-5.7 7.5h38.6c21.2 0 38.4-.2 38.2-.4-1.3-1.3-17.5-7-24.7-8.7-9.1-2.2-32.9-5.9-37.7-5.9-2.6 0-3.8 1.1-8.7 7.5"/></svg>