<svg xmlns="http://www.w3.org/2000/svg" width="682.667" height="512" version="1.0" viewBox="0 0 512 384"><path d="M0 68c0 37.4.3 68 .8 68 .4 0 2.9-.7 5.7-1.5 12.9-4 22.7-4.8 51.4-4.2 20.8.4 30.8 1 40.6 2.6 21.1 3.3 39.2 7.2 55.3 12 3.1.9 3.4.8 4.3-1.7.5-1.5 1.4-3.9 2-5.4 1.1-2.7 6-6.5 11.5-8.7 2.7-1.1 3.2-1.9 4.1-6.7.5-3 .7-5.6.4-5.8s-3.4-.7-6.8-1.1c-3.5-.4-6.3-1.1-6.3-1.5 0-.5-1.2-1-2.6-1.2-1.5-.2-3.1-1-3.7-1.9-2.8-4.5 3.7-11.9 18.6-21.1 8.9-5.6 9.8-6.5 10.8-10.2.5-2.3 1.6-6.1 2.4-8.6 1.8-5.9 3.4-13.5 4-19 .8-6.4 4.6-12.1 11.4-17.3 6.4-4.8 19-10.5 25-11.4 2-.3 5.4-1.4 7.6-2.4 10.7-4.9 33.6-7.3 44-4.4 7.8 2.1 11.9 5.4 23.2 19.2l8.2 9.9 9.3-.9c19.7-1.8 35.7.3 37.5 5 2.2 5.7-6.6 13.7-25.6 23.3-4.4 2.2-8.1 4.3-8.1 4.5 0 .3 3.4 7.5 7.6 16.1 4.1 8.6 7.3 15.8 7.2 16-.2.2-2.1-1.1-4.3-2.8l-3.8-3.2.5 4.8c.4 3.1 0 6.6-1.2 10.4-1 3.1-1.9 4.9-1.9 3.9-.1-.9-.4-1.7-.8-1.8-.5 0-1.6-.2-2.5-.4-1-.2-1.7 0-1.6.3.1.4-.8 2.3-2 4.2s-2.2 2.9-2.2 2.2c0-2.1-2.3-1.3-6.4 2.2-4.6 3.9-4.5 6.4.5 12.1 3.8 4.3 3.3 6.6-2.1 9-2.2 1-4.2 2.7-4.5 3.9-1.5 5.2-2.9 7.6-4.4 7.6-1.4 0-1.6 1.5-1.7 10.3 0 8.1-.5 11.4-2.3 15.9-2.6 6.7-6.6 11.1-11.2 12.4l-3.3.9 14 8.2c7.6 4.5 17.8 10.6 22.6 13.6 7.3 4.6 8.9 5.3 9.9 4.1.6-.8 2.9-1.4 4.9-1.4 3.1 0 4.6.7 7.8 3.9 2.2 2.2 5.5 4.6 7.4 5.4s4.5 2.7 5.8 4.3c1.4 1.6 4.4 3.7 6.7 4.8 2.3 1 5 2.8 6 3.8 1 1.1 3.9 3.1 6.4 4.4 5.2 2.6 6 3.9 5.3 8.6-.5 3-.2 3.6 3.4 6.3 8.1 6.1 22.9 18.6 29.7 25 6.4 6 7.3 6.5 10.3 6 2.8-.5 3.8-.1 7.3 3.4 2.4 2.5 4.9 4.1 6.4 4.1 2.4 0 6.5 4.1 6.5 6.6 0 .7 1.7 2.1 3.8 3.1 2.4 1.2 4.1 2.8 4.7 4.8.6 1.6 1.8 4.1 2.7 5.6 1.3 1.9 1.6 3.2.9 5.5-.8 2.8-.3 3.8 5.6 11.5 12.7 16.4 20.1 26.5 24.6 33.6l4.7 7.3h20V0H0z"/><path d="M29.6 158c-8.8 1.1-19.8 3.8-25.3 6.1L0 165.9V384h211v-7.3c0-3.9-.7-21.1-1.5-38.2s-1.8-41.6-2.1-54.5c-.4-12.9-1-26.9-1.3-31-.7-6.9-1.1-7.3-2.6-2.4-.4 1.3-.8 1.4-2 .4-1.3-1-1.5-.9-1.5 1.1 0 1.3-.4 3-.9 3.7-4.5 7.2 1.6-39.3 6.5-49 2.1-4.1 1.8-5-1.3-4.4-3.5.8-12.6-1.6-17.9-4.6-4.9-2.8-15.6-11.1-19.8-15.5-3.7-3.8-9.2-6-28.1-11.2-31.8-8.8-57.6-13-84-13.6-9.9-.2-21.1 0-24.9.5m275.6 92.8c0 1.5 2 6.6 4.4 11.3 4.2 8.4 4.7 11.2 1.6 8.6-1.3-1-1.5-.8-.9 1.3.4 1.4.7 2.8.7 3.2 0 .5.7.8 1.5.8 1.4 0 1.9-1.2 1.6-3.3 0-.4.3-.7.7-.7.9 0 .7-5-.4-13.7-.4-3.7-1.2-4.7-4.8-7.3l-4.3-2.9zm59 45.7c-1.8 2.5-3.2 4.9-3.2 5.3s2.7 3.4 5.9 6.6c7 7 7.1 6.7-2.6 16.7-6 6.2-6.2 6.7-4.1 7.3q5.25 1.35 23.1-.6l10.7-1.1 3-5.6c1.7-3.1 2.9-6.1 2.8-6.7-.5-2.1-29.5-26.4-31.5-26.4-.5 0-2.4 2-4.1 4.5m68.2 60.6c-1.6 1.7-4.7 4.4-7 5.9-3.7 2.6-4.2 3.4-5.8 10.7-1 4.3-2 8.4-2.3 9-.4 1 4.1 1.3 20.6 1.3 11.6 0 21.1-.3 21.1-.6 0-1.1-22.5-29.4-23.4-29.4-.1 0-1.5 1.4-3.2 3.1m-118.5 17.4c-2.4 3.2-5 6.6-5.8 7.6-1.3 1.8-.3 1.9 36.5 1.8l37.9-.1-5.2-2.4c-10.6-5.1-32.5-10.1-52.4-12l-6.7-.7z"/></svg>