<svg xmlns="http://www.w3.org/2000/svg" width="682.667" height="512" version="1.0" viewBox="0 0 512 384"><path d="M0 68.1v68.1l2.3-.7c9.6-3 22.9-5.6 33.6-6.6 28.3-2.6 71.1 1.8 105.7 10.8 20.7 5.4 19.7 5.4 21.2-.2 1.4-5.4 5.4-9.5 11.8-12.1 4.5-1.8 4.5-1.8 6-10.5l.6-3.6-6.4-.7c-3.4-.4-6.5-1.2-6.9-1.7-.3-.5-1.6-1.1-2.8-1.4-2.7-.5-5.1-2.3-5.1-3.8 0-2.2 5.1-8.4 9.9-12.1 2.8-2 8.5-5.7 12.7-8.1l7.8-4.4 2.3-7.8c2.9-9.6 5.2-18.8 5.7-22.8 1.1-9 8.2-17 19.9-22.7 8.9-4.4 16.6-7 18.4-6.4.7.3 2.8-.3 4.5-1.4 9.2-5.3 39-7.5 49.6-3.5 5.8 2.1 7.6 3.9 20.1 19.3 7.9 9.8 8.4 10.3 11.3 9.6 5.2-1.1 30.1-.8 34.4.4 4.9 1.4 9.4 4.7 9.4 6.9 0 4.8-10.3 12.9-26.5 20.8-4.4 2.1-8.2 4-8.4 4.2s1.4 4.2 3.6 9c6.3 13.6 10.3 22.5 10.3 22.9 0 1.2-2.4.1-4.5-2.1l-2.5-2.4v4.1c0 4.4-2.9 14.8-4.1 14.8-.4 0-1.1-1-1.4-2.1-.7-2.1-.8-2-3.4 1.1-5.4 6.9-5.2 6.7-4.5 4.7.9-2.6-1.2-2.1-5.9 1.5-2.3 1.8-4.4 3.4-4.6 3.5-1 .6 1.3 5.7 3.9 8.7 4.5 5.1 4 6.8-3.2 10.5-1.9 1-3.6 2.8-4.1 4.6-.5 1.6-1.6 3.7-2.4 4.6-.8 1-1.6 5-1.9 10.5-.5 9.4-1.9 16.2-4 20.4-1.9 3.9-6.4 7.9-9.7 8.8-2.8.7-2.1 1.3 13.9 10.8 9.3 5.6 19.2 11.6 22 13.3 4.8 3 5.2 3.1 7.9 1.7 4-2.1 7.2-1.1 12.7 4 2.6 2.4 5.4 4.4 6.2 4.4s3.1 1.7 5.1 3.7 5.4 4.5 7.4 5.5 5.9 3.3 8.6 5.3c2.8 1.9 6.1 4.2 7.4 5.1 2 1.4 2.2 2.3 1.8 5.5l-.5 3.9 13.1 10.8c7.3 5.9 16.3 13.7 20.2 17.5 6.4 6.2 7.3 6.7 10.3 6.2 2.8-.5 3.8-.1 7.3 3.4 2.3 2.4 4.9 4.1 6.3 4.1 2.7 0 6.6 3.9 6.6 6.6 0 1.5 1 2.3 3.7 3 3.1.7 3.9 1.5 4.8 4.4.5 1.9 1.8 4.7 2.8 6.2 1.3 1.9 1.6 3.6 1.2 6-.6 3 0 4.1 5.5 11.2 8 10 20.6 27.5 25.3 34.8l3.7 5.8h16V0H0z"/><path d="M34.5 156.7c-8.5 1-19.8 3.8-26.7 6.5L0 166.1V384h214.3l-.7-16.8c-2-49.6-2.6-66.8-3.1-87.7-.3-12.7-.8-25.9-1.2-29.5-.5-6.3-.6-6.4-1.7-3.3-1.4 4.1-2.5 5.1-3.6 3.3-.8-1.2-1-.9-1 1 0 1.4-.4 3.1-.9 3.8-1.7 2.8-2.2-3.9-.7-11.1.8-4 1.8-10.4 2.1-14.2.8-7.6 4.5-21.6 7-26.5l1.6-3h-5.6c-6.2 0-12-2-18.5-6.4-4.4-2.9-6.7-4.7-15.8-12.1-9.3-7.5-55.7-19.4-91.5-23.5-15.4-1.8-37.5-2.4-46.2-1.3m275 94.7c.2 1.8 2.2 7 4.5 11.6 3.2 6.4 3.9 8.5 2.9 9.4-.9.8-1 .8-.5-.2.4-.6.2-1.2-.4-1.2s-.8-.6-.4-1.3c.5-.9.4-.9-.5-.1-1.2 1.1-.6 6 .9 6.9.4.3 1.4-.5 2.3-1.8 1.1-1.8 1.3-4 .7-11.5-.8-9.8-.9-9.9-7.1-13.6l-2.6-1.5zm58.7 45.3-3.2 4.7 4.8 5.1c8.1 8.5 8 8 4.1 12.8-1.9 2.3-5.3 6-7.7 8.2-4.2 3.9-4.2 4-2 4.6 3.8 1.1 12.6 1 23.6-.3 9.4-1.1 10.3-1.4 11.6-3.7.7-1.4 2.2-4.2 3.4-6.1l2.1-3.5-10.7-9.2c-13.7-11.7-20.8-17.3-21.8-17.3-.5 0-2.4 2.1-4.2 4.7m68.6 60.3c-.7 1.2-3.7 3.7-6.5 5.7-2.9 2-5.3 3.8-5.3 3.9 0 1-3 14.2-3.5 15.7-.7 1.6.7 1.7 20.4 1.7 19 0 21.1-.2 20.3-1.6-2.4-4.2-21.7-27.4-22.8-27.4-.8 0-1.9.9-2.6 2m-119.9 18.8c-3.4 4-5.9 7.6-5.6 7.8.2.2 17.2.3 37.8.2l37.4-.3-9.5-3.7c-10.4-4-23-6.9-41.8-9.6l-12.3-1.9z"/></svg>