<svg xmlns="http://www.w3.org/2000/svg" width="682.667" height="512" version="1.0" viewBox="0 0 512 384"><path d="M0 67.1v67.1l3.8-.7c2-.3 8.9-2.2 15.2-4 16.7-4.9 27.4-6.6 45.8-7.2 29.4-1 71.3 4.7 103.7 14.1 11.2 3.3 11.5 3.2 11.5-.3 0-7.2 4.3-13.6 11.6-17.1 3.9-1.9 4.3-2.5 5.8-8.6.9-3.6 1.4-6.9 1.1-7.3-.2-.5-3-1.2-6-1.6-3.4-.4-5.8-1.2-6.2-2.1-.3-.8-1.5-1.4-2.7-1.4s-2.7-.5-3.4-1.2c-4.3-4.3 3.3-12.7 19.1-20.8 7.8-4 10.9-6.2 11.6-8 .4-1.4 2-5.7 3.4-9.5 2.3-6.4 3.3-9.5 6.6-22 1.4-5.3 6.5-11.2 13.4-15.3 6.7-4 24.1-10.4 26.2-9.6.8.4 3-.1 4.8-1 8.2-3.8 29.5-5.7 41.2-3.5 11 2 14.4 4.8 28.1 23.4 3.2 4.4 6.3 8.3 6.9 8.7.5.4 7.8.8 16 .8 15.1 0 21.3.9 27 3.6 9.8 4.6 4.6 12.7-14.5 22.3-5.2 2.6-11.4 5.5-13.8 6.4L352 74l1.6 3.3c1 1.7 3.6 8.4 5.9 14.7 2.4 6.3 4.6 12.3 5 13.2 1.1 2.8-2 2.2-4.4-.8l-2.1-2.7v4c0 2.3-1.1 6.9-2.5 10.4-2 5.4-2.5 6-3.1 4.1-.9-3-1.9-2.8-5.6 1.4-2.7 3-3.3 3.3-4 1.9-.8-1.4-1.4-1.2-4.3 1.3-1.8 1.7-3.9 3.2-4.6 3.4-1.9.6-.2 7.3 2.8 10.9 3.2 3.8 2.5 5.5-3.5 8.4-3 1.4-4.5 2.8-5.2 5.1-.6 1.8-1.7 3.7-2.4 4.3-.9.8-1.2 3.2-.8 8.6.9 13.6-4 27.5-10.9 31-1.7.9-2.9 1.8-2.7 2 .1.1 8.6 5.3 18.8 11.5s19.7 12.1 21.2 13.2c2.6 1.8 3 1.8 5 .4 4-2.8 7.1-2 12.9 3.4 3 2.7 6 5 6.7 5s3.1 1.7 5.5 3.9c2.3 2.1 6 4.8 8.3 5.9 2.2 1.1 4.7 2.8 5.4 3.7.8.9 3.5 2.7 6.1 4.1 5.1 2.5 6.4 4.8 5.4 9.2-.6 3.1-2.1 1.6 23 22.9 7.2 6.1 13.9 12 14.9 13.2 1.2 1.4 3.1 2.1 5.3 2.1 4.3 0 7.2 1.5 8.2 4.3.5 1.4 2.2 2.4 5.2 3.1 3.7.9 4.7 1.8 6.5 5.1 1.1 2.2 2.9 4.2 4 4.4 2.8.5 5.4 3.1 5.4 5.6 0 1.1.7 3 1.5 4.1.8 1 1.5 4.1 1.5 6.8 0 4.4.5 5.6 5.3 11.5 6.8 8.4 13 16.7 19.1 25.8 2.7 4 5.1 7.3 5.3 7.3.1 0 .3-84.4.3-187.5V0H0z"/><path d="M45.5 151.9c-9.4 1.6-17.1 4-31 9.9l-14 5.9-.3 108.2L0 384h227l.7-2.7c.3-1.6.1-20.3-.6-41.8s-1.5-52.5-1.8-69-.9-30.7-1.4-31.5c-.6-1.1-.8-.8-.9 1.2 0 1.6-.4 2.8-1 2.8-.5 0-1 .7-1 1.5s-.6 1.4-1.2 1.3c-.7-.2-1.4.9-1.6 2.4-.2 1.7-.8 2.5-1.6 2.2-1.5-.6-.7-8.6 1.8-18 .9-3.4 1.6-7.6 1.6-9.4 0-4.2 4.7-21.4 7.1-26.2 1.1-2.1 1.9-4.1 1.9-4.5s-2.2-.8-5-.9c-5.8-.1-15.2-4.4-22.6-10.3-10-7.9-57.8-21.8-95.4-27.6-11.8-1.9-52.4-2.9-60.5-1.6M326 245.6c0 .2 1.1 2.8 2.5 5.9 1.4 3 3.7 8.1 5.1 11.2 2 4.5 2.2 5.4.8 4.2-1.6-1.3-1.7-1.2-1.1.5.6 1.6.5 1.7-.8.6s-1.3-.7.1 2.6c2.3 5.6 2.3 5.6 4.7 2.8 2.1-2.4 2.2-2.9 1.2-12.6-1-10-1-10.1-4.5-12.3-3.3-2-8-3.8-8-2.9m63.5 49.1c-1.4 2.1-2.5 4.1-2.5 4.5s2.2 3.2 5 6.4c2.7 3.1 5.2 6.5 5.6 7.6.6 2-2.5 6-10.3 13.2l-3.8 3.5 16 .1c8.8 0 16.5-.4 17-.8 1.2-.8 7.5-11 7.5-12.1 0-1.5-29-26.1-30.9-26.1-.5 0-2.2 1.7-3.6 3.7m67.9 61.4c-1 1.2-4.5 3.9-7.6 6.1-3.3 2.2-6 4.8-6.3 6.1-.3 1.2-1 4.4-1.5 7.1-.6 2.7-1.5 5.7-2.1 6.7-.9 1.8-.2 1.9 21.1 1.9 17.4 0 22-.3 21.4-1.2-3.1-5.1-21.5-28.7-22.5-28.8-.3 0-1.4 1-2.5 2.1m-123 19L327 384h39c21.4 0 39-.2 39-.4s-3-1.8-6.7-3.5c-10.9-5.1-23.6-8.4-51.1-13l-5.3-.8z"/></svg>