<svg xmlns="http://www.w3.org/2000/svg" width="682.667" height="512" version="1.0" viewBox="0 0 512 384"><path d="M0 66.5V133h2.3c1.3 0 8.2-1.6 15.3-3.6 24-6.6 27.2-7.3 40.9-8.4 30.9-2.4 77.7 3 115 13.5 4.9 1.4 9.3 2.5 9.6 2.5.4 0 1.2-2.7 1.8-6 1.3-6.7 4.7-10.9 11.6-14.5 3.4-1.8 4-2.7 5.1-7.5 1.9-8.2 1.8-9-1.3-9-3.9 0-10.3-1.9-10.3-3 0-.6-1-1-2.3-1-5.2 0-6.2-5-2-10.1 3.2-3.8 15.4-12 23.1-15.5 4-1.8 5.7-3.2 6.7-5.8 2.8-6.7 8.5-24.1 8.5-26.1 0-3.6 4.6-11.9 8.3-15.2 2-1.7 5.6-4.3 8-5.8 5.9-3.4 20.4-8.6 24.2-8.7 1.6 0 4.2-.7 5.6-1.4 5.1-2.5 21.6-4.7 32.3-4.2 18.3.9 20.8 2.6 36.9 24.3l7.2 9.6 17.5.3c23.4.4 29.9 2.5 30 9.7 0 4.4-8.4 11.2-22.3 18-6.7 3.2-12.8 5.9-13.4 5.9-1.7 0-1.7.3.8 5.8 1.2 2.6 3.9 9.2 5.9 14.7 2.1 5.5 4.1 10.8 4.5 11.7.6 1.6.5 1.6-2.4.2-1.7-.9-3.1-2-3.1-2.5 0-.6-.5-.7-1.1-.3s-.9 1.9-.5 3.7c.7 3.6-3 14.7-5 14.7-.8 0-1.4-.7-1.4-1.5 0-2.5-1.7-1.7-4.8 2.1-2.6 3.2-3.1 3.4-3.9 1.9-.9-1.6-1.1-1.6-2.9.2-1 1.1-2.9 2.6-4.1 3.2-3.7 1.9-2.8 7.5 2 12.8 2.7 3 1.7 4.9-4 7.5-3.6 1.8-4.9 3-5.5 5.5-.5 1.8-1.6 3.8-2.6 4.5-1.4 1.1-1.7 3.1-1.8 12.3-.1 15.3-2.7 21.9-10.8 27.8-1.6 1.2-.9 1.9 8.7 7.5 5.7 3.4 15.6 9.5 21.9 13.6 10.7 6.8 11.7 7.2 13.9 6 4.3-2.4 7.6-1.7 12.2 2.5 2.3 2.1 6.2 5.1 8.7 6.6 2.4 1.6 5.2 3.8 6.2 5 1 1.3 3.5 3 5.6 3.8s5.6 3 7.9 4.9c2.2 1.8 5.5 4.1 7.3 5.1 3.1 1.7 3.2 2 2.8 6.5-.5 4.6-.3 4.9 3.4 7.6 4.4 3.2 14 11.4 27.2 23.3 8 7.3 9.6 8.3 12.9 8.3 3.7 0 8.7 3.4 8.7 6 0 .5.8 1 1.9 1 4.5 0 7.8 2.1 9.3 5.9 1.2 3 2.3 4 4.5 4.5 3.1.7 5.3 3.9 5.3 7.5 0 1 .7 2.4 1.6 3.2 1.2 1 1.4 2.3.9 5.5-.6 4.1-.4 4.5 7.7 15.1 4.6 5.9 9.8 12.9 11.6 15.5 1.8 2.7 3.5 4.8 3.7 4.8.3 0 .5-82.1.5-182.5V0H0z"/><path d="M52.2 150.1c-9.7 1.2-19.9 4.4-33.4 10.2-6.8 3-13.8 5.8-15.6 6.2l-3.2.7V384h231l.7-2.8c1-3.4.8-12-1.1-69.6-.9-25.3-1.6-52.1-1.7-59.5 0-7.5-.3-13-.6-12.3-.2.6-.8 1-1.3.7s-1.1.4-1.5 1.5c-.3 1.1-1 2-1.5 2s-1.2 1.5-1.6 3.2l-.7 3.3-.9-3.3c-1.3-4.9 5.4-38.4 9.8-49.6 1.3-3.3 2.4-6.3 2.4-6.6 0-.4-2.3-1.1-5.2-1.4-6.4-.9-14.2-4.5-20.6-9.5-9.4-7.5-52.5-20.8-85.7-26.5-24-4.2-53.1-5.6-69.3-3.5m280.2 97.1c.8 1.8 3 6.8 5 11.1 3.8 8.2 4.4 10.4 2.2 7.4-1.3-1.7-1.4-1.6-1.9.3-.3 1.1-.1 2 .4 2 .4 0 .6.6.3 1.3-.3.8 0 2.7.6 4.3l1.1 2.9 2.8-3.4c2.4-3 2.7-3.9 2-7-.5-2-.9-6.1-.9-9.1s-.4-6-.8-6.5c-1.4-1.9-8.8-6.5-10.5-6.5-1.6 0-1.6.3-.3 3.2m63.3 46.8-2.8 4 5.1 5.8c7.1 7.9 7.2 9.1 1.6 15.7-2.6 3-6 6.2-7.7 7.2-1.6.9-2.9 2.1-2.9 2.5 0 1 22.8 1.1 29.4.2 4.3-.6 4.9-1.1 7.2-5.3 1.3-2.5 2.9-5.3 3.5-6.2 1-1.3.3-2.4-3.8-6.2-7-6.6-25.2-21.7-26.1-21.7-.4 0-2 1.8-3.5 4m64.8 63.7c-2.2 1.9-5.6 4.5-7.5 5.8-3.1 2-3.7 3.1-5.3 10.1-1 4.4-2.1 8.5-2.4 9.1-.4 1 4.3 1.3 21.6 1.3 12.2 0 22.1-.3 22.1-.6 0-2.1-21.8-29.4-23.4-29.4-.6.1-2.9 1.7-5.1 3.7m-118.4 13.8c-3.1 3.4-6.8 7.6-8 9.3l-2.2 3.2h40.3l40.3-.1-3.5-1.9c-10.4-5.8-25.7-10.3-47.8-14.3l-13.3-2.4z"/></svg>