<svg xmlns="http://www.w3.org/2000/svg" width="682.667" height="512" version="1.0" viewBox="0 0 512 384"><path d="M0 65.1v65.1l7.7-.7c4.3-.4 11.6-1.8 16.3-3s13.7-3.6 20.1-5.3c23.7-6.3 56.5-6.5 94.4-.7 15.3 2.4 39.6 7.7 49.7 10.9l4.8 1.5.5-2.7c2.4-12.6 3.2-13.9 11.2-18.4 5-2.8 5.2-3.2 6.6-9.1 1.6-7.1 1.6-7.1-6.6-8.2-2.8-.4-5-1.2-5.4-2.1-.3-.8-1.5-1.4-2.8-1.4-3.2 0-4.8-2.3-4-5.9 1.1-5 10-11.9 27.5-21.2 4.2-2.3 4.6-2.9 7.6-11.4 3-8.2 4-11.7 7.4-24.3 1.5-5.7 7.7-12.4 15.6-16.8 8-4.5 21.8-9.4 26.6-9.4 2 0 4-.5 4.3-1 .4-.7-46.7-1-140.4-1H0zM333.9 2.2c1.9 1.2 7.7 8 13 15.1l9.6 12.8 16.5.3c18.3.2 25.6 1.5 30 5.3 4.5 3.7 4 6.7-2 12.4-3.4 3.4-8.9 6.8-18 11.3-7.2 3.6-13.6 6.6-14.2 6.8-.9.3 4.4 14.9 11.9 32.6.4.8-.8.6-3.1-.7L374 96v2.3c0 1.3-1 5.4-2.3 9.1-2.2 6.6-2.4 6.8-4.1 5-1.8-1.7-2-1.7-5.2 1.9-3.2 3.4-5.3 4.9-3.9 2.8 1.3-2.2-1.8-2.1-3.9.1-1.3 1.2-3.3 3-4.5 3.8-1.9 1.3-2 1.9-1.1 4.9.5 1.9 1.9 4.4 3.1 5.7 3.2 3.4 2.2 6.5-3.1 9-3.4 1.7-4.8 3.2-6.2 6.3-1.1 2.6-2.5 4.2-4 4.6-2.2.6-2.3 1-2.4 11.8 0 12.9-2.3 20.7-7.6 25.6l-3 2.8 12.4 7.3c6.8 4.1 17.4 10.7 23.6 14.7 11.1 7.2 11.3 7.3 14.2 5.8 4.5-2.3 6.1-1.9 12.5 3.3 3.3 2.7 7.5 5.6 9.2 6.6 1.8.9 4.2 3 5.4 4.6s3.4 3.2 4.9 3.5c1.4.3 4.8 2.4 7.4 4.5 2.7 2.2 5.4 4 6 4 .7 0 2.3 1.1 3.6 2.5 1.9 2 2.2 3.1 1.6 6.3l-.6 3.9 10.3 8.5c5.6 4.7 14.6 12.6 20.1 17.6 8.8 8.1 10.3 9 14.7 9.6 3.9.5 5.3 1.2 6.6 3.4 2.3 3.5 3.3 4.2 6.4 4.2 3 0 5.5 2.4 6.4 6.2.5 1.9 1.4 2.8 2.7 2.8 2.6 0 6.8 4.4 6.8 7.2 0 1.3.7 3.2 1.6 4.3 1 1.4 1.3 3.1.9 5.7-.6 3.2-.1 4.4 3.6 9.5 2.3 3.2 4.6 6.2 5 6.8.5.5.9-75.9.9-171.8V0H330.5zM62.5 146.5c-11.9 1.9-17.6 3.6-33.1 10.2-7.7 3.3-17.5 6.9-21.7 7.9L0 166.5V384h239.7l1.3-5.7c1-4.5 1-11.3.1-33.7-2.1-50.6-2.9-81.9-2.4-94.6.4-10.1.2-13.1-1.1-15.5-.9-1.7-1.6-2.4-1.6-1.6 0 1.3-4.7 12.1-5.3 12.1-.9 0-.3-10.2.9-15.7.8-3.8 2.3-10.9 3.4-15.8 2-9.2 4.9-19.8 6.9-24.8.6-1.6 1.1-2.9 1.1-3.1 0-.1-2.3-.3-5.1-.3-5.9-.1-17-5.1-23.3-10.6-5.9-5.1-36.1-15-65.6-21.5-33-7.3-66.5-9.9-86.5-6.7M343 241.4c0 1.1 6.5 16 8.8 19.9.2.5-.5.4-1.6-.2-1.7-.9-2-.8-1.8 1.4 0 1.4.4 2.5.8 2.5s.4.7.1 1.7c-.4.9-.2 1.4.3 1.1s1 1.2 1.1 3.4c0 2.2.3 4.2.6 4.5s2-1 3.7-2.9c3.1-3.3 3.1-3.3 2.5-11.8-.9-13.2-1-13.4-7-17.4-5.9-3.9-7.5-4.4-7.5-2.2m66.9 50.4-2.5 3.7 5.3 6.5c3.1 3.9 5.3 7.5 5.3 9 0 1.7-2 4.5-6.7 9.2l-6.6 6.7 2.7.7c1.5.3 8.4.4 15.3.2 14-.6 13.4-.3 18.2-9.2l2.3-4.5-6.3-5.9c-6.4-5.9-23.5-20.2-24.1-20.2-.2.1-1.4 1.7-2.9 3.8m65.3 63.5c-1.7 1.8-5.4 4.6-8.1 6.2-4.8 2.9-4.9 3.2-6.9 11-1.1 4.4-2.3 8.8-2.7 9.7-.7 1.7.8 1.8 23 1.8 18.9 0 23.5-.3 22.8-1.3-.6-.6-3-3.9-5.4-7.2-7.8-10.7-18-23.5-18.8-23.5-.4 0-2.1 1.5-3.9 3.3m-123.5 17.6c-4.5 5.3-8.6 9.9-9.2 10.3-.5.4 18.6.8 42.5.8h43.5l-8.3-4c-14.2-6.8-32.4-11.9-57.5-16.3-2.5-.4-3.6.6-11 9.2"/></svg>