<svg xmlns="http://www.w3.org/2000/svg" width="682.667" height="512" version="1.0" viewBox="0 0 512 384"><path d="M0 56.4v56.4l7.8.9c4.2.4 16 .8 26.2.8l18.5-.1 14-4.2c19.5-5.8 29.3-7.4 49.5-8 29.9-.8 71.6 4.9 104.2 14.4 1.3.4 1.8-.8 2.8-6.8 1.1-6.6 1.6-7.7 5.5-11.4 2.4-2.3 5.9-4.7 7.8-5.3 3.1-1.1 3.6-1.7 4.4-6.1 1.1-5.5 1.3-5.3-6.2-6.5-6.9-1.1-10.7-2.6-10.1-4 .3-.9-.4-1.5-1.7-1.7-1.5-.2-2.3-1.1-2.5-3-.6-5.3 10.6-14.9 27.2-23.4l7.6-3.9 1.9-6.5c1.6-5.5 3.3-12.1 3.6-14 0-.3.5-1.9 1.2-3.5.6-1.7 1.4-4.7 1.8-6.7.3-2 2.1-6 4-8.8l3.4-5H0zM382 .6c0 .4 1.6 2.8 3.6 5.5l3.6 4.9 8.1-.2c27.3-.7 42 2.4 44.2 9.3 1.9 5.8-12 17-32.1 26.1-4.6 2.1-7.4 3.9-7.4 4.9 0 2.1 9.4 25.1 12.1 29.7l2.2 3.7-2.6-2.4c-2.9-2.6-3.4-2.2-1.6 1 1 1.9.9 2-1.1.9-3.1-1.7-5.3-.5-4.6 2.3.3 1.4-.2 3.9-1.4 6.2-1.1 2.2-2 4.5-2 5.2 0 2-2 1.5-2.1-.5 0-1.4-.2-1.4-.9.3l-.9 2-.1-2c-.1-1.8-.3-1.8-2.4.7-1.4 1.5-3.5 2.9-4.8 3-1.2.2-4.2 1.5-6.6 2.8-4.1 2.4-4.3 2.7-3.9 6.3.3 2.1 1.8 5.4 3.3 7.4 3.1 4.1 2.6 6-2.2 8.1-5.3 2.4-5.9 2.9-6.8 6.2-.6 2-2.1 4-3.8 4.9-2 1.1-2.9 2.6-3.3 5.1-2.2 14.2-5 23.2-9.1 28.6-2 2.5-3.4 4.7-3.2 4.8s8.7 5.3 18.9 11.4c10.3 6.1 22.9 13.8 28 17.2 8.7 5.7 9.5 6 13.6 5.4 5.9-.9 8.4 0 14.5 4.9 2.9 2.3 7 5.3 9.1 6.6s4.5 3.4 5.3 4.6c.8 1.3 2.7 2.6 4.2 3 2.5.6 7.8 4.1 11 7.2.7.7 1.9 1.3 2.6 1.3s2.5 1.3 4 2.9c2.5 2.6 2.8 3.4 2.2 7.4l-.7 4.4 14.8 12.6c8.1 6.9 17 14.8 19.8 17.6 2.7 2.8 5.7 5.1 6.7 5.1 1.7 0 1.8-6.4 1.8-143.5V0h-65c-35.7 0-65 .3-65 .6M98 133.5c-13 1.7-19.9 3.7-36.9 10.9-19.4 8.2-25.6 9.6-44.8 10.3l-16.3.6V384h263.8l2-4.8c1.1-2.6 2.4-7 3-9.7 1.1-5.8.9-16.8-1.5-74-.5-9.9-.7-30.9-.5-46.8.2-16.6-.1-28.7-.6-28.7-.9 0-4.2 9.1-4.2 11.8 0 1.1-.6.9-2-.8-1.4-1.6-1.9-3.3-1.6-4.9.3-1.5.7-4.4 1.1-6.6 1.2-8 9.5-39.3 12-45.6.5-1.4-.4-1.6-6.7-1.5-6.4 0-8-.4-13.7-3.4-3.5-1.9-9.2-6-12.7-9.2-5.8-5.2-7.4-6-17.6-9.3-29.3-9.3-62.6-15.7-90.8-17.5-19.2-1.2-18.4-1.2-32 .5m278 95c0 .2 1.8 4.6 4.1 9.7s4.5 10.3 5 11.6c.8 2.2.8 2.2-1.6.6-1.4-.9-2.5-1.3-2.5-1 0 .7 6.2 25 6.4 25.3.5.6 11.6-15.9 11.2-16.6-.3-.4-1-4.1-1.6-8.2s-1.3-8.4-1.6-9.6c-.7-3.6-19.4-15-19.4-11.8m77 55.6c-1 1.7-.4 3 3.5 8.7 2.5 3.7 4.8 8.4 5.1 10.3.6 3.3.2 3.9-6.6 10.2l-7.1 6.6 3.3.6c1.8.3 8 .5 13.8.3 9.3-.3 10.6-.5 11.5-2.3.6-1.1 2.3-3.9 3.8-6.2 1.5-2.4 2.7-4.6 2.7-5.1 0-1.2-27-25.2-28.4-25.2-.3 0-1 .9-1.6 2.1m53.5 72.9c-2.7 1.7-5.3 3.1-5.8 3.3-.4.1-1.8 4.6-3.1 9.9-1.4 5.3-2.9 10.6-3.6 11.7-1.1 2.1-.9 2.1 8.5 2.1h9.5v-15c0-8.3-.1-15-.2-14.9-.2 0-2.5 1.3-5.3 2.9M388 368.6c-5.8 6.4-11.3 12.4-12.3 13.5-1.8 1.9-1.1 1.9 49.5 1.9h51.3l-11.5-5.6c-15.6-7.6-20.8-9.7-32.5-13.3-7.7-2.3-32.9-8.3-33.8-8-.1 0-4.9 5.2-10.7 11.5"/></svg>