<svg xmlns="http://www.w3.org/2000/svg" width="682.667" height="512" version="1.0" viewBox="0 0 512 384"><path d="M0 192v192h512V0H0zM267.2 76.4c3.7 1.3 20.7 13.5 20.8 14.8.1 1.8-5.9.5-11-2.2-6.3-3.4-8-3.7-7.9-1.3.3 5.7 1.1 6.4 11.9 10.2 11.2 3.9 12.7 5.4 9.2 8.9-2 2-2 2 3 4.1 2.7 1.1 4.7 2.5 4.3 3-.3.6.6 1.3 2 1.7 1.4.3 2.3.9 2 1.2s.4 1.6 1.6 2.8l2.1 2.3-2.1-.6c-1.2-.3-2.4-.9-2.7-1.4s-1-.9-1.6-.9-.2 1 1 2.3c2.3 2.4 3.2 5.1 1 2.9-1.7-1.7-2.9-1.5-2.2.3.4.9 0 1.5-1 1.5-.9 0-1.6-.6-1.7-1.3 0-.9-.2-.9-.6.1-.2.6-1 .9-1.6.5-.7-.4-1.6-.8-2.2-.9-.5-.2-2.6-.6-4.5-1-3.3-.7-3.4-.6-2 1.1s1.3 1.7-1 1c-1.4-.5-3.8-.9-5.3-1-2.2-.1-2.7.2-2.1 1.4.3.9 1.5 4 2.6 6.8 1.2 2.9 2.7 5.3 3.4 5.3.8 0 1.4-.4 1.4-.9s1.5-2.6 3.4-4.5c2.4-2.6 4.2-3.6 6.4-3.6 2.9 0 3.1.3 3.6 4.2.3 2.4.7 6.1.8 8.3l.3 4 12 2.3c6.6 1.3 13 2.5 14.2 2.8 1.6.3 2 .9 1.6 2.4-.4 1.3-1.1 1.9-2.2 1.6-5-1.5-16.3-3.7-16.8-3.3-.3.3.9 1.3 2.7 2.2 1.7.9 4.1 2.6 5.2 3.7l2.1 2.1 14.1-2.7c18.7-3.5 40.6-3.5 40.6 0 0 .8 1 1.4 2.3 1.5 1.2 0 1.6.3 1 .6-2.1.8-1.5 2.1 2.2 5.9 3.1 3 3.8 3.3 5.7 2.3 1.8-1 2-.9 1.5.5-.8 2 3.6 5.1 5.8 4.2.9-.3 1.3-.2 1 .4s-1.3 1-2.1 1-1.4.7-1.4 1.5-.6 1.5-1.2 1.5c-.7.1-.2.7 1.2 1.5 1.6.9 2 1.5 1 1.5-1 .1-1.1.3-.2.7 1.9.7.4 2.3-1.6 1.6-1.3-.4-1.3-.2.3 1l2 1.6-2 .1c-1.8.1-1.9.1-.2 1.1 2.5 1.4 2.1 3.1-.5 2.4-2.2-.6-2.2-.5-.3.6 1.9 1.2 1.9 1.2 0 1.9-1.1.4-3.5.1-5.4-.6-4.1-1.7-4.2-1.7-3.5-.1.3.8-.7 1.9-2.3 2.8-4.4 2.2-5.4 3.4-4 4.9 1 1 .8 1-.8.3-1.1-.6-2.5-.8-3.2-.6-.6.2-2.5-.3-4.2-1.1-5-2.6-5.7-1.8-1.5 2 2.7 2.4 2.9 2.9.9 1.4-1.6-1.1-4.6-3.2-6.5-4.5-3.5-2.5-9.5-3.9-28.5-7-5.4-.8-12.2-2.6-15-3.9-3.5-1.6-7.2-2.3-12.2-2.5l-7.2-.2 1 3.6c1.4 5.1.8 10.6-1.4 11.9-1.5.9-2.2.6-4.2-1.6l-2.3-2.7-1.2 3c-1.3 3-4.2 3.9-5.7 1.6-.4-.6-1-4.1-1.3-7.7l-.5-6.5h-15c-8.2 0-15.6-.4-16.2-.8-.7-.5-1.3-2.1-1.3-3.7 0-1.9-.6-3.1-1.7-3.4-2.3-.7-47.5-3.7-48-3.2-.3.2 1.9.7 4.6 1.1 2.8.4 5.1 1.2 5.1 1.9 0 .6 2.3 1.9 5 2.9 5.2 1.9 5.6 2.3 4.1 4.6-.8 1.2-1.8 1-6.3-.9-2.9-1.3-10.9-4-17.8-6.1-10.6-3.2-12.7-3.5-13.6-2.3-.6.8-1.6 1.4-2.3 1.4-.6 0-1.1.4-1.1 1s-1 .5-2.5-.2c-1.4-.6-2.5-1.9-2.5-2.9 0-2.4-1-2.9-8.8-4-7.2-1-11.2-3.9-11.2-8.1 0-2 .3-2.1 9.3-1.4 5 .4 13.9 1.3 19.7 2.1s19.1 2.2 29.5 3c10.5.9 21 1.8 23.5 2.1 4.1.5 4.8.3 7.7-2.8 2.7-2.9 7.5-10.5 11.9-18.8 1-1.9 1.1-4.2.3-10-1.4-10.6-1.7-12-3.5-12-2.6 0-7.2-2.9-7.9-5-.4-1.4.1-3 1.8-5 1.4-1.6 2.7-2.7 3-2.4s.8.1 1.1-.5c.3-.5-.8-1.3-2.6-1.6-13.4-3-22.8-7.9-22.8-12.1 0-1.8.7-2.8 2.1-3.1 1.2-.4 1.8-1.1 1.5-2-.9-2.2 2-2.6 6.8-1 4 1.4 4.9 1.4 8.9-.1 3.1-1.1 5-2.6 6.2-4.9 2.4-4.3 4.6-6.2 9.2-7.9 4.8-1.7 8.8-1.7 13.5 0M328 129c0 .5-.2 1-.4 1-.3 0-.8-.5-1.1-1-.3-.6-.1-1 .4-1 .6 0 1.1.4 1.1 1"/><path d="M252 114c-1.1.7-1.2 1.5-.5 3.6.6 1.5 1.5 2.9 2.2 3.1 1.5.5 2.6-3.1 1.8-5.7-.7-2.2-1.3-2.4-3.5-1m5.1 29.3c-.6 1.8-3.4 6.9-6.1 11.2-7.8 12.3-6.5 13.7 4.6 5.1 9.4-7.3 10.1-9.1 6.4-15-1.6-2.5-3.2-4.6-3.4-4.6s-.9 1.5-1.5 3.3m38.9 10.1c1.4 1.8 9.4 5 11 4.4 1.5-.5-8.1-5.8-10.5-5.8-1.4 0-1.5.3-.5 1.4"/></svg>