<svg xmlns="http://www.w3.org/2000/svg" width="682.667" height="512" version="1.0" viewBox="0 0 512 384"><path d="M0 38.8v38.8l25.3 4.2c47.4 7.8 61.6 7.8 87.9.3 18.5-5.3 29.4-7.1 47.5-7.8 22.5-.9 53.4 2.6 85.7 9.7 9.9 2.2 18 3.9 18.1 3.7.1-.1 1.2-1.9 2.4-4 1.2-2 2.7-3.7 3.2-3.7.4 0 1.8-1.7 3-3.8s4.4-5.2 7-7c7.4-4.9 7.8-10.1.8-10.2-3.5 0-15.6-3.8-16.4-5.1-.4-.5-.1-1.7.6-2.5 1.3-1.5.5-2.6-2.5-3.7-1.7-.6 2.4-6.6 7.6-10.9 7.3-6.1 10.9-8.6 20.2-13.8l8.1-4.5 2.1-6.5c1.2-3.6 2.4-7.7 2.8-9.3L304 0H0zm485.3-34c-4.7 4.3-21.2 14-29 17.2-2.5.9-3.3 1.9-3.3 3.7 0 3.2 8.5 23.5 12.8 30.3l3.4 5.5-5.1-5-5.1-4.9.3 4.7c.1 2.6-.1 4.7-.6 4.7s-.6 1.2-.3 2.7c.6 2.7.6 2.7-.9.9-.8-1.1-1.6-1.7-1.6-1.3-.3 1.3-.6 2.2-1.7 5-.7 1.5-1.5 3.9-1.8 5.3-.9 3.5-2.4 4-2.5.7 0-2.5-.1-2.6-.9-.8-.5 1.1-.9 1.5-.9 1-.1-.6-1.2.3-2.6 2-2.3 2.9-2.4 2.9-1.8.5l.5-2.5-1.7 2.4c-1.3 1.7-2 2-2.5 1.1-.6-.9-2-.4-5.4 2-6.5 4.7-6.4 7.2.6 17.3 1.1 1.6.9 2.2-1.8 4.5-2.8 2.5-3 3-2.2 6.7 2.6 13.3-5.7 36.8-15.1 42.8-1.7 1-2.9 2.3-2.6 2.7s2.6 2 5.3 3.6c7.9 4.5 28 17.2 40 25.2 10.7 7 11.4 7.4 14.2 6.2 2.3-.9 3.7-.9 6.7.1 4.4 1.4 17.1 10.1 22.4 15.2 3.6 3.5 7 5.7 8.8 5.7.8 0 1.1-31.3 1.1-105V0h-10.7l-10.8.1zM142.5 108c-11.1 1.5-19.7 4-33.9 9.9-26 10.9-32.6 12.3-57.4 12-8.4-.1-15.4 0-15.6.2s-2.2 6.5-4.5 13.9c-9 29.9-11.7 44.4-25.3 137l-5 34.5-.5 34.2-.5 34.3h297.7l3.9-6c9.6-14.9 11.1-23.1 9.6-51.5-1.5-29.7-2.3-94.2-1.3-105.5 1.1-12.4.7-14.6-1.8-10-1.6 3.2-1.8 3.3-1.9 1.1 0-2.3-.1-2.3-1.9-.7-1.7 1.6-1.9 1.6-2.5-.6-.5-1.9-.8-2.1-1.6-.8-1.1 1.6-.6-2.2 1.1-9 .4-1.9 1.8-8.3 2.9-14.2 1.7-8.8 7.2-26.7 10.3-33.8.6-1.3-.4-1.5-6.1-1.5-11.7 0-24.3-7.6-35.1-21.2-3-3.8-4.4-4.6-13-7.2-39.6-12.3-89.8-18.7-117.6-15.1M427 208.3c0 .5 6.3 16.1 8.3 20.8 1.9 4.3 1.2 5.6-1.6 3.2-2-1.7-2-1.7-1.3.7 3.6 12.8 5.7 25.1 5.3 29.7-.3 2.9-.4 5.3-.2 5.3.1 0 2.4-3.5 5.1-7.8 2.6-4.2 6.5-10 8.6-12.8l3.9-5.2-2-7.8c-1.1-4.4-2.2-9.6-2.6-11.6-.5-3.3-1.5-4.3-8.9-9.3-5.7-3.7-9.3-5.5-11.5-5.5-1.7 0-3.1.1-3.1.3m81 95-3.5 2.2 3.3.3c4 .4 4.5.1 4-2.7-.3-2-.3-2-3.8.2m-66.1 55.4c-6.3 7-11.6 13-11.9 13.3s-3 3.1-5.9 6.2l-5.4 5.8H512v-19.9l-3.1-1.7c-9.6-4.9-34.3-12.5-48.4-14.8-2.2-.4-4.7-.9-5.6-1.2-1.2-.3-5.2 3.5-13 12.3"/></svg>