<svg xmlns="http://www.w3.org/2000/svg" width="682.667" height="512" version="1.0" viewBox="0 0 512 384"><path d="M0 29.4c0 27.2.1 29.5 1.7 30 4.5 1.4 37.6 7.4 55.3 10.1 35.1 5.4 49 4.8 75-3 13.8-4.2 24.4-5.7 43.5-6.2 27.4-.8 54 2.2 88.2 9.9l18.3 4.1 9.2-8.8c5.1-4.9 9.7-9.5 10.1-10.3 1.6-2.6-.2-3.8-7.9-5.5-10.5-2.3-16.8-6.1-13.4-8.2 1.6-1 1.2-3.5-.5-3.5-1.4 0-1.4-.3-.1-2.8 2.9-5.6 14.9-15.2 28.9-23.1 5.8-3.3 7.9-5.6 9.2-9.9l.6-2.2H0zM485.1 6.7l-12.3 6.6.5 4.1c.7 4.9 6.6 19.6 10.9 27.4l3.2 5.7-4.2-3.8c-4.1-3.6-5.9-4.7-4.7-2.8.3.5.2 3.6-.1 6.7-.6 5-.9 5.5-1.7 3.6-1.2-2.7-2.7-2.9-2.7-.4 0 3-4.1 14.2-5 13.7-.4-.3-.6-1.5-.3-2.8.5-1.9.1-1.8-2.6 1.1-1.7 1.8-3.1 2.9-3.1 2.3s-1.6-.2-3.6.9l-3.6 2.1.7-2.3c.6-2.2.5-2.2-1.7.4-1.3 1.4-3.3 3.1-4.5 3.7-1.3.7-2.3 2.1-2.3 3.2 0 2.5 2.6 7.7 5.3 10.7 1.7 1.8 1.9 2.6 1 4.1-.8 1.2-.8 3.2-.1 6.7.5 2.7.6 7.8.3 11.3-1.7 15.9-8.4 28.9-18.1 34.8-1.9 1.1-1.9 1.1.1 1.9 2.7 1 8.5 4.7 32.8 20.7 15.2 10.1 21.2 13.6 22 12.8 2.5-2.5 10.2-.4 18 5.1l2.7 1.9V0l-7.2.1c-7 .1-7.8.4-19.7 6.6M151.3 95.5c-9.1 1.6-14.8 3.6-30.6 10.2-7.1 3-17.2 6.6-22.5 8-8.8 2.4-11.4 2.6-29.3 2.6l-19.6.1-3.6 11c-5.5 17.1-11.3 40.5-14.1 57.6C17.4 271.3 8.2 339.4 6.3 372.2L5.7 384h304l4.6-6.9c6.8-10.2 10.7-18.6 12.4-26.5 1.3-6.1 1.3-10.4.3-31.1-1.4-27.5-1.9-94.4-.7-108.5.5-7 .4-9-.4-7.7-1 1.6-1.2 1.7-2.2.3-1.4-1.8-2.9-1-4.3 2.4l-1.1 2.5-.5-2.8c-.3-1.5-.1-2.7.3-2.7.5 0 .9-.7.9-1.5s-.6-1.4-1.2-1.3c-2.2.5-2.1-4.9.2-15.6 2.9-13.5 6.6-25.7 10.1-33.5 1.6-3.5 2.9-6.7 2.9-7 0-.4-2.8-.6-6.2-.6-5.3 0-7.5-.6-14.1-3.9-8.6-4.3-19.1-13.8-24.6-22.4-3.2-4.8-3.4-5-13.4-8-21.9-6.6-44.5-11.3-65.7-13.7-15.3-1.8-45.9-1.8-55.7 0m298 104.3c-1.3.2-2.3.7-2.3 1.2s2 5.8 4.5 11.9c4.8 11.7 5.3 13.6 3.2 12.8-1.2-.4-1.2.8 0 7.6.8 4.5 1.7 11.9 2 16.4.6 8.1 1.5 10.3 2.8 6.3.3-1.1 3.9-6.9 7.9-12.9 7.1-10.6 7.3-11 6-14-.7-1.7-2.1-6.8-3-11.2-2-9.1-1.9-8.9-9.5-14.2-5.6-3.9-7.8-4.6-11.6-3.9m17.4 148.4c-3.5 4-10 11.5-14.3 16.7-9.4 11.2-11.8 13.1-17.2 13.8-3.6.5-4.2.9-4.2 2.9v2.4h81v-33.7l-11.7-3.1c-6.5-1.7-14.5-3.6-17.8-4.2s-6.7-1.3-7.6-1.6c-1.2-.3-3.8 1.9-8.2 6.8"/></svg>