<svg xmlns="http://www.w3.org/2000/svg" width="682.667" height="512" version="1.0" viewBox="0 0 512 384"><path d="m.2 18.2.3 18.3 28 5.7c46.1 9.3 60 11.3 81 11.3 16.8 0 18.6-.2 28-2.9 24.9-7.2 28.5-7.7 52-8.3 23.4-.6 40.6.7 64.4 4.8 14.4 2.5 35.5 7.3 43.9 10.1l6.3 2 2.7-2.3c6.3-5.6 12.2-12.1 12.2-13.4 0-1.5-1.3-2-8-3-9.9-1.5-17.8-6.8-14.5-9.5 1.8-1.5 1.9-3.7.3-4.3-.9-.3-.5-1.5 1.2-4 3.7-5.2 10.6-11 20.6-17.2l8.7-5.5H0zM495.3.7c-.7.2-1.3 1.7-1.3 3.3 0 4.6 5.8 21 10 28.2 2.1 3.8 3.6 6.8 3.2 6.8-.3 0-2.2-1.6-4.2-3.5l-3.7-3.6.2 7.6c.1 7.8-.3 9.1-2 5.2-1.7-3.7-2.8-2.6-5.4 5.3-1.8 5.2-2.7 6.8-2.9 5.2-.3-2.2-.5-2.2-3.8 1.5-1.9 2.1-3.1 3-2.8 2 .6-1.5.3-1.6-2.2-.7-1.8.7-3 .8-3.2.1-.5-1.5-8.2 6.1-8.2 8.2 0 1 1.6 3.7 3.5 6 5.1 6 6.8 12.8 6.3 25.1-.4 9.2-.8 10.8-4.5 18.6-3.7 7.9-9.2 14.6-13.4 16.3-1.8.8-2 .6 21.6 16.3 10.5 7 20.7 14 22.8 15.7 7.2 5.6 6.7 11.1 6.7-81.3V0l-7.7.1c-4.3 0-8.4.3-9 .6M175 77.1c-14.9 1.8-21.3 3.7-43.5 12.9-18.2 7.6-23.1 8.5-47.2 8.4H63l-2.5 7.1c-5.7 16.1-12.5 43-16.4 65-13.3 74.9-24.4 152.4-27.1 189-.6 8.2-1.2 17.1-1.5 19.7l-.4 4.8h307.4l3.5-5.2c12.2-17.9 15.9-25.1 18.1-35.8 1.1-5.2.5-27.6-1.9-73.3-.8-14.8 0-54.5 1.3-66.6.6-5.5.5-7.2-.3-6.7-.7.4-1.2.1-1.2-.7 0-2.5-3.8-.8-4.9 2.2-.8 2.3-1 2-1-2.4-.1-3.2-.4-4.5-1-3.6-.7 1-1 1.1-1.6 0-1.3-2-.7-8.7 2-20.4 2.9-13.2 5.2-20.1 9.7-29.2 1.8-3.8 3.4-7 3.6-7.3.1-.3-2.8-.6-6.5-.7-4.1 0-8.4-.7-10.8-1.8-12.8-5.6-29.5-22.6-32.1-32.9-1-4-5-5.6-31.4-12.5-31.3-8.1-72.3-12.5-93-10m295.3 113.6c-1.3.2-2.3.8-2.3 1.2s2.2 6.6 4.9 13.7l5 13-.2 11.9c-.1 16.2.8 17.5 5.6 8.2 2-4 5.4-9.5 7.5-12.2 3.6-4.7 3.7-5.2 2.6-8-.7-1.7-2.3-7.2-3.5-12.3-2.1-9-2.3-9.3-6.9-12.7s-7-3.9-12.7-2.8m17.6 151.9c-3 3.8-9 11.3-13.3 16.7-8.6 10.8-11.4 12.7-19.4 12.7h-4.9l1 6 1 6H512v-44.8l-5.2-1.2c-13.4-2.9-12.7-3-18.9 4.6"/></svg>