<svg xmlns="http://www.w3.org/2000/svg" width="682.667" height="512" version="1.0" viewBox="0 0 512 384"><path d="M0 11.4v11.4L4.8 24c13.1 3.3 57.6 12.3 77.1 15.7 13 2.2 18.8 2.6 35.1 2.7l19.5.1 13-3.7c25.6-7.2 34.2-8.3 58.9-7.5 19.6.6 36 2.3 52.6 5.3 11.8 2.1 44.1 9.8 49.9 11.9 2.4.8 4.9 1.5 5.6 1.5 1.9 0 11.5-9.5 11.5-11.4 0-1-1.3-1.7-3.7-2.1-8.2-1.4-14.5-3.7-17.6-6.4-3-2.8-3.1-3-1.4-4.8 1.9-2.2 2.3-4.3.7-4.3-3.3 0 3.7-8.3 12.8-15.1 3.1-2.4 6.1-4.7 6.7-5.1C326 .4 253 0 163.2 0H0zm506-9.2c0 3.3 2.4 11.9 4.3 15.3 1.6 2.9 1.6 2.7 1.7-7.3V0h-3c-2.4 0-3 .4-3 2.2m3.7 31.5c-.2 5-.5 6.2-1.1 4.5-1.2-3.3-2.8-2.2-5 3.4-1 2.7-2.6 6.7-3.6 8.9l-1.9 4-.1-3.5-.1-3.5-1.7 3.1c-.9 1.7-2.3 2.9-3 2.7-.6-.3-.9-1-.5-1.6.3-.6-.4-.3-1.8.6-2.6 1.9-4.3 2.2-3.4.7 1.3-2-1.2-.9-3.3 1.5-1.2 1.4-2.6 2.5-3.2 2.5-2 0-1 4.3 1.5 6.2 3.7 2.9 7.2 9.5 8.9 16.5 3.3 14.5-3.1 34.8-14.1 44.1l-4.6 4 4.4 2.7c2.4 1.5 5.7 3.6 7.2 4.6 1.5 1.1 8.4 5.8 15.2 10.5l12.5 8.5v-63c0-38.9-.4-63.2-1-63.6-.5-.3-1.1 2.3-1.3 6.2M189.5 67.1c-18.2.8-24 2.2-44.8 10.6C123 86.5 116.7 88 99 88.4c-8 .2-17.6.1-21.3-.3-4.3-.4-7.1-.3-7.7.4-1.3 1.6-9.7 28.5-13.5 43.3C49.7 158.2 29.6 280 24.6 325c-1.6 13.7-3 30.3-4.2 48.7l-.6 10.3h308.7l4.6-6.3c12.6-17.2 17.6-26.6 19.9-38.2 1.3-6 .4-35.7-2-75-.6-8.8-1-21.4-1-28 0-11.1 2.3-38.7 3.6-42.8.3-.9.1-1.7-.5-1.7s-1.1-.7-1.1-1.6c0-.8-.5-1.2-1.1-.8-.6.3-1.5.1-1.9-.6-.6-.9-1.3.3-2.3 3.6l-1.6 4.9-.1-6c-.2-4.6-.4-5.4-1-3.5-.6 1.8-.9 2-1 .7-.3-2-.7-3.6-.9-4-1.2-1.4-.6-7 1.9-17.7 3.1-13.4 6.3-22.8 10.5-31 1.4-2.7 2.5-5.1 2.5-5.3s-3-.7-6.7-1c-10-1-18-5.3-27.9-15.2-8.4-8.4-13.8-16.5-14.9-22.7-.9-5-2.6-6.2-13-9.1-35.3-10.1-52.7-13.3-87-16-1.6-.2-9.7 0-18 .4m294.7 118.3c-5.1.9-5.3 1-4.7 3.5.3 1.4 2.6 6.8 5.1 11.9 2.4 5.1 4.9 11.3 5.4 13.8 1 4.6.4 12-1.2 14.1-.5.6-.5 3.1 0 6l.8 4.8 3.3-6.5c1.9-3.6 5.2-9.1 7.4-12.3l4.1-5.8-1.7-4.7c-1.5-4.5-3.8-12.9-5.1-18.3-.3-1.5-2.1-3.6-4.3-5-3.4-2.2-4.3-2.4-9.1-1.5m15.1 154.3c-19.9 25.8-19.8 25.8-23.9 27.1-2.1.7-6.3 1.2-9.2 1-5.9-.3-5.7-.8-4.1 9.3l1.2 6.9H512l-.2-25.3-.3-25.2-3.5-.3c-3.3-.3-3.9.2-8.7 6.5"/></svg>