<svg xmlns="http://www.w3.org/2000/svg" width="682.667" height="512" version="1.0" viewBox="0 0 512 384"><path d="M0 192v192h512V0H0zM268.2 76.6c1.8.9 6.8 4.6 11.1 8.3 7.3 6.1 7.7 6.6 5.3 6.9-1.6.2-4.8-.9-8-2.7-7.2-4.2-8.4-4.1-7.7.5.7 4.3.8 4.3 12.6 8.7 8.6 3.1 9 3.4 8.8 6.1-.1 1.6-.7 3.2-1.2 3.5-.6.4 1.3 1.5 4.1 2.5 3.7 1.3 4.7 2 3.7 2.7-1.1.7-1.1.9.4.9.9 0 1.7.5 1.7 1 0 .6.3.9.8.8.8-.3 5.6 4.2 5 4.7-.2.3-1.7-.2-3.2-1-3.9-2-4.3-1.9-1.9.7 3 3.4 4.1 5.7 1.6 3.5-2.4-2.1-3.4-2.2-2.7-.3.3.7-.2 1.6-1.1 2-.9.3-1.3.2-1-.4.4-.6-.7-.8-2.7-.6-1.8.2-4.3 0-5.6-.5-2.8-1.1-5.1-.1-3.1 1.3q1.35.9-2.4.3c-2.4-.4-3.7-.3-3.3.3.3.6-.2.8-1.4.5-1.9-.5-1.9-.3.4 5.3 1.3 3.2 2.8 6 3.3 6.1.6.2 2.2-1.4 3.6-3.6 2.6-4 9-7.2 10.7-5.5.5.5 1.2 4.5 1.7 8.8l.8 8 10.5 1.8c5.8 1 12 2 13.8 2.3 2.4.4 3.2 1.1 3.2 2.6s-.5 1.9-1.7 1.5c-2.6-.7-13.4-2.6-15.1-2.6-.8 0 .9 1.6 3.7 3.5s6.1 3.5 7.3 3.5c1.3 0 7-.9 12.8-2 15.6-3 39.5-2.6 38.3.6-.3.9.2 1.4 1.7 1.4 1.1 0 1.9.4 1.5.9-.8 1.4 1.6 6.1 3.3 6.1.8 0 1.2.6.8 1.5-.6 1.8.3 1.9 3.9.5 2.4-.9 2.5-.8 1.4 1.1-1 1.9-.9 2 1.1 1.4 1.5-.5 2-.4 1.6.4-.4.6 0 1.1.8 1.1.9 0 1.6.4 1.6 1 0 .5-.5 1-1.1 1-.5 0-.8.4-.4.9.3.5 0 1.3-.6 1.7-.8.5-.7.9.2 1.4 1.9 1.2 2 4 .1 4-1.2.1-1 .5.8 1.5l2.5 1.4-2.5.1c-1.4.1-1.9.4-1.2.7 2.2.9 1.3 2.6-1 2l-2.3-.6 2.3 1.7 2.3 1.8-3.8-.2c-2.1-.1-4.9-.5-6.3-.9-1.7-.4-2.1-.4-1.2.3 1 .7.8 1.2-1 2.4-1.3.8-3.1 1.8-4.2 2.1-1.1.5-1.6 1.3-1.2 2.3.4 1.2.1 1.4-1.4.9-1.1-.4-2-.2-2 .4 0 .5-2-.2-4.6-1.6-5.6-3.1-6.8-2.4-1.9 1.2 1.9 1.5 3.4 3 3.1 3.2-.2.3-2.7-1.3-5.5-3.5-5.5-4.4-9.5-5.5-30.1-8.7-6.3-1-12.9-2.7-16.5-4.4-4.7-2.1-7.3-2.6-12-2.5-6.6.3-6.3-.2-4.9 8.1 1.1 6.7-3.1 9.8-7.1 5.3-1.9-2-1.9-2-3.1 1-1.4 3.2-3.4 3.9-5.2 1.7-.6-.7-1.2-4.2-1.4-7.7l-.3-6.5-4-.7c-2.2-.4-8.6-.2-14.2.4-12.1 1.4-15.8.4-15.1-3.7.3-1.4 0-2.9-.6-3.4-1.2-1-19.3-2.6-38.1-3.5-9.2-.4-10.3-.3-6.5.5 2.5.6 4.7 1.4 5 1.9.3.4 2.8 1.5 5.6 2.4 4.3 1.4 5.1 2 4.7 3.6-.6 2.4-.9 2.4-6.4.5-2.4-.9-10.4-3.4-17.8-5.6-12.4-3.7-13.4-3.9-14.6-2.3-.7 1.1-1.9 1.5-2.9 1.1s-1.5-.3-1.1.3c.3.6.2 1-.4 1-1.4 0-4.1-2.9-4.1-4.5s-1.6-2.1-9.2-3c-4.8-.5-6.2-1.2-8.3-3.7-1.4-1.7-2.4-3.6-2.2-4.2.6-1.9 8.7-1.8 25.3.3 8.7 1.1 26.1 2.8 38.6 3.7l22.8 1.8 3.3-3.2c1.9-1.8 5.5-7.1 8.1-11.7l4.7-8.5-1.3-9.7c-1.3-9.4-1.4-9.7-4.2-10.4-3.7-1-6.6-3.7-6.6-6.1 0-2.1 3.4-7 4.7-6.8.4.1.9-.3 1.1-.8.1-.5-1.4-1.3-3.5-1.6-7-1.2-19.9-7-21.3-9.6-1.2-2.4.6-6 3.2-6 1.7 0 1.9-.3 1-1.2-.8-.8-.9-1.5-.1-2.5 1.6-1.9 4.2-1.6 7.2.7 2.3 1.9 3 1.9 7.2.8 3.9-1.1 5.1-2 7.3-5.7 4.3-7.3 15.7-10.5 23.4-6.5M211 217.4c0 .3-.4.8-1 1.1-.5.3-1 .1-1-.4 0-.6.5-1.1 1-1.1.6 0 1 .2 1 .4M16 255c0 .5-.5 1-1.1 1-.5 0-.7-.5-.4-1 .3-.6.8-1 1.1-1 .2 0 .4.4.4 1"/><path d="M251.2 114.2c-1.6 1.6-1.5 2.9.6 5.6l1.8 2.3 1.2-2.6c.9-1.9.9-3.2.2-4.6-1.2-2.2-2.1-2.4-3.8-.7m4.8 30.2c-1 2.5-3.7 7.3-6 10.6-4 5.9-5.3 10.7-2.6 9.7 2.7-1.1 13.7-9.9 15.3-12.3 1.4-2.3 1.4-2.8-.2-6.4-3-6.6-4.2-6.9-6.5-1.6m39.6 7.3c-1.4 1.4-.3 2.3 5.1 4.3 7.3 2.7 10.3 2.2 4.5-.8-5.9-3.1-8.9-4.2-9.6-3.5"/></svg>