<svg xmlns="http://www.w3.org/2000/svg" width="682.667" height="512" version="1.0" viewBox="0 0 512 384"><path d="M179.6 2c-13.4 5.1-32.8 6.6-53.2 4-7.6-1-14.2-1.5-14.5-1.1C110.6 6.2 103 27 98 43c-6.2 19.9-13 48.8-24.6 105.5-23.1 113.1-28.1 147.7-29.1 204.2l-.6 31.3h326.1l5.8-8.2c3.2-4.6 10.2-14.1 15.6-21.2 16.2-21.4 20.8-32.4 20.8-50 0-10.7-1.8-52.9-2.5-59.1-.2-2.2-.7-13.9-1.1-26-.6-19.5-.4-23.8 1.6-38 3.3-24.3 3.3-23.8 1.7-26-1.4-1.9-1.6-1.8-2.6 2-1.8 6.7-2.7 7.3-5.1 4.2-1.5-1.9-2.6-2.5-3.4-1.8s-1.1-.1-.8-3.2l.3-4.2-2.1 3.5-2 3.5.6-4.5c.4-3.3.3-4.1-.5-3-1.5 2.1-1.4 1.2 1.3-8.1 1.3-4.6 2.7-10.2 3-12.4 1-5.3 5-15.6 9.2-23.1l3.3-6.1-2.4-1.3c-1.4-.7-3.2-2.4-4-3.7-.9-1.2-2.3-2.3-3.2-2.3s-3-.4-4.7-1c-1.7-.5-4.7-1.2-6.7-1.5-5.5-.8-11.5-5.4-16-12.1-2.1-3.2-3.9-6.3-3.9-6.8s-1.8-5.2-4.1-10.5c-2.3-5.2-4.3-10.2-4.5-11.1-.2-.8-.8-3.3-1.3-5.5-1.7-6.5-1.3-14.9 1-21 1.1-3 2.5-5.5 3-5.5 2 0 .7-2.6-1.8-3.6-1.6-.6-5.7-2.3-9.3-3.7-3.6-1.5-12.3-4.5-19.5-6.7-7.1-2.3-14-4.5-15.3-5.1-1.4-.5-29-.9-69-.8-62.3.1-67 .2-71.6 1.9"/></svg>