<svg xmlns="http://www.w3.org/2000/svg" width="682.667" height="512" version="1.0" viewBox="0 0 512 384"><path d="M110.3 12.8C99.6 44.9 67.1 191 58.9 243.5c-7.4 47.9-10.3 93-8.2 129.2l.6 11.3h333.6l5.7-8.7c4.8-7.4 26.5-36.7 28.4-38.3 2.9-2.5 9.8-16.4 12.5-25.3 2.3-7.7 2.5-9.7 2.1-20.8-.6-17.1-2.4-50.9-3.6-65.7-1.9-23.7-.9-47.1 3-68.1 2.3-12.7.4-18.6-2.9-8.9-2 5.8-3.1 7-3.1 3.3 0-2.3-.2-2.6-1.5-1.5-1.2 1-1.5.9-1.5-.7 0-3.1-1.3-3.6-2.7-1.1-1.2 2.2-1.2 2.1-1.3-1.7v-4l-2.1 2.5-2 2.5.4-3.2c.2-1.8-.1-3.4-.7-3.6-.5-.2.1-3.8 1.6-8.8 1.4-4.6 2.9-10.2 3.3-12.4 1.1-6.7 6.1-18.3 11.1-26 1.5-2.3 1.4-2.4-1.5-4-1.7-.8-3.8-2.9-4.6-4.5-1.6-3.1-2.9-3.7-11.1-4.3-11.6-.9-21.2-11.4-25.8-28.3-1.3-4.9-3.2-10.9-4.2-13.4-2.2-6-3-19.7-1.4-25.5.7-2.5 3-6.5 5.2-9l4-4.5H114.5zM400.6 1.6c-.9 2.4-.7 2.8.9 1.4 1.7-1.4 2-3 .6-3-.5 0-1.2.7-1.5 1.6"/></svg>