<svg xmlns="http://www.w3.org/2000/svg" width="682.667" height="512" version="1.0" viewBox="0 0 512 384"><path d="M113.8 4.8C110 16.3 88.1 107.7 75.5 164c-9.6 43-16.7 86.8-20 123-1.5 17.1-2.1 72.9-.8 88.7l.6 8.3h169.1l169.1-.1 4.8-8.2c4.9-8.3 12.6-19.2 25.2-35.2 12-15.4 16.4-23.5 20-36.9 1.5-5.7 1.7-9.1 1.2-20-1.3-26.6-3.7-63.4-4.8-73.6-1.4-12.6-.7-29.9 2-47 2.8-18.7 3.2-22.4 2.1-24-.7-1.1-1.1-.8-2 1.5-3 7.6-3.3 8.1-3.7 6.2-.3-1.1-1-1.6-1.9-1.3-.9.4-1.8-.4-2.5-2.1-.9-2.5-1-2.5-2.4-.7-1.3 1.8-1.4 1.7-1.5-1.6l-.1-3.5-1.9 2.4-2 2.3v-3.3c0-2.6-.3-3-1-1.9-1.5 2.3-1.2-.2.6-5.1.8-2.4 2.6-8.9 3.9-14.4 2.6-11.3 6-20.3 10.4-27.5l3-4.9-2.8-1.7c-1.6-.9-3.6-3.2-4.5-5-1.5-3.3-1.8-3.4-7.4-3.4-14.8 0-26.8-13.1-30.3-33-.6-3-1.5-6.9-2.2-8.5-.6-1.7-1.3-3.5-1.4-4-.1-.6-.7-2.8-1.2-5-1.6-6.2-1.3-13 .8-19l1.9-5.5H115.3z"/></svg>