<svg xmlns="http://www.w3.org/2000/svg" width="682.667" height="512" version="1.0" viewBox="0 0 512 384"><path d="M115.9 2.7c-1 2.6-21.1 83.7-29.7 119.8-24.2 101.2-32.3 164-29.3 227.9.7 13.7 1.4 26.9 1.8 29.3l.6 4.3h342.4l5.3-9.3c5.4-9.4 12.1-19 27-38.2 12.5-16.1 15.6-21.4 19.5-32.8 2.1-6.3 2.5-9.4 2.5-18.6 0-13.1-2.5-52.9-4.5-73-2.1-20.6-1.9-34.7.9-54.5 1.4-9.4 2.6-18.6 2.9-20.4.5-4.4-1.8-4.2-3.3.3-1.1 3.2-3.3 5.1-2.7 2.2.1-.7-.7-1.1-2-1-1.6.2-2.3-.3-2.3-1.5 0-3-1.3-3.4-2.7-1-.9 1.7-1.2 1.9-1.3.7 0-2.5-2.4-4.1-3.8-2.7-.9.9-1.2.7-1.2-.9 0-1.2-.4-2.3-1-2.5s0-3.6 1.5-8.3c1.4-4.4 3-10.8 3.5-14.3.6-3.4 1.8-7.9 2.6-10 3-7 5.8-12.7 7.6-15.4 2.4-3.4 2.3-4.2-.7-5.8-1.3-.7-3.2-3.1-4-5.4l-1.6-4.1-5.7.3c-15.1.9-28-13.5-30.7-34.3-.3-2.8-1.5-7.9-2.7-11.5-1.2-4-2-9.5-2.1-14.3V0H117z"/></svg>