<svg xmlns="http://www.w3.org/2000/svg" width="682.667" height="512" version="1.0" viewBox="0 0 512 384"><path d="M119 4.2c-.6 2.4-2.2 8.1-3.5 12.8-20.7 73.3-36.3 139-42.9 181.5-8.6 54.8-10 119.9-3.5 170 1 8.2 1.9 15.1 1.9 15.2 0 .2 80.7.3 179.3.3h179.3l1.8-5.1c4.7-12.8 17.8-33.4 35.6-55.8 16.9-21.1 21.8-30 24.7-44.7 1.5-7.8 1.5-9.8-.1-29.6-.9-11.7-3.3-33.7-5.1-48.8-3.9-30.9-4.2-42.5-1.9-61.5 2.2-17.2 2.2-18 .4-18.1-.8 0-2.5-.2-3.7-.2-1.5-.1-2.3-.8-2.3-2 0-1-.6-2.7-1.4-3.8-1.4-1.8-1.5-1.8-2.1.8-.4 1.5-1.3 3.2-2.1 3.9-1.1.9-1.4.7-1.4-1.5 0-1.6-.4-2.5-1-2.1-.5.3-1-.2-1-1.2 0-1.4-.5-1.2-2.5 1.2l-2.4 3-.1-2.5c0-2-.2-2.2-1-1-1.5 2.3-1.3-1 .4-6.2 3.1-9.4 4.6-15.8 4.6-19.4 0-5.1 4.4-17.6 8.5-23.9l3.3-5.2-3.4-2.6c-2.3-1.9-3.5-3.9-4.1-6.9-.9-4.3-.9-4.3-5.3-4.4-10.4-.3-17.8-4.5-23.6-13.2-5.3-8-8.6-18.2-8.6-26.5l.1-6.7H120.1z"/></svg>