<svg xmlns="http://www.w3.org/2000/svg" width="682.667" height="512" version="1.0" viewBox="0 0 512 384"><path d="M120 .5c0 .3-2.2 8.1-4.9 17.3C82.9 127.3 71.5 198.2 73.3 278c.9 36.7 5.1 76 10.8 101.3l1.1 4.7h373.7l1.9-5.3c1.1-2.8 3.2-8.3 4.6-12.2 6.5-17 15.6-31.8 34-54.7l12.6-15.7V194.7c0-89-.2-101.6-1.5-102.1-1-.4-2.1.8-3.5 4-1.6 3.5-2.4 4.3-3.4 3.5-.9-.7-1.6-.7-2.5.2-1.1 1-1.2.8-.7-.9.4-1.2.3-2.9 0-3.9-.6-1.4-1.1-1.1-3 2.1l-2.4 3.9v-3c0-2.3-.3-2.7-1-1.5-1.7 2.6-1.2-2.9 1-11.1 1.1-4.1 2-10 2-13.3 0-9.2 4.3-22.8 9.5-30.2 1.4-1.9 1.3-2.2-2.2-4.5-3.6-2.3-5.3-5.4-6.7-12-.5-2.3-1.1-2.7-6-3.2-10.1-1-17.7-6.7-23.2-17.2L465.5 0H292.8C197.7 0 120 .2 120 .5M.1 373.2 0 384h4c4.6 0 4.7-.4 2.1-6.3-1-2.3-2.8-6.7-3.9-9.7l-2.1-5.5z"/></svg>