<svg xmlns="http://www.w3.org/2000/svg" width="682.667" height="512" version="1.0" viewBox="0 0 512 384"><path d="M117.5 1.2c-.2.7-1.1 5.3-1.9 10.3-8.4 50.4-11 81.8-11 132 0 43.6 1.7 67 8 110.5 6.8 46.6 16.5 85.7 30.6 122.2l2.9 7.8H512V0H315C158.2 0 117.9.3 117.5 1.2M.1 250.2 0 384h57.1c54.2 0 57.1-.1 55.8-1.7-.8-1-2.4-2.6-3.6-3.6-3.3-2.7-21.1-25.1-26.1-32.8-2.4-3.6-5.6-7.6-7.3-8.8-1.6-1.2-2.9-3-2.7-3.9.1-.9-3-7.6-7-14.9C37.4 265.8 16.1 203 3.5 133c-1.4-8-2.8-15-3-15.5-.2-.6-.4 59.2-.4 132.7"/></svg>