<svg xmlns="http://www.w3.org/2000/svg" width="682.667" height="512" version="1.0" viewBox="0 0 512 384"><path d="M0 192v192h512V0H136.1l-.6 3.2c-2.3 13.9-3.2 84.7-1.4 114.3 1.1 18.6 4.5 52.6 7 70 5.8 41.7 10.4 62.8 21.5 99 6.6 21.3 9 27.8 15.5 40.6 2.7 5.3 4.9 9.8 4.9 10.1s-1.1.3-2.5 0c-1.8-.3-2.5 0-2.5 1.2 0 2.1-.2 2-5.3-.5-11.9-6.1-30.1-21.6-41.5-35.3-3.7-4.5-7.5-9-8.5-10.1-1.8-1.9-8.1-10.8-10.2-14.3-.6-.9-3.3-5.1-6.1-9.2-11.5-17-25.8-44.9-36.2-70.5C47.6 143.1 30.5 75.1 23 10.2L21.8 0H0z"/></svg>