<svg xmlns="http://www.w3.org/2000/svg" width="682.667" height="512" version="1.0" viewBox="0 0 512 384"><path d="M0 192v192h512V0H142.3l-.7 8.2c-1.4 18.3-1.8 61.2-.7 83.3 2.5 50.3 9.2 104.3 17.2 139 7.6 33 18.8 68 26.5 83.1 2.9 5.6 5 10.4 4.7 10.7s-1.6.2-2.8-.3c-2-.8-2.3-.6-2 1.1.2 1 .2 1.9 0 1.9-.7 0-13.4-6.8-14.7-7.9-.7-.6-4.1-3.4-7.6-6.3s-7.6-6.2-9.2-7.4c-2.7-2-9.1-9.1-17-18.8-1.9-2.4-5.1-6.3-7.1-8.7-8.2-9.9-23.5-34.1-32.4-50.9-1.6-3-3.2-6.2-3.7-7-2.8-5.3-12.3-26.5-16.2-36.1-9.7-24.4-16-43.2-26-78.4-5.4-18.6-12.9-55.3-18.1-88.3L29.7 0H0z"/></svg>