<svg xmlns="http://www.w3.org/2000/svg" width="682.667" height="512" version="1.0" viewBox="0 0 512 384"><path d="M0 192v192h512V0H172.7l.6 27.2c1.4 58.3 9.3 122.2 20.6 167.4 9.2 36.3 18 63.3 25 75.9 4.4 8 4.6 8.8 1.6 8.3-1.7-.4-2.5-.1-2.5.8 0 2-.4 1.8-7.6-2.2-3.5-2-7.1-3.3-7.9-3-1 .3-2.2-.5-3.3-2.3-.9-1.5-5.5-6.3-10.1-10.7-7.8-7.3-15.3-15.5-25.8-28-2.3-2.8-7.6-10.2-11.8-16.5-4.1-6.3-7.9-11.9-8.3-12.4-3.7-4.7-28.2-51.8-28.2-54.1 0-.4-.9-2.6-1.9-4.8-3.8-8.2-5.1-11.4-10-24.2-4.8-12.6-11.4-31.7-13.1-37.9-.5-1.7-2.7-9.3-5-17-4.9-16.6-9.8-36.2-13.6-53.8L68.7 0H0z"/></svg>