<svg xmlns="http://www.w3.org/2000/svg" width="682.667" height="512" version="1.0" viewBox="0 0 512 384"><path d="M0 192v192h512V0H185l.6 11.2c1 19.9 4.3 58.7 6.9 79.3 5.1 40.8 10.4 67.4 20.6 103.4C220.5 220 224 230 229.5 241c5.1 10.3 6.1 13 4.4 13-.6 0-1.7.7-2.4 1.7-1.1 1.5-1.4 1.5-3.6 0-1.3-1-3.8-1.7-5.6-1.7-2.5 0-3.6-.6-4.7-2.8-.8-1.5-3.4-4.1-5.8-5.9-5.2-3.7-22.9-21.1-27.8-27.3-1.9-2.4-5.1-6.2-7-8.4-4.2-4.8-4.5-5.2-15.4-21.6-29.4-44.3-53.2-101-71.4-171-1.7-6.3-3.3-12.7-3.6-14.3L86 0H0z"/></svg>