<svg xmlns="http://www.w3.org/2000/svg" width="682.667" height="512" version="1.0" viewBox="0 0 512 384"><path d="M0 192v192h512V0H0zM269.8 76.9c2 1.1 6.6 4.7 10.2 8 5.8 5.4 6.2 6 4 6-1.4 0-4.3-1.1-6.5-2.4-5.2-3.3-9.5-3.4-9.5-.3 0 5.5 1 6.5 7.3 8.3 3.4.9 8.2 2.5 10.6 3.6 4.1 1.8 4.3 2 3.7 5.2s-.5 3.4 3.4 4.6c2.2.6 4 1.6 4 2.1 0 .6.7 1 1.5 1s2.5 1 3.7 2.2l2.1 2.1-3.1-.6-3.2-.6 3.3 2.9 3.2 3-2.8-1c-3.8-1.3-4.2-1.3-2.7.5 1 1.2.7 1.5-1.4 2.1-1.5.4-3.2.1-4.1-.6-1.2-1-1.6-.9-2.1.3-.9 2.4-3 2.7-7.6 1.2l-4.3-1.5 2.5 2c2.8 2.2 2.1 2.6-1.3.8-1.2-.6-3.2-1.2-4.4-1.4l-2.1-.2 1.9 4.5c1 2.4 1.9 5 1.9 5.8 0 .7.7 1.9 1.7 2.6 1.4 1.2 1.7 1.2 2.1-.1 1-3 7.9-9 10.5-9 2.8 0 3.7 2.7 3.7 11.1 0 3.6.4 5.1 1.8 5.8 1 .5 7.3 1.5 14.1 2.2 10.2 1.1 12.4 1.6 13.2 3.2 1 1.8.7 1.9-6.8 1.3l-7.8-.5 6.3 1.6c5.4 1.4 6.1 1.9 5.6 3.6-.5 1.5-.2 1.8 1.3 1.3 2.9-.9 12.3-2.6 20-3.6 9.5-1.2 26.6-.2 25.9 1.6-.6 1.5 2.1 2.7 3.7 1.8.9-.5.9-.4.1.5-1.7 1.8-.6 4.7 2.2 6 1.4.6 2.2 1.6 1.9 2.2-.4.6.2.9 1.7.7 1.2-.2 2.4.1 2.5.7 0 .5 1.8 1.7 4 2.7 2.1.9 3 1.7 2.1 1.7-1 .1-1.8.8-1.8 1.6s-.6 1.5-1.2 1.5c-.7.1-.4.6.7 1.3 2.3 1.4 2.7 4.3.5 3.9-1-.1-.8.3.4 1.3 1.9 1.4 1.9 1.5.1 1.5s-1.8.1.1 1.5c1.8 1.4 1.8 1.4-1 1.5-2.9 0-2.9.1-1 1.6 1 .8 1.3 1.2.5.8-.7-.3-1.7-.1-2.1.6-.6.9-1.4.8-3.8-.4-3.9-2-4-2-3.8.1 0 1-1.5 2.6-3.6 3.8-2.8 1.6-3.5 2.4-2.7 3.2 1.8 1.8-5 .9-8.8-1-4.8-2.6-5-2.1-.7 1.9 4.4 4 3.1 3.5-3.7-1.3-4.9-3.5-10.1-4.9-28.9-7.8-5.8-.9-12.9-2.7-15.9-4.1-4.1-1.8-7.1-2.4-12.6-2.4h-7.2l1.6 5.9c1.3 5 1.3 6.2.1 7.6-1.8 2.2-6.2 1.5-7.5-1.2-1.1-2.1-1.1-2.1-2.2.8-1.2 3.1-3.9 4.7-5.4 3.2-.5-.5-1.1-4-1.4-7.8-.2-3.7-.6-7-.8-7.2-.9-.8-12.4-.7-20.9.1-9.9 1-11.8.3-11.8-4.6 0-1.6-.6-3.1-1.2-3.3-1.5-.5-23.2-2.2-36.8-2.9-8.3-.4-9-.3-5.8.7 2 .7 3.7 1.6 3.6 2.2 0 .5 2.2 1.6 4.9 2.4 5.9 1.8 5.5 1.5 4.7 3.5-.9 2.3-3 2-14.1-1.9-20.8-7.5-22.3-7.8-24.3-6-1 .9-2.4 1.4-2.9 1-.6-.3-1.1-.1-1.1.5 0 2-2.3.5-4-2.6-1-1.8-2.6-3-4.1-3.2-9.3-1-11.3-1.6-13.5-3.7-1.3-1.3-2.4-3.4-2.4-4.6 0-2.2.2-2.2 9.8-1.5 5.3.3 14.7 1.2 20.7 2 6.1.8 21.3 2.2 33.8 3.2l22.9 1.8 3.4-3.9c1.9-2.2 4.8-6.5 6.5-9.5 1.6-3 3.7-6.7 4.6-8.1 1.6-2.5 1.6-2.8 0-4.4-1-.9-1.7-3.2-1.7-5.3 0-7.9-1.1-11.2-3.9-11.9-4.2-1-7.1-3.4-7.1-5.7s3.2-5.8 6.3-6.9c3.7-1.3 1.4-3.3-7.1-6-13.8-4.5-19.2-8.8-15.8-12.6 1.2-1.3 1.3-2 .5-2.8-1.6-1.6-.3-4.5 1.9-4.1 1.1.2 2.6-.3 3.5-1 .9-.8 3.2-1.2 5.4-1 3.7.3 3.8.4 3.5 3.7-.2 2.8 0 3.2 1.5 2.6 1-.3 2.9-.9 4.3-1.2s3.7-2.2 5.3-4.4c4.1-5.9 8-7.9 15.5-7.9 4.3 0 7.5.6 10 1.9M396 147c0 .5-.5 1-1.1 1-.5 0-.7-.5-.4-1 .3-.6.8-1 1.1-1 .2 0 .4.4.4 1m-75 89c0 .5-.5 1-1.1 1-.5 0-.7-.5-.4-1 .3-.6.8-1 1.1-1 .2 0 .4.4.4 1"/><path d="M247.6 115.5c.8 3.8 2.2 6.5 3.4 6.5 1.6 0 3.2-4 2.5-6.8-.4-2.2-1.1-2.7-3.5-2.7-2.9 0-3 .2-2.4 3m6.9 28.7c-.9 2.4-3.5 7-5.6 10.2-2.2 3.3-3.7 6.6-3.5 7.3.3.8.1 1.1-.4.8-.6-.3-1 .1-1 .9 0 .9.6 1.6 1.3 1.6 1.9 0 14.3-10.2 16.2-13.2 1.5-2.7 1.5-3-1-7.3-1.5-2.5-3-4.5-3.5-4.5-.4 0-1.5 1.9-2.5 4.2m40.2 7.5c-.4.3-.7 1-.7 1.4 0 1.5 8.8 4.1 15.5 4.5l7 .4-10.5-3.5c-5.8-1.9-10.5-3.5-10.6-3.5 0 0-.4.3-.7.7"/></svg>