<svg xmlns="http://www.w3.org/2000/svg" width="682.667" height="512" version="1.0" viewBox="0 0 512 384"><path d="M0 192v192h512V0H0zM269.1 76.8c1.9 1 6.8 4.4 10.9 7.7 6.9 5.6 7.2 6 4.6 6.3-1.6.2-4.5-.7-7.1-2.2-2.4-1.4-5.5-2.6-6.9-2.6-2.3 0-2.6.4-2.6 3.9 0 2.1.6 4.3 1.3 4.8.6.6 5.1 2.2 9.8 3.6 9.5 3 11.4 4.4 10.5 8.1-.5 2.2-.2 2.6 3.4 3.7 2.1.7 3.7 1.6 3.4 2-.3.5.7.9 2.1.9 1.5 0 2.4.4 2 1-.3.5-.2 1 .2 1 .5 0 1.8.6 2.9 1.4 1.7 1.3 1.5 1.4-2 .6l-3.8-.8 3.3 2.9 3.4 2.9-3.3-1.1c-1.8-.6-3.6-.9-3.9-.5-.4.3.1.6 1 .6 1 0 1.7.4 1.7 1 0 .5-.5 1-1.1 1-.5 0-.8.4-.4.9.3.6-.4.8-1.7.5s-3.4-.8-4.7-1.1c-1.6-.4-2.2-.2-1.7.5 1.1 1.8-3.2 2.4-6.3.8-4.1-2.2-5.1-1.9-2.2.4 3 2.6 2.1 2.5-3-.1-2.3-1.1-3.8-1.6-3.4-1 .3.6.2 1.1-.3 1.1s.1 2.8 1.3 6.2c2.3 6.4 4.8 8.5 5.9 5 .9-2.7 5.7-7 8.8-7.7 3.1-.8 3.4-.1 4.6 10.5l.7 6.5 10 1.3c5.5.7 11.8 1.5 14 1.8 3.2.4 4.1.9 4.2 2.5q.15 2.1-1.2 1.5c-.7-.2-4.2-.7-7.7-1l-6.3-.5 6.7 1.7c5.7 1.4 6.7 1.9 6.2 3.4-.3 1-.4 1.8-.2 1.8s4.9-.9 10.6-2c13.8-2.7 38.3-2.6 36.6.1-.3.5.5.9 1.7.9 1.8 0 1.9.2.9 1.5-.9 1-.9 1.5-.1 1.5.6 0 1 .5.8 1.2-.1.7.8 1.7 2.1 2.3 1.2.5 2.2 1.6 2.2 2.3 0 .8.9 1.2 2.3 1 1.3-.1 3.3.7 4.7 2 1.3 1.2 3.1 2.2 3.9 2.3 1 0 .7.4-.7 1-1.3.5-2 1.3-1.7 1.9.3.5 0 1-.7 1s.1.9 1.7 2c1.7 1.1 2.4 2 1.7 2s-1 .4-.7 1c.3.5.2 1-.4 1s-.8.7-.5 1.5q.75 1.65-1.2.9c-1.8-.5-1.8-.5-.1.6 2.5 1.6 2.1 3.3-.5 2.5-2.2-.7-2.2-.6-.4.7 1.8 1.4 1.8 1.5-.4 2.1-1.3.3-3.6-.1-5.2-.9-1.9-1-2.8-1.1-2.8-.3 0 1.6-3.9 4.8-6.7 5.5-2.2.6-2.2.7-.6 1.9s1.2 1.3-2.6.9c-2.4-.2-4.9-.8-5.5-1.2-3.6-2.8-4.5-1.7-1.1 1.2 5.1 4.5 3.9 4.6-2.3.2-6.5-4.7-7.9-5.2-24.4-7.6-8.9-1.4-16.6-3.1-20.3-4.7-4.5-1.9-7.9-2.6-13.8-2.7-7.4-.1-7.8 0-7.2 1.9 2.2 7.1 2.4 9.1.9 11.2-1.9 2.9-3.8 2.9-6.1-.1l-1.9-2.4-1.7 2.9c-3.2 5.7-6.7 2.7-6.5-5.7.1-2.7-.1-5.5-.6-6.2-.5-.9-4.5-1.1-15.6-.7-12.8.5-15.1.3-16.4-1.1-.9-.9-1.4-2.4-1.1-3.4.3-.9 0-2.2-.8-2.8-.7-.6-9.1-1.6-18.7-2.1-9.6-.6-19.7-1.3-22.5-1.5l-5-.5 4 1.4c2.2.7 3.6 1.4 3.1 1.4-2 .2 1.7 2.9 5.4 4 3.9 1.2 5.4 3.6 2.7 4.7-.7.2-6.5-1.5-12.9-4-16.1-6.2-22.2-7.8-24-6-2.4 2.4-6.1 2.1-7.4-.6-1.5-2.9-3.6-3.8-8.5-3.9-5.8-.1-9.6-1.9-11.3-5.4-.9-1.9-1.1-3.6-.6-4.1.9-.9 12.1 0 33 2.4 4.7.6 18.6 1.9 31 2.9l22.5 2 4-4.6c2.2-2.6 5.9-8.1 8.1-12.2 3.3-6.1 3.9-7.8 2.9-8.8-.7-.6-1.6-4.3-2-8.1s-1-7.3-1.3-7.8c-.4-.6-2.3-1.5-4.2-2-2.1-.6-4-2-5-3.7-1.4-2.7-1.4-2.9 1.8-5.8 1.8-1.6 4.1-2.9 5.3-2.9 1.6 0 1.8-.3 1-1.8-.5-.9-5.1-3.2-10.5-5.1-9.7-3.3-15.6-7.4-15.6-10.6 0-.9.9-1.9 2-2.2 1.9-.5 1.9-.7.5-2.3-2-2.2-1-4.7 1.8-4.9 1.2-.1 4.2-.2 6.7-.4l4.5-.2-.3 3.2c-.2 3.8-.5 3.7 5.4 2.2 3.2-.8 4.9-1.9 5.8-3.8 2-3.6 5.8-7 9.2-8.1 5-1.5 12.8-1.1 16.5.8m-56.9 141.4c-.7.7-1.2.8-1.2.2s.3-1.4.7-1.7c.3-.4.9-.5 1.2-.2.2.3-.1 1.1-.7 1.7"/><path d="M247 116.1c.4 2.2 1.5 4.8 2.3 5.6 1.3 1.4 1.7 1.3 3.1-1 2.3-3.4 1.2-8.1-1.7-7.3-1.2.3-2.6.1-3.3-.5-.8-.7-.9.1-.4 3.2m7.7 27.5c-.9 2.5-3.7 7.7-6.2 11.4-4.5 6.8-5.6 10-3.2 10 1.9 0 14.3-10.1 16.1-13.1 1.5-2.5 1.4-2.9-1.7-7.8l-3.3-5.1zm39 8c-.4.4-.7 1.1-.7 1.5 0 1.5 10.7 4.7 18 5.2 8.6.7 7.6 0-5-3.6-4.7-1.3-9.2-2.7-10.1-3.1-.8-.4-1.8-.3-2.2 0"/></svg>