<svg xmlns="http://www.w3.org/2000/svg" width="682.667" height="512" version="1.0" viewBox="0 0 512 384"><path d="M0 41.1c0 27.7.4 42.5 1.2 45.6.8 3.5.8 5 0 6.4-.8 1.2-1.2 7.7-1.2 18.6v16.8l2.1-4.2c2.3-4.8 4.9-7.4 4.9-5.1 0 .8 1.8 5.1 4 9.7 4 8.3 4.8 11.1 3.1 11.1-2 0-4.7 13.5-3 14.6.6.4.1 1.7-1.4 3.3-3.5 3.7-4.1 6.6-2.3 10.2 1.5 3 1.5 3.1-2.9 7.3L0 179.7V384h512v-21.5l-5-6.2c-8.8-10.7-21.6-19-38.4-24.8l-9.1-3.1-.3-6c-.2-3.2.4-16.8 1.4-30.2 1.9-27.9 1.5-51.2-1.1-60.6-7.1-25.4-30.6-51.6-64-71.3-3.8-2.3-9.1-5.2-11.7-6.4-5.6-2.7-5.6-2.9-2.8-14.6 2.5-10.5 5.9-18.7 9.8-24.2 4.2-5.8 4.1-6.5-1-5.7-2.3.4-10.3.2-17.8-.3-7.4-.6-20.9-1.5-30-2.1-9-.6-16.6-1.2-16.8-1.4s2.4-6.3 5.7-13.5C337.4 78.2 346 56.9 346 55c0-.6 1.8-7.3 3.9-14.8s4.2-15 4.5-16.6c.4-1.6 2.9-7.4 5.6-12.9 2.8-5.5 5-10.2 5-10.4S282.9 0 182.5 0H0z"/><path d="M366.1 2.2c-.5 1.3-2.1 6.3-3.6 11.3-4.8 16-10.6 34.9-12.1 38.7-1.2 3.3-1.2 3.6.1 3.1 1.3-.4 1.4-.1.5 2.2-1.2 3.3-1.3 3.8-.1 3 1.5-.9 9.4-15 26-46.8L384.1 0h-8.6c-7.9 0-8.6.2-9.4 2.2"/></svg>