<svg xmlns="http://www.w3.org/2000/svg" width="682.667" height="512" version="1.0" viewBox="0 0 512 384"><path d="M0 192v192h512V0H0zM272.9 80.1c2.5 1.8 7 4.9 9.9 6.8 7.9 5.2 3.4 6.7-6 2-2.1-1.1-4.9-1.9-6.3-1.9-2.5 0-2.6.2-2.3 4.7l.3 4.6 9 2.9c11.1 3.5 13.5 5 11.7 7.8-1.1 1.8-.9 2.2 1.3 3 1.4.5 3.7 1.3 5.1 1.6 1.4.4 2.2.9 1.9 1.2s1.1 1.7 3.2 3l3.8 2.4-3.3-.4-3.2-.5 3.2 2.9 3.3 2.8-2.9-.6c-1.9-.5-2.7-.3-2.3.3 1 1.6-4 2.5-6.3 1.3-1.4-.8-2-.8-2 0 0 .6-.6 1.7-1.3 2.5-1.1 1-1.8 1-3.8-.1-3.5-2-6-1.8-3.4.3l2 1.6-2-.8c-2-.8-8.5-1.7-8.5-1.2 0 1.6 4.8 12.1 5.7 12.4.6.2 2.1-1.2 3.3-3.2 2.2-3.5 6.5-6.5 9.4-6.5 1.8 0 2.3 1.6 3.2 10.2.4 5 1.1 6.9 2.3 7.2 1.1.4 25.2 3.6 26.7 3.6.1 0 0 .9-.3 2.1s-1.1 1.8-1.9 1.5-4.5-.8-8.2-1.1l-6.7-.6 7 2.4c4.2 1.4 6.9 2.9 6.7 3.6-.2.9.6 1.1 2.5.7 1.5-.4 6.6-1.3 11.3-2.1 12.7-2.2 35.9-1.8 34.4.6-.3.5.5.9 1.8.9 1.5 0 1.9.3 1.1.8-1.9 1.2-.3 5.2 2.3 5.8 1.3.3 2.1 1 1.8 1.5-.9 1.5 2.3 2.1 4.5.9 1.2-.6 2.1-.7 2.1-.1 0 .5-.5 1.1-1.2 1.3-.6.2.8 1.4 3.3 2.6 3.5 1.7 3.9 2.1 2 2.2-1.6 0-2.1.4-1.7 1.5.3.8 0 1.5-.7 1.5-.7.1-.1.7 1.3 1.5s1.9 1.4 1.2 1.5c-.7 0-1 .4-.7 1 .3.5-.2 1-1.1 1-1.6 0-1.6.1.2 1.5 1.9 1.4 1.9 1.4 0 1.5-2 0-2 0 0 1.6 1.8 1.5 1.8 1.5-1 1.1l-3-.5 2.5 2c1.5 1.2 1.7 1.8.7 1.4-.9-.2-1.8 0-2 .6q-.45 1.05-3.6-.6c-2.4-1.2-3.2-1.3-3.2-.4 0 1.4-2.6 3.4-7 5.5-1.4.6-1.9 1.2-1.2 1.2.6.1 1.2.5 1.2.9 0 1.4-6.4.6-9.7-1.2-4.4-2.2-4.2-.7.3 2.2 2 1.3 3.4 2.6 3.1 2.8-.3.3-3-1.1-6-3.1-6.1-4.1-12.5-6.1-24.2-7.6-10.3-1.3-20-3.7-24.7-6-2.5-1.3-5.9-1.9-10.4-1.9h-6.6l.6 2.7c1.8 7.7 1.8 10 .1 11.6-2.5 2.5-4.3 2.1-6.5-1.6-1.7-2.7-2-2.9-2-1.1 0 1.2-.9 3.2-1.9 4.5-1.8 2.2-2.1 2.3-3.6.8-1.1-1.1-1.6-3.5-1.7-8.2-.1-6.5-1.3-8.7-3.9-7.1-.6.3-1.6 0-2.4-.6-1.1-.9-3.8-.8-11.5.5-11.9 1.8-15.5 1-15.5-3.7-.1-4.3 1.4-3.9-20.5-5.7-17-1.4-20-1.4-20 .2 0 .7 2.2 2.2 4.9 3.4 4.2 1.7 4.9 2.4 4.4 4.2-.7 2.6-.5 2.6-5.2.1-6.7-3.4-14.4-6-23.1-8-8.3-1.9-8.5-1.9-10.3.1-1 1-2.4 1.9-3.1 1.9-1.4 0-5.7-4.6-4.9-5.3.2-.3-2.2-.8-5.4-1.2s-6.9-1-8.2-1.4c-3.2-1-6.6-5.4-5.7-7.6.7-2 .3-2 33.1 1.5 9.9 1.1 24.1 2.4 31.5 3s15.4 1.2 17.7 1.4c3.7.3 4.5-.1 8.1-3.8 2.2-2.2 5-6.1 6.2-8.6 1.3-2.5 3.2-5.8 4.3-7.4 1.7-2.4 1.8-3.2.7-4.9-.7-1.1-1.8-5.5-2.4-9.6-1.1-7.4-1.3-7.6-4.1-7.9-1.7-.2-3.8-1.1-4.7-1.9-2.4-2.1-2.3-6.5.1-8.3 1.1-.7 1.8-1.6 1.6-1.9-.1-.3 1-.7 2.6-.8 3.3-.2 5.9 2.7 5.9 6.5 0 1.3.9 3.5 1.9 4.8l2 2.5 1.5-2.3c2.8-4.4 1.8-9.9-1.5-9.1-2.1.6-8.3-4.3-7.3-5.8.2-.4-1.7-1.5-4.4-2.3s-5.8-1.8-6.8-2.3c-1.1-.6-4.1-2-6.8-3.3-7.6-3.7-10-10-3.8-10h2.5l-2.3-2.4c-2.4-2.6-2.2-5.6.5-5.6.8 0 1.5.4 1.5.9 0 .4 1.8.4 3.9-.2 5-1.4 7.5.3 6.6 4.3l-.6 2.7 4.6-1c3.4-.8 5-1.8 6-3.6 3.3-6.5 9.3-9.2 18.9-8.7 4.7.3 6.8 1 10.5 3.7M397.5 147c.3.5.1 1-.4 1-.6 0-1.1-.5-1.1-1 0-.6.2-1 .4-1 .3 0 .8.4 1.1 1m-184.3 71.2c-.7.7-1.2.8-1.2.2s.3-1.4.7-1.7c.3-.4.9-.5 1.2-.2.2.3-.1 1.1-.7 1.7"/><path d="M254 145.5c-1.1 2.5-3.4 6.6-5 9.1-1.7 2.4-3.8 6-4.6 7.9-1.4 3.4-1.3 3.5.7 3.5 2.4 0 14.6-10.2 16.1-13.4.7-1.7.3-3.2-1.7-6.9-1.5-2.6-2.9-4.7-3.1-4.7-.3 0-1.3 2-2.4 4.5m39.6 7.2c-1.9 2 5.8 5.2 13.9 5.8 3.3.2 5.1.2 4-.2-1.1-.3-5.4-1.8-9.6-3.4-4.3-1.5-8-2.5-8.3-2.2"/></svg>