<svg xmlns="http://www.w3.org/2000/svg" width="682.667" height="512" version="1.0" viewBox="0 0 512 384"><path d="M0 192v192h512V0H0zm256.6 11.3c.2.7 1.9 1.4 3.7 1.5 3.6.3 10.8 6.7 12.8 11.4.6 1.5 1.5 2.8 2 2.8s.9 1.9.9 4.1c0 3.8.2 4 1.7 2.8 1.5-1.3 1.5-1.2.5.7-.6 1.1-1.1 2.9-1 4 0 3.3-2.9 12.4-4.7 14.4-5.1 5.7-22.4 7.2-33 2.9-8.3-3.3-10.8-7.8-11.3-20.5-.3-7.2-.1-9.6 1.2-11.6.9-1.3 1.4-2.8 1.1-3.1-.3-.4-.2-.5.1-.2.4.2 2.4-1.1 4.5-3s5-3.7 6.4-4.1c1.4-.3 2.3-.9 2.1-1.3-.2-.3 2.6-.5 6.2-.5l6.7.2-5.5-.8-5.5-.7 5.3-.1c3.5-.1 5.4.2 5.8 1.1"/></svg>