<svg xmlns="http://www.w3.org/2000/svg" width="682.667" height="512" version="1.0" viewBox="0 0 512 384"><path d="M0 192v192h512V0H0zm251.5 18.2c.8 2.5 1.6 3.4 3.7 3.6 2.2.3 2.8-.2 3.9-3.2 1.6-4.3 2.9-4.7 2.9-.8 0 1.6.8 3.6 1.8 4.6 1.8 1.5 2 1.5 3.4-.1.9-1 2.2-2.9 2.9-4.3 1.4-2.4 1.4-2.4 1.9 2.4.3 2.7 1 5.1 1.7 5.3.6.2 2.3-1.3 3.7-3.4 2.7-3.9 3.3-3.4 1.6 1.3-.6 1.5-.8 3.6-.4 4.7.6 1.9.9 1.8 3.6-1.4l2.9-3.4-1.6 3.9c-1.8 4.5-1.8 4.9-.5 4.1.5-.3-.4 1.8-2 4.8-2.3 4.3-3 6.8-3 11.2 0 4.6-.4 6-2.4 8-7.8 7.8-35.8 7.2-42.6-1-.8-1-1.2-3.8-1.1-7.5.1-3.5-.4-7.1-1.2-8.7s-1.7-4.4-2-6.4c-.5-3.1-.3-3.5 1.6-3.5 2.3.1 2.5-.7 1.2-5.9l-.7-3 1.8 2.5c2.4 3.4 3.5 4 5.3 3 1.1-.6 1.5-2.1 1.3-5.2l-.2-4.3 2 3.7c3.1 5.7 8 4.4 8-2.1 0-3.2 1.5-2.5 2.5 1.1"/><path d="M265 235c1.9 1.3 3 1.3 3 0 0-.6-1-1-2.2-1-1.9 0-2 .2-.8 1"/></svg>