<svg xmlns="http://www.w3.org/2000/svg" width="682.667" height="512" version="1.0" viewBox="0 0 512 384"><path d="M0 192v192h512V0H0zm249.4-1.7c.9 3 2.5 6.2 3.6 7.2 1.8 1.6 2.1 1.7 4.4.1 1.5-.9 3-3.3 3.7-5.8 1.9-6.5 2.7-6.6 3.4-.5.8 6.4 3.5 9.8 6.3 8.1.9-.6 2.9-3.3 4.4-6l2.8-4.9v5.6c0 3.3.6 6.3 1.5 7.5 1.4 1.8 1.6 1.8 4.7-1.7 1.8-1.9 3.9-4.4 4.6-5.5 1.1-1.7 1.2-1.6.7 1.1-2.4 12.7-1.4 15 3.6 8 1.8-2.5 3.4-4.3 3.6-4.2.2.2-.5 2.4-1.6 4.8-1 2.4-2.2 5.5-2.6 6.9-.6 2.4-.6 2.4 1.9-.5 1.7-2 1.1-.3-2.1 5.4-4.5 8.1-4.7 8.7-4.7 16.5 0 4.5.4 10.8.8 14.1.7 5.4.6 6.3-1.4 8.8-4.8 6-18.9 10.7-32.3 10.7-13.7 0-29.1-5.9-32.6-12.3-1.2-2.3-1.2-4-.1-11.1 1.5-9.9.9-17.8-1.8-23.2-1.1-2.2-2.2-6.3-2.4-9.2-.5-4.9-.4-5.1 1.2-3.7 1.5 1.4 1.8 1.4 3 0 1.1-1.4.8-7.5-.7-12.4-.2-.9.1-.8.7.4 3.8 6.2 5.7 8.5 7.2 8.5 2.8 0 4.1-3.7 3.6-10.3l-.4-5.9 3.1 6.3c1.8 3.7 3.9 6.5 4.9 6.7 3.2.6 5.3-2.5 6-8.8.4-3.3.9-6 1.1-6s1.1 2.4 1.9 5.3"/></svg>