<svg xmlns="http://www.w3.org/2000/svg" width="682.667" height="512" version="1.0" viewBox="0 0 512 384"><path d="M0 192v192h512V0H0zm247-18.9c2.3 7.7 4.8 10.9 8.3 10.9 3.4 0 6.1-3.5 9-11.5 1.4-3.9 2.6-6.8 2.7-6.5 0 .3.7 4 1.5 8.3 1.6 9 2.6 10.7 6.5 10.7 3.3 0 5.4-2.3 8.9-9.8 1.4-2.9 2.8-5.2 3.3-5.2.4 0 .8 3.7.8 8.3 0 8.8.8 10.7 4.6 10.7 1.6 0 3.4-1.9 6.9-7.1 2.6-3.9 4.9-6.9 5.1-6.6.3.3-.2 3.3-1.1 6.7-1.7 6.7-1.7 13.1.1 13.7.7.2 3.3-2.5 6-6.1 2.6-3.6 5-6.4 5.2-6.1.2.2-1 3.8-2.7 7.9-4.3 10.2-4 12.1.9 5.6 2.2-2.9 4-5 4-4.6s-2.6 5-5.7 10.2c-8 13.2-8.3 13.7-9.3 20.1-1.8 11-1.9 10.8 6.7 14.8 14 6.4 21.5 14.9 21.6 24.3.1 13.8-14.5 25-41.6 31.8-8.8 2.3-12.8 2.7-29.7 3-19.1.3-28.1-.5-40-3.5-18.2-4.8-33.7-14.6-37.6-23.9-3.2-7.8-.9-15.7 6.8-22.8 4.7-4.4 13.8-9.9 18-10.9 1.6-.4 2.8-1.6 3.2-3.1 1-3.7-1.9-15.5-5.5-22.5-3.5-6.8-4.3-9.3-2.8-8.3 1.7 1 .9-5.1-1.1-9.1-2.7-5.2-1.9-5.4 2-.5 3.7 4.7 5.6 5 7.2 1.4 1-2.1.9-3.7-.3-8.2-.9-3.2-1.9-6.5-2.4-7.5-1.4-3.3 1.1-1.7 3 2 5 9.3 9.8 11.8 13.1 6.8 1.4-2.1 1.6-4 1-10.3-.7-8.4-.7-8.4 4.7 1.9 2.9 5.7 3.6 6.4 6.5 6.7 5.4.5 7-2 8.7-14.1.3-2.6.8-4.7 1-4.7s1.4 3.2 2.5 7.1"/></svg>