<svg xmlns="http://www.w3.org/2000/svg" width="682.667" height="512" version="1.0" viewBox="0 0 512 384"><path d="M0 192v192h512V0H0zM227.6 80.5c.5 2 1 2.3 3.4 1.9 1.5-.4 3.7-.1 4.8.5l2.1 1.1-2.1 3.7-2.2 3.6 2.5-.6c1.3-.4 3.1-.7 4-.7s2.8-1.8 4.3-4.1c1.6-2.3 4.2-4.7 6.1-5.5 5.2-2.1 16.3-1.8 20.5.6 1.9 1.1 6.5 3.6 10.3 5.5 3.7 1.9 6.7 4 6.7 4.5 0 1.5-6.9 1.2-11.9-.5-6.3-2.3-8.3-1.3-7.9 3.8l.3 4.1 7.9 2.2c8.6 2.4 13.1 5.1 13.1 7.9 0 1.2 1.1 2.2 3 2.8 4.8 1.4 9.5 3.7 9.5 4.6 0 .4 1 1.3 2.3 2 2 1 1.8 1.1-1.5.7l-3.8-.5 2.8 2.5c2.3 2.1 2.4 2.4.7 2.2-1.1-.2-1.9.2-1.8.8.1.7-.7 1.4-1.7 1.7-1.3.3-1.8.1-1.4-.6.5-.8.2-.8-.6 0-1 .9-1.7 1-2.7.2-1-.9-1.7-.6-3.1 1-1.5 1.9-2.1 2.1-4.5 1.2-4-1.6-5.5-1.3-3.2.5 2 1.6 2 1.6-.1 1-4.8-1.4-8.5-1.5-9.1-.1-.6 1.8 2.6 10.6 4.5 12.2 1.2 1 2 .5 4.3-3.2 2.1-3.3 3.8-4.7 6.8-5.6 2.3-.7 4.4-.9 4.8-.5s1 4.1 1.3 8.4l.5 7.7 4 .6c2.2.4 8.4 1 13.8 1.4 8.8.6 9.7.9 9.7 2.7 0 1.9-.4 2-7.2 1.3-4-.3-8.2-.9-9.3-1.2-3.9-1.1-.9.6 6.5 3.5 4.1 1.7 7.4 3.5 7.3 4.1-.4 1.5.3 1.4 13.6-.9 14.2-2.5 33.1-2.8 33.1-.5 0 1 1 1.5 2.8 1.5 1.9 0 2.3.3 1.4.9-2 1.2-1 4.4 1.8 5.8 1.4.7 2.4 1.8 2.2 2.4-.2.7.8.8 3 .4 2.9-.7 3.1-.6 2 .8-1.1 1.3-1 1.5.9 1 1.5-.4 2-.3 1.5.5-.6 1.1 1.3 1.7 3.7 1.3.5-.1.6.3.2.9-.3.5-1.2 1-1.9 1-1.5 0-1.6 3.1-.2 4.2 1.7 1.2 1.5 3.8-.2 3.8-1 0-1.3.3-.7.8.6.4 1.2 1.7 1.2 2.9.1 1.7-.4 2.3-2 2.3-1.4 0-1.8.3-1 .8.7.4.8 1.3.4 2-.6 1-1.5.9-4.4-.3-4.6-1.9-5.3-1.9-3.7 0 1.1 1.4.7 1.9-1.2 1.6-.5 0-.8.3-.8.8s-1.4 1.4-3 2.1c-2.8 1.2-2.9 1.4-1.3 2.7s1.6 1.4-1 .8c-1.9-.4-2.6-.2-2.2.5.9 1.5-.1 1.3-4.6-1.1-5-2.5-6.1-1.9-1.9 1.1 5.2 3.7 2.6 3.4-3.4-.4-6-3.9-11.8-5.5-29.6-8.2-9.6-1.4-12.9-2.4-19.7-5.9-7.1-3.7-8.9-4.2-12.7-3.8l-4.4.5 1.4 4.7c1.5 4.9 1.8 9 .8 11.5-.9 2.3-5 2-6.8-.6l-1.5-2.1-1 2.7c-1.2 3.1-3.7 4.4-5.4 2.7-.7-.7-1.4-4.2-1.7-7.9l-.5-6.7-4-.7c-2.2-.3-8.9-.1-14.9.4-10.6 1.1-11 1.1-12.7-1-.9-1.2-1.5-3.1-1.2-4.1.3-1.3-.1-2.1-1.4-2.5-2.9-.8-22-2.6-27.7-2.5-4.5 0-4.8.2-2.5 1 2 .7 2.6 1.5 2.2 2.9-.6 2.4-.4 2.3-6.9.6-2.8-.7-11-2.4-18.4-3.6-12.1-2.1-13.3-2.2-14.1-.7-.6 1-1.6 1.4-2.6 1s-1.4-.2-1 .4c.5.7 0 .9-1.4.6-1.2-.3-2.6-1.9-3.1-3.4-.8-2.5-1.5-2.9-4.6-2.9-6.3-.1-11.6-1.8-13.9-4.5-5.1-5.8-3-6.5 14.2-4.8 20.3 2.1 52.5 5.1 62.1 5.8l9.1.7 3.9-4.5c5.1-5.9 12.2-19.6 10.7-20.5-.6-.4-1.7-3.6-2.3-7.2-1.6-8.3-2.1-9.1-6.1-10.4-1.8-.6-4-2.3-4.8-3.7-1.4-2.5-1.3-2.9 1.2-5.9 1.5-1.7 2.7-2.9 2.7-2.5 0 .3.8.1 1.9-.4 2.4-1.3 6.1 2.4 6.1 6.3 0 1.5.9 3.9 2 5.3l1.9 2.5 2.1-3.4c2.2-3.7 2.5-5.4 1-6.3-.6-.4-.8-1.1-.4-1.6.3-.6-.4-.7-1.8-.4-1.7.4-3-.1-5.1-2.3-1.5-1.6-2.7-3.5-2.5-4.2s-.8-1.4-2.2-1.6c-1.3-.3-2.7-.8-3-1.2-.3-.5-3.5-2.1-7.1-3.6-7.6-3.2-13.2-7.8-12.7-10.4.3-1.4 1.3-1.6 5.7-1.4l5.3.3-3.1-3.8c-3.5-4.2-4-7.7-1.3-9.2 2.6-1.5 3.1-1.3 3.8 1.4"/><path d="M254.4 144.7c-1.7 5.2-3 7.8-7 14-4.6 6.9-5.3 10.5-2 11.1 2.1.4 9.2-6 13.7-12.5l2.9-4.2-3.1-5c-1.8-2.8-3.4-5.1-3.6-5.1s-.6.8-.9 1.7m39.8 10.4c.4 1.4 8.3 3.7 12.3 3.7 2.6 0-4.7-3.3-9.4-4.3-2.6-.6-3.2-.4-2.9.6m-90.4 20.6c.7.3 1.6.2 1.9-.1.4-.3-.2-.6-1.3-.5-1.1 0-1.4.3-.6.6"/></svg>