<svg xmlns="http://www.w3.org/2000/svg" width="682.667" height="512" version="1.0" viewBox="0 0 512 384"><path d="M0 192v192h512V0H0zm243.9-22.8c2.8 8.5 6.6 12.8 11.3 12.8 3.9 0 7.8-2.3 5.9-3.4-1.5-1-.4-2.6 1.9-2.6 1.3 0 2.5-1.9 4.6-7.3 1.5-3.9 2.9-7.4 3.1-7.7.9-1 2.1 2.7 2.8 7.9 1.3 11.4 3.8 15.1 10.1 15.1 3.7 0 5.5-1.8 4.8-4.6-.4-1.6-.1-2.1 1.7-2 1.6.1 3.1-1.4 5.8-5.8 5.6-9.1 6.4-8.7 5.6 2.8-.6 8.1-.5 10 .9 12.2 1.4 2.1 2.4 2.5 5.4 2.2 3.2-.3 3.7-.6 3.5-2.6-.3-2 .6-2.6 3.3-2.3.6.1 3-2.6 5.4-5.9 6.3-8.7 7.6-8 4 2.5-2.4 7.1-2.6 14.7-.4 16.5 1.3 1.2 2.6.2 9.4-6.5 4.4-4.4 8.2-7.6 8.5-7.3s-1.7 5.2-4.5 10.8c-6.9 14.3-6.7 15.9 1.4 8.2 3.5-3.4 6.7-6.2 7.1-6.2.3 0-1.2 2.7-3.5 5.9-2.2 3.3-4 6.4-4 7s-.9 1.5-1.9 2c-1 .6-2.9 3.1-4 5.5-1.2 2.4-3 4.6-4 4.9-2 .5-6.2 10.2-5.4 12.3.2.7 3.4 2.2 7.1 3.4 19.4 6.5 36.5 17.3 44.9 28.5 3.7 4.9 7.3 14.4 7.3 19.1 0 21.8-25.7 42.4-66 52.8-20.1 5.2-34.6 6.9-60 6.9-32.8 0-53.8-3.2-77.5-11.8-23.8-8.6-39.8-20.3-46.6-34.1-2.9-5.9-3.1-6.9-2.7-14.6.5-9.7 3.1-15.3 10.6-23.1 8.9-9.2 28.5-20.2 44-24.8 2.3-.7 4.2-1.8 4.2-2.4 0-2.7-3.2-10.1-5.4-12.5-2.4-2.5-9.6-13.4-9.6-14.5 0-.3 1 .1 2.3 1 1.3.8 2.7 1.2 3 .8 2.3-2.2-1.2-13.1-6.4-20.4-3.9-5.5-1.2-4 4.5 2.5 6.4 7.4 8.8 8.6 11.7 6 2.5-2.3 2.5-9.3-.1-16.2-3.2-8.5-2.3-8.9 3.1-1.6 6.4 8.8 8.4 10.4 12.4 10.4 5.7 0 7-2.7 6.8-14.1 0-5.5.2-9.9.5-9.9.4 0 2.7 3.6 5.2 8.1 6 10.7 11.4 13.5 17.3 8.9 2.9-2.3 4.2-5.9 5.2-13.9 1.1-9.4 2.1-9.2 5.4 1.1m-8.9 9.4c0 .9-.5 1.4-1.2 1.2-1.8-.6-2.1-2.8-.4-2.8.9 0 1.6.7 1.6 1.6m-26 5c0 1.6-1.6 1.9-2.5.4-.8-1.3.4-3.2 1.6-2.5.5.4.9 1.3.9 2.1m-22.2 7.7c.2 1-.3 1.7-1.2 1.7-1.8 0-2.9-1.6-2.1-3.1.9-1.4 2.9-.6 3.3 1.4m-14.1 11.2c.3.9.3 1.9-.1 2.2-.7.7-3.6-1.6-3.6-2.8 0-1.5 3-1 3.7.6m-1.7 11.1c0 .9-.5 1.4-1.2 1.2-1.8-.6-2.1-2.8-.4-2.8.9 0 1.6.7 1.6 1.6m10.5 10.4c-.5.8-1.1.8-1.7.2s-.7-1.6-.3-2.2c.5-.8 1.1-.8 1.7-.2s.7 1.6.3 2.2"/><path d="M180.6 263.1c-4.2 4.7-5 6.1-4.7 8.1 0 .5-.3.8-.8.8-1.7 0-2 8.8-.5 14.2 2.9 9.5 16.5 20.3 33.4 26.3 7.7 2.8 21.5 5.4 35.1 6.7 10.3.9 15.6.9 26-.1 12.2-1.2 26.9-4 31.4-6 1.1-.5 4.1-1.6 6.6-2.5 6.2-2.2 16-8.2 20.9-12.8 5-4.8 7.8-10.2 8.6-17 .5-4.6.2-6.2-1.9-10.4-2.6-5.1-8.4-12.4-9.9-12.4-1.2 0-1 4.3.7 10.7.8 3.1 1.5 7.8 1.5 10.3 0 15-20.8 27.6-53.3 32.4-14 2.1-24.7 2-39.3-.4-25.7-4.2-40.5-11.5-48.5-23.9-3.5-5.4-3.6-8.9-.9-19.6 1.1-4.3 2-8.2 2-8.7 0-1.9-2.1-.5-6.4 4.3"/></svg>