<svg xmlns="http://www.w3.org/2000/svg" width="682.667" height="512" version="1.0" viewBox="0 0 512 384"><path d="M0 192v192h512V0H0zm269-26c1.1 1.1 2 2.4 2 3 0 .5.5.9 1.2.7.7-.1 1.7 2.7 2.5 7.7.8 4.3 2 9.1 2.8 10.7 2.6 4.9 11.6 5.6 15.1 1.2 3.2-4 7.4-10.2 7.4-10.8 0-.4-1.1 0-2.5.9-3.1 2.1-4.8 2-7.6-.2-1.7-1.4-2.2-2.8-2.1-5.7.2-4.6 2.3-7.1 6.5-7.8 3.8-.5 7.7 2.9 7.7 6.9 0 2.1.3 2.4 1.3 1.5.8-.6 1.7-.8 2-.5s.3 5.2 0 10.8c-.6 11.1 0 12.7 5.8 14.1 2.3.6 3.5-.1 7.8-4.3 5.8-5.6 6.3-7 2.3-6.4-3.2.4-8.2-3-8.2-5.7 0-6.6 4.9-10.9 10.9-9.6 3 .6 6.1 4.2 6.1 7 0 .8.5 1.5 1 1.5 1.6 0 1.2 2.4-1.6 11-4.3 13.4-2.1 18.8 5.5 13.6 2.3-1.6 4.1-3.4 4.1-4s-1.4-1.9-3-2.8c-5.1-2.9-5.2-7-.4-12.7 5.3-6.4 14.4-2.9 14.4 5.5 0 3.6.3 4.3 2.4 4.8 3.8.9 5.6 3.4 5.6 7.6 0 3.3-.6 4.3-3.9 6.9-2.4 1.9-4.1 4.2-4.4 6.1-.4 1.9-1.8 3.7-3.8 4.9-1.7 1.1-4.4 3.9-6 6.2-1.6 2.4-3.9 5.1-5.1 6.1-1.3.9-2.1 1.8-1.8 2.1.3.2 4.8 1.8 10 3.6 30.2 10.4 51.5 27.3 57.2 45.3 2.3 7.5 2.3 12.1 0 19.5-4.7 15.1-18.9 28.7-40.6 38.8-18.5 8.6-35.7 13.6-61.6 17.7-12.7 2-18 2.3-43 2.3-22.3 0-31-.4-40-1.8-50.7-7.9-85.3-24.1-100-46.8-4.8-7.5-6.3-13.1-5.9-22.1.3-5.5 1.1-8.8 3.3-13.3 7.5-15.3 29.7-31.2 56.1-40 4.4-1.5 8.2-2.9 8.4-3.1.7-.7-6.3-7.9-9-9.3-2.7-1.2-5.7-7.1-4.6-8.8.3-.5-1-.8-2.9-.9-3.8-.1-6.7-2.2-8.4-6.5-1.1-2.5-1-3.3.6-5.6 1.3-1.9 1.8-4.1 1.5-7.1-.3-5 1.8-8.2 5.6-8.2 4.1 0 6.4 1.9 8.8 7.5 2.4 5.2 7.7 10.5 10.7 10.5 2.5 0 5.8-3.9 5.8-6.9 0-4.4-2-9.5-3.3-8.2-3.5 3.5-11.7-2.4-11.7-8.4 0-4.6 3.8-7.7 8-6.5 4.3 1.2 4.7 1.7 6.1 5.8 1.5 4.6 7.2 11.5 11.4 13.8 2.6 1.4 3.5 1.5 5.6.4 4.9-2.5 5.9-4.1 5.9-9.1 0-4.8 0-4.8-2.9-4.3-5.4 1.1-10.8-7.4-7.6-12.2 2-3.2 5.9-4 8.9-2 1.4.8 3.9 4.6 5.7 8.2 4.8 9.8 8.6 13.4 13.8 13.4 6.7 0 9.7-2.6 11.4-10 .6-2.4.4-2.6-2.7-2.2-6.5.8-10.3-8.1-5.6-12.8 4.8-4.8 11.1-.6 14.9 10.1 3.2 8.7 5.5 11.6 10.1 13 3.3 1 4.3.9 7.2-.8 2.8-1.6 7.7-8.3 7.8-10.5 0-.4-1.5-.4-3.4-.1-6.8 1.1-10.3-7.1-5.1-12.2 2.9-3 6.8-3.2 9.5-.5"/><path d="M165.6 204.8c-.2.4.1 2.4.7 4.5.9 2.8 1.7 3.7 3.4 3.7 2.8 0 2.8-.1.3-5-2-3.9-3.3-4.9-4.4-3.2m78.4 44.1-2.5.7 2.5 1.7c7.2 4.7 15.3 5.2 21.3 1.3 3.3-2.2 3.4-3.2.5-4-3.1-.8-18.7-.6-21.8.3"/><path d="M327.5 252c-.9 2.8.2 10.5 3.1 22.3s2.9 12.4.5 17.9c-5.2 11.8-20.1 20.9-43.5 26.5-10.2 2.5-12.8 2.7-32.1 2.7-18.1 0-22.4-.3-31-2.2-28.5-6.4-46.5-19.5-46.5-33.8 0-2.1.9-7.3 2-11.4 2.5-9.7 3.8-23 2.1-23-1.8 0-9.1 3.9-14.6 7.8-27 19.2-25.7 44.9 3.2 63.6 12.6 8.1 31 14.5 52.3 18.2 13 2.3 50.2 2.6 62 .5 23.2-4 42-10.5 55.7-19.1 9-5.7 16.9-14.5 19.6-22 6.3-17.1-3.4-34.3-26.5-46.9-5.5-3.1-5.7-3.1-6.3-1.1"/></svg>