<svg xmlns="http://www.w3.org/2000/svg" width="682.667" height="512" version="1.0" viewBox="0 0 512 384"><path d="M0 192v192h512V0H0zM228.3 81c.4 1.5 1.4 2 4 2 4.4 0 5.3 1.3 3.3 4.2-4.7 6.7 2.7 6 8.9-.8 4.8-5.3 7.7-6.4 16-6.4 5.7 0 7.4.5 17.4 5.6 6 3.2 10.8 6.1 10.5 6.5-.9 1.5-8.4 1-11.9-.7-1.9-.8-4.4-1.4-5.7-1.2-2 .3-2.3 1-2.6 5l-.3 4.6 5.8 1.3c7.5 1.6 12.1 3.9 15.6 7.8 1.6 1.9 3.7 3.1 5.2 3.1 1.4 0 2.5.4 2.5 1 0 .5.8 1 1.8 1 1.8 0 5.4 3.4 4.5 4.3-.3.3-1.2.3-2.1.1-1.1-.3-.8.1.6 1.2 2.8 2.1 2.8 3.4 0 2.6-1.3-.3-1.9-.1-1.5.5s0 1.6-.8 2.3c-1.2 1-1.5 1-1.6-.1 0-1-.2-1.1-.6-.2-.3 1-1 1-2.4.2-2.3-1.2-3.9-.4-3.9 1.7 0 1.3-.9 1.5-4.2 1-2.4-.3-3.7-.3-3 0 2.4 1.1 1.2 2.3-1.4 1.3-1.5-.5-3.6-.7-4.7-.3-1.3.4-1.7.2-1.3-.5 1-1.6 0-1.4-1.7.3-1.3 1.3-1.2 2.3.7 7.5 1.1 3.4 2.6 6.3 3.2 6.5s2.5-1.5 4.2-3.9c2.3-3.2 4.2-4.7 7.2-5.6 5.3-1.6 6-.7 6 8.3 0 3.7.4 6.9.8 7.2.5.3 6.8.8 14 1.2 12.3.6 13.2.8 13.2 2.7 0 1.8-.5 1.9-8.2 1.4-7.7-.6-8-.6-4.8.7 10.4 4 11.3 4.5 10 6.1-1.7 2-.2 2 13.4-.5 13.8-2.5 33.6-2.8 33.6-.5 0 1.3 1.1 1.9 3.1 1.7.3-.1.4 1 .2 2.3-.4 1.8.2 2.7 2.6 4 1.8.9 2.9 2 2.5 2.6-.3.6.4.7 2 .3s2.6-.2 2.6.5c0 .6.7 1.1 1.6 1.1.8 0 1.2.4.9 1-.4.6.7 1 2.7 1 3.3.1 3.3.1.8 1.3s-3.3 3.6-1.6 4.9c1.7 1.2 1.5 3.8-.2 3.8-1 0-1.3.3-.7.8 1.8 1.2 1.6 5.2-.3 5.3-1.1 0-1.2.3-.4.6.6.2 1.2.8 1.2 1.3 0 1-6.6.6-9.5-.6-1.8-.7-1.8-.6-.6.9s1.1 1.7-.3 1.7c-.9 0-1.6.4-1.6.9s-1.4 1.4-3 2.1c-2.8 1.2-2.9 1.4-1.3 2.6 2.2 1.7.1 1.9-2.9.3-1.5-.8-1.9-.8-1.4 0 .9 1.5.2 1.4-4.1-.4-5.3-2.3-6.2-1.8-2 1 2 1.4 3.7 2.8 3.7 3.1 0 .6-3.3-1.2-8-4.2-4-2.7-8.7-3.8-26-6.5-9.6-1.5-14.3-2.8-20.3-5.6-4.2-2-8.2-4.2-8.8-5-1.3-1.5-6.7-1.7-8.8-.4-1.1.7-1 1.8.3 6.4 2.2 7.5 2 10.3-.6 12.1-2 1.5-2.4 1.4-4.5-.6-2.5-2.3-2.5-2.3-4.2.9-.6 1.3-1.8 2.3-2.5 2.3-2.5 0-3.5-2.6-3.8-9l-.3-6.5-4.9-.8c-2.9-.5-7.7-.4-11.7.2-13.1 2.1-16.4 1.3-16.4-4.1 0-3.2-.1-3.3-5-3.9-2.8-.4-9.5-1-14.8-1.4l-9.7-.7v2.6c0 1.6-.6 2.6-1.4 2.6s-9.3-1.3-18.9-2.9c-14.4-2.5-18-2.8-20.1-1.8-1.4.7-2.6 1.6-2.6 2 0 1.6-4.1-1.5-5-3.7-.7-2-1.8-2.4-7.9-3-6.2-.6-7.3-1.1-9.6-3.7-4.1-4.9-3.4-5.9 3.8-5.9 3.4 0 13.7.9 22.9 2 9.2 1 26 2.7 37.5 3.6l20.8 1.6 3.5-4c1.9-2.1 5.4-7.3 7.7-11.5 3.9-7.1 4.1-7.7 2.9-10.4-.8-1.5-1.9-5.8-2.6-9.6-1.1-6.2-1.4-6.7-3.8-6.7-3 0-7.2-3.6-7.2-6s4.1-6.4 6.8-6.8c3.2-.5 5 1.3 5.8 5.6.8 4.2 4.4 10.7 4.4 7.9 0-.9.4-1.7.9-1.7s1.4-1.4 2-3.1c1.2-3.5-.4-7.3-2.8-6.4-1.8.7-7.1-4.3-7.1-6.8 0-1.3-.5-1.7-1.9-1.2-1 .3-2.4-.1-3.1-1s-3.4-2.5-5.9-3.6c-9.4-4.1-12.5-6.3-13.4-9.5-1.1-3.3.5-4.5 4.3-3.4 5.5 1.6 6.7 1.3 4.3-1-3-2.8-4.8-8.7-3.3-10.5 1.8-2.1 4.7-1.8 5.3.5M334 128.4c0 .3-.4.8-1 1.1-.5.3-1 .1-1-.4 0-.6.5-1.1 1-1.1.6 0 1 .2 1 .4M21.5 255c.3.5.1 1-.4 1-.6 0-1.1-.5-1.1-1 0-.6.2-1 .4-1 .3 0 .8.4 1.1 1"/><path d="M253.6 147.5c-.9 2.1-1.6 4-1.6 4.3s-2 3.5-4.4 7.1c-5.5 8.2-6.2 11.5-2.5 11.9 2.1.2 3.7-.9 8.4-6 8.7-9.6 8.9-10.3 4.9-16.2l-3.3-4.9zm41 8.3c-.8 1.3 1.5 2.1 8.2 2.7l5.7.5-3.5-1.6c-4.6-2.1-9.6-2.9-10.4-1.6"/></svg>