<svg xmlns="http://www.w3.org/2000/svg" width="682.667" height="512" version="1.0" viewBox="0 0 512 384"><path d="M0 192v192h512V0H0zm279.5-53.4c2.9 3.1 3.1 5.1 1.1 9.9-1.4 3.2-5.9 6.5-9 6.5-.8 0-2.9-1.2-4.6-2.6-2.9-2.5-3.1-3-2.5-6.8 1.5-8.8 9.8-12.6 15-7m42.7 1.4c2.6 2.7 3 3.6 2.5 6.7-.8 4.9-5.2 9.3-9.2 9.3-8 0-11.5-10.1-5.6-16.1 4-4 8.2-3.9 12.3.1m-88.3.6c2.3 1.9 3.1 3.4 3.1 5.7-.1 9.1-9.1 13.8-14.9 7.6-5.5-5.9-1.4-15.7 6.6-15.9 1.2 0 3.5 1.2 5.2 2.6m-42.9 5.1c2 1.8 3.3 4.1 3.7 6.5.5 3.2.1 4.1-2.5 6.8-4.7 4.7-10.7 3.8-13.7-2-2.4-4.7-1.9-8.5 1.6-11.4 3.9-3.3 7.1-3.3 10.9.1m170.5 2.8c5.1 5 2.3 14.1-4.9 16.5-6.7 2.2-12.6-1.9-12.6-8.7 0-5.3 5.4-10.3 10.9-10.3 3.1 0 4.8.6 6.6 2.5m-210.1 4.2c6.8 3.2 8.3 12 2.9 16.3-4 3.1-8.5 2.6-12.7-1.4-5.4-5-4.7-10.7 1.7-14.6 3.9-2.4 3.8-2.4 8.1-.3m240.7 8.2c5.4 5.4 3.1 13.8-4.6 17.2-4.1 1.8-4.7 1.9-7.5.4-4.5-2.3-6.4-5.8-5.7-10.8 1.2-9 11.6-13 17.8-6.8M128.4 169c1.8 1.7 3.7 4.2 4 5.6.9 3.5-1 8.9-3.9 11.2-2 1.6-2.3 2.5-1.8 5.5.4 2.9 1 3.6 3.6 4.1 4.4.9 9.4 4.6 10.8 7.9 1.9 4.5.5 10.8-3.1 13.9-3.6 3.3-5.1 3.4-10.8.8-4.5-2-7.2-6.3-7.2-11.5 0-2-.5-2.5-2.5-2.5-7 0-13.5-6.1-13.5-12.7 0-2.3 1-4.2 3.6-7 2.9-3 3.8-4.8 4.2-8.6.9-9.2 9.7-12.7 16.6-6.7m276.7 5.6c6.8 3.5 6.9 12.8.2 18.3-2.8 2.3-3.6 3.7-3.7 6.8-.3 5.2-2.9 8.8-8.2 11.4-5.4 2.6-9.9 2-14.4-1.7-2.6-2.2-3-3.3-3-7.4 0-5.6 2.3-9.1 8.1-12 3.3-1.7 3.9-2.5 3.9-5.3 0-3.7 3.1-7.9 7.5-10.2 3.8-1.9 5.8-1.9 9.6.1m-46.5 30.3c8.7 5.3 5.8 16.3-5.2 19.7-6.1 1.9-12.4.4-15.5-3.5-2.6-3.2-2.2-10 .7-13.3 4.4-4.9 14.4-6.3 20-2.9M173.5 210c5.2 4.9 5.5 12.4.8 18.1l-2.6 3 3.9 3.5c10.5 9.7 14.2 11 20.1 7.4 4.9-2.9 5.7-5.2 5-14.6-.7-9.7 0-10 5.2-2.4 1.9 2.8 3.7 5 4.1 5s1-1.4 1.4-3.2c1.7-8.8 12-11.6 19.4-5.3 3.4 2.8 3.3 2.9 4.7-4.3.4-1.7 1-3.2 1.4-3.2s2.2 3.2 4.1 7c1.9 3.9 4.4 8 5.7 9.2 3 2.8 10.2 3.9 14.4 2.1 3.9-1.6 5-3 9.5-11.6 1.9-3.7 3.9-6.5 4.4-6.2.4.3 1.1 1.9 1.5 3.5.8 3.5 1.5 3.7 4 1 2-2.2 7.4-4 11.9-4 3.9 0 9.1 3.4 10.6 7 1.5 3.7 2.3 3.7 4.4.5.9-1.4 2.3-2.5 3.1-2.5 1.2 0 1.4 1.5.8 9l-.6 8.9 3.3 3.1c5 4.6 8.5 4.2 16.1-2.3 13.2-11.1 13.8-11.1 9.8.3-3.3 9.3-3.6 12.6-1.2 15.2 2.8 3.1 6.5 2.2 14.2-3.4 11.8-8.5 12.8-7.5 4.6 5.1-4.3 6.5-5.5 9.2-5.5 12.2 0 2.2.3 3.9.6 3.9s2.6-1.2 5.2-2.8c4.8-2.8 11.3-5.4 12-4.8.2.2-4 5-9.2 10.5-5.3 5.6-9.6 10.6-9.6 11.2 0 .5 1.3.3 3-.6 4.2-2.2 3 .2-2.1 4-3.1 2.3-3.9 3.4-3.4 5 .3 1.1.8 4.5 1.2 7.5.4 4.9.1 6.2-2.8 11.7-10.3 18.9-43.5 31.8-84.9 33-47.8 1.4-87.8-12.2-99.1-33.8-2.7-5.2-3.3-15.5-1-18.3 1.1-1.3 1.1-2 .3-2.8-.7-.7-1.2-2-1.2-3 0-3.5-3.8-9.3-10.1-15.7l-6.4-6.4 5 2.6c2.7 1.5 5.8 2.7 6.7 2.7 2.1 0 3.8-2.9 3.8-6.8 0-2.7-5.4-11.6-10.3-16.9-4-4.4-.8-3.4 6.8 2.1 8.5 6.1 11.1 6.7 15.6 3.5 3.7-2.6 3.8-6.6.3-15.4-2.2-5.5-3-6.5-5.1-6.5-6.7 0-12.3-6-12.3-13.2 0-4.4.4-5.4 3.5-8.5 3.3-3.3 3.9-3.5 8.1-3 2.8.3 5.4 1.3 6.9 2.7"/><path d="M238.3 277.6c-8 1.7-17.9 6.3-22.6 10.3-2 1.8-3.6 3.6-3.5 3.9.1.4-.2 1.5-.7 2.5-1.6 3.7.2 9.8 4.1 13.8 3.4 3.5 8.4 5.3 8.4 3.1 0-.5.9-1.8 2.1-3.1l2.1-2.2 3.6 2.2c9.5 5.8 13.9 7.9 16.5 7.9 1.6 0 3.7.4 4.7 1 3.7 2 14.2-1.2 21.2-6.4l6.3-4.7 2.5 3.1c3.5 4.2 7 4 11.5-.5 11-11.4 1.8-25.1-20.5-30.5-10-2.3-26-2.6-35.7-.4"/></svg>