<svg xmlns="http://www.w3.org/2000/svg" width="682.667" height="512" version="1.0" viewBox="0 0 512 384"><path d="M0 192v192l84.3-.1c76.7 0 83.8-.1 80.2-1.5-27.2-10.5-46.4-24.3-54.5-39.5-3.2-6-3.4-7-3.5-16.4 0-8.9.3-10.6 2.7-15.5 8.7-17.5 29.6-32.3 59.8-42.4 9.8-3.2 22.1-6.4 31.5-8.1 2.2-.4 5.8-1.5 8-2.5 3.6-1.6 7.7-1.8 43-1.7 35.1 0 39.5-.2 43.7-1.8 5.9-2.2 10.3-1.5 14.6 2.5 4.4 4 5.7 4.6 13.8 6.5 17.6 4 41.5 13.8 53.9 22.1 19.3 12.8 29.7 30.7 26.7 45.8-4.1 20.3-23.1 37.3-56.2 50l-6.5 2.5h85.3l85.2.1V0H0zm285.5-42.4c3.4 3.7 3.3 7.8-.4 11.5-5.7 5.6-14.1 2.3-14.1-5.6 0-7.8 9.3-11.5 14.5-5.9m-54.7 2.6c4.9 4.6.7 14.8-6.2 14.8-9.4 0-12.3-11.1-4.2-16.1 3.6-2.2 7-1.8 10.4 1.3m106.3.4c1.3 1.2 1.9 3.1 1.9 6.1 0 9.2-9.8 12.7-14.8 5.3-2.9-4.3-2.4-8.5 1.5-11.9 3-2.6 8.2-2.4 11.4.5m-158 6.3c7.2 7.2 0 18.1-9.6 14.5-2.1-.8-4.5-5.6-4.5-9.1 0-1.6 1.1-4 2.5-5.6 3.5-3.7 7.7-3.6 11.6.2m204 4.2c7.6 8.2-2.2 20.4-11.6 14.3-5.8-3.8-4.8-13.1 1.7-15.9 4.9-2.1 6.7-1.8 9.9 1.6m-248.8 6.7c5.2 4.9 2.4 13.8-4.9 15.6-3.8 1-9.4-2.1-11.1-6.1-1.2-3.1-1.2-3.8.4-7.1 1.3-2.6 2.8-4 5.2-4.8 4.3-1.4 6.9-.8 10.4 2.4m288 9.4c3.9 4.6 3.7 9-.7 13.4-2.6 2.6-4.2 3.4-7.1 3.4-5.1 0-10.5-5.3-10.5-10.3 0-9.7 11.9-14 18.3-6.5m-326.1 5.9c2.7 1.2 6.8 6.8 6.8 9.3 0 7-9.4 12.7-16.5 10-1.8-.7-5.5-7.5-5.5-10.1.1-2.8 2.4-6.2 5.6-8.4 3.3-2.1 6.2-2.4 9.6-.8m343.1 10.3c4.3 1.8 6.7 4.6 7.3 8.7 1 6.7-6.8 14.5-13.4 13.5l-3.3-.5 2.5 2c5.7 4.5 5.5 13.3-.5 18.4-8.2 6.9-22.5-.8-20.3-10.8 1.4-6.4 6.5-10.7 12.8-10.7h3.9l-2.1-2.3c-3-3.2-3-10.4 0-14.2 1.9-2.4 6.8-5.3 9.1-5.5.4 0 2.2.6 4 1.4M85.7 205c3.2 1.9 6.3 7.4 6.3 11.3 0 3.3-7.5 9.7-11.3 9.7-6.4 0-12.7-6.2-12.7-12.6 0-1.7 1.3-3.9 3.9-6.5 4.5-4.5 8.6-5.1 13.8-1.9m19.4 21.9c3.1 3.1 3.9 4.6 3.9 7.6 0 4.8-3.1 9.9-7.4 11.9-4.5 2.1-6.3 2-11.1-.7-2.9-1.6-4.4-3.3-5.4-6.3-1.8-5.2-.9-8.8 3.4-13.1 2.8-2.8 4-3.3 8-3.3 4.2 0 5.2.5 8.6 3.9M384.8 238c10 6.1 9.3 19.4-1.3 24.1-5.8 2.6-10.9 1.7-15.1-2.6-3.6-3.5-6-10.1-5-13.9 1.9-7.7 14.1-12 21.4-7.6m-234.7 7.9c3.4 3.3 3.9 4.5 3.9 8.4 0 6.1-2.3 11.1-6.3 13.6-4.3 2.6-7.1 2.6-11.4 0-4.3-2.7-6.3-6.6-6.3-12.6 0-8.1 4.6-13.2 11.9-13.3 3.7 0 4.9.5 8.2 3.9"/><path d="M238 266.6c-1.4.2-4.4.7-6.7 1-4 .5-4.3.7-4.3 3.5 0 1.6-.9 4.8-2 6.9-5.1 9.9-18.3 9-22.2-1.5-.6-1.9-1.4-3.5-1.8-3.5-2.1 0-16.9 5.8-23.4 9.1-10.6 5.4-15.1 8.6-21.2 15.1-8.2 8.6-9.9 12.6-9.9 23.3 0 10.6 1.4 14 9.5 22.9 6 6.4 11.2 10.2 21.9 15.5 7.5 3.8 22.8 9.4 28.6 10.5 1.7.3 5.9 1.1 9.5 1.9s7.2 1.4 8 1.5c.8 0 5.6.5 10.5 1.1 28.1 3.4 64.1-1 88.9-11 13.3-5.3 22.8-11.3 30.4-19.2 8-8.4 10.5-14 10.5-23.3-.1-5.8-.6-8.1-3.1-13-5.3-10.5-16.7-20-32.7-27.5-11-5-15-5.8-16.4-3-1.4 2.5-8.1 6.1-11.3 6.1-4.7-.1-10.6-3.7-12.7-7.9-1.2-2.2-2.1-4.7-2.1-5.4 0-.9-1.4-1.7-3.2-2.1-4.2-.7-41.5-1.6-44.8-1"/></svg>