<svg xmlns="http://www.w3.org/2000/svg" width="682.667" height="512" version="1.0" viewBox="0 0 512 384"><path d="M0 192v192h140.5l-6.5-3.6c-11.5-6.4-16.4-10-24.2-18.2-8.9-9.3-12.2-15.2-13.9-24.6-1.4-8.2-.2-16.1 3.8-24.3 3.5-7.2 16.2-20.3 25.6-26.3 3.7-2.3 6.7-4.5 6.7-4.8 0-.2-1.3-2-3-3.8-1.6-1.9-3.4-5.1-4.1-7.3-1-3.5-.9-4.5 1.3-9.3 1.9-4.1 3.4-5.9 6.1-7.1 4.4-2.1 4.9-2.1 9.6.3 5.5 2.8 8.6 9.3 7.3 15.4l-.9 4.4 8.1-3c9.3-3.5 22.5-7.4 27.6-8.3 1.9-.3 6.4-1.2 10-2 23.2-5.1 67.4-7 94.9-4.1 49.9 5.3 89.2 20 111.1 41.6 16.7 16.5 19.7 37.4 7.9 54.7-6.4 9.4-18.2 19.2-33.5 28l-3.9 2.2 70.8.1H512V0H0zm286.4-37.5c3.5 3.2 3.5 8 .1 11.7-3.3 3.6-6.6 4.3-10.3 2.4-5.3-2.7-5.9-9.1-1.3-13.7 3.7-3.7 7.8-3.8 11.5-.4m-57 2.6c2.1 1.6 2.6 2.9 2.6 6.4 0 3.6-.5 4.8-3.1 6.9-5.4 4.6-12.2 2.6-13.5-3.8-1.5-8.5 7.5-14.6 14-9.5m107.9.1c3.1 1.6 4.6 3.9 4.7 7 0 3.9-1.9 7.4-4.7 8.7-4.8 2.2-8.7 1.2-10.8-3-2.3-4.3-1.8-7.7 1.4-11 3.1-3.1 5.9-3.6 9.4-1.7m-163 5.9c5.9 3.1 7.3 8.9 3.1 13.8-5.1 6.1-14.4 2.8-14.4-5.1 0-7.3 5.6-11.6 11.3-8.7m212.8 6.8c4 4.1 4 8.9-.2 13-5 5-12.7 3.3-14.8-3.2-1.4-4.2-.3-7.6 3.5-10.6s7.9-2.7 11.5.8m-257.7 4.6c3 2 5 6.7 4.2 9.8-1 4.2-5.4 7.7-9.7 7.7-3.1 0-4.3-.6-6.8-3.7-1.7-2.1-3.1-4.7-3.1-5.8 0-2.2 2.4-6.2 4.8-8.3 2.2-1.7 7.8-1.5 10.6.3m293.9 8.9c9 3.7 8.8 15.8-.2 19.6-3.9 1.6-7.6.6-10.6-2.6-5-5.4-3.6-13.6 2.8-16.8 3.9-1.9 4-1.9 8-.2M94.1 194.9c4.1 4.2 4.1 10.1-.1 14.3-2.8 2.8-3.6 3-7.8 2.5-6-.7-9.2-4.1-9.2-9.8s4.2-9.9 10-9.9c3.3 0 4.8.6 7.1 2.9m354.7 10.9c6.7 4.4 5.1 14.6-2.8 18.7-11.4 5.9-21.4-7.3-12.9-16.9 4.1-4.8 10.1-5.5 15.7-1.8m-369.7 7.8c4 2 7.3 9.2 6 12.7-1.4 3.5-6.8 7.7-10.1 7.7-4.5 0-9.8-2.8-11.5-6-2.5-4.9-1.9-8.8 1.9-12.6 3.9-3.9 8.6-4.5 13.7-1.8m356.3 13.8c3.8 1.6 7.6 7.1 7.6 10.9 0 9.5-10.5 15.6-19.1 11.1-2.9-1.4-6.8-8-6.9-11.2 0-3.2 3.5-8.4 6.9-10.2 4.3-2.3 7.1-2.5 11.5-.6m-338.7 7.7c5.8 3.6 7.7 9.4 4.8 14.9-3.6 7-11 9.5-17.3 6-4.6-2.6-6.2-5.5-6.2-11 0-3.2.7-4.7 3.8-8 3.2-3.3 4.6-4 7.7-4 2.1 0 5.3.9 7.2 2.1m293.4 15.2c4.1 2.7 6.9 7.9 6.9 12.8 0 6.6-7.1 13.9-13.7 14.1-4.2.1-10.3-3.1-12.4-6.6-2.6-4.2-3.4-10.9-1.9-14.7 3.1-7.3 14.1-10.3 21.1-5.6"/><path d="M228.9 265.4c-5.3.6-10.4 1.7-11.3 2.5-1.5 1.3-1.4 1.5 1.3 3.2 4 2.4 6.1 6.8 6.1 12.7 0 5.7-2.7 10.4-7.9 13.9-4.2 2.8-5.7 2.9-9.9.3-4.3-2.7-7.2-7.6-7.2-12.5 0-4.1 2.9-11.7 4.9-12.9.6-.4 1.1-1.2 1.1-1.8 0-3.8-30.7 6.7-46.5 16-9.7 5.6-19.7 15.7-23.8 24.1-2.9 5.9-3.2 7.5-3.2 15.1.1 7.3.5 9.3 2.9 14.2 7.9 16 27.3 29.4 55.2 38.2 18.4 5.7 18.8 5.8 68.4 5.3l45.5-.3 8.3-2.7c23.2-7.3 27.9-9.4 40.7-17.7 22.1-14.2 30.1-33.7 21.4-51.6-5.7-11.4-16.8-21.3-33.4-29.6-8-4-25.3-10.3-26.1-9.5-.3.3-.1 2.2.5 4.4 1.5 5.2 1.3 8.2-.7 12.3-5 10.2-19.2 10.6-25.2.8-3-4.9-2.7-13.3.5-18.1l2.6-3.7-2.3-1c-6.9-2.8-43.4-3.8-61.9-1.6m32.2 46.6c4.6 2.5.9 6-6.3 6-2.4 0-5.2-.6-6.2-1.3-2-1.5-1.3-4.4 1.2-5 3.3-.9 9.4-.7 11.3.3"/></svg>