<svg xmlns="http://www.w3.org/2000/svg" width="682.667" height="512" version="1.0" viewBox="0 0 512 384"><path d="M0 192v192h58.5c32.2 0 58.5-.2 58.5-.5s-1.7-1.6-3.9-2.9c-6.1-3.9-16-13.5-20-19.5-6.2-9.3-8.2-15.2-8.2-23.9.1-16.9 8-30.3 25.8-43.8 4.3-3.3 8.1-6.4 8.5-6.9.4-.6.8-3 .8-5.4 0-4.8 2.9-10.4 6.2-12.2 3.7-2 8.9-1.6 12.2.8 6.6 4.8 6.6 4.8 17.8 1 14.2-4.8 34.2-9.2 53.8-11.8 22.2-3 66.4-3.3 87-.6 29.6 4 49.9 9 73.3 18.2 1.2.5 1.7.2 1.7-.9 0-3.4 5.8-12.4 8-12.5.3 0 1.2-.2 2-.5 3.9-1.2 7.6-1.3 10.4-.1 9.3 3.9 12.3 16.9 5.8 24.7l-2.6 3.1 2.9 2.1c1.7 1.1 6.6 5.7 11.1 10.1 6.3 6.2 9 9.8 12 16 3.7 7.6 3.9 8.5 3.9 17.5s-.2 9.9-3.9 17.5c-4.3 8.9-13 18.7-23 26.1l-5.8 4.4H512V0H0zm285.3-32.9c6.4 2.9 5.9 13.7-.8 16.7-4 1.8-6.4 1.5-9-1.4-4.1-4.4-2.8-12 2.6-15 3-1.6 4.2-1.7 7.2-.3m-55.6 5.5c2.2 2.2 2.5 3.2 2 6.7-.7 5.1-3.6 7.7-8.5 7.7s-8.2-3.2-8.2-7.9c.1-8.1 9.1-12.1 14.7-6.5m111-.1c1.2.8 2.7 3.1 3.3 4.9 1.5 4.6-.8 9.2-5.6 11.2-3 1.3-3.8 1.3-6.3 0-1.5-.8-3.4-2.9-4.1-4.5-3.4-8.2 5.7-16.5 12.7-11.6m-167.6 6.2c3.2 1.9 5 6 4.2 9.5-.8 3.1-2.1 4.6-5.5 6.4-2.5 1.3-3.1 1.3-5.6 0-4.1-2.1-5.4-4.1-5.5-8.2-.1-2.9.5-4.2 3.1-6.5 3.7-3.3 5.3-3.5 9.3-1.2m217.4 6.5c1.5 1.4 2.8 3.8 3.1 5.8.5 3 .1 4.1-2.4 6.8-3.9 4.1-9.1 4.4-12.7.7-5.8-5.7-2-15.5 6-15.5 2.1 0 4.4.9 6 2.2m-263.7 5.3c3.6 3 4.5 6.9 2.7 11.2-2.2 5.2-7.7 6.8-13.4 3.8-5.8-3-6.3-10.5-.9-15 3.8-3.2 7.8-3.2 11.6 0m306 13c3.4 3.7 3.9 6.3 2 9.8-2.3 4.4-6.1 6.7-10.8 6.7-3.6 0-8.5-4.2-9.5-8.3-.9-3.6 2-9.2 5.8-11.1 4.5-2.1 8.6-1.2 12.5 2.9m-346.1 6.2c9.4 4.4 6.9 18.3-3.3 18.3-9.6 0-15.1-10.2-8.6-16.2 4.4-4.2 6.7-4.6 11.9-2.1m365.6 12.7c8.8 3.6 9.2 14.7.8 19.4-7.4 4.2-14.7 1.9-17.1-5.2-1.8-5.4 1.4-11.5 7.5-14.2 3.8-1.7 4.9-1.7 8.8 0m-379.5 9.3c6.8 4.2 8.2 10.7 3.6 16.2-2.3 2.7-3.2 3.1-7.9 3.1-6 0-9.5-2.1-11.5-6.9-1.6-3.9-.6-7.6 3-11.2 3.3-3.4 8.5-3.9 12.8-1.2m370.6 16.4c8.2 6.4 7 18.6-2.1 22.4-5.1 2.2-9.5 1.2-13.7-2.9-8.5-8.6-3.2-21.4 9-21.6 2.7 0 5 .7 6.8 2.1m-352 7.2c3.4 2.4 5.9 8 5 11-1 3.6-5.4 8.7-8.2 9.9-5.9 2.3-12.4.1-15.6-5.2-2.3-3.9-2-7.4 1-12.1 4.3-6.9 11.2-8.3 17.8-3.6"/><path d="M229.5 263.2C201 266.4 177 273 157 283.1c-7.5 3.7-8.6 4.5-19.4 12.7-7.4 5.6-15 16-17.7 24.1-7.4 22.1 7.4 45.6 38.8 61.5l5.2 2.6h182.7l6.9-3.7c25.1-13.3 39-30.7 38.9-48.8-.1-19-14.3-36-41.4-49.6-9.6-4.9-26.9-11.1-36-12.9-2.5-.5-7.6-1.6-11.5-2.5-17.9-3.9-54.2-5.5-74-3.3m81.2 20.3c4.6 2.8 6.7 6.4 7.1 12.7.5 6.8-.9 10.9-4.9 14.2-4.2 3.6-9.2 4.1-14.4 1.6-5.5-2.7-8.1-6.8-9-14.5-.6-5.3-.4-6.4 1.7-9.5 4.4-6.5 12.9-8.4 19.5-4.5m-93.6 2.6c5.8 4.1 7.6 12.6 4.3 20.9-2.8 6.9-10.7 9.9-17.3 6.6-8.4-4.4-7.7-22.2 1.2-27.6 4.1-2.6 8.2-2.5 11.8.1m46.8 24.5c6.8 2 10.4 5.6 8.9 8.8-1.5 3.4-7.4 5.8-15.3 6.3-20.6 1.4-28.5-11.2-9.8-15.6 5.8-1.4 10.4-1.2 16.2.5"/></svg>