<svg xmlns="http://www.w3.org/2000/svg" width="682.667" height="512" version="1.0" viewBox="0 0 512 384"><path d="M0 192v192h98l-7.3-7.4c-18.6-18.8-21.7-40-8.6-59.9 5.5-8.4 16.8-19.5 25.3-24.7 3.1-1.9 7.8-5 10.3-6.9 2.6-1.8 7.6-4.4 11.2-5.6s10.3-3.7 14.8-5.4c8.6-3.2 28-8.6 36.1-10.1 24.3-4.3 21.2-3.9 44.2-6.1 15.7-1.5 60.4-.6 78.3 1.6 25.2 3 48.6 8.7 70.1 16.9 6.6 2.5 17.4 3.7 16.2 1.7-.9-1.4 5.5-.6 8.9 1.1 4.3 2.3 6.1 4.6 8 10.4 1.4 4.3 2.8 6.1 8.6 10.8 8.3 6.9 13.6 13.6 18.1 23.1 2.7 5.8 3.3 8.5 3.6 15.2.7 14.9-4.2 26.1-16.9 38.5L412 384h100V0H0zm287.4-23.4c2.8 2.7 3.8 5.4 3.1 8.4-.8 3.6-5.8 8-9.1 8-3.8 0-7.4-4.2-7.4-8.5 0-7 9-12.3 13.4-7.9M229 172c1.4 1.4 2 3.3 2 6.4 0 3.7-.5 4.8-3.1 7-3.4 2.9-5 3.2-8.2 1.4-3.4-1.8-4.6-3.9-4.7-8.1 0-7.3 9.1-11.6 14-6.7m114.3 1c5.2 4.1 4 12.3-2.4 15.6-8.2 4.2-15.2-6.8-9.1-14.2 3.2-3.9 7.7-4.4 11.5-1.4m-172.2 5.7c1.6 1 3.2 2.6 3.6 3.8 3.6 11.1-9.9 17.7-15.2 7.4-2.1-3.9-.5-9.3 3.3-11.4 3.5-1.9 4.8-1.8 8.3.2m223.8 7.8c1.7 2 3.1 4.7 3.1 6 0 3.2-6.3 9.5-9.5 9.5-3.7 0-8.5-4.8-9.2-9.2-.5-3.2-.1-4.1 2.5-6.8 4.4-4.3 9-4.2 13.1.5M120.6 189c6.8 2.6 8.7 10.8 3.6 15.9-2.4 2.5-3.3 2.7-7.2 2.2-3.6-.5-4.9-1.2-6.7-3.9-1.2-1.8-2-3.9-1.8-4.5.2-.7.6-2.5.9-4 .4-1.6 2-3.6 3.9-4.7 3.7-2.3 3.7-2.3 7.3-1M435 202.5c3.9 2 6.4 6.9 5.6 10.8-.8 4.2-3.2 6.5-7.8 7.8-5.7 1.5-10.8-1.2-12.7-6.7-1.3-3.8-1.3-4.4.5-7.5 3.3-5.7 8.8-7.3 14.4-4.4m-350.1 10c1.6 1.4 3.3 3.5 3.6 4.6.9 2.7-1.2 8.6-3.8 10.4-4.7 3.3-13.5.6-16.1-5-4.4-9.3 8-16.9 16.3-10m376.3 15.2c6.1 5.8 4.2 14.9-3.8 18.5-4.1 1.7-5.2 1.9-8.6.9-7.3-2.2-10.2-11.8-5.3-17.4 5.4-6.1 12.6-6.9 17.7-2m-393.6 6.9c5.8 2.8 7.8 8.8 4.9 14.4-1.9 3.7-4.3 5-9.4 5-6 0-8.8-1.5-11.1-6-1.9-3.7-2-4.5-.8-7.7 2.5-6.9 9.1-9.2 16.4-5.7m381.3 18.6c3 1.8 6.1 7.7 6.1 11.3 0 5.2-2.5 9.2-7 11.5-7.3 3.7-14.7.4-17.5-7.9-2-6.1-1.3-9.3 3.3-13.7 3.3-3.2 3.8-3.4 8.5-2.9 2.7.4 5.7 1.1 6.6 1.7m-366.5 5.2c7.1 3 9.7 10.7 5.6 17.3-2.4 4.1-6.7 6.3-12.1 6.3-5.7 0-10.9-5-10.9-10.7 0-4.8 4-11 8.3-12.8 4.1-1.8 5-1.8 9.1-.1"/><path d="M225.5 261c-16.2 2.1-23.2 3.4-37.3 7.1-18.6 4.8-43 14.6-47.7 19-.5.5-.9 4-1 7.7 0 8.3-2.3 13.4-7 15.6-4.7 2.3-8.5 2-12.8-.9l-3.7-2.6-2.3 2.5c-4.2 4.5-8.8 14.9-9.9 22.4-2.6 16.8 5.5 33.9 22.9 48l5.2 4.2h245.8l3.9-2.8c6.4-4.7 15.4-14.3 18.8-20.2 5.2-9 6.6-13.7 6.6-23 0-9.5-1.4-14.2-6.9-23.5l-3.6-5.9-4.5.2c-8 .5-12-3.5-14.9-14.4-1-3.6-1.8-4.5-8.3-8.2-22.3-12.7-49.5-20.9-81.8-24.7-13.2-1.6-50.6-1.8-61.5-.5m90.3 43.5c4.6 5.2 5.3 15.3 1.5 21.2-2.1 3.2-7.9 6.3-11.7 6.3-4 0-9.3-3.4-12.4-8-2-3-2.3-4.4-2-10.2.4-7.7 2.5-10.9 9.3-13.8 3.6-1.5 4.4-1.6 8.2-.3 2.3.8 5.5 3 7.1 4.8M212.2 302c10.5 3 11.8 21.8 2 28.5-8.8 6-19.2-.3-19.2-11.6 0-6.2 4.1-14.2 8.3-16.3 3.8-1.9 4.1-1.9 8.9-.6m61 8.9c5.9 2.3 10.8 6.8 10.8 10.1 0 3.1-4.6 7.6-10.2 10-11 4.7-32.2 3.7-41.2-2-10-6.4-6.1-15.4 8.4-19.5 8-2.2 24.7-1.5 32.2 1.4"/></svg>