<svg xmlns="http://www.w3.org/2000/svg" width="682.667" height="512" version="1.0" viewBox="0 0 512 384"><path d="M0 192v192h512V0H0zM228.3 82c.4 1.5 1.4 2 4.2 2 3.4 0 3.7.2 3 2.2-2.1 6.9-2 7.1 1.6 6.3 2.2-.4 4.8-2.2 7.4-5 4.8-5.3 7.7-6.5 16-6.5 5.7 0 7.4.5 17.4 5.6 6 3.2 10.8 6.1 10.5 6.5-.9 1.4-8.9 1-12.9-.6-2-.9-4.5-1.3-5.6-1-1.7.6-2 1.4-1.7 5.3l.3 4.6 6.5 1.6c7.6 1.9 12.3 4.2 14.2 6.8.7 1 2.7 2.2 4.3 2.6 4.6 1 8.5 2.8 8.5 3.7 0 .5.7.9 1.5.9s1.5.5 1.5 1.1c0 .7-1.2.8-3.2.4l-3.3-.6 3.3 2c3.6 2.3 4.2 3.6 1.2 2.6-1.4-.4-2-.2-2 .8 0 2-2.2 2.7-6.4 2-2.9-.5-3.6-.2-3.6 1.1 0 2.2-2.1 2.9-5.3 1.7-2.7-1-3.9.2-1.4 1.3.6.3-.7.4-3.1.1-3.2-.4-4.2-.2-3.6.6.4.8.3.9-.5.5-.7-.4-1.8-.5-2.6-.2-1.3.4-1.1 1.6.9 6.8 1.2 3.5 2.8 6.3 3.4 6.3s2.4-1.9 4.1-4.2c3.2-4.4 9.4-7.4 11.3-5.5.5.5 1.3 4.3 1.6 8.3l.7 7.4 13.5.5c11.8.4 13.5.7 13.8 2.2.3 1.6-.5 1.8-6.5 1.9h-6.8l5.4 2c3 1 5.6 2.1 5.8 2.3.9.9-1.1 3.6-2.8 3.6-1 0-1.9.5-1.9 1.1s1.1.8 2.8.5c17.2-3.5 28.4-4.8 37.7-4.2 5.5.3 10.1 1 10.3 1.6.2.5 1 1 1.8 1 .7 0 1.1.6.8 1.4-.5 1.3.2 2.1 5.4 6.6.9.8 2.5 1.4 3.5 1.2.9-.2 1.7.1 1.7.7s.7 1.1 1.6 1.1c.8 0 1.2.4.9 1-.4.6.8 1 2.7 1.1l3.3.1-2.7 1c-3.1 1.1-3.6 3.5-1.2 5.3 1.5 1 1.5 1.3-.1 2.8-1 1-1.2 1.7-.4 1.7.9 0 .8.4-.1 1.5-.9 1-.9 1.5-.1 1.5.6 0 1.1.5 1.1 1.1s-.7.8-1.6.5c-1.2-.4-1.5-.2-1 .9.3.8.1 1.5-.5 1.5s-.7.5-.4 1c.9 1.4-.5 1.2-3.5-.5-2.9-1.7-5.4-1.9-4.5-.5s-1.8 3.9-5.6 5.2l-3.2 1.1 2.4 1.4 2.4 1.4-2.7-.6c-1.7-.3-2.8-.1-2.8.5s-1.8.1-4-1c-5.6-2.8-7.2-2.5-2.7.6 5.8 3.9 3.8 3.9-2.7 0-5.9-3.5-12.7-5.4-29.8-8.1-11.5-1.8-18.2-4.1-25.4-8.9-4.2-2.9-5.9-3.4-8.7-2.9l-3.4.5 2.1 7.9c2.3 8.8 1.8 11.2-2.7 11.7-1.8.2-2.9-.3-3.8-1.9-1.1-2.2-1.2-2.2-2.5.9-1.4 3.4-3.4 4.1-5.3 1.8-.6-.7-1.3-4.2-1.4-7.7l-.4-6.4-4.4-.8c-2.5-.4-7.1-.3-10.5.3-13.2 2.2-19.4.9-18.1-4 .6-2.2-1-3.9-3.8-3.9-1.1 0-7.1-.5-13.3-1.2-9.4-1-11.5-1-12.2.1-.4.7-.6 1.9-.3 2.7.7 1.9-11.2.9-26.7-2.3-9.6-1.9-11.7-2.1-13-1-.8.7-2.1 1.1-2.9.8s-1.1 0-.7.7c.4.6.4 1.1 0 1.1-1.3 0-4.4-3.3-4.4-4.6 0-1.5-1.6-2-9.4-2.9-6.4-.7-10.6-3.7-10.6-7.5 0-1.8.6-2 5.8-2 3.1 0 12.9.9 21.7 1.9 8.8 1.1 25.8 2.7 37.9 3.7l21.8 1.7 3.4-3.9c1.9-2.1 4.6-6.1 6-8.9 1.5-2.7 3.6-6.1 4.7-7.7 1.7-2.3 1.8-3 .7-4.3-.8-.9-2.1-5.1-2.9-9.3-1.6-7.5-1.7-7.6-5.1-8.3-3.3-.7-7-3.9-7-6.1 0-.6 1.4-2.3 3.1-3.9 4.9-4.6 9.9-3.5 9.9 2.2 0 1.5 1.1 4.7 2.5 7 1.9 3.4 2.5 3.9 2.5 2.2 0-1.2.5-2.5 1.1-2.8 3.5-2.2 2.3-10.1-1.4-8.9-2.3.7-6.7-3.8-6.7-6.9 0-1.2-.5-1.7-1.4-1.4-.7.3-2.3-.1-3.5-.9-1.1-.8-5.1-3-8.8-4.9-7.8-4-9.7-5.3-10.6-7.8-1.1-2.8.2-4.7 2.9-4.2 7.6 1.6 8 1.6 6.3.3-1.9-1.5-4.9-7.1-4.9-9.1 0-3.6 5.4-5.1 6.3-1.7M334 128.4c0 .3-.4.8-1 1.1-.5.3-1 .1-1-.4 0-.6.5-1.1 1-1.1.6 0 1 .2 1 .4m66 18.6c0 .5-.5 1-1.1 1-.5 0-.7-.5-.4-1 .3-.6.8-1 1.1-1 .2 0 .4.4.4 1m-184.9 71.3c-1 .9-1.1.8-.5-.6.3-1 .9-1.5 1.2-1.2s0 1.1-.7 1.8M325 236c0 .5-.4 1-1 1-.5 0-1-.5-1-1 0-.6.5-1 1-1 .6 0 1 .4 1 1"/><path d="M253 149.5c-.6 1.9-2.8 5.9-4.7 8.8-3.6 5.2-6.3 10.7-6.3 12.7 0 .5 1 1 2.3 1 2.6 0 16.7-13.7 16.7-16.1 0-2-4.3-9.2-5.7-9.6-.6-.2-1.6 1.2-2.3 3.2m41.5 6.3c-1.1 1.2-.4 2.1 2.6 3.1 3.5 1.2 13.7 1.5 12.5.4-1-1-14.4-4.1-15.1-3.5"/></svg>