<svg xmlns="http://www.w3.org/2000/svg" width="682.667" height="512" version="1.0" viewBox="0 0 512 384"><path d="M0 192v192h92v-3.3c0-4.4 4.6-14.8 7.6-17 1.4-1 4.4-2 6.8-2.2 3.8-.4 4.8 0 7.5 2.6 5 4.8 5.9 9.5 3.5 18.1-.5 1.7 6.5 1.8 137.1 1.8h137.6l-.7-2.3c-.8-2.4-.7-8.6.2-12.8.9-4.6 8.5-9.9 14.1-9.9 4.6 0 9.9 3 10.7 6.2.4 1.3 1.2 3.9 1.8 6 1 3.5.8 4.8-1.7 11.1-.7 1.6 2 1.7 47.4 1.7H512V0H0zm292 22.6c1.9 5.7-2.2 11.4-8.2 11.4-4 0-6.8-3.2-6.8-7.8 0-4.5.6-5.4 4.9-8 3.3-2 3.6-2 6.3-.4 1.5.9 3.3 3 3.8 4.8m-65.2-3c1.8 1.2 2.2 2.5 2.2 6.4 0 4.1-.4 5.2-2.6 6.9-3.5 2.8-6.9 2.6-9.9-.4-7.2-7.1 2.1-18.7 10.3-12.9m124.3 5.3c3.5 3.6 3.8 7.7.8 11.5-2.9 3.7-6.1 4.8-9.9 3.5-3.7-1.3-5-3.6-5-8.7 0-3.3.6-4.5 3.1-6.6 4-3.4 7.4-3.3 11 .3m-186.2 2.6c3.3 1.6 4.1 3.3 4.1 8 0 7.1-8.5 10.1-13.7 4.9-2.2-2.2-2.5-3.2-2-6.7.9-6.8 5.6-9.3 11.6-6.2m243.7 8.8c2 1.8 2.8 3.5 3.1 7.3.5 4.6.3 5.3-2.2 7.2-3.1 2.5-9.1 2.9-11.9.9-2-1.5-3.9-9-3-11.9.7-2.4 6.1-5.8 9.1-5.8 1.2 0 3.4 1 4.9 2.3m-295.1 6.4c3.6 4 3.5 9.5-.4 13.4-3.6 3.6-7 3.7-11 .4-3.8-3.3-4.5-5.6-3.1-10 2.3-6.8 9.8-8.8 14.5-3.8m342.4 19.7c1 .9 2.4 3.4 3.1 5.5 1.7 5.4-.4 9.3-6.4 11.6-4.8 1.8-6.8 1.3-11.3-2.8-2.5-2.3-3.2-9.2-1.3-12.8 2.5-4.5 11.6-5.4 15.9-1.5m-387.8 2.2c1.7.8 3.6 2.9 4.3 4.6 1.7 4 .5 10.7-2.4 13-6.8 5.5-18.4-2.9-15.9-11.5 2-7 7.6-9.4 14-6.1M480 283.5c6.1 3.2 8.1 13 3.5 17.9-8.7 9.4-22.6 3.4-21.2-9.1.9-7.9 10.3-12.6 17.7-8.8m-428.7 8.3c6.5 6.2.1 20.2-9.4 20.2-1.4 0-4.1-1-6-2.3-3.2-2.2-3.4-2.6-3.4-8 .1-11.9 10.7-17.6 18.8-9.9M274 304c23.8 3.1 45 13.6 49.6 24.7 7 16.4-12.5 32.4-46 37.8-17.3 2.8-44.4 1.4-59.6-3-13-3.9-27.1-12.9-30.5-19.5-7.5-14.5 5.2-28.8 32.3-36.5 4.8-1.4 11.9-2.9 15.7-3.4 9.7-1.2 29.5-1.2 38.5-.1m194.4 16.1c4.9 1.4 7.7 4.4 9.5 10.3 1.2 4.1 1.1 5.2-.4 9.1-2.3 6.1-5.6 8.5-11.6 8.5-8.9 0-13.6-7-12.7-19 .4-5 .9-6.7 2.7-8.1 2.6-2.1 6.8-2.4 12.5-.8M64 329.5c1.5 4 .2 11.1-2.7 14.6-9.1 10.8-25 5.6-22.1-7.3 2.1-9.6 6.8-14.7 14.3-15.8 3.6-.4 4.3-.2 6.7 2.6 1.5 1.7 3.2 4.4 3.8 5.9"/><path d="M250.2 329c-2.8 1.2-3.8 3.6-2.3 5.4 3.4 4 16 2 16.1-2.6 0-1.3-5.8-3.8-8.7-3.7-1.5 0-3.8.4-5.1.9"/></svg>