<svg xmlns="http://www.w3.org/2000/svg" width="682.667" height="512" version="1.0" viewBox="0 0 512 384"><path d="M0 192v192h114l-1.9-4.8c-4.2-10.5-3.3-21.1 2.6-31.1 3.4-5.8 13.4-15.7 21.3-21.1 17.6-11.9 51.7-23.4 79.1-26.6l5.7-.6.6-4.7c1.5-10.8 7.9-19.1 18.5-23.8 4.4-2 6.6-2.4 10.3-2 6 .7 14.9 4.9 18.8 8.9 3.6 3.5 8 11.8 8 14.8 0 4.7 1.5 5.7 9.7 6.5 4.3.4 13.9 1.8 21.3 3.1 45.8 8.4 78.6 26.5 89.4 49.4 2.7 5.7 3.1 7.5 3 15 0 6.8-.5 9.4-2.2 12.7L396 384h116V0H0z"/><path d="M276.3 313.7c-.4 1-1.8 3.5-3.1 5.6l-2.5 3.8 2.1 2.9c2.8 3.7 4.8 11.3 5.7 21.5.6 7 .4 8.3-1.2 10.1-2.7 3.1-11.9 6.5-19.4 7.1-8.6.7-19.8-2.4-24.1-6.8-2.9-2.8-2.9-3.1-2.3-9.7.4-3.7 1.6-10.1 2.6-14.2l1.9-7.4-4.2-4.1c-2.4-2.2-5.2-5.3-6.4-7l-2.1-3-11.4 2.8c-32.5 7.9-53.3 22.7-57 40.4-1.7 8.5 1 16.8 7.8 24.4l3.5 3.9h178.7l3.8-5.3c6-8.2 6.8-10.4 6.8-18.1 0-5.9-.5-8.1-3-13-3-5.9-10.9-13.8-19-18.8-9.8-6.1-28.2-12.5-44-15.4-10.4-1.8-12.4-1.8-13.2.3"/></svg>