<svg xmlns="http://www.w3.org/2000/svg" width="682.667" height="512" version="1.0" viewBox="0 0 512 384"><path d="M0 192v192h512V0H0zM226.7 83c.4 1.6 1.4 2 4.5 2 4.3 0 4.3 0 2.2 6.9-.7 2.3-.6 2.4 3.2 1.7 2.8-.5 5-1.9 8-5.1 5-5.4 7.7-6.5 15.5-6.5 5.2 0 7.2.6 15.2 4.8 5.1 2.7 10.3 5.1 11.7 5.5 1.8.5 2.2.9 1.3 1.8-.7.7-3.2.9-6.9.5-13.8-1.4-12.9-1.7-13.2 3.5l-.3 4.7 5.3 1.2c7.3 1.7 11.4 3.5 15 6.5 1.9 1.6 4.2 2.5 6.4 2.5 2.1 0 3.3.4 2.9 1-.3.5.2 1 1.2 1 1.9.1 5.3 2.2 5.3 3.4 0 .3-1 .6-2.2.6-2.1.1-2 .2.7 1.7l3 1.7-3 .7c-1.6.4-2.6.7-2.1.8.5 0 .3.7-.3 1.5q-1.2 1.5-4.5.9c-2.7-.4-3.6-.1-4.9 1.7-1.3 1.9-2.2 2.2-5.3 1.7-3.4-.6-3.5-.5-1.8.9 1.8 1.4 1.6 1.5-2 1-2.4-.3-4.6-.1-5.5.7-.8.7-1.2.7-.8.1.3-.6 0-1.1-.7-1.1-1.2 0-1.1.9.1 5.1 2.9 9.6 4 10.5 7.1 5.2 2.2-3.8 5.3-6 9.4-7 3.1-.7 3.2-.4 4.3 9.8.3 3.3.8 6.2 1.1 6.5s6.2.7 13.2.9c11.7.4 14.1 1 14.2 3.4 0 .3-2.8.4-6.2.2-6.7-.4-6.7-.1-.1 1.6 3.5.9 4 1.4 3.6 3.1-.4 1.4-1.2 1.9-2.4 1.6-1.4-.4-1.9 0-1.9 1.4 0 2.3-.7 2.3 12.1 0 5.7-1 16.8-2.2 24.7-2.6 13.7-.6 14.2-.6 14.2 1.3 0 1.6.5 1.9 2.3 1.5 1.6-.3 1.8-.2.9.5-1.9 1.3-1.2 4.2 1.3 5.6 1 .6 2.5 1.6 3.2 2.3 1 .9 2.1.9 3.9.3 1.7-.7 2.3-.7 1.9 0-.9 1.5 1.4 4 3.6 4 1.1 0 1.9.4 1.9 1 0 .5-.7 1-1.5 1-2 0-1.9 3.7.1 4.8 1.4.8 1.5 1.1.1 2.3-1.3 1.2-1.2 1.5.2 2.6s1.3 1.2-.9.8l-2.5-.4 2.4 1.9 2.3 2H385c-1.9 0-2 .2-1 1.5 1.1 1.3 1 1.4-.4.9-.9-.3-1.6-.1-1.6.4 0 .7-1.3.6-3.5-.4-4.1-1.7-4.8-1.7-4-.4.3.6-.1 1.3-.9 1.6-.9.3-1.4 1-1.1 1.4s-.9 1.3-2.5 2c-2.3.9-2.8 1.6-2 2.5 1.3 1.6-5.1 1.3-9.4-.4-4.2-1.7-4.3-.7-.1 1.9 2 1.2 3.4 2.5 3.1 2.7-.3.3-3.2-1.1-6.4-3.1-6.1-3.7-10.4-4.8-30.7-8.1-10.2-1.6-20-5.3-26-10-2.5-1.9-3.8-2.2-6.6-1.6-1.9.4-3.3 1.1-3.2 1.6.1.6 1 4 1.9 7.8 1.5 6.2 1.5 6.9 0 9.2-2.1 3.1-3.1 3.1-6.1.1l-2.5-2.5-.6 2.4c-.9 3.8-3.2 5.2-5.1 3.2-1.2-1.1-1.7-3.6-1.8-8.4l-.1-6.8-2.8.3c-1.6.2-3.2-.1-3.6-.8-.5-.8-2.4-.8-7.1-.1-8.6 1.4-17.2 1.4-18.7-.1-.7-.7-1.2-2.5-1.2-4 0-1.6-.6-3.1-1.2-3.3-2.5-1-37-3-37.4-2.3-.3.5 1.7.8 4.4.8 4.6 0 5 .2 5 2.5 0 2.1-.5 2.5-2.8 2.5-4.1 0-19.5-2.8-27.9-5.1-6.4-1.7-7.6-1.8-9-.6-.9.8-2.2 1.2-3 .9s-1.1 0-.7.7c.9 1.4 0 1.4-2.5.1-1-.6-1.9-1.9-1.9-3 0-2-1.2-2.4-10.8-3.5-5.5-.7-9.2-3.8-9.2-7.6 0-1.6.8-1.9 4.8-1.9 2.6 0 8.5.5 13.2 1 19.2 2.3 36.4 3.9 52.4 5.1l16.8 1.3 3.5-4c1.9-2.1 4.9-6.6 6.6-9.8 1.8-3.2 3.7-6.8 4.4-7.9.9-1.6.8-2.3-.2-3.3-.7-.7-1.8-4.4-2.5-8.1-1.4-7.5-2.4-9.3-5-9.3-2.3 0-7-3.8-7-5.7 0-2.3 4.2-6.8 6.8-7.1 3.4-.5 6.2 2.5 6.2 6.4 0 1.8.5 3.6 1.1 3.9.5.4 1.5 1.9 2.1 3.3 1 2.4 1.2 2.5 1.6.7.2-1.1 1-2.7 1.7-3.5 1.7-2 2.1-4 1.1-6.8-.5-1.7-1.3-2.1-2.9-1.7s-3-.2-5.1-2.4c-1.5-1.6-2.5-3.4-2.2-4 .4-.6 0-1.1-.8-1.1s-3.4-1.3-5.8-2.9c-2.4-1.5-5.9-3.3-7.8-4-5-1.6-10.2-6.6-9.8-9.4.3-2.3 1.3-2.5 7.1-1.3l2.9.6-2.5-3c-3.6-4.3-4.2-6.8-2.1-9.1 2.2-2.4 3.5-2.4 4.1.1M325 236c0 .5-.5 1-1.1 1-.5 0-.7-.5-.4-1 .3-.6.8-1 1.1-1 .2 0 .4.4.4 1M88 271c0 .5-.5 1-1.1 1-.5 0-.7-.5-.4-1 .3-.6.8-1 1.1-1 .2 0 .4.4.4 1"/><path d="M251.8 152.7c-1.5 3.2-4.3 8.3-6.3 11.3-4 6.2-4.3 8-1.6 8 2.5 0 13.7-9.4 15.7-13.1 1.4-2.7 1.3-3.2-1.2-7.4-1.4-2.5-2.9-4.5-3.3-4.5-.3 0-1.9 2.6-3.3 5.7m41.7 5.3c-1.4 2.3 9.7 4.5 16.5 3.2l4.5-.8-9-1.7c-10.5-2-11.2-2-12-.7"/></svg>