<svg xmlns="http://www.w3.org/2000/svg" width="682.667" height="512" version="1.0" viewBox="0 0 512 384"><path d="M0 192v192h38.5l2.5-4.8c3.2-6 8.2-12.5 14-18 2.5-2.3 5.4-5.1 6.6-6.2 1.1-1.1 2.3-1.8 2.7-1.4.7.7-1.4 4.2-6 10.1-1.8 2.3-3.3 4.8-3.3 5.6s-.7 1.7-1.5 2.1c-.8.3-1.5 1.1-1.5 1.9 0 1.8-2.3 6.7-3.2 6.7-.5 0-.8.9-.8 2 0 2 .7 2 73.5 2H195l-1-2.6c-3.2-8.3 1.1-16.1 13.2-23.7 1.5-.9 6.7-3 11.5-4.7l8.8-2.9.2-11.3c.4-17.4 2.3-49.4 3.5-57.8.6-4.1 1.9-9.2 3-11.3 1.1-2.2 1.8-4 1.6-4.1-.2-.2-1.9-.9-3.7-1.6-9.5-3.8-14.3-11.6-14.9-24.2-.4-7.7-.2-9.2 2.1-14.2 7.4-16 25.1-23.6 41.1-17.5 20 7.7 24.7 30.1 9.7 46.3q-4.65 4.95-3.3 5.4c3.1 1 8.1 6.5 10 11 2.7 6.2 4.1 21.5 4.9 53.2.3 13.5 1 25 1.5 25.6.5.7 3 1.7 5.6 2.4 11.2 2.8 23.4 10.6 26.8 17.2 1.7 3.2 2.1 9.1 1 12.5l-.7 2.3h73.5c52.7 0 73.6-.3 73.6-1.1 0-.6-.8-2.3-1.8-3.7-1.1-1.5-3.4-5.5-5.2-9-1.8-3.4-3.6-6.2-4.1-6.2-.4 0-1.1-1.6-1.5-3.5-.4-2.3-1.2-3.5-2.3-3.5-1.4 0-1.4-.2-.1-1q1.5-.9 1.8 0c.2.6.8.8 1.3.4.5-.3.9.2.9 1 0 .9.7 1.6 1.5 1.6.9 0 2 1 2.5 2.2.5 1.3.9 2 .9 1.6.1-1 4.1 2.4 4.1 3.4 0 .4 1.6 3.2 3.5 6.2s3.5 6.1 3.5 6.8.7 2.1 1.4 3c1.2 1.6 3.5 1.8 22 1.8H512V0H0zm443.5 159.1c1.1 1.6.1 1.9-1.3.3-.7-.8-.8-1.4-.3-1.4s1.3.5 1.6 1.1"/></svg>