<svg xmlns="http://www.w3.org/2000/svg" width="682.667" height="512" version="1.0" viewBox="0 0 512 384"><path d="M0 192v192h171v-2.2c0-7.5 10.2-18.2 23.2-24.6 7.8-3.8 21.6-8.3 30.1-9.8l3.7-.6v-13.9c0-25.8 2.5-55.3 5.5-64.5.5-1.7.1-2.3-2.4-3.4-4.6-1.9-11.6-10.1-13.1-15.4-1.7-6-.9-19 1.4-23.5 2.8-5.3 9.6-12 15.1-14.9 4.4-2.4 6.2-2.7 14.5-2.7 8.4 0 10.1.3 14.5 2.7 6.2 3.3 11.9 9 14 14.2 3.7 8.8 1.2 21.3-5.8 29.2l-3.8 4.4 3.7 3.2c7.6 6.7 9.2 15.1 10 54.3.3 14.3.7 27 1 28.2.3 1.7 1.5 2.4 6.2 3.3 16.7 3.3 32.8 10.6 41.3 18.7 6.1 5.8 8.9 10.4 8.9 14.7v2.6h173V0H0z"/></svg>