<svg xmlns="http://www.w3.org/2000/svg" width="682.667" height="512" version="1.0" viewBox="0 0 512 384"><path d="M0 192v192h512V0H0zM274 87.5c3.1 1.9 7.8 4.3 10.5 5.5 3.8 1.6 4.6 2.3 3.5 3-2.2 1.4-7.6 1.2-11.7-.5-1.9-.8-4.6-1.5-6-1.5-2.3 0-2.4.3-2.1 5.2l.3 5.1 6 1.7c6.9 2 11.6 4.2 13.5 6.4.7.9 3 1.9 5.1 2.2 2.2.4 3.9 1.1 3.9 1.6 0 .6.9.8 2 .5s2-.1 2 .4.7.9 1.5.9c2.4 0 1.7 2-.7 2.1h-2.3l2.3 1.1c2.5 1.2 2.9 2.8.8 2.8-.7 0-1.6.9-1.9 1.9-.3 1.5-1.2 1.9-3.3 1.6-3.8-.5-7.4.4-7.4 1.9-.1 2.7-1.6 3.6-4.9 2.6-2.9-.8-3.1-.7-2 .7 1.2 1.4.9 1.5-2.6.9-6.4-1-7.2.2-5.2 6.8 2 6.3 3.9 7.1 6.2 2.7 2-4 6.2-7.1 9.5-7.1 2.5 0 2.8.4 3.4 4.6.3 2.6.6 6.1.6 7.9 0 4.2 1.1 4.5 16.3 4.5 6.4 0 11.7.2 11.7.4s.3 1.1.6 2c.5 1.3-.1 1.6-2.7 1.7-2.4.1-2.7.3-1.1.6 2.4.5 2.6 1.1 1.3 3.2-.8 1.2-2.6 1.1-12.2-.3-14.6-2.3-15.1-2.3-15.6-1-.7 2.1 6 3.9 14.4 3.9 7.1 0 8.3.2 8.7 1.9.2 1 .8 1.6 1.3 1.3s7.7-1.8 16.1-3.2c12.9-2.3 16.8-2.6 24.8-2 7.7.6 9.4 1 9 2.1q-.6 1.5 1.2 1.2c1.2-.2 1.6.3 1.4 1.9s.5 2.6 2.7 3.8c1.7.8 3.1 2 3.1 2.5 0 .6 1.1.8 2.5.4 1.5-.4 2.5-.2 2.5.5 0 .6.8 1.1 1.8 1.1 1.3 0 1.4.2.4.9-1 .6-.8 1 1 1.5 1.4.4 1.8.9 1.1 1.3-1.9.7-1.6 3.4.5 4.9 1.6 1.3 1.6 1.5-.3 3-1.5 1.3-1.6 1.5-.3 1.1 1.2-.4 1.5-.2 1.1.9-.3.7-1 1.4-1.5 1.4-.6 0-.5.6.2 1.5 1 1.3.9 1.5-1.1 1.5-2.2 0-2.2.1-.4 1.3 1.7 1.3 1.7 1.4-.5 2-1.3.3-3.5 0-5-.8-2.5-1.3-2.8-1.3-3.3.3-.2 1-2.1 2.6-4.1 3.6-3.7 1.8-4.5 3-2.3 4 .6.4.2.4-1 .2s-2.4.1-2.5.6c-.2.6-2.1.2-4.6-1.1-5.7-2.9-6.2-2.6-2.2 1l3.5 3-6.5-3.4c-6.5-3.5-14.7-5.7-29.3-7.7-9-1.3-17.2-3.9-23.1-7.4-3.6-2.1-13.3-3.9-13.7-2.6-.1.3.4 3 1.1 6 1.5 6.8 1.1 11-1.3 12.4-1.5.9-2.2.6-4.2-1.6l-2.3-2.7-1.1 2.9c-1.2 3.6-4.5 4-6.2.9-.6-1.2-.9-4.4-.7-7.1.3-2.9.1-5.1-.6-5.6-.6-.4-8.1-.7-16.6-.7h-15.5l-.3-3.7c-.2-2.4-.9-3.9-2-4.2-2.8-.9-36.3-2.9-36.9-2.2-1.3 1.3.1 1.7 9.1 2.5.5.1.3.7-.3 1.4-.6.8-.7 1.7-.3 2.2 1.5 1.6-12.7-.6-25.1-4l-12.9-3.4-2.2 2.4c-2.1 2.2-2.4 2.3-4.4.9-1.2-.8-2.2-2.2-2.2-3 0-1.8-4-3.4-8.8-3.4-4.6 0-7.9-1.7-10.6-5.3-1.5-2.1-1.7-3-.8-3.9 1.2-1.2 5.4-.9 44.1 3.1 10.1 1.1 24.1 2.3 31.1 2.7l12.7.7 3.5-4.4c5.5-6.9 12-19.6 10.4-20.2-.8-.3-1.9-3.5-2.6-7.6-.7-3.8-1.6-7.4-1.9-8-.4-.5-2.4-1.6-4.6-2.3-2.9-.9-4.2-2.1-5-4.2-.9-2.5-.6-3.1 2.3-5.7 1.8-1.6 4.1-2.9 5.2-2.9 2.3 0 5 3.6 5 6.7 0 2.1 3.7 10.3 4.7 10.3.2 0 .1-.5-.2-1-.4-.6.3-2.6 1.5-4.5 2.8-4.6 2-9.8-1.4-8.9-2.2.5-7.1-3.5-7.1-5.9 0-.7-.3-1.3-.7-1.5-6.1-2.6-19-9.6-21.1-11.6-3.3-3.1-3.8-8.1-.7-7.2 1.1.3 3 .9 4.2 1.2 2.1.6 2 .5-.6-2.6-3-3.6-3.1-6.7-.3-8.4 1.4-.8 2-.8 2.7.4.6.9 2.1 1.4 4 1.2 4-.5 6.3 1.3 5 3.8-.6 1-1 2.6-1 3.6 0 1.4.7 1.6 4.2 1 2.3-.4 4.7-1.5 5.4-2.4 5.2-7.5 9.7-9.5 19.3-8.7 5 .5 7.8 1.4 12.1 4m-57.8 130.7c-.7.7-1.2.8-1.2.2s.3-1.4.7-1.7c.3-.4.9-.5 1.2-.2.2.3-.1 1.1-.7 1.7"/><path d="M252.4 152.6c-.9 2.5-3 6.3-4.5 8.3-1.5 2.1-3.4 5.2-4.3 6.9-3.5 6.8-1.1 6.9 7.7.2 3.7-2.8 7.3-6.3 8.1-7.8 1.3-2.5 1.2-3.1-1.1-7.5-1.5-2.6-3-4.7-3.4-4.7s-1.5 2.1-2.5 4.6"/></svg>