<svg xmlns="http://www.w3.org/2000/svg" width="682.667" height="512" version="1.0" viewBox="0 0 512 384"><path d="M0 192v192h149.7l1.4-4.2c.9-2.9 3.6-6.5 8.4-11.3 8.1-8.1 19.4-14.5 34.5-19.4 8.8-2.9 27-7.1 30.9-7.1 1.4 0 1.6-1.6 1.6-12.3.1-19.5 4.1-56.4 6.6-59.3 1.4-1.7.5-3-3.4-4.9-9.3-4.4-15.1-25.4-9.7-35 1.1-2 2-4.1 2-4.8 0-2.3 4.9-8.1 8.8-10.4 9.8-6 23.6-6.8 34.2-2 6.4 2.9 9.3 6 11.9 12.5 4.5 11.4 3.5 20.5-3.6 30.3l-3.5 4.9 3.7 4.4c5.9 7.3 8.6 23.4 10.1 60.7l.7 15.7 7.3 1.2c32.4 5.2 58.4 19 67.1 35.7l2.8 5.3H512V0H0z"/><path d="M218.8 368.6c-6.5 3.5-10.7 8-12.3 13.1-.6 2.3-.5 2.3 9.4 2.3H226v-9.5c0-5.2-.1-9.5-.2-9.5-.2 0-3.3 1.7-7 3.6m65.2 2.8c0 3.5.3 7.8.6 9.5l.7 3.1h9.3c9 0 9.4-.1 9.4-2.2 0-4.4-7.8-11.7-16.2-15.3L284 365z"/></svg>