<svg xmlns="http://www.w3.org/2000/svg" width="682.667" height="512" version="1.0" viewBox="0 0 512 384"><path d="M0 192v192h127.9l2.6-5.2c9.8-19.7 45.4-37.8 84.1-42.9l9.2-1.2.7-4.3c.3-2.4.2-5.1-.3-6-.5-1-.4-4.3.4-8.7 2.4-13.2 4.7-28.1 5.5-35.4.4-4 1.3-8.9 1.9-11 1.2-3.4 1.1-3.7-1.4-5.6-1.5-1.1-4-4.5-5.6-7.7-2.5-5-2.9-7-3-14.6-.1-5.7.4-10.4 1.3-13.1.9-2.2 1.4-4.3 1.1-4.5-.9-1 1.9-6.8 4-8.2 1.3-.8 6.7-2.7 12.2-4.1 11-3.1 16.2-2.9 23.1.4 2.3 1.2 5.1 2.1 6.2 2.1 2.8 0 8.2 5.7 7.9 8.3-.3 2.7 1.9 13.6 3.2 15.9 1.5 2.7 1.2 6.7-.8 9.6-1 1.5-2.9 4.9-4.2 7.6-1.8 3.9-2.1 5.2-1.2 6.5.7.9 1.5 2.3 1.8 3.1s1.3 3 2.1 4.8c.8 1.9 1.9 6.4 2.4 10 .6 3.7 1.9 11.9 3 18.2s2.3 17.1 2.7 24l.7 12.5 10.5 1.6c39.3 6.2 72.2 23.4 81.6 42.6l2.6 5.3H512V0H0z"/><path d="M220.5 353.5c-.5.1-3.7 1.1-7 2.1-16.4 4.8-31 16-34 26.1l-.6 2.3h42.8l1.2-11.3c.6-6.1 1.4-13.1 1.8-15.5.5-4.2-.3-5-4.2-3.7m66.2.2c-.3.5.2 7.4 1.1 15.6l1.6 14.7h41.8l-.7-2.8c-2.4-9.9-16.3-20.4-34.9-26.1-7.5-2.3-8.3-2.4-8.9-1.4"/></svg>