<svg xmlns="http://www.w3.org/2000/svg" width="682.667" height="512" version="1.0" viewBox="0 0 512 384"><path d="M0 192v192h117.5l2.8-5.3c7.8-15 27.7-28.6 55.4-37.6 10.8-3.6 31-8.2 42.4-9.6l4.7-.6.5-7.2c.6-8.9 3.2-27.8 5.2-37.6.8-4 1.5-8.8 1.5-10.6 0-1.9.5-3.7 1-4 .6-.3 1-1.7 1-3s.5-2.7 1-3c.6-.4-.2-1.8-1.7-3.4-1.6-1.5-3.4-4.1-4.2-5.7-.7-1.6-1.8-3.8-2.4-4.9s-1.3-5.9-1.5-10.6c-.3-6.5-.1-9.3 1.2-11.7 1.1-2.2 1.4-4.4.9-7.7-.8-6.1.2-6.8 11.5-9.1 1.3-.3 4.9-1.1 8-1.9 7-1.9 11.6-1.8 16.7.1 2.2.8 6.2 2.2 8.9 2.9 2.7.8 5.5 2 6.3 2.8 1.6 1.6 3.6 8 2.2 7.2-1.4-.9-1.1 2.4 1.1 10 2.6 9 2.6 13.7 0 16-1.1 1-2 2.5-2 3.3 0 .9-.5 2.9-1.1 4.6-.9 2.6-.7 3.9 1.4 8.6 1.4 3 2.8 7.7 3.2 10.5.6 4.9 2.9 16.9 6.6 35.7 1.5 7.2 1.7 10.3.9 11.7-1.2 2.3-1.4 7.1-.2 7.1.4 0 6.1.9 12.7 2 26.9 4.3 49.3 12.3 67.3 23.7 8.1 5.2 18.4 15.8 21.3 22l2.4 5.2 59.8.1H512V0H0z"/><path d="M213.3 349c-21.4 5.6-39.6 17-45.7 28.8-3.3 6.5-4.4 6.2 25.3 6.2h26.9l.6-3.3c.3-1.7 1-7.6 1.6-12.9.5-5.4 1.4-11.7 2-14 1.8-7.8 1.6-7.9-10.7-4.8m74.2.8c-.4 1.5 0 7.6.9 13.7.9 6 1.8 13.1 2.2 15.7l.5 4.8h27c14.8 0 26.9-.2 26.9-.5s-1.1-2.8-2.5-5.6c-6.9-13.5-25.6-24.5-51.6-30.3-2.3-.5-2.8-.2-3.4 2.2"/></svg>