<svg xmlns="http://www.w3.org/2000/svg" width="682.667" height="512" version="1.0" viewBox="0 0 512 384"><path d="M0 192v192h97.7l2.7-4.9c12.7-23.5 53.4-44.2 101.1-51.6 6.1-.9 12.6-2 14.5-2.4 3.6-.7 3.7-.9 6-11.6.8-4.2 2.9-13.4 5.7-25 1-3.9 2.1-10.2 2.5-14 .9-8.3 1.2-9.7 2.1-11.2.4-.6 0-2.4-.8-3.9-.8-1.6-1.5-4.2-1.5-5.7s-.6-3-1.4-3.3c-.7-.3-1.3-1.7-1.3-3.2s-.3-5.6-.6-9.2c-.3-4.5-.1-7.3.9-9.2 1.9-3.7-.1-8.1-2.1-4.8-1.3 2-3.6-1.7-2.6-4.2 1.3-3.4 3.6-5 8.4-5.9 9.5-1.8 14.1-3 14.6-3.8.4-.5 2.5-1.4 4.8-2 4.3-1.2 5.2-1 13.6 2.7 2.3 1.1 6.7 2.3 9.7 2.6 3 .4 6 1.2 6.7 1.8s1.3 3.1 1.3 5.5c0 4-.2 4.4-1.5 3.3-.9-.7-1.8-1-2.2-.7-.7.8 3.2 13.8 5.4 18.3 2.1 4.2 1.1 8.8-1.8 8.1-1.4-.4-1.9-.1-1.6.7.3.7.2 3.1-.3 5.4-.5 2.8-.3 5 .6 6.7.7 1.4.9 2.5.3 2.5s-.6.7.1 1.9c.5 1.1 1 4.1 1 6.7s.7 7.3 1.5 10.3c1.3 5.1 2.4 9.7 8.1 33.8.9 4 1.9 7.3 2.3 7.3 2.3 0 29.8 5.1 35.1 6.5 18.5 4.7 35.5 11 47.5 17.6 14.4 7.8 28.3 20.3 33.3 29.6l2.7 5.3H512V0H0z"/><path d="M205.8 338.5c-24.8 5.6-47.6 16.8-58.5 28.9-4.2 4.7-10.3 14.1-10.3 15.9 0 1.1 79.5.4 79.6-.8.2-4 1.9-13.3 3.6-20.4 1.9-7.9 2.3-12.8 1.5-19.6-.2-1.7-.5-3.8-.5-4.8-.2-2.2-2.1-2.1-15.4.8m85.7 4.2c-.4 3.7-1 7.6-1.4 8.7-.5 1.1.2 6.2 1.5 12 1.2 5.6 2.6 12.3 3.1 15.1l.8 5 38.8.3 38.8.2-.7-2.2c-2.2-6.9-10.3-16.4-20.1-23.5-11.6-8.3-30.8-16.1-49.6-20.2-5.3-1.2-9.8-2.1-10.1-2.1-.2 0-.7 3-1.1 6.7"/></svg>