<svg xmlns="http://www.w3.org/2000/svg" width="682.667" height="512" version="1.0" viewBox="0 0 512 384"><path d="M0 192v192h42c28.8 0 42-.3 42-1.1 0-2.3 8.2-12.9 14.9-19.1 7-6.5 22.7-16.7 29.2-19 1.9-.6 4.5-1.7 5.9-2.5 1.4-.7 3-1.3 3.7-1.3.6 0 4.7-1.4 9-3.1 4.3-1.8 9.2-3.2 10.8-3.3 1.7-.1 3.2-.4 3.5-.7 1-1.1 6.2-2 5.5-.9-.3.5-1.5 1-2.6 1-1 0-1.9.4-1.9 1 0 .5-.8 1-1.9 1-1 0-3.5 1.1-5.6 2.5-2 1.4-5 2.9-6.6 3.2s-2.9.9-2.9 1.4-.7.9-1.5.9-1.5.4-1.5.9-1.4 1.4-3 2.1-3 1.6-3 2.1-.5.9-1.1.9c-1.7 0-14 10.3-20.1 16.9-3.2 3.3-6.4 7.7-7.2 9.6s-2 3.5-2.5 3.5c-.6 0-1.1.9-1.1 2 0 2 .7 2 54 2h54l.5-2.2c1.5-6.7 3.6-15.2 5.6-22.3 2.5-9.1 2.6-10.3.9-16.5-.6-2.5-.9-6.7-.6-9.3.3-2.7.1-5.6-.5-6.6-.8-1.2-.6-3.4 1.1-8.6 1.2-3.9 2.9-9.9 3.7-13.5s2.4-10.3 3.5-15c1.8-7.7 3.3-16.5 4.2-24.5.2-1.7.8-4.2 1.4-5.6 1.9-4.7 1.9-11.1 0-10.4-1.8.7-2.4-19.5-.8-22.6 1-1.7.9-2.4-.4-3.7-1.4-1.4-1.7-1.4-3.6.8s-2.1 2.3-4 .5c-1.1-1-2-2.8-2-4 0-4.4 2.1-5.6 12.5-7.1 11.8-1.7 12.5-1.9 12.5-3.7 0-1.9 8.1-4 11.8-3.1 1.5.4 3.4 1.2 4.2 1.9 2.4 1.9 7 3.3 14.3 4.4 3.8.5 7.5 1.5 8.3 2.2 2.1 1.7 1.5 9.5-.6 9.2-.8-.1-2.4-.3-3.5-.5-2.3-.3-2.3-.1.2 9.2 1 3.6 2.9 7.9 4.1 9.5 2.9 3.7 2.6 7.1-.6 6.7-2.1-.2-2.3.1-1.7 2.8.4 1.7 1 9 1.4 16.3.8 13.7 4.1 28.5 10.9 49 2.8 8.6 2.8 8.9 1.1 11.1-1.5 1.9-1.7 3.7-1.5 9.1.3 4-.2 8.7-1 11.6-1.3 4.4-1.3 5.4 1.2 14.6 1.4 5.4 3.1 12.2 3.6 15l1 5.3h53.9c49.7 0 56.4-.3 53-2.4-.5-.4-1.9-2.6-3-4.9-2.6-5.4-13.4-16.7-22.2-23.5-6.4-4.9-13.5-9.2-15.1-9.2-.5 0-1.7-.8-2.7-1.7-3.5-3.2-5.1-4.3-5.8-4.3-1.4 0-6.3-1.9-6.3-2.4 0-.4 1.6-.6 3.6-.6 2.1 0 3.3.4 2.9 1-.3.5-.3 1 .2 1.1 6.3.6 22.9 6.5 30.6 11 3.8 2.1 7.1 3.9 7.4 3.9 1.9 0 12.5 8.8 24 19.9.8.8 2.8 3.8 4.5 6.7l3 5.4H512V0H0zm171.3 139.7c-.7.2-1.9.2-2.5 0-.7-.3-.2-.5 1.2-.5s1.9.2 1.3.5m177.4 2.9c-.3.3-1.2.4-1.9.1-.8-.3-.5-.6.6-.6 1.1-.1 1.7.2 1.3.5"/></svg>