<svg xmlns="http://www.w3.org/2000/svg" width="682.667" height="512" version="1.0" viewBox="0 0 512 384"><path d="M0 192v192h210l.6-2.8c.6-3 1.8-7.1 6.4-22 2.7-8.7 3-10.5 1.8-11.9-.9-1.1-1.3-4.5-1.2-10.5 0-4.8-.4-8.8-.9-8.8-1.2 0 .1-6.9 2.5-13.8 1.2-3.1 2.4-7.3 2.8-9.2s2-8 3.5-13.5c2.7-10 5.9-29.5 5-30.4-.3-.2.4-1.4 1.6-2.7 2.3-2.5 2.9-8.2.9-9.4-.7-.4-1-1.5-.7-2.4.4-.9.3-2.6-.2-3.9-.4-1.2-.5-3.3-.1-4.7s.2-3.5-.3-4.8c-.8-1.7-.6-3.1.6-5.6 2.4-5.1-1.1-7.7-4.8-3.6-3.3 3.6-6.6 1.7-6.7-4-.1-4.3 2.1-5.6 12.7-7 11.3-1.4 12.5-1.8 12.5-3.6 0-3.5 13.4-4.8 16.4-1.6 1.9 2.2 6.5 3.6 15.9 5 7.9 1.2 9.7 2.4 9.7 6.2 0 5.9-2.5 7.7-6 4.5-1.5-1.3-1.9-1.3-2.9-.2-.8 1.1-.8 2.2.3 4.8.8 1.9 1.7 5.5 2.1 8.2s1.5 5.3 2.5 6c2.1 1.5 4.4 5.7 3.5 6.5-.3.3-1.5 0-2.7-.7-2-1.2-2.1-1.2-1.4 2.1 1.5 6.6 2.2 13.7 1.5 13.2-.7-.4-.6 2.9.6 15.6.4 4.8 4 18.1 9.9 36.9 3.6 11.4 3.6 11.4 1.7 13.5-1.7 1.8-1.9 2.7-1.1 6 .5 2.4.5 5.8-.1 8.5-2.4 11.6-2.5 10.8 5.7 38.8.3 1 22.2 1.3 105.4 1.3h105V0H0z"/></svg>