<svg xmlns="http://www.w3.org/2000/svg" width="682.667" height="512" version="1.0" viewBox="0 0 512 384"><path d="M0 192v192h207.5l5.7-17.6c5.2-16.2 5.5-17.8 4.2-20.2-1.6-3.1-1.8-11.9-.4-14.2.6-1 .4-2-.6-3.1-1.4-1.6-1.3-2.5.6-9.1 7.2-24.4 12-42.8 12-46.3.1-6.6 2.4-14.6 4.7-16.5 1.2-.9 2.5-3.4 2.9-5.5.6-3.3.5-3.7-.9-3.2-1.2.5-1.7 0-1.7-1.6-.2-8.5-.8-15.9-1.3-16.4-.4-.3.1-1.9.9-3.6 1.4-2.7 1.4-3.1 0-4.5-1.4-1.5-1.9-1.3-5 1.7-4 3.9-6.1 3.6-8.1-1.1-2.5-6.1.4-8.4 12.7-9.8 11.4-1.4 12.5-1.7 13-3.8 1-3.5 14.4-4.5 17.5-1.3 2.4 2.4 7.3 3.9 15.5 4.7 9.1.8 11.3 2.5 10.3 8.2-.5 3.4-1.1 4.2-2.8 4.2-1.1 0-2.8-.7-3.7-1.5-1.4-1.3-1.9-1.3-3.5-.1-1.4 1-1.7 1.7-.9 2.7.6.8 1.9 4.5 2.8 8.3 1.2 5 2.5 7.6 4.6 9.6 1.7 1.6 3 3.3 3 3.9 0 1.5-2.3 1.4-3.9-.2-1.1-1-1.3-.9-.8.4 2.6 7.7 2.9 9.8 1.9 19.8l-1.1 10.3 4 13.2c2.2 7.2 5.8 18.4 8.1 24.9l4.1 11.8-2 2.2c-1.7 1.9-1.9 3.2-1.6 8.7.4 4.8 0 7.7-1.2 10.5-1.6 4-1.6 4 3.2 19.2l4.8 15.3H512V0H0z"/></svg>