<svg xmlns="http://www.w3.org/2000/svg" width="682.667" height="512" version="1.0" viewBox="0 0 512 384"><path d="M0 192v192h512V0H0zM273.8 88.9c3.7 2.2 8.4 4.7 10.5 5.6 2 .8 3.7 2 3.7 2.5 0 1.6-9.6 1.1-13.4-.6-5.1-2.5-6.8-1.4-6.4 4.3l.3 4.6 6.5 2.2c8.7 2.9 12.7 5.1 14 7.5.7 1.3 2.1 2 4 2 1.7 0 3 .4 3 1 0 .5.7.7 1.5.4s2.2.1 3.1 1c.8.9 2 1.4 2.5 1.1.5-.4.9-.2.9.4 0 .5-.6 1.1-1.2 1.4-.9.3-.7 1 .7 2.1 2 1.5 1.9 1.5-.6 1.6-1.8 0-2.8.7-3.2 2-.4 1.5-1.4 2-4.4 2.1-3.5 0-9.3 1.7-6.6 1.8.7.1 1 .8.6 1.7-.4 1.1-1.5 1.5-3.9 1.2-2.5-.3-3.1-.1-2.3.8s.1 1-2.8.3c-2.1-.4-4.5-.6-5.5-.3-1.5.4-1.5.9.2 5.7 1 2.9 2.4 5.3 3.2 5.4.7.1 2.7-1.7 4.3-4 2.8-3.9 8.6-7 10.1-5.4.4.3 1.1 4.2 1.7 8.5l1 8 3.6.6c2 .3 8.2.6 13.9.6 5.6 0 10.2.4 10.2.9s.3 1.7.7 2.7c.4 1.2.3 1.5-.5 1-.7-.4-1.4.3-1.8 1.9-.3 1.4-.7 2.5-.8 2.5s-5.4-.7-11.7-1.6c-14.3-2.1-15.3-2.1-15.9-.9-1 1.8 9 4.4 15.7 4 5-.2 6.6 0 7 1.2.4 1 1.3 1.3 3.1.8 12.9-3.2 33.8-5.2 47.9-4.6.7.1 1 .8.6 1.7-.5 1.4-.1 1.6 2.1 1.2 2.4-.5 2.5-.4 1.2 1.1-1.7 1.9-.3 4.6 2.9 5.3 1.2.2 1.9 1.1 1.8 2.2-.1 1.2.4 1.6 1.5 1.1 1-.4 2.3-.9 3-1.2.8-.4 1 0 .5 1.3-.5 1.4-.3 1.6 1.1 1.1s1.7-.3 1.2.8c-.4 1.1.2 1.5 2.7 1.6 2.9 0 3 .1 1 .9-2.5 1-3.1 3.8-.9 4.6.8.3 1.2 1.3.9 2.5-.3 1-1 1.6-1.7 1.2s-.6-.1.1.7c.9 1 1 1.7.2 2.7-.9.9-.8 1.3 0 1.3.7 0 .9.5.6 1-.4.6-1.1.7-1.7.4-.7-.5-.9-.1-.5.9.9 2.4-2.6 3.1-6.2 1.3-1.9-1-3.2-1.2-3.6-.6-.3.6-.1 1 .4 1 .6 0 1.1.4 1.1 1 0 .5-.5 1-1 1-.6 0-2 .9-3.2 2s-2.9 2-3.7 2c-1.1 0-1 .4.5 1.5 2.2 1.7 1.2 2-1.6.5-1.6-.9-1.8-.8-1.3.6.4 1.2-.5 1-4.6-1-5.9-3-6.8-2.2-1.5 1.2 2 1.3 3.3 2.6 3.1 2.9-.3.3-1.8-.4-3.4-1.5-7.6-5.3-12.7-6.8-36.4-10.7-5.9-1-11.7-2.7-15.3-4.5-3.3-1.7-8.3-3.2-11.8-3.6l-6.1-.7.6 2.9c1.7 7.5 1.9 12.4.7 13.9-1.8 2.2-4.5 1.9-6.3-.8l-1.5-2.2-1 2.7c-2.7 6.7-6.2 3.8-6.9-5.6-.6-6.3-.7-6.6-3.2-6.6-1.5 0-3.1-.4-3.7-.9-.5-.5-5.3-.2-11.1.7-12.2 1.8-15.3 1.1-15.3-3.7 0-3.5-1-4.3-5.9-4.7-22.3-1.8-33.6-2.3-34.4-1.5-1.2 1.2 3.1 3.1 6.8 3.1 2.8 0 3.8 1.2 2.9 3.4-.9 2.3-2.5 2.1-19-2.9-8.2-2.5-15.6-4.5-16.5-4.5-2.3 0-7 2.5-6.2 3.3.3.4.2.7-.3.7-1.6 0-5.4-3.9-5.4-5.5 0-.9-2-1.6-6.7-2-8.2-.9-9.8-1.7-11.8-5.6-3-5.8-3.5-5.7 31.5-1.8 9.6 1 25.8 2.6 36 3.4l18.5 1.5 3.5-3.9c1.9-2.1 5.4-7.3 7.8-11.6 4.2-7.4 4.3-7.8 2.9-10.9-.8-1.7-1.8-5.1-2.2-7.6-1-6.1-2-7.6-5.2-8.5-6.2-1.5-8.2-6.4-4-10.2 3.2-3 6.2-3.7 8.1-1.8.9.9 1.7 2.2 1.7 2.8.1.7.3 2.1.4 3.2s1.1 3.5 2.2 5.2l2 3.3 2.2-4.1c2.9-5.1 2.3-8.9-1.5-8.9-2.8 0-7.1-4.4-6.6-6.7.2-.8-.7-1.3-2.2-1.3-1.4 0-2.8-.4-3.1-1-.3-.5-3.2-2.2-6.3-3.7-8.1-3.8-13.2-8.1-13.2-11.1 0-2.3.3-2.4 4-1.9l4 .5-3-3c-3.6-3.5-3.6-3.9-.9-6.4 1.6-1.4 2.3-1.5 2.6-.7s2.4 1.3 5.5 1.3h5l-.7 4c-.6 3.8-.5 4 1.8 4 4.1 0 7.1-1.6 9.2-4.9 5.3-8.3 17.7-9.2 29.3-2.2M401.5 147c.3.5.1 1-.4 1-.6 0-1.1-.5-1.1-1 0-.6.2-1 .4-1 .3 0 .8.4 1.1 1"/><path d="M252.5 153.4c-1 2.6-3.5 7.2-5.6 10.2-4.7 6.6-5.9 10.4-3.4 10.4 2.4 0 13.3-8.7 15.5-12.3 2-3.3 1.7-4.4-3-10.7l-1.7-2.3z"/></svg>