<svg xmlns="http://www.w3.org/2000/svg" width="682.667" height="512" version="1.0" viewBox="0 0 512 384"><path d="M0 192v192h206.6l6.1-18.6c5.7-17.1 6-18.7 4.7-21.2-1.6-3.2-1.9-13.8-.3-14.7.7-.5.4-1.3-.7-2.6-1.6-1.8-1.5-2.7 2.8-17.1 5.5-18.6 9.4-34.6 10.8-45.3 1-6.6 1.6-8.3 3.6-9.8 2.9-2.2 3.5-8.1.8-7-1.4.5-1.5.3-.4-1.6.8-1.7.9-3 .1-4.9-.6-1.5-1.1-4.7-1.1-7.2s0-5.4-.1-6.5 0-2.6.2-3.3c.2-.8-.3-1.9-1.2-2.4-1.2-.8-2.3-.5-4.7 1.2-3.6 2.6-5.1 2-7.2-2.9-2.5-6 1-8.1 16.4-10 6.8-.8 8.2-1.3 10.1-3.7s2.8-2.7 8.8-2.8c5.5-.1 6.9.2 8.6 2.1 1.1 1.1 3.3 2.4 4.8 2.7 2.7.6 16.1 2.5 17.5 2.6.4 0 1.6.9 2.6 2.1 1.7 1.7 1.8 2.6 1 6-.8 3.1-1.5 3.9-3.3 3.9-1.3 0-2.5-.7-2.9-1.5-.7-1.9-3-1.9-4.6 0-.9 1-.9 1.9-.2 2.7.5.7 1.8 4.8 2.7 9.1 1.2 5.3 2.3 8.1 3.6 8.7 2 1.1 4.4 4.9 3.6 5.7-.3.2-1.5 0-2.6-.7-1.2-.6-2.1-.9-2.1-.8 0 .2.7 2.1 1.5 4.3 1.5 4.3 2 11.5.8 11.5-.5 0-.8 3.5-.7 7.8 0 8.2 3 19.5 11.6 44.6l4.1 11.9-2.1 1.7c-1.8 1.5-2 2.4-1.5 7.8.4 4.4.1 7.4-1.2 10.9l-1.7 4.9 5.3 16.2 5.2 16.2H512V0H0z"/></svg>