<svg xmlns="http://www.w3.org/2000/svg" width="682.667" height="512" version="1.0" viewBox="0 0 512 384"><path d="M0 192v192h205.9l1.1-4.3c.5-2.3 3.4-11.8 6.4-21 5.2-16.1 5.3-16.9 3.9-19.8-1.1-2.3-1.4-4.9-1-9.7.3-3.7.1-7.3-.5-8.2-.7-1.1-.2-4.3 2-11.5 5.6-18.4 11.2-40.3 11.2-44 0-3.3 1.4-11 2.7-14.5.3-.8.7-2.2.8-3 .2-.8.9-2.9 1.6-4.7 1-2.6 1-3.9 0-7.1-.8-2.2-1.1-5.3-.8-6.8.2-1.5 0-4-.5-5.5-.8-2.4-.5-3.5 2.1-7.4 3.6-5.3 3.6-5.5 1.4-5.5-.9 0-3.6 2.1-6 4.6-3.6 3.7-4.9 4.5-6.9 4-3.3-.9-5.1-4.8-3.6-8 1.2-2.7 7.6-5.2 15.7-6.2 6.5-.7 10.5-2.3 10.5-4 0-2 4.2-3.4 10-3.4 5.6 0 8 .7 8 2.5 0 1.3 8.8 4.5 12.7 4.5 4.2 0 11.1 2.1 12.8 4 1.2 1.4 1.4 2.6.8 5.1-1.2 4.4-3.6 5.8-6.1 3.6-1.6-1.5-5.2-2.4-5.2-1.3 0 .2.9 5.7 2 12.1 1.8 10.1 2.5 12.3 5 15.2 3.7 4.1 3.9 6.1.5 3.9-2.9-1.9-2.9-2-1.1 3.2 1.1 3.2 1.3 5.6.5 10.7-.5 3.6-.6 7.8-.3 9.3 1.5 6.2 5.6 19.8 10.4 34.6 5 15.1 5.1 15.8 3.4 17.7-1.3 1.5-1.8 3.8-1.8 10.2-.1 5.3-.6 9-1.6 10.4-1.3 1.9-.9 3.6 3.3 17 2.5 8.1 5.1 16.7 5.7 19l1.1 4.3H512V0H0z"/><path d="M234.1 247.6c0 1.1.3 1.4.6.6.3-.7.2-1.6-.1-1.9-.3-.4-.6.2-.5 1.3"/></svg>