<svg xmlns="http://www.w3.org/2000/svg" width="682.667" height="512" version="1.0" viewBox="0 0 512 384"><path d="M0 192v192l101.7-.2 101.8-.3 3.7-14.5c2-8 5.4-19.6 7.6-25.9 3.8-10.9 3.9-11.6 2.5-15-1-2.3-1.4-5.6-1.1-9.6.3-3.3 0-6.7-.5-7.7-.8-1.2-.1-4.8 2.6-14 7.4-25.2 9.9-35.5 10.6-44.3.5-4.9 1.8-11.8 3-15.3 2-5.8 2.1-7.2 1.2-17.5-.9-10.9-.9-11.2 1.6-15.4 1.4-2.4 2.3-4.6 2-4.9-.9-.9-4.1 1.7-7 5.7-3.1 4.3-6.3 5.1-9 2.1-5.2-5.8 1.5-11.6 15.7-13.7 6-.8 9.6-2.4 9.6-4.1 0-2.6 4.7-3.8 13.8-3.5 2.4.1 3.5.6 3.9 1.9.5 2 8.1 5.2 12.4 5.2 4.5 0 12.8 3.2 14.3 5.4 1.2 1.9 1.1 2.7-.1 5.9-1.7 4.2-3.6 4.7-7 1.5-2.9-2.7-5.2-1.3-3.3 2.1.6 1.2.9 2.9.6 3.9-1 3 2.1 24.5 4.3 30 2.5 6.2 2.7 7.9.8 6.4-3.6-3.1 4.2 29.6 12.8 53.3l3.4 9.4-2.2 1.8c-1.9 1.6-2.2 2.6-1.9 8.5.3 4.7-.1 7.7-1.2 9.9-2.1 4.2-2.1 3.8 1.5 14.9 1.8 5.2 4.8 15.8 6.8 23.5l3.6 14 101.8.3 101.7.2V0H0z"/></svg>