<svg xmlns="http://www.w3.org/2000/svg" width="682.667" height="512" version="1.0" viewBox="0 0 512 384"><path d="M0 192v192h200.8l2-6.7c1.1-3.8 2.9-10.9 4.1-16 1.2-5 4.3-15.6 7-23.5 4.4-13.2 4.7-14.6 3.5-17.8-1.5-4.1-1.7-11.9-.5-13.9.7-1 .4-1.9-.7-2.7-1.9-1.4-2.1-.5 6.3-30.4 4.9-17.4 5.8-21.9 6.1-30.1.1-6.5.8-10.7 1.9-12.8 2.2-4.4 3.1-13.2 2.3-22.9-.7-7.8-.6-8.6 1.7-12.3 2.8-4.4 3-4.9 1.3-4.9-.7 0-3.4 2.3-6 5.1-4.3 4.6-5.1 5.1-7.1 4.2-1.2-.6-2.8-2.2-3.6-3.5-1.1-2.2-1.1-2.9.3-5 1.8-2.7 12.3-6.8 17.6-6.8 4.4 0 7.9-1.7 9-4.4.7-1.9 1.8-2.5 5.9-3.1 5.9-.8 11 .1 11.8 2.1.8 2.1 5.9 4 12.8 4.8 7.5 1 14.1 3.8 15 6.4.8 2.7-2 8.2-4.2 8.2-.9 0-2.7-1-4-2.2-3-2.8-4.8-1.4-3.3 2.7.6 1.6.9 3.3.7 4-.8 2 2.1 23.9 3.7 28.4 1 2.7 1.6 7.5 1.6 12.6 0 6.7.8 10.9 4.4 23.6 2.5 8.5 6.1 19.9 8 25.4l3.5 10-2.2 1.8c-1.9 1.7-2.1 2.7-1.9 8.5.2 4.9-.2 7.6-1.5 10.2l-1.8 3.5 4.8 15c2.7 8.2 5.5 18.1 6.3 21.9s2.4 10 3.5 13.8l2.1 6.8H512V0H0z"/><path d="M283.6 236.3c.3 1 .9 1.5 1.2 1.2s0-1.1-.7-1.8c-1-.9-1.1-.8-.5.6"/></svg>