<svg xmlns="http://www.w3.org/2000/svg" width="682.667" height="512" version="1.0" viewBox="0 0 512 384"><path d="M.1 67.2c.1 37 .3 66.4.6 65.3.7-3 2.1-4.1 2.9-2.1.3.9-.3 4.3-1.5 7.5-1.1 3.2-2 7.1-2 8.7q.15 3.15.6.9c.3-1.1 1.2-2.9 2-4l1.5-2-.7 2C2.4 146.3 0 157.2.1 159c0 .8.6-.1 1.3-2 2.4-6.3 11.4-23.6 13.1-25 1.4-1.2 1.8-1.2 2.6.1.7 1 .8.1.4-2.8-.8-4.9.1-6.9 8.9-20 6.2-9.3 7.6-10.7 7.6-7.6 0 1 .9 4.4 2 7.6 1.9 5.8 1.9 5.9 0 11-1.9 5-1.9 5.3-.2 7.7s1.7 2.7.1 6c-.9 1.9-2.9 4-4.3 4.6-3.4 1.3-8 10.6-6.3 12.3.8.8.5 1.8-1.5 3.6-3.6 3.3-4.2 5.7-2.4 9.9 1.4 3.4 1.4 3.6-.7 5.1-1.2.8-2.7 1.5-3.4 1.5-2 0-4.6 7.1-3.5 9.5 1 2.2-1 7.5-2.8 7.5-.5 0-1.6 1.3-2.5 3-.9 1.6-3.1 4.4-5 6.2L0 200.3V384h512v-34.8l-4.2-3.7c-5.6-4.8-22.2-12.8-32.3-15.5-4.4-1.2-8.4-2.6-9-3.1-.5-.6-.8-17.8-.7-44.4.3-50.5 0-53-7.8-69-10.6-21.9-38.8-47.4-68.2-61.6-2.7-1.3-4.8-2.8-4.8-3.5 0-5.9 7.8-27.9 13.7-38.5.2-.3-4.9-.9-11.4-1.3-6.5-.3-19.6-1.1-29.2-1.6-9.6-.6-17.7-1.2-17.9-1.5-.3-.3 1.8-5.3 4.5-11.2 2.8-6 6.9-15.8 9.2-21.8 2.3-6.1 5.1-12.8 6.2-15C368.8 40.9 389 1.2 389 .7c0-.4-3.5-.7-7.9-.7h-7.9l-.6 3.2c-.3 1.8-1.5 6-2.6 9.3l-1.9 6 .6-5.5c.3-3 1.2-7 1.9-8.9.8-1.8 1.4-3.5 1.4-3.7S288.3 0 186 0H0zm31.3 6c-1 3.2-4.4 7.5-4.4 5.6 0-3 2.2-7.8 3.7-7.8 1 0 1.2.6.7 2.2"/></svg>