<svg xmlns="http://www.w3.org/2000/svg" width="682.667" height="512" version="1.0" viewBox="0 0 512 384"><path d="M0 192v192h199.8l2.1-6.2c1.1-3.5 3.2-11.1 4.5-17 1.4-6 4.6-17.2 7.2-24.9 4.5-14 4.6-14.3 3.4-20-.7-3.2-1-7.7-.7-10s.1-5-.5-5.9c-.9-1.3-.7-3.2.6-7.6 8.8-30.2 11.8-43.4 12.3-52.9.3-7.1 1.1-11.5 2.5-15 2.2-5.1 2.7-15.8 1.2-24.8-.5-3.1-.1-4.6 2.1-7.8 4.3-6.5 2.2-6.9-3.7-.7-4.3 4.5-6 5.6-7.7 5.1-3.1-.8-5.5-5.7-4-8.4 1.4-2.7 8.3-5.7 14.6-6.5 7.6-.9 11.3-2.4 12.3-4.9 1.5-3.8 13.5-5 16.9-1.6 2.8 2.8 7.7 4.7 15.2 5.9 12 1.8 15.4 4.7 12.6 10.6-1.9 4.1-4.1 4.5-7.3 1.5-2.5-2.3-5-1.7-3.8 1 .4.9.8 3.8 1 6.6.5 10.1 2.3 22.1 3.8 25.7.9 2.1 1.5 4.8 1.5 6-.1 1.7-.2 1.8-.6.5-.2-.9-.9-1.7-1.5-1.7s-.7.7-.2 1.7c.4 1 1.2 4.9 1.7 8.8 1.1 8.4 7.3 31.3 12.7 46.7l3.9 11.3-2.1 2.2c-1.8 1.9-2.1 3.4-1.9 10.3.2 6.1-.2 8.8-1.4 10.6-1.5 2.3-1.4 3.1 2.5 15.2 2.3 7 5.2 17.4 6.6 23.2s3.4 13.3 4.5 16.8l2.1 6.2H512V0H0z"/></svg>