<svg xmlns="http://www.w3.org/2000/svg" width="682.667" height="512" version="1.0" viewBox="0 0 512 384"><path d="M0 192v192h199l1.1-2.8c.6-1.5 3-10.4 5.4-19.7 2.4-9.4 5.9-22 7.9-28.1 3.5-10.7 3.6-11.4 3.2-23.3-.2-6.8-.8-12.7-1.4-13.3s-.1-3.6 1.4-8.4c2.8-8.6 10.3-36.9 11.5-43.1.4-2.2.9-7.6 1-12 .2-5.4 1-9.6 2.6-13.6 2.2-5.4 2.3-6.3 1.3-16.3-.9-10.3-.9-10.6 1.5-14.4 1.4-2.2 2.5-4.4 2.5-5 0-1.7-3.7.7-7.8 5.1-4.8 5-7.6 5.1-9.9.3-1.8-3.6-1.8-3.6 1-6 2.7-2.3 11.3-5.4 15.1-5.4 4.6 0 9.7-2.1 10.6-4.4 1.6-4.3 13.3-5.1 17.6-1.1 2.9 2.7 6.1 3.7 16.3 5.4 6.3 1 10.8 3.1 11.7 5.5.2.6-.2 2.9-1.1 4.9-1.7 4.2-4.8 5-6.5 1.7-.6-1.1-2-2-3.2-2-1.7 0-1.9.4-1.3 2.2.4 1.3.9 3.9 1 5.8 1.3 15.5 2.1 20.3 4.1 25.9 2.8 7.5 3 10.3.3 4.6l-1.8-4 .4 4c2 16.4 5.3 30.4 12.7 53l5.8 18-2 1.7c-1.9 1.5-2.1 2.6-1.8 10.6.2 7.4 0 9.3-1.4 10.9-1.7 1.9-1.6 2.4 1.8 12.9 3 9.1 7.2 24.6 12.7 46.1l1 4.3H512V0H0z"/></svg>