<svg xmlns="http://www.w3.org/2000/svg" width="682.667" height="512" version="1.0" viewBox="0 0 512 384"><path d="M0 192v192h199v-2.4c0-1.4.5-3.7 1.1-5.3.6-1.5 3.2-11.4 5.9-21.8 2.7-10.5 6.2-22.8 7.8-27.5 3.2-9.4 3.8-16.2 2.2-23.3-.7-3.3-.7-5.3.2-7.2.9-2 .8-2.8-.4-4.2-1.5-1.6-1.4-2.3.3-7.8 7.6-23.7 14.1-53.3 13.9-63.6 0-2 .9-5.7 2-8.2 1.9-4.3 2-5.4 1-15.3-1.1-10.7-1.1-10.7 1.5-14.6 1.5-2.2 2.4-4.2 2.1-4.6-1.1-1.1-5.6 2.1-8.2 5.9-3 4.4-5.6 4.6-8.6.9-5.1-6.3 1.4-10.7 19.5-13.5 3.6-.6 4.5-1.2 7-4.8 1-1.4 3-2 7.9-2.4 5.7-.5 6.8-.3 8.6 1.5 3.3 3.3 5.7 4.2 14.8 5.7 8.4 1.3 13 3.3 14 5.9.3.8-.2 3-1 5-1.7 4.1-3.9 4.6-7.2 1.5-2.5-2.3-5-1.7-3.8 1 .4.9 1.2 6.8 1.9 13.2.9 7.8 2 12.9 3.4 15.7 2.4 4.8 3 9.4.6 5.2l-1.4-2.5-.1 3.2c-.1 10.4 4.3 29.9 12.2 54.3l6 18.4-2.1 1.7c-2 1.6-2.1 2.4-1.5 9.4.5 6.9.4 8-1.6 10.7l-2.1 2.9 4 12.2c3.5 10.6 10.1 35.3 13.4 49.9l1.1 4.8H512V0H0z"/></svg>