<svg xmlns="http://www.w3.org/2000/svg" width="682.667" height="512" version="1.0" viewBox="0 0 512 384"><path d="M0 192v192h202.1l-2-2.9c-2.8-3.9-2.7-8.9.5-19.7 1.4-4.9 3.7-13.5 5-19.2 1.2-5.6 4.6-17.5 7.5-26.3l5.2-16-1.7-5.1c-1.9-5.9-2-9.1-.5-11.9.8-1.6.7-2.5-.6-3.9-1.5-1.7-1.4-2.6 1.8-13.1 6.6-22.1 12.7-50.1 12.7-58.5 0-1.2.7-2.7 1.5-3.4s1.5-2.4 1.5-3.9l-.1-2.6-1.4 2.5c-2.4 4.1-1.8-.4.6-5.2 1.4-2.7 1.8-4.9 1.4-6.7-.4-1.4-.9-6-1.1-10.1-.3-6.5-.1-7.9 2.2-11.8 1.4-2.4 2.3-4.6 2-4.9-.9-.9-6.4 3.6-8.3 6.7-2.2 3.8-4 4.4-7 2.5-3.4-2.2-4.4-5.5-2.6-8.2 1.8-2.8 9.9-5.9 17.8-6.8 7.2-.9 9.5-2 9.5-4.4 0-2.2 3.5-3.1 11.7-3.1 4.6 0 5.6.3 6 2 .6 2.2 3.8 3.3 13.7 5 12.9 2.1 16.5 5.2 13.4 11.7-1.7 3.5-4.5 4.1-6.5 1.4-1.1-1.7-1.8-1.9-3.4-1.1-1.4.8-1.7 1.5-1 2.8.5.9 1.2 6.1 1.6 11.5.5 7.4 1.3 10.8 3.1 14.3 2.6 4.9 3.2 8 1 5.1-1.4-1.8-1.4-1.8-1.8 0-.2 1 .2 4.9.9 8.8.6 3.8 1.2 8.7 1.2 10.9.1 5 4.7 22.5 11.1 41.7 2.7 8.4 5 15.7 5 16.3s-.9 1.7-2 2.4c-1.7 1-1.9 1.9-1.3 5.7.6 4.8-1.1 12.8-3.2 14.5-1 .8-.1 4.5 4.1 17.5 3 9 6.3 20.3 7.3 25.2 1 4.8 3 12.8 4.5 17.7 3.1 10.6 3.3 15 .6 19.3l-2 3.3h202V0H0z"/><path d="M254.5 383c-.3.5.3 1 1.5 1s1.8-.5 1.5-1c-.3-.6-1-1-1.5-1s-1.2.4-1.5 1"/></svg>