<svg xmlns="http://www.w3.org/2000/svg" width="682.667" height="512" version="1.0" viewBox="0 0 512 384"><path d="M0 192v192h204.8l-3.4-3.4c-4.3-4.3-4.5-8.7-.9-21 1.4-4.8 3.7-13.5 5-19.4 1.4-5.9 4.8-17.6 7.6-26.1l5.1-15.5-1.6-4.9c-1.9-5.7-2-10-.5-12.8.8-1.6.7-2.5-.7-4-1.6-1.8-1.5-2.5 2.4-15.6 5.9-19.7 9.9-36.6 10.6-45.3.4-4.1 1-7.8 1.5-8.3s.5-2.2 0-3.9c-.6-2.3-.3-4.3 1.3-8 1.2-2.8 2.1-5.5 2.1-6.2-1.4-19.1-1.3-21.7 1.3-25.6 4.4-6.6 2.1-7-3.9-.7-3 3.1-6.2 5.7-7 5.7-1.5 0-6.7-5.4-6.7-6.9 0-.5 1.1-2 2.4-3.4 2.5-2.7 9.3-5.2 17.3-6.2 8.3-1.1 9.1-1.4 9.5-3.7.2-1.8 1.2-2.4 4.7-3.1 5.6-1.1 13.1-.1 13.1 1.8 0 2 2.6 3.2 9 4 10.2 1.2 17.1 3.6 18.3 6.2 2.3 5.1-4.4 12.5-7.1 7.8-.5-.9-1.5-1.3-2.5-1-1.7.7-1.7.8.3 19.2.5 4.7 1.8 10 3 12.2 1.1 2.2 2 4.8 1.9 5.8 0 1.4-.3 1.2-1.2-.7l-1.1-2.5-.4 3.3c-.2 1.8.1 5.6.7 8.3.6 2.8 1.1 6.5 1.1 8.3 0 4.7 5.2 24.3 11.1 41.8 2.7 8 4.9 15.3 4.9 16.2 0 .8-.8 1.9-1.7 2.4-1.3.8-1.7 2.5-1.7 8.5-.1 6-.5 8.1-2.2 10.4l-2.1 2.8 4.8 14.4c2.7 7.9 6 19.2 7.3 25s3.6 14.6 5 19.5c3.6 12.1 3.5 16.6-.5 21.1l-3.1 3.5H512V0H0z"/><path d="M231.7 198.7c-.4.3-.7 1.3-.7 2.2.1 1.3.3 1.3 1.1-.2 1.1-1.9.8-3.3-.4-2M253.5 382c-1.8 2-1.7 2 2.5 2s4.3 0 2.5-2c-1-1.1-2.1-2-2.5-2s-1.5.9-2.5 2"/></svg>