<svg xmlns="http://www.w3.org/2000/svg" width="682.667" height="512" version="1.0" viewBox="0 0 512 384"><path d="M0 192v192h205.1l-3.5-3.4c-3.2-3-3.6-3.9-3.6-8.3 0-2.8 1.3-9.5 2.9-14.9 1.6-5.5 3.7-13.5 4.6-17.9s4.2-15.6 7.2-24.8c5.1-16 5.4-17 3.8-18.8-2.3-2.4-3-9.8-1.5-14.3 1.1-3.3 1-3.9-.6-5.1-1.8-1.3-1.8-1.5-.2-6.2 2-5.5 7.6-24.9 10.8-37.3 2.3-8.5 4.2-22.4 4.1-29 0-1.9.9-5.7 2-8.3 1.8-4.3 2-6.3 1.5-17.6-.5-12.4-.4-12.9 2-16.5 3.7-5.5 2.4-6.5-2.1-1.7-2.2 2.4-4.8 4.7-5.7 5.2-2.5 1.4-6.1-.7-8.3-4.7-1.7-3.3-1.7-3.5 0-5.4 2.3-2.6 10.9-5.8 17.7-6.5 8.7-1 9.8-1.4 9.8-3.4 0-1.7.9-2 8.6-2.3 7.9-.3 8.7-.1 9.4 1.7.7 1.7 2.2 2.3 9.6 3.2 9.9 1.2 17 3.7 18.4 6.2.6 1.2.2 3.1-1 5.9-1.5 3.4-2.4 4.2-4.2 4.1-6.4-.6-6.2-1.1-5.4 12.3.5 9.4 1.2 13.5 3.1 18.3 2.6 6.5 3.4 11.4.9 5.7-.8-1.7-1.5-3.2-1.7-3.2-.1 0 0 2.6.4 5.7 2.8 24.2 4.4 30.9 12.8 56.2l5.8 17.2-2.3 1.8c-2.1 1.6-2.2 2.2-1.2 5.9 1.3 5.1.4 10.2-2.4 13.7l-2.1 2.7 5.2 16.2c2.8 8.8 6 20.1 7.1 25.1 1.1 4.9 3.1 12.8 4.5 17.4 1.4 4.7 2.5 10.7 2.5 13.4 0 4.4-.4 5.4-3.6 8.3l-3.5 3.4H512V0H0z"/><path d="M231.6 198.5c-.9 2.6-.7 3.2.5 1.2.6-1 .9-2.1.6-2.3-.2-.3-.7.2-1.1 1.1M253.5 382c-1.8 2-1.7 2 2.5 2s4.3 0 2.5-2c-1-1.1-2.1-2-2.5-2s-1.5.9-2.5 2"/></svg>