<svg xmlns="http://www.w3.org/2000/svg" width="682.667" height="512" version="1.0" viewBox="0 0 512 384"><path d="M0 192v192h204.2l-3.1-3.5c-4-4.6-4.1-9.9-.5-22.1 1.4-4.9 3.7-13.7 5-19.5s4.7-17.2 7.4-25.4c4.9-14.6 4.9-14.8 3.1-17.1-2.8-3.5-3.4-8.5-1.7-13.5 1.4-3.9 1.4-4.5-.1-6.1-1.5-1.7-1.4-2.7 2-13.6 8.9-29 13.1-48.3 12.9-60.1-.1-2.5.7-6 1.9-8.3 1.8-3.6 2-5.2 1.5-17.2-.6-12.9-.6-13.3 1.9-16.6 4-5.4 2.9-5.7-2.5-.6-6.6 6.2-9.7 5.9-13.4-1.3-1.7-3.2-1.7-3.4.3-5.5 2.7-2.8 11.7-5.7 19.9-6.4 5.2-.4 6.5-.9 7.1-2.5.7-1.8 1.7-2 9.4-2.1 7.2-.1 8.7.1 9 1.5.3 1.2 2.2 1.8 7.6 2.3 9 .9 16.6 3.1 19.1 5.6 1.6 1.6 1.8 2.4.8 5.2-1.4 4.2-3.6 6.8-5.3 6.2-.7-.3-2.3 0-3.4.6-2 1-2.1 1.7-1.6 12.7.4 9.6 1 12.6 3 17.1 2.9 6.2 3.3 10.4.6 5.3l-1.8-3.5.4 5.5c.3 3 .9 7 1.4 8.9s.9 5.1.9 7c0 5.3 4.3 21.9 10.5 40.6 3 9.2 5.5 17.5 5.5 18.4 0 .8-.9 2.1-2 2.7-1.6 1.1-1.8 1.7-.8 4.4 1.5 4.2.4 11.5-2.1 15l-2.2 3 5 15.2c2.7 8.3 5.9 19.5 7 24.7s3.2 13.3 4.6 17.9c1.4 4.7 2.5 10.7 2.5 13.4 0 4.2-.5 5.4-3.4 8.3l-3.4 3.4H512V0H0z"/><path d="M231.4 197.6c-.4 1-.9 2.2-1.1 2.6-.2.5 0 .8.6.8 1.1 0 2.6-3.9 1.7-4.7-.3-.3-.9.3-1.2 1.3M253.5 382c-1.8 2-1.7 2 2.5 2s4.3 0 2.5-2c-1-1.1-2.1-2-2.5-2s-1.5.9-2.5 2"/></svg>