<svg xmlns="http://www.w3.org/2000/svg" width="682.667" height="512" version="1.0" viewBox="0 0 512 384"><path d="M0 192v192h200.1l-1.6-3c-2.1-4.1-1.9-9.1 1-19.5 1.4-5 3.6-13.7 4.9-19.5 1.4-5.8 4.7-17.3 7.4-25.7l4.9-15.1-2.8-2.5c-3.5-3.1-4.1-8.8-1.7-15 .8-2.1.8-3.4-.1-5.1-1-1.9-.9-3.4.9-8.7 4.6-14 12.3-42.9 13.6-51.4 2.4-14.9 2.6-16 4-16.8.8-.4 1.4-1.9 1.4-3.3 0-2.1-.3-2.4-2.2-1.8-2 .6-2 .4.7-4.2l2.8-4.8-1.1-11.9c-.6-6.5-.8-12.5-.5-13.4.5-1.3.3-1.3-1.5-.4-1.1.6-2.6 1.1-3.2 1.1-1.9 0-7.6-6.6-9.2-10.8-1.6-4-1.6-4.1 1.2-6.7 1.5-1.4 3.1-2.5 3.6-2.4.5.2 3.3-.3 6.2-.9 2.9-.7 8-1.2 11.2-1.2 3.9 0 6.2-.5 6.7-1.4.5-.8 3.7-1.5 9.1-1.9 6.8-.4 8.4-.2 9.1 1 .6 1.2 2.7 1.6 7.2 1.8 10.3.3 16.5 1.6 19.4 3.9l2.8 2.2-1.7 5c-.9 2.7-2.5 6-3.5 7.3-1.8 2.4-2 2.4-4.5.8-1.4-1-2.6-2.2-2.6-2.7 0-.6-.5-1-1.2-1s.3 1.5 2.1 3.4l3.3 3.4-2.6 2.5c-2.5 2.5-2.5 2.7-2 13.4.5 8.3 1.1 11.4 2.5 13.5 2.4 3.3 2.6 5.6.4 3.8-1.3-1.1-1.5-.8-1.5 1.6.1 1.6.5 4.9 1.1 7.4.5 2.5 1.6 8.5 2.3 13.5 1.6 10.5 5.8 26.4 12.2 45.5l4.5 13.5-2.1 1.7c-2 1.6-2 1.8-.4 5.8 2.2 5.5 1.4 11.4-2.2 15.1l-2.8 2.9 5.2 16.2c2.8 9 6.1 20.3 7.2 25.3 1.1 4.9 3.1 13 4.5 18 3 10.9 3.1 13 .5 17.8l-2 3.7h201V0H0z"/><path d="M254.5 383c-.3.5.3 1 1.5 1s1.8-.5 1.5-1c-.3-.6-1-1-1.5-1s-1.2.4-1.5 1"/></svg>