<svg xmlns="http://www.w3.org/2000/svg" width="682.667" height="512" version="1.0" viewBox="0 0 512 384"><path d="M0 192v192h99.5c54.7 0 99.5-.4 99.5-.8s-.5-1.3-1.2-2c-2-2-1.3-11.1 1.7-20.7 1.5-5 3.6-12.8 4.6-17.5s4.2-15.8 7-24.7l5.2-16.2-3.1-2.9c-2.7-2.5-3.2-3.7-3.2-7.7 0-2.5.7-6 1.6-7.7 1.4-2.7 1.4-3.2.1-4.5s-1.2-2.4.9-9.2c7.2-23.1 14.6-53.2 15.8-64.3.1-1.4 1-3.4 1.9-4.3 2.7-2.7 1.8-6.7-1-4.4-1.9 1.6-1.6.1.8-3.7 1.8-2.9 2-4.8 1.8-13.6-.4-20.6-.1-18.7-2.6-17.5-2 .9-2.8.6-5.3-1.8-1.6-1.5-4.1-5.3-5.5-8.3l-2.6-5.5 2.4-2.5c2.6-2.6 4.3-2.9 18.2-3.8 5.3-.4 9.4-1.1 10-1.8.6-.8 4.5-1.5 9.4-1.9 7.2-.5 8.4-.3 8.8 1.1.3 1.4 1.8 1.7 8.1 1.7 10.7.1 15.9.9 19 3.2l2.6 2-1.6 4.9c-2.2 6.9-5 11.2-6.8 10.6-.8-.2-2.6-1.4-3.9-2.6-2.3-2-2.3-2-1.3-.1.5 1.1 2 2.9 3.1 3.9l2.1 1.9-2.4 2.2c-2.3 2.1-2.4 2.7-2 13 .3 8.5.8 11.4 2.4 14 2.4 3.9 2.5 4.9.4 4.1-1.5-.6-1.6 0-1 5 .3 3.1 1 6.4 1.5 7.3s1.2 4.7 1.6 8.6c.9 8.9 4.1 21.4 11.2 43.4 5.4 16.5 5.5 17.4 3.8 18.7-1.6 1.2-1.7 1.8-.7 5.2.7 2.2 1.2 5.8 1.2 8.2 0 3.4-.6 4.7-3.2 7.2l-3.1 2.9 5.2 16.2c2.8 8.9 6.1 20.4 7.2 25.5 1 5.1 3.1 13.2 4.4 17.9 3.1 10.5 3.2 15.2.4 18.7l-2 2.6H512V0H0z"/></svg>