<svg xmlns="http://www.w3.org/2000/svg" width="682.667" height="512" version="1.0" viewBox="0 0 512 384"><path d="M0 192v192h199.1l-1.5-2.2c-2.4-3.3-2-7.7 1.8-21.2 1.9-6.6 4.1-15.5 5.1-19.6.9-4.1 3.9-14.4 6.7-22.8l4.9-15.2-3.5-3.4c-4.1-3.8-4.7-8-2.1-14.4 1.3-2.9 1.3-4.1.4-5.8-.9-1.8-.6-3.9 1.9-11.6 1.7-5.1 4.7-15.2 6.6-22.3 1.9-7.2 4-14.4 4.6-16 .6-1.7 1.5-6.8 2-11.3.5-4.6 1.4-9 2-9.7.7-.8.9-2.3.5-3.5-.4-1.3-.1-2.2.9-2.6 1.7-.7 2.9-3.2 2-4.5-.3-.6-1.1-.5-2 .2-2.2 1.8-1.8-.7.7-4.8 1.9-3.1 2.1-4.5 1.8-17.8-.2-8-.6-14.5-1-14.5-.3 0-1 .5-1.6 1.1-1.7 1.7-4.7-.4-8.2-5.9-1.7-2.7-3.1-5.4-3.1-6.1 0-.6-.6-2.1-1.2-3.2-1.1-1.8-1-2.3 1.4-4.2 3.4-2.8 16.7-5.1 23.8-4.1 4.2.6 5 .4 5-1 0-1.3 1.2-1.6 6.9-1.6 3.8 0 7.7-.3 8.6-.6 1.1-.5 1.8 0 2.2 1.4.4 1.8 1 2 5.3 1.5 2.6-.3 8.2-.2 12.3.2 6 .5 8.1 1.2 10.2 3.1 1.9 1.8 2.3 2.8 1.6 4.1-.4 1-1.4 3.6-2.1 5.8-2.7 8.5-5.5 10.3-9.7 6.3-1.3-1.2-2.3-1.7-2.3-1.1 0 .5 1.1 2 2.5 3.3 3 2.8 3.1 4 .7 6.1-1.6 1.4-1.8 3-1.6 12.5.2 9.2.5 11.6 2.3 14.5 2.4 3.9 2.7 5.7.7 4-2.2-1.9-2.6.9-.9 7 .9 3 2 8.5 2.5 12.4 1.2 9.4 5.8 26.6 12 45.8 4.9 15.2 5 15.8 3.3 17.7s-1.7 2.1 0 6c2.4 5.3 1.5 10.4-2.6 14.6l-3.1 3.2 5 15.3c2.8 8.5 6 19.8 7.1 25.1 1.2 5.4 3.2 13.7 4.6 18.4 2.9 10 3.2 15.5.9 18.9l-1.6 2.5H512V0H0z"/></svg>