<svg xmlns="http://www.w3.org/2000/svg" width="682.667" height="512" version="1.0" viewBox="0 0 512 384"><path d="M0 192v192h196.7l-.5-5.4c-.3-4 .3-7.9 2.3-14.8 1.5-5.1 4-14.7 5.5-21.3 1.6-6.6 4.9-18.2 7.3-25.7l4.5-13.8-3.3-2c-1.8-1.1-3.6-2.7-3.9-3.6-1.2-3.1-.6-8.5 1.3-12.3 1.7-3.3 1.8-4 .5-5.2-1.2-1.3-1-2.6 1.5-10.4 4.9-15 12.9-44.6 13.6-50.5.3-3 1.1-7.1 1.8-9 .6-1.9 1-4.2.9-5.1-.2-.9.4-2.2 1.3-2.9 1.6-1.4 2-4 .6-4-.5 0-1.2.6-1.4 1.2-.3.8-.6.5-.6-.5-.1-1.1.8-3 1.9-4.4 1.7-2.2 2-4.1 2-11.8 0-5.1-.3-12-.6-15.3-.6-5.7-.8-6.1-2.7-5.1-1.6.9-2.4.6-4.4-1.7-1.3-1.6-3.8-5.7-5.5-9.2-3.4-7.2-2.9-10.7 1.4-11.6 8.4-1.9 15.7-2.6 20.2-2.1 4 .5 5.5.3 6.5-.8 1.8-2.3 18.1-2.3 18.1-.1 0 1.2.7 1.4 3.3.8 6.2-1.4 20.1-.4 23.6 1.7 3 1.9 3.1 3 1.1 9.3-3.7 11.1-6.7 13.8-10.5 9.6-3-3.3-2.9-1.4 0 2.5 2.6 3.3 2.7 3.7 1.1 5.4-1.3 1.5-1.7 4.2-1.9 13.4-.2 10.6 0 11.8 2.1 14.6 1.2 1.6 2.2 3.5 2.2 4.1 0 1.4-1.7 1.3-2.3-.3-.2-.6-.8-.9-1.2-.5-.8.7.5 6.1 2.6 11.7.5 1.2 1.2 5.1 1.5 8.5.7 7.3 6.7 30.4 12.4 47.1 4.5 13.3 4.6 14.3 2.5 15.9-1.4 1-1.4 1.5 0 4.8.8 2.1 1.5 5.6 1.5 7.9 0 3.4-.6 4.7-3.5 7.6l-3.5 3.5 4.9 15.2c2.8 8.3 6 19.6 7.1 25.1 1.2 5.5 3.3 13.8 4.6 18.4 2.6 8.9 3.1 16 1.4 19.2-1.1 1.9.4 1.9 98.5 1.9H512V0H0z"/></svg>