<svg xmlns="http://www.w3.org/2000/svg" width="682.667" height="512" version="1.0" viewBox="0 0 512 384"><path d="M0 192v192h195.6l-.4-4c-.3-2.4.8-8.2 2.8-15.2 1.8-6.2 4.3-15.8 5.5-21.3 1.3-5.5 4.4-16.5 7-24.3 2.6-7.9 4.5-14.4 4.3-14.5-5.6-2.8-6.4-3.7-7.8-7.5-1.3-3.9-1.3-4.5.8-9.3 1.6-3.8 1.9-5.6 1.1-6.5s-.1-4.4 2.5-12.6c1.9-6.2 4.7-15.8 6.1-21.3 1.5-5.5 3.5-12.5 4.6-15.5 1-3 2.3-9 2.9-13.3.5-4.3 1.5-8.7 2.1-9.8s.8-2.7.5-3.4c-.2-.7.2-1.9 1-2.5.8-.7 1.4-1.7 1.4-2.2 0-.6-.7-.5-1.5.2-2.3 1.9-2-.5.6-4.7 1.8-2.9 2.1-5.1 2.3-15.6 0-6.7-.2-13.8-.7-15.8-.6-3.1-1.1-3.6-3.1-3.2s-2.9-.3-5.1-4.1c-3.7-6.3-6.6-14.7-6-17.2.2-1.2 1.7-2.6 3.2-3.2 4.4-1.7 16.4-2.4 21.3-1.3 3.6.8 4.6.7 5.3-.5 1-1.7 18.3-2.1 18.9-.4.2.8 2 .7 5.7-.1 7.3-1.5 19.6-.6 22.2 1.6 1 1 1.9 2.4 1.9 3.1 0 2-2.8 10.3-5.3 15.7-1.9 4.3-2.5 4.8-4.9 4.4-3.2-.4-3.4 0-1.2 3.2 1.4 1.9 1.4 2.5.3 3.1-1.4.9-2.7 9.2-2.8 18.5-.1 4.2.5 7.3 1.9 10 2.4 4.7 2.8 7.9.5 4.9-1.4-1.9-1.4-1.9-1.5.2 0 1.2.7 2.7 1.5 3.4.9.7 1.3 2 1 2.8s-.1 2 .5 2.7 1.5 5 2.1 9.6c1.3 10.3 5.2 25.4 11.7 45.7 4.5 13.8 4.8 15.4 3.4 16.8-1.3 1.4-1.3 1.9.2 5 .9 1.9 1.6 5.7 1.6 8.4 0 4.5-.3 5.2-3.9 8l-3.8 3.1 5.2 16.2c2.9 8.9 6 20 7 24.7.9 4.7 2.7 12.1 4.1 16.5 3.1 10.5 3.9 16.7 2.5 19.4l-1.2 2.1H512V0H0z"/></svg>