<svg xmlns="http://www.w3.org/2000/svg" width="682.667" height="512" version="1.0" viewBox="0 0 512 384"><path d="M0 192v192h512V0H0zM265.9 90c3.7 1 22.1 12.9 22.1 14.2 0 1.6-5.1.8-11-1.7-7.6-3.2-9-2.7-9 3.4v4.8l5.3 1.2c2.8.6 7.6 2.5 10.5 4.1 5 2.9 6.4 5.1 4.2 6.5-1.7 1.1.5 3 5 4.5 2.2.7 4.2 2.1 4.5 3s1.5 2.2 2.8 2.8c1.8.9 1.9 1.1.5 1.1-2 .1-2.4 1.6-.8 2.6 1.7 1 1.1 2.3-.8 1.8-1-.2-2.4.2-3.1 1.1-1 1.2-1.8 1.2-4.3.4-2.4-.8-3.2-.8-3.9.3-.5.8-.9.9-.9.4 0-.6-.4-.3-1 .5-.8 1.2-1.4 1.2-4.6-.4-2.9-1.3-3.5-1.4-2.5-.2s.9 1.4-.9.9c-1.1-.3-2.3-.9-2.6-1.4-1-1.7-2.2-.9-1.9 1.3 1 7.7 5.5 13.5 6.9 9 1-3.1 6.1-7.3 9.1-7.5 3.4-.2 4.2 1.8 4.4 10.5.1 6.5-.9 6 15.6 7.8 12.1 1.3 13.5 1.7 13.5 3.6 0 1.7-3.5 1.8-13.4.4-3.8-.6-7.1-.9-7.2-.7-.2.2 3.9 2 9.1 4.1l9.5 3.7 10.5-2.1c7.3-1.4 14.6-2 23.6-2 11.8 0 13 .2 12.7 1.7-.2 1.2.3 1.8 1.3 1.7 1.2-.1 1.5.4 1.1 1.8-.7 2.9 4.9 7.7 8.2 7.1 2.2-.5 2.5-.3 2 1.3-.4 1.1-.4 1.6.1 1.2.4-.4 1.4-.1 2.1.7.8.8 2.1 1.2 2.9.9.8-.4 1.5-.2 1.5.4 0 .5-1 1.2-2.2 1.5-1.9.6-2 .8-.6 2.9.8 1.3 1.3 3.2 1.1 4.3-.3 1.1-.5 3.7-.6 5.8-.1 3.1-.5 3.7-1.9 3.3-1-.2-1.8 0-1.8.5s-1.6.2-3.6-.6c-4.5-1.8-4.9-1.9-3.5-.2 1.3 1.7.4 2.8-1.7 2-1-.4-1.3-.2-.8.5.5.8-.4 1.7-2.5 2.6-3 1.2-3.1 1.4-1.3 2.5 1.6 1.1 1.4 1.2-1.4.7-2.4-.4-3.1-.2-2.6.6.4.7-.8.2-2.8-1-5.2-3.2-6.8-2.7-2.8.9 3.9 3.4 2.9 3-4.5-1.7-4-2.5-7.5-3.6-17.5-5.3-20.7-3.6-23.3-4.2-28.4-6.8-3.7-1.9-6.8-2.6-11.9-2.7l-6.9-.2.7 3.1c1.6 7.2 1.7 10.5.5 12-1.7 2.1-4 1.9-6.7-.7-1.8-1.6-2.3-1.8-2.3-.6 0 .8-.9 2.3-2.1 3.4-2 1.8-2.1 1.8-3.5-.1-.8-1.1-1.4-4.3-1.4-8.1v-6.1l-5.2-.7c-2.9-.4-9.1-.2-14.1.5-7.7 1.1-9.2 1.1-11.5-.2-1.9-1-2.7-2.3-2.7-4.1 0-3.4-.9-4.3-4.8-4.5-1.8-.1-9-.6-16.2-1.2-19.1-1.5-19-1.5-19.3 1.2-.1 1.8.8 2.8 4.8 4.8 4.4 2.2 4.8 2.6 3.5 4.2-1.2 1.7-1.7 1.6-9.2-2.1-7.7-3.9-23-9.2-26.4-9.2-.9 0-1.9.7-2.3 1.5-.3.9-1.2 1.2-2.2.8q-1.8-.75-.9.6c.5.9.2 1.2-1.1.9-1.1-.1-2.6-1.7-3.4-3.5-1.6-3.3-4.1-4.3-10.7-4.3-4 0-9.7-4.8-9.1-7.7.4-2.3 5.6-2.5 19.8-.8 9.4 1.2 18.4 2.1 55.4 5.6l10.9 1 3.9-3.8c4.7-4.6 13.4-20.3 11.8-21.3-1-.6-2.3-5-4.4-14.2-.4-1.9-1.4-2.8-3.6-3.3-3.5-.8-7-4.1-7-6.5 0-2.2 3.8-5.7 7.1-6.5 3.2-.8 4.8 1 5.6 6.1.7 4.6 5.3 11.9 5.3 8.6 0-1.1.5-2.4 1.1-2.7 3.6-2.3 2.6-10.8-1.1-9.8-2.4.6-6.3-3-6.5-5.9-.1-1.6-.9-2.4-2.6-2.7-1.3-.1-2.6-.6-2.9-1-.5-.8-3.9-2.7-10.7-6-2.4-1.1-4.3-2.4-4.3-2.9s-.8-1.2-1.8-1.5c-2.1-.5-3.4-3.8-2.2-5.7.6-1 1.8-1 4.9-.3 2.3.6 4.1.7 4.1.2s-.3-.9-.7-.9c-.5 0-1.9-1.6-3.2-3.5-1.9-2.9-2.1-3.8-1.1-5 1.6-1.9 3.9-1.9 4.6-.1.4 1 1.5 1.3 3.8.9 1.8-.3 4.3 0 5.5.6 2 1.1 2 1.4.6 3.4-.8 1.2-1.5 2.8-1.5 3.5 0 2.3 7 .5 9.3-2.5 6-7.6 13.4-10 22.6-7.3m-46.4 128.1c-1 1.5-2.5 1-1.9-.6.4-.8 1-1.2 1.5-.9s.7 1 .4 1.5M25.5 255c.3.5.1 1-.4 1-.6 0-1.1-.5-1.1-1 0-.6.2-1 .4-1 .3 0 .8.4 1.1 1M85 279.4c0 .3-.4.8-1 1.1-.5.3-1 .1-1-.4 0-.6.5-1.1 1-1.1.6 0 1 .2 1 .4"/><path d="M252.1 158.2c-1 2.5-3.8 7.3-6 10.6-4.1 5.9-5.3 10.2-2.8 10.2 1.7 0 12.5-8.7 15-12.2 1.7-2.3 1.8-3.1.8-5.5-.6-1.5-2-3.9-3.1-5.3l-1.9-2.5zm39.9 8.7c0 .8 2.1 1.6 11.8 4.6.6.3 1.2.1 1.2-.3 0-.9-9.8-5.2-11.8-5.2-.6 0-1.2.4-1.2.9"/></svg>