<svg xmlns="http://www.w3.org/2000/svg" width="682.667" height="512" version="1.0" viewBox="0 0 512 384"><path d="M0 192v192h193.7l.7-5.3c.3-3 1.9-9.6 3.5-14.8s3.6-13 4.5-17.5 3.9-15 6.6-23.5c2.8-8.5 5-15.7 5-16.1s-1.5-1.4-3.4-2.2c-6.7-2.8-8.4-9-4.3-16.1 1.8-3.1 2.1-4.5 1.3-5.7-.7-1.2.1-5.3 3.2-15.5 2.3-7.6 4.8-16.5 5.7-19.8s2.7-9.3 4.1-13.3c1.3-4 2.9-10.8 3.5-15s1.7-8.8 2.6-10.1c1.1-1.7 1.2-2.6.4-3.4-1.6-1.6-1.3-3.5.9-6.7 1.7-2.4 2.2-5.1 2.7-14.2.3-6.3.3-13.9-.1-17.1-.7-5.4-.9-5.7-3.5-5.7-2.2 0-3.1-.8-4.9-4.3-3.9-7.7-7.1-17.4-6.5-19.5.8-3.4 6.2-4.5 19-4 6.2.3 11.6.1 11.9-.3.7-1.2 17.1-1.2 17.8 0 .4.5 2.8.3 5.9-.5 2.8-.7 8.7-1.4 13-1.4 6.9 0 8.1.3 10.2 2.4 2.3 2.3 2.3 2.6 1 6.8-4.8 16-6.5 19.2-10.2 18.5-2.1-.4-2.4-.2-1.8 1.7.9 2.7.8 4.8-.4 11.6-.5 3-1 9-1 13.4-.1 6.3.3 8.5 2 11.3 1.4 2.2 2 4.4 1.7 6.5-.3 1.7.1 4.3.8 5.6.7 1.4 1.5 5.5 1.9 9.1.7 8.2 3.1 17.4 10.7 41.6 4.9 15.4 5.8 19.3 4.8 20.8-.9 1.5-.7 2.7 1.1 6.3 1.6 3.3 1.9 5.4 1.4 8.1-.6 3.5-4.6 8.5-7.5 9.5-1.2.4-.5 3.4 3.8 16.9 2.9 9 6.1 20.6 7.2 25.7s3.2 13.2 4.5 17.9c1.4 4.7 2.5 10.7 2.5 13.4v4.9h196V0H0z"/><path d="M296.2 292c0 1.4.2 1.9.5 1.2.2-.6.2-1.8 0-2.5-.3-.6-.5-.1-.5 1.3m-82.7 12c.3.5.8 1 1.1 1 .2 0 .4-.5.4-1 0-.6-.5-1-1.1-1-.5 0-.7.4-.4 1"/></svg>