<svg xmlns="http://www.w3.org/2000/svg" width="682.667" height="512" version="1.0" viewBox="0 0 512 384"><path d="M0 192v192h192.7l.7-4.3c.4-2.3 1.8-7.8 3.1-12.2s3.7-13.6 5.4-20.5c1.6-6.9 5-18.6 7.5-26 4.9-14.4 5.4-17 3.1-17-.9 0-1.2.6-.9 1.5.8 1.9-.9 1.9-4.7 0-5.4-2.9-6.4-9.3-2.3-16.2 1.9-3.4 2.3-4.7 1.4-5.8-.8-1-.5-3.1 1.4-8.7 1.3-4 3.8-12.3 5.6-18.3 1.7-6.1 4.6-15.7 6.5-21.5 1.8-5.8 3.6-13.2 4-16.5s1.4-7.3 2.2-8.8c1.3-2.6 1.3-3-.1-4-1.5-1.1-1.3-1.6 1-4.9 2.2-3.1 2.7-5.2 3.5-15 .9-10.8.5-21.4-.9-23.4-.4-.5-1.8-.9-3.1-.9-3 0-4.9-3.1-9-14.7-2.6-7.5-2.7-8.6-1.5-10.9.9-1.9 2.4-2.8 5.1-3.3 5.8-.9 15.4-.7 19.6.5 2.8.7 4.2.7 5.2-.1.8-.7 5.6-1 13.2-.9 7.1.1 12.9-.3 14.6-.9 1.6-.7 6.6-1.2 11.2-1.2 8.1 0 8.5.1 9.8 2.7 1.6 3 1.3 4.9-3 17.3-3.1 9-3.8 10-7 10-2.2 0-2.4.3-1.8 2.2 1 3 .7 9.1-.5 12.4-1.7 4.3-1.2 21 .6 24.7 2.2 4.1 5.4 17.2 5.4 21.9 0 4.9 5.6 25.8 11.8 44 4.2 12.3 4.8 14.9 3.8 16.4-1.1 1.4-.9 2.4 1 5.8 3.3 5.7 3.1 10.8-.3 14.5-3.5 3.6-7.6 5.2-6.6 2.4.4-1.3.3-1.5-.5-.8s.4 5.8 4.4 18c3.1 9.4 6.7 21.9 8 28 1.3 6 3.5 15.2 4.9 20.4 1.4 5.1 2.5 10.4 2.5 11.7v2.4h195V0H0z"/><path d="M296 291.9c0 1.7.5 3.1 1 3.1.6 0 1-1.1 1-2.4 0-1.4-.4-2.8-1-3.1-.6-.4-1 .7-1 2.4"/></svg>