<svg xmlns="http://www.w3.org/2000/svg" width="682.667" height="512" version="1.0" viewBox="0 0 512 384"><path d="M0 192v192l96.2-.2 96.2-.3 1.1-5.5c.6-3 2.1-8.4 3.3-12s3-10.6 4.1-15.6 4.5-16.8 7.5-26.1c3.1-9.3 5.6-17.5 5.6-18.1 0-.7-1.2-1.2-2.6-1.2-2.2 0-2.5.2-1.4 1.5 2.4 2.9-1.8 1.6-5.6-1.7-3.4-3-3.6-3.5-3.2-7.9.3-2.6 1.5-6 2.7-7.8 1.8-2.5 2-3.5 1.1-4.6s-.7-2.6.9-6.9c1.1-3 3.9-11.9 6.1-19.8 2.3-7.8 5.4-18.1 7-22.8s3.4-11.9 4-16 1.7-8.5 2.5-9.7c1.9-2.8 1.9-3.7 0-2.9-2.2.8-1.9-1.7.7-4.9 1.8-2.3 2.4-5.1 3.4-15.9 1.5-16.4.4-24.1-3.5-24.1-3.1 0-5-3.2-9.2-15.8l-3.3-9.7 2.2-2.2c1.9-2 3.2-2.2 11.4-2.2 5.1 0 11.3.1 13.8.2 2.5.2 8.5 0 13.4-.4 5.9-.4 9.1-.3 9.5.5.5.7 2.1.5 5.1-.6 2.5-.8 8.8-1.8 14.1-2.1 9.4-.4 9.7-.4 11.3 2 1.5 2.3 1.4 3.1-.5 10.9-3 12-5.8 17.3-9.3 17.7-2.4.3-2.7.7-2.1 2.5 1 2.9.7 9.5-.5 11.8-.6 1-1 6.5-1 12.4 0 8.5.4 11.3 1.9 14.3 2.8 5.4 5.1 13.8 5.1 18.8 0 5.8 4.7 23.9 11.6 44.2 4 12 5.2 16.8 4.5 18.1s-.3 3.1 1.6 7c2.3 4.7 2.5 5.6 1.4 9.1-.6 2.1-2.3 4.8-3.8 5.9-2.7 2.2-5.9 2.9-4.8 1.1.3-.6-.1-1-1-1q-1.65 0-1.2 1.5c3.1 7.9 11.9 37.1 13.2 43.6.9 4.6 3 13.1 4.6 18.8 1.6 5.8 2.9 11.7 2.9 13.3v2.8h195V0H0z"/><path d="M296 291.8c0 3.3 1.6 4.3 2.7 1.6.3-.8-.2-2.3-1.1-3.2-1.5-1.5-1.6-1.4-1.6 1.6m-86.5 3.1c-.3.5-.1 1.2.5 1.6.5.3 1-.1 1-.9 0-1.8-.6-2.1-1.5-.7"/></svg>