<svg xmlns="http://www.w3.org/2000/svg" width="682.667" height="512" version="1.0" viewBox="0 0 512 384"><path d="M0 192v192h96c88.5 0 96-.1 96-1.6 0-1 1.5-6.9 3.4-13.3s4-14.3 4.6-17.6c.7-3.3 3.9-14.3 7.2-24.4 3.2-10.1 5.7-19 5.4-19.7-.3-.8-1.6-1.3-3-1.2-1.5.1-2.2.7-1.9 1.5.9 2.3-2.6 1.4-5.6-1.4-2.8-2.6-3.6-5.1-3.2-10.4.1-.9 1.2-3.3 2.6-5.3 1.8-2.6 2.3-4.2 1.6-5.3-.5-1-.4-2.8.4-4.7 3.3-8 17.8-55.8 18.6-61.5.5-3.6 1.6-7.8 2.4-9.4 1.7-3.3 1.2-4.9-1.1-4-1.4.5-1.5.3-.4-1.8.7-1.3 2.1-3.5 3.1-4.9 2-3 4.3-27.2 3.1-33.5-.6-3.4-1.1-4-3.2-4-3.3 0-6.2-4.6-10-16.1-3.5-10.3-3.4-13.8.3-15 3.5-1.1 18.8-.8 23.5.5 3.3.9 4.7.9 5.7.1.9-.7 5.2-1.1 11.7-1 6.9.1 12.1-.3 15.8-1.4 7.4-2.1 19.3-2.1 21.4 0 1.9 1.9 1.9 2.3 0 9.9-.8 3.3-1.9 7.5-2.4 9.2-1.4 5.8-4.5 10.7-7.1 11.3-2.3.6-2.4.9-2.1 7.3.3 5.2.1 6.8-1.1 7.3-1.3.4-1.4 2.5-1 12.7.4 11.4.6 12.4 3 14.9 1.6 1.7 2.3 3.3 1.9 4.4-.3.9-.2 2.2.4 2.9.6.8 1.5 5.1 2 9.7 1.4 13.7 5.6 28.8 15.5 55.6 2 5.7 2.4 7.6 1.5 8.7s-.7 2.1 1 4.6c4.7 6.5 3.6 14.5-2.6 18.6-2.5 1.6-2.7 1.6-3.6 0-1.1-2.1-4.2-2.3-3.5-.3 3.2 8.3 12.2 38.5 13.7 45.8 1 5.1 3 13.3 4.4 18.2 1.4 4.8 2.6 10.1 2.6 11.7v2.9h195V0H0z"/><path d="M296 293c0 3.2 2.3 4.2 3.4 1.4.8-2.2.8-2.2-1.4-3.4-1.8-1-2-.8-2 2m-87.9 2.4c-1.1 1.3-1.1 2-.3 2.8s1.3.7 1.8-.5c1-2.7 0-4.1-1.5-2.3"/></svg>