<svg xmlns="http://www.w3.org/2000/svg" width="682.667" height="512" version="1.0" viewBox="0 0 512 384"><path d="M0 192v192h95.5c52.5 0 95.5-.2 95.5-.4 0-.3 1.5-5.6 3.4-11.8s4.2-14.9 5.1-19.3c1-4.4 4.4-16.1 7.6-26 4.2-13 5.5-18.3 4.7-19.2-.7-.9-1.6-1-2.8-.3-.9.5-2 .6-2.4.2-.4-.3-.4.1 0 1.1 1.1 3-2.5 2-6.2-1.7-2.1-2.1-3.4-4.4-3.4-6 0-3.4 2.2-8.7 4.3-10.5 1.1-.8 1.5-2.1 1.1-3.6s2.8-12.9 8.9-31.7c5.2-16.1 10-32.7 10.6-36.8.7-4.1 1.9-8.2 2.7-9.2 1.8-1.9.9-4.2-1.2-3.4-2.3.9-1.6-2 1.2-5.3 2.4-2.8 2.7-4.3 3.7-16.9.5-7.5.7-15.8.3-18.5-.6-4.2-.9-4.6-2.6-3.7-3 1.6-6.3-3.5-10.4-15.7-2-5.9-3.6-11.4-3.6-12 0-4.1 13.1-6.1 24.5-3.8 4.7 1 7.3 1.1 9.3.4 1.5-.6 6.8-.9 11.7-.8 5.7.1 11.4-.4 15.5-1.4 3.6-.9 9.7-1.7 13.6-1.7 6.3 0 7.2.2 8.3 2.3 1.4 2.5.7 6.9-3.1 19.5-2.4 7.8-4.7 11.2-7.9 11.2-1.6 0-1.9.5-1.4 2 1.3 4.1.8 10.3-1 11.6-1.6 1.2-1.7 2.5-1 13.6.6 11.3.9 12.5 3.2 15 1.4 1.5 2.3 3.3 2 4.1s-.1 1.9.4 2.4 1.6 6.1 2.4 12.4c1.9 14.7 4 22.9 11 41.9 6.6 18 7.1 20 5.7 20.9-.7.4 0 2.2 1.9 5 3.5 5.3 3.8 10.6.8 14.5-2.5 3.1-5.9 5.1-6.8 4-.8-1.2-5.1-3.6-5.1-2.9 0 .4 2.9 9.7 6.4 20.8s7.2 24 8.1 28.7 2.7 12.3 4 17 2.6 9.7 2.9 11.3l.6 2.7h194V0H0z"/><path d="M296 292.2c0 3 1.5 5.2 2.9 4.4 1.8-1.1 1.3-4.4-.9-5.6-1.7-.9-2-.8-2 1.2m-88.6 2.9c-.7.8-.8 2.2-.4 3.4.7 1.8.9 1.8 1.5.3.4-.9.5-2.5.3-3.4-.2-1.4-.5-1.5-1.4-.3"/></svg>