<svg xmlns="http://www.w3.org/2000/svg" width="682.667" height="512" version="1.0" viewBox="0 0 512 384"><path d="M0 192v192h190.6l3.3-11.2c1.9-6.2 4.2-14.9 5.2-19.3.9-4.4 4.3-15.9 7.3-25.5 5.9-18.5 6.2-19.5 4.6-20.5-1-.6-5.1 1.2-6.1 2.8-.8 1.2-4.9-.9-7.1-3.7-3.2-3.9-1.8-12.9 2.6-16.5 1-.8 1.4-2.2 1-3.5-.3-1.3 3.3-13.6 9.1-30.6 5.3-15.9 10-31.7 10.6-35.8.5-3.9 1.7-8.8 2.5-10.7 1.8-4.4 1.9-7.4.2-5.7-.7.7-1.6 1.2-2 1.2-1.6 0-.7-2.3 2-5.5 2.7-3 3-4.1 4.1-16.8.7-7.5.9-15.6.6-18.1-.6-4-1-4.4-3.3-4.3-3.6.3-6.2-3.9-10.3-16.3-4.3-13.4-3.8-15.2 4.6-16.3 3.7-.5 8.8-.3 13.5.4 4.1.7 8.6 1.1 10 1s7.2-.4 13-.6c5.8-.1 13.2-1 16.5-1.9 3.2-.9 9.4-1.6 13.7-1.6 6.8 0 7.9.3 8.8 2 1.2 2.2.7 6.7-1.2 13.5-.6 2.2-1.2 4.4-1.3 5-.6 4.7-4.9 12-7.2 12.3-2 .3-2.2.8-2 6.7.2 5.3-.1 6.6-1.7 7.8-1.8 1.3-1.8 2.3-1.2 13.8.6 11.3.9 12.6 3 14.4 2.5 2.1 3 4.1 4.6 17.5 2.1 16.8 4.8 26.5 14.4 51.4 3.6 9.2 4.4 12.2 3.5 13.3-.9 1-.8 1.7.3 3.1 5.5 6.2 6.2 13.5 1.9 18.1-2.8 3-6.1 4.1-6.1 2.1 0-.6-.8-1-1.7-1s-2.5-.8-3.5-1.7c-1.4-1.3-1.8-1.3-1.4-.2.2.8 3.2 9.7 6.5 19.9 3.4 10.2 7.3 23.9 8.7 30.5s3.3 14.9 4.4 18.5c1 3.6 2.1 7.7 2.4 9.3l.6 2.7h194V0H0z"/><path d="M296 292.4c0 3.1 2.8 5.6 4.1 3.5s1.1-2.5-1.6-4.3c-2.4-1.6-2.5-1.6-2.5.8m-89.5 3.8c-.4 1-.4 2.6 0 3.5.8 1.7.8 1.7 1.2 0 .3-.9.3-2.5 0-3.5-.4-1.6-.4-1.6-1.2 0"/></svg>