<svg xmlns="http://www.w3.org/2000/svg" width="682.667" height="512" version="1.0" viewBox="0 0 512 384"><path d="M0 192v192h190.6l1.7-6.2c1-3.5 3.5-13.1 5.7-21.3 2.1-8.3 6.1-22.1 9-30.9 4.1-12.7 4.9-16 3.8-16.7-1.8-1.2-7 0-8.4 1.9-1 1.4-1.6 1.2-4.8-2-2.5-2.5-3.6-4.5-3.6-6.6 0-3.8 2.3-9.2 4.9-11.6 1.4-1.2 1.9-2.6 1.5-4-.3-1.2.9-5.9 2.7-10.6 7.9-21.3 16.1-47.3 17.5-55.5.8-5 2.1-11.1 2.9-13.8 1.5-5.1 1.2-5.6-1.7-3-3.2 2.9-2.2-1.1 1.2-5 2.6-3 3.1-4.6 4-12.8 1.1-11.1 1.3-24 .2-25.4-.4-.6-1.8-1-3.2-1-1.8 0-3-1-4.7-4-3.3-5.7-8.6-23-7.8-25.4 1.2-4 13.7-5.3 24.9-2.7 4.2 1 6.7 1.1 8.5.4 2.8-1.1 16.5-1.3 18.1-.3.5.3 3.8-.3 7.3-1.4s9.9-2.2 14.3-2.6c7.1-.6 8.1-.5 9.7 1.3 2 2.1 1.9 6-.3 13.7-.6 2.2-1.2 4.7-1.4 5.5-1.2 7.1-3.9 11.8-7.4 13.1-2.1.8-2.3 1.3-1.7 4.9.9 5.2-.2 10-2.2 10-1.4 0-1.5 1.6-.9 13.2.6 12.3.9 13.5 3.1 15.3 2.4 2.1 2.9 3.7 4.6 17.5 2 16.8 4.6 26.4 11.9 44.4 4.1 10.3 7 18.6 6.7 19.8s.6 3.8 2.4 6.6c3.3 5.2 3.7 10 1.3 14.1-2 3.4-5.6 5.9-6.2 4.2-.2-.6-1.1-1.1-2-1.1-2.1-.1-4.5-1.9-6-4.5-2.6-4.5-.9 1.8 5.3 20.5 3.6 10.7 7.7 24.9 9.1 31.5 1.3 6.6 3.3 14.9 4.3 18.5 1.1 3.6 2.2 7.7 2.5 9.3l.6 2.7h194V0H0z"/><path d="M296 292.9c0 3.1 2.2 5.7 4 4.6s1.1-4.2-1.5-5.9c-2.5-1.6-2.5-1.6-2.5 1.3m-90.3 3.8c-1.1 1-.8 5.3.3 5.3.6 0 1-1.4 1-3 0-3.1-.2-3.5-1.3-2.3"/></svg>