<svg xmlns="http://www.w3.org/2000/svg" width="682.667" height="512" version="1.0" viewBox="0 0 512 384"><path d="M0 192v192h189.9l2.5-8.3c1.3-4.5 3.4-12.2 4.5-17.2 1.2-5 4.8-17.4 8.1-27.6 3.3-10.3 6-19 6-19.4s-.8-1.4-1.7-2.1c-1.5-1-2.3-.9-5 .7-1.8 1.1-3.8 1.7-4.4 1.3-.6-.3-1.4-.1-1.8.5-2.1 3.3-7.4-3.2-7.3-9 .1-4.3 1.4-7.3 5-11.1 1.4-1.5 2.2-3.3 1.9-4.2-.3-.8.7-4.5 2.4-8.2 9.6-21.1 18.4-48.6 20.3-63.7.9-6.4 2.1-12.7 2.7-13.8 1.1-2.1 1-2.1-1.2-.5-5 3.4-5.2 1.4-.5-4.2 3.1-3.8 3.4-4.8 4.5-15.4.7-6.2 1.1-14 .9-17.3-.3-5.5-.5-6-2.5-5.8-3.3.4-6.6-4.7-10.7-16.5-4.3-12.4-4.4-14.6-1.1-16.8 2.2-1.4 4.2-1.6 13.8-1 14.2.9 15.2.9 27 .1 6.7-.6 9.7-.4 9.7.3s2.1.4 5.7-.9c4.4-1.5 18.5-3.8 23.6-3.9.4 0 1.5.8 2.6 1.9 1.6 1.6 1.7 2.6.9 8.2-1.7 12.5-5.8 22.5-10.2 24.7-2.5 1.2-2.6 1.7-2 6.2.7 5.7-.2 11.2-1.6 9-1.6-2.6-2.3 3.7-1.8 15.7.5 11.2.6 11.6 3.4 13.8 1.8 1.4 3 3.4 3.1 5.2 2.1 28.6 3.8 36 13.6 57.3 5.8 12.7 8.1 18.9 7.4 19.7-.6.9 0 2.5 2.2 5.1 1.6 2.1 3.5 6 4.1 8.7.9 4 .8 5.2-.7 7.8-2.1 3.6-5.3 5.8-6 4.1-.2-.7-1.2-1-2.2-.7-2.2.6-6.7-3.3-7.6-6.6-.7-2.2-.5-2.3 1.9-1.7 2.2.5 2.6.3 2.6-1.7 0-1.3-1.1-3.4-2.5-4.7l-2.5-2.3v2.9c0 1.6-.4 4.5-1 6.3-.8 3.1-.1 6.2 6.1 25.3 3.9 12 8.1 27.1 9.5 33.5 2.1 10.1 3.4 15.6 6 24.5.5 1.7 6 1.8 97.5 1.8H512V0H0z"/><path d="M203.7 299.7c-1.1 1-.8 5.3.3 5.3.6 0 1-1.4 1-3 0-3.1-.2-3.5-1.3-2.3"/></svg>