<svg xmlns="http://www.w3.org/2000/svg" width="682.667" height="512" version="1.0" viewBox="0 0 512 384"><path d="M0 192v192h189.6l2.2-7.3c1.3-3.9 3.1-11 4.2-15.7 1-4.7 4.8-17.7 8.4-28.9 3.6-11.3 6.5-20.5 6.3-20.6-2.7-2.2-4.9-2.4-7.2-.9-1.5 1-3.7 1.4-5.5 1.2-1.6-.3-3-.1-3 .4 0 .4-.3.8-.7.8-1.9-.1-3.5-2-4.8-5.5-1.7-5 .1-10.5 5.1-15.6 2.1-2.1 3.1-3.9 2.6-4.3-.7-.4.1-3.3 2-7.9 14.9-35.5 19.4-49.2 20.4-62.7.4-5.2 1.3-11.5 2-13.9l1.3-4.3-2.3 2.1c-4.9 4.6-5 .9-.1-4.3 1.9-2.1 3.5-4 3.5-4.4 0-.3.7-6.5 1.6-13.6s1.3-14.9.9-17.3c-.6-3.9-.8-4.3-2.9-3.7-3.7.9-7.4-5.5-12.7-22-2.3-7-2.4-9-.5-10.9 2.5-2.5 13.5-3 23.1-1.2 6.5 1.2 9 1.3 10 .5.9-.8 5.3-1.1 12.2-.9 8 .1 12.1-.2 15.8-1.5 2.8-.9 8.8-1.9 13.5-2.3 11.1-.7 12.3.2 11.5 8.9-.3 3.3-1.2 7.3-2.1 8.9-.8 1.6-1.3 3.3-1 3.8.3.4-.1 1.7-.9 2.7s-1.5 2.6-1.5 3.5c0 2.4-3.9 6.9-5.9 6.9-1.6 0-1.8.9-1.7 7.5 0 4.1-.3 7.4-.8 7.4-2-.1-2.6 3.2-2.6 14.8 0 12.8.3 13.8 5.1 16.3 1.3.7 1.9 2.1 1.9 4.3 0 5.5 1.7 23.8 3 31.6.9 6 2.8 10.8 10.1 25.4 6.3 12.5 8.9 18.6 8.5 20.2-.4 1.5.1 2.8 1.6 4.1 2.8 2.5 5.8 9.1 5.8 12.9 0 3.7-3.4 9.5-5.5 9.5-.9 0-1.3-.4-1-1 .4-.6-.5-.7-2.4-.4-2.5.5-3.6.1-6.1-2.4-1.6-1.7-3-3.8-3-4.6 0-1.8 1.5-2.1 2.5-.6 1.1 1.8 2.5 1.1 2.5-1.3 0-1.3-1.3-3.6-3-5.2l-3-2.9-.1 5c-.1 2.7-.4 6-.8 7.4-.5 1.8 1.1 8 5.6 21.5 3.5 10.4 7.2 23 8.4 28 1.1 4.9 2.7 11.9 3.5 15.5.9 3.6 2.2 8.9 3 11.7l1.5 5.3H512V0H0z"/><path d="M202 303.5c0 1.4.5 2.5 1 2.5.6 0 1-1.1 1-2.5s-.4-2.5-1-2.5c-.5 0-1 1.1-1 2.5"/></svg>