<svg xmlns="http://www.w3.org/2000/svg" width="682.667" height="512" version="1.0" viewBox="0 0 512 384"><path d="M0 192v192h189l1.1-2.8c.6-1.5 2.8-9.5 4.9-17.7 2.1-8.3 6.5-23.2 9.8-33.2l6-18.3-3-1.5c-2.8-1.4-3.2-1.3-5.6.6-1.6 1.2-3.8 1.9-5.7 1.8-1.7-.2-3.5 0-4 .3-1.6 1-4-1.4-5.2-4.9-1.6-4.5.2-10.4 4.8-15.7 2.1-2.4 3.6-4.6 3.3-4.9s2.9-8.3 7.1-17.8c11.4-25.6 15.4-38.6 16.4-53.4.4-6.7 1.3-13 2-14.2 1.7-3.2 1.4-3.7-1.4-1.9-4.8 3.2-4.8 1.1 0-4.3 3.4-3.7 3.5-4.3 5.3-18.2 1.1-7.9 1.7-16.1 1.4-18.2-.4-3.4-.7-3.8-2.8-3.4-4.1.7-6.9-3.5-12.4-19-3.4-9.6-3.5-13.5-.3-14.7 4.1-1.6 17-1.7 23.8-.3 4.4.9 7.4 1.1 8.2.6 1.7-1.5 18-2.4 19.5-1.1 1 .8 3 .5 7.3-1 3.7-1.3 9.7-2.3 15.6-2.6 9.3-.4 9.7-.4 10.9 1.8 1.5 2.7.7 12.9-1.2 16.3-.7 1.2-1.1 2.6-1 3.1.2.4-.4 1.9-1.3 3.2-.9 1.4-1.3 2.8-1 3.3.7 1.2-5 7.1-6.9 7.1s-1.9.2-.6 5.5c1 4.4.3 11.5-1 9.5-1.8-2.9-3 3.3-3 15.3v12.5l3.5 2.6c2.5 1.9 3.5 3.5 3.5 5.4 0 5.1 1.9 26.7 2.8 32.8 1 6.4 3.3 11.3 13.9 30.6 4.5 8.3 6.2 12.4 5.8 13.8-.5 1.5.3 3.1 2.9 6 4.4 4.9 6.2 10.8 4.6 15.5-1.3 4-3.4 6-5.2 4.9-.7-.5-2.5-.7-4.1-.5-1.9.2-3.6-.6-5.7-2.7-3.7-3.7-3.9-5.5-.5-4.6 2.2.5 2.5.3 2.5-1.8 0-2.2-4.5-7.8-5.3-6.7-.2.2-.9 3.7-1.6 7.7l-1.1 7.4 6.9 21.3c3.9 11.7 7.8 25.2 8.7 30.1s2.6 12.7 3.9 17.4l2.2 8.5 97.1.3 97.2.2V0H0z"/><path d="M200.5 304c-.7 2.3.2 4.3 1.6 3.5 1.2-.8 1.2-4.2 0-5-.5-.3-1.2.4-1.6 1.5"/></svg>