<svg xmlns="http://www.w3.org/2000/svg" width="682.667" height="512" version="1.0" viewBox="0 0 512 384"><path d="M0 192v192h189l1.1-2.8c.6-1.5 2.4-8.3 4-15.2s5.9-21.7 9.5-32.8c3.6-11.2 6.4-20.5 6.2-20.6-.2-.2-1.8-.8-3.6-1.6-2.8-1.1-3.5-1-5.1.4-2.7 2.5-12.5 2.9-14.4.7-4.2-4.7-2.6-12.5 3.9-19.2 2.4-2.5 4.2-4.8 3.9-5.1-.4-.3 3.4-9.3 8.3-19.9 11.4-24.8 15.5-38.7 15.4-51.7 0-5.8.5-10.9 1.4-13.4 1.7-4.8 1.4-5.6-1.1-2.8-1 1.1-2.2 2-2.7 2-1.8 0-.6-2.9 2.7-6.4 1.9-2.1 3.7-4.7 4-5.9 1.5-7.6 3.5-28.1 3-31-.6-3.1-1.1-3.6-3.7-3.9-2.5-.2-3.6-1.2-5.9-5.4-4.2-7.4-9-22-8.3-24.9 1-3.9 4.6-4.3 29.9-3.7 12.5.4 29.5-.7 34.9-2.2 3.3-.9 9.4-1.9 13.6-2.2 7.2-.6 7.8-.5 9.8 1.6 1.2 1.3 2 3.3 1.8 4.4-.2 1.2-.7 4.1-1.1 6.6s-1.2 5.4-1.8 6.5-1 2.3-.9 2.7c.4 1.6-5.2 11.9-6.9 12.9-1.1.5-1.9.6-1.9.2s-.5-.2-1.1.4c-.7.7-.7 2.3.1 5.3 1.2 4.4.5 12.4-.9 10.2-1.7-2.9-3.1 4.3-3.1 16.3v12.3l3.5 2.2c2.9 1.8 3.5 2.8 3.5 5.3 0 4.9 1.7 27.5 2.6 33.7.8 5.8 1.1 6.5 13.6 28.3 4.9 8.6 7.7 14.5 7.3 15.6-.3 1.1.5 2.7 2.5 4.6 1.6 1.6 3.9 5.3 5 8.3l2.1 5.4-2.2 4.4c-2.1 4.5-3.9 5.7-3.9 2.7 0-1.3-.3-1.4-1.2-.5-2 2-6.7 1.4-9.3-1.3-3-2.9-3.3-4.9-.5-4 1.6.5 2 .2 2-1.7-.1-2.1-4.6-8.5-5.5-7.6-.6.6-2.7 11.9-2.8 15.3-.1 1.6 3 12.2 6.7 23.5s8.1 26.9 9.7 34.7 3.3 15.3 3.9 16.7l1 2.6h194V0H0z"/><path d="M199.5 305.2c-1 2.5-.3 3.9 1.4 2.9 1-.6 1.1-1.3.3-2.7-1-1.8-1.1-1.8-1.7-.2"/></svg>