<svg xmlns="http://www.w3.org/2000/svg" width="682.667" height="512" version="1.0" viewBox="0 0 512 384"><path d="M0 192v192h188.8l1.1-3.2c.6-1.8 2.2-8 3.5-13.8 2-8.4 13.4-45.6 16-52 .5-1.1-.5-1.8-3.4-2.8-3.5-1.1-4.4-1-6.6.5-2.8 1.8-8.9 1.9-11 .2-.8-.7-1.4-.6-1.7.3-.9 2.4-4-1.9-4-5.4 0-7.6 1.1-10.2 5.8-14.2 2.5-2.1 4.5-4.6 4.5-5.7 0-1 1-3.7 2.3-6.1 6.9-13.1 16.4-34.6 19-43.3 2.5-8.4 3-11.9 3.1-22 .1-6.6.7-13.3 1.4-14.8 1.9-4.6 1.4-5.3-1.8-2.2-4.5 4.3-3.9.8.8-4.9 3.7-4.5 3.9-5.1 5.5-17.4 2.6-19.4 2.2-25.1-1.6-23.6-1 .3-2.5 0-3.4-.7-2.5-2.1-10.4-20.1-11.8-27.1-.2-1 .4-2.7 1.4-3.9 1.5-1.9 3-2.2 11.7-2.7 5.7-.2 12.3 0 15.3.7 3.5.7 5.8.8 6.5.2 2-1.6 19.7-2.6 20.6-1.2.5 1 2.3.8 7.6-.9 3.8-1.2 10.8-2.4 15.7-2.7 7.5-.5 9-.3 10.7 1.2 2.1 1.9 2.5 7.6.9 12-.4 1.1-1.3 4-2 6.5s-1.9 5.2-2.6 6.1c-.7.8-1.3 2.2-1.3 3.1 0 1.9-4.2 5.8-6.3 5.8-2 0-2.1.7-.6 6.5 1 4.1.3 13.7-.8 10.7-.4-1-.9-.8-1.9.5s-1.3 5.3-1.3 14.8v13l3.2 2c2.3 1.5 3.3 2.9 3.5 5 .1 1.7.6 9.5 1.1 17.5 1.4 22 1.1 21.2 13.4 41.2 7.7 12.6 10.6 18.3 9.9 19-.8.8.2 2.4 3.3 5.5 6.2 6.1 8 13.4 5 19.3-1.8 3.4-4 4-3.2.9.5-1.9.4-2-1.2-.5-2.6 2.3-6.5 2-10-1-3.7-3.1-4-4.7-.6-3.8 3.7.9 3.3-2.5-.9-6.5-3.7-3.6-4.6-3-4.6 3.2-.1 1.8-.7 4.9-1.4 6.9-1.3 3.6-1.1 4.7 5.9 26 4 12.3 8 26.3 8.9 31.3s2.4 12 3.4 15.8l1.6 6.7H512V0H0z"/><path d="M197.7 307.2c-.7 2.6-.3 3.2 1.7 2.5.9-.4 1.2-1.4.9-2.6-.7-2.7-1.9-2.7-2.6.1"/></svg>