<svg xmlns="http://www.w3.org/2000/svg" width="682.667" height="512" version="1.0" viewBox="0 0 512 384"><path d="M0 192v192h94.4c89.1 0 94.5-.1 95-1.8.3-.9 1.9-7.3 3.5-14.2 2.5-10.2 13.8-46.9 16.7-54.3.6-1.7.5-1.8-1.5-.6-1.8 1.2-2.5 1.2-4.9-.1-2.5-1.5-2.9-1.4-6 .7-3.7 2.4-8.3 2.3-11.4-.5-1.6-1.4-1.8-1.3-1.8.1 0 2.4-1.5 2.1-3-.7-.8-1.5-1-3.8-.6-6.3.4-2.1.7-4.8.7-6.1.1-1.6 1.8-3.7 5.3-6.4 2.8-2.2 5.1-4.8 5.2-5.8.1-.9 2.8-6.8 6.1-13.1 8.9-16.7 13.8-28.1 16.8-39.3 2.4-8.8 2.6-11 2-19.1-.5-7.6-.3-10.1 1.2-14.7l2-5.7-3 2.5c-5.9 5-5.4 1.3.8-5.7 2.9-3.2 3.3-4.5 4.8-16 1.8-13.6 2.1-16.6 1.9-22.1-.2-3.6-.3-3.7-2.7-2.8-2 .8-2.9.6-4.5-1-1.1-1.1-2-2.5-2-3.2 0-.6-.6-1.9-1.4-2.7-2.1-2.5-7.9-18.3-7.7-21.1.2-4.4 2.2-5.3 13.4-5.8 5.9-.2 12.6 0 15.7.7 4.1.9 5.5.9 6.1 0 1.1-1.8 20-2.8 20.7-1.1.2.8 1.1 1 2.1.6 5.7-2.3 16.7-4.4 23.8-4.4 7.2 0 8.4.2 9.3 2 1.8 3.3.9 11.2-2.3 19-4 10.1-6.1 13-9.4 13-2.6 0-2.7.4-1.1 8 1.1 5.5.4 12.6-1.1 10.2-.4-.8-1.3-.2-2.4 1.7-1.4 2.3-1.5 4.6-1 15 .6 12.1.6 12.2 3.5 13.9 3.7 2.1 3.6 2 4.3 19.6.3 6 .9 14.5 1.5 18.8 1 7.9 1.1 8.1 12.5 25.5 7.7 11.6 11.4 18.1 11 19.3s.7 2.9 3.5 5.4c6.6 5.9 8.9 15.6 5 20.6l-2 2.5v-3l-.1-3-1.6 2.2c-2 3-7.1 3-10.7.2-3.1-2.4-3.4-4.3-.6-3.4 3.4 1.1 2.5-3.6-1.4-7.4l-3.5-3.4-.5 2.4c-.3 1.3-.7 4.4-1.1 6.9-.3 2.5-1.1 5.9-1.7 7.6-.9 2.6-.2 5.6 6 24.5 3.9 11.7 7.8 25.2 8.7 29.9.8 4.7 2.3 11.5 3.1 15.2l1.6 6.8H512V0H0z"/><path d="M196.7 306.7c-1.3 1.2-.7 4.3.8 4.3.8 0 1.5-.6 1.5-1.3 0-1.8-1.5-3.8-2.3-3"/></svg>