<svg xmlns="http://www.w3.org/2000/svg" width="682.667" height="512" version="1.0" viewBox="0 0 512 384"><path d="M0 192v192l94.1-.2 94.2-.3 3.2-13c1.8-7.2 6.5-22.9 10.4-34.9 3.9-12.1 7.1-22.4 7.1-23s-.8.1-1.8 1.6c-1 1.8-2.5 2.8-4 2.8-2.8 0-8.2-5.1-8.2-7.7-.1-1.7-.1-1.7-1.5.1-1.9 2.5-1.9 3.6 0 3.6.8 0 1.5.4 1.5 1 0 1.6-3.7 3-7.9 3-5.1 0-7.4-2.2-6.9-6.7.2-1.8.1-3-.3-2.5-.4.4-.9 2.2-1.1 4.1-.4 4.6-2.5 5.1-3.3.8-.4-2.1-.1-4.7.9-7.1.8-2 1.3-4.3.9-5.2-.6-1.6 3.3-6.4 5.2-6.4 1.8 0 6.6-4 6-5-.3-.4 2.7-6.4 6.6-13.2 3.9-6.7 8.8-15.7 10.9-19.8 4.3-8.6 8.6-24.1 9.5-34.5.3-3.9.8-8.4 1-10 .3-2.4.2-2.2-1 1-.9 2.7-1.4 3.3-1.6 2-.4-4.3.4-10.2 2.1-14.7l1.8-4.8-3.6 3c-2 1.6-3.8 2.7-4 2.5-.9-.9 2.1-6.6 3.9-7.6 3.2-1.7 4.8-6.2 6.9-20.4 2.8-19.4 2.6-25.7-1-23.5-.8.6-2.1 1-2.7 1-1.9 0-5.5-6.3-9.7-16.9-3.9-9.9-4.1-13.2-.7-15 3.2-1.7 19.4-2.9 26.1-1.9 4.7.7 6.5.7 7-.2 1.1-1.8 19.6-2.9 21.3-1.4.9.9 2.8.8 8.2-.6 9.1-2.4 25.7-2.7 27.5-.5 2.5 3 .8 15.4-2.7 19.6-.7.9-1 1.9-.6 2.2.3.4-.4 1.8-1.7 3.2s-2 2.5-1.5 2.5c.4 0 0 .9-1 2s-2.9 2-4.3 2c-2.2 0-2.4.3-1.8 3.7 1.5 9.4 1.8 14.2.7 15.9-.7 1.2-1 1.4-1.1.5 0-.8-.8-.3-2 1.2-1.7 2.2-2 4-2 14.4v12l4 3.2c3.2 2.5 4.1 3.9 4.1 6.4.2 15 .8 27.4 1.6 33.7l.9 7.5 12.8 16.8c8.2 10.9 12.5 17.4 12.2 18.5-.3 1.2 1.2 3 4.8 5.8 4.8 3.8 5.3 4.7 6.8 10.9 1.3 5.1 1.4 7.3.6 9.1-1.4 3-2.8 2.1-2.8-1.9l-.1-3.2-1.7 3.5c-1.5 3-2.2 3.5-5.7 3.8-3.1.2-4.7-.3-7-2.2-2.9-2.4-2.9-2.5-.7-2.6 3.2 0 2.7-2.4-1.5-7.1-4.3-4.8-4.6-4.5-5.8 6.1-.4 3.6-1.4 8.2-2.2 10.2-1.4 3.5-1.3 4.2 5.5 25 4 12 7.7 25.7 8.7 31.3.9 5.5 2.1 11.5 2.6 13.2l1.1 3.3H512V0H0z"/></svg>