<svg xmlns="http://www.w3.org/2000/svg" width="682.667" height="512" version="1.0" viewBox="0 0 512 384"><path d="M0 192v192l93.7-.2 93.6-.3 2.8-10.5c2.2-8.6 12.2-41 18.4-59.8.7-2.3 1.2-4.2 1-4.2s-1.7 2.4-3.3 5.3-3.7 5.8-4.5 6.6c-2.5 2-6.8-.6-9.3-5.8-2-4.2-2.2-4.3-3.3-2.3-1.5 2.7-1.4 3 .7 3.5 3.4.8-5.2 3.7-9.2 3-4.3-.7-6-3.2-5.3-7.7l.6-3.1-1.4 3c-.7 1.6-1.6 3.8-1.9 4.8s-1 1.5-1.6 1.2c-1.6-1-1.1-6.8 1-11 1.5-2.9 1.7-4.2.9-5.2-1.6-1.8.3-3.9 6.3-6.9 2.7-1.4 5.1-3.3 5.4-4.2.7-2.3 1.3-3.3 12.8-22.2 9-14.9 10.2-17.5 12.8-27.4 2.5-9.8 5.4-31.3 4.4-32.4-.3-.2-1.1 1.8-1.9 4.5l-1.5 4.8-.1-5.2c-.1-2.8.8-7.9 1.8-11.2l1.9-6.1-3 2.5c-6.3 5.3-6.1.8.3-6.2 2.1-2.3 4.1-5.2 4.4-6.5 1.8-7.7 4.5-28.3 4.5-34.1v-6.8l-2.6 2c-1.4 1.1-3.1 1.8-3.7 1.5-1.4-.5-7.7-12.2-7.7-14.2 0-.6-.4-1.2-1-1.2-.5 0-1-.8-1-1.9 0-1-.6-3.1-1.4-4.6-1.2-2.3-1.3-3.4-.2-5.9 1.7-4.2 7.7-5.8 22.6-6 6.3-.1 12.4-.7 13.5-1.3 1.1-.5 6-1.3 10.9-1.6 7.4-.5 9.1-.4 10.1.9 1 1.4 1.7 1.4 7.3 0 7.4-2 24.8-2.4 27.9-.8 2.8 1.5 3.6 4.2 2.3 7.7-.5 1.4-.8 3.1-.5 3.5.5.8-2.7 8-7.1 16.2-.9 1.7-2.8 3.1-4.7 3.6-3.6.9-3.9 2-2 7.6 2.3 6.9 1.7 10.9-2.2 14.9l-3.5 3.6v23.7l4.5 3.2c4 2.8 4.6 3.6 4.6 6.9 0 10.5.7 27.6 1.4 34.3l.8 7.5 14.2 16.5c11.1 12.8 14 16.8 13.2 17.8-1.2 1.5-1.2 1.5 7.3 6.2 3.7 2.1 4.5 3.1 4.7 5.5 0 1.7.8 4.8 1.7 7 1.8 4.7 2 8.1.6 9-.6.3-1.5-.6-2-2.2-2.4-6.5-2.8-7-2.7-3.1.1 5.5-1.7 7.1-7.6 6.5-2.7-.2-5.6-1.2-6.5-2.1-1.5-1.5-1.5-1.6.1-1.6.9 0 1.7-.6 1.7-1.3 0-1.5-8-10.1-8.7-9.4-.2.3-1.1 5-1.8 10.6-.8 5.6-2.2 11.5-3.1 13.2-1.5 3-1.4 3.6 4.5 21.8 6.4 19.9 8.4 27.4 10.2 38.8l1.1 7.3H512V0H0z"/></svg>