<svg xmlns="http://www.w3.org/2000/svg" width="682.667" height="512" version="1.0" viewBox="0 0 512 384"><path d="M0 192v192h186.5l2.3-8.8c1.2-4.8 6.3-21.5 11.3-37.1 4.9-15.6 8.8-28.5 8.6-28.7s-2.7 3.7-5.6 8.6c-3.5 6.1-5.8 9-7 9-3.3 0-7.1-3.9-8.2-8.6-1-3.7-1.4-4.2-2.6-3.2-.9.7-1.2 2.1-.8 3.5.3 1.5.1 2.3-.7 2.4-2.2.2-3.2.5-5.2 1.4-1.1.5-2.1.4-2.5-.2-.3-.6-1.7-1-3.1-.9-2.3.1-2.5-.3-2.4-3.9 0-2.2.4-4.9.9-6 .8-1.8.7-1.9-.8-.6-.9.7-2.2 3.1-2.8 5.2-.7 2.1-1.8 4-2.5 4.3-2.4.9-1.6-5.3 1.5-11.4 2.9-5.8 3-5.8.8-6.4-2-.5-2-.6-.2-2.6 1-1.1 4.2-3.1 7.2-4.4 3.1-1.5 5.3-3.1 5.3-4s4.4-8.2 9.8-16.4c14.9-22.4 15.9-24.1 17.7-32.2 2.4-10.8 5.4-32 4.8-33.6-1-2.6-2.3-1.4-2.9 2.6-.4 2.2-1.1 4-1.7 4-1.5 0-.1-11 2.3-17.2 1.1-2.9 2-5.4 2-5.6s-1.9 1.3-4.2 3.2c-2.3 2-4.3 3.4-4.5 3.2-1-.9 2.3-6.5 6.3-10.8 2.4-2.6 4.4-5.1 4.4-5.6 0-.4.9-5.7 2.1-11.8 1.1-6 2.2-14.7 2.5-19.3.2-4.7.7-9.4 1-10.5.6-1.8.3-1.7-2.3.6-1.6 1.6-3.4 2.8-4 2.8-2.3 0-8.5-10.2-9.8-16.1-.4-1.6-1.3-4.2-2-5.5-.7-1.4-1-3.4-.8-4.5.6-2.1 6.5-7.1 7.9-6.7.5.1 4-.4 7.7-1.1 4.2-.8 9.1-1.1 12.9-.7 4.6.6 6.4.4 7.7-.7 1-.9 5.2-1.7 11.4-2.1 8.5-.6 10.1-.5 11.1.9s1.7 1.4 7.5 0c9.1-2.4 26-1.8 29.1 1 1.7 1.5 2 2.6 1.5 5-.3 1.6-.8 4.3-1 5.8-.6 4-5.3 13.7-7 14.4-.8.3-1.3.9-1 1.3.8 1.2-3.5 3.9-5.1 3.3-1.9-.7-1.8 2.8.1 9.1 1.8 5.9 1.1 11.2-1.7 12.7-4.4 2.4-5.8 6.7-5.8 18.1V190l4.2 2.7c2.4 1.6 4.7 3.1 5.3 3.5 1.1.8 1.3 3.5 1.9 21.3.3 6 .8 14.4 1.1 18.6l.7 7.5 15.4 15.9c11.2 11.6 15.2 16.4 14.8 17.7-.4 1.4.9 2.5 6 5 6.3 3.1 9.1 6.3 6.8 7.7-.7.4-.1 2.7 1.8 6.5 3 6 3.8 9.6 2 9.6-.5 0-2.1-2.2-3.5-4.9-2.4-4.9-5.7-8.5-4.1-4.5 2 4.8 2.4 8.4 1 9.5-.8.6-2 .9-2.8.6-.7-.3-1.8-.1-2.4.5-.8.8-1.5.8-2.6-.1-.8-.7-2-1-2.6-.6-1.6 1-3.9-1.3-3.3-3.5.3-1.2-.9-3.4-3.8-6.5-5.1-5.6-5.1-5.6-6.8 9-.7 5.8-2 11.8-3.2 14.2l-2 4.2 5.5 17.1c6.3 19.3 7.9 25.4 9.6 35.7l1.2 7.3H512V0H0z"/><path d="M324.4 300.3c.3 1 .6 2.5.6 3.3s.5 1.4 1.1 1.4c1.2 0 .2-4-1.4-5.5-.7-.7-.8-.4-.3.8m-148.9 12.8c-.4.6-.5 1.2-.2 1.5.2.3.7-.2 1-1.1.7-1.7.1-2-.8-.4"/></svg>