<svg xmlns="http://www.w3.org/2000/svg" width="682.667" height="512" version="1.0" viewBox="0 0 512 384"><path d="M0 192v192h185.9l1.1-4.3c1.4-5.5 2.2-7.8 12.9-41.8 5-15.7 9.1-29 9.1-29.5 0-.4-2.7 3.7-6 9.1-7.1 11.7-8.2 12.8-11.6 11.3-3.2-1.5-5.2-4.8-6-9.7-.4-2.3-1-4.1-1.5-4.1-.9 0-2.4 4-2 5.8.3 1.8-2.7 2.6-4.4 1.2-1.2-1-1.5-.9-1.5.5 0 1-.6 1.5-1.7 1.3-1.9-.4-2.3-4.2-1-8.8l.8-2.5-1.5 2.5c-.9 1.4-1.5 3.7-1.6 5.1 0 2.5-2.1 4.5-3.4 3.2-.9-1-.7-5.9.4-9 1-2.8 1-2.8-.7-.7-1 1.2-2.6 3.6-3.5 5.3s-2.2 3.1-2.8 3.1c-2 0-1-4 2.9-11.3 3.8-7.2 3.8-7.4 1.5-6.9-5.5 1-1.2-3.8 6.9-7.8 2.9-1.4 5.1-3.1 4.9-3.8-.1-.7 3.3-6.4 7.6-12.5 17.3-24.7 18.3-26.3 21.3-37.4 1.7-5.9 2.7-11.4 2.3-12.7-.3-1.4.2-5.6 1.1-9.5 1.7-6.7 1.5-12.1-.4-12.1-.5 0-1.2 1.3-1.6 3-.4 1.6-1.1 3.3-1.7 3.6-1.7 1.1-.2-10.5 2.2-16.5 1.1-2.8 1.5-5.1 1-5.1-.6 0-1 .4-1 .9 0 1.2-5.9 5.5-6.6 4.8-1.1-1 1.7-5.7 5.4-9.2 5-4.6 5.6-6.1 8.2-21 1.2-6.6 2.4-12.3 2.7-12.8.2-.4 0-1.4-.6-2.1-.7-.8-.7-2.3-.1-4.7.6-1.8 1-5 1-6.9v-3.5l-2.5 2.8c-1.4 1.5-3.2 2.7-3.9 2.7-2.1 0-6.6-7.6-9.7-16.7-2.7-7.7-2.8-8.6-1.5-11.2.8-1.5 2.8-3.3 4.3-3.9 5.4-2.1 15.2-3.4 22.5-3 5.3.3 7.6.1 8.3-.9.6-.8 4.7-1.6 10.9-2.1 8.6-.7 10.2-.6 11.3.8 1.3 1.5 2 1.5 8.6-.2 5.4-1.4 9.4-1.8 15.9-1.4 11.3.6 14.3 2 14.4 6.6.2 9.7-8.1 26-13.2 26-2.8 0-2.9 1-.9 6.5.8 2.2 1.4 5.9 1.5 8.2 0 3.7-.6 4.9-3.8 8.1-4.3 4.3-5.2 8-5.2 21.8 0 6.9.1 7.2 2.8 8.3 1.5.6 4.1 2.2 5.7 3.5 3.3 2.6 3.1 1.6 4 22.1.2 6 .7 14.7 1.1 19.3l.7 8.3 15.9 15.3c12.8 12.3 15.9 15.8 15.4 17.4s.2 2.3 4.6 4.1c7 2.9 8 3.4 9.2 5.4 1.4 2.2-.1 3.4-2.4 1.9-2.6-1.6-2.5-.7.4 3.1 3.5 4.6 7.7 12.8 7 13.8-1 1.7-2.2.9-4.7-3.4-1.4-2.4-3.4-5-4.3-5.8-1.6-1.3-1.6-1.2-.2 1.6 2.5 4.7 2.7 9.5.4 9.5-.7 0-1.6-1.3-1.9-2.8-.3-1.6-1.5-3.9-2.7-5.3l-2.1-2.4 1.6 3.3c.9 1.8 1.5 4.3 1.3 5.5-.4 2.8-3.1 2.9-3.6.2-.6-3-1.9-3.9-1.8-1.3.1 1.7-.5 2.3-1.9 2.3-1.3 0-2-.7-2.1-2.2-.1-1.1-2.1-4.4-4.5-7.3-5.2-6.1-5.2-6-6.9 8.7-1.1 10.5-2.5 15.9-4.6 18.3-1.1 1.3-.4 4.4 4.7 20 3.3 10.2 6.9 23.3 8.1 29.3l2.1 10.7H512V0H0z"/></svg>