<svg xmlns="http://www.w3.org/2000/svg" width="682.667" height="512" version="1.0" viewBox="0 0 512 384"><path d="M0 192v192h185.6l1.2-4.8c2-7.2 20.3-65.3 21.9-68.9 2.6-6.2 1.2-4.7-7.3 8.4-8.9 13.7-10.5 15.1-13.9 11.7-2.9-2.9-4.3-5.8-5-10.3l-.7-4.4-1.8 2.3c-1 1.3-1.6 3-1.3 3.7.8 2.1-2.8 2.9-4.2.9-1.2-1.5-1.3-1.5-1.8.4-.5 2.1-3.1 2.7-4.2 1-.3-.5.3-3.1 1.5-5.6 1.1-2.6 1.9-4.9 1.7-5.1-.4-.4-4.3 7.1-5.1 9.9-.3 1-1 1.8-1.6 1.8-1.9 0-2.2-3-.8-7.5 2-5.9.8-5.7-2.6.5-2.9 5.4-4.1 6.6-5.1 5-.7-1.2 2.4-8.5 6.5-15.2 3.1-5.1 3.2-5.5 0-3.6-1 .7-2.3.9-2.7.5-1.5-1.5 1.4-4.2 7.8-7.3 4.5-2.2 6.4-3.7 6.5-5.1.1-1 6.2-10.4 13.6-20.9 13.2-18.4 13.7-19.2 16.3-28.9 3.6-13 4.1-16 2.6-15.1-1.6 1-1.4-2.4.5-9.7 1.2-4.9 1.3-6.6.3-8.6l-1.2-2.6-1.8 4-1.9 4 .4-6.5c.2-4.1 1.1-8.1 2.5-10.7 2.9-5.7 2.7-5.9-1.8-2.4-4.5 3.6-5.1 3.7-5.1 1.4 0-.9 2-3.5 4.3-5.7 2.4-2.3 5.1-5.2 6-6.6 1.9-2.9 7.1-28.5 6.2-30.8-.3-.8-.1-4.2.5-7.4.6-3.3.9-6.3.6-6.6-.4-.3-1.9.7-3.5 2.2l-2.8 2.7-3.6-4.5c-2.1-2.4-3.7-5.1-3.7-6 0-.8-.4-1.7-.9-2.1-.6-.3-1.3-2.6-1.7-5-.3-2.5-1-4.8-1.5-5.1-1.4-.8-1.1-4.2.6-7.4 1.3-2.5 3.4-3.9 7-4.6.6-.1 3.7-.7 7-1.4 3.7-.8 8.7-1 13.1-.6 5.1.5 7.3.3 7.6-.5.2-.7 4.6-1.6 10.7-2.2 9.4-.9 10.5-.8 11.7.7 1.1 1.6 1.6 1.6 7.5.1 11.6-3.1 29.8-1.8 31.3 2.1 1 2.7-.4 10.6-3 15.9-1.3 2.9-2.4 5.5-2.4 5.9s-1.2 2.3-2.6 4.2c-1.8 2.2-3.5 3.4-5.1 3.4s-2.3.4-1.9 1.2c2.1 5.1 3.7 12.5 3.3 14.8-.4 1.5-1.9 4.1-3.4 5.8-1.5 1.6-3.3 3.6-3.9 4.4-.7.8-1.5 6.9-1.9 13.5l-.7 12 5.6 3.1c5.8 3.3 8 6 7 8.6-.3.8-.1 4.6.5 8.3.5 3.7 1.3 13.2 1.7 21l.6 14.3 16.9 15.2c12.4 11.3 16.7 15.8 16.3 17-.4 1.3.9 2.4 5.8 4.6 6.3 2.9 9.7 5.7 8.4 6.9-.4.4-1.6.2-2.6-.5-3.9-2.4-4.1-1.1-.6 3.5 9.9 13.1 11.2 19.7 1.9 9.7l-5.4-5.9 2.6 4.8c2.5 4.3 2.8 7.7.8 7.7-.4 0-2.3-2.5-4.2-5.6-1.8-3-3.5-5.3-3.8-5-.3.2.7 2.4 2.1 4.9 2.2 3.7 2.4 4.6 1.2 5.6-1.1.9-1.8.4-3.5-2.5-1.2-2-2.5-3.4-2.8-3.1-.3.4-.1 1.2.5 2 .7.8.8 1.8.1 2.7-1 1.7-.5 2.2-8.8-8.4-3.1-3.9-4.7-5.3-5.2-4.4-.4.7-1.2 5.8-1.8 11.3-1.5 13.3-2.9 19-5.1 21-1.7 1.5-1.6 2 1.7 12.3 6.8 20.9 9.4 29.7 11 37.9l1.6 8.3H512V0H0z"/></svg>