<svg xmlns="http://www.w3.org/2000/svg" width="682.667" height="512" version="1.0" viewBox="0 0 512 384"><path d="M0 192v192l92.1-.2 92.2-.3 7.3-23.5c4-12.9 10.7-33.5 14.9-45.7 4.1-12.2 7.5-22.5 7.5-22.9 0-.3-2.5 2.9-5.6 7.2-5.3 7.4-31.3 37.6-33.6 39-3.1 1.9-8.8-5.9-8.8-12.1 0-3.5-1.1-3.1-5.3 1.5-3.7 4.2-5.7 5-5.7 2.5 0-2.1-1.7-1.9-3 .5-1.2 2.2-5 2.8-5 .8 0-.7 1.1-2.3 2.4-3.7 1.3-1.5 3.1-4 4.1-5.6l1.7-3-2.8 3.1c-1.6 1.7-4.3 4.7-6.1 6.7-5.7 6.7-7.6 3.3-2-3.7 5.6-6.9 5.3-7.4-.9-1.4-5.5 5.3-8.4 7.1-8.4 5 0-.5 2.5-4.2 5.6-8.3 5.7-7.6 8.4-12 8.4-13.8 0-.6-1.9-.3-4.5.7-2.4.9-4.7 1.3-5.1.9-1.3-1.3 2.2-4 9.5-7.3 6.2-2.9 7.2-3.6 6.1-4.9-1-1.2 1.9-4.9 16.9-21.5 14.3-15.9 18.3-21 19.2-24.3.6-2.3 2.6-7.8 4.4-12.2 3.2-7.7 6-19.3 5-20.3-.2-.3-2 1.2-4 3.3-1.9 2.2-3.5 3.5-3.5 3.1 0-1.5 2.4-5.1 4.2-6.4 1.5-1.1 1.6-1.7.7-2.8-1.6-1.9-2.4-1.8-3.7.9-.8 1.6-1.1 1.8-1.1.5-.1-.9-.7-1.8-1.3-2.1-.9-.3-.8-1 .6-2.6 2.8-3 1.1-3.9-2-1l-2.7 2.4.6-3.1c.3-1.8.9-4.3 1.2-5.7.6-2.2.4-2.5-1.3-2-1.1.2-2.3 0-2.6-.6-1.2-1.9 1.8-5.1 8.5-9.1 7.6-4.5 8-5.3 10.9-19.4 2.3-11.3 2.5-15.3.8-15.8-.9-.3-.7-2.5 1-8.3 1.1-4.4 2-8.1 1.8-8.2-.2-.2-2.2.6-4.4 1.8-4.8 2.6-5.8 2.1-8.9-4.3-2.9-5.8-3.2-6.8-5.9-18.3-2.3-9.8-2.3-10.1-.5-13.5 1-1.9 2.8-3.7 4.2-4.1 4.2-1.2 20.2-.9 25.4.4 4.2 1.1 5.9 1.1 10.4-.1 3.4-.8 7.8-1.1 11.5-.8 3.4.3 6.8.6 7.6.7.8 0 4.6-1.1 8.3-2.5 4-1.5 11-3.1 16.7-3.8 8.9-1 10.2-.9 12.6.7 2.6 1.7 2.7 1.8 2.1 10.2-.4 5.1-1.2 9.4-2.1 10.8-.9 1.3-1.3 3.1-1 4 .4.8.1 2.2-.6 3-.7.9-1.4 2.6-1.5 4-.2 1.3-1.3 3.8-2.5 5.4-1.6 2.4-1.9 3.5-1 5 1.5 3 1.3 10.2-.3 9.5-.9-.3-2 1.1-3.2 4.3-1 2.6-2.6 5.9-3.6 7.2-2.1 2.6-2.6 5.1-3.4 17.7l-.6 9.2 2.8.6c3.2.8 10.4 4.9 12.7 7.2.9.8 1.6 2.7 1.6 4.2s.7 4.6 1.5 6.9c.8 2.2 1.7 7.2 2 11 .4 3.7 1.3 9 2 11.8.8 2.7 1.7 7.6 2 10.7.6 5.7.6 5.7 7.3 10.5 16.3 11.5 30.2 22.5 30.2 23.8 0 .8 1.7 2.3 3.8 3.4s4.4 2.6 5.1 3.4c1.6 2-.3 3.1-2.7 1.6-2.2-1.4-5.2-.6-5.2 1.4 0 2.2 4.3 7.4 9.8 11.7 2.8 2.3 4.9 4.7 4.6 5.3-.7 1.8-6.2 3.9-11.3 4.3-6.7.5-13.5-3.5-16.7-9.8-1.4-2.7-2.9-4.6-3.4-4.3-2.9 1.8-5 9-6.5 22.5-.8 7.8-1.8 14.7-2.1 15.2s-1.7.2-3.1-.7-2.7-1.4-3.1-1.1c-.3.4 2.7 11.1 6.6 23.9 4 12.7 7.7 25.6 8.4 28.5l1.3 5.2H512V0H0z"/><path d="M224.2 228c.2 3.9.7 6.3 1.3 6 1.2-.6.8-8.8-.6-11-.6-1-.8.7-.7 5m-2.1 43.1c-1.5 4.4-1.4 4.6.9 1.6 2.1-2.7 2.6-4.7 1.1-4.7-.5 0-1.4 1.4-2 3.1m-65.7 54.1-1.9 2.3 2.3-1.9c2.1-1.8 2.7-2.6 1.9-2.6-.2 0-1.2 1-2.3 2.2"/></svg>