<svg xmlns="http://www.w3.org/2000/svg" width="682.667" height="512" version="1.0" viewBox="0 0 512 384"><path d="M0 192v192h183.7l4.3-13.7c7.3-23.3 25.7-78.5 28-83.8 1.1-2.7 3.6-6.9 5.3-9.5 3.2-4.4 3.2-4.6 2.2-10.5l-1.1-6-2.2 7.3c-3.2 10.4-8.5 21.4-13.7 28.7-4.1 5.7-35.1 36.8-40.2 40.2-3 2-5.8.1-7.9-5.4-.9-2.4-2-4.3-2.3-4.3-.4 0-2.3 1.6-4.1 3.5-2.5 2.5-4.2 3.5-6 3.4-1.4-.2-3.5.2-4.7.9-2.7 1.5-5.3 1.6-5.3.2 0-.6-1.1-.8-2.5-.4-3.7.9-3.1-1 2.2-7.4l4.8-5.7-5.7 5.3c-3.1 2.8-6.2 5.2-6.7 5.2-2.3 0-.9-3.1 3.9-8.7 2.7-3.2 6.1-7.9 7.5-10.6l2.6-4.7h-2.2c-1.2 0-3.7.5-5.6 1.2-1.8.6-3.6.9-3.9.5-1.3-1.3 2.8-4.6 9.3-7.3 5.3-2.3 6.3-3.1 5.9-4.7-.3-1.4 4.1-6.8 18.2-21.8 15.4-16.5 19.1-20.9 21-25.7 1.3-3.1 4-9.3 6.2-13.7 5.1-10.7 5.8-14.1 3.1-15-1.2-.3-2.1-1.1-2.1-1.6s-.7-.9-1.5-.9-1.5-.6-1.5-1.4c0-2.4-2-2.9-4.1-1-2.6 2.3-3.3 1.3-2-3.2.6-2.1.9-3.8.8-3.9s-1.3-.6-2.6-1.1l-2.3-1 2.6-3.1c1.4-1.7 5.1-4.5 8.1-6.2 3.1-1.8 6.4-4.5 7.4-6.3 2-3.1 6.1-22.7 6.1-28.6 0-2.2-.5-3.2-1.5-3.2-1.7 0-1.5-1.2 1.6-11.5 1-3.2 1.7-6.1 1.5-6.3s-1.8.4-3.5 1.2c-3.8 2-6.5 2-8.1.1-.7-.8-.9-1.5-.6-1.5.4 0-.2-1.3-1.3-2.8-2.3-3.2-4.1-8.4-6.6-18.6-2.3-9.4-2.4-14.6-.2-17.9 1.7-2.6 2-2.7 11.5-2.7 6.7 0 12 .6 17 2 6.9 1.9 7.5 1.9 13.2.3 4.8-1.3 7.1-1.4 11.6-.6 5.2.9 6.2.8 12.6-1.9 12.6-5.3 29.1-7.5 31.8-4.3 1.6 2 2.2 16.2.8 18.8-.5 1.1-1.2 3.4-1.4 5.1-.8 7.5-1.3 9.5-2.8 12.4-1.2 2.2-1.4 4.7-1.1 9.4.4 4.2.2 5.6-.4 4.3-.8-1.9-.9-1.8-2 .8-.6 1.6-1.1 3.3-1.1 3.9 0 .7-1.5 4.3-3.4 8.2-3.1 6.4-3.5 8.1-3.8 17.4l-.3 10.3 5.6 2.3c7.7 3.1 11.8 6.2 12.4 9.4.3 1.5 1.5 5.4 2.5 8.7 1.1 3.3 2.4 9 2.9 12.6.5 3.7 1.5 7.7 2.1 8.9.7 1.3 1.6 5.5 2.1 9.4.7 5.6 1.3 7.4 3.1 8.6 12.3 8.3 34 25.5 34.8 27.5.5 1.4 1.4 2.5 1.9 2.5 1.3 0 4.1 2.9 4.1 4.2 0 .5-1.2.7-3 .3-2.6-.6-3-.3-3.6 1.9-.8 3.3 2.4 7.7 9.5 13.1 2.7 2.1 4.8 4.2 4.5 4.7-1.1 1.8-6.8 4-10.8 4.1-6.4.3-13.5-4.4-15.4-10.1-.8-2.4-1.9-4.1-2.5-3.9-.7.2-2.4 2.1-4 4.3-3 4.3-5.3 13.5-6.3 25.6-.4 4.3-.9 7.8-1.2 7.8-.2 0-2-1-4-2.2l-3.5-2.1.7 3.8c.4 2.1 4.3 15.4 8.7 29.7 4.3 14.3 7.9 26.2 7.9 26.4s44.3.4 98.5.4H512V0H0z"/><path d="M220.6 225.5c-1.3 3.4-.5 9.5 1.9 14.7l2.5 5.3-.1-6.5c0-8.2-1.1-14.2-2.5-14.7-.6-.2-1.4.3-1.8 1.2m-77.3 99.7c-2.3 3-2.4 4.1-.2 2.1 1.2-1.2 2-2.5 1.7-2.8s-1 0-1.5.7"/></svg>