<svg xmlns="http://www.w3.org/2000/svg" width="682.667" height="512" version="1.0" viewBox="0 0 512 384"><path d="M0 192v192h183.7l1.8-6.3c2.7-9.6 25.4-78.2 27.5-83.2 1-2.4 3.6-7.1 5.6-10.2l3.7-5.8-.2-12.6c-.2-7.8.2-12.9.8-13.3.9-.6.7-7.6-.5-13.3-.4-1.9-.9-2.2-3.7-1.6-3 .6-3.1.5-1.7-1.1 1.3-1.7 1.2-1.8-.5-1.5-2.6.5-3.1 4.9-1.1 10 .9 2.2 1.6 5.7 1.6 7.8 0 6.2-4.6 20.7-10.2 32.1-4.3 8.6-6.6 11.8-12.8 18-8.6 8.7-42 34-44.8 34-1.1 0-2.7-.9-3.7-2-1.8-2-1.8-1.9-6.1 2-2.4 2.2-4.9 4.1-5.6 4.1-3.8.4-6.6.9-9 1.5-1.9.4-2.8.2-2.8-.6s-.9-1-2.5-.6c-3.7.9-3.1-.8 2.3-6.7l4.7-5.1-4.9 4.2c-2.7 2.3-5.3 4.2-5.7 4.2-2.1 0-.5-3.3 4.2-8.7 10.3-11.8 11.9-20.5 2.9-15.8-2.4 1.3-3.5 1.4-4.4.5-1.4-1.4 1.6-3.8 8.7-7.1 3-1.4 4.6-2.8 4.3-3.6-.6-1.4 4.7-7.5 25.9-30 12.3-12.9 14.7-16 18.9-24.3 2.6-5.2 5.4-10.2 6.2-11.1 2-2.2 1.9-7-.1-6.3-.8.4-1.5.2-1.5-.2 0-.5-.5-1.6-1-2.4-.9-1.3-1.3-1.1-2.9 1-1.1 1.4-2.3 2.2-2.7 1.8-.6-.7.5-6.2 2.1-10.2.8-1.7.5-1.8-2.3-1.3-1.8.4-3.2.2-3.2-.3s1.7-3.5 3.7-6.5c2.6-3.8 4.4-5.5 5.9-5.5 2.8 0 10-7.2 11.3-11.3 1.5-4.6 5.1-25.5 5.1-29.4 0-2.6-.4-3.3-1.9-3.3-1.8 0-1.8-.4.6-9.1 1.3-5 2.3-9.2 2.1-9.4s-2.2.1-4.5.8c-4.4 1.1-7.3 0-7.3-2.9 0-.8-.3-1.4-.7-1.4-.5 0-1.6-1.9-2.7-4.3-1-2.3-2.2-5-2.7-5.9-.5-1-.9-2.8-.9-4.1s-.5-2.8-1-3.3c-1.2-1.2-4.2-13.8-4.1-17.2 0-1.2.8-3.4 1.7-4.7 1.5-2.3 2.2-2.5 9.8-2.5 7.8.1 15.6 1.3 24.2 4 3.6 1.1 4.9 1 9.3-.5 3.1-1 6.5-1.5 8.4-1.1 4.6.8 13.3-.8 20.5-3.9 10.9-4.5 28.8-6.9 26.7-3.5-.3.6-.2 1 .3 1 2.7 0 3.8 8.4 2.6 19.5-.3 3.3-.6 7.2-.5 8.7 0 1.5-.6 4.2-1.3 6-.9 2-1.2 5.4-1 8.8.3 3.7.1 4.9-.5 3.5-.9-2.1-1.3-1.1-3.7 8.8-.3 1.5-1.5 4.4-2.5 6.4-1 2.1-1.9 4.3-1.9 5 0 .6-.5 1.5-1 1.8-.7.4-.9-.9-.5-3.7l.5-4.3-1.1 3.8c-.8 2.5-.8 7.4-.3 14.8l.9 11.1 5.5 2.1c6.7 2.4 13 6.3 13 7.9 0 .6 1.3 3.9 3 7.3 1.6 3.3 3.8 9.5 4.8 13.6 1.1 4.2 2.7 8.7 3.6 10.1s2.3 5.8 3.1 9.9c1 5.5 2 7.9 3.8 9.4 1.3 1.1 8.9 7.2 16.8 13.7 16.8 13.5 18.9 16.6 14.4 21.4-1.4 1.5-2.5 3.5-2.5 4.5 0 2.5 4.4 7.3 10 11 4.8 3.1 4.8 3.2 3 5.2-1.3 1.3-3.6 2.2-6.9 2.5-6.8.6-13.4-3.1-15.1-8.5-1.8-5.6-2.6-6-5.9-2.9q-6 5.7-8.1 20.1c-.6 4.4-1.3 9-1.6 10.3l-.5 2.3-4.4-2.6c-2.5-1.4-4.5-2.2-4.5-1.8 0 1 8.6 31.9 13.6 49l3.9 13.3H512V0H0z"/></svg>