<svg xmlns="http://www.w3.org/2000/svg" width="682.667" height="512" version="1.0" viewBox="0 0 512 384"><path d="M0 192v192h183.5l13.4-41.3c13-40.1 16.7-49.7 21.9-56.5 2.4-3.1 2.5-3.9 2.3-15-.1-6.5.2-12.9.8-14.4 1.1-2.9.3-13.8-1-13.8-.4 0-2.8 1.2-5.2 2.7l-4.5 2.7.5 5.5c.9 9.7-7.3 30.8-17 43.6-6.3 8.4-13.6 14.1-49.1 38.2-2.6 1.8-5.8 3.3-7 3.3s-3.7 1.6-5.7 3.6c-1.8 2-4.2 4-5.2 4.6-2.5 1.3-12.7 2-12.7.8 0-.6-.9-.6-2.5 0-4.3 1.6-3.7-.6 1.7-6.7l5.3-5.8-4.7 4.2c-8.3 7.5-9.5 4.6-1.8-4.4 4.9-5.7 9-12.9 9-15.7 0-2.2-2.2-2.5-6.5-1-7.6 2.6-5.6-1.7 2.8-6 3.9-2 5.7-3.5 5.7-4.8 0-1.1 5-7.4 11.2-14.1 6.1-6.7 15.2-16.7 20.3-22.2 11-12 21.3-29.2 19.5-32.5-1.4-2.5-1.8-2.5-4.8.2l-2.4 2.3.8-4c.4-2.2 1.3-5.8 2.1-7.9.7-2.2 1.2-4.1 1-4.3s-1.8.2-3.6.8c-6.8 2.4-4.7-1.2 6-10.4 12.4-10.6 13.7-13.2 17.3-34.2 2.1-11.9 2-13.6-.4-14.2-1.1-.3-2-.7-2-.8 0-.2 1.1-4.7 2.5-10 1.4-5.4 2.4-9.9 2.2-10.1s-1.8.1-3.6.7c-3.8 1.3-8.1-.1-8.1-2.6 0-.8-.4-1.5-1-1.5-.5 0-1-.6-1-1.4 0-.7-.6-1.9-1.4-2.5-.8-.7-2.2-3.8-3.1-6.9s-2.1-6.6-2.6-7.7c-1.3-2.9-3.6-10.5-4.3-14-.4-1.9 0-4.6.9-6.9l1.6-3.9 11.2.5c7 .3 14.3 1.4 19.4 2.8 7.8 2.1 8.5 2.1 13 .6 2.6-.8 9.3-2.1 14.8-2.7s12.1-2 14.6-3 8.2-2.5 12.5-3.4c4.4-.9 8.6-1.8 9.5-2.1 4.3-1.3 8.9 7.3 8.5 15.9-.2 3.1.1 5.7.6 5.7s.6 1 .2 2.2c-1.1 3.5-1.7 10.5-1.5 19.2.1 7-.1 7.7-1.3 6.1-1.2-1.7-1.5-1.4-2.5 4-.6 3.3-1.8 7.3-2.6 9-.8 1.6-2.1 4.8-2.9 7l-1.5 4-.1-3.5-.2-3.5-.9 3.2c-.5 1.9-.6 7.7-.2 13.9l.8 10.7 4 1.2c7.2 2.1 14.6 6.5 15.8 9.3.7 1.5 2.4 4.7 3.9 7.2 1.4 2.5 3.6 7.9 4.9 12 1.2 4.1 3.2 9.3 4.4 11.5 1.3 2.2 2.6 5.6 3 7.5 2 10.4 2 10.3 15.8 22.3 20.8 18.1 21.6 19.3 17.2 25.9-1.8 2.7-2.5 4.7-2.1 6.4.9 3.6 6.3 9.1 10.1 10.4 1.9.6 3.5 1.4 3.5 1.6 0 2-2.5 4.2-5.8 5.3-3.7 1.3-4.3 1.2-9.3-1.5-4.6-2.5-5.6-3.6-6.9-7.4-.8-2.5-1.8-4.7-2.3-5-1.4-.9-7.5 4.9-9.5 9.2-1.1 2.4-2.6 7.9-3.3 12.3-.6 4.4-1.5 8.4-2 8.9-.4.5-2.4-.1-4.5-1.3-2-1.2-3.8-2-4-1.8-.3.2 1.1 6 3 12.8s5.8 21.1 8.8 31.6l5.3 19.3H512V0H0z"/><path d="M210.5 245c-.3.5-.1 1 .4 1 .6 0 1.1-.5 1.1-1 0-.6-.2-1-.4-1-.3 0-.8.4-1.1 1"/></svg>