<svg xmlns="http://www.w3.org/2000/svg" width="682.667" height="512" version="1.0" viewBox="0 0 512 384"><path d="M0 192v192l92.2-.2 92.2-.3 4.4-13.5c2.4-7.4 7.3-22.9 10.9-34.4 7.9-25.3 10.7-32.2 16.6-41.2 4.1-6.3 4.5-7.3 4-11.9-.2-2.8 0-9.3.5-14.5.9-8.9.8-9.6-1-11.3-1.1-.9-1.6-1.7-1-1.7.5 0 1.2-.9 1.5-2 .6-2.5.2-2.5-3.4.1-2.8 2-3.1 2-5.6.4-3.3-2.2-4.5-.6-3.7 4.7.8 4.4-1.4 11.3-6.9 22.3-9.6 19.3-18.9 30-37.4 42.7-19.4 13.5-28.2 20.4-31.1 24.4-3.8 5.1-12.7 13.4-14.7 13.5-5.3.5-7.3.8-9.4 1.4-2 .7-2.3.5-1.8-.8.7-1.8-.8-2.4-1.8-.7-.9 1.4-3.5 1.2-3.5-.3 0-.7 2.1-3.7 4.7-6.7l4.7-5.5-4.7 4.2c-8.6 7.8-9.2 4.7-1.1-5.9 6-7.7 9.8-15.3 9-17.5-.6-1.5-6.2-1.8-7.1-.3-.3.6-1.7 1-3.1 1-5 0-1.9-3.3 6.9-7.5 4.2-1.9 5.7-3.2 5.7-4.7 0-1.1 3.7-6.3 8.4-11.7 4.7-5.3 14.4-16.3 21.6-24.5 7.6-8.7 14.7-18 17-22.2 3.9-6.9 5-11.4 3-11.4-.5 0-1-.9-1-1.9 0-3.1-1.6-3.3-3.4-.6-4.1 6.2-4.1-1.1-.1-10.2l2.3-5.1-3.4 1.4c-9.4 3.9-7.4-.5 4.8-10.6 5-4.1 10.8-9.8 13-12.6 3.5-4.7 4.2-6.6 6.8-19.5 3.8-18.2 3.8-18.8.1-19.5l-2.9-.6 2.9-10.7c1.6-5.8 2.9-10.9 2.9-11.3s-1.2-.3-2.7.3c-1.5.5-3.6.7-4.8.4-2.1-.6-8.2-9.4-11-16-1-2.2-2.3-5.4-3.1-7-.8-1.7-1.5-3.9-1.7-5s-.9-3.3-1.6-4.9c-2.3-5.6-2.5-11.1-.5-14.1l1.8-2.8 12.6.6c8.1.4 15 1.4 19.8 2.7 6.9 2 7.5 2.1 12.1.5 6.4-2.1 8.3-2.5 17.6-3.6 4.4-.6 10.9-1.9 14.5-2.9 5.4-1.6 21.1-5 23.1-5 .3 0 1.5.8 2.5 1.7 3.4 3.1 5.1 8.1 5 14.1-.1 3.1.1 5.9.5 6.2.5.3.5 2.1 0 4-.8 4.1-.7 12.1.3 20.5.7 5.5.7 5.8-.7 4-1.4-1.9-1.5-1.8-2.5 2-.6 2.2-1.3 5.7-1.7 7.8-.3 2.1-1 3.5-1.4 3.3-.4-.3-1.4 2-2.1 5.2l-1.4 5.7-.7-3.5c-.4-2.2-.7-2.7-.8-1.3 0 1.3-.5 2.3-1.1 2.3-1.1 0-1.2 10.3-.2 19 .7 5.3.8 5.4 4.7 6.6 4.3 1.2 12.8 5.4 15.6 7.7 1 .7 2.4 2.8 3.3 4.7s2.6 5.3 3.8 7.5c1.1 2.2 3 7.4 4 11.5 1.1 4 2.8 8.6 3.9 10.1 1 1.5 2.6 6.2 3.5 10.6.9 4.3 2.4 8.7 3.3 9.8.9 1.2 7.9 7.9 15.6 14.9 7.7 7.1 14.3 13.6 14.7 14.5 1.3 3.2.7 5.9-2.2 9.6-2.1 2.7-2.8 4.4-2.4 5.9 1.3 4.1 4.8 7.9 9.1 9.8 4.8 2.1 5.3 3.6 2.2 6.4-5.1 4.6-16.9-.2-19.1-8-1.6-5.9-2.2-6.2-6.2-3.1-4.8 3.7-7.1 7.7-9.2 16-2 8.5-2.6 9.2-6 7.6-1.5-.6-2.9-1-3.1-.7-.3.3.4 3.3 1.6 6.8 1.1 3.5 3 10.3 4.1 15.3 1.2 4.9 4 15.9 6.2 24.3l4.1 15.2H512V0H0z"/></svg>