<svg xmlns="http://www.w3.org/2000/svg" width="682.667" height="512" version="1.0" viewBox="0 0 512 384"><path d="M0 192v192l92.7-.2 92.7-.3 3.7-11.5c2.1-6.3 6.7-21.2 10.4-33 7.2-23.2 11.4-33.4 17.1-41.3 3.5-4.8 3.7-5.6 3.6-12.2 0-3.8-.1-9-.1-11.3l-.1-4.4-3.1 2.7c-3.4 2.8-5.2 2.6-2.7-.2 2.2-2.5 6.8-10.8 6.8-12.1 0-1.5-2.9-.4-5.7 2.1-2.2 2-2.3 2-4.3.2-2.5-2.3-4.5-.8-5.5 4.1-1.1 5.9-13 28.3-20 37.6-7.2 9.5-16.8 18.7-28.5 27-12.2 8.8-24.4 18.7-26.5 21.7-4.6 6.4-13 15.3-15.7 16.7-1.7.9-4 1.3-5.2 1-1.1-.2-3 .2-4 1-2.6 1.8-4.6 1.8-4.6-.1 0-1.8-.5-1.8-3.2-.4-1.1.6-2.2.8-2.5.5-.8-.7 3.1-6.7 6.2-9.6 1.5-1.4 3.2-3.4 3.7-4.5.6-1.1-1.6.6-5 3.8-3.3 3.1-6.3 5.7-6.6 5.7-2 0 .1-4.6 4.5-10.1 6.1-7.6 10.1-15.2 9.7-18.2-.4-2.8-3.7-3.3-7.8-1.2-1.7.9-3.5 1.3-4 1-1.9-1.2.8-3.9 7.6-7.5 5-2.6 7-4.3 7.5-6.2.4-1.4 6.3-9.1 13.1-17 27.5-31.7 30.6-35.5 34.1-41.6 4.5-7.7 5.2-10.8 2.7-12.2-1-.5-2.1-2.1-2.4-3.6l-.7-2.7-2.8 2.7c-1.5 1.4-3 2.6-3.4 2.6-1.1 0 .4-6.2 2.6-10.7 1.1-2.4 1.8-4.5 1.5-4.8-.2-.3-1.9 0-3.7.6s-3.4.9-3.7.6c-1.2-1.2 4.4-7.6 11.2-12.7 4-3 7.3-5.9 7.4-6.3 0-.5 2.6-3.6 5.9-7 3.2-3.4 6.3-7.8 6.9-9.7 1.4-4.5 4-17.7 5-25.6l.8-6.2-3.8.2c-2.1.1-3.8-.1-3.8-.6 0-.4 1.4-5.7 3-11.8 1.7-6.1 3-11.3 3-11.5 0-.3-1.8-.2-3.9.1-3.9.6-4 .6-8.5-5.7-2.5-3.5-4.6-7.1-4.6-8s-.7-2.2-1.5-2.9-1.5-2.2-1.5-3.4-.7-3.1-1.5-4.2c-.8-1-1.5-3.3-1.5-5.1 0-1.7-.5-3.3-1-3.5-.6-.2-1.5-2.8-2.2-5.9-1-4.9-.9-6.1.6-9.3l1.7-3.6h7.5c9.3 0 19.9 1.6 27.2 4.1 5.1 1.8 5.8 1.8 10.1.3 8.2-2.9 19.5-5.4 24.2-5.4 2.6 0 6.6-.7 9-1.6 5.7-2 23.6-5.5 25.2-4.8 2.4.9 6.6 8.1 6.2 10.4-.3 1.3 0 2.9.6 3.7.8.9.8 2.2 0 4.4-.7 2.1-.8 3.6-.1 4.4.6.7.6 2.5-.1 4.9-.7 2.6-.7 4.7 0 6.9 1.5 4.3 2.6 17.6 1.2 15.8-.8-1.2-1.1-1.1-2 1-.5 1.3-1.3 4.6-1.6 7.2-.4 2.7-1.2 5-2 5.3-.7.3-1.6 2.4-1.9 4.7-.7 4.7-2.6 8.6-2.6 5.4 0-3.4-2.8-1.7-3.5 2.1-.5 3 1 21.3 1.8 21.8.1 0 2.7.9 5.7 1.8 9 2.9 16 7.4 17.7 11.4.8 1.9 2.1 4.1 2.8 4.9 1.5 1.5 6.5 16.2 6.5 19.2 0 1 1.2 4 2.6 6.7 1.9 3.5 5.4 17.1 5.4 21 0 .1 6.8 6.4 15.1 14 8.2 7.5 15.7 15 16.5 16.6 1.8 3.4 1 6.9-2.2 9.9-5.1 4.7-2 12.1 6.6 15.8 4.6 2 5 2.4 3.9 3.9-2.4 3.2-4.3 4.2-7.6 4.2-6.6 0-12.7-5.1-13.9-11.6-.8-4.2-1.9-4.2-6.7-.3-4.3 3.6-6.8 8-9.2 16.4-2.2 7.7-2.2 7.7-4.7 6.4-1.9-1-2-.9-1.3.7.4 1.1 2.3 8.4 4.3 16.4 1.9 8 4.9 20.1 6.6 27l3.2 12.5 100.7.3 100.7.2V0H0z"/></svg>