<svg xmlns="http://www.w3.org/2000/svg" width="682.667" height="512" version="1.0" viewBox="0 0 512 384"><path d="M0 192v192h88.5l5.3-6.5c2.8-3.6 5.2-6.8 5.2-7.2 0-.5-2.7 2-5.9 5.5-3.2 3.4-6.3 6.2-7 6.2-2.4 0-.9-4 4-10.4C95.8 364 101 354.7 101 352s-2.4-3.1-8-1.3c-9.9 3.2-7.7-1.4 3.3-7.2 6.1-3.2 7.7-4.5 7.7-6.3 0-1.2 1.7-4.1 3.8-6.5 3.5-3.9 18.4-21.7 34.8-41.7 3.8-4.7 8-9.9 9.2-11.7 2.2-3.1 3-8.3 1.3-8.3-.6 0-1.1-1.4-1.3-3.1l-.3-3.2-3.2 3.1c-2.8 2.6-3.3 2.7-3.3 1.1 0-1 .9-4.2 2-7.1s2-5.4 2-5.6c0-.1-1.1 0-2.5.4-1.4.3-2.5.2-2.5-.4 0-2.6 4.8-9.6 9.2-13.3 2.7-2.2 6.6-6.4 8.7-9.2 2.2-2.9 5.8-7.2 8.1-9.7 5.4-5.8 6.7-8.5 8.4-16.7 1.7-8.1 3.9-29 3.1-30.2-.2-.5-2.5-.6-5-.3-2.5.2-4.5 0-4.5-.5s1.6-6.4 3.5-13.2c1.9-6.7 3.5-12.6 3.5-13.1s-1.4-.4-3 .2c-2.4.8-3.5.7-5.5-.6-1.4-.9-2.5-2.3-2.5-3.1s-.5-1.5-1-1.5c-.6 0-1.5-1-2-2.3-.6-1.2-1.4-2.9-2-3.7-1.7-2.6-5-10.8-5-12.4 0-.8-.4-1.7-.9-2-.5-.4-1.2-2.5-1.6-4.9-.4-2.3-1.1-4.5-1.6-4.8s-1.1-2.1-1.4-4c-1.5-8.8-.3-14.5 3-15.3 4.1-1 22.7 1.4 31.8 4.1l8.8 2.6 7.7-2.7c11.7-4.3 17.2-5.6 23-5.6 3 0 7.8-.7 10.7-1.5 6.7-2 21.6-4.4 23.3-3.8.6.3 1.2 1.1 1.2 1.9s.4 1.4 1 1.4c2.8 0 5.9 14.4 4 18.1-.9 1.6-.9 2.3 0 2.9.7.4.9 1.6.6 2.7-.4 1.1.3 4 1.3 6.4 1.2 2.7 2.2 7.7 2.5 12.5.3 4.3.3 7.1 0 6.1-.6-1.8-2.4-2.4-2.4-.6 0 .5-.3.8-.7.6-.5-.3-.9 2-1.1 5.1-.1 3.1-.9 6.6-1.7 7.8s-1.1 3.2-.8 4.4c.4 1.6.2 2.1-.5 1.6-.7-.4-1.4.7-1.8 3l-.7 3.7-1.8-2.4c-2-2.7-2-2.7-3.7 5.6-1 5.1.6 17.8 2.4 19.4.5.4 3.4 1.5 6.4 2.4 7.6 2.3 16.2 7.7 18 11.2.9 1.7 2.3 4.1 3.2 5.5 1.9 3 4.3 10.8 5.9 19.3.6 3.4 1.9 7.5 2.9 9.2 1 1.6 2.4 6.7 3 11.3s1.3 8.9 1.6 9.6c.2.6 7 7.5 15 15.1 18.7 18 20.2 20.6 14.4 26.3-5.6 5.7-3.6 12.8 4.7 16.7 2.9 1.4 5.3 2.9 5.3 3.3s-.7 1.7-1.5 2.8c-2.1 3.1-6.9 3.7-11.3 1.5-4.8-2.4-6.9-4.8-8.5-9.6-.8-2.1-1.8-4-2.3-4.2-1.8-.6-9.5 6.9-11.8 11.6-5 9.7-5.2 11.9-2.3 23.3 1.5 5.7 4.1 17.4 5.8 26l3.2 15.8H512V0H0z"/><path d="M216.4 270.5c-1.2.6-2.9 1.7-3.8 2.4-1.3 1.1-2 1.1-4.1-.3-2.3-1.5-2.6-1.5-4 .2-.9 1-3.1 5.2-4.9 9.5-4.2 9.6-15.3 28.8-21.4 37-5.6 7.5-16.8 18.7-28.2 28.2-17.3 14.5-30.2 26.3-35.9 32.8l-3.3 3.7h77.1l3.5-11.2c1.9-6.2 5.8-19.2 8.6-28.8 5.4-18.6 11.4-32.2 17.7-40.5 3.9-5 3.9-5 3.5-12.8-.4-6.5-.7-7.6-1.8-6.6-1.1.9-1.4.7-1.4-1 0-1.8-1-1.2-5.6 3.6-4.5 4.6-5.2 5.1-3.5 2.3 3.1-4.9 10.3-19.2 9.9-19.4-.2-.2-1.3.2-2.4.9"/></svg>