<svg xmlns="http://www.w3.org/2000/svg" width="682.667" height="512" version="1.0" viewBox="0 0 512 384"><path d="M0 192v192h83.8l3.2-4c4.4-5.6 10.2-16.9 9.8-19.4-.4-2.9-3.8-3.1-8.8-.6-3 1.5-4.6 1.8-5.3 1.1-1.7-1.7 2-4.9 10.7-9.3 6.4-3.2 7.7-4.3 7.3-5.9-.3-1.2.7-3.4 2.6-5.8 1.8-2.2 12.1-15 23.1-28.5 12.1-15 19.6-25.1 19.3-26-.3-.8.1-3.8.9-6.8 2.9-10.1 2.9-10.2.6-8.9-3.3 1.8-3.7-.4-.9-5.2 1.4-2.3 2.6-4.7 2.6-5.2.1-.6 2.4-3.3 5-6 6.1-6.2 15.5-20.1 19.1-28 4.1-8.9 5.1-15.2 5.7-33.4.6-15.8.5-16.4-1.3-15.7-1 .5-3.5 1-5.5 1.2l-3.6.3 3.8-13.7c2.1-7.5 3.8-14.3 3.9-15.1 0-1-.9-1.2-3.3-.7-3.6.7-7.7-1.4-7.7-4 0-.8-.4-1.4-.8-1.4-1.2 0-9.2-15.6-9.2-17.8 0-1-.4-2.2-.9-2.8-1.2-1.2-5.1-12.8-5.1-15.2 0-1-.4-2.2-.9-2.8-1.1-1 .4-9.1 2.1-11.1.6-.7 2.5-1.3 4.2-1.3 6.4 0 23.4 3.1 31 5.6l7.9 2.6 7.1-3.1c11.6-5 15.4-6.1 24.5-6.7 4.7-.3 11.5-1.2 15.1-1.9s9-1.7 12.1-2c5.1-.6 5.9-.5 7.9 1.7 2.5 2.6 4.3 6.4 4.5 9.3 0 1.1.4 2.5.8 3.2.4.6.7 3.1.6 5.5-.1 2.7 1 7.5 2.9 12.8 2.3 6.2 3.2 10.1 3.1 14.5 0 3.9-.3 5.3-.8 4-.8-1.9-.8-1.9-2 .2-.6 1.2-1.4 4.4-1.7 7-.5 4.4-1.4 7.2-3.4 11.3-.4.9-1.1 3.1-1.5 5-.7 3-.8 3.1-1.8 1.4-.5-1-1.2-2.1-1.4-2.4-.8-.9-2.3 2.5-2.3 5.3 0 1.5-.7 3-1.5 3.3-.9.4-1.4 1.4-1.1 2.3s1.2 5 2.1 9.2l1.6 7.6 5.7 1.6c8 2.2 18.3 8.6 20.4 12.6.9 1.8 2.3 4 3.1 4.9 1.5 1.7 3.8 10.6 5.7 22.1.6 3.5 1.8 7.4 2.6 8.6s1.9 6.2 2.5 11.1c.5 4.9 1.7 10 2.6 11.4s7.7 8.5 15.1 15.9c13 13 16.6 17.8 15.4 21-.2.9-1.8 3-3.4 4.7-2.6 2.8-2.9 3.6-2.2 7 1 5.9 1.9 6.9 7.4 9.3 4.4 1.9 5 2.5 4.5 4.4-2 6.4-11 6.2-17.2-.5-1.1-1.2-2.7-4.2-3.4-6.6-.7-2.3-1.5-4.2-1.9-4.2s-2.5 1.4-4.6 3.1c-4.2 3.3-9.1 9.9-10 13.6-.3 1.2.8 8 2.5 15s3.5 15.9 4.1 19.8c.6 3.8 1.8 10.3 2.6 14.2l1.6 7.3H512V0H0z"/><path d="M208.5 283c-4.4 3.8-8.5 7-9.2 7s-3.5 4.4-6.2 9.7c-6.6 13.1-14 25.9-19.2 33-4.5 6.2-21.1 23.1-39.9 40.6L122.5 384h68.1l5.8-20.8c9-31.9 14.3-44.7 22.8-55.5 3.1-3.9 3.2-4.3 3.4-14.6l.2-10.6-2.2 2.5c-1.2 1.4-3.3 3.4-4.6 4.5l-2.3 2 .7-2c.4-1.2-1.4 0-4.3 3-2.8 2.7-5.1 4.6-5.1 4.2 0-.3 2.4-4.4 5.3-8.9 4.7-7.2 7.2-11.8 6.4-11.8-.1 0-3.8 3.1-8.2 7m-116 99c-1 1.1-1.3 2-.7 2s1.6-.9 2.2-2 .9-2 .7-2-1.2.9-2.2 2"/></svg>