<svg xmlns="http://www.w3.org/2000/svg" width="682.667" height="512" version="1.0" viewBox="0 0 512 384"><path d="M0 192v192h85.9l2.1-3c3.1-4.3 8.2-15.9 7.5-17-1.1-1.7-6.6-1.1-10.1 1.1-3.2 1.9-5.4 1.9-5.4-.1 0-1.8 4.7-5.3 12.3-9.1 6.3-3.2 7.7-4.3 7.2-5.8-.6-2.1.3-3.3 28.9-39.1 18-22.4 22.6-29.5 22.6-34.3 0-2.1-.1-2.1-2 .3-1.4 1.8-2.2 2.2-3 1.4-1.6-1.6 1.8-8.8 8.3-17.6 7.4-10 16.2-25.3 19.2-33.1 3.1-8.3 4.5-19.7 4.5-36.4 0-12.2-.1-13.3-1.8-13.3-1 0-2.2.3-2.5.6-.7.8-6.7 1.4-6.7.7 0-.2 1.8-6.9 4-14.9s4-14.9 4-15.3-1.4-.6-3-.3c-3.3.5-8-2-8-4.2 0-.8-.3-1.6-.7-1.8-1.1-.4-6.3-8.2-6.3-9.3 0-.8-3-7.9-4.9-11.5-.5-.9-1.2-3.1-1.6-5s-1.4-4.4-2.1-5.5c-.8-1.1-1.4-3.1-1.4-4.5s-.4-3-.9-3.6c-1.2-1.2 1.2-10.3 3-11.6.8-.5 3-.7 4.9-.4 14.4 1.9 20.7 3.1 28.8 5.7l9.2 3 8.6-4c9.6-4.5 20.7-7.2 29.2-7.1 3.2.1 10.3-.7 15.9-1.8l10.2-1.8 2.8 3c1.5 1.6 2.6 3 2.3 3.1s.3 1 1.3 1.9c1 1 1.7 2.8 1.6 4-.1 1.1.1 2.9.6 3.9.4.9.5 2.7.1 4-.3 1.3.1 3.2 1 4.5 2.9 4.2 6.1 14.8 6.7 22.2.4 5.1.3 7-.4 5.8-1.5-2.6-3.9-1-3.9 2.5 0 4.8-2.1 15.7-3.1 15.7-.4 0-1.3 1.9-2 4.2-1.1 4.1-1.2 4.2-2.1 1.8s-1-2.4-2.4-.6c-.8 1.1-1.4 3.2-1.4 4.7s-.4 3.1-1 3.4c-.5.3-1 .1-1-.6s-.3-1-.6-.6c-.3.3.4 4.9 1.7 10.1l2.3 9.5 6.5 2c6.2 1.9 19.1 9.3 19.1 11 0 .4 1.3 2.7 2.9 5.2 2.7 4.1 4.5 10.9 6.6 24.8.4 2.4 1.5 6.2 2.5 8.5 1 2.2 2 7.4 2.4 11.4.3 4.1 1.1 8.4 1.8 9.5.6 1.2 7.7 9 15.8 17.2 17.5 17.9 18.1 19.3 11.2 26.7-2.1 2.2-2.3 3.3-1.8 6.5 1.2 6.5 1.5 7 6.6 9.2 4 1.7 5 2.6 5 4.6 0 4.9-8.2 6.1-14.1 2.1-3.1-2.1-5.4-5.8-7.3-11.9-.4-1.4-1-1.6-2.5-.8-3.3 1.8-12.1 12.2-12.1 14.3 0 1.1 1.3 7.7 3 14.7 1.6 6.9 3.6 17.1 4.4 22.6.9 5.5 1.9 11.8 2.4 14l.8 4 100.2.3 100.2.2V0H0z"/><path d="M218.5 289c-4.6 4.7-7.6 6.6-5.9 3.7.5-.6-1.6.8-4.5 3.3-6.6 5.7-10.8 8.1-14.5 8.4-.5.1-3.9 5.8-7.6 12.7-6.8 12.7-14.5 24.8-19.5 30.4-3.7 4.2-21 21.7-29.4 29.7L130 384h61.9l2-6.8c1.1-3.7 3.9-13.5 6.2-21.7 6.4-23.2 10.5-32.5 19.3-44.5l4-5.5.4-10.8c.1-5.9.1-10.7-.1-10.7-.1 0-2.5 2.2-5.2 5"/></svg>