<svg xmlns="http://www.w3.org/2000/svg" width="682.667" height="512" version="1.0" viewBox="0 0 512 384"><path d="M0 192v192h88.1l2.4-5.3c1.3-2.8 2.7-6.4 3-8 .7-2.6.5-2.7-3-2.7-2.2 0-4.7.8-6.2 2-2.8 2.2-4.8 2.5-5.8 1-1.3-2 1.6-4.7 10.7-9.6 8.1-4.4 9.3-5.4 9-7.5-.2-1.8 3.9-7.6 16.5-23.5 32.5-40.8 31.5-39.3 31.8-43.9s1.6-7.4 9-19.5c8.5-14 15.8-28.9 19.1-39.1 2.4-7.6 3.4-48.9 1.2-48.9-.8 0-1.8.3-2.2.7-.8.8-7.6 1.4-7.6.7 0-.3 1.8-7 4-15s4-15 4-15.5-1.6-.9-3.5-.9c-3.5 0-5.5-1.4-8.5-6-.8-1.2-2.2-3.2-3.1-4.4-.9-1.1-2-3.2-2.4-4.6s-1.6-3.7-2.6-5.2c-1.1-1.4-1.9-3.5-1.9-4.6s-.6-2.5-1.4-3.1c-.8-.7-1.7-3-2.1-5.2-.4-2.1-1.1-4.1-1.6-4.5-.5-.3-.9-1.8-.9-3.3s-.5-3.2-1.2-3.9c-1.8-1.8.7-11.7 3.4-12.9 2.8-1.2 24.6 2.7 34.9 6.3l7.6 2.6 9.4-4.6c10.6-5.2 21.8-8 29.8-7.3 3 .2 9.6-.4 14.9-1.3l9.4-1.7 2.9 2.4c1.6 1.4 2.9 2.9 2.9 3.5 0 .5.7 1.7 1.6 2.5.8.9 1.3 2.4 1.1 3.4-.3 1.1-.1 2.2.4 2.5s.9 1.7.9 3.2.8 4.1 1.8 5.7c3.6 5.8 6.2 14.6 6.7 22.3.3 5 .2 7.2-.5 6.2-1.6-2.6-3.2.4-4 7.9-.4 4.1-1.6 8.5-2.9 10.6-1.1 2-2.1 4.8-2.2 6.3 0 2.7 0 2.7-1.1.4-.6-1.2-1.4-2.2-1.8-2.2-1.1 0-3 4.9-3 7.7 0 2.1-.2 2.4-1.5 1.3-1-.8-1.5-.9-1.5-.1 0 1.6 3.9 16.4 4.8 17.9.4.7 3.7 2.3 7.3 3.6 8.5 2.9 18.5 9.7 20.4 13.9.9 1.8 2.2 4.4 3 5.9.9 1.4 2.2 7.3 3.1 13 .9 5.6 2.3 12.1 3.1 14.3.9 2.2 2.1 8.6 2.8 14.2 1.4 11.5 1.2 11.2 13.8 24.3 17.1 17.7 18.7 19.7 18.7 22.9 0 1.9-1.1 4.3-3 6.4-2.2 2.6-3 4.5-3 7.4 0 5.1 2 7.8 7.5 9.9 5.7 2.1 6.2 5.4 1.3 8-6 3.1-14.2-1.7-17.1-10.1-.8-2.2-2-4.1-2.8-4.3-.8-.1-3.5 1.7-6.1 4.1-5.7 5.2-5.9 6.9-2.8 21.7 2.3 10.7 4.3 21.6 6 33.8l1.2 8.2H512V0H0z"/><path d="M223 288.4c0 .8-.3 1.6-.7 1.8-.5.1-3.2 3.9-6.2 8.3-6.3 9.3-11.5 15-15.4 17-1.5.7-2.4.9-2.1.3.6-.9-.3-.5-5.5 2.7-5.3 3.3-8.6 6.6-10.8 10.8-6.8 13.5-17.6 27.5-33.6 43.9L138.2 384h55.5l3.7-13.8c9-32.9 14-45.1 23.9-58 3.7-4.7 4.6-6.6 3.9-7.9-.5-1-.7-5-.5-9 .2-4.3 0-7.4-.7-7.8-.5-.3-1 0-1 .9"/></svg>