<svg xmlns="http://www.w3.org/2000/svg" width="682.667" height="512" version="1.0" viewBox="0 0 512 384"><path d="M0 192v192h512V0H0zm228.1-94.3c1.1-.3 3.2-.2 4.5.3 2.1.8 2.2 1.3 1.4 3.5-1.7 4.4-1.3 4.8 3.2 4.1 3.2-.5 5.3-1.8 8.3-4.8 4.8-4.8 7.1-5.8 13.3-5.8 7.1 0 10.5 1.3 20.7 8.2 7.3 4.8 9.1 6.5 7.9 7.1-1.5.8-5.1-.1-13-3.3-4.9-2.1-6.6-.8-6.2 4.6l.3 4.7 8 3.4c10.8 4.5 13.1 6.3 11.6 9.1-1.1 2-.8 2.3 2.9 3.8 2.2.9 4 2.2 4 3s.8 1.4 1.8 1.4c.9 0 2.2 1.1 2.9 2.5.9 2 .8 2.5-.3 2.5-1.6 0-1.9 1.6-.4 2.5 1.6 1 1.1 2.1-.9 2.1-1.1 0-1.7-.5-1.4-1.1.3-.5 0-.4-.8.2-1.7 1.7-5.1 1.7-6.7.1-1-1-1.5-1-2.2.2-1.4 2.2-1.2 3.3.5 2.7 2.1-.9 2.8.8 4 9.2l1 7.5 5 1.3c2.8.7 7.9 1.5 11.5 1.8 11.8 1.1 13 1.4 13 3.6 0 1.9-.4 2-5.2 1.4-2.9-.3-7.3-.8-9.8-1.1l-4.5-.5 5.9 3.5c3.3 1.9 6.2 3.3 6.6 3.1 1.5-.9 30.4-5.5 34.9-5.5 2.9 0 8.3.5 12.1 1.1 5.5.9 6.7 1.5 6.2 2.7-.4 1.1 0 1.4 1.4 1 1.7-.4 2-.1 1.6 2.3-.3 2.3.1 3.1 2.1 4 1.5.7 2.3 1.7 2 2.5-.6 1.7-.2 1.7 3.2.4 1.4-.5 2.4-.6 2.1-.2-.6.9 2.9 4.2 4.4 4.2s1.2 1.1-.7 2.5c-1.5 1.1-1.5 1.5-.3 3 1.7 2 2.2 4.5.9 4.5-.5 0-.9.5-.9 1.1 0 .5.6.7 1.3.4.6-.4.3.1-.7.9-1.1.9-1.4 1.6-.8 1.6 2.2 0 1.2 2-1 2.1-1.7.1-1.9.2-.5.6.9.2 1.7.8 1.7 1.2 0 1.2-6.2.6-8.8-.8-2.2-1.2-2.3-1.1-1.7.8.5 1.5.2 2.1-.9 2.1-.9 0-1.6.5-1.6 1 0 .6-.3.9-.7.8-.5-.1-1.8.4-3 1.2-2 1.3-2 1.5-.5 2.7 1.5 1.1 1.3 1.2-.9.4-1.5-.5-3-.7-3.3-.4s-1.1.1-1.9-.5c-.7-.6-2.6-1.6-4.2-2.1-2.9-1.1-2.8-.9 1 2.4 5.6 4.9 3.7 4.3-3.6-1-3.4-2.5-6.6-4.5-7.3-4.5-5.6-.2-34.9-6.1-38.1-7.8-4.1-2-6.8-1.7-8.7 1.1-.3.6-2.6 1-5 1l-4.4-.1.1 5c0 3.8-.4 5.3-1.8 6.2-1.5.9-2.2.6-4.2-1.7l-2.4-2.7-1.6 3c-3.1 5.9-6.5 2-6.5-7.4v-5.3l-4.6-.6c-2.5-.2-7.6-.1-11.3.4-14.2 1.8-19 .5-17.6-4.8.3-1.5.1-2.5-.7-2.8-2.2-.7-10.5-1.4-28.3-2.5-9.3-.6-18.6-1.3-20.5-1.6-5-.8-2.7 1.1 3.5 2.9 3.9 1.1 5 1.9 4.8 3.4-.1 1.4 1.1 2.5 4.7 4.2 4.3 2.1 4.8 2.6 3.9 4.3-.6 1-1.4 1.8-1.7 1.6-.4-.2-6.6-3.3-13.7-6.9-18.3-9.3-19.1-9.6-21.5-7.4-1.1 1-2.4 1.4-3.2.9-1-.6-1-.4.1.9 1.7 2.1.3 2.2-2.6.2-1.2-.8-2.3-2.5-2.5-3.7-.3-2-1.2-2.4-7.7-3.4-6.1-.9-7.8-1.6-9.8-3.8-2.6-3-2.9-5.1-1-5.9.8-.3 13.5.8 28.3 2.3 14.8 1.6 33.8 3.3 42.3 4l15.4 1.1 2.7-2.6c1.5-1.4 5-6.8 7.9-12.1 4.5-8.3 5-9.6 3.7-10.9-.8-.8-2.2-4.8-3.2-8.9-1.6-7.1-1.9-7.6-4.8-8.2-6.5-1.3-8.6-6.2-4.3-10.2 1.2-1.1 3.4-2.3 4.9-2.7 3-.8 4.8 1.5 4.8 6 0 1.5.8 3.9 1.8 5.3 1 1.5 2.2 3.6 2.7 4.7l.8 2 .5-2c.2-1.1 1-2.7 1.7-3.5 3.6-4.2 2.9-10.5-1.1-9.7-1.8.3-3-.4-4.9-2.9-1.4-1.8-2.4-3.8-2.3-4.5.2-.6-.4-1.3-1.3-1.4-.9-.2-3.3-1.4-5.5-2.7-2.1-1.4-4.9-2.8-6.1-3.2-2.9-.9-9.7-6.4-10.4-8.4-1-2.7.9-4.2 4.4-3.5l3 .6-2.6-3.5c-3.2-4.1-3.2-4.2-1-6.3 1.6-1.6 1.7-1.6 2.9 0 .9 1.1 2.1 1.6 3.5 1.2M405.5 147c.3.5.1 1-.4 1-.6 0-1.1-.5-1.1-1 0-.6.2-1 .4-1 .3 0 .8.4 1.1 1M188 230.4c0 .3-.4.8-1 1.1-.5.3-1 .1-1-.4 0-.6.5-1.1 1-1.1.6 0 1 .2 1 .4M28 255c0 .5-.5 1-1.1 1-.5 0-.7-.5-.4-1 .3-.6.8-1 1.1-1 .2 0 .4.4.4 1m65.5 16c.3.5.1 1-.4 1-.6 0-1.1-.5-1.1-1 0-.6.2-1 .4-1 .3 0 .8.4 1.1 1"/><path d="M274 148.2c0 .6.5 2.8 1.1 4.9 1.4 4.7 3.6 5.8 4.9 2.4.5-1.3 1.9-3.4 3-4.5 1.2-1.2 2-2.4 1.7-2.6-1-1-4.7-1.2-4.7-.3 0 .6-.4.7-1 .4-1.9-1.2-5-1.4-5-.3m-22.4 16.1c-1.3 3-4 7.8-6 10.7-3.8 5.5-4.5 8-2.3 8s13.7-8.5 15.7-11.5c1.8-2.7 1.8-2.8-1.2-7.6-1.6-2.7-3.2-4.9-3.4-4.9s-1.5 2.4-2.8 5.3m38.8 7.8c-.9 1.5 3 4.5 8.5 6.4 9.8 3.3 8.7.9-2.1-4.6-3.9-2-5.9-2.5-6.4-1.8"/></svg>