<svg xmlns="http://www.w3.org/2000/svg" width="682.667" height="512" version="1.0" viewBox="0 0 512 384"><path d="M0 192v192h73.2l2.9-2.4c1.6-1.4 6.9-4.6 11.9-7.2 8.4-4.4 9-5 8.5-7.3-.4-2.1.9-4.4 7.2-12.6 20.2-25.9 43.9-58.6 49.9-68.6 6.7-11.3 15.4-31.4 19.9-46.4 2.5-8.2 2.6-9.1 2.3-31.4-.2-12.6-.6-23.3-1-23.7s-1.3-.2-2 .3c-.7.6-2 1-2.8 1-.8.1-2.3.4-3.2.8q-1.8.75-1.8-.6c0-1.2 5.2-24.3 7.5-33.2.7-2.5.5-2.7-2.3-2.7-3.4 0-5.4-1.6-10.4-8-4.1-5.2-12.3-21.3-13.3-26.1-.4-1.8-1.4-3.9-2.1-4.7-.8-.7-1.4-2.6-1.4-4.2s-.4-3.2-1-3.5c-2.5-1.6-.1-11.8 3.1-13.6 2.3-1.2 24.8 3.6 35.9 7.8l7 2.5 5.3-2.7c21-11.1 23.4-11.7 45-11.2 12.4.4 15 .7 16.7 2.2 1.1 1 2 2.4 2 3.2 0 .7.5 1.3 1 1.3.6 0 1.4.8 1.7 1.7.4 1 2.7 4.1 5.3 6.9 5.9 6.6 10.1 19.1 9.9 29.9 0 4-.3 6.2-.8 5.2-1.4-3.7-3.6 1.1-4.2 9.3-.3 5.2-1.1 8.3-2.1 9.4-1.5 1.5-1.7 1.5-2.2-.2-.3-.9-.3.7 0 3.5.5 5.2-.7 7.1-2.1 3.5-.6-1.5-.8-1.5-2.6.7-1 1.3-1.9 3.5-1.9 5v2.6l-2-2.5c-2.8-3.6-2.5-1.1 1.1 10 3.5 10.4 4.4 12 6.8 12 5.7 0 23.5 12 25.3 17 .5 1.6 1.5 3.1 2.2 3.3.8.3 1.8 4.2 2.6 10.4.6 5.4 1.9 12 2.7 14.8.8 2.7 1.8 10.7 2.2 17.7.9 14.9 1.1 15.2 13.6 28.8 11.9 12.9 17.4 19.8 18.1 22.6.5 2-.1 3.3-2.8 6.2-3.3 3.4-3.5 4.1-3.4 9.7.1 6.4.6 7 7.9 9.5 2.3.8 2.8 1.5 2.5 3.7-.4 3.4-4.3 5.5-8.6 4.7-4-.8-9.5-6.4-11.2-11.3-1.5-4.5-2.8-5.1-5.4-2.2-2.1 2.3-1.8 7.2 1.9 30.6 1.4 8.2 2.7 18 3.1 21.8l.7 6.7H512V0H0z"/><path d="M226.2 314.6c-1.3 2.6-2.1 4.8-1.9 5.1.8.8 6.8-7.7 6.2-8.7-1.1-1.8-2.1-1.1-4.3 3.6m-22.9 30.3c-2.3 5.4-5.3 8.7-5.3 6 0-.6-1.2.4-2.6 2.1-1.5 1.7-2.9 2.8-3.2 2.5s-.5-3.3-.4-6.7c.2-7.1-.8-6.3-2.8 2-1.3 5.5-2.4 7-3.6 5-.5-.8-1-.6-1.5.8-.6 1.7-.8 1.6-1.4-.9-.4-1.5-1-2.7-1.4-2.7-.3 0-1.7 2.1-3.1 4.7-3.2 6.4-9.4 15.7-14.3 21.5l-3.9 4.8h39.9l2.2-8.8c1.3-4.8 3.1-11.4 4.2-14.7 1-3.3 2.3-8.2 2.8-10.8.7-4 .6-4.7-.6-4.3-1.1.4-1.3.1-.8-1.4.4-1.2.2-2-.5-2s-1-.7-.6-1.5c.3-.8.3-1.5 0-1.5s-1.7 2.7-3.1 5.9M83.5 383.1c-1.4.5-.6.8 2.8.8 2.6.1 4.7-.3 4.7-.8 0-1.1-4.7-1.1-7.5 0"/></svg>