<svg xmlns="http://www.w3.org/2000/svg" width="682.667" height="512" version="1.0" viewBox="0 0 512 384"><path d="M0 192v192h78.7l9.4-5.1c11.3-6.2 10.5-5.5 8.9-7.4s-2.3-.7 19.5-30c29-39 33-44.6 39.3-56 6.1-11 11.2-23.1 17.1-40.2l3.1-9.1v-24.4c0-24.3-.5-28.3-2.9-25.4-.7.8-1.9 1.2-2.6 1-.7-.3-2.3-.1-3.4.6-1.2.6-2.1.7-2.1.2 0-1.1 3.6-17.5 6.1-28 2.1-8.7 1.9-10.2-1.1-10.2-1 0-2.5-.3-3.4-.6-4.2-1.6-18.7-25.9-20.2-33.8-.3-2-1.2-4-2-4.7-.8-.6-1.4-2-1.4-3.1 0-1-.6-3.1-1.3-4.6-1-2-1.1-4.1-.4-7.9.8-4.9 1.1-5.3 4.1-5.8 3.9-.8 25.6 4.3 34.8 8 7.6 3.1 9.4 2.8 18.4-3.1 12.4-8.1 21.8-9.8 46.2-8.3 7.2.5 7.4.6 12.1 5.5 2.6 2.7 6.1 6.1 7.8 7.5 6.4 5.4 10.2 15.2 11 28.7.5 8 .4 9.2-.9 8.7-2.1-.8-2.9 1.6-3.5 10-.3 3.8-1.1 7.9-1.9 9-1.3 1.9-1.4 1.9-1.4.1 0-1.1-.3-1.6-.7-1.2-.4.3-.6 2.7-.4 5.1.1 2.6-.2 4.5-.9 4.5-.5 0-1-.7-1-1.5 0-4.4-5 1.7-5.1 6.2 0 2.7-.1 2.8-1.1.5-.6-1.2-1.6-2.2-2.3-2.2-.8 0 0 3.4 2.1 9.5 3.9 11.2 5.1 13.5 6.7 13.5 6.2.1 24 12 26.3 17.6.7 1.7 1.8 3.4 2.3 3.6.6.1 1.7 4.3 2.5 9.3.8 4.9 2.4 12.1 3.6 16 1.9 6.2 2 8.4 1.5 19l-.7 12 3.8 5c2.1 2.7 7.9 9.7 12.8 15.5 13.9 16 14.6 17 14.6 19.6 0 1.3-1.5 4.1-3.2 6.1-2.8 3.3-3.3 4.5-3.3 9 .1 6.1 1.4 7.9 6.7 9.3 3.6 1 3.9 1.3 3.6 4.3-.3 2.8-.8 3.3-3.9 4.1-5.9 1.5-10.7-1.5-14.7-9.2-2-3.7-3.8-6-4.4-5.6-1.5.9-.4 14.7 2.7 35.9 1.4 9.3 2.5 18.2 2.5 19.7v2.8h194V0H0z"/><path d="m229.1 317.2-2.3 4.3 3.1-3.3c3-3.2 3.9-5.2 2.3-5.2-.5 0-1.9 1.9-3.1 4.2m-22.9 30.5c-.5 1-1.5 3.5-2.2 5.6-.9 2.8-1.6 3.6-2.8 3.3-1.1-.3-2.4.6-3.7 2.6-3.6 5.7-4.6 4.8-3.8-3.8.4-5.4.3-7.5-.4-7.1-.6.4-1.4 2.8-1.8 5.5-.6 4.6-3.3 11.9-3.4 9.4-.1-1.9-2.1-1.4-2.2.5 0 1-.8 0-1.8-2.2l-1.8-4-3.3 6.5c-1.8 3.6-5.2 9.3-7.6 12.8s-4.4 6.5-4.4 6.8c0 .2 7.9.3 17.6.2l17.7-.3 3.3-12.5c3.3-12.6 4.8-23.4 3-22.3-.5.4-.7-.1-.3-1 .8-2.3-1-2.2-2.1 0"/></svg>