<svg xmlns="http://www.w3.org/2000/svg" width="682.667" height="512" version="1.0" viewBox="0 0 512 384"><path d="M0 192v192h47.5c48.1 0 53.4-.4 52-3.7-.3-.7-.7-1.9-1-2.6-.3-.6 5.4-9.3 12.7-19.2 21.8-30 40.1-56.5 45.6-66 6.1-10.7 13-26.7 18.3-42.3 3.9-11.3 3.9-11.5 3.9-26.5-.1-16.3-1.3-34.3-2.3-35.4-.4-.3-1.5.1-2.4.9-1 .9-2.4 1.3-3.1 1.1-.7-.3-1.9.1-2.8.7-.8.7-1.7 1-2 .7s1.2-9.3 3.5-20c2.3-10.6 4.1-19.7 4.1-20 0-.4-1.1-.7-2.4-.7-3 0-7.7-4.5-12.8-12.5-4.5-6.9-11.6-21.2-12.1-24.2-.2-1.2-.9-2.8-1.6-3.7-2-2.4-3.4-8.6-3.2-14.6.1-6.1 1.6-8 6-8 3.2 0 20.1 4.9 29.6 8.5 3.9 1.5 7.9 2.9 9 3.1 2.6.7 7.6-1.7 14.4-6.7 11-8 30.9-11.6 43.6-8 4.8 1.4 24.9 11.1 23 11.1-.5 0 .5 1.5 2.2 3.2 1.7 1.8 3.6 4.4 4.3 5.7 2.5 4.8 5.1 16.6 4.9 22-.1 3.1.1 6.6.5 7.8s.2 2.4-.4 2.8c-.5.3-1 .2-1-.3s-.8-1.2-1.8-1.4c-1.5-.4-1.7.5-1.9 8.6-.1 5.2-.7 9.2-1.3 9.4-.5.2-1 1-1 1.8 0 .9-.4 1.2-1 .9-1.1-.7-1.3.2-1.1 5.5.1 3.3.1 3.4-1.4 1.6-1.4-1.9-1.5-1.9-3.5-.1-1.6 1.4-1.9 2.6-1.5 4.7.8 3.3-.5 3.7-2.3.7-.9-1.3-1.7-1.8-2.3-1.2-1 1 5.4 19 7.4 20.9.7.6 4.2 2.3 7.8 3.8 13 5.3 24.1 16.9 25.4 26.2.4 2.7 2.3 8.7 4.3 13.4 3.2 7.6 3.6 9.5 3.6 17.5 0 4.9-.3 12.4-.8 16.6l-.9 7.6 3.4 2.1c5.5 3.4 8.7 7.4 9.3 11.7.3 2.2.5 4.1.6 4.2 0 .1 3.2 4.1 7 8.9 4.2 5.2 7 9.6 7 11 0 1.3-1.4 4-3.2 6-2.8 3.2-3.2 4.3-3.3 10.1-.2 6.3-.1 6.5 2.9 7.8 1.7.8 3.9 1.6 4.9 1.9 1.1.4 1.7 1.6 1.7 3.6 0 4-3.8 5.7-9.2 4-2.1-.6-3.8-1.4-3.8-1.8s-1-1.3-2.1-2.1l-2.2-1.3.7 9.3c.3 5.2 1.3 14.3 2.1 20.4.8 6 1.5 11.8 1.5 12.7 0 1.7 5.2 1.8 94.5 1.8H512V0H0z"/><path d="M230.7 323.8c-3.5 6.7-3.1 8.8.7 3.4 1.6-2.4 2.6-5 2.4-6.4-.3-1.9-.8-1.5-3.1 3m-20.9 25.9c-1.4 3.2-3.4 8-4.3 10.8-2 5.6-3.5 7.8-3.5 5.2 0-2.5-1.3-2.1-3.5 1.3-1.1 1.7-3 3.7-4.3 4.6-2.3 1.5-2.3 1.5-1.7-2.3.4-2.1 1.1-5.4 1.6-7.3s.9-4.6.8-6l-.1-2.5-.8 2.5c-.5 1.4-1.4 5-2 8s-1.5 6.2-2 7c-.9 1.3-1.2 1.2-2.5-.4-1.4-1.9-1.5-1.8-1.5 1.3 0 2.8-.2 3.2-1.4 2.1-1.2-.9-1.9-.3-4 3.9-1.5 2.8-2.6 5.3-2.6 5.6s6.7.5 14.8.5h14.8l3.8-13.6c3.8-13.4 4.2-17.4 1.2-11.6-1.8 3.6-4.4 5.6-3.2 2.6 2.1-5.2 2.1-5 .3-3.5-2.2 1.7-2.2 1.6.8-6.4 3.2-8.4 2.7-9.6-.7-1.8"/></svg>