<svg xmlns="http://www.w3.org/2000/svg" width="682.667" height="512" version="1.0" viewBox="0 0 512 384"><path d="M0 192v192h111.6l7.3-10.5c4-5.8 12.5-18.6 18.8-28.3 6.4-9.7 14-21.3 16.8-25.7 14.6-22.2 21.8-36.5 28.6-56.5 5.2-15.2 5.5-23.4 1.8-61.3-1-9.9-1.4-11.7-2.9-11.7-.9 0-2.5.9-3.4 1.9-1 1.1-2.5 1.7-3.7 1.4-1-.3-2.6 0-3.4.7-.9.7-1.8 1-2.1.8-.3-.3 1.9-10.1 4.8-21.7l5.4-21.2-3.2-1.9c-4.3-2.7-14.5-17.4-20-28.9-2.5-5.3-5.4-11.2-6.5-13.2-1-2-1.9-4.5-1.9-5.6 0-1-.4-2.3-.9-2.9-.5-.5-.6-3.5-.4-6.6.5-5.1.8-5.8 3.4-6.8 3.2-1.4 5.7-.6 25.9 7.8 5.8 2.4 11.7 4.9 13.2 5.5 3.5 1.4 9.5-1.2 16.1-7 8.3-7.3 27.8-13.3 39-12 5.7.7 34.7 10.9 32.8 11.5-.8.3 0 1.7 2.2 4.1 6.1 6.2 7.9 12.5 8.3 28.6l.4 13.9-2.3-3.2c-2.4-3.4-4.4-4.3-3.2-1.5 1 2.5 1.6 20.3.7 20.3-.4 0-1.3 1.2-1.9 2.7-1.1 2.4-1.4 3.8-2.2 8.3-.1.3-.5-.1-1-.8-.5-.9-1.7-1.1-3.4-.6-2.5.6-2.7.9-2.3 5.2.3 3.9.2 4.3-.9 2.9-2.2-3-2.5-1.9-1.9 5.5.7 8.4 2.2 11.3 6.1 12.2 8.1 2 16.9 7.6 23.6 14.8 3.7 4 7.6 8.2 8.6 9.3 1.1 1.1 2.2 3.8 2.6 5.9s2.7 7 5 10.8c7.6 12.2 8.3 17.5 5.9 41.4l-.6 6 6.5 3.8c8.9 5.2 9.2 6 7.9 19.8-.8 9.2-.7 11.8.4 14.2 1.9 3.9 1.8 5.9-.6 8.9-1.8 2.3-1.9 3.2-1.1 11.6.7 6.7 1.5 9.8 3 11.8 2.8 3.4 2.6 5.1-.4 6.5-2.7 1.2-2.7-.9-.9 22.5l.6 7.3H512V0H0z"/><path d="M210 379.1c-.8 1.4-1.8 1.9-3.1 1.6-1-.3-1.9-.1-1.9.4s-.5.8-1.1.6c-.6-.1-1.4.4-1.6 1-.3 1 1.1 1.3 5 1.3 5.5 0 5.6 0 5.5-3-.1-3.9-1.4-4.7-2.8-1.9"/></svg>