<svg xmlns="http://www.w3.org/2000/svg" width="682.667" height="512" version="1.0" viewBox="0 0 512 384"><path d="M0 192v192h117.5l13.7-20.8c13.7-20.9 27.8-43.2 39.7-63.2 3.5-5.8 9.3-19.7 14.4-34.5 3.1-8.9 3.2-9.2 3.1-28.5 0-10.7-.6-25.5-1.3-32.8-1.3-12.9-1.4-13.2-3.8-13.2-1.3 0-2.6.6-2.9 1.4-.3.7-1.7 1.3-3.2 1.3s-3.5.3-4.5.7c-2.1 1-2.6 3.4 4.4-23.8l4.9-19-3.6-2.9c-1.9-1.6-5.3-5.4-7.6-8.4-4.6-6.4-13.3-21.1-14.3-24.5-.4-1.2-1.8-4.3-3-6.8-3.5-6.9-4.7-11.1-4.6-15.5.2-5.8.8-7.2 4-8.4 2.3-1 3.6-.9 7.7.7 6.9 2.8 20.9 8.9 27.3 11.8 5.3 2.6 5.4 2.6 10 .8 2.5-.9 6.5-3.4 8.8-5.5 10.2-9.3 30.1-15.3 43.1-12.9 7.8 1.4 32.9 10.6 31.1 11.4-1 .4-1.1.8-.2 1.2 1.6.7 6.3 7.1 6.8 9.2.3.9 1.2 4.1 2 7.1 1.6 5.9 2.1 16 1 20.1-.3 1.4-.2 3.8.4 5.3 1.4 3.7-.1 4.1-2.4.6-2.5-3.7-3.9-3.7-3-.2 1.1 4.1 2.2 18.4 1.4 18.9-.9.5-4.9 8.3-4.8 9.2.3 1.8-.2 2.4-1.4 1.4-.7-.6-2.3-.8-3.6-.5-1.8.4-2.1 1.1-1.7 2.9.8 2.9-.2 5.4-1.8 4.8-1-.4-1 1.3-.2 7.8l1.1 8.2 9.5 4c8.4 3.5 10.4 4.9 17 11.6 8.2 8.3 13 14.5 13 16.8 0 .8 2 4.7 4.5 8.7s5.5 9.9 6.6 13.1c2.2 6.1 2.2 6.1.7 32.4-.3 4.4-.2 4.5 4.6 7.1 2.7 1.5 6.2 3.9 7.8 5.5l3 2.7-.7 10.6c-.3 5.8-1 14.6-1.6 19.6-.6 5.6-.6 13.7-.1 21.5.5 6.9.7 14.7.4 17.4-.2 2.7-.1 9.5.3 15.2l.7 10.4H512V0H0z"/><path d="M215.2 380c-1.7 2.8-1.5 4 .8 4 1.3 0 2-.7 2-2 0-1.1 0-2.3.1-2.7.1-1.6-1.7-1.2-2.9.7"/></svg>