<svg xmlns="http://www.w3.org/2000/svg" width="682.667" height="512" version="1.0" viewBox="0 0 512 384"><path d="M0 192v192h123.5l10-15.5c16.4-25.5 27.1-42.9 35.7-57.9 3.8-6.6 15.5-35.6 19.4-48.1 2.4-7.5 2.6-32.2.5-55.8-1.2-13.7-1.6-15.7-3.1-15.7-1 0-2.3.7-3 1.5-.7.9-1.9 1.4-2.5 1.1-.7-.2-2.5.2-4 1s-3 1.3-3.2 1c-.3-.3 9.5-38.5 11.2-43.4.3-.7-.5-2-1.6-3-4.4-3.6-7.2-7-13-15.7-6-9-15.9-28.4-15.9-31.1 0-.8-.6-2.5-1.3-3.7s-1.2-2.9-1.1-3.7.2-3.2.3-5.3c.1-3.2.6-4 3.5-5.4l3.4-1.6 18.4 8.7 18.3 8.6 4.5-1.7c2.5-.9 6.7-3.6 9.4-6 6.7-5.9 16.1-10.2 27.7-12.5 9.1-1.8 10.3-1.9 16.6-.5 9.2 1.9 33 10.3 31.2 10.9-1 .4-.4 1.6 2.4 4.5 2 2.1 3.7 4.8 3.7 5.8 0 1.1.7 3.9 1.5 6.3 2 5.6 2.9 18.1 1.6 21.5-.7 1.8-.7 3.6.1 5.7.5 1.7.7 3.4.3 3.8s-1 .1-1.2-.5c-.7-2-4.1-5.8-4.6-5.3-.3.3.1 3.2.9 6.5 1.5 6.7 1.9 16.5.5 16.5-.5 0-1.4 1.3-2.1 3-.7 1.6-1.6 3-2 3-.5 0-.6 1-.2 2.2.5 2.1.4 2.2-1.2.9-2.4-2-7.1.1-5.8 2.5 1.3 2.2.3 5.6-1.4 5-1-.4-1.2.2-.8 2.2.2 1.5.8 5.2 1.2 8.2l.7 5.5 8.5 3.4c7.5 3.1 9.5 4.5 16.5 11.6 11.4 11.6 13.1 13.7 13.9 17 .4 1.7 2 4.6 3.6 6.6 4.2 5.3 8.8 14.7 10.1 20.9 1.1 5 1 9.7-.7 26.1l-.6 6.5 4.5 1.8c2.4.9 6.2 3.1 8.2 4.9 3.3 2.9 3.8 3.9 3.7 7.3-.2 7.3-2.4 29.9-2.9 30.8-.5.7-.5 7.4.1 21.1.1 2.2.3 11.8.4 21.2l.2 17.3h168V0H258v2.4c0 2-1.6 3.6-3.6 3.6-.2 0-.4-1.4-.4-3V0H0z"/><path d="M221.1 380.8c-.7 1.3-1.1 2.6-.8 2.8.8.8 2.9-2.5 2.5-3.8-.3-.8-.9-.4-1.7 1"/></svg>