<svg xmlns="http://www.w3.org/2000/svg" width="682.667" height="512" version="1.0" viewBox="0 0 512 384"><path d="M0 192v192h143.5l6.1-10.3c22.7-37.7 24.2-40.7 23.6-46.1-.2-2-.7-3.6-1.1-3.6-.3 0-3.1 3.9-6.1 8.6-5.8 9.1-8.7 12.5-7.7 8.9.3-1.1.9-4 1.2-6.5 1.1-6.8 5.8-17.2 13-28.5 3.6-5.6 6.5-10.5 6.5-10.9s3.1-8 6.9-16.9c11.1-26.1 10.4-22.6 10.9-53.4.2-15 .1-28.9-.2-30.8-.7-3.6-3.2-4.8-4.2-2-.3.8-1.6 1.4-2.7 1.3-1.2 0-3.4.3-4.9.7-1.6.4-2.8.4-2.8 0s1.8-6.8 4.1-14.3c7.5-25.3 8.9-30.2 8.9-31.3 0-.6-2.4-3.7-5.2-6.9-8.9-9.7-19.5-28.9-25.3-45.6-2.5-7.2-1.2-14.3 2.8-15.7 4.3-1.4 8.7-.1 14.5 4.2 2.8 2.2 9 6 13.8 8.6l8.7 4.8 5.5-1.4c4.3-1 6.5-2.3 10.1-5.9 5.6-5.6 14.8-10.3 25.5-13 13.3-3.4 21-2.5 41.6 4.9 4.7 1.7 9.6 3.1 11 3.1l2.5.1-2.4 1c-2.3.9-2.3 1 2.5 6.1 2.6 2.8 4.3 5.3 3.7 5.5-.7.3-.4 2.7.8 7.5 2 7.4 2 20.1 0 23.5-.5 1.1-.5 2.5.2 4 1.4 3.1 0 4.3-2 1.8-1.6-2-1.6-2-.9 0 3.3 9 2.2 19.6-2.5 23.5-2.1 1.9-2.8 3.1-2.3 4.4.6 1.6.4 1.7-1.5.6-3-1.6-5.5-.5-4.8 2 .3 1.1.1 2.2-.3 2.5-.5.3-.7 2-.5 3.8.3 1.7.7 5.8 1.1 9l.6 5.9 6.5 2.9c9.3 4.1 15.9 9.3 21 16.3 2.4 3.4 5.5 7.4 6.9 9.1 1.4 1.6 4.7 5.7 7.5 9 2.7 3.3 6.6 9.4 8.7 13.5 3.7 7.4 3.7 7.5 3.7 20 0 6.9-.3 14.3-.7 16.4-.3 2.1-.4 4.5-.1 5.3.3.7 3.7 2.9 7.7 4.7 11.7 5.5 10.8 3.5 9.5 23-.6 9.3-1.5 18.1-2 19.5-.6 1.4-1.2 14.8-1.5 29.8L359 384h153V0H265v5c0 2.7-.1 5-.2 5-.2 0-2.1-.6-4.2-1.4-3.4-1.2-4.6-1.2-7.9 0-2.2.8-4.3 1.4-4.8 1.4s-.9-2.3-.9-5V0H0z"/><path d="M242.7 368.7c-1.5 7.1-2.7 13.4-2.7 14 0 .8 1.4 1.3 3.5 1.3h3.5v-14c0-7.7-.4-14-.8-14-.5 0-2.1 5.7-3.5 12.7"/></svg>