<svg xmlns="http://www.w3.org/2000/svg" width="682.667" height="512" version="1.0" viewBox="0 0 512 384"><path d="M0 192v192h174.7l.7-8.2c.4-4.6 1.5-12.1 2.6-16.7 1-4.6 1.6-9.3 1.4-10.5-.3-1.1-.8-4.7-1.1-7.9s-1-6-1.5-6.3c-.6-.4-2.3.8-3.8 2.5-1.6 1.7-3.6 3.1-4.4 3.1-.9 0-1.6-.1-1.6-.3 0-1.8 5.8-13.8 8.4-17.5 1.8-2.6 6.5-11.2 10.5-19.2 3.9-8 9.4-17.9 12.1-22s8.8-14 13.7-22l8.8-14.4 1.7-13.1c.9-7.1 1.7-19.5 1.7-27.4l.1-14.3-2.7.6c-7.4 1.8-11.7 2.6-12 2.2-.3-.2 3.3-11.5 7.8-25.1l8.1-24.6-2.4-2.7c-8.8-9.7-23.6-38-26.7-50.9-1.7-7.2-.6-13.7 2.5-15.2 3.5-1.6 6.6-1.4 11.6.8 4.7 2 11.2 8.3 12.2 11.7.4 1.2 2.5 3.4 4.8 4.9 3.2 2.2 4.8 2.6 7.7 2.1 2-.4 4.6-.6 5.8-.6 1.4 0 5.1-2.6 9.5-6.5 8.3-7.5 17.9-11.8 31.6-14.2 7.1-1.2 9.3-1.2 16.5 0 4.6.8 11.2 2.7 14.7 4.1 3.6 1.5 9.2 3.5 12.5 4.5 5.1 1.5 5.6 1.9 3.5 2.5-2.4.6-2.4.8 2.7 5.4 5 4.5 5.2 4.9 4.9 9.2-.2 2.5-.5 4.9-.6 5.5-.2.5-.1 1.7.3 2.5.3.8.7 3.2.9 5.3.3 2.8.1 3.6-.9 3.3-1.1-.5-1.2.7-.7 5.9.4 4.2.3 6.5-.4 6.5-1.2 0-.9 4.8.8 11 3 11.4 1.7 16.3-5.4 20.1-2.5 1.3-4.6 3-4.6 3.6 0 .7-.9 1.3-1.9 1.3-1.6 0-1.9.7-1.7 4.7.6 13 2.7 20.3 5.9 20.3 1.8 0 13.2 7.4 16.1 10.4 1.6 1.7 6.3 7.1 10.4 12.1 4.2 4.9 9.9 11.4 12.6 14.3 6.7 7 11.3 14.4 13.3 21.2 1.3 4.4 1.5 8.2 1 19-.4 7.4-.9 14.4-1.2 15.5-.5 1.8.1 2.3 5.2 3.9 6.5 2.1 14.8 6 15.8 7.6.8 1.4-1.4 35-2.6 37.8-.5 1.3-1.3 2.1-1.7 1.8-.5-.3-.8 4.7-.8 11.2.1 6.4-.3 18.3-.7 26.4l-.8 14.8H512V0H273.2l-.4 5.6c-.3 3.2-1.1 6.2-2.1 7.1-1.5 1.6-2 1.5-6.9-.5-6.6-2.7-7.8-2.7-12.9-.1-7.7 3.9-11.9 1.1-11.9-7.9V0H0z"/><path d="M273 379.5v4.5h11.5l-5-4.5c-2.7-2.4-5.3-4.4-5.7-4.5-.5 0-.8 2-.8 4.5"/></svg>