<svg xmlns="http://www.w3.org/2000/svg" width="682.667" height="512" version="1.0" viewBox="0 0 512 384"><path d="M0 192v192h180.6l2.4-11.8c3.9-18.2 2.9-35.9-1.6-32.1-1 .8-1.4.8-1.4.1s-.7-.9-1.7-.5c-.9.4-1.4.2-1.1-.3.2-.5 1.5-3.2 2.7-5.9 1.3-2.8 3.3-6.4 4.5-8 1.3-1.7 2.6-4.8 3-6.9 1-5.5 11.3-24.7 21.1-39.6 4.5-6.9 11.5-17.8 15.4-24.4 6.8-11.3 7.3-12.3 8.6-21.5.7-5.3 1.7-17 2.1-26 .7-18 .4-19.2-4.7-16.5-1.6.8-4.4 1.4-6.5 1.4-3 0-3.5-.3-2.9-1.8 2.6-6.4 15.5-46.8 15.5-48.4 0-1.1-.9-3.2-2.1-4.6-4.8-6.2-9.2-13.5-16.2-27.3-8.4-16.6-11.3-26.2-10-33 .8-4 1.2-4.4 4.8-5.5 6.1-1.7 12.5.8 18.3 7.1 2.6 2.7 5 4.9 5.4 4.8.3-.1 1.3 1.5 2.1 3.5 2.3 5.8 3.2 6.2 11.2 4.8 6.5-1.1 7.4-1.6 12.3-6.5 10.1-10 27.1-15.8 43.7-14.8 8.7.6 14.1 2 25 6.6 2.8 1.1 7 2.6 9.5 3.3 4 1.1 4.2 1.3 1.8 1.6-1.6.2-2.8.7-2.8 1.1 0 .5 2.5 2.7 5.5 5 5.5 4.2 6.4 5.8 4.4 7.8-.8.8-.8 1.7 0 3.2.7 1.2.8 2.1.2 2.1-1 0-.8 4.5.3 7.2.4.9.1 3-.8 4.7-1.9 3.5-2 5.8-.5 6.3q1.05.3-.6 5.1c-1.1 3.2-1.3 5.2-.6 6.5.5 1 1.6 5.2 2.4 9.3 1.9 10.4.7 13.7-6.9 17.5-3 1.5-5.4 3.2-5.4 3.7s-.8 1.5-1.7 2.2c-1.5 1.1-1.5 1.9-.5 6.6.6 3 1.4 7.7 1.8 10.6l.6 5.1 7.4 3.9c8.2 4.2 9.7 5.4 16.9 13.9 2.8 3.2 8.6 9.7 12.9 14.4 17.9 19.3 20.9 25.5 20.9 43.5 0 6.6-.5 13.7-1.1 15.7-1.4 5-.4 6 9.3 9.2 13.1 4.3 12.8 3.9 12.1 16.5-1.5 25.5-1.8 27.2-3.9 29.1-1.8 1.7-1.9 2.8-1.4 12.7.2 5.9.1 14.6-.4 19.3-.4 4.7-1 11.1-1.2 14.2l-.4 5.8H512V0H274v3c0 4.1-2.5 9.9-4.6 10.7-.9.3-3.6-.4-6-1.6-5.5-2.6-6-2.6-11.8 0-6.5 2.8-9.7 2.3-11.8-2.1-.9-1.9-1.7-5-1.8-6.8V0H0z"/><path d="M276.1 364.3c-.6 1.6-1.1 6.6-1.1 11.3v8.4h14.2l-3.7-4.1c-4-4.4-6.5-9.5-6.5-13.1 0-1.3-.4-3-1-3.8-.7-1.1-1.1-.9-1.9 1.3"/></svg>