<svg xmlns="http://www.w3.org/2000/svg" width="682.667" height="512" version="1.0" viewBox="0 0 512 384"><path d="M0 192v192h191.8l.7-3.8c.3-2 1.5-7.4 2.6-12 1.8-7.2 1.9-9.1.9-15.5-.6-3.9-1.5-7.4-2-7.5-.6-.2-1-1.5-1-2.8 0-1.4-.4-2.2-1-1.9-2.1 1.3-.9-3.6 2-8.6 1.7-2.8 3.3-7.2 3.7-9.7 1-7.5 10.8-25.4 28.6-52.7l7.2-11 .2-42.5c.2-23.4.5-43 .7-43.6s1.5-1 2.8-.7c2.2.4 2.6-.5 7.6-15.9 2.8-9 5.2-16.6 5.2-17.1 0-1.7-6.5-10.5-8.4-11.3-1.2-.5-2.3-2.3-2.7-4.2-.4-1.8-1.6-4.3-2.8-5.6-1.1-1.2-2.1-2.7-2.1-3.3s-1.3-3.7-2.9-6.9c-7.6-15.4-10.6-25.5-9.6-32.4.6-4.3 1-5 3.7-5.9 4.4-1.6 7.7-1.3 12.3.8 5.5 2.6 10.9 8.5 13.9 15.3 2.8 6.4 2.7 6.3 12.1 4.8 5.8-.9 8.7-3 12.3-8.5 1.8-2.7 16.1-9.3 25.5-11.7 13.5-3.4 29.5-1.6 41.6 4.7 1.8.9 6.4 2.4 10.3 3.4l7 1.8-4.1.7-4.2.6 6.1 5.1c5.9 4.9 7.3 7.3 4.7 8.2-.9.3-.9.9 0 2.5.9 1.5.9 2.2.1 2.4-1.4.5-1 10.2.5 12.5.5.8.1 1.1-1.3.8-1.6-.3-2 .1-2 2.5 0 1.5.4 3 .9 3.2.6.2.6 2.1-.1 5.1-.7 3.3-.7 5.2.1 6.1.6.7 1.7 5.5 2.5 10.7 1.7 11.4 1.3 12.5-6.9 16.4-3 1.5-5.5 3.3-5.5 4.1 0 .7-.6 1.7-1.4 2.1-1.3.7-1.3 2.2.2 11.6l1.7 10.7 8.2 4.8c5.9 3.4 10.1 6.9 14.9 12.2 3.7 4.1 10.7 11.9 15.6 17.2 16.9 18.3 20 24.6 19.9 40.3 0 5.5-.3 13.2-.7 17.1l-.6 7 6.5 1.8c3.5 1 8.8 2.8 11.7 4.2l5.3 2.4-.6 7.8c-.4 4.2-1 13-1.3 19.5-.6 10.3-.9 11.9-2.7 12.8-1.7 1-1.9 2-1.6 8.2.2 4 0 11.7-.4 17.2s-1 13.7-1.3 18.3l-.5 8.2H512V0H274v3c0 4.3-2.9 11-4.8 11-.9 0-4-1-6.8-2.1l-5.1-2.1-4.8 2.1c-9.2 4.1-13.2 2-14.3-7.4l-.5-4.5H0zm237.9-53.9c3.4 1.2 4 2.4 1.5 3.3-3.5 1.3-5.4.7-5.4-1.9 0-2.9-.2-2.8 3.9-1.4"/><path d="M283.5 362.6c-2.2 6.9-4.3 12.8-4.7 13-.5.3-.8 2.3-.8 4.5v3.9h19l-3.1-4.4c-2.8-3.9-3.2-5.4-3.7-13.5-.2-5-.9-9.1-1.4-9.1s-.6-1.6-.2-3.5c.3-1.9.2-3.5-.2-3.5-.5 0-2.7 5.7-4.9 12.6"/></svg>