<svg xmlns="http://www.w3.org/2000/svg" width="682.667" height="512" version="1.0" viewBox="0 0 512 384"><path d="M0 192v192h225V276.5c0-59.1.2-107.5.4-107.5.3 0 1.7.5 3.3 1.1 1.5.6 5.7 1.9 9.3 2.8l6.5 1.7 2.5 8.5c3 10.2 3.2 10.6 7.1 11.4 4.3 1 7.5-1.5 9.2-7.2 3.3-11.1 4.1-12.1 9.4-12.8 2.6-.4 6.8-1.3 9.2-2.1 2.5-.8 4.6-1.4 4.8-1.4s.3 19 .4 42.2c0 23.3.4 43.1.8 44.2.5 1.4 2.2-1.1 6.9-10.5 3.5-6.8 6.5-13.5 6.8-14.9 2-11.3 4.5-28.4 5.4-37.8 1.4-14 1.2-14.4-7.1-13.5-3.2.3-5.9.3-5.9 0s2.7-6.3 6.1-13.4c9.5-20 12.9-28 12.9-29.8 0-.7 1-3.4 2.1-6.1 2-4.5 2.1-5 .6-9.3-.8-2.5-1.8-5.8-2.1-7.4-.4-1.5-2.4-5.7-4.6-9.2-9.6-15.8-17.5-34.5-17.2-41 .2-4.8 1.4-8.4 3-9 7.9-3.3 15.2-1.7 22.7 4.9 4 3.5 5.6 5.9 8 12.1l3 7.7 4-.5c3.2-.3 5.1-1.5 9.8-6 8.8-8.7 23.1-14.7 38.4-16.3 7.6-.8 22.4 1 29.3 3.7 7 2.6 13.9 5.9 14.5 6.9.2.4 1.9 1.1 3.7 1.5l3.3.7-2.7 1c-1.6.5-2.8 1.3-2.8 1.6 0 .4 2.3 3 5 5.9 2.8 2.9 5 5.9 5 6.8s-.5 1.3-1.1.9c-.7-.4-.7.1.1 1.6.9 1.7.9 2.1 0 1.5-.7-.4-1.3.1-1.7 1.4-.3 1.1-.9 1.8-1.4 1.5s-.9-.1-.9.4c0 .6.7 1.3 1.5 1.6 1.2.4 1.3 1 .5 2.5-.5 1.1-.7 2.7-.4 3.5.5 1.2.2 1.5-1.2.9-1.1-.4-1.5-.3-1 .5.4.6-.1 2.3-1 3.7s-1.3 2.5-.8 2.4 2.4.4 4.2 1.1c2.8 1 3.2 1.6 2.7 3.4-1.5 4.6-1.7 7.7-.6 9 .6.8 1.1 3.1 1.1 5.2-.1 2.2.4 7 .9 10.8 1.4 9 .5 10.4-8.3 13.5-9.8 3.4-9.7 3.4-7.6 13.8 1 4.9 2.1 10.4 2.4 12.5.6 3.1 1.4 4 5.6 6.2 2.7 1.4 6.3 3.4 8 4.5 5.8 3.5 31.7 30.1 38.9 40 1.8 2.5 5 8 7 12.1l3.6 7.5.1 17.9.1 17.9 10.9 2.7c6 1.5 11.7 3.1 12.7 3.5 1.6.7 1.7-6.6 1.7-144.4V0H287.1l-.3 10-.3 10-2.7-2.3c-2.5-2.1-2.6-2.5-1.8-8.2.4-3.3 1.1-6.8 1.5-7.8.6-1.5.1-1.7-4.4-1.7-5 0-5.1 0-5.1 3.1 0 1.8-.5 4.9-1.2 7-1.3 4.5-3.4 5-10.5 2.3-4-1.6-4.6-1.6-8.6 0-2.3.9-6.3 1.6-8.8 1.6-4.5 0-4.6-.1-5.7-3.9-.7-2.1-1.2-5.2-1.2-7 0-3.1-.1-3.1-5.1-3.1-4.5 0-5 .2-4.4 1.7.4 1 1.1 5.1 1.7 9.1 1.1 7.8.5 9.5-3.2 10.5-1.9.5-2 0-2-10.4V0H0zM230.2 70.5c1.7 3.2 4.6 10 6.5 15 1.9 4.9 4.5 10.6 5.6 12.5 2 3.1 2.2 4.7 1.9 14.4-.2 6.1-.9 12.3-1.6 14.1l-1.4 3.2-5.1-1c-4.3-.9-5.1-1.4-5.1-3.4 0-1.3-1.2-3.1-3-4.5l-3-2.2V90.1c0-19.9.3-28.1 1.1-27.1.5.8 2.4 4.2 4.1 7.5m57 20.7-.3 27.1-3 2.8c-1.6 1.5-2.9 3.6-2.9 4.8 0 1.7-.6 2.1-3.1 2.1h-3.2l.6-5.5c.6-6.3-1.1-7.2-2.9-1.5l-1.1 3.5-.7-3c-.4-1.7-1.2-4.2-1.8-5.7-2.1-5.5-1.5-13.1 1.4-18.4 1.4-2.7 3.8-8 5.2-11.8 2.8-7.4 10.3-21.6 11.4-21.6.4 0 .6 12.2.4 27.2M239.9 141c1.2.7 1.2.9.3 1-.8 0-2.8.6-4.5 1.4-3.2 1.3-8.5 3.7-9.9 4.4-.5.2-.8-1.8-.8-4.4v-4.7l6.7.7c3.6.4 7.4 1.1 8.2 1.6m47.1 3.1v5l-2.7-1.4c-1.6-.7-4.1-2-5.7-2.8s-2.9-1.9-2.9-2.4c0-1.6 4.5-3.5 8.1-3.5 3.2 0 3.2 0 3.2 5.1M509.5 333c.4.6.2 1.6-.3 2.3s-1.2 9.5-1.6 19.7-.9 20.9-1.3 23.7l-.6 5.3h6.3v-26c0-22.9-.2-26-1.6-26-.8 0-1.2.5-.9 1"/></svg>