<svg xmlns="http://www.w3.org/2000/svg" width="682.667" height="512" version="1.0" viewBox="0 0 512 384"><path d="M0 192v192h221V166.1l5.8 3c3.1 1.6 8 3.4 10.7 4 2.8.7 5.5 1.3 6.1 1.4.6.2 2.1 4.1 3.3 8.6 1.3 4.6 3 9.2 3.8 10.1 1.7 1.9 6.8 2.4 9.1.9.8-.4 2.8-4.8 4.5-9.7l3.2-8.9 7.2-1.2c3.9-.6 9.1-2.1 11.4-3.2 2.4-1.2 4.4-2.1 4.6-2.1s.3 24.5.3 54.4c0 30 .4 54.7.8 55 .4.2 1.9-1.6 3.2-4.2s5.5-10.3 9.3-17.1c13.2-23.8 14.8-27.9 18.2-47.6.8-5 2.1-14.1 2.9-20.2 1.5-13 1.6-12.8-8.1-12.4l-5.3.2 10.5-20.9c5.8-11.6 10.5-21.7 10.5-22.5s.9-3.6 2-6.1c1-2.5 1.6-4.6 1.1-4.6-.9 0-5.1-15.6-5.1-19 0-1.2-1.7-5.2-3.9-8.8-9.9-17.2-14.7-30.9-13.5-38.8.3-2.4 1.2-4.8 1.9-5.4 2-1.7 9.7-2.3 14-1.1 3.9 1 14.6 9 15.4 11.5.2.6 1.4 3.5 2.7 6.4s2.4 5.9 2.4 6.7c0 2.2 1.4 2.5 4.3 1 1.5-.8 2.7-1 2.7-.4 0 .5 2.6-1.7 5.8-4.9 12.7-12.7 35.1-18.9 56.5-15.5 10.3 1.6 24.3 6.6 26 9.4.8 1.2 2.3 1.9 4.4 1.9 1.8 0 3.3.4 3.3 1 0 .5-.9 1-1.9 1-2.7 0-3.7 2.1-1.8 3.5 1 .7 1.7 1.5 1.7 1.9s1.9 2.5 4.2 4.8c3.6 3.5 3.9 4.2 2.4 5-1.4.8-1.5 1.2-.5 2.4s1 1.5-.1 1.2c-.8-.2-1.9 1.1-2.5 3-.6 1.8-1.5 2.9-1.9 2.5-.5-.5-.6.9-.2 3.1.5 2.8.3 4.3-.9 5.6-2.2 2.4-1 4.7 3.1 5.4 2.4.5 3.4 1.2 3.4 2.6 0 1-.4 2.2-1 2.5-1.3.8-1.3 6.2.1 7 .6.4.9 2.4.8 4.4-.2 2 0 4.2.4 4.8.4.7.9 4.6 1.1 8.8.3 7.2.2 7.6-2.3 9.4-1.4 1-5.1 2.6-8.1 3.5-9 2.6-8.7 2.1-6.2 12.8 1.2 5.1 2.2 10.5 2.2 11.9 0 3.5 1.4 5 10.1 9.8 11 6.2 36.1 31.5 46.2 46.5 7.2 10.7 8.2 15 8.2 35.4 0 13.1.3 17.2 1.3 17.2.9 0 1.2-29 1.2-141.5V0H291v10.4c0 6.2-.4 10.7-1 11.1s-2.7-.6-4.6-2c-3.6-2.8-3.6-2.8-3.2-9.4.3-3.6.8-7.4 1.3-8.4.6-1.5.1-1.7-4.4-1.7H274l-.1 3.7c0 2.1-.6 5.4-1.3 7.3-1.2 3.1-1.7 3.5-4.5 3.2-1.8-.1-4.6-.9-6.3-1.8-2.8-1.5-3.5-1.4-9.5.6-8.5 2.9-11.6 2.2-13.2-2.9-.6-2.1-1.1-5.2-1.1-7 0-3.1-.1-3.1-5.1-3.1-4.5 0-5 .2-4.4 1.7.9 2.3 2.7 17.4 2.1 18-.9 1-8.1 3.1-8.8 2.6-.5-.2-.8-5.3-.8-11.4V0H0zM226.1 63.3c5.1 8.6 6.5 11.6 10.4 21.5 1.8 4.8 4.4 11.1 5.8 14.1 2.3 4.9 2.5 6.3 2.1 14-.3 4.7-1 10.5-1.6 12.9l-1.1 4.3-6.1-.6c-7.7-.8-8.7-1.1-8.1-2.7s-1.3-4.1-4.2-5.7l-2.3-1.2V88.5c0-17.3.3-31.5.8-31.5.4 0 2.3 2.8 4.3 6.3m64.9 26v30.4l-2.5 1.3c-1.4.8-2.9 2.7-3.3 4.4-.8 2.9-1.1 3.1-6 3.2-2.9.1-5-.1-4.7-.5.2-.4.6-3.1.9-5.9.4-4.1.2-5-.9-4.6-.7.3-1.7 1.9-2 3.5-.8 3.6-2.1 3-2.8-1.3-.3-1.8-1.1-5.9-1.7-9-1.2-5.6-1.1-6 2.3-13.5 2-4.3 5.1-11.5 7-15.9C280.4 74 289.2 59 290.5 59c.3 0 .5 13.6.5 30.3m-54.6 51.3c2.5.4 4.6 1.1 4.6 1.5 0 .5-.3.8-.7.7-2.1-.6-11 3.1-14.3 5.9-2.1 1.8-4.1 3.3-4.4 3.3s-.6-2.7-.6-6v-6h5.4c2.9 0 7.4.3 10 .6m54.6 5.9v6.5l-4.6-3.5c-2.5-1.9-5.3-3.5-6.2-3.5-1.8-.1-5.2-2.3-5.2-3.4 0-1.3 4.6-2.5 10.3-2.5l5.7-.1z"/></svg>