<svg xmlns="http://www.w3.org/2000/svg" width="682.667" height="512" version="1.0" viewBox="0 0 512 384"><path d="M0 192v192h201V140.9l11.8.6c19.2 1.2 27.8 2.1 26 2.8-1 .4-2.6 1-3.5 1.4-1 .4-2.2.7-2.8.8-4.4.5-12.9 8.4-14.1 13.1-1.4 5.4 5.7 10.9 18.1 14.1 7.8 2.1 7.9 2.2 11.7 14.3l2.3 7.5 4.6.3c5.7.4 6.2-.2 9.8-10.9l2.8-8.3 7.9-1.6c12.8-2.6 19.4-6.9 19.4-12.6 0-4-10.1-14-15.1-14.9-2.8-.6-5.2-2.6-4.2-3.6.7-.7 25.4-2.8 33.1-2.9h2.2v243h18.5c10.2 0 18.5-.2 18.5-.4 0-2.8 4.5-21 5.9-23.6 2.5-5 4.9-22.4 3.2-24.4-.9-1-.9-2-.3-3.3.6-1 1.3-4.1 1.7-6.8.9-6.7 2.8-13.1 7.2-24.5 5.3-13.8 10.1-19.5 47.4-57.5 23.9-24.3 28.6-29.6 35.7-40.2 8.5-12.9 13.7-25.4 16.1-38.8.6-3.3 1.3-7.2 1.6-8.7.4-2.3.1-2.7-2.4-3.3-1.6-.3-4.8-.6-7-.7-3.9 0-5.2-1-3.2-2.2.8-.5 4.8-7.2 8.9-14.6.7-1.4 1.9-3.2 2.6-4 2.7-3.2 5.5-10.9 7.1-19 .9-4.7 2.1-9.5 2.6-10.8.8-2 .6-2.2-2.3-2.2h-3.1l.7-21.3c.7-23.7 1-25.7 3.7-25.7 1.1 0 1.9-.4 1.9-1 0-1.4-4.9-9.9-8-14-4.7-6.1-5.2-8.8-3-15 2.2-6.3 4.5-8.6 9.9-9.5 11.6-1.9 24.9 5.4 31 17 5.4 10.6 6.1 9.3 6.1-11.5V0H311l-.2 64.7-.3 64.7-3.5.8c-5.6 1.4-30 2-30 .9 0-.6-.7-.8-1.6-.4-1.2.5-1.5.1-1.1-1.3.3-1 .9-4 1.3-6.7.7-5.5-1-6.6-2.8-1.6l-1.1 3.1-1.8-5.4c-3.4-10-3.4-12.2-.1-18.6 1.6-3.1 4.4-9.4 6.1-13.8 3.3-8.5 10.2-20.6 16.9-29.6 2.2-2.9 5.2-7.7 6.7-10.7 2.7-5.4 2.7-5.6 1.4-12.8-1.4-8-2-8.6-8.3-9.6-2.1-.3-5.4-1.6-7.3-2.9l-3.5-2.3.5-7c.3-3.9.9-8 1.2-9.3.7-2.1.5-2.2-4.4-2.2H274v4.1c0 5.6-2 12.9-3.5 12.9-.7 0-3.4-1-6.1-2.1-4.6-2.1-5-2.1-9.9-.5-6.5 2-12.9 2.1-14.5.1-.7-.8-1.5-4.4-1.8-8l-.5-6.5h-5c-4.7 0-4.9.1-4.3 2.2.4 1.3 1 6.2 1.3 10.9l.6 8.7-6.4 1.3c-6.2 1.4-6.3 1.5-7.1 5.2-.4 2.1-1.5 5.1-2.3 6.7-1.4 2.7-1.3 3.4.9 9.4 1.4 3.6 4 8.9 5.8 11.8 6.1 9.5 10.5 18.1 14.3 27.8 2 5.2 5 12.2 6.6 15.5 2.8 6 2.8 6 1.9 17.6-.5 6.4-1.3 12.4-1.6 13.4-.7 1.6-2 1.7-17.3 1.2-9.1-.3-18.2-1-20.1-1.4l-3.5-.9-.3-64.7L201 0H0zm501.5 35.3c-2.5 5.9-8 17-12.3 24.7-4.6 8.4-18.3 31.4-19.1 32-.4.3-2.2 3-4.1 6s-3.8 5.9-4.2 6.5c-.5.5-8.5 11.3-17.8 23.8-9.4 12.6-17.6 23.5-18.3 24.3-.6.7-1.6 1.9-2.2 2.6-.5.7-2.8 3.5-5.1 6.3-2.2 2.7-6.6 8.6-9.7 13s-7.2 10.1-9.2 12.7L396 384h40.5l3.6-9.8c2-5.3 4-10.6 4.4-11.7.8-1.9.8-1.9-1.2-.2l-2.1 1.8 1.9-5.7c2.2-6.7 18.3-38.9 25.9-51.9 2.9-5 6.1-10.5 7.1-12.2 1-1.8 3.6-6.1 5.7-9.5 11.2-18 22.9-41.3 26.3-52.3 2.7-8.6 2.2-9.9-1.2-3-2.7 5.5-3 5.3-1.3-.6.4-1.4.2-1.9-.5-1.5-.6.4-1.1 1.1-1.1 1.6 0 1.5-2 6.3-2.5 5.8-.2-.2.2-2.8 1-5.8s1.3-5.5 1.1-5.7c-.1-.1-1 1.6-2.1 4M481.7 380c-.8 2.2-1.2 4-.8 4 .8 0 3.3-7.1 2.7-7.7-.1-.2-1 1.5-1.9 3.7m-41.5.5c-1.4 3.1-1.5 3.5-.4 3.5.4 0 1.3-1.3 1.9-3 1.4-3.6.1-4-1.5-.5"/></svg>