<svg xmlns="http://www.w3.org/2000/svg" width="682.667" height="512" version="1.0" viewBox="0 0 512 384"><path d="M0 192v192h194V264.1c0-106.3.2-120 1.5-121.1 1.2-1 5.7-1.1 19.8-.6 10 .4 19.9 1 22.1 1.3l3.8.6-3.8 1.4c-2.2.8-4.7 1.6-5.6 1.8-4.6 1-13.8 9.9-13.8 13.3 0 5.2 9.1 11.1 20.2 13.3 5.6 1.1 5.7 1.2 7.2 5.8.8 2.5 2 6.6 2.6 9.1 1.5 5.8 3.6 8 7.5 8 4.1 0 6-1.6 7.5-6.5.7-2.2 2.1-6.3 3.2-9.2 1.9-5.1 2-5.2 6.6-5.9 13.6-2 22.2-7 22.2-12.9 0-3.7-8.6-12.3-14.4-14.3-2.7-1-5.1-2.2-5.3-2.8-.6-1.8 3.2-2.4 22.1-3.1 16.7-.6 18-.5 19.2 1.2 1.2 1.6 1.4 22.4 1.4 121.2V384h39c25.3 0 39-.4 39-1s-.5-1-1.1-1c-.5 0-.7-.6-.4-1.3.4-.6 0-.4-.8.5-2.8 3.5-3.4 1.7-1.2-3.8 1.2-3 2.8-6.1 3.4-6.7s1.1-1.7 1.1-2.4c0-.8 1.3-4 2.9-7.1s3.2-7.3 3.6-9.2l.6-3.5-2 4-2 4 .6-6c.6-6.8 2.8-19.1 3.8-21.8.6-1.3.3-1.6-1-1.1-1.4.6-1.3-.1.8-4.2 1.3-2.7 2.8-6.3 3.1-8.1.9-4 13.8-29.4 16.9-33 3.7-4.6 16.8-18.4 24.2-25.7 35.8-35 49.2-48.8 54-55.7 3-4.3 5.5-8.1 5.5-8.4s.9-1.8 2-3.3c1.9-2.6 2-4 1.8-25.7-.3-22.8-.3-23-2.5-23.3l-2.2-.3 2.5-3.6 2.4-3.6V0H318v64.9c0 50.9-.3 65.2-1.2 65.8-.7.4-10 1-20.5 1.1-14.7.3-19.3.1-19.3-.8s-.4-.9-1.6.1c-1.5 1.2-1.6 1-1.1-1.6 2.3-11.9 1.4-16.4-1.7-9.3-1.1 2.5-1.5 2.8-1.5 1.3-.1-1.1-.7-3.2-1.5-4.7-.8-1.4-1.7-4.5-2.1-6.7-.6-3.5-.2-5.1 2.4-10 1.7-3.3 4.4-9.4 6.1-13.7 3.7-9.3 8.9-18.4 16-27.9 2.9-3.9 6.4-9.3 7.8-12.2 2.5-5.1 2.5-5.2 1.1-13l-1.5-7.8-5.1-1.1c-2.9-.6-6.8-2.2-8.9-3.4l-3.7-2.3.7-6.6c.3-3.6.9-7.8 1.2-9.4.6-2.7.6-2.7-4.5-2.7H274l.2 4.2c.1 2.4-.4 6.2-1.1 8.5-1.3 4.8-3.4 5.5-8.1 2.8-3.2-1.8-8.8-1.8-12 0-2.9 1.7-7.8 1.9-11.3.6-2.7-1.1-4.4-6.7-3.8-12.9l.3-3.2H233c-5.2 0-5.2 0-4.6 2.7.3 1.6.9 6.5 1.2 11 .8 9.2 1.6 8.2-8.1 10.1-3.4.7-4 1.2-4.6 4.1-.4 1.8-1.4 5-2.4 7-1.6 3.7-1.6 3.9.9 10 1.4 3.5 4.4 9.2 6.7 12.8 5.5 8.8 11.3 20.5 15.4 31.3 1.8 4.8 4.3 10.6 5.4 12.8 1.9 3.7 1.9 4.8 1.1 15.4-1 12.3-1.6 14.7-3.4 14.9-3.7.4-37.9-.4-41.6-1l-4.5-.6-.3-65.3L194 0H0zm510 108.4c-.8 1.4-3 4.2-4.7 6.3-5 5.8-15.7 19.5-17.5 22.3-.8 1.4-4.2 5.7-7.4 9.5-3.3 3.9-7.4 9-9.2 11.2-5.1 6.3-6.7 8.2-13.5 15.6-11 12.2-13.9 15.2-12.6 13.3 1.2-1.7 1.2-1.9-.1-1.1-2.5 1.5-6 4.8-6 5.7 0 .4 15.1.8 33.5.8h33.4l1.1-3.9c.6-2.1 1.4-5.9 1.9-8.2.5-2.4 1.2-5.3 1.6-6.4l.8-2-1.6 2c-2.1 2.6-2.1 1.3-.1-2.6 2.6-5.1.9-4.4-2.1.8-1.6 2.6-3.5 5.7-4.2 6.8-1.4 1.9-1.5 1.9-.8-.4.4-1.3 1.4-4 2.3-6s1.7-4.2 1.8-4.9c.1-.6 1.4-4.9 2.8-9.5 2.6-7.9 2.6-8.9 2.4-30-.3-19.8-.4-21.5-1.8-19.3m-80.5 80.7c-1.9 1.9-2.5 2.9-1.5 2.8.8 0 2.5-1.3 3.8-3 3-3.7 1.6-3.7-2.3.2"/></svg>