<svg xmlns="http://www.w3.org/2000/svg" width="682.667" height="512" version="1.0" viewBox="0 0 512 384"><path d="M0 192v192h191V266.5c0-128.5-.3-122.6 5.7-124.1 2.7-.7 30 .4 39.3 1.5 5.1.7 5.3.8 2.5 1.6-1.6.4-3.5 1.2-4.2 1.7s-1.6.7-2.1.4c-2.3-1.4-14.2 9.8-14.2 13.4 0 5 8.7 10.6 20.2 13 5.6 1.1 5.7 1.2 7.2 5.8.8 2.6 2 6.7 2.6 9.2 1.5 5.8 3.6 8 7.5 8 4.6 0 6-1.6 8.9-10.5 1.4-4.4 3-8.6 3.4-9.2.4-.7 4.1-1.9 8.2-2.7 9.6-1.8 12.9-3.1 16.3-6.4 3.8-3.7 3.4-6.8-1.6-12.3-4.3-4.8-7.2-6.7-11-7.4-2.3-.5-5.4-3.1-4.5-4s19.8-2.4 30.6-2.5c9.9 0 10.4.1 12.7 2.6l2.5 2.7V384h54c53.3 0 54 0 52.8-1.9-.9-1.5-1.5-1.7-2.5-.9-2.1 1.7-1.6.3 4.1-11 4-8.1 5.5-12.2 5.9-16.7l.5-6-1.5 3.8c-1.8 4.3-3.9 5-2.8.9.4-1.5 1.1-5.4 1.6-8.7.8-5.9 2-11.6 3.5-16.5l.7-2.5-2.8 2.5-2.8 2.5 2.4-4.5c1.3-2.5 2.7-4.7 3-5s1.2-2.3 1.9-4.5 2.5-6.5 4-9.5c1.6-3 4.4-8.9 6.3-13 4.2-9.4 21-29 45.6-53.5l17.1-16.9V0H321v130.7l-3.7.6c-3.4.6-19.9.9-35.6.8-5.6-.1-5.7-.2-4.7-2.4 1-2 .9-2-.9.3l-2.1 2.5.7-5c1-7.1 1-10.4-.2-10.6-.5 0-1.4 1.4-1.9 3.1-.9 3-1 3-3.3-4.1-1.2-3.9-2.3-7.8-2.3-8.6 0-.7 1.3-4 3-7.3 1.6-3.3 4.3-9.3 5.9-13.4 3.4-8.4 9.2-18.5 16.1-27.8 6.3-8.4 10.1-15.5 10.1-18.7 0-1.4-.6-5.3-1.4-8.6l-1.4-6-5.2-1.1c-2.8-.7-6.8-2.3-8.7-3.6-3.6-2.3-3.6-2.3-3-8.3.3-3.3.8-7.5 1.2-9.3l.7-3.2H274l.2 4.2c.1 2.4-.4 6.2-1.1 8.5-1.3 4.8-3.4 5.5-8.1 2.8-3.2-1.8-8.8-1.8-12 0-2.9 1.7-7.8 1.9-11.3.6-2.7-1.1-4.4-6.7-3.8-12.9l.3-3.2H233c-5.2 0-5.2 0-4.6 2.7.3 1.6.9 6.5 1.2 10.9l.7 8.2-6.4 1.4c-6.2 1.4-6.4 1.5-7.1 5.2-.5 2.1-1.6 5.1-2.5 6.6-1.5 2.7-1.5 3.1.6 8.8 1.3 3.3 4.3 9.4 6.9 13.4 6 9.6 11.5 20.9 15.7 31.8 1.8 4.8 4.3 10.6 5.4 12.8 1.9 3.7 1.9 4.8 1.1 15.6-.6 6.5-1.4 12.5-2 13.6-.9 1.7-2.3 1.8-23.2 1.3-12.3-.3-23.5-.6-25-.7l-2.8-.1V0H0zm504.4 158.7c-8.7 11.3-11.9 15-21.7 25l-8 8.3H512v-21c0-11.6-.2-21-.4-21s-3.5 3.9-7.2 8.7"/></svg>