<svg xmlns="http://www.w3.org/2000/svg" width="682.667" height="512" version="1.0" viewBox="0 0 512 384"><path d="M0 192v192h156V0H0zM228.8 6.2l-.3 6.3-6 1.5c-6.5 1.6-7.5 2.3-7.5 5.8 0 1.3-1 4-2.2 6.1l-2.1 3.7 3 7.5c1.7 4 6.1 12.8 9.9 19.4s8.2 15.4 9.8 19.5 4.5 11.1 6.5 15.5l3.6 8-.3 13.9c-.1 7.6-.7 14.7-1.3 15.7-.9 1.8-2.6 1.9-27.5 1.6-26.5-.2-26.5-.2-27 2-.3 1.2-1.4 2.9-2.5 3.8-2 1.9-4.5 8.3-3.5 9.2.3.3 1.2 0 2.1-.7 2.3-1.9 1.8.5-.8 3.7-3.1 3.7-4 6.3-2.2 6.3 1.4 0 7.3-6.7 9.4-10.8 1.1-2.1 1.5-2.2 17.4-2.1 8.9.1 20.3.4 25.2.8 8.7.6 9 .7 9.3 3.2.3 2.3 0 2.5-2.6 2.1-5.1-.7-13.7 2.5-18.1 7-4.6 4.6-5.1 7.5-1.8 10.5 3.3 3.1 5.8 4.1 14.8 6.3 4.5 1 8.3 2 8.4 2.2.4.5 4.4 13.1 5.5 17.8 1.6 6.3 3.5 8 8.5 8 2.4 0 4.7-.6 5.3-1.3.5-.6 2-4.6 3.2-8.7 3-10.1 5.5-14.9 8.3-15.4 1.2-.3 5.1-1 8.7-1.6 9.6-1.8 16-5.4 16-9.2 0-1-1.9-3.9-4.3-6.3-4.1-4.1-8.7-6.6-14.9-7.9-2.3-.5-2.5-.9-1.9-3.3.5-2.1 1.6-2.9 4-3.4 4.8-1 36.6-2.1 39.5-1.3 1.7.4 3.6 2.4 5.6 5.9 3.8 6.7 5.3 8 7.7 6.6 1-.6 1.3-1.1.6-1.1s-1-.6-.8-1.3c.3-.6-.6-2.1-2-3.1-2.8-2.1-3.4-3.9-1-3 2.3.9 1.9-2.1-1-7.8-1.4-2.7-2.5-5.6-2.5-6.3 0-.8-.3-1.6-.7-1.8-.5-.2-7.1 0-14.8.4-7.7.5-18.2.6-23.3.2l-9.3-.6.5-2.6c.6-2.5.6-2.6-1-.6-1.6 1.9-1.6 1.9-.9-1 1.2-4.8 1.4-13.4.4-14-.5-.4-1.4.6-2 2.2l-1.1 2.8-1.8-4.1c-1-2.3-2.3-4.5-2.9-4.8-1.9-1.2-1.2-6.5 1.8-12.4 1.6-3.1 4.3-9.3 6.2-13.7 3.6-8.8 10.5-20.5 17.4-29.7 10.1-13.2 12-18.9 9-27.3-.8-2.2-1.5-4.8-1.5-5.7 0-2.1-2.2-3.3-7.5-4.2-2.2-.4-5.7-1.9-7.9-3.4-3.7-2.5-3.8-2.8-3.2-6.9L285 0h-4.6c-4.1 0-4.6.3-5.5 3-1.3 3.6-4.5 3.9-12 1.3-4.5-1.6-5.1-1.6-9.6 0-8.6 3.1-15.3 2-15.3-2.5 0-1.5-.8-1.8-4.5-1.8h-4.4zM356 192v192h156V0H356z"/></svg>