<svg xmlns="http://www.w3.org/2000/svg" width="682.667" height="512" version="1.0" viewBox="0 0 512 384"><path d="M0 192v192h149V0H0zM228.6 3.8c.5 3.4.3 3.9-2 5-1.5.6-4.5 1.5-6.7 1.8-4.1.7-5.9 2.6-5.9 6.4 0 1.2-1 3.8-2.1 5.8l-2.2 3.7 2.2 4.7c1.1 2.6 2.1 5.1 2.1 5.5 0 .5 3.1 6.3 6.9 12.9 8.1 14.3 11.1 20.7 15.6 33 1.8 5 4.3 11 5.4 13.3 2 3.9 2.1 5.1 1.5 17.4-.4 7.3-1.1 14-1.6 15-.8 1.7-2.9 1.8-28.1 1.6-25.7-.1-27.2 0-27.5 1.8-.2 1-.9 2.3-1.6 2.8-1.5 1.1-5.6 8.9-5.6 10.5 0 1.4 2.7 1.3 3.3-.3.4-.8.6-.8.6.2.1.8-.9 2.5-2.1 3.8-2.6 2.8-3.4 6.3-1.4 6.3 1.4 0 7.7-8 8.9-11.1.3-.9 2-1.9 3.9-2.2 4.1-.8 47.2.8 48.7 1.7.6.4 1.1 2.1 1.1 3.7 0 2.7-.3 3-2.2 2.4-3.1-1-2.8-1-7.8-.1-2.5.5-5.7 1.4-7.1 2.2-2.8 1.4-8.9 7.9-8.9 9.4 0 4.2 5.5 7.7 16.9 10.4 9.9 2.4 9.4 1.8 14 17.4 3.1 11 4.7 13.1 9.5 13.2 4.4 0 6.4-2.5 9.2-11.4 3-9.6 5.3-14.6 7.4-15.7.8-.4 5.2-1.4 9.8-2.2 16.4-3 19.9-7.2 12.2-14.8-3.9-3.9-9.4-6.9-13.5-7.4-1.1-.1-2.3-.3-2.7-.4-.5 0-.8-1.6-.8-3.5 0-2.3.6-3.6 1.7-4 .9-.4 11.5-1 23.5-1.3l21.7-.6 1 2.4c1.7 4.5 7.1 10.9 9.1 10.9 1.7 0 1.8-.3.9-3-.6-1.7-1.7-3-2.5-3s-1.4-.7-1.4-1.5.5-1.5 1-1.5c1.6 0 1.2-2.8-1.4-8.3-1.3-2.9-2.7-6-3-7.1-.5-1.3-1.2-1.7-2.9-1.2-3.5 1-35.8 2-40.8 1.2-4.3-.6-4.6-.8-4.2-3.4.4-2.1.2-2.4-.6-1.2-1.8 2.6-2 .6-.6-6.8 1.6-8.2 1.1-12-1.1-8.1-.7 1.3-1.3 3.2-1.4 4.2 0 2.3-2 1.2-2-1.1 0-.9-.9-3.2-2.1-5.1-1.6-2.7-2.3-3.1-3-2-.6 1-.9.3-.9-2.2 0-2.1 1.2-5.9 3-9.3 1.7-3.1 4.4-9.1 6.1-13.4 3.7-9.5 9.2-18.8 18.2-31.2 3.8-5.2 8-11.6 9.3-14.2 2.5-5 3.1-10.2 1.3-11.3-.6-.4-.8-1.3-.5-2.1.3-.7.1-1.6-.4-1.9-.6-.4-1-2.2-1-4 0-3.9-1.3-4.9-7.8-5.9C291 9.7 286 6.2 286 2.7c0-2.6-.2-2.7-5.5-2.7-3.4 0-5.5.4-5.5 1.1 0 .8-1.6.9-5.2.4-6.3-.9-16-.9-24.2 0-3.7.5-6.2.3-6.9-.4-.6-.6-3.3-1.1-5.9-1.1H228zM363 192v192h149V0H363z"/></svg>