<svg xmlns="http://www.w3.org/2000/svg" width="682.667" height="512" version="1.0" viewBox="0 0 512 384"><path d="M0 192v192h142V0H0zM228 1.6c0 1.7-4.5 3.8-10.3 4.9-3.9.8-5.5 3.4-4.3 7.3.4 1.2-.1 2.5-1.4 3.7-2.3 2.1-2.6 6.7-.7 11 1.7 3.9 7.2 14.8 14.5 28.6 3.4 6.4 7.7 15.8 9.6 21s4.6 11.9 6 15c2.5 5.4 2.6 5.8 1.8 19.6-.5 8.7-1.3 14.7-2 15.6-1.1 1.3-5.2 1.5-27 1.4-14.1-.1-26.5-.6-27.4-1.1-1.4-.6-1.8-.4-1.8 1.2 0 1.1-1.6 3.9-3.5 6.2-2.3 2.8-3.5 5.2-3.5 7.2 0 2.6.2 2.9 1.5 1.8 2.4-2 1.9 1-.7 3.7-2.6 2.8-3.4 6.3-1.4 6.3 1.3 0 6.5-5.9 9.9-11.3 1.7-2.6 2.1-2.7 10.1-2.7 4.5 0 16.5.3 26.5.7l18.2.6-.3 4.1c-.2 3.1-.7 4-1.8 3.7-3.5-1.1-12.4 0-15.9 1.9-2.6 1.3-9.1 7.7-9.1 8.9 0 .5.9 2 2 3.4 2.1 2.7 5.6 4.2 17.8 7.8l7.2 2.1 3 9.6c1.6 5.4 3.2 10.9 3.5 12.4 1.1 4.3 4.1 6.8 8.4 6.8 5 0 6.2-1.6 9.5-12 1.5-4.7 3.7-10.3 4.9-12.4 2.2-4 2.3-4 11.8-5.7 13.2-2.3 18.8-5.5 17.4-9.8-1.4-4.5-15.5-13.5-18.3-11.7-.5.3-1.7 0-2.7-.8-1.5-1.1-1.6-1.7-.6-4.8 1-3 1.7-3.6 4.9-4.2 6.2-1 41.6-1.8 42.7-.9.6.4 2.3 2.8 3.7 5.3 3.6 6.1 6.5 9.1 8.3 8.3 1.2-.4 1.3-.9.4-1.9-.9-1.1-.8-1.4.2-1.4.8-.1-.2-1.4-2.1-3-2.6-2.3-3-3-1.6-3 2.3 0 1.6-3.3-1.9-10.1-1.3-2.6-2.2-4.9-1.9-5.1.2-.3-.2-1-.9-1.6-.9-.8-2.4-.9-4.8-.2-1.8.6-12.5 1-23.6 1-22 0-21.4.1-19.3-5.4 1.3-3.4.5-3.3-1.5.1-1.6 2.8-1.6 2.8-1.1.3 1-5 1.8-17 1.2-17-.3 0-1.3 1.7-2.2 3.7l-1.6 3.8-1.4-3.9c-1.8-5-3.2-6.6-5-5.9-2.7 1-1.6-6.4 2-13.5 1.9-3.7 5.1-10.7 7.2-15.6q6-14.1 18.3-30c8.6-11.1 13.4-23.1 10.1-25.1-.6-.4-.8-1.5-.5-2.5s.2-2.1-.3-2.4c-.6-.3-1.3-2.1-1.6-4-.7-3.6-2.2-4.5-10.6-6.1-1.9-.4-4.9-1.8-6.7-3.1L286.1 0h-29C231.5 0 228 .2 228 1.6M370 192v192h142V0H370z"/></svg>