<svg xmlns="http://www.w3.org/2000/svg" width="682.667" height="512" version="1.0" viewBox="0 0 512 384"><path d="M0 192v192h120V0H0zM207.7 1.8c-1 1-1.7 3-1.7 4.5 0 3.4 6.6 18.4 12.9 29.5C225.3 47 230.2 57.6 235 71c2.1 5.8 4.8 12.6 5.9 15.2 2 4.4 2.1 5.8 1.5 21-.4 9-1 17-1.5 17.8-.6 1.4-4.8 1.6-31.3 1.5-30.6 0-30.6 0-30.6 2.1 0 1.2-1.1 2.9-2.5 3.8-3.5 2.3-7.3 10.2-5.7 11.8.9.9 1.5.8 2.7-.8s1.4-1.7 1.5-.2c0 .9-1.1 2.9-2.4 4.5-1.3 1.5-2.6 3.8-3 5-2 6.4 8.1-1.7 12-9.7 2.1-4.1 6-4.5 33.5-3.2 12.7.6 23.7.8 24.6.5 2.2-.9 3.3 1.5 3.3 7.3 0 5.1 0 5.1-3.6 5.7-2 .4-4.6.1-5.6-.4-1.1-.6-3.2-.7-4.6-.3-1.5.4-4.2.8-6 .9-2.4.1-4.4 1.3-7.4 4.4l-4.2 4.2 2.1 2c1.1 1.2 5.5 3.3 9.7 4.8 5.6 2 8.1 3.4 8.9 5.2.9 1.7 2.5 2.7 5.5 3.3l4.2.9 3.1 10.1c5.4 17.8 7.2 20.6 13.5 20.6 5 0 7.2-2.6 9.9-11.8 3.2-10.9 7-19.2 8.9-19.2.8 0 1.6-.7 1.8-1.7.2-1.2 2.6-2.1 9-3.4 12.2-2.5 16.1-3.6 18.3-5.3 2-1.4 2-1.5-.2-3.8-1.3-1.4-2.3-3-2.3-3.7s-.4-.9-1-.6c-.5.3-1 .3-1-.2 0-2.2-14.3-6.6-18.2-5.5-1.6.4-2 .1-1.6-.9.3-.8 1.1-4 1.8-7.1 1.3-5.7 1.3-5.7 5.4-6.3 15.4-2 46.6-2.3 48-.3.2.1 1.7 2.9 3.5 6 1.8 3.2 4.1 6.4 5.2 7.2 2.5 1.7 6.5 1 4.9-.9-.5-.6-.7-1.5-.3-1.9.4-.3-.8-1.8-2.5-3.3-2.4-2-2.9-2.9-2.1-3.9 1.3-1.6.4-6.9-1.9-10.4-.8-1.3-1.8-3.8-2.2-5.5-.5-2.7-1-3-4.1-2.8-1.8 0-11.9.7-22.4 1.3-25.7 1.6-27.2 1.2-25.1-7.5l.7-3-2 2.9-2 3v-6.3c0-3.5.7-8.1 1.4-10.2 1.9-5.2 0-6.2-2.2-1.2l-1.6 3.8-1-3c-1.3-4-5-9.1-5.5-7.7-.2.7-.8 1-1.3.6-.5-.3-.9.5-.9 1.7 0 2.1 0 2.1-2-.4-2.8-3.5-2.5-5.6 1.4-12.1 1.9-3.1 5.3-10.2 7.6-15.7 5-11.7 11.5-22.3 22.6-36.9 4.4-5.8 9-12.8 10.3-15.5 2.5-5.3 3.1-11.6 1.3-13.8-.9-1-.8-1.7 0-2.5.9-.9-11.5-1.2-53.3-1.2-51.6 0-54.7.1-56.2 1.8M392 192v192h120V0H392z"/></svg>