<svg xmlns="http://www.w3.org/2000/svg" width="682.667" height="512" version="1.0" viewBox="0 0 512 384"><path d="M0 192v192h106V0H0zM206.5 2.2c.4 1.3 5.8 12.6 12.1 25.1 6.2 12.5 12.4 26.2 13.8 30.5 1.3 4.2 4.2 12.2 6.4 17.7l3.9 10-.4 18c-.4 12.9-.9 18.4-1.8 19.5-1.2 1.3-6 1.5-32.2 1.5-16.9 0-31.5-.2-32.3-.5-1.1-.4-1.5.2-1.5 2.1-.1 1.7-1.2 3.6-3.2 5.3-4.9 4.2-8.8 14.5-4.8 13 .8-.4 1.5-1.2 1.5-2s.5-1.4 1.1-1.4c1.8 0 .3 5.3-2.6 9.6-1.7 2.6-2.2 4.1-1.5 4.8 1.3 1.3 9.9-7 12.6-12.2 1.3-2.3 2.9-3.8 4.9-4.4 3.1-.8 38.3-.3 53.3.8l8.2.6v7.1c0 4-.4 7.8-.9 8.5-.4.7-2.3 1.2-4.4 1-2-.1-3.9.1-4.2.4-.4.4-2.1 0-3.8-.7-1.9-.7-5.5-1.1-8.5-.9-4.6.4-5.8.9-8.8 4-1.8 2-3.2 3.9-3 4.3.3.4 3.3 1.9 6.8 3.5 3.5 1.5 7.4 3.3 8.7 4 1.3.6 2.9 2.6 3.6 4.4 1.3 4 3 5.1 8.6 5.5l4.2.3 2.8 9.1c5.7 18.7 8.8 23.3 15.9 23.3 5.9 0 7.8-2.3 10.6-12.8 2.8-10.6 6.8-20.2 8.3-20.2.6 0 1.1-.9 1.1-2 0-2.3 2-3.5 7.5-4.4 6.2-1.1 22.9-5.8 24.3-6.9 1-.8.8-1.5-.8-3.2-1.1-1.2-2-2.6-2-3.2s-1.5-1.4-3.2-1.8c-1.8-.4-5.2-1.3-7.6-2.1-2.3-.8-5.7-1.4-7.5-1.4-5.7 0-5.9-.8-3.4-9.5 2.3-8 2.3-8 6.2-8.7 2.2-.4 14.6-1.1 27.6-1.4l23.5-.7 2.8 5.6c3.8 7.8 7.9 12.1 10.8 11.2 3-1 3.6-1.7 2-2.2-.6-.3-1-.9-.7-1.4.8-1.3-1.3-4.9-2.9-4.9-.8 0-1.9-.7-2.6-1.5-1-1.2-1-1.5 0-1.5 1.6 0 .8-6.4-1.3-11.1-.9-1.9-1.7-4.5-1.9-5.9-.5-4.3-3-5.3-10.1-4.1-7.7 1.2-41.6 2.6-45 1.7l-2.5-.6 1.9-5c2.4-6.3 2.4-8.2 0-5l-1.9 2.4-.7-3.8c-.7-3.7-.1-12.9 1.1-16 .3-.9.1-1.6-.4-1.6-.6 0-1.3.9-1.7 1.9-.7 2.4-4.5 1.7-4.5-.9 0-2-3.6-7-5.1-7-.5 0-.8.3-.8.7.1.5 0 1.9-.1 3.3-.2 1.8-.4 2-.7.7-.6-2.3-1.2-2.2-4.5 1l-2.8 2.7v-4.1c0-3.1 1.1-6 4.3-11.5 2.4-4 6.4-11.9 9-17.6 7-15.6 10.7-21.7 21.9-36.1C314.9 17.9 321 9.3 322.8 6l3.3-6H205.9zM406 192v192h106V0H406z"/></svg>