<svg xmlns="http://www.w3.org/2000/svg" width="682.667" height="512" version="1.0" viewBox="0 0 512 384"><path d="M0 192v192h99V0H0zM208 .6c0 .3 4.4 9.4 9.8 20.2 5.4 10.9 11.5 24.9 13.6 31.2s5.3 15.2 7.2 19.8L242 80v19.8c0 10.8-.5 20.4-1 21.2-.7 1.1-3.4 1.6-10.7 1.8-16.6.6-51.7.7-54.3.2-2.1-.4-2.5-.1-2.8 2.3-.2 1.8-1.2 3.2-2.8 3.9-2.6 1.2-8.4 10.3-8.4 13.2 0 2.3 1.9 2 4.1-.7 1.4-1.7 1.8-1.8 1.9-.6 0 2.7-2.3 8.3-3.9 9.6-.9.7-1.1 1.3-.6 1.3.6 0 .3.5-.5 1-1.2.7-1.2 1.2-.2 2.2s2.4 0 7.1-4.6c3.3-3.3 6.3-7.1 6.6-8.5.4-1.4 1.2-2.9 1.8-3.3 1.4-.9 49.1-.8 59.2.1l7 .6.3 6.8c.2 5.5-.1 7.5-1.8 10.2-2.1 3.4-2.3 3.4-8 3.1-3.2-.2-6.2-.6-6.8-1-.5-.3-3.9-.8-7.6-1.1-5.6-.4-6.6-.3-6.6 1.1 0 1.9-2.4 4.4-4.1 4.4-2.8 0 1.9 3.1 9.7 6.5 7.1 3.1 7.9 3.7 8.2 6.4.4 4 4.4 7.1 9.1 7.1 2 0 4.1.4 4.7.8s2.4 4.5 3.9 9.2c6.3 19.2 9 22.8 17.4 23.2 4.6.2 5.5-.1 7.1-2.2 1.1-1.4 2.8-6.5 4-11.4 1.1-4.9 3.4-11.7 5-15.1 1.7-3.5 3-6.8 3-7.4 0-1.9 4.4-4 12-5.6 10.5-2.2 23-6.4 23-7.8 0-.7-.9-1.8-2-2.5s-2-1.8-2-2.6c0-1.5-4.5-3-6-2.1-.5.3-1.8.1-2.8-.4s-4.9-1.2-8.6-1.4c-3.7-.3-6.9-.7-7.1-.9-.3-.3.7-4.7 2.3-9.8 2.6-9.2 2.8-9.4 6.1-10.1 5.6-1.2 48.4-3.3 51.2-2.6 1.9.5 3.4 2.2 5.4 6.2 4.8 9.8 8.2 12.7 12.9 10.9 1.3-.5 1.4-.9.5-2-.8-1-.8-1.4 0-1.4.6 0 1.1-.5 1.1-1 0-.6-.7-1-1.5-1s-1.5-.7-1.5-1.5-.8-1.5-1.9-1.5c-1 0-2.4-.6-3-1.4-1-1.1-.9-1.6.4-2.4 1.5-.8 1.5-1.4.4-5.3-.7-2.4-1.6-4.9-2-5.4-.4-.6-1-2.9-1.4-5.2-1-6.2-2.2-6.8-10.8-5.5-13.3 2-47 3.1-48.6 1.6-.2-.2.6-2.9 1.8-6 2.6-6.8 2.7-8.7.2-5.5l-1.9 2.4-.7-6.1c-.4-3.4-.4-9-.1-12.5.6-5.9.6-6.1-.9-3.5-1.7 3.1-4 2.8-5.1-.5-.8-2.6-4.5-7.7-5.5-7.7-.4 0-.5 1.9-.3 4.2.4 3.4.2 3.8-.5 2.1-1.4-3.1-4.3-2-6.3 2.5l-1.8 3.7.4-3.3c.2-2.5-.1-3.2-1.2-2.7-2.3.9-.6-4.1 4.1-12 2.4-3.9 5.6-9.9 7.1-13.5 8.9-20.2 12.9-26.8 26.6-44 8.2-10.2 12-15.5 12-16.4 0-.3-26.5-.6-59-.6-32.4 0-59 .3-59 .6M413 192v192h99V0h-99z"/></svg>