<svg xmlns="http://www.w3.org/2000/svg" width="682.667" height="512" version="1.0" viewBox="0 0 512 384"><path d="M0 192v192h85V0H0zM214 .6c0 .3 2.2 5.1 4.9 10.7 4.5 9.5 10 24.4 15.1 41.2 1.2 3.8 3.5 10 5.1 13.7l2.9 6.6-.5 23.3c-.3 12.8-.6 23.4-.8 23.6-.7.7-32.5 1.8-51.5 1.8H169v2.7c0 1.8-.9 3.3-3 4.8-4.5 3.2-10.1 15-7.1 15 .5 0 1.5-1 2.4-2.3 1-1.5 1.8-1.9 2.6-1.2 1.3 1.3-1.3 10.8-3.5 12.5-1.7 1.5-1.8 4-.1 4 2.1 0 13.7-12.4 14.6-15.5.6-2.3 1.5-3.1 4.2-3.7 2.5-.5 62.3-.4 68.2.1.4.1.7 3.5.7 7.6 0 7.4-.1 7.7-3.9 11.8l-3.9 4.1-14.1-.2c-9.6-.1-14 .2-13.5.9.3.6-.4 1.3-1.5 1.6-1.8.5-1.9.8-.9 2.1 1.1 1.3 1 1.5-.4.9-1-.3-2-.2-2.2.2-.3.4 3.7 2.5 8.9 4.6 9.1 3.7 9.4 3.9 8.8 6.6-.6 3.2 1.5 7.2 4.8 8.9 1.1.6 4.7 1.4 8 1.8l6 .7 2 6c3.1 9 8.5 19.8 11.8 23.4 2.7 2.8 3.4 3.1 9.3 3.1 5.4 0 6.8-.4 8.5-2.3 2.4-2.6 3.9-7.1 4.8-14.5.6-5.3 6.6-23.7 8.3-25.4.5-.5 4.6-1.8 9.2-2.9 9.3-2.2 26-7.7 27.5-9 .5-.5-.3-.9-1.9-.9-2.4 0-2.7-.2-1.6-1.5 1-1.3.9-1.5-1-1.5-2.2 0-2.2-.1-.6-1.9 1.7-1.9 1.4-1.9-12.8-1.7-8 0-14.6-.1-14.6-.4 0-1.2 7.9-24.2 8.5-24.8.7-.7 5.2-1.2 35.1-3.2 10.4-.7 20.2-1 21.7-.6 2 .5 3.4 2.2 5.8 7.1 1.8 3.6 4.7 7.9 6.5 9.6 2.7 2.7 3.6 3 6.8 2.4 3.1-.6 3.5-1 2.4-2.2-.9-1.1-.9-1.6.1-2.3 1.1-.6 1-.9-.2-1.6-.9-.5-1.5-1.2-1.4-1.7.1-.4-1.4-1.5-3.3-2.5-2.6-1.3-3.4-2.2-3.2-3.9.3-1.8-.8-8.5-3.3-20.3-.5-2.6-3-5-5.1-5-.7 0-2.5.5-4.1 1.1-2.7 1.1-13.9 2.2-37.2 3.5-8.5.5-11.2.4-10.7-.4.9-1.6-1.7-1.5-3.2 0-2.4 2.4-2.1-.1 1.3-8.7 1.9-4.9 3.3-9 3.1-9.2s-1.3.7-2.4 2.1l-2 2.6v-6.3c-.1-3.4-.5-7.6-1-9.2-.5-1.7-.5-4.1-.1-5.5s.7-3.4.7-4.5c0-1.4-.3-1.1-1.3 1.1-.8 1.7-2.3 3.4-3.4 3.7-1.7.4-2.2-.2-3-3-1-3.4-4.6-8.3-6.2-8.3-.4 0-.5.8-.2 1.8.2 1-.5 2.6-1.6 3.6-1.6 1.5-2.1 1.6-2.1.5-.1-.8-.8-.1-1.8 1.6-1.6 2.9-1.7 3-2 .6-.4-2.3-.4-2.3-3.4 1-1.8 2.1-2.7 2.7-2.4 1.5.6-1.6.4-1.7-.9-.6-3.1 2.6-1.6-3.5 2.5-10.1 5.3-8.4 10.3-18.1 15-29 5.1-11.8 9.8-19.5 19.2-31.2l7.7-9.7H269c-30.3 0-55 .3-55 .6m25.5 179.5c1.5 1.4-.7 1-3.5-.7l-2.5-1.5 2.5.7c1.4.3 2.9 1 3.5 1.5M427 192v192h85V0h-85z"/></svg>