<svg xmlns="http://www.w3.org/2000/svg" width="682.667" height="512" version="1.0" viewBox="0 0 512 384"><path d="M0 192v192h78V0H0zM218.6 3.7c4.6 10.5 9.8 25 12.5 35.1 1.7 6.3 4.4 14.6 6.1 18.5 5 12 5.1 13.1 4.2 27.7-.8 13.1-.9 25.9-.2 31 .3 2.4.1 2.5-5.7 2.6-3.3 0-10.9.6-17 1.2-10.1 1.1-39.9 1.7-47 1-2.7-.3-3.1 0-3.5 2.9-.3 1.8-1.6 4-3.2 5.2-4.3 3.4-10.6 16.1-8 16.1.6 0 1.9-1.2 3-2.8 1.4-1.8 2.4-2.4 3.1-1.7 1.2 1.2-.9 10.3-3.3 14-2.9 4.4.2 3.6 6.3-1.7 5.5-4.8 8.1-8.3 9.5-13 .8-2.6 6.2-2.9 41.1-2.6l32 .3.5 7.8c.3 4.2.2 7.7-.2 7.7s-1 1-1.3 2.2c-.4 1.5-2.4 3.2-5.4 4.7-4 2-5.1 2.1-7.1 1.1-1.3-.7-3.8-.9-5.9-.6-2 .3-5.6.8-8.1 1.1-2.5.2-5.4.6-6.5.7-2.2.3-6.7 4.3-5.8 5.2.4.3-.1.6-1 .6-2.5 0-2.1 2.7.6 4.1 1.2.7 5.4 2.5 9.2 4 6.4 2.4 7 2.9 6.7 5.2-.2 1.4.2 3.6.8 4.7 1.8 3.3 9.2 6.2 15.1 5.9l5-.3 2.3 6.5c6.9 19.6 14.1 27.9 24.3 27.9 7.1 0 11-4.9 12.4-15.5 1.8-13.4 5.4-26.5 8.1-29.1.7-.7 5.1-2.2 9.8-3.3 4.7-1.2 13.4-4 19.4-6.4 10.3-4 10.7-4.2 7-4.5l-3.9-.3 2.5-2 2.5-1.9h-2.4c-2.3 0-2.3-.1-.7-1.9 1.7-1.9 1.4-1.9-14.3-1.5l-15.9.4 4.4-12.7c2.5-7 5-13 5.5-13.3.5-.4 7.5-1.2 15.7-1.8 8.1-.7 19.7-1.8 25.7-2.4 6.1-.6 12.7-.8 14.7-.4 3.4.6 4 1.3 6.8 7.2 3.4 7 9.7 14.4 12.3 14.4 1 0 1.7-.5 1.7-1.1s.9-.8 2-.4c2.1.7 2.8-.9.8-2.1-.8-.5-.6-1.1.6-2 1.6-1.1 1.6-1.3-.3-1.9-1.2-.4-1.8-1.2-1.4-2.1.3-.9-.1-1.4-1.4-1.4-3.1 0-6.5-3-6-5.2.3-1 .1-3.3-.4-5.1s-1-5.4-1-8.1c-.1-5.3-1.9-10.5-4.4-12.6-1.4-1.1-2.7-1.1-8.3.3-3.7.9-12.3 2.1-19.2 2.7-30.5 2.6-27.4 2.6-26.1.2 1.8-3.3 1.3-3.5-2.2-.8-1.9 1.5-3.7 2.6-4 2.6-.7 0 .5-3.4 2.8-8.5 1.8-3.8 4.5-11.4 4.5-12.7 0-.6-.8 0-1.8 1.3-1.9 2.2-1.9 2.2-2.7-5.7-.4-4.3-.8-10.4-.7-13.4.1-4.4-.1-5.1-1-3.6-1.5 2.7-4.1 5.6-5 5.6-.4 0-1.3-2-1.9-4.5s-1.5-4.3-1.9-4-1.5-.6-2.4-2c-2-3.1-4.2-3.4-2.5-.4.8 1.7.8 2.3-.2 3-.7.4-1.6.6-2 .4-.3-.3-1.2.7-1.9 2-1.8 3.3-4.4 4.3-3.4 1.2.6-2.1.5-2-2.3.5-1.6 1.6-3.4 2.8-4 2.8s-2.2 1.7-3.5 3.7c-1.7 2.9-2.4 3.4-2.6 2-.8-4.2 2-11.9 7.4-20.3 3.1-4.7 7.2-12.3 9.1-16.8 5.7-13.5 13.2-27.6 18.1-34.4 2.6-3.5 5.3-7.3 6.1-8.3C321.2 0 320 0 269.1 0H217zM240.5 183l2 .9h-2c-1.1 0-2.7-.4-3.5-.9-1.3-.9-1.3-1 0-.9.8 0 2.4.4 3.5.9m193.5 9v192h78V0h-78z"/></svg>