<svg xmlns="http://www.w3.org/2000/svg" width="682.667" height="512" version="1.0" viewBox="0 0 512 384"><path d="M0 192v192h57V0H0zM226.4 1.6c.3.8 2 8.6 3.7 17.2s5.1 21.7 7.6 29.1c5.1 15.5 5.2 17.8.7 39.1-2.9 13.8-2.9 17.2-.4 22.7l1.9 4.3h-3.7c-11 0-43.4-2.1-47.5-3.1-4.2-1-5.1-.9-6.7.6-1.1 1-2 2.7-2 3.7 0 1.1-1.6 3.4-3.6 5.1-3.9 3.5-10.4 13.5-10.4 16.1 0 2.4 2.6 1.9 4.4-.9 4.7-7.2 4.8 3.5.1 14.7-1.2 3.1 1 2 9.1-4.2 7.8-6 9.5-8 11.4-13.4l1.1-2.9 9.2.8c19 1.5 25.5 2.2 35.7 3.9 5.8.9 12.2 2.2 14.3 2.7l3.7 1v6.4c0 7.1-.6 9.5-2.5 9.5-.6 0-1.6 1.5-2.2 3.2-.9 3.2-1.1 3.3-5.5 3-2.8-.2-6.2.4-8.5 1.4-2.1 1-4.9 1.8-6.3 1.9-6.9.4-8 .6-9.4 2.1-1 .9-2.4 1.3-3.6.9-1.3-.4-2.2-.1-2.6.8-.3.8-1.7 1.7-3.2 2.1-3.4.7-9.6 10.9-8.8 14.2.8 3 8 8.2 13.9 9.9 2.7.8 6.4 2.8 8.3 4.4 3.5 3.1 5.3 3.6 16.8 4.6 3.8.3 7.3.8 7.8 1.1s2.6 4 4.7 8.2c4.3 8.4 12.9 19.2 17.9 22.4 4.8 3 13.8 3.5 17.9.9s7.9-10 9.4-18.4c.9-4.7 2-7.3 4.1-9.6 2.7-2.9 2.7-3.1.9-4.1-1.1-.5-3-1-4.2-1-2 0-2.1-.3-1.5-4.3 1.8-11.6 1.5-11.2 13.4-15 9.9-3.2 29.9-11.7 33.1-14.1 1.1-.8.9-1.3-.8-2.7-1.2-1-1.9-2.4-1.5-3.2.3-.8-.2-1.7-1.1-2.1-.9-.3-1.3-1.1-.9-1.8.5-.8.2-.9-.9-.5s-1.7.1-1.7-.7c0-1.7-4.7-2.3-17.8-2.2-7 .1-10.2-.3-10.2-1 0-1.8 3.9-13.7 5-15.4.8-1.3 1.2-1.2 2.5.7 2.3 3.3 14.5 9.5 17 8.6 1.1-.5 4.4-.8 7.4-.8 6.2 0 7.6-1.6 3.1-3.5-3-1.3-3.4-1.9-3-5.4.2-2.5 5.6-12.3 8.6-15.9 5.3-6.3 1.4-14.6-7.5-16.1-3.4-.5-4.1-1-3.3-1.8 1.4-1.4 1.6-2.8.3-2.8-.4 0-2.3 1-4.2 2.3-6.8 4.6-7.3 4.2-3.6-2.7 3.2-5.9 8.7-18.6 8.7-20.1 0-.3-.5-.3-1.1 0q-1.05.75-.9-5.1c0-3.3-.4-8.7-1.1-12.1l-1.2-6.1-2.5 2.5-2.6 2.6-1.3-2.9c-.6-1.6-1.3-4-1.4-5.4-.1-2.2-.2-2.3-.7-.5-1 3-4.2 2.9-4.2-.2 0-1.3-.4-2.2-.9-1.8-.5.3-1.2.1-1.6-.5-1-1.6-2.6-1.1-2.4.7.2 1-1.4 3.5-3.3 5.5l-3.7 3.8.4-3.3.4-3.2-5.1 5.5c-2.8 3-6.9 7.4-9.1 9.8-2.1 2.4-4.2 4.1-4.5 3.8-.6-.7 1.5-8.5 4.5-16 1.2-3.3 2.1-6.1 1.8-6.4-.2-.2-1.7 1-3.3 2.8-2.9 3.1-3 3.2-3.7 1-.7-2.1-.7-2.1-2.7-.3-1.1 1-3.7 5.2-5.9 9.3-2.8 5.6-3.8 6.9-3.9 5-.1-5.8 2.7-12.8 8.2-20.2 7.3-9.8 10.7-15.9 15.8-28.2 2.3-5.5 5.5-12.6 7.1-15.8L315 0h-44.6c-40 0-44.6.2-44 1.6M455 192v192h57V0h-57z"/></svg>