<svg xmlns="http://www.w3.org/2000/svg" width="682.667" height="512" version="1.0" viewBox="0 0 512 384"><path d="M0 192v192h50V0H0zM229 .8c0 4.3 5.7 33.4 8.5 43.1C242 60 242 65 237.4 85.4c-3.5 15.2-3.6 15.9-2.1 19.8 1.6 4 1.6 4-.6 3.4-1.2-.4-8.5-1.1-16.2-1.6-7.7-.6-16.4-1.7-19.3-2.5-5.2-1.6-5.3-1.5-7.2.7-1.1 1.3-1.9 2.9-2 3.7 0 .8-2.4 3.8-5.2 6.6-2.9 2.8-6.6 7.4-8.1 10.3-2.7 5-2.7 5.2-.7 5.2 1.1 0 2.8-.9 3.7-2 1-1.1 2.1-2 2.5-2 1.2 0 1 8.2-.3 11.8-.6 1.7-.9 3.8-.7 4.7.2 1.4.8 1.3 3.8-.9 1.9-1.4 5.9-4.2 8.8-6.2 3.2-2.2 5.8-5 6.7-7 .8-1.9 2-3.4 2.7-3.5 7.4-.5 27.7 1.8 29.6 3.4 1.8 1.4 11.7 5.4 16.7 6.8 6.4 1.7 8.5 3.5 8.5 7.2 0 3.6-3.5 11.7-4.9 11.7-.5 0-1.2 1.3-1.6 2.9-.4 2.1-1.1 2.8-2.4 2.4-2.5-.6-9.7 1.4-11.6 3.3-.9.9-2.3 1.3-3.5.9-2.2-.7-8.6 1.2-11.2 3.3-.9.8-2.5 1.1-3.7.7-1.4-.4-2.3 0-3.1 1.5-.6 1.2-2.1 2-3.5 2-2.6 0-6.5 3.5-6.5 5.7 0 .8-.9 2.3-2 3.5-3.1 3.3-2.7 9.7.8 13.1 3 2.9 9 5.7 12.3 5.7 1.2 0 4.7 1.2 7.8 2.7 4.1 1.9 8.5 2.9 16.1 3.7l10.5 1.1 3.5 6.5c4.1 7.5 10.5 16.3 14.6 20.2 4.2 3.9 9.5 5.8 16.1 5.8 10.5 0 14-3.9 18.6-20.4 1.9-6.5 3.4-9.7 5.7-12.1l3.2-3.3-3.1-.7c-1.7-.4-4.5-.4-6.2 0-3 .7-3.1.6-2.6-2.1.3-1.6.8-5 1.2-7.6.7-5.4 1.2-6 8.5-8.3 12.4-4 33.7-14 37.4-17.6 1.8-1.7 1.8-1.9.2-2.5-.9-.3-2.3-2.2-3.1-4-.8-1.9-1.9-3.4-2.4-3.4-.6 0-1.1-.6-1.1-1.4 0-1.7-4-2.3-16-2.2-12.1.1-12.7-.4-10.3-8 2.1-6.8 3.6-8.3 13.8-13.8 11-6 14.2-11.4 11.1-18.6-.4-.9.9-3.6 3.4-6.9 3.9-5.2 4.6-7.2 1.8-5.5-.7.5-1.8.9-2.5 1-.6.1-2.8 1.4-4.8 2.9-1.9 1.5-3.8 2.6-4 2.3-.2-.2.7-2.1 2.1-4.2 1.4-2 4.4-7.6 6.7-12.4 4.1-8.5 4.2-9 4.2-18.7-.1-12.4-2.5-20.5-5-16.5-.4.6-1.1.8-1.6.5-.5-.4-.9.1-.9 1s-.4 1.3-1 1c-.5-.3-1-2.1-1-3.8q0-3.3-.9-1.8c-.7 1.1-.9 1.1-1.3 0s-.8-1.2-2-.2c-1.2 1.1-1.4.8-1-2 .5-2.9.3-3.1-1.2-1.8-1.4 1.2-1.9 1.1-3.6-.4-1.9-1.7-2-1.7-2-.1 0 1-.6 2.4-1.4 3.2-.8.7-1.7 1.9-1.9 2.6-.4 1-.8.9-1.7-.2-.9-1.2-2.5 0-9.5 7.5-4.7 4.9-8.5 8.6-8.5 8.1s-.9-.1-2 .9c-1.9 1.7-1.9 1.4.4-5.1 1.3-3.8 3.3-9.3 4.5-12.3 1.2-2.9 2-5.5 1.8-5.8-.3-.2-1.8 1.2-3.6 3.2l-3.1 3.6v-5.5l-2.9 2.9c-1.7 1.5-4.6 5.8-6.5 9.4s-4.2 7.5-5.1 8.6c-1.5 1.9-1.6 1.5-1-5.8.6-8.4-.3-9.9-2.5-4-.9 2.4-1.5 3.2-1.8 2.1-.5-2.5 2.3-8.3 7.1-14.6 6.9-9 11-15.9 15.7-26.7 2.4-5.5 5.4-12.4 6.7-15.3L313 0h-42c-23.1 0-42 .4-42 .8M462 192v192h50V0h-50z"/></svg>