<svg xmlns="http://www.w3.org/2000/svg" width="682.667" height="512" version="1.0" viewBox="0 0 512 384"><path d="M0 192v192h14V0H0zM227.5 8.7c.9 11.7 2.9 26 6 41.8 3.2 16.8 3.2 25.6-.1 41.4-3 14.4-2.8 18.9 1 26.3l2.7 5.1-3.9 4.1c-2.1 2.3-7.4 9-11.8 15.1-9.3 13-16.9 21-22.1 23.1l-3.7 1.6-3.7-4.4c-3.3-3.6-3.7-3.9-3.2-1.8.5 2.2.4 2.3-.8 1-.8-.9-2.3-2.3-3.3-3-1.8-1.4-1.9-1.3-1.3.4.6 1.5.4 1.7-1.3 1.3-1.1-.3-2-.1-2 .5s-1.1.3-2.5-.6-2.5-1.2-2.5-.6c0 .5-.5 1-1.1 1-.7 0-1.8.8-2.5 1.7-1 1.5-1 2.1.4 3.7 1.1 1.1.2.8-2.3-.9-3.4-2.2-4.1-2.4-4.3-1-.2.9.3 2.7 1.2 4 2.1 3.2 2 3.6-.8 2.9-3.4-.8-4.5 1.5-1.7 3.8 4.7 3.7 14.9 5.9 32.6 7 13.6.8 17.7 1.4 20.3 2.9 3.9 2.2 6.2 2.4 6.2.6 0-.8.9-2.2 2.1-3.3 1.1-1 4.5-5.5 7.4-9.9s6.5-9.4 8.1-11.1 5.2-5.7 8.1-8.8c2.8-3.1 6.4-6.1 7.9-6.6 3-1.2 6.8-.4 5.8 1.1-.3.6.1 1.8.9 2.7.9.9 1.9 3 2.3 4.7.7 2.7.6 2.9-.9 1.6-1.5-1.2-1.7-1.1-1.7.4 0 1.3-.3 1.5-1.3.7-2.4-2.1-7.3 3.1-9.3 9.9-1.7 5.5-2.2 6.2-5.6 7.6-2.1.8-3.8 2.1-3.8 2.8 0 1.5-2.2 2.5-5.2 2.5-1.1 0-3.6 1.3-5.5 3-1.8 1.6-4.1 3-4.9 3-3.8 0-16.4 9.6-16.4 12.6 0 .7-.9 1.8-1.9 2.4-2.2 1.1-4.6 7.3-3.7 9.5.3.8.1 1.7-.5 2-1.2.8-.2 6.9 1.7 10.7 2.4 4.6 6.5 4.7 23.2.7 8.1-2 8.4-2 12-.2 2.5 1.2 6.1 1.8 11.5 1.9l7.8.1 5.3 6.5c7 8.5 12.9 13.4 19.6 16.5 4.7 2.2 7 2.6 15.5 2.6 16.6.1 20.1-2.8 26.4-21.6 5-14.7 6-16.6 12.3-22.1 4.8-4.2 5-4.6 2.7-4.6-4.2 0-13.6 2.8-19.2 5.7-2.8 1.5-5.6 2.8-6.1 2.8-.9 0-4.5-13.3-4.6-17 0-1.4 1.6-2.9 5.1-4.9 13.6-7.6 35.5-24.1 37.8-28.4 1.3-2.4 1.2-2.7-1.3-4.9-1.4-1.2-2.6-2.6-2.5-3 .4-2.3-.2-3.5-1.6-2.9-.9.3-1.8 0-2.1-.8-.3-.7-1.5-1.2-2.7-1.1-1.2 0-2.6-.1-3.2-.4-1.8-1-3.8-1-5.7 0-1.4.8-1.6.6-1.1-.6.5-1.4 0-1.5-3.3-1-2.2.4-4.4 1.4-5.1 2.2-.7.9-1.9 1.3-2.8.9-2.2-.8-1.4-4.8 3-14.5 4-8.8 7.4-12.6 16.8-18.7 7.3-4.7 18.5-15 17.4-16-.3-.3-2.8.6-5.6 2s-5.1 2.3-5.1 2c0-1.4 2.9-5.7 9.5-13.9 10.1-12.7 12.8-19 17-39.7.1-1-.3-2.2-1-2.8-1.1-.9-1.2-.6-.8 1.2.3 1.6.2 1.9-.5 1-.7-1-1.6-.3-3.5 3-2.3 3.8-2.6 4-2.6 1.8 0-1.4.8-4.5 1.9-6.9 1.1-2.3 1.7-4.8 1.4-5.3-.4-.5-2.8 1.2-5.5 3.8-2.7 2.7-4.9 4.5-4.9 4.1s1.6-3.9 3.7-7.7c2-3.9 3.3-7.3 2.9-7.7-.3-.4-2 .7-3.8 2.3-3 2.8-3.1 2.8-2.5.5s.6-2.3-2.3.4c-2.1 2-3.5 2.6-5.2 2.2-1.6-.5-3.1.1-5.2 2.1l-2.9 2.7 2.9-4 2.9-4-3.6 2.7c-3.8 2.8-5.2 2.8-4.1 0 .3-1-.6-.4-1.9 1.2l-2.5 2.9-1.4-3.4c-2.1-5.3-3.3-6.5-4.1-4.2-.4 1-.8 3.1-1 4.8-.1 2.3-1.8 4.6-7.7 10-4.1 3.8-7.2 6.3-6.7 5.5 1.4-2.6-1 .2-3.9 4.5-3.1 4.8-3.1 4.7-.5-3.5 4-12.8 6.7-24.5 5.9-25.9-.8-1.5-4 2.5-13.9 17.1-2.8 4.3-5.5 7.8-5.9 7.8-.5 0-1.9 1.8-3.1 4.1-1.3 2.2-2.5 3.8-2.7 3.6-.3-.2.9-5.7 2.6-12.1 4.8-18.5 4.1-18.3-5.1 2.1-3.5 7.9-6.8 14.3-7.4 14.3-.5 0-3.4-1.4-6.2-3-6.9-3.9-7-6.4-.9-15.2 14.3-20.4 18.1-26.5 23.5-38.1l6-12.7h-81.1zm104.1 43.5c-.9 1.8-2.5 3.9-3.7 4.6-2.4 1.5-2.4 1.5 1.6-5.5 3.2-5.5 4.8-4.8 2.1.9M498 192v192h14V0h-14z"/></svg>