<svg xmlns="http://www.w3.org/2000/svg" width="682.667" height="512" version="1.0" viewBox="0 0 512 384"><path d="M217.6 10.2c1.3 5.7 3.5 14.6 4.9 19.8s3.7 14.7 5.1 21c2.6 11.4 2.7 11.6 1.4 27-1.5 18.5-.6 26 4.7 39 4.1 10 4.3 9.7-8.2 13.5-5 1.5-9.8 3.7-12.2 5.7-2.3 1.8-8.3 6.7-13.4 10.9-5.2 4.1-11.6 9.1-14.4 10.9-11 7.5-12.6 10-18.4 27.9-3.5 10.8-7.7 20.9-12.2 29.7-6.7 13-6.9 13.4-5 15 1.8 1.6 1.8 1.9-2.8 8.3-5.6 7.9-10.6 11.1-17.3 11.1-4.8 0-6.5 1.2-6 4.2.2 1-.3 1.8-1.1 1.8-1.3 0-3.3 2.9-2.5 3.5.2.1 1.2.7 2.3 1.3 1.6.9 1.7 1.1.4 1.2-1.9 0-3.3 2.6-2.3 4.2.4.6 2.7.8 5.4.6l4.7-.5-1.6 2.8c-3.4 6.1 1.8 5 11.6-2.3 9.5-7.1 14-11.3 20.8-19.4 3.2-3.8 6.1-7.2 6.4-7.6.4-.4 2-.4 3.6.1 6.3 1.8 7.9-.3 12.1-15.9.9-3.6 4.9-14.3 8.8-23.9l7.1-17.3 9-4.5c16.1-8.1 22.9-12.5 30-19.7 7.9-7.9 10.7-9.5 21.3-12.4l7.3-2 2.3 2.3c2.8 2.8 4.4 10 2 9.1-1.1-.4-1.4-.1-1.2 1.2.3 1.3-.8 2.1-4.6 3.2-5.6 1.7-6.4 3.2-6.9 13-.2 3-.8 6.5-1.5 7.7-1.5 2.8-1.5 3.3.2 3.3 2.8 0 2.6 1.9-.5 5.4-1.7 2-3.5 3.6-4.1 3.6-1.5 0-8 5.1-11.3 8.9-1.6 1.9-4.5 4.9-6.2 6.7-1.8 1.9-3.3 4-3.3 4.8s-1.6 2.9-3.6 4.8c-4.5 4.2-6.2 7.5-5.7 11 .3 2.1-.1 2.8-1.3 2.8-1.3 0-1.5.6-1 3.2.4 1.8.6 4.9.6 6.8 0 2.4.9 4.5 2.9 6.8l2.9 3.4 8.4-3.7c4.5-2.1 11.4-5.3 15.2-7.2 6.4-3.2 7.2-3.4 11-2.4 3 .8 6.9.8 15.1-.2l11-1.3 3.5 2.6c11.4 8.4 20.2 12.6 29.3 13.9 11.9 1.6 30.7-1.9 37.8-7.1 4.4-3.2 7.5-9.9 8.9-19.3 3.8-24.3 6.3-30.9 14.8-39.8 3.1-3.1 4.1-4.7 3-4.7-4 0-16.4 6.2-23 11.6-7 5.6-13.1 9.4-15.3 9.4-.5 0-2.8-3.5-4.9-7.8-2.2-4.2-4.8-8.9-5.8-10.4-2.5-3.7-2.3-4.9 1.8-9.4 3.6-4 9.6-11.5 24.3-30.6 6.1-8 8.3-11.7 8.5-14.1.1-2.6-.3-3.3-2.1-3.5-1.3-.2-2.3-1-2.3-1.8 0-2-2.7-2.9-4.4-1.5-1.1.9-1.5.7-1.9-1-.4-1.6-1.1-2-2.6-1.6-1.4.3-2.1 0-2.1-.8 0-1.1-.4-1.2-2.3-.2-1.3.7-3.1 1.9-4 2.7-3.6 3.3-4.7 4-6 4-.8 0-2 .7-2.7 1.5-.7.9-1.9 1.4-2.6 1.1s-2.2.6-3.3 2.1l-2.1 2.5-1-2.7c-1.6-4.1-1.2-12 .8-17.3 1-2.7 5.5-10.4 9.9-17.3 11.9-18.4 13.8-22.3 17.3-34.4 1.7-6.1 4.4-13.7 6-17 6.7-13.9 11.1-30.4 11-41l-.1-4-1.4 3-1.4 3 .5-3.8c.6-3.6.5-3.7-2.5-3.7-2.4 0-3.4.6-4.1 2.5-.5 1.4-1.2 2.5-1.6 2.5-.3 0-.3-1.1 0-2.5L366 0h-8.2c-6.2 0-8.6.4-10 1.7-1.7 1.5-1.8 1.5-1.8 0 0-2.7-2.6-2-5.4 1.4-1.5 1.7-5.4 7.3-8.8 12.4-3.4 5.2-6.4 9.2-6.6 9-.3-.2.5-2 1.6-4 1.2-1.9 2-3.5 1.8-3.5s-2.5 2.6-5.1 5.7l-4.8 5.8.7-12.7c.3-7 .9-13.4 1.2-14.3.6-1.3-5-1.5-52.3-1.5h-53zm67.5 28.1c-1.6 6.7-3.2 13.1-3.4 14.2-.3 1.1-.6-2.1-.7-7-.1-5.9-.5-8.1-1-6.5-.7 2.3-.8 2.3-1.5-1.3-.9-4.5-.2-6.4 5.2-13.8l3.8-5.4.3 3.9c.2 2.1-1 9.3-2.7 15.9"/></svg>