<svg xmlns="http://www.w3.org/2000/svg" width="682.667" height="512" version="1.0" viewBox="0 0 512 384"><path d="M215 .6c0 1.2 5.2 21.2 7.5 28.9 1.3 4.4 3.3 12.6 4.5 18.3 1.9 9.6 2 11.4.9 25-1.4 17.7.1 28.2 5.5 41l3.4 8-2.1 2c-1.2 1.1-6.2 3.4-11.1 5.1s-10.1 4.1-11.5 5.3c-1.4 1.3-5.5 5-9.1 8.3-3.6 3.4-8.3 7.4-10.5 9-8.5 6.3-19.6 15.8-21.3 18.3-1.1 1.5-4.1 10.1-6.7 19-3.4 11.6-6.8 20.5-11.7 30.5-6.8 13.9-6.9 14.1-4.9 16 1.9 1.9 1.9 2-1.3 6.4-7.5 10.8-12.7 14.3-21.2 14.3-3.4 0-5.2 2.3-3.4 4.5.7.8.3 1.5-1.5 2.3-3 1.4-3.3 3.8-.6 4.7 2 .6 2 .6 0 2.6-3 3-1.4 4.2 4.7 3.7l5.3-.5-1.5 3c-1.1 2.1-1.3 3.2-.5 4 1.5 1.5 5.1-.6 14.5-8.9 9.5-8.4 14.7-13.8 20.3-21.5l4.2-5.6 4.9.5c6.1.5 6.3.3 10.3-14.9 1.5-5.9 4.6-15.6 6.9-21.6 2.3-5.9 5.3-13.8 6.7-17.4 2.1-5.7 3.1-7 6.6-8.9 21.2-11.6 27.5-15.8 34.7-23.3 8.9-9.3 13-11.9 23.2-14.7l7.6-2.1 2.7 2.5c3.2 3 4.8 10 2 9-1.5-.6-1.6-.4-.6 1.4 1.3 2.4 1.2 2.5-5.1 4.2-5.5 1.5-5.9 2.3-6.3 12.5-.2 4-.8 8.1-1.4 9.3-1.5 2.8-1.5 2.9 2.1 4.1l3.2 1.1-2.9 3c-1.6 1.7-3.4 3-4 3-2.6 0-21.5 20.2-21.5 23.1 0 .8-1.6 3.1-3.6 5-5 4.7-6.7 8.4-5.9 12.5.5 3 .3 3.4-1.6 3.4s-2.1.4-1.5 3.1c.3 1.7.6 4.6.6 6.4 0 2 .9 4.2 2.5 5.9 1.4 1.5 2.5 3.1 2.5 3.7 0 2.4 5.7-.1 28.9-12.8 3.8-2.1 4.8-2.3 6.7-1.2 2.5 1.3 13.2.7 23.7-1.3 5.7-1.1 5.8-1 11 2.5 6.9 4.5 13.9 8 20.5 10.2 13.1 4.3 37.8.3 48.5-7.9 4.8-3.7 7.3-11 9.2-27.6 2.2-18.9 4.4-25.1 12.9-35.4 4-4.9 4-4.9 1.3-4.2-6 1.5-13.8 6-22.3 13-9.3 7.6-14.8 11.1-16.3 10.1-.5-.3-2.1-2.6-3.6-5.3-1.5-2.6-4.3-7-6.1-9.9-1.9-2.8-3.4-6.1-3.4-7.4 0-1.2 3.1-6.3 6.8-11.3 11.2-14.8 24.2-33.7 26.9-38.9 1.9-3.9 2.2-5.2 1.2-6.3-.7-.8-2-1.2-3.1-.9-1.4.5-2 0-2.5-2.5-.4-2.2-.8-2.8-1.4-1.8-.5.7-.9.9-.9.4 0-.6-.7-.1-1.6 1-1.3 1.5-1.5 1.6-1 .2.5-1.8-2.5-3.4-4.4-2.3-.5.3-1-.1-1-.9 0-1.9-.2-1.9-3.5-.4-1.4.6-2.5 1.7-2.5 2.4s-.9 1.6-2 1.9-2 1.4-2 2.3c0 1.3-.2 1.4-.8.4-.7-.9-1.3-.8-2.7.8-1 1.1-2.6 2-3.6 2-.9 0-2.6 1.1-3.6 2.5-2.8 3.9-4.4 1.9-5-6.7-.7-9 .3-11.5 10.9-28.6 10.7-17.1 15.2-26.4 18.2-37.8 1.4-5.5 2.6-10.9 2.6-12 0-1 .7-3.3 1.6-4.9 2.5-4.8 8.1-21.6 8.8-26.5.4-2.5.9-5.7 1.2-7.3l.6-2.7h-41l-5.3 8.5c-5.4 8.9-7.6 10.8-3.8 3.3 2.5-5.1 2.1-4.8-2.7 1.8l-3.6 4.9.7-9.3.7-9.2h-53.6c-29.5 0-53.6.3-53.6.6m73.5 19.1c-.4 4.3-1.1 8.3-1.5 8.8-.5.6-1.4 4-1.9 7.5-.6 3.6-1.5 7.8-2 9.5-.8 2.6-.9 2.3-1-2.8-.1-3.1-.8-8.4-1.8-11.7l-1.6-6 4.4-6.5c2.4-3.5 4.8-6.5 5.3-6.5.4 0 .5 3.5.1 7.7"/></svg>