<svg xmlns="http://www.w3.org/2000/svg" width="682.667" height="512" version="1.0" viewBox="0 0 512 384"><path d="M215 .9c0 .4 2 8 4.5 16.7 6.9 24.2 7.6 29.1 7.3 51.5-.3 21.3.6 27.3 6.3 41.2 1.6 3.7 2.6 7.4 2.3 8.1-.9 2.2-7.4 6.3-13.9 8.7-7.3 2.7-13.3 6.8-17.5 12-1.7 2.2-9.8 9.8-18 16.9-8.1 7.2-15.7 14.5-16.8 16.3-1.1 1.7-3.8 9.9-6.1 18.2-5.1 19-6.7 23.4-13.1 37.3-4.8 10.5-5.1 11.5-3.6 13.1 1.5 1.7 1.4 2.2-1.6 7.2-6.2 10-10.1 12.7-21 14.4-4.2.6-5.7 3.1-3.1 5 1.7 1.2 1.6 1.4-.9 2-1.4.4-2.8 1.5-3.1 2.5-.6 2.3 0 3 2.7 3 1.9.1 1.9.2.5 1.3-.9.7-1.9 2.3-2.4 3.6-.7 2.3-.6 2.4 4.6 1.9 3-.3 6.3-.9 7.4-1.3 1.9-.8 1.9-.7.3 1.1-.9 1-2 3.1-2.3 4.6-1 3.8 1.3 3.7 6.8-.1 6-4.1 21.3-20.4 27.2-28.8l5-7.3h5.1c3.3 0 5.6-.5 6.4-1.5.6-.8 2.7-7.5 4.5-14.9 3.5-14.4 14-45 16.1-47.1.8-.7 7.1-4.9 14.1-9.4 13.3-8.3 19.6-13.7 27.5-23.1 5.2-6.3 11.1-9.8 21.4-13l7.1-2.1 3.1 2.9c3.7 3.5 5.7 10.7 2.6 9.5-1.7-.6-1.7-.5-.6 1 1.9 2.2.8 3.4-4.1 4.8-7.3 2.1-7.9 3.2-7.6 12.9.2 5.1-.2 9.4-.9 10.7-1.6 3-1.6 3 2.3 4.3 1.9.6 3.5 1.5 3.5 1.8-.1.4-1.7 2-3.7 3.7-8.9 7.5-12.2 10.8-14.9 14.8-1.6 2.3-4.1 5.4-5.6 6.9-1.6 1.4-2.8 3.5-2.8 4.7s-1.6 3.8-3.6 5.8c-5 5.3-6.7 8.9-6 12.8.6 2.8.3 3.3-1.5 3.8-1.9.5-2.1 1-1.4 4.4.4 2.1.8 5.3.8 7.1.1 1.9.9 3.9 1.8 4.5.9.7 2.1 2.2 2.8 3.4.6 1.3 1.6 2.3 2.1 2.3s5-2.5 10-5.5 9.3-5.5 9.5-5.5 3.2-1.8 6.6-3.9c5.3-3.4 6.5-3.8 8.6-2.8 2.9 1.3 21.6-.6 26.6-2.7 3.3-1.3 3.6-1.2 12.7 4 16.2 9.2 30.3 11.4 47.2 7.5 24.1-5.7 28.8-11.3 30.8-36.2 1.8-22.8 4.7-32.2 12.7-41 2-2.2 3.3-4.2 3-4.6-1.9-1.8-17.3 7.7-27.4 17-6.8 6.2-11.9 9.7-14.2 9.7-1.2 0-16.1-21.9-16.1-23.6 0-.7 3.5-6.5 7.8-13 19-28.8 27.1-42.7 27.2-46.8 0-1.5-.6-1.7-3-1.4-2.7.4-3.1.1-3.9-2.6-.5-1.7-1-2.5-1-1.8-.1.7-.5 1-1.1.7-.5-.3-1 0-1 .7-.1.7-.6.4-1.3-.7-1.5-2.4-3.7-3.1-4.8-1.3-.7 1-.9.9-.9-.5 0-2-.4-2.1-3.1-.7-1 .6-1.9 1.7-1.9 2.5s-.7 1.5-1.5 1.5-2 .9-2.7 2-1.8 2-2.5 2-1.7.9-2.3 1.9c-.6 1.2-1.7 1.7-2.8 1.4-1.3-.3-2.2.4-3 2.2-1 2.1-1.8 2.6-4 2.3-2.6-.3-2.7-.6-3.6-8s-.8-7.9 2.1-13.5c1.6-3.2 5.3-9.6 8.2-14.3 14.3-22.9 18.5-33.1 22.6-55 .8-4.1 3-12 4.9-17.5s3.5-10.8 3.5-11.8C377 .1 375.3 0 354.2 0h-22.8l-2.2 4.2c-2.1 4-2.2 3.6-.6-2.5.5-2.1.5-2.1-1.5.3s-2 2.4-1.4.2l.5-2.2h-55.6c-30.7 0-55.6.4-55.6.9m75.2 11.5c-1.1 11.4-2.3 15.1-3.2 10.1-.4-1.9-1.1 1.8-1.9 10.3-.8 7.3-1.5 13.1-1.7 13-.2-.2-.6-5.1-.9-10.8-.3-5.8-.8-12.6-1-15.1-.5-4.3-.1-5.2 4.2-11.7 2.7-3.8 4.9-6.8 5.1-6.7.2.2-.1 5-.6 10.9m-13.5 16.8c-.2 1.3-.4.5-.4-1.7-.1-2.2.1-3.2.4-2.3.2 1 .2 2.8 0 4"/></svg>