<svg xmlns="http://www.w3.org/2000/svg" width="682.667" height="512" version="1.0" viewBox="0 0 512 384"><path d="M215 .8c0 .5 1.2 4.2 2.6 8.3 6.1 17.8 7.6 27.6 8.4 54.4.8 26.4 1 27.6 7.1 44.1 2.2 6 2.2 6.2.3 8.7-1 1.5-6.3 5-11.6 7.8-7.2 3.8-11.3 6.7-15.5 11.3-3.2 3.3-12.8 13.1-21.5 21.8-8.6 8.6-16.4 17-17.3 18.7-.8 1.7-2.9 8.8-4.6 15.9-4.4 18.7-7.5 28.4-13.1 41-4.3 9.8-4.9 11.7-3.9 13.8.9 2.2.6 3.3-2.7 8.8-4.5 7.7-10.5 12.2-17.7 13.2-7.4 1-10 4-5.2 6.1 2.2 1.1 2.2 1.1-.6 1.8-3.4.9-5.6 4.3-3.6 5.6.8.5 2.3.9 3.4.9 2 0 2 .1-.1 1.8-1.2.9-2.4 2.5-2.7 3.4-.5 1.5 0 1.8 3.9 1.8 2.4 0 6-.7 8-1.5l3.5-1.4-2.1 2.6c-2.3 3-2.7 8.3-.6 8.3 4 0 25.8-23.3 34.7-36.9 3.2-5 3.4-5.2 6.9-4.6 2 .3 4.8.2 6.2-.4 3-1.1 2.7-.5 7.2-20.9 1.5-6.7 5.3-19.8 8.5-29.2l5.7-16.9 12.1-8.8c13.7-10 19.2-14.9 24.8-21.9 10.7-13.5 14.5-16.4 27.1-20.3l7.2-2.3 3.6 3.6c2.5 2.6 3.6 4.6 3.6 6.6 0 1.7-.5 3-1.1 3-.8 0-.8.4.1 1.5 1.7 2 .7 3.1-4.8 5.1-7.5 2.8-7.4 2.6-7.1 14 .3 7 0 10.6-.9 11.6-1.5 1.8-.2 3.2 4.1 4.2 1.5.3 2.7 1.3 2.7 2.2 0 .8-.5 1.2-1 .9-.6-.3-1.2 0-1.5.7-.3.8-3.5 4.4-7 8.1-3.6 3.8-7.2 8.2-8.1 10s-3 4.5-4.5 6.1c-1.6 1.7-2.9 4-2.9 5.2s-1.4 3.6-3 5.3c-1.7 1.6-4.1 4.9-5.4 7.2-1.9 3.3-2.2 4.7-1.5 7.3.5 1.7.5 3.2 0 3.4-.4.1-1.5.8-2.4 1.5-1.5 1.1-1.5 1.9-.2 9.2.8 4.4 1.4 8.1 1.5 8.2 0 .1.6 0 1.4-.3s1.6.4 2 2c.3 1.4 1.2 2.6 1.9 2.6 1.3 0 20.8-11.9 27.9-17.1 3.6-2.5 4.8-2.9 8.2-2.4 6 .9 20.9-1.1 26.3-3.5l4.7-2 10 4.9c14.2 7.1 24 9.3 36.4 8.1 10.7-1 16.8-2.6 26.9-7.1 14.2-6.3 16-10.1 17.8-37.4 1.7-25.1 2.6-28.5 10.6-39.2 2.2-2.9 3.9-5.7 3.9-6.3s-3.7.8-8.2 3.2c-5.9 3.1-10.6 6.7-17.2 13.2-9.8 9.6-14.9 13.6-17.5 13.6-1.4-.1-14.4-16.5-17.8-22.5-1-1.9 0-4.1 8.2-18.3 13.1-22.6 24.5-44.5 24.5-47.1 0-2.3-2-2.7-5.1-1.1-1.7 1-1.9.7-1.9-2.6v-3.7l-2 2.3c-1.7 1.9-2 2-2 .6 0-.9-.4-1.5-.9-1.2s-1.2-.1-1.5-1c-.5-1.3-.9-1.4-2.1-.4s-1.5.9-1.5-.4c0-.9-.4-1.6-.8-1.6-1.2 0-4.2 3.4-4.2 4.7 0 .5-1.2 1.6-2.6 2.4-1.4.7-3.7 2.6-5 4.2s-2.8 2.5-3.4 2.2-1.8.7-2.8 2.4c-1.1 2-2.5 3.1-3.9 3.1-1.2 0-2.5.4-2.8 1-1.5 2.4-2.3.5-3.3-7.5-1.1-8-1-8.7 1.2-13.7 1.3-2.9 5.9-11.2 10.3-18.3 12.4-20.5 16.9-30.4 19.8-43.4 1.4-6.2 2.5-12.5 2.5-14 0-1.4.9-5.5 2-9.1 3.4-11.1 7.9-10-39.4-10C288.9 0 292-.5 292 6.3c-.1 3.5-2.5 14.5-3.4 15.5-.3.3-.6-1.5-.6-3.9 0-8-1.7-7.5-2.4.8-1.4 15-2.2 15.3-2.3.9-.1-10.6.2-14.5 1.3-16 .8-1.1 1.4-2.4 1.4-2.8 0-.5-16-.8-35.5-.8S215 .4 215 .8m63.7 16.9c-.3 1-.5.2-.5-1.7s.2-2.7.5-1.8c.2 1 .2 2.6 0 3.5"/></svg>