<svg xmlns="http://www.w3.org/2000/svg" width="682.667" height="512" version="1.0" viewBox="0 0 512 384"><path d="M216 .9c0 .4.9 3.7 2 7.2 4.7 14.4 6.8 29.5 7.8 53.9.9 23.3 1 23.6 4.6 34.8 3.2 9.8 3.6 11.8 2.6 14.2-1.6 3.8-6.2 7.9-14.5 12.8-9.2 5.4-10.8 6.9-20.3 19.2-4.5 5.8-13 15.7-18.8 22s-11.3 12.8-12.2 14.5c-.8 1.6-2.8 9.1-4.3 16.5-4.4 20.7-6.7 28.5-12.1 41.3-3.8 9-4.8 12.4-4.3 14.7.5 2.4-.1 4.4-3 9.5-4.4 7.9-8.9 11.2-18.3 13.5-7.6 1.8-9.1 4-4.6 6.3l2.8 1.5-3.2.7c-5.4 1.1-6.8 6.5-1.7 6.5 3.3 0 3.9 1.5 1.1 2.8-1.3.6-2.6 2-2.9 3.1-.5 1.9-.1 2.1 4.2 2.1 2.7 0 6.3-.8 8.6-2 5.1-2.6 5.2-2.6 2.1 1.4-3.2 4.2-3.5 8.6-.7 8.6s24.8-23.7 31.6-34c5.9-8.9 7-9.6 14.6-9.9 2 0 4.1-.7 4.7-1.4.6-.6 2-7.1 3.2-14.2 1.9-11 4.4-20.2 14.1-51.1.6-2 3.7-5.4 8.7-9.6 14.6-12.3 24.2-22.1 29.6-30.2 9.2-13.8 13.2-16.8 27.8-21.1l5.5-1.5 3.7 3.5c3.4 3.2 3.7 4 3.9 9.2l.2 5.7-6 2.9c-3.3 1.6-6.3 3.4-6.7 4s-.4 4.5-.1 8.7c.8 9.4.7 12-.2 14.6-.5 1.8-.2 2.3 2.2 2.9 3.6.9 5.3 2.3 5.3 4.4 0 1.3-.2 1.3-.9.2-.6-1-1.2-.4-2 2.2-.7 2-1.6 3.7-2 3.9-1.2.5-11.1 13.1-11.1 14.1 0 .5-1.6 2.7-3.5 5-2 2.4-3.3 4.7-3 5.7s-1.5 3.9-4.5 7.5c-5 5.9-6.7 10.4-5.6 14.8.4 1.9 0 2.6-2 3.6-2.2 1-2.5 1.6-2.1 5.4.2 2.3.7 5 1.1 5.9s.5 2.1.2 2.7c-1.1 1.8.6 4.1 3.1 4.1 1.3 0 2.2.4 1.9.9-.9 1.3.4 4.1 1.8 4.1.7 0 8.5-5.1 17.4-11.4 15.3-10.7 16.5-11.3 19.2-10.3 3.9 1.5 20.5-1.3 27.2-4.6l5.1-2.6 4.6 2.4c15.4 7.8 28.7 11.1 40.9 10.1 15.3-1.3 32.9-7.7 41.1-15.2 5.5-4.9 6.9-11.3 7.5-34.4.7-24.6 2.4-31.3 10.8-42.6 2.1-2.8 3.8-5.4 3.8-5.8s-3.3 1-7.2 3.1c-5.6 2.9-10.2 6.6-19.7 16.1-10.2 10.3-16.5 15.2-19.5 15.2-.3 0-2.6-2.8-5.2-6.3-2.7-3.4-5.1-6.4-5.4-6.7-2.4-2.1-9-11-9-12.1 0-.8 4.2-9.7 9.4-19.9 10.3-20.3 20.9-43 22-47.3.8-3.2-1.1-3.6-4.9-1.1l-2.5 1.6v-4.3c-.1-4.3-.1-4.4-1.5-1.9-.8 1.4-1.4 1.9-1.5 1.1 0-.7-.6-1.1-1.5-.7-.8.3-1.5.1-1.5-.4 0-1.6-4.3-3.5-4.8-2.1-.2.6-.8.9-1.2.6-.5-.3-1.4.5-2.1 1.7-1.9 3.7-9.2 11.3-10.9 11.3-.8 0-2.1 1.2-2.8 2.7-.7 1.6-2.1 2.8-3.2 2.8-1 0-2.7 1.1-3.8 2.5s-2.2 2.5-2.4 2.5c-.3 0-1.3-4.4-2.3-9.8l-1.8-9.8L342 87c1.8-3.6 7-12.8 11.5-20.5s9.9-17.3 11.9-21.4c3.5-7 7.5-21.4 9.2-32.6.4-2.8 1.3-6.7 2-8.8l1.3-3.7h-42.4C295.3 0 293 .1 293 1.8c0 1-.6 4.2-1.4 7.2-.7 3-1.7 6.8-2 8.4-.4 1.5-1 2.5-1.4 2.2-.7-.8-.7-1-1.2-12.1-.2-6.4-.4-7.3-1-4.5l-.7 3.5-.2-3.3L285 0h-34.5c-19 0-34.5.4-34.5.9m63.7 9.8c-.3 1-.5.2-.5-1.7s.2-2.7.5-1.8c.2 1 .2 2.6 0 3.5"/></svg>