<svg xmlns="http://www.w3.org/2000/svg" width="682.667" height="512" version="1.0" viewBox="0 0 512 384"><path d="M217 .7c0 .5 1.1 5.3 2.4 10.8 4.2 17.4 5.5 26.5 6.1 45.5.7 19.4 1.7 26.4 5.9 39.4 2.5 7.9 2.5 7.9.6 11.5-2.8 5.4-5.7 8.3-14.5 14.6-9.4 6.7-10.9 8.3-18.3 19.4-3 4.7-9.9 13.7-15.1 20-12.9 15.6-17.8 23-18.6 28.3-1.3 8.5-6.5 33-8.1 38.6-.9 3.1-3.6 10.3-6 15.9-3.6 8.3-4.2 10.7-3.4 12.7.8 2.1.3 3.7-3.1 9.5-4.7 8.2-10.3 12.3-19.2 14.1-3.8.8-6 1.8-6.7 3.1-.9 1.5-.7 2 .5 2.4 5.1 1.6 5.1 1.7.7 3.8-3.2 1.6-4.2 2.6-4 4.2.3 1.7 1 2 5.6 2 2.8-.1 5.2.1 5.2.2 0 .2-2 1.2-4.5 2.3-3.6 1.6-4.5 2.4-4.5 4.5 0 2.2.4 2.5 3.4 2.5 2 0 6.3-1.5 10.3-3.6 7.2-3.8 7.1-3.9 1.1 3-1 1.1-1.8 2.2-1.9 2.5 0 .3-.2 1.4-.4 2.3s.3 2.2 1.1 2.9c2.1 1.7 4.8-.5 12.9-10.2 3.9-4.5 9-10.3 11.6-12.8 2.5-2.6 5.1-5.7 5.7-7.1.7-1.4 3-5.2 5.1-8.5l3.8-6 5.9-.3c3.4-.2 6.6-.9 7.5-1.8 1.1-.9 2-4.7 2.8-10.7 1.6-11.9 4.1-22.6 9.7-41.4 2.5-8.4 4.7-16 4.8-16.8s5.1-6.3 11.2-12.2c15.3-15.1 19.9-20.6 25.2-30.2 8.3-14.7 11.8-17.7 26.8-22.6 8.4-2.8 9.8-3 8.9-1.5-.3.5 1 2.5 2.9 4.2 3 2.9 3.5 4 3.8 8.8l.3 5.5-6.5 3.5-6.5 3.5.3 9c.2 5 .4 10.3.5 12 0 1.6-.2 3.7-.6 4.5-.6 1.2.3 1.8 3.7 2.7 2.4.7 4.6 1.9 4.9 2.7.4 1 0 1.2-1.4.9-1.5-.4-1.9 0-1.9 2 0 3.5-1.7 7.2-6.2 13.4-2.1 2.9-3.8 5.6-3.8 6.2 0 .5-1.6 2.8-3.5 5.1s-3.5 5.2-3.5 6.5c0 1.2-1.8 4.5-4.1 7.1-4.9 5.9-6.9 10.4-6.9 15.4 0 2.7-.6 4.1-2.1 5.1-3 2.1-3.5 8.9-.6 11.1 1.8 1.4 1.9 1.9.8 3.2s-1.1 1.9 0 3.2c.7.8 2.1 1.3 3.1 1.1 1.4-.4 1.8.1 1.8 1.9 0 4.3 0 4.3 22.6-12.6 4.7-3.6 9.4-7.1 10.4-7.8 1.3-1 2.8-1.1 5.2-.4 5 1.3 18.9-1.7 26.5-5.7l6.2-3.3 9.7 4.2c14.9 6.3 20.2 7.5 33.4 7.4 10.1-.1 12.7-.5 21.5-3.3 18.8-6.1 28.9-13.8 32-24.1 1.3-4.6 1.5-8.3.9-22.5-1-24.8 1.1-34.6 9.8-47.7 2.1-3.1 3.8-6 3.8-6.3 0-.4-3.2 1.1-7.1 3.2-7.2 3.9-16.3 12-25.8 23.2-5.8 6.8-10.3 10.1-13.7 10.1-1.3 0-5.2-3.6-11.5-10.6-5.1-5.9-10-11.5-10.7-12.5-1.1-1.6-.4-3.7 5.4-15.6 3.6-7.6 8-17.2 9.6-21.3C383 107 390 88.5 390 87.3c0-1.9-2.5-1.6-4.5.7-2.8 3.1-3.8 2.4-3.1-2 .4-2.5.2-4-.4-4-.5 0-1 .8-1.1 1.7 0 1.1-.3 1.3-.6.6-.3-.9-1-1-2.3-.3-1.4.8-1.9.5-2.3-1.1-.3-1.2-1-1.8-1.6-1.4-.6.3-1.1-.1-1.1-1.1 0-2.4-2.7.1-4.4 4-.7 1.7-2.4 4.2-3.8 5.6s-2.8 3.5-3.2 4.6c-.5 1.5-1.3 2-2.5 1.7-1.3-.3-2.2.4-3.1 2.6-.7 1.7-1.9 3.1-2.7 3.1-1.9 0-4.1 2.2-5.3 5.4-.5 1.4-1.4 2.6-1.9 2.6-1.2 0-1.6-1.3-3.9-12.7l-1.9-9.2 3.7-7.8c2-4.4 6.9-13.3 10.7-19.9 12.6-21.4 16.2-29.6 19.4-43.7C375.7 9.6 377 3 377 1.9c0-1.8-1.2-1.9-43.4-1.9h-43.3l-.7 8c-1.1 12.3-3.6 11.1-3.6-1.8V0h-34.5c-19 0-34.5.3-34.5.7"/></svg>