<svg xmlns="http://www.w3.org/2000/svg" width="682.667" height="512" version="1.0" viewBox="0 0 512 384"><path d="M218 .8c0 .4.5 2.3 1 4.2 3 10.4 6.3 30.7 7.6 47.5.8 10.4 2.4 23.3 3.5 28.5 3.6 16.7 3.6 19.1 0 26.5-2.4 4.8-4.9 8-9.9 12.2-11 9.5-14.5 13.6-20.2 23.9-2.9 5.5-10.9 18.1-17.6 28-6.7 10-12.5 19.5-12.8 21-.3 1.6-2 11-3.6 20.9-3.5 20.5-5.5 28.4-10.5 40.8-2.7 6.7-3.3 9.2-2.5 10.6.7 1.5.1 3.3-3.2 8.8-4.9 8.2-9.5 11.8-18.5 14.4-3.7 1-7.1 2.3-7.6 2.8-1.7 1.7.3 3.1 4.4 3.1 4.9 0 5 1.1.2 3.4-7.1 3.3-8.6 4.6-7.2 6.2 1.5 1.9 7.2 1.8 11-.2 5.1-2.6 5.5-1 .5 2.2-7.7 4.7-10.3 7.1-9 8.4 2 2 9.4-.1 16.3-4.7 3.6-2.5 7-4.7 7.5-5 1.3-.8-.1 1.4-3.9 6.2-7.3 9.3-8.1 12.9-2.8 12.3 2.3-.2 4.7-2.8 12.5-13.3 5.4-7.2 10.3-12.9 10.9-12.7 1.9.5 3.8-1.9 5-6.1.6-2.2 2.4-6.4 4.1-9.4 3-5.4 3.5-5.7 11.2-6.7 6.4-.9 7.2-2.4 9.1-17.7.9-7.6 3.1-19.5 5-26.5 2-7.1 4.5-16.9 5.7-21.8 2-7.8 2.9-9.6 7.3-14.6 17.5-19.9 22.8-27.4 30.2-43 5.8-12.1 7.7-14.4 14.7-17.5 4.3-1.9 17.9-6.5 19.2-6.5.2 0 .4.9.4 2 0 1.3 1.2 2.8 3 3.8 3.3 1.9 4.3 4.4 4.4 11.1.1 4.5.1 4.5-6.4 8.1-3.9 2.3-6.6 4.5-6.8 5.6-.1 1.1.5 5.5 1.3 9.9 1.7 8.2 1.8 10.2 1.3 14.5-.3 2.1.2 2.5 3.5 3.1 2.1.3 4.6 1.4 5.5 2.4 1.6 1.8 1.6 1.8 0 .6-1.5-1.1-1.9-1-2.7 1.2-.5 1.4-.7 3.5-.4 4.7.5 1.8.3 2.1-.7 1.5s-1.2-.3-.7 1.3c.3 1.6-.8 4.2-4 9-2.5 3.7-5.6 9-6.8 11.7-1.3 2.8-3 5.7-4 6.5-2.4 2-4.6 6.6-3.9 8.3.6 1.8-2 7.2-4 8.4-1.9 1.1-5.8 8.8-5.9 11.6-.1 1.2.2 3.2.6 4.4.6 1.6.3 2.3-1.3 2.8-2.6.8-2.6 3.2 0 4 2.7.9 4.6 4.3 3.1 5.8-2 2-1.2 3 1.9 2.4 2.8-.6 3-.4 3 2.3 0 1.7.3 3 .8 3 .7 0 13.7-10.3 26.7-21.3 6.8-5.6 7-5.7 13.1-5.7 7.7 0 17.5-3.3 24.9-8.5 5.1-3.5 5.5-3.6 8.2-2.2 6 3.1 24.2 8.6 32.5 9.8 15.7 2.2 33.1-1.8 49.8-11.6 14.6-8.5 19-17.1 17.6-34.2-.4-4.8-1-13.3-1.5-18.8-1.3-16.4 1.3-28.7 8.6-40.9 2-3.3 3.8-6.5 4.1-6.9.9-1.7-6.5 2.7-13.6 8.1-5.3 4-9.6 8.6-15.8 16.8-8.3 11.1-14.4 16.4-18.9 16.4-1.9 0-26.5-24-26.5-25.8 0-.6 2.5-6.8 5.5-13.6 6.6-14.9 11.2-28.7 16.1-47.8 3.4-13.9 3.7-17 1-13.2-4.6 6.3-4.3 6.2-5 .8-1-6.8-2-8.3-3.7-5.5-1.7 2.7-2.9 2.7-2.9 0 0-1.1-.4-1.7-1-1.4-.5.3-1 0-1-.7-.1-.9-.5-.7-1.4.4-.7 1-1.5 1.5-1.9 1.2-.3-.3-1.1 1-1.8 2.9s-1.7 3.3-2.4 3.1c-1.1-.5-6.1 5.1-8.3 9.3-.7 1.2-1.2 3.2-1.2 4.4s-1.2 3.7-2.6 5.6c-2.1 2.8-2.8 3.2-4 2.2-1.1-.9-1.8-.8-3.3.5-2.3 2.1-2.3 2.1-5-8.9l-2.2-9 3.5-9.2c2-5.1 6.1-13.9 9.2-19.5 11.8-21.5 18.1-35.3 19.8-42.8.9-4.1 1.9-8.3 2.2-9.3.5-1.6-3.7-1.7-78.5-1.7-43.5 0-79.1.3-79.1.8"/></svg>