<svg xmlns="http://www.w3.org/2000/svg" width="682.667" height="512" version="1.0" viewBox="0 0 512 384"><path d="M220.7 9.7c3.3 13.6 6.9 36.4 8.2 51.5.6 7 2 16.9 3.2 22 4 17.7 1.3 24.7-15.4 41.2-9.7 9.5-11.9 12.4-16.1 20.4-2.6 5.1-10.1 17.3-16.6 27.2-6.5 9.8-12.3 19.4-12.8 21.2-.6 1.8-2 10-3.2 18.3-2.9 20.7-4.6 28.3-8.7 39.4-3.9 10.6-5.3 16.8-3.4 15.7 1.7-1.1 1.3.9-.8 3.5-1 1.3-2.8 4.2-3.9 6.5-2.8 5.4-8 9.3-17.2 12.4-9.6 3.4-10.2 5.5-1.2 5.4 3.4-.1 6 .2 5.6.5-.3.3-3.6 2.2-7.2 4.1-7.6 4-8.7 6.3-3 6.8 2.5.2 5.6-.6 10-2.8l6.3-3.1-4 3.7c-2.2 2-6.1 5-8.7 6.6-5.1 3.1-6.3 5.8-2.7 5.8 4.6 0 10-2.5 16.4-7.6 3.8-3 7-5.2 7.3-4.9s-.8 2.4-2.5 4.8c-8.9 12.4-9.9 14.9-6.6 16.2 2.3.8 6.8-4.1 15.6-17.3 5.4-8.1 7.2-10.1 8.9-9.9 2.5.2 4.8-3.3 4.8-7.4 0-1.4 1.4-5.1 3-8.1 3-5.6 3.1-5.6 9.2-6.7 3.4-.6 6.7-1.6 7.4-2.3s1.9-8 2.8-16.2c1.2-10.3 3.3-21.2 7-35.7 5.3-20.7 5.3-20.8 10.2-26.4 16.4-18.8 23.1-28.4 28-39.8 5.8-13.4 8.7-17.3 15.8-20.6 5.5-2.6 18.5-7.1 20.7-7.1.4 0 .6.6.3 1.4s.9 2.5 3.1 4.2c2.8 2.1 3.6 3.3 3.2 5.1-.2 1.3 0 2.6.4 2.9.5.3.9 2.1.9 4 0 3.2-.5 3.8-6.6 7.6l-6.6 4.2.6 6c1.2 10.9 1.3 11.5 2.6 13.1 1 1.2 1 2.1 0 4.5-1.5 3.6-1.1 4.2 4.3 5.5 2.2.5 4.2 1.6 4.5 2.3.2.7-.2 1-1.1.6-1-.3-1.7.3-2.1 1.9-.3 1.4-2.5 5.1-4.9 8.3-5.2 7.1-10.2 15.9-11.1 19.6-.3 1.5-1.5 3.5-2.5 4.5-2.7 2.7-4.2 5.9-4 9 .2 3.2-1.4 7.8-3.1 8.8-1.8 1.1-5.1 8.6-5.2 11.7-.1 2 .6 3.6 1.8 4.5 1.6 1.2 1.7 1.5.4 2.3-.8.5-1.8 1-2.2 1-1.6 0-.7 2.6 1.6 5.1 1.2 1.4 2.3 3.6 2.2 4.9-.1 2 .3 2.4 2.2 2.2 1.8-.3 2.2.2 2.2 2.2 0 1.7.6 2.6 1.6 2.6 1.6 0 19.1-14 28.2-22.5 4.5-4.3 4.9-4.5 11-4.5 5.1 0 7.8-.7 13.5-3.4 4-1.8 9-4.8 11.2-6.5 2.1-1.8 4.6-3 5.5-2.7.8.2 7.1 2.5 14 4.9 22.4 7.9 38.5 8.3 57.1 1.2 9.9-3.8 22.1-11.3 26.3-16.2 3.6-4.3 6.6-13.1 6.6-19.5 0-2.8-.7-10.7-1.6-17.6-2.8-21.9-.7-34.8 7.8-49.5 2.2-3.8 3.8-7.1 3.5-7.3-.7-.7-13.6 8.2-18 12.5-2.2 2-6.9 7.9-10.7 13.1-6.9 9.6-9.3 12.3-14.2 15.3-4.6 2.9-6.7 2.1-14.2-5-3.9-3.8-9.2-8.7-11.8-11.1-6.3-5.7-6.8-8.7-2.9-17.4 7.6-17 14.6-40.5 19-64.1 1-5.3.4-5.8-2.9-2.2-3.2 3.4-4 3.2-4-1.2 0-2-.3-3.3-.7-3-.3.4-1.2.2-2-.4-1-.9-1.7-.8-2.8.1-1.2 1-1.5 1-1.5-.4 0-.9-.8-1.6-2-1.6-1.4 0-2 .7-2 2.2 0 1.6-.3 1.9-1.1 1.1-1.6-1.6-4.8.5-4.2 2.7.3 1.2-.3 1.9-2.4 2.4-3.9.8-10.6 9.3-9.8 12.4.4 1.6-.4 3.4-2.6 6.2-2.8 3.4-3.4 3.7-5.5 2.8-2.3-1.1-3.2-2.9-5.4-11.5-.9-3.6-.7-5 1.9-12.1 1.6-4.4 8.1-18.5 14.4-31.3 13.2-27.1 13.2-27.2 15.1-36.2l1.4-6.7H367c-6.2 0-6.8.2-7.8 2.5-.7 1.4-1.2 3.1-1.2 3.6 0 1.3-8.1 20.1-9.2 21.3-1.9 2.3-.5-2.3 3.7-12 2.5-5.7 5-11.5 5.5-12.9l1-2.5H218.3zM508 192c0 191.3 0 192 2 192s2-.7 2-192 0-192-2-192-2 .7-2 192"/></svg>