<svg xmlns="http://www.w3.org/2000/svg" width="682.667" height="512" version="1.0" viewBox="0 0 512 384"><path d="M206 .6c0 .3.6 3.2 1.4 6.3s2.2 11.4 3.1 18.6c.9 7.1 2.9 18.8 4.5 26 5.3 24 6.3 33.3 5 43.8-2.3 17.1-4.8 22.7-15.9 34.7-3.6 3.9-7.3 9.9-12.6 20.5-4.1 8.2-10.6 20.3-14.4 26.7-3.9 6.5-7.6 13.7-8.4 16-.8 2.4-1.8 9.7-2.2 16.3-.8 14.4-3.6 31.8-6.5 39.9-2.5 7.4-2.5 10.4-.1 13 1.8 1.9 1.9 2.7.8 9.6l-1.2 7.5-7.7 7.8c-4.3 4.3-7.8 8.3-7.8 8.8 0 2.9 7.8-.9 14.4-7l2.8-2.6-1.7 3.5c-1 1.9-3.7 6.1-6.1 9.3-4.2 5.6-5.6 9.7-3.4 9.7 2.5 0 6.4-3.8 11.6-11.1 3-4.4 5.7-7.9 5.9-7.9 1 0-4.8 15.8-8.5 23.1-1.9 3.7-1.9 4-.4 4.6 2.5.9 7.6-5.4 11-13.5 4-9.6 4.7-10.4 5.6-5.6.4 2.1.7 6.8.8 10.4 0 8.3.8 11.2 2.9 10.8s3-5.7 3.1-18.3c0-5.5.3-11 .6-12.3.6-2.1.8-2.2 2.5-.6 2.1 1.9 4.9 1.2 4.9-1.2 0-1-1.2-3.7-2.6-6.1-1.8-3.2-2.4-5.5-2.2-8.6.3-3.7.7-4.4 4-5.9l3.6-1.7.6-7.8c1.2-16.5 2.7-27.6 5.1-39.8 1.4-7 2.5-13.7 2.5-14.9s5.1-8.9 11.9-18c11.8-15.7 15.3-21.7 20.6-35.1 3.2-8 5.4-10.9 12.6-16.8 7.6-6.2 11.1-8.4 14.7-9.2 2.4-.5 3.3-.3 3.8.8.3.8 1.5 1.7 2.6 2 2.4.7 2 2.8-.8 4.2-2 1-2.6 5-1 7.3.5.9.1 2.9-1 5.4-1.5 3.3-2.1 3.8-4.1 3.4-1.9-.5-2.6 0-4.4 3.5-1.1 2.3-2.2 5.9-2.5 8.1-.4 4.7-4.9 15-6.3 14.6-2.3-.7-12.2 23.6-10.6 26.2.3.5-.3 2.7-1.5 4.9-2.2 4.3-2.6 8.6-1 9.6 1.1.7.6 4-1.5 9.6-2 5.2-.9 11.3 2.7 15.1 2.5 2.7 2.7 3.3 1.4 4-2.3 1.3-1.9 3.5.9 5.4 1.4.9 2.5 2.6 2.5 3.8.1 2.6 7.1 8.1 11.7 9.1 4.3.9 8.3-1.8 21.8-14.8 10.2-9.9 11.3-10.6 15-10.7 3.9 0 20.4-6 26.4-9.6 2.5-1.5 3.3-1.3 14.5 2.1 21.4 6.4 37.4 5.7 54.9-2.5 14.1-6.5 22.8-14.5 25.7-23.4 1.4-4.2 1-15.9-1-34.1-1.9-16.1.3-29.1 6.5-40.3 1.8-3.2 2.2-4.8 1.4-5.3-.6-.4-.8-1.2-.5-1.8 1.4-2.2-.6-1-8 4.5-8.1 6.1-11.4 9.8-19.4 21.9-7 10.6-13.8 16.4-17.8 15-.9-.3-6.2-4.8-11.6-9.9l-9.9-9.3 1.7-2.9c2.5-4.5 11.4-30.6 14.7-43.2 3.2-12.4 3.5-17.4 1.7-23.5-1.6-5.5-4.5-8.3-9.8-9.7-2.5-.7-4.9-1.5-5.5-1.8-.5-.4-3.3-.7-6.2-.7s-5.5-.3-5.8-.7c-.4-.3.1-1.8 1.1-3.3 2.9-4.5 5.1-8.4 11.5-21 4.8-9.3 6.7-14.4 8.5-22.5 1.3-5.8 2.3-11.1 2.4-11.8 0-.9-16.4-1.2-79-1.2-43.4 0-79 .3-79 .6M481 192v192h31V0h-31z"/></svg>