<svg xmlns="http://www.w3.org/2000/svg" width="682.667" height="512" version="1.0" viewBox="0 0 512 384"><path d="M174.7 6.1c1.5 3.7 2.9 9.9 3.5 15.8 1.4 13.5 3.2 26.2 6.3 43.6 2.4 13.5 2.6 16.9 2.2 33-.4 20.6-.6 21.3-9 32.3-3.6 4.8-7.2 11.3-10.2 18.4-2.5 6.1-8 17.8-12.2 26-7.6 15-7.6 15.1-9 27.2-1.9 16.8-3.9 27.3-7.4 37.9-1.6 5-2.9 9.4-2.9 9.8s1.6 1.7 3.6 2.9c2.4 1.5 3.3 2.7 2.9 3.8-.3.8-.1 4 .5 6.9 1.1 5.1 1 5.6-1.7 9.9-7.7 12.5-7.6 12.2-5.3 12.9s7.8-3 8-5.5c.1-1.1.3-1.1.7-.2.2.7-.2 3.3-1.1 5.9-2 5.8-2 8.9-.1 9.6 1.6.7 6.5-4.6 6.5-7.1.1-.9.8-2.8 1.6-4.2 1.4-2.3 1.5-2 .9 4.9-.3 4.1-.8 8.4-1.1 9.7-.4 1.6 0 2.5 1.4 3.3 1.7.9 2.3.6 4.1-2.5 1.2-1.9 2.4-6.1 2.7-9.2 1-8.5 1.8-9.3 3.9-3.6 4 11.3 5.9 14.4 8.9 14.4 1.2 0 .5-5.9-1.3-11.3-1.1-3.1-2.3-7.7-2.7-10.3-.6-4.4-.6-4.6 1.5-3.9 3.6 1.1 3.7-2.1.1-6.6-4.4-5.5-6.5-12.9-3.6-12.9 2.5 0 3.5-2.5 4.1-10.1.8-10.8 1.6-16.6 3.1-23.9.8-3.6 2.4-11.4 3.6-17.4 2.1-10.9 2.2-11 11.3-24.5 9.3-13.6 13.3-21.7 17.5-34.5 1.6-4.9 3.6-8.3 6.9-12 2.5-2.8 5.7-6.6 6.9-8.4 2.4-3.3 5.9-5.8 6.9-4.8.3.2-.5 1.9-1.8 3.7-1.8 2.6-2 3.5-1 5.1 1.6 2.5-1.4 7.8-4.4 7.8-2.4 0-5.5 5.4-5.5 9.5 0 3.4-2.9 10.7-5 12.6-3.6 3.1-11 22.5-9.5 24.9.3.4-.2 2.4-1 4.4-1.8 4.2-1.9 8.3-.3 8.8.8.3.7 2-.4 6.6-1.8 7.2-1.2 11.9 2.3 16.6 1.5 1.9 1.8 3.1 1.1 3.4-2 .6-1.4 3.1 1.3 5.4 1.4 1.2 2.5 2.7 2.5 3.4 0 2.3 6.2 7.2 11.1 8.8 4.3 1.3 5.3 1.3 8.3.1 3.2-1.4 10.2-7.2 19.4-16.4 4.6-4.6 7-5.6 21.7-8.8 3.9-.8 8.5-2.4 10.4-3.5l3.3-2.1 8.7 2.1c15.5 3.9 22.4 4.4 32.2 2.2 14.6-3.3 29.7-11.8 35.5-20.2 2.7-3.9 2.9-4.7 2.8-14.2 0-5.6-.4-16.9-.8-25.1-.8-13.6-.7-15.7 1.2-22.2 1.1-4 3-8.7 4.3-10.4 2.1-3.1 2.2-3.1.1-2-3 1.6-3.4 1.4-2.2-1 2.4-4.4.1-3.9-7 1.8-5.6 4.4-9.3 8.6-14.7 16.4-7 10.1-11.7 14.9-14.5 14.9-.7-.1-4.4-3-8.1-6.5-7.3-6.9-7.3-6.7-4.2-14 12.2-28.9 15.6-46.1 11.2-56.4-2.7-6.2-5.5-8.7-11.9-10.5-12.1-3.4-11.7-2.7-5.3-9.8 3.5-3.9 5.4-6.9 5.2-8-.3-1.2 0-1.5 1.2-1.1s1.2.2-.3-.9c-1.7-1.3-1.7-1.7-.4-4.4.9-1.6 1.8-4.2 2.2-5.9.4-1.6 2.2-5 4-7.5 3.3-4.8 10.1-20.3 11.2-25.8l.7-3.2H172.2zM461 192v192h51V0h-51z"/></svg>