<svg xmlns="http://www.w3.org/2000/svg" width="682.667" height="512" version="1.0" viewBox="0 0 512 384"><path d="M138 1c0 .5 1.6 3.9 3.6 7.5 4.7 8.5 6.1 14.3 7.4 29.5.6 6.9 1.7 16.5 2.5 21.5 1.7 10.4 5.5 49.2 5.5 56.3 0 4.9-.9 6.7-9.6 19.6-1.7 2.5-4.5 8.5-6.2 13.3-1.7 4.9-5.8 14.3-9.1 21-6.7 13.6-7.3 15.5-9.6 30.3-1.9 12.6-5.7 27.4-8.5 33.2-2.6 5.5-2.6 5.9 1.3 8.4 2.4 1.6 3.5 3.2 4.4 7 .6 2.7 1.4 5.6 1.7 6.4.4.9-1.1 4.4-3.4 8.2-2.2 3.7-4 7.1-4 7.7 0 1.1 5.2.7 7.1-.5.9-.5 1 0 .5 1.7-2.1 7.5-2 7.8 1.3 7.7 3.6-.1 4.6-1.1 5.6-5.5.3-1.8 1.1-3.6 1.7-3.9.6-.4.8.1.5 1.2s-.9 4.8-1.2 8.3c-.7 6.1-.7 6.3 1.4 5.6 1.4-.4 2.1-.2 2.1.7 0 3.4 4.1-5.9 4.6-10.7.4-3 1-5.2 1.5-4.9.4.2 1.6 3.2 2.5 6.5 1.3 4.7 2.3 6.3 4.2 7 4.2 1.6 4.6-.2 1.8-9.4-3-9.8-3.1-10.7-1.2-10.7 2.9 0 2.6-2-.7-5.7-4.7-5.3-6.2-10-4-12.5 1.1-1.2 2.1-5.5 3-13 .8-6.2 2.3-14.9 3.4-19.3 1.2-4.4 2.9-11.7 3.9-16.2s2.8-9.5 3.9-11.2c1.2-1.6 2.1-3.3 2.1-3.9 0-.5.6-1.5 1.4-2.1.8-.7 2.2-2.8 3.2-4.9 1.7-3.5 1.7-3.6 2.6-1.3.6 1.7.4 3.1-.7 4.7-1.7 2.6-2 7-.5 7.9 1.2.7 1.4 8.2.2 8.9-.7.4-.8 2.3-.4 8.3.1 1.2 1.2 3.2 2.4 4.3 1.9 1.7 2 2.4 1 4-1.2 2-1.3 1.9 6.5 11 2.3 2.6 4.9 4.2 8.7 5.4 5.3 1.7 5.6 1.7 9.8-.2 2.4-1 8.4-5.7 13.3-10.4 9.2-8.7 10.5-9.3 20.8-10.8 3.2-.5 7.8-1.9 10.3-3.1 4.5-2.1 4.7-2.1 11.4-.5 15.1 3.6 26.6 3 37.8-2 2.9-1.3 5.5-2.4 5.8-2.4s3.2-1.8 6.5-4.1c10.8-7.3 12.8-13 10.9-31.4-2-19.6-.8-32.1 3.9-39.4 1.5-2.4 1.5-2.4-.7-1.9-2.6.7-2.7.6-.6-3.4l1.6-3-4.7 3.2c-6 4.1-12.7 11.1-17.8 18.5-4.4 6.4-9.4 11.5-11.3 11.5-.6 0-3.2-2.1-5.7-4.6-5.1-5-5.1-4.2.3-15.2 1.1-2.3 3.5-8.4 5.2-13.5 2.6-7.9 3.1-10.8 3.2-20.2.1-12.1-.9-15.2-6.4-20.2-2.9-2.6-12.5-6.5-13.5-5.5-.3.3-1.6-.1-3-.8l-2.4-1.3 3.6-4.4c2.2-2.7 3.3-4.7 2.6-5.1-1.2-.8-2.4-6.2-1.3-6.2.4 0 1.6-1.9 2.6-4.2s3-5.8 4.3-7.8c2.4-3.6 9.1-20 9.1-22.2-.1-.7-1-.2-2.2 1.2l-2.1 2.5.6-4.8c.3-2.6.9-5.2 1.2-5.8.4-.5.4-2.2 0-3.7l-.7-2.7-1.9 3.5c-1.1 1.9-1.7 2.5-1.4 1.4.3-1.2.8-3.9 1-5.9.5-3.3.3-3.6-1-2.5-1 .9-1.5.9-1.5.1S252.1 0 204 0c-41.8 0-66 .4-66 1m47.3 130c-.8 1.7-1.9 2.8-2.4 2.4-.5-.3-.2-1.2.6-2 .8-.9 1.5-2 1.5-2.5s.4-.9.9-.9.3 1.4-.6 3M439 192v192h73V0h-73z"/></svg>