<svg xmlns="http://www.w3.org/2000/svg" width="682.667" height="512" version="1.0" viewBox="0 0 512 384"><path d="M79 .5C79 1.9 84.5 15 89.3 25c6.4 13.6 6.4 13.6 7.6 31 .6 7.4 2 20.2 3.1 28.4 2.2 14.5 2.2 14.9.4 17.1-1.1 1.3-4.5 5.4-7.7 9.1-3.1 3.8-6.7 9.1-7.9 11.9-2 4.4-4.2 8.8-14.2 28-1.7 3.2-2.2 6.6-2.7 17-.4 7.1-1.2 15.6-2 18.7-1.2 5.4-1.2 5.9.8 8 1.1 1.3 2.6 4 3.2 6 1 3.1.9 4.2-.5 7-.9 1.8-2.5 4-3.5 4.9-2.4 2.1-2.4 2.9 0 2.9 1.1 0 3.1-1.4 4.5-3.1 3.3-3.8 3.3-3.2.1 3.1-1.4 2.7-2.5 5.4-2.5 6.1 0 1.6 5.1.2 6.7-1.9 1.7-2.3 1.6-.7-.1 2.7-2.2 4.1-.5 5.9 2.6 2.8 1.4-1.4 2.8-3.2 3.1-4.2 1-2.5 2.5-.9 2.1 2.2-.2 1.6-.1 2 .2 1.1.5-1.6.7-1.6 2.1-.3.8.8 1.8 1.3 2.3 1s1.6.5 2.5 1.7c1.6 2.2 1.6 1.9 1.3-6-.3-7.5-.2-8.3 1.4-7.8 2 .5 2.4-.9.7-2-.6-.3-.8-1.7-.5-2.9.4-1.6-.2-3.3-1.9-5.3-1.4-1.7-2.1-3.2-1.6-3.4.5-.1 1.1-4.7 1.5-10 .6-9.9 2.1-22 3.3-26.7.3-1.4 3-6.2 5.9-10.7 2.9-4.6 6.2-10 7.4-12.1 1.2-2.2 2-3 2-2 0 2.2-2.8 7.7-3.8 7.7-1.5 0-5 7.5-6.5 14-5.1 21.3-1.2 37.1 10.7 43.2 8.2 4.2 15.8 2.2 28.3-7.2 6-4.5 6.5-4.7 14.6-5.3 7.1-.5 9.6-.2 16.3 1.9 9.5 2.9 12.8 3 22.6.5 12.8-3.3 21.5-8.6 23.8-14.6.6-1.6 1.3-9.2 1.5-17 .4-14.4 1.8-21.2 5.5-26.5 3.5-5.1 3.5-5.3.5-4.6-4.4 1.1-13.8 8-18.5 13.6-5.5 6.6-7.6 7.7-10.1 5.4-1-.9-1.9-2.1-1.9-2.6s1.8-3.6 4.1-6.9c5.5-8.2 8.7-15.4 10.4-23.8 2.7-12.5.2-18.7-9.8-25.5-4.9-3.2-6.6-3.8-11-3.8-2.9 0-5.5-.2-6-.5-.4-.2.2-1.7 1.3-3.3 3.4-4.7 6.2-12 4.6-12-2.4 0-2.5-2.6-.5-10.7 2.5-9.6 3.4-21 2.1-24.3-.9-2.1-1.1-2.2-1.2-.5-.1 3.8-2-.7-2-4.9 0-2.8-.7-4.5-2.5-6.1-2.1-2-2.3-2.7-1.5-5.7 1.2-3.9 1.3-8.8.2-7.2-1 1.5-5.2 1.2-5.2-.4 0-1.4-3-4.9-3-3.5-.1 1.9-2-2.4-2-4.5V0h-45.5C99.5 0 79 .2 79 .5m40 121.4c0 .6-.5 1.3-1.1 1.7-.6.3-.8 1.6-.5 2.9.6 2.3-2.4 6.2-3.7 4.9-.4-.4-1.3-.1-2.2.6-1.3 1.1-1.3.7-.1-3.4.8-2.6 2-5.3 2.6-6.1 1.4-1.7 5-2 5-.6M394 192v192h56.4c50.5 0 56.4-.2 57-1.6q1.5-3.75-.9-2.7c-1.4.5-1.4.1.1-3.6 1.6-4 1.5-4.5-.6-12.9-1.2-4.7-2.6-9-3.2-9.3-.5-.3-1.2-5.3-1.4-11-.3-8.4-.8-10.7-2.2-11.7-1.5-1.1-1.7-3-1.5-15 .1-11.6-.2-14.2-1.8-17.4-2.4-4.6-2.4-4.9.1-7.6 2.7-2.8 5.6-2.8 11.4.3l4.6 2.4V0H394z"/></svg>