<svg xmlns="http://www.w3.org/2000/svg" width="682.667" height="512" version="1.0" viewBox="0 0 512 384"><path d="M73 .3c0 1.9 6.2 17.6 10.7 27.2l5.7 12 1.2 23.2c.7 12.7 1.8 25.8 2.3 28.9.6 3.2 1.1 6.1 1.1 6.5s-2.7 2.4-6 4.4c-3.2 2-7.7 5.7-9.9 8.3C68 122.6 54.9 139.7 54.3 142c-.3 1.3-.1 4.9.6 8 .7 3 1.8 10.2 2.5 16s2.1 12.3 3.1 14.5c1.4 3.2 1.5 4.6.6 7.6-.6 2-1.8 4.2-2.6 4.9-1.9 1.6-1.9 3-.1 3 .8 0 2.6-1.5 4-3.3l2.6-3.2-1 3.3c-.5 1.9-1.4 4-2.1 4.8-1.4 1.8-.3 6.5 1.4 5.8.7-.2 2-1.7 3-3.2l1.7-2.7-.2 3.5c-.4 4.8 1.2 5.2 3.9 1.1l2.3-3.4.1 3.4.1 3.4 1.3-3.5c.7-1.9 1.4-2.7 1.4-1.8.1.9.7 2.3 1.5 3 .7.8 1.7 2.4 2 3.6.4 1.2 1.2 1.9 1.8 1.6.7-.5.8-4.1.4-10.9-.5-7.6-.4-10.5.5-11.1.7-.4 1-.3.6.3-1 1.5 6.3 8 11.7 10.4 7.3 3.2 13.3 2.1 23.8-4.2 8-4.9 8.5-5.1 15.6-5 6.2.1 8.5.7 14.5 3.5 9.3 4.4 16 5.2 26.1 3.1 18.1-3.7 24.6-10 24.6-23.6 0-6.1 3-21 4.8-24.3.9-1.7 2.5-4 3.5-5.1s2.3-2.8 2.8-3.7c.9-1.6.7-1.7-1.8-.7-4.8 1.8-14.3 8-20 13-3.1 2.7-6.1 4.9-6.7 4.9s-1.9-1.4-2.8-3.1c-1.8-3-1.7-3 1.5-6.6 1.7-2 4-4.3 5-5.2.9-.8 1.7-1.9 1.7-2.4s1.3-2.8 2.9-5.1c3.4-4.8 7.1-15.1 7.1-19.4 0-6.1-1.4-9.5-5.4-13.4-5.7-5.5-9.2-7.2-15.2-7.4-8.5-.3-8.8-.9-4.3-8.3 4.4-7.3 4.7-8.8 2.1-9.9-1.8-.7-1.8-.9 0-8.2 2.5-10.1 3.2-17.8 2.3-23.6-.6-3.8-.9-4.4-1.5-2.9-.6 1.6-1 1.2-1.9-2.5-2-7.6-2.2-8-3.2-7.5-.5.4-.9-2.1-.9-5.8 0-6.3 0-6.4-2.5-5.9-2 .3-2.5 0-2.5-1.5 0-1.2-1.1-2.5-2.6-3.2-2.2-1-2.5-1.6-2.1-4.1.4-1.6.2-4.3-.4-6l-1.1-3h-42.9C92.3 0 73 .1 73 .3m67.6 32.5c-1.8 1.6-1.8 1.6-.6-.6.6-1.3 1.4-2.1 1.8-1.8.3.4-.2 1.4-1.2 2.4m-30.3 85.8 3.7.7-3.9 3.4c-2.4 2-4.1 4.4-4.3 6-.2 2-1 2.9-2.8 3.3-1.7.4-3.3 2-5 5.5-1.4 2.8-4.1 6.7-6.1 8.8s-4.2 5.7-4.9 8-1.6 5.1-2.1 6.2c-.7 1.7-1.1 4.1-2.1 11.2-.1.7-.4 1.3-.8 1.3-1 0-2-8.1-2-16.4l.1-7.1 7.8-8.7c4.4-4.8 9.2-10.8 10.7-13.5 5.9-10.4 5-9.8 11.7-8.7M386 192v192h103l1.8-3.7c4.1-8.2 5.6-13.4 4.2-14.3-1.1-.7-1.1-1.4-.1-3.7 1-2.4.9-4.3-.4-10.1-.9-4-2.3-7.9-3.1-8.7-.9-.8-1.4-3-1.2-5.2.1-2.1.1-6.8 0-10.5-.2-5.7-.5-6.8-2.2-7.3-2-.6-2.1-1.4-1.9-13.3.1-10.3-.2-13.4-1.7-16.4-1.6-3.5-1.6-3.8 0-6.2 2.7-4.3 9.1-2.8 16.5 3.9l4.2 3.8 3.4-1.9 3.5-1.9V0H386z"/></svg>