<svg xmlns="http://www.w3.org/2000/svg" width="682.667" height="512" version="1.0" viewBox="0 0 512 384"><path d="M69 1.4c0 3 5.3 18.2 10.3 29.4l5.2 11.7v24c.1 13.2.4 25.2.9 26.7.7 2.5.5 2.7-3.6 3.8-8.1 2.1-10.8 3.4-17 8.2-3.5 2.6-6.6 4.7-7 4.8-2 .1-16.3 10.8-17.9 13.5-2.7 4.4-2.4 6.2 2.7 14 2.4 3.8 5.2 9.4 6.1 12.5.9 3 2.2 6.4 2.9 7.5.7 1.2 1.8 5.4 2.4 9.4 1 6.9 3.2 12.1 4.8 11.2.4-.2 1.2 1.4 1.8 3.5 1.2 4 1.3 3.9 3.2-2.1l1-3 1.1 2.8c.6 1.6 1.1 3.9 1.1 5.3 0 3.3 1.6 3.1 2.5-.3l.7-2.8 2.6 3.2c1.5 1.8 5 4.2 7.7 5.3 6.1 2.6 10.7 2.1 21-2 3.9-1.5 9.7-3.1 13.1-3.4 6.4-.6 8 0 13.4 5 1.4 1.3 5.2 3.7 8.5 5.3 5.4 2.8 7 3.1 15.2 3.1 10 0 18.9-2.2 24.1-5.9 3.4-2.4 5.5-7.6 7.7-18.9 1.8-9.3 5.2-16.8 10-22.1 2.2-2.4 3.2-4.1 2.3-4.1-2 0-14.4 6.2-20.8 10.4-3 2-5.9 3.6-6.5 3.6s-1.8-1.8-2.8-4l-1.7-4 4.7-4.2c2.5-2.4 6-5.8 7.7-7.7s3.6-3.9 4.2-4.5c2.2-2.3 6.4-9.6 7.7-13.4 2-5.8.3-10.3-6.3-16.8-4.7-4.6-6.1-5.4-10.5-5.9-2.7-.4-5.4-.6-6-.5-1.9.4-5.5-1.2-5.5-2.4 0-.7 1.1-2.6 2.3-4.4 1.3-1.7 3.2-5 4.2-7.3 1.8-3.8 1.8-4.2.3-5.3-1.6-1.1-1.5-1.9.3-10.1 2.7-12.4 2.3-26.3-.6-25.3-.6.2-1.4-1.9-1.9-4.5-.6-3.6-1.2-4.7-2.3-4.3-1.2.5-1.4-.4-1.1-5.6.3-6 .2-6.3-1.9-6-1.5.2-2.2-.3-2.5-1.8-.2-1.1-.7-2.1-1.3-2.1-2.4-.1-4.4-3.2-3.8-6 .3-1.6 0-5.6-.8-8.9l-1.3-6h-40.3C74.8 0 69 .2 69 1.4m65.5 35.3c-.8 3.2-1.3 3.9-2.1 3-1-.9.5-5.7 1.7-5.7.7 0 .9 1 .4 2.7M107.1 118c2.2.5 2.6.8 1.3.9-1.2.1-2.9 1.2-3.8 2.6s-2 2.4-2.4 2.3c-1.5-.5-6.2 3.5-6.2 5.3 0 2.1-1.7 3.4-4.4 3.4-1.2 0-2.9 1.6-4.5 4.4-1.4 2.4-3.5 4.9-4.6 5.5-1.9 1.1-4 3.2-7.4 7.6-1.9 2.4-2 2.4-2.6.5-.3-1.1-2.2-5-4.1-8.7l-3.5-6.7 8.9-4.5c4.9-2.6 11.3-6.9 14.3-9.6 5.3-4.9 5.5-5 10.5-4.4 2.8.3 6.6 1 8.5 1.4M378 192v192l46.2-.2 46.3-.3 6.2-9.4c5.8-8.6 8.1-13.9 8.8-19.9.2-1.6-.2-2.2-1.1-1.8-1.7.7-1.7-.2 0-3.3 1.1-2 1.1-3.4-.2-8.5-.8-3.3-2.2-6.7-3-7.4-1.3-1-1.4-1.8-.6-4 .6-1.7.7-4.2.1-6.7-.4-2.2-.6-5.7-.3-7.8.5-2.9.3-3.7-.9-3.7s-1.5-1.8-1.5-10.5c0-8-.5-11.7-2-15.6-4-10.7 4-13 14.2-4 3.7 3.2 6.6 3.9 8.5 2 .6-.6 3.7-1.9 6.9-2.9l5.9-1.8.3-139.1L512 0H378z"/></svg>