<svg xmlns="http://www.w3.org/2000/svg" width="682.667" height="512" version="1.0" viewBox="0 0 512 384"><path d="M62 1c0 3.3 5.9 25.1 9.1 33.7 3.4 9.1 3.9 11.4 3.9 18.9 0 4.8-.8 13.3-1.7 19l-1.7 10.5-4.5-.7c-2.5-.3-8.3-1.5-12.9-2.5-4.5-1-9.9-1.9-11.8-1.9-4.1 0-8.9 2.3-10.3 4.9-1.5 2.7-.6 9.8 2.2 17.6 1.4 3.8 3 9.5 3.6 12.5 1.4 7 4.3 11.8 7.5 12.6 1.4.3 2.8 1.6 3.2 2.7 1.1 3.7 3.7 9.1 5.1 10.8 1.2 1.4 1 2-1.4 4.5-3.9 4-8.3 12.6-8.3 16.2 0 2.2 1 3.9 4.1 6.6 5.3 4.8 8.1 5.8 14.8 5.1 4-.5 7.8 0 13.5 1.4 4.4 1.2 8.7 2.1 9.7 2.1 1.2 0 3.8 3 7.4 8.5 9 13.6 16.8 18.7 29 18.9 13.9.2 17.4-1.9 24.1-14.4 4.3-8.2 7-11.4 13.1-15.2 4.6-3 4.7-3.1 2.5-4.1-1.7-.8-4.6-.4-12.3 1.7-5.5 1.4-10.4 2.4-10.9 2.1-.9-.6-1.6-3.5-2.5-10.6l-.5-4.6 9.7-4.8c11.3-5.5 19.2-10.4 22.1-13.5 2.1-2.3 3.5-7 2.1-7-.5 0-1.1-1-1.4-2.3-.3-1.2-1.9-3.1-3.4-4.2-1.6-1-2.7-2.5-2.4-3.2.6-1.4.6-1.4-8.9-1.6-3.8-.1-6.8-.5-6.8-1 0-.4-.7-.7-1.5-.7-1.8 0-1.8-1-.5-7.9.5-2.9 2.2-7.1 3.8-9.4 4.1-6.2 5.5-9.7 4.2-11.1-.6-.9-.6-2.4.1-4.7 2.4-7.9-.3-36.2-3.4-35.6-.8.1-1.2-1.3-1.3-3.8-.1-7.3-.3-8-1.6-6.7-1.6 1.6-2.8 1.5-2.8-.2 0-.8-.6-2.1-1.3-2.8s-1.9-2.8-2.5-4.7c-.7-1.9-1.9-4.2-2.7-5.1-1.1-1.2-1.2-2.4-.6-4.8.6-2.1.6-4.2-.2-6.2-1-2.6-.8-3.8 2.1-9.5L142 0h-40C76.5 0 62 .4 62 1m4.8 105.5c5.2 1.4 12.4 3.8 16 5.4 3.7 1.5 8.2 3.4 10 4.1s3.9 2.2 4.7 3.4c1.7 2.3 2 4 .6 3.2-.5-.3-1.1.1-1.4.9-.4.8-4.6 2.6-9.4 4.1s-9.3 3.3-9.9 4.1c-.7.7-2.8 1.5-4.8 1.6-1.9.2-4.4 1.1-5.5 2.1-1.7 1.5-2.2 1.6-3.3.5-1.8-2-4.7-13.4-3.8-15 1-1.7-.2-8.1-2.4-13.2-.9-2-1.3-3.7-.9-3.7.5 0 5 1.1 10.1 2.5M363 192v192h42c41.5 0 42 0 42-2 0-2.4 4.8-12.3 9.5-19.5 5.4-8.3 10.6-18.5 12.1-23.6 1.4-4.8 1-10.4-.7-9.3-.5.3-.9-.2-.9-1s.5-1.8 1.1-2.2c1.4-.8.4-8-1.5-10.9-1.1-1.6-1.2-4-.6-10 1.2-11.7.2-25.9-2.3-32.9l-2.1-5.9 2.4-1.9c2.8-2.2 5.1-1.7 10.2 2.3 3.1 2.4 4.2 2.8 5.7 1.9 1.1-.5 2.7-.7 3.5-.4.9.3 4.5-.2 8.1-1.1 6.2-1.7 14.4-1.7 18.8 0 1.6.7 1.7-6.1 1.7-133.4V0H363z"/></svg>