<svg xmlns="http://www.w3.org/2000/svg" width="682.667" height="512" version="1.0" viewBox="0 0 512 384"><path d="M51.4 2.7c.3 1.6 1.3 10.4 2.1 19.8.8 9.3 2.1 22.8 3 30C58.6 70.6 58.7 70 54 65.1c-4.4-4.5-7.2-5.1-12-2.6-1.6.9-5 1.8-7.6 2.2-5.7.8-8.3 2.8-9 7.4-.5 2.8-.1 4.1 1.9 6.5 1.6 2 2.7 4.8 3.1 8.7.6 4.4 1.5 6.6 3.8 9.3 1.6 1.8 3.7 3.4 4.6 3.4 1.2 0 .8-.8-1.4-3.2l-2.9-3.2 2.7 1.7c2.9 1.8 6.8 2.3 6.8.9 0-.5-1-1.4-2.2-2l-2.3-1.1h2.3c2.8-.1 2.9-1.7.1-2.6-1.9-.6-2-.7-.2-2 1.5-1.1 1.6-1.4.3-1.8-5.2-1.7-5.1-1.6-4-3.7.6-1.1 2.4-2.7 4-3.5l2.8-1.5 5.3 9.8c5.5 10.3 10 17 16.1 24 5.1 6 8.4 11.7 6.3 10.8-1.1-.4-3.2.9-6.3 3.8-3.9 3.6-5.6 4.4-9.8 4.9-3.3.4-5.5.2-6.3-.6-.9-.9-1.6-.9-3.1.1-1.3.8-3.5 1-6 .6-6.5-1-10.7.3-15.1 4.8-2.1 2.2-3.9 4.6-3.9 5.3 0 1.9 3 4.1 8.5 6.1 2.8 1 6.1 3.1 7.4 4.7 2.8 3.3 8.1 6.2 13.2 7.1 3.4.6 3.7.9 4.8 5.9 1.7 7.8 5.5 15.1 10 19.5 5.4 5.2 9.8 7.2 15.9 7.2 4.7 0 5.6-.5 12.6-6 5.2-4.1 9.1-6.4 12.3-7.1 8.1-2 8-1.9 5.3-3.4-1.4-.8-4.5-1.7-7-2-12.4-1.7-12-1.5-12-4.1 0-3.7 2.1-11.7 3.4-13 .6-.7 5.8-2.2 11.6-3.4 5.8-1.3 12.7-2.9 15.3-3.7 4.3-1.2 4.7-1.7 4.1-3.6-1.7-5.5-4.1-7.4-9.9-7.9-7.6-.6-8.3-1.5-5.6-8 2.3-5.8 5.7-10.3 16.8-22.7 6.3-6.9 7.2-8.5 6.7-10.9-.3-1.7.4-5.6 2-10.2 2.7-7.6 3.2-12.5 1.6-15-.6-1-.2-2.6 1.2-5.2 2.3-4 1.8-6.5-.7-3.2-1.3 1.8-1.5 1.7-2.6-1.5-1.1-3-1.3-3.2-2-1.5-.6 1.7-.9 1.5-1.9-1.4-1.6-4.2-2.8-4.1-3.5.5-1 6.2-2.3 8.4-1.7 2.9.4-3.8.2-4.7-.8-4.1-.7.4-1.5.2-1.9-.4-.5-.8-1.7.1-3.3 2.6C118.9 64.1 107 77 105.9 77c-.5 0-.2-1.5.5-3.3.8-1.7 1.7-4.8 2.1-6.7.7-3 .6-3.3-.8-2.2-2.5 2.1-2.9-1.3-1.1-8.5 1.5-6.2 1.5-6.5-.3-8.6-1.5-1.6-1.8-2.9-1.3-4.7.4-1.4.5-3.5.3-4.6-.9-4.1 7.1-16.6 19-29.7l7.9-8.7H50.8zm39.1 63.5c-.7 8-3.1 18.8-4.4 20.1s-3.4-8.9-2.9-14.3c.4-3.5 1.4-6 3.7-8.9 1.8-2.3 3.5-4.1 3.8-4.1s.2 3.3-.2 7.2m47.2 7c-.3.8-.6.5-.6-.6-.1-1.1.2-1.7.5-1.3.3.3.4 1.2.1 1.9M318 192v192h110.2l-.6-2.3c-.3-1.2-.9-4.2-1.3-6.7-.3-2.5-1.6-6.1-2.8-8s-2.4-4.2-2.8-5q-.6-1.8-.6.3c-.1 1-.6 1.5-1.2 1.1-.6-.3-1-2.9-.9-5.8.3-7.2.2-7.9-1.4-7.3-2.9 1.1-3.5-6.1-1.1-13 1.7-5 3.5-18.4 2.3-17.7-.4.3-.8.2-.8-.1 0-1.9 3.2-5.7 12.4-15 9.6-9.7 10.5-11 13.6-19 2.8-7.1 3.1-9 2.2-10.6-1.6-2.5-1.6-2.3 1.6-6.1 1.6-1.8 4.2-5.6 6-8.5 2.9-4.8 3.1-5.6 2.5-12.1-.8-10.3 2.4-13.9 8.5-9.6 1.3.9 2.9 1.3 3.7 1 .7-.2 1.9.2 2.6 1 1 1.3 1.4 1.3 2.9-.1.9-.8 3.3-1.5 5.3-1.5 2.8 0 4.4.8 6.9 3.4 1.8 1.8 4.2 3.6 5.3 4 2.7.8 12.2 10.2 14.1 13.9 1.8 3.4.5 8.5-3.1 12-2.1 2.1-2.8 3.3-7 12-1.6 3.2-2.3 3.8-4.7 3.5-1.5-.1-2.8.1-2.8.5-.1 2.6 1.5 5.7 3.3 6.3 4.2 1.2 9.2 3.8 12 6.1 3.6 2.9 4.9 2.9 4.1-.1-.4-1.9.1-2.9 2.5-4.7l3.1-2.3V0H318z"/></svg>