<svg xmlns="http://www.w3.org/2000/svg" width="682.667" height="512" version="1.0" viewBox="0 0 512 384"><path d="M47 1.7c0 1 .5 3.6 1 5.8s1.7 12.8 2.5 23.5c.9 10.7 2 22.2 2.5 25.5.6 3.3 1 7 1 8.3 0 2.2-.1 2.2-2.6.5-2.3-1.4-3.3-1.5-8.3-.5-3.2.7-7.5 1.2-9.8 1.2-2.6 0-4.6.6-5.6 1.8-2.4 2.6-2.2 8.7.3 11.2 1.2 1.2 2 3.3 2 5.4 0 5.8 1.1 9.3 4 12.8 3.2 3.8 5 3.3 2.4-.7l-1.8-2.8 3.3 1.7c4.1 2.1 5.5 1.1 2.1-1.4-2.3-1.8-2.3-1.9-.4-1.4 2.8.7 4.1-1.3 1.3-2.1-1.9-.6-2-.7-.2-2 1.7-1.2 1.6-1.4-1-2-4-1-3.5-4 1.2-6.4 1.9-1.1 2.6-1 3.5.1 1.6 1.8 6.2 12.4 7.5 17.4.6 2.2 2.3 5.7 3.8 7.7C68 121.3 69 123 67 123c-1 0-3.4 1.3-5.2 2.9-4.6 4-6.9 4.5-19 4.2-13.6-.3-19 1.8-22.7 8.8-1.7 3 .5 5.5 6.8 7.6 2.6.8 6.5 3.1 8.5 5 2.1 1.9 6.2 4.2 9.1 5.1l5.3 1.7 1.7 6.5c2.8 11.4 8 18.7 16 22.3 7.9 3.7 10.7 2.8 23.5-6.9 3-2.3 6.6-4.2 8-4.3s3.6-.4 5-.9c2.5-.7 2.5-.7-1-2.3-1.9-.8-6.5-1.8-10.3-2.2-3.7-.4-6.9-1.1-7.2-1.4-.6-1.1 2.5-12.5 3.8-13.7.7-.6 6.2-2.1 12.2-3.3 15.4-3 18.7-4 17.8-5.4-.4-.6-.8-2-.8-2.9-.3-3.2-3.5-5.6-8.4-6.3-7.9-1.1-8-1.5-4.2-9.2 2.4-5 5.3-8.6 10.7-13.6 8.3-7.7 14-15.1 14.2-18.4 0-1.2 1.3-4.8 2.9-8 2.3-4.8 2.8-7.4 3.1-15.2.3-5.9 0-9.1-.6-8.7-.5.3-1.2-.8-1.6-2.4-.7-3.9-1.6-3.8-4.4.8-2.3 3.7-2.3 3.7-1.8.7.4-2.6.3-2.7-.9-1.2-1.3 1.8-4.1 2.4-3 .7.3-.6 0-1-.7-1s-2.6 2.3-4.3 5c-1.6 2.8-3.3 5-3.8 5-.4 0-.5-.4-.2-1 .3-.5.1-1.9-.6-3.1-1.1-2.1-1.3-1.9-6.3 3.6-6 6.8-9.5 7.9-8.8 3.1.5-2.8.3-3-1.2-1.7-1.4 1.2-1.6 1-1.6-1.6 0-1.6.7-5.5 1.5-8.6 1.9-7.3 1.9-9.4 0-10.4-1.2-.7-1.3-1.6-.5-4.3.5-1.9.8-4.2.5-5.1-.6-1.8 4.7-11.7 9.9-18.4 1.6-2.2 7.5-8.6 13-14.3l10-10.2H89.2C49.7 0 47 .1 47 1.7m35.4 71.4c-.8 4.6-2 9.5-2.6 10.9-1 2.4-1.1 2.4-1.9.5-1.4-3.6-1-11.4.8-14.3 2.1-3.5 4.5-6.3 4.9-5.9.2.2-.3 4.1-1.2 8.8M303 192v192h147.8l1-3.3c2.1-6.7 2.2-7.9.6-6.6-1.1.9-1.8.9-2.9-.1-1.3-1.1-2-.9-4.3 1.2-1.5 1.4-4.2 3.3-6.1 4.3-3.2 1.6-3.5 1.6-6-.2-1.4-1.1-3.9-3.8-5.5-6.1-2.4-3.4-3-5.4-3.4-11.4-.5-9.2 1.9-16.9 9-28.6 2.8-4.5 4.8-8.5 4.5-8.8-.5-.5-4.3 2.7-12.4 10.4-1.3 1.2-2.9 2.2-3.4 2.2-.6 0-2.2.9-3.6 2s-3.1 2-3.9 2c-.7 0-1.4.4-1.6 1-.4 1.2-7.8 2.2-7.8 1 0-1.3-3.1-.5-4.1 1.1-.8 1-.9.8-.4-.9.6-2 .4-2.1-1.7-1.3-2 .7-2.4.6-2.4-.9 0-1 .3-1.7.6-1.5.3.1 1.4-.9 2.4-2.3l2-2.6-2.4 1.7c-3.2 2.2-5.8 2.3-4 .2.7-.8 1-2.4.7-3.4-.4-1.5 0-1.9 1.4-1.6 1 .2 2.2-.1 2.5-.7.4-.7.2-.8-.4-.4-.7.4-1.2.2-1.2-.4s-.4-.8-1-.5c-1.1.7 1-5.6 3.8-11.1 1-2.1 2.2-5.2 2.6-6.7 1.8-7.4 8.1-13.8 23.6-23.7 10.8-7 12.1-8.3 15.5-14.9 2.3-4.7 2.5-5.8 1.5-7.5-1.1-1.7-.8-2.4 2.2-5.2 5.2-4.7 9.5-11.6 10.3-16.5.4-2.4 1.3-5.9 2.1-7.7 1.1-2.7 1.8-3.2 4.6-3.2 1.9 0 4.9.8 6.9 1.8 2.9 1.5 3.8 1.5 5.9.5 4.2-2.2 8.6-1.6 10.9 1.3 1.2 1.5 2.1 3.3 2.1 4.1s2.2 4 5 7c2.7 3.1 5.6 7.6 6.4 10 1.7 4.9 1.5 5.3-3.7 10.2-1.6 1.4-4.7 5.2-6.9 8.4-3.6 5.3-4.2 5.8-6.9 5.2-2.8-.6-2.8-.6-1.9 2.2.7 1.9 2.7 3.7 6.6 5.7 3 1.6 6.3 3.9 7.2 5.1 2.3 2.9 11.3 7.5 14.7 7.5h2.5V0H303z"/><path d="M471 315.8c0 2.4.4 3 1.5 2.6 1.2-.5 1.2-1 .3-2.7-1.6-3.3-1.8-3.3-1.8.1m32.8 19.6c-.3 2.8-.1 7.6.3 10.6s1.5 11.6 2.4 19c2.1 17.5 2.4 19 4.1 19 1.2 0 1.4-4.2 1.4-25.8v-25.8l-3.9-1-3.9-1.1zm-37.7-.4c0 2.9.1 3.2 1 1.7.7-1.1.7-2.3 0-3.5-.9-1.4-1-1.1-1 1.8"/></svg>