<svg xmlns="http://www.w3.org/2000/svg" width="682.667" height="512" version="1.0" viewBox="0 0 512 384"><path d="M44 1.2c0 .7.7 5.1 1.5 9.8s2 15.9 2.6 25c.5 9.1 1.4 19.2 1.9 22.5 1.4 8.8 1.4 9.2-1.7 9.3-1.6.1-6.3.3-10.7.5-6.3.2-8.1.7-9.2 2.2-1.9 2.6-1.8 8.5.3 10.7 1 1.1 2 4.7 2.5 8.5.7 6.4 2.8 11.3 4.9 11.3.6 0 .6-.6-.1-1.9-1.5-2.9-1.3-3.1 1.7-1.6 3.1 1.6 4.1 1.2 2.3-1-1-1.2-1-1.5.4-1.5 2.1 0 2.1-1.6-.1-2.4-1.5-.6-1.5-.8-.3-1.7 1.3-.8 1.3-1.1-.2-2-3.6-2.1-1.1-6.9 3.6-6.9 2.7 0 5.4 7.9 4.8 14.2l-.4 5.7 8.6 10.8 8.7 10.8-3.1.6c-1.7.4-4.2 1.7-5.5 2.9-2.2 2.1-3.5 2.3-14.7 2.6-6.9.1-13.6.8-15.3 1.5-1.6.7-3.3 1.2-3.7 1.1-1.3-.3-4.9 6.8-4.6 9 .2 1.8 1.6 2.8 5.9 4.3 3.1 1.1 7.1 3.4 9 5 1.9 1.7 5.6 3.9 8.2 4.9 4.2 1.6 4.8 2.2 5.7 5.9 3 12 7.8 19 15.3 22.6 7.3 3.5 13.3 2.3 20-4 3.3-3.1 9.7-6.2 14.2-6.9 3.9-.6 4-.6 1.6-1.9-1.3-.7-5.8-1.8-10-2.3-4.1-.5-7.7-1.1-8-1.3-.5-.6 1.7-10.6 2.8-12.3.4-.7 6.3-2.4 13-3.7 15.7-3.1 16.1-3.2 16.1-5.7 0-2.8-3.1-7.8-5-7.8-3.4 0-9-2.2-9-3.5 0-3.9 6.6-13.6 14.6-21.5 6.1-6 9.6-10.4 11.9-15 1.8-3.6 4.7-9.2 6.4-12.5 3.9-7.5 4.7-13.1 2.2-14.5-1-.5-2.1-.7-2.4-.4s-.3-.5 0-1.8l.6-2.3-2.8 2.5-2.7 2.5.7-2.4.7-2.4-2.8 2-2.9 2.1-1.6-4-1.6-4-2.1 3.3c-2.1 3.3-2.2 3.3-2.2.9 0-1.4-.9-3.3-1.9-4.2-1.8-1.5-1.9-1.4-2.5 2-.9 4.8-2.6 9.2-3.7 9.2-.5 0-.4-1.2.1-2.6 1.3-3.2 1.3-11.1.1-11.9-.6-.3-3.5 3.7-6.7 9-3.1 5.2-5.8 9.5-5.9 9.5-.2 0-.1-2.7.2-6s.3-6 0-6-1.7 3.4-3.2 7.5c-4.7 12.7-4.5 8.5.3-6.4 2.4-7.6 2.5-8.4 1-9.5-1.4-1-1.5-1.9-.6-5.6 2.3-9.8 9.1-20.9 20.2-32.8C125 4.7 128 1.3 128 .6c0-.3-18.9-.6-42-.6-32.9 0-42 .3-42 1.2m30.1 74.5c-1.2 2-1.4 1.4-.5-1.2.4-.9.9-1.4 1.1-1.1.3.2 0 1.3-.6 2.3M290 192v192h153.9l1.1-4.3c.6-2.3 2.2-7.6 3.6-11.8 2.2-6.9 2.4-10.9.5-10.9-.4 0-4 2.5-8.1 5.6-9.7 7.3-11.4 7.1-15.7-1.5-3.5-6.8-4.3-14.2-2.3-19.7 1.5-3.7 2.8-14.4 1.8-13.8-.4.3-.8.3-.8.1 0-.7 2.6-7.8 4.5-12.1l1.6-3.8-3.3 2c-9.9 6-18.5 9.6-24 10-3.2.3-5.8 0-5.8-.4 0-.5-1.1-1-2.5-1.2-1.4-.1-3.6-.3-5-.5-2.3-.2-2.4-.3-.8-1.5 1.6-1.1 1.6-1.2 0-1.2-2.8 0-1.9-1.9 1.8-3.7 1.9-.9 3.5-2.1 3.5-2.5 0-.5-.9-.4-2 .2-1.2.6-2 .7-2 .1 0-.5.6-1.2 1.3-1.5.6-.3-.1-.4-1.8-.2-2.8.4-2.9.3-1-1.1 4.5-3.3 5.1-3.9 6.5-6.6.8-1.6 4-5.7 7.1-9 4.7-5.2 7.9-7.4 19.7-13.5 15.9-8.3 17.3-9.4 20.6-16.1 1.9-3.7 2.2-5.1 1.3-6-.9-1-.4-1.9 2.2-4.3 4.4-3.9 9-10 12.6-16.6 1.5-2.9 3.5-5.8 4.3-6.4 2-1.7 8-1.3 10.2.7 1.4 1.3 2.3 1.4 3.9.6 2.7-1.5 9.3-1.4 11.5.2 1.2.9 1.9 2.8 2 5.8s1 5.7 2.9 8.6c3.8 5.6 4.4 10.8 1.7 15.1-1.1 1.8-2.4 3-2.9 2.7-1.1-.6-2.5.7-7.7 7.1-3 3.7-4.2 4.4-6.1 3.9-1.6-.4-2.3-.1-2.3 1 0 1.7 1.7 3.4 7.9 7.7 2.4 1.6 4.6 3.8 4.8 4.9.3 1 .8 1.9 1.2 1.9s4.5 3.4 9 7.5c4.6 4.1 8.7 7.5 9.1 7.5 1 0 4-11.4 4-15.4 0-1.9-.6-3.7-1.2-3.9-1-.4-1-.7 0-1.5 1.1-.7 1-1.1-.1-2-1.6-1.4-1.5-5.8.2-5.5.8.2 1.1-36.1 1.1-139.2V0H290z"/><path d="M464.1 311.7c-2.6 7.4-3.9 17.3-2.3 17.3 2.1 0 4.2-5.1 4.2-10.2 0-3 .6-6.2 1.4-7.3.9-1.3 1.1-2.8.5-4.3-.5-1.2-1-2.2-1.1-2.2-.2 0-1.4 3-2.7 6.7m39.7 17.2c-4.2.3-7.8.8-8.1 1.1-.4.5.4 13.1 2.2 33.6.6 6.1 1.5 13.2 2.2 15.8l1.1 4.6H512v-28c0-15.4-.1-27.9-.2-27.8-.2.1-3.8.4-8 .7"/></svg>