<svg xmlns="http://www.w3.org/2000/svg" width="682.667" height="512" version="1.0" viewBox="0 0 512 384"><path d="M0 192v192h512V0H0zm238.5-98c0 1.7.7 2.6 2 2.8 3.4.6 3.8 1.9 1.6 5-2.7 3.9-2.7 4.2 1 4.2 2.4 0 4.4-1.1 7.9-4.4 8-7.5 19-7.3 30.3.7 3.4 2.5 7.7 5.2 9.5 6.1 7.3 3.7.5 5.1-7.8 1.5-2.6-1.1-5.9-1.9-7.2-1.7-2 .3-2.3.8-2.3 4.7v4.4l6.8 2.2c6.3 2.1 10.4 4.7 13.4 8.6.7.9 2.6 1.9 4.3 2.3 1.8.3 2.9 1 2.5 1.6-.3.5.3 1 1.4 1 1.2 0 3 .9 4.1 2 1.8 1.8 1.8 2.1.5 2.6-1.4.6-1.4.9.2 2.7 1.7 1.9 1.7 1.9-.3 1.3-1.4-.4-2.3-.2-2.7.7-.4 1-1.9 1.3-4.9 1.2-3.1-.2-4.6.2-5.5 1.5-1.2 1.8-5.8 3.6-4.7 1.9.3-.5 0-.9-.5-.9-.6 0-1.1.4-1.1 1 0 .5-1.8.3-4-.5-2.3-.8-3.8-1-3.5-.5.3.6-.1 1-.9 1-.9 0-1.6.1-1.6.2.1 2.1 3.3 10.4 4.3 11q2.7 1.8 2.7-.6c0-3.6 11-10 14-8.1.5.3 1 3.9 1 8 0 8.3-.4 7.9 9 9 14.5 1.7 18 2.6 18 4.7 0 1.8-.4 1.9-3.7 1.4-9-1.6-9.5-1.5-3.5.7 5 1.8 6 2.5 5 3.5-1.7 1.7-.4 1.6 12.7-.8 12.3-2.3 20-2.5 29.2-.9 4.8.8 6.3 1.5 5.9 2.5-.3.9.1 1.4 1.3 1.4 1 0 1.9.6 1.8 1.2-.1 3.6.5 4.8 2.9 5.4 1.7.4 2.2.9 1.4 1.4-2 1.3.6 2.1 3.3 1.1 2-.8 2.4-.7 2.3.7 0 .9 1.4 2.4 3.4 3.4 2.9 1.4 3.1 1.7 1.3 1.8-3.1 0-3.7 1.6-1.3 4 1.1 1.1 1.5 2 .9 2-.5 0-.7.4-.4 1 .3.5 0 1-.7 1-1 0-.9.3.2 1 1.2.8 1.2 1-.3 1.6-1.7.6-1.7.7 0 2 1.7 1.2 1.6 1.3-.6 1.4-2.4 0-2.4 0-.5 1.6 1.6 1.3 1.6 1.5.2 1-1-.3-2-.1-2.3.4-.4.6-1.8.4-3.5-.5-3.3-1.7-4.4-1.9-3.6-.7.3.5-.4 1.6-1.5 2.6-1.5 1.3-2.4 1.4-3.4.6s-1.3-.7-1.1.7c.1 1.3-.5 1.7-1.9 1.5-1.8-.2-1.7 0 .5 1.8l2.5 2-3.5-.6c-1.9-.4-5-1.5-6.9-2.6-4.6-2.6-5-1.6-.9 2.1 1.8 1.7 2.8 3.1 2.2 3.1s-2.1-1.2-3.5-2.6c-5.2-5.5-7.2-6.1-34.9-10.9-5.7-1-11.2-2.8-16.7-5.5-7.1-3.5-8.8-3.9-12.4-3.4-3.5.6-4 1-3.5 2.8.4 1.2 1.2 4.5 1.8 7.5 1.1 5.1 1 5.5-1.1 7.2-2.7 2.2-5.6 1.2-6.7-2.3-.6-2-.7-2-1.9.9-1.6 3.8-4.1 4.9-5.5 2.4-.5-1.1-1.1-4.5-1.3-7.7l-.3-5.9-4-.7c-2.1-.4-8.5-.2-14.2.4-12.6 1.4-15.8.5-14.9-4.2.4-1.6.2-3.2-.3-3.5-2.2-1.4-38.1-3.8-39.3-2.6s1.5 2.7 6.6 3.6c4.1.8 4.1.8 2.7 3.5-.9 1.7-1.4 1.7-9.7-1-15.5-4.8-28.6-7.6-29.1-6.2-.2.6-1.3 1.2-2.3 1.2-1.1 0-1.7.4-1.4 1 .3.5.3 1-.2 1-1.6 0-3.2-1.6-4.2-4.2-.9-2.4-1.7-2.7-7.8-3.4-5.5-.6-7.2-1.2-9.6-3.5-3.8-3.8-3.3-6.4 1.3-6.3 5 0 16.2 1.1 25 2.3 4.1.5 13.4 1.5 20.5 2.1 7.2.6 16.8 1.5 21.5 2.1 14.3 1.5 15.4 1.4 19.4-2.8 1.9-2.1 5.4-7.6 7.6-12.2 3.6-7.4 4-8.8 2.9-10.6-.7-1.1-2.2-5.1-3.3-8.9-1.9-6-2.5-7.1-5.1-7.9-6.6-2.1-8.3-6.2-4.3-10.4 4.4-4.7 11.4-2.1 10.6 4-.1 1.2.7 3.8 1.8 5.7 1.2 1.9 2.4 4.2 2.6 5 .3.8 1.6-1 3.2-4.4 2.4-5 2.6-6.2 1.6-8.1-.8-1.5-1.8-2.1-3.1-1.8-2.3.6-6.4-4-6.4-7.2 0-1.3-.6-1.9-1.7-1.7-.9.1-2.2-.6-3-1.6-.7-1-3.5-3.1-6.3-4.7-9.5-5.5-13.1-9.1-12-12.5.6-1.8.9-1.8 4.7-.4 2.2.8 4.4 1.4 4.8 1.4s-.4-2.2-1.8-5c-1.3-2.7-2.2-5.6-1.8-6.5.7-2 4.3-3.5 7.6-3.2 1.9.2 2.5.8 2.5 2.7M227 217.4c0 .3-.4.8-1 1.1-.5.3-1 .1-1-.4 0-.6.5-1.1 1-1.1.6 0 1 .2 1 .4"/><path d="M255.1 164.7c-1.2 2.7-3.6 6.9-5.3 9.6-1.7 2.6-3.4 6.3-3.8 8.2-.8 3.5-.7 3.5 2.5 3.5 2.7 0 4.2-.9 8-5.3 2.6-2.8 5.5-6.6 6.3-8.4 1.5-3.1 1.4-3.3-1.1-6.7-1.5-1.9-2.7-3.9-2.7-4.5 0-2.5-1.7-.8-3.9 3.6m42.4 7.3c-.6 1 1.1 1.6 7 2.6 5 .8 4.4.2-1.7-1.9-2.6-.9-5-1.2-5.3-.7"/></svg>