<svg xmlns="http://www.w3.org/2000/svg" width="682.667" height="512" version="1.0" viewBox="0 0 512 384"><path d="M42 2.2c0 1.3.7 6.3 1.6 11.3.8 4.9 1.9 17.1 2.4 27 .6 9.9 1.5 20.6 2.1 23.8.7 3.2.9 6 .6 6.3s-4.3.8-8.9 1.1c-5.3.4-8.9 1.1-10 2.1-2.2 1.9-2.4 7.9-.3 10.2.9 1 1.9 5.1 2.5 9.9.5 4.5 1.2 8.6 1.5 9.1 1.3 2 2.5.9 1.9-1.6l-.7-2.6 2.7 1.7c3 2 4.6 1.4 2.6-1-1-1.2-.9-1.5.6-1.5 1.8-.1 1.8-.1-.1-1.6-1.6-1.2-1.7-1.6-.6-2.3s1-1.1-.4-1.9c-2.6-1.4-1.2-5.8 2-6.6 4.3-1.1 4.8-.1 4 9.3l-.7 8.6 3.9 4.5c6.1 7.1 12.3 15.2 12.3 16.1 0 .5-.7.6-1.6.2-.9-.3-2.7.5-4.4 2.2-2.8 2.7-3.3 2.8-15.8 3.1-14.4.4-18.1 1.6-21.5 7.3-2.8 4.7-1.8 5.7 10 10.1 1.7.6 3.4 1.8 3.7 2.6s3.2 2.6 6.4 4c5.7 2.4 5.8 2.5 7.1 8.2 1.7 7.1 4.1 12 7.8 15.3 4.6 4.1 8.1 6 12.7 6.5 3.8.5 4.8.1 10.1-3.9 8-5.9 10.1-7 16-8.2l5-1.1-4.9-1.7c-2.7-.9-6.8-1.7-9-1.7-6.5 0-7.2-.9-5.7-7.5s1.6-6.7 15.6-9.1c12.7-2.1 14.6-2.8 13.9-5.1-2.1-6.5-2.6-7.1-6.2-7.8-7.5-1.4-7.6-1.8-3.7-9.3 1.8-3.7 6.6-10.3 10.6-14.7 3.9-4.4 8.6-10.9 10.5-14.5s5-9.4 6.9-13c3.3-6.1 4.3-9.9 2.8-11.3-.3-.4-1.2-.2-2 .5-1.1.9-1.2.6-.3-1.6 1.4-3.9 1.3-4-2-1.6-2.5 1.8-3 1.9-3 .5 0-1.2-.4-1.4-1.9-.5-2.5 1.3-3.4 1.3-2.6 0 .3-.6.2-1-.4-1-.5 0-1.3.4-1.6 1-1.4 2.2-2.5.8-2.5-3.2 0-4.9-.9-4.3-3.1 2-.8 2.5-2 4.7-2.6 4.9-1.1.4-1.1-1 .2-7.7.6-3.2.5-3.3-.8-1.7-1.9 2.3-2.3 1.6-3.2-5.1-.4-2.8-1-5.2-1.4-5.2-.9 0-3.4 5.5-5.1 11.2-.6 2-1.9 5.3-2.8 7.2l-1.7 3.5V71c0-5.9-.3-7-2.3-8.7-2.2-1.7-2.3-2.1-1.1-6.8 2.3-9.6 8.5-19.4 19.9-32 7-7.6 15.1-17.9 17.1-21.7C125 .1 123 0 83.5 0H42zm46.5 66C86.1 81 83.5 91 82.7 91c-.6 0-.7-.3-.4-.7.4-.3.3-1.1-.3-1.8-1.1-1.3.9-10.1 4.2-18.3 2.3-5.9 3.2-6.7 2.3-2M279 192v192h161.6l1.2-7.8c.7-4.3 2.3-11.2 3.7-15.3 2.7-8 3-10.6 1.6-12.8-.8-1.2-1.9-.9-6.3 2.1-11.5 7.6-14.9 8.4-17.1 4.1-2.5-4.9-3.8-14.6-2.7-19.8.7-3.2-.3-3.6-2-.7-1.1 1.7-2.6 3.2-3.3 3.2-1.2 0-1.2-1.1-.1-6.8.7-3.7 1.7-8.4 2.2-10.4.7-2.7.7-3.6-.1-3.1-.6.4-.8 0-.4-1 .7-1.9-.5-2.2-3.4-.7-3.5 1.9-11 2.9-11.5 1.5-.3-.8-2.3-1.1-5.7-.9l-5.2.2 3.5-1.8c3.8-2.1 3.6-2.6-.4-1-2 .7-2.6.6-2.6-.4 0-.7 1.2-1.6 2.8-1.9 1.5-.3 3.6-1.3 4.7-2.2 2.1-1.7 2-1.7-3.2.1-1 .4-.4-.5 1.2-2l3-2.6-4 1.5-4 1.5 3.5-3c1.9-1.6 3.1-3 2.7-3s-.1-1.3.8-3c2.8-5.4 12.8-14 24.5-21 14.5-8.8 14-8.4 17.8-15.5 2.9-5.3 3.1-6.1 1.7-7.1-1.4-1.1-1.2-1.5 1.8-3.8 1.9-1.5 4.6-4.3 6-6.4 1.4-2 5-6.3 7.9-9.5 4.7-5 5.9-5.7 9.1-5.7 2.3 0 4 .5 4.3 1.4.4 1 1.3 1.1 4.2.4 2.6-.6 4.8-.5 7.6.4 5.1 1.7 6.4 3.8 4.9 7.8-1 2.7-.8 3.6 1.3 7.3 1.3 2.3 2.4 5.8 2.4 7.8 0 4-3.3 9.1-5.3 8.3-.7-.2-3.7 2.1-6.6 5.1-3.9 4-5.9 5.4-7.2 5-3.9-1.3-1.8 2.3 4.1 6.8 3.3 2.6 6 5.2 6 5.8 0 .7 1.7 3.1 3.8 5.4 2 2.3 5.6 6.5 8 9.3 2.4 2.9 4.6 5.2 5 5.2 1.2 0 6-8.3 6.7-11.7.5-2.4.2-3.4-1.2-4.3-1.3-.8-1.5-1.3-.5-1.7s.9-.9-.5-2c-1.2-1-1.4-1.6-.6-1.9.7-.3.9-1.2.6-2-.7-1.8.7-1.8 3.4.1 1.9 1.4 2.1 1.3 1.6-.4-.3-1 0-2.2.6-2.5.8-.5 1.1-40.7 1.1-139.7V0H279z"/><path d="M401 299c-1.4 1.1-2 2-1.5 2 .6 0 2.1-.9 3.5-2s2.1-2 1.5-2c-.5 0-2.1.9-3.5 2m61.7.6c-.4.4-.7 1.5-.7 2.5 0 .9-.9 3.7-1.9 6.2-2.4 5.6-1.9 13.9.7 11.4.9-1 1.6-4 1.8-8.2.1-3.6.8-7.2 1.4-8 1.2-1.5 0-5.1-1.3-3.9m46.8 21.6c-1.1.6-3.3 2.2-4.8 3.4-1.5 1.3-5.5 2.9-8.8 3.6l-6.1 1.2.5 18.1c.4 17.1.6 18.5 3.7 27.2l3.2 9.3H512v-32c0-17.6-.1-32-.2-32-.2 0-1.2.6-2.3 1.2"/></svg>