<svg xmlns="http://www.w3.org/2000/svg" width="682.667" height="512" version="1.0" viewBox="0 0 512 384"><path d="M42 5.2c0 2.9.7 10 1.5 15.8s1.9 18.4 2.5 28c.5 9.6 1.3 18.7 1.6 20.2.5 2.4.2 2.7-3.2 3.7-2.2.6-6 1.1-8.6 1.1-2.9 0-5.2.6-6.2 1.6-2.1 2-2 7.3.1 10.3 1 1.5 1.7 4.9 1.9 8.9.2 3.6.6 7.3.9 8.4.9 2.7 2.8 2.2 2.3-.6-.5-2.4-.4-2.4 1.9-.9 2.8 1.9 4.1 1 2.2-1.4-.8-.9-.9-1.4-.2-1 .6.4 1.4.3 1.8-.3.3-.6-.1-1.3-1-1.6-1.4-.6-1.4-.9-.3-1.6 1-.7 1-1.1.1-1.5-3.4-1.3.1-8.3 4.1-8.3 2.6 0 3 2.6 1.3 8.7-1.4 4.7-1.4 6-.3 8.7 1.1 2.5 10.4 14.7 12.7 16.6.3.3 1.2 1.6 1.9 2.9 1.1 2.1 1 2.3-.4 1.8-.9-.4-2.8.4-4.6 2-2.8 2.3-4 2.6-13.8 2.9-13.4.5-18.5 1.8-21.7 5.6-4.4 5.2-3.3 7.5 5 10.3 2.8.9 6.1 2.7 7.5 3.9 1.4 1.3 4.6 3.3 7.1 4.4 4.1 1.7 4.7 2.4 5.4 5.8 1.8 10 8.2 18.7 16.1 22 5 2.1 7.5 1.7 12.8-1.9 2.7-1.7 6.7-4.4 8.9-5.9 2.7-1.9 5.4-2.8 7.9-2.8 8.3 0 2.4-3.6-7.7-4.6-3.6-.4-6.8-1-7-1.5-.9-1.4 1.9-11 3.5-11.9.9-.5 5.7-1.6 10.6-2.4 15.9-2.8 16.9-3.5 14.4-9.6-.9-2.2-2.1-3-4.9-3.5-6.9-1.1-7-1.6-2.9-9.7 2-4 6.4-10.5 9.7-14.3 7.7-8.8 19.4-31.1 18.9-35.9-.2-1.9-.8-3-1.6-2.8-.9.2-1.1-.4-.7-1.8.6-2-.9-2.8-2-1-.3.5-1.3 1-2.1 1s-1.2-.5-.9-1.1c.4-.6-.3-.5-1.4.3-1.8 1.1-2.3 1.1-3.1-.2-.5-.8-1-1.1-1.1-.5-.1.5-.5-.6-.8-2.5l-.6-3.5-2 5.3c-1.1 2.9-2.6 5.8-3.3 6.5-1.2 1-1.3.5-.8-3.3.4-2.5.9-5.4 1.2-6.5.3-1.7.2-1.7-.7.2-1.8 3.5-2.9 2.7-2.9-2 0-2.3-.3-5.2-.6-6.5-.6-2.2-.8-2-3 1.8-1.3 2.3-2.4 4.7-2.4 5.2 0 .6-1 3.8-2.2 7.2l-2.3 6.1L90 72l-.5-7.5-1.9 9.5c-1.8 9.2-4.4 17.8-4.5 15.2-.2-2.4-2-1.1-3.1 2.3-.6 1.9-1.5 3.7-1.9 4-1 .6 3.1-15.7 6.1-24.2 1.7-4.9 1.9-6.5.9-7.6-1.4-1.7-.1-8.9 2.6-14.1C91 43.2 99 32.3 105.8 24.8c7.8-8.4 14-16.6 16.6-21.6l1.7-3.2H42zM275 192v192h163.7l2.2-11.5c1.1-6.2 3.1-14.3 4.3-17.8 2.1-6.4 2-11.7-.4-11.7-.6 0-3.8 1.7-7.2 3.8-8.4 5.3-12.1 6.5-14.1 4.6-2.1-2.1-2.9-5.9-3-12.6 0-3.2-.3-5.8-.7-5.8s-1-1.6-1.4-3.6l-.7-3.6-1.9 3.1c-1.1 1.7-2.6 3.1-3.3 3.1-1.3 0-.7-3.9 2.1-13.9.6-2.1.5-2.3-1.2-1.7-2.9 1.2-6.4 1.4-5.8.4.3-.5-1.2-.7-3.6-.4-5 .5-7.9-.2-5.8-1.5 1-.7 1-.9.1-.9-.7 0-1.3-.5-1.3-1 0-.6.7-1 1.5-1s1.5-.7 1.5-1.5c0-.7.8-1.9 1.8-2.4 1.4-.9 1.4-1 .2-1.1-.9 0-2.1.5-2.8 1.2s-1.2.8-1.2.2.9-1.9 2-2.9 2.5-3.4 3-5.4c.6-2 2.6-5.8 4.5-8.4 3.5-4.7 6.1-6.9 22.2-18.6 7-5.1 8.7-7 11.4-12.3 2.4-4.7 2.9-6.6 2.1-7.9s-.3-2.3 2.6-5.2c2-1.9 5.5-5.6 7.7-8.2 7.7-9.1 10.5-11.5 13.5-11.5 1.6 0 3.2.4 3.5 1 .3.5 3.2 1 6.3 1 3.9 0 6.7.6 9 2 3.6 2.2 3.6 2.2 2.1 6.5-1 2.6-.8 3.7 1 7.3 3.7 7.2 2 14-3.7 14.8-.9.2-3.5 2.3-5.8 4.8-2.4 2.7-5.1 4.6-6.3 4.6-3.3 0-2.5 2.3 2.4 6.4 2.5 2.1 5.7 5.4 7 7.4 5.5 8.2 11.2 15.2 13.7 17.2l2.8 2.1 2.5-2.8c3.5-4 5.2-9.3 3.4-10.7-1.6-1.2-2.2-6.9-.7-6 .6.4.5-.4-.2-1.6-1.3-2.4-1.5-2.4 3.5-.4 1 .4 1.5 0 1.5-1 0-2.2 1.7-2 2.3.1.3 1 .5-61.8.6-139.5L512 0H275z"/><path d="M459.2 303.9c-2.2 6.8-2.9 14.1-1.4 14.1 1.6 0 3.4-4.5 3.6-8.9.2-2.5.6-6.3 1-8.4 1.3-6.2-.8-4.1-3.2 3.2m50.8 13.7c-2.2 2.5-14.2 9.2-18.9 10.4l-4.3 1.1.4 15.7c.5 15.4.6 15.9 4.8 27.4l4.2 11.8H512v-34c0-18.7-.2-34-.4-34s-.9.7-1.6 1.6"/></svg>