<svg xmlns="http://www.w3.org/2000/svg" width="682.667" height="512" version="1.0" viewBox="0 0 512 384"><path d="M38.6 6.2c-.5 4.3-.1 10.3 1.3 18.8 1.1 6.9 2.2 18.3 2.6 25.5.7 12.8 1.7 21.4 3 24.7.5 1.3-.4 2-4.6 3.2-2.9.9-6.5 1.6-8 1.6-4.9 0-7.5 6.3-4.4 10.4.8 1.1 1.6 4.3 1.6 7 .2 6.7 1.2 11.2 2.4 10.6.5-.3.8-1.2.7-2-.3-1.2-.1-1.3.9-.3.7.7 1.9 1.3 2.7 1.3 1.2 0 1.2-.3.2-1.5s-1-1.5.1-1.5c1 0 1-.3.2-1.1-1.5-1.5-.5-7.9 1.5-10.2 2.3-2.6 4.5-2.2 3.8.8-1.9 7.7-1.9 11.4.4 14.9 1.2 2 2.5 3.6 2.9 3.6.6 0 4.3 4.6 10 12.3 1.2 1.8 1.2 1.9-.8 1.2-1.5-.4-2.9-.1-4.1 1-1.3 1.2-4.1 1.7-9.7 1.9-8.9.4-18 2.9-20.5 5.8-1 1.1-1.8 1.6-1.8 1.2 0-1.6-3.1 3.7-3.6 6-.4 2.6 1.3 3.6 9.6 5.6 2.8.7 6.1 2.6 8.8 5.1 2.4 2.1 4.9 3.9 5.7 3.9.7 0 2.2 2.7 3.4 6 2.8 7.6 5.9 11.2 12.3 14.4 7.5 3.7 10.5 3.4 17.5-1.8 7.4-5.4 8.9-6.2 13.6-7 2-.4 3.7-1.1 3.7-1.6 0-1-2.8-1.6-11.5-2.5-8-.9-8.5-1.4-7-7.2l1.2-4.8 10.3-2.2c10-2.2 15-4.3 15-6.4 0-3.3-3.2-8-6.9-9.8-2.2-1.2-4.2-2.5-4.5-3-.4-.5 1.6-3.8 4.3-7.3 2.8-3.5 6.8-8.6 9.1-11.5 4.9-6.4 11-19.9 11-24.5l-.1-3.3-1.4 3-1.5 3 .4-3c.2-1.7 1.1-5 2-7.4 1.7-4.3 1.4-6.9-.4-4.1-.7 1.1-1 .6-1-2l-.1-3.5-1.4 2.5c-.8 1.4-1.4 2-1.5 1.5 0-.6-1.3-1-3-1.1-2.9-.1-4 1.3-6.3 7.6-.4 1-.6 1.1-.6.2-.1-.7-.6-1-1.3-.6-.8.5-.9.2-.5-.9 1.3-3.4-.1-1.5-4.7 6.3-4.5 7.6-7.4 11.2-5.9 7.4.6-1.6.4-1.5-2 .2-1.6 1.2-3.5 4.5-5.1 8.8-2.6 6.9-7.4 16.1-8.2 15.4-.2-.2.1-2 .6-3.9.5-1.8 2.5-10.4 4.5-18.9 1.9-8.5 4.2-16.8 5-18.4 1.8-3.3 1.9-5.8.5-7.2-2.1-2.1 4.7-16.5 11.9-25.4 2-2.5 6.8-7.9 10.7-12 11.2-11.8 16.5-19.6 16.3-23.9-.1-2 .1-4.4.5-5.4.8-1.6-1.5-1.7-39.2-1.7h-40zM265 192v192h168.9l1.1-3.7c.6-2.1 1.7-8.7 2.6-14.7 1.7-12.7 3.6-21.5 5.9-26.9 1.4-3.5 1.1-5.9-1-8.5-.1-.2-3.1 1-6.6 2.6-13.8 6.2-16.3 6.4-17.5 1.5-.6-2.3-.1-10.7 1.1-17.1.4-2.2.2-2.1-.7.5-.6 1.8-1.4 3.3-1.8 3.3-1.3 0-1.8-4.8-.7-5.9.6-.6.7-1.1.2-1.1-.6 0-2.2 1.4-3.7 3.2-2.1 2.5-2.8 2.9-2.8 1.5 0-1.5 2.2-8.3 4.6-14.1.6-1.5.4-1.7-.7-1.1-.9.6-.7-.1.5-2 3.2-4.9 4.6-7.9 4.6-10 0-4.9 2.6-10.1 9.3-19.2 8-10.7 13.8-22.6 11.9-24.5-.7-.7 0-2.1 2.6-4.7 6.9-6.9 10.2-10.8 10.2-11.9 0-.6 1.7-2.3 3.7-3.7 3.8-2.6 9.3-3.4 9.3-1.4 0 .7 1.2.9 3.2.7 4.2-.7 9 .7 11.2 3.1 1.4 1.6 1.5 2.3.6 4.1-.9 1.7-.8 3 .9 6.6 2.7 5.6 2.7 10.5.1 12.9-1.1 1-2.3 1.5-2.6 1.2-.9-.8-4.4 1.1-4.4 2.3 0 1.7-6.4 7-7.7 6.5-2.8-1-1.1 3.1 2.1 5.2 3.4 2.2 12.6 14.8 12.6 17.3 0 .7 1.8 3.7 4.1 6.6l4 5.3 3.2-1.8c4.3-2.4 5.8-6.6 3.1-8.6-1.3-.9-1.4-1.4-.5-1.5 1.1 0 1.1-.3 0-1.7-1-1.2-1.1-1.7-.2-2 .7-.3.9-1.2.5-2.1-.6-1.6-.4-1.6 2 0 2.6 1.7 2.7 1.7 3.1-.5.3-2.1.4-2.1 1.5.6.7 1.6 1.2 5.1 1.2 7.8 0 2.9.7 6 1.6 7.4.9 1.3 1.8 5.1 2.1 8.3.6 6.5-1.2 11.3-6.8 17.6-4.5 5.2-14.6 11.6-18.2 11.6h-3l.6 6c.3 3.3 3.4 14.8 6.9 25.5l6.3 19.4 9.3.1h9.2V0H265z"/><path d="M455.7 294.3c-.9 3-1.7 7.4-1.7 9.8v4.4l1.8-2.3c1.1-1.4 1.7-3.5 1.4-5.1-.2-1.5.1-4.5.7-6.7 1.7-6-.3-6.1-2.2-.1"/></svg>