<svg xmlns="http://www.w3.org/2000/svg" width="682.667" height="512" version="1.0" viewBox="0 0 512 384"><path d="M38 10c0 5.5.7 14.4 1.5 19.8.8 5.3 1.9 16.9 2.4 25.7.6 8.8 1.5 17.7 2 19.8.9 3.6.8 3.8-2.5 5.2-1.8.7-5.4 1.7-7.8 2-5.5.9-7 2.5-6.2 6.7.3 1.8 1 6.2 1.7 9.8.6 3.6 1.3 7.5 1.5 8.7.2 1.3.9 2.3 1.5 2.3s.8-.7.4-1.8c-.5-1.4-.4-1.5.6-.5 2 2 2.8 1.5 2.6-1.5-.2-5.3 1.4-11.2 3.5-12.3 2.7-1.5 3.1-.7 1.9 3.8-.6 2.1-1.1 4.9-1.1 6.3 0 2.2 5.4 9.9 13.6 19.2 2.4 2.7 2.4 2.8.3 2.8-1.1 0-2.9.5-4 1-1 .6-3.8 1.5-6.1 2-9 1.9-15.3 4.1-16.4 5.5-.6.8-1.8 1.5-2.6 1.5-2.1 0-7.7 6.2-7.4 8.3.3 2.5 2.1 3.4 7.8 4.2 3 .4 4.8 1.2 4.8 2 0 2.3 6 6.5 10.1 7.1 3.4.6 4.3 1.3 6.9 6 1.7 2.9 4.5 6.5 6.3 8 4.2 3.5 11.6 6.6 14.2 6 1.1-.3 5.2-3 9-6.1 3.8-3 8.4-5.8 10.2-6.1 4.2-.8 4.2-2.2.1-2.8-14-2.2-13.3-1.9-13.6-5.2-.5-5 1.3-8.1 5-8.9 10.2-2.2 19.8-8 19.8-12.1 0-2.4-5.2-7.6-7.2-7.1-1.6.5-3.8-1.7-3.8-3.8 0-.3 3.1-3.8 6.8-7.8 8.6-9.1 9.6-10.7 12.7-19.7 1.8-5.4 2.5-9.5 2.5-15.2 0-4.6-.4-7.7-.9-7.3-.5.3-1.3-.5-1.7-1.7-.6-2.1-.8-2-2.5 1.3-1.2 2.2-1.8 2.8-1.9 1.6 0-1-.6-2.4-1.3-3.2-1.6-1.6-4.5.4-7.1 5-1 1.6-2.9 3.8-4.3 4.9-2.5 1.8-2.5 1.8-1.3-.3.6-1.2 1-3.2.8-4.4-.3-2.1-3.8 3.2-11 16.6l-1.7 3.2-.1-2.7c0-4.9-1.7-3.8-3.5 2.3-1 3.3-2.2 6.2-2.6 6.5-1.4.8 5.2-24.9 7.6-29.5 1.2-2.4 1.2-3-.1-4.3-3.6-3.6 5.8-19.7 20.5-35.2 13-13.7 18-20.9 17.9-25.7 0-1.9.3-4.6.7-6 .6-2.4.4-2.7-3.2-3.2C111.2.3 93.4 0 73.8 0H38zm223 182v192h171.7l1.6-7.8c.9-4.2 2.2-11.6 2.8-16.2 1.2-10 3.6-21 5.5-25.6 1-2.4 1.1-4 .4-5.9-.5-1.4-1.2-2.5-1.4-2.5-.3 0-4.1 1.6-8.5 3.5-13.2 5.8-15.7 4.7-14.9-6.5.3-3.9.2-7.3-.3-7.6-.4-.2-.6-1.1-.2-1.9.8-2.3-.6-1.8-3.2 1.3l-2.3 2.7.9-4.8c.5-2.7 1.2-5.3 1.5-5.9.4-.5.8-2.9.9-5.2.2-2.2 1.1-8.1 1.9-13.1 1.8-9.7 3.3-12.6 11.9-23 5.5-6.6 11.4-18.2 9.9-19.7-.5-.5 2-3.8 6-8 3.7-3.9 6.8-7.5 6.8-7.9s1.4-1.9 3.1-3.3c3.1-2.7 8.2-3.5 9.5-1.5.3.6 1.7.8 3 .5 1.4-.4 4.2-.2 6.4.4 4.1 1.1 5.8 3.7 4.2 6.6-.7 1.2-.2 2.9 1.4 5.8 3.6 6.3 2.6 13.6-1.9 13.6-.9 0-3.7 2.3-6.3 5-2.6 2.8-5.4 4.8-6.1 4.6-2.8-1.1-1.1 2.2 2.8 5.4 4.3 3.4 11.9 14.2 11.9 16.8 0 2.1 6.2 11.1 7.7 11.2 4.7.1 9.4-6.1 6.1-8.1-.7-.4-.9-1.1-.5-1.5s.2-1.3-.4-2.1c-.9-1-.7-1.3.6-1.3 1.4 0 1.5-.3.5-1.5-.8-.9-.9-1.5-.2-1.5.6 0 1.4.4 1.7 1 1.1 1.8 2.5 1.1 2.5-1.3.1-4.4 2.1 1 3 8.1.5 3.7 1.5 9.1 2.4 12 2.2 7.5.7 13.5-5 21.1-5.8 7.8-10.5 11.2-16.1 11.9l-4.5.5.6 4.7c.3 2.5 2.9 11.4 5.7 19.6s5.6 17.6 6.3 20.9l1.3 6 10.1.3 10.2.3V0H261z"/><path d="M454.5 291.8c-1.2 3.5-1.8 7.1-1.5 9.2.7 5 2.4 2 2.7-4.8.1-3 .8-6 1.4-6.8.7-.9.9-1.8.3-2.4s-1.7 1.3-2.9 4.8"/></svg>