<svg xmlns="http://www.w3.org/2000/svg" width="682.667" height="512" version="1.0" viewBox="0 0 512 384"><path d="M38 11.2c0 6.2.7 16 1.5 21.8 1.2 8.6 2.5 23.8 3.8 44.5.2 2.8-.1 3.1-5.8 4.9-11.2 3.5-10.8 3.2-10.1 7.4.8 6 2.7 17.5 3.2 20 .3 1.3.9 2 1.4 1.7.6-.4.7-1.1.4-1.7-.5-.8-.1-.9 1-.5 1.4.6 1.6.3 1.1-1.3-.4-1.2-.2-2 .5-2 .6 0 .9-.4.6-.8-.9-1.4 1.4-8.6 3.2-10 2.5-1.9 3.2-1.4 2.2 1.4-.6 1.4-1 4.4-1 6.7 0 3.8.8 5.2 7.6 13.2 6 7.2 7.2 9.1 5.7 9.4-1 .1-2.5.9-3.3 1.6-1.6 1.5-7.2 3.6-13.6 5.4-2.3.6-4.7 1.8-5.4 2.6s-2 1.5-2.9 1.5c-2.8 0-9.3 6.7-8.9 9.3.2 1.8 1.2 2.3 5.6 3 3.1.5 5.2 1.4 5.2 2.1s1.8 2.6 4 4.1c3.2 2.3 4.7 2.7 8 2.2 3.9-.5 4-.4 6.9 4.7 3.4 5.9 7 9.6 12.6 12.5 6.4 3.4 8.6 2.8 15.7-3.8 5.4-5 8.2-6.8 12.1-7.7.4-.1 1-.2 1.5-.3 1.8-.5-3.7-2-7.5-2-2.3-.1-5.3-.5-6.7-1.1-2.3-.8-2.6-1.5-2.6-6.1 0-4.4.3-5.2 2.3-5.7 4.4-1.1 19.3-9.3 20.5-11.3 1.1-1.7 1-2.5-.6-5.2-1-1.8-2.5-3.2-3.3-3.2s-2.5-.8-3.7-1.7c-3.2-2.2-2.2-3.8 7.3-12.4 4.8-4.2 7.4-7.2 7-8.1-.3-.8.9-4.6 2.5-8.4 2.6-5.9 3-8 2.8-13.7-.2-4.7-.7-6.6-1.5-6.5-.8.2-1.3-.8-1.3-2.5v-2.7l-2 2.5c-1.3 1.7-2 2-2 1s-.7-.7-2 1c-1.8 2.3-2 2.3-2 .5 0-1.7-.2-1.7-1-.5s-1 .9-1-1.2c0-4.1-1.5-4.1-4.6 0-1.5 2-3.9 4.7-5.2 6l-2.5 2.4.7-2.4c2.9-9.8.6-7.8-6.3 5.4-4.4 8.5-5.2 9.4-5.7 7.3-.7-2.9 1.1-11 3.8-17.4 1.6-3.8 1.7-4.6.5-5.9-1.3-1.2-1.2-2.1.4-6.5 2.8-7.7 9.5-17 20.8-29.1 12.6-13.4 18-21 16.4-23.5-.8-1.3-.7-2.4.3-4.2 1.9-3.4 1.7-4.9-.5-4.9-1.1 0-2.6-.6-3.4-1.4C109.6.4 103 .1 73.7.1L38-.1zM259 192v192h172l1.1-2.8c1.6-4 4.6-19.7 5.4-27.7.4-3.9 1.8-10.8 3.1-15.4 1.6-5.2 2.2-9.5 1.9-11.3-.4-1.5-.8-2.8-.9-2.8-.2 0-3.7 1.6-7.9 3.5s-9.2 3.5-11.1 3.5c-4.4 0-5.2-2.2-4.2-11.5.7-7.1-.6-9.3-3.3-5.6-1.5 2-1.6 1.4-1.4-8.7.2-11.6 1.6-21.5 3.8-26.8.7-1.8 4.7-7 8.7-11.6 7.2-8.1 14.2-20 12.7-21.5-.5-.5 2.1-3.9 5.7-7.7 3.5-3.9 6.4-7.3 6.4-7.7 0-1.2 7.6-6.9 9.2-6.9.8 0 1.9.5 2.6 1.2.6.6 3.3 1.1 6 .9 6.3-.2 9.8 2.2 8.4 5.9-.7 1.9-.4 3.5 1.4 6.9 1.3 2.4 2.4 5.6 2.4 7 0 3.1-2.7 7.4-4.1 6.6-.5-.3-3.1 1.7-5.9 4.6-3.2 3.3-5.5 4.9-6.5 4.5-2.5-.9-1.7 2 1.1 3.9 5.2 3.4 12 12.5 13.6 18.2 1.5 5.6 5.7 11.3 8.2 11.3 4.5 0 7.4-4.3 4.8-7.3-1.2-1.3-1.2-1.7-.2-1.7 1.1 0 1.1-.3.2-1.2-1.4-1.4-1.6-3.2-.2-2.3.6.4.7-.1.3-1.1-.5-1.3-.2-1.5 1.5-.9 1.7.5 2.2.2 2.2-1.2.1-4.1 2.9 2 3.5 7.6.4 3.1 1.3 7.3 2.1 9.4 3.1 8.3 1 17.5-6.1 26.1-5.2 6.3-10.6 9.8-14.7 9.4l-3.3-.3.3 4.5c.1 2.5 2.9 12.6 6.2 22.5 3.2 9.9 6.2 19.9 6.6 22.2l.7 4.3H512V0H259z"/><path d="M454.1 290.1c-1.2 3.5-2.1 7.9-2.1 9.8v3.6l1.9-2.4c1-1.3 1.6-3.2 1.4-4.2-.3-1 0-4.1.7-6.9 1.8-7.3.6-7.2-1.9.1"/></svg>