<svg xmlns="http://www.w3.org/2000/svg" width="682.667" height="512" version="1.0" viewBox="0 0 512 384"><path d="M38 13.2c0 7.3.5 15.1 1 17.4.5 2.2 1.6 13.5 2.4 25 .9 11.5 1.8 21.8 2.1 22.9.5 1.7-.2 2.5-4.2 4.3-2.6 1.1-6.3 2.4-8.1 2.7-4.1.8-6 4.6-4.1 8.5.6 1.4 1.5 5.8 2 9.9s1.3 7.9 1.9 8.5c.7.7 1 .5 1-.7 0-.9.7-1.7 1.6-1.7 1.4 0 1.5-.2.3-1.7-.9-1-.9-1.4-.2-1 .9.6 1.4-.7 1.9-4.3.5-3.5 1.3-5.5 2.7-6.5 2.8-2 3.1-1.4 1.6 3.3-.6 2.2-.9 5.1-.5 6.4.3 1.2 3.8 6.1 7.7 10.7 6.4 7.6 6.9 8.5 5.1 9.2-1.1.4-2.9 2.1-4.1 3.7-1.4 2.1-3.2 3.1-5.9 3.5-2.1.4-4.8 1.6-5.9 2.7-1.2 1.1-2.9 2-3.7 2-1.6 0-8 3.9-10.6 6.4-.9.8-1.6 2.4-1.7 3.5-.2 1.8.4 2.1 3.8 2.1 3 0 4.4.6 6.2 2.6 1.2 1.4 3.4 3.2 4.9 4 3.2 1.7 9 1.8 10.5.3.7-.7 2 .5 4.3 4 4.3 6.9 12.3 13.9 16.6 14.7 5.5 1 8.1-.3 12.4-6 2.4-3.2 5.4-5.9 7.1-6.5 4.4-1.5 2.6-3.1-3.6-3.1-3 0-5.6-.3-5.8-.8-.3-.4-.8-3.2-1.2-6.2l-.7-5.5 5.2-2.2c6.3-2.7 16.8-9.3 17.5-11.1.6-1.7-2.3-6.2-4.1-6.2-.8 0-1.4-.5-1.4-1.1 0-.7-1.1-.9-3-.6-2.1.5-3 .3-3-.7 0-1.7 7.8-10.6 9.2-10.6 2.1 0 8.1-5.2 6.8-6-1.2-.7-.6-2.3 4.5-12 2.4-4.6 3.1-9.9 1.8-16l-.6-3.3-1.8 2.4-1.9 2.4 1-3.5c.6-1.9 1-3.6 1-3.8 0-.1-.9.2-2 .8s-2 .8-2 .4c0-.3-.7-.1-1.5.6-.8.6-1.9.9-2.4.6-.5-.4-1.3-.1-1.6.5-.4.5-1.3.8-2 .5-.8-.3-1.8.7-2.5 2.4-.6 1.6-1.8 3.1-2.6 3.4-1.7.7-1.7.9.2-4.8 1.3-3.7 1.4-5 .5-5.9-1-.9-1.7-.5-3.4 1.8-1.2 1.6-3.4 4.3-4.8 5.9l-2.5 2.9.2-4.2c.1-2.3.1-4.1-.1-3.9-.1.2-1.9 3.2-3.9 6.8-3.9 6.8-4.1 4.6-.5-3.9 2.2-5 2.4-6.8.8-7.3s.6-8 4.3-14.1c4.3-7 8.7-12.6 18.8-23.2 8.5-9 15-17.7 15-20.1 0-.7-.4-1.5-.9-1.9-.6-.3-.4-1.7.5-3.3 2-3.9 1.7-5.2-1-5.2-1.3 0-2.9-.7-3.6-1.6-1-1.2-2.5-1.4-6.5-.9-3.4.5-5.5.3-5.9-.4C96.1.3 86.9 0 66.9 0H38zM258 192v192h86c81.2 0 86-.1 86.9-1.8 1.8-3.3 4.1-13.8 6.1-27.9 1.1-7.7 2.9-16.7 4-19.9 2-5.6 1.9-11.4 0-11.4-.4 0-4.2 1.6-8.3 3.6-12.9 6.1-15.1 4.3-14.3-11.6.4-7.5.3-8.3-.9-6.5-.8 1.1-2.1 2.9-3 4-1.5 1.9-1.6 1.8-.9-1.4.4-2.1.2-3.1-.4-2.7-1.2.7-3.1-4-3.1-7.9.1-3.5 4.6-22.1 6.2-25 .6-1.1 4.9-6.1 9.6-11 9.5-9.9 14.7-18.9 12.1-20.6-.8-.5-1-.9-.4-.9s2.6-1.6 4.5-3.7c1.9-2 4.6-4.9 6.2-6.4 1.5-1.5 2.7-3.2 2.7-3.8 0-.5 1.6-2.2 3.5-3.7 2.7-2 4.1-2.5 6.2-1.9 1.6.3 4.7.6 7 .5 6.5-.1 8.6 1.4 8.1 5.8-.3 2.6.1 4.5 1.5 6.3 1 1.5 2.1 4.7 2.4 7 .4 3.6.1 4.8-1.7 6.4-1.2 1.1-2.5 1.9-2.9 1.9-1.2-.3-3.1.8-3.1 1.7 0 1.3-6.3 6.8-7.7 6.9-2.4 0-1.3 2.5 2.3 4.8 4 2.6 10.9 12.7 12 17.5.6 2.8 5.8 11.7 6.9 11.7.2 0 1.5-.4 3-1 2.9-1.1 4.8-4.9 3.3-6.8-.6-.6-.7-1.2-.3-1.2s.2-.7-.5-1.5c-1-1.2-1-1.5 0-1.5.9 0 .9-.4-.1-1.7-1.3-1.5-1.2-1.6.9-1.1 1.5.4 2.2.2 2.2-.8 0-.8.4-1.4.9-1.4 1.4 0 3.5 6.1 3.7 10.5 0 2.2.6 5.3 1.3 7 3.6 8.4 1.8 17.1-5.5 25.9-5.3 6.5-10 9.6-14.6 9.6h-3.5l.8 4.8c.4 2.6 3.2 12.2 6.3 21.3 3 9.1 5.8 19.1 6.2 22.2l.7 5.7H512V0H258z"/><path d="M453.7 289.4c-2.1 6.6-2.3 12.3-.4 10.7.8-.6 1.4-3.2 1.5-6 0-2.8.6-5.9 1.1-7 .6-1.1.7-2.2.3-2.5-.5-.3-1.6 1.9-2.5 4.8"/></svg>