<svg xmlns="http://www.w3.org/2000/svg" width="682.667" height="512" version="1.0" viewBox="0 0 512 384"><path d="M40.1 2.2c-1.6 4.3-2.3 22.2-1.2 29.9.6 4.1 1.6 15.7 2.1 25.9.6 10.2 1.3 20 1.6 21.7.5 2.3.2 3.3-.6 3.3-.7 0-2.7 1.1-4.4 2.4s-5 3.3-7.3 4.5c-4.8 2.4-4.7 2-3 14.6 1.5 10.5 2.2 12.1 4.1 10.2.8-.6 1.2-1.6.9-2.1-.3-.4-.1-1.1.5-1.5.6-.3 1.9-3.1 2.9-6.1 2-5.9 4.9-8.6 3.3-3-1.2 4 0 6.9 4.8 12.2 2.1 2.4 5 5.8 6.5 7.7l2.8 3.4-2.6 2.7c-1.4 1.5-2.8 4.3-3.2 6.3-.3 2.1-1.1 3.7-1.8 3.7-.8 0-1.5.4-1.7.8-.6 1.5-13.5 7.2-16.3 7.2-2 0-2.6.4-2.1 1.5.3.9 0 1.5-1 1.5-1.4 0-1.4.2 0 1.5.8.8 3.2 1.5 5.5 1.5 2.9 0 3.9.4 3.5 1.3-1.3 3.6 9 7.2 13.6 4.7 2.1-1.1 2.7-.7 8.1 5.3 7.3 8 11.4 10.7 16.6 10.7 4.8 0 7.6-2.7 9.3-8.8.6-2.4 1.8-4.6 2.6-4.9 2.4-.9 1.5-2.3-1.6-2.3-3.7 0-5-2.3-5-8.9V144l10-6.6c5.5-3.6 10-6.9 10-7.2-.1-3.2-7.9-5.4-11.8-3.3-1.5.8-2.1.7-2.5-.4-1.4-3.4 3.2-12.9 7.1-14.9 4-2 5.9-4.5 4.4-5.5-.9-.5-.4-1.5 1.4-3.2 2.9-2.6 7.4-10.9 7.4-13.4 0-1.2-.6-1.5-2.2-.9-2.2.6-2.2.6-.5-1.9 2.1-3.2 2.1-4.1.2-3.3-1.7.6-2-.5-.6-1.9 1.7-1.7-7.7-1.7-10.9 0-3.9 2-4.1 1.9-3.5-1.3.4-2.4.3-2.3-1.2.8l-1.7 3.5-.4-3c-.4-3-2.7-6.5-4.4-6.5-.5 0-.6 1-.3 2.1.5 1.5-.2 4.2-2.1 8-2.8 5.9-4.3 7.5-2.5 2.5.7-1.7.7-2.6.1-2.6s-1-.5-1-1.1c0-.5.4-.8.9-.5s.8 0 .8-.7c-.1-.6.3-2.9.7-5.1.6-2.5.5-4-.2-4.5-1.4-.8 2.3-10.1 6.9-17.3 1.9-2.9 7.8-10 13.3-15.8 12.2-13 17.1-20 16.2-23.4-.3-1.3 0-3.6.9-5.2 1.6-3.1 1.2-4.4-1.4-4.4-1 0-2.4-.7-3.1-1.5-.8-1-3-1.5-6.9-1.4-14 .1-16.4-.1-19.6-2.1-2.9-1.8-5-2-21.4-2-17.9 0-18.2 0-19 2.2M256 192v192h172.7l2.6-7.7c2.6-8.1 3.9-14.9 5.8-29.2.6-4.6 1.9-11.2 3-14.5 2-6.6 2.4-11.2 1-12-.5-.4-4.3 1.2-8.5 3.5-11.5 6.2-13.3 5.1-13.5-7.9-.1-5.8-.2-6.2-1.7-4.8-1.7 1.8-3.4 2.1-3.4.6 0-.5 1.1-3.4 2.5-6.5 1.3-3.1 1.9-5.3 1.4-4.9-.6.3-1.8 2.3-2.6 4.3-1.5 3.4-1.6 3.5-2.4 1.3-.5-1.2-.5-3-.2-4 .4-.9-.6-.2-2.1 1.5-3.1 3.7-5.3 4.4-3.5 1.2.8-1.5.8-2.4 0-3.2s-.6-1.7.6-3.1q1.5-1.8.3-.9c-3.8 3.4-3.5-.4 1-13.4 3.8-10.9 5.9-13.8 16.3-22.8 5.7-4.9 8.6-8.3 10.7-12.5s2.6-6 1.7-6.4c-.8-.3-.5-.9.8-1.7 1.1-.7 3.1-2.6 4.5-4.3 1.4-1.6 3.4-3.9 4.6-5 1.2-1.2 2.6-3 3.2-4.2.6-1.1 2.7-2.9 4.6-3.9 2.9-1.6 4-1.7 5.5-.8 1 .7 3.6.9 6 .6 5-.7 7.1.8 7.1 5.1 0 1.7 1.1 5.3 2.5 8s2.5 5.9 2.5 7c-.1 2.4-2.6 6.1-4.3 6.2-2.4.2-4.7 1.6-4.7 3 0 .8-.3 1.4-.7 1.4-.5.1-2.3 1.4-4.1 2.9l-3.3 2.8 5.4 5.5c6 5.9 9.7 12.2 9.7 16.3 0 1.4 1 4.4 2.3 6.5 1.7 3.1 2.8 4 4.9 4 3.1 0 5.4-3.2 4.2-5.8-.4-.9-.8-1.9-.8-2.2-.1-.3-.5-1.1-.9-1.8-.5-.7-.4-1.2.2-1.2s.7-.8.4-1.7c-.5-1.2-.2-1.5 1-1 .8.3 1.8.1 2.1-.6 1-2.6 4.5 5.9 4.6 11.3.1 1.4.7 3.6 1.5 5 1.8 3.1 1.9 8 .3 13.4-1.6 5.1-12.2 16.6-17.8 19.1-2.5 1.1-4 2.5-4 3.6 0 1 2.3 8.7 5.1 17.1 6 18.2 7.9 25.7 7.9 32v4.8h24V0H256z"/><path d="M454.3 283.5c0 .8.4 1.2.9.9s.6-1 .3-1.5c-.9-1.3-1.2-1.1-1.2.6m-2.2 7.8c-1.4 5.7-1 8 1 6 .5-.5.9-3.4.7-6.4l-.3-5.4z"/></svg>