<svg xmlns="http://www.w3.org/2000/svg" width="682.667" height="512" version="1.0" viewBox="0 0 512 384"><path d="M40.1 1.8c-1.7 3.1-2.4 22.2-1.2 31.7.6 4.9 1.6 16.9 2.2 26.5.5 9.6 1.2 19 1.5 20.7.5 2.9.3 3.3-1.4 3.3-1.2 0-3.1 1.1-4.4 2.4s-4.2 3.6-6.6 5L26 94l.6 8.5c.3 4.7.9 9.7 1.3 11.2.8 2.9 3.6 3.9 3.6 1.3 0-.8.7-2.1 1.7-2.7.9-.7 1.9-3.1 2.3-5.2.4-2.2 1.4-4.6 2.2-5.3 1.4-1.1 1.5-1 .9.8-1 3.3.9 7 7.4 14.3 3.3 3.7 6 7.3 6 7.9s-1.1 2.8-2.5 4.8-2.5 4.7-2.5 6c0 1.5-.6 2.4-1.5 2.4-.8 0-1.5.4-1.5.9 0 1-6.5 5.1-9 5.6-.8.2-3 .8-4.8 1.4-1.8.5-4 .7-4.9.4-1.2-.5-1.4-.3-.7.8 1.3 2.1 1.1 3.3-.6 4.1-.8.4.8.7 3.5.7 4.4.1 5.2.4 6.7 3 2 3.6 7.5 5 12.2 3.2 3-1.1 3.3-1 8.6 4.9 7.7 8.5 11.5 11 16.5 11s7.8-2.6 9.4-8.7c.7-2.3 1.9-4.7 2.9-5.2 2.1-1.2 1.5-1.9-2.3-2.4-3.3-.4-4.2-2.4-4.4-9.4l-.1-4.2 9.2-6.3c5.1-3.5 9.7-6.6 10.3-7.1.6-.4.5-1-.5-1.7-.8-.5-1-1-.5-1 .6 0 .3-.5-.5-1-2-1.3-8.3-1.3-9.6 0-.8.8-1.5.6-2.4-.5-2.3-2.8 1.8-14.4 7.2-20.2 1.7-1.7 2.8-3.5 2.4-4.1-.3-.5 1.1-4.2 3.1-8.1 3.4-6.9 3.5-7.3 1.8-8.9-1-.9-1.5-1.1-1.1-.5.4.7.3 1.3-.3 1.3s-.8-1.2-.4-3.2c.4-2.2.3-2.9-.5-2.4-.7.4-1.2.1-1.2-.8 0-1-.7-1.3-2.2-1-1.3.3-4 .6-6.1.7-3.1.2-3.7-.1-3.8-1.8 0-1.3-.4-.8-1 1.3-.5 1.8-1.4 3-2 2.7-.5-.4-.7-1.5-.4-2.6.4-1 .3-1.9-.2-1.9-.4 0-1.6-1.2-2.6-2.5-1.5-2.1-1.6-3.1-.7-6.4 1.6-6.1 10.1-18.2 20.3-28.8 12-12.7 16.1-18.5 15.4-22.3-.4-1.6 0-3.5.8-4.6 2-2.6 1.8-4.4-.4-4.4-1 0-2.4-.7-3.1-1.5-.9-1.1-3-1.5-6.9-1.5-8.2.2-18.1-1.3-21.8-3.3C76.6.3 73.2 0 58.6 0 42.8 0 41 .2 40.1 1.8m-8.4 108.4c-.3.8-.6.5-.6-.6-.1-1.1.2-1.7.5-1.3.3.3.4 1.2.1 1.9M256 192v192h172.6l2.2-6.3c2.8-8.2 3.9-13.4 5.8-28 .9-6.7 2.4-14.7 3.5-17.7 2-5.8 2.5-10.5 1-11.4-.5-.3-4 1.2-7.7 3.4-8.3 4.9-12.1 5.2-13.1 1.2-1-3.8-1-12.9 0-17.7l.9-4-3.6 3.9c-2 2.1-3.9 3.6-4.3 3.3-.3-.4.4-2.9 1.6-5.6 2.4-5.6 2.6-6.5 1-5.5-.6.3-1.9 2.5-2.9 4.8-1.3 2.8-1.9 3.5-1.9 2-.1-2.9-1-3.5-3.3-2.3-1.8.9-1.8.7-1.3-4.8.5-5.8 3.4-16.8 6.1-23.3 1.8-4.3 5.9-9 14.3-16.1 6.7-5.7 13.3-16.3 10.8-17.2-.8-.3-.3-1.1 1.2-2.3 1.3-.9 3.1-2.6 4-3.8.9-1.1 2.8-3.1 4.2-4.5 1.4-1.5 3.1-3.5 3.7-4.7.6-1.1 2.7-2.9 4.6-3.9 2.9-1.6 4-1.7 5.5-.8 1 .6 3.6.9 5.8.6 5.1-.7 8.7 2.2 7.7 6.1-.3 1.4.1 3.4.9 4.8.8 1.2 2 4 2.7 6 1 3.2.9 4.2-.6 6.7-1 1.7-2.1 2.8-2.6 2.5-1.2-.8-4.8 1.5-4.8 3.1 0 .8-.3 1.5-.7 1.5-.5.1-2.3 1.4-4.1 2.9l-3.3 2.8 5.4 5.5c6.2 6.1 9.7 12.3 9.7 16.7 0 1.7.8 4.6 1.7 6.6 1.5 3.1 2.1 3.6 4.7 3.3 3.4-.4 5.3-2.7 4.1-5.4-1.4-3.3-1.3-7.4.1-7.4.8 0 1.4-.6 1.4-1.3.1-3 4 3.9 4.5 8.1.4 2.6 1.4 6.6 2.2 8.9 1.8 5 1.2 10.6-1.7 16.3-2.1 4-10.4 11.7-15.7 14.4-2.3 1.2-3.3 2.4-3.3 4 0 1.3 2.3 9.3 5.1 17.7 5.6 17.3 7.9 26.4 7.9 32.6v4.3h24V0H256z"/><path d="M454.3 283.5c0 .8.4 1.2.9.9s.6-1 .3-1.5c-.9-1.3-1.2-1.1-1.2.6m-2.2 7.3c-1.3 5.3-1 7.5 1 5.5.6-.6.9-3.2.7-5.9l-.3-4.9zm-40.6 9.3c-.4.6-.5 1.2-.2 1.5.2.3.7-.2 1-1.1.7-1.7.1-2-.8-.4"/></svg>