<svg xmlns="http://www.w3.org/2000/svg" width="682.667" height="512" version="1.0" viewBox="0 0 512 384"><path d="M39.6 1.6c-1.4 3.5-1.8 24.3-.7 32.4.6 4.7 1.6 16.4 2.1 26 .6 9.6 1.3 19 1.7 20.7.5 2.9.2 3.3-1.6 3.3-1.1 0-3.3 1.4-4.8 3.1-1.6 1.7-4.5 4.2-6.6 5.6l-3.8 2.4.5 7.2c.8 12.7 2.6 17.2 5.4 14.1.7-.8 1-1.4.7-1.4s.1-1 .9-2.2c.9-1.2 1.6-2.8 1.6-3.5 0-.6.5-2.4 1.1-4l1.1-2.8 1.2 3.7c.7 2 4.1 6.8 7.5 10.6 3.3 3.8 6.1 7.4 6.1 8s-1.1 2.8-2.5 4.8-2.5 4.7-2.5 6-.3 2.3-.7 2.2c-.5-.1-2.5 1.4-4.6 3.4-3.6 3.3-8.4 5.1-14.7 5.3-.8 0-1.5.9-1.5 2s-.6 2.3-1.5 2.7c-.8.4.3.7 2.7.7 5 .1 7.3.9 7.3 2.5 0 .7 1.5 2.1 3.3 3.1 3.1 1.6 5.2 1.7 11.8.3 1-.2 3.3 1.8 5.8 5 8.1 10.1 18.1 14.1 22.8 8.9 1.2-1.2 2.7-4.2 3.3-6.7.7-2.4 1.9-4.9 2.8-5.6 1.3-.9 1-1.2-2-1.8-3.1-.6-3.6-1.1-4.2-4.4-1.4-8.6-1.5-8.5 10-16.3 8.7-5.9 10.3-7.4 8.8-8-1.1-.4-1.4-.8-.9-.8.6-.1.3-.6-.5-1.1-2.1-1.4-7.4-1.2-8.8.2-.9 1-1.5.9-2.7-.2-2.1-2.2 1.1-14.4 5.1-19.6 3.2-4.1 5.1-8 3.4-6.9-1.3.8-1.3.9 1.5-6 2.5-6.2 3.2-11.9 1.5-13-.6-.3-.7.1-.4 1 .5 1.1.2 1.4-1.1.9q-1.65-.75-1.2-3c.2-1.3 0-2.1-.4-1.8-.5.3-.9-.2-.9-1 0-1.2-.5-1.4-2.6-.6-3.6 1.4-5.4 1.2-5.4-.5 0-2.3-1.7-1.8-2.5.7-.5 1.7-.8 1.9-1.2.8-.3-.8-1.6-2.5-2.9-3.9-2.6-2.8-2.4-5 .7-11.1s8.3-12.7 19-24.1c12.1-13 16.6-19.5 15.1-21.9-.7-1.1-.6-2.3.4-4.1 1.9-3.4 1.7-4.9-.5-4.9-1 0-2.4-.7-3.1-1.5-.8-1-3-1.5-6.9-1.4-8.6.1-18.4-1.4-21.4-3.4C77.4.2 74.5 0 58.6 0c-15.8 0-18.5.2-19 1.6m-7.9 109.6c-.3.8-.6.5-.6-.6-.1-1.1.2-1.7.5-1.3.3.3.4 1.2.1 1.9M256 192v192h172.6l2.2-6.3c3-8.9 4.9-17.1 5.7-25.2.9-9 3-19.2 5-24.3 1.3-3.1 1.4-4.5.5-6.1-.6-1.2-1.3-2.1-1.5-2.1s-3.1 1.7-6.4 3.9c-6.9 4.4-10.9 5.7-12.5 4.1-1.5-1.5-2.1-17.2-.8-21 1.4-4 .4-3.8-3.5.7-4.3 5.2-5.3 3.4-1.9-3.4 2-4.2 2.3-5.3 1-4.2-.9.8-2.3 2.7-3 4.4-1.1 2.5-1.3 2.6-1.4.8 0-1.7-.4-2-2.2-1.6-1.3.3-2.9 1.1-3.7 1.7-1.2.9-1.3.8-.4-.9.6-1.1 1.4-4.6 1.8-7.8 1-8.6 4.9-21.3 7.9-25.5 1.4-2 6-6.6 10.2-10.2 5.5-4.7 8.4-8.1 10.5-12.2 2-4 2.5-5.8 1.6-6.2-.8-.3-.6-.9.8-1.7 1.1-.7 2.9-2.4 4-3.7 1.1-1.4 3.1-3.6 4.5-5.1 1.4-1.4 3-3.4 3.5-4.5.6-1 2.6-2.8 4.7-3.9 3.1-1.9 3.9-2 6.1-.8 1.3.7 3.4 1 4.4.7 2.3-.7 7.4.9 8.5 2.7.4.7.5 2.2.2 3.3-.3 1.2.1 3.3.9 4.6.8 1.2 2 4 2.7 6 1 3.2.9 4.2-.7 6.8-.9 1.7-2.2 2.9-2.8 2.6-1.6-.5-4.5 1.3-4.5 2.9 0 .8-.3 1.5-.7 1.5-.5.1-2.3 1.4-4.1 2.9l-3.3 2.8 5.4 5.5c6.2 6.1 9.7 12.3 9.7 16.7 0 1.7.8 4.6 1.7 6.6 1.3 2.8 2.2 3.5 4.5 3.5 3.1 0 4.5-2 3.3-4.8-1.9-4.3-.9-9.1 2-9.2 1.7 0 4.5 5.6 4.5 9.2.1 1.8.7 4.4 1.5 5.8 2.1 3.7 1.9 12.4-.5 16.9-2.1 4.2-9.4 11.1-15.2 14.5-5.1 2.8-5 4.9 1.3 23.2 5.1 15.1 7.9 26.8 7.9 33v3.4h24V0H256z"/><path d="M454.3 283.5c0 .8.4 1.2.9.9s.6-1 .3-1.5c-.9-1.3-1.2-1.1-1.2.6m-2.4 8c-1.2 5.5-.6 8.3 1.1 5.5 1-1.5 1.4-11 .6-11-.3 0-1 2.5-1.7 5.5"/></svg>