<svg xmlns="http://www.w3.org/2000/svg" width="682.667" height="512" version="1.0" viewBox="0 0 512 384"><path d="M38.5.9c-1.1 1.8-.9 29.7.3 37.1.7 4.1 1.7 14.7 2.3 23.5s1.3 17.6 1.6 19.6c.5 3.5.3 3.7-2.5 4.4-1.9.4-4.1 2.1-5.8 4.3-1.5 2-4 4.8-5.6 6.1-2.8 2.3-2.9 2.5-2.5 10.2.4 7.9 2.6 13.4 5 12.6.7-.2 2.3-3.2 3.7-6.6 2.1-5.4 2.6-6.1 3.5-4.5.5 1 2.6 3.6 4.6 5.8 5.5 6.3 6.9 8.8 6.9 12.3 0 3.9-6 17.2-7.8 17.3-.7 0-3.4.6-6 1.4s-6 1.7-7.5 2.1c-1.5.3-2.5 1-2.2 1.4.3.5-.1 1.6-.9 2.4-1.3 1.3-.8 1.5 4.5 2.1 3.8.5 5.9 1.2 5.9 2 0 3.8 8.4 6.1 13 3.6 1.6-.8 2.5-.2 5.7 3.7C60.2 168.4 67.6 174 71 174c4.2 0 8-2 8.4-4.4.2-1.2.8-4.2 1.4-6.8.8-4.2.7-4.8-.9-5.3S78 155.8 78 150c0-6.8 0-6.8 3.8-9.1 2-1.2 6.5-4.2 10-6.7l6.3-4.4-2.2-1.9c-2.4-2.1-5.4-2.5-6.4-.9-.4.6-1 .8-1.5.5s-1.8-.1-2.8.4c-1.1.6-2.2.8-2.5.5-1.3-1.3 3.3-13.9 7-19.2 3.8-5.3 6.1-10.2 4.9-10.2-.3 0-1.7 1.2-3.1 2.7l-2.6 2.8 2.7-7.3 2.7-7.3-2-6.7c-1.7-5.9-2.2-6.7-4.1-6.4-1.5.2-2.2-.2-2.2-1.2 0-1.9-1.1-2.1-2.7-.5-.9.9-1 .6-.6-1.1.5-1.9.3-2.2-1-1.7-1 .4-1.7.1-1.7-.5 0-.7-.9-.2-2.1 1.1-2.8 2.9-5.1 1.3-3.9-2.8 2.2-7.9 8.2-16.4 20-28.6 13.8-14.3 18.3-20.2 17.6-23.6-.3-1.5.1-3.4.9-4.5 2-2.6 1.8-4.4-.4-4.4-1 0-2.4-.7-3.1-1.5-.8-1-3-1.5-6.5-1.5-2.9 0-6.6-.7-8.1-1.5-1.6-.8-4.9-1.4-7.4-1.4-2.6.1-6-.6-7.8-1.5C76.7.3 72.7 0 57.6 0 47.2 0 38.9.4 38.5.9M256 192v192h173.8l2-4.8c3.7-8.9 6.1-17.7 6.7-25.2.8-10.1 2.3-18.5 4.1-24.1 1.2-3.7 1.2-5.2.3-7.3-.7-1.4-1.7-2.6-2.2-2.6s-3.1 1.5-5.7 3.4c-6.4 4.6-11.8 6.5-13 4.6-1.5-2.4-2.2-10.7-1.5-16.9.8-7-.5-8.4-3.1-3.6-2 3.8-3.4 4.5-3.4 1.8 0-1.3-.3-1.4-1.2-.5-2.1 2.1-3.1 1.3-2.4-1.8.5-2.8.4-3-1.4-2-1.5.8-2 .6-2.5-.9-.3-1-.2-2.7.2-3.7.6-1.7.5-1.7-1-.5-1.6 1.3-1.7 1.2-.8-1.1.5-1.4 1.9-4.3 3-6.4 2.7-4.9 2.7-6.6 0-3.4l-2.1 2.5.6-3.1c1-6.1 7.7-15.3 17.9-24.7 9.8-9.1 14.6-15.4 15.1-19.9.3-2.6 4.5-9.6 7-11.7.9-.7 1.6-1.9 1.6-2.6 0-1.6 8-7.1 10.7-7.2 1.2-.1 2.7.5 3.4 1.3.6.8 1.7 1.4 2.4 1.4 3.5 0 13.5 14 13.5 18.9 0 2.2-4.1 6.1-6.3 6.1-1 0-1.7.8-1.7 1.7 0 1.5-2.4 3.6-8.2 7.4-.5.3 1.5 3.1 4.5 6.1 6.2 6.2 9.7 12.3 9.7 16.8 0 5.1 2.5 10 5.2 10 2.6 0 4.8-1.7 4.8-3.7 0-.7-.7-1.3-1.5-1.3-.9 0-1.2-.6-.9-1.5.4-.8.2-1.5-.3-1.5s-1-.7-1-1.5.4-1.5.8-1.5.9-.7 1.1-1.6c.6-3 6.6 3.1 7.4 7.4.3 2 1.2 5.1 2 6.9 1.8 3.9 1.8 10.4 0 14.6-1.6 3.9-9.4 11.3-15.9 15.1-3.7 2.2-4.7 3.3-4.7 5.4 0 1.4 2.9 11.1 6.4 21.6 6 17.7 7.4 23.6 7.5 30.8l.1 2.8h25V0H256z"/><path d="M445 272.3c-.7 1.2-2.3 3.8-3.4 5.7l-2 3.5 2.1-1.8c2.1-1.9 5.8-8.5 5.1-9.2-.2-.2-1 .6-1.8 1.8m8.1 16.1c-.6 2.5-1.1 6-1.1 7.8.1 3 .2 3.1 1.2 1.3.7-1.1 1.1-3.4.9-5-.1-1.7.2-4.3.8-5.8s.7-2.7.2-2.7-1.4 2-2 4.4"/></svg>