<svg xmlns="http://www.w3.org/2000/svg" width="682.667" height="512" version="1.0" viewBox="0 0 512 384"><path d="M38.1 2.2c-1.2 3.5-1.3 23.5-.1 30.3.6 3.3 1.7 14.5 2.5 25 .8 10.4 1.8 20.9 2.1 23.2.6 3.6.4 4.4-1.2 4.9-3.7 1.1-4.9 2.2-8.3 7-1.9 2.6-4.2 5.7-5.2 6.7-3.4 3.7-1 19.7 3.2 20.5 1.1.2 2.4-1.5 4.2-5.8l2.7-6.1 5 5.6c2.7 3 5.2 6.5 5.4 7.7 1.5 7.1 1.7 10 .7 9.3-.6-.3-1.1 0-1.1.8 0 1.8-4 10-5.4 10.9-.6.4-2.3.8-3.7.8-1.5 0-4.6.9-7 1.9-2.4 1.1-4.7 1.7-5.1 1.5-.7-.4-1 1-.7 3.2 0 .4-.5 1-1.2 1.5-.7.4 1.7 1 5.8 1.4 4.9.5 7 1.1 6.7 1.9-.3.7.4 2 1.5 3.1 1.7 1.4 3.1 1.7 7.5 1.2l5.4-.5 7.9 7.9c7.1 7 8.3 7.9 11.7 7.9 2.6 0 4.4-.7 6.3-2.6 2.4-2.4 2.5-2.9 1.7-8.2-.4-3.1-.8-8.8-.8-12.6l-.1-7 9.7-6.5c5.4-3.6 9.8-7 9.8-7.4 0-.5-.5-.5-1.2-.1-.7.5-.9.2-.5-.9.4-1.2.2-1.4-1-1-1.1.4-1.4.2-.9-.5 1-1.6-.1-1.5-6.4.7-3 1.1-5.6 1.8-5.8 1.6s.2-2.3.8-4.6c1.3-4.9 3.6-9 7.5-13.4 1.4-1.7 3.3-4.2 4.1-5.7 1.3-2.5 1.3-2.7-.3-2.1-1 .4-2.6 1.6-3.5 2.8-1.2 1.3-.8-.2 1.1-4.5 3.3-7.7 4.7-12.5 3.1-11.5-.6.4-1-.5-1-2.2 0-4.6-2.6-11.8-4.3-12.1-1.2-.2-1.5.3-1.2 1.7.6 3.1-.5 2.5-1.7-.9-.8-2.5-1.4-2.9-3.1-2.4-1.5.5-1.9.3-1.4-1 1.1-2.7-1-2.6-2.2.1-.9 1.9-1.5 2.3-2 1.5-.4-.7-1.5-1-2.4-.6-3 1.1-3-2.4.1-9.1 4.5-9.4 8-14.1 20.5-27.3 12.5-13.1 16.2-18.2 15.2-21.1-.3-1.1.1-3.4 1-5.1 1.5-2.8 1.5-3-.4-3-1.1 0-2.6-.7-3.5-1.5-.9-.9-3.4-1.5-6.8-1.5-3.1-.1-6.1-.7-7.2-1.5-1.2-.9-4.3-1.5-7.5-1.5-3.1-.1-6.7-.7-8.1-1.5C77.1.4 72.1.1 57.7 0 39.1 0 38.9 0 38.1 2.2M256 192v192h174.6l1.8-3.8c4.4-8.9 6.7-18 7.7-29.6.6-6.6 1.9-15.1 2.9-19 1.7-6.9 1.7-7.1-.2-9.7l-2-2.7-6.4 4.3c-7.3 5.1-10.2 6.1-11.8 4.6-.6-.7-1.2-5.4-1.4-10.9-.3-8.7-.1-10.3 2.3-15.7l2.7-6-3.7 4c-2 2.2-4.5 5.7-5.6 7.8s-2.4 3.5-3 3.1c-.5-.3-1.7 0-2.5.7-1.3 1-1.3.8-.4-1.5.5-1.5 1-3.6 1-4.7 0-1.6-.3-1.7-2-.9-6.4 3.2-6 3.2-5 .5.9-2.4.8-2.5-1.2-1.4-1.8 1-2 .9-1.5-.5.3-.8.2-1.8-.4-2.2-1.2-.7-.6-4 2.6-13.9 4.3-13.5 5.8-15.5 20.1-26.3 6.1-4.6 7.5-6.3 10.5-12.5 1.8-4 4.7-9.2 6.4-11.7 1.6-2.5 3.5-5.4 4-6.5 1.6-3.1 7.4-6.6 10-5.9 1.3.3 2.6.1 2.9-.5 1.2-1.9 6.4-1.3 7.6.9.6 1.1.8 2.5.5 3-.3.6.7 2.2 2.3 3.8 1.7 1.5 4.1 5 5.5 7.8l2.6 5.2-2.9 2.8c-1.5 1.6-3.4 2.9-4.2 2.9-.7 0-1.3.8-1.3 1.7 0 2-5.3 7.8-7.2 7.8s-1.6 1.8.5 2.4c2.6.9 11.3 11.4 12.8 15.5.7 2 1.3 5.4 1.4 7.6 0 2.2.7 4.8 1.4 5.7 1.7 2.2 4.9 2.3 6.7.2 1.1-1.4 1-1.8-.6-3-1-.8-1.5-1.4-1.1-1.4s0-.7-.8-1.5c-1.3-1.3-1.3-2-.3-3.5 1.5-2.5 2.8-2.5 6 0 1.6 1.3 2.9 3.5 3.3 5.8.4 2 1.3 4.9 2 6.4 2.2 4.2 1.8 12.4-.8 16.9-2.2 3.9-11.3 11.8-16.2 14-4 1.9-3.5 7.3 2.4 23.7 6.2 17.5 8 24.3 8 30.9v5.3h26V0H256z"/><path d="M444.7 274.1c-3.2 5.6-3.1 7.9.1 2.7 1.9-3.1 3.7-7.8 3-7.8-.2 0-1.6 2.3-3.1 5.1m8.6 19.4c0 2.2.2 3 .4 1.7.2-1.2.2-3 0-4-.3-.9-.5.1-.4 2.3"/></svg>