<svg xmlns="http://www.w3.org/2000/svg" width="682.667" height="512" version="1.0" viewBox="0 0 512 384"><path d="M37.6 1.6c-1.2 3.2-.7 27.2.8 36.9.8 5.5 1.8 14.5 2.1 20s1.1 13.4 1.6 17.6c1.2 8.5.3 11.9-3.2 11.9-1.2 0-2.7 1.2-3.7 3.1-.9 1.8-3.2 5.2-5 7.7-2.2 2.8-3.2 5.1-2.8 6.4.2 1.1 0 2.8-.6 3.8-.9 1.3-.7 2.8.6 6.1 3.1 7.7 5.3 7.8 8.6.4 1.3-3 2.7-5.5 3.1-5.5s2.3 1.8 4.2 3.9c5 5.6 6.4 12.7 3.9 19.9-1.5 4.3-2.6 5.6-5.8 7.2-2.1 1.1-4.3 1.9-4.9 1.8-.5-.1-3 .6-5.6 1.5-3.2 1.3-4.8 2.6-5.6 4.6-1 2.8-1 2.9 3.5 3.5 2.5.3 6 .6 7.9.6 2 0 3.2.4 2.8 1-.3.5-.1 1.9.5 3.1 1 1.8 1.9 2 6.8 1.8l5.7-.3 7.5 7.7c6.6 6.7 8 7.7 11.1 7.7 1.9 0 4.4-.7 5.7-1.5 2.1-1.5 2.2-2 1.7-15.1L78 144l4.6-2.8c2.6-1.5 7-4.4 10-6.6 5.2-3.8 5.3-3.9 3.6-6.2-1.8-2.4-4.1-2.5-10-.4-1.8.7-3.5 1-3.9.7-1.4-1.4 3.2-10.8 7.8-16 2.8-3.1 4.5-5.7 3.9-5.7s-.8-.6-.5-1.3c.4-.6-.3-.1-1.4 1.2-3 3.3-2.6 2.2 1.4-4.5 3.6-6 4.4-8.4 2.3-6.6-1 .8-1.2-.4-1-5.5.5-8.6-.5-13.8-2.2-12.4-1.7 1.5-2.6.4-2.6-3.2 0-2.9 0-3-2-1.2-1.9 1.8-2 1.7-2.1-.6v-2.4l-1.5 2.2c-1.3 1.8-2 2-4 1.3-2-.8-2.7-.5-4 1.6l-1.7 2.5-1.4-3c-1.4-2.8-1.3-3.3 2.2-10 5.1-9.6 8.4-14.1 19.4-25.9 12.2-13.2 16.4-19 15.6-22-.3-1.2.2-3.6 1-5.2 1.5-2.8 1.4-3-.3-3-1 0-2.7-.9-3.7-2-1.5-1.7-2.6-2-6.1-1.4-3.1.4-4.9.2-6.6-1-1.2-.9-4.2-1.6-6.6-1.6-2.3 0-5.9-.7-7.9-1.5-5.4-2.3-41.8-2.2-42.7.1M256 192v192h175.8l2.2-4.8c4.7-9.8 6.1-15.7 7.1-28.7.5-7.2 1.7-16 2.6-19.6 1.5-6.3 1.5-6.7-.3-9.2-1-1.5-2.2-2.7-2.5-2.7s-3 1.8-6 4c-6.2 4.7-9.7 5.9-11 3.9-2.5-4.1-2.2-19.5.5-24.6.9-1.8 1.6-3.5 1.6-3.8 0-.4-3.2 2.1-7.1 5.5-3.9 3.3-7.4 5.8-7.7 5.5s.9-2.6 2.6-5c1.8-2.5 3.2-4.7 3.2-4.9 0-1.1-4.7.4-6.7 2.2-3 2.6-3.3 2.7-3.3.5 0-1.4-.3-1.4-2.2.3-2.1 1.8-2.1 1.8-1.5 0 .6-1.5.3-1.8-1.8-1.4-2.5.5-3.4-.5-1.5-1.7.6-.3 1-1.1 1-1.7s-.6-.6-1.5.2c-2.5 2.1-3 .2-.7-2.3 2.3-2.4 3.2-5.1 1-2.9-3.6 3.6-2.7-1 2-11 1.7-3.4 3.5-7.4 4-8.8.6-1.7 4.5-4.7 11.1-8.9 7.1-4.4 10.9-7.5 12.6-10.2 3-4.7 3.1-4.9.3-4.9-2.1-.1-2-.3 1.2-3.2 3.6-3.2 8.7-10.7 11.4-16.6 1.6-3.3 7.7-6.9 9.7-5.6.5.3 2.6-.2 4.5-1.1s5-1.9 6.9-2.2c3.1-.5 3.6-.2 4.5 2.1.7 2 .6 3.4-.3 5.3-1.3 2.3-1.1 3 2 7.5 4.1 6.1 4.2 8.9.4 12-1.5 1.3-3.9 4.2-5.1 6.5-1.3 2.4-3.2 4.5-4.1 4.8-1.5.5-.5 1.9 5.3 7.3 8.1 7.6 9.8 10.9 9.8 18.5 0 6.4 1.4 8.2 5.4 6.7 1.4-.5 2.6-1.6 2.6-2.4 0-1-.6-1.3-1.7-.9-1.2.5-1.5.2-1-.9.3-.9 0-1.9-.8-2.2s-1.3-1.4-1.2-2.5c.1-1.7.8-2.1 3.3-2.1 3.5 0 7.4 3.7 7.4 7 0 1 .9 3.7 2 6.1 2.5 5.7 2.5 10.2-.1 15.6-2.1 4.3-9.2 11-16.1 15.2-2.8 1.7-3.8 2.9-3.8 4.8 0 1.3 2.9 11.2 6.6 21.9 4.5 13.3 6.7 21.5 7.1 26.4l.6 7H512V0H256z"/></svg>