<svg xmlns="http://www.w3.org/2000/svg" width="682.667" height="512" version="1.0" viewBox="0 0 512 384"><path d="M36.1 1.7c-1.4 2.8-1.3 24.8.3 31.7 2.9 13 6.1 44.6 5.3 53.2-.7 7.6-2.4 11.9-6.6 16.6-1.7 2-3.1 4.4-3.1 5.4 0 .9-.7 2.5-1.6 3.5-1.4 1.6-1.4 2.1.5 5.8 1.8 3.4 4.6 6.1 6.4 6.1.3 0 1.9-2 3.5-4.5 3.5-5.4 4-5 5.8 4.9 1.8 9.4 1.1 13.2-2.6 14-1.6.3-4.6 1.3-6.7 2.2-2.1 1-4.5 1.8-5.4 1.9-2.3.3-6.2 3.2-6.5 4.7-.1.7-.5 2-.9 2.9-.7 1.9 3.5 2.9 13.3 2.9 5.9 0 6.2.1 6.2 2.5 0 3.1 2.4 4.4 6.6 3.5 3.3-.8 3.6-.6 8.5 5.6 6 7.5 8.4 9.4 12 9.4 5.3 0 6.9-2.6 7.3-12.3.3-6.4.9-9.3 2.1-10.7 1.5-1.7 1.5-2 0-4.3-1.6-2.4-1.5-2.5 2.7-4.7 2.4-1.2 7.1-4.3 10.5-6.8 6.1-4.6 8-6.8 4.6-5.5-1.1.4-1.4.3-.9-.5.4-.7.1-1.2-.9-1.2-.9 0-1.3-.5-1-1 .6-1-4.9-.7-10.7.6-3.2.7-3.3.3-1.7-6.5.5-2.4 2.2-6 3.8-8 1.5-2 3.2-4.3 3.6-5.1.8-1.3.7-1.3-1 0-1.7 1.4-1.8 1.4-.5-1 .7-1.4 2-3.4 2.9-4.5l1.6-2-2.4 2c-1.7 1.4-2.3 1.5-1.8.5 7-17.3 7.8-21 4.1-19.6-1.4.5-1.5.1-1-2.9.6-2.8.4-3.5-.9-3.5-.9 0-1.4-.4-1.1-.9.3-.4-1.7-.7-4.4-.6-3.1.1-4.7-.1-4.3-.8.3-.5 0-.7-.8-.5-.8.3-2.3-.2-3.3-1.1-1.8-1.5-1.9-1.5-1.3 1 .6 2.2.2 3-1.9 4.4l-2.6 1.7.7-5.2c1.2-9 8.3-19.6 23.6-35.7 10-10.4 15.2-17.9 14.8-21-.1-1 .1-3 .5-4.5 1.1-3.8-2.4-7.2-6.6-6.4-1.8.3-4.1 0-5.8-.9-1.6-.8-4.6-1.5-6.7-1.5-2.4 0-5.2-.9-7.5-2.5C81.1 0 80.9 0 59.1 0c-20 0-22.1.2-23 1.7M256 192v192h177.7l1.6-3.8c4.1-9.6 5.7-17.1 6.3-29.2.3-6.9 1.2-15.3 2-18.8 1.8-8.1 1.7-9.2-.6-12l-1.9-2.3-6.2 5.1c-8 6.6-9.9 6.5-11.7-1-.7-3-1.1-8.4-.9-11.9.3-6.2.3-6.3-1.5-4.1-1 1.2-1.8 2.9-1.8 3.8 0 .8-.2 1.3-.5 1-.3-.2-.1-2.6.4-5.3 1.2-6.5-.2-8.1-5.3-6-1.9.8-4.6 1.3-5.8 1.1-1.3-.1-3.6.1-5.1.5-2.6.7-2.7.6-2.1-1.4s.5-2.1-1.1-.7c-1.7 1.4-1.7 1.4-.1-1.8 1-1.9 1.2-3.2.6-3.2s-.8-.5-.4-1.2.3-.8-.5-.4c-.6.4-.8 1.3-.5 1.9.4.7.4.9-.1.5-.4-.4-1.5-.2-2.3.5-1.3 1-1.3.7.1-1.9.9-1.7 2.2-3.6 3-4.2.8-.7 2.8-4.2 4.5-7.9 3-6.5 3.5-7.1 13.5-13.6 7.6-5 10.9-7.8 12.1-10.3 2.1-4.5 2-5.4-.4-5.4-2.7 0-2.5-.6.9-4.6l2.9-3.3-1.7-3.5c-2.2-4.2-1.7-7.5 1.3-9.8 3.1-2.3 14.1-6.8 16.6-6.8 1.2 0 4.1-1.4 6.5-3 5.9-4.1 8.2-3.9 10.1.6 1.5 3.7 1.2 8.3-.7 9.5-.5.3.4 2.3 2.1 4.5 3.4 4.5 3.8 8.7 1.2 10.6-1.1.7-2.8 3.3-3.9 5.8s-2.7 5.1-3.6 5.8c-1.4 1.2-.7 2.2 6.6 9.2l8.2 7.9.3 8c.3 6.7.7 8.1 2.1 8.1 2.3 0 4.9-2 3.4-2.6-.7-.3-.9-1.2-.6-2 .3-.9 0-1.4-.8-1.2-.9.2-1.4-.6-1.4-2.2 0-2.1.5-2.6 3.1-2.8 2.5-.2 3.7.3 5.3 2.4 1.1 1.5 2.1 3.6 2.1 4.8.1 1.1.7 3.2 1.5 4.6s1.4 5 1.5 8.1c0 4.8-.5 6.4-3.3 10.5-1.7 2.7-6.2 7.1-10 9.9l-6.7 5 .4 4.6c.3 2.6 2.5 10.7 5 18 4.5 13.6 6 19.8 7.1 30.1l.6 5.8H512V0H256z"/></svg>