<svg xmlns="http://www.w3.org/2000/svg" width="682.667" height="512" version="1.0" viewBox="0 0 512 384"><path d="M35.9 1.7c-2.4 2.8-2.4 20.7 0 32C37 39.1 38.4 47.8 39 53s1.6 12.5 2.1 16.2c1.4 10.1 1.1 16.9-1.1 26.3-1.1 4.7-2 10.1-2 11.9 0 2-.8 4-2 5.1-1.1 1-2 2.7-2 3.7 0 2.7 2.9 6.7 6.1 8.4 2.5 1.3 2.9 1.2 3.8-.3 1.2-2.3 2.1-1.4 3.2 3.4 1.6 7 1.2 9.2-1.8 9.9-4.6 1-9.9 2.9-17.5 6.5-1.6.7-2.8 2-2.8 3 0 .9-.3 2.4-.6 3.2-.4 1.2.5 1.7 3.8 2.1 5.1.7 12.4 1.4 15.5 1.5 1.6.1 2.2.8 2.5 2.8.3 2.6.6 2.8 4.5 2.6 4-.2 4.3.1 10.2 7.3 5.3 6.4 6.5 7.4 9.4 7.4 6 0 7.3-1.9 8-11.6.6-8 .9-9 3.4-11 2.8-2.2 2.8-2.2.9-4.3-1.1-1.2-1.7-2.3-1.5-2.5s2.9-1.9 6-3.8c3-2 7.2-5 9.2-6.8l3.7-3.3-3.2-2.3c-1.8-1.4-3.9-2.2-4.8-1.8-.8.3-3.5.7-5.8.8l-4.4.3.7-4.6c.3-2.5 2.2-7.2 4.2-10.4 1.9-3.2 3.2-6.1 2.9-6.4-.3-.4.1-1.5 1.1-2.5 1.8-2 .5-2.5-1.6-.6-1.6 1.5-1.8 2.1 2.4-9.8 2.9-8.1 2.9-12.1 0-11-.8.3-1.5.4-1.5.3s.4-1.7.9-3.5c.9-3 .8-3.2-1-2.7-1.3.5-1.9.2-1.9-1 0-1.3-.4-1.4-2-.5s-2.8.7-5.3-.5c-2-1-3.3-1.2-3.5-.5-.2.5-1.3 1.5-2.4 2.1-2 1.1-2.1.9-1.6-2.9 1-7 8.3-17.7 21.3-31.2 12.8-13.2 18.6-21.3 16.7-23.2-.8-.8-.6-1.7.4-3.4 1.4-2.1 1.4-2.5-.5-4.5-1.4-1.6-2.7-2-4.8-1.6-1.8.3-3.5-.1-5.2-1.4-1.4-1.1-4-1.9-6.3-1.9-3.6 0-9.7-3-10.6-5.2C84 .4 73.4 0 60.5 0 40.1 0 37.1.2 35.9 1.7M256 192v192h88.9c83.7 0 88.9-.1 89.6-1.8 4.5-11.1 5.8-16.6 7-31.7.7-8.8 1.9-18.5 2.6-21.6 1.1-5.1 1.1-5.8-.7-8.2-2.2-3.1-2.8-3-9.8 2.3-6.2 4.7-9.6 5-10.7 1-1.1-3.8-1-17.1 0-20.8.7-2.4.7-3.1-.2-2.5-1.2.8-2.9 1.2-5.9 1.5-1 .1-1.8.6-1.8 1 0 .5-.8.4-1.8-.1s-2.4-.6-3.2-.1c-1.7 1.1-5-2.4-5-5.3 0-2.1 0-2.1-1.5-.1-2.8 3.7-1.6-.9 2.4-8.9 2.1-4.2 3.4-7.7 2.9-7.7-2.3 0 .1-2.7 9.1-10 7.3-6 10.4-9.2 11.5-12.1 2.1-5.2 2-6.9-.4-6.9-2.6 0-2.5-.8.6-4.1 2.4-2.5 2.5-2.9 1.4-6.6-2.1-6.9-1.2-9.3 4.8-12.5 3-1.6 7.9-3.5 10.9-4.3s7.3-2.8 9.6-4.5c2.2-1.6 4.7-3 5.4-3 3.5 0 6.8 12.1 3.7 13.8-1.2.6-.9 1.5 1.6 4.7 3.6 4.9 3.7 7.5.6 11.2-1.4 1.6-2.8 4.1-3.1 5.5-.4 1.5-1.5 3.4-2.6 4.4-1 .9-1.9 2.2-1.8 2.8 0 .6 2.9 3.6 6.5 6.6 8.3 7.1 9.4 9.2 9.4 17.9 0 6.9.1 7 2.3 6.2 2.7-1 3.8-6.1 1.2-6.1-2.1 0-1.6-3.9.7-5.4 2.3-1.4 6.4.9 7.6 4.3 2.4 6.5 4.2 14.1 4.2 17.1 0 6-3.7 11.6-12.2 18.8l-7.9 6.7.5 4.1c.3 2.3 2.8 11.1 5.5 19.6C482 362 485 376 485 382.7c0 1 3.2 1.3 13.5 1.3H512V0H256z"/></svg>