<svg xmlns="http://www.w3.org/2000/svg" width="682.667" height="512" version="1.0" viewBox="0 0 512 384"><path d="M35.9 1.7c-2.5 2.9-2.4 22.6 0 34.1 2.1 9.7 4.8 29.5 5.8 42.8.4 5.2 0 9.7-1.7 17.2-1.9 9.1-2 10.5-.7 13 1.2 2.6 1.2 3.1-.5 5.1-1 1.3-1.8 3.1-1.8 4.1 0 1.7 4.5 6.2 8.5 8.5 1.3.8 1.8 2.4 1.9 5.5l.1 4.3-6.6 2.1c-3.6 1.2-7.2 2.6-8 3.3-.8.6-2.5 1.3-3.9 1.5-1.8.2-2.8 1.3-3.9 4.1-.7 2-1.1 4-.8 4.3s5.8 1.1 12.2 1.8c6.4.6 11.4 1.4 11 1.8-.4.3-.4 1.6 0 2.7.5 1.7 1.5 2.1 4.5 2.1 3.5 0 4.2.5 8.2 5.9 4.8 6.6 7.8 8.7 11.7 8.2 4.2-.5 6.1-2.9 6.1-7.6 0-9.2 1-13 4.1-14.7 3.4-2 3.6-3 1.2-5.4-1.2-1.1-1.4-1.9-.6-2.1 4.9-1.7 18.5-13.1 16.5-13.9-.7-.3-1.9-1.2-2.7-2.1-.8-.8-1.5-1.1-1.5-.7 0 .3-.7.1-1.5-.6-.8-.6-2-.8-2.7-.4-.7.5-3 .9-5.2.9l-3.8.1.6-4.5c.3-2.5 1.9-6.6 3.4-9.1 4.7-7.5 6.2-13.6 2.5-9.9-.7.7-.1-2.3 1.3-6.5 3.5-11 4.1-15.6 2-15.6-1.1 0-1.6-.9-1.6-3 0-1.6-.3-2.9-.7-2.9-2.2.4-3.3-.2-2.7-1.3.7-1.1.4-1-4.3.9-.7.3-1.3 0-1.3-.6 0-1.4-4.7-1.5-5.5-.1-1.2 2-2 1-1.9-2.3.3-5.9 8-17.2 21-30.8 14.1-14.7 18.2-20.2 16.6-22.2-.9-1-.7-1.9.5-3.7 1.2-1.7 1.3-2.5.5-2.8-.7-.2-1.2-1-1.2-1.8 0-.9-1.1-1.4-3-1.4-1.7 0-4.1-.6-5.3-1.4s-4.3-1.7-6.9-2c-2.9-.5-6-1.8-8.4-3.7L83.7 0H60.5C40.1 0 37.1.2 35.9 1.7M256 192v192h177.9l2-5.4c3.5-9.4 4.9-16.8 5.7-29.1.4-6.6 1.5-15.3 2.4-19.3l1.8-7.4-2.3-2.4c-1.3-1.4-2.5-2.6-2.7-2.7s-2.6 1.5-5.4 3.5c-11.5 8.5-13.4 7.4-13.4-7.5 0-7.9-.3-9.8-1.3-9.4-.8.3-2 .1-2.7-.3-.8-.5-2.5-.3-4.2.6-1.8.9-2.8 1.1-2.8.4 0-.6-.4-.8-1-.5-.5.3-1.1-.2-1.2-1.2 0-1-.2-2.3-.2-3-.1-.6-.5-1.5-1-2q-.75-.6-.3.3c.4.7 0 1.4-.8 1.8-1 .4-1.5-.1-1.5-1.4 0-1.8.8-4.1 5.2-13.9 1.6-3.6 1.6-4.3.3-3.8-3.4 1.4-1-1.4 7.9-9.2 7.7-6.7 9.7-9 11-12.8 2.1-6.1 2-7-.6-7.6-2.2-.6-2.2-.6.6-3.5 2.6-2.8 2.7-3.2 1.5-7-1.1-3.9-.6-11.3.9-11 .4.1 3.3-1.1 6.4-2.5 3.2-1.5 7.2-3 9-3.4 1.8-.3 5.5-2.1 8.3-4 2.7-1.8 5.5-3.3 6.1-3.3 3.6 0 7.1 11.3 4.4 14.4-.9 1.2-.7 2.2 1.4 4.9 3 4 3.3 7 .8 9.5-1 1-2.4 3.3-3.2 5.2-.7 1.9-2.2 4.4-3.2 5.6-1.9 2.1-2.4 4.4-1 4.4.4 0 3.7 2.8 7.3 6.3 7 6.6 9.6 11.7 8.5 16.8-.9 4.5.1 6 3 4.7 1.5-.7 2.3-1.7 1.9-2.6-.3-.7-.5-1.8-.5-2.3s-.7-.9-1.6-.9c-1 0-1.4-.7-1.2-2.3.2-1.7 1.1-2.3 3.6-2.5 4.2-.4 6 1.1 6.8 5.7.3 2 1.3 5.5 2.1 7.8 3.4 9.3 0 17.4-11.4 26.7-6.1 5.1-6.1 5.2-6.2 10.4-.1 3.8 1.2 9.4 4.4 19.2 4.7 14.2 7.5 26.5 7.5 32.6v3.4h27V0H256z"/></svg>