<svg xmlns="http://www.w3.org/2000/svg" width="682.667" height="512" version="1.0" viewBox="0 0 512 384"><path d="M35.6 2.2c-2.4 3.4-2.2 23.7.3 35.3 1.1 5 2.5 13.9 3.1 20 .6 6 1.5 12.8 2 15 1.5 6.4 1.1 14.8-1 23.8-2 8.8-1.8 11.6 1.2 15.8 1.5 1.9 1.7 3.1.9 5-.7 2-.5 3 1 5 4.3 5.3 6.3 13.5 3.7 14.3-.7.3-4 1.2-7.3 2.2-3.3.9-6.7 2.3-7.6 3.1-.8.7-2.3 1.3-3.1 1.3-2.1 0-3.4 1.8-4.2 5.6-.9 3.9-.1 4.1 14.2 5.1l10.2.6v2.9c0 2.5.3 2.8 3.4 2.8 3 0 3.9.7 8.4 7 5.6 7.6 8.3 9 12.9 6.8 3.2-1.5 4-3.7 4.9-13.1.5-6.5.7-6.8 4-8.2 3.6-1.5 4-2.5 2.4-5.5-.8-1.6.1-2.6 7-7.4 4.4-3.1 8-6.2 8-6.9 0-.6-1.5-2.2-3.3-3.5-2.9-1.9-4.2-2.2-9.5-1.7l-6.1.6.6-3.8c.3-2.1 1.2-5.2 2.1-6.8.8-1.7 2.7-5.3 4.1-8.1 1.5-2.8 3.3-6 4.1-7s.1-.7-1.6.8c-3.6 3.3-4.9 3.6-3.4.7 1.8-3.2 3.8-10.7 4.6-16.5.5-4.4.3-5.5-1-6-.9-.3-1.6-1.7-1.6-3s-.3-2.3-.7-2.3c-2 .3-3.4-.2-2.8-1.1.8-1.3-.1-1.3-2.5 0-1.3.7-2.1.7-2.5 0s-1.3-.7-2.5 0c-1.7.9-1.9.8-1.3-.7s.4-1.6-.9-.5c-2.8 2.2-2.7-1.7 0-7.3C79.9 58.2 83.9 53 94.5 42c13.1-13.6 16.9-18.5 16.2-21.1-.3-1.2-.1-3.1.5-4.4 1.4-3.1-.4-6.5-3.2-5.8-1.2.3-2.9-.2-3.9-1.1s-4.2-2-7-2.5c-3.8-.6-6.1-1.7-8.5-4L85.4 0H61.3C37.4 0 37.1 0 35.6 2.2M256 192v192h177.7l1.3-2.7c3.2-6.9 5.2-16.9 6.4-31.3.8-8.5 2.2-18.1 3.1-21.2l1.9-5.8-2.4-2.5c-2.2-2.3-2.4-2.3-3.7-.7-1 1.2-1.6 1.4-1.9.5-.4-.9-2.2-.1-5.7 2.2-5.6 3.8-9.1 4.4-10.1 1.9-.3-.9-.6-3.7-.6-6.2 0-5.6-1.4-8.6-2.3-5.1-1 3.9-1.6 1.7-.7-2.9.8-4.6.8-4.7-2.1-3.1-1.4.7-2.4.7-3.3 0-.7-.6-1.6-.8-1.9-.4-.4.3-.7-.5-.7-2 0-2-.4-2.5-2-2.2-1.3.3-2-.2-2-1.2 0-1.9 4-15.4 5-16.8.4-.6 1-1.8 1.3-2.8.6-1.5.4-1.6-1.3-.7-3.9 2.1-1.8-.5 6.9-8.7 7-6.5 9.3-9.3 10.5-13 2.1-6.1 2-7-.6-7.6l-2.2-.6 2.7-2.9c2.7-2.8 2.7-3.1 1.6-7.4-1.9-6.9-.9-9 6.3-12.6 3.5-1.7 7.9-3.5 9.8-3.8 1.9-.4 5.7-2.2 8.5-4.1 2.7-1.8 5.7-3.3 6.5-3.3 3.7 0 6.8 11.8 3.9 14.7-.8.8-.4 2 1.5 4.6 3.3 4.3 3.3 7.1.1 10.9-1.4 1.6-2.5 3.6-2.5 4.3s-1.2 2.8-2.7 4.5l-2.6 3.2 7.6 7.1c8.3 7.8 10 10.9 9.6 17.4-.4 5.1.5 6.2 3 3.9 2.1-1.9 1.8-4.3-.8-6.3-1.3-.9-1.4-1.6-.5-3 2.7-4.4 8.9-1.6 9.9 4.4.4 2.1 1.3 5.5 2.1 7.6 3.5 9.3.6 16.6-10.2 26.4-7.2 6.5-7.4 6.7-7.4 11.4 0 2.8 1.9 10.7 4.6 19.6 5.3 17 7.4 26 7.4 32v4.3h27V0H256z"/></svg>