<svg xmlns="http://www.w3.org/2000/svg" width="682.667" height="512" version="1.0" viewBox="0 0 512 384"><path d="M34.7 3.9c-3.2 8-3.2 16.2.1 34.6 1.7 9.3 3.3 20 3.7 23.7s1.3 9.1 2.1 12c1.8 6.9 1.8 14.1-.2 22.5-1.8 7.6-1.4 12 1.4 16.1 1 1.5 2.6 6.1 3.5 10.2s1.9 8.4 2.2 9.6c.5 1.7.1 2.3-2.2 3.2-1.5.5-3.7 1.4-4.8 1.8s-2.3.7-2.7.6c-1.2-.3-8.3 3-9 4.2-.4.6-1.2 1.1-1.9 1.1-.6 0-1.7 1.7-2.4 3.8-1.2 3.4-1.1 3.8.6 4.7 1 .6 7.3 1.5 14.1 2 6.7.6 12.6 1.4 13.1 1.9s.4 1.8-.2 3c-1.1 1.9-.9 2.1 1.7 2.1 2.5 0 3.3.8 5.7 5.2 4 7.5 5.3 8.8 9.1 8.8 5.2 0 8.2-3.4 9.4-10.5 1.7-9.9 1.9-10.5 3.9-10.5 2.8 0 7.3-3.9 6.6-5.9-.3-1.2 1-2.8 4.5-5.4 2.7-2 5.7-4.9 6.6-6.3 1.7-2.5 1.7-2.6-1.2-4.9-3.1-2.5-8.4-4-11.3-3-1 .3-3 .1-4.4-.4-2.3-.9-2.6-1.4-2.1-4.3.4-1.8 1.3-4.4 2.2-5.8 4.4-6.9 8-14 7.2-14-.5 0-1.3.8-1.9 1.7-1.9 3.5-2.1.4-.2-4.3 2.5-6.4 3.9-20.6 2-20.2-.7.2-1.5-.9-1.8-2.3-.6-2.4-1-2.6-5.3-2.4-2.6.1-4.4-.3-4.1-.8s-.6-.1-2.1.8c-2.7 1.8-3.6.9-1.3-1.4 1-1 .9-1.1-.5-.6-2.7 1.1-2.2-.9 2.8-10.5 3.6-7 7-11.5 16-21.2 13.4-14.4 17.9-20.5 16.3-22.4-.7-.9-.7-1.9 0-3.3 1.8-3.2 1.4-5.4-.8-4.8-1.2.3-2.7-.3-3.6-1.3s-3.4-2-5.7-2.3c-2.9-.4-5.1-1.6-8-4.4L87.9.5 62.1.2 36.3-.2zM256 192v192h177.9l1.5-2.8c2.6-5.2 5.4-18.7 6.1-29.7.4-6.1 1.6-15 2.7-19.8 1.8-8.1 1.9-9 .4-10.6-.9-1-1.6-2.3-1.6-3 0-1.6-3.5-.6-7.2 2-1.4 1.1-4.6 2.8-6.9 3.9-5 2.2-6.9 1.4-6.9-2.9 0-3.9-1.1-7.2-2.2-6.5-.5.3-.9-.2-.8-1.2.4-3.4 0-3.7-2.2-1.8-2.1 1.9-2.1 1.9-1.6-.4.6-2.3-.7-3.1-1.5-1-.3.7-.6-.1-.6-1.8-.1-3.7-1-4.8-2.8-3.3-1 .9-1.3.4-1.3-2.9 0-6.7 2.9-17.4 6.1-22.6 3.1-5.1 2.6-5-3.5.3-2.3 2.1-2.7 2.2-1.8.6.6-1.1 4.9-5.7 9.6-10.1 10.6-10.2 14.2-17.5 9.4-18.7l-2.2-.6 2.7-2.9c2.7-2.8 2.7-3.1 1.6-7.4-1.4-5.2-.7-9.3 1.8-10.2 1-.3 3.3-1.5 5.2-2.6 1.8-1.2 5.8-2.7 8.8-3.5s7.3-2.8 9.6-4.5c2.2-1.6 4.9-3 5.9-3 3.3 0 6.2 8.1 4.7 13.5-.9 3-.7 4 1 6.2 2.2 2.7 2.8 7.7 1.1 8.8-.6.4-2.1 2.8-3.3 5.3-1.3 2.6-2.9 5.6-3.6 6.8-1.3 1.9-.9 2.5 3.9 7 2.9 2.7 5.9 5.5 6.7 6.3 3.4 3.3 4.6 6.3 4.5 11.9v5.7l2.4-2.8c2.5-3 3.2-6.9 1.2-6.4-.8.1-1.3-.8-1.3-2.3 0-2.1.5-2.6 3.2-2.8 3.8-.4 6.3 2.6 6.3 7.8.1 1.9.7 4.6 1.5 6 1.9 3.3 1.9 10.2 0 14.6-.8 2-5 6.9-9.2 11l-7.8 7.4.1 6.7c0 5.2 1.1 10.2 4.6 21.3 5.4 16.8 6.8 23.2 6.8 30v5h27V0H256z"/></svg>