<svg xmlns="http://www.w3.org/2000/svg" width="682.667" height="512" version="1.0" viewBox="0 0 512 384"><path d="M34.6 1.2c-4.1 14.3-4.2 17.5-.7 35.9 1.7 9 3.5 20.3 4.1 25s1.7 11 2.6 14c1.6 5.4 1.6 6.3-.2 26.5-.5 4.7-.2 6.9 1.1 9.5 1.6 2.9 6.8 22 6.2 22.4-.7.5-10 3.7-11 3.9-4 .7-8.7 3-8.7 4.2 0 .8-.6 1.4-1.3 1.4-.6 0-1.7 1.6-2.3 3.5-1.5 4.7-.6 5.2 14.2 6.6 13.4 1.3 15.8 2.1 14.9 5-.5 1.4 0 2.1 1.5 2.7 1.1.4 3.6 3.5 5.4 6.7 2.6 4.8 3.8 6.1 6.1 6.3 7.2.9 9.9-2 11.8-12.4 1.3-6.8 1.4-6.9 5.2-8.2 4.6-1.5 6.5-2.9 6.5-4.9 0-.7 2.5-3.8 5.5-6.8 3-2.9 5.5-6 5.5-6.8s-1.6-2.7-3.6-4.2c-3.1-2.4-4.7-2.8-10.3-2.9l-6.6-.1-.3-3.3c-.3-2.5.7-5.1 3.8-10.3 2.3-3.8 4.5-6.9 4.9-6.9.3 0 1.4-1.4 2.3-3.1 1-1.6 1.3-2.7.6-2.3-1.6 1-3.9-2.5-2.9-4.5C90 96 91.1 82 90.1 82c-.4 0-1.2.5-1.9 1.2-.8.8-1 .3-.5-2.4.4-3.1.3-3.6-1.3-3.5-1.1.1-1.8-.4-1.6-1.1.2-.9-.5-.9-2.7.3-3.8 1.9-4.5 1.9-3.7-.2.5-1.3 0-1.1-1.8.6-1.4 1.4-2.8 2.2-3.1 1.9s.1-1.1 1-1.8c.8-.7 1.5-1.7 1.5-2.3 0-.5-.9-.2-2 .8-2.7 2.5-2.5 1.3 1.1-6.3 4.8-10.2 9-16.2 19.6-27.9 14.3-15.8 15.9-18 14.5-20.4-1-1.6-.9-2.4.4-4.4.9-1.4 1.2-2.5.7-2.5-.6 0-2-.9-3.3-2s-3.6-2-5.3-2c-2.1 0-3.9-1-6.4-3.7-4.7-4.9-7.9-5.5-36.6-6-19-.3-23.8-.2-24.1.9M256 192v192h178.9l1.9-6.2c3.1-10.2 4.1-15.6 5.1-28.3.5-6.6 1.8-15.3 2.7-19.3 1.5-5.9 1.6-7.6.6-9-.7-.9-1.5-2.5-1.8-3.4-.6-1.6-1.6-1.2-8.9 2.7-11.5 6.3-12.2 6.1-13.4-2.9-.4-3.2-1.1-5-1.9-4.8-.7.1-1.2-.3-1.2-.9 0-.8-.6-.7-1.7.2-1.5 1.3-1.6 1.1-.9-1.5.6-2.6.5-2.8-.8-1.7-1.4 1.2-1.7.9-2.2-1.8-.6-2.7-.9-2.9-2.2-1.9-1.4 1.2-1.5.3-.9-7.4.6-9.2 3.3-17.3 6.8-20.4 3.1-2.8 2.2-3.7-1.2-1.2-7 5.2-7 5.2-6.3 3.5.3-.9 4.6-5 9.5-9.1 8.3-7.1 12.9-13.2 12.9-17.1 0-.8-.7-1.5-1.5-1.5-2.1 0-1.9-2 .5-4.5 1.9-2 2-2.6.9-6.7-1.2-4.5-.6-10.3 1.1-9.3.5.3 1.2.1 1.5-.5.9-1.5 13.1-7 15.5-7 1.1 0 4.2-1.6 6.9-3.5 5.7-4.1 7.5-4.3 9.6-1.2 2.1 3.3 3 10.4 1.5 12.2-.9 1.1-.7 2 .9 4.4 2.1 2.9 2.9 10.1 1.2 10.1-1 0-7.1 11.9-7.1 13.7 0 .5 3.2 4 7.1 7.8 7.6 7.4 8.9 9.6 8.9 15.3l.1 3.7 1.9-2.4c2.4-2.8 2.6-5.7.5-6.5-1.9-.7-1.9-3 0-4.6 3.7-3.1 9.7 2.5 9.4 8.7-.1 1.6.3 4.1 1 5.6.6 1.6 1.1 5 1.1 7.6 0 5.6-2.7 10-10.8 17.2-2.8 2.6-5.6 5.9-6.2 7.4-2.1 5.6-1.2 14.7 3 27.6 5.2 16.5 7 24.2 7 31.1v5.8h27V0H256z"/></svg>