<svg xmlns="http://www.w3.org/2000/svg" width="682.667" height="512" version="1.0" viewBox="0 0 512 384"><path d="M31 4c-1.1 2.2-2.5 4-3.1 4s-.7.4-.4 1c.3.5.1 1.9-.5 3.1-1.3 2.2 1.1 17.2 5 31.4 2.3 8.5 7.2 32.3 7.1 34.9 0 1 .7 3.2 1.5 4.7 1 2 1.4 6.3 1.4 14.8 0 9.4.4 13.1 1.9 16.8 2.3 6 3.8 18.3 2.1 18.3-.6 0-3.2 1-5.8 2.1-2.6 1.2-6.3 2.7-8.2 3.4-4.2 1.4-8.2 6.9-7.8 10.5.4 3.1 4.2 4.5 17.1 6.1 5.1.7 9.9 1.8 10.7 2.6 1.2 1.1 1.2 1.3-.3 1.3-2.1 0-2.2 1.3-.2 3 .8.7 2.4 3.1 3.4 5.4 1 2.2 3.2 5.4 4.8 6.9 2.6 2.4 3.6 2.7 6.7 2.2 4.7-.9 9.1-6 11.1-12.8 1.7-5.8 2.9-6.8 10.3-8.7 2.7-.7 5.9-2.7 8.7-5.4 3.7-3.5 4.5-4.9 4.5-7.8s-.7-4.1-3.7-6.4c-2.1-1.6-4-2.9-4.3-2.9s-1.1-.4-1.8-.9c-1.5-.9-7.3-1.8-11.9-1.8-3.2.1-3.3-.1-3.3-3.9 0-5.1 1.3-7.5 5-9.4 2.6-1.4 2.9-1.4 2.4 0-.8 2 1.1 4.2 5.8 6.6 3.8 2 3.9 2 8.3 0 2.5-1.1 4.5-2.4 4.5-3 0-.5-1.2-1.9-2.7-3.1-2.4-1.9-2.8-2.9-3.1-9.1-.4-6.1-.8-7.2-2.9-8.6-1.8-1.2-2.9-1.3-4.7-.5l-2.4 1 1.5-4.6c2.7-8.4 2.8-9.6.8-8.9-1.3.6-1.6.3-1.1-.8 2-5.1 2.1-4.9-1-2.9-1.6 1-2.3 1.1-1.6.4 1.8-2.1 1.5-3.2-1-2.8-1.7.2-2.2-.1-2-1.5.3-1.9-1.3-2.3-2.4-.6-.5.8-.9.8-1.4-.1-.6-.9-1.2-.9-3 0-1.2.6-2.4 1-2.6.8-.6-.7 9-18.2 12.7-23.2 1.9-2.5 8.7-10.2 15.3-17.1 10.3-10.8 11.7-12.7 10.5-14.1-1-1.2-1-2-.1-3.5 1.4-2.2.8-3.9-1.4-3.9-.8 0-2.4-1.6-3.5-3.5-2.3-3.9-4.6-5.5-7.8-5.5-1.1 0-3.6-1.4-5.6-3.1-2.1-1.8-5.4-3.5-7.8-4C82.4.5 69.8.1 56.8 0H33zm225 188v192h180.8l2.6-11.3c1.4-6.1 2.8-15 3.2-19.7.6-8.7 2.4-19.2 4.5-26.6 1.1-3.7 1-4.3-1.1-7.2l-2.3-3.1-7.8 4c-4.3 2.1-9.2 3.9-10.8 3.9-2.8 0-3-.3-3.6-4.8-.3-2.6-.9-6.3-1.2-8.2-1-5-1.1-5.4-1.2-6.5-.1-.6-.9.1-1.7 1.5-1.5 2.5-1.5 2.5-1 .2.4-2.3.4-2.3-2-.7-1.3.8-2.4 1.1-2.4.6 0-1-2.1-.8-5.4.5-1.6.6-1.8.4-1.3-.9.4-1.1.1-1.7-.8-1.7-1 0-1.2-.9-.8-3.7.6-3.5.5-3.7-1.1-2.4-.9.8-1.9 1.1-2.2.8-.8-.8 1.5-8.4 3.5-11.8 1-1.7 1.7-3.8 1.4-4.7-.2-1.1 1.6-3.7 4.9-7.1l5.2-5.3-5.3 2.6c-2.9 1.5-5.5 2.5-5.7 2.3-.5-.4 7.3-5.4 19.8-12.8 3.7-2.1 6.3-4.5 7.3-6.5 1.9-4.1 1.9-4.7-.4-3.9-3.1 1-3.5-1.5-.7-4.4 2.4-2.5 2.5-2.8 1-5-2.3-3.3-2.2-8.8.2-10.5 3-2.3 16.1-7.6 18.6-7.6 1.3 0 4.3-1.6 6.7-3.5 5.8-4.6 8.2-4.5 10.5.2.9 2 1.9 5.2 2.2 7.1.3 2.7 0 3.5-1.6 3.9-1.9.5-1.9.6.5 3.5 2.5 2.9 3.6 10.2 1.7 11-1.3.5-6.2 10.6-6.2 12.8 0 1.2 2.7 4.6 6.4 8.3 3.6 3.4 7.2 7.8 8 9.7l1.5 3.5 1.6-3.8c1.2-2.8 1.3-4.2.5-5.8-.9-1.5-.8-2.4.1-3.5 3.4-4.1 9.4 1.9 9.4 9.4 0 2.6.6 6.4 1.3 8.4 2 5.7.3 9.6-8.2 18-7.1 7.1-7.3 7.5-8 13.3-.4 3.3-1.2 7.5-1.8 9.2-1 2.8-.7 4.9 2.1 15 1.9 6.5 4.4 15.6 5.7 20.3 1.4 4.7 2.7 11.8 3.1 15.7l.6 7.3H512V0H256z"/></svg>