<svg xmlns="http://www.w3.org/2000/svg" width="682.667" height="512" version="1.0" viewBox="0 0 512 384"><path d="M30.2 3.1c-1.3 1.6-3 2.9-3.9 2.9-1.1 0-1.4.6-1 2.1.3 1.2-.1 3.2-1 4.5-1.2 1.9-1.3 3-.4 5.2.6 1.5 1.8 5.8 2.6 9.7.9 3.8 2.9 11.5 4.6 17 3.9 13.6 7.1 32.3 5.7 34.4-.8 1.3-.3 2.8 1.9 6.4 2.5 3.9 3.1 6.1 3.7 13.6.4 5 1.5 13 2.6 17.8s2 10.2 2 11.9c0 3.3-2.2 6-4 4.9-.5-.3-4.4 1-8.6 3.1-6.1 3-7.9 4.4-9 7-.8 1.8-1.4 4-1.4 4.8 0 2.6 4.2 4.5 13.1 6.2 4.6.8 9.7 1.8 11.3 2.2 3.6.9 4.7 3.1 1.3 2.5-3.3-.7-4.2 1.1-1.4 3 1.2.8 3.2 3.5 4.5 6 6.3 12.6 17.8 11.5 23.3-2.3l2.6-6.5 7-2.1c3.9-1.2 8.5-3 10.2-4 3.5-2 6.5-7.6 5.6-10.2-2-6.1-11.6-11.7-21.7-12.7l-6.7-.7.6-3.2c1-5.1 2.1-6.5 7.3-8.7 2.7-1.2 5.5-2.7 6.1-3.5 1.9-2.3 2.8-1.6 4 3.1 1.3 5.3 2.1 6 8.1 7.6 5.7 1.6 10.8-.1 10.8-3.5 0-2.6-1.8-4.6-4.1-4.6-1.2 0-2.8-2.2-4.9-6.8-1.8-3.7-3.5-7.4-3.9-8.2-1.1-2.1-7.4-2.4-11.1-.5-3.2 1.6-3.2 1.6-2.5-.7.4-1.3 1.6-4 2.7-6.2 2.6-5.2 3-7.6 1.2-7.6-1.2 0-1.2-.4.2-2.5 1.8-2.7 1.4-3.1-1.8-1.4-1.8 1-2 .9-1.5-.5.5-1.3.1-1.6-2.1-1.4-2.3.3-2.7-.1-3-2.5-.3-2.3-.6-2.6-1.8-1.6-.8.6-1.7.9-2.1.6-.3-.4-1.2.1-1.9 1.1-.8.9-1.4 1.2-1.4.5 0-.6.4-1.5 1-1.8.5-.3 3.1-4.7 5.7-9.8 4.2-8.2 6.3-10.8 19.6-24.1 12.8-12.9 14.7-15.3 14.2-17.4-.3-1.3-.1-3 .5-3.7.8-.9.4-1.7-1.5-2.9-1.4-.9-2.5-2.5-2.5-3.5 0-2.3-1.6-3.7-5.1-4.6-1.5-.4-4.1-2.2-5.9-4-2.5-2.6-4.5-3.6-7.9-4.1-2.5-.3-5.6-1.2-6.8-2C81.5.3 75.9 0 56.8.1H32.5zM256 192v192h181.7l1.1-3.8c1.5-5.2 3.9-19.7 5.2-32.2.6-5.8 2.1-14 3.2-18.2 2.1-7.7 2.1-7.7.1-10.8l-2-3.1-2.9 2.4c-1.6 1.3-3.4 2.2-4 2s-3.2.6-5.8 1.7c-9.4 4-10.2 3.2-11.3-10.2-.5-6.8-.8-7.6-2-6-1.1 1.5-1.2 1.3-.1-1.3.6-1.7 1.6-3.6 2.1-4.3 1.8-2.3-.1-2.4-4.4-.1-2.9 1.4-6.6 2.3-10.9 2.4-3.6.2-5.9.1-5.2-.2 2.2-.8 1.3-2.5-1-1.7-2.2.6-2.2.6-.5-1.9 1.6-2.5 1.6-2.7-.2-3.6-1-.6-2.1-.7-2.5-.4-.3.3-.6 0-.6-.8s1.8-3.7 3.9-6.6c4.9-6.4 8-11.2 6.1-9.6-.8.7-1.8 1.3-2.2 1.3-1.6 0 .6-2.7 4.7-6.1 2.2-1.8 3.2-2.9 2.3-2.6-1 .4-2.6 1-3.5 1.4-1.5.6-1.6.4-.6-.8 1.9-2.4 20.2-11.1 21.5-10.3.7.4.8.3.4-.5-.4-.6 0-1.4.9-1.7 1.8-.7 4.7-5.8 3.8-6.8-.3-.3-1.7-.3-2.9 0-3.1.8-3-.3.2-3.7l2.6-2.8-2-4.3c-3.5-7.2-2.7-8.2 11.9-14.7 2.5-1.2 5.7-2.1 7.1-2.1s4.6-1.6 7.2-3.6c2.8-2.1 5.5-3.4 6.8-3.2 2.3.3 5.4 5.3 6.4 10.5.5 2.6.3 3.2-1.5 3.8-2.1.6-2.1.6.4 4.3 2.4 3.5 3.5 10.2 1.6 10.2-.5 0-1.4 1.2-2 2.7-.6 1.6-1.9 4-2.8 5.4-2.5 3.9-1.1 7 7.1 15.3 8 8 7.9 8 9.6.8.5-2.1.4-3.2-.3-3.2-.6 0-.4-.7.5-1.6 2.7-2.7 6.1-1.1 8.6 4.1 2 4.1 2.1 4.8.8 6.7-1.3 1.8-1.3 2.4 0 4.9 3 5.8 1.2 10.4-8 20.6-6.2 6.9-6.3 7.1-6.9 14.1-.3 3.9-1.1 8-1.7 9.2-1.4 2.6-.1 10.2 4.5 26.5 3.9 14 5.5 22.1 5.5 28.2v4.3h26V0H256z"/></svg>