<svg xmlns="http://www.w3.org/2000/svg" width="682.667" height="512" version="1.0" viewBox="0 0 512 384"><path d="M31.5 1c-.4.6-2.4 1.9-4.6 3.1C23.8 5.6 23 6.5 23.5 8c.3 1 0 2.8-.7 3.9-1.4 2.3-.3 7.4 6.3 29.1 6.5 21.6 7.1 24.5 5.8 28.9-.8 2.6-.8 4.4-.1 5.7.7 1.2.6 2.3-.1 3.6-.9 1.4-.8 2.3.3 4 5.9 9.3 7.1 12.8 9.2 27 2.1 14.5 2.6 21.3 1.7 22.2-.3.3-2.5.8-4.9 1.1-2.5.3-4.6 1-4.8 1.5-.2.6-1 1-1.9 1-2.7 0-7.3 4.1-8.8 7.7-2.8 6.7 1.3 9.4 18.7 12.4 4 .6 6.9 1.7 7.2 2.5.4 1.1-.2 1.3-3.3.8-4.5-.7-6.4 1-2.9 2.6 1.3.6 3.9 3.7 6 7 4.5 7.3 8 9.3 13.4 7.9 5-1.4 10.1-6.3 11.6-11.2 1.4-4.8 3.6-6.2 11.1-7.6 3.2-.6 7.1-1.8 8.6-2.7 3.8-2.2 6.4-6.8 5.5-9.7-1.1-3.8-5.3-8.6-8.9-10.2-1.9-.8-5-2.2-6.9-3s-4.5-1.4-5.7-1.4c-2.7.2-7.9-1.7-7.9-2.8 0-2.2 4.9-7.4 8-8.4 3.3-1.1 4.8-1.9 10.4-5.4 2.3-1.5 2.4-1.4 5.5 4.4 1.7 3.3 3.5 6.2 3.9 6.5.4.2 3.5.8 6.7 1.1 5.1.6 6.4.4 8.4-1.2 1.8-1.5 2.2-2.5 1.6-4.2-.6-1.9-1.2-2.2-3.4-1.8-2.2.5-3.2-.2-7-5.1-2.4-3.2-5.2-7.2-6.2-9-1.6-2.7-2.4-3.2-5.6-3.2-2.1 0-6 .7-8.7 1.5s-5.1 1.4-5.2 1.2c-.7-.6 2.2-8.4 4.4-11.9 1.7-2.8 2-4.1 1.3-6.1-.7-1.6-.6-2.8.2-3.6 1.5-1.5-.7-1.5-3.6 0-1.8.9-2 .9-.9-.2 1.9-2.1 1.4-3-1.3-2.3-2.2.5-2.5.3-2.5-2 0-2.8-1.7-3.1-3.8-.6-1.9 2.2 5.6-11.6 9.6-17.8 1.9-2.9 7.8-9.2 13.1-14 17-15.5 17.1-15.5 16.7-19.3-.1-1.9-.8-4.4-1.4-5.6-.7-1.2-1.2-3.1-1.2-4.2 0-1.3-1.1-2.3-3.6-3.1-2-.7-4-2.2-4.6-3.5-1.2-2.6-3.6-3.7-11.7-5.6-2.9-.6-6.2-2-7.2-3C82.1.1 80.1 0 57.1 0 41.3 0 31.9.4 31.5 1M256 192v192h183.6l1.7-9.2c1-5.1 2.4-15.1 3.2-22.3.9-7.2 2.3-15.9 3.1-19.4 1.5-6 1.5-15.3 0-16.8-.3-.4-2.5 1.1-4.7 3.3-2.2 2.1-3.7 3.1-3.4 2.1.9-2.2-.3-2.2-5.6.3-8.5 3.8-10.2 2.6-11.4-8.2-.4-2.9-.8-6.4-1.1-7.7-.5-2.3-.6-2.3-2-.5-1.3 1.7-1.3 1.7-.4-.9.5-1.6 1.5-3.7 2-4.8.6-1 .9-1.9.8-1.9-.2 0-3.2.9-6.8 2-7.4 2.2-10.5 2.5-9.4.9.4-.8-.3-.9-2.6-.4s-3 .4-2.6-.4c.4-.7-.1-1.1-1.3-1.1q-4.05 0 0-3.6c1.1-1 2.5-2.8 3-3.9 1-2 1-2-.5-.1-1.5 1.8-6.1 3.2-5 1.5.2-.4-.1-.9-.7-1.1s2.6-4.5 7.1-9.7c8-9 8.2-9.2 4.2-7.2-5.8 3-6.2 2.6-1.4-1.1 4.3-3.3 5-4.8 1.2-2.8-1.8.9-2.1.9-1.5 0 1.1-1.9 21.3-11.2 22.5-10.5.6.4.9.3.8-.2-.1-.4 1.2-2.2 3-4 3.5-3.5 4.1-5.5 1.5-5.2-4.4.4-4.7-.1-1.9-3l2.8-3-2-2.8c-4-5.6-3.3-9.5 2.1-12.1 7.1-3.5 14.5-6.2 16.8-6.2 1.2 0 4.4-1.6 7.1-3.6 6.3-4.5 8.5-4.2 11.4 1.6 2.3 4.4 3.1 9 1.7 9-.5 0-1.5.5-2.3 1-1.2.7-1.1 1.3.9 3.4 1.5 1.6 2.4 3.9 2.6 6.5.1 2.2-.1 3.8-.6 3.6-.4-.3-1.1.5-1.5 1.7-.4 1.3-1.5 3.4-2.5 4.7-3.7 4.7-2.6 8 5.4 16l7.2 7.2 2.1-4.8c1.5-3.2 1.8-5 1.1-5.5-.7-.4 0-1.2 1.6-1.9 3.3-1.5 5.5.1 8.2 6.1 1.7 3.9 1.7 4.1-.1 6.1-1.5 1.6-1.6 2.4-.6 3.9 1.7 2.8 1.5 9.1-.5 12-.9 1.4-4.1 5.3-7.1 8.7-5.2 6.1-5.5 6.5-6.5 14.5-1.9 15.1-1.3 23.7 3.2 41.7 2.5 9.8 4.1 18.7 4.1 22.2v5.9h26V0H256z"/><path d="M418 265.5c-1.4.8-2 1.4-1.4 1.5.5 0 1.9-.7 3-1.5 2.4-1.8 1.6-1.9-1.6 0m-20.1 25.2c-1.3 1.6-1.2 1.7.4.4.9-.7 1.7-1.5 1.7-1.7 0-.8-.8-.3-2.1 1.3"/></svg>