<svg xmlns="http://www.w3.org/2000/svg" width="682.667" height="512" version="1.0" viewBox="0 0 512 384"><path d="M27.5 2.1c-4.5 1.5-5 2.1-5 4.7 0 1.6-.6 3.6-1.4 4.5-1.2 1.5-.9 3.2 1.9 12.8 1.7 6 4.5 14.9 6.2 19.7 1.6 4.8 3.8 11.8 4.8 15.7 1.7 6.4 1.7 7.1.3 8.7-1.1 1.3-1.4 2.9-1 5.9.3 2.3.1 5-.5 5.9-.9 1.4-.6 2.4 1 4.7 4.8 6.8 9.2 17.6 9.2 22.8 0 2.7.7 7.7 1.6 11s1.7 7.6 1.8 9.5c.1 3.5.1 3.5-5.5 4.6-5.8 1.2-14.2 6.1-15.3 8.9-2.6 6.8 1 10.6 12.2 13 10.5 2.3 12.5 2.9 13 4.4.3.9-.8 1-4.6.5-3.2-.4-5.2-.2-5.6.5-.4.6-.1 1.1.6 1.1 1.7 0 6.4 5 9.9 10.2 1.3 2.1 3.8 4.5 5.5 5.3 2.8 1.3 3.7 1.3 8.1 0 5.7-1.7 8.4-4.3 11.1-10.6 1.7-3.8 2.6-4.7 6.1-5.8 2.3-.6 6.4-1.5 9.2-1.8 4-.5 5.5-1.2 7.9-4 1.7-1.8 3-4.1 3-5.1 0-1.9-3.1-7.3-5.8-10.2-2.1-2.2-17-8.3-18.8-7.6-1.7.6-6.4-1.6-6.4-3 0-1.5 6.4-6.4 8.3-6.4.8 0 4.6-1.6 8.3-3.5l6.9-3.5 2.5 2.9c1.4 1.5 3.8 4.5 5.3 6.5 2.1 2.7 3.5 3.6 5.5 3.5 1.5-.1 3.9.3 5.4.9 2.4 1 3.1.8 5.8-1.4 3.5-3 3.8-4.9 1.1-6.4-2.2-1.1-3-.4-2.6 2.2.3 1.4 0 1.5-1.6.5-1-.6-1.9-1.6-1.9-2 0-.5-3.5-4.6-7.7-9.3-8.9-9.7-8.8-9.7-21.5-5.6-8.3 2.7-8.6 2.7-7.6.7.6-1.1 1.7-2.8 2.6-3.8 1-1.2 1.1-1.7.3-1.7s-1-.8-.5-2.3c.4-1.2.8-2.9.8-3.7.1-.8.9-2.9 1.8-4.5 2.2-4.1 1.4-13.2-1-11.3-1.3 1.1-1.4.9-.8-1.5l.7-2.9-2.8 1.9c-5.4 3.8-5.5 3.7-3.8-.4 2.9-6.8 8.7-16.5 12.4-20.6 2-2.2 8.9-8.7 15.4-14.4 10.6-9.4 11.7-10.8 11.7-13.8 0-1.9-.5-3.7-1-4-.6-.4-.8-2.1-.4-4.1.6-3.2.4-3.5-2.5-4.5-1.7-.6-3.7-2.3-4.3-3.7-1-2.1-2.7-3-7.8-4.4-3.6-1-8.4-3.1-10.8-4.8l-4.3-3-25.2.1c-21.4.1-26 .4-30.2 2M256 192v192h92.9c51.2 0 93.2-.4 93.5-.8.2-.4 1.2-6.2 2-12.7.9-6.6 2.3-17.4 3.2-24 1.5-11 3.4-29.8 3-30.2 0 0-3 1.3-6.6 3-7.3 3.4-8.1 3.7-13 4-3.2.2-3.6-.1-4.6-3.3-.6-1.9-1.6-3.6-2.1-3.7-.5-.2-.8-1.8-.6-3.6.4-2.5.2-2.9-.6-1.7-1.8 2.5-3.3-.8-2.7-5.8.7-4.9 0-5.2-3.2-1.5-1.8 2.2-2.1 2.3-1.3.6 1.6-3.2 1.4-3.3-2.8-1.8-3.5 1.2-4 1.2-4.5-.2q-.6-1.5-3-.9c-1.7.4-2.6.1-3-1-.4-.9-1.3-1.4-2.1-1-1.9.7-1.9-.3.1-2.5 1.7-1.9 1-4.4-.9-3.2-.7.3-.3-.3.7-1.5 2.3-2.6 1.1-2.9-1.7-.4-2.8 2.4-1.5.3 5.3-8.8 3-4 7.7-8.8 10.5-10.6 6.7-4.6 5-4.3-4.1.7-8.3 4.5-9.1 3.9-1.6-1.1 2.6-1.8 3.9-3 3-2.6-5.1 1.8-5.4 1.8-3.3.1 1.1-.9 6.7-3.9 12.5-6.7 5.8-2.7 11.5-5.9 12.8-7.1 2.6-2.4 3-5.2.6-4.3-2.9 1.1-3.4-.5-1.2-3.4l2.1-2.9-2.6-3.5c-3.5-4.5-3.5-7.9.1-10.4 2.9-2 17.1-7.4 20.6-7.7 1.2-.2 4.2-1.7 6.8-3.4 2.5-1.7 5.5-3.1 6.6-3.1 2.3 0 6.1 5.8 6.9 10.5.4 2.6.1 3.3-2.2 4.3l-2.8 1.3 2.1 2.2c1.1 1.2 2.3 3.3 2.7 4.7.6 2.6-1.6 9.3-3.5 10.5-.5.3-1 3.1-1 6.1 0 5.3.2 5.7 5 10.4 2.7 2.8 5.4 5 6 5s1.6-1.2 2.2-2.7c3.9-9.1 7.8-10.1 11.6-3 2.8 5.3 2.8 6.1-.4 8.6-2.5 2-2.6 2.2-1 3.9 2.7 3.1 1.9 7.3-3 15.2-2.6 4.1-5.2 8.2-6 9-1.2 1.5-3.7 18-3.7 25 0 5.7 3.2 31 4.8 38 .8 3.6 1.5 9.1 1.5 12.2v5.8h26V0H256z"/></svg>