<svg xmlns="http://www.w3.org/2000/svg" width="682.667" height="512" version="1.0" viewBox="0 0 512 384"><path d="M0 192v192h512V0H0zM238.5 89.9c-.5 1.5.1 1.9 3.6 2.4 2.2.3 4.3.8 4.6 1.1.3.2-.4 1.8-1.6 3.4-1.2 1.7-2.1 3.3-2.1 3.6s1.7.6 3.8.6c3.1 0 4.5-.7 7.7-4 4.6-4.7 9.7-6.4 16.3-5.4 6.2.9 8.5 2 16.3 7.6 3.7 2.7 7.1 4.8 7.7 4.8.5 0 1.5.7 2.2 1.5 2.3 2.7-3.6 3.1-9.4.5-8-3.5-9.4-3.6-10.1-.7-1.5 5.9-.4 7.8 5.9 10.1 6.6 2.5 13.5 7.7 13.2 10.1-.1 1.1 1.4 2.2 4.4 3.2 2.5.8 5.2 2.1 6 2.8s2.2 1.5 3 1.8c1 .4.7.6-.7.6-2.8.1-2.9.9-.5 2.7 1.3 1 1.4 1.3.3 1.4-.8 0-2.4.9-3.6 2-1.8 1.7-2.7 1.9-4.7 1.1-1.9-.7-3.1-.6-4.7.5-3 2.1-2.8 4.6.3 3.8 3.1-.7 3.5 0 4 8.7l.4 7.4 4.9 1.3c2.6.7 8.2 1.5 12.3 1.8 10.6.8 11.9 1.1 11.6 3.1-.3 1.5-1.3 1.8-6.7 1.6l-6.4-.2 4.6 1.3c2.6.7 5.1 1.6 5.7 2s6.4-.3 12.8-1.4c13.3-2.3 18.3-2.4 28.8-.9 5.7.9 7.3 1.5 6.9 2.5-.3.9.2 1.4 1.7 1.4 1.8 0 2 .3 1.1 1.4-.8 1-.5 1.9 1.4 4 1.4 1.5 2.5 3.2 2.5 3.8s.9.8 2 .5c2.2-.6 7.4 1.6 6.4 2.6-.3.3.5.8 1.8 1.3l2.3.7-2.2.8c-2.4.9-2.5 3.5-.2 5 .8.5.9.9.3.9-.7 0-.9 1.1-.6 2.5.3 1.9 0 2.5-1.4 2.5-1.8.1-1.8.1-.1 1.1 2.4 1.4 2.1 2.8-.5 2.2-2.2-.5-2.2-.5-.4.9 1.7 1.4 1.6 1.5-1.7 1.6-2 .1-3.9-.3-4.2-.8-.8-1.2-3.6-1.3-3.3-.1.4 1.4-4.3 5.1-6.5 5.1-2 0-2 0-.1 2.2 1.9 2.1 1.9 2.1-.1 1.4-1.1-.4-2.9-.9-4-1-1.2-.2-3.3-1.1-4.8-2.1-3.9-2.5-4.4-1.3-.7 1.8 5.3 4.5 3.2 4-2.7-.6-6.1-4.7-10.8-6-29.3-8.7-7.8-1.1-16.6-3.6-18.7-5.2-.7-.5-2.2-.6-3.5-.2-1.3.5-4.5.8-7.3.9h-4.9l-.1 6.5c0 6.3-.1 6.5-2.7 6.8-1.9.2-3-.3-3.8-1.7-1.2-2.4-3-2.8-3-.8 0 .8-.9 2.2-1.9 3.1-1.9 1.7-2 1.7-3.6-.8-1.1-1.7-1.6-4.1-1.4-7.8l.3-5.3-4.4-.8c-2.6-.4-8.7-.3-14.6.4-12.1 1.4-14.9.6-14.2-4.2.5-3.5 0-4-5-4.4-13.7-1.2-49.5-3.5-49.8-3.3-.2.2 3 1.6 7.1 3.2 5 1.9 7.2 3.2 6.8 4.1-.3.9 1.2 2.2 3.9 3.6 2.4 1.2 4.4 2.3 4.6 2.4.7.6-1.1 3.5-2.2 3.5-.6 0-7.1-3.4-14.5-7.5-15.4-8.5-18.6-9.6-20.6-6.8-.8 1-1.5 1.3-1.5.8 0-.6-.4-.4-.9.4-1.2 1.9-4.9-.2-5.3-3.1-.3-2-1.2-2.4-7.3-3.4-3.8-.6-7.7-1.4-8.6-1.8-1.6-.7-3.9-4.7-3.9-6.6 0-1.5 14.1-1.2 27 .5 6.3.8 22.3 2.4 35.4 3.5l23.9 2.1 3.3-3.2c1.8-1.7 5.4-7.4 7.9-12.6 4.2-8.5 4.5-9.6 3.2-11.1-.9-.9-2.3-4.8-3.3-8.5-1.6-6.6-1.9-7-5.9-8.7-8.2-3.5-7.1-12 1.6-12 4.3 0 6.5 2.6 5.5 6.3-.5 1.9 3.8 10.7 5.2 10.7.4 0 1.7-2.3 2.9-5 1.9-4 2.1-5.4 1.2-7.3-.8-1.7-1.7-2.3-3.2-2-2.6.5-7-4.6-6.5-7.4.2-1-.3-1.8-1.2-1.8-2.2 0-13.8-7.5-18.2-11.8-5-4.8-4.8-7.3.6-7l3.7.3-2.5-3.1c-3.2-3.8-3.2-4.3 0-6.8 3.5-2.7 7.8-2.9 6.9-.2m-10.3 128.3c-.7.7-1.2.8-1.2.2s.3-1.4.7-1.7c.3-.4.9-.5 1.2-.2.2.3-.1 1.1-.7 1.7M36 255c0 .5-.5 1-1.1 1-.5 0-.7-.5-.4-1 .3-.6.8-1 1.1-1 .2 0 .4.4.4 1"/><path d="M281.5 144.8c.3.9.9 2.9 1.2 4.4 1 5 2.7 5.2 6.2.7 1.8-2.2 3.1-4.2 3-4.3-1-.8-4.9-2.6-5.6-2.6-.4 0 .1.7 1.1 1.5q3.75 2.85-3 0c-3.4-1.4-3.6-1.4-2.9.3m-22.3 13.5c-.6 1.8-2.9 6.2-5 9.8-7.7 12.8-6 15.4 4.6 6.9 3.4-2.8 6.9-6.4 7.7-7.9 1.3-2.7 1.2-3.1-1.5-7.5-1.6-2.5-3.3-4.6-3.8-4.6-.4 0-1.3 1.5-2 3.3m39.5 9.3c-.4.4-.7 1.1-.7 1.5 0 1.3 10.2 5.6 14.8 6.3 7.5 1.1 6.7-.5-1.9-3.9-4.6-1.8-9.1-3.5-10-3.9-.8-.4-1.8-.3-2.2 0"/></svg>