<svg xmlns="http://www.w3.org/2000/svg" width="682.667" height="512" version="1.0" viewBox="0 0 512 384"><path d="M10.4 1.1c-.3.6.1 2.7.9 4.7C12.9 9.7 26.5 52.7 27.5 57c.5 2 0 3-2.4 4.8-3.2 2.3-3.9 5.5-2.1 9.7.5 1.3.2 2.6-.8 3.8-1.4 1.6-1.4 2 .7 4.7 5 6.9 10.4 19.6 12.8 30.4 1.4 6.1 3.1 11.8 3.9 12.7.8.8 1.4 2.5 1.4 3.6 0 2.1-3 3.2-12.5 4.8-4.5.7-11.5 8.4-11.5 12.8 0 5.6 4.6 8.8 18 12.3 6.2 1.6 8.6 2.7 8.9 3.9.2 1.5-.1 1.6-2 1.1-4.1-1.3-11.9-1.9-11.9-1 0 .5 1.3 1.6 2.9 2.5 1.6 1 5.2 4.7 8.1 8.3 5.8 7.3 7.5 8.6 11.8 8.6 7.4 0 14.6-4.5 18-11.3 2.5-5.1 5.6-6.7 13.1-6.7 10 0 15.5-3.6 15.3-10-.1-5.8-7.1-14.6-12.4-15.7-1.5-.3-3.3-1.2-3.9-1.9-.6-.8-2.2-1.4-3.5-1.4-1.2 0-2.5-.4-2.8-.9-.4-.5-2.4-1.2-4.6-1.6-2.6-.4-4-1.2-4-2.2 0-1.3-.3-1.3-1.5-.3-1 .8-1.5.9-1.5.1 0-2 8.1-5.2 15.3-6.1 4-.4 8.5-1.3 10.2-1.9 4.3-1.8 6.3-.9 13.9 6.4 7.2 6.9 7.6 7.1 9.2 5.5.7-.7 2.1-.6 4.4.4 4.3 1.7 7.4.5 9.1-3.6 1-2.4.9-3.2-.4-4.5-1.9-2-3.7-.9-3 1.8.5 1.9.4 2-1.6.9-1.2-.6-2.4-1.7-2.7-2.5-.3-.7-2.3-2.5-4.5-3.9-2.2-1.5-6.5-5-9.6-7.8l-5.6-5.1-11.9.7c-6.6.3-12.8 1.1-14 1.7-3.4 1.8-4.2-.3-1.8-5.4 1.2-2.5 2.8-5.1 3.5-5.7 1-.8 1.1-1.9.5-3.4-.6-1.7-.2-3.3 1.4-6.2 2.9-5.1 3.8-7.7 2.6-6.9-.6.4-.8-1.1-.6-3.9l.5-4.6-3.2 1.6c-1.8.9-2.7 1.1-2.1.4.7-.6.9-2 .7-3.1-.6-2.1-1.8-2.5-2.8-.9-.3.5-1.1 1-1.6 1-.6 0 1.4-4.6 4.3-10.2 5.5-10.6 4.4-9.3 31.1-35 5.8-5.6 5.9-5.9 5.2-9.5-.4-2.1-.9-5.6-1-7.8-.2-3.3-.8-4.3-3.4-5.8-1.7-1.1-3.1-2.5-3.1-3.3C104 .2 96.8 0 57.6 0 25.2 0 10.9.3 10.4 1.1M256 192v192h188.8l.6-11.3c1-16 2.4-26 5-35.8l2.4-8.5-2.4-2.1c-1.5-1.4-3.1-1.9-4.9-1.5-1.6.3-3.3-.2-4.4-1.2-1-.9-2.1-1.3-2.5-.9-1.3 1.3-2.5-1.9-1.6-4.3.8-2.1-.7-8.4-2-8.4-.3 0-1.4 1.4-2.4 3.1-1.6 2.7-2 2.9-2.8 1.5-.6-1.1-.4-2.6.6-4.6 1.9-3.9.5-3.8-2.7 0-1.4 1.7-2.8 3-3.1 3-1 0 0-4.6 1.8-7.9 1.4-2.7 1.5-3.3.4-2.8-1.1.4-1.4-.1-1.1-1.8.5-2.3.5-2.3-4.8-.9-6.5 1.7-10.2 1.9-7.9.4 1.2-.8 1.2-1-.5-1s-1.7-.2-.5-1c1.2-.7.8-1-1.4-1-1.6 0-4.6-.5-6.8-1.2l-3.9-1.1 2.8-2.9 2.7-2.8h-2.5c-2 0-2.1-.2-.9-1.1 1.2-.8 1-1-1-.5-2.4.5-2.4.5.5-1.9 1.7-1.3 3.3-2.4 3.7-2.5.3 0 2.1-2.4 3.8-5.3 1.8-2.8 4.4-6.4 5.8-8 2.7-2.9 2.1-3.4-2.4-1.7-1.5.6-2.9.9-3.1.6-.6-.5 14.3-8.1 21.2-10.8 5.9-2.3 9.6-5.4 8.8-7.4-.3-.8.2-2.3 1.2-3.4 1.7-1.9 1.6-2.1-3.4-6.8-3.5-3.3-5-5.4-4.6-6.4.9-2.2 9.2-6.1 20-9.4 5-1.5 10.9-4 13.2-5.6 3.1-2.1 4.9-2.7 6.7-2.2 2.6.6 11.6 9.5 11.6 11.4 0 1.4-4.9 3.4-7.7 3.1-2.7-.3-2.8.2-.8 3.3 1 1.5 1.7 5.6 2 12 .2 5.3.7 10.2 1.1 10.8.4.7.7 3 .5 5.3l-.2 4.1 4.1-.3c3.1-.2 4 .1 4 1.3 0 .9.5 1.2 1.2.8.8-.5.9-.2.5.9-.3 1-.3 1.7.2 1.7 1.7 0 2 4.4.5 6.1-1.2 1.4-1.4 3-.9 7.6.4 3.2.8 15.5 1 27.3.1 13.6.8 25.3 1.8 32 .9 5.8 1.9 17.1 2.3 25.2l.7 14.8H512V0H256z"/></svg>