<svg xmlns="http://www.w3.org/2000/svg" width="682.667" height="512" version="1.0" viewBox="0 0 512 384"><path d="M0 192v192h512V0H0zM238 89c.7 1.2 2.1 2 3.8 2 1.5 0 3.3.4 4.1.9 1.2.8 1.2 1.3-.2 3.5-2.5 3.7-2.1 4.4 2.4 4.1 3-.2 4.7-.9 6.3-2.8 7.4-8.9 19.5-8.9 31.2-.1 3.2 2.5 7.6 5.4 9.7 6.5s3.5 2.4 3.2 2.9c-1.1 1.7-5.6 1.1-11.6-1.6-7-3.2-8.9-2.4-8.9 3.7 0 3.7.1 3.8 5.7 5.9 9.5 3.5 14.9 8.1 13.2 11.2-.8 1.4-.3 1.9 3.1 2.9 2.2.7 4 1.6 4 2.1 0 .4.7.8 1.5.8s1.5.5 1.5 1c0 .6 1 1.5 2.3 2l2.2.9h-2.2c-2.6.1-3.1 1.6-.8 2.5.8.3 1.5 1 1.5 1.5 0 .6-.7.8-1.6.4-.9-.3-2 0-2.4.7-1.1 1.7-4.6 2.3-6.8 1.1-.9-.5-2.6-.5-3.7 0-1.3.5-1.5.8-.5.8 1.3.1 1.3.2 0 1.1-1.1.7-.6 1 2.1 1h3.7l.8 8.2.9 8.3 6.5 1.7c3.6.9 9.8 2.2 13.8 2.9 5.9 1 7.2 1.5 7.2 3 0 2.3-.5 2.3-9.4.4-3.8-.8-7.1-1.3-7.4-1.1-.6.7 10.7 4.6 13.1 4.6 1.2 0 7.1-.9 13.1-2 17.5-3.2 36.6-2.1 36.6 2 0 1.3.6 1.7 2.3 1.4 1.2-.2 1.7-.2 1 .1-1.8.9.4 6.2 2.9 6.8 1.2.4 1.7 1 1.3 1.8-.6.9-.1 1 1.9.5 1.9-.5 2.6-.3 2.6.8 0 .8 1.7 2.1 3.8 2.9 2 .9 2.9 1.6 2 1.6-2.9.1-3.9 3.2-1.6 5.1 1.9 1.5 1.9 1.8.5 3.2-.9.9-1.3 1.8-1 2.2.4.3 0 .6-.8.6-1 .1-.9.3.4 1.1 2.6 1.5 2 3-1 2.4l-2.8-.6 2.4 1.4 2.3 1.4-2.2.6c-1.3.3-3.6-.1-5.1-.9-3.3-1.6-5.3-1.8-4.4-.4.9 1.5-1.7 3.7-5.5 4.5-3 .7-3.2.9-1.7 2 2.3 1.7 2.2 2.8-.2 1.6-1-.6-2.1-.8-2.4-.5-.3.4-2.1-.3-4-1.5-4.9-3-5.8-2.5-1.8.9 1.9 1.6 3.2 3.2 2.9 3.5s-2.9-1.4-5.7-3.8c-5.5-4.7-8-5.5-31-9.2-5.1-.8-11.5-2.5-14.2-3.6-4-1.8-5.2-1.9-6.4-.9-.9.7-3.6 1.3-6 1.2-5.2 0-6 .8-5.6 6.1.4 6.4-3 8.6-7 4.4-1.3-1.3-2.3-1.7-2.6-1.1-.2.6-1 2-1.8 3-1.1 1.5-1.8 1.7-3.2.8s-1.9-2.6-2.1-7.8c-.3-6.6-.3-6.6-3.2-6.6-1.6 0-3.1-.4-3.4-.8-.3-.5-4.9-.3-10.3.4-5.4.8-11 1.1-12.6.8-2.9-.6-5-3.4-4.2-5.7.7-1.5-1.2-3.4-3.5-3.5-.8 0-11.4-.8-23.5-1.6-23.3-1.6-28-1.8-25.5-.9.8.3 3.9 1.5 6.8 2.5 4.2 1.6 5.2 2.3 4.7 3.8-.4 1.4.7 2.5 4.6 5 5 3.1 5.1 3.2 3 4.6-1.9 1.4-2.4 1.3-5.3-1-6-4.5-22.1-13.6-25.2-14.2-1.9-.3-4.3.1-6.1 1-1.7.9-2.6 1.6-2.1 1.6s.7.3.4.6c-1.1 1.1-4.8-1.7-4.8-3.6 0-2.6-1.1-3.1-8.8-4-5.4-.7-7.1-1.4-8.9-3.5-1.3-1.4-2.3-3.5-2.3-4.7 0-2 .3-2 7.8-1.4 13.2 1.2 15.2 1.4 34.7 3.5 10.5 1.1 24.8 2.3 31.8 2.7l12.9.7 2.9-3.4c1.7-1.9 5-7.4 7.4-12.4 3.8-7.7 4.2-9.1 3.1-10.5-.8-.8-2.2-4.4-3.2-8-1.9-7.3-2.9-9-5.2-9s-6.2-4-6.2-6.4c0-2.9 3.9-6.6 7-6.6 3.6 0 5 1.7 5 6.1 0 2.1.5 4.1 1 4.4.6.4 1.7 2.2 2.5 4.1 1.4 3.4 3.5 4.6 3.5 2 0-.8.9-3 2-4.9 1.8-3 1.9-3.9.8-6.1-.9-2.1-1.7-2.6-3.3-2.2-1.5.4-2.8-.4-4.8-2.9-1.6-2-2.3-3.6-1.7-4s.8-1.1.4-1.6c-.3-.5-.9-.7-1.4-.4-.4.2-1.8-.3-3.1-1.3-3-2.1-5.3-3.6-9.9-6.1-4.6-2.6-7.9-6.3-8.2-9.2-.3-2.1.1-2.4 2.8-2.4h3.2l-1.9-2.4c-2.4-3-2.4-4 .3-6.8 2.6-2.8 4.4-2.9 5.8-.3m175.5 58c.3.5.1 1-.4 1-.6 0-1.1-.5-1.1-1 0-.6.2-1 .4-1 .3 0 .8.4 1.1 1M36 255c0 .5-.5 1-1.1 1-.5 0-.7-.5-.4-1 .3-.6.8-1 1.1-1 .2 0 .4.4.4 1"/><path d="M286.9 143.4c1.3 1.6 1.2 1.6-1.2.5-3.5-1.6-3.9-1.1-2.5 3.5 1.5 4.9 3.2 5.4 6.2 1.9 3-3.3 3.2-4.8.9-5.7-1-.3-2.5-.9-3.3-1.3-1.3-.5-1.3-.4-.1 1.1m-28.3 16.5c-1.9 4-4.5 8.5-5.6 10.2-2.8 3.9-3.8 9.9-1.7 9.9s14.5-10.7 16.2-14c1.2-2.4 1.1-3-2-8l-3.3-5.3zm40.9 7.1c-1 1.7 11.7 7.5 14.9 6.8.9-.2-2.1-2-6.4-4-4.4-2-8.2-3.3-8.5-2.8"/></svg>