<svg xmlns="http://www.w3.org/2000/svg" width="682.667" height="512" version="1.0" viewBox="0 0 512 384"><path d="M.3 28.7C.4 44.6.9 58.6 1.4 60c.6 1.9.5 2.1-.3 1S0 65.1 0 79.8c0 19.4.1 20.7 2.6 28 1.5 4.2 3.3 8.4 4 9.3 1.8 2.1 1.8 2.5-.7 4.7-1.2 1.2-2.9 1.8-4 1.5-1.9-.5-1.9.1-1.7 20.3l.3 20.9 4.9 1c2.7.6 5.1 1.6 5.4 2.3.2.8-1 .7-4.5-.3-2.6-.8-5.1-1.5-5.5-1.5-.5 0-.8 1.9-.8 4.2.1 3.6 1 5.6 5.6 12.1 6.6 9.3 10 11.7 16.9 11.7 10 0 19.6-4.4 24.5-11.2 1.6-2.2 4.8-5.2 7.2-6.8 4-2.6 4.9-2.8 14.3-2.7 10.7.1 15.2-1.3 18.7-5.7 3.6-4.4 1.6-15.9-3.9-21.8-7-7.5-11-10.5-15.4-11.3-1.1-.2-3.1-1.3-4.6-2.4-1.4-1.2-3.3-2.1-4.1-2.1s-4.3-1.3-7.8-3c-3.5-1.6-7-2.7-7.9-2.4-.9.4-1.5.1-1.5-.9 0-.8 2.2-2.4 5.1-3.5 4.8-2.1 5.3-2.1 12.2-.6 4 .8 12.2 1.9 18.3 2.3l11 .8 9 5.7c7.6 4.9 18.9 12.4 27.1 18.1 1.2.8 2.8 1.5 3.6 1.5 2.3 0 4.3-3.3 4.2-7-.5-10.5-.3-9.9-4.2-11.8-2.1-.9-4-2.1-4.1-2.5-.2-.4-3.6-2.4-7.5-4.3-3.9-2-10.5-5.9-14.6-8.8-6.4-4.3-8.8-5.4-15.1-6.5-4.1-.7-11.1-2.2-15.5-3.2S61.3 102 58.6 102c-4.5 0-5.2-.4-8.8-4.2-4.2-4.6-4.4-5.7-2.2-14.3.9-3.3 1.9-7.6 2.3-9.7.5-2 1.8-5.4 3.1-7.5 1.2-2.1 2.3-4.8 2.5-6.1.2-2 0-2.1-1.4-.9-.9.8-2.3 1.8-3.1 2.2-1.2.7-1.3.6-.4-.6.6-.8 1.3-2.8 1.6-4.5.3-2.5.1-3.1-1-2.6-1.2.4-1.4 0-.8-1.9.4-1.3 1-4.2 1.3-6.4.6-4.5.8-5 7.1-16 3.3-5.6 7.9-11.2 15.3-18.8L84.8 0H-.1zM256 192v192h192l.4-2.3c1.8-8.1 6.2-25.8 8.8-34.5 1.6-5.6 3.1-11.2 3.3-12.5.2-1.2 1.6-6.2 3-11.1 3.5-11.9 2.7-14-1.5-3.8-3.4 8.3-5.8 10.9-4.4 5l.7-3.3-4.8 4.4c-6.1 5.6-7.2 4.2-4-4.8 1.3-3.6 2.3-6.6 2.1-6.8-.1-.2-4.7 2.2-10.2 5.2-10.2 5.6-14 6.9-19 6.3-3.4-.4-4.2-2.5-4.3-11.4-.1-4.7.4-6.7 1.9-8.7 2.8-3.5 2.5-4.4-1.7-5.3l-3.8-.7 3-.7c2.7-.7 2.6-.8-1.5-.9-4.5-.1-4.5-.1-2.2-1.9 1.6-1.3 2-2 1.1-2.9-.7-.7-.7-1.3 0-1.7.5-.4.8-1.2.6-1.9-.3-.7 2.9-3.1 7.7-5.8 6.2-3.4 8.8-5.4 10-8 2.3-4.5.9-4.8-4.6-1-5.1 3.5-6.1 3.8-5.2 1.4.4-.9.1-2-.6-2.4-.9-.6 0-1.3 2.7-2.4 17.6-7.3 26.3-12.5 29.5-17.7 1.8-3 1.8-3.1-.6-7.6-1.3-2.5-2.4-5.8-2.4-7.3s-.4-3.1-1-3.4c-.5-.3-1-1.6-1-2.9 0-2.7 6.4-6.5 15.2-9.1 7.8-2.2 11.6-4.2 13.5-7.1 2.2-3.5 5.3-3 12 1.9 6.1 4.5 9.8 9.1 8.8 10.7-.3.6-2.6 1-5.1 1-2.4 0-4.4.3-4.4.8 0 .4 1.8 3.9 4.1 7.7 6.9 11.8 6.7 10.9 2.5 10.2-3.2-.5-3.6-.3-3.2 1.1.3 1 1 5.1 1.5 9.3.6 4.1 1.3 8.2 1.6 9.1.4.9.2 2.4-.3 3.4-1.2 2.2 1.1 15.5 3.7 20.9 1 2.2 2.3 5.3 2.9 7 .5 1.6 2.8 5.9 5.1 9.5l4.1 6.5V0H256zm255.2 143c0 1.9.2 2.7.5 1.7.2-.9.2-2.5 0-3.5-.3-.9-.5-.1-.5 1.8"/></svg>