<svg xmlns="http://www.w3.org/2000/svg" width="682.667" height="512" version="1.0" viewBox="0 0 512 384"><path d="M0 57.8c0 44.3.3 58.1 1.2 59 1 1 1 1.7 0 3.2-.8 1.4-1.2 8.5-1.2 24.5V167l2.5.6c3.3.8 3.3 2.3 0 1.6l-2.5-.4v17.1l4.9 5c5.7 5.8 9.2 6.8 17.7 5.1 11.1-2.3 18.6-6.9 23-14.2.5-.7 2.7-2.4 4.9-3.7 3.3-1.9 6.1-2.5 16-3.1 12.7-.7 14.5-1.3 18.5-5.4 1.8-2 2.5-3.9 2.6-7.6.2-2.7-.2-5.2-.7-5.5-.5-.4-.9-1.4-.9-2.3 0-4.7-16.3-20.2-21.1-20.2-.9 0-3-1.1-4.9-2.5s-4.1-2.3-4.8-2c-.8.3-2.5-.4-3.9-1.5s-3.5-2-4.6-2-2.9-.7-3.9-1.6c-1.5-1.4-2-1.5-3.4-.3s-1.6 1.1-1.3-.6c.3-1.2 2.3-2.9 5.2-4.2L48 117l9.2 2c5 1.2 13.7 2.4 19.3 2.9 9.3.7 10.7 1.1 16.6 4.6 3.5 2.1 9.3 5.9 12.9 8.4 6.2 4.5 7.5 5.3 15.7 9.8 2.2 1.2 4.3 2.9 4.6 3.8.9 2.1 4 1.9 6.1-.4 1.4-1.5 1.6-3 1.1-6.8-1.1-8.3-1.5-9.2-4.8-10.9-1.7-.9-3.7-2.5-4.4-3.4-.7-1-4.6-3.3-8.7-5.3-4.1-1.9-10.6-5.7-14.5-8.5-3.9-2.7-8.8-5.3-10.8-5.6-2.1-.4-9.4-2-16.3-3.6s-15.1-3.2-18.2-3.5c-5.1-.6-6.1-1.1-9.8-5.2-4.6-4.9-4.6-5.1-1.5-15.3.9-3 2-7.8 2.4-10.5.4-2.8 1.3-6 1.9-7.3.7-1.2 1-2.2.7-2.2s.1-1.2.8-2.8c1-2 1.1-3.2.3-4.8-.6-1.1-1.6-1.9-2.1-1.7-.6.2-1-2-.9-5.5.1-4.1.9-7.3 2.9-11.2 3.1-6.3 9.4-17 11-18.6.5-.7 1.8-2.2 2.9-3.5 1-1.3 3.9-4.5 6.4-7.2L75.4 0H0zM256 192v192l96.6-.2 96.7-.3 3.2-13c1.8-7.2 5.4-20.4 7.9-29.4 2.5-9.1 4.4-16.6 4.2-16.9-.3-.2-1 1.5-1.7 3.8-1.2 3.8-1.4 4-2.1 2-.5-1.3-.5-3.2-.2-4.4.4-1.4-1-.4-4.2 2.9-4.5 4.7-4.8 4.9-5.2 2.6-.2-1.3.8-6 2.3-10.3 1.5-4.4 2.5-8.1 2.3-8.4-.3-.2-2.3 1.2-4.5 3.1s-4.2 3.2-4.5 3c-.3-.3-4.3 1.3-8.9 3.4-16.4 7.7-20.2 6.8-23.7-5.3-2.3-7.9-2.2-9.5 1.4-13.6.7-.8 1.3-2 1.3-2.5.2-2.1 1.3-4.5 2-4.5.4 0 .8-.7.8-1.5s-.4-1.5-.9-1.5c-.4 0 .1-.9 1.2-2s2.4-2 2.8-2c1.3 0 12.5-8 13.9-9.9.7-.9 1.3-2.2 1.3-2.8 0-1.5-3.9-.2-8 2.7-3.7 2.6-4.8 2.5-2.4-.2 1-1.2 1.4-1.8.7-1.5-1.9 1.2-2.4-.8-.5-2.1.9-.6 6.1-3.3 11.4-6.1 11.8-6 15.9-9 18.3-13.5 1.8-3.3 1.8-3.4-.5-7.1-1.3-2.1-2.8-5.9-3.2-8.4-.5-2.5-1.1-5.7-1.4-7.1-.5-2.1.2-2.9 3.8-5.3 2.4-1.5 6.8-3.5 9.8-4.3 8.3-2.3 12.5-4.5 14.3-7.6 1.9-3.3 4-3.5 8.3-.9 4.4 2.7 13.6 12.1 13.1 13.4-.2.7-2.5 1.3-5 1.5-2.6.2-4.7.5-4.7.8s2 3.6 4.4 7.3c7.2 11.2 7.1 10.9 2.8 10.5l-3.8-.3 1.3 7.2c.7 4 1.3 10.8 1.4 15.2.1 9.6 2.5 21.1 5 24.4 1.1 1.3 1.9 3 1.9 3.9 0 1.5 5.8 12.2 6.6 12.2.2 0 .4-70 .4-155.5V0H256z"/></svg>