<svg xmlns="http://www.w3.org/2000/svg" width="682.667" height="512" version="1.0" viewBox="0 0 512 384"><path d="M0 103c0 97.4.1 103 1.8 103 3.1 0 14.1-3.8 18.5-6.3 2.3-1.4 6.3-4.8 8.9-7.6s5.2-5.1 5.8-5.1 2.7-1.1 4.8-2.5c3.6-2.4 4.5-2.5 16.4-2.4 11.5.2 12.9 0 16.9-2.2 2.7-1.5 5.1-3.8 6.1-5.9 1.9-3.6 2.5-13.5.9-14.4-.4-.3-1.1-1.8-1.4-3.4-.6-2.9-5-8.9-11-15-3.3-3.4-11.5-8.2-14-8.2-.8 0-3.2-1.4-5.3-3.1-2.5-1.9-4.5-2.8-5.8-2.5-1.2.3-2.9-.2-4.1-1.3-1.1-1-4.6-2.6-7.7-3.6-3.2-1-5.8-2.2-5.8-2.7s-.5-.6-1-.3c-.6.3-1 .3-1 0 0-.9 10.2-5.5 12.2-5.5 1 0 5.7 1.1 10.5 2.6 4.9 1.4 14.5 3.4 21.6 4.5 11.3 1.7 13.7 2.4 21.5 6.6 9.2 4.9 19.3 11.3 22.8 14.5 1.2 1.1 3 1.8 4 1.7 1.1-.2 3 .4 4.4 1.3 1.4.8 3.9 2.2 5.5 3 1.7.7 3 2.1 3 3s1.3 2.6 2.7 3.8l2.8 2.1 2.5-2.5c3-3 3.1-4.5.4-13-1.9-6.2-2.3-6.8-6.5-8.8-3.3-1.7-4.4-2.8-4.4-4.5 0-1.4-.8-2.6-1.7-3-5.8-2-19-8.7-26.6-13.5-6.3-4-10.9-6.1-16-7.3-4-1-12.6-3.5-19.2-5.5-6.6-2.1-14.7-4.1-18-4.5-5.6-.6-6.4-1.1-11.2-6.1-2.9-2.9-5.3-6.2-5.3-7.3 0-2.2 4.7-15 6.2-16.8.6-.7.6-2.4 0-4.5-1-3.8-.5-6.1 1-5.2.7.4.8.2.4-.4s.5-3.4 1.9-6.3c1.5-2.8 2.4-5.3 2.1-5.6s0-1.5.6-2.6c.9-1.7.8-1.9-.6-1.4-1.3.5-1.5 0-1.3-2.3.2-1.7.7-3.3 1-3.7 1.2-1.2.7-2.3-.7-1.7-1.3.5-1.3-.1-.1-4 1.4-4.5 1.4-4.6-1.1-5.2l-2.5-.6 5.6-10.4L46 0H0zm256 89v192h100c81.8 0 100-.2 100-1.3 0-.7 2.7-10.7 6-22.3 3.3-11.5 6-21.3 6-21.9 0-.5-1.3.6-3 2.5l-2.9 3.5-.1-3.7c0-2 .7-6.9 1.5-10.9.9-4 1.3-7.4 1-7.7-.2-.3-2 1.1-3.9 3.2l-3.5 3.6.4-2.7c.2-1.6.7-3.7 1.1-4.7.7-1.7.4-1.8-2.7-1.2-1.9.5-4.8 1-6.5 1.2-1.8.2-6.6 2-10.9 4-13.8 6.4-22.7 6.9-27.8 1.6-2.5-2.7-11.7-20.1-11.7-22.3 0-3.3 3.9-6.8 33.4-29.3 2.8-2.1 5.9-5.3 7-7 1.7-3.1 2.1-3.3 7.7-3.3 5.7-.1 8.4 1.1 5.9 2.7-.8.5-.7.9.4 1.3.9.4 1.6 1.8 1.6 3.2 0 3.6 1.1 3.1 5.7-2.3 6.4-7.6 9.5-15.1 7.2-17.8-.6-.8-1.5-1.2-1.9-.9s-2.2-1.7-3.9-4.3c-2.6-4.2-3-5.6-3-11.6l.1-6.7 5.1-3.3c5.7-3.6 9.4-5.1 14.7-6.2 4.8-.9 7.7-3 8.9-6.5.8-2.4 1.6-2.9 4.1-2.9 2.6 0 4.5 1.4 10.6 7.3 9.1 8.9 9.8 11.7 2.9 11.7-5.2 0-5.2.1.5 7 1.9 2.3 4 5 4.7 5.9 1 1.3 1.2-22.8 1.3-120.2V0H256z"/><path d="M505.4 257.3c.4 5.6 1.1 10.6 1.5 11.2.5.5.9 3.9.9 7.5s1 9.2 2 12.5l2 6 .1-23.5.1-23.5-3.6-.2-3.7-.2z"/></svg>