<svg xmlns="http://www.w3.org/2000/svg" width="682.667" height="512" version="1.0" viewBox="0 0 512 384"><path d="M0 104c0 99 .1 104 1.8 104 4.1 0 15.9-6.8 20.3-11.8 2.4-2.7 5.5-5.3 6.9-5.7s3.6-1.5 5-2.5c2-1.3 5.7-1.9 17.4-2.4 16.8-.7 20.9-2.1 24.7-8.5 2.3-3.9 2.9-14.5 1-16.4-.6-.6-1.1-2.1-1.1-3.3 0-1.1-1.8-4.2-4-6.7s-4-4.9-4-5.4c0-2.4-14.2-12.3-17.6-12.3-1.1 0-3.6-1.4-5.4-3-3.2-2.9-4.8-3.5-7.9-3-.7.1-2.3-.8-3.5-1.9-1.1-1.1-3.4-2.3-5.1-2.6-3.9-.9-9.3-3.3-10-4.5-.3-.5 2-2.1 5.1-3.5l5.8-2.5 9.5 2.9c11.7 3.5 16.8 4.7 29.1 6.5 8.6 1.3 10.6 2.1 21.3 8 6.4 3.5 15 8.7 18.9 11.5 5.5 3.8 7.5 4.7 8.5 3.9s1.8-.7 3.1.4c.9.9 3.8 2.5 6.4 3.6 2.7 1.2 4.9 2.7 4.9 3.4.1.7.2 2 .3 2.8.2 2 6.1 3.6 8 2.1 2.6-2.2 2.6-6.7 0-13.3-3.2-7.9-3.9-8.7-9.1-11-3.3-1.4-4.3-2.4-4.3-4.2 0-2.9-1.2-3.9-7.5-6-4.8-1.5-12.7-5.8-25.8-13.8-3.1-2-9-4.4-13-5.4-3.9-.9-12.8-3.6-19.7-6-6.9-2.3-14.7-4.5-17.5-4.9-8.6-1.1-11.1-2.4-15.5-7.6-5.4-6.5-5.5-10.7 0-21.9 1.2-2.5 1.5-4.5.9-7-.6-2.7-.4-3.8.8-4.8.9-.6 1.4-1.2 1-1.2s-.1-1.2.6-2.8c.8-1.5 1.2-3.2 1-3.9-.2-.6.5-1.7 1.7-2.3s1.9-1.7 1.7-2.4c-.3-.8.4-2.9 1.5-4.7 2-3.2 2-3.3.1-1.7-1.1 1-2.2 1.8-2.5 1.8-.8 0 .4-6.4 1.6-7.9.9-1.2.8-1.3-.6-.8-2.2.8-2.3-.2-.1-3.3 1.6-2.2 1.6-2.3-.2-1.6-1.6.6-1.6.3.4-1.8 2.8-3 2.4-3.2-2.6-1.1-4.8 2-5.4 1.9-1.8-.6 2.5-1.8 2.7-2 .8-1.6-1.3.3-2.3.3-2.3.1 0-.3 1.6-3.6 3.5-7.4S36 .8 36 .5 27.9 0 18 0H0zm256 88v192h202.9l1.1-4.3c.7-2.3 3.1-11.3 5.6-19.9 2.4-8.6 4.4-16 4.4-16.3 0-.4-.9.3-2 1.6-3.9 4.7-4.1-.2-.6-15.9 1-4.3-1.4-4.3-4.8.1-2.3 2.9-2.6 3-2.6 1 0-1.9-.5-2.1-5.5-1.9-6.3.3-7.2-.1-4.7-2.1 1.6-1.4 1.6-1.4-.3-.8-1.1.4-3.1 1-4.5 1.3-2.3.5-2.4.4-1-1.3 1.2-1.4.4-1.2-3.6.8-7.2 3.6-16.7 6.7-20.9 6.7-7.7 0-12.6-4.8-20.4-19.9l-5.2-10.1 5.8-5.8c3.2-3.2 12.1-10.5 19.9-16.4 12-9.1 14.2-11.2 15.3-14.6 1.3-3.9 1.4-4 7.2-4.6 6.5-.8 8.6-.2 6.9 1.9-.8.9-.7 1.4.3 1.8 2 .8 2.8 6.7 1 6.7-1 0-1.2.7-.8 2 .3 1.1.3 2-.2 2-2.7.1-3.3 1.7-2 5.1.8 1.9 1.7 4.2 2 5.2.7 1.8.8 1.7 3.4-.3 8-6 18.3-20.5 19.6-27.5.7-3.6-.1-5.2-3.3-6.8-1.3-.7-3.7-3.4-5.3-6-2.7-4.4-2.9-5.3-2.3-11l.7-6.3 6.2-4.2c3.8-2.6 8.3-4.6 11.7-5.3 7.9-1.6 10.5-3.3 11.6-7.1.7-2.5 1.6-3.4 3.6-3.6 2.1-.3 4.1 1.1 9.7 6.4l7.1 6.6V0H256z"/><path d="M28 53.1c0 .5.5.7 1 .4.6-.3 1-.8 1-1.1 0-.2-.4-.4-1-.4-.5 0-1 .5-1 1.1m477.9 176.5c.6 1 2.2 3.2 3.6 4.9l2.5 3v-4.3c0-3.5-.3-4.2-1.9-4.2-1.1 0-2.7-.3-3.6-.7-1.5-.5-1.6-.3-.6 1.3m3.7 20.1c-.6 3 .8 18 1.8 19 .3.4.6-4.4.6-10.5 0-10.6-1.1-14.5-2.4-8.5"/></svg>