<svg xmlns="http://www.w3.org/2000/svg" width="682.667" height="512" version="1.0" viewBox="0 0 512 384"><path d="M256.7 97.2c-.4 53.5-1 139.9-1.4 192l-.6 94.8h239.1l2.1-7.7c1.1-4.2 1.9-7.8 1.8-7.9s-2.4 1.8-5.2 4.2c-4.7 4.3-5 4.4-5.7 2.4-.9-2.3-.4-8.2.7-10.1.5-.8.1-.8-1.5.1-2.7 1.5-3.5.8-2.1-1.8 1.4-2.7 1.4-3.2-.4-3.2-.8 0-1.5-.7-1.5-1.6s-.5-1.2-1.2-.8c-.8.5-.9.2-.5-.9.3-.9.3-1.9-.2-2.1-2-1.3 6.1-24.4 9.4-26.8.6-.4.7-.8.3-.8s-.3-1.1.2-2.5c1.8-4.7-3-.5-5.7 5-2.1 4.4-2.3 4.6-1.8 1.7.2-1.9.1-3.1-.4-2.7-1.8 1-1.8-3 0-6.5 3.7-7.1 4.9-11 3.5-11-1.7 0-3.9 2.6-8 8.9-6.4 10.2-29.3 23.9-45.6 27.3-7.7 1.6-14.8-.5-21.3-6.2-5-4.5-16.7-18.8-21.5-26.4-2.9-4.6-3-5-1.7-7.7 1.9-3.6 25.5-26.8 32.2-31.6 2.9-2.1 5.3-4.1 5.3-4.5 0-.3-1.3-2-3-3.6-2.6-2.6-3-3.8-3-8.2 0-5.2 1.3-9 3-9 .6 0 1 .9 1 2.1 0 1.9.1 2 2.9.3 2.8-1.6 2.9-1.6 5.9 1.1 1.7 1.5 2.9 3.1 2.7 3.5-.3.5.2 1 1 1.4.8.3 1.5 1.1 1.5 1.8s1.3 2 2.8 2.9c1.8 1 5.3 6 10 14.1 4 6.9 7.9 13.1 8.7 13.8 1.1.9 2.5.9 6.2-.4 2.5-.9 5.9-1.6 7.5-1.6 1.5 0 5.4-.9 8.6-2 3.3-1.1 9.2-2.6 13.3-3.3l7.4-1.2 1.4-6.8c1.4-6.6 1.3-6.8-.7-8.8-1.2-1.1-2.9-3.1-3.8-4.4-.9-1.4-2.2-2.5-2.9-2.5-1.9 0-8.1-9.1-9.6-13.8-1.5-5.2-.2-9.2 5.3-15.6 4.3-5 14.1-10.6 18.6-10.6h2.2V0H257.3zM0 84.8v15l11.3 3.9c6.1 2.2 19.1 5.7 28.7 7.8 10.9 2.3 18.8 4.5 21 5.9 1.9 1.2 9.1 4.9 16 8.3s16.8 9.1 22 12.6c9.2 6.4 9.5 6.5 12.1 5 2.3-1.4 2.8-1.4 5 0 3.6 2.3 15.6 5.7 20.1 5.7 3.9 0 3.9.1 3.3 2.9-.3 1.6-.2 3.2.4 3.5.6.4.8 1.3.5 2.1-.7 1.7 1.9 3 3.8 1.9.7-.5 2.2-.8 3.3-.9 1.8 0 2-.7 2-5.6 0-4.8-.6-6.3-4-11.4-6.5-9.5-10.5-13.2-15.7-14.5-5.5-1.4-6.5-2.4-7-6.5-.3-2.7-.9-3.2-8.8-6-12.2-4.4-16.4-6.5-29.8-14.3-9.3-5.4-15.3-8.1-27.8-12.2-8.7-2.8-21.1-7.4-27.4-10-6.3-2.7-14.4-5.4-18-6s-7.5-1.4-8.7-1.7L0 69.8zm134.6 57.7c1 .8 1.4 1.5.8 1.5-.5 0-1.9-.7-3-1.5-1-.8-1.4-1.5-.8-1.5.5 0 1.9.7 3 1.5M0 155.2V198l14.3-.6c20.9-.8 26.5-1.9 33.5-6.3 4.8-3.2 6.2-4.8 8.2-9.2 2.7-6.4 3-18.1.5-20.9-.8-.9-1.5-2.4-1.5-3.4 0-2.6-3.5-8.8-6.5-11.6-1.4-1.4-3.3-3.9-4.2-5.7-.8-1.8-1.9-3.3-2.3-3.3s-2.9-2-5.4-4.3c-4.6-4.4-11-8.1-15.7-9.1-1.4-.3-4.3-2.1-6.5-4.1-3.6-3.3-5.5-4-9.8-3.6-1 0-2.5-.7-3.2-1.6-1.1-1.5-1.3 5-1.4 40.9"/></svg>