<svg xmlns="http://www.w3.org/2000/svg" width="682.667" height="512" version="1.0" viewBox="0 0 512 384"><path d="M274.6 14.2c-2.4 50.5-6.7 91.1-20.1 189.3-7 51.3-11.5 90.5-14 120-1.7 21.3-3.5 49.8-3.5 56.2v4.3h275v-13c0-7.2-.1-13-.3-13s-4.5 2.1-9.7 4.6c-16.6 8.1-30.4 12.4-40.2 12.4-5.7 0-15.3-2.7-22.3-6.2-7.1-3.6-21-13-28.1-19-2.8-2.4-9.4-7.8-14.7-12.2-5.3-4.3-9.8-8.5-10.1-9.2-1.2-3.2-1.3-3.2 24.4-19.9 5.9-3.9 14.6-10.8 19.8-15.9l9.3-9-4.8-1.2c-11.2-2.9-20.6-6.5-26.7-10.4-7.1-4.5-8.1-6-4-6 2.3 0 2.5-.3 2-2.5-.4-1.4-.4-3-.1-3.5.6-.9 1.3-.7 6.2 1.8 5.8 3 10.4 4 14 3 4.2-1.1 17.3-.3 21.7 1.4 2.3.9 3 .9 3.6-.3.5-.8 1.5-2.3 2.4-3.4 1.7-2.3.9-2.6 15.6 6.5 23.3 14.4 39.8 24 41.5 24 .3 0 .5-65.9.5-146.5V0H275.3zM0 59.6v22.9l25.8 12.7c18.5 9.2 28.9 15 37 20.8 6.3 4.4 12.2 8 13.2 8s3.5-1.5 5.4-3.4l3.6-3.4 5.8 2.3c11 4.4 36.3 5.9 38.6 2.3 1.7-2.7-1.6-5.4-7.4-6.1-2.7-.3-5.9-1.1-7.1-1.8-2-1-2-1.2-.6-2.1 2.1-1.1 17.1.8 21.1 2.8 1.6.8 3.6 1.4 4.4 1.4s4.4 2.9 7.8 6.5c4.5 4.7 7 6.5 8.8 6.5 2.1 0 2.6-.5 2.6-2.6 0-1.5.7-3.2 1.6-3.9 2.8-2 .7-5.1-6.6-9.9-3.8-2.5-7.6-5.6-8.4-6.8-2-2.8-9.4-7.5-20.3-12.8-7-3.5-9.4-4.1-17.2-4.7-9-.6-9.1-.6-9.1-3.3 0-4.6-2.1-6-14.5-9.6C71.3 71.5 56.2 64.6 33.4 52c-8.2-4.5-18.3-9.5-22.4-11-4.1-1.6-8.3-3.1-9.2-3.5-1.7-.7-1.8.8-1.8 22.1"/><path d="M428.8 271.7c.7.3 1.6.2 1.9-.1.4-.3-.2-.6-1.3-.5-1.1 0-1.4.3-.6.6"/></svg>