<svg xmlns="http://www.w3.org/2000/svg" width="682.667" height="512" version="1.0" viewBox="0 0 512 384"><path d="M281.6 2.2c-.3 1.3-.6 4.8-.6 7.8 0 6.8-2.5 35.9-4.5 54-3 26-8.5 61.9-15.1 98-18.7 103.7-21.8 122.9-25.8 159-1.4 12.4-3 29.5-3.6 38s-1.2 17.6-1.4 20.2l-.3 4.8H512v-8.1c0-6.1-.3-8-1.2-7.6-31.6 13.9-49.3 13-76.8-4-9.1-5.7-26.4-18.1-38.3-27.6-8.3-6.6-8.7-7-7.1-8.8.9-1 8.2-5 16.3-9 8-4 18-9.5 22.1-12.3 7.5-5 21-17.3 21-19.1 0-.6-1.9-.9-4.2-.7-7.4.6-29.9-8.6-38-15.6-2-1.7-1.5-3.2 1.2-3.2 1.6 0 1.8-.5 1.3-3.5-.3-1.9-.3-3.5.1-3.5 1 0 8.4 4.8 9.1 6 .3.5 1.7.7 3 .4 1.9-.5 2.7 0 3.9 2.5 2.2 4.1 10.8 6.6 14.6 4.1 1.1-.7.7-1-1.8-1-1.8 0-4.2-.5-5.3-1-2.7-1.5-2.4-4.8.5-5.6 3.2-.8 22.6 0 24.8 1 1.3.6 1.9.2 2.4-1.8 1.3-5.2 2.4-5.1 16.4.8 7.2 3.1 13.3 5.6 13.6 5.6.2 0 4.3 1.8 9.1 3.9 4.9 2.1 9.8 4.2 11.1 4.6l2.2.6V0H282.2zM0 55.2l.1 26.3 16.6 8c15 7.2 31 16.9 43.2 26.2 5.7 4.3 8.2 4.2 13.5-.7l4.3-4 7 2.5c5.6 1.9 9.7 2.5 21.9 3 17.8.7 20.8.1 21.2-4.3.3-2.8 0-3.2-3.5-4.1-2.1-.6-5.2-1.1-7-1.1-1.7 0-4.4-.5-6-1.1-2.6-1-2.7-1.1-.9-2.1 2.7-1.5 21.3-.2 24.3 1.7 1.2.8 3.3 1.5 4.6 1.5 1.5 0 4.7 2.3 9.4 7 7.4 7.3 11.3 9 11.3 4.8 0-1.2 1-3.2 2.2-4.5l2.2-2.3-2-2.8c-1.1-1.5-4.3-4.1-7-5.9-2.7-1.7-7.1-5.1-9.7-7.4-5.9-5.2-9.2-7.3-21.7-13.5-9.4-4.7-9.6-4.8-19.9-4.8l-10.4-.1-1.4-4c-.7-2.2-1.7-4.3-2.2-4.8-.4-.4-5-1.9-10.2-3.2C63 61 51.2 55.7 20.5 39c-8.9-4.8-17.1-9-18.3-9.4L0 28.9z"/></svg>