<svg xmlns="http://www.w3.org/2000/svg" width="682.667" height="512" version="1.0" viewBox="0 0 512 384"><path d="M289 3.8c0 7.4-3.1 36.9-6 57.2-5.1 35.6-9.9 59.5-23.1 115-14.5 60.6-16.9 71.2-21.9 96-7.1 34.8-15 92.2-15 108.7v3.3h235.5l-9.5-4.8c-5.2-2.7-14.4-8.1-20.5-12.1-15.4-10.2-43.5-31.3-43.5-32.7 0-1.8 3.9-3.9 16.6-8.9 6.5-2.6 16.6-7.1 22.4-10.1 10.7-5.4 25.3-16.2 28.9-21.3l2-2.8-5.7.1c-8.6.2-24-5.4-34.3-12.3-9-6.1-10.6-8.1-6.4-8.1 2.4 0 2.6-.3 2-3-.4-1.6-.4-3.4 0-4 .7-1.2 5.9 1.2 9.3 4.3 2 1.8 2.4 1.9 3.3.7 1-1.5 2.6-.1 7 6.1 1.4 2 2.7 2.4 8.9 2.7 5.2.3 7.1.1 6.6-.7-.4-.6-1.8-.8-3.2-.5-2.8.7-7.4-1.8-7.4-4.1 0-2.8 4.3-3.9 15.5-3.9 6.1-.1 12.2.3 13.7.7 2.4.8 2.8.5 4.4-2.5.9-1.8 2.1-3.6 2.6-3.9s9.8 3.1 20.6 7.7 19.8 8.4 19.9 8.4c.2 0 .3-62.8.3-139.5V0H289zM0 51.3v29.5L11.7 87c11.6 6.2 22.3 13 35.8 22.9 9 6.6 10.8 6.6 17.5.1l5.2-5.1 7.7 2.6c6.8 2.2 9.2 2.5 23.2 2.5 11 0 17-.4 20.7-1.5 6.2-1.9 8-4.3 5.4-7.4-1.3-1.7-3.3-2.2-9.2-2.7-9.4-.7-12-1.2-12-2.3 0-3.9 24.3-3 28.6 1 1.7 1.6 3 2 4.9 1.5 2.2-.6 3.4.1 7.5 4.1 6.8 6.8 9.1 8.6 12.3 10 3.8 1.7 5 .8 4.5-3.3-.3-2.5 0-3.4 1.4-3.7 4.9-1.3-1.5-10.3-10.7-14.9-2.2-1.1-6-4-8.5-6.4s-6.3-5-8.5-6c-2.2-.9-4.7-2.2-5.5-3-.9-.7-6-3.2-11.5-5.5l-10-4.1-11.8.4-11.8.3-.9-3.6c-.6-2-1.6-4.2-2.4-4.8-.7-.6-7-2.7-14-4.6-6.9-1.9-16.1-4.9-20.4-6.6-7.8-3.3-33-15.9-43.4-21.8L0 21.8z"/></svg>