<svg xmlns="http://www.w3.org/2000/svg" width="682.667" height="512" version="1.0" viewBox="0 0 512 384"><path d="M308 4.7c0 5.9-4.1 34.1-7 48.3-7.9 38.6-18.5 71.5-44.3 137.5-25.2 64.6-32.8 87.1-41.6 123.5-5.9 24.1-12.7 67.7-10.9 69.5.2.3 48.3.4 106.7.3l106.2-.3-11.6-8c-22.7-15.6-32-22.5-32-23.7 0-2.1 7.4-5.4 26.5-11.8 27.5-9.3 42.6-17 58.2-29.8 9.4-7.7 9.5-8.6 1-7.8-6.1.6-8.1.3-20.2-3.4-14-4.2-21.2-8.1-31.1-16.9-4.4-3.9-4.6-6.7-.5-5.9 2.1.4 2.2.2 1.8-4.9-.4-5 .6-7 2.3-4.3.3.6 1.6 1 2.8 1 1.3 0 3.8 1.3 5.7 2.9 3 2.5 3.7 2.7 5 1.6s1.9-1 4 .9c1.4 1.2 3 3.7 3.6 5.6.7 2.6 1.9 4 4.6 5.3 4.4 2.1 16.3 3 17.8 1.2.7-.8-.6-1-4.9-.7-5.5.4-6 .2-7.6-2.2-1.7-2.5-1.7-2.8 0-4.5 2-2.3 7.5-3.6 21.6-5.2 8-.9 11.5-.9 13.9 0 5.2 1.7 5.6 1.5 8-4.9 1.2-3.3 2.4-6 2.6-6s5.5 2.2 11.8 4.9l11.6 4.9V0H308zM0 48.4C0 79 .3 87.9 1.2 88.3c.7.3 8.3 5.5 16.8 11.6C29.4 108 34.3 111 36.5 111c2.4 0 4.5-1.5 10.7-7.9l7.8-7.9 5.2 1.4c9.7 2.7 20.2 2.8 36.8.5 24.1-3.3 34-7 34-12.7 0-1.3-.9-3.3-2.1-4.5-1.7-1.7-2.9-2-6.7-1.5-19.2 2.3-23.5 1.8-17.5-2.1 2.1-1.4 5.4-1.8 16.5-2.1l13.8-.4.6 2.8c.7 3.5 2.2 5.7 5.1 7.2 3.3 1.8 4.9 1.4 6.2-1.4 1.1-2.6 1.2-2.6 3.1-.9 1.1 1 2 2.2 2 2.7 0 2.5 5.3 7.6 9.2 8.8 2.4.7 4.8 1.8 5.3 2.5 1.5 1.6 9.1 3.9 10.5 3 .7-.5 1-2.3.7-4.9-.3-3.1.1-4.6 1.5-6.3 1.9-2 1.9-2.3.3-5.7-1.9-3.9-8.8-9.5-18-14.6-3.2-1.8-8.2-5-11.1-7.1-2.8-2.2-7.7-4.8-10.9-5.9s-6.3-2.4-6.9-2.8c-.6-.5-6.3-2.9-12.6-5.3-10.6-4-12.2-4.3-20-4.2-4.7.1-11.8.9-15.8 1.7-4 .9-7.7 1.6-8.1 1.6s-1.3-1.7-1.9-3.8c-1.7-5.4-3.5-6.7-13.2-9.2-20.1-5.1-38.6-11.8-54.2-19.6L0 9z"/></svg>