<svg xmlns="http://www.w3.org/2000/svg" width="682.667" height="512" version="1.0" viewBox="0 0 512 384"><path d="M0 61v61h2.4c4.4 0 13.9-8.7 24.1-22l5.7-7.5h45.3l6.5-2.8c3.6-1.6 15.3-5.9 26.1-9.6 28.7-9.9 39.9-16.8 39.9-24.6 0-2.9-.7-4.4-3.2-6.7l-3.3-3.1 7.5.7c10 1 10.9 2 12.6 13.5.7 5.1 1.7 9.8 2.1 10.5C167.1 72.8 176 79 178 79c2.5 0 4.9-3.5 5.7-8.3.3-2 .9-3.9 1.3-4.2.4-.2 2.4 2.9 4.4 7.1 2.1 4.1 4.5 7.8 5.4 8.1 1 .3 3.8 2.1 6.5 4 2.6 1.8 5.1 3.3 5.5 3.3.5 0 1.9-1.1 3.1-2.4 2.6-2.7 3.6-2.6 9.4 1.2 3.2 2.1 4.1 2.3 6.2 1.4 2.2-1 2.5-1.8 2.5-6 0-2.7-.7-7.2-1.5-10-1.2-4-1.3-5.7-.4-7.3 2.2-4.1.2-8.6-7.4-16.6-6.8-7.2-9.6-9.1-31.4-22-3.8-2.2-11.2-4.7-41.3-13.8-26.2-7.9-25.5-7.8-37-7.2-9.8.5-21.7 3-38.5 8.1-2.7.9-5.3 1.6-5.6 1.6-.4 0-1-2-1.3-4.4-.4-2.5-1.7-5.9-2.9-7.8L58.4.5 29.2.2 0 0zm128-12.4c-10 3.2-19 5.4-19 4.5 0-1.6 6.1-4.1 12.5-5.1 3.8-.6 7.1-1.3 7.4-1.6.2-.2 1.8-.4 3.5-.3 2.4 0 1.3.6-4.4 2.5M349 .5c0 2.1-3.4 22.5-5 29.6-11.3 51.7-32.7 91.5-85.5 158.9-51.5 65.7-71.3 99.3-85 144.5-3.5 11.8-8.8 36.3-9.8 45.7l-.5 4.8h204.5l15.9-6.4c23.2-9.3 36-15.7 48.6-24.2 6.2-4.2 11.5-7.9 11.8-8.3.3-.3 3.7-3.1 7.5-6.2 9.6-7.7 18.5-15.9 18.5-17.1 0-.6-1-.8-2.2-.4-6.6 1.8-21.6 2.7-27.8 1.6-3.6-.6-11.7-1.9-18-2.9-6.4-1-13-2.6-14.8-3.5-11.4-5.9-37-27.8-36-30.7.3-.8 1.7-1.5 3.2-1.7l2.8-.4-.7-6.3c-.3-3.6-.4-7.4 0-8.5.7-2.2 4.4-2.7 6.3-.8.9.9 1.5.9 2.4 0 1.8-1.8 3.2-1.5 8.9 2.3 4.7 3.1 5.5 3.3 6.9 2 2.3-2.1 5.4-1.9 7.5.5 1 1.1 2.6 2.2 3.5 2.5 2.2.7 2.9 2.3 4 9.4 1.2 6.7 4.1 9.8 11.2 11.7 2.9.7 5.4 1.4 5.5 1.4s-.3-1.4-.9-3c-2.2-6.4 3.8-10.3 26.4-16.9 7.3-2.2 15.3-4.7 17.8-5.6 3.5-1.3 6.3-1.6 12.5-1.1 4.4.3 9.2.8 10.6 1.2 2.6.6 2.8.2 5.7-7.3 1.6-4.3 3.5-9.6 4.2-11.8s1.6-4.4 2.1-4.9c.5-.6.9-55 .9-124.8V0h-81.5c-44.8 0-81.5.2-81.5.5"/></svg>