<svg xmlns="http://www.w3.org/2000/svg" width="682.667" height="512" version="1.0" viewBox="0 0 512 384"><path d="M0 65.2c0 35.9.4 64.8.8 64.3.5-.6 3.3-4.6 6.3-9 2.9-4.4 5.4-8.2 5.6-8.4.1-.2 3.7-1.2 7.9-2.2 9.4-2.2 28.2-4.6 46.9-5.9 22.4-1.5 36-6.6 46.3-17.2 5.2-5.3 8.1-7 30.7-18.2 32.6-16.1 43.8-23.5 48.1-31.9.8-1.5 1.9-2.7 2.4-2.7.7 0 21.3 4.1 33 6.6 1.7.4 4.2 3.1 8.1 8.8l5.6 8.2-.5 15.1c-.6 18.1.1 24.3 2.7 24.3 1.1 0 2.1.9 2.4 2.1.4 1.3 1.1 2 2 1.6.9-.3 2 .7 3 2.8 2.1 4.3 6.6 6.9 10 5.6 2.7-1.1 7.9-6.9 10.1-11.5l1.5-3.1 1.1 3c.6 1.7 1 3 .9 3s.3 1 1 2.2c.6 1.3 2 2.3 3 2.3 1.1 0 2.1.7 2.5 1.5.3.8 1.1 1.5 1.7 1.5.7 0 2.7 1.8 4.6 4 2.6 3 4.2 4 6.4 4 4.7 0 6.9-1.7 9.5-7.6 1.3-3 2.6-5.4 3-5.4.3 0 1.7.9 3.1 2 3.2 2.5 7.5 2.6 9.6.2 5.5-6 5.3-20.2-.5-44.2-2.7-11.1-3.7-12.9-12.2-22.1-3.9-4.2-8.6-9.4-10.3-11.7-1.8-2.2-5.7-6-8.8-8.4-3-2.4-9-7.6-13.5-11.6L266 0H0z"/><path d="M399.7 9.1c-.4 5-1.8 14.7-3.2 21.5-8.4 41.3-28.3 77.4-58.6 105.8-18.4 17.3-36.9 30-79.4 54.3-15.4 8.9-31.8 18.4-36.5 21.3-25.7 15.8-46.1 32.4-61.4 50.2-19.5 22.5-32.2 45.7-40.6 74.1-3.4 11.3-8 36.3-8 43.3v4.4h287.3l6.1-5.4c10.3-9.2 17.5-16.3 17-16.9-.3-.2-2.5.1-4.9.9-11.3 3.3-19 3.6-40 1.4-39-4.1-46.9-5.7-55.2-11.3-2.6-1.8-6.9-4.5-9.6-6-12.3-7.2-46.2-44.5-48.3-53-.5-2.3-.3-2.9 1.5-3.4 2.1-.5 2.2-.9 1.5-9.2-.3-4.7-.7-8.8-.7-9.1-.1-.3.2-3.4.7-6.9.5-4.7 1.3-6.9 3.1-8.7 2.5-2.5 5.9-3.2 7-1.4.3.6 2.1-.6 3.9-2.5 2.1-2.2 4.3-3.5 5.9-3.5 3.2 0 8 4 9.7 8 1.2 2.9 3 4.1 3 2 0-1.7 2.7-1.1 3.4.7.6 1.4 1 1.2 2.5-1.3 2.6-4.3 7.9-8.4 10.7-8.4 3 0 7.1 3.9 8.6 8 .8 2.5 1.3 2.9 2.5 1.8 1.2-.9 1.6-.9 2.4.3.5.8.9 2 .9 2.6 0 1.9 1.7 1.6 2.4-.4.5-1.3.9-1.4 1.9-.4.7.7 1.3 6.1 1.5 15.3.3 10.7.8 14.5 1.9 15.6.8.8 3.3 4.4 5.5 7.9 2.4 3.8 4.8 6.5 6.1 6.8 1.2.2 6.2 1.1 11.2 1.9l8.9 1.5 4.2-4.3c4.7-5 20.2-14 32.4-19 20.4-8.2 26.8-11.4 30.9-15.4 11.2-10.8 28.9-14.4 59.3-11.9l9.7.8 2.5-4.4 2.6-4.4V0H400.3z"/></svg>