<svg xmlns="http://www.w3.org/2000/svg" width="682.667" height="512" version="1.0" viewBox="0 0 512 384"><path d="M0 66.7v66.8l4.4-6.6 4.4-6.6 16.9-4.1c13.4-3.3 21.2-4.6 38-6.1 22.5-2.1 30.1-3.6 40-7.4 11.1-4.5 21.9-13.1 27-21.7 1.1-1.9 6.8-5.2 19.2-11.4 31.5-15.7 48.6-26 55.3-33.4l3.7-4.1 27.2 6.2 27.2 6.2 2.2 3.5c1.2 1.9 4.1 6.8 6.5 10.8l4.3 7.3-2.2 16.7c-1.2 9.2-2.1 18.2-2.1 20 0 5.3 2.1 12.2 3.7 12.2.7 0 1.6.7 1.9 1.5.4.8 1.2 1.5 2 1.5s1.4.4 1.4.9 1.2 2.3 2.6 4c2 2.4 3.4 3.1 6.2 3.1 4.1 0 7.1-2.1 12.6-8.8l3.5-4.2 1.7 4c1 2.2 2.3 4 3 4 .6 0 1.4.7 1.8 1.5.3.8 1 1.5 1.6 1.5.5 0 2.5 1.7 4.4 3.7 2.7 3 4.1 3.7 7.1 3.7 3.2 0 4.4-.7 7.6-4.3 2.1-2.4 4.4-5.8 5.1-7.7 1.2-3.3 3.1-4.4 4.3-2.4 1.2 1.9 5.4 1 8.3-2 4.4-4.4 5.6-10.7 4.9-26.9-.6-15.8-2.9-29.6-5.7-35.2-2-3.8-20.9-27.1-23.3-28.6-.7-.5-6.1-6.1-12.1-12.6L303.7 0H0z"/><path d="M416.6 9.5c-4.1 58.1-30.3 107.2-74.6 139.7-20.7 15.2-39.1 24.3-90.9 44.9-54 21.6-76 34.2-100.5 57.9-26.2 25.4-42.9 56.2-51.2 95-1.5 6.8-4.4 29.5-4.4 34.2v2.8l127.8-.1 127.7-.1-17.5-2.3c-34.2-4.5-41.5-6.3-51-13-3.5-2.5-7.1-4.5-8-4.5-1.9 0-12.5-6.2-15.9-9.3-4.4-4.2-24.6-28.3-34.3-41.2-7.8-10.3-9.7-18.4-9.8-40 0-17.7 2.5-25.5 8.8-28.2 2-.8 5.2-3.2 6.9-5.3 3.7-4.3 7.4-5.6 11.4-4 2.6 1.1 7.9 7.8 7.9 10 0 .5.5 1 1 1 .6 0 1-.5 1-1.1 0-.7.9-.9 2.1-.6 1.5.4 3.1-.6 6-3.8 5-5.4 9.7-7.2 14-5.5 3.2 1.4 6.9 5.8 6.9 8.4 0 1.9.5 2 3 .6 1.5-.8 2-.5 2.9 2 .9 2.8 3.1 4.2 3.1 2 0-2 2.9-1 3.6 1.2 1.1 3.5.7 22-.7 29.8-1.2 6.9-1.2 6.9 1.7 11 1.6 2.3 4.3 6.5 5.9 9.4 4.2 7.6 6.1 9.4 10.8 10.1 2.3.4 10.7 2 18.7 3.6s15.3 2.6 16.2 2.3c1-.3 2.3-1.4 2.9-2.5 2.4-4.7 25.2-17.2 53.4-29.4 11.7-5.1 13.6-6.3 19.3-12.1 9.5-9.7 17.4-13.9 31.9-16.9 7.8-1.6 36-2.1 49.3-1 7.5.7 7.6.7 8.8-1.9.9-2.1 1.2-32 1.2-127.6V0h-94.7zM393 383l-2.5.8 2.8.1c1.5.1 2.7-.4 2.7-.9 0-.6-.1-1-.2-.9-.2.1-1.4.5-2.8.9"/></svg>