<svg xmlns="http://www.w3.org/2000/svg" width="682.667" height="512" version="1.0" viewBox="0 0 512 384"><path d="M0 192v192h512V0H0zM238 87.1c0 .7 1 .9 2.6.5 4.6-1.2 6.5.1 6.2 4.2-.3 3.7-.3 3.7 3.8 3.8 3.6.2 4.6-.3 7.8-3.7 4.6-4.7 9.1-6.1 15.8-4.9 6.4 1.3 7.9 2.1 18.3 10.5 8.2 6.6 8.5 7 5.8 7.4-1.8.2-5-.9-9-3-7-3.8-7.9-3.5-8.8 2.6l-.7 4 6.1 2.3c6.3 2.4 15.6 9.9 13.4 10.8-2.3 1-1.3 3.4 2.2 5.5 1.9 1.2 3.2 2.5 2.9 3s.1.9.9.9c.7 0 2.3 1.3 3.5 2.9 2 2.8 1.3 3.5-1.7 1.6-.8-.5-.4.7.9 2.5 2.2 3 2.2 3.3.4 2.6-3.7-1.5-3.9-1.2-3.9 7.2 0 8 .1 8.3 2.5 8.8 1.4.3 7.7 1.9 14.1 3.6 10.3 2.6 11.6 3.2 11.2 4.9-.6 2.3-.2 2.4-9.7-.6-4.4-1.4-8.2-2.2-8.5-2-.5.6-.8.4 5 4.3 4 2.7 5.1 3 7.9 2.2 9.1-2.6 29.8-5.2 37-4.7 10.3.8 15.1 2.3 14.3 4.4-.5 1.2-.2 1.5 1 1 1.3-.5 1.7-.1 1.7 1.4 0 1.1 1.1 3 2.5 4.3s2.5 2.8 2.5 3.4c0 .8.8.9 2.6.2 2.3-.9 2.5-.8 1.9 1-.5 1.6-.3 1.9 1.1 1.3 1.1-.4 1.5-.2 1.1.4s.3 1.3 1.6 1.7 1.8.9 1.1 1.3c-1.8 1.3-2.4 4.1-1 4.6 1.5.6 1.3 6-.3 6.5-.5.2-.7 1-.4 1.9.5 1.2.1 1.4-1.8.8-2.1-.7-2.2-.6-1 .8 1.1 1.4 1.1 1.8-.2 2.3-.9.3-2.4.1-3.6-.5-2.4-1.3-4.4-1.4-3.7-.2.3.4-1.6 2-4.2 3.4-2.6 1.5-4.1 2.7-3.4 2.7.6 0 1.2.4 1.2 1 0 1.3-6.1.1-8.1-1.6-3-2.7-4.3-1.5-1.6 1.4 4.4 4.6 3.1 5-1.5.5-6.6-6.3-8.6-7-28.6-9.9-5.9-.9-13.2-2.6-16.2-3.8-4.5-1.8-7-2.1-13.3-1.8-6.8.4-7.7.6-7.1 2.1 3.8 8.6-1.9 16.6-6.4 9.1l-1.8-2.9-1.2 3.3c-.7 1.9-1.9 3.7-2.7 3.9-2.7 1.1-4-2.5-4.4-12.4-.1-2.4-.6-2.7-5.3-3.3-2.9-.4-9.1-.2-14 .5-7.8 1.1-9 1-11.4-.6-1.9-1.2-2.5-2.3-2.1-4.1.5-2.8-.5-3.7-4.8-4-16.2-1.4-48.8-3.4-49.2-3.1-.2.3 2.8 1.3 6.7 2.3 5.4 1.4 7 2.2 7 3.6 0 1 1.8 3.1 4 4.6 4.4 3 4.5 3.2 2.8 5.5-1.2 1.5-1.9 1.2-7.5-3.2-6-4.7-18-10.5-24.1-11.7-1.9-.4-3.2-.1-4.1 1-.7.8-1.9 1.2-2.7.9s-1.4 0-1.4.6c0 2.2-3.8-.8-4.2-3.1-.3-2-1.2-2.4-6.9-3.4-3.6-.6-7.3-1.3-8.2-1.7-2-.8-5-6.4-4.1-7.8.7-1.2.9-1.2 31.9 2.2 9.9 1 26.3 2.6 36.5 3.4l18.5 1.5 2.8-3.3c4-4.6 12-21.3 11-22.9-.4-.7-1.9-4.6-3.3-8.8-2.1-6.2-3-7.7-5.5-8.9-7-3.2-8-5.9-3.8-10.3 4.7-5 10.9-2.8 10.2 3.5-.2 1.2.3 3.3 1.1 4.7s1.9 3.3 2.5 4.4c1.5 2.8 2.6 2.2 4.8-2.9 1.7-3.8 1.8-5 .8-6.9-.9-1.6-1.9-2.2-3.4-1.9-1.6.3-2.7-.4-4.2-2.9-1.1-1.8-1.8-3.9-1.7-4.6.2-.6-.3-1.2-1-1.2-1.9 0-16.7-9.8-19.4-12.9-2.9-3.2-3.1-6.1-.5-6.8 1.7-.4 1.8-.8.8-2.3-.9-1.5-.7-2.3.7-3.9 2.1-2.3 4.6-2.8 4.6-1M37.5 255c.3.5.1 1-.4 1-.6 0-1.1-.5-1.1-1 0-.6.2-1 .4-1 .3 0 .8.4 1.1 1"/><path d="M289 139.5c1.5 1.8.6 1.9-2.2.4-1.9-1-2-.9-1.3 2.3.4 1.8 1.4 4.1 2.3 5 1.4 1.7 1.6 1.6 3.8-1.4 3.1-4.1 3-4.3-.7-6.2-2.6-1.3-2.9-1.3-1.9-.1m-26.9 14.6c-1.3 2.8-3.6 7.3-5.2 10-4 6.4-5.3 10.9-3.2 10.9 2.5 0 14-9 15.8-12.4 1.7-3.1 1.7-3.3-1.5-8.4-1.7-2.9-3.3-5.2-3.5-5.2-.1 0-1.2 2.3-2.4 5.1M302 163c0 1 8.1 5 9.8 5 .8 0-8.5-6-9.3-6-.3 0-.5.5-.5 1"/></svg>