<svg xmlns="http://www.w3.org/2000/svg" width="682.667" height="512" version="1.0" viewBox="0 0 512 384"><path d="M0 54.4v54.4l10.3 4c19.2 7.4 16.2 7 30.3 3.4 8.5-2.2 17.7-3.8 28.2-4.7 28.7-2.7 45.4-7.1 57.7-15.4 2.3-1.6 7.3-4.6 11.1-6.7 15-8.3 25.7-15.8 51.4-35.8 4.7-3.7 11-8.3 14-10.3 14.1-9.3 17.7-11.8 19.7-13.6l2.2-2 5.8 2.5c11.1 4.9 47.2 16 68.9 21.2l7.2 1.8 3.3 9.1c1.8 5.1 4.5 12.1 6.1 15.6 2.7 6 2.8 6.7 1.5 9.5-7.5 16.2-11.9 32-12.5 44.3l-.4 10.2 3 3.1c5.4 5.4 11.4 3.8 21.4-5.7l5.7-5.5.6 2.8c2 9.1 5.4 14.4 10.2 15.8 4.5 1.4 14-5.8 19.2-14.7 1.3-2.1 3.7-4.3 5.5-5.1 9.7-4 14-16.4 15.1-43.6.6-14.9-.6-24.4-3.9-30.8-3.4-6.7-29.6-42.9-39.8-55L339.1 0H0z"/><path d="M441 6.7c0 10-2.6 32.6-4.9 43.3-5.8 26.4-16.2 50.4-29.8 68.8-22.1 30-50.9 49.4-90.4 61.1-14 4.1-28.8 7.1-65.4 13.1-32.7 5.4-51.6 9.8-67 15.5-69 25.6-107.5 81.7-112 163.2l-.7 12.3h133.4l-5.3-4.3c-3-2.3-7.6-6.2-10.3-8.7s-7.4-6.8-10.4-9.5c-7.1-6.5-11-12.7-17.8-28.2-3.1-7-7.1-15.3-8.9-18.5-4-6.8-6.5-13.7-6.5-18.1 0-1.8-.7-5.7-1.5-8.7-2.3-8.6-1.9-18.5 1.1-27.6 4.2-13.1 13.2-30.1 18.9-35.9 5.3-5.4 11.7-8.2 15.8-6.9 2.7.8 8.7 6.3 8.7 8 0 2.8 2.3 2.4 6.2-1.1 7.7-7 16.1-9.2 22-5.8 9.3 5.5 9.2 23.6-.2 52.8-2.2 6.5-3.6 12.2-3.2 12.5.7.4 4.9 9.6 12 26.2 1.9 4.5 2.2 4.7 7.9 5.8 16.7 3.3 45.1 10.5 61.2 15.5l11.4 3.5 4.1-4.3c5.9-6.3 14.1-11.5 33.3-21.1 9.2-4.6 22.4-12.2 29.3-16.8 6.9-4.5 15.2-9.6 18.5-11.3 3.3-1.6 8.7-5.3 12-8.2 11-9.8 27.4-16.1 47.5-18.4 9.7-1.1 38.9-.7 49 .6 1.9.3 5.6.7 8.3.9l4.7.5V0h-71z"/></svg>