<svg xmlns="http://www.w3.org/2000/svg" width="682.667" height="512" version="1.0" viewBox="0 0 512 384"><path d="M0 47v47l27.2 13.6 27.3 13.6 5.5-.6c3-.4 14.1-1.1 24.5-1.6 27.4-1.4 39.4-3.7 53-10 3.3-1.6 9.8-4.5 14.5-6.5 4.7-2.1 10.5-4.9 13-6.3 12.7-7.2 22.7-13.5 34.5-21.7C215.1 63.7 220.7 60 221.6 60c1.3 0 19-9.3 21.9-11.4l3-2.3 7 3.9c18 10.2 42 21.8 61.7 29.6l9.2 3.7 3 14.6 2.9 14.6-4 5.4c-2.2 3-6.4 9.4-9.3 14.3-12.4 20.7-15.1 32.6-8.9 38.8 2.8 2.8 3.4 3 7.7 2.4 2.6-.3 6-.9 7.6-1.3 2.7-.6 2.9-.4 2.3 2.3-.3 1.6.1 4.4.9 6.3.8 1.8 1.4 3.4 1.4 3.6 0 .3-10.1 2.4-17.3 3.5-12 1.9-26.5 2.9-54.7 4-15.1.6-32.2 1.5-38 2.1-10.6 1-28.9 3.7-30.2 4.5-.4.3.3 2.6 1.5 5.2s2.2 4.8 2.2 4.9c.1.1 4.4-.5 9.6-1.4 10.7-1.9 14-1.4 18 2.6 7.6 7.7 3.2 23.6-13.8 48.9l-7.6 11.3 2.7 12.7c1.5 7 3 14.2 3.4 16.1.6 3 1.3 3.6 5.2 4.9 6.5 2.1 30.8 11.1 35.5 13.2 2.2 1 7 3 10.6 4.4s9.7 4.1 13.5 6l6.9 3.3 6-5.6c7.2-6.7 13.8-10.3 39-21 10.4-4.5 22.2-10.2 26.1-12.6 3.9-2.5 11-6.4 15.6-8.8 4.7-2.3 11.1-6.6 14.3-9.4 7.2-6.4 17.3-11.4 30.1-14.9 9.4-2.6 11.1-2.7 32.4-2.7 24.4 0 30.1.7 40.9 5.3 3.6 1.5 11.3 4.8 17.1 7.3 5.8 2.4 11.6 4.7 12.8 5.1l2.2.7V0h-66.5l.3 13.7c1.3 51.9-14.7 98.1-44.7 129.5-8.9 9.3-16 15.3-23.2 19.6l-3.5 2.1 6.7-13.4c4.1-8.2 7-15.4 7.4-18.2.4-2.7 1.4-7.3 2.3-10.3 2.4-8.3 2.2-22.4-.4-28-5.6-12.2-9.3-21.6-12.5-31.5-2.6-8.3-4.4-12-7.5-15.8-1.2-1.5-3.7-5.7-5.5-9.5-4.7-9.5-14.8-19.4-25.9-25.1-4.7-2.4-10.7-6.4-13.4-8.8L320.8 0H0z"/><path d="M144.2 215c-7.9 3.2-26.9 18.6-36.4 29.4-23 26.5-37.1 61.5-40.8 101.7-1.2 12.2-1.1 36.1.1 37.3.3.3 30.5.5 67 .4l66.4-.3-9.5-4.9c-5.2-2.6-11.6-6.2-14.1-8-7.1-4.7-27.6-24.5-30.8-29.6-6.5-10.2-12.4-31.1-18.5-65-3-17-2.4-24.9 2.8-35 4.1-7.8 11.3-18.8 15.2-23.1 3.6-3.8 3.2-4.7-1.4-2.9"/></svg>