<svg xmlns="http://www.w3.org/2000/svg" width="682.667" height="512" version="1.0" viewBox="0 0 512 384"><path d="M0 39v39l2.2 1.3c1.3.8 16.7 10.4 34.3 21.3l31.9 19.9 12.6.8c47.4 2.8 57.6 1.9 77.5-7.3 4.4-2 9.6-4.3 11.5-4.9 7.3-2.7 20.9-8.8 30.8-13.9 7.6-3.8 14-6.2 23.9-8.7 18.4-4.7 31.5-8.9 39.8-13l6.9-3.3 6.1 4.8c7.3 5.9 30.5 22.9 39.9 29.4 5.1 3.4 7.4 5.8 8.8 8.8 2 4.4 2.3 8.3.8 9.3-1.7 1.1-7.1 19.9-7.7 27-.6 6.9-.7 7.1-6.7 13.7-8.7 9.6-13.6 18.1-13.6 23.5 0 2.5.5 5.3 1.1 6.5 1.1 2 .9 2-9.8 1.4-5.9-.4-15.5-1.1-21.3-1.7-25.5-2.3-48.9-3.9-58.5-3.9h-10.3l-.6 3.1c-.3 1.7-.6 3.5-.6 4s4.1.9 9 .9c10.9 0 15.8 2 18.4 7.4 2.3 4.8 2 7.2-1.4 14.4-2.3 4.9-5.4 8.7-13.7 16.8-6 5.8-13.8 12.6-17.5 15.1l-6.8 4.5v29.3l6.3 3.3c8.5 4.4 44.4 25.8 48.6 28.9l3.4 2.6 1.9-2.7c2.8-3.8 9.5-8.1 18.6-12 9.6-4.1 32.1-11.5 45.7-15.1 5.5-1.4 15.2-4.2 21.6-6.2 10-3 12.3-4.1 16.5-8 17.1-15.8 42-21.1 78.9-16.8 15.2 1.8 18.9 3 31.4 9.6 7.6 4.1 49.6 21.9 51.6 21.9.3 0 .5-65.3.5-145V0h-62.3l.7 6.2c4 38.5-1.2 74.2-15.3 105.8-8.2 18.5-22.4 38-36.3 49.8-5.9 5-11.6 8.8-12.3 8-.2-.2.5-3.5 1.6-7.3 1.5-5.7 1.9-12.6 2.5-36.5.6-28.9.6-29.6-1.6-35-1.2-3-3.9-8.1-6.1-11.4-2.1-3.2-3.9-6.2-3.9-6.8 0-2-4.5-9.6-8.5-14.3-2.3-2.8-7.3-7.5-11-10.5s-9.3-7.8-12.5-10.7c-3.2-2.8-10.4-8.2-16.1-12-5.7-3.9-14-9.6-18.4-12.7-4.4-3.2-11-7.3-14.7-9.2L291 0H0zm116.9 180.7C92.5 240 75.6 267.7 67 302c-5 20-5.5 24.8-5.5 51.5 0 13.7.3 26.2.8 27.7l.7 2.8h133.5l-2.5-2c-1.4-1.1-11.3-8.6-22-16.7-29.5-22.2-46.8-40.7-51.4-55-2.6-8.3-3.9-29.5-3.2-52.9.7-23.2 1.8-32 4.5-37.7 2.4-4.8.8-4.8-5 0"/></svg>