<svg xmlns="http://www.w3.org/2000/svg" width="682.667" height="512" version="1.0" viewBox="0 0 512 384"><path d="m0 26.7.1 26.8 15.2 11.7c8.4 6.4 24.6 18.9 36.2 27.9 25.8 20 32.7 24.9 35.2 24.9 1 0 9.1 1.6 17.8 3.6 25.8 5.9 51.9 5.8 65.2-.2 1.7-.8 3.4-1.4 3.7-1.4s2.4-1.3 4.6-2.9c4.9-3.5 12.8-4.6 45.7-6.1 28.7-1.4 52.6-4.8 62.4-8.9 5.8-2.5 7.6-2.8 8.5-1.8.6.6 5.4 5.9 10.6 11.7s10.8 12.1 12.6 14c2.8 3 3.2 4.1 3.3 9.5 0 3.3.2 6.9.4 7.9 1.3 6.9.9 9.7-1.6 11.4-6.5 4.4-17.7 17.5-20.4 23.8-.7 1.7-1.6 4.9-1.9 7-.5 2.6-2.1 5.4-4.8 8.3-4.9 5.2-2.7 5.3-35.7-1.9-12.7-2.7-27.8-5.8-33.7-6.7l-10.6-1.7-2.8 3.4c-1.6 1.9-2.6 3.8-2.2 4.1s4 1.1 8.1 1.8c4.1.6 9 1.9 10.8 2.8 4.8 2.2 9.3 7.8 9.3 11.3 0 5.3-3.9 11.9-9.4 16-8.5 6.3-26.1 14.3-37.4 17-6 1.4-6.8 2.5-9.6 13.1-1.6 6.1-1.6 7-.2 12 1.5 5.1 2.4 6 12.9 14.7 6.2 5.1 14.2 12.1 17.7 15.7l6.5 6.4 3.5-3.7c2-2 5.9-5 8.8-6.5 8.9-4.8 33.8-10.4 64-14.2 33.2-4.3 36.4-4.9 42.5-8.6 14.8-9 39.9-11.7 65.2-7 18.6 3.4 26.6 6.1 36.5 12.1 3.6 2.2 8.3 4.8 10.5 5.9 3.3 1.7 54.7 23.3 62.3 26.2l2.2.9V0h-58.6l1.3 8.7c2 14.2 2.7 40.4 1.4 53.8-4 40.4-19 75.8-42.5 100.2-12.3 12.9-27.6 23.9-27.6 19.8 0-.7.4-1.6.9-1.9s1.1-1.6 1.4-2.8c.2-1.3 1.6-5.5 3.1-9.3 6.5-17.5 8.5-31.4 5.8-41-.7-2.2-1.2-6.5-1.2-9.6 0-9.3-4.4-17.6-21.4-40.4-21.2-28.4-37.2-46.3-49.7-55.6-3.7-2.7-11.8-7.2-18-10-6.3-2.8-14.8-6.6-18.9-8.5L280.4 0H0zm114 181.4c-13.5 8.3-31.4 30.6-41.1 51.4-5.4 11.6-11.3 29.8-13.9 43.1-4.3 22.5-4.5 54.8-.4 78.1l.6 3.3h121.1l-5.9-5.4c-12.3-11.1-28.4-29-35.7-39.6-1.7-2.5-6.7-9-11.1-14.5-11.1-14-18.1-25.2-21.3-34.2-4.3-11.9-3.8-28.1 1.4-48.3 3.2-12.4 7.1-26.8 8.6-31.3.9-2.6 1.5-4.7 1.4-4.7s-1.8 1-3.7 2.1"/></svg>