<svg xmlns="http://www.w3.org/2000/svg" width="682.667" height="512" version="1.0" viewBox="0 0 512 384"><path d="M21.6 1.2c.7 1.1 13.1 16 54.3 65.2 24.8 29.6 28.5 33.5 36.8 38.8 21.2 13.7 39.2 21.7 53.6 23.9 11.7 1.8 23.8 5.9 62 20.8 30.1 11.7 28.9 11.3 50.2 15.2 17.6 3.2 27.7 3.5 32.6.9 3.4-1.9 4.1.2 1.1 3.5-5.6 6.2-12.4 15-15.5 20.1-2.2 3.7-3.7 5.2-4.7 4.8-5.4-2.2-17.3-3.6-25.8-3-7 .4-10.1.2-12.1-.8-2.3-1.2-2.9-1.2-4.6 0-3.2 2.3-17.2 6.4-22.1 6.4-2.4 0-4.4.4-4.4.9 0 .6 2.8 3 6.3 5.5 7.8 5.6 15.8 13.9 18.6 19.4 1.3 2.6 2.1 6 2.1 9.3 0 4.4-.4 5.5-3.3 8.4-3.3 3.3-8.6 5.4-14.2 5.6-1.6.1 1.1.7 6 1.5 5 .7 19.4 3.5 32 6.3 26.9 5.8 48.8 9.7 59.8 10.6 9.4.7 20.5 3.4 31.2 7.5 9.2 3.6 31.3 15 36.1 18.7 3.3 2.5 22.7 11.7 54.1 25.8 14 6.3 31.8 16.5 58.1 33.3l2.2 1.4V0h-26c-20.1 0-26 .3-26 1.2 0 .7.9 5.6 2 10.8 8.6 42 5.7 87.1-8 121.6-7.8 19.5-17.5 34.9-30.9 48.7-12.1 12.5-22.4 20.2-31.7 23.7l-2.6 1 1.9-2.9c1-1.6 3.4-5.3 5.3-8.2 8.8-13.2 10.2-21.1 7.1-38.4-7.2-39.5-21-80.6-33.2-98.6-11.7-17.3-27.3-27.5-78-51.2L275.4 0H148.1C48.8 0 21 .3 21.6 1.2m276.2 107.5c1.8 4.8 3 8.9 2.7 9.1-.8.8-22.3-6.2-29.5-9.6l-5.4-2.6 4.4-1.2c6.1-1.7 18.9-4.2 22.1-4.3 2.4-.1 2.9.6 5.7 8.6m-187.2 75.1c-25.1 15.4-46.9 46.7-57.1 82.4-9.2 31.9-10.1 70.9-2.5 107.4 1.1 5.3 2.2 9.9 2.3 10.1.2.2 22.5.2 49.6.1l49.2-.3-6.1-4.4c-13.6-9.9-23.6-24.9-33.9-50.6-2.2-5.5-4.9-13.4-6-17.5-5.9-20.9-6.4-23.1-8.6-37-.7-4.7-2.3-13-3.6-18.5-1.5-7-2.2-13.5-2.3-22 0-10.5.3-12.9 2.5-19.1 3-8.2 10.4-19.3 19.1-28.9 3.3-3.6 5.8-6.5 5.6-6.5-.1 0-3.8 2.2-8.2 4.8m68.7 51.5c-2.8 2.9-5.3 6-5.7 7-.7 2.3 4.2 11 5.8 10.3 12.6-5.6 13.8-5.9 30.1-6.4l16-.5-9.1-2.3c-9.4-2.4-16.7-5.2-26.5-10.4l-5.5-2.9zm18.7 59.3c0 1.7 10.1 18.5 11.5 19 1.1.5 8.8-2 22-7.1 3.9-1.5 7.8-2.9 8.8-3.2 3.4-1 1.5-2.1-8.5-4.7-12.9-3.3-33.8-5.8-33.8-4m302 87.9-8.5 1.2 10.3.2c8.5.1 10.2-.2 10.2-1.4 0-1.7-.3-1.7-12 0"/></svg>