<svg xmlns="http://www.w3.org/2000/svg" width="682.667" height="512" version="1.0" viewBox="0 0 512 384"><path d="M59.3 1.3c.3.8 13.5 20.9 29.5 44.8 21.5 32.3 30.6 45 35.3 49.6 6.8 6.6 22.8 19.4 26.9 21.5 1.4.7 4.8 2.7 7.7 4.5s5.5 3.3 5.8 3.3 5.7 2.9 11.8 6.5c11.8 6.8 21.2 10.7 28.8 12 9.1 1.5 15.9 6.3 31.4 22.1 11.3 11.5 15.4 14 35.4 21.3 6.8 2.5 12.6 5.2 12.9 6 .4 1.1-.3 1.2-3.3.7-2.1-.4-4.5-1.1-5.4-1.5-12.7-6.2-21.3-10.1-22.1-10.1-.6 0 .7 2.4 2.9 5.3 5.1 6.8 7.1 11.5 7.1 17.1 0 3.7-.5 4.8-3.1 7-1.7 1.4-3.9 2.7-5 2.7-8.9.6-13.3.4-18.7-.7-3.5-.8-6.5-1.4-6.8-1.4s1.5 2.8 3.9 6.2c2.5 3.5 6.4 9.9 8.8 14.2 3.9 7.1 4.9 8.1 8.9 9.7 24.7 9.6 34 13 54.6 20.4 33 11.8 49.8 20.3 68 34.5 3.4 2.7 8.1 5.8 10.5 7 2.4 1.3 7.3 3.9 10.9 6s19.3 11.1 35 20c15.7 9 32.8 18.8 38 21.8 25.2 14.6 42 24.2 42.5 24.2.3 0 .5-84.6.5-188V0h-50.2l.6 2.2c6 20.9 8.9 43 8.9 67.3 0 28.7-4 50.4-13.5 74.3-10.7 26.8-29.8 51.6-50.8 65.7-7 4.7-17.8 10.1-18.6 9.3-.2-.3 1.2-2.2 3.2-4.4 1.9-2.1 5-6.6 6.7-9.9l3.2-6 .1-23c.1-12.7-.2-26.8-.7-31.5s-1.3-13.2-1.9-19-2-15.4-3.1-21.5c-7.7-41.3-21.6-56.8-83.6-93.4L295.1 0H177C79.2 0 58.9.2 59.3 1.3M304 113.6c3.2 25.4 3.3 30.4.4 30.4-2.6 0-16.3-6.9-23.8-11.9-13.3-9-27.6-21.7-27.6-24.4 0-.3 6.4-.6 14.3-.7 7.8-.1 18.5-.7 23.7-1.4 7.4-1 9.8-1 10.8-.1.7.7 1.7 4.3 2.2 8.1m-174.6 48.8c-7.1 2.2-18.7 8.3-25.9 13.5C73 198.2 52.2 234.5 43.8 280c-2.9 15.6-3.1 51.7-.5 69 2 12.4 6.3 31.7 7.5 33.8.7 1 10.2 1.2 44.2 1l43.4-.3-7.1-5.3c-21.1-15.6-32.3-41-37.4-84.7-.5-4.4-1.1-22.6-1.4-40.4-.5-34.9.2-43.6 4.8-54.6 4.2-10.2 15.4-22.5 27.4-30.1 11.9-7.5 12.7-8.5 4.7-6m54.9 116.3c1.8 11.1 9.1 31.9 11.9 33.6 1.2.8 4.9.1 14.5-2.7 20.3-6.1 21.6-6.4 25.8-7.1 4.9-.7 6.6-1.7 5.7-3.1-2-3-21.2-13.7-32.7-18.2-2.7-1.1-8.8-2.7-13.5-3.7-4.7-.9-9.4-1.9-10.4-2.2-1.7-.5-1.8-.1-1.3 3.4"/></svg>