<svg xmlns="http://www.w3.org/2000/svg" width="682.667" height="512" version="1.0" viewBox="0 0 512 384"><path d="M93.9 15.2c21 40 33.9 63.3 34.8 63.1.6-.1 3.9 3.2 7.4 7.5 10.3 12.5 20.3 22.5 38.9 39.1 24.2 21.6 24.9 22.1 31.2 22.8 6.2.7 23.2 9.3 28.7 14.5 4.9 4.6 10.6 13.8 14 22.7 1.6 4.2 4.8 11.6 7.1 16.6 2.3 4.9 4.8 10.4 5.6 12.2.8 1.7 1.7 6.5 2 10.7.8 8.7-.4 12.5-4.7 15.9l-2.8 2.2 13.1 7c32 17 48.1 26.1 59.3 33.7 13.3 9 16.1 11.2 25.5 20.3 3.6 3.4 12.8 10.5 20.5 15.7s19.4 13.2 26 17.7c20.4 14 27.6 18.6 38.5 24.3 5.8 3.1 17.8 9.4 26.7 14.2l16.1 8.6H512V0h-47.7l3.3 12.7C477.5 52 478.7 89.9 471 123c-9.2 39.4-29.1 72.1-56.3 92.6-10.4 7.9-25 15.6-32.2 16.8l-3.9.8 4.9-4.1c8.1-6.7 11.3-12.5 14.5-26.4 1.6-6.7 3.1-14.9 3.5-18.2s.8-7.1 1-8.5.8-5.9 1.4-10c4.4-32.4 3.5-66.7-2.2-82.6-8.2-22.9-27.3-42.3-77.9-79.2L318.1 0H85.9zm215.4 94 4 1.2-.6 7.5c-.5 7.2-4.9 34.2-6.9 42.4l-.9 3.8-4.2-2.3c-9-4.8-16.4-11.7-28.6-26.3-8-9.6-11.8-15.1-12.6-18.5-.6-2.3-.2-2.7 4.3-4.3 11.6-4.2 36.7-6.1 45.5-3.5"/><path d="M145.5 146.5c-41.5 7.7-78.3 41.8-95.9 88.8-9.6 25.6-12.1 40.9-12.1 73.2 0 27.9.9 35.3 7.2 60.7l3.7 14.8h36.8c20.2 0 36.8-.1 36.8-.3s-3.2-2.9-7-6.1c-11.8-9.9-19.6-22-24.3-37.6-6.5-21.7-7.2-49.1-2.2-81.5.8-5 1.9-14.2 2.5-20.5 2.3-24.8 7.4-43.5 14.8-54.8 6.9-10.5 20.6-19.7 38.4-25.8 7.6-2.6 26.1-6.8 34.8-8l5.5-.7-5-1.4c-7.6-2.1-24.6-2.5-34-.8m31.8 136.1c.4 11.5 1.2 22.6 1.7 24.6l1.1 3.8h7c6.8 0 14.9-1.7 21.4-4.5 12.1-5.2 19.5-9.3 19.5-10.8 0-.4-1.9-1.1-4.2-1.7-6.5-1.7-14.1-7.4-18.9-14.3-8-11.3-12.8-14.6-24.8-17.2l-3.4-.7z"/></svg>