<svg xmlns="http://www.w3.org/2000/svg" width="682.667" height="512" version="1.0" viewBox="0 0 512 384"><path d="M105.7.7c1.2.2 2.6 1 3.2 1.7 1 1.2 5.8 16.1 13.2 41.1 2.3 8.1 5.5 15.1 11.7 26.5 11.2 20.6 16.8 28.8 31.1 45.5 6.6 7.7 12.1 14.4 12.1 15 0 .5-1.7 2-3.8 3.2-3.5 1.9-5.2 2.2-15.8 2-12.3-.1-18.1 1-38.4 7.5-31.3 10.1-64.4 46-79.1 85.8-3.5 9.4-9.4 31.2-10.3 38.1-1.8 13.5-2.1 19.5-2 40.4 0 30.4 2.4 47.8 9.2 68.3l2.7 8.2h43.9c24.2 0 43.6-.4 43-.8-.5-.5-3.7-3-7.1-5.5-19.6-14.9-25.9-26.3-30.9-56.2-1.2-7.1-1.4-14.1-1-32.5.3-12.9 1-26.2 1.6-29.5.5-3.3 1.7-13.9 2.5-23.5 3.4-38.5 8.6-56.6 19.4-66.6 9.7-9 36-19.8 68-27.9 7.3-1.9 14-4 14.9-4.7.9-.8 4.1-1.3 8.3-1.2 10.3.2 15.2 3.7 32.9 23.9 19.4 22 29.7 50.3 23.2 63.1l-2 3.9 6.2 6.6c3.3 3.6 9.7 9.6 14.1 13.3 4.4 3.8 9.1 7.8 10.5 9 4.3 3.8 14.3 11.1 20 14.8 6.7 4.2 32.4 15 40 16.8 3 .7 6.6 1.8 8 2.5 3.9 2 31.6 31 40.2 42.1 12.6 16.2 20.1 23.2 30.4 28.3 4.9 2.4 14.2 8.5 20.8 13.5 14.2 10.7 12.8 10.4 43.9 10.5l21.7.1V0h-39l1 2.2c.9 2.3 3.4 12.4 6.4 26.3 3.1 14.4 4.9 38.9 4.2 59.5-.8 27-3.2 41.4-10.5 62.4-8.4 24.2-16.7 39.7-29.9 56.3-13.6 17.1-24.8 26-45.7 36.7-14 7.1-35.5 13-35.5 9.7 0-2.5 5.4-8.1 12.7-13 23.8-16.3 27.1-22.9 35.3-72.1.5-3 1.2-8 1.5-11s1-9.1 1.5-13.5c2.5-21.3 1.9-42.2-1.6-54.4-6.8-23.7-32.5-51.9-72.9-79.7-1.6-1.1-5.4-3.7-8.2-5.7L326 0 214.8.1c-61.2.1-110.3.4-109.1.6M317.8 125c4.1 1.1 5.4 1.9 5.8 3.7.8 3-1.2 17-4.3 30.8-1.4 6-2.9 13-3.4 15.5-1.5 7.3-1.4 7.3-5.6 5-2.1-1.1-4.2-2-4.8-2-2.8 0-12.2-7.3-18.1-14-9-10.2-20.4-27.8-20.4-31.5 0-3.8 11.8-8.2 24.5-9.3 10-.8 18.3-.2 26.3 1.8"/><path d="M164.4 239.2c.3 1.8.8 11.2 1.1 20.8.6 17.7 1.4 22.7 4.3 28.9l1.6 3.4 7.5-.6c9.3-.7 20.3-4.2 31.3-9.7 9.6-4.8 13.2-7.9 12.2-10.3-.7-2-2.2-2.1-6-.7-2.2.9-3.4.6-6.8-1.4-6.1-3.6-12.7-10.3-19.1-19.5-3.2-4.5-6.8-8.9-8-9.7-2-1.3-14-4.3-17.3-4.4-.9 0-1.1 1-.8 3.2"/></svg>