<svg xmlns="http://www.w3.org/2000/svg" width="682.667" height="512" version="1.0" viewBox="0 0 512 384"><path d="M111.3.7c.9.2 2.3.2 3 0 .6-.3-.1-.5-1.8-.5-1.6 0-2.2.2-1.2.5m14.2.3c.3.5-.2 9.6-1.1 20.2-1.2 13.8-1.4 20.1-.6 22.3 1.4 4.3 2.9 11.5 4.7 22.7 1.4 9.6 2.9 14.1 10.4 31.8 4.5 10.6 4.7 9.9-3.7 12-2.7.7-6.6 3.1-10.6 6.4-6.8 5.9-9.7 7.5-17.8 10.6-6.7 2.5-12.4 7.1-13.1 10.7-.3 1.6.2 4.3 1.1 6.2 1.2 2.6 1.3 3.6.4 3.9-.7.2-3.5 2.1-6.2 4.3-7.3 5.7-11.2 7.9-14.3 7.9-4.7 0-7.9 3.4-14.1 14.7-2.6 4.7-6.2 10.5-8 12.7-1.9 2.3-4.1 5.7-5.1 7.6s-2.7 4.7-3.9 6.1c-2.9 3.4-14 25.8-16.9 33.9-5.5 15.5-6.8 20.4-10.9 44-1.7 9.9-1.7 59.9 0 73 1.6 12.3 4.1 25.8 5.4 29.2l1 2.8h57.6c31.6 0 57.3-.2 57.1-.4s-6.7-5.1-14.4-10.9c-14.4-10.8-18.3-14.8-25-25.2-4.6-7.2-6.8-12.2-10.6-24-4.1-12.4-4.4-14.1-7.3-33.5-3.7-25-4-90.1-.5-103.5.6-2.2 3.1-7.9 5.6-12.7 3.5-6.8 6.7-11.1 14.9-19.6l10.4-11 4.8.1c5.9.2 9.3-1.8 12.8-7.6 3.8-6.3 13.1-14.4 18.6-16.3 4.7-1.5 9.8-6.2 9.8-8.9 0-2.6 5-5.3 13.9-7.4 11.3-2.7 14.4-2.6 26.2.3 15.1 3.8 27.6 11 40.8 23.6 6 5.7 17.9 24.1 21 32.6 6.7 17.9 6.9 39.1.4 49.3-2.6 4-1.4 21.6 2.2 31.6 11 31.3 35.7 56.9 61.5 63.5 14.7 3.8 17.2 4.2 29.5 4.2 11.3.1 12.5-.1 20.3-3.1 7-2.8 8.5-3.1 9.9-2 2.7 2.3 11.1 21.6 14.3 32.8 5.7 19.8 9.3 26.3 15.1 27.6 2.4.5 4.5 2.7 9.6 9.6l6.5 9 11.2-.7c8.9-.5 12.3-.3 16.8 1s10.5 1.6 31.2 1.6H512V0h-22.2l.6 2.7c4.9 25.4 6.3 35.9 7.1 54.8 2.1 49.4-9 102.6-28.8 137.9-.7 1.1-2.8 4.3-4.8 7.1s-4.5 6.8-5.7 9c-3.2 6.3-13.3 18.5-20.7 25-3.8 3.3-8.9 7.8-11.4 10.1C409 261.8 394 271.3 394 267c0-2.7 5.2-11.1 16.5-26.8 4.5-6.3 14.8-28.3 16.8-35.7 6.8-26.2 6.7-80-.3-106-3.2-11.7-3.6-12.7-7.7-20.5-5.8-11.1-10.3-17.4-20.1-28-16.1-17.6-33.8-31.7-56.4-45.3l-8-4.7H229.9c-66.4 0-104.8.4-104.4 1M325 158c2.5.6 6.8 2 9.7 3.1 4.3 1.7 5.4 2.7 6.4 5.6 1.8 5.6.2 20.1-4 35.2-2.4 8.7-3.1 9.7-6 8.2-1.2-.7-3.7-.9-6.1-.5-5.8.9-13.5-3.1-22.4-12-6.9-6.9-13.4-17.2-15-23.8-1.7-7.1 14.1-15.5 31.4-16.7.8 0 3.5.4 6 .9"/><path d="M165 193.8c-6.8.9-8.9 2.2-10.1 6.5-2.5 8.9-.5 28.8 3.9 37.2 3.6 7.2 6.3 8.9 13.4 8.6 9.9-.3 17.4-2.9 28.5-10 7.4-4.7 9.8-7.9 9.1-12.3-.2-1.6-1.3-2.6-3.5-3.3-3-1-11.6-8-24.1-19.9-6.3-6-10.4-7.7-17.2-6.8"/></svg>