<svg xmlns="http://www.w3.org/2000/svg" width="682.667" height="512" version="1.0" viewBox="0 0 512 384"><path d="M132.7 1.2c-1 .8-2.3 4.2-3.1 8.8-1.6 8-3.2 26.5-2.8 31.5.1 1.6.4 9.7.6 18 .3 12.4.9 16.6 3 24 4.8 16.6 5.2 19 3.3 21.9-.9 1.4-1.7 3.9-1.7 5.6 0 2.6-.7 3.4-5.1 5.8-9.6 5.1-14.2 8.6-17.8 13.3-2 2.6-4.9 5.3-6.6 6-1.6.8-3.9 2.8-5 4.4-1 1.7-4.9 5.2-8.5 7.8-7.6 5.4-21 18-30.5 28.6-16.4 18.3-25.7 35.2-36.1 65.4-5.3 15.4-6.5 21.4-9.5 46.7-1.6 13.4-1.7 51.5-.1 63 2.2 16.4 3.4 23.4 4.5 27.5l1.2 4 60.5.2 60.5.3-11-7.1c-13-8.4-23-17.7-29.3-27.4-17.6-27.1-27.2-71.3-27.2-125 0-30.7 3.7-45.5 16-64.2 6.6-10 12.9-16 17.5-16.8 4.7-.9 7.1-2.7 9.5-7.5 2.1-4 8.2-10.6 15.8-16.8 4.9-4.1 5.2-4.6 4.6-7.7-.5-2.7-.1-3.8 1.7-5.7 2.8-2.7 12.6-6.6 24.9-9.9 19.2-5.2 40.2-.7 62.2 13.5 8.2 5.2 14.6 11.4 21 20 12.1 16.2 17.8 32.9 17.9 52.1 0 9.8-.4 12.3-3.4 22.5-2 6.3-3.8 13.6-4.2 16.2-1.1 8.5 4.3 29.9 10.2 39.5 1.9 3.2 5 8.7 6.8 12.3 5.1 10.1 21.5 25.5 33.6 31.5 5 2.5 10.2 5.4 11.6 6.5 1.3 1 4.7 2.1 7.6 2.4s9.9 1 15.7 1.7c8.9.9 12.1.9 20.8-.5 11.7-1.9 18.6-4 22.2-6.8 2.4-1.9 2.5-1.9 4.1.1 2.4 3 8.6 23.3 10.3 33.8 1.2 7.9 2 10.1 6 16.2 2.5 3.9 5 7.1 5.6 7.1 1 0 9 15.6 9 17.4 0 .3-2.1.6-4.7.7-2.7.1-7.3.4-10.3.9-3 .4 20 .8 51.3.9l56.7.1V0h-20l.6 2.7c.3 1.6 1 4.1 1.4 5.8 1.7 5.9 4 25.3 5.1 43.1 1.8 29.9-1.5 65.1-9 95.4-3.6 14.4-6.1 21-17.1 43.5-8.7 17.8-12 22.9-28.7 43.6-9.2 11.5-37.1 35.9-40.9 35.9-1.8 0-1.9.4 1.7-7.6 4.8-11 6.2-13.6 9.5-18.4 3.1-4.4 12.4-22 12.4-23.4 0-.4 1-2.8 2.1-5.4 3-6.5 4.6-15 6.5-33.7 1.8-17.4 1.5-47.9-.5-59-2.8-15.4-3.5-18.5-5.9-26-10.4-33.3-42.7-68-87.3-93.8L337.3 0H235.9C156.2 0 134 .3 132.7 1.2m200.5 165.9c3.5 1.1 7.4 2.9 8.8 3.9 2.4 1.8 2.5 2.2 2.4 14.2 0 17.9-3.9 31.2-9.8 33.9-4.8 2.2-25.7-8.6-32.5-16.8-4.1-4.9-10.1-16.9-10.1-20.1 0-5.4 6.4-12 13.4-13.8 1.6-.4 4.1-1.3 5.5-2 3.9-2.1 15.1-1.7 22.3.7"/><path d="M164.5 183.7c-1.6.2-4.7.9-6.7 1.4-3.5.9-3.9 1.4-5.4 6.5-1.4 4.7-1.4 7.2-.5 16.4 1.2 12.1 2.7 17.3 6.6 23 4 5.7 7.7 7.2 15.6 5.9 13.7-2.1 32.9-15.3 32.9-22.6 0-2.6-.8-3.6-6.4-7.2-3.6-2.3-7.6-5.5-9-7.1-1.3-1.7-2.9-3-3.3-3-.5 0-1.8-.8-2.9-1.8-4.4-4-14-11-15.9-11.4-1.1-.3-3.3-.3-5-.1"/></svg>