<svg xmlns="http://www.w3.org/2000/svg" width="682.667" height="512" version="1.0" viewBox="0 0 512 384"><path d="M139.1 1.3c-2.1 2.6-8.9 20.3-10.6 27.7-.9 4.1-2.3 9.7-3.1 12.5-2.6 9.1-4.6 24.8-4.6 37 0 6.6-.5 13.1-1 14.5-.9 2.3-.8 2.3.9.8 3.6-3.3 15.7-9 27.6-13 9.4-3.1 14-4.2 20.2-4.4 25.9-1 52.3 10 70.6 29.4 24.1 25.6 32.3 62.2 20.8 92.9-1.2 3.2-3.5 9.6-5.2 14.3l-3 8.5 1.2 13.5c1.1 13.9 2.9 21.1 7.6 31.5 8.4 18.6 9.2 19.8 20.8 31.6 10.7 10.8 12 11.8 25.1 18.7 16.7 8.8 21.2 9.9 42.1 9.7 12.7-.1 16.5-.5 24.5-2.7 5.2-1.4 11.2-3.2 13.4-4.1 2.2-1 4.9-1.4 6.3-1.1 1.9.5 2.5.2 3-1.5 1.8-6.8 3.5 3.3 3.3 19.1-.1 8.3.5 13.6 3.4 27.7 2 9.6 3.5 17.6 3.3 17.8s-3.1.7-6.3 1.2c-3.7.5 15.8.9 53.4 1l59.2.1V0h-10.8l1.4 6.2c2.1 10.1 4.6 43.8 4.7 62.8 0 23.9-2.7 45.4-9.8 76.9-2.9 13.1-3.6 15.4-10 31.1-13 32.3-26.5 53.4-52.5 82.5-11.2 12.5-15.3 16.5-17 16.5-1.5 0-1.2-2.6.4-3.9.7-.6 1.6-2.7 1.9-4.7.3-1.9 3.5-9.4 7-16.7 6.6-13.5 8.5-18.4 13.3-34.2 4.3-14.4 5.5-22.8 6.1-42.5 1.4-49.2-10-88.6-33.9-117.5-16.2-19.4-33.4-34.1-59-50.3L344.1 0H242.2C158.9 0 140 .2 139.1 1.3m204.9 183c8.6 4.2 9.5 6.2 9.5 19.7-.1 15.6-3.7 26.6-9.5 29-2.7 1.1-4.3 1.1-10.3-.4-4-.9-8-1.6-9-1.6-5.4 0-17.4-13.8-21.7-24.8-2.5-6.6-2.5-8.3 0-13.2 1.6-3.2 3.4-4.5 10.2-7.9 4.6-2.2 9.4-4.2 10.8-4.4 5.9-.9 13.7.5 20 3.6m-228-83.6c0 1.9-1.3 3.8-4.5 6.7C95.9 121.6 82 136.3 82 138.6c0 .7-4.3 5.5-9.6 10.6-12.5 12.2-32.4 38.2-41.3 54.1-8.6 15.5-21.2 53.2-23.5 70.2-.3 2.2-1 6.9-1.6 10.5-.5 3.6-1.5 17.5-2 30.9-.9 20.6-.8 26.5.5 37 .8 6.9 1.7 13.5 1.9 14.6s.7 5 1.1 8.8c.5 5.1 1.1 7 2.5 7.7 1.2.7 25.1.9 67.1.8l65.2-.3-10.4-6.4c-5.7-3.6-11.5-7.3-12.9-8.3-5.5-4.2-18.4-17.6-22-22.8-5.6-8.2-14.6-25.6-17-32.8-1.1-3.5-3.2-9.3-4.6-13-3.3-8.8-7-26.1-9.6-44.7-1.6-11.4-2.1-20.5-2.1-38-.1-29.9 1.4-37.9 10.8-57 6.9-14.1 9.4-17.5 14.1-19.4 2.3-.9 4.2-3.1 7.2-8.7 2.3-4 4.2-7.7 4.2-8.1s3.6-4.3 8-8.8c4.3-4.5 8.4-9.4 9-10.9 1.3-3.5 1.3-6.6 0-6.6-.5 0-1 1.2-1 2.7"/><path d="M161.1 164.2c-11.9 1.8-15.5 7.5-14.7 22.8.6 11.3 2.7 16.9 8.8 23.5 5.8 6.4 8.7 7.2 18.1 5.6 10.3-1.8 18.9-7.1 25.1-15.4 5.9-8 5.5-9-8.9-22.7-2-1.9-4.7-5.5-5.9-8-2.1-4.4-2.2-4.5-7.1-4.6-2.8-.1-6.1-.5-7.5-1.1-1.5-.6-4.7-.6-7.9-.1"/></svg>