<svg xmlns="http://www.w3.org/2000/svg" width="682.667" height="512" version="1.0" viewBox="0 0 512 384"><path d="M61 .4c0 1.4 2.1 5.8 2.6 5.4.8-.8-.7-5.8-1.7-5.8-.5 0-.9.2-.9.4m5.1 9.3C66 28.3 64.7 40.5 63 39.5c-.6-.4-1.3.1-1.6.9-.5 1.2-1.5 1.4-4.5 1-4.5-.7-4.6-.5-2 5 2.2 4.5 2.1 5.4-4.9 61.3-1.1 8.9-2 17.8-2 19.9 0 2.4-.8 4.6-2.5 6.6-2.4 2.8-2.4 3.1-.9 5.7.9 1.5 3 3.3 4.6 4 3.6 1.6 3.6-.5-1.1 31.6-1.7 11.5-3.7 26.1-4.6 32.4-1.3 10.1-1.8 11.7-4 13.5-1.3 1.2-3.9 5.2-5.6 9.1-1.7 3.8-3.4 7.2-3.8 7.5-.8.6-7.1 11-9.5 15.8-1.3 2.4-1.4 3.7-.6 4.6 1.4 1.7.4 4.3-2 4.9-2 .5-7 7.8-7 10.1 0 .8-.5 1.8-1.1 2.2-.6.3-2 2.7-3.1 5.2-1.8 3.9-1.8 4.6-.5 5.3 2.3 1.3.9 4.6-2.9 6.8l-3.4 2V384h512v-50.7l-5.8-1.6c-7.9-2.2-17.6-3.7-24.3-3.7-3.3 0-6.1-.5-6.6-1.2-2.3-2.9-7.8-36.4-9.3-56.3-2.4-31.3-3.4-38.2-7.7-49.7-7.7-21-30.2-42.4-60.3-57.4-5.2-2.6-9.7-4.8-9.8-5-.5-.3 2.6-8.6 8.5-23.3 4.5-10.9 4.6-11.4 2.8-12.7-1.3-.9-4.8-1.4-10.5-1.4-4.8 0-8.9-.2-9.2-.5s1.7-7.4 4.4-15.8C394.7 72.3 398 52.3 398 20.4V0H66.2zm42.3 34.5c.8 2.2 1.1 3.8.5 3.8s-.8.4-.4.9c.8 1.5-.7 2-3.2 1-1.9-.7-2.1-1.3-1.7-4.6 1.1-7.7 1.9-7.9 4.8-1.1m73.6 56.7c-.7 2-2.8 7.6-4.7 12.6-1.9 4.9-4.2 10.8-5 13s-1.9 4.9-2.4 6c-.4 1.1-1.1 3-1.4 4.2-.4 1.5-1.8 2.6-4.3 3.2-6.6 1.7-12.2 2.3-12.2 1.4 0-3 8.7-21.5 12.7-27.1 2.6-3.6 5.6-8 6.7-9.6l1.8-3 1.9 2.5 1.9 2.4v-5c0-3.4.7-6.1 2.2-8.5l2.2-3.5.9 3.9c.7 2.8.6 5-.3 7.5m182.7 6.3c-.3.8-.6.5-.6-.6-.1-1.1.2-1.7.5-1.3.3.3.4 1.2.1 1.9"/></svg>