<svg xmlns="http://www.w3.org/2000/svg" width="682.667" height="512" version="1.0" viewBox="0 0 512 384"><path d="M133.5 10.1c-10.3 11.6-16.6 19.9-21.7 28.4C107.5 45.8 99 62 99.5 62c.2 0 4.8-2.9 10.2-6.5s10.9-6.8 12.3-7.2c1.4-.3 4.4-1.4 6.6-2.4 9-4 21.8-6.9 32.3-7.5 30.6-1.5 59 9.5 79.7 30.8 15.2 15.6 24.3 32.7 28.5 53.3 1.9 9.3 2.1 12.9 1.6 24-.3 7.1-1 14.3-1.5 16-.5 1.6-1.5 5.5-2.2 8.5-1.8 7.6-7 19.6-11.3 26.1-8 12.1-11.8 24.1-13.8 43.7-1.1 10.7-1 13.3.6 23.4 4.2 26.1 13.3 43.9 32 62.3 14.1 13.9 31.9 23.2 54.1 28.4 5.1 1.2 28.9 1.7 33.6.7 9.2-2 20.5-4.9 27.1-7.1 4.3-1.4 8.3-2.5 8.9-2.5.7 0 2.7-1.4 4.5-3.2 2.3-2.2 3.3-2.7 3.3-1.6 0 1.8-8 16.7-11.4 21.3-1.3 1.6-4.8 7.2-7.9 12.2l-5.5 9.3H512l-.1-102.3c0-84.7-.3-101.6-1.3-98.7-1.9 5.1-12.7 29.3-13.6 30.5-.4.5-2.7 4.8-5.1 9.5-2.3 4.7-5.9 11-7.8 14-5.1 7.8-5.4 8.3-7.8 12.8-1.2 2.2-2.8 4.6-3.5 5.3-.7.8-4.2 5.4-7.7 10.4-12 16.7-26.6 34.3-27.7 33.2-.4-.4.7-3.7 2.3-7.4 18.2-40.3 19.5-43.8 23.7-60.8 4.8-19.3 5.9-29.6 5.8-51-.1-25.7-1.9-38.8-8.4-61-3.7-12.9-6-18.8-12-30.7-9.5-19.3-23.5-38.2-40.5-55-13.2-13.1-18.8-17.7-31.8-26.6L367.4 0H142.5zm213 202c10.4 2.7 17.5 8.5 19.6 16.1 2.8 10.4-1.3 26.2-8.3 32.4-6 5.2-18.9 5.4-28.8.4-11.6-5.9-18.8-25.3-13.4-36.1 1.6-3.2 7.7-8.7 11.3-10.1 10.2-4.2 12.8-4.5 19.6-2.7M91 73c-.6 1.1-.8 2-.6 2 .3 0 1-.9 1.6-2s.8-2 .6-2c-.3 0-1 .9-1.6 2M79 86.2c-8.7 9.2-16 18.7-23.3 30.3-1.6 2.4-4.2 6-6 8-6.8 7.8-21.8 30.4-31.1 47-3.7 6.6-7.1 12.7-7.6 13.5-.6.8-1.4 2.4-1.9 3.5s-2.6 5.6-4.7 10l-3.9 8-.3 88.7L0 384h135.5l-3.5-2.2c-1.9-1.2-3.7-2.5-4-2.8s-5.6-4.1-11.8-8.5c-36.3-25.3-61-67.7-70.7-121-4.7-25.7-5.7-64.7-2.2-79.2.3-1.1.9-4.3 1.2-7 .4-2.6 2.7-10.7 5-17.8 7.1-21.6 14.2-35.1 28.2-53.2C90.1 76.2 90.3 76 89.3 76c-.4.1-5.1 4.6-10.3 10.2"/><path d="M154 125c-6.5 2.3-13 8.8-14.8 14.7-4.3 14.3 1.6 31 13.1 37 15.9 8.3 38-3.2 42.1-21.9 1.3-5.9-8-21.5-16.3-27.2-6.8-4.7-15.5-5.6-24.1-2.6"/></svg>