<svg xmlns="http://www.w3.org/2000/svg" width="682.667" height="512" version="1.0" viewBox="0 0 512 384"><path d="M87.5 4.9C69.7 14.3 58.2 21.1 43 31.3c-9.6 6.4-32.3 23.4-38.3 28.8L0 64.2V384h118.1l-9.8-7.9C97 367 79.5 349.6 71.5 339.5c-15-18.9-24.7-35.9-34.3-60-13.4-33.6-17.3-53.5-17.3-87.9 0-20.2 1.1-31.4 4.8-49.1C35.7 89.8 65.8 41 107.7 8c4.3-3.4 8.2-6.6 8.8-7.1.5-.5-3.3-.9-9.5-.9L96.5.1zm206.9-3.4c.8.9 3.2 3.7 5.3 6.3s4.6 5.6 5.6 6.7c3.1 3.4 11.4 18.6 14.6 26.6 10.5 26.7 10.6 57.8.1 83.9-6.4 16.1-15.5 29.6-28.3 42.2-11.5 11.2-20.7 17.1-42.9 27.2-23.9 10.9-43.6 30.3-56 55.1-4.4 8.7-9.4 24.3-11 33.8-1.5 9.3-1.5 29.4.1 37.4 1.2 6.4 6.8 24.2 9.5 30.4 3.7 8.7 11.8 21 18.5 28.1 1.7 1.8 3.1 3.6 3.1 4 0 .5 40.3.8 89.6.8h89.6l8.7-6.7c11.8-9.1 33-30.7 42.2-42.8 23.7-31.6 37.6-63.4 44.6-102.5 2.4-12.9 2.7-17.1 2.7-39 .1-26.1-.8-35.2-5.8-56.2-7.7-32.7-24.4-66.5-46-93.4-8.9-11-24.3-26.3-35.9-35.7L393.1 0H343c-44.9 0-50 .2-48.6 1.5M311 275.9c9.8 5 14.1 11.8 14.8 23 .4 6.8.1 8.4-2.2 13.4-5.8 12.2-20.1 18.5-33.8 14.7-5.3-1.5-11.8-6.8-15.3-12.5-2.8-4.5-3-5.6-3-14s.2-9.5 3-14c3.5-5.6 8.7-10.1 14.1-12.1 5.8-2.1 16.8-1.4 22.4 1.5M200.5 53.5c-7.2 2.7-13.7 8.5-17.3 15.5-3.1 6-3.4 7.1-3 14 .9 21.7 21 35.4 41.8 28.5 6.5-2.2 14.6-9.5 17.6-16 3.3-7 3.3-18 0-25.1-5.5-11.8-14.1-17.5-27.1-18.1q-7.95-.3-12 1.2M506 322.6c-30.8 24.7-58.7 43.1-85.3 56.5l-8.7 4.4 49.6.3c27.4.1 49.9.1 50.1-.1s.2-15 .1-32.9l-.3-32.6z"/></svg>