<svg xmlns="http://www.w3.org/2000/svg" width="682.667" height="512" version="1.0" viewBox="0 0 512 384"><path d="M58 5.9c-6.3 3.2-13.1 6.8-15 7.9-1.9 1.2-5.1 2.9-7 3.9-1.9.9-3.9 2.1-4.5 2.6-.9.7-8.1 5-14.5 8.8-1.4.8-2.7 1.7-3 2s-2.5 1.8-5 3.2c-2.5 1.5-5.5 3.6-6.7 4.6L0 40.8V384h116.1l-7.8-6.2c-11.9-9.4-32.9-31-41.8-42.9-23-30.8-34.6-57.4-43.9-100.9-8.2-38.4-4.3-84.9 10.6-125 9.1-24.5 25.4-52.9 39.6-68.9 12.7-14.2 17.1-18.7 25.7-26C104 9.4 110.1 4.3 112 2.8l3.5-2.7h-46zm261.2-1.7c11.9 14.6 21.5 37.6 24.5 58.3 3.2 22.7-.9 46.2-11.8 67.5-15.4 30-42.5 51.9-75.4 60.9-13 3.5-17 4.9-25 8.7-24.6 11.6-46.4 34-57.3 59-4.4 9.9-7.9 20.9-9.3 28.8-1.8 10.7-.7 37.1 2.1 47.1 1.2 4.4 2.5 9.3 2.9 11 1.5 5.9 10.9 24.2 16.2 31.2l5.4 7.3h202.6l4.2-3.3c44.5-34.5 73.6-78.3 86.6-130.6 5.6-22.2 6.6-31.2 6.6-59.1 0-27.1-.9-35.3-6-56-8.1-32.1-22.1-61.2-42.6-88.1-10.6-13.9-28.6-32.1-42.1-42.5L395.2 0h-79.4zm-28.8 275c11.2 3.2 18.5 12.6 19.4 25 1.2 16.3-10.9 29-27.8 29.2-11.1.2-20-5.6-25.2-16.4-2.7-5.5-2.4-17.2.6-23.6 5.5-11.8 19.8-18 33-14.2M217.6 47.6c-6.7 2.1-11.1 5.3-15.6 11.3-15.4 20.4 1.4 50.6 27.1 48.8 21.6-1.4 35.2-21.6 27.9-41.1-6.1-16.1-22.7-24.1-39.4-19m292 295.3c-1.1 1.2-2.2 2.1-2.6 2.1-.5 0-4.3 2.4-8.6 5.3-4.4 2.9-11.3 7.3-15.4 9.7-4.1 2.5-8.3 4.9-9.2 5.5-.9.5-9.1 4.8-18.2 9.5l-16.6 8.5 36.1.3c19.9.1 36.4.1 36.6-.1s.2-10 .1-21.7c-.3-20.9-.3-21.2-2.2-19.1"/></svg>