<svg xmlns="http://www.w3.org/2000/svg" width="682.667" height="512" version="1.0" viewBox="0 0 512 384"><path d="M0 192v192h512V0H0zM242.4 84c1.6-.6 3.5-.6 5 0 2.2.8 2.4 1.4 1.9 4.5l-.6 3.5h4.3c3.6 0 5-.6 8.5-3.9 5.2-4.8 9.6-5.8 17.4-4.1 5 1.1 6.5 2.1 14.4 9.8 4.8 4.7 8.7 9 8.7 9.5 0 1.4-5.2-.1-8-2.4-1.4-1-4-2.7-5.8-3.6-2.9-1.5-3.4-1.5-4.2-.3-.6.8-1 3-1 4.8 0 3 .5 3.4 6.3 6.2 3.4 1.7 7.8 4.3 9.7 5.9 3.2 2.7 3.3 3.1 2.2 5.6-1.5 3.2-1.1 4 3.6 6.5 2.8 1.4 3.2 1.9 1.7 2-1.6.1-1.4.4 1 1.5 1.7.8 2.6 1.4 2.1 1.5-.5 0-.1.9.8 1.9 1.7 1.9 1.7 1.9-.6 1.4-1.9-.5-2.1-.3-1 .8 1.8 1.9 1.6 4.5-.2 3-1.9-1.6-2.6.6-2.6 8.4v6.4l5.3 1c6 1.3 21.9 4.1 22.9 4.1.4 0 .6.9.5 2-.2 2.5-.1 2.5-13.6-.6-2.1-.5-2.3-.3-1.2 1 .8.9 1.9 1.6 2.5 1.6s2.1.8 3.4 1.8c2.2 1.7 2.7 1.7 13.5-.6 18.3-3.8 41.7-3 41.7 1.4 0 .8 1 1.4 2.3 1.4 1.6 0 1.8.3.8.9-1.7 1.1.2 5.1 2.5 5.1.8 0 1.3.4 1 .8-1.1 1.9 1.1 3.3 3.6 2.3 2.3-.9 2.5-.7 2.1 1-.4 1.5-.2 1.8 1.2 1.2 1.2-.4 1.6-.3 1.2.4s.5 1.6 2 2.1c2.4.9 2.5 1.1.7 1.1-2.3.1-4 3.7-2.1 4.4 1.7.5 1.7 3.7-.1 3.7-1.3 0-1.2.3.4 1.5 1.9 1.4 1.9 1.4-.1 1.5-1.1.1-1.4.4-.7.7 1.7.7 1.5 2.3-.4 2.3-1.4 0-1.4.3-.4 1.5 1.1 1.3 1 1.4-.4.9-.9-.3-1.6-.1-1.6.5 0 .8-1 .6-3-.4-2.9-1.5-3.1-1.5-5.3.8-1.2 1.3-3.2 2.7-4.5 3.1-1.8.6-2 1.1-1.2 2.1 1.5 1.8-3.6 1.3-7.7-.8-4.5-2.4-5.3-2-1.8.8 1.6 1.3 2.7 2.7 2.3 3-.3.3-2.6-1.2-5.2-3.4-5.4-4.7-7.8-5.5-24.9-8.1-7-1.1-15.3-3-18.5-4.3-5.9-2.3-8-2.7-9.6-1.8-.6.2-3.3.3-6.2.2l-5.2-.2 1.4 4.2c1.2 3.4 1.3 4.8.3 7.1-1.6 3.9-5.3 3.8-7.4-.2-1.6-3-2.9-4.2-1.9-1.6.3.7-.6 2.6-2 4.2-3.4 4-5 2.2-5.6-6.4-.5-6.6-.5-6.6-4-7.4-2-.5-8.2-.3-14.3.4-12.2 1.3-14 .8-14.5-3.8-.6-5 1.3-4.5-27.2-6.3-9.1-.6-19.2-1.3-22.5-1.6-7.1-.7-6.1.6 2.5 3.1 2.9.9 6 2.3 6.7 3 .8.7 3.2 1.9 5.4 2.5 3.3 1 3.8 1.5 3.3 3.3-.4 1.2-.7 2.2-.8 2.3s-5.8-2.2-12.6-5.1c-6.9-3-14.8-6.2-17.6-7.2-5-1.7-5.1-1.7-7.2.4-1.2 1.2-2.6 2.2-3 2.2-1.6 0-4-2.5-4.4-4.5-.3-1.7-1.5-2.2-7.7-3-6.1-.8-7.7-1.5-9.7-3.8-3.9-4.5-3.2-5.7 3.1-5.7 3 0 15.7 1.1 28.2 2.5 12.6 1.3 29.5 2.9 37.7 3.5l14.9 1.1 2.9-2.8c1.6-1.5 5.2-7.3 7.9-12.7 4-8.1 4.7-10.2 3.7-11.4-.7-.8-2.2-4.7-3.3-8.6-1.7-6-2.5-7.3-5-8.5-6.8-3.1-8.2-6.6-4.3-10.8 2.2-2.4 6.2-3 8.7-1.4.9.6 1.5 2.6 1.6 4.9 0 2.2.6 4.6 1.2 5.4.7.7 1.7 2.6 2.2 4.2 1.1 2.6 3.9 3.2 3.3.6-.2-.7.3-2 1.1-2.9 3.4-4 2.4-9.1-1.9-9.1-1.9 0-6.4-4.8-6.4-6.9 0-.5-3.5-3.1-7.7-5.7-8.2-5.1-14.3-10.6-14.3-13 0-.8.4-2.2.9-3.2.5-.9 1.4-3 2-4.6.9-2.2 1.4-2.6 2.5-1.7.9.8 2.2.8 4 .1M416 147c0 .5-.5 1-1.1 1-.5 0-.7-.5-.4-1 .3-.6.8-1 1.1-1 .2 0 .4.4.4 1m-184.9 71.3c-1 .9-1.1.8-.5-.6.3-1 .9-1.5 1.2-1.2s0 1.1-.7 1.8M341 236c0 .5-.4 1-1 1-.5 0-1-.5-1-1 0-.6.5-1 1-1 .6 0 1 .4 1 1"/><path d="M291 137.9c1.4 1.1 2 2.1 1.5 2.1-.6 0-1.6-.5-2.3-1.2-1.8-1.8-2.3-.4-1.1 3 1.3 3.8 2.2 4 4.3.7 2-3.1 2-4.1-.1-4.9-1-.3-2.5-.9-3.3-1.2s-.4.4 1 1.5m-24.7 9.3c-.4.7-1.7 3.3-2.9 5.8-1.1 2.5-3.5 6.7-5.2 9.4-3.4 5.3-4.1 8.6-1.8 8.6 1.8 0 13.5-8.9 15.9-12.1l1.9-2.6-3.2-5.1c-3.5-5.7-3.5-5.7-4.7-4m37.7 12.3c-1.5 1.8 8.5 6.8 13 6.3 3-.3 2.8-.5-4.3-4-6.2-3-7.7-3.5-8.7-2.3"/></svg>