<svg xmlns="http://www.w3.org/2000/svg" width="682.667" height="512" version="1.0" viewBox="0 0 512 384"><path d="M16.9 6.3c-6.8 3.5-13.4 7-14.6 7.8L0 15.5V384h57.2c31.4 0 56.9-.2 56.7-.4s-3.1-2.5-6.3-5c-38-29.4-67.9-74.7-81.6-123.2-5.2-18.5-8.4-44.5-8.4-68.9 0-52.8 21.5-109 57.7-151C85.8 23.3 88 21.1 102.5 9 108 4.5 112.7.5 112.9.4c.2-.2-18.5-.4-41.6-.4h-42zM338 .4c0 .3.6 1.1 1.4 1.9s3.7 5.4 6.5 10.2c20.6 36 22.7 74.5 6.1 111.2-10.4 22.9-33.7 46-57.3 56.7-14.3 6.6-24.1 9.1-46.2 11.7-17.3 2-34.9 8.7-50.5 19.2-6.8 4.6-21.4 18.2-28.2 26.3-6.3 7.5-16.7 28-20.6 40.4-3.6 11.4-4.9 30.5-3.2 45.5 2.2 19.3 8.4 36.6 18.8 52.2l5.4 8.3h225.9l9.7-7.8c44.2-35.5 73.8-86.2 84.1-143.9 10.7-60-2.6-122.4-37.1-174-12-17.9-32.3-40.1-48.3-52.8l-7-5.5h-29.7c-16.4 0-29.8.2-29.8.4m-64.6 282c15.8 4.8 23.7 23.7 16.3 38.9-5 10.2-13 15-25.2 15.1-7.1.1-8.6-.2-13.3-2.8-9.3-5.2-14.4-14.1-14.4-25 0-18.9 18-31.8 36.6-26.2"/><path d="M239.7 43.1c-9.9 1.6-17.8 7.5-22.9 17.1-1.8 3.5-2.3 5.9-2.3 12.8 0 7.3.4 9.3 2.8 14.2 3.2 6.4 7.5 10.6 15 14.5 4.3 2.3 6.5 2.7 13.2 2.7 6.7.1 8.9-.3 13.6-2.6 11.1-5.5 16.8-13.9 17.7-26 1.4-20.1-16.6-36.1-37.1-32.7M508.5 368c-.4.6-7.3 4.4-15.3 8.5l-14.7 7.4h16.8l16.7.1v-8.5c0-6.7-.3-8.5-1.4-8.5-.8 0-1.8.5-2.1 1"/></svg>