<svg xmlns="http://www.w3.org/2000/svg" width="682.667" height="512" version="1.0" viewBox="0 0 512 384"><path d="M0 192v192h56c30.8 0 56-.1 56-.3s-3-2.8-6.7-5.7c-10.2-8.1-28.6-26.4-36.3-36-28.3-35.5-46.2-79.2-51.6-126-1.8-15.7-1.5-27.6 1.2-54 1.8-17.6 4.2-29 9.5-45.2C42.2 74.1 67.8 36.3 102.3 7.4l8.8-7.4H0zM361.1 3.7c1.2 2.1 3 4.9 3.9 6.3 5.5 8 12.7 26.1 14.9 37 2 10.3 2.2 11.5 2.8 21.5.7 12.1-1.5 28.7-5.3 40.2-5 14.9-15 32.3-24.9 43.4-10.1 11.3-27.4 23.6-41 29.2-19.8 8.2-28.8 9.7-60.6 10.1-28 .3-30.4.6-46.6 6.6-29.3 10.8-55 34.7-68.2 63.2-5.5 11.8-7.7 20.2-9.7 36.5-1.7 13.5-1.7 14.9-.1 26.6.9 6.8 2.8 16.1 4.2 20.8 2.6 8.7 9.9 24.5 15.7 33.6l3.3 5.2 124.3.1h124.4l6.1-4.7c18-13.9 40.4-39 53.4-59.8 38.7-62.3 47.5-134.9 24.6-204-9.3-28.2-24.5-55.4-43.7-78.5-7.2-8.6-25-25.9-33.3-32.3L399.2 0h-40.4zM254.6 282.5c6.4 1.9 12.8 7.3 16.2 13.9 3.5 6.7 3.8 17.7.6 24.6-5 10.9-15.7 16.8-28.5 15.7-15.2-1.3-24.9-12.3-24.9-28.1.1-12 5.8-20.7 16.6-25.1 6.8-2.8 12.9-3.1 20-1"/><path d="M250 45.2c-19.6 10.1-22.8 36.9-6.1 51.6 8.8 7.7 23.8 9.9 34.1 4.9 6.4-3 11.8-8.3 15.2-14.7 1.9-3.7 2.3-6 2.3-13.5 0-10.5-2.1-15.8-8.7-22.4-6.1-6.2-11.8-8.5-21.8-8.9-8-.3-8.9-.1-15 3"/></svg>