<svg xmlns="http://www.w3.org/2000/svg" width="682.667" height="512" version="1.0" viewBox="0 0 512 384"><path d="M0 192v192h403.3l5.6-4.2c8.6-6.4 31.8-30.2 39.7-40.8 26.7-35.5 42.6-74.6 48.5-119 1.6-12.3 1.7-46.9 0-59-2.5-18.7-8.6-42-15.3-59-14.6-36.8-41.5-73.6-71.3-97.6l-6-4.8 5.2 5.7c12.1 13.3 17.9 22.5 24.2 38 6.8 16.6 8.3 24.1 8.9 42.6.5 19.3-.5 27.2-5.5 42.1-8.4 24.8-22.1 44.1-41.8 58.8-23.4 17.5-48.4 25.2-77.5 23.9-23.7-1.1-41.6-6.8-61.5-19.6C233.6 176.3 213 170 187 170c-30.4 0-61.9 12.2-82.3 31.9-9.2 8.7-24.7 28.9-24.7 32 0 .5-.4 1.1-.8 1.3-.9.3-4.9 10-8.1 19.4-7.8 23.4-7.3 54 1.4 78.5 2.8 7.9 10.4 24.1 13.5 28.6 3.6 5.4.9 3.8-6.6-3.9-32.9-33.7-56.1-80.8-64-129.8-2.5-15.4-2.9-46.9-.9-63.5 5.6-47 21.3-84.5 52.9-126C73.8 30 89.5 13.8 99.5 5.2l6-5.1L52.8 0H0zm198 70.9c15.1 5.7 22.6 21.3 17.4 36.4-1.9 5.7-8.3 13.1-13.8 15.9-6.3 3.3-17.8 3.7-23.8.9-14.2-6.7-20.6-20-16.4-34.3 4.6-16.1 21.3-24.7 36.6-18.9"/><path d="M310 62.6c-6.8 3.1-12.3 8.3-15.8 14.9-2.4 4.4-2.7 6.1-2.7 14.5 0 8.6.3 10 3 14.9 6.9 12.6 20.9 19.4 34.8 16.9 10.2-1.9 20-10.3 23.4-20.1 2.7-7.8 2.2-18.4-1.2-25.2-7.5-15.3-26.8-22.8-41.5-15.9"/></svg>