<svg xmlns="http://www.w3.org/2000/svg" width="682.667" height="512" version="1.0" viewBox="0 0 512 384"><path d="M0 192v192h44.5c51.1 0 46.4 1.3 37.7-10.2-4.6-6-19.1-27.6-20.6-30.8-.5-.8 1.4.7 4 3.5 16.5 17.3 22.8 23.7 30.3 30.2l8.3 7.3h303.7l5.8-4.8c8.6-7.2 22.5-21.3 30.6-31.1 28.1-33.7 46.1-72.8 54.2-117.6 2.2-12.2 3.1-47.5 1.6-63-3.1-32.1-13.5-65.8-28.9-93.5-3.2-5.8-7.4-13.4-9.4-17-3.9-7.3-13.9-24.2-14.8-25-.3-.3-2.3-3.2-4.4-6.5s-7-10.4-10.8-15.8l-7-9.7H410l8.8 7.9c27 24.3 47.3 53.4 54.7 78.2 3.9 12.9 5.3 34.9 3.2 49.9-2.4 17.3-7.2 31.3-16 46.5-4.7 8.1-3.9 7-11.5 16-9.5 11.3-20.5 20.9-30.6 26.7-13.8 8-21.7 11.1-37.6 14.9-7.8 1.9-12.3 2.3-25 2.3-13.5.1-16.9-.3-26-2.6-31.4-7.9-54.6-23.3-73.1-48.5-8.5-11.5-20.8-24.1-29.9-30.5-12.3-8.7-32.3-17.3-48.5-20.9-9.7-2.1-40.1-1.8-50 .5-4.4 1.1-8.4 2.3-8.9 2.8-.6.4-2.1.8-3.4.8-2.7 0-18.7 7.5-24.5 11.4-2.1 1.4-4.1 2.6-4.4 2.6-1.5 0-12.3 8.8-18.3 14.9-19.4 19.6-31.9 43.9-36 70.5-1.4 9-1.1 33.1.6 42.6.7 4.1 1.1 7.6.9 7.8-.6.7-5.4-9.4-8.6-18.1-15.1-41-19.1-91.3-10.4-133.3 5.4-25.8 15.5-52.1 28.8-74.9C57.4 45.2 79.1 19.2 95.8 5.8l7.3-5.8H0zm164.6 39.6c16.5 4.2 26.1 23.5 19.2 38.6-5.3 11.5-13.2 17-25.5 17.6-6.1.4-7.9 0-12.5-2.1-6.5-3.2-8.4-4.9-12.5-11-10-15.3-3.6-35.6 13.2-42.1 7.9-3 9.8-3.1 18.1-1"/><path d="M341.5 92.9c-7.4 3.5-12.6 8.8-16.1 16.4-2.4 5.3-2.6 6.8-2.2 14.7.4 7.8.8 9.4 3.9 14.5 4.3 7.2 9.7 11.9 16.6 14.5 15.5 5.8 32.9-1.4 40.5-16.7 3.2-6.7 3.3-20.8.1-26.9-3.6-6.7-10.9-14.1-16.8-16.8-7.8-3.7-17.7-3.6-26 .3"/></svg>