<svg xmlns="http://www.w3.org/2000/svg" width="682.667" height="512" version="1.0" viewBox="0 0 512 384"><path d="M.1 76.2c0 70.5.1 76 1.6 72.3.8-2.2 3.3-8.5 5.5-14s5.2-12.8 6.5-16.3c1.4-3.4 2.9-6.2 3.4-6.2.4 0 .6.6.4 1.2-1.6 4.5-7.7 32.1-9 40.8-2.3 14.2-3.1 48.9-1.5 63.3 5 47 20.7 86.9 48.9 125 8.2 11.1 18.8 22.8 31.9 34.9L95 384h323.5l9.9-9.3c16.5-15.2 36.2-40.4 46.6-59.2 12-21.8 25.9-50.9 33.9-71 .5-1.1 1.4-3.3 2-4.8.8-2 1.1-35.9 1.1-121.2V0h-92.5l11 10.7C443.4 23.4 450.1 31 459.7 44c24.1 32.8 39 69.1 45.4 111 3.1 20.1 3.1 52.4.1 72-5.2 34.1-17.1 66-31.8 85.5-9.1 12.1-16 18.3-32.3 29.1-17.9 11.8-35 17.5-57.4 19.4-19.2 1.5-33.7-.3-51.7-6.5-37.2-12.8-65.5-41.8-77.4-79.3-7.4-23.6-7.5-53.7-.1-75.6 1.3-3.9 3.8-11.1 5.5-16.1 9.8-28.9 7.7-62.9-5.6-91.4-12.5-26.7-30-45.4-54.2-57.9-15.4-7.9-23-10.7-36.5-13.3-15.6-3-39.5-2.3-53.7 1.4-24 6.5-42.4 16.6-60.3 33.4-2.6 2.5-5.1 4.3-5.4 4s.9-3 2.7-5.9c7.1-11.6 18.1-25 32-39.1L93.7 0H0zm155.8 43.2c10.8 5.5 15.8 12.9 16.8 24.4 1.4 18.1-13.7 33.4-31.2 31.9-11.8-1.1-20-7.1-25.1-18-3.5-7.8-3.1-15.4 1.3-24.8 5-10.8 13.2-15.7 26.1-15.8 5.8-.1 8.2.4 12.1 2.3"/><path d="M360 205.4c-1.9.7-4.6 1.8-6 2.4-4 1.7-10.8 9.1-13.8 15.1-2.3 4.9-2.7 6.8-2.7 14.6s.4 9.7 2.8 14.2c4.1 7.8 8 11.7 14.9 14.8 7.7 3.4 13.9 4.2 21.8 2.5 16-3.4 27-18.8 25.8-36-.8-11.3-7.7-21.1-18.3-26.2-5-2.3-7.3-2.8-13.5-2.8-4.1.1-9.1.7-11 1.4"/></svg>