<svg xmlns="http://www.w3.org/2000/svg" width="682.667" height="512" version="1.0" viewBox="0 0 512 384"><path d="M.1 60.7c0 40.2.4 60.3 1 59.3.5-.8 3.2-5.3 5.9-10s5.4-9 5.9-9.7c.6-.7 1.1-1.5 1.1-1.8 0-1.6 23.1-34.8 23.7-34.1.2.2-1.6 4.4-4.1 9.3C18.9 103.1 9.8 133 5.9 164.5c-1.6 12.9-1.6 43.1 0 56 4.3 35.5 16.2 70.1 34.8 101.3 9.2 15.5 22.7 32.6 37.8 48l14 14.2 123-.1h123l-8-2.3c-14.4-4.1-28.7-10.6-40.1-18.3-23.4-15.6-41.7-41.7-49.5-70.5-2.6-9.6-3.2-13.7-3.6-27-.6-18.3.8-28.9 6.4-45.6 3.9-12 6.4-17.2 13.2-27.6 17.8-27.3 24.4-57.9 19.6-91.1-3.3-23.1-15.8-49.4-31.4-66-10.4-11-25-21.6-39-28.2C189.9-.4 192.7 0 151.8 0h-36.9l-8.7 3.4c-10.6 4-22.1 9.8-28.2 13.9l-4.4 3.1 2.2-3.2c1.3-1.7 5.5-6.3 9.5-10.2l7.2-7H0zM167.8 97c10.5 5.1 16.6 15.3 16.6 27.5.1 11.4-8.5 23.1-20 27.5-5.4 2.1-6.5 2.1-12.7 1.1-15.6-2.6-25.1-12.3-26.4-27.1-.7-7 .6-11.2 5.9-19 4.1-6.2 9.9-10.5 16.1-12.1 5.2-1.3 15.8-.2 20.5 2.1m267.1-83.3c14.7 14.8 23 24.9 33.4 40.8 19.3 29.5 31.6 61.2 37.9 98.1 1.8 10.8 2.2 16.9 2.2 37.4.1 15.9-.4 27.7-1.3 33.5-5.8 39-16.7 69.3-35.2 98.6-12.7 20.2-19.6 28.1-34.5 39.2-11 8.3-34.1 18.7-48.9 22-1.1.3 5.7.5 15 .6h17l8.7-8c4.9-4.5 13.2-13.3 18.5-19.7 5.4-6.5 10.2-12.2 10.8-12.9 12.3-13.9 31.9-41.5 45.8-64.4l7.7-12.6V0h-90.7zm-86.4 214c-20.2 7.3-29.4 30.6-19.2 48.3 3.3 5.8 10.2 11.7 16.4 14.1 8.6 3.3 19 3.2 26.3-.4 6.4-3.2 8.4-4.7 12.7-10.3 5.2-6.6 7.3-12.6 7.3-20.7 0-8.7-2.7-15.3-9.2-22.3-8.1-8.9-23.2-12.7-34.3-8.7"/></svg>