<svg xmlns="http://www.w3.org/2000/svg" width="682.667" height="512" version="1.0" viewBox="0 0 512 384"><path d="M0 17.2c0 16.2.1 17 1.8 15.6 2-1.8 10-7.4 18.7-13.1 3.3-2.2 7.1-4.8 8.5-5.7s4.4-2.7 6.8-4C38.1 8.7 40 7.3 40 6.8c0-.4.6-.8 1.3-.8.6 0 3.5-1.4 6.2-3l5-3H0zm74.5-4C34.2 54.3 11.1 101.9 2.8 161c-1.8 13.2-1.6 51.3.5 65.5 8.2 57.6 33.8 108.4 74.9 148.7l9 8.8h109.7l-3.4-5.8c-30.4-49.9-24.6-109 15-153 11.9-13.2 33.3-27.5 48.8-32.6 6.8-2.3 21.7-9.8 29-14.8 10.1-6.9 25-22 32-32.7 16-24.1 22.5-43.8 23.2-70.1.3-13.1.1-15.8-2.5-27.5-1.5-7.2-4.1-16.6-5.7-21.1-3-8-9.5-20.7-12-23.2-.7-.7-1.3-1.8-1.3-2.3S274.6 0 203.8 0H87.5zm150.8 34.5c6.2 2.2 14 9.5 17 16 2.7 6 2.9 17.8.4 23.6-2.7 6.3-8.4 12.3-14.5 15.4-4.9 2.4-6.9 2.8-14.2 2.8-8 0-8.9-.2-14.4-3.5-9.9-6-14.5-14.1-14.6-25.7 0-10.4 4-19 11.4-24.2 7.9-5.7 19.8-7.5 28.9-4.4m207-41.5c22.9 20.6 47.7 56.6 59.2 85.7 9.9 25.4 15.4 44.2 17.9 61.6.9 6 1.7 12.1 2 13.5.2 1.4.4-35.6.5-82.3L512 0h-43.2l-43.3.1zm78 219c-4.2 36.5-18.4 74.9-39.7 107.3-9.9 15-17.8 24.7-31.9 39.2l-12 12.3h37.2l11.5-7c11.2-6.7 32.8-21 35.4-23.4.9-.9 1.2-15.8 1-70.1-.3-60.4-.5-67.7-1.5-58.3m-217.1 50c-10.7 1.8-20.7 9.2-25.4 18.7-3.3 6.6-3.3 21.6 0 28.2 3.6 7.5 8.8 12.6 16 16.2 5.9 2.8 7.7 3.2 14.7 3.2 6.8 0 9-.5 14.5-3.1 8.5-4 12.2-7.3 16.2-14.2 3.1-5.4 3.3-6.2 3.3-15.7-.1-8.5-.4-10.7-2.4-14.3-7.3-14-22.1-21.6-36.9-19"/></svg>