<svg xmlns="http://www.w3.org/2000/svg" width="682.667" height="512" version="1.0" viewBox="0 0 512 384"><path d="M71 11.6C35.7 48.4 12.6 91.9 2.4 140.8.1 152.1 0 154 0 192.5c0 38.2.2 40.6 2.4 52 9.7 48.5 32.7 92.1 67.5 127.8L81.3 384h13.4c7.3 0 13.3-.2 13.3-.5s-1.3-3.1-2.9-6.3c-16.2-32.2-19.3-68.1-8.8-100.3 7.1-21.7 16.6-37.1 32.6-53 18-17.8 41.6-29.8 67.6-34.3 17.5-3.1 41.8-1.8 57 2.9 19.2 5.9 41.4 8 58.6 5.6 37.9-5.4 71-25.6 91.7-56.2 2.9-4.2 5.2-8.2 5.2-8.8s.4-1.1.9-1.1 1.1-.8 1.4-1.8c.3-.9 2.2-5.6 4.2-10.4 11.9-28.8 13.5-60 4.3-89.8-2.8-9.5-9.8-24.9-12.6-28.3C405.8.1 396.8 0 244 0H82.2zm234 33.9c9.6 3.4 15.1 9.1 18.5 19.4 4.4 13.4-2.9 29.5-16.6 36.7-5.4 2.8-16.3 3-23 .5-12.2-4.6-18.9-14-19.7-27.2-.4-6.8-.1-8.4 2.2-13.5 1.5-3.3 3.9-7.2 5.4-8.7 3.3-3.5 10.3-7.7 14.5-8.8 4.3-1.1 13.2-.3 18.7 1.6m136-34.8c29.2 29.8 49 62.1 61.3 99.9 2.5 7.7 5.7 18.8 7 24.9l2.6 11V73.2L512 0h-81.5zm68.2 238.1c-3.2 13.1-13.2 43.1-17.8 53.3-11.4 25.1-29.2 50.8-49.8 71.6L431.5 384H512v-72.5c0-39.9-.1-72.5-.2-72.5-.2 0-1.4 4.4-2.6 9.8"/><path d="M209 277.9c-8.8 2.7-16.8 9.6-21.1 17.9-1.8 3.6-2.5 6.7-2.7 13.2-.5 11 1.9 17.8 8.9 25.4 5.6 6.1 11.4 9 21.6 10.7 5.8 1 7.7 1 12.4-.4 15.4-4.5 24.9-17.1 24.9-33.1 0-15.7-9.1-28-24.1-32.7-6.1-1.9-15.3-2.4-19.9-1"/></svg>