<svg xmlns="http://www.w3.org/2000/svg" width="682.667" height="512" version="1.0" viewBox="0 0 512 384"><path d="M71 9.9C36.6 44.7 11.9 90.2 2 136.5c-2 9.6-2.1 12.1-1.8 60l.4 50 2.7 10c13 46.7 34.2 84.3 65.6 116.7 10 10.4 10.6 10.8 14.7 10.8h4.3l-4.1-6.8c-2.3-3.7-5.9-10.5-8.1-15.2-2.1-4.7-4.2-9.2-4.6-10-.9-1.7-3.7-10.9-5.8-19-2.2-8.9-2.8-33.7-1-46.5 3.9-27.4 17.9-55.1 37.3-73.6 6.3-6 17.2-14.7 21.9-17.6 33.9-20.3 76-24.5 112.7-11.2 4.4 1.6 9.2 3.5 10.7 4.2 1.4.8 7.3 3.9 13.1 7 11 5.8 21.4 9.8 31.5 12.1 40.3 9.2 84.5-1 114.6-26.5 6-5.1 15.4-14.7 17.7-18.1.9-1.3 1.9-2.5 2.2-2.8s2.6-3.7 5.2-7.5c9.1-14 14.5-27 19-45.4 2.6-11 2.9-39.5.5-50.6-4-18.5-9.9-34-18.6-48.3L427.4.5 254.1.2 80.8 0zm262 47.8c8.4 4.3 13.2 9.5 15.6 16.5 4.9 14.9-2.1 31.5-16.1 38.2-4.3 2-7.1 2.6-12.5 2.6-22.9 0-38-23.7-27.9-43.8 5.6-11.2 14.9-17 27.5-17.1 5.2-.1 7.3.5 13.4 3.6m109.6-46.5c20.2 20.9 34.6 41.1 47.3 66.8 8.9 17.9 13.9 31.2 18.6 49.5l3.4 13 .1-70.3V0h-80.3zM511 246.3c0 7-12.2 43.1-19.3 57.4-14.6 29-31.3 52.9-51.1 73.1l-7 7.2H512v-70c0-38.5-.2-70-.5-70s-.5 1-.5 2.3"/><path d="M183 267.3c-7.2 2.5-12.1 5.9-16.5 11.5-6 7.5-8 14.2-7.2 24.2 1.1 13.2 7.4 22.1 20.1 28.4 6 3 8.3 3.6 13.5 3.6 12.2 0 22.7-5.2 28.8-14.2 4.6-6.8 5.6-10.3 5.7-19.6.1-7.6-.3-9.4-2.6-14.2-4.1-8.3-8.8-13.2-16.4-17.1-5.7-2.9-8-3.4-14.3-3.6-4.2-.1-9.2.3-11.1 1"/></svg>