<svg xmlns="http://www.w3.org/2000/svg" width="682.667" height="512" version="1.0" viewBox="0 0 512 384"><path d="M0 192v192h512V0H0zM245.7 78.8c.4 1.6 1.2 1.8 5.4 1.4 5.9-.5 7.5 1.5 4 5.2-2.9 3.1-2.6 4.6 1 4.6 2.2 0 4.4-1.2 7.6-4 4.5-3.9 4.7-4 12.1-4 5.5 0 8.7.5 11.7 2 4.4 2.1 18.5 17.2 16.7 17.8-1.4.4-6.9-2.4-10.5-5.4-1.6-1.3-3.9-2.4-5.2-2.4-1.8 0-2.4.7-3 3.6-.7 4.2-.5 4.5 5.5 6.7 4.9 1.8 13 8.6 13 10.9 0 .8-.6 2-1.2 2.7-1.1 1-.8 1.6 1 2.9 3.4 2.4 9.5 8.2 8.7 8.2-.4 0 .3.9 1.6 2 2.6 2.1 1.9 2.6-1.3.9-1.7-.9-2-.9-1.5.2 2.1 5.4 2.1 5.4.5 4.1-2.5-2-3.5.6-2.9 7.7l.6 6.4 4.1 1.2c2.3.7 8.5 2 13.8 3 8.4 1.5 9.6 1.9 9.6 3.7s-.4 2-3.2 1.4c-1.8-.4-5.1-.9-7.3-1.1l-4-.5 4 1.9c5.1 2.5 6.6 2.5 20.5.1 6.3-1.1 14.5-2 18.1-2 6.9 0 16.9 2.4 16.9 4 0 .6 1 1 2.3 1.1 1.2 0 1.7.3 1 .5-1.6.7.4 6.4 2.2 6.4.7 0 1.6.7 1.9 1.6q.6 1.65 3 1.2c1.9-.4 2.3-.1 1.8 1-.4 1.1-.1 1.4 1.2.9 1.1-.4 1.5-.3 1.1.4-.4.6.2 1.3 1.4 1.6 2.5.6 2.6 1 .6 3-1.3 1.2-1.3 1.8-.3 3 2.1 2.6 1.9 4.6-.5 3.9-2.1-.5-2-.4.3 1.5 1.5 1.1 1.8 1.7.8 1.3-2.3-.8-2.3 0-.1 2.2 1.7 1.7 1.6 1.7-1.7 1.1-3.1-.7-3.2-.6-1.5.7 1.8 1.3 1.8 1.4-.3 2-1.2.4-3.4.1-5.1-.9-2.7-1.3-3-1.3-2.5 0 .4 1 0 1.5-1 1.5-.9 0-1.6.4-1.6.9s-1.2 1.2-2.6 1.5c-2 .5-2.4 1.1-1.9 2.7.6 1.8.5 1.9-1.4 1-1.5-.8-2.1-.8-2.1-.1 0 .6-1.7-.1-3.7-1.5-5.2-3.5-6.5-3.1-2.5.6 1.8 1.7 3.1 3.4 2.7 3.7-.3.3-2.2-1-4.3-3-5.9-5.7-8.3-6.5-28-9.4-5.9-.9-13.4-2.6-16.6-3.9-3.3-1.3-6.4-2.1-7-1.8-.6.4-3.9.6-7.3.5l-6.3-.3 1 2.6c3.4 8.9-2.4 15.9-6.9 8.4l-1.9-3.1-.7 3c-.9 4.2-3.1 6-5.1 4-1.4-1.3-2-4.8-2.3-12-.1-2.5-.5-2.7-5.5-3.3-3-.4-9.3-.2-14.1.4-7.6 1.1-9 1-11.2-.4-1.9-1.3-2.3-2.2-1.9-4 .7-2.8-.5-3.8-4.8-4.1-21.3-1.4-35.1-2.5-39.6-2.9-6.2-.7-5.2.9 1.2 2 2.1.4 3.5 1.1 3.2 1.6s1.2 1.6 3.3 2.5c7.7 3 7.3 2.7 5.8 4.8-1.4 1.9-1.9 1.8-15.7-3.7-17.7-7.1-20.3-7.6-22.6-5-2.1 2.5-5.8 1.5-7.1-2-.9-2.4-4.7-3.7-11.3-3.7-3.6 0-8.8-4.5-8.8-7.7v-2.5l8.8.6c4.8.4 11 1.1 13.7 1.6 2.8.5 12.7 1.6 22 2.5 9.4.8 22.6 2 29.3 2.7l12.4 1.2 3.4-4c1.9-2.1 5.4-7.9 7.8-12.9 3.8-7.5 4.3-9.2 3.2-10.5-.7-.8-1.8-3.8-2.5-6.5-1.9-8.3-2.9-9.9-7.1-11.7-5.1-2.1-6.3-5.8-2.9-9.4 1.5-1.6 3.3-2.4 5.5-2.4 3.7 0 5.4 2 5.4 6.7.1 1.5 1.1 4.8 2.4 7.2l2.3 4.5 2.2-4.9c2.8-6.3 2.2-9.5-1.8-9.5-2 0-3.1-.7-3.9-2.5-.6-1.4-1.6-2.5-2.2-2.5-.8 0-.7-.6 0-2 .6-1.1.9-2 .8-2.1-.2 0-1.1-.2-2.1-.4s-2.4-1-3-1.7c-.7-.8-3.2-2.7-5.7-4.3-6.3-4-10.9-9-11.2-12.3-.3-2.5 0-2.7 2.9-2.6 3.1.2 3.2.1 1.8-1.9-1.9-2.7-1.9-4.2.1-6.1 2.1-2.1 4.5-2 5.1.2m-13.5 139.4c-.7.7-1.2.8-1.2.2s.3-1.4.7-1.7c.3-.4.9-.5 1.2-.2.2.3-.1 1.1-.7 1.7M40 255c0 .5-.5 1-1.1 1-.5 0-.7-.5-.4-1 .3-.6.8-1 1.1-1 .2 0 .4.4.4 1"/><path d="M290 137.3c0 1.4.8 3.3 1.7 4.2 1.5 1.6 1.8 1.5 3.4-.7 1-1.2 1.9-2.8 1.9-3.4 0-1.6-2.8-2.5-3.3-1.1-.3.9-.8.8-2-.2-1.5-1.2-1.7-1.1-1.7 1.2m-23.5 10.3c-.8 2-1.5 3.8-1.5 4s-1.6 2.9-3.6 5.9c-3.9 6.3-5.6 12.5-3.3 12.5 2.1 0 9-6 8.3-7.1-.3-.5-.2-.9.3-.8 2.3.4 3.5-.4 5.9-4l2.6-4-2.8-5c-1.5-2.8-3.1-5.1-3.5-5.1-.5 0-1.6 1.6-2.4 3.6m39.5 9.8c0 1.1 7.5 4.6 12.5 5.9 7 1.8 6.1.8-3.2-3.2-6.7-2.9-9.3-3.7-9.3-2.7"/></svg>