<svg xmlns="http://www.w3.org/2000/svg" width="682.667" height="512" version="1.0" viewBox="0 0 512 384"><path d="M68.7 10.2C36.6 43.5 13.8 84.4 2.6 128.8L0 138.9v108.2l2.5 9.7c5.9 23.4 19 54.3 31.5 74.2 9.2 14.8 22.6 31.9 37.7 48 1.8 1.9 3.3 3.8 3.3 4.2 0 .5.7.8 1.6.8s-1.3-3-5.6-7.8c-12.9-13.8-22.2-30.3-27-48-10.3-38.1-7.5-66.5 10-101.2 12.9-25.6 40.9-50.1 68.3-59.9 17.7-6.4 24.7-7.6 43.7-7.6 18.8 0 26.9 1.2 42 6.2 18.4 6.1 34.1 15 46.1 26 24.2 22.3 48.8 33.3 81.4 36.3 24.4 2.2 51.5-3.3 72.5-14.7 17.1-9.2 35.1-25.6 46.1-41.9 4.5-6.7 11.9-20.3 11.9-21.9 0-.3 1-2.7 2.1-5.3 6.8-14.8 10.4-43.8 7.9-63.2-1.8-14.1-8.9-39.8-11.2-40.8-.5-.2-.8-1.3-.8-2.5.1-2 .4-1.8 3.2 1.3 11.5 13.1 28.6 46.1 36.6 70.5 2.8 8.8 5.8 18.2 6.6 21 1.2 4.4 1.4-2.9 1.5-62.8L512 0H78.6zm282 61.3c3.1.9 7.3 3.4 10.7 6.3 10.6 8.8 14.1 21.1 9.8 33.4-5.9 16.6-26.1 25.4-41.4 18-5.8-2.8-13.1-10.3-15.8-16-3.1-6.4-3.1-18-.1-24.8 6.3-14.1 22-21.3 36.8-16.9"/><path d="M163.5 249.9c-4.3.7-11.8 4.2-15 6.9-11 9.3-15.4 25.6-10.4 39.3 1.9 5.3 4.4 8.4 13.4 16.7.8.7 4 2.4 7.1 3.9 4.9 2.2 6.6 2.5 13.3 2.1 13.8-.8 23.6-7.1 29.3-18.6 3-6 3.3-7.5 3.3-15.7 0-11-2.6-17.5-10.1-24.8-8.6-8.4-19.6-11.9-30.9-9.8m345.6 9.3c-7.2 28.1-22 60.1-38.4 83-6.5 9.1-16.7 21.1-28.7 33.8l-7.1 7.5 38.2.3c21 .1 38.4.1 38.6-.1s.2-30.4.1-67.1l-.3-66.8z"/></svg>