<svg xmlns="http://www.w3.org/2000/svg" width="682.667" height="512" version="1.0" viewBox="0 0 512 384"><path d="M66.1 11.5C37.3 41.2 16 77.9 3.6 119.3L0 131.1v122.6l3.4 11.4c1.8 6.3 5 15.9 7.1 21.4 8.2 21.9 29.7 61.3 50.1 91.7l3.8 5.8h10.8l-8.1-8.6c-14.8-15.6-32.3-39.9-38.5-53.7-3.5-7.6-7.7-20.6-9.5-29.5-1.6-7.8-1.4-38.1.4-47.7 4.7-26.3 17.3-50.2 36.5-69.4 22.8-22.8 49.8-35.4 82-38.2 17.1-1.6 33.2.5 50.4 6.3 26.1 8.7 52 27.7 65.7 48 17.9 26.6 41.3 44.2 71.6 53.9 13.6 4.4 24 5.9 39.9 5.9 23.4 0 43.5-4.9 60.9-15 4.8-2.7 9-5 9.3-5 1.2 0 17.2-13 22.1-18 18.3-18.5 28.5-36.9 35.7-64 3.3-12.1 4.2-34.8 2.2-51.8-.8-6.1-1.1-11.2-.7-11.2 1.6 0 10.1 22.5 14.4 38l2.4 8.5V66.2L512 0h-66.8l8.5 12.7c4.6 7.1 9.3 14.6 10.4 16.8 1.8 3.6 1.4 3.3-4.3-3-3.4-3.9-10.5-11.4-15.7-16.8L434.6 0H77.3zm307.6 82.9c6.2 2.9 10 6.9 14.5 15.1 2.9 5.2 3.3 6.9 3.2 13 0 8.6-2.7 15.2-8.7 21.3-6.6 6.8-11.5 8.7-22.2 8.7-8.1 0-9.5-.3-14.3-3-5.8-3.2-8.8-6.2-13-13.3-2.4-4.2-2.7-5.7-2.7-13.7 0-7.5.4-9.8 2.4-13.7 3.2-6.2 8.1-11.1 14.3-14.2 7.2-3.6 18.9-3.7 26.5-.2"/><path d="M137.5 230.9c-13.1 6.1-20.5 18-20.5 33 0 9.3 7.4 22.7 15.8 28.5 22 15.2 53.5-1.9 53.4-28.9 0-8.2-1.5-13.3-6.2-20.2-6.9-10.4-16.2-15.3-28.8-15.3-6.3.1-8.8.6-13.7 2.9m372.6 29.3c-3.9 15.5-11.5 34.8-20.9 53.3-11.2 21.7-25.7 42.1-44.2 61.8l-8.2 8.7H512v-64.5c0-35.5-.1-64.5-.3-64.5s-.9 2.4-1.6 5.2"/></svg>