<svg xmlns="http://www.w3.org/2000/svg" width="682.667" height="512" version="1.0" viewBox="0 0 512 384"><path d="M60.5 9.2C45.3 25.4 26.8 51.5 17.5 70 10.6 83.5 0 108.5 0 110.9c.1 1.7 1.2-.3 3.4-5.9 8.5-22.2 20.3-39.7 34.5-51.2 3.5-2.9 6.9-5.7 7.5-6.3C48.4 44.6 70 31 71.7 31c.4 0 1.9-.6 3.4-1.3C87 23.4 109.1 19 128.3 19c33.6 0 60.9 9.9 86.1 30.9 21.9 18.4 35.1 39.8 42.7 69.1 5.8 22.1 5.1 51.5-1.7 71.3-8.2 23.8-9.6 48.8-4.2 74.2 2.3 11 10.8 31.9 17.1 42 3.7 6.1 13.8 18.8 19.1 24.3 16.4 17 46.2 32.3 71.6 36.8 13.5 2.3 42.6 1.5 53.5-1.6 2.2-.6 5.6-1.5 7.5-2 6.2-1.7 15.2-5.1 21.4-8.2 5.8-2.9 20.8-12.1 23.3-14.3.6-.5 3.3-2.8 6-5 2.6-2.2 8.1-7.2 12.1-11.2 3.9-4 7.2-6.9 7.2-6.5s-2.1 4.5-4.6 9.2c-7.7 14.3-22.5 34-37 49.3l-6.5 6.7H512V116.2l-3.9-11.4C495.6 68.6 477.3 38.4 450 9.1L441.5 0H69.2zm329.9 195.7c13.4 6.6 20.4 22.2 16.2 36.2-3.3 10.7-8.2 17-16.6 21.1-7 3.4-19.6 3.1-27.2-.6-6.1-2.9-11.6-8.4-15.1-15.1-4.3-8.1-2.4-23.7 4-32.2 8.3-11.3 25.9-15.5 38.7-9.4"/><path d="M125.9 117.4c-11.5 3.1-20 11.1-23.9 22.7-4.9 14.4-2.2 26.9 7.7 36.7 7.9 7.8 12.6 9.6 24.8 9.7 9 0 10.5-.3 15.5-2.8 9.9-5.1 15.8-12.4 18.8-23.3 2.1-7.8 1.7-17-1.1-23.6-4.5-10.8-19.9-20.9-31.4-20.7-3.2 0-7.9.6-10.4 1.3M.1 329.2 0 384h68.3l-6.9-7.3C37 351 16.8 319.1 5.6 288.5c-2-5.5-4.1-10.9-4.6-12-.5-1.2-.9 19.6-.9 52.7"/></svg>