<svg xmlns="http://www.w3.org/2000/svg" width="682.667" height="512" version="1.0" viewBox="0 0 512 384"><path d="M0 42.2v42.3l7.4-15C17 50.2 32.1 27.7 48.1 9c3-3.6 5.9-7.1 6.3-7.8C55 .3 49.3 0 27.6 0H0zM451.7 1.7c.4 1 1.1 2.2 1.5 2.8 2.8 3.5 6.1 9.4 8.4 15.2 1.4 3.8 3.3 8.3 4.1 10.2 7.6 16.9 11.2 46.3 8.2 67.8-2.9 21.4-11.7 44-24 62-8.1 11.7-23.6 26.7-35.7 34.7-8.8 5.8-23.4 13.5-25.9 13.7-.5.1-1.6.6-2.7 1.1-1.9 1-16.2 5-22.6 6.2-1.9.4-9 1.1-15.8 1.6-30.8 2.3-63.4-6.6-87.6-23.9-25.9-18.5-43.7-25.9-70.6-29.2-18.9-2.3-47.1.7-63 6.6-7.6 2.9-8.2 3.1-18 8-24 11.9-47.2 35.4-59.5 60.5-19.6 39.6-20.2 82.2-1.8 123.5 2 4.4 4.9 10.1 6.5 12.8 1.5 2.6 2.8 5.1 2.8 5.5 0 1.7-13-12.5-20.4-22.3-12.9-17.1-22-32-30.7-50.8-2-4.3-3.9-8.1-4.3-8.4-.3-.4-.6 18.6-.6 42V384h454.8l6.4-7.2c20.2-22.7 36-47.1 47.6-73.6l3.2-7.2V85l-8.6-17.1c-12.1-23.9-26.4-45-42-61.8-3.8-4.2-6.4-6.1-8-6.1-1.8 0-2.2.4-1.7 1.7M188.6 266.4c10.6 4.9 17.6 13.7 19.2 24.1 1.5 9.6.1 16.7-5 24.1-2.3 3.5-4.6 6.4-5.1 6.4-.4 0-1.7.9-2.9 2s-4.7 2.9-7.7 4.1c-7.2 2.7-17.1 2.1-23.8-1.4-13.4-7-19.3-15.8-19.3-28.9 0-12.4 4.4-20.9 14.3-27.7 6-4 9.2-4.9 17.7-5 5.9-.1 8.6.4 12.6 2.3"/><path d="M327.5 51.5c-8.7 1.8-15.9 6.2-22.3 14-2.1 2.5-4.9 9.5-6.3 15.8-2.8 12.9 3 26.9 14.9 35.9 15 11.3 34 10 47.3-3.3 2.7-2.7 4.9-5.3 4.9-5.8s.6-1.6 1.3-2.3c2.1-2 3.7-7.5 4.3-14.9.8-8-1.9-18.5-6.2-24-2.9-3.7-9.5-9.1-15.6-12.8-4.6-2.8-15.4-4-22.3-2.6"/></svg>