<svg xmlns="http://www.w3.org/2000/svg" width="682.667" height="512" version="1.0" viewBox="0 0 512 384"><path d="m0 38.2.1 38.3 7.3-14.2C18 41.7 34.7 17.5 47.8 3.7L51.4 0H0zM467.5 6.7c15.8 18.9 27.7 36.4 37.7 55.8l6.7 13 .1-18.4c0-16.9-.6-22.2-3-27.1-.4-.9-1.1-3.1-1.5-5s-1.1-4-1.4-4.5c-.4-.6-1.3-3-2-5.5s-2.2-6.4-3.2-8.7-1.9-4.7-1.9-5.2c0-.7-6.2-1.1-18.6-1.1h-18.6zM110 78.6c-8 .6-21.4 2.6-23.5 3.4-1.1.4-5.6 1.7-10 2.9-7.7 2.2-29.6 12.2-32.3 14.8-.8.7-2.3 1.8-3.4 2.4-10.1 5.4-27.6 22.6-37.5 36.8L0 143.5v161.8l6.9 13.2c11.9 22.8 22.3 38.2 38.6 57.3l7 8.2h407.4l4.9-5.3c15.1-15.9 30.8-38.8 42.1-61.5L512 307l-.2-35.6-.3-35.5-5.2 7.3c-12.8 17.9-34 35.2-54.6 44.8-29.7 13.7-62.2 16.8-93.7 8.9-4.7-1.2-9.3-2.6-10.3-3.1s-2.7-1.1-3.8-1.3-6.1-2.4-11.2-4.8c-35.9-17.2-65.4-53.5-74.5-91.7-5.9-25-11.3-38.4-21.9-54.3-7.1-10.8-21.1-26-30.1-32.8-3.1-2.4-5.9-4.7-6.2-5s-3.9-2.6-8-5.1c-15.1-9.1-36.4-17.1-50-18.9-8.9-1.1-25.7-1.8-32-1.3m25.7 107.3c21.3 7.3 29.5 32.9 16.3 51.3-6.1 8.4-15.1 12.8-26.4 12.8-13.6 0-26.1-8.3-30.2-20-2.3-6.6-2.7-23.1-.6-25.2.6-.6 1.2-1.9 1.2-2.8 0-1.9 7.1-9.3 12.2-12.7 7.6-5.1 18.7-6.5 27.5-3.4"/><path d="M372.6 131.1c-2.6 1-5.6 2.5-6.5 3.3-1 .9-2.2 1.6-2.7 1.6s-2.6 1.9-4.6 4.2c-15.3 17.5-12.7 44.1 5.5 56.9 10.2 7.2 21.2 8.8 32.9 4.8 8.4-2.8 14.1-7.2 18.9-14.2 5.9-8.9 7.5-15.4 6-24.7-2.4-16.2-7.8-24.2-20.4-30.5-6.7-3.4-7.7-3.6-15.7-3.4-5.2.1-10.4.9-13.4 2M.1 360.7 0 384h16.1l-1.6-3c-.9-1.7-1.2-3-.8-3s.2-.5-.5-1.2-1.2-1.8-1.2-2.6-.6-2.8-1.4-4.5c-1.5-3.2-9.1-26.5-9.9-30.2-.3-1.1-.5 8.5-.6 21.2"/></svg>