<svg xmlns="http://www.w3.org/2000/svg" width="682.667" height="512" version="1.0" viewBox="0 0 512 384"><path d="M0 37.2v37.3l5.8-11C12.5 50.7 19.5 39.2 25.9 30c5.7-8.2 18.6-24.6 20-25.5.6-.3 1.6-1.5 2.1-2.6C49 0 48.5 0 24.5 0H0zm468.2-32c15.2 18 27.6 36.3 37.4 55.2l6.3 12.1.1-36.3V0h-48.2zM94.8 45.3c-4.2.7-8 1.5-8.4 1.9-.4.5-1.6.8-2.8.8-3.9 0-19.1 5.2-28.6 9.8-10.3 5-27 15.6-27 17.2 0 .6-.6 1-1.3 1-1.5 0-16.5 14.6-20.5 19.8-1.5 2-3.5 4.6-4.4 5.6C.1 103.3 0 109.6 0 205.2V307l2.2 4.8c9.9 21.3 25.6 45.5 41.9 64.6l6.4 7.5h205.9l205.8.1 3.8-4.3c8.3-9.4 17-20.6 23-29.7 3.4-5.2 7-10.6 8-12 .9-1.4 4.7-8.2 8.4-15.2l6.6-12.6-.2-17.1-.3-17-6.3 7.9c-6.7 8.3-17.1 18.5-24.1 23.5-2.3 1.6-4.7 3.5-5.4 4.1-.6.5-1.9 1.3-2.7 1.7s-3.3 1.8-5.5 3.2c-12.8 8-34.6 15.2-54.2 18-31.6 4.5-67.5-4.1-95.5-22.8-19.3-13-38.7-36.5-48.4-58.9-9.2-21-12.4-37.6-12.4-63.9 0-16.2-.9-26.1-3.1-34.9-10-40.4-37-75.6-72.2-94-20.5-10.8-37.4-15-62.7-15.5-9.6-.2-19.7.1-24.2.8m41.4 109.5c6.5 2.8 13.3 9.4 16.5 16.1 2.4 4.8 2.8 6.8 2.7 14.2 0 11.1-2.8 17.3-10.9 24.7-7.2 6.6-13.5 8.6-24.5 8-6.7-.4-8.5-.9-13.8-4.2-6.2-3.7-10.4-8.2-13.8-14.6-2.8-5.4-2.5-22 .5-28.3 4.1-8.4 12.7-15.4 21.8-17.7 5.8-1.4 16.2-.6 21.5 1.8"/><path d="M385 161c-7.1 1-10.7 2.2-15.8 5.4-9.9 6.3-15.8 15.3-17.4 27-2.4 17.2 5.3 31.7 20.8 39.2 5.7 2.7 8.4 3.4 14 3.6 14.1.3 26.7-6.5 33.7-18.3 4.2-7.3 5.1-11.8 4.5-23.7-.6-10.8-3.3-16.7-11.1-23.9-8.4-7.6-18.1-10.8-28.7-9.3"/></svg>