<svg xmlns="http://www.w3.org/2000/svg" width="682.667" height="512" version="1.0" viewBox="0 0 512 384"><path d="M0 155.7v155.6l5.7 10.6c11.1 20.8 21.9 36.7 36.6 53.7l7.2 8.4h414.3l7.6-8.7c13.2-15.4 25.4-33.5 36.2-53.6 3.5-6.7 4.5-9.5 4.2-12.4l-.3-3.8-3.9 6c-6.2 9.4-28.2 29.9-39.7 37-14.8 9.2-38.1 17.9-52.9 19.8-12.3 1.6-39.7 1.5-47.5-.2-19-4-41.8-12.7-50.5-19.1-1.9-1.5-6.2-4.6-9.5-7.1-27-20-46.1-51.1-53.1-86.4-3.9-20-2.8-44.9 2.9-64 4.3-14.5 6-28.3 5.4-44-1.1-27.6-7.5-48.1-22.7-73-20.4-33.6-57-57.2-98.5-63.6-14.1-2.2-47.7-.7-51 2.2-.5.5-1.9.9-3.1.9-8.2 0-41.2 14.9-48.2 21.7-.7.7-1.7 1.3-2.1 1.3s-2.1 1.2-3.8 2.7c-1.8 1.6-4.1 3.5-5.3 4.3-2.9 2-13.3 12.3-19.2 19C6.1 66 4 67.8 4 67.2c0-1.4 5.4-12.6 9.6-19.8C20.3 35.8 41.7 6.5 44.9 4.5c.6-.3 1.6-1.5 2.1-2.6C48 0 47.5 0 24 0H0zm140-33.6c5.3 1.8 15.6 11.3 18.2 16.7 1.8 3.8 2.2 6.5 2.2 13.7 0 8.1-.3 9.6-3.2 15.8-5.9 12.1-17.3 18.4-32.1 17.5-6.4-.4-8.7-1-13.4-3.7-9.4-5.4-15.3-14-16.3-23.9-1.6-14.7 5.6-29 17.3-34.8 8.8-4.3 17.5-4.7 27.3-1.3M474.1 10.7c10.4 12.5 25.6 34.8 32.4 47.8 2.6 4.9 4.9 9.2 5.1 9.4s.4-14.9.4-33.7V0h-47z"/><path d="M379.5 192.9c-6 .8-7.3 1.1-13.3 3.8-5.8 2.5-14.5 12.2-17.1 18.8-2.8 7.2-3.8 18.6-2.2 25.1 1.3 5.2 6.5 13.7 10.8 17.9 1.5 1.5 6 4.2 10 6.1 19.4 9.2 42.2.2 49.9-19.8 2.4-6.1 2.9-8.7 2.8-16.3-.1-11.3-2-16-10.1-24.3-8.9-9.2-18.5-12.7-30.8-11.3"/></svg>