<svg xmlns="http://www.w3.org/2000/svg" width="682.667" height="512" version="1.0" viewBox="0 0 512 384"><path d="M0 22.6v22.5l5.7-6.3c14.5-16 41.4-42.1 35.7-34.7C23 28.1 13.2 42.9 3.5 61.5L0 68.3v247l5.9 11.2c8.8 16.8 22.6 37.1 34.9 51.2l5.4 6.3h207l-4.4-5.3c-14.5-17.2-26.7-45.6-29.7-68.6-5.6-42.8 8.3-86 37.8-117.5 17.6-18.7 25.7-32 33.6-54.6 9.2-26.5 9.8-60.9 1.4-87.9-2.3-7.6-6.4-18.3-8.7-22.6-.9-1.7-1.6-3.2-1.7-3.5-.1-1.6-8.8-14.2-12.9-18.8L263.8 0H0zm175.6 44.1c10.8 6 17.3 16.1 18.2 28.3.6 8.6-1.4 14.7-7.2 22-2.5 3.1-6.9 7-10.2 9-5.6 3.4-6.1 3.5-15.9 3.5-8.8-.1-10.6-.4-15-2.7-5.6-2.9-12-9.2-15.5-15.3-2.1-3.5-2.4-5.3-2.4-14-.1-8 .3-10.8 1.9-13.9 2.4-4.9 13.4-16.2 17.2-17.7 9.5-3.7 21.5-3.3 28.9.8M474.2 8.2c12.2 13.6 21.5 26.9 31.7 45.3l6.1 11V0h-45.2zm-132 241.4c-6.5 1.4-13 5.5-19.1 11.9-7.9 8.3-9.6 12.8-9.6 25.5 0 9.4.3 11.1 2.7 16 7.4 15 24.9 24 40.8 21 8.1-1.5 15.5-5.6 21-11.7 6.8-7.4 9.6-12.6 10.8-20 1.1-6.5 1-8.3-.9-17-2.4-10.5-14.6-22.1-27.2-25.6-6.5-1.9-10.7-1.9-18.5-.1m164.3 79.7c-7.6 14.1-17.9 28.9-29.2 42.4-8.5 10.1-10 12.3-8.2 12.3 1.5 0 8.5-6.4 22.5-20.5L512 343v-11.5c0-6.3-.1-11.5-.2-11.5-.2 0-2.5 4.2-5.3 9.3"/></svg>