<svg xmlns="http://www.w3.org/2000/svg" width="682.667" height="512" version="1.0" viewBox="0 0 512 384"><path d="M0 9c0 4.9.4 9 .9 9s1.1-.3 1.3-.8c.2-.4 1.9-2 3.8-3.5 6-4.8 10.4-8.4 13.5-11.1l3-2.5L11.3 0H0zm38.4-1.7c-12 14.1-27.7 37.5-35.3 52.5L0 65.9v252.9l6.3 11.3c10.1 18.3 18.3 30.2 32.1 46.6l6 7.3h165.8l-1.6-2.2c-4.6-6.3-10.3-20.8-14.2-36.3-3.3-13-4.6-38.7-2.6-51 .7-4.4 1.5-8.9 1.7-10 1.2-7.9 7.3-25 12.7-35.8 9.6-19.2 29.8-42.5 45.3-52.3 12.1-7.7 22.7-15.7 30.5-23 6.8-6.5 18.8-21.5 22.3-27.9 17.5-32.2 23.9-60.1 20.7-90.6-1.9-18.5-4.2-26.7-12.8-45.2L307.7 0 176.1.1H44.5zm161.7 38c20.2 9.2 26.2 36.3 11.6 52.6-3.8 4.2-13.7 9.9-19.1 11.2-6 1.3-15.1.2-21.1-2.7-13.3-6.3-22.1-24.1-18.4-37.1 1.8-6.6 5.3-13.4 8-15.9 3.7-3.4 13.2-9.2 17-10.3 5.3-1.6 15.8-.6 22 2.2M473.5 5.2c6.6 7.3 18 23.6 27.2 38.7 4.2 6.9 8.4 13.9 9.4 15.6 1.8 2.9 1.9 2.5 1.9-28.3V0h-43.2zM314.3 270.8c-11.3 4-19.7 11.7-24.6 22.2-1.8 3.7-2.1 6.4-2.1 15 0 9.3.3 11.1 2.6 15.5s8.3 11.4 13.1 15.2c.8.6 3.6 2.2 6.3 3.5 4.2 2 6.5 2.3 15.4 2.3 10.3 0 10.6-.1 17.4-3.9 9.6-5.4 14.1-9.8 17.9-17.5 2.9-6 3.2-7.4 3.2-16.1 0-8.4-.3-10.3-2.9-15.7-3.5-7.7-11.4-15.4-19.3-19-7.9-3.5-19.7-4.1-27-1.5M507 331.2c-8.2 15-29.3 44.7-35.5 49.8-3 2.5-1.3 3 9.8 3h11.2l4.6-3.7c2.5-2.1 5.8-4.7 7.3-5.8s3.9-2.9 5.2-4l2.4-2.1-.2-22.7-.3-22.8z"/></svg>