<svg xmlns="http://www.w3.org/2000/svg" width="682.667" height="512" version="1.0" viewBox="0 0 512 384"><path d="M38.1 6C26.4 19.4 15.2 35.5 5.6 52.5L0 62.5v259l5.9 10.7c8.8 15.9 20.5 32.5 34.4 49l2.3 2.8H170l-2-5.1c-7.6-19.2-10.8-41.4-9-61.7 3.6-40.4 20.6-72.5 53-99.9 9.7-8.2 30.3-19.8 41.5-23.3 35.9-11.2 62.2-31.1 81.9-61.9 21.4-33.4 28.1-75.1 18-112.6-.9-3.3-1.7-6.5-1.8-7-.1-.6-.4-1.5-.7-2-.4-.6-1.2-3.1-2-5.8L347.6 0H43.3zm192.3 25c12 5.7 18.6 15.8 19.4 29.8.4 7.9.3 8.6-3.2 15.6-4.6 9.4-10 14-20.2 17.2-9.1 2.9-12.3 3-20.5.4-8.5-2.6-15.8-8.9-19.9-17.3-2.5-5.1-3-7.5-3.1-13.7-.1-7.9 1.5-15.3 3.8-17.1.7-.6 1.3-1.7 1.3-2.4s2.2-3.3 4.9-5.8c9.5-8.9 26.3-11.9 37.5-6.7M471 .5c0 .3 1.7 2.4 3.9 4.8C482.2 13.2 496 32.5 504 46l8 13.5V0h-20.5c-11.3 0-20.5.2-20.5.5M282.7 285.4c-10.9 3.9-17.3 9.5-22.4 19.5-2.5 5.1-2.8 6.6-2.8 16.1 0 9 .3 11.2 2.4 15.3 3.3 6.8 9.4 14.2 13.3 16.2 10.2 5.4 11.6 5.8 18.9 6.3 14.9.9 31.5-7.4 37.2-18.5 3.8-7.3 4.9-12.6 4.5-20.9-.8-14.4-8-25.3-21.9-32.9-4.5-2.4-6.8-3-13.9-3.2-7.1-.3-9.6 0-15.3 2.1m226.8 44.3c-8.2 15.6-25 39.5-35.4 50.6l-3.5 3.7H512v-29c0-16-.1-29-.3-29-.1 0-1.1 1.7-2.2 3.7"/></svg>