<svg xmlns="http://www.w3.org/2000/svg" width="682.667" height="512" version="1.0" viewBox="0 0 512 384"><path d="M37.9 2.7C28.6 12.9 14.8 32.4 5.6 48.3L0 58.1v269.8l5.6 9.8c6.7 11.7 16.6 26.2 24.3 35.7 3.1 3.7 6.2 7.7 7 8.7 1.3 1.8 3.1 1.9 30.3 1.9s29-.1 28.3-1.8c-1.1-2.7-5.3-20.1-6.5-26.8-1.4-7.9-1.4-32.2 0-40.8 2.5-15.8 6.3-29 11.5-40.3 3.6-7.9 4.8-9.8 13.8-23.3 9.4-13.9 23.6-27.4 39.7-37.5 6.3-4 21.5-11.5 23.2-11.5.8 0 1.8-.4 2.3-.9 1.3-1.2 15.9-5.6 26-7.8 11.1-2.4 41.9-2.4 52.2 0 11.7 2.7 29.9 3.2 43.3 1.3 10.7-1.6 21.5-3.9 25-5.3.8-.3 2-.7 2.5-.9 7.4-2.1 21-8.6 34.4-16.5 6.6-3.9 15.6-11.4 24.2-19.9 16.3-16.4 27.2-33.5 33.5-52.9 10.4-31.8 11-57.3 2.2-90.1L420.5.5 230.4.2 40.4 0zm254.6 22.9c11.2 2.8 19 10.4 22.8 21.8 2.3 6.6 2.1 13.4-.3 20.7-3.2 9.5-6.7 13.7-15.5 18.9-7.5 4.4-13.4 5.4-23 3.5-16.1-3-26.3-14.5-27.3-30.6-.7-12.3 1.4-17.8 10.1-26.4 5.1-5 8.4-7.4 11.2-8.2 6-1.6 15.3-1.5 22 .3M474 .5c0 .3 2.5 3.5 5.5 7.1C490.1 20 499 32.9 507.7 48l4.3 7.5V0h-19c-10.4 0-19 .2-19 .5"/><path d="M219.5 287.7c-6.6 1.6-12.5 5.1-18.1 10.7-5 5.1-6.5 7.5-8.9 13.9-2.7 7.4-2.7 8-1.7 16.1 1.3 10.2 4 16.1 10.4 23.1 5.8 6.4 10.6 8.9 21.3 11.1 9.7 2 19.1.9 26.2-3.3 5.6-3.2 14.3-11.6 14.3-13.7 0-.9.4-1.6.9-1.6.4 0 1.8-3.4 3.1-7.6 1.8-6.1 2.1-8.9 1.6-13.7-2-17.5-14-31.1-30.4-34.6-5.3-1.1-14.9-1.3-18.7-.4m288 49.5c-6.2 11.1-15.9 25.3-24.6 36.1-4.3 5.3-7.9 9.9-7.9 10.2s8.3.5 18.5.5H512v-27c0-14.9-.1-27-.2-27-.2 0-2.1 3.3-4.3 7.2"/></svg>