<svg xmlns="http://www.w3.org/2000/svg" width="682.667" height="512" version="1.0" viewBox="0 0 512 384"><path d="M29.7 10.9c-9.3 11.6-20.3 27.7-26.1 38L0 55.2v274.9l2.1 4.2c3.5 6.9 20.2 31.6 27.6 40.7l6.8 8.5 13.9.3 13.8.3-.5-2.3c-.3-1.3-1.9-6.3-3.6-11.3-5.6-16.1-7.4-29.5-6.8-49 .8-23.7 4.7-40.2 14.2-60 7.6-15.8 14-25 26.4-37.8 16.6-17.1 41.1-31.8 61.6-37 19.5-5 20.6-5.2 40.5-5.2 25.5 0 40.9 3 59.3 11.5 38.5 17.7 79.8 18.2 120.7 1.5 8.4-3.5 26.1-14 31.5-18.8 2.4-2 4.6-3.7 5-3.7.8 0 14.1-13.3 16.5-16.5 10.3-13.4 13.6-18.6 20.1-31.6 15.1-30.2 18.3-69.8 8.4-104.4-1.4-5-3.2-10.4-3.9-12-.8-1.7-1.7-4-2.1-5.3l-.6-2.2H38.3zm292.4 23.7c12.1 3.6 19 8.7 23.6 17.6 2.5 4.8 2.7 6.3 2.7 15.3 0 8.2-.4 10.8-2.1 14.5-3 6.3-8.7 12.7-13.7 15.2-12.8 6.8-24.8 6.1-37.7-2.1-4.4-2.7-10.9-10.8-10.9-13.5 0-.6-.6-1.8-1.2-2.4-.9-.9-1.3-4.7-1.3-11.5 0-12.5 1.2-15.6 9.2-24.3 5.7-6.2 11.6-8.6 24.9-10.3.6 0 3.5.6 6.5 1.5M475 .9c0 .6.4 1.2.9 1.6 3.6 2.2 21.7 27.1 31.2 42.8l4.9 8.2V0h-18.5c-10.9 0-18.5.4-18.5.9"/><path d="M186.8 277.5c-5.1 1.4-13.7 6.3-17.1 9.8-3.9 4-7.6 10.1-9.4 15.7-2.7 8-1.7 21.5 2.1 28.8 3.9 7.7 9.8 13.6 16.9 17 9.9 4.7 13.3 5.5 21.8 5 14.1-.8 25.6-8.7 31.8-21.8 3.4-7.3 4.2-21.8 1.5-28.8-4.7-12.4-14.1-21.2-27.1-25.2-7.3-2.3-13.6-2.4-20.5-.5m321.7 59.7c-5.8 11.1-17.6 28.3-30 43.6l-2.6 3.2H512v-26c0-14.3-.2-26-.4-26s-1.6 2.4-3.1 5.2"/></svg>