<svg xmlns="http://www.w3.org/2000/svg" width="682.667" height="512" version="1.0" viewBox="0 0 512 384"><path d="M34 3.2c-1.4 1.7-4.9 6.1-7.8 9.7-5.8 7.3-18.1 25.4-23 34.2L0 52.7v280.5l4.1 7.1c5.7 9.8 15.8 24.4 24.1 34.9 6.3 8 7.3 8.8 10.4 8.8H42l-3.1-4.9c-3.3-5.4-9.3-21.1-8.1-21.1.4 0-.1-.5-1.1-1.1-.9-.5-1.7-1.8-1.7-2.7s-1.4-7.1-3.1-13.7c-3-11.1-3.2-13.3-3.3-29.5-.1-19.8 1.1-29.7 5.6-44.5 9.6-32 30.3-61.4 55.4-78.3 30.4-20.6 65.6-29.5 99.5-25.1 25.5 3.3 51.8 13.4 68.7 26.5 28.7 22.4 49.9 31.4 82.7 35.4 16.3 2 38.8-.3 58.5-5.9 1.9-.5 4.6-1.3 6-1.6 2.2-.6 7.8-3.1 20.5-9.3 11.6-5.7 29.5-20.8 44.2-37.5 5.5-6.3 15.1-22.2 19.2-32.2 1.9-4.4 4-9.4 4.7-11.2.8-1.7 1.4-3.8 1.4-4.6s.6-3.3 1.4-5.5c4.2-11.9 6.2-32.9 4.6-50.2-1.8-20.3-9-45.3-17.8-61.5l-2.7-5L255 .3 36.5.1zm324.5 51.2c7.7 4.6 16 13.6 18 19.6 2.3 6.9 1.6 19.6-1.3 26.1-3 6.4-10.1 13.3-16.9 16.5-7.9 3.7-20.5 3.9-27.4.6-6.2-3-16.3-12.3-17.9-16.4-.6-1.8-1.6-4.2-2-5.3-1.9-4.5-2.1-11.4-.4-18.1 2.6-10.3 8.4-17.9 17.2-22.5 6.3-3.2 9.7-3.8 18.3-3.5 6.2.2 8.5.8 12.4 3M475 .6c0 .4 2.5 3.2 5.5 6.2 6 6.1 14.8 18.1 23.7 32.5 3.2 5 6.2 9.9 6.7 10.7.6 1 1-7.5 1-24.3L512 0h-18.5c-10.2 0-18.5.3-18.5.6"/><path d="M158.8 259.4c-7.5 1.6-17.4 8.3-21.8 14.7-10.4 15.3-9.3 36.5 2.5 48.5 14.1 14.2 28.3 17.9 44.2 11.3 9.1-3.9 13.1-7.2 18.1-15.2 4.7-7.7 6.1-13.3 5.7-22.8-.5-9.9-4.3-18.5-11.1-25.2-11.3-11.1-22.7-14.5-37.6-11.3m348.8 81.8c-4.6 7.9-14.5 21.7-23.6 33-3.8 4.8-7 9-7 9.3s7.9.5 17.5.5H512v-24.5c0-13.5-.2-24.5-.4-24.5s-2 2.8-4 6.2"/></svg>