<svg xmlns="http://www.w3.org/2000/svg" width="682.667" height="512" version="1.0" viewBox="0 0 512 384"><path d="M23.5 9.4c-4.1 5.2-11.1 15-15.5 21.7L0 43.4v37.9c0 42.2-.5 39.6 6.4 31.9 5-5.7 17.2-15.1 28.1-21.8 5.8-3.5 10.8-6.4 11.1-6.4s2.4-.8 4.7-1.9c19.1-8.5 33.9-11.9 55.3-12.8 32.3-1.3 58.4 6.1 86 24.4 32.1 21.1 56.4 58.1 62.9 95.8 3.5 19.7 7.3 32.1 14 45.5 6.6 13 13.4 22.7 24.8 35.3 6.7 7.4 21.4 20.2 24.7 21.5.8.3 2.9 1.6 4.5 2.8 9.6 7.2 34.7 17.4 51.7 21.1 11 2.4 38 2.4 52.7 0 16.1-2.6 40.7-11.9 52.9-20 8.8-5.9 20.3-15 26-20.5l6.2-6.2V45.3l-9.8-14.9c-5.4-8.2-12.7-18.4-16.1-22.7L479.8 0H31zM407 139.9c3.6 1.2 7.5 3.8 11.2 7.2 7.8 7.1 10 12.9 10.2 26.4.1 9-.2 10.4-2.3 14-5.2 8.4-9.3 12.5-16 15.7-6.1 3.1-7.3 3.3-16.1 3.2-10.8-.1-14.6-1.5-22.4-8-6.9-5.7-10.7-14-11.3-24.6-.4-7-.2-9.2 1.7-13.8 3.9-9.9 12-17.6 21.5-20.6 6.1-1.9 17.2-1.7 23.5.5"/><path d="M109.5 172.1c-12.8 4.3-20.8 11.2-26.2 22.5-3.5 7.3-3.6 7.7-3.1 17.2.8 14 3.2 20 11.8 28.3 6 5.8 7.7 6.9 14.2 8.9 6 1.8 8.7 2.1 15.5 1.7 9.2-.7 13.4-2.2 20.9-7.8 12.5-9.5 17.5-23.4 14.3-40.4-2.6-14.2-13-25.6-27.5-30-5.5-1.7-15.4-1.8-19.9-.4m397.6 176.2c-5.5 9-15.1 22.6-20.8 29.4-2.4 2.8-4.3 5.4-4.3 5.7s6.8.6 15 .6h15v-21.5c0-11.8-.1-21.5-.2-21.5-.2 0-2.3 3.3-4.7 7.3M0 362.9V384h30l-6.2-7.7c-3.3-4.3-10.1-13.8-15-21.1L0 341.8z"/></svg>