<svg xmlns="http://www.w3.org/2000/svg" width="682.667" height="512" version="1.0" viewBox="0 0 512 384"><path d="M20.5 9.2c-3.8 5-10 13.6-13.7 19.2C.8 37.3 0 39.1 0 43.2c0 2.7.4 4.8.9 4.8s1.9-1.4 3.2-3c1.3-1.7 5.3-5.4 8.9-8.2 3.6-2.9 7.2-6 8-6.9 2.7-2.8 19.3-13.7 27-17.5 4.1-2.1 13.1-5.7 20-8.1L80.5.1h-53zM151 1c6.9 1.7 21.7 7.3 31.5 12 18.5 8.9 43.2 30.4 54.3 47.4 6.5 10 19.3 35.6 17.7 35.6-.2 0 .2 1.8 1 4.1 9 25.4 9 63.9-.1 90-7.1 20.6-10.1 39.6-9.1 58.7 1.6 29.8 12.3 59.6 30.2 83.7 16.8 22.6 36.6 37.6 64 48.5l7.6 3H396c53 0 48.3.5 64.7-7 4.4-2.1 10.7-5.5 14-7.5 5.3-3.4 16.1-11.2 17.3-12.6.3-.3 1.6-1.3 3-2.2s5.8-4.9 9.8-8.9l7.2-7.2v-298l-8.4-12.5c-4.7-6.9-11.2-16.1-14.7-20.4L482.7 0 315.1.1C222.9.2 149.1.6 151 1m243.4 205.1c8.2 1.5 21.6 9.2 21.6 12.5 0 .4.8 1.7 1.9 2.8 5.3 5.9 6.9 18.6 3.6 28.6-4.8 14.8-12.3 21.9-26.2 25-15 3.4-33.7-6.7-39.1-21.2-3.6-9.7-3.7-14.2-.7-23.6 4.4-13 13-21.2 25.5-23.8 7.1-1.6 6.7-1.6 13.4-.3M116.1 104.6c-8.9 2.4-17.6 8-22.6 14.6-3.4 4.4-8.5 19.8-8.5 25.7 0 5.5 3 15.3 6.2 20.4 8.2 12.8 24.3 20.2 38.8 18 16.5-2.6 28-12.9 33.1-29.6 6.9-22.4-7.8-46-30.8-49.7-7.5-1.3-9.6-1.2-16.2.6m390.7 246.9c-2.6 4.4-8.8 13.4-13.7 20l-9.1 12 13.7.3c7.4.1 13.7.1 14-.1.2-.2.2-9.4.1-20.3l-.3-19.9zM0 365.2V384h13c11.7 0 15-.7 12.1-2.5-1.5-.9-14.8-18.9-20.2-27.3L0 346.5z"/></svg>