<svg xmlns="http://www.w3.org/2000/svg" width="682.667" height="512" version="1.0" viewBox="0 0 512 384"><path d="M22.9 4.1c-1.9 2.3-5.1 6-7.1 8.3-2.1 2.3-4 4.9-4.3 5.8-.4 1-1 1.8-1.5 1.8s-1.8 1.5-2.9 3.2C6 25 3.9 27.8 2.5 29.4S0 33.4 0 34.7c0 1.9 1 1 4.6-4.4 7.4-10.8 11.5-16 18.2-23.1C26.2 3.6 29 .5 29 .3s-.6-.3-1.3-.3-2.9 1.9-4.8 4.1m213.2 3.1c19.5 20.2 34.7 47.7 38.6 69.8.2 1.4.9 4.1 1.4 6 .6 1.9 1.3 11.8 1.6 22 .4 14.4.2 20.8-1.1 29-3 19.2-11 41.2-20.2 55.1-12 18.6-18 32-22.5 50.7-5.4 22.3-5.2 50 .6 72.1 4.1 15.7 9.2 28.4 16.6 40.6 1 1.6 2.6 4.3 3.5 5.9 2.4 4.3 9.8 13.4 16.2 19.8l5.7 5.8H512V38.8l-7.9-11.7c-4.3-6.5-10.5-15.2-13.7-19.4L484.5.1 356.8 0H229.1zm144 230.2c11.1 2.1 19.5 8.5 24.7 18.8 5.9 11.7 4.9 22.5-3.1 35-4.4 6.7-6.8 9-13.7 12.5-4.8 2.5-6.6 2.8-14.5 2.8-8.2 0-9.6-.3-15.7-3.3-7.7-3.8-12.8-9-16.7-17.2-2.2-4.7-2.6-6.8-2.6-14.5 0-8.5.2-9.3 3.7-15.6 6-10.7 13.9-16.8 24.2-18.9 5.7-1.1 6.3-1.1 13.7.4M135 73c-11.5 1.4-21.4 8.3-28.3 19.7-5.5 9-7 14.6-6.4 22.8 1.2 15.3 8.8 26.6 22.6 33.3 7.1 3.4 8.2 3.7 17.1 3.7 9.1 0 10-.2 17.2-3.8 9.1-4.4 15.3-10.9 20-20.6 2.5-5.3 3.1-8 3.4-14.8.4-8.6 0-10-4.5-19.3-7.1-14.9-23.5-23.2-41.1-21M0 366.2V384h12.6c12.3 0 12.6-.1 11.3-1.9-.8-1.1-4-5.4-7.2-9.5-3.2-4.2-8.3-11.4-11.3-15.9L0 348.5z"/></svg>