<svg xmlns="http://www.w3.org/2000/svg" width="682.667" height="512" version="1.0" viewBox="0 0 512 384"><path d="M0 14.2v14.2l5.1-7.5c2.8-4.1 7.3-10.2 10-13.6C17.8 3.8 20 .8 20 .5S15.5 0 10 0H0zm362.1-2.7c4.4 18.1 5.4 32.2 3.5 49-4.2 37.7-18.6 67.3-45 92.9-16.6 16.1-39.4 30-57.1 35.1-26.8 7.6-44.9 15.4-56.5 24.4-1.9 1.4-4.6 3.4-6 4.2-7.6 4.8-24.9 23.3-34.4 36.7-3.9 5.7-13.7 24.6-16.3 31.6-6.4 17.5-9.3 33.5-9.3 50.8 0 15.4 1 24.1 4.4 37.8l2.3 9.5 170.6.3 170.6.2 5.4-6.7c2.9-3.8 8.1-10.8 11.5-15.7l6.2-8.9V31.4l-5.8-8.5C503 18.3 498 11.2 495 7.2L489.6 0H359.3zM302 298c11.3 4.4 18.1 11.5 21.8 22.5 4 11.7 1 25.3-7.5 34.9-4.4 4.9-9.5 7.7-18.5 10.1-12.6 3.3-23.7.4-33-8.9-8.5-8.5-11.6-19-9.3-31.7 1.4-8.1 3.5-12.5 8.6-17.9 9.1-9.6 26.1-13.6 37.9-9M211.5 15.9c-3.3 1-7.8 2.8-9.9 3.9-6.5 3.5-16.1 14.9-17.1 20.3-.2 1.3-1 4.3-1.6 6.7-3.1 11.4 2 27.2 11.9 36.4 10.7 10 23.4 13.2 38.7 9.7 12.4-2.9 22.1-11 27.7-23.2 8.5-18.6-.6-42.4-20.1-52-5.7-2.8-7.7-3.2-15.1-3.4-5.7-.1-10.4.4-14.5 1.6M0 369.2V384h10.6c6.8 0 10.3-.4 9.9-1-.3-.6-3.4-4.7-6.8-9.3S5.8 362.9 3.8 360L0 354.5z"/></svg>