<svg xmlns="http://www.w3.org/2000/svg" width="682.667" height="512" version="1.0" viewBox="0 0 512 384"><path d="M0 11.2c0 6.1.2 10.9.4 10.7.6-.6 14-19.2 15-20.7C15.9.3 14.2 0 8.1 0H0zm466.5-9.5c2.1 5.3 5.6 18.4 7 26.5 2.4 13.4 2.2 39.1-.4 52.8-6.3 33.4-19.7 59-42.6 81.5-18.5 18.3-36.8 29.5-60.3 36.9-36.8 11.6-79.5 8.6-112.1-7.8-24.3-12.3-45.9-17.6-71.1-17.6-24.3 0-42.1 3.8-65 13.8-10.1 4.5-23.4 12.1-25.5 14.6-.5.7-2.2 1.9-3.7 2.7-4.3 2.2-15.7 12.6-22.4 20.4-10.7 12.3-27.5 39.9-25.9 42.5.3.5.2 1-.4 1-1.3 0-6.6 16.5-9.3 29-1.7 7.8-2.1 13.1-2.2 29-.1 21.2 1.3 30.7 7.2 48.7l2.6 8.3H268l225.5-.1 3.6-4.7c2-2.6 6.2-8.2 9.3-12.6l5.6-7.8v-335l-2.2-3.1c-1.2-1.8-5-7.1-8.6-12L494.8 0h-14.5c-13.4 0-14.5.1-13.8 1.7M198 286.3c3.6 1.3 8.4 3.6 10.7 5 8.6 5.5 15.3 18 15.3 28.7 0 20-15.2 35.8-34.8 36.3-7 .2-8.4-.1-15.3-3.4-9.9-4.8-14.2-8.7-18.1-16.7-2.9-5.9-3.3-7.7-3.4-15.4-.2-8.1.1-9.4 3.1-15.6 4.5-9.2 8.7-13.4 17.5-17.6 8.3-3.9 16.4-4.3 25-1.3"/><path d="M315.8 25c-5.4 1-11.6 3.9-17.3 8.2-6.5 4.8-7.7 6.3-11.7 14.5-3.1 6.4-3.3 7.5-3.3 17.3 0 9.7.2 11 3.1 17 4.7 9.9 10.1 15.3 20.1 20.2 8.4 4.2 9 4.3 18.2 4.3 8.7 0 10.2-.3 16.1-3.1 12.8-6.1 20.5-15.8 23.9-30.1 2.7-11-2.9-28.3-11.6-36.4-6.6-6.1-20-12.1-27.7-12.3-3.3-.2-7.8 0-9.8.4M0 371.9V384h18.1l-3.4-4.3c-1.9-2.3-6-7.7-9.1-12.1L0 359.8z"/></svg>