<svg xmlns="http://www.w3.org/2000/svg" width="682.667" height="512" version="1.0" viewBox="0 0 512 384"><path d="M0 10c0 5.5.2 10 .4 10 .3 0 2.7-3 5.4-6.8C8.6 9.5 12 5 13.5 3.2L16.1 0H0zM490 .8c0 .5 1.3 3.3 3 6.3 1.6 3 3 6.4 3 7.6s.8 4.1 1.9 6.5c2.3 5.5 6.8 23.2 8.1 32.3 1.6 11.2 1.1 32.7-.9 45.5-3.1 19.3-11.4 40.8-21.6 56.5-2.5 3.7-4.5 7-4.5 7.3 0 .2-3.2 4.2-7.1 8.8-12.9 15.2-22.8 23.6-41.4 35.1-4.4 2.7-13.8 7.7-14.9 7.9-.6.1-3.7 1.2-6.8 2.4-50.3 19-110 9.2-150.3-24.7-15.7-13.1-28.2-20.9-44.7-27.7-17.2-7-32.4-10.2-53.9-11.1-16.8-.8-30.1.9-47.9 5.9-13.6 3.8-34.6 13-40.2 17.5-.7.6-4.4 3.4-8.3 6.3-30.6 22.6-51.9 56.9-60.2 96.8-2.5 12.3-2.5 44.2.1 56 2.1 10 8 29.7 10.5 35.4 1 2.3 2.6 6 3.6 8.3l1.8 4.3h238.1l238.1-.1 1.6-2.2c.9-1.2 4.6-6.3 8.3-11.4l6.6-9.2V21.3l-7.7-10.7C497.2.8 496.4 0 493.3 0c-1.8 0-3.3.4-3.3.8M173.1 267.9c7.3 3.5 15.8 11.7 18.7 18.1 3.6 7.9 4.1 17.8 1.3 26.8-1.7 5.7-3.1 8-7.8 13-8 8.3-16.4 11.8-27.6 11.4-9.3-.2-14.4-2.5-23-10.2-9.4-8.5-13.3-18.9-11.5-30.7 2.2-14.5 11.6-25.2 26.8-30.4 4.6-1.6 18.1-.4 23.1 2"/><path d="M344.3 44.1c-6.5 1.2-15 5.7-20.3 10.8-11.7 10.9-15.8 28.8-10.3 44.1 3.7 10.3 15.9 22 26.5 25.6 10.8 3.6 25.4 1.8 34.4-4.1 4.6-3 10.4-8.3 10.4-9.5 0-.5.3-1 .8-1 1.2 0 4.4-6.2 6.3-12.5 4.5-14.5.7-29.6-10.4-40.5-10.8-10.8-24.3-15.4-37.4-12.9M0 372.8V384h17.2l-2.8-3.7c-1.5-2.1-3.1-4-3.4-4.3-.4-.3-2.8-3.4-5.4-7-2.7-3.6-5-6.7-5.2-6.9s-.4 4.6-.4 10.7"/></svg>