<svg xmlns="http://www.w3.org/2000/svg" width="682.667" height="512" version="1.0" viewBox="0 0 512 384"><path d="M0 8.2c0 4.9.4 7.8.9 7.2C2.7 13.5 12 1.1 12 .5 12 .2 9.3 0 6 0H0zm502-5.5c1.1 1.6 3.7 5.2 5.7 8 2 2.9 3.7 5.3 3.9 5.3s.4-3.6.4-8V0h-12.2zm-394 91c-15.6 1.1-26.9 2.9-37 5.9-26.1 7.9-42.5 16.9-62 34.1l-8.9 7.8v111.8L0 365.1l7 9.5 7 9.4h484.6l3.9-5.2c2.2-2.9 5.2-7.1 6.7-9.3l2.8-4V235.7l-5.8 5.4c-16.8 16-37.1 28.6-57.3 35.7-19.4 6.8-25.2 7.7-50.9 7.7-14.8 0-25-.4-27.5-1.2-2.2-.6-7.8-2.1-12.5-3.4-37.3-10-70.7-35.4-91.3-69.6-3-4.8-6.8-12.4-8.7-16.8-11.1-27.1-25.9-47.4-46.5-64-18.9-15.2-40.3-25.8-64.4-31.9-9-2.3-30.7-4.4-39.1-3.9m20.9 116.9c11.6 3.4 20.1 11.9 24.2 24.1 5.6 17-2.6 36.1-19 44-4.8 2.3-6.9 2.7-14.6 2.7-10.8.1-15.7-1.2-22.1-6-5.8-4.3-8.2-7.8-11.9-17.1-4.8-11.6-4.4-20.1 1.3-30.3 8.4-15.3 25.6-22.3 42.1-17.4M382.5 99.3c-16.3 4.2-28 16.7-31.5 33.5-2.4 11.6 1.8 25.8 10.4 35.7 20.8 23.8 58.9 16.1 69.5-14 7.2-20.4-4.5-46-24.4-53.4-7.1-2.7-17.5-3.4-24-1.8"/></svg>