<svg xmlns="http://www.w3.org/2000/svg" width="682.667" height="512" version="1.0" viewBox="0 0 512 384"><path d="M0 1c0 .5.5 1 1 1 .6 0 1-.5 1-1 0-.6-.4-1-1-1-.5 0-1 .4-1 1m3 3.4L0 8.9v366.2l3.2 4.4 3.3 4.4 119.2.1h119.2l-2.5-3.7c-4.5-6.6-12.1-22.6-15.9-33.4-4.6-13.2-6.4-21.9-7.7-39.3-3.3-41.1 10.7-83.4 38.1-114.8 8.5-9.6 13-15.6 18-23.8 18.2-29.8 26.2-67 22-102.5-1.1-9.5-6.1-30.9-8.4-36-.7-1.6-2.7-6.2-4.4-10.1-1.6-3.9-4.7-10-6.8-13.7L273.5 0H6.1zm158.5 51.5c6.9 3.3 10.8 6.7 15.1 13.1s5.9 12.3 5.8 21.5c0 6.6-.5 9-2.7 13.5-6 12.1-16.1 19.7-29.5 22.2-14 2.6-30.5-5.9-37.1-19.1-8.5-16.9-5.8-31.3 8.5-45.6 9.7-9.7 26.4-12 39.9-5.6M508 .8c0 .5.9 1.7 2 2.7 2 1.8 2 1.7 2-.8 0-2-.5-2.7-2-2.7-1.1 0-2 .4-2 .8M353 253.1c-11.5 3.3-23.8 13.8-28.7 24.6-3.8 8.4-4.4 21.5-1.4 30.6 4.2 12.5 10 18.8 23.1 25.1 6 2.9 7.3 3.1 17 3.1 9.7-.1 11-.3 17.3-3.2 8.6-4.1 17.4-12.8 21.8-21.9 2.9-5.8 3.4-8 3.7-15.8.3-7.2-.1-10.3-1.7-14.8-3.8-11-11.4-19.6-21.9-24.9-5.5-2.8-7.3-3.2-16-3.5-5.3-.2-11.3.1-13.2.7m156.2 127.4-2.4 3 2.2.3c2.8.5 3.2 0 2.8-3.4l-.3-2.9z"/></svg>