<svg xmlns="http://www.w3.org/2000/svg" width="682.667" height="512" version="1.0" viewBox="0 0 512 384"><path d="M2.6 3.8 0 7.6v369.5l2.6 3.5 2.6 3.4h101.4c55.8 0 101.4-.2 101.4-.5s-1.1-3.1-2.4-6.3c-13.2-31.8-15-68.4-5-102.2 9.9-33.6 29.9-62.6 56.5-82.3 15.3-11.3 32.6-29.6 40.3-42.7 5-8.5 14.4-28.5 16.6-35.4 5.6-17 7.1-26.3 7.7-46.1.5-16.6.3-20.6-1.7-31.8-2.5-14.9-4.2-20.7-9.7-33.5L308.9 0H5.3zm180.5 30.5c19.6 8.8 27.8 30.7 18.9 50.2-6.8 15-27.4 25-41.9 20.4-11.3-3.6-19.7-9.6-23.9-17.1-6.8-12.1-6.7-27.6.1-38.4 4.8-7.7 17.5-16.6 25.2-17.8 6.5-.9 16.1.3 21.6 2.7M509 1.9c1.6 3.2 3 3.4 3 .7 0-1.9-.5-2.6-2-2.6-1.7 0-1.9.3-1 1.9m-180.6 272c-13.5 4.6-25.1 16.1-28.9 28.7-2.9 9.6-1.1 28 3 31.4.8.7 1.5 2.1 1.5 3.1 0 3.2 10 12.3 17.5 16 6.8 3.3 7.4 3.4 18.5 3.4 13.3-.1 17.1-1.4 27.2-9.1 10.3-8 16.8-21.2 16.8-34.1 0-16.2-12.6-33.2-28.7-38.9-8.3-2.9-19.3-3.1-26.9-.5M510 382c-.9 1.6-.8 2 .5 2 .8 0 1.5-.9 1.5-2s-.2-2-.5-2c-.2 0-.9.9-1.5 2"/></svg>