<svg xmlns="http://www.w3.org/2000/svg" width="682.667" height="512" version="1.0" viewBox="0 0 512 384"><path d="M2.1 2.9 0 5.8V192c0 174.1.1 186.4 1.7 189.1l1.7 2.9h85.3c47.7 0 85.3-.4 85.3-.9 0-.4-.9-3.6-2-7-5.9-18.5-6.7-56.4-1.5-75.6 5.2-19.4 12.8-37.8 19.1-46.2 1.3-1.7 2.4-3.4 2.4-3.7 0-2.3 10.7-15.3 21.5-26.2 15.5-15.5 23.5-21.3 45.5-32.5 19-9.8 30-17.4 42-29.1 10-9.8 14.6-15.3 21.8-26.2 13.3-20.1 22.4-43.4 25.9-66.6 3-20.1 1.5-45.4-3.8-62.8L342.7 0H4.1zm205.4 16c7.1 2.8 15.8 11 19.3 18.2 8 16.5 2.8 36.5-12.1 46.8-7.5 5.1-15.7 7.5-24 6.8-13.9-1-24.6-8.1-30.8-20.4-3.2-6.4-3.4-7.2-3.4-17.2 0-9.2.3-11.2 2.4-15.1 5.3-10.1 11.5-15.4 23.1-19.8 7.3-2.7 17.3-2.4 25.5.7M510.6 1.5c.4.8.8 1.5 1 1.5s.4-.7.4-1.5-.4-1.5-1-1.5c-.5 0-.7.7-.4 1.5M303.9 288.3c-13.2 4.6-21.6 11.7-27.4 23.3-2.7 5.5-2.9 6.7-3 17.4 0 11.1.1 11.8 3.4 18.5 5.9 12.1 15.3 19.5 29.1 23.1 15.4 3.9 34.1-3 44.8-16.5 8.8-11 10.9-30.1 4.7-42.7-4.3-8.9-14.2-18.3-23-21.8-9.8-3.9-19.7-4.4-28.6-1.3M510.5 383c-.3.5-.1 1 .4 1 .6 0 1.1-.5 1.1-1 0-.6-.2-1-.4-1-.3 0-.8.4-1.1 1"/></svg>