<svg xmlns="http://www.w3.org/2000/svg" width="682.667" height="512" version="1.0" viewBox="0 0 512 384"><path d="M1.6 2.5C.1 4.7 0 21.5 0 192.2c0 168 .2 187.6 1.6 189.6l1.5 2.2h68.5c64.8 0 68.5-.1 68-1.8-3.8-12.2-5.1-41.1-2.6-57.7 2.2-15.1 6.7-30.5 12.6-43.3 5.9-12.5 10.3-19.7 19-30.7 23-29.2 53.4-49 88-57.4 8.6-2.1 20.1-5.5 24.9-7.5 8.5-3.4 23.3-11.6 31.6-17.5 12.2-8.7 38.9-35.3 38.9-38.9 0-.6.4-1.2.8-1.4 1.9-.8 13.1-20.3 16-27.8 13.6-35.4 16.1-61.2 9.1-94.8l-1-5.2H3.2zm232.6 7.7c11.8 5.5 19.1 15.6 21.1 29.1 3 20.7-9.9 38-31.2 41.8-6 1-8 1-13.6-.4-21-5.2-33.8-26.7-27.9-46.7 5.1-17.3 19.6-27.3 38.4-26.7 5.6.2 8.9.9 13.2 2.9M510.5 1c.3.5.8 1 1.1 1 .2 0 .4-.5.4-1 0-.6-.5-1-1.1-1-.5 0-.7.4-.4 1M284 295.7c-4.9.7-14.6 4.6-18.7 7.4-12.5 8.6-19.2 24.1-17.4 40.3 2.1 18.7 17.1 33.9 36 36.6 7.4 1 13.5.3 22.5-2.6 19.6-6.5 31.6-29.3 26.3-49.9-5.5-21.5-26.7-35.3-48.7-31.8"/></svg>