<svg xmlns="http://www.w3.org/2000/svg" width="682.667" height="512" version="1.0" viewBox="0 0 512 384"><path d="M1.7 1.8C.1 3.5 0 18.2 0 192.6c0 145.7.3 189.3 1.2 190.2s14.3 1.2 54.1 1.2h52.9l-.5-2.3c-3.5-14.3-3.4-49.6.1-64.2 6.4-26.9 18.5-50.7 34.9-69.2 7.2-8.1 9.6-10.5 18.6-18.5 4.3-3.8 17.9-12.9 25.3-16.8 3.2-1.8 6.4-3.6 6.9-4 1.6-1.2 21.5-8.6 27.5-10.3 11.2-3.1 21.9-4.7 38-5.7 15.9-.9 18.6-1.3 33-4.6 17.1-4 38.2-14 55-26.3 8.5-6.2 26.7-23.8 32-30.9 1.9-2.6 3.7-4.9 4-5.2 1.4-1.4 8.4-12.7 12.4-20.2 14.6-26.9 20.8-67.3 15-97.5-.8-4.1-1.4-7.7-1.4-7.9S317.7 0 206.2 0C10.9 0 3.2.1 1.7 1.8m251.7 1.7c8.2 2.1 16.3 7.8 20.8 14.5 5.5 8.1 7.1 13.6 6.7 23.3-.3 6.9-1 9.4-3.6 14.8-3.9 7.9-10.2 14-18.1 17.7-4.9 2.3-7.1 2.6-15.3 2.7-10.7 0-16.7-2-24.6-8.3-7.4-5.9-13.3-18.7-13.3-28.8.1-17.7 14-33.8 31.4-36.4 7.9-1.2 9.8-1.1 16 .5m3.5 296.5c-11.3 1.9-24.1 11.5-29.5 22.1-4.1 8.2-5.5 15.9-4.3 25.3 2 16.1 11.5 28.2 27.1 34.5 5 2 7 2.2 17 1.9 10.6-.3 11.8-.5 18.3-3.7 17.2-8.5 26.1-25.7 23-44.4-4-24.7-26.1-40-51.6-35.7"/></svg>