<svg xmlns="http://www.w3.org/2000/svg" width="682.667" height="512" version="1.0" viewBox="0 0 512 384"><path d="M.7.7C.3 1 0 87.4 0 192.7V384h30.2l-.6-2.2c-11.8-41.4-7.8-85.2 11.1-121.7 10.2-19.5 18.9-30.8 36.2-46.4 12.7-11.6 33.4-23.7 49.6-29.2 4.4-1.5 8.9-3.1 10-3.5 1.1-.5 3.6-1.1 5.5-1.4s6.9-1.3 11-2.2c9.6-2.2 42.9-2.6 53.5-.6 19 3.6 30.7 7.3 43 13.5 18.7 9.5 24.8 12.2 34.5 15.2 36.4 11.5 79.1 9.3 113.5-6 12-5.3 15.6-7.2 24.8-13.3 9.4-6.1 23.8-17.7 26.5-21.4.7-.9 1.8-2.3 2.5-3s3-3.6 5.2-6.3c2.2-2.8 4.2-5.2 4.5-5.5 1.4-1.4 12.1-18.4 15.2-24.1 13-24 19.7-58.5 16.9-86.6-1.3-13.2-4-28-6.5-34.8l-1.4-4L243.3.2C110.2.1 1 .3.7.7M325 13.4c10.1 4.1 18.5 13.5 21.5 24.1 6.3 21.6-8.4 44.2-30.8 47.4-12.7 1.8-24.2-2.3-33-11.9-7.1-7.6-9.8-14.6-10-25.5-.1-7.1.2-8.8 3.1-15 5.1-10.8 12-16.9 23.2-20.7 7.5-2.5 17.4-1.9 26 1.6"/><path d="M185.3 292c-12.8 4.5-22.6 15-26.7 28.4-2.8 8.8-1.9 21.3 2.1 29.8 5.7 12 15.6 20.2 29.2 24.2 14.7 4.3 31.4-.2 42-11.3 22.6-23.9 12.1-62-19.8-71.7-6.6-2-20.4-1.7-26.8.6"/></svg>