<svg xmlns="http://www.w3.org/2000/svg" width="682.667" height="512" version="1.0" viewBox="0 0 512 384"><path d="M0 116c0 63.8.2 116 .5 116 .2 0 1.4-1.9 2.5-4.3 7.5-15.4 26.3-37.4 42.7-50 10.7-8.2 31.4-19.9 37.6-21.1.7-.2 2.6-.8 4.2-1.5 27.3-10.7 60.5-12.4 91.8-4.7 7.2 1.8 16.8 4.8 21.2 6.5 9.7 3.9 25.5 12.2 31.3 16.5 11.8 8.6 19.2 14.8 23.9 19.9 11.7 12.8 28.3 25 44.5 32.7 41.1 19.6 86.3 21.9 129.3 6.7 4.8-1.7 24.8-11.7 26.6-13.2.8-.8 1.9-1.5 2.3-1.5s3.5-2.1 6.9-4.8c19.4-15 27.5-23.4 40.9-42.6l5.7-8.1.1-81.3V0H0zm359.4-85.7c9.3 4.3 14 8.8 18.2 17.2C389.2 71 376.3 97 350.5 102c-7.3 1.4-18.3-.5-24.9-4.4-28.9-16.9-24.1-58.6 7.9-69.3 6.6-2.1 18.9-1.2 25.9 2M153.8 273.9c-12.9 4.1-22.8 13.3-27.3 25.2-5.1 13.3-2.8 30.6 5.4 41.5 13 17.3 35.9 23.2 54.3 14.2 13.1-6.5 21-16.9 23.9-31.6 2.5-12-1.9-26.8-10.6-36.1-12.3-13.2-29.9-18.2-45.7-13.2M0 382.4c0 .9.5 1.6 1 1.6.6 0 1-.4 1-.9 0-.6-.4-1.3-1-1.6-.5-.3-1 .1-1 .9"/></svg>