<svg xmlns="http://www.w3.org/2000/svg" width="682.667" height="512" version="1.0" viewBox="0 0 512 384"><path d="m0 95.7.1 95.8 3.7-4.5c11.7-14.2 29.7-29.3 46.2-38.8 23.5-13.4 56.3-21.2 82.9-19.8 41.9 2.3 81.2 20.1 109.7 49.8 3.9 4 9 10 11.5 13.3 9.7 13.2 18.8 23 29.4 31.8 8.8 7.2 7.8 6.5 15.5 11.4 34.1 21.3 73.2 29.3 115 23.5 17.5-2.5 42.5-12.3 58-22.7 2.9-1.9 5.4-3.5 5.7-3.5 1.6 0 14.4-11 23.6-20.2l10.7-10.9V0H0zm373-55.5c21.1 9.7 29.1 34.5 17.6 54.2-8.2 14.1-26.7 21.6-42.1 17.1-11.7-3.4-21.3-11.7-25.4-22.4-8.4-21.2 2.3-43.4 24.4-50.8 6.4-2.1 18.9-1.2 25.5 1.9M144.2 262.5c-3.5.8-8.4 2.4-11 3.6-5.6 2.8-15.2 12.1-17.9 17.4-9.5 18.7-5.8 39.6 9.2 53.3 15.9 14.6 38.1 16.1 55.1 3.9 12.1-8.7 17.9-21.3 17.2-37.1-.5-12.6-4.5-21.2-13.6-29.7-7.1-6.7-12.3-9.3-22.2-11.5-7.8-1.6-8.7-1.6-16.8.1"/></svg>