<svg xmlns="http://www.w3.org/2000/svg" width="682.667" height="512" version="1.0" viewBox="0 0 512 384"><path d="M0 66c0 36.3.2 66 .5 66 .2 0 4.4-3 9.2-6.7 43.1-32.8 96.4-41.7 148.3-24.6 16.8 5.5 38.5 18.2 54 31.6 17.3 14.9 33.7 37.5 41.7 57.4 10.9 27.3 22.4 44.8 40.5 61.8 20 18.7 43.9 32.2 70.8 39.9 18 5.2 43.8 6.9 62.2 4.1 11.6-1.7 14.2-2.4 30.9-7.5 13-4.1 32.3-14.1 44.2-22.9l9.7-7.3V0H0zm395.7-3.6c15.2 7 24.4 23.9 21.6 40-3.6 21-22.9 35.3-42.8 31.9-20.4-3.5-33.4-19.4-32.3-39.8.9-16.5 10.5-28.6 27.3-34.4 1.7-.6 6.8-.9 11.5-.8 6.9.2 9.7.8 14.7 3.1M123 240.1c-11.9 2.3-23.8 11.7-29.6 23.4-9.8 19.7-3.1 43.5 16 56.5s47 7.3 59.7-12.2c5.1-8 6.9-14.3 6.9-24.2-.1-28.4-25.2-49-53-43.5"/></svg>