<svg xmlns="http://www.w3.org/2000/svg" width="682.667" height="512" version="1.0" viewBox="0 0 512 384"><path d="M0 35v35l5.1-3.3C23.8 54.8 37 49.3 61.5 43.3c10.3-2.6 12.4-2.8 33.5-2.8 25 0 30.5.8 50 7.3 22.6 7.5 43 19.7 59 35.2 29.8 28.9 47.9 66.9 50.5 106 1.4 22.4 3.4 33.8 8.2 48.5 12 36.6 40.3 71.3 73.9 90.6 13 7.5 22 11.1 41.9 17 20.1 5.8 64.9 4.8 84.5-2.1 19.7-6.8 27.9-10.7 44.3-20.6l4.7-2.9V0H0zm416.2 59.2c11.2 5.2 19.3 15.8 21.8 28.3 3.1 16-6.1 33.5-21.7 41.2-5.2 2.5-6.8 2.8-15.8 2.8-8.7 0-10.7-.4-15.7-2.7-14.9-6.9-23.8-22.1-22.5-38 1.3-15.5 12.1-28.7 27.7-33.9 1.4-.5 6.6-.7 11.5-.6 7.2.2 10.1.8 14.7 2.9M96.8 209.4c-10.7 4.4-19.9 13.6-24.4 24.4-2.4 5.7-2.8 8.1-2.8 16.2-.1 15.5 5.6 27.2 17.5 36.1 8.9 6.8 17.3 9.3 28.8 8.7 7.8-.4 9.9-.9 16.4-4.1 20.3-10 29.6-33.8 21.6-55.2-4.6-12.5-16.2-23.4-28.4-27-8.3-2.4-21.7-2-28.7.9"/></svg>