<svg xmlns="http://www.w3.org/2000/svg" width="682.667" height="512" version="1.0" viewBox="0 0 512 384"><path d="M0 26.5C0 41.1.2 53 .3 53c.2 0 4.2-2.3 8.8-5.1 15.2-9.1 28-14.4 46.9-19.3 15.3-4 24.3-4.9 43.7-4.3 19.1.5 29.9 2.2 44.9 7.2 7.6 2.6 31.4 13.5 33.7 15.6.7.6 3.9 2.7 7.2 4.9 28.7 18.4 54.5 55.3 64 91.5 3.9 14.5 4.8 23.2 5 48 .2 13.7.8 28.7 1.4 33.2 7.1 55.8 47.8 107.9 100.7 129.2 20.7 8.3 40.4 11.6 66.1 10.9 23.3-.7 43.3-5.3 63.9-14.8 7-3.2 21.7-11.9 22.2-13.2.2-.4 1-.8 1.8-.8 1.2 0 1.4-23.7 1.4-168V0H0zM418.3 103c25.3 9.5 32.8 42 14.3 61.8-18.1 19.4-50.6 14.5-62-9.1-15.1-31.2 15.3-64.8 47.7-52.7M104 196.8c-4.7.4-12.2 2.9-17.4 5.8-5.4 3-13.7 11.7-16.5 17.2-11.4 22.3-2.6 49.9 19.3 60.7 17.7 8.8 36.4 5.8 50.4-8.1 15.9-15.9 17.4-39.9 3.6-58.3-4.8-6.4-14-13.3-20.2-15.1-4.7-1.5-14.7-2.6-19.2-2.2"/></svg>