<svg xmlns="http://www.w3.org/2000/svg" width="682.667" height="512" version="1.0" viewBox="0 0 512 384"><path d="M238.2 2.2c21.7 34.2 31.9 68.6 31.9 107.8 0 28.9-4.5 52.4-14.2 74.2-14.5 32.6-20 57.7-19.4 88.3.8 37.6 12 74.9 31.8 105l4.2 6.5H512V0H236.8zm186 141.9c19.2 4.1 31.8 20.7 30.6 40.4-1.5 22.6-22.3 39.1-44.6 35.5-26.9-4.4-41-36-26.2-58.9 8.9-13.7 24.5-20.3 40.2-17M87.7 154c-10.2 2.6-22.9 12.5-28 21.8-14.1 25.9-.3 58.4 27.9 65.6 11.9 3.1 24.6.9 34.7-5.8 10.7-7.1 17.8-18.1 20-31.1 3.2-18.5-7.4-38.4-25-47.1-6.8-3.3-8.5-3.7-16.7-4-5-.2-10.8.1-12.9.6"/></svg>