<svg xmlns="http://www.w3.org/2000/svg" width="682.667" height="512" version="1.0" viewBox="0 0 512 384"><path d="M241 .5c0 .3 1.7 4 3.9 8.3 16 32.1 22.5 58.5 23.5 96 .8 26.9-4.1 57.1-12.9 79.7-12.7 32.8-16.6 52.8-16.6 85 .1 17.6.7 24.3 4 43.1 4.6 25.6 11.3 44.4 24.2 67.6l2.1 3.8H512V0H376.5C302 0 241 .2 241 .5m192.2 150.3c8.4 4.1 14.3 10 18.2 18.2 2.8 5.9 3.1 7.4 3.1 16.5 0 8.8-.3 10.7-2.7 15.7-3.7 8-10.7 15.2-18.7 19.1-6.1 3-7.3 3.2-16.6 3.2-8.8-.1-10.7-.4-15.5-2.8-32.6-15.8-29.7-61.1 4.5-72.3 2.3-.8 7.5-1.3 12.5-1.1 7.4.2 9.5.7 15.2 3.5m-344-.3c-33 7.2-46.1 46.6-24.5 73.3 12.8 15.8 38.6 20.2 55.9 9.6 16.6-10.2 25.4-30.7 20.9-48.9-4.3-17.5-16.7-30-33.6-34-7.7-1.8-10.4-1.8-18.7 0"/></svg>