<svg xmlns="http://www.w3.org/2000/svg" width="682.667" height="512" version="1.0" viewBox="0 0 512 384"><path d="M69 .9c0 .4 1.3 2.4 2.8 4.3s4.3 6.9 6.2 11.1 3.9 7.6 4.4 7.7c.4 0 .6-.8.3-1.8-3.1-10.1-4.8-16.5-4.4-16.9.3-.2 1.7 1.3 3.1 3.4 2.6 3.8 2.6 3.8 2.6 25C84 52 83.8 55 82.5 55c-.8 0-1.5.7-1.5 1.5 0 1.2-.5 1.2-4.1 0-4.1-1.5-4.1-1.5-3.6.8.3 1.2 1.1 3.6 1.8 5.4 1.1 2.7 1 6-.4 20-1 9.2-2.7 26.5-3.8 38.3-1.5 16.6-2.4 22.1-3.8 24-2.8 3.9-3.3 5.1-2.4 4.9 2.2-.4 3.3.3 3.3 2 0 1.2 1.1 2.3 3.1 3 2.6.9 3 1.5 2.6 3.3-.6 2.1-6.7 50.1-6.7 52 0 .4-.7.8-1.5.8-2.1 0-7.7 8.9-7 11.1q.6 1.8-1.5 2.4c-1.9.6-8 8.4-8 10.3 0 .5-2 3.8-4.4 7.3-6.8 10.1-10.8 17.6-9.6 18.4 1.9 1.2 1 3.3-2.4 5.3-2.5 1.5-4.5 4.1-7.1 9.4-2 4-4.1 7.9-4.7 8.5-.7.9-.7 1.7.2 2.8 1.6 1.9.3 5.4-2.4 6.5-3 1.1-12.7 20-13.1 25.5-.2 2.2-1.9 6.1-3.6 8.4-1.8 2.2-1.9 4.6-1.9 29.7V384h512l-.2-25.7-.3-25.8-5.5-1.3c-3-.7-10.8-1.5-17.3-1.9l-11.7-.6-1-3.6c-4.7-17.9-8.3-38.8-11-63.6-2.3-20.9-4.8-33.2-8.4-41.2-8.5-18.5-30.3-38-56.8-50.7-4.5-2.2-7.8-4.4-7.8-5.2s2.2-7.2 5-14.1c7-17.6 6.7-21.3-1.7-21.3-3.1 0-4.3-.4-4.3-1.5 0-.8 2-9.3 4.5-18.8 2.4-9.5 5.6-24.1 7.1-32.3 2.6-14 2.7-16.8 2.8-45.6l.1-30.8H237.3C143.6 0 69 .4 69 .9m56.4 60.3c2.4 5.4 2.4 5.7.6 5.5-1.1-.1-2-.5-2-.9s-.6-.8-1.4-.8c-2.3 0-2.8-1.6-2-6.6.8-5.3 1.4-4.9 4.8 2.8m4.2 13.5c-.6.8-2 2.3-3.1 3.4l-2 2-.3-3c-.2-2 .5-4.2 1.9-6.3l2.3-3.2 1.2 2.9c.8 2.1.9 3.2 0 4.2m251.1 10.5c-.3.7-.5.2-.5-1.2s.2-1.9.5-1.3c.2.7.2 1.9 0 2.5m-2.1 19.6c-2.7 24.3-2.5 23.2-4.7 23.2-1 0-1.9-.3-1.9-.8 0-2.3 7.5-39.2 7.8-38.2.2.6-.3 7.7-1.2 15.8m-177.7 5.3c1 3-.3 8.2-4.9 18.4-.5 1.1-2.1 5.1-3.5 8.9-3.1 8.4-4 9.6-7.4 9.6-1.4 0-5.4.6-8.8 1.4-5.3 1.1-6.3 1-6.3-.1 0-2.6 3.8-8.8 10.8-17.9 3.9-5 8.6-11.6 10.6-14.6 3.8-5.9 6.2-8.8 7.6-8.8.4 0 1.3 1.4 1.9 3.1"/></svg>