<svg xmlns="http://www.w3.org/2000/svg" width="682.667" height="512" version="1.0" viewBox="0 0 512 384"><path d="M252.5 2.7c3.6 14.1 8.4 51.8 9.6 75.3 1.8 35.5-.3 67.4-7.6 114-5 31.6-5.9 42.9-6 69.5 0 48.6 2.3 78.2 8.5 105.5 1.7 7.4 3.3 14.3 3.6 15.2.5 1.7 7.4 1.8 126 1.8H512V0H251.8zM432.7 156c29.6 13.7 30.3 54.9 1.2 69.4-23.5 11.8-50.6-2.1-55.1-28.2-2.2-12.9 1.8-24.8 11.5-33.9 12-11.4 27.9-14.1 42.4-7.3M85.8 145.9c-35.3 11.3-43.2 57-13.7 79.2 17.4 13.2 42 11.2 57.5-4.6 23.5-24.1 13.9-63.5-18.1-74.5-7.3-2.5-17.9-2.6-25.7-.1"/></svg>