<svg xmlns="http://www.w3.org/2000/svg" width="682.667" height="512" version="1.0" viewBox="0 0 512 384"><path d="M255 192v192h257V0H255zm174.1-37.1c15.1 5.8 24.9 19.8 24.9 35.9 0 12.7-5.4 23.6-15.3 31.1-8.3 6.3-15.2 8.3-27.2 7.9-9.1-.3-10.6-.7-16.3-3.8-15.9-8.5-24.6-27.3-19.8-43 4.8-15.9 15-25.6 31.1-29.7 6.2-1.5 16-.9 22.6 1.6m-345.6-8.8c-18.7 6.5-30.5 23-30.5 43 0 20.4 14.3 38.8 33.8 43.5 7.8 1.8 13.6 1.7 21.3-.4 18-5 30-18.7 32.8-37.3 3.3-21.4-9.4-41.7-30.4-48.9-7.8-2.7-19-2.6-27 .1"/></svg>