<svg xmlns="http://www.w3.org/2000/svg" width="682.667" height="512" version="1.0" viewBox="0 0 512 384"><path d="M237 192v192h275V0H237zm174.6-36.8c10 3.7 15.6 9.1 22.5 21.7l3.6 6.6h5c4.1 0 5.5.5 7.1 2.2 1.1 1.3 2.4 2.3 3.1 2.3 1.8 0 .8 5.4-1.5 7.8-1.2 1.2-2.7 3.6-3.4 5.2-.7 1.7-1.6 3.1-2.1 3.1-.5.1-1.2.2-1.6.4l-4.5.9c-3.7.8-5.2 2.1-14.2 12.2-7.7 8.6-17.9 12.4-33.2 12.4-9.5 0-16.1-1.5-22.8-5.1-7.2-3.9-12.8-9.4-15.5-15-1.9-4-2.7-4.8-5.8-5.4-10.9-2-14.6-6.1-12.4-13.6.9-2.8 2-4.3 3.9-5.1 1.5-.6 3.6-1.4 4.7-1.9 1.1-.4 2.9-.9 3.9-1.1 1.3-.2 2.5-1.9 3.5-4.8 3.6-10.3 8.8-15.6 20.4-21.1 11.1-5.1 28.2-5.9 39.3-1.7M67 145.9c-7.7 2.5-11.5 4.6-16.7 9.4-27.8 25.7-15 71.1 22 77.8 18.4 3.4 37.4-6.3 46.1-23.3 9.4-18.6 6.6-37.8-7.9-52.4-9.2-9.4-18.6-13.4-31-13.3-3.9 0-9.5.8-12.5 1.8"/></svg>