<svg xmlns="http://www.w3.org/2000/svg" width="682.667" height="512" version="1.0" viewBox="0 0 512 384"><path d="M207 192v192h305V0H207zm174.6-36.9c5.1 1.9 7.5 3.9 17.4 14l11.5 11.8 3.4-1.5c4.4-1.9 5.1-1.1 1.2 1.2-3.1 1.8-4.3 4.1-1.8 3.1.8-.3 4-.8 7.3-1.2 3.2-.4 9.5-1.3 13.8-2.1 8.4-1.5 11.6-1.2 11.6 1.2 0 .8 1.1 1.9 2.5 2.4s2.4 1.5 2.3 2.2c-.2.7.4 1.3 1.2 1.4.8 0 2 .2 2.6.2 1.2.2 1.2 5.7 0 8.4-.5 1-1.5 1.8-2.3 1.8-1 0-1.3.6-.9 1.5.4 1.1-.3 1.9-1.9 2.5-1.4.5-3 2.1-3.5 3.5l-1 2.6-13.7-.5c-7.6-.3-15.2-.9-17-1.5-3.1-.9-3.3-.7-6.5 3.6-5.1 7.1-8.2 9.8-12.9 11.3-2.4.8-6.6 2.6-9.4 4.1-10.1 5.5-25.2 6.2-36.9 1.8-7.7-2.8-16.8-11.3-20.3-18.9l-2.6-5.7-6.6-.7c-3.6-.3-9.4-.6-12.9-.6s-7.5-.6-9-1.4c-1.5-.7-4.6-1.7-6.9-2.1-3.2-.5-4.3-1.1-4.3-2.5 0-2.1 1.9-3 6.2-3 1.6 0 4.3-.9 5.9-2.1 2.3-1.6 5-2.1 13.6-2.6 6-.3 11.3-.9 11.9-1.4.7-.6 1.5-2.6 1.9-4.7.4-2 2.2-6.3 4.1-9.4 10.1-16.7 32.7-23.9 52-16.7m-345.8-9.2c-12 3.9-21.1 11.9-26.9 23.6-3 6.2-3.4 8-3.7 16.8-.6 15.2 2.8 24.8 12.2 34.2 16.7 16.9 43.3 17.7 60.6 1.8 17.8-16.4 20-42.6 5.2-62.1-3.8-4.9-13.8-11.7-20.9-14.1-7.8-2.6-18.6-2.7-26.5-.2"/></svg>