<svg xmlns="http://www.w3.org/2000/svg" width="682.667" height="512" version="1.0" viewBox="0 0 512 384"><path d="M0 192v192h512V0H0zM262.3 70.6c4.2.7 4.7 2.5 2 7.2-3.8 6.6 2.2 8.4 9.1 2.8 5.1-4.3 8.5-5.6 13.9-5.6 6.2 0 11.6 1.8 16.8 5.5 2.6 1.8 7.2 4.1 10.3 5.1 6.4 2 6.1 3.2-.9 4.5-3.5.6-5.5.5-8.2-.6-5.4-2.3-7-1.9-7.7 1.6-1 5.3-.8 5.7 4.4 7.4 2.8.9 7.1 3.6 10 6.2 4.5 4 5.7 4.6 9.9 4.7 2.7 0 4.7.4 4.4.8-.2.5.8.8 2.4.8l2.8.1-3 1.4c-2.9 1.3-3 1.3-.5 1.4 2.9.1 6.6 2.1 4 2.1-1.5 0-5.6 4-5.2 5 .1.3-1.3.6-3.1.7-1.7.2-4.9.5-7 .9-3.4.6-3.6.8-2 1.9 1.6 1.2 1.4 1.3-1.2.9l-3-.5 3.1 1.5c1.8.8 4 1.3 5 1.3 1.7-.2 2 .9 2.8 8.5.9 8.5.9 8.6 3.9 9.2 1.6.3 8.2.6 14.7.6 10.6 0 11.8.2 11.6 1.7-.1 1.7-.8 2.9-3.3 5.7-1.1 1.3-10.9.5-25-1.9-3.1-.5-4.3-.4-4.3.4 0 2.2 8.4 5 17 5.6 6.7.6 11.1.2 20.5-1.5 16.4-3 38.4-3.1 41.4-.1 1.3 1.3 1.6 2.1.8 2.5-.7.2-.4.5.6.5 1 .1 1.5.6 1.2 1.1-1 1.6 1.4 4 3.3 3.3.9-.3 1.4-.3 1 .2-1.3 1.4 1.8 3.4 4.3 2.8 2.2-.6 2.3-.5.9 1.2s-1.3 1.7.9 1c1.6-.5 2.1-.4 1.7.4-.5.7.3 1.1 2 1.1 2.6 0 2.6.1.9 1.3-1 .8-1.5 1.9-1.1 2.5.5.8.2 1-.8.6-.9-.3-1.6-.3-1.6 0 0 .4 1.2 1.1 2.8 1.7 1.7.7 2.2 1.3 1.3 1.6-1.1.5-1.1.7 0 1.4 1 .6.5.9-1.6.9-2.8.1-2.9.2-.7 1 2.9 1.2 2.9 2.4 0 1.7-2.1-.5-2.1-.5-.5.7 2.1 1.6 2.2 2.6.1 2.6-.8 0-1.2.4-.9 1 .6.9-3.3 2.4-5.1 1.9-1.5-.5-5.4 1.2-5.4 2.3 0 .5-.7.7-1.6.4-.8-.3-1.3-.2-1 .3s-.6 1.2-2 1.5c-2.5.7-2.6.8-.8 2.2 1.9 1.5 1.9 1.5 0 .9-1.1-.3-2.3 0-2.7.7-.6.9-1.1.9-2.3-.1-.8-.7-3.2-1.4-5.3-1.5s-5.5-1-7.6-2c-2.1-.9-9.5-2.6-16.5-3.7-17.3-2.7-24.5-4.5-30.3-7.5-2.8-1.3-5.3-2.2-5.8-2-.4.3-2.2.2-3.8-.3-4.7-1.4-5.8-.1-4.4 5.2 2.3 9.5.7 12.8-5.5 10.9-3-.9-3.6-.8-4.4.9-1.3 2.3-3.8 2.4-6.8.3-2-1.4-2.3-2.3-2.1-7.5.1-3.2-.1-6.2-.5-6.7-.4-.4-7.1-.6-14.8-.4-16.6.3-17.8.1-17.8-3.8 0-3.3-.4-3.7-5.1-4.5-4.2-.8-43.3-3.5-43.7-3-.2.1 2 .8 4.7 1.5 2.8.7 5.1 1.6 5.1 2s2.2 1.3 4.9 2c4 .9 4.9 1.6 4.8 3.2-.2 2.7-3 2.2-21.7-3.7-12.8-4.1-14.7-4.5-17-3.3-1.4.7-2.8 1.7-3.1 2.1-1 1.4-5.9-1.2-6.9-3.7-.7-1.9-1.9-2.6-4.7-3.1-2.1-.3-5.3-.8-7.2-1.1-3.4-.5-8.1-4.6-8.1-7 0-2.8 8.2-2.7 33 .5 4.1.6 16.1 1.7 26.5 2.6 10.5.8 20.9 1.8 23.3 2.1 3.9.6 4.5.4 7.7-3 2.9-3.1 5.8-7.8 12.3-20 1.1-2.2 1.2-3.3.4-4.7-.6-.9-1.4-4.1-1.7-7.1-1-9-1.3-9.7-5.4-11.7-2.1-1.1-4.1-2.7-4.4-3.6-1-2.3 1-6.4 3.6-7.6 3.1-1.4 5.4-4.9 3.2-4.9-.9 0-2.6-1.1-3.8-2.3-1.2-1.3-4.4-4.1-7.2-6.2-8.9-6.7-11.9-11.5-8.8-14.6.8-.8 1.7-.8 3.2 0 2.5 1.4 2.5 1.3.6-3.2-1.5-3.6-1.5-3.7 1.2-5.1 3.1-1.7 5.1-1.9 10.6-1m126.3 127.5c1.9 2.2 1.9 2.2-.3 1-2.4-1.2-3.9-3.1-2.5-3.1.5 0 1.7 1 2.8 2.1"/><path d="M274 113.4c0 2.1 1.1 4.6 2 4.6.5 0 .7-.8.5-1.8-.2-.9-.4-2.3-.4-3-.1-1.7-2.1-1.5-2.1.2m33 16c0 .2.7.7 1.6 1 .8.3 1.2.2.9-.4-.6-1-2.5-1.4-2.5-.6m-4.4 3c1.3 4.4 1.9 4.8 3.8 2.7 2.1-2.4 1.5-3.7-1.9-4.3-2.2-.5-2.5-.3-1.9 1.6m-24 13.3c-1 2.1-3.6 6.6-5.8 10-5.9 9.2-4.8 10.6 3.4 4.4 3.7-2.8 7.4-6.4 8.2-7.9 1.3-2.4 1.2-3.1-.7-6.5-1.1-2-2.4-3.7-2.7-3.7s-1.4 1.7-2.4 3.7"/></svg>