<svg xmlns="http://www.w3.org/2000/svg" width="682.667" height="512" version="1.0" viewBox="0 0 512 384"><path d="M190 192v192h322V0H190zm176.1-37.4c6.6 2.1 12.9 6.5 17.5 12.3 2.1 2.8 4.3 5 4.7 5.1.5 0 3.2 2 6 4.4l5.2 4.4 5-1.9c6.7-2.5 8.2-1.8 2.3 1.2-2.7 1.2-4.8 2.6-4.8 2.9 0 .4 6-.4 13.3-1.6 7.2-1.2 15.2-2.5 17.6-2.8s4.9-1 5.6-1.6c1.6-1.3 6.9.5 6 2-.8 1.3 1.4 3.5 4.3 4.4 1.2.4 2.2 1.3 2.2 2.1s1.2 1.5 2.8 1.7c2 .2 2.7.8 2.5 2.3-.1 1 .3 2.7.8 3.7.7 1.3.6 1.8-.3 1.8-1 0-1 .2-.1.8 1.7 1.1-1 4.4-3 3.6-.9-.3-2.4-.1-3.4.5s-1.2 1.1-.5 1.1c2.2 0 1.2 1.8-2.3 3.9-1.9 1.1-3.5 2.8-3.5 3.7 0 1.1-.6 1.5-2 1.1-1.1-.3-2.2-.1-2.5.3-.3.5-1.8.5-3.3 0s-7.2-1.1-12.7-1.3c-5.8-.3-12.6-1.4-16.2-2.5l-6.2-2-1.9 3.2c-3 5-8.3 10.7-11.1 11.8-1.4.5-5 1.2-8 1.4-4.2.4-6 1.2-8.5 3.5-1.7 1.6-4 3.1-5.1 3.4-12.2 2.5-15.9 2.8-21.1 1.7-8.5-1.7-15.6-5.5-21.3-11-4.6-4.5-10.1-13.7-10.1-17 0-1-3.8-1.3-17.2-1.3-17.8 0-21.2-.2-28.6-2.1-3.8-1-4.3-1.4-4-3.7.3-2.5.6-2.6 6.8-2.9 3.5-.2 6.9-.7 7.6-1.3.6-.5 8-1.1 16.5-1.4 8.4-.3 15.6-.9 16-1.3.3-.4 1.2-2.9 1.8-5.6 2.2-9.1 11-20 19.8-24.4 3.5-1.8 11.2-3.8 17.3-4.5 4.1-.5 11.2.4 16.1 1.9m-347.4-8.7c-5.9 1.9-12.3 5.6-16.4 9.4-2.3 2-2.3 2.1-2.3 33.8v31.7l3.1 2.7c5.2 4.3 14.4 8.4 21.8 9.7 21.6 3.7 44-11.1 49.6-32.7 3.6-13.9.5-28.7-8.3-40.3-3.4-4.5-13.6-11.6-19.7-13.7-7.6-2.7-20.7-2.9-27.8-.6"/></svg>