<svg xmlns="http://www.w3.org/2000/svg" width="682.667" height="512" version="1.0" viewBox="0 0 512 384"><path d="M164 192v192h348V0H164zm182.7-35.4c3.7 1.7 8 5 11.9 9 3.3 3.5 7.6 6.9 9.5 7.6 3.5 1.2 3.9 1.5 8.9 6l2.9 2.7 7.2-2.9c10.5-4.4 11.6-3.6 2.4 1.5-4.4 2.4-7.3 4.5-6.4 4.5.8 0 1.9-.4 2.5-.9 1.4-1.5 16.6-5.1 25.7-6.1 10.8-1.3 17.4-2.9 21.9-5.1 3.8-1.9 6.4-2.6 4-1-1 .6-.4 1 2.1 1.5 2.7.5 3.4 1.1 3 2.4-.3 1.3.8 2.4 4.4 4.3 3.3 1.7 4.7 3 4.5 4.2s.4 1.7 2 1.7c4.2 0 6.8 1.2 6.8 3.1 0 1-.5 2.1-1 2.4-.8.5-.7 1.2.1 2.2 1 1.2 1 1.6-.2 2.4-1.1.7-1 .9.6 1 1.1 0 1.4.3.8.6-.9.3-1 1-.3 2.3 1.1 2.1-1 2.9-7.5 3-3.8.1-3.9.1-2 1.6 1.7 1.3 1.8 1.6.5 2.4-.8.5-2.5 1-3.7 1-1.3 0-2.2.5-2 1.2.1.8-.7 1.2-2.1 1.1-1.3-.2-2.1.1-1.8.6 1.3 2.1-.7 4.3-3.5 3.9-1.7-.3-2.5 0-2.2.5.4.6-.3.7-1.8.3-4.2-1.2-16.1-3.4-25.2-4.5-4.8-.7-12.6-2.5-17.4-4.2l-8.7-3.1-1.6 2.3c-.8 1.3-3.5 4.5-6.1 7-5.1 5.3-9.9 7.1-16.6 6.2-3.7-.5-4.8-.2-6.8 1.7-1.4 1.3-2.5 2.9-2.5 3.6s-1.7 1.6-3.7 1.9c-2.1.3-6.3 1.3-9.4 2.1-9.6 2.5-15.5 1.8-25.8-2.8-9.2-4.1-16.7-12.3-20.1-22.1l-1.8-5.2-20.9.1c-11.4.1-22.4.3-24.3.4-1.9.2-7.7 0-12.8-.5-8.6-.7-9.3-1-9.8-3.2-.4-1.4-.2-2.9.3-3.4 1.3-1.3 28.1-1.6 48.4-.6l16.6.9.6-5.9c.9-9.6 8.4-20.6 18.6-27.1 8.5-5.4 12.1-6.3 24.8-5.8 9.6.4 12.1.8 17 3.2M0 189v45h5.3c6.6 0 17.1-2.9 22.9-6.3 9.4-5.5 17.5-16.3 20.4-27.1C56.1 172.4 35.1 144 6.8 144H0z"/></svg>