<svg xmlns="http://www.w3.org/2000/svg" width="682.667" height="512" version="1.0" viewBox="0 0 512 384"><path d="M159 192v192h353V0H159zm175.5-43.6c11.7 3.1 21.9 11.4 26.8 21.8 2.4 5.2 3 5.8 5.7 5.8 1.7 0 2.9.4 2.6.9-.6.9 5.6 5.1 7.5 5.1.6 0 4.5-1.4 8.7-3 11.6-4.7 13.3-3.3 2.3 1.9-5.8 2.8-8.9 4.7-8.3 5.3s1.7.6 2.9 0c3.6-2 21.8-6.1 34.3-7.7 6.9-1 13.2-2.4 14.1-3.1.9-.8 1.8-1.2 2.1-.8.3.3 2.2-.2 4.2-1s3.4-1.2 3.2-.7c-.3.4.7 1.4 2.1 2 2.2 1 2.4 1.4 1.2 2.2-1 .6-1.1.9-.1.9.7 0 1 .4.7 1-.3.5-.1 1 .5 1s2 .8 3.1 1.9c1.3 1.1 2.8 1.7 4.1 1.3 1.4-.3 1.9-.1 1.4.6-.4.7-.2 1.2.5 1.2.8 0 .8.4-.1 1.5-1.1 1.3-.6 1.5 3.9 1.5 3.2 0 5 .4 4.6 1-.3.6.4 1 1.6 1 2.1 0 2.1.1.6 1.8-1 1-1.4 2.2-1 2.5.3.4.1.7-.6.7-1.3 0-1.1 3.1.3 4.2.5.3 1 1.8 1.1 3.2 0 2.1-.4 2.6-2.2 2.6-1.3 0-2.3.5-2.3 1.1 0 .7-1 .9-2.5.5-1.7-.4-3.1-.1-4.1.9-1.4 1.3-1.3 1.5.5 1.5 1.2 0 2.1.4 2.1.9 0 1.2-2.5 2.1-5.6 2.1-1.4 0-2.3.4-1.9.9.3.5-.3 1.2-1.4 1.6-1.2.4-1.7 1.2-1.4 2.4.7 2.7-1.9 4.3-5.1 3.1-3.4-1.2-3.9-1.3-3.1 0 .3.5-1.1.3-3.2-.4s-8.5-1.9-14.3-2.5c-13.6-1.6-21.8-3.4-30.9-6.6l-7.3-2.7-1.6 2.4c-3.2 4.6-13.3 13.8-16 14.5-3.4 1-13.8.9-17.4-.2-2.6-.7-2.8-.5-2.8 1.9 0 3-2.9 4.6-8.6 4.6-4.5 0-32.3-11-39-15.4-2.8-1.9-7.3-6-10-9.1l-4.8-5.6-24.1.5c-13.2.2-24.9.5-26 .5-4 .3-22-1.5-23.3-2.2-1.4-.9-1.6-5.3-.3-6.2 2-1.2 24.3-2.2 32.3-1.5 4.6.5 14.9 1.1 23 1.5l14.6.7v-7.4c-.1-9.9.6-13.1 4.1-18.2 6.3-9.1 15.4-15.1 28.3-18.5 12.6-3.4 16.9-3.7 24.3-1.7M0 189v45h2.3c3.9 0 14.6-2.9 18.9-5.1 5.8-3 15-11.9 18.1-17.7 8.8-16.4 7.3-36-4-50.7-6.9-8.8-21.5-16.5-31.5-16.5H0z"/></svg>