<svg xmlns="http://www.w3.org/2000/svg" width="682.667" height="512" version="1.0" viewBox="0 0 512 384"><path d="M154 192v192h358V0H154zm186.2-46.8c3.2 1.5 7.3 3.9 9.3 5.5 4.7 3.7 11.3 13.5 12.6 18.9.8 3.2 1.6 4.4 3 4.4 1.2 0 1.6.5 1.3 1.4s.5 2 2.3 3c1.5.8 2.2 1.5 1.6 1.6-2.3 0-1.4 1.5 1.8 2.9 2.8 1.2 3.8 1.2 7.8-.2 9.8-3.3 16.2-5 16.8-4.4.6.7-13.9 7.7-15.8 7.7-1.2 0-1.2 1.7 0 2.5.5.3 4.3-.4 8.3-1.4 10.4-2.9 20.9-4.9 31.1-6 4.9-.6 12.3-2.2 16.5-3.7 5-1.7 7.8-2.2 8-1.5.2.6 1.5 1.1 2.8 1.1 2.8 0 3.2 1.5.7 2.9-1.7.9-1.7 1 .2 1.7 1.1.4 2.6 1.4 3.3 2.1s2 1.3 2.8 1.3 1.2.4.9 1c-.3.5.9 1.6 2.7 2.4s2.7 1.5 2 1.5c-3.1.2.3 2.1 3.8 2.1 3.6 0 7 2 7 4.1 0 .5-.8.9-1.7.9-1.5 0-1.6.2-.3 1 1.2.8 1 1-1 1.1h-2.5l2.3 1.1c2.4 1.2 3.1 3.1.7 2.2-2.5-1-1.7.5 1.3 2 1.5.8 2.1 1.5 1.3 1.6-1.1 0-1 .4.3 1.9 1.6 1.8 1.5 1.9-2.9 2.6-4.3.6-4.5.8-2.8 2.1 1.4 1.1.8 1-3-.2-2.6-.9-5.1-1.3-5.4-1-.4.3-.1.6.5.6.7 0 1.2.7 1.2 1.5s.5 1.5 1.1 1.5c.8 0 .8.5-.1 1.5-.7.8-2 1.5-2.9 1.5s-2.1.4-2.6.9c-.6.5-2.1 1.1-3.4 1.3-2.3.3-2.4.4-.8 2 1.7 1.6 1.6 1.8-.3 2.8-1.1.6-1.8 1.5-1.5 1.9.4.8-11-1-15.4-2.3-.9-.3-7.7-1.3-15.1-2.1-9.3-1.1-16.7-2.7-24-5.1l-10.5-3.5-1.8 2.3c-4.5 6-11.5 13.1-14.2 14.6-2.9 1.5-15.1 2.2-20 1.1-1.2-.2-1.9.1-1.8.8.4 1.7-6.6 3.4-11.8 2.8-2.4-.2-8-1.7-12.4-3.3-7.2-2.5-8.1-3.1-9.1-6.1-.9-2.9-2-3.7-8-6-7.5-3-13.6-6.5-20-11.8l-4.1-3.3h-27.7c-23 0-27.8.2-28.2 1.4-.6 1.5-3.3 1.5-7.4-.1-1.4-.6-6.5-1.3-11.4-1.7-5-.4-9.8-1.2-10.8-1.7-2-1.1-2.4-5.4-.7-6.5 2-1.2 27.8-2.5 29.7-1.5.9.5 12.4 1.2 25.6 1.6l23.8.8-.7-3.4c-.4-1.9-1.3-4.4-2.1-5.7-.8-1.2-1.2-2.7-.9-3.2s.1-1.1-.4-1.4c-1.1-.7-1.2-9.6-.1-11.1.3-.6.7-2.3.8-3.8.2-2.6 3.6-7.2 10.6-13.9 3.5-3.5 13-8 22.1-10.7 5.7-1.7 9.4-2 19.5-1.8 11.1.2 13.1.5 18.2 2.9M0 189.1c0 42.4.1 45 1.8 44.5.9-.2 3.3-.8 5.2-1.1 6-1.3 15.1-6.5 20.5-11.9 16.9-16.8 17.3-45.1.8-62.7-5.4-5.8-10.5-9.1-18.8-11.9C-1 142.4 0 137.7 0 189.1"/></svg>