<svg xmlns="http://www.w3.org/2000/svg" width="682.667" height="512" version="1.0" viewBox="0 0 512 384"><path d="M138 192v192h374V0H138zm193-74c2.5 1.2 7 4.2 10 6.5s8.3 6.1 11.8 8.4 6.6 5 6.9 5.9 1.3 3.5 2.3 5.7c1 2.3 2.1 6.1 2.5 8.6.5 3.5 1.8 5.6 5.8 10 5.7 6.2 7.2 9.5 3.8 8.4-3.4-1-2.4.8 2.4 4.4s5.6 5.1 2.6 5.1c-1 0-2.5.8-3.2 1.7-.9 1.1-1 1.4-.2.9.9-.5 1.1-.2.7.8-.3.9-1.1 1.6-1.6 1.6-.6 0-.8.6-.5 1.4.4 1 0 1.2-1.3.9-1.4-.4-2.1.2-2.6 2.2-.4 1.5-.2 3.1.5 3.8 1.3 1.3 1.5 3.1.2 2.3-.8-.5-2.6 4.2-1.9 4.9.2.2 7.6 1.9 16.4 3.9l16.2 3.6 14.8-3.2c13.2-2.8 16.9-3.2 31.9-3.3 16 0 18.2.2 22.5 3 .8.5 2.8.8 4.5.7l3-.1-2.7 1.2-2.8 1.3 3.9 4.2c2.2 2.3 4.5 4.2 5.1 4.2s.9.4.6.8c-1.2 1.9 4.5 5.2 9.1 5.2 2.1 0 2.4.2 1.3 1.5-1 1.2-1 1.5.1 1.5 1.8 0 3.9 3.3 3.1 4.7-.4.5-1.4 1.2-2.2 1.5-.9.3-.2.8 1.8 1.2 3.3.8 4.5 2.6 1.6 2.6-.8 0-1.2.4-.9 1 .3.5 1.5 1 2.6 1 1 0 1.9.4 1.9.8 0 1.2-5.1 3.6-7 3.4-.8-.1-.1.5 1.5 1.5l3 1.6-2.9 1.2c-1.9.8-2.4 1.4-1.5 1.7 1.1.4 1.2.8.2 1.9-1.1 1.1-1.3 1.1-1.3-.1 0-1.1-.3-1.1-1.2-.2s-.7 1.7.8 3.3l1.9 2.1-4-1.6c-4.2-1.8-9.7-1.4-7.7.6 1.7 1.7-.8 3.5-4.5 3.3-2.3-.1-3 .2-2.6 1.3.5 1.1.1 1.3-1.8.7-2.2-.7-2.3-.6-.9 1s1.2 1.7-3 1.1l-4.5-.7 3.5 2c2.4 1.4 2.9 2 1.6 2.1-1.7 0-1.7.2-.2 2.4l1.6 2.5-4.6-2c-2.5-1.2-4.8-1.9-5-1.6-.3.2.9 1 2.5 1.7 1.6.6 3.2 1.8 3.5 2.6.7 1.8.6 1.8-5.1-1-17.3-8.6-28-12.4-38.8-14.1-11.7-1.7-25.7-5-28.7-6.6-1.6-.8-2.9-.1-7.4 4-3.4 3.1-6.5 5.1-7.9 5.1-1.3 0-3 .6-3.7 1.3-2.1 2.2-5 3.4-9.5 4.2-4.8.8-4.7.6-3.3 5.4 2.5 8.7-7.4 8.1-11.9-.7-1.7-3.4-2.5-3.9-8.3-5.1-3.4-.7-7.5-1.5-8.9-1.7-1.5-.2-5.7-1.5-9.5-2.9-4-1.5-10.7-3-16.3-3.5-12.9-1.3-14.8-2.2-15.6-7-.4-2.2-.4-4.7-.1-5.8.8-2.6-4.1-7.1-8.5-7.7-5.3-.7-54.1-2.7-54.6-2.2-.2.3 1.2.8 3.2 1.1 3.5.7 4.5 1.9 2.5 3.1-2.6 1.6.4 3.2 7.7 4.1 3.2.3 6.3 1.4 6.3 2.2 0 .4-.4 1.3-.9 2.1-1.2 1.9-12.3-.6-30.6-7-16.8-5.8-27.6-8.3-28.7-6.6-.4.7-.1 2.2.7 3.4 2.1 3.1 2 3.3-2.1 3.3-3 0-3.7-.4-4.9-3.4-1.8-4.2-2.5-4.5-14.8-5.6-10.4-1-10.9-1.2-14.4-4.4-2.5-2.3-3.1-7.7-1-9.4 1.6-1.3 31.3-.8 34.7.6 1.4.6 14.4 1.8 29 2.7 14.6.8 29.4 1.7 33 2 3.6.2 11.1.7 16.8 1.1l10.3.7 5-4.9c2.8-2.7 7.1-8.5 9.6-12.9s5.3-9.1 6.3-10.5c.9-1.4 2-3.5 2.4-4.8.8-2.5 1.2-2.3-8.4-4.5-11.5-2.7-32.8-14.2-36.9-20-.8-1.2-2.2-2.8-3-3.7-5.9-6.2-7.8-17.3-4.1-24.4 1-2.2 1.7-4.2 1.5-4.7-.6-.8-1.4-6.9-1-6.9.1 0 2.3.9 4.8 2 4.2 1.9 4.9 1.9 10.4.5 3.2-.8 11-1.9 17.3-2.4 9.2-.9 12.1-1.5 14.4-3.3 9-6.6 26.4-8.5 35.6-3.8"/><path d="M345 191c0 .6.7 1 1.5 1s1.5-.2 1.5-.4-.7-.6-1.5-1c-.8-.3-1.5-.1-1.5.4m-32.8 15.2c-.7.7-1.2 2-1.2 3.1 0 1.7.2 1.7 3-.3 1.7-1.2 2.8-2.6 2.5-3.1-.8-1.3-2.9-1.1-4.3.3M0 189.1c0 31.7.3 39.9 1.3 39.3 6.1-3.6 10.3-7.4 14-12.7 7.3-10.4 8.2-13.5 8.2-27.2 0-11.5-.1-12.3-3.2-18.5-3.8-7.7-8.9-13.9-14.8-18-2.4-1.7-4.6-3-4.9-3S0 167 0 189.1"/></svg>