<svg xmlns="http://www.w3.org/2000/svg" width="682.667" height="512" version="1.0" viewBox="0 0 512 384"><path d="M0 192v192h512V0H0zM265.4 70.7c.4.4 1.5.8 2.4.8 1.4 0 1.7 1.1 1.7 6v6l3-.4c1.7-.2 4.7-1.9 7.1-4.1 5.4-4.9 10-6.4 18.6-5.8 6.2.5 7.7 1 13.1 4.8 3.3 2.4 8 5 10.2 5.9 2.3.9 4.3 2 4.4 2.6.5 1.9-6.8 3-11.2 1.6-2.3-.7-5.5-1.5-7-1.8-2.8-.5-2.8-.5-2.5 4.2.3 4.6.5 4.9 4.3 6.1 5.5 1.9 9.4 4.2 13.2 7.7 2.5 2.3 3 3.4 2.2 4.4-.9 1-.3 1.3 3 1.3 2.3 0 4 .4 3.7.9-.4.5.3.7 1.4.4s2 0 2 .6.9 1.1 2.1 1.1 1.7.4 1.4 1.1c-.4.6-1.4.8-2.4.5q-1.8-.75.3.9c1.1.8 2.5 1.5 3 1.5.6 0 .3.5-.7 1.1-.9.6-2.7.8-4 .4-2.1-.5-2.1-.5.2.8l2.4 1.4-2.2 1.3c-1.3.7-3.7.9-5.6.6-1.9-.4-3.6-.3-3.9.2s-1.8.7-3.3.4c-2.4-.4-2.6-.3-1.6 1 .7.8.9 1.8.5 2.2s1 .6 3 .5c2-.2 4 0 4.4.3.3.4 1 4.4 1.5 8.9.4 4.4.9 8.3 1.1 8.5.7.7 18.3 2.4 24.6 2.4 5.4 0 6.2.2 6.2 1.9 0 1-.7 2.4-1.5 3.1-.9.7-1.3 2-1 2.7.4 1.2-.3 1.4-3.2.9-2.1-.3-7.4-1-11.9-1.6s-9.6-1.5-11.5-2c-6-1.7-5.8.7.3 3.5 8 3.7 17.6 3.7 35.2.2 9.1-1.7 17.1-2.7 23.1-2.7 10.7 0 18.7.9 18 2.1-.3.4.3 1.2 1.2 1.8 1.4.8 1.5 1.1.3 1.1s-1.1.3.3 1.1c.9.6 1.5 1.4 1.2 1.8-.7 1.2 2.2 3.4 3.4 2.7.5-.3 1.1.1 1.4.8.3.8.1 1.7-.6 2-.7.4.1.4 1.7.2 3.4-.4 5.8.2 5.1 1.4-.6 1 5.4 3.2 6.9 2.4.6-.3.2.2-.8 1-1.1.9-2.4 1.6-2.9 1.6-.4 0-.5.4-.2 1 .3.5 0 1-.7 1-.7.1-.4.6.7 1.3s2.1 2 2.3 3.1c.2 1-.1 1.5-.7 1.2-.5-.4-1.2-.2-1.6.4-.3.5.2 1 1.2 1 1.7.1 1.7.2-.1 1.5-1.1.8-1.4 1.5-.8 1.5.7 0 1.2.4 1.2 1 0 .5-.8 1-1.7 1-1.5 0-1.4.2.3 1.6 1.5 1.2 1.6 1.5.2 1-.9-.3-1.8 0-2 .5q-.3 1.05-3 0c-3-1.1-7.8.5-7.8 2.7 0 .6-.3 1.1-.7 1-1.4-.3-5.3 1.3-5.3 2.2 0 .5.6 1.1 1.3 1.4.6.4.2.4-1 .2s-2.3 0-2.5.5c-.2.6-2.3.3-4.8-.6l-4.5-1.5 3.5 3.1 3.5 3.1-3.5-2c-9-5.1-10.9-6-17.5-7.5-3.8-.9-11.9-2.4-17.9-3.3-5.9-.8-13.8-2.7-17.5-4.1-4.2-1.7-9.3-2.8-14-3-7.3-.5-7.4-.5-6.7 1.9 2.9 10.4 1.6 14.4-4.4 13.4-2.8-.4-4-.1-5.2 1.3-1.7 2.1-4.9 1.9-6.8-.4-.5-.6-1.2-4.1-1.3-7.6l-.4-6.3-4.9-1.3c-3.5-.9-6.1-.9-9.4-.2-8.2 1.9-16.5 1.6-19-.6-1.4-1.3-1.9-2.6-1.6-4.1.4-1.6.1-2.4-1.1-2.8-2.1-.6-23.5-2.3-37.8-2.9-8.7-.4-9.4-.4-5.3.6 2.7.6 4.8 1.6 5 2.5.2.8 2.6 2.2 5.5 3.1 4.8 1.5 5.1 1.7 3.8 3.5-1.7 2.2.2 2.6-24.2-5.9l-13.2-4.6-2 2c-3.5 3.5-5.8 2.8-10.9-3.3-.7-.9-2.9-1.6-5-1.7-2 0-5.2-.5-7.1-1.2-3.7-1.3-7.7-5.9-6.7-7.6 1-1.6 9.7-1.3 29.1.8 9.4 1.1 26.6 2.7 38.3 3.7l21.3 1.7 3.4-3.4c2.9-3 4.9-6.1 12.3-20.3 1.1-2.2 1.2-3.3.4-4.7-.7-1-1.4-4.4-1.8-7.6-.9-9.4-1.2-10.2-4.8-11.7-3.5-1.5-7.4-5.8-5.6-6.4.5-.2 1-1 1-1.7s1.6-2.5 3.5-3.9c3.9-3 4.5-4.6 1.6-4.6-1.1 0-2.3-.5-2.6-1.1-.4-.6-3.7-3-7.4-5.3-3.6-2.4-7.8-5.6-9.2-7.2-3.1-3.6-3.2-6.8-.2-7.2 2.2-.3 2.2-.4.6-2.8-1.5-2.3-1.4-2.6.3-4.5 3-3.3 8.9-5 10.8-3.2"/><path d="M282 113.9c0 1 .7 2.4 1.5 3.1 1.2 1 1.5 1 1.5-.3 0-2.3-1.1-4.7-2.1-4.7-.5 0-.9.8-.9 1.9m32 15.5c0 .2.7.7 1.6 1 .8.3 1.2.2.9-.4-.6-1-2.5-1.4-2.5-.6m-1.8 3.1c.4 3.2 2.2 3.8 2.6.9.2-1.3-.4-2.4-1.3-2.8-1.3-.5-1.6 0-1.3 1.9m-24.6 11.9c-.9 2.1-3.6 6.9-6.2 10.7-2.5 3.8-4.4 7.6-4.2 8.5.6 3.2 16.8-10.9 16.8-14.6 0-.3-1.1-2.3-2.4-4.5l-2.4-3.9z"/></svg>