<svg xmlns="http://www.w3.org/2000/svg" width="682.667" height="512" version="1.0" viewBox="0 0 512 384"><path d="M119.7 12.2c-.4 6.6-.7 93-.7 192V384h393V0H120.3zM320.4 119c4.5 2.3 20.7 15.7 21.4 17.7.2.9-.9 1.3-3.6 1.3-2.9 0-5.2-1-9.5-4-3.1-2.2-6.7-4-8.2-4-2.5 0-2.6.2-1.9 3.7 1.3 7.2 1.9 8 7.6 9.3 6 1.4 19.8 6.7 21.2 8.1.6.6.4.9-.7.9-1.6 0-1.6.1 0 2 1.2 1.4 3 2 6 2 2.5 0 4.3.5 4.3 1.1s.9.9 2 .6 2-.1 2 .4c0 .6 1.5 1.5 3.3 2.2l3.2 1.1-3 .6-3 .5 3.5 2.2c3.4 2.2 3.4 2.3.9 2.3-3.4 0-4.3 1-2.2 2.5 1.3 1 1 1.1-1.8.8-2.3-.3-3-.1-2 .5 1.6 1.1-.3 2.7-2 1.7-.6-.4-2.6-.4-4.4-.1-2.6.5-3.3 1.1-2.8 2.3s.1 1.4-1.6.8c-2.1-.6-2.2-.5-1.1 1.6 1.1 1.9 1 2.1-.5 1.5-.9-.3-2.9-.9-4.3-1.3-2.5-.6-2.6-.6-.9 1.1.9 1 1.7 1.9 1.7 2.1 0 .5-8.2-.3-11-1.1-2.3-.7-2.4-.6-1.1.9 1.2 1.5 1.2 1.7-.3 1.1-1.7-.7-2.2.6-.7 2.2.5.5 1.6 3.3 2.6 6.2 2 6.1 4.2 6.7 5.9 1.5 1.4-4 4.3-6.9 7.9-7.7 2.3-.5 2.9-.2 3.7 1.8.5 1.3 1.6 2.8 2.5 3.4 1.1.6 2 3.3 2.7 8.5.8 5.5 1.5 7.8 2.7 8.1 1.5.5 21 2.3 30.5 2.9 3.8.2 3.8.3 4 4.5l.2 4.3-5.5-.6-5.6-.5 3.2 1.6c3 1.6 3.8 1.5 17.8-1.1 12.4-2.3 16.1-2.6 24.8-2.1 15 .9 20.8 1.7 20.1 2.7-.3.5.2 1.2 1.1 1.5.9.4 1.5 1.5 1.3 2.8-.2 1.7.1 2 2.1 1.8 1.9-.3 2.2 0 1.7 1.3-.7 2 1 5.5 2.8 5.5.8 0 1.6.7 1.9 1.4.5 1.2 1.3 1.3 3.6.6 3.4-.9 4.2.2 1.3 2-1.5 1-1.4 1.1.5.7 1.3-.3 2.6-.1 2.9.4s0 .9-.7.9c-2 0-.4 1.1 3.8 2.5l3.8 1.4-3.3 1.1c-3.2 1.2-3.3 1.3-1.7 3.7.9 1.4 1.4 2.7 1.1 3-.3.4 0 1.3.6 2.1 1.1 1.3.6 1.4-3.2.8l-4.5-.7 3 1.8c2.9 1.8 4.4 5.3 2.1 5.3-.6 0-.4.5.4 1 1.1.7 1.1 1 .2 1-.7 0-1 .4-.7 1 .8 1.2-3.6 1.3-8.8.1-3.3-.8-3.7-.7-3.2.8.4 1.4-.1 1.7-3.5 1.5-2.2-.1-3.8.2-3.5.6.3.5.1 1.2-.5 1.5-.7.4-.2 1.5 1.2 2.7l2.3 2.1-3.7-.6c-4.3-.7-5.1.9-1.2 2.3 1.4.6 2.2 1.4 1.9 2-.4.6-3-.2-6.5-2-7-3.5-7.9-3.7-5.5-1 3 3.3.1 2.3-3.1-1.1-5-5.3-9.4-6.8-27.7-9.5-17.5-2.5-26-4.5-31-7-2.5-1.4-2.9-1.3-4.5.4-2 2.3-6.1 3.8-12.2 4.7-6.5.8-7.2 1.4-6 5.5 1.4 4.9 1.2 10.3-.4 12.5-1.2 1.6-1.9 1.8-4.2 1-2.8-1-4.5-3.3-6.5-9l-1-2.9-1.2 2.3c-.7 1.3-2 2.9-2.9 3.5-2.7 1.6-4.2-.7-4.8-7.2l-.5-5.7-3.2.3c-1.7.2-3.4-.1-3.8-.7-.4-.7-5.4-1.1-13.3-1.1-15.4 0-19.9-1-20.8-4.7-.4-1.5-.2-3.4.5-4.5 3.1-5-6.1-7-39.4-8.3-7.7-.4-15.3-.8-17-1.1-2.4-.3-2.6-.2-1 .5 1.1.5 3.3 1.2 4.8 1.6 2.7.6 2.8.7 1.4 2.8s-1.2 2.5 3.9 7.9c3 3.1 5.4 6 5.4 6.5 0 .8-4.7 3.3-6.2 3.3-.4 0-2.6-2.4-4.8-5.4-5.1-6.8-9.5-9.6-20.4-13.5-9-3.2-13.6-3.9-13.6-2.1 0 .5-.9 1-2.1 1-1.5 0-1.9.5-1.5 1.6.5 1.2-.1 1.5-2.6 1.2-2.6-.2-3.6-1.1-5.2-4.3l-2.1-3.9-9-1.2c-8.3-1.1-9.2-1.5-11.7-4.5-5.7-6.8-3-8.3 14-7.4 7 .3 14.5 1 16.7 1.5s14.8 1.9 28 3 29.3 2.5 35.8 3.1l11.9 1.1 4.5-4.3c2.4-2.4 7.2-8.9 10.5-14.4 6.7-11 8.4-18.1 5.7-23.2-1.2-2.2-1-3 1.5-7.7 4.5-8.4 4.2-16.2-.7-15.1-1.6.4-3.3-.5-6-3-2.1-2-3.5-4-3.2-4.5 1-1.6-.5-3.2-1.9-2.1-.8.6-2.1.5-4.1-.4-1.7-.7-6.9-2.3-11.7-3.5-9.8-2.3-13.3-3.9-15.3-6.6-1.6-2.3-.3-5.4 2.3-5.4 1.4-.1 1.4-.2-.3-1.2-2.8-1.6-3.6-3.1-2.2-4 1.8-1.2 13.5-1 15.8.3 1.4.7 3.6.7 7.5-.2 5.1-1.2 5.7-1.6 7.9-5.8 5.3-10.1 8.7-12 20.9-12.1 7.1 0 9.8.4 13 2"/><path d="M357 166.4c0 1 2.8 1.3 4.1.5 1-.6.7-.9-1.3-.9-1.6 0-2.8.2-2.8.4m-51.5 38.1c-1.1 3.8-3.5 7.9-7.6 13-5.5 7-7.4 11.5-4.8 11.5 3.2 0 20.3-14.4 21.4-18 .6-1.9-2.8-8.4-5.8-10.8-1.4-1.2-1.8-.7-3.2 4.3m50.1 9.1c-.9 2.4-1 2.3 4.7 4.9 5.5 2.6 18.5 4.6 15.7 2.5-2.7-2-16.9-9-18.4-9-.7 0-1.7.7-2 1.6M.1 189C0 212.8.3 213.8 4 202.1c3.3-10.3 2.3-24.1-2.3-32.6C.2 166.7.1 167.7.1 189"/></svg>