<svg xmlns="http://www.w3.org/2000/svg" width="682.667" height="512" version="1.0" viewBox="0 0 512 384"><path d="M0 192v192h512V0H0zM268.6 70.9c.5.5 2 1.1 3.4 1.3 2.3.3 2.5.7 2.5 5.3v5l3.7-.2c3-.2 4.7-1.2 8.5-5.2 4-4.1 5.8-5.1 10.6-6.2 8.2-1.8 13.7-.3 23.9 6.6 4.5 3.1 9.3 5.8 10.5 6.1 2.7.7 3 1.9.7 2.8-3 1.2-8.9.5-13.3-1.4-6.5-3-7.1-2.7-7.1 2.8v4.8l6.9 2.2c7.2 2.3 15.1 7.3 15.1 9.5 0 .7-.6 2.2-1.4 3.2-1.3 1.8-1.1 2.1 1.6 3.2 1.7.7 4.1 1.3 5.4 1.3 1.2 0 2.6.4 2.9 1 .4.6-.1.7-1.2.3-1-.3-1.5-.3-1.1.1.3.4 1.2.9 2 1 .7.2 2.4.8 3.8 1.4l2.5 1.1-3 .1-3 .1 2.8 1.5c3.2 1.7 3.6 2.9.7 2.1-1.5-.4-2 0-2 1.3 0 1.8-3.5 3.7-5.5 3.1-2.3-.9-8.4-.8-7.9 0 .3.5 2 .9 3.9.9h3.3l1.3 9c.6 5 1.6 9.3 2 9.6.5.3 7.6 1.2 15.9 2.1 13.5 1.5 15 1.9 15 3.6 0 1.8-.5 1.9-7.2 1.2-4-.3-8.2-.9-9.3-1.1-1.5-.4-1.7-.3-.5.4.8.5 3.9 1.2 6.8 1.6 6.7.9 8.2 1.5 8.2 3.3 0 1.6 3.5 1.3 16.3-1.3 11.2-2.3 36.8-1.5 37.1 1.1.1.5.7.9 1.3.9.7-.1 1 .2.7.7s-1.1.9-1.9.9c-2.1 0 2.5 4.7 5.8 5.9 1.8.7 2.5 1.5 2.1 2.6-.7 1.8 0 1.9 2.7.5 1.6-.9 1.9-.7 1.9.9 0 1.5.5 1.8 2.2 1.3 1.4-.3 1.9-.2 1.4.6s.2 1.2 2.1 1.3c2.7 0 2.7.1.6 1.1-3 1.4-3.4 4-.8 5.5 1.1.7 1.4 1.2.7 1.3-.7 0-1 .5-.6 1.1.3.6 0 1.5-.7 2-1.1.7-.9.9.6.9 1.8.1 1.9.1.2 1.1-.9.5-2.2.7-2.7.4-.6-.3-1-.4-1-.1s1.2 1.2 2.8 2l2.7 1.5-3.5.1c-2 0-3 .4-2.3.8s.9 1.3.4 2.1c-.6 1-1.7 1-4.4.3-2.9-.8-3.7-.7-4.1.5-.4.8-1.3 1.3-2.1 1-.9-.4-1.2-.1-.8.9.3.8-.1 1.4-.9 1.4s-2.3.7-3.4 1.5c-1.7 1.3-1.7 1.6-.4 2.6 1.3.9 1.3 1-.1.6-.9-.3-2.1-.1-2.6.4-.6.6-2.3.4-4.6-.6-5.2-2.2-5.7-1.8-1.7 1.5 4 3.5 2.5 4.1-1.7.7s-7.5-5.3-10.3-6c-1.4-.3-4.3-1-6.5-1.6s-9.8-2-17-3.1c-7.1-1-15.7-2.9-19-4.1-4-1.4-9-2.2-14.8-2.4-8.6-.2-8.8-.2-8.2 1.9.4 1.1.9 4.2 1.2 6.8.5 4 .2 4.8-1.6 5.7-1.1.6-3.2.9-4.6.5-1.9-.5-3-.1-3.9 1.1-.9 1.3-2 1.6-4.4 1-3.5-.7-4-1.8-4.6-10.4l-.4-5.5-4.5-1.1c-3.6-.9-6.5-.8-14 .3-8.4 1.4-9.9 1.4-13.3.1s-3.9-1.9-3.9-4.7c0-1.8-.2-3.2-.5-3.3-6.5-1.3-24-2.9-31.2-2.9-7.9 0-8.8.2-8.8 1.9 0 1.3 1.5 2.5 5.1 3.9 4.6 2 4.9 2.3 3.9 4.2-.6 1.2-1.7 1.9-2.3 1.6-10-4.3-24.5-9.9-29.2-11.1-5.1-1.3-6.2-1.3-7-.2-2.6 3.6-10.5 2.2-10.5-1.8 0-1.6-1.5-2.1-9.4-3-4.9-.6-6.5-1.3-8.8-3.7-5.2-5.6-4.3-6.1 9-5.5 6.4.3 20.7 1.4 31.7 2.6 11 1.1 26.1 2.5 33.5 3l13.5.9 3.6-3.4c4-3.9 13.9-21.2 13.9-24.3 0-1.1-.4-2.2-.9-2.5s-1.2-4-1.6-8.1c-.7-7.5-2.1-10.5-5.1-10.5-1.7 0-6.4-4.4-6.4-5.9 0-.5 1.9-2.8 4.2-5 2.3-2.3 3.9-4.3 3.7-4.4-.2-.2-4.8-2.7-10.1-5.6-10.6-5.7-16.7-11.3-14.7-13.7.6-.8 1.8-1.4 2.7-1.4 1.3 0 1.3-.2-.1-1.8-2.4-2.7-2.1-3.6 2.1-7.1 3.9-3.2 5.2-3.6 6.8-2.2"/><path d="M290.4 112.3c-.4 1.1-.1 2.4.8 3.4 2.1 2.1 2.9.3 1.3-2.7-1.2-2.3-1.4-2.3-2.1-.7m30.1 19.3c1.4 4.2 3.5 5.7 3.5 2.6 0-1.1.2-2.7.5-3.5.3-.7 0-1.4-.7-1.4s-2-.4-3-.8c-1.5-.6-1.5-.3-.3 3.1M296 145.2c-.7 1.8-2.8 5.4-4.6 7.9-4.1 5.9-6.6 10.8-6.2 12 .6 1.9 13.2-8.5 15.6-12.9 1.3-2.3 1.9-4.2 1.4-4.2s-1.5-1.4-2.2-3c-1.6-3.8-2.4-3.8-4 .2m42 7.6c0 2.4 19 7.4 24.3 6.4 3.3-.7 1.6-2-3.5-2.7-2.8-.4-8.1-1.6-11.7-2.6-7.3-2.1-9.1-2.3-9.1-1.1"/></svg>