<svg xmlns="http://www.w3.org/2000/svg" width="682.667" height="512" version="1.0" viewBox="0 0 512 384"><path d="M95 192v192h417V0H95zm213.6-56.5c4.3 1.8 21.6 16.4 20.8 17.6-1.2 2-6.2.7-11.8-3.1-3.5-2.4-6.3-3.7-6.8-3.2s-.8 2.7-.6 4.8l.3 3.8 9.5 3.9c11.5 4.6 13.4 6.2 11.7 9.6-.7 1.3-2 2.5-3 2.7-3.3.4-2.9 1 3 4.6 3.2 1.9 5.7 3.9 5.6 4.5-.2.7.6 1.5 1.7 1.8 1.1.4 1.8 1 1.5 1.5-.3.4.2 1.3 1 2s1.5 1.6 1.5 2c0 1.2-2.6.6-4.6-1-1.2-1-.9-.3.7 1.9 1.4 2 2 3.5 1.3 3.8-1 .3-.9 8.7.1 13.9.5 2.1 5.5 3.5 25.6 7.4 5.3 1 5.6 1.2 5.6 4 0 1.7-.1 3-.1 3-.1 0-4.6-1.1-10.1-2.5-5.4-1.3-10-2.3-10.2-2.1s2.4 1.7 5.7 3.5l6 3.2 12.3-2.1c16.3-2.9 32.4-3.6 40.2-1.8 3.8.9 6 2 6 2.9s1 1.3 3 1.1c2.3-.2 2.6 0 1.5.8-.8.5-1 1-.5 1 .6 0 .4.4-.3.9-1.1.6-.6 1.7 2.2 4.5 2.9 2.9 4.2 3.5 6.2 3 1.9-.5 2.3-.3 1.8 1-.4 1.1-.1 1.6 1 1.6.9 0 1.6.4 1.6.9s1 1.2 2.3 1.6l2.2.7-2.1.6c-1.7.6-2 1.1-1.3 2.8.4 1.2 1.2 2.5 1.8 2.8 1.5.9.2 3.6-1.8 3.6-1.4 0-1.4.2-.1 1.1 1.2.8 1.2 1.2.2 1.6s-.9.8.5 1.9c1.7 1.2 1.6 1.3-1.1 1.4-2.8 0-2.9.1-1 1.5 1.8 1.3 1.8 1.4.1 1.5-1 0-1.5.5-1.2 1.1.4.6-1.1.1-3.4-1-4.5-2.4-5.5-2.6-4.6-1 .4.6-.2 1.3-1.4 1.6s-2.1.9-2.1 1.4-1.5 1.5-3.2 2.2c-3.1 1.3-3.2 1.4-1 2.1 1.2.4 2.2 1.1 2.2 1.6 0 .6-1.1.5-2.6 0-3.3-1.3-4.7-1.3-3.8.1.4.6-1.3 0-3.8-1.5-6.1-3.6-6.8-3.3-2.7 1.1 3.6 3.9 3 3.7-3.9-1.6-5.3-4.1-9.4-5.3-28-8.6-8.4-1.5-16.9-3.6-19.9-5-3-1.3-5.5-2-5.8-1.4-.4.5-4.2.9-8.5.9h-7.9l1.4 4.1c2.7 7.6 1.6 13.9-2.4 13.9-2.1 0-6.1-4-6.1-6.1 0-1-.5-2.1-1.1-2.4-.6-.4-.9-.1-.8.6.4 2.4-1.2 6.7-3.1 8.4-1.7 1.6-1.9 1.5-3.5-.8-1-1.6-1.6-4.8-1.7-9.1l-.1-6.6-3.6-.9c-2-.5-9.1-1.1-15.8-1.4-14.3-.7-16.3-1.4-16.3-6.1 0-1.9-.6-3.8-1.2-4.4-1.9-1.4-57.9-7-60.9-6-.6.2 3 1.9 8.1 3.8 5 1.9 9.6 4.2 10.1 5.1.5 1 2.8 2 5.4 2.4 4.1.6 4.5.9 3.9 2.8-1 3.2-.9 3.2-7.5 1.3-6-1.6-11.8-4.4-23.4-11.1-6.6-3.8-9-4.3-9.9-2-.3.8-1.2 1.5-2 1.5s-1.6.5-1.8 1.1c-.5 1.6-5.6-2.9-6-5.3-.3-2-1.3-2.4-7.8-3.5-7.9-1.3-12-4.1-12-8.3 0-2.7 2.8-3.2 10.9-1.9 4 .6 7.8.8 8.6.5s3.6.1 6.2.9c4.9 1.3 31.1 4.5 55 6.6l13.2 1.2 3.8-3.9c2.1-2.2 6.4-7.2 9.6-11.1 6.2-7.8 6.8-10.4 4.2-17.6-1.2-3.5-1.1-4.3.6-8 3-6.7 2.4-13.7-1.2-13.7-1 0-3.3-1.5-5.1-3.4-2.1-2.2-6.6-4.8-12.3-7.2-4.9-2-9.9-4.5-11.1-5.5-1.1-1.1-2.5-1.9-3.1-1.9-3.1 0-3.6-10.6-.4-11.7.9-.3 2.4-1.3 3.3-2.1 2.4-2 7.9-.5 9.3 2.6.9 2.1 1.5 2.3 5.5 1.7 3.7-.5 5.3-1.5 9-5.6 2.5-2.7 5.6-5.3 7-5.8 3.9-1.5 13.7-1.3 17.6.4"/><path d="M320.5 188c.4.8 1.5 2.4 2.4 3.4 1.5 1.8 1.5 1.8-.6.7-1.3-.6-2.3-.9-2.3-.6 0 1.4 3 7.5 3.7 7.5 1.4 0 6.4-7 5.8-8-.4-.6-1-.8-1.5-.5s-2.5-.5-4.6-1.7c-2.5-1.5-3.5-1.7-2.9-.8M298 208.1c-1 4-2.5 6.5-7.3 11.5-3.3 3.6-5.7 6.7-5.4 7.1 1 .9 15.8-8.8 18.1-12 2-2.7 2-2.8.1-6.2-3.2-6.1-4.1-6.1-5.5-.4m38.5 8.9c1 1.7 10.8 7 12.9 7 1.2 0-.5-1.6-4.3-4-5.8-3.8-10-5.2-8.6-3"/></svg>