<svg xmlns="http://www.w3.org/2000/svg" width="682.667" height="512" version="1.0" viewBox="0 0 512 384"><path d="M88 192v192h424V0H88zm220.4-50.8c3.6 1.9 19.6 17 19.6 18.5 0 3-6.8.6-12.2-4.3-4.8-4.3-7.2-4.1-7.6.4-.4 4.4.7 5.6 8.6 8.6 3.7 1.4 8.4 4 10.5 5.7 3.5 2.9 3.7 3.3 2.3 4.8-.9 1-1.6 2.3-1.6 3 0 .8-.7 1-2 .6-3.8-1.2-2 1.1 3.5 4.6 3 1.8 5.3 3.9 5.1 4.6-.3.6.2 1.4 1 1.7s1.4 1.2 1.4 1.9c0 .8.7 2 1.6 2.8 1.4 1.2 1.4 1.4-.6 2.1-1.5.5-2 1.3-1.6 2.6.3 1 .8 4.4 1 7.7.5 7-.6 6.3 18.1 11 10.9 2.7 13 3.5 13 5.1 0 2.7 2.2 2.8 16.2.9 10.5-1.5 13.7-1.6 20.8-.6 10.1 1.4 14.5 2.8 14.5 4.7 0 .8.5 1.4 1.1 1.4.5 0 .7.5.4 1-.9 1.5 2.2 6 4.1 6 .8 0 1.3.4 1 .9-.8 1.3 1.8 2.1 4.5 1.4 1.5-.4 2-.3 1.5.5-.9 1.6 2.9 5.2 5.7 5.3 2.1.1 2.1.1-.3.8-1.4.4-2.4 1.3-2.2 1.9.1.7-.6 1.2-1.5 1.2-1.1 0-.6.7 1.4 1.6 2.8 1.4 3 1.8 1.8 3-.7.8-1.8 1.4-2.4 1.4-.5 0-.3 1.4.6 3.1 1.8 3.6 1.3 4.5-1.9 2.8l-2.3-1.2 2 2.3 2 2.3-2.4-.8c-1.6-.5-2.1-.4-1.7.4 1 1.6-1.6 1.3-3.8-.4-2.3-1.7-4-2-3.1-.4.4.6-.2 1.3-1.3 1.6-1.4.3-1.9 1-1.5 2 .4 1.1.2 1.4-.8 1.1-.8-.3-2.2-.1-3.2.4-1.8.9-1.8 1 0 2.5 1.7 1.4 1.7 1.4-.2.8-4.9-1.7-5.8-1.8-5-.5.4.7-1.2.1-3.7-1.4-6.3-3.6-6.8-3.3-2.3 1.6l4 4.1-6.3-4.8c-7.3-5.5-10.7-6.7-28.9-10-7.3-1.3-15.7-3.4-18.6-4.8-5.2-2.3-5.2-2.3-8.5-.4-2 1.2-5 1.9-8 1.9l-4.9-.1.1 6.6c.1 5.2-.3 6.8-1.7 7.7-2.3 1.5-4.7-.1-6.9-4.5-1.4-3-1.7-3.2-2.3-1.4-3 8.7-3.7 9.5-6.6 6.9-1.5-1.4-1.9-3.1-1.9-8.9 0-6-.3-7.4-1.7-8-1-.4-7.9-1-15.4-1.5-15.2-.8-17.9-1.7-17.9-5.9 0-1.5-.8-3.5-1.7-4.3-1.9-1.6-12.1-3.4-24.8-4.4-4.4-.3-14.2-1.2-21.8-2-7.7-.9-14.1-1.3-14.4-1.1-.2.3 3.7 2.4 8.7 4.8 7.2 3.4 9 4.7 8.7 6.1-.4 1.2.6 2.4 2.9 3.9 5.7 3.5 6.7 4.8 5 6.5-.8.8-1.8 1.4-2.1 1.4-.4 0-4.6-3.1-9.3-6.8-10-7.9-16.5-12.3-20.6-14-2.4-1.1-3.1-1-4.6.3-.9.8-2.4 1.5-3.4 1.5-.9 0-1.4.4-1.1 1 .9 1.4-.7 1.2-2.8-.4-1-.8-2.2-2.7-2.6-4.2-.7-2.6-1.3-3-7.2-3.9-8-1.4-10.3-2.6-11.9-6.5-2-4.8-.6-5.5 8.9-4 4.3.7 8.4.9 9 .5.6-.3 3.3 0 5.9.9 4.6 1.4 32.3 5.2 56.6 7.7l11.9 1.2 6.1-6.5c13.1-13.9 14.4-16.7 11.1-24.4-1.2-3-1.2-4-.1-7.2 3.2-8.4 2.9-15.2-.5-15.2-1.1 0-3.5-1.7-5.4-3.9-1.9-2.1-5.7-4.8-8.3-6.1-14.2-6.5-21.2-13.1-18.5-17.2.4-.7.8-2 .8-2.8 0-2 4.3-4 8.8-4 3.4 0 3.9.4 4.9 3.1 1 3 1.2 3.1 6.1 2.6 4.2-.4 5.5-1 8.1-4 4.8-5.6 8-6.9 15.8-6.3 3.7.2 7.8 1.1 9.2 1.8"/><path d="M317.2 194.6c.2.5 1.2 2.6 2.1 4.6 2.1 4.6 3.2 4.8 4.6.8.6-1.9.6-2.8.1-2.5-.6.4-2.4-.4-4.1-1.6-1.8-1.2-3-1.8-2.7-1.3m-20.5 15.1c-.3 1-.8 3.1-1.2 4.8-.4 1.8-3 5.1-6.8 8.6-3.4 3.2-5.9 6.1-5.5 6.5 1.8 1.7 19.8-11.5 19.8-14.4 0-1.4-4-7.2-4.9-7.2-.5 0-1.2.8-1.4 1.7m37.9 11.5c2.1 2.3 10.3 7.8 11.7 7.8.5 0-1.9-2.3-5.3-5-6.5-5.2-9.8-6.6-6.4-2.8m13.8.6c.3.5 2.3 2.1 4.5 3.6 3.2 2.2 4.5 2.6 7.5 2.1 2-.4 3.8-1.1 4.1-1.5s-3-1.7-7.3-2.9c-8.7-2.3-9.5-2.5-8.8-1.3"/></svg>