<svg xmlns="http://www.w3.org/2000/svg" width="682.667" height="512" version="1.0" viewBox="0 0 512 384"><path d="M90 192v192h422V0H90zm219.4-47.1c2.1.5 5.3 2 7.1 3.3 3.1 2.2 16.5 17 16.5 18.2 0 .3-1.4.6-3.1.6-2.3 0-4.2-1.2-7.7-4.5-5.1-5-8.2-5.8-8.2-2.3 0 1.3-.3 3.2-.6 4.4-.5 1.7.4 2.4 6 4.8 8.7 3.7 15.1 9.3 14.2 12.4-.4 1.2-1.2 2-1.7 1.7s-.6.2-.2 1.1c.5 1.4.2 1.6-1.5 1.2-3.1-.9-1.9.6 3.3 3.9 2.6 1.6 4.3 3.3 4 4.1-.2.7.2 1.5 1 1.8.8.4 1.5 1.1 1.5 1.6s1 1.8 2.3 2.9c1.9 1.6 1.9 1.8.5 1.9-2 0-2.2 2.9-1 10.9l.7 4.3 8 2.9c4.4 1.6 10.7 3.7 14 4.5 6.9 1.8 9.3 3.3 7.3 4.5-2.8 1.7.4 1.8 10.3.3 16.9-2.6 39.9-.8 39.9 3.1 0 .9 1 1.5 2.6 1.5 2.3 0 2.4.2 1 1.5-1.3 1.3-1.3 2-.3 3.5.6 1.1 1.7 2 2.4 2 .6 0 1.5.9 1.8 2 .4 1.4 1.5 2 3.6 2 1.8 0 2.8.4 2.4 1-.3.5.1 1 1 1s1.4.4 1.1.9.8 1.1 2.4 1.5c1.7.3 3 .9 3 1.4s-1.2.7-2.6.4c-2.4-.4-2.5-.3-1.5 1.7.7 1.1.8 2.1.4 2.1s-.2.5.4 1.1c1.5 1.5.5 3.9-1.4 3.9-1.3 0-1.3.3-.2 1.6.7.9 1.4 2.5 1.6 3.6.3 1.6-.1 1.8-1.9 1.2-2.1-.6-2.2-.5-.8 1.1 1.3 1.7 1.3 1.8-.1 1.3-.9-.4-2.1-.2-2.7.4-.7.7-1.7.5-3.3-.6-2.6-1.8-4.3-2.1-3.4-.6.3.6-.1 1.3-1 1.7-1 .3-2.7 1.6-4 2.9-1.7 1.7-2 2.5-1.1 3.4.8.8.4.9-1.6.1q-2.7-1.05-3.3 0c-.4.5-1.7.2-3.3-1-1.5-1-3.8-2.2-5.2-2.5-2.1-.6-1.9-.2 1.5 2.8 5.5 4.9 3.6 4.5-2.8-.5-7-5.6-8.9-6.3-26.7-9.9-8.4-1.7-17.8-4.2-20.8-5.6-4.9-2.2-5.7-2.3-7.2-.9-.9.8-2.2 1.5-2.9 1.5s-1 .4-.6.9c.3.6-1.7.9-4.7.8-5.8-.2-5.5-.6-4.1 6.6.6 2.9-1.9 7.7-3.9 7.7-1.8 0-5.8-4.2-5.8-6.1 0-3.5-1.9-2.9-3.1 1.1-1.7 5.5-3.4 6.8-5.9 4.5-1.7-1.6-2-2.8-1.6-8.7.5-8.7.3-8.9-16.8-9.8-14.3-.7-17.3-1.7-18.2-5.8-1.1-5.3-2-6.5-5-6.8-9.2-.9-41.1-4.5-47.8-5.5-4.3-.5-8-.8-8.3-.6-.4.4 6.7 5.1 13.6 8.9 2 1.1 2.9 2.2 2.5 3.2-.3.9 1 3.5 3 6.2 2 2.6 3.5 4.8 3.4 4.8-.2.1-1.1.7-2 1.4-1.4 1.2-2.3.4-7.1-6.1-5.2-6.9-10.9-11.7-19.4-16.1-4-2-5.7-2-7.3-.1-.7.9-1.9 1.4-2.7 1.1-.7-.3-1.3.1-1.3 1.1 0 1.3-.5 1.2-2.5-.7-1.4-1.3-2.5-3.4-2.5-4.6 0-2-.7-2.4-4.7-2.9-8.8-1.2-10.7-2-13-5.5-4.1-5.9-3.5-6.3 7.5-5.5 5.3.4 12.4 1.3 15.7 2 5.7 1.3 35.5 5.7 47.5 7 3 .3 8.7 1.1 12.7 1.7l7.1 1 6.4-6.3c11.3-11.5 12.8-13.5 12.8-17.7 0-2-.7-4.8-1.7-6.1-1.4-2.1-1.4-2.8-.3-6 3.3-8.9 2.7-17.1-1.1-17.1-.9 0-2.9-1.7-4.5-3.8-3.3-4.3-4.8-5.6-9-7.6-1.7-.9-3.7-2.2-4.4-3.1-.7-.8-1.8-1.5-2.5-1.5-1.8 0-8.4-6.5-9.5-9.4-.7-1.9-.6-2.9.5-3.9.7-.8 1.3-2.2 1.2-3.3s.6-2 1.8-2.2c1.1-.2 2.9-.7 4-1.3 1.1-.5 3.3-.6 5-.1 2.4.7 3.1 1.5 3.5 4.3.3 1.9 1.1 3.4 1.8 3.3.6-.1 2.8-.2 4.7-.3 2.2 0 4.2-1 5.7-2.5 5.8-6.1 12.1-7.8 21.2-5.7"/><path d="M325.5 204c.6 1 .4 1.2-.9.7-1.4-.6-1.5-.3-.5 1.4.6 1.1 1.3 1.8 1.7 1.5 1.1-1.1 1.1-3.6 0-4.3-.7-.4-.8-.1-.3.7m-25.4 13.1c-1.2 4.4-2.1 5.7-7.2 9.7-5.1 3.9-7.6 7.3-5.1 7.1 1.9-.1 15.7-9.7 17.5-12.1l2-2.6-2.2-3.6c-1.3-2-2.6-3.6-3-3.6s-1.3 2.3-2 5.1m36.9 6.8c0 2 11.4 10 12.6 8.8.5-.5-7.2-6.9-10.3-8.6-1.3-.6-2.3-.7-2.3-.2m18.5 5.7c2.7 2.4 4.6 3.3 6 3 1.1-.3 2.9-.6 4-.6 3.1 0 .5-1.8-5.9-4-8.1-2.7-8.7-2.5-4.1 1.6"/></svg>