<svg xmlns="http://www.w3.org/2000/svg" width="682.667" height="512" version="1.0" viewBox="0 0 512 384"><path d="M93 192v192h419V0H93zm186.5-45c2.2.8 2.6 1.5 2.3 4.2-.3 3.3-.3 3.3 4.6 3.6 4.3.3 5.3 0 8-2.7 5.2-5 9.7-6.4 16.9-5.1 8.5 1.6 10.5 2.9 18.3 11.7 10.8 12.3 10.2 11.3 6.5 11.3-2.4 0-4.4-1.1-8-4.5-6-5.6-8.6-5.9-9.4-.8-.4 2-.4 4-.1 4.5s3.3 2.1 6.7 3.7c3.7 1.6 7.7 4.5 10 7 3.8 4.2 3.8 4.3 2 6.4-1 1.2-2.2 2.5-2.6 2.8-.5.4 1.1 2 3.5 3.6 2.3 1.7 4.2 3.5 4.1 4.1-.2.7.4 1.2 1.3 1.2s1.2.5.8 1.2c-.5.8-.1.9 1.2.4 1.5-.6 1.6-.4.7.5s-.7 1.6 1 3.1c2.2 1.9 2.2 1.9.1 1.3-1.9-.5-2-.2-1.7 5.2.7 10.2-.2 9.3 15.3 14.7 12.9 4.5 15.4 5.8 15.5 7.8 0 1.2.3 1.2 12.5-.2 13.2-1.5 18.7-1.5 28.5.1 8.3 1.4 11.5 2.7 9.4 4-1 .6-.6.9 1.3.9 1.5 0 3 .5 3.4 1.2.4.6.3.8-.3.5-.6-.4-1.4 0-1.7.9-.8 2 5.6 8.4 8.4 8.4 1.2 0 1.8.4 1.5 1-.3.5.3 1 1.5 1s1.8.4 1.5 1c-.3.5 0 1 .7 1 .8 0 2.3.7 3.4 1.5 1.8 1.4 1.7 1.5-1 .9-2.7-.7-2.9-.5-2.2 1.7.5 1.3.9 3.5 1 4.9.1 2-.3 2.4-1.9 2.2-1.5-.2-1.7-.1-.6.7.8.5 1.5 2.1 1.7 3.5.2 2.3 0 2.5-2.4 2l-2.7-.6 3 2.1c1.7 1.1 2.5 2.1 1.8 2.1-.6 0-1.5-.5-1.8-1-.4-.6-1.1-.8-1.6-.4-.5.3-.7 1-.3 1.5.3.6-1.2.1-3.5-1-3.4-1.8-4.1-1.9-4.1-.6 0 .8-.7 1.5-1.5 1.5s-1.5.7-1.5 1.6c0 1.1-.6 1.5-2 1.1-1.1-.3-1.8-.1-1.4.4.3.5 0 .9-.7.9-.8 0-.7.5.2 1.7 1.5 1.8 1.6 1.8-3.8-.4-1.2-.5-1.4-.3-.8.7.5.8-1.3.2-3.9-1.4-2.6-1.5-5-2.6-5.2-2.3-.3.3 1 1.9 2.8 3.6s2.8 3.1 2.2 3.1-1.9-1-3-2.1c-5.6-6.2-12.9-9-35.4-13.4-4.6-1-10.9-2.8-13.8-4.1-5.1-2.3-5.4-2.3-8-.6-1.6 1.1-4.7 1.7-8.2 1.8-4.3 0-5.4.3-5.1 1.5 1.2 4.6 1.2 10 .1 11.4-3.1 3.8-7.8.8-9.5-6-.7-2.9-.8-2.8-2.4 2.5-1.1 3.7-2.3 5.6-3.5 5.8-3.1.6-4.1-1.6-4.1-9.6v-7.7l-5.5-1.2c-3-.6-8.9-1.2-13-1.2-12.1-.2-18.2-2.9-16.5-7.3.9-2.4-2.7-4.5-9.5-5.7s-52-6.8-52-6.4c0 .1 3.8 2.5 8.4 5.4 5.6 3.4 8.3 5.6 7.9 6.5-.3.7.9 3.3 2.6 5.6 2.7 3.7 3.9 6.8 2.7 6.8-.2 0-1.1.3-1.9.6-1 .4-2.4-1.1-4.5-4.8-4.6-8-12.7-14.6-23.1-18.8-3.1-1.2-3.5-1.2-4.8.6-.8 1-2.1 1.8-2.9 1.6s-1.4.2-1.4.8-1.1.3-2.6-.6c-1.8-1.2-2.4-2.4-2.2-4.3.3-2.4 0-2.6-7-3.8-8-1.3-9.6-2.2-11.9-6.6-2.3-4.5-.8-5.2 8.8-3.9 4.5.7 8.6.9 9.1.6s2.8.1 5.1.9c4.5 1.7 21.3 4.4 50.7 8.2l18.5 2.4 8.7-8.6c11.4-11.3 11.6-11.7 9.2-19.1-1.7-5.2-1.8-6.3-.6-9.2 1.1-2.9 1.6-9.3 1.1-14.3-.2-1.1-.9-1.7-2.1-1.5s-2.8-1.1-4.7-4c-2.6-3.9-4.7-5.7-16.2-13.6-7.3-5-11.1-11.8-7.4-13.2.9-.4 1.3-1.3 1-2.4-.5-1.7 2-4.8 3.1-3.7.4.4 4.3-.4 6.1-1.2.1-.1 1.4.3 2.8.9"/><path d="M328.7 208.7c.3.7.9 1.3 1.4 1.3s.9-.6.9-1.3c0-.8-.6-1.4-1.4-1.4s-1.2.6-.9 1.4m-23.5 7c.3 4.6-2.4 9.1-8.2 13.7-5.6 4.3-7.3 6.6-5 6.6 1.6 0 15.4-9.1 17.2-11.4 2.3-2.8 2.2-4.2-.3-7.7-2.3-3.3-3.8-3.8-3.7-1.2m37.7 12.7c2.6 2.7 12.1 8.1 12.1 6.8 0-1.5-10.2-9.2-12.3-9.2-2 0-2 0 .2 2.4m17.5 3.4c3.2 3.4 4.4 4 6.5 3.5 5.8-1.3 5-2-8.4-6.9-1.3-.5-.7.7 1.9 3.4"/></svg>