<svg xmlns="http://www.w3.org/2000/svg" width="682.667" height="512" version="1.0" viewBox="0 0 512 384"><path d="M98 192v192h414V0H98zm187.9-43.6c6.2-.7 7.8.5 6.2 4.4-1.7 4.1-.8 5.2 4.3 5.2 3.3 0 5.2-.7 8.1-3 4.8-3.8 7.2-4.4 14.3-3.6 9.1 1.1 13.1 3.6 20.9 13.4 9.4 11.7 9.4 11.7 5.3 10.9-1.9-.4-5.3-2.6-8.1-5.2-6-5.6-8.2-5.8-9.7-.8-.6 2-.9 3.9-.7 4.3.3.4 2.9 2 5.9 3.4 5 2.5 13.6 10.5 13.6 12.8 0 .5-.7 1.6-1.5 2.4-2.2 2.2-1.9 2.7 2.5 5.4 2.2 1.4 4 3 4 3.7s.5 1.3 1 1.3c.6 0 1 .7 1 1.5 0 .9.7 1.8 1.5 2.1.8.4 1.5 1 1.5 1.5 0 .4-.8.5-1.7.2-1.3-.5-1.5-.2-1 1.1.4 1 .7 4.6.7 8v6.2l7.3 2.3c3.9 1.3 10.7 3.7 15 5.3 6.7 2.6 7.7 3.3 7.7 5.4 0 2.4 0 2.5 6.8 1.7 12.8-1.5 33.2-.9 39 1.1 3.7 1.3 5.2 2.2 4.8 3.2s.3 1.4 2.2 1.4 2.3.3 1.3.9c-1.8 1.2-.5 4.8 2 5.6 1.2.4 1.8 1.2 1.5 2.1-.4 1 .3 1.4 2.4 1.4 3.1 0 4.8 1.5 2.8 2.3-.7.3-.3.6 1 .6 1.2.1 2.2.5 2.2 1 0 .4 1.5 1.3 3.3 1.9l3.2 1-3.4.1c-2.8.1-3.2.4-2.6 1.8 1.5 3.4 1.8 7.3.6 7.3-.7 0-.9.5-.5 1.2s.9 2.2 1 3.5c.2 2-.1 2.2-2.4 1.7-2.6-.6-2.7-.6-.7 1.1 1.6 1.3 1.6 1.6.3 1.1-.9-.3-1.8 0-2.1.7-.2.8-1.1.6-3-.6-3.1-2-4.8-2.2-4.5-.5.2.7-.5 1.2-1.4 1.2-1.1-.1-1.8.5-1.8 1.7 0 1.1-.3 1.8-.7 1.8-.5-.1-1.9-.1-3.3 0l-2.5.1 2.5 2c2.9 2.3 1.7 2.6-2.2.6-1.7-.9-2.8-1.1-2.8-.4 0 .5-1.6.1-3.6-1.1-5-3-6.3-2.6-2.9.9 4.2 4.4 2.5 3.7-3.4-1.4-5.6-4.7-10.4-6.4-30.7-10.9-6.1-1.4-13-3.5-15.2-4.6-4.4-2.3-7.7-2.7-8.7-1.1-.5.8-5.2.7-12-.2-1.5-.2-1.9.2-1.7 1.7 1.5 9.5 1.4 12-.6 13.8-1.3 1.2-2.8 1.6-4 1.3-1.8-.6-2.6-2-4.7-8.1-.6-1.7-.9-1.4-2.3 2-2.2 5.3-3.1 6.5-4.6 6.5-2.2 0-3.3-4.2-3-10.8.2-5.2-.1-6.4-1.4-6.8-1-.3-2.4-.9-3.3-1.4s-7-1.1-13.5-1.5c-13.4-.8-16.4-2-16.4-6.4 0-5.4-2-6.2-23-9.2-7.4-1-18.4-2.6-24.3-3.5-6-.9-11.1-1.4-11.3-1.1-.3.3 2.4 2.1 6 4.1 3.8 2.1 7.2 4.9 8 6.4s2.8 4 4.5 5.6c2.3 2.3 2.8 3.3 2 4.3-1.9 2.2-3.4 1.5-6.7-3.1-1.8-2.4-5.3-6-8-7.9-8.4-6.1-22.2-11.6-22.2-8.8 0 .6-1.2 1.6-2.7 2.2-2.4.9-3 .7-4.5-1.1-1-1.2-1.8-3.1-1.8-4.1 0-1.9-.7-2.2-8.5-3.4-5.9-1-9.2-3.1-10.4-6.7-1.7-4.8-.4-5.4 7.9-4 3.9.7 8.6 1.2 10.6 1.2 1.9 0 4.4.4 5.4 1 3 1.6 50.1 9.5 63.5 10.6l6 .6 9.7-9.1 9.6-9.1-.5-4.2c-.3-2.4-1.2-5.3-2-6.6-1.3-2.1-1.3-2.8.2-6.4 1.4-3.6 2-9.9 1.4-15.1-.2-1-1.1-1.7-2.4-1.7-2.2 0-6.6-6.4-5.9-8.5.2-.6-1.6-2.2-4-3.8-2.4-1.5-7.4-5.7-11-9.3-5.5-5.3-6.7-7-6.4-9.2.2-1.9.9-2.8 2.5-3 1.9-.3 2.1-.6 1.1-2.2-1.4-2.2.8-5.8 2.5-4.1.5.5 3 .8 5.6.5"/><path d="M336.5 213c-.3.5-.1 1 .4 1 .6 0 1.1-.5 1.1-1 0-.6-.2-1-.4-1-.3 0-.8.4-1.1 1m-24.3 6.2c1.2 3.1-3 9.6-9.1 14.4-6.3 4.9-7.4 6.4-4.3 6.3 2.6 0 15.4-8.3 17.7-11.3 2-2.7 2-2.7 0-6.3s-5.4-6.1-4.3-3.1m38.4 11.7c-1.7.7-1.6 1 1.5 3.4 4 3 12.1 6.8 12.9 6 .6-.6-6-6.3-9.9-8.5-1.5-.9-3.4-1.3-4.5-.9M372 237c3.3 2.9 8 4 8 2 0-1.1-8.2-5-10.3-5-.7.1.4 1.4 2.3 3"/></svg>