<svg xmlns="http://www.w3.org/2000/svg" width="682.667" height="512" version="1.0" viewBox="0 0 512 384"><path d="M101 192v192h411V0H101zm188.3-43.4c3-.8 7.7.5 7.7 2 0 .8-.5 2.3-1.2 3.3-1.7 2.8-.4 4.8 3.6 5.5 3 .6 4.2.2 6.9-1.8 6-4.6 10.3-5.9 15.8-4.7 6.6 1.4 11.9 3.7 14.8 6.4 3.7 3.5 14.1 16.4 14.1 17.6 0 2.8-6.3-.4-11.7-5.7-4.5-4.6-7.6-4.3-8.9.8-1.1 3.9-.4 6 2.1 6 4.9 0 18 13.9 15.5 16.4-1.8 1.8-1.1 3.4 2.6 5.5 1.9 1.2 3.3 2.5 3 3s.4 1.1 1.5 1.4c1.2.3 1.8 1 1.5 1.6-.4.6.2 1.6 1.4 2.3 2.2 1.4 2.7 3 .7 2.2-1.1-.4-1.4 1.3-1.5 7.3l-.2 7.8 12.2 3.9c17.9 5.5 18.7 5.9 18.1 8.9l-.5 2.5-6-2.5c-3.3-1.3-6.2-2.2-6.4-2-.3.2 1.2 1.7 3.2 3.2l3.6 2.8 12.2-1.3c13.2-1.4 32.3-.9 39.4 1.1 3 .8 4.2 1.7 4.2 3s.7 1.9 2.1 1.9c1.8 0 1.9.3.9 1.5-.9 1.1-.6 1.9 1.6 4.2 1.6 1.5 2.8 3.1 2.6 3.5-.1.5 1.2.8 2.9.8 2.2 0 3 .4 2.6 1.3-.3.8 1.1 2 3.7 3.1 3.7 1.7 3.9 1.9 1.9 2.7-2 .7-2.1 1.1-1 4.5.9 2.8.9 3.8 0 4.1-.8.3-.9 1.4-.2 3.6.5 1.8.9 3.3.9 3.5s-1 0-2.2-.4c-2.1-.6-2.2-.5-.8 1.1 1.4 1.7 1.3 1.8-.2 1.2-.9-.3-1.9-.1-2.1.6-.3.9-1.3.7-3.5-.5-3.7-2.2-4.2-2.2-4.2-.3 0 .8-.4 1.5-1 1.5-.5 0-2.5 1.1-4.4 2.4-2.9 1.9-3.2 2.5-1.9 3 .9.4 1.3.9 1 1.2s-1.6 0-2.8-.7c-1.7-.9-2.4-.9-2.7 0-.2.7-1.3.4-3.2-.9-1.5-1.1-4-2.4-5.6-3-2.7-1-2.6-.8 1.1 2.4 2.2 1.9 3.8 3.7 3.5 4-.4.3-2.4-1-4.5-3-6.7-5.9-12.3-8.1-32.7-12.9-5.9-1.3-13.1-3.6-15.9-5-3.1-1.6-5.8-2.4-6.8-1.9-1.9.8-6.1.8-12 0-3.9-.6-4.3-.5-3.6 1.1.4 1 .9 4.5 1.2 7.8.6 6.7-.7 8.9-4.9 8.3-2.1-.3-3.8-2.6-5.4-7.3-.5-1.7-.9-1.3-2.5 2.3-3.8 8.8-8.1 6.1-7.2-4.7l.5-6.6-5.3-1.7c-3-.9-9.9-1.9-15.3-2.2-11.3-.6-14.6-2.1-14.6-6.4 0-3.4-2.1-6.5-4.6-6.8-10.5-1.5-49.6-7.5-51.9-7.9-2.2-.5-1.3.4 3.6 3.2 3.6 2.1 9.1 6 12.2 8.7 5.4 4.8 5.6 5 3.6 6.4-1.8 1.2-2.3 1.1-5.7-2-6.1-5.5-12.1-9.3-21-13.2-9.1-4-10.7-4.3-11.9-2.2-2.4 4.1-8.3 2-8.3-3 0-2.5.2-2.4-10.1-4.4-6.4-1.2-8.6-3.1-9.5-8l-.7-3.3 6.4.7c15.5 1.8 18.5 2.2 19.5 2.8 2.1 1.4 61.8 11.8 67.2 11.8 1 0 6.1-4.1 11.5-9.2 9.5-8.8 9.9-9.3 9.4-12.7-.5-3.9-1-5.7-2.2-8.4-.4-1-.3-3.5.3-5.5 2.7-9.3 2.4-16.2-.9-16.2-2.2 0-6.2-7.1-5.3-9.4.3-.9-.2-1.7-1.5-2.1-3.4-1-18.9-16.7-19.6-19.8-1-3.9.6-5.4 4-3.9l2.5 1.2-1.5-3.1c-2-3.9-.5-6.5 2.7-4.8 1.1.6 2.9.8 4.1.5"/><path d="M338.7 215.1c.7.7 1.5 1 1.8.7s-.2-.9-1.2-1.2c-1.4-.6-1.5-.5-.6.5m-24.5 9c-1.5 5.5-2.3 6.5-9.4 11.7-9.7 7.1-6.8 8.6 4.2 2.2 6.1-3.5 12-8.9 12-10.9 0-.4-1.3-2.2-2.8-4.1l-2.9-3.4zm39.4 8.8c-1.6.6-1.4 1 1.5 3.3 1.9 1.4 4.8 3.2 6.4 4 3.6 1.8 9.5 3.1 9.5 2 0-.9-14.6-10.5-15.4-10.1 0 0-.9.4-2 .8"/></svg>