<svg xmlns="http://www.w3.org/2000/svg" width="682.667" height="512" version="1.0" viewBox="0 0 512 384"><path d="M0 192v192h512V0H0zM330 76.1c5.8 3.9 10.7 7.5 10.8 8 .7 1.8-9.3.9-13.1-1.1-2-1.1-4.8-2-6.1-2-2.3 0-2.4.3-2 3.7.9 5.9 1 6 6.1 7.1 6 1.3 15.5 5.5 17.2 7.6 1.1 1.3 1.1 2-.3 4.1-.9 1.4-2.6 2.5-3.7 2.5-1.8 0-1.9.2-.9 1.5.7.8 3.1 2.3 5.4 3.3 2.2 1.1 4.7 2.6 5.5 3.5.7 1 2 1.7 2.7 1.7.8 0 1.4.4 1.4.8 0 .5 1 1.4 2.3 2 1.9 1 1.8 1-1 .5-4-.7-4.1 0-.5 3.4 2.2 2.1 2.3 2.4.5 1.4-2.9-1.5-3.6-1.4-2.9.4.3 1-.3 1.7-2 2.1-1.9.5-2.3 1.1-1.8 2.3.4.9 1.3 4.7 1.9 8.4.7 3.7 1.4 7 1.6 7.2.4.3 29.1 4.5 31 4.5.4 0 .5.9.2 2s-.8 2-1.2 2c-.3 0-5.1-.7-10.6-1.5-5.4-.8-10.1-1.2-10.3-1s2.3 1.1 5.5 2c3.2 1 8.1 2.5 10.8 3.4 4.8 1.6 5.4 1.6 17-.7 10.5-2 13.7-2.2 26-1.7 7.7.3 14.6.7 15.3.7.6.1 1.2.7 1.2 1.5 0 .7.5 1.3 1.2 1.3.6 0 .3.7-.8 1.5-1.7 1.3-1.7 1.4-.1 1.5.9 0 1.7.7 1.7 1.5s1.6 2.1 3.6 3c1.9.8 3.3 1.9 2.9 2.5-.8 1.3 2.1 1.3 4.7-.1 1.7-.9 1.9-.8 1.4.8-.5 1.5 0 2.3 1.9 3.1 2.6 1.2 3.2 2.6 1.5 3.7-.6.4-.8 1.1-.5 1.6.4.5-.2.9-1.2 1-1 0-.3.5 1.5 1 2.7.8 3.1 1.3 2.2 2.4-.8 1-.8 1.4.2 1.8.7.3.2.6-1.2.7-2.5.1-2.5.1.5 1.5l3 1.3-3.5.2c-1.9.1-2.8.4-1.8.7 2.7.7 3.1 3.3.5 3.3-2.2.1-2.2.1-.2 1.7 1.5 1.2 1.6 1.4.3 1-.9-.3-1.8-.1-2 .5s-2.1.5-5.5-.5c-4.4-1.3-5.1-1.3-4.6-.1.3.8 0 1.4-.6 1.4s-.8.7-.4 1.7c.5 1.3.2 1.5-1.1 1-1-.4-3 0-4.6 1-2.6 1.5-2.7 1.8-1.2 3 1.5 1.1 1.1 1.2-2.3.9-2.2-.2-5.3-.7-7-1.1l-3-.7 3.5 3.2 3.5 3.2-3.5-2.2c-10.9-6.7-15.4-8-42.7-12.5-5.1-.8-11.9-2.4-15.1-3.5-5.9-2-20.1-3.3-22.2-2-.8.5-.7 1.9.2 5.3 1.8 6.8.4 10.2-4.3 10.2-2 0-4.3.6-5.1 1.3-2.3 1.9-6.8.4-7.9-2.6-.5-1.3-1.1-5-1.2-8.1l-.2-5.6-4.5-.7c-2.5-.4-9.5-.2-15.6.4-8.8.9-11.8.9-14.2-.1-3.5-1.4-4.7-3.7-3.2-5.6 1.2-1.4 0-2.7-3-3.2-3.7-.7-37.1-2.6-37.5-2.1-1.3 1.3 1 3.8 5.1 5.5 4.5 1.8 5.1 2.7 3.5 5.2-.8 1.3-2.4.8-9.8-2.7-4.8-2.3-13-5.3-18.2-6.8-8.6-2.5-9.5-2.5-10.6-1-.7.9-2.6 1.9-4.3 2.2-3 .6-3.8.1-8-5-.7-.9-2.8-1.6-5-1.6-6.5 0-11.1-1.9-13.3-5.3-1.7-2.9-1.8-3.3-.3-4.4 1.7-1.2 8.2-1 22.9.7 12.1 1.5 26.9 2.9 48.4 4.5l19.4 1.4 2.4-2.2c3.1-2.9 8.2-10.5 12.7-19.1 3.1-6 3.4-7.1 2.2-8.5-.7-.9-1.6-4.8-2-8.8-.8-9.3-1.1-10-5.2-11.3-4.4-1.5-7-5.1-5.5-7.8.6-1.1 2.5-3.2 4.2-4.6l3.1-2.6-4.4-1.9c-17-7.3-23.2-11.5-22.6-15.4.2-1.7.9-2.1 2.8-1.9l2.5.4-2.2-2.4c-3-3.1-2.9-3.6.9-7.5 3.1-3.2 6.1-4.2 7.2-2.4.3.5 2.2 1.2 4.2 1.6l3.6.6-.7 4.6-.7 4.5 3.3-.7c4.4-1 6-2.1 8.4-5.9 3.3-5.1 9.5-7.6 19-7.6h8zm128.7 96.5c-.3.3-1.2.4-1.9.1-.8-.3-.5-.6.6-.6 1.1-.1 1.7.2 1.3.5"/><path d="M298.2 113.1c.1 1.2.9 2.4 1.6 2.7.9.3 1.3-.3 1-1.9-.1-1.2-.9-2.4-1.6-2.7-.9-.3-1.3.3-1 1.9m29.3 13.6c.4 1 1.2 3.1 1.7 4.8 1.6 4.4 2.6 5.1 3.3 2.2.4-1.4 1.3-3.1 2-3.7 1.9-1.6.8-3.9-1.5-3.3-1 .3-2.1 0-2.4-.6-1.2-1.9-3.9-1.3-3.1.6M304 146.5c-1.1 2.5-3.7 6.8-5.9 9.7-4.2 5.6-6.2 10.8-4.1 10.8s15.6-13.2 16.5-16.1c.5-1.5-3-8.9-4.1-8.9-.3 0-1.3 2-2.4 4.5m44.5 6.5c-.8 1.3 5.7 3.9 12.5 5.1 9.4 1.5 9.9.9 1.1-1.7-4.6-1.3-9.1-2.9-10.1-3.4-2.3-1.2-2.7-1.2-3.5 0"/></svg>