<svg xmlns="http://www.w3.org/2000/svg" width="682.667" height="512" version="1.0" viewBox="0 0 512 384"><path d="M106 192v192h406V0H106zm195.2-44.3c.2 1.4 1.3 1.7 5.5 1.4 6.1-.3 7.2.9 4.4 4.8-3 4.2-2.6 5.6 1.8 7 3.7 1 4.3.9 8.9-2 6.1-3.8 13-4.1 21.4-.9 4.7 1.7 7.2 3.7 14.8 11.8 8.9 9.3 9.1 9.7 6.5 10-2.9.4-8.5-1.5-8.5-2.9 0-1.2-7.2-5.9-9.1-5.9-1 0-2.2 1.2-2.7 2.7-.5 1.6-1.3 3.6-1.7 4.5-.5 1.3.4 2.2 4.2 4.1 6.8 3.5 14.9 13 13.7 16.1-.3.7 1.7 2.2 4.3 3.5 3.2 1.5 4.3 2.5 3.4 3.1q-1.5.75 1.5 1.8c1.6.6 2.3 1.1 1.5 1.1-.8.1-.5.9 1 2.2l2.4 2-2.7-.4c-3.1-.5-3.6.4-1.3 2.3 1.9 1.5 2 3.1.2 2.4-1-.4-1.2.9-.9 5.8.2 3.5.7 6.6 1.1 6.9.3.4 4.9 1.6 10.1 2.8s11.8 2.8 14.6 3.6c4.7 1.4 5.1 1.7 4.6 4-.3 2-.9 2.4-2.3 2-1.1-.4-1.9-.3-1.8.2.1.4-.1 1.6-.6 2.6-.4 1-.5 2-.3 2.3.3.2 6.8-.1 14.5-.7 12.1-1 15.7-1 25.7.5 14 2 14.8 2.3 14.1 4.7-.5 1.6-.1 1.9 2.2 1.9 1.9 0 2.4.3 1.4.9-1.9 1.2-.4 5.1 1.9 5.1 1 0 2.2.9 2.5 2 .5 1.5 1.2 1.9 3.1 1.4s2.3-.3 1.8 1c-.3.9-.1 1.6.5 1.6s1.1.7 1.1 1.5c0 .9.9 1.5 2.3 1.5 3.8 0 4.1 1.4.5 2.6-1.8.7-2.6 1.3-1.7 1.3.9.1 1.6.7 1.7 1.3 0 .7.3 2.5.6 3.9.4 1.7.1 3.1-.9 3.9-1.2 1-1.3 1.6-.4 2.6.9 1.1.7 1.5-.5 2-1.4.5-1.4.9-.4 2.2 1.1 1.3 1 1.4-.9.4-2.7-1.5-3.6-1.5-2.8-.2.9 1.4-.1 1.3-3.5-.5-2.8-1.4-3.1-1.4-5 .5-1.1 1.1-2.5 2-3.1 2-.5 0-.7.5-.4 1 .4.6-.5 1-1.9 1-2.8 0-3.5 1.7-1.1 2.6.8.4 1.5 1 1.5 1.5s-1.3.3-2.9-.6c-2.1-1-3.1-1.1-3.3-.3-.3.7-1.8.2-4.3-1.5-5.4-3.7-7.4-3.4-3 .4 5.6 5 3.2 4.6-2.9-.4-6-4.8-12.8-7.5-31.1-12.2-5.5-1.4-12.9-3.9-16.4-5.6-3.9-2-8.4-3.3-11.5-3.5-2.8-.2-6.6-.6-8.3-.9-3.8-.7-3.9-.5-2.1 9.1 1 5.8 1 6.6-.7 8.4-3.6 4-7.6 1.9-10.1-5.5-.6-1.9-.7-1.8-1.8.6-4.2 9.9-9.6 6.8-7.8-4.4.8-5 .7-5.9-.7-6.3-.9-.3-2.9-1.1-4.6-1.9-1.6-.7-7.3-1.7-12.5-2-5.2-.4-11.1-1.2-13-1.8-3.1-1.1-3.5-1.6-3.5-4.7 0-3-2.7-7.9-4-7.3-.3.1-1.9-.3-3.7-.8-6.1-1.9-51.7-9.6-50.8-8.6.3.3 5.9 2.8 12.4 5.6 6.6 2.9 12.2 5.3 12.4 5.5s-.2 1.3-.9 2.4c-1.3 2.1.8 2.8-30.6-11.2-4.5-2-8.4-3.6-8.8-3.6-.3 0-1.9.9-3.4 2.1-3.6 2.6-6 1.6-7.6-3.3-1.1-3-1.7-3.4-7.6-4.9-3.5-.8-7.4-2.1-8.5-2.7-2.3-1.2-4.8-6.8-3.8-8.4 1.1-1.7 9-.4 40.4 6.6 8.5 1.9 24.2 5.1 34.8 7.1l19.3 3.5 8.2-6.9c12.7-10.6 13.1-11.2 12.4-17-.3-2.7-1.1-5.8-1.8-6.8-.9-1.5-.7-3.3.9-8.5 2.6-8.4 2.1-13.8-1.4-13.8-1.8 0-2.8-1-4.2-4.3-1-2.3-1.5-4.4-1-4.5 1.4-.6.9-3.2-.6-3.2-.7 0-2-1-2.9-2.3-.8-1.2-3.6-4.3-6.2-6.9-6.3-6.4-9.2-10.9-8.9-13.9.1-1.3.3-2.7.3-3.2.1-.4 1.9.2 4 1.3l3.9 1.9-1.5-3.9c-1.3-3.2-1.3-4.2-.3-5.5 1.6-2 2.8-1.9 3.2.2"/><path d="M350 217.2c0 1.8 1.8 3.4 2.8 2.4.3-.4-.2-1.4-1.1-2.3-1.6-1.6-1.7-1.6-1.7-.1m-24.9 10.3c-.9 3.7-2.2 5.3-8.1 10-7 5.6-8.4 7.5-5.4 7.5 2.5 0 14.3-7 18.1-10.7l3.4-3.4-3.2-4c-1.7-2.1-3.2-3.9-3.4-3.9-.1 0-.8 2-1.4 4.5m40.9 9.4c-2.4.7-2.3.8 2.2 3.9 3.2 2.2 7.6 3.9 13.8 5.3 8.7 2 11.5 2 9.4-.1-1-1-21.5-10.1-22.4-9.9-.3.1-1.6.4-3 .8"/></svg>