<svg xmlns="http://www.w3.org/2000/svg" width="682.667" height="512" version="1.0" viewBox="0 0 512 384"><path d="M109 192v192h403V0H109zm199-44.4c0 1.2.6 1.5 2.6 1 3.4-.9 8.4.2 8.4 1.7 0 .7-.9 2.3-2 3.7-3.1 4-2.6 5.8 2.2 7.1 3.3.9 4.7.8 6.3-.2 4.3-2.7 9.5-4.9 11.8-4.9 1.4 0 5.6 1 9.3 2.1 6.4 2 7.6 2.9 17.3 12.5l10.5 10.4h-4.6c-3.9 0-5.2-.6-9.1-4-5.8-5.1-8.7-5.2-11-.5-2.3 4.9-2.2 5.4 1.8 7.1 4.3 1.8 9.6 7 12.6 12.5 1.5 2.6 4 5.2 6.3 6.5 3.1 1.8 3.5 2.3 2 2.7-1.4.3-1.1.6 1.4 1.2 1.7.4 3.2 1.2 3.2 1.7s1 1.8 2.3 2.9l2.2 1.9-2.7-.6c-3.2-.7-3.5.1-1 2.9 1.7 1.9 1.6 2-1 1.3l-2.7-.6.6 7.2c.3 4 1 7.6 1.5 7.9.4.3 7.3 1.8 15.3 3.4 13.5 2.7 14.5 3 14.5 5.1 0 1.4-.8 2.5-2 2.9-1.1.3-2.4 1.4-3 2.4-.9 1.7-1.8 1.5-14.1-2.8-10.9-3.9-13.7-4.6-15.6-3.7l-2.3 1.1 2.2 1.9c1.3 1 4.8 3.1 7.8 4.5l5.5 2.6 24-.3c21-.2 39.1.8 44.8 2.4 1.2.4 1.6 1.2 1.2 2.5-.5 1.5-.1 1.9 2 1.9 2.3 0 2.4.2 1.5 2-1.3 2.5-.6 3.8 2.6 5 1.3.5 2.4 1.6 2.4 2.3 0 1 .8 1.3 2.5.9 2-.3 2.4-.1 1.9 1.2-.5 1.2 0 1.6 1.7 1.7 1.3 0 1.8.3 1.1.6-1 .4-.6 1.1 1.3 2.3l2.7 1.7-2.6.7-2.6.6 2 2.2c2.1 2.3 2.1 4 .2 7.5-.8 1.4-.9 2.4-.2 2.8 1.7 1 1.1 2.5-1 2.5-1 0-2.3.7-2.8 1.6-.8 1.5-1.2 1.5-4 0-3.5-1.8-4.6-2-3.8-.7.3.5-.8 1.4-2.5 2-2 .7-2.8 1.5-2.3 2.2.5.8.2 1-.7.7-.8-.3-2.5 0-3.8.6l-2.2 1.2 2.7 1.3c1.5.6 2.5 1.4 2.2 1.6-.5.6-5.8-1.1-11.7-3.7-5.5-2.4-6.1-1.8-1.6 1.6 1.9 1.5 3.5 3.2 3.5 3.7 0 .6-2.8-1.2-6.3-3.9-6.5-5.2-13.9-8.2-33.7-13.7-5.2-1.4-12.2-4.1-15.6-6-3.4-1.8-7.2-3.3-8.5-3.2-1.3 0-5.2-.3-8.5-.7l-6.2-.8 1.6 7.5c1.5 7 1.5 7.7-.2 10.1-.9 1.5-2.4 3-3.2 3.3-2.1.8-5.1-2.3-6.5-6.5l-1.2-3.6-1.6 3.4c-3.9 8.1-8.7 5.7-7.6-3.9.4-3 .9-6 1.2-6.7.3-.8-.6-1.6-2.4-2-1.5-.4-3.3-1.1-3.9-1.5-.6-.5-6-1.4-12-2s-12.4-1.8-14.2-2.5c-3-1.2-3.3-1.7-3.1-4.8.4-4.1-2.3-7.6-5.8-7.6-1.3 0-3.1-.4-4.1-.9-2.3-1.3-47.2-9.4-47.9-8.7-.3.3.7 1 2.3 1.6s5.6 2.2 8.9 3.5 7.5 2.8 9.4 3.2c3.8 1 4.6 2 3.2 4.2s-11.5-.9-26.1-8c-11.8-5.7-16-7-16-4.9 0 .5-.9 1-1.9 1-1.1 0-2.1.5-2.3 1-.7 2.2-4.8-2.1-4.8-5 0-2.6-.5-3-4.2-4-10.9-2.6-11.9-3.1-13.8-6.3-2.7-4.3-2.6-6.7.3-6.7 3.2 0 18.4 2.9 23.7 4.6 9.4 2.9 63.8 14.4 68.2 14.4 2.1 0 6.5-3.3 16.3-12.1l6.2-5.6-.3-5.2c-.1-3.3-.9-6-2-7.2-1.4-1.6-1.5-2.3-.6-4.2 2.3-4.4 4-11.9 3.5-15.2-.4-2.7-1.1-3.5-3.1-3.7-3.1-.4-6-7.1-4-9.5.9-1.1.7-1.5-.9-1.9-1.1-.3-2.7-1.7-3.6-3.2-.8-1.5-3.8-5.2-6.6-8.4-2.8-3.1-5.1-6.1-5.1-6.6s-.6-1.5-1.4-2.1c-1.8-1.5-1.7-5.8.1-6.5.8-.4 2.7.3 4.3 1.4 3.8 2.7 4.3 2.5 2.5-1-2.2-4.3-2-8 .5-8 1.2 0 2 .7 2 1.6"/><path d="M355.5 220c.3.5 1 1 1.6 1 .5 0 .9-.5.9-1 0-.6-.7-1-1.6-1-.8 0-1.2.4-.9 1m-25.4 7.5c-1.3 5.1-2.3 6.3-9.3 11.3-6.5 4.8-7.5 6-5.4 6.8 1.9.7 15-6.1 18.7-9.9 3.6-3.6 3.6-4.4 0-8.7l-2.9-3.5z"/></svg>