<svg xmlns="http://www.w3.org/2000/svg" width="682.667" height="512" version="1.0" viewBox="0 0 512 384"><path d="M114 192v192h398V0H114zm205-46.5c0 1.2.9 1.3 4.5.8 5.3-.7 6.5.9 4.1 5.6-2.4 4.6-2 6 2.5 7.9 4.1 1.8 4.1 1.8 9.8-1.1 4.4-2.3 6.5-2.7 9.7-2.3 8 1 15.4 5.2 22.9 12.9 3.8 4 8.4 8.3 10 9.5 2.5 1.8 2.8 2.3 1.5 3.2-3 2.1-8.8.4-13.5-3.9-2.5-2.3-5.1-4.1-5.8-4.1-1.6 0-3.7 2.3-5.7 6.4-1.4 2.7-1.3 2.9 1.5 4.9 4.7 3.3 9.4 8.5 11.6 12.9 1.5 2.9 3.1 4.4 6 5.6 3.1 1.2 3.7 1.8 2.8 2.9-.9 1-.5 1.3 2 1.3 1.7 0 3 .4 2.8.9-.1.5.7 1.7 1.8 2.6 1.5 1.3 1.6 1.5.3 1.2-1.6-.6-2 1.5-.5 2.9 1.3 1.3.7 2.4-1.2 2.4-3.4 0-4.3 2.4-3.6 9.4l.7 6.5 6.7 1.5c5.5 1.3 21.5 3.6 24.4 3.6.5 0 .7.7.4 1.5-.4.8-.2 1.7.4 2 1.4.9.1 2.5-2.1 2.5-1 0-2.3.7-2.8 1.6-.8 1.5-1.6 1.5-8.8-.1-4.3-1-10.1-2.7-12.9-3.8-2.7-1.1-7-2.1-9.3-2.1l-4.4-.1 4.1 3.6c8.7 7.7 15.6 9.2 39.6 8.3 15.3-.5 23.7-.1 40.3 2.2 4.7.7 5.9 1.8 4.2 3.9-1.1 1.3-.7 1.5 1.9 1.5 3.1 0 3.1 0 1.6 2.4-1.5 2.3-1.5 2.4 1.5 3.7 1.6.8 3 2 3 2.6 0 .7 1.2 1.3 2.6 1.3 2 0 2.5.4 2 1.6-.4 1.2-.1 1.4 1.4.9 2.2-.7 2.6.5.8 2.3-.9.9-.7 1.2 1 1.2 2.9 0 2.8 1.8 0 3-2 .8-2.1.9-.4.9 1.1.1 1.6.4 1.3.8-.4.3-.1 1.3.7 2.2 1 1.2 1.1 2.2.3 4.1-.9 2.2-1.1 3.2-1.6 7.1 0 .6-.8.8-1.7.5-1.4-.5-1.5-.4-.5.8.9 1.1.6 1.4-1.6 1.4-1.6 0-4-.7-5.5-1.4-1.8-.9-2.8-1.1-2.8-.4 0 .6-1.4 1.6-3.1 2.2-1.9.6-2.8 1.5-2.5 2.4.3.8 0 1.1-1 .7-.7-.3-2.2-.2-3.1.2-1.6.6-1.5.8.7 2.7 2 1.6 2.1 1.8.5 1.3-1.1-.5-2.9-.8-4-.9s-3.9-1.2-6.2-2.4c-5.7-3-5.9-2.8-1.5 1.4 4.3 4.2 2.7 3.5-4.3-1.7-5.8-4.3-10.9-6.5-29.1-12.4-7.3-2.3-15.4-5.5-18-7.1-3.9-2.2-6.2-2.9-10.9-2.9-3.3-.1-7.5-.5-9.4-.9l-3.4-.8.7 7.3c.5 5.9.3 7.9-.9 9.7-3.1 4.3-8.4 2.1-10-4.3l-.7-3-1.4 2.7c-2 3.8-4.6 5.1-6.9 3.4-1.7-1.2-1.8-2-.8-8.2 1.2-7.7 1-8.4-1.8-8.4-1.1 0-3-.6-4.2-1.4s-6.2-1.9-11.2-2.5c-10.9-1.4-14.7-2.6-17-5.1-1.5-1.7-1.6-2.4-.6-4.6s.9-3-.5-4.6c-1-1-2.2-1.7-2.8-1.5-.6.3-2.2-.1-3.6-.8s-9.2-2.7-17.5-4.5c-8.2-1.7-19.4-4.3-24.9-5.6-5.4-1.4-10.6-2.3-11.5-2.1-1.9.4 17.6 10 23.6 11.6 3.4.9 4 1.5 3.6 3.1-1.3 4.9-13.2.6-33.3-11.9-6.6-4.1-7.2-4.3-8.9-2.7-1.1 1-2.5 1.4-3.6 1-1.3-.5-1.6-.4-1.1.4 1.2 2-2 1.3-3.9-.8-1.2-1.3-1.5-2.7-1.1-4.5.4-1.7.2-2.7-.6-2.9-.7-.3-4.6-1.4-8.5-2.5-6-1.8-7.5-2.7-8.8-5.1-2-3.9-1.9-7 .2-7 2.9 0 21.6 4.2 24.8 5.6 4.9 2 56.5 15.2 67.1 17.1 2.6.4 4-.3 9.5-4.7 12.5-10.3 14.9-13 14.9-17.2 0-2.1-.7-5.5-1.6-7.7-1.4-3.5-1.4-4.2 0-6.9 2.6-5.1 4.3-11 3.5-12.3-.4-.7-.5-1.7-.3-2.3s-.8-1.6-2.4-2.2c-3.7-1.4-5.9-8.4-3.3-10.2 1.4-1 1.3-1.2-.6-1.8-1.2-.3-2.5-1.4-2.8-2.4s-3-4.9-6-8.7c-3-3.7-5.5-7.3-5.5-7.9s-.6-1.7-1.4-2.3c-1.5-1.3-1.9-7.4-.4-6.5.4.3.8 0 .8-.6s1.4-.2 3.1 1l3 2.2-.6-3.6c-.4-2-.5-4.3-.1-5.1.7-1.9 3.6-2 3.6 0"/><path d="M338 225c0 4.5-2.9 8.7-9.1 13.4-6.1 4.6-8.2 7.5-4.9 6.8 4-.8 18.2-8.5 19.6-10.6 1.4-2.3 1.4-2.7-1-6.4-3.1-5-4.6-6-4.6-3.2M.3 189c0 3.6.2 5 .4 3.2.2-1.7.2-4.7 0-6.5-.2-1.7-.4-.3-.4 3.3"/></svg>