<svg xmlns="http://www.w3.org/2000/svg" width="682.667" height="512" version="1.0" viewBox="0 0 512 384"><path d="M123 192v192h389V0H123zm208.5-54c.3.5 2.5 1 4.9 1 5.7 0 6.8 1.3 4.6 5.6-2.4 4.6-1.6 6.7 3.2 8.9 3.8 1.6 4.3 1.7 7.5.1 6.5-3.1 11.6-3.2 17.6-.3 7.2 3.6 12.4 8.2 17.5 15.8 2.4 3.5 5.9 7.5 7.8 8.9 1.8 1.4 3.4 2.8 3.4 3.2 0 .5-2.1.8-4.7.8-4.2 0-5.1-.5-9.9-5-2.9-2.8-6-5-6.8-5-1.3 0-6.6 7.5-6.6 9.3 0 .3 1.9 2.5 4.1 4.9 5 5.2 10.8 16.6 9 17.7-.8.6-.4 1.3 1.3 2.4 1.4 1 3 1.7 3.6 1.7.5 0 1 .7 1 1.5s.6 1.5 1.3 1.5c.6 0 2.1 1.2 3.1 2.7 1.1 1.4 1.4 2.3.8 1.9-.7-.4-1.2-.2-1.2.4s-.5.8-1.1.4c-.8-.5-.9-.2-.1 1.1.7 1.4.6 2.3-.5 3.4-2 2-.9 11.2 1.5 12.6 4.2 2.4 13.3 5.6 20.2 7.1 11 2.3 11 2.3 11 4.8 0 3.3-.5 3.4-6.2 1.9-7.7-1.9-9-1.5-3.3 1.2 2.8 1.3 4.6 2.4 4 2.5-.5.1-.1.5 1 1s5.6.9 10 .9c10 .1 33 2.8 35.5 4.1 1 .5 3.1 1 4.5 1 4.7 0 6.5 3.7 2.5 5.3-.8.3.5.6 3 .7s3.7.4 2.8.7c-2.9.7-2.3 5.2.9 6.4 2 .8 2.4 1.2 1.4 1.8-1.9 1.2 2.2 2.5 4.9 1.6 1.1-.4 2-.2 2 .4s-.6 1.1-1.2 1.1c-.8 0-.5.7.6 1.5s1.6 1.5 1.2 1.5c-1.6 0 2.4 3 4.1 3 1.4.1 1.2.4-.7 1.3-2.8 1.3-3.2 2.9-1.3 4.8 1.3 1.3.6 3.9-1.6 5.6-1.4 1-1.4 1.5-.3 3.3.8 1.2.9 1.9.3 1.5-.6-.3-1.1-.1-1.1.5 0 .7-.7.9-1.6.6-1.4-.5-1.5-.4-.4.8 1 1.3.7 1.5-2 1.1-1.7-.2-4.2-1.1-5.5-1.9-2.9-1.9-4.4-2.1-2.7-.4.9.9.5 1.5-1.9 2.5-1.7.7-3.6 1-4.2.6s-.8 0-.4 1c.5 1.4.2 1.6-1.7 1.1-2.9-.7-4.2.9-2.1 2.6 3.8 3.1.8 2.6-6-1-4.1-2.2-7.5-3.5-7.5-3 0 .6.6 1.3 1.4 1.6s2.3 1.8 3.2 3.2c1.4 2.2.8 1.9-2.7-1.3-2.4-2.1-5-4.5-5.8-5.2-1.6-1.7-11.1-6-21.1-9.7-13-4.8-19-7.5-23.6-10.7l-4.5-3.1-4.4 2.1c-2.7 1.3-6.5 2.1-9.5 2.1h-5v4.3c0 2.3-.7 5.3-1.6 6.5-2.8 4-8.8 2.3-9.9-3l-.7-3.1-1.7 2.2c-1.2 1.5-2.6 2.2-4.2 1.9-2.2-.3-2.4-.7-2.4-6.3 0-3.3.4-7 .8-8.3.7-1.8.5-2.2-1.4-2.2-1.2 0-3.6-.8-5.3-1.9-1.7-1-6-2.4-9.6-3-10.9-2-16.5-3.9-18.9-6.5-2.2-2.4-2.3-2.7-.8-4.9 1.3-2.1 1.4-2.8.3-4.3-.7-.9-1.9-1.9-2.7-2-.8-.2-3.9-1.2-6.9-2.3-6.1-2.3-53.2-15.3-53.6-14.8-.1.1 2.7 2.7 6.3 5.7s9.6 8.4 13.2 11.9c6.2 6 6.4 6.4 4.6 7.7-1 .8-2.2 1.4-2.6 1.4s-7.1-6.1-14.9-13.4c-7.7-7.4-15-13.8-16.1-14.1-1.2-.4-2.7-.1-3.7.8-.9.8-2.3 1.2-3.1.9-.7-.2-1.7.2-2.2.9-1.5 2.5-5.1-2-4.7-5.9.3-3.3.2-3.4-5.5-5.2-7.7-2.4-10.4-4.3-12.2-8.7-1.3-3.2-1.4-3.9-.1-5.1 1.2-1.2 2.5-1.1 9.3 1.2 4.3 1.4 8.8 2.6 10 2.6s4.3 1.1 7 2.4c4.8 2.4 55.2 18.5 64.9 20.7 5 1.2 5.1 1.1 10.4-2.6 3-2.1 8.1-6.5 11.3-9.7l6-6-.6-8.6c-.5-8.1-.4-8.8 2.4-13.8 3.5-6.1 3.4-10-.1-11.7-2.9-1.5-5.8-10.7-3.4-10.7 2.2 0 1.7-2.7-.6-3.3-1.2-.3-2-1.4-2-2.7 0-1.1-1.8-4.9-4.1-8.2-5.9-8.9-7.9-13.2-7.2-15.7.6-2.3 3.2-2.8 5.2-.9 1 1.1 1.2.6 1.1-2.2-.1-1.9-.2-3.8-.1-4.3.1-1 1.9-.9 2.6.3"/><path d="M368 191.4c0 .2.7.9 1.5 1.6 1.3 1.1 1.4 1 .9-.4s-2.4-2.3-2.4-1.2m-20.7 28.7c-.4 4.7-5.1 10-15.3 17.2-3.7 2.5-1.7 3.1 4.2 1.2 7.2-2.4 13.9-5.8 16.2-8.3 1.8-2.1 1.8-2.2-.3-6.6-2.4-4.8-4.6-6.5-4.8-3.5m38.7 21.8c5.6 7.8 13.5 12.6 18.9 11.5 1.7-.4 3.1-1 3.1-1.3 0-.4-1.9-1.6-4.2-2.8-2.4-1.1-6.5-3.7-9.2-5.8-2.7-2-6.2-3.8-7.7-3.9l-2.8-.2zM0 188.6c0 16.5.4 27.3.9 26.9 2-1.2 6.3-10.3 7.7-16 1.9-8.1 1.8-14.8-.4-22.6C6.5 171 1.7 161 .5 161c-.3 0-.5 12.4-.5 27.6"/></svg>