<svg xmlns="http://www.w3.org/2000/svg" width="682.667" height="512" version="1.0" viewBox="0 0 512 384"><path d="M127 192v192h385V0H127zm209-58c0 .6 1.8.9 4.1.8 5-.4 7.2 1.9 5.1 5.2-.6 1.1-1.2 3.3-1.2 4.8 0 2.4.7 3.2 4.1 4.7 3.9 1.8 4.2 1.8 9 .1 8.9-3.2 13.2-2.2 23.6 5.5 3.5 2.6 6.5 6.2 9.2 10.6 2.2 3.8 5.5 8.4 7.5 10.2 2 1.9 3.6 3.9 3.6 4.3 0 1.2-6.5 1-9.4-.3-1.4-.7-3.7-3-5.2-5.1-3.9-5.6-6.3-6.6-8.4-3.7-5.2 6.7-5.2 7.2-1.3 11.5 2 2.1 5 7 6.8 10.8 3.2 6.9 3.3 7 1.3 8.6-1.9 1.5-1.9 1.7 2.4 5.6 3.8 3.5 8.4 10.5 5.8 8.9-1.1-.7-1.1 1.9-.3 9.7l.5 4.7 8.3 4c4.5 2.3 11.9 5.1 16.4 6.3 7.4 1.9 8.1 2.3 7.8 4.4-.2 1.3-.5 2.5-.8 2.8s-4-.6-8.3-2c-9.6-3-11.6-2.7-5.4 1 4.2 2.4 6 2.8 20 3.6 16.6 1.1 31.1 3.2 37.1 5.5 2 .8 4.8 1.5 6.1 1.5 2.7 0 4.3 2.8 2.1 3.6-2.2.9-.8 2.4 2.3 2.5 1.5 0 2.1.3 1.5.6-.7.2-1.3 1.6-1.3 2.9 0 1.7.8 2.7 2.7 3.5 2 .7 2.4 1.2 1.4 1.8-1.9 1.2 1.4 2.3 4.5 1.5 3.3-.8 3.1 1.2-.3 2.5-2 .8-2.2 1-.8 1 3.5-.2 4.6.1 4.1 1-.7 1.1 1.2 2.7 3.9 3.3 1.4.3.6.8-2.5 1.5-2.5.6-3.8 1.1-2.9 1.2 3.1.2 4 6.7 1.2 8.8-.9.7-1.2 1.9-.8 3.2.4 1.5.2 2.1-.9 2.1-.9 0-1.3.6-1 1.4.8 2-4.5 1.5-7.6-.7-3-2.1-4.4-2.2-3.7-.3.4 1-.5 1.6-2.8 2-2.5.5-3.3 1.1-2.8 2.1.4 1.1.1 1.3-1.1.9-.9-.3-2.3-.3-3.2 0-1.5.6-1.5.8.2 2.8 1.9 2.1 1.9 2.1-.1 1.4-1.1-.4-2.4-.8-3-.9-.5-.1-1.7-.9-2.6-1.7-1-.8-3.3-2.4-5.1-3.4l-3.3-1.9 2.9 3.1c5.3 5.7 1.7 4.7-4.2-1.1-3.2-3.1-6.1-5.7-6.5-5.7-.5 0-3.2-1.1-6-2.4-2.9-1.4-9.5-4.1-14.7-6.1-9.5-3.6-18.4-8.1-22.9-11.6-2.3-1.8-2.4-1.8-5.2.6-2.7 2.2-9.7 4.1-12.8 3.3-1-.2-1.8 1.3-2.6 4.8-1.5 6.5-2.1 7.4-4.7 7.4-2.4 0-6.8-3.7-6.8-5.7 0-1.7-1-1.7-3 .2-3.9 3.6-7.3-1.4-5.9-8.6.4-2.4.8-4.9.9-5.6 0-1.1-9.8-6.3-12.1-6.3-.6 0-5.2-1-10.2-2.1-7-1.7-9.8-2.8-12-5.1-2.8-2.7-2.8-2.9-1.3-5.3 1.9-2.9.7-6.5-2.2-6.5-.9 0-2.9-.6-4.4-1.4s-9.4-3.3-17.5-5.6-19.7-5.8-25.7-7.6c-6-1.9-11.4-3.3-11.9-3.1-.5.1 2.6 3.6 6.9 7.6 4.4 4.1 7.8 7.8 7.6 8.4-.1.5 1.6 2.9 3.9 5.4 4.1 4.5 4.2 5.5.3 6.7-1.8.6-2.9-.4-6.8-5.7-6.4-9-19.4-22.6-22.2-23.3-1.3-.4-3-.1-3.8.5-.7.6-2.1.8-3.1.5-1-.4-2.1-.1-2.6.7-.7 1.1-1.4.9-3.6-1.4-2.4-2.3-2.6-3-1.5-4.7.6-1.1 1.2-2.2 1.2-2.4s-2.4-1.2-5.2-2.1c-8.1-2.7-11.4-5.1-13.3-9.7-2.4-6-1.1-6.7 7.8-3.9 3.9 1.2 9.1 2.6 11.4 3s5.2 1.4 6.5 2.3c2.4 1.6 39.1 14.2 58.7 20.2 8.5 2.6 11.9 3.3 13.2 2.5 1.1-.5 1.9-1.3 1.9-1.8s1.3-1.4 2.9-2.1c3.4-1.4 15.2-13 16.3-16 1.1-2.9.8-11.2-.4-12.7-1-1.2 2.4-8.3 5.7-12.3 2.2-2.6 1.6-6.8-1.1-7.4-2.7-.7-3.9-2.7-4.7-7.9-.4-2.8-.2-3.7.9-3.7 2.2 0 1.7-1.6-1.2-3.4-1.4-1-2.4-2.5-2.2-3.4.1-1-1.6-4.7-3.8-8.2-2.3-3.6-5-8.3-6.2-10.5l-2-4.1 2.1-1.7c1.4-1.1 2.4-1.4 3.1-.7 1.8 1.8 2.6 1 2.6-2.5 0-2.4.5-3.5 1.5-3.5.8 0 1.5.5 1.5 1"/><path d="M371 187.6c0 1.4 4.1 7.7 4.6 7.2.7-.8-1.2-5.3-3-6.7-.9-.7-1.6-1-1.6-.5m-22 32c-.9 2.5-3.4 5.4-8.7 9.7-4.1 3.4-7 6.3-6.4 6.5s4.3-.7 8.3-1.9c5-1.6 8.5-3.4 11-5.9l3.7-3.5-2.1-4.3c-2.5-5.1-4.3-5.3-5.8-.6m39.4 20.3c2.3 4.4 11.2 12.1 14 12.1 1.4 0 2.8-.5 3.1-1 .3-.6.2-1-.4-1s-3.9-2.6-7.3-5.8c-3.5-3.3-7.3-6.1-8.5-6.4-2.1-.6-2.2-.5-.9 2.1M0 188.2c0 17.5.4 31.8.8 31.8 1.6 0 8.3-11.6 10.2-17.8 4.4-14.2 1.2-31.6-7.9-42.2l-3-3.5z"/></svg>