<svg xmlns="http://www.w3.org/2000/svg" width="682.667" height="512" version="1.0" viewBox="0 0 512 384"><path d="M134 192v192h378V0H134zm210-69c0 .5 2 1 4.4 1 5.2 0 6 1.2 4.1 6.6-1.6 4.7-.9 6.3 4 8.8 3.4 1.9 3.8 1.9 8.3.3 8.9-3.2 14.3-2 23 5.1 3.3 2.7 5.5 6 9.3 14.1 2.8 5.8 6 11.8 7.1 13.4 2.4 3.3 1.9 4.1-1.9 3.3-4.2-1-7.5-3.9-10.3-9.3-1.4-2.6-3.2-4.9-4.1-5.1-1.5-.3-6.9 6.6-6.9 8.8 0 .5 1.5 3.1 3.4 5.7 4.8 6.8 8.7 16.3 7.2 17.8-.6.8-1.9 1-3.1.5-2-.7-3-2.3-6-9.7-1-2.3-2.9-5.2-4.2-6.5l-2.5-2.3.8 3c.9 3.9 3.8 11.4 7 18.2 2 4.2 3 5.3 4.9 5.3 4.3 0 6.2 2.9 7.5 11.5.7 4.5 1.9 8.8 2.8 9.9 2.6 2.9 14.8 10.6 22.1 13.8 3.6 1.7 7.5 3.8 8.6 4.8 1.5 1.3 4.5 1.9 11.5 2.5 12.6.9 22 2.7 30.5 6 3.9 1.5 8 2.9 9.2 3.2 2.8.7 3.7 3 1.5 4.2-1.4.9-1.3 1 1.1 1.1 1.5 0 2.7.4 2.7 1 0 .5-.4 1-.9 1-1.5 0 .1 5 2.1 6.4 1.1.8 1.7 1.9 1.3 2.5-.4.7.5 1.1 2.3 1.1 2.2 0 3.2.6 3.7 2.2.4 1.3.7 2.6.6 3 0 .4 1.3 1.5 2.9 2.3 3.4 1.7 3.9 2.7 1.3 2.4-3-.2-5.9.2-4.5.8.6.2.9.9.6 1.4-.3.6-.1 1.5.4 2.2 1.4 1.7-.4 5.8-2.8 6.4-1.9.5-1.9.6-.4 1.8 1.7 1.2 1.1 4-.7 3-.5-.3-.6.1-.3.9.5 1.3 0 1.5-2.7.9-1.9-.3-3.6-.9-3.9-1.3s-1.6-1.3-2.9-2c-2.1-1.1-2.3-1-1.8.3.4 1.2-.4 1.7-3.4 2.2-2.9.5-3.7 1-3 1.9.8.9.1 1.1-2.7.8l-3.7-.5 1.9 2.2c3.3 3.6-.4 2.5-5.9-1.9-6.2-4.9-7.4-5.1-3.9-.5 1.4 1.9 2.1 3.5 1.5 3.5s-2.8-2.3-4.8-5.1c-4.1-5.4-8.8-8.4-22.8-13.9-11.3-4.5-20.5-9.3-26.2-13.8l-5-4-3.2 3.4c-2.5 2.6-4.6 3.6-9.2 4.6-5.5 1.1-5.9 1.4-5.9 4.1 0 4.2-1.7 6.7-4.5 6.7-2.5 0-5.9-2.6-6.7-5-.3-1-.9-1-2.7-.1-1.9 1.1-2.6 1-4.3-.6-1.8-1.6-1.9-2.6-1.4-7.8l.6-6-5.2-3.4c-2.9-1.8-7.9-4-11.2-4.8-11.5-2.6-13.5-3.4-16.6-5.9-3.3-2.8-3.9-6.4-1.5-8.4.8-.7 1.2-1.6.9-2.2-1.1-1.7-10.9-5.5-28-10.8-9.3-2.9-21.1-6.8-26.3-8.6-5.2-1.9-9.5-3.3-9.7-3.1-.3.3 4.9 6.7 10.9 13.4 2.1 2.3 3.6 4.7 3.2 5.3-.3.6.5 3.5 1.9 6.6s2.6 5.8 2.6 6-1.5.4-3.4.4c-3.2 0-3.4-.2-5.5-6.8-2.9-8.7-6.9-14.9-13.8-21.2-5.7-5.2-6.4-5.5-9.1-4.1-.9.4-3.1 1.1-4.9 1.4-2.8.5-3.5.2-5.3-2.4-1.8-2.4-2-3.2-.9-4.5 1.5-1.9.7-2.6-5.6-4.9-6.2-2.2-10.2-5.8-11.5-10.3-1.6-6.1.2-6.5 10-2.7 3.4 1.3 7.9 2.8 9.9 3.1 2 .4 5 1.5 6.7 2.5 3.5 2.1 32.3 12.9 54.6 20.4l15.7 5.3 2.6-2.4c1.4-1.3 3.2-2.4 4-2.4 1.8 0 14.4-12.7 15.6-15.7 1.3-3.5 2-13.1.9-13.8-1.7-1-1.2-2.2 3.4-7.8 4.9-6.1 5.2-9.6 1-11.6-1.4-.6-2.5-2-2.6-3.3s-.2-3-.3-3.8c0-.8-.4-2.1-.8-2.8-.5-.7-.3-1.2.7-1.2 2.2 0 2-2.3-.4-3.8-1.1-.7-2-2.1-2-3.1 0-1.1-2.1-5.5-4.7-9.8-5.3-8.7-7.7-14.3-6.1-14.3.6 0 .8-.6.5-1.3-.5-1.4 2-1.7 4-.4.8.5 1.5-.2 1.9-2 .4-1.5.9-3.1 1.1-3.6.6-1 2.3-.9 2.3.3"/><path d="M354.6 209.5c-1.3 3.3-3.5 5.8-8.7 10-3.9 3.1-6.9 5.9-6.6 6.1.4.5 11-2.2 14.8-3.7 1.5-.6 3.9-2.3 5.4-3.9l2.7-2.8-2-4.5c-1.1-2.4-2.4-4.7-3-5.1-.5-.3-1.7 1.4-2.6 3.9m37.4 20.3c0 1.4 5.6 9.6 8.4 12.1 3.5 3.3 3.3 2-1.1-5.1-3.3-5.3-7.3-9.2-7.3-7m15 7.1c0 .5 1 2.2 2.3 3.6 1.8 2.1 2.9 2.6 5.9 2.3l3.7-.3-5.9-3.3c-3.3-1.8-6-2.8-6-2.3M0 188.4c0 20.7.3 37.6.6 37.6 1.7 0 8.5-6.6 11.7-11.2 5.9-8.7 8-16.5 7.5-28.4-.3-8.8-.7-10.8-3.5-16.5-3.5-7-8.7-13.6-13.4-16.9L0 150.9z"/></svg>