<svg xmlns="http://www.w3.org/2000/svg" width="682.667" height="512" version="1.0" viewBox="0 0 512 384"><path d="M0 192v192h512V0H0zM333.6 71c8.9 5.7 14.4 9.9 14.4 11.1 0 1.8-7.6.8-12.8-1.6-7.5-3.5-8.2-3.3-8.2 1.9 0 5.1 1 6.1 7 7.1 6.1.9 12.8 3.1 16.8 5.5 3.2 2 3.2 2 1.7 5-.9 1.7-2 3.1-2.5 3.1-.6.1-1.4.2-1.9.3-2.8.4-1.6 1.8 4.3 5.2 4.1 2.4 6.1 4.1 5.4 4.5-.8.5-.3 1 1.3 1.4 1.3.3 3.2 1.9 4.1 3.5 1.7 3 1.7 3-.8 3-2.4 0-2.4 0-.7 2.7l1.7 2.8-2.2-1.9c-2.1-1.8-2.2-1.8-1.6-.2.6 1.5.3 1.7-1.4 1.2-1.8-.6-2.1-.4-1.5 1.1.3 1 1.2 2.5 1.9 3.3.7.9 1.7 4.5 2.1 8l.8 6.5 9 1.2c19.4 2.6 22.1 3.3 22.1 5.4 0 2.3-1.3 2.4-12.3.3-4.6-.8-8.9-1.4-9.5-1.2-1.5.5 15.7 7.8 18.6 7.9 1.2.1 8.9-1.1 17.1-2.5 12.6-2.3 16.7-2.6 25.5-2.1 12.8.8 17.2 1.4 16.4 2.6-.3.5.3.9 1.3 1 1.6 0 1.6.1.2 1.1s-1.3 1.3.5 3.3c1.2 1.2 3.6 3 5.4 3.9s3 2.1 2.7 2.6c-.8 1.3.7 1.3 4 0 1.5-.6 2.4-.6 2-.1-.3.6.3 1.4 1.2 2 1.4.8 1.5 1 .3 1.1-2.6.1 1.1 2 4 2 1.9 0 2.1.3 1.1.9-.8.5-2.1.6-3 .3-1.4-.5-1.4-.3-.3 1 1.1 1.4 1 1.8-.3 2.6-1.4.7-1.1 1.1 1.7 2.5 1.9 1 2.6 1.7 1.6 1.7q-1.65 0-1.2 1.5c.5 1.1.2 1.3-1.2.8-1.2-.4-1.5-.3-1 .5.4.7 1.6 1.2 2.6 1.2s2.1.3 2.4.8c.2.4-1.9.7-4.7.6-5-.2-5.1-.1-2 1 4.8 1.7 5.1 2.6.7 2.6l-3.9.1 3.3 1.4c3.6 1.6 4.4 3 1.1 2-1.3-.5-1.9-.3-1.5.3.6 1-3 .4-8.1-1.2-1.8-.6-2.1-.4-1.6 1.5.5 1.8.3 2.1-1 1.6-1.2-.4-1.4-.2-1 1 .5 1.2.1 1.4-1.4.9-1.2-.4-2.5-.1-3.3.9-.7.8-2.2 1.5-3.4 1.6-2.1 0-2.1 0 .2 1.1 1.2.6 2.2 1.4 2.2 1.7 0 1.5-10.3-.2-12.8-2.2-.7-.5-1.5-.7-1.8-.4-.3.2 1.3 1.8 3.5 3.3 5.1 3.6 5.4 5.4.4 2-2-1.4-4.1-2.2-4.6-1.9-.6.3-.7.1-.3-.5.4-.7.2-1.3-.3-1.3-.6-.1-1.6-.2-2.1-.3-.6 0-1.4-.6-1.8-1.1-1.4-2.1-12.6-4.9-30.4-7.4-8.9-1.3-16.3-3-21.5-5-6.5-2.6-9.2-3.1-16.2-3.1-7.5 0-8.2.2-7.6 1.7.4 1 .9 4.4 1.2 7.5.7 6.6-.7 9.3-4.3 8.4-1.3-.4-2.7 0-3.4.9-1.8 2.1-5.6 1.9-8-.5-1.6-1.6-2-3.3-2-9 0-7.1-.2-7.4-4.1-7.1-.9.1-2.8-.3-4.2-.8-1.8-.7-5.1-.6-10.9.4-10.6 1.9-14.2 1.9-18-.1-2.7-1.4-3-2-2.5-4.9l.5-3.3-6.9-.6c-10.6-1.1-34.4-2.5-34.7-2.1-.9.9 1.3 2.7 5.8 4.6 4.4 1.9 4.8 2.3 3.7 4-1.6 2.6-2.7 2.4-9.9-1.2-5.9-3-22.9-7.9-27.4-7.9-1.2 0-2.5.7-2.8 1.6-.4.9-1.3 1.4-2.2 1-.8-.3-1.2-.2-.9.4s-.1 1-1 1c-2.7 0-5.5-2-6.5-4.6-.8-1.9-1.7-2.4-4.7-2.5-7.3-.1-12.6-2.2-15-5.8-1.2-1.8-2-3.8-1.6-4.4.7-1.1 18.5-.4 30.1 1.2 3.7.6 19.2 2 34.5 3.1l27.7 2.2 3.8-3.3c2-1.8 5.4-6.2 7.5-9.8 2.1-3.5 4.6-7.6 5.6-9 2.6-3.8 3.4-7.8 1.7-8.8-.9-.5-1.7-3.8-2.3-9.7l-.8-8.9-4.3-1.5c-7.6-2.5-8.1-8.9-1-13.2 2.8-1.7 3-2 1.2-2.5-1-.4-3.8-1.5-6.2-2.6-2.3-1-4.9-1.9-5.6-1.9-.8 0-4-1.4-7.2-3.1-9.9-5.1-11.8-9.9-4-9.9l4.1-.1-3.3-2.7c-3.8-3.2-4-5.3-.9-8.3 3.9-3.7 8.7-4.5 8.7-1.4 0 .8 1.7 1.6 4 2 3.3.6 4 1.1 4 2.9 0 1.2-.5 2.7-1.2 3.4-1.9 1.9-.5 2.2 3.6 1 2.3-.7 4.3-2.2 5.1-3.7 3.8-7.4 13.8-12.4 23.6-11.8 4.7.3 6.9 1.1 12.5 4.7"/><path d="M306.5 111.2c-1 2.6.2 5.5 1.7 4 .8-.8.8-1.8.1-3.4-1-2.1-1.2-2.1-1.8-.6m27.8 10.4c2 6.2 5.3 14.4 5.8 14.4.4 0 1-1.2 1.3-2.7.4-1.4 2.1-3.9 3.8-5.5 1.6-1.5 2.9-2.8 2.7-2.9-.2 0-1.5-.3-2.8-.5-1.4-.2-3.2-1.1-4-1.8-.9-.8-2.9-1.8-4.5-2.2-2.6-.6-2.8-.5-2.3 1.2m-21.7 24.9c-.9 2-3.8 7-6.6 11.2-8.3 12.4-6.3 15.2 3.6 5 8.5-8.7 9.9-11.1 8.4-14.8-2.2-5.1-3.7-5.5-5.4-1.4m46.4 7.3c0 .5 1.8 1.4 4.1 2.1s4.7 1.5 5.5 1.8 1.4.1 1.4-.4-2.1-1.7-4.7-2.6c-5.4-1.9-6.3-2.1-6.3-.9"/></svg>