<svg xmlns="http://www.w3.org/2000/svg" width="682.667" height="512" version="1.0" viewBox="0 0 512 384"><path d="M142 192v192h370V0H142zm210.5-84c.3.5 2.4 1 4.6 1 3.7 0 3.9.2 3.9 3.1 0 1.7-.5 3.9-1 5-1.5 2.7.1 5.2 4.9 7.3 3.7 1.7 4.3 1.7 8.7.2 8.5-2.9 13.6-1.7 21 4.7 5 4.4 8.6 11.4 11.8 23.2 1.3 4.9 2.8 9.8 3.1 10.7 1.2 3-2.4 2.1-6-1.5-2.1-2.1-3.8-5.2-4.6-8-1.6-6.4-3.5-7.9-5.9-4.7-4.5 5.9-4.5 6.4-.5 12.9 3.3 5.5 9.4 19.4 7.8 17.8-.3-.4-1.2-.2-2 .5-1.9 1.6-4.5-1.3-6.7-7.4-1.8-4.9-5.1-9.8-6.7-9.8s-1 3.7 2 12.7c1.6 4.9 3.2 10.9 3.6 13.5l.7 4.8 2-2.5c1.1-1.4 2.6-2.5 3.3-2.5 2.1 0 4.1 4.7 4.9 11 .4 3 1.3 6.7 1.9 8.1 1.4 3 12.7 13.3 20.2 18.4 4.7 3.2 5.7 3.4 18.5 4.5 18.5 1.6 25.9 3.3 37 8.2 10.2 4.6 11.2 5.4 10.4 8-.4 1.3 0 1.8 1.3 1.9 1 0 1.3.3.6.5-2.4 1 3.9 12.4 6.9 12.4 1.6 0 4.7 3.9 3.5 4.3-.8.3-.5 1 .8 2.1 2 1.6 2 1.6-.5 3.5l-2.5 2 2.5 2.7c2 2.2 2.1 2.6.6 2-1.4-.5-1.7-.3-1.2 1 .4 1 0 1.8-1.3 2.1-1.4.4-1.8 1.1-1.5 2.9.5 2.8-.7 3-4.4.7l-2.7-1.7 3 3.3 3 3.3-3-.8c-1.6-.3-3.9-1.4-5-2.3-5-4.2-5.3-4.3-4.8-1.7.4 2.1.2 2.3-3.1 2.1-2.7-.3-3.6.1-3.6 1.2s-.7 1.4-2.5.9c-2.9-.7-3.1.1-.9 3.3 1.6 2.2 1.6 2.3-.2 1.3-1.1-.6-3.1-2.1-4.5-3.4-1.4-1.2-3.6-3.2-4.9-4.3l-2.3-2 2.2 4.5c2.2 4.5 2.2 4.5.1 2-1.2-1.4-3.1-4.1-4.3-6-2.3-3.6-8.3-7-32.3-18.1-6.1-2.9-12-6.5-15.2-9.4l-5.2-4.7-4.6 4.1c-3.3 2.9-5.6 4.1-7.8 4.1-4.2 0-5.1.8-6.7 6q-2.7 8.55-8.4 2.1c-2.3-2.5-3-2.8-4.6-1.8-1.4.9-2.2.7-4-.8-1.8-1.7-2-2.7-1.6-6.7l.6-4.6-6.8-5.5c-5.8-4.7-8-5.7-14.7-7.3-6.1-1.4-8.6-2.5-11.1-5-3.6-3.5-4.2-6.4-1.8-8.4.8-.7 1.2-1.6.9-2.1-.8-1.4-9.1-4.8-25.4-10.4-8.5-2.9-20.2-7-25.9-8.9-5.7-2-10.6-3.4-10.9-3.1s.6 1.8 1.9 3.3c4.3 4.6 10.2 13.6 10.1 15.2-.1.8.4 4.1 1 7.3s.8 6 .6 6.3c-.3.3-1.7.2-3.1-.1-2.2-.6-2.7-1.5-3.7-7.3-1.5-9-3.3-12.4-10.3-19.8-6.4-6.9-8.6-8.1-11.7-6.4-1.6.8-2.5.8-3.5 0s-1.6-.7-2.3.5c-.8 1.5-1.2 1.4-3.1-1.1-1.6-2-2.1-3.7-1.7-5.5.5-2.5.1-2.8-5.4-4.8-6-2.2-11-6.7-11-9.9 0-.9-.3-2.7-.6-4-.9-3.1 1.5-2.9 11.6.8 4.5 1.6 8.9 3 9.9 3s2.9.8 4.2 1.9c1.3 1 6.7 3.4 11.9 5.4s13.8 5.2 19 7.2c18.7 7.3 40.2 14.5 41.4 13.8.6-.4 1.7-1.5 2.4-2.5s2.1-1.8 3.1-1.8c.9 0 4.9-3.3 8.8-7.4 7.8-8.3 9.5-12.3 8.7-21.1-.4-4.8-.2-5.2 3.6-9 4.7-4.6 5.1-7.8 1.6-10.6-2.9-2.3-4.7-10.6-2.6-11.9 1-.6.8-1.3-.9-3.1-1.1-1.2-2.1-2.9-2.1-3.6 0-.8-2.3-5.3-5.2-10-2.8-4.7-5.2-9.4-5.3-10.4s-.4-2.1-.8-2.5c-.3-.3.3-1.6 1.4-2.7 1.5-1.6 2.2-1.8 3.1-.9 1.6 1.6 3 1.5 2.6-.1-.3-1.8 1.2-5.7 2.2-5.7.5 0 1.2.4 1.5 1"/><path d="M361.6 195.4c-1.4 3.5-3.5 5.9-9.4 10.7-4.2 3.4-6.8 5.9-5.7 5.5s4.1-1.1 6.7-1.6c6.4-1.3 10.9-3.3 13.5-6.1 2-2.2 2-2.7.8-6.3-.8-2.1-2-4.5-2.8-5.3-1.2-1.2-1.6-.8-3.1 3.1M399 217c0 1.6 4.1 9.3 4.6 8.7.5-.5-3.5-9.7-4.2-9.7-.2 0-.4.5-.4 1m12 7.9c0 1.9 2.3 6.1 3.4 6.1 3.3-.1 3.3-1.7.1-4.3-1.9-1.5-3.5-2.3-3.5-1.8M0 189c0 47.5-.9 43.5 8.5 37.5 18.5-11.7 25.5-36.9 16-57.4-3-6.4-11.4-15.4-18-19.2-2.7-1.6-5.3-2.9-5.7-2.9-.5 0-.8 18.9-.8 42"/></svg>