<svg xmlns="http://www.w3.org/2000/svg" width="682.667" height="512" version="1.0" viewBox="0 0 512 384"><path d="M153 192v192h359V246.5l-2.4-.1c-2.2-.2-2.3.1-1.5 3.3.4 2 .3 4.7-.2 6-.5 1.4-.7 2.8-.4 3.2.2.5-.7 1.4-2 2.1-1.4.7-2.5 1.9-2.5 2.7 0 .7-.7 1.3-1.5 1.3s-1.5.7-1.5 1.5c0 2.2-1 1.9-4.7-1.7-3.3-3.1-3.4-3.2-3.9-1.1-.4 1.3-1.1 2-2 1.6-.8-.3-1.4.1-1.4.7 0 .9-.7.7-2-.5-1.9-1.8-2-1.7-2 .4 0 1.8-.4 2.1-2 1.6-1.4-.5-2-.2-2 .9 0 2.4-2.6 1.9-4.4-.9-2-3-4-3.3-3.3-.5.8 3 .2 2.5-3.3-3.4-2-3.2-4.8-6.2-6.9-7.4-8.2-4.6-10.9-5.9-17.1-8.6-15-6.6-17.4-8-23.5-13.1l-6.4-5.4-3.4 3.4c-3.2 3.2-5.2 3.9-9.7 3.6-2.5-.1-4.6 2.2-6.1 6.9-1.8 5.8-4.7 6.5-7.9 1.9-2-2.6-2.4-2.9-3.2-1.5-1.4 2.5-2.6 1.9-5.3-2.4-1.8-2.8-2.3-4.7-1.9-6.8.5-2.5.1-3.4-3.1-5.8-2.1-1.6-5.2-4.1-6.9-5.5-1.9-1.7-6.3-3.5-11.6-4.8-4.7-1.2-8.5-2.3-8.6-2.4-4.1-5.7-5.6-9.3-4.8-11.6 1.1-3 2.4-2.4-21.6-10.7-8.5-3-19.2-6.8-23.8-8.5-4.5-1.8-8.5-2.9-8.9-2.5-.3.3 1 3 2.9 5.8 2 2.9 3.6 6 3.6 6.8s.7 4.8 1.6 8.8c2 9 2 8.2-.4 8.2-2.3 0-3.5-2-4.4-7.5-1.2-6.5-4.1-12.1-9.2-17.5-6.7-7.2-10.9-9.6-14.1-8.1-1.8.8-2.9.9-3.8.1-1-.8-1.6-.7-2.3.7-.6 1-1.2 1.6-1.4 1.3-1.6-2.3-4.8-9-4.8-10.2 0-.7-2.3-2.1-5-3.1-5.9-2.1-9.8-7.1-10.7-13.6-.5-3.7-.3-4.1 1.5-4.1 2.1 0 11.2 3.1 14.4 5 1 .6 2.9 1 4.4 1 1.4 0 3.8.9 5.4 2 3.9 2.8 67.4 27 70.8 27 .6 0 1.9-1.1 2.8-2.5s2.4-2.5 3.4-2.5c1.1 0 5.2-3.8 9.4-8.5 7.9-8.8 7.9-8.9 8.1-19.1 0-4.4.6-5.9 4.4-10.9 2.4-3.1 3.9-6 3.4-6.4-2.3-1.7-4.4-6.7-4.7-11.4-.1-2.8-.9-6.3-1.6-7.7-.8-1.4-1.5-3-1.6-3.7-.1-.6-2.1-4.3-4.4-8.2-5.5-9.3-7.1-14-5.8-16.6 1.6-3 1.6-3 3.8-1 1.5 1.4 2 1.5 2 .4 0-.8.9-2.5 1.8-3.7 1.7-2.1 2.3-2.3 6.7-1.7l4.8.8-.6 6.8c-.6 6.8-.6 6.9 2.3 8.4 3.7 1.9 6.4 1.9 11.7-.1 6.5-2.5 11.8-1.3 18.9 4.4 7.3 5.9 9.9 11.8 11.9 27 1.8 13.1 1.8 12.2.1 12.2s-6.6-9.4-6.6-12.6c0-1.2-.8-3.2-1.8-4.4l-1.9-2.3-2.2 3.2-2.3 3.2 5.1 10.8c5 10.6 5.8 13.6 4.3 15.6-1.8 2.4-3.4 1.1-6.1-4.7-2.6-5.8-8-12.4-8.2-10.2-.3 2.6.4 7.8 2.2 15.9 2.8 12.5 2.6 12.1 5 9.1 4.1-5.2 5.9-3 8 9.1.6 3.8 1.7 7.9 2.5 9.3.7 1.4 5.5 6.6 10.6 11.7l9.3 9.1 17.5 1.7c24.5 2.3 32.4 4.5 44.1 12.2 2.7 1.8 3.5 2.9 3.2 4.4-.4 1.3 0 1.9 1 1.9s1.3.6 1 1.9c-.3 1.1.2 3.4 1.1 5.2.9 1.7 1.3 3.5 1 4-.6 1.1 4.4 3.1 5.7 2.3.5-.3.9 0 .9.5 0 .6-1.2 1.1-2.7 1.1-2.2 0-2.5.2-1.3 1 .8.5 2.6 1 4 1 1.8 0 2.1.3 1.1.9-1.1.7-1 1.1.7 2 1.1.6 2.3 1.1 2.6 1.1s.6-55.1.6-122.5V0H153zM0 188.6v44.7l4-.6c9.7-1.3 22.4-10 28.2-19.3C48 188 36.7 155.7 8.5 146c-3.2-1.1-6.4-2-7.2-2-1.1 0-1.3 7.9-1.3 44.6"/><path d="M369.5 172.1c-1.1 2.2-3.9 5.9-6.4 8.1l-4.6 4 3.5-.6c4.6-.8 12.1-4.6 13.4-6.8.7-1.2.6-2.7-.7-5.2-.9-2-2.1-3.6-2.5-3.6-.5 0-1.7 1.8-2.7 4.1m38.5 22.6c0 .4.5 1.5 1 2.3.8 1.3 1 1.3 1-.2 0-.9-.4-2-1-2.3-.5-.3-1-.3-1 .2"/></svg>