<svg xmlns="http://www.w3.org/2000/svg" width="682.667" height="512" version="1.0" viewBox="0 0 512 384"><path d="M160 192v192h352v-71c0-41-.4-71-.9-71s-1.2.7-1.5 1.6c-.3.8-1 1.3-1.5 1s-.7.3-.4 1.4c.5 2.1-1.1 2.8-2.2 1-1.1-1.7-2.4-1.1-2 1 .5 2.8-.4 2.5-4.2-1.2-3.3-3.1-3.4-3.2-3.9-1.1-.4 1.5-1.1 2-2.2 1.6-1-.4-1.3-.2-.8.5.9 1.5.1 1.5-2.5 0-1.7-1.1-2.3-1.1-2.6-.1-.3.7-1.1 1.3-1.9 1.3s-1.4.4-1.4 1c0 1.8-2.3 1-5.3-1.8-2.1-1.9-2.8-2.2-2.4-.9 1.1 2.9-1 1.9-2.3-1.2-.6-1.6-2.4-4-3.8-5.4-3-2.8-14.6-8.9-26.7-14-10.1-4.3-13.6-6.5-19-11.6-4.3-4.1-4.4-4.1-6.2-2.3-2.7 2.9-6 4.3-10.9 4.8-5.9.5-6.1.7-6.9 5.3-.8 5-3.6 7.7-6.3 6.2-1.1-.6-2.2-1.8-2.6-2.7-.5-1.3-.9-1.4-2.1-.4-.8.7-2.1 1-3 .7-2-.8-4.5-7.2-4.5-11.8 0-3.5-.4-4.1-4.2-6.5-2.4-1.5-5.3-3.5-6.5-4.6-1.1-1.1-6.1-2.9-10.9-4.1l-8.9-2.2-2.7-5c-1.5-2.8-2.6-6-2.4-7.1.3-2.6-1.7-3.5-29.4-13-10.7-3.7-20.1-6.9-20.9-7.2-1.7-.6 1 4.8 3.3 6.7.8.7 1.3 1.8 1 2.5s.4 3.5 1.4 6.2 1.9 6.5 2 8.4c.2 3-.1 3.6-1.8 3.6-1.6 0-2.4-1.2-3.6-5.6-.9-3-2.6-7.3-3.9-9.5-2.9-5.1-12.2-13.9-17-16.2-3.5-1.7-3.7-1.7-5 .1-1.3 1.7-1.4 1.7-3.1-.3l-1.8-2.1-1.2 2.8-1.1 2.7-.8-2.9c-1.4-5-5.4-10-9.4-11.6-2.1-.8-4.6-2.1-5.5-2.9-2.3-1.9-5.6-9.8-5.6-13.3 0-2.8.2-2.9 3.1-2.3 1.6.4 5.7 1.8 8.9 3.1 3.3 1.3 6.8 2.4 7.7 2.4 1 0 4 1.2 6.7 2.6 7.8 4.2 67.1 26.4 70.3 26.4.5 0 2-1.1 3.3-2.5 1.2-1.3 2.6-2.3 2.9-2.1 1 .6 3.1-1.3 9.7-8.9 6.7-7.8 9.1-13.4 8.8-20.7-.3-4 .2-5.3 3.1-9 1.9-2.4 3.5-4.8 3.5-5.4s-.9-3.2-2-5.7-2.2-6.3-2.4-8.4c-.4-4.5-2.1-8.6-7.3-17.3-5.7-9.4-7.5-14.4-6.3-17.5s1.7-3.1 4.8-.3l2.4 2.3-.6-2.5c-.4-1.7.1-3.3 1.3-4.8 1.8-2 2.4-2.2 6.8-1.4 3.5.6 4.7 1.2 4.4 2.3-.3.8-.5 4.1-.5 7.4l-.1 6 3.8.9c2.8.7 5.5.5 10.5-.7 4.9-1.3 7.6-1.5 9.9-.8 5 1.5 12.2 6.1 14.8 9.6 3.7 4.7 6.5 17.1 6.5 27.9l-.1 9.1-1.9-3.6c-1-1.9-2.8-6.5-4-10.2-2.4-7.3-4.1-8.4-6.3-4-1.3 2.5-1.1 3.3 3.4 12.4 4.5 8.9 5.4 12.4 4.3 17-.8 2.9-3.3 1.6-4.9-2.5-1.7-4.2-4.8-8.1-7.6-9.7-1.5-.8-1.5-.3-.3 5.4.7 3.4 1.6 9.6 2 13.7l.7 7.5 1.5-3.3c1.6-3.3 4.7-5.1 6.3-3.5.5.5 1.9 5.4 3 10.9 2.1 9.9 2.2 9.9 8.8 16.9 3.7 3.8 8 8.7 9.7 10.8l3 3.7 14 1c19.1 1.4 27.9 2.8 34.4 5.4 6.6 2.6 17.2 9.5 16.5 10.6-.3.5-.1 1.1.4 1.5.6.3 1.3 2.6 1.7 5.1.3 2.5 1.3 4.8 2.1 5.1s1.1 1.3.8 2.4c-.5 1.6-.1 1.9 2.5 1.9 2.5 0 3.1.4 2.6 1.5-.3.8-.1 1.5.4 1.5.7 0 1-39.9 1-110.5V0H160zM0 189.1v45.2l5.9-.6c21.3-2.3 37.4-18.3 40.5-40.5 1.5-10.5-3.7-26.2-11.4-34.6-7.8-8.5-20.4-14.6-30.2-14.6H0z"/><path d="M374.4 153.2c-1 2.4-3.7 6-5.9 8.1l-4 3.7 5-1.5c9.3-2.7 12.1-7 8.2-12.5-1.3-1.9-1.5-1.8-3.3 2.2M506 220.4c0 .2.7.7 1.6 1 .8.3 1.2.2.9-.4-.6-1-2.5-1.4-2.5-.6"/></svg>