<svg xmlns="http://www.w3.org/2000/svg" width="682.667" height="512" version="1.0" viewBox="0 0 512 384"><path d="M193 192v192h319v-92.5c0-81.2-.2-92.4-1.5-91.9-.8.4-1.5 1.1-1.5 1.6 0 .6-.9.8-2.1.5-1.6-.4-1.8-.3-.9.8.8.9.7 1.4-.4 1.8-.9.4-2.1-.4-3.1-1.9-1-1.6-2.2-2.3-3.3-2-1.2.4-2.3-.4-3.5-2.7-2.5-4.5-9.1-8.7-24-15.1-14.4-6.2-20.2-9.3-25.3-13.8-3.1-2.7-3.7-2.9-5.2-1.6-2.9 2.4-8.5 3.8-13.3 3.3l-4.7-.5-.8 4.7c-.7 3.7-1.5 5.1-3.7 6.3-2.3 1.2-2.9 1.3-3.6.1-.7-1-1.3-1.1-3.1-.1-2.5 1.4-2.2 1.6-5-3.4-1.3-2.5-2.1-5.4-2-8 .3-7.1.1-7.5-4.2-9.7-2.4-1.2-4.5-2.5-4.8-2.9s-4.9-1.7-10.4-2.9c-11.3-2.5-13.8-3.5-13-5.6.4-.8.1-1.5-.6-1.5s-1-.6-.7-1.4-.1-1.7-.9-2-1.9-1.8-2.5-3.3c-.6-1.8-2.4-3.5-4.7-4.5-7.2-3.4-36.7-12.6-37.6-11.8-.5.5.7 3.1 2.8 5.9 2 2.8 3.6 5.3 3.6 5.5s-.9.6-2 .9c-1.7.4-1.9.9-1 3.2.6 1.7.7 3.3.1 4.3-.9 1.5-1 1.5-1.7-.3-1-2.7-7.1-12.2-9.4-14.7-1.1-1.2-1.7-2.5-1.4-3s.2-.8-.3-.7c-1.3.3-4.6-1.2-9.3-4.6-2.5-1.7-5.8-3.7-7.4-4.3-2.5-1.1-3.1-1-5.2.9l-2.2 2.1-1.2-2.3-1.2-2.2-1.5 2.4c-.8 1.3-1.2 1.6-.9.6.3-.9.2-1.7-.2-1.7s-2-2-3.5-4.5c-1.6-2.4-3.8-4.7-5-5-6.1-1.7-8.6-4-11.2-9.8-4.7-10.8-3.1-12.7 7.2-8.7 2.9 1.1 7.4 2.5 10 3.1 2.6.5 5.4 1.6 6.3 2.3.8.7 5.3 2.8 10 4.6 16.1 6.2 59.3 21 61.1 21 1 0 2.4-.8 3.1-1.8.7-.9 2.5-2.3 4.1-3.1 1.5-.8 4.6-4 6.9-7 2.2-3.1 5.1-6.7 6.3-8.1 3.7-4.1 6.3-14.3 4.3-16.7-.8-.9-.2-2.3 1.8-4.9 5.6-7.1 5.5-6.2 2.4-15.6-1.7-4.9-5.1-11.9-7.9-16.2-2.7-4.2-5.5-9.3-6.2-11.3-.6-2-2-5-3-6.7-3.4-5.8.4-10.3 4.6-5.6 2.3 2.6 2.9 2 1.4-1.4-1.9-4 1.5-7.2 8.1-7.5 5.5-.2 5.7 0 3.5 5.2-1 2.3-1.1 3.8-.5 4.2s.8 1 .5 1.5-.1 2 .5 3.4c.9 2.4 1.4 2.6 7.2 2.6 3.6-.1 7.4-.7 8.8-1.5 4.1-2.3 9.1-1.8 16 1.7 8.1 4.2 11.4 8.3 13.9 17.9 2.1 8 3.2 22.1 1.7 22.9-.4.3-1.9-2.7-3.3-6.5-2.6-7.4-5.4-11.2-7.2-10.1-1.9 1.2-1.2 4.3 2 9.8 5.4 9 7.9 15.1 6.8 16.4-.6.7-.6 2.1 0 3.6 2 5.4-3.4 6.3-5.9 1-2.4-5.1-2.1-.5.3 4.9 1.3 3 3.5 10.1 4.8 15.8 2.1 9.1 2.8 10.6 5.4 12.4 1.6 1.1 6.8 5.7 11.5 10.3l8.5 8.2 16.2 1.2c14.1 1 24.3 2.8 31.6 5.5 1.6.7 1.7-3.1 1.7-71.4V0H193z"/><path d="M397 107.2c-.8 1.8-2.3 4.6-3.4 6.2l-2 3 4.4-2.5c3.8-2.1 4.5-2.9 4.3-5.4-.3-4.4-1.9-5-3.3-1.3M24.2 145c-5.5 1.3-15.4 6.9-19.9 11.3L0 160.4v57.3l4.4 4.1c28.2 26 74.4 5.9 74.5-32.3.1-15.8-6.7-28.8-20.2-38.6-7.9-5.7-23.8-8.4-34.5-5.9"/></svg>