<svg xmlns="http://www.w3.org/2000/svg" width="682.667" height="512" version="1.0" viewBox="0 0 512 384"><path d="M0 192v192h512V0H0zM338.3 67.1C344.5 70.3 357 78.9 357 80c0 1.9-7.3 1-13-1.6-8-3.6-9.6-3.1-9.2 2.6.2 2.5.7 4.8 1.1 5.2.3.4 4 1.2 8.1 1.8s9.8 2.1 12.7 3.5c4.3 1.9 5.3 2.9 5.3 4.8 0 1.4-.9 3.1-2.2 4-2.7 1.8-3 1.4 5.2 6.1 4.5 2.6 5.7 3.6 3.8 3.3-3.3-.5-2.7.8 1.3 2.8 1.6.9 2.7 2 2.4 2.5s-.1 1.1.5 1.5c.5.3 1.5 1.6 2.1 2.8 1.2 2.1 1.1 2.1-.8.4-2.7-2.4-3-2.2-2.8 1.8.1 3.8-.4 4.2-2.4 2.2-1.1-1-1.4-.9-1.8.1-.3.6-.9 1-1.4.6-.5-.3-.9.2-.9 1 0 1.6 2.2 4.2 4.1 4.8.7.2 1.5 3.4 1.8 7.4l.6 6.9 15.5 1.7c8.5.9 15.9 1.7 16.4 1.7.5.1.3.7-.3 1.4-.6.8-.7 1.7-.3 2.2.4.4-2 .5-5.3.2-3.3-.4-8.7-.9-12-1.2l-6-.6 9.9 4.8 9.9 4.8 11.1-2.4c9.3-2 14-2.4 29.1-2.4 19.7-.1 23.7.1 23 1.3-.3.5.1 1.1.7 1.4q1.05.45-.6.3c-1.1-.1-2 .5-2.1 1.5-.2 1.2.3 1.8 1.6 1.8 1.1 0 1.9.7 1.9 1.6s1.7 2.3 4 3.2c2.5 1.1 3.8 2.2 3.5 3-.3.9.1 1.2 1.5.8 5.7-1.6 6.5-1.7 5-.7-.8.6-1 1.1-.5 1.1.6 0 .3.5-.5 1-1.1.8-.7.9 1.4.4 2-.5 2.7-.3 2.2.4-.3.6.4 1.4 1.6 1.8 2 .6 2 .8.5 1.9-.9.6-1.4 1.5-1 1.8.3.4-.2 1-1.2 1.3-1.5.6-1.2 1 1.6 2.5 2.5 1.3 2.9 1.8 1.5 1.9-2 0-2 0 0 1.5 1.9 1.4 1.9 1.4-.1 1.5-1.8.1-1.7.2.5 1.5 2.4 1.4 2.3 1.4-2.5 1.5l-5 .1 3.9 1.4c6 2.1 6.3 3.2.6 2.5s-6.3-.4-2 1.1c2.6 1 2.8 1.2 1.4 2.6-1.3 1.3-2 1.3-6.4-.1-6-2-6.1-2-5.4-.1.4.8.1 1.5-.5 1.5s-1.1.7-1.1 1.6c0 1.1-.6 1.3-1.9.9-1.1-.3-2.5.1-3.4 1-.9.8-2.5 1.5-3.7 1.5h-2.2l2.2 1.8 2.2 1.8-3.2.2c-1.7.1-5.2-.7-7.8-1.8l-4.7-2 4 3.4c2.2 2 3.5 3.5 2.9 3.6-.6 0-1.7-.7-2.4-1.5s-1.6-1.2-2.1-.9-.9 0-.9-.5c0-.6-.3-1-.7-.9-.5.1-2.8-1-5.3-2.4-5.1-3-13.5-5.1-29.3-7.3-13.7-1.9-21.3-3.9-29.2-7.6-5.4-2.5-7.3-2.9-13.7-2.8l-7.4.2 1.4 7.5c1.6 8.8.7 12.2-3.2 12.2-1.3 0-2.9.7-3.6 1.5-1.7 2-4.3 1.9-6.9-.2-1.6-1.4-2.2-3.5-2.8-9.8l-.8-7.9-4.5-.3c-2.5-.1-5.4-.3-6.5-.4-1.1-.2-6.6.3-12.2 1-7.8 1-11 1-13.7.1-3.9-1.3-5.3-3.9-3.6-7 .6-1.1.7-2 .3-2.1s-2.4-.2-4.3-.4-8.7-.8-15-1.4c-20.2-1.9-27.5-1.1-17.7 1.9 5.2 1.7 5.9 2.2 5.1 4.3-.9 2.3-2.8 2.1-12.2-1.3-4.4-1.6-12.5-3.7-17.8-4.6-9.2-1.6-9.8-1.6-11 .1-.7 1-2 1.5-2.8 1.2s-1.6-.1-1.8.4c-.6 1.7-5.4-1-6.6-3.6-.9-1.8-2.2-2.5-5.9-3-9-1.2-10.2-1.6-12.8-4.7-4.2-5-3.5-5.8 5.4-5.8 4.4 0 13.9.7 21.3 1.5 16.6 1.8 52.4 4.5 60.1 4.5 5.4 0 5.9-.2 9.5-4.1 4.8-5.3 15.2-22 15.2-24.4 0-.6-.9-1.8-2-2.8-1.5-1.2-2-3-2.1-6.9-.3-11-.8-12.3-4.8-13.1-3.6-.7-7.1-4-7.1-6.5.1-2 2.5-5.1 5.9-7.4 1.8-1.3 2.1-1.8 1-2.2-.8-.2-3.9-1.2-6.9-2.1-17.7-5.5-23-8.7-20.9-12.7.7-1.3 2.1-1.8 5.4-1.8 5.1 0 5.7-1 1.9-3-1.4-.8-3.2-2.7-4.1-4.3-1.3-2.6-1.3-3.1.4-4.9 1.8-2 6.5-4.8 8-4.8.5 0 1.3 1.4 1.8 3.2.8 2.4 1.8 3.4 4.2 4 4.1 1.1 4.9 2.5 2.7 4.9-2.1 2.3-1.7 2.3 2.9.4 2.3-.9 4.4-3 6.1-5.9 4.2-7.2 11-10.3 22.9-10.5 4.1-.1 7 .5 10 2"/><path d="M313.3 112.6c-.8 2.1 1.9 3.8 3 1.8.9-1.6.1-3.4-1.4-3.4-.5 0-1.2.7-1.6 1.6m26.7 3.9c0 .3 1.3 3.3 2.9 6.7 1.5 3.5 3.4 8 4 10.1 1.2 3.5 3.1 4.3 3.1 1.2 0-4.4 6.6-10.4 11.6-10.6 1.4 0 1.5-.2.4-.6-.8-.3-3.5-1.5-6-2.6-5.1-2.3-4.5-2.1-8.5-3-5.1-1.2-7.5-1.6-7.5-1.2m-19.4 31.6c-.9 2.2-3.5 6.6-5.8 9.7-5.1 6.9-7.4 12.5-5.2 13 1.7.4 13.5-11.7 16.1-16.5 1.6-3 1.6-3.3-.2-6.7-1.1-2-2.3-3.6-2.6-3.6-.4 0-1.4 1.8-2.3 4.1m48.4 5.8c0 .9 8.9 3.5 9.7 2.8.4-.5-7.2-3.7-8.7-3.7-.6 0-1 .4-1 .9"/></svg>