<svg xmlns="http://www.w3.org/2000/svg" width="682.667" height="512" version="1.0" viewBox="0 0 512 384"><path d="M328 192v192h184V8.2l-5.2-.7c-5.9-.8-10.4-2.3-9.5-3.1.3-.3-.3-1.4-1.4-2.5C494.1.1 491.5 0 411 0h-83zm-185.1-59.8c-.6 2.4-1.3 4.8-1.4 5.5-.2.6-3 1.9-6.2 2.8-7.8 2.3-10 3.5-15.5 9C111 158 108 166 108 180.4c0 8 2.5 17.7 6.7 25.9 3.3 6.5 15.6 18.8 22 22.1 14.6 7.3 39.4 7.5 53.6.5 18.7-9.3 28.9-32.3 23.1-52-2.9-9.8-6.2-14.6-19.2-28.2-8.2-8.6-20.3-13.8-32.4-14.1-6-.1-7-.4-10.3-3.4-5.1-4.5-7.1-4.2-8.6 1"/></svg>