<svg xmlns="http://www.w3.org/2000/svg" width="682.667" height="512" version="1.0" viewBox="0 0 512 384"><path d="M384 192v192h128V0H384zm-188.3-74.3c-.3.5-.2 3.7.2 7.1.9 7.3.6 7.7-6.4 8.7-7.5 1.1-12.4 3.4-19 8.8-7.9 6.5-10 9.2-11.9 15.7-3 10-1.3 25.4 4.3 39.3 3.8 9.5 7.7 15.4 15.2 22.9 6.8 6.8 13.5 10.3 23.2 12.4 15.3 3.1 28-1.4 44.3-15.9 4.8-4.3 10.3-14.8 12.9-24.8 2.9-10.7.9-29.6-4.1-40.6-.8-1.7-1.4-3.5-1.4-4 0-2.1-9.3-11.2-13.4-13.2-10.7-5-22.6-6.8-31.9-5-1.3.3-2.6-1.2-5-5.6-2.9-5.5-5.8-7.8-7-5.8"/></svg>