<svg xmlns="http://www.w3.org/2000/svg" width="682.667" height="512" version="1.0" viewBox="0 0 512 384"><path d="M453 192v192h59V0h-59zm-204.4-87.1c-.3.5.7 4.9 2.3 9.8 1.6 4.8 2.7 9.1 2.5 9.5-.2.3-3.9.9-8.2 1.3-9 .7-15 2.9-24.8 9-11.5 7.2-15.1 14.9-14.1 30.4 1.6 24.6 16.1 52.4 31.1 59.5 3.4 1.6 7.2 2.6 10 2.6 5.4 0 14.1-1.7 17.6-3.5 2-1 3.5-1.1 6.6-.3 5.9 1.6 18.1-.6 23.9-4.3 5.5-3.5 12.1-13.3 16.1-23.9 2.6-7.1 2.8-8.4 2.8-24.5.1-15.2-.1-17.7-2.2-23.7-2.5-7.2-8.1-14.4-14.2-18.3-4.2-2.7-18.4-6.4-25.5-6.7-2.7-.1-7.2.1-9.8.6-3.9.7-4.8.6-4.6-.5.4-1.9-2.9-12.9-4.7-15.7-1.5-2.3-3.8-2.9-4.8-1.3"/></svg>