<svg xmlns="http://www.w3.org/2000/svg" width="682.667" height="512" version="1.0" viewBox="0 0 512 384"><path d="M502 192v192h10V0h-10zM262.8 98.6c-.4.3-.2 2 .3 3.7.5 1.8.9 5.8.9 8.9v5.8h-14.9c-11.1 0-16.2.4-20 1.7-14.8 4.7-22 20.5-20.8 45.3.8 14.3 2.6 22.1 7.9 32.9 5 10.4 11.9 18 19.1 21.1 4.5 2 6.2 2.2 13.3 1.6 7-.6 8.9-.4 13.5 1.5 7.8 3.1 17.1 2.2 24.5-2.3 18.4-11.1 32.6-43.2 29.5-66.7-1.3-9.8-5.7-18.7-11.9-23.9-5.5-4.6-8.2-5.5-22.1-7.6-5.7-.9-10.7-1.8-11.1-2.1-.4-.2-1-4.2-1.3-8.7-.3-4.6-.9-9.1-1.2-10.1-.7-1.6-4.5-2.4-5.7-1.1M.2 181l.3 23.5.2-19.3L1 166l3 1.5c4 2.1 4.7 1.9 2.3-.8-1.2-1.2-3-3.8-4.2-5.7L0 157.5zm0 29c0 1.4.2 1.9.5 1.2.2-.6.2-1.8 0-2.5-.3-.6-.5-.1-.5 1.3m0 8c0 1.4.2 1.9.5 1.2.2-.6.2-1.8 0-2.5-.3-.6-.5-.1-.5 1.3"/></svg>