<svg xmlns="http://www.w3.org/2000/svg" width="682.667" height="512" version="1.0" viewBox="0 0 512 384"><path d="M281.5 110.7c-1.7 9.8-3.3 13.1-4.9 10.4-.8-1.3-10.9-3-21.8-3.7-25.2-1.6-35.2 7.8-41.3 38.6-2 9.8-1.6 26 .9 34.8l1.4 5.3-2.6 1.6c-1.5.9-4.8 3.7-7.4 6.1l-4.6 4.5-2.2-4.3-2.2-4.3-23.6.7c-30.8.9-66.4 2.3-87.7 3.7-20.4 1.2-63.4 4.8-65.5 5.4-.8.2-5.7.5-10.7.7l-9.3.2V384h119c104.1 0 119-.2 119-1.5 0-4.2-14.2-83.9-19.8-111.3-1.8-8.5-1.8-9.3-.3-10.1 4.4-2.4 14-4.3 28.6-5.7 19.2-1.8 39.1-5.6 44.8-8.6 4.9-2.4 7.6-4.4 13.7-10.1 2.5-2.3 8.8-8.1 14.1-12.9 8.2-7.5 10.2-10 14.7-18.3 7.2-13.3 11-23.2 12.7-33.2 1.9-10.9 1.9-16 0-18-2.2-2.1-4.1-1-7.3 4.1-9.2 15.1-11.4 18.4-14 20.9l-2.8 2.7v-9.8c0-10.7-1.6-16.7-6.7-26.5-4-7.7-9.7-12.4-19.7-16.6-7.9-3.3-8.2-3.5-7.6-6.2 2-9.5 2.1-8.8-1.9-12.5-2.1-1.9-3.9-3.4-4.1-3.4s-.6 1.7-.9 3.7"/></svg>