<svg xmlns="http://www.w3.org/2000/svg" width="682.667" height="512" version="1.0" viewBox="0 0 512 384"><path d="M0 8.7c.1 7.6.2 8.5 1.3 6.5.7-1.2 2.9-3.3 4.8-4.6C9.3 8.4 15 2 15 .6c0-.3-3.4-.6-7.5-.6H0z"/><path d="M16 .9c0 .5-3.2 4.3-7.1 8.5S2.1 17 2.5 17c1.7 0 13.7-9.4 16.2-12.7C21.4.8 21.5.8 22 3l.5 2.3 1.2-2.5C24.8.4 24.7.3 20.4.2 18 .1 16 .4 16 .9M.2 75.6c.1 18.6.3 31.7.5 29 .5-5.4 2-7.5 5.6-7.8 2.2-.2 2.3-.4 1.2-2.3C5.9 92 .8 54.6 1.1 47.9c.2-2.7 0-5.2-.4-5.5C.3 42 .1 56.9.2 75.6M268 159.8c-6.6 2.2-16.7 12.8-21.3 22.3-6.7 13.6-7.8 18.2-8.4 32.6l-.5 13.3-3.7 1c-2 .5-6 2.5-8.8 4.5l-5.2 3.5-2.2-4.2c-2.5-5.2-7.4-9.8-10.3-9.8-6.5 0-71.4 2-78.6 2.4-40.4 2.4-50.9 3.1-67.8 5-10.6 1.2-20.1 1.8-21.1 1.5-1-.4-6.7-4.1-12.8-8.3l-11-7.5-2.2-7.8c-1.3-4.3-4.7-12.9-7.7-19.2S1 177.2 1 176.7c0-.6 1.6.5 3.6 2.4l3.6 3.4-1.4-3c-.7-1.6-2.5-5.5-4-8.5l-2.7-5.5L0 274.7V384h123c122.8 0 123 0 123-2 0-3.5-6.7-49.3-11-75-2.2-13.4-3.8-25-3.6-25.7.8-2.1 9-1.5 20.6 1.3 13 3.2 36.7 4.5 43.3 2.3 8.6-2.7 28.8-17.8 35.4-26.4 1.7-2.2 4.8-8.5 6.9-14 3.9-10 3.9-10.1 3.9-24.5v-14.5l-3.9-8.8c-3.2-7.2-4.8-9.5-9-12.9-2.8-2.3-5.3-4.3-5.4-4.4-.2-.1.7-1.6 1.9-3.4 1.8-2.3 2.1-3.5 1.3-4.7-1.6-2.6-2.9-2.6-4.3.1-1.2 2.1-1.7 2.3-4.2 1.4-1.6-.5-2.9-1.4-2.9-2s-.7-.8-1.5-.5c-.8.4-1.7.2-2.1-.4-1.1-1.8-7.8-5.6-12.9-7.2-4.1-1.4-24.8-5-25.7-4.6-.2.1-2.3.8-4.8 1.7"/></svg>