<svg xmlns="http://www.w3.org/2000/svg" width="682.667" height="512" version="1.0" viewBox="0 0 512 384"><path d="M0 51.9v52l2.5 2.7c1.4 1.5 2.5 3 2.5 3.4 0 .3.7 4.9 1.5 10.1.9 5.2 1.8 10.8 2.1 12.6.2 1.8 1 3.5 1.6 3.9.7.4.8.3.4-.4-.5-.8 0-1.2 1.3-1.2 2.6 0 3.7 2.2 4.5 9 .4 3 .9 7.1 1.2 9 .4 2.3-1.8-1.2-6.5-10.5-3.8-7.7-7.9-15.1-9-16.5L0 123.5V384h256l-.5-2.3c-.2-1.2-.9-6.7-1.5-12.2-2-17.7-10.1-73.1-11.6-79.2-.9-3.4 2-3 14.9 2.1 12.5 4.9 17.8 6.1 31.8 7.2 9 .6 10 .5 15.3-1.9 6.1-2.8 20.6-12.5 27.2-18.1 2.5-2.1 4.6-5 5.4-7.6.8-2.3 2.4-4.8 3.6-5.6 3-2 8.2-12.8 9.5-19.9 2.2-12-1.5-26.8-8.7-35.2l-3.3-3.8 2.5-2.6c2.7-2.8 2.9-4 1.2-5.7-1-1-1.8-.7-3.8 1.7l-2.5 3-6.5-6.1c-9.3-8.6-12.3-10.3-23.4-13.3-11.4-3.1-17.1-3-23.6.4-4.8 2.5-15 11.8-15 13.7 0 .6-.7 1.4-1.5 1.8-.8.3-1.5 1.2-1.5 2s-.4 1.6-.9 1.8c-1.3.5-6 10.2-8.1 17.1-1.1 3.4-2.3 9.8-2.6 14.3l-.7 8.1-7.9 2.4c-4.4 1.3-8.2 2.7-8.4 3.1-1.1 1.8-2.3.5-4-4.3-1.5-4-2.8-5.8-5.9-7.7l-4-2.5-36.5.7c-47.8.8-68.5 2-110.5 6.1l-6 .6-13.2-9.6c-12.2-8.9-13.3-9.9-14.3-13.8-2-8.1-10.7-29.8-15.8-39.2-.3-.6 1.4.8 3.8 3l4.2 4-6.8-13.5c-3.8-7.4-6.8-14-6.7-14.5 0-.6 1.2-7.5 2.7-15.5 1.4-8 3-19 3.5-24.4 1-9.9 1.9-11.9 5.6-12.1.6 0 .9-.9.7-2-3.3-20.1-6.2-42.8-5.7-45.9.5-3.5.4-3.8-1.5-3.3-2.8.7-4.6-1.4-5.4-6.4-.7-4.7-.4-5.2 4.4-7.7 4.7-2.4 5.9-4.6 3.7-7-2.6-2.9-2.1-4.8 2.3-8 4.7-3.4 9.6-9.4 11.5-14 1.8-4.3 2.6-4.1 1.2.3-.6 2-4.3 7-8.6 11.7-5.5 5.9-6.7 7.7-4.6 6.5 4.6-2.4 10.5-7.3 15.2-12.8 4.7-5.6 5-5.6 2.8-.1L46 21.5l1.9-2.5c1.1-1.4 2.8-4.2 3.7-6.3C53.2 9.2 55 7.8 55 10c0 .5.5 1 1 1 .6 0 1-1.5 1-3.3s.7-4.3 1.6-5.5L60.1 0H0z"/></svg>