<svg xmlns="http://www.w3.org/2000/svg" width="682.667" height="512" version="1.0" viewBox="0 0 512 384"><path d="M0 44.3v44.4l6.7 2.6c9.8 3.8 11.8 4.1 15.2 2.4l2.9-1.4 1.3 7.6c.7 4.2 1.3 9.1 1.4 10.9.1 2.1 1.1 4.2 2.7 5.7 1.4 1.3 2.8 3.8 3.1 5.7 2.6 14.9 4.1 22 4.4 20.6.5-2.2 2.9-3 4.3-1.3 1 1.2 5.1 21.1 4.9 23.9 0 .6-2.8-4.5-6.2-11.4-6.5-13-12.5-22.6-17.1-27.2-2.8-2.8-4.6-3.7-16.3-8.7l-7.3-3V384h267.2l-.7-7.3c-1.4-15.5-4.8-43.1-7.6-62.6-1.6-11.2-2.7-20.6-2.5-20.8s3.7 1.5 7.9 3.7c10 5.3 16.7 7.7 26.2 9.5 12.9 2.5 18.3 1.7 32.5-4.8 3-1.4 7.1-3.2 9.1-4 4.4-1.8 8.6-6 10.6-10.6.8-1.8 3-4.8 4.9-6.6 1.8-1.8 4.8-6.2 6.5-10 2.7-5.6 3.3-8.3 3.7-16.1.4-8.7.3-9.7-2.3-14.9-1.4-3-3.8-6.8-5.1-8.4l-2.4-2.9 3.6-2.1c2.2-1.3 3.4-2.7 3.2-3.8q-.75-3.9-5.4 0l-2.9 2.5-6.7-7.8c-7.4-8.6-11.9-11.3-24-14.5-14.7-3.9-25.7 1.8-39.4 20.5-5.4 7.3-8.3 14.7-9.6 24.7-1.1 7.9-1.3 8.3-3.7 8.3-1.4 0-4.8.7-7.5 1.5s-5.5 1.5-6.1 1.5c-.7 0-2.2-2.7-3.4-6-3.6-9.8-2.4-9.5-43.6-9.2-36.8.3-57.7 1.2-86.4 3.8l-17.4 1.5-3.6-2.5c-2-1.4-8.8-6.5-15.1-11.3l-11.5-8.8-3.6-11c-2-6.1-5.7-15.4-8.3-20.7-2.5-5.4-4.6-10.1-4.6-10.5 0-.5 1.9 1.2 4.1 3.7l4 4.5-6.1-12.4-6.1-12.4 2.1-14.6c1.1-8 2.3-18.9 2.7-24.1.6-9.9 2.1-13.4 5.1-12.3 1.2.5 1.4.2.8-1.8-1.8-6.1-6.4-42.3-5.6-44.4.8-2 .6-2.2-2.3-2.1-2.8.1-3.2-.3-3.5-2.7-.4-3.4 2.2-7.7 4.6-7.7 2.6 0 6.2-2.8 6.2-4.9 0-.9-1.3-3-3-4.6l-2.9-2.8 6.4-6.2c3.6-3.4 7.3-8.2 8.4-10.6s2-3.8 2-3.1c.2 2.8-2.9 8.1-8.5 14.7l-5.9 6.9 6.3-4.4c3.4-2.4 7.5-6.1 9.2-8.2 3.5-4.3 5-4.9 4.3-1.6-.3 1.3.9-.1 2.7-3 2.9-5 3.3-5.2 4.5-3.6 1.2 1.7 1.4 1.6 2-1.7.9-4.6 6.2-13.9 6.9-11.9.2.8.8 3.7 1.3 6.5.8 4.8.8 4.6 1.1-4 .2-5 0-10.5-.3-12.3L91.9 0H0z"/><path d="M.1 105.4c-.1 6.7.2 8.7 1 7.9.6-.6 1.9-.9 2.8-.5 1.4.5 1.4.3-.2-2.1-1-1.5-2.2-5.3-2.6-8.5-.9-5.7-.9-5.6-1 3.2"/></svg>