<svg xmlns="http://www.w3.org/2000/svg" width="682.667" height="512" version="1.0" viewBox="0 0 512 384"><path d="M0 192v192h293v-11.8c0-14.5-1.6-38.1-4-60.2-1-9.1-1.6-16.7-1.5-16.9.2-.2 3.2 1 6.7 2.7 8.9 4.2 15.2 6.1 23.3 6.8 6.3.6 8.1.3 16.5-2.6 16-5.5 20.6-8.4 24.1-15.2 1-2 3.6-5.7 5.8-8.2 4.3-4.9 8.1-15.3 8.1-21.7 0-5.2-1.9-10.9-5.3-15.8-3.2-4.7-3.3-4.5 2-7.7 1.4-.9 1.5-1.5.6-2.4-.9-1-1.8-.8-4.3.6l-3.2 1.9-2.7-3.5c-4.4-5.8-7.3-8.2-14.1-11.4-8.3-3.9-18.1-4.2-24.6-.9-14.1 7.4-25.1 22.2-27.2 36.8-.8 5.5-2.3 6.8-9.8 8-4 .6-4.1.6-5.2-3.2-.6-2.1-2.1-5.3-3.2-7.1l-2-3.2h-23.2c-27.9 0-63.6 1.5-80.8 3.4-9.3 1-12.9 1-14.2.2-.9-.6-6.7-5-13-9.7-6.2-4.7-14.7-10.9-18.9-13.8-6.5-4.5-7.8-5.8-8.8-9.4-.7-2.3-2.8-7.6-4.7-11.8-3.8-8.6-4.5-12-1.7-9.8 2.1 1.8-14.6-31.4-20.4-40.4-4.8-7.5-11.9-15.7-13.7-15.7-.6 0-2.2-.9-3.6-1.9l-2.5-1.9 2.9-.8c2.3-.5 2.6-1 2.1-2.8-1-3.2-3.4-14.9-3.5-16.8 0-1.5.4-1.5 4.8.4 2.6 1.1 5 2.3 5.4 2.7.4.3.9 3.5 1.2 6.9.3 5.1.9 6.7 2.9 8.6 2.3 2.2 3.8 6.8 5.2 16.3.5 3.1 1 4 2.1 3.6.8-.3 1.4 0 1.4.7 0 .6.4.9.9.5 1.4-.8 2.5 1.9 5.1 12.4 1.4 5.9 2.6 8.8 3.1 8 .4-.8 1.1-10.3 1.6-21.2.5-10.8 1.2-19.9 1.5-20.2.3-.4 1.5-.7 2.6-.8 1.5-.1 1.8-.4 1.1-1.3-.6-.7-2.1-9.1-3.5-18.6-1.9-12.9-2.2-17.9-1.4-19.6.6-1.5.7-2.1 0-1.7-.5.3-1 0-1-.7 0-2.1 2.9-5.8 4.6-5.8 2.5 0 7.4-3 7.4-4.5 0-.7-1.3-2.4-2.9-3.7-1.5-1.3-3.5-3.4-4.3-4.8-1.3-2.4-1.2-2.7 2.4-6.3 4.6-4.6 4.9-3.6.8 2.1-1.7 2.3-2.7 4.2-2.4 4.2 1.4 0 10.9-8.8 14.5-13.3 2.2-2.7 3.9-4.2 3.9-3.4s-.9 2.6-2.1 4.1c-1.4 1.8-1.6 2.4-.5 2 .8-.3 2.2-1.7 3.1-3C128 59 132 58 132 60.1c0 2.6 1.8-.5 2.3-3.9.2-2.2 1.3-5.2 2.3-6.8l1.9-2.8 1.2 5.5c1.1 5.1 1.1 4.8 1-6.9-.1-6.7.1-12.2.5-12.2.3 0 2 1.2 3.7 2.6 3.6 3 4 2.4 1.1-1.6-1.9-2.7-7.2-17.6-8.5-24.1-.3-1.9-1.1-4.9-1.6-6.7L134.8 0H0z"/></svg>