<svg xmlns="http://www.w3.org/2000/svg" width="682.667" height="512" version="1.0" viewBox="0 0 512 384"><path d="M12 1.9c0 1.1-.4 2.1-.9 2.3-.5.1-3.2 4.9-6 10.6L-.1 25.1l.4 66.7c.5 81.3.5 77 1.3 78.3.7 1.2 3.1-3.7 5.8-11.9 2.3-6.8 4.6-7 4.7-.5.1 2.7.1 5.1 0 5.5 0 .5.3.8.7.8.5 0 .7 4.6.6 10.3l-.2 10.2 2-4.2c1.1-2.4 2.4-4.1 2.8-3.8.5.3 1 0 1.2-.5.2-.6 1.5.8 3 3.1 2 3 2.9 6.1 3.4 11 .7 7.1 1.8 8.1 2.9 2.9.4-1.7 1.1-3 1.7-3 1.2 0 .3 8.5-1.3 12.8-.6 1.5-1.2 6.1-1.4 10.2-.1 4.1-.7 9.7-1.4 12.5-.6 2.7-1.1 6.6-1.1 8.5.1 1.9-.4 8.7-.9 15.1-.5 6.3-1.2 20.3-1.6 31-1.1 29.4-1.2 30.5-1.9 43.9-.4 6.9-1.1 16.3-1.7 21-2.5 21.9-3.8 37.3-3.3 38.1.3.5 65 .9 148.9.9H313l.5-2.2c3-13.5 4-27 4-54.8 0-16.2-.4-33.4-.9-38.2l-.8-8.8 5.8 2.2c4.6 1.6 8.4 2.1 17.4 2.2l11.5.1 9.2-6.3c10.3-7 12.5-9.5 18.3-20.4 6.9-13.2 6.5-25-1.1-33.3-2.5-2.7-3.6-4.6-2.9-5 1.8-1.1 3.2-5.7 2.1-6.8-.6-.6-1.8 0-3.4 1.9l-2.4 2.8-4.7-4.1c-3.5-3.1-6.2-4.4-11.3-5.7-12.3-2.9-15.2-2.2-24.2 6.8-8 7.8-13.2 17.9-13.9 26.8-.4 6.5-.7 7.1-3.6 8.9-4.3 2.6-5.3 2.4-7.1-1.5-3.3-6.9-2.7-6.8-27.1-5.6-26.1 1.3-56.6 3.7-63.6 5-9.1 1.8-9.9 1.5-25-8.3-7.9-5.1-16.3-10.5-18.8-11.9s-5.7-3.9-7.1-5.5c-2.3-2.5-5.7-11.6-7.8-20.8-.6-2.7-1.1-3-4.5-3.1-3.6 0-4.1-.4-6.1-4.5-2.2-4.3-2.3-4.9-1.3-16.9.5-6.9.8-15.3.6-18.7-.3-4 0-6.3.7-6.2 2.8.3 3.7-.1 2.7-1.4-.5-.6-1.5-6.9-2.2-13.8l-1.2-12.7 2.5-5.4c2.3-4.7 3.1-5.6 6.7-6.7 5.6-1.7 6-3.5 1.6-8-2-2-3.6-4.2-3.6-4.7 0-1.5 3.5-4.5 4.3-3.7.4.4 2.5-1.1 4.7-3.2s4.3-3.6 4.7-3.2c.3.4 1.9-.5 3.5-2 2.7-2.6 2.9-2.6 4.1-.8 1.3 1.6 1.5 1.4 2.1-2.5.4-2.3 1.2-5.2 1.8-6.4 1.1-1.9 1.3-1.6 2.4 3.4 1.2 5.3 1.2 5.1 1.1-6.3-.1-6.4 0-11.7.3-11.7s1.8 1.4 3.4 3c3.7 3.9 4.4 3.2 1.3-1.3-1.3-1.9-3.4-7.5-4.6-12.3-1.2-4.9-2.9-11.6-3.7-14.9-1.7-6.8-8.2-17.8-14.7-24.7-2.5-2.7-4.7-6.4-5.3-8.5l-.9-3.8L84.3.2C13.5 0 12 0 12 1.9M153.3 94c-.9 1.6-2.1 3-2.6 3-.9 0-.1-1.7 2.1-4.3 2.3-2.6 2.5-2.1.5 1.3m-28.6 51.2c-.3.7-.5.2-.5-1.2s.2-1.9.5-1.3c.2.7.2 1.9 0 2.5m5.9 13.7c.3 2 1.2 5.6 2 8 1.6 5.2 1.1 6.5-1.3 3-1-1.3-3.5-4.3-5.6-6.6-2.9-3.2-3.7-4.7-3.2-6.3.5-1.7 1-1.9 2.1-.9 1.1.9 1.4.6 1.4-1.6 0-2.7.1-2.8 2-1 1.1 1 2.2 3.4 2.6 5.4m8.8 19.7c1.1 4 .2 3.8-2.3-.7-2.2-3.9-2.2-4-.3-3 1.1.6 2.3 2.2 2.6 3.7"/></svg>