<svg xmlns="http://www.w3.org/2000/svg" width="682.667" height="512" version="1.0" viewBox="0 0 512 384"><path d="M113.4 2.5c-2.8 2.2-3.5 2.3-6.9 1.4-8.6-2.4-18.9 1.5-26.6 9.9C75.6 18.5 69 29.9 69 32.6c0 .4-1.2 3.2-2.7 6.3-12.5 26.4-16.4 40.8-18.4 66.9-1.7 21.5-.1 66.6 2.2 63 .7-1.1.9-1.1.9 0 0 .7.5 1 1 .7 1.6-1 3 4.1 3 11.3 0 7.6.8 7.3 3.9-1.2 2.8-7.6 3-7.9 4.5-6.7.7.6 1.6.7 2.1.3.4-.4.4 4.5.1 10.8l-.6 11.5 3.4-9c3.3-8.5 3.5-8.8 3.5-5 .1 4.8 1 6.3 3.4 5.9.9-.1 1.8.2 1.8.7.1.5.3 2.6.5 4.6.7 7.4 1.6 12.3 2.5 12.8.4.3 1.4-1.4 2-3.7 1.3-4.6 2.9-7.2 2.9-4.7 0 .7-.5 4.9-1.2 9.3-1 6.7-1 8 .3 9 .8.6 1.4 2 1.3 3.1-1.4 15-2.6 43-3.4 78.5-.5 23.9-1.5 50.2-2.1 58.5-.9 13.1-1.4 15.8-4 21.4-1.6 3.5-2.9 6.5-2.9 6.7s25 .4 55.5.4H184v-2.4c0-2.8 1.4-3.5 5.8-2.9 2.6.4 3.2 1 3.2 2.9v2.4h64.4c50.6 0 64.6-.3 65.4-1.3 4.3-5.1 13-39.8 15.3-60.9 1.1-10 .7-40.6-.7-51l-.6-4.7 9.8.1c14.9.2 20.3-1.3 25.6-7 10-10.7 17.6-27.8 16.3-36.7-1-6.6-4.3-12.3-9.2-15.6-3.3-2.3-4.3-3.5-3.8-4.7 1.6-3.9 1.7-5.2.3-5.2-.8 0-2.1 1.1-2.8 2.5l-1.3 2.5-3.6-2.1c-2.4-1.5-5.9-2.3-10.7-2.7-12-.8-16.6 2-22.2 13.3-3.7 7.4-5.3 17-3.9 23.3.9 4.2.7 4.7-1.4 6.3-2.3 1.7-2.4 1.7-4.9-1.3l-2.6-3.1-17.5 1.2c-21.9 1.5-43.6 3.7-56 5.7l-9.5 1.6-12.5-7c-6.8-3.8-15.2-8.3-18.6-10.1-7.1-3.5-8.5-5.3-12.9-16l-3.1-7.6h-12.5L177 198c-2.4-4.9-2.7-6.1-1.9-11 .4-3 .8-9.2.8-13.8.1-4.5.4-8.1.9-8.1 2.6.4 3-.2 2.1-3.3-.5-1.8-.9-7-.9-11.5 0-7.3.3-8.5 2.4-10.5 1.3-1.3 2.6-3.5 3-5 .4-1.9 1.5-3 3.4-3.4 1.5-.4 3.7-1.3 5-2.1l2.3-1.4-4-4.4c-2.3-2.5-4.1-5.1-4.1-5.9s1.9-2.9 4.1-4.7l4.1-3.3-1.7 3.5c-1.7 3.2-1.4 3.1 4.8-2.4 6.5-5.7 6.7-5.8 7.6-3.6.8 2.2.8 2.3 1.4.4.3-1.1.9-3.5 1.2-5.3.7-3.5 1.9-3.3 2.8.3.3 1.1.5 0 .6-2.5s.5-6.2.9-8.3l.7-3.9 2.7 2.1 2.7 2.2-2.4-4.3c-1.3-2.4-3.3-9-4.5-14.8-1.1-5.8-3-12.3-4.1-14.5-3.5-6.8-10.8-16.3-14.9-19.7-2.8-2.1-4-3.9-4-5.6s-1.5-4-4.3-6.6c-5.5-5.3-15.3-12.8-19.5-15-3.5-1.8-3.7-2.1-4.7-7.9l-.6-3.7h-21.2c-21 0-21.2 0-24.3 2.5m72.9 110c-.3.9-.8 1.4-1 1.1-.3-.3-.2-.9.2-1.5.9-1.6 1.5-1.3.8.4m-21.2 62.8c.6 3.6.5 3.7-1.3 2.1-1-1-1.8-2.8-1.8-4.1 0-3.8 2.4-2.2 3.1 2m28.7 129.5c0 13-1 10.6-2.3-5.3-.7-7.9-.6-8.8.8-7.7 1.2 1 1.5 3.8 1.5 13"/></svg>