<svg xmlns="http://www.w3.org/2000/svg" width="682.667" height="512" version="1.0" viewBox="0 0 512 384"><path d="M150.2 6c-2.3 1.7-4.7 3-5.2 3-.4 0-1 .4-1.2.9-.1.5-2.9 3.1-6.2 5.8l-5.8 5-4.7-1.4c-5.5-1.7-12.8-.9-18.2 1.9-3.3 1.7-12.9 11-12.9 12.4 0 .3-.8 1.8-1.9 3.2-1 1.5-2.8 5.8-4.1 9.7-1.2 3.8-3.9 10.4-6 14.5-2 4.1-4.2 9.7-5 12.5-.7 2.7-1.7 5.5-2.1 6-1.1 1.4-4.5 19-6.1 31-.7 6-1.2 20.5-1.2 36.5 0 26.9.5 31 3.9 31 1.3 0 2.1 3.4 2.7 11.9.3 3.3.4 3.1 2.8-3.2 1.4-3.7 3.1-6.7 3.8-6.7.6 0 1.3-.6 1.4-1.3.1-.6.4 3.7.7 9.8l.6 11 2.8-8.6c1.5-4.8 2.7-9.6 2.7-10.8s.5-2.1 1.1-2.1c.9 0 1 2.7.6 9.5-.5 9-.4 9.6 1.6 10.7 1.2.6 2.4 1 2.7.9.9-.5 1.9 2.3 2.6 7.4.7 5.5 1 5.2 3.4-4.5 1.5-5.8 3.2-3.3 2 3-1 5.8-.5 13.1 1.1 14.1 1.4.9.4 16.5-1.2 18.5-.6.7-.6 1.5-.1 1.8 1.6.9.4 90.8-1.3 99.6-.8 4.3-1.2 9.7-.9 12.6.6 4.6.2 5.9-4.9 16.4-3.1 6.3-5.8 12.5-6.2 13.7l-.6 2.3H198v-5.3c0-5 .1-5.2 2.9-5.3 4.4-.2 6-1.1 7.3-4.1l1.2-2.8.3 3c.2 1.6.8 5.6 1.4 8.7l1.2 5.8h110.9l2-2.3c6.8-7.8 16.1-37 19.8-62.5 1.2-8.1.8-44.2-.6-53.8l-.6-4.1 10.1-.6c13.2-.8 17.5-2.2 22.3-7.2 7.6-7.9 13.8-22.7 13.8-32.8-.1-7.6-5.4-16-12-18.7-3-1.2-3.9-3.3-2-4.5 1.5-.9 1.2-3.5-.3-3.5-.8 0-1.9 1.1-2.5 2.5-1.2 2.5-1.2 2.5-4.4.8-3.7-1.9-15-2.1-20.5-.2-6.7 2.2-12.3 14.2-12.3 26.5 0 4.1.5 8.4 1.1 9.5.8 1.6.7 2.5-.7 4-1.7 1.9-1.8 1.9-4.4-.6l-2.6-2.5-22 2c-25.3 2.3-34.6 3.5-46.3 5.6l-8.4 1.5-18.3-9.1c-20.8-10.3-20.7-10.3-26.4-24.8-.7-1.7-1.8-3.2-2.4-3.3-.6 0-2.2-.2-3.6-.3-1.4-.2-3.5.4-4.8 1.2-2.8 1.8-3.2 1.5-7.2-6.1l-3.1-5.9 1.2-11.9c.9-9.3 1.5-11.9 2.7-11.9 1.1 0 1.3-.7.8-3.2-.3-1.7-.9-6.1-1.2-9.8-.6-6.4-.6-6.7 2.6-9.8 1.7-1.8 3.5-4.5 3.9-6 .5-1.9 1.7-3 4.1-3.8 5.4-1.8 5.9-3.7 2.2-7.5-4.6-4.7-4.8-6.4-1.5-9.4 3.6-3.1 4.7-3.1 4 .1-.4 2.5-.3 2.4 3.6-1.3 2.3-2.1 4.7-4.5 5.5-5.3 1-1.1 1.5-1.2 1.8-.3.9 2.2 2.1 1.4 2.8-1.7.6-3.3 2.2-4 2.9-1.3.3 1 .5-.8.6-3.9 0-3.1.6-6 1.1-6.3.6-.3 1-1.2 1-1.8 0-.7-.4-.6-1 .3-.5.8-1 1-1 .5 0-.6.4-1.6.9-2.3.6-1 1-1 2.1.3 2.3 2.8 2.8 1.5.8-2.4-1.1-2.2-2.6-8-3.5-12.8-2-11.9-6.6-20.6-16-29.9-4.8-4.7-7.3-8-7.3-9.4 0-2.7-5.5-8.1-15-14.8-7.7-5.5-7.6-5.4-8.4-10.3-.5-3-1.7-4.7-5.8-8.1-7.7-6.4-7.9-6.5-12.3-7.2-3.4-.5-4.7-.1-8.3 2.4m28 173.5c.3 1.3.1 2.2-.3 1.9-.9-.5-1.3-4.4-.5-4.4.2 0 .6 1.1.8 2.5m29.3 107.6c.4 1.6 1 2.7 1.5 2.4 1.7-1 2 3.2 1.5 20.2-.4 16.2-1.3 26.9-2.1 26.1-1-1.1-5.6-50.2-4.8-52.1.9-2.4 3.1-.5 3.9 3.4"/></svg>