<svg xmlns="http://www.w3.org/2000/svg" width="682.667" height="512" version="1.0" viewBox="0 0 512 384"><path d="M192.2 49c-6.5 4.9-13.7 7.9-17.2 6.9-4.3-1.2-12.9-1-16.4.5-7.5 3.1-18.6 18.1-18.6 25.3 0 1.5-1.2 5.5-2.6 8.8-3.9 9.1-8.4 23-10.5 32.6-2.6 12-5.2 45.3-4.4 55.9.4 4.7.6 11.3.5 14.7 0 3.4.4 7.2 1.1 8.4 1.1 2.1 1.3 2 3.3-2.9 1.2-2.8 2.4-5.3 2.6-5.6.5-.5 1.1 6.2 1.1 12.9 0 5.8 1.2 3 4.4-10 1.5-6.1 2.9-11.2 3.2-11.5.2-.3.1 3.3-.2 8-.5 6.5-.3 9.3.8 11.9l1.5 3.4.7-3.3c.9-4.1 2.5-2.2 2.5 3 0 1.9.6 5.5 1.4 8l1.4 4.5 1.1-4.5c.7-2.5 1.5-5.2 1.8-6s.5-1.9.4-2.4.5-.6 1.4-.3c1.2.5 1.5-.2 1.6-3.6.1-4.1.1-4.1 1-1.2.9 3.2.4 11.3-1.2 16.7-1.4 5.1-1.1 6.6 1.4 7 2 .3 2.2.9 2.5 7.7.3 7.2.3 7.3-2 6.8-1.3-.3-3.6 0-5.3.8l-3 1.3 3.5 1.4c1.9.8 4.3 1.8 5.2 2.1 1.6.6 1.8 2.8 2 21.4.3 18.3 0 22.2-2 32.3-3 15.3-4.1 23.3-5.1 37-.8 10.4-1.3 12.3-4.9 20.1-2.2 4.7-5.2 12.7-6.6 17.8l-2.5 9.1h96.1l-.6-2.7c-.3-1.6-.8-6.7-1.2-11.4-.6-8.6-.6-8.6 1.9-9.3 1.9-.4 2.6-1.5 3.2-4.3.4-2.1 1.6-5 2.7-6.6 1.7-2.4 1.9-3.7 1.3-8-.4-2.9-.7-7-.8-9.2 0-2.2-.9-13.9-1.9-26-1.3-14.3-1.7-24.3-1.2-28.5l.8-6.5 1.1 7.3c.7 3.9 1.4 7.5 1.8 7.8.3.3 1.1-2.2 1.8-5.6l1.2-6.2 1.8 3.6c3 6.3 4.3 15.2 5.4 37.6 2.1 42.5 5.5 57.8 14.7 65.5 2.9 2.4 3.4 2.5 17.3 2.5 14.2 0 14.4 0 28.3-4.5 7.7-2.5 14.2-4.5 14.6-4.5.3 0 .6.9.6 2 0 3.1 2.5 2.3 4.6-1.5 2.7-5 6.4-5.9 6.4-1.4 0 1 .7 1.9 1.5 1.9.9 0 1.5-.9 1.5-2.4 0-3.4 1-5.6 2.5-5.6 2.4 0 7.5-6.4 9.6-11.9 2.9-7.9 6.6-23.8 8.4-36.1 2.7-19.2 1.8-38.1-3-61.6l-.7-3 8.7-1.2c10.7-1.4 15-3.4 19.2-9 5.8-7.6 9.6-23.7 7.3-30.6-1.5-4.8-6.1-10-10.1-11.6-2.7-1.2-3-1.7-2.5-4.2.6-3.2-1.3-4-2.1-.8-.6 2.3-1.5 2.4-5.8.9-2-.7-5.3-.9-8.9-.5-7.1.9-11.7 4.6-14 11.3-1.9 5.4-2.1 16.6-.5 21.2 1 2.7.9 3.6-.4 4.9-1.5 1.4-1.8 1.4-3.5-.1-1-.9-2.8-1.7-3.9-1.7-3.8 0-35.8 6-48.6 9.2l-12.9 3.1-14.6-7.5c-15.8-8.1-17.7-9.9-21-19-2.1-6.1-4.9-6.4-9.8-1.3l-3.3 3.6-1.6-2.5c-.9-1.3-1.7-3.5-1.9-4.9-.1-1.3-2-5-4-8.2-3.9-5.7-3.9-5.7-3.2-13.3s1.8-11.1 3.2-10.2c.4.3.6-2.8.5-6.8-.2-7.3-.2-7.3 3.8-11.7 2.3-2.5 4.1-5.1 4.1-5.9s1.6-2 3.5-2.6c4.9-1.6 5.2-2.7 1.7-6.3-1.6-1.8-3.2-4.6-3.6-6.2-.4-1.8-.3-2.5.2-1.7.7 1 1.3.8 2.7-.8 2.2-2.5 3.9-1.6 2.4 1.3q-1.05 2.1 3-1.8c2.2-2.1 4.1-3.5 4.1-3.1 0 .5.6.3 1.4-.3 1.1-.9 1.5-.9 1.9.1.2.7.8.1 1.2-1.5.4-1.5 1.3-2.7 2.1-2.7 1 0 1.4-1.4 1.4-4.9s.4-5.1 1.6-5.5c.9-.3 2-.4 2.5-.1.4.3 0-1.4-1.1-3.7-1.1-2.4-2-5.7-2-7.3-.1-10.3-6.6-22.5-16.9-31.5-3.8-3.4-6.2-6.5-7-8.9-.7-2.4-2.6-4.7-5.7-7-2.6-2-5.5-5.4-6.9-8.1-2.8-5.6-9.2-10.1-14.9-10.7-3.6-.4-4.8.1-9.4 3.7"/></svg>