<svg xmlns="http://www.w3.org/2000/svg" width="682.667" height="512" version="1.0" viewBox="0 0 512 384"><path d="M197.1 53c-7.4 5.8-12.9 7.3-20.8 5.8-5.4-1-6.8-.9-10.9.7-2.8 1-6.9 3.9-9.6 6.7-5.3 5.2-10.8 15.6-10.8 20.1 0 1.6-1.6 6.4-3.5 10.8-6.8 15.5-10.6 32.5-12.4 55.4-1.3 16.3-1.3 50.3 0 51.1.5.3 2.1-2 3.4-5 1.4-3.1 2.8-5.6 3.1-5.6s.3 4-.1 9-.5 9-.2 9c.7 0 5.3-15.2 6.3-20.5 1.4-8.2 2-6.3 1.6 5-.5 12.3.7 15.2 2.9 7.2l1.3-4.2 1.2 10.9c1.3 10.7 1.9 13.2 2.8 10.5 1.2-3.4 2.9-10.5 2.8-11.1-.1-.4.5-.5 1.3-.2 1.2.5 1.5-.4 1.6-4.2l.1-4.9 1.4 4.5c1.2 3.7 1.3 5.6.3 10.5-1.9 9.9-1.8 12 .9 11.9 2.1-.1 2.2.3 2.2 7.1v7.2l-4.5.6c-7.4.8-7.1 2.6.8 4.7l3.7 1.1v19.3c0 17.8-.2 20.4-2.9 32.3-3.4 14.6-5.6 29.6-6.6 43-.5 7.2-1.4 11.2-4.1 17.8-1.9 4.7-4.1 11.5-4.9 15s-1.8 7.1-2.1 7.9c-.6 1.4 4.2 1.6 46.5 1.6H235l-.5-5.3c-1.7-18.4-1.7-18.2.7-19.2 1.2-.6 2.6-2.7 3.3-5 .7-2.2 2-5.5 3-7.3 1.2-2.4 1.5-4.5 1.1-7-.3-2.1-.8-8.4-1-14.2s-1.1-16.8-2-24.5c-1.7-15.3-2.1-25.5-.8-25.5.4 0 .7-1.7.5-3.8-.2-3.5-.2-3.6.6-.7.5 1.6.9 5.3 1 8.2 0 2.8.5 5.4 1 5.7 1 .7 2.1-2.7 2.1-6.6 0-4 1.6-4.2 3.4-.4 2.5 5.2 4.3 15 5.6 29.1 4.9 56.6 7.2 66 18.2 74.2 2.9 2.1 4.2 2.3 15.1 2.3 11.5 0 12.2-.1 26.9-5 8.3-2.8 15.4-5 15.9-5s.9.9.9 2c0 3.2 1.8 2.4 4.5-2.1 2.7-4.2 4.8-4.7 5.3-1.2.2 1.2 1 2.4 1.8 2.7 1 .4 1.4-.3 1.4-2.9 0-1.9.6-3.9 1.3-4.4 8.6-6.9 10.7-11.5 14.9-32.1 2-10.1 2.3-14.3 2.3-35.5 0-22.4-.2-24.7-2.6-34.7l-2.6-10.6 8.1-1.2c11-1.6 15.7-3.8 19.3-9.1 3.4-5 6.8-14.1 7.8-21.1 1.3-8.3-3.4-17.5-10-19.9-3.2-1.2-3.5-1.6-3-4.1.8-3.3-1.4-4-2.2-.8-.4 1.6-1 1.9-2.7 1.3-1.1-.4-5.3-.8-9.3-.8-10.8 0-14.9 3.8-17.4 16.3-1.2 5.5-1.1 7.2.3 12.5 1.5 5.7 1.5 6.3.1 7.4-1.4 1-2 1-3.3-.2-2.3-2.1-3.2-2-23 2-15.8 3.1-24.4 5.1-36.5 8.6-3.9 1.2-4.3 1-18.8-6.6-15.9-8.3-17.2-9.5-20.3-18.8-2-6-5-6.4-9.1-1.2-1.5 1.9-3.1 3.5-3.5 3.5-1 0-5.1-8.1-4.4-8.7.3-.3-1.4-3.4-3.8-6.9l-4.3-6.4 1.2-7.6c.7-4.2 1.8-8 2.5-8.4.9-.6 1.2-3.1 1.1-8.2-.2-7.2-.1-7.4 2.9-9.7 1.8-1.2 3.6-3.6 4.2-5.1.6-2 2-3.3 4.4-4 4.8-1.6 5-2.6 1.5-6.6-3.7-4.2-3.9-6.6-.7-8.8 2.3-1.5 2.5-1.4 2.8.4.3 1.9.5 1.9 3.3-.7 1.6-1.6 3.3-2.7 3.7-2.6.5.2.8-.1.8-.7 0-.5.7-.7 1.5-.4.9.4 1.8-.1 2.2-1.2.3-1.1 1-2.2 1.5-2.5s1.1-2.9 1.5-5.7c.6-5.2 1.8-6.3 4.1-4 1.7 1.7 1.5.2-.2-2.5-.8-1.2-2-5.4-2.6-9.2-.6-3.9-1.6-8.6-2.2-10.5-1.7-5.5-8.2-14.4-14.7-20-4-3.6-6.2-6.4-7-9-.7-2.5-2.6-4.9-5.5-7.1-2.4-1.9-5.2-5.2-6.2-7.4-2.3-4.9-8.6-9.5-14-10.1-3.4-.4-4.6 0-9.3 3.6m5.6 132.2c-.3.7-.5.2-.5-1.2s.2-1.9.5-1.3c.2.7.2 1.9 0 2.5"/></svg>