<svg xmlns="http://www.w3.org/2000/svg" width="682.667" height="512" version="1.0" viewBox="0 0 512 384"><path d="M199.5 54.8c-6.3 4.9-14.3 7.6-18 6.2-4.3-1.6-11.5-1.2-16.2 1.1-8.1 3.9-16.2 15.7-17.8 25.9-.4 2.5-1.6 6.3-2.7 8.4-5.9 11.6-10.9 31.5-12.9 50.6-1.2 12.1-1.8 57-.8 57 .4 0 1.8-2.7 3.2-6 1.5-3.3 2.9-6 3.3-6 .3 0 .3 3.9 0 8.7-.4 5.5-.3 8.2.3 7.3 1.1-1.8 4.5-14.3 6.1-22.3.7-3.2 1.4-5.7 1.6-5.5.2.3 0 6-.6 12.8-1.1 14.7-.1 18 2.5 8.8 2.1-7 2.1-6.9 3.1 8.5.3 6 .9 10.5 1.4 10 .9-1.1 3.2-9.3 3.1-11.7 0-1.8 0-1.8 1.4 0 1.3 1.7 1.4 1.4 1.5-3.2 0-7.3 1.2-7.4 2.7-.2 1.1 5.2 1 7.2-.2 12.6-1.5 6.4-1.3 10.2.6 10.2.5 0 1.4-1 1.9-2.3.6-1.5.9.5.7 6.8-.2 7.3-.5 8.9-1.7 8.7-2.3-.5-8 .8-8 1.9 0 1 3 2.4 7.3 3.3l2.7.6v19.1c0 17.1-.2 19.9-2.4 27.7-4.2 14.8-7.5 33.1-8.4 46.7-.8 10.8-1.6 14.8-4.5 23.5-2 5.8-3.9 12.6-4.2 15.2l-.7 4.8h92.5l-.7-5.3c-2.1-17.3-2-18.2.7-19.4 1.7-.8 2.7-2.3 3.1-4.7.4-2 1.6-5.2 2.8-7.1 1.5-2.7 1.9-4.4 1.3-7.3-.3-2-.6-6-.6-8.7 0-2.8-.9-14.6-1.9-26.3-1.2-13-1.7-24.2-1.3-28.7.6-7.8 2.3-9.3 2.4-2.2 0 2.3.4 6 .8 8.2l.8 4 .7-4c.4-2.2 1.1-4.9 1.6-6 .7-1.7 1.1-1.4 2.9 2.6 3.2 7.1 4.8 15.6 7.1 37.9 4.4 43.5 8.5 57.5 18.8 64.9 2.7 1.9 4.3 2.1 15.4 2.1 11.3 0 13.1-.3 22.3-3.4 5.5-1.8 12.4-4.3 15.3-5.5l5.2-2.1v3.1c0 4.1 1.9 3.4 4.8-1.9 2.8-4.9 4.7-5.4 5.6-1.2.8 4.3 2.6 3.7 2.6-.9 0-3.4.5-4.2 3.4-5.9 4.1-2.4 5.8-5.5 8.1-14.2 3.6-14 4.7-23.1 5.2-43 .6-21.5 0-28-3.9-44.4-1.8-7.4-1.9-8.9-.7-9.7.8-.5 2-.7 2.7-.4 1.7.6 13.8-2.2 17.3-4.1 6.3-3.2 13.1-18.1 13.2-28.9.2-8.7-3.3-14.5-10.6-17.6-2.4-1-2.7-1.6-2.2-4 .8-3.3-1-4-2-.8-.6 1.6-1.1 1.9-2.8 1.3-4-1.5-16.3-.9-19.1 1-3.3 2.1-6.1 7.7-7.7 15.2-1 5.1-1 6.7.5 11.8 1.6 5.3 1.6 6 .2 7.4s-1.7 1.4-3.6-.3-2.7-1.8-9.3-.7c-12.3 2.1-38.9 8.2-46.1 10.6l-6.8 2.3-15.3-7.9c-16.6-8.5-15.9-7.8-20.9-20.1-.8-2-2-3.7-2.7-3.7s-3 1.8-5.1 4.1c-2.2 2.3-4.1 4-4.2 3.8-1.2-1.4-4.4-8.8-4-9.2.3-.3-1.3-3.3-3.6-6.6l-4.2-6.1.7-7.5c.4-4.2 1.4-8.2 2.1-9 .9-.9 1.4-3.7 1.4-8.2 0-6.5.1-6.9 3.4-9.7 1.9-1.5 3.7-3.9 4-5.2.4-1.6 2-3 4.6-4 4.6-1.9 4.8-2.4 1.9-5-2.4-2.1-5.4-8.3-4.5-9.2.3-.3.6.1.6.8 0 .8 1.3.2 3.1-1.6l3.2-2.9-.7 3-.7 3 3.3-3.3c1.9-1.8 3.7-2.9 4.1-2.6.4.4.7.2.7-.6 0-1 .3-1 1.5 0s1.5.7 2.1-1.4c.3-1.4 1-2.3 1.5-2 1 .6 1.1.5 1.4-5.5.3-4.6 2.1-6.7 4.2-4.9 1.7 1.4 1.6.9-.7-3.7-1.1-2.2-2-5.3-2-7 0-5.4-2.9-14.4-6.3-19.8-1.9-2.9-6.3-7.9-9.8-11-4.4-4-6.7-7-7.4-9.5-.7-2.4-2.4-4.7-5.1-6.7-2.3-1.7-5-5-6.2-7.5-1.4-3-3.5-5.4-6.5-7.3-6.2-3.8-10-3.6-16.2 1.1m5.1 131c-1.2 1.1-1.6-.6-.9-3.9l.8-3.4.3 3.3c.2 1.9.1 3.6-.2 4"/></svg>