<svg xmlns="http://www.w3.org/2000/svg" width="682.667" height="512" version="1.0" viewBox="0 0 512 384"><path d="M200.7 55.1c-7 4.9-14.4 7.4-18.2 5.9-3.7-1.4-11-1.2-14.9.4-7.9 3.3-16.8 14.7-18.6 23.8-.6 2.9-2.7 8.7-4.6 13-9 19.6-14.6 58.4-13.4 91.8l.5 13.5 3.3-6.5 3.3-6.5-.5 9-.5 9 2-4.3c1.1-2.4 3.1-9 4.5-14.5l2.4-10.2-.6 10.5c-.3 5.8-.7 11.4-.9 12.5s0 2.9.4 3.9c.6 1.5 1.2.4 2.6-4.5l1.9-6.4.7 6c.4 3.3.8 9.1.9 13 .2 6.8.2 6.9 1.5 4 .8-1.7 1.4-4 1.5-5.3 0-1.3.4-2.1.9-1.8.5.4.7-.3.4-1.4-.4-1.6-.2-1.9 1.1-1.4s1.6-.1 1.7-3.2c.1-7.7 1.4-7.8 2.7-.2 1 6.2 1 8.2-.3 13.2-2 7.7-.5 12.7 2.4 7.8.8-1.2 1 .5.8 6.8-.2 8-.3 8.5-2.3 8.2-2.8-.4-7.7 1.6-6.9 2.8.3.6 2.5 1.5 4.8 2.1l4.2 1-.3 20.4c-.2 19.5-.3 20.8-3.7 34-4.8 18.6-6.5 28.9-7.1 42.4-.3 8.8-1 13.1-2.9 18.3-2.2 6.2-5.5 18.6-5.5 20.9 0 .5 18.1.9 46.1.9h46.2l-.7-7.3c-.3-3.9-.9-9.3-1.2-11.9-.6-4.4-.5-4.8 1.9-5.7 1.7-.7 2.7-2 3.2-4.3.4-1.8 1.6-5.1 2.7-7.2 1.5-2.8 1.8-4.9 1.3-7.5-.4-2-.6-5.9-.6-8.6.1-2.8-.6-13.6-1.6-24-1.8-19.9-1.9-33.6-.3-36.4.7-1.2 1-.6 1 2.4.1 2.2.5 6 .9 8.5l.7 4.5 1.3-5.9c.8-3.8 1.6-5.5 2.3-4.8 2.5 2.5 6 15.5 7.9 29.5 1.1 8.4 2.9 21.5 3.9 29.2 3.5 25.3 7.8 38.3 14.9 45.4l4.1 4.1h14.4c15.3 0 17.6-.5 36-7.4 3.7-1.4 7-2.6 7.2-2.6s.4 1.4.4 3.1c0 4.3 2 3.3 4.8-2.4 1.2-2.6 2.6-4.7 3.1-4.7.4 0 1.2 1.4 1.7 3.2 1.4 4.9 3.6 4.9 3.3 0-.3-3.7 0-4.3 3.1-6.4 2.7-1.8 3.9-3.8 5.7-9.1 5.4-16.1 7.8-51.2 4.9-71.4-1.4-10-4.7-25.7-6.2-29.7-.4-1.1.6-1.6 4.3-2.1 16.3-2 21-5.1 26.3-17 6.9-15.4 4.1-30-6.5-33.5-3.7-1.2-4-1.7-2.6-4 1.6-2.5-.1-3.4-1.9-1-1.6 2.1-2 2.2-5.4 1-6.2-2-14.3-.5-18.2 3.4-5.6 5.6-8 18.4-5 26.8 1.2 3.4 1.2 3.9-.5 5.4-1.8 1.6-2 1.6-4-.2s-2.3-1.8-13.7.5c-17.2 3.4-34.9 7.7-41.7 10.1l-5.9 2-14.1-7.1c-7.7-3.9-14.8-7.9-15.8-8.8-1-1-3.1-4.9-4.6-8.7-3.3-8-4.7-8.4-9.8-2.8l-3.2 3.6-2-3.3c-1.2-1.9-2.1-4.2-2.1-5.2 0-.9-1.8-4.4-4.1-7.7-3.8-5.6-4.1-6.4-3.5-10.8 1.4-9.4 1.8-11.2 3.1-11.2 1 0 1.2-1.7.8-7.4-.6-7.5-.6-7.5 2.6-10.2 1.7-1.4 3.8-3.9 4.7-5.5.8-1.6 2.5-3.1 3.9-3.5 4.7-1.2 5.1-3.1 1.6-6.8-3.8-3.9-3.6-6.4.6-9.1l2.6-1.7-.7 2.8-.6 2.9 3.5-3.7c1.9-2.1 3.5-3.3 3.5-2.7 0 .8.4.8 1.3 0 .8-.6 1.7-.8 2.1-.4s.9-.2 1.2-1.4 1.2-2.4 2-2.7c.9-.3 1.4-2 1.4-4.4 0-4.8 2.2-7.1 4.6-5.1 1.2.9 1.1.4-.4-2.2-1.1-1.9-2.4-7.1-3-11.6-1.5-11.2-4.7-17.1-14.4-26.6-5.1-5.1-8.1-8.9-8.5-10.8s-2.3-4.5-5.4-7.1c-2.7-2.3-4.9-4.7-4.9-5.4 0-4.6-9.5-12.4-15.1-12.4-1.4 0-5.1 1.8-8.2 4.1m3.9 130.7c-1.2 1.1-1.5-.5-.8-4.4l.7-3.9.3 3.9c.2 2.1.1 4.1-.2 4.4"/></svg>