<svg xmlns="http://www.w3.org/2000/svg" width="682.667" height="512" version="1.0" viewBox="0 0 512 384"><path d="M214.7 61c-2.6 1.6-5.6 3-6.7 3-1 0-3.1.5-4.6 1-2.1.8-3.7.7-6.6-.5-5.3-2.1-12.3-1.9-17.4.5-8.2 4-18.3 17.2-18.4 23.9 0 1.4-1.1 4.1-2.4 6-4 5.8-8.3 17.8-11.1 31-2.5 12.3-5.8 45.3-4.9 50.1.3 1.4.1 6.5-.4 11.5-.5 4.9-.6 9.4-.2 9.8.4.5 2-1.1 3.5-3.5l2.6-4.3-.5 7.5-.6 7.5 3.6-7 3.5-7-.4 5c-.3 2.7-.1 5.9.3 7 .8 2.2.9 2 4.5-7.5 1.3-3.2 1.4-2.6 1.4 8.2.1 6.6.5 11.9 1.1 12.3.6.3 1 0 1-.7.1-.7 1.4-4 3.1-7.3l3-6-.5 9c-.2 4.9-.9 10.1-1.4 11.6-1.1 2.9.1 5.9 2.3 5.9 1.1 0 1.5 1.3 1.5 4.9 0 6.9-.7 8.1-4.4 8.1-1.7 0-3.8.5-4.6 1-1.2.7-.7 1.2 2.2 2.5 2.1.8 4.2 1.5 4.8 1.5s1 7.2 1 20.7c0 18.8-.2 21.7-2.4 29.8-5.2 19.4-8.9 42.8-8.5 53 .1 1.6-1 6.6-2.4 11-1.3 4.4-3 10.7-3.7 14-.6 3.3-1.4 6.8-1.6 7.7-.5 1.7 2.1 1.8 45.5 1.8 27.7 0 46.1-.4 46.1-.9s-.4-4.3-.9-8.3c-2.3-18.1-2.3-19.4.4-20.6 1.4-.7 2.5-2 2.5-3 0-1.1 1.2-4.1 2.6-6.8 1.9-3.6 2.4-5.7 2-8.4-.3-1.9-.8-7.1-1-11.5-.3-8-2-29.1-3.2-39.5-1.3-12.2 4.8 3.3 10.2 26 7.1 29.6 9.7 39.7 12.6 48 3.6 10.1 7.8 18.4 11.2 22.3l2.5 2.7h41.2l11.2-5.1c6.1-2.8 12-5.6 13.1-6.1 1.7-.9 1.8-.7 1.2 2.3-.3 1.9-.1 4.1.4 4.9.9 1.3 1.2 1.2 2.5-.4.8-1.1 1.5-2.9 1.5-4 0-3.2 1.1-6.6 2.1-6.6.5 0 1.1 1.1 1.5 2.4.7 3 4.4 6.7 4.4 4.5 0-.8-.4-3-1-4.9-.9-3-.7-3.7 1.5-6 4.7-4.9 5.4-17.5 2.4-45-2-18.8-5.6-34.4-11.9-52.2-2.2-6.1-4-11.5-4-12 0-.4 1-.8 2.3-.8 5.4-.1 16.2-3.1 18.5-5.2 7.7-7.2 12.7-22.1 10.8-32.2-.9-4.5-5-9.4-9.4-11.3-2.9-1.2-3.3-1.8-2.8-3.9.7-2.8-1-3.3-2.9-.7-1 1.3-1.7 1.4-4.3.5-4.1-1.4-13.6-.1-17 2.5-5.9 4.4-9 19-5.7 27 1.4 3.3 1.4 3.7-.2 4.9-2.2 1.6-3 1.7-3.8.4-.3-.6-1.4-1-2.4-1-4.2 0-40.2 12.5-49.1 17l-3.6 1.8-10.9-7.4c-6.1-4.1-11.8-8.3-12.8-9.2-.9-1-2.5-4.8-3.6-8.5-1-3.7-2.1-7.1-2.5-7.4-.3-.4-2.3.1-4.2 1.1-2 .9-3.7 1.6-3.9 1.4-2.8-3.7-5.5-8.7-5.5-10.1 0-1-1.3-3.7-2.9-6-2.8-4-2.9-4.5-2-9.7.5-3 1-6.5 1.1-7.8.1-1.2.9-2.2 1.7-2.2 1.1 0 1.3-1.5.8-8.4-.7-8.1-.6-8.4 1.7-10 1.4-.8 2.7-2.4 3.1-3.5.4-1.3 1.9-2.3 4.1-2.7 1.9-.3 3.7-1 4-1.5s-.7-2.6-2.1-4.6c-3.1-4.6-3.1-5-.2-7.4 2.7-2.2 3.8-2.4 3.1-.4-.8 1.9 1 2 2.5.1 1.8-2.2 6.9-3.7 7.4-2.3.3.7 1 0 1.6-1.6.6-1.5 1.5-2.7 2-2.7s1.2-1.7 1.6-3.7c.9-4.8 1.5-5.9 2.6-4.2.7 1.1.9 1.1.9.1 0-.8.5-1 1.2-.6.8.5.9.2.3-1.2-.4-1-1.2-6.2-1.6-11.6-1-12.2-4.6-20.3-13-29.3-3.5-3.7-5.9-7.2-5.9-8.4 0-2.8-1.5-5.7-5.1-9.9-1.6-1.8-2.9-4.4-2.9-5.8s-1.2-3.6-2.7-5.1c-7.6-7.1-13.2-8-20.6-3.3m-2.3 120.7c.6 6.5.2 7.2-2.7 5-1.5-1.1-1.6-1.9-.6-7 .7-3.2 1.5-5.4 1.9-5s1 3.6 1.4 7"/></svg>