<svg xmlns="http://www.w3.org/2000/svg" width="682.667" height="512" version="1.0" viewBox="0 0 512 384"><path d="M219.5 62.9c-2.7 1.7-6.3 3.1-8 3.2-1.6 0-3.8.4-4.9.8s-4 0-7-1.1c-6.9-2.4-10.8-2.2-16.4.6-8.2 4.1-18.1 16.7-18.2 22.9 0 1-1.8 5-3.9 9-7.3 13.5-11.4 31.2-13.2 56.2-1.4 21.1-1.9 43.6-.8 42.9.5-.3 1.8-2.2 2.9-4.2l2.1-3.7-.6 7.5-.5 7.5 2.9-5.8c3.7-7.5 4.5-8.1 3.7-3.2-.4 2.2-.3 5.2.2 6.5.9 2.5 1 2.4 2.6-1.4.9-2.2 1.9-5 2.2-6.3 1.2-4.6 1.7-1.1 1.5 9.3-.2 8.4 0 10.5 1.1 10.2.7-.3 1.8-1.8 2.3-3.5.6-1.6 1.5-3.2 2-3.4 1.7-.7 1.7 3.4.1 11.1-1.6 7.6-.9 10.7 2.1 9.6 1.4-.6 1.8 3.7.7 9.1-.5 2.5-1.3 3.1-4.6 3.9-5 1.1-5 2.6-.1 4l3.8 1.1.3 19.6c.2 19.5.2 19.7-3.3 34.1-4.3 17.6-6.5 31.6-6.5 41.7 0 5.4-.7 9.6-2.5 14.8-2.1 6.4-6.5 24.4-6.5 27.1 0 .7 15.4 1 45.6 1h45.7l-.7-3.8c-.3-2-.9-9-1.3-15.5-.5-10.4-.4-11.7 1-11.7 1.1 0 2-1.5 2.7-4.2.7-2.2 1.8-5.1 2.6-6.4 1.8-2.6 1.4-21.9-.9-41.7-.7-6.4-1.2-11.7-1-11.7.9 0 3.8 9.5 8.8 29.1 9.6 37.5 15.9 54.7 22.7 62.5l3 3.4h42.5l12.4-6.2c6.8-3.4 12.8-6.4 13.3-6.7.5-.2.6 1.1.2 2.9-.6 3.1.6 6 2.4 6 .5 0 1.1-1.3 1.4-3 .3-1.6.9-4.4 1.2-6 .7-3.6 2.1-3.9 3-.5.3 1.3 1.2 2.9 1.9 3.5 2.2 1.8 2.7-.5 1.1-4.4-1.4-3.3-1.4-3.7.5-4.9 4.2-3 4.9-13.4 2.4-33.4-3.1-24.2-9-47.3-17.1-67.1-1.9-4.5-3.4-8.5-3.4-8.8 0-.4.9-.4 1.9-.1 1.8.4 8.7-1 15.8-3.4 4.5-1.4 9.7-9.6 12.3-19.1 2.4-9.2 2.5-12.4.5-17.1-1.5-3.7-6.1-8.1-9.6-9.2-1.6-.5-1.9-1.2-1.5-3.1.7-2.7-1-3.3-2.8-.9-.9 1.1-1.9 1.2-5.1.3-6-1.6-14.7.4-17.9 4.3-5 5.9-6.9 17.1-4.2 24.7 1.8 5 .7 6.3-4.8 5.6-3.4-.4-6.9.6-20.6 5.9-9.1 3.5-19.8 8.1-23.9 10.1l-7.3 3.7-5.7-4.4c-3.1-2.4-7.7-5.8-10.3-7.6-5.5-3.7-7.1-6.3-8.8-14.4-1.2-5.9-3.1-8-5.3-5.8-.6.6-1.6 1.1-2.2 1.1-1.5 0-7.5-9.2-7.5-11.7 0-1.2-.5-2.5-1.1-2.9-2.7-1.6-4.7-6.6-3.9-9.7.5-1.8 1.1-5.3 1.5-8 .4-3.1 1.1-4.7 2.1-4.7 1.1 0 1.3-.9.9-4-1.5-12.2-1.6-11.4 1.5-14.4 1.7-1.5 3-3.2 3-3.6 0-.5 1.6-1.2 3.5-1.6 4.5-.8 5.2-2 2.7-4.7-2.5-2.9-4.6-8.9-2.9-8.5.7.1 2.2-.4 3.5-1.1 2.2-1.2 2.3-1.1 1.3.8-1 1.8-.9 2 .6 1.4 1-.4 2-.9 2.3-1.2 1-1.2 6.2-3.1 7-2.6.5.3 1.2-.4 1.5-1.6.4-1.2 1.2-1.8 2-1.5.9.3 1.2 0 .8-1-.3-.7 0-1.4.6-1.4s1.1-1.2 1.1-2.8c0-1.5.4-3.3.9-4.1.8-1.3 1.2-1.3 2.7 0 1.6 1.3 1.7 1.2.9-.6-.4-1.1-1.4-7.3-2.1-13.7-1.5-13.7-3.4-18.2-12.3-28-4.3-4.8-5.5-6.7-5.3-8.9.2-1.7-.4-3.5-1.5-4.6-3.5-3.5-5.3-6.7-5.3-9.5 0-2.1-1.2-3.6-5.4-6.8-7.3-5.5-10.7-5.9-17.1-2.1m-3.8 120c.3 3.3.3 6.1-.1 6.1s-1.8-.7-3.2-1.6c-2.5-1.7-2.6-2.7-.8-11.3.9-4.3 3.5-.1 4.1 6.8"/></svg>