<svg xmlns="http://www.w3.org/2000/svg" width="682.667" height="512" version="1.0" viewBox="0 0 512 384"><path d="M225 66.9c-1.9 1.1-6 2.2-9 2.6s-5.7.7-6 .8c-.3 0-2.9-.7-5.9-1.6s-6.5-1.7-7.8-1.7c-4 0-11.1 4-16.4 9.4-6 6-7.6 8.8-8.5 14.7-.4 2.4-1.7 6-2.9 7.9-4.6 7.6-9 21.8-11.4 37.5-1.1 6.6-3.4 60.5-2.7 61.2.2.2 1.5-1.5 3-3.9l2.7-4.3-.7 7.5c-.3 4.1-.3 7.2 0 6.9s2.1-4 3.9-8.3l3.4-7.7-.3 8.1c-.4 9 .6 9.6 3.1 2 .9-2.8 1.9-5 2.2-5s.4 4.4.1 9.7c-.6 12.1-.1 14.2 2.3 8.8l1.8-4v3.7c.1 2-.4 5.9-1.1 8.7-1.2 5.4-.1 8.5 2.8 7.4 1.1-.4 1.4.8 1.4 6.1v6.6l-3.7.1c-2.1 0-4.7.4-5.8.8-1.9.7-1.8.9.5 2.1 1.4.7 3.8 1.6 5.5 2l3 .6-.3 19.4c-.3 16.5-.7 21.1-2.8 30-3.5 14.6-6.4 34.1-6.4 42.7 0 4.8-.6 8.6-1.9 11.6-2.1 4.9-6.5 22.4-7.6 30l-.6 4.7h45c42.3 0 45.1-.1 45.1-1.8 0-.9-.7-6.7-1.5-12.7-2-15.1-2-18.2.5-19.5 1.1-.6 2-1.8 2-2.6s1.2-4.1 2.7-7.1c2.3-5 2.5-6.1 1.5-9.7-.6-2.2-.7-4.7-.3-5.4.5-.8 3 5.5 6.5 16.5 6 18.6 12.7 33.9 17.2 39.2l2.6 3.1h21.9c25 0 22.6.6 40.9-10.5l9-5.5v3.9c0 4.2 2.3 7.3 3.4 4.5.3-.8.6-3.5.6-5.9 0-5.7 1.3-6.4 3.9-2 2.5 4.3 4.3 4.6 3.1.6-.4-1.6-1.2-3.7-1.8-4.7-.7-1.2-.4-2.2 1.1-3.7 1.8-1.8 1.9-2.9 1.4-12.1-1.3-22.2-12.4-60-24.8-84.8l-3.8-7.6 6.6-1.2c11.8-2 15.5-4.4 19.3-12.5 2.9-6.3 5.4-17.8 4.6-21.8-.9-5-4.6-9.9-9-12-2.9-1.4-3.7-2.3-3.3-3.8.7-2.7-1-3.4-2.3-.9-.9 1.7-1.4 1.8-3.2.9-3.1-1.7-13.5-.5-16.7 1.9-6.4 4.7-9.5 16-6.8 25.1 1.4 4.8 1.4 5.1-.7 6.4-1.5 1-2.7 1.1-4.3.4-1.8-.8-4.9.4-17.5 6.6-8.4 4.2-18.4 9.5-22.1 11.7l-6.8 4.1-8.1-7.3c-8.7-7.8-10.2-10.3-11.3-18.6-.5-3.8-1.2-5.5-2.5-6-3.2-1.2-11-12.5-11-15.8 0-1-.9-2.8-2.1-4-1.9-2.1-2-2.6-.8-10.4.7-5.1 1.7-8.4 2.5-8.7 1.1-.4 1.3-2.3.8-8.8-.6-7.5-.5-8.6 1.5-11.4 1.4-2 3.4-3.2 5.6-3.7 4.2-.7 4.2-1.2 1.1-5.9-2.8-4-2.6-5.6 1-8 1.9-1.2 2.4-1.2 2.4-.2 0 .7-.5 1.8-1.2 2.5-2.2 2.2.3 1.3 3.8-1.4 1.9-1.5 3.4-2.3 3.4-1.9s.6.2 1.3-.4c.8-.6 1.7-.8 2-.5.9.9 5.6-4.8 5.7-6.8 0-2.6 1.1-4.8 2.1-4.2.5.3.9 0 .9-.7 0-.8.5-.7 1.7.2 1.5 1.3 1.5 1.2.3-1.1-.8-1.4-1.7-6.8-2-12-.7-11.4-4.1-19.6-11.3-27.6-3.8-4.2-4.7-5.9-4.7-8.9s-.8-4.7-4-8.1c-2.2-2.4-4-5-4-5.8 0-1.4-6.7-7.3-10.7-9.4-3-1.7-6.2-1.4-10.3.7m-5.7 110.9c.9 1 2 4.3 2.5 7.4l.9 5.6-4.3-2.1c-3.9-1.9-4.2-2.3-3.8-5.1 1.4-8.5 1.8-9 4.7-5.8"/></svg>