<svg xmlns="http://www.w3.org/2000/svg" width="682.667" height="512" version="1.0" viewBox="0 0 512 384"><path d="M0 192v192h512v-86.4c0-54.4-.4-86.7-1-87.1-.5-.3-1.8.3-3 1.5-1.1 1.1-2.9 2-4 2s-2 .4-2 1c0 .5.6 1 1.2 1 .7 0 .3.7-.9 1.5-2 1.4-2.7 1.3-8.4-1-3.4-1.5-6.3-2.4-6.5-2.2s1.6 1.8 4.1 3.6c9.4 6.7 5.8 6.2-4.6-.7-5.9-3.8-8.1-4.6-19-6.8-6.8-1.3-17.8-3.1-24.4-3.9-14.3-1.9-24.9-5.2-33.8-10.5-5.9-3.6-7.3-4-13-4h-6.4l.9 5.7c1.8 10.9-.2 21.1-4.6 23.1-2.6 1.2-7.5-1.3-8.1-4.3-1.8-9.1-3.9-16.6-4.8-17.2-1.4-1-3.1-.9-7 .2-1.6.4-3.9.3-5.5-.4-2.1-.9-4.7-.8-11.2.4-12.7 2.2-17.2 2-20-1-2-2.2-2.2-2.8-1.1-5.1.6-1.5 1-2.8.9-2.9-.5-.5-24.5-2.5-29.5-2.5-2.6 0-4.3.4-3.7.8.5.4 1 1.8 1 3.1v2.4l-10.1-.6c-5.6-.4-14.1-1.7-19.5-3.1-8.7-2.3-9.6-2.4-10.7-.9-1.1 1.4-1.7 1.4-3.9.4-2.4-1.1-2.6-1-2.1.9.6 2.5 0 2.5-4 0-1.9-1.1-3.3-2.8-3.3-3.9 0-1.6-.9-2.1-4.7-2.6-8.1-1.1-11.3-2.5-13.4-5.9-3.4-5.5-3-5.7 8.9-5.6 5.9.1 13 .6 15.7 1.1 2.8.5 19.4 1.8 36.9 2.9l31.9 2 4.9-5.2c6.6-7.1 17.3-24.6 17.7-29.1.1-.4-1.1-.7-2.6-.7-4.9 0-5.3-1-5.4-10.8-.1-9.7-.4-10.5-5.2-11.6-1.6-.4-4-1.8-5.3-3.1-2.1-2.1-2.2-2.8-1.3-5.2 1.4-3.8 4.8-7.3 7.1-7.3 1 0 1.8-.4 1.8-.9 0-.9-6-2.7-12.7-3.6-2.2-.4-4.9-1.3-6-2-1-.8-2.4-1.5-3.2-1.5s-3.2-.8-5.3-1.7c-3.1-1.4-3.8-2.2-3.8-4.4 0-1.5.5-2.9 1-3.1.6-.2.7-1.4.1-3.4-.6-2.2-.5-3.6.2-4.3 1.6-1.6 6.3-1.4 8 .4 2.9 2.9 6 2.7 12.9-.7 5.2-2.6 7.4-4.4 10-8.3 4.9-7.3 12.6-11 22.7-10.9 6.4 0 8.7.5 14.4 3.2 3.8 1.8 9.3 3.9 12.3 4.8 3.2.9 5.4 2.1 5.1 2.7-.7 2.3-7.4 3.1-14.1 1.8-3.6-.7-7.4-1-8.6-.6-1.9.6-2.1 1.2-1.5 4.8.4 2.3.8 4.9 1.1 5.7.2 1 4.2 2.4 11.6 4.2 11 2.7 11.5 2.7 18.3 1.3 3.9-.8 7.6-1.7 8.4-2 1-.4 1.2.1.7 1.9-.6 2.4-.5 2.4 2.9 1.5 2-.6 4.5-.7 5.7-.3 2.1.6 2 .7-.8 2.2l-2.9 1.5 3.5 1.5c2.9 1.3 3.1 1.6 1.5 2-3.7.7-3.8 2.1-.4 3 2.1.6 2.8 1.1 1.9 1.5-6.8 2.3-11.4 3.7-16.5 4.8l-6 1.4 4.5.6c3.8.5 4.2.7 2.2 1.4-1.7.6-2 1-1.1 1.6.8.5-.2 1-2.7 1.4-2.1.3-4.8 1-5.9 1.4-1.6.7-1.3.9 1.8 1.5 2 .4 3.7 1.1 3.7 1.6 0 1.1-8.4 2.6-12.5 2.2-2.3-.2-2.7 0-1.5.7 1.3 1 1.3 1.1 0 1.1-1.1.1-.8.6.8 2 1.7 1.4 3.2 1.8 5.3 1.3 2.6-.5 3-.3 3.5 2.6.9 4.5 2.1 5.1 8.3 3.9 3.8-.7 5.7-.6 6.5.2.6.6 1.1 4.3 1.1 8.4l-.1 7.3 5.1.2c2.7.1 9.6-.3 15.3-1 5.6-.6 10.5-1 10.8-.7.2.3 0 1.6-.6 3-1.1 2.2-1.6 2.4-6.8 2.1-4.1-.2-5.1 0-3.7.6 1.1.5 3.4 1 5.1 1 4.9.1 9.4 1.3 8.8 2.2-.3.5 0 1.8.6 2.9 1 1.8.8 2-1.7 2-1.5 0-6.4-.7-10.8-1.4-4.4-.8-11.7-1.8-16.2-2.1-7.5-.7-8.2-.6-9.2 1.3-.6 1.1-1.1 2.3-1.1 2.6 0 1.1 11 1.7 17.5.9 9-1.1 11.5-.7 11.5 1.7 0 2.2.8 2.1 14-1 18-4.3 25.6-5.3 41.5-5.4 8.8 0 17.6.4 19.5 1l3.4 1-3.2 1.3c-1.7.7-3.2 1.7-3.2 2.1 0 1 2.6 2 5.1 2 1.2 0 1.6.5 1.3 1.4-.3.8.3 1.9 1.5 2.6l2.1 1.1V0H0z"/><path d="M338.4 113.5c-.4.8-.3 2.3.1 3.2.6 1.6.8 1.5 2-.7.8-1.4 1.4-2.8 1.5-3.3 0-1.4-3.1-.7-3.6.8m31.6 8.7c0 .2 1.6 4.1 3.5 8.8 3.4 8.4 3.8 8.6 4.9 2.1.4-1.9 1.3-4.2 2.1-5.1 1.4-1.6 1.1-1.9-3.6-3.9-4.7-1.9-6.9-2.5-6.9-1.9m-20.9 32.5c-.7 2.1-2.1 4.7-3.1 5.8-4.2 4.7-10 14-10 15.9 0 1.6 1.9.2 8-6.1 9.2-9.4 10.7-12.2 8.8-16.4-.7-1.6-1.5-2.9-1.8-2.9s-1.2 1.7-1.9 3.7m-61.7 33.5c-.3.4 1.3.8 3.5.8 2.3 0 4.1-.2 4.1-.4 0-.8-7.1-1.2-7.6-.4"/></svg>