<svg xmlns="http://www.w3.org/2000/svg" width="682.667" height="512" version="1.0" viewBox="0 0 512 384"><path d="M205.2 72c-11.5 7.4-30.1 27.1-35.5 37.7-2.3 4.3-2.1 4.6.8 2.7 1.4-.9 2.8-1.4 3.2-1.1.9.9-1.3 3.3-9.4 9.8-3.9 3.3-7.5 6.8-7.8 7.9-.8 2.6 1.1 6 3.4 6 4.1 0 4.6 2.4 2.5 12.8-2.3 11.6-2.8 42.2-.7 44.3.9.9 1.3.5 1.9-1.7.3-1.6 1.2-5.1 1.8-7.9l1.2-5 1.3 10.3c.8 5.7 1 12.5.7 15.3-.8 5.6.8 6.8 1.8 1.4.4-1.9 1.3-3.8 2-4.2.7-.5 2.4-4 3.7-7.8l2.3-7 .8 5.9c.9 7 1.4 7.7 2.9 4.3 1.7-3.7 2.9-2.4 2.9 3.2 0 3.1.5 5.3 1.5 6.1.8.7 1.5 1.7 1.5 2.3s1 3.1 2.1 5.5c1.9 3.7 2 4.9 1.1 8-1.3 4.2 0 6.6 2.9 5.7 1.7-.6 1.9 0 1.9 5.2 0 7.7-.5 8.3-5.9 7.3-3-.5-5.4-.4-7.4.5-3.8 1.6-2.4 2.5 5.8 4l6 1.1-.2 9.8c-.1 5.3-.9 12.9-1.8 16.9-4.3 18.7-6.7 38.3-7.1 56.6-.3 14.9-.7 19.6-2.3 24.5-1.1 3.4-2.9 11-4.1 17.1-1.2 6-2.4 11.8-2.6 12.7-.5 1.7 3.5 1.8 75 1.8h75.5l8.8-7.4c4.8-4.1 9.1-7.2 9.6-6.9.4.2.7 1.4.7 2.6 0 2.7 1.6 5.4 2.6 4.4.4-.4 1-3.5 1.2-6.8l.4-6 2.8 3.3c3.6 4.2 4.9 3.1 2.2-2-1.7-3.3-1.8-4.1-.6-5.7 6.3-8.6-13.6-73.3-30.3-98.7-1.4-2.1-2.4-4-2.2-4.2s3.8-1.1 7.9-2.1c5.7-1.4 8.2-2.6 10.4-4.9 3.9-4.1 6.7-10.6 8.1-18.6 1.8-10.2-.6-16.5-7.7-20.1-3-1.5-3.8-2.4-3.3-3.9.8-2.6-1.2-3.5-2.5-1-.9 1.6-1.5 1.8-3 1-2.8-1.5-9.4-1.2-14 .6-3 1.2-4.6 2.7-6.2 5.8-2.6 5.1-3.5 15.9-1.8 21.1 1.2 3.6 1.1 3.9-1.1 5.6-1.3 1-3.8 1.9-5.6 1.9-2.7 0-5.2 1.9-16 12-7 6.6-13.1 12-13.5 12s-.5-3.5-.2-7.8c.5-6.5.2-8.9-2-15.7-1.4-4.4-4.1-10.6-6-13.7-1.9-3.2-3.6-6.6-3.8-7.5-.2-1-1-1.7-1.7-1.5-.7.1-1-.2-.7-.7.5-.8-1.9-6.1-5.7-12.2-1.3-2 2.6-16.9 4.8-18.5.9-.7 1.5-2.8 1.5-5.5 0-2.4.5-7.8 1-11.9q1.05-7.35 0-8.4c-1.8-1.8-1.1-4.2 2.1-7.7 2.7-2.9 3-3.1 2.6-1.2-.6 2.8-.1 2.8 4.2.2 5-3 6.8-5.6 9.1-12.8 2.6-8.1 2.5-15.1-.1-22.9-2.4-7-2.8-5.7 5.3-15.7 2.6-3.2 4.5-6.2 4.2-6.6-.2-.4 0-1 .5-1.3 1.1-.7 2.4-10.7 1.6-12.8-.4-.9-3.6-2.8-7.2-4.3-13.4-5.4-31.6-5.8-38.7-1l-3.5 2.4-2.8-2.8c-2.3-2.2-4.1-2.9-9.2-3.5-4-.5-7.4-1.5-8.9-2.7-3.8-3-8.1-2.4-15 2.1m41.4 110.6c-.4 2.1-.3 4.1.4 4.9.6.7 1.3 3.7 1.7 6.6l.6 5.4-4.9-4.4c-4.3-3.9-8.2-9.2-8.4-11.3 0-.3 1.3-.9 2.9-1.3 1.6-.3 3.5-1.3 4.2-2.1.6-.8 1.8-1.4 2.6-1.4 1.2 0 1.4.8.9 3.6m-53.9 26.6c-.2 1.3-.4.5-.4-1.7-.1-2.2.1-3.2.4-2.3.2 1 .2 2.8 0 4"/></svg>