<svg xmlns="http://www.w3.org/2000/svg" width="682.667" height="512" version="1.0" viewBox="0 0 512 384"><path d="M209 66.7c-.8.3-2.7 1.4-4.2 2.4-1.4 1.1-3.3 1.9-4.2 1.9-.8 0-2.1 1-2.7 2.2-.6 1.3-3.5 4.8-6.3 7.8-8.8 9.5-12.8 14.3-16 19.5-4.1 6.6-6.8 12.5-5.6 12.5.5 0 1.1-.4 1.4-.9s1.9-1.4 3.6-1.9c3-1.1 3-1.1 1.4 1.3-.8 1.3-3.9 4.2-6.7 6.4-2.9 2.2-6.7 5.6-8.6 7.5-3.1 3.2-3.3 3.8-2.3 6.1.6 1.4 1.8 2.5 2.5 2.5s2.5.6 4.1 1.2c1.9.9 2.6 1.9 2.3 3.3-.3 1.1-1.5 6.7-2.7 12.5-1.4 6.4-2.3 14.3-2.4 20-.1 10.5 1.1 21 2.4 21 .4 0 1.4-2.4 2.1-5.3l1.2-5.2 1.3 6c.7 3.3 1 8.8.7 12.2-.3 3.5-.3 6.3 0 6.3s1.4-2.6 2.3-5.8c2-6.5 4-9.5 3.1-4.5-1 5 .9 4.8 2.3-.2 1.2-4.3 3-6.1 3-3 0 2.3 1.5 1.8 3-1 .7-1.4 1.5-2.3 1.7-2.1.3.2 1.1 3.3 1.9 6.7 1.8 7.8 4.6 15.9 5.5 15.9.3 0 1-1.5 1.5-3.3.8-3.1.8-3.1 1.2 1.6.2 2.8-.4 6.9-1.3 9.7-1.8 5.5-1.4 7 1.8 7 2.1 0 2.2.4 1.9 6.1l-.4 6.2-5.1-.6c-3.1-.3-6.4 0-8.2.7-2.8 1.2-2.9 1.3-1 2.3 1.1.6 4.6 1.4 7.8 1.8l5.7.7v7.5c0 4.2-.9 11.3-2 15.9-5 20.5-7.2 39-7.5 60.9-.1 12.5-.6 22.4-1.3 24.5-1.3 3.8-6.2 27.4-6.2 29.6 0 1.2 12.2 1.4 73.7 1.4h73.8l7.1-7.1 7.2-7.1 1.2 3.6c1.7 5.2 3.4 3.9 3.8-2.7.2-3.1.5-5.7.8-5.7s1.6 1.2 2.9 2.7c3.1 3.7 4.4 2.2 2-2.3-1.5-2.9-1.7-3.9-.7-5.5 4.9-7.8-6.7-51.1-22.3-83.5-3.2-6.5-7-13.7-8.6-16l-2.8-4.1 7.4-1.7c4.1-1 8.6-2.7 10.1-3.8 3.7-3 9.1-14.7 9.9-21.7 1-9.1-3.1-16.7-10.6-19.4-1.2-.4-1.5-1.3-1.2-3.1.6-3.1-1.3-3.5-2.2-.5-.5 1.5-1.1 1.8-2.3 1.2-1-.4-4.5-.8-7.9-.8-7.3 0-10.7 2-13.8 8.1-2.4 4.6-2.9 19.4-.8 21.5 1 1 .8 1.8-.9 3.6-1.2 1.3-3 2.3-4 2.3-4 0-8.9 3.1-15 9.5-3.5 3.7-6.7 7.3-7.1 8.1-1.6 2.8-2.4 1.3-1.9-3.4.7-7.7-4.3-22.1-11-31.5-1.1-1.5-2.1-3.9-2.3-5.3-.1-1.3-1.7-4.8-3.5-7.6l-3.2-5.2 2.3-8.3c1.2-4.6 2.7-8.3 3.4-8.3 1.5 0 3.7-25 2.4-26.5-1.6-1.7-1-7.1 1.1-9 1.1-1 2-1.3 2-.7 0 2.2 3.5 1.2 6.8-1.8 7.5-6.8 10.3-21.9 6.3-33.7-2.6-7.6-2.6-6.9.1-7.6 1.2-.4 1.9-.9 1.6-1.3-.4-.3.6-1.7 2.2-3.1 1.6-1.3 3.2-3.3 3.6-4.5.3-1.2 1.4-3 2.4-4 1.7-1.8 3.5-7.2 3.1-9.2-.1-.4.3-1.3.8-2 1.1-1.3.9-5.4-.3-7.4-1.3-2.1-14-5.3-23.7-5.9-12.4-.8-19.9.2-24.3 3.2-3.6 2.4-3.6 2.4-4.7.4C241.4 74 236 72 230 72c-4 0-5.9-.6-9.2-3-3.9-2.9-8.1-3.7-11.8-2.3m42.7 115.2c-.3 3.3-.1 6.3.4 6.8s1.2 3.4 1.6 6.4l.6 5.4-5.4-5c-3-2.8-6.4-5.7-7.7-6.5-2-1.3-2.2-1.9-1.3-4.3.6-1.5 1.6-2.7 2.4-2.7.7 0 2.8-1.3 4.7-3 1.9-1.6 3.9-2.9 4.4-3 .5 0 .6 2.7.3 5.9"/></svg>