<svg xmlns="http://www.w3.org/2000/svg" width="682.667" height="512" version="1.0" viewBox="0 0 512 384"><path d="M208.1 64.1c-1.3.5-3.6 1.8-5.1 2.9-1.6 1.1-3.5 1.7-4.4 1.4-1.2-.4-2 .3-3 2.8-.8 1.9-2.2 4.1-3.1 4.8-3.7 3.1-17.5 25.7-20.5 33.6-.9 2.2-.8 2.4.9 1.4 1.1-.5 3.2-1.4 4.6-2l2.6-1-2.1 3c-1.2 1.7-5.3 5.6-9.1 8.7-3.9 3.1-7.2 6.6-7.5 8-.9 3.3 2 6.2 6.8 6.9 2.1.4 3.8.9 3.8 1.3 0 .3-.7 3.1-1.5 6.1-2.6 9.2-5.5 25.3-5.5 29.8 0 5.8 2 18.5 3.1 19.6.5.5 1.1-.8 1.5-3.3.4-2.3 1-4.4 1.4-4.6 1.2-.7 2.2 10.2 1.5 15.6-.5 3.3-.3 4.9.4 4.9.6 0 1.1-.6 1.1-1.3 0-.6 1.2-4.6 2.5-8.7l2.5-7.5-.4 6.2c-.2 3.5-.1 6.3.3 6.3.5 0 1.5-1.9 2.4-4.2s2-3.9 2.3-3.5c.4.4 1.4-.2 2.2-1.4 2-2.9 3-1.5 5.1 7.2 1.9 7.9 4.5 13.9 6.1 13.9 1.5 0 1.6 4.3.2 9.4-1.5 5.3-1.1 7.6 1.3 7.6 1.2 0 1.5 1.2 1.5 5.6v5.6l-5.7-.6c-4.1-.4-6.5-.2-8.3.8l-2.5 1.4 2.5 1c1.4.5 4.9 1.3 7.8 1.7 3.3.4 5.6 1.3 5.9 2.2.7 1.9-.9 12.6-4.2 27.8-5.7 26.3-8.4 53.1-6.6 67.1 1.1 7.8 1 9.9-.3 14.5-1.4 4.7-5.6 25.9-5.6 28.1 0 .4 32.6.8 72.4.8h72.3l4.9-5.5c2.7-3 5.1-5.5 5.4-5.5s1.4 1.4 2.4 3.1c2.4 4 3.6 2.4 3.6-4.9 0-5.2 1.3-6.9 2.5-3.2.3 1.1 1.5 2.5 2.6 3 1.5.9 1.9.7 1.9-.7 0-1-.9-3.1-1.9-4.7-1.8-2.7-1.8-3.1-.4-5.3 6-9.1-15-74.8-31.8-99.9l-2.8-4.1 6.5-1.2c9.1-1.8 12.2-4.3 16.6-12.8 4.5-8.9 5.8-17.8 3.4-23.4-1.6-3.8-6.2-8.3-9.6-9.4-1.6-.5-1.8-1-1-2.5 1.3-2.5 1.3-3-.4-3-.8 0-1.7.9-2.1 2-.5 1.6-1 1.8-3.1 1-3.7-1.4-11-1.2-14.9.4-4.7 2-7.7 8.1-8.3 17.2-.3 5.3 0 8 1.1 10.3 1.5 3 1.5 3.3-.6 5.2-1.2 1.1-4.2 2.5-6.6 3.1-2.8.7-6.2 2.7-8.7 5l-4.3 3.9-2.2-7.3c-1.2-4-3.8-10.5-5.8-14.3-1.9-3.9-3.6-7.9-3.7-9.1 0-1.1-1.7-4.6-3.8-7.7l-3.6-5.8 2-6.1c1.1-3.4 2-7 2-8.1 0-1 .8-2.1 1.8-2.3 1.5-.4 1.7-1.6 1.4-10-.2-5.3.1-10.8.7-12.6.9-2.6.9-3.4-.4-4-2-1.2-2-7.8 0-10.4 1.3-1.7 1.4-1.7 1.5-.2 0 2.7 1.6 2.2 6.1-1.9 5.6-5 7.8-10 8.9-19.5.8-7.2.7-8.8-1.3-14.7l-2.2-6.6 3.9-4c6.1-6.4 11.5-15.3 12.1-20.5.1-.8.6-2.3 1-3.2.4-1 .3-3-.2-4.5-1.5-4.4-8-6.2-25.9-7-12.3-.6-21 .8-24.6 3.7-2.3 1.8-2.3 1.8-4.8-1.1-2.5-3-9-4.9-16.3-4.9-1.9 0-4.1-1-5.6-2.4-2.6-2.4-8.1-4.7-11-4.5-.9 0-2.7.5-4 1M256.9 182c-.2 5.2.1 8.4.9 9.2.7.7 1.2 3.2 1.2 5.7v4.4l-5.5-5.3c-3-3-6.6-6-8-6.8-2-1-2.5-1.8-2-3.5.4-1.2 1.4-2.8 2.3-3.5 5.6-4.3 10.7-8.1 11-8.1.2-.1.2 3.5.1 7.9m-56 10.4c-.9.8-1 .7-.5-.7.3-1 .7-2.4.7-3 .1-.7.3-.4.6.7.3 1-.1 2.3-.8 3"/></svg>