<svg xmlns="http://www.w3.org/2000/svg" width="682.667" height="512" version="1.0" viewBox="0 0 512 384"><path d="M205 41.4c-1.9.6-4.1 1.5-4.9 2-.7.5-2.2.9-3.2 1s-2.9 1.7-4.3 3.6c-6.9 9.5-10.5 15.2-12.7 19.6-1.3 2.7-2.7 5-3.1 5.2-.5.2-.8.9-.8 1.5 0 .7-.6 2.3-1.3 3.7-1.8 3.5-5.1 12.4-4.8 12.9.2.2-.2.7-.9 1.1-.6.4-1.2 2.2-1.3 4.1-.2 3.3 0 3.4 3.7 3.9 2.2.3 4.1 1 4.3 1.5.2.6-1.8 3.1-4.3 5.5-10.2 9.9-11.3 11.1-11.9 13.1-.4 1.2-.1 3.2.6 4.5 1.3 2.5 9 6.1 10.7 5 2-1.2 4.4 2.5 3.7 5.8-.3 1.7-.9 4.2-1.1 5.6-.3 1.4-1.2 6-2.1 10.4-.8 4.3-1.3 9.7-1 12 .3 2.2 1.3 9 2.3 15.1.9 6 1.8 12.5 1.9 14.3.4 5 1.1 4.8 3-.5 2.9-8.4 4.5-11.4 5.5-10.8.6.3 1 1.5 1 2.5 0 2.5 1.9 3.5 2.6 1.5 1.3-3.4 2.2.9 1.8 8.4l-.4 7.6 1.6-3.5c.9-1.9 2.1-4.5 2.7-5.8.6-1.2 1.3-2.2 1.6-2.2 1.5.1 5.2 14.9 5 20-.2 3 .1 10.3.5 16.1.8 11.3.1 14.9-3.2 14.9-.9.1-2.7.6-4 1.4-2.7 1.4-1.7 2.7 3.3 4.3l3 1 .5 9.9c.9 18.4-.4 35.7-3.8 50.9-4.7 20.4-6.5 35.2-5.9 47 .3 5.5.8 11.1 1.2 12.5.9 3.2.9 5.4 0 11.2l-.8 4.8h73.2c68.7 0 73.2-.1 73.9-1.8 1.3-3.2.6-26.6-1.1-38.2-5-32.3-14.8-64.5-23.2-75.4-3.1-4.1-2.8-5.1 1.7-5.9 1.8-.3 6.5-1.5 10.4-2.6 5.9-1.9 7.5-2.8 10.3-6.4 1.7-2.3 3.7-6.1 4.3-8.4.6-2.4 1.3-4.3 1.7-4.3s.8-1.4.9-3.1c.1-1.8.6-3.7.9-4.3.4-.6.7-3.2.8-5.8 0-6.9-3.9-13.6-9.8-16.7-4-2.1-4.6-2.7-4.1-4.8.7-2.7-1.2-3.2-3-.7-1 1.3-1.9 1.4-5.3.5-8.7-2.4-18.3 1.2-21.5 8.1-2.6 5.4-3.8 14.8-2.6 19.4 1.7 6.5 1.5 8.9-.5 8.9-1.2 0-2.5-1.7-4.1-5.5-1.2-3-3.4-7.4-4.9-9.8-1.5-2.3-2.5-4.7-2.1-5.3.3-.5.1-1.5-.5-2.2-.6-.8-.7-2.7-.1-5.2.5-2.2 1.4-8.1 2.1-13.2.9-7.5 1.5-9.2 3-9.6 1.1-.3 1.7-1.1 1.4-1.9-1-2.9-3.4-26-2.8-27.5.4-1.1.2-1.4-.5-.9-1.5.9-2.8-1.9-3.5-7.2-.4-3.7-.2-4.5 1.8-5.8 1.3-.9 2.9-1.3 3.4-1 .5.4 2.8-2.5 5.1-6.3 5.4-9.1 7-17.2 5.1-26.9-2.5-12.9-2.5-12.8.1-14.8 6.1-4.9 15.4-22.6 16.3-31.4.4-3 .8-5.7 1.1-6.1.6-1.1-1.7-5.9-3-6-.6-.1-2.4-.3-4.1-.4-1.6-.2-3-.4-3-.5 0-.3-12.4-1.3-17-1.3-9.5 0-21.6 1.3-23.8 2.5-1.2.6-2.3 1.1-2.4 1-.9-.6-2.2.1-5.2 2.7l-3.4 2.9-1.6-3.1c-.9-1.7-2.7-3.7-4.1-4.3-1.4-.7-3.7-1.8-5.2-2.4-1.7-.8-5.2-1.1-9.7-.8-3.9.3-7.1.2-7.1-.3 0-1-8.1-8.9-9.1-8.9-.4 0-2-.5-3.6-1.1-4-1.6-6.3-1.7-10.3-.5m68.5 133.1c.9 6.1 1.7 12.4 1.7 14.2s.6 3.7 1.3 4.3c1.4 1.2 3.9 13.7 3.3 16.7-.3 1.4-1.4.4-4.4-3.7-2.3-3-6.5-7.9-9.4-10.9l-5.2-5.4 2-9.8c1.7-8.3 2.5-10.4 5.3-13.3 1.8-2 3.4-3.4 3.5-3.3s1 5.2 1.9 11.2m-66.8 88.3c-.3 2.4-1 4.9-1.6 5.5-.8.8-1.1-.9-1.1-6.4.1-6.9.2-7.3 1.6-5.4 1.1 1.4 1.4 3.4 1.1 6.3"/></svg>