<svg xmlns="http://www.w3.org/2000/svg" width="682.667" height="512" version="1.0" viewBox="0 0 512 384"><path d="M0 192v192h512v-81.4c0-48.5-.4-81.7-.9-82.1-.5-.3-1.6.1-2.4.9-1.2 1.3-2.1 1.1-6.3-.9-7.2-3.6-7.5-3-1.4 2.6 6.2 5.6 3.6 4.8-5-1.6-3.2-2.3-7-4.6-8.6-5.2-4-1.5-23.4-5-37.9-6.9-14.7-1.8-23.2-4.4-31.7-9.3-4.5-2.7-8.2-4-11.8-4.3-8.8-.9-8.6-1.2-8.5 11.7 0 10-.3 11.7-2.1 14.2-4.8 6.5-9.2 3.3-13.7-10.1l-3.4-9.8-8.4-.2c-4.6-.2-12.2.3-16.9 1.1-11.2 1.7-15.1 1.6-17.8-.3-2.3-1.6-3-5.8-1.2-6.9.5-.3 1-1 1-1.4 0-1-15.6-2.9-30.9-3.7-10.4-.6-12.3-.5-11.9.7.5 1.4.8 1.5 5.6 1.8 3.9.2 5.2 1.3 4.5 4-.6 2.2-.8 2.2-7.7 1.6-3.9-.4-12.2-2.3-18.5-4.2-10.7-3.2-11.5-3.3-13.2-1.7-1.7 1.5-2 1.6-4.4 0-2.8-1.8-3-1.5-1.4 1.6 1 1.8.8 1.9-1.3 1.3-3.2-1-5.8-3.5-5.8-5.6 0-1.9-1.1-2.4-9.1-3.4-4.7-.6-7.4-2.6-9.8-7.2s1.2-4.7 43.9-.9c9.1.8 24 1.7 33.2 2.1l16.6.7 4.4-4.7c5.2-5.6 18-26.4 17.4-28.2-.3-.7-.1-1.5.4-1.8.6-.4 1-1.3 1-2.2 0-1.4-.4-1.3-2.3.5s-2.6 2-4.7.9c-2.6-1.3-2.6-1.3-2.9-18.3-.1-2.6-.6-3.2-3-3.7-3.9-.8-9.1-5.4-9.1-8 .1-2.9 3.8-7.3 7.3-8.6 1.6-.6 2.5-1.6 2.2-2.2-.4-.6-.9-.8-1.2-.5s-2.1-.1-4-.9c-2-.8-4.3-1.5-5.2-1.5s-3.4-.9-5.6-2-4.4-2-4.9-2c-.6 0-2.9-.7-5.2-1.6-4.8-1.8-6.4-5.1-3.7-7.1 1.6-1.2 1.6-1.5 0-4.8-1.6-3.4-1.6-3.6.1-4.2.9-.3 2-.8 2.3-.9.4-.2 1.7.5 3 1.5 5 3.9 7.9 4.1 13.8 1 3-1.6 6-2.9 6.7-2.9.8 0 2.5-1.7 3.8-3.8 3.9-6.2 8.2-9.9 14.4-12.2 7.7-3 14.4-2.3 25.2 2.4 4.5 2 10.6 4.2 13.3 4.8l5.1 1.1-2.3 1.8c-2.6 2.1-9.8 2.5-16.5.9-5.6-1.3-7.1-.1-6.7 5.2s1.6 7.8 4 7.8c1 0 5.7 1.1 10.3 2.5l8.5 2.4 5.9-1.8c3.2-1 6.7-2.2 7.7-2.6 1.3-.6 1.6-.3 1.1.9s0 1.6 1.8 1.6c1.3 0 2.9-.5 3.6-1.2s1.2-.9 1.2-.5c0 .3 1.2.2 2.6-.3 3.7-1.4 2.1.6-2.4 3l-3.7 2 4.4-.2c4.8-.3 6.7 1.6 2.9 2.7-4.2 1.4-4 3 .5 3.5l4.2.5-10.4 5.3c-5.8 2.8-11.4 5.2-12.5 5.2-1.2 0-2.7.4-3.4.9-1.3.8 2.7 2.1 8.1 2.7 2.9.2 3.1 1.3.3 2-1.4.3-2.4 1-2.1 1.4.2.4-1.9 1.1-4.8 1.5l-5.2.7 3.8 1.3c2.1.7 4.1 1.5 4.3 1.8.5.5-9.8 1.9-14.1 1.9-1.6 0-2.4.2-1.7.5.6.2 1.2 1.2 1.2 2.1 0 1 .3 1.3.8.7.4-.6 1.9-1.1 3.4-1.3 2.3-.3 2.8.2 4.3 4.8 1.4 4.1 2 5 3.4 4.4 3.8-1.7 10.6-3 12.8-2.6 2.3.4 2.4.7 2.2 8.6l-.2 8.1 6.4-.1c3.5 0 10.9-.4 16.3-.9l9.9-.8-1.6 2.4c-2.3 3.2-2.1 3.7.8 3.1 2-.3 2.5 0 2.5 1.5 0 1 .5 2.4 1.2 3.1.9.9.9 1.2-.2 1.3-3.4.3-24-.2-30.5-.7-6.6-.4-7.1-.3-8.7 2l-1.8 2.5 5.4 1.1c3.7.7 8.1.8 13.7.2 9.2-1 10.9-.7 10.9 1.5 0 1.1.6 1.3 2.3.8 3.2-1 16.6-4.1 28.7-6.6 10.9-2.3 37.4-3.3 43.3-1.6l2.7.7V0H0z"/><path d="m405.5 98-2 .9h2c1.1 0 2.7-.4 3.5-.9 1.3-.9 1.3-1 0-.9-.8 0-2.4.4-3.5.9m-61.1 15.8c-1.4 1-2.5 4-1.6 4.6.4.2 1.5-.9 2.4-2.5 1.7-2.8 1.4-3.6-.8-2.1m33.1 13.2c-.5.9 3.4 13.5 4 12.8.1-.2.5-2.8.9-5.9.5-5.2.4-5.7-1.9-6.7-1.5-.7-2.7-.8-3-.2m-22.9 29.3c-.3 1.3-3.3 6.1-6.6 10.7-6.1 8.4-7.2 10.8-4.5 9.2 2.8-1.5 11.4-10.4 13.6-13.9 1.9-3 2-3.8.9-5.9-1.7-3-2.6-3-3.4-.1m41.4 2.2c0 .7 7.2 3.6 7.7 3.1.3-.3-.9-1.2-2.6-2-3-1.6-5.1-2-5.1-1.1m112.5 4.5c.3.5 1.3 1 2.1 1s1.4-.5 1.4-1c0-.6-.9-1-2.1-1-1.1 0-1.7.4-1.4 1m1 55c.3.5 1 1 1.6 1 .5 0 .9-.5.9-1 0-.6-.7-1-1.6-1-.8 0-1.2.4-.9 1"/></svg>