<svg xmlns="http://www.w3.org/2000/svg" width="682.667" height="512" version="1.0" viewBox="0 0 512 384"><path d="M196.3 26c-1.9 1.1-3.5 1.5-3.8 1-1.1-1.7-2.3-1.1-3.4 1.7-.6 1.6-2.9 5-5 7.7-4 5-12.1 20.1-12.1 22.3 0 .7-.4 1.3-1 1.3-.5 0-1 .5-1 1 0 1.1-3.1 8.5-5.6 13.3-.8 1.6-1.4 3.7-1.4 4.7 0 1.1-.5 3.1-1.2 4.5-1.6 3.6.3 7.5 3.7 7.5 2.4 0 2.6.3 2.1 3.2-.3 2-2 4.5-5 7.3-2.5 2.3-4.8 4-4.9 3.8-.2-.2-1.5 1.7-2.8 4.2-2.3 4.3-2.3 4.6-.7 7.2 1.8 3 9 7.2 12.4 7.3 1.9 0 3.9 2.3 3.6 4.1-.1.4-.4 1.9-.7 3.5-.5 2.7-.8 4.8-1.9 13.4-1.3 10.2-1.7 12.6-2.1 14.1-.3.9.4 3.6 1.5 6.2 1.8 4.1 2.3 7.7 2.1 15.6-.1 1.4.7 3.3 1.6 4.3.9 1.1 1.6 3.3 1.5 5.4-.2 4.6 1.6 4 3.3-1 1.8-5.2 3-6.3 5.1-4.5 1.4 1.2 1.9 1 3.5-1 3-3.6 4.1-1.7 3.6 6.5-.4 6.9-.3 7.2 1.5 6.3 1-.5 1.8-1.6 1.8-2.4s.6-1.5 1.3-1.5c2 0 3.6 6.1 2.4 9.1-.8 2.2-.9 6.9-.4 32.5.2 6.6-.1 8.6-1.5 10.1-2.1 2.3-2.3 3.3-.5 3.3 1 0 1.3 4.9 1.4 22.2.1 12.3.2 28.4.3 35.9.1 9.3-.3 15.4-1.4 19.5-5 19.4-7.4 44.6-5.3 54.7l.8 3.7 75.7-.2 75.7-.3-.2-16.5c-.6-37.1-9.4-75.4-20.9-91.1-3.8-5.2-3.6-6.7.6-7 4.5-.2 9.2-1.1 15.2-2.9 5.2-1.6 7.3-2.8 9.7-5.7 1.7-2.1 3.1-4.1 3.1-4.6s.7-1.5 1.6-2.4c.8-.9 1.3-2.2.9-3.1-.3-.8 0-2.1.6-2.8.6-.8.8-1.4.4-1.4s-.3-.6.2-1.3c2.2-2.7 3.5-10.6 2.9-16.8-.9-8.9-3.1-12-11.4-16.5-3.9-2.1-5.1-3.2-4.7-4.5.7-2-1.3-3.6-2-1.7-.4 1-3.3 1.3-11.3 1.3-12.4 0-14.6.9-18.6 7.7-2.9 5.1-4.5 15.3-3.3 21.8 2.1 11.9.6 11.8-5.8-.6-5.7-11.2-5.7-11.6-3.6-31.6 1.2-10.6 1.7-12.7 3.2-13.1s1.7-1 .9-3.8c-1-3.8-1.6-8.7-2.6-20.7-.5-5.9-1.1-8.2-2-8.2-.8 0-1.4-.6-1.5-1.3 0-.6-.2-2.1-.5-3.2-1.1-5.6-.7-8.5 1.7-10.4 1.3-1.1 3.1-1.8 4-1.6 1.5.5 3.2-2.1 7.9-11.5 4.4-8.8 5-30 .9-30-1.9 0 .6-5.7 5.1-11.6 9.3-12.2 16.4-29.3 16.4-39.7 0-2.8-.6-4.2-2.7-5.9-3.1-2.5-5.6-2.8-24.2-3.1-23.3-.3-33 1.6-38.7 7.8l-2.6 2.7-.6-3c-1-4.4-3.5-6.1-12.1-8.3-8.9-2.2-11.8-2.3-14.8-.8-1.8 1-2.3.9-3.2-.7-1.7-3.1-6.7-7.5-12-10.5-6.2-3.6-14.2-4-19.2-.9m82.9 161.5c.2 2.2 1 4.5 1.8 5.2 1.2.9 5.3 19.2 4.5 20.1-.2.2-1.6-1.4-3.1-3.5-1.6-2.1-5.9-7.5-9.7-12.1-6.2-7.4-6.9-8.6-6.4-11.5.4-1.7 1.3-7 2.2-11.7 1-5.6 2.5-9.8 4.2-12.5l2.7-4 1.8 13c1 7.1 1.9 14.8 2 17m-74.8 81.1c1.4 2.6 2.6 5.1 2.6 5.7 0 2.3-4.1 14.4-5.4 16.2-1.4 1.8-1.5.6-1.6-12.3 0-7.9.4-14.2.9-14.2s2.1 2.1 3.5 4.6"/></svg>