<svg xmlns="http://www.w3.org/2000/svg" width="682.667" height="512" version="1.0" viewBox="0 0 512 384"><path d="M79.8 1.7c2.5 5.7 6.7 14.7 9.6 20.8 1.9 3.8 3.9 9 4.6 11.5.6 2.5 1.5 6 2 7.9s.6 13.1.3 25c-.4 16.7-.8 21.9-1.9 22.7-.8.6-1.4 1.6-1.4 2.3 0 .6-1.4 1.1-3 1.1-3.9 0-4.7 2-2.7 6.8 1.7 4.1 2.8 14.5 5.7 53.4 1.7 22.4 1.7 26.2.5 29.1-1.5 3.6-.6 5.7 2.2 5.7.8 0 2.7.7 4.3 1.5 3 1.5 3.4 2.8 4.6 12.7.6 5.4.5 5.7-2.6 8.5-15.8 13.8-21.8 21-28 33.3-4.7 9.2-6 17-4.9 29.4.5 5.6 1.2 10.8 1.5 11.6.6 1.6 5 25.7 6.4 35 .5 3 2 12.2 3.3 20.5 4 23.9 4 22.6.1 28.6-1.8 2.8-3.6 6.6-3.9 8.3-.4 1.7-.9 3.9-1.1 4.8-.5 1.7 9.5 1.8 199.9 1.8h200.5l.5-5.3c1.7-17.3 3.8-24.6 7.9-27.7.6-.5 3-5.6 3.2-7 .1-.3 1.7-3.9 3.7-8 6.9-14.4 7.4-16.7 7.4-36v-17.5l-3.1-6.6c-3.4-7.2-12.8-17.5-24.2-26.4-3.4-2.8-7.7-6.2-9.4-7.7-9.4-8.3-49.1-21.5-56.3-18.8-1.5.6-8.3 1-15.3 1-8.1 0-14.8.6-18.8 1.6-5.5 1.3-6.6 1.4-9.8 0-2-.8-4-2.5-4.5-3.8s-1.4-9.5-2-18.3c-1.2-17.7-1.2-17.9 5.2-19.2 2.9-.6 3.4-2.2 1.6-5.4-.6-1.1-1.3-3.9-1.5-6.2s-.9-8-1.4-12.7-1.3-11.4-1.9-15c-.5-3.6-1.3-9.9-1.6-14s-1-10.3-1.6-13.6c-.7-4.9-.6-6.9.6-9.8 1.2-2.7 1.3-4.2.5-5.6-1.3-2.3-1.4-2.4-4-.8-1 .7-2.2.9-2.5.6-.4-.3-.9-4.4-1.2-9-.2-4.5-.6-8.5-.8-8.7-.9-.9 4.3-8.8 16.2-24.5 7-9.3 13.3-17.1 14-17.3.8-.3.8.9-.2 4.6-.7 2.7-1.1 5.2-.8 5.4.6.6-4.4 10.5-6.6 13.2-1.5 1.9-1.5 1.9.3.5C372 64 381 51 381 49.3c0-.7 1.1-3 2.4-5.1 2.4-3.7 7.8-16.2 7.7-17.9 0-.2 1.1-3.4 2.4-7.2 2-5.7 2.4-8.1 1.8-13.1l-.6-6H236.9C87 0 79.1.1 79.8 1.7"/></svg>