<svg xmlns="http://www.w3.org/2000/svg" width="682.667" height="512" version="1.0" viewBox="0 0 512 384"><path d="M0 192v192h512V263.3l-7.7-1.8c-4.3-1-10-2.6-12.8-3.6-7.5-2.6-14.9-3.9-26-4.6-10.6-.6-12.3-1.4-21-8.7-1.6-1.4-3.5-3-4.2-3.5-.6-.6-1.9-3.3-2.8-6.1-2.4-7.3-8.6-18.1-14.2-24.8-2.6-3.1-5.2-6-5.7-6.3-.7-.6-2.4-12.3-2.5-18.2-.1-1 .7-2 1.7-2.4 3.1-1 15.2-6.6 15.2-7 0-.2-1.4-2.8-3.1-5.8-2.3-4.1-2.9-6.2-2.4-8.4.3-1.5.1-5.7-.5-9.2-.9-5.6-1.9-16.4-6-60.9-.5-5.2-1.6-16.9-2.5-26-1.6-16.4-1.6-16.4.6-22 1.2-3 2.6-5.9 3.1-6.4 1.2-1.5 1-2.6-.6-2.6-.7 0-1.9-.7-2.6-1.5-1.1-1.4-1.7-1.3-4.7.5-4.9 2.9-6 2.6-6.8-1.9-.8-5 .5-9.8 4.4-15.5 1.7-2.4 3.1-5.2 3.1-6.1s.9-3.5 2-5.7c1.1-2.3 2-4.3 2-4.5S324 0 209 0H0z"/></svg>