<svg xmlns="http://www.w3.org/2000/svg" width="682.667" height="512" version="1.0" viewBox="0 0 512 384"><path d="M0 192v192h512v-74.4c0-66.9-.2-74.4-1.6-75-2.4-.9-2.6-.8-1.9 1.4.6 2-.9 2.8-2 1-.3-.6-1.1-1-1.7-1s-.6.6.2 1.5c2.4 2.9 0 2.8-3.2-.1l-3.1-2.9 2.2 3.8c3.1 5.1 2.2 6.8-1.3 2.3-1.5-2-3.1-3.4-3.6-3.1-.4.3-5.5-1.7-11.2-4.5-10.7-5.1-14-6-39.3-10-10.8-1.7-14.4-2.7-21.4-6.2-4.9-2.4-10.4-4.3-13.1-4.6l-4.7-.4 1.9 7.8c1.1 4.6 1.7 9.2 1.3 11.1-.8 4.7-5.1 9.3-8.4 9.3-4.5 0-6-2.7-7-12.9-.6-5.2-1.2-9.6-1.6-9.9-1.3-1.3-1.9 1.4-1.9 9.1-.1 8.9-.7 10.7-3.6 10.7-2.4 0-4.5-3.1-6-9-.7-2.5-1.6-5-2.2-5.7-.5-.7-.8-2.7-.6-4.5.2-2.8 0-3.2-1.7-2.9-1.1.2-5.6.5-10 .6-4.4.2-9.6.8-11.5 1.4-5.2 1.6-10.5 1.3-13-.7-2.1-1.7-2.1-1.9-.7-5.5l1.6-3.7-3.7-.9c-4-1-33.5-2.4-31.4-1.5.6.3 1.2 1.5 1.2 2.6 0 1.5-.5 1.9-1.7 1.4-1-.3-.5.4 1.1 1.7 7.7 5.9 7.9 6.2 6.6 8.4-1.3 2-1.5 2-7.4-2.6-3.4-2.5-9-5.9-12.5-7.5-5.3-2.4-6.8-2.7-8.4-1.7-1.5 1-2.2.9-3.6-.3-2.4-2.2-3.1-2-3.1.9s-.7 3.1-3.8.9c-1.2-.8-2.2-2.6-2.2-3.9 0-2.2-.6-2.5-5-3.1-3.9-.5-5.6-1.3-7.6-3.7-3.3-3.9-2.9-7.1 1.1-7.6 1.7-.2 9.3.2 17 .8 22.3 1.9 24.2 2 40.8 2.7l15.8.7 5.2-5.4c4.5-4.8 9.2-12.1 15.9-24.8 1.8-3.6 1.6-4.4-2.1-9.1l-2-2.5-1.6 2.2c-1.8 2.6-4.2 2.9-6.7.9-2.2-1.6-2.3-4.7-.3-11.1 1-3.5 1.1-5.4.4-6.7-.6-1.1-.8-2.2-.5-2.5.3-.4-1.2-1.4-3.3-2.4-4.3-1.9-5.9-5.7-4.2-10 1.2-3.2 4.8-6.9 6.6-6.9.8 0 1.5-.4 1.5-.9 0-1.7-3.2-4.2-4.7-3.7-.8.4-1.9-.7-3-2.8-1.8-3.9-4.7-4.8-15.3-4.6-6.2.1-6.6 0-8.3-2.9-1-1.7-1.6-3.5-1.3-4s3.4-1.2 6.8-1.6c8.9-1 9.8-1.8 4.5-3.9-5.2-1.9-8.2-4.9-7.4-7.1.8-1.9 4.6-2 5.3 0 .4.8 1.3 1.5 2.1 1.5s2.7.9 4.2 1.9c2.8 2 2.8 2 7.6-.5 2.7-1.3 5.6-2.2 6.4-1.9 1.1.3 2.4-.9 3.9-3.5 3.7-6.5 8.4-11.2 13.7-13.6 5.8-2.7 10.5-3 16.4-.9 5.4 1.9 19.1 11.3 19.1 13.1 0 1.9-7.7 1.8-11-.1-1.4-.8-3.6-1.4-4.9-1.5-2.3 0-2.3.1-1.7 6.2 1 8.3 1.8 9.5 6.8 10.3 3.8.7 21.7 6.7 24 8.1.5.3.4 1.1-.1 1.8-.6.7-.8 1.6-.4 1.9.3.4-.1.7-1.1.7-.9 0-1.5.4-1.1.9.3.6-1.1 1.3-3.2 1.7-7 1.2-7 1.9.3 5.8 3.8 2 7.4 3.6 8.1 3.6s1.3.8 1.3 1.7 1.2 3 2.7 4.5c2.4 2.5 2.5 2.8.7 2.8-1.6.1-1.3.6 1.6 3 3.5 3.1 3.1 3.7-1.5 2-1.4-.5-3.7-1.2-5-1.4-2.2-.4-2.4-.3-1.4 1.6 1.6 2.9.6 3.2-3.9.9l-3.9-2 .1 2.7c.1 2.1-.3 2.6-1.8 2.4-1.1-.2-2.6-1.2-3.5-2.2-.9-1.1-2.9-2.1-4.6-2.2-2.5-.3-2.9 0-2.7 1.6.3 1.6-.3 1.4-3.3-1.3-4-3.5-5.5-3.4-3.7.2.6 1.2 2.7 5.7 4.6 9.9 2.2 4.9 4.1 7.8 5 7.8s3.6-1.5 6.1-3.4c5.3-4.1 13.4-7.3 19.5-7.8l4.5-.3.3 4.6c.2 2.9-.5 6.5-1.7 9.7L418 160l2.3.5c1.2.3 6 .7 10.7.9 4.6.2 8.5.7 8.7 1.2.1.5-1.4 1.9-3.3 3.2-3.1 1.9-4.5 2.2-10.2 1.7l-6.7-.6 3.5 2c1.9 1.1 6.2 2.9 9.5 4.1l6.1 2 15.3-4.5c18.7-5.4 28-6.8 45-6.3l13.1.3V0H0z"/><path d="M397 165.6c0 .2 3.4 2.7 7.5 5.4 8 5.2 15.2 7.4 22 6.8l4-.3-7.5-3.6c-5.6-2.6-7.9-3.3-9.1-2.6-1.2.8-2.6.4-5.1-1.1-3.7-2.3-11.8-5.5-11.8-4.6m93 66.9c0 .2 1 1 2.3 1.6 2 1.1 2.1 1.1.8-.4-1.3-1.6-3.1-2.3-3.1-1.2"/></svg>