<svg xmlns="http://www.w3.org/2000/svg" width="682.667" height="512" version="1.0" viewBox="0 0 512 384"><path d="M0 192v192h512V230.1l-3.5.1c-3.3.1-5.2 1.8-2.1 1.8 1.1 0 1.2.5.3 2.5-.7 1.4-2 2.5-2.9 2.5-1 0-1.8.5-1.8 1.1 0 .7-.9.9-2.1.6-1.7-.5-1.8-.3-.8.9 1.9 2.3.5 2.5-3.5.4-4.2-2.1-7.5-1.7-5.5.6.9 1.1.7 1.4-1 1.4-1.1 0-2.1.5-2.1 1.1 0 .7-.9.9-2.1.6-1.5-.4-1.9-.2-1.5.9 2.1 5 2.1 5 .3 3.5-.9-.7-1.7-1.7-1.7-2.2s-1.4-2.8-3.1-5.2c-2.6-3.6-3.6-4.2-6.7-4.3-2 0-4.6-.4-5.7-.9-1.1-.4-.1.7 2.3 2.5 3.7 2.8 5.3 5 3.6 5-.3 0-3.1-1.7-6.2-3.8-11.4-7.6-12.3-8-28.2-10.7-16.8-2.9-21.6-4.6-29-10-2.9-2.2-5.4-3.3-6.4-2.9-2 .8-2 .2.5 7.7 3.6 10.7 1.2 19.7-5.7 21-5.5 1-8-3.8-8.9-17.4-.4-5.6-1.5-8.1-3.3-7.7-2 .4-4 7.8-4.1 15.4-.1 5.2-1 6.4-4.7 6.4-2.5 0-8-15.5-7-19.7.7-2.7.8-2.6-3.2-1.2-2.2.7-3.6.7-5.1-.1-1.6-.8-3.3-.7-7.3.5-5.7 1.7-12.5 2-14.7.6-1-.6-1.2-2.1-.9-4.9.8-5.7-1.5-6.7-15.1-6.7-9.5 0-10.6.2-10.3 1.7.2 1.2-.2 1.6-1.3 1.2-2.6-1.1-1.6.2 2.5 3.1 4.1 2.8 4.6 4 3.1 6.4-.7 1.1-1.8.7-5.2-2.3-2.4-2-7.2-5-10.7-6.7-5.9-2.7-6.6-2.9-8.2-1.4-1.5 1.4-1.8 1.3-3.5-.5-2.5-2.7-3.8-2.5-3.1.5.5 2 .3 2.5-1.3 2.5-2.5 0-4.5-2.5-3.8-4.9.5-2.2-1-3.1-5-3.1-3.3 0-8.5-5.3-8.1-8.2.3-2.2.7-2.3 9.3-2.3 5 .1 17.8.8 28.5 1.8 29.7 2.6 29 2.7 34.2-3.2 4.1-4.5 14.8-23.1 14.8-25.6 0-.6-1.4-3.3-3.1-6l-3-4.8-2.1 2.1c-2 1.9-2.3 2-5.1.6-2.7-1.4-2.9-1.9-2.2-5.2 1.6-8.3.7-15.4-2.3-17.9-4.2-3.4-2.6-12.4 2.8-15.3 1.7-.9 1.8-1.4.8-3.6-.6-1.3-1.7-2.3-2.3-2-.7.2-2.3-1.3-3.6-3.4-1.3-2.2-2.9-4.1-3.6-4.4-.6-.3-4.1-.1-7.7.5-6.6.9-9.6.5-9.6-1.3 0-.5-.7-1.6-1.5-2.5-2.6-2.5-1.2-3.7 5.1-4.7 8.5-1.2 9.3-1.5 7-2.9-6.5-4.1-8.1-5.5-8.4-7.5-.5-3.4 2.7-2.8 6.7 1.3 4.3 4.5 5.6 4.5 2.9-.1-1.5-2.6-1.8-3.8-.9-4.7.8-.8 1.9-.3 4.5 2.2 2.8 2.7 3.8 3.1 6.2 2.4 1.6-.4 3.4-.6 4.1-.5.7.2 2.3-1.9 3.7-4.6 4.3-8.5 13.5-15.2 20.8-15.2 6.5 0 10.8 2 17.3 8.2 3.6 3.3 6.5 6.4 6.5 6.9 0 1.4-5.7 1-9.7-.6-1.9-.8-3.7-1.5-3.9-1.5-.6 0-.4 7.1.4 11.5l.7 3.9 14 4.1c12.2 3.6 14 4.4 13.7 6.1-.2 1-.8 2.1-1.3 2.2-.5.2-.7.8-.3 1.3.3.5-.5.9-1.8.9-2.6 0-7.8 2.1-7.8 3.1 0 .4 1.1 1.4 2.4 2.2 5.3 3.5 9.5 9.1 11.5 15.7 2.9 9 2.7 10-1.2 6.2-3.6-3.5-4.7-3.9-4.7-1.9 0 .7-.7 2.3-1.6 3.6l-1.7 2.4-1.4-2.4c-1.3-2.3-1.4-2.3-.8-.2.8 2.8-.6 3-3 .3-1.3-1.5-2.1-1.7-3.1-.9s-1.6.3-2.8-1.9c-.8-1.6-2.5-3.2-3.6-3.5-1.6-.4-1.9-.2-1.1.7.5.6 1.5 2.5 2.1 4.1l1.1 3-2.5-2.4c-5.1-4.8-4.8-1 1.1 12.6 1 2.4 3.5 2.1 7.6-1 5.7-4.3 16.1-8.9 22.1-9.7l4.8-.7-.5 5.1c-.3 2.8-1.5 7.3-2.6 10-1.2 2.7-2 5.1-1.7 5.3.2.2 3.8.7 8 1s7.6.9 7.6 1.2c0 1.6-8.3 5.1-12.2 5.1h-4.3l6.3 4.2 6.3 4.1 13.7-4.6c7.5-2.5 16.1-5.1 19-5.6 8-1.6 35.8-1.4 37.4.2 1 1.1 2.2 1.1 6.7.1 8.6-2 7.5-.5-2.1 2.9-2.4.8-2.3 2.4.2 3.2 1.1.3 2 1 2 1.5s1.6 1.4 3.5 2 3.5 1.8 3.5 2.5c0 .8.9 1.9 2 2.5 2 1.1 2 .8 2-91.5V0H0z"/><path d="M394 171.9c6.9 5.5 12.5 8 18.3 8.2 3.1.1 6-.1 6.3-.4s-1.7-1.7-4.6-3.2c-4.1-2.1-5.5-2.4-6.6-1.4-1.2.9-2.4.7-6.2-1.3-2.6-1.4-5.8-2.9-7.2-3.2l-2.5-.7z"/></svg>