<svg xmlns="http://www.w3.org/2000/svg" width="682.667" height="512" version="1.0" viewBox="0 0 512 384"><path d="M89 .3c0 .7 10 24.9 12.4 30 1.5 3 3.3 6 4 6.6s2.6 3.9 4.1 7.2 2.8 5.9 3.1 5.7c.2-.2-.3-2.8-1.1-5.8-2.3-8.5-2-10 1.1-5.9l2.5 3.4-.3 19.3c-.2 15.8-.6 19.4-1.8 20.2-.8.6-2.1.8-2.8.5-.8-.3-2.5-.8-3.9-1.1l-2.5-.7 2 3.9c1.8 3.5 1.9 4.9 1.1 13.9-.5 5.5-1.3 16.1-1.9 23.5-3.1 41.7-2.9 40-5.2 43-1.7 2.4-1.9 3.2-.8 4.5.7.8 1.8 1.5 2.6 1.5.7 0 2.5.5 3.9 1.2 2.3 1 2.5 1.6 2.1 4.7-.3 2-1.1 10.3-1.6 18.6-1 14-1.3 15.1-3.6 17-1.3 1.2-2.4 2.6-2.4 3.2s-.6 1.3-1.2 1.6c-1 .3-.8.9.4 2.3 1.7 1.7 1.6 1.9-1.4 2.9-3.5 1.1-8.9 8-8.1 10.3.3.8-.3 1.5-1.6 1.9-2.2.6-8.1 8.4-8.1 10.7 0 .7-.9 2.1-1.9 3-1.1 1-4.3 5.4-7.2 9.8-4.5 6.8-5.1 8.3-4.1 9.9 1.1 1.6.7 2.2-2.6 4.3-4.5 2.8-13.7 17.3-12.1 19.2 1.4 1.6.1 4.2-2.9 5.8-1.4.7-3.6 3.1-4.8 5.2-4.6 7.9-9.4 17.6-8.9 18.4.3.4-.7 2.5-2.2 4.6-3.6 5.3-12.6 26.8-11.4 27.2s-1.5 7.2-3.5 8.7c-.7.5-2 2.9-2.8 5.3-1.2 3.7-1.2 4.4 0 4.9 3.1 1.2 1.6 4.4-4 9.1-.9.7-1.6 1.9-1.6 2.7 0 1.3 31.6 1.5 251 1.5h251v-24.9c0-18.9-.3-25.2-1.2-25.8-.7-.4-8.3-1-16.8-1.3l-15.4-.5-1.4-4.5c-4.9-16.8-9.7-38.7-12.8-58.9-4.6-31.1-7.7-40.1-17.8-51.8-8.8-10.4-21-19.6-37-27.8-5.8-3-11.3-5.5-12.1-5.5-2.2 0-1.9-1.3 2.2-9.7 4.1-8.5 4.1-8.5 5.9 3.2l.7 5 .8-4.5c.4-2.5 1.4-13.7 2.4-25 .9-11.3 2-23.9 2.6-28 3.6-28.7 4.8-63.8 2.9-83-2.5-25-2.5-22.7.1-23.5 1.4-.5 2.5-.3 2.7.4.6 1.8 5.2 1.3 5.2-.6 0-1.3.3-1.4 1.2-.5 1.6 1.6 2.3 1.5 4.3-.4 1.5-1.5 1.7-1.5 3.4 0 1.8 1.7 8.1 2.2 8.1.7 0-1.7 3.3-2.1 5-.6 1.5 1.3 1.8 1.2 3.8-1.5 1.2-1.6 2.2-3.2 2.2-3.6 0-.3.9-1.7 2-3.1s2-3.9 2-5.4V0H272C171.3 0 89 .1 89 .3m61.3 83.3c1.7 3.5 1.7 3.5-.5 3.2-1.8-.2-2.4-1.1-2.6-3.6-.4-4.2 1-4.1 3.1.4M399 116.5c.7 14.3 1.3 27.1 1.4 28.5.1 2.3-.3 2.5-4.2 2.8-3 .2-4.4-.1-4.8-1.2-.3-.8.1-6.1 1-11.8.8-5.7 2-18.3 2.7-28.1s1.5-17.4 1.9-17 1.3 12.5 2 26.8M155.6 94.2c1.4 2.7 1.4 3.5.3 5.2-.7 1.2-2.5 5.2-4 9.1l-2.8 7 .5-10c.5-9.5 1.7-14.5 3.5-14.5.5 0 1.6 1.4 2.5 3.2m68.9 57.5c-.6 2.5-7.1 10.3-8.6 10.3-1 0 4.1-14.2 6.8-19.3l1.8-3.2.3 4.9c.2 2.7.1 6-.3 7.3"/></svg>