<svg xmlns="http://www.w3.org/2000/svg" width="682.667" height="512" version="1.0" viewBox="0 0 512 384"><path d="M0 152.5V305h8.8c4.8 0 9.4-.5 10.2-1 2-1.2 2.9-26.8 1-28-.9-.6-.3-2.5 2.1-7.1 3.2-5.9 3.7-6.5 8-7.5 7.8-2 8.6-2.7 9.4-9 .5-4.3.3-5.9-.7-6.5-1.9-1.2.1-4.1 3.8-5.2 1.6-.5 3.5-1.4 4.2-2 1.6-1.2 1.6-4.9 0-6.6-1-1.1-1-1.4 0-1.8.6-.3 1.2-1.3 1.2-2.4 0-2.8 2.3-2.3 3.8.8.8 1.8.9 3 .2 3.7-1.6 1.6-1.2 6.2.7 7.8 1 .8 3.1 1.8 4.7 2.2 2.5.6 2.7 1 2.1 3.4-.4 1.5-.9 5-1.2 7.8-.5 5-.4 5.2 2.8 6.8 1.7.9 4.2 1.6 5.4 1.6 1.1 0 2.9.6 3.8 1.2 2.2 1.7 6.8 13.1 5.5 13.9-.5.3-.8 2.3-.6 4.4l.3 3.8 4.8-7.1c4.9-7.4 6.3-8.5 7.4-5.5.4 1 2.2 4.3 4.2 7.3 3 4.7 3.6 6.5 3.9 12.8.4 6.4.7 7.3 2.6 7.7 2.2.4 52.7 2.5 60.8 2.5 4.4 0 5.2.5 12 6.4 6.8 6 7.4 6.3 8.1 4.3.4-1.1.6-9.4.5-18.3l-.3-16.2 4.9-7.1c2.6-3.9 5.1-7.1 5.5-7.1.3 0 2.8 3.3 5.4 7.4l4.8 7.3-.6 15.9c-.2 8.8-.7 32.2-1 52.2l-.6 36.2H512V0H0zm348.2-56.4c2.9 1.6 6.2 9.3 4.8 11.6-.8 1.4-.6 3 .9 6.8l1.9 5 11.6 3c6.4 1.6 11.6 3.4 11.6 4.1 0 1.5-4 5-6.6 5.8-1.2.4-2.9 1.5-3.8 2.5-1.7 1.8-1.6 2 .2 2.6 1.1.3 3 .8 4.3 1 3.3.6 3.3 1.1-.1 2.5-1.6.7-3 1.9-3 2.6 0 .9-1.1 1.4-2.8 1.4-3.9 0-4.4.8-2.7 4 1.3 2.6 1.3 2.7-1 2.4-2.4-.2-2.4-.2-.7 2.4 1.6 2.6 1.6 2.6-.1 1.3-2.5-2-4.7.2-4.7 4.8 0 2-.5 4.2-1.2 4.9-2.5 2.5.1 2.1 5.3-.8 6.5-3.6 17.9-7.4 19-6.3 1.2 1.2-1.4 10.3-4.5 15.5-1.4 2.5-2.6 4.7-2.6 4.9s8.3.3 18.5.2 18.5.2 18.5.6-1.1 1.4-2.5 2.1-2.5 1.7-2.5 2.1 2.3 1.5 5 2.4c5.2 1.7 5.8 2.3 3.9 4.2-.9.9-.5 1.4 1.7 1.8 1.6.4 4.7 1.2 6.9 1.8l4 1-4.3.9c-4.8 1.1-4.6 2.6.8 4.8 1.7.7 3 1.6 3 2.1v1.6c0 .4-1.6.6-3.5.4-2-.1-3.5.2-3.5.8s.5 1.1 1.1 1.1c.5 0 .7.5.4 1.1-.4.6.3 2 1.5 3.1 1.7 1.6 1.9 2.2.8 2.9-1.1.8-1.1 1 .1 1.8 1.1.7.9 1-.8 1.6-2.4.7-2.7 2-.6 2.9.8.3 1.2 1.1 1 1.8-.3.8 1.2 2.1 3.8 3.2 4.1 1.9 4.1 2 1.4 2.3-1.5.3-2.5.9-2.2 1.4.8 1.2.4 1.2-3.8-.6-2-.8-4.1-1.5-4.6-1.5-1.3 0-.1 4 1.3 4 .6.1 2.5.7 4.1 1.5 2.9 1.4 2.7 1.4-3.2.9l-6.2-.6.4 3.6c.6 4.1.5 4.2-3.6 2-1.7-.8-3.3-1.3-3.6-1.1-.2.3 0 2.2.6 4.3l1.1 3.8-4.1-4.2c-2.3-2.3-5-4.2-6.1-4.2-1.6 0-1.9.6-1.6 3.6.2 2.5-.3 4-1.5 4.9-.9.7-1.7 1.7-1.7 2.3s-.5 1.4-1.1 1.8c-.9.5-1-.1-.5-2.1.6-2.2.4-2.6-.9-2.2-1.2.5-1.4.1-.9-1.7.5-2-.1-2.6-4.3-4.5-2.6-1.2-5.9-2.8-7.3-3.6-2.4-1.4-2.5-1.3-3.1 1.3-1.3 5.6-2.8 7.9-6 9.2-4.4 1.9-8.1-.2-9-5-3.2-15.8-2.8-14.8-7.2-17.4-2.2-1.4-4.4-2.3-4.8-2-.8.5-1.5 2.5-4.9 14.1-1.8 6.4-2.4 7.3-4.5 7.3-3.3 0-6.5-4.4-6.5-8.9s-.6-5.3-5.1-6.9c-5.2-1.8-6-1.6-5.3 1.2.3 1.3.1 2.7-.5 3-.6.4-1.1.3-1.1-.3s-1.5-2.6-3.4-4.4c-1.9-1.9-3.6-4.5-3.8-5.8-.1-1.3-1.1-2.5-2-2.7-1.2-.2-1.5.2-1.1 1.8.5 1.8.2 2.1-1.8 1.8-2-.2-2.4-.8-2.3-3.4.1-2.4-.4-3.4-2.2-4.3-2.9-1.3-4.1-5.5-2.3-7.7 1-1.2 2.4-1.4 6.3-1 4.9.7 5.2.5 8.6-3 1.9-2.1 5.4-4.6 7.8-5.6 2.4-1.1 4.4-2.5 4.6-3.1.2-.7 1-3.4 1.8-6 1.9-5.9.6-11.5-3.5-14.7-1.7-1.4-2.7-3.1-2.7-4.8 0-1.5-.7-4-1.5-5.6-1.9-3.5-1.9-7.3 0-10.6 2.1-3.8 1.9-13.3-.5-18.6-1.7-3.6-2.4-4.3-4.3-4-1.2.3-4 .8-6.2 1.1s-4.8.9-5.9 1.2q-1.8.45-1.2-.6c.4-.6.2-1.1-.4-1.1-2.7 0 1.6-4.4 6.6-6.7 3-1.3 5.4-2.8 5.4-3.3s-1.4-1.8-3.1-3c-3.8-2.8-3.1-3.6 1.6-2 5.3 1.7 9.9-.7 12.7-6.7 1.2-2.5 3.8-6.3 5.8-8.4 3.1-3.3 4.3-3.9 7.9-3.9 2.3 0 5.1.5 6.3 1.1"/><path d="M324 205c-.9.6-1 1-.3 1 .6 0 1.5-.5 1.8-1 .8-1.2.4-1.2-1.5 0m84.6 26.8c-.3.6.1 1.3 1 1.6 2.3.9 2.8.2 1-1.3-.8-.7-1.7-.8-2-.3"/></svg>