<svg xmlns="http://www.w3.org/2000/svg" width="682.667" height="512" version="1.0" viewBox="0 0 512 384"><path d="M0 152.5V305l7.8-.1c13.4-.2 12.6.7 13.4-14.9.4-8 .3-13.6-.3-13.8-1.3-.5-1.1-1.7 1.3-7 3-6.5 4.6-8.2 8.2-8.3 1.7 0 4.5-.8 6.1-1.8 2.6-1.5 3-2.4 3.3-7 .2-2.9-.2-5.9-.8-6.6-1.6-2-.5-3.4 4.6-5.5 3.8-1.7 4.4-2.3 4.4-5 0-1.6-.4-3-1-3-1.5 0-1.2-1.2 1.1-4l2.1-2.4L52 228c1.6 2.1 1.7 2.7.5 4-1.5 1.6-1.1 5.4.8 7.8.5.6 2.4 1.6 4.1 2 2.3.7 3 1.4 2.7 2.8-.2 1-.5 4.6-.8 8l-.5 6 3.9 1.7c2.1.9 4.9 1.8 6.3 1.9 1.9.2 3.1 1.5 4.9 5.1 1.3 2.7 2.3 6.1 2.2 7.5-.6 8.9-.8 21.9-.2 16.7.5-4.9 1.5-7.4 5.6-13.7 2.8-4.3 5.2-7.8 5.5-7.8s2.7 3.7 5.3 8.1c4.4 7.5 4.7 8.6 4.7 15v6.8l3.3.5c2.8.5 55.2 2.6 63 2.6 2.1 0 4.6 1.7 10 6.8l7.2 6.7.7-6.5c.4-3.6.5-12 .2-18.7l-.6-12.1 4.8-7.1c2.7-3.9 5.4-6.9 5.9-6.7.6.1 3.1 3.4 5.7 7.2l4.7 6.9-.9 26c-.5 14.3-.9 37.8-1 52.2V384h312V0H0zm345-57.1c3.6.8 7.4 7.7 6.6 11.8-.7 3.3 1 10.2 2.9 11.8.6.5 5.6 1.9 11 3 5.5 1.2 10.4 2.6 10.9 3 .9.9-2.8 6.4-4.5 6.6-.5.1-1.2.3-1.6.4-1 .3-3.9.6-7.8.8l-2.9.2 4.3 4.4c2.7 2.8 3.8 4.5 3 4.8-1 .3-.8 1.2.8 3.4 1.1 1.6 2.6 3.9 3.2 5.2 1.4 2.6.9 2.4-4.9-1.5-1.4-.9-2.2-1.3-1.8-.9.4.5 0 2.2-.9 3.9-1.4 2.8-1.7 2.9-2.8 1.4-1.1-1.6-1.3-1.6-2.7.1-1.5 1.6-3.2 12.6-1.9 12 .3-.2 3.8-2 7.8-4 3.9-2.1 9.1-4.2 11.4-4.7l4.1-.9-.6 4c-.7 4-1.8 6.7-6.2 14.7-2.5 4.6-2.5 6.2 0 4.2 1-.9 6.5-1.2 19.2-1l17.7.2-2.7 2.2-2.8 2.2 2.3 1.7c1.3.9 3.1 1.6 4 1.6s2.2.7 2.9 1.5c.9 1 .9 1.5.1 1.5-3.1 0-.4 1.9 4.9 3.5 3.2 1 5.7 2.2 5.4 2.7s-1.3.8-2.2.7c-5.2-.5-5.7 1.4-.9 3.1 1.7.7 4 2.3 5.1 3.7 1.8 2.5 1.8 2.5 0 2-5.8-1.6-7.2-1.6-8.4-.2-1 1.2-.9 1.5.5 1.5 1 0 1.5.3 1.2.7-.4.4.5 2 2 3.6 1.9 2.1 2.2 2.8 1.1 2.4-1-.4-2.6-1-3.5-1.4-1-.3-.6.4 1 1.6 3 2.5 2.7 4.5-.6 3.6q-2.25-.6-.9.3c.8.5 1.3 1.2 1.3 1.6-.2 1.1 4.2 5.6 5.4 5.6.6 0 2 .7 3.1 1.6 1.8 1.5 1.8 1.5-1 .9-2.3-.5-2.7-.3-2.3.9.5 1.3-.3 1.2-4.5-.5-2.8-1.1-5.3-1.8-5.5-1.5-1.3 1.2 2.1 4.6 5.2 5.2 1.9.3 3.5 1.1 3.5 1.6 0 .6-1 .8-2.2.5-9.7-2.2-9.2-2.2-8.6.1.3 1.2.1 2.3-.6 2.6s-.6.8.4 1.5c3 2.1-.1 2.2-3.5.1-2-1.2-3.9-2-4.2-1.6-.3.3.2 2.2 1.2 4.1.9 2 1.4 3.9 1.1 4.2s-.8-.2-1.2-1.1c-.7-1.9-9.1-8.6-10.7-8.6-.5 0-.8 1.8-.5 4.3.3 2.8.1 4.7-.8 5.5-.8.7-1.4 2.2-1.4 3.2 0 1.1-.5 2-1 2-.6 0-.8-1.1-.4-2.5.4-1.6.2-2.5-.6-2.5-.7 0-1-.6-.7-1.4.6-1.6-2.2-4.6-4.4-4.6-.8 0-3.4-1.4-5.8-3-5-3.4-6.6-3.8-5.7-1.4.4 1-.1 3.6-1 6-1.4 3.6-2.2 4.5-4.9 5-6.4 1.2-7.4-.3-10.1-15.8-.4-2.6-1.6-4.5-4-6.3-5.2-4-6.5-3.1-9.2 6-3 10.3-4.4 13-6.6 13-2.8 0-6-4.9-6.1-9.3-.1-4.8-.8-5.8-4.5-6.5-1.8-.4-3-1.3-3-2.2s-.9-1.5-2.1-1.5c-1.6 0-1.9.4-1.4 1.7 1.4 3.3 1.7 6.3.7 6.3-.5 0-1.5-1.4-2.1-3-1.2-3.7-7.1-11-8.8-11-.7 0-1.3 1.1-1.3 2.5 0 2.3-.2 2.4-2 1.5-1.5-.8-1.9-1.7-1.4-3.4.4-1.7-.1-2.7-2.1-4-2.1-1.4-2.6-2.4-2.3-4.9l.3-3.2 6.8.1c6.7.1 6.8.1 11.5-4.6 2.6-2.6 5.5-5.1 6.5-5.6 1.5-.8 4.9-9.9 4.8-12.9-.2-4.3-1.7-7.8-4.2-9.6-1.7-1.2-2.9-3-2.9-4.2s-.8-4.3-1.7-7c-1.6-4.5-1.6-5 .1-9.5 2.4-6.1 2.1-12.5-.6-18.6l-2.3-4.8-5.8.6c-3.2.3-6.7 1.1-7.9 1.7-1.8 1-2 .9-1.5-.5.4-.9.2-1.6-.3-1.6-2 0 3.8-4.8 7.4-6.1 5.2-1.9 5.5-3.5 1.5-7-3.4-3-3-3.1 3.3-.6 2.2.9 3.1.8 4.6-.6 1-.9 2.4-1.7 3-1.7s2.1-2.4 3.5-5.3c3.6-7.7 9.6-13.1 13.7-12.2.8.2 2.6.6 4 .9"/><path d="M355.5 152c.3.5.8 1 1.1 1 .2 0 .4-.5.4-1 0-.6-.5-1-1.1-1-.5 0-.7.4-.4 1m45 28c-1.6.7-1.7.9-.3.9.9.1 2-.4 2.3-.9.7-1.1.7-1.1-2 0m-78 25c-.3.5-.1 1 .4 1 .6 0 1.1-.5 1.1-1 0-.6-.2-1-.4-1-.3 0-.8.4-1.1 1m81.7 26.6c.7.7 2.7 1.6 4.3 2 2.6.6 2.8.5 1.7-.8-.7-.9-2.6-1.8-4.3-2-2.4-.4-2.8-.2-1.7.8"/></svg>