<svg xmlns="http://www.w3.org/2000/svg" width="682.667" height="512" version="1.0" viewBox="0 0 512 384"><path d="M0 152.5V305h9.9c5.5 0 10.2-.4 10.5-.8.2-.4.8-6.7 1.2-14 .5-9.6.4-13.5-.5-14.6s-.5-2.8 2-7.9c3.2-6.4 3.3-6.5 8.1-7.1 2.6-.4 4.8-1.1 4.8-1.5 0-.5 1-1.1 2.1-1.4 2.1-.6 2.2-1 1.6-8.6l-.5-8.1 4-1.2c4.7-1.4 6.9-4.8 5-7.8-1.2-2 .4-7 2.3-7s3.5 5 2.3 6.9c-2 3.2-.1 7.1 4.2 8.8 3.9 1.6 5.3 4.4 3 5.8-1.1.7-1.3 4.7-.4 9.2.6 3 3 4.5 9.1 5.8 3.8.8 4.3 1.4 7.1 8.4 1.5 3.7 1.9 5.8 1.2 6.5-.6.6-.9 5.5-.8 11.5.1 9.5.2 9.9.7 4.1.5-5.6 1.3-7.6 5.6-14.2 2.8-4.3 5.5-7.6 6-7.5.6.2 3 3.7 5.4 7.8 4 6.5 4.5 8.2 4.9 14.6l.4 7.2 4.2.5c2.2.3 12.2.8 22.1 1.1s23.6.8 30.4 1.2l12.4.6 6.9 6.5c3.8 3.6 7.2 6.2 7.6 5.8s.6-9.1.6-19.3l-.2-18.5 4.5-6.4c2.4-3.5 4.8-6.6 5.2-6.9.5-.2 2.9 2.7 5.5 6.6l4.7 7-.7 52.9-.7 53H512V0H0zm346.8-57.3c3 3.3 4.4 7.5 3.1 9.6-.7 1.2-.5 3.2.9 7.2 2.1 6.1 1.4 5.8 18.5 9 3.5.7 5.7 1.6 5.7 2.5 0 2.1-5.9 6.5-8.8 6.5h-2.7l2.5 2c1.4 1.1 1.9 2 1.3 2-2 0-1.5 1.8 1.8 6.6 3.4 5 3.4 6.4-.1 3.6-2.9-2.4-5.4-1.8-6.9 1.5-.9 2.1-1.4 2.3-2.6 1.3-1.1-.9-1.5-1-1.5-.1 0 .7-.4 1-.9.7-1.2-.8-2.1 2.9-2.1 9.1 0 2.8-.4 5.5-1 5.8-.5.3-1 1-1 1.6 0 .5 1.9-.3 4.3-1.8 5.4-3.4 16.2-8.3 18.3-8.3 2.6 0 .8 7.5-3.7 15.4-2.1 3.8-3.9 7.3-3.9 7.7 0 1.4 1.6 1 3-.6 1.1-1.4 3.5-1.5 16.4-.9 8.3.3 16.2.6 17.6.6h2.5l-3 2.4-2.9 2.3 5.2 2.2c4.7 2 6.8 3.9 4.1 3.9-2.6 0 .6 1.9 5.1 3 5 1.2 7.5 2.9 4.6 3.1-.9.1-2 .3-2.6.4-.5.1-1.5.3-2.1.4-1.7.2.8 2.9 3.3 3.7 1.8.5 5.8 3.8 5.8 4.8 0 .2-2.1-.1-4.6-.6-4.6-1-7-.4-4.5 1.1.7.5 1.1 1.3.7 1.9-.3.6.6 2 2.1 3.2l2.8 2.1-2.8-.6-2.8-.6 2.1 2.3c1.8 1.9 1.9 2.4.6 2.6-2.1.5-2 2.8.1 3.6 1.3.5 1.4.9.5 1.5-.9.5.2 1.4 3.2 2.5 4.9 1.9 6.3 4.1 2 3-1.9-.5-2.5-.4-2 .5 1 1.6-1 1.4-5.4-.8-2.1-1-4.1-1.6-4.4-1.4-1.1 1.2 2.6 4.8 6.2 6s3.6 1.3-2.4.8c-6-.4-6.2-.4-5.7 1.8l.5 2.2-2.1-2.3c-1.1-1.3-3.3-2.5-4.8-2.7-2.5-.3-2.6-.2-.8 1.1 1 .8 2.4 1.4 3 1.4s2.1 1.3 3.3 3c2.6 3.5 1.9 3.8-2.3 1-4.8-3.2-5.8-2.6-3.5 2 2 3.9 1.1 5.9-1 2-1.1-2.1-7.8-7-9.6-7-1.2 0-1.1 6.1.2 8.1.4.8.3.9-.5.5-.6-.4-1.4 0-1.7 1.1-.3 1-1 2.7-1.5 3.8-.8 1.7-.9 1.6-.6-.7.2-1.5 0-2.5-.4-2.2-.5.3-.9-.7-.9-2.1 0-2.1-.8-2.9-3.7-4.1-2-.9-5.3-2.7-7.2-4-4.3-2.9-6.1-3.1-5.4-.5.7 2.8-1.5 8.9-3.7 10.1-2.9 1.5-6.5 1.2-8.3-.8-.9-.9-2.1-4.7-2.7-8.4-1.3-8.7-1.6-9.2-5.5-12.2-6-4.6-5.9-4.6-10.7 12.9-1.5 5.2-3 6.9-5.7 6-2.8-.9-5.1-5.5-5.1-10.4 0-3.5-.3-4-2.9-4.6-3.8-.8-5.5-2.9-4.9-6 .4-1.7.1-2.5-.9-2.5s-1.2 1-.7 4c.8 4.8.1 5-3.3 1-1.3-1.6-3-3-3.6-3-.7 0-1.8-.9-2.5-2-1.5-2.4-3.2-1.8-3.2 1.1 0 1.4-.5 1.9-1.7 1.7-1.3-.3-1.8-1.3-1.7-3.5.1-2.3-.4-3.3-2.1-4.1-3.1-1.4-4.2-6.2-1.9-7.9 2.2-1.6 6.1-1.7 10.3-.2 3.1 1.1 3.3 1 9.4-5.6 7.9-8.6 10.2-14.7 8.5-21.8-.6-2.6-1.5-4.7-1.9-4.7-1.6 0-3.9-3.3-3.9-5.6 0-1.4-.9-4.3-2.1-6.6l-2.1-4.2 2.2-5.4c2.6-6.2 2.4-13.4-.7-19.5-2.3-4.7-4.1-5.2-10.4-3.2-4.2 1.4-5.3 1.5-6 .4-.4-.8-.3-1.9.3-2.6s.7-1.3.2-1.3c-1.3-.1 6.9-3.9 8.3-4 .7 0 1.7-.9 2.3-1.9.8-1.6.6-2.1-.9-2.6-1-.3-2.6-1.4-3.6-2.5-2.4-2.6-.2-2.7 4-.2 2.7 1.7 3.2 1.7 5.3.4 1.8-1.2 2.2-2.1 1.7-4.3-.9-3.8.1-5.2 2.5-3.9 1.6.9 2.2.6 3.4-1.8.8-1.6 3.1-4.3 5.1-6.1 4.6-4 11-4.4 14.3-.9"/><path d="M321.9 201.9c-1.3 1.1-2.1 2.2-1.7 2.6.9.9 2.6-.2 3.8-2.6 1.3-2.4.8-2.4-2.1 0M76.2 301c0 1.4.2 1.9.5 1.2.2-.6.2-1.8 0-2.5-.3-.6-.5-.1-.5 1.3"/></svg>