<svg xmlns="http://www.w3.org/2000/svg" width="682.667" height="512" version="1.0" viewBox="0 0 512 384"><path d="M0 152.5V305h9.9c6.7 0 10.2-.4 10.7-1.2 1.2-1.9 2-27.5 1-29.1-.7-1.1-.4-2.9.9-5.8 2.9-6.4 5.3-8.9 8.4-8.9 1.5 0 4.2-.7 5.9-1.6 3.7-1.8 4.8-5.8 3.8-13.3-.7-5.2-.8-5 6.8-7.5 1.5-.5 1.8-1.3 1.3-4.6-.5-4.1 1-9 2.8-9 1.6 0 3.7 5.2 2.5 6.4-1.6 1.6-1.2 6.2.8 7.8.9.8 2.9 1.9 4.5 2.6 2.6 1.1 3.8 4.2 1.7 4.2-.6 0-1 2.6-1 5.9 0 5.7.2 6 3.4 8 1.8 1.2 4.4 2.1 5.8 2.1 1.3 0 3.1.6 3.9 1.2 2.4 1.9 6.1 12.8 5 14.2-.6.7-1.3 7.1-1.7 14.4-.6 11.4-.5 13.2.8 13.2 1.2 0 1.5-1.7 1.6-9.1l.2-9.1 5.2-8.4c2.9-4.6 5.6-8.4 6-8.4.3 0 2.7 3.6 5.4 8.1 4.2 7.2 4.8 8.9 5.2 15.4l.5 7.4 7.1.5c3.9.3 15.2.8 25.1 1.1s22.2.8 27.4 1.1l9.4.7 7.1 6.5 7.1 6.5.7-8.4c.3-4.6.4-13.1.1-18.9l-.5-10.5 4.7-7c2.6-3.9 5.1-7.4 5.5-7.8s3 2.7 5.8 7l5.1 7.8-.9 40c-.5 22-1 45.7-1 52.7V384h308V0H0zm345.9-59.9c2.8 3.5 3.5 6.2 2.1 7.9-.9 1.1-.8 2.6.5 6.7 1 2.9 2.2 5.8 2.9 6.5.6.7 5.6 2.2 11.1 3.4s10.4 2.5 10.9 3c.6.5-.1 2-1.8 3.8-2.5 2.6-2.6 2.9-.9 3.6 1.6.6 1.4.9-1.2 2-1.6.7-3 1.9-3 2.7 0 .7-1.3 1.4-3.2 1.6-1.7.2-3.7 1-4.3 1.8-1 1.1-.6 1.7 2.1 2.8 2.8 1.2 3.1 1.6 1.7 2.1-1 .4-2.5.4-3.4.1-1.4-.5-1.5-.4-.4.9.7.8.9 1.5.5 1.5s-.2.7.5 1.5c1.5 1.8-.1 2-1.9.2-1.1-1-1.4-.9-1.8.1-.3.6-.8 1-1.3.7s-1.2 2.5-1.5 6.2c-.4 3.8-1.2 7.4-1.7 8-1.6 2-.2 1.5 5.1-1.8 4.2-2.5 16.3-7.9 17.9-7.9s-1.4 10.4-4.3 15.2c-3.5 5.6-4.2 7.8-2.7 7.8.4 0 1.3-.5 1.9-1.1 1.2-1.2 33.8-1.7 34.9-.6.3.3-.8 1.3-2.5 2.2-1.8.9-2.9 2-2.6 2.5s2.8 1.6 5.6 2.5c4.1 1.4 4.8 1.9 3.8 3.1-1.6 2-1.1 2.3 6.2 3.8 5.8 1.2 6.1 1.4 3.4 2.1-1.6.3-3.6.8-4.2 1.1-2.3.6-1.4 2.2 2 3.4 1.7.6 4 2.2 5.1 3.6 1.8 2.6 1.8 2.6 0 2.1-4.3-1.2-8.4-1.8-8.4-1.2 0 1.4 2.4 5.1 4.4 6.8l2.1 1.9-2.2-.5c-2.1-.5-2.2-.4-.6 2l1.7 2.5-3.5-.7-3.4-.7 2.5 1.8c1.4.9 2.7 1.9 3 2.1.2.2-.2.8-1 1.3-1.1.7-.6 1.3 2.2 2.5 2.1.8 4.2 1.5 4.7 1.5s1.3.5 1.7 1.1c.5.8-.1 1-1.9.7-1.8-.4-2.4-.1-2 .9.7 1.7.3 1.7-5.7-.7l-5-2 1.5 3c1.1 2.1 2.3 3 4 3 1.3 0 2.7.5 3.1 1.1.5.9-.7 1-4.4.5-4.2-.5-5.2-.4-5.2.8 0 .8-.6 1.6-1.2 1.9-.9.3-.7 1 .7 2.1 2.6 2 .1 2.1-3.5.1-4.2-2.4-5.3-1.9-3.5 1.5 2.3 4.4 1.9 4.5-2.7.6-2.3-2-4.9-3.6-5.9-3.6-2.1 0-3.5 3.8-2 5.3 1.3 1.3 1.5 3 .2 2.3-.5-.3-1.5.9-2.1 2.7l-1.2 3.2-1.2-4.4c-.6-2.4-1.8-4.8-2.6-5.2s-4.3-2.1-7.6-3.8l-6.2-3-.6 4.7c-.8 5.5-2.2 7.7-5.9 9.1-3.8 1.5-7.3-1.6-8.2-7.2-1.7-11.4-2.4-13.1-6.6-15.5-3-1.7-4.4-2.1-5.2-1.3-.6.6-2.3 5.2-3.7 10.3-3 10.9-4.7 12.6-8.7 8.5-2.2-2.1-2.8-3.7-2.8-7.4-.1-2.6-.5-4.8-1.1-4.9-.5-.1-2.1-.5-3.6-.8-2.5-.6-2.8-1-2.8-5.1 0-3.5-.3-4.3-1.5-3.9-1.1.5-1.3 1.6-.9 4.5.4 2.1.3 3.9-.1 3.9s-3-2-5.9-4.5c-5.3-4.5-6.6-4.8-6.6-1.3 0 2.2-1.3 2.3-3.1.2-.9-1.2-1-2-.2-3.3.9-1.5.6-1.9-1.8-2.8-2.4-1-2.9-1.7-2.9-4.6 0-2.3.6-3.7 1.6-4.1 2.5-1 7.4-.7 9.7.5 1.8 1 2.3.8 3.6-1.2 1.6-2.5 7.2-8.2 10.9-11.1 1.2-1 2.2-2.8 2.2-4 0-1.3.6-3.4 1.3-4.8 1.6-3.1-.3-9.6-3.6-12.2-1.2-.9-2.7-3.9-3.5-7-2.4-9.5-2.5-11.3-.4-15.1 1.6-3 1.7-4.6 1.1-9.3-.9-6.6-3.5-12.1-6.2-13-.9-.3-4 .2-6.8 1.1-5.5 1.9-5.8 1.8-6.4-1.5-.2-1.2-.2-2 .1-1.7.4.3 1.5-.3 2.7-1.3 1.1-1.1 3.5-2.4 5.4-3.1 4.1-1.3 4.2-2.9.3-5.1-4-2.2-4-4.4 0-2.3 3.5 1.8 5.1 1.9 8.5.3 2.2-1 2.5-1.6 1.9-4.1-.5-2.7-.4-2.9 1.4-2.5 1.6.4 2.3-.1 3.2-2.3.7-1.5 2.8-4.4 4.6-6.4 3.2-3.1 4-3.5 8.9-3.5 4.6 0 5.7.4 7.4 2.6m-95.9 7.8c0 .3-.4.8-1 1.1-.5.3-1 .1-1-.4 0-.6.5-1.1 1-1.1.6 0 1 .2 1 .4"/><path d="M395.8 173.7c.7.3 1.6.2 1.9-.1.4-.3-.2-.6-1.3-.5-1.1 0-1.4.3-.6.6m-76.4 24.7c-2.6 2.3-2.7 2.5-.9 2.6 1.1 0 2.6-.9 3.3-2.1 2-3.1.8-3.3-2.4-.5m82 26.1c1.1.8 2.9 1.5 3.9 1.5 1.6 0 1.7-.3.7-1.5-.7-.8-2.4-1.5-3.9-1.5-2.5.1-2.5.1-.7 1.5"/></svg>