<svg xmlns="http://www.w3.org/2000/svg" width="682.667" height="512" version="1.0" viewBox="0 0 512 384"><path d="M110.1 3c2.2 7.2 3 9.1 7.9 20 2.9 6.3 5.9 11.9 6.7 12.3.7.5 2.7 3.7 4.3 7.3 3.1 6.6 4.6 8.5 3 3.6-4.3-13.3-4.2-15.6.6-8 2.4 3.8 2.6 5 3.1 21.2.5 14.7.4 17.3-1 18.4-1 .9-1.7 1-2.2.2-1-1.7-4.3-1.1-4.9.8-.4 1.1 0 3.5.8 5.4.9 2 1.3 3.7 1.1 4-.2.2-.9 13.2-1.5 28.8-1.5 38.9-1.4 38.1-3.3 41.7-2.1 3.9-2.1 4.4-.3 3.7.8-.3 1.7-.1 2.1.5.3.6 1.9 1.1 3.6 1.1h2.9v23.4c0 19.5-.2 23.6-1.5 24.6-.8.7-1.5 2.1-1.5 3.1s-1.2 2.6-2.6 3.6c-2.4 1.5-4.7 5.3-4.9 7.9 0 .6-1.4 2.3-3.1 3.8-1.8 1.4-3.9 4.1-4.7 5.9-.9 1.8-3 5.1-4.8 7.3-5.6 6.9-10 14.6-9.5 16.1.4 1-1 3-3.9 5.5-2.5 2.2-4.5 4.4-4.5 4.8 0 .5-1.4 2.9-3.1 5.4-1.9 2.9-2.8 5.3-2.4 6.5.4 1.3-.5 2.7-2.9 4.9-1.9 1.6-4.5 4.7-5.9 6.9-4.2 6.7-7.9 13.7-8.3 15.6-.2 1.1-1.4 3.4-2.8 5.2-3.7 4.8-12.6 23.4-11.5 24 1.1.7-1.2 5.5-3.6 7.5-1.5 1.3-4.5 7.3-4.5 9.1 0 .5.7.9 1.5.9 2 0 .5 3-4 8.1-3.1 3.4-5.4 9.4-4.1 10.6.3.3-.6 2-1.9 3.8-1.4 1.7-2.5 3.7-2.5 4.3 0 .9 58.5 1.2 237.3 1.2h237.2l.3-7.2c.1-4 .4-18.9.7-33.1.5-24 .4-25.8-1.2-26.5-2.3-.9-23.6-.9-28.6 0-4.6.8-4.1 1.7-10.2-19.7-4.5-15.7-7.9-31.7-11.5-54.4-2.3-14.1-5.6-24.9-9.8-31.5-5.5-8.8-19.9-21.6-30.4-27.1-8.8-4.5-8-1.3-8.9-37.1-.7-29.4-1.2-40.6-2.4-55.4-.6-7.2-.2-6 8.1 23.7 5.2 18.7 7 24 8 23.2.9-.7 1.6.3 2.9 4.1.9 2.8 1.9 4.9 2.1 4.7s-.7-9.1-2.1-19.8c-1.3-10.7-3.3-29.1-4.5-40.9-2.3-24.2-5.6-50.9-7.1-58.2-.8-3.6-.8-5.2.1-6.3.7-.8 1.6-1.2 2.1-.9s1.8 0 3-.6c1.6-.9 2.4-.8 3.8.4 2.1 1.9 6.2 2.1 7.9.4 1-1 1.7-1 3.3 0 1.8 1.2 2.4 1.1 4.5-.9 1.3-1.2 2.4-2.7 2.4-3.3 0-.5 1-2 2.1-3.2 2.2-2.4 2.9-7.8 1.5-12.2l-.7-2.2H109.1zm61.3 92.3c.7 1.8 2.6 5.3 4 7.6l2.7 4.3-1.5 6.1c-.9 3.4-3 10-4.7 14.7-1.8 4.7-3.3 10.3-3.4 12.5s-1 5.3-2 7c-1.6 2.9-1.6 2.8-1.1-7 1.8-32.8 3.1-48.5 3.8-48.5.4 0 1.4 1.5 2.2 3.3m-12.6 74.1c-1.7 3.8-3.8 4.1-3.8.6 0-2.5.4-3 2.5-3 2.2 0 2.4.2 1.3 2.4"/></svg>