<svg xmlns="http://www.w3.org/2000/svg" width="682.667" height="512" version="1.0" viewBox="0 0 512 384"><path d="M0 152.5V305h9.3c5.9 0 9.9-.5 11-1.3 1.4-1 1.8-3.7 2.4-15 .4-10.1.3-13.7-.5-13.7-1.8 0-1.5-1.2 1.8-8.3 2.8-6.1 3.2-6.5 7.1-7.1 2.3-.4 5.4-1.3 6.9-2.1 2.4-1.2 2.8-2.1 3.2-7.2.3-3.2.1-6.4-.4-7-1.7-2.1-.2-4 4.4-5.5 3.5-1.2 4.4-1.9 4.6-4.2.2-1.6-.1-3.3-.6-3.8-1-1 1.5-6.8 2.9-6.8.4 0 1.4 1.2 2.4 2.6 1.2 1.9 1.4 2.9.6 3.7-1.4 1.4-1.4 5.2-.1 7.7.5 1 2.4 2.1 4.1 2.5 3.1.7 5.2 3.6 3.1 4.3-.8.2-1.2 2.7-1.2 6.7 0 6.3.1 6.4 3.3 7.9 1.7.8 4.6 1.7 6.4 2.1 3.8.7 4.3 1.4 7.1 8.4 1.4 3.3 1.9 5.8 1.3 6.5-.5.6-1.2 7.3-1.6 14.8-.7 13.1-.6 13.8 1.2 13.8 1.7 0 1.9-.9 2-9.6l.2-9.6 5.2-7.9c2.9-4.4 5.7-7.8 6.2-7.6.6.2 3.2 4 5.7 8.4 4.2 7.3 4.7 8.9 4.9 15 .1 3.7.3 6.9.5 7 .1.1 15.6.9 34.4 1.7l34.2 1.4 7.2 6.6 7.3 6.7.8-2.8c.4-1.6.6-10.2.5-19.3l-.3-16.5 5-7.2c2.8-4 5.2-7.3 5.5-7.3s2.7 3.3 5.3 7.4l4.8 7.3-.7 53.2-.7 53.1H512V0H0zm343.5-64.1c2.8 2.8 4.2 7.3 2.7 8.8-1.1 1.1 0 6.4 2.4 10.9 1.1 2.3 2.5 2.8 10.1 4.3 11.8 2.3 12.3 2.5 12.3 4.5 0 2.8-5.2 7.1-7.8 6.4-2.6-.6-2.8.4-.6 3.5.8 1.2 1.2 2.2.7 2.2-.4 0 .8 1.4 2.7 3l3.5 2.9-4.8-.2c-4.3-.2-4.8-.1-4.3 1.6.3 1.2 0 1.7-.8 1.4-.7-.3-1.9-.1-2.6.3-1.1.7-1.1 1.2.1 2.7 1.3 1.6 1.3 1.7-.3.4-1.4-1-2.1-1.1-3.2-.2-1.1 1-1.5.8-1.9-.6-.3-1-.5 1.8-.6 6.3-.1 4.7-.6 8.5-1.3 9.2-.9.9-.9 1.2-.1 1.2.7 0 1.5-.5 1.8-1 1.7-2.7 20.4-10.5 21.8-9.1 1.3 1.3-1.8 11-4.8 15-3.1 4.2-3.2 5.4-.4 4.6 1.2-.4 9.5-.8 18.6-.8 15.5-.2 16.3-.1 14.3 1.5-1.1.9-2.6 1.9-3.3 2.2-1.4.6 1.9 3.6 3.9 3.6.7 0 2.5.5 4 1 2.5 1 2.6 1.2.9 2.4-2.2 1.6-1.7 1.9 6 3.7l6 1.3-4 1.2c-4.8 1.3-5.1 2.5-1 3.9 1.7.5 4.1 2 5.4 3.2l2.3 2.2-5.8-.4c-3.3-.3-5.1-.2-4.2.1s1.5 1.1 1.2 1.8.8 2.5 2.3 4.1c1.8 1.9 2.2 2.6 1.1 2.2-2.1-.7-2.3.3-.5 2.2 1 1.1.5 1.2-2.8.7l-4-.7 3.4 2.1c3 1.9 3.2 2.2 1.7 3.3s-.9 1.5 3.9 3.2c6.2 2.1 8.7 4.2 3.7 3.2-1.7-.4-3.2-.2-3.4.4s-2 .4-4.7-.6c-5.2-1.8-5.9-1.9-4.3-.3 1.5 1.5 1.6 3.2.2 2.3-.5-.3-1-.2-1 .3s2 1.3 4.5 1.6c2.5.4 4.5 1.2 4.5 1.7 0 1-3.2.7-8.2-.7-2.2-.6-4.5 3.3-2.9 4.9 2.3 2.3.9 2.6-3 .7-2.3-1.2-4.3-1.9-4.6-1.7-.2.3.3 1.9 1.1 3.6 2.5 4.6 2 4.7-2.9.2-2.4-2.2-5.2-4.1-6-4.1-2.2 0-3 2.7-1.7 5.5 1 2.1.9 2.3-.5 1.8-1.1-.4-1.4-.2-.9.5.4.6 0 2.4-.9 3.9l-1.6 2.8.4-2.8c.2-1.5 0-2.7-.4-2.7-.5 0-.9-.9-.9-2.1 0-1.4-1.1-2.4-3.7-3.5-2.1-.8-5.4-2.4-7.4-3.4-2-1.1-3.9-2-4.2-2s-.8 2.3-1.2 5.2c-1.7 12.3-12.2 13.2-13.9 1.2-1.4-9.7-2.4-12.1-6.2-14.3-1.9-1.2-4.1-2.1-4.8-2.1-.8 0-2.5 4-4.2 10.2-3.3 11.3-4.7 12.7-9 8.7-1.6-1.5-2.6-3.8-3-7-.6-4.2-1-4.8-3.8-5.6-2.5-.7-3.2-1.4-3.4-4.1-.3-2.5-.8-3.2-2.4-3.2-1.5 0-1.8.3-1 1.3.7.8.7 1.8.2 2.7-.6.9-.4 2 .4 3 .8.8 1.1 2.3.7 3.2-.5 1.4-1.6.4-5.5-4.8-4.8-6.6-6.8-7.5-7.4-3.6-.4 2.4-1.2 2.8-2.9 1.1-.8-.8-.8-2-.2-3.6.7-2 .5-2.5-1.5-3.5-2.6-1.1-4-4.6-3-7.3.6-1.4 1.7-1.6 6.4-1.3 5.7.4 5.8.4 7.6-3 1-1.9 4.4-5.2 7.6-7.3 4.1-2.8 5.8-4.6 5.8-6.2.1-1.2.7-3.5 1.3-5.1 1.6-3.8-.5-11.2-3.4-12.1-1-.4-2.1-1.8-2.4-3.3s-1.3-5.1-2.2-8c-1.6-5.1-1.6-5.4.4-9.6 5-10.2-2-26.6-9.6-22.6-.9.5-3.1 1.3-4.9 1.9-2.6.8-3.2.8-2.9-.2.2-.6.1-1.9-.4-2.8-.7-1.3.3-2.2 5.1-4.3 3.3-1.5 6.2-3.1 6.5-3.6s-.8-1.6-2.5-2.5c-1.6-.8-3-2-3-2.5 0-1.3.6-1.3 4 .5 3.4 1.7 6.5.6 7.3-2.7.3-1 1.2-1.8 2-1.8s2.5-2 3.7-4.5c3.3-6.8 8.1-10.5 13.6-10.5 3.4 0 5.1.6 6.9 2.4M124 188c0 .5-.5 1-1.1 1-.5 0-.7-.5-.4-1 .3-.6.8-1 1.1-1 .2 0 .4.4.4 1"/><path d="M316.1 194.6c-1.7 1.3-2 1.9-1 2.5 1.6.9 2.6.4 3.9-2.2 1.3-2.3.2-2.4-2.9-.3M398 218c0 .5 1.4 1.3 3.1 1.9 4.1 1.4 4.4 1.4 3-.3-1.3-1.5-6.1-2.8-6.1-1.6"/></svg>