<svg xmlns="http://www.w3.org/2000/svg" width="682.667" height="512" version="1.0" viewBox="0 0 512 384"><path d="M0 152.3v152.3l10.7-.4c6-.2 11.1-.7 11.5-1.1.5-.4 1.1-6.8 1.5-14.4.5-10.5.3-14-.7-15.2-1.1-1.3-.8-2.6 2.2-8.3 3.2-6.2 3.7-6.7 7.4-7.3 2.1-.3 5.4-1.1 7.2-1.8l3.4-1.3-.4-6.7c-.2-3.6-.6-7.3-.8-8.1-.3-.9 1.2-2.3 4.5-4 5.2-2.6 6.8-5.7 4.5-8.5-.9-1-.7-2 .5-3.9 1.7-2.6 3.5-3.4 3.5-1.7 0 .5.8 1.7 1.7 2.6 1.6 1.6 1.6 1.8 0 2.7-3.9 2.2-.9 8.9 4.8 10.8 3.4 1.1 4.6 3.2 2.5 4.5-.5.3-1 3.4-1 6.9 0 6.2 0 6.3 3.5 7.9 2 .9 4.6 1.7 5.8 1.7 3.6 0 5.3 2 7.7 8.7 1.7 4.6 2 6.6 1.2 7.6-.6.7-1.2 6.9-1.4 13.9-.3 13.1.3 15.7 3.6 14.5 1.3-.5 1.6-2.4 1.6-10.2V284l5.5-8.6c3-4.7 5.9-8.3 6.4-8 .4.3 2.9 4.1 5.4 8.5 4.4 7.6 4.7 8.5 4.7 15.5v7.4l3.8.6c2 .3 17.9 1.1 35.2 1.7l31.5 1.2 7.1 6.9c3.9 3.7 7.4 6.8 7.7 6.8.4 0 .7-8.9.7-19.8v-19.8l4.8-6.9c2.6-3.8 5.2-7 5.7-7.2.6-.1 3.1 3.1 5.7 7.2l4.8 7.5-.5 42.3c-.3 23.2-.7 47.3-1 53.4l-.4 11.3H512V0H0zm340.4-70.2c2.4 2.7 2.7 3.8 2.2 6.8-.7 4.5.9 10.6 3.4 13.1 1.1 1.1 5.3 2.4 11.5 3.5q9.75 1.8 10.2 3.3c.8 1.9-4.9 7.2-7.7 7.2-2.3 0-2.6 1-.8 2.8.7.7.8 1.2.3 1.2s.5 1.5 2.3 3.3l3.1 3.2-4.6-.4c-4.3-.3-4.6-.2-4 1.9.4 1.6.2 2-.9 1.6-.8-.3-1.4-.1-1.4.5s-.5.7-1.2.3c-.7-.5-.9-.2-.6.8.5 1.1 0 1.4-1.7 1.2-3.1-.3-3.9 2.1-3 8.7.5 3.5.3 5.5-.7 6.7-1.4 1.8-1.2 1.7 6.5-3.3 3.9-2.5 15-6.6 15.8-5.8 1.2 1.2-.9 9.3-3.6 13.9l-2.5 4.2 13.8.2c7.5.1 15.5.2 17.7.2h4l-3 2.4-2.9 2.3 5.2 2.2c3.7 1.5 5 2.5 4.2 3.3-1.5 1.5-1.2 2.6.6 2.6 2.7 0 9.4 2.3 9.4 3.2 0 .4-1 .8-2.3.8s-2.7.3-3 .7c-1 .9 1.3 3.3 3.1 3.3.8 0 2.5 1.2 3.9 2.6l2.3 2.5-5.6-.7-5.7-.7 2.2 3.1c1.2 1.7 2.6 3.4 3.1 3.7 1.7 1.1 1.1 2.5-.7 1.8-1.6-.6-1.6-.4.1 1.5 1.9 2.2 1.9 2.2-.9 2.2h-2.7l2.3 2c2.1 1.7 2.2 1.9.5 2-3 0-.3 2.5 4.3 3.9 4.7 1.4 7 3.8 2.7 2.7-1.8-.4-2.5-.3-2.1.4.9 1.5-2.6 1.2-5.5-.5-3.2-1.8-5.9-2-4.2-.3s1.5 2.8-.5 2.1c-1-.4-1.4-.2-1 .4s2.7 1.4 5.2 1.7c2.5.4 4.5 1.2 4.5 1.7s-1.8.7-4.2.3-4.7-.7-5.3-.8c-.5 0-.9.7-.8 1.7.1 1.6-.4 1.4-2.8-.9-1.6-1.5-3.2-2.5-3.5-2.1-.4.4-1.4.1-2.3-.5-1-.8-.9-.4.3 1 1.1 1.2 2.7 2.2 3.6 2.2 1.5 0 5 3.8 5 5.5 0 .4-1.8-.4-4-1.6s-4.2-2-4.5-1.7c-.3.2.2 1.9 1.1 3.7 1.9 3.9 1.3 5.1-.9 1.7-1.5-2.3-8.5-7.2-9.1-6.5-1 1.2-1.4 5.9-.6 6.4.5.3 1 1.1 1 1.6 0 .6-.5.7-1 .4-.6-.4-1.3.7-1.6 2.5-.4 1.7-1.1 3.3-1.6 3.6-.6.4-.7-.6-.3-2.6.5-2.3.4-3-.4-2.6-.7.5-1.1-.2-1.1-1.8 0-1.9-.7-2.7-2.7-3.2-1.4-.4-4.5-1.7-6.7-3-2.3-1.3-4.5-2.4-5.1-2.4-.5 0-1.1 2.3-1.3 5.2-.3 6.9-2.3 9.8-6.7 9.8-4.3 0-6-2.4-6.9-9.7-.8-6.7-2.5-11.3-4.1-11.3-.7 0-1.8-.7-2.5-1.5s-2.1-1.5-3.2-1.5c-2.2 0-3.9 3.5-5.8 12-1.5 6.5-2.5 8-5.4 8-2.6 0-4.8-3.3-5.5-8.5-.5-3.1-1.1-4-3.1-4.5-1.5-.3-3.1-1.9-4-3.6-.8-1.7-2.1-2.9-2.8-2.7-1 .4-1 .8-.2 1.8.6.8 1 2.6.8 4.1l-.3 2.7-2.6-3.9c-1.4-2.1-3.1-3.8-3.7-3.6-.7.1-1.5-.5-1.8-1.3-.9-2.4-3.1-1.8-3.8 1.1-.9 3.4-3.1 2.5-3.1-1.2 0-1.8-.7-3.3-2-4.1-2.1-1.2-3.5-4.9-2.7-7.1.3-.8 2.6-1.2 6.6-1.2h6.2l1.8-3.9c1.5-3.6 6.1-8.6 9.9-10.8.8-.4 2.1-3.2 3-6.1 1.9-6.8.8-12.1-3.2-14.3-2.3-1.3-2.9-2.6-3.4-6.5-.4-2.7-.9-6.4-1.3-8.1-.4-2.3 0-4.4 1.4-7.1 1.7-3.3 1.8-4.6 1-9.7-.5-3.3-1.6-6.7-2.3-7.6-.8-.8-1.5-2.1-1.5-2.7 0-1.5-4-1.5-10-.1-4.2 1-5.5.5-5-1.7.1-.4-.4-1-1.1-1.5-1-.5.4-1.6 4.4-3.4 3.2-1.4 6.2-2.5 6.7-2.5 1.9 0 1-1.8-1.7-3.8-3.6-2.7-2.4-3.8 1.7-1.7 3.2 1.7 3.3 1.6 6-1.2 1.6-1.5 3.4-3.3 4-3.8.6-.6 2.5-3.4 4.1-6.3 5.4-9.6 13.3-11.7 19.3-5.1M492 105c0 .5-.2 1-.4 1-.3 0-.8-.5-1.1-1-.3-.6-.1-1 .4-1 .6 0 1.1.4 1.1 1"/><path d="M313.9 188.7c-1.3 1.6-1.2 1.7.4.4s2.1-2.1 1.3-2.1c-.2 0-1 .8-1.7 1.7"/></svg>