<svg xmlns="http://www.w3.org/2000/svg" width="682.667" height="512" version="1.0" viewBox="0 0 512 384"><path d="M0 152.2v152.3l10.7-.3c6-.2 11.2-.7 11.7-1.2 1.5-1.5 2.1-27.7.6-29.5-1-1.2-.6-2.7 2.2-8.2 3.2-6.4 3.6-6.8 7.2-7.1 2.1-.2 5.2-1.1 6.9-2.1 3.2-1.8 3.2-1.8 3.2-10.1v-8.3l4.5-2.1c3.6-1.7 4.6-2.7 4.8-5 .2-1.6-.2-3.2-.9-3.7-.9-.5-.8-1.1.4-2.4 1-.9 1.7-2.1 1.7-2.6 0-1.7 1.8-.9 3.5 1.7 1.6 2.4 1.6 2.6-.1 3.9-1.6 1.1-1.6 1.6-.3 5 1.1 2.9 2.3 4.1 4.9 5 2.8 1 3.5 1.7 3.3 3.6-.2 1.3-.6 5-.9 8.1l-.7 5.7 4.4 1.9c2.4 1.1 5.8 2.4 7.4 2.9 2.4.7 3.4 1.9 5.3 6.7 2 5.1 2.2 6.4 1.3 10.7-.6 2.8-1.1 9.7-1.1 15.5v10.5l2.6-.3c2.6-.3 2.6-.3 2.8-9.8l.1-9.5 5.4-8.3c2.9-4.5 5.6-8.2 6.1-8.2.4 0 3.1 4 5.9 8.9 4.8 8.4 5.1 9.3 5.1 15.9v7l3.8.6c2 .3 17.4 1 34.2 1.7 21.5.8 31.1 1.5 32.5 2.4 1.1.7 4.8 3.8 8.2 6.9 3.3 3.1 6.4 5.6 6.8 5.6.3 0 .5-8.9.3-19.8l-.3-19.7 4.9-7.3c2.7-3.9 5.3-7.2 5.8-7.2.4 0 3.1 3.5 5.9 7.7l5 7.7-.5 16.1c-.3 8.8-.8 32.8-1.2 53.2l-.6 37.3H512V0H0zm339.2-71.5c3.1 3.4 4.3 7 2.9 8.7-.8.9-.5 3 1 7.4 1.1 3.4 2.2 6.2 2.2 6.2 2.4 0 21.4 4.3 22.1 5 1.3 1.3-3.5 6.9-6.7 7.6-2.2.5-2.5.9-1.6 2 .6.8.8 1.4.3 1.4s.7 1.4 2.6 3.1c3.4 2.9 3.4 3 1 2.8-6.2-.3-7.2 0-6.5 2.2.6 1.8.4 2-1.5 1.4-1.5-.5-2-.4-1.6.4.4.6.2 1.1-.5 1.1s-.5.8.7 2.1c1.9 2.2 1.9 2.2-.4 1-1.3-.7-2.6-1-2.9-.7-.4.3-1.1.1-1.8-.4-.9-.7-1.2 1-1.3 6.7-.2 4.3-.8 8.3-1.5 9.1-.6.9.8.3 3.3-1.3 5.6-3.6 16.4-8.5 18.6-8.5 2.3 0 .9 7.2-2.6 13.5l-2.9 5 18-.1c9.8-.1 17.9 0 17.9.2s-1.6 1.2-3.7 2.2l-3.6 1.9 6.2 2.4c5.3 2.1 5.9 2.6 4.4 3.6-2.3 1.7-1.5 2.2 5.5 3.5 5.8 1.1 7.6 2.8 2.9 2.8-1.2 0-2.8.4-3.6.9-1.1.7-.7 1.3 1.8 2.5 3.6 1.9 7.1 4.7 7.1 5.7 0 .4-1.7.3-3.7-.2-2.1-.5-4.5-.9-5.3-.9-1.3 0-1.3.1 0 1 .8.5 1.1 1.2.7 1.6s.5 2 2 3.6c2.3 2.4 2.4 2.8.9 2.8-1.6 0-1.7.2-.5 1.7 1.3 1.5 1.1 1.6-1.8 1-1.9-.4-3.3-.2-3.3.3 0 .6.8 1 1.9 1 1 0 2.4.7 3.1 1.5 1 1.2 1 1.5-.4 1.5-3.1 0-1.6 1.7 3.2 3.5 6 2.2 7.9 4 3.3 3-2.3-.5-3.1-.4-2.7.4 1 1.5-.8 1.4-5.1-.4-4.1-1.7-5.2-1.3-3.2 1.2 1.2 1.5 1.2 1.6-.4 1-1-.4-1.6-.3-1.3.2s2.7 1.2 5.2 1.6c3.2.4 4.3 1 3.6 1.7s-2.5.7-5.6 0c-4.9-1-6.2-.6-4.5 1.5.9 1 .7 1.3-.7 1.3-1.8.1-1.8.1 0 1.5 2.6 2 0 2-3.4 0-4.2-2.4-5.2-1.8-3 1.7 3.1 5.1 2.4 5.4-2.5.9-2.4-2.2-5.2-4.1-6-4.1-2.2 0-3 2.7-1.5 5.8.6 1.5.8 2.3.4 1.9-.5-.5-1.7.9-2.7 3l-1.7 3.8.4-4c.2-2.2.2-3.4-.1-2.8-.8 2.1-2.5 1.5-1.8-.6.5-1.7-.6-2.5-7.1-5.5-4.2-2-7.8-3.6-8-3.6s-.4 2.5-.4 5.5c0 4.6-.4 6-2.5 8-4.8 4.9-9.7 2.5-11-5.5-1.3-8.3-2.7-13-4-13-.7 0-1.8-.7-2.5-1.5s-2.3-1.5-3.6-1.5c-2 0-2.6 1-4.9 8.7-1.4 4.9-2.8 9.4-3 10-.7 2-4 1.5-6.2-1-1.2-1.2-2.5-4.2-3-6.7-.6-3.3-1.4-4.6-2.8-4.8-3.2-.6-4.5-2.2-4.5-5.5 0-1.7-.3-2.7-.7-2.3s-.6 2.3-.4 4.3l.3 3.6-3.2-2.6c-1.7-1.5-3.5-2.5-4-2.2-.4.3-1.3-.2-2-1-1.8-2.2-2.9-1.9-4.1 1.2-.9 2.4-1.1 2.5-2.5 1.1-1.3-1.2-1.4-2-.5-3.7 1-1.8.9-2.2-1.2-3-4-1.6-5.2-7.5-1.6-8.6 1.1-.4 4.1-.5 6.6-.3 4.6.3 4.7.3 7-4.2 1.3-2.5 4.3-6.3 6.7-8.5 5.5-5 7.8-11.2 6.1-16.8-.6-2.4-2-4.3-3.5-5-1.9-1-2.6-2.3-3.1-5.7-.4-2.5-1.2-5.9-1.9-7.6-1.2-2.7-1.1-3.6 1-7.8 1.9-4 2.1-5.7 1.6-10.4-.4-3.1-1.3-6.3-2-7.2-.7-.8-1.6-2.3-1.9-3.2-.6-1.8-2.5-1.8-10.2.1-5 1.3-5.8 1.3-5 .2.3-.5-.1-1.6-1-2.4-1.3-1.3-.9-1.8 3.2-3.7 2.6-1.2 5.8-2.6 7-3.1 2.8-1.1 3-2.6.3-3.4-1.1-.3-2.5-1.5-3.1-2.6-1-2-1-2 2.8 0 3.2 1.6 4.1 1.7 5.6.6.9-.7 1.7-1.7 1.7-2.3s.9-1.3 1.9-1.7c1.1-.3 3.3-3 5-5.9 5.9-10.5 13.8-13.7 19.3-7.9M445 128c0 .5-.4 1-1 1-.5 0-1-.5-1-1 0-.6.5-1 1-1 .6 0 1 .4 1 1"/><path d="M388.8 158.7c.7.3 1.6.2 1.9-.1.4-.3-.2-.6-1.3-.5-1.1 0-1.4.3-.6.6M313 187.5c-2 2.4-.6 2.8 1.5.5 1-1.1 1.3-2 .8-2-.6 0-1.6.7-2.3 1.5m80 20.5c0 .9 2.5 2 4.6 2 .9 0 1.3-.4 1-.9-.7-1.1-5.6-2.1-5.6-1.1"/></svg>