<svg xmlns="http://www.w3.org/2000/svg" width="682.667" height="512" version="1.0" viewBox="0 0 512 384"><path d="M0 152v152h11c9.4 0 11.1-.2 11.9-1.8 1.4-2.7 1.8-27.9.4-29.3-.9-.9-.3-2.8 2.2-7.9 3.4-6.7 4.8-8 8.7-8 1.2 0 3.9-.8 6-1.7l3.8-1.7v-6.2c0-3.5-.4-6.6-1-6.9-2.2-1.4-.7-3.4 4-5.4 5.2-2.2 7.4-5.8 5.1-8.4-.8-1-.7-2.1.2-4 1.5-3.4 3-3.4 4.7-.2 1 2 1.1 2.8.2 3.7-1.5 1.5-1.5 5.8.1 7.9.7.9 2.9 2.2 5 2.8 3.3 1.1 3.8 1.6 3.1 3.5-.4 1.1-.9 4.9-1.1 8.3l-.5 6.1 3.4 1.5c1.8.8 5 1.8 7.2 2.3 3.6.8 4 1.3 6.6 7.9 2.1 5.1 2.5 7.3 1.7 8.3-.6.7-1.3 7.4-1.5 14.8l-.5 13.5 3.4-.3 3.4-.3-.3-9.1-.4-9.1 5.9-9.1c3.2-5.1 6-9.2 6.3-9.2s2.9 4 5.8 8.9c5 8.6 5.2 9.2 5.2 16.4v7.5l8.3.6c8.9.7 52.8 2.6 58.4 2.6 2.9 0 4.7 1.2 11.1 7.3l7.7 7.2.8-5c.4-2.8.5-11.8.1-20.2l-.6-15.2 5.3-7.5c2.9-4.2 5.5-7.6 5.8-7.6s2.7 3.3 5.3 7.3c5.6 8.6 5.2 2.2 4.2 67.4l-.7 48.3H512V0H0zm336.3-72.9c3.3 1.5 6.4 7.4 4.8 9.3-1.5 1.8 1.5 13.3 3.8 14.6.9.4 5.8 1.5 10.9 2.4 9.5 1.6 11.2 2.1 11.2 3.5s-4.9 6.1-7.2 7l-2.2.8 2.7 2.5c3.2 3 3.5 4.2.7 3.3-1.1-.4-2-.2-2 .4s-.8 1.1-1.7 1.1c-1 0-2.5.5-3.3 1-1.2.7-1 1.1 1 1.8l2.5 1-2.7.7c-1.6.4-2.5 1.1-2.2 1.6s0 .9-.6.9-.8.5-.4 1.2c.5.8.2.9-.9.5-1-.3-1.7-.2-1.7.3s-.6.7-1.4.4c-1-.4-1.3 1-1.5 6.2-.1 3.7-.4 7.1-.7 7.6-.9 1.4.5.9 4.5-1.7 3.5-2.4 9.7-5 16-7 2.4-.7 2.4-.6 1.8 3.9-.4 2.5-1.6 6.4-2.7 8.6-2.6 5.1-2.6 5.4 1 4.7 1.6-.4 3.2-.2 3.5.2.3.6 1.9.6 3.8.1 1.7-.5 6.9-.8 11.5-.7 4.6.2 8.6-.1 8.8-.5.3-.4 1.1-.8 1.7-.8.7.1-.3 1.4-2.2 3-1.8 1.5-3 3.3-2.7 3.8.3.6 2.9 1.5 5.6 2.2 4.6 1.1 4.9 1.3 3.3 2.6-1.6 1.2-1.6 1.5-.3 2.3.8.6 4 1.3 7 1.7 5.2.7 5.3.8 2.5 1.6-1.6.5-3.6 1.2-4.4 1.4-1.9.6.3 3 3.5 3.8 1.3.4 3.4 1.6 4.5 2.7l2.1 2.1-3.1-.7c-3.7-.8-7.1.1-7.1 2 0 .7 1.5 2.5 3.3 4l3.2 2.6-3.5-.6-3.5-.6 2.8 1.6c3.5 2 3.4 2.6-.3 1.5-1.6-.5-3-.5-3 0 0 .4 1.2 1.1 2.8 1.5 2 .5 2.3.9 1.2 1.4-3.1 1.3-1.5 3.6 4 5.5l5.5 2-3.5.8c-3.3.7-4.2.6-9-.8-1.5-.4-1.8-.2-1.4 1s0 1.6-1.7 1.7c-2 .1-1.8.3.9 1 9.8 2.7 10 2.9 3.4 2.6-4.7-.3-6.2 0-5.8.9.3.7 0 1.5-.7 1.7-.8.3-.5 1 .8 2.1 2.6 2 .1 2.1-3.5.1-3.9-2.2-5.4-1.9-3.6.7 2.9 4.1 1.8 5.2-1.9 1.9-2-1.8-4.7-3.1-6.2-3.1-2.3 0-2.5.3-1.9 3 .3 1.6.1 3-.3 3-.5 0-1.2 1.4-1.6 3-.4 1.7-1.1 2.8-1.5 2.5-.5-.3-.7-1.1-.4-1.9.3-.7.1-2.4-.5-3.8-.7-1.9-2.6-3.1-8.2-5.1-7.8-2.8-9.4-2.4-8.2 2 1.8 7.5-6.4 14.6-11.1 9.4-.9-1-2.2-5-2.8-8.7-.5-3.8-1.4-7.6-1.8-8.5-1.2-2.1-7.4-5.3-9.2-4.7-.8.4-2.5 4.3-3.8 9-2.6 9.3-3.4 10.8-6.1 10.8-2.6 0-5.1-4.2-5.6-9.4-.4-3.2-.9-4.3-1.9-3.9-.7.2-2.5-.7-3.9-2.1-1.7-1.7-2.5-2-2.5-1.1q0 3.45-6.9-1.5c-4.2-3.1-6.1-3.2-6.1-.4 0 1.6-.9 1.8-2.9.5-1-.7-1.1-1.3-.2-3 .7-1.1.9-2.2.6-2.2-.3-.1-1-.2-1.6-.3-1.6-.2-3.9-3.7-3.9-6.2 0-2.4 2.3-3.4 7.7-3.4 2.7 0 3.3-.5 4.3-3.4 1.3-4 7-9.5 11.8-11.5 1.7-.7 3.2-2.1 3.2-3s.6-2.8 1.4-4.3c1.8-3.5 0-9.3-3.8-12.1-1.8-1.3-2.6-2.8-2.6-5-.1-1.8-.7-4.3-1.5-5.7-2-3.5-1.8-6.7.5-10.5 1.7-2.8 1.9-4.1 1.1-9.9-.4-3.7-1.2-7.1-1.8-7.4-.6-.4-1.3-1.7-1.7-2.9-.8-2.4-3.3-2.5-10.6-.3-4.3 1.2-5.3 1.3-4.5.1.3-.5-.2-1.7-1.1-2.5-1.4-1.5-1.1-1.8 3.3-3.7 2.6-1.2 5.8-2.5 7.1-3 2.7-1.1 2.8-2.6.2-3.4-1.1-.3-2.5-1.5-3-2.6-1.3-2.4-.9-2.4 3.5.2l3.6 2.2 3.9-4c2.1-2.2 4.7-5.8 5.9-8 4.2-8.4 11.2-12 17.4-9.2"/><path d="M311.1 187.1c-2.5 2-2.3 3.6.3 2.6 1.6-.6 4.2-4.7 2.9-4.7-.4.1-1.9 1-3.2 2.1m80.5 19.8c-.7 1 1.7 2.1 4.2 2.1 1.5-.1 1.4-.3-.2-1.5-2.3-1.7-3.3-1.9-4-.6"/></svg>