<svg xmlns="http://www.w3.org/2000/svg" width="682.667" height="512" version="1.0" viewBox="0 0 512 384"><path d="M0 152v152h23.7l.6-8.3c1-12.4.8-21.5-.4-23.6-1-1.4-.6-3 2.2-8.2 3.2-6.1 3.6-6.4 7.7-7 2.3-.3 4.8-1.1 5.4-1.7.7-.7 1.9-1.2 2.9-1.2 1.3 0 1.8-1.4 2.3-6.2.4-3.7.2-6.6-.4-7.2-2-2-1-4.4 2.3-5.6 1.7-.6 3.9-1.5 4.7-1.9 2-1 2.5-5.8.9-7.8-1.1-1.2-1-1.7.4-2.4.9-.6 1.7-1.7 1.7-2.4 0-2.5 2.4-1.7 3.8 1.2.8 1.8.9 3 .2 3.7-1.5 1.5-1.2 5.8.5 8.2.8 1.2 2.7 2.4 4.3 2.7l3 .6-.5 8.8-.5 8.8 4.1 1.7c2.3 1 5.2 1.8 6.5 1.8 2.9 0 3.7 1 6.6 8.4 1.9 4.7 2.1 6.2 1.2 7.7-.8 1.2-1.2 6.8-1.2 15.4V303h6.5l.2-9.9.2-9.8 5.7-9.2c3.1-5.1 6-8.9 6.4-8.4.5.4 3.1 4.8 5.9 9.8 4.8 8.5 5.1 9.3 5.1 16.2 0 5.2.4 7.3 1.3 7.3.6 0 15.2.7 32.2 1.5 17.1.8 32.3 1.5 33.9 1.5 2.1 0 4.6 1.7 10.2 7.2 4.1 3.9 7.6 6.9 7.8 6.7.4-.4.8-19.7.8-33.9-.1-6.2.2-6.9 4.7-13.5 2.7-3.8 5.3-7.1 5.9-7.3.5-.1 3.1 3.1 5.7 7.3l4.7 7.6-.7 53.9-.7 54H512V0H0zm336.4-70.5c3.2 2.2 5.4 7.4 3.6 8.5-1.1.7-1 1.9.5 6.9 1 3.4 2.3 6.5 2.9 7s5.4 1.7 10.6 2.6c12.2 2.1 13.1 2.9 8.4 7.7-2.2 2.4-4.1 3.5-5.1 3.1-1.3-.5-1.3-.3.1 2 1 1.4 2.4 2.8 3.2 3.1 2.6 1 1.4 2.4-2.6 3.1-4.3.7-5.8 1.9-3.8 3.1.9.6.5 1-1.2 1.4-1.4.4-2.4 1.3-2.4 2.2.1 1-.6 1.4-2.2 1.2-1.3-.1-2.4-.2-2.5-.1 0 .1-.4 3.9-.7 8.3l-.7 8.2 2.7-2c4.1-2.8 17.7-9 18.7-8.4 1.4.9-.7 9.6-3.3 14.1l-2.5 4.2 7.7-.2c4.2-.1 8.7-.5 9.9-.9s2.4-.2 2.8.4c.6.9 4.9.7 11.3-.6 3.1-.6 2.7.8-.8 2.9-4 2.4-3.8 3.4 1.3 4.7 7.2 1.9 7.2 1.9 5.1 3.5-1.8 1.3-1.8 1.4.9 2.4 1.5.6 4.5 1.2 6.7 1.3 2.2.2 4 .6 4 .9s-1.8 1.1-4.1 1.8c-3.8 1.1-4 1.3-2.2 2.6 1 .8 2.6 1.5 3.5 1.5s2.9 1.1 4.4 2.5l2.8 2.6-4-.6c-2.1-.3-4.6-.1-5.4.4-1.2.8-1 1.5 1.5 4.1l2.9 3h-2.5c-2.1.1-2.2.2-.6 1.1 2.1 1.2 2.2 2.3.1 4.4-2.4 2.3-1.1 4 4 5.5 5 1.4 7.9 3.8 3.2 2.6-1.7-.4-2.6-.2-2.6.5s-.9.9-2.2.5c-6.9-1.9-6.9-1.9-6.1 0 .5 1.3.3 1.6-1 1.1-.9-.3-1.7-.2-1.7.3s2 1.2 4.5 1.6c6.9 1 7 2.8.1 2.1-4.8-.5-5.7-.3-5.2.9.3.9-.1 1.4-1.2 1.4-1.6.1-1.6.1.1 1.1 3.2 1.9 1.7 2.9-1.9 1.4-5.2-2.2-5.6-1.9-3.3 2 2.6 4.3 1.7 4.4-2.8.5-2.1-1.9-4.5-3-6.3-3-2.8 0-2.9.2-2 2.6q1.8 4.5.3 3c-.4-.4-1.3 1-1.9 3.1-1.1 3.5-1.2 3.6-1.3 1-.1-1.6-.5-2.6-1.1-2.2-.6.3-1-.5-1-1.9 0-2-.8-2.7-4.7-4.1-2.7-.9-5.8-2.1-7.1-2.6-3.4-1.3-4.2-.3-3.6 4.4.8 5.6-2.2 9.7-7.1 9.7-4.3 0-5.1-1.2-6.6-9.5-1.5-8.8-2.5-11.5-4.3-11.5-.7 0-1.9-.7-2.6-1.5-.7-.9-2.2-1.5-3.3-1.3-1.6.2-2.6 2.2-4.7 9.7-1.5 5.4-3.4 9.9-4.3 10.5-2.7 1.7-6.8-3.1-7.4-8.7-.5-4-.9-4.6-3.4-5.1-2.2-.4-2.9-1.2-3.4-3.9-.5-2.8-1.1-3.4-2.6-3-1.8.5-1.8.6.2 3.4 1.4 2 1.7 3.4 1.1 4.4-.7 1.3-1.3.9-3.6-2.5-1.5-2.2-3.1-3.8-3.5-3.5-.5.2-1.4-.2-2.1-1-1.7-2-2.7-1.9-3.3.5-.3 1.1-1.3 2-2.2 2-1.4 0-1.6-.6-1.2-2.9.5-2.3.2-3-1.7-3.9-1.3-.6-2.7-2.3-3-3.8-1-3.8 1.5-5.6 7.2-5.2 4.2.2 4.4.1 6.1-3.7 1.8-4 5.4-7.8 10-10.6 1.3-.8 3.1-3.5 4-5.9 2.2-5.8.8-11.5-3.2-13.7-1.8-.9-2.7-2.2-2.7-3.7 0-1.3-.7-4.6-1.6-7.4-1.6-4.9-1.6-5.2.6-9.7 1.9-3.9 2.1-5.6 1.6-10.3-.4-3.1-1.3-6.3-2-7.2-.7-.8-1.6-2.3-1.9-3.2-.7-1.8-5.2-1.8-11.7.2-1.9.5-3.5 1-3.6 1s0-1.1.2-2.5c.2-2.2-.1-2.5-1.9-2-1.8.4 8-4.9 12.7-6.9.6-.3-.2-1.6-1.9-3-3.5-3-2.8-4.5 1-2 2.2 1.4 2.9 1.5 5 .4 1.4-.7 2.5-2.1 2.5-3.1s.9-2.1 2-2.4c1.1-.4 2.9-2.4 4-4.5 3.3-6.5 7.6-10 12.1-10 2.2 0 5 .7 6.3 1.5"/><path d="M384.8 159.7c.7.3 1.6.2 1.9-.1.4-.3-.2-.6-1.3-.5-1.1 0-1.4.3-.6.6m-74.3 28.8c-2.7 2.2-2.8 2.4-.9 2.5 1.2 0 2.9-1.1 3.8-2.5 2.1-3.2.9-3.2-2.9 0M402 193c.8.5 2.2.9 3 .9 1 0 .8-.3-.5-.9-2.7-1.2-4.3-1.2-2.5 0m-14 14.9c0 1 4.6 3.1 6.7 3.1 2.5 0 .3-1.9-3.5-2.9-1.8-.5-3.2-.6-3.2-.2"/></svg>