<svg xmlns="http://www.w3.org/2000/svg" width="682.667" height="512" version="1.0" viewBox="0 0 512 384"><path d="M0 152v152h23.7l.7-4.6c1.1-8 .7-27.2-.5-27.6-.7-.2.2-3.1 2.5-7.6l3.6-7.1 5-.7c2.7-.4 5-1 5-1.5s.7-.9 1.5-.9c.9 0 2-1.2 2.5-2.6 1.4-3.5 1.3-10.7-.1-12.1-1.9-1.9-.3-4 3.8-5.3 2.1-.7 4.4-1.7 5.1-2.3 1.4-1.1 1.6-6.7.2-6.7-.5 0-1-.7-1-1.5s.4-1.5.9-1.5 1.1-.9 1.4-2c.7-2.6 2.7-2.6 3.4 0 .3 1.1.9 2 1.4 2s.9.7.9 1.5-.4 1.5-1 1.5c-1.3 0-1.3 5.6 0 7.9.5 1 2.6 2.2 4.6 2.5 3.5.7 3.6.8 2.8 3.9-.4 1.8-.8 5.6-.8 8.6-.1 5 .1 5.5 2.9 7.1 1.7.9 4.6 2 6.7 2.4 4.3.8 4.8 1.3 7.8 9 1.9 4.7 2.1 6.2 1.2 7.7-.8 1.2-1.2 6.8-1.2 15.4V303h3.5c4 0 3.8.6 3.5-11.5l-.1-8 5.8-9.3c3.2-5 6.1-9.2 6.5-9.2.3 0 2.9 3.9 5.7 8.8 4.9 8.4 5.1 9 5.1 16.4 0 6.4.3 7.8 1.7 8.2 1 .3 17.1 1.3 35.8 2.1l34 1.6 7.2 7.1c4 4 7.6 6.8 8 6.4s.7-9.7.5-20.7l-.3-19.9 5.2-7.5c2.8-4.1 5.4-7.5 5.8-7.5.3 0 2.8 3.4 5.5 7.6l4.8 7.6-.7 54.4-.7 54.4H512V0H0zm336.5-66.4c3 3.3 3.9 5.9 2.7 8.1-1.2 2 1.2 11.2 3.4 12.9.8.7 5.5 1.9 10.4 2.9s9.7 2.3 10.7 3c1.6 1.2 1.5 1.5-1.2 4.6-1.5 1.9-2.9 3.3-3.1 3.2s-1 0-1.7.3c-2 .7-1.6 3.6.7 5.5 2.5 2.1 1.8 3-2.3 3.1-3.5.1-5.1 1.6-3.1 2.8 1.6 1-.5 2.4-2.4 1.7-1.5-.6-1.6 1-.2 3.2.7 1 .4 1.2-1.3.6-1.4-.4-2.1-.2-2.1.7q-.15 1.2-1.5-.6c-1.4-1.8-1.5-1.3-1.5 5.1 0 3.9-.3 7.9-.7 8.9-.6 1.5-.2 1.5 2.5-.4 3.2-2.4 14-7.5 18.1-8.7 2.4-.7 2.4-.6 1.7 4.1-.3 2.6-1.7 6.6-3.1 9-1.8 3-2.1 4.3-1.2 4.7 1.8.7 28.2 0 30.9-.8 1.7-.5 1.3.1-1.4 2.1-2.1 1.5-3.8 3.1-3.8 3.5 0 .5 2.6 1.6 5.7 2.5 5.1 1.5 5.5 1.8 3.8 3-1.7 1.3-1.6 1.4 1.1 2.4 1.6.7 4.8 1.2 7.2 1.3 3.6.2 4 .4 2.5 1.4-.9.7-2.7 1.3-3.9 1.3-1.3 0-2.5.4-2.9.9-.7 1.2 2.6 3.1 5.4 3.1 1.2 0 2.1.7 2.1 1.5s.5 1.5 1 1.5c.6 0 1 .4 1 .8s-1.6.8-3.6.9c-5.3.2-6 1.6-2.5 4.6 3.3 2.8 4 4.3 1.6 3.3-1.8-.7-2 .5-.3 2.2 1.5 1.5.3 1.6-2.4.1-1.1-.6-2.2-.8-2.5-.5s.7 1.1 2.3 1.7c2.3.9 2.5 1.3 1.2 1.6-3.9.9-.2 4.5 5.9 5.8 1.8.4 3.5 1 3.8 1.5.8 1.3-7.1 2.1-10 1-3.7-1.4-4.5-1.3-3.8.7.4 1 .2 1.4-.5.9-.6-.3-1.3-.2-1.7.3-.3.6 1.6 1.3 4.5 1.7 7.4 1 7.8 2.9.4 2.1-5.7-.6-5.9-.5-6 1.8-.1 1.4.2 2.5.7 2.5s.9.5.9 1c0 .6-1.5.4-3.6-.5-5.7-2.4-6.8-2-4.3 1.5 3.1 4.1 2 4.6-2.2 1-4-3.5-8.9-4.1-8.9-1.1 0 1.1.5 2.3 1.1 2.7.8.5.6 1-.5 1.6-.9.5-1.6 1.8-1.6 2.8s-.5 2.2-1.1 2.6c-.9.5-1-.1-.5-2 .4-1.7.3-2.5-.3-2.2-.5.4-1.1-.4-1.3-1.6-.2-1.8-1.8-2.9-7.2-5-3.7-1.5-7.2-2.5-7.7-2.2s-.7 2-.3 3.9c1.2 6.4-3.9 11.8-9.5 10-2.2-.7-3.2-3.4-5.1-13.7-1-4.9-1.6-6-4.6-7.8-1.8-1.2-4.1-2-5.1-1.8-1.7.3-1.8.6-5.3 12.5-1.8 6.3-2.4 7.3-4.4 7.3-3.3 0-5.8-3.2-6.3-8.3-.4-3.6-1-4.5-3.3-5.4-2.2-.8-2.8-1.8-3.4-5.4-.6-3.7-.9-4.1-1.8-2.5-.7 1.3-.7 2.5.3 4.2.9 1.7.9 2.8.2 3.5s-2-.1-4.1-2.5c-1.6-1.9-3.3-3.2-3.6-2.9s-.8-.2-1.2-1.1c-.9-2.2-3.4-2-3.4.3 0 2.6-1.7 3.6-3.5 2.1-1.1-.9-1.2-1.7-.4-3.2 1.2-2.2 1.2-2.1-1.8-3.7-1.6-.8-2.3-2.1-2.3-4.2 0-3.2 2.7-4.9 7.9-4.9 2.2 0 3.1-.7 4.1-3 1.4-3.3 8.7-10.4 11.6-11.4 2.5-.8 5.6-9.3 4.3-11.7-.5-1-.9-2.6-.9-3.6s-1.4-2.6-3-3.5c-2.3-1.3-3-2.4-3-4.6 0-1.6-.6-4.7-1.4-6.9-1.2-3.4-1.2-4.4.2-7.9 2.3-5.5 1.9-15-.8-20.1-2-4-2.1-4.1-5.8-3.1-5.9 1.4-11.8 2.1-11 1.3.4-.4.3-1.6-.3-2.7-.9-1.6-.3-2.2 4.8-4.4 3.2-1.4 6-2.8 6.3-3.1s-.8-1.5-2.5-2.8c-3.6-3-2.8-4.2 1.4-2 2.9 1.5 3.3 1.4 7-.7 2.8-1.6 4.6-3.7 6.1-7.1 1.2-2.6 3.7-6.3 5.5-8.2 2.8-3 3.9-3.5 7.9-3.5 3.8 0 5.2.5 7.1 2.6M124 187c0 .5-.5 1-1.1 1-.5 0-.7-.5-.4-1 .3-.6.8-1 1.1-1 .2 0 .4.4.4 1"/><path d="M309.5 190.5c-2.9 2.5-2.9 2.5-.6 2.3 1.3-.2 3-1.3 3.9-2.6 1.9-2.9.4-2.8-3.3.3m79.5 21.4c0 1 2.4 2.1 4.7 2.1 1.3 0 1.3-.3.3-1.5-1.3-1.6-5-2.1-5-.6"/></svg>