<svg xmlns="http://www.w3.org/2000/svg" width="682.667" height="512" version="1.0" viewBox="0 0 512 384"><path d="M0 152v152h23.7l.7-3.7c1.1-6.7.7-28.1-.5-28.5-1.5-.5 5.5-14.3 7.6-15.2.9-.3 2.9-.6 4.3-.7 1.5 0 4.1-.8 5.7-1.8 3-1.8 3-1.9 2.9-10.4l-.1-8.6 3.1-1.1c1.7-.7 3.8-1.5 4.6-1.9 1.7-.9 2.7-7.1 1.1-7.1-.6 0-1.1-.7-1.1-1.5s.4-1.5.9-1.5 1.3-.9 1.6-2 1.2-2 1.8-2c1.6 0 4.1 5.4 2.7 5.8-1.5.5-1.2 6.5.5 8.9.8 1.2 2.8 2.4 4.4 2.8l2.8.6-.4 8.7-.5 8.7 3.3 1.7c1.9.9 5 1.9 7.1 2.2 2 .4 3.8 1.2 4.1 1.9 4.4 10.2 5.4 13.6 4.3 14.7-.7.7-1.2 6.4-1.4 15.1l-.4 14 3.8-.3 3.8-.3.1-9.5c0-6 .6-10.4 1.4-12 2.9-5.3 10.2-16 10.9-16 .4 0 3.1 4.1 6 9.1 5 8.7 5.2 9.3 5.2 16.5 0 5.1.4 7.6 1.3 7.9.6.2 12.5.9 26.2 1.5 13.8.5 29.3 1.3 34.5 1.6l9.5.6 7.8 7.6 7.8 7.6-.2-21.2-.3-21.2 4.8-7c2.7-3.9 5.2-7.3 5.7-7.5.4-.3 3.1 2.8 5.9 6.9l5 7.5-.7 54.6-.6 54.5H512V0H0zm336-65.1c2.6 2.5 2.9 3.6 2.8 8.3-.1 3.6.5 6.8 1.8 9.4 1.9 3.9 1.9 3.9 12.4 6.2 5.8 1.3 10.9 2.7 11.4 3.2 1.4 1.4-3.2 6.4-7.1 7.6l-3.6 1 3.4 3.5 3.5 3.4-4 1c-3.2.8-4 1.4-3.8 2.9.3 1.6-.1 1.7-2.4 1.2-2.4-.6-2.6-.5-1.5.8.8.9 1 1.6.6 1.6-.5 0 0 1 1.1 2.2l1.9 2.2-2.7-1.7c-1.8-1.1-2.8-1.3-2.8-.6 0 .8-.4.8-1.5-.1-1.3-1.1-1.5-.4-1.5 5.7 0 4-.5 7.4-1.2 8.1-2.1 2.1 0 1.3 4.5-1.8 5-3.3 12.3-6.7 15.8-7.2 2.2-.3 2.4 0 2.1 3.2-.2 1.9-1.4 5.9-2.8 8.9-2.6 5.7-1.9 8 1.6 6.1 1.1-.6 2.1-.5 2.8.2.8.8 1.9.8 3.9 0 1.6-.7 6.2-1 10.8-.8 4.4.2 8.9 0 10-.5 1.1-.6.5.3-1.4 2-1.8 1.6-3 3.4-2.7 3.9.3.6 2.9 1.6 5.8 2.2 4.7 1.2 5 1.4 3.2 2.7-2.5 1.8-.8 2.9 5.8 3.8 4.4.6 5.9 2.5 2 2.5-.9 0-2.4.5-3.2 1-1.3.9-1.3 1.1 0 2 .8.5 2.5 1 3.6 1 1.2 0 2.9 1.1 3.7 2.4l1.6 2.4-3.8-.5c-3.1-.4-3.9-.2-4.5 1.3-.6 1.4.1 2.6 2.6 4.8 1.8 1.6 2.7 2.6 2.1 2.2-2-1.1-3.6.3-2.2 2 .8 1 .8 1.4.1 1.4-.6 0-.9.7-.6 1.5.4.8.1 1.5-.5 1.5s-1.1.5-1.1 1c0 1 .9 1.5 7.8 4 3.8 1.5 4.3 2.9.7 2.2-1.4-.2-2.5 0-2.5.6 0 .7-1.4.6-4.1-.3-5.1-1.8-5.2-1.8-4.5 0 .3.8 0 1.5-.7 1.5-2.5 0 1.9 2 4.5 2 1.5 0 3 .4 3.3 1 .4.6-1.5 1-5 1-3.2 0-5.4.4-5 .9.3.5 0 1.3-.5 1.6-.7.5-.5 1.2.7 2.2 1.7 1.3 1.6 1.4-.7.8-7.7-2-7.4-2.1-5.5 1.5.9 1.7 1.5 3.4 1.3 3.6s-2.1-1.2-4.3-3.1c-4.6-4.1-8.5-4.7-8.5-1.2 0 1.3.6 2.9 1.3 3.6 1 1 .9 1.1-.4.6-1.2-.5-1.8.2-2.4 2.7l-.8 3.3-.7-3c-.4-1.7-.9-2.6-1-2-.1.5-.5-.1-.9-1.5-.5-1.9-2.2-3.1-7.1-5.2-3.6-1.4-6.8-2.7-7.2-2.7-.5-.1-.8 2.2-.8 5.1 0 5.8-2.7 9.8-6.5 9.8-4 0-5.4-2.2-7.1-11.2-1.5-8.2-1.8-8.8-5.1-10.8-5.7-3.3-6.6-2.8-8.7 4.7-3.2 11.4-4.2 13.3-7 13.3-3 0-5.6-4.2-5.6-9.2 0-2.7-.6-3.6-3.3-4.8-2.5-1.2-3.3-2.2-3.5-4.8-.2-1.8-.8-3-1.3-2.7-.5.4-.6 2.5-.3 4.8l.7 4.2-3.7-3.4c-2-1.9-3.6-3.1-3.6-2.6s-.7-.1-1.6-1.3c-1.9-2.7-3.4-2.8-3.4-.3 0 2.6-1.7 3.6-3.5 2.1-1.1-.9-1.2-1.7-.4-3.1 1.1-2.2.4-3.9-1.7-3.9-1.1 0-3.4-3.6-3.4-5.5 0-1.6 3.8-3.5 7.1-3.5 3.5 0 4.1-.4 5.8-3.8 2.2-4.2 4.7-6.8 9.8-9.7 7-4 7.9-15.5 1.4-20.2-2.2-1.7-2.7-2.8-2.4-4.7.3-1.3-.2-3.9-1.1-5.7-2-4-2-5.6.1-9.4 2.2-4.1 1.8-13.7-.9-19.1l-2-4.1-6.5 1.4c-3.6.7-6.9 1.6-7.5 1.9-.5.3-.9 0-.7-.7.4-3-.1-4.1-1.7-3.5-.8.3-1.3.2-1-.3s3.5-2.1 7.1-3.7c6.9-3 7.7-3.9 4.6-4.9-2.2-.7-4.6-3.3-3.8-4.1.3-.3 1.9.2 3.7 1.1 3 1.5 3.4 1.5 7.1-.3 3.1-1.5 4.6-3.3 7-8 3.9-7.9 7.8-11.2 13.1-11.2 3 0 4.6.7 6.8 2.9M496 103c0 .5-.5 1-1.1 1-.5 0-.7-.5-.4-1 .3-.6.8-1 1.1-1 .2 0 .4.4.4 1m-372 84c0 .5-.5 1-1.1 1-.5 0-.7-.5-.4-1 .3-.6.8-1 1.1-1 .2 0 .4.4.4 1"/><path d="M309.8 190.8c-3.2 2-3.6 3.2-.9 3.2 1 0 2.6-1.1 3.5-2.5 1.9-2.9 1.3-3-2.6-.7m90 6.9c.7.3 1.6.2 1.9-.1.4-.3-.2-.6-1.3-.5-1.1 0-1.4.3-.6.6M388 212.9c0 1 2.5 2.1 4.8 2.1 1.5-.1 1.4-.3-.2-1.5-2.2-1.7-4.6-2-4.6-.6"/></svg>