<svg xmlns="http://www.w3.org/2000/svg" width="682.667" height="512" version="1.0" viewBox="0 0 512 384"><path d="M0 152v152h23.8l.5-3.3c1.1-6.2 1.1-27.6-.1-28.9-.8-1-.1-3.1 2.6-8.3 3.5-6.6 3.9-7 7.7-7.5 2.2-.3 5.5-1.3 7.4-2.3l3.3-1.9-.3-8.5-.4-8.5 4.5-1.7c4.4-1.6 4.5-1.8 4.6-6.1.1-5.2 2-10.4 3.4-9.5.5.3 1 1.3 1 2.1s.5 1.4 1 1.4c.6 0 1 .7 1 1.5s-.4 1.5-1 1.5c-1.4 0-1.2 6.2.3 8.1.7 1 2.9 2.4 5 3.2q5.55 2.4 2.7 4.2c-.5.3-1 3.6-1 7.3l.1 6.7 3.8 1.7c2 1 4.6 1.8 5.7 1.8s2.8.6 3.7 1.3c2.2 1.6 7 13.9 5.7 14.7-.5.3-1.2 7.2-1.6 15.3l-.7 14.8 4.4-.3 4.4-.3-.3-9.6-.4-9.5 5.7-9c3-4.9 6.1-8.9 6.8-8.9.6 0 3.5 4 6.4 9 4.9 8.5 5.2 9.4 5.3 16.2 0 6.7.2 7.3 2.3 7.8 1.2.2 17 1.2 35 2l32.9 1.5 7.6 6.9 7.7 7 .8-3.7c.5-2 .6-11.1.2-20.1l-.6-16.3 5.2-7.9c2.8-4.4 5.5-7.9 5.9-7.9s3 3.5 5.8 7.7l5.1 7.8-.5 45.5c-.2 25-.6 49.4-.9 54.3l-.4 8.7H512V0H0zm336-63.3c2.8 3.1 3.1 4.1 2.6 7.3-.3 2.3 0 5.5 1 8.3 1.7 5.1 1 4.7 16.7 8.6 4.3 1.1 8.1 2.2 8.4 2.4.3.3-.6 1.9-1.8 3.6-1.6 2.2-3.4 3.3-6.1 3.8-3.6.5-3.7.7-2.3 2.3.8.9 1.5 2.2 1.5 2.8 0 .7.4 1.2 1 1.2.5 0 1.4 1 2.1 2.1 1 2 .9 2.1-1.6 1.5-1.6-.4-2.4-.3-2.1.3.4.5-.3.7-1.5.4-1.8-.5-2-.3-1.4 1.7s.4 2.2-1.7 1.8c-2.5-.5-3.1 1.2-1.4 4.1.7 1 .4 1.1-1.3.2-1.6-.9-2.1-.9-2.1 0 0 .8-.5.7-1.7-.2-1.5-1.3-1.6-.9-.9 4.9.5 4.6.4 6.8-.6 7.9-.7.9 1 .2 3.7-1.5 5.4-3.3 14.6-7.2 17-7.2s1.8 6-1 11.6c-1.4 2.7-2.3 5.4-2 6.1.5 1.4 5 1.4 11.8.1 3.3-.7 5.1-.7 6.1.1.7.6 1.5.9 1.7.7s3.1-.6 6.4-1l6-.6-3.4 2.9c-3.3 2.7-3.3 2.9-1.5 3.9 1.1.6 3.6 1.3 5.7 1.7 4.5.9 5.5 2.1 2.5 2.9-3.7.9-.8 2.6 5.5 3.3 6 .6 6.6 1.7 1.6 2.8-3.6.8-3.3 2.7.7 3.9 1.6.5 3.7 1.9 4.6 3.1l1.7 2.3-4-.5c-5.7-.8-6.8 1.3-2.6 4.9 3.2 2.7 3.2 2.7.8 2.8-2.4 0-2.4 0-.5 1.6 1.8 1.5 1.7 1.5-1.4 1-2-.4-3.1-.2-2.7.4.3.6 1.5 1 2.6 1 2 0 2.6 1.5.9 2.5-2 1.2-.9 2.4 4 4 2.8.9 5 2.1 5 2.7s-.9.8-2 .5c-1-.3-2.1 0-2.3.6-.2.7-1.9.5-4.9-.6-4.1-1.4-4.6-1.4-4.1 0 .3.8 0 1.9-.8 2.4-1 .6-.5.9 1.6 1 1.7 0 4.1.5 5.5.9 1.9.7 1.3.9-3 .9-7.5-.1-7.4-.1-6 1.6 1 1.2 1 1.5 0 1.5-.9 0-1 .3-.1 1.3 1.6 2.1.1 2.8-2.3 1.2-2.6-1.9-6.3-2.1-4.8-.3.5.7 1.3 2.4 1.7 3.8.7 2.3.4 2.2-3.2-1.3-2.1-2-4.8-3.7-6-3.7-2.4 0-3.9 2.8-2.3 4.4 1.2 1.2 1.3 2.9.1 2.2-.5-.4-1.2.7-1.6 2.4-1 4.7-2.9 5-2.1.4.5-2.8.4-3.5-.3-2.4-.9 1.2-1.1 1.1-1.1-.6 0-2-1.4-2.9-10.8-6.5-3.8-1.5-4.2-1.1-4.2 3.5 0 5.5-3 9.6-6.9 9.6-4.1 0-5.7-2.6-7.1-10.9-1-6.2-1.7-7.9-4.3-10.3-1.7-1.5-4.1-2.8-5.4-2.8-1.8 0-2.4 1-3.8 5.7-.9 3.2-2.1 7.5-2.7 9.6-1.5 5.2-3.2 6.3-6.2 4.4-2.7-1.8-5.1-7.8-4.3-10.8.4-1.5-.2-2.1-2.6-2.7-2.7-.7-3.3-1.4-3.5-4-.2-1.8-.8-3.2-1.3-3.2s-.7 1.7-.3 4c.4 2.2.3 4-.2 4s-2.9-2.1-5.5-4.6c-4.7-4.6-6.9-5-6.9-1.3 0 2.3-1.3 2.5-2.9.5-.9-1.1-.9-2-.2-3.4.8-1.6.6-2.1-1.4-3-2.9-1.3-4.3-5.6-2.5-7.7.7-.8 2.9-1.5 5-1.5 3.4 0 4-.5 6.8-4.9 2.2-3.6 4.4-5.7 8-7.5 4.2-2.1 5.1-3.2 6.4-7.1 2.1-6.2.7-12-3.3-14.1-2.2-1.1-2.9-2.2-2.9-4.4 0-1.6-.5-5-1.2-7.4-1-3.8-.9-5 .7-8.5 2.2-5 1.7-13.9-1.1-18.8-2.2-3.8-4.7-4.2-11.4-1.8-5.3 1.9-6.1 1.9-5.4 0 .4-.9-.2-1.8-1.6-2.3-1.9-.7-1.3-1.2 4.9-4.1 3.9-1.8 7.1-3.6 7.1-3.9 0-.4-1.5-1.5-3.3-2.6-3.8-2.2-2.1-3.4 2.4-1.6q2.85 1.2 4.2.3c.6-.6 2.4-1.3 3.8-1.6 2-.5 3.1-1.8 4.4-5.3 1-2.5 3.6-6.6 6-9 3.6-3.8 4.7-4.4 8.2-4.4s4.6.6 7.3 3.7M496 103c0 .5-.5 1-1.1 1-.5 0-.7-.5-.4-1 .3-.6.8-1 1.1-1 .2 0 .4.4.4 1"/><path d="M307.9 193c-2.3 1.9-2.3 1.9-.3 2 1.1 0 2.9-.9 3.9-2 1.5-1.7 1.6-2 .3-2-.9 0-2.6.9-3.9 2m80.6 22c.3.5 1.5 1 2.6 1s1.7-.5 1.4-1c-.3-.6-1.5-1-2.6-1s-1.7.4-1.4 1"/></svg>