<svg xmlns="http://www.w3.org/2000/svg" width="682.667" height="512" version="1.0" viewBox="0 0 512 384"><path d="M0 152v152h11.9c6.6 0 12.2-.4 12.6-.9.3-.6.8-7.5 1.2-15.5.4-10.9.3-14.9-.6-16-1-1.2-.7-2.8 2.1-8.3 3.2-6.4 3.6-6.9 7.8-7.8 2.5-.6 5.9-1.7 7.5-2.5 2.7-1.4 3-2 3.3-7.2.2-3.2-.1-6.6-.7-7.6-1.4-2.6.1-4.3 5.1-6.2 3.8-1.4 4.3-2 4.6-4.9.2-1.9-.2-3.7-.9-4.1-.9-.6-.9-1.1 0-2.1.6-.8 1.8-2.3 2.6-3.4l1.4-2 .7 2c.4 1.1 1.2 2.3 1.8 2.7.8.5.7 1.3-.1 2.8-2.9 4.6-1.3 8.6 4.3 11.1 4.2 1.7 5.6 4 3.4 5.4-.6.3-1 3.4-1 6.8 0 6 .1 6.3 3.3 8 1.7.9 5 2 7.1 2.5 3.8.7 4.1 1.1 7 8.1 2.2 5.4 2.6 7.5 1.7 8-.8.5-1.4 5.6-1.8 15.4l-.6 14.7h4.6c3.1 0 4.7-.4 4.7-1.3 0-.6.1-5.5.3-10.7l.2-9.5 5.7-8.8c3.2-4.8 6.1-8.7 6.5-8.7.5 0 3.2 4.3 6.1 9.4 5 9 5.2 9.7 5.2 16.9v7.6l4.3.5c2.3.3 18.3 1.2 35.6 2l31.4 1.5 7.3 7.2c4.1 4 7.7 6.9 8.1 6.5s.7-9.8.6-20.9l-.2-20.2 5.1-7.8c5.9-9 5.6-9 12.2 1.7l4.5 7.1-.9 49.5c-.5 27.2-.9 51.6-1 54.2v4.8h288V0H0zm333.8-60.8c2.7 3 4.4 7.6 3.6 10-.7 2.4 1.4 10.4 3.2 11.8.7.6 5.4 1.8 10.6 2.6 5.1.9 9.8 2 10.6 2.6 2.1 1.8-4 7.4-8.9 8.2-4.6.7-4.9 1.7-1.1 4.6 1.8 1.4 2.3 2.3 1.4 2.6-.8.4-.3 1.7 1.8 4.2 1.6 2 2.8 3.8 2.6 4s-1.8-.4-3.5-1.3c-3.1-1.5-3.1-1.5-4.3 1.2-.6 1.5-1 3.2-.9 3.7s-.5.4-1.3-.3c-1.1-1-1.9-.9-3.5.1-1.7 1-2.1 2.3-2.1 6.8 0 3.1-.5 6.1-1.2 6.8-2.2 2.2.2 1.2 4.3-1.7 4-2.9 17.5-8.8 18.3-8 1 1-1.6 10.6-3.9 14.5-1.4 2.3-2.5 4.5-2.5 4.8s7.5.5 16.6.3l16.6-.2-3.2 2.6-3.1 2.6 2.8 1.1c1.5.6 4 1.4 5.6 1.8 2.8.6 3.6 1.9 1.5 2.6-2.5.9.5 2.6 5.7 3.3 6.3.7 7.1 2 2 2.9-4.3.8-4.5 2.1-.5 3.4 1.6.6 4 2 5.2 3.1l2.2 2.1h-4.2c-5.3 0-6.1 1.5-2.6 5.1 2.3 2.4 2.5 2.9 1 2.9-1.6 0-1.7.2-.5 1.7 1.3 1.5 1 1.6-2.6 1l-4-.6 3.3 1.5c2.9 1.3 3.2 1.7 2.1 3-1 1.3-1 1.7.2 2.5.8.5 1.9.9 2.6.9 2 0 6.3 2.3 6.3 3.3 0 .5-.8.6-1.7.3-.9-.4-1.9-.2-2.3.4-.4.7-2 .5-4.9-.5-5.5-1.9-5.3-1.9-4 .9.8 1.6 2.3 2.6 4.5 3.1 2 .3 3.2 1 2.8 1.6-.5.9-3.7.6-8.5-.7-2-.6-3.3 3.4-1.7 5.3 1.4 1.7-.1 1.7-4.6-.2-2-.8-3.6-1.3-3.6-1.1 0 .3 1 2.2 2.2 4.3l2.2 3.8-4.2-3.8c-2.6-2.3-5.2-3.7-6.8-3.7-2.5 0-2.6.2-2.1 3.6.3 2 .3 3.3-.1 3-.3-.4-1.2.8-1.8 2.6l-1.2 3.3-.1-2.8c-.1-1.6-.5-2.6-1.1-2.2-.5.3-1-.3-1-1.5 0-1.6-1.5-2.8-6.6-5-3.6-1.7-7-3-7.4-3-.5 0-.6 1.5-.3 3.4.7 4.2-2.1 9.4-5.4 10.3-3.6.8-7.1-2.1-7.8-6.4-1.8-11.3-2.7-13.3-6.3-15.8-2-1.4-4.2-2.5-4.9-2.5-1 0-6.3 14.9-6.3 17.7 0 .6-.9 1.8-1.9 2.7-1.9 1.7-2.1 1.7-4.5-.7-1.7-1.7-2.7-4.1-3.2-7.4-.5-4.4-1-5.2-4-6.5-2.7-1.2-3.4-1.3-3.6-.2-.2.8-2.1-.4-5.1-3.1-5.4-5.1-6.2-5.4-7-2.4-.8 2.9-3.2 1.8-3.2-1.4-.1-1.7-1-3.4-2.4-4.3-1.6-1.2-2.1-2.4-1.9-4.7.3-3 .5-3.2 5.1-3.5 3.9-.3 4.9-.8 6.2-3 2.4-4.4 4.9-6.9 9.3-9.1 2.5-1.3 4.2-2.8 4.2-3.9 0-.9.6-2.9 1.4-4.4 1.9-3.6.1-9.8-3.7-12.8-2-1.6-2.7-3-2.7-5.5 0-1.9-.7-4.9-1.6-6.8-1.6-3.2-1.5-3.5 1.2-8.8 3.8-7.2 3.8-7 2.4-6.7-.7.2-1.3-1.1-1.4-3.3-.2-1.9-1.1-5.4-2.2-7.7-2.2-4.7-3.7-5.1-10.4-2.7-5.6 2-6 1.9-6-1.1q0-2.55-1.2-1.8c-1 .6-1 .4 0-.8.7-.9 3.9-2.6 7.2-3.8s6-2.6 6-3.1c0-.4-1.4-1.7-3-2.9-1.7-1.2-2.8-2.6-2.4-3.1.3-.5 1.8 0 3.4 1.1 1.5 1.1 3.1 2 3.6 2 1.3 0 6.8-6.3 10.3-11.8 1.8-2.9 4.5-6.1 5.9-7.2 3.5-2.8 9.3-2.6 12 .2"/><path d="M381 171c-.9.6-1 1-.3 1 .6 0 1.5-.5 1.8-1 .8-1.2.4-1.2-1.5 0m-71.9 25.9c-1.3 1-1.9 2.1-1.4 2.4 1 .7 5-2.9 4.2-3.7-.2-.3-1.5.3-2.8 1.3m77.4 23c-.6 1.1 3.3 2.6 4.3 1.6.4-.3 0-1-.8-1.5-1.9-1.2-2.7-1.2-3.5-.1"/></svg>