<svg xmlns="http://www.w3.org/2000/svg" width="682.667" height="512" version="1.0" viewBox="0 0 512 384"><path d="M140 1.2c.1 2.6 9 20.3 10.2 20.3.7 0 3.2 3.8 5.5 8.5l4.4 8.5-.3 14-.3 14H156c-2.9 0-3.6.4-3.8 2.3-.2 1.3.2 3 .8 3.7.7.9 1 2.8.6 4.7-.3 1.8-1 16.6-1.6 32.8-1 25.9-1.4 29.9-3 32.5l-1.9 3.1 2.9 1.1c1.7.6 3.8.9 4.8.6 2.3-.6 3.2 3.4 3.2 14.5 0 4.1.5 12.7 1.1 19.2l1.1 11.9-4.1 6.8c-5.5 9.4-8.8 19.8-10.2 32.8-.9 8.9-1.6 11.5-3.4 13.5-4.5 5-9.7 14.3-9.1 16.3.5 2.2-6.1 9.4-13.9 15.2-6.2 4.6-10.6 9.5-13.1 15-2.1 4.3-2.4 6.4-2.3 14.6.1 9.5.1 9.6-3.5 14.3-3.5 4.7-4.6 7.6-2.6 7.6 1.8 0 1 2-2.4 5.7-3.7 4.2-6.8 9.7-6 10.6.4.3-.4 2-1.6 3.7-1.7 2.4-2.1 4-1.7 6.6.5 3 .2 3.9-2.5 6.2-2.4 2.2-3 3.6-3.2 7.3-.1 2.7-1 5.7-2.3 7.4-1.1 1.7-2.4 4-2.7 5.2l-.7 2.3h341.9l.7-7.5c.4-4.1 1-8.7 1.4-10.2.7-2.5.9-2.3 1.9 2.7.6 3 1.3 7.6 1.7 10.2l.6 4.8H512v-10.5c0-8.5-.5-11.8-2.5-17.9-3.1-9.3-3.1-12.7 0-21.4 2.3-6.4 2.5-8.3 2.5-23.6 0-14.9-.2-16.7-1.7-17.4-2.4-.9-14.1-.9-23.8.1l-8 .8-4.8-16.8c-5.9-21.2-7.1-26.4-9.7-44.3-2.9-19.9-5.6-31.3-8.6-37.4-2.9-5.9-12.5-16-20.1-21.3-5.5-3.8-5.5-3.6-7.9-17.8-.3-1.7-1.2-5-1.9-7.5s-1.6-9-1.9-14.5l-.6-10 3.2 7.2c1.7 3.9 3.5 7 4 6.7.4-.3 2.1 2.4 3.8 6 1.6 3.7 3.1 6.6 3.2 6.6.2 0-2.1-7.3-5-16.3-4.9-14.9-14.7-52.5-13.9-53.3.2-.2 3.4 4.8 7.2 11.2s7.1 11.2 7.2 10.7c.2-.5-1.6-8.1-4-16.9-2.4-8.7-6.1-24.8-8.3-35.6-3.8-19.4-3.8-19.7-2.2-25 .9-2.9 1.9-6.9 2.2-8.9.5-2.9 1.2-3.8 3.3-4.4 1.4-.3 3.1-.1 3.6.4 1.5 1.5 5.3 1.4 7.7-.2 1.7-1 2.2-.9 3 .3.9 1.3 1.3 1.1 3-1 1.1-1.4 2-2.9 2-3.3 0-.5.9-2 2-3.4C449.4-.4 459.8 0 293.5 0 171.3 0 140 .3 140 1.2m20 29.4c1.1 4.8-.7 4.2-2-.7-.6-2.2-1.4-4.8-1.7-5.7-.3-1 .2-.7 1.2.7 1 1.2 2.1 3.8 2.5 5.7m33.7 54.7c1.4 2.9 4.6 8.3 7.1 12 5.1 7.7 5.1 8.3.7 23.5-1.3 4.6-2.2 8.9-1.9 9.7.7 1.7-1.3 8.4-3.1 10.5-2.4 2.7-5.6 12.3-4.5 13.4 1.7 1.7 1.1 3.4-2.5 7-1.9 1.9-3.7 4.7-4 6.3-.4 1.5-.9 3.4-1.3 4.2-.9 1.6-9 7.6-9.6 7s2.8-26.2 3.7-27.5c.9-1.5 5.6-2.4 6.3-1.3.3.5 1.2.9 2 .9 1.2 0 1.2-.6-.2-3.8-2-4.5-2.1-1.1.5-32.7 1.2-14.3 2.2-28.1 2.4-30.6.1-2.6.5-4.5 1-4.2.4.2 1.9 2.8 3.4 5.6m220.7 76.6c-.2.2-1.6-.1-3.1-.7s-4.1-1.6-5.6-2.2c-2.8-1-2.8-1-1.1-4.2 3.2-6.4 3.5-6.4 6.9.4 1.8 3.5 3.1 6.5 2.9 6.7"/></svg>