<svg xmlns="http://www.w3.org/2000/svg" width="682.667" height="512" version="1.0" viewBox="0 0 512 384"><path d="M0 152.1v152.1l12-.4c6.5-.1 12.4-.8 12.9-1.3 1.5-1.5 2.7-31.5 1.2-31.5-1.8 0-1.3-2.7 1.5-8.3 3.6-7.2 5.2-8.7 8.9-8.7 4.2 0 9.2-2.6 10-5.1.4-1.2.5-5.3.3-9.2l-.3-7.1 4.5-1.7c5.3-2 7.3-5.8 4.6-8.8-1.5-1.6-1.5-1.9-.1-3.1.8-.7 1.5-1.9 1.5-2.6 0-2.6 2.5-1.4 3.9 1.8 1.1 2.4 1.1 3.3.3 3.6-1.5.5-1.5 4.4-.1 7.5.7 1.6 2.5 2.9 5 3.6 2.8.9 3.9 1.7 3.9 3.1 0 1.1-.4 2-1 2s-1 3-1 6.9c0 6.9 0 6.9 3.3 8.2 1.7.7 5.2 1.7 7.6 2.3 4.3 1.1 4.4 1.3 7.2 8.5 2.1 5.6 2.6 7.7 1.7 8.2-.9.6-1.2 5.1-1.3 15.6v14.8l2.9.3c6.8.8 7.1.4 7.2-11.2l.1-10.5 5.6-8.8c3-4.8 6-8.9 6.5-9.1.6-.2 3.6 4.2 6.7 9.7 5.6 9.8 5.6 10.1 5.4 17.3-.2 5.6.1 7.4 1.2 7.6.8.1 16.8 1 35.5 2l34.2 1.8 7.8 7.3 7.9 7.4.8-5.4c.4-3 .5-12.4.1-21.1l-.6-15.6 5.1-7.5c2.8-4.2 5.5-7.8 6-8.1.4-.3 3.2 3.1 6 7.6l5.2 8.1-.7 54.8-.7 54.9H512V0H0zM120 31c0 .5-.5 1-1.1 1-.5 0-.7-.5-.4-1 .3-.6.8-1 1.1-1 .2 0 .4.4.4 1m204 45c0 .5-.4 1-1 1-.5 0-1-.5-1-1 0-.6.5-1 1-1 .6 0 1 .4 1 1m9.4 23.1c2.8 3.3 3.2 4.9 1.6 6.5-1 1 2 11.8 3.8 13.6.4.4 5.2 1.7 10.7 2.8s10.4 2.5 10.9 3c.6.6.2 1.8-1.3 3.4-1.3 1.4-2 2.9-1.6 3.6.4.6-.6 1.5-2.4 2.1-1.9.7-2.8 1.5-2.4 2.5s-.4 1.4-3.1 1.4c-2.5 0-3.6.4-3.6 1.5 0 .8.9 1.5 2 1.5 2.6 0 2.6 2.7-.1 3.5-1.5.5-1.8 1-1 1.8 1.8 1.8 1.3 3.6-.9 3-1.4-.4-2 0-2 1.1 0 1-.4 1.4-1 1.1-.5-.3-1 .3-1 1.5s-.4 1.8-1 1.5c-.6-.4-.8 1-.4 3.8s.2 4.7-.5 5.1c-.6.4-1.1 1.1-1.1 1.6s1.6-.2 3.6-1.5c3.8-2.6 12.3-6.8 16.2-7.9 2-.7 2.2-.4 2.2 2.8 0 2-1.5 6.2-3.5 10.2-2.6 4.9-3.2 7-2.3 7.5.6.4 4.4.5 8.2.3 3.9-.3 11-.6 15.9-.7 8.9-.2 9.3.1 3.8 3.2-2.2 1.3-.4 3 4.5 4.2 4.6 1.2 5.1 1.8 3.3 3.6-1.3 1.3-.4 1.6 8.1 3.2 4.4.8 4.2 1.3-1.2 2.5-3.8.9-3.5 2.3.6 3.4 2.8.8 7.6 4.3 7.6 5.6 0 .2-2 .1-4.3-.1-5.5-.6-7 1.6-3.2 4.6 2.9 2.2 3.1 3.1.8 3.1-1.5 0-1.4.2.3 1.6 1.8 1.4 1.6 1.5-2.1.9l-4-.6 3.5 2.2c2 1.3 3 2.4 2.3 2.6-2.5.9-1.2 2.2 4 4 4.6 1.5 4.9 1.8 2.4 2.1-1.5.2-2.5.8-2.2 1.3.8 1.2.5 1.2-4.5-.6-2.4-.8-4.4-1.4-4.6-1.2s-.1 1.3.3 2.5c.4 1.6 1.3 2.2 3.2 2.2 1.4 0 3.3.5 4.1 1.1 1.1.8-.2.9-4.7.6-5.9-.5-6.2-.4-5.3 1.4.9 1.5.8 1.7-.7 1.2-1.6-.6-1.6-.4.1 1.5 2.3 2.7.6 2.9-3.5.5-3.6-2.2-4.5-1.3-2.5 2.6 2.5 4.7 1.9 4.8-2.3.7-4.8-4.7-8.5-4.8-8.7-.1-.1 1.6-.7 4.3-1.4 6l-1.3 3-1-4.2c-.9-3.9-1.4-4.4-7.4-7.2-3.5-1.7-6.7-3.1-7.1-3.1s-.6 1.8-.4 4c.3 3.2-.1 4.3-2.3 6.5-5.1 4.6-10 2.3-11-5.3-1.3-8.9-2.4-11.6-6-14.5-2-1.6-4.2-2.6-5-2.3s-2.4 3.8-3.5 7.8c-3.4 11.7-4 12.8-6.5 12.8-3.4 0-5.9-3.5-6.1-8.8-.2-3.7-.6-4.7-2.3-5.4-1.2-.4-2.7-1.2-3.4-1.8-2.9-2.4-11.7-8-12.7-8-.5 0-1 .9-1 2.1 0 1.4-.5 1.9-1.7 1.7-1.4-.3-1.7-1.2-1.5-3.5.2-2.4-.2-3.3-1.7-3.8-2-.6-3.8-5.6-2.6-7.5.3-.5 3-1 6-1 5 0 5.5-.2 7.5-3.5 1.2-1.9 4.1-4.9 6.5-6.5 5.7-3.9 8-10.4 6.1-16.9-.8-2.7-2.1-4.7-3.7-5.4-1.9-1-2.4-2.1-2.5-5.3-.1-2.3-.7-5.1-1.3-6.2-1.6-3.1-1.3-6.1 1-9.3 1.7-2.4 1.9-3.8 1.4-8.1-.4-2.9-1.5-7.1-2.5-9.4-2.1-4.5-3.1-4.7-11.5-2.5-5 1.3-5.8 1.3-5 .2.3-.5-.2-1.7-1.1-2.6-1.5-1.4-1-1.8 5.6-4.8l7.1-3.1-3.3-2.9c-3-2.6-3.1-2.8-.8-2.2 5.7 1.6 8.4 1.1 9.8-1.8.7-1.5 1.7-2.7 2.2-2.7s1.9-1.7 2.9-3.9c1.1-2.1 3.4-5.3 5.1-7 2.7-2.6 3.9-3.1 8-3.1 4.2 0 5.2.4 7.4 3.1"/><path d="M306.7 201.6c-1.5.8-2.5 1.9-2.2 2.4 1 1.7 4.4 1.1 5.5-.9 1.9-3.6 1.1-3.9-3.3-1.5M308 215c0 .5.5 1 1 1 .6 0 1-.5 1-1 0-.6-.4-1-1-1-.5 0-1 .4-1 1m82.8 9.7c.7.3 1.6.2 1.9-.1.4-.3-.2-.6-1.3-.5-1.1 0-1.4.3-.6.6m-6.8 2.8c.7.8 2.4 1.5 3.9 1.5l2.6-.1-2.5-1.4c-3.5-2-5.7-2-4 0"/></svg>