<svg xmlns="http://www.w3.org/2000/svg" width="682.667" height="512" version="1.0" viewBox="0 0 512 384"><path d="M151 1c0 2 6.9 14.8 8.3 15.3.7.3 3.1 4 5.3 8.3l3.9 7.7-.1 14.5c-.2 12.7-.4 14.7-2 15.9-1.3.9-2.1 1-3.1.2-.9-.9-1.7-.8-2.8.1-1.2 1-1.3 1.6-.1 4.5.8 1.8 1.3 3.5 1.1 3.7-.3.2-1.2 14.5-2.1 31.8-1.4 27.1-1.9 32-3.5 34.8-2.3 4-2.4 4.6-.4 3.9.8-.4 1.7-.1 2.1.4.4.6 2 .8 4 .4l3.4-.6v8.3c0 8.6 2.6 34.3 3.6 35.9.3.5-.8 3.1-2.5 5.7-6 9.4-9.5 22.4-11.5 42.5-.6 5.8-1.9 9.2-6.3 15.9-1.5 2.2-2.2 4.4-1.9 5.6.8 2.4-2.4 5.3-8.3 7.6s-11.8 6.4-16.8 11.9c-6.9 7.5-9.1 19.3-5.7 30.3 1.6 5 1.6 5.3-.4 8.1-2.4 3.3-2.8 5.2-1.7 7.6.5 1.3-.3 2.9-3.3 6.1-3.8 4.1-5.6 7.4-5 9.2.1.5-.6 2.1-1.6 3.7-1.3 1.9-1.7 3.8-1.3 6.2.5 3 .1 3.8-2.5 6-2.5 2.2-3.1 3.4-3.3 7 0 2.4-.8 5.2-1.6 6.2-3 3.6-4.4 7.4-3.1 8.2.9.5.4 1.8-1.8 4.6-1.6 2.1-3 4.2-3 4.6 0 .5 72.7.9 163.9.9h163.8l.7-8.3c.8-10.7 2.7-23 3.6-24 1.5-1.6 3.2 6 4.3 19l1.1 13.3H512v-14.8c0-13.4-.3-15.6-2.6-22.3-3-8.6-2.8-14.5.5-22.2 1.9-4.3 2.1-6.8 2.1-21.9v-17l-16 .4-16 .4-2.4-8.1c-4.5-14.6-8.4-31-10.1-42.1-5.4-35.1-6.5-40.5-9.2-46.1-4.6-9.3-16.5-20.1-29.8-27.1-7.8-4.1-19.3-9.2-20.6-9.2-.6 0-.8-.9-.3-2.2 1.2-3.8 5-10 6-9.8.5.1 3 3.4 5.6 7.2 4.5 6.8 4.6 7 5.8 4.7l1.3-2.3 1.4 2.8c.8 1.5 2.3 3.6 3.4 4.7 1 1 1.9 2.7 1.9 3.6s.3 1.4.6 1.1c.7-.7-4.5-19.2-8.1-29.2-2.3-6.3-6-25.4-5.2-26.3.3-.2 2.5 3.4 5.1 7.9 2.6 4.6 5.8 9.6 7.2 11.3 2.1 2.6 2 2-1.2-5-2-4.4-4.6-10.8-5.9-14.1-2.9-7.6-7.8-25.5-7.2-26.1.3-.2 2.1 2.3 4.1 5.5 4 6.6 7.4 10.2 6.3 6.7-3.6-11.3-10.7-48.3-10.7-55.6 0-1.9 1.1-6.8 2.4-10.7 1.4-4 2.8-9.3 3.2-11.8.9-6.3 5.3-10.7 6.8-6.9.7 2 3.6 1.9 6.5-.1 1.9-1.4 2.5-1.4 3.1-.3 1.2 1.8 3.5-.3 6.1-5.3L448 0H299.5C198.8 0 151 .3 151 1m17.9 25.3c0 2.1-.1 2.1-.9.2-1.2-2.8-1.2-3.7 0-3 .6.3 1 1.6.9 2.8m32.9 55.9c5.4 10 9 26.5 7.3 33.5-.7 2.6-1.4 7.1-1.6 10-.3 3.2-1.7 7.9-3.5 11.6-3.4 7.1-4.7 12.2-3.2 13.1 1.6 1 .2 4.3-2.4 6.1-2.3 1.5-4.3 5-4.8 8.5-.3 1.4-10.7 9.1-11.5 8.4-.8-.8 2.2-26.4 3.3-27.3 1.6-1.3 4.9-1.7 6.4-.7 2.2 1.3 2.5 0 .8-3.3-1.5-2.8-1.5-4.6-.2-18.8.8-8.7 2-22.6 2.6-30.8 1.2-15 1.5-17.5 2.4-17.5.3 0 2.2 3.3 4.4 7.2"/></svg>