<svg xmlns="http://www.w3.org/2000/svg" width="682.667" height="512" version="1.0" viewBox="0 0 512 384"><path d="M0 151.5V303h26.7l.6-6.8c1.1-10.6.8-25.1-.4-27-.9-1.4-.4-3.2 2.5-9 3.4-6.7 3.8-7.2 6.9-7.2 1.7 0 4.5-.7 6.1-1.5 1.5-.8 3.4-1.5 4.1-1.5 2.4 0 3.6-13.5 1.4-15.7-1.9-1.9-.2-4.1 4.1-5.4 6.2-1.9 9.2-7.4 5.3-9.9-1.4-.8-1.5-1.2-.5-1.7.7-.3 1.7-1.6 2.2-2.9 1.2-3.2 2.1-3 4.3.8 1.6 2.8 1.6 3.3.3 4-2 1.1-2 5.7 0 8.3.8 1.1 2.9 2.5 4.7 3.1l3.2 1.1v18.7l4.5 1.8c2.5.9 5.7 1.9 7.1 2.2 3.5.7 8.9 13.3 7.1 16.9-.6 1.2-1.4 8.6-1.7 16.4l-.7 14.3h13.8v-10.8l-.1-10.7 6-9.7c3.3-5.4 6.5-9.8 7-9.8.6 0 3.7 4.8 6.9 10.6 5.8 10.5 5.9 10.7 5.3 16.8-.3 3.4-.2 6.8.3 7.5.6 1.1 8.4 1.8 32.1 3.2 17.3 1 33 1.8 35 1.9 3 0 4.7 1.1 11.5 7.5 4.3 4.1 8.3 7.4 8.8 7.5.5 0 .6-8.7.3-21.3l-.7-21.2 5.5-8.3c3.1-4.5 5.9-8.2 6.3-8.2.5 0 3.1 3.5 5.9 7.9l5.1 7.9-.5 55.6-.6 55.6H512V0H0zM456 87c0 .5-.5 1-1.1 1-.5 0-.7-.5-.4-1 .3-.6.8-1 1.1-1 .2 0 .4.4.4 1m-202.5 8c.3.5.1 1-.4 1-.6 0-1.1-.5-1.1-1 0-.6.2-1 .4-1 .3 0 .8.4 1.1 1m76.8 6c2.6 3 4.3 8.2 3.3 9.9-.9 1.4 2.4 10.1 4.3 11 .9.4 5.5 1.6 10.3 2.6 4.8.9 9.2 2.3 9.7 2.9 1.8 2.1-3.5 6.7-9.2 8l-5.2 1.2 3.3 1.9c3.4 2.1 4.1 3.5 1.7 3.5-1.2 0-.8 1.2 1.5 5.3 3.6 6.4 3.8 7.8.7 4.9-1.3-1.2-2.7-1.9-3-1.5-.4.3-.7.1-.7-.6s-.5-.9-1.1-.5c-.6.3-.8 1.5-.6 2.6.3 1.1.3 1.7 0 1.4s-1.2.2-1.9 1.2c-1.2 1.6-1.3 1.6-1.9 0-1.2-3-2.5-.9-2.5 3.7 0 2.4-.4 5.5-1 6.9-1 2.6.2 3.7 1.6 1.5.8-1.3 16.5-8.9 18.4-8.9 2.4 0 .4 8.8-3.4 14.9-2 3.3-3.6 6.1-3.6 6.3 0 .1 4.4.3 9.7.3 5.4 0 13.1.2 17.2.4l7.5.4-2.8 2.2-2.7 2.2 5.3 2.2c2.9 1.3 4.7 2.5 4.1 2.8-2.7 1-1.1 2.3 4.7 3.9 6.7 1.8 6.9 2.4 1.3 3.3l-3.8.7 4.1 1.9c2.2 1.1 4.8 2.9 5.7 4.1 1.6 2.1 1.5 2.1-2.6 1.3-6.9-1.3-7.2-1.3-5.2 1.8.9 1.6 2.7 3.7 3.9 4.7l2.1 1.9-3-.7-3-.8 2.4 2.6c2.4 2.6 2.4 2.6.3 2.6-4.3 0-.8 5 5.1 7.5 4.2 1.7 5 3 1.2 2.1-2-.5-2.3-.3-1.8 1 .5 1.4.2 1.4-3.3-.1-5.4-2.4-7.4-2.9-7.4-1.9.1 2 2.7 4.2 5.8 4.8 1.7.4 3.5 1.2 3.8 1.8.7 1.1-1.3.9-9-.8-2.6-.6-2.8-.5-2.1 1.7l.7 2.4-2.5-2.4c-1.4-1.3-3.2-2.1-3.9-1.9q-1.2.45 1.2 1.8c2.6 1.4 4.9 3.9 5 5.3 0 .5-1.5-.1-3.4-1.2-5.1-3.2-5.9-2.7-3.5 2.1l2.1 4.1-5.3-4.6c-3-2.6-5.7-4.7-6.1-4.7-1.4 0-2 6.1-.6 7.7.7.9.8 1.4.2 1-.8-.4-1.8.7-2.7 3.1-1.5 3.5-1.6 3.5-1.6.9-.1-1.5-.5-2.7-1.1-2.7-.5 0-.9-1-.7-2.2.1-1.7-.5-2.5-2.8-3.3-1.7-.5-4.5-2-6.3-3.3l-3.2-2.3v3.6c0 6.6-7.4 11.1-11.2 6.7-.9-.9-2.1-4.8-2.8-8.6-1-5.5-2-7.6-4.8-10.7-5.6-6-6.5-5.4-9.9 6.3-3.4 11.6-5 13.4-8.7 9.9-1.8-1.7-2.7-3.9-3.2-7.7-.5-4.6-1-5.4-3.4-6.3-1.6-.5-3.1-.7-3.4-.4s-2.7-1.8-5.4-4.6c-4.8-5-6.2-5.5-6.2-1.9 0 2-.8 2.2-2.9.9-.8-.5-1.1-1.6-.6-3 .5-1.7 0-2.7-2-4.3-1.9-1.4-2.5-2.8-2.3-4.7.3-2.5.5-2.6 6.6-2.6 5.1 0 6.3-.3 6.8-1.7.3-1 2.7-3.6 5.3-5.8 3.7-3.1 5-5.1 6.4-9.5 2.2-7.2.9-13.8-3.2-15.8-2.1-1-2.7-2.1-3.3-6.2-.3-2.8-.9-6.2-1.3-7.7-.5-1.9 0-3.8 1.9-7.1 1.7-2.9 2.3-4.8 1.6-5.2-.5-.3-1-2.4-1-4.7 0-6.7-3.7-11-8.5-9.8-8.1 2-8.6 2-10.1.5-.9-.8-1.2-1.5-.7-1.5.4 0 .2-.4-.6-.9-1-.6.6-1.8 5.8-4.4l7.2-3.4-2.6-1.7c-3.3-2.2-2.6-3.2 1.4-1.8 2.3.8 3.2.7 4.2-.4.6-.8 1.7-1.4 2.5-1.4 1.6 0 3.7-3.7 2.9-5-.3-.6-.2-1 .4-1s1.9-1.7 3-3.9c4.7-9.1 13.5-12 18.4-6.1"/><path d="M306.8 204.1c-1.9 1.1-2.4 2.9-.8 2.9.5 0 1.4-.9 2-2 1.2-2.3 1.2-2.3-1.2-.9m-1.2 17.4c.4.8.8 1.5 1 1.5s.4-.7.4-1.5-.4-1.5-1-1.5c-.5 0-.7.7-.4 1.5"/></svg>