<svg xmlns="http://www.w3.org/2000/svg" width="682.667" height="512" version="1.0" viewBox="0 0 512 384"><path d="M0 151.5V303h26.7l.7-5.7c1.2-11.7.9-27.5-.5-28.4-1.1-.6-.6-2.3 2.3-8.3l3.7-7.4 5.3-.7c2.9-.4 5.5-1 5.8-1.4.3-.3 1.4-1.1 2.5-1.7 1.6-.9 2.1-2.3 2.3-7.4.2-3.5-.2-6.8-.7-7.3-.6-.6-1.1-1.4-1.1-1.8 0-1.6 3.3-3.9 7-4.9 3.1-.8 4-1.6 4.5-3.9.4-1.8.1-3.8-.7-5.1-1-1.8-1-2.4 0-2.7.6-.3 1.2-1.3 1.2-2.4 0-1 .7-1.9 1.5-1.9s1.5.4 1.5.9.7 1.7 1.6 2.6c1.3 1.2 1.4 1.9.5 2.8-1.6 1.6-1.4 8.3.4 10 .8.9 2.9 1.8 4.6 2.2 3.3.8 4.8 3 3 4.8-.6.6-1.1 4.1-1.1 7.8 0 6.6.1 6.8 3.2 8.3 1.7.9 4.9 1.9 7 2.3 4.4.7 4.4.7 7.9 9.3 2 4.9 2.4 6.8 1.6 7.8-.6.8-1.3 7.6-1.5 16.3l-.5 15 6.9-.3 6.9-.3-.3-10.5-.3-10.5 6.1-9.8c3.4-5.4 6.7-9.6 7.2-9.5.6.2 3.5 4.6 6.4 9.7 5.4 9.2 5.4 9.3 5.4 17.6v8.3l6.3.6c3.4.3 19.4 1.3 35.6 2.2l29.5 1.6 7.8 7.1c4.4 4 8.4 7.4 9 7.6.8.3.9-5.6.4-21.5l-.6-21.8 5.6-8.3c3.2-4.6 6-8 6.4-7.6.5.4 3 4.2 5.7 8.5l5 7.6-.5 55.6-.5 55.6H512V0H0zM253.5 95c.3.5.1 1-.4 1-.6 0-1.1-.5-1.1-1 0-.6.2-1 .4-1 .3 0 .8.4 1.1 1m76.2 4.5c2.2 1.5 3.2 4.6 3.7 11.2.2 2.1 1 5.4 1.8 7.4 1.6 3.6 1.7 3.6 10.9 5.4 5.2 1 10 2.3 10.8 3 2 1.9-1.4 6.2-6.2 7.7-3.4 1-3.6 1.3-2.2 2.8.9 1 1.1 2 .5 2.6s-.1 2.3 1.5 4.6c3 4.4 3.3 6.9.7 4.5s-5.1-2.1-6.2.7c-.9 2.6-3 4.4-3 2.7 0-.6-.7-1.1-1.5-1.1-1.9 0-2.9 4-2.1 8.3.4 1.9 0 4.3-.8 5.9s-1.3 2.8-1.1 2.8 2.7-1.6 5.7-3.5c5.5-3.7 15.3-7.3 16.4-6.2 1.2 1.1-1.7 10.1-4.7 14.8-1.6 2.5-2.9 4.9-2.9 5.2 0 .5 5.5.7 31.5.9l2.9.1-2.8 2.2-2.9 2.3 5.2 2.3c3.6 1.5 4.9 2.5 4.2 3.2-1.9 1.9-1.3 2.3 4.4 3.7 6.3 1.5 7.2 3 1.8 3l-3.8.1 2.4 1.9c1.3 1.1 2.9 2 3.6 2s2 1.1 2.9 2.5c1.7 2.5 1.7 2.6-.9 2-1.4-.3-3.6-.7-5-1-3.5-.7-3.1.8 1.3 5.7 2.1 2.3 2.9 3.9 2 3.5-1-.4-2.6-1-3.5-1.4-1.1-.4-.7.3.9 1.9 3.2 2.9 2.7 4.1-1.1 2.7-2.4-.9-2.5-.8-.7.6 1.1.8 1.6 1.5 1.1 1.5-1.7 0 3.2 4.4 7 6.1l4 1.9-3.2-.3c-2.6-.3-3-.1-2.2 1 1.7 2-.5 1.7-5.2-.8-4.8-2.4-5.8-1.9-3.5 1.6 1 1.5 2.6 2.5 4.1 2.5 1.3 0 2.7.4 3 1 .8 1.2-1.7 1.2-6.8.1-3.5-.8-3.8-.8-3.4.9.3 1.1 0 2.1-.7 2.4s-.6.8.4 1.5c2.8 2 .3 2-3.5.1-2.1-1.1-4-1.8-4.3-1.6-.2.2.4 1.8 1.2 3.5 2.5 4.6 2 4.7-2.6.2-5-5-7.3-5-7.3-.1 0 1.9-.2 3.7-.5 4s-1.1 1.6-1.7 3l-1.2 2.5v-2.3c-.1-1.3-.5-2-1.1-1.7s-1-.5-1-1.9c0-2-.9-2.9-4.2-4.5-2.4-1.1-5.2-2.7-6.3-3.5-1.9-1.4-2-1.3-2.1 2.6 0 3.2-.6 4.6-2.8 6.4-5.4 4.7-8.8 2-10.9-8.8-1.3-6.5-2.1-8.2-4.9-10.7-5.4-5-6.2-4.4-10 7.1-2.7 8.3-3.7 10.4-5.4 10.6-3.1.4-5.6-3.2-6.2-8.9-.4-4.3-.9-5.2-3.1-6.1-1.4-.6-2.9-1.2-3.2-1.2-.3-.1-2.8-2-5.6-4.4-5.8-4.8-6.3-5-6.3-2.3 0 2.4-1.2 3.2-2.9 2.1-.9-.5-1.1-1.7-.7-3.3.4-1.9 0-2.8-1.9-4.1-3.6-2.4-3.5-7.3.1-8.2 1.4-.4 4.1-.2 6 .4 3.3 1 3.5.9 6.3-3.1 1.6-2.3 4.3-5.1 6-6.2s3.1-2.8 3.1-3.8.7-3.4 1.5-5.4c1.9-4.6.4-10.7-3.6-14.3-1.8-1.7-2.9-3.8-3.3-6.5-.3-2.2-.8-5.5-1.2-7.3-.5-2.6-.1-4.1 2-7.2 1.5-2.2 2.2-4.2 1.6-4.5s-1-2.5-1-4.7c0-4.8-3.2-10.5-5.7-10.3-2 .2-7.8 1.4-10.5 2.1-1.1.3-1.8 0-1.8-.9 0-.8-.7-1.8-1.6-2.1-2.5-1-.3-2.9 6.7-6.1l6.1-2.7-3.2-2c-3.9-2.3-3.5-3.2.9-1.7 5 1.8 9.3-1 12.1-7.8 1.2-3 3.7-7 5.5-8.9 2.7-2.9 3.9-3.4 7.6-3.4 2.5 0 5.4.7 6.6 1.5"/><path d="M376.8 181.7c.7.3 1.6.2 1.9-.1.4-.3-.2-.6-1.3-.5-1.1 0-1.4.3-.6.6M306 204c-1.9 1.5-2.1 2-.9 2 1.6 0 4.6-2.7 3.8-3.5-.2-.2-1.5.5-2.9 1.5m-.4 15.5c.4.8.8 1.5 1 1.5s.4-.7.4-1.5-.4-1.5-1-1.5c-.5 0-.7.7-.4 1.5M382 231c0 1.1 4.2 3.1 4.9 2.4.5-.5-3-3.3-4.1-3.4-.5 0-.8.5-.8 1"/></svg>