<svg xmlns="http://www.w3.org/2000/svg" width="682.667" height="512" version="1.0" viewBox="0 0 512 384"><path d="M0 151.5V303h26.7l.6-3.8c.4-2 .7-9.5.8-16.6.1-9.7-.2-13-1.2-13.7-1.1-.6-.6-2.3 2.1-8 3.5-7.1 5.5-8.9 10.2-8.9 1.2 0 3.9-.8 6-1.8l3.9-1.7-.3-9.5-.3-9.4 3.6-1.1c6.6-1.9 8.4-5 5.7-9.6-1-1.7-1-2.3 0-2.6.6-.3 1.2-1.3 1.2-2.4s.7-1.9 1.8-1.9c2.1 0 4.6 5 3.2 6.4-1.3 1.3-1.3 6.2 0 8.6.6 1.1 2.8 2.5 5 3.1 3.9 1.2 5.4 3.9 3 5.4-.5.3-1 3.7-1 7.4v6.7l3.8 1.6c2 .9 5.5 2.1 7.7 2.7 3.8 1 4.1 1.4 6.9 8.7 2.2 5.6 2.6 7.8 1.7 8.3q-1.2.75-1.8 15.9l-.6 15.2h13.9v-10.9l.1-11 4.8-7.8c2.7-4.3 5.7-8.8 6.6-10.1l1.8-2.3 2.4 3.8c8.6 13.9 9.7 16.8 9.7 25.1v8l6.3.6c3.4.3 19.4 1.3 35.6 2.1l29.4 1.6 8.1 7.5 8.1 7.6.7-3.9c.4-2.1.5-11.8.2-21.6l-.6-17.8 5.7-8.6c3.1-4.7 6-8.1 6.4-7.7.5.5 3 4.3 5.7 8.4l4.9 7.5-.3 31c-.1 17-.5 42.1-.8 55.7l-.7 24.8H512V0H0zm330.1-51.6c2.3 2.4 2.9 3.8 2.9 7.3 0 5.7 2.7 13.6 4.8 14.2.9.2 5.1 1 9.2 1.6 7.5 1.2 11 2.4 11 3.8s-5.8 7.2-7.2 7.2c-2.2 0-1.6 4.6 1.1 7.4 3.1 3.3 2.2 4.2-2 2.1-2.8-1.5-3.1-1.5-2.6-.1.4.9-.2 2.1-1.5 3-1.1.8-1.8 1.9-1.5 2.4.4.5-.7.8-2.3.7-2.4-.1-2.9.3-3.4 2.8-.3 1.6-.6 5.1-.6 7.6 0 2.6-.5 5.2-1.2 5.9-.9.9-.9 1.2-.1 1.2.7 0 1.5-.5 1.8-1 1-1.5 13.5-7.6 17.4-8.5 2.9-.6 3.3-.5 2.8 1-.4.9-.7 2.7-.7 3.9s-1.6 4.8-3.5 8-3.5 6.4-3.5 7c0 .8 5 1.1 17 1 9.4-.1 17 0 17 .2 0 .3-1.4 1.3-3.1 2.3l-3.1 1.9 3 1.6c1.7.9 3.7 1.6 4.5 1.6s2.1.7 2.8 1.6c1.2 1.5 1.1 1.6-1.1.9s-2.3-.6-1.2.8c.7.9 2.8 1.9 4.5 2.3 1.8.3 4.3 1.1 5.7 1.6 2 .7 2.2 1.1 1 1.8-.8.5-2.2.7-3.2.4-3.5-1.1-2.6 1.5 1 3.1 2.1 1 4.4 2.6 5 3.6 1.1 1.7.8 1.8-3.8 1.3-6-.7-6.2.2-1.6 5 3.4 3.7 3.2 4.5-.7 2.5l-2.2-1.2 2.3 2.5c2.3 2.6 2.1 4.1-.5 3.1-1.3-.5-1.3-.1.1 2.6 1.1 2 3.1 3.7 5.6 4.7 2.2.9 4 2 4 2.5 0 1.2-.7 1.1-3-.1-1.6-.9-1.8-.8-1.3.6.5 1.3.2 1.5-1.8.9-1.3-.4-3.6-1.4-5.1-2.2-3-1.5-3.6-.6-1.8 2.8.6 1 2.1 1.9 3.3 1.9s2.9.5 3.7 1.1c1.1.7-.4.8-5 .3-5.9-.6-6.3-.5-5.1 1 1.7 2.1.3 2.1-2 0-.9-.8-2.3-1.6-3.1-1.8-.7-.1-2-.5-2.8-1-.8-.4-.4.2.9 1.3 1.3 1.2 2.9 2.1 3.6 2.1s2 1.1 2.9 2.5c1.8 2.8 1 3.3-2 1-1-.8-2.7-1.5-3.6-1.5-1.6 0-1.6.3-.2 3.7l1.6 3.6-4.8-4.1c-2.6-2.3-5.2-4.2-5.9-4.2-1.4 0-2.6 5.8-1.3 6.6.4.3.8 1 .8 1.5 0 .6-.4.8-.9.5s-1.4.8-2 2.4c-1.3 4-2.4 3.8-1.6-.3.5-2.4.4-2.8-.4-1.7-.9 1.2-1.1 1-1.1-1.2 0-2-.7-2.8-3-3.7-1.7-.5-4.4-1.9-5.9-3.1-1.6-1.1-3.1-2-3.3-2-.1 0-.3 1.6-.4 3.5-.1 4.1-3.7 8.5-6.9 8.5-3.9 0-5.5-2.2-7-10.4-1.3-6.9-2-8.3-5.2-11.3-2.1-1.8-4.4-3.2-5.2-3.1-.9.2-2.5 3.8-4.2 9.6-3.7 12.8-5 14.2-9.4 9.7-1.8-1.7-2.5-3.5-2.5-6.2 0-4.7-.6-5.6-5.1-8-2-1-5.4-3.3-7.6-5.1-4.8-3.8-5.3-3.9-5.3-1.1 0 1.4-.5 1.9-1.7 1.7-1.3-.3-1.8-1.3-1.7-3.4.1-2.2-.4-3.3-2-4s-2.1-1.8-2.1-4.4v-3.5h5.7c5.4-.1 5.8-.3 8.8-4 1.7-2.1 4.1-4.5 5.3-5.4 2.9-1.9 3.7-3.2 3.7-5.6 0-1.1.6-3.2 1.4-4.7 1.9-3.7-.3-11.9-3.7-13.3-1.6-.7-2.4-2.2-2.9-5.5-.4-2.5-1-6.2-1.4-8.2-.5-2.8-.1-4.5 1.5-7.1 1.8-3 1.9-4 1-9.8-1.3-8.1-3.1-10.3-7.9-9.4-7.3 1.4-11.2 1.6-10.6.6.3-.5-.1-1.6-.9-2.4-1.3-1.4-1-1.8 2.3-3.7 2-1.3 5.3-2.8 7.2-3.5l3.5-1.3-2.7-1c-2.7-1.1-4.7-3.2-2.9-3.2.5 0 2.2.5 3.7 1 2.2.9 3.1.7 4.9-1 1.2-1.1 2.5-2 3.1-2 .5 0 1.9-2.4 3.2-5.4s3.8-7 5.7-9c2.8-3 3.9-3.6 7.5-3.6 3.3 0 4.8.6 7.1 2.9M454 124.4c0 .3-.4.8-1 1.1-.5.3-1 .1-1-.4 0-.6.5-1.1 1-1.1.6 0 1 .2 1 .4"/><path d="M375.5 181c.3.5 1.2.7 2 .3 2.1-.7 1.9-1.3-.6-1.3-1.1 0-1.8.4-1.4 1m-69.6 21.9c-1.3 1.1-2.1 2.2-1.7 2.6.9.9 2.6-.2 3.8-2.6 1.3-2.4.8-2.4-2.1 0m.2 14.7c0 1.1.3 1.4.6.6.3-.7.2-1.6-.1-1.9-.3-.4-.6.2-.5 1.3"/></svg>