<svg xmlns="http://www.w3.org/2000/svg" width="682.667" height="512" version="1.0" viewBox="0 0 512 384"><path d="M162 .5c0 1.9 6.1 13.5 7.7 14.6 5.8 4 8.1 15.8 6.8 34.2-.6 9-.9 10.6-2.5 11-1 .3-2.3 0-2.9-.6-.7-.7-1.5-.6-2.5.2-1.3 1.1-1.4 1.8-.3 4.4.9 2 1.1 4.5.6 6.7-.4 1.9-1.5 16.1-2.4 31.5-1.4 23.7-2 28.5-3.6 31.3-1 1.8-1.9 3.4-1.9 3.6 0 .1 2.4.2 5.3.3h5.2l.2 6.4c.3 7.7 1.9 22.9 3.5 32 1 6.4 1 6.6-2.5 14-5.3 11.1-7.1 19.8-9.9 48.6-.1.5-1.2 2.5-2.5 4.7-1.6 2.5-2.3 4.6-1.9 6.1.5 2.1.1 2.4-4.7 3.5-13 3.1-23.7 10.9-27.7 20.2-3.1 7.1-2.6 19.2 1.1 26.6 2.5 5 2.5 5.1.7 8.5-1.5 3.1-1.6 3.6-.3 4.7s1 1.9-2.5 5.6c-2.1 2.3-4.2 5.5-4.5 7.1-.3 1.5-1.2 4.1-2 5.6-.8 1.6-1.5 4.5-1.5 6.4 0 2.5-.9 4.5-3 6.9-2.4 2.7-2.8 4-2.3 6.4.4 2.3 0 3.7-1.4 5.3-2.5 2.9-4.6 7.7-3.3 7.7 1.7 0 1.1 1.8-1.4 4.2-2.4 2.3-4.1 6.9-3.7 9.9.1.9-.5 2.2-1.4 2.9-.8.7-1.5 1.6-1.5 2.1s67.4.9 156.5.9h156.4l.5-3.3c.3-1.7 1.2-9 2.1-16.2 1.8-15.4 3.5-24.5 4.4-24.5.4 0 1.5 1.7 2.5 3.7 1.3 2.8 2.2 8.8 3.2 21.8.7 9.9 1.3 18.1 1.3 18.2.1.2 19.5.3 43.1.3h43v-18.3c0-16.8-.2-18.9-2.5-25.7-3.1-9.4-3.1-14 0-21.5 2.3-5.6 2.5-7.2 2.5-22.9v-16.9l-13.7.5c-7.6.3-14.5.8-15.4 1.2-2.9 1.2-11.1-32.3-14.9-60.4-4.2-31.2-5.4-35.2-14.2-44.5-8.6-9.3-21.4-17.2-41-25.3l-2.6-1.1 3.5-6.7 3.6-6.7 2.8 3.1c3.6 4 4.2 4 3.4.2-1-4.6.2-3.6 3.5 2.9 2.8 5.7 6.2 9.8 4.6 5.5-.4-1-2.3-6.2-4.3-11.4-1.9-5.2-4.6-12-5.8-15-2.3-5.6-6-22.1-5.3-23.9.1-.6 2.6 2.9 5.5 7.7 2.8 4.8 5.9 9.6 6.7 10.7l1.6 2-.8-2c-.4-1.1-2.1-4.7-3.8-8-3.6-7-8.4-18.8-8.4-20.7 0-.7 1 .2 2.2 1.9 1.3 1.8 2.9 3.3 3.6 3.3s1.1-.3.9-.8c-1-1.6-3.6-19.4-4.7-32.2l-1.1-13.5 3.6-11.5c4.9-15.1 6.5-21 6.5-23.7 0-1.2.8-2.9 1.7-3.8 1.5-1.6 1.8-1.6 2.8-.1 1.5 2 4.4 2 6.9.1 1.4-1.1 2.3-1.2 3.2-.4 1.7 1.4 3 .5 4.2-3.1l1.1-3h-143C226.3 0 162 .2 162 .5m44 71.9c0 .8 4 25.7 5.4 34.1 2.6 14.6 2.4 20.1-.6 26.5-3.2 6.6-4.6 13-2.8 13s.1 4.2-2.6 6.5c-1.3 1.1-3 3.6-3.8 5.6-1.1 2.5-3.4 5-7.5 7.8l-6 4.1.4-2.8c.3-1.5.9-7.6 1.5-13.7.6-6 1.6-11.5 2.2-12.2 1.3-1.6 4-1.7 5.6-.1 2 2 2.3.3.7-4.1-.8-2.3-1.2-4.7-1-5.4.2-.6 1.6-13.4 3-28.2 2.9-29.8 3.1-31.5 4.5-31.5.6 0 1 .2 1 .4m199.4 47.5c.3.4.3 1.1 0 1.4-.8.8-3.4-.3-3.4-1.4s2.7-1.2 3.4 0"/></svg>