<svg xmlns="http://www.w3.org/2000/svg" width="682.667" height="512" version="1.0" viewBox="0 0 512 384"><path d="M0 151.5V303h13.5c11.8 0 13.5-.2 14.3-1.8.5-.9 1.2-8.7 1.6-17.3.6-13.7.5-15.7-.9-16.3-1.3-.5-.9-1.8 2.4-8.5l4-7.9 5.1-.7c2.7-.4 5.2-1.1 5.6-1.6.3-.5 1.4-.9 2.4-.9 2.6 0 3.3-2.9 2.9-12.3l-.4-8.1 4-1.6c2.2-.8 4.6-1.9 5.3-2.3 1.5-1 1.6-7.4.1-7.9-1.3-.4 2.1-6.8 3.6-6.8 1.7 0 3.9 6 2.6 7.3-1.5 1.5-1.3 6.8.3 9 .8 1 3.1 2.3 5.1 2.8 3.4 1 3.6 1.3 3 3.7-.4 1.5-.9 5.6-1.2 9.2l-.4 6.6 5 2.2c2.8 1.2 5.9 2.2 6.9 2.2 3.1 0 4.8 2.2 7.8 9.8 2.3 6 2.5 7.5 1.4 8.2s-1.4 4.3-1.4 16.2l-.1 15.3 4 .3c2.2.2 5.8.1 8-.2l4-.6v-11.3l.1-11.3 6.3-10.2c3.4-5.6 6.7-10 7.2-9.7.4.3 3.3 5 6.4 10.4l5.5 9.7v8.7c0 8.2.1 8.7 2.3 9.1 1.2.3 15.7 1.2 32.2 2.1 16.5.8 31.8 1.8 34 2.1 3.3.5 5.4 1.9 11.7 8.2 4.3 4.2 8.1 7.2 8.5 6.8 1.3-1.3 1.6-27.5.4-29-.8-.9-.9-3.9-.5-8.7.6-6.8 1.1-8.1 6.2-15.7l5.6-8.3 5.8 8.8 5.7 8.8-.6 56.2-.6 56.3H512V0H0zm328.2-59.4c1.3 1.7 2.1 4.6 2.3 8 .4 8 2.7 12.6 6.7 13.4 13.7 2.6 17.7 3.7 18.2 5.2.9 2.3-3 6.1-7.6 7.5-4.3 1.3-4.4 1.5-2.1 4 .9 1.1 1.1 1.8.5 1.8-1.9 0-1.4 1.9 1.4 5.6s2.6 5.7-.3 3.2c-1-.8-2.5-1.9-3.3-2.3-1.3-.8-1.3-.7 0 1 1 1.3 1.1 1.6.2 1.1s-1.5-.1-1.9 1.2c-.5 2.1-3.3 3.9-3.3 2.2 0-.5-.8-.8-1.7-.7-1.5.1-1.8.9-1.5 5.9.3 3.7-.1 6.4-.9 7.4-2.2 2.7-.5 2.3 7.6-1.6 4.4-2.2 9.7-4.2 11.9-4.6l3.9-.7-.7 3.9c-.4 2.1-1.9 5.9-3.2 8.6-1.3 2.6-2.4 4.9-2.4 5.1 0 .3 6.6.8 14.7 1.2 14.6.7 14.6.7 12.2 2.6-2.7 2.1-2.1 2.9 3.9 5.1 3.1 1.2 4.4 2.8 2.1 2.8-2.5 0 .6 2 5.6 3.6 6.1 1.9 6.2 2.3 1.3 3.3l-3.3.7 3.3 1.8c3 1.5 7.2 5 7.2 6 0 .2-1.9 0-4.2-.5-2.4-.4-4.6-.8-5-.9-1.8-.1-.6 2.8 2.2 5.5 3.5 3.3 3.4 4-.6 2.5l-2.9-1.1 2.9 2.4c2.7 2.2 2.8 2.5 1.2 3.4-3 1.7-1 5 4.7 7.8l5.2 2.5-4-.5c-2.9-.4-3.6-.3-2.5.4 2.4 1.7-2 1.3-5-.4q-5.85-3.3-3.9.9c.8 1.6 2.3 2.6 4.5 3.1 1.9.3 3.4 1.1 3.4 1.7s-1 .8-2.6.4c-7.7-2-8.8-2-8.1-.2.7 1.7-.2 1.5-3.1-.7-.8-.6-2.3-1.2-3.4-1.2-2-.2-2-.1-.3 1.2 1.1.7 2.4 1.3 3.1 1.3 1.1 0 4.4 4.2 4.4 5.5 0 .4-1.3-.3-2.9-1.4-1.6-1.2-3.7-2.1-4.6-2.1-1.5 0-1.4.4.5 3.6 3 4.7 2.1 5.1-1.9.9-1.8-2-4.2-4-5.2-4.6-1.6-.8-2.1-.5-3 1.8-.8 2-.7 3.3.1 4.7.6 1 .7 1.5.2 1.2-.6-.3-1.5.8-2.1 2.4-1.3 4-2.5 3.8-1.8-.3.3-1.7.3-2.6 0-2-.7 1.9-2.5 1.5-2.1-.5.4-2.4-1-4.2-3.1-4.2-1 0-3-.9-4.4-2-3.4-2.7-3.7-2.6-3.7 1.6 0 4.7-4.8 9.9-8.2 8.9-3.5-1.1-4.6-3.1-5.9-11.2-1.1-6.6-1.6-7.7-4.8-10.3-5.7-4.8-6.7-4.2-9.6 5.7-3.2 11-3.7 11.8-6.6 11.8-2.8 0-5.9-5.2-5.9-10.1 0-2.4-.6-3.4-2.7-4.3-1.6-.7-3-1.3-3.3-1.3s-1.1-.4-1.7-1c-1.7-1.4-1.6-.5.2 3.9 1.7 3.9 1.9 6.3.7 6.3-.4 0-1.6-2.2-2.6-4.9-1.3-3.6-2.5-5.2-4.6-6.1-1.6-.7-3.3-.9-3.8-.6-1.4.9-3.5-2.1-2.8-4 .4-1-.3-2.5-1.9-4-4-3.7-2.8-8.4 2.1-8.4 1.2 0 3.3-1.3 4.7-3 1.4-1.6 4.9-4.2 7.8-5.8 4.7-2.5 5.4-3.4 7-8.3 1.7-4.9 1.8-7.8.3-13.2-.3-.9-1.9-2.4-3.5-3.2-2.5-1.3-2.9-2.1-2.8-5.3 0-2-.3-5.8-.6-8.3-.6-4-.4-5.2 1.9-8.5q2.55-3.75 1.5-4.5c-.6-.4-1.3-2.4-1.4-4.6-.2-2.2-.9-5-1.7-6.3-1.2-2-1.8-2.1-6.8-1.6-3 .4-6.4.9-7.7 1.2-1.7.5-2.3.2-2.3-1 0-.9-.7-1.9-1.5-2.2-2.6-1-1.7-2.1 4.9-5.5 6.3-3.3 6.3-3.3 4.2-5.1s-2-1.8 1.9-1.2c3.1.4 4.4.2 5.4-1 .7-.9 1.9-1.6 2.5-1.6.7 0 2.6-2.8 4.2-6.2s4.3-7.7 6.1-9.5c2.8-3.1 3.6-3.4 7.9-3.1 3.7.2 5.1.9 6.6 2.9"/><path d="M372.8 170.7c.6.2 1.8.2 2.5 0 .6-.3.1-.5-1.3-.5s-1.9.2-1.2.5m-70.2 25.8c-1.1.8-1.5 1.5-.9 1.5s1.6-.7 2.3-1.5c1.6-1.9 1.1-1.9-1.4 0"/></svg>