<svg xmlns="http://www.w3.org/2000/svg" width="682.667" height="512" version="1.0" viewBox="0 0 512 384"><path d="M172 .6c0 .3.7 1.8 1.4 3.2.8 1.5 2.2 4.4 3.1 6.4 1 2.1 2.2 3.6 2.8 3.5 1.4-.3 5.7 7.3 5.7 10.3 0 1.4.1 4.3.2 6.5.2 4.8-1.2 26.7-1.8 27.7-.2.3-1.7.3-3.2-.1-3.4-1-5.2.6-4.1 3.6.4 1.2.4 7.3-.1 13.5s-1.7 20.5-2.6 31.8c-1.3 16.4-2 21.1-3.5 23.6l-1.9 3.2 3.5.6c1.9.4 4.3.2 5.3-.3 1.8-1 1.9-.3 2.5 11.2.3 6.7 1.3 17.4 2.2 23.8 1.6 11.3 1.6 11.8-.3 15.5-4.6 9.1-6.4 16.7-8.7 36.9-1.7 14-1.9 15.3-4.2 20.2-1.2 2.6-2.2 3.3-5.6 3.8-12.2 2.1-23.6 10.1-27.7 19.7s-1.7 24.8 5 32.1c1.8 1.8 1.8 2.2.4 4.9-1.2 2.3-1.3 3.3-.3 4.4 1.2 1.5.1 3.6-3.3 6.2-1.4 1-3 5.3-3.2 8.7-.1.5-.9 2.2-2 3.8-1.2 1.7-1.6 3.7-1.3 5.4.4 2.1-.2 3.6-2.5 6.1-2.3 2.7-2.8 4-2.3 6.2.5 2.1-.1 3.8-2.7 7.4-2.6 3.8-3 4.9-1.8 5.6s1.2 1.1-.1 2.7c-.8 1-1.9 2.2-2.6 2.6s-1.5 3-1.9 5.7c-.4 2.8-1 5-1.4 5-1 0-4 7.5-4 10 0 2 1.2 2 149.3 2h149.4l1.2-11.3c.7-6.1 2.1-16.6 3.2-23.2 3.3-19.6 4.5-21.7 8.2-14.3 1.9 3.8 3.6 23.2 3.7 40.5v8.3h86v-20.8c0-19.2-.2-21.3-2.5-28.4-3.6-11.4-3.5-16.9.6-25 1.6-3.2 1.9-6.1 1.9-19.9v-16.1l-15 .4c-12.9.3-15.1.2-15.4-1.1-6-20.1-10-40.4-12.6-62.5-3-25.6-4.8-31.1-12.5-39-7.2-7.5-23.9-17.5-39.2-23.6-1.8-.7-3.3-1.5-3.3-1.8 0-1 7.4-14.2 8-14.2.3 0 1.6 2.1 2.8 4.6 3.2 6.6 3.7 4.9.7-2.4-1.4-3.4-2.5-7.7-2.5-9.6 0-2.1-.6-3.6-1.5-4-.9-.3-2.7-2.9-4-5.8-2.4-5.4-6.8-23.8-5.6-23.7.3 0 2.8 3.4 5.5 7.5s5 7.3 5.2 7.1-.9-2.7-2.5-5.6l-2.8-5.3.3-21.4c.2-18.7.5-21.9 2.3-25.8 2.8-6.5 9.1-26.9 10.7-35.1 1.4-6.9 3.2-10.3 4.1-7.8.6 1.6 5.5 1.7 7.1.1.8-.8 1.5-.8 2.6.1 1.1 1 1.7.8 3-1.1.9-1.2 1.6-2.6 1.6-3 0-.5-62.3-.8-138.5-.8S172 .3 172 .6m39.8 96.6c2.9 25.9 3.4 34.9 2.3 39.5-.9 3.3-.9 4.9-.1 5.8 1.3 1.5.2 4.3-2.5 6.5-.9.8-2.3 3-3.1 5-1 2.5-3.2 4.8-7 7.4-3.1 2-5.8 3.6-5.9 3.4-.5-.5 2.4-25.9 3.1-26.9.3-.6 2.2-.7 4.1-.4 3.5.5 3.5.5 2.8-2.2-.4-1.6-.7-4.6-.7-6.8 0-6.6 4.4-41.5 5.2-41.5.4 0 1.2 4.6 1.8 10.2m193.3 19 2 2.8h-3.5c-3.5 0-3.6-.1-3.6-4.1 0-3.6.2-4 1.5-2.9.9.7 2.5 2.6 3.6 4.2"/></svg>