<svg xmlns="http://www.w3.org/2000/svg" width="682.667" height="512" version="1.0" viewBox="0 0 512 384"><path d="M182 .9c0 2.1 6.8 15.2 7.2 14 .3-.9 1.1-.3 2.4 1.6 1.7 2.6 1.9 4.6 1.7 17-.1 7.7-.4 16.4-.8 19.3l-.7 5.3-3.6-.3c-4-.3-3.8-.6-3.1 6.7 0 .5-.6 7.9-1.5 16.2-.9 8.4-2.3 22.1-3.1 30.4-1.2 12.3-1.9 15.5-3.6 17.7l-2.1 2.7 3.9.8c2.1.4 4.5.6 5.4.4 1.4-.4 1.8 1.8 2.9 16.5.7 9.3 1.8 19.2 2.4 22.1 1.1 4.8 1 5.6-1.5 11.2-3.4 7.8-5.3 16.3-7.8 36.2-2.4 18.6-2.6 19.2-5.5 19.8-1.1.3-4.3.9-6.9 1.5-10.4 2.2-19.8 8.7-24 16.5-3.3 6.1-3.1 19 .4 26.6 1.5 3 4.1 6.9 5.8 8.5 3 2.8 3.1 3.2 2 5.8-1 2.2-1 2.9 0 3.5 1 .7 1 1.4-.4 3.5-1 1.4-2.1 2.6-2.6 2.6-1.1 0-2.9 4.4-3.3 7.7-.1 1.2-.9 2.9-1.6 3.8-.8.9-1.3 3.4-1.2 5.5.2 3-.3 4.4-2.4 6.5-2 2-2.4 3.2-1.9 5.2.4 1.8-.1 3.6-2 6.5s-2.5 4.7-2 6.5c.4 1.9.1 2.9-1.4 3.9-1.8 1.3-3.8 6.7-3.2 8.8.1.5-.4 1.6-1.1 2.5-2.4 3-3.8 6.1-3.8 8.5 0 1.3-.7 4-1.5 5.9-.8 2-1.5 4.1-1.5 4.7 0 .7 45.4 1 143 1h143v-6.8c0-8 2.9-27.4 6.5-42.9 1.4-6.1 2.5-11.5 2.5-11.9 0-1.3 4.2 3 5.6 5.8 1.3 2.5 3.3 32.2 3.4 49.5v6.3h86v-20.6c0-20.4 0-20.7-3.2-30.7-4.2-13.5-4.2-19.1 0-27.8 3.1-6.6 3.2-7 3.2-20.8V270h-29.9l-1.5-4.9c-4.9-16.4-8.9-39.1-11.5-65.7-.6-5.5-2-13.1-3.2-16.9-1.8-6-3-7.8-8.8-13.5-7.4-7.3-19.2-14.6-32-19.8-4.7-1.9-8.7-3.6-8.9-3.7-.7-.7 5.1-8.4 5.9-7.9.5.3.6-.1.3-.9-.2-.7.4-3.5 1.6-6.1 2.3-5.4 2.6-9.5.8-10.1-.7-.2-3-.6-5.1-1-4.6-.7-6.7-4.4-9.1-16-.9-4.4-1.8-8.8-2-9.8-.2-.9-.3-1.7-.1-1.7s2.7 3.4 5.6 7.5c2.8 4.1 5.3 7.5 5.5 7.5s-1-2.6-2.6-5.9c-3.5-6.8-3.6-9.2-1.5-27.1 1.2-10.1 2.2-14.2 5.4-22 4.2-9.9 11.5-33.5 12.6-40.5.4-2.2.9-4.9 1.2-5.9.5-1.7.6-1.8 1.5-.3 1.1 2.1 3.8 2.2 6.4.3 1.4-1 2.3-1.1 3.2-.4.9.8 1.6.6 2.7-.8.8-1 1.5-2.5 1.5-3.2C450 .3 422.6 0 316 0c-81.1 0-134 .4-134 .9m31.9 123.8c-.1 10.2-.1 10.6-1.5 7.6-1.1-2.7-1.2-4.6-.2-10.8.6-4.1 1.3-7.5 1.5-7.5s.3 4.8.2 10.7m8 3.4c-1.8 1.1-3.8 10.1-2.7 12.2 1.1 2.2-.3 6.7-2.2 6.7-.6 0-1.7 1.7-2.5 3.8-1.5 3.6-10.9 12.1-12.2 10.9-.2-.3.4-6.3 1.4-13.4 1.8-12.5 1.9-12.8 4.3-12.9 1.4 0 3.5.6 4.7 1.3 1.2.8 2.4 1 2.7.5s1.6-6.1 2.8-12.3l2.3-11.4 1.1 7c.7 3.9.8 7.2.3 7.6m181.5-11.6c.3.8.1 1.5-.4 1.5-.6 0-1-.7-1-1.5s.2-1.5.4-1.5.6.7 1 1.5"/></svg>