<svg xmlns="http://www.w3.org/2000/svg" width="682.667" height="512" version="1.0" viewBox="0 0 512 384"><path d="M0 150v150h5.9c5 0 6.1-.3 6.6-1.9.3-1 1.5-2.1 2.6-2.4 2-.5 2.1-1.2 1.9-10.9-.2-5.7.1-11.3.5-12.5.7-2 6.8-5.3 9.9-5.3 2.5 0 3.7-7.5 1.6-9.6-1.2-1.2-.1-3.7 3.8-9.2 1.9-2.6 2.7-3.1 3.8-2.1.8.6 1.4 1.6 1.4 2.2s.7 1.9 1.7 2.9c1.5 1.6 1.5 2 0 3.5-.8 1-1.7 3.4-1.9 5.3-.4 4.5 2.4 7.5 8.5 9.2 3.8 1 4.7 1.6 4.7 3.4 0 1.2-.7 2.7-1.5 3.4-1.3 1-1.5 3.2-1.3 10.4l.3 9.1 3.1.3c2.1.2 3.4.9 3.7 2.2.4 1.6 1.6 2 6.8 2.2l6.4.3 3.8 9.4c3.6 8.8 3.8 9.5 2.4 12.5S71.1 355 72.3 355c.3 0 2.8-3.6 5.7-8.1l5.2-8.1 2.2 3.4c1.3 1.8 4.9 7.7 8 13l5.8 9.7 5.1.5c6 .6 37.4 2.1 77.2 3.6 15.4.6 28.9 1.3 30 1.5 1.1.3 5.2 3.4 9 7 6.3 5.9 7.4 6.5 11.3 6.5h4.3l-.3-26.8-.3-26.8 7-10.9c3.9-6 7.5-11 8-11.1.6-.2 4.3 4.6 8.3 10.7l7.4 11.1-.8 26.9-.7 26.9H512V0H0zm350.9-91.6c3.3 1.8 5.9 8.3 4.3 11.1-1.1 2 2.9 15.5 5.3 17.9.8.7 6.7 2.2 13.2 3.1 15.3 2.4 16.3 2.8 16.3 6.2-.1 2.8-4 8.3-6 8.3-.5 0-1 .7-1 1.5s-.3 1.4-.7 1.4c-.5-.1-1.7-.1-2.8 0-1.7.1-1.8.3-.5 1.1.8.5 1.1 1 .5 1-.5 0 .6 1.3 2.5 3l3.5 2.9-3.3.1c-2 0-3.1.4-2.7 1s-.6 1-2.4 1c-3.7 0-4.9 1.7-2.5 3.5 1.8 1.4 1.8 1.4-.4 1.5-1.3 0-2 .4-1.7 1 .3.5-.4 1-1.6 1h-2.1l2.3 1.8 2.2 1.9-4.3-.1c-4.4-.1-4.4-.1-5.2 3.9-.4 2.2-.7 6.5-.7 9.5-.1 3.1-.6 6.1-1.3 6.8-2.1 2.1-.2 2.3 2.5.2 4-3.2 19.8-10.8 24.6-11.9l4.2-.9-.6 4.1c-.9 6.1-2.5 10.8-4.6 13.8-2.7 3.8-1.1 4.6 7.3 3.7 4-.4 13.6-.4 21.3-.1 9.9.4 14.8.2 16.3-.6 4.1-2.2 2.2.5-2.3 3.3-2.5 1.6-4.5 3.1-4.5 3.3 0 .4 11.1 5.6 14.4 6.7 1.9.6 1.9.7 0 2-3 2.2-.3 4.1 7.8 5.6 4 .7 7.7 1.5 8.2 1.7 1.4.9-1.7 2.3-4.9 2.3-7.4.1-6.7 4.2 1.1 6.1 2.6.7 4.1 1.6 3.8 2.3s.7 1.8 2.1 2.6c2.8 1.5 3.5 3.6.8 2.5-1-.4-4.1-1-7-1.4-4.1-.6-5.3-.5-5.8.7-.4 1 0 1.3 1.5.9 1.7-.4 1.8-.3.8 1.6-.9 1.8-.6 2.5 2.6 5.5 4 3.6 4.2 5.1.4 3.1-2.1-1.1-2.2-1.1-.9.4.7 1 1 1.7.5 1.7s-.1.5.9 1.1c3.3 1.9 1.8 3-3.5 2.4l-5.3-.6 5.3 2.6c5.6 2.9 6.5 4.2 3 4.7-4.2.6-2.4 2 6.2 5.2 5.9 2.1 7.8 3.2 6.2 3.4-1.3.2-3.6-.1-5.3-.7-2.7-.9-4.1 0-1.9 1.4.6.3 1 1 1 1.5 0 1-10.6-2.6-12.8-4.3-2.1-1.6-2.6.1-.8 2.8.9 1.4 1.5 2.9 1.2 3.3-.3.5 2.2 1.4 5.5 2.1 4.1.9 5.7 1.7 5 2.4s-2.9.6-6.7-.2c-8.2-1.6-9.4-1.5-8.9.9.2 1.1.7 2.5 1.1 3.2s.3.8-.5.4c-.7-.4-1.9-.5-2.9-.1-1.3.5-1.1.9 1.2 2.4 4.8 3.2 1.1 3.2-4.5.1-3-1.6-5.9-3-6.5-3-.7 0 .4 3 2.4 6.7l3.5 6.7-2.9-2.1c-1.6-1.1-3.8-3.1-4.9-4.3-2.3-2.6-9.4-8-10.5-8-.4 0-1.1 2.1-1.5 4.6-.5 3.5-.3 5 .9 6.3 2 2.2 2.1 3.7.1 2.1-1.5-1.3-2.5.3-4.1 6.5-1 4.1-2.2 2.8-1.7-1.8.5-4 .4-4.1-1.1-2.2s-1.5 1.8-1.6-1.9c0-4.4-2.3-7.6-5.4-7.6-1.2 0-5.2-2.1-9-4.5-7.3-4.7-10.3-5.7-9.2-2.9 2.6 6.8 2.8 10.2.7 14.2-2.9 5.6-7.3 7.6-12.5 5.6-2.8-1.1-5.5-6.9-6.6-14.5-1.6-10.6-2.6-13.1-6.3-16-4.2-3.4-7.1-4.3-8.5-2.7-.5.7-2.6 7.1-4.6 14.3-2.5 8.6-4.4 13.6-5.8 14.7-1.9 1.7-2.2 1.7-4.9.1-3.8-2.3-6.3-7.6-6.6-14.3-.1-3-.2-5.8-.3-6.3 0-.4-.7-.7-1.5-.7-2.7 0-5.5-3.8-5.5-7.5 0-1.9-.4-3.5-1-3.5s-.7 1.8-.3 4.7c.7 5 .2 5.1-4.4 1-1.3-1.1-2.3-1.7-2.3-1.2 0 .4-1.1-.4-2.5-1.9-3.3-3.5-4.9-3.4-4.2.4.7 3.5-.5 4.5-3.4 3-1.6-.9-2-1.9-1.6-4.3.3-2.4-.1-3.6-1.9-5-2.8-2.1-4.3-8.5-2.4-9.7.7-.4 3-1.1 5.2-1.4 3.4-.6 4.1-1.2 5.8-4.9 2.4-5.3 7.9-11.2 13.1-13.9 2.3-1.1 4.2-2.6 4.4-3.2s1.1-3.4 2-6.1c2-6.1 2-5.8.3-12-1.1-4.4-1.7-5-4.2-5.3-2.6-.3-2.8-.6-2.2-3.4 1.5-7.4-2.7-9.7-8.2-4.5-3.4 3.3-4.9 3.4-7.9.5-3-2.8-2.9-4 .5-8 3.2-3.9 4.8-7 6-11.8.7-2.8 1.9-4.1 6-6.5 4-2.2 4.9-3.1 3.7-3.8-1-.5-1.5-2.4-1.5-5.5 0-10.4-2-11.9-14.1-10.5-9.1 1.1-11.3.8-10.5-1.3.3-.8.1-1.4-.5-1.4s-1.7-.7-2.6-1.5c-1.4-1.4-1.4-1.8.1-3.4.8-.9 4.4-3 7.8-4.6 7.9-3.7 7.6-3.4 5.5-4.9-1.5-1.2-2.4-3.6-1.2-3.6.2 0 2 .7 3.9 1.7 3.4 1.6 3.5 1.5 6.5-1 1.7-1.4 4-2.8 5.1-3.2 1.1-.3 2-1.1 2-1.7 0-3.2 8.3-17.8 12-21.1 3.5-3.2 4.6-3.7 9.1-3.7 2.7 0 6.2.6 7.8 1.4"/><path d="M317.3 201.3c-3.7 2.5-4.4 5-1.3 4.5 1.2-.2 3-1.8 4.1-3.6 2.4-3.7 1.7-3.9-2.8-.9M442 230c0 .5.5 1 1.1 1 .5 0 .7-.5.4-1-.3-.6-.8-1-1.1-1-.2 0-.4.4-.4 1m-14.4 3.1c.8 1.3 9.5 5.1 10.1 4.5.8-.8-.8-2.7-1.8-2.1-.5.4-.9.2-.9-.4s-1-1.5-2.1-2.2c-1.5-.8-1.9-.8-1.5 0 .4.6.3 1.1-.3 1.1-.5 0-1.3-.5-1.6-1-.3-.6-1.1-1-1.6-1-.6 0-.7.5-.3 1.1"/></svg>