<svg xmlns="http://www.w3.org/2000/svg" width="682.667" height="512" version="1.0" viewBox="0 0 512 384"><path d="M0 143.6C0 271.2.2 287.1 1.5 286c.8-.7 1.5-1.8 1.5-2.5 0-1.5 2.7-2.8 4.1-1.9.5.3.9 1.6.9 3 0 1.5.6 2.4 1.5 2.4 2 0 2 3.6 0 4.4-1.1.4-1.5 2.1-1.5 6.4 0 6.5 0 6.5 9.5 10 5.4 1.9 6.9 4.8 4.3 7.9-.8 1-1.4 5.4-1.6 12.4l-.4 10.9h3.1c1.8 0 4 .9 5.1 2 1.5 1.5 3.3 2 7.8 2 3.1 0 6.2.4 6.8.8s3.1 5.6 5.5 11.5c3.5 8.7 4.1 11 3 11.7-1.4.8-2.9 7.8-3 13.7L48 384h183.6l7.9-12.6c4.4-6.9 8.3-12.7 8.6-13 .3-.2 4.6 5.5 9.4 12.6l8.9 13H512V0H0zm367.8-96.1c4.3 3.6 5.8 7.9 4.3 12-1 2.8-.8 4.3 1.8 12 1.7 4.8 3.2 9 3.5 9.3.3.2 7.9 1.7 16.9 3.2s16.9 3 17.5 3.4c2.3 1.4 1.2 6-2.3 9.8-2 2.1-4 3.8-4.5 3.8-.6 0-1 .4-1 1 0 .5-.9 1-2.1 1-1.1 0-1.8.4-1.4.9.3.5 0 1.3-.6 1.7-.7.4.9 2.6 4.1 5.9l5.2 5.3-5.8-.5c-3.3-.2-6.6-.6-7.4-.9-1.1-.3-1 0 .3 1 2.2 1.7 2.2 2.6-.1 2.6-1.1 0-2.9.9-4.2 2-2 1.7-2.1 2.2-.9 3.6 1.3 1.6 1.1 1.7-1.3 1.2-2.1-.4-2.8-.1-2.8 1 0 1.2-.3 1.3-1.1.5-2.1-2.1-3.9-.4-3.2 2.9.4 2.2.3 2.9-.5 2.4-.9-.5-1.2 1.4-1.2 7.1 0 4.7-.6 8.9-1.4 10.5-.8 1.5-1.2 2.9-.9 3.2.3.2 2.8-1 5.6-2.8 9.9-6.3 22-11.6 29.4-13l3.3-.5-.6 4.7c-.4 2.6-1.4 7.1-2.4 10-2.2 6.7-2.1 6.7 10.8 5.6 5.3-.4 11.5-.7 13.7-.6 12.6.4 26 1.3 26.3 1.7.3.2 1.7-.2 3.3-1 7-3.7 5.6-.3-1.7 4-2.4 1.4-4.4 2.7-4.4 2.9 0 .8 10.8 6.4 15.9 8.2 4.4 1.5 4.9 2 3 2.4-1.2.3-2.4 1-2.6 1.5-.7 2.3 1.9 3.7 10.1 5.5 12.2 2.7 13.1 3.4 5.9 4.9-5.5 1-8.3 2.5-8.3 4.2 0 .8 4 2.4 10 4 3.5.9 4.1 1.3 2.6 1.8-1.6.6-1.1 1.2 3.2 3.9 2.9 1.8 5.2 3.4 5.2 3.6 0 .3-2.1-.1-4.7-.9-2.7-.7-5.5-1.3-6.3-1.3s-2.7-.3-4.1-.6c-1.8-.5-3-.2-3.8.8-1.2 1.4-1 1.6 1 1.6 1.3 0 3 .4 3.8.9 1 .6.5 1.1-1.9 1.6l-3.2.7 2.9 3c1.5 1.6 4 3.7 5.6 4.6 1.5.9 2.7 2.1 2.7 2.6s-.3.6-.7.3c-.3-.4-1.3-.1-2.1.6-1.1.8-1.3.8-.9 0 .5-.7 0-.9-1.5-.5-2.1.5-2.1.6.5 2.6 1.5 1.2 2.7 2.5 2.7 2.9 0 .8-7.4.1-11.2-1-1-.2-1.8 0-1.8.6s1.2 1.4 2.8 1.7c4.2 1.1 11.8 4.8 13.8 6.8 1.7 1.8 1.7 1.8-.1 1.3-1.1-.3-3.4-.8-5.2-1.2-2.8-.5-3.1-.4-2.6 1.3.3 1.4 3 2.9 9.4 5.2 9.1 3.3 11.9 5.6 5.2 4.4-2.1-.4-4.6-1.1-5.5-1.5-2.9-1.6-3.2-1-.8 1.6 1.3 1.4 2.1 2.7 1.8 3.1-.3.3-4.6-1-9.4-2.9-4.9-1.9-9.2-3.3-9.7-3-.4.2.4 1.8 1.8 3.5 1.4 1.6 2.5 3.3 2.5 3.7 0 .5 2.6 1.6 5.8 2.6 3.1 1 6.1 2.1 6.7 2.6 1.4 1.4-7.4 1.1-13.4-.5-5-1.3-5.2-1.3-4.8.5.3 1.2 0 1.9-.9 1.9-1.7 0-1.8 1.2-.1 2.9 1 1 .9 1.2-.3 1.1-4.8-.7-5.2.8-1 3.4 1.7.9 2.8 2.1 2.5 2.6s-4.4-.9-9-3.2c-8.7-4.3-11.4-4.5-7.8-.5 1.8 1.9 6.3 10.9 6.3 12.5 0 .3-1.6-.9-3.5-2.8s-3.5-3-3.5-2.5-.7-.1-1.6-1.3c-1.9-2.8-13.3-11.2-15.1-11.2-1.6 0-1.7 1.2-.3 2.6.7.7.7 2 .2 3.5-1.1 3.1-1 3.7 1.1 7.7 1 1.7 1.3 3.2.8 3.2s-1.3-.4-1.6-1c-.9-1.4-2.6-1.2-2.3.2.4 2.1-2.3 11.7-3.4 12.5-.8.4-.9-1.5-.5-5.8.5-5.3.4-5.9-.5-3.5l-1.1 2.9-1.3-2.4c-.7-1.3-1.3-3.8-1.4-5.5 0-3.7-1.9-5.6-6-5.9-1.5-.2-6.1-2.6-10.1-5.4s-8.3-5.1-9.6-5.1c-2.2 0-2.3.3-1.8 3.4.4 1.9.4 4.4 0 5.7-.7 2.2-.8 2.2-2.2.3-1.4-1.7-1.5-1.3-1.1 4.8.3 4.4 0 6.7-.7 6.6-.5-.2-2.4.7-4.2 2-4.4 3.1-8.5 2.8-12.7-.8-3.6-3.2-5.1-6.5-6.1-14-1.1-8.7-3.9-18.2-5.5-18.8-.8-.3-2.6-1.5-4-2.7-1.4-1.3-3.5-2.6-4.7-2.9-2-.6-2.4 0-5.2 9.1-1.6 5.4-4 13.4-5.2 17.8-2.5 9.4-3.2 10.5-6.8 10.5-6 0-11-8.6-11.1-19 0-7.5-.3-8.1-4.7-10.4-1.9-.9-3.5-2.7-3.9-4.1-.5-2.1-.9-2.3-2.1-1.4-.9.9-1.1 1.5-.3 2.3.5.5 1 2.6 1 4.5v3.5l-5.1-5.7c-2.8-3.1-5.7-5.7-6.4-5.7s-1.5-.7-1.9-1.5c-1-2.8-2.8-1.6-2.4 1.6.6 4-1.8 5.1-4.4 1.9-1.3-1.6-1.7-3.2-1.3-5.2.5-2.1.2-3-1-3.4-2.1-.9-4.5-5.6-4.5-9.2 0-2.7.5-3.1 4.4-4.1 4.1-1 4.8-1.7 7.7-7.1 2.7-5.2 11.1-14 13.3-14 .4 0 2.4-1.1 4.5-2.4 3.2-2 3.9-3.2 4.5-6.8.4-2.4 1.4-5.4 2.3-6.7 1.2-1.9 1.3-3.1.5-6-5-17-7.7-25.1-8.3-25.1-1.4 0-3.1 7.1-2.5 10.4.6 2.9.3 3.4-1.5 3.9-1.2.3-3.2.2-4.5-.4-2.1-.7-2.3-1.2-1.4-2.8 1.7-3.4 1.2-8.8-1.1-11l-2.2-2-5.1 3.5c-5.9 4-8.9 4.3-11 1.2-2.7-3.9-1.9-5.8 6-13.1 4.2-3.9 8.1-8.5 8.8-10.1.9-2.4 2.4-3.4 7.1-5.1l6-2.1-.4-7c-.4-9.1-3-13.8-7.3-13.2-1.6.3-3.1.1-3.4-.3-.2-.4-1.9-.2-3.7.6-1.7.7-5.8 1.3-9.1 1.4-5.3 0-5.8-.1-5.3-1.9.3-1.3 0-2-.9-2-.8 0-1.4-.5-1.4-1 0-.6-.7-1-1.5-1-4.6 0 1.7-6 10.2-9.7 3.5-1.5 6.3-3 6.3-3.4s-.7-1.2-1.5-1.9-1.5-1.9-1.5-2.6c0-1.1 1.1-1 5 .6 2.7 1.1 5.2 1.5 5.5 1s2.8-2.3 5.5-4.1c3.6-2.3 5.3-4.2 6.1-6.8 2.3-7.3 8.2-17.1 13-21.6 4.7-4.4 5-4.5 11.3-4.5 5.4 0 6.9.4 9.4 2.5"/><path d="M327.5 212.3c-3.1 2.2-5.4 4.7-5.5 5.8-.1 1.8 5.4-.8 7.5-3.6 3.9-5 3.1-6-2-2.2m138.7 37.9c.3.7 3 2.2 6.1 3.4 5.3 2.1 5.5 2.1 4.4.3-.6-1-1.5-1.9-1.9-1.9h-1.3c-.3 0-2.1-.6-4.1-1.5-2.5-1-3.4-1.1-3.2-.3m-38.2 9.2c0 .2.7.7 1.6 1 .8.3 1.2.2.9-.4-.6-1-2.5-1.4-2.5-.6"/></svg>