<svg xmlns="http://www.w3.org/2000/svg" width="682.667" height="512" version="1.0" viewBox="0 0 512 384"><path d="M0 192v192h512v-92.5l-3.3-2.1c-1.7-1.2-5.4-3.4-8.1-4.9l-4.8-2.8.7 2.4c.9 2.9.4 2.3 3.9 4.1l3 1.6-3.2 1.6c-3.6 1.8-3.9 2.8-1.7 4.6.8.7 1.5 2 1.5 2.9s.9 2.7 2 4.1c3.3 4.2 2.3 5.7-1.4 2.1l-3.5-3.4-.5 2.4c-.3 1.3-1.1 5.7-1.7 9.6-1.6 9.8-3.3 9.4-2.7-.5.4-6 .2-7-.5-4.5-1.1 3.8-3.2 4.5-2.3.9.4-1.5 0-2.8-.9-3.6-.8-.7-1.6-2.7-1.6-4.4l-.2-3.1-.6 3.5-.7 3.5-.6-3.5c-.3-1.9-.1-3.7.4-3.9.5-.1.1-.9-.9-1.6-1.3-1-2-1-2.5-.2-1 1.6-7.8-1.9-16.1-8.3-4.2-3.2-8.7-5.6-11.7-6.4l-5-1.3.7 2.6c.3 1.4 1 3.4 1.4 4.3 1.3 2.5 1.1 6.1-.3 5.2-.8-.5-.9 0-.6 1.4.9 3.4-1.6 2.6-3.5-1.1l-1.7-3.2.5 3.5c.2 1.9.7 6.6 1.1 10.5 1.1 11.4-1.8 6.4-5.6-9.8-1.7-7.5-3.4-13.7-3.7-13.7-.2 0-.1 1.9.2 4.2 1 5.8 1.3 12.8.6 12.8-.4 0-1.4 1.5-2.4 3.3-2.4 4.3-6.5 6.7-11.7 6.7-5.4 0-7.3-1.1-10.9-6.4-2.4-3.5-3.4-6.5-4.6-14.3-2.2-14-4.4-21-6.9-22.6-1.1-.8-3.3-2.6-4.7-4.1-1.4-1.4-3.6-2.7-4.9-2.8-2.1-.3-2.6.7-5.6 10.2-1.8 5.7-3.6 11.8-3.9 13.5-.4 1.6-1.3 5-2 7.5-.8 2.5-1.9 6.4-2.5 8.8-1.2 4.9-4.1 8.2-6.9 8.2-2.9 0-7.9-4.7-10.5-9.9-1.8-3.4-2.5-7-3-13.6-.9-14.4-.6-13.7-6.4-15.3-4.1-1.2-5.5-1.2-6.7-.2s-1.2 1.5 0 3.4c1 1.5 1.3 3.4.9 5.6l-.7 3.3-2.8-5.6c-2.5-4.8-3.6-5.9-8.4-8.1-3-1.5-5.5-3.1-5.5-3.6 0-.6-.9-.5-2.1.2-1.8 1.1-2.3 1-4-1.2-1.6-1.8-1.9-3.2-1.4-5.8.5-2.8.2-3.7-1.5-4.9-2.5-1.8-5-7.1-5-10.6 0-2.4 3.3-4.7 6.8-4.7 1.1 0 2.7-2.1 4.5-6 3.6-7.5 9.5-12.8 19.8-17.7 7.8-3.8 7.9-3.8 8.5-8.3.3-2.5 1.7-7 3.1-10 2.2-5.2 2.3-5.8.9-8.5-.9-1.7-1.6-3.7-1.6-4.5s-1.9-7.6-4.2-15.1l-4.3-13.6-5.7.2c-3.1.1-6.3.6-7 1.3-.7.6-1.9 3.2-2.7 5.8-1.1 3.7-1.2 5.4-.3 7.8 1.5 3.8.5 4.8-4.4 4.4-3.3-.3-3.8-.6-3.5-2.3.5-2.7.2-13.7-.4-14.4-.3-.3-3.1.7-6.1 2.2-5.6 2.8-5.6 2.8-8.7.9-1.8-1-3.6-3-4.1-4.4-.8-2.2-.5-3.3 1.8-6.2 1.5-2 3.2-4.9 3.7-6.5 1.5-4.3 10-11.1 14-11.1q3.15 0 5.4-2.4c1.5-1.7 3.8-2.6 7.1-3.1 2.7-.3 6-1.1 7.3-1.6 2.3-.9 2.3-1.2 1.6-8.7-1.2-12.6-3.3-15.2-12.1-14.5-7 .5-15.3 1.2-17.4 1.4-3.9.5-5.2-.1-4.7-2.1.3-1.1.1-2-.5-2-.5 0-1.6-.6-2.4-1.4-.7-.8-1.9-1.6-2.6-1.9-2.4-.8 4.2-6.5 12.1-10.3 4.2-2.1 7.8-3.9 8-4.1.3-.2-.6-1.4-1.9-2.8-3.4-3.6-1.9-4.1 4.6-1.6l5.6 2.1 3.6-3.4c1.9-1.9 4.7-4 6.2-4.6 2.1-.9 3.4-2.8 5.6-8.3 5.4-13.6 13.3-25.1 19.5-28.3 4.2-2.1 15.7-1.8 19.2.5 6.2 4 9.6 12.3 6.2 15.1-.8.7-1.5 1.9-1.5 2.7 0 2.3 7.1 23.3 7.9 23.3 2.2 0 41.2 6.9 42 7.5 2.3 1.4 1 5.8-2.9 10.2-2.2 2.5-4 5-4 5.6 0 .5-.9.7-2.1.4-1.5-.4-2.2.1-3 1.9-.5 1.4-.9 2.7-.9 2.9s2.7 2.3 6 4.6 5.9 4.4 5.6 4.6c-.2.2-4.1.6-8.7.8-7.4.5-9.8 1.3-9.9 3.6 0 .3 1.2 1 2.8 1.5l2.7 1.1-4 1.1c-2.2.7-5.1 1.2-6.5 1.2h-2.5l2.5 2 2.5 2h-2.8c-3.5 0-2.8 1.4 2.1 4 4.3 2.2 2.4 2.5-3.3.5-2.2-.8-4.2-1.5-4.4-1.5s0 1.1.3 2.5c.6 2.5.6 2.5-1.7 1-3-1.9-3.7-1.2-3.7 3.9 0 3-.3 3.7-1 2.6-.7-1-1 1-1 6.7 0 5.6-.5 9.4-1.7 11.8-.9 1.9-1.4 3.7-1.1 4 .2.3 4.4-1.7 9.2-4.5 13.5-7.8 26.3-12.8 34.3-13.6l4.6-.4-.7 5.8c-.3 3.1-.9 6.7-1.2 7.9-1 3.6 2.4 4 22.1 3 15-.8 19.5-.7 26.5.5 4.7.9 10 1.4 11.8 1.1l3.2-.5V0H0z"/><path d="M343 227.3c-3 1.4-8 5.7-8 6.9 0 .4.8.8 1.8.8 1.7 0 4.7-2.7 8.1-7.3 1.5-2 1.5-2-1.9-.4m133.3 64.3c2.1 1.4 4.1 2.4 4.3 2.1.7-.7-5.1-4.7-6.7-4.7-.8 0 .4 1.2 2.4 2.6m11.9 10.4c0 1.4.2 1.9.5 1.2.2-.6.2-1.8 0-2.5-.3-.6-.5-.1-.5 1.3"/></svg>