<svg xmlns="http://www.w3.org/2000/svg" width="682.667" height="512" version="1.0" viewBox="0 0 512 384"><path d="M194.6 11.1c6.3 12.7 7.6 19.6 6.8 34.4-.8 13.3-.8 13.3-5.2 13.7-3.1.2-3.6.6-3.4 2.3.6 3.3.5 5.1-2.3 31-1.4 13.7-2.8 26.6-2.9 28.6-.2 1.9-.8 4.5-1.5 5.7-1.8 3.4-1.3 4.1 3.2 5.3 3.9.9 4.3 1.3 4.1 4-.3 3.6 2.3 31.8 3.2 35.3.4 1.9-.2 4.5-2 8.5-3 6.7-4.8 14.9-7 31.6-.9 6.6-2.1 14.3-2.7 17.1l-1 5.1-6.5 1.2c-20.3 3.7-31.3 16.3-28.5 32.4 1.4 7.9 5.5 15.9 10.3 20.3 3.2 2.9 3.7 3.8 2.8 5.4-.5 1-1 2.7-1 3.7s-1.2 4-2.5 6.8c-1.4 2.7-2.5 6.1-2.5 7.6 0 1.4-.4 2.9-.9 3.5-.6.5-1.2 2.8-1.5 5.1s-1.5 5.6-2.7 7.2c-1.2 1.7-1.9 3.7-1.6 4.6.4.8-.4 3.9-1.7 6.8-2.3 4.9-10.7 25.4-11.9 28.7-.3.8-2.1 5-4.1 9.2l-3.5 7.8h275.8l.5-4.3c.3-2.3 1-8.9 1.6-14.7 1.5-14.2 9.2-49 10.8-49 .4 0 1.8 1.7 3.2 3.7 2.5 3.6 2.5 3.9 2.5 25.7 0 12.2.1 25.8.3 30.3l.2 8.3h89v-15.2c0-14.8-.1-15.6-4.5-31.7-2.4-9.1-4.7-18.5-5.1-20.8-.8-5 1.2-11.5 6.1-19.6 3.4-5.7 3.5-6 3.5-16.6v-10.8l-4.7-1.4c-3-.9-9.1-1.4-16-1.3l-11.1.1-2.1-9.1c-3.8-16.3-6-29-7.1-40.7-2.4-25.3-3.9-34.1-6.5-39.6-4.5-9.1-19.7-20.4-37.6-27.8l-8.5-3.5 4.3-8.6c4.3-8.7 5.5-14.7 3-15.7-.8-.3-4.4-.8-8-1.2-6.7-.7-6.7-.8-7.6-4.4-1.7-6.5-3.4-16.1-2.9-16.6.3-.3 3 3.4 6.1 8.2 6.1 9.4 7.5 10.2 2.7 1.5-5.3-9.6-5.4-10.5-2.6-25.3 1.8-9.8 3.7-16.4 7.1-24.4 5.6-13.2 12.9-36.3 14.6-45.9.9-5.1 1.4-6.5 2.1-5.2 1.2 2.1 3.6 2.1 6 0 1.4-1.4 2-1.4 3.3-.4 1.2 1 1.6.9 2.2-.6.3-1.1 1.5-3.1 2.5-4.7l1.9-2.7h-264zm224.5 18c-.8 3.8-.9 4-1 1.2-.1-1.7.2-3.9.5-4.8 1.1-2.9 1.4-1 .5 3.6M223.5 131c.3 4.7.5 9.2.6 10 .4 3.3-.2 4.9-2.1 5.5-1.1.4-2 1.5-2 2.6 0 1.8-1.6 3.6-8.1 9.6-1 .8-1.9 1.1-2.1.6-.8-1.3 2.7-23.2 3.8-24.3q1.05-1.05 3.9 0c3.5 1.3 3.8 1 2.2-2.8-1.1-2.6-1-4.6.2-12.4l1.6-9.3.8 6c.4 3.3 1 9.8 1.2 14.5"/></svg>