<svg xmlns="http://www.w3.org/2000/svg" width="682.667" height="512" version="1.0" viewBox="0 0 512 384"><path d="M0 192v192h512.2l-.5-4.2c-.2-2.4-1.8-8.3-3.6-13.3-1.7-5-4.3-13-5.7-17.8-1.6-5.2-3-8.4-3.4-7.6-.5.7-1-.4-1.4-2.7-.4-2.2-1.2-4.6-1.7-5.4-.8-1.2-.9-1.1-.5.5.9 3.9 1.8 11 1.3 10.5s-4.2-12.7-5.2-17.1c-2-9-3.9-12-8.4-13.4-2.6-.8-2.5-.3 1.4 5 6.5 8.8 7.6 15.8 1.6 10.1-1.5-1.4-3-2.6-3.4-2.6-.6 0 3.4 7.8 7.4 14.6 2.7 4.4 4.9 11.3 4 11.9-1 .6-6.1-4.5-9.4-9.2-1.2-1.8-2.5-3.3-2.9-3.3s-1.4 1.3-2.2 2.9c-5.5 10.6-18.7 13-26.2 4.8-6.2-6.8-7.5-9.6-9.1-19.5-.8-5.3-2.6-14.2-3.9-19.7-1.9-8.1-2.9-10.4-5.1-12.3-1.6-1.3-4.4-3.8-6.4-5.7-3.8-3.6-4.9-3.3-4.9 1.5 0 1-1.5 3.8-3.3 6.2-1.9 2.4-4.4 7.8-5.7 11.9-2.6 8.4-2.7 8.9-6.9 25.4-2.4 9.5-3.5 12.5-5.6 14.3-3.2 2.7-5.1 2.8-9.5.1-4.3-2.7-5.8-4.7-9.3-12.9-2.4-5.6-2.7-7.7-2.6-15.4.2-9.3-.4-10.6-4.7-10.6-1.2 0-2.7-.6-3.3-1.4-.6-.7-2.6-1.6-4.3-2-3.5-.7-4.8.4-4.8 4.4 0 2.4-.1 2.4-2-.8-1.5-2.5-2.7-3.2-5-3.2-3.7 0-8.5-2.3-9.3-4.5-.4-.8-1.3-1.5-2.1-1.5-1.2 0-2.4-1.6-2.3-3 0-.3-.5-1.5-1.2-2.8s-1.4-3.3-1.6-4.4c-.3-1.2-1.4-3.2-2.7-4.5-2.9-3.1-3.6-6.2-2.4-10 .6-1.8.2-2.5-1.7-3.4-3.7-1.7-7.7-12.6-5.8-15.8.5-.7 2.9-1.5 5.4-1.8 4-.5 4.7-.9 5.8-3.7 1.3-3.4 9.3-11.7 14.9-15.5 4.5-3.1 16.2-9.1 17.7-9.1 1.3 0 2.8-4.4 3.7-10.7.7-4.5 2.9-10.1 5.8-14.4 1.7-2.5 1.7-2.7-.2-4.4-1.8-1.6-2.3-3.2-3.5-10.1-.3-1.8-1.6-6.5-3-10.5-1.4-4.1-3.7-10.9-5.1-15.1-2.4-7.3-2.7-7.6-4.9-6.8-1.4.5-3.6.5-5.7-.2-2.6-.8-4.2-.7-7.2.6-3.5 1.5-4 1.5-6.7-.1-2.9-1.7-3.1-1.7-8.7 1.2-4.9 2.6-5.8 3.5-6.6 6.7-.7 2.6-.5 4.9.4 7.7 1.6 5 .8 6.1-4.3 6.1-5.2 0-7.7-1.4-5.9-3.2.6-.6 1.2-2.8 1.2-4.8 0-3-.9-4.6-5.3-9.3-4-4.2-5.7-5.3-6.5-4.5s-1.4.4-2.2-1.8c-.9-2.2-1.3-2.5-2-1.4-1.5 2.5-3.3-3.3-2.6-8.4.9-5.6 2.9-8.2 10.7-13.4 7.4-5 11.7-5.5 15.4-1.7 1.8 1.8 2.5 3.5 2.5 6.5 0 3.8.2 4 2 3 1.1-.6 2-1.7 2-2.4 0-.8 1.6-2.3 3.5-3.5 2.5-1.4 3.7-3 4.2-5.2.8-4 4.8-6.5 12.1-7.4 11.4-1.3 10.6-.4 9.9-11.6-.5-8.4-1-10.4-3.3-13.9-1.5-2.2-2.9-4-3.3-4.1-4.4-.6-12.3-.2-14.7.8-1.8.7-5.4 1.2-8 1.1-2.7-.1-5.3 0-5.9.1-.5.2-2.2.3-3.7.2-2.5-.1-2.7-.4-2.2-3 .6-2.7.4-2.9-1.5-2.4-1.6.4-2 .2-1.5-1 .4-1.1-.1-1.6-1.7-1.9-1.2-.2-2.4-.9-2.7-1.6-.7-2.2 7.2-8.5 16.3-13.1 8.7-4.2 8.7-4.2 6.7-6.1-1.3-1.2-1.8-2.7-1.5-4 .3-1.1.7-2 .8-2 .2 0 2.7 1.1 5.7 2.5 2.9 1.4 5.8 2.5 6.5 2.5s2.9-1.6 5-3.5c2-1.9 5.2-4.2 6.9-5.1 2.3-1.2 3.8-3.4 5.9-8.3 7-16.7 12.9-26.3 20.2-33.2 6.8-6.4 8-6.9 17.3-6.9 10.4 0 13.8 1.5 19.6 8.7 4.8 5.9 4.9 8.1.3 11.4-1.6 1.1-2.9 2.5-2.9 3.2 0 1.1 6.3 21 8.1 25.8 1.2 3 2 3.2 34.7 7.8 12.5 1.8 19.8 3.3 20.8 4.2 2.2 2.3.7 7.4-3.7 11.9-2.2 2.2-3.9 4.5-3.9 5.1 0 .5-.4.8-.9.5s-1.1.4-1.4 1.5c-.4 1.6-1.1 2-2.6 1.6-2.8-.7-3.7 1-1.6 3.3 1.9 2.1 1.3 4-1.3 4.1-.9 0 .3 1 2.8 2.2 9.3 4.6 14.9 8 14.4 8.9-.3.4-4.2.6-8.7.3-7.1-.4-8-.3-6.4.9 2.8 2.2 2 2.9-2.7 2.3-3.9-.6-4.6-.4-6 1.8-.9 1.4-2.6 2.5-3.9 2.5-1.5.1-.5 1 3.6 3.1 3.1 1.6 5.7 3.1 5.7 3.3 0 .3-3.5.2-7.7-.1l-7.8-.6 2 2.3c2.1 2.5 2.1 2.5-3 .4-3.5-1.4-1.2 2.8 3.5 6.3 2.7 2 4.8 3.8 4.6 4s-2.7-1-5.5-2.7c-5.9-3.4-6.4-3.5-8.1-1.5-1.1 1.3-1.4 1.3-2.7-.1-2.4-2.4-3.8-1.1-4.1 3.9-.3 4.4-1.5 6.2-2.5 3.4-.2-.6-.6 4.3-1 11-.4 9-1 12.9-2.3 14.8-1.6 2.4-1.6 2.7.1 4.5 1.8 2 1.9 2 3.9.1 8.3-7.6 39.6-20.3 52.9-21.5l6.8-.5-.6 5.7c-.4 3.1-.8 6.1-.9 6.7 0 .6 2.8 1 6.9 1h7l.3-78.8L512 0H0z"/><path d="M490.5 319c.2 1.1.8 2.8 1.4 3.7.8 1.5 1 1.2.8-1.4-.1-1.8-.7-3.5-1.4-3.7-.7-.3-1 .3-.8 1.4m19.6 32.2c.1 1.8.5 4.6.9 6.3.6 2.5.8 2 .9-2.7 0-3.1-.3-6-.9-6.3-.6-.4-1 .7-.9 2.7"/></svg>