<svg xmlns="http://www.w3.org/2000/svg" width="682.667" height="512" version="1.0" viewBox="0 0 512 384"><path d="M0 192v192h374l-1-2.3c-2.2-5.1-3.9-15.7-3.4-20.9.6-5.2 4.3-16.3 6.9-20.4.8-1.2 1-2.6.5-3.4-.6-.9-1-.6-1.5 1.1-.4 1.3-1.8 3.5-3.1 4.8-2 2-2.4 2.1-2.4.7 0-1-1.3-3-2.9-4.6-3.3-3.3-4.6-9.4-3-13.6.9-2.6.7-3.1-2.5-5.9-6.1-5.2-9.9-17.8-6.4-21.3 1.8-1.8 18.9-1.6 21.4.3 3 2.3 4.2 1.8 10.7-4.1 3.4-3.1 9.6-7.8 13.7-10.4 16.6-10.8 15.2-9.1 17.7-21.7 2.2-11.1 5.2-18.8 10-25.1l2.5-3.4-3.5-3.6c-3.4-3.5-4.1-5.1-5.1-11.2-.9-5.9-4.1-16.3-8.1-27-2.3-6.3-5-14.3-6-17.8-1-3.4-2-6.2-2.4-6.2-.3 0-2.1.4-3.9 1-2.6.7-4.4.5-8.2-1-4.9-1.9-5-1.9-9.2 0-5.5 2.5-7.3 2.5-10.9-.1l-3-2.1-8.2 3.5c-27.3 11.7-33.8 10.4-43.3-8.6l-3.5-6.9-2.8 2.6c-1.5 1.4-3.2 2.6-3.9 2.6s-1.2.7-1.2 1.5c0 .9.9 1.5 2.3 1.5 6.2.1 6.5.5 5.1 8.3-1.6 9.1-1.7 14.8-.3 18.4 2.4 5.9 2 7.2-2.3 8.3-3.5 1-14.8.5-14.8-.7 0-.2.7-1.8 1.6-3.5 1.7-3.3 1.5-8.3-.6-13.3-.9-2.1-1.1-5.1-.6-9.7.7-6.2.9-6.7 3.3-7 3.1-.4 4.4-2.8 1.5-2.8-1.1 0-3.4-1.4-5.2-3-1.8-1.7-3.5-2.8-3.8-2.5s0 3.4.7 7c1.9 9.4-.4 11.4-5.7 5l-2.9-3.5-1.1 2.5c-1.4 3-2.8 3.2-3.7.6-.3-1-1.4-2.9-2.5-4.1-2.8-3.2-2.5-8.6.6-14.9 3-5.9 6.6-8.9 18.1-14.9 15.7-8.1 19.6-7.9 28.4 1.6 3 3.1 8 8.1 11.2 11.1 5.2 4.8 6.1 5.3 7.8 4.3 1.1-.7 5.1-2.9 8.8-4.8 5.1-2.6 6.8-4 6.5-5.2s1.1-2.6 4.7-4.7c4.6-2.6 5.4-3.6 6.3-7.5 1-3.9 1.7-4.8 5.6-6.7 2.8-1.4 8-2.6 14-3.3 13.6-1.5 13-1.1 13-8 0-10.2-2-21.2-4.6-25.3-1.3-2-2.9-3.7-3.5-3.7-.5 0-.8-.4-.5-.8 1.1-1.9-4.2-3.5-9-2.7-3.1.4-4.9.3-5.4-.5s-2.3-.5-6.1 1.1c-3.1 1.3-8.2 2.3-11.9 2.5-3.6.2-9.5.6-13.2 1-7.2.7-7.3.6-5.9-4.2.8-2.9.8-3-2-2.6-2.3.3-2.8.1-2.3-1.1.4-1.2-.4-2-3-3.1-2-.8-3.6-2.1-3.6-2.8 0-4.2 13.5-15.3 25.3-20.8 8.3-3.9 9-4.8 7.1-8.5-.8-1.5-1.3-3-1-3.2.2-.2 2.9.6 6.1 1.8 7.9 3 12.5 2.2 17.9-2.9 5.9-5.6 10.7-9 13.5-9.4 2.1-.2 3-1.7 5.6-8.3 1.7-4.4 3.9-9.5 4.8-11.4S414 .5 414 .3c0-.1-93.1-.3-207-.3H0zM493.2 1.2c.3.7 2 6.2 3.8 12.1 1.9 6 4.1 11.2 5 11.6.8.5 3.4 1.1 5.8 1.4l4.2.5V0h-9.6c-7.3 0-9.5.3-9.2 1.2M508.6 133c.5 3 .9 12 .9 20 0 12.8-.3 15.1-2.2 19.3l-2.2 4.8 2.6 5.5c1.4 3 2.9 5.7 3.4 6s.9-12.1.9-28.4c0-28.3 0-28.9-2.1-30.8l-2.2-1.9z"/><path d="M303.5 149.1c-.8 3.7.4 5.2 3.6 4.7 1.8-.2 2.5-1 2.7-3.2.6-5.2-5.2-6.6-6.3-1.5m206.3 227.5c-.3.5-.4 2.2-.4 3.8.1 3.9 2.6 4.8 2.6.9 0-3-1.5-6.1-2.2-4.7"/></svg>