<svg xmlns="http://www.w3.org/2000/svg" width="682.667" height="512" version="1.0" viewBox="0 0 512 384"><path d="M195.7 1.7c.3 1 2.5 6 4.9 11.1 4.3 9.2 4.3 9.2 3.7 18.2-.5 7.7-.3 9.3 1.3 11.7 4.8 7.1 5 8.9 2.7 22-.5 3.1-.7 3.2-4.5 2.8-3.6-.3-3.8-.2-3.1 1.8.4 1.2.7 3.3.6 4.7-.1 2.5-3.1 29.3-3.8 34-.2 1.4-.9 7-1.5 12.5s-1.4 10.7-1.7 11.5c-1.3 3.1-1.1 7.1.3 6.6.7-.3 1.6-.1 1.9.4.4.6 1.5 1 2.6 1 1.7 0 1.9.7 1.9 6.7 0 3.8.5 12.2 1.2 18.9 1.1 11.5 1.1 12.3-.9 16.5-3.3 6.9-5.8 17.6-7 29.4-.3 3.3-1.3 9.5-2.2 13.9l-1.6 7.9-8.8 1.8c-9.2 1.8-15.7 4.6-19.3 8.3-10.2 10.2-8.2 31.1 4.3 43.2l2.1 2.2-2.4 6.8c-1.4 3.8-4.1 11.9-5.9 18-1.9 6.2-4.3 13.2-5.4 15.6s-5.4 12.4-9.7 22.3c-4.2 9.9-9.2 21.3-11 25.2l-3.3 7.3h135c107.6 0 134.9-.3 134.9-1.3 0-4.5 3.3-28.2 5-35.9 2.3-10.3 6.9-27 7.6-27.8 1.9-1.9 2.3 5.7 1.7 33.7l-.6 31.3h46.6c25.7 0 46.7-.3 46.7-.8 0-.4-.6-3.9-1.5-7.7-.8-3.9-3.1-15.1-5.1-25s-4.2-20.3-5-23c-3.7-13.5-2.7-17.3 8.6-32.7 8.3-11.1 9-14.7 3.9-19.7-3.9-4-11-6-23.6-6.8l-10.2-.6-1.1-5.1c-2.9-13.7-5.1-30.9-6.1-48.1-1.1-20.2-1.9-25.6-4.9-32-2.4-5.3-8.7-11.4-17.6-17.1-5.9-3.8-19.9-10.8-23.3-11.7-2.1-.5-2-.7 1.4-7.8 3.6-7.6 4.7-15.1 2.3-16.6-.7-.4-3.1-1-5.3-1.3-3.3-.4-4.3-1.1-6.2-4.5-1.2-2.2-3-6.4-3.9-9.4-1.7-5.2-1.7-5.6.5-15.5 1.3-5.7 5.1-16.7 8.7-25.4 7.1-17.1 13.5-36.9 15.4-48 1.4-7.8 2.2-9.1 4.5-7.2 1.2 1 2 .9 3.9-.4 1.4-.9 3.1-1.3 3.9-1 2.2.8 6.9-8.2 6.5-12.6l-.3-3.5L324.3.2C201.5 0 195.1.1 195.7 1.7m223.8 38.8c-.4 2.6-1.1 4.3-1.6 3.8-.4-.4-.3-2.7.3-5.1 1.4-5.5 2.2-4.7 1.3 1.3m-7.1 83.1c1 2.6.7 3.4-1.1 3.4-2.8 0-4.7-1.6-4-3.4.8-2.1 4.3-2.1 5.1 0M225 142.9c1.2 2.4 1.3 7.8.1 8.6-.5.3-1.2 1.9-1.6 3.5-.7 3.3-6.5 8.3-6.5 5.6 0-5.8 2.3-17.3 3.8-18.4 2.2-1.7 3-1.5 4.2.7"/></svg>