<svg xmlns="http://www.w3.org/2000/svg" width="682.667" height="512" version="1.0" viewBox="0 0 512 384"><path d="M0 192v192h207.5c182.9 0 207.6-.2 208.1-1.5 1-2.5 8-3.8 13.4-2.5 2.7.6 5.7 1.8 6.7 2.5 1.5 1.2 8.9 1.4 39.1 1.5H512l-.3-75.8-.3-75.7-2.3-8c-1.3-4.4-2.5-8.2-2.7-8.4s-3.9 1-8.3 2.8c-12.2 4.8-19.6 3.9-28.3-3.2-2.5-2.1-5.3-3.7-6.2-3.7s-7.1 1.4-13.8 3c-6.6 1.6-12.5 3-12.9 3-.6 0-5.4-5.9-9.4-11.7-.1-.2-4.8 1.3-10.6 3.2-5.7 2-17.4 5.5-25.9 8-28.7 8.2-43.5 10.1-54.6 7.1-10.7-2.8-14.8-6.1-40.8-32.4-13.7-13.9-25.5-25.1-26.1-24.9-.5.2-3.7 4.1-7.1 8.8-3.9 5.4-8.2 10-12.1 12.9-3.4 2.5-6 4.9-5.9 5.5.2.5 3.5 1 7.4 1 3.8 0 7.4.3 7.8.7s.2 2.7-.4 5c-.6 2.4-1.3 7.5-1.6 11.5-.4 3.9-1.1 8.4-1.6 9.8-2 5.2-1.2 13.2 2.1 21.1l3.1 7.5-2.6 2.3c-2.4 2-2.5 2.4-1.2 3.6.9.7 1.6 1.6 1.6 2s-3.1 1.9-6.9 3.5c-5.9 2.3-7.8 2.7-11.8 2-2.6-.4-6.8-.8-9.3-.9s-5.5-.8-6.8-1.5l-2.3-1.2 2-2.5c5.1-6.5 5.9-14.8 2.5-25-.9-2.6-1.5-9.7-1.6-19.2l-.3-15.1 4-.6c8.7-1.4 9.4-2.2 3.8-4.9-2.1-1-5.8-3.1-8.2-4.8l-4.4-2.9.6 5.6c.3 3.3.2 5.3-.4 5-.5-.4-1-2.3-1-4.3-.1-2-.5-5.1-1-6.7-.4-1.8-.6.6-.2 6 .5 9.1-.1 10.2-2.5 4.2-1.2-3.2-1.2-3.2-.7 1.2.3 2.4 1.4 6.2 2.5 8.4 3.8 7.7 2.3 10.1-3.7 5.8-6.3-4.6-8.9-8.4-9.7-14-.4-2.7-1-5.3-1.5-5.5-.9-.6-3.1 6.8-3.1 10.4 0 3.2-1.8 6-3.5 5.4-.8-.3-2.2-2.7-3.1-5.2-1-2.6-2.4-5.5-3.3-6.6-1.1-1.2-1.6-3.8-1.6-8.5.1-9.8 2.9-15.9 12.2-26 7.4-8.1 8.4-8.8 20.8-14.7 7.2-3.4 18.4-8.3 25-11 11.5-4.7 12.4-4.8 22-4.9 9.4 0 10.4.2 17 3.4 3.9 1.9 9.7 5.1 13.1 7.2 3.3 2 13.8 7.5 23.3 12.3 14.4 7.2 28 15.1 30.1 17.5.3.3 1.7 1.7 3.2 3 2.6 2.2 2.9 2.3 4.5.8 2.5-2.2 30-15.7 40.3-19.8 11.3-4.4 11.6-4.6 8.9-7.5l-2.2-2.3 2.4-1c1.3-.5 5.3-2.2 8.9-3.9s8.2-3.7 10.3-4.6c2.7-1.1 3.7-2.1 3.7-3.7 0-1.2.8-4.7 1.7-7.6 4-12.7 13.9-16.1 47.3-16.3 20.1-.2 25.3-.9 27.9-4.1 1.4-1.6 1.9-3.3 1.6-4.9-.3-1.4-1.2-8.6-2-16-1.6-14.5-1.6-14.2-4.7-24-1.7-5.6-2.6-6.9-6.4-9.5-2.5-1.7-5.7-4.9-7.2-7.2-3.3-5.2-6.1-6-3.7-1.1 1.4 2.8 1.4 3 .1 1.4-.8-1-1.7-2.4-1.9-2.9-.5-1.7-13-.8-18 1.2-1.6.6-4.2 1.1-5.8 1.1-2.4 0-2.9-.4-2.9-2.5 0-1.4-.4-2.5-.9-2.5s-4.8 1.6-9.7 3.6c-9.5 3.8-19.1 5.8-21.1 4.2-.6-.5-2.3-.6-3.7-.2-2.2.5-2.5.3-2-1.1.6-1.5.1-1.6-4.3-1.2-2.8.3-5.9 1-6.9 1.5-2.4 1.3-7.4.4-8.1-1.5-.3-.8-1.3-1.1-2.4-.8-1 .3-3.7-.4-6-1.5l-4.2-2.2.7-5.4c.5-4.3.3-5.4-.8-5.4-.8 0-1.8.4-2.1 1-1.5 2.4-5.5-.8-5.5-4.4 0-1.8-.9-2.6-4-3.6-2.2-.7-4.4-1.8-4.9-2.4-1.7-2.2-3.4-9.2-3.2-13.3L368 0H0zm511.3-98c0 2.5.2 3.5.4 2.2.2-1.2.2-3.2 0-4.5-.2-1.2-.4-.2-.4 2.3"/><path d="M236.7 172.2c-1.4 5.8-1.4 6.4.1 7.5.9.7 2.3 1.7 3 2.3 2 1.7 5.8-1.2 6.6-5.1 1.3-6.4.8-7.9-2.9-9.5-1.9-.7-3.8-1.4-4.3-1.4s-1.6 2.8-2.5 6.2M233 180c0 .5.5 1 1.1 1 .5 0 .7-.5.4-1-.3-.6-.8-1-1.1-1-.2 0-.4.4-.4 1"/></svg>