<svg xmlns="http://www.w3.org/2000/svg" width="682.667" height="512" version="1.0" viewBox="0 0 512 384"><path d="M0 192v192h512v-84.6c0-46.5-.3-84.4-.8-84.2-10.9 5.5-18.9 7-25.8 4.8-2.2-.7-6.5-3.2-9.8-5.7l-5.8-4.5-13.8 2.7c-7.6 1.5-14.5 2.5-15.4 2.2-.8-.3-2.7-2.8-4-5.6-1.4-2.7-2.9-5.2-3.4-5.5s-9.4 2-19.8 5c-54.8 15.8-74 17-90.6 5.7-4.3-2.9-16.8-13.1-18.8-15.3-.3-.4-5-4.4-10.5-9-5.5-4.7-10.2-8.7-10.5-9s-5.1-4.3-10.7-8.8l-10.3-8.3-4.3 4c-2.4 2.2-7 7.9-10.2 12.6-6.5 9.6-11.3 14.3-15.5 15.2-2.6.5-4.7 2.9-3.6 4.1.3.2 3.8.4 7.8.3 9.4-.1 10.1.3 8.3 5.5-.8 2.3-1.5 7.2-1.6 11s-.8 8.7-1.6 10.9c-2.4 6.7-2 16.1 1 23.4 1.5 3.6 3.4 7.2 4.3 8.2 2.5 2.7 1.2 4.4-5.5 6.8-4.7 1.8-7.1 2.2-11.3 1.7-2.9-.4-7.9-.8-11-.9-8.1-.3-8.6-1.2-4.9-9 3.6-7.5 4-13.9 1.5-20.8-1.2-3.2-1.6-8.6-1.7-20.1-.2-17-.3-16.8 5.3-16.8 7.3 0 7.8-2.6 1-5.9-7.9-3.8-12-7.7-12-11.4l-.1-3.2-2.5 3c-2.4 2.8-2.5 3.4-2 11.6.4 6.7 1.1 9.6 3.1 13 6 10.5 0 11.6-9.2 1.6-3.6-3.9-4.1-5.1-4.8-11.2-.9-8.3-2.1-7-3.4 3.6-.5 3.9-1.4 7.6-2 8.2-1.8 1.8-4.4-.5-6.1-5.5-.9-2.5-2.2-5.4-3-6.3-1-1.3-1.5-4.2-1.5-9.4 0-10.3 3.7-17.8 13.8-28.3 8.2-8.5 12.5-10.9 38.7-22.1 26.1-11.1 31-11 57.5 1.3 5 2.3 13.1 5.7 18 7.7 33.1 12.9 37.9 15.1 48.1 23l4.5 3.4 13.2-6.4c15-7.3 23.9-11.1 38.2-16.3 5.5-2 10.2-3.8 10.5-4.1.3-.2-.6-1.2-1.9-2.2-2-1.6-2.1-1.9-.8-3.2.8-.9 6.8-3.7 13.3-6.4 6.6-2.6 12.2-5.2 12.5-5.8.4-.5.9-2.9 1.3-5.4 1-7.7 4.9-12.8 12.4-16.5l6.6-3.3 24.8-.3 24.8-.4V72.5c0-25.3-.2-30.5-1.5-31.5-.8-.6-1.9-.9-2.4-.6-.5.4-1.3.1-1.7-.5-.5-.8-.2-1 .7-.5.8.4.5 0-.6-.9s-1.9-2.1-1.7-2.6c.1-.6-.2-.8-.7-.5-.5.4-1.6-.3-2.4-1.4-.8-1.2-2.3-2.1-3.3-2.1-10.3.3-14.2.8-16 1.8-1.2.7-4.5 1.3-7.4 1.5-5 .3-5.4.1-6-2.2-.5-2.1-1.1-2.4-3.5-2.2-1.7.2-3.5 1-4.2 1.9-2.8 3.6-24.4 8.5-26.9 6.1-.4-.4-1.8-.5-3-.2-1.8.5-2.4.2-2.4-1 0-2.2-8.2-2.3-10-.1-1.7 2-7.5 1.9-9.6-.2-.9-1-3-1.6-4.8-1.5-4.9.2-9.9-2.8-11-6.7-.7-2.3-.6-3.9.2-5.2 1.7-2.7 1.6-2.8-2.1-2.2-3.8.6-6.7-1.5-6.7-4.8 0-1.3-1.5-2.6-4.7-4.2-3.8-1.8-5.2-3.2-7.3-7.4L370.5.1H185.3L0 0z"/><path d="M223.7 165.7c-.3.4-1.3 3.7-2.2 7.3s-1.8 7.2-2.1 8.1c-.3 1.1.7 2.4 3.2 3.8 3.5 2.1 3.9 2.1 7 .6 4.5-2.1 6.3-5.1 6.6-11 .3-4.8.2-5-3.3-6.7-4.9-2.3-8.6-3.2-9.2-2.1"/></svg>