<svg xmlns="http://www.w3.org/2000/svg" width="682.667" height="512" version="1.0" viewBox="0 0 512 384"><path d="M0 192v192h512v-83c0-45.7-.4-83-.8-83-.5 0-3 .7-5.6 1.6-9.3 3.2-19.9.5-27.8-7-3.3-3.1-4.4-3.2-17.6-.6-15.9 3.1-16.6 3-20.2-3.3-1.6-2.8-3.1-5.5-3.2-5.9-.2-.4-6.6 1.1-14.3 3.3-35 10-58.6 14.9-71 14.9-3.3 0-8.8-.7-12.3-1.5-10.7-2.5-16.1-5.9-36.2-22.5-12.2-10.1-38.7-31.1-40.8-32.4-2.2-1.3-9.8 6.1-16.1 15.8-7.3 11.1-13.2 17-16.7 16.3-2.1-.4-3.4.9-3.4 3.4 0 .5 3.4.8 7.5.7 9.3-.1 10.2.6 8.6 6.5-.7 2.4-1.6 7.9-2.1 12.3-.4 4.3-1.3 9.7-1.9 11.9-2.4 9-.3 20 5.5 28.8 1.4 2.1 2.4 4 2.2 4.2s-2.9 1.5-6.2 2.9c-6.6 2.9-12.6 3.3-17.8 1.2-2.2-1-3.9-1.1-4.9-.5-2.3 1.4-5.5 1-7.2-.9-1.5-1.6-1.4-2.2 1.3-7.7 3.4-6.9 4-16.1 1.5-23-1.9-5.3-2.1-34.4-.2-35 .6-.2 3.3-.6 6-1 3.1-.4 4.7-1.1 4.7-2.1 0-.8-.5-1.4-1.2-1.4-.6 0-4-1.7-7.4-3.8-6.3-3.7-8.4-6.3-8.4-10.5-.1-2-.3-2-3 1.1-2.9 3.1-3 3.4-2.4 11 .4 4.2 1.2 8.8 2 10.2.7 1.4 2.1 3.9 3 5.7 1.9 3.5 1.3 6.3-1.2 6.3-1 0-4.3-2.6-7.4-5.8-5.5-5.4-5.8-6-6.5-12-1.1-9.9-2.6-8.1-4 5-1 9.5-4.6 9.5-7.9 0-.9-2.4-2.2-5.3-3.1-6.5-2.3-3.3-1.9-13 .8-20 2.5-6.8 12.6-19.1 20-24.7 4.9-3.7 22.6-12.3 39.3-19.1 12.1-5 21-6 29.7-3.5 3.1.9 13.6 4.9 23.4 9 9.8 4 22.8 9 28.8 11.1 13.7 4.6 29.4 12.1 36.1 17.3l5.2 4 10.3-5c16.7-8 26.6-12.2 39.4-16.7 6.6-2.3 12.4-4.6 12.9-5.1.6-.6.2-1.7-.9-3s-1.5-2.4-.9-3c.5-.5 6.7-3.3 13.9-6.3l12.9-5.4 1.2-5.4c1.9-9.7 5.3-14.1 13.9-18.1 4.8-2.2 6.1-2.3 27.8-2.2H512V37.4l-3.8-4.1-3.7-4-7.8.2c-4.3.2-9.1.9-11 1.8-1.7.8-5.2 1.7-7.7 1.9-4.3.3-4.5.2-4.8-2.6-.3-2.6-.6-2.8-3.7-2.3-1.8.3-4.2 1.4-5.3 2.5s-3.5 2.3-5.3 2.7c-1.9.4-4 1.2-4.7 1.8s-6.1 1.1-11.8 1.3c-8.6.1-10.4-.1-10-1.2.8-2-8.3-1.8-10.8.1-2.7 2-6.9 1.9-9.4-.4-1.3-1-3.1-1.6-4.4-1.4s-4.4-.5-6.9-1.5c-4.1-1.8-4.7-2.4-5.1-5.7-.2-2 0-3.8.4-4.1s.8-1.1.8-1.9c0-1-.9-1.2-3.3-.8-3.8.6-5.9-1.3-5.9-5.1 0-1.8-1-2.6-4.7-4-3.9-1.4-5.1-2.4-6.9-6.1L374 0H0z"/><path d="M221.2 167.2c-.5.7-1.5 3.8-2.1 6.8-.7 3-1.4 6.4-1.7 7.6-.4 1.7.3 2.6 3.2 4.3l3.7 2.2 4.3-2.3c5-2.6 5.2-3 6-10.4l.7-5.4-4.4-2c-5.1-2.3-8.2-2.5-9.7-.8"/></svg>