<svg xmlns="http://www.w3.org/2000/svg" width="682.667" height="512" version="1.0" viewBox="0 0 512 384"><path d="M0 192v192h512V223.3l-4.2-1.2c-4.7-1.4-10.8-5-14.9-8.8l-2.6-2.4-15.3 3c-10 2-15.8 2.7-16.9 2.1-1-.5-3-3.3-4.6-6.2-1.5-2.9-2.9-5.4-3.1-5.6-.1-.2-10.5 2.6-23.1 6.2-45.4 12.9-63 15.6-79.4 12.2-9.8-2.1-15.2-5.3-32-18.8-26.2-21.2-47.4-37.9-48.5-38.4-1.9-.9-9 7.1-14.9 16.8-7.2 11.7-13.9 18.9-17.5 18.6-1.4-.1-3.1.1-3.8.6-2.4 1.5-1.1 2.6 3.1 2.6 4.4.1 12.4 1.4 13.3 2.2.2.3-.4 2.5-1.5 4.9s-2.3 7.8-2.6 11.9c-.4 4.1-1.6 10.1-2.6 13.2-1.1 3.2-1.9 7.5-1.9 9.7 0 5.3 3.7 16.9 6.6 20.8 1.3 1.7 2.4 3.4 2.4 3.7 0 .4-2.4 1.7-5.4 3.1-6 2.7-13.5 3.3-18.3 1.4-1.5-.6-4.9-1.1-7.4-1-3.1.1-5.4-.5-6.9-1.7l-2.2-1.8 2.4-3.5c1.3-1.9 3.2-6 4.3-9.1 1.8-5.5 1.8-5.8 0-13-1.1-4.5-1.7-10.3-1.6-15.1l.2-7.7H210c-2.4 0-4.4-1.3-9-5.8-5.3-5.1-5.9-6.2-6.6-11-.3-2.8-1-5.2-1.4-5.2-1 0-2 5.2-2 10.2 0 9.3-4.1 9.6-8 .6-1.2-2.9-3.2-6.3-4.4-7.6-1.8-2-2.1-3.6-2.1-10 0-6.9.4-8.5 3.8-15.5 3-6.1 5.8-9.9 12.5-16.6 8.5-8.5 9.2-9 29-18.9C258 124 259.1 124 296 139.3c8.5 3.5 21.1 8.3 28 10.6 15.3 5.3 28.3 11.3 37.3 17.4l6.7 4.5 16.3-7.8c8.9-4.3 23.7-10.6 33-14.1 9.2-3.4 16.7-6.7 16.7-7.3 0-.5-.8-1.8-1.7-2.8-1-1.1-1.3-2.2-.7-2.8.5-.5 7-3.3 14.4-6.3l13.4-5.5 1.1-5.4c2.2-10.8 8.1-18.2 16.6-20.7 5.4-1.6 25.3-3.2 30.7-2.5l4.2.6V22.3l-5.2-.6c-3.8-.4-6-.1-7.7 1-1.3.8-4.8 1.8-7.9 2.3-5.4.7-5.5.7-6.6-2.2-1-2.7-1.4-2.9-4.5-2.4-1.8.3-3.9 1.2-4.5 2.1-2.5 3.5-24.5 8.7-27.2 6.4-.6-.5-1.9-.7-2.7-.3-.9.3-2.4-.1-3.2-1-2.1-2-8.8-2.1-10.5-.1-.8.9-3 1.5-5.6 1.5-3.2 0-4.4-.4-4.4-1.5 0-1-1.1-1.5-3.5-1.5-4 0-12.7-3.9-12.2-5.5.2-.5 0-2.2-.4-3.7-.5-1.9-.3-3.1.7-3.9 2.1-1.7.7-2.9-2.7-2.2-3.5.7-6.9-1.8-6.9-5.2 0-1.7-1-2.6-4.3-3.9C388.8.1 371.6 0 194.2 0H0z"/><path d="M226.3 168.8c-1 .7-4.3 14.2-4.3 17.7 0 .6 1.3 1.8 2.9 2.8 2.5 1.5 3 1.5 4.1.2.7-.9 2.1-1.3 3.4-.9 3.7.9 6-2.7 6.4-10.2l.4-6.4-4.3-2c-4.8-2.1-6.7-2.4-8.6-1.2M207 188.2c-2.5 3.5-2.6 3.9-1.7 12.3.8 7.3 1.5 9.5 4.3 13.7l3.4 5v-14.8l6.2-1c3.4-.5 6.3-1.4 6.5-1.9.1-.6-1.6-1.8-4-2.8-6.7-2.7-11.5-7.2-11.9-11l-.3-3.2z"/></svg>