<svg xmlns="http://www.w3.org/2000/svg" width="682.667" height="512" version="1.0" viewBox="0 0 512 384"><path d="M0 192v192h512V220.3l-3.9-3.1c-2.2-1.8-4.8-3.2-5.7-3.2-1 0-8.4 1.4-16.6 3.1-17 3.6-16.5 3.7-21.6-5.1-1.4-2.5-2.6-4.6-2.8-4.8-.1-.2-9 2.4-19.7 5.7-48.3 14.8-68.6 18.3-85.8 14.7-11.7-2.5-14.9-4.6-38.4-25.1C295.7 183.4 276 167 275 167c-1.8 0-8.7 9.1-13.9 18.3-3 5.3-7.3 11.6-9.7 14-3.6 3.8-4.8 4.4-8.2 4.4-2.2 0-4.5.3-5.1.7-2.4 1.5.3 2.6 6.4 2.6 8 0 12 1.4 11 3.8-2.5 5.8-3.7 10.3-4.5 17.1-.5 4.2-1.8 11-3 15.1l-2 7.5 2 7.9c1.1 4.3 3.1 9.8 4.5 12.2 1.4 2.3 2.5 4.5 2.5 4.8 0 1.5-9.2 4.8-14.6 5.3-4.5.4-6.8.1-9.3-1.2-2.3-1.1-4.4-1.5-6.7-1-3.2.6-8.5-1.2-9.8-3.4-.4-.5.7-3.1 2.4-5.8 4.9-8.1 5.6-12.5 3.6-23.3-1.2-5.9-1.6-11-1.2-14.1.6-4.7.6-4.8-2.6-6.3-1.8-.9-5.4-3.4-8-5.6-4.1-3.6-4.9-4.8-5.9-10-.6-3.3-1.5-5.7-2-5.4s-.9 3.6-.9 7.3c0 4.2-.5 7.4-1.4 8.6-1.4 1.9-1.5 1.9-3.7 0-1.2-1.1-3.1-4-4.2-6.5-1-2.5-3-5.6-4.3-7-3.5-3.8-3.6-15.1-.1-23.7 2.8-7 12.6-20.4 18.6-25.5 6.3-5.4 41.8-24.7 52-28.3 6.2-2.1 16.9-1.9 24.2.5 5.3 1.8 12.5 4.9 30.8 13.2 2.5 1.1 8.6 3.6 13.5 5.5 26.6 10.1 35.1 14.3 46.3 22.5l5.2 3.8 5.3-3.1c11.7-6.9 34.3-17.1 55.6-25.1 5.3-2 6.4-3.6 3.7-5.8-.8-.7-1.5-1.8-1.5-2.4 0-.7 6.3-3.9 14.1-7.1 15.2-6.5 14.9-6.2 16.9-15.7 2.3-11.4 10-17.6 25.4-20.3 4.9-.8 10.4-1.5 12.2-1.5h3.4V54c0-22-.2-40-.5-40s-2.2.8-4.3 1.9c-2 1-6.1 2.1-8.9 2.5-5.2.7-5.3.6-5.3-1.9 0-2.2-.4-2.5-3.6-2.5-2.2 0-4.2.7-5.2 1.9-2.1 2.3-11.7 5.7-19.8 7-6.4 1-14.4.4-14.4-1 0-1.6-9.7-1-11 .6-1.5 1.9-10.6 2.1-11.2.3-.3-.7-1.9-1.1-3.9-1-1.9.1-5.4-.4-7.8-1.1-3.6-1.1-4.5-1.9-5.6-4.9-1-3.1-1-3.9.3-5.1 2-2.1.6-3.7-2.6-3.1-3.5.7-7.6-2.8-6.7-5.7.6-1.9-2.6-1.9-200.4-1.9H0z"/><path d="M234.7 171.5c-.8.8-1.8 3.8-2.2 6.7-.3 2.9-1 6.8-1.5 8.6-.8 2.9-.6 3.4 2.1 4.8 2.7 1.3 3.1 1.3 4.5-.1 1.1-1 2.1-1.2 3.2-.6 3.7 2 7.2-3.9 7.2-12 0-4.3-1.5-6.3-5.9-7.8-4.5-1.5-5.7-1.4-7.4.4m-19.5 20.3c-2.2 3-2.2 3.5-1.2 11.8 1.1 9.1 1.8 11.2 4.4 13.4 1.4 1.1 1.6.5 1.6-4.9V206l4.3-.2c2.3-.1 5.1-.2 6.2-.2 3.7-.2 2.1-2.9-3.4-5.7-6.6-3.4-7.3-4.1-8.7-8.1l-1-3.1z"/></svg>