<svg xmlns="http://www.w3.org/2000/svg" width="682.667" height="512" version="1.0" viewBox="0 0 512 384"><path d="M181.8 1.6c1.2.8 2.2 2.2 2.2 2.9 0 .8 1.1 1.7 2.4 2.1 2.2.5 10.5-.7 13.7-2 1.3-.6 1.7.2 2.2 4.6.3 2.9 1.7 9.1 3.2 13.7l2.7 8.3-1.8 6.4c-2.2 8.4-1.5 15.2 2.3 19.9 1.6 2.1 3.4 3.3 4.2 3s2.1.1 3.1 1c1.3 1.2 1.5 2.4.9 6.7-.4 2.9-.8 7.4-.8 10-.1 4.4-1.4 6.4-2.3 3.6-.3-.7-1.4-.9-2.9-.5-2.3.6-2.4 1-2.5 7.9-.1 4-1.6 17.9-3.3 30.8-1.8 12.9-3.2 24.5-3.2 25.8.1 1.3-.4 3.3-1 4.4-.8 1.5-.8 1.9 0 1.3.6-.3 2.5-.1 4.1.6l2.9 1.3v10.1c.1 5.5.5 12.6 1.1 15.9.8 5.3.7 6.3-1.5 10.6-2.8 5.5-6.1 17.1-7 24.5-.3 2.7-1.3 8.9-2.3 13.7l-1.6 8.7-4.6.6c-7.6 1.1-14.3 3.3-19.2 6.4-2.7 1.7-4.8 3.4-4.8 3.9 0 .4-.9 1.8-1.9 2.9-1.1 1.1-2.5 4.8-3.2 8.2-2 9.5.9 20.7 7.7 29.8l2.4 3.2-3.1 7.8c-1.7 4.3-4.4 11.4-5.9 15.8-2.2 6.6-13.9 33.2-27.3 62.7L134 384h262.7l.7-6.3c1.2-10.9 8.2-42.5 9.1-41.5.2.2-.1 5.9-.6 12.8s-.7 17.6-.3 23.7l.6 11.3h42.4c36.4 0 42.4-.2 42.4-1.4 0-2.5-5.9-43.1-7.4-50.9-.8-4.1-1.3-8.6-1.2-10.1.4-3.3 4-8.8 10.8-16.2 3-3.2 6.3-7.4 7.3-9.1 1.7-2.9 1.8-3.7.6-7-3-8.1-10.1-12.2-25.1-14.4-4.7-.7-8.8-1.5-9.2-1.8-1.4-1.2-3.8-27.6-3.9-42.6-.1-33.7-2-38.8-19.1-51.2-4.4-3.2-22-12.3-23.8-12.3-1.6 0-1.2-1.3 2-8.2 1.8-3.8 3-7.9 3-10.5 0-3.7-.3-4.2-3.1-5.2-1.8-.6-4.2-1.1-5.4-1.1-3 0-4.9-2.2-3.3-3.8.9-.9.7-2.6-.7-7.2-1.5-5-1.7-7.9-1.2-17.9.7-11.6.8-12.2 6.2-24.6 6.7-15.6 16.5-46.7 15.7-49.8-.1-.4.3-.7.8-.7.6 0 .8-1.1.4-2.5-.6-2.4.4-3.2 3.1-2.5 2.5.7 5.1-.1 6.3-1.7 1.1-1.5 1.4-1.6 2.2-.4.6 1.1 1.5.1 3.4-3.9 3-6.1 3.4-13 1.1-17.4-.8-1.5-1.5-4.4-1.5-6.2V0H314.3C192.1 0 179.8.1 181.8 1.6m235.3 56.9c-.8 3.6-.9 3.7-1 1-.1-3.6 1.2-8.7 1.6-6.5.2.9-.1 3.3-.6 5.5m-192 111.8c-1.3 1.3-1.4-1-.3-6.8l.7-4 .3 4.9c.2 2.7-.2 5.4-.7 5.9"/><path d="M435.7 33.7c-.4.3-.7 1.1-.7 1.7s.5.5 1.2-.2c.6-.6.9-1.4.7-1.7-.3-.3-.9-.2-1.2.2"/></svg>