<svg xmlns="http://www.w3.org/2000/svg" width="682.667" height="512" version="1.0" viewBox="0 0 512 384"><path d="M0 192v192h512v-83c0-65.7-.3-83-1.2-83-.7 0-6.9 1.3-13.8 2.9-8 1.9-13 2.6-14.1 2.1-1.8-1-5.7-6.1-7.9-10.3-.7-1.5-1.9-2.6-2.6-2.3-7.9 3-48 15.5-58.2 18.1-18.2 4.6-27.5 5.9-40.1 5.2-19.1-.9-22.5-3-55.2-33.9-11.8-11.1-24.3-22.7-27.8-25.7l-6.2-5.4-3.5 3.4c-1.9 1.8-5.7 7.8-8.6 13.4-4.9 9.7-9.6 16.7-12.8 19.2-.8.6-4.3 1.5-7.8 1.9-5.3.5-6.1.9-5.1 2.1.9 1 2.3 1.2 4.9.8 3.8-.6 11.6.7 13.1 2.2.6.6.1 2.8-1.1 5.6-1.2 2.6-2.5 8.4-2.9 12.9-.5 4.6-1.7 10.3-2.6 12.8-3.7 9.2-1.3 25.9 4.7 34.1 1.2 1.6 2 3 1.7 3.2-.2.2-3 1.6-6.3 3.1-7 3.1-14 3.4-19.4.8-2.4-1.3-5.1-1.7-7.8-1.5-3.2.4-4.6 0-6.8-1.9l-2.8-2.3 2.1-2.7c5.8-7.3 7.9-21 4.7-30.1-1-2.7-1.2-5.5-.7-9.3l.8-5.5-6.4-4.5c-6.8-4.8-8.9-7.9-9.9-14.3-1.1-6.9-2.4-4.6-2.4 4.3 0 4.7-.5 8.8-1 9.1-2.8 1.7-7.5-3-9.5-9.6-.4-1.3-2.2-3.6-3.9-5-3-2.6-3.1-3-3.1-10.5.1-9.5 2.6-17 9-25.9 10.3-14.4 15.1-18.3 42.5-34 19.8-11.3 23.9-12.9 33.5-12.9 9.9 0 12.2.8 38.5 13.4 11.3 5.4 24.1 11.3 28.5 13 13.4 5.3 25.7 11.8 34 18 7.6 5.7 8 5.9 10.3 4.4 10.1-6.6 46-23.7 62.5-29.7 2.3-.9 2.1-3.2-.5-4.9-1.2-.8-1.9-1.9-1.5-2.4.3-.6 7.3-4.1 15.5-7.8l14.9-6.8 1.2-6.6c1.5-8 4-13 8.5-16.9 3.4-3 13-7.3 16.4-7.3.9 0 2.7-.3 4-.6l2.2-.6v-80l-4.2.4c-4.1.3-4.3.1-4.6-2.5-.3-2.7-.5-2.9-4-2.2-2 .4-4.5 1.5-5.5 2.6-.9 1-3.6 2.3-6 3-2.3.6-4.7 1.5-5.2 1.9-2.8 2.3-25.3 3.1-23.9.9 1-1.6-9.3-1-10.6.6-1.6 1.9-11.6 2.1-12.2.3-.3-.8-1.8-1.1-3.9-1-1.9.2-5.3-.2-7.7-.9-3.5-1-4.6-1.9-5.8-4.7-1.3-3.1-1.3-3.8.1-5.9s1.4-2.4.1-2.9c-.8-.3-2-.3-2.5.1-.6.3-2.4-.1-4-1C409.4.2 386.8 0 204.5 0H0z"/><path d="M244.3 173.1c-.6.8-1.4 3.9-1.7 6.9-.4 3-.9 7.2-1.2 9.2-.5 3-.2 3.8 1.6 4.8 1.6.9 2.5.9 3.6 0 .7-.7 2.3-1 3.5-.7 2.9.8 6.6-1.1 7.3-3.7.3-1.1.6-4.7.6-7.8 0-5-.3-6-2.5-7.4-3.4-2.2-9.8-3-11.2-1.3m-19.2 21.8c-2.2 3.1-2.2 3.4-1 12.2.8 6 1.8 9.8 3.1 11.2 1.9 2.2 1.9 2.2 1.6-3.4l-.3-5.7 6.8-.7c8.6-.8 8.7-2.3.5-6.7-5-2.6-6.5-4-7.4-6.7l-1.1-3.4z"/></svg>