<svg xmlns="http://www.w3.org/2000/svg" width="682.667" height="512" version="1.0" viewBox="0 0 512 384"><path d="M0 192v192h512V226l-3.9.6c-5 .8-7-.4-11.6-7.1-2.1-3-4.3-5.5-4.9-5.5-.5 0-11.9 3.6-25.2 8s-31.3 9.9-40.1 12.1c-13.7 3.6-17.7 4.2-29.8 4.6-27.9 1.1-29.8 0-65.5-35.1-15.1-14.9-29.2-28.6-31.2-30.5l-3.7-3.4-2.6 2.9c-1.5 1.6-5 7.9-8 14-5.6 11.7-11.5 20.8-14.5 22.4-1 .6-3.8 1-6.2 1-4.8 0-8.4 1.5-5.8 2.4.8.2 5 .6 9.3.9 4.3.2 8.3.9 8.9 1.5.8.8.6 2.2-.6 5.2-.9 2.3-2.1 8.5-2.6 13.9-.5 5.3-1.6 11.6-2.5 14-3.3 9.4-.8 24.8 5.4 34.1 2.9 4.4 3.1 6 .8 6-.7 0-3.4 1.2-6.2 2.5-5.9 2.9-12.8 3.3-18.3.9-2.2-.9-5-1.3-6.8-.9-3.5.6-7.3-.5-9.8-3-1.5-1.6-1.5-1.8.3-4.4 5.7-8 7.7-20.9 4.6-29.6-.8-2.2-1.5-7.3-1.5-11.3 0-3.9-.4-7.2-.9-7.2-1.8 0-12.8-8.9-13.8-11.2-.6-1.3-1.6-5.1-2.3-8.4-1.2-5.7-1.3-5.8-2.2-2.9-.5 1.6-.6 5.9-.3 9.5.4 4.9.2 7-.9 8.5-1.4 2-1.5 2-3.9-.3-2.1-2-5.5-8.4-7.1-13.6-.5-1.4-.9-1.6-2-.6-2.1 1.7-4.2-2.2-5-9-.9-7.3 3-20 8.7-28.5 9.5-14.2 12.4-17.1 24.4-25.2 18.4-12.4 36.6-23.2 42.9-25.3 12.3-4.3 19.4-2.5 48.9 12 11 5.4 25 11.9 31 14.5 16.4 7 25.8 12.1 34.8 19.1 7.4 5.6 8.4 6.1 10.2 5 12.4-8 43-23.4 59-29.6 3.3-1.3 6.7-2.9 7.5-3.7 1.3-1.3 1.2-1.7-.9-3.4-1.3-1-2.1-2.5-1.8-3.3.5-1.2 14.8-8.6 26.9-13.8 4.5-1.9 4.7-2.2 5.3-7.1 1.2-8.7 4.2-15.1 9-19.6L512 94V49.8c0-35.5-.2-43.9-1.2-42.6-2.9 3.4-25 8.2-29.5 6.3-1-.4-3-.7-4.5-.6-2.1.2-2.7-.1-2.2-1.2 1-2.7-7.2-3.7-10.9-1.2-3.2 2-9.2.9-11.2-2.1-.9-1.4-2.1-2.1-3-1.8-.8.3-3.6-1-6.4-3L438.2 0H0z"/><path d="M255.7 175.2c-1.4 1.1-3.7 13.3-3.7 19.9 0 2 4.8 3.5 6.3 2 1.6-1.6 3.7-1.3 3.7.4 0 1.8 7.2-2.8 8.2-5.3s.9-8.3-.2-12.3c-.8-3-1.7-3.8-4.9-4.7-4.9-1.5-7.3-1.5-9.4 0m-20 22.7-2.8 4.1 1.8 9.7c1.2 7.2 2.3 10.3 4.1 12.2l2.3 2.6-.4-6.7-.5-6.6 6.9-.7c8.5-.9 9-2.6 1.7-5.9-6.1-2.6-7.9-4.5-9.3-9.4l-1-3.5z"/></svg>