<svg xmlns="http://www.w3.org/2000/svg" width="682.667" height="512" version="1.0" viewBox="0 0 512 384"><path d="M0 192v192h512V215l-2.6 1.1c-4.7 1.7-41.4 10.7-54.8 13.4-22 4.3-34.6 5.2-47.7 3.2-17.7-2.7-26.1-7.5-57.5-33.2-25.3-20.8-48.4-38.5-50-38.5-2.1 0-11.6 11.2-18.7 22.1-9.1 13.9-15.4 20.1-19.8 19.2-2.6-.5-2.9-.3-2.9 2v2.5l8-.5c7.4-.5 14.1.7 14 2.6-.1.3-.6 2.6-1.3 5.1-.7 2.9-1 8.3-.7 14.5.3 7 .1 11.2-.9 14-2.3 6.9-.9 17.8 3.7 27.7 2.1 4.6 5.3 9.9 7 11.6 1.8 1.8 3.2 3.5 3.2 3.8s-3.5 2.2-7.7 4.2c-7.5 3.6-8.3 3.7-19.3 3.9-14.1.1-17.8-.3-20.8-2.5l-2.3-1.8 2.5-5.4c4.6-10 4.3-21.3-.9-32.5-2.4-5.1-2.9-8.8-3.9-30.3-.3-5.6-.8-10.7-1.1-11.2-.3-.6.5-1 1.9-1 4.8 0 12.6-2.2 12.6-3.5 0-.7-3-3-6.6-5-9.4-5.3-13.2-8.9-14.7-14.2l-1.3-4.6-3.2 4.4c-3.1 4.1-3.2 4.7-3.2 14.1 0 8.5.4 10.7 3 17.3 4.2 10.6 3.8 13-1.7 10.1-7-3.6-15.3-15-15.4-21 0-2.3-.4-5-.8-6.1-.9-2.2-1.4.2-2.7 12.2-.3 3.5-1.2 6.7-2.1 7.4-3.4 2.9-11.3-11.1-11.3-19.9v-3.7l-2.1 3.5-2.1 3.4-2.9-3.2c-3.3-3.6-3.5-6-1.5-14.4 2.9-12.3 16.9-30.3 30.6-39.2 8.3-5.4 45.9-22.6 59.3-27.1 15.2-5 23.7-4.3 46.2 4.3 17.9 6.9 31.1 11.2 51 16.7 27.2 7.5 43.4 14.3 55.2 23.2l3.2 2.3 12.8-6.3c16.8-8.5 33.1-15.5 53.3-23.3l16.5-6.2.3-65.1L512 0H0z"/><path d="M250.5 165.1c-.7 1.1-5.5 20.3-5.2 20.5.1 0 1.8 1.2 3.7 2.7l3.6 2.6 6.1-3c6.8-3.3 7.1-3.8 8-12.1l.6-5.8-5.4-2.4c-7.3-3.3-10.5-4-11.4-2.5"/></svg>