<svg xmlns="http://www.w3.org/2000/svg" width="682.667" height="512" version="1.0" viewBox="0 0 512 384"><path d="M0 192v192h512V215.8l-2.2.6c-7.3 2.1-36.4 8.9-46.9 11-25.7 5-46.7 5.8-60.4 2.1-12.4-3.3-22.7-9.8-52.5-33.2-19.6-15.3-50.7-38.2-52-38.3-.3 0-3.4 2.4-6.9 5.3-3.9 3.2-8.7 8.5-12.3 13.7-8 11.6-15.3 19.2-18.4 19.2-2 0-2.4.5-2.4 3.3 0 3.1.1 3.2 3.8 2.8 3.1-.3 13.8 1 17.9 2.2.8.3.8 1.3-.2 4.2-1.7 5.1-1.8 45.6-.1 51 1.8 5.7 7.2 15.8 10.6 19.6 1.6 1.9 2.6 3.7 2.2 4.1s-4.1 2.4-8.2 4.4c-7.1 3.4-8 3.6-18.2 3.7-5.8 0-10.9.3-11.3.6-.8.8-8.5-.9-10.2-2.2-.9-.8-.8-2.2.8-6.2 4-10 2.4-23.1-3.9-33.2-2.8-4.3-5.9-17.4-6.6-27-.2-3.3-.7-8.1-1.1-10.6l-.7-4.6 7.1-1.8c6.8-1.6 7.1-1.9 7.1-4.6 0-2.4-.4-2.9-2.4-2.9-5.3 0-8.5-2.2-14.2-9.5-3.1-4.1-6.1-9-6.8-10.9l-1.2-3.6-2.7 2.8c-2.2 2.3-2.7 4-3.6 12.9-1 9.2-.9 10.9.9 16.5 2.4 7.6 2.5 10.2.5 11.8-1.3 1.1-2.1.8-5-2-1.9-1.8-5.1-6-7.2-9.4-3.2-5.2-3.8-7.2-4.3-13.6l-.6-7.5-2.1 7c-1.1 3.8-2.6 8.9-3.2 11.2-.7 2.4-1.8 4.3-2.6 4.3-3.9 0-8.5-10.5-8.5-19.7v-3.6l-2.1 2.7-2 2.6-2.5-2.9c-1.3-1.6-2.4-3.8-2.4-4.9 0-4.5 4.2-15.2 8.4-21.2 5.9-8.5 19.8-20 30.1-25 8.1-3.9 48.2-17.2 63.2-21 13.8-3.4 17-3 41.9 5.6 12 4.2 33.6 10.7 47.9 14.4 34.3 9 45.6 13.2 60.9 22.4 3.2 2 6.4 3.6 7.1 3.6.8 0 9.4-3.8 19.2-8.4 16.8-7.9 54.8-23.6 57.2-23.6.8 0 1.1-18.5 1.1-65V0H0z"/><path d="M246.2 159.2c-.5.7-2.6 5.3-4.5 10.2l-3.6 9 3.5 4.8c3.4 4.6 3.8 4.8 8.4 4.8 4.4 0 5-.3 6.9-3.3 1.1-1.7 2.9-3.7 4-4.4 2.1-1.3 4.8-11 3.8-13.5-.5-1.4-14.3-8.8-16.4-8.8-.6 0-1.5.6-2.1 1.2m4.9 40.2c-2.2 2.3-2.2 2.6-.7 3.2 2.3.9 3.9-.8 3.4-3.6-.3-2.2-.3-2.2-2.7.4"/></svg>