<svg xmlns="http://www.w3.org/2000/svg" width="682.667" height="512" version="1.0" viewBox="0 0 512 384"><path d="M0 192v192h512v-83.5c0-57.1-.3-83.5-1-83.5-.6 0-8.8 1.8-18.3 4-31.6 7.3-40 8.4-61.7 8.5-13.4 0-20.9-.4-24-1.4-10.3-3-22.9-10.3-41.5-24.1-37.9-28-66.3-48-68.4-48-.6 0-2.9 1.2-5.3 2.7-2.4 1.6-5.2 3.3-6.3 3.9-2 1.1-6.6 6.9-15.8 19.7-5.6 8-8.7 9.9-11.7 7.2-3.1-2.8-2.6-8.3 1.1-12.8 2.9-3.5 4.8-8.6 4.9-12.9 0-1.1-2.5-3.3-6.2-5.8-5.1-3.2-7.2-4-11-4h-4.7l-5.2 7.7c-4.9 7.3-5.1 7.8-3.9 10.7.6 1.7 1.7 4.9 2.2 7.1.9 3.1 2.1 4.6 5.7 7 8.9 5.8 5.2 11.1-5.6 8-8.2-2.4-10.9-5.4-14.8-17-1.9-5.5-3.5-10.2-3.5-10.4 0-.3-1.1.6-2.5 1.9s-2.5 3.5-2.5 4.9-.7 5.7-1.5 9.6c-1.2 5.8-1.3 8.4-.3 15.2 1.1 7.4 1 8.5-.4 10-1.6 1.5-1.9 1.4-4.7-1.6-3.8-4.1-9.4-15.7-9.4-19.6 0-1.7.3-5.9.7-9.5.8-6.2.7-6.4-.9-4.2-.9 1.2-3.5 6.6-5.8 11.9s-4.7 9.8-5.3 10c-2.7.9-5.7-5.8-6.2-13.4-.5-7.2-.5-7.3-2.4-5.6s-2 1.7-3.4-.2c-2.7-3.6-2.6-6.3 0-13.3 1.7-4.5 4.4-8.8 7.7-12.5 5.3-6 17.7-15.1 26.9-19.7 4.9-2.5 28.7-8.9 44.5-12 3.3-.6 9.6-2 14-3 4.4-1.1 12-2.4 16.9-3.1 11.4-1.5 15.4-.7 41.6 8.1 11.3 3.7 31.3 9.4 44.5 12.5 37 8.7 44.5 11.2 61.3 20.4 5.1 2.8 9.8 5.1 10.4 5.1s9.9-4 20.7-8.9c21.6-9.8 47.1-20.1 49.5-20.1 1.4 0 1.6-6.4 1.6-65V0H0zm250.3 8.5q-.45 1.5 1.2 1.5c1.5 0 1.6.6.9 3.7-.4 2.1-.8 5.4-.8 7.3-.1 3.2.1 3.5 2.4 3.2 1.4-.2 5.8-.6 9.8-.9 6.9-.5 7.4-.4 7.9 1.6.3 1.1.8 2.1 1.2 2.1.3 0 .6 11.4.7 25.3.1 23.2.2 25.6 2.2 30.5 2.5 6.4 9.5 18.3 12.2 20.7 3 2.7 2.4 4-2.7 6.5-2.7 1.2-6.1 2.9-7.7 3.7-5.8 3.1-13.4 4.5-17.3 3.2-2.7-.9-4.4-.9-7.3.1-3 1-4.3 1-6.6-.1-4.3-2.1-5.1-6.4-2.9-15.4 1.6-6.5 1.7-8.4.8-14.2-.7-3.7-2.8-9.9-4.7-13.8-3.6-7.1-4.8-12.3-6.8-29.7-1.4-12.3-.4-15.4 5.1-16.3s6-1.6 7.5-9.1c1.7-8.5 3.3-12.7 4.6-11.9.5.3.7 1.2.3 2"/></svg>