<svg xmlns="http://www.w3.org/2000/svg" width="682.667" height="512" version="1.0" viewBox="0 0 512 384"><path d="M0 192v192h512v-81c0-78.8-.1-81-1.9-81-1 0-5.4.6-9.7 1.4-26.1 4.8-53.7 5.2-69.7 1-12.6-3.3-22.4-8.9-69.7-40-19.2-12.7-47.2-29.9-54.9-33.9-3.1-1.6-3.8-1.6-9-.1-3.2.9-6.7 1.6-7.8 1.6-3.4 0-6.4 3.3-10.7 11.5-5.1 9.8-6.8 11-10.2 7.2-2.9-3.4-3-6.1-.4-11.8 2.7-5.9 2.6-9.5-.2-11-1.3-.7-3.7-2.4-5.5-4-2.1-1.8-4.9-3-8-3.5-2.6-.3-8.3-2-12.5-3.6-7.5-2.8-7.9-2.9-10.6-1.3-4.1 2.5-8.2 15.3-8.2 25.6 0 8.8-1.3 11.5-5.2 10.6-3-.8-5.4-5.3-7.1-13.3-1-4.6-.9-6.6.6-12.1.9-3.6 1.6-6.8 1.4-6.9-1-1-8.8 19-9.7 25-1.2 7.5-3.3 12.6-5.4 12.6-2.7 0-6.6-13.1-6.6-22.1 0-2 .9-5.9 2.1-8.6 4.5-10.4 5.8-14.3 4.9-14.3-.6 0-6 5-12.1 11-6.1 6.1-11.6 10.9-12.3 10.7-.7-.3-1.1-3.3-1-8.5.1-7.5 0-8-1.7-7.1-1.4.7-2.1.5-2.9-1-1.5-3-1.3-4.6 1.8-10.2 4.9-9.2 14.7-15.7 30.7-20.2 16.5-4.8 20.3-5.1 58.5-4.3 39.2.7 43.8 1.1 59 5.6 33.7 10 45.4 12.7 78.5 18 25.6 4.2 44.9 9.8 62.6 18.4 4.1 2 8.6 3.6 10 3.6 1.5 0 7.6-2 13.5-4.5 6-2.5 15.1-6.2 20.1-8.3l9.3-3.7V0H0zm226.1 75.2c.1 1.3.2 5.6.4 9.6.1 4 .5 7.5.8 7.8s2.2-.2 4.2-1.1c6.1-2.5 16.7-4.7 17.8-3.6.5.5 1.3 4.9 1.8 9.8.5 4.8 1.9 11.9 3 15.6 1.1 3.8 2.1 10.3 2.3 14.5.4 9.6 3.1 17.3 8.9 25.5 4.8 6.7 9.4 11.7 10.8 11.7.5 0 .9.7.9 1.6s.9 2.3 2.1 3.2c2.7 2.3 1.8 4.3-3.3 7.2-2.2 1.2-5.5 3.5-7.3 5.1-4.9 4.3-11 6.7-20.8 7.9-12.8 1.6-12.7 1.7-12.7-12.9 0-11.5-.1-12-3.5-18.8-1.9-3.8-5.1-8.8-7.2-11.1-4.4-4.9-8.6-15.6-11.4-29.1-1.1-5.2-2.5-10.3-3-11.3-.7-1.4-.6-2.3.6-3.4.8-.8 1.5-2.2 1.5-3s1.8-2.2 4.1-3c4.8-2 5.9-4.3 5.9-12.1 0-5.7 1.7-12.3 3.2-12.3.4 0 .8 1 .9 2.2"/></svg>