<svg xmlns="http://www.w3.org/2000/svg" width="682.667" height="512" version="1.0" viewBox="0 0 512 384"><path d="M0 192v192h512V153.8l-2.2.5c-12.6 3.1-17.4 3.9-30.8 5.8-18.1 2.5-40.3 2.2-50.4-.6-9.7-2.7-28.1-11.6-42.6-20.5-2.5-1.5-7.9-4.6-12-6.8s-12.9-7-19.5-10.7c-13.2-7.4-34.1-18-42.3-21.5l-5.2-2.3-3.8 2.5c-2 1.4-6.2 3.1-9.2 3.8-7.8 1.8-9.2 2.9-12.9 10.7-5.8 12-6.5 13.3-8.4 13.9-2 .6-5.9-2.2-5.5-4 .1-.6-.1-3.4-.5-6.2-.5-3.7-.3-5.9.8-8.1 2-4.1 3-9.3 1.7-9.3-.6 0-3.5-2.3-6.6-5-3.7-3.5-7-5.5-10.3-6.4-2.6-.7-6.8-1.9-9.3-2.6-4.3-1.2-4.7-1.1-9.3 1.6s-5 3.3-7.8 11.4c-2.1 6.3-2.8 10.5-2.9 16.1 0 6.4-.3 7.9-2.1 9.5-4.6 4.1-9.3-4-10.4-17.8l-.8-9.3-2.7 6c-1.5 3.3-3.3 9.1-4 13-1.6 8.7-3.5 13.5-5.3 13.5-2.2 0-4.8-6.4-5.8-13.9-1.5-11.6-1.1-16.5 2-24.5 1.6-4.1 2.4-7.2 1.7-6.9-.6.3-5.1 4.9-10.1 10.4-11.1 12.1-12.9 12.7-13.9 3.8-.3-3.3-.3-7.2.1-8.7.5-2.1.3-2.4-1.2-1.9-1.3.5-1.6.3-1.2-.8.4-.8.2-1.7-.2-2-.5-.2-1.2-2.1-1.6-4.1-1.3-7 5.5-16.5 18-25.1 1.7-1.2 8.6-4 15.5-6.4l12.5-4.3 32.5-.9c37.5-1 58.8-.4 68 1.8 20.3 5 40.8 7.9 66.5 9.5 43.2 2.6 53.7 4.3 74.2 11.5l12.7 4.6 5.5-1.9c3.1-1.1 13.1-5.2 22.4-9.3l16.7-7.3V0H0zm206.6 69.1c.7 4.4 1.5 8.3 1.7 8.6.3.2 1.9-.3 3.7-1.2 2.4-1.2 15.8-4.5 18.5-4.5.2 0 .7 2.6 1.1 5.7.3 3.2 2 9.8 3.7 14.8 1.6 4.9 3.5 12.8 4.2 17.5.7 5 2.4 11 4 14.4 3.6 7.5 11.3 16.7 17.7 21 6.6 4.5 7.1 7.4 2 11.6-2 1.6-4.2 3-4.9 3s-2.7 1.3-4.5 2.8c-4.2 3.6-11.1 6.9-16.9 8.1-2.4.5-5.9 1.5-7.6 2.2-2.9 1.2-3.4 1.1-4.8-.6-1.1-1.5-1.4-3.3-1-6.7.6-5.5-1.5-16-4.5-21.9-1.2-2.2-5-7.1-8.5-11-3.6-3.9-6.5-7.5-6.5-8s-1.8-4.7-4-9.4-4-9.1-4-9.9-1.3-5.1-2.9-9.6l-2.9-8.1 4-2.5c2.1-1.4 5.1-3 6.6-3.6 1.5-.7 2.8-1.2 2.9-1.3s-.4-2.5-1.2-5.3c-.7-2.9-1.2-6.6-1-8.2.5-3.4 2.4-7.4 3.2-6.6.3.3 1.2 4.2 1.9 8.7"/></svg>