<svg xmlns="http://www.w3.org/2000/svg" width="682.667" height="512" version="1.0" viewBox="0 0 512 384"><path d="M173.4 1.5c1.1.8 2.4 1.5 2.9 1.5.4 0 .6.8.3 1.8-.4 1.2.3 2.8 1.8 4.5 1.4 1.5 2.2 2.7 1.9 2.7s0 .7.7 1.5c1.9 2.3 12.1 2 15.3-.5 1.4-1.1 3.4-2 4.6-2 1.8 0 2 .6 1.9 7.7 0 7.9 2.7 19.2 5.8 24 1.2 1.9 1.2 3-.1 8-2.2 8.4-2 15.6.5 17.8 1.1 1 2 2.4 2 3.2s.4 1.2.9.9c.5-.4 1.2 0 1.4.6.4 1 .8 1 1.5 0 1.7-2.5 4.8.7 7.6 7.8 3.4 8.9 3.4 10.9-.4 12.3-2.7 1-3 1.5-2.4 3.7.8 3 .6 22.4-.4 33.5-.4 4.4-.7 10.9-.6 14.5 0 4.2-.4 7.3-1.3 8.7-1.9 2.9-.9 4.3 2.9 4.3h3l-.6 6.7c-.3 3.8-.6 7.3-.6 7.9s-2.1 2.8-4.7 4.8c-12.8 10-17.4 19.6-20.8 43.5-1.3 9-2.5 16.4-2.7 16.6-.2.1-3.2.8-6.8 1.4-16.6 3.2-25 11.9-25 26 0 5.6 3.2 15 6.9 20.5 1.9 2.7 3.1 5.5 2.8 6.4-2.7 8.9-10.7 29.4-15.9 41.2-11.1 24.9-15.8 35-19.9 43.2L132 384h341l-1.8-3.8c-1.1-2-2.2-5.7-2.5-8.2-.4-2.5-2.1-15-3.8-27.7-1.8-13.7-2.9-24.7-2.5-26.8.5-2.4 3-5.9 8.6-12l8-8.6v-5.6c0-5.4-.2-5.9-4.4-9.9-4.9-4.7-12.3-7.8-20.9-8.9-5.1-.7-5.8-1-6.3-3.4-.3-1.4-.7-3.5-1-4.6s-.9-14.5-1.4-29.9c-.9-27.2-.9-27.9-3.5-33.2-3.6-7.3-15.4-16.8-29-23.3-5.3-2.6-6.7-3.9-5.8-5.5.4-.5 1-.1 1.4 1 .4 1 .5-.5.2-3.3-.3-3 0-7.2.7-9.8 1-3.5 1-4.9.1-5.8-1.2-1.2-1.5-5.6-.3-7.4.4-.6 1.4-1.1 2.2-1.1 6.1.4 7.6-1.5 4.6-5.7-1-1.4-1.7-8.9-2.5-26-.6-13.2-1.4-25.1-1.7-26.4-.3-1.2 0-3.9.7-5.8.9-2.7.9-3.7 0-4.3-.9-.5-.8-1.7.3-4.6.9-2.1 2.2-6.8 3-10.4 1.3-6.6 4.7-13.6 5.9-12.3.8.8 4.2-2.2 7-6.1 3.4-4.7 6.4-27 5.2-38.1l-.7-6.5H302.2C187.1.1 171.7.2 173.4 1.5"/></svg>