<svg xmlns="http://www.w3.org/2000/svg" width="682.667" height="512" version="1.0" viewBox="0 0 512 384"><path d="M0 192v192h512V230.5c0-84.4-.2-153.5-.4-153.5-.1 0-5.4 1.3-11.7 3-22.5 5.8-33.9 7.4-52.4 7.4-16.2-.1-17.4-.2-26-3.1-8.9-3-24-9.3-38.5-16-6.4-3-31-13.8-40.5-17.8-6.8-2.9-16.4-6.4-23.1-8.6l-7.1-2.2-7.7 5.1c-4.2 2.8-9.3 5.4-11.4 5.8-2 .4-4.3 1.1-5 1.7-2 1.6-7.7 11.8-9 16.2-1.9 6.4-4.8 10.5-7.6 10.5-3.3 0-4.2-1.6-5-8.8-.4-4.8-.2-7.1 1-9.4.9-1.7 1.8-5.4 2.1-8.3.5-4.7.3-5.4-1.5-5.9-1.1-.4-4.6-3.5-7.8-6.9-4.5-4.9-7-6.6-10.4-7.6-4.6-1.2-4.6-1.2-12.8 3.6l-8.1 4.8-2.7 7.9c-1.6 4.9-2.9 11.4-3.4 17.3-.4 5.1-1.2 9.9-1.8 10.5-2 2-6.2 0-7.9-4-1.7-4.1-3.4-14.5-3.5-20.7v-4l-2.7 6.1c-1.6 3.3-3.4 9.1-4.1 13q-3.45 18.9-8.4 11.1c-1.8-2.6-3.5-12.6-3.7-21.7-.2-5.2.4-8.1 2.9-14.5 1.8-4.4 3.2-8.3 3.2-8.8 0-.4-4.8 4.5-10.7 10.8S174.8 55 173.9 55c-1.3 0-1.8-1.4-2.3-6.3-.3-3.5-.3-7.8 0-9.6.6-3.1.5-3.3-1.4-2.7s-2.1.4-1.8-2.8c.1-2-.1-3.6-.6-3.6-1.9 0-.6-6.7 2.3-11.8 3.2-5.7 7.9-10.6 14.2-14.9 2-1.4 3.7-2.7 3.7-2.9S145.7 0 94 0H0zm185.9 46.7c1.5 4 3 11.1 2.3 11.8-1.2 1.2 2 .4 5.6-1.5 2.2-1.1 6.8-2.3 10.4-2.7 6.4-.6 6.5-.5 7.6 2.3.6 1.6 1.8 5.7 2.6 9.1.9 3.4 2.9 8.9 4.5 12 1.6 3.2 3.2 8.4 3.6 11.6 1.1 9 6.1 18.1 14.1 25.8 3.8 3.6 8.8 7.6 11.2 8.8 3.5 1.8 4.2 2.6 4.2 5.2 0 3.4-4.6 8.3-8.8 9.4-1.4.3-4.1 2-5.9 3.6-3.8 3.3-9.4 6.3-13.8 7.3-1.6.4-4.2 1.9-5.7 3.4l-2.8 2.6-2.5-2.4c-2-1.9-2.4-3-1.9-5.3.3-1.5-.1-6.1-1-10-2-9-7.2-17.3-15-24-3.4-2.9-6.7-7-8.3-10-1.4-2.9-3.3-6.3-4.3-7.7s-3.4-6.8-5.4-12c-2.1-5.2-4.3-10.1-5.1-10.9-1.2-1.2-.4-2.1 5.6-6.4 5-3.7 6.8-5.5 6.3-6.6-1.9-4.7-1.5-16.1.5-16.1.5 0 1.4 1.2 2 2.7"/></svg>