<svg xmlns="http://www.w3.org/2000/svg" width="682.667" height="512" version="1.0" viewBox="0 0 512 384"><path d="M0 192v192h512V0H0zm177.5 27.1 1 3.9 4.3-2.9c3.7-2.4 5.4-2.9 11.6-2.9l7.3-.1 1.3 4.2c1.6 5.6 4.6 11.4 8.1 15.7 1.6 1.9 3.7 6 4.8 9.1 3.3 9.8 8.5 16.4 17.6 22.4 5.3 3.5 10 5.8 13.4 6.6l5.3 1.1-.7 5.6c-.8 6.6-3 10.1-7.9 12.7-1.9 1-3.7 2.9-4 4.1-1.2 4.5-12 14.4-15.8 14.4-.7 0-3 .9-4.9 1.9l-3.7 2-.6-5c-1.5-11.5-8.6-23-18.8-30.5-3.3-2.4-6.3-4.4-6.7-4.4s-2.5-2.5-4.7-5.7c-2.1-3.1-4.4-6.2-5.1-6.8-.6-.7-2.8-4.3-4.9-8.1-2-3.8-4.3-7.6-5-8.5-.8-.9-2.1-3.7-3-6.2l-1.6-4.7 4.9-5.8c4.6-5.2 4.9-6 4.5-10-.4-4.5.4-8 1.6-6.8.4.4 1.2 2.5 1.7 4.7"/></svg>