<svg xmlns="http://www.w3.org/2000/svg" width="682.667" height="512" version="1.0" viewBox="0 0 512 384"><path d="M0 192v192h512V0H0zm188.9-.6c3.4-.5 3.7-.3 6 4.1 1.3 2.5 5 7 8.2 9.9 3.1 2.9 6.6 7.1 7.7 9.3 5.1 10 17.4 16.8 32.6 18.2l7.1.6.3 6.7c.3 7-.6 9.6-5.3 14.5-1.2 1.2-2.9 5-3.8 8.3-2.2 7.9-9.1 15.7-14.6 16.5-2 .3-4.4 1-5.3 1.5-2 1.1-2.3.7-3.3-4-.8-4.1-5.6-12.1-9.9-16.8-4.1-4.4-12.6-10-17.9-11.8-3-1-7.4-4.5-15.2-12.2-11.5-11.1-13.4-13.5-15.3-19-1-2.9-.8-3.9 2.2-9.5 1.9-3.4 3.7-7.7 4.1-9.6.6-3 .9-3.3 1.9-1.8 1.1 1.4 1.7 1.2 5.9-2.3 4.3-3.4 5.1-3.8 7.9-2.9 1.7.5 4.8.6 6.7.3"/></svg>