<svg xmlns="http://www.w3.org/2000/svg" width="682.667" height="512" version="1.0" viewBox="0 0 512 384"><path d="M0 192v192h512V0H0zm187.5 2.4c1.7 2.5 10.3 7.6 12.9 7.6.8 0 3.2 1.4 5.2 3.2s6.6 4.2 10.3 5.5c5.9 2 6.8 2 8.6.7 4.6-3.3 6.4-3.8 10.2-2.5 3.2 1 4.4 1 7.5-.3 3.7-1.6 3.8-1.6 5.5 1.1 2.7 4.1 3 15.9.6 20.9-1.1 2.1-2.1 6.1-2.2 8.9-.3 7.1-1.8 12.3-5.2 17.1-2.4 3.5-3.6 4.3-7.1 4.9-2.4.3-5 .8-5.8 1.1-1 .2-2-.8-2.9-2.9-2.2-5.2-11-13.6-17.6-16.7-3.6-1.7-8.7-3.2-12.5-3.6-4.5-.4-8-1.5-11.3-3.5-5.6-3.4-11.7-5.8-16.9-6.7-3-.6-4.4-1.7-7.7-6.2-2.6-3.8-3.6-6.1-3.1-7 .4-.8 1.5-4.3 2.4-7.7 1.2-5 2.5-7.3 6.3-11.3l4.7-5h8.3c7.6 0 8.4.2 9.8 2.4"/></svg>