<svg xmlns="http://www.w3.org/2000/svg" width="682.667" height="512" version="1.0" viewBox="0 0 512 384"><path d="M0 192v192h512V0H0zm217-28.5c2.1 1.1 3.6 1.2 5.5.5 3.8-1.5 4.1-1.4 8.7 2.7 4.4 4.1 8.1 11.2 9.3 18 .4 2.4 1.1 4.5 1.6 4.9 5.4 3.3 7.5 28 2.2 26-.9-.4-4.8-1.1-8.7-1.7-10.2-1.4-18.7-.3-26 3.6-3.4 1.7-7.3 3.5-8.7 3.8-3.3.8-7.8 5-11.8 10.9-3.4 5-4.4 5.4-10.1 3.8-2.5-.7-4.3-.7-6.2.1-2.5 1-3.2.8-6.7-2.4-2.2-2-5.1-4.3-6.5-5.2-1.7-1.1-2.7-2.9-3.1-5.3-.3-2.1-1-5.5-1.5-7.7-.8-3.4-.5-4.6 1.8-8.7 2.3-4.2 3.4-5.1 7.6-6.3 2.7-.8 5.7-1.5 6.5-1.5 2.3 0 16.7-4.8 22.1-7.4 5.2-2.4 6.7-5 7.3-12.2.3-3.6 1.2-6.3 3.2-9 6.7-9 8-9.7 13.5-6.9"/></svg>