<svg xmlns="http://www.w3.org/2000/svg" width="682.667" height="512" version="1.0" viewBox="0 0 512 384"><path d="M0 192v192h512V0H0zm203.1-44.5c2.4.9 5.6 1.3 7.1.9 5.7-1.2 16 6.3 20.3 14.7 1.3 2.5 3.5 5.3 4.9 6.2 4.9 3.3 7.5 7.9 8.2 14.8l.6 6.6-5.5.6c-3 .4-8.4 2-11.9 3.7-3.4 1.6-6.8 3-7.4 3-1.1 0-5.2 3.9-14.1 13.1-4.2 4.4-8.2 12.7-10.3 21.2l-1.2 4.5-9.9-.2c-5.8-.1-10.3-.6-11-1.3-.9-.9-1.6-.9-3.1 0-1.7 1-2.2.8-3.6-1.2-1-1.3-2.7-3.4-3.9-4.8-1.3-1.3-2.3-2.8-2.3-3.4 0-.5-.9-2.8-2.1-5.1-1.9-3.7-2-4.6-.9-7.9 1.5-4.6 7.6-11.4 11-12.4 3.6-1 19.6-13.3 20.8-15.9 2.7-5.9 3.5-13.5 2.3-20.5-1.2-6.4-1.1-7.2.8-10.9 1.1-2.3 3.1-4.8 4.3-5.6 2.7-1.9 1.7-1.9 6.9-.1"/></svg>