<svg xmlns="http://www.w3.org/2000/svg" width="682.667" height="512" version="1.0" viewBox="0 0 512 384"><path d="M0 192v192h512V0H0zm199.1-53.6c5.9.5 12.9 3.6 18.1 8.1 2.3 1.9 5 3.5 6 3.5 4.6 0 12.8 6.9 13.3 11.2.2 1.3.6 3 1 3.9.4 1.2-.6 2.4-4.2 4.4-2.6 1.6-8.5 6.5-13 10.9-6.9 6.9-8.6 9.3-11.8 16.6-3.9 9-7 26.1-5.9 31.9.6 2.7.4 2.9-3.2 3.5-2.2.3-7.4.7-11.6.9-7 .2-7.8.4-7.8 2.2 0 3.7-1.5 4.8-4.6 3.8-2.9-1-3-1.5-1.9-6.3.6-2.2.1-2.8-3.6-4.5-2.4-1.1-5.7-3.7-7.3-5.8-2.8-3.5-2.9-4-1.7-7 .7-1.8 2-5 2.8-7.2.9-2.4 3.5-5.9 6.7-8.7 6.2-5.5 12.2-16 13.7-24.1 1.2-7-.3-17.1-3.7-24.8-2.5-5.5-2.5-5.8-.8-9 2.3-4.7 3.1-5.1 9.4-4.4 3 .3 7.6.7 10.1.9"/></svg>