<svg xmlns="http://www.w3.org/2000/svg" width="682.667" height="512" version="1.0" viewBox="0 0 512 384"><path d="M0 192v192h512V0H0zm197-60.2c4.2.6 9.9 2 12.8 3.1 2.9 1.2 7.1 2.1 9.3 2.1 4 0 9 1.7 12.2 4.2 2.7 2 3 8.5.6 9.9-1.1.5-4.2 4.5-7 8.7s-5.9 8.6-6.9 9.7c-1.9 2.1-5.6 13.3-4.7 14.2.3.2-.2 2.4-1 4.9-1.2 3.7-1.3 6.2-.4 16.1.6 6.5 1.4 13.5 1.7 15.5.6 3.4.4 3.8-1.4 3.8-1.1 0-2.2.4-2.4.9-.1.5-4 1.1-8.5 1.2-9.1.3-10.1 1.1-8.9 6.7.7 3.3-.6 5.7-2.8 4.9-1-.4-1.7-1.9-1.7-3.9l-.2-3.3-.6 3.4c-.3 1.9-1.2 3.6-1.9 3.9-.9.3-1.1-.3-.8-2 .3-1.2.7-4.3.8-6.8l.3-4.5-4.5-.6c-2.5-.3-6.5-1.5-8.8-2.8-3.7-1.9-4.3-2.6-3.7-4.4.4-1.2 1.1-4.9 1.6-8.2.6-3.7 1.8-6.9 3.2-8.5 4.3-4.8 6.6-8.8 8.7-15.1 4.8-14.1 3.6-26.2-3.6-39.8-2.5-4.6-4.3-8.9-4-9.7s2-2.3 3.8-3.4c3.5-2.2 3.8-2.2 18.8-.2"/></svg>