<svg xmlns="http://www.w3.org/2000/svg" width="682.667" height="512" version="1.0" viewBox="0 0 512 384"><path d="M0 192v192h512V0H0zm219-66.6c4.6.9 9 2.2 9.7 2.9 1.8 1.9 1.9 6 0 8.7-.9 1.4-3.9 7.9-6.7 14.3l-5 11.7.3 12.3c.2 6.7.8 13.8 1.4 15.7 2.4 7.4 6 18.6 6.4 19.9.2.9-.4 1.7-1.6 1.9-1.1.2-2.4 1-3 1.7-.6.8-3.8 1.5-8 1.7l-7 .4v7.9c0 6.8-.3 8-1.7 8.3-1.1.2-1.8-.3-1.8-1.2s-.5-1.6-1-1.6c-.6 0-.8-1.1-.4-2.5.4-1.7.2-2.5-.6-2.5-.9 0-1.1 1.3-.8 4.5.3 2.5.2 4.5-.2 4.5-.3 0-.7-.6-.8-1.3 0-.6-.3-4.1-.5-7.7-.3-3.6-.6-7-.6-7.6-.1-.7-2.9-1.1-7.4-1.1-11.3-.1-11.2 0-11.1-8.5.1-5.9.8-8.5 3.3-13.9 2.9-6.1 4.3-11.8 5.5-22.6 1-9.1-4.5-24.2-12-33-2.5-2.9-4.4-6.1-4.2-7 .2-1 1.9-2.8 3.8-4.1 3.1-2.2 4.3-2.3 11-1.9 5.2.4 8.6.1 11-.8 4.1-1.7 10.2-1.4 22 .9"/><path d="M200.1 222.6c0 1.1.3 1.4.6.6.3-.7.2-1.6-.1-1.9-.3-.4-.6.2-.5 1.3"/></svg>