<svg xmlns="http://www.w3.org/2000/svg" width="682.667" height="512" version="1.0" viewBox="0 0 512 384"><path d="M0 192v192h512V0H0zm222.9-75.7c3 1.5 4.2 5.4 2.4 8.2-.7 1.2-2.2 6.6-3.4 12-1.2 5.5-2.4 11.3-2.8 13-.5 1.9-.1 5.4 1.1 9.7 1 3.7 1.8 8.1 1.8 9.6 0 3.2 8.7 21.8 12.6 26.9 2.9 3.9 3 4.1.2 5.4-1.3.5-3.4 1.6-4.8 2.4s-3.7 1.5-5.2 1.5c-7.7 0-9.3 3-5.8 10.9 2.2 4.8 2.5 7.7 1 8.6-1.9 1.2-3.7-1.4-5.6-8-1.9-6.4-3.3-7.6-3.5-2.7-.1 2.9-.3 2.4-1.4-2.2l-.6-2.9-6.7.8c-12.4 1.4-11.4 1.7-13-5-1.8-7.7-1.8-9.8.3-16.5 2.3-7.9 1.6-25.4-1.4-33-3.2-8-8.9-15.9-14.8-20.5-2.8-2.2-5.2-4.5-5.2-5.1-.1-1.5 5-6.1 8.2-7.3 1.6-.6 4.1-1.1 5.6-1.1s5-1.2 7.7-2.6c2.7-1.5 6-3 7.4-3.5 3.4-1.2 22.8-.1 25.9 1.4m-11.2 102.9c-.3.8-.6.5-.6-.6-.1-1.1.2-1.7.5-1.3.3.3.4 1.2.1 1.9m1 4c-.3.8-.6.5-.6-.6-.1-1.1.2-1.7.5-1.3.3.3.4 1.2.1 1.9"/></svg>