<svg xmlns="http://www.w3.org/2000/svg" width="682.667" height="512" version="1.0" viewBox="0 0 512 384"><path d="M0 192v192h512V0H0zm210.7-90c4.2 0 6.6 2.4 5.8 6-.6 2.6 2.8 22.9 4.2 25.4.3.6 2 2.9 3.8 5.1s3.9 5.3 4.8 7c.9 1.6 2.6 4 3.9 5.3 4.2 4.2 14.8 12.1 18.4 13.8 3 1.4 3.5 2.1 2.9 4.1-.8 3.4-3.9 7.4-7.5 9.8-1.6 1.1-3.4 2.9-4.1 4.2-1 1.9-.7 2.7 2.5 6.4 3.9 4.6 4.3 6 2.2 7.8-1.1.9-2.1.1-5.2-4-3.6-4.9-3.8-5.1-5.3-3.3s-7.6 4.1-17.1 6.5c-3.9 1-4.6.9-5.5-.6-.5-.9-2.7-4.3-4.7-7.6-2.9-4.3-3.8-6.9-3.8-10.1-.2-20.1-15.9-40-33.5-42.5-3.6-.5-4.9-1.1-5.8-3-1.4-3.2.9-7.9 5.7-11.9 2-1.6 6.8-5.7 10.7-9.2 8.6-7.8 15.8-11.3 20.8-10.1 2 .5 5 .9 6.8.9"/></svg>