<svg xmlns="http://www.w3.org/2000/svg" width="682.667" height="512" version="1.0" viewBox="0 0 512 384"><path d="M0 192v192h512V0H0zm209.9-92.1c1 .6 2.2 3.1 2.8 5.8.7 2.6 2.8 8.3 4.7 12.5 3 6.3 4.5 8.3 8.4 11 2.6 1.8 6.3 4.7 8.2 6.6 5.5 5.3 13.3 8.9 25.3 11.6 4.6 1.1 3.4 6.5-3.5 15.7-2.8 3.6-3.5 5.9-2 5.9.9 0 7.2 5.9 7.2 6.8 0 .4-.4 1.3-.9 2.1-.8 1.2-1.6.8-4.7-1.8l-3.7-3.3-3.1 3.5c-4.3 4.8-7.5 6.6-14.8 8.3-6.2 1.5-6.3 1.5-8.1-.8-.9-1.3-3.8-4.4-6.2-7-2.5-2.6-4.5-5.6-4.5-6.7 0-2.8-4.5-12.8-7.7-16.9-3.8-5.1-13.7-11.9-19.7-13.6-3-.9-8.3-1.6-11.9-1.6-6.3 0-6.5-.1-7.7-3.1-2.1-4.9.2-10.3 6.9-17 3.1-3.1 6.5-7.1 7.6-9 1.1-1.8 4.4-5 7.2-7 5-3.5 5.6-3.6 11.9-3.3 3.6.3 7.4.8 8.3 1.3"/></svg>