<svg xmlns="http://www.w3.org/2000/svg" width="682.667" height="512" version="1.0" viewBox="0 0 512 384"><path d="M0 192v192h512V0H0zm199.5-92c5.9 0 6.5.2 8 2.8 2.1 3.5 7.7 7.4 11.3 7.8 1.6.2 4.1.8 5.7 1.4 5.2 2 15.3 2.2 23.6.5 6.4-1.3 8.3-1.4 9.5-.4 1.2.9 2.3.9 5.6 0 5.9-1.8 7.1 0 6.5 9.2-.4 5.7-.2 6.9 1.2 7.4 5.7 1.8 7.1 2.7 7.1 4.5 0 2.1-1 2.1-7.9.2-2.4-.7-2.4-.6-1.8 3.9.5 3.7.2 5.4-1.8 9.1-4.1 7.6-5.8 8.9-11.7 9.1-3.9 0-6.9-.7-11.1-2.7-3.1-1.6-6.3-2.8-7.1-2.8-.7 0-1.9-.6-2.5-1.4-2.1-2.5-17.3-9.6-20.5-9.6-3.6 0-10.5 3-12.5 5.3-1.5 1.9-7.2 2.3-9.9.8-1.1-.6-3.4-.5-6.1.2-4.2 1.1-4.4 1.1-7.1-2-5.7-6.4-6-16.6-.6-22.2 1.4-1.5 2.6-3.4 2.6-4.3 0-4.2 9.5-18.2 11.7-17.3.8.3 4.3.5 7.8.5"/></svg>