<svg xmlns="http://www.w3.org/2000/svg" width="682.667" height="512" version="1.0" viewBox="0 0 512 384"><path d="M168.4 2.8c.8 1.6 2.1 3.3 2.8 3.9 1.9 1.5 10.6 1.5 13.1-.1 1.2-.8 4.1-1.6 6.5-2L195 4l-.6 5.3c-.5 4.1 0 7.9 2 15.9l2.7 10.5-2 8.1c-3.1 11.8-2.8 15.8 1.4 20.5 2.3 2.7 4 3.8 5.6 3.5 1.2-.2 2.5.4 3 1.2.4.8 4.7 9.4 9.4 19.1l8.5 17.6v13.7c0 11.9.2 13.7 1.5 13.2 1.1-.4 1.5.1 1.5 1.9 0 2.3-.4 2.5-4.2 2.5-6.6 0-7.4 1-4.5 5.3 2.5 3.7 4.3 11.5 3 12.8-.4.4-3 1.9-5.8 3.4-17.3 9.5-28.5 22.5-31.4 36.8-.6 2.9-1.7 12.3-2.4 21-1.4 16.6-1.8 17.7-6.5 17.7-3.9 0-13.1 3.7-17.1 7-10 7.8-9.1 24.8 1.8 35.5l4 4-3.9 14.4c-2.2 7.9-4 14.8-4 15.3 0 1.3-14.9 35.4-24.3 55.5l-8.5 18.3h230.9l-.6-14.8c-.6-13.5-.5-15.7 1.9-26.9 4-18.5 13.1-46.7 14.8-45.7 2.8 1.7 3.6 13 2.3 30.4-.2 3-.7 10.2-1.1 16-.3 5.8-.7 11.4-.8 12.5 0 1.1-.5 2.5-.9 3.2s-.9 3.4-1.2 6c-.2 2.6-1 7-1.8 9.8-.8 2.7-1.7 6-2 7.2l-.5 2.3h98.9l-6.2-12.1c-5.4-10.6-6.4-13.5-8-23.3-1.1-6.1-3.3-18.3-5.1-27.1-4.4-22.9-4.3-23.6 5.6-35.9 6.4-7.9 7.7-12.2 5.1-16.3-4.3-6.5-10.5-9.4-22.7-10.8-3.2-.3-6-1.1-6.4-1.6-1.3-2.2-3.4-20.5-3.9-35.4-.7-17.6-1.8-25.2-4.5-30.5-1.8-3.5-10.3-12.1-14.9-15.1-2.1-1.3-2.5-2.5-2.9-8.3-.5-6.9 2.3-27.2 4-29.3.5-.7 2.4-1 4.3-.8 4.4.6 5-.6 3.1-5.8-1.6-4.2-7.6-45.1-7.9-53.7-.2-3.9-.5-4.5-2.5-4.6-1.2-.1-2.5-.4-2.8-.6-.2-.3-1.1-4.2-1.8-8.7l-1.3-8.2 2.8-2.9c3.4-3.5 7.9-10.5 7.9-12.2 0-.6.9-3 2-5.2 2.8-5.8 4.4-18.2 3.4-26.3-.4-3.8-.6-7.4-.5-8.1C411 .3 386.1 0 289 0H166.9zm233.3 33.4c-.3.8-.6.5-.6-.6-.1-1.1.2-1.7.5-1.3.3.3.4 1.2.1 1.9m-17.4 125.5c.3 1.6.3 3 .1 3.3-.7.7-2.4-2.3-2.4-4.3 0-2.7 1.7-2 2.3 1"/></svg>