<svg xmlns="http://www.w3.org/2000/svg" width="682.667" height="512" version="1.0" viewBox="0 0 512 384"><path d="M0 17.4v17.5l9.8 5.2c5.3 2.9 12 6.6 14.7 8.3 6.1 3.8 5.6 3.5 23.4 13.8 7.9 4.6 16.3 9.4 18.6 10.8 2.4 1.4 9.9 5.7 16.6 9.6 13.2 7.5 74.4 42.9 76.9 44.5.8.5 6.9 4 13.5 7.7 15.5 8.8 16.7 9.5 18.5 10.8.8.6 4.9 2.9 9 5.1s10.9 6 15 8.5c12.4 7.4 33.8 19.7 42.8 24.8 1.5.8 6.2 3.5 10.5 6s10.9 6.3 14.7 8.5 10.8 6.2 15.6 9c4.8 2.7 10.4 6 12.5 7.2 2.1 1.1 5.3 3 7.1 4 1.8 1.1 7.6 4.4 12.8 7.5 5.2 3 14 8.2 19.5 11.4s10.7 6.2 11.6 6.6c.8.3 4.5 2.4 8.2 4.7 3.6 2.2 8.7 5.2 11.4 6.6 2.6 1.4 6.4 3.5 8.4 4.8 3.7 2.3 18.4 10.8 37.4 21.7 6.1 3.4 16.2 9.3 22.5 13s13.7 8 16.5 9.6c2.7 1.6 5.9 3.4 7 4.1s3.1 1.8 4.5 2.5 5.7 3.2 9.7 5.6c3.9 2.3 7.4 4.2 7.7 4.2s2.9 1.5 5.8 3.4c2.9 1.8 6.3 3.8 7.6 4.5l2.2 1.2V0H0zm280.7 30.3c.3.7-.8 2-2.4 2.9-5.8 3.6-8.2 6.5-7.7 9.3.5 2.6 1.1 3.3 9.4 10.3l4.3 3.8-.9 4.7c-.8 4.1-1.4 5.1-4.3 6.5-3.8 1.9-10.9 8.4-14.8 13.5-1.5 1.9-4 4.1-5.6 4.9-4.5 2.4-11.6 9.4-13.7 13.4-3 5.9-6.2 19.6-5.4 23.6.7 3.9 1.2 3.7-13.7 3.6-6.4 0-8.3-.4-11.5-2.5-5.6-3.6-10.3-8.6-11-11.6-.6-3-.9-3.6-2.9-7.1-.8-1.4-1.5-4-1.5-5.8 0-2.6.5-3.4 2.8-4.3 7.6-3 13.4-6.6 15.6-9.9 4.7-7.1 5.5-8.8 7-14.5.8-3.1 2.7-7.5 4.3-9.6 1.5-2.2 3.7-5.4 4.8-7.3 1.1-1.8 4.7-6.7 8-10.8s6.5-8.3 7-9.3c.9-1.5 1.5-1.6 3.2-.6 1.2.6 3.3 1.1 4.7 1.1s4.1.8 6.1 1.7c3.4 1.6 3.6 1.6 5.7-.4 3.7-3.4 10.1-7.4 11.2-7 .5.2 1.1.8 1.3 1.4m-6.7 7.7c0 .2-.8 1-1.7 1.7-1.6 1.3-1.7 1.2-.4-.4s2.1-2.1 2.1-1.3"/></svg>