<svg xmlns="http://www.w3.org/2000/svg" width="682.667" height="512" version="1.0" viewBox="0 0 512 384"><path d="M250.5 18.2c-.7 1.8-1.6 4.4-1.9 5.9-.4 2-1.7 2.9-6.9 4.8-5.7 2-6.6 2.7-7.9 6-.9 2.3-1.2 4.4-.7 5.3s1.1 5.5 1.3 10.4c.9 17.1 2.4 26.2 5.1 31.8 1.4 2.9 3.3 9 4.2 13.5 1.5 7.6 1.5 8.8 0 15.7-.9 4.2-2.3 9-3.2 10.6-.8 1.7-1.5 3.4-1.5 3.8s2.9 1.3 6.5 2c7.3 1.4 13.5.8 21-2.1 2.7-1 6.8-1.9 9-1.9 4.9 0 10.9-2.8 15.5-7 3.2-3.1 3.3-3.4 1.6-4.4-3.4-2-6.3-5.1-8.6-9.1-7.8-13.5-10.2-23.4-8.2-33.2.7-3.5.9-9.7.6-15.8-.4-7.2-.2-11.3.9-14.5 1.8-5.9.9-7.7-6-11.9-5.1-3.1-5.9-3.3-11-2.7l-5.6.6.8-3.2c.4-1.8.9-4.3 1.2-5.6.5-1.8.1-2.2-2.1-2.2-2 0-3 .8-4.1 3.2"/></svg>