<svg xmlns="http://www.w3.org/2000/svg" width="682.667" height="512" version="1.0" viewBox="0 0 512 384"><path d="M249 18.2c-1.9 1.1-5 2.2-6.7 2.3-3.6.3-6.3 2-6.3 4.1 0 .7-1.9 3.5-4.3 6.1l-4.2 4.8.5 6.8c.4 5.9.8 7 3.1 8.5 3 2 9.7 10.1 15.1 18.4 2 3.1 5.5 6.8 7.6 8.2 12.4 7.8 20.4 21.4 21.4 36 .3 4 .7 5 2.3 5.2 1.1.2 3.4.6 5.1 1 5.6 1.1 18.3-7.5 22.1-15 .9-1.7 4.2-5.6 7.5-8.7 6-5.9 9.7-12.4 9.8-17.1 0-2.4-.4-2.7-4.7-3.4-2.7-.4-5.9-1.5-7.1-2.5-1.4-1-3.8-1.8-5.7-1.7-6.5.2-18.5-11.3-22-21.3-.8-2.3-3.4-6.3-5.8-8.8-4.1-4.5-7-9.8-8.1-15.2-.4-2-1.7-3.1-4.8-4.3-2.3-1-5.2-2.6-6.6-3.7-3.1-2.4-3.9-2.4-8.2.3"/></svg>