<svg xmlns="http://www.w3.org/2000/svg" width="682.667" height="512" version="1.0" viewBox="0 0 512 384"><path d="M239.3 26c-4.2 3.8-5.4 5.7-7.8 12.8l-2.9 8.4 2.3 6.6c3.1 8.9 4.5 10.9 8 11.7 1.6.3 4.9 2 7.1 3.6l4.2 3.1 4.8-2.1c5.5-2.4 17.6-2.9 21.3-.9 1.2.6 4.9 1.3 8.1 1.6 10.9.7 21.9 6.7 26.6 14.5 1 1.6 4 3.9 6.9 5.2l5 2.4 4.5-5c5.4-6 8.1-13.2 7.3-19.8-.4-3.5.2-6.7 2.5-13.6 2.4-7.2 2.9-10 2.4-14.1-1-8.7-2.3-11.1-6.2-11.7-1.9-.3-5.1-2-7-3.6-1.9-1.7-3.9-3.1-4.5-3.1s-2.9 1.3-5.2 2.9c-2.3 1.5-5.3 3.2-6.7 3.6s-4.3 2.4-6.5 4.5c-5.3 5-9.7 5.9-16 3.1-2.6-1.2-5.5-2.1-6.5-2.1-3.5 0-16.6-3.8-20.5-5.9-2.2-1.1-4.7-2.1-5.6-2.1-.8 0-3.6-1-6.1-2.3l-4.5-2.3z"/></svg>