<svg xmlns="http://www.w3.org/2000/svg" width="682.667" height="512" version="1.0" viewBox="0 0 512 384"><path d="M165.5 1.3c2.8 1.8 10.8 2 13.1.2 1.7-1.3 1-1.4-6.6-1.5-7.3 0-8.2.2-6.5 1.3M190 4.8c0 2.7.5 8.4 1.1 12.8 1 7.6.9 8.3-2 17.2-1.9 5.7-3.1 11.5-3.1 14.7 0 4.7.4 5.8 3.3 8.9 2.4 2.6 4.2 3.6 7 3.8l3.9.3 5.1 12c2.9 6.6 7.8 16.6 11.1 22.3 6.6 11.7 8.1 15.3 9.6 24.4 1.6 10.3 2.2 9.5-8.5 10.3-8.9.7-11 1.4-8.4 3.1 1.8 1.1 4.9 8.6 4.9 12 0 2.8-.8 3.6-8.4 8.2-9.7 6-20.5 16.1-23.6 22.3-4.2 8.2-5.1 12.5-6.5 32.4-1.5 21.4-1.9 22.5-7.2 22.5-3.5 0-13 3.9-16.5 6.8-8.6 7.2-7.5 21.4 2.4 31.3l5.1 5.1-1.6 7.2c-7.3 32.5-7.6 33.4-28.9 79.5-5.4 11.7-9.8 21.5-9.8 21.7s50.9.4 113 .4h113l-.4-2.3c-.3-1.2-1-9.6-1.7-18.7-1.1-16.2-1.1-16.7 1.5-29.5 2.7-13.2 13.3-47.5 14.7-47.5 1.3 0 7 6.3 8 8.8.6 1.5.7 12 .3 26.1-.4 13-.3 32.5.1 43.3l.7 19.8h44.9c24.7 0 44.9-.2 44.9-.4 0-.3-3.4-7.6-7.6-16.3-8.1-16.9-8.2-17.1-14.5-48.8-6.3-31.3-6.3-30 2.4-40.9 8.3-10.5 8.9-15.6 2.4-20.7-4-3.2-8.3-4.6-16.8-5.4-3.6-.4-7.1-1-7.6-1.4-1.6-.9-4.1-18.5-5.3-36.6-1.6-24.2-2.8-28.3-11.1-36.8l-3.6-3.7-.7-11.8c-.4-7-.2-13.1.4-15.2.5-1.9 1-5.3 1-7.6 0-4.9 1.2-6.1 6.4-6.2 5-.2 5.3-.6 3.1-3.9-1.7-2.5-9.5-44-9.8-52.3-.2-4.2-1.5-5.8-4.4-5.4-1.8.3-2.3-.6-4.2-8.3l-2.1-8.7 2.8-3.6c9.1-11.3 13.8-29.1 11.3-43l-1.3-7H190zm200.2 32.9c-.3 1.6-.7 2.2-1 1.5-.4-1.3.4-4.2 1.1-4.2.2 0 .2 1.2-.1 2.7m-11.9 114c1.4 5.1 1.8 11.5.7 11.1-1.7-.5-3.8-7.3-3.3-10.3.6-2.9 1.9-3.3 2.6-.8m15.6 17.8c.1 2.7 0 2.8-1.5 1.3-1.2-1.2-1.4-2.4-.9-4.9.7-3 .9-3.1 1.6-1.4.4 1.1.8 3.3.8 5M362.4 244c1.3 5.8 2.4 10.6 2.3 10.7s-1.4-.1-2.9-.4l-2.8-.5v-10.6c0-5.8.2-10.3.4-10.1.3.3 1.6 5.2 3 10.9m-.4 21.5c0 .1-.7.8-1.5 1.5-1.3 1-1.5.9-1.5-.8 0-1.5.5-2 1.5-1.6.8.4 1.5.7 1.5.9"/></svg>