<svg xmlns="http://www.w3.org/2000/svg" width="682.667" height="512" version="1.0" viewBox="0 0 512 384"><path d="M299.5 5c-3.3 10-17 26.3-27.3 32.5-3.8 2.2-5.6 4.4-9.2 10.8-2.5 4.4-4.4 9-4.2 10.1.4 2.7 11.8 12.3 16.5 13.9.6.2-.7 3.5-3.1 7.9-2.3 4.1-4.2 8-4.2 8.6 0 1.6 7.8 3.8 9 2.6.5-.5 1.8-3.4 2.9-6.4l1.8-5.5 5.4.2c3 .1 7.5 1.2 10.1 2.4 4.9 2.3 10.6 2.1 12.6-.4.5-.6 1.2-4.3 1.6-8s1.5-9.1 2.5-12c1.1-2.9 2.2-6.8 2.5-8.7s2.8-7.3 5.5-12 6.2-10.7 7.8-13.5c1.5-2.7 4.8-6.4 7.3-8.2s6.2-4.7 8.3-6.4c6-5 11.9-9.1 15.7-11.1C364.4.1 363.7.1 332.8 0h-31.6z"/></svg>