<svg xmlns="http://www.w3.org/2000/svg" width="682.667" height="512" version="1.0" viewBox="0 0 512 384"><path d="M302.7.7c-.4.3-.7 1.3-.7 2.1s-1.8 6-4.1 11.5c-4 10.1-8.8 17.5-16.1 25.2-2.1 2.2-4.1 5.1-4.4 6.5s-1.5 5.6-2.6 9.4c-1.1 4-1.6 7.2-1.1 7.7s5.6 2.1 11.4 3.5c5.7 1.5 10.5 2.8 10.7 2.9.4.3-5.6 20.7-6.3 21.3-1.2 1.2 1.8 4.2 4.3 4.2 5.6 0 7.1-1 7.7-4.9.3-2 1.1-6.3 1.8-9.6l1.2-6 4-.1c2.2 0 5.9.8 8.3 1.8 5.4 2.2 7.5 2.3 12.4.1 2.9-1.3 3.7-2.1 3.1-3.3-.4-.8-.9-8.7-1.1-17.6-.3-15-.2-16.5 2.1-23.5 1.4-4.1 2.8-9.4 3.2-11.9 1.1-6.9 3.3-12.1 6.6-16.3l3-3.7h-21.4c-11.7 0-21.7.3-22 .7"/></svg>