<svg xmlns="http://www.w3.org/2000/svg" width="682.667" height="512" version="1.0" viewBox="0 0 512 384"><path d="M306.4 1.5c.3.9-.3 6-1.3 11.5-1.9 9.6-6.8 21.9-11 27.9-1.7 2.3-2.1 4.4-2.1 10.3 0 4-.4 8.8-.9 10.6-1.2 4.2-.1 4.7 10.9 5.6 4.7.4 10 1.2 11.7 1.7l3.3 1-.7 8.7c-1 14.7-1.1 13.7 2 13.7 1.6.1 3-.2 3.3-.7.3-.4 1.1-.5 1.9-.1.8.3 1.5 0 1.5-.7s.7-1 1.5-.6c1.8.6 1.7.9 1.5-11.6l-.2-9.7 3.4-.5c1.8-.4 5.8-.4 8.8-.2 5.4.4 9.4-.9 14.3-4.6 1.7-1.3 1.7-1.6-.7-6.8-1.4-3-3.9-11.1-5.6-17.9-2.7-10.7-3.1-13.7-2.7-22 .3-5.3.2-11.3 0-13.4l-.5-3.7h-19.5c-17.2 0-19.4.2-18.9 1.5m18.3 77.7c-.3.8-.6.5-.6-.6-.1-1.1.2-1.7.5-1.3.3.3.4 1.2.1 1.9"/></svg>