<svg xmlns="http://www.w3.org/2000/svg" width="682.667" height="512" version="1.0" viewBox="0 0 512 384"><path d="M270.8.7c.6.2 1.8.2 2.5 0 .6-.3.1-.5-1.3-.5s-1.9.2-1.2.5m6.9.3c1.8.4 4.8 2.1 6.8 3.9 4.1 3.6 4.7 3.6 10.5 1.6 12.1-4.3 29.6.2 36.1 9.3 1.8 2.6 5.4 6.9 8 9.7 2.5 2.7 5.3 6.4 6.2 8 .8 1.7 4.4 6 7.9 9.5 3.6 3.6 7.2 7.6 8 8.9 1.5 2.2 7.2 4.2 12 4.2 2.8 0 12.9-7 18-12.5l4.8-5.1 5 5.3c2.8 2.9 5.5 5 6.1 4.6 1.1-.6-.4-2.7-5.1-7.4-1.4-1.4-3.2-3.4-4-4.5-1.3-1.7-1.1-1.7 1.7.3 1.7 1.2 4.3 3.6 5.7 5.2 2.7 3.2 4.6 3.9 4.6 1.6 0-.8 1-1.8 2.1-2.1 1.2-.4 1.8-1 1.3-1.4-.5-.3-1.6-1.9-2.4-3.4-.8-1.6-2.9-3.5-4.7-4.2-4.4-1.9-7.8-5.1-6.3-6 .6-.4 3.1.7 5.5 2.4s4.8 3.1 5.4 3.1 1.5.9 2.1 2c1.2 2.3 3.2 2.8 2.4.6-.3-.8-2.4-2.7-4.7-4.2-2.3-1.6-5.2-3.6-6.4-4.5l-2.2-1.6 2.6-3.8c2.7-4 7.2-15.7 7.3-18.8 0-1.6-3.9-1.7-68.7-1.6-37.9.1-67.4.4-65.6.9m131 37.7c1.5 3.1.8 2.9-3.4-1.2-2-1.9-4-3.5-4.5-3.5-.4 0-.8-.4-.8-.9 0-1.7 7.6 3.2 8.7 5.6"/></svg>