<svg xmlns="http://www.w3.org/2000/svg" width="682.667" height="512" version="1.0" viewBox="0 0 512 384"><path d="M266 3.9c0 4.5 3.2 15.6 5.5 18.8 1.3 1.9 2.6 2.3 6.6 2.3 3.9 0 5.8.6 9.1 3 2.2 1.6 4.8 3 5.6 3s3.6-2 6.4-4.4c7.4-6.8 18.8-11 29.8-11 8.7-.1 11.1.7 24 7.8 1.4.8 5.9 1.7 10.1 2 8.7.6 16.2 3.1 25.8 8.6 7.8 4.5 8.4 4.4 14.8-4.6 4.4-6.3 6.3-11.2 6.3-16.3 0-1.7.5-3.1 1-3.1.6 0 1-.9 1-2 0-2 2.4-2.8 3.4-1.1.4.5 2.4 1.2 4.5 1.6 2.2.4 4.5 1.3 5.2 2.1 1.2 1.5 2.9 1.9 2.9.6 0-1.2-5.6-4.2-11-5.8-3.1-.9-5-2-5-3 0-1.8 2.7-1.2 11.8 2.3 3.5 1.4 6.6 2.3 6.8 2 .3-.3-2.3-1.9-5.7-3.6L418.7 0H266z"/></svg>