<svg xmlns="http://www.w3.org/2000/svg" width="682.667" height="512" version="1.0" viewBox="0 0 512 384"><path d="M322 .6c0 .3.7 2.8 1.6 5.5 1.3 3.9 1.6 7.9 1.2 19.2l-.4 14.2-4.2 8.8c-2.3 4.9-4.2 9.4-4.2 9.9 0 .6-1.8 3.2-4 5.8-4.3 5.2-4.8 6.7-2.5 7.6.8.4 1.5 1.1 1.5 1.7s2.1 3 4.8 5.4c6 5.4 11.3 6.7 25.3 6.1 8.2-.4 11.3-1 14.9-2.8 4.3-2.2 4.8-2.2 10.5-.9 7.4 1.7 16 1.7 20.6 0 4.1-1.6 11.9-5.3 11.9-5.7 0-.2-2.1-3.1-4.8-6.6-4.5-5.9-10.6-19.6-13.1-29.3-2.6-9.5-2.3-27.2.5-37.3l.6-2.2h-30.1c-16.5 0-30.1.3-30.1.6"/></svg>