<svg xmlns="http://www.w3.org/2000/svg" width="682.667" height="512" version="1.0" viewBox="0 0 512 384"><path d="M307.4 1.6c.3.9.6 2.4.6 3.4s1.1 3.1 2.4 4.7c1.2 1.5 3.6 6.6 5.1 11.3 4.5 13.6 6.3 17.2 11.5 22.5 5.6 5.8 11.1 15.5 13.5 23.8 1.4 5 1.5 7.4.6 17.3-.6 6.3-1.6 13.2-2.2 15.5l-1.2 4 7.9 7.4c8.8 8.4 9.9 8.7 20.3 6 9-2.3 13.9-5.2 22.1-13 6.1-5.8 8.6-7.5 11.6-8 9-1.4 13.9-3.6 19.2-8.4C424 83.4 429 77.3 429 75.8c0-.4-4.2-2.7-9.3-5.2-7.5-3.6-10.9-6-17.4-12.3-15.7-15.3-21.7-28.7-21.8-48.5V0h-36.9c-33.2 0-36.8.2-36.2 1.6"/></svg>