<svg xmlns="http://www.w3.org/2000/svg" width="682.667" height="512" version="1.0" viewBox="0 0 512 384"><path d="M291.2 3.7c-.9 2.1-2 4-2.3 4.3-5.8 4.5-12.6 54-7.5 54 3.4 0 9.2 2.6 12.4 5.4 2 1.9 5.7 4.3 8.2 5.6 2.5 1.2 9.3 6.9 15.1 12.6C323 91.4 328.5 96 329.6 96c2.7 0 12.7 4.9 21 10.3 12.1 7.9 20.2 18.7 22.3 30 .7 4 2 6 7.2 11.5 3.5 3.7 7.8 7.8 9.6 9.1 3 2.2 3.2 2.2 6.4.6 3.8-2 4.1-2.2 10.1-7.5 6.3-5.6 10.2-11.7 12.8-20 2.2-7.1 2.2-7.2 15.1-17.9 4.5-3.8 8.8-11.6 11.4-20.5l1.7-5.8-2.8-2.9c-1.5-1.6-3.5-2.9-4.3-2.9-.9 0-4-1.6-6.9-3.6-5.2-3.6-5.4-3.7-16-3.8-9.5-.1-11.2-.4-15.3-2.7-4.8-2.7-12.1-7.7-15.4-10.6-4.7-4.1-12.1-14.3-15.1-20.9-2.3-5.1-4.2-7.7-6.6-9.2-7.1-4.5-18.4-18.3-20.8-25.7L342.8 0h-22.2c-15.9 0-22.5.3-23.4 1.2s-1.2.9-1.2 0c0-2.6-3.1-1-4.8 2.5"/></svg>