<svg xmlns="http://www.w3.org/2000/svg" width="682.667" height="512" version="1.0" viewBox="0 0 512 384"><path d="M372.6 230.2c-2.5 1.9-3.2 2-8.3.8-8.7-1.9-11.2.2-11.3 9.5 0 2.2-.7 6.2-1.6 9-1.1 3.7-1.3 7.1-.9 13 .5 6.3.3 9-1 12.5-1.7 4.6-5.2 11.7-6.7 13.5-.4.5-2.8 3.5-5.3 6.6-2.5 3.2-6.3 6.4-8.9 7.7-2.4 1.2-5 2.9-5.7 3.8-.7.8-3.1 2.5-5.3 3.6s-7.6 5-12 8.6-10.1 7.4-12.6 8.4c-2.5 1.1-8.6 4-13.6 6.4s-9.6 4.4-10.2 4.4c-1.4 0-1.9 2.2-2.7 12.3-.7 8.8.2 12.6 4.6 19.6 1.6 2.5 2.8 5.6 2.7 7-.1 1.5.4 3.6 1.1 4.8l1.2 2.3h29.7c16.3 0 30.2-.4 30.7-.8.6-.4 2.6-4.1 4.5-8.2 4.2-9.2 13.3-19.2 20.5-22.6 2.8-1.3 8.2-5.4 12.2-9.2 8.3-7.9 15.3-11.9 29.6-17 9.5-3.3 11.1-3.6 23-3.8 7.9-.1 13.3-.6 14-1.3.6-.6 2.6-1.1 4.5-1.1h3.4l-.7-6.8c-.4-3.7-1.4-9.6-2.2-13.2s-1.6-7.5-1.8-8.6c-.3-2.3-5.8-11.2-9.7-15.6-1.2-1.4-5-4.1-8.3-5.8-7.7-4.2-9.1-5.5-16.1-15.3-10.5-15-16-19.4-31.9-25.7-1.5-.5-2.9-.2-4.9 1.2"/></svg>