<svg xmlns="http://www.w3.org/2000/svg" width="682.667" height="512" version="1.0" viewBox="0 0 512 384"><path d="M327.3 189.9c-13.7.7-15.6 1.8-14.2 7.8.5 2.1.9 5.3.9 7 0 1.8 2.1 7.9 4.6 13.5 8.4 18.5 9.7 25.9 7.4 40.8-1.6 9.7-4.5 17.8-9.4 25.6-2.4 3.9-6.1 10.2-8.1 14-2.1 3.8-4.4 7.6-5.1 8.5-.8.8-1.4 1.9-1.4 2.4s-2.5 4.1-5.6 8.1c-5.4 7.1-11.6 19.8-13.6 28-.9 3.4-.7 5.2 1.2 11 2.5 7.5 3.7 8.8 15 17.4 4 3 7.9 6.1 8.7 6.8 1.1 1.1 4.5 1.3 16.6.8 20.8-.9 31.1-2.3 34.2-4.8 5.3-4.1 5.9-6.8 6.1-26.3.2-18.8.7-22 5.6-32.5 3.4-7.2 4.5-10 7.3-18.9 4.1-13.3 6.9-17.8 17.9-29.8 2.7-2.9 5.9-6.6 7.1-8.3 2.6-3.6 12.1-13 13.1-13 .3 0 2.4-1.4 4.5-3.1s3.9-2.7 3.9-2.3c0 .5.7-.2 1.6-1.4 1.8-2.6 1.5-5.5-1.7-15.4-2.2-7.1-3-8.2-8.4-11.7-9-5.8-18.6-8.6-26.7-7.9-4.8.5-5.3.3-14.4-5.8-5.3-3.5-11.4-6.9-13.7-7.5s-5.2-1.5-6.3-1.9c-3.4-1.3-14.8-1.8-27.1-1.1"/></svg>