<svg xmlns="http://www.w3.org/2000/svg" width="682.667" height="512" version="1.0" viewBox="0 0 512 384"><path d="M183 4.3c0 2.4-.9 5.7-2 7.7-5.3 9.4-11.3 22.5-11.7 26.1-.6 3.8.7 7.8 3.3 10.5 1.4 1.6 11.4 2.9 11.4 1.5 0-.7.9-.7 3 0 1.9.7 3 1.8 3 3 0 3.5 8.1 23.3 15.5 37.9 8.2 16.2 14.6 31 14 32-.3.4-5.9 1.1-12.5 1.5s-12 .9-12 1.3c0 .3.6 1.3 1.4 2.1 1.5 1.8 4.6 10.6 4.6 13 0 .9-3.4 3.6-7.7 6.1-9.1 5.3-22.1 17.6-25.3 23.9-2.9 5.9-4.9 17.4-5 29.1 0 9.3-1.6 28-2.4 28.8-.3.2-3.4.7-7 1.2-9.1 1.1-15.2 4.2-17.6 9.1-1.1 2.1-2 4.6-2 5.6.1 3.2 3.6 9.7 7.9 14.7 6.3 7.2 6.4 7.9 3.5 21.3-1.3 6.5-3.4 16.1-4.5 21.4-2.1 10.3-7.8 24.1-28.5 68.4l-6.1 13 109.5.3c60.3.1 109.7 0 110-.3.3-.2-.1-7.8-.8-16.7-.8-9-1.4-23.1-1.4-31.3 0-16.6.8-21.2 8.6-46 2.2-7.2 4.3-15 4.7-17.4l.6-4.3 6.3 6.2c3.4 3.4 6.2 7 6.3 7.9 0 .9.2 22.3.3 47.6s.6 47.9 1.1 50.2l.8 4.3h45.4c36 0 45.4-.3 45-1.3-.3-.6-3.2-7.5-6.5-15.2s-7.8-18.2-10.2-23.3c-3.3-7.5-5-13.6-8.5-30.5-2.4-11.7-5-23.9-5.7-27.2-2.5-10.7-1.4-14.8 7.9-27.8 2.7-3.8 3.3-5.7 3.1-8.5-.3-3.1-.9-4-4.3-5.9-2.2-1.2-6.6-2.5-9.7-2.9-3.2-.4-6.2-1.2-6.8-1.8-.5-.7-1.8-5-3-9.6-1.1-4.7-2.8-9.6-3.9-11.1s-1.6-3.1-1.1-3.9c.4-.7-.1-3.7-1.2-6.9-1.1-3.1-2.4-9.1-2.9-13.5-1.2-11.5-3.5-18-8.5-23.6l-4.4-4.8 1.5-4.8c.8-2.7 1.5-6.2 1.5-7.9 0-3.6 1.5-2.3 2.8 2.5 1 3.3 1 3.1 1.1-2.9.1-3.6-.4-10.3-1.1-14.9-1.3-9.2-.9-10.2 4.4-10.2 3.5 0 4.2-1.4 2.4-4.2-.8-1.3-1.9-4.8-2.5-7.8-6.8-33.9-8.2-41.5-7.8-43.2.5-1.8.2-1.9-2.8-1.4-1.8.4-3.6.3-3.9-.2s-1.3-4.6-2.2-9l-1.6-8 3.2-4.7c7.3-10.6 10.8-23.4 9.6-35.1-.6-5.7-.5-6.4 1.1-6.4 2.3 0 9.5-5.8 8.8-7.1-.4-.5-42.4-.9-104.6-.9H183zm188.1 39.9c-1.6 3.7-1.9 3.9-2 1.8-.1-1.4.7-4.7 1.6-7.4 1.7-4.8 1.8-4.9 2.1-1.8.2 1.7-.6 5-1.7 7.4m-4.3 96.9c.4 2.4.3 2.4-1.2.4-1.9-2.4-2-3.8-.3-3.3.6.3 1.3 1.5 1.5 2.9m-21.2 92.1c1.3 5.9 2.4 10.8 2.4 11s-1 .4-2.2.5c-1.3.1-3.4.4-4.8.8l-2.5.6.7-11.7c.3-6.4 1-12.9 1.3-14.3l.7-2.6 1 2.5c.5 1.4 2 7.3 3.4 13.2m-3 18.6 3 2.7-3.8 3.4-3.8 3.3v-6.1c0-3.3.3-6.1.8-6.1.4.1 2.1 1.3 3.8 2.8"/><path d="M384.1 162.6c0 1.1.3 1.4.6.6.3-.7.2-1.6-.1-1.9-.3-.4-.6.2-.5 1.3"/></svg>