<svg xmlns="http://www.w3.org/2000/svg" width="682.667" height="512" version="1.0" viewBox="0 0 512 384"><path d="M266 80.6c-1.4.3-7.2 1.6-13 3.1-12.8 3.2-19.1 7.1-27.9 17.3-6.5 7.6-9.4 12.5-10.5 17.7-.9 3.7-4.3 8.7-11.5 16.3-7.4 7.9-11.1 15.7-11.1 23.5 0 7.9.9 8.8 9.2 8.3 3.5-.3 11.5-.1 17.9.2 10.6.6 12.6 1.1 22.5 5 10.4 4.2 26.5 13.3 32.9 18.8 1.6 1.3 6.8 7.1 11.5 12.7 8.5 10.2 17.5 25.5 20 34 1.5 5 2.1 5.9 9.2 11.8 3.1 2.6 8.1 7.2 11.1 10.2 6.1 6.1 8.6 6.8 11.2 2.9 2.9-4.5 23-24.4 24.6-24.4.7 0 3.7 2.1 6.4 4.6 2.8 2.5 7.7 6.7 11 9.4 3.3 2.6 7 6 8.2 7.4 4.5 5.1 8.3 2.5 8.3-5.6 0-4.9-1.4-6.6-10.5-12.7-12.9-8.8-14.5-10.3-14.5-14 0-3.1 1.1-4.5 9.3-12.4 11.7-11.4 12.7-12.9 11.7-17.3-1.2-5.2-3.6-8.2-7.2-8.9-7.7-1.6-18.8-5.6-30.3-11-3.8-1.8-8.5-3.8-10.3-4.5s-6.8-4.6-11-8.7-10.8-9.8-14.7-12.8c-12.3-9.4-14.6-12.5-25.4-33.9-10.1-20-11.8-24.2-12.7-31.9-.3-2.3-1.1-4.5-1.7-4.9-1.2-.8-8.1-.8-12.7-.2"/></svg>