<svg xmlns="http://www.w3.org/2000/svg" width="682.667" height="512" version="1.0" viewBox="0 0 512 384"><path d="M233.1 90.5c-1.8.8-5.2 1.5-7.6 1.5-2.7 0-4.7.6-5.6 1.6-.7.9-3.8 2.9-7 4.4-4.2 2.2-6.9 4.5-10.4 9.2-5.8 7.7-12.5 21.4-12.5 25.6 0 1.9-1.5 5.5-3.9 9.2-2.2 3.4-4.3 7.5-4.6 9.3-.4 1.8-1.8 6.4-3 10.3-1.4 4.2-2.3 9.5-2.3 13 .1 5.8-1.3 10.1-4.9 15.6-2.5 3.9-1.1 4.4 4.7 1.5 2.8-1.4 6.1-2.4 7.3-2.1 1.2.2 3.1 0 4.2-.5 3-1.4 14.3-4.9 20-6.1 15.2-3.3 45.4 1.5 51.1 8.2 1.3 1.7 2.2 3.4 1.8 3.9-.3.5.9 1.7 2.7 2.7 1.7.9 4.6 3.1 6.4 4.9 3.9 3.7 12.2 8.1 18.4 9.8 2.5.6 4.6 1.6 4.9 2.3.2.7-1.6 2.1-4.2 3.3-2.5 1.1-4.6 2.5-4.6 3.1 0 .5.6.8 1.3.6.6-.3 3.6-1.3 6.5-2.4l5.4-1.8 1.9 2.4c1.1 1.4 3.5 4.8 5.3 7.6 3 4.5 4.8 5.9 14.1 10.8 5.9 3.1 12.7 7 15 8.6 2.4 1.7 4.6 3 5 3 .9 0 5.6-5.6 8.1-9.6 2.7-4.4 6.6-7.4 9.7-7.4 2.8 0 11.7-9 11.7-11.7 0-1.3-.3-1.3-1.5-.3-1.1.9-1.5.9-1.5.1 0-.6 1-1.5 2.2-2 1.7-.6 4.4.2 11 3.4 4.8 2.4 10.3 5.2 12.1 6.4 1.9 1.2 4.2 2.1 5.1 2.1 5 0 2.3-13.7-3.5-17.7-1.8-1.3-3.8-2.3-4.4-2.3-.5 0-4-1.2-7.7-2.6l-6.7-2.6.6-9.6c.4-7.1 1.2-11.2 3-15.2 4.7-10.5 4.7-10.8.3-16.6l-3.9-5.2-9.3.5c-6.3.4-13 0-20.8-1.2-6.3-.9-13.4-1.9-15.8-2.1-5.2-.5-13.9-4.3-20.1-8.7-2.5-1.8-6.4-3.9-8.6-4.5-5.9-1.7-21.5-10.8-24.9-14.5-1.6-1.8-6.2-6.8-10.2-11.2-6.9-7.7-14.4-16.9-14.4-17.8 0-.3-.8-2.2-1.7-4.3-.9-2.2-1.7-4.4-1.7-4.9-.1-1.6-8.8-1.6-12.5 0"/></svg>