<svg xmlns="http://www.w3.org/2000/svg" width="682.667" height="512" version="1.0" viewBox="0 0 512 384"><path d="M204.6 107c-2.1 1.6-4.2 2.8-4.6 2.5-.4-.2-2.9 1-5.6 2.8-3.7 2.4-5.8 4.9-8.7 10.2-5.3 9.5-8.7 19.8-9.2 27.2-.2 3.8-1.3 8.3-2.8 11.6-4 8.8-6 20-5.3 29.2.4 4.7 1.3 8.6 2.1 9.5s1.5 2.2 1.5 2.8c0 .7.9 1.2 1.9 1.2 1.1 0 2.5.2 3.3.5.7.3 2.9-.9 4.8-2.6 3.9-3.3 20.6-11.9 23.3-11.9 1 0 3.7-1 6-2.2 3.6-1.9 5.7-2.2 14.7-2.1 12.6.1 27 2.7 31.9 5.7 2 1.2 5 2.8 6.6 3.6 1.7.8 4.1 2.4 5.5 3.5 1.4 1.2 5 3.2 8 4.4s7.1 3.5 9 5.2l3.5 2.9-3 2.5c-2.6 2.1-2.7 2.5-1 2.5 1.1-.1 2.9-.7 4-1.5 1.8-1.4 2.3-1.2 7 3.4 4.8 4.7 9.3 7 20.5 10.3 1.9.6 6.6 2.6 10.4 4.5l6.9 3.5 2.3-2.9c1.3-1.5 2.3-3.1 2.4-3.6 0-.4 1.2-1.2 2.6-1.8 2.1-.7 3.1-.6 4.4.6 2 1.8 2.4 1.4 3.4-2.7.6-2.6 5.7-6.4 6.8-5.2 1.2 1.1 5.9-2.1 8.4-5.7 1.8-2.7 2.7-5.2 2.8-8.6l.1-4.8 3.8.1c2.2.1 6.1 1.2 8.9 2.5 3.7 1.7 5.3 2 6.6 1.2 2.6-1.6 2.6-3.8.1-9-3.3-6.9-4.5-8-9.9-9.4-4.2-1.1-5.1-1.8-7-5.6-3-6.1-3.5-11.1-1.6-15.7.9-2.1 1.6-4.9 1.6-6.2 0-2.4-.1-2.4-3-.9-1.6.8-3.1 1.5-3.5 1.5-.3 0-.5-2.2-.5-5 0-5.2-.7-6.2-7.8-11.8-3.7-2.8-3.1-2.9-18.7 1.2-3.3.9-11.6 2.1-18.5 2.7-14.1 1.3-16.1.8-21.6-5-2.2-2.3-3.4-2.9-5.5-2.4-2 .4-5.8-.7-12.6-3.7-5.4-2.3-11.4-4.4-13.3-4.7s-3.9-.9-4.5-1.3c-.5-.4-3.9-1.1-7.5-1.5-5.6-.7-7.3-1.4-13.2-5.8-4-3-8.4-7.4-10.6-10.6-2-3.1-4.1-6-4.7-6.6-.5-.5-4.6-1.1-9-1.3-7.5-.2-8.2 0-11.9 2.8"/></svg>