<svg xmlns="http://www.w3.org/2000/svg" width="682.667" height="512" version="1.0" viewBox="0 0 512 384"><path d="M246.3 127.1c-1.9 1.9-2.4 2-5.8.9-4.9-1.6-10.4-1.5-12.2.3-1.3 1.3-1.2 1.7.8 3.6 1.3 1.1 2.7 2.1 3.1 2.1.5 0 .7.4.4.9-.3.4-3.1 1.1-6.3 1.3-3.2.3-7.5 1.4-9.5 2.4-3.4 1.6-4.4 1.6-10 .4-7.5-1.6-16.9-1.4-21.2.4-4.2 1.8-12.7 10.2-14.8 14.7-1 1.9-3.1 5.3-4.9 7.5-4.6 5.8-5.9 8.8-5.9 13.6 0 2.4-.5 6.1-1.1 8.2-.8 2.9-.8 5.9.2 11.7 1.5 9.4.9 10.6-6 11.5-5.2.7-7 1.7-9.4 5.5-1.4 2.1-1.5 2.8-.4 4.3 1.7 2.3 8.9 3.8 14.2 3 3.2-.4 4.6-.2 5.8 1.1 2.4 2.4 2.1 3.3-1.3 4-3.2.7-8 6-8 8.8 0 2.5 4.1 5.7 7.2 5.7 3.8 0 13.6-3.5 16-5.7 1.5-1.3 1.9-2.8 1.6-5.5-.4-4.5.9-4.9 4-1.3 3 3.5 4.1 3.1 4.8-1.5.5-3.3 1.3-4.3 4.3-5.7 3.2-1.6 3.7-2.4 4.7-7.3 1.5-7.5 4.7-14.5 7.6-16.3 1.2-.9 6.6-3.1 11.8-5 33.3-12.2 35.6-12.9 37-10.7.9 1.5 14 3 25.5 3 4.4-.1 11.8.6 16.4 1.4 6.7 1.2 9 2.1 11.5 4.4 1.7 1.6 4.6 3.5 6.4 4.2 4.3 1.7 12.8.8 17.8-1.9 2.1-1.2 4.6-2.1 5.4-2.1.9 0 2-1.4 2.5-3.3.6-2 2.1-3.7 3.8-4.5 3.6-1.7 6-6.5 6.3-12.7.2-2.8.6-6.4.9-8.2.5-2.9 0-3.7-5.5-8.9-6.3-6.1-7.1-7.7-4.3-9.3 3-1.7.4-2.6-7.5-2.7-4.3 0-10.5-.4-14-.9-5.5-.7-6.5-1.1-7.8-3.6-.8-1.6-2.5-3.6-3.8-4.4-2.3-1.5-16.8-3.4-21.5-2.8-1.4.2-5.6.4-9.2.6-3.6.1-7.3.8-8.2 1.5-.8.7-3.1 1.5-5 1.9-2.8.4-3.7.1-5.4-2.1-1.8-2.2-6-4.6-8.1-4.6-.4 0-1.7 1-2.9 2.1"/></svg>