<svg xmlns="http://www.w3.org/2000/svg" width="682.667" height="512" version="1.0" viewBox="0 0 512 384"><path d="M253.7 120.1c-.9.6-1.7 1.6-1.7 2.4s-.9 2.1-2.1 2.9-1.8 1.9-1.5 2.5c1.8 2.8-6.1 3.1-10 .3-4.2-3-9-3.8-9.8-1.6-.5 1.4-1.5 1.6-6.5 1-4.8-.6-6.2-.4-8.1 1.2-2.6 2.1-2.2 5.2.8 5.2 1 0 2.6.6 3.6 1.3 1.6 1.2 1.6 1.5-.9 3.9-2.8 2.8-5.7 3.6-21.7 6.2-10.8 1.7-17.8 4.9-24.7 11.1-4.5 3.9-5.9 4.6-8.2 4.1-2.3-.4-3.2 0-4.8 2.3-1.7 2.3-2 4.3-1.9 11.2 0 8.9-2.4 17.7-6.3 22.8-2.6 3.2-2.4 4 1.6 7.7 2 1.8 3.5 4.2 3.6 5.5 0 1.3.2 3.2.4 4.1.5 2.8-1.7 4.4-9.4 6.8-7.1 2.3-12.1 5.7-12.1 8.4 0 4.2 9.6 6.5 17.4 4.1 6.3-1.9 6.8-1.9 9.9.5 3.2 2.6 2.7 4.1-2.3 6.9-7.3 4.1-9 9.4-4.3 13 3.6 2.9 8.3 1.9 15.9-3.4 7.9-5.6 8.6-6.6 9.2-12.5.5-5.5 1.4-6 6.4-3.4 3 1.6 3.1 1.5 5.4-1.3 1.9-2.3 2.3-4 2.3-9.4 0-4.6.8-9 2.5-14 2.8-8.3 5.2-10.8 14.7-15.8 3.1-1.7 11-6.2 17.4-10l11.6-6.9 20.7.3c23.5.3 26.3.7 31.2 4.6 6.2 5 17.7 4.9 25-.1 1.4-.9 3.7-2 5.1-2.3q2.7-.75 3.3-3.3c.4-1.4 2-3.8 3.5-5.2 3.2-3 5.1-9.8 5.1-18.1 0-5.8-1.3-7.6-6.5-9.4-3.2-1.1-4-1.9-4-3.8 0-2.2-.6-2.5-6.2-3.1-3.9-.4-8.3-1.8-12-3.7-3.2-1.7-6.8-3.1-8.1-3.1s-5.4-1.3-9.2-3c-3.7-1.6-8.5-3-10.6-3-10.2-.1-15.2-.6-16.5-1.6-3.1-2.5-5.5-3.2-7.2-2.3"/></svg>