<svg xmlns="http://www.w3.org/2000/svg" width="682.667" height="512" version="1.0" viewBox="0 0 512 384"><path d="M197 121c0 .5 1.8 1.3 4 1.6 2.8.5 4 1.2 4 2.3 0 2.7 2.1 4.1 6 4.1 3.1 0 3.8.4 5 3.2.7 1.8 1.5 3.6 1.7 4 .9 1.5-11.7 2-20.7.8-13-1.9-20-1.7-21.2.4-.5.9-1.5 1.6-2.2 1.6-2 0-5.8 4.7-5.4 6.7.4 1.8 1.5 2 5.6.7 1.8-.5 2.2-.2 2.2 1.5 0 1.2-.6 2.1-1.5 2.1s-2.6.9-3.8 2.1-3.4 2.6-4.9 3.1c-1.6.6-2.8 1.6-2.8 2.4s-.6 1.4-1.2 1.4c-.7.1-.2.7 1.2 1.5 2.3 1.3 2.4 1.4.6 2.1s-1.8.8-.1 2c1.3.9 1.5 1.7.8 2.6-.5.7-3.9 4.9-7.5 9.3-13.2 16.2-25.5 36.3-30.1 49.2-1.5 4-3.6 9.1-4.8 11.4-2.4 4.8-2.3 4.9 5.4 7.5 3.9 1.3 5.1 1.4 6.3.3 1.3-1 1.7-1 2.5.2.5.8.9 2.2.9 3.2 0 2.1-4.3 6.7-6.2 6.7-1.7 0-9.7 5.4-11.4 7.7-.7 1-1.4 2.8-1.4 4 0 5.7 11.1 5.7 20.4 0 7.9-4.9 9-6.6 8.3-13-.7-5.9.5-8.2 3.4-6.6 1 .5 1.9 1.7 1.9 2.5 0 .9.5 1.2 1.2.8.8-.5.9 0 .3 1.7-1.7 5.3-.1 9.9 3.4 9.9.9 0 2.2.4 3 .9 1.7 1.1.7 3.4-5.9 14.7-4.3 7.4-5 11.9-2.2 14s7.7 1.7 10.9-1c3.8-3.2 9.8-20 8.8-24.4-.6-2.9-.5-3 3.7-3.7 5.1-.8 8.4-2.7 9.3-5.4.3-1-.6-5.3-2-9.4-3-9.1-3.2-14.8-.5-22.8 2.8-8.3 17.1-33.2 22.9-39.9 2.6-3 5.6-6.7 6.5-8.2 1.2-1.9 3.5-3.3 6.9-4.3 6.5-1.9 20.9-1.9 27.3 0 6.2 1.9 12.1 1.9 19.3 0 10.1-2.6 15-5.2 16.5-9 .8-1.8 2.4-3.8 3.5-4.5 2.4-1.2 2.7-3.8.7-6.5-1.1-1.6-1.1-2.3.7-5.2l1.9-3.4-2-5.5c-2.7-6.9-5.5-9.7-11.4-11.3-3.8-1.1-5.2-1.1-8.3 0-3.4 1.3-3.8 1.2-5.1-.6-.7-1.1-1.8-2.6-2.4-3.3-1.3-1.5-7.6-1.6-8.5-.1-.4.6-2.7.9-5.1.8-3-.2-4.9.2-6.3 1.5-1.9 1.7-2.1 1.7-6.5-.9-3.6-2.1-5.6-2.6-9.6-2.4-2.9.2-5.5-.2-6.2-.9-1.4-1.4-9.4-1.6-10.3-.2-.3.5-1.1.7-1.8.5-3.6-1-7.7-1.3-7.7-.5"/></svg>