<svg xmlns="http://www.w3.org/2000/svg" width="682.667" height="512" version="1.0" viewBox="0 0 512 384"><path d="M184 120.9c0 1.1 4 4.1 5.4 4.1.5 0-.3-1.1-1.8-2.5-2.9-2.7-3.6-3-3.6-1.6m21.2 2.7c-.9 1-1.9 1.1-2.9.6-1.8-1.1-9.4.6-10.5 2.2-2.9 4.3 1.6 8.5 6.8 6.5 1.5-.5 2.7-.8 2.8-.7 1.4 2.4 2.5 6.2 2 6.7-.3.3-5.6.4-11.7.2-22.3-.9-26.4-.7-28.4 1.2-1 .9-3 2.7-4.5 3.8-1.8 1.3-2.8 3-2.8 4.6 0 2.6-.1 2.6 6.1.7 1.2-.4 1.8.3 2.3 2.7.6 3.1.2 3.7-4.6 8.1-2.9 2.6-5.9 4.7-6.7 4.8-.7 0-1.1.6-.7 1.5.3.8 0 1.5-.7 1.5s-.3.7.7 1.5c1.6 1.2 1.7 1.7.6 3-.9 1.1-1 1.5 0 1.5.6 0-.4 2.1-2.3 4.7-5.3 7.3-15.8 24.7-21.2 35.3-4 7.8-13 29.3-15.2 36.2-.4 1.3.7 2 5.2 3.3 3.1 1 7 1.4 8.6 1.1s2.9-.1 2.9.4c0 2.6-2.3 6.2-4.7 7.3-9 4-15.3 10.9-13.3 14.7 3.1 5.7 14.2 3.4 24.3-5.2 3-2.5 3.2-3 3.2-9.7 0-3.8.3-7.3.7-7.6 1-1.1 5.9.7 6.6 2.4.3.9 1 1.9 1.5 2.2.5.4.4 1.5-.3 2.9-1.8 3.4-.4 6.8 3.5 8.4 1.9.8 3.5 1.9 3.5 2.3s-2.3 5.3-5 10.7c-2.8 5.4-5 10.7-5 11.6 0 4.5 8.2 6.7 12.8 3.4 1.2-.8 2.9-3.2 3.8-5.2 1.9-4.6 4.6-16.9 4.2-19.6-.2-1.5.5-2.2 3.2-2.8 9.9-2.4 11.3-5.6 7.5-16.8-4.8-14-2.7-24.1 10.6-51.5 6.9-14.3 14.6-24.9 19.2-26.9 5.6-2.3 16.7-3.8 31.3-4.1 9.2-.2 15.6-.8 18.5-1.8 8.5-2.9 13.7-5.6 13.6-6.9-.1-2.5 2.5-7.8 3.9-7.8.8 0 1.4-.3 1.4-.8 1.1-17.7-1.7-24.1-13-30.3-3.5-1.9-20.6-1.5-24.6.6-1.6.8-3.7 1.5-4.6 1.5s-3.2.8-5 1.8c-3.3 1.8-3.3 1.8-9.5-1.4-3.4-1.7-5.9-3.4-5.6-3.7s-1.2-.6-3.3-.5c-2.2 0-4.5.7-5.2 1.4"/></svg>