<svg xmlns="http://www.w3.org/2000/svg" width="682.667" height="512" version="1.0" viewBox="0 0 512 384"><path d="M222.5 117.6c-10 2.5-11.5 3.5-13.6 8.4-1.7 3.9-2.8 5.2-6 6.4-4.9 2-19.5 2.2-20.2.3-.4-1-.7-1-1.8 0-.7.7-2 1.3-2.8 1.3-.9 0-2.4 1.4-3.4 3.1-1.1 1.9-2.3 2.9-3.1 2.6s-2.6.3-4 1.4-3.1 1.7-3.7 1.3q-1.05-.6-.6.3c1.2 1.9-4.5 3.3-13.8 3.3h-9.4l-5 4.9c-5 4.7-5.7 6.3-4.5 9.5.5 1.4 1 1.3 3.5-.5 3.5-2.5 4.5-2 5.4 2.8 1 5.6 1.7 6 8.2 5.2 3.2-.3 5.9-.6 6-.5s-2.1 2.6-4.9 5.6c-7.6 8.2-11 13.9-18.8 31.2-9.2 20.8-14.8 34.4-20.5 50.8-2.6 7.4-5.3 14.7-6.1 16.2s-1.4 2.9-1.4 3.2c0 1.2 4.8 3.1 10.4 4.1 3.3.6 6.1 1.6 6.3 2.2.2.5-1.3 1.8-3.4 2.8-10.5 5-16.3 13.5-11.5 17.1 3.3 2.5 9.9 1.7 16.7-2.1 3.5-2 6.8-4.2 7.5-5 1.6-1.9 2.5-12.1 1.2-12.9-.7-.4-.7-1.6.1-3.7 1.1-2.9 1.4-3 5.2-2.4 2.2.3 4.4 1 4.9 1.5s1 3.6 1 6.7c.1 5.3.3 5.9 2.9 7.1 3.2 1.5 3.2 1.7-1.4 12.9-1.6 3.9-2.9 8-2.9 9.1 0 4.6 7.2 6.8 11.8 3.6 3.6-2.5 5.5-7.4 6.1-15.9.6-7.8.7-8 3.4-8.3 1.5-.2 2.7-.8 2.7-1.3 0-.6.4-.8.9-.5 1.5.9 4-1.8 5.4-5.8 1.2-3.6 1.2-4.6-.7-10-1.6-4.8-2-8.5-1.9-17.6.1-10 .6-13.5 4.1-27 2.2-8.5 5.2-19.2 6.7-23.7 2.6-8 3.1-8.6 12.6-17.8s10.5-9.9 26.3-17.6c9-4.3 17.3-7.9 18.5-7.9 1.1 0 4.1-.5 6.5-1.2 3.3-.9 4.6-1.8 5.1-3.5.4-1.6 1.3-2.3 3.1-2.3 2.4 0 2.4-.2 1.8-4.8-.5-3.8-.1-5.9 1.6-9.6l2.2-4.8-3.4-6.7c-4.4-8.7-8.8-11.3-19.7-11.7-4.2-.2-8.5-.1-9.6.2"/><path d="M158 133.2c0 1.7 3 8.1 3.6 7.6.4-.5-2-7.5-2.9-8.4-.4-.4-.7-.1-.7.8"/></svg>