<svg xmlns="http://www.w3.org/2000/svg" width="682.667" height="512" version="1.0" viewBox="0 0 512 384"><path d="M148.5 106.6c-.9 1.4-1.6 4-1.5 5.7.4 6.2 0 7.4-2.5 8.5-1.4.6-2.5 1.9-2.5 2.7 0 1.9 4.1 3.6 7 2.8 2.2-.6 2.2-.5.6 2.5-.9 1.7-1.6 4.7-1.6 6.6s-1.4 7.3-3.1 12c-2.4 6.7-4 9.4-7.5 12.8-2.5 2.4-5.9 6.4-7.6 9-1.7 2.5-4 4.9-5.2 5.2-1.1.3-7.1.6-13.3.6h-11.1l-7.1 7.6c-5.9 6.3-7.1 8.2-7.1 10.9 0 4.3 1.7 5.4 3.7 2.5l1.5-2.2 2.2 3.9c2.8 4.9 4.7 4.9 19.4-.5 6.1-2.2 11.2-3.7 11.2-3.2 0 1-3.9 3.8-8.4 6-2 1-2.4 1.6-1.3 1.8.8.2 3.4-.6 5.6-1.7 3.2-1.7 3.9-1.8 3.5-.6-.4.8-.1 2.2.6 3 .9 1.1.4 3.7-2.4 12.7-4.5 14-21.2 71.6-26.1 89.8-2 7.4-4.3 15.5-5.1 17.9-2.4 7.2-1.5 8.2 10.6 10.6l3.4.8-3 1.6c-7.2 3.7-10.4 6.6-11 9.8-1.1 6-.5 6.8 5.9 7.1 4.9.3 7-.2 12.5-2.8 3.7-1.7 7-3.6 7.4-4.3 1-1.6 1-10.9-.1-12.5-.4-.8-.1-3.7.7-6.8l1.6-5.5 7 .3 7.1.3.3 6.5c.2 3.6.7 6.9 1.2 7.4.4.4-.5 3.1-2.2 6-1.7 2.8-3.1 6.7-3.2 8.6l-.1 3.5 6.5.3c8.8.4 10.1-.7 10.9-8.9l.6-6.3 4.2-.8c2.4-.4 5.3-1.6 6.5-2.8 2.3-2.1 2.3-2.2 2.4-32.8 0-25.6.5-35.2 2.7-57.7 1.5-14.9 2.6-28.8 2.5-31 0-2.2.4-5.1.9-6.5.6-1.4 1-2.8.9-3.1-.3-1.4 3.8-4.8 6.4-5.4 3-.7 5.4-5 6.6-11.8.3-2 1-3.9 1.4-4.2.5-.3 1.4-2.2 2.1-4.2.6-2 3.3-6.6 6-10.3s4.9-7.2 4.9-7.8c0-.5-1.6-2-3.6-3.3-3.3-2-3.5-2.4-2.9-5.8 1.1-6.2 2.7-8.6 6-8.9 6.5-.6 7.4-1.1 7.4-4-.1-1.5.1-4.1.4-5.9.5-2.9.3-3.2-2.4-3.8-1.8-.4-2.9-1.3-2.9-2.3 0-.9-1.2-4.5-2.6-7.9-2.2-5.2-3.2-6.4-6-7.3-8.6-2.9-27.9-3.2-31.9-.6-1.8 1.2-2.5 1.3-2.5.4s-.3-.8-1 .2c-.8 1.2-1 .8-1.1-1.5-.1-1.7-.1-3.6 0-4.3.3-1.9-.5-1.4-2.4 1.4"/></svg>