<svg xmlns="http://www.w3.org/2000/svg" width="682.667" height="512" version="1.0" viewBox="0 0 512 384"><path d="M183 1.4c0 .7-2.9 5.5-6.5 10.5-14.6 20.6-16.5 25.4-12.6 31.7 1.9 3.1 4.5 4.1 11.6 4.3 8.3.2 10 .7 10.7 3.1.4 1.4 2.2 7.7 4.2 14 1.9 6.3 4.6 17.4 6 24.7 2.1 10.9 5.5 21.8 10 32.4.8 1.9-3.4 2.9-12.1 2.9-2.9 0-5.3.2-5.3.5s.7 1.6 1.5 2.8c1.5 2.3 5.7 13.8 5.3 14.2-.2.2-2.3 1.3-4.8 2.5-11.4 5.7-23.8 16.7-27.9 24.9-3 5.9-4.9 14.2-5.6 25.1-.8 12.6-3.5 32.2-4.6 33.6-.5.6-4.2 1.4-8.3 1.7-17.9 1.5-20.6 6.6-11.5 21.4 2.7 4.5 5.3 9.8 5.6 11.6.3 2.3-.8 8.3-3.5 18.3-2.3 8.2-4.8 18.2-5.7 22.2-1.9 8.2-6.8 19.7-24.5 56.7-3.4 7.2-7.3 15.4-8.6 18.2L94 384h219.8l.6-3.6c.4-1.9.2-9.9-.5-17.7s-1.3-22.3-1.3-32.2l-.1-18 4.2-15.5c2.3-8.5 5.5-19.2 7-23.8l2.8-8.3 4 4.1c4.6 4.7 4.3 0 3 44-.7 25.3.4 61.7 2.2 68.7l.5 2.3H425l-2-4.7c-1-2.7-4.7-11.3-8.1-19.3-6.6-15.5-9.4-25.7-7.8-27.7 1.3-1.5.2-32.7-1.1-33.1-.5-.2-.4-1.1.2-2.2.9-1.4.9-2.5 0-4.5-.7-1.5-.9-4.2-.6-6.4.5-2.9.2-3.9-.9-4.4-1.3-.5-1.4-1.1-.5-3.5.7-1.6.8-3.7.3-4.8-.4-1-.7-3-.6-4.4s-.8-3.8-1.9-5.3c-1.7-2.2-1.9-3.1-1-4.2.6-.8.9-2.2.6-3.3-.3-1 .1-2.7.9-3.8 2.6-3.5 1.9-7.9-1.9-11.1-3.5-2.9-4.7-5.4-8.5-18-1.2-4-2.8-7.4-3.7-7.7-1.1-.4-1.4-1.4-1.1-2.7.6-2.3-2.9-10.7-5.2-12.5-.8-.6-1.1-1.6-.7-2.2.4-.7-.6-3.8-2.3-6.9-1.6-3.2-3.7-7.4-4.5-9.3-1.6-3.6-2.6-5.4-5.8-10.2-1-1.5-1.8-3.3-1.8-3.9 0-.7-.6-2-1.4-2.8-1-1.2-1.2-4-.6-12.6l.6-11 1.8 4c2.1 4.5 3.4 3.2 1.7-1.7-1.5-4.4-1.4-7.8.5-9.9 1.2-1.3 1.3-2.2.5-3.7-.6-1.1-2-8-3.1-15.3-1.2-7.4-2.6-16.3-3.2-19.9s-1-8.2-1-10.4c.1-3.7 0-3.8-2.7-3.3l-2.8.6-1.1-7.6c-1.2-8.7-1-9.4 3.5-14.8 6.6-7.8 10.7-20.1 10.4-31.6-.1-5 .2-5.8 3.1-8.6 7.5-6.9 12-12.8 13-17.1l.6-2.2H284.9C199.3 0 183 .2 183 1.4m178.6 49.9c-.9 2.8-2.6 6.8-3.8 8.7l-2.3 3.5-.3-3.5c-.5-4.5 7.1-21 7.6-16.6.2 1.4-.4 5-1.2 7.9m-28.7 186.1c-1.9 2-3-1-2.3-6.5l.8-5.4 1.2 5.5c.8 3.5.9 5.9.3 6.4m-1.5 9.5c.3.5-.1 1.1-.9 1.5-.9.3-1.5 0-1.5-.9 0-1.6 1.6-2 2.4-.6"/></svg>