<svg xmlns="http://www.w3.org/2000/svg" width="682.667" height="512" version="1.0" viewBox="0 0 512 384"><path d="M150.4 113.4c2.7 2.2 1.8 2.6-3.4 1.6q-13.2-2.55-19.2 1.5c-2.2 1.5-3.9 2.1-4.3 1.5-.8-1.2-5.2-1.3-5.9-.1-.3.5-1.4.7-2.4.4-1.6-.4-1.8.2-1.6 5.2.2 5.7 1.6 8.5 4 8.5.8 0 1.4.9 1.4 2.1s.8 2.3 1.9 2.6c1.6.4 2.1 1.8 2.6 7.7.4 4 .2 10.3-.3 14-.9 5.8-1.7 7.4-5.2 11.2-4 4.4-7.9 11.4-8 14.4-.1 3.8-3.5 5.9-14 8.6-5.8 1.4-11.3 3.3-12.3 4.2-2.5 2.3-7.4 11.5-8.1 15.8-.9 4.5.9 9.4 3.4 9.4 1 0 2-.6 2.3-1.3.4-.9.7-1 1.8 0 1.8 1.8 6 1.6 8.9-.4 1.4-.9 6.8-4.9 12-8.8s10.1-7.5 10.9-7.9c1.6-1 1.5-.4-1.8 10.9-2.4 8.3-2.7 11.9-.8 11.2 1-.4.7 2.2-1 10.2-3.7 16.8-25.4 103.4-26.5 105.4-1.9 3.7-.1 6.4 5.4 8.3 2.9 1 6.3 1.7 7.6 1.5 2.8-.3 2.9 1.5 0 2.5-3.6 1.1-10.8 9.1-10.8 11.9 0 3.2 3.9 4.9 9.2 4 3.8-.7 13.1-6.2 15.6-9.3 1.5-2 1.6-6.6 0-10.8-.9-2.7-.9-3.7.5-5.8.9-1.4 1.7-3.4 1.7-4.4 0-2.4 2.3-2.9 10.8-2.4 5.8.4 6.3.6 6 2.5-.1 1.2.1 2.8.5 3.4.4.7.3 2.2-.3 3.3-.8 1.4-.8 2.6 0 4 .9 1.7.5 3.3-2.1 8.7-4 8.3-3.4 9.7 4.4 10.1 5 .3 6 0 8.2-2.2 2-2.1 2.5-3.5 2.5-7.9v-5.3l5.2-1c3.7-.6 5.7-1.6 7.1-3.5 1.8-2.5 1.8-3.3.6-21.3-1-15.3-1-24.2.1-48.9.7-16.6 1.4-34.5 1.5-39.7s.5-10.2.9-11.2c.4-.9.1-2.8-.7-4.5-.8-1.5-1.6-5.3-1.8-8.3-.4-5.3-.3-5.5 2.1-5.3 1.4.2 4.3-.8 6.5-2l4-2.3.1-8.1c.2-9.7 1-12.3 6.4-20.3 2.3-3.4 3.9-6.5 3.5-6.8-.3-.4-3.6-2.7-7.3-5.2l-6.7-4.5.3-5.5c.4-6.2 1.1-7.4 5.6-9.6 3.2-1.5 7.2-8 5.3-8.7-.6-.2-.8-1.1-.4-2 1.1-2.9.7-3.3-3.4-3.6-1-.1-2.3-2-3.3-4.5-1.8-4.6-10.3-13.6-12.9-13.6-.8 0-3-.3-4.8-.6-3.2-.5-3.3-.5-1.5 1"/></svg>