<svg xmlns="http://www.w3.org/2000/svg" width="682.667" height="512" version="1.0" viewBox="0 0 512 384"><path d="M123 98.9c0 .5 1.4 1.9 3 3.1 3.7 2.6 3.9 4.3.4 3-3.8-1.5-17-1.2-20.8.4-1.8.7-4.3 2.9-5.6 4.7-1.3 1.9-2.5 3.6-2.7 3.8-.1.2-1.2-.4-2.3-1.4-1.2-1.1-2-1.3-2-.6 0 2.3 2.3 10.6 3.1 11.5.5.6.9 1.8.9 2.8 0 2.1-2.8 8-4.2 8.9-1.6 1 1.4 5.9 4 6.6 2.4.6 2.5.7 1.9 9-.4 7.2-.9 8.9-3 11.1-4.1 4.5-4.8 6.9-5.7 19-1.3 16.6-1.2 16.5-12.6 33.9-4.1 6.2-7.4 11.6-7.4 12.1s.9 1.7 2 2.7c1.5 1.4 2 3.1 2 7.1 0 4.5.4 5.6 2.6 7.3 1.5 1.2 3.7 2.1 5 2.1 2 0 2.4-.5 2.4-3 0-1.9-.7-3.3-2-4-1.1-.6-2-1.7-2-2.5 0-1.9.2-1.9 4.7 0 4.3 1.8 7.3 1.9 7.3.3 0-.6.2-.9.4-.7.6.6-2.2 19.5-6.4 44.4-1.7 9.9-4.4 27-6 38s-3.5 21.6-4.1 23.4c-.9 2.7-1 3.6-.1 3.9.7.2 1 .8.6 1.3-.8 1.3 3.4 2.7 10.5 3.5 3.4.3 6.1 1 6.1 1.5s-1.3 2.1-3 3.5c-1.6 1.5-2.7 3-2.5 3.4.3.4-.2 1.3-1 2-2 1.7-1.9 6.6.1 7.4 3.1 1.2 11 .6 13.3-1 4.4-3.1 6.7-13.6 4-18.5-.7-1.4-.7-3 .2-5.7.7-2 1.2-4.7 1-6-.2-1.9.2-2.2 3.6-2.2 2.1 0 7.3-.2 11.5-.4l7.7-.4 1 4.6c.5 2.6.7 5 .4 5.5-.3.4 0 2.1.7 3.7.9 2.3.9 3.4-.2 5.3-6 11.3-6.2 11.8-5.2 13.5.8 1.2 2.8 1.8 7 2 5.2.2 6.3 0 8.3-2.2 1.9-2.1 2.3-3.4 2.2-9.4v-7l4.5-.7c2.9-.4 5.7-1.7 7.7-3.4l3.1-2.8-1.3-5.4c-3.8-16.4-9.2-57-13.7-101.8-.8-9-1.8-16.9-2.1-17.7-.3-.9.2-1.1 1.6-.7 2.6.7 2.6.6.1-4.2-1.1-2.2-1.7-4.7-1.4-5.7s.6-3.1.6-4.8c.1-3.4.5-3.6 3.2-1.5 3.3 2.5 7.1 1.8 10-1.6 3.2-3.8 3.3-6.3.1-12.5-1.4-2.7-2.5-5.4-2.5-5.9 0-.6 1.8-3.7 4-7s4-6.5 4-7c0-.6-4.1-3.7-9.1-6.9l-9-5.9.1-6.1c.1-3.4-.2-8.4-.6-11.3-.5-4.2-.3-5.8 1.1-7.9 2.7-4.1 1.5-10.2-3.3-17.7-5.2-7.8-7.8-10.5-11.9-12.3-3.8-1.7-4.3-1.7-4.3-.5"/></svg>