<svg xmlns="http://www.w3.org/2000/svg" width="682.667" height="512" version="1.0" viewBox="0 0 512 384"><path d="M122 100.1c2.5 2.2 3.6 3.7 2.5 3.3s-6.1-.9-11.2-1.2c-10.7-.5-15.1 1-18.4 6.4-1.1 1.9-2.4 3.4-2.7 3.4-.4 0-2-1.2-3.7-2.6l-3-2.5-.8 3.3c-.7 2.6-.5 3.5 1 4.8 1 .8 1.8 2.6 1.8 4 0 1.8.6 2.6 2.3 2.8 1.2.2 2.2.9 2.2 1.6 0 2.3-2.9 8.4-4.2 8.8-.9.3-.8 1.1.5 3.2 1.4 2 2.3 2.5 3.9 2 2-.6 2.1-.4 1.6 10-.4 9-.8 11-2.6 12.9-3.8 4.1-5.4 9.5-5.3 18.7.1 15.1-1.8 20.6-15.2 43.3l-4 6.9 2.7 2.2c2.5 1.9 2.6 2.4 1.6 4.7-1.4 3.2.6 7.9 4.5 10.5 2.9 1.9 7 1 6.1-1.3-.3-.8-.6-1.8-.6-2.3 0-.4-.9-1-2-1.3-2.1-.5-2.5-2.3-1.2-4.4.6-.9 1.8-.9 5.2.1l4.5 1.4-.2 5.8c0 3.3-1.7 17.6-3.7 31.9s-4.7 34.8-6.1 45.5c-1.3 10.7-2.9 21-3.4 22.7-.6 2-.6 3.3 0 3.3.5 0 .9.7.9 1.5 0 2 4.2 3.6 10.5 4.1 2.8.2 5.2.3 5.4.4.3 0-.9 1.5-2.7 3.2-1.7 1.8-3.2 3.7-3.3 4.3-.1.5-.6 2-1.2 3.3-1.7 3.6.2 5.6 5.6 6 2.5.2 6.1-.4 8-1.2 2.8-1.1 3.8-2.3 5.1-6.4 1.5-4.4 1.5-5.9.4-11.2-1-4.8-1-6.5 0-8.1.7-1 1-3 .6-4.3l-.6-2.4 11.1-.1c6.1 0 11.6-.3 12.2-.7 1.6-1 2.9 1.6 2.2 4.7-.3 1.5 0 3 .6 3.3 1.6 1 1.3 9.3-.4 12.7-.8 1.6-2.2 4.2-3 5.8-1.9 3.8-1.9 6.7.1 7.5 3.7 1.4 11.1.6 13.8-1.5 2.5-2 2.7-2.5 2.4-9.3l-.3-7.1 5.9-2c3.6-1.2 6.7-3 7.8-4.5 1.7-2.3 1.7-2.9.4-7.5-3.6-12-12.4-66.2-16.2-98.5-.8-7.4-2-15.5-2.5-17.9-.7-3.1-.6-4.7.2-5.7.9-1.1.9-1.7 0-2.8-.6-.7-1.3-4.6-1.6-8.5-.5-8.6.5-9.5 6.4-5.5 3.7 2.4 4.4 2.5 7.1 1.4 2.9-1.2 6-5.4 6-8.2 0-.7-1.4-4.1-3.2-7.4l-3.2-6.2 4.3-6.1c2.3-3.4 4.1-6.7 3.8-7.4s-4.8-4.2-10.1-7.7l-9.6-6.5v-7.2c0-3.9-.4-8.3-.9-9.6-.7-1.9-.5-3.2 1.1-5.8 3.2-5.2 2.6-11.2-1.7-17.5-1.9-2.8-3.5-5.5-3.5-6 0-1.6-6.3-7.2-9.3-8.3-5.1-2-5.3-1.2-.7 3"/></svg>