<svg xmlns="http://www.w3.org/2000/svg" width="682.667" height="512" version="1.0" viewBox="0 0 512 384"><path d="M112.3 92.1c4.4 3.6 4.8 5.3 1 3.8-1.6-.6-7.1-1.3-12.3-1.6-11-.5-14.9.8-18.8 6.7-1.3 1.9-3.1 3.5-4 3.5-4.4.3-5.1.6-5.7 2.5-.4 1.2-.1 2.7.5 3.5 1.8 2.2.2 3.8-3.1 3.1-2.4-.5-2.9-.2-2.9 1.5 0 2.2 5.8 7.8 9.9 9.5 3.8 1.6 5.1 5.4 5.1 14.7 0 9.6-1.4 15.3-4 16.7-3.1 1.7-5.9 7.4-6.6 13.6-.3 3.2-.7 6.1-.9 6.3-.2.1 0 1.4.5 2.7 1.6 4-3.3 32.5-6.1 36-.5.6-.7 1.3-.4 1.6.3.2-1 5.3-2.9 11.2l-3.4 10.7 2.4.9c1.7.7 2.4 1.7 2.4 3.7 0 6 6 11.7 10.5 9.9 1.3-.5 1.5 1.4 1.5 13.2 0 14.6-2.7 78.6-3.5 86.2-.4 3.5-.1 5 1.4 6.7 2.5 3 6.4 4.4 10.1 3.7 3.1-.7 4.3.9 1.5 2-.8.3-1.5 1.4-1.5 2.4s-.5 2.3-1.1 2.9-.9 2.6-.7 4.4l.3 3.4h7.2c8.2 0 9.8-1 11.9-7.2 1.7-4.6 1.8-11.9.3-12.9-1.2-.7-.2-11.5 1.2-12.8.2-.3 5-.6 10.7-.8 8-.3 10.2-.1 10.2.9 0 .8.7 2.5 1.7 3.9 1.6 2.6 1.5 4.2-1.3 16.4-.3 1.4-.8 4.4-1.1 6.7-.5 3.9-.4 4.1 2.6 4.8 4.7 1 10.6-.3 13.1-3 2.1-2.2 2.2-3.1 1.7-8.8l-.6-6.3 6.2-3c4.7-2.2 6.6-3.7 7.8-6.3 1.5-3.2 1.4-3.7-1.7-13-7.4-21.8-24.6-107.6-23-115.1.3-1.5.1-3.1-.4-3.6-1-1-3.5-13.1-4.5-21.7l-.7-5.8 3.1 1.5c1.6.9 3.7 1.3 4.5 1 .9-.3 3.1.3 4.9 1.5 4.9 3 10 2.8 12.6-.5 3.1-4 2.7-8.2-1.4-13.3-1.9-2.4-3.5-4.8-3.5-5.3s2-3.9 4.5-7.6 4.5-7.2 4.5-7.8-5.8-5-13-9.7c-14.8-9.9-15.2-10.7-9.7-17.9 4.2-5.5 4.9-7.3 3.7-10.3-.7-1.8-.6-2.3.4-1.9.7.3 1.7-.3 2-1.3.5-1.3-.1-2.4-2.1-4-1.5-1.3-3-2.3-3.3-2.3s-2.3-3.5-4.5-7.8c-5.4-10.7-9.9-15.3-15.2-15.2-1.3.1-.8.9 2 3.1M75.8 245.9c.3 3.9.1 4.3-1.5 3.6-1-.4-2.6-1-3.5-1.2-3.5-1-1.1-7.6 2.5-7.1 1.8.2 2.3 1.1 2.5 4.7"/></svg>