<svg xmlns="http://www.w3.org/2000/svg" width="682.667" height="512" version="1.0" viewBox="0 0 512 384"><path d="M112 83.9c0 1.1 1.2 2.9 2.8 4.1l2.7 2.1-3-.5c-21.4-3.7-25.3-3.3-32.1 3.9-3.7 4.1-4.3 4.3-8.1 3.8-5.2-.7-11.3 1.2-11.3 3.6 0 1.9 4 6.1 5.8 6.1.7 0 1.2 1 1.2 2.2 0 1.3.5 3 1 3.8.6 1 .3 2.1-1.2 3.7l-2.1 2.2 2.9 3.6c1.6 2 3.9 4.9 5 6.5 1.2 1.6 2.4 2.6 2.8 2.3.3-.4.6 1.8.6 4.8 0 7.4-3.2 18.4-6.3 21.7-1.4 1.5-2.9 4.9-3.5 7.8-.6 2.7-2.2 7-3.6 9.5-2.6 4.5-3.4 11.1-1.7 13.8 1 1.5.8 2-2.9 9.1-2.9 5.6-8 21.1-7.3 22.3.8 1.4 4.3-2.4 4.3-4.8 0-2.1 2.9-7 3-4.9 0 1.2-5 13.9-9.4 23.8-1.4 3.2-2.6 6.1-2.6 6.5s1.4 1.2 3 1.8c2.6 1 3 1.6 3 5.2 0 7.6 7.9 12.6 12.8 8.1 1.8-1.7 2.1-2.5 1.1-3.6-.6-.8-1.8-1.4-2.6-1.4s-2.3-.5-3.4-1.1c-1.6-.8-1.8-1.3-.8-2.5 1.4-1.7 3.1-1.7 8.3-.3l3.9 1.1-.6 16.6C73.3 274 72.6 297 72 316s-1.5 38.6-2.1 43.6c-.9 8.2-.8 9.5.9 12.5 1.6 2.9 2.6 3.5 7 4.3 4.9.9 6.6 2.6 4.2 4.1-.6.3-1 1.3-1 2.1 0 1.1 2 1.4 10.3 1.4h10.4l1.3-3.9c.8-2.6 1-5.5.5-8.3-.4-2.4-.8-6.1-.9-8.3-.1-3.7.1-4 2.4-3.8 1.4.1 3.2-.1 4-.4 2.5-.8 11.1-.6 12 .3s-.4 18.9-1.6 22.6c-.5 1.7.3 1.8 9.6 1.8h10.2l-.4-5.7-.3-5.6 5.3-2.8c6.8-3.5 9.2-5.7 8.5-7.6-.3-.8 0-1.9.8-2.3 1.1-.7.8-2.5-1.5-9.7-1.5-4.8-3-9.3-3.1-10-.6-1.9-10.2-54.5-12.4-67.8-1.1-6.6-3.2-22.1-4.6-34.5s-3.7-27-5-32.5c-1.4-5.6-2.5-10.4-2.5-10.8s1.1 0 2.5.9c2.4 1.6 2.7 1.6 4.9-.5l2.2-2.1 6.5 2.5c3.7 1.5 7.4 2.3 8.7 2 3.1-.8 6.2-6.2 6.2-11 0-3.5-.5-4.5-4.7-8.1l-4.7-4.1 4.7-7.3c2.6-4.1 4.7-7.6 4.7-7.9s-6.3-4.7-13.9-9.6c-10.1-6.5-14-9.6-14-11-.1-1.1 1.7-4.6 3.9-7.8 4.6-6.5 4.5-6.5 2.5-8.7-1.4-1.6-1.4-1.7.7-1.3 1.3.2 3.4-.5 4.8-1.6 2-1.6 2.2-2.2 1.1-3.4-1-1.3-.9-1.7.4-2.5 1.5-.8 1.3-1.1-.8-2.5-1.4-.9-3.7-1.9-5.2-2.3-1.6-.4-3-1.7-3.6-3.3-.6-1.4-1.9-4.4-3-6.7-1-2.2-1.9-4.4-1.9-4.8 0-1.8-4.5-6.9-8.1-9.2-4.7-2.9-5.9-3-5.9-.5"/></svg>