<svg xmlns="http://www.w3.org/2000/svg" width="682.667" height="512" version="1.0" viewBox="0 0 512 384"><path d="M113.7 77.1c-.3 1.2.4 2.6 2.1 4l2.7 2-4-.6c-2.2-.3-8.1-.8-13.2-1.2-10.9-.7-13.9.2-18.8 6-3.3 3.8-3.8 4.1-8.3 3.9-5.8-.3-11.5 2.7-10.5 5.5 1.2 3.5 3.6 5.4 6.1 4.8 2-.5 2.2-.3 1.3 1.4-1.2 2.2-.5 5.1 1.3 5.1.6 0 .3.5-.7 1.1-1.2.7-1.6 1.7-1.2 2.9.3 1.1.2 2.8-.4 3.8-1.2 2.2.2 3.9 5.7 6.6l3.2 1.7v22l-4.6 4.9c-3.6 3.9-4.9 6.2-6.1 11.2-.8 3.5-1.5 8-1.4 10.1.1 4.4-4.5 23.5-6.1 25.5-.6.7-1.1 2.6-1 4.2 0 2-1.1 4.6-3.4 7.5-3.9 5.2-4.6 8.2-1.4 6.5 1.1-.6 2-.9 2-.8 0 .2-1.8 5.9-4 12.8s-4 12.8-4 13.1c0 .4 1.3 1.2 2.8 1.8 2.3 1 2.8 1.7 2.4 3.9-.5 3.6 2.9 7.8 6.9 8.7 6.9 1.5 11.2-5.1 4.7-7-1.7-.6-3.4-1.6-3.6-2.3-.3-1 .8-1.1 5-.6 2.9.3 5.6 1 6.1 1.3.7.7-1 53.7-3.2 104.1-.5 11.3-.6 20.9-.1 21.4s.6 1.4.4 2.1c-.8 1.9 6.9 4.6 10.7 3.8 3.1-.6 3.2-.5 2.7 2.5l-.5 3.2h20.5l1.2-2.9c1.3-3.3.6-8.1-1.7-12.2-1.2-1.9-1.3-3.3-.6-5.4.9-2.8 1.1-2.9 8.6-3 7.1-.1 7.9.1 9.3 2.3 1 1.5 1.2 3.1.7 4.5-.4 1.2-.8 5.5-.8 9.4v7.3h9.8c10 0 10.7-.3 8.7-4.1-1.5-2.8.1-5.2 4.7-6.8 9.3-3.3 11.6-7.9 8.8-17.3-1.5-4.9-11-60.2-15.5-90.2-1.1-7.2-2.9-21.9-4-32.6-1.2-10.7-3-23.6-4.1-28.5-1.2-5-2.3-10.1-2.6-11.4-.5-2.1-.4-2.2 1.6-1.1 1.9 1 2.6.9 4.3-.6 1.9-1.8 2.1-1.8 6.6 0 10.1 3.9 13.8 3 16.8-4.1 2.3-5.4 1.7-7.4-3.6-12.8l-5-5 4.5-6.7c2.5-3.7 4.5-7.4 4.5-8.2s-6.3-5.5-14-10.5-14-9.4-14-9.8c0-3.2 2.5-8.6 4.6-10 2.5-1.6 2.6-2.4.8-6.8-.7-1.8-.6-1.8.9-.7 1 .9 2.7 1.1 4.5.8 2.5-.6 2.8-1.1 2.8-4.6-.1-3.8-2.5-7.7-6-9.7-.9-.5-3.2-4.9-5.2-9.8-3.8-9.5-8.6-15.7-13.5-17.4-2.3-.8-2.8-.6-3.2 1M77 105.4c0 .2-.8 1-1.7 1.7-1.6 1.3-1.7 1.2-.4-.4s2.1-2.1 2.1-1.3"/></svg>