<svg xmlns="http://www.w3.org/2000/svg" width="682.667" height="512" version="1.0" viewBox="0 0 512 384"><path d="M117.5 63.2c.4 1.2 1.7 3.4 2.9 4.7 2 2.3 2 2.4.1 1.7-4.7-1.7-21.3-3.9-24.6-3.2-4.6.8-9.8 4.3-12.4 8.2-1.8 2.7-2.5 3-7.1 2.9-5.9 0-12.4 3-12.4 5.8 0 2.4 5 6.9 6.8 6.2 1-.4 1.2 0 .8 1.1-.3.8-.1 2.4.5 3.5.9 1.7.7 2.1-1.1 2.6-1.9.5-2.1 1.1-1.6 4.2.3 2 .6 4.3.6 5.2 0 1 2 2.5 5.1 3.9l5.2 2.2-.5 12.4-.5 12.3-4.1 4c-2.3 2.2-4.4 5.3-4.7 6.8-.3 1.6-1 4.4-1.5 6.4-.6 2-1 5.4-1 7.5 0 5.4-7 31.9-15.5 58.4-2 6.3-3.8 12.2-3.9 13 0 .8 1.1 2 2.6 2.8 2.2 1 2.8 2 2.8 4.7 0 4 4.7 8.5 8.9 8.5 3 0 6.7-3.3 7.3-6.5.2-1.5-.3-2.1-2.2-2.3-1.4-.2-2.9-.8-3.4-1.2-.5-.6.7-.7 3-.4 8 1.1 8.5 1.3 7.9 3.7-.8 3.6-3.5 66.9-3.5 84.2-.1 8.8-.5 23.1-.9 31.9-.5 8.7-.6 16.7-.4 17.7.7 2.6 6.6 4.2 14.6 3.7 6.8-.3 8.8.9 5 3.1-1.3.8 1 1 8.5 1.1 11.6 0 11.5.1 8.6-8.1-1.2-3.3-1.5-6-1-10.1l.7-5.5 5.6.3c6.7.5 7.3.8 7.3 3.9 0 1.3.5 2.7 1.1 3.1.7.4.9 3.2.4 8.5l-.7 7.9h10.3c9.9 0 10.2-.1 8.5-1.9-1.6-1.8-1.5-1.9 2.1-2.5 2.1-.4 6.2-1.8 9.2-3.2 4.1-1.8 5.2-2.8 4.7-4.1-.4-.9-.2-1.9.4-2.3.8-.5.7-2.2-.3-6.1-.9-3-2-10.4-2.7-16.4-1.4-14-1.9-17.7-8-60.7-5.1-36.1-8-60.1-8-67.2 0-3.2.2-3.6 1.4-2.7 1 .9 1.5.8 1.9-.3.4-.9.2-1.8-.4-2.1-1.6-1.1-4.1-7.6-6.1-16.5-2.9-12.9-3-14.3-1.4-13.7.8.3 2-.1 2.6-.9 1.7-2 3.3-1.8 9 1.1 7.6 3.8 11.8 2.3 15.2-5.3 2.5-5.7 1.9-7.7-4.1-13.6l-4.9-4.9 5.5-8.3c3.1-4.6 5.4-8.6 5.2-8.8-1.4-1.3-26.4-17.6-27-17.6-1.7 0-2.6-2.8-2-6.4.4-3 1.3-4.4 3.6-5.6 1.9-1.1 3-2.5 2.9-3.9 0-1.7.5-2.1 3.2-2.1 3.8 0 4.4-1.1 3.4-7.2-.6-4.6-1.9-7.1-4.8-9.5-1.4-1.2-5.4-9.9-7.2-15.7-2-6.3-7.9-12.3-13.8-14.1-2.2-.6-2.3-.5-1.7 1.7"/></svg>