<svg xmlns="http://www.w3.org/2000/svg" width="682.667" height="512" version="1.0" viewBox="0 0 512 384"><path d="M128.6 50.7c-.3.4.8 2.2 2.6 4.1l3.3 3.4-4-.6c-2.2-.3-8.9-.8-15-1.1-10.2-.6-11.3-.5-15 1.7-2.1 1.3-5.3 4.1-7 6.4-3.1 4-3.2 4-6.6 2.8C83.2 66 71 65.5 71 66.7c0 .5 1.1 2.6 2.3 4.8 1.8 3.2 3 4.1 5.7 4.5l3.4.5-2.6 1.7c-1.9 1.2-2.5 2.3-2.1 3.8.3 1.1-.2 3.2-1.2 4.6-1.5 2.3-1.5 2.7-.1 4.7 2.8 4 4.1 5.3 5.9 6 1 .4 2.5 2 3.5 3.7.9 1.6 2.5 3 3.6 3 1.7 0 1.8.7 1.1 9.2-.9 12.1-3 20.2-6.5 25.7-1.6 2.4-3.2 6.4-3.5 9-.4 2.5-2 7.6-3.6 11.4-3.6 8.3-3.7 13.2-.5 18 1.5 2.2 1.9 3.4 1 3-.9-.3-1.4.2-1.4 1.4 0 5.1-3.5 11.5-11.2 20.4-12.9 15.1-13.8 16.4-12.7 20.2.5 1.7 2.2 5 3.9 7.3 1.6 2.3 3 4.7 3 5.2 0 1.7 5.1 4.7 11.1 6.5 9.5 2.9 10.3 2.5 14.5-6.1l2.2-4.7.1 4c.1 2.2-.4 6.7-.9 10-2.7 16.8-7.8 79.6-8.5 105.5-.3 10.2-.7 22-1 26.2l-.4 7.8H115v-2.9c0-4.2 2.3-5.6 8.9-5.3 7.9.3 8.9.8 9.7 4.8l.6 3.4h18.2c9.9 0 18.7-.4 19.5-.9 1.2-.8 1.1-1.9-.2-7.2-.9-3.5-2.4-14.3-3.2-23.9-.9-9.6-2.5-24.5-3.6-33-6.8-53.6-9-71.5-10.4-88-1.7-20-3.6-32-6.4-41.7l-1.9-6.2 2.4-1.6c2.2-1.4 2.8-1.3 8.4 1.5 7.7 3.9 11.9 3.9 15.7.2 1.5-1.6 3.4-4.8 4.1-7.1l1.2-4.2-5.1-5.7c-7.9-8.8-7.9-8.7-2-17.7 2.8-4.3 5.1-8.3 5.1-8.9-.1-.6-6.7-5.6-14.8-11.1-14.6-10-14.7-10.1-14.4-13.5.4-4.1 2.1-7 6.8-11.7 2.7-2.7 3.2-3.8 2.5-5.2-.9-1.5-.4-2 2.9-3 4.1-1.2 4.9-2.7 2.8-5-1.1-1-.9-1.4.5-2.3 1.8-.9 1.8-1 0-3-1-1.2-3.7-2.9-6-4-2.4-1-4.3-2.4-4.3-3.1s-1.4-3.9-3-7.2-3-6.5-3-7.1c0-2-6-9.4-9.3-11.4-3.2-2-6.8-2.6-8.1-1.3"/></svg>