<svg xmlns="http://www.w3.org/2000/svg" width="682.667" height="512" version="1.0" viewBox="0 0 512 384"><path d="M136 38.7c0 .4 2.1 2.6 4.8 4.9l4.7 4.2-4-.9c-5.4-1.2-24.2-1.1-28.7.1-3.8 1.1-9.5 6.6-12.3 11.9-1.3 2.7-1.8 2.9-4.1 2.1-1.4-.6-3.5-1-4.8-1-3.3 0-12.6 2.9-12.6 4 0 2 6.3 8 7.9 7.6.9-.2 2.7-.8 4.1-1.1l2.5-.7-2.8 3c-1.9 2-2.8 4.1-2.9 6.3 0 1.9-.4 4.1-.9 5.1-1.1 2 5.2 8.6 9.1 9.5 6.8 1.6 8.3 8.4 5.5 24.7-1.3 7.4-2 9.1-5 12.3-4.2 4.5-5.5 8.8-6 19.8-.2 4.5-.9 10.1-1.5 12.4-.6 2.4-.9 5.5-.5 7 1.4 6.4-4.3 18-16.5 33.9-7 9.1-11 15.5-11 17.6 0 1.4 1.5 4.4 3.4 6.9 1.8 2.4 3.9 6 4.5 7.9.6 2 1.9 4.2 2.9 5.1 2.5 2.2 9.1 3.8 11.3 2.7 1-.6 3.3-1 5.2-1 4.6 0 5.9-1.8 9.6-13.5 3.2-10.4 5.1-14.5 5.1-11.4 0 .9-1.1 8.1-2.6 16-7.8 44.1-10.9 64.1-14.4 91.4-1.8 14.6-5 50.3-5 56.1v2.4h21c18 0 21-.2 21-1.5 0-.8.8-1.5 1.8-1.5s2.3-.5 3-1.2c.9-.9 1.5-.8 2.5.6 1.1 1.5 2.2 1.6 9.5.9 7.5-.8 8.2-.7 8.8.9.5 1.7 2.1 1.8 21 1.8 11.2 0 20.4-.3 20.4-.6s-.7-2.9-1.5-5.7c-.8-2.9-3.2-20.5-5.5-39.2-2.2-18.7-5-41.2-6-50-1.1-8.8-3.4-29.3-5-45.5-3.6-34.7-4.2-39.2-7.6-52.9-3.2-13-2.7-13.9 5.6-9.4 3.2 1.8 7.2 3.3 8.8 3.3 5.2 0 11.2-6.6 11.2-12.4 0-1.3-2.2-5.7-5-9.7-2.7-4-5-7.6-5-8.1s2.7-4.9 6-9.8 6-9.1 6-9.3-6.7-5-15-10.7l-15-10.3v-8.1c0-7.6.2-8.4 3.1-11.9 2.4-2.9 2.9-4.1 2-5-1.8-1.8-1.3-2.4 2.4-3.1 4.1-.8 5-1.9 3.5-4.7-.9-1.7-.8-2.3.5-3.3 1.5-1.1 1.5-1.4-.3-3.7-1.1-1.4-3.6-3.4-5.6-4.4-2-1.1-3.6-2.5-3.6-3.2 0-.6-2-4.1-4.4-7.6s-4.6-7.3-5-8.4c-.8-2.5-6.2-8-10.1-10.5-2.9-1.7-8.5-2.5-8.5-1.1m-31.3 341c-.3 1-.5.4-.5-1.2 0-1.7.2-2.4.5-1.8.2.7.2 2.1 0 3"/></svg>