<svg xmlns="http://www.w3.org/2000/svg" width="682.667" height="512" version="1.0" viewBox="0 0 512 384"><path d="M138.5 32c-.3.5.5 1.5 1.7 2.3 6.8 4.1 7.8 4.8 7.8 5.6 0 .4-5.5 1-12.3 1.3-17.9.8-23.2 3.8-27.3 15.7l-1.2 3.6-6.1-.3c-6.3-.4-13.1 1.2-13.1 3 0 .6 1.2 2.6 2.6 4.5 2.5 3.2 2.8 3.4 7.2 2.7l4.7-.6-3.4 3.5c-1.9 2-3.8 3.4-4.3 3.1-1-.7-1-.2.3 5.1.9 3.7 2 5 6.9 8.4 3.2 2.3 6.5 4.1 7.3 4.1 2.1 0 3.1 8.8 2.4 20.8-.5 9.1-.7 9.6-4 13.1-4.2 4.4-6 7.6-6.3 11.6-.2 1.6-.7 5-1.1 7.5-.5 2.5-.6 6.1-.1 8 .4 2 .1 7.9-.8 14-1.3 9.4-2.1 11.9-8 24-3.6 7.4-8.8 17.5-11.6 22.4-5.4 9.7-5.8 13.5-1.8 17.1 1.3 1.2 1.8 2.5 1.4 4.1-1.5 5.9 4 13.3 11.4 15.4 3.1.8 4.1.7 6.2-.9 1.4-1 2.4-2.6 2.2-3.5-.2-1.3.6-1.6 3.8-1.6 2.3 0 5-.5 6.1-1 2.6-1.4 2.5-.6-1 13.7C97.7 300.3 85 367.9 85 381.6v2.4h10.9c7.8 0 11.1-.4 11.5-1.3.5-.9.7-.9 1.2 0 .4 1 10.8 1.3 47 1.3 40 0 46.4-.2 46.4-1.5 0-.8-.5-4.7-1-8.7-4.2-30.5-14-130.4-14.6-147.8-.2-6.8-1.1-17.4-1.9-23.3-.9-6-1.4-11.1-1.1-11.5.3-.3.6.2.6 1.1s.5 1.7 1.1 1.7c.5 0 .7-.5.4-1-.3-.6-.2-1 .3-1s1.2 1 1.5 2.2c.4 1.2.8 2 1.1 1.7s-.1-2.6-.9-5.2c-1.3-4.5-.8-6.6 1.5-5.2 2.6 1.6 10-4.8 11.9-10.4 1-3.2.8-3.9-3.5-11.3-2.5-4.3-4.4-8.5-4-9.3.3-.8 3.2-5.5 6.6-10.4 3.3-5 6-9.6 6-10.3-.1-.7-7.1-6-15.6-11.8L175 111.5l.4-9c.2-5 .5-12.3.8-16.3.3-5.2 0-7.6-.9-8.4-2-1.6-1.6-3.4 1.3-5.7 2.1-1.6 2.3-2.3 1.5-3.9-.9-1.6-.6-2.3 1.2-3.5 2.6-1.8 1.8-3-3.5-4.6-2-.7-4-2.1-4.3-3.1s-3.4-4.4-6.8-7.6c-3.4-3.1-7.4-7.5-9-9.6-4-5.5-15.4-10.7-17.2-7.8m-44 212c.3.5-.1 1-.9 1-.9 0-1.6-.5-1.6-1 0-.6.4-1 .9-1 .6 0 1.3.4 1.6 1"/></svg>