<svg xmlns="http://www.w3.org/2000/svg" width="682.667" height="512" version="1.0" viewBox="0 0 512 384"><path d="M140 32c0 .5 1.8 2.1 3.9 3.4 7.1 4.5 7.3 4.4-11.9 6.1-7.4.7-14.1 3.5-17 7.2-1.1 1.5-2.7 4.9-3.5 7.7l-1.5 5.1h-8c-6 0-8.3.4-9.6 1.7-1.5 1.5-1.4 1.9 1.2 5.3 2.2 3 3.3 3.6 5.5 3.3 2.7-.4 2.7-.4 1.3 2.4-.8 1.5-2.2 2.8-3 2.8-1.2 0-1.4.5-.9 1.7.4 1 1 3 1.3 4.5.3 2 2 3.9 6.1 6.6 3.1 2.1 6.4 4.1 7.3 4.5 2.3.8 3.1 7.2 2.6 20.8-.3 9.7-.6 11.2-2.4 12.7-6.2 5-8.1 11.9-7.6 26.7.2 8.3-1.2 21.4-3 27.5-.6 1.9-5.7 12.8-11.4 24.2-10.6 21.3-10.7 21.7-7.5 26.8.9 1.3 1.7 4.3 1.7 6.6.2 6.7 3 10.4 9.5 12.8 5.5 1.9 5.6 1.9 8.2 0 1.4-1 2.5-2.8 2.4-3.8-.2-1.8.4-1.9 4.8-1.7 2.8.2 5.1.4 5.3.6s-2.8 13.3-6.7 29.2c-11.7 48.2-18.3 81.2-19.7 98.6l-.7 8.6 59.7.1H206l-.5-2.2c-.3-1.3-1.6-13.6-3-27.3-1.4-13.8-3.8-37.4-5.5-52.5-5.6-52.1-6.3-61.7-5.1-67.9 1.2-6.3.1-22.5-2.4-35.7-1.4-7.4-1.4-10.9 0-6.5.3 1.2 1 1.9 1.5 1.6s1.4.3 2 1.2c1.2 1.9 1 .6-.6-6.2-.5-2.1-.3-2.5 1.6-2.5 3.2 0 9.7-6.9 10.5-11.1.5-2.9 0-4.5-3.6-10.4-2.3-3.9-4.2-7.5-4.2-8 0-.6 3-5.6 6.7-11.3 3.8-5.6 6.6-10.8 6.3-11.5s-4.9-4.4-10.3-8.1c-5.5-3.7-12.5-8.6-15.6-10.8l-5.8-4v-6.7c0-3.8.5-8.3 1.1-10 .9-2.5.9-3.8-.1-5.6-.8-1.5-1-3.9-.6-6.4.4-2.4.2-4.2-.5-4.6-1.1-.7-.3-6.2 1.2-8.1.5-.6.3-1.6-.4-2.3-.9-1-.8-1.5.7-2.6 1-.8 2.4-1.6 3-1.9 1.4-.6-2.2-3.6-4.4-3.6-.9 0-3.6-2.3-6-5.1-2.3-2.8-6-6.4-8.2-7.9-2.1-1.6-4.9-4.4-6.1-6.2-1.3-1.8-4.5-4.5-7.2-6-5-2.7-10.5-3.7-10.5-1.8"/></svg>