<svg xmlns="http://www.w3.org/2000/svg" width="682.667" height="512" version="1.0" viewBox="0 0 512 384"><path d="M142 32c0 .5 1.7 1.8 3.8 2.9 7.9 4 7.3 4.7-5.5 6-17.6 1.9-22.4 4.9-25.6 15.7l-1.4 4.9-7.4.6c-8.1.7-10.9 1.5-10.9 3.3 0 1.5 5.6 7.6 6.9 7.6s.3 3.1-1.5 4.6c-1.1.9-1.1 1.8.2 5.2 1.3 3.2 3.1 5.1 8.4 8.6l6.8 4.5.7 7.6c1 11.2-.3 24-2.6 26.1-3.2 2.9-5.8 7.9-5.8 11 0 1.6-.4 5.2-.8 8-.5 2.8-.6 6.3-.2 7.8.7 2.5-.5 20.4-1.7 25.5-.6 2.9-3.9 10-14 30.6-4.1 8.2-7.4 15.7-7.4 16.5s.9 2.6 2 4c1.3 1.6 2 4.1 2 7 0 8.3 5.9 14 14.3 14 3.6 0 7.4-3 6.2-4.9-.6-1.1 7.6-1.6 8.7-.6.6.7-1.2 8.3-10.5 44.5-7.5 29.2-13.9 58.5-16.2 74.5-.8 6-1.8 12.2-2 13.7l-.4 2.8h60.4c33.3 0 60.5-.3 60.5-.8 0-2.4-3.6-39.2-7-72.7-6.3-61.3-6.7-66.5-5.4-73.7 1.3-7 .3-24.1-2-34.1-.7-3.1-.9-5.7-.4-5.7s.4-.9-.2-1.9c-1.7-3.3-1.1-3.2 2.1.1l3.1 3.3-.7-3c-.4-1.7-1.1-4.3-1.6-5.9-1.2-3.7-1.2-3.6.6-3 3.6 1.4 10.5-7.5 10.5-13.6 0-1-1.6-4.7-3.7-8.1-2-3.5-3.6-6.8-3.6-7.4s3-5.6 6.6-11.2c3.7-5.6 6.7-10.9 6.7-11.7 0-1.2-12.8-10.8-27.2-20.4-3.3-2.2-3.8-3.1-4.3-7.6-.3-2.8-.4-8.3-.3-12.1.1-3.9-.1-12.3-.5-18.7-.8-11.3-.7-11.7 1.3-12.3 2.7-.9 2.1-2.6-1.6-4.5-1.6-.8-3.2-2-3.6-2.5-1.9-2.9-7.8-8.6-11.3-10.9-2.2-1.5-5.1-4.4-6.5-6.4s-4.5-4.7-7-5.9c-4.6-2.3-11-3-11-1.3m-12.6 85.2c.4 1.7.2 2.8-.4 2.8-.5 0-1-1.4-1-3.2 0-3.6.4-3.5 1.4.4"/></svg>