<svg xmlns="http://www.w3.org/2000/svg" width="682.667" height="512" version="1.0" viewBox="0 0 512 384"><path d="M146.8 33.8c1.3.9 3.8 2.9 5.5 4.4l3.2 2.7-4.5.1c-5.1 0-13.7 1.3-19.8 3-6.2 1.6-10.8 6.5-12.7 13.6l-1.7 5.9-4.2-.3c-5.2-.4-12.6 1.4-12.6 3.1 0 .7 1.1 2.8 2.5 4.7 2.7 3.7 3.3 7.8 1.2 8.6-1.9.7 2.1 9.2 4.7 10 3.6 1.2 10.7 6.9 11.2 9.1.4 1.3.5 8.5.2 16.1-.3 13.7-.4 13.8-3.7 19.1-3.5 5.5-3.8 6.5-4.5 19-.3 4.1-1 8.7-1.7 10.2-.7 1.7-.8 4.5-.4 7.1 2 12.3 1.8 12.9-9.7 36.2-6 11.9-10.8 22.2-10.8 22.9s.9 2.7 2 4.5c1.2 1.9 2 5 2 7.6 0 10.5 12.3 17.4 19.8 11.1 3.6-3 9.8-3.6 8.7-.8-.3 1-1.1 4-1.7 6.8-.5 2.7-3 11.7-5.4 20-12.3 42.8-21.1 80.5-23 98.7l-.6 6.8h60.6c33.3 0 60.6-.1 60.6-.3 0-1.1-4.3-49.2-6-66.7-4.5-47.1-5.9-69.8-5.3-84.8.4-11.1.2-16.7-.9-22.7-.9-4.4-1.6-9.6-1.7-11.5l-.1-3.5 2.4 3c3 3.5 3.3 2.1 1.2-4.8-1.3-4.5-1.3-4.7.6-4.7 3.1 0 8.5-6.1 9.3-10.4.6-3.2.1-4.9-3.3-11.6l-4-7.9 6.9-10.3c3.8-5.7 6.9-11 6.9-11.9 0-1-6.3-6.1-16-13l-16-11.3v-6.4c0-3.5.4-7.1.9-8.1.7-1.2.5-3.6-.5-7.3-.9-3.5-1.3-9.1-1.1-15.2.2-8 .6-9.8 2.1-10.9 1.8-1.3 1.8-1.4-.5-3-1.3-1-2.8-1.7-3.4-1.7-.5-.1-2.2-1.9-3.7-4-1.6-2.2-4.7-5.2-6.9-6.8-2.3-1.5-6.4-5-9.1-7.9-5.3-5.5-10.8-8.3-16.1-8.3l-3.2.1zm-13.1 87.9c-1.1 1-1.5.1-2.1-5.2l-.6-5 1.7 4.7c.9 2.7 1.3 5.1 1 5.5"/></svg>