<svg xmlns="http://www.w3.org/2000/svg" width="682.667" height="512" version="1.0" viewBox="0 0 512 384"><path d="M150.5 33.9c-.3.5 1.4 2.2 3.7 3.8 2.3 1.5 4.3 3.3 4.5 3.9.2.7-2.9 1.3-8.9 1.8-10.9.7-15.3 1.8-19.9 4.9-3.9 2.5-7.9 9.7-7.9 14 0 2.9-.1 2.9-4.5 2.3-5.1-.8-12.5 1-12.5 3.1 0 .8.8 2.6 1.7 4 2.3 3.4 2.7 9.2.8 10-1.2.4-1.1 1 .5 3 1.1 1.4 2 3.2 2 4 0 .7 1.2 1.8 2.6 2.3 1.4.6 4.6 2.4 7.1 4.1l4.5 3.2-.4 16.6c-.3 16.1-.4 16.8-3.2 21.4-1.5 2.7-3 6.3-3.2 8-1.6 12-2.5 16.7-3.8 20.2-2.2 5.8-1.9 9.4 1 14.9l2.5 4.8-3.7 7.6c-2.1 4.3-6.8 13-10.5 19.4-9.2 16-9.8 17.8-7.5 22.5 1.1 2.1 2.1 5.6 2.3 7.7.9 8.2 5 12.7 12.2 13.4 3.5.3 5.6 0 7.2-1.2 2.1-1.4 8.9-2.3 8.9-1.2 0 1.8-3.7 16-6.5 24.6-1.8 5.8-4.3 13.9-5.5 18-1.3 4.1-3.3 10.9-4.6 15-7.6 24.8-16.4 63.5-16.4 72.2 0 1.7 3.5 1.8 60.5 1.8H214v-4.9c0-2.7-.9-15-2-27.3-4.5-51.1-7.3-96.5-7.1-116.8 0-8.5-.4-18.2-1-21.5s-1.2-8.1-1.4-10.8c-.2-2.6-.7-5.8-1-7-.5-1.5-.1-1.3 1.3.9 1.1 1.8 2.6 3.5 3.2 3.9 1.2.7 1.2.2-.6-8-.3-1.5.4-2.4 2.8-3.5 4.1-1.9 7.8-7.3 7.8-11.4 0-1.8-1.6-6.1-3.5-9.6-1.9-3.6-3.5-7.2-3.5-8.2 0-.9 3.2-6.4 7-12.2 3.9-5.9 7-11 7-11.4s-7.1-5.7-15.8-11.7l-15.7-11.1-.3-6.8c-.2-3.8.1-7.3.6-7.8.9-.9.7-2.1-1.8-11.6-1.4-5.1-.2-21.2 1.6-21.9 2.3-.8 1.6-2.3-1.4-3.4-1.6-.5-4.3-3-6-5.5-1.8-2.4-5.3-5.8-7.9-7.4-2.6-1.7-6.7-5.2-9-7.9-5.1-5.8-15-10.1-16.8-7.2m-12.1 89.6c-1.1 2.8-2.4.4-2.3-4.3v-4.7l1.4 3.8c.8 2.1 1.2 4.4.9 5.2"/></svg>