<svg xmlns="http://www.w3.org/2000/svg" width="682.667" height="512" version="1.0" viewBox="0 0 512 384"><path d="M153 1.9c0 1.1.5 2.3 1.1 2.6.6.4.8 1.4.5 2.2-1.4 3.6 10.6 5 24.7 2.8 5-.8 3.5 3.7-4.4 13.8-9.7 12.2-15.9 22.1-16.6 26.1-.4 2.5.1 4.3 1.9 7 1.4 2 2.8 3.3 3.1 2.9.4-.3 1.8 0 3.2.7 1.8.9 2.8 1 3.7.2.8-.7 1.9-.7 2.8-.2.8.5 1.8.6 2.2.4.4-.3.8 0 .8.6s1 .8 2.4.4c1.5-.3 2.7-.1 3.2.8.5.7.9 10.5.9 21.8 0 16.9.5 22.9 2.4 34.3 2.1 12.5 2.2 13.9.8 15.5-1.4 1.5-1.4 2 0 5.2.8 1.9 2.1 5.3 2.8 7.5l1.2 3.9-6.1 3.1c-8.2 4.1-17.1 11-21.2 16.3-4.8 6.3-6.9 12.8-9.4 29.2-1.2 8-3.4 19.2-4.9 25-2.3 9.2-2.9 10.5-4.6 10.3-13-1.5-16.5-1.5-19 .1-1.4.9-2.5 2.4-2.5 3.3s1.8 6.3 4 11.9 4 11.6 4 13.3c0 1.6-1.6 7.4-3.6 12.8-1.9 5.4-5.7 16.1-8.4 23.8-5.3 15.5-10.5 27-27.5 60.7-6.3 12.6-11.5 23-11.5 23.3s50.4.5 111.9.5h112v-7.8c0-4.2-.7-13.5-1.5-20.7-.9-7.2-1.6-18.6-1.7-25.5 0-11 .4-13.9 3.1-24 5.8-21.4 9.9-34.3 10.6-33.2.4.7.2 2.9-.3 4.9-2.2 8.2-3.4 28.1-2.8 47.3.6 17.5 2.7 45.4 4.3 55.2l.6 3.8h88.6l-.5-16.8c-.3-9.2-.8-17.3-1.3-18.1-.4-.7-.5-4.4-.2-8.2.3-4.6.1-7.4-.7-8.3-.9-1.1-.9-2-.2-3.4.9-1.8-.3-18.2-1.7-22.2-.2-.8-.4-3.2-.3-5.3.2-2.6-.2-3.9-1.3-4.3-1.2-.5-1.4-1-.6-1.9.7-.9.7-2.1-.1-4.1-.6-1.6-1.1-4.5-1-6.5.1-2.5-.3-3.9-1.4-4.2-1.1-.5-1.3-1.2-.6-3 .6-1.4.5-3-.2-4.2-.5-1-1.2-3.5-1.3-5.4-.2-1.9-1.1-3.9-1.9-4.4-1.1-.6-1.4-1.7-1.1-3.5.4-1.6-.1-3.9-1-5.7-.9-1.7-1.8-4.2-2-5.7-.6-4.5-10.1-26.9-12.3-28.9-1.1-1.1-1.8-2.5-1.5-3.2.2-.7-1.1-3.9-3.1-7.1-1.9-3.2-3.5-6.2-3.5-6.6 0-1.7-13.4-23.5-15-24.5-.6-.3-1-1.4-1-2.3 0-1-.9-2.4-2-3.2s-2-2.4-2-3.7c0-1.2-.8-2.8-1.9-3.5-1.3-.9-2.2-3.5-3-8.5-1.4-9.4-1.4-9.3 1-9.3 1.9 0 2.1-.4 1.5-4.3-.5-3.6-2.5-31.4-2.8-38.7-.1-1.4.2-3.3.7-4.3.5-1.3.4-1.8-.6-1.7-3.7.6-3.9.1-3.9-10.1 0-9.7.1-10.3 3.6-16.2 2-3.4 4.5-7.3 5.6-8.7l2-2.5-.7 4c-.4 2.2-1.8 6.4-3 9.2-1.3 2.9-2.1 5.3-1.7 5.3 1.5 0 8.2-11.4 9.7-16.4.9-2.8 1.9-8.9 2.2-13.6s.9-8.7 1.3-9c3-2.2 12.8-14.4 12.7-15.8S372 18 374 16c2-1.8 3.9-6.2 3.4-7.5-.4-.9.2-2.5 1.3-3.8 1.1-1.2 2.3-2.8 2.7-3.5C382 .3 358.9 0 267.6 0 154.8 0 153 0 153 1.9m41.9 129.8c.1.7-.3 1.3-.9 1.3-.5 0-1-1.5-.9-3.3 0-2.7.2-2.9.9-1.2.5 1.1.9 2.6.9 3.2m102.1 9.4c0 1.4-4 1.1-4.4-.4-.3-.6-.7-4.1-1-7.7l-.5-6.5 2.9 6.8c1.7 3.8 3 7.3 3 7.8m71.3 141c-.6.6-.4 3.4.4 7.2.7 3.4 1.6 8.2 1.8 10.5.3 2.4.8 4.9 1.2 5.5.4.7.6 2.2.4 3.5-.1 1.3.4 3.4 1.3 4.7 1 1.5 1.2 2.6.6 3-.6.3-1 1.6-1 2.8-.1 4.6-4.9-6.6-5-11.5 0-2.6-.4-8-.9-12-.6-4-1.2-9.9-1.5-13l-.6-5.8 2.1 2.1c1.3 1.3 1.7 2.5 1.2 3m6.7 41.4c0 .8-.2 1.5-.4 1.5s-.6-.7-1-1.5c-.3-.8-.1-1.5.4-1.5.6 0 1 .7 1 1.5"/></svg>