<svg xmlns="http://www.w3.org/2000/svg" width="682.667" height="512" version="1.0" viewBox="0 0 512 384"><path d="M155.2 34.8c-.9.6.2 1.8 3.8 4 2.7 1.7 5 3.5 5 4s-4.2 1.2-9.3 1.5c-17.5 1.2-24.4 5.2-27.4 15.8l-1.6 6-4.4-.6C116.6 65 110 67 110 69c0 .6.7 2.5 1.7 4.3 1.9 3.8 2.3 8.5.7 9.8s2.6 9.3 5.2 9.8c1 .2 3.7 1.6 6 3.2 4.8 3.3 5.4 5.2 5.4 17.8 0 11.8-1.6 20.7-4.6 26.3-1.4 2.7-2.3 5.2-1.9 5.7.6 1.1-.8 7.7-3.5 16.6-3.7 11.8-3.5 13.5 2.1 22.2 1.2 2 1.2 2.6 0 4.5-.8 1.3-3.8 6.3-6.6 11.3-2.9 4.9-7.5 12.8-10.4 17.5-2.8 4.7-5.1 9.6-5.1 11s.9 4.5 2 6.9 2 5.6 2 7.1c0 3.4 3.7 9 7 10.7 2.7 1.4 10.2 1.8 11.4.6.3-.4 2.7-.7 5.1-.8 3.6 0 4.4.3 4 1.5-.2.8-.9 3.7-1.6 6.5-.7 2.7-4.5 15.1-8.6 27.5C107 329.1 96 370.9 96 381.2v2.8h122.3l-.7-6.3c-1.9-18.9-2.8-30.1-4.6-58.2-1-17.1-2.4-43.2-3-58-1.7-45.9-2.5-56.9-4.7-65-.3-1.1 1.1.2 3.1 3 4 5.6 4.2 5.4 2.1-2.5-.8-3-1.5-5.6-1.5-5.8 0-.1.8-.2 1.9-.2 3 0 6.8-3.7 8.7-8.6l1.7-4.6-4.3-8.7-4.2-8.7 7.6-11.5 7.7-11.4-2.4-2c-1.3-1.1-8-5.9-14.9-10.7-6.9-4.9-13-9.4-13.6-10.1-1.2-1.4-1.9-13.8-.9-15.4.4-.6-.1-3.5-.9-6.4-2.2-7.5-1.5-24.3 1.1-26.3 1.6-1.2 1.5-1.4-1.3-3.2-1.7-1-4.7-4-6.6-6.6-2-2.6-5.6-5.9-7.9-7.2-2.3-1.4-6.1-4.8-8.4-7.5-5.1-6-13.5-9.5-17.1-7.3m-12.3 88.9c.1 1.3-.3 2.3-.9 2.3-.5 0-1-1.9-.9-4.3 0-3.2.2-3.7.9-2.2.5 1.1.9 3 .9 4.2"/></svg>