<svg xmlns="http://www.w3.org/2000/svg" width="682.667" height="512" version="1.0" viewBox="0 0 512 384"><path d="M163.5 33c-.3.5 1.2 1.8 3.3 2.9s4.4 2.6 5 3.4c1 1.2.8 1.6-1 2.1-1.3.3-4.5.6-7.1.6s-7.9.7-11.6 1.6c-9.5 2.1-14.6 6.5-16.8 14.5-1.5 5.6-1.8 5.9-4.7 5.9-3.9 0-11.4 3.4-12.2 5.5-.4.9.5 3 2 4.9 3 4 3.2 5.3 1.1 8.2-1.3 1.9-1.2 2.5.5 6 1.6 3 3.3 4.4 8 6.6 4.4 1.9 6.3 3.4 7.1 5.5.6 1.7.9 8.7.7 17.8-.3 14.5-.4 15.1-3.1 19.1-2.9 4.3-3.5 7-4.2 19.6-.2 4.2-.9 8.6-1.4 9.7-1.5 2.8-1.3 9.1.4 12.1.8 1.4 1.4 3.8 1.5 5.3 0 3.8-.5 4.7-16.4 31.2-3.6 6-6.6 11.7-6.6 12.8 0 1 .9 3.6 1.9 5.8 1.1 2.1 2.2 5.7 2.6 7.9 1.1 6.4 4.3 10.2 9.9 11.8 3.7 1.1 5.5 1.1 7.3.3 2.9-1.3 9.3-1.5 9.3-.2 0 3-4.6 19.3-10.8 38.1-14.2 42.9-22.2 75.2-22.2 89.1v2.9h120v-4.8c0-2.6-.9-16.9-2-31.7-2.9-40.4-4.9-74.8-6-106.3-.5-15.5-1.2-28.7-1.5-29.1-.3-.5-.7-4.4-1-8.8l-.5-7.8 3 3.3c1.6 1.8 3 3.2 3 3s-.7-2.8-1.5-5.8-1.5-5.6-1.5-5.8c0-.1.9-.2 1.9-.2 2.7 0 7.9-6.3 8.7-10.5.4-2.4.1-4.9-.9-7.3-.8-2-2.2-5.6-3.1-7.9L223 160l7.5-11.4c4.1-6.2 7.5-12 7.5-12.8 0-1.3-27.8-22-31.5-23.4-1.1-.4-1.5-2-1.5-5.6 0-2.7-.7-7.9-1.5-11.6-.9-4.1-1.3-9.3-1-13.2.3-3.6.5-8 .5-9.7 0-2.6.5-3.4 2.5-3.9 1.4-.3 2.5-.9 2.5-1.3 0-.3-1.6-2.2-3.5-4.1s-5.3-5.8-7.5-8.7-6-6.4-8.5-7.8C186 45 184 43.4 184 43c0-1.9-5.7-7.4-9.5-9.1-4.3-2-10-2.5-11-.9"/></svg>