<svg xmlns="http://www.w3.org/2000/svg" width="682.667" height="512" version="1.0" viewBox="0 0 512 384"><path d="M169 31.1q-1.65 1.05-.3 1.5c.6.3 3.1 2 5.5 3.7 4.1 3 4.2 3.2 1.8 3.4-26.9 2.8-33.3 6-36.4 18.1-1.2 4.6-1.3 4.7-6 5.4-5.3.7-11.6 4.5-11.6 6.9 0 1.7 4 5.9 5.7 5.9.8 0 .8 1 0 3.5-.6 1.9-1.6 3.5-2.4 3.5-1.8 0-1.6.7.7 3.7 1.1 1.4 2 3.1 2 3.7 0 .7 3.1 2.7 6.9 4.6l7 3.3.6 6.3c.4 3.5.5 11.2.3 17.1-.3 9.6-.7 11.3-3.1 15.4-3.1 5.3-3.7 8-4.4 20.4-.7 11.6-.6 17.9.2 23.6.7 5 1.2 4-14.6 30.5-8.4 14.1-9.3 17.2-6.4 22.8.9 1.7 2 5 2.6 7.4 2.2 10 7.7 13.2 19.5 11.4 3.8-.5 7-.9 7.1-.8.7.6-3.9 17.7-9.7 35.6-14.9 46.5-22 75.5-22 89.7v6.3h119.2l-.6-11.8c-.4-6.4-1.6-23.9-2.7-38.8-2.4-33.6-4.7-75.2-5.8-103.1-.5-11.6-1.1-21.6-1.5-22.1-.3-.6-.8-4.1-1-7.9l-.4-6.8 1.9 3.5c1 1.9 1.8 3 1.9 2.5 0-.6.5-.3 1 .5 1.4 2.1 1.2.1-.4-5.4l-1.4-4.6 3.1-1.4c7.5-3.1 8.8-8.9 5.5-22.9l-1.7-6.9 7.5-11.4c4.1-6.3 7.4-12 7.4-12.7-.1-1.2-26.8-20.8-31.3-22.8-2.2-1-2.5-1.9-3.1-8.8-.3-4.2-1.1-9.2-1.6-11.1-.6-1.9-.7-5-.4-6.8.4-2 .1-3.8-.6-4.8-1.1-1.2-.9-2 .8-4.4 1.7-2.3 2-3.4 1.3-5.4-.9-2.1-.7-2.5 1.5-3 1.3-.4 2.4-1.1 2.4-1.7 0-1.1-4.9-5.9-6-5.9-.4 0-1.3-1.3-2-3-.7-1.6-3.5-5-6.4-7.4-5.6-5-9.2-8.5-13.5-13.1-1.5-1.7-5-3.8-7.8-4.8-5.9-2-6.3-2-8.3-.6"/></svg>