<svg xmlns="http://www.w3.org/2000/svg" width="682.667" height="512" version="1.0" viewBox="0 0 512 384"><path d="M184 28c0 .5 1.7 1.8 3.8 2.9s4.4 2.6 5.1 3.5c1.5 1.8.2 2.2-10.9 3-17.4 1.3-25.8 7-28.5 19.3-.6 3.1-.9 3.3-5.3 3.3-4.8 0-12.3 2.8-13.7 5-.4.7.5 2.4 2.1 4.2 2.5 2.6 3.4 2.9 6.7 2.4 3.5-.6 3.7-.5 2.8 1.3-.6 1-2.3 3-3.9 4.3l-2.9 2.4L141 84c1.5 3.8 2.5 4.7 9.3 8.3l7.5 3.9.7 9.6c1.1 14.7.2 22.8-3.4 29.9-1.6 3.3-2.8 6.3-2.5 6.6s0 1.5-.6 2.7c-.7 1.2-1.3 9-1.6 18.8-.2 9.2-.6 17.7-.9 18.8-.5 2.3-5.4 10.7-14 23.9-9.5 14.6-10.5 16.4-10.5 19s6.3 17.3 9.1 21.2c3 4.3 12.8 5.8 20.5 3.3 2-.7 3.7-1 3.9-.8.8.8-2.8 17.5-7 32.3-13.1 47.1-18.7 72.9-20.1 93.1l-.7 9.4h115.4l-.2-14.3c-.1-7.8-.8-21.6-1.5-30.7s-2.5-30.9-3.9-48.5-2.7-39.9-3-49.5c-.6-21.4-1.3-32.3-2.4-37.3-.6-2.6-.6-3.7.3-3.7.7 0 .7-.3.1-.8-1.3-.9-1.6-6.2-.4-6.2.5 0 .9.7.9 1.5s.6 1.5 1.4 1.5 1.7.6 2 1.2c.6 1.2.4 0-1-7.1-.5-2.2-.1-2.9 2-3.9 4.8-2.2 6.1-5.7 5.8-15.5-.1-4.8.2-10.5.8-12.5.5-2 4.1-8.4 8-14.2l7.1-10.5-2.3-1.7c-21.5-16-29.6-21.7-31-21.8-1 0-1.8-.1-1.8-.3-1.4-8.1-2.6-26.5-1.9-27.8 1.5-2.9 1-5.7-1.2-7.3-2.1-1.4-2.1-1.4-.1-3.4 1.1-1.1 2.6-2.2 3.3-2.4 1.1-.4 1.1-1 .2-3.1-1.1-2.5-1-2.7 1.2-3.3 1.4-.3 2.5-.9 2.5-1.4 0-1-3.1-3.5-6.6-5.3-1.7-.9-4.3-3.4-5.7-5.6-1.5-2.3-4.6-5.5-7-7.2-2.3-1.6-5.3-4.6-6.7-6.7-3.2-4.5-11.8-9.2-17.1-9.2-2.2 0-3.9.4-3.9 1"/></svg>