<svg xmlns="http://www.w3.org/2000/svg" width="682.667" height="512" version="1.0" viewBox="0 0 512 384"><path d="M196 26c0 .5 1.5 1.6 3.4 2.5s4.2 2.5 5.2 3.6c1.7 1.8 1.6 1.9-2.3 1.9-6.8 0-21.5 3-26.1 5.3-5.7 2.8-8.7 6.5-10.8 13.2l-1.8 5.5h-5c-5.6 0-13.6 3.1-13.6 5.2 0 .7 1.2 2.6 2.6 4.1 2.6 2.8 6.3 3.4 9.1 1.4.6-.4 1.4-.3 1.8.3.8 1.3-5.2 8-7.1 8-.9 0-.7 1.3.5 4.5 1.4 3.7 2.8 5.1 7.4 7.9 3.1 1.9 6.7 3.6 8 3.8 2 .3 2.3 1.1 3 7.8 1.2 10.8.3 27.7-1.6 29.8-2.1 2.5-4.9 8.3-4.3 9 .3.3 0 1.2-.7 2-.8 1-1.2 5.1-1.3 11.6 0 5.6-.6 14.3-1.4 19.5l-1.3 9.3-11.5 17.2c-14.3 21.4-14.5 21.9-13.7 26.5 1.4 8.1 8.7 18.4 14.9 21.2 7.2 3.3 16.8 1.9 19.5-2.8.9-1.5 1-1.5 1.1-.2 0 3.8-3.4 23.6-6.6 37.9-10.1 45.2-14.9 72.1-16 91.2l-.7 10.8H258v-13.8c0-14.5-1.2-30-6-79.2-4.3-44.7-4.4-46.9-3-54.3 1.1-5.3 1.1-9.1.1-20.4-1.6-17.9-1.9-20.1-2.6-24.3-.4-2.8-.3-3.1.5-1.7.6.9 1.5 1.5 2 1.2s1.2.6 1.6 2c1.1 4.6 1.5 2 .4-2.9-1-4.5-.9-4.8 1.9-7.6 1.9-2 3.1-4.4 3.5-7.2.4-2.4 1.4-7.7 2.2-11.8.9-4.1 1.7-8.4 2-9.6.2-1.2 3.3-6.5 6.9-11.9l6.4-9.9-14.7-10.9c-8.1-6-15.9-11.4-17.5-12-1.5-.6-3-2.1-3.4-3.2-.3-1.1-.7-9.1-.8-17.8-.1-13.9-.4-15.9-1.9-17-1.7-1.3-1.6-1.6 2-4.5 3-2.5 3.6-3.4 2.6-4.4-1.7-1.7-1.5-2.3 1.4-3.7 3.3-1.5 2-3.3-4.1-5.6-2.9-1.2-5.3-3.1-7.5-6.1-1.8-2.5-5-5.7-7.1-7.1s-3.9-2.9-3.9-3.4c0-1.7-6.5-8.1-10.1-10-3.9-2-12.9-2.6-12.9-.9"/></svg>