<svg xmlns="http://www.w3.org/2000/svg" width="682.667" height="512" version="1.0" viewBox="0 0 512 384"><path d="M216 24.8c0 .5 2.2 2.1 4.9 3.5 2.7 1.5 5.5 3.4 6.2 4.4 1.3 1.5 1 1.6-4.1 1-6-.6-22 1.9-28.1 4.5-4.5 2-8.9 7.3-11.1 13.5l-1.6 4.8-7.5.5c-12.3.9-14.8 3.9-8.3 9.9 2.1 2 3.1 2.3 6.8 1.7l4.2-.7-2.2 2.4c-1.2 1.3-2.2 2.8-2.2 3.4 0 .7-.9 1.5-2 1.8-1.6.5-1.8 1-1 2.5.6 1 1 3 1 4.3 0 1.9 1.3 3.4 5.7 6.3 3.3 2.2 7 3.8 8.7 3.9 4 0 4.6 2.7 4.6 19.4v13.3l-3.4 5.7c-3 5.1-6.8 16.7-6.7 20.9 0 1 .1 3.9.2 6.7.2 7.1-3 22.4-5.5 26-1.1 1.6-6.6 9.2-12.3 16.7-11.1 14.9-12.2 17.8-10.4 25.5 4.2 17.5 21.5 26 31.7 15.5 3.3-3.4 3.4-3.4 3.4-1.1 0 5.7-5.3 42.8-10 69.9-3.1 18.5-8 66.2-7.2 70.7l.4 2.3h103.6l-.4-3.7c-.2-2.1-.6-11.5-.8-20.8-.3-9.4-1-22-1.6-28-.5-6.1-1.7-18.2-2.5-27-3.2-33.2-4.3-51-3.4-52.6.5-1 1.2-7 1.6-13.5q.6-11.85 1.5-9.9c.7 1.6.7 1.5.3-.5-.3-1.4-.8-5-1.1-8-.4-4.3-.3-5.2.6-4 .9 1.3 1 1.2.6-.5-.3-1.1-1.2-6.3-2.1-11.5-.8-5.2-1.7-10.4-2-11.6-.3-1.4 0-2.1 1.1-2.1.9 0 1.3.6 1 1.4s-.2 1.2.3.8c.5-.3 1.2.1 1.5.7.6 1.3.1-1.6-.9-5.1-.4-1.3.1-2.3 1.4-3 1.1-.6 2.9-3.6 4-6.6s3.5-8.3 5.2-11.6c2.1-4.3 3-7.3 2.8-9.9-.3-3.2.7-5.4 5.4-13 3.1-5 5.7-9.5 5.7-10 0-1.4-30.8-24-32.8-24-1.7 0-2.1-1.1-2.9-9.8-.6-5.9-.6-10.2-.1-10.9s1.1-4.8 1.4-9.2c.3-7.1.2-8.2-1.6-9.4-2-1.4-1.9-1.5 2-4.1 4.4-2.9 4.8-3.7 2.4-5.6-1.3-1.2-1.1-1.5 1.7-2.7 4.2-1.8 2.7-3.6-4.6-5.3-3.5-.8-6-2.1-6.9-3.5-.8-1.2-3.3-4-5.6-6.3-2.3-2.2-5.4-6-7-8.5-2.1-3.3-4.4-5.2-9.1-7.6-5.8-2.9-12.9-4.2-12.9-2.3"/></svg>