<svg xmlns="http://www.w3.org/2000/svg" width="682.667" height="512" version="1.0" viewBox="0 0 512 384"><path d="M224.1 29.6c.7.8 2.9 2.4 4.9 3.4s4.2 2.6 4.9 3.4c1.2 1.4.4 1.6-7.5 1.6-15.5 0-27.5 3.6-32.6 9.8-.9 1.1-2.4 4.4-3.4 7.4l-1.8 5.3-8.5-.3c-6.4-.3-9.1 0-10.6 1.1-2 1.5-1.9 1.6 1.1 5.4 2.5 3.1 3.9 3.9 7.4 4.3 3.8.4 4.1.7 2.7 1.9-1 .7-1.7 1.9-1.7 2.6s-.6 1.5-1.4 1.8c-1 .4-1.4 1.9-1.1 4.9.2 3.9.8 4.7 5.6 8.6 3.6 2.8 6.2 4.2 7.8 4 3.7-.5 6 3.5 7.1 12.7 1.6 13.5.9 19.3-2.7 24.3-4.9 6.8-7.6 16.1-7.9 27.2-.3 12.1-2.8 24.5-5.8 28.5-1.3 1.6-5.5 6.6-9.5 11-11 12.4-12.3 14.5-12.8 21.7-1.6 20.3 17 33.8 30.7 22.1l4.1-3.5-.6 5.3c-1.3 11-5.6 39-8.9 58.4-5.1 30.5-9.6 66.5-9.6 78.2v3.3h103v-4.9c0-4.6-2.1-35.1-5.5-79.6-1.8-24.2-2.7-48.8-1.6-45.5.7 2.2.9 2 1.5-2 1.4-9.6 2.5-26.1 2-29-.4-2-.1-3.4 1-4.6 1.3-1.2 1.4-1.9.5-3-1.6-2-4.8-17.6-3.9-19.4.4-.8.6-2.2.4-3s.3-.2 1.1 1.5l1.6 3-.5-3.1c-.4-2.6 0-3.5 2.3-5.2 2.1-1.5 3.5-4 5.1-9.4 1.2-4 3.3-9.4 4.6-12 1.5-2.9 2.4-6.5 2.4-9.2 0-4.5 2.9-10.8 8.6-18.3 1.3-1.7 2.4-3.6 2.4-4.2 0-1.8-30.5-24.1-32.9-24.1-1.4 0-2.5-.9-3.1-2.6-1.5-3.8-1.2-13.1.5-16.4.9-1.7 1.2-4.1.9-5.7s0-4.9.6-7.3c1-3.7.9-4.6-.3-5.4-.8-.6-2.4-1.7-3.4-2.4s-1.2-1-.6-.7c.7.3 2.9-1 4.9-2.9 3.2-3.1 3.5-3.8 2.3-5.2-1.1-1.4-1-1.8 1.1-3.4l2.5-1.9-2.6-1c-1.4-.5-4.2-1.1-6.2-1.3-3.7-.3-5.7-2.3-19.9-19.2-3.8-4.5-11.7-8.6-16.7-8.6-2.9 0-3.2.2-2 1.6"/></svg>