<svg xmlns="http://www.w3.org/2000/svg" width="682.667" height="512" version="1.0" viewBox="0 0 512 384"><path d="M235.2 30.9c-1 .6-.2 1.5 3 3.4 2.4 1.4 5.1 3.3 6 4.3 1.6 1.8 1.4 1.9-4.8 1.6-8.9-.5-23 1.5-28.2 3.9-5 2.5-9.7 7.8-11.5 13.4l-1.4 4-6.9.5c-6.6.6-13.4 3.2-13.4 5.3 0 .5 1.4 2.2 3.2 3.9 3.2 3 5.5 3.3 10.2 1.3 1.9-.8 1.8-.6-.3 2.8-1.2 2-2 4.1-1.6 4.7.3.5-.1 1-.9 1-1.2 0-1.5 1.1-1.3 5.2.2 5.1.3 5.4 5.2 8.5 2.7 1.8 6.1 3.3 7.6 3.3 5.2 0 6.9 3.5 8 16.9l1 12.2-3 2.8c-4.1 3.9-6.6 9.7-8.7 20.4-1.4 6.9-1.5 9.5-.6 12.4 1 3.2.8 14.3-.3 19.8-.2 1.1-.4 2.5-.4 3.1-.1.6-4.1 5.7-9.1 11.2-10.2 11.6-11.5 14.6-10.8 26.2.8 13.6 6.9 21 18 21.8l6 .5-.6 3.1c-.3 1.7-1 6.9-1.6 11.6s-2.9 19.1-5.1 32c-6.7 39.8-10.9 72.9-10.9 86.2v5.8h105.3l-.7-9.3c-.4-5-2.5-26.8-4.6-48.2-6.4-64.2-7.4-76-6.5-79.1.8-2.7.9-2.5 1.7 2.5.5 3 1.1 5.7 1.3 6 1.3 1.3 1.7-1.9 1.9-14.2 0-7.4.4-13.3.8-13.1.3.2 1.2 2 1.8 4 1.9 5.7 2.2 3.3.5-4.1-.9-3.8-1.4-7.6-1.2-8.6.2-.9 0-2.4-.5-3.3-.9-1.6-.7-1.6 1-.7 1.2.6 2.3 1.5 2.7 2 .5.9 4.2.7 5.2-.2.2-.3-.3-1.1-1.1-1.9-5.1-5.2-12.9-20.8-11.2-22.6.3-.3.6.2.6 1.1s.5 1.7 1 1.7c.6 0 1-.7.8-1.7-.2-1.1.7-1.9 2.8-2.5 3.5-.9 5.5-3.4 7.4-9.3.7-2.2 3.1-7.6 5.2-11.9 3.4-6.8 3.9-8.7 3.5-12.5-.5-4.2-.1-5.2 5-13 4.4-6.8 5.2-8.6 4.1-9.6-6.5-5.7-28.9-21.5-30.5-21.5-1.2 0-2.5-.5-2.8-1-.9-1.4-2.1-1.2-3.9.6-.9.8-1.6 1.4-1.6 1.2-.6-16.5-.5-20 .7-21 .7-.5 1.1-1.4.8-1.8-.3-.5.4-3.2 1.5-6 2.6-6.6 2.5-7.2-.7-9.3-2-1.3-2.2-1.7-.8-1.3 1.1.3 3.7-.5 5.8-1.8 3.5-2.1 3.7-2.5 2.3-3.9-2-2-2-3.3-.1-4.1 3.6-1.4-.5-4.7-7.5-6-2.9-.5-4.4-1.8-8.5-7.4-2.8-3.7-5.8-8.1-6.7-9.8-4.2-7.7-17-14.5-21.6-11.5"/><path d="M280.6 198.7c-.6 1.4-.5 1.5.5.6.7-.7 1-1.5.7-1.8s-.9.2-1.2 1.2"/></svg>