<svg xmlns="http://www.w3.org/2000/svg" width="682.667" height="512" version="1.0" viewBox="0 0 512 384"><path d="M246 30c0 .5 1.9 2.2 4.3 3.9 2.4 1.6 4.9 3.7 5.7 4.6 1.2 1.5 1.1 1.5-1.6.8-5.1-1.4-24.5-.7-30.7 1.1-6.7 1.9-12.4 7-15.3 13.5-1.6 3.8-2.1 4.1-5.6 4.1-4.5 0-13.3 4.1-14.8 7-.9 1.7-.6 2.4 1.7 4.5 3.3 2.8 6 3.1 9.1.9 2.5-1.7 2.8-.8.7 2-1.7 2.3-2 5.6-.5 5.6.6 0 1 .4 1 1 0 .5-.9 1-1.9 1-2.3 0-3.1 1.8-2.1 4.5.5 1.1.6 3 .3 4.2-.4 1.8.4 2.6 4.6 4.7 2.8 1.4 6.4 2.6 8 2.6 2.9 0 3 .2 3.6 5.7.3 3.2 1.1 9.8 1.6 14.6l1.1 8.8-3.4 3.3c-4.4 4.2-5.8 8.9-6.5 20.8-.4 7.4-.2 10.6 1 13.6.8 2.1 1.8 8.5 2.2 14.3l.7 10.4-4.9 10.5c-4.6 10.1-4.8 10.8-4.8 19.5 0 7.9.3 9.7 2.9 14.6 3.4 6.8 3.6 3.6-4 54.9-6.1 41.1-9.9 71.6-10.9 86.7l-.7 10.3h55.6c30.6 0 55.6-.2 55.6-.5 0-1.6-7.3-56.2-9-67.5-6.7-43.8-8.1-56.7-8.1-70.5.1-7.7-.3-17.4-.8-21.5s-.8-7.6-.6-7.8c.1-.2 1.5 3.3 3 7.8 4.2 12.6 4.4 9.5.6-10.7-.8-4.1-.7-4.4 2.6-6.9 3.9-2.9 3.2-3.3 9.4 5.3 1.8 2.6 3.8 4.3 4.9 4.3 3.1 0 2.4-1.8-3.1-7.8-2.8-3-6.8-8.1-8.9-11.2l-3.9-5.8 5-.4c5.7-.6 8.5-2.7 9.5-7.2.3-1.7 2.4-7.6 4.6-13.1 3-7.4 3.9-11 3.6-14-.4-3.5.3-5.1 4.9-12.3 2.9-4.6 5.1-8.7 4.8-9.2s-7-5.8-14.8-11.8c-16.6-12.7-20-14-24.1-9.1-1.4 1.6-2.7 2.9-3 2.9-1 0-.6-21 .4-22.3 2.6-3.1 8-12 8-13.2 0-.7-.7-1.5-1.5-1.9-2.3-.8-1.8-2.8.5-2.1 1.7.6 8-1.8 8-3.1 0-.3-.5-1.5-1.1-2.6-.8-1.6-.8-2.2.2-2.9 2-1.2-1.5-4.7-7.4-7.4-4.9-2.3-9.1-7.8-13.6-17.9-2-4.7-8.7-11.1-13.7-13.2-3.8-1.6-8.4-1.9-8.4-.4"/></svg>