<svg xmlns="http://www.w3.org/2000/svg" width="682.667" height="512" version="1.0" viewBox="0 0 512 384"><path d="M145 1c0 .5.5 1 1.1 1 .7 0 .9 1.2.4 3.6-.5 2.8-.2 3.9 1.2 4.9 1.3 1 1.5 1.7.7 2.5-1.3 1.3.3 8.1 2.3 10.1 1.4 1.4 18.5 1.3 24.3-.2 3.7-1 .5 5.7-8.2 17.4-9.3 12.4-12.7 18.5-12.8 22.4 0 2.7 3.9 9.5 5 8.8.5-.3 2 0 3.5.7 1.9.8 2.9.8 3.7 0s1.7-.7 3.4.5c1.8 1.2 2.7 1.3 3.8.4 1-.8 1.6-.8 2.5.3s.9 3.4.1 9.8c-.9 5.8-1 17.6-.4 39.8.7 30.8.8 31.4 2.2 25.5.9-3.3 1.7-5.3 2-4.5.4 1.7 2.7 6.9 4.8 11.4.8 1.6 1.3 3 1.2 3.1-.2.2-3.5 1.9-7.4 3.8-12.6 6.3-21.8 15.3-25 24.5-.7 2.2-2.3 9.5-3.4 16.3s-3.5 17.7-5.2 24.3l-3.1 11.8-3.6-.6c-9.5-1.7-15.6-1.8-17.6-.3-1.9 1.5-1.9 1.6 1.4 10.8 5.5 15.1 5.4 16-2.7 37.1-3.8 10.1-7.5 20.1-8.2 22.3-1.8 5.7-18.5 38.5-33.3 65.6-2.6 4.7-4.7 8.9-4.7 9.3 0 .3 50 .5 111.2.4l111.2-.3-.3-6.5c-.1-3.6-.9-11.2-1.8-17-.8-5.8-1.6-17-1.6-25 0-12.6.3-15.9 2.6-24.7 5-18.8 5-18.7 5.8 10.2.6 23.4 2.9 54.8 4.5 61.1l.6 2.4h47.6c46 0 47.5-.1 45.9-1.8-2.2-2.4-2.2-3.3 0-2.5 1.3.5 1.5.3.8-1.3-.4-1-.9-4.2-1-6.9-.5-10.1-2.5-24.9-3.7-26.2-.7-.9-.8-1.7-.1-2.4 1.3-1.3.5-9.8-1.2-12.5-1-1.5-1.1-2.4-.3-3.2 1.1-1.1-.4-14.4-2.3-20.6-.5-1.6-.9-4.1-.9-5.6s-.7-3.3-1.5-4c-1.1-.9-1.2-1.7-.6-2.3.7-.7.5-2-.5-4-.9-1.6-1.4-3.8-1.1-4.8s-.3-2.9-1.3-4.2c-1.2-1.5-1.7-3.2-1.3-4.5.3-1.2.2-3-.3-3.9-.4-1-.9-2.9-1-4.2-.2-1.3-1.2-3.4-2.4-4.6-1.2-1.3-1.8-2.9-1.4-3.8.3-.9-.3-3.1-1.4-4.9s-2.2-4.7-2.5-6.4c-.9-4.7-11.4-26.4-13.2-27-.9-.4-1.3-1.3-1.1-2.3.6-1.8-4.8-11.1-6.5-11.1-.5 0-.8-.4-.4-1 .7-1.1-8.4-17-10.2-17.7-.7-.3-1-.9-.7-1.4s-.6-2-2-3.4c-1.5-1.4-2.6-3.2-2.6-3.9s-.9-2.1-2-3.1-2-2.6-2-3.6c0-1.1-.9-2.4-2-3.1s-2-2.2-2-3.3-.7-2.9-1.5-3.9c-2.3-3-1.9-7.7.6-8.3 1.7-.5 2-1.1 1.5-3.7-1.1-6.2-2.7-37.7-2.1-40.6.6-2.7.4-3-1.9-3-2.6 0-2.6 0-2.6-8.8v-8.7l5-7.8c2.7-4.2 5.2-7.7 5.5-7.7 1.3 0-.9 7.8-3.6 13l-2.9 5.5 3.6-4c1.9-2.2 4.1-5.2 4.9-6.6 2.7-5 5.5-17.3 5.5-24.2v-6.9l6.5-6.4c3.6-3.5 6.6-6.9 6.6-7.6.1-.7.2-1.8.3-2.3 0-.6 2-3.5 4.4-6.6 2.7-3.7 4-6.2 3.6-7.3s.7-3.1 3.4-6c2.2-2.4 4.6-6.3 5.3-8.5.7-2.3 1.8-4.6 2.6-5.2.7-.6 1.3-1.5 1.3-2S326.1 0 260.5 0C184.2 0 145 .3 145 1m39.9 135.7c.1 5 0 5.3-2.4 5.3-3 0-2.9 1-.8-12.5l1.8-11 .6 6.5c.4 3.6.7 8.9.8 11.7m94.1 6.7c2.4 7 2.4 7.6.6 7.6-2.4 0-3.6-2.5-4.2-9.1-.8-7.8.6-7.2 3.6 1.5m75.4 125c-.7 1.8 2.2 10.5 4.2 12.8.9.9 1.1 1.9.6 2.2s.3 5.2 2 11.3c1.6 5.9 2.9 11.9 2.9 13.2-.1 1.4.6 3.5 1.4 4.7.8 1.3 1.2 3 .9 3.9-.4.8-.1 2.9.6 4.6 1.1 2.5 1.1 3.2.1 3.9-1 .6-1 1.4.2 3.7.9 1.7 1.2 3.5.7 4.3-.6.9-2.1-1.2-5-7-2.3-4.6-5.2-10-6.5-12-1.9-3-2.7-6.9-4.5-22.8-2-17.9-2.1-19.5-.6-21.7 1.8-2.7 3.9-3.4 3-1.1"/></svg>