<svg xmlns="http://www.w3.org/2000/svg" width="682.667" height="512" version="1.0" viewBox="0 0 512 384"><path d="M270.7 29.7c-.4.4 1.6 3.1 4.5 6 2.8 2.9 5 5.5 4.7 5.7-.2.2-3-.4-6.2-1.5-3.7-1.3-10-2.2-17.2-2.6-11-.6-11.4-.5-17.7 2.4-4.9 2.3-7.3 4.2-9.8 7.7-2.9 4-3.6 4.5-5.9 3.8-5-1.4-13.9-.8-15.8 1-1.6 1.7-1.5 2 1.4 5.5 2.2 2.7 3.8 3.8 5.7 3.8 3.2-.1 3.2.2 0 2.7-2.5 2-2.5 2-.5 3.5 2.5 1.7 2 5.5-1.1 9-2.5 2.7-1.8 4.1 5.6 11l5.6 5.2v16.4c0 14.9-.2 16.5-1.9 18.1-2.5 2.3-4.5 10.7-3.7 15.7.4 2.3.7 9.5.7 16.1 0 8.4.4 12.9 1.4 14.8 1.1 2.2 1.2 4.4.5 10.6-.9 7.8-5.9 26.8-8.2 31.2-1.6 3 .3 5.2 2.8 3.1 1.5-1.2 1.6-1.1 1.1 1.6-2.1 10.5-5.3 35.5-8.7 68.5-.6 5.2-1.7 14.7-2.4 21-.8 6.3-1.8 14.2-2.1 17.5s-1.2 11.6-2 18.5c-.7 6.9-1.6 16.1-1.9 20.5-.4 4.4-.9 10.1-1.2 12.7l-.6 4.8h119.4l-.6-2.8c-.3-1.5-1.7-9-3.1-16.7-2.6-14.8-6.7-35.5-10.9-54.5-11.2-51.4-12.9-59.7-15-73-2.5-15.9-2.5-16.3.7-17.4 2.4-.9 3-.7 3.8.7 1.1 2 3.9 2.3 3.9.4 0-.6-.7-2.1-1.5-3.1-1.3-1.7-1.2-2.2.1-4.5 1.1-1.9 1.3-3.6.7-6.5-1-4.8-2.8-5.7-3.8-1.9-.7 2.6-.8 2.6-1.5.8-.5-1.1-.9-3.6-.9-5.5-.1-2-1-5.3-2-7.3-1-2.1-1.7-4.6-1.4-5.6.3-1.3-.1-2-1.2-2.3-1.3-.2-1.1-.8 1.3-3.2l3-2.8 2.7 4c3.1 4.7 7.7 7.2 13.4 7.2 8.3 0 10.5-2.5 12.1-14.3.6-3.9 1.7-9.8 2.6-13 .8-3.3 1.4-7.2 1.2-8.6-.2-1.9 1.4-5.3 5-10.9 2.9-4.6 5.2-8.6 5.2-9.1 0-.4-2.8-3-6.2-5.6-22.8-17.7-22.9-17.8-27.3-18.1-4.2-.4-4.3-.4-8.4 5.9l-4.1 6.2v-6.1c0-3.4.3-8.9.6-12.2.6-5.5 1-6.3 3.4-7.4 1.5-.6 3.9-3.1 5.5-5.5 1.5-2.4 3.3-4.3 4.1-4.3 2.3 0 2.7-2.6.9-5.3-1.5-2.4-1.5-2.4.8-2 1.3.3 4.1-.3 6.2-1.1l3.8-1.6-2.2-2.4c-2-2.1-2-2.4-.5-3 1.3-.5 1.4-.9.3-2.2-1.5-1.8-7.3-4.9-11-5.7-2.7-.7-4.9-5.6-4.9-11.3-.1-6.2-6.6-16.2-13.3-20.2-4-2.5-7.1-3.4-8-2.5"/></svg>