<svg xmlns="http://www.w3.org/2000/svg" width="682.667" height="512" version="1.0" viewBox="0 0 512 384"><path d="M282 33.3c0 .2 2.2 2.8 5 5.8 2.7 2.9 5 5.7 5 6.1s-2-.2-4.5-1.3c-6.7-2.9-16.9-4.9-26.1-4.9-6.6 0-8.9.4-13.2 2.6-2.9 1.4-6.7 4.3-8.4 6.3-3.1 3.7-3.2 3.7-6.7 2.5-3.7-1.4-13.3-1.9-14.4-.8-.3.4.5 2.8 1.8 5.4 2.3 4.6 4.7 6.6 6.5 5.5.5-.3 1.1-.1 1.4.4s-.8 1.4-2.4 2.1c-3.5 1.5-3.7 2.1-1 4.5 2.7 2.5 2.5 4.1-1 6.7-1.6 1.2-3 2.7-3 3.2 0 .6 2.4 4.8 5.4 9.3l5.4 8.2-.4 15.3c-.4 11.9-1 16.9-2.7 22.3-2.1 6.9-2.6 13.7-1.8 29 .2 4.1-.7 10.1-2.8 19-1.7 7.1-3.3 13.8-3.5 14.7-.2 1 0 1.8.5 1.8s.9-.8.9-1.8c0-.9.5-2.4 1-3.2.8-1.1 1-.4.7 2.6-.4 4.2-7.4 15.7-10.3 16.8-1.8.7-1.8 3.6 0 3.6.8 0 3.1-1.9 5.2-4.3 3.1-3.5 3.6-3.8 3-1.7-.4 1.4-1.1 6.6-1.6 11.6-.5 4.9-1.2 9.9-1.6 11q-.75 1.95.3.9c.6-.6 1.8-3.7 2.7-7 1.8-6.7 1.7-5.9-1.8 18-1.4 9.3-2.8 20.4-3.1 24.5s-1.5 15.6-2.5 25.5c-1.1 9.9-2.8 26.5-3.9 37-1.1 10.4-2.5 25.1-3.1 32.5-.5 7.4-1.3 15.2-1.6 17.2l-.6 3.8h60.6c33.3 0 60.6-.3 60.6-.8 0-1.1-6.5-32.1-9.9-47.3-1.7-7.5-6.9-29.1-11.5-48-8-32.2-11.6-49.7-11.6-56.1 0-3.7 3.8-8.2 5.6-6.7 2.3 1.9 3.7 0 2-2.6-1.4-2.1-1.3-2.4.2-3.8.9-.8 3.3-1.7 5.3-2.1 9.6-1.7 16.7-12.5 12.9-19.7-1.4-2.5-4-2.4-4 .2 0 1.8-.3 1.7-2.5-.9-1.4-1.7-2.5-3.3-2.5-3.6s2.1-.6 4.6-.6c3.6 0 5.1-.5 7.3-2.8 3-3 3.3-4.4 4.7-25.4.6-9.7.7-9.9 6-18.4 3-4.7 5.4-9.1 5.4-9.7-.1-.7-2.2-2.8-4.8-4.9-2.6-2-9-7-14.3-11.1-7-5.4-10.7-7.6-13.7-8-3.9-.7-4.2-.5-6.9 3.3-1.5 2.2-3.2 4-3.6 4-.5 0-.5-3.3-.2-7.3.8-9.7 1.3-11.7 2.8-11.7.7 0 3-2.3 5-5 3.1-4.1 4.2-5 5.9-4.4 1.9.6 2.1.3 1.5-2.9-.5-3.4-.4-3.5 3.1-4.1 6.1-1 7-2.1 4.3-5-2.1-2.2-2.1-2.5-.6-3.4 1.5-.8 1.3-1.2-1.6-3.5-1.9-1.4-5.3-3-7.6-3.6l-4.1-1.1-.7-7.8c-.9-9.9-3-14.4-9.4-21-3.9-3.9-5.9-5.2-8.2-5.2-1.6 0-2.9.1-2.9.3M298.5 182c.3.5.1 1-.4 1-.6 0-1.1-.5-1.1-1 0-.6.2-1 .4-1 .3 0 .8.4 1.1 1"/></svg>