<svg xmlns="http://www.w3.org/2000/svg" width="682.667" height="512" version="1.0" viewBox="0 0 512 384"><path d="M287 34.4c0 .3 1.8 2.6 4 5.1s4.5 5.5 5 6.5c1 1.9 1 1.9-2.3 0-5.7-3.3-18.1-6-28.2-6-8.4 0-9.5.2-13.9 3-2.6 1.7-6 4.4-7.4 5.9l-2.7 2.9-6.2-1.5c-3.4-.9-7.4-1.2-8.8-.9-2.3.6-2.6 1.1-2 3.4 1.1 4.4 3.4 7.2 6.6 7.9 2.3.4 2.7.8 1.8 1.9-.6.8-1.7 1.4-2.5 1.4-2.4 0-2.6 2.1-.5 4.4 2.8 3 2.7 3.6-1.1 6.8l-3.3 2.7 2.4 4.3c1.3 2.4 3.6 6.8 5.1 9.8l2.7 5.5-.8 16c-.5 8.8-1.6 18.7-2.4 22-1.6 6.5-1.8 9.4-1.5 20 .1 5.3-.8 10.7-3.8 22.5-2.2 8.5-4.2 17.1-4.5 19-.5 3-.4 3.2.5 1.2.6-1.2 1.5-2.2 2-2.2.8 0 .5 2.4-.9 7.5-.6 2-7 8.5-8.5 8.5-.4 0-.8.4-.8 1 0 1.6 3.8 1.2 6.7-.8 1.5-.9 2.4-1.2 2-.5-.8 1.3-1.8 16.3-1.1 16.3.3 0 .9-1 1.4-2.3.8-2 .9-2 .9-.2.1 1.1-.8 6.9-1.8 13-1.1 6-2.4 16.8-3 24-.6 7.1-1.8 19.3-2.6 27-4.6 44.5-8.5 86.7-8.5 92.7 0 1.7 3.3 1.8 60.5 1.8 34.8 0 60.5-.4 60.5-.9 0-4.4-9.2-44.5-17.8-77.7-10.1-38.8-13.9-54.7-15.5-65.2-1.2-8-1.2-9.2 0-9.2.8 0 2.6-.9 4-2s3.2-2 3.9-2c.8 0 1.4-.9 1.4-2.1 0-1.1 1-3.7 2.2-5.8 1.9-3.3 2.8-3.9 7.9-5 7.9-1.6 13.4-6.8 14.4-13.5.7-4.3.5-5.1-1.9-7.4-1.4-1.5-2.6-2.1-2.6-1.4 0 .6-.7 1.2-1.6 1.2-1.1 0-.7-.8 1.4-2.8 3.2-3 3.6-5.2 4.6-26.8l.4-9.1 5.7-8.9 5.7-8.8-3.4-3.1c-1.9-1.6-8.3-6.8-14.2-11.4-8-6.3-11.9-8.6-15.4-9.4-4.9-1-4.5-1.2-8.8 4.7-.7 1.1-1.6 1.8-1.8 1.5-.2-.2 0-4 .5-8.4.8-7.9 1-8.2 6-13.8 4.5-4.9 5.4-5.5 7.2-4.6 1.8 1 1.9.8 1.5-2.5-.3-2.9-.1-3.6 1.3-3.6.9 0 3.1-.6 4.8-1.3l3.2-1.3-2-2.6c-1.5-1.9-1.7-2.8-.9-3.6 1.6-1.6.4-2.6-7.3-6.6l-6.4-3.3v-7.4c0-6.2-.4-8.1-2.7-11.9-3.8-6.5-11.5-14-14.4-14-1.3 0-2.4.2-2.4.4"/></svg>