<svg xmlns="http://www.w3.org/2000/svg" width="682.667" height="512" version="1.0" viewBox="0 0 512 384"><path d="M299 40.1c0 .6 2 3.4 4.5 6.2 5.3 6.1 5.7 7.6 1.2 4.8-5-3.1-15.1-5.1-26-5.1-11.6 0-14.7 1.1-21.6 7.5l-4.9 4.6-6.3-.6c-4.9-.5-6.9-.3-8.4.8-1.8 1.4-1.8 1.7-.5 4.2 2.2 4.2 5.9 7.7 7.3 7 .6-.4-.4.7-2.3 2.3l-3.5 3 3.8 1.8c2 1 3.7 2.3 3.7 3s-1.6 2.5-3.5 4.1l-3.6 2.8 3.9 7.5 3.8 7.5-.8 24.5c-1 30.1-1.9 37.4-6.8 56.5-2.1 8.3-4.1 17.3-4.4 20-.7 5-.7 5 .9 2.2 1.5-2.6 3.5-2.9 3.5-.6 0 .6-.4.8-.9.5-.5-.4-.7.2-.5 1.1.3 1-.1 5.6-.9 10.3-.8 4.9-1 9.7-.6 11.4.5 1.7.2 5.6-.6 9.5-2.1 10.1-3.3 21.3-4 36.1-.7 16.4-1.9 37.7-4.5 78.5-1.1 17.1-2 31.3-2 31.7 0 .5 27.2.8 60.5.8 34.8 0 60.5-.4 60.5-.9 0-4.8-11.5-45.8-24.3-86.6-5.1-16.3-8.7-30-11.1-42.6-4-20.7-4.3-24.4-2.1-25.3.9-.3 1.5-1.8 1.5-3.8 0-3.1.3-3.4 4.6-4.4l4.5-1.1 1.4 3.4c1.9 4.5 6.3 8.9 7.7 7.5.7-.7.3-2.1-1.4-4.4-3.1-4.2-7.3-12.7-6.6-13.3.3-.3 2.8 1.3 5.7 3.6l5.1 4.1 3.1-1.9c2.1-1.2 4.5-4.4 7.3-9.6 4-7.7 4.1-7.8 7.5-7.3 2.2.3 4.6-.1 7-1.4 3.7-1.8 7.1-5 5.5-5-.5 0 .2-.7 1.4-1.6 1.2-.8 2-2 1.6-2.5-.3-.5-.1-1.5.4-2.2 1.3-1.7.8-7.5-.9-9.2-1.9-1.9-15.8-5.5-18.9-4.9-3.7.7-4.8-.6-7.4-7.8l-2.2-6.5 6.7-10.4 6.7-10.4-2.1-2.2c-4.6-4.5-28.1-22.1-29-21.6-.4.3-2.2-.1-3.8-.8-2.4-.9-2.9-1.7-2.5-3.3.3-1.2.6-2.8.6-3.7 0-2.1 7.8-10.9 9.5-10.9.7 0 1.5.7 1.9 1.5 1.1 2.9 2.6 1.5 2.6-2.5 0-3.5.3-4 2.3-4 1.3 0 3.1-.6 4.1-1.3 1.6-1.2 1.6-1.4-.2-3.7-1-1.4-2.2-3.7-2.6-5.3-.5-1.9-2.2-3.6-6.1-5.8l-5.5-3.1v-6.9c0-8.6-2.9-14.9-10-22-4.5-4.5-9-6.4-9-3.8"/></svg>