<svg xmlns="http://www.w3.org/2000/svg" width="682.667" height="512" version="1.0" viewBox="0 0 512 384"><path d="M143 .9c0 .5.7 1.7 1.6 2.6 1.1 1.1 1.4 2.4.9 4.2-.5 2.1-.1 3.1 1.7 4.5 2.1 1.7 2.2 1.9.5 2.9-1.4.8-1.5 1.4-.5 3.2.7 1.2 1.1 2.7 1 3.3-.4 2 2.7 3.7 7.1 3.6 2.3 0 6.5-.1 9.3-.1s6.3-.5 7.9-1.1l2.8-1.1-.6 4.6c-.5 3.5-2.5 7-8.6 15.8-7.8 10.9-12 18.6-12.1 21.7 0 2.5 5.1 9.4 6 8 .5-.8 1-.9 1.4-.1.4.6 2.6 1.1 4.9 1.1 8.5 0 8.9.2 8.3 3-.4 2.3-1.3 16.1-3.5 55.5-.5 8.2-.7 15.2-.5 15.4.9.9 3.7-8 6-18.8 2.3-11 4.9-20.8 3.9-15.1-.6 3.7-.5 31.5.1 39l.5 6.5-5.3 2.6c-7.7 3.9-13.2 8.2-17.7 13.9-4.7 5.9-6.3 10.9-9.1 27-1.9 10.9-5.7 26.4-7.8 32.1l-1.1 2.6-5.3-1.4c-6.7-1.7-13.4-1.9-15.2-.4-1.2 1-.8 2.9 2.5 12.9 2.1 6.4 3.9 12.4 3.9 13.4 0 1.1-2.9 9.2-6.4 18.1s-7.6 19.6-9.1 23.7c-3.9 10.4-22.2 46.7-37.2 73.8l-3.5 6.2h224.4l-.6-9.3c-.3-5.1-1.3-13.8-2.1-19.3-2.2-14.9-2-36.6.6-47.5 1.1-4.9 2.4-9.1 2.8-9.4.4-.2 1.1 10.7 1.4 24.3.6 23.4 2.7 52.5 4.2 58.4l.7 2.8h47.4c51.7 0 50.7.1 47-5.5-1.9-2.9-2-3.9-.4-2.9.8.5.9 0 .3-1.7-.4-1.3-.7-3.5-.7-4.9.1-1.4-.3-5-.9-8-.5-3-1.2-8.1-1.5-11.4-.3-3.2-1.2-6.9-2-8.1-1.1-1.7-1.2-2.4-.3-2.7 1-.3 1-1.6 0-5.9-.7-3-1.3-6.5-1.3-7.9 0-3-2.8-19.9-3.6-22-.3-.8-.7-2.8-.9-4.5-.3-1.6-.9-3.5-1.5-4.2-.5-.7-.7-1.7-.3-2.3s0-2.2-.9-3.5-1.6-4-1.6-5.8c0-1.9-.6-4-1.4-4.7-.8-.6-1.3-1.7-1-2.5.7-1.8-2.6-11.8-4.4-13.2-.8-.7-1.2-2.1-.9-3.2.2-1.1-.5-3.4-1.6-5.3-1.1-1.8-2.2-4.3-2.3-5.5-.1-1.3-1.6-4.9-3.2-8-1.6-3.2-3.9-8.2-5.2-11-1.3-2.9-3.3-6.2-4.6-7.4-1.2-1.2-2.1-2.6-1.8-3.3.2-.6-1.2-3.5-3.1-6.4-1.9-3-3.5-5.7-3.5-6.1s-2.4-4.4-5.4-8.9-5.8-9.1-6.1-10.2c-.4-1.1-1.5-2.5-2.6-3.1-1.1-.5-1.7-1.4-1.5-1.8.3-.4-.4-1.8-1.5-3-1.2-1.2-2.2-2.9-2.3-3.6-.1-.8-1.3-2.6-2.6-4s-2-2.5-1.6-2.5c.5 0 .1-1.1-.8-2.5-.9-1.3-1.6-4.5-1.6-7 0-4.1.2-4.5 2.5-4.5 2.6 0 3.2-.9 1.5-2.6-.5-.5-1-10.5-1.2-22.1l-.3-21.3h-2.3c-2.2 0-2.3-.3-2.1-7.2.2-7.8 2.3-12.8 8.8-21.8l3.3-4.5-.7 4c-.4 2.2-2 6.5-3.6 9.4l-2.9 5.5 3.1-3c1.6-1.6 4.4-5.8 6.1-9.4 2.8-5.7 3.2-7.8 3.6-17.3.4-10.3.6-10.9 3-12.5 3.9-2.5 10.7-10.2 10.7-12.1.1-1.7 1.9-4.6 6.4-10.2 1.2-1.6 2-3.6 1.7-4.4-.3-.9.8-3.1 2.8-5.3 4-4.4 6.9-9.9 6.1-11.2-.4-.6.1-1.3.9-1.6s2.4-2.1 3.5-4l2-3.4H258.5C188.1 0 143 .4 143 .9m129.3 143.8c.8 2.4 1.1 4.3.7 4.3-1.4 0-4-4.9-4-7.7 0-3.5 1.4-2.1 3.3 3.4M349.8 273c1.3 3.3 2.7 6 3.2 6 .4 0 .6.9.3 1.9-.3 1.1.3 4.6 1.2 7.8 2.7 8.9 3.6 12.5 4.1 16.3.3 1.9 1.2 4.2 2 5.1 1 1.1 1.2 1.9.5 2.4-.8.4-.8 1.2 0 2.7.6 1.2 1.1 3.8 1.1 5.9-.1 2.2.5 4.5 1.3 5.2.9 1 1 1.8.3 3.1-.9 1.6-2.2-.3-7.9-11.5-6.4-12.4-7-14.1-7.9-22.4-.5-5-1.5-12.7-2.1-17.3-1.7-12.6.1-15 3.9-5.2"/></svg>