<svg xmlns="http://www.w3.org/2000/svg" width="682.667" height="512" version="1.0" viewBox="0 0 512 384"><path d="M305.5 35.9c-.3.6 2 3.8 5 7.2s5.4 6.4 5.2 6.6-2.4-.8-4.8-2.1c-6.1-3.5-15.9-5.6-25.7-5.6-9.9 0-15.5 2.2-22 8.7-3.4 3.4-4.8 4.2-6.7 3.7-3-.7-12.8 2-14.5 4.1-1.1 1.4-.7 2.2 2.6 5.6 2.3 2.4 4.4 3.7 5.3 3.4.8-.3.3.5-1.2 1.9-3.4 3.2-3.4 3.5.3 4.8 3.7 1.2 3.4 3.6-1.3 8.5-3.3 3.6-3.6 2.8 3.1 10.8 2.9 3.4 3.2 4.5 2.7 7.5-.4 1.9-.7 14.7-.6 28.5.1 27.1-.7 34.3-5.9 56-1.6 6.7-3.1 14.6-3.4 17.6-.5 5.2-.5 5.3.9 2.4.8-1.7 1.5-2.6 1.5-2 .7 4.6.4 11.3-.6 18.3-.7 4.5-1.1 8.9-.8 9.7.3.7-.1 5.8-.9 11.2-1.9 12.1-2.5 18.6-3.7 43.3-.6 10.7-1.7 28.7-2.5 40s-1.7 24.1-1.9 28.5c-.3 4.4-.8 12.8-1.2 18.7l-.7 10.8h59.2c32.5 0 59.1-.4 59.1-.8 0-1.9-5.1-26.5-7.4-35.7-2.8-11.1-9.1-34-15.9-57.5-4.9-17.1-10.3-45.4-11.3-60.2-.6-8.7-.5-9.5 1.2-10.1 1.1-.4 2.4-.9 3.1-1.3.6-.3 1.6.9 2.3 3 1.4 4.4 4.7 8.6 6.6 8.6 1.2 0 .9-1-1-4.3-1.3-2.3-3.6-7.9-5-12.5s-3.2-9.5-4-11c-1.4-2.9-1-10.2.6-10.2.5 0 3.7 1.3 7.1 2.9s9.5 4.3 13.4 5.9l7.3 3.1 1.2-2.2c.7-1.2 2.1-5.8 3.3-10.2l2-8 5.5-.5c3-.3 6.8-1.4 8.4-2.5 8.4-5.6 8-24.5-.5-24.5-.5 0-.9.7-.9 1.6 0 1.4-.2 1.4-2.2 0-2.9-2.1-10.8-2-15.1 0-2.6 1.3-4.4 1.4-7.2.8l-3.7-.9 6.1-9.3c3.4-5.1 6.1-9.8 6.1-10.5-.1-.7-4.4-4.6-9.7-8.7-5.2-4.1-11.6-9.2-14.2-11.3-2.5-2-5.6-3.7-7-3.7-2.2 0-2.3-.3-1.9-5 .7-7.3 8.1-16.1 11.1-13.1 2.4 2.4 4 1.2 3.3-2.3-.7-3.4-.6-3.5 4-4.8l4.6-1.3-2.1-2.7c-1.2-1.4-2.1-3.3-2.1-4.1 0-1.8-7.5-8.7-9.4-8.7-3.2 0-4.4-4.1-3-10.6 1.1-5.8-8.6-21.3-15.7-25-3.3-1.7-3.6-1.7-4.4-.5"/></svg>