<svg xmlns="http://www.w3.org/2000/svg" width="682.667" height="512" version="1.0" viewBox="0 0 512 384"><path d="M307.5 33.9c-.3.5 1.1 2.7 3 4.8 5 5.3 7.8 9.3 6.6 9.3-.5 0-1.2-.4-1.5-.9-1.1-1.8-9.4-5-16.9-6.5-15.4-3.2-23.5-1.5-32.5 6.9-5.6 5.2-6.1 5.4-9.2 4.5s-5.6-.6-13.2 1.6c-2.5.7-2.3 2 1.4 6.5 2.7 3.4 3.7 4 6.1 3.6l2.9-.4-3.8 3.3-3.9 3.2 2.8 1.3c3.6 1.6 3.5 4.4-.3 7.7-1.6 1.5-3 3.1-3 3.6 0 .6 1.9 3.9 4.3 7.5l4.4 6.6-.9 27.5c-.5 15.1-.9 31-.8 35.3.1 5.4-1.1 14-3.9 28.2-3.8 19-5.3 30.5-2.9 21.2.6-2.2 1.6-3.7 2.5-3.7 1.3 0 1.4 1 .8 6.2-.5 3.5-.9 11.7-1 18.3s-.7 15.1-1.4 19c-.6 3.8-1.8 18.2-2.6 32-.8 13.7-2.6 40.7-4 60-1.4 19.2-2.5 36.9-2.5 39.2v4.3h115.7l-2.3-12.7c-3.9-22-9.6-46.5-17.9-76.8-4.9-17.8-11.5-57.2-11.5-68.1v-6.9l3.5-1.1 3.4-1.1 1.7 5.1c1.8 5.6 4 8.6 6.1 8.6 1.8 0 1.6-1.4-.6-5.8-1-2-3.3-8.1-5-13.6-1.7-5.4-3.5-10.3-4-11-1.4-1.7-1.7-9.4-.4-10.7.9-.9 2.2-.3 5.3 2.4 3.3 3.1 4.7 3.7 8.3 3.7 2.3-.1 5.2-.6 6.4-1.3 5.8-3.3 8.9-12.3 5.8-17-1.9-3-1.7-7.1.5-7.4 7.1-.9 9.2-1.7 13.3-5.4 2.9-2.5 4.4-4.5 4-5.5-.3-.8 0-2 .6-2.8 1.8-2.2.2-9.1-2.9-12.6-2.8-3.2-6-4-6-1.6 0 2.5-1.8 2.8-5 .9-3.2-1.8-3.7-2.8-2-3.8.6-.3 1-1 1-1.5 0-.8-23.1-19.4-28.7-23.2-1.4-.9-3.2-1.4-3.9-1.1-1.1.4-1.4-.7-1.4-4.8 0-5.1.3-5.7 5.4-11.4 4.4-4.8 5.7-5.8 6.7-4.8 2.2 2.2 3 1.4 2.4-2-.6-3.2-.5-3.4 3.4-4.6 4.6-1.3 4.8-1.7 2.6-4.8-.9-1.2-1.4-2.7-1.3-3.3.4-1.5-8.8-8-11.2-8s-4.8-6.6-3.1-8.3 1.3-4.7-1.5-10.7c-3-6.5-8.6-13.5-12.8-16.1-3.5-2.1-4.2-2.3-5.1-1m-58.8 169.3c-.3.8-.6.5-.6-.6-.1-1.1.2-1.7.5-1.3.3.3.4 1.2.1 1.9"/><path d="M248.1 207.6c0 1.1.3 1.4.6.6.3-.7.2-1.6-.1-1.9-.3-.4-.6.2-.5 1.3"/></svg>