<svg xmlns="http://www.w3.org/2000/svg" width="682.667" height="512" version="1.0" viewBox="0 0 512 384"><path d="M306.7 31.7c-.4.3 1.5 2.9 4.2 5.7 2.6 2.9 5.3 6.2 6 7.4 1.1 2 .8 2-3.5-.8-7.2-4.5-14.5-6.3-25.9-6.4-11.6-.1-15.8 1.5-23.5 9-4.3 4.2-4.7 4.3-8 3.4-1.9-.6-4.9-1-6.6-1-3.5 0-9.4 1.8-9.4 2.9 0 .4 1.6 2.7 3.7 5 3.4 4 3.9 4.3 7.5 3.7 2.1-.3 3.8-.5 3.8-.3s-2 1.7-4.5 3.3c-4.9 3-5.7 4.9-2.5 5.9 3 .9 2.5 3.6-1.2 6.7l-3.3 2.7 2.2 3.8c1.2 2.1 3.6 6.4 5.3 9.6l3.1 5.8-1 17.3-1 17.4-3.3 4.7-3.3 4.7v12.1c.1 12.7 1.2 17.1 4 16.1 2-.8 2-1.1-2.5 21.5-4.3 21.5-4.8 25.6-2 17.1 1.1-3 1.9-4.7 1.9-3.7.1 1 .6 1.5 1.1 1.2.7-.4.9.2.5 1.7-1 4.5-2.5 19.3-2.4 23.8.1 4.2.2 4.3 1 1.5.5-1.9.6.2.4 6-.3 5.9-.2 8.3.4 7 .9-1.8 1-1.8 1 .6.1 1.4-.3 8.4-.9 15.5-.5 7.1-1.7 23-2.5 35.4s-2.4 34.6-3.5 49.5c-1.1 14.8-2 29.1-2 31.7v4.8h56.1c52.9 0 56-.1 55.5-1.8-.2-.9-.7-4.4-1.1-7.7-1-9.2-7-40.3-13-67.5-5.7-26-11-59.6-12.1-77.1l-.7-10.7 3.2-.7c1.7-.3 3.3-1.1 3.6-1.6 1.2-1.8 2.3-.8 3.9 3.5 2.1 5.4 5.2 9.6 7.2 9.6s1.8-2.4-.4-4.3c-1.7-1.5-4-6.1-11.1-22.1-3.1-6.9-4-12.9-2.1-14.1.6-.4 2.6.7 4.5 2.3 9 8 20.3 3.6 21.3-8.1.3-4.5 0-6.1-2.1-9.3-1.3-2.2-3.7-6.4-5.2-9.3l-2.7-5.4 3.9-5.6c2.2-3.1 5.3-8 6.9-10.9l2.9-5.2-3.4-2.8c-21.1-16.8-28.5-22.1-29.6-21.2-1.8 1.5-3.5-.9-3.5-5.3 0-4 3.2-9.6 8.6-15 2.1-2.1 3.4-2.7 5.1-2.2 2.3.5 2.4.4 1.8-2.8-.7-3.3-.5-3.5 2.9-4.1 4.2-.8 5.3-2.1 3.4-4.4-.8-.9-2-2.9-2.7-4.3s-3.6-3.9-6.4-5.5c-6.2-3.6-9.4-8.3-7.6-11.2 2.7-4.3-3-15.3-12.6-24-4.3-4-6.4-5-7.8-3.5"/><path d="M246.2 251c0 1.4.2 1.9.5 1.2.2-.6.2-1.8 0-2.5-.3-.6-.5-.1-.5 1.3"/></svg>