<svg xmlns="http://www.w3.org/2000/svg" width="682.667" height="512" version="1.0" viewBox="0 0 512 384"><path d="M306 31.1c0 .6 2.5 3.8 5.5 7.2 3 3.3 5.5 6.4 5.5 6.8 0 .5-2.1-.5-4.7-2.1-6.5-4-16.1-6.3-26.3-6.4-10.5 0-15.9 2.1-22.8 9.1-4.6 4.8-4.8 4.8-8.2 3.6-4.5-1.5-10.7-1.5-14.2 0l-2.8 1.2 3.6 4.5c2.8 3.5 4.3 4.5 6.7 4.7 1.8.1 3.6.2 4.1.2.5.1-.9 1.3-3 2.7-5.3 3.6-5.8 4.6-2.9 6.2 3.4 1.7 3.1 3.2-1 6.5l-3.6 2.9 2.7 4.6c8 13.9 8.1 14.3 7.6 30.6l-.4 14.8-3 1.7c-5.6 3-7.9 5.3-10.3 10.2-2.9 5.6-3.1 9-1.1 16.2.8 2.9 2 7.1 2.6 9.4 1.1 4.3 1.1 4.3 5.5 4.3 2.9 0 4.5.4 4.5 1.2 0 .7-1.8 9.8-4 20.1-4.3 20-5.2 28.4-2.1 18.7 1.6-5 1.8-5.2 2.3-2.8.3 1.6.1 2.8-.4 2.8s-.6 1.5-.3 3.2c.4 1.8-.1 8-.9 13.7-1.9 12.5-1.9 13.7 0 9.1 1.4-3.4 1.4-3.2.9 4-.3 4.1-.8 9.1-1 11l-.5 3.5 1.2-3.5 1.2-3.5.8 7c1.4 11.3 1.4 12.6-3.7 80-1.3 17.6-2.6 35.9-2.9 40.7l-.6 8.8h110v-2.8c0-6.8-6.9-46.9-13.5-79.2-3.5-16.5-8.9-55.5-10.1-72.6l-.7-9.1 3.3-1.7c1.8-.9 3.5-1.6 3.6-1.6.2 0 1.6 2.4 3 5.2 3.1 6.2 5.2 8.8 7.1 8.8 2 0 1.6-2.4-.8-4.6s-5-7.1-10.4-19.7c-4.7-11-5.6-14.9-4-17 1-1.4 1.5-1.3 4.7 1.3 6.7 5.5 13.6 6.6 18.3 2.8 5.3-4.1 7.2-13.3 3.7-17.9-2.6-3.4-8.2-14-8.2-15.6 0-.7 3-5.8 6.7-11.3 4.4-6.7 6.3-10.4 5.6-11.1-.5-.5-7.4-6.1-15.4-12.5-10.6-8.5-15-11.4-16.6-11.1-1.3.3-2.9-.4-3.9-1.4-2.4-2.7-1.1-7.4 4-14.2 4.9-6.5 8.1-9.3 9.1-7.7 1.4 2.2 2.6.9 2-2.3s-.5-3.4 3.4-4.7c4.7-1.5 4.9-2 2.1-4.5-1.1-1-1.7-2.1-1.5-2.5.6-1-4.3-5.8-7.6-7.6-1.5-.7-3.9-2.8-5.3-4.5-2.3-2.7-2.6-3.7-2-7.4.9-6.2-2.2-12.3-10.5-20.6-6.4-6.4-10.1-8.5-10.1-5.8"/></svg>