<svg xmlns="http://www.w3.org/2000/svg" width="682.667" height="512" version="1.0" viewBox="0 0 512 384"><path d="M143.1 1.7c.8 1 1.9 2.1 2.4 2.5.6.5.5 1.5-.4 3-1.2 2-1.1 2.4 1 4.1 1.7 1.4 2 2 1 2.6-.9.6-1.1 1.6-.5 3.2.9 2.6 1.1 3.4 1.3 4.9.2 1.4 7.9 3.2 10.4 2.4 1.2-.4 4.5-.8 7.2-.9 2.8-.1 5.8-.5 6.8-.9 1.4-.7 1.7-.3 1.7 2-.1 4.7-2.2 9.4-8.7 18.9-10.6 15.9-12.4 21.3-8.4 26.4 1.6 2.1 2.8 2.5 8 2.7 7.6.2 9.3 1.4 8 5.6-.4 1.7-1.8 12.8-2.9 24.7s-2.5 24.3-3 27.6c-.6 3.3-1 7.1-1 8.5l.1 2.5 1.5-2.8c.9-1.6 3.2-8.3 5.1-15s3.8-12.4 4-12.7c.5-.5.3 3.7-1.3 36l-.6 12.1-3.9 2c-2.2 1.1-6.8 4.8-10.3 8.2-7.4 7.2-8.4 9.7-12 29.7-2.6 13.7-7.2 31.6-8.7 33.6-.7.8-2.2.8-5.7-.1-8.9-2.3-12.6-2.7-14.5-1.3-1.6 1.2-1.5 2 2.4 13.9l4.1 12.5-6 15c-3.2 8.2-7.4 18.9-9.2 23.9-3.6 9.9-24.3 52.1-36.3 73.7L67.2 384h224.6l1.2-3.6c1.4-4.1.8-12.7-1.7-26.9-1.9-10.5-2.4-45.5-.7-49.4.8-1.7 1.3 5 2.3 26.5.6 15.9 1.8 34.3 2.6 40.9s1.5 12.1 1.5 12.2c0 .2 21.5.3 47.8.3h47.9l-.2-4.8c-.1-2.7-.5-5.4-1-6.1-.4-.7-.9-4.2-1.1-7.8-.2-3.5-.9-8.3-1.4-10.6-.6-2.3-1.3-6.6-1.5-9.5-.3-3-1.2-6.7-2-8.2-.8-1.6-1.1-3.1-.6-3.4 1-.6-.4-9.1-1.9-11.8-.5-1-.7-2.3-.5-3 .3-.7-.4-5.6-1.6-10.8-3.8-17.2-5.3-23-6.8-25.8-.7-1.2-.9-2.7-.5-3.3.3-.6-.3-2.3-1.4-3.8-1.3-1.7-1.8-3.7-1.5-5.3.3-1.4 0-2.9-.6-3.2-.6-.4-1.1-1.6-1.1-2.6s-1.1-3.2-2.5-4.8c-1.5-1.8-2.3-3.7-1.9-4.6.3-.9-.1-2.8-1.1-4.2-.9-1.4-1.9-3.7-2.1-5.1-.7-3.5-11.2-24.3-13.7-27.1-1.1-1.2-1.7-2.2-1.3-2.2.9 0-2.3-5.8-4.8-8.8-1.1-1.2-2.1-3-2.2-3.9-.2-.9-1.9-3.9-3.8-6.8-2-2.8-3.6-5.4-3.6-5.8 0-.3-2.5-4.3-5.5-8.7s-5.5-8.5-5.5-9c0-.6-.8-1.8-1.8-2.8-2.3-2.3-3.8-7.6-3.8-13.2.1-4.2.3-4.5 2.8-4.8s2.7-.6 1.7-2.3c-.7-1.3-.9-9.4-.7-23 .3-20.6.3-20.9-1.8-20.9-1.8 0-2.1-.7-2.3-6.1-.2-6.5.9-9.1 8.7-20.4l3.4-5-.6 3.9c-.3 2.2-1.9 6.2-3.6 8.9l-3 4.9 2.9-2.4c6.4-5.1 11.4-18.9 11-30.6-.2-5.4.1-6.8 1.6-7.6C339 49.5 347 41 347 39.4c0-1 1.8-4.1 4-7s4-6.4 4-7.7.9-3.2 2.1-4.3c3.2-2.9 5.7-6.8 6.3-9.6.2-1.3 1.8-4 3.5-5.9 1.7-1.8 3.1-3.7 3.1-4.1 0-.5-51.4-.8-114.1-.8-108.6 0-114.1.1-112.8 1.7m203.5 275.8c.1 1.1 1.4 6 2.9 11 1.5 4.9 3.1 10.8 3.5 13 .5 2.2 1.3 4.1 1.9 4.3.8.3.9.8.2 1.6s-.5 2.1.5 4.1c.8 1.7 1.2 4 .9 5.3-.4 1.6 0 3.1 1.1 4.3 1 1.1 1.4 2.2 1.1 2.6-.9.9-.7 1.3-7.7-12.5l-6.2-12.3-1.9-15.2c-1-8.4-1.9-15.9-1.8-16.7 0-2.1 5.3 8 5.5 10.5m-177 11.7c-1 13.4-2.7 19-2.1 6.8.6-10.2 1.4-16 2.2-16 .3 0 .3 4.2-.1 9.2"/></svg>