<svg xmlns="http://www.w3.org/2000/svg" width="682.667" height="512" version="1.0" viewBox="0 0 512 384"><path d="M302 29.4c0 .8 2.6 3.5 5.8 5.9 8.8 6.8 9.3 7.9 2.2 5.1-13.8-5.6-31.3-5.3-41.8.7-4.5 2.6-12.3 10.7-13.4 14-.3.9-1.3.9-4 0-5.5-1.8-15.6-.4-19.1 2.7-1.7 1.5-1.5 1.8 2 5.4 3.7 3.8 3.9 3.9 9.3 3.2l5.5-.6-4.6 3.5c-4 3.1-4.5 3.9-4.1 6.6q.45 3-1.8 6c-2.8 4-2.2 5.7 4.8 12.8 10.3 10.5 10.2 10.2 10.2 25.5v13.4h-8.2c-5.9 0-9.3.4-11.7 1.7q-5.1 2.55-5.1-.6c0-1.6-4-5.3-7.3-6.8-1.5-.7-2.7-1.8-2.7-2.6 0-.7-1.1-1.9-2.5-2.5s-2.5-1.4-2.5-1.8c0-1.3-3.8-1.8-4.8-.8-.6.6-3.2 1.2-5.9 1.3-2.8.2-6.8 1.3-9.7 2.9-2.7 1.4-5.5 2.6-6.3 2.6-3.3 0-14.1 6.7-19.3 11.9-4.2 4.2-5.9 6.8-6.8 10.2-2.6 10.3 4 19.8 16.4 23.5 8 2.4 23.7 1.9 33.5-1.2 4.6-1.4 10.2-2.8 12.4-3.1 4.1-.5 4.1-.5 6.5 4.7 2.7 5.8 6.9 9.8 11.1 10.7 1.8.3 3.2 1.5 4 3.5.7 1.7 2.4 4.4 3.8 6.1 2.3 2.7 2.4 3 .6 2.5-1.1-.3-2.6-.7-3.4-.9-1.1-.3-1.4.6-1.2 3.8.2 3.5-.8 6.3-5.9 16.2-3.5 6.6-7.8 13.8-9.6 16-4 4.6-4 4.7-1.5 5.4 2.9.7 3.6-.2 7.5-8.6 1.9-4.2 3.9-7.7 4.4-7.7.4 0 2.1 1.3 3.7 3 3.3 3.4 3.5 7 1 17.6-.8 3.6-1.5 8.4-1.5 10.7s-.4 5.6-.9 7.3-1.2 6-1.5 9.5c-.9 7.9.3 6.6 4-4.3 1.4-4.3 2.8-7.8 3-7.8.3 0 .4 2.4.4 5.3-.3 10.2 1.2 37.3 2.3 40.7 1 3.4 1.1 3.4 1.8 1 1.5-5.1.9 5.4-1.1 21.5-2.8 22.1-6.9 52.3-7.6 56.3l-.6 3.2H359v-2.6c0-2.5-3.1-23.6-7.1-48.4-6.3-39.6-5.7-35.1-9.9-69-3.3-26.5-4-30.9-7.2-47.3-2.1-10.7-2.1-10.8-.2-12.8 1.9-1.9 2-1.9 5.6 1.1 10.4 8.6 22 5.9 24.8-5.9 1.1-4.8 1.1-5-3.9-15.4-2.8-5.7-5.1-11-5.1-11.7s3.2-6.2 7-12.1c3.9-5.9 7-11.4 7-12.2s-7.5-7.4-16.6-14.7c-12.8-10.2-17-13.1-18.7-12.6-1.2.2-3.1-.2-4.1-1-1.7-1.2-2.2-1.2-3.8.3-1.7 1.5-1.8 1.3-1.8-5.5 0-6.9.2-7.4 3.7-11.3 2-2.2 5.6-5.1 7.9-6.5l4.3-2.5-1.5-4.1c-.8-2.2-1.4-4.2-1.4-4.4s2.1-.3 4.8-.1c4 .2 4.7-.1 5-1.8.4-3.1-9.1-15.1-13-16.4-2.8-.9-3.7-2.1-5.5-7-1.3-3.2-2.3-7.3-2.3-9 0-1.8-.5-4.2-1.1-5.4C321 36.4 302 23.5 302 29.4"/></svg>