<svg xmlns="http://www.w3.org/2000/svg" width="682.667" height="512" version="1.0" viewBox="0 0 512 384"><path d="M307.2 28.2c.2.7 2.9 2.6 6 4.3 3 1.6 6.3 3.6 7.2 4.4 2.5 2.1 1.9 3.4-1.1 2.6-16.8-4.4-40.3.4-47.7 9.8-10.1 12.7-13.1 15.5-16.3 15.6-4.8.1-12.8 2-14.9 3.5-1.7 1.3-1.7 1.6.9 5.5 2 3 3.4 4.1 5.2 4.1 1.4 0 2.5.4 2.5.9 0 1-2.1 2.9-3.5 3-1.7.2-1.2 14.2.5 16.2 4.2 4.8 13.2 11.7 14.8 11.2 1-.2 2.6.5 3.6 1.6 1.6 1.8 1.8 3.1 1.2 9.8-.3 4.2-1.1 10.5-1.7 14-1.1 6.3-1.2 6.4-4 5.8-3.2-.7-16.3 3.3-20.7 6.3-4.3 2.9-19.8 8.1-21.3 7.1-1.3-.8-13.6-5.8-35.6-14.3-9.8-3.8-20.6-5-21.6-2.4-.3.7-.6.1-.6-1.4-.1-1.5-.6-3-1.2-3.4-1.9-1.1-6 1.9-6.6 4.8-.3 1.7-1.2 2.8-2.2 2.8-2.8 0-6.1 3-6.1 5.6 0 2 .5 2.4 2.9 2.4 1.7 0 3.2.4 3.5.9.3.4-2 5.9-5.2 12.2-5.8 11.5-9.2 22.8-9.2 30.4 0 4.8 3.1 10.2 6.3 11 1.3.4 12.3-1.7 24.7-4.6 22.9-5.3 25-5.5 44-4.8 6.9.2 13.2-1.2 26.4-6.2 7.4-2.7 8-2.8 9.7-1.3 1.4 1.3 1.7 2.6 1.2 5.9-.8 6.4.3 10.7 4.4 16 2.1 2.8 3.1 5 2.5 5.4-.5.3-1.2 2.8-1.5 5.6-.3 2.7-1.2 7.5-2.2 10.5-.9 3-1.8 7.5-2 10-.5 6.5-2.4 17.5-3.6 20.6-.7 2.1-.6 3.1.4 4.1 2.5 2.6 4.1-1.2 4.7-10.9.3-4.8.8-8.8 1.3-8.9.4 0 2.5.6 4.7 1.2 4.1 1.3 8.6.2 12.2-2.8 1.3-1.2 2.1-1.2 3.8-.3 1.8 1 2.1 1.8 1.6 4.3-.3 1.8-1.3 11.7-2.1 22.2-1.8 21.5-2.7 28.4-5.6 40.5-1.8 7.9-19.2 70.1-20.5 73.5-.5 1.3 6.4 1.5 63.3 1.5h63.8l-1.2-14.2c-.6-7.9-1.7-21.3-2.3-29.8-2.8-41-5.1-55.2-15.8-97.2-4.7-18.6-5.4-22.3-3.8-20.6 2.7 2.9 9.5 5.8 13.6 5.8 4.8 0 10.2-4.5 12.4-10.4 1.6-4.3 1.6-5.1.2-11.5-.9-3.8-1.9-10.7-2.2-15.4l-.7-8.6 7-10.8c3.9-5.9 7.5-11.8 8.2-13 1-2.1 0-3.1-17.1-16.8-15.8-12.7-18.5-14.5-20.9-14-2.5.6-2.7.3-3.3-3.2-1.2-8.1-1-12.9.7-15.3.9-1.4 1.7-3.9 1.7-5.8 0-1.8 1.1-5.9 2.5-9.2 3.2-7.7 3.2-10-.5-13.5-3.6-3.4-3.8-4.5-.8-4.5 3.2 0 10-5 9.3-6.8-.3-.8.2-2 1.2-2.7 1.5-1.1 1.4-1.4-1.6-2.9-1.8-1-5.8-2.1-8.9-2.7-4.5-.7-6.1-1.5-7.7-3.6-1.1-1.5-3.7-4.7-5.7-7.1-2.2-2.5-3.8-5.4-3.8-6.8 0-3.8-8.4-11.7-15.3-14.3-6.5-2.4-12.1-2.8-11.5-.9m-31.3 193c-.2 7.3-.5 14.1-.7 15-.6 2.5-2.1 2.2-3.1-.5-.5-1.2-2-5-3.4-8.4-2.1-5.1-2.3-6.2-1.1-6.7.8-.3 1.4-1.9 1.4-3.7 0-3.3 3.6-8.8 5.8-8.8 1.1-.1 1.3 2.6 1.1 13.1"/></svg>