<svg xmlns="http://www.w3.org/2000/svg" width="682.667" height="512" version="1.0" viewBox="0 0 512 384"><path d="M309.5 29c-.3.6.8 1.8 2.5 2.8 12.5 6.8 15.4 10 7.8 8.5-7.2-1.4-23.8-.8-29.8 1-7.5 2.2-14.3 6.8-17.9 11.9-3.5 4.9-3.7 5.1-8.5 9.7-2.9 2.7-4.9 3.5-11.1 4.6-7.5 1.3-10.5 2.7-10.5 4.8s5.2 7.7 7.1 7.7c2.7 0 1.9 2.2-1.3 3.8-2.4 1.1-2.6 1.5-1.7 4.5.5 1.7.9 4.8.9 6.9 0 3.2.7 4.3 6.8 9.7 4.2 3.9 7.4 6.1 8.7 5.9 3.3-.4 4.5 1.1 4.5 5.4 0 4.4-2.8 24.7-3.6 26-.3.5-1.3.4-2.3-.1-1.9-1.1-16.8 3.4-21.3 6.3-4.1 2.7-20.8 7.7-22.6 6.7-1.9-.9-22.3-8.6-40.5-15.2-6.5-2.3-9-2.7-14.8-2.4-5.5.4-7.1.1-7.5-1-.6-1.6-4.1-2-6.1-.7-.6.4-1.4 1.8-1.8 3.2s-2.1 3.4-3.8 4.5c-4.2 2.7-4.3 5.8-.2 6.5 4.3.7 4.2 3-.3 12.9-6.1 13.1-7.4 17.8-8 27.4-.4 8.2-.3 9 1.8 11.3 1.3 1.3 3.1 2.4 4 2.4.8 0 10.5-2 21.4-4.5 27.4-6.1 34-7.1 41.8-5.8 8.8 1.4 17.5.2 31.1-4.2 8-2.7 12-3.6 12.7-2.9s.7 2.6-.1 6c-1.4 6.3-.1 11.7 4.6 17.9 1.9 2.5 3 4.5 2.5 4.5-.6 0-1 1.5-1 3.2 0 1.8-.9 5.1-1.8 7.3-1.7 3.7-2.7 7.5-6.7 25-.9 3.8-2.3 8.4-3.2 10.2-1.5 3.3-1.1 5.3 1.1 5.3 2.5 0 3.7-2.8 4.8-11.8l1.1-9 2.3 1.5c1.3.8 3.8 1.4 5.6 1.4 1.8-.1 4.4-.2 5.8-.2 1.4-.1 3.6.2 4.9.6 2.1.7 2.2.6 1.2-1.3-.6-1.1-.7-2.3-.3-2.6 1.1-.7-.2-9.9-2.2-15.4-1.4-3.9-1.4-4.6-.1-6.5.8-1.2 1.5-3.3 1.5-4.8 0-1.9 1.2-3.7 4.4-6.3 2.4-2 4.7-3.6 5-3.6.9 0 .7 21.4-.4 32-.5 5.2-1.4 16.9-2 26-1.3 20.3-5 43-9.4 58.7-3.9 13.5-16.5 55.9-17.3 57.9-.4 1.2 9.8 1.4 63.2 1.4h63.7l-.6-3.8c-.3-2-1.2-14.5-2.1-27.7-2.3-35.9-3.4-49-5.1-59.5-1.2-7.3-13.1-57.4-16-67.2-.4-1.3.6-1.1 4.8 1.2 6.5 3.6 11.3 3.8 15.9.7 7.3-4.8 7.9-9.4 4.4-31.4l-1.7-11.3 8.1-12.5c4.5-7 8.1-13.4 7.9-14.3-.3-1.5-13-12.2-29.6-24.9-5.5-4.3-7.5-5.4-8.4-4.5-.7.7-1.4 1.2-1.7 1.2-.7 0-.4-17.7.3-22.5.2-1.7 1.8-6.5 3.5-10.8s3.1-8.4 3.1-9.2-1.4-2.8-3.2-4.4c-1.8-1.7-3-3.2-2.8-3.4.3-.2 3.1-1.6 6.4-3 4.5-2.1 5.7-3.1 5.2-4.3-.4-1 .1-2.2 1.1-2.9 1.5-1.1 1.4-1.4-1-3-3.3-2.1-9.5-4.4-12.2-4.5-1.3 0-3.5-2-6-5.5-2.2-3.1-5-6.2-6.2-7-1.6-1.1-2.3-2.5-2.3-4.7 0-2.5-1.1-4.2-4.9-7.9-6.6-6.4-19.6-11.1-21.6-7.9"/></svg>