<svg xmlns="http://www.w3.org/2000/svg" width="682.667" height="512" version="1.0" viewBox="0 0 512 384"><path d="M310.5 27c-1 1.6.2 2.7 6.6 6.1 3.3 1.8 6.5 4.1 7.1 5.2.9 1.7.8 1.9-.8 1.2-3.5-1.4-20.1-1.8-27-.6-13 2.3-21.7 8-26.2 17.2-2.8 5.8-7.5 9.4-14 10.8-6.3 1.3-13.2 4.7-13.2 6.4 0 .7 1.4 2.9 3 4.9 2.1 2.6 3.6 3.5 4.8 3.1 1.2-.5 1.1.1-.7 2-1.4 1.5-3.1 2.7-3.9 2.7-.9 0-1.2.6-.7 1.7.4 1 1.2 4.5 1.9 7.8 1.2 5.9 1.4 6.1 8.7 11.3 4.8 3.5 8 5.1 9.3 4.8 1.8-.5 1.9 0 1.3 8.2-.6 7.9-3.3 24.1-4.3 25.1-.2.2-1.3-.4-2.4-1.4-1.9-1.7-2.2-1.7-8.7.4-3.8 1.2-9.5 3.4-12.8 5.1-3.3 1.6-9.6 4-14.1 5.3l-8.1 2.4-26.8-8.9c-14.8-4.8-28.2-8.8-29.7-8.8-1.6 0-4.3.7-6 1.6-2.2 1.1-3.3 1.3-4.1.5-.6-.6-2.1-1.1-3.4-1.1s-2.3-.5-2.3-1c0-1.4-5.4-1.2-6.8.2-.7.7-1.2 1.9-1.2 2.8 0 .8-1.4 2.8-3 4.4-3.3 3.1-2.8 5.2 1.3 5.8 1.7.2 2.4 1.3 3.1 4.5.7 3.5.5 5-1.4 8.9-7.6 16.4-10.6 33.8-6.5 38.4 2.3 2.5 1.5 2.6 23-2.3 8.3-1.9 20.6-4.5 27.4-5.7 11-2.1 13.1-2.2 20.1-1.1 10 1.5 18.5.2 33.8-5.1 6.3-2.1 11.7-3.6 12-3.4.3.3 0 3.7-.7 7.4-1.1 6.2-1 7.3.8 12.2 1.1 2.9 3 6.3 4.1 7.5 1.8 1.9 2 2.7 1.1 4.3-.6 1.2-1.1 3-1.1 4.2 0 1.1-.7 3.1-1.4 4.3-.8 1.2-3.6 8.9-6.1 17.2-2.6 8.2-5.6 16.2-6.7 17.8-2.2 3.1-1.4 5.2 1.8 4.5 2-.4 3.8-4.5 5.4-13l1.1-5.8 2.9 1.5c1.6.8 3.8 1.5 4.8 1.5 1.1 0 2.7 1.1 3.6 2.5 2.2 3.3 4.6 3.3 4.6-.1 0-1.5 1-3.4 2.3-4.4 1.8-1.5 2.2-2.7 2-6.7-.1-2.6-.8-6.6-1.6-8.9-1.4-3.7-1.3-4.6.5-9.9 1.2-3.5 3-6.6 4.6-7.9 1.5-1.2 3.7-3.1 4.8-4.4l2.2-2.2.6 4.5c.8 4.7.5 10.4-2 48.5-2.3 35.2-5.3 50.7-17.4 91.1-5 16.6-9.3 30.5-9.6 31s26.3.9 63 .9H373v-2.8c0-1.5-.5-8.1-1-14.7s-1.1-17.2-1.5-23.5c-2.1-39.4-3.6-50.7-10.6-77.9-2.8-10.8-5.9-23.9-6.8-29.2l-1.8-9.7 5.1 2.4c6 2.8 9.5 3 14.2.8 7-3.3 9.3-10.9 7.1-23-.9-4.3-1.8-10.9-2.2-14.5l-.7-6.5 8.6-13.4c4.8-7.4 8.5-13.9 8.3-14.4-.4-1.2-3.6-3.8-23.1-19.1-10.2-8-13.4-10-15.8-9.8l-3 .1.7-12.6c.5-9.4 1.2-13.9 2.7-17.2 5.4-12 5.2-10.7 1.8-14.2-3.6-3.6-3.3-5.6 1-6.4 1.7-.4 3.3-1.1 3.6-1.5.3-.5 1.4-.9 2.5-.9 2.2 0 2.4-1.1.7-2.8-.9-.9-.8-1.5.8-2.7 1.9-1.5 1.8-1.6-.9-4-1.5-1.3-5.1-3.2-8-4-4.4-1.3-5.7-2.3-8.7-6.7-1.9-2.8-4.7-6-6.2-7.1s-2.8-2.9-2.8-3.9c0-3.9-4-9.6-8.7-12.6-7.9-5.1-16.4-7.5-17.8-5.2"/></svg>