<svg xmlns="http://www.w3.org/2000/svg" width="682.667" height="512" version="1.0" viewBox="0 0 512 384"><path d="M309.7 23.7c-1.4 1.4-.5 2.3 5.2 5.4 8.5 4.5 12.6 9.6 5.7 6.9-4.1-1.5-21.2-1.2-28.6.6-11.6 2.7-17.9 7.7-23.4 18.5-3.4 6.8-5.9 8.7-14.4 10.9-4 1-11.2 6.2-11.2 8.1 0 .4 1.4 2.4 3.1 4.4 3.3 3.8 3.3 6.3-.1 7.2-2.4.6-2.4.4-.5 6.2.8 2.5 1.7 5.7 2 7.1.3 1.8 2.6 3.9 7.7 7.2 4 2.6 8.1 5 9.2 5.4 1.7.6 1.8 1.5 1.3 8.3-.7 11.3-3.8 26.1-5.3 26.1-.7 0-2.2-1-3.3-2.2l-2-2.1-7.3 2.3c-4 1.2-9.3 3.3-11.8 4.7s-9.2 4-15 5.8l-10.4 3.3-5.6-2c-3-1-16.2-4.8-29.4-8.4-24.5-6.7-27.4-7-32.1-3.8-2.1 1.5-5.7 1.9-6.8.7-.4-.3-3-1.4-5.9-2.4-6.1-2.2-7-1.8-9.2 5.2-1.7 5.1-1.5 6.9.8 6.9.7 0 2 1.6 2.9 3.5.9 2 2.4 3.8 3.2 4.1 2.1.9 1.9 1.9-2 10.9-4.3 10-8 25.2-7.1 29.9 1.2 6.2 1.5 6.2 24.3 1.2 35.2-7.7 42.2-8.9 48.3-8 12.8 1.8 26.8-.4 44.7-7.1 7.5-2.9 9-2 6.8 4-2.5 7.1-1.5 14.3 2.9 20.8 2.3 3.4 2.4 3.8 1.2 8.5-.7 2.7-2 5.9-2.9 7.3-.9 1.3-3 6.4-4.8 11.4-1.7 4.9-4.6 12.2-6.5 16.2-4 8.4-4.1 9.5-1.1 9.1 1.8-.2 2.7-1.8 5-8.9l2.8-8.6 3.9 1.9c3.6 1.8 3.8 2.1 3 4.9-.7 2.4-.5 3.1 1.2 4 1.6.8 2.2.7 3.4-.8.7-1 1.4-2.8 1.4-4 0-1.6 1-2.7 3.5-3.7 4.3-1.8 5-4.5 3.4-12.2-2.2-10.7-.9-17.3 4.3-21.3 1.8-1.4 4.6-3.8 6.2-5.4l2.9-2.8-.6 19.3c-1.6 51.8-6.5 83.7-19.6 127.1-4.5 14.8-8.1 27.3-8.1 27.8s25.8.9 63.5.9H372l-.4-2.3c-.3-1.2-.7-8.5-1.1-16.2-1.2-27.9-3.6-61.2-5-70-.9-5-3.6-17.1-6-27-3.7-15.3-7.4-39-6.1-40.2.1-.2 1.6.3 3.2 1.2 1.6.8 5.3 1.5 8.2 1.5 4.8 0 5.8-.4 8.7-3.3 4.5-4.5 6-10.2 4.6-18.1-.6-3.4-1.5-10-2.1-14.8l-1-8.6 9-13.8c4.9-7.5 9-14.3 9-15s-2.6-3.2-5.7-5.6c-5.7-4.3-18.1-13.8-27.7-21.2-3.2-2.4-5.6-3.6-6.9-3.2-1.8.4-1.9-.1-1.6-8.7.2-5.1-.1-10.7-.5-12.5-.6-2.7-.2-4.3 2.8-9.6 4.2-7.6 4.4-9.5 1.2-12.5-3.5-3.3-2.4-5.5 3.5-7.1 5.2-1.4 5.5-1.9 3.9-5.1-.8-1.5-.7-1.9.4-1.9 5.4 0 .8-5.9-7.5-9.7-3.2-1.5-6.2-3.6-6.7-4.8-.6-1.2-3.5-4.8-6.5-8.1-3.1-3.4-5.7-7.3-6.1-9.1-.9-4.1-7.2-9.8-14.3-12.9-5.2-2.3-10.3-3.1-11.6-1.7"/></svg>