<svg xmlns="http://www.w3.org/2000/svg" width="682.667" height="512" version="1.0" viewBox="0 0 512 384"><path d="M298.7 9.7c-1.4 1.3-.5 2.1 5.6 5 5.6 2.7 9.7 5.8 8.6 6.6-.2.2-6.1.8-13 1.4-20.9 1.8-32.3 7.2-38.1 17.9-2.4 4.4-3.4 7.4-5.2 15.7-.6 2.7-.7 2.7-6.2 2.1-5.5-.7-5.6-.7-9.9 3.6-3.8 3.7-4.4 4.8-4.3 8.4 0 2.3.4 4.6 1 5.3 1.1 1.3-1.6 7.3-3.3 7.3-.6 0 .1 1.4 1.5 3 1.4 1.7 3 4.9 3.6 7.1s1.9 4.3 2.8 4.6 4.7 2.4 8.5 4.7l6.7 4.1v7c0 6.6-1.3 20.9-2.6 30.2-.5 3.4-1 4.3-2.6 4.3-2.6 0-10.1-2.2-10.8-3.1-.8-1.1-20.2 5.6-21.5 7.5-.7.9-1.7 1.6-2.2 1.6-.6 0-6.8 1.8-13.8 4.1-11.6 3.7-13.1 4-17.4 3-4.9-1.1-12.3-2.2-48.1-7.2-17.8-2.4-24.2-2.9-30.5-2.4-8.2.7-14.5 2.6-14.5 4.4 0 2.2-11.8-1.1-13.5-3.9-.5-.8-4.5-.2-4.5.7 0 .2.9 2.1 2 4.3 2 3.9 7.8 8.6 13.5 10.8 2.4 1 17.2 4.2 19.2 4.2.8 0-.1 4.1-4.6 21.3-2.2 8.7-4.1 17-4.1 18.4 0 2.3.3 2.4 2.7 1.8 11.6-3 34.6-8.2 48.8-11.1 15.6-3.2 17.9-3.4 28.5-2.9 13.1.8 17.5 0 38.9-6.4 7.4-2.3 13.7-3.9 13.9-3.6.3.3 0 2.4-.7 4.6-1.3 4.3-.6 5.8 2.6 5.9 2 0 2.3 1.5 1.2 5.5-1.4 5.1.3 11.6 4.7 17.6 4 5.5 4.2 7.8 1 11.6-1.3 1.5-3.2 4.6-4.3 6.8-1.2 2.2-3 5.8-4.2 8-1.1 2.1-2.1 4.8-2.1 6 0 2.2-3.1 7.8-6.2 11.2-2.2 2.3-1.8 5.3.5 5.3 1.8 0 6.4-6 7.9-10 .5-1.7 1.4-3 1.9-3 2 0 2 3 0 7.6-2.6 5.9-2.6 7 0 8.5 2.7 1.4 3.3.6 4.9-7.2 1.2-5.5 1.5-5.9 4.1-5.9 4 0 7.9-1.7 7.9-3.4 0-.8.5-1.8 1.1-2.2.9-.5 1 .6.5 4.2-.3 2.7-1 11.2-1.5 18.9-.9 12.6-7 52.7-10.5 68-.8 3.3-3.4 12.7-5.8 21l-4.4 15 64.4.3c35.5.1 64.7 0 65-.3.3-.2-.2-9.8-1.1-21.2-.9-11.5-2.1-27.3-2.7-35.1-.6-7.9-1.6-16.9-2.2-20-1.2-6-1.8-59.3-.7-58.6.4.2.9 1.7 1.3 3.4.3 1.7 1 2.9 1.5 2.6s.7.4.5 1.6c-.2 1.3-.1 1.7.2.9.4-.9 1.3 0 2.4 2.5l1.8 3.9.1-3c.1-3.1-1.5-15.1-2.5-19-.5-1.9-.1-2.3 2.8-2.9 4.4-.8 9.5-5.8 12.4-12.1 3-6.4 3-7.9-.5-15.6-1.6-3.5-3.4-8.2-4.1-10.5l-1.2-4.1 12.1-18.1c6.6-10 12.1-18.4 12.1-18.6 0-.3-9.7-6.9-21.5-14.7L351 130.7l-.2-13.1c-.4-29.4.5-51.1 2.4-53.3.5-.7.7-2.6.3-4.2-.6-2.8-.4-3 2.9-3.7 2-.3 3.6-1.2 3.6-1.8 0-1.8-3.8-5-9-7.6-2.5-1.3-4.9-3-5.4-3.8-2-3.4-8.9-10.2-14-13.7-3.8-2.6-5.6-4.5-6-6.5-.8-4.2-6.7-9.5-13.1-11.9-5.4-2-12.5-2.8-13.8-1.4m-24.8 122.4c1.5 6.5 1.6 7.9.4 9.5-2.3 3.1-3.1.1-3.1-11 0-5.6.2-9.2.5-8.1s1.3 5.4 2.2 9.6M104 159c1.1.7.1.9-3.5.9-4.4-.1-4.6-.2-2-.9 1.7-.4 3.2-.8 3.5-.9.3 0 1.2.4 2 .9m150.1 85c-1 2.5-1 2.5-1.2-.5-.3-4.5.2-10.9 1-12 1-1.7 1.3 9.9.2 12.5"/></svg>