<svg xmlns="http://www.w3.org/2000/svg" width="682.667" height="512" version="1.0" viewBox="0 0 512 384"><path d="M139.6 1.5c.4.8 1.1 1.5 1.6 1.5.6 0 .8 1.2.4 3-.4 2.3-.1 3.3 1.4 4.2 1.4.9 1.6 1.6.9 2.5-1.3 1.5-.3 6.7 1.6 8.3 1.6 1.3 5.2 1.5 16.9.8l7.8-.5-.6 4.1c-.4 2.6-3 7.5-7 13.7-7.2 10.7-11.6 19-11.6 21.5 0 2.7 4.1 8.6 5.6 8 .7-.3 1.6 0 2 .5.3.6 1.8.9 3.3.6 4.5-.9 8.1.3 8.1 2.7 0 2.8-3.6 26-6.6 42.5-1.4 7.3-2.3 13.5-2 13.8.5.5 3-5 7.1-15.7 3.5-9.2 4.5-10.6 3.4-4.7-.4 2.5-2 14.6-3.4 26.9-2.6 21.7-2.7 22.4-5.3 24.3-10.5 7.6-13.9 14.3-17.2 33.5-1.8 10.9-5.5 25.9-7.9 32.3-1 2.5-1 2.5-6.8 1.1-7.6-1.8-13.2-1.8-13.9 0-.3.8 1 6.3 3 12.3 4 12.4 4 12.2-1.9 27.3-2 5.2-5.6 14.9-8 21.5-5 13.9-17.7 40.5-34.6 72.6C69.4 372.6 64 383 64 383.4c0 .3 68.4.6 152 .6 132.8 0 152-.2 152-1.5 0-.8.9-1.9 2-2.5 2.2-1.2 4.7-.3 7 2.4.7.9 2.1 1.6 3.2 1.6 1.7 0 1.9-.5 1.3-3-.5-2.5-.4-2.9.9-2.4 1.4.5 1.6-.1 1.1-4.2-.3-2.7-.7-6.6-.9-8.6-.2-2.1-1.1-4.9-2-6.3-1-1.5-1.2-2.5-.5-2.5s.8-.7.4-1.8c-.4-.9-1.3-4.6-2-8.2-3-14.9-4.2-19.6-5-21-.6-.8-1-3.4-1.1-5.6-.1-2.3-.9-5.6-1.8-7.4-.8-1.8-1.3-3.7-1-4.2.7-1-3.1-17.1-4.7-20-.5-1-.9-2.6-.9-3.6s-.6-2.7-1.4-3.7c-.8-1.1-1.2-2.5-.9-3.2.3-.6-.2-2.2-1.1-3.5-.9-1.2-1.6-3.4-1.6-4.9s-.7-3.2-1.5-3.9c-.9-.7-1.5-2-1.4-2.9.4-2.9-2-9.7-4.1-11.6-1.3-1.1-1.8-2.5-1.4-3.7.3-1.1-.3-2.9-1.5-4.4s-2.1-3.5-2.1-4.5c0-2.4-10.7-23.6-13.2-26.1-1-1-1.6-2.3-1.3-2.7.3-.5-1.1-3.2-3-6.1s-3.5-5.6-3.5-6.1-1.3-3.1-3-5.7c-1.6-2.7-3-5.8-3-6.8 0-3.4-5.6-13.8-9.4-17.3-3-2.9-3.6-4.2-3.6-7.7 0-8 1.2-13.4 2.9-13.4 1.4 0 1.6-2.4 1.4-22.2-.2-21.3-.3-22.3-2.1-22.1s-1.9-.3-1.4-6.9c.4-6.4 1-8.1 5.4-15.5 2.7-4.6 5-8.3 5.2-8.3 1 0-1.5 8.5-3.7 12.6l-2.7 4.9 4.1-4.5c6.2-6.7 8-11.8 8.8-24 .6-9.9.7-10.5 3.1-11.7 3.3-1.5 11-9.4 11-11.2 0-1.6 3.7-7.8 6.2-10.3 1-1 1.8-2.7 1.8-3.8s1.6-4 3.5-6.6c1.9-2.5 3.5-5.5 3.5-6.6s1.6-4 3.6-6.4l3.6-4.4h-111c-98.4 0-111.1.2-110.6 1.5M172 153.1c0 .9-.7 2-1.6 2.3-1.3.5-1.5.2-1-1.6.3-1.3.6-3 .6-3.8 0-1.3.1-1.3 1 0 .5.8 1 2.2 1 3.1m-2 125.6c0 12.9-.5 16.9-3.5 31.7-3.2 15.4-4.5 20.4-4.5 16.5.1-8.8 4-50.8 5.6-59.7 1.4-7.3 2.4-2.3 2.4 11.5m169.2 10c.5 1.1.8 2.7.5 3.5-.7 1.8-2.8-3.8-3.3-8.7l-.4-4 1 3.5c.6 1.9 1.6 4.5 2.2 5.7"/></svg>