<svg xmlns="http://www.w3.org/2000/svg" width="682.667" height="512" version="1.0" viewBox="0 0 512 384"><path d="M293.3 29c-3.4 1.4-2.8 2.9 2.1 5s8.4 6 6.3 7.1c-.6.4-4.8 1.7-9.2 2.8-18.9 5.2-27.2 12.6-29.9 27-.7 3.8-2.1 7.8-3.1 8.7-1.6 1.6-13.9 6.6-16 6.5-.5 0-2.1-.3-3.5-.6-2.2-.6-2.7-.2-3.8 2.7-1.7 4.8-1.6 13.3.2 14.8.8.6 2.8 1 4.3.8 2.5-.3 2.9.1 3.7 3.4.8 3.2 1.3 3.7 3.2 3.2s2.8.2 5.5 4.6 3.5 5.1 5.5 4.6c3.1-.8 4.4 1.7 5.1 10.2.5 6.4-1.2 32.6-2.3 35.6-.3.8-2.6 1.7-5.5 2.1-2.7.4-4.9 1-4.9 1.4 0 2.8-52.1 9.1-59 7.1-6-1.7-9.5-1.1-10.2 2-.4 1.7-1.1 2.5-5.6 6.2-3.1 2.6-3.6 2.7-11.2 2.1-7-.5-8-.4-8 1.1 0 2.4 3 5 9.4 8.1 4.4 2.2 5.6 3.2 5.6 5.1 0 3.7 3.7 12.6 6.9 16.4 5.3 6.5 17.5 11.4 24.3 9.7 1.4-.4 6.6-4 11.7-8.2 5.2-4.2 10.3-8.1 11.5-8.7 2.1-1.2 22.5-3.9 23.8-3.2.3.2-1.1 5.5-3.3 11.6-6.6 19.1-5.4 26.3 6.2 37.6l6 5.9-1.6 6.3c-.9 3.5-1.4 7.3-1.1 8.6.8 3.1-.4 8.4-1.9 8.4-1.9 0-2.5 4.9-2.5 21.9 0 19.9-3.3 59.3-5.8 69.4l-1.9 7.7h106.4l.7-13.3c.8-15.4 1.4-18.9 2.9-18.4.7.2 1.5 2.2 2 4.5.5 2.4 1.2 4 1.7 3.7s1.2.4 1.5 1.6c.4 1.2 1.2 1.8 2.1 1.5.8-.3 1.4-.1 1.4.4s1.1 2 2.4 3.5l2.3 2.5.7-3.1c.3-1.7.6-4.8.6-6.9 0-5.8 1.1-10.4 2.1-8.8.5.7.9 2.3.9 3.6 0 1.2.9 3 1.9 3.9 1.1.9 1.7 2.3 1.4 3.2-.4 1 .2.7 1.5-.7 1.1-1.3 2.3-4.5 2.7-7.3.7-4.8 2.5-7.9 4.7-7.9.7 0 .9 1.6.5 4.2-.3 2.3-.3 5.5 0 7.2.6 2.8.7 2.6 2.4-2.5l1.7-5.4.2 6.5.1 6.5 1.4-4.5c.8-2.5 2.6-10.1 4-16.9 3.5-17.4 3.4-28.6-.5-46.4-3.3-15.1-3.4-16.1-2.1-15.3.5.4.7-.4.4-1.6l-.6-2.3 2.6 2.4c1.5 1.4 2.9 2.2 3.3 1.9.8-.9-3.3-14-7.7-24.3-3.5-8.3-12.4-33.3-13.6-38q-.45-2.1 8.7-18c9.9-17.4 10.8-19.8 9-22-.7-.8-6.3-4.4-12.5-8-12.6-7.3-12.5-7.1-12.5-20 0-3.3-.5-9.8-1-14.4-.8-5.9-.8-8.7 0-9.5 1.7-1.7 1.2-8.5-1-11.4-2.9-4-6.1-17.9-5.3-23.9 1.3-11.2-3.9-24.5-13.2-33.8-7.1-7.2-13.1-10.5-24.4-13.8-7.5-2.1-8.7-2.9-11-6.2-4.1-6-14.2-9.8-19.8-7.5m-2.6 123c2.7 0 4.5 3.1 4.1 6.8-.2 2.3-1.2 3.1-6.1 5-3.2 1.2-6.2 2-6.7 1.7-.6-.3-1-4.9-1-10.1v-9.5l3.7 3c2.1 1.7 4.8 3.1 6 3.1"/></svg>