<svg xmlns="http://www.w3.org/2000/svg" width="682.667" height="512" version="1.0" viewBox="0 0 512 384"><path d="M292.1 30.9c-1.9 1.2-.6 2.9 3.7 4.7 3.4 1.3 8 6 7 6.9-.2.3-4.4 1.6-9.3 3-11.3 3.3-19.7 7.8-24 12.7-3.7 4.3-6.5 13-6.5 20 0 4.2-.3 4.7-4 7.2-2.2 1.4-4 3-4 3.5 0 1.6-8.4 4.1-12.1 3.5-3.3-.6-3.7-.4-4.9 2.6-1.7 4.2-1.6 11.9.3 13.7 1.2 1.2 1.9 1.3 3.6.3 3-1.5 5.1.2 5.1 4.2 0 1.8.4 2.7 1.1 2.3 2.2-1.4 5.9.7 9 5.1 2.6 3.8 3.5 4.5 5.5 4 2.1-.6 2.5-.1 3.5 3.6 1.3 5 1.7 27.8.6 36-.7 4.8-1.2 5.7-3.3 6.2-1.3.4-5.7 2.2-9.7 4.2-8.7 4.2-17.1 6.4-25.2 6.4-3.3 0-9.7.5-14.2 1.1-5.7.8-9.4.9-12.2.1-3.7-.9-4.5-.7-8.4 1.9-2.4 1.5-5.8 4.6-7.6 6.9-3.1 3.9-3.3 4-9.6 4-3.5 0-6.7.4-7 1-1.3 2.1 4.6 8 9 9.1 4 1 4.4 1.4 5.4 5.4 1.6 6.5 6.8 13.2 13.5 17.3 5 3.1 6.8 3.7 11.5 3.7 5.4 0 5.9-.2 16.1-7.9 11.9-8.9 12.2-9.1 20.8-10 7.1-.8 7.1-.7 4.3 6.2-4.2 10.4-5.1 13.3-5.2 18.4-.3 7.1 2.4 12.8 9.5 20.2 3.1 3.3 5.6 6.3 5.6 6.8s-.7 1.9-1.5 3.2c-.9 1.3-2 4.6-2.4 7.2-.5 2.7-1.6 8.9-2.4 13.9-2.1 12.2-2.6 25.5-1 25.5 1.7 0 1.7 2.6-.7 29.6-1.7 19.7-3.3 30-5.6 37.6-.5 1.7 2.5 1.8 52.5 1.8H352v-8.3c0-4.5.3-11.3.7-15.1.6-6.3.7-6.6 1.9-4.5l1.3 2.4.1-2.8c0-1.7.4-2.6 1.1-2.2.6.4.8 1.3.5 2.1s-.2 1.4.3 1.4 1.3-2.1 1.7-4.7l.9-4.7 1.9 7.4c2 7.5 5.2 12.2 6.8 9.7.5-.8.8-.8.8-.1 0 .6 1.1 2.3 2.4 3.8 3.1 3.6 3.6 2.2 3.6-9.5 0-4.9.4-8.9.8-8.9.5 0 1.4 1.8 2.1 3.9.6 2.2 1.7 5.1 2.5 6.6 1.2 2.3 1.5 2.4 2.8 1.1.8-.8 1.8-4.2 2.1-7.6.8-7.1 2.6-11.5 2.7-6.3 0 1.7.5 3.5 1 3.8.6.3 1 2.1 1 4 0 4.8 2 5.6 2.1.8 0-3 .2-3.4.9-1.8.6 1.3.9 1.5.9.5.1-1.3.2-1.3 1.1 0 .6.8.8 3.3.5 5.5-.9 7.4 1.3-.9 3.5-13.2 3-16.6 2.8-34.7-.6-50-1.4-6.5-2.7-13.7-2.9-16l-.3-4.2 2.3 2.7c1.3 1.5 2.7 2.4 3.1 2 .9-1-3-14.1-6.9-23.3-1.6-3.9-4.2-11.1-5.7-16-1.5-5-4.6-13.9-6.9-20l-4-11 7.8-14c4.3-7.7 8.1-15 8.5-16.2.8-2.5-1.6-4.6-13.1-11.2-4-2.3-7.4-4.5-7.7-5-.8-1.2-3.6-34.2-3.6-41.6 0-3.4-.6-6.9-1.3-8-2.2-3.2-5.6-19-6.6-30.6-1.1-12.8-4.1-20.1-11.2-27s-20.8-13.5-32.1-15.4c-2.1-.3-3.8-1-3.8-1.5 0-1.9-5.7-7.4-9.5-9.1-4.2-2-11.1-2.5-13.4-1m1.1 123.1c1.8 0 3 .9 4.4 3.5 1.1 2.2 1.5 3.8.9 4.3-1.7 1.5-11.8 5.2-12.4 4.6-.3-.3-.8-4.3-1.1-8.8l-.5-8.3 3.1 2.3c1.7 1.3 4.2 2.4 5.6 2.4"/></svg>