<svg xmlns="http://www.w3.org/2000/svg" width="682.667" height="512" version="1.0" viewBox="0 0 512 384"><path d="M290.6 30.9c-.7 1 1.1 2.6 4 3.5s8 6.4 6.8 7.5c-.5.4-3.8 1.6-7.4 2.6-9.7 2.6-19 7.1-23.3 11.3-4.5 4.4-7.4 11.7-8.3 20.9-1.2 12.4-9.7 21.6-19.1 20.6-4.1-.5-4.2-.5-5.4 3.5-.6 2.3-.9 5.6-.5 7.6.6 2.9 1.1 3.6 3.1 3.6 1.3 0 2.7-.5 3-1.1 1-1.6 4.5 2 4.5 4.6 0 1.8.4 2.1 2.6 1.7 2.1-.4 3.4.5 7.5 4.8 3.1 3.3 5.4 5 6.4 4.6.8-.3 1.9.2 2.4 1.3 2.5 4.5 4.1 35.4 2.2 42.1-.4 1.5-2.4 3.4-5.3 5-10.6 5.8-12.6 7-13 7.7-.9 2.2-8.9 4.4-23.8 6.6-11.1 1.7-17.1 2.2-18.3 1.5-1.7-.9-7.2 1.6-11.7 5.4-2.2 1.8-5 6.5-5 8.2s-5 3.6-9.7 3.6c-3.2 0-3.3.1-2.2 2.2.7 1.3 1.2 2.4 1.1 2.5-1.3 1.9 4 5.3 8.3 5.3 2.1 0 2.9.8 4.4 4.2 2.7 6.2 9.3 13.2 15.3 16.2 9 4.5 12.3 3.5 25.3-7.4 10.5-8.8 12.4-10 15.7-10h2.7l-2.6 6.2c-3.1 7.6-4 16.1-2.3 21.2.7 2.1 3.4 6.7 6.1 10.2 2.7 3.6 4.9 6.9 4.9 7.4s-.9 2.4-1.9 4.2c-2.9 5-8.7 23.2-10.5 32.8-.8 4.7-1.8 9.5-2.1 10.7-.6 1.8-.4 2.1 1.3 1.6 1.1-.2 2.3 0 2.7.7.5.8 1.2.6 2.6-.6 1.8-1.6 1.9-1.6 2.6.2 1.1 2.9-2.6 48.1-4.8 57.9-1 4.9-1.9 9.3-1.9 9.7s23.9.8 53 .8h53.1l-.3-18.5c-.2-10.2 0-18.5.3-18.5.4 0 1.4 2.1 2.4 4.7 2.5 6.6 4.6 9.7 5.6 8.2.5-.8.8-.6 1.1.7.5 2.2 2.8-4.6 2.8-8.6.1-1.6.7-.5 1.9 3.1 2.3 7.2 6 14.9 7.2 14.9.5 0 .9-1 .9-2.3.1-2 .2-1.9 1.7.8 1.8 3.2 3.8 5.5 4.9 5.5.4 0 .4-6 .1-13.3-.6-14.3-.6-14.3 4.4-.2 1.6 4.4 2.8 7 2.9 5.7 0-1.3.4-2 1-1.7.6.4 1.1-.8 1.2-2.7.1-1.8.2-4.7.3-6.4s.5-4.4.9-5.9c1-4 2.6-1.4 2.6 4.2 0 2.3.5 4.5 1 4.8.6.3 1.1 1.6 1.1 2.8.2 4.2 1.7-3.5 1.8-9.7.1-7 .8-7 1.6-.1.3 2.8.9 7.2 1.3 10 .7 4.6.8 4.8 1.5 2.1.4-1.5 1.6-8.7 2.6-16 2.5-17.3 1.5-33.1-3.2-53.9l-3.4-14.8 3.5 3.3 3.4 3.3-.7-3.5c-.4-1.9-2.5-8.7-4.7-15s-5.4-16.2-7.2-22-5.1-15.6-7.4-21.8c-2.3-6.3-4.2-12.9-4.2-14.8 0-2.1 2.2-7.9 6.2-15.8 5-10.1 6-12.7 5-13.9-.7-.8-4.8-3.5-9.1-6l-7.8-4.6-1.2-11.3c-.6-6.2-1.4-14-1.7-17.3-1-10.4-4.3-28.7-6.5-36-1.2-3.9-2.5-11.7-2.9-17.5-1-13.4-4.2-21.1-12-28.9-6.7-6.7-18.9-12.8-29-14.5-6.6-1.1-7.4-1.5-10.7-5.4-1.9-2.4-4.8-4.9-6.4-5.7-3-1.6-14.4-2.1-15.3-.6m4.1 124.1c3.9 0 5.3 1.2 5.6 4.4.2 2.4-.4 3-5.5 5.1l-5.7 2.3-.5-2.6c-.2-1.5-.8-4.9-1.1-7.6l-.7-4.9 2.6 1.6c1.4.9 3.8 1.7 5.3 1.7M359 348.2c.7 2.6 1 5.3.8 6-.3.7-1.2-1.7-2.1-5.3s-1.9-7.5-2.2-8.5c-.4-1.1 0-.9.9.6.8 1.4 2 4.6 2.6 7.2"/></svg>