<svg xmlns="http://www.w3.org/2000/svg" width="682.667" height="512" version="1.0" viewBox="0 0 512 384"><path d="M289.8 27.6c-1.7 1.6-.7 3.3 2.5 4.3 4 1.4 9.5 6.7 8.1 8-.5.4-3.1 1.4-5.9 2-8.4 2.1-19.7 7.3-23.8 11-5.3 4.8-7.8 10.8-8.8 21.1-1 10.5-4.6 18-10.8 22.8-3.5 2.7-4.9 3.1-7.6 2.6-4.6-.8-6.5 1.4-6.5 7.7 0 5.6 1.5 6.9 5.7 5 3.1-1.4 5.3 0 5.3 3.3 0 1.9.4 2.2 3.1 1.8 2.6-.4 3.7.2 7.8 4.7 2.6 2.8 5.5 5.1 6.4 5.1s2 .8 2.6 1.7c1.5 2.9 4.1 23.2 4.1 31.9 0 12.5-.5 13.7-6.4 17.5-2.8 1.9-8 6.2-11.5 9.7-3.6 3.4-7.6 6.5-9 6.8s-6.6 1.7-11.6 3.1c-4.9 1.4-11.9 3.1-15.5 3.8-12.2 2.3-18.1 7-19.5 15.5-.7 4-3.3 6-8.3 6l-2.7.1 2.3 1.3c2.1 1.1 2.2 1.4.8 2.5-.9.8-1.6 2-1.6 2.7 0 2 4.9 3.6 8.5 3 2.8-.6 3.3-.3 4.8 2.8 4.3 9.1 14.9 16.6 23.5 16.6 6 0 7.5-1 17-10.8 6.2-6.5 8.2-8.1 7.7-6.2-1.9 8.2-1.7 11.8.8 17.4 1.4 3.1 3.8 7.1 5.2 9 2.9 3.8 2.8 8.2-.1 10.7-.8.6-1.4 1.7-1.4 2.3s-1.8 4-4 7.6-5.3 9.9-6.9 14-3.9 9.7-5.1 12.3c-1.2 2.7-2 4.9-1.8 5 .1.1 1.3.8 2.6 1.5s2.8.9 3.4.6c.7-.4 2.6-.8 4.2-.9 1.7-.1 3.9-.5 4.9-1 1.4-.6 1.7-.2 1.7 3.1 0 8.7-4.2 53.4-5.5 59.2-.8 3.5-1.5 6.7-1.5 7.3 0 .5 20.7.9 53.1.9h53.2l-.5-22.1-.5-22 3.3 8.4c3.3 8.7 7.1 16.7 7.9 16.7.2 0-.3-2.3-1.1-5-.7-2.7-2.1-7.3-2.9-10.2-.8-2.8-1.5-5.9-1.4-6.7.1-2.9 2.9 4.7 4.8 13.4 1.1 4.8 2.1 8.9 2.4 9.1.3.3.8-.8 1.2-2.5s1.1-2.9 1.6-2.5c.6.3.8-.4.5-1.8-1.9-9-1.2-9.3 1.7-.8 1.8 5.2 4.1 11 5 12.7 2 3.8 4.2 4.5 3.2 1-.6-2.1-.6-2.1 1.4.3 1.2 1.4 3 3.6 4.2 5l2 2.5-.5-11c-.3-6.1-.8-13.5-1.1-16.5l-.6-5.5 3 8c1.6 4.3 3.2 9.4 3.6 11.2.4 2.3 1 3 2 2.6.8-.3 1.5 0 1.5.6s.5 1.1 1 1.1c.6 0 1-3.3 1-7.8 0-13.9 2.3-16.8 3.5-4.5.4 4.3 1.2 8.4 1.8 9.2.9 1.1 1.3-1.9 1.7-13 .5-14.3.5-14.4 1.3-6.4.4 4.4 1.3 11.4 1.9 15.5 1.4 9.2 1.9 7.8 4.3-11.3 1.3-10.7 1.4-15.8.6-26.2-.8-10.6-4.8-32.1-7.7-42-.5-1.6-.1-1.5 2.5.9 1.7 1.7 3.1 2.4 3.1 1.8 0-1.9-3.7-15-6.4-22.7-1.3-3.9-3.4-10.8-4.7-15.5-1.2-4.7-4.6-15-7.5-23s-5.5-16.7-5.9-19.4c-.7-4.5-.4-5.6 4-14.7 5.6-11.2 5.6-11-3.1-16-2.9-1.6-5.6-3.3-5.8-3.7-.3-.4-1.4-9.3-2.6-19.7-2.7-24.9-5.5-41-8.7-51.5-1.6-5-2.6-10.4-2.4-13.1.5-10.4-4.2-22.9-11.4-30.8-7.9-8.5-20.9-14.6-35.2-16.6-4.5-.6-5.4-1.1-7.7-4.6-1.4-2.1-4-4.6-5.8-5.5-3.5-1.8-14.8-3.1-16-1.8m1.7 127.5c.4.6 2.6.8 5 .6 3.2-.4 4.5-.1 4.9 1 1.5 3.7.6 5-5 7.2-3.1 1.1-5.7 2.1-5.9 2.1-.3 0-.3-1.2-.3-2.8.1-1.5-.2-4.2-.6-6-.7-3.1.5-4.5 1.9-2.1m-42.8 147.1c-.3.8-.6.5-.6-.6-.1-1.1.2-1.7.5-1.3.3.3.4 1.2.1 1.9"/><path d="M392.1 373.6c0 1.1.3 1.4.6.6.3-.7.2-1.6-.1-1.9-.3-.4-.6.2-.5 1.3"/></svg>