<svg xmlns="http://www.w3.org/2000/svg" width="682.667" height="512" version="1.0" viewBox="0 0 512 384"><path d="M289.3 24.7c-2.4.9-1.3 3.3 2.2 4.7 4.2 1.8 9.1 6.4 7.9 7.6-.5.4-4.7 2-9.4 3.5-10.9 3.5-15.1 5.7-20.2 10.3-5.5 4.9-7.6 10.1-8.7 21.1-.7 6.5-1.6 9.9-2.9 11.6-1.1 1.4-2.3 4.1-2.6 6-.9 4.8-8.3 10.5-13.6 10.5-2.2 0-4.3.7-5.1 1.6-1.7 2.1-1.5 8.2.4 10.1 1.3 1.3 1.8 1.3 4.8-.2 3.1-1.7 3.3-1.6 4.6.1.7 1 1.3 2.4 1.3 3.1 0 .9.9 1.1 2.9.7 2.6-.5 3.6 0 7.8 4.5 2.7 2.8 5.4 5.1 6.1 5.1.6 0 1.8 1 2.6 2.2 2.2 3.5 4.7 23 4.7 36.6l-.1 12.3-6.5 6.4c-3.5 3.5-8 8.9-10 11.9-3.4 5.4-7.7 9.6-9.9 9.6-.6.1-2.9.9-5.1 2s-4.3 1.9-4.7 2c-.4 0-4.1 1.5-8.1 3.4s-8.5 3.8-10 4.1c-1.5.4-2.7 1.1-2.7 1.6s-.6.9-1.2.9c-2.6 0-7.7 6-8.3 9.8-1.4 8.7-1.7 9.4-4.8 11.3l-3.2 2 3.5-.6c2.6-.5 3.1-.3 2 .4-1.3 1-1.3 1.1 0 1.2.8 0 0 .7-1.8 1.5-2.6 1.1-3.3 2-3 3.7.3 1.9.8 2.2 4.2 2 2.2-.2 4.4-.7 4.9-1.2.6-.6 2.1.8 4.1 3.7 6.6 9.8 18.7 15.6 27.6 13.3 5.3-1.5 7.1-2.9 10.6-8.9l2.6-4.4 3 5.3c1.6 3 3.3 5.8 3.8 6.3 1.4 1.4 1.2 6.3-.1 8.9-.7 1.2-3.3 4.8-5.9 8.2-2.6 3.3-7.6 10.5-11 16s-7.1 10.8-8.1 11.8-1.9 2.1-1.9 2.6c0 1.3 9.6 5.1 12.4 4.9 3-.3 6.3-3.6 7.2-7.5.4-1.2 1.1-2.3 1.6-2.3 1.1 0 1 .9-1.8 40.5-1.3 18.7-2.4 28.1-4.1 35.2l-.5 2.3h107.4l-.7-16.7c-.4-9.2-1.1-19.2-1.5-22.3-.4-3-.6-5.7-.4-5.9.1-.2 1 2.3 2 5.5 2.1 7.6 8.2 22 11 26.2 2.1 3.2 2.2 3.2 2.8 1 .3-1.3.6-3.3.6-4.6s.4-2 1-1.7c1 .6 1.3-1 1.1-5.5-.1-1.4 1.2 1.5 2.9 6.3 1.6 4.8 3.8 10.2 4.7 12l1.7 3.2.7-3c.4-1.7.7-2.2.8-1.3.1 2.1 1.7 2.4 2.4.5.2-.6.9.5 1.6 2.5.7 2.1 1.9 3.8 2.7 3.8 1.8 0 1.8-5.1-.1-20.5-.8-6.6-1.5-12.7-1.4-13.5.1-2.3 4.7 12.7 6.1 19.7.6 3.4 1.5 6 1.9 5.7.4-.2 1 .4 1.2 1.3.4 1.6.5 1.6.6-.1.1-1.6.3-1.7 1.8-.5 1.5 1.3 1.6.7 1.1-7.1-.4-5.6-.1-9.9.7-12.5.7-2.2 1.3-3.6 1.4-3 .1.5.8 5.5 1.6 11s1.5 10.4 1.5 11c0 .5.5.3 1-.5s1-8.9 1-17.9.2-16.2.5-16c.2.3.9 7.9 1.5 16.9 1.4 21.4 1.9 23.4 3.6 14.9 4.3-22.8 3.8-46-1.5-69.9-3.7-16.5-3.8-16.9-1-14.4l2.2 1.9-.6-4.8c-.4-2.6-1.6-8-2.7-12-7.5-27.1-11.4-39.8-15.5-50.7-2.6-6.9-5.3-15.8-6-19.9-1.3-7.5-1.3-7.5 1.6-13.3 1.6-3.1 2.9-6.5 2.9-7.5s-1.9-3-4.5-4.6c-2.5-1.6-4.5-3.2-4.5-3.5 0-.6-5.4-45.7-6.5-54.7-.7-5.5-2.6-13.9-5.1-22.1-1.3-4.4-2.8-12.4-3.3-17.7-1.2-12.2-4-18.7-11.7-26.8-8.3-8.6-22.3-14.8-37.5-16.5-4.4-.5-6-1.1-6.4-2.5-2-6.2-15.7-11.9-22.2-9.2m3.4 131.4c.8.8 2.1.8 4.7-.1 4.3-1.4 5.6-.7 5.6 2.9 0 2.4-.6 2.9-5.2 4.4-5.6 1.8-6.8 1.3-6.8-3 0-1.2-.3-2.8-.6-3.7-.7-1.8.7-2.1 2.3-.5M248 299.9c0 .5-.7 1.4-1.5 2.1-1.6 1.4-1.8 1-.9-1.4.6-1.7 2.4-2.2 2.4-.7m115 57.7c1.1 4.7 2 9.1 1.9 9.7-.1 1.4-5.5-16.8-6.3-21.5l-.7-3.3 1.5 3.3c.9 1.8 2.5 7.2 3.6 11.8"/></svg>