<svg xmlns="http://www.w3.org/2000/svg" width="682.667" height="512" version="1.0" viewBox="0 0 512 384"><path d="M287.7 22.7c-1.4 1.3-.6 2.3 3.2 4.3 4.2 2.1 8.6 6.9 7.4 8-.4.4-4.6 2-9.3 3.5-10.4 3.4-14.9 5.6-19.5 9.7-5.2 4.5-7.5 9.8-8.8 20.3-.7 5.7-1.8 10-2.8 11.1-2.8 3.2-4.1 6.5-3.5 8.8 1 4.1-7.7 10.6-14.1 10.6-3.6 0-4.5.4-5.5 2.5-1.3 3-.1 8.3 2.4 9.9 1.3.8 2.4.5 4.9-1.3 3.2-2.4 4.8-2 5.4 1.5.3 2 .7 2 3.8.8 1.4-.5 3 .6 6.6 4.3 2.6 2.7 5.5 5.2 6.4 5.6.9.3 2.2 1.9 3 3.4 2.2 4.2 4.8 23 5.4 38.8l.6 14-3.8 4.5c-4.8 5.8-10 13.9-13.2 20.7-2.6 5.4-6.6 9.2-13.5 12.8-3.3 1.7-15.3 10.1-20 14-.9.8-3.1 2.1-4.7 3-4.2 2.1-6.3 6.8-6.6 14.3-.2 4.5-.8 6.9-2.1 8.4-1.9 2-1.9 2.1.4 1.4 3.3-1.1 2.8 1.8-.8 4.4-4 2.9-3.9 5 .3 5 1.7 0 4.3-.6 5.7-1.3 2.3-1.2 2.8-1 7.2 3.6 7.9 8 20.4 12.3 28.5 9.7 5-1.6 7.2-3.6 9.4-8.5 1.2-2.6 1.9-3.3 1.9-2 0 4.6-2.2 9.1-7.3 14.4-2.9 3.1-7.8 9-10.9 13.2-3.1 4.3-7.5 9.2-9.8 11-3.6 2.9-3.9 3.4-2.3 4.3 1 .5 2.2 1.5 2.6 2.3 1 1.6 4.1 1.7 6.9.2s3.4-.4.9 1.8c-3.1 2.6-2.6 4.3 1.4 4.3 2.8 0 4-.7 6.6-4 1.8-2.2 3.4-3.8 3.6-3.6.6.6-3.6 57.1-4.7 64.2-.6 3.3-1 6.4-1 6.7 0 .4 23.9.7 53 .7h53v-28.5l4.5 10.9c2.5 6.1 4.5 11.1 4.5 11.3 0 .3.4.1 1-.2s.7.1.4.9c-.3.9-.1 1.6.5 1.6 1.1 0 2.1-2.7 2.4-6.8l.1-2.3 1.8 2.3 1.8 2.3.1-3 .1-3 .9 3c.6 1.6 1.7 4.9 2.5 7.2l1.5 4.2h7c8.1 0 7.6 1.4 5.4-16.3-.8-6.6-1.3-12.1-1.1-12.3 1-1 5.1 19.6 5.6 28.7 0 .3.7-.4 1.5-1.4 1.3-1.7 1.5-1.8 1.5-.3 0 1.1.8 1.7 2.5 1.7 2.3 0 2.5-.4 2.4-4.3 0-2.3-.4-6.2-.8-8.7s-.3-6.1.2-8l1-3.5.8 3c.4 1.6 1.4 7.3 2.1 12.5 1.6 12.4 2.5 8.7 2.7-10.8 0-7.8.5-14.2 1-14.2 1 0 2.1 12.4 2.1 24.7 0 5.1.4 9.3.9 9.3 1.4 0 1.9-2.1 4-17.6 1.7-11.9 1.9-16.2 1.1-29-.5-8.2-1.8-19-2.9-23.9-1.1-5-2.3-11.8-2.7-15.3-.6-5.5-.5-6.2 1-5.6 2 .8 2.1-.7.1-10-4-18.7-8.2-34.4-12.7-47.6-12.9-37.7-13.7-41.3-11.1-47.9 1.6-4.2 1.6-4.2-.9-6.6-2.2-2-2.6-3.5-3.7-14.6-2.1-20.8-4.1-39.2-4.7-43-.4-2.1-.2-3.9.4-4.3.7-.4.6-1.5-.4-3.4-.7-1.5-1.7-4.3-2-6.2s-1.9-8.1-3.5-13.6c-1.6-5.6-2.9-12.6-2.9-15.5-.1-24.9-19.3-42.1-51-45.9-4.1-.4-7.6-1.3-7.8-1.9-.8-2.5-4.7-6.3-8.3-8.1-3.7-2-13.8-2.8-15.2-1.3m11.6 133.8c4.8-2 4.7-2 4.7 1.8 0 3.1-.4 3.5-4.1 4.6-2.3.7-4.7 1.5-5.4 1.7-1.3.6-1.8-.5-3-6.4l-.7-3.4 2.4 1.6c2.2 1.5 2.8 1.5 6.1.1m107.4 183.7c-.3.7-.5.2-.5-1.2s.2-1.9.5-1.3c.2.7.2 1.9 0 2.5m1 6.5c-.3 1-.5.4-.5-1.2 0-1.7.2-2.4.5-1.8.2.7.2 2.1 0 3M360.8 359v2.5l-.7-2.5c-.4-1.4-1.1-4.3-1.4-6.5l-.6-4 1.4 4c.7 2.2 1.3 5.1 1.3 6.5"/></svg>