<svg xmlns="http://www.w3.org/2000/svg" width="682.667" height="512" version="1.0" viewBox="0 0 512 384"><path d="M287.5 21.4c-1.8 1.3-1.7 1.4 1.6 3.1 3.5 1.8 9.9 7.3 9.9 8.7 0 .4-3.6 1.9-8.1 3.3-12.1 3.8-18.4 7.1-22.7 12-4.5 5.1-7.5 13.4-7.7 21.3 0 2.9-.5 5.6-1.1 6-.5.4-1.9 2-3 3.6-1.8 2.5-1.9 3.5-1.1 6.2 1.2 4.1.3 5.4-7 10.1-4.1 2.6-5.8 3.1-8.2 2.7-4.1-.8-6.1 1-6.1 5.3 0 7.2 2.9 8.9 8.8 5.3 3.7-2.3 5.2-1.9 5.2 1.2 0 1.5.4 1.8 1.8 1.3.9-.4 2.4-.9 3.2-1.2 1.8-.5 7 3.3 7 5 0 .7.8 1.7 1.9 2.4 1 .6 3.1 3.3 4.6 5.9 3.5 6 6.1 22.3 7 43.4.6 12.9.5 14.9-1.2 17.7-2.7 4.9-10.8 21.2-12.8 26-1 2.4-2.1 4.3-2.4 4.3s-1.2 1.2-1.8 2.7c-.7 1.6-2.6 3.7-4.3 4.8-4.7 3.1-29.3 29.3-30.9 32.9-.8 2-1.1 5-.8 8.4.3 3 .2 6.5-.4 7.9-.7 1.8-.5 2.8.6 3.9 1.9 1.9 2 1.6-1.5 5.3-5 5.2-2.3 6.7 5.4 3l4.4-2.2 3.8 3c4.4 3.4 8.1 5.5 13.6 7.7 3.7 1.4 3.7 1.5 2.6 4.8-1.3 4-4 7.1-9.5 10.9-4.4 3.1-5.5 5.8-3.8 9.7 1.4 3.2 5.2 2.6 16-2.6.6-.3-.4 1-2.2 2.9-1.7 1.9-3.3 4.3-3.5 5.4-.3 1.8.2 2 4.5 1.9 4.1 0 4.7.2 4.7 2 0 4.4-3 47.3-3.6 51.9l-.7 4.7H357l.1-2.8.1-2.7 1.1 2.8c1.4 3.6 5.8 3.5 6.7-.2l.5-2.4 1.2 2.7 1.3 2.6h32.3l-.6-7c-.3-3.8-.2-7.2.2-7.5 1.1-.6 2.1 4.4 2.1 10.1 0 4 .2 4.4 2.5 4.4h2.5l.1-15.3c.1-11.2.4-13.9.9-10.2.5 2.7.9 9.6.9 15.2.1 9.5.3 10.3 2 10.3 2.3 0 2.5-.5 4.5-14 1.4-8.8 1.5-13.3.6-27.5-.5-9.4-1.7-20.4-2.5-24.5-1.7-9.1-2-19.7-.4-20.2.9-.3.9-2 0-6.9-.6-3.6-1.1-8.2-1.1-10.2 0-3.8-7.6-34.6-10.5-42.7-12.8-35.1-13.9-40.7-17.6-88.2-2-26.9-2.1-28.9-.5-31.3.9-1.4 1.3-2.5.9-2.5-1.5 0-4.4-6.5-5.7-12.6-.7-3.2-2-8.8-2.9-12.4s-2-10.6-2.6-15.5C371.2 57 361.5 44.6 344 38.1c-8.7-3.2-21-6.1-26.5-6.1-4.7 0-5.2-.3-9.2-4.9-3.2-3.7-5.3-5.1-8.7-6-6-1.5-9.8-1.4-12.1.3m11.2 137.3c1.6-.3 3.6-.9 4.6-1.2 1.3-.6 1.7-.2 1.7 1.8 0 2.8-1.4 4.2-5.2 5.1-1.4.3-3.3.8-4.1 1.2-1 .4-1.7-.7-2.6-4-1.5-6-1.4-6.2.9-4.1 1.3 1.2 2.8 1.6 4.7 1.2m58 198.5c-.3.8-.6.5-.6-.6-.1-1.1.2-1.7.5-1.3.3.3.4 1.2.1 1.9m31 11.5c-.3 1-.5.4-.5-1.2 0-1.7.2-2.4.5-1.8.2.7.2 2.1 0 3m1.2 11.8c-.5 1.3-.8 0-.7-4 0-5.6.1-5.8.8-2 .4 2.2.4 4.9-.1 6"/></svg>