<svg xmlns="http://www.w3.org/2000/svg" width="682.667" height="512" version="1.0" viewBox="0 0 512 384"><path d="M289 22c-1.3.9-1.1 1.3.9 2.8 5 3.6 10.4 9.3 9.5 10.1-.5.5-4 1.9-7.9 3.1-9.8 3.2-15.4 6.2-19.7 10.7-4.1 4.3-7.7 11.4-7.8 15.5 0 1.5-.5 3.9-1.2 5.5-.6 1.5-1.2 3.1-1.2 3.5-.1.3-.4 1-.8 1.4-1.4 1.3-.9 6.2.9 10l1.8 3.6-3.5 3c-7.1 5.9-14.2 9.3-19.5 9.3-4.7 0-5 .2-5.3 2.7-.2 1.5.4 4.3 1.4 6.3 1.7 3.7 3.9 4.4 7.7 2.3 1.2-.6 4.1-1 6.4-.9s5.6-.5 7.2-1.4c2.8-1.4 3.1-1.4 4.5.7 1.2 1.6 1.4 3.7 1.1 7.8-.5 4.6-.4 5.1.5 3l1.1-2.5 1.4 3.2c.8 1.8 2.7 5.2 4.3 7.5 2.5 3.6 3.1 6.1 4.3 15.8.8 6.3 1.4 20.5 1.4 31.5 0 17.1-.3 20.7-1.8 24.6-1.5 3.6-1.7 5.4-.9 8 .6 2.2.6 4.4 0 5.9-.6 1.4-1.8 6-2.9 10.3-2.2 9.2-4.8 14.6-9.8 20.7-2.1 2.5-6.2 8.8-9.1 14-3 5.2-6 10.1-6.7 10.8s-1.3 1.9-1.3 2.5c0 .7-1.6 3.7-3.6 6.7-3.9 5.9-3.9 6.2-1.8 20.7.4 2.9.1 5.2-1 7.4-1.9 3.8-2 4.2-.5 3.3 1.8-1.1 3 1.9 1.4 3.6-.8.9-1.8 3.1-2.1 5-.7 3.2-.7 3.3 2.2 2.6 1.6-.4 4.8-2.6 7.1-4.8l4.1-4.1 3.1 2.2c3.6 2.6 3.9 4.1 1.1 4.8-2.7.7-2.5 2.7.5 5.1 1.4 1.1 2.5 2.2 2.5 2.4 0 .8-8.9 4.9-11 5.1-2.4.2-2.6 2.4-.5 5.3.8 1.2 1.1 2.4.8 2.8-1.2 1.2 3.7.6 7.7-1 2.3-.9 4.2-1.5 4.4-1.3s-.3 8.5-1 18.4-1.3 19.9-1.3 22.3l-.1 4.2 77.3-.2 77.2-.3.7-6c.6-5.4.9-27.4.5-44.5-.1-3.6.4-14.4 1.2-24l1.3-17.5-4.1-18.7c-2.2-10.3-6.7-27.7-10-38.6-9.4-30.9-9-28.2-10.1-71.1l-1-38.5 3.2-2.9 3.1-2.9-4.1-4c-2.3-2.2-4.2-4.7-4.2-5.7 0-.9-1.1-6-2.5-11.2-1.6-6.2-2.5-12.1-2.5-17.4 0-14-6.4-26.6-17.8-35-8.3-6.1-23.4-10.8-41.1-12.7-10.1-1.1-10.6-1.3-13.5-4.6-5.2-6-16.1-9.2-20.6-6.2m13 145.6c0 1.4-.7 2.7-1.5 3.1-2.1.7-2.3.4-3.1-4.6l-.7-4.3 2.7 1.7c1.6 1.1 2.6 2.6 2.6 4.1"/></svg>