<svg xmlns="http://www.w3.org/2000/svg" width="682.667" height="512" version="1.0" viewBox="0 0 512 384"><path d="M289.4 41.2c-.6 1 4 5.8 5.6 5.8.7 0 4 5.5 4 6.7 0 .4-2.9 1.9-6.4 3.1-15.4 5.5-22.4 14.2-24.2 30-.6 5.5-.8 5.9-3 5.4-3.4-.6-3 1.2 1.1 6.1 1.9 2.2 3.5 4.7 3.5 5.4 0 2.5-2.7 6.7-6.7 10.4-7.3 6.8-11.1 9.1-16.5 9.8-5.3.6-5.3.7-5.1 4 .1 1.9 1 4.3 2.2 5.5l2.2 2.1 3.9-2.1c3.8-2.1 3.9-2.1 5.6-.3 2.5 2.8 4.6 2.3 8.9-2.1 2.1-2.2 4.3-4 4.8-4 .6 0 .7 2.5.3 5.9-.4 3.8-.3 6.2.4 6.6.5.3 1-.2 1-1.1 0-1 1.2.5 2.6 3.4 2.5 5.1 6.9 9.6 8.4 8.7 3.6-2.2 5.4 52.6 2 61-1.1 2.7-1.5 5.1-1.9 11.2 0 1.2-1.7 3.7-3.7 5.5-9.6 8.6-21.9 21.8-24.5 26.3-2.8 4.8-3.7 9.8-2.1 12.1.4.6 3.5 2.9 6.9 5.2s6.4 4.6 6.8 5.1c.3.5-.3 2.5-1.4 4.4-3.6 6.5-6.9 17.4-15.1 49.7-6.5 25.9-7.9 32.8-7.1 34.9 1.4 3.8 3.3 16 2.6 17.1-.4.6 1.8 1 5.4 1 5.1 0 6.1-.3 6.6-2 .3-1.1 1-2 1.5-2 2 0 4 1.3 4 2.6 0 1.2 10.2 1.4 65.3 1.4h65.3l1.2-4.8c.6-2.6 1.5-7.9 1.8-11.7.4-3.9 1.5-8.6 2.5-10.5.9-2 3.6-11 5.9-20l4.2-16.4L407 303c-.9-13.4-2.6-24.9-7.2-49l-6-31.5.9-20.5c.4-11.3.8-30.2.8-42.1 0-19.6.2-21.5 1.6-21.2 2.3.6 6.9-2.5 6.9-4.6 0-.9-2-2.8-4.5-4.3-4-2.4-4.6-3.3-6.7-10-1.7-5.4-2.3-9.9-2.4-17.3-.1-13.2-.9-16.6-5.1-24.8-9.1-17.3-29.2-26.5-60.1-27.3l-13.3-.3-2.6-3.2c-1.5-1.7-4.5-4-6.8-5-4.5-2.1-12-2.5-13.1-.7"/></svg>