<svg xmlns="http://www.w3.org/2000/svg" width="682.667" height="512" version="1.0" viewBox="0 0 512 384"><path d="M285 38.5c0 .4 2.3 2.8 5 5.4 2.8 2.6 5 5.4 5 6.3 0 1-1.5 2.1-3.7 2.9-15.9 5.1-24 14.8-25.9 31.2-.6 5.5-.8 5.8-3 5.3q-5.7-1.5.6 5.7c2.2 2.5 4 5.3 4 6.4 0 3-3.9 8.4-10.5 14.9-5.2 4.9-7.2 6.2-11.1 7-5.9 1.1-6.6 3-2.7 7.4 2.6 2.9 3.1 3.1 5.5 2 2.3-1.1 3-1 5.4.9l2.7 2.1 4.3-4c2.4-2.2 4.8-4 5.3-4 .6 0 .8 2.1.4 5.2-.5 3.7-.3 4.9.5 4.4.7-.4 1.2-1.5 1.2-2.4.1-.9 1.2.3 2.5 2.8 4.1 7.8 8.5 11.3 8.5 6.8 0-1.6.3-1.9 1.1-1.1 2.5 2.5 5.2 24.4 5.3 41.8l.1 17-3.2 5.8c-2.6 4.9-2.9 5.8-1.6 6.6 2.6 1.4.6 4.5-6 9.7-9.7 7.7-19.1 17.8-22.1 24-3.1 6.3-2.9 9.3.7 12.3 1.2 1.1 3.5 3 5 4.3l2.9 2.3-3.5 6.5c-5 9.5-8.6 20.1-18.1 53.2-9.2 32.2-8.8 29.1-6.1 45.4.4 2.2.2 5.7-.3 7.7l-1 3.7h11.4l2.1-5c1.2-2.7 2.7-5 3.5-5 .7 0 3.6 1.3 6.3 2.8 3.4 1.8 5.1 3.4 5.3 5l.3 2.2 65.7-.2 65.6-.3 2.2-7.8c1.2-4.3 2.5-11.2 2.9-15.3s1.3-8.7 2-10.2c.8-1.5 3.3-10.1 5.7-19.2l4.4-16.5-1.7-18.9c-1.6-17-4.8-35.1-12.1-69.6-1.8-8.8-1.9-11.8-1.3-42 .3-18.2.2-35.6-.3-39.5-.7-5-.6-7.1.2-7.4 2.2-.8 6.7-6.1 6.1-7.1-.4-.6-2.2-1.7-4.1-2.5-3.7-1.5-4.2-2.4-7.5-14-1.6-5.8-2.3-10.9-2.3-18.5-.1-9.5-.4-11.1-3.2-17-5.7-11.9-16.3-21.3-28.3-25-11.4-3.6-29-6.2-38.5-5.8l-8.8.4-4.3-4.5c-4.2-4.4-4.5-4.5-11.4-4.9-3.9-.2-7.1-.1-7.1.3"/></svg>