<svg xmlns="http://www.w3.org/2000/svg" width="682.667" height="512" version="1.0" viewBox="0 0 512 384"><path d="M284.1 37.9c-1.2.8-.5 1.9 3.7 5.8 2.9 2.7 5.2 5.5 5.2 6.2 0 .6-1.7 1.9-3.7 2.7-9.9 3.9-13.8 6.2-17.4 10.2-4.5 5.2-7.5 12.6-8.4 20.9-.7 5.6-.9 6-3.1 5.5-3.6-.7-3.1 2.1 1.1 6.1 5.9 5.7 4.8 8.8-7.3 20.3-5.4 5.2-7 6.2-10.8 6.7-2.5.2-4.8.8-5.2 1.1-.3.4.2 2.4 1.3 4.4 1.8 3.4 2.4 3.7 6.2 3.7 2.3 0 4.7.6 5.4 1.2 1.8 1.8 3.3 1.6 5.5-.8 1.5-1.6 7.4-4.9 9-4.9.1 0-.2 1.5-.7 3.2-1 3.7-.1 8.7 1 5.5.5-1.4 1.5-.5 4.6 4.3 3.9 6.1 6.5 7.7 6.5 3.9 0-6.1 4.4 4.8 5.4 13.6.3 2.2 1.2 7.8 2.1 12.5.8 4.7 1.5 13.3 1.5 19.1 0 8.7-.3 11.1-1.8 13-2.5 3.3-6.2 9.8-6.2 11 0 .5.7.9 1.5.9s1.5.2 1.5.5c0 1.4-4.1 8.5-4.9 8.5-1.8 0-19.3 18.6-22.1 23.4-4.7 8.4-4.8 10.1-.6 14l3.5 3.4-4.9 9.4c-2.7 5.1-7.1 16.3-9.9 24.8-2.7 8.5-7.8 24.2-11.2 34.8l-6.2 19.4 1.5 10.9c1.4 9.2 1.4 11.4.2 14.6-2.1 6-2 6.3 4 6.3h5.4l2-4.8c1.1-2.6 2.3-5.7 2.7-7 .3-1.2 1.1-2.2 1.7-2.2.5 0 4.8 2.1 9.4 4.6 7 3.8 8.4 5 8.4 7v2.4h133.7l2.7-10.3c1.4-5.6 2.6-12.5 2.6-15.4s.9-7.5 2-10.3c3.6-9.2 9-32.6 9-39.2 0-13.6-3.1-34.5-9.5-63.7l-6.5-30.3v-24.6c0-13.6-.5-31.5-1-39.7-.8-11.4-.7-15.1.2-15.4 1.7-.6 5.8-4.8 5.8-6 0-.5-1.7-1.8-3.7-2.8-4.3-2.1-5.3-3.8-8.5-14.3-1.6-5.5-2.3-10.2-2.3-17.5-.1-9.1-.4-10.7-3.3-17-3.6-7.6-11.9-16.9-18.7-20.9-9.6-5.7-37.7-11.3-50.7-10.1-7.2.6-7.7.5-8.3-1.5-1.5-4.9-15.3-9.9-19.4-7.1"/></svg>