<svg xmlns="http://www.w3.org/2000/svg" width="682.667" height="512" version="1.0" viewBox="0 0 512 384"><path d="M281.1 37.9c-1 .6-.4 1.5 2.4 3.6 3.9 3 7.2 8.3 5.8 9.4-.4.4-3.8 2-7.6 3.5-10.9 4.5-19.7 16-19.7 25.7 0 1.4-.3 4.1-.6 5.8-.6 2.9-.9 3.1-3.5 2.6-4-.9-3.7.7 1.1 5.9 2.2 2.4 4 5.3 4 6.5 0 4.6-15.7 18.9-21.7 19.7-6.5.9-6.5 1-4.9 4.3 2.6 4.8 4.5 6.3 7.7 5.6 2-.5 3.4-.2 4.5 1 1.6 1.5 1.9 1.4 4.9-1.5 1.9-1.8 3.9-3 4.7-2.7.7.2 2.2 0 3.2-.6 1.7-.8 1.9-.6 1.4 2.4q-.9 6.15 1.5 5.4c.7-.2 2.8 2 4.7 5 3.3 5.3 6 7.1 6 4 0-.8.4-1.5.9-1.5 2.8 0 7.8 25.1 8.8 44.3.5 9.8.3 12-.9 13.5-1.7 1.9-7.8 11.9-7.8 12.9 0 .3.9.3 2 0 2.5-.7 2.6-.7-1 6.1-1.7 3.3-6.2 9-10.8 13.5-10.6 10.5-14.7 17.4-14.8 24.7 0 4.5-.7 6.5-3.6 11-4.1 6.4-8.5 17.2-16.3 40-3.1 9.1-7.4 21.4-9.6 27.3-4.4 12.3-5 18.9-2.2 26.8 1.8 5.1 1.9 4.8-2.4 20.1-.5 1.6.2 1.8 4.8 1.8h5.4l2.3-6.1c1.3-3.3 3-7.6 3.8-9.5l1.5-3.5 5.2 3.1c2.9 1.7 8.2 4.6 12 6.5 6 3.2 6.7 3.8 6.7 6.5v3h136.6l2.7-10.8c1.4-5.9 2.9-14.1 3.2-18.2.4-4.1 1.3-9.2 2.1-11.3.8-2 1.9-5.9 2.4-8.5.6-2.6 1.4-5.6 1.9-6.7s1.6-6.3 2.6-11.5c1.6-9.2 1.6-10.1-.4-27.5-1.6-13.9-3.7-24.7-9.2-47l-7.1-29-.9-28c-.5-15.4-1.3-33.2-1.9-39.5-1-10.4-.9-11.6.7-12.7.9-.7 2-1.3 2.3-1.3.4 0 1.2-1.1 1.8-2.5 1.1-2.3.9-2.6-3.3-4.4-3.8-1.7-4.5-2.5-5.5-6.3-.6-2.4-1.8-6.3-2.7-8.8s-1.9-9.7-2.3-16.2c-.6-10.3-1-12.4-3.8-18.1-4-8.1-12.7-16.9-20.7-20.7-10.7-5.3-33.9-9.6-46.9-8.8l-8.3.6-2.6-3.3c-1.4-1.7-4.1-3.9-6-4.8-3.7-1.8-10.3-2.2-12.6-.8"/></svg>