<svg xmlns="http://www.w3.org/2000/svg" width="682.667" height="512" version="1.0" viewBox="0 0 512 384"><path d="M278.4 38.1c-.3.6 1 2.4 3 4.1 2 1.6 4.3 4.2 5.1 5.8l1.4 2.8-5.8 2.1c-7.4 2.7-13.2 6.9-16.9 12.3-3.7 5.5-5 9.4-5.8 17.3-.7 6.4-.7 6.4-3.5 5.8-4-.8-3.7.9 1.1 6.1 2.2 2.4 4 5 4 5.9 0 2.1-5.1 7.9-12.3 13.9-5 4.1-6.4 4.8-10.2 4.8-5 0-6.1 1-4.4 4.2 2.1 4.2 4.9 6.6 7 6.1 1.1-.3 3.1 0 4.5.7 2.2 1.2 2.7 1.1 5.7-1.9 2.3-2.1 3.9-2.9 5-2.5 1 .3 2.4.1 3.2-.6 2.3-1.9 2.8-.6 1.4 3.9-.9 3.2-1 4.4-.1 5.3s1.2.9 1.2 0c0-2.1 1.5-1.3 2.7 1.5 2.8 6.3 10.2 11.8 8.7 6.5-.2-.9.2-.4.9 1.2 1 1.9 1.6 2.4 1.9 1.5.5-1.5 3.1 9.1 2.7 11.3-.1.7.3 2.4.8 3.9 2.7 6.3 4.5 38 2.3 39.4-1.3.8-8.2 12.6-7.6 13.2.2.3 1.4 0 2.6-.7 3.9-2.1-5.5 14.6-12.6 22.4-9.8 10.7-15 22.6-12 27.5.5.8-.4 2.7-2.1 4.9-3.3 4.2-6 8.9-14.5 25.2-7.6 14.5-9.5 17.8-18.1 32.3-6.9 11.7-7 11.8-7.3 19.9-.2 6.8 0 8.5 1.7 10.6 1 1.4 1.9 3.6 1.9 4.9 0 3.4-3.8 18-5.6 21.5l-1.5 2.8h10.9l3-7.3c1.6-3.9 3.7-9.3 4.7-12 1-2.6 2-4.7 2.4-4.7.3 0 3.9 3 8 6.6 4 3.6 10.6 9 14.6 12l7.2 5.4h140.1l1.1-3.3c2.8-8.9 5.1-21.6 5.1-28.2 0-4.9.6-9.1 1.9-12.2 2.9-7.6 8.4-34.3 7.8-38.3-.3-1.9-1.5-10-2.6-18-1.4-9.9-4.6-24.1-10.1-44.5l-8-30-1.5-29c-.8-16-2-32.6-2.5-37-1.3-10.4-1.3-11.5.4-11.5 1.6 0 4.6-3.7 4.6-5.6 0-.7-1.3-1.5-2.9-1.9-4.1-.9-5-2.2-8.8-13.8-2.7-8.2-3.3-11.2-2.8-15.4 1.6-15.8-9.6-33.8-25.7-41.3-9.9-4.6-30.6-8.3-43.9-7.8l-10.7.3-1.7-2.7c-.9-1.6-3.4-3.7-5.5-4.8-4.2-2.2-12.4-2.7-13.6-.9"/></svg>