<svg xmlns="http://www.w3.org/2000/svg" width="682.667" height="512" version="1.0" viewBox="0 0 512 384"><path d="M275.6 37.9c-.3.5 1 2.1 2.9 3.5 3.1 2.4 7.2 8.3 6.3 9.1-.2.2-2.8 1.3-5.8 2.5-13.2 5.2-19.9 13.9-21.5 28.2-1 7.8-1 7.9-3.9 6.8-4.3-1.6-3.9.6.9 5.7 5.6 5.8 5.4 7.8-1 13.9-6.8 6.6-13 10.4-16.7 10.4-1.8 0-4 .5-4.8 1-1.3.8-1.2 1.4.5 4.7s2.5 3.8 6 4.1c2.2.2 4.6.8 5.3 1.4 1 .8 2.1.3 4.7-2.2 2.2-2.1 3.9-3 5-2.6.9.3 2.6.1 3.7-.5 2-1.1 2-.9 1.4 3.2-.3 2.4-.2 5.1.4 5.9.6 1 1 1.1 1 .2 0-2.1 1.7-1.3 2.4 1 .7 3 6.4 9.8 8.1 9.8.8 0 1.2-.8.9-2.3-.3-1.8-.2-1.7.9.6.7 1.5 1.6 2.5 1.9 2.1.4-.3 1.2 1.4 1.8 3.7.6 2.4 1.3 5.1 1.6 6.1.3.9 0 1.9-.5 2.3-.7.4-.6 1.4.3 2.8 1.8 2.7 4.6 21.5 4.6 30.3 0 4.9-.5 7.3-1.9 9.2-3.4 4.9-8.2 13.4-7.7 13.9.2.3 1.3 0 2.4-.6 1.8-.9 1.5.2-1.9 7.6-4.7 10.4-4 9.2-11.1 18.4-8.8 11.5-11.7 19.9-8.4 24.5 1.4 1.7 1.1 2.3-2.4 5.9-2.1 2.2-10.2 12.5-18.1 23-7.8 10.4-17.2 22.8-20.8 27.5-6 7.7-6.6 8.9-6.7 13.5-.1 2.7-.4 6.8-.9 9-.6 3.4-.4 4.3 1.4 5.9 2.5 2.3 2.6 4.4.6 13-1.3 5.4-6.5 20-8.2 22.8-.2.5 1.6.8 4.1.8 4.4 0 4.5-.1 7.9-5.7 2-3.2 5.2-10.2 7.2-15.5l3.7-9.7 6.2 7.2c3.3 3.9 9.8 10.8 14.3 15.4l8.2 8.3h151.6l2.5-12.8c1.5-7.7 2.4-15.2 2.2-19-.2-4.5.4-8.9 2.3-15.5 4.1-14.7 4.3-15.7 5.6-25.9 1.2-9.1 1.1-10.9-1.4-26.4-2-12.1-4.7-23.5-10.3-42.2-10.3-34.7-11-37.7-11.8-52.7-1-19.2-3.5-47.4-4.7-52.5-1-4.2-.9-4.5 1.5-6.3 1.5-1 3.1-2.7 3.6-3.7.9-1.6.4-2.2-3.2-3.8-4.3-1.9-4.3-2-7.5-12.3-2.2-7.2-3.3-13.2-3.6-19.6-.4-7.5-1-10.3-3.5-15.6-3.5-7.6-12.3-16.9-19.7-20.9-10-5.3-31-9.2-46.7-8.6l-10.5.3-1.6-2.7c-2.5-4.3-7.4-6.8-13.4-6.8-2.8 0-5.4.4-5.7.9"/></svg>