<svg xmlns="http://www.w3.org/2000/svg" width="682.667" height="512" version="1.0" viewBox="0 0 512 384"><path d="M270.4 39.1c-.3.6 1.2 2.8 3.3 4.9 6.5 6.2 6.3 7.4-2 11.4-4 1.9-8.4 4.7-9.9 6.3-4.2 4.5-7.6 11.9-8.3 18.1-1.1 10-1.2 10.3-4.1 9.2-3.3-1.3-3.4-1.3-3.4.6 0 .9 1.8 3.4 4 5.6s4 4.8 4 5.7c-.1 4.3-15.1 16.1-20.5 16.1-4.3 0-6.5.9-6.5 2.5 0 2.4 5.1 7.5 7.4 7.5 1.2 0 2.7.5 3.3 1.1.8.8 2.2.2 5.3-2.2 3.1-2.5 5.2-3.4 8.2-3.5h4l-.6 4.1c-.8 4.7 0 7.6 1.7 6.9.7-.2 2.1 1.2 3.2 3.2 2.1 4 6.3 7.7 7.6 6.8.5-.3.9.1.9.8 0 1 .2 1 .9-.1s1-1 1.4.5c.8 2.9 1.9 8.4 2.2 11.3.1 1.4.8 5.7 1.4 9.6.6 3.8 1.4 13.3 1.7 21l.7 14.1-4.6 6.9c-2.6 4-4.7 8.6-5 10.7-.3 2.6-2.2 5.8-6.4 11-3.2 4-8.1 10.6-10.8 14.6-2.6 4-6.5 8.4-8.4 9.9-2 1.4-9.9 9-17.7 16.7-7.7 7.8-19.3 19.2-25.7 25.4-6.5 6.2-11.7 12-11.7 13s-.9 3.8-2.1 6.1c-1.1 2.4-2.3 5.9-2.6 7.9-.5 2.9-.2 3.8 1.8 5.3l2.4 1.8-1.7 6.6c-1 3.6-3.8 11.7-6.3 18.1s-4.5 12.2-4.5 12.9c0 1.2 5.7 3.3 6.4 2.3 6-7.9 14.1-22.4 18.1-32.3l1.6-4 1.8 3c1 1.7 4.4 7.5 7.7 13 3.2 5.5 8.2 13.7 11.1 18.2 7.4 11.6 8.4 11.5 14.5-2.5 14-31.9 21.3-48.3 23.9-53.7l2.8-6 .1 3.9c0 2.2-.6 4.7-1.4 5.5-1.1 1.3-1.5 8.8-2.1 35.3l-.7 33.8h153l.6-3.5c1.5-8 2.7-21 3.5-36.8.4-9.3 1.1-17.2 1.7-17.5.5-.4.9-3 1-5.7 0-2.8.4-10 .8-16 .8-10.9.8-11.2-3.3-27-2.3-8.8-5.5-19.4-7.1-23.5-10.6-27.4-18.4-48.1-19.5-52-.7-2.5-1.8-10.6-2.4-18-1.4-15.7-4.7-45-5.7-49.8-.5-2.4-.3-3.2.8-3.2 1.7 0 4.8-3.1 4.8-4.7 0-.6-1.7-2-3.7-3-4.2-2.2-4-2-7.8-13.3-2.2-6.7-2.9-10.4-2.9-17.5-.1-8.2-.4-9.7-3.5-15.8-4-8.2-12.6-17.4-19.6-20.9-10.9-5.5-30.4-9.1-46.6-8.6l-10.6.3-2.9-3.4c-1.5-1.8-4.3-4-6.1-4.7-3.9-1.7-9.9-1.8-10.9-.3"/></svg>