<svg xmlns="http://www.w3.org/2000/svg" width="682.667" height="512" version="1.0" viewBox="0 0 512 384"><path d="M270 42c0 .7 1.8 3 4 5 5.4 5 5.2 7.3-.5 9.4-10.6 4.1-17.7 13.4-19.6 25.7-1.6 10.4-1.4 10-4.3 8.9-5.4-2-3.7 3.7 2.4 8.2 1.7 1.2 3 2.7 3 3.3 0 1.5-7.5 8.6-13.4 12.5-3.9 2.7-5.9 3.3-9.2 3.1-5-.2-6 .9-4 4.6 1.8 3.6 4.5 5.9 7.7 6.7 2.2.5 3.6-.2 7.5-3.4s5.1-3.7 6.2-2.7c.8.6 2.5 1 3.8.9 2.7-.4 2.6-.4 1.5 5.5-.6 3.2-.5 4.6.5 5.4 1.1.9 1.4.7 1.5-.7 0-1.6.2-1.5 1 .4.5 1.3 2.3 4.4 4.1 6.9 2.5 3.4 3.7 4.4 5.5 4 1.6-.3 2.3.2 2.7 1.7 1.6 6.5 3.6 28.9 3.6 40.9v13.8l-4 5.3c-2.4 3.2-4 6.4-4 8 0 1.9-1.6 4.4-5.3 8.4-3 3.1-8.8 9.6-12.9 14.5-4.2 4.8-10.2 10.7-13.5 13-4.8 3.6-28.6 24.5-30.3 26.6-.3.4-6 5.3-12.8 11-7.9 6.6-12.1 10.8-11.8 11.7.3.8-.5 3-1.9 4.9-1.3 2-3.2 5.7-4.1 8.2l-1.8 4.6 2.7 2.1c2.3 1.8 2.5 2.5 1.8 5.6-1 4.4-6.6 19.8-9.7 26.8-3.2 7.1-3.1 8.9.7 9.7 1.7.4 3.1.5 3.2.3 1-1.7 7.3-10.4 7.8-10.8.4-.3 3.5-6 6.9-12.8 3.5-6.8 6.6-12 7-11.5.4.4 5.6 10.3 11.5 22 10 19.8 10.9 21.1 13.3 20.9 2.3-.3 4.3-3.8 19.9-34.8 13-26.1 18.4-35.8 21.9-39.7 2.6-2.9 4.9-5 5.2-4.7.9.9-2.1 24.1-3.4 26.1-.8 1.4-1.4 9.4-1.8 26.5-.4 13.5-.9 28-1.2 32.3l-.6 7.7h77.5c72.4 0 77.5-.1 78.1-1.7.9-2.3 2.7-26.9 3.1-41.3.1-6.3.7-16 1.3-21.5 2.1-18.9 1.7-23.9-3.3-41.2-2.4-8.7-7.6-23.7-11.6-33.3-3.9-9.6-9.3-23.4-12.1-30.5l-4.9-13-2-22.5c-1.1-12.4-2.6-27.8-3.4-34.2-1.8-14.1-1.8-13.3-.1-11.9 2 1.7 7.3-3.4 5.6-5.4-.7-.8-1.8-1.5-2.5-1.5-6 0-11.5-13.7-12.4-31-.5-10-1-12.2-3.5-17.2-3.5-6.9-13.2-16.5-20.2-20.1-10.3-5.2-33.8-9.3-47.8-8.3l-8.8.6-3.7-4.2c-3.5-3.9-4.2-4.2-9.9-4.6-4.6-.3-6.2-.1-6.2.8"/><path d="M255.1 138.6c0 1.1.3 1.4.6.6.3-.7.2-1.6-.1-1.9-.3-.4-.6.2-.5 1.3"/></svg>