<svg xmlns="http://www.w3.org/2000/svg" width="682.667" height="512" version="1.0" viewBox="0 0 512 384"><path d="M277.6 39.6c-.4.9.4 2.8 1.8 4.5 1.3 1.6 2.7 4.3 3.1 6.1.6 2.8.4 3.5-2.1 5.5-8.2 6.4-9.9 8.1-13.1 12.8-2 3.1-4 8-5 12.4l-1.7 7.2-4-.3c-3-.2-4.1.1-4.4 1.3-.4 2.3 3.6 6.9 7.5 8.5 1.8.8 3.3 1.7 3.3 2 0 4.1-13.9 18.6-20.6 21.4-2.4 1.1-4.4 2.1-4.4 2.4 0 1.6 2.5 5.6 3.6 5.6.6 0 1.5.7 1.8 1.6.5 1.2.9 1.4 2 .5.7-.6 2.1-.9 3-.5 1 .4 3.7-.8 7.1-3.2 5.9-4 7.7-4 5.5.1-.7 1.4-1 2.8-.5 3.2.4.5 1 .2 1.2-.5.9-2.5 1.9-1.1 1.6 2-.3 2.3-.2 2.9.5 1.9s1.7 0 3.9 4c1.6 3 3.5 5.3 4.2 5.1.7-.1 1.9.3 2.7.9s1.4.8 1.4.4.7-.2 1.5.5c1.9 1.6 1.9 6.9 0 9.4-1.3 1.7-1.3 2.2.2 3.8 1.4 1.5 1.5 3.4.9 13.5-.9 15.9-1.7 19.2-5.3 22.8-1.6 1.7-3.2 3.5-3.4 4.1-.5 1.4-38.9 19.8-45.9 22-3 .9-10.4 4.2-16.5 7.2-6 3-18.6 8.8-28 12.8-11.7 5-17.4 7.9-18.1 9.4-.7 1.2-2.7 3.2-4.5 4.4-4.2 2.9-7.9 9.6-7.9 14.4 0 5.7-1.7 10.7-7.6 22.5-6.3 12.5-8.1 19-6.3 22.3.6 1.3 1.8 2 2.5 1.7.8-.3 4.8-5.5 8.9-11.7 6.8-10 10.7-15.5 15.7-22.6 1-1.3 2-2.2 2.2-1.9.3.3 1.9 9.8 3.5 21.2 4.5 30.3 4.1 28.5 6.3 29 2.3.6 15.6-12.3 38.3-37.1 7.6-8.4 16-16.9 18.6-18.8 3.8-2.8 18.9-9.9 19.5-9.1 0 .1.9 2.4 2 5.1 1 2.7 3.5 7.1 5.6 9.7 2.1 2.7 3.8 5.9 3.8 7.2 0 3.6-3 12.9-5.1 15.9-4 5.6-6.9 13.6-8.3 23.4-.9 5.6-1.8 10.8-2.1 11.6-.4 1.1.2 1.8 1.9 2.2 1.4.3 2.6 1.1 2.6 1.6 0 1.8 4 1.1 4.1-.8.2-6.8 2-23.3 2.8-26.2 1.4-4.5 6.5-12.7 5.7-9-.3 1.4-.9 5.8-1.3 9.9-.6 6.9-.5 7.5 1.7 9.1 1.8 1.4 2 2 1.1 3.6-.6 1-2.2 4.8-3.7 8.4-1.4 3.6-3.7 7.9-5 9.7-2.8 3.7-3 5.6-.8 7.7 2.3 2.4 2.9 2.1 6.3-3.1l3.1-4.6v5.5c0 5.7-1.5 23.6-2.5 29.5l-.6 3.3h138.7l-.1-14.8c0-8.1.4-15.6.9-16.7.9-2.1 1.1-5.7 2.1-36l.6-19-3.9-15.6c-2.2-8.6-6.8-24.2-10.2-34.7-3.4-10.6-6.1-20-6.2-20.9 0-1 1.4-5.5 3.1-10.1l3.1-8.2h-2.5c-1.3 0-2.6-.4-2.9-.9-.3-.4-2-1.1-3.7-1.5l-3.2-.6.7-10.8c1.9-31.3 2.4-46.5 1.6-52.4-1.3-8.8-1.3-8.8 1.7-8.8 1.8 0 3.5 1 4.8 2.7l2.2 2.6 2.1-2.1c3.2-3.2 2.8-5.9-1-7.5-4.4-1.9-11.4-9.6-12.3-13.6-.4-2 0-5.9 1-10.2 3.6-14.4.3-24.8-11.6-37.4-10.5-11-21.1-15.8-41.9-19-5.8-.9-11.4-1.8-12.5-2-2.4-.5-14.3 1.4-16.8 2.7-1.4.7-2 .2-3.6-3.5-1.1-2.5-3-5.2-4.2-6.1-3.1-2.1-9.5-2.1-10.3 0"/></svg>