<svg xmlns="http://www.w3.org/2000/svg" width="682.667" height="512" version="1.0" viewBox="0 0 512 384"><path d="M286.1 29.4c-1 1.2-.9 2 .5 4.1 1.5 2.3 1.6 3.2.3 8.3-1.1 4.6-2.4 6.9-7.5 12.3-4.4 4.9-6.7 8.5-8.4 13.1-2.6 7-5.4 10.1-8.6 9.3-3.2-.7-4.9 1.7-3.3 4.7 1.9 3.5 4.1 4.9 7.2 4.3 8.1-1.4-3.9 13.3-12.8 15.6-8.1 2.1-9 2.9-9.3 8.8-.3 6 .8 8.2 3.3 6.1 1.2-1 2.1-.7 5.5 2.4 4.6 4.1 4.8 4.1 9.7 2.1 4.2-1.8 4.6-1.8 3.8-.5-.3.5-.2 1 .2 1 .5 0 2 2.5 3.4 5.5 2.3 5.2 4.5 7.3 8.2 7.9.9.1 2 .5 2.3.9 1.6 1.6 2.3.5 1.7-2.6-.6-2.9-.5-3.1 1-1.8 3.1 2.5 1.2 11.9-2.8 13.4-2.6 1.1-1.6 3.7 2 5.3 4.9 2 5.8 5 5.1 16.1-.7 10.8-1.2 12.3-3.6 12.3-1 0-4.1 1.6-7 3.5s-5.8 3.5-6.4 3.5c-.7 0-9.3 2-19.2 4.3-9.8 2.4-21.5 5-25.9 5.6-4.4.7-13.4 3-20 5.2-10.3 3.3-19.8 5.9-43.3 12.1-3 .7-4.6 1.8-5.2 3.3-.5 1.2-2.4 3.2-4.2 4.3s-4.3 3.1-5.5 4.4c-2.7 2.9-8.3 14.2-11.6 23.3-1.4 3.8-4 10.1-5.8 14-2.7 5.6-3.4 8.2-3.4 13.2 0 3.4.3 6.4.6 6.7 1.4 1.4 4-.9 6.8-5.9 2.7-4.7 7.5-11.3 19.3-26.7l3.7-4.8.7 3.2c.3 1.8.3 12.7-.1 24.4-.5 15.1-.4 21.8.4 23.3 1.1 2 1.8 1.6 14.9-8.5 7.5-5.8 17.3-13.4 21.7-17 22.1-17.6 30-22.7 37.3-23.9 2-.4 9.3-2.5 16.1-4.7 6.8-2.1 12.5-3.7 12.8-3.5.2.3-.8 2.8-2.2 5.5-3.2 6.1-4.2 14.4-2.5 19.8 2.1 6.4 2.1 15.4-.1 19.6-1.1 2.1-2.3 3.8-2.8 3.8-1.5 0-13 11.9-15.7 16.2-1.5 2.4-4 5.8-5.6 7.7-2.7 3-2.8 3.5-1.4 5 .9 1 1.6 2.3 1.6 2.9 0 .7.6 1.2 1.3 1.2 1.2 0 5.3-5.8 10-14 1.4-2.5 3.5-5.7 4.6-7l2.1-2.5-.6 3.1c-.8 4 .8 7 4.9 9 4.2 2.2 4 1.9 2.5 4.3-.9 1.5-1 2.3-.1 3.2 1.8 1.8 6.1.2 7.7-2.9.9-1.5 1.5-2.2 1.6-1.7 0 1.4-2.6 5.2-6.5 9.5-4.4 4.7-5 6.8-2.2 7.2 3.3.5 7.4-3 11.4-9.5 1.9-3.2 3.8-5.6 4.1-5.2.3.3-.4 1.8-1.6 3.5-2 2.6-2.3 4.8-3.2 23.7-.5 11.4-1.3 26.1-1.6 32.5l-.7 11.8h111.4l-.6-6.8c-.6-6.2-.3-7.6 3.5-18.7 2.3-6.6 4.5-14.9 5-18.5.4-3.6 1.5-10.3 2.4-15 3.9-20.6 4.3-28.3 2.4-43.9-.9-8-2.9-21.2-4.4-29.4l-2.7-14.7 5.9-11.8c6-12 6.6-13.7 4.9-13.7-.5-.1-2.1-.7-3.4-1.4s-4.4-1.6-7-2l-4.6-.6V196c0-9.6 1.9-30.6 5.2-57.8.9-8.1 3.4-9.5 12-6.7 1.8.6 2.2.2 2.8-2.5.8-3.7-.2-5.1-5.5-7.8-1.9-.9-4.8-3.8-6.6-6.4l-3.2-4.8 2.5-7.2c1.5-4.5 2.6-9.8 2.6-13.9.2-5.8-.2-7.5-3.6-14-4-8-13.3-18.5-21.1-23.9-9.7-6.6-21.1-10.5-38.1-13-9-1.4-17.7-.7-24.4 1.9l-4.6 1.7.4-4.3c.4-5.9-1.8-9.3-6.3-9.3-1.8 0-3.9.6-4.5 1.4m-9.9 254.8c.5 1.5-1.7 16.6-2.5 17.4s-1 .1-3.1-9.1c-2-8.7-2-8.8.3-8 1.1.3 2.2.1 2.6-.5.8-1.3 2.2-1.3 2.7.2"/></svg>