<svg xmlns="http://www.w3.org/2000/svg" width="682.667" height="512" version="1.0" viewBox="0 0 512 384"><path d="M293.6 27.3c-1.3 1-1.5 1.8-.8 3.7 1.6 4.2-2.8 15.2-9.5 24-1.9 2.5-4.1 5.9-4.8 7.6-2 4.9-8.2 11.2-11.3 11.6-3.8.4-4.1 3.9-.7 6.6 2.1 1.7 3.2 1.9 5.2 1.1 3.3-1.2 3.9-.5 2.7 2.8-1.2 3.5-15.1 10.6-21.3 10.8-5.1.1-7.1 2.2-7.1 7.3 0 5.4 1.4 7.2 5.4 6.5 3-.5 3.5-.2 5.6 3.1 3.1 5.2 6.1 6.9 10.3 6.1 3.3-.7 3.5-.5 4.7 3.2 1.6 4.8 4 8.4 5 7.8.5-.3 1.1-.1 1.5.5s1.1.8 1.6.5.6.1.3 1c-.4.9-.3 1.5.2 1.4s1.2 0 1.7.1c.4.1 1 .3 1.5.5 2.2.6 4.2 1.8 4.2 2.6 0 .5-1.6 2.6-3.5 4.8-3.8 4.1-3.6 5 1.6 7 3.1 1.1 3.9 4.1 3.9 15 0 8.2-.9 10.1-4.6 10.1-1.2 0-2.7.6-3.3 1.4-1.5 1.8-4.3 2.1-36.8 4.1-21.5 1.4-27.5 2.1-40.5 5.1-15.6 3.5-43.7 9.4-45.1 9.4-.4 0-1.2 1.1-1.8 2.4s-3.3 3.4-6.1 4.7c-8.2 3.8-15.8 14.1-31.4 42.8-2.9 5.3-3.1 10.4-.5 13 2.2 2.2 2.6 2 7.4-4.5 2-2.8 7.6-8.9 12.5-13.5 4.8-4.6 10.4-10.4 12.5-12.8l3.7-4.5v27.2c0 15.6.4 27.3.9 27.7.5.3 7.9-4.5 16.3-10.5 44.4-32.1 46.4-33.4 54.5-34.5 2.7-.4 9.3-1.5 14.8-2.5 12.7-2.3 32.3-4.5 33.1-3.7.3.3-.4 2.3-1.7 4.4-4 6.4-4.7 7.5-8.9 16.1-3.6 7.3-4 8.9-3.4 12.7.4 3.2.1 5.8-1.5 10-2.5 6.6-2.7 10.4-.5 11.9 2.4 1.8.8 4.1-5.9 8.5-3.4 2.2-8.2 5.9-10.7 8.2s-6.5 5.5-8.9 7.2c-3.6 2.5-4.1 3.1-2.7 3.9.9.5 1.6 1.6 1.6 2.3 0 2.7 2 1.5 9.9-6 4.3-4.1 8.1-7.5 8.5-7.5.3 0 .6.6.6 1.4 0 1.7 6.1 7.2 9 8.1 1.2.4 1.9 1.4 1.8 2.3-.2 1.3.4 1.7 3.1 1.5 4.4-.2 8-4.4 8.1-9.3 0-1.9.3-5.9.6-8.8.6-4.7.9-5.2 3.2-5.2 2.4 0 2.4.1 1.7 5.7-.4 3.8-1.6 7.1-3.3 9.7-1.5 2.1-3.7 5.6-5 7.7s-3.7 4.8-5.3 6c-1.6 1.1-2.7 2.5-2.4 3 .9 1.4 5.9 1.1 8.1-.6 2.3-1.7 3.4-1.9 3.4-.5 0 .5-.6 1-1.4 1-1.8 0-2.4 4.3-3.6 27.5-.5 10.4-1.3 23.4-1.6 28.7l-.7 9.8h55.2c43.4 0 55.1-.3 55.1-1.3 0-.6-1.2-6.6-2.6-13.2-3.7-16.8-3.8-17.5-2.6-17.5 1.3 0 2.8-4.9 3.7-11.5.5-4.4 3.8-17.6 8.1-32.9.8-2.7 1.4-6.7 1.4-8.8s.9-5.6 2-7.8c3.3-6.4 2.8-16-1.6-28.9-2.7-8.2-3.4-11.5-2.9-14.7.7-5.1 6.5-17.4 10.7-22.7l3.1-3.9-2.4-1.9c-2.3-1.8-10.9-4.9-13.6-4.9-3.1 0-2.9-7.1 1.2-34 1.4-8.5 2.9-20.7 3.5-27s1.3-12.5 1.5-13.6c.6-2.6 8.8-6.4 13.1-6.1 2.1.1 2.9-.3 3.2-1.7.2-1 0-2.1-.5-2.5-.4-.3-1.3-1.5-1.9-2.6s-2.1-2.5-3.3-3.1c-2.7-1.4-7.9-6.3-9.2-8.5-.6-1.1.1-4.3 2.1-9.8 6.6-18.1 2.9-29.5-15.3-47.4-9.5-9.3-19.3-14.5-34.2-18.3-17.2-4.3-23.7-4.3-38.2.1-2.1.7-2.2.5-1.6-4.9.5-4.8.3-5.9-1.3-7.1-2.4-1.8-4.5-1.9-6.8-.2m-5.9 105.9c-.3.7-.5.2-.5-1.2s.2-1.9.5-1.3c.2.7.2 1.9 0 2.5"/></svg>